<?xml version="1.0" standalone="no"?>
<!DOCTYPE svg PUBLIC "-//W3C//DTD SVG 1.1//EN" "http://www.w3.org/Graphics/SVG/1.1/DTD/svg11.dtd">
<svg xmlns="http://www.w3.org/2000/svg">
<defs >
<font id="B612Mono" horiz-adv-x="1403" ><font-face
    font-family="B612 Mono"
    units-per-em="2000"
    panose-1="2 11 6 9 5 0 0 2 0 4"
    ascent="1930"
    descent="-500"
    alphabetic="0" />
<glyph unicode=" " glyph-name="space" horiz-adv-x="1300" />
<glyph unicode="!" glyph-name="exclam" horiz-adv-x="1300" d="M605 1500V450L395 429V1500H605ZM378 106Q378 131 387 153T413 191T452 217T499 227Q524 227 546 218T584 192T610 153T620 106Q620 81 611 59T585 20T547 -7T500 -17Q474 -17 452 -7T414 19T388
58T378 106Z" />
<glyph unicode="&quot;" glyph-name="quotedbl" horiz-adv-x="1300" d="M525 1500V1400Q525 1381 523 1357T518 1306T510 1251T502 1196L481 1067H394L372 1196Q367 1223 363 1251T356 1306T352 1357T350 1400V1500H525ZM826 1500V1400Q826 1381 824 1357T819
1306T811 1251T803 1196L782 1067H695L673 1196Q668 1223 664 1251T657 1306T653 1357T651 1400V1500H826Z" />
<glyph unicode="#" glyph-name="numbersign" horiz-adv-x="1300" d="M1028 950L978 550H1250L1230 400H961L911 0L710 -20L764 400H491L443 0L243 -20L294 400H100V550H311L362 950H100L120 1100H379L403 1285V1500L629 1520L576 1100H849L897 1500L1098 1520L1047
1100H1250V950H1028ZM830 950H559L510 550H781L830 950Z" />
<glyph unicode="$" glyph-name="dollar" horiz-adv-x="1300" d="M992 1300Q975 1314 949 1328T891 1355T822 1376T746 1388V863Q815 831 882 794T1003 707T1090 590T1123 432Q1123 339 1095 265T1017 135T898 45T746 -5V-200H600V-17Q542 -16 485 -6T377 21T281
57T205 100L323 241Q343 228 369 212T429 182T505 158T600 148V721Q531 755 463 792T342 875T256 979T223 1116Q223 1221 254 1294T338 1414T458 1485T600 1517V1700L746 1720V1517Q852 1511 934 1481T1086 1400L992 1300ZM933 400Q933 445 916 482T870 551T801
610T716 662V158Q765 167 805 186T873 234T917 305T933 400ZM413 1147Q413 1106 430 1073T476 1013T545 962T630 916V1383Q589 1376 551 1361T481 1317T432 1247T413 1147Z" />
<glyph unicode="%" glyph-name="percent" horiz-adv-x="1300" d="M395 0H229L905 1500H1071L395 0ZM359 800Q289 800 240 827T159 903T114 1018T100 1162Q100 1238 113 1303T156 1416T236 1490T359 1517Q429 1517 478 1490T558 1416T603 1304T617 1162Q617 1085
604 1019T560 904T481 828T359 800ZM468 1210Q468 1245 465 1277T451 1333T418 1371T358 1386Q321 1386 300 1373T269 1338T255 1287T252 1224V1123Q252 1087 255 1055T269 998T302 959T363 944Q399 944 420 957T451 992T465 1043T468 1105V1210ZM942 -17Q872 -17
823 10T742 86T697 201T683 345Q683 421 696 486T739 599T819 673T942 700Q1012 700 1061 673T1141 599T1186 487T1200 345Q1200 268 1187 202T1143 87T1064 11T942 -17ZM1051 393Q1051 428 1048 460T1034 516T1001 554T941 569Q904 569 883 556T852 521T838 470T835
407V306Q835 270 838 238T852 181T885 142T946 127Q982 127 1003 140T1034 175T1048 226T1051 288V393Z" />
<glyph unicode="&amp;" glyph-name="ampersand" horiz-adv-x="1300" d="M1176 721Q1176 642 1169 563T1140 408T1081 265T983 141H1075L1195 -20H973L897 77Q822 27 734 5T549 -17Q446 -17 363 20T222 122T132 270T100 447Q100 542 125 615T191 742T278 830T369
881Q350 909 331 945T296 1021T270 1100T260 1176Q260 1248 279 1310T342 1418T453 1490T617 1517Q683 1517 735 1500T829 1456T902 1398T957 1338L877 1200Q862 1226 839 1254T784 1305T708 1344T609 1359Q561 1359 529 1340T476 1293T448 1233T439 1175Q439 1146
449 1112Q453 1097 464 1074T497 1014T553 921T636 786T752 599T906 352Q930 386 944 423T967 502T979 592T982 700L1176 721ZM425 700Q362 671 326 612T289 457Q289 385 315 331T381 241T472 188T573 170Q616 170 649 175T707 188T751 208T787 234L425 800V700Z"
/>
<glyph unicode="&apos;" glyph-name="quotesingle" horiz-adv-x="1300" d="M225 1500H400V1400Q400 1325 365 1240T259 1067H200Q209 1117 214 1161T222 1245T224 1324T225 1400V1500Z" />
<glyph unicode="(" glyph-name="parenleft" horiz-adv-x="1300" d="M500 1180Q500 1269 509 1346T548 1479T638 1568T800 1600Q819 1600 840 1599T879 1594T914 1586T939 1575L870 1449L856 1451Q849 1452 840 1453T820 1454Q776 1454 752 1433T716 1376T702 1293T700
1194V-14Q700 -66 702 -113T715 -196T751 -253T820 -274Q831 -274 840 -274T856 -272L870 -269L939 -395Q930 -401 914 -405T880 -413T840 -418T800 -420Q698 -420 639 -388T549 -300T509 -166T500 0V1180Z" />
<glyph unicode=")" glyph-name="parenright" horiz-adv-x="1300" d="M899 0Q899 -89 890 -166T851 -299T761 -388T599 -420Q579 -420 559 -419T520 -414T485 -406T460 -395L529 -269L543 -272Q550 -273 559 -273T579 -274Q623 -274 647 -253T683 -196T697 -113T699
-14V1194Q699 1246 697 1293T684 1376T648 1433T579 1454Q568 1454 559 1453T543 1451L529 1449L460 1575Q469 1581 485 1585T519 1593T558 1598T599 1600Q701 1600 760 1568T850 1480T890 1346T899 1180V0Z" />
<glyph unicode="*" glyph-name="asterisk" horiz-adv-x="1300" d="M831 994L971 802L872 712L723 918L699 990L675 918L535 726L419 793L567 996L632 1041L551 1045L328 1118L355 1249L593 1172L659 1120L637 1202V1436L770 1450V1198L744 1118L810 1168L1035
1240L1089 1118L847 1040L768 1037L831 994Z" />
<glyph unicode="+" glyph-name="plus" horiz-adv-x="1300" d="M200 700H573V1121H728V700H1100V545H728V122H573V545H200V700Z" />
<glyph unicode="," glyph-name="comma" horiz-adv-x="1300" d="M152 127Q152 156 163 182T195 228T243 259T300 271Q329 271 355 261T402 230T435 180T448 110Q448 57 442 8T415 -93T356 -197T256 -307L204 -284Q227 -240 245 -193Q260 -154 272 -108T285 -17Q260
-16 236 -6T193 21T163 66T152 127Z" />
<glyph unicode="-" glyph-name="hyphen" horiz-adv-x="1300" d="M400 600H900V445H400V600Z" />
<glyph unicode="." glyph-name="period" horiz-adv-x="1300" d="M136 150Q136 184 149 214T184 266T236 302T300 315Q334 315 364 302T416 267T452 214T465 150Q465 116 452 86T417 33T366 -3T302 -17Q268 -17 238 -4T185 32T149 85T136 150Z" />
<glyph unicode="/" glyph-name="slash" horiz-adv-x="1300" d="M385 -100H175L885 1600H1085L385 -100Z" />
<glyph unicode="0" glyph-name="zero" horiz-adv-x="1300" d="M651 -17Q566 -17 495 15T368 104T269 235T198 395T155 572T141 750Q141 840 153 932T191 1109T257 1268T354 1398T484 1485T651 1517Q736 1517 807 1485T934 1396T1033 1265T1104 1105T1147 928T1161
750Q1161 660 1149 568T1111 391T1045 232T948 102T817 15T651 -17ZM348 793Q348 735 352 666T368 526T401 389T457 272T541 189T659 158Q720 158 765 181T844 245T898 339T931 454T949 580T954 707Q954 765 950 834T934 974T901 1110T845 1228T761 1310T643 1341Q582
1341 537 1318T458 1254T404 1160T371 1045T353 920T348 793Z" />
<glyph unicode="1" glyph-name="one" horiz-adv-x="1300" d="M238 0V160H583V1126L641 1353L505 1167L293 979L185 1100L643 1520L793 1500V160H1138V0H238Z" />
<glyph unicode="2" glyph-name="two" horiz-adv-x="1300" d="M183 0V168Q229 241 283 312T392 449T501 576T599 688Q651 748 699 798T785 898T844 999T866 1115Q866 1163 848 1205T798 1279T720 1329T621 1348Q560 1348 516 1332T438 1288T380 1228T334 1160L193
1220Q219 1285 259 1339T355 1433T480 1495T636 1517Q737 1517 816 1481T949 1387T1032 1254T1061 1104Q1061 1027 1033 958T962 826T870 708T780 605Q728 544 676 485T577 370T488 261T417 160H1117V0H183Z" />
<glyph unicode="3" glyph-name="three" horiz-adv-x="1300" d="M227 1340L242 1500H1022V1360Q1010 1320 982 1277T915 1189T831 1101T739 1019L607 945Q617 947 632 947T662 948Q759 948 842 924T987 852T1084 729T1120 553Q1120 456 1084 377T986 237T839 131T660
57T462 14T262 0V160Q345 163 425 175T577 208T710 261T815 333T885 427T910 543Q910 615 880 663T796 739T672 778T518 790Q486 790 449 789T381 785V940Q422 970 470 1008T567 1087T662 1171T747 1252T811 1324T845 1380L693 1340H227Z" />
<glyph unicode="4" glyph-name="four" horiz-adv-x="1300" d="M1136 300H956V0H746V300H151V471L635 1520L824 1500L409 600L316 460H746V867L956 850V460H1151L1136 300Z" />
<glyph unicode="5" glyph-name="five" horiz-adv-x="1300" d="M456 982Q463 986 480 995T524 1013T583 1028T658 1035Q762 1035 843 1003T981 914T1067 781T1097 619Q1097 518 1061 433T963 279T817 158T639 71T444 18T248 0V160Q323 162 400 178T548 222T682
289T791 376T865 480T892 598Q892 649 876 697T827 782T745 843T631 866Q580 866 539 860T466 843T411 822T372 800H248V1500H1001V1340H456V982Z" />
<glyph unicode="6" glyph-name="six" horiz-adv-x="1300" d="M959 1344Q952 1346 939 1346T914 1347Q842 1347 774 1325T646 1261T536 1163T447 1038T383 891T350 730L433 847Q458 863 491 877T562 903T637 920T709 927Q796 927 876 903T1019 829T1119 701T1157
513Q1157 405 1121 309T1018 140T860 25T656 -17Q558 -17 483 14T351 98T258 217T197 354T163 494T153 620Q153 739 177 852T248 1064T362 1247T514 1390T702 1483T923 1517Q938 1517 956 1517T984 1514L959 1344ZM359 597Q359 569 359 546T362 501T368 457T379
407Q393 350 417 304T476 224T556 172T659 153Q738 153 793 183T884 262T935 375T952 503Q952 566 934 614T881 693T800 741T694 757Q640 757 589 744T494 709T415 658T359 597Z" />
<glyph unicode="7" glyph-name="seven" horiz-adv-x="1300" d="M177 1500H1120V1370Q1120 1327 1088 1260T1005 1108T896 928T783 730T689 526T638 329Q633 288 631 245T627 158T625 74V0H420Q420 30 420 80T423 187T430 298T443 392Q466 499 508 602T601 801T705
982T801 1136T871 1258T899 1340H177V1500Z" />
<glyph unicode="8" glyph-name="eight" horiz-adv-x="1300" d="M631 1517Q722 1517 800 1492T934 1420T1023 1306T1055 1155Q1055 1096 1038 1050T990 968T921 902T837 846Q911 813 969 771T1068 675T1130 555T1152 410Q1152 299 1108 219T992 86T827 8T637 -17Q542
-17 454 11T299 95T190 233T149 424Q149 504 172 569T235 686T330 778T449 850Q402 879 362 910T291 976T243 1053T225 1144Q225 1241 263 1311T362 1427T493 1495T631 1517ZM620 760Q557 733 507 701T421 627T366 533T346 414Q346 354 370 305T435 221T529 166T638
147Q702 147 759 164T860 216T929 300T954 415Q954 482 925 534T848 628T741 702T620 760ZM661 923Q753 964 807 1022T862 1163Q862 1213 842 1249T790 1308T722 1341T650 1352Q605 1352 563 1339T489 1300T438 1241T418 1167Q418 1121 437 1086T490 1022T568 969T661
923Z" />
<glyph unicode="9" glyph-name="nine" horiz-adv-x="1300" d="M869 663Q810 617 751 595T616 573Q518 573 433 605T285 698T186 842T150 1031Q150 1139 184 1228T282 1381T436 1481T639 1517Q739 1517 815 1486T948 1404T1041 1287T1101 1150T1133 1009T1143 880Q1143
764 1120 654T1051 445T939 265T789 121T602 24T382 -17L351 150Q471 156 576 207T762 342T892 539T949 780L869 663ZM937 953Q934 1028 916 1098T861 1224T772 1313T647 1347Q579 1347 525 1325T433 1264T375 1170T354 1049Q354 984 370 928T420 831T505 767T626
743Q679 743 727 760T816 805T888 872T937 953Z" />
<glyph unicode=":" glyph-name="colon" horiz-adv-x="1300" d="M152 133Q152 164 164 191T196 238T242 269T300 281Q331 281 358 270T405 238T436 191T448 133Q448 102 437 75T405 27T359 -5T302 -17Q271 -17 244 -5T196 27T164 74T152 133ZM152 647Q152 678 164
705T196 752T242 783T300 795Q331 795 358 784T405 752T436 705T448 647Q448 616 437 589T405 541T359 509T302 497Q271 497 244 509T196 541T164 588T152 647Z" />
<glyph unicode=";" glyph-name="semicolon" horiz-adv-x="1300" d="M152 641Q152 672 164 699T196 746T242 777T300 789Q331 789 358 778T405 746T436 699T448 641Q448 610 437 583T405 535T359 503T302 491Q271 491 244 503T196 535T164 582T152 641ZM152 127Q152
156 163 182T195 228T243 259T300 271Q329 271 355 261T402 230T435 180T448 110Q448 57 442 8T415 -93T356 -197T256 -307L204 -284Q227 -240 245 -193Q260 -154 272 -108T285 -17Q260 -16 236 -6T193 21T163 66T152 127Z" />
<glyph unicode="&lt;" glyph-name="less" horiz-adv-x="1300" d="M1100 1211V1036L413 670L335 650L412 630L1100 266V91L200 548V757L1100 1211Z" />
<glyph unicode="=" glyph-name="equal" horiz-adv-x="1300" d="M200 700H1000V560H200V700ZM200 400H1000V260H200V400Z" />
<glyph unicode="&gt;" glyph-name="greater" horiz-adv-x="1300" d="M1100 757V548L200 91V266L888 630L965 650L887 670L200 1036V1211L1100 757Z" />
<glyph unicode="?" glyph-name="question" horiz-adv-x="1300" d="M1000 1144Q1000 1081 983 1031T939 940T876 864T803 796T730 727T667 652T622 562T605 450L395 429Q395 518 412 586T456 706T519 799T592 873T665 937T728 999T773 1068T790 1152Q790 1204 770
1242T716 1304T635 1339T535 1351Q497 1351 457 1340T378 1308T304 1257T240 1190L107 1300Q156 1366 213 1408T330 1475T448 1508T560 1517Q645 1517 724 1495T864 1427T963 1311T1000 1144ZM378 106Q378 131 387 153T413 191T452 217T499 227Q524 227 546 218T584
192T610 153T620 106Q620 81 611 59T585 20T547 -7T500 -17Q474 -17 452 -7T414 19T388 58T378 106Z" />
<glyph unicode="@" glyph-name="at" horiz-adv-x="1300" d="M651 1486Q745 1486 821 1453T956 1361T1057 1218T1127 1034T1167 818T1180 578Q1180 458 1172 348T1139 152T1066 17T939 -34Q906 -34 874 -24T816 4T770 49T743 108L705 8Q678 -17 632 -17Q586 -17
544 6T468 73T416 184T396 337Q396 427 415 494T468 606T546 673T640 695Q673 695 693 689T724 675Q736 666 742 655V690Q742 745 741 784T731 849T706 887T657 900Q625 900 595 893T542 877T505 861L492 854V981Q509 996 534 1008Q555 1019 586 1027T663 1036Q748
1036 794 1014T861 946T886 834T890 676V174Q890 143 901 122T946 100Q966 100 980 124T1003 187T1018 272T1026 363T1029 445T1030 501Q1030 672 1013 823T952 1086T834 1264T647 1330Q595 1330 548 1302T459 1222T384 1101T326 948T289 773T276 584Q276 481 284
379T311 183T359 10T430 -128T528 -220T655 -254Q685 -254 713 -247T766 -227T809 -201T840 -173L889 -322Q835 -367 777 -388T651 -410Q553 -410 476 -375T340 -277T239 -127T171 66T132 292T120 540Q120 671 134 792T178 1018T252 1210T356 1357T488 1452T651
1486ZM742 522Q741 525 735 529Q730 532 718 534T683 537Q653 537 629 526T586 491T558 429T548 337Q548 293 554 257T572 194T603 154T647 139Q670 139 688 159T718 203Q732 231 742 267V522Z" />
<glyph unicode="A" glyph-name="A" horiz-adv-x="1300" d="M32 0L504 1300L539 1500L717 1520L1265 0H1065L917 450H382L216 0H32ZM645 1400L600 1080L431 600H868L690 1080L645 1400Z" />
<glyph unicode="B" glyph-name="B" horiz-adv-x="1300" d="M210 0V1290L180 1490Q240 1498 303 1504T432 1510Q548 1510 653 1496T837 1443T964 1339T1011 1169Q1011 1060 964 981T830 860L676 816L823 802Q884 784 938 756T1031 686T1094 589T1117 460Q1117 375
1095 308T1033 190T942 103T831 44T707 11T580 0H210ZM395 160H505Q604 160 681 174T812 222T894 311T922 450Q922 525 896 578T823 665T708 714T560 730H395V160ZM395 1147V885H500Q561 888 620 904T726 951T801 1031T830 1148Q830 1214 800 1257T721 1326T614
1361T497 1371Q463 1371 427 1369T359 1360L395 1147Z" />
<glyph unicode="C" glyph-name="C" horiz-adv-x="1300" d="M1147 104Q1106 71 1064 48T976 11T879 -10T769 -17Q673 -17 586 11T425 91T290 215T188 374T123 562T100 770Q100 921 143 1056T271 1294T481 1457T772 1517Q887 1517 979 1481T1144 1375L1054 1268Q1030
1284 1003 1298T944 1324T873 1341T788 1348Q666 1348 576 1302T425 1178T336 995T306 773Q306 700 321 626T364 483T435 354T531 249T652 179T795 153Q840 153 874 157T938 170T1000 193T1070 230L1147 104Z" />
<glyph unicode="D" glyph-name="D" horiz-adv-x="1300" d="M175 1500Q206 1503 246 1505T328 1508T411 1510T485 1511Q644 1511 779 1472T1014 1348T1169 1130T1225 810Q1225 664 1197 548T1120 341T1001 187T848 81T670 20T476 0H205V1290L175 1500ZM395 1150V160H415Q544
160 639 190T800 269T909 383T974 517T1006 654T1015 780Q1015 865 1007 941T977 1081T917 1196T819 1283T675 1338T476 1358Q460 1358 442 1357T408 1354L370 1350L395 1150Z" />
<glyph unicode="E" glyph-name="E" horiz-adv-x="1300" d="M1135 160L1115 0H195L210 200V1290L180 1500H1100V1340H375L395 1150V885H1030V740H395V340L385 160H1135Z" />
<glyph unicode="F" glyph-name="F" horiz-adv-x="1300" d="M395 0H205V1290L175 1500H1120L1100 1340H375L395 1150V885H1015V740H395V0Z" />
<glyph unicode="G" glyph-name="G" horiz-adv-x="1300" d="M1190 197Q1149 152 1098 113T986 45T853 0T698 -17Q554 -17 447 45T269 215T163 465T128 770Q128 871 141 965T184 1143T259 1294T372 1412T524 1489T721 1517Q836 1517 938 1481T1113 1375L1023 1268Q975
1300 903 1324T737 1348Q656 1348 595 1327T490 1268T416 1178T370 1061T345 924T338 773Q338 704 345 632T370 490T416 360T487 253T588 180T724 153Q769 153 813 163T896 189T965 224T1014 263V612L700 632V762H1190V197Z" />
<glyph unicode="H" glyph-name="H" horiz-adv-x="1300" d="M946 0V725H378V0H188V1290L159 1500L378 1520V885H946V1500L1136 1520V0H946Z" />
<glyph unicode="I" glyph-name="I" horiz-adv-x="1300" d="M200 1500H1100V1340H742V160H1120L1100 0H200V160H556V1340H180L200 1500Z" />
<glyph unicode="J" glyph-name="J" horiz-adv-x="1300" d="M390 1500H1090V430Q1090 333 1066 254T990 112Q938 49 854 16T648 -17Q570 -17 509 1T398 49T311 114T240 182L342 300Q352 290 379 268T445 223T533 183T638 166Q767 166 838 239T910 470V1148L930
1340H410L390 1500Z" />
<glyph unicode="K" glyph-name="K" horiz-adv-x="1300" d="M205 0V1290L175 1500L396 1520V856L942 1500H1164L633 865L464 802L638 744L1191 0H954L396 746V0H205Z" />
<glyph unicode="L" glyph-name="L" horiz-adv-x="1300" d="M383 160H1113L1093 0H188L208 200V1290L178 1500L393 1520V340L383 160Z" />
<glyph unicode="M" glyph-name="M" horiz-adv-x="1300" d="M973 0V901L1032 1399L1027 1400L873 921L700 500H600L424 920L260 1400L254 1399L328 901V0H148V1290L120 1500L334 1520L580 950L651 700L720 950L946 1500L1153 1520V0H973Z" />
<glyph unicode="N" glyph-name="N" horiz-adv-x="1300" d="M945 0L450 948L291 1361L285 1360L350 920V0H170V1290L140 1500L341 1520L837 557L1003 140L1009 141L930 580V1500L1110 1520V0H945Z" />
<glyph unicode="O" glyph-name="O" horiz-adv-x="1300" d="M650 -17Q560 -17 485 10T348 88T240 209T163 364T116 547T100 750Q100 855 115 952T160 1135T236 1291T343 1411T481 1489T650 1517Q740 1517 815 1490T952 1412T1060 1291T1137 1136T1184 953T1200
750Q1200 645 1185 548T1140 365T1064 209T957 89T819 11T650 -17ZM992 719Q992 789 988 862T970 1004T932 1135T870 1242T776 1315T644 1342Q572 1342 519 1318T429 1253T368 1156T331 1038T313 911T308 785Q308 714 312 640T330 497T368 366T431 258T525 185T656
158Q727 158 779 182T869 249T931 347T968 465T987 593T992 719Z" />
<glyph unicode="P" glyph-name="P" horiz-adv-x="1300" d="M443 0H253V1290L218 1490Q248 1495 288 1499T374 1506T465 1510T550 1512Q720 1512 843 1482T1047 1397T1165 1266T1204 1099Q1204 964 1156 873T1013 727T775 648T443 624V0ZM443 1147V765Q595 765
703 782T880 837T981 939T1013 1095Q1013 1162 975 1213T875 1299T740 1352T595 1370Q578 1370 555 1370T507 1368T461 1364T423 1359L443 1147Z" />
<glyph unicode="Q" glyph-name="Q" horiz-adv-x="1300" d="M916 314Q935 346 951 385T977 477T994 596T1000 751Q1000 821 994 892T971 1029T929 1154T863 1254T769 1322T644 1347Q576 1347 525 1323T435 1256T371 1158T329 1040T307 912T300 785Q300 705 305
628T324 482T365 355T435 255T542 188T693 163Q703 163 711 165T736 172Q710 217 691 251T651 309T607 344T549 356L600 500Q649 500 688 480T764 418T836 317T916 177V314ZM756 0Q723 -8 686 -11T600 -14Q476 -14 383 49T226 218T132 462T100 750Q100 855 115
952T160 1135T236 1291T343 1411T481 1489T650 1517Q785 1517 888 1461T1060 1307T1164 1074T1200 782Q1200 686 1189 591T1155 409T1094 250T1002 124Q994 116 985 108T968 92Q987 60 1002 42T1036 15T1082 3T1151 0L1100 -145Q1050 -145 1009 -137T929 -103T853
-28T774 102L756 137V0Z" />
<glyph unicode="R" glyph-name="R" horiz-adv-x="1300" d="M392 614V0H209V1290L174 1490Q241 1498 321 1505T489 1512Q615 1512 722 1486T907 1407T1029 1278T1073 1099Q1073 994 1037 914T939 778T792 686T610 633L752 593L1155 0H932L529 595Q518 609 504 611T482
614H392ZM392 1147V765H510Q601 765 671 790T789 859T862 960T887 1083Q887 1140 871 1184T827 1260T762 1314T684 1350T599 1369T514 1375Q472 1375 439 1373T372 1364L392 1147Z" />
<glyph unicode="S" glyph-name="S" horiz-adv-x="1300" d="M193 94L284 244Q304 231 336 215T409 183T494 158T585 148Q647 148 709 163T822 211T904 294T936 413Q936 478 906 527T827 615T715 686T587 750T458 816T346 895T267 995T237 1126Q237 1223 278 1296T385
1418T535 1492T705 1517Q918 1517 1098 1397L1001 1274Q933 1314 871 1333T731 1352Q677 1352 623 1341T525 1306T454 1242T426 1145Q426 1089 456 1048T536 975T649 914T778 855T908 788T1020 702T1100 586T1131 429Q1131 317 1086 234T966 95T795 11T599 -17Q535
-17 480 -10T376 12T281 46T193 94Z" />
<glyph unicode="T" glyph-name="T" horiz-adv-x="1300" d="M555 0V1340H130V1500H1165V1340H745V0H555Z" />
<glyph unicode="U" glyph-name="U" horiz-adv-x="1300" d="M1115 1500V523Q1115 387 1083 286T989 117T838 17T635 -17Q513 -17 428 25T288 145T210 332T185 573V1290L155 1500L375 1520V554Q375 459 393 385T447 259T532 180T645 153Q792 153 858 240T925 504V1500H1115Z"
/>
<glyph unicode="V" glyph-name="V" horiz-adv-x="1300" d="M605 500L663 140L701 454L1011 1500H1195L808 180L782 -20L554 0L112 1500L302 1520L605 500Z" />
<glyph unicode="W" glyph-name="W" horiz-adv-x="1300" d="M484 700L580 1100H720L823 700L894 200H898L930 660L1083 1500H1260L988 0H807L711 450L652 950H648L590 450L492 0H314L38 1500L212 1520L380 660L411 200H415L484 700Z" />
<glyph unicode="X" glyph-name="X" horiz-adv-x="1300" d="M1009 0L732 519L655 700L607 540L299 0H101L564 799L158 1500L370 1520L631 1056L711 860L746 1020L998 1500H1198L799 776L1229 0H1009Z" />
<glyph unicode="Y" glyph-name="Y" horiz-adv-x="1300" d="M691 935L979 1500H1171L736 646V0H526V645L90 1500L294 1520L582 954L661 705L691 935Z" />
<glyph unicode="Z" glyph-name="Z" horiz-adv-x="1300" d="M1101 160L1121 0H181L161 50L726 1200L910 1380L645 1340H250L230 1500H1056L1071 1478L500 300L322 120L587 160H1101Z" />
<glyph unicode="[" glyph-name="bracketleft" horiz-adv-x="1300" d="M422 1320L400 1520H972V1370H600L620 1170V-70L600 -270H972V-420H400L422 -220V1320Z" />
<glyph unicode="\" glyph-name="backslash" horiz-adv-x="1300" d="M175 1600H375L1085 -100H875L175 1600Z" />
<glyph unicode="]" glyph-name="bracketright" horiz-adv-x="1300" d="M978 -220L1000 -420H428V-270H800L780 -70V1170L800 1370H428V1520H1000L978 1320V-220Z" />
<glyph unicode="^" glyph-name="asciicircum" horiz-adv-x="1300" d="M1179 912H978L697 1239L652 1350L608 1241L338 914H122L580 1500L709 1517L1179 912Z" />
<glyph unicode="_" glyph-name="underscore" horiz-adv-x="1300" d="M100 -300H1200V-455H100V-300Z" />
<glyph unicode="`" glyph-name="grave" horiz-adv-x="1300" d="M860 1200H710L485 1500L689 1520L860 1200Z" />
<glyph unicode="a" glyph-name="a" horiz-adv-x="1300" d="M1110 0H910V162L816 50Q799 37 773 25T716 4T655 -11T596 -17Q521 -17 445 6T308 75T209 188T170 344Q170 437 209 504T313 616T459 681T625 702Q720 702 790 692T910 662V705Q910 764 896 811T850 890T771
940T655 957Q592 957 547 950T462 933Q439 928 418 922T377 910L305 1044Q347 1063 405 1080Q453 1094 514 1105T665 1117Q780 1117 861 1086T993 999T1067 865T1090 690V180L1110 0ZM910 525L850 533Q836 534 813 536T763 539L710 541Q684 542 665 542Q609 542
555 532T459 499T390 439T363 345Q363 300 383 263T436 199T513 158T604 143Q697 143 771 178T910 274V525Z" />
<glyph unicode="b" glyph-name="b" horiz-adv-x="1300" d="M390 171Q409 165 434 160T487 151T545 145T604 143Q665 143 714 163T803 216T871 295T918 391T946 496T955 601Q955 701 929 769T862 879T772 939T675 957Q596 957 525 927T390 845V171ZM210 1420L190
1600L390 1620V974L475 1065Q526 1089 581 1103T694 1117Q776 1117 858 1083T1004 983T1109 819T1150 596Q1150 458 1105 345T983 152T806 27T595 -17Q532 -17 473 -13T362 -1T272 16T210 35V1420Z" />
<glyph unicode="c" glyph-name="c" horiz-adv-x="1300" d="M1007 878Q968 913 899 935T724 957Q640 957 574 926T461 840T390 715T365 564Q365 482 388 408T458 276T574 186T735 152Q787 152 835 164T922 192T988 225T1028 252L1100 111Q1085 98 1055 77T979 34T869
-2T721 -17Q596 -17 495 32T321 164T210 354T170 577Q170 681 208 778T319 951T494 1071T726 1117Q848 1117 945 1089T1106 991L1007 878Z" />
<glyph unicode="d" glyph-name="d" horiz-adv-x="1300" d="M746 940Q654 940 579 906T451 812T368 673T339 502Q339 413 364 346T431 234T525 167T630 144Q677 144 719 160T797 200T862 252T911 306V940H746ZM911 0V162L825 49Q789 25 729 4T591 -17Q501 -17 421
15T281 114T186 283T151 526Q151 646 197 750T324 933T512 1055T745 1100H911V1620L1091 1600V180L1111 0H911Z" />
<glyph unicode="e" glyph-name="e" horiz-adv-x="1300" d="M1034 129Q1003 97 966 70T884 24T785 -6T663 -17Q530 -17 433 30T273 156T180 337T150 550Q150 621 164 690T206 823T275 940T371 1033T492 1094T638 1117Q746 1117 833 1082T981 984T1075 833T1108
638Q1108 607 1106 570T1100 500H340Q340 423 364 358T429 245T527 170T650 143Q714 143 759 152T836 176T889 206T925 236L1034 129ZM932 650V694Q932 751 910 799T849 882T760 938T653 958Q586 958 536 937T449 882T391 808T359 732L300 618L485 650H932Z" />
<glyph unicode="f" glyph-name="f" horiz-adv-x="1300" d="M148 1100H400V1255Q400 1340 434 1407T526 1520T662 1592T828 1617Q873 1617 919 1609T1007 1589T1086 1560T1145 1529L1060 1411Q1048 1418 1024 1426T971 1441T912 1452T860 1457Q817 1457 769 1446T680
1409T612 1343T585 1245V1100H1033L1013 940H590V0H400V940H148V1100Z" />
<glyph unicode="g" glyph-name="g" horiz-adv-x="1300" d="M910 135L823 25Q814 19 798 12T757 -1T701 -12T630 -17Q569 -17 510 3T398 60T299 148T221 262T169 396T150 545Q150 662 188 766T295 948T461 1071T676 1117Q713 1117 748 1114T815 1100L910 958V1120L1090
1100V-46Q1090 -144 1058 -230T965 -379T815 -480T612 -517Q533 -517 474 -497T372 -453Q348 -439 327 -423T289 -388L387 -278Q401 -289 417 -299T452 -318Q483 -333 524 -345T613 -357Q675 -357 729 -332T823 -262T887 -159T910 -31V135ZM910 834Q884 867 847
895Q816 918 772 937T671 957Q611 957 563 938T479 887T416 813T373 723T348 627T340 533Q340 448 366 377T436 254T534 173T646 144Q697 144 737 155T809 184T865 226T910 275V834Z" />
<glyph unicode="h" glyph-name="h" horiz-adv-x="1300" d="M391 0H211V1400L191 1600L391 1620V950L480 1065Q519 1087 592 1102T780 1117Q931 1117 1010 1018T1090 730V0H900V709Q900 776 889 823T856 900T804 943T734 957Q674 957 620 945T520 915T442 874T391 833V0Z" />
<glyph unicode="i" glyph-name="i" horiz-adv-x="1300" d="M711 393Q711 341 717 297T739 221T779 171T841 153Q890 153 936 161T1020 179T1081 199T1112 210L1151 56Q1145 53 1119 41T1051 17T953 -6T831 -17Q733 -17 673 15T578 103T533 237T521 403V920L561
980L421 940H220L200 1100H711V393ZM515 1500H717V1300H515V1500Z" />
<glyph unicode="j" glyph-name="j" horiz-adv-x="1300" d="M695 1500H897V1300H695V1500ZM741 980L601 940H400L380 1100H891V-97Q891 -186 880 -263T834 -396T740 -485T581 -517Q515 -517 459 -507T361 -484T293 -459T261 -444L300 -290Q306 -292 330 -301T392
-320T475 -339T571 -347Q608 -347 633 -329T673 -279T694 -203T701 -107V920L741 980Z" />
<glyph unicode="k" glyph-name="k" horiz-adv-x="1300" d="M211 0V1420L191 1600L391 1620V690L781 1100H1010L630 690L452 627L630 567L1121 0H885L391 557V0H211Z" />
<glyph unicode="l" glyph-name="l" horiz-adv-x="1300" d="M510 1420L550 1480L410 1440H209L189 1600H690V376Q690 310 700 266T727 194T768 155T820 143Q860 143 893 149T953 164T999 183T1031 200L1100 79Q1092 72 1067 56T1004 24T914 -4T800 -17Q710 -17
653 16T565 106T522 238T510 400V1420Z" />
<glyph unicode="m" glyph-name="m" horiz-adv-x="1300" d="M264 0H86V1100L264 1120V937Q285 977 296 999T313 1032T320 1045L322 1048Q331 1057 347 1069T388 1091T443 1109T513 1117Q569 1117 605 1103T664 1063T700 1001T724 923L787 1043Q797 1052 819 1065T871
1089T934 1109T999 1117Q1075 1117 1119 1092T1186 1018T1215 902T1222 750V0H1044V740Q1044 794 1043 834T1031 902T998 943T934 957Q914 957 885 945T828 913T775 869T740 819Q740 813 740 800T741 772T742 744V0H563V720Q563 774 561 818T549 892T515 940T448
957Q432 957 407 948T356 922T305 880T264 824V0Z" />
<glyph unicode="n" glyph-name="n" horiz-adv-x="1300" d="M391 0H211V1100L391 1120V927L452 1044Q470 1056 494 1069T554 1092T637 1110T750 1117Q829 1117 892 1092T999 1018T1066 902T1090 750V0H910V750Q910 804 893 843T844 907T772 945T685 957Q637 957
593 945T510 915T442 875T391 834V0Z" />
<glyph unicode="o" glyph-name="o" horiz-adv-x="1300" d="M649 -17Q538 -17 446 26T286 146T182 327T144 553Q144 674 180 777T282 956T441 1074T649 1117Q760 1117 851 1075T1007 957T1109 778T1145 553Q1145 431 1111 327T1012 147T855 27T649 -17ZM955 526Q955
607 938 685T884 824T788 924T645 962Q565 962 506 929T409 841T353 716T334 572Q334 491 352 413T409 274T508 176T653 138Q732 138 789 171T883 258T937 382T955 526Z" />
<glyph unicode="p" glyph-name="p" horiz-adv-x="1300" d="M390 160H554Q646 160 721 190T849 276T931 408T960 578Q960 676 933 747T864 865T771 934T670 957Q621 957 579 945T501 913T437 871T390 827V160ZM210 -500V1100L390 1120V944L485 1071Q514 1088 567
1102T699 1117Q782 1117 863 1078T1007 967T1110 793T1150 565Q1150 442 1103 339T972 160T776 42T535 0H390V-500H210Z" />
<glyph unicode="q" glyph-name="q" horiz-adv-x="1300" d="M911 935Q892 939 867 943T813 950T754 955T697 957Q605 957 539 918T430 817T367 678T346 524Q346 424 372 352T440 234T530 165T626 143Q665 143 703 153T777 181T846 222T911 270V935ZM911 136L806
29Q755 5 705 -6T607 -17Q552 -17 497 -1T391 48T297 127T221 234T170 367T151 524Q151 662 195 772T316 958T491 1076T701 1117Q764 1117 825 1112T939 1098T1031 1081T1091 1065V-500H911V136Z" />
<glyph unicode="r" glyph-name="r" horiz-adv-x="1300" d="M391 895L482 1053Q510 1074 546 1087T620 1106T696 1115T770 1117Q845 1117 898 1111T987 1094T1046 1074T1080 1055L1130 770L980 750L930 928Q922 931 905 934T866 940T820 945T773 947Q705 947 647
932T541 889T456 826T391 750V0H211V1100L391 1120V895Z" />
<glyph unicode="s" glyph-name="s" horiz-adv-x="1300" d="M962 899Q943 908 917 919T857 940T785 956T700 963Q639 963 581 957T478 935T406 892T378 822Q378 786 405 761T475 717T574 685T685 659T793 636T883 610Q927 593 965 567T1033 507T1078 431T1095 341Q1095
276 1070 225T1003 134T904 66T786 19T659 -8T535 -17Q501 -17 451 -11T348 7T248 35T175 69L241 211Q265 199 304 187T386 165T469 149T537 143Q568 143 606 146T685 158T764 181T833 218T881 270T900 340Q900 379 874 406T805 452T709 484T599 510T491 534T400
566Q343 593 306 624T246 691T214 764T205 842Q205 913 245 965T354 1050T510 1100T694 1117Q746 1117 795 1111T888 1095T966 1073T1020 1047L962 899Z" />
<glyph unicode="t" glyph-name="t" horiz-adv-x="1300" d="M571 376Q571 310 578 266T600 194T636 155T686 143Q733 143 779 154T865 179T936 208T984 230L1053 109Q1044 101 1010 81T923 38T804 0T666 -17Q576 -17 522 16T438 106T400 238T391 400V940H100V1100H391V1309L566
1420V1100H1050L1030 940H571V376Z" />
<glyph unicode="u" glyph-name="u" horiz-adv-x="1300" d="M931 1100L1111 1120V0H931V180L870 73Q861 62 841 47T791 18T722 -7T635 -17Q514 -17 433 20T302 120T232 263T211 430V1100L391 1120V430Q391 365 404 313T448 224T532 168T663 148Q721 148 766 164T844
204T899 254T931 300V1100Z" />
<glyph unicode="v" glyph-name="v" horiz-adv-x="1300" d="M1109 1120L738 -20L532 0L175 1100L358 1120L597 381L650 149L700 381L934 1100L1109 1120Z" />
<glyph unicode="w" glyph-name="w" horiz-adv-x="1300" d="M836 400L897 150L908 480L1038 1100L1200 1120L982 0H835L703 348L647 750L593 350L462 0H315L100 1100L262 1120L385 480L406 150L571 885H724L836 400Z" />
<glyph unicode="x" glyph-name="x" horiz-adv-x="1300" d="M962 0L683 392L638 510L593 392L305 0H106L528 588L160 1100L371 1120L626 771L665 660L703 771L939 1100L1150 1120L775 583L1187 0H962Z" />
<glyph unicode="y" glyph-name="y" horiz-adv-x="1300" d="M712 364L981 1100L1161 1120L757 -17Q727 -101 693 -184T615 -333T517 -439T392 -480Q336 -480 289 -458T200 -400L273 -283Q279 -289 288 -297T309 -312T334 -325T362 -330Q398 -330 427 -305T482 -238T529
-147T571 -47L164 1100L354 1120L618 364L670 132L712 364Z" />
<glyph unicode="z" glyph-name="z" horiz-adv-x="1300" d="M1100 160L1120 0H201L181 50L684 826L876 980L631 940H268L248 1100H1032L1052 1051L563 280L372 120L537 160H1100Z" />
<glyph unicode="{" glyph-name="braceleft" horiz-adv-x="1300" d="M228 625H350Q399 632 428 652T474 704T495 780T500 880V1119Q500 1204 515 1277T569 1403T670 1486T830 1517Q876 1517 908 1514T966 1505T1012 1491T1054 1472L991 1349Q972 1360 940 1368T882
1376H869Q815 1372 782 1354T730 1303T706 1224T700 1119V880Q700 776 676 690T593 550Q623 523 643 488T676 410T694 319T700 220V-20Q700 -79 706 -125T730 -203T781 -254T869 -277H882Q907 -277 939 -269T991 -250L1054 -373Q1033 -383 1013 -391T967 -406T909
-416T830 -420Q734 -420 671 -390T569 -305T516 -178T500 -20V220Q500 275 495 319T474 396T429 448T350 475H228V625Z" />
<glyph unicode="|" glyph-name="bar" horiz-adv-x="1300" d="M700 1520V-400H500V1500L700 1520Z" />
<glyph unicode="}" glyph-name="braceright" horiz-adv-x="1300" d="M1072 625V475H950Q901 468 872 448T826 396T805 320T800 220V-20Q800 -105 785 -178T731 -305T630 -389T470 -420Q424 -420 392 -417T334 -407T288 -392T246 -373L309 -250Q328 -261 360 -269T418
-277H431Q485 -273 518 -255T570 -204T594 -125T600 -20V220Q600 271 605 319T624 409T657 487T707 550Q648 604 624 690T600 880V1119Q600 1177 594 1223T570 1302T519 1353T431 1376H418Q393 1376 361 1368T309 1349L246 1472Q267 1482 287 1490T333 1505T391
1514T470 1517Q566 1517 629 1487T731 1403T784 1277T800 1119V880Q800 824 805 780T826 704T871 652T950 625H1072Z" />
<glyph unicode="~" glyph-name="asciitilde" horiz-adv-x="1300" d="M133 484Q144 540 175 597T252 701T353 776T471 805Q516 805 552 792T617 759T673 716T726 673T782 640T847 626Q883 626 912 641T962 679T997 732T1020 792L1166 776Q1156 714 1127 651T1052
537T948 454T822 422Q786 422 754 435T693 468T635 511T577 554T515 587T447 601Q416 601 390 590T342 561T306 518T282 468L133 484Z" />
<glyph unicode="&#xa0;" glyph-name="nbspace" horiz-adv-x="1300" />
<glyph unicode="&#xa1;" glyph-name="exclamdown" horiz-adv-x="1300" d="M395 -400V671L605 650V-400H395ZM378 994Q378 1019 387 1041T413 1080T452 1107T500 1117Q525 1117 547 1107T585 1081T610 1042T620 994Q620 969 611 947T585 909T546 883T499 873Q474
873 452 882T414 908T388 947T378 994Z" />
<glyph unicode="&#xa2;" glyph-name="cent" horiz-adv-x="1300" d="M873 1320V1113Q927 1105 970 1088Q1043 1060 1106 991L1007 878Q968 912 914 935Q900 940 887 944T860 951V153Q884 155 905 159T945 170Q999 188 1028 208L1100 67Q1072 48 1040 33T969 6Q947
-1 923 -6T873 -13V-200H727V-12Q709 -12 683 -9T628 1T574 15T532 31Q461 67 409 124T321 254T268 408T250 577Q250 656 267 730T319 869T407 985T531 1071Q547 1079 573 1086T627 1099T682 1108T727 1112V1300L873 1320ZM611 925Q567 902 536 865T484 781T455
679T445 564Q445 502 453 445T481 338T533 250T611 185Q628 176 661 167T739 158V952Q694 952 661 944T611 925Z" />
<glyph unicode="&#xa3;" glyph-name="sterling" horiz-adv-x="1300" d="M350 850H511L556 1165Q567 1241 589 1306T648 1417T740 1490T872 1517Q923 1517 965 1511T1044 1487Q1081 1470 1106 1456T1145 1428L1055 1327Q986 1372 919 1372Q870 1372 838 1357T785
1311T753 1238T734 1141L693 850H900L880 700H672Q616 263 588 224L500 104L662 147H1100V0H154L174 147H312Q347 147 386 197Q426 247 490 700H350V850Z" />
<glyph unicode="&#xa4;" glyph-name="currency" horiz-adv-x="1300" d="M1062 222L961 121L805 278Q759 247 708 232T602 216Q548 216 497 231T399 278L243 121L142 222L299 378Q268 424 253 475T237 581Q237 635 252 686T299 784L142 940L243 1042L399 885Q445
915 496 930T602 946Q656 946 707 931T805 885L961 1042L1062 940L906 784Q967 689 967 581Q967 527 952 476T906 378L1062 222ZM380 581Q380 536 398 496T446 425T516 377T602 359Q647 359 687 377T758 425T805 495T823 581Q823 626 806 666T758 737T688 784T602
802Q557 802 517 785T446 737T398 667T380 581Z" />
<glyph unicode="&#xa5;" glyph-name="yen" horiz-adv-x="1300" d="M100 550H495V645L467 700H100V850H390L59 1500L263 1520L551 954L630 705L660 935L948 1500H1140L809 850H1100V700H732L705 646V550H1100V400H705V0H495V400H100V550Z" />
<glyph unicode="&#xa6;" glyph-name="brokenbar" horiz-adv-x="1300" d="M800 1520V700H600V1500L800 1520ZM800 362V-400H600V362H800Z" />
<glyph unicode="&#xa7;" glyph-name="section" horiz-adv-x="1300" d="M872 1351Q824 1377 772 1385T663 1393Q614 1393 570 1382T493 1347T440 1286T420 1197Q420 1147 443 1108T506 1036T594 972T695 909T796 839T884 755T946 650T970 515Q970 421 935 359T836
257Q816 244 794 234T746 216L778 192Q814 165 845 134T900 69T936 -5T950 -88Q950 -165 923 -226T845 -331T720 -397T551 -420Q468 -420 400 -405T264 -348L324 -251Q372 -277 424 -285T533 -293Q582 -293 626 -282T703 -247T756 -186T776 -97Q776 -47 753 -8T690
64T602 128T501 191T400 261T312 345T250 450T226 585Q226 679 262 741T359 842Q401 868 449 883L418 907Q382 935 351 966T296 1031T260 1105T246 1188Q246 1265 273 1326T351 1429T476 1494T645 1517Q727 1517 796 1503T932 1448L872 1351ZM485 767Q448 737 427
692T406 587Q406 549 419 515T456 450T510 391T578 336L640 291Q681 308 711 332Q748 363 769 408T790 513Q790 550 777 584T740 650T686 709T618 763L555 808Q518 794 485 767Z" />
<glyph unicode="&#xa8;" glyph-name="dieresis" horiz-adv-x="1300" d="M300 1500H500V1300H300V1500ZM700 1500H900V1300H700V1500Z" />
<glyph unicode="&#xa9;" glyph-name="copyright" horiz-adv-x="1300" d="M650 1517Q747 1517 832 1480T982 1379T1083 1230T1120 1047Q1120 949 1083 864T982 715T833 614T650 577Q553 577 468 614T318 714T217 863T180 1047Q180 1144 217 1229T318 1379T467 1480T650
1517ZM650 663Q728 663 797 693T919 776T1003 898T1034 1047Q1034 1126 1004 1196T922 1318T799 1401T650 1431Q570 1431 501 1401T379 1319T296 1196T266 1047Q266 969 296 900T379 778T501 694T650 663ZM810 1197Q791 1213 757 1223T669 1233Q627 1233 594 1219T537
1180T502 1124T489 1056Q489 1019 501 986T536 927T593 886T674 870Q700 870 724 875T767 888T801 903T821 915L857 852Q849 846 834 837T796 818T741 801T667 794Q605 794 554 816T467 876T412 961T392 1062Q392 1108 411 1152T466 1230T553 1284T670 1305Q731
1305 779 1292T860 1248L810 1197Z" />
<glyph unicode="&#xaa;" glyph-name="ordfeminine" horiz-adv-x="1300" d="M200 800H600V700H200V800ZM600 959H500V1040L453 984Q444 977 431 971T403 961T373 953T343 950Q305 950 267 962T199 996T149 1053T130 1131Q130 1177 149 1211T201 1267T274 1299T357
1310Q405 1310 440 1305T500 1290V1311Q500 1341 493 1364T470 1404T430 1428T372 1437Q341 1437 318 1434T276 1425Q264 1423 254 1420T233 1414L197 1481Q218 1490 247 1499Q271 1506 302 1511T377 1517Q435 1517 475 1502T541 1458T578 1391T590 1304V1049L600
959ZM500 1221L470 1225Q463 1226 452 1227T427 1228T400 1229T377 1230Q349 1230 322 1225T274 1209T240 1178T226 1131Q226 1109 236 1091T263 1059T301 1038T347 1030Q393 1030 430 1048T500 1096V1221Z" />
<glyph unicode="&#xab;" glyph-name="guillemotleft" horiz-adv-x="1300" d="M570 1026L620 901L295 610L157 550L294 490L622 201L568 66L100 478V617L570 1026ZM1070 1026L1120 901L795 610L657 550L794 490L1122 201L1068 66L600 478V617L1070 1026Z" />
<glyph unicode="&#xac;" glyph-name="logicalnot" horiz-adv-x="1300" d="M1217 800L1200 589V280H1000V449L1016 640H112V800H1217Z" />
<glyph unicode="&#xad;" glyph-name="sfthyphen" horiz-adv-x="0" />
<glyph unicode="&#xae;" glyph-name="registered" horiz-adv-x="1300" d="M650 1517Q747 1517 832 1480T982 1379T1083 1230T1120 1047Q1120 949 1083 864T982 715T833 614T650 577Q553 577 468 614T318 714T217 863T180 1047Q180 1144 217 1229T318 1379T467
1480T650 1517ZM650 663Q728 663 797 693T919 776T1003 898T1034 1047Q1034 1126 1004 1196T922 1318T799 1401T650 1431Q570 1431 501 1401T379 1319T296 1196T266 1047Q266 969 296 900T379 778T501 694T650 663ZM574 1017V800H500V1222L488 1292Q499 1294 515
1295T550 1298T586 1299T619 1300Q709 1300 754 1270T800 1168Q800 1131 792 1106T766 1065T722 1040T662 1024L712 1009L869 800H790L633 1010Q630 1015 625 1016T617 1017H574ZM574 1171V1070H627Q690 1070 712 1093T734 1162Q734 1192 726 1210T703 1237T669
1249T628 1252Q613 1252 596 1251T567 1248L574 1171Z" />
<glyph unicode="&#xaf;" glyph-name="overscore" horiz-adv-x="1300" d="M300 1500H1000V1350H300V1500Z" />
<glyph unicode="&#xb0;" glyph-name="degree" horiz-adv-x="1300" d="M500 1517Q556 1517 605 1496T690 1438T748 1352T769 1247Q769 1191 748 1142T691 1057T605 999T500 977Q444 977 395 998T310 1056T252 1142T231 1247Q231 1303 252 1352T309 1438T395 1496T500
1517ZM500 1088Q533 1088 562 1100T612 1134T646 1185T659 1247Q659 1280 647 1309T613 1359T562 1393T500 1406Q467 1406 438 1394T388 1360T354 1309T341 1247Q341 1214 353 1185T387 1135T438 1101T500 1088Z" />
<glyph unicode="&#xb1;" glyph-name="plusminus" horiz-adv-x="1300" d="M200 862H573V1199H728V862H1100V738H728V400H573V738H200V862ZM200 290H1100V150H200V290Z" />
<glyph unicode="&#xb2;" glyph-name="twosuperior" horiz-adv-x="1300" d="M190 720V804Q213 840 240 875T295 944T349 1008T398 1064Q424 1094 448 1119T491 1168T521 1219T532 1277Q532 1301 523 1322T498 1359T459 1384T409 1394Q379 1394 357 1386T318 1364T289
1334T266 1300L195 1330Q208 1362 228 1389T276 1436T339 1467T417 1478Q467 1478 506 1460T573 1413T615 1347T629 1272Q629 1233 615 1199T580 1133T534 1074T489 1022Q463 992 437 963T387 905T343 850T307 800H657V720H190Z" />
<glyph unicode="&#xb3;" glyph-name="threesuperior" horiz-adv-x="1300" d="M212 1390L220 1470H610V1400Q604 1380 590 1358T556 1314T514 1271T468 1229L402 1192Q407 1193 415 1193T430 1194Q478 1194 520 1182T592 1146T641 1084T659 996Q659 948 641 909T592
838T518 785T429 749T330 727T230 720V800Q271 801 311 807T387 824T453 850T506 886T541 933T554 991Q554 1027 539 1051T497 1089T435 1109T358 1115Q342 1115 323 1114T289 1112V1190Q310 1205 334 1224T382 1263T430 1305T472 1346T504 1382T521 1410L445 1390H212Z"
/>
<glyph unicode="&#xb4;" glyph-name="acute" horiz-adv-x="1300" d="M600 1500L830 1520L590 1200H440L600 1500Z" />
<glyph unicode="&#xb5;" glyph-name="mu" horiz-adv-x="1300" d="M1242 36Q1233 27 1214 18T1171 1T1120 -12T1068 -17Q976 -17 912 26T825 155L800 86Q758 40 687 12T518 -17Q499 -17 474 -16T423 -10T374 3T335 25L380 -166V-500H200V1100L380 1118V348Q380
307 391 269T425 200T484 152T569 133Q601 133 632 142T692 167T748 201T800 241V1100L978 1118V352Q978 292 985 250T1006 182T1040 145T1086 133Q1110 133 1133 137T1177 150L1242 36Z" />
<glyph unicode="&#xb6;" glyph-name="paragraph" horiz-adv-x="1300" d="M630 647Q556 651 503 666T407 702Q335 737 292 783T226 883T195 995T187 1112Q187 1217 229 1289T336 1406T480 1474T630 1500H1102V-400H933V1348H799V-400H630V647Z" />
<glyph unicode="&#xb7;" glyph-name="middot" horiz-adv-x="1300" d="M136 650Q136 684 149 714T184 766T236 802T300 815Q334 815 364 802T416 767T452 714T465 650Q465 616 452 586T417 533T366 497T302 483Q268 483 238 496T185 532T149 585T136 650Z" />
<glyph unicode="&#xb8;" glyph-name="cedilla" horiz-adv-x="1300" d="M824 0Q847 -27 865 -59Q881 -86 894 -122T907 -198Q907 -242 889 -280T839 -346T768 -391T683 -407Q633 -407 587 -394T503 -363Q460 -344 422 -318L493 -218Q519 -236 547 -249Q571 -260
600 -269T659 -279Q696 -279 725 -255T754 -189Q754 -156 738 -123T701 -62Q677 -30 648 0H824Z" />
<glyph unicode="&#xb9;" glyph-name="onesuperior" horiz-adv-x="1300" d="M233 720V800H405V1283L434 1396L366 1303L260 1209L206 1270L435 1480L510 1470V800H683V720H233Z" />
<glyph unicode="&#xba;" glyph-name="ordmasculine" horiz-adv-x="1300" d="M230 800H630V700H230V800ZM424 950Q369 950 323 972T243 1032T191 1122T172 1235Q172 1296 190 1347T241 1437T320 1496T424 1517Q480 1517 525 1496T603 1437T654 1348T672 1235Q672
1174 655 1122T606 1032T527 972T424 950ZM577 1222Q577 1262 569 1301T542 1371T494 1421T422 1440Q382 1440 353 1424T304 1380T276 1317T267 1245Q267 1204 276 1165T304 1096T354 1047T426 1028Q466 1028 494 1044T541 1088T568 1150T577 1222Z" />
<glyph unicode="&#xbb;" glyph-name="guillemotright" horiz-adv-x="1300" d="M700 617V478L232 66L178 201L506 490L643 550L505 610L180 901L230 1026L700 617ZM1200 617V478L732 66L678 201L1006 490L1143 550L1005 610L680 901L730 1026L1200 617Z" />
<glyph unicode="&#xbc;" glyph-name="onequarter" horiz-adv-x="1300" d="M504 0H379L954 1500H1070L504 0ZM131 720V800H303V1283L332 1396L264 1303L158 1209L104 1270L333 1480L408 1470V800H581V720H131ZM1242 150H1152V0H1047V150H749V235L991 760L1086 750L878
300L832 230H1047V433L1152 425V230H1249L1242 150Z" />
<glyph unicode="&#xbd;" glyph-name="onehalf" horiz-adv-x="1300" d="M504 0H379L954 1500H1070L504 0ZM131 720V800H303V1283L332 1396L264 1303L158 1209L104 1270L333 1480L408 1470V800H581V720H131ZM813 0V84Q836 120 863 155T918 224T972 288T1021 344Q1047
374 1071 399T1114 448T1144 499T1155 557Q1155 581 1146 602T1121 639T1082 664T1032 674Q1002 674 980 666T941 644T912 614T889 580L818 610Q831 642 851 669T899 716T962 747T1040 758Q1090 758 1129 740T1196 693T1238 627T1252 552Q1252 513 1238 479T1203
413T1157 354T1112 302Q1086 272 1060 243T1010 185T966 130T930 80H1280V0H813Z" />
<glyph unicode="&#xbe;" glyph-name="threequarters" horiz-adv-x="1300" d="M504 0H379L954 1500H1070L504 0ZM1220 150H1130V0H1025V150H727V235L969 760L1064 750L856 300L810 230H1025V433L1130 425V230H1227L1220 150ZM212 1390L220 1470H610V1400Q604 1380
590 1358T556 1314T514 1271T468 1229L402 1192Q407 1193 415 1193T430 1194Q478 1194 520 1182T592 1146T641 1084T659 996Q659 948 641 909T592 838T518 785T429 749T330 727T230 720V800Q271 801 311 807T387 824T453 850T506 886T541 933T554 991Q554 1027
539 1051T497 1089T435 1109T358 1115Q342 1115 323 1114T289 1112V1190Q310 1205 334 1224T382 1263T430 1305T472 1346T504 1382T521 1410L445 1390H212Z" />
<glyph unicode="&#xbf;" glyph-name="questiondown" horiz-adv-x="1300" d="M207 -44Q207 19 224 69T268 160T331 236T404 304T477 373T540 448T585 538T602 650L812 671Q812 582 795 514T751 394T688 301T615 227T542 163T479 101T434 32T417 -52Q417 -104 437
-142T491 -204T572 -239T672 -251Q710 -251 750 -240T829 -208T903 -157T967 -90L1100 -200Q1051 -266 994 -308T877 -375T759 -408T647 -417Q562 -417 483 -395T343 -327T244 -211T207 -44ZM829 994Q829 969 820 947T794 909T755 883T708 873Q683 873 661 882T623
908T597 947T587 994Q587 1019 596 1041T622 1080T660 1107T707 1117Q733 1117 755 1107T793 1081T819 1042T829 994Z" />
<glyph unicode="&#xc0;" glyph-name="Agrave" horiz-adv-x="1300" d="M32 0L504 1300L539 1500L717 1520L1265 0H1065L917 450H382L216 0H32ZM645 1400L600 1080L431 600H868L690 1080L645 1400ZM716 1600H566L341 1900L545 1920L716 1600Z" />
<glyph unicode="&#xc1;" glyph-name="Aacute" horiz-adv-x="1300" d="M32 0L504 1300L539 1500L717 1520L1265 0H1065L917 450H382L216 0H32ZM645 1400L600 1080L431 600H868L690 1080L645 1400ZM700 1900L930 1920L690 1600H540L700 1900Z" />
<glyph unicode="&#xc2;" glyph-name="Acircumflex" horiz-adv-x="1300" d="M32 0L504 1300L539 1500L717 1520L1265 0H1065L917 450H382L216 0H32ZM645 1400L600 1080L431 600H868L690 1080L645 1400ZM920 1620H770L670 1772L640 1860L610 1773L509 1620H359L535
1900L735 1920L920 1620Z" />
<glyph unicode="&#xc3;" glyph-name="Atilde" horiz-adv-x="1300" d="M32 0L504 1300L539 1500L717 1520L1265 0H1065L917 450H382L216 0H32ZM645 1400L600 1080L431 600H868L690 1080L645 1400ZM324 1655Q328 1695 343 1733T383 1800T439 1846T506 1864Q545 1864
579 1850T644 1819T705 1788T766 1774Q787 1774 803 1784T830 1810T848 1845T858 1882L954 1878Q951 1834 935 1793T893 1721T833 1670T759 1651Q727 1651 696 1665T633 1695T568 1726T500 1740Q482 1740 468 1732T442 1711T422 1683T410 1652L324 1655Z" />
<glyph unicode="&#xc4;" glyph-name="Adieresis" horiz-adv-x="1300" d="M32 0L504 1300L539 1500L717 1520L1265 0H1065L917 450H382L216 0H32ZM645 1400L600 1080L431 600H868L690 1080L645 1400ZM339 1800H539V1600H339V1800ZM739 1800H939V1600H739V1800Z" />
<glyph unicode="&#xc5;" glyph-name="Aring" horiz-adv-x="1300" d="M640 1879Q689 1879 732 1861T807 1810T858 1734T877 1642Q877 1593 859 1549T808 1472Q783 1445 750 1428L1265 0H1065L917 450H382L216 0H32L504 1300L527 1431Q497 1448 473 1472Q440 1505
421 1549T402 1642Q402 1691 421 1734T472 1809T547 1860T640 1879ZM645 1400L600 1080L431 600H868L690 1080L645 1400ZM641 1518Q666 1518 688 1528T726 1554T751 1593T761 1641Q761 1666 752 1688T726 1726T687 1752T640 1762Q615 1762 593 1753T555 1727T529
1688T519 1641Q519 1616 528 1594T554 1555T593 1528T641 1518Z" />
<glyph unicode="&#xc6;" glyph-name="AE" horiz-adv-x="1300" d="M1335 160L1315 0H679L695 200V450H400L246 0H29L479 1300L523 1500H1300V1340H882L904 1149V885H1229V740H904V340L894 160H1335ZM695 599V1106L654 1340L601 1099L441 599H695Z" />
<glyph unicode="&#xc7;" glyph-name="Ccedilla" horiz-adv-x="1300" d="M1137 104Q1096 71 1054 48T966 11T869 -10Q850 -13 829 -14Q846 -35 859 -59Q875 -86 888 -122T901 -198Q901 -242 883 -280T833 -346T762 -391T677 -407Q627 -407 581 -394T497 -363Q454
-344 416 -318L487 -218Q513 -236 541 -249Q565 -260 594 -269T653 -279Q690 -279 719 -255T748 -189Q748 -156 732 -123T695 -62Q674 -34 649 -7Q611 0 576 11Q489 40 415 91T280 215T178 374T113 562T90 770Q90 921 133 1056T261 1294T471 1457T762 1517Q877
1517 969 1481T1134 1375L1044 1268Q1020 1284 993 1298T934 1324T863 1341T778 1348Q656 1348 566 1302T415 1178T326 995T296 773Q296 700 311 626T354 483T425 354T521 249T642 179T785 153Q830 153 864 157T928 170T990 193T1060 230L1137 104Z" />
<glyph unicode="&#xc8;" glyph-name="Egrave" horiz-adv-x="1300" d="M1135 160L1115 0H195L210 200V1290L180 1500H1100V1340H375L395 1150V885H1030V740H395V340L385 160H1135ZM760 1600H610L385 1900L589 1920L760 1600Z" />
<glyph unicode="&#xc9;" glyph-name="Eacute" horiz-adv-x="1300" d="M1135 160L1115 0H195L210 200V1290L180 1500H1100V1340H375L395 1150V885H1030V740H395V340L385 160H1135ZM650 1900L880 1920L640 1600H490L650 1900Z" />
<glyph unicode="&#xca;" glyph-name="Ecircumflex" horiz-adv-x="1300" d="M1135 160L1115 0H195L210 200V1290L180 1500H1100V1340H375L395 1150V885H1030V740H395V340L385 160H1135ZM930 1620H780L680 1772L650 1860L620 1773L519 1620H369L545 1900L745 1920L930
1620Z" />
<glyph unicode="&#xcb;" glyph-name="Edieresis" horiz-adv-x="1300" d="M1135 160L1115 0H195L210 200V1290L180 1500H1100V1340H375L395 1150V885H1030V740H395V340L385 160H1135ZM350 1800H550V1600H350V1800ZM750 1800H950V1600H750V1800Z" />
<glyph unicode="&#xcc;" glyph-name="Igrave" horiz-adv-x="1300" d="M206 1500H1106V1340H748V160H1126L1106 0H206V160H562V1340H186L206 1500ZM738 1600H588L363 1900L567 1920L738 1600Z" />
<glyph unicode="&#xcd;" glyph-name="Iacute" horiz-adv-x="1300" d="M206 1500H1106V1340H748V160H1126L1106 0H206V160H562V1340H186L206 1500ZM615 1900L845 1920L605 1600H455L615 1900Z" />
<glyph unicode="&#xce;" glyph-name="Icircumflex" horiz-adv-x="1300" d="M206 1500H1106V1340H748V160H1126L1106 0H206V160H562V1340H186L206 1500ZM941 1624H791L691 1776L661 1864L631 1777L530 1624H380L556 1904L756 1924L941 1624Z" />
<glyph unicode="&#xcf;" glyph-name="Idieresis" horiz-adv-x="1300" d="M206 1500H1106V1340H748V160H1126L1106 0H206V160H562V1340H186L206 1500ZM357 1900H557V1700H357V1900ZM757 1900H957V1700H757V1900Z" />
<glyph unicode="&#xd0;" glyph-name="Eth" horiz-adv-x="1300" d="M0 855H200V1290L170 1500Q201 1503 244 1505T332 1508T422 1510T500 1511Q659 1511 794 1472T1029 1348T1184 1130T1240 810Q1240 664 1212 548T1135 341T1016 187T863 81T685 20T491 0H200V700H0V855ZM410
1150V855H600V700H410V160H430Q575 160 676 190T843 269T947 383T1003 517T1026 654T1030 780Q1030 865 1021 941T989 1081T927 1196T828 1284T685 1339T491 1358Q475 1358 457 1357T423 1354L385 1350L410 1150Z" />
<glyph unicode="&#xd1;" glyph-name="Ntilde" horiz-adv-x="1300" d="M945 0L450 948L291 1361L285 1360L350 920V0H170V1290L140 1500L341 1520L837 557L1003 140L1009 141L930 580V1500L1110 1520V0H945ZM387 1655Q391 1695 406 1733T446 1800T502 1846T569
1864Q608 1864 642 1850T707 1819T768 1788T829 1774Q850 1774 866 1784T893 1810T911 1845T921 1882L1017 1878Q1014 1834 998 1793T956 1721T896 1670T822 1651Q790 1651 759 1665T696 1695T631 1726T563 1740Q545 1740 531 1732T505 1711T485 1683T473 1652L387
1655Z" />
<glyph unicode="&#xd2;" glyph-name="Ograve" horiz-adv-x="1300" d="M624 -17Q534 -17 459 10T322 88T214 209T137 364T90 547T74 750Q74 855 89 952T134 1135T210 1291T317 1411T455 1489T624 1517Q714 1517 789 1490T926 1412T1034 1291T1111 1136T1158 953T1174
750Q1174 645 1159 548T1114 365T1038 209T931 89T793 11T624 -17ZM966 719Q966 789 962 862T944 1004T906 1135T844 1242T750 1315T618 1342Q546 1342 493 1318T403 1253T342 1156T305 1038T287 911T282 785Q282 714 286 640T304 497T342 366T405 258T499 185T630
158Q701 158 753 182T843 249T905 347T942 465T961 593T966 719ZM760 1600H610L385 1900L589 1920L760 1600Z" />
<glyph unicode="&#xd3;" glyph-name="Oacute" horiz-adv-x="1300" d="M624 -17Q534 -17 459 10T322 88T214 209T137 364T90 547T74 750Q74 855 89 952T134 1135T210 1291T317 1411T455 1489T624 1517Q714 1517 789 1490T926 1412T1034 1291T1111 1136T1158 953T1174
750Q1174 645 1159 548T1114 365T1038 209T931 89T793 11T624 -17ZM966 719Q966 789 962 862T944 1004T906 1135T844 1242T750 1315T618 1342Q546 1342 493 1318T403 1253T342 1156T305 1038T287 911T282 785Q282 714 286 640T304 497T342 366T405 258T499 185T630
158Q701 158 753 182T843 249T905 347T942 465T961 593T966 719ZM600 1900L830 1920L590 1600H440L600 1900Z" />
<glyph unicode="&#xd4;" glyph-name="Ocircumflex" horiz-adv-x="1300" d="M623 -17Q533 -17 458 10T321 88T213 209T136 364T89 547T73 750Q73 855 88 952T133 1135T209 1291T316 1411T454 1489T623 1517Q713 1517 788 1490T925 1412T1033 1291T1110 1136T1157
953T1173 750Q1173 645 1158 548T1113 365T1037 209T930 89T792 11T623 -17ZM965 719Q965 789 961 862T943 1004T905 1135T843 1242T749 1315T617 1342Q545 1342 492 1318T402 1253T341 1156T304 1038T286 911T281 785Q281 714 285 640T303 497T341 366T404 258T498
185T629 158Q700 158 752 182T842 249T904 347T941 465T960 593T965 719ZM880 1620H730L630 1772L600 1860L570 1773L469 1620H319L495 1900L695 1920L880 1620Z" />
<glyph unicode="&#xd5;" glyph-name="Otilde" horiz-adv-x="1300" d="M624 -17Q534 -17 459 10T322 88T214 209T137 364T90 547T74 750Q74 855 89 952T134 1135T210 1291T317 1411T455 1489T624 1517Q714 1517 789 1490T926 1412T1034 1291T1111 1136T1158 953T1174
750Q1174 645 1159 548T1114 365T1038 209T931 89T793 11T624 -17ZM966 719Q966 789 962 862T944 1004T906 1135T844 1242T750 1315T618 1342Q546 1342 493 1318T403 1253T342 1156T305 1038T287 911T282 785Q282 714 286 640T304 497T342 366T405 258T499 185T630
158Q701 158 753 182T843 249T905 347T942 465T961 593T966 719ZM287 1655Q291 1695 306 1733T346 1800T402 1846T469 1864Q508 1864 542 1850T607 1819T668 1788T729 1774Q750 1774 766 1784T793 1810T811 1845T821 1882L917 1878Q914 1834 898 1793T856 1721T796
1670T722 1651Q690 1651 659 1665T596 1695T531 1726T463 1740Q445 1740 431 1732T405 1711T385 1683T373 1652L287 1655Z" />
<glyph unicode="&#xd6;" glyph-name="Odieresis" horiz-adv-x="1300" d="M624 -17Q534 -17 459 10T322 88T214 209T137 364T90 547T74 750Q74 855 89 952T134 1135T210 1291T317 1411T455 1489T624 1517Q714 1517 789 1490T926 1412T1034 1291T1111 1136T1158
953T1174 750Q1174 645 1159 548T1114 365T1038 209T931 89T793 11T624 -17ZM966 719Q966 789 962 862T944 1004T906 1135T844 1242T750 1315T618 1342Q546 1342 493 1318T403 1253T342 1156T305 1038T287 911T282 785Q282 714 286 640T304 497T342 366T405 258T499
185T630 158Q701 158 753 182T843 249T905 347T942 465T961 593T966 719ZM300 1800H500V1600H300V1800ZM700 1800H900V1600H700V1800Z" />
<glyph unicode="&#xd7;" glyph-name="multiply" horiz-adv-x="1300" d="M750 627L1175 203L1051 102L676 477L618 576L600 477L225 102L100 203L526 627L100 1052L225 1153L600 777L658 679L676 777L1051 1153L1175 1052L750 627Z" />
<glyph unicode="&#xd8;" glyph-name="Oslash" horiz-adv-x="1300" d="M650 -17Q560 -17 484 10Q442 25 405 48L331 -100H121L261 178Q250 193 240 209Q194 279 163 364T116 547T100 750Q100 855 115 952T160 1135T236 1291T343 1411T481 1489T650 1517Q740 1517
815 1489Q862 1472 903 1447L980 1600H1180L1040 1319Q1050 1305 1060 1291Q1106 1221 1137 1136T1184 953T1200 750Q1200 645 1185 548T1140 365T1064 209T957 89T819 11T650 -17ZM775 1315Q720 1342 644 1342Q572 1342 519 1318T429 1253T368 1156T331 1038T313
911T308 785Q308 714 312 640T330 496Q342 434 363 378L822 1287Q800 1303 775 1315ZM992 719Q992 789 988 862T969 1004Q958 1064 939 1117L485 208Q504 195 525 185Q580 158 656 158Q727 158 779 182T869 249T931 347T968 465T987 593T992 719Z" />
<glyph unicode="&#xd9;" glyph-name="Ugrave" horiz-adv-x="1300" d="M1115 1500V523Q1115 387 1083 286T989 117T838 17T635 -17Q513 -17 428 25T288 145T210 332T185 573V1290L155 1500L375 1520V554Q375 459 393 385T447 259T532 180T645 153Q792 153 858 240T925
504V1500H1115ZM760 1600H610L385 1900L589 1920L760 1600Z" />
<glyph unicode="&#xda;" glyph-name="Uacute" horiz-adv-x="1300" d="M1115 1500V523Q1115 387 1083 286T989 117T838 17T635 -17Q513 -17 428 25T288 145T210 332T185 573V1290L155 1500L375 1520V554Q375 459 393 385T447 259T532 180T645 153Q792 153 858 240T925
504V1500H1115ZM700 1900L930 1920L690 1600H540L700 1900Z" />
<glyph unicode="&#xdb;" glyph-name="Ucircumflex" horiz-adv-x="1300" d="M1115 1500V523Q1115 387 1083 286T989 117T838 17T635 -17Q513 -17 428 25T288 145T210 332T185 573V1290L155 1500L375 1520V554Q375 459 393 385T447 259T532 180T645 153Q792 153
858 240T925 504V1500H1115ZM930 1620H780L680 1772L650 1860L620 1773L519 1620H369L545 1900L745 1920L930 1620Z" />
<glyph unicode="&#xdc;" glyph-name="Udieresis" horiz-adv-x="1300" d="M1115 1500V523Q1115 387 1083 286T989 117T838 17T635 -17Q513 -17 428 25T288 145T210 332T185 573V1290L155 1500L375 1520V554Q375 459 393 385T447 259T532 180T645 153Q792 153 858
240T925 504V1500H1115ZM350 1800H550V1600H350V1800ZM750 1800H950V1600H750V1800Z" />
<glyph unicode="&#xdd;" glyph-name="Yacute" horiz-adv-x="1300" d="M660 935L948 1500H1140L705 646V0H495V645L59 1500L263 1520L551 954L630 705L660 935ZM600 1900L830 1920L590 1600H440L600 1900Z" />
<glyph unicode="&#xde;" glyph-name="Thorn" horiz-adv-x="1300" d="M180 1500H400V1301H600Q646 1301 697 1292T798 1264T893 1213T974 1135T1029 1028T1050 889Q1050 831 1043 769T1012 650T945 542T830 457Q780 433 717 417T560 401H400V0H200V1299L180 1500ZM400
1151V557H589Q662 557 715 582T802 652T853 757T870 889Q870 951 849 1000T789 1082T694 1133T569 1151H400Z" />
<glyph unicode="&#xdf;" glyph-name="germandbls" horiz-adv-x="1300" d="M790 1148Q790 1194 777 1234T738 1304T678 1351T600 1369Q568 1369 546 1365T505 1353T472 1332T440 1304Q413 1277 407 1241T400 1160V-17L192 0V1111Q192 1305 308 1412Q336 1438 366
1458T431 1491T508 1510T603 1517Q654 1517 693 1510T766 1489T826 1454T881 1405Q903 1382 921 1358T953 1305T973 1244T981 1169Q981 1060 929 981T790 860L636 816L783 802Q844 784 898 756T994 686T1058 589T1082 460Q1082 332 1037 245T920 103T756 24T570
0L510 160Q609 160 679 174T795 222T861 311T882 450Q882 600 798 665T550 730L480 885Q544 885 600 899T699 945T765 1027T790 1148Z" />
<glyph unicode="&#xe0;" glyph-name="agrave" horiz-adv-x="1300" d="M1110 0H910V162L816 50Q799 37 773 25T716 4T655 -11T596 -17Q521 -17 445 6T308 75T209 188T170 344Q170 437 209 504T313 616T459 681T625 702Q720 702 790 692T910 662V705Q910 764 896
811T850 890T771 940T655 957Q592 957 547 950T462 933Q439 928 418 922T377 910L305 1044Q347 1063 405 1080Q453 1094 514 1105T665 1117Q780 1117 861 1086T993 999T1067 865T1090 690V180L1110 0ZM910 525L850 533Q836 534 813 536T763 539L710 541Q684 542
665 542Q609 542 555 532T459 499T390 439T363 345Q363 300 383 263T436 199T513 158T604 143Q697 143 771 178T910 274V525ZM860 1200H710L485 1500L689 1520L860 1200Z" />
<glyph unicode="&#xe1;" glyph-name="aacute" horiz-adv-x="1300" d="M1110 0H910V162L816 50Q799 37 773 25T716 4T655 -11T596 -17Q521 -17 445 6T308 75T209 188T170 344Q170 437 209 504T313 616T459 681T625 702Q720 702 790 692T910 662V705Q910 764 896
811T850 890T771 940T655 957Q592 957 547 950T462 933Q439 928 418 922T377 910L305 1044Q347 1063 405 1080Q453 1094 514 1105T665 1117Q780 1117 861 1086T993 999T1067 865T1090 690V180L1110 0ZM910 525L850 533Q836 534 813 536T763 539L710 541Q684 542
665 542Q609 542 555 532T459 499T390 439T363 345Q363 300 383 263T436 199T513 158T604 143Q697 143 771 178T910 274V525ZM750 1500L980 1520L740 1200H590L750 1500Z" />
<glyph unicode="&#xe2;" glyph-name="acircumflex" horiz-adv-x="1300" d="M1110 0H910V162L816 50Q799 37 773 25T716 4T655 -11T596 -17Q521 -17 445 6T308 75T209 188T170 344Q170 437 209 504T313 616T459 681T625 702Q720 702 790 692T910 662V705Q910 764
896 811T850 890T771 940T655 957Q592 957 547 950T462 933Q439 928 418 922T377 910L305 1044Q347 1063 405 1080Q453 1094 514 1105T665 1117Q780 1117 861 1086T993 999T1067 865T1090 690V180L1110 0ZM910 525L850 533Q836 534 813 536T763 539L710 541Q684
542 665 542Q609 542 555 532T459 499T390 439T363 345Q363 300 383 263T436 199T513 158T604 143Q697 143 771 178T910 274V525ZM980 1220H830L730 1372L700 1460L670 1373L569 1220H419L595 1500L795 1520L980 1220Z" />
<glyph unicode="&#xe3;" glyph-name="atilde" horiz-adv-x="1300" d="M1110 0H910V162L816 50Q799 37 773 25T716 4T655 -11T596 -17Q521 -17 445 6T308 75T209 188T170 344Q170 437 209 504T313 616T459 681T625 702Q720 702 790 692T910 662V705Q910 764 896
811T850 890T771 940T655 957Q592 957 547 950T462 933Q439 928 418 922T377 910L305 1044Q347 1063 405 1080Q453 1094 514 1105T665 1117Q780 1117 861 1086T993 999T1067 865T1090 690V180L1110 0ZM910 525L850 533Q836 534 813 536T763 539L710 541Q684 542
665 542Q609 542 555 532T459 499T390 439T363 345Q363 300 383 263T436 199T513 158T604 143Q697 143 771 178T910 274V525ZM387 1275Q391 1315 406 1353T446 1420T502 1466T569 1484Q608 1484 642 1470T707 1439T768 1408T829 1394Q850 1394 866 1404T893 1430T911
1465T921 1502L1017 1498Q1014 1454 998 1413T956 1341T896 1290T822 1271Q790 1271 759 1285T696 1315T631 1346T563 1360Q545 1360 531 1352T505 1331T485 1303T473 1272L387 1275Z" />
<glyph unicode="&#xe4;" glyph-name="adieresis" horiz-adv-x="1300" d="M1110 0H910V162L816 50Q799 37 773 25T716 4T655 -11T596 -17Q521 -17 445 6T308 75T209 188T170 344Q170 437 209 504T313 616T459 681T625 702Q720 702 790 692T910 662V705Q910 764
896 811T850 890T771 940T655 957Q592 957 547 950T462 933Q439 928 418 922T377 910L305 1044Q347 1063 405 1080Q453 1094 514 1105T665 1117Q780 1117 861 1086T993 999T1067 865T1090 690V180L1110 0ZM910 525L850 533Q836 534 813 536T763 539L710 541Q684
542 665 542Q609 542 555 532T459 499T390 439T363 345Q363 300 383 263T436 199T513 158T604 143Q697 143 771 178T910 274V525ZM400 1500H600V1300H400V1500ZM800 1500H1000V1300H800V1500Z" />
<glyph unicode="&#xe5;" glyph-name="aring" horiz-adv-x="1300" d="M1110 0H910V162L816 50Q799 37 773 25T716 4T655 -11T596 -17Q521 -17 445 6T308 75T209 188T170 344Q170 437 209 504T313 616T459 681T625 702Q720 702 790 692T910 662V705Q910 764 896
811T850 890T771 940T655 957Q592 957 547 950T462 933Q439 928 418 922T377 910L305 1044Q347 1063 405 1080Q453 1094 514 1105T665 1117Q780 1117 861 1086T993 999T1067 865T1090 690V180L1110 0ZM910 525L850 533Q836 534 813 536T763 539L710 541Q684 542
665 542Q609 542 555 532T459 499T390 439T363 345Q363 300 383 263T436 199T513 158T604 143Q697 143 771 178T910 274V525ZM700 1634Q749 1634 792 1616T867 1565T918 1489T937 1397Q937 1348 919 1304T869 1227T794 1175T702 1156Q653 1156 610 1175T533 1227T481
1304T462 1397Q462 1446 481 1489T532 1564T607 1615T700 1634ZM701 1273Q726 1273 748 1283T786 1309T811 1348T821 1396Q821 1421 812 1443T786 1481T747 1507T700 1517Q675 1517 653 1508T615 1482T589 1443T579 1396Q579 1371 588 1349T614 1310T653 1283T701
1273Z" />
<glyph unicode="&#xe6;" glyph-name="ae" horiz-adv-x="1300" d="M1245 650Q1245 631 1244 610T1239 567T1233 528T1225 500H745Q745 425 756 360T789 247T846 171T925 143Q963 143 994 152T1048 175T1086 202T1107 225L1236 129Q1211 99 1185 73T1122 26T1038
-5T923 -17Q870 -17 825 -1T745 44T685 109T647 189Q631 147 610 110T557 44T483 0T381 -17Q306 -17 246 6T143 75T78 188T55 344Q55 437 77 505T138 619T234 687T360 710Q417 710 448 704T494 690Q511 681 515 671V705Q515 764 513 811T500 890T463 940T390 957Q357
957 326 950T268 933Q238 922 212 910L140 1044Q182 1064 231 1080Q273 1094 329 1105T450 1117Q492 1117 525 1105T582 1071T622 1021T648 962Q657 993 678 1021T731 1070T807 1104T905 1117Q1013 1117 1079 1087T1183 998T1232 852T1245 650ZM515 533Q506 537
494 541Q483 544 466 547T426 550Q333 550 284 504T235 345Q235 300 243 263T270 199T318 158T389 143Q427 143 452 163T491 208Q508 237 515 274V533ZM1067 730Q1067 776 1060 817T1034 890T986 939T911 957Q862 957 830 938T779 887T752 815T744 732L675 623L797
650H1067V730Z" />
<glyph unicode="&#xe7;" glyph-name="ccedilla" horiz-adv-x="1300" d="M1006 878Q967 913 898 935T723 957Q639 957 573 926T460 840T389 715T364 564Q364 482 387 408T457 276T573 186T734 152Q786 152 834 164T921 192T987 225T1027 252L1099 111Q1084 98 1054
77T978 34T867 -2Q844 -7 819 -10Q836 -33 851 -59Q867 -86 880 -122T893 -198Q893 -242 875 -280T825 -346T754 -391T669 -407Q619 -407 573 -394T489 -363Q446 -344 408 -318L479 -218Q505 -236 533 -249Q557 -260 586 -269T645 -279Q682 -279 711 -255T740 -189Q740
-156 724 -123T687 -62Q668 -36 646 -12Q564 -2 493 32Q392 82 320 164T209 354T169 577Q169 681 207 778T318 951T493 1071T725 1117Q847 1117 944 1089T1105 991L1006 878Z" />
<glyph unicode="&#xe8;" glyph-name="egrave" horiz-adv-x="1300" d="M1034 129Q1003 97 966 70T884 24T785 -6T663 -17Q530 -17 433 30T273 156T180 337T150 550Q150 621 164 690T206 823T275 940T371 1033T492 1094T638 1117Q746 1117 833 1082T981 984T1075
833T1108 638Q1108 607 1106 570T1100 500H340Q340 423 364 358T429 245T527 170T650 143Q714 143 759 152T836 176T889 206T925 236L1034 129ZM932 650V694Q932 751 910 799T849 882T760 938T653 958Q586 958 536 937T449 882T391 808T359 732L300 618L485 650H932ZM760
1200H610L385 1500L589 1520L760 1200Z" />
<glyph unicode="&#xe9;" glyph-name="eacute" horiz-adv-x="1300" d="M1034 129Q1003 97 966 70T884 24T785 -6T663 -17Q530 -17 433 30T273 156T180 337T150 550Q150 621 164 690T206 823T275 940T371 1033T492 1094T638 1117Q746 1117 833 1082T981 984T1075
833T1108 638Q1108 607 1106 570T1100 500H340Q340 423 364 358T429 245T527 170T650 143Q714 143 759 152T836 176T889 206T925 236L1034 129ZM932 650V694Q932 751 910 799T849 882T760 938T653 958Q586 958 536 937T449 882T391 808T359 732L300 618L485 650H932ZM700
1500L930 1520L690 1200H540L700 1500Z" />
<glyph unicode="&#xea;" glyph-name="ecircumflex" horiz-adv-x="1300" d="M1034 129Q1003 97 966 70T884 24T785 -6T663 -17Q530 -17 433 30T273 156T180 337T150 550Q150 621 164 690T206 823T275 940T371 1033T492 1094T638 1117Q746 1117 833 1082T981 984T1075
833T1108 638Q1108 607 1106 570T1100 500H340Q340 423 364 358T429 245T527 170T650 143Q714 143 759 152T836 176T889 206T925 236L1034 129ZM932 650V694Q932 751 910 799T849 882T760 938T653 958Q586 958 536 937T449 882T391 808T359 732L300 618L485 650H932ZM890
1220H740L640 1372L610 1460L580 1373L479 1220H329L505 1500L705 1520L890 1220Z" />
<glyph unicode="&#xeb;" glyph-name="edieresis" horiz-adv-x="1300" d="M1034 129Q1003 97 966 70T884 24T785 -6T663 -17Q530 -17 433 30T273 156T180 337T150 550Q150 621 164 690T206 823T275 940T371 1033T492 1094T638 1117Q746 1117 833 1082T981 984T1075
833T1108 638Q1108 607 1106 570T1100 500H340Q340 423 364 358T429 245T527 170T650 143Q714 143 759 152T836 176T889 206T925 236L1034 129ZM932 650V694Q932 751 910 799T849 882T760 938T653 958Q586 958 536 937T449 882T391 808T359 732L300 618L485 650H932ZM400
1500H600V1300H400V1500ZM800 1500H1000V1300H800V1500Z" />
<glyph unicode="&#xec;" glyph-name="igrave" horiz-adv-x="1300" d="M711 393Q711 341 717 297T739 221T779 171T841 153Q890 153 936 161T1020 179T1081 199T1112 210L1151 56Q1145 53 1119 41T1051 17T953 -6T831 -17Q733 -17 673 15T578 103T533 237T521 403V970L421
940H220L200 1100H711V393ZM660 1200H510L285 1500L489 1520L660 1200Z" />
<glyph unicode="&#xed;" glyph-name="iacute" horiz-adv-x="1300" d="M711 393Q711 341 717 297T739 221T779 171T841 153Q890 153 936 161T1020 179T1081 199T1112 210L1151 56Q1145 53 1119 41T1051 17T953 -6T831 -17Q733 -17 673 15T578 103T533 237T521 403V970L421
940H220L200 1100H711V393ZM720 1500L950 1520L710 1200H560L720 1500Z" />
<glyph unicode="&#xee;" glyph-name="icircumflex" horiz-adv-x="1300" d="M711 393Q711 341 717 297T739 221T779 171T841 153Q890 153 936 161T1020 179T1081 199T1112 210L1151 56Q1145 53 1119 41T1051 17T953 -6T831 -17Q733 -17 673 15T578 103T533 237T521
403V970L421 940H220L200 1100H711V393ZM881 1220H731L631 1372L601 1460L571 1373L470 1220H320L496 1500L696 1520L881 1220Z" />
<glyph unicode="&#xef;" glyph-name="idieresis" horiz-adv-x="1300" d="M711 393Q711 341 717 297T739 221T779 171T841 153Q890 153 936 161T1020 179T1081 199T1112 210L1151 56Q1145 53 1119 41T1051 17T953 -6T831 -17Q733 -17 673 15T578 103T533 237T521
403V970L421 940H220L200 1100H711V393ZM700 1500H900V1300H700V1500ZM300 1500H500V1300H300V1500Z" />
<glyph unicode="&#xf0;" glyph-name="eth" horiz-adv-x="1300" d="M414 1165L626 1344L507 1323Q457 1349 409 1362T306 1375Q293 1375 284 1374T271 1372L246 1515Q262 1517 277 1517T307 1517Q417 1517 514 1487T695 1402L833 1519L930 1404L746 1249H863Q915
1187 956 1115T1026 961T1069 793T1084 617Q1084 563 1077 495T1052 357T1001 219T918 100T794 15T624 -17Q516 -17 436 18T304 117T226 269T200 466Q200 689 302 806T601 924Q635 924 663 920T718 907T771 883T827 844L910 727Q901 789 881 852T831 974T762 1089T678
1191L511 1050L414 1165ZM909 604Q891 630 861 658T791 709T707 748T616 764Q547 764 502 740T429 673T391 573T380 448Q380 382 395 326T441 230T517 166T623 143Q684 143 729 164T808 221T862 305T894 409Q905 464 907 509T909 604Z" />
<glyph unicode="&#xf1;" glyph-name="ntilde" horiz-adv-x="1300" d="M390 0H210V1100L390 1120V927L451 1044Q469 1056 493 1069T553 1092T636 1110T749 1117Q828 1117 891 1092T998 1018T1065 902T1089 750V0H909V750Q909 804 892 843T843 907T771 945T684 957Q636
957 592 945T509 915T441 875T390 834V0ZM387 1275Q391 1315 406 1353T446 1420T502 1466T569 1484Q608 1484 642 1470T707 1439T768 1408T829 1394Q850 1394 866 1404T893 1430T911 1465T921 1502L1017 1498Q1014 1454 998 1413T956 1341T896 1290T822 1271Q790
1271 759 1285T696 1315T631 1346T563 1360Q545 1360 531 1352T505 1331T485 1303T473 1272L387 1275Z" />
<glyph unicode="&#xf2;" glyph-name="ograve" horiz-adv-x="1300" d="M649 -17Q538 -17 446 26T286 146T182 327T144 553Q144 674 180 777T282 956T441 1074T649 1117Q760 1117 851 1075T1007 957T1109 778T1145 553Q1145 431 1111 327T1012 147T855 27T649 -17ZM955
526Q955 607 938 685T884 824T788 924T645 962Q565 962 506 929T409 841T353 716T334 572Q334 491 352 413T409 274T508 176T653 138Q732 138 789 171T883 258T937 382T955 526ZM787 1200H637L412 1500L616 1520L787 1200Z" />
<glyph unicode="&#xf3;" glyph-name="oacute" horiz-adv-x="1300" d="M649 -17Q538 -17 446 26T286 146T182 327T144 553Q144 674 180 777T282 956T441 1074T649 1117Q760 1117 851 1075T1007 957T1109 778T1145 553Q1145 431 1111 327T1012 147T855 27T649 -17ZM955
526Q955 607 938 685T884 824T788 924T645 962Q565 962 506 929T409 841T353 716T334 572Q334 491 352 413T409 274T508 176T653 138Q732 138 789 171T883 258T937 382T955 526ZM700 1500L930 1520L690 1200H540L700 1500Z" />
<glyph unicode="&#xf4;" glyph-name="ocircumflex" horiz-adv-x="1300" d="M649 -17Q538 -17 446 26T286 146T182 327T144 553Q144 674 180 777T282 956T441 1074T649 1117Q760 1117 851 1075T1007 957T1109 778T1145 553Q1145 431 1111 327T1012 147T855 27T649
-17ZM955 526Q955 607 938 685T884 824T788 924T645 962Q565 962 506 929T409 841T353 716T334 572Q334 491 352 413T409 274T508 176T653 138Q732 138 789 171T883 258T937 382T955 526ZM930 1220H780L680 1372L650 1460L620 1373L519 1220H369L545 1500L745 1520L930
1220Z" />
<glyph unicode="&#xf5;" glyph-name="otilde" horiz-adv-x="1300" d="M649 -17Q538 -17 446 26T286 146T182 327T144 553Q144 674 180 777T282 956T441 1074T649 1117Q760 1117 851 1075T1007 957T1109 778T1145 553Q1145 431 1111 327T1012 147T855 27T649 -17ZM955
526Q955 607 938 685T884 824T788 924T645 962Q565 962 506 929T409 841T353 716T334 572Q334 491 352 413T409 274T508 176T653 138Q732 138 789 171T883 258T937 382T955 526ZM337 1275Q341 1315 356 1353T396 1420T452 1466T519 1484Q558 1484 592 1470T657
1439T718 1408T779 1394Q800 1394 816 1404T843 1430T861 1465T871 1502L967 1498Q964 1454 948 1413T906 1341T846 1290T772 1271Q740 1271 709 1285T646 1315T581 1346T513 1360Q495 1360 481 1352T455 1331T435 1303T423 1272L337 1275Z" />
<glyph unicode="&#xf6;" glyph-name="odieresis" horiz-adv-x="1300" d="M649 -17Q538 -17 446 26T286 146T182 327T144 553Q144 674 180 777T282 956T441 1074T649 1117Q760 1117 851 1075T1007 957T1109 778T1145 553Q1145 431 1111 327T1012 147T855 27T649
-17ZM955 526Q955 607 938 685T884 824T788 924T645 962Q565 962 506 929T409 841T353 716T334 572Q334 491 352 413T409 274T508 176T653 138Q732 138 789 171T883 258T937 382T955 526ZM350 1500H550V1300H350V1500ZM750 1500H950V1300H750V1500Z" />
<glyph unicode="&#xf7;" glyph-name="divide" horiz-adv-x="1300" d="M541 307Q541 329 549 348T573 383T607 406T649 415Q671 415 690 407T725 383T748 349T757 307Q757 285 749 265T726 230T692 206T650 197Q627 197 608 206T573 230T550 265T541 307ZM541 920Q541
942 549 961T573 996T607 1019T649 1028Q671 1028 690 1020T725 996T748 962T757 920Q757 898 749 878T726 843T692 819T650 810Q627 810 608 819T573 843T550 878T541 920ZM200 700H1100V545H200V700Z" />
<glyph unicode="&#xf8;" glyph-name="oslash" horiz-adv-x="1300" d="M604 -17Q501 -17 414 20L351 -100H161L274 112Q257 128 241 146Q174 223 137 327T99 553Q99 674 135 777T237 956T396 1074T604 1117Q707 1117 792 1080L861 1209H1041L927 993Q945 976 962
956Q1028 881 1064 778T1100 553Q1100 431 1066 327T967 147T810 27T604 -17ZM600 962Q520 962 461 929T364 841T308 716T289 572Q289 491 307 413Q325 337 362 277L716 938Q666 962 600 962ZM910 526Q910 607 893 685T839 824L838 825L489 161Q541 138 608 138Q687
138 744 171T838 258T892 382T910 526Z" />
<glyph unicode="&#xf9;" glyph-name="ugrave" horiz-adv-x="1300" d="M930 1100L1110 1120V0H930V180L869 73Q860 62 840 47T790 18T721 -7T634 -17Q513 -17 432 20T301 120T231 263T210 430V1100L390 1120V430Q390 365 403 313T447 224T531 168T662 148Q720 148
765 164T843 204T898 254T930 300V1100ZM787 1200H637L412 1500L616 1520L787 1200Z" />
<glyph unicode="&#xfa;" glyph-name="uacute" horiz-adv-x="1300" d="M930 1100L1110 1120V0H930V180L869 73Q860 62 840 47T790 18T721 -7T634 -17Q513 -17 432 20T301 120T231 263T210 430V1100L390 1120V430Q390 365 403 313T447 224T531 168T662 148Q720 148
765 164T843 204T898 254T930 300V1100ZM665 1500L895 1520L655 1200H505L665 1500Z" />
<glyph unicode="&#xfb;" glyph-name="ucircumflex" horiz-adv-x="1300" d="M930 1100L1110 1120V0H930V180L869 73Q860 62 840 47T790 18T721 -7T634 -17Q513 -17 432 20T301 120T231 263T210 430V1100L390 1120V430Q390 365 403 313T447 224T531 168T662 148Q720
148 765 164T843 204T898 254T930 300V1100ZM930 1220H780L680 1372L650 1460L620 1373L519 1220H369L545 1500L745 1520L930 1220Z" />
<glyph unicode="&#xfc;" glyph-name="udieresis" horiz-adv-x="1300" d="M930 1100L1110 1120V0H930V180L869 73Q860 62 840 47T790 18T721 -7T634 -17Q513 -17 432 20T301 120T231 263T210 430V1100L390 1120V430Q390 365 403 313T447 224T531 168T662 148Q720
148 765 164T843 204T898 254T930 300V1100ZM350 1500H550V1300H350V1500ZM750 1500H950V1300H750V1500Z" />
<glyph unicode="&#xfd;" glyph-name="yacute" horiz-adv-x="1300" d="M721 364L990 1100L1170 1120L766 -17Q736 -101 702 -184T624 -333T526 -439T401 -480Q345 -480 298 -458T209 -400L282 -283Q288 -289 297 -297T318 -312T343 -325T371 -330Q407 -330 436
-305T491 -238T538 -147T580 -47L173 1100L363 1120L627 364L679 132L721 364ZM715 1500L945 1520L705 1200H555L715 1500Z" />
<glyph unicode="&#xfe;" glyph-name="thorn" horiz-adv-x="1300" d="M349 1520V1003Q399 1046 461 1074Q555 1117 669 1117Q780 1117 871 1075T1027 957T1129 778T1165 553Q1165 431 1131 327T1032 147T875 27T669 -17Q558 -17 465 26Q401 57 349 103V-400H149V1500L349
1520ZM975 526Q975 607 958 685T904 824T808 924T665 962Q585 962 526 929T429 841T373 716T354 572Q354 491 372 413T429 274T528 176T673 138Q752 138 809 171T903 258T957 382T975 526Z" />
<glyph unicode="&#xff;" glyph-name="ydieresis" horiz-adv-x="1300" d="M721 364L990 1100L1170 1120L766 -17Q736 -101 702 -184T624 -333T526 -439T401 -480Q345 -480 298 -458T209 -400L282 -283Q288 -289 297 -297T318 -312T343 -325T371 -330Q407 -330 436
-305T491 -238T538 -147T580 -47L173 1100L363 1120L627 364L679 132L721 364ZM379 1500H579V1300H379V1500ZM779 1500H979V1300H779V1500Z" />
<glyph unicode="&#x2013;" glyph-name="endash" horiz-adv-x="1300" d="M300 600H1000V446H300V600Z" />
<glyph unicode="&#x2014;" glyph-name="emdash" horiz-adv-x="1300" d="M0 600H1300V446H0V600Z" />
<glyph unicode="&#x2018;" glyph-name="quoteleft" horiz-adv-x="1300" d="M424 1095Q424 1070 414 1048T387 1010T348 984T300 974Q275 974 253 982T213 1008T186 1050T175 1109Q175 1153 180 1195T203 1280T252 1367T336 1460L380 1440Q361 1403 346 1364Q333
1331 323 1292T312 1216Q333 1215 353 1207T389 1183T414 1146T424 1095Z" />
<glyph unicode="&#x2019;" glyph-name="quoteright" horiz-adv-x="1300" d="M700 1520L950 1500L600 1200H400L700 1520Z" />
<glyph unicode="&#x201a;" glyph-name="quotesinglbase" horiz-adv-x="1300" d="M176 105Q176 130 186 152T213 190T252 216T300 226Q325 226 347 218T387 192T414 150T425 91Q425 47 420 5T397 -80T348 -167T264 -260L220 -240Q239 -203 254 -164Q267 -131 277
-92T288 -16Q267 -15 247 -7T211 17T186 54T176 105Z" />
<glyph unicode="&#x201c;" glyph-name="quotedblleft" horiz-adv-x="1300" d="M424 1095Q424 1070 414 1048T387 1010T348 984T300 974Q275 974 253 982T213 1008T186 1050T175 1109Q175 1153 180 1195T203 1280T252 1367T336 1460L380 1440Q361 1403 346 1364Q333
1331 323 1292T312 1216Q333 1215 353 1207T389 1183T414 1146T424 1095ZM824 1095Q824 1070 814 1048T787 1010T748 984T700 974Q675 974 653 982T613 1008T586 1050T575 1109Q575 1153 580 1195T603 1280T652 1367T736 1460L780 1440Q761 1403 746 1364Q733 1331
723 1292T712 1216Q733 1215 753 1207T789 1183T814 1146T824 1095Z" />
<glyph unicode="&#x201d;" glyph-name="quotedblright" horiz-adv-x="1300" d="M176 1305Q176 1330 186 1352T213 1390T252 1416T300 1426Q325 1426 347 1418T387 1392T414 1350T425 1291Q425 1247 420 1205T397 1120T348 1033T264 940L220 960Q239 997 254 1036Q267
1069 277 1108T288 1184Q267 1185 247 1193T211 1217T186 1254T176 1305ZM576 1305Q576 1330 586 1352T613 1390T652 1416T700 1426Q725 1426 747 1418T787 1392T814 1350T825 1291Q825 1247 820 1205T797 1120T748 1033T664 940L620 960Q639 997 654 1036Q667
1069 677 1108T688 1184Q667 1185 647 1193T611 1217T586 1254T576 1305Z" />
<glyph unicode="&#x201e;" glyph-name="quotedblbase" horiz-adv-x="1300" d="M176 105Q176 130 186 152T213 190T252 216T300 226Q325 226 347 218T387 192T414 150T425 91Q425 47 420 5T397 -80T348 -167T264 -260L220 -240Q239 -203 254 -164Q267 -131 277
-92T288 -16Q267 -15 247 -7T211 17T186 54T176 105ZM576 105Q576 130 586 152T613 190T652 216T700 226Q725 226 747 218T787 192T814 150T825 91Q825 47 820 5T797 -80T748 -167T664 -260L620 -240Q639 -203 654 -164Q667 -131 677 -92T688 -16Q667 -15 647 -7T611
17T586 54T576 105Z" />
<glyph unicode="&#x2022;" glyph-name="bullet" horiz-adv-x="1300" d="M398 807Q398 867 421 920T485 1013T578 1076T692 1100Q752 1100 805 1077T899 1014T962 921T986 807Q986 747 963 693T901 597T808 532T695 508Q635 508 581 532T487 597T422 692T398 807Z" />
<glyph unicode="&#x2039;" glyph-name="guilsinglleft" horiz-adv-x="1300" d="M870 1026L920 901L595 610L457 550L594 490L922 201L868 66L400 478V617L870 1026Z" />
<glyph unicode="&#x203a;" glyph-name="guilsinglright" horiz-adv-x="1300" d="M900 617V478L432 66L378 201L706 490L843 550L705 610L380 901L430 1026L900 617Z" />
</font>
</defs>
</svg>
