<?xml version="1.0" standalone="no"?>
<!DOCTYPE svg PUBLIC "-//W3C//DTD SVG 1.1//EN" "http://www.w3.org/Graphics/SVG/1.1/DTD/svg11.dtd">
<svg xmlns="http://www.w3.org/2000/svg">
<defs >
<font id="PontanoSans" horiz-adv-x="1008" ><font-face
    font-family="Pontano Sans"
    units-per-em="2048"
    panose-1="0 0 0 0 0 0 0 0 0 0"
    ascent="2025"
    descent="-599"
    alphabetic="0" />
<glyph unicode=" " horiz-adv-x="442" />
<glyph unicode="!" horiz-adv-x="428" d="M187 335L116 1464H325L257 335H187ZM136 0V193H309V0H136Z" />
<glyph unicode="&quot;" horiz-adv-x="510" d="M360 1000L310 1464H468L419 1000H360ZM89 1000L39 1464H197L148 1000H89Z" />
<glyph unicode="#" horiz-adv-x="1221" d="M137 0L246 541H49L83 658H269L317 891H118L151 1009H341L433 1463L598 1464L504 1009H791L883 1463L1049 1464L955 1009H1177L1144 891H931L883 658H1109L1075 541H859L748 1L588 0L697 541H407L296 1L137 0ZM431 658H721L767
891H480L431 658Z" />
<glyph unicode="$" horiz-adv-x="1216" d="M593 -204V1672H699V-204H593ZM615 -25Q516 -25 423 -3T251 66T119 189T45 373L193 437Q226 325 282 254T425 150T632 117Q725 117 803 143T929 229T977 387Q977 483 938 537T809 631T566 718Q440 759 339 804T178 923T119
1125Q119 1249 185 1330T363 1451T618 1491Q737 1491 828 1466T991 1386T1123 1240L998 1145Q937 1251 847 1301T641 1351Q542 1351 466 1329T347 1260T303 1138Q303 1066 333 1022T420 949T552 897T719 844Q860 798 958 745T1108 609T1160 393Q1160 258 1095 165T907
24T615 -25Z" />
<glyph unicode="%" horiz-adv-x="1677" d="M273 -21L182 60L1418 1489L1508 1408L273 -21ZM357 772Q255 772 186 822T81 952T46 1118Q46 1205 81 1284T186 1415T357 1466Q458 1466 527 1415T631 1285T666 1119Q666 1032 631 953T527 823T357 772ZM357 883Q446
883 491 953T536 1120Q536 1217 491 1286T357 1356Q269 1356 224 1286T178 1120Q178 1023 222 953T357 883ZM1297 -10Q1196 -10 1127 40T1022 170T986 337Q986 424 1021 503T1126 634T1297 685Q1399 685 1468 634T1572 504T1607 338Q1607 251 1572 172T1468 41T1297
-10ZM1297 102Q1386 102 1431 172T1476 338Q1476 436 1431 505T1297 575Q1209 575 1164 505T1118 339Q1118 242 1163 172T1297 102Z" />
<glyph unicode="&amp;" horiz-adv-x="1430" d="M1282 -28L419 946Q368 1005 345 1065T321 1193Q321 1290 370 1356T499 1457T673 1491Q767 1491 844 1459T968 1365T1015 1211Q1015 1141 989 1086T912 984T789 895T625 808Q484 741 408 679T302 555T273 423Q273
342 307 272T414 159T608 116Q720 116 814 161T982 293T1104 508T1173 802L1319 780Q1296 589 1243 452T1113 222T949 75T766 -2T582 -25Q438 -25 329 33T159 190T98 409Q98 577 200 694T539 905Q642 946 705 986T803 1064T849 1136T862 1200Q862 1269 808 1310T678
1351Q594 1351 538 1308T482 1191Q482 1144 502 1093T566 992L1388 71L1282 -28Z" />
<glyph unicode="&apos;" horiz-adv-x="280" d="M123 1000L73 1464H230L181 1000H123Z" />
<glyph unicode="(" horiz-adv-x="602" d="M523 -181Q378 -146 264 -41T84 249T18 703Q18 973 83 1157T263 1447T523 1587L557 1485Q431 1448 352 1342T236 1073T199 703Q199 496 236 334T352 65T557 -79L523 -181Z" />
<glyph unicode=")" horiz-adv-x="602" d="M52 -181L18 -79Q145 -41 223 65T339 333T376 703Q376 910 339 1072T224 1341T18 1485L52 1587Q198 1553 312 1447T491 1157T557 703Q557 434 492 250T312 -40T52 -181Z" />
<glyph unicode="*" horiz-adv-x="826" d="M363 759L371 1042L115 887L65 983L331 1113L64 1243L114 1339L371 1185L363 1468H466L457 1186L713 1340L763 1244L497 1114L764 984L714 888L457 1043L466 759H363Z" />
<glyph unicode="+" horiz-adv-x="1000" d="M441 350V665H147V785H441V1100H563V785H853V665H563V350H441Z" />
<glyph unicode="," horiz-adv-x="445" d="M171 -270L107 -196Q128 -178 159 -126T192 4L88 17V227H328V118Q327 31 317 -40T275 -169T171 -270Z" />
<glyph unicode="-" horiz-adv-x="724" d="M100 384V517H600V384H100Z" />
<glyph unicode="." horiz-adv-x="434" d="M115 0V225H317V0H115Z" />
<glyph unicode="/" horiz-adv-x="592" d="M172 -40L43 -8L458 1534L598 1502L172 -40Z" />
<glyph unicode="0" horiz-adv-x="1246" d="M623 -24Q445 -24 329 67T155 326T97 724Q97 955 154 1127T328 1394T623 1489Q801 1489 917 1394T1091 1127T1149 724Q1149 494 1092 326T918 67T623 -24ZM623 117Q798 117 880 268T963 724Q963 1029 881 1188T623 1348Q448
1348 366 1189T283 724Q283 419 365 268T623 117Z" />
<glyph unicode="1" horiz-adv-x="836" d="M388 0V1300L168 1200L116 1340L410 1464H564V0H388Z" />
<glyph unicode="2" horiz-adv-x="1246" d="M176 0Q179 127 231 224T365 401T536 552T706 698T837 858T888 1056Q888 1193 817 1271T631 1350Q507 1350 428 1282T286 1079L132 1141Q218 1329 334 1409T619 1490Q747 1490 847 1443T1005 1297T1063 1046Q1063 935
1025 848T922 690T781 555T626 428T482 297T372 145H1065V0H176Z" />
<glyph unicode="3" horiz-adv-x="1154" d="M572 -25Q469 -25 376 8T215 117T115 316L264 366Q304 246 375 182T565 117Q666 117 730 157T824 264T854 408Q854 534 806 606T670 710T462 741V876Q599 876 670 914T766 1012T791 1140Q791 1195 766 1243T692 1321T568
1351Q487 1351 414 1315T276 1180L149 1256Q224 1373 329 1431T561 1490Q748 1490 855 1397T962 1154Q962 1084 939 1017T863 897T721 817Q835 789 903 725T1002 577T1033 404Q1033 298 981 200T826 39T572 -25Z" />
<glyph unicode="4" horiz-adv-x="1222" d="M754 0V353H105V481L677 1464H920V484H1167V353H921V0H754ZM284 484H754V1327L284 484Z" />
<glyph unicode="5" horiz-adv-x="1196" d="M610 -24Q441 -24 310 53T110 309L258 368Q313 247 404 181T601 115Q696 115 768 157T882 276T924 453Q924 541 890 616T789 738T622 785Q540 785 462 759T310 674L200 744L296 1464H987V1312H452L381 825L358 854Q426
895 500 911T630 928Q793 928 897 863T1051 692T1101 461Q1101 318 1041 209T870 38T610 -24Z" />
<glyph unicode="6" horiz-adv-x="1220" d="M637 -25Q467 -25 353 62T180 312T122 698Q122 949 189 1126T375 1396T652 1490Q726 1490 818 1467T988 1396L940 1263Q871 1307 801 1328T665 1350Q564 1350 488 1295T366 1125T314 832Q392 891 481 919T661 947Q788
947 888 893T1045 735T1103 481Q1103 386 1073 296T983 133T837 18T637 -25ZM637 117Q768 117 845 211T922 477Q922 651 854 731T642 812Q552 812 472 781T314 689V651Q314 549 329 454T380 282T478 162T637 117Z" />
<glyph unicode="7" horiz-adv-x="1246" d="M539 -1L348 1L889 1329H212L199 1464H1073V1329L539 -1Z" />
<glyph unicode="8" horiz-adv-x="1194" d="M585 -25Q439 -25 336 28T177 169T122 357Q122 431 148 499T233 631T394 753Q338 780 279 828T179 944T138 1101Q138 1240 206 1325T383 1450T610 1490Q733 1490 837 1450T1005 1323T1069 1099Q1069 1026 1040 968T966
867T876 797T796 757Q924 696 983 633T1060 503T1078 365Q1078 263 1021 174T853 30T585 -25ZM600 117Q674 117 742 146T855 232T899 368Q899 477 849 538T712 635T517 702Q407 634 360 548T312 376Q312 306 345 247T442 153T600 117ZM666 806Q713 830 764 867T852
961T889 1101Q889 1184 853 1239T754 1322T610 1350Q534 1350 468 1325T361 1245T320 1104Q320 1009 364 956T486 871T666 806Z" />
<glyph unicode="9" horiz-adv-x="1220" d="M567 -25Q494 -25 402 -2T231 70L280 203Q349 159 419 138T555 116Q656 116 732 171T853 341T905 634Q828 574 739 547T556 519Q430 519 331 573T174 731T116 984Q116 1079 146 1169T236 1332T382 1447T582 1490Q752
1490 866 1403T1039 1153T1097 767Q1097 517 1030 340T844 69T567 -25ZM577 654Q667 654 747 685T905 777V815Q905 917 890 1012T839 1184T741 1304T582 1349Q452 1349 375 1255T297 988Q297 815 365 735T577 654Z" />
<glyph unicode=":" horiz-adv-x="482" d="M142 808V1033H349V808H142ZM142 171V395H349V171H142Z" />
<glyph unicode=";" horiz-adv-x="478" d="M216 -270L146 -190Q167 -172 198 -123T231 4L127 17V227H367V118Q366 31 357 -40T316 -169T216 -270ZM136 808V1033H355V808H136Z" />
<glyph unicode="&lt;" horiz-adv-x="1000" d="M975 91L26 457V610L975 963V780L219 525L975 257V91Z" />
<glyph unicode="=" horiz-adv-x="1000" d="M225 537V656H775V537H225ZM225 288V406H775V288H225Z" />
<glyph unicode="&gt;" horiz-adv-x="1000" d="M26 91V273L783 529L26 797V963L975 597V444L26 91Z" />
<glyph unicode="?" horiz-adv-x="1010" d="M505 357L351 358Q422 486 484 574T599 726T688 843T745 954T766 1089Q766 1158 740 1217T654 1314T488 1351Q411 1351 354 1329T256 1274T190 1211T154 1163L35 1250Q95 1345 171 1397T331 1470T497 1491Q657 1491 754
1433T896 1283T941 1094Q941 1007 919 942T856 819T762 698T642 553T505 357ZM336 0V223H531V0H336Z" />
<glyph unicode="@" horiz-adv-x="1704" d="M842 -208Q651 -208 511 -151T281 4T146 227T102 491Q102 635 154 773T307 1024T553 1204T883 1271Q1026 1271 1155 1224T1386 1090T1545 881T1603 611Q1603 456 1557 345T1436 176T1274 117Q1239 117 1199 132T1127
189T1089 304Q1065 238 1015 188T902 110T772 82Q662 82 588 133T475 267T437 440Q437 535 469 627T559 793T697 912T871 956Q935 956 1000 931T1129 859L1155 932H1273L1183 362Q1173 300 1201 263T1283 225Q1330 225 1370 264T1436 390T1461 623Q1461 749 1415
846T1287 1010T1103 1111T886 1145Q740 1145 623 1087T424 931T298 716T254 482Q254 369 288 267T394 86T577 -40T843 -86Q912 -86 980 -74T1114 -42T1236 7L1288 -92Q1176 -151 1065 -179T842 -208ZM781 198Q815 198 856 211T939 258T1014 355T1064 521L1103 763Q1048
803 992 823T883 843Q797 843 730 790T626 646T588 437Q588 372 610 318T675 231T781 198Z" />
<glyph unicode="A" horiz-adv-x="1263" d="M29 0L501 1464H757L1234 0H1052L923 391H327L204 0H29ZM367 521H882L626 1349L367 521Z" />
<glyph unicode="B" horiz-adv-x="1314" d="M146 0V1464H593Q706 1464 812 1451T1002 1401T1136 1293T1186 1105Q1186 1020 1165 952T1086 839T921 780Q1035 767 1103 719T1201 594T1231 413Q1231 249 1158 160T936 35T557 0H146ZM321 133H602Q685 133 765 139T912
172T1017 256T1057 417Q1057 551 1005 614T853 697T609 717H321V133ZM321 845H595Q748 845 841 861T977 930T1019 1095Q1019 1182 988 1230T900 1299T767 1326T600 1331H321V845Z" />
<glyph unicode="C" horiz-adv-x="1394" d="M755 -24Q556 -24 413 55T193 302T116 735Q116 1001 192 1167T412 1412T755 1490Q884 1490 993 1450T1181 1324T1300 1105L1138 1067Q1113 1150 1065 1214T940 1314T748 1350Q582 1350 484 1279T344 1071T301 735Q301
537 343 399T484 188T748 116Q862 116 939 152T1065 252T1138 398L1300 361Q1260 227 1181 142T993 17T755 -24Z" />
<glyph unicode="D" horiz-adv-x="1429" d="M146 0V1464H667Q879 1464 1023 1396T1240 1168T1313 738Q1313 473 1245 311T1033 74T663 0H146ZM321 134H609Q808 134 923 191T1087 381T1136 737Q1136 933 1096 1065T954 1263T667 1330H321V134Z" />
<glyph unicode="E" horiz-adv-x="1216" d="M146 0V1464H1132V1331H321V848H1027V711H321V133H1143V0H146Z" />
<glyph unicode="F" horiz-adv-x="1192" d="M146 0V1464H1137V1331H321V838H1028V702H321V0H146Z" />
<glyph unicode="G" horiz-adv-x="1407" d="M734 -25Q604 -25 492 14T296 140T164 370T116 722Q116 1000 194 1169T415 1414T750 1490Q951 1490 1080 1397T1273 1126L1121 1074Q1071 1211 978 1280T747 1350Q587 1350 489 1282T346 1075T301 721Q301 419 409 268T752
116Q835 116 916 151T1050 260T1104 447V653H758V803H1278V581Q1278 535 1277 463T1275 311T1272 160T1269 45T1268 0H1153L1118 166Q1071 81 972 28T734 -25Z" />
<glyph unicode="H" horiz-adv-x="1483" d="M146 0V1464H321V839H1162V1464H1337V0H1162V700H321V0H146Z" />
<glyph unicode="I" horiz-adv-x="464" d="M148 0V1464H323V0H148Z" />
<glyph unicode="J" horiz-adv-x="997" d="M426 -23Q255 -23 157 73T27 333L184 376Q213 248 273 184T435 119Q517 119 566 150T642 237T677 371T686 541V1464H861V544Q861 355 818 229T679 40T426 -23Z" />
<glyph unicode="K" horiz-adv-x="1274" d="M146 0V1464H321V754L1000 1464H1212L683 918L1272 0H1072L563 795L321 545V0H146Z" />
<glyph unicode="L" horiz-adv-x="1045" d="M146 0V1464H321V133H1060V0H146Z" />
<glyph unicode="M" horiz-adv-x="1662" d="M146 0V1464H400L835 437L1286 1464H1516V0H1355V1239L909 250H748L313 1246V0H146Z" />
<glyph unicode="N" horiz-adv-x="1498" d="M146 0V1464H340L1199 267V1464H1352V0H1197L304 1256V0H146Z" />
<glyph unicode="O" horiz-adv-x="1486" d="M740 -24Q547 -24 407 51T192 293T116 740Q116 1013 192 1177T409 1415T741 1488Q933 1488 1074 1415T1292 1177T1369 741Q1369 465 1294 297T1079 53T740 -24ZM742 115Q908 115 1004 182T1142 387T1184 740Q1184 929
1145 1065T1010 1274T741 1348Q570 1348 475 1275T341 1065T302 741Q302 529 343 390T481 183T742 115Z" />
<glyph unicode="P" horiz-adv-x="1269" d="M146 0V1464H551Q789 1464 934 1426T1144 1300T1210 1063Q1210 894 1140 800T915 669T504 631H321V0H146ZM321 766H552Q724 767 829 789T983 873T1032 1055Q1032 1176 980 1234T817 1311T532 1330H321V766Z" />
<glyph unicode="Q" horiz-adv-x="1496" d="M1276 -353L1018 23Q958 -1 889 -12T740 -24Q547 -24 407 51T192 293T116 740Q116 1013 192 1177T409 1415T741 1488Q933 1488 1074 1415T1292 1177T1369 741Q1369 499 1312 341T1144 96L1406 -255L1276 -353ZM742 115Q908
115 1004 182T1142 387T1184 740Q1184 929 1145 1065T1010 1274T741 1348Q570 1348 475 1275T341 1065T302 741Q302 529 343 390T481 183T742 115Z" />
<glyph unicode="R" horiz-adv-x="1316" d="M146 0V1464H694Q984 1464 1108 1370T1233 1079Q1233 924 1152 824T918 694L1262 0H1073L741 670H321V0H146ZM321 803H678Q785 803 870 823T1004 902T1054 1077Q1054 1163 1025 1213T945 1289T827 1322T685 1330H321V803Z" />
<glyph unicode="S" horiz-adv-x="1222" d="M615 -25Q516 -25 423 -3T251 66T119 189T45 373L193 437Q226 325 282 254T425 150T632 117Q725 117 803 143T929 229T977 387Q977 483 938 537T809 631T566 718Q440 759 339 804T178 923T119 1125Q119 1249 185 1330T363
1451T618 1491Q737 1491 828 1466T991 1386T1123 1240L998 1145Q937 1251 847 1301T641 1351Q542 1351 466 1329T347 1260T303 1138Q303 1066 333 1022T420 949T552 897T719 844Q860 798 958 745T1108 609T1160 393Q1160 258 1095 165T907 24T615 -25Z" />
<glyph unicode="T" horiz-adv-x="1119" d="M481 0V1331H9V1464H1110V1331H656V0H481Z" />
<glyph unicode="U" horiz-adv-x="1364" d="M678 -24Q404 -24 262 116T120 572V1464H296V584Q296 436 327 331T443 171T684 115Q840 115 923 171T1038 332T1069 584V1464H1244V579Q1244 264 1104 120T678 -24Z" />
<glyph unicode="V" horiz-adv-x="1164" d="M499 0L-10 1464H172L587 231L995 1464H1168L666 0H499Z" />
<glyph unicode="W" horiz-adv-x="1835" d="M429 0L12 1464H195L503 281L874 1464H998L1333 260L1656 1464H1823L1398 0H1246L924 1129L563 0H429Z" />
<glyph unicode="X" horiz-adv-x="1269" d="M2 0L533 759L45 1464H254L638 910L1025 1464H1225L736 769L1267 0H1060L631 618L202 0H2Z" />
<glyph unicode="Y" horiz-adv-x="1184" d="M506 0V549L-3 1464H186L595 707L999 1464H1186L680 548V0H506Z" />
<glyph unicode="Z" horiz-adv-x="1176" d="M45 0V118L909 1332H128V1464H1134V1351L269 132H1140L1134 0H45Z" />
<glyph unicode="[" horiz-adv-x="708" d="M132 -52V1480H602V1352H307V77H602V-52H132Z" />
<glyph unicode="\" horiz-adv-x="632" d="M439 -5L42 1464H216L613 -5H439Z" />
<glyph unicode="]" horiz-adv-x="707" d="M124 -52V77H419V1352H124V1480H594V-52H124Z" />
<glyph unicode="^" horiz-adv-x="1000" d="M63 100L427 999H579L937 100H754L495 807L229 100H63Z" />
<glyph unicode="_" horiz-adv-x="870" d="M99 -118V-1H750V-118H99Z" />
<glyph unicode="`" horiz-adv-x="496" d="M356 1154L32 1474H265L469 1155L356 1154Z" />
<glyph unicode="a" horiz-adv-x="1002" d="M394 -25Q310 -25 241 3T131 88T90 235Q90 331 125 390T228 484T391 539T604 577L717 594V645Q717 751 700 811T637 898T505 924Q411 924 335 897T187 818Q187 818 177 833T153 869T130 904T119 919Q202 981 294 1013T513
1045Q695 1045 791 956T887 676V0H741L726 128Q672 53 588 14T394 -25ZM421 95Q512 95 584 133T717 243V486L587 464Q448 441 375 416T275 353T248 253Q248 173 287 134T421 95Z" />
<glyph unicode="b" horiz-adv-x="1113" d="M594 -24Q473 -24 392 27T266 166L258 -1H126V1473H296V882Q346 958 422 1001T598 1045Q787 1045 902 908T1017 510Q1017 346 968 226T824 41T594 -24ZM585 97Q716 97 780 202T844 516Q844 714 779 819T586 925Q525 925
472 904T378 835T314 711T291 521Q291 377 317 283T408 143T585 97Z" />
<glyph unicode="c" horiz-adv-x="999" d="M538 -24Q391 -24 293 44T146 234T96 510Q96 664 145 785T292 975T538 1045Q624 1045 704 1017T845 921T935 730L795 695Q764 813 702 868T543 924Q449 924 389 875T299 733T269 513Q269 383 299 290T390 148T543 98Q641
98 705 154T799 328L934 287Q907 169 848 101T708 5T538 -24Z" />
<glyph unicode="d" horiz-adv-x="1111" d="M520 -24Q385 -24 290 41T146 226T96 510Q96 687 149 806T299 985T522 1045Q620 1045 693 1004T815 891V1476H985V2H853L845 166Q801 80 722 28T520 -24ZM548 97Q643 97 703 146T793 289T823 521Q823 669 785 757T680
885T533 924Q401 924 335 821T268 518Q268 306 336 202T548 97Z" />
<glyph unicode="e" horiz-adv-x="1027" d="M551 -24Q392 -24 292 50T144 246T96 512Q96 672 148 792T300 978T542 1045Q685 1045 775 982T909 810T953 564Q953 560 953 545T952 513T950 487H266Q267 385 295 297T386 153T548 98Q652 98 715 152T804 285L931 256Q908
167 852 105T717 10T551 -24ZM266 599H794Q793 753 735 838T539 924Q470 924 420 896T338 821T288 717T266 599Z" />
<glyph unicode="f" horiz-adv-x="630" d="M212 0V897H38V1023H212V1139Q212 1262 238 1335T321 1441T465 1474Q513 1474 560 1459T634 1426L591 1316Q567 1328 540 1336T484 1344Q419 1344 401 1304T382 1160V1023H589V897H382V0H212Z" />
<glyph unicode="g" horiz-adv-x="1121" d="M544 -448Q406 -448 306 -397T153 -279L245 -185Q295 -247 364 -283T544 -320Q699 -320 763 -227T828 33V127Q782 57 707 17T524 -24Q389 -24 291 42T139 228T86 510Q86 685 142 804T297 984T522 1045Q630 1045 709 996T836
860L852 1023H997V34Q997 -124 943 -231T788 -393T544 -448ZM533 97Q643 97 707 141T800 275T828 505Q828 626 806 707T743 836T649 904T532 925Q405 925 332 818T258 516Q258 309 330 203T533 97Z" />
<glyph unicode="h" horiz-adv-x="1106" d="M126 0V1474H297V866Q349 952 433 998T637 1044Q758 1044 828 1003T933 894T978 746T988 588V0H818V603Q818 757 775 840T607 924Q493 924 427 872T331 732T297 538V0H126Z" />
<glyph unicode="i" horiz-adv-x="429" d="M139 0V1023H309V0H139ZM384 1232V1457H558V1232H384Z" />
<glyph unicode="j" horiz-adv-x="494" d="M138 -347Q85 -347 39 -335T-41 -304L-7 -177Q18 -187 47 -197T111 -207Q154 -207 180 -183T206 -91V1023H376V-24Q376 -138 355 -209T282 -313T138 -347ZM204 1232V1457H378V1232H204Z" />
<glyph unicode="k" horiz-adv-x="1029" d="M126 0V1474H297V533L806 1023H999L603 645L1039 0H847L493 539L297 352V0H126Z" />
<glyph unicode="l" horiz-adv-x="445" d="M135 0V1474H305V0H135Z" />
<glyph unicode="m" horiz-adv-x="1799" d="M126 0V1023H296V866Q348 953 432 999T637 1045Q738 1045 803 1016T906 936T962 823Q1011 932 1102 988T1328 1045Q1449 1045 1519 1004T1624 894T1669 746T1679 588V0H1509V603Q1509 706 1491 777T1427 887T1298 925Q1177
925 1109 866T1014 709T987 495V0H817V603Q817 706 799 777T735 887T606 925Q490 925 423 869T327 719T296 516V0H126Z" />
<glyph unicode="n" horiz-adv-x="1107" d="M126 0V1023H296V868Q348 955 433 1000T637 1045Q757 1045 827 1003T932 893T977 745T987 588V0H817V602Q817 757 774 841T607 925Q522 925 464 894T369 808T316 683T296 535V0H126Z" />
<glyph unicode="o" horiz-adv-x="1090" d="M545 -24Q340 -24 218 111T95 511Q95 774 217 909T545 1045Q750 1045 872 910T994 511Q994 247 872 112T545 -24ZM545 97Q657 97 716 158T798 314T821 511Q821 612 799 707T717 863T545 925Q434 925 374 864T292 707T269
511Q269 410 291 315T374 158T545 97Z" />
<glyph unicode="p" horiz-adv-x="1118" d="M126 -358V1023H274L289 863Q336 947 414 996T599 1045Q790 1045 906 909T1023 510Q1023 346 974 226T830 41T599 -24Q493 -24 418 15T296 124V-358H126ZM590 97Q721 97 785 202T849 516Q849 713 784 819T589 925Q529
925 476 905T383 839T320 718T296 534Q296 378 323 282T414 142T590 97Z" />
<glyph unicode="q" horiz-adv-x="1116" d="M821 -350V124Q775 55 700 16T518 -24Q383 -24 289 41T145 226T95 510Q95 773 212 909T519 1045Q626 1045 704 996T829 863L844 1023H991V-350H821ZM527 97Q638 97 702 141T794 275T822 503Q822 625 800 706T737 836T644
904T529 925Q400 925 334 819T268 516Q268 308 332 203T527 97Z" />
<glyph unicode="r" horiz-adv-x="651" d="M126 0V1023H295V845Q347 942 424 986T601 1031V881Q492 881 425 832T328 704T295 534L296 0H126Z" />
<glyph unicode="s" horiz-adv-x="920" d="M452 -24Q370 -24 292 -2T154 76T68 226L193 277Q218 212 250 173T333 115T466 97Q571 97 637 132T703 267Q703 319 693 349T652 398T563 431T408 467Q304 491 236 520T134 604T100 761Q100 899 205 972T479 1045Q613
1045 699 1001T839 844Q839 844 823 835T786 815T748 794T732 784Q695 861 640 893T486 925Q359 925 309 884T259 758Q259 703 279 674T352 627T499 589Q626 563 703 529T815 438T851 284Q851 134 758 55T452 -24Z" />
<glyph unicode="t" horiz-adv-x="671" d="M467 -16Q382 -16 320 16T225 120T191 314V907H42V1023H191L198 1346L361 1390V1023H585V907H361V285Q361 188 395 150T489 110Q521 110 554 118T621 141L649 30Q614 11 565 -2T467 -16Z" />
<glyph unicode="u" horiz-adv-x="1109" d="M477 -24Q352 -24 280 19T174 134T130 287T120 448V1023H290V425Q290 318 309 245T376 134T511 97Q626 97 691 156T784 312T812 523V1023H982V0H812V154Q762 68 680 22T477 -24Z" />
<glyph unicode="v" horiz-adv-x="955" d="M396 0L19 1023H190L478 213L770 1023H934L543 0H396Z" />
<glyph unicode="w" horiz-adv-x="1492" d="M344 0L13 1023H189L426 215L703 1023H799L1063 215L1311 1023H1478L1128 0H981L744 738L491 0H344Z" />
<glyph unicode="x" horiz-adv-x="1131" d="M81 0L453 512L79 1023H266L552 632L826 1023H1008L639 514L1016 0H829L542 392L262 0H81Z" />
<glyph unicode="y" horiz-adv-x="980" d="M185 -319Q155 -319 127 -316T67 -304L86 -166Q108 -169 127 -171T163 -173Q221 -173 261 -156T332 -92T391 40L409 92L36 1023H211L495 268L778 1023H946L581 85Q528 -52 477 -141T358 -275T185 -319Z" />
<glyph unicode="z" horiz-adv-x="879" d="M64 0V114L627 899H86V1023H828V908L256 123H826V0H64Z" />
<glyph unicode="{" horiz-adv-x="644" d="M616 -130Q471 -130 385 -103T255 -16T197 140T182 376Q182 441 175 502T134 604T19 651V763Q100 769 134 808T175 906T182 1029Q182 1170 195 1268T252 1427T383 1516T616 1544V1437Q525 1437 474 1421T400 1362T370
1240T364 1033Q364 897 331 814T201 707Q298 684 331 601T364 381Q364 254 370 175T399 52T474 -7T616 -23V-130Z" />
<glyph unicode="|" horiz-adv-x="416" d="M123 -197V1502H299V-197H123Z" />
<glyph unicode="}" horiz-adv-x="644" d="M19 -130V-23Q110 -23 161 -7T235 52T265 174T271 381Q271 518 304 601T434 707Q337 730 304 813T271 1033Q271 1160 265 1239T236 1362T161 1421T19 1437V1544Q165 1544 252 1516T382 1428T439 1269T453 1030Q453 965
460 906T501 808T616 763V651Q535 645 501 606T460 508T453 385Q453 245 440 147T383 -13T252 -102T19 -130Z" />
<glyph unicode="~" horiz-adv-x="1000" d="M794 684Q730 684 653 702T498 744T357 786T256 805Q232 805 213 789T178 695H36Q44 810 73 866T143 941T229 960Q279 960 353 943T506 903T649 863T742 846Q785 846 796 871T821 958H964Q957 816 915 750T794 684Z" />
<glyph unicode="&#xa0;" horiz-adv-x="442" />
<glyph unicode="&#xa1;" horiz-adv-x="428" d="M254 710L325 -419H116L184 710H254ZM305 1045V852H132V1045H305Z" />
<glyph unicode="&#xa2;" horiz-adv-x="982" d="M485 -208V1253H596V-208H485ZM538 -24Q391 -24 293 44T146 234T96 510Q96 664 145 785T292 975T538 1045Q624 1045 704 1017T845 921T935 730L795 695Q764 813 702 868T543 924Q449 924 389 875T299 733T269 513Q269
383 299 290T390 148T543 98Q641 98 705 154T799 328L934 287Q907 169 848 101T708 5T538 -24Z" />
<glyph unicode="&#xa3;" horiz-adv-x="1168" d="M219 -26L145 73Q173 125 199 191T243 338T260 515Q260 552 252 600T236 687H60V810H226Q223 848 216 901T209 988Q209 1238 320 1364T645 1490Q819 1490 899 1402T1003 1152L861 1131Q843 1230 809 1276T734 1336T651
1350Q509 1350 443 1267T377 1007Q377 968 384 911T395 810H773V687H403Q408 629 413 580T419 485Q419 398 405 330T370 209T327 114Q419 148 489 164T619 187T741 193Q810 193 882 175T1012 140L979 0Q904 16 843 29T683 42Q592 42 483 27T219 -26Z" />
<glyph unicode="&#xa4;" horiz-adv-x="1068" d="M190 197L126 253L264 410Q224 462 204 526T183 656Q183 709 196 761T236 859L78 997L134 1061L287 926Q331 970 392 996T534 1023Q599 1023 652 1006T745 956L878 1108L942 1052L805 896Q844 845 863 782T883 653Q883
540 831 449L990 309L934 246L780 381Q737 337 676 311T535 284Q471 284 418 301T324 350L190 197ZM536 385Q609 385 661 424T741 525T769 658Q769 727 742 788T662 887T535 925Q461 925 409 887T330 787T303 655Q303 586 330 524T409 424T536 385Z" />
<glyph unicode="&#xa5;" horiz-adv-x="1162" d="M240 543V646H926V543H240ZM240 322V425H926V322H240ZM506 0V549L-3 1464H186L595 707L999 1464H1186L680 548V0H506Z" />
<glyph unicode="&#xa6;" horiz-adv-x="416" d="M121 -198V467H297V-198H121ZM121 849V1504H297V849H121Z" />
<glyph unicode="&#xa7;" horiz-adv-x="1005" d="M535 -25Q453 -25 366 3T213 96T127 273L249 317Q284 211 357 164T539 117Q645 117 701 154T757 264Q757 313 715 347T605 408T462 464T319 530T209 620T166 750Q166 804 195 861T301 986Q250 1017 204 1068T157
1207Q157 1299 204 1362T335 1457T528 1490Q661 1490 745 1445T884 1285Q884 1285 868 1275T830 1252T792 1228T775 1217Q731 1297 673 1325T533 1354Q428 1354 377 1316T325 1205Q325 1158 365 1124T468 1060T601 1001T735 934T838 846T878 722Q878 684 871 647T840
570T773 482Q827 446 867 393T907 271Q907 123 806 49T535 -25ZM655 542Q689 596 705 637T722 710Q722 759 685 792T577 857T402 930Q356 876 335 836T314 764Q314 726 341 698T415 647T524 599T655 542Z" />
<glyph unicode="&#xa8;" horiz-adv-x="860" d="M518 1180V1378H712V1180H518ZM111 1180V1378H305V1180H111Z" />
<glyph unicode="&#xa9;" horiz-adv-x="1702" d="M850 53Q700 53 569 103T337 249T180 476T123 774Q123 936 180 1068T337 1297T568 1445T850 1497Q1000 1497 1132 1441T1364 1286T1522 1056T1579 774Q1579 624 1522 494T1365 264T1132 109T850 53ZM857 325Q697
325 611 431T524 780Q524 1023 610 1129T857 1235Q961 1235 1034 1182T1139 1018L1061 991Q1036 1068 991 1109T861 1150Q729 1150 675 1061T620 780Q620 589 674 499T861 409Q945 409 990 450T1061 569L1139 542Q1107 430 1034 378T857 325ZM849 106Q988 106 1108
158T1320 303T1462 516T1513 773Q1513 909 1462 1030T1321 1245T1110 1391T850 1444Q712 1444 592 1395T382 1256T240 1043T189 773Q189 572 277 422T515 189T849 106Z" />
<glyph unicode="&#xaa;" horiz-adv-x="946" d="M400 583Q335 583 279 608T187 682T152 804Q152 911 206 971T354 1060T565 1101L658 1110V1170Q658 1267 613 1310T497 1354Q436 1354 379 1326T278 1255Q278 1255 264 1268T232 1298T199 1327T185 1340Q241 1402
331 1438T495 1474Q642 1474 724 1391T806 1144V603H678L662 696Q616 651 554 617T400 583ZM422 677Q481 677 548 711T658 788V1006L563 996Q458 985 398 964T313 905T287 810Q287 755 319 716T422 677Z" />
<glyph unicode="&#xab;" horiz-adv-x="946" d="M937 242L488 531V768L937 1057V887L606 650L937 411V242ZM478 242L29 531V768L478 1057V887L147 650L478 411V242Z" />
<glyph unicode="&#xac;" horiz-adv-x="1000" d="M779 331V653H119V756H881V331H779Z" />
<glyph unicode="&#xae;" horiz-adv-x="1702" d="M850 53Q700 53 569 103T337 249T180 476T123 774Q123 936 180 1068T337 1297T568 1445T850 1497Q1000 1497 1132 1441T1364 1286T1522 1056T1579 774Q1579 624 1522 494T1365 264T1132 109T850 53ZM849 106Q988
106 1108 158T1320 303T1462 516T1513 773Q1513 909 1462 1030T1321 1245T1110 1391T850 1444Q712 1444 592 1395T382 1256T240 1043T189 773Q189 572 277 422T515 189T849 106ZM1084 379L906 775H676V381H578V1248H857Q1179 1248 1179 1017Q1179 843 1006 792L1192
379H1084ZM679 854H843Q906 854 959 863T1044 906T1076 1015Q1076 1086 1043 1119T957 1163T848 1173H679V854Z" />
<glyph unicode="&#xaf;" horiz-adv-x="724" d="M138 1247V1367H592V1247H138Z" />
<glyph unicode="&#xb0;" horiz-adv-x="483" d="M240 1024Q162 1024 106 1058T21 1147T-9 1267Q-9 1331 20 1386T106 1476T240 1510Q318 1510 374 1476T459 1387T489 1267Q489 1203 460 1148T374 1058T240 1024ZM240 1124Q305 1124 338 1168T372 1267Q372 1323
339 1366T240 1410Q176 1410 142 1367T108 1267Q108 1212 142 1168T240 1124Z" />
<glyph unicode="&#xb1;" horiz-adv-x="1000" d="M440 423V664H200V784H440V1023H562V784H801V664H562V423H440ZM199 233V335H801V233H199Z" />
<glyph unicode="&#xb2;" horiz-adv-x="743" d="M141 769V867Q251 962 330 1025T451 1139T493 1245Q493 1305 459 1337T374 1370Q321 1370 282 1339T228 1252L120 1306Q152 1397 225 1439T378 1481Q440 1481 496 1456T587 1378T623 1245Q623 1173 583 1118T473
1004T310 864H623V769H141Z" />
<glyph unicode="&#xb3;" horiz-adv-x="693" d="M334 744Q286 744 235 760T145 813T90 910L185 954Q206 893 248 872T338 850Q391 850 423 882T455 955Q455 1014 418 1050T278 1086V1190Q368 1192 399 1220T430 1294Q430 1334 401 1356T321 1379Q281 1379 245 1358T189
1297L104 1358Q127 1420 193 1450T320 1481Q427 1481 490 1430T553 1306Q553 1257 526 1211T433 1144Q500 1125 532 1091T573 1020T583 956Q583 867 519 806T334 744Z" />
<glyph unicode="&#xb4;" horiz-adv-x="496" d="M160 1150L47 1151L251 1470H484L160 1150Z" />
<glyph unicode="&#xb5;" horiz-adv-x="1109" d="M120 -272V1023H290V425Q290 318 309 245T376 134T511 97Q626 97 691 156T784 312T812 523V1023H982V0H812V154Q762 68 680 22T477 -24Q419 -24 373 -14T290 15V-272H120Z" />
<glyph unicode="&#xb6;" horiz-adv-x="1038" d="M436 0V799Q276 799 182 888T88 1125Q88 1192 108 1253T182 1361T335 1436T594 1464H990V1326H849V0H698V1326H587V0H436Z" />
<glyph unicode="&#xb7;" horiz-adv-x="434" d="M116 536V761H318V536H116Z" />
<glyph unicode="&#xb8;" horiz-adv-x="435" d="M162 -408Q89 -408 18 -373V-296Q75 -317 125 -317Q178 -317 211 -291T245 -207Q245 -179 236 -143T205 -63L175 0H275L325 -78Q351 -118 362 -155T374 -225Q374 -307 313 -357T162 -408Z" />
<glyph unicode="&#xb9;" horiz-adv-x="535" d="M260 769V1345L145 1287L120 1394L272 1464H395V769H260Z" />
<glyph unicode="&#xba;" horiz-adv-x="1000" d="M516 583Q344 583 238 695T131 1028Q131 1181 181 1280T319 1426T517 1474Q626 1474 712 1427T850 1281T901 1031Q901 808 795 696T516 583ZM517 701Q596 701 646 745T720 865T744 1029Q744 1119 720 1193T646 1313T516
1358Q437 1358 387 1313T313 1194T289 1031Q289 941 312 866T386 746T517 701Z" />
<glyph unicode="&#xbb;" horiz-adv-x="946" d="M488 242V411L819 650L488 887V1057L937 768V531L488 242ZM29 242V411L360 650L29 887V1057L478 768V531L29 242Z" />
<glyph unicode="&#xbc;" horiz-adv-x="1376" d="M1062 0V140H715V220L1023 693H1198V238H1300V140H1198V0H1062ZM852 238H1062V568L852 238ZM282 769V1345L167 1287L142 1394L294 1464H417V769H282ZM101 -14L8 65L1244 1494L1336 1415L101 -14Z" />
<glyph unicode="&#xbd;" horiz-adv-x="1376" d="M282 769V1345L167 1287L142 1394L294 1464H417V769H282ZM101 -14L8 65L1244 1494L1336 1415L101 -14ZM760 0V98Q870 193 949 256T1070 370T1112 476Q1112 536 1078 568T993 601Q940 601 901 570T847 483L739 537Q771
628 844 670T997 712Q1059 712 1115 687T1206 609T1242 476Q1242 404 1202 349T1092 235T929 95H1242V0H760Z" />
<glyph unicode="&#xbe;" horiz-adv-x="1383" d="M344 744Q296 744 245 760T155 813T100 910L195 954Q216 893 258 872T348 850Q401 850 433 882T465 955Q465 1014 428 1050T288 1086V1190Q378 1192 409 1220T440 1294Q440 1334 411 1356T331 1379Q291 1379 255
1358T199 1297L114 1358Q137 1420 203 1450T330 1481Q437 1481 500 1430T563 1306Q563 1257 536 1211T443 1144Q510 1125 542 1091T583 1020T593 956Q593 867 529 806T344 744ZM1095 0V140H748V220L1056 693H1231V238H1333V140H1231V0H1095ZM885 238H1095V568L885
238ZM108 -14L15 65L1251 1494L1343 1415L108 -14Z" />
<glyph unicode="&#xbf;" horiz-adv-x="1010" d="M471 791L625 790Q554 662 492 574T377 422T288 305T231 194T210 59Q210 -10 236 -69T323 -166T488 -203Q565 -203 622 -181T720 -126T786 -63T822 -15L941 -102Q882 -196 806 -248T646 -322T479 -343Q320 -343
222 -285T80 -135T35 54Q35 141 57 206T120 329T214 450T334 595T471 791ZM640 1148V925H445V1148H640Z" />
<glyph unicode="&#xc0;" horiz-adv-x="1263" d="M29 0L501 1464H757L1234 0H1052L923 391H327L204 0H29ZM367 521H882L626 1349L367 521ZM639 1595L315 1915H548L752 1596L639 1595Z" />
<glyph unicode="&#xc1;" horiz-adv-x="1263" d="M29 0L501 1464H757L1234 0H1052L923 391H327L204 0H29ZM367 521H882L626 1349L367 521ZM646 1591L533 1592L737 1911H970L646 1591Z" />
<glyph unicode="&#xc2;" horiz-adv-x="1263" d="M29 0L501 1464H757L1234 0H1052L923 391H327L204 0H29ZM367 521H882L626 1349L367 521ZM355 1595L528 1915H735L908 1595H793L631 1834L470 1595H355Z" />
<glyph unicode="&#xc3;" horiz-adv-x="1263" d="M29 0L501 1464H757L1234 0H1052L923 391H327L204 0H29ZM367 521H882L626 1349L367 521ZM800 1638Q749 1638 695 1659T590 1703T500 1725Q480 1725 468 1705T456 1640H347Q345 1654 344 1667T343 1692Q343 1754
361 1789T408 1838T462 1852Q498 1852 541 1839T627 1808T705 1777T762 1763Q784 1763 791 1785T798 1851H909Q910 1840 910 1830T910 1809Q910 1747 896 1710T857 1655T800 1638Z" />
<glyph unicode="&#xc4;" horiz-adv-x="1263" d="M29 0L501 1464H757L1234 0H1052L923 391H327L204 0H29ZM367 521H882L626 1349L367 521ZM738 1621V1819H932V1621H738ZM331 1621V1819H525V1621H331Z" />
<glyph unicode="&#xc5;" horiz-adv-x="1263" d="M29 0L501 1464H757L1234 0H1052L923 391H327L204 0H29ZM367 521H882L626 1349L367 521ZM632 1634Q554 1634 499 1668T413 1758T383 1877Q383 1941 413 1996T498 2086T632 2120Q710 2120 766 2086T851 1997T881
1877Q881 1814 852 1759T766 1669T632 1634ZM632 1735Q697 1735 730 1778T764 1877Q764 1933 731 1976T632 2020Q568 2020 534 1977T500 1877Q500 1822 534 1779T632 1735Z" />
<glyph unicode="&#xc6;" horiz-adv-x="2030" d="M-40 0L849 1464H2005V1330H1148V850H1843L1842 712H1148V134H2015V0H974V387H387L152 0H-40ZM459 518H974V1395L459 518Z" />
<glyph unicode="&#xc7;" horiz-adv-x="1394" d="M755 -24Q556 -24 413 55T193 302T116 735Q116 1001 192 1167T412 1412T755 1490Q884 1490 993 1450T1181 1324T1300 1105L1138 1067Q1113 1150 1065 1214T940 1314T748 1350Q582 1350 484 1279T344 1071T301 735Q301
537 343 399T484 188T748 116Q862 116 939 152T1065 252T1138 398L1300 361Q1260 227 1181 142T993 17T755 -24ZM663 -408Q590 -408 519 -373V-296Q576 -317 626 -317Q679 -317 712 -291T746 -207Q746 -179 737 -143T706 -63L676 0H776L826 -78Q852 -118 863 -155T875
-225Q875 -307 814 -357T663 -408Z" />
<glyph unicode="&#xc8;" horiz-adv-x="1216" d="M146 0V1464H1132V1331H321V848H1027V711H321V133H1143V0H146ZM655 1595L331 1915H564L768 1596L655 1595Z" />
<glyph unicode="&#xc9;" horiz-adv-x="1216" d="M146 0V1464H1132V1331H321V848H1027V711H321V133H1143V0H146ZM662 1591L549 1592L753 1911H986L662 1591Z" />
<glyph unicode="&#xca;" horiz-adv-x="1216" d="M146 0V1464H1132V1331H321V848H1027V711H321V133H1143V0H146ZM371 1595L544 1915H751L924 1595H809L647 1834L486 1595H371Z" />
<glyph unicode="&#xcb;" horiz-adv-x="1216" d="M146 0V1464H1132V1331H321V848H1027V711H321V133H1143V0H146ZM754 1621V1819H948V1621H754ZM347 1621V1819H541V1621H347Z" />
<glyph unicode="&#xcc;" horiz-adv-x="464" d="M148 0V1464H323V0H148ZM239 1595L-85 1915H148L352 1596L239 1595Z" />
<glyph unicode="&#xcd;" horiz-adv-x="464" d="M148 0V1464H323V0H148ZM246 1591L133 1592L337 1911H570L246 1591Z" />
<glyph unicode="&#xce;" horiz-adv-x="464" d="M148 0V1464H323V0H148ZM-45 1595L128 1915H335L508 1595H393L231 1834L70 1595H-45Z" />
<glyph unicode="&#xcf;" horiz-adv-x="464" d="M148 0V1464H323V0H148ZM338 1621V1819H532V1621H338ZM-69 1621V1819H125V1621H-69Z" />
<glyph unicode="&#xd0;" horiz-adv-x="1444" d="M0 694V796H558V694H0ZM146 0V1464H667Q879 1464 1023 1396T1240 1168T1313 738Q1313 473 1245 311T1033 74T663 0H146ZM321 134H609Q808 134 923 191T1087 381T1136 737Q1136 933 1096 1065T954 1263T667 1330H321V134Z" />
<glyph unicode="&#xd1;" horiz-adv-x="1498" d="M146 0V1464H340L1199 267V1464H1352V0H1197L304 1256V0H146ZM917 1638Q866 1638 812 1659T707 1703T617 1725Q597 1725 585 1705T573 1640H464Q462 1654 461 1667T460 1692Q460 1754 478 1789T525 1838T579 1852Q615
1852 658 1839T744 1808T822 1777T879 1763Q901 1763 908 1785T915 1851H1026Q1027 1840 1027 1830T1027 1809Q1027 1747 1013 1710T974 1655T917 1638Z" />
<glyph unicode="&#xd2;" horiz-adv-x="1486" d="M740 -24Q547 -24 407 51T192 293T116 740Q116 1013 192 1177T409 1415T741 1488Q933 1488 1074 1415T1292 1177T1369 741Q1369 465 1294 297T1079 53T740 -24ZM742 115Q908 115 1004 182T1142 387T1184 740Q1184
929 1145 1065T1010 1274T741 1348Q570 1348 475 1275T341 1065T302 741Q302 529 343 390T481 183T742 115ZM750 1595L426 1915H659L863 1596L750 1595Z" />
<glyph unicode="&#xd3;" horiz-adv-x="1486" d="M740 -24Q547 -24 407 51T192 293T116 740Q116 1013 192 1177T409 1415T741 1488Q933 1488 1074 1415T1292 1177T1369 741Q1369 465 1294 297T1079 53T740 -24ZM742 115Q908 115 1004 182T1142 387T1184 740Q1184
929 1145 1065T1010 1274T741 1348Q570 1348 475 1275T341 1065T302 741Q302 529 343 390T481 183T742 115ZM757 1591L644 1592L848 1911H1081L757 1591Z" />
<glyph unicode="&#xd4;" horiz-adv-x="1486" d="M740 -24Q547 -24 407 51T192 293T116 740Q116 1013 192 1177T409 1415T741 1488Q933 1488 1074 1415T1292 1177T1369 741Q1369 465 1294 297T1079 53T740 -24ZM742 115Q908 115 1004 182T1142 387T1184 740Q1184
929 1145 1065T1010 1274T741 1348Q570 1348 475 1275T341 1065T302 741Q302 529 343 390T481 183T742 115ZM466 1595L639 1915H846L1019 1595H904L742 1834L581 1595H466Z" />
<glyph unicode="&#xd5;" horiz-adv-x="1486" d="M740 -24Q547 -24 407 51T192 293T116 740Q116 1013 192 1177T409 1415T741 1488Q933 1488 1074 1415T1292 1177T1369 741Q1369 465 1294 297T1079 53T740 -24ZM742 115Q908 115 1004 182T1142 387T1184 740Q1184
929 1145 1065T1010 1274T741 1348Q570 1348 475 1275T341 1065T302 741Q302 529 343 390T481 183T742 115ZM911 1638Q860 1638 806 1659T701 1703T611 1725Q591 1725 579 1705T567 1640H458Q456 1654 455 1667T454 1692Q454 1754 472 1789T519 1838T573 1852Q609
1852 652 1839T738 1808T816 1777T873 1763Q895 1763 902 1785T909 1851H1020Q1021 1840 1021 1830T1021 1809Q1021 1747 1007 1710T968 1655T911 1638Z" />
<glyph unicode="&#xd6;" horiz-adv-x="1486" d="M740 -24Q547 -24 407 51T192 293T116 740Q116 1013 192 1177T409 1415T741 1488Q933 1488 1074 1415T1292 1177T1369 741Q1369 465 1294 297T1079 53T740 -24ZM742 115Q908 115 1004 182T1142 387T1184 740Q1184
929 1145 1065T1010 1274T741 1348Q570 1348 475 1275T341 1065T302 741Q302 529 343 390T481 183T742 115ZM849 1621V1819H1043V1621H849ZM442 1621V1819H636V1621H442Z" />
<glyph unicode="&#xd7;" horiz-adv-x="1000" d="M336 188L234 290L398 454L234 618L336 720L500 556L664 720L766 618L602 454L766 290L664 188L500 352L336 188Z" />
<glyph unicode="&#xd8;" horiz-adv-x="1497" d="M337 -208L235 -155L1126 1663L1227 1610L337 -208ZM740 -24Q547 -24 407 51T192 293T116 740Q116 1013 192 1177T409 1415T741 1488Q933 1488 1074 1415T1292 1177T1369 741Q1369 465 1294 297T1079 53T740 -24ZM742
115Q908 115 1004 182T1142 387T1184 740Q1184 929 1145 1065T1010 1274T741 1348Q570 1348 475 1275T341 1065T302 741Q302 529 343 390T481 183T742 115Z" />
<glyph unicode="&#xd9;" horiz-adv-x="1364" d="M678 -24Q404 -24 262 116T120 572V1464H296V584Q296 436 327 331T443 171T684 115Q840 115 923 171T1038 332T1069 584V1464H1244V579Q1244 264 1104 120T678 -24ZM689 1595L365 1915H598L802 1596L689 1595Z" />
<glyph unicode="&#xda;" horiz-adv-x="1364" d="M678 -24Q404 -24 262 116T120 572V1464H296V584Q296 436 327 331T443 171T684 115Q840 115 923 171T1038 332T1069 584V1464H1244V579Q1244 264 1104 120T678 -24ZM696 1591L583 1592L787 1911H1020L696 1591Z" />
<glyph unicode="&#xdb;" horiz-adv-x="1364" d="M678 -24Q404 -24 262 116T120 572V1464H296V584Q296 436 327 331T443 171T684 115Q840 115 923 171T1038 332T1069 584V1464H1244V579Q1244 264 1104 120T678 -24ZM405 1595L578 1915H785L958 1595H843L681 1834L520
1595H405Z" />
<glyph unicode="&#xdc;" horiz-adv-x="1364" d="M678 -24Q404 -24 262 116T120 572V1464H296V584Q296 436 327 331T443 171T684 115Q840 115 923 171T1038 332T1069 584V1464H1244V579Q1244 264 1104 120T678 -24ZM788 1621V1819H982V1621H788ZM381 1621V1819H575V1621H381Z"
/>
<glyph unicode="&#xdd;" horiz-adv-x="1184" d="M506 0V549L-3 1464H186L595 707L999 1464H1186L680 548V0H506ZM606 1591L493 1592L697 1911H930L606 1591Z" />
<glyph unicode="&#xde;" horiz-adv-x="1261" d="M140 0V1464H328V1198H567Q803 1198 944 1153T1148 1014T1211 776Q1211 611 1143 515T920 377T508 335H328V0H140ZM328 471H564Q730 472 833 497T985 587T1033 771Q1033 884 984 947T828 1035T544 1061H328V471Z" />
<glyph unicode="&#xdf;" horiz-adv-x="1199" d="M119 0V1151Q119 1261 183 1337T348 1452T562 1492Q696 1492 781 1454T907 1349T948 1201Q948 1122 914 1067T830 973T729 908T645 861T611 822Q611 792 648 766T743 713T867 653T990 577T1086 475T1123 337Q1123
253 1099 190T1008 85T814 21T481 0H441V141Q587 141 685 152T840 188T921 250T946 339Q946 395 910 436T815 510T692 573T569 636T474 713T437 814Q437 875 472 913T559 980T663 1036T750 1104T785 1209Q785 1282 732 1324T565 1368Q492 1368 431 1341T333 1263T295
1138V0H119Z" />
<glyph unicode="&#xe0;" horiz-adv-x="1002" d="M394 -25Q310 -25 241 3T131 88T90 235Q90 331 125 390T228 484T391 539T604 577L717 594V645Q717 751 700 811T637 898T505 924Q411 924 335 897T187 818Q187 818 177 833T153 869T130 904T119 919Q202 981 294
1013T513 1045Q695 1045 791 956T887 676V0H741L726 128Q672 53 588 14T394 -25ZM421 95Q512 95 584 133T717 243V486L587 464Q448 441 375 416T275 353T248 253Q248 173 287 134T421 95ZM508 1154L184 1474H417L621 1155L508 1154Z" />
<glyph unicode="&#xe1;" horiz-adv-x="1002" d="M394 -25Q310 -25 241 3T131 88T90 235Q90 331 125 390T228 484T391 539T604 577L717 594V645Q717 751 700 811T637 898T505 924Q411 924 335 897T187 818Q187 818 177 833T153 869T130 904T119 919Q202 981 294
1013T513 1045Q695 1045 791 956T887 676V0H741L726 128Q672 53 588 14T394 -25ZM421 95Q512 95 584 133T717 243V486L587 464Q448 441 375 416T275 353T248 253Q248 173 287 134T421 95ZM515 1150L402 1151L606 1470H839L515 1150Z" />
<glyph unicode="&#xe2;" horiz-adv-x="1002" d="M394 -25Q310 -25 241 3T131 88T90 235Q90 331 125 390T228 484T391 539T604 577L717 594V645Q717 751 700 811T637 898T505 924Q411 924 335 897T187 818Q187 818 177 833T153 869T130 904T119 919Q202 981 294
1013T513 1045Q695 1045 791 956T887 676V0H741L726 128Q672 53 588 14T394 -25ZM421 95Q512 95 584 133T717 243V486L587 464Q448 441 375 416T275 353T248 253Q248 173 287 134T421 95ZM224 1154L397 1474H604L777 1154H662L500 1393L339 1154H224Z" />
<glyph unicode="&#xe3;" horiz-adv-x="1002" d="M394 -25Q310 -25 241 3T131 88T90 235Q90 331 125 390T228 484T391 539T604 577L717 594V645Q717 751 700 811T637 898T505 924Q411 924 335 897T187 818Q187 818 177 833T153 869T130 904T119 919Q202 981 294
1013T513 1045Q695 1045 791 956T887 676V0H741L726 128Q672 53 588 14T394 -25ZM421 95Q512 95 584 133T717 243V486L587 464Q448 441 375 416T275 353T248 253Q248 173 287 134T421 95ZM669 1197Q618 1197 564 1218T459 1262T369 1284Q349 1284 337 1264T325
1199H216Q214 1213 213 1226T212 1251Q212 1313 230 1348T277 1397T331 1411Q367 1411 410 1398T496 1367T574 1336T631 1322Q653 1322 660 1344T667 1410H778Q779 1399 779 1389T779 1368Q779 1306 765 1269T726 1214T669 1197Z" />
<glyph unicode="&#xe4;" horiz-adv-x="1002" d="M394 -25Q310 -25 241 3T131 88T90 235Q90 331 125 390T228 484T391 539T604 577L717 594V645Q717 751 700 811T637 898T505 924Q411 924 335 897T187 818Q187 818 177 833T153 869T130 904T119 919Q202 981 294
1013T513 1045Q695 1045 791 956T887 676V0H741L726 128Q672 53 588 14T394 -25ZM421 95Q512 95 584 133T717 243V486L587 464Q448 441 375 416T275 353T248 253Q248 173 287 134T421 95ZM607 1180V1378H801V1180H607ZM200 1180V1378H394V1180H200Z" />
<glyph unicode="&#xe5;" horiz-adv-x="1002" d="M394 -25Q310 -25 241 3T131 88T90 235Q90 331 125 390T228 484T391 539T604 577L717 594V645Q717 751 700 811T637 898T505 924Q411 924 335 897T187 818Q187 818 177 833T153 869T130 904T119 919Q202 981 294
1013T513 1045Q695 1045 791 956T887 676V0H741L726 128Q672 53 588 14T394 -25ZM421 95Q512 95 584 133T717 243V486L587 464Q448 441 375 416T275 353T248 253Q248 173 287 134T421 95ZM501 1193Q423 1193 368 1227T282 1317T252 1436Q252 1500 282 1555T367
1645T501 1679Q579 1679 635 1645T720 1556T750 1436Q750 1373 721 1318T635 1228T501 1193ZM501 1294Q566 1294 599 1337T633 1436Q633 1492 600 1535T501 1579Q437 1579 403 1536T369 1436Q369 1381 403 1338T501 1294Z" />
<glyph unicode="&#xe6;" horiz-adv-x="1667" d="M429 -24Q333 -24 254 6T127 102T79 273Q79 390 138 459T309 558T578 592L744 594Q742 713 724 785T653 890T497 922Q402 922 330 893T197 824L131 929Q217 988 310 1016T518 1045Q595 1045 661 1025T776 958T848
831Q898 941 991 993T1192 1045Q1335 1045 1422 984T1550 815T1591 572Q1591 565 1591 539T1588 499L913 487Q917 368 945 282T1034 148T1195 100Q1277 100 1329 132T1410 207T1453 283L1570 234Q1529 121 1430 49T1195 -24Q1120 -24 1047 -1T917 71T829 203Q775
79 673 28T429 -24ZM455 100Q587 100 665 167T744 396V475L590 472Q485 470 409 452T292 392T250 276Q250 184 303 142T455 100ZM915 600L1441 610Q1433 763 1377 842T1192 922Q1107 922 1047 881T953 766T915 600Z" />
<glyph unicode="&#xe7;" horiz-adv-x="999" d="M538 -24Q391 -24 293 44T146 234T96 510Q96 664 145 785T292 975T538 1045Q624 1045 704 1017T845 921T935 730L795 695Q764 813 702 868T543 924Q449 924 389 875T299 733T269 513Q269 383 299 290T390 148T543
98Q641 98 705 154T799 328L934 287Q907 169 848 101T708 5T538 -24ZM466 -408Q393 -408 322 -373V-296Q379 -317 429 -317Q482 -317 515 -291T549 -207Q549 -179 540 -143T509 -63L479 0H579L629 -78Q655 -118 666 -155T678 -225Q678 -307 617 -357T466 -408Z"
/>
<glyph unicode="&#xe8;" horiz-adv-x="1027" d="M551 -24Q392 -24 292 50T144 246T96 512Q96 672 148 792T300 978T542 1045Q685 1045 775 982T909 810T953 564Q953 560 953 545T952 513T950 487H266Q267 385 295 297T386 153T548 98Q652 98 715 152T804 285L931
256Q908 167 852 105T717 10T551 -24ZM266 599H794Q793 753 735 838T539 924Q470 924 420 896T338 821T288 717T266 599ZM541 1154L217 1474H450L654 1155L541 1154Z" />
<glyph unicode="&#xe9;" horiz-adv-x="1027" d="M551 -24Q392 -24 292 50T144 246T96 512Q96 672 148 792T300 978T542 1045Q685 1045 775 982T909 810T953 564Q953 560 953 545T952 513T950 487H266Q267 385 295 297T386 153T548 98Q652 98 715 152T804 285L931
256Q908 167 852 105T717 10T551 -24ZM266 599H794Q793 753 735 838T539 924Q470 924 420 896T338 821T288 717T266 599ZM548 1150L435 1151L639 1470H872L548 1150Z" />
<glyph unicode="&#xea;" horiz-adv-x="1027" d="M551 -24Q392 -24 292 50T144 246T96 512Q96 672 148 792T300 978T542 1045Q685 1045 775 982T909 810T953 564Q953 560 953 545T952 513T950 487H266Q267 385 295 297T386 153T548 98Q652 98 715 152T804 285L931
256Q908 167 852 105T717 10T551 -24ZM266 599H794Q793 753 735 838T539 924Q470 924 420 896T338 821T288 717T266 599ZM257 1154L430 1474H637L810 1154H695L533 1393L372 1154H257Z" />
<glyph unicode="&#xeb;" horiz-adv-x="1027" d="M551 -24Q392 -24 292 50T144 246T96 512Q96 672 148 792T300 978T542 1045Q685 1045 775 982T909 810T953 564Q953 560 953 545T952 513T950 487H266Q267 385 295 297T386 153T548 98Q652 98 715 152T804 285L931
256Q908 167 852 105T717 10T551 -24ZM266 599H794Q793 753 735 838T539 924Q470 924 420 896T338 821T288 717T266 599ZM640 1180V1378H834V1180H640ZM233 1180V1378H427V1180H233Z" />
<glyph unicode="&#xec;" horiz-adv-x="429" d="M139 0V1023H309V0H139ZM222 1154L-102 1474H131L335 1155L222 1154Z" />
<glyph unicode="&#xed;" horiz-adv-x="429" d="M139 0V1023H309V0H139ZM229 1150L116 1151L320 1470H553L229 1150Z" />
<glyph unicode="&#xee;" horiz-adv-x="429" d="M139 0V1023H309V0H139ZM-62 1154L111 1474H318L491 1154H376L214 1393L53 1154H-62Z" />
<glyph unicode="&#xef;" horiz-adv-x="429" d="M139 0V1023H309V0H139ZM321 1180V1378H515V1180H321ZM-86 1180V1378H108V1180H-86Z" />
<glyph unicode="&#xf0;" horiz-adv-x="1053" d="M520 -24Q373 -24 276 44T131 221T82 454Q82 601 143 702T301 855T507 908Q590 908 665 875T796 773Q785 862 745 960T627 1140L441 1018L378 1107L541 1213Q471 1262 380 1291T169 1320V1432Q327 1432 449 1394T660
1291L864 1424L927 1335L745 1216Q830 1127 879 1014T950 777T972 529Q972 371 926 246T780 49T520 -24ZM529 106Q628 106 690 159T780 305T809 511Q809 523 809 546T807 592T802 628Q733 703 667 739T523 776Q410 776 331 688T252 442Q252 282 331 194T529 106Z"
/>
<glyph unicode="&#xf1;" horiz-adv-x="1107" d="M126 0V1023H296V868Q348 955 433 1000T637 1045Q757 1045 827 1003T932 893T977 745T987 588V0H817V602Q817 757 774 841T607 925Q522 925 464 894T369 808T316 683T296 535V0H126ZM772 1197Q721 1197 667 1218T562
1262T472 1284Q452 1284 440 1264T428 1199H319Q317 1213 316 1226T315 1251Q315 1313 333 1348T380 1397T434 1411Q470 1411 513 1398T599 1367T677 1336T734 1322Q756 1322 763 1344T770 1410H881Q882 1399 882 1389T882 1368Q882 1306 868 1269T829 1214T772
1197Z" />
<glyph unicode="&#xf2;" horiz-adv-x="1090" d="M545 -24Q340 -24 218 111T95 511Q95 774 217 909T545 1045Q750 1045 872 910T994 511Q994 247 872 112T545 -24ZM545 97Q657 97 716 158T798 314T821 511Q821 612 799 707T717 863T545 925Q434 925 374 864T292
707T269 511Q269 410 291 315T374 158T545 97ZM552 1154L228 1474H461L665 1155L552 1154Z" />
<glyph unicode="&#xf3;" horiz-adv-x="1090" d="M545 -24Q340 -24 218 111T95 511Q95 774 217 909T545 1045Q750 1045 872 910T994 511Q994 247 872 112T545 -24ZM545 97Q657 97 716 158T798 314T821 511Q821 612 799 707T717 863T545 925Q434 925 374 864T292
707T269 511Q269 410 291 315T374 158T545 97ZM559 1150L446 1151L650 1470H883L559 1150Z" />
<glyph unicode="&#xf4;" horiz-adv-x="1090" d="M545 -24Q340 -24 218 111T95 511Q95 774 217 909T545 1045Q750 1045 872 910T994 511Q994 247 872 112T545 -24ZM545 97Q657 97 716 158T798 314T821 511Q821 612 799 707T717 863T545 925Q434 925 374 864T292
707T269 511Q269 410 291 315T374 158T545 97ZM268 1154L441 1474H648L821 1154H706L544 1393L383 1154H268Z" />
<glyph unicode="&#xf5;" horiz-adv-x="1090" d="M545 -24Q340 -24 218 111T95 511Q95 774 217 909T545 1045Q750 1045 872 910T994 511Q994 247 872 112T545 -24ZM545 97Q657 97 716 158T798 314T821 511Q821 612 799 707T717 863T545 925Q434 925 374 864T292
707T269 511Q269 410 291 315T374 158T545 97ZM713 1197Q662 1197 608 1218T503 1262T413 1284Q393 1284 381 1264T369 1199H260Q258 1213 257 1226T256 1251Q256 1313 274 1348T321 1397T375 1411Q411 1411 454 1398T540 1367T618 1336T675 1322Q697 1322 704
1344T711 1410H822Q823 1399 823 1389T823 1368Q823 1306 809 1269T770 1214T713 1197Z" />
<glyph unicode="&#xf6;" horiz-adv-x="1090" d="M545 -24Q340 -24 218 111T95 511Q95 774 217 909T545 1045Q750 1045 872 910T994 511Q994 247 872 112T545 -24ZM545 97Q657 97 716 158T798 314T821 511Q821 612 799 707T717 863T545 925Q434 925 374 864T292
707T269 511Q269 410 291 315T374 158T545 97ZM651 1180V1378H845V1180H651ZM244 1180V1378H438V1180H244Z" />
<glyph unicode="&#xf7;" horiz-adv-x="1000" d="M125 541V657H875V541H125ZM397 171V389H605V171H397ZM397 804V1024H605V804H397Z" />
<glyph unicode="&#xf8;" horiz-adv-x="1104" d="M269 -198L181 -153L834 1222L920 1177L269 -198ZM545 -24Q340 -24 218 111T95 511Q95 774 217 909T545 1045Q750 1045 872 910T994 511Q994 247 872 112T545 -24ZM545 97Q657 97 716 158T798 314T821 511Q821 612
799 707T717 863T545 925Q434 925 374 864T292 707T269 511Q269 410 291 315T374 158T545 97Z" />
<glyph unicode="&#xf9;" horiz-adv-x="1109" d="M477 -24Q352 -24 280 19T174 134T130 287T120 448V1023H290V425Q290 318 309 245T376 134T511 97Q626 97 691 156T784 312T812 523V1023H982V0H812V154Q762 68 680 22T477 -24ZM562 1154L238 1474H471L675 1155L562 1154Z" />
<glyph unicode="&#xfa;" horiz-adv-x="1109" d="M477 -24Q352 -24 280 19T174 134T130 287T120 448V1023H290V425Q290 318 309 245T376 134T511 97Q626 97 691 156T784 312T812 523V1023H982V0H812V154Q762 68 680 22T477 -24ZM569 1150L456 1151L660 1470H893L569 1150Z" />
<glyph unicode="&#xfb;" horiz-adv-x="1109" d="M477 -24Q352 -24 280 19T174 134T130 287T120 448V1023H290V425Q290 318 309 245T376 134T511 97Q626 97 691 156T784 312T812 523V1023H982V0H812V154Q762 68 680 22T477 -24ZM278 1154L451 1474H658L831 1154H716L554
1393L393 1154H278Z" />
<glyph unicode="&#xfc;" horiz-adv-x="1109" d="M477 -24Q352 -24 280 19T174 134T130 287T120 448V1023H290V425Q290 318 309 245T376 134T511 97Q626 97 691 156T784 312T812 523V1023H982V0H812V154Q762 68 680 22T477 -24ZM661 1180V1378H855V1180H661ZM254
1180V1378H448V1180H254Z" />
<glyph unicode="&#xfd;" horiz-adv-x="980" d="M185 -319Q155 -319 127 -316T67 -304L86 -166Q108 -169 127 -171T163 -173Q221 -173 261 -156T332 -92T391 40L409 92L36 1023H211L495 268L778 1023H946L581 85Q528 -52 477 -141T358 -275T185 -319ZM504 1150L391
1151L595 1470H828L504 1150Z" />
<glyph unicode="&#xfe;" horiz-adv-x="1058" d="M111 -394V1464H280V873Q321 953 395 999T576 1045Q716 1045 806 977T941 791T986 520Q986 369 937 246T797 49T580 -24Q467 -24 395 22T281 142V-376L111 -394ZM564 98Q647 98 701 150T783 297T811 521Q811 729
738 826T555 923Q481 923 419 883T319 754T281 522Q281 396 312 301T405 152T564 98Z" />
<glyph unicode="&#xff;" horiz-adv-x="980" d="M185 -319Q155 -319 127 -316T67 -304L86 -166Q108 -169 127 -171T163 -173Q221 -173 261 -156T332 -92T391 40L409 92L36 1023H211L495 268L778 1023H946L581 85Q528 -52 477 -141T358 -275T185 -319ZM596 1180V1378H790V1180H596ZM189
1180V1378H383V1180H189Z" />
<glyph unicode="&#x2013;" horiz-adv-x="1024" d="M135 318V420H889V318H135Z" />
<glyph unicode="&#x2014;" horiz-adv-x="2048" d="M135 318V420H1913V318H135Z" />
<glyph unicode="&#x2018;" horiz-adv-x="330" d="M26 992V1103Q26 1174 31 1239T62 1363T145 1469Q145 1469 164 1459T202 1438T222 1427Q194 1379 177 1347T152 1282T144 1200L238 1187V992H26Z" />
<glyph unicode="&#x2019;" horiz-adv-x="330" d="M160 991L105 1060Q124 1077 153 1130T184 1274Q184 1274 162 1278T117 1287T94 1292V1464H306Q304 1374 303 1287T272 1124T160 991Z" />
<glyph unicode="&#x201a;" horiz-adv-x="436" d="M177 -382L116 -319Q135 -302 164 -246T195 -99Q195 -99 177 -95T141 -86T122 -81V93H338Q336 3 329 -84T290 -248T177 -382Z" />
<glyph unicode="&#x201c;" horiz-adv-x="630" d="M336 995V1084Q339 1163 344 1234T377 1365T471 1473L526 1410Q507 1393 477 1341T445 1196L548 1183V995H336ZM24 995V1084Q24 1162 31 1233T68 1365T165 1473L220 1410Q201 1393 171 1341T139 1197L236 1183V995H24Z" />
<glyph unicode="&#x201d;" horiz-adv-x="631" d="M148 991L86 1054Q106 1071 135 1127T166 1274Q166 1274 144 1278T99 1287T76 1292V1464H289Q287 1374 286 1287T256 1124T148 991ZM453 991L396 1054Q415 1070 444 1126T476 1273L395 1292V1464H607Q605 1375
600 1288T564 1124T453 991Z" />
<glyph unicode="&#x201e;" horiz-adv-x="744" d="M491 -382L430 -319Q449 -302 478 -246T509 -99Q509 -99 491 -95T453 -86T434 -81V93H652Q650 3 644 -84T604 -248T491 -382ZM159 -382L98 -319Q117 -302 146 -246T177 -99Q177 -99 158 -95T121 -86T102 -81V93H320Q318
3 311 -84T272 -248T159 -382Z" />
<glyph unicode="&#x2022;" horiz-adv-x="1115" d="M558 212Q441 212 353 262T217 404T168 618Q168 740 217 831T354 974T560 1025Q676 1025 763 974T898 832T947 618Q947 435 841 324T558 212Z" />
<glyph unicode="&#x2039;" horiz-adv-x="528" d="M460 243L48 532V769L460 1058V888L166 650L460 412V243Z" />
<glyph unicode="&#x203a;" horiz-adv-x="528" d="M46 243V412L340 650L46 888V1058L458 769V532L46 243Z" />
</font>
</defs>
</svg>
