<?xml version="1.0" standalone="no"?>
<!DOCTYPE svg PUBLIC "-//W3C//DTD SVG 1.1//EN" "http://www.w3.org/Graphics/SVG/1.1/DTD/svg11.dtd">
<svg xmlns="http://www.w3.org/2000/svg">
<defs >
<font id="PoltawskiNowy" horiz-adv-x="516" ><font-face
    font-family="Poltawski Nowy"
    units-per-em="1000"
    panose-1="0 0 0 0 0 0 0 0 0 0"
    ascent="1000"
    descent="-300"
    alphabetic="0" />
<glyph unicode=" " horiz-adv-x="220" />
<glyph unicode="!" horiz-adv-x="272" d="M136 715L193 679V610L154 171Q136 168 118 171L79 610V679L136 715ZM136 110L191 80V15L136 -15L81 15V80L136 110Z" />
<glyph unicode="&quot;" horiz-adv-x="337" d="M50 707L98 737L147 707V652Q139 625 133 598T121 543T113 487Q98 484 83 487Q80 515 76 542T65 597T50 652V707ZM190 707L238 737L287 707V652Q279 625 273 598T261 543T253 487Q238 484 223 487Q220 515 216 542T205
597T190 652V707Z" />
<glyph unicode="#" horiz-adv-x="690" d="M307 700L183 0Q156 -3 128 0L252 700Q280 703 307 700ZM562 700L438 0Q411 -3 383 0L507 700Q535 703 562 700ZM650 509Q652 500 652 485T650 459H78Q77 469 77 484T78 509H650ZM611 261Q613 252 613 237T611 211H39Q38
221 38 236T39 261H611Z" />
<glyph unicode="$" horiz-adv-x="580" d="M207 -125L305 810Q316 810 327 809T350 805L252 -130Q241 -130 230 -129T207 -125ZM259 -14Q207 -14 154 -1T54 35V215Q70 218 86 215Q91 161 117 119T185 51T280 26Q352 26 395 60T439 156Q439 194 419 219T366 261T293
293T214 325T141 366T87 427T67 519Q67 581 94 624T174 691T298 714Q362 714 406 701T483 667V510Q467 507 451 510Q444 581 402 627T290 674Q227 674 190 646T152 567Q152 526 172 500T227 455T302 421T383 389T458 347T513 285T534 192Q534 131 500 85T404 12T259
-14Z" />
<glyph unicode="%" horiz-adv-x="781" d="M669 700L185 0Q156 -3 127 0L611 700Q640 703 669 700ZM351 532Q351 448 310 399T193 350Q117 350 76 398T34 532Q34 617 75 666T193 715Q269 715 310 666T351 532ZM265 532Q265 614 248 648T193 683Q156 683 138 648T120
532Q120 451 138 417T193 382Q230 382 247 416T265 532ZM746 165Q746 81 705 32T588 -17Q512 -17 471 31T429 165Q429 250 470 299T588 348Q664 348 705 299T746 165ZM660 165Q660 247 643 281T588 316Q551 316 533 281T515 165Q515 84 533 50T588 15Q625 15 642
49T660 165Z" />
<glyph unicode="&amp;" horiz-adv-x="727" d="M685 -2Q618 -12 578 -9T509 15T449 77L235 353Q202 396 183 427T155 487T146 552Q146 593 166 630T229 692T334 716Q414 716 459 678T505 571Q505 532 486 499T426 437T324 385L305 414Q367 446 388 488T410 572Q410
619 390 647T332 676Q295 676 270 649T246 568Q247 527 271 487T333 398L518 160Q553 115 577 90T620 53T653 38T685 35Q689 17 685 -2ZM287 -14Q224 -14 171 5T85 65T52 166Q52 217 74 259T141 334T251 394L269 369Q204 335 184 293T162 203Q161 121 207 79T326
36Q399 36 457 71T549 165T583 293Q583 321 573 349T541 405H494Q490 424 494 442Q526 441 554 441T599 440Q621 440 646 440T696 442Q700 424 696 405H636Q630 377 629 351T628 293Q628 235 604 180T534 82T427 12T287 -14Z" />
<glyph unicode="&apos;" horiz-adv-x="197" d="M50 707L98 737L147 707V652Q139 625 133 598T121 543T113 487Q98 484 83 487Q80 515 76 542T65 597T50 652V707Z" />
<glyph unicode="(" horiz-adv-x="348" d="M341 785Q266 729 223 660T161 506T142 320Q142 218 160 134T222 -19T341 -145Q337 -153 332 -160T322 -175Q193 -103 120 18T47 320Q47 499 120 621T322 815Q327 808 332 801T341 785Z" />
<glyph unicode=")" horiz-adv-x="348" d="M7 -145Q82 -88 125 -19T187 134T206 320Q206 423 188 507T126 660T7 785Q11 793 16 800T26 815Q155 743 228 622T301 320Q301 142 228 20T26 -175Q21 -168 16 -161T7 -145Z" />
<glyph unicode="*" horiz-adv-x="518" d="M477 647L462 599L264 568L258 585L438 676L477 647ZM41 647L81 676L260 585L255 568L56 599L41 647ZM259 803L299 774L267 575H250L218 774L259 803ZM393 392H344L252 571L266 582L409 439L393 392ZM125 393L109 440L252
582L266 572L174 392L125 393Z" />
<glyph unicode="+" horiz-adv-x="620" d="M550 340H70Q66 365 70 390H550Q554 365 550 340ZM285 125V605Q310 609 335 605V125Q310 121 285 125Z" />
<glyph unicode="," horiz-adv-x="230" d="M115 110L170 80V45Q170 12 159 -19T128 -78T78 -131Q69 -126 63 -120T52 -105Q77 -82 91 -59T111 -11L60 15V80L115 110Z" />
<glyph unicode="-" horiz-adv-x="418" d="M349 235H69Q68 244 68 254T67 276T69 295H349Q351 287 351 276T352 255T349 235Z" />
<glyph unicode="." horiz-adv-x="224" d="M112 110L167 80V15L112 -15L57 15V80L112 110Z" />
<glyph unicode="/" horiz-adv-x="362" d="M328 730L84 -120Q59 -123 34 -120L278 730Q303 733 328 730Z" />
<glyph unicode="0" horiz-adv-x="620" d="M560 350Q560 230 529 149T441 27T310 -15Q235 -15 179 26T92 149T60 350Q60 470 91 551T179 673T310 715Q385 715 441 674T528 551T560 350ZM445 350Q445 517 412 596T310 675Q242 675 209 596T175 350Q175 183 208 104T310
25Q378 25 411 104T445 350Z" />
<glyph unicode="1" horiz-adv-x="397" d="M154 350V510Q154 532 153 554T150 600H45Q41 619 45 637Q83 637 120 649T190 683T248 731Q254 729 262 725T275 717Q268 669 266 621T264 540V350H154ZM209 0Q175 0 139 0T52 -2Q48 17 52 35H144Q149 80 151 122T154
210V350H209V0ZM209 0V350H264V210Q264 165 266 123T274 35H366Q370 17 366 -2Q317 0 281 0T209 0Z" />
<glyph unicode="2" horiz-adv-x="566" d="M491 0H153Q126 0 101 0T46 -2Q43 22 46 46L258 255Q302 298 326 340T361 426T371 513Q371 596 345 635T270 675Q221 675 196 639T171 542Q171 523 173 506T179 475H69Q65 490 63 504T61 534Q61 586 87 626T160 691T270
715Q368 715 427 669T486 529Q486 470 460 420T390 323T295 229L143 90L396 95Q434 96 458 116T486 174Q502 178 518 174L491 0Z" />
<glyph unicode="3" horiz-adv-x="573" d="M518 192Q518 122 485 76T396 8T275 -15Q200 -15 149 11T72 80T49 173H164Q164 102 190 64T275 25Q327 25 354 50T392 112T403 186Q403 267 368 309T268 351Q234 351 210 349T159 341Q155 365 159 389H234Q276 389 303
400T345 432T366 479T372 536Q372 608 347 641T272 675Q232 675 210 656T178 607T169 546H64Q62 587 84 626T154 690T273 715Q343 715 389 691T459 627T482 538Q482 487 456 442T366 376Q407 370 441 348T497 287T518 192Z" />
<glyph unicode="4" horiz-adv-x="597" d="M538 35Q542 17 538 -2Q489 0 453 0T384 0Q352 0 316 0T230 -2Q226 17 230 35H322Q327 80 329 122T332 210V561L96 251H568Q565 234 559 212T543 176H23Q20 188 19 199T18 223Q39 244 55 267T88 311L317 610Q334 632 355
664T387 720Q397 722 407 722T427 723T447 720Q443 688 441 650T437 577T436 520V210Q436 165 438 123T446 35H538Z" />
<glyph unicode="5" horiz-adv-x="557" d="M449 728Q465 732 481 728L474 645Q472 621 452 611T409 600H140L131 397Q157 417 192 428T281 440Q351 440 402 412T480 332T508 211Q508 109 447 47T271 -15Q196 -15 146 11T71 80T49 173H164Q164 102 192 64T275 25Q336
25 364 70T393 206Q393 308 361 352T259 397Q210 397 175 379T120 330Q102 325 83 330L95 600Q96 625 96 650T95 700H409Q442 700 449 728Z" />
<glyph unicode="6" horiz-adv-x="576" d="M58 290Q58 379 82 455T156 588T284 677T469 709Q472 687 469 664Q363 664 299 625T205 520T173 373Q194 405 232 422T322 440Q380 440 428 415T505 340T534 219Q534 148 505 95T424 14T299 -15Q227 -15 173 16T89 115T58
290ZM173 214Q173 124 205 75T296 25Q354 25 386 73T419 210Q419 299 387 347T296 396Q238 396 206 349T173 214Z" />
<glyph unicode="7" horiz-adv-x="492" d="M231 -15L170 18V67Q170 121 189 168T233 264L400 601H123Q91 601 80 577T61 520Q45 516 29 520L50 700H353Q380 700 405 700T460 702Q470 680 475 656L270 241Q256 213 249 186T246 136T274 100L292 90V18L231 -15Z" />
<glyph unicode="8" horiz-adv-x="590" d="M535 186Q535 91 472 38T295 -15Q183 -15 119 38T55 186Q55 260 96 310T209 378Q176 387 148 408T104 463T87 539Q87 625 145 670T295 715Q356 715 402 695T476 635T503 539Q503 496 487 464T443 410T381 378Q453 360
494 310T535 186ZM398 534Q398 605 367 641T295 677Q254 677 223 641T192 534Q192 464 223 428T295 392Q336 392 367 428T398 534ZM420 190Q420 267 387 313T295 360Q237 360 204 314T170 190Q170 114 203 69T295 23Q354 23 387 68T420 190Z" />
<glyph unicode="9" horiz-adv-x="576" d="M518 410Q518 322 494 246T420 112T292 23T107 -9Q104 14 107 36Q214 36 278 75T372 180T403 327Q382 296 344 278T254 260Q197 260 149 285T71 360T42 481Q42 553 71 605T152 686T277 715Q349 715 403 684T488 585T518
410ZM403 486Q403 576 371 625T280 675Q222 675 190 627T157 490Q157 402 189 353T280 304Q338 304 370 351T403 486Z" />
<glyph unicode=":" horiz-adv-x="244" d="M122 110L177 80V15L122 -15L67 15V80L122 110ZM122 455L177 425V360L122 330L67 360V425L122 455Z" />
<glyph unicode=";" horiz-adv-x="257" d="M127 455L182 425V360L127 330L72 360V425L127 455ZM130 110L185 80V45Q185 12 174 -19T143 -78T93 -131Q84 -126 78 -120T67 -105Q92 -82 106 -59T126 -11L75 15V80L130 110Z" />
<glyph unicode="&lt;" horiz-adv-x="620" d="M59 410L530 591Q542 570 547 544L120 385L547 226Q542 200 530 179L59 360Q55 385 59 410Z" />
<glyph unicode="=" horiz-adv-x="620" d="M550 440H70Q66 465 70 490H550Q554 465 550 440ZM550 496H70Q66 521 70 546H550Q554 521 550 496Z" />
<glyph unicode="&gt;" horiz-adv-x="620" d="M561 410Q565 385 561 360L90 179Q78 200 73 226L500 385L73 544Q78 570 90 591L561 410Z" />
<glyph unicode="?" horiz-adv-x="484" d="M237 675Q194 675 169 642T143 552Q143 530 145 511T151 475H41Q37 492 35 509T33 544Q33 593 58 631T130 692T238 715Q296 715 344 698T422 645T452 552Q452 509 437 479T399 425T348 378T298 328T259 263T244 171Q226
168 208 171Q208 239 220 282T251 356T288 412T319 471T332 552Q332 617 302 646T237 675ZM227 110L282 80V15L227 -15L172 15V80L227 110Z" />
<glyph unicode="@" horiz-adv-x="901" d="M659 7L678 50Q703 50 732 74T783 145T805 257Q805 342 764 406T646 506T461 543Q355 543 272 503T140 386T92 201Q92 94 139 17T267 -102T452 -143Q525 -143 581 -127T692 -78Q697 -86 701 -92T710 -109Q655 -145 594
-165T452 -185Q336 -185 245 -138T100 -5T47 201Q47 290 78 361T165 482T296 558T461 585Q581 585 668 543T803 427T850 257Q850 179 822 123T750 37T659 7ZM678 50L659 7Q601 7 579 23T543 68Q525 41 497 24T425 7Q377 7 338 28T276 94T253 203Q253 302 308 356T452
410Q496 410 525 400T577 372L607 397Q621 400 634 397Q631 375 630 346T627 290T626 243V124Q626 86 637 68T678 50ZM446 46Q477 46 498 64T539 114V278Q539 318 525 337T491 364T454 371Q403 371 376 332T349 212Q349 128 376 87T446 46Z" />
<glyph unicode="A" horiz-adv-x="681" d="M-4 -2Q-8 17 -4 35H53Q76 80 93 122T128 210L248 519Q258 545 271 578T296 649T313 720Q323 722 333 722T353 723T373 720L307 550L175 210Q158 165 148 123T134 35H215Q219 17 215 -2Q174 0 142 0T92 0Q74 0 53 0T-4
-2ZM623 35H677Q681 17 677 -2Q654 -1 635 -1T596 0T554 0Q520 0 484 0T413 -2Q409 17 413 35H482Q474 80 462 122T433 210L307 550L373 720Q381 669 398 621T442 500L549 210Q566 165 584 123T623 35ZM438 235H178V275H438V235Z" />
<glyph unicode="B" horiz-adv-x="674" d="M412 370Q450 366 487 356T557 327T608 276T627 200Q627 136 591 92T492 24T352 0H182Q148 0 114 0T45 -2Q41 17 45 35H117Q122 80 124 122T127 210V490Q127 535 125 577T117 665H45Q41 684 45 702Q80 701 114 701T182
700H332Q400 700 456 683T547 629T582 535Q582 484 556 449T491 395T412 370ZM247 40H362Q430 40 466 84T502 193Q502 236 486 270T435 324T342 345H182V385H342Q395 385 428 423T462 523Q462 583 428 621T322 660H247Q242 615 240 578T237 495V210Q237 165 239
125T247 40Z" />
<glyph unicode="C" horiz-adv-x="696" d="M609 210Q625 213 641 210V34Q606 15 548 0T412 -15Q300 -15 219 31T95 159T52 350Q52 459 96 541T224 669T422 715Q491 715 544 701T631 670V495Q615 492 599 495Q584 590 539 631T416 673Q351 673 306 648T232 580T190
480T177 360Q177 297 189 238T229 131T301 55T412 27Q461 27 503 46T573 106T609 210Z" />
<glyph unicode="D" horiz-adv-x="785" d="M182 700H377Q485 700 564 662T688 549T732 365Q732 256 687 174T562 46T377 0H182Q148 0 114 0T45 -2Q41 17 45 35H117Q122 80 124 122T127 210V490Q127 535 125 577T117 665H45Q41 684 45 702Q80 701 114 701T182 700ZM247
40H387Q462 40 511 80T584 191T608 350Q608 417 595 473T554 572T479 637T367 660H247Q242 615 240 575T237 490V210Q237 165 239 125T247 40Z" />
<glyph unicode="E" horiz-adv-x="614" d="M45 -2Q41 17 45 35H117Q122 80 124 122T127 210V490Q127 535 125 577T117 665H45Q41 684 45 702Q80 701 114 701T182 700H532V515Q516 512 500 515Q496 590 467 625T360 660H247Q242 615 240 575T237 490V210Q237 165
239 125T247 40H395Q447 40 476 57T519 107T535 185Q551 188 567 185V0H182Q148 0 114 0T45 -2ZM435 260Q434 307 421 323T372 340H182V380H372Q407 380 420 397T435 460Q451 463 467 460V260Q451 257 435 260Z" />
<glyph unicode="F" horiz-adv-x="567" d="M45 -2Q41 17 45 35H117Q122 80 124 122T127 210V490Q127 535 125 577T117 665H45Q41 684 45 702Q80 701 114 701T182 700H527V520Q511 517 495 520Q491 595 462 627T355 660H247Q242 615 240 575T237 490V210Q237 165
239 123T247 35H339Q343 17 339 -2Q290 0 254 0T182 0Q148 0 114 0T45 -2ZM443 250Q442 297 429 313T380 330H182V370H380Q415 370 428 387T443 450Q459 453 475 450V250Q459 247 443 250Z" />
<glyph unicode="G" horiz-adv-x="759" d="M728 302Q732 284 728 265H676Q671 220 669 167T666 40Q636 24 599 12T517 -8T422 -15Q310 -15 227 31T98 159T52 350Q52 459 99 541T231 669T432 715Q509 715 563 701T651 670V505Q635 502 619 505Q604 593 558 633T426
673Q339 673 284 630T203 515T177 360Q177 297 191 238T234 131T309 55T422 27Q457 27 498 37T566 67Q566 120 564 170T556 265H474Q470 284 474 302Q509 301 546 301T611 300Q646 300 670 300T728 302Z" />
<glyph unicode="H" horiz-adv-x="814" d="M495 -2Q491 17 495 35H567Q572 80 574 122T577 210V490Q577 535 575 577T567 665H495Q491 684 495 702Q530 701 564 701T632 700Q667 700 701 700T769 702Q773 684 769 665H697Q692 620 690 578T687 490V210Q687 165
689 123T697 35H769Q773 17 769 -2Q735 0 701 0T632 0Q598 0 564 0T495 -2ZM45 -2Q41 17 45 35H117Q122 80 124 122T127 210V490Q127 535 125 577T117 665H45Q41 684 45 702Q80 701 114 701T182 700Q217 700 251 700T319 702Q323 684 319 665H247Q242 620 240 578T237
490V210Q237 165 239 123T247 35H319Q323 17 319 -2Q285 0 251 0T182 0Q148 0 114 0T45 -2ZM165 350V390H609V350H165Z" />
<glyph unicode="I" horiz-adv-x="364" d="M45 -2Q41 17 45 35H117Q122 80 124 122T127 210V490Q127 535 125 577T117 665H45Q41 684 45 702Q80 701 114 701T182 700Q217 700 251 700T319 702Q323 684 319 665H247Q242 620 240 578T237 490V210Q237 165 239 123T247
35H319Q323 17 319 -2Q285 0 251 0T182 0Q148 0 114 0T45 -2Z" />
<glyph unicode="J" horiz-adv-x="459" d="M177 -15Q128 -15 92 0T37 51T18 145H123Q123 76 134 48T177 20Q205 20 219 48T233 145V490Q233 535 231 577T223 665H131Q127 684 131 702Q181 701 217 701T288 700Q323 700 357 700T425 702Q429 684 425 665H353Q348
620 346 578T343 490V145Q343 104 332 74T298 24T246 -5T177 -15Z" />
<glyph unicode="K" horiz-adv-x="704" d="M45 -2Q41 17 45 35H117Q122 80 124 122T127 210V490Q127 535 125 577T117 665H45Q41 684 45 702Q80 701 114 701T182 700Q217 700 251 700T319 702Q323 684 319 665H247Q242 620 240 578T237 490V210Q237 165 239 123T247
35H319Q323 17 319 -2Q285 0 251 0T182 0Q148 0 114 0T45 -2ZM601 -10Q561 -10 539 3T505 42T482 107L447 243Q438 278 425 301T385 337T311 350H232V390H294Q344 390 381 408T435 455Q449 480 462 513T485 583Q490 602 491 622T491 665H423Q419 684 423 702Q465
701 490 701T534 700Q554 700 584 700T657 702Q661 684 657 665H581Q570 654 559 635T537 586Q527 558 513 516T479 437Q464 411 444 399T406 381Q463 379 492 364T535 324T558 263L599 107Q607 79 616 64T642 43T690 35Q693 18 690 0Q666 -4 645 -7T601 -10Z"
/>
<glyph unicode="L" horiz-adv-x="582" d="M45 -2Q41 17 45 35H117Q122 80 124 122T127 210V490Q127 535 125 577T117 665H45Q41 684 45 702Q80 701 114 701T182 700Q217 700 251 700T319 702Q323 684 319 665H247Q242 620 240 578T237 490V210Q237 165 239 123T247
35H380Q458 35 487 77T520 205Q536 208 552 205V0H182Q148 0 114 0T45 -2Z" />
<glyph unicode="M" horiz-adv-x="952" d="M414 -10Q408 26 397 67T365 156L178 614Q177 600 176 564T174 490V210Q174 165 177 123T189 35H266Q270 17 266 -2Q232 0 201 0T150 0Q132 0 106 0T45 -2Q41 17 45 35H112Q120 80 123 122T127 210V490Q127 528 124 570T112
665H45Q41 684 45 702Q80 701 106 701T150 700H276Q284 664 295 628T319 560L479 170L627 542Q645 588 656 626T675 700H770Q805 700 839 700T907 702Q911 684 907 665H835Q830 620 828 578T825 490V210Q825 165 827 123T835 35H907Q911 17 907 -2Q873 0 839 0T770
0Q736 0 702 0T633 -2Q629 17 633 35H705Q710 80 712 122T715 210V490Q715 528 713 564T708 614L511 130Q500 102 490 64T474 -10Q444 -15 414 -10Z" />
<glyph unicode="N" horiz-adv-x="788" d="M607 0Q596 27 583 51T556 97T525 142L181 630L150 700Q172 700 195 700T239 700T279 702Q290 677 305 652T345 591L620 200L667 0Q649 -2 637 -2T607 0ZM45 -2Q41 17 45 35H112Q120 80 123 122T127 210V490Q127 528 124
570T112 665H45Q41 684 45 702Q80 701 106 701T150 700L181 630Q178 600 176 564T174 490V210Q174 165 177 123T189 35H266Q270 17 266 -2Q232 0 201 0T150 0Q132 0 106 0T45 -2ZM667 0L620 200V490Q620 535 617 574T605 665H528Q524 684 528 702Q563 701 594 701T645
700Q662 700 688 700T749 702Q753 684 749 665H682Q674 613 671 574T667 490V0Z" />
<glyph unicode="O" horiz-adv-x="796" d="M178 360Q178 297 189 238T227 131T298 55T408 27L398 -15Q291 -15 214 31T95 159T53 350Q53 459 95 541T215 669T398 715L388 673Q313 673 267 630T199 515T178 360ZM618 340Q618 403 607 462T569 569T498 645T388 673L398
715Q506 715 583 669T701 541T743 350Q743 241 701 159T581 31T398 -15L408 27Q483 27 529 70T597 184T618 340Z" />
<glyph unicode="P" horiz-adv-x="618" d="M45 -2Q41 17 45 35H117Q122 80 124 122T127 210V490Q127 535 125 577T117 665H45Q41 684 45 702Q80 701 114 701T182 700H322Q397 700 457 681T552 620T587 510Q587 441 551 395T455 324T322 300H182V340H332Q392 340
427 382T462 503Q462 578 427 619T312 660H247Q242 615 240 575T237 490V210Q237 165 239 123T247 35H339Q343 17 339 -2Q290 0 254 0T182 0Q148 0 114 0T45 -2Z" />
<glyph unicode="Q" horiz-adv-x="796" d="M683 -96Q699 -106 712 -122Q694 -144 669 -156T588 -169Q535 -169 504 -148T449 -93Q426 -59 409 -42T375 -19T332 -10L459 -5Q485 -5 504 -18T543 -54Q569 -86 587 -102T628 -119Q643 -119 656 -115T683 -96ZM178 360Q178
297 189 238T227 131T298 55T408 27L398 -15Q291 -15 214 31T95 159T53 350Q53 459 95 541T215 669T398 715L388 673Q313 673 267 630T199 515T178 360ZM618 340Q618 403 607 462T569 569T498 645T388 673L398 715Q506 715 583 669T701 541T743 350Q743 241 701
159T581 31T398 -15L408 27Q483 27 529 70T597 184T618 340Z" />
<glyph unicode="R" horiz-adv-x="693" d="M676 35Q679 18 676 0Q653 -5 628 -7T588 -10Q549 -10 526 3T491 42T472 107L450 233Q443 277 414 298T334 320H182V360H347Q407 360 442 400T477 512Q477 580 442 620T327 660H247Q242 615 240 575T237 490V210Q237 165
239 123T247 35H319Q323 17 319 -2Q285 0 251 0T182 0Q148 0 114 0T45 -2Q41 17 45 35H117Q122 80 124 122T127 210V490Q127 535 125 577T117 665H45Q41 684 45 702Q80 701 114 701T182 700H337Q412 700 472 682T567 624T602 520Q602 469 579 434T516 377T426 346Q485
342 517 317T560 243L587 107Q595 64 613 51T676 35Z" />
<glyph unicode="S" horiz-adv-x="582" d="M264 -14Q212 -14 159 -1T59 35V215Q75 218 91 215Q96 161 122 119T190 51T285 26Q357 26 400 60T444 156Q444 194 424 219T371 261T298 293T219 325T146 366T92 427T72 519Q72 581 99 624T179 691T303 714Q367 714 411
701T488 667V510Q472 507 456 510Q449 581 407 627T295 674Q232 674 195 646T157 567Q157 526 177 500T232 455T307 421T388 389T463 347T518 285T539 192Q539 131 505 85T409 12T264 -14Z" />
<glyph unicode="T" horiz-adv-x="652" d="M189 -2Q185 17 189 35H261Q266 80 268 122T271 210V490Q271 535 269 575T261 660H203Q133 660 102 624T63 498Q47 495 31 498V700H621V498Q605 495 589 498Q582 588 551 624T449 660H391Q386 615 384 575T381 490V210Q381
165 383 123T391 35H463Q467 17 463 -2Q429 0 395 0T326 0Q292 0 258 0T189 -2Z" />
<glyph unicode="U" horiz-adv-x="739" d="M390 -15Q247 -15 181 39T114 205V490Q114 535 112 577T104 665H32Q28 684 32 702Q67 701 101 701T169 700Q204 700 238 700T306 702Q310 684 306 665H234Q229 620 227 578T224 490V210Q224 116 270 74T399 32Q488 32
532 82T577 219V490Q577 535 574 574T562 665H485Q481 684 485 702Q520 701 551 701T602 700Q619 700 645 700T706 702Q710 684 706 665H639Q631 613 628 574T624 490V205Q624 102 563 44T390 -15Z" />
<glyph unicode="V" horiz-adv-x="656" d="M652 702Q656 684 652 665H595Q573 620 556 578T523 490L421 181Q408 142 392 87T367 -20Q357 -21 347 -21T327 -22T307 -20L368 155L476 490Q490 535 500 577T514 665H433Q432 673 432 684T433 702Q474 701 506 701T556
700Q574 700 595 700T652 702ZM47 665H-7Q-11 684 -7 702Q17 701 36 701T74 700T116 700Q151 700 187 700T257 702Q261 684 257 665H188Q198 620 211 578T242 490L368 155L307 -20Q302 14 289 53T261 131T234 200L123 490Q106 536 88 578T47 665Z" />
<glyph unicode="W" horiz-adv-x="1029" d="M52 665H-1Q-5 684 -1 702Q24 701 42 701T79 700T120 700Q155 700 193 700T266 702Q270 684 266 665H196Q204 616 216 576T244 490L357 169L294 -20Q288 10 277 49T253 128T228 200L124 490Q110 531 94 572T52 665ZM1030
702Q1032 695 1032 685T1030 665H971Q947 620 931 579T899 490L796 181Q788 156 777 122T757 51T741 -20Q731 -21 722 -21T703 -22T683 -20L746 169L850 490Q865 536 873 576T886 665H802Q801 673 801 684T802 702Q846 701 878 701T930 700Q949 700 971 700T1030
702ZM447 665H389Q388 672 388 682T389 702Q414 701 434 701T472 700T510 700Q544 700 582 700T656 702Q657 695 657 686T656 665H584Q592 623 605 580T634 490L746 169L683 -20Q672 30 657 80T616 200L513 490Q504 518 494 546T473 605T447 665ZM542 563L408 181Q399
156 388 122T368 51T352 -20Q342 -21 333 -21T314 -22T294 -20L357 169L493 563H542Z" />
<glyph unicode="X" horiz-adv-x="709" d="M695 35Q699 17 695 -2Q671 -1 652 -1T612 0T566 0Q532 0 490 0T414 -2Q410 17 414 35H483Q464 80 440 124T386 212L204 490Q175 534 145 577T79 665H25Q21 684 25 702Q49 701 68 701T107 700T149 700Q192 700 231 700T303
702Q307 684 303 665H234Q254 620 280 577T336 490L517 212Q546 168 576 124T641 35H695ZM337 345L434 490Q463 534 488 577T529 665H451Q447 684 451 702Q492 701 524 701T574 700Q592 700 613 700T670 702Q674 684 670 665H615Q579 620 547 577T486 490L390 345H337ZM360
365L258 210Q229 166 205 123T164 35H242Q246 17 242 -2Q202 0 169 0T119 0Q101 0 80 0T23 -2Q19 17 23 35H78Q114 80 145 122T206 210L307 365H360Z" />
<glyph unicode="Y" horiz-adv-x="642" d="M185 -2Q181 17 185 35H257Q262 80 264 120T267 190V203Q267 271 248 341T197 474T131 587T62 665H213Q218 647 235 622T274 561T319 473T354 350Q364 396 382 442T421 530T463 603Q480 629 486 642T495 665H570Q520 612
484 550T424 425T389 305T377 203V190Q377 160 379 120T387 35H459Q463 17 459 -2Q425 0 391 0T322 0Q288 0 254 0T185 -2ZM-2 665Q-6 684 -2 702Q33 701 64 701T115 700Q128 700 153 700T209 700T267 702Q271 684 267 665H-2ZM407 665Q403 684 407 702Q449 701
479 701T529 700Q549 700 571 700T627 702Q631 684 627 665H407Z" />
<glyph unicode="Z" horiz-adv-x="644" d="M65 700H580Q582 687 583 675T583 650L454 660H237Q174 660 138 627T97 510Q81 507 65 510V700ZM595 0H39Q38 13 37 25T35 50L171 40H423Q470 40 500 54T545 102T563 190Q579 193 595 190V0ZM454 660L583 650Q549 630
525 592T481 520L279 180Q246 124 222 89T171 40L35 50Q55 59 77 81T118 131T151 180L353 520Q386 576 409 611T454 660Z" />
<glyph unicode="[" horiz-adv-x="320" d="M188 590Q188 635 190 677T198 765H300Q304 784 300 802Q274 801 246 801T179 800T83 800Q89 775 92 740T97 668T98 607V28Q98 3 97 -32T93 -104T83 -165Q140 -165 178 -165T245 -165T300 -167Q304 -148 300 -130H198Q193
-85 191 -43T188 45V590Z" />
<glyph unicode="\" horiz-adv-x="362" d="M34 730Q59 733 84 730L328 -120Q303 -123 278 -120L34 730Z" />
<glyph unicode="]" horiz-adv-x="320" d="M132 45Q132 0 130 -42T122 -130H20Q16 -148 20 -167Q47 -166 75 -166T142 -165T237 -165Q231 -140 228 -104T224 -33T222 28V607Q222 632 223 668T228 739T237 800Q181 800 143 800T76 800T20 802Q16 784 20 765H122Q127
720 129 678T132 590V45Z" />
<glyph unicode="^" horiz-adv-x="620" d="M330 838L532 574Q515 554 493 542L310 786L127 542Q105 554 88 574L290 838Q310 842 330 838Z" />
<glyph unicode="_" horiz-adv-x="576" d="M465 -120H-15Q-19 -95 -15 -70H465Q469 -95 465 -120Z" />
<glyph unicode="`" horiz-adv-x="151" d="M-9 690H106Q113 647 127 607T169 520Q153 517 137 520Q117 551 89 576T33 629T-9 690Z" />
<glyph unicode="a" horiz-adv-x="510" d="M187 -15Q123 -15 81 19T38 114Q38 159 62 189T127 234T220 250Q258 250 283 244T326 231V191Q285 210 242 210Q199 210 169 188T138 117Q138 77 157 53T213 28Q251 28 277 45T326 85L332 45Q306 20 274 3T187 -15ZM421
304V85Q421 56 436 46T483 35Q486 17 483 -2Q467 -6 449 -8T416 -10Q376 -10 358 5T332 45L326 85V297Q326 358 307 388T243 418Q202 418 181 395T163 325H63Q63 358 85 387T150 436T254 455Q334 455 377 418T421 304Z" />
<glyph unicode="b" horiz-adv-x="555" d="M12 700Q47 700 95 702T189 713Q183 688 180 653T176 581T174 520V75V65L101 -5Q93 -5 85 -4T69 0Q73 25 75 57T78 122T79 180V520Q79 592 69 663H12Q8 682 12 700ZM313 455Q367 455 411 430T482 355T509 227Q509 150
480 96T399 14T277 -15Q213 -15 171 7T96 62L174 138Q174 92 191 68T232 34T280 25Q339 25 371 73T404 215Q404 315 372 362T286 410Q246 410 221 387T174 330L164 375Q184 408 222 431T313 455Z" />
<glyph unicode="c" horiz-adv-x="484" d="M264 -15Q199 -15 150 13T73 94T45 220Q45 294 74 346T156 427T281 455Q328 455 363 445T425 415V280Q409 277 393 280Q380 345 349 380T274 415Q235 415 207 393T165 328T150 224Q150 169 168 126T219 59T290 35Q313
35 334 42T376 65T422 110Q430 105 436 99T450 85Q422 51 393 29T333 -4T264 -15Z" />
<glyph unicode="d" horiz-adv-x="568" d="M386 -5Q388 9 389 29T391 65L381 110V520Q381 592 371 663H314Q310 682 314 700Q349 700 397 702T491 713Q485 688 482 653T478 581T476 520V180Q476 108 486 37H538Q542 19 538 0Q503 0 464 0T386 -5ZM242 -15Q188 -15
144 10T73 86T46 213Q46 290 75 344T156 426T278 455Q342 455 385 433T459 378L381 302Q381 348 364 372T323 406T275 415Q216 415 184 368T151 225Q151 125 184 78T269 30Q309 30 334 53T381 110L391 65Q371 32 333 9T242 -15Z" />
<glyph unicode="e" horiz-adv-x="515" d="M264 -15Q201 -15 152 11T74 89T46 220Q46 297 75 349T155 428T272 455Q334 455 378 432T447 361T471 238Q445 241 416 243T346 245H138V280H365Q365 350 337 384T266 418Q230 418 204 395T163 328T148 224Q148 129 187
82T292 35Q332 35 369 54T442 120Q450 115 456 109T470 95Q427 40 377 13T264 -15Z" />
<glyph unicode="f" horiz-adv-x="346" d="M336 601H241Q245 639 238 660T210 681Q190 681 178 661T165 594Q165 552 176 511T196 440L201 400V180Q201 143 203 108T211 35H298Q302 17 298 -2Q245 0 214 0T154 0Q125 0 98 0T39 -2Q35 17 39 35H96Q101 73 103 108T106
180V260Q106 295 106 332T100 420Q90 527 100 593T141 689T225 720Q293 720 315 688T336 601ZM316 400H36Q33 420 36 440H316Q319 420 316 400Z" />
<glyph unicode="g" horiz-adv-x="515" d="M244 136Q292 136 317 171T342 274Q342 341 317 379T244 418Q196 418 172 380T147 274Q147 207 171 172T244 136ZM27 -85Q27 -67 29 -54T36 -34H168Q172 -52 168 -71Q156 -70 147 -70T128 -70Q126 -74 124 -84T122 -108Q122
-153 157 -169T257 -185Q316 -185 354 -165T392 -94Q392 -64 380 -44T336 -11T246 7Q193 13 155 29T93 73T58 145T47 246Q47 347 94 401T243 455Q286 455 324 448T398 440Q419 440 444 442T482 450Q486 411 482 378Q466 392 443 397T388 403Q414 379 428 345T442
273Q442 220 419 181T355 120T257 99Q215 99 182 115T132 165Q133 116 150 92T205 57T306 40Q346 36 380 29T441 7T482 -30T497 -88Q497 -137 467 -167T382 -211T257 -225Q152 -225 90 -192T27 -85Z" />
<glyph unicode="h" horiz-adv-x="577" d="M260 35Q264 17 260 -2Q229 0 202 0T146 0Q117 0 90 0T31 -2Q27 17 31 35H88Q93 73 95 108T98 180V520Q98 592 88 663H31Q27 682 31 700Q66 700 114 702T208 713Q202 688 199 653T195 581T193 520V180Q193 143 195 108T203
35H260ZM321 -2Q317 17 321 35H378Q383 73 385 108T388 180V316Q388 353 371 379T308 405Q273 405 243 387T193 330L183 375Q210 413 250 434T346 455Q405 455 436 433T486 376Q485 361 484 346T483 316V180Q483 143 485 108T493 35H550Q554 17 550 -2Q519 0 492
0T436 0Q407 0 380 0T321 -2Z" />
<glyph unicode="i" horiz-adv-x="303" d="M274 35Q278 17 274 -2Q240 0 212 0T155 0Q126 0 98 0T35 -2Q31 17 35 35H97Q102 73 104 108T107 180V260Q107 332 97 403H40Q36 422 40 440Q79 440 125 442T217 453Q211 428 208 393T204 321T202 260V180Q202 143 204
108T212 35H274ZM155 670L210 640V575L155 545L100 575V640L155 670Z" />
<glyph unicode="j" horiz-adv-x="272" d="M192 260V74Q192 46 193 18T199 -40Q195 -68 182 -99T146 -159T88 -205T4 -225Q1 -206 4 -187Q42 -182 62 -155T89 -90T97 -10V260Q97 332 87 403H30Q26 422 30 440Q69 440 115 442T207 453Q201 428 198 393T194 321T192
260ZM145 670L200 640V575L145 545L90 575V640L145 670Z" />
<glyph unicode="k" horiz-adv-x="539" d="M31 -2Q27 17 31 35H88Q93 73 95 108T98 180V520Q98 592 88 663H31Q27 682 31 700Q66 700 114 702T208 713Q202 688 199 653T195 581T193 520V180Q193 143 195 108T203 35H260Q264 17 260 -2Q229 0 202 0T146 0Q117 0
90 0T31 -2ZM447 -10Q410 -10 391 1T363 35T348 87L335 153Q332 171 323 187T293 214T232 225H193V260H242Q268 260 289 274T329 316Q349 345 357 365T369 403H299Q295 423 299 442Q327 441 339 441T359 440T380 440Q400 440 430 440T503 442Q507 423 503 403H456Q428
379 406 349T364 293T323 252Q379 248 404 219T436 153L448 97Q456 60 468 48T511 35Q514 18 511 0Q498 -4 480 -7T447 -10Z" />
<glyph unicode="l" horiz-adv-x="291" d="M260 35Q264 17 260 -2Q229 0 202 0T146 0Q117 0 90 0T31 -2Q27 17 31 35H88Q93 73 95 108T98 180V520Q98 592 88 663H31Q27 682 31 700Q66 700 114 702T208 713Q202 688 199 653T195 581T193 520V180Q193 143 195 108T203
35H260Z" />
<glyph unicode="m" horiz-adv-x="853" d="M37 -2Q33 17 37 35H94Q99 73 101 108T104 180V260Q104 332 94 403H42Q38 422 42 440Q77 440 117 442T199 453Q194 435 192 413T189 375L199 330V180Q199 143 201 108T209 35H256Q260 17 256 -2Q225 0 203 0T152 0Q123
0 96 0T37 -2ZM327 -2Q323 17 327 35H374Q379 73 381 108T384 180V316Q384 353 370 379T314 405Q279 405 249 387T199 330L189 375Q216 413 256 434T352 455Q407 455 435 433T482 376Q481 361 480 346T479 316V180Q479 143 481 108T489 35H536Q540 17 536 -2Q505
0 483 0T432 0Q403 0 381 0T327 -2ZM607 -2Q603 17 607 35H654Q659 73 661 108T664 180V316Q664 353 650 379T594 405Q555 405 527 387T479 330L469 375Q496 413 535 434T632 455Q687 455 715 433T762 376Q761 361 760 346T759 316V180Q759 143 761 108T769 35H826Q830
17 826 -2Q795 0 768 0T712 0Q683 0 661 0T607 -2Z" />
<glyph unicode="n" horiz-adv-x="583" d="M37 -2Q33 17 37 35H94Q99 73 101 108T104 180V260Q104 332 94 403H42Q38 422 42 440Q77 440 117 442T199 453Q194 435 192 413T189 375L199 330V180Q199 143 201 108T209 35H266Q270 17 266 -2Q235 0 208 0T152 0Q123
0 96 0T37 -2ZM327 -2Q323 17 327 35H384Q389 73 391 108T394 180V316Q394 353 377 379T314 405Q279 405 249 387T199 330L189 375Q216 413 256 434T352 455Q411 455 442 433T492 376Q491 361 490 346T489 316V180Q489 143 491 108T499 35H556Q560 17 556 -2Q525
0 498 0T442 0Q413 0 386 0T327 -2Z" />
<glyph unicode="o" horiz-adv-x="546" d="M268 415Q232 415 206 395T165 334T150 229Q150 159 166 114T211 47T278 25L273 -15Q207 -15 156 14T75 97T45 224Q45 295 73 347T153 427T273 455L268 415ZM278 25Q315 25 341 45T381 107T396 211Q396 282 380 327T336
393T268 415L273 455Q340 455 391 426T471 344T501 216Q501 145 473 93T394 13T273 -15L278 25Z" />
<glyph unicode="p" horiz-adv-x="571" d="M28 -212Q24 -193 28 -175H85Q90 -137 92 -102T95 -30V260Q95 332 85 403H33Q29 422 33 440Q68 440 108 442T190 453Q185 435 183 413T180 375L190 330V-30Q190 -67 192 -102T200 -175H277Q281 -193 277 -212Q231 -210
202 -210T143 -210Q114 -210 87 -210T28 -212ZM329 455Q383 455 427 430T498 355T525 227Q525 150 496 96T415 14T293 -15Q229 -15 187 7T112 62L190 138Q190 92 207 68T248 34T296 25Q355 25 387 73T420 215Q420 315 388 362T302 410Q262 410 237 387T190 330L180
375Q200 408 238 431T329 455Z" />
<glyph unicode="q" horiz-adv-x="555" d="M543 -175Q547 -193 543 -212Q512 -210 485 -210T428 -210Q400 -210 370 -210T294 -212Q290 -193 294 -175H371Q376 -137 378 -102T381 -30V375L454 440Q470 443 486 440Q483 415 481 383T477 318T476 260V-30Q476 -67
478 -102T486 -175H543ZM242 -15Q188 -15 144 10T73 86T46 213Q46 290 75 344T156 426T278 455Q342 455 385 433T459 378L381 302Q381 348 364 372T323 406T275 415Q216 415 184 368T151 225Q151 125 184 78T269 30Q309 30 334 53T381 110L391 65Q371 32 333 9T242
-15Z" />
<glyph unicode="r" horiz-adv-x="444" d="M37 -2Q33 17 37 35H94Q99 73 101 108T104 180V260Q104 332 94 403H42Q38 422 42 440Q77 440 117 442T199 453Q194 435 192 412T189 365L199 320V180Q199 143 201 108T209 35H296Q300 17 296 -2Q243 0 212 0T152 0Q123
0 96 0T37 -2ZM323 325Q327 362 320 383T287 405Q263 405 243 383T199 320L189 365Q213 408 245 431T324 455Q361 455 383 442T416 401T423 325H323Z" />
<glyph unicode="s" horiz-adv-x="458" d="M222 -15Q179 -15 138 -8T52 15V153Q68 156 84 153Q97 93 131 59T232 25Q277 25 306 43T336 96Q336 123 317 138T266 162T200 180T134 205T83 248T63 322Q63 383 108 419T239 455Q275 455 310 448T377 427V300Q361 297
345 300Q334 359 307 387T227 415Q181 415 157 397T133 347Q133 321 153 306T206 281T274 260T343 235T395 193T416 125Q416 58 365 22T222 -15Z" />
<glyph unicode="t" horiz-adv-x="336" d="M211 -15Q159 -15 127 9T95 89V310Q95 337 95 371T93 441T87 505Q105 511 119 521T145 546T164 575Q180 578 196 575Q192 508 191 442T190 308V93Q190 59 200 45T231 30Q246 30 262 37T289 56Q297 51 303 44T315 29Q297
10 275 -2T211 -15ZM25 400Q22 420 25 440H305Q308 420 305 400H25Z" />
<glyph unicode="u" horiz-adv-x="564" d="M373 110L383 65Q356 27 318 6T225 -15Q170 -15 140 7T90 64Q92 79 92 94T93 124V260Q93 332 83 403H31Q27 422 31 440Q70 440 113 442T203 453Q197 428 194 393T190 321T188 260V124Q188 87 204 61T263 35Q298 35 325
53T373 110ZM530 37Q534 19 530 0Q495 0 455 -2T373 -13Q378 5 380 27T383 65L373 110V260Q373 332 363 403H306Q302 422 306 440Q345 440 391 442T483 453Q477 428 474 393T470 321T468 260V180Q468 108 478 37H530Z" />
<glyph unicode="v" horiz-adv-x="504" d="M499 442Q503 423 499 403H447Q431 373 417 347T390 290L321 117Q311 92 302 56T287 -15Q281 -16 269 -16T246 -17T227 -15Q223 8 215 34T198 85T180 130L111 290Q98 320 84 346T46 403H8Q4 423 8 442Q29 441 45 441T79
440T115 440Q144 440 171 440T229 442Q233 423 229 403H178Q186 373 194 348T216 290L282 129L344 290Q355 318 364 345T374 403H310Q306 423 310 442Q341 441 358 441T405 440Q434 440 451 440T499 442Z" />
<glyph unicode="w" horiz-adv-x="798" d="M227 -15Q172 -15 142 7T92 64Q94 79 94 94T95 124V260Q95 332 85 403H33Q29 422 33 440Q72 440 115 442T205 453Q199 428 196 393T192 321T190 260V124Q190 87 206 61T265 35Q300 35 327 53T375 110L385 65Q358 27 320
6T227 -15ZM766 442Q770 423 766 403H726Q719 362 718 324T716 230Q716 183 706 139T675 61T621 6T543 -15Q510 -15 476 -8T383 0Q385 17 385 33T385 65L375 110V260Q375 332 365 403H308Q304 422 308 440Q347 440 393 442T485 453Q479 428 476 393T472 321T470
260V130Q470 83 482 57T543 30Q583 30 611 56T654 127T669 230Q669 277 657 319T616 403H569Q565 423 569 442Q604 441 637 441T689 440Q706 440 726 440T766 442Z" />
<glyph unicode="x" horiz-adv-x="529" d="M329 35Q313 65 299 92T261 150L161 290Q139 320 119 346T66 403H201Q218 373 232 348T269 290L369 150Q390 120 411 93T464 35H329ZM28 -2Q24 17 28 35H218Q222 17 218 -2Q192 0 174 0T126 0Q98 0 78 0T28 -2ZM80 35Q107
65 129 92T174 150L236 232H284L223 150Q202 122 186 94T156 35H80ZM286 -2Q282 17 286 35H507Q511 17 507 -2Q476 0 453 0T400 0Q372 0 345 0T286 -2ZM23 403Q19 423 23 442Q54 441 77 441T130 440Q159 440 188 440T249 442Q253 423 249 403H23ZM248 208L307 290Q327
318 342 345T370 403H446Q420 373 400 347T356 290L296 208H248ZM312 403Q308 423 312 442Q338 441 356 441T403 440Q432 440 450 440T498 442Q502 423 498 403H312Z" />
<glyph unicode="y" horiz-adv-x="548" d="M225 5Q170 5 140 27T90 84Q92 99 92 114T93 144V260Q93 332 83 403H31Q27 422 31 440Q70 440 113 442T203 453Q197 428 194 393T190 321T188 260V144Q188 107 204 81T263 55Q298 55 325 73T373 130V74Q357 51 337 36T289
13T225 5ZM306 440Q345 440 391 442T483 453Q477 428 474 393T470 321T468 260V70Q468 -25 434 -91T343 -191T219 -225Q143 -225 96 -195T48 -106Q48 -55 82 -22T163 34L191 17Q154 -7 141 -34T128 -96Q128 -138 149 -161T219 -185Q277 -185 310 -155T358 -76T373
24V260Q373 332 363 403H306Q302 422 306 440Z" />
<glyph unicode="z" horiz-adv-x="489" d="M155 37L39 43Q59 51 77 73T118 128L242 312Q266 347 282 370T317 403L433 397Q413 389 395 367T354 312L230 128Q207 93 191 70T155 37ZM42 0Q37 21 39 43L155 37H309Q356 37 380 71T411 160Q427 163 443 160V0H42ZM60
280V440H430Q432 430 433 419T433 397L317 403H198Q152 403 125 376T92 280Q76 277 60 280Z" />
<glyph unicode="{" horiz-adv-x="338" d="M317 -167Q245 -167 200 -140T132 -63T110 51Q110 97 120 137T130 208Q130 257 104 278T26 300H8Q7 308 7 320T8 340H26Q78 340 104 361T130 432Q130 464 120 503T110 589Q110 654 132 702T199 776T317 802Q321 784 317
765Q270 765 245 748T210 701T200 635Q200 602 205 575T215 522T220 467Q220 412 200 374T123 320Q179 305 199 267T220 173Q220 145 215 119T205 66T200 5Q200 -30 209 -61T244 -111T317 -130Q321 -148 317 -167Z" />
<glyph unicode="|" horiz-adv-x="239" d="M97 -200V800Q120 803 142 800V-200Q120 -203 97 -200Z" />
<glyph unicode="}" horiz-adv-x="338" d="M21 802Q93 802 138 775T206 698T228 584Q228 538 218 499T208 427Q208 378 234 357T312 335H330Q332 328 332 316T330 295H312Q260 295 234 274T208 203Q208 172 218 132T228 46Q228 -19 206 -67T139 -141T21 -167Q17
-148 21 -130Q69 -130 94 -113T128 -65T138 0Q138 34 133 61T123 114T118 168Q118 224 139 262T215 315Q160 330 139 368T118 462Q118 491 123 516T133 569T138 630Q138 666 129 696T94 746T21 765Q17 784 21 802Z" />
<glyph unicode="~" horiz-adv-x="620" d="M73 279Q73 367 109 411T204 455Q238 455 262 443T306 411T342 373T378 342T422 329Q453 329 470 346T495 393T503 455Q528 459 553 455Q553 367 517 323T422 279Q388 279 364 291T320 323T284 361T248 392T204 405Q173
405 156 388T131 342T123 279Q98 275 73 279Z" />
<glyph unicode="&#xa0;" horiz-adv-x="220" />
<glyph unicode="&#xa1;" horiz-adv-x="272" d="M136 -215L79 -179V-110L118 329Q136 332 154 329L193 -110V-179L136 -215ZM136 390L81 420V485L136 515L191 485V420L136 390Z" />
<glyph unicode="&#xa2;" horiz-adv-x="504" d="M194 -150L326 598Q337 597 348 596T371 590L239 -158Q228 -157 217 -156T194 -150ZM272 -15Q207 -15 158 13T81 94T53 220Q53 294 82 346T164 427T289 455Q336 455 371 445T433 415V280Q417 277 401 280Q388 345
357 380T282 415Q243 415 215 393T173 328T158 224Q158 169 176 126T227 59T298 35Q321 35 342 42T384 65T430 110Q438 105 444 99T458 85Q430 51 401 29T341 -4T272 -15Z" />
<glyph unicode="&#xa3;" horiz-adv-x="646" d="M129 -15Q84 -15 59 6T33 64Q33 100 58 122T128 144Q173 144 204 131T260 100T315 69T385 55Q444 55 474 85T496 173H611Q614 123 590 80T518 11T405 -15Q366 -15 336 -3T280 26T231 62T183 92T130 104Q103 104 91
94T78 67Q78 49 91 37T128 25Q174 25 202 61T231 169Q231 214 220 251T193 320T160 385T132 452T121 529Q121 622 182 668T344 715Q410 715 458 691T532 627T558 534Q558 519 556 505T550 475H440Q448 505 448 542Q448 598 423 636T344 675Q294 675 263 634T231
513Q231 479 238 445T253 371T269 283T276 169Q276 126 262 84T216 14T129 -15ZM450 300H70Q66 325 70 350H450Q454 325 450 300Z" />
<glyph unicode="&#xa4;" horiz-adv-x="625" d="M312 148Q253 148 205 176T128 253T99 361Q99 420 127 468T204 545T312 574Q371 574 419 546T496 469T525 361Q525 302 497 254T420 177T312 148ZM108 125Q87 139 73 160L159 246L194 211L108 125ZM312 198Q357 198
394 220T453 279T475 361Q475 406 453 443T394 502T312 524Q267 524 230 502T171 443T149 361Q149 316 171 279T230 220T312 198ZM518 125L431 212L466 247L553 160Q539 139 518 125ZM163 480L73 570Q87 591 108 605L198 515L163 480ZM462 479L427 514L518 605Q539
591 553 570L462 479Z" />
<glyph unicode="&#xa5;" horiz-adv-x="695" d="M217 -2Q213 17 217 35H289Q294 80 296 120T299 190V203Q299 271 280 341T229 474T163 587T94 665H245Q250 647 267 622T306 561T351 473T386 350Q396 396 414 442T453 530T495 603Q512 629 518 642T527 665H602Q552
612 516 550T456 425T421 305T409 203V190Q409 160 411 120T419 35H491Q495 17 491 -2Q457 0 423 0T354 0Q320 0 286 0T217 -2ZM30 665Q26 684 30 702Q65 701 96 701T147 700Q160 700 185 700T241 700T299 702Q303 684 299 665H30ZM439 665Q435 684 439 702Q481
701 511 701T561 700Q581 700 603 700T659 702Q663 684 659 665H439ZM598 536H118Q114 561 118 586H598Q602 561 598 536ZM598 150H118Q114 175 118 200H598Q602 175 598 150Z" />
<glyph unicode="&#xa6;" horiz-adv-x="239" d="M97 -200V200Q120 203 142 200V-200Q120 -203 97 -200ZM97 400V800Q120 803 142 800V400Q120 397 97 400Z" />
<glyph unicode="&#xa7;" horiz-adv-x="556" d="M291 64V89Q350 98 386 133T422 226Q422 267 398 292T336 334T256 366T176 404T114 460T90 551Q90 604 117 640T190 696T294 715Q342 715 378 707T451 680V523Q435 522 419 523Q416 591 379 633T282 675Q230 675
201 651T172 587Q172 548 196 524T260 482T342 449T424 411T487 355T512 265Q512 184 453 134T291 64ZM266 436V411Q207 402 171 367T135 274Q135 233 159 208T221 166T301 134T381 96T443 40T467 -51Q467 -103 440 -140T367 -196T263 -215Q215 -215 180 -207T106
-180V-23Q122 -22 138 -23Q141 -91 179 -133T275 -175Q327 -175 356 -151T385 -87Q385 -48 361 -24T297 18T215 51T133 89T70 146T45 235Q45 316 104 366T266 436Z" />
<glyph unicode="&#xa8;" horiz-adv-x="310" d="M55 670L110 640V575L55 545L0 575V640L55 670ZM255 670L310 640V575L255 545L200 575V640L255 670Z" />
<glyph unicode="&#xa9;" horiz-adv-x="849" d="M425 -15Q316 -15 234 32T105 162T59 351Q59 457 105 539T233 668T425 715Q534 715 616 668T744 539T790 351Q790 245 744 162T616 32T425 -15ZM425 31Q520 31 590 72T700 185T740 351Q740 444 701 515T591 628T425
669Q330 669 259 628T149 516T109 351Q109 258 148 186T259 72T425 31ZM430 161Q350 161 300 211T250 351Q250 447 304 494T446 541Q483 541 509 534T562 513V401Q556 400 551 400T536 401Q532 460 506 484T444 509Q411 509 388 490T353 436T340 353Q340 286 371
242T449 198Q478 198 502 211T556 259Q564 255 569 250T579 239Q544 196 510 179T430 161Z" />
<glyph unicode="&#xaa;" horiz-adv-x="401" d="M313 549V407Q313 387 322 380T352 373Q353 369 353 362T352 349Q340 346 327 345T306 343Q279 343 266 352T248 378L243 405V543Q243 582 232 604T192 626Q164 626 151 608T140 560H68Q68 596 102 623T196 650Q242
650 267 637T302 601T313 549ZM153 340Q109 340 81 361T53 425Q53 456 69 476T111 506T167 516Q190 516 210 513T243 504V477Q218 489 191 489Q163 489 144 474T124 428Q124 403 138 388T178 372Q196 372 213 381T243 405L248 378Q231 361 208 351T153 340Z" />
<glyph unicode="&#xab;" horiz-adv-x="551" d="M233 213H353Q387 248 411 277T455 335T498 393Q487 406 470 412Q418 356 362 309T233 213ZM233 213Q306 164 362 117T470 14Q487 20 498 33Q476 63 456 91T411 148T353 213H233ZM33 213H153Q187 248 211 277T255
335T298 393Q287 406 270 412Q218 356 162 309T33 213ZM33 213Q106 164 162 117T270 14Q287 20 298 33Q276 63 256 91T211 148T153 213H33Z" />
<glyph unicode="&#xac;" horiz-adv-x="620" d="M542 440H60Q56 465 60 490H542V440ZM542 490V220Q517 216 492 220V490H542Z" />
<glyph unicode="&#xae;" horiz-adv-x="657" d="M328 254Q247 254 186 289T90 385T56 526Q56 605 90 666T185 762T328 798Q409 798 470 763T566 666T601 526Q601 447 567 386T471 289T328 254ZM328 300Q395 300 445 328T523 408T551 526Q551 593 523 643T445 723T328
752Q261 752 211 723T134 644T106 526Q106 459 133 408T211 329T328 300ZM480 406Q481 402 481 398T480 392Q474 391 466 391T447 390Q405 390 394 402T380 435L374 487Q371 520 325 520H301V476Q301 457 302 439T306 406H336Q336 403 336 400T336 391Q320 392
301 392T266 392Q253 392 233 392T197 391Q197 393 197 398T197 406H227Q229 422 230 440T231 476V588Q231 606 230 624T227 658H197Q197 661 197 665T197 673Q213 672 232 672T266 672H335Q384 672 418 657T452 601Q452 578 441 564T411 541T373 528Q402 527 424
516T450 474L454 435Q456 418 463 413T480 406ZM324 536Q345 536 361 549T378 596Q378 628 362 642T320 656H306Q304 638 303 622T301 588V536H324Z" />
<glyph unicode="&#xaf;" horiz-adv-x="284" d="M287 540H-3Q-5 553 -5 570T-3 600H287Q289 587 289 570T287 540Z" />
<glyph unicode="&#xb0;" horiz-adv-x="430" d="M214 390Q166 390 128 412T67 471T44 558Q44 608 66 646T127 706T214 728Q263 728 301 706T363 646T386 558Q386 509 363 472T302 412T214 390ZM214 440Q264 440 297 472T331 558Q331 612 298 645T214 678Q164 678
131 645T98 558Q98 505 131 473T214 440Z" />
<glyph unicode="&#xb1;" horiz-adv-x="620" d="M550 401H70Q66 426 70 451H550Q554 426 550 401ZM285 216V636Q310 640 335 636V216Q310 212 285 216ZM550 100H70Q66 125 70 150H550Q554 125 550 100Z" />
<glyph unicode="&#xb2;" horiz-adv-x="380" d="M334 350H87Q71 350 56 350T23 349Q21 367 23 379L150 494Q191 531 212 569T234 660Q234 709 218 727T177 745Q152 745 139 728T125 673Q125 660 126 649T130 630H43Q42 637 40 646T38 667Q38 717 78 748T180 779Q245
779 284 753T324 664Q324 620 300 585T229 512T115 418L266 423Q288 424 302 438T320 490Q335 493 350 490L334 350Z" />
<glyph unicode="&#xb3;" horiz-adv-x="376" d="M344 469Q344 429 323 401T264 357T180 341Q105 341 67 374T30 461H116Q116 421 133 398T183 375Q208 375 223 387T246 419T254 462Q254 509 233 533T171 557Q156 557 142 556T111 551Q110 557 110 568T111 590H155Q196
590 216 614T237 669Q237 708 221 726T179 745Q158 745 145 735T126 708T119 669H37Q37 703 55 727T107 765T181 779Q247 779 285 753T324 679Q324 643 298 618T229 581Q277 575 310 546T344 469Z" />
<glyph unicode="&#xb4;" horiz-adv-x="151" d="M155 690Q140 656 113 629T58 577T9 520Q-7 517 -23 520Q5 566 19 606T40 690H155Z" />
<glyph unicode="&#xb5;" horiz-adv-x="566" d="M190 124Q190 87 206 61T265 35Q300 35 327 53T375 110L385 65Q358 27 320 6T227 -15Q175 -15 150 11T105 78L190 124ZM532 37Q536 19 532 0Q497 0 457 -2T375 -13Q380 5 382 27T385 65L375 110V260Q375 332 365
403H308Q304 422 308 440Q347 440 393 442T485 453Q479 428 476 393T472 321T470 260V180Q470 108 480 37H532ZM90 -210Q92 -191 93 -172T95 -134V260Q95 332 85 403H33Q29 422 33 440Q72 440 115 442T205 453Q199 428 196 393T192 321T190 260V-210H90Z" />
<glyph unicode="&#xb6;" horiz-adv-x="720" d="M594 -165H666Q670 -183 666 -202Q632 -200 598 -200T529 -200H419Q385 -200 349 -200T262 -202Q258 -183 262 -165H354Q359 -120 361 -78T364 10V300H284Q214 300 156 323T64 391T29 503Q29 573 62 616T154 680T284
700H529Q564 700 598 700T666 702Q670 684 666 665H594Q589 620 587 578T584 490V10Q584 -35 586 -77T594 -165ZM529 -163V663H419V-163H529Z" />
<glyph unicode="&#xb7;" horiz-adv-x="244" d="M122 300L177 270V205L122 175L67 205V270L122 300Z" />
<glyph unicode="&#xb8;" horiz-adv-x="204" d="M12 -162Q32 -175 54 -181T95 -188Q134 -188 134 -157Q134 -140 109 -126T42 -102L76 0H116L103 -44Q149 -60 176 -81T204 -140Q204 -176 176 -200T101 -225Q70 -225 47 -218T0 -195Q2 -175 12 -162Z" />
<glyph unicode="&#xb9;" horiz-adv-x="283" d="M198 379H275Q277 364 275 349Q228 350 201 350T152 350Q132 350 105 350T29 349Q28 364 29 379H106Q110 406 111 434T112 484V641Q112 657 112 669T110 695H27Q24 710 27 725Q60 725 89 734T142 758T183 789Q191
786 199 780Q195 753 194 724T192 670V484Q192 459 193 433T198 379Z" />
<glyph unicode="&#xba;" horiz-adv-x="402" d="M201 650Q268 650 311 609T354 493Q354 446 335 412T281 359T201 340Q134 340 91 382T48 497Q48 568 90 609T201 650ZM204 366Q229 366 245 380T269 421T277 488Q277 531 268 561T242 608T198 624Q174 624 158 610T133
569T125 502Q125 459 134 429T160 382T204 366Z" />
<glyph unicode="&#xbb;" horiz-adv-x="548" d="M315 213Q242 262 186 309T78 412Q61 406 50 393Q72 363 92 335T137 278T195 213H315ZM315 213H195Q162 178 138 149T93 91T50 33Q61 20 78 14Q130 70 186 117T315 213ZM515 213Q442 262 386 309T278 412Q261 406
250 393Q272 363 292 335T337 278T395 213H515ZM515 213H395Q362 178 338 149T293 91T250 33Q261 20 278 14Q330 70 386 117T515 213Z" />
<glyph unicode="&#xbc;" horiz-adv-x="869" d="M220 309H297Q299 294 297 279Q250 280 223 280T174 280Q154 280 127 280T51 279Q50 294 51 309H128Q132 336 133 364T134 414V571Q134 587 134 599T132 625H49Q46 640 49 655Q82 655 111 664T164 688T205 719Q213
716 221 710Q217 683 216 654T214 600V414Q214 389 215 363T220 309ZM560 700L316 0Q291 -3 266 0L510 700Q535 703 560 700ZM816 29Q817 26 817 15T816 -1Q784 0 760 0T716 0Q696 0 672 0T615 -1Q614 3 614 13T615 29H672Q674 50 675 65T677 95T678 126L677 318L547
154H836Q834 142 830 127T819 104H493Q490 119 490 136Q501 148 512 162T532 187L671 364Q684 380 695 399T714 432Q721 433 730 433T747 434T761 432Q757 402 755 366T753 312V126Q753 101 754 78T759 29H816Z" />
<glyph unicode="&#xbd;" horiz-adv-x="876" d="M216 309H293Q295 294 293 279Q246 280 219 280T170 280Q150 280 123 280T47 279Q46 294 47 309H124Q128 336 129 364T130 414V571Q130 587 130 599T128 625H45Q42 640 45 655Q78 655 107 664T160 688T201 719Q209
716 217 710Q213 683 212 654T210 600V414Q210 389 211 363T216 309ZM556 700L312 0Q287 -3 262 0L506 700Q531 703 556 700ZM823 0H576Q560 0 545 0T512 -1Q510 17 512 29L639 144Q680 181 701 219T723 310Q723 359 707 377T666 395Q641 395 628 378T614 323Q614
310 615 299T619 280H532Q531 287 529 296T527 317Q527 367 567 398T669 429Q734 429 773 403T813 314Q813 270 789 235T718 162T604 68L755 73Q777 74 791 88T809 140Q824 143 839 140L823 0Z" />
<glyph unicode="&#xbe;" horiz-adv-x="916" d="M358 399Q358 359 337 331T278 287T194 271Q119 271 81 304T44 391H130Q130 351 147 328T197 305Q222 305 237 317T260 349T268 392Q268 439 247 463T185 487Q170 487 156 486T125 481Q124 487 124 498T125 520H169Q210
520 230 544T251 599Q251 638 235 656T193 675Q172 675 159 665T140 638T133 599H51Q51 633 69 657T121 695T195 709Q261 709 299 683T338 609Q338 573 312 548T243 511Q291 505 324 476T358 399ZM607 700L363 0Q338 -3 313 0L557 700Q582 703 607 700ZM863 29Q864
26 864 15T863 -1Q831 0 807 0T763 0Q743 0 719 0T662 -1Q661 3 661 13T662 29H719Q721 50 722 65T724 95T725 126L724 318L594 154H883Q881 142 877 127T866 104H540Q537 119 537 136Q548 148 559 162T579 187L718 364Q731 380 742 399T761 432Q768 433 777 433T794
434T808 432Q804 402 802 366T800 312V126Q800 101 801 78T806 29H863Z" />
<glyph unicode="&#xbf;" horiz-adv-x="483" d="M246 -175Q290 -175 315 -141T340 -52Q340 -30 338 -11T332 25H442Q446 8 448 -9T450 -44Q450 -93 425 -131T353 -192T245 -215Q188 -215 139 -198T61 -145T31 -52Q31 -9 46 21T84 75T135 122T185 172T224 237T239
329Q257 332 275 329Q275 261 263 218T232 144T195 88T164 29T151 -52Q151 -117 181 -146T246 -175ZM256 390L201 420V485L256 515L311 485V420L256 390Z" />
<glyph unicode="&#xc0;" horiz-adv-x="681" d="M-4 -2Q-8 17 -4 35H53Q76 80 93 122T128 210L248 519Q258 545 271 578T296 649T313 720Q323 722 333 722T353 723T373 720L307 550L175 210Q158 165 148 123T134 35H215Q219 17 215 -2Q174 0 142 0T92 0Q74 0 53
0T-4 -2ZM623 35H677Q681 17 677 -2Q654 -1 635 -1T596 0T554 0Q520 0 484 0T413 -2Q409 17 413 35H482Q474 80 462 122T433 210L307 550L373 720Q381 669 398 621T442 500L549 210Q566 165 584 123T623 35ZM438 235H178V275H438V235ZM176 925H301Q315 879 333
844T379 770Q363 767 347 770Q327 795 294 817T229 864T176 925Z" />
<glyph unicode="&#xc1;" horiz-adv-x="681" d="M-4 -2Q-8 17 -4 35H53Q76 80 93 122T128 210L248 519Q258 545 271 578T296 649T313 720Q323 722 333 722T353 723T373 720L307 550L175 210Q158 165 148 123T134 35H215Q219 17 215 -2Q174 0 142 0T92 0Q74 0 53
0T-4 -2ZM623 35H677Q681 17 677 -2Q654 -1 635 -1T596 0T554 0Q520 0 484 0T413 -2Q409 17 413 35H482Q474 80 462 122T433 210L307 550L373 720Q381 669 398 621T442 500L549 210Q566 165 584 123T623 35ZM438 235H178V275H438V235ZM508 925Q489 890 456 865T391
817T337 770Q321 767 305 770Q333 808 351 843T383 925H508Z" />
<glyph unicode="&#xc2;" horiz-adv-x="681" d="M-4 -2Q-8 17 -4 35H53Q76 80 93 122T128 210L248 519Q258 545 271 578T296 649T313 720Q323 722 333 722T353 723T373 720L307 550L175 210Q158 165 148 123T134 35H215Q219 17 215 -2Q174 0 142 0T92 0Q74 0 53
0T-4 -2ZM623 35H677Q681 17 677 -2Q654 -1 635 -1T596 0T554 0Q520 0 484 0T413 -2Q409 17 413 35H482Q474 80 462 122T433 210L307 550L373 720Q381 669 398 621T442 500L549 210Q566 165 584 123T623 35ZM438 235H178V275H438V235ZM494 762Q458 774 433 784T386
805T342 830Q319 816 298 805T252 784T190 762Q179 772 175 784Q217 815 241 835T284 875T326 925Q342 928 358 925Q381 895 399 875T442 835T509 784Q505 772 494 762Z" />
<glyph unicode="&#xc3;" horiz-adv-x="681" d="M-4 -2Q-8 17 -4 35H53Q76 80 93 122T128 210L248 519Q258 545 271 578T296 649T313 720Q323 722 333 722T353 723T373 720L307 550L175 210Q158 165 148 123T134 35H215Q219 17 215 -2Q174 0 142 0T92 0Q74 0 53
0T-4 -2ZM623 35H677Q681 17 677 -2Q654 -1 635 -1T596 0T554 0Q520 0 484 0T413 -2Q409 17 413 35H482Q474 80 462 122T433 210L307 550L373 720Q381 669 398 621T442 500L549 210Q566 165 584 123T623 35ZM438 235H178V275H438V235ZM474 885Q492 882 502 876Q495
812 468 791T402 770Q370 770 348 784T308 811T265 825Q249 825 235 816T210 774Q192 777 182 783Q190 845 216 867T281 890Q312 890 334 877T376 849T419 835Q435 835 449 844T474 885Z" />
<glyph unicode="&#xc4;" horiz-adv-x="681" d="M-4 -2Q-8 17 -4 35H53Q76 80 93 122T128 210L248 519Q258 545 271 578T296 649T313 720Q323 722 333 722T353 723T373 720L307 550L175 210Q158 165 148 123T134 35H215Q219 17 215 -2Q174 0 142 0T92 0Q74 0 53
0T-4 -2ZM623 35H677Q681 17 677 -2Q654 -1 635 -1T596 0T554 0Q520 0 484 0T413 -2Q409 17 413 35H482Q474 80 462 122T433 210L307 550L373 720Q381 669 398 621T442 500L549 210Q566 165 584 123T623 35ZM438 235H178V275H438V235ZM232 910L287 880V815L232
785L177 815V880L232 910ZM452 910L507 880V815L452 785L397 815V880L452 910Z" />
<glyph unicode="&#xc5;" horiz-adv-x="681" d="M-4 -2Q-8 17 -4 35H53Q76 80 93 122T128 210L248 519Q258 545 271 578T296 649T313 720Q323 722 333 722T353 723T373 720L307 550L175 210Q158 165 148 123T134 35H215Q219 17 215 -2Q174 0 142 0T92 0Q74 0 53
0T-4 -2ZM623 35H677Q681 17 677 -2Q654 -1 635 -1T596 0T554 0Q520 0 484 0T413 -2Q409 17 413 35H482Q474 80 462 122T433 210L307 550L373 720Q381 669 398 621T442 500L549 210Q566 165 584 123T623 35ZM438 235H178V275H438V235ZM345 877Q392 877 421 852T451
787Q451 747 422 722T345 697Q299 697 269 722T239 787Q239 827 269 852T345 877ZM347 727Q365 727 375 742T386 787Q386 817 374 832T343 847Q325 847 315 832T304 787Q304 757 316 742T347 727Z" />
<glyph unicode="&#xc6;" horiz-adv-x="935" d="M488 682L417 550L218 210Q191 164 171 122T137 35H213Q216 17 213 -2Q172 0 140 0T90 0Q72 0 51 0T-6 -2Q-9 17 -6 35H51Q85 80 112 122T166 210L346 519Q365 551 387 594T430 682H488ZM501 235H221L231 275H501V235ZM503
0V350H558V210Q558 165 560 125T568 40H888V0H503ZM888 40H716Q768 40 797 57T840 107T856 185Q872 188 888 185V40ZM503 700H853V660H568Q563 615 561 575T558 490V350H503V700ZM853 660V515Q837 512 821 515Q817 590 788 625T681 660H853ZM756 460Q772 463 788
460V260Q772 257 756 260Q755 307 742 323T693 340H503V380H693Q728 380 741 397T756 460ZM503 0Q469 0 435 0T366 -2Q362 17 366 35H438Q443 80 445 122T448 210V350H503V0ZM503 700V350H448V490Q448 535 446 577T438 665H326Q322 684 326 702Q349 701 382 701T447
700T503 700Z" />
<glyph unicode="&#xc7;" horiz-adv-x="696" d="M609 210Q625 213 641 210V34Q606 15 548 0T412 -15Q300 -15 219 31T95 159T52 350Q52 459 96 541T224 669T422 715Q491 715 544 701T631 670V495Q615 492 599 495Q584 590 539 631T416 673Q351 673 306 648T232
580T190 480T177 360Q177 297 189 238T229 131T301 55T412 27Q461 27 503 46T573 106T609 210ZM327 -162Q347 -175 369 -181T410 -188Q449 -188 449 -157Q449 -140 424 -126T357 -102L391 0H431L418 -44Q464 -60 491 -81T519 -140Q519 -176 491 -200T416 -225Q385
-225 362 -218T315 -195Q317 -175 327 -162Z" />
<glyph unicode="&#xc8;" horiz-adv-x="614" d="M45 -2Q41 17 45 35H117Q122 80 124 122T127 210V490Q127 535 125 577T117 665H45Q41 684 45 702Q80 701 114 701T182 700H532V515Q516 512 500 515Q496 590 467 625T360 660H247Q242 615 240 575T237 490V210Q237
165 239 125T247 40H395Q447 40 476 57T519 107T535 185Q551 188 567 185V0H182Q148 0 114 0T45 -2ZM435 260Q434 307 421 323T372 340H182V380H372Q407 380 420 397T435 460Q451 463 467 460V260Q451 257 435 260ZM154 925H279Q293 879 311 844T357 770Q341 767
325 770Q305 795 272 817T207 864T154 925Z" />
<glyph unicode="&#xc9;" horiz-adv-x="614" d="M45 -2Q41 17 45 35H117Q122 80 124 122T127 210V490Q127 535 125 577T117 665H45Q41 684 45 702Q80 701 114 701T182 700H532V515Q516 512 500 515Q496 590 467 625T360 660H247Q242 615 240 575T237 490V210Q237
165 239 125T247 40H395Q447 40 476 57T519 107T535 185Q551 188 567 185V0H182Q148 0 114 0T45 -2ZM435 260Q434 307 421 323T372 340H182V380H372Q407 380 420 397T435 460Q451 463 467 460V260Q451 257 435 260ZM486 925Q467 890 434 865T369 817T315 770Q299
767 283 770Q311 808 329 843T361 925H486Z" />
<glyph unicode="&#xca;" horiz-adv-x="614" d="M45 -2Q41 17 45 35H117Q122 80 124 122T127 210V490Q127 535 125 577T117 665H45Q41 684 45 702Q80 701 114 701T182 700H532V515Q516 512 500 515Q496 590 467 625T360 660H247Q242 615 240 575T237 490V210Q237
165 239 125T247 40H395Q447 40 476 57T519 107T535 185Q551 188 567 185V0H182Q148 0 114 0T45 -2ZM435 260Q434 307 421 323T372 340H182V380H372Q407 380 420 397T435 460Q451 463 467 460V260Q451 257 435 260ZM472 762Q436 774 411 784T364 805T320 830Q297
816 276 805T230 784T168 762Q157 772 153 784Q195 815 219 835T262 875T304 925Q320 928 336 925Q359 895 377 875T420 835T487 784Q483 772 472 762Z" />
<glyph unicode="&#xcb;" horiz-adv-x="614" d="M45 -2Q41 17 45 35H117Q122 80 124 122T127 210V490Q127 535 125 577T117 665H45Q41 684 45 702Q80 701 114 701T182 700H532V515Q516 512 500 515Q496 590 467 625T360 660H247Q242 615 240 575T237 490V210Q237
165 239 125T247 40H395Q447 40 476 57T519 107T535 185Q551 188 567 185V0H182Q148 0 114 0T45 -2ZM435 260Q434 307 421 323T372 340H182V380H372Q407 380 420 397T435 460Q451 463 467 460V260Q451 257 435 260ZM210 910L265 880V815L210 785L155 815V880L210
910ZM430 910L485 880V815L430 785L375 815V880L430 910Z" />
<glyph unicode="&#xcc;" horiz-adv-x="364" d="M45 -2Q41 17 45 35H117Q122 80 124 122T127 210V490Q127 535 125 577T117 665H45Q41 684 45 702Q80 701 114 701T182 700Q217 700 251 700T319 702Q323 684 319 665H247Q242 620 240 578T237 490V210Q237 165 239
123T247 35H319Q323 17 319 -2Q285 0 251 0T182 0Q148 0 114 0T45 -2ZM16 925H141Q155 879 173 844T219 770Q203 767 187 770Q167 795 134 817T69 864T16 925Z" />
<glyph unicode="&#xcd;" horiz-adv-x="364" d="M45 -2Q41 17 45 35H117Q122 80 124 122T127 210V490Q127 535 125 577T117 665H45Q41 684 45 702Q80 701 114 701T182 700Q217 700 251 700T319 702Q323 684 319 665H247Q242 620 240 578T237 490V210Q237 165 239
123T247 35H319Q323 17 319 -2Q285 0 251 0T182 0Q148 0 114 0T45 -2ZM348 925Q329 890 296 865T231 817T177 770Q161 767 145 770Q173 808 191 843T223 925H348Z" />
<glyph unicode="&#xce;" horiz-adv-x="364" d="M45 -2Q41 17 45 35H117Q122 80 124 122T127 210V490Q127 535 125 577T117 665H45Q41 684 45 702Q80 701 114 701T182 700Q217 700 251 700T319 702Q323 684 319 665H247Q242 620 240 578T237 490V210Q237 165 239
123T247 35H319Q323 17 319 -2Q285 0 251 0T182 0Q148 0 114 0T45 -2ZM334 762Q298 774 273 784T226 805T182 830Q159 816 138 805T92 784T30 762Q19 772 15 784Q57 815 81 835T124 875T166 925Q182 928 198 925Q221 895 239 875T282 835T349 784Q345 772 334 762Z"
/>
<glyph unicode="&#xcf;" horiz-adv-x="364" d="M45 -2Q41 17 45 35H117Q122 80 124 122T127 210V490Q127 535 125 577T117 665H45Q41 684 45 702Q80 701 114 701T182 700Q217 700 251 700T319 702Q323 684 319 665H247Q242 620 240 578T237 490V210Q237 165 239
123T247 35H319Q323 17 319 -2Q285 0 251 0T182 0Q148 0 114 0T45 -2ZM72 910L127 880V815L72 785L17 815V880L72 910ZM292 910L347 880V815L292 785L237 815V880L292 910Z" />
<glyph unicode="&#xd0;" horiz-adv-x="787" d="M456 340H46Q42 365 46 390H456Q460 365 456 340ZM184 700H379Q487 700 566 662T690 549T734 365Q734 256 689 174T564 46T379 0H184Q150 0 116 0T47 -2Q43 17 47 35H119Q124 80 126 122T129 210V490Q129 535 127
577T119 665H47Q43 684 47 702Q82 701 116 701T184 700ZM249 40H389Q464 40 513 80T586 191T610 350Q610 417 597 473T556 572T481 637T369 660H249Q244 615 242 575T239 490V210Q239 165 241 125T249 40Z" />
<glyph unicode="&#xd1;" horiz-adv-x="788" d="M607 0Q596 27 583 51T556 97T525 142L181 630L150 700Q172 700 195 700T239 700T279 702Q290 677 305 652T345 591L620 200L667 0Q649 -2 637 -2T607 0ZM45 -2Q41 17 45 35H112Q120 80 123 122T127 210V490Q127
528 124 570T112 665H45Q41 684 45 702Q80 701 106 701T150 700L181 630Q178 600 176 564T174 490V210Q174 165 177 123T189 35H266Q270 17 266 -2Q232 0 201 0T150 0Q132 0 106 0T45 -2ZM667 0L620 200V490Q620 535 617 574T605 665H528Q524 684 528 702Q563 701
594 701T645 700Q662 700 688 700T749 702Q753 684 749 665H682Q674 613 671 574T667 490V0ZM524 885Q542 882 552 876Q545 812 518 791T452 770Q420 770 398 784T358 811T315 825Q299 825 285 816T260 774Q242 777 232 783Q240 845 266 867T331 890Q362 890 384
877T426 849T469 835Q485 835 499 844T524 885Z" />
<glyph unicode="&#xd2;" horiz-adv-x="796" d="M178 360Q178 297 189 238T227 131T298 55T408 27L398 -15Q291 -15 214 31T95 159T53 350Q53 459 95 541T215 669T398 715L388 673Q313 673 267 630T199 515T178 360ZM618 340Q618 403 607 462T569 569T498 645T388
673L398 715Q506 715 583 669T701 541T743 350Q743 241 701 159T581 31T398 -15L408 27Q483 27 529 70T597 184T618 340ZM232 925H357Q371 879 389 844T435 770Q419 767 403 770Q383 795 350 817T285 864T232 925Z" />
<glyph unicode="&#xd3;" horiz-adv-x="796" d="M178 360Q178 297 189 238T227 131T298 55T408 27L398 -15Q291 -15 214 31T95 159T53 350Q53 459 95 541T215 669T398 715L388 673Q313 673 267 630T199 515T178 360ZM618 340Q618 403 607 462T569 569T498 645T388
673L398 715Q506 715 583 669T701 541T743 350Q743 241 701 159T581 31T398 -15L408 27Q483 27 529 70T597 184T618 340ZM564 925Q545 890 512 865T447 817T393 770Q377 767 361 770Q389 808 407 843T439 925H564Z" />
<glyph unicode="&#xd4;" horiz-adv-x="796" d="M178 360Q178 297 189 238T227 131T298 55T408 27L398 -15Q291 -15 214 31T95 159T53 350Q53 459 95 541T215 669T398 715L388 673Q313 673 267 630T199 515T178 360ZM618 340Q618 403 607 462T569 569T498 645T388
673L398 715Q506 715 583 669T701 541T743 350Q743 241 701 159T581 31T398 -15L408 27Q483 27 529 70T597 184T618 340ZM550 762Q514 774 489 784T442 805T398 830Q375 816 354 805T308 784T246 762Q235 772 231 784Q273 815 297 835T340 875T382 925Q398 928
414 925Q437 895 455 875T498 835T565 784Q561 772 550 762Z" />
<glyph unicode="&#xd5;" horiz-adv-x="796" d="M178 360Q178 297 189 238T227 131T298 55T408 27L398 -15Q291 -15 214 31T95 159T53 350Q53 459 95 541T215 669T398 715L388 673Q313 673 267 630T199 515T178 360ZM618 340Q618 403 607 462T569 569T498 645T388
673L398 715Q506 715 583 669T701 541T743 350Q743 241 701 159T581 31T398 -15L408 27Q483 27 529 70T597 184T618 340ZM530 885Q548 882 558 876Q551 812 524 791T458 770Q426 770 404 784T364 811T321 825Q305 825 291 816T266 774Q248 777 238 783Q246 845
272 867T337 890Q368 890 390 877T432 849T475 835Q491 835 505 844T530 885Z" />
<glyph unicode="&#xd6;" horiz-adv-x="796" d="M178 360Q178 297 189 238T227 131T298 55T408 27L398 -15Q291 -15 214 31T95 159T53 350Q53 459 95 541T215 669T398 715L388 673Q313 673 267 630T199 515T178 360ZM618 340Q618 403 607 462T569 569T498 645T388
673L398 715Q506 715 583 669T701 541T743 350Q743 241 701 159T581 31T398 -15L408 27Q483 27 529 70T597 184T618 340ZM288 910L343 880V815L288 785L233 815V880L288 910ZM508 910L563 880V815L508 785L453 815V880L508 910Z" />
<glyph unicode="&#xd7;" horiz-adv-x="620" d="M561 581L94 114Q74 129 59 149L526 616Q546 601 561 581ZM94 616L561 149Q546 129 526 114L59 581Q74 601 94 616Z" />
<glyph unicode="&#xd8;" horiz-adv-x="810" d="M669 730Q700 735 730 730Q724 664 690 607T604 497T492 396T372 297T261 197T178 89T141 -30Q111 -35 80 -30Q86 36 120 93T206 203T318 305T438 404T549 504T632 611T669 730ZM185 360Q185 297 196 238T234 131T305
55T415 27L405 -15Q298 -15 221 31T102 159T60 350Q60 459 102 541T222 669T405 715L395 673Q320 673 274 630T206 515T185 360ZM625 340Q625 403 614 462T576 569T505 645T395 673L405 715Q513 715 590 669T708 541T750 350Q750 241 708 159T588 31T405 -15L415
27Q490 27 536 70T604 184T625 340Z" />
<glyph unicode="&#xd9;" horiz-adv-x="739" d="M390 -15Q247 -15 181 39T114 205V490Q114 535 112 577T104 665H32Q28 684 32 702Q67 701 101 701T169 700Q204 700 238 700T306 702Q310 684 306 665H234Q229 620 227 578T224 490V210Q224 116 270 74T399 32Q488
32 532 82T577 219V490Q577 535 574 574T562 665H485Q481 684 485 702Q520 701 551 701T602 700Q619 700 645 700T706 702Q710 684 706 665H639Q631 613 628 574T624 490V205Q624 102 563 44T390 -15ZM228 925H353Q367 879 385 844T431 770Q415 767 399 770Q379
795 346 817T281 864T228 925Z" />
<glyph unicode="&#xda;" horiz-adv-x="739" d="M390 -15Q247 -15 181 39T114 205V490Q114 535 112 577T104 665H32Q28 684 32 702Q67 701 101 701T169 700Q204 700 238 700T306 702Q310 684 306 665H234Q229 620 227 578T224 490V210Q224 116 270 74T399 32Q488
32 532 82T577 219V490Q577 535 574 574T562 665H485Q481 684 485 702Q520 701 551 701T602 700Q619 700 645 700T706 702Q710 684 706 665H639Q631 613 628 574T624 490V205Q624 102 563 44T390 -15ZM560 925Q541 890 508 865T443 817T389 770Q373 767 357 770Q385
808 403 843T435 925H560Z" />
<glyph unicode="&#xdb;" horiz-adv-x="739" d="M390 -15Q247 -15 181 39T114 205V490Q114 535 112 577T104 665H32Q28 684 32 702Q67 701 101 701T169 700Q204 700 238 700T306 702Q310 684 306 665H234Q229 620 227 578T224 490V210Q224 116 270 74T399 32Q488
32 532 82T577 219V490Q577 535 574 574T562 665H485Q481 684 485 702Q520 701 551 701T602 700Q619 700 645 700T706 702Q710 684 706 665H639Q631 613 628 574T624 490V205Q624 102 563 44T390 -15ZM546 762Q510 774 485 784T438 805T394 830Q371 816 350 805T304
784T242 762Q231 772 227 784Q269 815 293 835T336 875T378 925Q394 928 410 925Q433 895 451 875T494 835T561 784Q557 772 546 762Z" />
<glyph unicode="&#xdc;" horiz-adv-x="739" d="M390 -15Q247 -15 181 39T114 205V490Q114 535 112 577T104 665H32Q28 684 32 702Q67 701 101 701T169 700Q204 700 238 700T306 702Q310 684 306 665H234Q229 620 227 578T224 490V210Q224 116 270 74T399 32Q488
32 532 82T577 219V490Q577 535 574 574T562 665H485Q481 684 485 702Q520 701 551 701T602 700Q619 700 645 700T706 702Q710 684 706 665H639Q631 613 628 574T624 490V205Q624 102 563 44T390 -15ZM284 910L339 880V815L284 785L229 815V880L284 910ZM504 910L559
880V815L504 785L449 815V880L504 910Z" />
<glyph unicode="&#xdd;" horiz-adv-x="642" d="M185 -2Q181 17 185 35H257Q262 80 264 120T267 190V203Q267 271 248 341T197 474T131 587T62 665H213Q218 647 235 622T274 561T319 473T354 350Q364 396 382 442T421 530T463 603Q480 629 486 642T495 665H570Q520
612 484 550T424 425T389 305T377 203V190Q377 160 379 120T387 35H459Q463 17 459 -2Q425 0 391 0T322 0Q288 0 254 0T185 -2ZM-2 665Q-6 684 -2 702Q33 701 64 701T115 700Q128 700 153 700T209 700T267 702Q271 684 267 665H-2ZM407 665Q403 684 407 702Q449
701 479 701T529 700Q549 700 571 700T627 702Q631 684 627 665H407ZM499 925Q480 890 447 865T382 817T328 770Q312 767 296 770Q324 808 342 843T374 925H499Z" />
<glyph unicode="&#xde;" horiz-adv-x="636" d="M337 560Q410 560 467 541T558 480T592 370Q592 301 558 255T465 184T337 160H182V200H347Q387 200 416 218T461 273T477 363Q477 438 442 479T327 520H207V560H337ZM45 -2Q41 17 45 35H117Q122 80 124 122T127 210V490Q127
535 125 577T117 665H45Q41 684 45 702Q80 701 114 701T182 700Q217 700 251 700T319 702Q323 684 319 665H247Q242 620 240 578T237 490V210Q237 165 239 123T247 35H319Q323 17 319 -2Q285 0 251 0T182 0Q148 0 114 0T45 -2Z" />
<glyph unicode="&#xdf;" horiz-adv-x="599" d="M201 400H36Q33 420 36 440H201V400ZM154 0Q125 0 98 0T39 -2Q35 17 39 35H96Q101 73 103 108T106 180V260Q106 295 106 330T101 400H201V180Q201 143 203 104T211 0H154ZM389 400Q389 371 406 348T448 303T499 256T541
196T558 115Q558 80 540 50T486 3T401 -15Q375 -15 347 -12T274 5V123Q290 126 306 123Q313 77 338 51T404 25Q438 25 455 43T473 96Q473 129 458 152T419 193T373 233T335 283T319 355Q319 390 330 412T355 454T380 497T391 558Q391 614 368 649T303 685Q275 685
256 670T224 624T207 548T201 440H99Q104 534 129 596T199 689T306 720Q366 720 406 693T466 614T486 491Q460 491 438 480T403 448T389 400Z" />
<glyph unicode="&#xe0;" horiz-adv-x="510" d="M187 -15Q123 -15 81 19T38 114Q38 159 62 189T127 234T220 250Q258 250 283 244T326 231V191Q285 210 242 210Q199 210 169 188T138 117Q138 77 157 53T213 28Q251 28 277 45T326 85L332 45Q306 20 274 3T187 -15ZM421
304V85Q421 56 436 46T483 35Q486 17 483 -2Q467 -6 449 -8T416 -10Q376 -10 358 5T332 45L326 85V297Q326 358 307 388T243 418Q202 418 181 395T163 325H63Q63 358 85 387T150 436T254 455Q334 455 377 418T421 304ZM117 690H232Q239 647 253 607T295 520Q279
517 263 520Q243 551 215 576T159 629T117 690Z" />
<glyph unicode="&#xe1;" horiz-adv-x="510" d="M187 -15Q123 -15 81 19T38 114Q38 159 62 189T127 234T220 250Q258 250 283 244T326 231V191Q285 210 242 210Q199 210 169 188T138 117Q138 77 157 53T213 28Q251 28 277 45T326 85L332 45Q306 20 274 3T187 -15ZM421
304V85Q421 56 436 46T483 35Q486 17 483 -2Q467 -6 449 -8T416 -10Q376 -10 358 5T332 45L326 85V297Q326 358 307 388T243 418Q202 418 181 395T163 325H63Q63 358 85 387T150 436T254 455Q334 455 377 418T421 304ZM394 690Q379 656 352 629T297 577T248 520Q232
517 216 520Q244 566 258 606T279 690H394Z" />
<glyph unicode="&#xe2;" horiz-adv-x="510" d="M187 -15Q123 -15 81 19T38 114Q38 159 62 189T127 234T220 250Q258 250 283 244T326 231V191Q285 210 242 210Q199 210 169 188T138 117Q138 77 157 53T213 28Q251 28 277 45T326 85L332 45Q306 20 274 3T187 -15ZM421
304V85Q421 56 436 46T483 35Q486 17 483 -2Q467 -6 449 -8T416 -10Q376 -10 358 5T332 45L326 85V297Q326 358 307 388T243 418Q202 418 181 395T163 325H63Q63 358 85 387T150 436T254 455Q334 455 377 418T421 304ZM381 515Q350 530 328 543T288 570T250 596Q230
583 212 570T172 544T119 515Q107 524 102 537Q137 570 158 592T196 637T234 690Q250 693 266 690Q288 660 304 638T342 593T398 537Q393 524 381 515Z" />
<glyph unicode="&#xe3;" horiz-adv-x="510" d="M187 -15Q123 -15 81 19T38 114Q38 159 62 189T127 234T220 250Q258 250 283 244T326 231V191Q285 210 242 210Q199 210 169 188T138 117Q138 77 157 53T213 28Q251 28 277 45T326 85L332 45Q306 20 274 3T187 -15ZM421
304V85Q421 56 436 46T483 35Q486 17 483 -2Q467 -6 449 -8T416 -10Q376 -10 358 5T332 45L326 85V297Q326 358 307 388T243 418Q202 418 181 395T163 325H63Q63 358 85 387T150 436T254 455Q334 455 377 418T421 304ZM366 654Q385 651 396 641Q389 601 373 579T336
549T295 540Q276 540 262 548T236 566T213 584T189 592Q173 592 160 585T135 545Q116 548 105 558Q116 617 145 638T205 660Q229 660 246 647T279 621T312 608Q328 608 341 615T366 654Z" />
<glyph unicode="&#xe4;" horiz-adv-x="510" d="M187 -15Q123 -15 81 19T38 114Q38 159 62 189T127 234T220 250Q258 250 283 244T326 231V191Q285 210 242 210Q199 210 169 188T138 117Q138 77 157 53T213 28Q251 28 277 45T326 85L332 45Q306 20 274 3T187 -15ZM421
304V85Q421 56 436 46T483 35Q486 17 483 -2Q467 -6 449 -8T416 -10Q376 -10 358 5T332 45L326 85V297Q326 358 307 388T243 418Q202 418 181 395T163 325H63Q63 358 85 387T150 436T254 455Q334 455 377 418T421 304ZM150 670L205 640V575L150 545L95 575V640L150
670ZM350 670L405 640V575L350 545L295 575V640L350 670Z" />
<glyph unicode="&#xe5;" horiz-adv-x="510" d="M187 -15Q123 -15 81 19T38 114Q38 159 62 189T127 234T220 250Q258 250 283 244T326 231V191Q285 210 242 210Q199 210 169 188T138 117Q138 77 157 53T213 28Q251 28 277 45T326 85L332 45Q306 20 274 3T187 -15ZM421
304V85Q421 56 436 46T483 35Q486 17 483 -2Q467 -6 449 -8T416 -10Q376 -10 358 5T332 45L326 85V297Q326 358 307 388T243 418Q202 418 181 395T163 325H63Q63 358 85 387T150 436T254 455Q334 455 377 418T421 304ZM250 695Q297 695 326 670T356 605Q356 565
327 540T250 515Q204 515 174 540T144 605Q144 645 174 670T250 695ZM252 545Q270 545 280 560T291 605Q291 635 279 650T248 665Q230 665 220 650T209 605Q209 575 221 560T252 545Z" />
<glyph unicode="&#xe6;" horiz-adv-x="797" d="M413 304V151L331 200L328 237V294Q328 355 311 386T249 418Q208 418 185 395T165 325H65Q65 358 88 387T154 436T254 455Q311 455 346 439T397 389T413 304ZM199 -15Q156 -15 120 0T62 45T40 120Q40 168 66 198T136
241T227 255Q257 255 283 251T328 237L331 200Q310 211 286 215T232 220Q190 220 165 193T140 121Q140 81 162 53T224 25Q255 25 287 44T354 106L370 72Q341 34 313 16T256 -9T199 -15ZM546 -15Q483 -15 434 11T356 89T328 220Q328 297 357 349T437 428T554 455Q616
455 660 432T729 361T753 238Q727 241 698 243T628 245H420V280H647Q647 350 619 384T548 418Q512 418 486 395T445 328T430 224Q430 129 469 82T574 35Q614 35 651 54T724 120Q732 115 738 109T752 95Q709 40 659 13T546 -15Z" />
<glyph unicode="&#xe7;" horiz-adv-x="484" d="M264 -15Q199 -15 150 13T73 94T45 220Q45 294 74 346T156 427T281 455Q328 455 363 445T425 415V280Q409 277 393 280Q380 345 349 380T274 415Q235 415 207 393T165 328T150 224Q150 169 168 126T219 59T290 35Q313
35 334 42T376 65T422 110Q430 105 436 99T450 85Q422 51 393 29T333 -4T264 -15ZM192 -162Q212 -175 234 -181T275 -188Q314 -188 314 -157Q314 -140 289 -126T222 -102L256 0H296L283 -44Q329 -60 356 -81T384 -140Q384 -176 356 -200T281 -225Q250 -225 227
-218T180 -195Q182 -175 192 -162Z" />
<glyph unicode="&#xe8;" horiz-adv-x="515" d="M264 -15Q201 -15 152 11T74 89T46 220Q46 297 75 349T155 428T272 455Q334 455 378 432T447 361T471 238Q445 241 416 243T346 245H138V280H365Q365 350 337 384T266 418Q230 418 204 395T163 328T148 224Q148 129
187 82T292 35Q332 35 369 54T442 120Q450 115 456 109T470 95Q427 40 377 13T264 -15ZM132 690H247Q254 647 268 607T310 520Q294 517 278 520Q258 551 230 576T174 629T132 690Z" />
<glyph unicode="&#xe9;" horiz-adv-x="515" d="M264 -15Q201 -15 152 11T74 89T46 220Q46 297 75 349T155 428T272 455Q334 455 378 432T447 361T471 238Q445 241 416 243T346 245H138V280H365Q365 350 337 384T266 418Q230 418 204 395T163 328T148 224Q148 129
187 82T292 35Q332 35 369 54T442 120Q450 115 456 109T470 95Q427 40 377 13T264 -15ZM409 690Q394 656 367 629T312 577T263 520Q247 517 231 520Q259 566 273 606T294 690H409Z" />
<glyph unicode="&#xea;" horiz-adv-x="515" d="M264 -15Q201 -15 152 11T74 89T46 220Q46 297 75 349T155 428T272 455Q334 455 378 432T447 361T471 238Q445 241 416 243T346 245H138V280H365Q365 350 337 384T266 418Q230 418 204 395T163 328T148 224Q148 129
187 82T292 35Q332 35 369 54T442 120Q450 115 456 109T470 95Q427 40 377 13T264 -15ZM396 515Q365 530 343 543T303 570T265 596Q245 583 227 570T187 544T134 515Q122 524 117 537Q152 570 173 592T211 637T249 690Q265 693 281 690Q303 660 319 638T357 593T413
537Q408 524 396 515Z" />
<glyph unicode="&#xeb;" horiz-adv-x="515" d="M264 -15Q201 -15 152 11T74 89T46 220Q46 297 75 349T155 428T272 455Q334 455 378 432T447 361T471 238Q445 241 416 243T346 245H138V280H365Q365 350 337 384T266 418Q230 418 204 395T163 328T148 224Q148 129
187 82T292 35Q332 35 369 54T442 120Q450 115 456 109T470 95Q427 40 377 13T264 -15ZM165 670L220 640V575L165 545L110 575V640L165 670ZM365 670L420 640V575L365 545L310 575V640L365 670Z" />
<glyph unicode="&#xec;" horiz-adv-x="303" d="M274 35Q278 17 274 -2Q240 0 212 0T155 0Q126 0 98 0T35 -2Q31 17 35 35H97Q102 73 104 108T107 180V260Q107 332 97 403H40Q36 422 40 440Q79 440 125 442T217 453Q211 428 208 393T204 321T202 260V180Q202 143
204 108T212 35H274ZM22 690H137Q144 647 158 607T200 520Q184 517 168 520Q148 551 120 576T64 629T22 690Z" />
<glyph unicode="&#xed;" horiz-adv-x="303" d="M274 35Q278 17 274 -2Q240 0 212 0T155 0Q126 0 98 0T35 -2Q31 17 35 35H97Q102 73 104 108T107 180V260Q107 332 97 403H40Q36 422 40 440Q79 440 125 442T217 453Q211 428 208 393T204 321T202 260V180Q202 143
204 108T212 35H274ZM299 690Q284 656 257 629T202 577T153 520Q137 517 121 520Q149 566 163 606T184 690H299Z" />
<glyph unicode="&#xee;" horiz-adv-x="303" d="M274 35Q278 17 274 -2Q240 0 212 0T155 0Q126 0 98 0T35 -2Q31 17 35 35H97Q102 73 104 108T107 180V260Q107 332 97 403H40Q36 422 40 440Q79 440 125 442T217 453Q211 428 208 393T204 321T202 260V180Q202 143
204 108T212 35H274ZM286 515Q255 530 233 543T193 570T155 596Q135 583 117 570T77 544T24 515Q12 524 7 537Q42 570 63 592T101 637T139 690Q155 693 171 690Q193 660 209 638T247 593T303 537Q298 524 286 515Z" />
<glyph unicode="&#xef;" horiz-adv-x="303" d="M274 35Q278 17 274 -2Q240 0 212 0T155 0Q126 0 98 0T35 -2Q31 17 35 35H97Q102 73 104 108T107 180V260Q107 332 97 403H40Q36 422 40 440Q79 440 125 442T217 453Q211 428 208 393T204 321T202 260V180Q202 143
204 108T212 35H274ZM55 670L110 640V575L55 545L0 575V640L55 670ZM255 670L310 640V575L255 545L200 575V640L255 670Z" />
<glyph unicode="&#xf0;" horiz-adv-x="557" d="M268 395Q232 395 206 373T165 311T150 214Q150 156 166 114T211 48T278 25L273 -15Q207 -15 156 12T75 91T45 214Q45 283 73 332T153 408T273 435L268 395ZM278 25Q315 25 341 47T381 110T396 206Q399 261 393 323T368
444T314 553T225 635T93 673Q92 684 93 693T99 710Q193 704 261 673T376 595T449 489T489 371T501 256Q501 163 473 103T394 14T273 -15L278 25ZM396 206Q396 265 380 307T336 372T268 395L273 435Q350 435 395 374T441 206H396ZM386 708L188 510Q172 522 160 538L358
736Q374 724 386 708Z" />
<glyph unicode="&#xf1;" horiz-adv-x="583" d="M37 -2Q33 17 37 35H94Q99 73 101 108T104 180V260Q104 332 94 403H42Q38 422 42 440Q77 440 117 442T199 453Q194 435 192 413T189 375L199 330V180Q199 143 201 108T209 35H266Q270 17 266 -2Q235 0 208 0T152
0Q123 0 96 0T37 -2ZM327 -2Q323 17 327 35H384Q389 73 391 108T394 180V316Q394 353 377 379T314 405Q279 405 249 387T199 330L189 375Q216 413 256 434T352 455Q411 455 442 433T492 376Q491 361 490 346T489 316V180Q489 143 491 108T499 35H556Q560 17 556
-2Q525 0 498 0T442 0Q413 0 386 0T327 -2ZM423 654Q442 651 453 641Q446 601 430 579T393 549T352 540Q333 540 319 548T293 566T270 584T246 592Q230 592 217 585T192 545Q173 548 162 558Q173 617 202 638T262 660Q286 660 303 647T336 621T369 608Q385 608
398 615T423 654Z" />
<glyph unicode="&#xf2;" horiz-adv-x="546" d="M268 415Q232 415 206 395T165 334T150 229Q150 159 166 114T211 47T278 25L273 -15Q207 -15 156 14T75 97T45 224Q45 295 73 347T153 427T273 455L268 415ZM278 25Q315 25 341 45T381 107T396 211Q396 282 380 327T336
393T268 415L273 455Q340 455 391 426T471 344T501 216Q501 145 473 93T394 13T273 -15L278 25ZM140 690H255Q262 647 276 607T318 520Q302 517 286 520Q266 551 238 576T182 629T140 690Z" />
<glyph unicode="&#xf3;" horiz-adv-x="546" d="M268 415Q232 415 206 395T165 334T150 229Q150 159 166 114T211 47T278 25L273 -15Q207 -15 156 14T75 97T45 224Q45 295 73 347T153 427T273 455L268 415ZM278 25Q315 25 341 45T381 107T396 211Q396 282 380 327T336
393T268 415L273 455Q340 455 391 426T471 344T501 216Q501 145 473 93T394 13T273 -15L278 25ZM417 690Q402 656 375 629T320 577T271 520Q255 517 239 520Q267 566 281 606T302 690H417Z" />
<glyph unicode="&#xf4;" horiz-adv-x="546" d="M268 415Q232 415 206 395T165 334T150 229Q150 159 166 114T211 47T278 25L273 -15Q207 -15 156 14T75 97T45 224Q45 295 73 347T153 427T273 455L268 415ZM278 25Q315 25 341 45T381 107T396 211Q396 282 380 327T336
393T268 415L273 455Q340 455 391 426T471 344T501 216Q501 145 473 93T394 13T273 -15L278 25ZM404 515Q373 530 351 543T311 570T273 596Q253 583 235 570T195 544T142 515Q130 524 125 537Q160 570 181 592T219 637T257 690Q273 693 289 690Q311 660 327 638T365
593T421 537Q416 524 404 515Z" />
<glyph unicode="&#xf5;" horiz-adv-x="546" d="M268 415Q232 415 206 395T165 334T150 229Q150 159 166 114T211 47T278 25L273 -15Q207 -15 156 14T75 97T45 224Q45 295 73 347T153 427T273 455L268 415ZM278 25Q315 25 341 45T381 107T396 211Q396 282 380 327T336
393T268 415L273 455Q340 455 391 426T471 344T501 216Q501 145 473 93T394 13T273 -15L278 25ZM389 654Q408 651 419 641Q412 601 396 579T359 549T318 540Q299 540 285 548T259 566T236 584T212 592Q196 592 183 585T158 545Q139 548 128 558Q139 617 168 638T228
660Q252 660 269 647T302 621T335 608Q351 608 364 615T389 654Z" />
<glyph unicode="&#xf6;" horiz-adv-x="546" d="M268 415Q232 415 206 395T165 334T150 229Q150 159 166 114T211 47T278 25L273 -15Q207 -15 156 14T75 97T45 224Q45 295 73 347T153 427T273 455L268 415ZM278 25Q315 25 341 45T381 107T396 211Q396 282 380 327T336
393T268 415L273 455Q340 455 391 426T471 344T501 216Q501 145 473 93T394 13T273 -15L278 25ZM173 670L228 640V575L173 545L118 575V640L173 670ZM373 670L428 640V575L373 545L318 575V640L373 670Z" />
<glyph unicode="&#xf7;" horiz-adv-x="620" d="M550 340H70Q66 365 70 390H550Q554 365 550 340ZM310 244L360 217V158L310 130L260 158V217L310 244ZM310 599L360 572V513L310 485L260 513V572L310 599Z" />
<glyph unicode="&#xf8;" horiz-adv-x="552" d="M435 480Q461 484 486 480Q479 421 450 374T379 286T293 208T209 134T144 54T117 -40Q92 -44 66 -40Q74 19 103 66T173 154T259 232T343 306T408 386T435 480ZM271 415Q235 415 209 395T168 334T153 229Q153 159
169 114T214 47T281 25L276 -15Q210 -15 159 14T78 97T48 224Q48 295 76 347T156 427T276 455L271 415ZM281 25Q318 25 344 45T384 107T399 211Q399 282 383 327T339 393T271 415L276 455Q343 455 394 426T474 344T504 216Q504 145 476 93T397 13T276 -15L281 25Z"
/>
<glyph unicode="&#xf9;" horiz-adv-x="564" d="M373 110L383 65Q356 27 318 6T225 -15Q170 -15 140 7T90 64Q92 79 92 94T93 124V260Q93 332 83 403H31Q27 422 31 440Q70 440 113 442T203 453Q197 428 194 393T190 321T188 260V124Q188 87 204 61T263 35Q298 35
325 53T373 110ZM530 37Q534 19 530 0Q495 0 455 -2T373 -13Q378 5 380 27T383 65L373 110V260Q373 332 363 403H306Q302 422 306 440Q345 440 391 442T483 453Q477 428 474 393T470 321T468 260V180Q468 108 478 37H530ZM148 690H263Q270 647 284 607T326 520Q310
517 294 520Q274 551 246 576T190 629T148 690Z" />
<glyph unicode="&#xfa;" horiz-adv-x="564" d="M373 110L383 65Q356 27 318 6T225 -15Q170 -15 140 7T90 64Q92 79 92 94T93 124V260Q93 332 83 403H31Q27 422 31 440Q70 440 113 442T203 453Q197 428 194 393T190 321T188 260V124Q188 87 204 61T263 35Q298 35
325 53T373 110ZM530 37Q534 19 530 0Q495 0 455 -2T373 -13Q378 5 380 27T383 65L373 110V260Q373 332 363 403H306Q302 422 306 440Q345 440 391 442T483 453Q477 428 474 393T470 321T468 260V180Q468 108 478 37H530ZM425 690Q410 656 383 629T328 577T279
520Q263 517 247 520Q275 566 289 606T310 690H425Z" />
<glyph unicode="&#xfb;" horiz-adv-x="564" d="M373 110L383 65Q356 27 318 6T225 -15Q170 -15 140 7T90 64Q92 79 92 94T93 124V260Q93 332 83 403H31Q27 422 31 440Q70 440 113 442T203 453Q197 428 194 393T190 321T188 260V124Q188 87 204 61T263 35Q298 35
325 53T373 110ZM530 37Q534 19 530 0Q495 0 455 -2T373 -13Q378 5 380 27T383 65L373 110V260Q373 332 363 403H306Q302 422 306 440Q345 440 391 442T483 453Q477 428 474 393T470 321T468 260V180Q468 108 478 37H530ZM412 515Q381 530 359 543T319 570T281
596Q261 583 243 570T203 544T150 515Q138 524 133 537Q168 570 189 592T227 637T265 690Q281 693 297 690Q319 660 335 638T373 593T429 537Q424 524 412 515Z" />
<glyph unicode="&#xfc;" horiz-adv-x="564" d="M373 110L383 65Q356 27 318 6T225 -15Q170 -15 140 7T90 64Q92 79 92 94T93 124V260Q93 332 83 403H31Q27 422 31 440Q70 440 113 442T203 453Q197 428 194 393T190 321T188 260V124Q188 87 204 61T263 35Q298 35
325 53T373 110ZM530 37Q534 19 530 0Q495 0 455 -2T373 -13Q378 5 380 27T383 65L373 110V260Q373 332 363 403H306Q302 422 306 440Q345 440 391 442T483 453Q477 428 474 393T470 321T468 260V180Q468 108 478 37H530ZM181 670L236 640V575L181 545L126 575V640L181
670ZM381 670L436 640V575L381 545L326 575V640L381 670Z" />
<glyph unicode="&#xfd;" horiz-adv-x="548" d="M225 5Q170 5 140 27T90 84Q92 99 92 114T93 144V260Q93 332 83 403H31Q27 422 31 440Q70 440 113 442T203 453Q197 428 194 393T190 321T188 260V144Q188 107 204 81T263 55Q298 55 325 73T373 130V74Q357 51 337
36T289 13T225 5ZM306 440Q345 440 391 442T483 453Q477 428 474 393T470 321T468 260V70Q468 -25 434 -91T343 -191T219 -225Q143 -225 96 -195T48 -106Q48 -55 82 -22T163 34L191 17Q154 -7 141 -34T128 -96Q128 -138 149 -161T219 -185Q277 -185 310 -155T358
-76T373 24V260Q373 332 363 403H306Q302 422 306 440ZM424 690Q409 656 382 629T327 577T278 520Q262 517 246 520Q274 566 288 606T309 690H424Z" />
<glyph unicode="&#xfe;" horiz-adv-x="554" d="M260 -175Q264 -193 260 -212Q214 -210 185 -210T126 -210Q97 -210 70 -210T11 -212Q7 -193 11 -175H68Q73 -137 75 -102T78 -30V520Q78 592 68 663H11Q7 682 11 700Q46 700 94 702T188 713Q182 688 179 653T175
581T173 520V-30Q173 -67 175 -102T183 -175H260ZM312 455Q366 455 410 430T481 355T508 227Q508 150 479 96T398 14T276 -15Q212 -15 170 7T95 62L173 138Q173 92 190 68T231 34T279 25Q338 25 370 73T403 215Q403 315 371 362T285 410Q245 410 220 387T173 330L163
375Q183 408 221 431T312 455Z" />
<glyph unicode="&#xff;" horiz-adv-x="548" d="M225 5Q170 5 140 27T90 84Q92 99 92 114T93 144V260Q93 332 83 403H31Q27 422 31 440Q70 440 113 442T203 453Q197 428 194 393T190 321T188 260V144Q188 107 204 81T263 55Q298 55 325 73T373 130V74Q357 51 337
36T289 13T225 5ZM306 440Q345 440 391 442T483 453Q477 428 474 393T470 321T468 260V70Q468 -25 434 -91T343 -191T219 -225Q143 -225 96 -195T48 -106Q48 -55 82 -22T163 34L191 17Q154 -7 141 -34T128 -96Q128 -138 149 -161T219 -185Q277 -185 310 -155T358
-76T373 24V260Q373 332 363 403H306Q302 422 306 440ZM180 670L235 640V575L180 545L125 575V640L180 670ZM380 670L435 640V575L380 545L325 575V640L380 670Z" />
<glyph unicode="&#x2013;" horiz-adv-x="484" d="M482 240H2Q-2 265 2 290H482Q486 265 482 240Z" />
<glyph unicode="&#x2014;" horiz-adv-x="784" d="M782 240H2Q-2 265 2 290H782Q786 265 782 240Z" />
<glyph unicode="&#x2018;" horiz-adv-x="214" d="M103 520L48 550V585Q48 618 59 649T91 709T140 761Q149 757 155 751T166 735Q141 712 127 689T107 641L158 615V550L103 520Z" />
<glyph unicode="&#x2019;" horiz-adv-x="214" d="M116 737L171 707V672Q171 639 160 608T129 549T79 496Q70 501 64 507T53 522Q78 545 92 568T112 616L61 642V707L116 737Z" />
<glyph unicode="&#x201a;" horiz-adv-x="230" d="M115 110L170 80V45Q170 12 159 -19T128 -78T78 -131Q69 -126 63 -120T52 -105Q77 -82 91 -59T111 -11L60 15V80L115 110Z" />
<glyph unicode="&#x201c;" horiz-adv-x="324" d="M243 520L188 550V585Q188 618 199 649T231 709T280 761Q289 757 295 751T306 735Q281 712 267 689T247 641L298 615V550L243 520ZM103 520L48 550V585Q48 618 59 649T91 709T140 761Q149 757 155 751T166 735Q141
712 127 689T107 641L158 615V550L103 520Z" />
<glyph unicode="&#x201d;" horiz-adv-x="354" d="M256 737L311 707V672Q311 639 300 608T269 549T219 496Q210 501 204 507T193 522Q218 545 232 568T252 616L201 642V707L256 737ZM116 737L171 707V672Q171 639 160 608T129 549T79 496Q70 501 64 507T53 522Q78
545 92 568T112 616L61 642V707L116 737Z" />
<glyph unicode="&#x201e;" horiz-adv-x="370" d="M255 110L310 80V45Q310 12 299 -19T268 -78T218 -131Q209 -126 203 -120T192 -105Q217 -82 231 -59T251 -11L200 15V80L255 110ZM115 110L170 80V45Q170 12 159 -19T128 -78T78 -131Q69 -126 63 -120T52 -105Q77
-82 91 -59T111 -11L60 15V80L115 110Z" />
<glyph unicode="&#x2022;" horiz-adv-x="357" d="M178 466L267 418V313L178 265L90 313V418L178 466Z" />
<glyph unicode="&#x2039;" horiz-adv-x="351" d="M33 213H153Q187 248 211 277T255 335T298 393Q287 406 270 412Q218 356 162 309T33 213ZM33 213Q106 164 162 117T270 14Q287 20 298 33Q276 63 256 91T211 148T153 213H33Z" />
<glyph unicode="&#x203a;" horiz-adv-x="351" d="M318 213H198Q165 178 141 149T96 91T53 33Q64 20 81 14Q133 70 189 117T318 213ZM318 213Q245 262 189 309T81 412Q64 406 53 393Q75 363 95 335T140 278T198 213H318Z" />
</font>
</defs>
</svg>
