<?xml version="1.0" standalone="no"?>
<!DOCTYPE svg PUBLIC "-//W3C//DTD SVG 1.1//EN" "http://www.w3.org/Graphics/SVG/1.1/DTD/svg11.dtd">
<svg xmlns="http://www.w3.org/2000/svg">
<defs >
<font id="PadyakkeExpandedOne" horiz-adv-x="985" ><font-face
    font-family="Padyakke Expanded One"
    units-per-em="1000"
    panose-1="0 0 0 0 0 0 0 0 0 0"
    ascent="813"
    descent="-628"
    alphabetic="0" />
<glyph unicode=" " glyph-name="space" horiz-adv-x="272" />
<glyph unicode="!" glyph-name="exclam" horiz-adv-x="286" d="M135 149L131 272Q127 386 121 457T114 542Q114 555 121 564T144 574Q160 574 167 565T174 542Q174 529 167 458T156 272L152 149H135ZM143 -10Q119 -10 107 -1T94 22Q94 36 106 45T143 55Q167 55
179 46T192 22Q192 9 180 0T143 -10Z" />
<glyph unicode="&quot;" glyph-name="quotedbl" horiz-adv-x="371" d="M111 562L146 556L101 359L85 360L111 562ZM261 562L296 556L251 359L235 360L261 562Z" />
<glyph unicode="#" glyph-name="numbersign" horiz-adv-x="789" d="M769 332H585L528 175H719V152H519L464 0H440L495 152H225L169 0H145L201 152H20V175H209L266 332H69V356H275L324 490H349L300 356H569L617 490H642L593 356H769V332ZM503 175L560 332H291L233
175H503Z" />
<glyph unicode="$" glyph-name="dollar" horiz-adv-x="819" d="M435 246Q601 233 676 207T751 121Q751 84 723 59T646 21T536 6Q512 5 487 7T435 14V-111H412V18Q357 29 304 47T207 90T132 139V8H109V191Q143 154 193 124T300 74T412 42V225Q299 234 233 250T139
292T111 350Q111 406 170 435T328 464Q372 464 412 458V581H435V455Q520 439 585 406T694 337V464H716V290Q661 343 590 379T435 430V246ZM136 350Q136 322 162 303T249 270T412 248V434Q370 440 326 440Q244 440 190 419T136 350ZM537 30Q589 31 632 41T701 71T727
121Q727 153 698 172T604 202T435 223V38Q463 34 488 32T537 30Z" />
<glyph unicode="%" glyph-name="percent" horiz-adv-x="945" d="M180 -25L164 -10L764 495L780 481L180 -25ZM216 231Q172 231 137 247T81 291T60 357Q60 415 104 448T216 482Q283 482 327 447T372 356Q372 299 328 265T216 231ZM216 253Q275 253 312 281T349
356Q349 401 312 430T216 460Q158 460 121 432T83 357Q83 312 120 283T216 253ZM730 -11Q663 -11 619 24T574 114Q574 172 618 206T730 240Q775 240 810 224T865 179T885 114Q885 56 841 23T730 -11ZM730 10Q788 10 825 38T862 114Q862 159 825 188T730 217Q671
217 634 189T597 114Q597 70 634 40T730 10Z" />
<glyph unicode="&amp;" glyph-name="ampersand" horiz-adv-x="718" d="M714 21Q685 5 657 -2T592 -10Q529 -10 460 22Q419 7 370 -2T264 -11Q147 -13 94 26T40 124Q40 166 64 193T133 240T242 279Q238 298 235 318T232 360Q232 411 254 449T312 507T389 528Q442
528 471 498T501 430Q501 372 445 333T272 263Q296 189 349 134T463 47Q536 76 575 121T615 210Q615 249 600 269T566 309L584 325Q603 310 622 283T641 209Q641 162 602 115T491 35Q542 14 592 14Q628 14 653 20T705 42L714 21ZM257 360Q257 321 266 285Q476 344
476 425Q476 460 453 483T389 506Q360 506 329 491T278 443T257 360ZM264 11Q312 11 354 17T433 36Q372 70 322 126T248 257Q162 232 114 205T65 124Q65 95 83 69T145 27T264 11Z" />
<glyph unicode="&apos;" glyph-name="quotesingle" horiz-adv-x="221" d="M111 562L146 556L101 359L85 360L111 562Z" />
<glyph unicode="(" glyph-name="parenleft" horiz-adv-x="352" d="M330 -89Q298 -72 258 -42T181 31T119 133T95 265Q95 339 119 397T180 499T258 573T330 619L337 600Q310 584 274 556T202 487T143 391T120 265Q120 195 143 140T201 44T273 -25T337 -70L330 -89Z" />
<glyph unicode=")" glyph-name="parenright" horiz-adv-x="352" d="M23 -89L15 -70Q43 -53 79 -25T151 43T209 139T232 265Q232 336 209 391T151 486T80 555T15 600L23 619Q55 603 94 573T171 499T233 397T257 265Q257 192 233 134T172 32T95 -42T23 -89Z" />
<glyph unicode="*" glyph-name="asterisk" horiz-adv-x="442" d="M214 492L211 516Q208 539 201 563T193 600Q193 609 199 617T222 625Q236 625 243 617T251 600Q251 588 242 563T230 516L228 492H214ZM76 469Q59 471 48 477T36 497Q36 508 44 515T65 522Q85 522
108 505T160 476L184 467L181 456L153 462Q132 467 113 467T76 469ZM366 469Q350 468 330 468T289 462L261 456L258 467L282 476Q311 487 334 504T377 522Q390 522 398 515T406 497Q406 484 395 478T366 469ZM323 310Q304 310 293 330Q286 342 277 362T257 396L241
419L250 426L270 408Q284 396 304 383T335 361Q343 354 346 348T349 336Q349 325 341 318T323 310ZM118 310Q108 310 100 317T92 336Q92 342 95 348T106 361Q117 369 137 382T171 408L191 426L200 419L185 396Q175 382 165 362T148 330Q137 310 118 310Z" />
<glyph unicode="+" glyph-name="plus" horiz-adv-x="637" d="M567 247V224H331V43H306V224H70V247H306V427H331V247H567Z" />
<glyph unicode="," glyph-name="comma" horiz-adv-x="267" d="M193 3Q193 -29 162 -71T85 -150L74 -139Q112 -104 139 -71T172 -5Q163 -7 153 -8T132 -10Q113 -10 101 -2T89 21Q89 35 102 45T139 55Q165 55 179 41T193 3Z" />
<glyph unicode="-" glyph-name="hyphen" horiz-adv-x="326" d="M299 191V167H28V191H299Z" />
<glyph unicode="." glyph-name="period" horiz-adv-x="246" d="M124 -10Q100 -10 87 -1T74 22Q74 36 87 45T124 55Q147 55 159 46T172 22Q172 9 160 0T124 -10Z" />
<glyph unicode="/" glyph-name="slash" horiz-adv-x="417" d="M49 -80H21L355 561H382L49 -80Z" />
<glyph unicode="0" glyph-name="zero" horiz-adv-x="772" d="M386 -10Q321 -10 262 6T158 52T86 129T60 235Q60 293 86 338T157 416T262 464T386 481Q451 481 509 465T613 416T685 339T712 235Q712 175 686 129T614 53T510 6T386 -10ZM386 14Q468 14 536 39T645
114T687 235Q687 303 646 353T536 430T386 457Q305 457 237 430T128 353T86 235Q86 164 127 115T237 40T386 14Z" />
<glyph unicode="1" glyph-name="one" horiz-adv-x="477" d="M70 0V23H262V433Q234 389 184 367T74 336L70 361Q112 366 150 379T219 418T262 481H286V23H446V0H70Z" />
<glyph unicode="2" glyph-name="two" horiz-adv-x="734" d="M60 0V23V23Q62 79 92 115T185 174T345 216Q431 233 490 246T581 281T611 343Q611 380 580 405T499 445T390 459Q296 459 220 429T82 349L66 366Q127 419 207 450T390 481Q435 481 479 473T558 447T615
404T636 342Q636 294 603 268T506 226T356 194Q259 176 200 155T114 103T85 23H630V183H653V0H60Z" />
<glyph unicode="3" glyph-name="three" horiz-adv-x="702" d="M356 -11Q274 -11 211 4T106 39T40 76L55 95Q77 78 118 59T219 25T357 11Q432 11 489 24T579 61T612 115Q612 167 548 192T337 218H175V240H337Q465 240 524 273T584 352Q584 400 526 429T367 459Q276
459 201 440T65 390L56 410Q118 442 197 461T367 481Q436 481 491 467T577 424T609 352Q609 309 564 276T435 231Q525 224 581 198T637 115Q637 79 603 51T505 6T356 -11Z" />
<glyph unicode="4" glyph-name="four" horiz-adv-x="685" d="M670 149V125H510V-10H485V125H25V149L472 481H510V149H670ZM67 149H485V462L67 149Z" />
<glyph unicode="5" glyph-name="five" horiz-adv-x="694" d="M376 275Q492 274 559 241T627 136Q627 93 593 60T500 9T370 -10Q293 -10 233 5T131 40T65 77L80 96Q102 80 142 61T241 28T372 14Q432 14 484 28T569 70T602 136Q603 192 547 221T366 252Q283 253
219 243T96 220V470H609V447H120V249Q176 260 237 268T376 275Z" />
<glyph unicode="6" glyph-name="six" horiz-adv-x="709" d="M368 -10Q229 -10 147 44T65 211Q65 294 109 354T227 447T393 480Q470 480 521 470T615 447L609 424Q567 436 517 446T393 456Q309 456 241 427T133 345T89 218Q147 241 226 258T403 275Q476 275 533
261T622 218T655 141Q655 94 616 60T511 8T368 -10ZM393 252Q298 253 222 235T90 193Q94 134 131 94T229 34T368 14Q443 14 501 30T593 75T628 140Q630 197 570 224T393 252Z" />
<glyph unicode="7" glyph-name="seven" horiz-adv-x="709" d="M65 467H669V444L227 -10L211 5L636 444H89V284H65V467Z" />
<glyph unicode="8" glyph-name="eight" horiz-adv-x="780" d="M397 -10Q284 -10 212 11T105 65T70 136Q70 174 100 202T180 251Q129 268 110 293T90 349Q90 384 123 414T221 462T382 481Q486 481 554 460T656 406T690 334Q690 293 660 268T589 224Q659 206 684
178T709 122Q709 69 633 30T397 -10ZM390 247Q443 246 485 242T561 231Q603 248 634 270T665 334Q665 383 594 420T381 457Q254 457 185 426T115 349Q115 320 139 298T224 263T390 247ZM95 136Q95 104 127 76T227 31T399 14Q542 14 613 45T684 122Q684 148 659
170T569 207T389 224Q330 225 285 230T206 243Q157 224 126 199T95 136Z" />
<glyph unicode="9" glyph-name="nine" horiz-adv-x="709" d="M316 -10Q240 -10 189 0T95 22L101 45Q142 34 193 24T316 14Q401 14 469 43T577 125T620 252Q563 228 484 211T306 194Q234 195 177 208T88 251T55 328Q55 375 95 409T200 461T341 480Q481 480 562
425T644 257Q644 175 600 115T481 23T316 -10ZM81 330Q80 272 140 245T316 217Q411 216 487 234T619 277Q615 337 579 376T481 436T341 456Q267 456 209 440T116 395T81 330Z" />
<glyph unicode=":" glyph-name="colon" horiz-adv-x="273" d="M135 302Q113 302 101 311T88 334Q88 348 100 357T135 366Q160 366 172 357T185 334Q185 321 173 312T135 302ZM135 -10Q113 -10 101 -1T88 22Q88 36 100 45T135 55Q160 55 172 46T185 22Q185 9 173
0T135 -10Z" />
<glyph unicode=";" glyph-name="semicolon" horiz-adv-x="295" d="M152 301Q129 301 116 310T103 334Q103 348 116 356T152 365Q176 365 188 357T201 334Q201 320 189 311T152 301ZM99 -160L89 -149Q127 -114 154 -81T186 -15Q177 -17 167 -18T146 -20Q127 -20
115 -12T103 11Q103 25 116 35T153 45Q180 45 193 31T207 -7Q207 -39 176 -81T99 -160Z" />
<glyph unicode="&lt;" glyph-name="less" horiz-adv-x="575" d="M494 424V399L88 236L494 74V49L40 234V236L494 424Z" />
<glyph unicode="=" glyph-name="equal" horiz-adv-x="637" d="M567 347V324H70V347H567ZM567 146V124H70V146H567Z" />
<glyph unicode="&gt;" glyph-name="greater" horiz-adv-x="575" d="M81 424L535 236V234L81 49V74L487 236L81 399V424Z" />
<glyph unicode="?" glyph-name="question" horiz-adv-x="474" d="M50 494Q91 510 132 520T226 530Q274 530 315 517T383 476T409 409Q409 376 391 353T343 315T280 289Q246 277 216 267T166 243T147 210Q147 189 155 172T174 134L161 130Q145 153 135 174T124
216Q124 241 146 256T203 284T274 309Q318 325 351 347T384 409Q384 453 339 479T226 506Q174 506 135 497T57 471L50 494ZM184 -10Q161 -10 148 -1T135 22Q135 36 148 45T184 55Q209 55 221 46T233 22Q233 9 221 0T184 -10Z" />
<glyph unicode="@" glyph-name="at" horiz-adv-x="926" d="M396 21Q331 21 289 42T246 106Q246 154 297 175T431 196Q484 196 535 190T631 177V199Q631 243 595 273T484 303Q428 303 374 291T264 261V286Q318 303 373 314T484 326Q572 326 612 291T653 199V121Q653
90 672 67T730 44Q759 44 784 63T825 118T841 201Q841 277 797 340T672 443T477 482Q390 482 318 458T194 390T114 289T85 165Q85 93 111 41T182 -46T283 -97T399 -114Q464 -114 511 -104T592 -78T650 -50L660 -71Q636 -85 601 -101T515 -128T399 -139Q336 -139
276 -121T167 -64T89 31T60 165Q60 237 90 299T177 407T309 480T477 506Q596 506 683 466T818 356T866 201Q866 145 846 105T794 43T730 21Q692 21 670 38T637 81Q579 52 518 37T396 21ZM270 106Q270 85 288 72T334 51T396 44Q454 44 513 59T632 101Q631 111 631
121V153Q585 160 534 167T428 174Q387 174 351 168T292 147T270 106Z" />
<glyph unicode="A" glyph-name="A" horiz-adv-x="1025" d="M-5 0V23H156L484 497H324V520H700V497H540L869 23H1030V0H691V23H841L720 199H307L186 23H334V0H-5ZM323 222H704L514 497H512L323 222Z" />
<glyph unicode="B" glyph-name="B" horiz-adv-x="962" d="M56 0V23H239V496H56V520H667Q744 520 786 485T828 391Q828 344 801 311T718 267Q783 259 822 228T862 136Q862 68 812 34T674 0H56ZM665 496H264V279H661Q724 279 763 307T803 391Q803 447 764 471T665
496ZM656 254L264 255V23H667Q744 23 790 49T837 136Q837 179 813 205T747 242T656 254Z" />
<glyph unicode="C" glyph-name="C" horiz-adv-x="890" d="M431 -11Q359 -11 295 7T182 60T104 145T75 260Q75 325 104 375T185 460T301 513T440 531Q553 531 636 489T773 377V520H797V332L785 330Q717 428 630 467T440 507Q371 507 310 491T201 442T127 364T100
260Q100 183 145 128T265 43T431 13Q531 13 601 39T715 105T779 181L800 168Q776 127 731 86T612 17T431 -11Z" />
<glyph unicode="D" glyph-name="D" horiz-adv-x="965" d="M56 0V23H239V496H56V520H545Q648 520 725 492T846 406T890 260Q890 173 847 115T726 29T545 0H56ZM545 496H264V23H545Q643 23 714 49T825 128T865 260Q865 339 826 391T715 470T545 496Z" />
<glyph unicode="E" glyph-name="E" horiz-adv-x="972" d="M56 0V23H239V496H56V520H862V337H837V496H264V284H572V392H597V153H572V261H264V23H838V183H862V0H56Z" />
<glyph unicode="F" glyph-name="F" horiz-adv-x="887" d="M56 0V23H239V496H56V520H812V337H788V496H264V264H541V371H566V132H541V240H264V23H456V0H56Z" />
<glyph unicode="G" glyph-name="G" horiz-adv-x="904" d="M436 -10Q364 -10 300 8T186 60T109 145T80 259Q80 324 109 374T190 459T306 513T444 531Q559 531 642 489T778 377V520H801V331L790 330Q723 428 636 467T444 507Q352 507 275 478T151 393T105 259Q105
183 150 128T270 44T436 14Q534 14 621 41T776 116V231H436V255H801V104Q731 51 637 21T436 -10Z" />
<glyph unicode="H" glyph-name="H" horiz-adv-x="1132" d="M56 0V23H238V496H56V520H444V496H263V276H869V496H686V520H1076V496H894V23H1076V0H686V23H869V252H263V23H444V0H56Z" />
<glyph unicode="I" glyph-name="I" horiz-adv-x="501" d="M56 0V23H239V496H56V520H445V496H264V23H445V0H56Z" />
<glyph unicode="J" glyph-name="J" horiz-adv-x="653" d="M249 -10Q190 -10 146 8T71 55T20 111L36 127Q57 100 87 74T158 31T249 14Q303 14 347 32T419 89T446 186V496H206V520H653V496H471V186Q471 125 443 82T365 14T249 -10Z" />
<glyph unicode="K" glyph-name="K" horiz-adv-x="998" d="M56 0V23H239V496H56V520H445V496H264V165L768 496H600V520H952V496H808L490 287L815 23H962V0H610V23H779L470 274L264 139V23H445V0H56Z" />
<glyph unicode="L" glyph-name="L" horiz-adv-x="840" d="M56 0V23H239V496H56V520H445V496H264V23H765V183H790V0H56Z" />
<glyph unicode="M" glyph-name="M" horiz-adv-x="1238" d="M1182 496H1000V23H1182V0H825V23H975V476L622 -11H616L264 476V23H414V0H56V23H239V496H56V520H264L620 27L975 520H1182V496Z" />
<glyph unicode="N" glyph-name="N" horiz-adv-x="1107" d="M1092 520V496H910V-5H906L264 486V23H445V0H56V23H239V496H56V520H264L885 43V496H703V520H1092Z" />
<glyph unicode="O" glyph-name="O" horiz-adv-x="916" d="M459 -10Q351 -10 264 22T126 114T75 260Q75 346 126 406T264 499T459 531Q567 531 653 499T790 407T841 260Q841 175 791 115T654 22T459 -10ZM459 14Q562 14 642 43T769 128T816 260Q816 338 770 393T643
477T459 507Q356 507 275 478T147 393T100 260Q100 183 146 128T274 44T459 14Z" />
<glyph unicode="P" glyph-name="P" horiz-adv-x="935" d="M56 0V23H239V496H56V520H694Q777 520 826 479T875 365Q875 300 827 257T694 214H264V23H456V0H56ZM701 496H264V237H701Q766 237 808 272T850 365Q850 425 810 460T701 496Z" />
<glyph unicode="Q" glyph-name="Q" horiz-adv-x="917" d="M880 -9L902 -14Q894 -78 850 -118T736 -158Q692 -158 656 -141T585 -89T511 -8L459 -10Q351 -10 264 22T126 114T75 260Q75 346 126 406T264 499T459 531Q567 531 653 499T790 407T841 260Q841 186 802
131T696 41T540 -5Q589 -63 634 -99T736 -135Q795 -135 833 -101T880 -9ZM459 507Q356 507 275 478T147 393T100 260Q100 242 103 224H180Q246 224 293 209T378 165T450 99T521 17Q608 26 674 57T778 139T816 260Q816 338 770 393T643 477T459 507ZM108 200Q126
141 175 100T297 36T459 14L492 15Q450 66 409 108T314 175T180 200H108Z" />
<glyph unicode="R" glyph-name="R" horiz-adv-x="1046" d="M56 -1V23H239V496H56V520H717Q810 520 855 479T901 378Q901 344 881 313T820 261T717 241H553Q587 230 613 206T675 139Q705 103 731 75T786 31T855 14Q913 14 950 54T987 155V176H1012V155Q1012 110
993 73T938 13T855 -10Q811 -10 777 8T714 56T655 125Q625 163 600 188T544 227T472 240H264V24H445V0L56 -1ZM717 496H264V264H717Q797 264 836 298T875 378Q875 425 837 460T717 496Z" />
<glyph unicode="S" glyph-name="S" horiz-adv-x="867" d="M532 -10Q452 -10 377 9T240 60T139 126V0H115V175L121 177Q166 125 234 89T381 34T534 14Q596 14 645 25T724 61T753 124Q753 163 722 186T622 222T440 244Q317 253 247 270T147 317T117 386Q117 457
184 494T374 531Q460 531 525 512T637 461T719 394V520H742V346L736 344Q672 419 585 463T372 507Q268 507 205 478T142 386Q142 351 170 328T263 291T440 268Q560 259 634 243T743 199T777 124Q777 79 746 50T659 5T532 -10Z" />
<glyph unicode="T" glyph-name="T" horiz-adv-x="900" d="M246 0V23H438V497H89V337H64V520H836V337H811V497H463V23H655V0H246Z" />
<glyph unicode="U" glyph-name="U" horiz-adv-x="1001" d="M0 496V520H386V496H205L207 243Q208 166 245 115T348 39T501 13Q588 13 654 38T757 114T794 241L797 496H615V520H1001V496H819V254Q819 167 780 108T669 19T501 -11Q405 -11 334 19T222 108T182 254V496H0Z" />
<glyph unicode="V" glyph-name="V" horiz-adv-x="936" d="M465 -11L157 496H-5V520H332V496H188L469 30L752 496H605V520H941V496H780L471 -11H465Z" />
<glyph unicode="W" glyph-name="W" horiz-adv-x="1212" d="M1217 520V496H1055L844 -10H837L607 457L374 -10H365L156 496H-5V520H332V496H185L372 40L603 507H611L841 39L1028 496H881V520H1217Z" />
<glyph unicode="X" glyph-name="X" horiz-adv-x="951" d="M762 496L494 253L747 23H906V0H569V23H709L475 238L241 23H381V0H45V23H206L457 253L189 496H45V520H382V496H227L477 268L727 496H569V520H906V496H762Z" />
<glyph unicode="Y" glyph-name="Y" horiz-adv-x="920" d="M753 496L474 184V23H656V0H266V23H449V180L167 496H5V520H342V496H203L461 206L719 496H580V520H916V496H753Z" />
<glyph unicode="Z" glyph-name="Z" horiz-adv-x="864" d="M108 0V14L710 497H130V337H105V520H760V507L162 23H739V183H764V0H108Z" />
<glyph unicode="[" glyph-name="bracketleft" horiz-adv-x="369" d="M380 581H180V-53H380V-76H155V605H380V581Z" />
<glyph unicode="\" glyph-name="backslash" horiz-adv-x="417" d="M368 -80L25 561H53L396 -80H368Z" />
<glyph unicode="]" glyph-name="bracketright" horiz-adv-x="369" d="M-11 581V605H214V-76H-11V-53H189V581H-11Z" />
<glyph unicode="^" glyph-name="asciicircum" horiz-adv-x="457" d="M235 616L407 325H381L233 580L77 325H50L232 616H235Z" />
<glyph unicode="_" glyph-name="underscore" horiz-adv-x="400" d="M410 -67V-91H-10V-67H410Z" />
<glyph unicode="`" glyph-name="grave" horiz-adv-x="490" d="M300 600L291 584L50 714L65 741L300 600Z" />
<glyph unicode="a" glyph-name="a" horiz-adv-x="805" d="M287 -10Q193 -10 142 17T90 94Q90 150 153 179T328 209Q415 209 487 199T622 177V197Q622 260 573 301T415 343Q337 343 263 327T111 286L105 310Q187 337 263 352T415 367Q533 367 590 320T647 197V93Q647
53 666 34T711 14Q751 14 779 38L792 19Q775 6 754 -2T710 -10Q676 -10 653 11T624 71Q544 31 456 11T287 -10ZM115 96Q115 56 160 35T287 14Q365 14 451 34T622 93V155Q560 168 485 177T328 186Q229 186 172 162T115 96Z" />
<glyph unicode="b" glyph-name="b" horiz-adv-x="860" d="M161 0V496H-20V520H186V228Q270 287 358 326T541 366Q648 366 714 321T780 195Q780 131 738 85T627 14T476 -11Q386 -11 313 12T185 65L180 0H161ZM541 343Q458 343 368 305T186 204V87Q241 58 317 35T476
13Q552 12 615 34T717 98T755 195Q755 261 699 302T541 343Z" />
<glyph unicode="c" glyph-name="c" horiz-adv-x="774" d="M365 -11Q287 -11 222 11T119 74T80 172Q80 221 105 258T174 319T270 355T377 366Q463 366 535 337T649 265V357H672V221L666 220Q633 263 586 290T484 330T375 343Q325 343 277 333T190 301T128 247T105
172Q105 125 139 90T233 34T365 13Q459 12 534 41T664 114L678 96Q620 49 543 19T365 -11Z" />
<glyph unicode="d" glyph-name="d" horiz-adv-x="904" d="M318 -11Q211 -11 146 34T80 161Q80 226 122 271T233 341T384 366Q473 366 546 343T674 292V497H491V520H699V94Q699 53 718 34T762 14Q783 14 799 20T834 39L844 19Q825 6 805 -2T761 -10Q723 -10 699
17T674 94V127Q590 68 502 29T318 -11ZM105 161Q105 96 161 55T318 13Q401 13 492 52T674 153V268Q618 296 542 319T384 343Q308 343 245 321T143 257T105 161Z" />
<glyph unicode="e" glyph-name="e" horiz-adv-x="751" d="M370 -11Q289 -11 224 10T119 73T80 171Q80 218 107 254T180 316T283 353T400 366Q513 366 582 336T652 250Q652 211 621 187T536 152T414 140Q334 140 259 154T107 194Q105 183 105 171Q105 124 139 89T234
34T370 13Q463 12 531 33T655 89L666 69Q609 34 541 12T370 -11ZM400 343Q336 343 276 328T173 283T113 212Q261 164 414 164Q474 164 522 172T599 199T627 250Q627 294 566 318T400 343Z" />
<glyph unicode="f" glyph-name="f" horiz-adv-x="555" d="M50 0V23H210V334H50V357H210V386Q210 467 249 511T375 556Q424 556 471 544T555 520L547 497Q509 512 463 522T374 532Q301 532 268 497T235 389V357H459V334H235V23H442V0H50Z" />
<glyph unicode="g" glyph-name="g" horiz-adv-x="756" d="M350 -165Q202 -165 136 -132T70 -49Q70 -23 86 -3T121 27Q96 41 87 58T78 91Q78 123 101 144T149 175Q124 203 124 239Q124 283 159 311T251 353T376 367Q428 367 475 359T558 334Q570 387 606 415T689
446V421Q649 419 618 398T572 327Q599 311 614 290T630 239Q630 194 595 165T502 122T376 108Q310 107 253 120T162 163Q139 153 120 136T101 94Q101 79 113 64T156 37T239 26Q268 26 309 31T397 42T485 54T555 59Q612 59 651 38T691 -30Q691 -75 646 -105T524
-150T350 -165ZM376 132Q439 132 491 144T574 180T605 239Q605 275 574 298T491 332T376 343Q315 343 263 332T180 298T149 239Q149 204 180 180T263 144T376 132ZM95 -46Q95 -86 153 -114T349 -142Q439 -142 510 -130T624 -93T666 -30Q666 5 635 20T555 36Q525
36 483 32T396 21T308 10T236 5Q205 5 182 8T140 19Q120 9 108 -8T95 -46Z" />
<glyph unicode="h" glyph-name="h" horiz-adv-x="938" d="M30 0V23H214V496H31V520H239V223Q273 251 321 284T426 342T547 366Q625 366 669 334T733 249T752 135V23H925V0H567V23H727V135Q727 173 720 210T693 277T638 325T547 343Q500 343 456 329T371 292T298
245T239 200V23H397V0H30Z" />
<glyph unicode="i" glyph-name="i" horiz-adv-x="469" d="M50 0V23H232V334H50V357H257V23H440V0H50ZM233 471Q211 471 199 479T186 501Q186 514 198 522T233 531Q256 531 268 523T280 501Q280 488 268 480T233 471Z" />
<glyph unicode="j" glyph-name="j" horiz-adv-x="419" d="M125 -180Q87 -180 52 -173T-15 -155L-8 -133Q24 -143 58 -150T126 -157Q183 -157 213 -123T244 -23V334H61V357H269V-22Q269 -95 233 -137T125 -180ZM247 471Q225 471 213 479T200 501Q200 514 212 522T247
531Q270 531 282 523T294 501Q294 488 282 480T247 471Z" />
<glyph unicode="k" glyph-name="k" horiz-adv-x="890" d="M30 0V23H211V496H30V520H236V240Q320 296 408 331T582 366Q663 366 709 339T756 264Q756 202 686 170T494 134Q543 73 585 39T685 4Q729 4 764 29T809 104L830 99Q820 48 782 14T684 -20Q619 -20 567
24T468 134Q399 134 337 142T236 157V23H419V0H30ZM577 343Q494 343 407 309T236 219V175Q262 172 301 168T386 161T472 158Q548 158 606 170T698 205T731 262Q731 303 690 323T577 343Z" />
<glyph unicode="l" glyph-name="l" horiz-adv-x="448" d="M30 0V23H211V496H30V520H236V23H419V0H30Z" />
<glyph unicode="m" glyph-name="m" horiz-adv-x="1260" d="M50 0V23H232V334H50V357H257V229Q285 265 320 296T399 347T493 367Q571 367 608 327T655 223Q683 260 719 293T801 346T897 367Q961 367 997 340T1049 265T1065 156V23H1247V0H905V23H1040V156Q1040
207 1029 249T988 317T897 343Q846 343 804 323T727 271T658 201Q660 180 660 156V23H795V0H501V23H636V156Q636 207 625 249T583 317T493 343Q442 343 401 324T325 272T257 203V23H392V0H50Z" />
<glyph unicode="n" glyph-name="n" horiz-adv-x="957" d="M50 0V23H232V334H50V357H257V222Q282 242 315 267T389 314T474 351T567 366Q646 366 690 334T753 249T772 135V23H944V0H587V23H747V135Q747 173 740 210T713 277T658 325T567 343Q519 343 475 328T390
291T316 243T257 198V23H417V0H50Z" />
<glyph unicode="o" glyph-name="o" horiz-adv-x="799" d="M399 -11Q310 -11 238 11T123 76T80 179Q80 240 122 281T237 344T399 366Q489 366 561 345T676 282T719 179Q719 119 677 77T562 12T399 -11ZM399 13Q483 13 550 33T655 90T694 179Q694 232 656 268T550
323T399 342Q316 342 249 323T144 268T105 179Q105 127 143 90T249 33T399 13Z" />
<glyph unicode="p" glyph-name="p" horiz-adv-x="910" d="M30 -165V-142H211V334H30V357H236V228Q320 287 408 326T591 366Q699 366 764 321T830 195Q830 131 788 85T677 14T526 -11Q436 -11 363 12T236 65V-142H428V-165H30ZM591 343Q508 343 418 305T236 204V87Q291
58 367 35T526 13Q602 12 665 34T767 98T805 195Q805 261 749 302T591 343Z" />
<glyph unicode="q" glyph-name="q" horiz-adv-x="906" d="M699 -142H881V-165H481V-142H674V127Q590 69 502 29T318 -11Q211 -11 146 34T80 161Q80 226 122 271T233 341T384 366Q457 367 531 352T676 312L686 368H699V304Q734 291 767 277T831 249V224Q801 238
768 251T699 278V-142ZM318 13Q401 13 492 52T674 153V287Q601 311 527 327T384 343Q308 343 245 321T143 257T105 161Q105 96 161 55T318 13Z" />
<glyph unicode="r" glyph-name="r" horiz-adv-x="725" d="M50 0V23H232V334H50V357H257V221Q345 287 433 327T625 367L650 366V219H625V343Q533 343 443 305T257 198V23H440V0H50Z" />
<glyph unicode="s" glyph-name="s" horiz-adv-x="744" d="M409 -10Q315 -10 238 18T118 87V0H95V136Q130 93 181 66T292 25T414 12Q466 12 512 18T586 40T615 85Q615 111 591 126T511 150T364 164Q226 172 164 196T102 267Q102 312 154 339T319 367Q412 367 485
339T599 268V357H622V220Q568 285 489 315T315 345Q227 345 177 326T126 268Q126 234 180 216T364 189Q506 180 572 160T639 86Q639 36 578 13T409 -10Z" />
<glyph unicode="t" glyph-name="t" horiz-adv-x="524" d="M286 -11Q225 -11 190 20T155 124V333H25V357H155V456H180V357H418V333H180V124Q180 62 209 38T284 13Q336 13 379 26T453 55L464 34Q431 19 385 4T286 -11Z" />
<glyph unicode="u" glyph-name="u" horiz-adv-x="910" d="M14 334V357H210V165Q210 86 254 50T381 13Q453 13 530 41T680 106V334H519V357H705V94Q705 53 724 34T769 14Q806 14 841 39L850 19Q831 6 812 -2T767 -10Q732 -10 708 14T680 84Q608 48 536 19T381 -11Q291
-11 238 30T185 165V334H14Z" />
<glyph unicode="v" glyph-name="v" horiz-adv-x="753" d="M0 334V357H274V334H153L375 23L598 334H480V357H753V334H624L377 -11H371L122 334H0Z" />
<glyph unicode="w" glyph-name="w" horiz-adv-x="976" d="M972 357V334H843L676 -10H670L485 311L301 -10H295L129 334H5V357H278V334H156L301 29L484 349H490L674 27L818 334H697V357H972Z" />
<glyph unicode="x" glyph-name="x" horiz-adv-x="840" d="M672 334L439 180L676 23H785V0H476V23H635L418 168L201 23H364V0H55V23H165L401 179L165 334H55V357H364V334H206L422 191L637 334H476V357H785V334H672Z" />
<glyph unicode="y" glyph-name="y" horiz-adv-x="762" d="M190 -180Q142 -180 108 -168T35 -139L43 -116Q81 -134 115 -145T191 -157Q244 -157 282 -129T353 -49L367 -27L128 334H5V357H278V334H156L382 -3L597 334H480V357H752V334H625L381 -49Q346 -105 301
-142T190 -180Z" />
<glyph unicode="z" glyph-name="z" horiz-adv-x="766" d="M682 125L706 121Q696 61 652 25T522 -11Q452 -11 372 17T199 84Q176 65 156 42T121 -10L100 1Q128 59 172 94T271 151T381 190Q430 205 476 221T559 259Q505 279 446 298T311 331T136 344V218H111V366H136Q220
366 284 358T400 335T494 305T580 274Q603 291 620 313T647 366L669 358Q651 299 607 265T505 211T385 170Q342 156 299 139T218 97Q308 60 384 37T522 13Q584 13 628 40T682 125Z" />
<glyph unicode="{" glyph-name="braceleft" horiz-adv-x="480" d="M305 -120Q260 -120 216 -108T143 -70T114 -2Q114 31 132 53T177 90T233 119Q266 134 291 150T316 190Q316 219 281 237T172 255H110V276H172Q246 276 281 294T316 340Q316 366 291 381T232 412Q204
425 177 439T132 476T114 532Q114 575 143 600T216 638T305 650Q351 650 393 643T469 625L462 603Q434 612 396 619T314 626Q275 626 235 617T167 587T139 530Q139 505 153 488T191 459T240 435Q265 424 288 412T325 382T340 340Q340 312 314 293T244 265Q287 257
313 238T340 191Q340 166 326 149T288 120T240 96Q215 85 192 73T154 43T139 1Q139 -35 166 -56T234 -87T314 -96Q358 -96 396 -89T462 -74L469 -95Q435 -105 393 -112T305 -120Z" />
<glyph unicode="|" glyph-name="bar" horiz-adv-x="275" d="M125 634H150V-146H125V634Z" />
<glyph unicode="}" glyph-name="braceright" horiz-adv-x="480" d="M175 -120Q129 -120 87 -113T11 -95L18 -74Q47 -81 85 -88T166 -96Q205 -96 245 -87T313 -57T341 1Q341 26 327 43T289 72T240 96Q215 108 192 120T155 149T140 191Q140 219 166 238T236 265Q193
273 167 292T140 340Q140 365 154 382T192 411T240 435Q266 447 289 459T326 488T341 530Q341 566 314 587T246 617T166 626Q123 626 85 619T18 603L11 625Q45 636 87 643T175 650Q220 650 264 638T337 601T366 532Q366 498 348 476T303 440T248 412Q215 397 190
382T164 340Q164 312 199 294T308 276H370V255H308Q235 255 200 237T164 190Q164 166 189 150T247 119Q275 106 302 91T348 53T366 -2Q366 -44 337 -70T264 -108T175 -120Z" />
<glyph unicode="~" glyph-name="asciitilde" horiz-adv-x="728" d="M516 136Q472 136 433 164T356 231Q336 252 314 272T267 306T210 320Q153 320 125 273T94 152L70 155Q72 203 87 246T133 316T211 343Q260 343 297 316T374 249Q394 229 416 209T464 174T518
160Q580 160 606 208T634 328L659 326Q658 278 643 235T598 164T516 136Z" />
<glyph unicode="&#xa0;" glyph-name="uni00A0" horiz-adv-x="272" />
<glyph unicode="&#xa1;" glyph-name="exclamdown" horiz-adv-x="286" d="M151 382L155 259Q159 145 165 74T172 -11Q172 -24 166 -33T142 -43Q126 -43 119 -34T112 -11Q112 2 119 73T130 259L134 382H151ZM143 541Q167 541 179 532T192 509Q192 495 180 486T143
476Q119 476 107 485T94 509Q94 522 106 531T143 541Z" />
<glyph unicode="&#xa2;" glyph-name="cent" horiz-adv-x="720" d="M641 147Q591 110 525 86T370 57V-10H347V57Q267 57 207 78T113 137T80 228Q80 276 103 311T166 368T252 402T347 414V481H370V414Q447 410 511 382T615 315V403H637V267L631 266Q579 328 512
357T370 390V81Q451 84 515 107T628 165L641 147ZM105 228Q105 183 136 150T222 99T347 80V390Q303 390 260 380T182 350T126 300T105 228Z" />
<glyph unicode="&#xa3;" glyph-name="sterling" horiz-adv-x="766" d="M60 -10V11H86Q131 11 167 24T224 61T246 119Q246 131 243 143T236 166H60V189H225Q211 214 196 238T171 291H61V314H166Q164 324 164 335Q164 400 221 440T375 481Q469 481 543 451T670 372V481H694V330L687
326Q614 400 538 428T374 457Q295 457 242 425T189 335Q189 324 191 314H584V291H197Q207 264 223 240T252 189H581V166H262Q270 142 270 118Q270 114 270 110Q312 87 363 65T464 29T552 14Q607 14 650 40T702 125L725 121Q715 61 673 26T551 -10Q510 -10 460 4T359
41T266 88Q253 44 205 17T86 -10H60Z" />
<glyph unicode="&#xa4;" glyph-name="currency" horiz-adv-x="572" d="M109 49L90 64L175 163Q136 196 136 247Q136 299 175 332L90 431L109 446L194 346Q232 368 285 368Q339 368 377 346L462 446L481 431L396 332Q434 299 434 247Q434 195 396 163L481 64L462
49L377 149Q339 127 285 127Q232 127 194 149L109 49ZM285 150Q343 150 376 177T409 249Q409 292 376 318T285 345Q230 345 196 319T161 249Q161 205 195 178T285 150Z" />
<glyph unicode="&#xa5;" glyph-name="yen" horiz-adv-x="901" d="M885 447H720L610 322H812V300H591L478 172H812V150H464V23H645V0H256V23H439V150H91V172H423L310 300H91V322H290L179 447H15V470H352V447H210L321 322H581L691 447H550V470H885V447ZM451 175L561
300H340L451 175Z" />
<glyph unicode="&#xa6;" glyph-name="brokenbar" horiz-adv-x="275" d="M125 634H150V305H125V634ZM125 184H150V-146H125V184Z" />
<glyph unicode="&#xa7;" glyph-name="section" horiz-adv-x="810" d="M482 -249Q404 -249 340 -231T227 -183T149 -119V-240H125V-65L131 -64Q184 -139 278 -182T484 -225Q533 -225 576 -213T645 -177T672 -115Q672 -77 644 -55T549 -18T369 5Q262 14 198 34T106
84T77 155Q77 212 127 242T256 278Q181 295 150 323T118 399Q118 442 146 471T222 515T328 531Q407 531 471 513T584 464T662 400V520H685V347L680 345Q627 421 533 464T327 507Q278 507 236 495T169 460T143 399Q143 362 170 338T263 300T441 277Q549 269 613
249T705 198T734 127Q734 71 684 41T557 4Q632 -13 664 -40T697 -115Q697 -157 668 -187T590 -233T482 -249ZM370 30Q398 27 423 25T471 19Q534 17 588 28T675 63T709 125Q709 177 648 208T440 253Q414 255 390 258T344 263Q280 265 225 255T136 220T102 157Q102
106 163 75T370 30Z" />
<glyph unicode="&#xa8;" glyph-name="dieresis" horiz-adv-x="482" d="M352 634Q331 634 319 642T307 664Q307 692 352 692Q396 692 396 664Q396 651 385 643T352 634ZM130 634Q109 634 98 642T86 664Q86 692 130 692Q175 692 175 664Q175 651 164 643T130 634Z" />
<glyph unicode="&#xa9;" glyph-name="copyright" horiz-adv-x="955" d="M477 -153Q386 -153 310 -128T177 -56T91 52T60 189Q60 263 90 325T177 434T309 505T477 531Q569 531 645 506T777 434T863 326T894 189Q894 115 864 53T778 -56T646 -127T477 -153ZM477
-130Q564 -130 636 -106T760 -38T840 64T869 189Q869 256 841 314T760 415T636 483T477 508Q390 508 318 484T194 416T114 314T85 189Q85 122 113 64T194 -37T318 -105T477 -130ZM459 26Q364 26 304 67T244 184Q244 234 274 270T354 326T464 346Q534 346 588 321T676
262V346H700V215L694 213Q648 271 589 297T461 323Q410 323 366 306T296 257T269 184Q269 124 320 87T459 48Q538 47 594 76T681 142L699 127Q667 86 609 56T459 26Z" />
<glyph unicode="&#xaa;" glyph-name="ordfeminine" horiz-adv-x="505" d="M181 309Q128 309 97 322T65 370Q65 405 104 420T199 435Q247 435 291 431T372 420V431Q372 464 346 486T256 509Q210 509 167 500T78 476L74 496Q123 513 168 522T256 531Q326 531 360
503T394 431V381Q394 359 403 345T431 330Q446 330 455 341T464 371V384H484V371Q484 349 471 330T431 311Q408 311 394 322T375 354Q328 332 278 321T181 309ZM86 370Q86 347 113 338T181 328Q273 328 372 372Q372 376 372 381V401Q335 407 292 411T207 416Q152
416 119 406T86 370ZM55 233H453V211H55V233Z" />
<glyph unicode="&#xab;" glyph-name="guillemotleft" horiz-adv-x="700" d="M610 -14Q593 31 555 74T463 145T343 174H341V196H343Q409 196 463 224T555 295T610 382L631 374Q615 333 582 293T504 224T408 185Q459 175 503 146T581 77T631 -5L610 -14ZM340 -14Q320
34 281 77T182 147T42 174H30V196H42Q122 196 181 223T280 293T340 382L359 374Q341 330 308 291T227 223T118 185Q179 176 226 148T307 79T359 -5L340 -14Z" />
<glyph unicode="&#xac;" glyph-name="logicalnot" horiz-adv-x="637" d="M542 299V58H517V275H45V299H542Z" />
<glyph unicode="&#xad;" glyph-name="uni00AD" horiz-adv-x="327" d="M299 191V167H28V191H299Z" />
<glyph unicode="&#xae;" glyph-name="registered" horiz-adv-x="955" d="M477 -159Q386 -159 310 -133T177 -61T91 49T60 186Q60 260 90 323T177 432T309 505T477 531Q569 531 645 505T777 433T863 323T894 186Q894 112 864 49T778 -60T646 -133T477 -159ZM477
-136Q564 -136 636 -111T760 -42T840 60T869 186Q869 253 841 311T760 414T636 483T477 508Q390 508 318 483T194 414T114 312T85 186Q85 119 113 61T194 -42T318 -111T477 -136ZM215 43V67H311V297H215V321H587Q639 321 665 297T691 239Q691 210 666 186T587 162H493Q519
150 536 131T570 92T606 59T656 45Q687 45 707 66T728 126V138H753V126Q753 80 727 51T656 22Q622 22 599 36T559 70T524 112T487 147T437 161H335V67H439V43H215ZM587 297H335V184H587Q624 184 645 199T666 239Q666 265 646 281T587 297Z" />
<glyph unicode="&#xaf;" glyph-name="overscore" horiz-adv-x="617" d="M547 677V653H70V677H547Z" />
<glyph unicode="&#xb0;" glyph-name="degree" horiz-adv-x="371" d="M186 364Q147 364 114 380T60 424T40 490Q40 528 60 556T113 599T186 615Q248 615 289 581T331 490Q331 434 290 399T186 364ZM186 385Q239 385 274 415T309 490Q309 536 274 564T186 592Q135
592 100 564T64 490Q64 445 99 415T186 385Z" />
<glyph unicode="&#xb1;" glyph-name="plusminus" horiz-adv-x="637" d="M331 297H567V274H331V124H306V274H70V297H306V447H331V297ZM70 39V61H567V39H70Z" />
<glyph unicode="&#xb2;" glyph-name="uni00B2" horiz-adv-x="439" d="M363 426H385V318H37V337Q37 382 78 407T204 449Q278 463 315 477T352 521Q351 550 318 565T230 581Q199 581 166 573T103 552T55 525L42 543Q79 569 127 585T230 601Q294 601 334 581T374
521Q374 479 330 461T211 428Q136 415 98 395T60 340H363V426Z" />
<glyph unicode="&#xb3;" glyph-name="uni00B3" horiz-adv-x="451" d="M235 312Q163 312 117 330T50 364L61 381Q80 367 123 350T236 332Q297 332 338 347T380 390Q380 418 346 430T225 443H130V462H225Q364 462 364 522Q364 550 329 565T240 581Q187 581 145 570T69
540L59 559Q97 578 142 589T240 601Q301 601 343 581T385 522Q385 493 362 476T300 453Q346 449 373 434T401 390Q401 353 356 333T235 312Z" />
<glyph unicode="&#xb4;" glyph-name="acute" horiz-adv-x="490" d="M50 600L285 741L300 714L59 584L50 600Z" />
<glyph unicode="&#xb5;" glyph-name="uni00B5" horiz-adv-x="907" d="M836 30L847 9Q828 -4 808 -12T764 -20Q729 -20 704 4T675 73Q603 39 533 10T387 -20Q329 -20 288 0T226 64V-165H202V334H30V357H226V155Q226 76 269 41T387 3Q452 3 527 31T675 97V357H700V84Q700
42 720 23T765 3Q805 3 836 30Z" />
<glyph unicode="&#xb6;" glyph-name="paragraph" horiz-adv-x="917" d="M712 520H737V23Q737 -44 710 -88T637 -153T531 -175Q470 -175 420 -160T334 -128L340 -105Q378 -121 427 -136T532 -152Q553 -152 572 -149V272Q523 239 453 212T293 185Q232 185 181 204T100
259T70 349Q70 403 104 444T197 508T328 531Q435 531 533 492T712 391V520ZM293 208Q373 208 445 234T572 296V451Q514 477 452 491T328 507Q261 508 209 488T126 431T95 349Q95 304 121 273T192 225T293 208ZM595 -144Q646 -129 679 -88T712 22V368Q685 389 656
407T595 441V-144Z" />
<glyph unicode="&#xb7;" glyph-name="middot" horiz-adv-x="246" d="M124 218Q100 218 87 227T74 249Q74 263 87 272T124 282Q147 282 159 273T172 249Q172 236 160 227T124 218Z" />
<glyph unicode="&#xb8;" glyph-name="cedilla" horiz-adv-x="347" d="M186 -175Q137 -175 103 -165T48 -145L57 -124Q76 -133 108 -143T186 -153Q273 -153 273 -115Q273 -77 204 -77Q179 -77 162 -78T129 -81L124 -76L156 15H177L151 -59Q163 -58 175 -58T204
-57Q245 -57 270 -72T296 -115Q296 -175 186 -175Z" />
<glyph unicode="&#xb9;" glyph-name="uni00B9" horiz-adv-x="318" d="M55 318V340H171V559Q151 536 121 523T58 507L56 531Q94 535 127 551T171 600H194V340H289V318H55Z" />
<glyph unicode="&#xba;" glyph-name="ordmasculine" horiz-adv-x="459" d="M230 309Q177 309 134 322T66 359T41 419Q41 456 66 480T134 518T230 531Q282 531 324 518T392 481T417 419Q417 384 392 360T325 322T230 309ZM230 330Q304 330 349 354T394 419Q394
463 349 486T230 509Q156 509 111 486T65 419Q65 379 110 355T230 330ZM61 233H407V211H61V233Z" />
<glyph unicode="&#xbb;" glyph-name="guillemotright" horiz-adv-x="700" d="M361 -11L341 -3Q359 40 392 80T474 148T582 186Q522 195 474 223T393 291T341 374L361 384Q381 337 420 294T519 224T659 197H670V174H659Q579 174 520 147T421 78T361 -11ZM90 -11L70
-3Q86 38 119 78T196 147T292 186Q241 196 197 224T119 293T70 374L90 384Q107 339 145 296T238 225T357 197H359V174H357Q292 174 238 146T146 76T90 -11Z" />
<glyph unicode="&#xbc;" glyph-name="onequarter" horiz-adv-x="890" d="M55 199V219H171V439Q151 416 121 403T58 387L56 410Q94 415 127 431T171 481H194V219H289V199H55ZM442 249L623 559L648 543L459 240L278 -69L253 -55L442 249ZM880 89V67H788V-10H764V67H513V89L757
278H788V89H880ZM547 89H764V259L547 89Z" />
<glyph unicode="&#xbd;" glyph-name="onehalf" horiz-adv-x="972" d="M55 199V219H171V439Q151 416 121 403T58 387L56 410Q94 415 127 431T171 481H194V219H289V199H55ZM442 249L623 559L648 543L459 240L278 -69L253 -55L442 249ZM895 108H917V0H569V19Q569
64 609 89T735 130Q809 144 846 158T883 202Q882 231 849 246T761 262Q730 262 697 254T635 234T587 206L574 224Q610 250 658 266T761 283Q825 283 865 263T906 202Q906 161 862 142T742 110Q667 97 629 77T591 22H895V108Z" />
<glyph unicode="&#xbe;" glyph-name="threequarters" horiz-adv-x="993" d="M235 192Q163 192 117 210T50 243L61 261Q80 247 123 229T236 211Q297 211 338 226T380 267Q380 297 343 310T225 324H130V342H225Q295 342 329 360T364 405Q364 431 331 445T242 460Q189
460 146 449T69 420L59 440Q96 459 142 470T242 481Q304 481 344 462T385 405Q385 377 360 359T293 334Q339 330 370 316T401 267Q401 233 356 213T235 192ZM545 249L726 559L751 543L562 240L381 -69L356 -55L545 249ZM983 89V67H891V-10H867V67H616V89L860 278H891V89H983ZM650
89H867V259L650 89Z" />
<glyph unicode="&#xbf;" glyph-name="questiondown" horiz-adv-x="474" d="M424 25Q383 9 342 -1T248 -11Q201 -11 159 2T91 43T65 110Q65 144 83 166T132 204T194 230Q229 242 259 252T308 276T327 309Q327 330 319 347T300 385L313 389Q330 366 340 345T350
303Q350 279 328 263T271 236T200 210Q157 194 124 172T90 110Q90 66 135 40T248 13Q300 13 340 22T417 48L424 25ZM290 529Q313 529 326 520T339 497Q339 483 326 474T290 464Q265 464 253 473T241 497Q241 510 253 519T290 529Z" />
<glyph unicode="&#xc0;" glyph-name="Agrave" horiz-adv-x="1025" d="M-5 0V23H156L484 497H324V520H700V497H540L869 23H1030V0H691V23H841L720 199H307L186 23H334V0H-5ZM323 222H704L514 497H512L323 222ZM580 600L571 584L330 714L345 741L580 600Z" />
<glyph unicode="&#xc1;" glyph-name="Aacute" horiz-adv-x="1025" d="M-5 0V23H156L484 497H324V520H700V497H540L869 23H1030V0H691V23H841L720 199H307L186 23H334V0H-5ZM323 222H704L514 497H512L323 222ZM444 600L679 741L694 714L453 584L444 600Z" />
<glyph unicode="&#xc2;" glyph-name="Acircumflex" horiz-adv-x="1025" d="M-5 0V23H156L484 497H324V520H700V497H540L869 23H1030V0H691V23H841L720 199H307L186 23H334V0H-5ZM323 222H704L514 497H512L323 222ZM346 572L335 585L502 727H522L689 585L679 572L512
700L346 572Z" />
<glyph unicode="&#xc3;" glyph-name="Atilde" horiz-adv-x="1025" d="M-5 0V23H156L484 497H324V520H700V497H540L869 23H1030V0H691V23H841L720 199H307L186 23H334V0H-5ZM323 222H704L514 497H512L323 222ZM607 626Q574 626 547 642T493 676Q469 694 446 707T397
720Q367 720 344 698T312 625L291 628Q299 680 326 711T399 742Q434 742 460 726T512 692Q537 675 561 662T610 649Q638 649 661 670T693 742L714 739Q706 689 679 658T607 626Z" />
<glyph unicode="&#xc4;" glyph-name="Adieresis" horiz-adv-x="1025" d="M-5 0V23H156L484 497H324V520H700V497H540L869 23H1030V0H691V23H841L720 199H307L186 23H334V0H-5ZM323 222H704L514 497H512L323 222ZM619 634Q598 634 586 642T574 664Q574 692 619
692Q663 692 663 664Q663 651 652 643T619 634ZM397 634Q376 634 365 642T353 664Q353 692 397 692Q442 692 442 664Q442 651 431 643T397 634Z" />
<glyph unicode="&#xc5;" glyph-name="Aring" horiz-adv-x="1025" d="M-5 0V23H156L484 497H324V520H700V497H540L869 23H1030V0H691V23H841L720 199H307L186 23H334V0H-5ZM323 222H704L514 497H512L323 222ZM512 615Q475 615 444 629T395 666T376 720Q376 768
416 796T512 825Q571 825 609 797T647 720Q647 675 609 645T512 615ZM512 636Q563 636 593 661T624 720Q624 757 594 780T512 803Q464 803 432 780T399 720Q399 686 431 661T512 636Z" />
<glyph unicode="&#xc6;" glyph-name="AE" horiz-adv-x="1400" d="M0 0V23H160L585 497H414V520H1290V337H1265V497H642L745 290H999V397H1024V158H999V266H757L878 23H1266V183H1290V0H674V23H850L765 194H347L193 23H349V0H0ZM368 217H754L618 495L368 217Z" />
<glyph unicode="&#xc7;" glyph-name="Ccedilla" horiz-adv-x="890" d="M431 -11Q359 -11 295 7T182 60T104 145T75 260Q75 325 104 375T185 460T301 513T440 531Q553 531 636 489T773 377V520H797V332L785 330Q717 428 630 467T440 507Q371 507 310 491T201 442T127
364T100 260Q100 183 145 128T265 43T431 13Q531 13 601 39T715 105T779 181L800 168Q776 127 731 86T612 17T431 -11ZM444 -186Q395 -186 361 -176T306 -156L315 -135Q334 -144 366 -154T444 -164Q531 -164 531 -126Q531 -88 462 -88Q437 -88 420 -89T387 -92L382
-87L414 4H435L409 -70Q421 -69 433 -69T462 -68Q503 -68 528 -83T554 -126Q554 -186 444 -186Z" />
<glyph unicode="&#xc8;" glyph-name="Egrave" horiz-adv-x="972" d="M56 0V23H239V496H56V520H862V337H837V496H264V284H572V392H597V153H572V261H264V23H838V183H862V0H56ZM598 600L589 584L348 714L363 741L598 600Z" />
<glyph unicode="&#xc9;" glyph-name="Eacute" horiz-adv-x="972" d="M56 0V23H239V496H56V520H862V337H837V496H264V284H572V392H597V153H572V261H264V23H838V183H862V0H56ZM462 600L697 741L712 714L471 584L462 600Z" />
<glyph unicode="&#xca;" glyph-name="Ecircumflex" horiz-adv-x="972" d="M56 0V23H239V496H56V520H862V337H837V496H264V284H572V392H597V153H572V261H264V23H838V183H862V0H56ZM364 572L353 585L520 727H540L707 585L697 572L530 700L364 572Z" />
<glyph unicode="&#xcb;" glyph-name="Edieresis" horiz-adv-x="972" d="M56 0V23H239V496H56V520H862V337H837V496H264V284H572V392H597V153H572V261H264V23H838V183H862V0H56ZM637 634Q616 634 604 642T592 664Q592 692 637 692Q681 692 681 664Q681 651 670
643T637 634ZM415 634Q394 634 383 642T371 664Q371 692 415 692Q460 692 460 664Q460 651 449 643T415 634Z" />
<glyph unicode="&#xcc;" glyph-name="Igrave" horiz-adv-x="501" d="M56 0V23H239V496H56V520H445V496H264V23H445V0H56ZM319 600L310 584L69 714L84 741L319 600Z" />
<glyph unicode="&#xcd;" glyph-name="Iacute" horiz-adv-x="501" d="M56 0V23H239V496H56V520H445V496H264V23H445V0H56ZM183 600L418 741L433 714L192 584L183 600Z" />
<glyph unicode="&#xce;" glyph-name="Icircumflex" horiz-adv-x="501" d="M56 0V23H239V496H56V520H445V496H264V23H445V0H56ZM85 572L74 585L241 727H261L428 585L418 572L251 700L85 572Z" />
<glyph unicode="&#xcf;" glyph-name="Idieresis" horiz-adv-x="501" d="M56 0V23H239V496H56V520H445V496H264V23H445V0H56ZM358 634Q337 634 325 642T313 664Q313 692 358 692Q402 692 402 664Q402 651 391 643T358 634ZM136 634Q115 634 104 642T92 664Q92 692
136 692Q181 692 181 664Q181 651 170 643T136 634Z" />
<glyph unicode="&#xd0;" glyph-name="Eth" horiz-adv-x="965" d="M56 0V23H239V496H56V520H545Q648 520 725 492T846 406T890 260Q890 173 847 115T726 29T545 0H56ZM545 496H264V23H545Q643 23 714 49T825 128T865 260Q865 339 826 391T715 470T545 496ZM863
269V246H316V269H863Z" />
<glyph unicode="&#xd1;" glyph-name="Ntilde" horiz-adv-x="1107" d="M1092 520V496H910V-5H906L264 486V23H445V0H56V23H239V496H56V520H264L885 43V496H703V520H1092ZM617 615Q584 615 557 631T503 665Q479 683 456 696T407 709Q377 709 354 687T322 614L301
617Q309 669 336 700T409 731Q444 731 470 715T522 681Q547 664 571 651T620 638Q648 638 671 659T703 731L724 728Q716 678 689 647T617 615Z" />
<glyph unicode="&#xd2;" glyph-name="Ograve" horiz-adv-x="916" d="M459 -10Q351 -10 264 22T126 114T75 260Q75 346 126 406T264 499T459 531Q567 531 653 499T790 407T841 260Q841 175 791 115T654 22T459 -10ZM459 14Q562 14 642 43T769 128T816 260Q816 338
770 393T643 477T459 507Q356 507 275 478T147 393T100 260Q100 183 146 128T274 44T459 14ZM527 611L518 595L277 725L292 752L527 611Z" />
<glyph unicode="&#xd3;" glyph-name="Oacute" horiz-adv-x="916" d="M459 -10Q351 -10 264 22T126 114T75 260Q75 346 126 406T264 499T459 531Q567 531 653 499T790 407T841 260Q841 175 791 115T654 22T459 -10ZM459 14Q562 14 642 43T769 128T816 260Q816 338
770 393T643 477T459 507Q356 507 275 478T147 393T100 260Q100 183 146 128T274 44T459 14ZM391 611L626 752L641 725L400 595L391 611Z" />
<glyph unicode="&#xd4;" glyph-name="Ocircumflex" horiz-adv-x="916" d="M459 -10Q351 -10 264 22T126 114T75 260Q75 346 126 406T264 499T459 531Q567 531 653 499T790 407T841 260Q841 175 791 115T654 22T459 -10ZM459 14Q562 14 642 43T769 128T816 260Q816
338 770 393T643 477T459 507Q356 507 275 478T147 393T100 260Q100 183 146 128T274 44T459 14ZM293 583L282 596L449 738H469L636 596L626 583L459 711L293 583Z" />
<glyph unicode="&#xd5;" glyph-name="Otilde" horiz-adv-x="916" d="M459 -10Q351 -10 264 22T126 114T75 260Q75 346 126 406T264 499T459 531Q567 531 653 499T790 407T841 260Q841 175 791 115T654 22T459 -10ZM459 14Q562 14 642 43T769 128T816 260Q816 338
770 393T643 477T459 507Q356 507 275 478T147 393T100 260Q100 183 146 128T274 44T459 14ZM554 637Q521 637 494 653T440 687Q416 705 393 718T344 731Q314 731 291 709T259 636L238 639Q246 691 273 722T346 753Q381 753 407 737T459 703Q484 686 508 673T557
660Q585 660 608 681T640 753L661 750Q653 700 626 669T554 637Z" />
<glyph unicode="&#xd6;" glyph-name="Odieresis" horiz-adv-x="916" d="M459 -10Q351 -10 264 22T126 114T75 260Q75 346 126 406T264 499T459 531Q567 531 653 499T790 407T841 260Q841 175 791 115T654 22T459 -10ZM459 14Q562 14 642 43T769 128T816 260Q816
338 770 393T643 477T459 507Q356 507 275 478T147 393T100 260Q100 183 146 128T274 44T459 14ZM566 645Q545 645 533 653T521 675Q521 703 566 703Q610 703 610 675Q610 662 599 654T566 645ZM344 645Q323 645 312 653T300 675Q300 703 344 703Q389 703 389 675Q389
662 378 654T344 645Z" />
<glyph unicode="&#xd7;" glyph-name="multiply" horiz-adv-x="637" d="M528 70L511 51L307 222L105 52L89 70L289 238L89 405L106 424L309 254L511 424L527 406L327 238L528 70Z" />
<glyph unicode="&#xd8;" glyph-name="Oslash" horiz-adv-x="916" d="M598 516Q670 499 725 464T810 378T841 260Q841 175 791 115T654 22T459 -10Q425 -10 393 -7T332 3L299 -59H271L306 8Q203 36 139 100T75 260Q75 346 126 406T264 499T459 531Q489 531 517
529T572 521L605 581H632L598 516ZM100 260Q100 173 159 114T318 30L561 499Q537 503 512 505T459 507Q356 507 275 478T147 393T100 260ZM459 14Q562 14 642 43T769 128T816 260Q816 351 753 411T586 494L344 24Q371 20 399 17T459 14Z" />
<glyph unicode="&#xd9;" glyph-name="Ugrave" horiz-adv-x="1001" d="M0 496V520H386V496H205L207 243Q208 166 245 115T348 39T501 13Q588 13 654 38T757 114T794 241L797 496H615V520H1001V496H819V254Q819 167 780 108T669 19T501 -11Q405 -11 334 19T222 108T182
254V496H0ZM569 589L560 573L319 703L334 730L569 589Z" />
<glyph unicode="&#xda;" glyph-name="Uacute" horiz-adv-x="1001" d="M0 496V520H386V496H205L207 243Q208 166 245 115T348 39T501 13Q588 13 654 38T757 114T794 241L797 496H615V520H1001V496H819V254Q819 167 780 108T669 19T501 -11Q405 -11 334 19T222 108T182
254V496H0ZM433 589L668 730L683 703L442 573L433 589Z" />
<glyph unicode="&#xdb;" glyph-name="Ucircumflex" horiz-adv-x="1001" d="M0 496V520H386V496H205L207 243Q208 166 245 115T348 39T501 13Q588 13 654 38T757 114T794 241L797 496H615V520H1001V496H819V254Q819 167 780 108T669 19T501 -11Q405 -11 334 19T222
108T182 254V496H0ZM335 561L324 574L491 716H511L678 574L668 561L501 689L335 561Z" />
<glyph unicode="&#xdc;" glyph-name="Udieresis" horiz-adv-x="1001" d="M0 496V520H386V496H205L207 243Q208 166 245 115T348 39T501 13Q588 13 654 38T757 114T794 241L797 496H615V520H1001V496H819V254Q819 167 780 108T669 19T501 -11Q405 -11 334 19T222
108T182 254V496H0ZM608 623Q587 623 575 631T563 653Q563 681 608 681Q652 681 652 653Q652 640 641 632T608 623ZM386 623Q365 623 354 631T342 653Q342 681 386 681Q431 681 431 653Q431 640 420 632T386 623Z" />
<glyph unicode="&#xdd;" glyph-name="Yacute" horiz-adv-x="920" d="M753 496L474 184V23H656V0H266V23H449V180L167 496H5V520H342V496H203L461 206L719 496H580V520H916V496H753ZM392 589L627 730L642 703L401 573L392 589Z" />
<glyph unicode="&#xde;" glyph-name="Thorn" horiz-adv-x="882" d="M56 0V23H239V497H56V520H445V497H264V377H672Q742 377 782 346T822 260Q822 207 782 175T672 143H264V23H445V0H56ZM680 355H264V166H680Q729 166 763 189T797 260Q797 308 763 331T680 355Z" />
<glyph unicode="&#xdf;" glyph-name="germandbls" horiz-adv-x="849" d="M50 0V23H210V334H50V357H210V406Q210 456 232 496T303 561T435 585Q521 585 587 566T692 515T730 442Q730 405 710 384T652 351T560 330Q525 324 493 315T439 292T418 252Q418 218 462
204T600 181Q658 176 703 167T776 138T803 82Q803 39 761 15T649 -10Q602 -10 555 3T467 38T399 89V0H377V136Q412 93 460 66T558 25T649 11Q702 11 741 30T780 81Q780 120 730 134T600 156Q491 165 442 186T393 251Q393 295 434 317T556 352Q602 360 635 369T686
395T705 442Q705 476 671 503T575 546T434 562Q361 562 317 542T254 487T235 409V0H50Z" />
<glyph unicode="&#xe0;" glyph-name="agrave" horiz-adv-x="805" d="M287 -10Q193 -10 142 17T90 94Q90 150 153 179T328 209Q415 209 487 199T622 177V197Q622 260 573 301T415 343Q337 343 263 327T111 286L105 310Q187 337 263 352T415 367Q533 367 590 320T647
197V93Q647 53 666 34T711 14Q751 14 779 38L792 19Q775 6 754 -2T710 -10Q676 -10 653 11T624 71Q544 31 456 11T287 -10ZM115 96Q115 56 160 35T287 14Q365 14 451 34T622 93V155Q560 168 485 177T328 186Q229 186 172 162T115 96ZM452 447L443 431L202 561L217
588L452 447Z" />
<glyph unicode="&#xe1;" glyph-name="aacute" horiz-adv-x="805" d="M287 -10Q193 -10 142 17T90 94Q90 150 153 179T328 209Q415 209 487 199T622 177V197Q622 260 573 301T415 343Q337 343 263 327T111 286L105 310Q187 337 263 352T415 367Q533 367 590 320T647
197V93Q647 53 666 34T711 14Q751 14 779 38L792 19Q775 6 754 -2T710 -10Q676 -10 653 11T624 71Q544 31 456 11T287 -10ZM115 96Q115 56 160 35T287 14Q365 14 451 34T622 93V155Q560 168 485 177T328 186Q229 186 172 162T115 96ZM316 447L551 588L566 561L325
431L316 447Z" />
<glyph unicode="&#xe2;" glyph-name="acircumflex" horiz-adv-x="805" d="M287 -10Q193 -10 142 17T90 94Q90 150 153 179T328 209Q415 209 487 199T622 177V197Q622 260 573 301T415 343Q337 343 263 327T111 286L105 310Q187 337 263 352T415 367Q533 367 590
320T647 197V93Q647 53 666 34T711 14Q751 14 779 38L792 19Q775 6 754 -2T710 -10Q676 -10 653 11T624 71Q544 31 456 11T287 -10ZM115 96Q115 56 160 35T287 14Q365 14 451 34T622 93V155Q560 168 485 177T328 186Q229 186 172 162T115 96ZM218 419L207 432L374
574H394L561 432L551 419L384 547L218 419Z" />
<glyph unicode="&#xe3;" glyph-name="atilde" horiz-adv-x="805" d="M287 -10Q193 -10 142 17T90 94Q90 150 153 179T328 209Q415 209 487 199T622 177V197Q622 260 573 301T415 343Q337 343 263 327T111 286L105 310Q187 337 263 352T415 367Q533 367 590 320T647
197V93Q647 53 666 34T711 14Q751 14 779 38L792 19Q775 6 754 -2T710 -10Q676 -10 653 11T624 71Q544 31 456 11T287 -10ZM115 96Q115 56 160 35T287 14Q365 14 451 34T622 93V155Q560 168 485 177T328 186Q229 186 172 162T115 96ZM479 473Q446 473 419 489T365
523Q341 541 318 554T269 567Q239 567 216 545T184 472L163 475Q171 527 198 558T271 589Q306 589 332 573T384 539Q409 522 433 509T482 496Q510 496 533 517T565 589L586 586Q578 536 551 505T479 473Z" />
<glyph unicode="&#xe4;" glyph-name="adieresis" horiz-adv-x="805" d="M287 -10Q193 -10 142 17T90 94Q90 150 153 179T328 209Q415 209 487 199T622 177V197Q622 260 573 301T415 343Q337 343 263 327T111 286L105 310Q187 337 263 352T415 367Q533 367 590
320T647 197V93Q647 53 666 34T711 14Q751 14 779 38L792 19Q775 6 754 -2T710 -10Q676 -10 653 11T624 71Q544 31 456 11T287 -10ZM115 96Q115 56 160 35T287 14Q365 14 451 34T622 93V155Q560 168 485 177T328 186Q229 186 172 162T115 96ZM491 481Q470 481 458
489T446 511Q446 539 491 539Q535 539 535 511Q535 498 524 490T491 481ZM269 481Q248 481 237 489T225 511Q225 539 269 539Q314 539 314 511Q314 498 303 490T269 481Z" />
<glyph unicode="&#xe5;" glyph-name="aring" horiz-adv-x="805" d="M287 -10Q193 -10 142 17T90 94Q90 150 153 179T328 209Q415 209 487 199T622 177V197Q622 260 573 301T415 343Q337 343 263 327T111 286L105 310Q187 337 263 352T415 367Q533 367 590 320T647
197V93Q647 53 666 34T711 14Q751 14 779 38L792 19Q775 6 754 -2T710 -10Q676 -10 653 11T624 71Q544 31 456 11T287 -10ZM115 96Q115 56 160 35T287 14Q365 14 451 34T622 93V155Q560 168 485 177T328 186Q229 186 172 162T115 96ZM384 462Q347 462 316 476T267
513T248 567Q248 615 288 643T384 672Q443 672 481 644T519 567Q519 522 481 492T384 462ZM384 483Q435 483 465 508T496 567Q496 604 466 627T384 650Q336 650 304 627T271 567Q271 533 303 508T384 483Z" />
<glyph unicode="&#xe6;" glyph-name="ae" horiz-adv-x="1216" d="M267 -20Q191 -20 141 5T90 89Q90 132 119 158T198 198T306 211Q381 211 448 205T582 190V197Q582 237 564 273T504 332T394 355Q318 355 252 339T119 300L111 322Q182 348 251 362T394 377Q490
377 540 334T599 227Q616 273 661 306T767 358T897 376Q957 376 1010 364T1096 326T1130 260Q1130 227 1110 204T1057 168T983 148T901 142Q829 142 756 148T606 164Q607 125 630 95T691 44T771 13T856 3Q928 2 995 21T1120 74L1131 55Q1073 21 1003 1T856 -20Q810
-20 761 -8T671 28T605 89Q556 54 497 30T379 -7T267 -20ZM892 353Q848 353 801 343T712 312T642 260T608 188Q683 179 756 172T901 165Q936 165 972 169T1038 183T1086 212T1105 258Q1105 291 1075 312T996 343T892 353ZM115 89Q115 59 138 40T196 12T267 3Q316
3 373 15T487 50T596 105Q582 134 582 166Q515 174 448 181T306 189Q254 189 211 179T141 146T115 89Z" />
<glyph unicode="&#xe7;" glyph-name="ccedilla" horiz-adv-x="774" d="M365 -11Q287 -11 222 11T119 74T80 172Q80 221 105 258T174 319T270 355T377 366Q463 366 535 337T649 265V357H672V221L666 220Q633 263 586 290T484 330T375 343Q325 343 277 333T190 301T128
247T105 172Q105 125 139 90T233 34T365 13Q459 12 534 41T664 114L678 96Q620 49 543 19T365 -11ZM379 -186Q330 -186 296 -176T241 -156L250 -135Q269 -144 301 -154T379 -164Q466 -164 466 -126Q466 -88 397 -88Q372 -88 355 -89T322 -92L317 -87L349 4H370L344
-70Q356 -69 368 -69T397 -68Q438 -68 463 -83T489 -126Q489 -186 379 -186Z" />
<glyph unicode="&#xe8;" glyph-name="egrave" horiz-adv-x="751" d="M370 -11Q289 -11 224 10T119 73T80 171Q80 218 107 254T180 316T283 353T400 366Q513 366 582 336T652 250Q652 211 621 187T536 152T414 140Q334 140 259 154T107 194Q105 183 105 171Q105
124 139 89T234 34T370 13Q463 12 531 33T655 89L666 69Q609 34 541 12T370 -11ZM400 343Q336 343 276 328T173 283T113 212Q261 164 414 164Q474 164 522 172T599 199T627 250Q627 294 566 318T400 343ZM444 446L435 430L194 560L209 587L444 446Z" />
<glyph unicode="&#xe9;" glyph-name="eacute" horiz-adv-x="751" d="M370 -11Q289 -11 224 10T119 73T80 171Q80 218 107 254T180 316T283 353T400 366Q513 366 582 336T652 250Q652 211 621 187T536 152T414 140Q334 140 259 154T107 194Q105 183 105 171Q105
124 139 89T234 34T370 13Q463 12 531 33T655 89L666 69Q609 34 541 12T370 -11ZM400 343Q336 343 276 328T173 283T113 212Q261 164 414 164Q474 164 522 172T599 199T627 250Q627 294 566 318T400 343ZM308 446L543 587L558 560L317 430L308 446Z" />
<glyph unicode="&#xea;" glyph-name="ecircumflex" horiz-adv-x="751" d="M370 -11Q289 -11 224 10T119 73T80 171Q80 218 107 254T180 316T283 353T400 366Q513 366 582 336T652 250Q652 211 621 187T536 152T414 140Q334 140 259 154T107 194Q105 183 105 171Q105
124 139 89T234 34T370 13Q463 12 531 33T655 89L666 69Q609 34 541 12T370 -11ZM400 343Q336 343 276 328T173 283T113 212Q261 164 414 164Q474 164 522 172T599 199T627 250Q627 294 566 318T400 343ZM210 418L199 431L366 573H386L553 431L543 418L376 546L210
418Z" />
<glyph unicode="&#xeb;" glyph-name="edieresis" horiz-adv-x="751" d="M370 -11Q289 -11 224 10T119 73T80 171Q80 218 107 254T180 316T283 353T400 366Q513 366 582 336T652 250Q652 211 621 187T536 152T414 140Q334 140 259 154T107 194Q105 183 105 171Q105
124 139 89T234 34T370 13Q463 12 531 33T655 89L666 69Q609 34 541 12T370 -11ZM400 343Q336 343 276 328T173 283T113 212Q261 164 414 164Q474 164 522 172T599 199T627 250Q627 294 566 318T400 343ZM483 480Q462 480 450 488T438 510Q438 538 483 538Q527
538 527 510Q527 497 516 489T483 480ZM261 480Q240 480 229 488T217 510Q217 538 261 538Q306 538 306 510Q306 497 295 489T261 480Z" />
<glyph unicode="&#xec;" glyph-name="igrave" horiz-adv-x="469" d="M50 0V23H232V334H50V357H257V23H440V0H50ZM301 437L292 421L51 551L66 578L301 437Z" />
<glyph unicode="&#xed;" glyph-name="iacute" horiz-adv-x="469" d="M50 0V23H232V334H50V357H257V23H440V0H50ZM165 437L400 578L415 551L174 421L165 437Z" />
<glyph unicode="&#xee;" glyph-name="icircumflex" horiz-adv-x="469" d="M50 0V23H232V334H50V357H257V23H440V0H50ZM67 409L56 422L223 564H243L410 422L400 409L233 537L67 409Z" />
<glyph unicode="&#xef;" glyph-name="idieresis" horiz-adv-x="469" d="M50 0V23H232V334H50V357H257V23H440V0H50ZM340 471Q319 471 307 479T295 501Q295 529 340 529Q384 529 384 501Q384 488 373 480T340 471ZM118 471Q97 471 86 479T74 501Q74 529 118 529Q163
529 163 501Q163 488 152 480T118 471Z" />
<glyph unicode="&#xf0;" glyph-name="eth" horiz-adv-x="735" d="M346 -11Q273 -11 211 9T112 66T75 156Q75 211 110 248T204 304T334 324Q414 324 493 300T631 238Q629 325 575 391T428 499L341 376L324 387L408 508Q320 544 205 559L210 581Q328 567 422 527L491
626L509 615L441 518Q538 473 596 401T655 233Q655 152 614 98T502 16T346 -11ZM100 158Q100 116 131 84T218 33T346 14Q420 14 482 35T585 101T630 214Q571 253 494 277T331 301Q225 301 163 262T100 158Z" />
<glyph unicode="&#xf1;" glyph-name="ntilde" horiz-adv-x="957" d="M50 0V23H232V334H50V357H257V222Q282 242 315 267T389 314T474 351T567 366Q646 366 690 334T753 249T772 135V23H944V0H587V23H747V135Q747 173 740 210T713 277T658 325T567 343Q519 343
475 328T390 291T316 243T257 198V23H417V0H50ZM614 472Q581 472 554 488T500 522Q476 540 453 553T404 566Q374 566 351 544T319 471L298 474Q306 526 333 557T406 588Q441 588 467 572T519 538Q544 521 568 508T617 495Q645 495 668 516T700 588L721 585Q713
535 686 504T614 472Z" />
<glyph unicode="&#xf2;" glyph-name="ograve" horiz-adv-x="799" d="M399 -11Q310 -11 238 11T123 76T80 179Q80 240 122 281T237 344T399 366Q489 366 561 345T676 282T719 179Q719 119 677 77T562 12T399 -11ZM399 13Q483 13 550 33T655 90T694 179Q694 232
656 268T550 323T399 342Q316 342 249 323T144 268T105 179Q105 127 143 90T249 33T399 13ZM468 446L459 430L218 560L233 587L468 446Z" />
<glyph unicode="&#xf3;" glyph-name="oacute" horiz-adv-x="799" d="M399 -11Q310 -11 238 11T123 76T80 179Q80 240 122 281T237 344T399 366Q489 366 561 345T676 282T719 179Q719 119 677 77T562 12T399 -11ZM399 13Q483 13 550 33T655 90T694 179Q694 232
656 268T550 323T399 342Q316 342 249 323T144 268T105 179Q105 127 143 90T249 33T399 13ZM332 446L567 587L582 560L341 430L332 446Z" />
<glyph unicode="&#xf4;" glyph-name="ocircumflex" horiz-adv-x="799" d="M399 -11Q310 -11 238 11T123 76T80 179Q80 240 122 281T237 344T399 366Q489 366 561 345T676 282T719 179Q719 119 677 77T562 12T399 -11ZM399 13Q483 13 550 33T655 90T694 179Q694
232 656 268T550 323T399 342Q316 342 249 323T144 268T105 179Q105 127 143 90T249 33T399 13ZM234 418L223 431L390 573H410L577 431L567 418L400 546L234 418Z" />
<glyph unicode="&#xf5;" glyph-name="otilde" horiz-adv-x="799" d="M399 -11Q310 -11 238 11T123 76T80 179Q80 240 122 281T237 344T399 366Q489 366 561 345T676 282T719 179Q719 119 677 77T562 12T399 -11ZM399 13Q483 13 550 33T655 90T694 179Q694 232
656 268T550 323T399 342Q316 342 249 323T144 268T105 179Q105 127 143 90T249 33T399 13ZM495 472Q462 472 435 488T381 522Q357 540 334 553T285 566Q255 566 232 544T200 471L179 474Q187 526 214 557T287 588Q322 588 348 572T400 538Q425 521 449 508T498
495Q526 495 549 516T581 588L602 585Q594 535 567 504T495 472Z" />
<glyph unicode="&#xf6;" glyph-name="odieresis" horiz-adv-x="799" d="M399 -11Q310 -11 238 11T123 76T80 179Q80 240 122 281T237 344T399 366Q489 366 561 345T676 282T719 179Q719 119 677 77T562 12T399 -11ZM399 13Q483 13 550 33T655 90T694 179Q694 232
656 268T550 323T399 342Q316 342 249 323T144 268T105 179Q105 127 143 90T249 33T399 13ZM507 480Q486 480 474 488T462 510Q462 538 507 538Q551 538 551 510Q551 497 540 489T507 480ZM285 480Q264 480 253 488T241 510Q241 538 285 538Q330 538 330 510Q330
497 319 489T285 480Z" />
<glyph unicode="&#xf7;" glyph-name="divide" horiz-adv-x="637" d="M320 350Q283 350 264 364T244 399Q244 421 263 435T320 450Q358 450 377 436T396 399Q396 378 377 364T320 350ZM567 247V224H70V247H567ZM320 20Q283 20 264 34T244 69Q244 91 263 105T320
120Q358 120 377 106T396 69Q396 48 377 34T320 20Z" />
<glyph unicode="&#xf8;" glyph-name="oslash" horiz-adv-x="799" d="M506 357Q600 341 659 296T719 179Q719 119 677 77T562 12T399 -11Q378 -11 358 -10T318 -6L290 -59H262L292 -2Q198 15 139 62T80 179Q80 240 122 281T237 344T399 366Q420 366 440 365T480
361L509 417H537L506 357ZM105 179Q105 117 160 76T303 20L468 339Q452 341 435 342T399 343Q316 343 249 324T144 268T105 179ZM399 13Q483 13 550 33T655 90T694 179Q694 242 639 282T494 336L330 17Q347 15 364 14T399 13Z" />
<glyph unicode="&#xf9;" glyph-name="ugrave" horiz-adv-x="910" d="M14 334V357H210V165Q210 86 254 50T381 13Q453 13 530 41T680 106V334H519V357H705V94Q705 53 724 34T769 14Q806 14 841 39L850 19Q831 6 812 -2T767 -10Q732 -10 708 14T680 84Q608 48 536
19T381 -11Q291 -11 238 30T185 165V334H14ZM492 437L483 421L242 551L257 578L492 437Z" />
<glyph unicode="&#xfa;" glyph-name="uacute" horiz-adv-x="910" d="M14 334V357H210V165Q210 86 254 50T381 13Q453 13 530 41T680 106V334H519V357H705V94Q705 53 724 34T769 14Q806 14 841 39L850 19Q831 6 812 -2T767 -10Q732 -10 708 14T680 84Q608 48 536
19T381 -11Q291 -11 238 30T185 165V334H14ZM356 437L591 578L606 551L365 421L356 437Z" />
<glyph unicode="&#xfb;" glyph-name="ucircumflex" horiz-adv-x="910" d="M14 334V357H210V165Q210 86 254 50T381 13Q453 13 530 41T680 106V334H519V357H705V94Q705 53 724 34T769 14Q806 14 841 39L850 19Q831 6 812 -2T767 -10Q732 -10 708 14T680 84Q608
48 536 19T381 -11Q291 -11 238 30T185 165V334H14ZM258 409L247 422L414 564H434L601 422L591 409L424 537L258 409Z" />
<glyph unicode="&#xfc;" glyph-name="udieresis" horiz-adv-x="910" d="M14 334V357H210V165Q210 86 254 50T381 13Q453 13 530 41T680 106V334H519V357H705V94Q705 53 724 34T769 14Q806 14 841 39L850 19Q831 6 812 -2T767 -10Q732 -10 708 14T680 84Q608 48
536 19T381 -11Q291 -11 238 30T185 165V334H14ZM531 471Q510 471 498 479T486 501Q486 529 531 529Q575 529 575 501Q575 488 564 480T531 471ZM309 471Q288 471 277 479T265 501Q265 529 309 529Q354 529 354 501Q354 488 343 480T309 471Z" />
<glyph unicode="&#xfd;" glyph-name="yacute" horiz-adv-x="762" d="M190 -180Q142 -180 108 -168T35 -139L43 -116Q81 -134 115 -145T191 -157Q244 -157 282 -129T353 -49L367 -27L128 334H5V357H278V334H156L382 -3L597 334H480V357H752V334H625L381 -49Q346
-105 301 -142T190 -180ZM313 437L548 578L563 551L322 421L313 437Z" />
<glyph unicode="&#xfe;" glyph-name="thorn" horiz-adv-x="860" d="M-20 -165V-142H161V497H-20V520H186V228Q270 287 358 327T541 367Q648 367 714 322T780 195Q780 131 738 85T627 15T476 -10Q386 -10 313 13T186 65V-142H369V-165H-20ZM541 344Q458 344 368
306T186 204V87Q241 58 317 35T476 14Q552 13 615 35T717 98T755 195Q755 261 699 302T541 344Z" />
<glyph unicode="&#xff;" glyph-name="ydieresis" horiz-adv-x="762" d="M190 -180Q142 -180 108 -168T35 -139L43 -116Q81 -134 115 -145T191 -157Q244 -157 282 -129T353 -49L367 -27L128 334H5V357H278V334H156L382 -3L597 334H480V357H752V334H625L381 -49Q346
-105 301 -142T190 -180ZM488 471Q467 471 455 479T443 501Q443 529 488 529Q532 529 532 501Q532 488 521 480T488 471ZM266 471Q245 471 234 479T222 501Q222 529 266 529Q311 529 311 501Q311 488 300 480T266 471Z" />
<glyph unicode="&#x2013;" glyph-name="endash" horiz-adv-x="595" d="M567 190V167H28V190H567Z" />
<glyph unicode="&#x2014;" glyph-name="emdash" horiz-adv-x="882" d="M855 190V167H28V190H855Z" />
<glyph unicode="&#x2018;" glyph-name="quoteleft" horiz-adv-x="267" d="M128 367Q102 367 88 381T74 419Q74 451 104 494T181 572L193 560Q156 526 128 493T95 426Q104 429 114 430T135 431Q154 431 166 423T178 401Q178 387 165 377T128 367Z" />
<glyph unicode="&#x2019;" glyph-name="quoteright" horiz-adv-x="267" d="M85 368L74 381Q112 414 139 447T172 514Q163 512 153 511T132 509Q113 509 101 517T89 540Q89 554 102 564T139 574Q165 574 179 560T193 522Q193 489 162 447T85 368Z" />
<glyph unicode="&#x201a;" glyph-name="quotesinglbase" horiz-adv-x="267" d="M85 -150L74 -139Q112 -104 139 -71T172 -5Q163 -7 153 -8T132 -10Q113 -10 101 -2T89 21Q89 35 102 45T139 55Q165 55 179 41T193 3Q193 -29 162 -71T85 -150Z" />
<glyph unicode="&#x201c;" glyph-name="quotedblleft" horiz-adv-x="410" d="M271 367Q245 367 231 381T217 419Q217 451 248 494T324 572L336 560Q299 526 272 493T239 426Q247 429 257 430T278 431Q297 431 309 423T321 401Q321 387 308 377T271 367ZM128 367Q102
367 88 381T74 419Q74 451 104 494T181 572L193 560Q156 526 128 493T95 426Q104 429 114 430T135 431Q154 431 166 423T178 401Q178 387 165 377T128 367Z" />
<glyph unicode="&#x201d;" glyph-name="quotedblright" horiz-adv-x="410" d="M228 359L217 370Q255 404 283 437T315 503Q297 500 275 500Q256 500 244 507T232 530Q232 544 245 554T282 564Q308 564 322 550T336 511Q336 479 306 437T228 359ZM85 359L74 370Q112
404 139 437T172 503Q154 500 132 500Q113 500 101 507T89 530Q89 544 102 554T139 564Q165 564 179 550T193 511Q193 479 162 437T85 359Z" />
<glyph unicode="&#x201e;" glyph-name="quotedblbase" horiz-adv-x="410" d="M228 -152L217 -140Q255 -106 283 -73T315 -7Q306 -8 296 -9T275 -11Q256 -11 244 -3T232 19Q232 34 245 43T282 53Q308 53 322 39T336 1Q336 -31 306 -74T228 -152ZM85 -152L74 -140Q112
-106 139 -73T172 -7Q163 -8 153 -9T132 -11Q113 -11 101 -3T89 19Q89 34 102 43T139 53Q165 53 179 39T193 1Q193 -31 162 -74T85 -152Z" />
<glyph unicode="&#x2022;" glyph-name="bullet" horiz-adv-x="320" d="M160 200Q123 200 104 214T84 249Q84 271 103 285T160 300Q198 300 217 286T236 249Q236 228 217 214T160 200Z" />
<glyph unicode="&#x2039;" glyph-name="guilsinglleft" horiz-adv-x="429" d="M359 -5L340 -14Q320 34 281 77T182 147T42 174H30V196H42Q122 196 181 223T280 293T340 382L359 374Q341 330 308 291T227 223T118 185Q179 176 226 148T307 79T359 -5Z" />
<glyph unicode="&#x203a;" glyph-name="guilsinglright" horiz-adv-x="430" d="M90 -14L70 -5Q88 39 121 79T203 147T312 185Q251 194 203 222T122 290T70 374L90 382Q110 336 149 293T248 223T387 196H399V174H387Q307 174 248 147T150 77T90 -14Z" />
</font>
</defs>
</svg>
