<?xml version="1.0" standalone="no"?>
<!DOCTYPE svg PUBLIC "-//W3C//DTD SVG 1.1//EN" "http://www.w3.org/Graphics/SVG/1.1/DTD/svg11.dtd">
<svg xmlns="http://www.w3.org/2000/svg">
<defs >
<font id="Gluten" horiz-adv-x="1017" ><font-face
    font-family="Gluten Thin"
    units-per-em="2000"
    panose-1="0 0 0 0 0 0 0 0 0 0"
    ascent="1290"
    descent="-475"
    alphabetic="0" />
<glyph unicode=" " horiz-adv-x="613" />
<glyph unicode="!" horiz-adv-x="423" d="M184 267Q162 267 146 275T117 303T96 358T83 446T74 573T70 746T69 972Q69 1025 69 1067T72 1143T80 1201T93 1243T113 1271T143 1286T183 1291Q205 1291 221 1285T249 1266T267 1231T279 1181T285 1113T287 1026T288
917Q288 802 286 711T279 552T267 434T252 353T233 301T210 275T184 267ZM171 -54Q142 -54 111 -48T59 -22T38 34Q38 70 57 95T108 135T173 149Q200 149 228 140T276 111T296 60Q296 20 278 -5T231 -42T171 -54Z" />
<glyph unicode="&quot;" horiz-adv-x="506" d="M389 821Q373 821 359 832T335 865T318 921T307 998T303 1097Q303 1130 306 1158T316 1209T333 1248T358 1272T395 1281Q411 1281 424 1275T447 1257T463 1226T473 1182T476 1124Q476 1063 473 1014T463 929T446
869T421 833T389 821ZM121 794Q102 794 87 810T62 854T44 921T34 1005T30 1101Q30 1138 34 1166T45 1214T64 1247T90 1266T122 1272Q138 1272 150 1262T171 1235T185 1196T194 1147T197 1095Q197 1035 195 987T188 903T174 842T153 806T121 794Z" />
<glyph unicode="#" horiz-adv-x="1680" d="M1124 -51Q1083 -51 1064 -35T1042 14Q1042 40 1042 69T1043 125T1044 174T1045 210Q1045 247 1031 257T965 268Q895 268 845 267T745 265T625 264Q602 264 588 252T567 215Q564 202 561 180T554 132T549 83T546 44Q544
2 522 -22T446 -47Q408 -47 390 -30T371 31Q371 52 372 83T375 145T375 198Q369 258 332 263Q318 265 289 266T224 268T159 269T112 270Q65 270 38 285T11 341Q11 372 32 387T98 406Q135 408 189 410T284 415Q319 418 340 426T364 461Q368 487 370 515T375 576T379
642T381 714Q381 745 359 759T293 774Q259 776 213 778T129 783Q88 785 68 803T47 849Q47 879 75 898T162 920Q218 921 268 924T356 931Q394 938 410 968T434 1068Q439 1096 445 1123T458 1174Q472 1212 494 1234T558 1256Q594 1256 615 1239T636 1186Q636 1163
635 1138T633 1089T630 1046T629 1017Q631 977 646 957T704 936Q772 936 846 937T981 940T1066 944Q1097 947 1114 969T1133 1040Q1135 1074 1138 1101T1149 1150Q1164 1188 1188 1206T1243 1225Q1283 1225 1303 1188T1324 1106Q1324 1093 1324 1076T1323 1040T1322
1004T1322 972Q1326 927 1363 926Q1407 925 1453 923T1550 921Q1601 921 1627 905T1654 856Q1654 823 1617 806T1514 788Q1473 788 1432 787T1352 785Q1339 785 1331 776T1317 742T1307 666Q1306 646 1304 623T1300 576T1297 532T1295 499Q1295 464 1306 446T1355
426Q1401 425 1438 423T1504 416Q1546 408 1566 392T1587 352Q1587 315 1566 297T1508 273Q1461 267 1411 265T1303 262Q1262 261 1253 217Q1250 195 1246 170T1239 119T1233 68T1226 23Q1221 -1 1211 -17T1181 -42T1124 -51ZM842 413Q877 413 899 413T942 415T994
416Q1040 418 1059 437T1083 495Q1086 517 1089 550T1094 618T1097 683T1099 732Q1099 770 1083 780T1021 790Q956 790 906 789T807 787T691 785Q647 784 628 770T605 729Q604 712 601 680T594 609T588 535T586 476Q586 438 603 426T654 413Q700 413 750 413T842
413Z" />
<glyph unicode="$" horiz-adv-x="1056" d="M480 966Q449 966 431 976T404 1006T396 1055Q396 1107 401 1145T417 1207T443 1244T481 1256Q498 1256 511 1246T534 1213T549 1158T554 1078Q554 1039 548 1014T526 978T480 966ZM478 -53Q458 -53 443 -45T418 -17T403
32T398 107Q398 145 402 172T416 218T443 245T484 254Q503 254 517 247T541 225T556 190T562 140Q562 85 557 48T541 -11T514 -43T478 -53ZM488 134Q423 134 353 139T219 155T113 180Q75 193 51 210T27 258Q27 293 50 311T119 330Q152 330 201 320T312 299T446
289Q516 289 579 299T683 335T724 406Q724 447 699 472T611 517T436 555Q314 576 230 610T102 694T58 815Q58 875 97 919T204 993T361 1036T546 1051Q603 1051 664 1045T779 1028T864 999T897 957Q897 932 883 917T846 894T795 886Q750 886 691 895T562 904Q500
904 447 893T362 859T329 797Q329 760 360 735T451 691T602 657Q726 636 808 603T930 520T971 395Q971 325 932 275T825 194T670 149T488 134Z" />
<glyph unicode="%" horiz-adv-x="1488" d="M318 674Q235 674 171 702T69 781T32 903Q32 993 79 1061T207 1169T384 1208Q468 1208 535 1181T643 1103T683 977Q683 911 653 856T572 760T455 697T318 674ZM332 791Q383 791 433 815T516 878T549 962Q549 1007 528
1039T466 1090T362 1108Q304 1108 259 1082T189 1015T163 928Q163 873 187 843T250 802T332 791ZM1086 96Q1141 96 1184 118T1253 180T1278 272Q1278 313 1258 347T1198 402T1098 422Q1049 422 1000 400T919 336T886 234Q886 185 916 155T992 111T1086 96ZM1085
-20Q1003 -20 926 3T799 80T748 230Q748 334 804 403T948 506T1130 540Q1211 540 1275 508T1377 417T1414 279Q1414 191 1371 124T1252 18T1085 -20ZM247 46Q217 46 200 63T182 108Q182 129 211 167T290 258T398 372Q425 396 469 442T570 548T689 674T814 807T932
933T1031 1039T1100 1110Q1144 1156 1176 1180T1239 1204Q1264 1204 1281 1193T1299 1153Q1299 1123 1272 1089T1203 1011Q1158 968 1094 899T952 746T793 572T630 395T480 234Q441 194 396 150T311 76T247 46Z" />
<glyph unicode="&amp;" horiz-adv-x="1401" d="M533 -109Q395 -109 286 -68T114 58T51 270Q51 350 78 413T151 527T251 613T364 675Q418 699 448 713T490 735T502 749Q502 756 496 762T478 779Q437 813 403 856T349 950T328 1052Q328 1141 377 1194T507 1272T679
1297Q771 1297 849 1267T976 1180T1025 1041Q1025 966 992 911T906 817T793 749Q774 740 766 732T758 717Q758 707 790 669T878 569Q909 535 938 504T990 453T1024 433Q1035 433 1047 459T1072 517Q1095 571 1118 596T1170 622Q1195 622 1212 606T1230 561Q1230
545 1223 517T1202 457T1171 396Q1157 372 1151 356T1145 327Q1145 310 1162 289T1222 225Q1256 198 1288 165T1342 99T1363 42Q1363 0 1338 -17T1276 -34Q1240 -34 1205 -4T1139 64Q1113 97 1091 121T1056 145Q1045 145 1034 137T1003 101Q978 63 938 25T840 -43T706
-91T533 -109ZM558 62Q641 62 707 87T820 149T891 224T916 286Q916 297 901 320T856 378T784 459Q749 499 715 535T655 594T616 617Q598 617 557 603T466 561T371 494T295 404T265 291Q265 219 303 168T408 89T558 62ZM651 812Q680 812 716 829T785 877T840 947T862
1031Q862 1100 815 1140T670 1180Q626 1180 586 1166T520 1122T494 1043Q494 1001 512 960T558 886T611 832T651 812Z" />
<glyph unicode="&apos;" horiz-adv-x="332" d="M160 850Q139 850 123 871T95 927T79 1004T73 1090Q73 1143 76 1179T89 1237T117 1268T165 1278Q189 1278 206 1268T233 1239T248 1191T253 1125Q253 1047 247 994T229 910T200 864T160 850Z" />
<glyph unicode="(" horiz-adv-x="616" d="M492 -401Q439 -401 393 -371T308 -291Q246 -224 198 -135T116 55T64 260T46 462Q46 590 70 711T142 939T255 1126Q293 1172 341 1211T435 1274T511 1298Q545 1298 569 1283T593 1226Q593 1202 574 1176T519 1108T431
995Q372 915 338 826T289 644T275 461Q275 346 305 228T390 1T513 -195Q537 -225 551 -255T566 -315Q566 -349 549 -375T492 -401Z" />
<glyph unicode=")" horiz-adv-x="588" d="M106 -393Q82 -393 61 -383T25 -354T11 -308Q11 -267 30 -231T92 -151Q133 -119 172 -72T245 37T305 169T345 319T359 483Q359 628 327 752T225 973Q180 1034 136 1077T62 1151T32 1205Q32 1236 44 1256T78 1285T126 1295Q162
1295 209 1268T304 1200T387 1114Q443 1042 483 955T546 758T568 510Q568 398 545 282T478 56T378 -145T253 -295Q221 -337 182 -365T106 -393Z" />
<glyph unicode="*" horiz-adv-x="970" d="M477 510Q444 510 427 532T410 599Q410 611 410 635T410 686T411 737T410 771Q409 806 403 817T384 829Q373 829 347 814T286 774T210 722T130 671Q103 657 80 657Q56 657 42 673T28 709Q28 723 35 736T59 762Q94 784
141 809T232 857T306 898T336 923Q336 930 314 940T255 963T177 990T98 1016Q74 1022 56 1040T38 1082Q38 1101 47 1116T71 1140T104 1149Q118 1149 136 1144T172 1128Q210 1109 258 1086T345 1045T395 1027Q404 1027 407 1043T412 1086Q412 1101 412 1118T412
1153T412 1187T411 1218Q411 1262 428 1284T487 1306Q518 1306 528 1285T538 1219Q538 1204 538 1183T537 1140T537 1096Q539 1069 546 1050T572 1031Q583 1031 609 1043T669 1074T738 1110T804 1141Q831 1153 853 1153Q870 1153 884 1144T906 1119T914 1089Q914
1074 904 1061T874 1038Q848 1025 805 1009T719 978T645 949T615 926Q615 920 638 906T698 873T771 837T839 802T880 774Q897 760 905 744T913 706Q913 685 896 670T853 655Q838 655 823 662T795 680Q772 699 737 727T666 784T599 832T553 851Q541 851 538 835T534
787Q534 770 535 748T537 701T540 654T542 610Q542 563 529 537T477 510Z" />
<glyph unicode="+" horiz-adv-x="1105" d="M547 167Q509 167 494 211T468 324Q467 341 466 355T464 384T462 410T460 432Q455 472 445 492T416 520T368 528Q354 528 325 528T262 528T196 529T142 532Q90 538 58 555T25 610Q25 635 45 651T105 677T198 687Q239
689 281 691T358 697T410 704Q430 709 440 725T453 789Q454 804 455 819T457 853T459 891T462 933Q472 1017 492 1047T560 1078Q591 1078 611 1041T638 965Q641 940 642 919T645 877T647 839T649 805Q650 751 661 728T697 704Q715 702 751 701T829 697T910 692T972
686Q1022 677 1048 660T1074 616Q1074 584 1042 569T954 547Q914 542 866 540T775 536T704 534Q677 534 662 513T644 436Q644 423 643 409T641 379T638 348T635 318Q628 253 608 210T547 167Z" />
<glyph unicode="," horiz-adv-x="501" d="M175 -253Q148 -244 148 -226T160 -187Q180 -161 195 -127T217 -63Q224 -45 225 -31T221 -11Q214 -8 202 -9T171 -11Q138 -11 111 6T76 55Q64 78 64 101T73 146T109 189Q139 218 176 224T250 217T312 174Q361 126 368
61T351 -85Q342 -113 327 -140T293 -189T254 -224Q236 -242 215 -250T175 -253Z" />
<glyph unicode="-" horiz-adv-x="1145" d="M488 513Q364 513 275 517T127 531T41 560T13 609Q13 646 38 669T125 704T288 719T544 723Q706 723 816 721T992 708T1088 675T1118 612Q1118 577 1086 557T982 528T788 516T488 513Z" />
<glyph unicode="." horiz-adv-x="472" d="M227 -27Q169 -27 130 -7T70 44T49 111Q49 159 81 191T160 240T252 257Q294 257 326 242T377 197T396 126Q396 82 374 47T313 -7T227 -27Z" />
<glyph unicode="/" horiz-adv-x="1173" d="M89 46Q58 46 41 63T24 108Q24 129 53 167T131 258T240 372Q267 396 311 442T412 548T531 674T656 807T774 933T873 1039T942 1110Q985 1156 1017 1180T1081 1204Q1106 1204 1123 1193T1140 1153Q1140 1123 1114 1089T1044
1011Q1000 968 936 899T794 746T635 572T472 395T321 234Q283 194 238 150T153 76T89 46Z" />
<glyph unicode="0" horiz-adv-x="1012" d="M441 -46Q361 -46 298 -15T186 74T104 209T55 378T39 571Q39 716 70 839T162 1056T313 1201T521 1253Q622 1253 699 1211T829 1093T908 911T935 679Q935 571 917 466T862 268T766 105T627 -6T441 -46ZM453 195Q510 195
555 222T634 295T692 401T727 527T739 660Q739 729 728 795T690 915T624 1000T525 1032Q454 1032 401 996T313 897T260 757T242 594Q242 537 251 480T279 371T323 281T381 218T453 195Z" />
<glyph unicode="1" horiz-adv-x="621" d="M338 -67Q280 -67 248 -32T216 68Q216 108 219 168T227 300T238 449T250 603T261 748T269 870T272 955Q272 990 266 1004T237 1022Q216 1025 188 1017T133 1000T91 993Q71 1002 63 1014T54 1045Q54 1075 87 1109T172 1173T277
1222T367 1242Q416 1242 445 1214T490 1139T510 1034T516 916Q516 877 514 825T509 712T502 586T492 454T482 323T473 201T463 93Q450 12 421 -27T338 -67Z" />
<glyph unicode="2" horiz-adv-x="1034" d="M295 -41Q232 -35 183 -21T105 22T76 103Q76 150 92 191T162 274Q202 312 267 367T407 486T551 615Q599 659 635 704T692 793T713 875Q713 970 663 1007T523 1044Q442 1044 384 1019T288 958Q262 933 239 904T195 855T151
834Q122 834 99 853T76 908Q76 961 108 1018T200 1124T344 1203T531 1234Q619 1234 694 1217T824 1161T910 1062T941 911Q941 848 919 791T857 681T763 573Q728 538 684 497T594 413T506 335T434 274Q407 252 394 233T381 194Q381 180 399 174T445 166T499 164Q544
164 610 172T742 189T850 198Q891 198 916 180T942 128Q942 83 918 53T845 4T724 -25T556 -41Q497 -43 428 -44T295 -41Z" />
<glyph unicode="3" horiz-adv-x="1082" d="M479 -86Q391 -86 311 -72T167 -32T66 25T29 93Q29 120 38 138T61 165T90 179T119 184Q152 184 206 163T331 121T487 100Q554 100 610 112T708 147T773 204T796 280Q796 340 768 377T690 435T577 469Q520 481 478 499T414
544T391 606Q391 658 429 683T533 728Q593 744 638 767T708 826T734 913Q734 972 700 1003T606 1046T469 1058Q391 1058 326 1047T213 1023T139 1011Q96 1011 72 1034T47 1090Q47 1125 86 1153T190 1201T334 1230T493 1241Q652 1241 755 1205T910 1102T961 946Q961
884 935 834T864 747T757 689Q715 670 695 655T675 617Q675 591 706 577T778 549Q839 533 897 502T992 414T1030 265Q1030 183 996 118T892 8T720 -62T479 -86Z" />
<glyph unicode="4" horiz-adv-x="1036" d="M663 -49Q624 -49 598 -29T571 44Q571 60 571 84T572 134T573 185T573 231Q570 277 551 297T461 318Q386 320 314 324T188 340Q141 351 113 382T73 461T61 567Q61 611 70 669T94 788T124 906T154 1004Q171 1059 189 1098T231
1159T289 1180Q309 1180 323 1173T344 1150T352 1111Q352 1083 343 1040T322 946T297 839T275 731T266 631Q266 590 272 565T292 527T332 506Q363 497 413 495T509 492Q561 492 579 507T597 564Q597 580 598 616T602 703T606 808T611 917T616 1014T619 1081Q624
1137 644 1179T704 1222Q731 1222 749 1210T777 1165T792 1073Q794 1050 795 1014T796 934T796 840T796 737T795 632T794 531Q794 507 805 498T840 488Q869 488 898 491T953 491Q980 486 996 474T1013 428Q1013 382 990 366T928 344Q905 341 876 337T823 327Q796
321 787 301T773 234Q771 205 769 169T764 99T757 42Q748 -4 726 -26T663 -49Z" />
<glyph unicode="5" horiz-adv-x="990" d="M259 -13Q212 -13 174 -10T108 1Q70 13 49 33T28 89Q28 135 60 157T152 180Q177 180 217 179T299 178Q379 178 450 190T577 229T664 300T696 410Q696 499 640 536T481 573Q405 573 349 560T221 547Q125 547 82 592T38
726Q38 779 47 836T72 948T104 1045Q128 1106 163 1141T252 1191T387 1206Q446 1206 489 1205T582 1203T706 1202Q754 1202 793 1196T857 1172T881 1117Q881 1083 856 1066T788 1043T696 1037Q637 1037 565 1040T427 1043Q365 1043 332 1027T284 963Q277 938 269
906T255 839T248 772Q248 741 256 727T280 709T323 705Q349 705 388 710T471 721T557 726Q673 726 755 692T882 587T927 408Q927 291 876 211T733 81T521 9T259 -13Z" />
<glyph unicode="6" horiz-adv-x="1066" d="M532 -28Q409 -28 321 6T175 109T91 282T63 528Q63 647 89 759T156 963T242 1116Q278 1164 318 1189T402 1215Q442 1215 463 1197T485 1138Q485 1109 470 1082T435 1026Q413 995 390 950T347 856T315 761T303 684Q303
674 306 668T315 662Q324 662 348 679T416 719Q467 744 526 756T644 768Q749 768 830 723T958 599T1004 417Q1004 318 970 236T874 95T725 4T532 -28ZM523 131Q610 131 670 167T762 263T794 392Q794 466 761 514T672 585T553 609Q491 609 432 588T333 519T293 397Q293
339 307 290T351 206T423 151T523 131Z" />
<glyph unicode="7" horiz-adv-x="941" d="M317 -36Q290 -36 266 -27T226 4T210 64Q210 165 226 252T271 414T335 552T410 666Q459 734 507 788T594 885T656 963T679 1028Q679 1070 641 1083T533 1097Q450 1097 366 1090T214 1075T113 1067Q74 1067 53 1077T31
1128Q31 1163 71 1190T178 1236Q227 1246 294 1253T431 1264T560 1268Q639 1268 704 1260T815 1231T887 1169T912 1066Q912 1014 883 959T806 843T704 716T601 577Q538 486 490 364T433 85Q427 45 414 18T378 -22T317 -36Z" />
<glyph unicode="8" horiz-adv-x="1197" d="M593 -25Q478 -25 380 -6T208 54T93 163T52 326Q52 388 76 445T138 545T219 604Q250 616 263 625T276 642Q276 650 264 658T233 675Q170 707 135 763T100 882Q100 968 143 1032T260 1139T427 1203T618 1225Q712 1225
801 1203T961 1136T1074 1029T1116 882Q1116 831 1094 785T1036 704T961 650Q949 644 942 638T934 624Q934 617 939 611T963 596Q1020 572 1057 532T1112 439T1130 319Q1130 224 1087 159T968 53T796 -6T593 -25ZM601 137Q689 137 757 160T864 229T903 339Q903
423 867 473T765 545T617 567Q518 567 443 545T325 472T282 339Q282 270 325 226T440 159T601 137ZM598 696Q659 696 713 711T809 751T873 812T897 886Q897 930 876 966T815 1028T723 1069T607 1084Q518 1084 450 1057T344 984T306 878Q306 842 329 810T393 752T487
711T598 696Z" />
<glyph unicode="9" horiz-adv-x="1058" d="M344 -34Q306 -34 284 -24T252 3T242 45Q242 80 264 102T337 141Q376 158 426 186T530 250T627 326T699 408T727 486Q727 504 724 511T710 519Q699 519 672 502Q645 484 590 460T444 436Q330 436 244 476T110 597T62
795Q62 891 98 965T198 1090T346 1167T525 1193Q663 1193 770 1149T938 1011T999 763Q999 594 946 461T787 223T527 28Q479 0 433 -17T344 -34ZM502 588Q554 588 604 604T696 651T761 728T785 834Q785 903 750 951T657 1024T529 1049Q449 1049 390 1020T298 936T265
800Q265 736 298 688T385 614T502 588Z" />
<glyph unicode=":" horiz-adv-x="403" d="M171 75Q137 75 105 90T53 133T33 195Q33 231 51 258T100 302T163 318Q200 318 234 303T290 259T312 191Q312 153 291 127T237 88T171 75ZM185 658Q153 658 125 670T80 705T62 756Q62 786 77 813T125 857T208 874Q236
874 264 862T312 827T332 775Q332 738 311 712T257 672T185 658Z" />
<glyph unicode=";" horiz-adv-x="510" d="M228 652Q169 652 127 683T85 761Q85 806 118 839T228 873Q290 873 324 842T359 759Q359 722 339 699T289 664T228 652ZM192 -180Q170 -173 171 -156T180 -120Q196 -96 208 -66T226 -10Q231 8 232 21T229 39Q223 43 214
42T189 41Q162 41 141 55T112 96Q99 125 104 155T139 216Q163 245 193 253T253 252T302 218Q341 178 347 119T333 -16Q322 -56 301 -92T256 -149Q241 -166 224 -175T192 -180Z" />
<glyph unicode="&lt;" horiz-adv-x="730" d="M600 210Q565 210 505 230T375 279Q313 304 250 340T135 418T50 504T18 590Q18 636 41 681T104 772T193 860T295 943Q325 966 368 994T457 1047T544 1089T611 1106Q644 1106 662 1094T681 1050Q681 1024 651 992T568
921T448 838Q418 819 383 791T316 731T262 669T241 617Q241 594 261 568T314 518T383 472T454 437Q585 384 636 351T687 288Q687 253 666 232T600 210Z" />
<glyph unicode="=" horiz-adv-x="949" d="M270 745Q197 745 140 753T50 780T17 829Q17 851 41 867T108 894T203 910T317 916Q356 916 413 916T535 914T658 909T759 901Q823 894 860 879T898 836Q898 811 864 794T768 769Q718 762 652 758T516 751T381 747T270
745ZM303 318Q248 318 199 323T112 340T52 369T30 412Q30 448 65 465T164 487T308 493Q349 493 404 493T520 493T634 490T727 481Q798 471 833 455T868 415Q868 387 812 365T651 333Q620 329 575 327T478 322T381 319T303 318Z" />
<glyph unicode="&gt;" horiz-adv-x="774" d="M210 212Q177 212 156 229T135 273Q135 294 152 318T212 369Q238 385 280 414T369 479T457 554T525 627T551 690Q551 719 525 751T455 815T357 876T248 928T144 967Q117 978 95 991T61 1021T49 1063Q49 1093 74 1106T136
1119Q172 1119 223 1103T329 1062T435 1010T522 961Q572 931 619 893T696 807T726 704Q726 660 700 611T635 515T557 431Q500 377 434 327T309 244T210 212Z" />
<glyph unicode="?" horiz-adv-x="1030" d="M424 284Q396 284 376 294T344 329T332 395Q332 465 361 523T444 631T568 724Q630 761 678 798T754 875T782 963Q782 1014 749 1048T656 1098T520 1115Q462 1115 402 1101T289 1061T204 999Q179 982 157 973T110 963Q88
963 71 976T54 1020Q54 1040 65 1059T95 1096Q140 1149 206 1188T354 1247T525 1268Q628 1268 712 1248T855 1188T947 1093T979 965Q979 890 948 833T863 733T743 652Q692 622 643 588T560 510T517 406Q505 346 487 315T424 284ZM398 -52Q350 -52 318 -27T286 43Q286
90 319 120T399 150Q431 150 459 141T507 110T526 51Q526 13 498 -19T398 -52Z" />
<glyph unicode="@" horiz-adv-x="1888" d="M829 -73Q665 -73 519 -35T261 80T86 272T22 540Q22 673 69 788T203 997T407 1156T666 1257T965 1292Q1167 1292 1329 1247T1605 1110T1780 884T1841 567Q1841 468 1806 400T1705 298T1545 263Q1446 263 1382 305T1278
434Q1267 456 1258 470T1237 485Q1223 485 1203 459T1141 398T1023 337T820 310Q728 310 655 340T538 426T495 558Q495 637 536 698T648 802T806 866T988 888Q1095 888 1172 860T1300 762T1380 563Q1391 486 1428 442T1527 398Q1578 398 1609 418T1655 476T1670
566Q1670 646 1649 729T1580 887T1451 1021T1252 1115T973 1150Q836 1150 720 1120T512 1036T357 905T260 737T226 540Q226 424 272 336T400 187T591 96T828 65Q946 65 1021 85T1147 126Q1191 146 1220 156T1269 167Q1298 167 1313 151T1328 107Q1328 83 1305 59T1236
10T1120 -34Q1054 -54 980 -63T829 -73ZM879 435Q932 435 980 450T1066 493T1126 558T1148 637Q1148 716 1099 751T952 787Q897 787 844 773T750 732T683 669T657 589Q657 541 685 506T764 453T879 435Z" />
<glyph unicode="A" horiz-adv-x="1469" d="M1279 -40Q1238 -40 1209 -20T1156 42Q1147 69 1136 105T1115 180T1093 252T1071 310Q1057 342 1037 357T976 378Q956 380 916 383T827 389T737 392Q673 392 607 389T493 381Q452 377 432 365T398 321Q385 292 371 251T343
165T315 77Q294 29 265 5T183 -20Q143 -20 116 -7T76 36T63 115Q63 161 76 225T111 365T161 517T217 665T272 794T317 886Q351 949 394 1007T491 1110T609 1182T750 1209Q874 1209 973 1134T1150 935Q1179 893 1208 827T1267 680T1321 513T1365 344T1395 191T1406
73Q1406 11 1372 -14T1279 -40ZM989 551Q1011 555 1018 568T1025 609Q1025 640 1015 685T986 781T944 876Q910 941 864 984T765 1028Q707 1028 655 983T562 867Q545 839 527 803T494 729T470 658T460 601Q460 571 484 560T561 548Q673 548 755 548T894 548T989
551Z" />
<glyph unicode="B" horiz-adv-x="1261" d="M507 -55Q397 -55 321 -44T197 -3T125 85T96 233Q94 279 94 341T94 472T97 610T103 739T109 843Q118 977 172 1055T331 1167T593 1201Q683 1201 770 1184T929 1129T1042 1032T1085 886Q1085 819 1059 773T995 697T921
654Q885 640 860 632T835 617Q835 611 871 605T960 583Q1032 562 1085 527T1168 440T1197 317Q1197 247 1160 184T1071 79Q1031 47 969 22T830 -20T671 -46T507 -55ZM500 121Q604 121 690 134T838 176T935 246T970 344Q970 394 932 426T830 477T692 505T543 516T409
519Q391 519 377 511T352 483T336 427T330 335Q330 273 335 232T357 167T408 132T500 121ZM370 676Q448 676 510 678T624 688T722 708Q795 728 837 767T880 884Q880 928 853 961T782 1017T683 1051T575 1062Q525 1062 480 1052T403 1022T356 972Q349 957 344 930T334
870T328 807T326 751Q326 715 335 696T370 676Z" />
<glyph unicode="C" horiz-adv-x="1205" d="M657 -64Q520 -64 410 -25T223 89T104 270T63 509Q63 658 106 782T234 996T441 1136T720 1185Q800 1185 867 1169T984 1125T1061 1065T1089 998Q1089 957 1067 937T1013 917Q987 917 966 929T914 956T835 984T707 996Q641
996 577 968T462 885T381 748T350 559Q350 478 371 404T435 273T546 182T705 149Q775 149 825 167T911 211T976 254T1032 273Q1085 273 1105 249T1125 180Q1125 135 1091 92T995 13T846 -43T657 -64Z" />
<glyph unicode="D" horiz-adv-x="1338" d="M349 -21Q272 -21 224 2T148 74T108 194Q94 266 89 362T83 578Q83 697 89 802T112 987Q136 1095 191 1156T357 1218Q515 1218 654 1180T908 1078T1104 932T1231 763T1276 593Q1276 496 1232 405T1105 237T909 102T653
12T349 -21ZM455 218Q565 218 653 242T809 306T921 397T990 503T1013 611Q1013 657 986 708T908 809T784 899T622 963T426 988Q396 988 378 963T351 892Q342 852 338 800T333 689Q333 559 337 467T356 317Q381 218 455 218Z" />
<glyph unicode="E" horiz-adv-x="1137" d="M505 -62Q378 -62 291 -16T157 123T94 358Q90 392 88 428T85 504T83 586T83 672Q83 843 116 954T219 1129T400 1218T664 1244Q739 1244 807 1238T929 1218T1012 1186T1043 1139Q1043 1111 1027 1095T984 1073Q953 1069
902 1071T790 1077T666 1080Q576 1080 515 1067T417 1022T364 938T348 807Q348 767 358 747T408 720T533 713Q554 713 585 713T649 715T712 716T759 716Q834 716 863 697T892 641Q892 588 858 569T766 549Q741 549 711 549T649 549T586 548T532 548Q443 548 400
543T345 519T332 460Q332 394 338 342T359 251T401 187T472 150T576 137Q652 137 725 142T857 151T949 156Q994 156 1015 138T1036 83Q1036 43 987 15T858 -30T685 -54T505 -62Z" />
<glyph unicode="F" horiz-adv-x="1077" d="M288 -32Q257 -32 233 -12T193 40T164 104Q153 140 142 201T120 336T101 484T88 623T83 729Q83 832 102 914T158 1059T244 1166Q315 1226 414 1250T629 1275Q699 1275 770 1265T899 1236T993 1190T1029 1132Q1029 1105
1014 1091T972 1071Q931 1066 860 1072T700 1079Q607 1079 545 1059T445 998Q418 972 403 936T381 852T374 744Q374 717 377 696T389 659T409 636T441 628Q474 628 521 630T619 636T713 641T785 640Q825 635 846 623T868 585Q868 571 862 557T844 532Q826 514 776
507T638 491T416 461Q386 457 374 438T361 384Q361 370 364 336T370 258T377 171T381 92T380 39Q369 -2 345 -17T288 -32Z" />
<glyph unicode="G" horiz-adv-x="1440" d="M716 -77Q563 -77 442 -34T236 94T107 305T63 597Q63 740 103 847T215 1030T378 1153T575 1222T785 1244Q860 1244 932 1231T1061 1193T1153 1139T1188 1073Q1188 1035 1162 1014T1097 992Q1073 992 1046 1002T981 1025T890
1048T759 1059Q667 1059 590 1027T455 935T366 789T334 592Q334 430 384 327T531 175T764 126Q835 126 896 139T1004 181T1076 253T1102 357Q1102 406 1074 443T991 503T853 529Q769 535 722 553T674 619Q674 657 703 678T788 707T920 716Q1022 716 1104 697T1245
637T1334 533T1365 384Q1365 256 1317 167T1181 25T975 -53T716 -77Z" />
<glyph unicode="H" horiz-adv-x="1333" d="M1079 -22Q1036 -22 1016 -4T989 56Q987 92 987 131T986 211T986 290T986 361T986 417Q986 469 977 490T948 521Q926 531 866 538T672 545Q597 545 551 544T477 541T434 535T405 525Q391 519 378 506T362 461Q359 446
358 425T354 377T351 317T349 242T346 149Q341 82 327 47T289 0T228 -13Q173 -13 146 36T104 161Q99 200 95 256T88 373T85 494T83 598Q83 667 84 728T90 843T98 945T110 1031Q122 1100 141 1146T188 1215T257 1238Q303 1238 325 1206T356 1091Q358 1062 360 1033T364
975T368 924T372 882T375 853Q381 817 390 796T427 768Q462 761 530 760T675 758Q738 758 793 757T889 756T947 762Q965 769 976 787T991 851Q993 872 995 901T999 967T1005 1044T1013 1127Q1022 1202 1046 1232T1106 1263Q1157 1263 1183 1226T1224 1100Q1231
1074 1235 1029T1243 926T1248 801T1250 666Q1250 610 1248 550T1243 429T1234 312T1224 207T1212 123Q1196 46 1163 12T1079 -22Z" />
<glyph unicode="I" horiz-adv-x="479" d="M232 -13Q166 -13 135 35T103 159Q103 191 103 249T104 382T106 541T110 710T117 872T126 1009Q137 1106 165 1146T256 1186Q309 1186 333 1146T364 1035Q366 992 368 927T371 785T372 628T373 473T373 338T372 241Q372
146 359 91T317 11T232 -13Z" />
<glyph unicode="J" horiz-adv-x="1128" d="M492 -70Q419 -70 352 -57T230 -15T135 53Q95 97 70 152T33 268T21 388Q21 427 30 456T57 505T98 536T149 546Q178 546 197 528T226 462Q233 408 243 364T272 281Q301 219 349 190T465 160Q533 160 574 178T646 235Q681
278 700 340T726 481T734 647Q734 718 732 781T726 897T720 994T714 1068T711 1121Q711 1157 722 1183T761 1224T845 1238Q889 1238 920 1220T974 1166Q986 1143 996 1112T1015 1039T1028 946T1037 833T1040 700Q1040 564 1027 465T990 296T936 174T871 84Q796
-1 696 -35T492 -70Z" />
<glyph unicode="K" horiz-adv-x="1231" d="M238 -19Q168 -19 136 26T93 168Q90 216 88 267T86 369T86 472T89 572Q93 673 103 774T135 971T190 1152Q216 1203 255 1226T349 1250Q394 1250 420 1222T446 1149Q446 1126 442 1085T431 994T418 898T407 813T404 759Q407
738 414 729T440 719Q456 719 476 729T520 760Q577 806 667 876T852 1021Q932 1084 992 1120T1095 1157Q1129 1157 1149 1145T1178 1112T1188 1068Q1188 1051 1178 1030T1147 985T1097 934T1029 878Q976 839 912 796T787 714T684 650Q650 632 635 620T620 597Q620
587 628 576T656 548Q672 533 705 504T780 440T860 370T930 308T974 269Q1057 192 1092 147T1128 77Q1128 44 1114 25T1075 -4T1017 -14Q977 -14 921 16T778 124Q697 199 646 250T562 335T507 394T460 445Q441 470 429 483T409 502T392 508Q381 508 376 498T371
468Q371 463 371 437T370 374T368 301T366 233T364 190Q358 73 329 27T238 -19Z" />
<glyph unicode="L" horiz-adv-x="1100" d="M308 -33Q178 -5 131 98T83 372Q83 421 85 484T93 617T104 752T116 873T127 962Q147 1095 186 1155T292 1215Q335 1215 356 1197T384 1144T391 1063Q391 1032 389 991T385 902T381 804T377 701T375 602T375 510Q377 425
385 368T419 279T492 232T623 216Q694 213 757 211T862 205Q922 209 960 209T1017 201Q1033 193 1040 179T1048 138Q1048 96 1022 67T950 18T842 -17Q778 -32 694 -41T527 -50Q494 -50 454 -49T375 -43T308 -33Z" />
<glyph unicode="M" horiz-adv-x="1588" d="M234 -48Q177 -48 153 -14T113 86Q105 127 99 176T90 278T86 388T84 502Q86 574 90 646T101 784T117 903T138 987Q164 1061 207 1105T306 1168T423 1188Q493 1188 544 1157T624 1067Q640 1034 656 985T686 881T713 772T735
671Q746 614 760 571T804 527Q833 527 847 563T870 643Q878 694 888 752T910 867T937 977T967 1069Q994 1126 1043 1157T1171 1188Q1229 1188 1277 1168T1363 1108T1427 1012Q1450 965 1466 888T1492 713T1503 509Q1503 456 1503 403T1501 298T1496 195T1485 96Q1471
38 1441 12T1353 -15Q1318 -15 1298 3T1271 54Q1269 88 1267 125T1263 203T1258 285T1254 366Q1251 445 1246 518T1235 650T1219 739Q1202 795 1181 824T1117 853Q1082 853 1056 825T1016 740Q1011 716 1004 680T990 600T975 510T960 419T947 336Q932 258 898 219T801
179Q727 179 695 231T637 371Q631 400 622 442T603 531T583 626T565 711T549 774Q536 826 514 850T460 874Q416 874 397 841T365 736Q361 712 358 674T353 589T350 487T348 377Q348 319 348 267T345 170T341 91T334 34Q323 -3 300 -25T234 -48Z" />
<glyph unicode="N" horiz-adv-x="1438" d="M257 -48Q216 -48 190 -23T145 49Q136 73 128 128T113 258T101 412T91 570T85 708T83 803Q83 920 98 1001T155 1126T274 1170Q328 1170 381 1127T505 989T681 744Q821 538 906 439T1028 339Q1046 339 1057 348T1075 384T1084
468Q1086 492 1086 541T1086 651T1084 778T1083 901T1083 1000T1086 1055Q1098 1115 1125 1138T1200 1161Q1236 1161 1260 1149T1300 1112T1323 1049T1333 958Q1334 928 1335 871T1337 742T1338 591T1336 440T1331 306T1322 210Q1310 133 1286 82T1221 5T1117 -21Q1060
-21 992 36T846 195T678 425Q621 507 572 576T486 697T422 777T383 806Q360 806 351 780T342 673Q342 627 344 572T349 457T356 339T362 224T364 121T362 40Q351 -11 325 -29T257 -48Z" />
<glyph unicode="O" horiz-adv-x="1578" d="M716 -104Q572 -104 453 -60T246 69T111 271T63 536Q63 674 106 781T224 966T394 1094T596 1168T806 1193Q959 1193 1088 1148T1313 1020T1462 820T1515 559Q1515 400 1455 277T1286 68T1032 -60T716 -104ZM763 158Q938
158 1043 214T1195 363T1242 567Q1242 669 1209 749T1115 884T976 967T806 996Q717 996 636 969T492 892T393 771T356 612Q356 507 386 424T471 281T600 190T763 158Z" />
<glyph unicode="P" horiz-adv-x="1213" d="M294 -21Q260 -21 232 -4T181 51T141 151Q134 182 127 230T114 336T102 455T92 576T86 686T83 774Q83 936 125 1029T265 1160T524 1199Q650 1199 765 1176T971 1103T1112 977T1164 793Q1164 711 1129 650T1029 547T876
482T684 450Q616 446 552 448T426 451Q399 451 392 431T384 374Q384 354 385 326T388 266T391 203T394 144T395 99Q395 39 371 9T294 -21ZM438 593Q508 593 578 599T711 619T823 658T900 719T928 806Q928 862 901 901T831 967T739 1009T643 1030T566 1036Q505 1036
463 1027T396 997T360 946T349 873Q349 813 351 767T360 688T376 634T401 603T438 593Z" />
<glyph unicode="Q" horiz-adv-x="1545" d="M1343 -212Q1299 -212 1261 -180Q1233 -150 1194 -96T1116 15Q1105 31 1093 37T1066 43Q1037 43 990 26T868 -9T685 -27Q549 -27 435 14T238 134T109 324T63 577Q63 718 117 833T269 1033T493 1162T763 1208Q907 1208
1028 1168T1237 1050T1375 862T1425 612Q1425 530 1410 462T1366 340T1297 246Q1269 219 1269 198Q1269 185 1286 170T1337 131Q1363 104 1388 75T1433 16T1464 -42T1476 -98Q1476 -131 1457 -157T1407 -197T1343 -212ZM726 221Q857 221 956 265T1111 394T1167
603Q1167 732 1123 820T989 953T762 998Q672 998 593 968T454 884T359 758T324 600Q324 511 353 441T435 321T562 247T726 221Z" />
<glyph unicode="R" horiz-adv-x="1145" d="M220 -42Q168 -42 134 -9T82 92Q75 120 70 164T61 262T54 372T50 481T48 576Q48 719 65 828T117 1017T210 1147T349 1222T540 1247Q644 1247 738 1225T904 1157T1018 1045T1060 890Q1060 807 1023 751T927 660T801 606T672
578Q638 573 625 567T612 549Q612 541 624 527T658 494T708 449T766 392Q795 363 833 324T911 244T983 165T1038 100T1059 64Q1059 36 1042 17T999 -11T942 -21Q910 -21 872 -2T791 51T704 130T616 228Q550 302 497 357T408 443T358 474Q348 474 343 466T335 436T332
377T331 283Q331 266 331 240T332 185T333 129T333 81T332 51Q324 0 294 -21T220 -42ZM441 660Q475 660 524 666T627 689T726 731T802 798T831 892Q831 948 805 987T734 1049T635 1084T526 1095Q469 1095 431 1079T369 1031T334 947Q327 918 324 889T318 832T316
776Q316 732 325 707T362 671T441 660Z" />
<glyph unicode="S" horiz-adv-x="1150" d="M487 -49Q398 -49 316 -35T168 4T65 62T27 135Q27 168 42 187T83 214T138 222Q157 222 195 207T291 175T423 159Q502 159 561 165T661 188T720 236T740 315Q740 360 717 395T653 459T557 513T436 565Q357 596 289 631T169
708T89 803T60 924Q60 1000 95 1055T189 1149T322 1209T473 1240T618 1250Q703 1250 776 1238T906 1203T994 1151T1026 1089Q1026 1060 1012 1041T976 1012T927 1003Q908 1003 874 1020T785 1055T651 1073Q601 1073 552 1066T463 1042T399 995T375 919Q375 875
396 842T456 782T547 731T660 683Q741 650 814 611T943 525T1032 418T1065 286Q1065 193 1021 129T897 25T713 -31T487 -49Z" />
<glyph unicode="T" horiz-adv-x="1298" d="M611 -46Q556 -46 528 -10T494 108Q493 141 493 196T493 321T495 466T498 615T500 752T501 861Q501 921 485 941T410 961Q348 961 286 952T162 942Q132 942 108 953T71 985T57 1038Q57 1074 93 1101T195 1146T348 1176T540
1193T756 1198Q829 1198 899 1195T1032 1184T1142 1160T1217 1119T1244 1055Q1244 1020 1230 997T1188 963T1121 951Q1069 951 1032 954T945 958Q871 958 837 947T794 903T783 805Q782 762 780 713T774 610T767 501T758 391T749 285T739 188T730 106Q718 49 705
16T670 -32T611 -46Z" />
<glyph unicode="U" horiz-adv-x="1309" d="M625 -37Q414 -37 286 75T100 371Q89 409 81 450T66 534T56 622T50 715T48 811Q48 947 64 1028T115 1145T208 1181Q248 1181 273 1151T310 1044T322 828Q322 787 323 747T327 668T334 592T344 521T359 457Q389 350 452
285T627 220Q697 220 749 250T839 333T900 455Q913 495 922 539T938 631T947 729T950 829Q950 959 964 1033T1008 1138T1085 1169Q1135 1169 1161 1132T1197 1014T1207 799Q1207 752 1205 706T1198 615T1186 528T1168 445T1145 365Q1105 244 1034 154T860 13T625
-37Z" />
<glyph unicode="V" horiz-adv-x="1384" d="M618 -27Q571 -27 527 8T442 96T367 207Q337 254 301 325T226 482T153 656T90 826T46 972T29 1072Q29 1132 69 1163T172 1195Q226 1195 265 1170T323 1084Q343 1014 368 926T421 748T476 575T525 436Q557 356 582 309T626
262Q647 262 681 306T758 427Q791 482 827 554T902 709T976 875T1042 1037Q1063 1091 1089 1119T1147 1158T1218 1169Q1256 1169 1285 1154T1330 1113T1347 1054Q1347 1019 1325 956T1265 813T1180 646T1082 475T984 319T898 198Q852 140 805 89T710 5T618 -27Z"
/>
<glyph unicode="W" horiz-adv-x="1725" d="M387 -9Q317 -9 267 27T182 132T124 297Q111 350 101 416T83 557T71 707T65 856T63 992Q63 1036 67 1075T86 1145T126 1193T194 1211Q261 1211 289 1174T324 1067Q325 996 327 934T332 815T338 705T347 599T358 493Q369
393 393 341T457 289Q497 289 521 337T568 486Q580 540 592 601T616 725T640 849T662 964Q688 1095 733 1166T866 1237Q917 1237 951 1201T1009 1105T1048 974Q1057 929 1066 881T1084 784T1102 686T1119 591T1134 502Q1150 405 1168 355T1228 305Q1266 305 1290
358T1333 498Q1344 548 1353 606T1370 727T1384 850T1396 965T1405 1063Q1411 1102 1425 1130T1467 1175T1541 1192Q1576 1192 1599 1178T1637 1140T1657 1083T1663 1011Q1663 959 1658 886T1644 728T1620 560T1587 400T1545 268Q1495 140 1422 73T1262 5Q1165
5 1108 62T1015 243Q1006 282 997 323T980 409T962 499T945 594T928 693Q913 785 897 840T854 896Q828 896 810 838T774 694Q749 570 727 454T672 237Q637 144 596 91T504 14T387 -9Z" />
<glyph unicode="X" horiz-adv-x="1306" d="M142 -26Q106 -26 79 -13T37 24T21 83Q21 118 33 144T68 195Q86 215 123 254T206 341T299 435T383 516Q431 553 458 580T486 624Q486 640 471 661T412 712Q380 737 338 771T252 842T169 910T102 964Q75 984 60 1012T44
1074Q44 1117 62 1143T109 1180T165 1192Q207 1192 239 1177T303 1130Q340 1097 385 1051T477 951T568 844Q599 803 620 781T660 758Q675 758 690 772T725 810Q747 836 775 874T835 956T896 1039T949 1111Q986 1160 1022 1181T1098 1202Q1158 1202 1182 1174T1206
1104Q1206 1077 1192 1045T1147 975Q1118 936 1077 887T991 790T908 706Q866 672 847 652T828 621Q828 609 842 595T883 558Q973 480 1041 410T1159 278T1244 166Q1259 147 1265 125T1271 85Q1271 56 1253 34T1208 -2T1150 -15Q1112 -15 1085 -2T1034 35Q1009 63
973 110T898 210T823 310T762 385Q729 427 707 446T667 465Q650 465 627 443T566 373Q517 313 479 268T408 183T339 104T256 12Q237 -4 210 -15T142 -26Z" />
<glyph unicode="Y" horiz-adv-x="1232" d="M585 -20Q529 -20 505 7T471 93Q468 114 467 141T464 198T461 258T457 317Q453 378 443 423T391 496Q344 527 300 557T218 621Q176 660 142 713T85 826T48 949T35 1065Q35 1109 52 1140T100 1187T170 1204Q203 1204 229
1176T277 1081Q289 1034 307 985T348 889Q377 827 414 776T496 694T595 664Q643 664 689 693T779 768Q834 828 878 904T947 1045Q979 1116 1005 1149T1063 1183Q1100 1183 1128 1164T1173 1114T1189 1044Q1189 996 1174 940T1132 826T1069 715T990 619Q941 570
892 535T800 473Q772 455 757 439T733 404T718 356Q715 335 712 304T706 238T700 166T693 97Q686 42 659 11T585 -20Z" />
<glyph unicode="Z" horiz-adv-x="1104" d="M496 -40Q384 -40 283 -28T121 8Q67 27 41 56T14 122Q14 171 45 226T137 341Q177 381 234 437T355 558T483 686T600 806T687 901Q719 935 733 959T747 998Q747 1012 726 1019T661 1027Q642 1027 595 1025T489 1020T375
1015T282 1013Q201 1013 152 1019T80 1043T58 1090Q58 1129 85 1154T167 1194T302 1215T490 1221Q576 1221 664 1218T822 1207T927 1188Q978 1171 1004 1142T1031 1070Q1031 1036 1017 1004T979 939T927 875Q907 850 866 803T771 696T657 570T539 442T432 327Q389
284 368 255T347 206Q347 195 369 187T446 174T598 169Q661 169 719 174T823 184T898 189Q928 189 950 182T985 158T998 111Q998 79 966 55T880 13T759 -17T624 -34T496 -40Z" />
<glyph unicode="[" horiz-adv-x="573" d="M358 -401Q266 -401 200 -378T89 -295Q63 -259 48 -186T23 -6T11 232T8 515Q8 648 13 747T28 921T55 1051T94 1155Q118 1198 158 1224T258 1262T394 1274Q447 1274 486 1269T546 1249T567 1210Q567 1170 534 1154T441
1137Q383 1137 348 1128T293 1097T260 1038Q240 976 224 839T208 512Q208 410 212 304T222 104T236 -59T251 -155Q263 -206 289 -230T383 -262Q428 -267 458 -272T502 -288T516 -319Q516 -347 504 -365T458 -392T358 -401Z" />
<glyph unicode="\" horiz-adv-x="1001" d="M801 23Q777 46 737 96T645 214T540 357T434 503T343 633T278 726Q250 758 222 795T169 869T128 938Q111 967 97 997T74 1058T60 1113T56 1157Q61 1182 81 1190T132 1190Q153 1173 194 1125T288 1009T399 863T514 705T619
555T700 434Q733 388 765 339T826 243T877 155T911 81Q917 62 917 49T914 26Q905 11 890 7T853 6T801 23Z" />
<glyph unicode="]" horiz-adv-x="598" d="M289 -416Q215 -416 162 -409T82 -385T55 -336Q55 -309 73 -295T128 -273T217 -262Q273 -257 301 -238T340 -177T359 -66Q362 -36 365 14T371 130T376 269T379 419T381 567Q381 700 372 800T344 966Q322 1051 279 1082T168
1126Q117 1136 89 1145T49 1166T37 1202Q37 1231 58 1246T112 1268T183 1274Q304 1274 375 1235T487 1115Q518 1063 534 983T556 805T562 601Q562 517 560 429T555 257T549 98T541 -35T532 -130Q521 -247 490 -308T408 -393T289 -416Z" />
<glyph unicode="^" horiz-adv-x="892" d="M93 813Q62 813 45 828T28 876Q28 898 40 930T76 1001T128 1080Q174 1141 223 1189T328 1266T446 1295Q506 1295 552 1270T652 1198Q689 1168 727 1127T796 1042T847 959T867 891Q867 858 847 843T802 827Q786 827 766
843T724 882T684 930T650 971Q627 998 603 1030T553 1091T500 1139T441 1158Q413 1158 385 1137T329 1082T277 1013T231 948Q215 925 189 893T136 837T93 813Z" />
<glyph unicode="_" horiz-adv-x="1382" d="M714 -207Q490 -207 352 -204T140 -194T41 -173T15 -138Q15 -115 61 -100T198 -75T418 -61T717 -57Q962 -57 1102 -62T1302 -84T1361 -133Q1361 -165 1304 -180T1105 -201T714 -207Z" />
<glyph unicode="`" horiz-adv-x="660" d="M507 929Q460 929 385 957T238 1022Q171 1057 134 1090T97 1163Q97 1196 115 1212T164 1228Q199 1228 254 1205T364 1147Q447 1095 502 1048T557 972Q557 949 543 939T507 929Z" />
<glyph unicode="a" horiz-adv-x="1205" d="M467 -97Q386 -97 314 -81T185 -30T97 61T65 198Q65 290 110 349T232 441T407 488T608 501Q640 501 673 499T735 495T784 493Q810 493 819 501T828 531Q828 570 819 600T791 653T748 692Q708 719 652 730T530 742Q453
742 394 726T288 693T204 676Q152 676 124 693T96 748Q96 787 129 820T220 878T356 917T522 931Q699 931 818 887T998 743T1058 475Q1058 425 1053 388T1041 324T1028 276T1023 239Q1023 215 1038 194T1075 151T1113 107T1129 54Q1129 11 1101 -8T1039 -27Q1008
-27 988 -7T951 34T910 54Q896 54 880 46T839 21Q809 -1 763 -28T644 -76T467 -97ZM494 56Q556 56 614 75T718 129T791 210T818 311Q818 345 796 360T722 379T587 383Q504 383 433 367T319 312T276 207Q276 156 302 123T377 73T494 56Z" />
<glyph unicode="b" horiz-adv-x="1212" d="M559 -23Q385 -23 274 35T108 208T54 494Q54 565 59 641T73 793T95 939T123 1068T156 1169Q181 1214 215 1239T291 1264Q341 1264 366 1235T392 1157Q392 1134 390 1105T384 1042T377 974T370 909T367 848Q367 805 370
781T389 756Q403 756 429 768T488 799Q522 820 575 837T709 855Q840 855 933 802T1075 653T1125 431Q1125 316 1083 231T964 89T784 5T559 -23ZM586 132Q633 132 683 146T777 192T849 275T877 402Q877 494 846 558T754 657T601 691Q520 691 457 661T357 575T321
443Q321 351 347 281T431 172T586 132Z" />
<glyph unicode="c" horiz-adv-x="1157" d="M605 -60Q486 -60 383 -28T201 69T78 227T33 448Q33 580 75 684T194 862T381 974T624 1013Q727 1013 800 993T912 942T951 879Q951 859 940 842T911 816T873 806Q850 806 824 815T755 835T644 845Q564 845 498 819T384
745T310 632T284 487Q284 381 327 309T446 199T617 162Q704 162 765 179T867 221T936 263T981 281Q1014 281 1032 267T1057 231T1065 189Q1065 146 1034 102T943 22T799 -37T605 -60Z" />
<glyph unicode="d" horiz-adv-x="1160" d="M512 -53Q365 -53 258 -3T92 145T33 389Q33 525 86 619T238 761T475 810Q551 810 601 794T684 759Q707 746 725 736T752 726Q768 726 768 755Q768 781 763 821T752 910T738 1006T726 1095T721 1161Q721 1279 836 1279Q877
1279 912 1260T970 1200Q985 1165 999 1104T1025 968T1047 816T1062 672T1068 559Q1068 352 1013 216T835 14T512 -53ZM519 98Q611 98 674 132T769 229T802 381Q802 468 770 526T680 615T540 645Q451 645 385 614T283 523T247 372Q247 288 281 227T376 132T519
98Z" />
<glyph unicode="e" horiz-adv-x="1146" d="M607 -69Q439 -69 316 -18T126 139T59 411Q59 548 104 650T230 822T415 925T639 960Q720 960 792 943T921 891T1010 800T1042 669Q1042 588 1008 538T915 459T782 417T626 396Q585 389 529 385T421 378T339 375Q309 375
298 367T287 338Q287 313 301 280T341 214Q389 155 452 136T609 116Q690 116 757 135T877 174T974 194Q1013 194 1035 180T1058 123Q1058 85 1024 50T928 -11T785 -53T607 -69ZM528 487Q609 487 679 502T792 555T836 659Q836 737 779 776T619 816Q558 816 500 795T397
735T325 649T298 546Q298 518 320 506T393 490T528 487Z" />
<glyph unicode="f" horiz-adv-x="981" d="M511 -61Q459 -61 433 -40T395 27Q391 54 385 99T372 198T358 309T345 413T334 492Q332 515 321 524T289 533Q275 533 250 529T182 515Q138 505 112 499T70 492Q51 492 38 500T17 524T9 557Q9 579 26 599T82 636Q99 644
138 655T221 677T292 695Q307 698 312 710T317 746Q317 776 313 809T303 879T298 953Q298 1062 342 1135T468 1246T664 1284Q708 1284 748 1278T819 1259T869 1229T887 1189Q887 1169 877 1158T848 1139Q829 1135 800 1135T731 1135Q621 1134 576 1080T530 922Q530
906 531 887T534 849T539 813Q543 787 552 777T577 766Q590 766 624 775T706 799Q740 811 776 821T841 837T883 844Q911 844 926 828T942 784Q942 756 925 736T855 692Q821 677 771 659T647 615Q602 599 587 577T571 522Q571 494 574 446T583 341T592 225T599 117T598
38Q591 -15 570 -38T511 -61Z" />
<glyph unicode="g" horiz-adv-x="1274" d="M534 -442Q410 -442 321 -424T176 -377T93 -316T66 -254Q66 -228 82 -211T126 -184T189 -175Q217 -175 254 -187T340 -214T450 -241T587 -249Q668 -248 724 -219T815 -143T866 -40T882 72Q882 82 881 89T876 100T867
105Q856 105 832 85T766 38T663 -8T517 -29Q359 -29 252 24T91 176T36 415Q36 540 84 630T215 780T405 867T628 895Q754 895 854 857T1023 744T1129 565T1166 325Q1166 125 1126 -20T1006 -258T808 -397T534 -442ZM579 141Q648 141 709 162T816 223T888 317T915
436Q915 515 881 576T781 673T622 709Q566 709 506 696T395 649T313 558T281 414Q281 332 317 270T421 175T579 141Z" />
<glyph unicode="h" horiz-adv-x="1221" d="M166 -50Q128 -50 107 -29T75 39Q70 62 67 106T60 211T56 346T54 507Q54 572 57 641T68 777T87 909T112 1030T145 1133Q171 1192 207 1222T287 1252Q335 1252 362 1218T389 1115Q389 1079 386 1035T378 946T369 859T361
784T357 732Q357 702 369 702Q380 702 402 726T466 782T575 838T741 863Q851 863 923 823T1038 715T1098 565T1116 401Q1116 360 1111 310T1096 210T1076 115T1050 42Q1032 7 1002 -10T927 -28Q891 -28 872 -12T844 30Q840 51 842 88T849 173T857 272T858 372Q857
424 847 475T814 570T751 640T648 666Q571 666 513 640T415 572T354 487T328 409Q323 343 318 289T308 189T295 108T280 42Q264 -4 236 -27T166 -50Z" />
<glyph unicode="i" horiz-adv-x="612" d="M232 -27Q185 -27 158 -9T119 50T108 153Q108 187 109 235T114 339T121 454T130 565T140 662T150 731Q170 794 209 825T309 856Q366 856 392 813T418 689Q418 659 416 608T410 495T402 368T391 244T378 139T364 70Q344
16 312 -5T232 -27ZM300 1011Q206 1011 171 1043T136 1115Q136 1166 173 1200T264 1253T372 1271Q411 1271 444 1258T496 1218T516 1147Q516 1099 486 1069T407 1025T300 1011Z" />
<glyph unicode="j" horiz-adv-x="637" d="M73 -461Q9 -461 -44 -449T-129 -412T-161 -353Q-161 -320 -142 -301T-94 -274Q-64 -269 -16 -273T88 -277Q157 -277 186 -182T216 90Q216 124 214 172T209 275T202 387T195 497T190 594T187 667Q187 758 222 796T322
834Q370 834 397 815T438 757T457 663T466 536Q468 505 470 460T475 363T480 259T483 163T485 91Q485 -80 442 -203T308 -394T73 -461ZM347 1010Q309 1010 272 1016T204 1036T155 1072T136 1125Q136 1172 159 1199T223 1239T321 1252Q357 1252 393 1244T458 1220T506
1180T524 1121Q524 1086 502 1061T439 1023T347 1010Z" />
<glyph unicode="k" horiz-adv-x="1088" d="M168 -40Q129 -40 107 -21T77 35T68 119Q68 163 75 233T94 392T115 583Q125 682 136 766T159 921T182 1045T204 1137Q226 1205 255 1236T323 1267Q373 1267 390 1229T408 1116Q408 1083 406 1042T399 955T390 862T381
770T374 686T371 617Q371 585 374 565T388 544Q398 544 410 552T437 576Q453 590 482 618T547 680T616 746T677 802T715 834Q739 852 767 862T819 872Q858 872 881 852T904 800Q904 774 885 743T829 681Q771 622 713 577T604 480Q579 457 579 443Q579 435 586 429T607
412Q635 392 682 360T785 291T890 220T973 160Q995 142 1008 125T1022 88Q1022 66 1009 46T973 13T921 1Q890 1 861 15T804 50Q762 79 704 122T586 213T474 303Q449 324 427 337T386 351Q366 351 354 338T335 300Q315 202 299 140T271 41Q253 -5 229 -22T168 -40Z"
/>
<glyph unicode="l" horiz-adv-x="701" d="M394 -53Q296 -53 236 -12T144 126T102 385Q97 426 95 486T92 617T92 756T94 883T99 978Q102 1074 112 1136T150 1230T228 1261Q291 1261 315 1223T339 1094Q339 1065 337 1019T332 917T326 802T320 684T315 577T313 493Q313
374 320 300T343 185T379 129T429 113Q467 113 492 127T539 156T582 171Q606 171 619 154T633 110Q633 78 613 49T560 -3T483 -39T394 -53Z" />
<glyph unicode="m" horiz-adv-x="1541" d="M146 -19Q110 -19 87 0T53 55T42 144Q42 190 44 243T53 354T68 467T89 575T119 673Q168 786 240 846T413 907Q485 907 533 868T612 765T666 630Q683 580 703 542T748 503Q778 503 809 541T873 638Q920 721 965 780T1065
872T1194 905Q1293 905 1353 846T1440 688T1467 466Q1467 419 1465 369T1459 269T1447 173T1431 86Q1414 31 1389 8T1323 -16Q1286 -16 1263 4T1229 60Q1227 81 1227 109T1227 172T1229 247T1231 334T1231 433Q1229 492 1219 543T1187 626T1129 658Q1094 658 1063
627T1002 544T942 434Q895 337 850 287T736 236Q668 236 632 283T573 413Q556 477 538 528T497 609T438 639Q404 639 376 607T325 510Q301 438 287 364T267 221T258 95Q248 34 224 8T146 -19Z" />
<glyph unicode="n" horiz-adv-x="1262" d="M159 -22Q112 -22 85 3T46 84Q42 110 41 143T41 218T46 310Q58 509 127 647T319 858T612 931Q783 931 905 862T1092 650T1157 285Q1157 245 1156 211T1151 149T1142 98Q1127 34 1098 6T1021 -22Q973 -22 948 -6T912 42T897
121Q894 196 892 253T885 356T874 441T859 521Q836 623 782 676T621 729Q518 729 456 672T359 515Q344 473 334 427T318 332T307 229T298 116Q293 60 274 30T226 -11T159 -22Z" />
<glyph unicode="o" horiz-adv-x="1339" d="M631 -53Q515 -53 408 -27T216 56T82 204T33 428Q33 573 80 681T212 862T406 971T643 1008Q757 1008 866 979T1062 888T1200 728T1252 490Q1252 385 1210 288T1087 115T892 -7T631 -53ZM622 168Q724 168 795 199T910
282T975 395T996 516Q996 600 964 658T878 753T758 805T623 822Q533 822 453 784T324 668T274 472Q274 376 313 308T431 204T622 168Z" />
<glyph unicode="p" horiz-adv-x="1206" d="M184 -469Q156 -469 135 -455T97 -410T70 -326Q63 -283 57 -234T47 -133T39 -28T35 77T33 176Q33 384 92 544T278 796T604 888Q731 888 827 853T989 753T1086 600T1119 404Q1119 296 1089 211T992 65T821 -26T565 -57Q495
-57 449 -47T376 -26T336 -15Q317 -15 308 -27T295 -79Q292 -99 291 -137T289 -220T287 -303T285 -361Q281 -422 256 -445T184 -469ZM529 123Q670 123 752 159T869 263T905 427Q905 501 880 566T791 673T611 714Q529 714 470 687T375 608T321 488T304 334Q304 249
324 204T393 141T529 123Z" />
<glyph unicode="q" horiz-adv-x="1299" d="M1075 -391Q1041 -391 1012 -371T958 -324Q933 -296 909 -259T867 -183T838 -115Q821 -73 807 -45T771 -17Q751 -17 709 -22T577 -27Q488 -27 396 -2T228 78T104 218T56 423Q56 560 102 660T232 825T425 922T664 954Q829
954 953 897T1147 731T1216 469Q1216 339 1176 251T1069 103Q1030 68 1011 47T992 10Q992 -1 1006 -24T1040 -76Q1068 -115 1097 -156T1156 -235Q1172 -256 1180 -273T1189 -304Q1189 -333 1171 -352T1127 -381T1075 -391ZM631 169Q733 169 812 204T937 309T982
479Q982 562 953 617T877 706T773 753T661 767Q603 767 543 753T431 703T348 607T316 456Q316 382 344 328T418 239T521 186T631 169Z" />
<glyph unicode="r" horiz-adv-x="979" d="M277 -26Q248 -26 225 -15T184 17T150 64Q132 102 117 152T92 256T76 365T71 465Q71 628 132 741T308 913T584 972Q652 972 714 962T826 933T903 885T932 819Q932 789 919 771T886 744T843 736Q797 736 743 751T601 767Q470
767 405 686T339 466Q339 416 344 370T356 281T370 202T381 138T386 92Q386 30 359 2T277 -26Z" />
<glyph unicode="s" horiz-adv-x="976" d="M468 -34Q406 -34 339 -29T213 -12T113 15Q76 30 53 49T29 103Q29 142 52 162T119 183Q150 183 196 173T302 151T427 139Q492 139 551 150T647 189T684 263Q684 306 661 333T579 380T416 421Q301 444 222 481T101 572T59
703Q59 769 96 817T199 897T347 944T523 960Q579 960 637 954T746 935T828 903T859 856Q859 827 845 809T809 783T759 775Q716 775 661 785T540 795Q483 795 434 784T356 748T326 683Q326 624 390 592T580 534Q696 511 772 476T888 386T927 250Q927 173 890 119T789
32T642 -18T468 -34Z" />
<glyph unicode="t" horiz-adv-x="1010" d="M624 -21Q570 -21 516 -5T423 55T377 182Q374 211 371 248T366 327T362 415T359 508T357 603Q356 648 341 662T293 679Q274 681 245 682T184 685T129 689Q90 693 70 714T50 776Q50 803 61 817T94 840T143 851Q196 856
230 860T295 867Q327 871 340 884T358 932Q360 953 361 981T365 1036T371 1084Q382 1133 402 1156T466 1179Q502 1179 522 1168T553 1132T569 1070Q571 1039 572 1015T575 972T577 936T581 904Q584 875 600 863T647 847Q674 844 706 841T769 835T820 828Q861 823
890 806T919 750Q919 714 896 694T833 670Q772 669 720 669T639 669Q616 667 604 656T589 597Q589 559 589 519T591 439T594 361T599 288T606 226Q614 167 635 147T693 127Q736 127 760 144T802 180T842 198Q867 198 878 185T890 145Q890 112 867 83T805 30T719
-7T624 -21Z" />
<glyph unicode="u" horiz-adv-x="1276" d="M583 -65Q439 -65 337 -21T171 108T77 310T47 577Q47 613 49 649T57 720T70 781Q88 850 122 880T204 911Q249 911 272 892T302 845T311 788Q311 768 311 742T311 688T311 634T313 585Q318 457 344 360T429 208T592 153Q697
153 761 196T859 322T911 521Q916 551 919 582T925 646T931 710T939 776Q950 841 978 877T1061 913Q1109 913 1132 882T1165 793Q1168 756 1169 720T1170 646T1168 573T1163 501Q1150 317 1083 191T892 0T583 -65Z" />
<glyph unicode="v" horiz-adv-x="1303" d="M643 -72Q593 -72 532 -26T407 96Q378 129 341 184T263 306T184 441T113 572T61 678Q44 715 35 745T25 799Q25 831 41 853T85 888T143 901Q190 901 224 877T288 802Q299 782 321 737T373 632T434 507T497 381T552 272Q578
224 600 195T637 166Q653 166 675 195T721 270Q780 385 840 526T966 815Q996 869 1026 891T1103 914Q1151 914 1180 890T1209 817Q1209 791 1202 760T1180 695Q1164 650 1137 588T1077 454T1007 314T936 186T870 87Q812 17 754 -27T643 -72Z" />
<glyph unicode="w" horiz-adv-x="1518" d="M337 -4Q270 -4 223 27T141 117Q125 148 110 207T82 342T59 497T44 648T39 771Q39 823 52 863T93 927T162 951Q210 951 233 921T268 828Q272 792 277 742T288 636T302 525T317 424T333 349Q342 314 357 293T393 272Q413
272 427 295T451 356Q463 407 476 472T503 607T533 743T567 862Q589 912 628 943T736 974Q799 974 833 946T884 876Q895 844 909 793T937 684T964 567T988 459T1006 378Q1016 332 1030 306T1062 279Q1085 279 1098 300T1126 361Q1137 393 1148 452T1171 582T1192
722T1211 843Q1226 901 1250 926T1319 952Q1346 952 1370 942T1414 910T1445 851T1456 761Q1456 720 1451 665T1435 546T1413 420T1385 299T1355 195T1323 122Q1285 65 1233 33T1110 1Q1039 1 991 42T922 136Q907 187 892 253T859 388T827 522T799 634Q790 673
777 699T736 726Q708 726 690 699T663 632Q654 597 642 544T618 430T593 309T568 200T545 121Q522 70 467 33T337 -4Z" />
<glyph unicode="x" horiz-adv-x="1273" d="M170 -38Q140 -38 114 -29T73 1T57 56Q57 80 67 103T98 150Q116 171 152 202T234 269T328 336Q369 365 405 391T465 439T489 474Q489 486 463 506T397 552T313 604Q262 632 216 666T136 731Q113 752 99 777T84 834Q84
864 101 887T146 925T209 939Q235 939 260 929T310 900Q351 871 396 827T481 733Q537 668 575 628T631 588Q643 588 665 608T716 659T773 726Q818 780 851 813T918 876Q947 901 982 919T1050 937Q1099 937 1127 912T1156 841Q1156 806 1139 774T1089 712Q1063 687
1025 659T938 599Q873 554 840 531T795 497T783 472Q783 459 827 432T966 344Q1005 319 1041 291T1107 237T1153 194Q1183 166 1197 138T1211 80Q1211 54 1201 36T1172 6T1132 -11T1088 -16Q1058 -16 1030 -4T969 35Q938 61 895 104T789 218Q724 286 689 324T634
362Q622 362 607 351T563 305T476 201Q444 161 408 121T339 49T285 2Q260 -15 231 -26T170 -38Z" />
<glyph unicode="y" horiz-adv-x="1182" d="M198 -387Q154 -387 129 -364T103 -308Q103 -271 131 -241T208 -186Q260 -153 312 -114T407 -36T477 37T504 93Q504 113 476 139T384 204Q332 238 281 287T184 395T104 516T50 637T30 748Q30 781 45 807T86 849T145 864Q198
864 235 838T303 743Q345 627 399 528T505 361Q534 326 564 301T612 276Q639 276 664 303T707 360Q762 447 801 547T878 754Q902 806 934 840T1010 874Q1072 874 1097 842T1122 758Q1122 697 1101 622T1045 465T966 306T877 161T789 44Q724 -31 648 -107T492 -247T337
-349T198 -387Z" />
<glyph unicode="z" horiz-adv-x="1088" d="M537 -30Q426 -30 330 -25T164 -3Q84 13 50 45T15 134Q15 161 25 190T62 250T141 315Q177 340 229 376T343 456T465 541T579 619T668 678Q721 708 735 724T749 754Q749 771 726 775T663 780Q608 780 543 777T411 770T285
762T185 759Q158 759 137 766T103 788T91 826Q91 853 113 871T178 901T280 920T416 933Q453 936 506 938T618 944T728 949T816 951Q915 951 968 920T1021 825Q1021 780 998 736T900 641Q838 598 761 544T606 436T463 338T358 267Q324 245 311 229T298 197Q298 180
319 172T395 162T551 159Q657 159 736 163T881 168Q941 168 970 149T999 94Q999 59 968 35T878 -3T733 -24T537 -30Z" />
<glyph unicode="{" horiz-adv-x="599" d="M521 -386Q504 -386 484 -382T446 -370T411 -355Q372 -334 339 -299T286 -217T263 -114Q262 -42 259 15T245 119T212 206T153 285Q134 309 115 325T81 355T57 385T47 426Q47 449 56 466T79 498T108 525T136 554Q172 588
184 629T196 727Q196 745 195 766T192 809T189 853T188 897Q188 993 216 1058T291 1181Q317 1210 352 1234T425 1273T491 1287Q522 1287 541 1272T561 1223Q561 1199 547 1183T512 1150T468 1109T430 1043Q421 1021 413 996T400 943T395 885Q395 863 396 831T398
768T400 716Q400 671 392 638T371 580T340 539Q314 508 286 484T258 441Q258 423 275 406T328 367Q375 339 408 287T447 163Q449 133 449 94T448 13T451 -65T460 -129Q474 -183 495 -215T544 -265Q563 -277 575 -289T587 -324Q587 -356 570 -371T521 -386Z" />
<glyph unicode="|" horiz-adv-x="338" d="M136 -324Q105 -324 87 -300T59 -232T46 -127T43 7Q43 60 44 148T46 344T48 563T52 774T56 947T60 1051Q66 1139 79 1201T117 1294T178 1326Q207 1326 223 1306T247 1243T255 1136T257 984Q257 944 257 882T255 742T253
579T250 409T248 247T245 107T242 4Q241 -83 230 -157T197 -278T136 -324Z" />
<glyph unicode="}" horiz-adv-x="571" d="M112 -367Q94 -367 77 -361T48 -342T36 -306Q36 -284 53 -267T93 -235Q139 -200 173 -153T207 -18Q207 21 207 71T207 171T214 258Q223 324 246 360T296 414T342 444T361 474Q361 488 343 502T302 536T262 590T244 678Q244
701 248 737T258 817T263 902Q263 991 235 1048T134 1132Q103 1142 80 1158T56 1211Q56 1242 81 1255T135 1268Q182 1268 231 1251T327 1193Q362 1165 389 1120T433 1020T449 906Q449 878 447 851T441 795T435 736T432 671Q432 635 448 613T485 574T522 537T538
484Q538 446 522 424T483 383T440 338T411 266Q404 234 402 191T400 102T400 12Q400 -84 365 -162T279 -289Q245 -324 200 -345T112 -367Z" />
<glyph unicode="~" horiz-adv-x="1022" d="M240 943Q221 943 209 954T196 989Q196 1031 223 1074T293 1146T381 1175Q423 1175 455 1153T512 1103T562 1052T613 1030Q646 1030 665 1043T702 1099Q716 1132 729 1143T761 1155Q774 1155 785 1145T797 1109Q797 1062
771 1022T705 958T618 934Q574 934 541 955T482 1003T432 1052T383 1073Q357 1073 335 1050T293 987Q281 962 268 953T240 943Z" />
<glyph unicode="&#xa0;" horiz-adv-x="613" />
<glyph unicode="&#xa1;" horiz-adv-x="403" d="M163 568Q184 568 200 560T229 532T250 477T263 389T272 262T276 89T277 -137Q277 -190 277 -232T274 -308T266 -366T253 -408T233 -436T204 -452T164 -457Q141 -457 125 -451T98 -431T79 -396T68 -346T61 -278T59
-191T58 -83Q58 33 60 124T67 283T79 401T95 482T114 533T137 560T163 568ZM175 889Q205 889 236 883T288 857T309 800Q309 765 290 740T239 700T173 686Q147 686 119 695T71 724T51 775Q51 816 69 841T115 877T175 889Z" />
<glyph unicode="&#xa2;" horiz-adv-x="1016" d="M541 960Q510 960 492 971T465 1004T457 1055Q457 1107 462 1145T477 1207T504 1244T541 1256Q558 1256 572 1245T595 1210T609 1152T614 1072Q614 1033 608 1008T587 972T541 960ZM538 -53Q519 -53 504 -45T479
-17T464 32T458 107Q458 143 462 169T477 212T503 239T544 248Q563 248 577 241T601 220T617 187T623 140Q623 85 618 48T602 -11T575 -43T538 -53ZM548 133Q416 133 307 181T133 325T68 560Q68 671 103 759T203 909T361 1003T565 1036Q651 1036 712 1019T806 977T839
924Q839 908 830 894T806 872T775 864Q756 864 734 872T675 888T581 897Q491 897 422 859T313 751T273 592Q273 502 310 440T412 347T558 315Q632 315 684 330T771 365T828 401T866 416Q894 416 908 404T929 375T935 342Q935 306 909 270T833 202T711 152T548 133Z"
/>
<glyph unicode="&#xa3;" horiz-adv-x="933" d="M307 547Q227 547 168 549T70 558T13 578T-6 611Q-6 645 26 661T135 683T345 689Q451 689 523 687T639 678T704 656T724 614Q724 591 702 577T632 557T504 549T307 547ZM164 -49Q122 -49 92 -27T61 35Q61 69 76 97T112
164T148 264T164 424Q164 450 164 487T162 568T161 654T163 735Q166 890 207 1009T339 1196T586 1264Q650 1264 704 1247T799 1202T862 1138T885 1062Q885 1035 868 1024T826 1012Q797 1012 774 1027T728 1062T673 1097T596 1113Q508 1113 457 1065T386 931T365
731Q365 700 365 665T366 594T367 525T368 462T366 413Q364 322 352 264T329 176T318 137Q318 122 336 122Q350 122 378 129T443 144T518 152Q573 152 613 149T691 141T779 135Q833 131 859 115T886 64Q886 19 848 1T766 -17Q718 -17 672 -12T572 -3T443 2Q382
2 335 -10T247 -36T164 -49Z" />
<glyph unicode="&#xa4;" horiz-adv-x="1106" d="M562 127Q466 127 378 150T221 221T112 347T71 532Q71 651 110 738T218 881T377 965T571 993Q665 993 754 969T914 895T1028 763T1071 568Q1071 482 1037 403T936 262T776 163T562 127ZM110 72Q89 72 72 88T54 127Q54
149 74 180T139 256Q174 291 201 309T252 328Q274 328 294 310T314 268Q314 249 302 227T264 179Q206 121 171 97T110 72ZM207 776Q190 776 171 790T124 830Q75 879 51 915T27 975Q27 994 42 1008T78 1023Q104 1023 143 996T238 911Q256 894 265 878T274 846Q274
831 264 815T238 787T207 776ZM1023 53Q999 53 963 78T869 160Q844 186 832 208T819 249Q819 273 839 291T882 309Q905 309 932 291T994 238Q1039 192 1059 162T1079 109Q1079 87 1062 70T1023 53ZM555 298Q639 298 697 324T792 392T846 484T863 584Q863 677 818
732T702 811T556 836Q500 836 449 819T356 765T292 675T268 548Q268 468 301 413T398 328T555 298ZM864 819Q850 819 835 830T808 858T797 890Q797 906 806 922T834 955Q890 1012 929 1039T993 1067Q1013 1067 1029 1053T1045 1019Q1045 996 1021 960T948 874Q921
847 901 833T864 819Z" />
<glyph unicode="&#xa5;" horiz-adv-x="1232" d="M516 232Q405 232 324 234T191 241T114 256T88 282Q88 301 112 313T190 332T337 341T567 344Q713 344 812 343T971 335T1057 317T1083 285Q1083 267 1055 256T961 240T787 234T516 232ZM513 435Q392 435 305 436T161
443T78 458T51 484Q51 504 76 516T159 535T318 544T568 546Q727 546 834 545T1005 537T1097 519T1126 487Q1126 469 1096 458T995 442T807 436T513 435ZM585 -20Q529 -20 505 7T471 93Q468 114 467 141T464 198T461 258T457 317Q453 378 443 423T391 496Q344 527
300 557T218 621Q176 660 142 713T85 826T48 949T35 1065Q35 1109 52 1140T100 1187T170 1204Q203 1204 229 1176T277 1081Q289 1034 307 985T348 889Q377 827 414 776T496 694T595 664Q643 664 689 693T779 768Q834 828 878 904T947 1045Q979 1116 1005 1149T1063
1183Q1100 1183 1128 1164T1173 1114T1189 1044Q1189 996 1174 940T1132 826T1069 715T990 619Q941 570 892 535T800 473Q772 455 757 439T733 404T718 356Q715 335 712 304T706 238T700 166T693 97Q686 42 659 11T585 -20Z" />
<glyph unicode="&#xa6;" horiz-adv-x="338" d="M143 579Q103 579 83 600T57 658T51 739Q51 768 51 814T53 912T55 1015T58 1103T62 1157Q67 1197 80 1236T116 1300T173 1326Q220 1326 239 1289T259 1172Q259 1147 259 1104T257 1008T255 903T253 807T250 738Q248
699 237 663T204 603T143 579ZM147 -341Q117 -341 98 -325T69 -281T55 -224T51 -165Q51 -129 51 -72T50 46T49 158T50 234Q52 318 81 362T161 407Q207 407 227 360T247 249Q247 217 248 165T249 55T250 -55T251 -138Q251 -191 241 -237T207 -312T147 -341Z" />
<glyph unicode="&#xa7;" horiz-adv-x="994" d="M472 -203Q412 -203 347 -197T225 -180T126 -154Q90 -141 69 -119T48 -69Q48 -43 68 -29T122 -14Q153 -14 203 -27T316 -54T443 -68Q515 -68 584 -55T699 -12T745 71Q745 106 727 131T670 176T573 213T434 247Q321
271 242 306T122 394T80 522Q80 581 114 629T209 712T350 764T521 782L517 675Q455 675 400 658T311 608T277 529Q277 483 310 452T405 401T552 363Q638 347 708 325T828 270T905 192T932 84Q932 14 895 -40T793 -130T646 -184T472 -203ZM472 265L443 371Q515 371
584 383T699 426T745 509Q745 545 724 571T660 617T556 653T415 686Q302 710 228 748T117 840T80 963Q80 1023 115 1071T212 1153T355 1205T527 1223Q582 1223 640 1215T748 1190T828 1151T859 1103Q859 1069 837 1057T784 1045Q752 1045 716 1053T635 1071T527
1080Q465 1080 412 1066T327 1025T295 956Q295 915 324 884T410 832T552 793Q638 777 708 755T828 702T905 626T932 519Q932 448 894 400T792 322T646 279T472 265Z" />
<glyph unicode="&#xa8;" horiz-adv-x="928" d="M277 914Q205 914 175 941T144 1011Q144 1061 182 1089T261 1117Q293 1117 321 1108T367 1075T385 1010Q385 970 361 942T277 914ZM678 916Q627 916 594 944T561 1014Q561 1065 599 1097T692 1129Q743 1129 768 1099T793
1031Q793 983 762 950T678 916Z" />
<glyph unicode="&#xa9;" horiz-adv-x="1605" d="M814 -99Q620 -99 472 -54T224 80T72 298T21 597Q21 773 79 906T243 1130T491 1266T802 1312Q977 1312 1112 1269T1340 1138T1481 918T1529 609Q1529 360 1451 204T1213 -26T814 -99ZM771 43Q984 43 1120 101T1322
286T1388 616Q1388 784 1325 910T1132 1106T805 1177Q671 1177 557 1137T357 1022T224 843T176 612Q176 471 221 365T347 187T536 79T771 43ZM814 208Q696 208 599 252T444 383T386 593Q386 725 441 821T597 968T830 1020Q905 1020 959 1006T1044 970T1074 926Q1074
906 1059 893T1024 879Q1007 879 987 887T933 902T845 910Q757 910 691 873T587 769T549 617Q549 531 584 472T682 382T821 351Q893 351 942 366T1024 401T1076 436T1110 451Q1142 451 1153 432T1164 393Q1164 364 1141 332T1073 271T963 226T814 208Z" />
<glyph unicode="&#xaa;" horiz-adv-x="528" d="M198 816Q153 816 116 827T57 865T35 936Q35 986 65 1013T144 1050T250 1060Q270 1060 282 1059T303 1058Q314 1058 318 1061T322 1073Q322 1087 318 1103T297 1130Q281 1141 264 1143T224 1146Q181 1146 148 1131T88
1115Q65 1115 52 1123T39 1148Q39 1172 64 1191T130 1222T221 1234Q330 1234 386 1194T442 1050Q442 1023 438 1005T434 974Q434 961 444 945T465 912T476 879Q476 862 464 853T434 843Q414 843 403 860T380 877Q375 877 368 874T351 863Q333 850 299 833T198 816ZM214
898Q252 898 283 918T315 972Q315 988 299 991T244 995Q206 995 177 983T147 940Q147 916 165 907T214 898Z" />
<glyph unicode="&#xab;" horiz-adv-x="689" d="M618 238Q606 238 579 254T523 294T471 337Q428 378 387 424T318 519T291 615Q291 652 304 689T339 765T388 841T444 915Q465 943 498 977T563 1037T612 1063Q636 1063 648 1050T660 1015Q660 996 641 961T591 882T520
791Q500 768 480 737T445 676T431 620Q431 600 447 572T487 516T536 464Q579 424 607 392T650 334T664 291Q664 264 653 251T618 238ZM347 238Q335 238 308 254T252 294T200 337Q157 378 116 424T47 519T20 615Q20 652 33 689T68 765T117 841T173 915Q194 943 227
977T292 1037T341 1063Q365 1063 377 1050T389 1015Q389 996 370 961T320 882T249 791Q229 768 209 737T174 676T160 620Q160 600 176 572T216 516T265 464Q308 424 336 392T379 334T393 291Q393 264 382 251T347 238Z" />
<glyph unicode="&#xac;" horiz-adv-x="960" d="M808 257Q767 257 751 281T734 340Q734 351 735 371T737 416T740 461T741 493Q741 514 723 526T651 539Q641 540 597 540T491 541T365 541T249 543T173 544Q127 545 93 553T39 577T20 613Q20 634 34 652T91 683T220
704T449 712Q599 712 692 703T836 677T904 637T922 585Q922 542 921 505T917 437T911 379T902 331Q898 314 888 297T859 268T808 257Z" />
<glyph unicode="&#xad;" horiz-adv-x="875" d="M361 521Q279 521 216 524T109 537T43 564T20 609Q20 656 59 678T182 708T402 715Q514 715 592 713T720 701T792 670T815 612Q815 580 793 562T718 535T579 524T361 521Z" />
<glyph unicode="&#xae;" horiz-adv-x="1621" d="M801 -102Q615 -102 470 -55T225 83T73 303T21 596Q21 770 81 903T248 1127T498 1264T811 1310Q982 1310 1117 1266T1348 1135T1494 917T1545 614Q1545 432 1495 298T1348 75T1114 -58T801 -102ZM774 34Q935 34
1054 70T1250 179T1366 363T1404 620Q1404 794 1342 921T1151 1117T821 1186Q679 1186 560 1149T355 1040T222 860T175 613Q175 466 220 358T347 177T538 70T774 34ZM571 199Q540 199 520 220T489 285Q484 308 481 347T475 431T471 522T469 601Q469 714 484 795T535
929T629 1007T775 1032Q865 1032 940 1007T1061 931T1107 804Q1107 750 1082 714T1018 654T933 619T847 600Q825 597 816 593T807 582Q807 576 820 564T855 532T903 484Q928 460 961 426T1027 357T1082 296T1104 262Q1104 238 1084 226T1037 213Q1017 213 992 225T938
260T879 312T819 376Q775 425 741 461T684 518T653 538Q648 538 645 528T642 489T641 410Q641 395 641 372T642 326T643 283T642 257Q638 225 620 212T571 199ZM716 661Q742 661 783 668T864 690T932 734T960 805Q960 851 931 878T859 918T769 931Q716 931 689
909T650 839Q645 812 643 785T640 733Q640 692 654 677T716 661Z" />
<glyph unicode="&#xaf;" horiz-adv-x="893" d="M453 962Q347 962 266 965T140 983T94 1027Q94 1055 123 1069T235 1088T476 1093Q581 1093 658 1089T777 1074T819 1038Q819 1002 779 986T658 966T453 962Z" />
<glyph unicode="&#xb0;" horiz-adv-x="619" d="M305 809Q215 809 150 839T50 918T14 1024Q14 1103 51 1158T154 1242T302 1272Q381 1272 446 1250T551 1176T590 1037Q590 969 551 918T447 838T305 809ZM308 909Q383 909 428 943T473 1051Q473 1096 450 1125T388
1167T305 1181Q266 1181 229 1165T167 1118T142 1040Q142 996 166 967T229 924T308 909Z" />
<glyph unicode="&#xb1;" horiz-adv-x="1103" d="M484 93Q376 93 299 96T173 107T101 130T77 171Q77 201 99 220T172 248T312 261T533 265Q674 265 768 263T918 252T998 225T1022 174Q1022 146 996 130T909 106T744 96T484 93ZM547 338Q509 338 494 382T468 495Q467
512 466 527T464 555T462 581T460 604Q455 644 445 664T416 692T368 700Q354 700 325 700T262 700T196 701T142 703Q90 710 58 727T25 782Q25 807 45 823T105 848T198 859Q239 860 281 863T358 869T410 876Q430 880 440 896T453 961Q454 975 455 991T457 1025T459
1062T462 1105Q472 1188 492 1219T560 1250Q591 1250 611 1213T638 1136Q641 1112 642 1090T645 1048T647 1011T649 977Q650 922 661 899T697 875Q715 874 751 873T829 869T910 864T972 857Q1022 848 1048 832T1074 788Q1074 755 1042 740T954 718Q914 714 866
712T775 708T704 706Q677 706 662 685T644 608Q644 594 643 580T641 550T638 520T635 489Q628 425 608 382T547 338Z" />
<glyph unicode="&#xb2;" horiz-adv-x="471" d="M133 664Q93 668 63 681T33 729Q33 749 40 766T74 802Q103 825 153 858T247 927Q279 950 299 975T319 1023Q319 1056 297 1069T236 1083Q200 1083 174 1073T134 1050Q114 1035 100 1020T70 1004Q57 1004 45 1014T33
1041Q33 1072 59 1102T133 1153T241 1173Q294 1173 336 1161T404 1119T429 1040Q429 1002 408 972T350 910Q325 888 298 868T247 830T205 801Q181 785 181 772Q181 764 198 763T232 762Q262 762 310 768T387 775Q407 775 419 766T431 741Q431 713 411 697T351 673T253
663Q227 663 193 663T133 664Z" />
<glyph unicode="&#xb3;" horiz-adv-x="492" d="M218 646Q166 646 119 656T43 684T13 724Q13 751 28 759T57 767Q81 767 123 751T221 735Q279 735 317 751T356 797Q356 829 329 844T259 866Q222 873 200 886T177 921Q177 943 194 952T239 970Q276 979 302 994T328
1037Q328 1068 296 1078T213 1089Q162 1089 123 1080T65 1071Q46 1071 34 1082T22 1110Q22 1131 52 1146T129 1169T224 1177Q333 1177 385 1143T437 1054Q437 1020 414 995T349 955Q332 948 323 942T314 927Q314 917 328 911T360 899Q402 888 435 864T468 789Q468
744 440 712T357 663T218 646Z" />
<glyph unicode="&#xb4;" horiz-adv-x="653" d="M154 929Q132 929 118 939T104 972Q104 1001 159 1048T297 1147Q351 1181 406 1204T497 1228Q528 1228 546 1212T564 1163Q564 1124 527 1091T422 1022Q351 985 276 957T154 929Z" />
<glyph unicode="&#xb5;" horiz-adv-x="1308" d="M214 -458Q188 -458 163 -446T118 -407T92 -332Q88 -303 84 -248T75 -119T66 40T59 218T53 401T51 577Q51 658 67 734T117 861T207 911Q253 911 276 892T306 845T314 788Q315 768 315 742T315 688T315 634T317 585Q321
457 347 360T433 208T595 153Q701 153 772 196T879 321T915 521Q915 555 916 588T918 655T922 721T929 785Q940 849 968 881T1051 913Q1099 913 1123 882T1157 793Q1159 769 1160 746T1163 698T1164 650T1165 602T1166 552T1166 501Q1166 354 1169 267T1180 142T1204
104Q1224 104 1236 109T1264 114Q1275 114 1285 107T1302 82T1310 35Q1310 0 1295 -21T1255 -54T1202 -70T1146 -74Q1088 -74 1048 -49T984 35T948 197L993 153Q949 53 851 -6T595 -65Q508 -65 443 -35T335 43T272 144L314 167Q316 102 318 44T322 -66T326 -161T330
-240T333 -300T335 -341Q335 -401 303 -429T214 -458Z" />
<glyph unicode="&#xb6;" horiz-adv-x="958" d="M567 -190Q521 -190 511 -146T501 -14Q501 5 501 53T501 164T502 295T502 423T503 524T503 575Q503 597 495 606T471 616Q452 616 429 609T374 594T297 586Q226 586 169 621T78 720T45 871Q45 981 88 1047T199 1148T340
1193T476 1205Q512 1205 568 1202T685 1186T791 1148Q849 1114 878 1035T908 795Q908 742 907 667T904 505T899 332T895 169T892 36T890 -44Q890 -116 873 -151T822 -186Q797 -186 783 -160T768 -45Q768 -20 768 33T770 158T773 310T776 473T778 626T780 754T781
838Q781 961 762 1007T705 1054Q681 1054 667 1024T646 950T637 865T635 802Q635 747 635 687T633 563T631 433T629 301T628 168T627 38Q627 -84 616 -137T567 -190Z" />
<glyph unicode="&#xb7;" horiz-adv-x="312" d="M164 535Q109 535 66 565T22 652Q22 683 42 708T93 747T154 761Q188 761 218 744T267 699T287 634Q287 580 252 558T164 535Z" />
<glyph unicode="&#xb8;" horiz-adv-x="772" d="M336 -428Q285 -428 242 -423T171 -403T144 -359Q144 -330 163 -319T206 -307Q227 -307 246 -312T287 -323T338 -329Q389 -329 434 -320T507 -291T535 -237Q535 -204 519 -191T472 -178Q434 -178 404 -190T345 -214T284
-227Q248 -227 223 -212T198 -145Q198 -123 203 -94T218 -38T233 4Q245 28 263 43T318 58Q345 58 358 44T371 11Q371 -13 360 -49T348 -117Q348 -140 362 -140Q380 -140 401 -127T455 -100T533 -86Q571 -86 602 -102T651 -149T669 -226Q669 -326 584 -377T336 -428Z"
/>
<glyph unicode="&#xb9;" horiz-adv-x="288" d="M156 653Q129 653 113 669T97 714Q97 735 99 770T106 846T113 926T119 998T122 1047Q122 1071 108 1073Q91 1075 70 1071T42 1067Q33 1070 29 1076T24 1092Q24 1110 50 1130T111 1163T169 1177Q200 1177 215 1153T235
1094T240 1021Q240 998 239 967T235 902T229 834T222 770T216 718Q205 653 156 653Z" />
<glyph unicode="&#xba;" horiz-adv-x="623" d="M295 836Q222 836 163 860T69 928T34 1026Q34 1085 67 1131T162 1203T312 1230Q391 1230 445 1202T527 1127T555 1024Q555 964 515 922T416 858T295 836ZM299 931Q370 931 406 965T442 1046Q442 1084 404 1116T295
1148Q246 1148 204 1124T161 1046Q161 1007 181 982T233 944T299 931Z" />
<glyph unicode="&#xbb;" horiz-adv-x="689" d="M366 231Q344 231 332 244T319 279Q319 299 337 333T388 412T459 503Q478 527 498 557T533 619T547 674Q547 695 531 722T491 778T442 830Q378 890 346 933T314 1003Q314 1057 360 1057Q373 1057 399 1041T456 1001T507
957Q551 916 592 870T660 775T687 680Q687 642 674 605T639 529T590 453T535 379Q513 352 481 317T416 257T366 231ZM335 231Q313 231 301 244T288 279Q288 299 306 333T357 412T428 503Q447 527 467 557T502 619T516 674Q516 695 500 722T460 778T411 830Q347
890 315 933T283 1003Q283 1057 329 1057Q342 1057 368 1041T425 1001T476 957Q520 916 561 870T629 775T656 680Q656 642 643 605T608 529T559 453T504 379Q482 352 450 317T385 257T335 231Z" />
<glyph unicode="&#xbc;" horiz-adv-x="1037" d="M156 653Q129 653 113 669T97 714Q97 735 99 770T106 846T113 926T119 998T122 1047Q122 1071 108 1073Q91 1075 70 1071T42 1067Q33 1070 29 1076T24 1092Q24 1110 50 1130T111 1163T169 1177Q200 1177 215 1153T235
1094T240 1021Q240 998 239 967T235 902T229 834T222 770T216 718Q205 653 156 653ZM-89 6Q-98 6 -106 9T-120 19T-125 38Q-125 56 -95 94T-16 184T93 297Q120 322 165 368T267 475T386 602T511 735T629 863T729 970T798 1042Q828 1073 856 1100T911 1145T955 1163Q961
1163 966 1162T974 1158T980 1150T982 1138Q982 1121 963 1094T917 1035T863 975Q821 929 758 861T618 710T461 540T300 367T150 208Q111 167 63 120T-26 40T-89 6ZM866 -18Q847 -18 834 -9T821 23Q821 32 821 45T822 71T822 93Q821 111 812 119T770 127Q736 128
705 129T648 136Q616 143 604 168T591 230Q591 266 605 317T633 403Q644 434 657 453T696 473Q710 473 718 466T726 441Q726 427 721 406T708 360T695 310T689 263Q689 237 696 228T717 215Q731 211 754 210T795 209Q817 209 825 215T833 239Q833 249 834 275T837
332T840 392T843 431Q846 454 856 471T884 488Q906 488 914 474T925 429Q926 414 926 391T927 341T928 284T928 225Q928 205 949 205Q962 205 975 205T999 205Q1013 203 1019 197T1026 176Q1026 158 1017 150T988 138Q979 137 966 135T940 131Q928 129 924 121T918
96Q917 78 916 56T910 20Q903 -18 866 -18Z" />
<glyph unicode="&#xbd;" horiz-adv-x="1035" d="M156 653Q129 653 113 669T97 714Q97 735 99 770T106 846T113 926T119 998T122 1047Q122 1071 108 1073Q91 1075 70 1071T42 1067Q33 1070 29 1076T24 1092Q24 1110 50 1130T111 1163T169 1177Q200 1177 215 1153T235
1094T240 1021Q240 998 239 967T235 902T229 834T222 770T216 718Q205 653 156 653ZM-89 6Q-98 6 -106 9T-120 19T-125 38Q-125 56 -95 94T-16 184T93 297Q120 322 165 368T267 475T386 602T511 735T629 863T729 970T798 1042Q828 1073 856 1100T911 1145T955 1163Q961
1163 966 1162T974 1158T980 1150T982 1138Q982 1121 963 1094T917 1035T863 975Q821 929 758 861T618 710T461 540T300 367T150 208Q111 167 63 120T-26 40T-89 6ZM697 -16Q657 -12 627 1T597 49Q597 69 604 86T638 122Q667 145 717 178T811 247Q843 270 863 295T883
343Q883 376 861 389T800 403Q764 403 738 393T698 370Q678 355 664 340T634 324Q621 324 609 334T597 361Q597 392 623 422T697 473T805 493Q858 493 900 481T968 439T993 360Q993 322 972 292T914 230Q889 208 862 188T811 150T769 121Q745 105 745 92Q745 84
762 83T796 82Q826 82 874 88T951 95Q971 95 983 86T995 61Q995 33 975 17T915 -7T817 -17Q791 -17 757 -17T697 -16Z" />
<glyph unicode="&#xbe;" horiz-adv-x="1241" d="M218 646Q166 646 119 656T43 684T13 724Q13 751 28 759T57 767Q81 767 123 751T221 735Q279 735 317 751T356 797Q356 829 329 844T259 866Q222 873 200 886T177 921Q177 943 194 952T239 970Q276 979 302 994T328
1037Q328 1068 296 1078T213 1089Q162 1089 123 1080T65 1071Q46 1071 34 1082T22 1110Q22 1131 52 1146T129 1169T224 1177Q333 1177 385 1143T437 1054Q437 1020 414 995T349 955Q332 948 323 942T314 927Q314 917 328 911T360 899Q402 888 435 864T468 789Q468
744 440 712T357 663T218 646ZM115 6Q106 6 98 9T84 19T79 38Q79 56 109 94T188 184T297 297Q324 322 369 368T471 475T590 602T715 735T833 863T933 970T1002 1042Q1032 1073 1060 1100T1115 1145T1159 1163Q1165 1163 1170 1162T1178 1158T1184 1150T1186 1138Q1186
1121 1167 1094T1121 1035T1067 975Q1025 929 962 861T822 710T665 540T504 367T354 208Q315 167 267 120T178 40T115 6ZM1071 -18Q1052 -18 1039 -9T1026 23Q1026 32 1026 45T1027 71T1027 93Q1026 111 1017 119T975 127Q941 128 910 129T853 136Q821 143 809
168T796 230Q796 266 810 317T838 403Q849 434 862 453T901 473Q915 473 923 466T931 441Q931 427 926 406T913 360T900 310T894 263Q894 237 901 228T922 215Q936 211 959 210T1000 209Q1022 209 1030 215T1038 239Q1038 249 1039 275T1042 332T1045 392T1048
431Q1051 454 1061 471T1089 488Q1111 488 1119 474T1130 429Q1131 414 1131 391T1132 341T1133 284T1133 225Q1133 205 1154 205Q1167 205 1180 205T1204 205Q1218 203 1224 197T1231 176Q1231 158 1222 150T1193 138Q1184 137 1171 135T1145 131Q1133 129 1129
121T1123 96Q1122 78 1121 56T1115 20Q1108 -18 1071 -18Z" />
<glyph unicode="&#xbf;" horiz-adv-x="1026" d="M611 530Q640 530 660 520T692 486T703 419Q703 350 674 292T592 184T468 90Q407 53 359 16T282 -60T254 -148Q254 -200 287 -233T380 -284T516 -301Q574 -301 634 -287T747 -246T831 -184Q856 -167 879 -158T926
-149Q948 -149 964 -161T981 -205Q981 -226 970 -245T941 -282Q896 -335 830 -373T682 -433T510 -454Q408 -454 324 -434T181 -374T89 -278T56 -151Q56 -75 88 -19T173 82T292 162Q344 193 393 226T476 304T519 408Q531 469 548 499T611 530ZM637 866Q687 866 718
841T749 772Q749 725 717 695T637 665Q606 665 577 674T529 705T510 764Q510 801 538 833T637 866Z" />
<glyph unicode="&#xc0;" horiz-adv-x="1469" d="M1279 -40Q1238 -40 1209 -20T1156 42Q1147 69 1136 105T1115 180T1093 252T1071 310Q1057 342 1037 357T976 378Q956 380 916 383T827 389T737 392Q673 392 607 389T493 381Q452 377 432 365T398 321Q385 292 371
251T343 165T315 77Q294 29 265 5T183 -20Q143 -20 116 -7T76 36T63 115Q63 161 76 225T111 365T161 517T217 665T272 794T317 886Q351 949 394 1007T491 1110T609 1182T750 1209Q874 1209 973 1134T1150 935Q1179 893 1208 827T1267 680T1321 513T1365 344T1395
191T1406 73Q1406 11 1372 -14T1279 -40ZM989 551Q1011 555 1018 568T1025 609Q1025 640 1015 685T986 781T944 876Q910 941 864 984T765 1028Q707 1028 655 983T562 867Q545 839 527 803T494 729T470 658T460 601Q460 571 484 560T561 548Q673 548 755 548T894
548T989 551ZM794 1296Q747 1296 672 1324T525 1389Q458 1424 421 1457T384 1530Q384 1563 402 1579T451 1595Q486 1595 541 1572T651 1514Q734 1462 789 1415T844 1339Q844 1316 830 1306T794 1296Z" />
<glyph unicode="&#xc1;" horiz-adv-x="1493" d="M1279 -40Q1238 -40 1209 -20T1156 42Q1147 69 1136 105T1115 180T1093 252T1071 310Q1057 342 1037 357T976 378Q956 380 916 383T827 389T737 392Q673 392 607 389T493 381Q452 377 432 365T398 321Q385 292 371
251T343 165T315 77Q294 29 265 5T183 -20Q143 -20 116 -7T76 36T63 115Q63 161 76 225T111 365T161 517T217 665T272 794T317 886Q351 949 394 1007T491 1110T609 1182T750 1209Q874 1209 973 1134T1150 935Q1179 893 1208 827T1267 680T1321 513T1365 344T1395
191T1406 73Q1406 11 1372 -14T1279 -40ZM989 551Q1011 555 1018 568T1025 609Q1025 640 1015 685T986 781T944 876Q910 941 864 984T765 1028Q707 1028 655 983T562 867Q545 839 527 803T494 729T470 658T460 601Q460 571 484 560T561 548Q673 548 755 548T894
548T989 551ZM607 1334Q585 1334 571 1344T557 1377Q557 1406 612 1453T750 1552Q804 1586 859 1609T950 1633Q981 1633 999 1617T1017 1568Q1017 1529 980 1496T875 1427Q804 1390 729 1362T607 1334Z" />
<glyph unicode="&#xc2;" horiz-adv-x="1469" d="M1279 -40Q1238 -40 1209 -20T1156 42Q1147 69 1136 105T1115 180T1093 252T1071 310Q1057 342 1037 357T976 378Q956 380 916 383T827 389T737 392Q673 392 607 389T493 381Q452 377 432 365T398 321Q385 292 371
251T343 165T315 77Q294 29 265 5T183 -20Q143 -20 116 -7T76 36T63 115Q63 161 76 225T111 365T161 517T217 665T272 794T317 886Q351 949 394 1007T491 1110T609 1182T750 1209Q874 1209 973 1134T1150 935Q1179 893 1208 827T1267 680T1321 513T1365 344T1395
191T1406 73Q1406 11 1372 -14T1279 -40ZM989 551Q1011 555 1018 568T1025 609Q1025 640 1015 685T986 781T944 876Q910 941 864 984T765 1028Q707 1028 655 983T562 867Q545 839 527 803T494 729T470 658T460 601Q460 571 484 560T561 548Q673 548 755 548T894
548T989 551ZM474 1280Q424 1280 424 1331Q424 1364 460 1413T553 1510T668 1591T771 1624Q812 1624 864 1592T966 1513T1048 1419T1080 1341Q1080 1316 1068 1303T1033 1289Q1000 1289 976 1312T920 1381Q898 1412 870 1440T814 1487T764 1505Q745 1505 715 1484T652
1430T591 1364Q554 1320 530 1300T474 1280Z" />
<glyph unicode="&#xc3;" horiz-adv-x="1469" d="M1279 -40Q1238 -40 1209 -20T1156 42Q1147 69 1136 105T1115 180T1093 252T1071 310Q1057 342 1037 357T976 378Q956 380 916 383T827 389T737 392Q673 392 607 389T493 381Q452 377 432 365T398 321Q385 292 371
251T343 165T315 77Q294 29 265 5T183 -20Q143 -20 116 -7T76 36T63 115Q63 161 76 225T111 365T161 517T217 665T272 794T317 886Q351 949 394 1007T491 1110T609 1182T750 1209Q874 1209 973 1134T1150 935Q1179 893 1208 827T1267 680T1321 513T1365 344T1395
191T1406 73Q1406 11 1372 -14T1279 -40ZM989 551Q1011 555 1018 568T1025 609Q1025 640 1015 685T986 781T944 876Q910 941 864 984T765 1028Q707 1028 655 983T562 867Q545 839 527 803T494 729T470 658T460 601Q460 571 484 560T561 548Q673 548 755 548T894
548T989 551ZM514 1290Q495 1290 483 1301T470 1336Q470 1378 497 1421T567 1493T655 1522Q697 1522 729 1500T786 1450T836 1399T887 1377Q920 1377 939 1390T976 1446Q990 1479 1003 1490T1035 1502Q1048 1502 1059 1492T1071 1456Q1071 1409 1045 1369T979 1305T892
1281Q848 1281 815 1302T756 1350T706 1399T657 1420Q631 1420 609 1397T567 1334Q555 1309 542 1300T514 1290Z" />
<glyph unicode="&#xc4;" horiz-adv-x="1469" d="M1279 -40Q1238 -40 1209 -20T1156 42Q1147 69 1136 105T1115 180T1093 252T1071 310Q1057 342 1037 357T976 378Q956 380 916 383T827 389T737 392Q673 392 607 389T493 381Q452 377 432 365T398 321Q385 292 371
251T343 165T315 77Q294 29 265 5T183 -20Q143 -20 116 -7T76 36T63 115Q63 161 76 225T111 365T161 517T217 665T272 794T317 886Q351 949 394 1007T491 1110T609 1182T750 1209Q874 1209 973 1134T1150 935Q1179 893 1208 827T1267 680T1321 513T1365 344T1395
191T1406 73Q1406 11 1372 -14T1279 -40ZM989 551Q1011 555 1018 568T1025 609Q1025 640 1015 685T986 781T944 876Q910 941 864 984T765 1028Q707 1028 655 983T562 867Q545 839 527 803T494 729T470 658T460 601Q460 571 484 560T561 548Q673 548 755 548T894
548T989 551ZM571 1281Q499 1281 469 1308T438 1378Q438 1428 476 1456T555 1484Q587 1484 615 1475T661 1442T679 1377Q679 1337 655 1309T571 1281ZM972 1283Q921 1283 888 1311T855 1381Q855 1432 893 1464T986 1496Q1037 1496 1062 1466T1087 1398Q1087 1350
1056 1317T972 1283Z" />
<glyph unicode="&#xc5;" horiz-adv-x="1469" d="M1279 -40Q1238 -40 1209 -20T1156 42Q1147 69 1136 105T1115 180T1093 252T1071 310Q1057 342 1037 357T976 378Q956 380 916 383T827 389T737 392Q673 392 607 389T493 381Q452 377 432 365T398 321Q385 292 371
251T343 165T315 77Q294 29 265 5T183 -20Q143 -20 116 -7T76 36T63 115Q63 161 76 225T111 365T161 517T217 665T272 794T317 886Q351 949 394 1007T491 1110T609 1182T750 1209Q874 1209 973 1134T1150 935Q1179 893 1208 827T1267 680T1321 513T1365 344T1395
191T1406 73Q1406 11 1372 -14T1279 -40ZM989 551Q1011 555 1018 568T1025 609Q1025 640 1015 685T986 781T944 876Q910 941 864 984T765 1028Q707 1028 655 983T562 867Q545 839 527 803T494 729T470 658T460 601Q460 571 484 560T561 548Q673 548 755 548T894
548T989 551ZM752 1270Q662 1270 601 1313T539 1429Q539 1501 599 1546T766 1592Q860 1592 911 1550T963 1441Q963 1386 932 1348T851 1290T752 1270ZM753 1357Q806 1357 829 1383T853 1443Q853 1471 827 1493T750 1516Q714 1516 684 1498T653 1441Q653 1398 684
1378T753 1357Z" />
<glyph unicode="&#xc6;" horiz-adv-x="2126" d="M135 -20Q112 -20 96 -12T71 13T63 60Q63 92 78 150T120 279T179 426T246 570T309 689Q389 833 483 950T685 1138T912 1209Q1004 1209 1067 1171T1169 1065T1229 912T1259 730T1267 540Q1267 495 1254 459T1208
402T1117 381Q1035 381 929 384T717 391T526 394Q491 394 457 359T389 273T322 171Q275 88 243 48T185 -6T135 -20ZM782 543Q873 543 929 544T1016 548T1057 558T1068 577Q1068 646 1062 722T1038 866T986 974T894 1016Q854 1016 811 993T726 929T647 841T582 744T538
653T522 583Q522 570 530 562T566 550T645 545T782 543ZM1494 -29Q1366 -29 1280 17T1145 156T1082 391Q1079 425 1077 461T1073 537T1072 619T1071 705Q1071 876 1104 987T1208 1162T1388 1251T1652 1277Q1727 1277 1795 1271T1917 1251T2001 1219T2032 1172Q2032
1144 2015 1128T1972 1106Q1941 1102 1891 1104T1779 1110T1655 1113Q1565 1113 1504 1100T1406 1055T1353 971T1336 840Q1336 800 1346 780T1396 753T1521 746Q1542 746 1573 746T1637 748T1700 749T1748 749Q1823 749 1852 730T1881 674Q1881 621 1846 602T1754
582Q1730 582 1700 582T1637 582T1575 581T1521 581Q1431 581 1389 576T1334 552T1321 493Q1321 427 1326 375T1347 284T1389 220T1460 183T1565 170Q1640 170 1713 175T1846 184T1938 189Q1983 189 2003 171T2024 116Q2024 76 1975 48T1846 3T1673 -21T1494 -29Z"
/>
<glyph unicode="&#xc7;" horiz-adv-x="1205" d="M657 -57Q520 -57 410 -19T223 93T104 271T63 509Q63 658 106 782T234 996T441 1136T720 1185Q800 1185 867 1169T984 1125T1061 1065T1089 998Q1089 957 1067 937T1013 917Q987 917 966 929T914 956T835 984T707
996Q641 996 577 968T462 885T381 748T350 559Q350 478 371 404T435 273T546 182T705 149Q775 149 825 167T911 211T976 254T1032 273Q1085 273 1105 249T1125 180Q1125 135 1091 93T995 17T846 -37T657 -57ZM715 -458Q664 -458 620 -453T549 -433T522 -390Q522
-360 541 -349T585 -338Q605 -338 624 -343T665 -353T716 -359Q768 -359 813 -351T885 -322T913 -267Q913 -235 898 -222T850 -208Q813 -208 782 -220T723 -245T662 -257Q627 -257 602 -242T576 -175Q576 -153 582 -124T596 -68T612 -26Q623 -2 642 12T696 27Q723
27 736 13T750 -20Q750 -43 738 -80T726 -148Q726 -170 741 -170Q758 -170 780 -157T833 -130T911 -116Q949 -116 980 -132T1029 -179T1048 -256Q1048 -356 963 -407T715 -458Z" />
<glyph unicode="&#xc8;" horiz-adv-x="1137" d="M505 -62Q378 -62 291 -16T157 123T94 358Q90 392 88 428T85 504T83 586T83 672Q83 843 116 954T219 1129T400 1218T664 1244Q739 1244 807 1238T929 1218T1012 1186T1043 1139Q1043 1111 1027 1095T984 1073Q953
1069 902 1071T790 1077T666 1080Q576 1080 515 1067T417 1022T364 938T348 807Q348 767 358 747T408 720T533 713Q554 713 585 713T649 715T712 716T759 716Q834 716 863 697T892 641Q892 588 858 569T766 549Q741 549 711 549T649 549T586 548T532 548Q443 548
400 543T345 519T332 460Q332 394 338 342T359 251T401 187T472 150T576 137Q652 137 725 142T857 151T949 156Q994 156 1015 138T1036 83Q1036 43 987 15T858 -30T685 -54T505 -62ZM615 1338Q568 1338 493 1366T346 1431Q279 1466 242 1499T205 1572Q205 1605
223 1621T272 1637Q307 1637 362 1614T472 1556Q555 1504 610 1457T665 1381Q665 1358 651 1348T615 1338Z" />
<glyph unicode="&#xc9;" horiz-adv-x="1137" d="M505 -62Q378 -62 291 -16T157 123T94 358Q90 392 88 428T85 504T83 586T83 672Q83 843 116 954T219 1129T400 1218T664 1244Q739 1244 807 1238T929 1218T1012 1186T1043 1139Q1043 1111 1027 1095T984 1073Q953
1069 902 1071T790 1077T666 1080Q576 1080 515 1067T417 1022T364 938T348 807Q348 767 358 747T408 720T533 713Q554 713 585 713T649 715T712 716T759 716Q834 716 863 697T892 641Q892 588 858 569T766 549Q741 549 711 549T649 549T586 548T532 548Q443 548
400 543T345 519T332 460Q332 394 338 342T359 251T401 187T472 150T576 137Q652 137 725 142T857 151T949 156Q994 156 1015 138T1036 83Q1036 43 987 15T858 -30T685 -54T505 -62ZM521 1305Q499 1305 485 1315T471 1348Q471 1378 526 1424T664 1523Q718 1557
773 1580T864 1604Q895 1604 913 1588T931 1539Q931 1500 894 1467T789 1398Q718 1361 643 1333T521 1305Z" />
<glyph unicode="&#xca;" horiz-adv-x="1137" d="M505 -62Q378 -62 291 -16T157 123T94 358Q90 392 88 428T85 504T83 586T83 672Q83 843 116 954T219 1129T400 1218T664 1244Q739 1244 807 1238T929 1218T1012 1186T1043 1139Q1043 1111 1027 1095T984 1073Q953
1069 902 1071T790 1077T666 1080Q576 1080 515 1067T417 1022T364 938T348 807Q348 767 358 747T408 720T533 713Q554 713 585 713T649 715T712 716T759 716Q834 716 863 697T892 641Q892 588 858 569T766 549Q741 549 711 549T649 549T586 548T532 548Q443 548
400 543T345 519T332 460Q332 394 338 342T359 251T401 187T472 150T576 137Q652 137 725 142T857 151T949 156Q994 156 1015 138T1036 83Q1036 43 987 15T858 -30T685 -54T505 -62ZM295 1322Q245 1322 245 1373Q245 1406 281 1455T374 1552T489 1633T592 1666Q633
1666 685 1634T787 1555T869 1461T901 1383Q901 1358 889 1345T854 1331Q821 1331 797 1354T741 1423Q719 1454 691 1482T635 1529T585 1547Q566 1547 536 1526T473 1472T412 1406Q375 1362 351 1342T295 1322Z" />
<glyph unicode="&#xcb;" horiz-adv-x="1137" d="M505 -62Q378 -62 291 -16T157 123T94 358Q90 392 88 428T85 504T83 586T83 672Q83 843 116 954T219 1129T400 1218T664 1244Q739 1244 807 1238T929 1218T1012 1186T1043 1139Q1043 1111 1027 1095T984 1073Q953
1069 902 1071T790 1077T666 1080Q576 1080 515 1067T417 1022T364 938T348 807Q348 767 358 747T408 720T533 713Q554 713 585 713T649 715T712 716T759 716Q834 716 863 697T892 641Q892 588 858 569T766 549Q741 549 711 549T649 549T586 548T532 548Q443 548
400 543T345 519T332 460Q332 394 338 342T359 251T401 187T472 150T576 137Q652 137 725 142T857 151T949 156Q994 156 1015 138T1036 83Q1036 43 987 15T858 -30T685 -54T505 -62ZM392 1323Q320 1323 290 1350T259 1420Q259 1470 297 1498T376 1526Q408 1526
436 1517T482 1484T500 1419Q500 1379 476 1351T392 1323ZM793 1325Q742 1325 709 1353T676 1423Q676 1474 714 1506T807 1538Q858 1538 883 1508T908 1440Q908 1392 877 1359T793 1325Z" />
<glyph unicode="&#xcc;" horiz-adv-x="479" d="M232 -13Q166 -13 135 35T103 159Q103 191 103 249T104 382T106 541T110 710T117 872T126 1009Q137 1106 165 1146T256 1186Q309 1186 333 1146T364 1035Q366 992 368 927T371 785T372 628T373 473T373 338T372 241Q372
146 359 91T317 11T232 -13ZM298 1231Q251 1231 176 1259T30 1324Q-38 1359 -75 1392T-112 1465Q-112 1498 -94 1514T-45 1530Q-10 1530 45 1507T155 1449Q238 1397 293 1350T348 1274Q348 1251 334 1241T298 1231Z" />
<glyph unicode="&#xcd;" horiz-adv-x="479" d="M232 -13Q166 -13 135 35T103 159Q103 191 103 249T104 382T106 541T110 710T117 872T126 1009Q137 1106 165 1146T256 1186Q309 1186 333 1146T364 1035Q366 992 368 927T371 785T372 628T373 473T373 338T372 241Q372
146 359 91T317 11T232 -13ZM226 1213Q204 1213 190 1223T176 1257Q176 1286 231 1332T369 1431Q423 1465 478 1488T569 1512Q600 1512 618 1496T636 1447Q636 1408 599 1375T495 1306Q423 1269 348 1241T226 1213Z" />
<glyph unicode="&#xce;" horiz-adv-x="479" d="M232 -13Q166 -13 135 35T103 159Q103 191 103 249T104 382T106 541T110 710T117 872T126 1009Q137 1106 165 1146T256 1186Q309 1186 333 1146T364 1035Q366 992 368 927T371 785T372 628T373 473T373 338T372 241Q372
146 359 91T317 11T232 -13ZM-17 1226Q-68 1226 -68 1278Q-68 1311 -31 1360T62 1457T177 1538T279 1571Q320 1571 373 1539T475 1460T557 1365T589 1287Q589 1263 576 1249T542 1235Q509 1235 485 1258T428 1328Q407 1358 379 1386T323 1433T273 1452Q253 1452
223 1430T161 1376T100 1310Q62 1267 38 1247T-17 1226Z" />
<glyph unicode="&#xcf;" horiz-adv-x="479" d="M232 -13Q166 -13 135 35T103 159Q103 191 103 249T104 382T106 541T110 710T117 872T126 1009Q137 1106 165 1146T256 1186Q309 1186 333 1146T364 1035Q366 992 368 927T371 785T372 628T373 473T373 338T372 241Q372
146 359 91T317 11T232 -13ZM64 1226Q-8 1226 -38 1253T-69 1323Q-69 1373 -31 1401T48 1429Q80 1429 108 1420T154 1387T172 1322Q172 1282 148 1254T64 1226ZM465 1228Q414 1228 381 1256T348 1326Q348 1377 386 1409T479 1441Q530 1441 555 1411T580 1343Q580
1295 549 1262T465 1228Z" />
<glyph unicode="&#xd0;" horiz-adv-x="1338" d="M234 564Q128 564 70 567T-10 581T-32 612Q-32 638 -8 650T82 667T272 672Q376 672 448 671T564 664T627 647T647 615Q647 598 626 588T556 572T428 566T234 564ZM349 -21Q272 -21 224 2T148 74T108 194Q94 266
89 362T83 578Q83 697 89 802T112 987Q136 1095 191 1156T357 1218Q515 1218 654 1180T908 1078T1104 932T1231 763T1276 593Q1276 496 1232 405T1105 237T909 102T653 12T349 -21ZM455 218Q565 218 653 242T809 306T921 397T990 503T1013 611Q1013 657 986 708T908
809T784 899T622 963T426 988Q396 988 378 963T351 892Q342 852 338 800T333 689Q333 559 337 467T356 317Q381 218 455 218Z" />
<glyph unicode="&#xd1;" horiz-adv-x="1438" d="M257 -48Q216 -48 190 -23T145 49Q136 73 128 128T113 258T101 412T91 570T85 708T83 803Q83 920 98 1001T155 1126T274 1170Q328 1170 381 1127T505 989T681 744Q821 538 906 439T1028 339Q1046 339 1057 348T1075
384T1084 468Q1086 492 1086 541T1086 651T1084 778T1083 901T1083 1000T1086 1055Q1098 1115 1125 1138T1200 1161Q1236 1161 1260 1149T1300 1112T1323 1049T1333 958Q1334 928 1335 871T1337 742T1338 591T1336 440T1331 306T1322 210Q1310 133 1286 82T1221
5T1117 -21Q1060 -21 992 36T846 195T678 425Q621 507 572 576T486 697T422 777T383 806Q360 806 351 780T342 673Q342 627 344 572T349 457T356 339T362 224T364 121T362 40Q351 -11 325 -29T257 -48ZM474 1263Q455 1263 443 1274T430 1309Q430 1351 457 1394T527
1466T615 1495Q657 1495 689 1473T746 1423T796 1372T847 1350Q880 1350 899 1363T936 1419Q950 1452 963 1463T995 1475Q1008 1475 1019 1465T1031 1429Q1031 1382 1005 1342T939 1278T852 1254Q808 1254 775 1275T716 1323T666 1372T617 1393Q591 1393 569 1370T527
1307Q515 1282 502 1273T474 1263Z" />
<glyph unicode="&#xd2;" horiz-adv-x="1578" d="M716 -104Q572 -104 453 -60T246 69T111 271T63 536Q63 674 106 781T224 966T394 1094T596 1168T806 1193Q959 1193 1088 1148T1313 1020T1462 820T1515 559Q1515 400 1455 277T1286 68T1032 -60T716 -104ZM763
158Q938 158 1043 214T1195 363T1242 567Q1242 669 1209 749T1115 884T976 967T806 996Q717 996 636 969T492 892T393 771T356 612Q356 507 386 424T471 281T600 190T763 158ZM847 1283Q800 1283 725 1311T578 1376Q511 1411 474 1444T437 1517Q437 1550 455 1566T504
1582Q539 1582 594 1559T704 1501Q787 1449 842 1402T897 1326Q897 1303 883 1293T847 1283Z" />
<glyph unicode="&#xd3;" horiz-adv-x="1578" d="M716 -104Q572 -104 453 -60T246 69T111 271T63 536Q63 674 106 781T224 966T394 1094T596 1168T806 1193Q959 1193 1088 1148T1313 1020T1462 820T1515 559Q1515 400 1455 277T1286 68T1032 -60T716 -104ZM763
158Q938 158 1043 214T1195 363T1242 567Q1242 669 1209 749T1115 884T976 967T806 996Q717 996 636 969T492 892T393 771T356 612Q356 507 386 424T471 281T600 190T763 158ZM753 1250Q731 1250 717 1260T703 1293Q703 1323 758 1369T896 1468Q950 1502 1005 1525T1096
1549Q1127 1549 1145 1533T1163 1484Q1163 1445 1126 1412T1021 1343Q950 1306 875 1278T753 1250Z" />
<glyph unicode="&#xd4;" horiz-adv-x="1578" d="M716 -104Q572 -104 453 -60T246 69T111 271T63 536Q63 674 106 781T224 966T394 1094T596 1168T806 1193Q959 1193 1088 1148T1313 1020T1462 820T1515 559Q1515 400 1455 277T1286 68T1032 -60T716 -104ZM763
158Q938 158 1043 214T1195 363T1242 567Q1242 669 1209 749T1115 884T976 967T806 996Q717 996 636 969T492 892T393 771T356 612Q356 507 386 424T471 281T600 190T763 158ZM527 1267Q477 1267 477 1318Q477 1351 513 1400T606 1497T721 1578T824 1611Q865 1611
917 1579T1019 1500T1101 1406T1133 1328Q1133 1303 1121 1290T1086 1276Q1053 1276 1029 1299T973 1368Q951 1399 923 1427T867 1474T817 1492Q798 1492 768 1471T705 1417T644 1351Q607 1307 583 1287T527 1267Z" />
<glyph unicode="&#xd5;" horiz-adv-x="1578" d="M716 -104Q572 -104 453 -60T246 69T111 271T63 536Q63 674 106 781T224 966T394 1094T596 1168T806 1193Q959 1193 1088 1148T1313 1020T1462 820T1515 559Q1515 400 1455 277T1286 68T1032 -60T716 -104ZM763
158Q938 158 1043 214T1195 363T1242 567Q1242 669 1209 749T1115 884T976 967T806 996Q717 996 636 969T492 892T393 771T356 612Q356 507 386 424T471 281T600 190T763 158ZM567 1277Q548 1277 536 1288T523 1323Q523 1365 550 1408T620 1480T708 1509Q750 1509
782 1487T839 1437T889 1386T940 1364Q973 1364 992 1377T1029 1433Q1043 1466 1056 1477T1088 1489Q1101 1489 1112 1479T1124 1443Q1124 1396 1098 1356T1032 1292T945 1268Q901 1268 868 1289T809 1337T759 1386T710 1407Q684 1407 662 1384T620 1321Q608 1296
595 1287T567 1277Z" />
<glyph unicode="&#xd6;" horiz-adv-x="1578" d="M716 -104Q572 -104 453 -60T246 69T111 271T63 536Q63 674 106 781T224 966T394 1094T596 1168T806 1193Q959 1193 1088 1148T1313 1020T1462 820T1515 559Q1515 400 1455 277T1286 68T1032 -60T716 -104ZM763
158Q938 158 1043 214T1195 363T1242 567Q1242 669 1209 749T1115 884T976 967T806 996Q717 996 636 969T492 892T393 771T356 612Q356 507 386 424T471 281T600 190T763 158ZM624 1268Q552 1268 522 1295T491 1365Q491 1415 529 1443T608 1471Q640 1471 668 1462T714
1429T732 1364Q732 1324 708 1296T624 1268ZM1025 1270Q974 1270 941 1298T908 1368Q908 1419 946 1451T1039 1483Q1090 1483 1115 1453T1140 1385Q1140 1337 1109 1304T1025 1270Z" />
<glyph unicode="&#xd7;" horiz-adv-x="964" d="M58 197Q37 220 37 250Q37 269 50 294T101 357Q146 406 204 464T325 585T448 707T560 818T647 905Q709 968 747 994T812 1021Q842 1021 870 993Q895 968 895 935Q895 904 867 862T778 761Q745 729 691 676T574 561T448
436T335 323T259 244Q218 200 187 181T131 162Q112 162 94 171T58 197ZM878 186Q866 170 852 163T821 155Q793 155 754 184T656 271Q625 304 572 356T456 469T331 592T219 703T141 784Q96 832 75 869T53 934Q53 951 60 967T83 998Q91 1006 102 1010T126 1015Q149
1015 182 994T261 928Q309 883 365 828T481 713T597 598T703 492T789 408Q852 347 878 312T904 248Q904 233 898 218T878 186Z" />
<glyph unicode="&#xd8;" horiz-adv-x="1586" d="M48 -196Q29 -196 13 -188T-14 -166T-24 -132Q-24 -104 6 -62T84 28T185 124T287 209T366 268L468 122Q447 97 407 58T317 -26T216 -108T121 -171T48 -196ZM1235 858L1115 979Q1132 999 1168 1037T1251 1120T1343
1207T1428 1275T1487 1302Q1507 1302 1523 1291T1550 1262T1561 1220Q1561 1186 1525 1134T1436 1026T1328 925T1235 858ZM716 -104Q572 -104 453 -60T246 69T111 271T63 536Q63 674 106 781T224 966T394 1094T596 1168T806 1193Q959 1193 1088 1148T1313 1020T1462
820T1515 559Q1515 400 1455 277T1286 68T1032 -60T716 -104ZM763 158Q938 158 1043 214T1195 363T1242 567Q1242 669 1209 749T1115 884T976 967T806 996Q717 996 636 969T492 892T393 771T356 612Q356 507 386 424T471 281T600 190T763 158Z" />
<glyph unicode="&#xd9;" horiz-adv-x="1309" d="M625 -37Q414 -37 286 75T100 371Q89 409 81 450T66 534T56 622T50 715T48 811Q48 947 64 1028T115 1145T208 1181Q248 1181 273 1151T310 1044T322 828Q322 787 323 747T327 668T334 592T344 521T359 457Q389 350
452 285T627 220Q697 220 749 250T839 333T900 455Q913 495 922 539T938 631T947 729T950 829Q950 959 964 1033T1008 1138T1085 1169Q1135 1169 1161 1132T1197 1014T1207 799Q1207 752 1205 706T1198 615T1186 528T1168 445T1145 365Q1105 244 1034 154T860 13T625
-37ZM708 1302Q661 1302 586 1330T439 1395Q372 1430 335 1463T298 1536Q298 1569 316 1585T365 1601Q400 1601 455 1578T565 1520Q648 1468 703 1421T758 1345Q758 1322 744 1312T708 1302Z" />
<glyph unicode="&#xda;" horiz-adv-x="1309" d="M625 -37Q414 -37 286 75T100 371Q89 409 81 450T66 534T56 622T50 715T48 811Q48 947 64 1028T115 1145T208 1181Q248 1181 273 1151T310 1044T322 828Q322 787 323 747T327 668T334 592T344 521T359 457Q389 350
452 285T627 220Q697 220 749 250T839 333T900 455Q913 495 922 539T938 631T947 729T950 829Q950 959 964 1033T1008 1138T1085 1169Q1135 1169 1161 1132T1197 1014T1207 799Q1207 752 1205 706T1198 615T1186 528T1168 445T1145 365Q1105 244 1034 154T860 13T625
-37ZM614 1269Q592 1269 578 1279T564 1312Q564 1342 619 1388T757 1487Q811 1521 866 1544T957 1568Q988 1568 1006 1552T1024 1503Q1024 1464 987 1431T882 1362Q811 1325 736 1297T614 1269Z" />
<glyph unicode="&#xdb;" horiz-adv-x="1309" d="M625 -37Q414 -37 286 75T100 371Q89 409 81 450T66 534T56 622T50 715T48 811Q48 947 64 1028T115 1145T208 1181Q248 1181 273 1151T310 1044T322 828Q322 787 323 747T327 668T334 592T344 521T359 457Q389 350
452 285T627 220Q697 220 749 250T839 333T900 455Q913 495 922 539T938 631T947 729T950 829Q950 959 964 1033T1008 1138T1085 1169Q1135 1169 1161 1132T1197 1014T1207 799Q1207 752 1205 706T1198 615T1186 528T1168 445T1145 365Q1105 244 1034 154T860 13T625
-37ZM389 1286Q339 1286 339 1337Q339 1370 375 1419T468 1516T583 1597T686 1630Q727 1630 779 1598T881 1519T963 1425T995 1347Q995 1322 983 1309T948 1295Q915 1295 891 1318T835 1387Q813 1418 785 1446T729 1493T679 1511Q660 1511 630 1490T567 1436T506
1370Q469 1326 445 1306T389 1286Z" />
<glyph unicode="&#xdc;" horiz-adv-x="1309" d="M625 -37Q414 -37 286 75T100 371Q89 409 81 450T66 534T56 622T50 715T48 811Q48 947 64 1028T115 1145T208 1181Q248 1181 273 1151T310 1044T322 828Q322 787 323 747T327 668T334 592T344 521T359 457Q389 350
452 285T627 220Q697 220 749 250T839 333T900 455Q913 495 922 539T938 631T947 729T950 829Q950 959 964 1033T1008 1138T1085 1169Q1135 1169 1161 1132T1197 1014T1207 799Q1207 752 1205 706T1198 615T1186 528T1168 445T1145 365Q1105 244 1034 154T860 13T625
-37ZM485 1287Q413 1287 383 1314T352 1384Q352 1434 390 1462T469 1490Q501 1490 529 1481T575 1448T593 1383Q593 1343 569 1315T485 1287ZM886 1289Q835 1289 802 1317T769 1387Q769 1438 807 1470T900 1502Q951 1502 976 1472T1001 1404Q1001 1356 970 1323T886
1289Z" />
<glyph unicode="&#xdd;" horiz-adv-x="1232" d="M585 -20Q529 -20 505 7T471 93Q468 114 467 141T464 198T461 258T457 317Q453 378 443 423T391 496Q344 527 300 557T218 621Q176 660 142 713T85 826T48 949T35 1065Q35 1109 52 1140T100 1187T170 1204Q203 1204
229 1176T277 1081Q289 1034 307 985T348 889Q377 827 414 776T496 694T595 664Q643 664 689 693T779 768Q834 828 878 904T947 1045Q979 1116 1005 1149T1063 1183Q1100 1183 1128 1164T1173 1114T1189 1044Q1189 996 1174 940T1132 826T1069 715T990 619Q941
570 892 535T800 473Q772 455 757 439T733 404T718 356Q715 335 712 304T706 238T700 166T693 97Q686 42 659 11T585 -20ZM561 1249Q539 1249 525 1259T511 1292Q511 1322 566 1368T704 1467Q758 1501 813 1524T904 1548Q935 1548 953 1532T971 1483Q971 1444 934
1411T829 1342Q758 1305 683 1277T561 1249Z" />
<glyph unicode="&#xde;" horiz-adv-x="1063" d="M178 -48Q153 -48 128 -27T83 32T53 122Q42 178 36 249T26 394T23 531Q23 615 25 709T31 884T42 1007Q51 1066 69 1104T113 1162T169 1182Q207 1182 233 1162T275 1084T293 917Q294 890 320 887T386 891T466 900Q616
910 717 889T880 824T976 725Q1001 686 1009 628T1009 512T977 412Q937 340 865 300T701 243T506 223Q446 222 398 225T321 222T292 184Q292 85 282 36T248 -31T178 -48ZM452 355Q568 357 651 377T780 441T826 562Q826 673 730 725T447 771Q418 769 385 767T328
754T299 720Q293 692 290 648T285 554T284 463T291 397Q295 380 313 371T358 359T409 355T452 355Z" />
<glyph unicode="&#xdf;" horiz-adv-x="1061" d="M176 -42Q134 -42 108 -24T67 31T48 120T43 244Q43 332 45 409T53 555T68 683T90 795T118 891T154 974Q211 1095 302 1156T529 1217Q597 1217 659 1197T770 1136T847 1038T876 902Q876 817 838 757T758 649Q741
630 734 616T726 589Q726 571 743 559T797 532Q854 513 899 478T971 393T998 283Q998 211 963 153T869 53T736 -11T587 -34Q552 -34 517 -29T458 -7T434 44Q434 69 450 83T498 106T576 122Q629 130 676 154T753 213T784 286Q784 350 742 380T637 430Q580 448 549
475T517 548Q517 591 541 624T605 692Q640 725 654 763T669 840Q669 891 647 931T585 995T492 1019Q435 1019 395 975T332 853T300 672Q298 626 297 576T293 468T287 345T280 206T269 46Q260 -2 239 -22T176 -42Z" />
<glyph unicode="&#xe0;" horiz-adv-x="1205" d="M467 -97Q386 -97 314 -81T185 -30T97 61T65 198Q65 290 110 349T232 441T407 488T608 501Q640 501 673 499T735 495T784 493Q810 493 819 501T828 531Q828 570 819 600T791 653T748 692Q708 719 652 730T530 742Q453
742 394 726T288 693T204 676Q152 676 124 693T96 748Q96 787 129 820T220 878T356 917T522 931Q699 931 818 887T998 743T1058 475Q1058 425 1053 388T1041 324T1028 276T1023 239Q1023 215 1038 194T1075 151T1113 107T1129 54Q1129 11 1101 -8T1039 -27Q1008
-27 988 -7T951 34T910 54Q896 54 880 46T839 21Q809 -1 763 -28T644 -76T467 -97ZM494 56Q556 56 614 75T718 129T791 210T818 311Q818 345 796 360T722 379T587 383Q504 383 433 367T319 312T276 207Q276 156 302 123T377 73T494 56ZM586 1015Q539 1015 464 1043T317
1108Q250 1143 213 1176T176 1249Q176 1282 194 1298T243 1314Q278 1314 333 1291T443 1233Q526 1181 581 1134T636 1058Q636 1035 622 1025T586 1015Z" />
<glyph unicode="&#xe1;" horiz-adv-x="1205" d="M467 -97Q386 -97 314 -81T185 -30T97 61T65 198Q65 290 110 349T232 441T407 488T608 501Q640 501 673 499T735 495T784 493Q810 493 819 501T828 531Q828 570 819 600T791 653T748 692Q708 719 652 730T530 742Q453
742 394 726T288 693T204 676Q152 676 124 693T96 748Q96 787 129 820T220 878T356 917T522 931Q699 931 818 887T998 743T1058 475Q1058 425 1053 388T1041 324T1028 276T1023 239Q1023 215 1038 194T1075 151T1113 107T1129 54Q1129 11 1101 -8T1039 -27Q1008
-27 988 -7T951 34T910 54Q896 54 880 46T839 21Q809 -1 763 -28T644 -76T467 -97ZM494 56Q556 56 614 75T718 129T791 210T818 311Q818 345 796 360T722 379T587 383Q504 383 433 367T319 312T276 207Q276 156 302 123T377 73T494 56ZM492 982Q470 982 456 992T442
1025Q442 1055 497 1101T635 1200Q689 1234 744 1257T835 1281Q866 1281 884 1265T902 1216Q902 1177 865 1144T760 1075Q689 1038 614 1010T492 982Z" />
<glyph unicode="&#xe2;" horiz-adv-x="1205" d="M467 -97Q386 -97 314 -81T185 -30T97 61T65 198Q65 290 110 349T232 441T407 488T608 501Q640 501 673 499T735 495T784 493Q810 493 819 501T828 531Q828 570 819 600T791 653T748 692Q708 719 652 730T530 742Q453
742 394 726T288 693T204 676Q152 676 124 693T96 748Q96 787 129 820T220 878T356 917T522 931Q699 931 818 887T998 743T1058 475Q1058 425 1053 388T1041 324T1028 276T1023 239Q1023 215 1038 194T1075 151T1113 107T1129 54Q1129 11 1101 -8T1039 -27Q1008
-27 988 -7T951 34T910 54Q896 54 880 46T839 21Q809 -1 763 -28T644 -76T467 -97ZM494 56Q556 56 614 75T718 129T791 210T818 311Q818 345 796 360T722 379T587 383Q504 383 433 367T319 312T276 207Q276 156 302 123T377 73T494 56ZM267 999Q217 999 217 1050Q217
1083 253 1132T346 1229T461 1310T564 1343Q605 1343 657 1311T759 1232T841 1138T873 1060Q873 1035 861 1022T826 1008Q793 1008 769 1031T713 1100Q691 1131 663 1159T607 1206T557 1224Q538 1224 508 1203T445 1149T384 1083Q347 1039 323 1019T267 999Z" />
<glyph unicode="&#xe3;" horiz-adv-x="1205" d="M467 -97Q386 -97 314 -81T185 -30T97 61T65 198Q65 290 110 349T232 441T407 488T608 501Q640 501 673 499T735 495T784 493Q810 493 819 501T828 531Q828 570 819 600T791 653T748 692Q708 719 652 730T530 742Q453
742 394 726T288 693T204 676Q152 676 124 693T96 748Q96 787 129 820T220 878T356 917T522 931Q699 931 818 887T998 743T1058 475Q1058 425 1053 388T1041 324T1028 276T1023 239Q1023 215 1038 194T1075 151T1113 107T1129 54Q1129 11 1101 -8T1039 -27Q1008
-27 988 -7T951 34T910 54Q896 54 880 46T839 21Q809 -1 763 -28T644 -76T467 -97ZM494 56Q556 56 614 75T718 129T791 210T818 311Q818 345 796 360T722 379T587 383Q504 383 433 367T319 312T276 207Q276 156 302 123T377 73T494 56ZM306 1009Q287 1009 275 1020T262
1055Q262 1097 289 1140T359 1212T447 1241Q489 1241 521 1219T578 1169T628 1118T679 1096Q712 1096 731 1109T768 1165Q782 1198 795 1209T827 1221Q840 1221 851 1211T863 1175Q863 1128 837 1088T771 1024T684 1000Q640 1000 607 1021T548 1069T498 1118T449
1139Q423 1139 401 1116T359 1053Q347 1028 334 1019T306 1009Z" />
<glyph unicode="&#xe4;" horiz-adv-x="1205" d="M467 -97Q386 -97 314 -81T185 -30T97 61T65 198Q65 290 110 349T232 441T407 488T608 501Q640 501 673 499T735 495T784 493Q810 493 819 501T828 531Q828 570 819 600T791 653T748 692Q708 719 652 730T530 742Q453
742 394 726T288 693T204 676Q152 676 124 693T96 748Q96 787 129 820T220 878T356 917T522 931Q699 931 818 887T998 743T1058 475Q1058 425 1053 388T1041 324T1028 276T1023 239Q1023 215 1038 194T1075 151T1113 107T1129 54Q1129 11 1101 -8T1039 -27Q1008
-27 988 -7T951 34T910 54Q896 54 880 46T839 21Q809 -1 763 -28T644 -76T467 -97ZM494 56Q556 56 614 75T718 129T791 210T818 311Q818 345 796 360T722 379T587 383Q504 383 433 367T319 312T276 207Q276 156 302 123T377 73T494 56ZM363 1000Q291 1000 261 1027T230
1097Q230 1147 268 1175T347 1203Q379 1203 407 1194T453 1161T471 1096Q471 1056 447 1028T363 1000ZM764 1002Q713 1002 680 1030T647 1100Q647 1151 685 1183T778 1215Q829 1215 854 1185T879 1117Q879 1069 848 1036T764 1002Z" />
<glyph unicode="&#xe5;" horiz-adv-x="1205" d="M467 -97Q386 -97 314 -81T185 -30T97 61T65 198Q65 290 110 349T232 441T407 488T608 501Q640 501 673 499T735 495T784 493Q810 493 819 501T828 531Q828 570 819 600T791 653T748 692Q708 719 652 730T530 742Q453
742 394 726T288 693T204 676Q152 676 124 693T96 748Q96 787 129 820T220 878T356 917T522 931Q699 931 818 887T998 743T1058 475Q1058 425 1053 388T1041 324T1028 276T1023 239Q1023 215 1038 194T1075 151T1113 107T1129 54Q1129 11 1101 -8T1039 -27Q1008
-27 988 -7T951 34T910 54Q896 54 880 46T839 21Q809 -1 763 -28T644 -76T467 -97ZM494 56Q556 56 614 75T718 129T791 210T818 311Q818 345 796 360T722 379T587 383Q504 383 433 367T319 312T276 207Q276 156 302 123T377 73T494 56ZM544 989Q454 989 393 1032T331
1148Q331 1220 391 1265T558 1311Q652 1311 703 1269T755 1160Q755 1105 724 1067T643 1009T544 989ZM545 1076Q598 1076 621 1102T645 1162Q645 1190 619 1212T542 1235Q506 1235 476 1217T445 1160Q445 1117 476 1097T545 1076Z" />
<glyph unicode="&#xe6;" horiz-adv-x="1940" d="M525 1016Q694 1016 817 965T1006 808T1073 536Q1073 399 1028 297T903 126T719 22T494 -13Q413 -13 341 4T212 57T123 147T91 278Q91 359 125 409T218 488T351 530T507 551Q548 558 604 562T712 569T794 572Q824
572 835 580T846 609Q846 634 832 668T792 733Q744 792 681 811T523 831Q443 831 377 812T256 773T159 753Q120 753 98 768T75 824Q75 862 109 897T205 958T348 1000T525 1016ZM605 460Q524 460 454 445T341 392T297 288Q297 210 354 171T514 131Q575 131 632 152T735
212T808 298T835 401Q835 430 813 442T740 457T605 460ZM1402 25Q1233 25 1110 76T921 233T854 506Q854 642 899 744T1024 916T1209 1019T1433 1054Q1514 1054 1586 1037T1715 985T1804 894T1837 763Q1837 683 1803 633T1709 553T1576 511T1420 490Q1380 483 1324
479T1215 472T1133 470Q1104 470 1093 462T1081 432Q1081 408 1095 374T1135 309Q1183 250 1246 230T1404 210Q1484 210 1551 230T1672 269T1768 288Q1807 288 1829 274T1852 217Q1852 179 1818 145T1722 83T1579 41T1402 25ZM1323 581Q1404 581 1473 596T1586
649T1630 753Q1630 831 1574 870T1413 910Q1352 910 1295 889T1192 830T1119 744T1092 640Q1092 612 1114 600T1187 584T1323 581Z" />
<glyph unicode="&#xe7;" horiz-adv-x="1157" d="M605 -45Q486 -45 383 -13T201 82T78 238T33 456Q33 586 75 689T194 864T381 975T624 1013Q727 1013 800 994T912 944T951 882Q951 862 940 846T911 820T873 811Q850 811 824 820T755 839T644 849Q564 849 498 823T384
750T310 637T284 493Q284 388 327 316T446 207T617 170Q704 170 765 188T867 229T936 271T981 289Q1014 289 1032 275T1057 241T1065 200Q1065 158 1034 115T943 35T799 -23T605 -45ZM615 -442Q564 -442 521 -437T450 -417T423 -373Q423 -344 442 -333T486 -322Q506
-322 525 -327T566 -337T617 -343Q668 -343 713 -335T786 -306T814 -251Q814 -218 799 -205T751 -192Q714 -192 683 -204T624 -229T563 -241Q528 -241 503 -226T477 -159Q477 -137 483 -108T497 -52T513 -10Q524 14 543 28T597 43Q624 43 637 29T651 -4Q651 -27
639 -64T627 -132Q627 -154 642 -154Q659 -154 681 -141T734 -114T812 -100Q850 -100 881 -116T930 -163T949 -240Q949 -340 864 -391T615 -442Z" />
<glyph unicode="&#xe8;" horiz-adv-x="1146" d="M607 -69Q439 -69 316 -18T126 139T59 411Q59 548 104 650T230 822T415 925T639 960Q720 960 792 943T921 891T1010 800T1042 669Q1042 588 1008 538T915 459T782 417T626 396Q585 389 529 385T421 378T339 375Q309
375 298 367T287 338Q287 313 301 280T341 214Q389 155 452 136T609 116Q690 116 757 135T877 174T974 194Q1013 194 1035 180T1058 123Q1058 85 1024 50T928 -11T785 -53T607 -69ZM528 487Q609 487 679 502T792 555T836 659Q836 737 779 776T619 816Q558 816 500
795T397 735T325 649T298 546Q298 518 320 506T393 490T528 487ZM673 1097Q626 1097 551 1125T404 1190Q337 1225 300 1258T263 1331Q263 1364 281 1380T330 1396Q365 1396 420 1373T530 1315Q613 1263 668 1216T723 1140Q723 1117 709 1107T673 1097Z" />
<glyph unicode="&#xe9;" horiz-adv-x="1146" d="M607 -69Q439 -69 316 -18T126 139T59 411Q59 548 104 650T230 822T415 925T639 960Q720 960 792 943T921 891T1010 800T1042 669Q1042 588 1008 538T915 459T782 417T626 396Q585 389 529 385T421 378T339 375Q309
375 298 367T287 338Q287 313 301 280T341 214Q389 155 452 136T609 116Q690 116 757 135T877 174T974 194Q1013 194 1035 180T1058 123Q1058 85 1024 50T928 -11T785 -53T607 -69ZM528 487Q609 487 679 502T792 555T836 659Q836 737 779 776T619 816Q558 816 500
795T397 735T325 649T298 546Q298 518 320 506T393 490T528 487ZM579 1064Q557 1064 543 1074T529 1107Q529 1137 584 1183T722 1282Q776 1316 831 1339T922 1363Q953 1363 971 1347T989 1298Q989 1259 952 1226T847 1157Q776 1120 701 1092T579 1064Z" />
<glyph unicode="&#xea;" horiz-adv-x="1146" d="M607 -69Q439 -69 316 -18T126 139T59 411Q59 548 104 650T230 822T415 925T639 960Q720 960 792 943T921 891T1010 800T1042 669Q1042 588 1008 538T915 459T782 417T626 396Q585 389 529 385T421 378T339 375Q309
375 298 367T287 338Q287 313 301 280T341 214Q389 155 452 136T609 116Q690 116 757 135T877 174T974 194Q1013 194 1035 180T1058 123Q1058 85 1024 50T928 -11T785 -53T607 -69ZM528 487Q609 487 679 502T792 555T836 659Q836 737 779 776T619 816Q558 816 500
795T397 735T325 649T298 546Q298 518 320 506T393 490T528 487ZM354 1081Q304 1081 304 1132Q304 1165 340 1214T433 1311T548 1392T651 1425Q692 1425 744 1393T846 1314T928 1220T960 1142Q960 1117 948 1104T913 1090Q880 1090 856 1113T800 1182Q778 1213
750 1241T694 1288T644 1306Q625 1306 595 1285T532 1231T471 1165Q434 1121 410 1101T354 1081Z" />
<glyph unicode="&#xeb;" horiz-adv-x="1146" d="M607 -69Q439 -69 316 -18T126 139T59 411Q59 548 104 650T230 822T415 925T639 960Q720 960 792 943T921 891T1010 800T1042 669Q1042 588 1008 538T915 459T782 417T626 396Q585 389 529 385T421 378T339 375Q309
375 298 367T287 338Q287 313 301 280T341 214Q389 155 452 136T609 116Q690 116 757 135T877 174T974 194Q1013 194 1035 180T1058 123Q1058 85 1024 50T928 -11T785 -53T607 -69ZM528 487Q609 487 679 502T792 555T836 659Q836 737 779 776T619 816Q558 816 500
795T397 735T325 649T298 546Q298 518 320 506T393 490T528 487ZM450 1082Q378 1082 348 1109T317 1179Q317 1229 355 1257T434 1285Q466 1285 494 1276T540 1243T558 1178Q558 1138 534 1110T450 1082ZM851 1084Q800 1084 767 1112T734 1182Q734 1233 772 1265T865
1297Q916 1297 941 1267T966 1199Q966 1151 935 1118T851 1084Z" />
<glyph unicode="&#xec;" horiz-adv-x="503" d="M214 -45Q163 -45 135 -19T96 52T85 152Q85 178 85 209T87 275T91 349T95 426T101 506T109 585Q129 732 169 800T278 868Q319 868 343 832T378 725T389 553Q389 507 388 461T384 369T378 282T369 202T359 131T346
72Q328 20 296 -12T214 -45ZM310 952Q263 952 188 980T41 1045Q-26 1080 -63 1113T-100 1186Q-100 1219 -82 1235T-33 1251Q2 1251 57 1228T167 1170Q250 1118 305 1071T360 995Q360 972 346 962T310 952Z" />
<glyph unicode="&#xed;" horiz-adv-x="503" d="M214 -45Q163 -45 135 -19T96 52T85 152Q85 178 85 209T87 275T91 349T95 426T101 506T109 585Q129 732 169 800T278 868Q319 868 343 832T378 725T389 553Q389 507 388 461T384 369T378 282T369 202T359 131T346
72Q328 20 296 -12T214 -45ZM216 919Q194 919 180 929T166 962Q166 992 221 1038T359 1137Q413 1171 468 1194T559 1218Q590 1218 608 1202T626 1153Q626 1114 589 1081T484 1012Q413 975 338 947T216 919Z" />
<glyph unicode="&#xee;" horiz-adv-x="503" d="M214 -45Q163 -45 135 -19T96 52T85 152Q85 178 85 209T87 275T91 349T95 426T101 506T109 585Q129 732 169 800T278 868Q319 868 343 832T378 725T389 553Q389 507 388 461T384 369T378 282T369 202T359 131T346
72Q328 20 296 -12T214 -45ZM-10 936Q-60 936 -60 987Q-60 1020 -24 1069T69 1166T184 1247T287 1280Q328 1280 380 1248T482 1169T564 1075T596 997Q596 972 584 959T549 945Q516 945 492 968T436 1037Q414 1068 386 1096T330 1143T280 1161Q261 1161 231 1140T168
1086T107 1020Q70 976 46 956T-10 936Z" />
<glyph unicode="&#xef;" horiz-adv-x="503" d="M214 -45Q163 -45 135 -19T96 52T85 152Q85 178 85 209T87 275T91 349T95 426T101 506T109 585Q129 732 169 800T278 868Q319 868 343 832T378 725T389 553Q389 507 388 461T384 369T378 282T369 202T359 131T346
72Q328 20 296 -12T214 -45ZM87 937Q15 937 -15 964T-46 1034Q-46 1084 -8 1112T71 1140Q103 1140 131 1131T177 1098T195 1033Q195 993 171 965T87 937ZM488 939Q437 939 404 967T371 1037Q371 1088 409 1120T502 1152Q553 1152 578 1122T603 1054Q603 1006 572
973T488 939Z" />
<glyph unicode="&#xf0;" horiz-adv-x="1094" d="M492 -45Q410 -45 329 -19T181 58T76 185T36 361Q36 443 67 510T156 626T287 701T449 728Q515 728 566 713T654 677T717 638Q733 627 741 627Q750 627 750 637Q750 645 747 652Q740 665 717 700T654 782T562 875T444
955Q430 942 403 921T344 876T286 838T245 823Q215 823 203 836T190 869Q190 877 193 885T202 903Q217 921 248 946T310 995T357 1031Q286 1070 237 1088T152 1116Q123 1126 98 1140T72 1179Q72 1204 89 1216T136 1228Q160 1228 203 1216T297 1185T390 1147T454
1114Q483 1140 526 1176T604 1244Q624 1258 641 1266T673 1275Q703 1275 721 1263T740 1227Q740 1214 725 1192T686 1144T635 1092T582 1045Q688 977 767 898T899 731T979 554T1006 374Q1006 234 935 141T747 1T492 -45ZM500 114Q580 114 637 136T732 196T787 278T805
365Q805 407 779 446T709 517T608 567T491 585Q408 585 351 551T265 462T235 348Q235 280 268 228T361 145T500 114Z" />
<glyph unicode="&#xf1;" horiz-adv-x="1262" d="M159 -22Q112 -22 85 3T46 84Q42 110 41 143T41 218T46 310Q58 509 127 647T319 858T612 931Q783 931 905 862T1092 650T1157 285Q1157 245 1156 211T1151 149T1142 98Q1127 34 1098 6T1021 -22Q973 -22 948 -6T912
42T897 121Q894 196 892 253T885 356T874 441T859 521Q836 623 782 676T621 729Q518 729 456 672T359 515Q344 473 334 427T318 332T307 229T298 116Q293 60 274 30T226 -11T159 -22ZM387 1040Q368 1040 356 1051T343 1086Q343 1128 370 1171T440 1243T528 1272Q570
1272 602 1250T659 1200T709 1149T760 1127Q793 1127 812 1140T849 1196Q863 1229 876 1240T908 1252Q921 1252 932 1242T944 1206Q944 1159 918 1119T852 1055T765 1031Q721 1031 688 1052T629 1100T579 1149T530 1170Q504 1170 482 1147T440 1084Q428 1059 415
1050T387 1040Z" />
<glyph unicode="&#xf2;" horiz-adv-x="1339" d="M631 -53Q515 -53 408 -27T216 56T82 204T33 428Q33 573 80 681T212 862T406 971T643 1008Q757 1008 866 979T1062 888T1200 728T1252 490Q1252 385 1210 288T1087 115T892 -7T631 -53ZM622 168Q724 168 795 199T910
282T975 395T996 516Q996 600 964 658T878 753T758 805T623 822Q533 822 453 784T324 668T274 472Q274 376 313 308T431 204T622 168ZM697 1095Q650 1095 575 1123T428 1188Q361 1223 324 1256T287 1329Q287 1362 305 1378T354 1394Q389 1394 444 1371T554 1313Q637
1261 692 1214T747 1138Q747 1115 733 1105T697 1095Z" />
<glyph unicode="&#xf3;" horiz-adv-x="1339" d="M631 -53Q515 -53 408 -27T216 56T82 204T33 428Q33 573 80 681T212 862T406 971T643 1008Q757 1008 866 979T1062 888T1200 728T1252 490Q1252 385 1210 288T1087 115T892 -7T631 -53ZM622 168Q724 168 795 199T910
282T975 395T996 516Q996 600 964 658T878 753T758 805T623 822Q533 822 453 784T324 668T274 472Q274 376 313 308T431 204T622 168ZM603 1062Q581 1062 567 1072T553 1105Q553 1135 608 1181T746 1280Q800 1314 855 1337T946 1361Q977 1361 995 1345T1013 1296Q1013
1257 976 1224T871 1155Q800 1118 725 1090T603 1062Z" />
<glyph unicode="&#xf4;" horiz-adv-x="1339" d="M631 -53Q515 -53 408 -27T216 56T82 204T33 428Q33 573 80 681T212 862T406 971T643 1008Q757 1008 866 979T1062 888T1200 728T1252 490Q1252 385 1210 288T1087 115T892 -7T631 -53ZM622 168Q724 168 795 199T910
282T975 395T996 516Q996 600 964 658T878 753T758 805T623 822Q533 822 453 784T324 668T274 472Q274 376 313 308T431 204T622 168ZM377 1079Q327 1079 327 1130Q327 1163 363 1212T456 1309T571 1390T674 1423Q715 1423 767 1391T869 1312T951 1218T983 1140Q983
1115 971 1102T936 1088Q903 1088 879 1111T823 1180Q801 1211 773 1239T717 1286T667 1304Q648 1304 618 1283T555 1229T494 1163Q457 1119 433 1099T377 1079Z" />
<glyph unicode="&#xf5;" horiz-adv-x="1339" d="M631 -53Q515 -53 408 -27T216 56T82 204T33 428Q33 573 80 681T212 862T406 971T643 1008Q757 1008 866 979T1062 888T1200 728T1252 490Q1252 385 1210 288T1087 115T892 -7T631 -53ZM622 168Q724 168 795 199T910
282T975 395T996 516Q996 600 964 658T878 753T758 805T623 822Q533 822 453 784T324 668T274 472Q274 376 313 308T431 204T622 168ZM417 1089Q398 1089 386 1100T373 1135Q373 1177 400 1220T470 1292T558 1321Q600 1321 632 1299T689 1249T739 1198T790 1176Q823
1176 842 1189T879 1245Q893 1278 906 1289T938 1301Q951 1301 962 1291T974 1255Q974 1208 948 1168T882 1104T795 1080Q751 1080 718 1101T659 1149T609 1198T560 1219Q534 1219 512 1196T470 1133Q458 1108 445 1099T417 1089Z" />
<glyph unicode="&#xf6;" horiz-adv-x="1339" d="M631 -53Q515 -53 408 -27T216 56T82 204T33 428Q33 573 80 681T212 862T406 971T643 1008Q757 1008 866 979T1062 888T1200 728T1252 490Q1252 385 1210 288T1087 115T892 -7T631 -53ZM622 168Q724 168 795 199T910
282T975 395T996 516Q996 600 964 658T878 753T758 805T623 822Q533 822 453 784T324 668T274 472Q274 376 313 308T431 204T622 168ZM474 1080Q402 1080 372 1107T341 1177Q341 1227 379 1255T458 1283Q490 1283 518 1274T564 1241T582 1176Q582 1136 558 1108T474
1080ZM875 1082Q824 1082 791 1110T758 1180Q758 1231 796 1263T889 1295Q940 1295 965 1265T990 1197Q990 1149 959 1116T875 1082Z" />
<glyph unicode="&#xf7;" horiz-adv-x="1073" d="M516 223Q459 223 415 250T370 328Q370 357 389 380T439 416T506 430Q541 430 573 417T625 379T645 320Q645 288 628 266T582 234T516 223ZM441 541Q333 541 256 543T130 553T58 574T35 611Q35 638 57 655T130 681T269
693T490 696Q631 696 725 694T875 684T955 660T980 614Q980 588 954 573T866 552T701 543T441 541ZM511 808Q454 808 409 836T363 915Q363 944 384 967T437 1003T501 1016Q536 1016 568 1001T620 959T640 898Q640 849 602 829T511 808Z" />
<glyph unicode="&#xf8;" horiz-adv-x="1339" d="M45 -151Q14 -155 -8 -143T-30 -110Q-30 -90 -8 -57T49 15Q82 51 121 91T203 164Q243 196 269 211T318 226T363 205Q399 174 387 140T327 50Q291 9 248 -30T160 -99Q128 -121 100 -134T45 -151ZM1043 745Q1013 729
986 731T941 749T922 790T945 845Q971 878 1002 910T1066 972Q1100 1001 1129 1022T1177 1045Q1225 1049 1251 1037T1277 996Q1277 980 1267 961T1239 920Q1223 899 1199 873T1151 825Q1125 801 1099 781T1043 745ZM631 -53Q515 -53 408 -27T216 56T82 204T33 428Q33
573 80 681T212 862T406 971T643 1008Q757 1008 866 979T1062 888T1200 728T1252 490Q1252 385 1210 288T1087 115T892 -7T631 -53ZM622 168Q724 168 795 199T910 282T975 395T996 516Q996 600 964 658T878 753T758 805T623 822Q533 822 453 784T324 668T274 472Q274
376 313 308T431 204T622 168Z" />
<glyph unicode="&#xf9;" horiz-adv-x="1276" d="M583 -65Q439 -65 337 -21T171 108T77 310T47 577Q47 613 49 649T57 720T70 781Q88 850 122 880T204 911Q249 911 272 892T302 845T311 788Q311 768 311 742T311 688T311 634T313 585Q318 457 344 360T429 208T592
153Q697 153 761 196T859 322T911 521Q916 551 919 582T925 646T931 710T939 776Q950 841 978 877T1061 913Q1109 913 1132 882T1165 793Q1168 756 1169 720T1170 646T1168 573T1163 501Q1150 317 1083 191T892 0T583 -65ZM673 990Q626 990 551 1018T404 1083Q337
1118 300 1151T263 1224Q263 1257 281 1273T330 1289Q365 1289 420 1266T530 1208Q613 1156 668 1109T723 1033Q723 1010 709 1000T673 990Z" />
<glyph unicode="&#xfa;" horiz-adv-x="1276" d="M583 -65Q439 -65 337 -21T171 108T77 310T47 577Q47 613 49 649T57 720T70 781Q88 850 122 880T204 911Q249 911 272 892T302 845T311 788Q311 768 311 742T311 688T311 634T313 585Q318 457 344 360T429 208T592
153Q697 153 761 196T859 322T911 521Q916 551 919 582T925 646T931 710T939 776Q950 841 978 877T1061 913Q1109 913 1132 882T1165 793Q1168 756 1169 720T1170 646T1168 573T1163 501Q1150 317 1083 191T892 0T583 -65ZM579 957Q557 957 543 967T529 1000Q529
1030 584 1076T722 1175Q776 1209 831 1232T922 1256Q953 1256 971 1240T989 1191Q989 1152 952 1119T847 1050Q776 1013 701 985T579 957Z" />
<glyph unicode="&#xfb;" horiz-adv-x="1276" d="M583 -65Q439 -65 337 -21T171 108T77 310T47 577Q47 613 49 649T57 720T70 781Q88 850 122 880T204 911Q249 911 272 892T302 845T311 788Q311 768 311 742T311 688T311 634T313 585Q318 457 344 360T429 208T592
153Q697 153 761 196T859 322T911 521Q916 551 919 582T925 646T931 710T939 776Q950 841 978 877T1061 913Q1109 913 1132 882T1165 793Q1168 756 1169 720T1170 646T1168 573T1163 501Q1150 317 1083 191T892 0T583 -65ZM354 974Q304 974 304 1025Q304 1058 340
1107T433 1204T548 1285T651 1318Q692 1318 744 1286T846 1207T928 1113T960 1035Q960 1010 948 997T913 983Q880 983 856 1006T800 1075Q778 1106 750 1134T694 1181T644 1199Q625 1199 595 1178T532 1124T471 1058Q434 1014 410 994T354 974Z" />
<glyph unicode="&#xfc;" horiz-adv-x="1276" d="M583 -65Q439 -65 337 -21T171 108T77 310T47 577Q47 613 49 649T57 720T70 781Q88 850 122 880T204 911Q249 911 272 892T302 845T311 788Q311 768 311 742T311 688T311 634T313 585Q318 457 344 360T429 208T592
153Q697 153 761 196T859 322T911 521Q916 551 919 582T925 646T931 710T939 776Q950 841 978 877T1061 913Q1109 913 1132 882T1165 793Q1168 756 1169 720T1170 646T1168 573T1163 501Q1150 317 1083 191T892 0T583 -65ZM450 975Q378 975 348 1002T317 1072Q317
1122 355 1150T434 1178Q466 1178 494 1169T540 1136T558 1071Q558 1031 534 1003T450 975ZM851 977Q800 977 767 1005T734 1075Q734 1126 772 1158T865 1190Q916 1190 941 1160T966 1092Q966 1044 935 1011T851 977Z" />
<glyph unicode="&#xfd;" horiz-adv-x="1182" d="M198 -387Q154 -387 129 -364T103 -308Q103 -271 131 -241T208 -186Q260 -153 312 -114T407 -36T477 37T504 93Q504 113 476 139T384 204Q332 238 281 287T184 395T104 516T50 637T30 748Q30 781 45 807T86 849T145
864Q198 864 235 838T303 743Q345 627 399 528T505 361Q534 326 564 301T612 276Q639 276 664 303T707 360Q762 447 801 547T878 754Q902 806 934 840T1010 874Q1072 874 1097 842T1122 758Q1122 697 1101 622T1045 465T966 306T877 161T789 44Q724 -31 648 -107T492
-247T337 -349T198 -387ZM505 935Q483 935 469 945T455 978Q455 1008 510 1054T648 1153Q702 1187 757 1210T848 1234Q879 1234 897 1218T915 1169Q915 1130 878 1097T773 1028Q702 991 627 963T505 935Z" />
<glyph unicode="&#xfe;" horiz-adv-x="1208" d="M225 -455Q171 -455 141 -409T97 -272Q89 -211 83 -137T71 19T62 183T56 345T54 494Q54 568 57 648T69 808T89 960T120 1089Q140 1139 165 1175T218 1230T279 1250Q333 1250 355 1223T377 1140Q377 1115 374 1083T366
1015T358 943T350 873T346 811Q346 765 365 765Q381 765 406 780T471 816T569 852T708 867Q808 867 885 835T1014 744T1093 603T1120 424Q1120 320 1091 236T1007 91T872 -1T689 -34Q605 -34 546 -19T450 12T393 28Q355 28 344 -11T332 -115Q332 -129 332 -155T331
-213T330 -273T327 -323Q320 -389 297 -422T225 -455ZM574 126Q621 126 672 139T768 184T841 270T870 407Q870 502 841 565T752 659T602 691Q470 691 392 638T314 484Q314 470 315 441T317 378T320 315T323 273Q326 237 357 203T444 148T574 126Z" />
<glyph unicode="&#xff;" horiz-adv-x="1182" d="M198 -387Q154 -387 129 -364T103 -308Q103 -271 131 -241T208 -186Q260 -153 312 -114T407 -36T477 37T504 93Q504 113 476 139T384 204Q332 238 281 287T184 395T104 516T50 637T30 748Q30 781 45 807T86 849T145
864Q198 864 235 838T303 743Q345 627 399 528T505 361Q534 326 564 301T612 276Q639 276 664 303T707 360Q762 447 801 547T878 754Q902 806 934 840T1010 874Q1072 874 1097 842T1122 758Q1122 697 1101 622T1045 465T966 306T877 161T789 44Q724 -31 648 -107T492
-247T337 -349T198 -387ZM376 953Q304 953 274 980T243 1050Q243 1100 281 1128T360 1156Q392 1156 420 1147T466 1114T484 1049Q484 1009 460 981T376 953ZM777 955Q726 955 693 983T660 1053Q660 1104 698 1136T791 1168Q842 1168 867 1138T892 1070Q892 1022
861 989T777 955Z" />
<glyph unicode="&#x2013;" horiz-adv-x="1135" d="M580 541Q397 541 283 546T107 561T23 587T0 625Q0 649 44 667T167 698T352 717T582 723Q676 723 758 721T906 713T1019 697T1092 670T1118 630Q1118 592 1063 573T889 548T580 541Z" />
<glyph unicode="&#x2014;" horiz-adv-x="1546" d="M802 541Q550 541 394 546T153 561T39 587T8 625Q8 649 68 667T237 698T491 717T804 723Q935 723 1047 721T1250 713T1404 697T1502 670T1536 630Q1536 592 1461 573T1224 548T802 541Z" />
<glyph unicode="&#x2018;" horiz-adv-x="322" d="M137 808Q107 808 89 830T63 887T55 960Q55 1003 64 1048T91 1136Q115 1185 150 1216T233 1248Q257 1248 270 1234T284 1199Q284 1181 277 1165T261 1133T242 1101Q231 1083 224 1053T215 991T212 935Q212 864
194 836T137 808Z" />
<glyph unicode="&#x2019;" horiz-adv-x="347" d="M196 798Q157 798 141 825T125 921Q125 956 117 1005T87 1082Q76 1099 66 1114T49 1146T42 1179Q42 1200 55 1214T93 1228Q124 1228 149 1213T196 1173T234 1116Q255 1074 266 1032T278 946Q278 909 270 875T244
820T196 798Z" />
<glyph unicode="&#x201a;" horiz-adv-x="387" d="M227 -330Q188 -330 172 -303T156 -207Q156 -172 148 -123T118 -46Q107 -29 97 -14T80 18T73 51Q73 72 86 86T124 100Q155 100 180 85T227 45T265 -12Q286 -54 297 -96T309 -182Q309 -219 301 -253T275 -308T227 -330Z" />
<glyph unicode="&#x201c;" horiz-adv-x="541" d="M108 857Q68 857 52 890T35 964Q35 999 41 1038T58 1116T87 1184Q112 1225 146 1251T214 1277Q226 1277 240 1274T264 1262T274 1233Q274 1222 270 1212T259 1193T242 1174Q207 1135 195 1079T179 966Q175 918
158 888T108 857ZM367 808Q336 808 318 830T292 887T284 960Q284 1003 293 1048T320 1136Q345 1185 380 1216T463 1248Q487 1248 500 1234T513 1199Q513 1181 507 1165T490 1133T471 1101Q461 1083 454 1053T444 991T441 935Q441 864 424 836T367 808Z" />
<glyph unicode="&#x201d;" horiz-adv-x="496" d="M413 823Q379 823 361 853T339 933Q335 989 323 1044T276 1140Q268 1151 262 1160T252 1178T248 1199Q248 1219 257 1228T281 1240T307 1243Q342 1243 376 1217T435 1150Q452 1121 463 1083T481 1005T487 931Q487
890 471 857T413 823ZM162 798Q123 798 107 825T91 921Q91 956 83 1005T54 1082Q42 1099 32 1114T15 1146T8 1179Q8 1200 21 1214T59 1228Q90 1228 116 1213T162 1173T201 1116Q222 1074 233 1032T244 946Q244 909 236 875T210 820T162 798Z" />
<glyph unicode="&#x201e;" horiz-adv-x="539" d="M435 -306Q401 -306 383 -276T361 -196Q357 -140 345 -85T298 11Q290 22 284 31T274 49T270 70Q270 90 279 99T303 111T329 114Q364 114 398 88T457 21Q474 -8 485 -46T503 -124T509 -198Q509 -239 493 -272T435
-306ZM184 -331Q145 -331 129 -304T113 -208Q113 -173 105 -124T76 -47Q64 -30 54 -15T37 17T30 50Q30 71 43 85T81 99Q112 99 138 84T184 44T223 -13Q244 -55 255 -97T266 -183Q266 -220 258 -254T232 -309T184 -331Z" />
<glyph unicode="&#x2022;" horiz-adv-x="448" d="M226 481Q179 481 136 494T64 540T36 634Q36 693 64 729T136 784T222 802Q269 802 311 786T380 735T408 647Q408 595 382 558T315 501T226 481Z" />
<glyph unicode="&#x2039;" horiz-adv-x="417" d="M347 238Q335 238 308 254T252 294T200 337Q157 378 116 424T47 519T20 615Q20 652 33 689T68 765T117 841T173 915Q194 943 227 977T292 1037T341 1063Q365 1063 377 1050T389 1015Q389 996 370 961T320 882T249
791Q229 768 209 737T174 676T160 620Q160 600 176 572T216 516T265 464Q308 424 336 392T379 334T393 291Q393 264 382 251T347 238Z" />
<glyph unicode="&#x203a;" horiz-adv-x="417" d="M83 231Q61 231 49 244T36 279Q36 299 54 333T105 412T176 503Q195 527 215 557T250 619T264 674Q264 695 248 722T208 778T159 830Q95 890 63 933T31 1003Q31 1057 77 1057Q90 1057 116 1041T173 1001T224 957Q268
916 309 870T377 775T404 680Q404 642 391 605T356 529T307 453T252 379Q230 352 198 317T133 257T83 231Z" />
</font>
</defs>
</svg>
