<?xml version="1.0" standalone="no"?>
<!DOCTYPE svg PUBLIC "-//W3C//DTD SVG 1.1//EN" "http://www.w3.org/Graphics/SVG/1.1/DTD/svg11.dtd">
<svg xmlns="http://www.w3.org/2000/svg">
<defs >
<font id="BigShouldersText" horiz-adv-x="726" ><font-face
    font-family="Big Shoulders Text Thin"
    units-per-em="2000"
    panose-1="0 0 0 0 0 0 0 0 0 0"
    ascent="1968"
    descent="-426"
    alphabetic="0" />
<glyph unicode=" " horiz-adv-x="414" />
<glyph unicode="!" horiz-adv-x="468" d="M149 316L127 922V1600H292V922L272 316H149ZM69 0V195H351V0H69Z" />
<glyph unicode="&quot;" horiz-adv-x="624" d="M125 1165L93 1392V1600H241V1392L209 1165H125ZM415 1165L383 1392V1600H531V1392L498 1165H415Z" />
<glyph unicode="#" horiz-adv-x="1211" d="M116 0L239 435H60L95 568H271L395 989H216L251 1122H429L567 1600H726L588 1122H807L944 1600H1101L964 1122H1151L1119 989H930L806 568H990L956 435H773L650 0H494L617 435H397L274 0H116ZM430 568H649L773 989H553L430 568Z" />
<glyph unicode="$" horiz-adv-x="802" d="M328 -184V-9Q208 5 154 69T94 263Q93 320 93 369T93 469T96 579H249Q245 490 245 409T249 243Q252 176 286 150T403 123Q480 123 513 149T551 243Q555 286 555 336T555 437T551 531Q549 611 519 651T421 708L310 735Q228
755 181 793T114 897T91 1062Q90 1127 90 1197T92 1340Q96 1469 150 1533T328 1609V1798H472V1609Q590 1597 644 1533T704 1338Q706 1276 705 1202T702 1045H548Q551 1137 551 1212T549 1358Q546 1425 513 1451T401 1478Q322 1478 289 1452T251 1358Q247 1282 247
1211T251 1062Q253 976 275 936T351 882L456 858Q550 836 604 797T683 693T711 531Q713 489 713 443T712 350T710 263Q704 132 649 68T472 -9V-184H328Z" />
<glyph unicode="%" horiz-adv-x="1102" d="M153 0L833 1600H947L267 0H153ZM809 -9Q722 -9 672 33T618 158Q616 242 616 303T616 425T618 564Q620 645 670 687T809 729Q900 729 949 686T1002 564Q1004 524 1004 468T1005 352T1004 241T1002 159Q999 79 949 35T809
-9ZM809 87Q845 87 862 103T881 143Q884 180 885 235T887 354T886 477T881 578Q880 603 862 618T809 634Q776 634 758 619T738 579Q735 519 734 435T734 270T738 140Q741 119 759 103T809 87ZM279 869Q192 869 142 911T88 1036Q86 1120 86 1181T85 1303T88 1442Q90
1523 140 1565T279 1607Q370 1607 419 1564T472 1442Q474 1402 474 1346T475 1230T474 1119T472 1037Q469 957 419 913T279 869ZM279 965Q315 965 332 981T351 1021Q353 1058 355 1113T357 1232T356 1355T351 1456Q350 1481 332 1496T279 1512Q246 1512 228 1497T208
1457Q205 1397 204 1313T204 1148T208 1018Q210 997 228 981T279 965Z" />
<glyph unicode="&amp;" horiz-adv-x="1024" d="M416 -15Q253 -15 183 53T108 268Q106 346 106 400T110 500T122 598Q130 688 169 748T257 858Q205 980 172 1099T135 1323Q128 1466 193 1540T403 1615Q556 1615 621 1542T677 1330Q671 1197 616 1084T473 877Q467
870 457 859T436 833Q476 754 519 675T610 520Q609 589 604 661T588 807L720 809Q728 746 734 663T742 491T743 328Q791 259 836 199T918 94L812 -1Q786 31 758 65T701 137Q681 86 645 52T552 2T416 -15ZM419 115Q487 115 519 132T565 187T588 289Q520 386 455
492T332 707Q313 683 298 655T276 589Q271 553 267 511T262 411T263 266Q266 195 301 155T419 115ZM373 968Q393 998 430 1042T499 1154T535 1328Q542 1415 514 1460T403 1505Q336 1505 307 1463T279 1343Q279 1261 304 1166T373 968Z" />
<glyph unicode="&apos;" horiz-adv-x="342" d="M128 1165L93 1392V1600H250V1392L215 1165H128Z" />
<glyph unicode="(" horiz-adv-x="524" d="M341 -400Q251 -271 189 -108T93 237T60 605Q60 778 91 956T184 1299T341 1600H464Q346 1371 285 1114T224 600Q224 430 251 255T332 -86T464 -400H341Z" />
<glyph unicode=")" horiz-adv-x="509" d="M168 -400H46Q124 -253 177 -87T258 255T285 600Q285 856 225 1113T46 1600H168Q263 1465 325 1300T418 956T449 605Q449 419 416 237T321 -108T168 -400Z" />
<glyph unicode="*" horiz-adv-x="529" d="M49 1318L205 1392L49 1466L87 1534L234 1443L225 1608H304L295 1444L442 1534L481 1466L325 1392L481 1318L442 1250L295 1343L304 1176H225L234 1341L87 1250L49 1318Z" />
<glyph unicode="+" horiz-adv-x="931" d="M400 414V702H113V831H400V1119H533V831H818V702H533V414H400Z" />
<glyph unicode="," horiz-adv-x="426" d="M127 -217L223 0H71V196H355V18L234 -217H127Z" />
<glyph unicode="-" horiz-adv-x="715" d="M60 687V830H655V687H60Z" />
<glyph unicode="." horiz-adv-x="419" d="M69 0V195H351V0H69Z" />
<glyph unicode="/" horiz-adv-x="718" d="M60 -400L499 1600H658L220 -400H60Z" />
<glyph unicode="0" horiz-adv-x="819" d="M410 -15Q266 -15 186 56T102 266Q99 476 98 659T98 1008T102 1333Q105 1471 183 1543T410 1615Q554 1615 634 1543T717 1333Q720 1214 721 1081T723 809T722 533T717 266Q714 129 634 57T410 -15ZM410 118Q552 118 555
239Q561 444 562 637T563 1011T555 1360Q552 1482 410 1482Q267 1482 264 1360Q260 1183 259 1042T257 775T258 521T264 241Q267 118 410 118Z" />
<glyph unicode="1" horiz-adv-x="465" d="M180 0V1436H87L79 1498L209 1600H344V0H180Z" />
<glyph unicode="2" horiz-adv-x="798" d="M94 0Q93 38 93 59T92 96T91 135T91 196T92 302Q95 435 125 525T210 676T334 779L447 846Q521 891 539 949T561 1068Q564 1136 565 1211T561 1356Q557 1422 517 1452T400 1482Q323 1482 288 1450T251 1359Q249 1289 249
1206T252 1039H93Q92 1101 91 1149T89 1240T90 1331Q96 1483 170 1549T402 1615Q513 1615 581 1587T684 1496T722 1330Q723 1306 723 1269T724 1192T724 1118T722 1062Q718 968 691 901T616 785T501 695L381 625Q336 598 309 547T269 433T256 302V142H719V0H94Z"
/>
<glyph unicode="3" horiz-adv-x="795" d="M408 -15Q244 -15 164 51T78 270Q77 313 77 355T76 445T78 550H239V252Q239 189 280 154T403 118Q479 118 515 151T552 252Q555 358 555 449T551 631Q548 702 510 740T378 778L238 777L233 912L535 1459H79V1600H720L719
1468L410 919Q566 914 636 848T713 628Q715 582 715 530T716 428T716 337T713 271Q705 119 634 52T408 -15Z" />
<glyph unicode="4" horiz-adv-x="799" d="M440 0V477H45V606L357 1600H592V618H749V477H592V0H440ZM201 618H440L460 1040L478 1459H434L323 1040L201 618Z" />
<glyph unicode="5" horiz-adv-x="808" d="M416 -15Q247 -15 172 53T91 270Q88 353 89 417T91 550H253Q250 509 249 454T248 345T251 256Q255 182 296 150T410 118Q486 118 525 151T568 254Q575 371 576 490T570 716Q566 784 530 815T427 846Q379 846 344 827T287
778T264 717H112V1600H718V1459H272V891H306Q326 929 377 955T491 981Q610 981 667 913T730 723Q734 659 734 582T734 425T728 274Q722 171 688 108T587 15T416 -15Z" />
<glyph unicode="6" horiz-adv-x="819" d="M411 -17Q248 -17 177 51T102 269Q100 411 99 549T97 821T98 1081T102 1330Q107 1476 184 1545T409 1614Q558 1614 637 1544T722 1336Q724 1297 724 1257T724 1173T722 1087H562Q564 1131 564 1175T565 1265T562 1356Q560
1421 522 1451T410 1481Q339 1481 303 1452T264 1358Q261 1253 259 1133T256 878H294Q318 917 373 942T492 967Q616 967 672 909T732 709Q735 620 736 553T737 421T732 269Q724 116 650 50T411 -17ZM412 118Q487 118 528 147T570 244Q572 314 573 368T574 473T575
579T573 705Q572 773 533 802T429 832Q359 832 309 800T256 708Q256 600 257 486T262 249Q264 178 303 148T412 118Z" />
<glyph unicode="7" horiz-adv-x="678" d="M102 0L487 1459H20V1600H648V1459L268 0H102Z" />
<glyph unicode="8" horiz-adv-x="803" d="M402 -15Q242 -15 172 53T95 270Q94 310 93 358T92 464T96 593Q102 680 135 732T236 812V842Q180 862 148 905T106 1017Q101 1085 99 1138T97 1238T100 1330Q108 1483 177 1549T402 1615Q555 1615 626 1549T704 1329Q707
1288 707 1234T705 1124T698 1021Q690 950 656 906T566 842V811Q628 785 663 735T706 597Q712 492 712 411T707 270Q700 118 631 52T402 -15ZM402 118Q477 118 511 149T547 252Q549 319 549 375T550 488T547 612Q546 683 511 716T402 750Q326 750 292 717T257 612Q254
517 253 432T256 254Q258 188 291 153T402 118ZM402 902Q475 902 510 935T547 1041Q548 1119 549 1197T547 1348Q546 1417 512 1449T402 1482Q329 1482 294 1451T257 1350Q255 1299 254 1262T253 1191T254 1122T257 1038Q258 965 295 934T402 902Z" />
<glyph unicode="9" horiz-adv-x="817" d="M413 -17Q253 -17 179 49T102 268Q102 295 102 340T101 432T103 511H264Q263 448 262 377T263 247Q265 179 301 149T411 118Q478 118 515 147T555 245Q558 341 559 460T562 710H529Q507 672 455 646T337 620Q265 620 208
647T119 733T84 886Q83 940 83 1002T82 1127T82 1242T84 1329Q91 1481 167 1547T406 1614Q570 1614 640 1547T714 1329Q718 1130 719 962T719 627T714 268Q712 116 639 50T413 -17ZM393 755Q472 755 514 786T561 872Q561 999 560 1122T553 1357Q552 1422 513 1451T405
1481Q327 1481 288 1451T246 1356Q246 1329 245 1265T244 1124T243 981T244 883Q246 816 286 786T393 755Z" />
<glyph unicode=":" horiz-adv-x="425" d="M71 600V795H354V600H71ZM71 0V195H354V0H71Z" />
<glyph unicode=";" horiz-adv-x="429" d="M129 -217L226 0H74V196H358V18L237 -217H129ZM71 604V799H354V604H71Z" />
<glyph unicode="&lt;" horiz-adv-x="999" d="M879 548L120 666V878L879 1001V868L480 814L244 794V751L480 731L879 679V548Z" />
<glyph unicode="=" horiz-adv-x="917" d="M106 834V962H811V834H106ZM106 572V700H811V572H106Z" />
<glyph unicode="&gt;" horiz-adv-x="970" d="M106 548V679L505 731L741 751V794L505 814L106 868V1001L864 878V666L106 548Z" />
<glyph unicode="?" horiz-adv-x="747" d="M270 346L265 586Q263 643 271 685T309 761T395 822L439 843Q472 858 487 883T507 947T511 1043V1351Q511 1411 478 1442T370 1474Q303 1474 271 1445T234 1350Q231 1282 231 1204T234 1050H65Q64 1113 63 1157T62 1241T64
1324Q71 1480 141 1548T368 1616Q535 1616 609 1549T683 1324Q683 1235 683 1183T684 1100T684 1041Q683 952 671 896T638 806T587 753T515 717L471 698Q428 680 419 648T407 585L399 346H270ZM195 0V195H477V0H195Z" />
<glyph unicode="@" horiz-adv-x="1099" d="M551 -250Q401 -250 304 -219T161 -119T111 61Q109 205 107 332T105 581T106 836T111 1123Q114 1236 159 1307T301 1411T551 1445Q700 1445 796 1413T940 1309T990 1122Q991 997 991 892T992 693T991 513T989 334Q988
260 940 224T804 188Q710 188 672 215T623 278H598Q578 235 551 211T475 187Q410 187 376 228T336 367Q333 430 332 514T331 685T336 841Q341 939 375 981T477 1023Q524 1023 550 1002T596 935H616V1013H744L746 335Q746 304 760 290T804 275Q831 275 844 289T859
336Q860 418 861 505T863 688T864 894T861 1129Q858 1237 785 1285T551 1334Q398 1334 322 1288T242 1129Q238 969 237 834T235 574T236 323T242 55Q245 -50 319 -94T551 -139Q705 -139 779 -98T855 49Q856 77 856 91T855 130H983Q985 113 985 97T984 52Q981 -58
935 -124T795 -220T551 -250ZM524 282Q554 282 579 302T616 353V853Q605 889 579 908T524 928Q494 928 481 910T466 851Q462 759 461 677T460 518T466 360Q468 316 481 299T524 282Z" />
<glyph unicode="A" horiz-adv-x="777" d="M53 0L225 1600H552L723 0H561L520 452H256L216 0H53ZM270 595H507L476 934L432 1457H346L301 933L270 595Z" />
<glyph unicode="B" horiz-adv-x="824" d="M121 0V1600H421Q580 1600 651 1539T724 1335Q725 1235 725 1163T723 1022Q718 937 686 888T581 820V790Q657 769 691 720T729 585Q733 497 732 425T729 266Q724 124 654 62T426 0H121ZM280 146H426Q506 146 537 173T570
267Q573 352 573 423T570 580Q569 667 539 700T431 733H280V146ZM280 878H436Q507 878 535 911T565 1024Q568 1110 568 1183T565 1341Q564 1405 533 1431T421 1457H280V878Z" />
<glyph unicode="C" horiz-adv-x="835" d="M420 -15Q261 -15 187 49T110 261Q108 408 107 540T106 800T107 1059T110 1338Q112 1483 186 1547T420 1612Q579 1612 654 1547T735 1338Q737 1286 737 1239T737 1144T733 1044H575Q577 1098 577 1146T578 1242T576 1343Q573
1419 538 1447T420 1476Q339 1476 305 1448T268 1343Q265 1186 263 1055T261 800T263 545T268 255Q270 179 305 150T420 121Q508 121 544 150T584 255Q586 301 586 345T585 445T582 577H741Q745 481 745 408T743 261Q737 113 662 49T420 -15Z" />
<glyph unicode="D" horiz-adv-x="835" d="M121 0V1600H423Q583 1600 653 1538T725 1334Q728 1144 729 972T729 629T725 267Q723 124 655 62T434 0H121ZM280 143H434Q507 143 536 168T567 254Q571 408 572 541T574 800T573 1060T567 1347Q566 1407 534 1432T423
1457H280V143Z" />
<glyph unicode="E" horiz-adv-x="708" d="M121 0V1600H652V1457H280V876H632V733H280V143H652V0H121Z" />
<glyph unicode="F" horiz-adv-x="701" d="M121 0V1600H665V1457H280V876H645V733H280V0H121Z" />
<glyph unicode="G" horiz-adv-x="832" d="M425 -14Q313 -14 245 14T145 103T111 263Q108 397 107 531T106 798T107 1065T111 1332Q113 1433 144 1495T244 1585T424 1614Q588 1614 658 1550T735 1338Q738 1262 738 1193T735 1045H576Q579 1130 579 1198T576 1351Q573
1424 542 1451T424 1478Q335 1478 304 1451T269 1351Q265 1200 264 1065T262 801T263 536T269 250Q272 177 303 150T425 123Q519 123 551 150T587 250Q588 299 588 344T589 435T587 530H428V674H743Q745 549 745 452T741 263Q737 115 665 51T425 -14Z" />
<glyph unicode="H" horiz-adv-x="855" d="M121 0V1600H280V876H575V1600H734V0H575V733H280V0H121Z" />
<glyph unicode="I" horiz-adv-x="401" d="M121 0V1600H280V0H121Z" />
<glyph unicode="J" horiz-adv-x="750" d="M345 -14Q244 -14 182 14T90 103T56 263Q55 348 55 421T56 579H209Q207 524 206 469T206 360T209 250Q211 179 240 151T345 123Q428 123 458 151T489 250V1600H647V263Q647 115 577 51T345 -14Z" />
<glyph unicode="K" horiz-adv-x="785" d="M121 0V1600H287L286 1224L274 754H323L467 1257L578 1600H749L512 884L774 0H611L411 691L282 360V0H121Z" />
<glyph unicode="L" horiz-adv-x="663" d="M121 0V1600H280V143H651V0H121Z" />
<glyph unicode="M" horiz-adv-x="1298" d="M121 0V1600H464L559 945L622 150H677L739 945L835 1600H1176V0H1015V500L1035 1457H950L847 459L769 7H525L452 459L348 1457H264L284 500V0H121Z" />
<glyph unicode="N" horiz-adv-x="1006" d="M121 0V1600H446L535 1093L669 144H754L734 1034L725 1600H885V0H550L453 574L340 1458H252L270 599L281 0H121Z" />
<glyph unicode="O" horiz-adv-x="840" d="M419 -14Q256 -14 184 52T110 271Q108 423 107 552T106 804T107 1054T110 1328Q112 1481 184 1547T419 1614Q581 1614 652 1548T727 1328Q731 1182 732 1055T734 805T733 553T727 271Q724 119 653 53T419 -14ZM419 123Q503
123 535 153T569 266Q573 420 575 549T577 799T575 1049T569 1334Q568 1416 536 1447T419 1478Q335 1478 303 1447T268 1334Q264 1183 263 1055T261 806T262 555T268 266Q270 184 302 154T419 123Z" />
<glyph unicode="P" horiz-adv-x="775" d="M121 0V1600H418Q568 1600 635 1540T707 1341Q712 1208 712 1102T707 884Q702 746 634 686T416 626H280V0H121ZM280 769H416Q489 769 517 794T549 879Q553 956 554 1027T554 1176T549 1347Q547 1408 518 1432T418 1457H280V769Z" />
<glyph unicode="Q" horiz-adv-x="840" d="M634 -229Q517 -237 460 -187T393 -14Q244 -9 178 57T110 271Q108 423 107 552T106 804T107 1054T110 1328Q112 1481 184 1547T419 1614Q581 1614 652 1548T727 1328Q731 1182 732 1055T734 805T733 553T727 271Q725 154
682 90T546 4Q545 -57 565 -79T634 -97V-229ZM419 123Q503 123 535 153T569 266Q573 420 575 549T577 799T575 1049T569 1334Q568 1416 536 1447T419 1478Q335 1478 303 1447T268 1334Q264 1183 263 1055T261 806T262 555T268 266Q270 184 302 154T419 123Z" />
<glyph unicode="R" horiz-adv-x="808" d="M121 0V1600H422Q572 1600 640 1540T712 1341Q716 1247 717 1169T717 1020T712 870Q708 777 677 721T580 638L743 0H576L429 612H280V0H121ZM280 755H421Q493 755 522 779T554 864Q557 955 558 1030T559 1181T554 1347Q551
1408 522 1432T422 1457H280V755Z" />
<glyph unicode="S" horiz-adv-x="802" d="M403 -14Q242 -14 171 50T94 263Q93 320 93 369T93 469T96 579H249Q245 490 245 409T249 243Q252 176 286 150T403 123Q480 123 513 149T551 243Q555 286 555 336T555 437T551 531Q549 611 519 651T421 708L310 735Q228
755 181 793T114 897T91 1062Q90 1127 90 1197T92 1340Q95 1439 127 1499T226 1586T403 1614Q559 1614 629 1550T704 1338Q706 1276 705 1202T702 1045H548Q551 1137 551 1212T549 1358Q546 1425 513 1451T401 1478Q322 1478 289 1452T251 1358Q247 1282 247 1211T251
1062Q253 976 275 936T351 882L456 858Q550 836 604 797T683 693T711 531Q713 489 713 443T712 350T710 263Q704 115 634 51T403 -14Z" />
<glyph unicode="T" horiz-adv-x="673" d="M258 0V1457H14V1600H659V1457H416V0H258Z" />
<glyph unicode="U" horiz-adv-x="827" d="M414 -14Q251 -14 181 50T107 258Q103 596 103 929T107 1600H266Q264 1375 263 1149T263 697T264 246Q264 180 297 153T414 125Q496 125 529 152T562 246Q563 471 564 697T565 1149T562 1600H720Q724 1262 724 929T720
258Q719 114 648 50T414 -14Z" />
<glyph unicode="V" horiz-adv-x="791" d="M233 0L56 1600H220L316 709L354 144H435L473 709L569 1600H735L556 0H233Z" />
<glyph unicode="W" horiz-adv-x="1296" d="M179 0L70 1600H230L264 998L306 144H385L429 998L502 1590H792L865 998L909 144H988L1032 998L1068 1600H1226L1115 0H791L738 525L686 1451H610L557 525L503 0H179Z" />
<glyph unicode="X" horiz-adv-x="739" d="M41 0L229 816L49 1600H204L285 1223L338 882H403L456 1223L535 1600H690L515 812L699 0H544L458 396L403 739H338L282 396L196 0H41Z" />
<glyph unicode="Y" horiz-adv-x="729" d="M284 0V555H233L41 1600H202L272 1148L334 691H395L454 1148L525 1600H688L494 555H443V0H284Z" />
<glyph unicode="Z" horiz-adv-x="641" d="M36 0V132L437 1457H59V1600H605V1464L198 143H569V0H36Z" />
<glyph unicode="[" horiz-adv-x="574" d="M106 -400V1600H514V1514H269V-314H514V-400H106Z" />
<glyph unicode="\" horiz-adv-x="653" d="M593 -400H433L-6 1600H154L593 -400Z" />
<glyph unicode="]" horiz-adv-x="574" d="M469 -400H60V-314H306V1514H60V1600H469V-400Z" />
<glyph unicode="^" horiz-adv-x="787" d="M106 924L330 1380H456L682 924H561L393 1267L226 924H106Z" />
<glyph unicode="_" horiz-adv-x="1352" d="M60 -120V-80H1292V-120H60Z" />
<glyph unicode="`" horiz-adv-x="506" d="M266 1280L100 1514H227L384 1280H266Z" />
<glyph unicode="a" horiz-adv-x="779" d="M317 -13Q206 -13 145 45T75 223Q74 248 73 272T73 322Q77 394 99 451T172 555T310 644Q357 667 411 690T517 730V968Q517 1034 490 1063T391 1092Q331 1092 295 1067T256 978Q254 948 254 910T254 837T256 783H100Q99
826 98 871T98 958Q102 1046 132 1103T226 1187T398 1215Q505 1215 565 1187T649 1096T674 936L673 0H514V111H492Q466 53 431 20T317 -13ZM359 107Q416 107 455 136T515 220L517 595Q477 583 435 564T341 513Q276 476 256 430T233 322Q232 295 232 274T234 232Q239
174 271 141T359 107Z" />
<glyph unicode="b" horiz-adv-x="818" d="M499 -15Q419 -15 376 16T297 111H273V0H111V1600H273V1090H306Q340 1153 384 1184T508 1215Q614 1215 668 1157T725 962Q727 888 728 797T730 606T729 413T725 238Q721 104 664 45T499 -15ZM449 107Q510 107 536 135T564
227Q567 322 569 410T571 587T570 771T565 973Q563 1035 537 1064T449 1094Q385 1094 340 1065T273 977V224Q296 162 343 135T449 107Z" />
<glyph unicode="c" horiz-adv-x="770" d="M527 783Q529 816 529 849T529 914T528 973Q527 1039 496 1065T392 1091Q318 1091 288 1065T255 972Q252 879 251 788T250 605T251 420T255 230Q257 162 289 136T393 109Q466 109 496 136T528 231Q529 273 529 317T527
420H684Q687 384 687 333T686 246Q681 107 614 46T393 -15Q236 -15 168 46T94 246Q92 318 91 407T89 593T90 781T94 952Q101 1093 170 1154T392 1215Q546 1215 614 1155T686 957Q688 916 688 869T684 783H527Z" />
<glyph unicode="d" horiz-adv-x="819" d="M314 -15Q204 -15 152 44T94 238Q91 320 90 414T89 605T91 794T94 962Q98 1100 155 1157T318 1215Q395 1215 440 1184T518 1090H546V1600H708V0H546V111H516Q482 49 437 17T314 -15ZM370 107Q430 107 477 135T546 224V977Q524
1038 477 1066T371 1094Q310 1094 284 1067T256 977Q251 853 250 719T249 459T254 232Q256 162 284 135T370 107Z" />
<glyph unicode="e" horiz-adv-x="768" d="M396 -15Q238 -15 170 47T94 247Q92 319 91 408T89 593T90 781T94 951Q101 1093 171 1154T394 1215Q547 1215 614 1153T687 958Q688 935 688 871T689 725T685 569H250Q250 486 251 402T254 230Q256 162 289 136T393 110Q464
110 494 136T528 230Q530 260 530 312T526 420H685Q687 386 688 333T687 247Q680 107 615 46T396 -15ZM250 691H530Q531 747 531 804T531 907T528 971Q524 1039 492 1065T394 1092Q318 1092 287 1062T254 971Q253 903 252 833T250 691Z" />
<glyph unicode="f" horiz-adv-x="545" d="M141 0V1076H34V1200H141V1356Q140 1496 209 1556T430 1617Q460 1617 499 1614T570 1605V1484Q541 1486 507 1488T433 1490Q365 1490 333 1464T301 1367V1200H533V1076H301V0H141Z" />
<glyph unicode="g" horiz-adv-x="814" d="M395 -337Q248 -337 165 -295T74 -167Q73 -153 73 -141T72 -118Q74 -64 115 -31T206 11V38Q148 54 126 80T100 143Q100 149 99 160T99 182Q103 222 133 251T210 286V315Q148 343 120 399T86 548Q84 582 83 636T82 750T83
863T86 950Q93 1047 124 1105T218 1189T384 1215Q491 1215 554 1187T648 1096H674Q680 1146 716 1173T811 1200V1075H789Q740 1075 711 1041T681 934V885Q681 881 681 840T682 741T682 631T679 547Q674 451 643 393T550 310T383 285Q303 286 265 268T227 210V199Q227
174 245 159T300 137T398 128Q562 122 641 77T729 -75Q731 -88 731 -103T729 -133Q723 -211 679 -256T562 -319T395 -337ZM394 -222Q458 -222 500 -214T566 -184T596 -125Q599 -112 599 -101T596 -78Q591 -45 571 -27T508 0T394 9Q311 11 263 -4T208 -81Q206 -99
206 -107T208 -126Q212 -166 235 -186T298 -214T394 -222ZM384 407Q460 407 489 436T524 532Q526 564 527 625T528 755T527 883T524 970Q520 1035 490 1063T385 1092Q310 1092 278 1064T241 965Q240 940 239 882T238 754T238 625T241 533Q246 467 276 437T384 407Z"
/>
<glyph unicode="h" horiz-adv-x="832" d="M111 0V1600H273V1090H306Q340 1153 384 1184T508 1215Q619 1215 672 1155T725 962L727 0H567L565 974Q565 1038 538 1066T450 1094Q385 1094 340 1065T273 977V0H111Z" />
<glyph unicode="i" horiz-adv-x="381" d="M85 1440V1600H295V1440H85ZM111 0V1200H270V0H111Z" />
<glyph unicode="j" horiz-adv-x="383" d="M93 1440V1600H303V1440H93ZM-23 -412Q-53 -412 -93 -409T-165 -401V-279Q-138 -281 -101 -282T-26 -284Q49 -284 80 -258T112 -167V1200H273V-152Q273 -290 203 -351T-23 -412Z" />
<glyph unicode="k" horiz-adv-x="727" d="M111 0V1600H263V1290L248 672H283L400 971L505 1200H672L438 710L725 0H557L341 542L267 408V0H111Z" />
<glyph unicode="l" horiz-adv-x="381" d="M111 0V1600H270V0H111Z" />
<glyph unicode="m" horiz-adv-x="1244" d="M111 0V1200H271V1090H302Q334 1151 375 1183T496 1215Q574 1215 623 1183T693 1081H722Q754 1143 802 1179T929 1215Q1033 1215 1085 1156T1139 962V0H979V974Q979 1038 952 1066T869 1094Q807 1094 769 1062T708 974V0H548V974Q548
1038 521 1066T438 1094Q377 1094 334 1064T271 977V0H111Z" />
<glyph unicode="n" horiz-adv-x="832" d="M111 0V1200H271V1090H306Q340 1152 387 1183T508 1215Q619 1215 672 1155T727 962V0H568V974Q567 1038 539 1066T450 1094Q392 1094 342 1063T271 977V0H111Z" />
<glyph unicode="o" horiz-adv-x="795" d="M398 -15Q290 -15 225 13T130 104T95 266Q92 327 91 410T89 586T90 768T95 933Q100 1036 130 1097T225 1187T398 1215Q508 1215 572 1187T665 1096T700 933Q703 865 704 781T706 608T705 430T700 266Q695 166 665 104T571
14T398 -15ZM398 109Q477 109 508 139T541 233Q544 324 546 414T548 596T547 781T541 968Q539 1035 507 1063T398 1091Q321 1091 288 1062T253 965Q250 885 248 796T246 613T247 424T253 236Q256 168 288 139T398 109Z" />
<glyph unicode="p" horiz-adv-x="818" d="M111 -400V1200H273V1090H301Q335 1153 378 1184T503 1215Q611 1215 666 1156T725 962Q727 901 728 805T730 601T729 398T725 238Q721 104 663 45T496 -15Q428 -15 383 14T301 111H273V-400H111ZM442 107Q502 107 532
135T564 227Q569 351 570 448T572 630T569 798T564 977Q562 1039 536 1066T449 1094Q385 1094 340 1065T273 977V224Q297 159 337 133T442 107Z" />
<glyph unicode="q" horiz-adv-x="818" d="M545 -400V111H519Q482 42 437 14T324 -15Q215 -15 157 44T93 238Q91 309 90 404T89 602T90 799T93 962Q99 1097 152 1156T316 1215Q395 1215 439 1184T516 1090H545V1200H707V-400H545ZM377 107Q442 107 482 133T545
224V977Q524 1038 477 1066T369 1094Q312 1094 284 1066T253 972Q250 856 249 729T249 474T254 227Q256 163 287 135T377 107Z" />
<glyph unicode="r" horiz-adv-x="569" d="M111 0V1200H274V1081H308Q326 1149 369 1177T486 1205Q505 1205 523 1203T561 1201V1076H488Q397 1076 345 1047T274 944V0H111Z" />
<glyph unicode="s" horiz-adv-x="724" d="M356 -15Q205 -15 145 46T78 246Q77 291 77 332T80 417H225Q222 356 222 310T223 230Q224 162 254 136T356 109Q432 109 465 135T500 231Q501 260 501 281T501 321T500 365Q498 436 480 469T405 521L295 552Q216 575 169
609T101 699T76 843Q75 879 75 902T76 952Q80 1092 143 1153T365 1215Q514 1215 576 1156T644 954Q644 933 644 878T640 786H492Q494 818 494 853T494 919T493 973Q492 1040 465 1065T365 1091Q293 1091 265 1066T234 972Q234 954 233 924T232 859Q234 788 250
745T329 684L433 657Q545 628 598 564T651 370Q651 334 651 307T649 242Q645 105 581 45T356 -15Z" />
<glyph unicode="t" horiz-adv-x="540" d="M418 -15Q257 -15 192 45T127 249L126 1076H32V1200H131V1540H291V1200H499V1076H286L287 231Q287 159 313 134T421 108Q451 108 472 109T523 114V-5Q499 -9 474 -12T418 -15Z" />
<glyph unicode="u" horiz-adv-x="829" d="M326 -15Q217 -15 160 45T103 240V1200H264L265 227Q265 163 291 135T378 107Q437 107 486 138T556 224V1200H717V0H556V111H528Q493 46 443 16T326 -15Z" />
<glyph unicode="v" horiz-adv-x="703" d="M203 0L36 1200H202L271 595L318 122H382L432 595L502 1200H667L497 0H203Z" />
<glyph unicode="w" horiz-adv-x="1161" d="M170 0L36 1200H198L247 595L286 122H349L378 595L435 1195H728L779 595L811 122H873L912 595L965 1200H1125L988 0H693L655 462L614 1073H547L505 462L468 0H170Z" />
<glyph unicode="x" horiz-adv-x="663" d="M28 0L215 619L32 1200H189L257 942L313 684H348L406 942L474 1200H631L448 616L635 0H478L399 315L347 564H315L264 315L185 0H28Z" />
<glyph unicode="y" horiz-adv-x="723" d="M190 -410Q162 -410 119 -406T45 -398V-275Q72 -278 113 -280T187 -283Q268 -283 297 -257T338 -160L366 0H232L54 1200H220L283 622L343 122H402L463 622L522 1200H688L499 -150Q486 -238 455 -295T361 -381T190 -410Z" />
<glyph unicode="z" horiz-adv-x="641" d="M44 0V102L435 1078L53 1075V1197L609 1200V1094L212 122H595V0H44Z" />
<glyph unicode="{" horiz-adv-x="645" d="M585 -401Q474 -401 387 -367T251 -261T201 -78Q201 -54 203 -5T208 103T213 219T217 319T219 377Q219 458 188 485T104 513H60V685H104Q157 685 188 712T219 821Q219 836 218 878T214 978T208 1094T204 1202T202 1277Q202
1389 251 1460T387 1565T585 1600V1513Q520 1513 469 1483T389 1399T360 1277Q360 1255 361 1213T365 1118T370 1015T374 924T376 863Q376 763 337 697T221 615V583Q297 569 336 502T376 336Q376 317 375 276T371 184T366 81T362 -13T360 -78Q360 -147 389 -200T469
-283T585 -314V-401Z" />
<glyph unicode="|" horiz-adv-x="372" d="M106 1827H267V-240H106V1827Z" />
<glyph unicode="}" horiz-adv-x="645" d="M60 -401V-314Q126 -314 176 -284T256 -200T285 -78Q285 -56 284 -14T280 81T275 184T271 276T269 336Q269 435 308 502T424 583V615Q348 630 309 696T269 863Q269 883 270 923T275 1015T280 1118T283 1212T285 1277Q285
1346 256 1399T177 1482T60 1513V1600Q171 1600 257 1566T393 1460T443 1277Q443 1251 442 1202T438 1094T432 978T428 879T426 821Q426 739 457 712T541 685H585V513H541Q488 513 457 486T426 377Q426 362 427 319T432 219T437 103T442 -5T444 -78Q444 -189 395
-260T258 -366T60 -401Z" />
<glyph unicode="~" horiz-adv-x="956" d="M617 654Q567 658 532 676T468 717T412 760T346 784Q290 793 254 761T215 666H106Q113 796 183 859T358 911Q413 906 448 887T511 844T563 803T624 782Q678 777 710 808T742 896H850Q848 772 783 709T617 654Z" />
<glyph unicode="&#xa0;" horiz-adv-x="414" />
<glyph unicode="&#xa1;" horiz-adv-x="468" d="M149 884H272L292 278V-400H127V278L149 884ZM69 1200H351V1005H69V1200Z" />
<glyph unicode="&#xa2;" horiz-adv-x="770" d="M318 0V190Q203 203 152 264T94 446Q91 518 90 619T89 824T91 1017T94 1152Q100 1275 152 1336T318 1410V1600H460V1411Q577 1400 630 1340T686 1157Q687 1122 687 1072T684 983H526Q528 1016 528 1051T529 1118T528
1173Q527 1239 496 1265T391 1291Q318 1291 287 1265T254 1172Q252 1079 251 988T250 805T251 620T254 430Q256 362 288 336T393 309Q465 309 496 336T528 431Q528 467 528 513T526 620H684Q686 584 687 533T686 446Q681 324 629 263T460 190V0H318Z" />
<glyph unicode="&#xa3;" horiz-adv-x="857" d="M127 0V136Q171 168 196 229T233 375T244 558Q244 616 239 665T227 759H106V855H204Q188 923 171 991T142 1142T130 1332Q131 1469 202 1541T430 1614Q589 1614 659 1548T733 1331Q735 1283 735 1239T735 1147T733
1038H573Q574 1071 574 1113T575 1199T575 1284T574 1356Q573 1423 539 1452T430 1481Q358 1481 324 1452T290 1356Q290 1258 303 1176T337 1016T374 855H572V759H389Q395 719 398 676T402 585Q402 426 370 326T286 172V142H751V0H127Z" />
<glyph unicode="&#xa4;" horiz-adv-x="986" d="M189 51L109 113L232 281Q212 312 201 357T187 459Q184 520 183 603T181 779T182 961T187 1126Q190 1184 201 1228T233 1306L106 1474L184 1535L306 1373Q372 1408 490 1408Q608 1408 674 1375L797 1533L875 1471L748
1307Q769 1274 780 1229T793 1126Q796 1058 797 974T799 801T798 623T793 459Q791 401 780 356T748 277L867 115L788 53L671 210Q606 178 490 178Q374 178 307 211L189 51ZM490 302Q571 302 601 331T634 426Q638 517 640 607T642 789T640 973T634 1161Q632 1228
600 1256T490 1284Q413 1284 381 1255T346 1158Q343 1078 341 989T339 806T341 617T347 428Q349 361 381 332T490 302Z" />
<glyph unicode="&#xa5;" horiz-adv-x="729" d="M286 0V215H143V311H286V390H143V488H286V555H235L41 1600H204L282 1148L334 691H395L449 1148L525 1600H688L494 555H443V488H588V390H443V311H588V215H443V0H286Z" />
<glyph unicode="&#xa6;" horiz-adv-x="372" d="M106 1827H267V1016H106V1827ZM106 536H267V-240H106V536Z" />
<glyph unicode="&#xa7;" horiz-adv-x="795" d="M390 -415Q289 -415 230 -392T144 -316T112 -170Q111 -141 111 -109T111 -43T114 20H259Q257 -22 256 -49T255 -105T257 -178Q260 -241 291 -266T390 -291Q467 -291 498 -265T532 -170Q534 -124 534 -84T534 1Q532
71 516 108T439 157L351 178Q250 201 182 252T109 417Q107 493 107 577T109 745Q112 822 144 870T226 940V977Q170 1000 142 1042T108 1180Q106 1223 106 1268T110 1363Q118 1458 144 1510T231 1584T399 1605Q550 1605 611 1545T676 1347Q677 1311 677 1264T674
1165H525Q528 1196 528 1234T529 1307T527 1361Q524 1432 496 1453T399 1474Q323 1474 299 1452T268 1364Q265 1324 264 1269T265 1178Q268 1107 282 1071T362 1020L465 998Q564 977 621 914T685 742Q690 650 689 580T683 418Q679 352 650 307T566 238V209Q627
185 656 130T687 -4Q687 -41 687 -87T683 -169Q676 -260 648 -314T558 -391T390 -415ZM403 299Q479 299 505 336T537 419Q541 464 542 524T543 644T538 746Q533 791 507 828T403 866Q329 866 297 830T262 747Q258 669 259 583T264 419Q268 369 298 334T403 299Z"
/>
<glyph unicode="&#xa8;" horiz-adv-x="627" d="M365 1310V1444H499V1310H365ZM131 1310V1444H265V1310H131Z" />
<glyph unicode="&#xa9;" horiz-adv-x="1282" d="M641 -10Q460 -10 341 56T164 257T106 600Q106 808 164 943T341 1144T641 1210Q913 1210 1044 1061T1176 600Q1176 393 1118 258T942 56T641 -10ZM641 76Q865 76 972 203T1079 600Q1079 868 972 996T641 1124Q416
1124 310 997T203 600Q203 331 309 204T641 76ZM646 184Q538 184 487 228T431 382Q429 427 428 481T427 592T428 705T431 809Q434 917 483 963T645 1009Q757 1009 805 964T857 813Q858 793 858 775T855 737H751Q753 760 753 781T752 822Q752 882 727 903T645 925Q588
925 564 904T537 821Q535 752 535 669T535 508T537 372Q538 312 564 290T646 268Q702 268 726 290T752 372Q753 394 753 412T751 465H855Q858 436 858 419T857 381Q852 276 805 230T646 184Z" />
<glyph unicode="&#xaa;" horiz-adv-x="704" d="M293 754Q202 754 160 796T108 926Q107 940 107 957T106 993Q110 1070 152 1123T301 1219Q333 1231 378 1247T470 1278Q470 1316 469 1355T466 1435Q465 1475 445 1496T360 1517Q310 1517 284 1500T253 1438Q252
1426 252 1400T253 1347T255 1307H128Q127 1318 126 1343T125 1393T126 1429Q129 1521 182 1568T366 1615Q454 1615 503 1594T573 1527T596 1407Q597 1367 597 1304T598 1165T598 1014T598 873T596 764H466Q466 785 466 804T468 843H444Q424 801 390 778T293 754ZM338
850Q377 850 413 867T468 926Q470 994 471 1056T472 1177Q435 1167 400 1156T326 1123Q272 1098 255 1066T236 993Q235 986 235 966T237 934Q240 892 268 871T338 850Z" />
<glyph unicode="&#xab;" horiz-adv-x="732" d="M606 846L302 542V703L606 1007V846ZM606 239L302 542V703L606 399V239ZM627 846L323 542V703L627 1007V846ZM627 239L323 542V703L627 399V239Z" />
<glyph unicode="&#xac;" horiz-adv-x="917" d="M681 523V831H106V960H811V523H681Z" />
<glyph unicode="&#xad;" horiz-adv-x="715" d="M60 687V830H655V687H60Z" />
<glyph unicode="&#xae;" horiz-adv-x="855" d="M430 1028Q267 1028 187 1114T106 1376Q106 1555 186 1642T430 1730Q591 1730 670 1643T749 1376Q749 1201 670 1115T430 1028ZM430 1082Q567 1082 630 1152T693 1376Q693 1533 630 1603T430 1674Q290 1674 226 1605T162
1376Q162 1222 226 1152T430 1082ZM336 1176V1600H432Q481 1600 509 1581T538 1510Q540 1499 540 1480T538 1447Q538 1422 525 1404T484 1380V1369Q512 1362 524 1346T538 1301Q539 1288 539 1262T540 1211T538 1176H475Q477 1210 476 1247T474 1310Q473 1350 432
1350H398V1176H336ZM398 1404H434Q452 1404 462 1412T474 1439Q475 1460 475 1476T474 1516Q472 1545 432 1545H398V1404Z" />
<glyph unicode="&#xaf;" horiz-adv-x="806" d="M53 1377H548V1293H53V1377Z" />
<glyph unicode="&#xb0;" horiz-adv-x="689" d="M346 1182Q281 1182 227 1212T139 1291T106 1400Q106 1460 139 1510T226 1590T346 1620Q410 1620 464 1590T551 1510T584 1400Q584 1341 551 1292T464 1212T346 1182ZM346 1258Q411 1258 458 1300T506 1400Q506 1460
459 1502T346 1545Q280 1545 232 1503T184 1400Q184 1342 232 1300T346 1258Z" />
<glyph unicode="&#xb1;" horiz-adv-x="957" d="M415 562V705H106V829H415V999H541V829H851V705H541V562H415ZM106 362V466H851V362H106Z" />
<glyph unicode="&#xb2;" horiz-adv-x="518" d="M79 880Q79 931 79 963T79 1025Q80 1108 121 1156T222 1236L284 1270Q313 1286 325 1306T339 1357Q341 1383 341 1409T339 1464Q339 1484 323 1499T268 1514Q199 1514 198 1464Q197 1431 198 1396T200 1334H80Q79
1370 78 1390T78 1449Q83 1530 130 1569T269 1609Q366 1609 412 1570T460 1449Q461 1431 461 1420T462 1396T462 1358Q461 1287 425 1247T328 1178L259 1145Q234 1130 220 1102T205 1037V983H453V880H79Z" />
<glyph unicode="&#xb3;" horiz-adv-x="522" d="M262 871Q167 871 116 909T64 1024Q63 1044 63 1056T62 1081T64 1121H185Q183 1096 183 1069T184 1024Q186 998 203 983T258 967Q297 967 313 980T331 1020Q332 1062 332 1089T331 1152Q329 1185 310 1198T250 1211H166L161
1299L305 1497H71V1600H452L451 1501L297 1304Q368 1299 410 1264T454 1154Q455 1137 455 1111T455 1062T454 1025Q453 952 407 912T262 871Z" />
<glyph unicode="&#xb4;" horiz-adv-x="508" d="M112 1280L278 1514H405L231 1280H112Z" />
<glyph unicode="&#xb5;" horiz-adv-x="852" d="M107 -400L106 1200H266L268 227Q269 163 296 135T383 107Q440 107 486 138T552 224V1200H714V202Q714 133 722 81T746 0H586Q576 20 569 47T558 111H525Q496 58 458 27T364 -10Q308 -14 269 0V-400H107Z" />
<glyph unicode="&#xb6;" horiz-adv-x="993" d="M482 -200V816H405Q307 816 244 840T147 926T108 1097Q106 1136 106 1180T106 1261T108 1320Q114 1427 146 1488T241 1574T405 1600H888V1506H789V-200H671V1506H599V-200H482Z" />
<glyph unicode="&#xb7;" horiz-adv-x="327" d="M93 759V900H234V759H93Z" />
<glyph unicode="&#xb8;" horiz-adv-x="480" d="M83 -308V-212H132Q180 -212 197 -190T202 -116L175 0H280L307 -116Q326 -213 283 -260T133 -308H83Z" />
<glyph unicode="&#xb9;" horiz-adv-x="343" d="M125 881V1496H34L30 1538L152 1601H254V881H125Z" />
<glyph unicode="&#xba;" horiz-adv-x="715" d="M356 754Q226 754 173 800T111 964Q110 988 109 1031T107 1128T106 1236T108 1335T111 1406Q118 1480 141 1526T214 1593T354 1615Q493 1615 546 1565T605 1406Q607 1378 608 1332T609 1231T610 1123T608 1028T605
964Q599 892 577 846T503 777T356 754ZM358 851Q421 851 446 870T473 935Q477 1017 478 1078T480 1194T478 1305T473 1435Q472 1479 446 1498T358 1517Q301 1517 273 1499T242 1433Q238 1339 237 1263T236 1109T242 934Q244 888 272 870T358 851Z" />
<glyph unicode="&#xbb;" horiz-adv-x="711" d="M361 846V1007L665 703V542L361 846ZM361 239V399L665 703V542L361 239ZM84 846V1007L388 703V542L84 846ZM84 239V399L388 703V542L84 239Z" />
<glyph unicode="&#xbc;" horiz-adv-x="986" d="M125 880V1495H34L30 1537L152 1600H254V880H125ZM-46 0L755 1600H876L73 0H-46ZM867 720V294H951V191H867V0H752V191H523V288L703 720H867ZM752 294L767 465L781 617H755L703 465L642 294H752Z" />
<glyph unicode="&#xbd;" horiz-adv-x="1015" d="M125 880V1495H34L30 1537L152 1600H254V880H125ZM-46 0L755 1600H876L73 0H-46ZM575 0Q575 51 575 83T575 145Q576 228 617 276T718 356L780 390Q809 406 821 426T835 477Q837 503 837 529T835 584Q835 604 819
619T764 634Q695 634 694 584Q693 551 694 516T696 454H576Q575 490 574 510T574 569Q579 650 626 689T765 729Q862 729 908 690T956 569Q957 551 957 540T958 516T958 478Q957 407 921 367T824 298L755 265Q730 250 716 222T701 157V103H949V0H575Z" />
<glyph unicode="&#xbe;" horiz-adv-x="1194" d="M262 871Q167 871 116 909T64 1024Q63 1044 63 1056T62 1081T64 1121H185Q183 1096 183 1069T184 1024Q186 998 203 983T258 967Q297 967 313 980T331 1020Q332 1062 332 1089T331 1152Q329 1185 310 1198T250 1211H166L161
1299L305 1497H71V1600H452L451 1501L297 1304Q368 1299 410 1264T454 1154Q455 1137 455 1111T455 1062T454 1025Q453 952 407 912T262 871ZM162 0L963 1600H1084L281 0H162ZM1075 720V294H1159V191H1075V0H960V191H731V288L911 720H1075ZM960 294L975 465L989
617H963L911 465L850 294H960Z" />
<glyph unicode="&#xbf;" horiz-adv-x="747" d="M379 -416Q213 -416 139 -349T65 -124Q65 -35 65 17T64 100T63 159Q65 249 76 305T109 394T161 447T232 483L276 502Q320 520 329 552T340 615L348 854H477L482 614Q484 558 476 515T439 439T352 378L308 357Q275
342 260 318T241 254T236 157V-151Q236 -210 269 -242T377 -274Q444 -274 477 -245T514 -150Q517 -82 517 -4T514 150H682Q684 88 684 43T685 -41T683 -124Q676 -280 606 -348T379 -416ZM270 1005V1200H552V1005H270Z" />
<glyph unicode="&#xc0;" horiz-adv-x="777" d="M53 0L225 1600H552L723 0H561L520 452H256L216 0H53ZM270 595H507L476 934L432 1457H346L301 933L270 595ZM316 1680L150 1914H277L434 1680H316Z" />
<glyph unicode="&#xc1;" horiz-adv-x="777" d="M53 0L225 1600H552L723 0H561L520 452H256L216 0H53ZM270 595H507L476 934L432 1457H346L301 933L270 595ZM339 1680L505 1914H632L458 1680H339Z" />
<glyph unicode="&#xc2;" horiz-adv-x="777" d="M53 0L225 1600H552L723 0H561L520 452H256L216 0H53ZM270 595H507L476 934L432 1457H346L301 933L270 595ZM182 1681L333 1915H440L592 1681H475L387 1824L300 1681H182Z" />
<glyph unicode="&#xc3;" horiz-adv-x="777" d="M53 0L225 1600H552L723 0H561L520 452H256L216 0H53ZM270 595H507L476 934L432 1457H346L301 933L270 595ZM535 1853H612Q611 1769 576 1730T478 1690Q439 1690 416 1702T375 1732T342 1761T300 1773Q279 1773 264
1759T242 1701H165Q172 1793 210 1829T307 1866Q348 1866 371 1854T410 1825T441 1796T481 1783Q511 1783 522 1802T535 1853Z" />
<glyph unicode="&#xc4;" horiz-adv-x="777" d="M53 0L225 1600H552L723 0H561L520 452H256L216 0H53ZM270 595H507L476 934L432 1457H346L301 933L270 595ZM438 1710V1844H572V1710H438ZM204 1710V1844H338V1710H204Z" />
<glyph unicode="&#xc5;" horiz-adv-x="777" d="M53 0L225 1600H552L723 0H561L520 452H256L216 0H53ZM270 595H507L476 934L432 1457H346L301 933L270 595ZM389 1670Q322 1670 273 1719T223 1837Q223 1904 272 1953T389 2003Q457 2003 506 1954T556 1837Q556 1768
507 1719T389 1670ZM389 1766Q418 1766 439 1787T461 1837Q461 1866 440 1887T389 1908Q361 1908 340 1887T319 1837Q319 1809 340 1788T389 1766Z" />
<glyph unicode="&#xc6;" horiz-adv-x="1135" d="M53 0L344 1600H1079V1457H708V876H1059V733H708V143H1079V0H550V444H304L224 0H53ZM333 587H550V1459H468L391 899L333 587Z" />
<glyph unicode="&#xc7;" horiz-adv-x="835" d="M420 -15Q261 -15 187 49T110 261Q108 408 107 540T106 800T107 1059T110 1338Q112 1483 186 1547T420 1612Q579 1612 654 1547T735 1338Q737 1286 737 1239T737 1144T733 1044H575Q577 1098 577 1146T578 1242T576
1343Q573 1419 538 1447T420 1476Q339 1476 305 1448T268 1343Q265 1186 263 1055T261 800T263 545T268 255Q270 179 305 150T420 121Q508 121 544 150T584 255Q586 301 586 345T585 445T582 577H741Q745 481 745 408T743 261Q737 113 662 49T420 -15ZM273 -301V-205H322Q370
-205 387 -183T392 -109L365 7H470L497 -109Q516 -206 473 -253T323 -301H273Z" />
<glyph unicode="&#xc8;" horiz-adv-x="708" d="M121 0V1600H652V1457H280V876H632V733H280V143H652V0H121ZM311 1677L145 1911H272L429 1677H311Z" />
<glyph unicode="&#xc9;" horiz-adv-x="708" d="M121 0V1600H652V1457H280V876H632V733H280V143H652V0H121ZM333 1677L499 1911H626L452 1677H333Z" />
<glyph unicode="&#xca;" horiz-adv-x="708" d="M121 0V1600H652V1457H280V876H632V733H280V143H652V0H121ZM176 1678L327 1912H434L586 1678H469L381 1821L294 1678H176Z" />
<glyph unicode="&#xcb;" horiz-adv-x="708" d="M121 0V1600H652V1457H280V876H632V733H280V143H652V0H121ZM432 1707V1841H566V1707H432ZM198 1707V1841H332V1707H198Z" />
<glyph unicode="&#xcc;" horiz-adv-x="401" d="M121 0V1600H280V0H121ZM129 1680L-37 1914H90L247 1680H129Z" />
<glyph unicode="&#xcd;" horiz-adv-x="401" d="M121 0V1600H280V0H121ZM151 1680L317 1914H444L270 1680H151Z" />
<glyph unicode="&#xce;" horiz-adv-x="401" d="M121 0V1600H280V0H121ZM-6 1681L145 1915H252L404 1681H287L199 1824L112 1681H-6Z" />
<glyph unicode="&#xcf;" horiz-adv-x="401" d="M121 0V1600H280V0H121ZM250 1710V1844H384V1710H250ZM16 1710V1844H150V1710H16Z" />
<glyph unicode="&#xd0;" horiz-adv-x="881" d="M73 946H438V856H73V946ZM168 0V1600H470Q629 1600 699 1538T772 1334Q775 1144 776 972T776 629T772 267Q769 124 702 62T481 0H168ZM326 143H481Q553 143 582 168T613 254Q617 408 619 541T621 800T619 1060T613
1347Q612 1407 581 1432T470 1457H326V143Z" />
<glyph unicode="&#xd1;" horiz-adv-x="1006" d="M121 0V1600H446L535 1093L669 144H754L734 1034L725 1600H885V0H550L453 574L340 1458H252L270 599L281 0H121ZM667 1853H744Q743 1769 708 1730T610 1690Q571 1690 548 1702T507 1732T474 1761T432 1773Q411 1773
396 1759T374 1701H297Q304 1793 342 1829T439 1866Q480 1866 503 1854T542 1825T573 1796T613 1783Q643 1783 654 1802T667 1853Z" />
<glyph unicode="&#xd2;" horiz-adv-x="840" d="M419 -14Q256 -14 184 52T110 271Q108 423 107 552T106 804T107 1054T110 1328Q112 1481 184 1547T419 1614Q581 1614 652 1548T727 1328Q731 1182 732 1055T734 805T733 553T727 271Q724 119 653 53T419 -14ZM419
123Q503 123 535 153T569 266Q573 420 575 549T577 799T575 1049T569 1334Q568 1416 536 1447T419 1478Q335 1478 303 1447T268 1334Q264 1183 263 1055T261 806T262 555T268 266Q270 184 302 154T419 123ZM347 1680L181 1914H308L465 1680H347Z" />
<glyph unicode="&#xd3;" horiz-adv-x="840" d="M419 -14Q256 -14 184 52T110 271Q108 423 107 552T106 804T107 1054T110 1328Q112 1481 184 1547T419 1614Q581 1614 652 1548T727 1328Q731 1182 732 1055T734 805T733 553T727 271Q724 119 653 53T419 -14ZM419
123Q503 123 535 153T569 266Q573 420 575 549T577 799T575 1049T569 1334Q568 1416 536 1447T419 1478Q335 1478 303 1447T268 1334Q264 1183 263 1055T261 806T262 555T268 266Q270 184 302 154T419 123ZM370 1680L536 1914H663L489 1680H370Z" />
<glyph unicode="&#xd4;" horiz-adv-x="840" d="M419 -14Q256 -14 184 52T110 271Q108 423 107 552T106 804T107 1054T110 1328Q112 1481 184 1547T419 1614Q581 1614 652 1548T727 1328Q731 1182 732 1055T734 805T733 553T727 271Q724 119 653 53T419 -14ZM419
123Q503 123 535 153T569 266Q573 420 575 549T577 799T575 1049T569 1334Q568 1416 536 1447T419 1478Q335 1478 303 1447T268 1334Q264 1183 263 1055T261 806T262 555T268 266Q270 184 302 154T419 123ZM213 1681L364 1915H471L623 1681H506L418 1824L331 1681H213Z"
/>
<glyph unicode="&#xd5;" horiz-adv-x="840" d="M419 -14Q256 -14 184 52T110 271Q108 423 107 552T106 804T107 1054T110 1328Q112 1481 184 1547T419 1614Q581 1614 652 1548T727 1328Q731 1182 732 1055T734 805T733 553T727 271Q724 119 653 53T419 -14ZM419
123Q503 123 535 153T569 266Q573 420 575 549T577 799T575 1049T569 1334Q568 1416 536 1447T419 1478Q335 1478 303 1447T268 1334Q264 1183 263 1055T261 806T262 555T268 266Q270 184 302 154T419 123ZM566 1853H643Q642 1769 607 1730T509 1690Q470 1690 447
1702T406 1732T373 1761T331 1773Q310 1773 295 1759T273 1701H196Q203 1793 241 1829T338 1866Q379 1866 402 1854T441 1825T472 1796T512 1783Q542 1783 553 1802T566 1853Z" />
<glyph unicode="&#xd6;" horiz-adv-x="840" d="M419 -14Q256 -14 184 52T110 271Q108 423 107 552T106 804T107 1054T110 1328Q112 1481 184 1547T419 1614Q581 1614 652 1548T727 1328Q731 1182 732 1055T734 805T733 553T727 271Q724 119 653 53T419 -14ZM419
123Q503 123 535 153T569 266Q573 420 575 549T577 799T575 1049T569 1334Q568 1416 536 1447T419 1478Q335 1478 303 1447T268 1334Q264 1183 263 1055T261 806T262 555T268 266Q270 184 302 154T419 123ZM469 1710V1844H603V1710H469ZM235 1710V1844H369V1710H235Z"
/>
<glyph unicode="&#xd7;" horiz-adv-x="838" d="M196 473L106 560L328 767L106 973L196 1059L420 852L643 1059L733 973L511 767L733 560L643 473L420 681L196 473Z" />
<glyph unicode="&#xd8;" horiz-adv-x="840" d="M419 -14Q256 -14 184 52T110 271Q108 423 107 552T106 804T107 1054T110 1328Q112 1481 184 1547T419 1614Q581 1614 652 1548T727 1328Q731 1182 732 1055T734 805T733 553T727 271Q724 119 653 53T419 -14ZM419
123Q503 123 535 153T569 266Q572 408 574 524T576 748T576 977L265 384Q266 354 266 325T268 266Q270 184 302 154T419 123ZM262 615L572 1205Q572 1237 571 1269T569 1334Q568 1416 536 1447T419 1478Q335 1478 303 1447T268 1334Q265 1193 263 1076T261 849T262
615Z" />
<glyph unicode="&#xd9;" horiz-adv-x="827" d="M414 -14Q251 -14 181 50T107 258Q103 596 103 929T107 1600H266Q264 1375 263 1149T263 697T264 246Q264 180 297 153T414 125Q496 125 529 152T562 246Q563 471 564 697T565 1149T562 1600H720Q724 1262 724 929T720
258Q719 114 648 50T414 -14ZM341 1680L175 1914H302L459 1680H341Z" />
<glyph unicode="&#xda;" horiz-adv-x="827" d="M414 -14Q251 -14 181 50T107 258Q103 596 103 929T107 1600H266Q264 1375 263 1149T263 697T264 246Q264 180 297 153T414 125Q496 125 529 152T562 246Q563 471 564 697T565 1149T562 1600H720Q724 1262 724 929T720
258Q719 114 648 50T414 -14ZM364 1680L530 1914H657L483 1680H364Z" />
<glyph unicode="&#xdb;" horiz-adv-x="827" d="M414 -14Q251 -14 181 50T107 258Q103 596 103 929T107 1600H266Q264 1375 263 1149T263 697T264 246Q264 180 297 153T414 125Q496 125 529 152T562 246Q563 471 564 697T565 1149T562 1600H720Q724 1262 724 929T720
258Q719 114 648 50T414 -14ZM207 1681L358 1915H465L617 1681H500L412 1824L325 1681H207Z" />
<glyph unicode="&#xdc;" horiz-adv-x="827" d="M414 -14Q251 -14 181 50T107 258Q103 596 103 929T107 1600H266Q264 1375 263 1149T263 697T264 246Q264 180 297 153T414 125Q496 125 529 152T562 246Q563 471 564 697T565 1149T562 1600H720Q724 1262 724 929T720
258Q719 114 648 50T414 -14ZM463 1710V1844H597V1710H463ZM229 1710V1844H363V1710H229Z" />
<glyph unicode="&#xdd;" horiz-adv-x="729" d="M284 0V555H233L41 1600H202L272 1148L334 691H395L454 1148L525 1600H688L494 555H443V0H284ZM314 1680L480 1914H607L433 1680H314Z" />
<glyph unicode="&#xde;" horiz-adv-x="737" d="M106 0V1600H264V1309H389Q539 1309 606 1249T679 1050Q683 916 683 810T679 593Q673 454 606 394T388 334H264V0H106ZM264 477H388Q460 477 489 502T520 587Q523 673 524 747T526 896T520 1056Q517 1115 489 1140T389
1166H264V477Z" />
<glyph unicode="&#xdf;" horiz-adv-x="784" d="M106 0V1318Q106 1406 131 1469T222 1566T411 1600Q569 1600 638 1536T710 1322Q712 1243 712 1177T709 1034Q704 942 669 893T569 823V791Q643 771 680 720T722 573Q724 530 724 481T725 381T722 279Q718 174 683
113T580 26T412 0H363V142H412Q481 142 519 173T560 281Q564 361 564 428T560 569Q557 669 517 702T404 735H368V878H399Q470 878 508 914T548 1035Q551 1099 551 1142T551 1228T548 1338Q546 1409 513 1438T408 1467Q326 1467 298 1434T269 1340V0H106Z" />
<glyph unicode="&#xe0;" horiz-adv-x="779" d="M317 -13Q206 -13 145 45T75 223Q74 248 73 272T73 322Q77 394 99 451T172 555T310 644Q357 667 411 690T517 730V968Q517 1034 490 1063T391 1092Q331 1092 295 1067T256 978Q254 948 254 910T254 837T256 783H100Q99
826 98 871T98 958Q102 1046 132 1103T226 1187T398 1215Q505 1215 565 1187T649 1096T674 936L673 0H514V111H492Q466 53 431 20T317 -13ZM359 107Q416 107 455 136T515 220L517 595Q477 583 435 564T341 513Q276 476 256 430T233 322Q232 295 232 274T234 232Q239
174 271 141T359 107ZM300 1280L134 1514H261L418 1280H300Z" />
<glyph unicode="&#xe1;" horiz-adv-x="779" d="M317 -13Q206 -13 145 45T75 223Q74 248 73 272T73 322Q77 394 99 451T172 555T310 644Q357 667 411 690T517 730V968Q517 1034 490 1063T391 1092Q331 1092 295 1067T256 978Q254 948 254 910T254 837T256 783H100Q99
826 98 871T98 958Q102 1046 132 1103T226 1187T398 1215Q505 1215 565 1187T649 1096T674 936L673 0H514V111H492Q466 53 431 20T317 -13ZM359 107Q416 107 455 136T515 220L517 595Q477 583 435 564T341 513Q276 476 256 430T233 322Q232 295 232 274T234 232Q239
174 271 141T359 107ZM323 1280L489 1514H616L442 1280H323Z" />
<glyph unicode="&#xe2;" horiz-adv-x="779" d="M317 -13Q206 -13 145 45T75 223Q74 248 73 272T73 322Q77 394 99 451T172 555T310 644Q357 667 411 690T517 730V968Q517 1034 490 1063T391 1092Q331 1092 295 1067T256 978Q254 948 254 910T254 837T256 783H100Q99
826 98 871T98 958Q102 1046 132 1103T226 1187T398 1215Q505 1215 565 1187T649 1096T674 936L673 0H514V111H492Q466 53 431 20T317 -13ZM359 107Q416 107 455 136T515 220L517 595Q477 583 435 564T341 513Q276 476 256 430T233 322Q232 295 232 274T234 232Q239
174 271 141T359 107ZM166 1281L317 1515H424L576 1281H459L371 1424L284 1281H166Z" />
<glyph unicode="&#xe3;" horiz-adv-x="779" d="M317 -13Q206 -13 145 45T75 223Q74 248 73 272T73 322Q77 394 99 451T172 555T310 644Q357 667 411 690T517 730V968Q517 1034 490 1063T391 1092Q331 1092 295 1067T256 978Q254 948 254 910T254 837T256 783H100Q99
826 98 871T98 958Q102 1046 132 1103T226 1187T398 1215Q505 1215 565 1187T649 1096T674 936L673 0H514V111H492Q466 53 431 20T317 -13ZM359 107Q416 107 455 136T515 220L517 595Q477 583 435 564T341 513Q276 476 256 430T233 322Q232 295 232 274T234 232Q239
174 271 141T359 107ZM519 1453H596Q595 1369 560 1330T462 1290Q423 1290 400 1302T359 1332T326 1361T284 1373Q263 1373 248 1359T226 1301H149Q156 1393 194 1429T291 1466Q332 1466 355 1454T394 1425T425 1396T465 1383Q495 1383 506 1402T519 1453Z" />
<glyph unicode="&#xe4;" horiz-adv-x="779" d="M317 -13Q206 -13 145 45T75 223Q74 248 73 272T73 322Q77 394 99 451T172 555T310 644Q357 667 411 690T517 730V968Q517 1034 490 1063T391 1092Q331 1092 295 1067T256 978Q254 948 254 910T254 837T256 783H100Q99
826 98 871T98 958Q102 1046 132 1103T226 1187T398 1215Q505 1215 565 1187T649 1096T674 936L673 0H514V111H492Q466 53 431 20T317 -13ZM359 107Q416 107 455 136T515 220L517 595Q477 583 435 564T341 513Q276 476 256 430T233 322Q232 295 232 274T234 232Q239
174 271 141T359 107ZM422 1310V1444H556V1310H422ZM188 1310V1444H322V1310H188Z" />
<glyph unicode="&#xe5;" horiz-adv-x="779" d="M317 -13Q206 -13 145 45T75 223Q74 248 73 272T73 322Q77 394 99 451T172 555T310 644Q357 667 411 690T517 730V968Q517 1034 490 1063T391 1092Q331 1092 295 1067T256 978Q254 948 254 910T254 837T256 783H100Q99
826 98 871T98 958Q102 1046 132 1103T226 1187T398 1215Q505 1215 565 1187T649 1096T674 936L673 0H514V111H492Q466 53 431 20T317 -13ZM359 107Q416 107 455 136T515 220L517 595Q477 583 435 564T341 513Q276 476 256 430T233 322Q232 295 232 274T234 232Q239
174 271 141T359 107ZM373 1270Q306 1270 257 1319T207 1437Q207 1504 256 1553T373 1603Q441 1603 490 1554T540 1437Q540 1368 491 1319T373 1270ZM373 1366Q402 1366 423 1387T445 1437Q445 1466 424 1487T373 1508Q345 1508 324 1487T303 1437Q303 1409 324
1388T373 1366Z" />
<glyph unicode="&#xe6;" horiz-adv-x="1154" d="M296 -13Q198 -13 142 43T75 221Q72 254 72 272T73 322Q80 432 145 498T300 610Q347 633 396 654T496 694Q496 740 496 785T496 876T496 968Q496 992 491 1021T460 1071T373 1092Q310 1092 285 1064T255 973Q254
954 253 919T252 846T255 783H98Q97 807 96 841T95 909T97 963Q101 1051 130 1106T219 1188T376 1215Q451 1215 500 1201T580 1162Q615 1188 666 1201T786 1215Q930 1215 999 1156T1073 958Q1073 942 1074 894T1075 785T1075 669T1071 583H657Q657 494 657 407T657
230Q657 161 690 136T790 110Q860 110 886 137T916 230Q916 262 917 297T914 420H1071Q1074 389 1074 334T1073 247Q1067 107 1003 46T792 -15Q682 -15 617 15T523 111H508Q482 50 427 19T296 -13ZM351 107Q385 107 418 123T473 182T498 306Q498 353 497 424T496
572Q460 560 418 540T335 493Q281 458 258 420T232 322Q231 293 231 277T234 232Q240 178 264 143T351 107ZM657 705H916Q918 784 918 860T916 973Q913 1036 883 1064T786 1092Q721 1092 689 1064T657 973Q657 906 657 839T657 705Z" />
<glyph unicode="&#xe7;" horiz-adv-x="770" d="M527 783Q529 816 529 849T529 914T528 973Q527 1039 496 1065T392 1091Q318 1091 288 1065T255 972Q252 879 251 788T250 605T251 420T255 230Q257 162 289 136T393 109Q466 109 496 136T528 231Q529 273 529 317T527
420H684Q687 384 687 333T686 246Q681 107 614 46T393 -15Q236 -15 168 46T94 246Q92 318 91 407T89 593T90 781T94 952Q101 1093 170 1154T392 1215Q546 1215 614 1155T686 957Q688 916 688 869T684 783H527ZM240 -301V-205H289Q337 -205 354 -183T359 -109L332
7H437L464 -109Q483 -206 440 -253T290 -301H240Z" />
<glyph unicode="&#xe8;" horiz-adv-x="768" d="M396 -15Q238 -15 170 47T94 247Q92 319 91 408T89 593T90 781T94 951Q101 1093 171 1154T394 1215Q547 1215 614 1153T687 958Q688 935 688 871T689 725T685 569H250Q250 486 251 402T254 230Q256 162 289 136T393
110Q464 110 494 136T528 230Q530 260 530 312T526 420H685Q687 386 688 333T687 247Q680 107 615 46T396 -15ZM250 691H530Q531 747 531 804T531 907T528 971Q524 1039 492 1065T394 1092Q318 1092 287 1062T254 971Q253 903 252 833T250 691ZM317 1280L151 1514H278L435
1280H317Z" />
<glyph unicode="&#xe9;" horiz-adv-x="768" d="M396 -15Q238 -15 170 47T94 247Q92 319 91 408T89 593T90 781T94 951Q101 1093 171 1154T394 1215Q547 1215 614 1153T687 958Q688 935 688 871T689 725T685 569H250Q250 486 251 402T254 230Q256 162 289 136T393
110Q464 110 494 136T528 230Q530 260 530 312T526 420H685Q687 386 688 333T687 247Q680 107 615 46T396 -15ZM250 691H530Q531 747 531 804T531 907T528 971Q524 1039 492 1065T394 1092Q318 1092 287 1062T254 971Q253 903 252 833T250 691ZM340 1280L506 1514H633L459
1280H340Z" />
<glyph unicode="&#xea;" horiz-adv-x="768" d="M396 -15Q238 -15 170 47T94 247Q92 319 91 408T89 593T90 781T94 951Q101 1093 171 1154T394 1215Q547 1215 614 1153T687 958Q688 935 688 871T689 725T685 569H250Q250 486 251 402T254 230Q256 162 289 136T393
110Q464 110 494 136T528 230Q530 260 530 312T526 420H685Q687 386 688 333T687 247Q680 107 615 46T396 -15ZM250 691H530Q531 747 531 804T531 907T528 971Q524 1039 492 1065T394 1092Q318 1092 287 1062T254 971Q253 903 252 833T250 691ZM183 1281L334 1515H441L593
1281H476L388 1424L301 1281H183Z" />
<glyph unicode="&#xeb;" horiz-adv-x="768" d="M396 -15Q238 -15 170 47T94 247Q92 319 91 408T89 593T90 781T94 951Q101 1093 171 1154T394 1215Q547 1215 614 1153T687 958Q688 935 688 871T689 725T685 569H250Q250 486 251 402T254 230Q256 162 289 136T393
110Q464 110 494 136T528 230Q530 260 530 312T526 420H685Q687 386 688 333T687 247Q680 107 615 46T396 -15ZM250 691H530Q531 747 531 804T531 907T528 971Q524 1039 492 1065T394 1092Q318 1092 287 1062T254 971Q253 903 252 833T250 691ZM439 1310V1444H573V1310H439ZM205
1310V1444H339V1310H205Z" />
<glyph unicode="&#xec;" horiz-adv-x="381" d="M111 0V1200H270V0H111ZM118 1280L-48 1514H79L236 1280H118Z" />
<glyph unicode="&#xed;" horiz-adv-x="381" d="M111 0V1200H270V0H111ZM141 1280L307 1514H434L260 1280H141Z" />
<glyph unicode="&#xee;" horiz-adv-x="381" d="M111 0V1200H270V0H111ZM240 1281L391 1515H498L650 1281H533L445 1424L358 1281H240Z" />
<glyph unicode="&#xef;" horiz-adv-x="381" d="M111 0V1200H270V0H111ZM496 1310V1444H630V1310H496ZM262 1310V1444H396V1310H262Z" />
<glyph unicode="&#xf0;" horiz-adv-x="807" d="M409 -17Q249 -17 177 49T97 269Q94 342 93 429T93 618T97 835Q99 959 161 1024T330 1089Q393 1089 442 1065T512 1003H533Q520 1067 500 1123T452 1226L306 1160L262 1245L394 1304Q355 1357 307 1399T201 1478L286
1614Q364 1562 428 1507T540 1382L697 1452L741 1367L594 1301Q652 1199 681 1069T713 771Q714 693 714 607T714 433T713 267Q711 167 680 104T582 12T409 -17ZM409 118Q480 118 515 148T552 242Q554 335 554 427T554 621T551 848Q549 901 504 929T391 958Q321
958 290 925T256 827Q255 728 255 622T256 418T259 244Q261 174 299 146T409 118Z" />
<glyph unicode="&#xf1;" horiz-adv-x="832" d="M111 0V1200H271V1090H306Q340 1152 387 1183T508 1215Q619 1215 672 1155T727 962V0H568V974Q567 1038 539 1066T450 1094Q392 1094 342 1063T271 977V0H111ZM568 1453H645Q644 1369 609 1330T511 1290Q472 1290
449 1302T408 1332T375 1361T333 1373Q312 1373 297 1359T275 1301H198Q205 1393 243 1429T340 1466Q381 1466 404 1454T443 1425T474 1396T514 1383Q544 1383 555 1402T568 1453Z" />
<glyph unicode="&#xf2;" horiz-adv-x="795" d="M398 -15Q290 -15 225 13T130 104T95 266Q92 327 91 410T89 586T90 768T95 933Q100 1036 130 1097T225 1187T398 1215Q508 1215 572 1187T665 1096T700 933Q703 865 704 781T706 608T705 430T700 266Q695 166 665
104T571 14T398 -15ZM398 109Q477 109 508 139T541 233Q544 324 546 414T548 596T547 781T541 968Q539 1035 507 1063T398 1091Q321 1091 288 1062T253 965Q250 885 248 796T246 613T247 424T253 236Q256 168 288 139T398 109ZM325 1280L159 1514H286L443 1280H325Z"
/>
<glyph unicode="&#xf3;" horiz-adv-x="795" d="M398 -15Q290 -15 225 13T130 104T95 266Q92 327 91 410T89 586T90 768T95 933Q100 1036 130 1097T225 1187T398 1215Q508 1215 572 1187T665 1096T700 933Q703 865 704 781T706 608T705 430T700 266Q695 166 665
104T571 14T398 -15ZM398 109Q477 109 508 139T541 233Q544 324 546 414T548 596T547 781T541 968Q539 1035 507 1063T398 1091Q321 1091 288 1062T253 965Q250 885 248 796T246 613T247 424T253 236Q256 168 288 139T398 109ZM348 1280L514 1514H641L467 1280H348Z"
/>
<glyph unicode="&#xf4;" horiz-adv-x="795" d="M398 -15Q290 -15 225 13T130 104T95 266Q92 327 91 410T89 586T90 768T95 933Q100 1036 130 1097T225 1187T398 1215Q508 1215 572 1187T665 1096T700 933Q703 865 704 781T706 608T705 430T700 266Q695 166 665
104T571 14T398 -15ZM398 109Q477 109 508 139T541 233Q544 324 546 414T548 596T547 781T541 968Q539 1035 507 1063T398 1091Q321 1091 288 1062T253 965Q250 885 248 796T246 613T247 424T253 236Q256 168 288 139T398 109ZM191 1281L342 1515H449L601 1281H484L396
1424L309 1281H191Z" />
<glyph unicode="&#xf5;" horiz-adv-x="795" d="M398 -15Q290 -15 225 13T130 104T95 266Q92 327 91 410T89 586T90 768T95 933Q100 1036 130 1097T225 1187T398 1215Q508 1215 572 1187T665 1096T700 933Q703 865 704 781T706 608T705 430T700 266Q695 166 665
104T571 14T398 -15ZM398 109Q477 109 508 139T541 233Q544 324 546 414T548 596T547 781T541 968Q539 1035 507 1063T398 1091Q321 1091 288 1062T253 965Q250 885 248 796T246 613T247 424T253 236Q256 168 288 139T398 109ZM544 1453H621Q620 1369 585 1330T487
1290Q448 1290 425 1302T384 1332T351 1361T309 1373Q288 1373 273 1359T251 1301H174Q181 1393 219 1429T316 1466Q357 1466 380 1454T419 1425T450 1396T490 1383Q520 1383 531 1402T544 1453Z" />
<glyph unicode="&#xf6;" horiz-adv-x="795" d="M398 -15Q290 -15 225 13T130 104T95 266Q92 327 91 410T89 586T90 768T95 933Q100 1036 130 1097T225 1187T398 1215Q508 1215 572 1187T665 1096T700 933Q703 865 704 781T706 608T705 430T700 266Q695 166 665
104T571 14T398 -15ZM398 109Q477 109 508 139T541 233Q544 324 546 414T548 596T547 781T541 968Q539 1035 507 1063T398 1091Q321 1091 288 1062T253 965Q250 885 248 796T246 613T247 424T253 236Q256 168 288 139T398 109ZM447 1310V1444H581V1310H447ZM213
1310V1444H347V1310H213Z" />
<glyph unicode="&#xf7;" horiz-adv-x="978" d="M106 702V831H872V702H106ZM410 937V1091H570V937H410ZM410 442V595H570V442H410Z" />
<glyph unicode="&#xf8;" horiz-adv-x="795" d="M142 295L633 962L696 876L173 179L142 295ZM398 -15Q290 -15 225 13T130 104T95 266Q92 327 91 410T89 586T90 768T95 933Q100 1036 130 1097T225 1187T398 1215Q508 1215 572 1187T665 1096T700 933Q703 865 704
781T706 608T705 430T700 266Q695 166 665 104T571 14T398 -15ZM398 109Q477 109 508 139T541 233Q544 324 546 414T548 596T547 781T541 968Q539 1035 507 1063T398 1091Q321 1091 288 1062T253 965Q250 885 248 796T246 613T247 424T253 236Q256 168 288 139T398
109Z" />
<glyph unicode="&#xf9;" horiz-adv-x="829" d="M326 -15Q217 -15 160 45T103 240V1200H264L265 227Q265 163 291 135T378 107Q437 107 486 138T556 224V1200H717V0H556V111H528Q493 46 443 16T326 -15ZM336 1280L170 1514H297L454 1280H336Z" />
<glyph unicode="&#xfa;" horiz-adv-x="829" d="M326 -15Q217 -15 160 45T103 240V1200H264L265 227Q265 163 291 135T378 107Q437 107 486 138T556 224V1200H717V0H556V111H528Q493 46 443 16T326 -15ZM358 1280L524 1514H651L477 1280H358Z" />
<glyph unicode="&#xfb;" horiz-adv-x="829" d="M326 -15Q217 -15 160 45T103 240V1200H264L265 227Q265 163 291 135T378 107Q437 107 486 138T556 224V1200H717V0H556V111H528Q493 46 443 16T326 -15ZM201 1281L352 1515H459L611 1281H494L406 1424L319 1281H201Z" />
<glyph unicode="&#xfc;" horiz-adv-x="829" d="M326 -15Q217 -15 160 45T103 240V1200H264L265 227Q265 163 291 135T378 107Q437 107 486 138T556 224V1200H717V0H556V111H528Q493 46 443 16T326 -15ZM457 1310V1444H591V1310H457ZM223 1310V1444H357V1310H223Z" />
<glyph unicode="&#xfd;" horiz-adv-x="723" d="M190 -410Q162 -410 119 -406T45 -398V-275Q72 -278 113 -280T187 -283Q268 -283 297 -257T338 -160L366 0H232L54 1200H220L283 622L343 122H402L463 622L522 1200H688L499 -150Q486 -238 455 -295T361 -381T190
-410ZM318 1280L484 1514H611L437 1280H318Z" />
<glyph unicode="&#xfe;" horiz-adv-x="829" d="M106 -400V1600H268V1090H296Q330 1153 373 1184T498 1215Q606 1215 660 1156T720 962Q722 901 723 805T724 601T723 398T720 238Q715 104 657 45T491 -15Q423 -15 378 14T296 111H268V-400H106ZM436 107Q496 107
525 135T558 227Q562 307 564 405T566 606T564 805T558 977Q555 1039 530 1066T444 1094Q380 1094 335 1065T268 977V224Q291 159 331 133T436 107Z" />
<glyph unicode="&#xff;" horiz-adv-x="723" d="M190 -410Q162 -410 119 -406T45 -398V-275Q72 -278 113 -280T187 -283Q268 -283 297 -257T338 -160L366 0H232L54 1200H220L283 622L343 122H402L463 622L522 1200H688L499 -150Q486 -238 455 -295T361 -381T190
-410ZM417 1310V1444H551V1310H417ZM183 1310V1444H317V1310H183Z" />
<glyph unicode="&#x2013;" horiz-adv-x="893" d="M60 687V830H833V687H60Z" />
<glyph unicode="&#x2014;" horiz-adv-x="1480" d="M60 687V830H1420V687H60Z" />
<glyph unicode="&#x2018;" horiz-adv-x="469" d="M93 1186V1365L213 1600H321L224 1383H376V1186H93Z" />
<glyph unicode="&#x2019;" horiz-adv-x="469" d="M148 1186L245 1404H93V1600H376V1422L256 1186H148Z" />
<glyph unicode="&#x201a;" horiz-adv-x="469" d="M127 -217L223 0H71V196H355V18L234 -217H127Z" />
<glyph unicode="&#x201c;" horiz-adv-x="735" d="M405 1186V1365L518 1600H618L530 1383H665V1186H405ZM70 1186V1365L182 1600H284L195 1383H329V1186H70Z" />
<glyph unicode="&#x201d;" horiz-adv-x="735" d="M117 1186L204 1404H70V1600H329V1422L217 1186H117ZM452 1186L541 1404H405V1600H665V1422L554 1186H452Z" />
<glyph unicode="&#x201e;" horiz-adv-x="877" d="M127 -217L223 0H71V196H355V18L234 -217H127ZM524 -217L620 0H468V196H752V18L631 -217H524Z" />
<glyph unicode="&#x2022;" horiz-adv-x="530" d="M93 659V961H437V659H93Z" />
<glyph unicode="&#x2039;" horiz-adv-x="457" d="M364 846L60 542V703L364 1007V846ZM364 239L60 542V703L364 399V239Z" />
<glyph unicode="&#x203a;" horiz-adv-x="457" d="M93 846V1007L397 703V542L93 846ZM93 239V399L397 703V542L93 239Z" />
</font>
</defs>
</svg>
