<?xml version="1.0" standalone="no"?>
<!DOCTYPE svg PUBLIC "-//W3C//DTD SVG 1.1//EN" "http://www.w3.org/Graphics/SVG/1.1/DTD/svg11.dtd">
<svg xmlns="http://www.w3.org/2000/svg">
<defs >
<font id="MateSC" horiz-adv-x="533" ><font-face
    font-family="Mate SC"
    units-per-em="1000"
    panose-1="0 0 0 0 0 0 0 0 0 0"
    ascent="958"
    descent="-262"
    alphabetic="0" />
<glyph unicode=" " glyph-name="space" horiz-adv-x="235" />
<glyph unicode="!" glyph-name="exclam" horiz-adv-x="257" d="M123 695H179L137 172H104L77 433L123 695ZM138 95Q158 95 166 80T174 45Q174 28 171 12T167 -4Q167 -4 147 -8T110 -12Q88 -12 81 3T73 37Q73 56 77 72T81 89Q81 89 101 92T138 95Z" />
<glyph unicode="&quot;" glyph-name="quotedbl" horiz-adv-x="300" d="M102 474H75Q70 493 64 530T54 613T50 699Q50 705 62 708T87 712Q101 712 113 709T125 699Q125 659 122 614T113 531T102 474ZM227 474H200Q195 493 189 530T179 613T175 699Q175 705 187
708T212 712Q226 712 238 709T250 699Q250 659 247 614T238 531T227 474Z" />
<glyph unicode="#" glyph-name="numbersign" horiz-adv-x="510" d="M48 330L68 387H182L241 554H298L239 387H344L403 554H460L401 387H508L488 330H381L345 225H462L442 168H325L266 0H209L268 168H163L104 0H47L106 168H2L22 225H126L162 330H48ZM219 330L183
225H288L324 330H219Z" />
<glyph unicode="$" glyph-name="dollar" horiz-adv-x="510" d="M247 -88H207L212 -10Q181 -6 148 3T76 28Q76 33 79 53T86 96T93 137T97 154Q101 154 110 153T129 148T138 138V65Q154 57 175 51T216 42L230 248L171 282Q129 306 109 341T88 413Q88 449 107 481T162
535T251 561L256 627H296L291 561Q356 556 418 524Q417 519 413 499T404 456T394 415T389 398Q386 398 376 399T358 404T349 414L353 487Q339 495 322 500T288 508L274 312L347 271Q394 245 417 207T441 135Q441 88 417 55T349 6T252 -12L247 -88ZM159 428Q159
397 176 378T213 347L236 334L248 508Q208 504 184 484T159 428ZM308 203L268 226L256 39Q306 39 333 64T360 123Q360 145 347 166T308 203Z" />
<glyph unicode="%" glyph-name="percent" horiz-adv-x="751" d="M193 -56L500 685H559L252 -56H193ZM167 296Q109 296 70 338T30 469Q30 553 72 597T174 641Q231 641 272 600T314 474Q314 384 273 340T167 296ZM172 338Q207 338 222 370T238 468Q238 534 223 566T172
598Q137 598 122 566T106 468Q106 402 121 370T172 338ZM574 -12Q516 -12 477 30T437 161Q437 245 479 289T581 333Q638 333 679 292T721 166Q721 76 680 32T574 -12ZM579 30Q614 30 629 62T645 160Q645 226 630 258T579 290Q544 290 529 258T513 160Q513 94 528
62T579 30Z" />
<glyph unicode="&amp;" glyph-name="ampersand" horiz-adv-x="580" d="M230 611Q210 580 210 543Q210 515 220 488T249 433L416 176Q442 215 456 255T471 328L403 363Q398 366 398 374Q398 382 403 394T409 407Q412 407 430 402T471 390T514 376T539 367Q533 315
510 252T446 131L496 55L580 31Q580 26 578 13T564 0H436L391 68Q354 31 308 9T208 -13Q141 -13 97 10T30 72T7 155Q7 213 43 272T152 373L182 390Q163 421 148 456T133 525Q133 583 157 617T221 666T309 681Q356 681 403 670T488 641L462 492Q458 492 447 492T427
496T417 506V610Q394 618 369 623T319 628Q296 628 274 624T230 611ZM215 45Q257 45 294 63T363 111L206 353L169 329Q126 301 105 261T83 180Q83 145 98 114T143 64T215 45Z" />
<glyph unicode="&apos;" glyph-name="quotesingle" horiz-adv-x="175" d="M102 474H75Q70 493 64 530T54 613T50 699Q50 705 62 708T87 712Q101 712 113 709T125 699Q125 659 122 614T113 531T102 474Z" />
<glyph unicode="(" glyph-name="parenleft" horiz-adv-x="247" d="M229 -237L198 -241Q148 -186 114 -112T62 45T44 214Q44 313 66 409T133 588T243 728L270 716Q231 670 204 610T159 483T133 346T125 214Q125 133 138 49T174 -109T229 -237Z" />
<glyph unicode=")" glyph-name="parenright" horiz-adv-x="247" d="M18 724L49 728Q100 673 134 600T185 442T203 273Q203 175 181 78T114 -101T4 -241L-23 -229Q16 -183 43 -123T88 4T114 141T122 273Q122 354 109 438T73 597T18 724Z" />
<glyph unicode="*" glyph-name="asterisk" horiz-adv-x="449" d="M239 551H209Q204 563 198 588T188 643T183 700Q183 706 196 709T223 712Q237 712 250 709T263 700Q263 674 259 644T250 589T239 551ZM257 519L247 548Q255 554 274 565T315 589T356 609T382 617Q391
617 397 604T407 574T411 549Q411 542 392 536T345 527T292 521T257 519ZM203 545L193 516Q183 516 158 518T106 523T59 533T39 546Q39 554 42 570T53 600T68 614Q75 614 93 606T134 586T176 563T203 545ZM230 492L255 510Q266 504 285 487T326 448T363 405Q363
404 363 404T364 402Q364 395 352 384T326 364T303 355Q300 355 298 357Q283 379 269 405T244 456T230 492ZM197 509L222 490Q219 478 209 454T185 404T155 355Q153 353 150 353Q141 353 127 361T101 381T89 399Q89 401 90 402Q106 423 126 445T166 484T197 509Z"
/>
<glyph unicode="+" glyph-name="plus" horiz-adv-x="510" d="M73 249V306H226V459H283V306H437V249H283V95H226V249H73Z" />
<glyph unicode="," glyph-name="comma" horiz-adv-x="197" d="M115 121Q137 121 149 89T161 12Q161 -23 145 -55T98 -110T28 -142L19 -113Q58 -101 79 -75T101 -15V-11Q97 -12 93 -12T85 -12Q63 -12 56 7T48 49Q48 72 52 93T56 114Q56 114 74 117T115 121Z" />
<glyph unicode="-" glyph-name="hyphen" horiz-adv-x="390" d="M333 279L340 246Q311 232 264 226T167 220Q135 220 106 222T55 229L50 279H333Z" />
<glyph unicode="." glyph-name="period" horiz-adv-x="197" d="M113 121Q133 121 141 103T149 59Q149 37 146 17T142 -3Q142 -3 122 -7T85 -12Q63 -12 56 7T48 49Q48 72 52 93T56 114Q56 114 76 117T113 121Z" />
<glyph unicode="/" glyph-name="slash" horiz-adv-x="327" d="M-30 -50L303 750H357L24 -50H-30Z" />
<glyph unicode="0" glyph-name="zero" horiz-adv-x="510" d="M481 285Q481 185 451 119T368 21T247 -12Q185 -12 136 19T58 115T29 277Q29 370 60 433T143 530T259 563Q320 563 370 532T450 440T481 285ZM398 275Q398 397 362 455T255 513Q185 513 149 455T112
275Q112 154 148 96T255 37Q325 37 361 95T398 275Z" />
<glyph unicode="1" glyph-name="one" horiz-adv-x="510" d="M337 57L461 33Q461 28 459 14T445 0L284 4L121 0Q109 0 107 14T105 33L259 57V499L126 466Q119 466 113 477T104 501T100 518Q100 518 120 523T172 534T235 547T290 558T319 563Q325 560 331 553T337 532V57Z" />
<glyph unicode="2" glyph-name="two" horiz-adv-x="510" d="M427 415Q427 356 399 308T324 217T225 133L110 43L111 39L398 64V142Q398 150 406 153T425 157T439 158Q439 158 442 139T450 93T458 43T462 14Q461 7 456 4T438 0H52L29 32L213 196Q243 223 273 254T323
325T343 410Q343 467 310 490T233 513Q208 513 182 506T135 487L139 414Q139 408 131 405T113 400T99 398Q99 398 95 415T85 455T75 499T70 524Q100 541 145 552T235 563Q282 563 326 549T398 503T427 415Z" />
<glyph unicode="3" glyph-name="three" horiz-adv-x="510" d="M190 238L184 272Q240 279 275 301T328 354T345 415Q345 453 318 483T241 513Q190 513 148 487L152 414Q152 408 144 405T126 400T112 398Q112 398 108 415T98 455T88 499T83 524Q115 541 158 552T245
563Q290 563 331 549T400 503T427 418Q427 366 389 325T295 264Q372 251 413 206T454 107Q454 52 424 13T346 -47T245 -68Q193 -68 143 -57T56 -29Q56 -24 60 -4T70 39T80 80T85 97Q88 97 97 96T115 91T124 81L121 8Q171 -19 226 -19Q265 -19 298 -6T353 35T374
105Q374 158 327 197T190 238Z" />
<glyph unicode="4" glyph-name="four" horiz-adv-x="510" d="M397 0L492 -23Q492 -28 490 -42T477 -56Q477 -56 472 -56T443 -55T359 -52Q308 -53 281 -54T241 -55T226 -56T223 -56Q212 -56 210 -42T208 -23L323 0V89H43Q30 89 23 92T15 105Q15 110 26 140T56
218L218 616L291 594L84 134H323V379Q323 380 333 382T357 386T379 388Q385 385 391 378T397 357V134H496V89H397V0Z" />
<glyph unicode="5" glyph-name="five" horiz-adv-x="510" d="M106 255L116 532L415 557Q428 557 434 555T442 543Q442 537 439 514T431 465T423 419T418 399Q415 399 405 399T387 403T378 415V493H180L158 288Q166 289 173 289T187 289Q285 289 343 263T428 196T454
107Q454 52 424 13T346 -47T245 -68Q193 -68 143 -57T55 -29Q55 -24 59 -4T69 39T79 80T84 97Q88 97 97 96T115 91T124 81L120 8Q145 -5 172 -12T226 -19Q265 -19 298 -6T352 35T373 105Q373 158 326 197T191 237Q163 237 135 232L106 255Z" />
<glyph unicode="6" glyph-name="six" horiz-adv-x="510" d="M394 673L421 632Q297 553 237 483T153 350H268Q321 350 366 331T440 273T468 175Q468 116 438 74T361 10T260 -12Q208 -12 160 12T80 88T49 220Q49 324 95 405T220 552T394 673ZM256 302Q227 302 197
298T137 287Q134 259 134 233Q134 142 169 91T257 40Q307 40 345 74T383 174Q383 225 367 252T321 291T256 302Z" />
<glyph unicode="7" glyph-name="seven" horiz-adv-x="510" d="M213 -68L133 -49L397 493H118V415Q118 407 110 404T92 400T78 399Q77 399 74 418T66 464T58 514T54 543Q56 552 62 554T81 557L423 537L441 564L469 546L213 -68Z" />
<glyph unicode="8" glyph-name="eight" horiz-adv-x="510" d="M47 159Q47 187 60 221T102 288T178 346Q130 375 100 417T69 517Q69 558 91 592T156 647T258 668Q312 668 353 648T418 593T441 514Q441 475 415 428T328 345Q362 325 393 299T444 237T465 155Q465
110 440 72T368 11T252 -12Q191 -12 145 10T73 72T47 159ZM148 517Q148 479 175 450T236 400L290 368Q328 398 344 437T361 509Q361 553 336 586T257 619Q205 619 177 591T148 517ZM302 270L218 321Q175 288 153 245T131 164Q131 113 160 75T253 37Q287 37 315
51T362 90T380 152Q380 196 356 224T302 270Z" />
<glyph unicode="9" glyph-name="nine" horiz-adv-x="510" d="M102 -97Q220 -8 278 64T358 198H251Q197 198 151 217T76 277T48 377Q48 435 78 476T155 540T254 563Q307 563 356 538T436 461T468 326Q468 246 440 180T364 59T256 -44T132 -133L102 -97ZM133 377Q133
319 162 280T267 240Q289 240 315 244T373 257Q375 272 376 287T378 317Q378 409 347 460T257 512Q206 512 170 478T133 377Z" />
<glyph unicode=":" glyph-name="colon" horiz-adv-x="197" d="M113 417Q133 417 141 399T149 355Q149 333 146 313T142 293Q142 293 122 289T85 284Q63 284 56 303T48 345Q48 368 52 389T56 410Q56 410 76 413T113 417ZM113 121Q133 121 141 103T149 59Q149 37
146 17T142 -3Q142 -3 122 -7T85 -12Q63 -12 56 7T48 49Q48 72 52 93T56 114Q56 114 76 117T113 121Z" />
<glyph unicode=";" glyph-name="semicolon" horiz-adv-x="197" d="M113 417Q133 417 141 399T149 355Q149 333 146 313T142 293Q142 293 122 289T85 284Q63 284 56 303T48 345Q48 368 52 389T56 410Q56 410 76 413T113 417ZM115 121Q137 121 149 89T161 12Q161
-23 145 -55T98 -110T28 -142L19 -113Q58 -101 79 -75T101 -15V-11Q97 -12 93 -12T85 -12Q63 -12 56 7T48 49Q48 72 52 93T56 114Q56 114 74 117T115 121Z" />
<glyph unicode="&lt;" glyph-name="less" horiz-adv-x="510" d="M437 87L73 249V306L437 468V408L138 277L437 147V87Z" />
<glyph unicode="=" glyph-name="equal" horiz-adv-x="510" d="M73 330V387H437V330H73ZM73 168V225H437V168H73Z" />
<glyph unicode="&gt;" glyph-name="greater" horiz-adv-x="510" d="M73 408V468L437 306V249L73 87V147L372 277L73 408Z" />
<glyph unicode="?" glyph-name="question" horiz-adv-x="430" d="M79 502L53 656Q113 671 169 671Q228 671 275 654T349 605T376 527Q376 491 359 457T315 391T263 331T220 279T202 234V184H168Q163 229 162 255T160 283Q161 301 182 329T231 390T282 457T311
522Q310 558 289 579T235 611T168 621Q155 621 144 620T121 617V516Q121 509 112 506T93 503T79 502ZM198 95Q218 95 226 80T234 45Q234 28 231 12T227 -4Q227 -4 207 -8T170 -12Q148 -12 141 3T133 37Q133 56 137 72T141 89Q141 89 161 92T198 95Z" />
<glyph unicode="@" glyph-name="at" horiz-adv-x="882" d="M832 301Q832 238 812 182T756 82T671 13T562 -12Q528 -12 512 2T493 51L442 27Q404 9 372 -1T317 -12Q280 -12 263 15T245 105Q245 202 269 266T333 370T417 430T506 462Q519 462 540 456T581 441L604
468H627Q618 426 608 376T589 275T573 180T561 105T557 65Q557 29 594 29Q639 29 671 54T722 120T751 207T761 295Q761 377 730 435T642 524T512 555Q443 555 384 530T276 460T193 361T140 244T121 123Q121 42 152 -15T239 -104T368 -135Q427 -135 486 -113T596
-50L643 -73Q581 -120 507 -146T357 -172Q266 -172 197 -138T89 -38T50 118Q50 189 73 258T140 387T243 494T373 566T523 592Q614 592 683 558T792 458T832 301ZM358 40Q372 40 389 45T425 60L495 92L549 405H474Q430 405 400 379T351 310T324 213T316 105Q316
69 327 55T358 40Z" />
<glyph unicode="A" glyph-name="A" horiz-adv-x="660" d="M124 52L219 30Q219 24 217 12T204 0Q204 0 199 0T171 1T93 4Q50 2 31 1T7 0T2 0Q-9 0 -11 12T-13 30L62 52L292 700H368L600 52L675 30Q675 25 673 13T660 0Q660 0 654 0T626 1T561 4Q507 2 482 1T450
0T442 0Q431 0 429 12T427 30L517 52L454 229L179 215L124 52ZM317 619L199 273H439L317 619Z" />
<glyph unicode="B" glyph-name="B" horiz-adv-x="612" d="M511 529Q511 482 484 440T402 374Q485 354 526 303T567 192Q567 140 543 96T472 26T360 0Q359 0 354 0T333 1T279 3T176 8L65 0Q54 0 52 12T50 30L134 52V648L50 670Q50 675 52 687T65 700Q65 700 71
700T99 699T168 696Q229 698 255 699T289 700T298 700Q369 700 416 675T487 611T511 529ZM285 662L205 648L214 384H296Q343 389 374 410T420 462T436 526Q436 561 419 592T369 642T285 662ZM334 44Q387 44 421 65T471 120T487 191Q487 230 469 266T412 325T316
348L214 336L205 58Q245 51 280 48T334 44Z" />
<glyph unicode="C" glyph-name="C" horiz-adv-x="642" d="M592 194L584 51Q552 23 490 6T363 -12Q271 -12 198 28T82 150T40 354Q40 471 86 551T209 671T379 712Q496 712 585 652L559 503Q555 503 544 503T524 507T514 517V628Q489 638 449 645T373 653Q336 653
297 646T229 629Q183 595 156 521T128 352Q128 247 160 178T248 75T373 41Q463 41 524 78L547 180Q549 187 558 189T578 193T592 194Z" />
<glyph unicode="D" glyph-name="D" horiz-adv-x="748" d="M134 648L50 670Q50 675 52 687T65 700Q65 700 73 700T105 699T176 696L380 712Q471 712 545 674T663 558T708 363Q708 237 664 155T542 34T364 -6L176 8L65 0Q54 0 52 12T50 30L134 52V648ZM374 41Q444
41 499 74T587 177T620 352Q620 455 588 522T500 624T374 658Q342 658 299 654T208 639L218 350L208 61Q249 52 291 47T374 41Z" />
<glyph unicode="E" glyph-name="E" horiz-adv-x="601" d="M473 555V649L208 646L217 382H473V339L217 326L208 55H483L509 149Q509 156 518 159T537 162T551 163L543 12Q542 4 536 2T514 0L170 8L65 0Q54 0 52 12T50 30L134 52V648L50 670Q50 675 52 687T65 700Q65
700 71 700T99 699T168 696L508 700Q522 700 530 699T540 690L516 541Q512 541 502 541T482 545T473 555Z" />
<glyph unicode="F" glyph-name="F" horiz-adv-x="550" d="M443 555V649L208 646L217 367L463 366V323L216 310L208 52L319 30Q319 25 317 13T304 0Q304 0 271 0T168 4Q121 2 99 1T71 0T65 0Q54 0 52 12T50 30L134 52V648L50 670Q50 675 52 687T65 700Q65 700 71
700T99 699T168 696L478 700Q492 700 500 699T510 690L486 541Q482 541 472 541T452 545T443 555Z" />
<glyph unicode="G" glyph-name="G" horiz-adv-x="665" d="M596 111L605 72Q544 28 481 8T353 -12Q264 -12 193 28T81 150T40 354Q40 471 86 551T209 671T379 712Q505 712 600 652L574 503Q570 503 559 503T539 507T529 517V628Q501 638 457 645T373 653Q336 653
297 646T229 629Q183 595 156 521T128 352Q128 247 159 178T243 75T363 41Q408 41 455 56T536 97L519 306L334 317V360H596V111Z" />
<glyph unicode="H" glyph-name="H" horiz-adv-x="789" d="M739 670L655 648V52L739 30Q739 25 737 13T724 0Q724 0 718 0T690 1T621 4Q575 2 553 1T523 0T516 0Q505 0 503 12T501 30L581 52L571 340L217 326L208 52L288 30Q288 25 286 13T273 0Q273 0 266 0T237
1T168 4Q121 2 99 1T71 0T65 0Q54 0 52 12T50 30L134 52V648L50 670Q50 675 52 687T65 700Q65 700 71 700T99 699T168 696Q215 698 237 699T266 700T273 700Q284 700 286 688T288 670L208 648L217 384H572L581 648L501 670Q501 675 503 687T516 700Q516 700 523
700T552 699T621 696Q668 698 690 699T718 700T724 700Q735 700 737 688T739 670Z" />
<glyph unicode="I" glyph-name="I" horiz-adv-x="345" d="M136 648L50 670Q50 675 52 687T65 700Q65 700 73 700T106 699T177 696Q224 698 245 699T273 700T280 700Q291 700 293 688T295 670L209 648L214 350L209 52L295 30Q295 25 293 13T280 0Q280 0 274 0T246
1T177 4Q130 2 106 1T74 0T65 0Q54 0 52 12T50 30L136 52L131 350L136 648Z" />
<glyph unicode="J" glyph-name="J" horiz-adv-x="315" d="M133 159V648L38 670Q38 675 40 687T54 700Q54 700 77 700T170 696Q217 698 241 699T273 700T281 700Q292 700 294 687T296 669L212 648V186Q212 83 161 -14T26 -204L-4 -183Q58 -102 95 -17T133 159Z" />
<glyph unicode="K" glyph-name="K" horiz-adv-x="623" d="M414 700L495 696L590 700Q599 701 601 688T604 670L537 648L371 357Q385 351 398 338T427 299L572 52L652 30Q652 25 650 13T637 0H506L345 295Q330 324 315 336L217 324L208 52L309 30Q309 25 307 13T294
0Q294 0 266 0T168 4Q121 2 99 1T71 0T65 0Q54 0 52 12T50 30L134 52V648L50 670Q50 675 52 687T65 700Q65 700 71 700T99 699T168 696Q215 698 237 699T266 700T273 700Q284 700 286 688T288 670L208 648L217 372H331L471 650L399 670Q399 675 401 687T414 700Z"
/>
<glyph unicode="L" glyph-name="L" horiz-adv-x="521" d="M135 648L49 670Q49 675 51 687T64 700Q64 700 72 700T105 699T176 696Q223 698 244 699T272 700T279 700Q290 700 292 688T294 670L208 648L213 350L208 55H443L469 149Q472 159 489 161T511 163L503
12Q502 -1 474 0L176 8L64 0Q53 0 51 12T49 30L135 52L130 350L135 648Z" />
<glyph unicode="M" glyph-name="M" horiz-adv-x="908" d="M138 4Q95 2 74 1T47 0T40 0Q29 0 27 12T25 30L110 52L141 647L59 669Q59 674 61 687T74 700Q74 700 109 700T236 696L445 184L676 696Q768 699 801 699T834 700Q845 700 847 687T849 669L767 647L798
52L883 30Q883 25 881 13T868 0Q868 0 842 0T750 4L637 0Q625 0 623 12T621 30L716 52L695 601L442 50H423L192 594L169 52L264 30Q264 24 262 12T248 0L138 4Z" />
<glyph unicode="N" glyph-name="N" horiz-adv-x="790" d="M615 648L510 670Q510 676 512 688T526 700L647 696Q691 698 709 699T731 700T735 700Q746 700 748 688T750 670L675 648L672 0H616L186 583L194 52L300 30Q300 24 298 12T284 0L163 4Q120 2 99 1T72 0T65
0Q54 0 52 12T50 30L132 52V647L50 669Q50 674 52 687T65 700Q65 700 73 700T110 699T200 696L621 126L615 648Z" />
<glyph unicode="O" glyph-name="O" horiz-adv-x="747" d="M707 363Q707 237 663 154T541 29T363 -12Q271 -12 198 28T82 150T40 354Q40 471 86 551T209 671T379 712Q470 712 544 674T662 558T707 363ZM128 352Q128 246 160 176T248 71T373 36Q443 36 498 71T586
176T619 352Q619 455 587 522T499 624T373 658Q336 658 297 651T229 634Q183 599 156 524T128 352Z" />
<glyph unicode="P" glyph-name="P" horiz-adv-x="563" d="M134 648L50 670Q50 675 52 687T65 700Q65 700 71 700T99 699T168 696L326 700Q391 700 437 673T508 600T533 497Q533 446 506 400T423 322T282 282L215 276L208 52L319 30Q319 25 317 13T304 0Q304 0
271 0T168 4Q121 2 99 1T71 0T65 0Q54 0 52 12T50 30L134 52V648ZM308 658L208 648L218 331L290 327Q351 327 388 352T443 417T461 498Q461 538 445 574T395 634T308 658Z" />
<glyph unicode="Q" glyph-name="Q" horiz-adv-x="747" d="M460 -212L368 -12Q273 -12 199 28T83 150T40 354Q40 471 86 551T209 671T379 712Q470 712 544 674T662 558T707 363Q707 250 672 172T573 49T426 -8L553 -210Q535 -221 520 -226T493 -231Q468 -231 460
-212ZM128 352Q128 246 160 176T248 71T373 36Q443 36 498 71T586 176T619 352Q619 455 587 522T499 624T373 658Q336 658 297 651T229 634Q183 599 156 524T128 352Z" />
<glyph unicode="R" glyph-name="R" horiz-adv-x="596" d="M134 648L50 670Q50 675 52 687T65 700Q65 700 71 700T99 699T168 696Q225 698 256 698T301 699T319 700T324 700Q387 700 431 674T499 604T523 508Q523 474 507 439T459 375T379 330Q390 323 402 311T427
276L555 52L635 30Q635 25 633 13T620 0H489L345 272Q327 304 310 316L216 301L208 52L309 30Q309 25 307 13T294 0Q294 0 266 0T168 4Q121 2 99 1T71 0T65 0Q54 0 52 12T50 30L134 52V648ZM298 658L208 648L217 358L280 354Q341 354 378 377T433 436T451 510Q451
547 435 580T385 636T298 658Z" />
<glyph unicode="S" glyph-name="S" horiz-adv-x="554" d="M504 170Q504 111 473 70T389 9T268 -12Q218 -12 166 -1T55 36Q57 52 60 79T68 135T75 182T78 201Q82 201 92 201T112 198T121 189V78Q153 58 195 47T276 36Q351 36 385 72T419 157Q419 182 405 212T348
267L171 368Q119 397 94 440T69 528Q69 575 95 617T173 685T298 712Q342 712 385 702T471 676L445 522Q441 522 431 522T412 526T403 536V637Q382 647 353 654T292 662Q250 662 210 645T144 587Q141 577 140 567T139 547Q139 504 162 478T214 435L386 337Q445 303
474 258T504 170Z" />
<glyph unicode="T" glyph-name="T" horiz-adv-x="563" d="M281 695L526 700Q540 700 548 699T558 690L547 533Q543 533 533 533T514 537T505 547L490 650L318 646L323 350L318 52L431 30Q431 25 429 13T416 0Q416 0 385 0T284 4Q214 1 181 1T147 0Q136 0 134 12T132
30L245 52L240 350L245 646L73 650L58 547Q57 540 49 537T30 534T16 533L5 690Q6 698 15 699T37 700L281 695Z" />
<glyph unicode="U" glyph-name="U" horiz-adv-x="733" d="M271 700Q283 700 285 688T287 670L192 648V215Q192 140 236 92T382 43Q449 43 491 67T554 132T575 216V648L480 670Q480 675 482 688T496 700L605 696Q641 698 657 698T678 699T683 700Q694 700 696 688T698
670L633 648V218Q633 150 603 98T517 17T380 -12Q258 -12 186 42T114 218V648L40 669Q40 674 42 687T55 700Q55 700 60 700T87 699T156 696Q226 699 248 699T271 700Z" />
<glyph unicode="V" glyph-name="V" horiz-adv-x="643" d="M237 670L153 648L338 95L516 648L431 670Q431 676 433 688T446 700Q446 700 446 700T446 700V700Q446 700 451 700T479 699T550 696Q600 698 614 699T628 700V700Q628 700 628 700T628 700Q639 699 641
687T643 670L578 648L360 0H290L65 648L0 670Q0 675 2 687T15 700Q15 700 22 700T50 699T115 696Q169 698 191 699T218 700T222 700Q233 700 235 688T237 670Z" />
<glyph unicode="W" glyph-name="W" horiz-adv-x="920" d="M237 670L152 648L297 113L463 651H498V584L645 113L794 648L709 670Q709 676 711 688T724 700L827 696Q877 698 891 699T905 700V700Q905 700 905 700T905 700Q916 698 918 687T920 670L855 648L675 0H599L460
447L323 0H247L65 648L0 670Q0 675 2 687T15 700Q15 700 22 700T50 699T115 696Q169 698 191 699T218 700T222 700Q233 700 235 688T237 670Z" />
<glyph unicode="X" glyph-name="X" horiz-adv-x="696" d="M416 30L508 52L339 305L162 52L254 30Q254 24 252 12T239 0L118 4Q61 1 45 1T29 0Q19 0 17 12T15 30L90 52L307 353L111 648L36 670Q36 675 38 687T51 700Q51 700 72 700T159 696Q213 698 235 699T262
700T266 700Q277 700 279 688T281 670L204 648L359 414L523 648L441 670Q441 676 443 688T456 700L567 696Q618 698 631 699T645 700V700Q645 700 645 700T645 700Q656 699 658 687T660 670L595 648L392 365L601 52L681 30Q681 25 679 13T666 0Q666 0 645 0T559
4Q505 2 478 1T441 0T431 0Q420 0 418 12T416 30Z" />
<glyph unicode="Y" glyph-name="Y" horiz-adv-x="580" d="M232 670L147 648L307 321L450 648L368 670Q368 676 370 688T383 700Q383 700 383 700T383 700V700Q383 700 388 700T416 699T487 696Q537 698 551 699T565 700V700Q565 700 565 700T565 700Q576 699 578
687T580 670L515 648L337 279V52L442 30Q442 25 440 13T427 0Q427 0 399 0T301 4Q231 1 200 1T169 0Q158 0 156 12T154 30L259 52V277L65 648L0 670Q0 675 2 687T15 700Q15 700 21 700T48 699T112 696Q166 698 188 699T213 700T217 700Q228 700 230 688T232 670Z"
/>
<glyph unicode="Z" glyph-name="Z" horiz-adv-x="611" d="M489 55V151Q489 158 498 161T517 164T531 165L556 12Q555 4 549 2T527 0L77 5L45 -12L28 8L456 642H146V551Q146 544 137 541T118 538T104 537L79 688Q80 700 100 700Q101 700 105 700T129 700T193 698T317
694T520 689L555 712L577 695L146 55H489Z" />
<glyph unicode="[" glyph-name="bracketleft" horiz-adv-x="247" d="M117 249Q92 334 83 410T73 563Q73 604 78 645T87 731H242Q255 731 257 717T259 697Q259 697 245 694T210 688T172 683T147 680V-182Q154 -182 172 -184T210 -190T244 -196T259 -199Q259 -205
257 -219T242 -233H87Q81 -189 77 -147T73 -65Q73 12 82 88T117 249Z" />
<glyph unicode="\" glyph-name="backslash" horiz-adv-x="327" d="M303 -50L-30 750H24L357 -50H303Z" />
<glyph unicode="]" glyph-name="bracketright" horiz-adv-x="247" d="M130 249Q156 164 165 88T174 -65Q174 -105 170 -147T160 -233H5Q-8 -233 -10 -219T-12 -199Q-12 -199 2 -196T37 -190T75 -185T100 -182V680Q93 680 75 682T37 688T3 694T-12 697Q-12 703
-10 717T5 731H160Q166 687 170 646T174 563Q174 487 165 411T130 249Z" />
<glyph unicode="^" glyph-name="asciicircum" horiz-adv-x="510" d="M75 225L227 512H284L436 225H376L255 457L135 225H75Z" />
<glyph unicode="_" glyph-name="underscore" horiz-adv-x="504" d="M40 -69V-12H464V-69H40Z" />
<glyph unicode="`" glyph-name="grave" horiz-adv-x="317" d="M267 537L256 518Q238 523 203 534T129 563T55 601Q50 604 50 613Q50 623 55 637T66 664T75 680Q123 642 167 609T239 557T267 537Z" />
<glyph unicode="a" glyph-name="a" horiz-adv-x="521" d="M124 45L191 31Q191 24 189 12T173 0Q173 0 168 0T144 1T86 3L17 0Q0 0 0 30L58 45L227 489H292L463 46L521 30Q521 25 519 13T504 0Q504 0 487 0T423 3Q370 1 353 1T336 0Q323 0 321 12T318 31L386 45L346
156L160 146L124 45ZM253 412L177 198H330L253 412Z" />
<glyph unicode="b" glyph-name="b" horiz-adv-x="489" d="M290 0L156 6L73 0Q60 0 58 12T55 31L119 45V444L55 458Q55 464 57 476T73 489Q73 489 89 489T156 486L245 489Q300 489 336 471T390 425T408 366Q408 336 391 308T341 262Q397 246 423 211T449 136Q449
81 407 41T290 0ZM237 451L184 443L191 274H242Q291 278 315 305T339 364Q339 396 313 423T237 451ZM272 42Q326 42 351 71T377 136Q377 173 347 204T259 238L191 230L184 50Q211 46 235 44T272 42Z" />
<glyph unicode="c" glyph-name="c" horiz-adv-x="497" d="M452 144L446 38Q413 15 370 4T278 -8Q209 -8 154 20T67 105T35 247Q35 329 69 384T162 468T290 497Q380 497 448 453L427 343Q423 343 413 343T393 347T384 359V431Q366 437 338 441T285 445Q259 445
232 441T184 430Q153 407 133 358T112 246Q112 177 135 131T197 63T285 40Q317 40 343 45T392 63L409 131Q413 140 430 142T452 144Z" />
<glyph unicode="d" glyph-name="d" horiz-adv-x="582" d="M119 444L55 458Q55 464 57 476T73 489Q73 489 89 489T156 486Q187 488 219 491T283 497Q334 497 382 485T468 444T529 369T552 253Q552 165 519 108T428 24T294 -4L157 6L73 0Q60 0 58 12T55 31L119 45V444ZM196
251L186 50Q214 45 244 43T302 40Q376 40 425 90T474 246Q474 323 450 367T383 431T285 450Q263 450 237 448T186 440L196 251Z" />
<glyph unicode="e" glyph-name="e" horiz-adv-x="482" d="M403 0L156 6L73 0Q60 0 58 12T55 31L119 45V444L55 458Q55 464 57 476T73 489Q73 489 89 489T156 486L398 489Q412 489 420 488T428 475L410 369Q406 369 396 369T378 373T369 384V442L186 440L195 274H380V233L194
222L186 49H378L395 106Q398 117 407 120T437 123L431 12Q430 4 424 2T403 0Z" />
<glyph unicode="f" glyph-name="f" horiz-adv-x="441" d="M373 223L194 212L187 45L272 31Q272 25 270 13T255 0L156 6L73 0Q60 0 58 12T55 31L119 45V444L55 458Q55 464 57 476T73 489Q73 489 89 489T156 486L376 489Q390 489 398 488T406 475L388 369Q384 369
374 369T356 373T347 384V442L186 440L195 264H373V223Z" />
<glyph unicode="g" glyph-name="g" horiz-adv-x="519" d="M461 82L469 53Q422 21 374 7T277 -8Q208 -8 153 20T67 105T35 248Q35 330 69 385T161 468T289 497Q382 497 455 453L434 343Q430 343 420 343T401 347T392 359V431Q372 437 342 441T285 445Q259 445 232
441T184 430Q152 407 133 358T113 246Q113 142 162 91T285 40Q315 40 348 48T404 74L393 209L257 216V257H461V82Z" />
<glyph unicode="h" glyph-name="h" horiz-adv-x="633" d="M446 444L379 458Q379 464 381 476T397 489Q397 489 413 489T480 486Q527 488 544 488T561 489Q574 489 576 477T578 459L514 444V45L578 31Q578 25 576 13T561 0L480 6L397 0Q384 0 382 12T379 31L446
45L438 232L194 222L187 45L254 31Q254 25 252 13T237 0L156 6L73 0Q60 0 58 12T55 31L119 45V444L55 458Q55 464 57 476T73 489Q73 489 89 489T156 486Q203 488 220 488T237 489Q250 489 252 477T254 459L187 444L195 274H438L446 444Z" />
<glyph unicode="i" glyph-name="i" horiz-adv-x="309" d="M119 444L55 458Q55 464 57 476T73 489Q73 489 89 489T156 486Q203 488 220 488T237 489Q250 489 252 477T254 459L190 444V45L254 31Q254 25 252 13T237 0L156 6L73 0Q60 0 58 12T55 31L119 45V444Z" />
<glyph unicode="j" glyph-name="j" horiz-adv-x="279" d="M109 114V443Q93 447 69 450T30 458Q30 463 32 476T48 489Q48 489 69 489T142 486Q189 488 207 488T226 489Q240 489 242 476T244 457L180 443V133Q180 61 142 -7T38 -141L7 -120Q52 -64 80 -6T109 114Z" />
<glyph unicode="k" glyph-name="k" horiz-adv-x="509" d="M112 444L48 458Q48 464 50 476T66 489Q66 489 82 489T149 486Q196 488 208 488T220 489Q233 489 235 477T237 459L180 444L188 265H259L358 445L316 458Q316 463 318 476T333 489L383 486L452 489Q463
490 466 477T469 459L418 443L306 253L471 -6L421 -21L245 228L187 221L180 45L256 31Q256 25 254 13T239 0L149 6L66 0Q53 0 51 12T48 31L112 45V444Z" />
<glyph unicode="l" glyph-name="l" horiz-adv-x="430" d="M376 0L156 6L73 0Q60 0 58 12T55 31L119 45V444L55 458Q55 464 58 476T73 489L156 486L237 489Q248 489 251 479T254 459L190 444V49H351L368 106Q371 117 380 120T410 123L404 12Q403 4 397 2T376 0Z" />
<glyph unicode="m" glyph-name="m" horiz-adv-x="741" d="M91 489L218 483L366 146L530 483L649 489Q657 489 661 478T666 457L603 442L627 45Q640 41 659 38T691 31Q691 25 689 13T674 0L589 6L506 0Q493 0 491 12T488 31L558 46L543 389L369 34H346L187 382L174
45Q190 41 209 38T243 31Q243 24 241 12T224 0L142 6L67 0Q54 0 52 12T50 31L114 45L137 443L74 457Q74 462 76 475T91 489Z" />
<glyph unicode="n" glyph-name="n" horiz-adv-x="631" d="M402 489L496 486L564 489Q577 488 579 476T581 458L524 443L521 0H476L166 385L174 45Q190 41 214 38T253 31Q253 24 251 12T235 0L143 6L68 0Q55 0 53 12T50 31L116 46L113 443L50 457Q50 462 52 475T68
489Q68 489 75 489T105 489T173 486L470 110L464 443L385 457Q385 462 387 476T402 489Z" />
<glyph unicode="o" glyph-name="o" horiz-adv-x="572" d="M537 253Q537 165 504 107T413 21T279 -8Q209 -8 154 20T67 105T35 247Q35 329 69 384T162 468T290 497Q358 497 414 470T503 389T537 253ZM113 246Q113 140 163 88T286 36Q360 36 409 88T459 246Q459
348 410 398T286 449Q259 449 232 445T184 434Q153 410 133 360T113 246Z" />
<glyph unicode="p" glyph-name="p" horiz-adv-x="454" d="M73 0Q60 0 58 12T55 31L119 45V444L55 458Q55 464 57 476T73 489Q73 489 89 489T156 486L266 489Q315 489 350 469T405 415T424 338Q424 300 403 265T340 206T234 179L194 177L187 45L272 31Q272 25 270
13T255 0L156 6L73 0ZM239 220Q279 222 305 239T344 284T357 339Q357 380 332 414T253 449L187 442L196 222L239 220Z" />
<glyph unicode="q" glyph-name="q" horiz-adv-x="572" d="M507 -159L277 -8Q208 -7 153 21T67 105T35 247Q35 329 69 384T162 468T290 497Q358 497 414 470T503 389T537 253Q537 151 494 90T376 5L534 -120L507 -159ZM113 246Q113 140 163 88T286 36Q360 36 409
88T459 246Q459 348 410 398T286 449Q259 449 232 445T184 434Q153 410 133 360T113 246Z" />
<glyph unicode="r" glyph-name="r" horiz-adv-x="489" d="M194 206L187 45L263 31Q263 25 261 13T246 0L156 6L73 0Q60 0 58 12T55 31L119 45V444L55 458Q55 464 57 476T73 489Q73 489 89 489T156 486L258 489Q333 489 375 449T417 353Q417 319 394 285T323 231L470
-6L419 -21L253 215L194 206ZM196 254L232 253Q291 255 321 286T351 354Q351 389 326 418T246 449L187 444L196 254Z" />
<glyph unicode="s" glyph-name="s" horiz-adv-x="432" d="M387 122Q387 58 336 25T208 -8Q131 -8 45 26Q46 38 49 58T57 99T65 134T69 149Q73 149 82 149T99 145T107 134V62Q130 50 158 44T213 38Q265 38 288 60T312 113Q312 128 301 148T263 183L135 252Q97 273
77 304T56 366Q56 400 76 429T135 478T230 497Q262 497 296 490T364 471L343 356Q339 356 329 356T309 360T300 371V437Q285 442 265 446T225 450Q196 450 169 440T124 404Q120 392 120 378Q120 335 172 307L297 241Q343 217 365 185T387 122Z" />
<glyph unicode="t" glyph-name="t" horiz-adv-x="457" d="M193 441L80 443L70 373Q70 366 62 363T44 359T30 358L20 476Q22 486 30 487T50 489L230 485L407 489Q420 489 428 488T437 476L427 358Q424 358 414 358T396 362T387 373L377 443Q349 443 321 442T263
441V48L344 31Q344 25 342 13T327 0L230 6L131 0Q117 0 115 12T112 31L193 48V441Z" />
<glyph unicode="u" glyph-name="u" horiz-adv-x="579" d="M220 489Q234 489 236 476T239 458L170 443V152Q170 103 200 72T301 41Q371 41 403 75T436 153V443L366 458Q366 469 369 479T385 489L465 486Q500 488 509 488T519 489Q534 489 536 477T539 458L492 443V155Q492
82 441 37T300 -8Q208 -8 154 30T99 155V443L45 457Q45 462 47 475T62 489Q62 489 66 489T86 489T137 486Q184 488 202 488T220 489Z" />
<glyph unicode="v" glyph-name="v" horiz-adv-x="515" d="M202 458L142 444L266 84L388 444Q374 448 358 451T328 458Q328 469 331 479T346 489L425 486L482 489Q496 488 498 476T500 459L451 444L291 0H229L64 443L15 459Q15 464 17 476T34 489Q34 489 46 489T107
486L185 489Q196 489 199 479T202 458Z" />
<glyph unicode="w" glyph-name="w" horiz-adv-x="716" d="M202 458L141 444L237 95L354 454H378L491 95L590 444Q575 448 559 451T529 458Q529 469 532 479T548 489L627 486L684 489Q697 488 699 476T701 458L653 443L521 0H454L358 289L264 0H197L63 443L15 459Q15
469 18 479T33 489L106 486L184 489Q195 489 198 479T202 458Z" />
<glyph unicode="x" glyph-name="x" horiz-adv-x="566" d="M335 31L391 44L277 203L160 44Q174 40 188 37T216 31Q216 24 214 12T198 0L115 6L48 0Q35 0 33 12T30 30L89 46L245 247L105 443L48 458Q48 489 66 489L137 486L221 489Q232 489 235 479T239 458L186
444L291 299L399 445Q385 449 371 452T343 458Q343 469 346 479T361 489L444 486L501 489Q514 488 516 476T518 459L469 443L324 253L473 46Q485 42 505 39T536 31Q536 25 534 13T518 0L438 6L353 0Q340 0 338 12T335 31Z" />
<glyph unicode="y" glyph-name="y" horiz-adv-x="468" d="M275 46L346 31Q346 25 344 13T329 0L242 6L153 0Q139 0 137 12T134 31L205 46V194L65 443L15 459Q15 464 17 476T34 489Q34 489 45 489T104 486L181 489Q192 489 195 479T198 458L140 444L246 240L344
444Q330 448 314 451T284 458Q284 469 287 479T302 489L378 486L436 489Q449 488 451 476T453 459L404 443L275 195V46Z" />
<glyph unicode="z" glyph-name="z" horiz-adv-x="479" d="M372 49V109Q372 117 380 120T399 123T413 124L431 15Q431 5 425 3T404 0L81 9L49 -9L30 12L339 437H129V382Q129 374 121 371T102 367T88 366L70 475Q70 489 91 489L393 478L425 498L449 480L137 49H372Z" />
<glyph unicode="{" glyph-name="braceleft" horiz-adv-x="272" d="M144 253V245Q167 241 184 230T201 193Q201 171 196 143T184 72T172 -31T166 -182Q174 -182 192 -184T232 -190T269 -196T284 -199Q284 -205 282 -219T267 -233H112Q106 -189 102 -147T98 -65Q98
3 107 69T142 209L42 236V263L142 290Q117 363 108 429T98 563Q98 604 103 645T112 731H267Q280 731 282 717T284 697Q284 697 269 694T233 688T193 683T166 680Q166 592 171 530T183 426T195 356T201 306Q201 281 184 269T144 253Z" />
<glyph unicode="|" glyph-name="bar" horiz-adv-x="270" d="M100 -208V673H170V-208H100Z" />
<glyph unicode="}" glyph-name="braceright" horiz-adv-x="272" d="M128 245V253Q106 257 89 268T71 305Q71 327 76 355T88 426T100 530T106 680Q99 680 80 682T40 688T3 694T-12 697Q-12 703 -10 717T5 731H160Q166 687 170 646T174 563Q174 496 165 429T130
289L230 262V235L130 208Q156 135 165 69T174 -65Q174 -105 170 -147T160 -233H5Q-8 -233 -10 -219T-12 -199Q-12 -199 3 -196T39 -190T80 -185T106 -182Q106 -93 101 -32T89 72T77 142T71 192Q71 218 88 229T128 245Z" />
<glyph unicode="~" glyph-name="asciitilde" horiz-adv-x="510" d="M423 321L445 284Q422 258 395 248T341 238Q296 238 251 250T164 263Q142 263 124 258T88 238L65 275Q88 300 114 309T168 319Q213 319 258 307T345 294Q389 294 423 321Z" />
<glyph unicode="&#xa0;" glyph-name="uni00A0" horiz-adv-x="235" />
<glyph unicode="&#xa1;" glyph-name="exclamdown" horiz-adv-x="257" d="M119 361Q99 361 91 376T83 411Q83 428 86 444T90 460Q90 460 110 464T147 468Q170 468 177 453T184 419Q184 400 180 384T176 367Q176 367 156 364T119 361ZM134 -239H78L120 284H153L180
23L134 -239Z" />
<glyph unicode="&#xa2;" glyph-name="cent" horiz-adv-x="510" d="M283 -35H243L248 44Q178 60 134 118T90 280Q90 351 115 401T184 480T282 516L286 574H326L322 518Q351 517 379 512T437 493Q436 488 432 468T423 425T413 384T408 367Q405 367 395 368T377 373T368
383L372 456Q357 459 344 461T318 464L291 88Q298 87 304 87T318 86Q342 86 366 92T421 111Q434 99 438 81Q404 58 370 48T304 38H288L283 -35ZM168 281Q168 213 190 167T252 101L278 462Q221 453 195 408T168 281Z" />
<glyph unicode="&#xa3;" glyph-name="sterling" horiz-adv-x="510" d="M62 263V300H122Q115 327 110 355T104 414Q104 494 147 528T257 563Q301 563 344 552T419 524Q418 519 414 499T405 456T395 415T390 398Q387 398 377 399T359 404T350 414L354 487Q312 513
261 513Q228 513 210 499T184 463T177 415Q177 380 182 353T192 300H348V263H197Q197 259 197 254T198 244Q198 205 182 159T116 41L117 37L394 62V147Q394 155 402 158T421 162T435 163Q435 163 438 143T446 95T454 44T458 14Q457 7 452 4T434 0H68L45 32Q97 87
115 131T134 216Q134 228 133 239T129 263H62Z" />
<glyph unicode="&#xa4;" glyph-name="currency" horiz-adv-x="510" d="M107 281Q107 331 135 368L58 445L91 478L167 400Q186 414 208 421T255 429Q280 429 302 422T342 400L419 478L452 445L374 368Q388 350 395 328T403 281Q403 256 396 234T374 193L452 117L419
84L342 161Q305 133 255 133Q206 133 167 161L91 84L58 117L135 193Q107 232 107 281ZM170 281Q170 245 194 221T255 196Q291 196 315 220T340 281Q340 317 316 341T255 366Q219 366 195 342T170 281Z" />
<glyph unicode="&#xa5;" glyph-name="yen" horiz-adv-x="510" d="M416 216V179H295V52L400 30Q400 25 398 13T385 0Q385 0 357 0T259 4Q189 1 158 1T127 0Q116 0 114 12T112 30L217 52V179H100V216H217V222L195 263H100V300H176L73 499L26 521Q26 526 29 538T40
551L118 547L191 551Q200 551 202 539T205 521L146 501L268 262L388 501L326 521Q326 526 328 538T340 551L408 547L470 551Q479 551 481 539T484 521L437 499L334 300H416V263H315L295 223V216H416Z" />
<glyph unicode="&#xa6;" glyph-name="brokenbar" horiz-adv-x="270" d="M100 322V673H170V322H100ZM100 -208V143H170V-208H100Z" />
<glyph unicode="&#xa7;" glyph-name="section" horiz-adv-x="427" d="M97 267Q97 304 116 340T195 417Q168 439 143 463T101 514T84 568Q84 614 111 646T185 695T291 712Q347 712 407 697L381 543Q377 543 367 543T348 547T339 557V658Q329 660 317 661T292 662Q259
662 226 652T172 621T149 563Q154 542 174 520T220 476T272 434T313 394T330 360Q330 323 311 286T232 210Q259 188 284 164T326 113T343 59Q343 14 316 -18T242 -68T136 -85Q80 -85 20 -70L46 84Q50 84 60 84T79 80T88 70V-31Q99 -33 110 -34T135 -35Q169 -35
201 -25T255 6T278 64Q273 85 253 107T207 151T155 193T114 233T97 267ZM253 267Q253 267 258 276T268 300T273 328Q273 348 265 362T230 377Q220 377 207 373T184 365T174 360Q174 360 169 351T159 327T154 299Q154 279 163 265T197 250Q207 250 220 254T243 263T253
267Z" />
<glyph unicode="&#xa8;" glyph-name="dieresis" horiz-adv-x="374" d="M250 544Q231 544 225 560T218 596Q218 616 221 633T225 652Q225 652 243 655T274 659Q291 659 298 643T305 606Q305 587 303 571T299 553Q299 553 281 549T250 544ZM102 544Q83 544 77 560T70
596Q70 616 73 633T77 652Q77 652 95 655T126 659Q143 659 150 643T157 606Q157 587 155 571T151 553Q151 553 133 549T102 544Z" />
<glyph unicode="&#xa9;" glyph-name="copyright" horiz-adv-x="626" d="M313 217Q254 217 203 239T113 299T52 389T30 500Q30 559 52 610T112 700T202 761T313 783Q372 783 423 761T513 701T574 611T596 500Q596 441 574 390T514 300T424 239T313 217ZM313 254Q382
254 437 287T526 376T559 500Q559 569 526 624T438 713T313 746Q244 746 189 713T100 625T67 500Q67 432 100 376T188 287T313 254ZM321 322Q251 322 205 368T158 506Q158 565 181 605T243 666T329 687Q360 687 387 679T437 654L423 573Q419 573 404 574T389 585V636Q376
640 359 643T326 646Q290 646 260 635Q241 619 228 584T214 505Q214 432 246 396T326 359Q348 359 363 363T393 375L404 424Q406 431 421 432T440 434L436 355Q391 322 321 322Z" />
<glyph unicode="&#xaa;" glyph-name="ordfeminine" horiz-adv-x="313" d="M76 425L116 418Q116 413 114 404T101 395L54 397Q45 397 33 396T13 395Q-1 395 -1 416L33 425L134 689H175L277 426L312 416Q312 412 310 404T297 395Q297 395 288 395T249 397Q222 396
210 396T198 395Q187 395 185 403T183 417L223 426L200 488L97 482L76 425ZM148 629L108 517H189L148 629ZM292 349L298 321Q270 308 226 303T135 298Q104 298 76 300T28 306L23 349H292Z" />
<glyph unicode="&#xab;" glyph-name="guillemotleft" horiz-adv-x="460" d="M30 213V241L218 444L247 420L117 227L247 34L218 10L30 213ZM193 213V241L381 444L410 420L280 227L410 34L381 10L193 213Z" />
<glyph unicode="&#xac;" glyph-name="logicalnot" horiz-adv-x="510" d="M73 249V306H437V137H383V249H73Z" />
<glyph unicode="&#xae;" glyph-name="registered" horiz-adv-x="626" d="M313 217Q254 217 203 239T113 299T52 389T30 500Q30 559 52 610T112 700T202 761T313 783Q372 783 423 761T513 701T574 611T596 500Q596 441 574 390T514 300T424 239T313 217ZM313 254Q382
254 437 287T526 376T559 500Q559 569 526 624T438 713T313 746Q244 746 189 713T100 625T67 500Q67 432 100 376T188 287T313 254ZM198 328Q188 328 187 338T185 353L226 364V645L185 655Q185 659 186 670T198 681L247 678L323 681Q374 681 401 651T428 581Q428
557 411 533T363 494Q368 490 372 485T381 471L442 361L477 353Q477 349 476 339T463 328H401L329 463Q321 476 316 481L279 475L275 364L324 353Q324 349 323 339T310 328Q310 328 297 328T249 330Q220 329 209 329T198 328ZM280 512H304Q344 513 362 535T380
582Q380 606 364 627T313 649L275 645L280 512Z" />
<glyph unicode="&#xaf;" glyph-name="overscore" horiz-adv-x="421" d="M70 570V633H351V570H70Z" />
<glyph unicode="&#xb0;" glyph-name="degree" horiz-adv-x="318" d="M20 578Q20 617 38 648T89 698T159 717Q198 717 229 699T279 649T298 578Q298 540 280 508T230 458T159 439Q121 439 89 457T39 508T20 578ZM66 578Q66 539 93 512T159 485Q198 485 224 512T251
578Q251 617 225 643T159 670Q120 670 93 644T66 578Z" />
<glyph unicode="&#xb1;" glyph-name="plusminus" horiz-adv-x="510" d="M73 249V306H226V459H283V306H437V249H283V95H226V249H73ZM73 -12V45H437V-12H73Z" />
<glyph unicode="&#xb2;" glyph-name="uni00B2" horiz-adv-x="410" d="M338 500Q338 456 316 418T260 347T186 284L112 228L114 223L306 238V280Q306 293 320 295T338 297Q338 297 341 284T349 252T356 219T359 199Q358 192 355 189T338 185H52L32 212L174 340Q196
360 218 383T256 436T271 500Q271 540 246 556T188 573Q148 573 115 558L117 515Q117 510 109 507T92 502T79 500Q79 500 76 511T70 537T63 567T59 588Q85 601 120 608T189 616Q225 616 259 605T316 568T338 500Z" />
<glyph unicode="&#xb3;" glyph-name="uni00B3" horiz-adv-x="410" d="M143 384L137 418Q204 426 235 451T266 511Q266 538 247 555T193 573Q176 573 160 569T130 559L132 515Q132 510 124 507T106 502T93 500Q93 500 90 512T84 541T77 571T73 588Q99 601 132 608T196
616Q229 616 260 606T311 573T331 512Q331 479 310 453T259 409Q303 396 326 366T349 302Q349 263 327 235T270 192T196 177Q160 177 123 185T57 205Q57 209 61 222T69 252T78 281T83 293Q87 293 100 290T114 278L112 235Q145 220 193 220Q227 220 255 239T284
299Q284 334 248 358T143 384Z" />
<glyph unicode="&#xb4;" glyph-name="acute" horiz-adv-x="317" d="M61 518L50 537Q50 537 78 556T150 609T242 680Q245 677 251 665T262 638T267 613Q267 604 262 601Q229 580 189 563T114 535T61 518Z" />
<glyph unicode="&#xb5;" glyph-name="uni00B5" horiz-adv-x="509" d="M138 -199H73V410H24Q17 410 14 418T11 435T10 447Q10 447 25 450T63 458T103 465T128 468Q133 465 138 458T144 440V144Q144 90 169 69T230 47Q261 47 297 60T365 97V410H294Q287 410 284
418T281 435T280 447Q280 447 299 450T344 458T392 465T420 468Q425 465 430 458T436 440V67Q436 52 441 40T459 19L447 -12Q419 -12 396 3T367 52Q315 17 276 3T230 -12Q197 -12 172 -5T128 15L138 -199Z" />
<glyph unicode="&#xb6;" glyph-name="paragraph" horiz-adv-x="591" d="M161 0Q150 0 148 12T146 30L257 48V302Q200 303 153 324T78 388T50 501Q50 563 76 604T144 668T239 702T342 712Q397 712 444 705T521 689T551 679Q551 676 551 667T547 650T537 642H466V0H395V642H328V0H161Z"
/>
<glyph unicode="&#xb7;" glyph-name="middot" horiz-adv-x="197" d="M113 306Q133 306 141 288T149 244Q149 222 146 202T142 182Q142 182 122 178T85 173Q63 173 56 192T48 234Q48 257 52 278T56 299Q56 299 76 302T113 306Z" />
<glyph unicode="&#xb8;" glyph-name="cedilla" horiz-adv-x="410" d="M160 -83L199 15H231L209 -56Q256 -62 277 -87T299 -141Q299 -175 271 -204T196 -233Q167 -233 146 -224T110 -202L129 -172Q153 -191 184 -191Q209 -191 222 -176T236 -142Q236 -121 218 -103T160
-83Z" />
<glyph unicode="&#xb9;" glyph-name="uni00B9" horiz-adv-x="410" d="M251 236L343 216Q343 212 341 199T325 185L211 188L86 185Q73 185 71 198T69 216L188 236V562L85 536Q78 536 72 544T63 562T59 575Q59 575 75 579T117 590T167 602T212 612T235 616Q241 614
246 608T251 590V236Z" />
<glyph unicode="&#xba;" glyph-name="ordmasculine" horiz-adv-x="343" d="M166 390Q102 390 60 429T18 544Q18 618 63 656T173 694Q235 694 279 658T324 548Q324 469 279 430T166 390ZM171 421Q213 421 241 451T269 544Q269 603 241 632T171 662Q155 662 140
660T112 653Q94 640 83 611T72 544Q72 481 100 451T171 421ZM146 298Q115 298 87 300T39 306L34 349H303L309 321Q281 308 237 303T146 298Z" />
<glyph unicode="&#xbb;" glyph-name="guillemotright" horiz-adv-x="460" d="M430 241V213L242 10L213 34L343 227L213 420L242 444L430 241ZM267 241V213L79 10L50 34L180 227L50 420L79 444L267 241Z" />
<glyph unicode="&#xbc;" glyph-name="onequarter" horiz-adv-x="990" d="M307 -56L622 700H673L358 -56H307ZM845 45L905 31Q905 27 903 14T888 0L814 3L729 0Q716 0 714 13T712 31L785 45V92H607Q597 92 590 95T583 108Q583 109 586 119T603 162T642 260T714
439L774 421L643 132H785V286Q785 286 795 288T817 291T836 293Q843 289 844 283T845 267V132H914V92H845V45ZM251 282L343 262Q343 258 341 245T325 231L211 234L86 231Q73 231 71 244T69 262L188 282V608L85 582Q78 582 72 590T63 608T59 621Q59 621 75 625T117
636T167 648T212 658T235 662Q241 660 246 654T251 636V282Z" />
<glyph unicode="&#xbd;" glyph-name="onehalf" horiz-adv-x="990" d="M284 -56L599 700H650L335 -56H284ZM903 315Q903 271 881 233T825 162T751 99L677 43L679 38L871 53V95Q871 108 885 110T903 112Q903 112 906 99T914 67T921 34T924 14Q923 7 920 4T903 0H617L597
27L739 155Q761 175 783 199T821 252T836 315Q836 355 811 371T753 388Q713 388 680 373L682 330Q682 325 674 322T657 317T644 315Q644 315 641 326T635 352T628 382T624 403Q650 416 685 423T754 431Q790 431 824 420T881 383T903 315ZM251 282L343 262Q343 258
341 245T325 231L211 234L86 231Q73 231 71 244T69 262L188 282V608L85 582Q78 582 72 590T63 608T59 621Q59 621 75 625T117 636T167 648T212 658T235 662Q241 660 246 654T251 636V282Z" />
<glyph unicode="&#xbe;" glyph-name="threequarters" horiz-adv-x="990" d="M313 -56L628 700H679L364 -56H313ZM845 45L905 31Q905 27 903 14T888 0L814 3L729 0Q716 0 714 13T712 31L785 45V92H607Q597 92 590 95T583 108Q583 109 586 119T603 162T642 260T714
439L774 421L643 132H785V286Q785 286 795 288T817 291T836 293Q843 289 844 283T845 267V132H914V92H845V45ZM143 430L137 464Q204 472 235 497T266 557Q266 584 247 601T193 619Q176 619 160 615T130 605L132 561Q132 556 124 553T106 548T93 546Q93 546 90 558T84
587T77 617T73 634Q99 647 132 654T196 662Q229 662 260 652T311 619T331 558Q331 525 310 499T259 455Q303 442 326 412T349 348Q349 309 327 281T270 238T196 223Q160 223 123 231T57 251Q57 255 61 268T69 298T78 327T83 339Q87 339 100 336T114 324L112 281Q145
266 193 266Q227 266 255 285T284 345Q284 380 248 404T143 430Z" />
<glyph unicode="&#xbf;" glyph-name="questiondown" horiz-adv-x="430" d="M231 361Q211 361 203 376T195 411Q195 428 198 444T202 460Q202 460 222 464T259 468Q282 468 289 453T296 419Q296 400 292 384T288 367Q288 367 268 364T231 361ZM350 -46L376 -200Q316
-215 260 -215Q201 -215 154 -198T80 -149T53 -71Q53 -35 70 -1T114 65T166 125T209 177T227 222V272H261Q266 227 267 201T269 173Q268 155 247 127T198 66T147 -1T118 -66Q119 -102 140 -123T195 -155T261 -165Q274 -165 286 -164T308 -161V-60Q308 -53 317 -50T336
-47T350 -46Z" />
<glyph unicode="&#xc0;" glyph-name="Agrave" horiz-adv-x="660" d="M124 52L219 30Q219 24 217 12T204 0Q204 0 199 0T171 1T93 4Q50 2 31 1T7 0T2 0Q-9 0 -11 12T-13 30L62 52L292 700H368L600 52L675 30Q675 25 673 13T660 0Q660 0 654 0T626 1T561 4Q507 2
482 1T450 0T442 0Q431 0 429 12T427 30L517 52L454 229L179 215L124 52ZM317 619L199 273H439L317 619ZM442 781L431 762Q413 767 378 778T304 807T230 845Q225 848 225 857Q225 867 230 881T241 908T250 924Q298 886 342 853T414 801T442 781Z" />
<glyph unicode="&#xc1;" glyph-name="Aacute" horiz-adv-x="660" d="M124 52L219 30Q219 24 217 12T204 0Q204 0 199 0T171 1T93 4Q50 2 31 1T7 0T2 0Q-9 0 -11 12T-13 30L62 52L292 700H368L600 52L675 30Q675 25 673 13T660 0Q660 0 654 0T626 1T561 4Q507 2
482 1T450 0T442 0Q431 0 429 12T427 30L517 52L454 229L179 215L124 52ZM317 619L199 273H439L317 619ZM236 762L225 781Q225 781 253 800T325 853T417 924Q420 921 426 909T437 882T442 857Q442 848 437 845Q404 824 364 807T289 779T236 762Z" />
<glyph unicode="&#xc2;" glyph-name="Acircumflex" horiz-adv-x="660" d="M124 52L219 30Q219 24 217 12T204 0Q204 0 199 0T171 1T93 4Q50 2 31 1T7 0T2 0Q-9 0 -11 12T-13 30L62 52L292 700H368L600 52L675 30Q675 25 673 13T660 0Q660 0 654 0T626 1T561 4Q507
2 482 1T450 0T442 0Q431 0 429 12T427 30L517 52L454 229L179 215L124 52ZM317 619L199 273H439L317 619ZM334 855L237 753L211 770Q244 817 269 857T311 929H356Q373 897 398 857T456 770L430 753L334 855Z" />
<glyph unicode="&#xc3;" glyph-name="Atilde" horiz-adv-x="660" d="M124 52L219 30Q219 24 217 12T204 0Q204 0 199 0T171 1T93 4Q50 2 31 1T7 0T2 0Q-9 0 -11 12T-13 30L62 52L292 700H368L600 52L675 30Q675 25 673 13T660 0Q660 0 654 0T626 1T561 4Q507 2
482 1T450 0T442 0Q431 0 429 12T427 30L517 52L454 229L179 215L124 52ZM317 619L199 273H439L317 619ZM475 895L492 876Q467 832 442 817T391 801Q367 801 345 808T301 821T255 828Q239 828 224 820T193 798L176 817Q202 861 227 876T277 892Q301 892 323 886T367
872T413 865Q430 865 445 873T475 895Z" />
<glyph unicode="&#xc4;" glyph-name="Adieresis" horiz-adv-x="660" d="M124 52L219 30Q219 24 217 12T204 0Q204 0 199 0T171 1T93 4Q50 2 31 1T7 0T2 0Q-9 0 -11 12T-13 30L62 52L292 700H368L600 52L675 30Q675 25 673 13T660 0Q660 0 654 0T626 1T561 4Q507
2 482 1T450 0T442 0Q431 0 429 12T427 30L517 52L454 229L179 215L124 52ZM317 619L199 273H439L317 619ZM261 900Q278 900 284 885T291 850Q291 831 288 815T285 799Q285 799 269 795T239 791Q220 791 214 806T208 841Q208 861 211 877T215 894Q215 894 231 897T261
900ZM429 900Q446 900 452 885T459 850Q459 831 456 815T453 799Q453 799 437 795T407 791Q388 791 382 806T376 841Q376 861 379 877T383 894Q383 894 399 897T429 900Z" />
<glyph unicode="&#xc5;" glyph-name="Aring" horiz-adv-x="660" d="M124 52L219 30Q219 24 217 12T204 0Q204 0 199 0T171 1T93 4Q50 2 31 1T7 0T2 0Q-9 0 -11 12T-13 30L62 52L292 700H368L600 52L675 30Q675 25 673 13T660 0Q660 0 654 0T626 1T561 4Q507 2
482 1T450 0T442 0Q431 0 429 12T427 30L517 52L454 229L179 215L124 52ZM317 619L199 273H439L317 619ZM426 850Q426 804 400 782T331 759Q293 759 267 781T241 848Q241 890 269 912T335 935Q373 935 399 914T426 850ZM287 848Q287 819 301 806T334 792Q354 792
367 805T380 848Q380 874 367 888T334 902Q317 902 307 897Q297 893 292 879T287 848Z" />
<glyph unicode="&#xc6;" glyph-name="AE" horiz-adv-x="865" d="M725 555V649L432 646L490 382H772V339L502 325L561 55H782L808 149Q808 156 817 159T836 162T850 163L842 12Q842 0 821 0Q820 0 817 0T800 0T755 2T668 4T525 8L406 0Q395 0 393 12T391 30L481
52L443 229L192 217L124 52L219 30Q219 24 217 12T204 0Q204 0 199 0T171 1T93 4Q50 2 31 1T7 0T2 0Q-9 0 -11 12T-13 30L62 52L338 700L421 696L760 700Q774 700 782 699T792 690L768 541Q764 541 754 541T734 545T725 555ZM359 622L215 273H434L359 622Z" />
<glyph unicode="&#xc7;" glyph-name="Ccedilla" horiz-adv-x="642" d="M592 194L584 51Q552 23 490 6T363 -12Q271 -12 198 28T82 150T40 354Q40 471 86 551T209 671T379 712Q496 712 585 652L559 503Q555 503 544 503T524 507T514 517V628Q489 638 449 645T373
653Q336 653 297 646T229 629Q183 595 156 521T128 352Q128 247 160 178T248 75T373 41Q463 41 524 78L547 180Q549 187 558 189T578 193T592 194ZM272 -83L306 0H338L321 -56Q368 -62 389 -87T411 -141Q411 -175 383 -204T308 -233Q279 -233 258 -224T222 -202L241
-172Q265 -191 296 -191Q321 -191 334 -176T348 -142Q348 -121 330 -103T272 -83Z" />
<glyph unicode="&#xc8;" glyph-name="Egrave" horiz-adv-x="601" d="M473 555V649L208 646L217 382H473V339L217 326L208 55H483L509 149Q509 156 518 159T537 162T551 163L543 12Q542 4 536 2T514 0L170 8L65 0Q54 0 52 12T50 30L134 52V648L50 670Q50 675 52
687T65 700Q65 700 71 700T99 699T168 696L508 700Q522 700 530 699T540 690L516 541Q512 541 502 541T482 545T473 555ZM428 781L417 762Q399 767 364 778T290 807T216 845Q211 848 211 857Q211 867 216 881T227 908T236 924Q284 886 328 853T400 801T428 781Z"
/>
<glyph unicode="&#xc9;" glyph-name="Eacute" horiz-adv-x="601" d="M473 555V649L208 646L217 382H473V339L217 326L208 55H483L509 149Q509 156 518 159T537 162T551 163L543 12Q542 4 536 2T514 0L170 8L65 0Q54 0 52 12T50 30L134 52V648L50 670Q50 675 52
687T65 700Q65 700 71 700T99 699T168 696L508 700Q522 700 530 699T540 690L516 541Q512 541 502 541T482 545T473 555ZM222 762L211 781Q211 781 239 800T311 853T403 924Q406 921 412 909T423 882T428 857Q428 848 423 845Q390 824 350 807T275 779T222 762Z"
/>
<glyph unicode="&#xca;" glyph-name="Ecircumflex" horiz-adv-x="601" d="M473 555V649L208 646L217 382H473V339L217 326L208 55H483L509 149Q509 156 518 159T537 162T551 163L543 12Q542 4 536 2T514 0L170 8L65 0Q54 0 52 12T50 30L134 52V648L50 670Q50 675
52 687T65 700Q65 700 71 700T99 699T168 696L508 700Q522 700 530 699T540 690L516 541Q512 541 502 541T482 545T473 555ZM320 855L223 753L197 770Q230 817 255 857T297 929H342Q359 897 384 857T442 770L416 753L320 855Z" />
<glyph unicode="&#xcb;" glyph-name="Edieresis" horiz-adv-x="601" d="M473 555V649L208 646L217 382H473V339L217 326L208 55H483L509 149Q509 156 518 159T537 162T551 163L543 12Q542 4 536 2T514 0L170 8L65 0Q54 0 52 12T50 30L134 52V648L50 670Q50 675
52 687T65 700Q65 700 71 700T99 699T168 696L508 700Q522 700 530 699T540 690L516 541Q512 541 502 541T482 545T473 555ZM247 900Q264 900 270 885T277 850Q277 831 274 815T271 799Q271 799 255 795T225 791Q206 791 200 806T194 841Q194 861 197 877T201 894Q201
894 217 897T247 900ZM415 900Q432 900 438 885T445 850Q445 831 442 815T439 799Q439 799 423 795T393 791Q374 791 368 806T362 841Q362 861 365 877T369 894Q369 894 385 897T415 900Z" />
<glyph unicode="&#xcc;" glyph-name="Igrave" horiz-adv-x="345" d="M136 648L50 670Q50 675 52 687T65 700Q65 700 73 700T106 699T177 696Q224 698 245 699T273 700T280 700Q291 700 293 688T295 670L209 648L214 350L209 52L295 30Q295 25 293 13T280 0Q280
0 274 0T246 1T177 4Q130 2 106 1T74 0T65 0Q54 0 52 12T50 30L136 52L131 350L136 648ZM281 781L270 762Q252 767 217 778T143 807T69 845Q64 848 64 857Q64 867 69 881T80 908T89 924Q137 886 181 853T253 801T281 781Z" />
<glyph unicode="&#xcd;" glyph-name="Iacute" horiz-adv-x="345" d="M136 648L50 670Q50 675 52 687T65 700Q65 700 73 700T106 699T177 696Q224 698 245 699T273 700T280 700Q291 700 293 688T295 670L209 648L214 350L209 52L295 30Q295 25 293 13T280 0Q280
0 274 0T246 1T177 4Q130 2 106 1T74 0T65 0Q54 0 52 12T50 30L136 52L131 350L136 648ZM75 762L64 781Q64 781 92 800T164 853T256 924Q259 921 265 909T276 882T281 857Q281 848 276 845Q243 824 203 807T128 779T75 762Z" />
<glyph unicode="&#xce;" glyph-name="Icircumflex" horiz-adv-x="345" d="M136 648L50 670Q50 675 52 687T65 700Q65 700 73 700T106 699T177 696Q224 698 245 699T273 700T280 700Q291 700 293 688T295 670L209 648L214 350L209 52L295 30Q295 25 293 13T280
0Q280 0 274 0T246 1T177 4Q130 2 106 1T74 0T65 0Q54 0 52 12T50 30L136 52L131 350L136 648ZM173 855L76 753L50 770Q83 817 108 857T150 929H195Q212 897 237 857T295 770L269 753L173 855Z" />
<glyph unicode="&#xcf;" glyph-name="Idieresis" horiz-adv-x="345" d="M136 648L50 670Q50 675 52 687T65 700Q65 700 73 700T106 699T177 696Q224 698 245 699T273 700T280 700Q291 700 293 688T295 670L209 648L214 350L209 52L295 30Q295 25 293 13T280 0Q280
0 274 0T246 1T177 4Q130 2 106 1T74 0T65 0Q54 0 52 12T50 30L136 52L131 350L136 648ZM356 900Q373 900 379 885T386 850Q386 831 383 815T380 799Q380 799 364 795T334 791Q315 791 309 806T303 841Q303 861 306 877T310 894Q310 894 326 897T356 900ZM524 900Q541
900 547 885T554 850Q554 831 551 815T548 799Q548 799 532 795T502 791Q483 791 477 806T471 841Q471 861 474 877T478 894Q478 894 494 897T524 900Z" />
<glyph unicode="&#xd0;" glyph-name="Eth" horiz-adv-x="748" d="M134 648L50 670Q50 675 52 687T65 700Q65 700 73 700T105 699T176 696L380 712Q471 712 545 674T663 558T708 363Q708 237 664 155T542 34T364 -6L176 8L65 0Q54 0 52 12T50 30L134 52V338H19V371H134V648ZM374
41Q444 41 499 74T587 177T620 352Q620 455 588 522T500 624T374 658Q342 658 299 654T208 639L217 371H397V338H218L208 61Q249 52 291 47T374 41Z" />
<glyph unicode="&#xd1;" glyph-name="Ntilde" horiz-adv-x="790" d="M615 648L510 670Q510 676 512 688T526 700L647 696Q691 698 709 699T731 700T735 700Q746 700 748 688T750 670L675 648L672 0H616L186 583L194 52L300 30Q300 24 298 12T284 0L163 4Q120 2
99 1T72 0T65 0Q54 0 52 12T50 30L132 52V647L50 669Q50 674 52 687T65 700Q65 700 73 700T110 699T200 696L621 126L615 648ZM546 895L563 876Q538 832 513 817T462 801Q438 801 416 808T372 821T326 828Q310 828 295 820T264 798L247 817Q273 861 298 876T348
892Q372 892 394 886T438 872T484 865Q501 865 516 873T546 895Z" />
<glyph unicode="&#xd2;" glyph-name="Ograve" horiz-adv-x="747" d="M707 363Q707 237 663 154T541 29T363 -12Q271 -12 198 28T82 150T40 354Q40 471 86 551T209 671T379 712Q470 712 544 674T662 558T707 363ZM128 352Q128 246 160 176T248 71T373 36Q443 36
498 71T586 176T619 352Q619 455 587 522T499 624T373 658Q336 658 297 651T229 634Q183 599 156 524T128 352ZM482 781L471 762Q453 767 418 778T344 807T270 845Q265 848 265 857Q265 867 270 881T281 908T290 924Q338 886 382 853T454 801T482 781Z" />
<glyph unicode="&#xd3;" glyph-name="Oacute" horiz-adv-x="747" d="M707 363Q707 237 663 154T541 29T363 -12Q271 -12 198 28T82 150T40 354Q40 471 86 551T209 671T379 712Q470 712 544 674T662 558T707 363ZM128 352Q128 246 160 176T248 71T373 36Q443 36
498 71T586 176T619 352Q619 455 587 522T499 624T373 658Q336 658 297 651T229 634Q183 599 156 524T128 352ZM276 762L265 781Q265 781 293 800T365 853T457 924Q460 921 466 909T477 882T482 857Q482 848 477 845Q444 824 404 807T329 779T276 762Z" />
<glyph unicode="&#xd4;" glyph-name="Ocircumflex" horiz-adv-x="747" d="M707 363Q707 237 663 154T541 29T363 -12Q271 -12 198 28T82 150T40 354Q40 471 86 551T209 671T379 712Q470 712 544 674T662 558T707 363ZM128 352Q128 246 160 176T248 71T373 36Q443
36 498 71T586 176T619 352Q619 455 587 522T499 624T373 658Q336 658 297 651T229 634Q183 599 156 524T128 352ZM374 855L277 753L251 770Q284 817 309 857T351 929H396Q413 897 438 857T496 770L470 753L374 855Z" />
<glyph unicode="&#xd5;" glyph-name="Otilde" horiz-adv-x="747" d="M707 363Q707 237 663 154T541 29T363 -12Q271 -12 198 28T82 150T40 354Q40 471 86 551T209 671T379 712Q470 712 544 674T662 558T707 363ZM128 352Q128 246 160 176T248 71T373 36Q443 36
498 71T586 176T619 352Q619 455 587 522T499 624T373 658Q336 658 297 651T229 634Q183 599 156 524T128 352ZM515 895L532 876Q507 832 482 817T431 801Q407 801 385 808T341 821T295 828Q279 828 264 820T233 798L216 817Q242 861 267 876T317 892Q341 892 363
886T407 872T453 865Q470 865 485 873T515 895Z" />
<glyph unicode="&#xd6;" glyph-name="Odieresis" horiz-adv-x="747" d="M707 363Q707 237 663 154T541 29T363 -12Q271 -12 198 28T82 150T40 354Q40 471 86 551T209 671T379 712Q470 712 544 674T662 558T707 363ZM128 352Q128 246 160 176T248 71T373 36Q443
36 498 71T586 176T619 352Q619 455 587 522T499 624T373 658Q336 658 297 651T229 634Q183 599 156 524T128 352ZM301 900Q318 900 324 885T331 850Q331 831 328 815T325 799Q325 799 309 795T279 791Q260 791 254 806T248 841Q248 861 251 877T255 894Q255 894
271 897T301 900ZM469 900Q486 900 492 885T499 850Q499 831 496 815T493 799Q493 799 477 795T447 791Q428 791 422 806T416 841Q416 861 419 877T423 894Q423 894 439 897T469 900Z" />
<glyph unicode="&#xd7;" glyph-name="multiply" horiz-adv-x="510" d="M132 115L92 155L214 277L92 400L132 440L254 317L377 440L417 400L294 277L417 155L377 115L254 237L132 115Z" />
<glyph unicode="&#xd8;" glyph-name="Oslash" horiz-adv-x="727" d="M170 -50L202 26Q128 66 84 148T40 354Q40 471 86 551T209 671T379 712Q433 712 482 698L503 750H557L528 681Q608 645 657 566T707 363Q707 237 663 154T541 29T363 -12Q301 -12 247 6L224
-50H170ZM128 352Q128 257 154 191T227 86L459 644Q419 658 373 658Q336 658 297 651T229 634Q183 599 156 524T128 352ZM619 352Q619 452 588 519T503 621L269 59Q316 36 373 36Q443 36 498 71T586 176T619 352Z" />
<glyph unicode="&#xd9;" glyph-name="Ugrave" horiz-adv-x="733" d="M271 700Q283 700 285 688T287 670L192 648V215Q192 140 236 92T382 43Q449 43 491 67T554 132T575 216V648L480 670Q480 675 482 688T496 700L605 696Q641 698 657 698T678 699T683 700Q694
700 696 688T698 670L633 648V218Q633 150 603 98T517 17T380 -12Q258 -12 186 42T114 218V648L40 669Q40 674 42 687T55 700Q55 700 60 700T87 699T156 696Q226 699 248 699T271 700ZM501 781L490 762Q472 767 437 778T363 807T289 845Q284 848 284 857Q284 867
289 881T300 908T309 924Q357 886 401 853T473 801T501 781Z" />
<glyph unicode="&#xda;" glyph-name="Uacute" horiz-adv-x="733" d="M271 700Q283 700 285 688T287 670L192 648V215Q192 140 236 92T382 43Q449 43 491 67T554 132T575 216V648L480 670Q480 675 482 688T496 700L605 696Q641 698 657 698T678 699T683 700Q694
700 696 688T698 670L633 648V218Q633 150 603 98T517 17T380 -12Q258 -12 186 42T114 218V648L40 669Q40 674 42 687T55 700Q55 700 60 700T87 699T156 696Q226 699 248 699T271 700ZM295 762L284 781Q284 781 312 800T384 853T476 924Q479 921 485 909T496 882T501
857Q501 848 496 845Q463 824 423 807T348 779T295 762Z" />
<glyph unicode="&#xdb;" glyph-name="Ucircumflex" horiz-adv-x="733" d="M271 700Q283 700 285 688T287 670L192 648V215Q192 140 236 92T382 43Q449 43 491 67T554 132T575 216V648L480 670Q480 675 482 688T496 700L605 696Q641 698 657 698T678 699T683 700Q694
700 696 688T698 670L633 648V218Q633 150 603 98T517 17T380 -12Q258 -12 186 42T114 218V648L40 669Q40 674 42 687T55 700Q55 700 60 700T87 699T156 696Q226 699 248 699T271 700ZM393 855L296 753L270 770Q303 817 328 857T370 929H415Q432 897 457 857T515
770L489 753L393 855Z" />
<glyph unicode="&#xdc;" glyph-name="Udieresis" horiz-adv-x="733" d="M271 700Q283 700 285 688T287 670L192 648V215Q192 140 236 92T382 43Q449 43 491 67T554 132T575 216V648L480 670Q480 675 482 688T496 700L605 696Q641 698 657 698T678 699T683 700Q694
700 696 688T698 670L633 648V218Q633 150 603 98T517 17T380 -12Q258 -12 186 42T114 218V648L40 669Q40 674 42 687T55 700Q55 700 60 700T87 699T156 696Q226 699 248 699T271 700ZM320 900Q337 900 343 885T350 850Q350 831 347 815T344 799Q344 799 328 795T298
791Q279 791 273 806T267 841Q267 861 270 877T274 894Q274 894 290 897T320 900ZM488 900Q505 900 511 885T518 850Q518 831 515 815T512 799Q512 799 496 795T466 791Q447 791 441 806T435 841Q435 861 438 877T442 894Q442 894 458 897T488 900Z" />
<glyph unicode="&#xdd;" glyph-name="Yacute" horiz-adv-x="580" d="M232 670L147 648L307 321L450 648L368 670Q368 676 370 688T383 700Q383 700 383 700T383 700V700Q383 700 388 700T416 699T487 696Q537 698 551 699T565 700V700Q565 700 565 700T565 700Q576
699 578 687T580 670L515 648L337 279V52L442 30Q442 25 440 13T427 0Q427 0 399 0T301 4Q231 1 200 1T169 0Q158 0 156 12T154 30L259 52V277L65 648L0 670Q0 675 2 687T15 700Q15 700 21 700T48 699T112 696Q166 698 188 699T213 700T217 700Q228 700 230 688T232
670ZM202 762L191 781Q191 781 219 800T291 853T383 924Q386 921 392 909T403 882T408 857Q408 848 403 845Q370 824 330 807T255 779T202 762Z" />
<glyph unicode="&#xde;" glyph-name="Thorn" horiz-adv-x="562" d="M136 648L50 670Q50 675 52 687T65 700Q65 700 73 700T106 699T177 696Q224 698 245 699T273 700T280 700Q291 700 293 688T295 670L209 648L210 573L325 576Q390 576 436 549T507 476T532 373Q532
322 505 275T422 197T281 161L211 157L209 52L295 30Q295 25 293 13T280 0Q280 0 274 0T246 1T177 4Q130 2 106 1T74 0T65 0Q54 0 52 12T50 30L136 52L131 350L136 648ZM307 534L211 524L214 350L212 208V208L289 203Q350 203 387 228T442 293T460 374Q460 414
444 450T394 510T307 534Z" />
<glyph unicode="&#xdf;" glyph-name="germandbls" horiz-adv-x="846" d="M387 122Q387 58 336 25T208 -8Q131 -8 45 26Q46 38 49 58T57 99T65 134T69 149Q73 149 82 149T99 145T107 134V62Q130 50 158 44T213 38Q265 38 288 60T312 113Q312 128 301 148T263 183L135
252Q97 273 77 304T56 366Q56 400 76 429T135 478T230 497Q262 497 296 490T364 471L343 356Q339 356 329 356T309 360T300 371V437Q285 442 265 446T225 450Q196 450 169 440T124 404Q120 392 120 378Q120 335 172 307L297 241Q343 217 365 185T387 122ZM790 122Q790
58 739 25T611 -8Q534 -8 448 26Q449 38 452 58T460 99T468 134T472 149Q476 149 485 149T502 145T510 134V62Q533 50 561 44T616 38Q668 38 691 60T715 113Q715 128 704 148T666 183L538 252Q500 273 480 304T459 366Q459 400 479 429T538 478T633 497Q665 497
699 490T767 471L746 356Q742 356 732 356T712 360T703 371V437Q688 442 668 446T628 450Q599 450 572 440T527 404Q523 392 523 378Q523 335 575 307L700 241Q746 217 768 185T790 122Z" />
<glyph unicode="&#xe0;" glyph-name="agrave" horiz-adv-x="521" d="M124 45L191 31Q191 24 189 12T173 0Q173 0 168 0T144 1T86 3L17 0Q0 0 0 30L58 45L227 489H292L463 46L521 30Q521 25 519 13T504 0Q504 0 487 0T423 3Q370 1 353 1T336 0Q323 0 321 12T318
31L386 45L346 156L160 146L124 45ZM253 412L177 198H330L253 412ZM369 567L358 548Q340 553 305 564T231 593T157 631Q152 634 152 643Q152 653 157 667T168 694T177 710Q225 672 269 639T341 587T369 567Z" />
<glyph unicode="&#xe1;" glyph-name="aacute" horiz-adv-x="521" d="M124 45L191 31Q191 24 189 12T173 0Q173 0 168 0T144 1T86 3L17 0Q0 0 0 30L58 45L227 489H292L463 46L521 30Q521 25 519 13T504 0Q504 0 487 0T423 3Q370 1 353 1T336 0Q323 0 321 12T318
31L386 45L346 156L160 146L124 45ZM253 412L177 198H330L253 412ZM163 548L152 567Q152 567 180 586T252 639T344 710Q347 707 353 695T364 668T369 643Q369 634 364 631Q331 610 291 593T216 565T163 548Z" />
<glyph unicode="&#xe2;" glyph-name="acircumflex" horiz-adv-x="521" d="M124 45L191 31Q191 24 189 12T173 0Q173 0 168 0T144 1T86 3L17 0Q0 0 0 30L58 45L227 489H292L463 46L521 30Q521 25 519 13T504 0Q504 0 487 0T423 3Q370 1 353 1T336 0Q323 0 321 12T318
31L386 45L346 156L160 146L124 45ZM253 412L177 198H330L253 412ZM261 641L164 539L138 556Q171 603 196 643T238 715H283Q300 683 325 643T383 556L357 539L261 641Z" />
<glyph unicode="&#xe3;" glyph-name="atilde" horiz-adv-x="521" d="M124 45L191 31Q191 24 189 12T173 0Q173 0 168 0T144 1T86 3L17 0Q0 0 0 30L58 45L227 489H292L463 46L521 30Q521 25 519 13T504 0Q504 0 487 0T423 3Q370 1 353 1T336 0Q323 0 321 12T318
31L386 45L346 156L160 146L124 45ZM253 412L177 198H330L253 412ZM402 681L419 662Q394 618 369 603T318 587Q294 587 272 594T228 607T182 614Q166 614 151 606T120 584L103 603Q129 647 154 662T204 678Q228 678 250 672T294 658T340 651Q357 651 372 659T402
681Z" />
<glyph unicode="&#xe4;" glyph-name="adieresis" horiz-adv-x="521" d="M124 45L191 31Q191 24 189 12T173 0Q173 0 168 0T144 1T86 3L17 0Q0 0 0 30L58 45L227 489H292L463 46L521 30Q521 25 519 13T504 0Q504 0 487 0T423 3Q370 1 353 1T336 0Q323 0 321 12T318
31L386 45L346 156L160 146L124 45ZM253 412L177 198H330L253 412ZM323 574Q304 574 298 590T291 626Q291 646 294 663T298 682Q298 682 316 685T347 689Q364 689 371 673T378 636Q378 617 376 601T372 583Q372 583 354 579T323 574ZM175 574Q156 574 150 590T143
626Q143 646 146 663T150 682Q150 682 168 685T199 689Q216 689 223 673T230 636Q230 617 228 601T224 583Q224 583 206 579T175 574Z" />
<glyph unicode="&#xe5;" glyph-name="aring" horiz-adv-x="521" d="M124 45L191 31Q191 24 189 12T173 0Q173 0 168 0T144 1T86 3L17 0Q0 0 0 30L58 45L227 489H292L463 46L521 30Q521 25 519 13T504 0Q504 0 487 0T423 3Q370 1 353 1T336 0Q323 0 321 12T318
31L386 45L346 156L160 146L124 45ZM253 412L177 198H330L253 412ZM353 636Q353 590 327 568T258 545Q220 545 194 567T168 634Q168 676 196 698T262 721Q300 721 326 700T353 636ZM214 634Q214 605 228 592T261 578Q281 578 294 591T307 634Q307 660 294 674T261
688Q244 688 234 683Q224 679 219 665T214 634Z" />
<glyph unicode="&#xe6;" glyph-name="ae" horiz-adv-x="672" d="M391 6L303 0Q290 0 288 12T286 31L351 46L325 156L151 147L106 45L174 31Q174 24 172 12T157 0Q157 0 154 0T133 1T75 3Q42 2 28 1T10 0T7 0Q-6 0 -8 12T-10 31L47 46L250 489L320 486L562 489Q576
489 584 488T592 475L574 369Q570 369 560 369T542 373T533 384V442L331 440L370 274H544V233L382 223L423 49H576L593 106Q596 117 605 120T635 123L629 12Q626 0 609 0Q608 0 604 0T579 0T515 2T391 6ZM266 410L174 198H316L266 410Z" />
<glyph unicode="&#xe7;" glyph-name="ccedilla" horiz-adv-x="497" d="M452 144L446 38Q413 15 370 4T278 -8Q209 -8 154 20T67 105T35 247Q35 329 69 384T162 468T290 497Q380 497 448 453L427 343Q423 343 413 343T393 347T384 359V431Q366 437 338 441T285
445Q259 445 232 441T184 430Q153 407 133 358T112 246Q112 177 135 131T197 63T285 40Q317 40 343 45T392 63L409 131Q413 140 430 142T452 144ZM204 -83L238 0H270L253 -56Q300 -62 321 -87T343 -141Q343 -175 315 -204T240 -233Q211 -233 190 -224T154 -202L173
-172Q197 -191 228 -191Q253 -191 266 -176T280 -142Q280 -121 262 -103T204 -83Z" />
<glyph unicode="&#xe8;" glyph-name="egrave" horiz-adv-x="482" d="M403 0L156 6L73 0Q60 0 58 12T55 31L119 45V444L55 458Q55 464 57 476T73 489Q73 489 89 489T156 486L398 489Q412 489 420 488T428 475L410 369Q406 369 396 369T378 373T369 384V442L186
440L195 274H380V233L194 222L186 49H378L395 106Q398 117 407 120T437 123L431 12Q430 4 424 2T403 0ZM369 567L358 548Q340 553 305 564T231 593T157 631Q152 634 152 643Q152 653 157 667T168 694T177 710Q225 672 269 639T341 587T369 567Z" />
<glyph unicode="&#xe9;" glyph-name="eacute" horiz-adv-x="482" d="M403 0L156 6L73 0Q60 0 58 12T55 31L119 45V444L55 458Q55 464 57 476T73 489Q73 489 89 489T156 486L398 489Q412 489 420 488T428 475L410 369Q406 369 396 369T378 373T369 384V442L186
440L195 274H380V233L194 222L186 49H378L395 106Q398 117 407 120T437 123L431 12Q430 4 424 2T403 0ZM163 548L152 567Q152 567 180 586T252 639T344 710Q347 707 353 695T364 668T369 643Q369 634 364 631Q331 610 291 593T216 565T163 548Z" />
<glyph unicode="&#xea;" glyph-name="ecircumflex" horiz-adv-x="482" d="M403 0L156 6L73 0Q60 0 58 12T55 31L119 45V444L55 458Q55 464 57 476T73 489Q73 489 89 489T156 486L398 489Q412 489 420 488T428 475L410 369Q406 369 396 369T378 373T369 384V442L186
440L195 274H380V233L194 222L186 49H378L395 106Q398 117 407 120T437 123L431 12Q430 4 424 2T403 0ZM261 641L164 539L138 556Q171 603 196 643T238 715H283Q300 683 325 643T383 556L357 539L261 641Z" />
<glyph unicode="&#xeb;" glyph-name="edieresis" horiz-adv-x="482" d="M403 0L156 6L73 0Q60 0 58 12T55 31L119 45V444L55 458Q55 464 57 476T73 489Q73 489 89 489T156 486L398 489Q412 489 420 488T428 475L410 369Q406 369 396 369T378 373T369 384V442L186
440L195 274H380V233L194 222L186 49H378L395 106Q398 117 407 120T437 123L431 12Q430 4 424 2T403 0ZM323 574Q304 574 298 590T291 626Q291 646 294 663T298 682Q298 682 316 685T347 689Q364 689 371 673T378 636Q378 617 376 601T372 583Q372 583 354 579T323
574ZM175 574Q156 574 150 590T143 626Q143 646 146 663T150 682Q150 682 168 685T199 689Q216 689 223 673T230 636Q230 617 228 601T224 583Q224 583 206 579T175 574Z" />
<glyph unicode="&#xec;" glyph-name="igrave" horiz-adv-x="309" d="M119 444L55 458Q55 464 57 476T73 489Q73 489 89 489T156 486Q203 488 220 488T237 489Q250 489 252 477T254 459L190 444V45L254 31Q254 25 252 13T237 0L156 6L73 0Q60 0 58 12T55 31L119
45V444ZM519 567L508 548Q490 553 455 564T381 593T307 631Q302 634 302 643Q302 653 307 667T318 694T327 710Q375 672 419 639T491 587T519 567Z" />
<glyph unicode="&#xed;" glyph-name="iacute" horiz-adv-x="309" d="M119 444L55 458Q55 464 57 476T73 489Q73 489 89 489T156 486Q203 488 220 488T237 489Q250 489 252 477T254 459L190 444V45L254 31Q254 25 252 13T237 0L156 6L73 0Q60 0 58 12T55 31L119
45V444ZM313 548L302 567Q302 567 330 586T402 639T494 710Q497 707 503 695T514 668T519 643Q519 634 514 631Q481 610 441 593T366 565T313 548Z" />
<glyph unicode="&#xee;" glyph-name="icircumflex" horiz-adv-x="309" d="M119 444L55 458Q55 464 57 476T73 489Q73 489 89 489T156 486Q203 488 220 488T237 489Q250 489 252 477T254 459L190 444V45L254 31Q254 25 252 13T237 0L156 6L73 0Q60 0 58 12T55 31L119
45V444ZM411 641L314 539L288 556Q321 603 346 643T388 715H433Q450 683 475 643T533 556L507 539L411 641Z" />
<glyph unicode="&#xef;" glyph-name="idieresis" horiz-adv-x="309" d="M119 444L55 458Q55 464 57 476T73 489Q73 489 89 489T156 486Q203 488 220 488T237 489Q250 489 252 477T254 459L190 444V45L254 31Q254 25 252 13T237 0L156 6L73 0Q60 0 58 12T55 31L119
45V444ZM473 574Q454 574 448 590T441 626Q441 646 444 663T448 682Q448 682 466 685T497 689Q514 689 521 673T528 636Q528 617 526 601T522 583Q522 583 504 579T473 574ZM325 574Q306 574 300 590T293 626Q293 646 296 663T300 682Q300 682 318 685T349 689Q366
689 373 673T380 636Q380 617 378 601T374 583Q374 583 356 579T325 574Z" />
<glyph unicode="&#xf0;" glyph-name="eth" horiz-adv-x="582" d="M59 221V273H119V444L55 458Q55 464 57 476T73 489Q73 489 89 489T156 486Q187 488 219 491T283 497Q334 497 382 485T468 444T529 369T552 253Q552 165 519 108T428 24T294 -4L157 6L73 0Q60 0
58 12T55 31L119 45V224L59 221ZM186 50Q214 45 244 43T302 40Q376 40 425 90T474 246Q474 323 450 367T383 431T285 450Q263 450 237 448T186 440L195 273H361V234L195 227L186 50Z" />
<glyph unicode="&#xf1;" glyph-name="ntilde" horiz-adv-x="631" d="M402 489L496 486L564 489Q577 488 579 476T581 458L524 443L521 0H476L166 385L174 45Q190 41 214 38T253 31Q253 24 251 12T235 0L143 6L68 0Q55 0 53 12T50 31L116 46L113 443L50 457Q50
462 52 475T68 489Q68 489 75 489T105 489T173 486L470 110L464 443L385 457Q385 462 387 476T402 489ZM477 681L494 662Q469 618 444 603T393 587Q369 587 347 594T303 607T257 614Q241 614 226 606T195 584L178 603Q204 647 229 662T279 678Q303 678 325 672T369
658T415 651Q432 651 447 659T477 681Z" />
<glyph unicode="&#xf2;" glyph-name="ograve" horiz-adv-x="572" d="M537 253Q537 165 504 107T413 21T279 -8Q209 -8 154 20T67 105T35 247Q35 329 69 384T162 468T290 497Q358 497 414 470T503 389T537 253ZM113 246Q113 140 163 88T286 36Q360 36 409 88T459
246Q459 348 410 398T286 449Q259 449 232 445T184 434Q153 410 133 360T113 246ZM394 567L383 548Q365 553 330 564T256 593T182 631Q177 634 177 643Q177 653 182 667T193 694T202 710Q250 672 294 639T366 587T394 567Z" />
<glyph unicode="&#xf3;" glyph-name="oacute" horiz-adv-x="572" d="M537 253Q537 165 504 107T413 21T279 -8Q209 -8 154 20T67 105T35 247Q35 329 69 384T162 468T290 497Q358 497 414 470T503 389T537 253ZM113 246Q113 140 163 88T286 36Q360 36 409 88T459
246Q459 348 410 398T286 449Q259 449 232 445T184 434Q153 410 133 360T113 246ZM188 548L177 567Q177 567 205 586T277 639T369 710Q372 707 378 695T389 668T394 643Q394 634 389 631Q356 610 316 593T241 565T188 548Z" />
<glyph unicode="&#xf4;" glyph-name="ocircumflex" horiz-adv-x="572" d="M537 253Q537 165 504 107T413 21T279 -8Q209 -8 154 20T67 105T35 247Q35 329 69 384T162 468T290 497Q358 497 414 470T503 389T537 253ZM113 246Q113 140 163 88T286 36Q360 36 409
88T459 246Q459 348 410 398T286 449Q259 449 232 445T184 434Q153 410 133 360T113 246ZM286 641L189 539L163 556Q196 603 221 643T263 715H308Q325 683 350 643T408 556L382 539L286 641Z" />
<glyph unicode="&#xf5;" glyph-name="otilde" horiz-adv-x="572" d="M537 253Q537 165 504 107T413 21T279 -8Q209 -8 154 20T67 105T35 247Q35 329 69 384T162 468T290 497Q358 497 414 470T503 389T537 253ZM113 246Q113 140 163 88T286 36Q360 36 409 88T459
246Q459 348 410 398T286 449Q259 449 232 445T184 434Q153 410 133 360T113 246ZM427 681L444 662Q419 618 394 603T343 587Q319 587 297 594T253 607T207 614Q191 614 176 606T145 584L128 603Q154 647 179 662T229 678Q253 678 275 672T319 658T365 651Q382
651 397 659T427 681Z" />
<glyph unicode="&#xf6;" glyph-name="odieresis" horiz-adv-x="572" d="M537 253Q537 165 504 107T413 21T279 -8Q209 -8 154 20T67 105T35 247Q35 329 69 384T162 468T290 497Q358 497 414 470T503 389T537 253ZM113 246Q113 140 163 88T286 36Q360 36 409 88T459
246Q459 348 410 398T286 449Q259 449 232 445T184 434Q153 410 133 360T113 246ZM348 574Q329 574 323 590T316 626Q316 646 319 663T323 682Q323 682 341 685T372 689Q389 689 396 673T403 636Q403 617 401 601T397 583Q397 583 379 579T348 574ZM200 574Q181
574 175 590T168 626Q168 646 171 663T175 682Q175 682 193 685T224 689Q241 689 248 673T255 636Q255 617 253 601T249 583Q249 583 231 579T200 574Z" />
<glyph unicode="&#xf7;" glyph-name="divide" horiz-adv-x="510" d="M215 402Q215 419 227 431T255 443Q272 443 284 431T296 402Q296 386 284 374T255 362Q239 362 227 374T215 402ZM73 249V306H437V249H73ZM215 152Q215 169 227 181T255 193Q272 193 284 181T296
152Q296 136 284 124T255 112Q239 112 227 124T215 152Z" />
<glyph unicode="&#xf8;" glyph-name="oslash" horiz-adv-x="572" d="M96 -73L146 24Q95 53 65 108T35 247Q35 329 69 384T162 468T290 497Q341 497 385 482L429 567H483L429 462Q477 434 507 382T537 253Q537 165 504 107T413 21T279 -8Q231 -8 191 5L150 -73H96ZM113
246Q113 187 129 145T174 77L360 434Q327 449 286 449Q259 449 232 445T184 434Q153 410 133 360T113 246ZM459 246Q459 302 443 342T400 408L214 50Q247 36 286 36Q360 36 409 88T459 246Z" />
<glyph unicode="&#xf9;" glyph-name="ugrave" horiz-adv-x="579" d="M220 489Q234 489 236 476T239 458L170 443V152Q170 103 200 72T301 41Q371 41 403 75T436 153V443L366 458Q366 469 369 479T385 489L465 486Q500 488 509 488T519 489Q534 489 536 477T539
458L492 443V155Q492 82 441 37T300 -8Q208 -8 154 30T99 155V443L45 457Q45 462 47 475T62 489Q62 489 66 489T86 489T137 486Q184 488 202 488T220 489ZM413 567L402 548Q384 553 349 564T275 593T201 631Q196 634 196 643Q196 653 201 667T212 694T221 710Q269
672 313 639T385 587T413 567Z" />
<glyph unicode="&#xfa;" glyph-name="uacute" horiz-adv-x="579" d="M220 489Q234 489 236 476T239 458L170 443V152Q170 103 200 72T301 41Q371 41 403 75T436 153V443L366 458Q366 469 369 479T385 489L465 486Q500 488 509 488T519 489Q534 489 536 477T539
458L492 443V155Q492 82 441 37T300 -8Q208 -8 154 30T99 155V443L45 457Q45 462 47 475T62 489Q62 489 66 489T86 489T137 486Q184 488 202 488T220 489ZM207 548L196 567Q196 567 224 586T296 639T388 710Q391 707 397 695T408 668T413 643Q413 634 408 631Q375
610 335 593T260 565T207 548Z" />
<glyph unicode="&#xfb;" glyph-name="ucircumflex" horiz-adv-x="579" d="M220 489Q234 489 236 476T239 458L170 443V152Q170 103 200 72T301 41Q371 41 403 75T436 153V443L366 458Q366 469 369 479T385 489L465 486Q500 488 509 488T519 489Q534 489 536 477T539
458L492 443V155Q492 82 441 37T300 -8Q208 -8 154 30T99 155V443L45 457Q45 462 47 475T62 489Q62 489 66 489T86 489T137 486Q184 488 202 488T220 489ZM305 641L208 539L182 556Q215 603 240 643T282 715H327Q344 683 369 643T427 556L401 539L305 641Z" />
<glyph unicode="&#xfc;" glyph-name="udieresis" horiz-adv-x="579" d="M220 489Q234 489 236 476T239 458L170 443V152Q170 103 200 72T301 41Q371 41 403 75T436 153V443L366 458Q366 469 369 479T385 489L465 486Q500 488 509 488T519 489Q534 489 536 477T539
458L492 443V155Q492 82 441 37T300 -8Q208 -8 154 30T99 155V443L45 457Q45 462 47 475T62 489Q62 489 66 489T86 489T137 486Q184 488 202 488T220 489ZM367 574Q348 574 342 590T335 626Q335 646 338 663T342 682Q342 682 360 685T391 689Q408 689 415 673T422
636Q422 617 420 601T416 583Q416 583 398 579T367 574ZM219 574Q200 574 194 590T187 626Q187 646 190 663T194 682Q194 682 212 685T243 689Q260 689 267 673T274 636Q274 617 272 601T268 583Q268 583 250 579T219 574Z" />
<glyph unicode="&#xfd;" glyph-name="yacute" horiz-adv-x="468" d="M275 46L346 31Q346 25 344 13T329 0L242 6L153 0Q139 0 137 12T134 31L205 46V194L65 443L15 459Q15 464 17 476T34 489Q34 489 45 489T104 486L181 489Q192 489 195 479T198 458L140 444L246
240L344 444Q330 448 314 451T284 458Q284 469 287 479T302 489L378 486L436 489Q449 488 451 476T453 459L404 443L275 195V46ZM146 548L135 567Q135 567 163 586T235 639T327 710Q330 707 336 695T347 668T352 643Q352 634 347 631Q314 610 274 593T199 565T146
548Z" />
<glyph unicode="&#xfe;" glyph-name="thorn" horiz-adv-x="454" d="M73 0Q60 0 58 12T55 31L119 45V444L55 458Q55 464 57 476T73 489Q73 489 89 489T156 486Q203 488 220 488T237 489Q250 489 252 477T254 459L190 444V402H266Q315 402 350 382T405 328T424 251Q424
213 403 179T340 121T234 92L190 88V45L254 31Q254 25 252 13T237 0L156 6L73 0ZM190 133H239Q279 133 305 151T344 196T357 252Q357 293 332 327T253 362L190 355V133Z" />
<glyph unicode="&#xff;" glyph-name="ydieresis" horiz-adv-x="468" d="M275 46L346 31Q346 25 344 13T329 0L242 6L153 0Q139 0 137 12T134 31L205 46V194L65 443L15 459Q15 464 17 476T34 489Q34 489 45 489T104 486L181 489Q192 489 195 479T198 458L140 444L246
240L344 444Q330 448 314 451T284 458Q284 469 287 479T302 489L378 486L436 489Q449 488 451 476T453 459L404 443L275 195V46ZM306 574Q287 574 281 590T274 626Q274 646 277 663T281 682Q281 682 299 685T330 689Q347 689 354 673T361 636Q361 617 359 601T355
583Q355 583 337 579T306 574ZM158 574Q139 574 133 590T126 626Q126 646 129 663T133 682Q133 682 151 685T182 689Q199 689 206 673T213 636Q213 617 211 601T207 583Q207 583 189 579T158 574Z" />
<glyph unicode="&#x2013;" glyph-name="endash" horiz-adv-x="591" d="M125 225V281H486V225H125Z" />
<glyph unicode="&#x2014;" glyph-name="emdash" horiz-adv-x="839" d="M125 225V281H734V225H125Z" />
<glyph unicode="&#x2018;" glyph-name="quoteleft" horiz-adv-x="204" d="M77 476Q55 476 43 508T31 585Q31 620 47 652T94 707T164 739L173 710Q134 698 113 672T91 612V608Q96 609 99 609T107 609Q130 609 137 590T144 548Q144 525 140 504T136 483Q136 483
118 480T77 476Z" />
<glyph unicode="&#x2019;" glyph-name="quoteright" horiz-adv-x="204" d="M127 730Q149 730 161 698T173 621Q173 586 157 554T110 498T40 467L31 496Q70 508 91 534T113 594V598Q109 597 105 597T97 597Q75 597 68 616T60 658Q60 681 64 702T68 723Q68 723 86
726T127 730Z" />
<glyph unicode="&#x201a;" glyph-name="quotesinglbase" horiz-adv-x="197" d="M115 121Q137 121 149 89T161 12Q161 -23 145 -55T98 -110T28 -142L19 -113Q58 -101 79 -75T101 -15V-11Q97 -12 93 -12T85 -12Q63 -12 56 7T48 49Q48 72 52 93T56 114Q56 114 74
117T115 121Z" />
<glyph unicode="&#x201c;" glyph-name="quotedblleft" horiz-adv-x="380" d="M77 476Q55 476 43 508T31 585Q31 620 47 652T94 707T164 739L173 710Q134 698 113 672T91 612V608Q96 609 99 609T107 609Q130 609 137 590T144 548Q144 525 140 504T136 483Q136 483
118 480T77 476ZM253 476Q231 476 219 508T207 585Q207 620 223 652T270 707T340 739L349 710Q310 698 289 672T267 612V608Q272 609 275 609T283 609Q306 609 313 590T320 548Q320 525 316 504T312 483Q312 483 294 480T253 476Z" />
<glyph unicode="&#x201d;" glyph-name="quotedblright" horiz-adv-x="380" d="M303 730Q325 730 337 698T349 621Q349 586 333 554T286 498T216 467L207 496Q246 508 267 534T289 594V598Q285 597 281 597T273 597Q251 597 244 616T236 658Q236 681 240 702T244
723Q244 723 262 726T303 730ZM127 730Q149 730 161 698T173 621Q173 586 157 554T110 498T40 467L31 496Q70 508 91 534T113 594V598Q109 597 105 597T97 597Q75 597 68 616T60 658Q60 681 64 702T68 723Q68 723 86 726T127 730Z" />
<glyph unicode="&#x201e;" glyph-name="quotedblbase" horiz-adv-x="380" d="M303 121Q325 121 337 89T349 12Q349 -23 333 -55T286 -111T216 -142L207 -113Q246 -101 267 -75T289 -15V-11Q285 -12 281 -12T273 -12Q251 -12 244 7T236 49Q236 72 240 93T244 114Q244
114 262 117T303 121ZM127 121Q149 121 161 89T173 12Q173 -23 157 -55T110 -111T40 -142L31 -113Q70 -101 91 -75T113 -15V-11Q109 -12 105 -12T97 -12Q75 -12 68 7T60 49Q60 72 64 93T68 114Q68 114 86 117T127 121Z" />
<glyph unicode="&#x2022;" glyph-name="bullet" horiz-adv-x="251" d="M147 347Q178 347 189 325T201 271Q201 246 196 222T191 197Q191 197 177 195T142 189T105 186Q71 186 61 209T50 260Q50 289 56 314T62 339Q62 339 77 341T112 345T147 347Z" />
<glyph unicode="&#x2039;" glyph-name="guilsinglleft" horiz-adv-x="297" d="M30 213V241L218 444L247 420L117 227L247 34L218 10L30 213Z" />
<glyph unicode="&#x203a;" glyph-name="guilsinglright" horiz-adv-x="297" d="M267 241V213L79 10L50 34L180 227L50 420L79 444L267 241Z" />
</font>
</defs>
</svg>
