<?xml version="1.0" standalone="no"?>
<!DOCTYPE svg PUBLIC "-//W3C//DTD SVG 1.1//EN" "http://www.w3.org/Graphics/SVG/1.1/DTD/svg11.dtd">
<svg xmlns="http://www.w3.org/2000/svg">
<defs >
<font id="Georama" horiz-adv-x="475" ><font-face
    font-family="Georama ExtraCondensed Thin"
    units-per-em="1000"
    panose-1="2 11 0 0 3 2 0 2 0 4"
    ascent="968"
    descent="-226"
    alphabetic="0" />
<glyph unicode=" " horiz-adv-x="269" />
<glyph unicode="!" horiz-adv-x="225" d="M76 262L72 740H155L150 262H76ZM65 44Q65 71 75 81T113 92Q141 92 151 82T161 44Q161 18 151 8T113 -3Q86 -3 76 7T65 44Z" />
<glyph unicode="&quot;" horiz-adv-x="322" d="M54 427L48 700H125L119 427H54ZM202 427L196 700H273L267 427H202Z" />
<glyph unicode="#" horiz-adv-x="597" d="M82 455V518H183L214 700H289L259 518H396L427 700H502L471 518H548V455H462L424 239H515V176H416L387 0H311L340 176H203L174 0H98L128 176H50V239H136L174 455H82ZM250 455L212 239H349L387 455H250Z" />
<glyph unicode="$" horiz-adv-x="597" d="M282 -10Q255 -10 226 -7T167 1T109 14T57 30L75 96Q100 88 128 81T185 69T241 61T293 58Q375 58 414 84T453 162Q453 189 442 211T407 251T349 286T267 321Q206 344 165 373T102 442T81 534Q81 591 109 630T189 689T314
710Q348 710 383 706T451 696T510 679L493 613Q468 621 438 627T377 636T319 640Q244 640 206 614T167 538Q167 511 178 489T210 448T264 413T343 380Q408 358 452 330T518 262T540 168Q540 122 522 88T471 32T390 0T282 -10ZM275 -105V0L343 5V-105H275ZM275 697V804H343V701L275
697Z" />
<glyph unicode="%" horiz-adv-x="920" d="M50 765Q50 825 62 865T96 928T149 961T217 971Q255 971 286 961T339 928T373 865T385 765Q385 705 373 666T339 603T286 569T217 559Q180 559 149 569T96 602T62 665T50 765ZM114 764Q114 700 127 665T164 616T217 603Q248
603 271 616T307 664T321 764Q321 831 308 866T271 913T217 926Q188 926 165 913T128 865T114 764ZM309 -9L254 -4L614 733L669 728L309 -9ZM536 197Q536 257 548 297T582 360T635 393T703 403Q741 403 772 393T825 360T859 297T871 197Q871 137 859 98T825 35T772
1T703 -9Q666 -9 635 1T582 34T548 97T536 197ZM600 196Q600 132 613 97T650 48T703 35Q734 35 757 48T793 96T807 196Q807 263 794 298T757 345T703 358Q674 358 651 345T614 297T600 196Z" />
<glyph unicode="&amp;" horiz-adv-x="656" d="M558 -9L174 376Q150 404 135 430T112 484T105 539Q105 592 127 630T193 689T307 710Q401 710 448 671T495 558Q495 523 485 493T454 439T396 398L361 438Q392 456 406 481T420 544Q420 576 408 597T371 630T309 642Q250
642 221 616T191 540Q191 520 196 500T215 459T250 414L653 0L558 -9ZM277 -10Q163 -10 100 45T36 190Q36 262 70 313T174 399L214 352Q165 323 141 287T117 198Q117 155 137 123T196 73T286 55Q341 55 380 74T444 129L487 78Q461 50 429 30T358 0T277 -10ZM533
111L482 171Q502 199 512 236T523 319Q524 332 523 344T519 369L589 372Q591 358 592 345T594 314Q594 256 579 205T533 111Z" />
<glyph unicode="&apos;" horiz-adv-x="173" d="M54 427L48 700H125L119 427H54Z" />
<glyph unicode="(" horiz-adv-x="306" d="M72 265Q72 363 85 446T124 594T191 699T288 750V684Q251 671 224 638T178 551T152 427T143 265Q143 175 151 104T178 -21T223 -107T288 -154V-220Q232 -209 192 -169T125 -65T85 83T72 265Z" />
<glyph unicode=")" horiz-adv-x="306" d="M18 -154Q55 -141 82 -108T127 -21T154 103T163 265Q163 355 155 426T128 551T82 637T18 684V750Q73 739 114 699T181 595T221 447T234 265Q234 167 221 84T182 -64T114 -169T18 -220V-154Z" />
<glyph unicode="*" horiz-adv-x="329" d="M87 365L52 389L125 504L6 554L20 592L140 553L143 690H186L190 553L309 592L323 554L205 504L276 388L242 365L165 473L87 365Z" />
<glyph unicode="+" horiz-adv-x="483" d="M204 91V266H49V335H204V510H278V335H434V266H278V91H204Z" />
<glyph unicode="," horiz-adv-x="184" d="M53 56L130 62Q136 46 139 28T143 -11Q143 -43 134 -77T106 -143T55 -197L-5 -177Q30 -147 46 -102T63 -11Q63 3 61 20T53 56Z" />
<glyph unicode="-" horiz-adv-x="316" d="M36 248V320H281V248H36Z" />
<glyph unicode="." horiz-adv-x="186" d="M45 45Q45 71 55 82T93 93Q121 93 131 82T141 45Q141 19 131 8T93 -3Q66 -3 56 8T45 45Z" />
<glyph unicode="/" horiz-adv-x="353" d="M3 -210L280 740H350L73 -210H3Z" />
<glyph unicode="0" horiz-adv-x="597" d="M29 350Q29 454 48 524T104 634T189 692T299 710Q359 710 408 693T494 634T549 524T568 350Q568 246 548 177T493 66T408 8T299 -10Q239 -10 190 7T105 66T49 176T29 350ZM114 348Q114 261 128 205T167 116T226 71T299
58Q338 58 371 71T430 116T469 204T483 348Q483 437 469 494T430 584T371 629T299 642Q260 642 227 629T168 584T128 495T114 348Z" />
<glyph unicode="1" horiz-adv-x="597" d="M64 0V70H292V605L72 496L51 566L333 703H376V70H567V0H64Z" />
<glyph unicode="2" horiz-adv-x="598" d="M55 59Q140 135 200 191T299 291T359 368T389 431T397 490Q397 536 380 566T332 611T256 627Q215 627 173 615T91 577L63 648Q93 668 127 682T199 703T274 710Q342 710 389 686T462 615T488 504Q488 472 481 441T455 375T401
297T311 199T174 70H552V0H58L55 59Z" />
<glyph unicode="3" horiz-adv-x="598" d="M28 50L54 111Q85 95 116 84T182 68T259 62Q322 62 365 79T430 129T453 209Q453 272 407 301T272 330H164V395H285Q330 395 361 409T408 451T424 513Q424 570 382 602T260 635Q215 635 169 626T79 597L57 663Q86 678 120
688T193 704T274 710Q348 710 400 689T480 627T508 530Q508 471 479 429T396 370Q466 357 502 313T539 204Q539 137 506 89T412 16T265 -10Q216 -10 175 -4T99 16T28 50Z" />
<glyph unicode="4" horiz-adv-x="598" d="M25 162L22 226L386 704L460 700V230H574V162H460V0H371V162H25ZM104 231H373V582L104 231Z" />
<glyph unicode="5" horiz-adv-x="598" d="M38 47L65 112Q92 99 119 88T181 71T262 65Q331 65 374 82T439 132T460 211Q460 245 451 269T422 309T369 334T289 342H89L79 353L117 700H509V625H182L159 408H326Q400 408 448 387T521 324T546 214Q546 140 513 91T417
16T268 -10Q218 -10 179 -4T105 16T38 47Z" />
<glyph unicode="6" horiz-adv-x="598" d="M308 -10Q218 -10 157 25T64 137T33 333Q33 463 67 546T167 669T332 710Q372 710 408 706T477 694T541 673L519 606Q488 615 460 622T403 634T342 638Q264 638 215 606T143 507T120 340Q120 263 133 209T170 122T230 74T312
59Q391 59 434 100T478 218Q478 265 458 297T402 346T316 363Q276 363 239 352T169 319T113 270L108 337Q133 365 170 385T251 417T342 429Q412 429 460 405T534 334T560 220Q560 110 495 50T308 -10Z" />
<glyph unicode="7" horiz-adv-x="598" d="M199 0Q199 52 205 98T225 191T261 287T318 396L446 620H49V700H547V643L386 354Q352 293 330 237T296 123T283 0H199Z" />
<glyph unicode="8" horiz-adv-x="598" d="M355 377Q398 400 423 422T458 470T468 526Q468 584 426 613T301 643Q248 643 212 630T156 593T137 532Q137 500 152 478T192 442T251 417T320 397T392 377T461 351T519 315T560 262T575 186Q575 121 543 78T449 12T294
-10Q163 -10 93 40T23 184Q23 227 39 264T89 331T175 385L231 355Q168 326 139 287T109 191Q109 126 158 91T301 55Q391 55 438 86T486 179Q486 214 472 238T432 278T375 306T307 327T235 346T167 371T110 406T70 457T55 530Q55 617 120 663T305 710Q423 710 485
666T548 537Q548 501 535 468T493 406T414 352L355 377Z" />
<glyph unicode="9" horiz-adv-x="598" d="M260 -10Q221 -10 185 -6T114 7T50 28L71 94Q102 84 131 77T189 66T250 62Q327 62 376 94T447 193T470 360Q470 437 459 491T425 578T368 626T288 641Q235 641 196 623T134 570T112 483Q112 436 132 403T189 353T274 336Q314
336 352 347T424 380T482 433L483 361Q458 333 421 313T341 282T251 271Q182 271 132 295T57 367T31 480Q31 554 61 605T151 683T292 710Q382 710 440 674T528 562T557 365Q557 236 524 153T424 30T260 -10Z" />
<glyph unicode=":" horiz-adv-x="186" d="M45 45Q45 71 55 82T93 93Q121 93 131 82T141 45Q141 19 131 8T93 -3Q66 -3 56 8T45 45ZM45 491Q45 517 55 528T93 539Q121 539 131 528T141 491Q141 465 131 454T93 443Q66 443 56 454T45 491Z" />
<glyph unicode=";" horiz-adv-x="186" d="M54 56L131 62Q137 46 140 28T144 -11Q144 -43 135 -77T107 -143T56 -197L-4 -177Q31 -147 47 -102T64 -11Q64 3 62 20T54 56ZM45 491Q45 517 55 528T93 539Q121 539 131 528T141 491Q141 465 131 454T93 443Q66 443 56
454T45 491Z" />
<glyph unicode="&lt;" horiz-adv-x="483" d="M438 79L45 263V331L438 516V448L121 297L438 147V79Z" />
<glyph unicode="=" horiz-adv-x="479" d="M430 225V156H49V225H430ZM430 440V371H49V440H430Z" />
<glyph unicode="&gt;" horiz-adv-x="483" d="M438 262L45 79V147L362 297L45 447V516L438 331V262Z" />
<glyph unicode="?" horiz-adv-x="442" d="M166 262L165 370Q214 391 247 411T298 452T324 498T332 548Q332 580 322 603T293 642T252 665T202 673Q163 673 121 661T38 620L10 686Q38 706 72 720T142 742T214 750Q254 750 290 739T356 705T402 644T419 556Q419
501 400 462T342 391T240 331V262H166ZM157 44Q157 71 167 81T205 92Q232 92 242 82T253 44Q253 18 243 8T205 -3Q178 -3 168 7T157 44Z" />
<glyph unicode="@" horiz-adv-x="768" d="M379 -124Q301 -124 239 -102T133 -31T65 91T41 269Q41 364 63 444T129 584T242 677T403 710Q511 710 583 670T692 549T728 346Q728 287 720 235T694 143T649 80T584 58Q557 58 538 67T508 97T491 146T484 214Q469 165
447 132T395 80T330 62Q292 62 264 82T219 147T203 263Q203 317 215 365T252 451T316 511T408 533Q431 533 455 530T504 520T555 506L539 249Q536 192 542 162T563 119T596 107Q623 107 642 138T672 223T683 342Q683 450 654 522T561 632T397 670Q317 670 259 640T164
555T108 427T89 267Q89 173 109 107T168 -1T261 -61T381 -81Q437 -81 485 -67T571 -30L586 -65Q562 -80 529 -93T457 -115T379 -124ZM352 125Q373 125 392 135T428 171T458 243T479 363L487 467Q466 474 445 477T405 480Q372 480 348 462T308 412T283 343T275 265Q275
214 285 183T313 139T352 125Z" />
<glyph unicode="A" horiz-adv-x="601" d="M12 0L252 707H349L590 0H495L435 181H162L102 0H12ZM180 253H418L299 623L180 253Z" />
<glyph unicode="B" horiz-adv-x="617" d="M71 0V698Q124 703 165 705T241 708T307 710Q395 710 447 693T524 637T549 538Q549 478 521 435T442 373V372Q509 357 546 311T584 194Q584 140 569 101T522 38T439 2T312 -10Q288 -10 267 -10T226 -9T184 -7T134 -4T71
0ZM158 390H346Q383 390 410 406T452 450T467 516Q467 559 451 586T398 626T300 639Q284 639 272 639T249 639T225 638T197 636T158 633V390ZM158 68Q187 66 208 65T247 63T278 62T307 61Q377 61 418 74T477 118T495 197Q495 257 458 290T350 323H158V68Z" />
<glyph unicode="C" horiz-adv-x="594" d="M43 338Q43 471 78 553T184 672T356 710Q385 710 410 709T458 704T503 696T548 684L531 615Q502 622 475 627T421 634T364 636Q306 636 263 621T190 571T146 479T131 338Q131 262 145 210T188 125T259 78T356 63Q403 63
455 70T549 90L565 20Q542 13 517 8T464 -2T406 -8T343 -10Q271 -10 215 8T121 67T63 174T43 338Z" />
<glyph unicode="D" horiz-adv-x="660" d="M302 -10Q264 -10 225 -9T148 -6T71 -3V701Q112 704 149 706T222 709T295 710Q408 710 479 673T583 556T616 348Q616 224 581 145T477 28T302 -10ZM302 60Q377 60 426 88T501 180T526 348Q526 455 502 519T428 611T296
640Q278 640 254 639T205 637T158 635V65Q173 64 192 63T231 62T269 61T302 60Z" />
<glyph unicode="E" horiz-adv-x="559" d="M71 0V700H515V623H158V403H491V327H158V77H532V0H71Z" />
<glyph unicode="F" horiz-adv-x="530" d="M71 0V700H513V622H158V363H466V288H158V0H71Z" />
<glyph unicode="G" horiz-adv-x="632" d="M43 338Q43 464 77 546T179 669T348 710Q376 710 403 708T455 703T505 694T552 681L536 611Q490 624 445 630T354 636Q280 636 230 604T155 505T130 337Q130 242 154 181T225 90T340 60Q387 60 426 65T498 81V288H331V357H576V31Q530
11 467 1T331 -10Q235 -10 172 28T76 143T43 338Z" />
<glyph unicode="H" horiz-adv-x="680" d="M70 0V700H156V347H523V700H609V0H523V269H156V0H70Z" />
<glyph unicode="I" horiz-adv-x="227" d="M70 0V700H156V0H70Z" />
<glyph unicode="J" horiz-adv-x="469" d="M12 19L28 87Q55 80 81 75T132 67T178 64Q226 64 258 78T307 126T324 214V624H54V700H410V198Q410 130 388 84T319 14T199 -10Q170 -10 138 -7T74 3T12 19Z" />
<glyph unicode="K" horiz-adv-x="620" d="M586 -10Q559 -10 532 0T474 33T404 93L158 332V0H71V700H158V442L431 180Q463 149 486 130T528 100T562 85T593 80Q595 80 599 80T606 80V-8Q600 -9 595 -9T586 -10ZM269 301L214 352Q242 372 275 399T341 458T408 528T469
611T520 705L587 672Q562 608 526 553T446 452T358 368T269 301Z" />
<glyph unicode="L" horiz-adv-x="510" d="M70 0V700H157V76H494V0H70Z" />
<glyph unicode="M" horiz-adv-x="762" d="M71 0V700H159L383 338L606 700H691V0H612V568L401 231H359L150 567V0H71Z" />
<glyph unicode="N" horiz-adv-x="670" d="M71 0V703H152L522 136V700H599V-1H518L149 561V0H71Z" />
<glyph unicode="O" horiz-adv-x="692" d="M345 60Q379 60 411 68T470 95T517 147T548 230T560 350Q560 420 549 470T517 554T470 606T411 633T345 641Q311 641 280 633T221 606T174 554T143 470T131 349Q131 280 142 231T174 149T221 96T279 68T345 60ZM345 -10Q294
-10 249 1T166 36T101 102T59 205T44 350Q44 434 58 495T100 597T164 664T247 699T345 710Q397 710 443 700T526 665T591 599T633 497T648 352Q648 267 634 205T592 102T527 36T444 1T345 -10Z" />
<glyph unicode="P" horiz-adv-x="611" d="M70 0V702Q131 705 174 707T246 709T295 710Q380 710 435 698T522 658T567 588T580 481Q580 415 566 369T520 294T440 251T319 238Q299 238 284 238T255 238T227 238T196 239T157 241V0H70ZM157 635V311Q178 311 195 310T228
309T260 309T296 308Q354 308 392 317T452 347T483 401T493 482Q493 525 485 554T455 603T397 631T301 640Q288 640 275 640T246 640T208 638T157 635Z" />
<glyph unicode="Q" horiz-adv-x="691" d="M434 17Q448 -32 463 -63T499 -110T544 -126Q559 -126 575 -122T611 -109L623 -180Q598 -190 575 -195T529 -200Q487 -200 456 -179T402 -112T360 2L434 17ZM345 59Q379 59 411 67T470 94T517 147T548 230T560 350Q560
420 549 470T517 553T470 606T411 633T345 641Q311 641 280 633T221 606T174 554T142 470T131 350Q131 280 142 231T173 148T221 95T279 68T345 59ZM345 -10Q293 -10 248 1T164 37T100 103T58 205T43 350Q43 434 57 495T98 598T162 664T246 699T345 710Q398 710
444 700T527 665T591 599T633 497T648 352Q648 267 633 205T592 102T528 36T444 1T345 -10Z" />
<glyph unicode="R" horiz-adv-x="650" d="M615 -10Q590 -10 565 -1T512 30T457 84T396 164T329 273Q318 272 303 272T278 272Q250 272 219 272T158 273V0H71V702Q115 705 152 706T222 709T289 710Q366 710 420 700T508 665T558 602T574 505Q574 443 556 401T501
333T414 294Q449 234 480 192T537 125T584 87T624 74Q626 74 631 74T639 76L641 -7Q636 -8 630 -9T615 -10ZM293 344Q343 344 379 352T438 377T473 423T484 494Q484 548 467 580T407 626T291 640Q271 640 256 640T226 639T196 638T158 635V347Q177 346 194 346T227
345T260 344T293 344Z" />
<glyph unicode="S" horiz-adv-x="571" d="M504 679L486 611Q468 617 445 622T397 632T347 638T300 640Q223 640 178 611T132 528Q132 504 142 485T175 449T235 416T326 382Q384 364 424 344T489 300T526 247T538 179Q538 119 507 77T415 13T268 -10Q240 -10 207
-7T140 1T76 14T23 31L42 99Q65 90 94 83T154 71T215 63T272 60Q330 60 369 73T429 111T450 172Q450 197 438 217T401 253T337 286T242 321Q189 340 151 360T90 404T55 457T43 523Q43 564 60 598T109 658T189 696T300 710Q336 710 374 706T446 695T504 679Z" />
<glyph unicode="T" horiz-adv-x="536" d="M526 623H311V0H225V623H10V700H526V623Z" />
<glyph unicode="U" horiz-adv-x="655" d="M59 211V700H144V210Q144 174 154 148T182 106T224 79T274 66T328 62Q356 62 382 66T432 79T473 106T501 148T511 210V700H596V211Q596 159 583 122T544 59T486 18T412 -3T327 -10Q284 -10 244 -4T170 18T111 58T73 121T59 211Z" />
<glyph unicode="V" horiz-adv-x="596" d="M249 0L7 698L99 703L299 86L497 703L589 698L348 0H249Z" />
<glyph unicode="W" horiz-adv-x="795" d="M632 0H542L396 556L248 0H163L7 699L98 702L211 95L359 674H438L584 96L697 702L788 699L632 0Z" />
<glyph unicode="X" horiz-adv-x="595" d="M13 3L249 359L31 697L131 703L304 426L473 703L567 697L351 362L579 3L482 -4L296 292L110 -4L13 3Z" />
<glyph unicode="Y" horiz-adv-x="586" d="M252 0V284L6 697L99 703L295 344L485 703L578 697L338 284V0H252Z" />
<glyph unicode="Z" horiz-adv-x="566" d="M25 0V68L422 627V628H47V700H523V632L127 74V72H546V0H25Z" />
<glyph unicode="[" horiz-adv-x="306" d="M136 -149H284V-210H69V740H284V679H136V-149Z" />
<glyph unicode="\" horiz-adv-x="353" d="M73 740L350 -210H281L3 740H73Z" />
<glyph unicode="]" horiz-adv-x="306" d="M21 -149H170V679H21V740H237V-210H21V-149Z" />
<glyph unicode="^" horiz-adv-x="483" d="M45 262L203 707H280L438 262H371L241 621L112 262H45Z" />
<glyph unicode="_" horiz-adv-x="773" d="M6 -159V-93H767V-159H6Z" />
<glyph unicode="`" horiz-adv-x="410" d="M237 596L103 790H191L308 596H237Z" />
<glyph unicode="a" horiz-adv-x="511" d="M30 129Q30 177 50 208T111 257T212 286T352 304V379Q352 425 322 449T231 474Q211 474 186 472T134 465T78 451L63 519Q106 532 151 539T236 546Q302 546 346 528T413 472T436 380V120Q436 87 445 76T471 64Q477 64 484
65T499 69L508 7Q493 -1 477 -5T442 -10Q406 -10 385 8T358 65Q334 46 305 29T241 1T165 -10Q134 -10 110 -1T67 25T40 69T30 129ZM115 136Q115 93 136 72T194 50Q222 50 250 59T304 83T352 119V254Q298 249 255 243T180 223T132 189T115 136Z" />
<glyph unicode="b" horiz-adv-x="536" d="M63 14V740H146V488Q191 518 233 532T318 546Q405 546 451 478T498 282Q498 179 472 115T391 20T249 -10Q209 -10 163 -4T63 14ZM146 65Q178 59 203 56T250 52Q306 52 341 74T394 145T412 277Q412 343 398 386T356 452T289
475Q266 475 244 470T198 455T146 425V65Z" />
<glyph unicode="c" horiz-adv-x="481" d="M38 260Q38 357 67 420T152 515T289 546Q315 546 343 544T398 537T448 526L436 456Q414 461 390 464T342 470T296 473Q241 473 203 450T144 380T124 260Q124 193 144 150T203 85T297 63Q320 63 345 65T395 71T444 81L457
13Q421 3 373 -3T280 -10Q160 -10 99 56T38 260Z" />
<glyph unicode="d" horiz-adv-x="536" d="M401 -1L390 48Q345 18 304 4T218 -10Q132 -10 85 58T38 256Q38 356 63 420T143 515T279 546Q304 546 332 544T390 535V740H474V-1H401ZM390 110V469Q359 477 334 480T286 483Q231 483 195 462T142 392T125 262Q125 196
139 151T181 84T248 61Q271 61 293 66T338 82T390 110Z" />
<glyph unicode="e" horiz-adv-x="521" d="M269 -10Q214 -10 171 5T99 52T54 134T38 254Q38 335 56 391T109 482T187 531T285 546Q387 546 437 492T487 315Q487 309 487 298T485 277Q464 276 429 273T346 267T243 262T125 259Q124 254 124 249T124 238Q124 173
142 134T196 76T283 58Q315 58 348 61T411 71T468 83L479 20Q452 11 419 4T348 -6T269 -10ZM126 317Q174 317 218 318T300 322T364 326T402 329Q401 385 388 419T348 468T279 484Q253 484 228 477T182 451T146 400T126 317Z" />
<glyph unicode="f" horiz-adv-x="361" d="M104 0V429H20V485L104 492V514Q104 596 125 648T186 725T286 750Q318 750 348 745T414 729L402 667Q376 675 352 679T304 683Q246 683 217 644T187 513V492H347V429H186V0H104Z" />
<glyph unicode="g" horiz-adv-x="539" d="M256 -220Q140 -220 81 -184T22 -76Q22 -48 31 -25T60 18T110 51L164 33Q140 23 125 9T102 -22T94 -60Q94 -92 112 -114T167 -147T261 -158Q320 -158 360 -146T421 -110T443 -54Q443 -29 432 -14T399 10T340 18H203Q154
18 120 30T68 67T50 127Q50 164 69 191T125 240L173 222Q146 208 132 190T117 148Q117 121 137 106T202 90H364Q442 90 482 55T522 -46Q522 -100 491 -139T400 -199T256 -220ZM263 198Q162 198 111 242T59 372Q59 459 110 502T263 546Q364 546 415 503T467 372Q467
286 416 242T263 198ZM263 256Q325 256 355 283T385 372Q385 434 355 461T263 489Q201 489 171 462T140 372Q140 311 170 284T263 256ZM417 460L382 505Q395 537 422 553T486 569Q497 569 506 568T526 565L517 498Q510 500 502 501T485 502Q462 502 445 492T417
460Z" />
<glyph unicode="h" horiz-adv-x="543" d="M62 0V740H147V491Q178 509 207 521T266 539T331 546Q379 546 412 530T463 480T481 399V0H396V376Q396 424 372 449T298 474Q271 474 246 468T197 453T147 430V0H62Z" />
<glyph unicode="i" horiz-adv-x="209" d="M105 644Q77 644 65 654T53 689Q53 715 64 725T105 735Q133 735 144 725T156 689Q156 664 145 654T105 644ZM63 0V536H146V0H63Z" />
<glyph unicode="j" horiz-adv-x="213" d="M150 536V20Q150 -72 122 -126T33 -200Q25 -202 17 -203T-1 -206T-19 -208V-137Q-12 -136 -7 -134T5 -129Q36 -113 51 -76T67 24V536H150ZM108 644Q80 644 69 654T57 689Q57 715 68 725T108 735Q136 735 147 725T159 689Q159
664 148 654T108 644Z" />
<glyph unicode="k" horiz-adv-x="505" d="M473 -9Q459 -9 444 -6T411 10T366 46T299 112L143 270V0H62V740H143V381L318 202Q369 151 400 125T449 89T483 79Q486 79 489 79T497 81L500 -6Q494 -7 488 -8T473 -9ZM242 242L176 278Q208 306 240 335T301 397T352
465T389 545L472 536Q457 491 431 449T373 370T306 302T242 242Z" />
<glyph unicode="l" horiz-adv-x="262" d="M146 740V148Q146 113 153 95T174 70T204 64Q215 64 227 66T254 73L263 6Q246 -1 225 -5T182 -10Q145 -10 118 3T77 49T63 141V740H146Z" />
<glyph unicode="m" horiz-adv-x="821" d="M63 0V536H139V489Q167 507 195 519T252 538T314 545Q344 545 366 538T405 517T431 484Q457 501 485 514T547 537T620 546Q650 546 673 539T713 517T739 485T754 444T759 399V0H675V376Q675 393 671 410T658 442T630 465T584
474Q557 474 532 468T486 451T446 430Q450 418 451 405T453 380V0H370V374Q370 392 366 409T352 441T325 464T279 473Q255 473 233 468T190 453T146 430V0H63Z" />
<glyph unicode="n" horiz-adv-x="543" d="M63 0V536H139V489Q172 507 202 520T264 539T331 546Q380 546 413 529T463 480T480 399V0H397V376Q397 424 373 449T298 475Q271 475 246 469T197 454T146 430V0H63Z" />
<glyph unicode="o" horiz-adv-x="545" d="M38 269Q38 340 50 392T89 478T161 529T272 546Q338 546 383 529T456 479T495 393T507 269Q507 196 494 143T453 57T381 7T272 -10Q209 -10 165 6T92 56T51 143T38 269ZM123 269Q123 190 138 143T187 76T272 55Q325 55
358 75T406 143T421 269Q421 347 408 393T361 460T272 481Q217 481 184 461T137 394T123 269Z" />
<glyph unicode="p" horiz-adv-x="536" d="M63 -210V540H139L142 486Q188 517 231 531T319 546Q405 546 451 478T498 281Q498 181 472 117T393 21T257 -10Q233 -10 206 -7T147 2V-210H63ZM250 53Q306 53 341 74T394 145T412 274Q412 341 398 386T356 453T289 476Q266
476 244 471T198 456T146 426V67Q178 60 203 57T250 53Z" />
<glyph unicode="q" horiz-adv-x="536" d="M474 524V-210H390V48Q346 19 304 5T219 -10Q132 -10 85 59T38 259Q38 360 64 423T146 516T288 546Q328 546 374 541T474 524ZM390 470Q359 477 334 480T286 484Q231 484 195 462T142 391T124 259Q124 195 139 151T181
84T248 61Q271 61 293 66T339 82T390 111V470Z" />
<glyph unicode="r" horiz-adv-x="385" d="M139 536V470Q169 497 195 513T248 538T304 546Q325 546 345 543T382 535L368 459Q350 464 331 466T294 469Q259 469 223 455T146 403V0H63V536H139Z" />
<glyph unicode="s" horiz-adv-x="445" d="M23 21L35 85Q52 78 73 73T118 63T165 57T211 55Q274 55 305 76T337 138Q337 159 328 174T301 201T256 222T192 242Q157 251 129 263T81 294T49 337T38 394Q38 466 89 506T239 546Q268 546 295 543T347 535T391 521L379
457Q359 463 338 468T292 476T239 479Q180 479 150 458T120 401Q120 379 129 365T157 340T200 321T254 305Q292 295 323 283T375 252T409 208T421 145Q421 113 411 88T382 44T337 14T279 -4T210 -10Q176 -10 143 -7T79 4T23 21Z" />
<glyph unicode="t" horiz-adv-x="388" d="M245 -10Q196 -10 164 8T116 64T100 158V473H8V529L100 536L111 663H184V536H363V473H184V164Q184 110 204 86T272 62Q296 62 320 66T368 78L380 13Q343 1 309 -4T245 -10Z" />
<glyph unicode="u" horiz-adv-x="546" d="M209 -10Q164 -10 131 6T80 54T62 136V536H146V153Q146 109 170 85T241 61Q266 61 289 66T336 82T384 105V536H468V117Q468 97 473 85T486 67T505 62Q519 62 532 68L541 7Q532 2 521 -2T498 -8T473 -10Q446 -10 425 4T395
47Q365 30 335 17T275 -3T209 -10Z" />
<glyph unicode="v" horiz-adv-x="506" d="M207 0L10 534L98 539L255 83L409 539L496 534L298 0H207Z" />
<glyph unicode="w" horiz-adv-x="728" d="M154 0L11 533L94 538L204 87L320 536H408L525 87L635 538L718 533L572 0H480L363 434L248 0H154Z" />
<glyph unicode="x" horiz-adv-x="521" d="M10 0L214 272L24 533L120 540L265 331L410 540L499 533L309 275L512 0L416 -6L260 215L105 -6L10 0Z" />
<glyph unicode="y" horiz-adv-x="508" d="M165 -208L233 0H217L11 535L101 540L267 76L411 540L497 535L250 -213L165 -208Z" />
<glyph unicode="z" horiz-adv-x="479" d="M27 0V60L336 469H41V536H438V477L131 67H457V0H27Z" />
<glyph unicode="{" horiz-adv-x="315" d="M96 -60Q96 -17 105 18T122 87T131 154Q131 173 127 191T114 222T86 234H67V296H86Q104 296 113 308T127 338T131 376Q131 409 123 441T105 509T96 589Q96 634 111 668T155 721T228 740H282V679H247Q217 679 200 666T176
630T169 581Q169 545 177 512T194 447T202 378Q202 358 197 336T180 296T145 265Q168 255 180 236T197 194T202 151Q202 115 194 82T178 16T169 -51Q169 -77 176 -99T200 -135T247 -149H282V-210H228Q184 -210 155 -192T111 -139T96 -60Z" />
<glyph unicode="|" horiz-adv-x="205" d="M138 790V-210H67V790H138Z" />
<glyph unicode="}" horiz-adv-x="315" d="M34 -149H66Q95 -149 112 -136T136 -100T143 -51Q143 -16 135 16T119 81T111 151Q111 172 115 194T132 235T168 265Q145 277 133 295T116 336T111 378Q111 414 119 446T135 512T143 581Q143 607 136 629T112 665T66 679H34V740H87Q132
740 161 721T205 668T219 589Q219 545 211 510T194 442T185 376Q185 357 189 339T202 308T229 296H249V234H229Q213 234 203 222T189 192T185 154Q185 120 194 87T211 19T219 -60Q219 -104 205 -138T162 -191T87 -210H34V-149Z" />
<glyph unicode="~" horiz-adv-x="483" d="M423 250Q407 233 388 223T344 213Q312 213 286 228T237 263T191 298T140 313Q113 313 94 302T61 275V347Q69 355 80 363T106 377T141 382Q171 382 195 367T241 332T288 297T343 282Q368 282 387 292T423 321V250Z" />
<glyph unicode="&#xa0;" horiz-adv-x="269" />
<glyph unicode="&#xa1;" horiz-adv-x="225" d="M150 274L155 -204H71L77 274H150ZM161 492Q161 465 151 455T113 444Q85 444 75 454T65 492Q65 518 75 528T113 539Q141 539 151 529T161 492Z" />
<glyph unicode="&#xa2;" horiz-adv-x="597" d="M320 -10Q210 -10 155 57T99 257Q99 324 113 377T156 468T229 526T335 547Q364 547 390 545T440 538T489 526L477 456Q453 462 432 465T390 470T346 472Q294 472 258 449T202 379T183 259Q183 160 223 112T339 63Q362
63 387 65T437 70T485 80L499 12Q474 5 444 0T383 -7T320 -10ZM280 -105V4L348 0V-105H280ZM280 531V641H348V537L280 531Z" />
<glyph unicode="&#xa3;" horiz-adv-x="598" d="M75 0V57Q115 97 138 126T173 184T184 246Q184 283 173 313T148 372T122 436T110 515Q110 604 170 657T344 710Q366 710 391 708T440 702T487 693T527 681L514 615Q497 620 477 623T435 629T394 633T355 635Q309
635 274 621T218 575T197 493Q197 458 207 429T231 371T255 314T266 250Q266 214 255 185T224 129T173 69H543V0H75ZM65 330V392H454V330H65Z" />
<glyph unicode="&#xa4;" horiz-adv-x="452" d="M39 435L85 480L154 410Q169 420 187 426T226 433Q247 433 265 427T297 410L368 480L413 435L346 368Q357 353 363 334T370 294Q370 272 364 253T346 218L413 151L368 106L297 177Q282 166 264 161T226 155Q206 155
188 160T156 177L85 106L39 151L107 218Q95 234 89 253T83 294Q83 315 89 334T106 368L39 435ZM226 206Q263 206 288 231T314 293Q314 330 289 355T226 381Q190 381 165 356T139 293Q139 257 164 232T226 206Z" />
<glyph unicode="&#xa5;" horiz-adv-x="598" d="M85 336V387H259L53 697L142 704L302 443L456 704L546 697L347 387H522V336H347V243H522V192H347V0H259V192H85V243H259V336H85Z" />
<glyph unicode="&#xa6;" horiz-adv-x="205" d="M137 391H67V790H137V391ZM67 190H137V-210H67V190Z" />
<glyph unicode="&#xa7;" horiz-adv-x="506" d="M219 -221Q183 -221 153 -216T94 -198T34 -167L53 -99Q73 -113 89 -121T120 -134T150 -138Q173 -138 189 -129T215 -103T225 -63Q225 -38 217 -13T193 50T151 144Q113 221 91 278T60 383T51 476Q50 561 82 622T173
717T316 750Q349 750 382 745T445 727L430 656Q410 663 395 666T366 669Q330 669 310 649T290 592Q290 577 293 562T305 524T328 470T365 388Q393 327 413 280T444 194T461 122T466 56Q466 -25 434 -87T346 -185T219 -221ZM218 -170Q263 -170 298 -153T356 -107T391
-38T403 46Q403 77 398 107T382 173T352 255T304 365Q273 431 256 472T233 541T226 595Q226 618 234 640T259 679T300 697L315 682Q303 685 294 686T274 687Q227 687 191 664T134 597T114 490Q114 456 119 423T135 354T164 274T210 171Q234 123 249 87T272 25T285
-23T289 -63Q289 -96 275 -122T236 -162T175 -176L151 -159Q166 -165 182 -167T218 -170Z" />
<glyph unicode="&#xa8;" horiz-adv-x="410" d="M301 646Q280 646 271 657T262 690Q262 713 271 723T301 734Q322 734 331 724T340 690Q340 668 331 657T301 646ZM111 646Q90 646 81 657T71 690Q71 713 80 723T111 734Q132 734 141 724T150 690Q150 668 141 657T111 646Z" />
<glyph unicode="&#xa9;" horiz-adv-x="674" d="M338 23Q395 23 442 41T522 99T574 200T592 350Q592 438 574 500T523 601T442 658T338 676Q280 676 233 658T152 602T100 501T82 350Q82 262 100 200T152 99T233 42T338 23ZM338 710Q403 710 456 690T548 627T607
515T628 350Q628 254 608 186T549 74T457 10T338 -10Q272 -10 219 10T126 73T67 185T46 350Q46 446 66 514T126 626T218 690T338 710ZM198 340Q198 411 217 453T272 513T352 531Q379 531 403 528T449 516L438 471Q420 476 400 478T359 481Q326 481 303 468T268
423T255 339Q255 275 277 243T348 211Q378 211 404 215T447 224L456 179Q436 171 406 166T341 161Q297 161 265 180T216 239T198 340Z" />
<glyph unicode="&#xaa;" horiz-adv-x="356" d="M44 263V310H324V263H44ZM33 444Q33 479 52 498T113 528T222 541V579Q222 606 205 620T151 634Q131 634 109 631T62 620L52 663Q78 671 106 675T159 679Q205 679 232 666T271 629T283 572V443Q283 424 288 417T303
410Q307 410 311 411T319 413L326 375Q316 370 305 367T281 364Q259 364 246 373T228 405Q206 388 180 376T116 364Q98 364 83 368T57 383T40 408T33 444ZM91 446Q91 422 103 411T137 400Q160 400 182 410T222 437V511Q185 508 160 504T119 493T98 474T91 446Z"
/>
<glyph unicode="&#xab;" horiz-adv-x="472" d="M27 226V317L220 517L231 436L80 271L231 106L220 25L27 226ZM243 226V317L436 517L447 436L296 271L447 106L436 25L243 226Z" />
<glyph unicode="&#xac;" horiz-adv-x="483" d="M50 353V422H433V174H364V353H50Z" />
<glyph unicode="&#xad;" horiz-adv-x="316" d="M36 248V320H281V248H36Z" />
<glyph unicode="&#xae;" horiz-adv-x="640" d="M318 208Q256 208 206 227T120 288T65 395T46 550Q46 641 65 706T120 812T206 873T318 893Q381 893 432 874T519 813T574 706T594 550Q594 460 575 395T519 288T432 228T318 208ZM318 243Q373 243 417 260T492 314T539
409T556 550Q556 633 540 691T492 786T417 840T318 857Q264 857 221 840T148 787T101 692T84 550Q84 468 100 410T147 314T221 260T318 243ZM463 385Q446 385 429 392T394 413T358 452T320 514Q316 514 313 514T304 514Q293 514 282 514T256 515V388H199V723Q223
725 242 726T279 727T312 728Q360 728 390 718T434 687T448 629Q448 589 431 564T378 530Q395 500 410 480T440 450T467 439Q469 439 470 439T472 440L473 385Q470 385 468 385T463 385ZM309 554Q339 554 356 561T381 583T389 622Q389 642 384 654T362 674T313
681Q302 681 294 681T278 680T256 678V555Q273 554 285 554T309 554Z" />
<glyph unicode="&#xaf;" horiz-adv-x="410" d="M71 659V722H340V659H71Z" />
<glyph unicode="&#xb0;" horiz-adv-x="286" d="M142 467Q105 467 80 484T42 531T29 594Q29 619 36 642T57 683T92 711T142 722Q170 722 191 712T227 683T249 642T256 594Q256 560 243 531T205 485T142 467ZM142 522Q169 522 185 543T201 594Q201 624 186 645T142
666Q115 666 100 645T85 594Q85 564 100 543T142 522Z" />
<glyph unicode="&#xb1;" horiz-adv-x="496" d="M49 50V119H211V289H49V358H211V523H285V358H447V289H285V119H447V50H49Z" />
<glyph unicode="&#xb2;" horiz-adv-x="397" d="M56 370L54 409Q107 452 142 486T200 548T231 600T241 644Q241 679 223 700T169 721Q145 721 123 715T76 694L57 738Q75 750 95 758T138 770T181 774Q221 774 248 760T289 720T304 656Q304 632 297 608T273 556T223
493T142 413H347V370H56Z" />
<glyph unicode="&#xb3;" horiz-adv-x="387" d="M32 395L50 435Q66 425 83 419T123 410T173 407Q227 407 256 428T285 488Q285 509 276 524T245 546T187 554H114V594H191Q231 594 250 612T269 657Q269 679 257 694T221 717T166 725Q139 725 119 723T86 717T62 709L48
750Q68 760 102 767T180 774Q252 774 290 746T328 670Q328 637 311 613T263 580Q304 572 325 547T347 484Q347 445 327 418T269 376T179 361Q136 361 101 369T32 395Z" />
<glyph unicode="&#xb4;" horiz-adv-x="410" d="M104 595L221 789H306L172 595H104Z" />
<glyph unicode="&#xb5;" horiz-adv-x="546" d="M63 -210V536H146V152Q146 108 170 84T241 60Q267 60 290 65T337 81T385 104V536H468V115Q468 95 473 83T486 65T505 60Q519 60 532 66L542 7Q532 2 521 -2T498 -8T474 -10Q445 -10 426 3T397 45Q371 29 345 17T292
-3T234 -10Q202 -10 180 0T145 30V-210H63Z" />
<glyph unicode="&#xb6;" horiz-adv-x="599" d="M461 -210V740H528V-210H461ZM247 249L239 196Q135 211 87 282T39 468Q39 529 54 578T103 664T189 720T317 740H363V-210H296V671Q233 670 192 645T132 573T113 463Q113 371 146 316T247 249Z" />
<glyph unicode="&#xb7;" horiz-adv-x="184" d="M44 298Q44 325 54 336T92 347Q120 347 130 336T141 298Q141 272 131 261T92 250Q65 250 55 261T44 298Z" />
<glyph unicode="&#xb8;" horiz-adv-x="410" d="M121 -149Q140 -157 156 -160T186 -164Q214 -164 229 -149T244 -106Q244 -89 236 -71T214 -35T182 2H247Q265 -14 278 -35T299 -78T307 -121Q307 -148 297 -170T264 -206T204 -220Q185 -220 163 -216T115 -202L121 -149Z" />
<glyph unicode="&#xb9;" horiz-adv-x="363" d="M36 370V415H164V703L42 643L27 691L196 769H228V415H338V370H36Z" />
<glyph unicode="&#xba;" horiz-adv-x="374" d="M49 264V310H331V264H49ZM42 523Q42 577 55 611T100 662T187 679Q241 679 272 663T317 612T331 523Q331 468 317 433T271 380T187 363Q135 363 103 380T56 432T42 523ZM105 522Q105 479 113 454T140 417T187 406Q215
406 233 417T259 453T267 522Q267 566 260 591T235 626T187 637Q156 637 139 627T113 591T105 522Z" />
<glyph unicode="&#xbb;" horiz-adv-x="473" d="M231 309V234L37 25L27 111L177 271L27 435L37 517L231 309ZM447 309V234L253 25L243 111L393 271L243 435L253 517L447 309Z" />
<glyph unicode="&#xbc;" horiz-adv-x="829" d="M36 561V606H164V894L42 834L27 882L196 960H228V606H338V561H36ZM292 -9L237 -4L597 733L652 728L292 -9ZM457 88L454 127L663 400L724 398V129H787V88H724V0H660V88H457ZM501 129H661V338L501 129Z" />
<glyph unicode="&#xbd;" horiz-adv-x="890" d="M36 561V606H164V894L42 834L27 882L196 960H228V606H338V561H36ZM292 -9L237 -4L597 733L652 728L292 -9ZM549 1L547 40Q600 83 635 117T693 179T724 231T734 275Q734 310 716 331T662 352Q638 352 616 346T569
325L550 369Q568 381 588 389T631 401T674 405Q714 405 741 391T782 351T797 287Q797 263 790 239T766 187T716 124T635 44H840V1H549Z" />
<glyph unicode="&#xbe;" horiz-adv-x="836" d="M32 586L50 626Q66 616 83 610T123 601T173 598Q227 598 256 619T285 679Q285 700 276 715T245 737T187 745H114V785H191Q231 785 250 803T269 848Q269 870 257 885T221 908T166 916Q139 916 119 914T86 908T62 900L48
941Q68 951 102 958T180 965Q252 965 290 937T328 861Q328 828 311 804T263 771Q304 763 325 738T347 675Q347 636 327 609T269 567T179 552Q136 552 101 560T32 586ZM299 -9L244 -4L604 733L659 728L299 -9ZM464 88L461 127L670 400L731 398V129H794V88H731V0H667V88H464ZM508
129H668V338L508 129Z" />
<glyph unicode="&#xbf;" horiz-adv-x="449" d="M287 272L289 164Q239 143 207 123T155 82T129 37T121 -14Q121 -46 131 -69T160 -108T202 -131T251 -139Q291 -139 333 -127T415 -86L443 -152Q415 -172 382 -186T312 -208T240 -216Q200 -216 163 -205T97 -171T51
-110T34 -22Q34 33 53 72T112 143T213 203L214 272H287ZM297 490Q297 463 287 453T248 442Q221 442 211 452T200 490Q200 516 210 526T248 537Q275 537 286 527T297 490Z" />
<glyph unicode="&#xc0;" horiz-adv-x="601" d="M12 0L252 707H349L590 0H495L435 181H162L102 0H12ZM180 253H418L299 623L180 253ZM269 744L142 920H229L339 744H269Z" />
<glyph unicode="&#xc1;" horiz-adv-x="601" d="M12 0L252 707H349L590 0H495L435 181H162L102 0H12ZM180 253H418L299 623L180 253ZM268 745L377 920H461L334 745H268Z" />
<glyph unicode="&#xc2;" horiz-adv-x="601" d="M12 0L252 707H349L590 0H495L435 181H162L102 0H12ZM180 253H418L299 623L180 253ZM147 745L254 920H350L457 745H387L301 877L215 745H147Z" />
<glyph unicode="&#xc3;" horiz-adv-x="601" d="M12 0L252 707H349L590 0H495L435 181H162L102 0H12ZM180 253H418L299 623L180 253ZM145 770Q143 780 142 791T141 812Q141 850 161 878T221 907Q248 907 268 895T307 868T342 841T377 829Q389 829 396 836T407 855T411
884Q411 891 411 898T408 911H458Q460 901 460 890T461 869Q461 830 441 801T380 772Q354 772 333 784T293 810T259 837T225 849Q208 849 200 836T191 797Q191 790 192 783T195 770H145Z" />
<glyph unicode="&#xc4;" horiz-adv-x="601" d="M12 0L252 707H349L590 0H495L435 181H162L102 0H12ZM180 253H418L299 623L180 253ZM397 787Q376 787 367 798T358 831Q358 854 367 864T397 875Q418 875 427 865T436 831Q436 809 427 798T397 787ZM207 787Q186
787 177 798T167 831Q167 854 176 864T207 875Q228 875 237 865T246 831Q246 809 237 798T207 787Z" />
<glyph unicode="&#xc5;" horiz-adv-x="601" d="M12 0L252 707H349L590 0H495L435 181H162L102 0H12ZM180 253H418L299 623L180 253ZM302 752Q256 752 232 774T208 839Q208 881 232 903T302 926Q348 926 371 904T395 839Q395 797 372 775T302 752ZM302 790Q348
790 348 839Q348 887 302 887Q255 887 255 839Q255 790 302 790Z" />
<glyph unicode="&#xc6;" horiz-adv-x="934" d="M8 0L405 700H890V623H537V376H867V299H537V77H908V0H451V258H256L108 -1L8 0ZM290 330H450V632L290 330Z" />
<glyph unicode="&#xc7;" horiz-adv-x="594" d="M43 338Q43 471 78 553T184 672T356 710Q385 710 410 709T458 704T503 696T548 684L531 615Q502 622 475 627T421 634T364 636Q306 636 263 621T190 571T146 479T131 338Q131 262 145 210T188 125T259 78T356 63Q403
63 455 70T549 90L565 20Q542 13 517 8T464 -2T406 -8T343 -10Q271 -10 215 8T121 67T63 174T43 338ZM239 -149Q258 -157 274 -160T304 -164Q332 -164 347 -149T362 -106Q362 -89 354 -71T332 -35T300 2H365Q383 -14 396 -35T417 -78T425 -121Q425 -148 415 -170T382
-206T322 -220Q303 -220 281 -216T233 -202L239 -149Z" />
<glyph unicode="&#xc8;" horiz-adv-x="558" d="M71 0V700H515V623H158V403H491V327H158V77H532V0H71ZM265 744L138 920H225L335 744H265Z" />
<glyph unicode="&#xc9;" horiz-adv-x="558" d="M71 0V700H515V623H158V403H491V327H158V77H532V0H71ZM264 745L373 920H457L330 745H264Z" />
<glyph unicode="&#xca;" horiz-adv-x="558" d="M71 0V700H515V623H158V403H491V327H158V77H532V0H71ZM143 745L250 920H346L453 745H383L297 877L211 745H143Z" />
<glyph unicode="&#xcb;" horiz-adv-x="558" d="M71 0V700H515V623H158V403H491V327H158V77H532V0H71ZM393 787Q372 787 363 798T354 831Q354 854 363 864T393 875Q414 875 423 865T432 831Q432 809 423 798T393 787ZM203 787Q182 787 173 798T163 831Q163 854
172 864T203 875Q224 875 233 865T242 831Q242 809 233 798T203 787Z" />
<glyph unicode="&#xcc;" horiz-adv-x="227" d="M70 0V700H156V0H70ZM81 744L-46 920H41L151 744H81Z" />
<glyph unicode="&#xcd;" horiz-adv-x="227" d="M70 0V700H156V0H70ZM80 745L189 920H273L146 745H80Z" />
<glyph unicode="&#xce;" horiz-adv-x="227" d="M70 0V700H156V0H70ZM-41 745L66 920H162L269 745H199L113 877L27 745H-41Z" />
<glyph unicode="&#xcf;" horiz-adv-x="227" d="M70 0V700H156V0H70ZM209 787Q188 787 179 798T170 831Q170 854 179 864T209 875Q230 875 239 865T248 831Q248 809 239 798T209 787ZM19 787Q-2 787 -11 798T-21 831Q-21 854 -12 864T19 875Q40 875 49 865T58 831Q58
809 49 798T19 787Z" />
<glyph unicode="&#xd0;" horiz-adv-x="663" d="M3 323V391H296V323H3ZM306 -10Q267 -10 229 -9T151 -6T74 -3V701Q115 704 152 706T226 709T298 710Q411 710 482 673T586 556T620 348Q620 224 585 145T480 28T306 -10ZM305 60Q380 60 430 88T505 180T530 348Q530
455 506 519T431 611T300 640Q282 640 258 639T208 637T161 635V65Q177 64 196 63T235 62T273 61T305 60Z" />
<glyph unicode="&#xd1;" horiz-adv-x="670" d="M71 0V703H152L522 136V700H599V-1H518L149 561V0H71ZM179 770Q177 780 176 791T175 812Q175 850 195 878T255 907Q282 907 302 895T341 868T376 841T411 829Q423 829 430 836T441 855T445 884Q445 891 445 898T442
911H492Q494 901 494 890T495 869Q495 830 475 801T414 772Q388 772 367 784T327 810T293 837T259 849Q242 849 234 836T225 797Q225 790 226 783T229 770H179Z" />
<glyph unicode="&#xd2;" horiz-adv-x="691" d="M345 60Q379 60 411 68T470 95T517 147T548 230T560 350Q560 420 549 470T517 554T470 606T411 633T345 641Q311 641 280 633T221 606T174 554T143 470T131 349Q131 280 142 231T174 149T221 96T279 68T345 60ZM345
-10Q294 -10 249 1T166 36T101 102T59 205T44 350Q44 434 58 495T100 597T164 664T247 699T345 710Q397 710 443 700T526 665T591 599T633 497T648 352Q648 267 634 205T592 102T527 36T444 1T345 -10ZM312 744L185 920H272L382 744H312Z" />
<glyph unicode="&#xd3;" horiz-adv-x="691" d="M345 60Q379 60 411 68T470 95T517 147T548 230T560 350Q560 420 549 470T517 554T470 606T411 633T345 641Q311 641 280 633T221 606T174 554T143 470T131 349Q131 280 142 231T174 149T221 96T279 68T345 60ZM345
-10Q294 -10 249 1T166 36T101 102T59 205T44 350Q44 434 58 495T100 597T164 664T247 699T345 710Q397 710 443 700T526 665T591 599T633 497T648 352Q648 267 634 205T592 102T527 36T444 1T345 -10ZM311 745L420 920H504L377 745H311Z" />
<glyph unicode="&#xd4;" horiz-adv-x="691" d="M345 60Q379 60 411 68T470 95T517 147T548 230T560 350Q560 420 549 470T517 554T470 606T411 633T345 641Q311 641 280 633T221 606T174 554T143 470T131 349Q131 280 142 231T174 149T221 96T279 68T345 60ZM345
-10Q294 -10 249 1T166 36T101 102T59 205T44 350Q44 434 58 495T100 597T164 664T247 699T345 710Q397 710 443 700T526 665T591 599T633 497T648 352Q648 267 634 205T592 102T527 36T444 1T345 -10ZM190 745L297 920H393L500 745H430L344 877L258 745H190Z"
/>
<glyph unicode="&#xd5;" horiz-adv-x="691" d="M345 60Q379 60 411 68T470 95T517 147T548 230T560 350Q560 420 549 470T517 554T470 606T411 633T345 641Q311 641 280 633T221 606T174 554T143 470T131 349Q131 280 142 231T174 149T221 96T279 68T345 60ZM345
-10Q294 -10 249 1T166 36T101 102T59 205T44 350Q44 434 58 495T100 597T164 664T247 699T345 710Q397 710 443 700T526 665T591 599T633 497T648 352Q648 267 634 205T592 102T527 36T444 1T345 -10ZM188 770Q186 780 185 791T184 812Q184 850 204 878T264 907Q291
907 311 895T350 868T385 841T420 829Q432 829 439 836T450 855T454 884Q454 891 454 898T451 911H501Q503 901 503 890T504 869Q504 830 484 801T423 772Q397 772 376 784T336 810T302 837T268 849Q251 849 243 836T234 797Q234 790 235 783T238 770H188Z" />
<glyph unicode="&#xd6;" horiz-adv-x="691" d="M345 60Q379 60 411 68T470 95T517 147T548 230T560 350Q560 420 549 470T517 554T470 606T411 633T345 641Q311 641 280 633T221 606T174 554T143 470T131 349Q131 280 142 231T174 149T221 96T279 68T345 60ZM345
-10Q294 -10 249 1T166 36T101 102T59 205T44 350Q44 434 58 495T100 597T164 664T247 699T345 710Q397 710 443 700T526 665T591 599T633 497T648 352Q648 267 634 205T592 102T527 36T444 1T345 -10ZM440 787Q419 787 410 798T401 831Q401 854 410 864T440 875Q461
875 470 865T479 831Q479 809 470 798T440 787ZM250 787Q229 787 220 798T210 831Q210 854 219 864T250 875Q271 875 280 865T289 831Q289 809 280 798T250 787Z" />
<glyph unicode="&#xd7;" horiz-adv-x="462" d="M102 90L53 138L181 302L53 466L101 514L231 352L360 514L409 465L281 302L409 139L360 91L231 252L102 90Z" />
<glyph unicode="&#xd8;" horiz-adv-x="692" d="M119 -11H46L137 117H140L507 631H510L569 713H643L557 593H554L183 75H180L119 -11ZM344 57Q378 57 410 65T469 92T517 144T549 228T561 350Q561 421 550 471T518 555T470 608T410 635T344 643Q309 643 277 635T218
608T171 556T139 472T128 350Q128 279 139 230T170 147T218 94T277 66T344 57ZM344 -10Q292 -10 246 1T163 37T98 103T57 205T42 350Q42 434 56 495T97 598T161 664T245 699T344 710Q396 710 442 700T526 665T590 599T632 497T647 352Q647 267 633 205T591 102T527
36T443 1T344 -10Z" />
<glyph unicode="&#xd9;" horiz-adv-x="655" d="M59 211V700H144V210Q144 174 154 148T182 106T224 79T274 66T328 62Q356 62 382 66T432 79T473 106T501 148T511 210V700H596V211Q596 159 583 122T544 59T486 18T412 -3T327 -10Q284 -10 244 -4T170 18T111 58T73
121T59 211ZM295 744L168 920H255L365 744H295Z" />
<glyph unicode="&#xda;" horiz-adv-x="655" d="M59 211V700H144V210Q144 174 154 148T182 106T224 79T274 66T328 62Q356 62 382 66T432 79T473 106T501 148T511 210V700H596V211Q596 159 583 122T544 59T486 18T412 -3T327 -10Q284 -10 244 -4T170 18T111 58T73
121T59 211ZM294 745L403 920H487L360 745H294Z" />
<glyph unicode="&#xdb;" horiz-adv-x="655" d="M59 211V700H144V210Q144 174 154 148T182 106T224 79T274 66T328 62Q356 62 382 66T432 79T473 106T501 148T511 210V700H596V211Q596 159 583 122T544 59T486 18T412 -3T327 -10Q284 -10 244 -4T170 18T111 58T73
121T59 211ZM173 745L280 920H376L483 745H413L327 877L241 745H173Z" />
<glyph unicode="&#xdc;" horiz-adv-x="655" d="M59 211V700H144V210Q144 174 154 148T182 106T224 79T274 66T328 62Q356 62 382 66T432 79T473 106T501 148T511 210V700H596V211Q596 159 583 122T544 59T486 18T412 -3T327 -10Q284 -10 244 -4T170 18T111 58T73
121T59 211ZM423 787Q402 787 393 798T384 831Q384 854 393 864T423 875Q444 875 453 865T462 831Q462 809 453 798T423 787ZM233 787Q212 787 203 798T193 831Q193 854 202 864T233 875Q254 875 263 865T272 831Q272 809 263 798T233 787Z" />
<glyph unicode="&#xdd;" horiz-adv-x="586" d="M252 0V284L6 697L99 703L295 344L485 703L578 697L338 284V0H252ZM260 745L369 920H453L326 745H260Z" />
<glyph unicode="&#xde;" horiz-adv-x="615" d="M70 0V700H157V619Q193 620 218 621T262 622T295 623Q380 623 435 611T522 571T567 500T580 394Q580 328 566 282T520 206T440 164T319 151Q299 151 284 151T255 151T227 151T196 152T157 154V0H70ZM296 223Q354
223 392 233T453 264T484 317T493 395Q493 438 485 467T455 516T397 544T301 553Q288 553 275 553T246 553T208 551T157 548V226Q178 225 195 225T228 224T260 223T296 223Z" />
<glyph unicode="&#xdf;" horiz-adv-x="631" d="M104 0V429H20V485L104 493V529Q104 603 131 652T214 725T353 750Q456 750 508 717T561 615Q561 563 530 534T433 481Q390 465 371 446T351 398Q351 377 361 361T398 332T473 301Q529 284 562 262T611 211T626 141Q626
110 616 86T588 44T544 14T489 -4T425 -10Q394 -10 362 -7T298 4T238 21L250 82Q277 74 307 68T368 57T426 53Q462 53 489 63T532 91T548 137Q548 160 538 176T502 208T428 239Q369 258 336 278T288 327T273 395Q273 427 285 451T322 495T387 528Q438 548 458 565T479
614Q479 638 467 654T428 677T355 684Q299 684 262 665T206 606T187 509V0H104Z" />
<glyph unicode="&#xe0;" horiz-adv-x="511" d="M30 129Q30 177 50 208T111 257T212 286T352 304V379Q352 425 322 449T231 474Q211 474 186 472T134 465T78 451L63 519Q106 532 151 539T236 546Q302 546 346 528T413 472T436 380V120Q436 87 445 76T471 64Q477
64 484 65T499 69L508 7Q493 -1 477 -5T442 -10Q406 -10 385 8T358 65Q334 46 305 29T241 1T165 -10Q134 -10 110 -1T67 25T40 69T30 129ZM115 136Q115 93 136 72T194 50Q222 50 250 59T304 83T352 119V254Q298 249 255 243T180 223T132 189T115 136ZM220 596L86
790H174L291 596H220Z" />
<glyph unicode="&#xe1;" horiz-adv-x="511" d="M30 129Q30 177 50 208T111 257T212 286T352 304V379Q352 425 322 449T231 474Q211 474 186 472T134 465T78 451L63 519Q106 532 151 539T236 546Q302 546 346 528T413 472T436 380V120Q436 87 445 76T471 64Q477
64 484 65T499 69L508 7Q493 -1 477 -5T442 -10Q406 -10 385 8T358 65Q334 46 305 29T241 1T165 -10Q134 -10 110 -1T67 25T40 69T30 129ZM115 136Q115 93 136 72T194 50Q222 50 250 59T304 83T352 119V254Q298 249 255 243T180 223T132 189T115 136ZM211 595L328
789H413L279 595H211Z" />
<glyph unicode="&#xe2;" horiz-adv-x="511" d="M30 129Q30 177 50 208T111 257T212 286T352 304V379Q352 425 322 449T231 474Q211 474 186 472T134 465T78 451L63 519Q106 532 151 539T236 546Q302 546 346 528T413 472T436 380V120Q436 87 445 76T471 64Q477
64 484 65T499 69L508 7Q493 -1 477 -5T442 -10Q406 -10 385 8T358 65Q334 46 305 29T241 1T165 -10Q134 -10 110 -1T67 25T40 69T30 129ZM115 136Q115 93 136 72T194 50Q222 50 250 59T304 83T352 119V254Q298 249 255 243T180 223T132 189T115 136ZM90 596L204
790H297L410 596H339L250 742L160 596H90Z" />
<glyph unicode="&#xe3;" horiz-adv-x="511" d="M30 129Q30 177 50 208T111 257T212 286T352 304V379Q352 425 322 449T231 474Q211 474 186 472T134 465T78 451L63 519Q106 532 151 539T236 546Q302 546 346 528T413 472T436 380V120Q436 87 445 76T471 64Q477
64 484 65T499 69L508 7Q493 -1 477 -5T442 -10Q406 -10 385 8T358 65Q334 46 305 29T241 1T165 -10Q134 -10 110 -1T67 25T40 69T30 129ZM115 136Q115 93 136 72T194 50Q222 50 250 59T304 83T352 119V254Q298 249 255 243T180 223T132 189T115 136ZM93 603Q92
614 91 625T90 645Q90 692 109 716T168 740Q192 740 212 729T251 703T288 677T325 666Q338 666 345 673T356 691T360 716Q360 723 360 730T358 744H406Q408 733 408 723T409 702Q409 657 390 631T330 605Q306 605 285 616T245 643T208 669T173 680Q157 680 148
667T139 632Q139 625 140 617T142 603H93Z" />
<glyph unicode="&#xe4;" horiz-adv-x="511" d="M30 129Q30 177 50 208T111 257T212 286T352 304V379Q352 425 322 449T231 474Q211 474 186 472T134 465T78 451L63 519Q106 532 151 539T236 546Q302 546 346 528T413 472T436 380V120Q436 87 445 76T471 64Q477
64 484 65T499 69L508 7Q493 -1 477 -5T442 -10Q406 -10 385 8T358 65Q334 46 305 29T241 1T165 -10Q134 -10 110 -1T67 25T40 69T30 129ZM115 136Q115 93 136 72T194 50Q222 50 250 59T304 83T352 119V254Q298 249 255 243T180 223T132 189T115 136ZM345 646Q324
646 315 657T306 690Q306 713 315 723T345 734Q366 734 375 724T384 690Q384 668 375 657T345 646ZM155 646Q134 646 125 657T115 690Q115 713 124 723T155 734Q176 734 185 724T194 690Q194 668 185 657T155 646Z" />
<glyph unicode="&#xe5;" horiz-adv-x="511" d="M30 129Q30 177 50 208T111 257T212 286T352 304V379Q352 425 322 449T231 474Q211 474 186 472T134 465T78 451L63 519Q106 532 151 539T236 546Q302 546 346 528T413 472T436 380V120Q436 87 445 76T471 64Q477
64 484 65T499 69L508 7Q493 -1 477 -5T442 -10Q406 -10 385 8T358 65Q334 46 305 29T241 1T165 -10Q134 -10 110 -1T67 25T40 69T30 129ZM115 136Q115 93 136 72T194 50Q222 50 250 59T304 83T352 119V254Q298 249 255 243T180 223T132 189T115 136ZM250 607Q204
607 180 629T156 694Q156 737 180 759T250 781Q296 781 319 759T343 694Q343 652 320 630T250 607ZM250 646Q296 646 296 694Q296 743 250 743Q203 743 203 694Q203 646 250 646Z" />
<glyph unicode="&#xe6;" horiz-adv-x="819" d="M168 -10Q104 -10 67 25T30 128Q30 176 49 208T108 260T209 292T351 312V379Q351 424 322 449T231 474Q212 474 187 472T135 465T78 451L64 519Q107 532 152 539T237 546Q273 546 300 540T348 520T382 486T403 439H404Q421
479 448 502T509 536T579 546Q646 546 692 522T761 447T785 314Q785 304 785 295T784 278Q757 276 708 272T591 263T438 258Q437 255 437 249T438 239Q438 169 455 130T506 76T592 61Q640 61 685 68T767 85L779 19Q751 10 721 4T657 -6T582 -10Q533 -10 496 0T433
32T388 88H386Q364 67 340 50T288 19T231 -2T168 -10ZM194 49Q224 49 254 60T312 91T360 131Q355 152 353 177T351 233Q351 241 351 248T351 262Q296 257 253 249T178 227T131 191T115 136Q115 93 137 71T194 49ZM439 310Q501 310 554 312T645 318T699 323Q698
378 684 413T642 466T574 484Q541 484 510 469T459 416T439 310Z" />
<glyph unicode="&#xe7;" horiz-adv-x="481" d="M38 260Q38 357 67 420T152 515T289 546Q315 546 343 544T398 537T448 526L436 456Q414 461 390 464T342 470T296 473Q241 473 203 450T144 380T124 260Q124 193 144 150T203 85T297 63Q320 63 345 65T395 71T444
81L457 13Q421 3 373 -3T280 -10Q160 -10 99 56T38 260ZM184 -149Q203 -157 219 -160T249 -164Q277 -164 292 -149T307 -106Q307 -89 299 -71T277 -35T245 2H310Q328 -14 341 -35T362 -78T370 -121Q370 -148 360 -170T327 -206T267 -220Q248 -220 226 -216T178
-202L184 -149Z" />
<glyph unicode="&#xe8;" horiz-adv-x="519" d="M269 -10Q214 -10 171 5T99 52T54 134T38 254Q38 335 56 391T109 482T187 531T285 546Q387 546 437 492T487 315Q487 309 487 298T485 277Q464 276 429 273T346 267T243 262T125 259Q124 254 124 249T124 238Q124
173 142 134T196 76T283 58Q315 58 348 61T411 71T468 83L479 20Q452 11 419 4T348 -6T269 -10ZM126 317Q174 317 218 318T300 322T364 326T402 329Q401 385 388 419T348 468T279 484Q253 484 228 477T182 451T146 400T126 317ZM244 596L110 790H198L315 596H244Z"
/>
<glyph unicode="&#xe9;" horiz-adv-x="519" d="M269 -10Q214 -10 171 5T99 52T54 134T38 254Q38 335 56 391T109 482T187 531T285 546Q387 546 437 492T487 315Q487 309 487 298T485 277Q464 276 429 273T346 267T243 262T125 259Q124 254 124 249T124 238Q124
173 142 134T196 76T283 58Q315 58 348 61T411 71T468 83L479 20Q452 11 419 4T348 -6T269 -10ZM126 317Q174 317 218 318T300 322T364 326T402 329Q401 385 388 419T348 468T279 484Q253 484 228 477T182 451T146 400T126 317ZM235 595L352 789H437L303 595H235Z"
/>
<glyph unicode="&#xea;" horiz-adv-x="519" d="M269 -10Q214 -10 171 5T99 52T54 134T38 254Q38 335 56 391T109 482T187 531T285 546Q387 546 437 492T487 315Q487 309 487 298T485 277Q464 276 429 273T346 267T243 262T125 259Q124 254 124 249T124 238Q124
173 142 134T196 76T283 58Q315 58 348 61T411 71T468 83L479 20Q452 11 419 4T348 -6T269 -10ZM126 317Q174 317 218 318T300 322T364 326T402 329Q401 385 388 419T348 468T279 484Q253 484 228 477T182 451T146 400T126 317ZM114 596L228 790H321L434 596H363L274
742L184 596H114Z" />
<glyph unicode="&#xeb;" horiz-adv-x="519" d="M269 -10Q214 -10 171 5T99 52T54 134T38 254Q38 335 56 391T109 482T187 531T285 546Q387 546 437 492T487 315Q487 309 487 298T485 277Q464 276 429 273T346 267T243 262T125 259Q124 254 124 249T124 238Q124
173 142 134T196 76T283 58Q315 58 348 61T411 71T468 83L479 20Q452 11 419 4T348 -6T269 -10ZM126 317Q174 317 218 318T300 322T364 326T402 329Q401 385 388 419T348 468T279 484Q253 484 228 477T182 451T146 400T126 317ZM369 646Q348 646 339 657T330 690Q330
713 339 723T369 734Q390 734 399 724T408 690Q408 668 399 657T369 646ZM179 646Q158 646 149 657T139 690Q139 713 148 723T179 734Q200 734 209 724T218 690Q218 668 209 657T179 646Z" />
<glyph unicode="&#xec;" horiz-adv-x="209" d="M63 0V536H147V0H63ZM75 596L-59 790H29L146 596H75Z" />
<glyph unicode="&#xed;" horiz-adv-x="209" d="M63 0V536H147V0H63ZM66 595L183 789H268L134 595H66Z" />
<glyph unicode="&#xee;" horiz-adv-x="209" d="M63 0V536H147V0H63ZM-55 596L59 790H152L265 596H194L105 742L15 596H-55Z" />
<glyph unicode="&#xef;" horiz-adv-x="209" d="M63 0V536H147V0H63ZM200 646Q179 646 170 657T161 690Q161 713 170 723T200 734Q221 734 230 724T239 690Q239 668 230 657T200 646ZM10 646Q-11 646 -20 657T-30 690Q-30 713 -21 723T10 734Q31 734 40 724T49
690Q49 668 40 657T10 646Z" />
<glyph unicode="&#xf0;" horiz-adv-x="538" d="M429 433Q397 455 362 464T287 473Q233 473 197 452T142 383T123 257Q123 148 157 102T263 56Q304 56 333 70T381 116T407 204T416 343Q416 434 404 495T365 594T295 648T191 665Q168 665 147 663T103 656T55 644L45
703Q90 714 128 719T208 725Q282 725 337 703T428 633T482 514T500 342Q500 211 476 134T398 24T255 -10Q182 -10 134 18T61 105T37 256Q37 396 95 464T275 533Q306 533 333 530T385 518T432 494L429 433ZM175 562H86L311 678L316 682L410 730H498L360 659L354
653L175 562Z" />
<glyph unicode="&#xf1;" horiz-adv-x="543" d="M63 0V536H139V489Q172 507 202 520T264 539T331 546Q380 546 413 529T463 480T480 399V0H397V376Q397 424 373 449T298 475Q271 475 246 469T197 454T146 430V0H63ZM118 603Q117 614 116 625T115 645Q115 692 134
716T193 740Q217 740 237 729T276 703T313 677T350 666Q363 666 370 673T381 691T385 716Q385 723 385 730T383 744H431Q433 733 433 723T434 702Q434 657 415 631T355 605Q331 605 310 616T270 643T233 669T198 680Q182 680 173 667T164 632Q164 625 165 617T167
603H118Z" />
<glyph unicode="&#xf2;" horiz-adv-x="545" d="M38 269Q38 340 50 392T89 478T161 529T272 546Q338 546 383 529T456 479T495 393T507 269Q507 196 494 143T453 57T381 7T272 -10Q209 -10 165 6T92 56T51 143T38 269ZM123 269Q123 190 138 143T187 76T272 55Q325
55 358 75T406 143T421 269Q421 347 408 393T361 460T272 481Q217 481 184 461T137 394T123 269ZM243 596L109 790H197L314 596H243Z" />
<glyph unicode="&#xf3;" horiz-adv-x="545" d="M38 269Q38 340 50 392T89 478T161 529T272 546Q338 546 383 529T456 479T495 393T507 269Q507 196 494 143T453 57T381 7T272 -10Q209 -10 165 6T92 56T51 143T38 269ZM123 269Q123 190 138 143T187 76T272 55Q325
55 358 75T406 143T421 269Q421 347 408 393T361 460T272 481Q217 481 184 461T137 394T123 269ZM234 595L351 789H436L302 595H234Z" />
<glyph unicode="&#xf4;" horiz-adv-x="545" d="M38 269Q38 340 50 392T89 478T161 529T272 546Q338 546 383 529T456 479T495 393T507 269Q507 196 494 143T453 57T381 7T272 -10Q209 -10 165 6T92 56T51 143T38 269ZM123 269Q123 190 138 143T187 76T272 55Q325
55 358 75T406 143T421 269Q421 347 408 393T361 460T272 481Q217 481 184 461T137 394T123 269ZM113 596L227 790H320L433 596H362L273 742L183 596H113Z" />
<glyph unicode="&#xf5;" horiz-adv-x="545" d="M38 269Q38 340 50 392T89 478T161 529T272 546Q338 546 383 529T456 479T495 393T507 269Q507 196 494 143T453 57T381 7T272 -10Q209 -10 165 6T92 56T51 143T38 269ZM123 269Q123 190 138 143T187 76T272 55Q325
55 358 75T406 143T421 269Q421 347 408 393T361 460T272 481Q217 481 184 461T137 394T123 269ZM116 603Q115 614 114 625T113 645Q113 692 132 716T191 740Q215 740 235 729T274 703T311 677T348 666Q361 666 368 673T379 691T383 716Q383 723 383 730T381 744H429Q431
733 431 723T432 702Q432 657 413 631T353 605Q329 605 308 616T268 643T231 669T196 680Q180 680 171 667T162 632Q162 625 163 617T165 603H116Z" />
<glyph unicode="&#xf6;" horiz-adv-x="545" d="M38 269Q38 340 50 392T89 478T161 529T272 546Q338 546 383 529T456 479T495 393T507 269Q507 196 494 143T453 57T381 7T272 -10Q209 -10 165 6T92 56T51 143T38 269ZM123 269Q123 190 138 143T187 76T272 55Q325
55 358 75T406 143T421 269Q421 347 408 393T361 460T272 481Q217 481 184 461T137 394T123 269ZM368 646Q347 646 338 657T329 690Q329 713 338 723T368 734Q389 734 398 724T407 690Q407 668 398 657T368 646ZM178 646Q157 646 148 657T138 690Q138 713 147 723T178
734Q199 734 208 724T217 690Q217 668 208 657T178 646Z" />
<glyph unicode="&#xf7;" horiz-adv-x="483" d="M199 114Q199 136 208 144T242 153Q266 153 275 145T284 114Q284 92 276 83T242 74Q218 74 209 83T199 114ZM199 487Q199 510 208 518T241 527Q266 527 275 519T284 487Q284 465 276 457T242 448Q218 448 209 456T199
487ZM49 266V336H434V266H49Z" />
<glyph unicode="&#xf8;" horiz-adv-x="545" d="M272 -10Q335 -10 379 6T452 57T493 143T507 269Q507 340 495 392T455 478T383 529T272 546Q206 546 161 529T89 478T49 392T37 269Q37 196 50 144T91 57T164 7T272 -10ZM272 52Q218 52 185 72T136 140T120 269Q120
348 134 395T182 463T272 484Q329 484 362 463T409 395T423 269Q423 188 408 141T359 73T272 52ZM37 -8H102L147 54L148 53L431 445L432 444L507 546H440L395 484L394 485L108 88L107 89L37 -8Z" />
<glyph unicode="&#xf9;" horiz-adv-x="546" d="M209 -10Q164 -10 131 6T80 54T62 136V536H146V153Q146 109 170 85T241 61Q266 61 289 66T336 82T384 105V536H468V117Q468 97 473 85T486 67T505 62Q519 62 532 68L541 7Q532 2 521 -2T498 -8T473 -10Q446 -10 425
4T395 47Q365 30 335 17T275 -3T209 -10ZM237 596L103 790H191L308 596H237Z" />
<glyph unicode="&#xfa;" horiz-adv-x="546" d="M209 -10Q164 -10 131 6T80 54T62 136V536H146V153Q146 109 170 85T241 61Q266 61 289 66T336 82T384 105V536H468V117Q468 97 473 85T486 67T505 62Q519 62 532 68L541 7Q532 2 521 -2T498 -8T473 -10Q446 -10 425
4T395 47Q365 30 335 17T275 -3T209 -10ZM228 595L345 789H430L296 595H228Z" />
<glyph unicode="&#xfb;" horiz-adv-x="546" d="M209 -10Q164 -10 131 6T80 54T62 136V536H146V153Q146 109 170 85T241 61Q266 61 289 66T336 82T384 105V536H468V117Q468 97 473 85T486 67T505 62Q519 62 532 68L541 7Q532 2 521 -2T498 -8T473 -10Q446 -10 425
4T395 47Q365 30 335 17T275 -3T209 -10ZM107 596L221 790H314L427 596H356L267 742L177 596H107Z" />
<glyph unicode="&#xfc;" horiz-adv-x="546" d="M209 -10Q164 -10 131 6T80 54T62 136V536H146V153Q146 109 170 85T241 61Q266 61 289 66T336 82T384 105V536H468V117Q468 97 473 85T486 67T505 62Q519 62 532 68L541 7Q532 2 521 -2T498 -8T473 -10Q446 -10 425
4T395 47Q365 30 335 17T275 -3T209 -10ZM362 646Q341 646 332 657T323 690Q323 713 332 723T362 734Q383 734 392 724T401 690Q401 668 392 657T362 646ZM172 646Q151 646 142 657T132 690Q132 713 141 723T172 734Q193 734 202 724T211 690Q211 668 202 657T172
646Z" />
<glyph unicode="&#xfd;" horiz-adv-x="496" d="M165 -208L233 0H217L11 535L101 540L267 76L411 540L497 535L250 -213L165 -208ZM209 595L326 789H411L277 595H209Z" />
<glyph unicode="&#xfe;" horiz-adv-x="536" d="M63 -210V740H146V518Q182 531 220 538T293 546Q393 546 445 478T498 277Q498 175 473 112T393 19T251 -10Q227 -10 200 -8T146 1V-210H63ZM250 52Q308 52 343 73T395 142T412 271Q412 340 396 385T346 453T262 476Q235
476 207 471T146 454V65Q178 59 203 56T250 52Z" />
<glyph unicode="&#xff;" horiz-adv-x="496" d="M165 -208L233 0H217L11 535L101 540L267 76L411 540L497 535L250 -213L165 -208ZM343 646Q322 646 313 657T304 690Q304 713 313 723T343 734Q364 734 373 724T382 690Q382 668 373 657T343 646ZM153 646Q132 646
123 657T113 690Q113 713 122 723T153 734Q174 734 183 724T192 690Q192 668 183 657T153 646Z" />
<glyph unicode="&#x2013;" horiz-adv-x="405" d="M16 248V314H389V248H16Z" />
<glyph unicode="&#x2014;" horiz-adv-x="773" d="M6 248V314H767V248H6Z" />
<glyph unicode="&#x2018;" horiz-adv-x="178" d="M33 430Q32 439 32 448T32 466Q32 540 46 594T92 700L157 693Q131 642 119 592T107 478Q107 466 107 454T108 430H33Z" />
<glyph unicode="&#x2019;" horiz-adv-x="177" d="M88 430L23 437Q49 488 61 538T73 652Q73 664 73 676T72 700H147Q148 691 148 682T148 664Q148 590 134 536T88 430Z" />
<glyph unicode="&#x201a;" horiz-adv-x="177" d="M80 -220L15 -213Q41 -162 53 -112T65 2Q65 14 65 26T64 50H139Q140 41 140 32T140 14Q140 -60 126 -114T80 -220Z" />
<glyph unicode="&#x201c;" horiz-adv-x="337" d="M33 430Q32 439 32 448T32 466Q32 540 46 594T92 700L157 693Q131 642 119 592T107 478Q107 466 107 454T108 430H33ZM192 430Q191 439 191 448T191 466Q191 540 205 594T251 700L316 693Q290 642 278 592T266
478Q266 466 266 454T267 430H192Z" />
<glyph unicode="&#x201d;" horiz-adv-x="336" d="M88 430L23 437Q49 488 61 538T73 652Q73 664 73 676T72 700H147Q148 691 148 682T148 664Q148 590 134 536T88 430ZM247 430L182 437Q208 488 220 538T232 652Q232 664 232 676T231 700H306Q307 691 307 682T307
664Q307 590 293 536T247 430Z" />
<glyph unicode="&#x201e;" horiz-adv-x="336" d="M80 -220L15 -213Q41 -162 53 -112T65 2Q65 14 65 26T64 50H139Q140 41 140 32T140 14Q140 -60 126 -114T80 -220ZM240 -220L175 -213Q201 -162 213 -112T225 2Q225 14 225 26T224 50H299Q300 41 300 32T300 14Q300
-60 286 -114T240 -220Z" />
<glyph unicode="&#x2022;" horiz-adv-x="315" d="M157 201Q125 201 99 216T57 258T41 317Q41 349 56 375T98 417T157 433Q190 433 216 418T258 376T274 317Q274 285 258 259T216 217T157 201Z" />
<glyph unicode="&#x2039;" horiz-adv-x="257" d="M27 226V317L220 517L231 436L80 271L231 106L220 25L27 226Z" />
<glyph unicode="&#x203a;" horiz-adv-x="257" d="M231 309V234L37 25L27 111L177 271L27 435L37 517L231 309Z" />
</font>
</defs>
</svg>
