<?xml version="1.0" standalone="no"?>
<!DOCTYPE svg PUBLIC "-//W3C//DTD SVG 1.1//EN" "http://www.w3.org/Graphics/SVG/1.1/DTD/svg11.dtd">
<svg xmlns="http://www.w3.org/2000/svg">
<defs >
<font id="Uchen" horiz-adv-x="635" ><font-face
    font-family="Uchen"
    units-per-em="1024"
    panose-1="1 1 1 0 1 1 1 1 1 1"
    ascent="1248"
    descent="-660"
    alphabetic="0" />
<glyph unicode=" " glyph-name="space" horiz-adv-x="624" />
<glyph unicode="!" glyph-name="exclam" horiz-adv-x="275" d="M119 202V251Q119 318 113 369T100 466T87 558T81 663Q81 752 137 752Q194 752 194 663Q194 605 188 559T175 466T162 369T156 251V202H119ZM81 49Q81 70 97 87T137 105Q160 105 177 88T194 49Q194
27 177 10T137 -8Q114 -8 98 9T81 49Z" />
<glyph unicode="&quot;" glyph-name="quotedbl" horiz-adv-x="348" d="M247 622L212 812Q212 816 211 820T210 829Q210 851 225 866T263 881Q286 881 300 866T315 829Q315 823 313 813L280 622H247ZM69 622L34 812Q34 816 33 820T32 829Q32 851 47 866T85 881Q108
881 122 866T137 829Q137 823 135 813L102 622H69Z" />
<glyph unicode="#" glyph-name="numbersign" horiz-adv-x="631" d="M295 700L267 534H418L446 700H494L466 534H578L566 477H456L421 271H534L522 214H410L381 44H334L363 214H212L183 44H135L164 214H53L65 271H175L210 477H97L109 534H220L248 700H295ZM257
477L222 271H373L408 477H257Z" />
<glyph unicode="$" glyph-name="dollar" horiz-adv-x="535" d="M452 744V489H421Q409 565 377 619T299 693V438Q340 427 375 409T437 364T478 297T493 206Q493 158 478 119T436 51T375 8T299 -8V-80H251V-2Q217 6 188 27T134 81L103 0H73V271L110 275Q112 238
123 205T154 145T197 98T251 67V335Q215 348 185 362T132 399T98 455T85 538Q85 637 130 694T251 752V825H299V745Q356 727 402 670L421 744H452ZM299 57Q319 57 340 64T380 86T409 122T421 170Q421 239 389 273T299 319V57ZM154 582Q154 481 251 456V704Q206 703
180 668T154 582Z" />
<glyph unicode="%" glyph-name="percent" horiz-adv-x="849" d="M566 -8Q500 -8 464 34T428 146Q428 199 445 247T493 332T565 390T657 412Q721 412 750 376T780 275Q780 220 763 169T717 79T649 16T566 -8ZM572 40Q609 40 639 64T690 123T723 199T735 275Q735
319 716 341T663 364Q634 364 607 343T559 287T526 210T513 125Q513 85 528 63T572 40ZM733 753L123 -59L95 -38L598 632Q576 618 547 611T489 604Q453 604 425 621Q428 609 428 597Q428 561 413 517T369 433T302 367T217 340Q151 340 114 381T77 489Q77 543 94
592T142 678T213 738T303 760Q337 760 363 749T400 712Q402 707 402 698T404 687Q417 663 444 653T493 643Q551 643 602 674T704 774L733 753ZM380 647Q362 659 355 671T348 700V704Q340 707 331 709T311 712Q283 712 257 690T209 633T175 556T162 473Q162 433
177 411T224 388Q256 388 285 410T336 467T371 542T384 619Q384 625 383 633T380 647Z" />
<glyph unicode="&amp;" glyph-name="ampersand" horiz-adv-x="795" d="M461 416H712V372H695Q675 372 661 367T636 352T615 327T594 290L566 237Q553 211 540 186T507 135Q527 110 551 92T607 73Q643 73 666 103T695 178L733 170Q733 153 725 131T706 88Q683 39
654 20T574 0Q532 0 499 14T437 63Q401 20 355 6T261 -8Q210 -8 172 9T108 56T70 121T57 197Q57 266 101 325T220 422Q200 466 189 501T178 566Q178 608 189 642T221 700T272 738T340 752Q409 752 449 716T489 615Q489 585 476 556T441 503T388 459T321 428Q366
342 406 277T479 166L485 175Q511 218 530 253T550 319Q550 335 544 345T526 362T501 370T473 372H461V416ZM340 708Q306 708 283 682T259 610Q259 595 263 576T275 537T290 499T305 467Q416 507 416 615Q416 655 397 681T340 708ZM237 385L226 378Q154 335 154
250Q154 215 166 181T199 119T247 74T303 57Q316 57 331 60T362 68T390 81T412 98Q304 225 237 385Z" />
<glyph unicode="&apos;" glyph-name="quotesingle" horiz-adv-x="178" d="M69 622L34 812Q34 816 33 820T32 829Q32 851 47 866T85 881Q108 881 122 866T137 829Q137 823 135 813L102 622H69Z" />
<glyph unicode="(" glyph-name="parenleft" horiz-adv-x="323" d="M49 372Q49 515 106 633T275 825V793Q227 744 197 706T150 623T127 520T121 372Q121 283 127 225T149 122T196 39T275 -49V-81Q163 -7 106 111T49 372Z" />
<glyph unicode=")" glyph-name="parenright" horiz-adv-x="323" d="M275 372Q275 301 261 235T218 111T147 5T49 -81V-49Q97 0 127 38T173 121T196 224T202 372Q202 461 196 519T174 622T127 705T49 793V825Q160 751 217 633T275 372Z" />
<glyph unicode="*" glyph-name="asterisk" horiz-adv-x="273" d="M216 631Q194 623 180 619T160 612V611Q165 609 181 604T215 592T247 577T261 560Q261 549 252 541T231 532Q228 532 218 539T195 557T172 578T154 594L152 596L150 594V583Q150 575 153 565T159
543T165 522T168 507Q168 481 140 481Q113 481 113 507Q113 512 116 521T122 542T128 564T131 583V594Q130 594 128 596Q123 591 112 581T88 560T64 541T49 532Q38 532 29 540T20 560Q20 567 34 575T65 591T99 604T121 611V612Q116 613 100 618T66 630T34 646T20
663Q20 674 29 682T49 690Q52 690 63 682T87 663T111 642T128 627Q127 627 131 629V640Q131 647 128 657T122 679T116 700T113 716Q113 744 140 744Q168 744 168 716Q168 711 165 702T159 681T153 659T150 640V629L152 627Q156 631 168 641T192 663T216 682T231
690Q242 690 251 682T261 663Q261 647 216 631Z" />
<glyph unicode="+" glyph-name="plus" horiz-adv-x="590" d="M259 546H332V376H495V303H332V139H259V303H89V376H259V546Z" />
<glyph unicode="," glyph-name="comma" horiz-adv-x="178" d="M16 -16Q37 5 54 20T82 48T99 72T105 97Q105 102 105 107T103 117Q95 115 86 114T73 113Q52 113 38 129T24 166Q24 188 41 203T79 218Q108 218 127 194T146 133Q146 107 140 86T121 45T87 4T36 -42L16 -16Z" />
<glyph unicode="-" glyph-name="hyphen" horiz-adv-x="291" d="M16 308V369H278V308H16Z" />
<glyph unicode="." glyph-name="period" horiz-adv-x="170" d="M32 166Q32 188 47 203T85 218Q108 218 122 203T137 166Q137 144 123 129T85 113Q62 113 47 128T32 166Z" />
<glyph unicode="/" glyph-name="slash" horiz-adv-x="275" d="M291 752L36 -8H-16L239 752H291Z" />
<glyph unicode="0" glyph-name="zero" horiz-adv-x="542" d="M40 352Q40 428 58 495T107 612T181 691T271 720Q319 720 360 691T433 612T483 495T501 352Q501 276 483 209T434 92T361 13T271 -16Q223 -16 181 13T108 92T58 209T40 352ZM142 352Q142 286 152 228T180
126T221 57T271 32Q297 32 320 57T361 125T389 227T400 352Q400 418 390 476T362 577T321 646T271 671Q245 671 222 646T181 578T153 476T142 352Z" />
<glyph unicode="1" glyph-name="one" horiz-adv-x="450" d="M158 38Q176 38 191 49T207 94V545Q207 566 202 578T187 597T162 605T127 607H80V644Q131 646 171 665T251 720H291V94Q291 61 306 49T340 37H372V0H113V38H158V38Z" />
<glyph unicode="2" glyph-name="two" horiz-adv-x="526" d="M32 38Q46 60 64 83T109 137T174 213T265 321Q360 435 360 540Q360 603 328 637T235 671Q211 671 188 664T146 644T117 612T105 570Q105 563 110 559T121 551Q147 537 161 520T176 478Q176 453 159 437T117
421Q101 421 88 430T65 455T50 491T44 534Q44 574 61 608T108 667T177 706T259 720Q300 720 337 705T402 664T448 603T465 526Q465 468 434 414T347 304Q317 274 286 243T224 182T169 122T125 65H320Q351 65 373 80T409 121Q421 143 429 175Q432 190 437 210T449
259H481V0H32V38Z" />
<glyph unicode="3" glyph-name="three" horiz-adv-x="518" d="M251 -16Q153 -16 97 27T40 154Q40 184 57 209T105 235Q129 235 147 218T166 174Q166 156 157 145T138 125T118 110T109 93Q109 83 117 73T141 53T181 38T239 32Q306 32 343 75T380 190Q380 261 346
304T255 348H194Q166 348 166 372Q166 396 194 396H249Q364 396 364 542Q364 674 250 674Q231 674 212 671T178 660T152 642T142 615Q142 612 148 605T161 589T175 569T182 548Q182 521 168 503T128 485Q99 485 82 507T65 558Q65 594 81 623T124 674T187 707T262
719Q303 719 339 707T402 672T445 616T461 542Q461 482 422 437T319 374V372Q391 360 434 313T477 190Q477 143 460 105T412 40T340 -1T251 -16Z" />
<glyph unicode="4" glyph-name="four" horiz-adv-x="542" d="M392 235H501V178H392V94Q392 60 407 49T441 38H459V0H240V38H259Q277 38 292 49T307 94V178H36V235L364 724H392V235ZM307 555L97 243H307V555Z" />
<glyph unicode="5" glyph-name="five" horiz-adv-x="519" d="M146 720Q184 715 222 710T299 704H356Q391 704 415 712T445 720Q453 720 453 708Q453 685 438 668T398 639T345 621T288 615H222Q206 615 194 617T158 623L142 429Q174 443 203 452T259 461Q309 461
349 444T417 395T461 321T477 226Q477 173 460 129T411 53T338 3T245 -15Q151 -15 96 29T40 158Q40 172 45 185T59 210T79 228T105 235Q129 235 147 218T166 174Q166 154 158 141T140 118T122 103T113 93Q113 79 123 68T151 49T192 37T239 32Q273 32 299 46T344
85T371 145T380 222Q380 264 371 299T343 359T299 398T239 412Q178 412 133 372Q133 323 101 323Q87 323 78 332T69 356Q69 373 76 379T89 396L113 720H146Z" />
<glyph unicode="6" glyph-name="six" horiz-adv-x="542" d="M282 -16Q228 -16 184 8T107 76T58 179T40 307Q40 416 60 494T116 622T203 696T315 720Q349 720 378 712T430 687T464 649T477 598Q477 569 462 548T416 526Q382 526 371 543T359 579Q359 598 365 618T372
650Q372 675 317 675Q260 675 226 650T174 585T151 493T146 388V340H148Q207 437 307 437Q349 437 383 421T443 376T483 309T497 226Q497 176 481 132T437 55T369 3T282 -16ZM283 380Q257 380 232 367T188 330T158 271T146 194Q146 167 156 139T184 87T227 48T283
32Q310 32 331 45T368 84T392 144T400 222Q400 256 392 285T369 335T332 368T283 380Z" />
<glyph unicode="7" glyph-name="seven" horiz-adv-x="507" d="M57 461V720Q103 718 149 715T243 712H383Q399 712 420 714T456 720V687L393 540Q365 476 346 424T314 328T297 244T291 165V81Q291 31 274 8T226 -16Q178 -16 178 61Q178 115 198 184T255 340L387
647H247Q241 647 229 647T205 648T181 648T166 649Q146 649 139 642T129 626Q123 615 113 573T93 461H57Z" />
<glyph unicode="8" glyph-name="eight" horiz-adv-x="526" d="M271 720Q310 720 345 708T405 673T446 619T461 550Q461 499 429 459T350 396Q420 368 459 320T498 199Q498 149 479 110T427 42T351 -1T259 -16Q208 -16 167 -2T97 38T52 99T36 174Q36 204 46 232T75
284T120 328T177 359Q73 406 73 526Q73 566 87 601T128 663T190 705T271 720ZM271 671Q215 671 181 644T146 566Q146 509 182 475T291 418Q341 447 364 477T388 550Q388 610 358 640T271 671ZM223 334Q170 307 144 268T117 173Q117 102 155 67T259 32Q293 32 322
40T372 64T405 105T417 162Q417 206 401 233T357 278T295 308T223 334Z" />
<glyph unicode="9" glyph-name="nine" horiz-adv-x="542" d="M258 720Q311 720 355 696T432 628T481 525T499 396Q499 287 479 209T423 81T337 8T225 -16Q191 -16 162 -8T110 16T76 54T63 105Q63 134 78 156T123 178Q157 178 169 161T181 125Q181 105 175 85T168
53Q168 28 223 28Q280 28 314 53T366 118T389 210T394 315V364H392Q334 267 232 267Q190 267 156 283T96 328T56 395T42 477Q42 528 58 572T102 649T170 701T258 720ZM257 323Q283 323 308 336T352 374T382 432T394 509Q394 536 384 564T356 617T313 656T257 672Q230
672 208 658T171 619T148 559T139 482Q139 448 147 419T170 369T207 335T257 323Z" />
<glyph unicode=":" glyph-name="colon" horiz-adv-x="170" d="M32 166Q32 188 47 203T85 218Q108 218 122 203T137 166Q137 144 123 129T85 113Q62 113 47 128T32 166ZM32 372Q32 394 47 409T85 425Q108 425 122 410T137 372Q137 350 123 335T85 319Q62 319 47
334T32 372Z" />
<glyph unicode=";" glyph-name="semicolon" horiz-adv-x="191" d="M28 376Q28 398 45 413T85 429Q108 429 125 414T142 376Q142 354 125 339T85 323Q62 323 45 338T28 376ZM16 -16Q37 5 54 20T82 48T99 72T105 97Q105 102 105 107T103 117Q95 115 86 114T73 113Q52
113 38 129T24 166Q24 188 41 203T79 218Q108 218 127 194T146 133Q146 107 140 86T121 45T87 4T36 -42L16 -16Z" />
<glyph unicode="&lt;" glyph-name="less" horiz-adv-x="592" d="M57 404L534 639V566L146 372L534 178V105L57 340V404Z" />
<glyph unicode="=" glyph-name="equal" horiz-adv-x="364" d="M347 477V404H15V477H347ZM347 275V202H15V275H347Z" />
<glyph unicode="&gt;" glyph-name="greater" horiz-adv-x="592" d="M55 99V173L449 369L55 565V639L536 401V336L55 99Z" />
<glyph unicode="?" glyph-name="question" horiz-adv-x="437" d="M285 379Q266 362 254 347T233 317T222 286T218 251V202H178V251Q178 311 199 357T259 453Q272 468 282 485T300 519T312 550T316 574Q316 639 283 671T190 704Q176 704 161 700T134 688T113 671T105
652Q105 641 111 633T125 616T139 599T146 578Q146 555 131 541T93 526Q69 526 51 548T32 602Q32 630 44 657T79 705T138 739T218 752Q257 752 290 740T347 704T386 648T400 574Q400 549 395 528T378 484T343 436T285 379ZM142 49Q142 70 158 87T198 105Q221 105
238 88T255 49Q255 27 238 10T198 -8Q175 -8 159 9T142 49Z" />
<glyph unicode="@" glyph-name="at" horiz-adv-x="938" d="M724 582L629 290Q624 278 623 267T621 248Q621 199 683 199Q719 199 750 216T803 264T839 335T852 421Q852 488 823 541T745 633T630 691T492 712Q407 712 335 685T211 609T128 496T98 354Q98 283 126
224T203 123T319 56T466 32Q503 32 533 34T590 40T641 52T692 68L708 24Q680 15 655 8T603 -5T542 -13T466 -16Q352 -16 270 14T135 96T57 214T32 354Q32 445 69 519T170 647T317 730T491 760Q579 760 654 735T785 666T871 559T902 421Q902 364 885 316T836 231T761
175T668 154Q612 154 583 178T542 264H538Q491 208 442 185T333 162Q277 162 252 200T226 324Q226 373 252 421T320 507T415 568T521 592Q556 592 580 583T621 551H625L635 582H724ZM389 226Q428 226 466 252T534 318T582 400T601 478Q601 513 581 535T522 557Q486
557 449 536T382 481T334 407T315 327Q315 279 334 253T389 226Z" />
<glyph unicode="A" glyph-name="A" horiz-adv-x="695" d="M325 752H357L607 90Q618 63 633 54T679 45V0H434V45Q439 45 451 45T476 48T499 57T509 74Q509 79 508 83T505 92L449 243H194Q188 224 181 203T168 163T158 128T154 104Q154 72 168 59T226 45V0H16V45Q50
45 68 62T102 125L325 752ZM321 594L211 291H433L321 594Z" />
<glyph unicode="B" glyph-name="B" horiz-adv-x="663" d="M356 744Q475 744 536 699T598 554Q598 515 589 486T564 436T524 402T472 380Q541 362 578 315T615 202Q615 134 592 94T527 33T428 6T304 0H36V45H73Q91 45 106 56T121 102V642Q121 676 106 687T73 699H36V744H356ZM218
102Q218 68 232 57T267 45H304Q368 45 409 54T475 81T508 130T518 202Q518 253 503 284T459 334T390 358T301 364H218V102ZM315 412Q415 412 458 447T501 555Q501 595 486 623T443 667T378 691T299 699H267Q249 699 234 688T218 642V412H315Z" />
<glyph unicode="C" glyph-name="C" horiz-adv-x="655" d="M598 449H561Q556 464 549 486T532 540Q504 623 463 661T353 699Q290 699 250 667T187 587T155 481T146 372Q146 214 198 132T368 49Q414 49 449 60T508 94T549 155T573 245L615 237Q599 111 538 52T356
-8Q284 -8 225 22T122 103T56 224T32 372Q32 440 56 508T122 630T224 718T352 752Q376 752 400 746T448 729T493 702T530 669L563 744H598V449Z" />
<glyph unicode="D" glyph-name="D" horiz-adv-x="733" d="M336 744Q430 744 496 718T605 644T667 527T687 372Q687 286 668 217T606 100T498 26T338 0H35V44H71Q90 44 105 56T120 101V642Q120 676 105 687T71 699H35V744H336ZM218 94Q218 80 225 73T246 62T278
58T317 57H386Q441 57 476 87T533 163T562 265T570 372Q570 423 562 478T533 580T477 657T386 687H317Q296 687 278 687T247 683T226 672T218 650V94Z" />
<glyph unicode="E" glyph-name="E" horiz-adv-x="623" d="M582 744V485H542Q533 555 523 597T491 660T427 688T315 695H291Q266 695 251 692T226 681T214 665T210 644V404H259Q323 404 353 438T388 550H429V210H388Q388 356 277 356H210V101Q210 75 226 62T291
49H315Q362 49 395 51T452 61T490 83T514 121T530 178T542 259H582V0H40V44H65Q83 44 98 56T113 101V642Q113 676 98 687T65 699H40V744H582Z" />
<glyph unicode="F" glyph-name="F" horiz-adv-x="623" d="M582 744V485H542Q533 555 523 597T491 660T427 688T315 695H291Q266 695 251 692T226 681T214 665T210 644V404H259Q323 404 353 438T388 550H429V210H388Q388 356 277 356H210V101Q210 68 225 56T259
44H295V0H40V44H65Q83 44 98 56T113 101V642Q113 676 98 687T65 699H40V744H582Z" />
<glyph unicode="G" glyph-name="G" horiz-adv-x="720" d="M571 744H607V449H569Q564 464 557 486T540 540Q512 623 471 661T361 699Q298 699 258 667T195 587T163 481T154 372Q154 217 203 131T361 44Q416 44 449 60T501 101T524 157T530 219Q530 246 526 261T511
284T485 292T445 294H425V340H692V294H671Q663 294 652 293T631 287T614 274T607 251V-8H557L550 89Q515 38 465 15T349 -8Q274 -8 216 24T119 109T60 231T40 372Q40 440 64 508T130 630T232 718T361 752Q384 752 408 746T456 729T501 702T538 669L571 744Z" />
<glyph unicode="H" glyph-name="H" horiz-adv-x="760" d="M303 744V699H267Q249 699 234 688T218 642V421H542V642Q542 676 527 687T493 699H457V744H724V699H687Q669 699 654 688T639 642V101Q639 68 654 56T687 44H724V0H457V44H493Q512 44 527 56T542 101V356H218V101Q218
68 233 56T267 44H303V0H36V44H73Q91 44 106 56T121 101V642Q121 676 106 687T73 699H36V744H303Z" />
<glyph unicode="I" glyph-name="I" horiz-adv-x="363" d="M319 744V699H283Q265 699 250 688T235 642V101Q235 68 250 56T283 44H319V0H53V44H89Q107 44 122 56T137 101V642Q137 676 122 687T89 699H53V744H319Z" />
<glyph unicode="J" glyph-name="J" horiz-adv-x="542" d="M514 744V699H477Q459 699 444 688T429 642V251Q429 179 416 130T376 50T310 6T220 -8Q180 -8 146 4T86 39T47 95T32 170Q32 215 51 247T113 279Q144 279 161 265T178 218Q178 187 161 169T121 150Q115
150 109 154T97 158Q91 158 90 150T89 137Q89 127 96 111T118 79T154 52T204 40Q251 40 277 60T315 114T329 189T332 275V642Q332 676 317 687T283 699H247V744H514Z" />
<glyph unicode="K" glyph-name="K" horiz-adv-x="745" d="M291 744V699H259Q241 699 226 688T210 642V333L454 598Q476 621 484 640T493 667Q493 681 485 690T461 699H429V744H687V699H676Q656 699 640 694T606 679T570 650T528 607L392 460L619 104Q623 97 630
87T647 68T669 51T695 44H712V0H437V44H453Q479 44 496 49T514 69Q514 74 510 84T495 111L325 381L210 257V101Q210 68 225 56T259 44H291V0H28V44H65Q83 44 98 56T113 101V642Q113 676 98 687T65 699H28V744H291Z" />
<glyph unicode="L" glyph-name="L" horiz-adv-x="618" d="M299 744V699H263Q245 699 230 688T214 642V101Q214 68 229 56T263 44H323Q417 44 465 74T530 175Q534 190 539 210T550 259L582 262V0H32V44H69Q87 44 102 56T117 101V642Q117 676 102 687T69 699H32V744H299Z" />
<glyph unicode="M" glyph-name="M" horiz-adv-x="873" d="M259 744L443 185L619 744H837V699H801Q782 699 767 688T752 642V101Q752 68 767 56T801 44H837V0H570V44H607Q625 44 640 56T655 101V690H653L441 0H404L176 692H174V101Q174 68 189 56T222 44H259V0H30V44H66Q84
44 99 56T115 101V642Q115 676 100 687T66 699H30V744H259Z" />
<glyph unicode="N" glyph-name="N" horiz-adv-x="768" d="M216 744L594 188H596V642Q596 676 581 687T547 699H511V744H740V699H700Q681 699 666 688T651 642V-8H607L173 620L170 617V101Q170 68 185 56T218 44H255V0H32V44H65Q83 44 98 56T113 101V667L90 699H40V744H216Z"
/>
<glyph unicode="O" glyph-name="O" horiz-adv-x="760" d="M380 760Q452 760 511 728T613 641T680 517T704 372Q704 297 680 227T614 103T512 17T380 -16Q308 -16 249 16T147 103T81 227T57 372Q57 447 80 517T147 641T249 727T380 760ZM380 40Q433 40 470 58T531
107T568 174T588 248T596 317T598 372Q598 393 597 426T589 496T569 570T531 637T470 685T380 704Q327 704 290 686T229 637T192 570T172 496T164 426T162 372Q162 351 163 318T171 248T191 174T229 107T290 59T380 40Z" />
<glyph unicode="P" glyph-name="P" horiz-adv-x="639" d="M356 744Q475 744 536 697T598 538Q598 469 576 429T516 367T429 339T324 332H218V101Q218 68 233 56T267 44H303V0H36V44H73Q91 44 106 56T121 101V643Q121 676 106 688T73 700H36V744H356ZM356 697Q336
699 321 699T291 700H267Q249 700 234 688T218 643V380H315Q415 380 458 417T501 539Q501 690 356 697Z" />
<glyph unicode="Q" glyph-name="Q" horiz-adv-x="760" d="M380 760Q452 760 511 728T613 641T680 517T704 372Q704 287 673 209T588 75L611 -10Q617 -33 623 -54T640 -92T664 -119T701 -129Q712 -129 720 -115T728 -65V-60H768V-69Q768 -142 741 -176T676 -210Q635
-210 607 -196T560 -154T532 -88T519 0L518 20Q486 3 452 -6T380 -16Q308 -16 249 16T147 103T81 227T57 372Q57 447 80 517T147 641T249 727T380 760ZM162 372Q162 345 164 301T179 211T218 123T291 59Q281 88 281 117Q281 151 292 176T323 219T367 246T418 255Q463
255 502 229T557 148Q572 177 580 208T592 270T597 327T598 372Q598 393 597 426T589 496T569 570T531 637T470 685T380 704Q327 704 290 686T229 637T192 570T172 496T164 426T162 372ZM380 40Q424 40 456 53T512 87Q508 112 501 134T481 173T451 200T412 210Q392
210 376 201T348 178T330 145T323 109Q323 85 336 65T380 40Z" />
<glyph unicode="R" glyph-name="R" horiz-adv-x="704" d="M356 744Q475 744 536 697T598 538Q598 484 584 448T546 388T487 353T414 336Q494 311 521 215Q526 198 528 171T534 119T549 75T582 57Q595 57 603 64T615 82T621 104T623 125V129H663V121Q663 44 631
14T540 -16Q504 -16 483 0T449 43T432 100T424 162Q420 205 412 236T391 287T356 318T305 332H218V101Q218 68 233 56T267 44H303V0H36V44H73Q91 44 106 56T121 101V643Q121 676 106 688T73 700H36V744H356ZM356 697Q328 699 309 699T267 700Q249 700 234 688T218
643V380H315Q415 380 458 417T501 539Q501 690 356 697Z" />
<glyph unicode="S" glyph-name="S" horiz-adv-x="598" d="M483 744H518V489H480Q471 537 451 576T404 644T341 688T267 704Q240 704 216 695T175 669T147 630T137 582Q137 537 162 508T243 462L394 418Q472 396 515 344T558 206Q558 158 541 119T492 51T417 8T323
-8Q263 -8 212 15T119 81L81 0H49V271L89 275Q93 229 115 189T171 120T249 74T340 57Q362 57 386 65T430 88T463 123T477 170Q477 222 453 256T379 305L285 330Q235 344 195 358T126 395T81 451T65 538Q65 638 119 695T267 752Q321 752 366 732T454 670L483 744Z"
/>
<glyph unicode="T" glyph-name="T" horiz-adv-x="651" d="M586 478Q583 498 581 518T576 558Q571 592 562 618T534 661T489 686T420 695Q404 695 395 693T382 684T376 665T375 632V118Q375 68 382 60Q391 46 434 46H458V0H190V46L230 48Q246 49 255 50T268 58T274
76T276 110V648Q276 675 268 685T228 695Q129 695 98 644Q92 633 84 593T64 481H28V744H617V478H586Z" />
<glyph unicode="U" glyph-name="U" horiz-adv-x="768" d="M303 744V699H267Q249 699 234 688T218 642V235Q218 183 228 148T262 90T322 59T412 49Q454 49 487 63T543 104T578 167T590 246V642Q590 676 575 687T542 699H501V744H736V699H695Q677 699 662 688T647
642V300Q647 222 634 163T591 65T511 5T388 -16Q257 -16 189 41T121 202V642Q121 676 106 687T73 699H36V744H303Z" />
<glyph unicode="V" glyph-name="V" horiz-adv-x="704" d="M283 744V699H245Q216 699 207 692T198 667Q198 662 202 652T212 622L380 150L521 561Q531 590 536 610T542 642Q542 668 524 683T469 699H457V744H691V699H679Q664 699 653 696T631 683T611 654T590 602L376
-8H336L97 643Q89 666 76 682T28 699H12V744H283Z" />
<glyph unicode="W" glyph-name="W" horiz-adv-x="942" d="M24 744H267V699H235Q215 699 204 693T192 667Q192 662 198 643L334 176L451 590L437 643Q429 670 419 684T380 699H352V744H603V699H582Q553 699 542 692T530 667Q531 661 533 651T541 623L668 177L771
561Q773 569 776 581T782 604T787 626T789 641Q789 670 776 684T720 699H708V744H919V699H910Q887 699 871 682T840 623L668 -8H627L474 508L332 -8H293L96 643Q91 659 87 669T78 686T64 696T40 699H24V744Z" />
<glyph unicode="X" glyph-name="X" horiz-adv-x="687" d="M283 744V699H252Q231 699 223 695T214 679Q214 671 221 655L349 455L458 625Q466 636 466 650Q466 670 447 684T396 699H380V744H627V699H608Q588 699 574 691T548 669T528 640T509 609L377 411L562 118Q575
98 583 84T601 61T622 48T653 44H671V0H404V44H441Q479 44 479 65Q479 72 475 82T464 104L318 319L216 164Q205 147 198 130T191 96Q191 74 206 59T259 44H279V0H21V44H34Q49 44 62 52T89 74T113 103T136 135L290 363L104 656Q90 679 76 689T30 699H20V744H283Z"
/>
<glyph unicode="Y" glyph-name="Y" horiz-adv-x="687" d="M283 744V699H244Q223 699 215 695T206 679Q206 672 210 662T220 641L380 364L492 580Q502 600 508 618T515 652Q515 673 501 686T448 699H429V744H675V699H660Q640 699 625 692T599 671T578 642T561 609L404
300V101Q404 68 419 56T453 44H489V0H222V44H259Q277 44 292 56T307 101V299L115 626Q103 646 95 660T79 682T58 695T24 699H13V744H283Z" />
<glyph unicode="Z" glyph-name="Z" horiz-adv-x="598" d="M548 744V704L156 49H297Q370 49 412 56T476 87T508 154T525 271L564 267V0H34V40L426 695H317Q248 695 207 689T144 661T111 600T92 493H51V744H548Z" />
<glyph unicode="[" glyph-name="bracketleft" horiz-adv-x="259" d="M218 784V744H146Q127 744 112 733T97 687V-8Q97 -42 112 -53T146 -65H218V-105H40V784H218Z" />
<glyph unicode="\" glyph-name="backslash" horiz-adv-x="275" d="M36 752L291 -8H239L-16 752H36Z" />
<glyph unicode="]" glyph-name="bracketright" horiz-adv-x="259" d="M218 784V-105H40V-65H113Q131 -65 146 -54T162 -8V687Q162 721 147 732T113 744H40V784H218Z" />
<glyph unicode="^" glyph-name="asciicircum" horiz-adv-x="421" d="M237 760L398 356H338L210 675L83 356H22L184 760H237Z" />
<glyph unicode="_" glyph-name="underscore" horiz-adv-x="421" d="M16 -73H404V-129H16V-73Z" />
<glyph unicode="`" glyph-name="grave" horiz-adv-x="421" d="M275 550L137 640Q98 664 98 685Q98 689 100 695T109 706T124 716T146 720Q162 720 193 687L323 550H275Z" />
<glyph unicode="a" glyph-name="a" horiz-adv-x="509" d="M340 37Q311 0 261 -10Q234 -16 164 -16Q104 -16 70 15T35 106Q35 207 149 253Q173 263 219 273T336 294V308Q336 318 336 332T334 366Q331 445 230 445Q192 445 165 437T138 411Q138 401 143 394Q156
372 156 351Q156 302 101 302Q54 302 54 365Q54 430 124 464Q191 496 244 496Q263 496 288 491T337 476T380 450T408 416Q416 398 418 368T420 303Q420 234 418 181T416 110Q416 79 424 63T459 47Q492 47 499 44T506 35Q506 26 500 18T483 4T461 -7T437 -11Q392
-11 372 1T340 37ZM336 247Q230 233 177 204T123 115Q123 80 147 57T204 34Q286 34 313 72Q336 104 336 208V247Z" />
<glyph unicode="b" glyph-name="b" horiz-adv-x="538" d="M166 406H169Q186 444 221 468T307 493Q348 493 382 471T441 413T479 333T493 243Q493 193 481 147T443 64T379 6T291 -16Q246 -16 211 5T149 68L129 -16H68Q70 -5 73 24T78 100Q79 115 80 131T81 162V642Q81
671 77 686T46 704L16 706V744L166 760V406ZM279 441Q254 441 233 424T196 377T171 308T162 226Q162 134 194 81T291 28Q341 28 372 81T404 226Q404 331 373 386T279 441Z" />
<glyph unicode="c" glyph-name="c" horiz-adv-x="453" d="M407 122Q381 44 341 14T236 -16Q193 -16 157 2T95 53T55 128T40 222Q40 286 54 337T96 425T164 481T255 501Q289 501 318 489T368 457T400 413T412 364Q412 335 399 321T364 307Q340 307 322 322T303
364Q303 386 312 399T321 416Q321 419 316 425T301 438T280 448T253 453Q224 453 202 438T163 396T138 331T129 247Q129 150 166 95T269 40Q304 40 330 65T373 137L407 122Z" />
<glyph unicode="d" glyph-name="d" horiz-adv-x="542" d="M449 94Q449 60 464 49T497 37H516V0L368 -8V79H364Q346 34 320 9T239 -16Q189 -16 151 6T86 65T46 149T32 246Q32 291 46 335T86 414T146 471T222 493Q273 493 308 469T361 406H364V641Q364 670 360 685T330
702L283 706V744L449 760V94ZM251 441Q189 441 159 386T129 226Q129 134 159 83T239 32Q270 32 294 47T335 89T359 151T368 226Q368 269 359 308T335 376T298 423T251 441Z" />
<glyph unicode="e" glyph-name="e" horiz-adv-x="485" d="M421 122Q395 44 347 14T232 -16Q189 -16 153 2T91 53T51 128T36 222Q36 286 50 337T92 425T160 481T251 501Q294 501 330 477T391 416T431 332T445 243V230H125Q129 140 165 90T265 40Q283 40 301 46T335
65T365 96T387 137L421 122ZM356 321Q356 379 328 416T251 453Q199 453 166 407T127 283H307Q325 283 335 284T349 290T355 301T356 321Z" />
<glyph unicode="f" glyph-name="f" horiz-adv-x="332" d="M117 481V499Q117 628 163 690T304 752Q358 752 393 726T429 655Q429 629 416 614T376 598Q355 598 339 612T323 647Q323 663 331 670T340 687Q340 701 326 706T303 712Q271 712 252 696T221 653T206 588T202
509V481H307V421H202V94Q202 61 217 49T251 37H271V0H49V38H69Q87 38 102 49T117 94V421H32V481H117Z" />
<glyph unicode="g" glyph-name="g" horiz-adv-x="534" d="M356 69Q380 69 400 60T434 35T457 -2T465 -49Q465 -128 407 -169T246 -210Q20 -210 20 -97Q20 -85 26 -72T44 -46T74 -24T117 -8V-5Q44 6 44 86Q44 152 131 184L140 187Q98 206 78 242T57 332Q57 367
70 397T107 451T165 487T243 501Q318 501 366 462L396 491Q411 506 427 512T457 518Q481 518 501 503T522 461Q522 440 510 426T478 412Q461 412 454 420T443 438T435 456T421 465Q417 465 413 461T406 455L390 437Q408 420 416 393T425 332Q425 245 372 204T235
162Q213 162 190 161T148 154T117 139T105 113Q105 93 115 81T146 69H356ZM243 461Q196 461 169 426T142 332Q142 268 167 233T243 198Q266 198 284 208T315 237T335 279T342 332Q342 461 243 461ZM235 -8Q209 -8 185 -12T141 -25T109 -52T97 -97Q97 -135 134 -152T253
-170Q283 -170 310 -164T357 -145T388 -116T400 -77Q400 -54 386 -41T351 -20T306 -10T261 -8H235Z" />
<glyph unicode="h" glyph-name="h" horiz-adv-x="555" d="M170 398H173Q192 441 235 467T327 493Q394 493 435 447T477 299V94Q477 61 492 49T526 37H544V0H325V38H344Q361 38 376 48T392 91V300Q392 370 366 399T303 429Q276 429 252 414T209 374T181 316T170
248V94Q170 61 185 49T218 37H237V0H18V38H36Q55 38 70 49T85 94V641Q85 670 81 685T51 702L4 706V744L170 760V398Z" />
<glyph unicode="i" glyph-name="i" horiz-adv-x="315" d="M194 655Q194 633 177 616T137 598Q114 598 98 615T81 655Q81 677 97 694T137 712Q160 712 177 695T194 655ZM210 94Q210 61 225 49T259 37H277V0H58V38H77Q95 38 110 49T125 94V382Q125 411 121 426T91
443L44 447V485L210 501V94Z" />
<glyph unicode="j" glyph-name="j" horiz-adv-x="291" d="M218 15Q218 -35 208 -76T178 -147T125 -193T49 -210Q0 -210 -30 -189T-60 -129Q-60 -101 -45 -85T-8 -69Q9 -69 26 -78T44 -105Q44 -116 38 -130T32 -150Q32 -156 39 -161T61 -166Q103 -166 118 -108T133
65V382Q133 411 129 426T99 443L53 447V485L218 501V15ZM214 655Q214 633 198 616T158 598Q135 598 118 615T101 655Q101 677 118 694T158 712Q181 712 197 695T214 655Z" />
<glyph unicode="k" glyph-name="k" horiz-adv-x="540" d="M166 244L315 387Q323 395 329 405T336 425Q336 434 328 440T300 447H270V485H485V447H469Q442 447 425 433T390 402L291 307L424 113Q432 101 441 88T460 63T480 45T501 38H526V0H311V38H332Q345 38 352
40T360 53Q360 59 356 64T342 84L227 251L166 187V94Q166 60 181 49T214 37H232V0H21V38H32Q51 38 66 49T81 94V643Q81 672 77 687T46 704L20 706V744L166 760V244Z" />
<glyph unicode="l" glyph-name="l" horiz-adv-x="315" d="M202 94Q202 60 217 49T251 37H269V0H50V38H69Q87 38 102 49T117 94V641Q117 670 113 685T83 702L36 706V744L202 760V94Z" />
<glyph unicode="m" glyph-name="m" horiz-adv-x="832" d="M182 398H185Q204 439 244 466T329 493Q378 493 412 464T460 386Q517 493 611 493Q642 493 668 480T713 445T742 394T752 334V92Q752 60 767 49T801 38H809V0H607V38H619Q637 38 652 49T667 94V299Q667
433 584 433Q527 433 498 383T469 247V95Q469 62 484 50T518 38H528V0H325V38H336Q354 38 369 49T384 94V297Q384 433 301 433Q246 433 214 387T182 256V94Q182 61 197 49T230 37H243V0H37V38H49Q67 38 82 49T97 94V382Q97 411 93 426T63 443L24 447V485L182 501V398Z"
/>
<glyph unicode="n" glyph-name="n" horiz-adv-x="566" d="M170 398H173Q192 441 235 467T327 493Q394 493 435 447T477 299V94Q477 61 492 49T526 37H538V0H325V38H344Q361 38 376 48T392 91V300Q392 370 366 399T303 429Q276 429 252 414T209 374T181 316T170
248V94Q170 61 185 49T218 37H237V0H18V38H36Q55 38 70 49T85 94V383Q85 412 81 427T51 444L16 447V485L170 502V398Z" />
<glyph unicode="o" glyph-name="o" horiz-adv-x="485" d="M36 243Q36 296 52 343T97 425T162 480T243 501Q285 501 322 481T388 425T432 343T449 243Q449 189 433 142T388 60T323 5T243 -16Q200 -16 163 4T97 60T53 142T36 243ZM125 243Q125 199 134 161T160 94T198
49T245 32Q270 32 291 48T329 94T354 161T364 243Q364 286 355 324T329 391T292 436T245 453Q220 453 199 437T161 392T135 325T125 243Z" />
<glyph unicode="p" glyph-name="p" horiz-adv-x="530" d="M178 404H180Q201 443 237 468T315 493Q363 493 398 470T456 410T490 329T501 243Q501 190 487 143T448 61T387 5T311 -16Q223 -16 180 61H178V-100Q178 -133 193 -145T226 -157H245V-194H26V-156H44Q63
-156 78 -145T93 -100V383Q93 413 89 428T59 445L28 447V485L178 501V404ZM176 226Q176 189 185 155T210 96T247 55T295 40Q351 40 381 92T412 243Q412 277 407 311T388 374T352 419T294 437Q268 437 246 421T209 377T185 310T176 226Z" />
<glyph unicode="q" glyph-name="q" horiz-adv-x="530" d="M437 -100Q437 -133 452 -144T485 -156H504V-194H285V-157H303Q322 -157 337 -145T352 -100V61H350Q307 -16 218 -16Q177 -16 142 4T82 60T42 143T28 243Q28 285 39 329T73 409T132 469T215 493Q257 493
292 468T350 404H352V501L501 485V447L471 445Q458 444 451 440T441 428T438 409T437 383V-100ZM354 226Q354 271 345 309T321 376T283 421T235 437Q200 437 178 420T142 374T123 312T117 243Q117 145 148 93T235 40Q260 40 282 55T320 95T345 155T354 226Z" />
<glyph unicode="r" glyph-name="r" horiz-adv-x="437" d="M352 344Q330 344 317 361T303 400Q303 411 315 431Q321 439 322 443T323 450Q260 439 220 338Q204 298 195 260T186 185V94Q186 61 201 49T235 37H253V0H34V38H53Q71 38 86 49T101 94V382Q101 411 97
426T67 443L20 447V485L186 501V356H189Q195 385 208 410T241 453T285 482T334 493Q367 493 389 469T412 412Q412 378 397 361T352 344Z" />
<glyph unicode="s" glyph-name="s" horiz-adv-x="437" d="M364 332H332Q301 453 186 453Q151 453 124 433T97 375Q97 346 117 329T195 299L252 285Q286 277 313 267T358 241T386 202T396 142Q396 104 382 75T346 26T294 -5T235 -16Q196 -16 163 -3T97 38L69 -8H36V174L69
170Q76 138 93 113T134 69T186 42T243 32Q261 32 278 38T307 54T328 77T336 105Q336 153 286 173Q263 182 236 190T185 205T144 216T126 220Q76 233 58 267T40 348Q40 380 52 408T85 456T132 489T186 501Q218 501 248 490T307 453L336 493H364V332Z" />
<glyph unicode="t" glyph-name="t" horiz-adv-x="388" d="M189 667V481H332V421H190V129Q190 49 253 49Q291 49 311 83T332 170H372V162Q372 74 334 33T220 -8Q169 -8 137 23T105 103V421H20V481H28Q58 481 77 484T106 498T121 529T125 586Q125 595 125 606T125
628T126 650T129 667H189Z" />
<glyph unicode="u" glyph-name="u" horiz-adv-x="540" d="M453 109Q453 94 453 83T457 65T467 53T487 48L509 46V7L368 -8V81H366Q314 -16 228 -16Q182 -16 152 -2T103 37T77 95T69 167V384Q69 413 65 428T34 445L12 447V486L154 501V155Q154 105 176 73T249 40Q271
40 292 55T330 98T357 161T368 237V384Q368 413 364 428T334 445L311 447V486L453 501V109Z" />
<glyph unicode="v" glyph-name="v" horiz-adv-x="518" d="M8 501H210V464H197Q185 464 174 456T162 433Q162 424 166 414T175 396L282 127L365 356Q380 399 380 421Q380 441 372 452T344 464H323V501H509V464H501Q485 464 472 454T447 427T428 392T412 356L275
8H243L85 396Q73 425 65 444T36 464H8V501Z" />
<glyph unicode="w" glyph-name="w" horiz-adv-x="741" d="M9 485H202V447H184Q172 447 159 440T146 416Q146 407 148 398T154 380L248 129L339 388Q333 413 324 430T289 447H275V485H473V447H469Q446 447 427 440T408 416Q408 407 411 398T417 380L511 129L596
340Q601 352 606 369T611 404Q611 422 603 434T571 447H554V485H732V447H728Q706 447 693 439T673 420T662 395T654 371L518 -8H485L365 301L255 -8H222L71 380Q60 410 52 428T22 447H9V485Z" />
<glyph unicode="x" glyph-name="x" horiz-adv-x="522" d="M226 485V447H206Q196 447 187 444T178 429Q178 423 182 414T195 394L266 296L330 377Q339 388 343 398T347 415Q347 447 310 447H297V485H489V447H477Q454 447 440 438T407 405L291 261L404 102Q429 67
448 53T496 38H505V0H271V38H287Q301 38 312 44T323 61Q323 71 305 95L235 194L166 104Q163 100 155 90T146 73Q146 60 153 49T181 38H199V0H4V38H16Q31 38 54 50T94 86L209 228L111 371Q103 383 93 396T72 421T46 440T16 447H8V485H226Z" />
<glyph unicode="y" glyph-name="y" horiz-adv-x="534" d="M218 485V447H206Q193 447 182 440T170 416Q170 407 175 398T183 380L290 111L373 340Q388 383 388 404Q388 447 352 447H332V485H518V447H509Q493 447 480 437T455 411T435 376T420 340L282 -33Q248 -125
198 -167T94 -210Q56 -210 30 -189T4 -129Q4 -105 21 -89T65 -73Q82 -73 95 -82T109 -109Q109 -130 103 -138T97 -149Q97 -155 101 -158T111 -162Q143 -162 178 -123T245 4L93 380Q81 409 73 428T44 447H24V485H218Z" />
<glyph unicode="z" glyph-name="z" horiz-adv-x="433" d="M388 485V447L117 40H226Q298 40 329 78T360 178V182H396V0H16V38L285 445H198Q158 445 132 433T90 402T68 362T61 321V315H24V485H388Z" />
<glyph unicode="{" glyph-name="braceleft" horiz-adv-x="323" d="M127 647Q127 684 133 710T156 753T199 776T268 784Q224 772 208 745T192 663V466Q192 436 188 415T173 379T148 355T111 340Q132 334 147 325T173 301T187 265T192 214V16Q192 -38 208 -65T268
-105Q227 -105 200 -98T156 -74T134 -31T127 32V228Q127 276 112 301T55 340Q97 354 112 378T127 452V647Z" />
<glyph unicode="|" glyph-name="bar" horiz-adv-x="574" d="M251 744H323V0H251V744Z" />
<glyph unicode="}" glyph-name="braceright" horiz-adv-x="323" d="M131 663Q131 717 115 744T55 784Q96 784 123 777T166 753T188 711T195 647V452Q195 403 210 379T268 340Q226 326 211 301T195 228V32Q195 -5 189 -31T166 -73T123 -97T55 -105Q99 -93 115 -66T131
16V214Q131 244 135 265T150 300T175 324T212 340Q191 346 176 355T150 378T136 414T131 466V663Z" />
<glyph unicode="~" glyph-name="asciitilde" horiz-adv-x="509" d="M42 307Q70 361 100 382T162 404Q179 404 204 397T261 373Q293 357 316 349T352 340Q374 340 390 357T425 413L466 372Q439 321 412 298T352 275Q326 275 235 315Q210 326 193 333T162 340Q150
340 141 338T123 329T104 307T82 267L42 307Z" />
<glyph unicode="&#xa0;" glyph-name="uni00A0" horiz-adv-x="624" />
<glyph unicode="&#xa1;" glyph-name="exclamdown" horiz-adv-x="275" d="M156 542V493Q156 426 162 375T175 278T188 186T194 81Q194 -8 137 -8Q81 -8 81 81Q81 139 87 185T100 278T113 375T119 493V542H156ZM194 695Q194 673 177 656T137 639Q114 639 98 656T81
695Q81 717 97 734T137 752Q160 752 177 735T194 695Z" />
<glyph unicode="&#xa2;" glyph-name="cent" horiz-adv-x="453" d="M407 122Q381 44 341 14T236 -16Q200 -16 166 -2L129 -129H89L132 18Q89 49 65 102T40 222Q40 286 54 337T96 425T164 481T255 501Q260 501 264 501T274 500L307 615H348L311 491Q358 475 385
439T412 364Q412 335 399 321T364 307Q340 307 322 322T303 364Q303 386 312 399T321 416Q321 420 315 427T297 441L188 70Q223 40 269 40Q304 40 330 65T373 137L407 122ZM129 247Q129 161 158 108L259 452Q257 453 253 453Q224 453 202 438T163 396T138 331T129
247Z" />
<glyph unicode="&#xa3;" glyph-name="sterling" horiz-adv-x="558" d="M24 412H144Q140 434 139 452T137 493Q137 553 152 600T195 682T263 734T352 752Q383 752 410 746T458 727T489 696T501 655Q501 622 485 606T445 590Q420 590 408 604T396 663Q396 692 385
706T340 720Q287 720 257 681T226 569Q226 553 226 538T228 504T232 464T239 412H385V364H243V285Q243 274 243 263T240 235T234 191T222 122Q249 111 270 104T311 91T348 84T387 81Q425 81 454 95T509 139Q514 144 521 150T534 157Q536 157 539 156T542 150Q542
120 525 92T480 42T421 7T359 -7Q341 -7 324 -4T289 6T248 27T198 60Q165 20 142 6T89 -8Q54 -8 35 11T16 62Q16 100 41 123T113 146Q136 146 166 137Q168 145 169 151T170 162Q170 168 169 191T166 245T161 307T152 364H24V412ZM97 105Q71 105 60 94T49 63Q49
24 89 24Q100 24 111 29T133 44T149 63T158 85Q153 92 136 98T97 105Z" />
<glyph unicode="&#xa4;" glyph-name="currency" horiz-adv-x="558" d="M40 372Q40 412 52 447T84 512L-24 621L30 675L137 567Q167 589 203 602T279 615Q319 615 355 602T421 567L528 675L582 621L473 512Q494 482 506 447T518 372Q518 332 506 297T474 232L582
125L526 69L420 176Q390 154 355 142T279 129Q239 129 203 141T138 176L32 69L-24 125L84 232Q64 262 52 297T40 372ZM113 372Q113 337 126 306T161 252T214 216T279 202Q313 202 343 215T396 252T432 306T445 372Q445 407 432 438T397 492T344 528T279 542Q244
542 214 529T162 492T126 438T113 372Z" />
<glyph unicode="&#xa5;" glyph-name="yen" horiz-adv-x="687" d="M283 744V699H244Q223 699 215 695T206 679Q206 672 210 662T220 641L363 392H395L492 580Q502 600 508 618T515 652Q515 673 501 686T448 699H429V744H675V699H660Q640 699 625 692T599 671T578
642T561 609L451 392H582V340H424L404 300V251H582V198H404V101Q404 68 419 56T453 44H489V0H222V44H259Q277 44 292 56T307 101V198H105V251H307V299L283 340H105V392H252L115 626Q103 646 95 660T79 682T58 695T24 699H13V744H283Z" />
<glyph unicode="&#xa6;" glyph-name="brokenbar" horiz-adv-x="574" d="M323 744V453H251V744H323ZM323 291V0H251V291H323Z" />
<glyph unicode="&#xa7;" glyph-name="section" horiz-adv-x="485" d="M203 514Q160 546 133 590T105 675Q105 735 146 770T253 805Q278 805 301 797T342 775T369 742T380 702Q380 643 324 643Q279 643 279 687Q279 698 284 709T295 729Q302 739 311 748Q311 772
257 772Q166 772 166 704Q166 682 185 657T234 605T297 549T361 488T409 422T429 352Q429 323 420 298T394 255T357 225T311 214H282Q335 179 361 140T388 53Q388 24 377 1T346 -40T300 -67T243 -77Q219 -77 195 -69T152 -46T121 -12T109 28Q109 77 157 77Q210
77 210 28Q210 18 206 10T198 -5T190 -15T186 -20Q186 -29 193 -34T209 -41T229 -43T246 -44Q278 -44 300 -32T323 20Q323 56 304 84T254 139T190 190T126 243T77 307T57 387Q57 411 66 434T91 475T128 503T174 514H203ZM190 481Q113 481 113 421Q113 390 131 359T176
303T237 263T301 247Q372 247 372 311Q372 340 355 370T312 425T253 465T190 481Z" />
<glyph unicode="&#xa8;" glyph-name="dieresis" horiz-adv-x="421" d="M304 566Q287 566 272 581T257 616Q257 635 272 650T304 666Q322 666 336 651T351 616Q351 595 338 581T304 566ZM116 566Q96 566 83 581T69 616Q69 635 84 650T116 666Q134 666 148 651T163
616Q163 595 150 581T116 566Z" />
<glyph unicode="&#xa9;" glyph-name="copyright" horiz-adv-x="849" d="M431 590Q456 590 483 578T530 547L546 586H576V414H545Q534 449 525 474T502 517T472 542T431 550Q397 550 376 533T342 489T325 432T320 372Q320 285 348 241T440 197Q491 197 517 220T553
303L585 297Q575 222 539 190T433 157Q391 157 357 173T299 219T261 288T247 372Q247 411 261 450T299 520T357 570T431 590ZM79 374Q79 447 107 511T183 624T297 701T436 729Q509 729 574 701T688 625T765 512T793 374Q793 300 765 236T688 123T574 47T436 19Q362
19 297 47T184 123T107 235T79 374ZM136 374Q136 309 159 253T223 154T319 88T436 64Q498 64 552 88T648 154T712 252T736 374Q736 438 713 494T648 593T553 659T436 683Q374 683 319 659T224 593T160 495T136 374Z" />
<glyph unicode="&#xaa;" glyph-name="ordfeminine" horiz-adv-x="348" d="M321 486Q301 466 288 460T255 453Q232 453 221 464T204 501Q177 476 154 465T104 453Q70 453 47 475T24 530Q24 547 31 562T50 588Q61 598 71 604T95 618T133 634T195 657V691Q195 737
156 737Q137 737 121 730T105 712Q105 708 107 700T109 687Q109 676 98 668T73 660Q57 660 49 670T40 695Q40 728 73 748T159 768Q275 768 275 662V534Q275 511 278 502T290 493Q305 493 321 506V486ZM194 629Q165 618 146 610T116 593T101 576T97 556Q97 536 109
521T138 505Q145 505 155 507T173 513T188 525T194 544V629ZM348 404V347H0V404H348Z" />
<glyph unicode="&#xab;" glyph-name="guillemotleft" horiz-adv-x="558" d="M488 600Q495 607 500 607Q510 607 510 596Q510 593 498 576T466 531T420 469T367 396Q394 358 420 323T466 261T498 217T510 196Q510 186 500 186Q494 186 488 193L267 396L488 600ZM270
600Q277 607 282 607Q292 607 292 596Q292 593 280 576T248 531T202 469T149 396Q176 358 202 323T248 261T280 217T292 196Q292 186 282 186Q276 186 270 193L49 396L270 600Z" />
<glyph unicode="&#xac;" glyph-name="logicalnot" horiz-adv-x="509" d="M477 429V182H421V372H32V429H477Z" />
<glyph unicode="&#xad;" glyph-name="uni00AD" horiz-adv-x="275" d="M16 308V369H278V308H16Z" />
<glyph unicode="&#xae;" glyph-name="registered" horiz-adv-x="839" d="M437 582Q505 582 541 556T578 465Q578 436 571 416T552 381T522 360T485 348Q520 330 533 281Q535 272 536 259T539 233T547 211T564 202Q576 202 583 217T590 243H621V234Q621 189 599
172T540 154Q519 154 506 162T486 183T475 214T470 249Q465 296 451 318T407 340H364V221Q364 205 371 200T386 194H411V162H252V194H276Q285 194 292 199T299 221V521Q299 537 292 543T276 549H252V582H437ZM414 377Q468 377 493 398T518 465Q518 490 510 506T487
533T453 546T411 550H386Q378 550 371 544T364 521V377H414ZM71 375Q71 448 99 512T175 625T289 702T428 730Q501 730 566 702T680 626T757 513T785 375Q785 301 757 237T680 124T566 48T428 20Q354 20 289 48T176 124T99 236T71 375ZM128 375Q128 310 151 254T215
155T311 89T428 65Q490 65 544 89T640 155T704 253T728 375Q728 439 705 495T640 594T545 660T428 684Q366 684 311 660T216 594T152 496T128 375Z" />
<glyph unicode="&#xaf;" glyph-name="overscore" horiz-adv-x="421" d="M61 655H360V598H61V655Z" />
<glyph unicode="&#xb0;" glyph-name="degree" horiz-adv-x="251" d="M285 647Q285 667 292 684T313 715T344 736T382 744Q402 744 419 737T450 716T471 685T479 647Q479 627 472 610T451 579T420 558T382 550Q362 550 345 557T314 578T293 609T285 647ZM322 647Q322
621 339 604T382 586Q408 586 425 603T443 647Q443 673 426 690T382 708Q357 708 340 691T322 647Z" />
<glyph unicode="&#xb1;" glyph-name="plusminus" horiz-adv-x="607" d="M566 98V25H40V98H566ZM340 656V413H566V340H340V162H267V340H40V413H267V656H340Z" />
<glyph unicode="&#xb2;" glyph-name="twosuperior" horiz-adv-x="340" d="M24 332Q34 347 47 362T77 397T116 443T170 507Q230 579 230 643Q230 680 210 700T155 721Q140 721 126 717T101 705T84 686T77 661Q77 657 84 652Q102 643 111 632T121 604Q121 586 109
575T80 563Q58 563 44 586T30 638Q30 664 41 686T72 725T116 751T170 760Q197 760 221 751T264 724T294 683T305 633Q305 594 281 558T223 487T153 418T92 347H209Q230 347 244 358T268 386T281 426T287 469H315V299H24V332Z" />
<glyph unicode="&#xb3;" glyph-name="threesuperior" horiz-adv-x="348" d="M170 299Q105 299 68 327T30 410Q30 430 43 447T77 464Q94 464 106 451T119 421Q119 410 114 404T102 392T90 383T84 372Q84 362 102 350T162 338Q203 338 226 362T249 431Q249 473 228
498T172 524H133Q112 524 112 543Q112 562 133 562H168Q237 562 237 647Q237 724 169 724Q158 724 146 722T125 716T109 706T103 691Q103 687 107 683T116 673T126 662T130 650Q130 631 120 619T92 606Q71 606 59 621T47 656Q47 679 57 698T86 731T127 752T177
760Q204 760 227 753T268 731T296 695T307 647Q307 612 286 585T228 544Q269 532 293 504T317 431Q317 401 306 377T274 335T228 308T170 299Z" />
<glyph unicode="&#xb4;" glyph-name="acute" horiz-adv-x="421" d="M98 550L228 687Q259 720 275 720Q288 720 297 716T312 707T320 695T323 685Q323 664 284 640L146 550H98Z" />
<glyph unicode="&#xb5;" glyph-name="mu" horiz-adv-x="558" d="M162 485V161Q162 113 188 85T259 57Q298 57 329 75T380 128V485H477V105Q477 67 485 50T514 32Q526 32 538 39T570 65V45Q555 28 543 18T519 2T494 -6T465 -8Q425 -8 406 15T384 92Q351 39 317
16T235 -8Q192 -8 160 11T101 73V61Q101 34 108 5T123 -51T139 -103T146 -146Q146 -188 129 -207T85 -226Q54 -226 39 -206T24 -150Q24 -130 30 -106T44 -54T58 3T65 61V485H162Z" />
<glyph unicode="&#xb6;" glyph-name="paragraph" horiz-adv-x="582" d="M285 744H534V712H531Q516 712 503 711T481 704T467 684T461 647V0Q461 -65 534 -65V-97H194V-65Q228 -65 247 -49T267 0V340H228Q186 340 152 354T93 394T54 457T40 542Q40 606 55 646T101
707T178 736T285 744ZM267 704H252Q223 704 204 694T174 662T159 611T154 542Q154 512 158 482T173 428T201 388T243 372H267V704ZM404 695H323V-49H404V695Z" />
<glyph unicode="&#xb7;" glyph-name="middot" horiz-adv-x="170" d="M32 372Q32 394 47 409T85 425Q108 425 122 410T137 372Q137 350 123 335T85 319Q62 319 47 334T32 372Z" />
<glyph unicode="&#xb8;" glyph-name="cedilla" horiz-adv-x="421" d="M229 0L201 -69Q209 -67 215 -66T230 -65Q275 -65 300 -84T326 -142Q326 -185 289 -210T185 -235Q159 -235 139 -232T94 -218L108 -183Q130 -190 146 -194T181 -198Q210 -198 225 -185T241
-150Q241 -127 229 -114T185 -101Q175 -101 168 -104T154 -111L144 -105L189 0H229Z" />
<glyph unicode="&#xb9;" glyph-name="onesuperior" horiz-adv-x="323" d="M207 364Q207 344 215 338T234 331H258V299H86V332H119Q128 332 136 338T145 364V644Q145 669 134 674T98 680H65V712Q99 713 124 725T176 760H207V364Z" />
<glyph unicode="&#xba;" glyph-name="ordmasculine" horiz-adv-x="348" d="M26 611Q26 643 37 671T69 721T116 755T174 768Q204 768 231 756T278 722T309 672T321 611Q321 578 310 550T278 500T231 466T174 453Q143 453 116 465T69 499T38 549T26 611ZM91 611Q91
586 97 564T115 525T141 499T174 489Q191 489 206 498T232 524T250 563T257 611Q257 636 251 658T233 696T206 722T174 732Q157 732 142 723T115 697T98 658T91 611ZM348 404V347H0V404H348Z" />
<glyph unicode="&#xbb;" glyph-name="guillemotright" horiz-adv-x="558" d="M287 193Q282 186 275 186Q265 186 265 196Q265 199 277 216T309 261T355 323T409 396Q381 434 355 469T309 531T277 575T265 596Q265 607 275 607Q280 607 282 606T287 600L509 396L287
193ZM69 193Q64 186 57 186Q47 186 47 196Q47 199 59 216T91 261T137 323T191 396Q163 434 137 469T91 531T59 575T47 596Q47 607 57 607Q62 607 64 606T69 600L291 396L69 193Z" />
<glyph unicode="&#xbc;" glyph-name="onequarter" horiz-adv-x="828" d="M728 157H797V113H728V63Q728 45 736 39T755 32H770V0H623V32H639Q649 32 657 38T666 63V113H495V154L700 460H728V157ZM666 162V343L544 162H666ZM207 364Q207 344 215 338T234 331H258V299H86V332H119Q128
332 136 338T145 364V644Q145 669 134 674T98 680H65V712Q99 713 124 725T176 760H207V364ZM190 -16H135L636 747H687L190 -16Z" />
<glyph unicode="&#xbd;" glyph-name="onehalf" horiz-adv-x="821" d="M510 32Q520 47 532 62T562 98T601 144T655 208Q716 281 716 344Q716 381 696 401T640 422Q625 422 611 418T586 406T569 387T562 362Q562 358 569 353Q587 344 597 333T607 305Q607 287 595
276T565 264Q543 264 529 287T515 339Q515 365 526 387T557 425T601 451T655 461Q682 461 706 452T749 425T779 384T790 334Q790 295 766 259T708 188T638 119T577 48H694Q715 48 729 59T753 87T766 127T772 170H801V0H509L510 32ZM207 364Q207 344 215 338T234
331H258V299H86V332H119Q128 332 136 338T145 364V644Q145 669 134 674T98 680H65V712Q99 713 124 725T176 760H207V364ZM190 -16H135L636 747H687L190 -16Z" />
<glyph unicode="&#xbe;" glyph-name="threequarters" horiz-adv-x="828" d="M705 460H677L472 154V113H643V63Q643 45 635 39T616 32H600V0H747V32H732Q721 32 713 38T705 63V113H774V157H705V460ZM521 162L643 343V162H521ZM170 299Q105 299 68 327T30 410Q30
430 43 447T77 464Q94 464 106 451T119 421Q119 410 114 404T102 392T90 383T84 372Q84 362 102 350T162 338Q203 338 226 362T249 431Q249 473 228 498T172 524H133Q112 524 112 543Q112 562 133 562H168Q237 562 237 647Q237 724 169 724Q158 724 146 722T125
716T109 706T103 691Q103 687 107 683T116 673T126 662T130 650Q130 631 120 619T92 606Q71 606 59 621T47 656Q47 679 57 698T86 731T127 752T177 760Q204 760 227 753T268 731T296 695T307 647Q307 612 286 585T228 544Q269 532 293 504T317 431Q317 401 306
377T274 335T228 308T170 299ZM687 747H636L135 -16H190L687 747Z" />
<glyph unicode="&#xbf;" glyph-name="questiondown" horiz-adv-x="437" d="M148 365Q185 399 199 427T214 493V542H255V493Q255 433 234 387T173 291Q160 276 150 259T133 225T121 194T117 170Q117 105 149 73T243 40Q257 40 272 44T299 56T320 73T328 92Q328
103 322 111T308 128T294 145T287 166Q287 189 302 203T340 218Q364 218 382 196T400 142Q400 113 388 86T353 38T295 5T214 -8Q175 -8 142 4T85 40T46 96T32 170Q32 195 37 216T55 260T90 308T148 365ZM291 695Q291 673 275 656T235 639Q212 639 195 656T178 695Q178
717 195 734T235 752Q258 752 274 735T291 695Z" />
<glyph unicode="&#xc0;" glyph-name="Agrave" horiz-adv-x="695" d="M325 752H357L607 90Q618 63 633 54T679 45V0H434V45Q439 45 451 45T476 48T499 57T509 74Q509 79 508 83T505 92L449 243H194Q188 224 181 203T168 163T158 128T154 104Q154 72 168 59T226
45V0H16V45Q50 45 68 62T102 125L325 752ZM321 594L211 291H433L321 594ZM412 800L274 890Q235 914 235 935Q235 939 237 945T246 956T261 966T283 970Q299 970 330 937L460 800H412Z" />
<glyph unicode="&#xc1;" glyph-name="Aacute" horiz-adv-x="695" d="M325 752H357L607 90Q618 63 633 54T679 45V0H434V45Q439 45 451 45T476 48T499 57T509 74Q509 79 508 83T505 92L449 243H194Q188 224 181 203T168 163T158 128T154 104Q154 72 168 59T226
45V0H16V45Q50 45 68 62T102 125L325 752ZM321 594L211 291H433L321 594ZM235 800L365 937Q396 970 412 970Q425 970 434 966T449 957T457 945T460 935Q460 914 421 890L283 800H235Z" />
<glyph unicode="&#xc2;" glyph-name="Acircumflex" horiz-adv-x="695" d="M325 752H357L607 90Q618 63 633 54T679 45V0H434V45Q439 45 451 45T476 48T499 57T509 74Q509 79 508 83T505 92L449 243H194Q188 224 181 203T168 163T158 128T154 104Q154 72 168 59T226
45V0H16V45Q50 45 68 62T102 125L325 752ZM321 594L211 291H433L321 594ZM376 970L493 808H460L347 909L234 808H202L318 970H376Z" />
<glyph unicode="&#xc3;" glyph-name="Atilde" horiz-adv-x="695" d="M325 752H357L607 90Q618 63 633 54T679 45V0H434V45Q439 45 451 45T476 48T499 57T509 74Q509 79 508 83T505 92L449 243H194Q188 224 181 203T168 163T158 128T154 104Q154 72 168 59T226
45V0H16V45Q50 45 68 62T102 125L325 752ZM321 594L211 291H433L321 594ZM192 820Q198 860 226 888T293 917Q307 917 324 911T362 894Q383 883 398 876T421 869Q454 869 473 913H502Q499 893 490 876T468 845T437 824T401 816Q387 816 370 822T332 840Q310 851
296 858T273 865Q239 865 221 820H192Z" />
<glyph unicode="&#xc4;" glyph-name="Adieresis" horiz-adv-x="695" d="M325 752H357L607 90Q618 63 633 54T679 45V0H434V45Q439 45 451 45T476 48T499 57T509 74Q509 79 508 83T505 92L449 243H194Q188 224 181 203T168 163T158 128T154 104Q154 72 168 59T226
45V0H16V45Q50 45 68 62T102 125L325 752ZM321 594L211 291H433L321 594ZM441 816Q424 816 409 831T394 866Q394 885 409 900T441 916Q459 916 473 901T488 866Q488 845 475 831T441 816ZM253 816Q233 816 220 831T206 866Q206 885 221 900T253 916Q271 916 285
901T300 866Q300 845 287 831T253 816Z" />
<glyph unicode="&#xc5;" glyph-name="Aring" horiz-adv-x="695" d="M325 752H357L607 90Q618 63 633 54T679 45V0H434V45Q439 45 451 45T476 48T499 57T509 74Q509 79 508 83T505 92L449 243H194Q188 224 181 203T168 163T158 128T154 104Q154 72 168 59T226 45V0H16V45Q50
45 68 62T102 125L325 752ZM321 594L211 291H433L321 594ZM250 897Q250 917 257 934T278 965T309 986T347 994Q367 994 384 987T415 966T436 935T444 897Q444 877 437 860T416 829T385 808T347 800Q327 800 310 807T279 828T258 859T250 897ZM287 897Q287 871 304
854T347 836Q373 836 390 853T408 897Q408 923 391 940T347 958Q322 958 305 941T287 897Z" />
<glyph unicode="&#xc6;" glyph-name="AE" horiz-adv-x="865" d="M829 744V485H788Q780 555 770 597T738 660T674 688T562 695Q537 695 522 692T497 681T485 665T481 644V404H505Q569 404 599 438T635 550H675V210H635Q635 285 607 320T524 356H481V101Q481 75
497 62T562 49Q632 49 673 55T737 83T770 146T788 259H829V0H315V44H336Q354 44 369 56T384 101V275H217L204 243Q197 224 188 203T172 163T159 128T154 104Q154 75 165 60T211 44H222V0H16V44H24Q39 44 49 48T69 62T86 87T102 125L352 744H829ZM384 693L237 323H384V693Z"
/>
<glyph unicode="&#xc7;" glyph-name="Ccedilla" horiz-adv-x="655" d="M598 449H561Q544 512 526 559T483 637T428 683T353 699Q290 699 250 667T187 587T155 481T146 372Q146 214 198 132T368 49Q414 49 449 60T508 94T549 155T573 245L615 237Q600 119 545 60T385
-7L360 -69Q368 -67 374 -66T389 -65Q434 -65 459 -84T485 -142Q485 -185 448 -210T344 -235Q318 -235 298 -232T253 -218L267 -183Q290 -190 306 -194T340 -198Q369 -198 384 -185T400 -150Q400 -127 388 -114T344 -101Q334 -101 327 -104T313 -111L303 -105L344
-7Q274 -5 217 25T118 107T55 227T32 372Q32 440 56 508T122 630T224 718T352 752Q376 752 400 746T448 729T493 702T530 669L563 744H598V449Z" />
<glyph unicode="&#xc8;" glyph-name="Egrave" horiz-adv-x="623" d="M582 744V485H542Q533 555 523 597T491 660T427 688T315 695H291Q266 695 251 692T226 681T214 665T210 644V404H259Q323 404 353 438T388 550H429V210H388Q388 356 277 356H210V101Q210 75
226 62T291 49H315Q362 49 395 51T452 61T490 83T514 121T530 178T542 259H582V0H40V44H65Q83 44 98 56T113 101V642Q113 676 98 687T65 699H40V744H582ZM376 800L238 890Q199 914 199 935Q199 939 201 945T210 956T225 966T247 970Q263 970 294 937L424 800H376Z"
/>
<glyph unicode="&#xc9;" glyph-name="Eacute" horiz-adv-x="623" d="M582 744V485H542Q533 555 523 597T491 660T427 688T315 695H291Q266 695 251 692T226 681T214 665T210 644V404H259Q323 404 353 438T388 550H429V210H388Q388 356 277 356H210V101Q210 75
226 62T291 49H315Q362 49 395 51T452 61T490 83T514 121T530 178T542 259H582V0H40V44H65Q83 44 98 56T113 101V642Q113 676 98 687T65 699H40V744H582ZM199 800L329 937Q360 970 376 970Q389 970 398 966T413 957T421 945T424 935Q424 914 385 890L247 800H199Z"
/>
<glyph unicode="&#xca;" glyph-name="Ecircumflex" horiz-adv-x="623" d="M582 744V485H542Q533 555 523 597T491 660T427 688T315 695H291Q266 695 251 692T226 681T214 665T210 644V404H259Q323 404 353 438T388 550H429V210H388Q388 356 277 356H210V101Q210
75 226 62T291 49H315Q362 49 395 51T452 61T490 83T514 121T530 178T542 259H582V0H40V44H65Q83 44 98 56T113 101V642Q113 676 98 687T65 699H40V744H582ZM340 970L457 808H424L311 909L198 808H166L282 970H340Z" />
<glyph unicode="&#xcb;" glyph-name="Edieresis" horiz-adv-x="623" d="M582 744V485H542Q533 555 523 597T491 660T427 688T315 695H291Q266 695 251 692T226 681T214 665T210 644V404H259Q323 404 353 438T388 550H429V210H388Q388 356 277 356H210V101Q210
75 226 62T291 49H315Q362 49 395 51T452 61T490 83T514 121T530 178T542 259H582V0H40V44H65Q83 44 98 56T113 101V642Q113 676 98 687T65 699H40V744H582ZM405 816Q388 816 373 831T358 866Q358 885 373 900T405 916Q423 916 437 901T452 866Q452 845 439 831T405
816ZM217 816Q197 816 184 831T170 866Q170 885 185 900T217 916Q235 916 249 901T264 866Q264 845 251 831T217 816Z" />
<glyph unicode="&#xcc;" glyph-name="Igrave" horiz-adv-x="363" d="M319 744V699H283Q265 699 250 688T235 642V101Q235 68 250 56T283 44H319V0H53V44H89Q107 44 122 56T137 101V642Q137 676 122 687T89 699H53V744H319ZM493 800L355 890Q316 914 316 935Q316
939 318 945T327 956T342 966T364 970Q380 970 411 937L541 800H493Z" />
<glyph unicode="&#xcd;" glyph-name="Iacute" horiz-adv-x="363" d="M319 744V699H283Q265 699 250 688T235 642V101Q235 68 250 56T283 44H319V0H53V44H89Q107 44 122 56T137 101V642Q137 676 122 687T89 699H53V744H319ZM70 800L200 937Q231 970 247 970Q260
970 269 966T284 957T292 945T295 935Q295 914 256 890L118 800H70Z" />
<glyph unicode="&#xce;" glyph-name="Icircumflex" horiz-adv-x="363" d="M319 744V699H283Q265 699 250 688T235 642V101Q235 68 250 56T283 44H319V0H53V44H89Q107 44 122 56T137 101V642Q137 676 122 687T89 699H53V744H319ZM467 970L584 808H551L438 909L325
808H293L409 970H467Z" />
<glyph unicode="&#xcf;" glyph-name="Idieresis" horiz-adv-x="363" d="M319 744V699H283Q265 699 250 688T235 642V101Q235 68 250 56T283 44H319V0H53V44H89Q107 44 122 56T137 101V642Q137 676 122 687T89 699H53V744H319ZM532 816Q515 816 500 831T485 866Q485
885 500 900T532 916Q550 916 564 901T579 866Q579 845 566 831T532 816ZM344 816Q324 816 311 831T297 866Q297 885 312 900T344 916Q362 916 376 901T391 866Q391 845 378 831T344 816Z" />
<glyph unicode="&#xd0;" glyph-name="Eth" horiz-adv-x="736" d="M336 744Q430 744 496 718T605 644T667 527T687 372Q687 286 668 217T606 100T498 26T338 0H36V44H73Q91 44 106 56T121 101V356H36V404H121V642Q121 676 106 687T73 699H36V744H336ZM220 404H404V356H220V94Q220
80 227 73T248 62T280 58T319 57H386Q441 57 476 87T533 163T562 265T570 372Q570 423 562 478T533 580T477 657T386 687H319Q298 687 280 687T249 683T228 672T220 650V404Z" />
<glyph unicode="&#xd1;" glyph-name="Ntilde" horiz-adv-x="768" d="M216 744L594 188H596V642Q596 676 581 687T547 699H511V744H740V699H700Q681 699 666 688T651 642V-8H607L173 620L170 617V101Q170 68 185 56T218 44H255V0H32V44H65Q83 44 98 56T113 101V667L90
699H40V744H216ZM229 820Q235 860 263 888T330 917Q344 917 361 911T399 894Q420 883 435 876T458 869Q491 869 510 913H539Q536 893 527 876T505 845T474 824T438 816Q424 816 407 822T369 840Q347 851 333 858T310 865Q276 865 258 820H229Z" />
<glyph unicode="&#xd2;" glyph-name="Ograve" horiz-adv-x="760" d="M380 760Q452 760 511 728T613 641T680 517T704 372Q704 297 680 227T614 103T512 17T380 -16Q308 -16 249 16T147 103T81 227T57 372Q57 447 80 517T147 641T249 727T380 760ZM380 40Q433 40
470 58T531 107T568 174T588 248T596 317T598 372Q598 393 597 426T589 496T569 570T531 637T470 685T380 704Q327 704 290 686T229 637T192 570T172 496T164 426T162 372Q162 351 163 318T171 248T191 174T229 107T290 59T380 40ZM445 800L307 890Q268 914 268
935Q268 939 270 945T279 956T294 966T316 970Q332 970 363 937L493 800H445Z" />
<glyph unicode="&#xd3;" glyph-name="Oacute" horiz-adv-x="760" d="M380 760Q452 760 511 728T613 641T680 517T704 372Q704 297 680 227T614 103T512 17T380 -16Q308 -16 249 16T147 103T81 227T57 372Q57 447 80 517T147 641T249 727T380 760ZM380 40Q433 40
470 58T531 107T568 174T588 248T596 317T598 372Q598 393 597 426T589 496T569 570T531 637T470 685T380 704Q327 704 290 686T229 637T192 570T172 496T164 426T162 372Q162 351 163 318T171 248T191 174T229 107T290 59T380 40ZM268 800L398 937Q429 970 445
970Q458 970 467 966T482 957T490 945T493 935Q493 914 454 890L316 800H268Z" />
<glyph unicode="&#xd4;" glyph-name="Ocircumflex" horiz-adv-x="760" d="M380 760Q452 760 511 728T613 641T680 517T704 372Q704 297 680 227T614 103T512 17T380 -16Q308 -16 249 16T147 103T81 227T57 372Q57 447 80 517T147 641T249 727T380 760ZM380 40Q433
40 470 58T531 107T568 174T588 248T596 317T598 372Q598 393 597 426T589 496T569 570T531 637T470 685T380 704Q327 704 290 686T229 637T192 570T172 496T164 426T162 372Q162 351 163 318T171 248T191 174T229 107T290 59T380 40ZM409 970L526 808H493L380
909L267 808H235L351 970H409Z" />
<glyph unicode="&#xd5;" glyph-name="Otilde" horiz-adv-x="760" d="M380 760Q452 760 511 728T613 641T680 517T704 372Q704 297 680 227T614 103T512 17T380 -16Q308 -16 249 16T147 103T81 227T57 372Q57 447 80 517T147 641T249 727T380 760ZM380 40Q433 40
470 58T531 107T568 174T588 248T596 317T598 372Q598 393 597 426T589 496T569 570T531 637T470 685T380 704Q327 704 290 686T229 637T192 570T172 496T164 426T162 372Q162 351 163 318T171 248T191 174T229 107T290 59T380 40ZM225 820Q231 860 259 888T326
917Q340 917 357 911T395 894Q416 883 431 876T454 869Q487 869 506 913H535Q532 893 523 876T501 845T470 824T434 816Q420 816 403 822T365 840Q343 851 329 858T306 865Q272 865 254 820H225Z" />
<glyph unicode="&#xd6;" glyph-name="Odieresis" horiz-adv-x="760" d="M380 760Q452 760 511 728T613 641T680 517T704 372Q704 297 680 227T614 103T512 17T380 -16Q308 -16 249 16T147 103T81 227T57 372Q57 447 80 517T147 641T249 727T380 760ZM380 40Q433
40 470 58T531 107T568 174T588 248T596 317T598 372Q598 393 597 426T589 496T569 570T531 637T470 685T380 704Q327 704 290 686T229 637T192 570T172 496T164 426T162 372Q162 351 163 318T171 248T191 174T229 107T290 59T380 40ZM474 816Q457 816 442 831T427
866Q427 885 442 900T474 916Q492 916 506 901T521 866Q521 845 508 831T474 816ZM286 816Q266 816 253 831T239 866Q239 885 254 900T286 916Q304 916 318 901T333 866Q333 845 320 831T286 816Z" />
<glyph unicode="&#xd7;" glyph-name="multiply" horiz-adv-x="590" d="M476 582L522 531L343 340L522 148L476 96L296 288L114 98L68 150L249 340L70 530L117 582L296 392L476 582Z" />
<glyph unicode="&#xd8;" glyph-name="Oslash" horiz-adv-x="760" d="M380 760Q424 760 463 748T536 712L596 825H645L571 685Q632 629 668 546T704 372Q704 297 680 227T614 103T512 17T380 -16Q337 -16 299 -4T226 30L164 -89H115L191 56Q128 111 93 195T57 372Q57
447 80 517T147 641T249 727T380 760ZM162 372Q162 351 163 320T170 253T188 181T222 115L509 659Q486 679 454 691T380 704Q327 704 290 686T229 637T192 570T172 496T164 426T162 372ZM380 40Q433 40 470 58T531 107T568 174T588 248T596 317T598 372Q598 393
597 424T590 489T573 559T540 625L253 82Q276 63 307 52T380 40Z" />
<glyph unicode="&#xd9;" glyph-name="Ugrave" horiz-adv-x="768" d="M303 744V699H267Q249 699 234 688T218 642V235Q218 183 228 148T262 90T322 59T412 49Q454 49 487 63T543 104T578 167T590 246V642Q590 676 575 687T542 699H501V744H736V699H695Q677 699
662 688T647 642V300Q647 222 634 163T591 65T511 5T388 -16Q257 -16 189 41T121 202V642Q121 676 106 687T73 699H36V744H303ZM449 800L311 890Q272 914 272 935Q272 939 274 945T283 956T298 966T320 970Q336 970 367 937L497 800H449Z" />
<glyph unicode="&#xda;" glyph-name="Uacute" horiz-adv-x="768" d="M303 744V699H267Q249 699 234 688T218 642V235Q218 183 228 148T262 90T322 59T412 49Q454 49 487 63T543 104T578 167T590 246V642Q590 676 575 687T542 699H501V744H736V699H695Q677 699
662 688T647 642V300Q647 222 634 163T591 65T511 5T388 -16Q257 -16 189 41T121 202V642Q121 676 106 687T73 699H36V744H303ZM305 800L435 937Q466 970 482 970Q495 970 504 966T519 957T527 945T530 935Q530 914 491 890L353 800H305Z" />
<glyph unicode="&#xdb;" glyph-name="Ucircumflex" horiz-adv-x="768" d="M303 744V699H267Q249 699 234 688T218 642V235Q218 183 228 148T262 90T322 59T412 49Q454 49 487 63T543 104T578 167T590 246V642Q590 676 575 687T542 699H501V744H736V699H695Q677
699 662 688T647 642V300Q647 222 634 163T591 65T511 5T388 -16Q257 -16 189 41T121 202V642Q121 676 106 687T73 699H36V744H303ZM433 970L550 808H517L404 909L291 808H259L375 970H433Z" />
<glyph unicode="&#xdc;" glyph-name="Udieresis" horiz-adv-x="768" d="M303 744V699H267Q249 699 234 688T218 642V235Q218 183 228 148T262 90T322 59T412 49Q454 49 487 63T543 104T578 167T590 246V642Q590 676 575 687T542 699H501V744H736V699H695Q677 699
662 688T647 642V300Q647 222 634 163T591 65T511 5T388 -16Q257 -16 189 41T121 202V642Q121 676 106 687T73 699H36V744H303ZM488 816Q471 816 456 831T441 866Q441 885 456 900T488 916Q506 916 520 901T535 866Q535 845 522 831T488 816ZM300 816Q280 816 267
831T253 866Q253 885 268 900T300 916Q318 916 332 901T347 866Q347 845 334 831T300 816Z" />
<glyph unicode="&#xdd;" glyph-name="Yacute" horiz-adv-x="687" d="M283 744V699H244Q223 699 215 695T206 679Q206 672 210 662T220 641L380 364L492 580Q502 600 508 618T515 652Q515 673 501 686T448 699H429V744H675V699H660Q640 699 625 692T599 671T578
642T561 609L404 300V101Q404 68 419 56T453 44H489V0H222V44H259Q277 44 292 56T307 101V299L115 626Q103 646 95 660T79 682T58 695T24 699H13V744H283ZM251 800L381 937Q412 970 428 970Q441 970 450 966T465 957T473 945T476 935Q476 914 437 890L299 800H251Z"
/>
<glyph unicode="&#xde;" glyph-name="Thorn" horiz-adv-x="623" d="M303 744V699H267Q249 699 234 688T218 642V578H340Q458 578 520 531T582 372Q582 303 560 263T500 201T413 173T308 166H218V101Q218 68 233 56T267 44H303V0H36V44H73Q91 44 106 56T121 101V642Q121
676 106 687T73 699H36V744H303ZM218 214H299Q399 214 442 251T485 373Q485 451 443 492T336 534H267Q249 534 234 523T218 477V214Z" />
<glyph unicode="&#xdf;" glyph-name="germandbls" horiz-adv-x="566" d="M24 44Q43 44 58 56T73 101V505Q73 636 122 698T275 760Q318 760 354 748T415 714T455 661T469 590Q469 560 462 536T436 490T389 451T315 416Q366 416 404 398T468 349T505 281T518 202Q518
161 505 122T468 52T406 3T321 -16Q273 -16 244 8T214 69Q214 91 227 106T263 121Q279 121 297 110T315 73Q315 62 311 51T307 32Q307 26 316 23T338 20Q360 20 375 30T401 57T416 98T421 149Q421 189 411 232T381 310T333 369T270 392H247L226 437H263Q283 437
302 446T337 472T362 515T372 574Q372 648 344 688T267 728Q222 728 196 698T170 611V0H7V44H24Z" />
<glyph unicode="&#xe0;" glyph-name="agrave" horiz-adv-x="509" d="M340 37Q311 0 261 -10Q234 -16 164 -16Q104 -16 70 15T35 106Q35 207 149 253Q173 263 219 273T336 294V308Q336 318 336 332T334 366Q331 445 230 445Q192 445 165 437T138 411Q138 401 143
394Q156 372 156 351Q156 302 101 302Q54 302 54 365Q54 430 124 464Q191 496 244 496Q263 496 288 491T337 476T380 450T408 416Q416 398 418 368T420 303Q420 234 418 181T416 110Q416 79 424 63T459 47Q492 47 499 44T506 35Q506 26 500 18T483 4T461 -7T437
-11Q392 -11 372 1T340 37ZM336 247Q230 233 177 204T123 115Q123 80 147 57T204 34Q286 34 313 72Q336 104 336 208V247ZM319 550L181 640Q142 664 142 685Q142 689 144 695T153 706T168 716T190 720Q206 720 237 687L367 550H319Z" />
<glyph unicode="&#xe1;" glyph-name="aacute" horiz-adv-x="509" d="M340 37Q311 0 261 -10Q234 -16 164 -16Q104 -16 70 15T35 106Q35 207 149 253Q173 263 219 273T336 294V308Q336 318 336 332T334 366Q331 445 230 445Q192 445 165 437T138 411Q138 401 143
394Q156 372 156 351Q156 302 101 302Q54 302 54 365Q54 430 124 464Q191 496 244 496Q263 496 288 491T337 476T380 450T408 416Q416 398 418 368T420 303Q420 234 418 181T416 110Q416 79 424 63T459 47Q492 47 499 44T506 35Q506 26 500 18T483 4T461 -7T437
-11Q392 -11 372 1T340 37ZM336 247Q230 233 177 204T123 115Q123 80 147 57T204 34Q286 34 313 72Q336 104 336 208V247ZM142 550L272 687Q303 720 319 720Q332 720 341 716T356 707T364 695T367 685Q367 664 328 640L190 550H142Z" />
<glyph unicode="&#xe2;" glyph-name="acircumflex" horiz-adv-x="509" d="M340 37Q311 0 261 -10Q234 -16 164 -16Q104 -16 70 15T35 106Q35 207 149 253Q173 263 219 273T336 294V308Q336 318 336 332T334 366Q331 445 230 445Q192 445 165 437T138 411Q138 401
143 394Q156 372 156 351Q156 302 101 302Q54 302 54 365Q54 430 124 464Q191 496 244 496Q263 496 288 491T337 476T380 450T408 416Q416 398 418 368T420 303Q420 234 418 181T416 110Q416 79 424 63T459 47Q492 47 499 44T506 35Q506 26 500 18T483 4T461 -7T437
-11Q392 -11 372 1T340 37ZM336 247Q230 233 177 204T123 115Q123 80 147 57T204 34Q286 34 313 72Q336 104 336 208V247ZM264 720L381 558H348L235 659L122 558H90L206 720H264ZM283 720L400 558H367L254 659L141 558H109L225 720H283Z" />
<glyph unicode="&#xe3;" glyph-name="atilde" horiz-adv-x="509" d="M340 37Q311 0 261 -10Q234 -16 164 -16Q104 -16 70 15T35 106Q35 207 149 253Q173 263 219 273T336 294V308Q336 318 336 332T334 366Q331 445 230 445Q192 445 165 437T138 411Q138 401 143
394Q156 372 156 351Q156 302 101 302Q54 302 54 365Q54 430 124 464Q191 496 244 496Q263 496 288 491T337 476T380 450T408 416Q416 398 418 368T420 303Q420 234 418 181T416 110Q416 79 424 63T459 47Q492 47 499 44T506 35Q506 26 500 18T483 4T461 -7T437
-11Q392 -11 372 1T340 37ZM336 247Q230 233 177 204T123 115Q123 80 147 57T204 34Q286 34 313 72Q336 104 336 208V247ZM99 570Q105 610 133 638T200 667Q214 667 231 661T269 644Q290 633 305 626T328 619Q361 619 380 663H409Q406 643 397 626T375 595T344
574T308 566Q294 566 277 572T239 590Q217 601 203 608T180 615Q146 615 128 570H99Z" />
<glyph unicode="&#xe4;" glyph-name="adieresis" horiz-adv-x="509" d="M340 37Q311 0 261 -10Q234 -16 164 -16Q104 -16 70 15T35 106Q35 207 149 253Q173 263 219 273T336 294V308Q336 318 336 332T334 366Q331 445 230 445Q192 445 165 437T138 411Q138 401
143 394Q156 372 156 351Q156 302 101 302Q54 302 54 365Q54 430 124 464Q191 496 244 496Q263 496 288 491T337 476T380 450T408 416Q416 398 418 368T420 303Q420 234 418 181T416 110Q416 79 424 63T459 47Q492 47 499 44T506 35Q506 26 500 18T483 4T461 -7T437
-11Q392 -11 372 1T340 37ZM336 247Q230 233 177 204T123 115Q123 80 147 57T204 34Q286 34 313 72Q336 104 336 208V247ZM348 566Q331 566 316 581T301 616Q301 635 316 650T348 666Q366 666 380 651T395 616Q395 595 382 581T348 566ZM160 566Q140 566 127 581T113
616Q113 635 128 650T160 666Q178 666 192 651T207 616Q207 595 194 581T160 566Z" />
<glyph unicode="&#xe5;" glyph-name="aring" horiz-adv-x="509" d="M340 37Q311 0 261 -10Q234 -16 164 -16Q104 -16 70 15T35 106Q35 207 149 253Q173 263 219 273T336 294V308Q336 318 336 332T334 366Q331 445 230 445Q192 445 165 437T138 411Q138 401 143
394Q156 372 156 351Q156 302 101 302Q54 302 54 365Q54 430 124 464Q191 496 244 496Q263 496 288 491T337 476T380 450T408 416Q416 398 418 368T420 303Q420 234 418 181T416 110Q416 79 424 63T459 47Q492 47 499 44T506 35Q506 26 500 18T483 4T461 -7T437
-11Q392 -11 372 1T340 37ZM336 247Q230 233 177 204T123 115Q123 80 147 57T204 34Q286 34 313 72Q336 104 336 208V247ZM157 647Q157 667 164 684T185 715T216 736T254 744Q274 744 291 737T322 716T343 685T351 647Q351 627 344 610T323 579T292 558T254 550Q234
550 217 557T186 578T165 609T157 647ZM194 647Q194 621 211 604T254 586Q280 586 297 603T315 647Q315 673 298 690T254 708Q229 708 212 691T194 647Z" />
<glyph unicode="&#xe6;" glyph-name="ae" horiz-adv-x="751" d="M704 122Q695 87 677 61T634 18T582 -7T524 -16Q477 -16 429 4T350 64Q345 58 341 53T332 41Q303 11 258 -2T152 -16Q103 -16 72 17T40 105Q40 154 68 186T140 239T232 272T323 292V339Q323 373
317 395T299 430T271 448T235 453Q220 453 204 450T175 441T154 429T146 416Q146 408 148 402T154 390T159 378T162 364Q162 341 146 324T105 307Q75 307 66 323T57 364Q57 389 73 413T116 457T178 489T251 501Q304 501 337 485T388 441Q443 501 534 501Q577 501
613 477T674 416T714 332T728 243V230H408Q412 140 448 90T548 40Q566 40 584 46T618 65T648 96T670 137L704 122ZM639 321Q639 379 611 416T534 453Q482 453 449 407T408 283H590Q608 283 618 284T632 290T638 301T639 321ZM323 250Q293 242 259 231T196 205T148
172T129 131Q129 112 135 96T153 67T178 47T206 40Q236 40 258 52T294 83T316 129T323 183V250Z" />
<glyph unicode="&#xe7;" glyph-name="ccedilla" horiz-adv-x="453" d="M407 122Q383 51 349 21T260 -15L239 -69Q247 -67 253 -66T268 -65Q313 -65 338 -84T364 -142Q364 -185 327 -210T222 -235Q196 -235 176 -232T131 -218L146 -183Q168 -190 184 -194T218 -198Q247
-198 263 -185T279 -150Q279 -127 267 -114T222 -101Q213 -101 206 -104T192 -111L182 -105L220 -15Q180 -12 147 8T90 59T53 132T40 222Q40 286 54 337T96 425T164 481T255 501Q289 501 318 489T368 457T400 413T412 364Q412 335 399 321T364 307Q340 307 322
322T303 364Q303 386 312 399T321 416Q321 419 316 425T301 438T280 448T253 453Q224 453 202 438T163 396T138 331T129 247Q129 150 166 95T269 40Q304 40 330 65T373 137L407 122Z" />
<glyph unicode="&#xe8;" glyph-name="egrave" horiz-adv-x="485" d="M421 122Q395 44 347 14T232 -16Q189 -16 153 2T91 53T51 128T36 222Q36 286 50 337T92 425T160 481T251 501Q294 501 330 477T391 416T431 332T445 243V230H125Q129 140 165 90T265 40Q283
40 301 46T335 65T365 96T387 137L421 122ZM356 321Q356 379 328 416T251 453Q199 453 166 407T127 283H307Q325 283 335 284T349 290T355 301T356 321ZM307 550L169 640Q130 664 130 685Q130 689 132 695T141 706T156 716T178 720Q194 720 225 687L355 550H307Z"
/>
<glyph unicode="&#xe9;" glyph-name="eacute" horiz-adv-x="485" d="M421 122Q395 44 347 14T232 -16Q189 -16 153 2T91 53T51 128T36 222Q36 286 50 337T92 425T160 481T251 501Q294 501 330 477T391 416T431 332T445 243V230H125Q129 140 165 90T265 40Q283
40 301 46T335 65T365 96T387 137L421 122ZM356 321Q356 379 328 416T251 453Q199 453 166 407T127 283H307Q325 283 335 284T349 290T355 301T356 321ZM130 550L260 687Q291 720 307 720Q320 720 329 716T344 707T352 695T355 685Q355 664 316 640L178 550H130Z"
/>
<glyph unicode="&#xea;" glyph-name="ecircumflex" horiz-adv-x="485" d="M421 122Q395 44 347 14T232 -16Q189 -16 153 2T91 53T51 128T36 222Q36 286 50 337T92 425T160 481T251 501Q294 501 330 477T391 416T431 332T445 243V230H125Q129 140 165 90T265 40Q283
40 301 46T335 65T365 96T387 137L421 122ZM356 321Q356 379 328 416T251 453Q199 453 166 407T127 283H307Q325 283 335 284T349 290T355 301T356 321ZM56 720L173 558H140L27 659L-86 558H-118L-2 720H56ZM271 720L388 558H355L242 659L129 558H97L213 720H271Z"
/>
<glyph unicode="&#xeb;" glyph-name="edieresis" horiz-adv-x="485" d="M421 122Q395 44 347 14T232 -16Q189 -16 153 2T91 53T51 128T36 222Q36 286 50 337T92 425T160 481T251 501Q294 501 330 477T391 416T431 332T445 243V230H125Q129 140 165 90T265 40Q283
40 301 46T335 65T365 96T387 137L421 122ZM356 321Q356 379 328 416T251 453Q199 453 166 407T127 283H307Q325 283 335 284T349 290T355 301T356 321ZM336 566Q319 566 304 581T289 616Q289 635 304 650T336 666Q354 666 368 651T383 616Q383 595 370 581T336
566ZM148 566Q128 566 115 581T101 616Q101 635 116 650T148 666Q166 666 180 651T195 616Q195 595 182 581T148 566Z" />
<glyph unicode="&#xec;" glyph-name="igrave" horiz-adv-x="315" d="M210 94Q210 61 225 49T259 37H277V0H58V38H77Q95 38 110 49T125 94V382Q125 411 121 426T91 443L44 447V485L210 501V94ZM469 550L331 640Q292 664 292 685Q292 689 294 695T303 706T318 716T340
720Q356 720 387 687L517 550H469Z" />
<glyph unicode="&#xed;" glyph-name="iacute" horiz-adv-x="315" d="M210 94Q210 61 225 49T259 37H277V0H58V38H77Q95 38 110 49T125 94V382Q125 411 121 426T91 443L44 447V485L210 501V94ZM302 550L432 687Q463 720 479 720Q492 720 501 716T516 707T524 695T527
685Q527 664 488 640L350 550H302Z" />
<glyph unicode="&#xee;" glyph-name="icircumflex" horiz-adv-x="315" d="M210 94Q210 61 225 49T259 37H277V0H58V38H77Q95 38 110 49T125 94V382Q125 411 121 426T91 443L44 447V485L210 501V94ZM443 720L560 558H527L414 659L301 558H269L385 720H443Z" />
<glyph unicode="&#xef;" glyph-name="idieresis" horiz-adv-x="315" d="M210 94Q210 61 225 49T259 37H277V0H58V38H77Q95 38 110 49T125 94V382Q125 411 121 426T91 443L44 447V485L210 501V94ZM508 566Q491 566 476 581T461 616Q461 635 476 650T508 666Q526
666 540 651T555 616Q555 595 542 581T508 566ZM320 566Q300 566 287 581T273 616Q273 635 288 650T320 666Q338 666 352 651T367 616Q367 595 354 581T320 566Z" />
<glyph unicode="&#xf0;" glyph-name="eth" horiz-adv-x="509" d="M337 668Q368 635 393 593T436 501T463 400T473 297Q473 239 460 186T419 90T348 19T243 -16Q200 -16 163 4T97 60T53 142T36 243Q36 296 52 343T97 425T162 480T243 501Q282 501 315 484T368 447Q362
477 355 500T337 544T310 585T267 629L135 561L91 602L212 666Q193 679 177 687T144 701T111 709T73 717L132 760Q157 760 177 756T215 746T250 729T289 707L392 761L433 720L337 668ZM125 243Q125 199 134 161T160 94T198 49T245 32Q270 32 293 48T334 94T362
161T373 243Q373 354 344 403T243 453Q219 453 198 437T160 392T135 325T125 243Z" />
<glyph unicode="&#xf1;" glyph-name="ntilde" horiz-adv-x="566" d="M170 398H173Q192 441 235 467T327 493Q394 493 435 447T477 299V94Q477 61 492 49T526 37H538V0H325V38H344Q361 38 376 48T392 91V300Q392 370 366 399T303 429Q276 429 252 414T209 374T181
316T170 248V94Q170 61 185 49T218 37H237V0H18V38H36Q55 38 70 49T85 94V383Q85 412 81 427T51 444L16 447V485L170 502V398ZM128 570Q134 610 162 638T229 667Q243 667 260 661T298 644Q319 633 334 626T357 619Q390 619 409 663H438Q435 643 426 626T404 595T373
574T337 566Q323 566 306 572T268 590Q246 601 232 608T209 615Q175 615 157 570H128Z" />
<glyph unicode="&#xf2;" glyph-name="ograve" horiz-adv-x="485" d="M36 243Q36 296 52 343T97 425T162 480T243 501Q285 501 322 481T388 425T432 343T449 243Q449 189 433 142T388 60T323 5T243 -16Q200 -16 163 4T97 60T53 142T36 243ZM125 243Q125 199 134
161T160 94T198 49T245 32Q270 32 291 48T329 94T354 161T364 243Q364 286 355 324T329 391T292 436T245 453Q220 453 199 437T161 392T135 325T125 243ZM307 550L169 640Q130 664 130 685Q130 689 132 695T141 706T156 716T178 720Q194 720 225 687L355 550H307Z"
/>
<glyph unicode="&#xf3;" glyph-name="oacute" horiz-adv-x="485" d="M36 243Q36 296 52 343T97 425T162 480T243 501Q285 501 322 481T388 425T432 343T449 243Q449 189 433 142T388 60T323 5T243 -16Q200 -16 163 4T97 60T53 142T36 243ZM125 243Q125 199 134
161T160 94T198 49T245 32Q270 32 291 48T329 94T354 161T364 243Q364 286 355 324T329 391T292 436T245 453Q220 453 199 437T161 392T135 325T125 243ZM130 550L260 687Q291 720 307 720Q320 720 329 716T344 707T352 695T355 685Q355 664 316 640L178 550H130Z"
/>
<glyph unicode="&#xf4;" glyph-name="ocircumflex" horiz-adv-x="485" d="M36 243Q36 296 52 343T97 425T162 480T243 501Q285 501 322 481T388 425T432 343T449 243Q449 189 433 142T388 60T323 5T243 -16Q200 -16 163 4T97 60T53 142T36 243ZM125 243Q125 199
134 161T160 94T198 49T245 32Q270 32 291 48T329 94T354 161T364 243Q364 286 355 324T329 391T292 436T245 453Q220 453 199 437T161 392T135 325T125 243ZM56 720L173 558H140L27 659L-86 558H-118L-2 720H56ZM271 720L388 558H355L242 659L129 558H97L213 720H271Z"
/>
<glyph unicode="&#xf5;" glyph-name="otilde" horiz-adv-x="485" d="M36 243Q36 296 52 343T97 425T162 480T243 501Q285 501 322 481T388 425T432 343T449 243Q449 189 433 142T388 60T323 5T243 -16Q200 -16 163 4T97 60T53 142T36 243ZM125 243Q125 199 134
161T160 94T198 49T245 32Q270 32 291 48T329 94T354 161T364 243Q364 286 355 324T329 391T292 436T245 453Q220 453 199 437T161 392T135 325T125 243ZM87 570Q93 610 121 638T188 667Q202 667 219 661T257 644Q278 633 293 626T316 619Q349 619 368 663H397Q394
643 385 626T363 595T332 574T296 566Q282 566 265 572T227 590Q205 601 191 608T168 615Q134 615 116 570H87Z" />
<glyph unicode="&#xf6;" glyph-name="odieresis" horiz-adv-x="485" d="M36 243Q36 296 52 343T97 425T162 480T243 501Q285 501 322 481T388 425T432 343T449 243Q449 189 433 142T388 60T323 5T243 -16Q200 -16 163 4T97 60T53 142T36 243ZM125 243Q125 199
134 161T160 94T198 49T245 32Q270 32 291 48T329 94T354 161T364 243Q364 286 355 324T329 391T292 436T245 453Q220 453 199 437T161 392T135 325T125 243ZM336 566Q319 566 304 581T289 616Q289 635 304 650T336 666Q354 666 368 651T383 616Q383 595 370 581T336
566ZM148 566Q128 566 115 581T101 616Q101 635 116 650T148 666Q166 666 180 651T195 616Q195 595 182 581T148 566Z" />
<glyph unicode="&#xf7;" glyph-name="divide" horiz-adv-x="631" d="M582 376V303H49V376H582ZM263 150Q263 172 277 187T315 202Q338 202 353 187T368 150Q368 128 353 113T315 97Q292 97 278 112T263 150ZM263 538Q263 560 277 575T315 590Q338 590 353 575T368
538Q368 516 353 501T315 485Q292 485 278 500T263 538Z" />
<glyph unicode="&#xf8;" glyph-name="oslash" horiz-adv-x="485" d="M416 615L352 461Q396 426 422 369T449 243Q449 189 433 142T388 60T323 5T243 -16Q200 -16 162 4L109 -121H69L130 26Q87 60 62 117T36 243Q36 296 52 343T97 425T162 480T243 501Q283 501
321 482L377 615H416ZM364 243Q364 288 354 328T325 397L185 60Q211 32 245 32Q270 32 291 48T329 94T354 161T364 243ZM125 243Q125 199 134 162T159 95L299 429Q273 453 245 453Q220 453 199 437T161 392T135 325T125 243Z" />
<glyph unicode="&#xf9;" glyph-name="ugrave" horiz-adv-x="540" d="M453 109Q453 94 453 83T457 65T467 53T487 48L509 46V7L368 -8V81H366Q314 -16 228 -16Q182 -16 152 -2T103 37T77 95T69 167V384Q69 413 65 428T34 445L12 447V486L154 501V155Q154 105 176
73T249 40Q271 40 292 55T330 98T357 161T368 237V384Q368 413 364 428T334 445L311 447V486L453 501V109ZM334 550L196 640Q157 664 157 685Q157 689 159 695T168 706T183 716T205 720Q221 720 252 687L382 550H334Z" />
<glyph unicode="&#xfa;" glyph-name="uacute" horiz-adv-x="540" d="M453 109Q453 94 453 83T457 65T467 53T487 48L509 46V7L368 -8V81H366Q314 -16 228 -16Q182 -16 152 -2T103 37T77 95T69 167V384Q69 413 65 428T34 445L12 447V486L154 501V155Q154 105 176
73T249 40Q271 40 292 55T330 98T357 161T368 237V384Q368 413 364 428T334 445L311 447V486L453 501V109ZM157 550L287 687Q318 720 334 720Q347 720 356 716T371 707T379 695T382 685Q382 664 343 640L205 550H157Z" />
<glyph unicode="&#xfb;" glyph-name="ucircumflex" horiz-adv-x="540" d="M453 109Q453 94 453 83T457 65T467 53T487 48L509 46V7L368 -8V81H366Q314 -16 228 -16Q182 -16 152 -2T103 37T77 95T69 167V384Q69 413 65 428T34 445L12 447V486L154 501V155Q154 105
176 73T249 40Q271 40 292 55T330 98T357 161T368 237V384Q368 413 364 428T334 445L311 447V486L453 501V109ZM56 720L173 558H140L27 659L-86 558H-118L-2 720H56ZM299 720L416 558H383L270 659L157 558H125L241 720H299Z" />
<glyph unicode="&#xfc;" glyph-name="udieresis" horiz-adv-x="540" d="M453 109Q453 94 453 83T457 65T467 53T487 48L509 46V7L368 -8V81H366Q314 -16 228 -16Q182 -16 152 -2T103 37T77 95T69 167V384Q69 413 65 428T34 445L12 447V486L154 501V155Q154 105
176 73T249 40Q271 40 292 55T330 98T357 161T368 237V384Q368 413 364 428T334 445L311 447V486L453 501V109ZM363 825Q346 825 332 840T317 875Q317 894 331 909T363 925Q382 925 396 910T411 875Q411 854 397 840T363 825ZM175 825Q156 825 142 840T128 875Q128
894 143 909T175 925Q194 925 208 910T223 875Q223 854 209 840T175 825Z" />
<glyph unicode="&#xfd;" glyph-name="yacute" horiz-adv-x="534" d="M218 485V447H206Q193 447 182 440T170 416Q170 407 175 398T183 380L290 111L373 340Q388 383 388 404Q388 447 352 447H332V485H518V447H509Q493 447 480 437T455 411T435 376T420 340L282
-33Q248 -125 198 -167T94 -210Q56 -210 30 -189T4 -129Q4 -105 21 -89T65 -73Q82 -73 95 -82T109 -109Q109 -130 103 -138T97 -149Q97 -155 101 -158T111 -162Q143 -162 178 -123T245 4L93 380Q81 409 73 428T44 447H24V485H218ZM154 550L284 687Q315 720 331
720Q344 720 353 716T368 707T376 695T379 685Q379 664 340 640L202 550H154Z" />
<glyph unicode="&#xfe;" glyph-name="thorn" horiz-adv-x="530" d="M178 404H180Q201 443 237 468T315 493Q363 493 398 470T456 410T490 329T501 243Q501 190 487 143T448 61T387 5T311 -16Q223 -16 180 61H178V-100Q178 -133 193 -145T226 -157H245V-194H26V-156H44Q63
-156 78 -145T93 -100V567Q93 596 89 611T59 628L24 631V667L178 683V404ZM176 226Q176 189 185 155T210 96T247 55T295 40Q351 40 381 92T412 243Q412 277 407 311T388 374T352 419T294 437Q268 437 246 421T209 377T185 310T176 226Z" />
<glyph unicode="&#xff;" glyph-name="ydieresis" horiz-adv-x="534" d="M218 485V447H206Q193 447 182 440T170 416Q170 407 175 398T183 380L290 111L373 340Q388 383 388 404Q388 447 352 447H332V485H518V447H509Q493 447 480 437T455 411T435 376T420 340L282
-33Q248 -125 198 -167T94 -210Q56 -210 30 -189T4 -129Q4 -105 21 -89T65 -73Q82 -73 95 -82T109 -109Q109 -130 103 -138T97 -149Q97 -155 101 -158T111 -162Q143 -162 178 -123T245 4L93 380Q81 409 73 428T44 447H24V485H218ZM361 566Q344 566 329 581T314
616Q314 635 329 650T361 666Q379 666 393 651T408 616Q408 595 395 581T361 566ZM173 566Q153 566 140 581T126 616Q126 635 141 650T173 666Q191 666 205 651T220 616Q220 595 207 581T173 566Z" />
<glyph unicode="&#x2013;" glyph-name="endash" horiz-adv-x="345" d="M0 267H345V202H0V267Z" />
<glyph unicode="&#x2014;" glyph-name="emdash" horiz-adv-x="690" d="M0 267H690V202H0V267Z" />
<glyph unicode="&#x2018;" glyph-name="quoteleft" horiz-adv-x="178" d="M162 849Q140 828 124 813T96 784T79 760T73 736Q73 730 73 726T75 716Q83 719 92 719T104 720Q126 720 140 704T154 667Q154 645 137 630T99 615Q70 615 51 639T32 700Q32 725 38 746T57
788T91 829T142 875L162 849Z" />
<glyph unicode="&#x2019;" glyph-name="quoteright" horiz-adv-x="178" d="M16 647Q37 668 54 683T82 712T99 736T105 760Q105 766 105 770T103 780Q95 777 86 777T73 776Q52 776 38 792T24 829Q24 852 41 866T79 881Q108 881 127 857T146 797Q146 771 140 750T121
708T87 667T36 621L16 647Z" />
<glyph unicode="&#x201a;" glyph-name="quotesinglbase" horiz-adv-x="178" d="M16 -16Q37 5 54 20T82 48T99 72T105 97Q105 102 105 107T103 117Q95 115 86 114T73 113Q52 113 38 129T24 166Q24 188 41 203T79 218Q108 218 127 194T146 133Q146 107 140 86T121
45T87 4T36 -42L16 -16Z" />
<glyph unicode="&#x201c;" glyph-name="quotedblleft" horiz-adv-x="340" d="M324 849Q302 828 286 813T258 784T241 760T235 736Q235 730 235 726T237 716Q245 719 254 719T266 720Q288 720 302 704T316 667Q316 645 299 630T261 615Q232 615 213 639T194 700Q194
725 200 746T219 788T253 829T304 875L324 849ZM162 849Q140 828 124 813T96 784T79 760T73 736Q73 730 73 726T75 716Q83 719 92 719T104 720Q126 720 140 704T154 667Q154 645 137 630T99 615Q70 615 51 639T32 700Q32 725 38 746T57 788T91 829T142 875L162
849Z" />
<glyph unicode="&#x201d;" glyph-name="quotedblright" horiz-adv-x="340" d="M178 647Q199 668 216 683T244 712T261 736T267 760Q267 766 267 770T265 780Q257 777 248 777T235 776Q214 776 200 792T186 829Q186 852 203 866T241 881Q270 881 289 857T308 797Q308
771 302 750T283 708T249 667T198 621L178 647ZM16 647Q37 668 54 683T82 712T99 736T105 760Q105 766 105 770T103 780Q95 777 86 777T73 776Q52 776 38 792T24 829Q24 852 41 866T79 881Q108 881 127 857T146 797Q146 771 140 750T121 708T87 667T36 621L16 647Z"
/>
<glyph unicode="&#x201e;" glyph-name="quotedblbase" horiz-adv-x="340" d="M178 -16Q199 5 216 20T244 48T261 72T267 97Q267 102 267 107T265 117Q257 115 248 114T235 113Q214 113 200 129T186 166Q186 188 203 203T241 218Q270 218 289 194T308 133Q308 107
302 86T283 45T249 4T198 -42L178 -16ZM16 -16Q37 5 54 20T82 48T99 72T105 97Q105 102 105 107T103 117Q95 115 86 114T73 113Q52 113 38 129T24 166Q24 188 41 203T79 218Q108 218 127 194T146 133Q146 107 140 86T121 45T87 4T36 -42L16 -16Z" />
<glyph unicode="&#x2022;" glyph-name="bullet" horiz-adv-x="372" d="M65 372Q65 397 74 419T100 457T139 483T186 493Q211 493 233 484T271 458T297 419T307 372Q307 346 298 324T272 286T233 261T185 251Q160 251 139 260T101 286T75 324T65 372Z" />
<glyph unicode="&#x2039;" glyph-name="guilsinglleft" horiz-adv-x="340" d="M270 600Q277 607 282 607Q292 607 292 596Q292 593 280 576T248 531T202 469T149 396Q176 358 202 323T248 261T280 217T292 196Q292 186 282 186Q276 186 270 193L49 396L270 600Z" />
<glyph unicode="&#x203a;" glyph-name="guilsinglright" horiz-adv-x="340" d="M69 193Q64 186 57 186Q47 186 47 196Q47 199 59 216T91 261T137 323T191 396Q163 434 137 469T91 531T59 575T47 596Q47 607 57 607Q62 607 64 606T69 600L291 396L69 193Z" />
</font>
</defs>
</svg>
