<?xml version="1.0" standalone="no"?>
<!DOCTYPE svg PUBLIC "-//W3C//DTD SVG 1.1//EN" "http://www.w3.org/Graphics/SVG/1.1/DTD/svg11.dtd">
<svg xmlns="http://www.w3.org/2000/svg">
<defs >
<font id="Karantina" horiz-adv-x="293" ><font-face
    font-family="Karantina"
    units-per-em="1000"
    panose-1="0 0 0 0 0 0 0 0 0 0"
    ascent="859"
    descent="-153"
    alphabetic="0" />
<glyph unicode=" " glyph-name="space" horiz-adv-x="180" />
<glyph unicode="!" glyph-name="exclam" horiz-adv-x="133" d="M20 600H113V128H20V600ZM20 93H113V0H20V93Z" />
<glyph unicode="&quot;" glyph-name="quotedbl" horiz-adv-x="248" d="M38 657H128L90 474H0L38 657ZM158 657H248L210 474H120L158 657Z" />
<glyph unicode="#" glyph-name="numbersign" horiz-adv-x="450" d="M84 0L94 153H20V246H100L106 341H40V434H112L123 600H216L205 434H271L282 600H375L364 434H430V341H358L351 246H410V153H345L335 0H243L253 153H186L176 0H84ZM192 246H259L265 341H199L192 246Z" />
<glyph unicode="$" glyph-name="dollar" horiz-adv-x="322" d="M112 -40V0H25V211H109V98Q109 93 114 93H203Q208 93 208 98L209 268Q209 273 204 273H103Q63 273 42 298T20 366V507Q20 548 46 574T114 600H117V640H210V600H297V420H213V502Q213 507 208 507H119Q114
507 114 502V371Q114 366 119 366H208Q252 366 277 341T302 273V93Q302 53 276 27T208 0H205V-40H112Z" />
<glyph unicode="%" glyph-name="percent" horiz-adv-x="520" d="M257 549V434Q257 409 231 394T163 378H114Q73 378 47 393T20 434V549Q20 573 46 589T114 605H163Q204 605 230 590T257 549ZM20 0L396 600H500L123 0H20ZM118 434H159Q164 434 164 439V544Q164
549 159 549H117Q113 549 113 544V439Q113 434 118 434ZM500 171V56Q500 31 474 16T406 0H357Q316 0 290 15T263 56V171Q263 195 289 211T357 227H406Q447 227 473 212T500 171ZM361 56H402Q407 56 407 61V166Q407 171 402 171H360Q356 171 356 166V61Q356 56 361
56Z" />
<glyph unicode="&amp;" glyph-name="ampersand" horiz-adv-x="328" d="M281 319L248 144L318 0H225Q218 13 211 28Q184 0 141 0H114Q73 0 47 26T20 93V260Q19 285 29 305T59 338Q49 359 39 379Q29 399 29 422V507Q29 544 51 572T111 600H161Q202 600 228 574T255
507V363H162V502Q162 507 157 507H127Q122 507 122 502V401L184 275L192 319H281ZM118 93H145Q150 93 151 98L158 136Q147 160 136 183T113 229V98Q113 93 118 93Z" />
<glyph unicode="&apos;" glyph-name="quotesingle" horiz-adv-x="123" d="M33 657H123L90 494H0L33 657Z" />
<glyph unicode="(" glyph-name="parenleft" horiz-adv-x="166" d="M166 -37V-110H114Q73 -110 47 -84T20 -17V620Q20 661 46 687T114 713H166V640H118Q113 640 113 635V-32Q113 -37 118 -37H166Z" />
<glyph unicode=")" glyph-name="parenright" horiz-adv-x="166" d="M20 -37H68Q73 -37 73 -32V635Q73 640 68 640H20V713H72Q113 713 139 687T166 620V-17Q166 -57 140 -83T72 -110H20V-37Z" />
<glyph unicode="*" glyph-name="asterisk" horiz-adv-x="283" d="M40 564L103 527V600H179V527L243 564L281 498L217 461L281 423L243 357L180 394V321H104V394L40 357L2 423L66 461L2 498L40 564Z" />
<glyph unicode="+" glyph-name="plus" horiz-adv-x="320" d="M114 441H206V349H300V254H206V161H114V254H20V349H114V441Z" />
<glyph unicode="," glyph-name="comma" horiz-adv-x="152" d="M52 93H142L110 -63H20L52 93Z" />
<glyph unicode="-" glyph-name="hyphen" horiz-adv-x="230" d="M210 349V254H20V349H210Z" />
<glyph unicode="." glyph-name="period" horiz-adv-x="133" d="M20 93H113V0H20V93Z" />
<glyph unicode="/" glyph-name="slash" horiz-adv-x="230" d="M117 690H220L113 -67H10L117 690Z" />
<glyph unicode="0" glyph-name="zero" horiz-adv-x="281" d="M167 604Q208 604 234 578T261 511V93Q261 53 235 27T167 0H114Q73 0 47 26T20 93V511Q20 552 46 578T114 604H167ZM113 98Q113 93 118 93H165Q170 93 170 98V506Q170 511 165 511H120Q115 511 115
506L113 98Z" />
<glyph unicode="1" glyph-name="one" horiz-adv-x="200" d="M180 93V0H22V93H56V507H20L40 600H151V93H180Z" />
<glyph unicode="2" glyph-name="two" horiz-adv-x="267" d="M247 0H20V259Q20 301 45 326T110 352V352H147Q152 352 152 357V502Q152 507 147 507H20V600H153Q195 600 221 575T247 507V352Q247 310 221 285T153 259H120Q115 259 115 254V93H247V0Z" />
<glyph unicode="3" glyph-name="three" horiz-adv-x="268" d="M248 352V259H247V94Q247 52 221 27T153 1H20V94H147Q152 94 152 99V259H49V352H153V502Q153 507 148 507H21V600H154Q196 600 222 575T248 507V352V352Z" />
<glyph unicode="4" glyph-name="four" horiz-adv-x="347" d="M327 93V0H173V93H203V164H115Q65 164 40 194T22 274L75 600H168L119 257H203V600H298V257H327V164H298V93H327Z" />
<glyph unicode="5" glyph-name="five" horiz-adv-x="267" d="M20 0V93H147Q152 93 152 98V295Q152 300 147 300H20V600H247V507H115V393H153Q195 393 221 368T247 300V93Q247 51 221 26T153 0H20Z" />
<glyph unicode="6" glyph-name="six" horiz-adv-x="286" d="M177 1H114Q72 1 46 26T20 94V169V169V301Q20 307 21 312V507Q21 549 47 574T115 600H172Q215 600 240 575T266 507V412L171 422V502Q171 507 166 507H121Q116 507 116 502V394H172Q215 394 240 369T266
301V94Q266 52 241 27T177 1V1ZM171 296Q171 301 166 301H120Q116 301 115 299V99Q115 94 120 94H166Q171 94 171 99V296Z" />
<glyph unicode="7" glyph-name="seven" horiz-adv-x="298" d="M288 352V259H232L185 0H94L139 259H61V352H155L182 507H30V600H186Q235 600 258 565T270 471L249 352H288Z" />
<glyph unicode="8" glyph-name="eight" horiz-adv-x="281" d="M167 603Q208 603 234 577T261 510V392Q261 366 250 345Q261 325 261 299V93Q261 53 235 27T167 0H114Q73 0 47 26T20 93V299Q20 325 31 346Q20 366 20 392V510Q20 551 46 577T114 603H167ZM113 397Q113
392 118 392H165Q170 392 170 397V505Q170 510 165 510H120Q115 510 115 505L113 397ZM113 98Q113 93 118 93H165Q170 93 170 98V294Q170 299 165 299H120Q115 299 115 294L113 98Z" />
<glyph unicode="9" glyph-name="nine" horiz-adv-x="286" d="M20 189L115 179V99Q115 94 120 94H165Q170 94 170 99V207H114Q71 207 46 232T20 300V507Q20 549 45 574T109 600V600H172Q214 600 240 575T266 507V432V432V300Q266 294 265 289V94Q265 52 239 27T171
1H114Q71 1 46 26T20 94V189ZM120 507Q115 507 115 502V305Q115 300 120 300H166Q170 300 171 302V502Q171 507 166 507H120Z" />
<glyph unicode=":" glyph-name="colon" horiz-adv-x="133" d="M20 467H113V374H20V467ZM20 226H113V133H20V226Z" />
<glyph unicode=";" glyph-name="semicolon" horiz-adv-x="162" d="M49 467H142V374H49V467ZM52 226H142L110 70H20L52 226Z" />
<glyph unicode="&lt;" glyph-name="less" horiz-adv-x="280" d="M260 155L20 258V340L260 443V348L146 299L260 250V155Z" />
<glyph unicode="=" glyph-name="equal" horiz-adv-x="280" d="M260 409V314H20V409H260ZM260 290V195H20V290H260Z" />
<glyph unicode="&gt;" glyph-name="greater" horiz-adv-x="280" d="M20 155V250L134 299L20 348V443L260 340V258L20 155Z" />
<glyph unicode="?" glyph-name="question" horiz-adv-x="266" d="M113 400H20V600H152Q193 600 219 574T246 507V351Q246 309 223 284T162 258Q158 258 158 254V136H65V258Q65 301 87 325T148 350Q152 350 152 355V502Q152 507 147 507H113V400ZM67 0V93H160V0H67Z" />
<glyph unicode="@" glyph-name="at" horiz-adv-x="558" d="M306 486H401V283H440Q445 283 445 288V525Q445 530 440 530H118Q113 530 113 525V98Q113 93 118 93H440Q445 93 445 98V161H538V93Q538 51 512 26T444 0H114Q72 0 46 22T20 80V543Q20 579 46 601T114
623H444Q486 623 512 598T538 530V283Q538 243 511 217T437 190H426L401 229V137H306V176L281 137H254Q208 137 181 163T153 230V393Q153 434 181 460T256 486Q284 486 306 473V486ZM253 393Q248 393 248 388V235Q248 230 253 230H306V393H253Z" />
<glyph unicode="A" glyph-name="A" horiz-adv-x="311" d="M105 0H10L64 607H46L56 700H239L301 0H206L195 120H116L105 0ZM124 213H187L156 561L124 213Z" />
<glyph unicode="B" glyph-name="B" horiz-adv-x="307" d="M20 -7V607H5L15 700H173Q215 700 241 675T267 607V397Q267 383 263 370Q287 344 287 304V86Q287 44 256 19T182 -7H20ZM167 607H115V397H167Q172 397 172 402V602Q172 607 167 607ZM187 304H115V86H187Q192
86 192 91V299Q192 304 187 304Z" />
<glyph unicode="C" glyph-name="C" horiz-adv-x="300" d="M280 304V89Q280 47 254 22T186 -4H114Q72 -4 46 21T20 89V611Q20 653 46 678T114 704H186Q228 704 254 679T280 611V387L185 397V606Q185 611 180 611H120Q115 611 115 606V94Q115 89 120 89H180Q185
89 185 94V304H280Z" />
<glyph unicode="D" glyph-name="D" horiz-adv-x="300" d="M280 93Q280 51 254 26T186 0H20V607H5L15 700H186Q228 700 254 675T280 607V93ZM180 607H115V93H180Q185 93 185 98V602Q185 607 180 607Z" />
<glyph unicode="E" glyph-name="E" horiz-adv-x="267" d="M247 93L239 0H20V607H5L15 700H247L237 607H115V397H227L217 304H115V93H247Z" />
<glyph unicode="F" glyph-name="F" horiz-adv-x="267" d="M227 397L217 304H115V0H20V607H5L15 700H247L237 607H115V397H227Z" />
<glyph unicode="G" glyph-name="G" horiz-adv-x="300" d="M280 93Q280 51 254 26T186 0H114Q72 0 46 25T20 93V607Q20 649 46 674T114 700H186Q228 700 254 675T280 607V447H185V602Q185 607 180 607H120Q115 607 115 602V98Q115 93 120 93H180Q185 93 185 98V305H146L154
398H280V93Z" />
<glyph unicode="H" glyph-name="H" horiz-adv-x="292" d="M120 700V398H177V700H272V0H177V305H120V0H25V607H10L20 700H120Z" />
<glyph unicode="I" glyph-name="I" horiz-adv-x="140" d="M25 0V607H10L20 700H120V0H25Z" />
<glyph unicode="J" glyph-name="J" horiz-adv-x="270" d="M250 89Q250 47 224 22T156 -4H114Q72 -4 46 21T20 89V298H115V94Q115 89 120 89H150Q155 89 155 94V607H115L123 700H250V89Z" />
<glyph unicode="K" glyph-name="K" horiz-adv-x="322" d="M25 0V607H10L20 700H120V505L207 700H312L186 418L322 0H217L120 298V0H25Z" />
<glyph unicode="L" glyph-name="L" horiz-adv-x="292" d="M272 93L264 0H25V607H10L20 700H120V93H272Z" />
<glyph unicode="M" glyph-name="M" horiz-adv-x="446" d="M25 0V607H10L20 700H176L224 323L273 700H426V0H331V544L257 100H192L120 532V0H25Z" />
<glyph unicode="N" glyph-name="N" horiz-adv-x="345" d="M230 700H325V0H230L120 428V0H25V607H10L20 700H125L236 255L230 700Z" />
<glyph unicode="O" glyph-name="O" horiz-adv-x="300" d="M280 89Q280 47 254 22T186 -4H114Q72 -4 46 21T20 89V611Q20 653 46 678T114 704H186Q228 704 254 679T280 611V89ZM120 611Q115 611 115 606V94Q115 89 120 89H180Q185 89 185 94V606Q185 611 180 611H120Z" />
<glyph unicode="P" glyph-name="P" horiz-adv-x="292" d="M10 607L20 700H178Q220 700 246 675T272 607V294Q272 252 241 227T167 201H120V0H25V607H10ZM172 607H120V294H172Q177 294 177 299V602Q177 607 172 607Z" />
<glyph unicode="Q" glyph-name="Q" horiz-adv-x="320" d="M280 89Q280 60 267 38T231 6V0H307L287 -86H231Q192 -86 168 -64T139 -4H114Q72 -4 46 21T20 89V611Q20 653 46 678T114 704H186Q228 704 254 679T280 611V89ZM120 611Q115 611 115 606V94Q115 89 120
89H180Q185 89 185 94V606Q185 611 180 611H120Z" />
<glyph unicode="R" glyph-name="R" horiz-adv-x="303" d="M10 607L20 700H178Q220 700 246 675T272 607V294Q272 272 263 255T239 225L303 0H207L150 201H120V0H25V607H10ZM172 607H120V294H172Q177 294 177 299V602Q177 607 172 607Z" />
<glyph unicode="S" glyph-name="S" horiz-adv-x="280" d="M115 200V94Q115 89 120 89H160Q165 89 165 94V274L86 309Q77 312 61 319T33 342T20 383V611Q20 653 46 678T114 704H166Q208 704 234 679T260 611V463L165 471V606Q165 611 160 611H120Q115 611 115 606V397L194
362Q203 358 219 351T247 329T260 288V89Q260 47 234 22T166 -4H114Q72 -4 46 21T20 89V200H115Z" />
<glyph unicode="T" glyph-name="T" horiz-adv-x="315" d="M20 607V700H295V607H205V0H110V607H20Z" />
<glyph unicode="U" glyph-name="U" horiz-adv-x="295" d="M275 89Q275 47 249 22T181 -4H119Q77 -4 51 21T25 89V607H10L20 700H120V94Q120 89 125 89H175Q180 89 180 94V698H275V89Z" />
<glyph unicode="V" glyph-name="V" horiz-adv-x="290" d="M195 700H290L228 0H62L0 700H95L145 147L195 700Z" />
<glyph unicode="W" glyph-name="W" horiz-adv-x="413" d="M62 0L0 700H95L132 287L174 601H239L281 287L318 700H413L351 0H255L207 377L158 0H62Z" />
<glyph unicode="X" glyph-name="X" horiz-adv-x="347" d="M20 0L114 350L20 700H120L173 457L227 700H327L232 350L327 0H227L173 243L120 0H20Z" />
<glyph unicode="Y" glyph-name="Y" horiz-adv-x="329" d="M212 309V0H117V309L0 700H95L165 467L234 700H329L212 309Z" />
<glyph unicode="Z" glyph-name="Z" horiz-adv-x="277" d="M267 93V0H20V73Q20 94 25 109L172 601Q173 606 168 606H20V699H267V626Q267 605 262 590L124 98Q123 93 128 93H267Z" />
<glyph unicode="[" glyph-name="bracketleft" horiz-adv-x="157" d="M146 -130H0V733H146V660H93V-57H146V-130Z" />
<glyph unicode="\" glyph-name="backslash" horiz-adv-x="230" d="M113 640L220 -37H117L10 640H113Z" />
<glyph unicode="]" glyph-name="bracketright" horiz-adv-x="157" d="M0 -130V-57H53V660H0V733H146V-130H0Z" />
<glyph unicode="^" glyph-name="asciicircum" horiz-adv-x="345" d="M10 424L121 600H224L335 424H232L173 518L113 424H10Z" />
<glyph unicode="_" glyph-name="underscore" horiz-adv-x="280" d="M20 0V93H260V0H20Z" />
<glyph unicode="`" glyph-name="grave" horiz-adv-x="147" d="M100 800L127 720H47L20 800H100Z" />
<glyph unicode="a" glyph-name="a" horiz-adv-x="302" d="M121 0Q75 0 48 26T20 93V407Q20 448 47 474T121 500H125Q152 500 173 487V500H268V93H282L292 0H173V39L148 0H121ZM120 407Q115 407 115 402V98Q115 93 120 93H173V407H120Z" />
<glyph unicode="b" glyph-name="b" horiz-adv-x="302" d="M34 0V607H10L20 700H129V461L154 500H181Q227 500 254 474T282 407V93Q282 53 255 27T181 0H177Q150 0 129 13V0H34ZM182 407H129V93H182Q187 93 187 98V402Q187 407 182 407Z" />
<glyph unicode="c" glyph-name="c" horiz-adv-x="300" d="M20 89V411Q20 453 46 478T114 504H186Q228 504 254 479T280 411V279L185 289V406Q185 411 180 411H120Q115 411 115 406V94Q115 89 120 89H180Q185 89 185 93V209H280V89Q280 47 254 22T186 -4H114Q72
-4 46 21T20 89Z" />
<glyph unicode="d" glyph-name="d" horiz-adv-x="302" d="M121 0Q75 0 48 26T20 93V407Q20 448 47 474T121 500H125Q152 500 173 487V607H149L159 700H268V93H282L292 0H173V39L148 0H121ZM120 407Q115 407 115 402V98Q115 93 120 93H173V407H120Z" />
<glyph unicode="e" glyph-name="e" horiz-adv-x="290" d="M20 89V411Q20 453 46 478T114 504H176Q218 504 244 479T270 411V288H175V406Q175 411 170 411H120Q115 411 115 406V288H270V195H115V94Q115 89 120 89H170Q175 89 175 93V148H270V89Q270 47 244 22T176
-4H114Q72 -4 46 21T20 89Z" />
<glyph unicode="f" glyph-name="f" horiz-adv-x="199" d="M10 500H42V607Q42 649 68 674T136 700H194V607H137V500H186L176 407H137V0H42V407H0L10 500Z" />
<glyph unicode="g" glyph-name="g" horiz-adv-x="268" d="M105 -20V-42Q105 -47 110 -47H158Q163 -47 163 -42V39L138 0H111Q65 0 38 26T10 93V407Q10 448 37 474T111 500H115Q142 500 163 487V500H258V-40Q258 -82 232 -107T164 -133H104Q62 -133 36 -108T10
-40V-20H105ZM110 407Q105 407 105 402V98Q105 93 110 93H163V407H110Z" />
<glyph unicode="h" glyph-name="h" horiz-adv-x="316" d="M34 0V607H10L20 700H129V461L154 500H181Q227 500 254 474T282 407V93H306L296 0H187V402Q187 407 182 407H129V0H34Z" />
<glyph unicode="i" glyph-name="i" horiz-adv-x="140" d="M110 633L120 540H25V633H110ZM120 500V0H25V407H10L20 500H120Z" />
<glyph unicode="j" glyph-name="j" horiz-adv-x="142" d="M27 540V633H112L122 540H27ZM-40 -133V-40H27V407H12L22 500H122V-40Q122 -82 96 -107T28 -133H-40Z" />
<glyph unicode="k" glyph-name="k" horiz-adv-x="312" d="M34 0V607H10L20 700H129V337L209 500H302L196 285L312 0H219L129 221V0H34Z" />
<glyph unicode="l" glyph-name="l" horiz-adv-x="171" d="M125 700L126 93H151L161 0H31L30 607H10L20 700H125Z" />
<glyph unicode="m" glyph-name="m" horiz-adv-x="469" d="M282 0H187V402Q187 407 182 407H129V0H34V407H10L20 500H129V461L154 500H181Q214 500 238 486T273 448L307 500H334Q380 500 407 474T435 407V93H459L449 0H340V402Q340 407 335 407H282V0Z" />
<glyph unicode="n" glyph-name="n" horiz-adv-x="317" d="M34 0V407H10L20 500H129V461L154 500H181Q227 500 254 474T282 407V93H307L297 0H187V402Q187 407 182 407H129V0H34Z" />
<glyph unicode="o" glyph-name="o" horiz-adv-x="300" d="M185 406Q185 411 180 411H120Q115 411 115 406V94Q115 89 120 89H180Q185 89 185 93V406ZM20 89V411Q20 453 46 478T114 504H186Q228 504 254 479T280 411V89Q280 47 254 22T186 -4H114Q72 -4 46 21T20 89Z" />
<glyph unicode="p" glyph-name="p" horiz-adv-x="302" d="M129 -133H34V407H10L20 500H129V461L154 500H181Q227 500 254 474T282 407V93Q282 53 255 27T181 0H177Q150 0 129 13V-133ZM182 407H129V93H182Q187 93 187 98V402Q187 407 182 407Z" />
<glyph unicode="q" glyph-name="q" horiz-adv-x="306" d="M121 0Q75 0 48 26T20 93V407Q20 448 47 474T121 500H125Q152 500 173 487V500H268V-47H288L296 -133H173V39L148 0H121ZM120 407Q115 407 115 402V98Q115 93 120 93H173V407H120Z" />
<glyph unicode="r" glyph-name="r" horiz-adv-x="233" d="M129 500V456L156 500H223V403H129V0H34V407H10L20 500H129Z" />
<glyph unicode="s" glyph-name="s" horiz-adv-x="280" d="M20 157L115 147V98Q115 93 120 93H160Q165 93 165 98V191L76 229Q60 236 40 251T20 300V411Q20 453 46 478T114 504H166Q208 504 234 479T260 411V347L165 357V406Q165 411 160 411H120Q115 411 115 406V313L204
275Q220 268 240 253T260 204V93Q260 51 234 26T166 0H114Q72 0 46 25T20 93V157Z" />
<glyph unicode="t" glyph-name="t" horiz-adv-x="214" d="M204 93V0H146Q104 0 78 25T52 93V407H10L18 500H52V607H27L35 700H147V500H204L196 407H147V93H204Z" />
<glyph unicode="u" glyph-name="u" horiz-adv-x="302" d="M187 93V500H282V93H297L307 0H187V39L162 0H135Q89 0 62 26T34 93V407H10L20 500H129V98Q129 93 134 93H187Z" />
<glyph unicode="v" glyph-name="v" horiz-adv-x="308" d="M10 500H98L154 177L210 500H298L202 0H106L10 500Z" />
<glyph unicode="w" glyph-name="w" horiz-adv-x="469" d="M340 0V39L315 0H288Q255 0 231 14T196 52L162 0H135Q89 0 62 26T34 93V407H10L20 500H129V98Q129 93 134 93H187V500H282V98Q282 93 287 93H340V500H435V93H449L459 0H340Z" />
<glyph unicode="x" glyph-name="x" horiz-adv-x="290" d="M195 0L145 143L95 0H0L86 250L0 500H95L145 357L195 500H290L204 250L290 0H195Z" />
<glyph unicode="y" glyph-name="y" horiz-adv-x="288" d="M121 0Q75 0 48 26T20 93V407H5L15 500H115V93H173V500H268V-47Q268 -86 241 -109T174 -133H114Q72 -133 46 -108T20 -40V-20H115V-47H173V39L148 0H121Z" />
<glyph unicode="z" glyph-name="z" horiz-adv-x="267" d="M10 1V74Q10 84 11 93T15 110L156 406H10L18 499H257V426Q257 416 256 407T252 390L120 94H247L239 1H10Z" />
<glyph unicode="{" glyph-name="braceleft" horiz-adv-x="288" d="M268 -130H216Q175 -130 149 -104T122 -37V53Q122 88 119 122T105 185T74 231T20 249V354Q54 354 74 371T104 417T118 481T122 550V640Q122 681 148 707T216 733H268V660H215V461Q215 415 200
379T164 324T122 305V298Q142 298 163 278T200 223T215 142V-57H268V-130Z" />
<glyph unicode="|" glyph-name="bar" horiz-adv-x="135" d="M20 700H115V-100H20V700Z" />
<glyph unicode="}" glyph-name="braceright" horiz-adv-x="268" d="M0 -130V-57H53V142Q53 188 68 223T104 278T146 298V305Q126 304 105 323T68 379T53 461V660H0V733H52Q93 733 119 707T146 640V550Q146 516 149 481T163 418T194 372T248 354V249Q214 249 194
232T164 186T150 123T146 53V-37Q146 -77 120 -103T52 -130H0Z" />
<glyph unicode="~" glyph-name="asciitilde" horiz-adv-x="375" d="M20 230V334Q52 365 97 366T195 347Q247 326 286 327T355 367V263Q324 229 279 229T180 250Q130 271 90 269T20 230Z" />
<glyph unicode="&#xa0;" glyph-name="uni00A0" horiz-adv-x="180" />
<glyph unicode="&#xa1;" glyph-name="exclamdown" horiz-adv-x="133" d="M20 457V550H113V457H20ZM20 -50V422H113V-50H20Z" />
<glyph unicode="&#xa2;" glyph-name="cent" horiz-adv-x="317" d="M112 -40V0Q71 1 46 26T20 93V487Q20 529 46 554T112 580V624H205V580Q246 579 271 554T297 487V329L202 339V482Q202 487 197 487H120Q115 487 115 482V98Q115 93 120 93H197Q202 93 202 98V210H297V93Q297
51 272 26T205 0V-40H112Z" />
<glyph unicode="&#xa3;" glyph-name="sterling" horiz-adv-x="358" d="M20 0V93H51Q56 93 56 98L57 242H20L30 300H57V342V507Q57 549 83 574T151 600H244Q286 600 312 575T338 507V395L243 405V503Q243 507 238 507H157Q152 507 152 502V300H217L207 242H152V173Q152
125 137 93H338V0H20Z" />
<glyph unicode="&#xa4;" glyph-name="currency" horiz-adv-x="377" d="M20 322L61 362Q50 390 50 428Q50 465 61 493L20 533L87 600L129 558Q155 568 190 568Q224 568 249 559L290 600L357 533L317 493Q328 465 328 428Q328 390 317 362L357 322L290 255L248 297Q223
289 190 289Q156 289 130 298L87 255L20 322ZM188 377Q240 377 240 427Q240 478 188 478Q139 478 139 427Q139 377 188 377Z" />
<glyph unicode="&#xa5;" glyph-name="yen" horiz-adv-x="369" d="M304 240V145H232V0H137V145H64V240H137V264H64V359H122L20 700H115L185 467L254 700H349L247 359H304V264H232V240H304Z" />
<glyph unicode="&#xa6;" glyph-name="brokenbar" horiz-adv-x="135" d="M20 700H115V370H20V700ZM20 234H115V-96H20V234Z" />
<glyph unicode="&#xa7;" glyph-name="section" horiz-adv-x="280" d="M20 153L115 143V94Q115 89 120 89H160Q165 89 165 94V176L80 212Q52 221 36 244T20 300V396Q20 433 41 458Q32 466 26 478T20 507V607Q20 648 46 674T114 700H166Q207 700 233 675T260 607V543L165
553V602Q165 607 160 607H120Q115 607 115 602V520L200 484Q228 475 244 452T260 396V300Q260 263 239 238Q248 230 254 218T260 189V89Q260 48 234 22T166 -4H114Q73 -4 47 21T20 89V153ZM115 305Q115 300 120 300H160Q165 300 165 305V391Q165 396 160 396H120Q115
396 115 391V305Z" />
<glyph unicode="&#xa8;" glyph-name="dieresis" horiz-adv-x="201" d="M108 800H181V727H108V800ZM20 800H93V727H20V800Z" />
<glyph unicode="&#xa9;" glyph-name="copyright" horiz-adv-x="603" d="M114 0Q72 0 46 22T20 80V549Q20 585 46 607T114 629H489Q531 629 557 604T583 536V93Q583 51 557 26T489 0H114ZM118 93H485Q490 93 490 98V531Q490 536 485 536H118Q113 536 113 531V98Q113
93 118 93ZM445 317L352 327V396Q352 401 347 401H257Q252 401 252 396V233Q252 228 257 228H347Q352 228 352 233V288H445V228Q445 186 419 161T351 135H253Q211 135 185 160T159 228V401Q159 443 185 468T253 494H351Q393 494 419 469T445 401V317Z" />
<glyph unicode="&#xaa;" glyph-name="ordfeminine" horiz-adv-x="302" d="M292 416H173V455L148 416H121Q75 416 48 442T20 509V607Q20 648 48 674T123 700Q151 700 173 687V700H268V509H282L292 416ZM120 607Q115 607 115 602V514Q115 509 120 509H173V607H120ZM40
300V395H272V300H40Z" />
<glyph unicode="&#xab;" glyph-name="guillemotleft" horiz-adv-x="360" d="M340 45L160 231V271L340 453V348L241 249L340 150V45ZM200 45L20 231V271L200 453V348L101 249L200 150V45Z" />
<glyph unicode="&#xac;" glyph-name="logicalnot" horiz-adv-x="354" d="M334 388V214H239V295H20V388H334Z" />
<glyph unicode="&#xad;" glyph-name="uni00AD" horiz-adv-x="230" d="M210 349V254H20V349H210Z" />
<glyph unicode="&#xae;" glyph-name="registered" horiz-adv-x="603" d="M114 171Q72 171 46 193T20 251V720Q20 756 46 778T114 800H489Q531 800 557 775T583 707V264Q583 222 557 197T489 171H114ZM118 264H485Q490 264 490 269V702Q490 707 485 707H118Q113
707 113 702V269Q113 264 118 264ZM183 308V574H168L178 667H336Q378 667 404 642T430 574V500Q430 479 422 462T399 433L441 308H345L313 407H278V308H183ZM330 574H278V500H330Q335 500 335 505V569Q335 574 330 574Z" />
<glyph unicode="&#xaf;" glyph-name="overscore" horiz-adv-x="250" d="M20 727V800H230V727H20Z" />
<glyph unicode="&#xb0;" glyph-name="degree" horiz-adv-x="261" d="M125 440Q20 440 20 569Q20 699 125 699Q229 699 229 569Q229 440 125 440ZM124 506Q163 506 163 568Q163 632 124 632Q87 632 87 568Q87 506 124 506Z" />
<glyph unicode="&#xb1;" glyph-name="plusminus" horiz-adv-x="320" d="M300 488V393H206V300H114V393H20V488H114V580H206V488H300ZM290 254V159H30V254H290Z" />
<glyph unicode="&#xb2;" glyph-name="uni00B2" horiz-adv-x="183" d="M163 300H20V416Q20 446 38 463T86 481H93Q96 481 96 485V531Q96 535 93 535H20V600H97Q126 600 144 582T163 535V481Q163 452 145 434T97 416H90Q87 416 87 413V365H163V300Z" />
<glyph unicode="&#xb3;" glyph-name="uni00B3" horiz-adv-x="182" d="M20 300V365H92Q95 365 95 369V418H38V486H95V531Q95 535 92 535H20V600H96Q125 600 143 582T162 535V365Q162 336 144 318T96 300H20Z" />
<glyph unicode="&#xb4;" glyph-name="acute" horiz-adv-x="147" d="M47 800H127L100 720H20L47 800Z" />
<glyph unicode="&#xb5;" glyph-name="uni00B5" horiz-adv-x="337" d="M139 -133H44V407H20L30 500H139V98Q139 93 144 93H197V500H292V93H307L317 0H197V39L172 0H145Q142 0 139 0V-133Z" />
<glyph unicode="&#xb6;" glyph-name="paragraph" horiz-adv-x="427" d="M120 294H162V607H120Q115 607 115 602V299Q115 294 120 294ZM257 294H277L276 607H257V294ZM407 0H277V201H257V0H162V201H125Q83 201 52 226T20 294V607Q20 649 46 674T114 700H397L407
607H371L372 93H397L407 0Z" />
<glyph unicode="&#xb7;" glyph-name="middot" horiz-adv-x="206" d="M20 217V383H186V217H20Z" />
<glyph unicode="&#xb8;" glyph-name="cedilla" horiz-adv-x="146" d="M85 11V-19H87Q126 -19 126 -44V-84Q126 -93 114 -99T82 -106H20V-56H63V-84H82V-44H81Q64 -44 53 -36T41 -19V11H85Z" />
<glyph unicode="&#xb9;" glyph-name="uni00B9" horiz-adv-x="150" d="M130 369V301H21V369H43V532H20L33 601H112V369H130Z" />
<glyph unicode="&#xba;" glyph-name="ordmasculine" horiz-adv-x="280" d="M162 509Q165 509 165 512V604Q165 607 162 607H118Q115 607 115 604V512Q115 509 118 509H162ZM252 395V300H40V395H252ZM114 416Q72 416 46 441T20 509V607Q20 649 46 674T114 700H166Q208
700 234 675T260 607V509Q260 467 234 442T166 416H114Z" />
<glyph unicode="&#xbb;" glyph-name="guillemotright" horiz-adv-x="360" d="M20 45V150L119 249L20 348V453L200 271V231L20 45ZM160 45V150L259 249L160 348V453L340 271V231L160 45Z" />
<glyph unicode="&#xbc;" glyph-name="onequarter" horiz-adv-x="520" d="M170 369V301H61V369H83V532H60L73 601H152V369H170ZM20 0L396 600H490L113 0H20ZM500 66V0H404V66H418V93H368Q337 93 322 108T310 148L333 301H399L378 159H418V301H486V159H500V93H486V66H500Z" />
<glyph unicode="&#xbd;" glyph-name="onehalf" horiz-adv-x="556" d="M170 369V301H61V369H83V532H60L73 601H152V369H170ZM30 0L406 600H500L123 0H30ZM347 116Q347 146 365 163T413 181H420Q423 181 423 185V231Q423 235 420 235H347V300H424Q453 300 471 282T490
235V181Q490 152 472 134T424 116H417Q414 116 414 113V65H490V0H347V116Z" />
<glyph unicode="&#xbe;" glyph-name="threequarters" horiz-adv-x="520" d="M20 0L396 600H490L113 0H20ZM32 300V365H104Q107 365 107 369V418H50V486H107V531Q107 535 104 535H32V600H108Q137 600 155 582T174 535V365Q174 336 156 318T108 300H32ZM500 0H404V66H418V93H368Q337
93 322 108T310 148L333 301H399L378 159H418V301H486V159H500V93H486V66H500V0Z" />
<glyph unicode="&#xbf;" glyph-name="questiondown" horiz-adv-x="266" d="M153 124H246V-76H114Q73 -76 47 -50T20 17V173Q20 215 43 240T104 266Q108 266 108 270V388H201V266Q201 223 179 199T118 174Q114 174 114 169V22Q114 17 119 17H153V124ZM199 524V431H106V524H199Z"
/>
<glyph unicode="&#xc0;" glyph-name="Agrave" horiz-adv-x="311" d="M105 0H10L64 607H46L56 700H239L301 0H206L195 120H116L105 0ZM124 213H187L156 561L124 213ZM158 800L185 720H105L78 800H158Z" />
<glyph unicode="&#xc1;" glyph-name="Aacute" horiz-adv-x="311" d="M105 0H10L64 607H46L56 700H239L301 0H206L195 120H116L105 0ZM124 213H187L156 561L124 213ZM145 800H225L198 720H118L145 800Z" />
<glyph unicode="&#xc2;" glyph-name="Acircumflex" horiz-adv-x="311" d="M105 0H10L64 607H46L56 700H239L301 0H206L195 120H116L105 0ZM124 213H187L156 561L124 213ZM77 730L109 800H192L224 730H164L151 760L137 730H77Z" />
<glyph unicode="&#xc3;" glyph-name="Atilde" horiz-adv-x="311" d="M105 0H10L64 607H46L56 700H239L301 0H206L195 120H116L105 0ZM124 213H187L156 561L124 213ZM225 807V736Q215 722 195 721T153 731Q134 741 116 739T87 721V792Q98 805 118 806T159 797Q179
787 198 789T225 807Z" />
<glyph unicode="&#xc4;" glyph-name="Adieresis" horiz-adv-x="311" d="M105 0H10L64 607H46L56 700H239L301 0H206L195 120H116L105 0ZM124 213H187L156 561L124 213ZM155 800H228V727H155V800ZM67 800H140V727H67V800Z" />
<glyph unicode="&#xc5;" glyph-name="Aring" horiz-adv-x="311" d="M105 0H10L64 607H46L56 700H239L301 0H206L195 120H116L105 0ZM124 213H187L156 561L124 213ZM148 716Q121 716 102 734T83 780Q83 807 102 826T148 845Q176 845 195 826T214 780Q214 753 195
735T148 716ZM148 761Q167 761 167 780Q167 788 162 794T148 800Q141 801 136 795T130 780Q130 761 148 761Z" />
<glyph unicode="&#xc6;" glyph-name="AE" horiz-adv-x="463" d="M115 0H20L74 607H56L66 700H443L433 607H257L276 397H423L413 304H284L303 93H443L435 0H216L205 120H126L115 0ZM134 213H197L166 561L134 213Z" />
<glyph unicode="&#xc7;" glyph-name="Ccedilla" horiz-adv-x="300" d="M280 304V89Q280 47 254 22T186 -4H114Q72 -4 46 21T20 89V611Q20 653 46 678T114 704H186Q228 704 254 679T280 611V387L185 397V606Q185 611 180 611H120Q115 611 115 606V94Q115 89 120
89H180Q185 89 185 94V304H280ZM161 11V-19H163Q202 -19 202 -44V-84Q202 -93 190 -99T158 -106H96V-56H139V-84H158V-44H157Q140 -44 129 -36T117 -19V11H161Z" />
<glyph unicode="&#xc8;" glyph-name="Egrave" horiz-adv-x="267" d="M247 93L239 0H20V607H5L15 700H247L237 607H115V397H227L217 304H115V93H247ZM148 800L175 720H95L68 800H148Z" />
<glyph unicode="&#xc9;" glyph-name="Eacute" horiz-adv-x="282" d="M121 800H201L174 720H94L121 800ZM262 93L254 0H35V607H20L30 700H262L252 607H130V397H242L232 304H130V93H262Z" />
<glyph unicode="&#xca;" glyph-name="Ecircumflex" horiz-adv-x="282" d="M73 730L105 800H188L220 730H160L147 760L133 730H73ZM262 93L254 0H35V607H20L30 700H262L252 607H130V397H242L232 304H130V93H262Z" />
<glyph unicode="&#xcb;" glyph-name="Edieresis" horiz-adv-x="267" d="M247 93L239 0H20V607H5L15 700H247L237 607H115V397H227L217 304H115V93H247ZM154 800H227V727H154V800ZM66 800H139V727H66V800Z" />
<glyph unicode="&#xcc;" glyph-name="Igrave" horiz-adv-x="151" d="M100 800L127 720H47L20 800H100ZM36 0V607H21L31 700H131V0H36Z" />
<glyph unicode="&#xcd;" glyph-name="Iacute" horiz-adv-x="157" d="M57 800H137L110 720H30L57 800ZM25 0V607H10L20 700H120V0H25Z" />
<glyph unicode="&#xce;" glyph-name="Icircumflex" horiz-adv-x="187" d="M20 730L52 800H135L167 730H107L94 760L80 730H20ZM51 0V607H36L46 700H146V0H51Z" />
<glyph unicode="&#xcf;" glyph-name="Idieresis" horiz-adv-x="140" d="M25 0V607H10L20 700H120V0H25ZM332 800H405V727H332V800ZM244 800H317V727H244V800Z" />
<glyph unicode="&#xd0;" glyph-name="Eth" horiz-adv-x="330" d="M20 303V398H50V607H35L45 700H216Q258 700 284 675T310 607V93Q310 51 284 26T216 0H50V303H20ZM188 303H145V93H210Q215 93 215 98V602Q215 607 210 607H145V398H188V303Z" />
<glyph unicode="&#xd1;" glyph-name="Ntilde" horiz-adv-x="355" d="M248 807V736Q238 722 218 721T176 731Q157 741 139 739T110 721V792Q121 805 141 806T182 797Q202 787 221 789T248 807ZM240 700H335V0H240L130 428V0H35V607H20L30 700H135L246 255L240 700Z" />
<glyph unicode="&#xd2;" glyph-name="Ograve" horiz-adv-x="300" d="M280 89Q280 47 254 22T186 -4H114Q72 -4 46 21T20 89V611Q20 653 46 678T114 704H186Q228 704 254 679T280 611V89ZM120 611Q115 611 115 606V94Q115 89 120 89H180Q185 89 185 94V606Q185
611 180 611H120ZM163 800L190 720H110L83 800H163Z" />
<glyph unicode="&#xd3;" glyph-name="Oacute" horiz-adv-x="300" d="M280 89Q280 47 254 22T186 -4H114Q72 -4 46 21T20 89V611Q20 653 46 678T114 704H186Q228 704 254 679T280 611V89ZM120 611Q115 611 115 606V94Q115 89 120 89H180Q185 89 185 94V606Q185
611 180 611H120ZM138 800H218L191 720H111L138 800Z" />
<glyph unicode="&#xd4;" glyph-name="Ocircumflex" horiz-adv-x="300" d="M77 730L109 800H192L224 730H164L151 760L137 730H77ZM280 89Q280 47 254 22T186 -4H114Q72 -4 46 21T20 89V611Q20 653 46 678T114 704H186Q228 704 254 679T280 611V89ZM120 611Q115
611 115 606V94Q115 89 120 89H180Q185 89 185 94V606Q185 611 180 611H120Z" />
<glyph unicode="&#xd5;" glyph-name="Otilde" horiz-adv-x="300" d="M280 89Q280 47 254 22T186 -4H114Q72 -4 46 21T20 89V611Q20 653 46 678T114 704H186Q228 704 254 679T280 611V89ZM120 611Q115 611 115 606V94Q115 89 120 89H180Q185 89 185 94V606Q185
611 180 611H120ZM219 807V736Q209 722 189 721T147 731Q128 741 110 739T81 721V792Q92 805 112 806T153 797Q173 787 192 789T219 807Z" />
<glyph unicode="&#xd6;" glyph-name="Odieresis" horiz-adv-x="300" d="M280 89Q280 47 254 22T186 -4H114Q72 -4 46 21T20 89V611Q20 653 46 678T114 704H186Q228 704 254 679T280 611V89ZM120 611Q115 611 115 606V94Q115 89 120 89H180Q185 89 185 94V606Q185
611 180 611H120ZM158 800H231V727H158V800ZM70 800H143V727H70V800Z" />
<glyph unicode="&#xd7;" glyph-name="multiply" horiz-adv-x="305" d="M20 366L87 433L152 368L217 434L284 367L219 302L285 236L218 170L153 235L87 169L21 236L86 301L20 366Z" />
<glyph unicode="&#xd8;" glyph-name="Oslash" horiz-adv-x="300" d="M280 89Q280 47 254 22T186 -4H114Q72 -4 46 21T20 89V611Q20 653 46 678T114 704H186Q228 704 254 679T280 611V89ZM120 611Q115 611 115 606V94Q115 89 120 89H180Q185 89 185 94V606Q185
611 180 611H120ZM82 743H143L80 -37H19L82 743Z" />
<glyph unicode="&#xd9;" glyph-name="Ugrave" horiz-adv-x="295" d="M275 89Q275 47 249 22T181 -4H119Q77 -4 51 21T25 89V607H10L20 700H120V94Q120 89 125 89H175Q180 89 180 94V698H275V89ZM173 800L200 720H120L93 800H173Z" />
<glyph unicode="&#xda;" glyph-name="Uacute" horiz-adv-x="295" d="M275 89Q275 47 249 22T181 -4H119Q77 -4 51 21T25 89V607H10L20 700H120V94Q120 89 125 89H175Q180 89 180 94V698H275V89ZM147 800H227L200 720H120L147 800Z" />
<glyph unicode="&#xdb;" glyph-name="Ucircumflex" horiz-adv-x="295" d="M275 89Q275 47 249 22T181 -4H119Q77 -4 51 21T25 89V607H10L20 700H120V94Q120 89 125 89H175Q180 89 180 94V698H275V89ZM77 730L109 800H192L224 730H164L151 760L137 730H77Z" />
<glyph unicode="&#xdc;" glyph-name="Udieresis" horiz-adv-x="295" d="M275 89Q275 47 249 22T181 -4H119Q77 -4 51 21T25 89V607H10L20 700H120V94Q120 89 125 89H175Q180 89 180 94V698H275V89ZM169 800H242V727H169V800ZM81 800H154V727H81V800Z" />
<glyph unicode="&#xdd;" glyph-name="Yacute" horiz-adv-x="369" d="M172 800H252L225 720H145L172 800ZM232 309V0H137V309L20 700H115L185 467L254 700H349L232 309Z" />
<glyph unicode="&#xde;" glyph-name="Thorn" horiz-adv-x="287" d="M20 800H118V650H162Q204 650 235 625T267 557V243Q267 201 236 176T162 150H118V4H20V800ZM167 243Q172 243 172 248V552Q172 557 167 557H118V243H167Z" />
<glyph unicode="&#xdf;" glyph-name="germandbls" horiz-adv-x="382" d="M20 0V606Q20 648 46 674T114 700H176Q218 700 244 675T270 607V448Q270 409 259 387T228 345L221 338V337L306 297Q317 292 330 284T352 263T362 226V94Q362 52 336 26T268 0H165V94H262Q267
94 267 99V213L198 251Q189 257 174 265T146 289T134 328V335Q134 358 142 372T163 400L179 418V601Q179 607 173 607H115V0H20Z" />
<glyph unicode="&#xe0;" glyph-name="agrave" horiz-adv-x="302" d="M163 618L190 538H110L83 618H163ZM121 0Q75 0 48 26T20 93V407Q20 448 47 474T121 500H125Q152 500 173 487V500H268V93H282L292 0H173V39L148 0H121ZM120 407Q115 407 115 402V98Q115 93 120
93H173V407H120Z" />
<glyph unicode="&#xe1;" glyph-name="aacute" horiz-adv-x="302" d="M135 618H215L188 538H108L135 618ZM121 0Q75 0 48 26T20 93V407Q20 448 47 474T121 500H125Q152 500 173 487V500H268V93H282L292 0H173V39L148 0H121ZM120 407Q115 407 115 402V98Q115 93
120 93H173V407H120Z" />
<glyph unicode="&#xe2;" glyph-name="acircumflex" horiz-adv-x="302" d="M121 0Q75 0 48 26T20 93V407Q20 448 47 474T121 500H125Q152 500 173 487V500H268V93H282L292 0H173V39L148 0H121ZM120 407Q115 407 115 402V98Q115 93 120 93H173V407H120ZM78 538L110
608H193L225 538H165L152 568L138 538H78Z" />
<glyph unicode="&#xe3;" glyph-name="atilde" horiz-adv-x="302" d="M225 619V548Q215 534 195 533T153 543Q134 553 116 551T87 533V604Q98 617 118 618T159 609Q179 599 198 601T225 619ZM121 0Q75 0 48 26T20 93V407Q20 448 47 474T121 500H125Q152 500 173
487V500H268V93H282L292 0H173V39L148 0H121ZM120 407Q115 407 115 402V98Q115 93 120 93H173V407H120Z" />
<glyph unicode="&#xe4;" glyph-name="adieresis" horiz-adv-x="302" d="M159 611H232V538H159V611ZM71 611H144V538H71V611ZM121 0Q75 0 48 26T20 93V407Q20 448 47 474T121 500H125Q152 500 173 487V500H268V93H282L292 0H173V39L148 0H121ZM120 407Q115 407
115 402V98Q115 93 120 93H173V407H120Z" />
<glyph unicode="&#xe5;" glyph-name="aring" horiz-adv-x="302" d="M153 530Q126 530 107 548T88 594Q88 621 107 640T153 659Q181 659 200 640T219 594Q219 567 200 549T153 530ZM153 575Q172 575 172 594Q172 602 167 608T153 614Q146 615 141 609T135 594Q135
575 153 575ZM121 0Q75 0 48 26T20 93V407Q20 448 47 474T121 500H125Q152 500 173 487V500H268V93H282L292 0H173V39L148 0H121ZM120 407Q115 407 115 402V98Q115 93 120 93H173V407H120Z" />
<glyph unicode="&#xe6;" glyph-name="ae" horiz-adv-x="443" d="M121 0Q75 0 48 26T20 93V407Q20 448 47 474T121 500H125Q152 500 173 487V500H237Q251 504 267 504H329Q371 504 397 479T423 411V288H328V406Q328 411 323 411H273Q268 411 268 406V288H423V195H268V94Q268
93 268 93H282V89H323Q328 89 328 93V148H423V89Q423 47 397 22T329 -4H267Q251 -4 237 0H173V39L148 0H121ZM120 407Q115 407 115 402V98Q115 93 120 93H173V407H120Z" />
<glyph unicode="&#xe7;" glyph-name="ccedilla" horiz-adv-x="300" d="M20 89V411Q20 453 46 478T114 504H186Q228 504 254 479T280 411V279L185 289V406Q185 411 180 411H120Q115 411 115 406V94Q115 89 120 89H180Q185 89 185 93V209H280V89Q280 47 254 22T186
-4H114Q72 -4 46 21T20 89ZM162 11V-19H164Q203 -19 203 -44V-84Q203 -93 191 -99T159 -106H97V-56H140V-84H159V-44H158Q141 -44 130 -36T118 -19V11H162Z" />
<glyph unicode="&#xe8;" glyph-name="egrave" horiz-adv-x="290" d="M158 618L185 538H105L78 618H158ZM20 89V411Q20 453 46 478T114 504H176Q218 504 244 479T270 411V288H175V406Q175 411 170 411H120Q115 411 115 406V288H270V195H115V94Q115 89 120 89H170Q175
89 175 93V148H270V89Q270 47 244 22T176 -4H114Q72 -4 46 21T20 89Z" />
<glyph unicode="&#xe9;" glyph-name="eacute" horiz-adv-x="290" d="M132 618H212L185 538H105L132 618ZM20 89V411Q20 453 46 478T114 504H176Q218 504 244 479T270 411V288H175V406Q175 411 170 411H120Q115 411 115 406V288H270V195H115V94Q115 89 120 89H170Q175
89 175 93V148H270V89Q270 47 244 22T176 -4H114Q72 -4 46 21T20 89Z" />
<glyph unicode="&#xea;" glyph-name="ecircumflex" horiz-adv-x="290" d="M68 538L100 608H183L215 538H155L142 568L128 538H68ZM20 89V411Q20 453 46 478T114 504H176Q218 504 244 479T270 411V288H175V406Q175 411 170 411H120Q115 411 115 406V288H270V195H115V94Q115
89 120 89H170Q175 89 175 93V148H270V89Q270 47 244 22T176 -4H114Q72 -4 46 21T20 89Z" />
<glyph unicode="&#xeb;" glyph-name="edieresis" horiz-adv-x="290" d="M154 611H227V538H154V611ZM66 611H139V538H66V611ZM20 89V411Q20 453 46 478T114 504H176Q218 504 244 479T270 411V288H175V406Q175 411 170 411H120Q115 411 115 406V288H270V195H115V94Q115
89 120 89H170Q175 89 175 93V148H270V89Q270 47 244 22T176 -4H114Q72 -4 46 21T20 89Z" />
<glyph unicode="&#xec;" glyph-name="igrave" horiz-adv-x="150" d="M100 618L127 538H47L20 618H100ZM130 500V0H35V407H20L30 500H130Z" />
<glyph unicode="&#xed;" glyph-name="iacute" horiz-adv-x="166" d="M53 618H133L106 538H26L53 618ZM120 500V0H25V407H10L20 500H120Z" />
<glyph unicode="&#xee;" glyph-name="icircumflex" horiz-adv-x="140" d="M120 500V0H25V407H10L20 500H120ZM-2 538L30 608H113L145 538H85L72 568L58 538H-2Z" />
<glyph unicode="&#xef;" glyph-name="idieresis" horiz-adv-x="201" d="M108 611H181V538H108V611ZM20 611H93V538H20V611ZM149 500V0H54V407H39L49 500H149Z" />
<glyph unicode="&#xf0;" glyph-name="eth" horiz-adv-x="315" d="M121 0Q75 0 48 26T20 93V407Q20 448 47 474T121 500H125Q152 500 173 487V515H115V578H173V607H149L159 700H268V578H305V515H268V93H282L292 0H173V39L148 0H121ZM120 407Q115 407 115 402V98Q115
93 120 93H173V407H120Z" />
<glyph unicode="&#xf1;" glyph-name="ntilde" horiz-adv-x="337" d="M235 619V548Q225 534 205 533T163 543Q144 553 126 551T97 533V604Q108 617 128 618T169 609Q189 599 208 601T235 619ZM44 0V407H20L30 500H139V461L164 500H191Q237 500 264 474T292 407V93H317L307
0H197V402Q197 407 192 407H139V0H44Z" />
<glyph unicode="&#xf2;" glyph-name="ograve" horiz-adv-x="300" d="M178 618L205 538H125L98 618H178ZM185 406Q185 411 180 411H120Q115 411 115 406V94Q115 89 120 89H180Q185 89 185 93V406ZM20 89V411Q20 453 46 478T114 504H186Q228 504 254 479T280 411V89Q280
47 254 22T186 -4H114Q72 -4 46 21T20 89Z" />
<glyph unicode="&#xf3;" glyph-name="oacute" horiz-adv-x="300" d="M135 619H215L188 539H108L135 619ZM185 406Q185 411 180 411H120Q115 411 115 406V94Q115 89 120 89H180Q185 89 185 93V406ZM20 89V411Q20 453 46 478T114 504H186Q228 504 254 479T280 411V89Q280
47 254 22T186 -4H114Q72 -4 46 21T20 89Z" />
<glyph unicode="&#xf4;" glyph-name="ocircumflex" horiz-adv-x="300" d="M185 406Q185 411 180 411H120Q115 411 115 406V94Q115 89 120 89H180Q185 89 185 93V406ZM20 89V411Q20 453 46 478T114 504H186Q228 504 254 479T280 411V89Q280 47 254 22T186 -4H114Q72
-4 46 21T20 89ZM78 538L110 608H193L225 538H165L152 568L138 538H78Z" />
<glyph unicode="&#xf5;" glyph-name="otilde" horiz-adv-x="300" d="M185 406Q185 411 180 411H120Q115 411 115 406V94Q115 89 120 89H180Q185 89 185 93V406ZM20 89V411Q20 453 46 478T114 504H186Q228 504 254 479T280 411V89Q280 47 254 22T186 -4H114Q72
-4 46 21T20 89ZM225 619V548Q215 534 195 533T153 543Q134 553 116 551T87 533V604Q98 617 118 618T159 609Q179 599 198 601T225 619Z" />
<glyph unicode="&#xf6;" glyph-name="odieresis" horiz-adv-x="300" d="M158 611H231V538H158V611ZM70 611H143V538H70V611ZM185 406Q185 411 180 411H120Q115 411 115 406V94Q115 89 120 89H180Q185 89 185 93V406ZM20 89V411Q20 453 46 478T114 504H186Q228
504 254 479T280 411V89Q280 47 254 22T186 -4H114Q72 -4 46 21T20 89Z" />
<glyph unicode="&#xf7;" glyph-name="divide" horiz-adv-x="360" d="M133 480H226V387H133V480ZM340 349V254H20V349H340ZM133 216H226V123H133V216Z" />
<glyph unicode="&#xf8;" glyph-name="oslash" horiz-adv-x="300" d="M185 406Q185 411 180 411H120Q115 411 115 406V94Q115 89 120 89H180Q185 89 185 93V406ZM20 89V411Q20 453 46 478T114 504H186Q228 504 254 479T280 411V89Q280 47 254 22T186 -4H114Q72
-4 46 21T20 89ZM110 537H188L107 -37H29L110 537Z" />
<glyph unicode="&#xf9;" glyph-name="ugrave" horiz-adv-x="337" d="M183 618L210 538H130L103 618H183ZM197 93V500H292V93H307L317 0H197V39L172 0H145Q99 0 72 26T44 93V407H20L30 500H139V98Q139 93 144 93H197Z" />
<glyph unicode="&#xfa;" glyph-name="uacute" horiz-adv-x="337" d="M159 618H239L212 538H132L159 618ZM197 93V500H292V93H307L317 0H197V39L172 0H145Q99 0 72 26T44 93V407H20L30 500H139V98Q139 93 144 93H197Z" />
<glyph unicode="&#xfb;" glyph-name="ucircumflex" horiz-adv-x="337" d="M94 538L126 608H209L241 538H181L168 568L154 538H94ZM197 93V500H292V93H307L317 0H197V39L172 0H145Q99 0 72 26T44 93V407H20L30 500H139V98Q139 93 144 93H197Z" />
<glyph unicode="&#xfc;" glyph-name="udieresis" horiz-adv-x="302" d="M187 93V500H282V93H297L307 0H187V39L162 0H135Q89 0 62 26T34 93V407H10L20 500H129V98Q129 93 134 93H187ZM178 611H251V538H178V611ZM90 611H163V538H90V611Z" />
<glyph unicode="&#xfd;" glyph-name="yacute" horiz-adv-x="288" d="M142 618H222L195 538H115L142 618ZM121 0Q75 0 48 26T20 93V407H5L15 500H115V93H173V500H268V-47Q268 -86 241 -109T174 -133H114Q72 -133 46 -108T20 -40V-20H115V-47H173V39L148 0H121Z" />
<glyph unicode="&#xfe;" glyph-name="thorn" horiz-adv-x="312" d="M44 -133V607H20L30 700H139V461L164 500H191Q237 500 264 474T292 407V93Q292 53 265 27T191 0H187Q160 0 139 13V-133H44ZM192 407H139V93H192Q197 93 197 98V402Q197 407 192 407Z" />
<glyph unicode="&#xff;" glyph-name="ydieresis" horiz-adv-x="303" d="M168 611H241V538H168V611ZM80 611H153V538H80V611ZM136 0Q90 0 63 26T35 93V407H20L30 500H130V93H188V500H283V-47Q283 -86 256 -109T189 -133H129Q87 -133 61 -108T35 -40V-20H130V-47H188V39L163
0H136Z" />
<glyph unicode="&#x2013;" glyph-name="endash" horiz-adv-x="340" d="M320 349V254H20V349H320Z" />
<glyph unicode="&#x2014;" glyph-name="emdash" horiz-adv-x="441" d="M421 349V254H20V349H421Z" />
<glyph unicode="&#x2018;" glyph-name="quoteleft" horiz-adv-x="163" d="M53 657H143L110 494H20L53 657Z" />
<glyph unicode="&#x2019;" glyph-name="quoteright" horiz-adv-x="123" d="M33 657H123L90 494H0L33 657Z" />
<glyph unicode="&#x201a;" glyph-name="quotesinglbase" horiz-adv-x="152" d="M52 93H142L110 -63H20L52 93Z" />
<glyph unicode="&#x201c;" glyph-name="quotedblleft" horiz-adv-x="143" d="M299 657H389L356 494H266L299 657Z" />
<glyph unicode="&#x201d;" glyph-name="quotedblright" horiz-adv-x="143" d="M43 657H133L100 494H10L43 657Z" />
<glyph unicode="&#x201e;" glyph-name="quotedblbase" horiz-adv-x="277" d="M167 93H257L225 -63H135L167 93ZM52 93H142L110 -63H20L52 93Z" />
<glyph unicode="&#x2022;" glyph-name="bullet" horiz-adv-x="221" d="M110 200Q68 200 39 229T10 300Q10 341 39 370T110 400Q151 400 180 371T210 300Q210 258 181 229T110 200Z" />
<glyph unicode="&#x2039;" glyph-name="guilsinglleft" horiz-adv-x="220" d="M200 45L20 231V271L200 453V348L101 249L200 150V45Z" />
<glyph unicode="&#x203a;" glyph-name="guilsinglright" horiz-adv-x="220" d="M20 45V150L119 249L20 348V453L200 271V231L20 45Z" />
</font>
</defs>
</svg>
