<?xml version="1.0" standalone="no"?>
<!DOCTYPE svg PUBLIC "-//W3C//DTD SVG 1.1//EN" "http://www.w3.org/Graphics/SVG/1.1/DTD/svg11.dtd">
<svg xmlns="http://www.w3.org/2000/svg">
<defs >
<font id="JosefinSlab" horiz-adv-x="514" ><font-face
    font-family="Josefin Slab Thin"
    units-per-em="1000"
    panose-1="2 0 0 0 0 0 0 0 0 0"
    ascent="750"
    descent="-250"
    alphabetic="0" />
<glyph unicode=" " horiz-adv-x="300" />
<glyph unicode="!" horiz-adv-x="201" d="M132 55Q132 69 122 78T100 87Q88 87 78 78T68 55Q68 41 78 32T100 22Q112 22 122 31T132 55ZM120 166V750H79V166H120Z" />
<glyph unicode="&quot;" horiz-adv-x="309" d="M235 472Q236 535 237 596T239 720H196V472H235ZM102 472Q103 535 104 596T106 720H63V472H102Z" />
<glyph unicode="#" horiz-adv-x="571" d="M198 393H341L324 251H181L198 393ZM152 0L176 211H319L294 0H336L360 211H483L487 251H365L382 393H506L509 433H387L413 643H371L345 433H203L229 643H187L161 433H54L50 393H157L140 251H32L27 211H135L110 0H152Z" />
<glyph unicode="$" horiz-adv-x="567" d="M259 -68V-7Q300 -5 335 9T397 50Q424 75 439 109T454 186Q453 239 436 273T390 329Q363 350 329 363T259 387V664Q294 662 319 654T361 634V546H401V654Q368 682 330 691T259 703V764H218V702Q175 699 144 682T94 637Q75
611 67 580T59 517Q61 477 74 451T111 407Q132 389 160 378T218 358V33Q170 36 136 52T76 92V182H36V75Q46 63 63 50T104 24Q127 13 155 5T218 -6V-68H259ZM259 345Q288 335 316 325T365 296Q387 278 400 252T413 184Q413 148 398 120T359 72Q339 56 313 46T259
33V345ZM100 524Q100 550 108 575T133 620Q148 637 169 647T218 661V400Q196 408 176 416T140 437Q122 452 111 472T100 524Z" />
<glyph unicode="%" horiz-adv-x="726" d="M463 71Q455 83 452 96T451 124Q453 138 461 150T481 170Q492 178 505 181T534 183Q549 181 561 173T581 152Q589 140 592 126T592 98Q590 83 583 72T563 53Q553 46 540 42T513 39Q497 41 484 49T463 71ZM604 30Q620 45
629 66T639 112Q639 136 630 157T604 194Q588 209 567 218T522 227Q498 227 477 218T439 194Q423 178 414 157T405 112Q405 88 414 67T439 30Q455 14 476 5T522 -4Q546 -4 567 5T604 30ZM159 348Q151 360 148 374T148 402Q150 416 157 427T177 447Q188 455 202
458T231 459Q245 456 257 449T277 429Q285 417 287 402T287 374Q285 360 278 349T259 330Q248 322 235 319T206 317Q191 320 179 328T159 348ZM300 307Q316 322 325 343T335 389Q335 413 326 434T300 471Q284 486 263 495T218 504Q194 504 173 495T135 471Q119
455 110 434T101 389Q101 364 110 343T135 307Q151 291 172 282T218 273Q242 273 263 282T300 307ZM240 0Q315 126 389 250T538 500H493Q418 374 344 250T195 0H240Z" />
<glyph unicode="&amp;" horiz-adv-x="700" d="M302 -8Q351 -8 391 13T459 68L513 -19L545 3L480 108Q488 126 492 144T499 182Q500 199 500 216T499 251V335H601V375H458V236Q458 217 454 200T443 166L233 508Q219 531 213 555T209 604Q212 625 224 646T259 685Q278
700 299 705T345 708Q369 705 393 694T437 672L454 706Q433 719 405 731T344 746Q312 749 283 742T229 715Q201 693 186 667T168 611Q165 583 172 554T197 496L268 379Q233 373 204 356T152 314Q130 288 118 256T106 187Q106 146 121 111T163 50Q189 23 225 8T302
-8ZM302 32Q269 32 241 44T192 77Q171 98 159 126T147 187Q147 218 157 245T186 293Q206 313 233 326T291 341L435 107Q415 73 380 53T302 32Z" />
<glyph unicode="&apos;" horiz-adv-x="153" d="M97 472Q98 535 99 596T101 720H57V472H97Z" />
<glyph unicode="(" horiz-adv-x="406" d="M330 -140Q301 -107 274 -62T224 38Q202 93 189 157T176 292Q176 363 189 427T224 546Q246 601 273 646T330 724Q322 730 315 735T299 747Q267 714 238 667T185 561Q162 503 148 435T134 292Q134 217 148 149T185 23Q208
-35 237 -82T299 -163Q307 -157 314 -152T330 -140Z" />
<glyph unicode=")" horiz-adv-x="400" d="M241 21Q264 79 278 147T292 290Q292 365 278 433T241 559Q218 617 188 664T127 745Q119 739 112 734T97 722Q126 689 153 644T203 544Q225 489 238 425T251 290Q251 219 238 155T203 36Q181 -19 154 -64T97 -142Q104
-148 111 -153T127 -165Q158 -132 188 -85T241 21Z" />
<glyph unicode="*" horiz-adv-x="335" d="M186 434Q187 460 187 486T188 539Q216 522 233 512T280 484L301 522L209 575Q233 589 256 602T303 630L283 664Q259 651 236 638T188 611Q189 638 189 665T190 720H146V611Q123 625 100 638T53 665L34 631Q62 614 79
604T125 576Q97 560 80 550T34 524L55 487Q78 500 100 512T146 539V434H186Z" />
<glyph unicode="+" horiz-adv-x="543" d="M287 51V211H446V252H287V411H245V252H86V211H245V51H287Z" />
<glyph unicode="," horiz-adv-x="200" d="M55 -120Q77 -68 98 -17T141 86H94Q74 34 56 -17T17 -120H55Z" />
<glyph unicode="-" horiz-adv-x="300" d="M237 170V210H53V170H237Z" />
<glyph unicode="." horiz-adv-x="163" d="M118 33Q118 46 108 55T86 65Q73 65 63 56T53 33Q53 19 63 10T86 0Q98 0 108 9T118 33Z" />
<glyph unicode="/" horiz-adv-x="345" d="M58 -19Q128 171 197 358T336 736H295Q225 546 156 359T17 -19H58Z" />
<glyph unicode="0" horiz-adv-x="616" d="M490 86Q528 130 550 191T573 324Q573 383 557 442T508 550Q475 597 425 627T308 658Q240 658 189 629T105 552Q71 504 54 445T36 327Q36 255 57 194T115 88Q152 44 200 19T302 -7Q355 -7 404 17T490 86ZM146 115Q115
154 97 208T78 327Q78 386 94 438T140 532Q170 572 212 595T307 618Q360 618 401 594T473 530Q501 489 516 436T532 323Q532 259 513 205T461 113Q429 74 388 54T303 33Q259 33 218 54T146 115Z" />
<glyph unicode="1" horiz-adv-x="265" d="M250 0V39H171V650H34V610H129V39H50V0H250Z" />
<glyph unicode="2" horiz-adv-x="504" d="M467 0V145H428V40H153Q200 91 248 142T336 245Q375 297 400 350T425 459Q425 501 412 537T373 600Q348 627 314 642T238 658Q192 658 156 643T97 601Q72 574 60 539T48 464Q48 419 63 386T104 329L129 353Q109 375 99
402T89 464Q89 486 95 512T119 563Q135 586 163 602T238 618Q260 618 285 610T333 581Q355 560 369 528T384 447Q384 400 356 347T282 238Q236 181 176 122T53 0H467Z" />
<glyph unicode="3" horiz-adv-x="515" d="M381 54Q410 81 426 119T443 200Q443 242 428 278T386 340Q360 367 325 383T249 403L426 650H103V550H142V609H352L169 347Q183 358 198 363T231 368Q266 368 297 355T352 319Q374 296 388 266T402 200Q402 166 388 136T352
82Q328 59 297 46T231 32Q194 32 163 48T110 90L80 60Q108 29 147 11T233 -8Q276 -8 314 8T381 54Z" />
<glyph unicode="4" d="M486 0V39H403V183H500V223H403V658L37 183H362V39H285V0H486ZM362 537V223H121L362 537Z" />
<glyph unicode="5" horiz-adv-x="543" d="M403 54Q431 81 448 119T465 201Q465 244 448 281T403 347Q374 375 336 390T254 406Q236 406 219 403T184 392V610H391V550H430V650H143V322Q160 343 189 354T253 366Q288 366 319 353T373 318Q396 295 410 265T424 200Q424
166 410 136T373 82Q350 59 319 46T253 32Q220 32 191 44T141 78L110 50Q139 23 175 8T254 -8Q297 -8 335 8T403 54Z" />
<glyph unicode="6" horiz-adv-x="520" d="M140 82Q117 104 104 134T91 199Q91 234 104 264T140 318Q162 340 192 353T258 366Q292 366 323 353T377 318Q400 295 413 265T427 199Q427 165 414 135T377 82Q354 58 323 45T258 32Q223 32 193 45T140 82ZM407 53Q435
81 451 118T468 199Q468 242 452 279T407 346Q378 374 340 390T258 406Q225 406 198 393T151 357Q165 381 187 408T241 468Q272 499 313 533T407 602Q401 610 394 618T381 635Q325 593 266 547T159 446Q111 392 80 330T49 195Q50 152 67 115T112 51Q140 24 178
8T258 -8Q301 -8 339 8T407 53Z" />
<glyph unicode="7" horiz-adv-x="469" d="M128 0L420 650H14V550H53V609H355L80 0H128Z" />
<glyph unicode="8" horiz-adv-x="510" d="M168 456Q157 471 153 489T153 528Q157 548 168 565T197 593Q214 604 234 608T275 609Q295 605 312 593T340 562Q350 545 353 525T352 484Q348 465 338 451T310 427Q294 417 275 414T236 413Q214 417 197 428T168 456ZM136
82Q114 105 102 135T89 200Q89 235 101 265T137 318Q159 340 189 353T255 366Q290 366 320 353T374 317Q397 294 410 265T424 200Q424 166 410 136T373 82Q350 59 319 46T253 32Q219 32 189 45T136 82ZM403 54Q431 81 448 119T465 200Q465 237 453 269T420 327Q403
349 380 365T329 390Q362 406 382 437T403 508Q403 539 391 566T359 614Q338 634 311 646T252 658Q221 658 194 647T148 615Q127 595 115 568T103 510Q103 470 124 438T178 390Q151 381 128 364T88 325Q69 299 58 268T46 200Q46 157 62 119T108 54Q136 25 173 9T254
-8Q297 -8 335 8T403 54Z" />
<glyph unicode="9" horiz-adv-x="525" d="M135 309Q112 331 99 361T85 427Q85 462 98 492T135 545Q158 568 189 581T254 594Q288 594 319 581T373 545Q395 522 408 492T421 427Q421 392 408 362T373 309Q350 286 319 273T254 260Q220 260 189 273T135 309ZM352
178Q400 232 431 294T463 427Q463 470 447 507T402 573Q373 601 335 617T254 634Q211 634 173 618T106 574Q77 545 61 508T44 427Q44 384 60 347T106 281Q134 252 172 236T254 220Q287 220 314 233T362 270Q351 249 333 225T287 172Q254 138 209 101T105 25Q111
16 118 8T131 -8Q186 32 244 78T352 178Z" />
<glyph unicode=":" horiz-adv-x="175" d="M117 283Q117 296 107 305T85 315Q72 315 62 306T52 283Q52 269 62 260T85 250Q97 250 107 259T117 283ZM117 33Q117 46 107 55T85 65Q72 65 62 56T52 33Q52 19 62 10T85 0Q97 0 107 9T117 33Z" />
<glyph unicode=";" horiz-adv-x="201" d="M143 283Q143 296 133 305T111 315Q98 315 89 306T79 283Q79 269 88 260T111 250Q123 250 133 259T143 283ZM40 -120Q62 -68 83 -17T126 86H80Q60 34 42 -17T3 -120H40Z" />
<glyph unicode="&lt;" horiz-adv-x="680" d="M553 39Q467 90 381 139T208 238Q294 288 380 337T553 437V491Q443 428 334 365T115 238Q225 175 334 112T553 -15V39Z" />
<glyph unicode="=" horiz-adv-x="708" d="M606 135V175H100V135H606ZM606 329V369H100V329H606Z" />
<glyph unicode="&gt;" horiz-adv-x="650" d="M553 238Q443 301 334 364T115 491V437Q202 386 288 337T460 238Q374 188 288 139T115 39V-15Q225 48 334 111T553 238Z" />
<glyph unicode="?" horiz-adv-x="452" d="M232 164V242Q232 273 239 291T260 323Q274 335 290 345T324 368Q369 400 395 441T422 537Q422 577 407 612T365 674Q339 701 303 716T226 732Q186 732 155 720T99 688Q76 668 60 643T35 591Q44 588 53 585T71 579Q79
603 92 623T123 657Q143 674 168 683T226 692Q258 692 286 681T335 648Q356 628 368 600T380 537Q380 500 365 468T317 408Q293 389 271 375T230 346Q212 331 201 312T190 261V164H232ZM243 48Q243 62 233 71T211 81Q199 81 189 72T179 48Q179 34 189 25T211 15Q223
15 233 24T243 48Z" />
<glyph unicode="@" horiz-adv-x="990" d="M365 111Q350 135 345 163T346 221Q352 249 369 272T411 311Q434 326 461 332T518 334Q548 328 572 310T612 266Q627 240 631 211T627 152Q621 125 606 103T566 65Q543 50 515 44T459 42Q428 48 404 66T365 111ZM729 -138Q723
-130 717 -123T704 -108Q658 -140 604 -158T489 -177Q413 -177 347 -148T231 -70Q181 -21 153 45T124 188Q124 264 152 331T231 448Q280 497 346 526T489 555Q564 555 630 526T746 448Q796 398 824 331T853 188Q852 146 843 117T817 70Q803 54 784 47T741 40H685V375H652Q651
353 650 331T648 287Q642 299 631 313T605 340Q582 359 553 371T488 383Q447 383 411 368T348 325Q322 299 307 263T291 188Q291 147 306 112T348 50Q375 23 411 8T488 -7Q518 -7 544 1T592 22Q612 36 626 52T649 87L648 41V0H737Q763 0 789 8T839 37Q861 59 876
95T895 188Q895 272 863 346T776 476Q721 531 647 563T489 595Q405 595 331 563T202 476Q147 421 115 347T83 189Q83 105 115 31T202 -98Q257 -153 331 -185T489 -217Q562 -217 620 -197T729 -138Z" />
<glyph unicode="A" horiz-adv-x="812" d="M228 0V39H154Q185 111 210 170T265 301H547Q575 235 602 170T658 39H585V0H777V39H700Q626 214 553 385T406 732Q333 557 259 386T112 39H35V0H228ZM396 612Q399 620 401 626T406 641L415 612L530 340H282Q310 407 339
475T396 612Z" />
<glyph unicode="B" horiz-adv-x="526" d="M274 0Q315 0 354 11T425 46Q454 68 472 101T491 180Q491 216 479 245T446 296Q425 318 398 332T341 352Q404 369 434 416T465 525Q465 571 450 604T407 659Q380 680 341 690T256 700H35V661H96V39H35V0H274ZM137 332H253Q291
332 326 323T390 296Q417 279 433 251T450 183Q450 147 436 120T397 76Q372 57 340 48T270 39H137V332ZM137 661H265Q300 661 328 653T378 629Q400 613 412 586T424 522Q424 454 383 413T269 371H137V661Z" />
<glyph unicode="C" horiz-adv-x="610" d="M574 42L551 75Q515 54 475 43T390 31Q325 31 268 56T169 125Q126 167 101 225T76 348Q76 414 101 472T169 574Q212 618 269 643T392 669Q430 669 466 660T536 633V546H575V658Q534 682 489 695T392 708Q318 708 253 680T140
603Q91 554 63 489T35 349Q35 275 63 210T140 97Q188 48 253 20T392 -8Q443 -8 488 5T574 42Z" />
<glyph unicode="D" horiz-adv-x="632" d="M211 0Q317 0 390 32T510 116Q556 167 576 229T597 350Q597 430 569 495T493 606Q445 651 381 675T245 700H35V661H98V40H35V0H211ZM139 661H245Q309 661 365 639T465 577Q508 536 532 479T557 350Q557 291 537 236T475
137Q434 93 372 67T226 40H139V661Z" />
<glyph unicode="E" horiz-adv-x="571" d="M536 0V154H497V39H148V333H483V373H148V661H483V546H522V700H35V661H107V39H35V0H536Z" />
<glyph unicode="F" horiz-adv-x="557" d="M236 0V39H148V333H483V373H148V661H483V546H522V700H35V661H107V39H35V0H236Z" />
<glyph unicode="G" horiz-adv-x="609" d="M574 40V298H388V259H533V64Q501 47 465 38T390 29Q325 29 268 54T169 123Q126 165 101 223T76 346Q76 412 101 470T169 572Q212 616 269 641T392 667Q436 667 476 656T552 622L575 656Q534 680 489 693T392 706Q318 706
253 678T140 601Q91 552 63 487T35 347Q35 273 63 208T140 95Q188 46 253 18T392 -10Q443 -10 488 3T574 40Z" />
<glyph unicode="H" horiz-adv-x="738" d="M236 0V39H154V333H584V39H502V0H703V39H625V661H703V700H502V661H584V373H154V661H236V700H35V661H113V39H35V0H236Z" />
<glyph unicode="I" horiz-adv-x="271" d="M236 0V39H154V661H236V700H35V661H113V39H35V0H236Z" />
<glyph unicode="J" horiz-adv-x="277" d="M182 -81Q210 -51 226 -9T242 90V700H35V661H201V93Q201 47 189 12T154 -48Q132 -74 102 -87T35 -103V-143Q78 -142 116 -126T182 -81Z" />
<glyph unicode="K" horiz-adv-x="686" d="M236 0V39H153V311L240 394Q310 305 379 217T519 39H458V0H651V39H569Q494 135 419 230T268 421L520 661H606V700H413V661H466L170 377L151 356Q152 364 152 371T153 386V661H228V700H35V661H112V39H35V0H236Z" />
<glyph unicode="L" horiz-adv-x="568" d="M533 0V154H494V39H145V661H228V700H35V661H104V39H35V0H533Z" />
<glyph unicode="M" horiz-adv-x="967" d="M236 0V39H157V577Q157 586 157 596T155 616Q161 607 164 603T174 589L482 188L781 578Q789 589 795 597T809 616Q808 604 808 597T807 577V39H731V0H932V39H848V661H929V700H824Q738 589 653 478T482 255Q408 350 318
467T140 700H35V661H116V39H35V0H236Z" />
<glyph unicode="N" horiz-adv-x="846" d="M727 661H811V700H610V661H686V92L689 60L670 86L143 700H35V661H116V39H35V0H236V39H157V602L155 631L173 608L727 -32V661Z" />
<glyph unicode="O" horiz-adv-x="786" d="M646 97Q694 145 722 210T751 349Q751 423 723 488T646 603Q597 651 532 679T392 708Q318 708 253 680T140 603Q91 554 63 489T35 349Q35 275 63 210T140 97Q188 48 253 20T392 -8Q466 -8 531 20T646 97ZM169 125Q126
167 101 225T76 348Q76 414 101 472T169 574Q212 617 269 642T392 668Q458 668 515 643T617 574Q660 530 685 473T710 349Q710 283 685 226T617 125Q573 81 515 56T390 31Q326 31 269 56T169 125Z" />
<glyph unicode="P" horiz-adv-x="495" d="M236 0V39H137V330H248Q350 330 405 380T460 517Q460 566 438 601T384 658Q352 680 315 690T246 700H35V661H96V39H35V0H236ZM137 661H242Q280 661 312 649T369 618Q392 598 405 572T419 517Q419 493 411 467T383 420Q362
398 328 384T241 369H137V661Z" />
<glyph unicode="Q" horiz-adv-x="808" d="M169 125Q126 167 101 225T76 348Q76 414 101 472T169 574Q212 618 269 643T392 669Q458 669 515 644T616 574Q659 531 684 473T710 349Q710 283 685 225T616 125Q572 82 514 57T390 31Q325 31 268 56T169 125ZM466 0H773V39H559Q599
59 633 88T692 155Q720 196 735 245T751 349Q751 423 723 488T646 603Q597 651 532 679T392 708Q318 708 253 680T140 603Q91 554 63 489T35 349Q35 275 63 210T140 97Q188 48 253 20T392 -8Q410 -8 428 -6T466 0Z" />
<glyph unicode="R" horiz-adv-x="572" d="M236 0V39H137V330H221Q234 330 244 330T267 332L424 0H537V39H449L310 335Q383 350 421 398T460 517Q460 566 438 601T384 658Q352 680 315 690T246 700H35V661H96V39H35V0H236ZM137 661H242Q280 661 312 649T369 618Q392
598 405 572T419 517Q419 493 411 467T383 420Q362 398 328 384T241 369H137V661Z" />
<glyph unicode="S" horiz-adv-x="478" d="M393 45Q421 70 437 106T454 186Q453 255 426 293T357 352Q314 373 266 385T178 415Q144 430 122 454T100 524Q100 551 108 576T134 621Q151 641 177 653T240 665Q281 665 311 656T361 634V546H401V654Q382 669 361 679T319
695Q298 700 278 702T241 704Q191 704 156 688T99 644Q77 617 68 584T59 517Q61 468 81 439T132 392Q162 375 198 364T270 342Q300 331 326 320T373 288Q392 271 402 245T413 184Q413 149 398 121T360 72Q335 53 304 42T239 31Q183 31 143 49T76 92V182H36V75Q47
62 66 48T112 21Q137 8 170 0T243 -8Q286 -8 325 5T393 45Z" />
<glyph unicode="T" horiz-adv-x="623" d="M410 0V39H332V661H549V546H588V700H35V546H74V661H291V39H209V0H410Z" />
<glyph unicode="U" horiz-adv-x="696" d="M515 52Q547 81 565 125T584 226V661H661V700H460V661H543V229Q543 181 528 145T487 83Q461 57 425 44T348 31Q305 31 269 44T208 83Q182 108 168 144T153 229V661H236V700H35V661H112V226Q112 169 130 125T179 52Q211
22 254 7T348 -8Q398 -8 441 7T515 52Z" />
<glyph unicode="V" horiz-adv-x="831" d="M706 661H796V700H595V661H664Q604 516 544 374T422 88L413 59L404 88Q343 231 283 373T161 661H236V700H35V661H119Q192 486 266 314T413 -32Q486 142 559 314T706 661Z" />
<glyph unicode="W" horiz-adv-x="1204" d="M493 155Q521 219 548 285T599 412L608 385L785 -32Q859 142 932 314T1079 661H1169V700H968V661H1037Q976 516 916 374T794 88L785 59L776 88Q714 231 654 373T534 661H608V700H408V661H492Q514 609 535 559T578 457Q553
397 527 337T476 215Q459 176 443 135T413 59L404 88Q342 231 282 373T161 661H236V700H35V661H119Q192 486 266 314T413 -32Q433 14 452 61T493 155Z" />
<glyph unicode="X" horiz-adv-x="704" d="M236 0V39H168Q210 106 253 172T339 305L349 324Q358 311 365 298T381 271L532 39H468V0H669V39H583Q532 119 481 196T378 354Q428 431 476 507T575 661H669V700H468V661H526L363 408L353 389L343 408Q302 471 261 533T178
661H236V700H35V661H129L324 359L119 39H35V0H236Z" />
<glyph unicode="Y" horiz-adv-x="746" d="M475 0V39H397V265Q456 364 515 462T632 661H711V700H510V661H582L385 329L374 301H373L361 329Q312 412 263 494T162 661H236V700H35V661H112Q172 562 230 463T349 265V39H275V0H475Z" />
<glyph unicode="Z" horiz-adv-x="629" d="M594 0V201H555V40H87L565 661V700H94V735H52V661H513L35 40V0H594Z" />
<glyph unicode="[" horiz-adv-x="338" d="M257 -149V-109H125V706H257V746H83V-149H257Z" />
<glyph unicode="\" horiz-adv-x="345" d="M334 -19Q264 171 195 358T56 736H10Q80 546 149 359T288 -19H334Z" />
<glyph unicode="]" horiz-adv-x="342" d="M251 -149V746H77V706H209V-109H77V-149H251Z" />
<glyph unicode="^" horiz-adv-x="470" d="M145 479Q167 509 188 540T232 601Q254 571 275 540T319 479H352Q322 524 292 569T232 660Q202 615 172 570T112 479H145Z" />
<glyph unicode="_" horiz-adv-x="600" d="M500 0V40H100V0H500Z" />
<glyph unicode="`" horiz-adv-x="200" d="M104 479Q81 512 59 545T14 612H-28Q-3 579 21 546T71 479H104Z" />
<glyph unicode="a" horiz-adv-x="538" d="M503 0V39H429V375H396Q394 353 393 331T392 287Q375 326 333 354T232 383Q190 383 155 368T92 326Q65 299 50 263T35 188Q35 147 50 112T92 50Q119 23 154 8T232 -7Q262 -7 288 1T336 23Q356 36 370 52T392 87Q392 74
392 64T392 41V0H503ZM232 343Q264 343 292 332T342 299Q363 278 375 250T388 188Q388 155 376 127T341 77Q320 56 292 45T232 33Q200 33 173 44T125 75Q102 96 89 125T76 188Q76 220 87 248T120 297Q140 319 169 331T232 343Z" />
<glyph unicode="b" horiz-adv-x="538" d="M35 0H146V41Q146 53 146 63T146 87Q152 69 167 53T203 23Q223 9 249 1T306 -7Q347 -7 383 8T446 50Q472 77 487 112T503 188Q503 228 488 264T446 326Q419 352 383 367T306 383Q277 383 251 375T204 354Q183 340 169
324T149 290Q150 305 150 313T150 337V750H39V711H109V39H35V0ZM306 343Q338 343 366 332T415 300Q437 279 449 250T461 188Q461 155 449 127T417 78Q395 57 367 45T306 33Q274 33 246 44T197 77Q175 98 163 126T150 188Q150 220 161 248T194 297Q215 319 243 331T306
343Z" />
<glyph unicode="c" horiz-adv-x="391" d="M355 36L329 67Q309 51 284 42T231 33Q199 33 171 45T122 77Q100 98 88 126T76 188Q76 221 88 249T123 300Q143 320 171 331T231 343Q256 343 278 336T318 316V242H356V340Q331 360 299 371T231 383Q190 383 155 368T92
326Q65 300 50 264T35 188Q35 147 50 112T93 50Q119 23 154 8T231 -7Q267 -7 298 4T355 36Z" />
<glyph unicode="d" horiz-adv-x="538" d="M503 0V39H429V750H317V711H388V379Q388 352 388 335T389 291Q381 308 368 324T334 354Q313 367 287 375T232 383Q190 383 155 368T92 326Q65 300 50 264T35 188Q35 147 50 112T92 50Q119 23 154 8T232 -7Q262 -7 288
1T336 23Q356 36 370 52T392 87Q392 74 392 64T392 41V0H503ZM232 343Q263 343 291 332T340 301Q362 280 375 251T388 188Q388 155 376 126T341 77Q319 56 292 45T232 33Q199 33 172 44T123 77Q101 97 89 126T76 188Q76 220 88 248T121 298Q142 319 170 331T232
343Z" />
<glyph unicode="e" horiz-adv-x="441" d="M231 343Q270 343 301 322T351 266Q283 239 216 213T80 159Q73 193 81 225T109 284Q130 311 161 327T231 343ZM362 45L337 75Q316 55 289 44T231 33Q184 33 147 57T92 120Q170 152 247 182T403 243Q393 273 377 298T340
342Q318 362 290 372T231 383Q190 383 155 368T92 326Q65 300 50 264T35 188Q35 147 50 112T92 50Q119 23 154 8T231 -7Q270 -7 303 7T362 45Z" />
<glyph unicode="f" horiz-adv-x="303" d="M228 0V39H137V335H262V375H137V519Q137 564 150 599T186 659Q208 684 238 697T303 711V750Q259 748 222 733T156 688Q128 659 112 616T96 518V375H35V335H96V39H35V0H228Z" />
<glyph unicode="g" horiz-adv-x="538" d="M85 -192Q113 -219 151 -234T238 -250Q278 -249 312 -234T373 -190Q399 -163 414 -124T429 -34V336H503V375H396Q394 352 393 331T392 287Q374 327 331 355T232 383Q190 383 155 368T92 326Q65 299 50 263T35 188Q35 147
50 112T92 51Q119 24 154 9T232 -7Q261 -7 287 0T334 22Q353 34 367 50T389 85Q389 72 389 60T388 38V-32Q388 -71 376 -103T344 -159Q323 -183 296 -195T237 -208Q201 -208 168 -195T114 -159L85 -192ZM232 343Q263 343 291 332T340 301Q362 279 375 250T388 188Q388
155 376 127T343 79Q322 58 294 46T232 33Q199 33 171 44T122 77Q101 98 89 126T76 188Q76 220 87 247T120 296Q140 318 169 330T232 343Z" />
<glyph unicode="h" horiz-adv-x="545" d="M228 0V39H154V205Q154 235 166 260T201 304Q221 322 249 332T308 342Q350 340 371 317T395 260V39H317V0H510V39H436V271Q434 321 402 352T315 383Q258 382 215 354T151 278L154 323V750H39V711H113V39H35V0H228Z" />
<glyph unicode="i" horiz-adv-x="263" d="M228 0V39H153V375H35V336H112V39H35V0H228ZM166 508Q166 522 156 531T133 541Q121 541 111 532T101 508Q101 494 111 485T133 475Q146 475 156 484T166 508Z" />
<glyph unicode="j" horiz-adv-x="184" d="M149 -4V375H35V336H108V-6Q108 -53 94 -89T53 -151L83 -180Q114 -151 131 -107T149 -4ZM162 508Q162 522 152 531T130 541Q117 541 107 532T97 508Q97 494 107 485T130 475Q142 475 152 484T162 508Z" />
<glyph unicode="k" horiz-adv-x="503" d="M35 0H228V39H150V139L214 200Q242 159 272 120T332 39H283V0H468V39H381Q346 86 312 132T244 227Q276 257 301 281T357 336H430V375H245V336H306L150 190V750H38V711H109V39H35V0Z" />
<glyph unicode="l" horiz-adv-x="263" d="M228 0V39H150V750H38V711H109V39H35V0H228Z" />
<glyph unicode="m" horiz-adv-x="827" d="M228 0V39H154V205Q154 235 166 260T201 304Q221 322 249 332T308 342Q350 340 371 317T395 260V39H317V0H510V39H436V209Q437 238 450 262T484 305Q505 322 532 332T590 342Q632 340 653 317T677 260V39H600V0H792V39H718V271Q716
321 685 352T597 383Q542 382 500 355T435 283Q430 328 398 355T315 383Q258 382 215 354T151 278Q150 295 149 308T147 339L146 375H41V336H113V39H35V0H228Z" />
<glyph unicode="n" horiz-adv-x="545" d="M228 0V39H154V205Q154 235 166 260T201 304Q221 322 249 332T308 342Q350 340 371 317T395 260V39H317V0H510V39H436V271Q434 321 402 352T315 383Q259 383 215 354T151 278Q150 295 149 308T147 339L146 375H41V336H113V39H35V0H228Z"
/>
<glyph unicode="o" horiz-adv-x="465" d="M373 50Q399 77 414 112T430 188Q430 228 415 264T373 327Q346 353 310 368T232 384Q191 384 155 369T93 327Q66 300 51 264T36 188Q36 147 51 112T93 50Q119 23 154 8T232 -7Q273 -7 309 8T373 50ZM122 79Q101 99 89
127T77 188Q77 220 89 248T122 298Q143 319 171 331T231 343Q263 343 291 331T341 298Q363 276 375 248T387 188Q387 155 375 127T341 79Q320 57 292 45T231 33Q199 33 171 45T122 79Z" />
<glyph unicode="p" horiz-adv-x="538" d="M43 -250H236V-211H151V45Q151 54 151 63T150 83Q157 65 170 50T205 21Q225 7 251 0T307 -8Q347 -8 383 7T446 49Q473 75 488 111T503 187Q503 227 488 262T446 325Q419 352 383 367T307 382Q247 382 205 353T146 285Q146
307 145 329T143 375H35V336H110V-211H43V-250ZM307 342Q338 342 366 331T415 300Q437 279 449 250T462 187Q462 154 450 125T415 75Q394 55 366 44T307 32Q274 32 246 43T197 75Q175 97 163 125T151 187Q151 219 162 247T195 297Q216 318 244 330T307 342Z" />
<glyph unicode="q" horiz-adv-x="539" d="M497 -250V-211H429V336H504V375H396Q395 352 394 329T392 285Q374 326 333 354T232 382Q190 382 155 367T92 325Q65 298 50 263T35 187Q35 147 50 111T92 49Q119 23 154 8T232 -8Q261 -8 287 -1T334 20Q354 33 367 49T389
83Q388 72 388 62T387 42V-211H304V-250H497ZM232 342Q264 342 292 331T342 299Q363 277 375 249T388 187Q388 154 376 126T343 77Q321 56 293 44T232 32Q200 32 173 43T124 74Q102 96 89 124T76 187Q76 220 88 248T122 298Q142 318 170 330T232 342Z" />
<glyph unicode="r" horiz-adv-x="343" d="M228 0V39H154V205Q154 236 167 262T203 306Q223 323 249 332T306 342L308 383Q285 382 263 375T219 355Q197 342 180 323T151 278Q150 295 150 300T149 322L146 375H41V336H113V39H35V0H228Z" />
<glyph unicode="s" horiz-adv-x="322" d="M264 32Q278 48 284 67T291 105Q291 137 278 156T244 187Q223 199 200 206T155 223Q135 231 121 243T106 278Q106 295 112 307T127 327Q137 334 150 337T177 341Q194 341 209 337T238 325V273H276V346Q266 355 254 361T229
373Q213 378 201 379T176 381Q158 381 137 375T100 355Q84 342 75 323T65 277Q65 244 78 226T113 197Q134 187 158 180T202 164Q223 156 236 142T249 102Q249 84 243 72T225 50Q213 41 199 37T170 32Q148 32 128 35T89 51V102H52V29Q75 7 105 0T168 -8Q202 -8 225
3T264 32Z" />
<glyph unicode="t" horiz-adv-x="314" d="M245 0V39H163V335H279V375H163V619H122V375H35V335H122V0H245Z" />
<glyph unicode="u" horiz-adv-x="538" d="M394 97V52L396 0H503V36H432V375H317V336H391V170Q391 140 379 115T345 72Q323 53 296 43T237 33Q195 35 174 58T150 115V375H35V336H109V104Q111 54 143 23T230 -8Q285 -8 329 20T394 97Z" />
<glyph unicode="v" horiz-adv-x="588" d="M480 336H553V375H378V336H437Q400 263 363 191T296 52Q263 123 227 194T154 336H220V375H35V336H112Q158 245 204 156T296 -23Q342 67 388 156T480 336Z" />
<glyph unicode="w" horiz-adv-x="848" d="M430 247L565 -23Q610 67 655 156T745 336H813V375H645V336H703Q667 264 633 194T565 52Q532 123 498 193T427 336H493V375H309V336H380L410 276Q381 221 354 167T295 52Q264 117 228 190T155 336H214V375H35V336H114Q159
245 203 156T293 -23L430 247Z" />
<glyph unicode="x" horiz-adv-x="503" d="M219 0V39H160Q181 69 202 98T245 159Q267 129 288 100T333 39H275V0H468V39H384Q357 75 332 110T280 181L391 336H468V375H284V336H342L254 213L165 336H228V375H35V336H115Q141 299 167 264T220 193Q192 154 165 116T109
39H35V0H219Z" />
<glyph unicode="y" horiz-adv-x="601" d="M285 -250V-211H221Q289 -73 357 62T493 336H566V375H391V336H449Q411 260 374 185T303 37Q268 112 231 186T156 336H220V375H35V336H112Q154 250 196 166T281 -2Q255 -54 229 -106T177 -211H92V-250H285Z" />
<glyph unicode="z" horiz-adv-x="431" d="M396 0V94H359V40H92Q167 116 233 187T377 335V375H84V410H47V336H320Q244 258 177 188T35 40V0H396Z" />
<glyph unicode="{" horiz-adv-x="291" d="M255 -148V-108H203Q189 -108 180 -104T164 -90Q156 -78 154 -56T151 0V142Q151 182 145 208T130 253Q120 271 109 281T85 299Q97 305 108 315T130 343Q139 361 145 388T151 456V597Q151 633 154 655T166 690Q172 699
181 702T203 706H255V746H208Q188 746 171 745T139 733Q126 722 118 698T109 628V456Q109 436 106 413T94 369Q85 349 70 336T30 321V275Q54 274 69 261T94 227Q103 207 106 184T109 140V-8Q109 -63 115 -91T135 -132Q148 -145 167 -146T208 -148H255Z" />
<glyph unicode="|" horiz-adv-x="239" d="M137 -232V700H96V-232H137Z" />
<glyph unicode="}" horiz-adv-x="320" d="M112 -148Q132 -148 149 -147T181 -136Q194 -125 202 -101T211 -30V118Q211 136 212 162T222 213Q230 238 245 255T290 275V321Q268 322 254 333T230 362Q216 388 214 422T211 478V628Q211 674 203 698T181 733Q167 743
149 744T112 746H65V706H117Q132 706 141 702T157 686Q164 674 166 653T169 597V456Q169 415 175 388T190 343Q199 326 211 316T235 299Q226 293 215 284T193 258Q183 243 176 220T169 165V0Q169 -33 167 -55T156 -89Q150 -100 141 -104T117 -108H65V-148H112Z"
/>
<glyph unicode="~" horiz-adv-x="489" d="M395 473Q407 482 415 496T425 530L399 532Q397 516 391 507T375 491Q366 485 356 483T339 481Q325 481 313 486T285 509Q269 526 252 535T213 545Q199 545 185 541T158 527Q145 518 137 504T128 470L153 468Q155 482
160 491T174 506Q184 513 195 516T214 519Q228 519 239 514T267 491Q283 475 300 465T339 455Q354 455 368 459T395 473Z" />
<glyph unicode="&#xa0;" horiz-adv-x="300" />
<glyph unicode="&#xa1;" horiz-adv-x="200" d="M132 485Q132 471 122 462T100 453Q88 453 78 462T68 485Q68 499 78 508T100 518Q112 518 122 509T132 485ZM120 374V-210H79V374H120Z" />
<glyph unicode="&#xa2;" horiz-adv-x="385" d="M242 -68V-6Q275 -4 303 6T356 36L330 67Q313 52 290 44T242 34V342Q264 341 283 335T319 316V241H357V340Q333 359 304 370T242 383V438H201V380Q166 374 136 358T83 315Q61 290 49 258T36 188Q36 151 48 119T83
61Q105 36 135 19T201 -3V-68H242ZM77 188Q77 217 86 242T112 287Q129 306 151 319T201 337V38Q176 42 155 53T118 82Q98 103 88 130T77 188Z" />
<glyph unicode="&#xa3;" horiz-adv-x="574" d="M510 0V145H468V40H142Q157 54 161 77T165 130V296H289V336H165V494Q165 517 172 535T197 567Q214 580 239 587T303 594Q332 594 354 589T390 575Q405 566 415 553T436 523L467 541Q447 581 409 607T301 634Q216
634 170 602T123 500V336H58V296H123V171Q123 132 122 107T114 67Q109 52 99 46T71 40H27V0H510Z" />
<glyph unicode="&#xa4;" horiz-adv-x="500" d="M145 361Q145 382 153 401T176 434Q189 447 208 455T247 464Q268 464 286 456T318 435Q333 421 341 402T350 361Q350 339 342 321T320 288Q306 274 287 266T247 258Q227 258 209 266T177 287Q162 301 154 320T145
361ZM164 245Q181 232 202 225T247 218Q271 218 292 225T331 246L366 211L395 240L361 275Q375 293 383 315T391 361Q391 384 384 405T363 445L395 476L366 506L333 473Q316 487 294 495T247 504Q223 504 201 496T161 474L129 506L100 477L132 444Q119 427 112
406T104 361Q104 337 111 315T134 274L100 239L129 210L164 245Z" />
<glyph unicode="&#xa5;" horiz-adv-x="638" d="M234 0H434V39H357V112H499V152H357V263H499V303H379L592 661H670V700H469V661H541L344 329L333 301H332L320 329L121 661H195V700H-6V661H71L285 303H166V263H308V152H166V112H308V39H234V0Z" />
<glyph unicode="&#xa6;" horiz-adv-x="215" d="M130 -233V117H89V-233H130ZM130 350V700H89V350H130Z" />
<glyph unicode="&#xa7;" horiz-adv-x="500" d="M181 330Q177 343 177 355T179 379Q182 393 191 405T212 426Q224 435 238 438T269 439Q285 436 298 427T321 404Q331 391 334 375T334 340Q331 326 323 314T301 294Q289 285 275 282T245 280Q224 284 207 296T181
330ZM283 9Q297 19 306 32T315 65Q315 80 307 103T282 155L229 244Q241 240 253 238T279 238Q300 240 318 250T349 275Q364 293 372 314T381 358Q381 376 377 391T364 421L275 571Q261 597 254 614T246 645Q246 658 253 666T272 683Q284 690 294 695T316 708Q310
716 306 725T295 743Q280 734 264 726T233 706Q219 696 210 683T200 653Q200 641 207 621T227 575Q239 551 254 525T284 473Q272 478 260 479T234 480Q212 477 195 468T164 443Q149 426 142 404T134 360Q134 341 140 323T157 286L236 152Q252 124 260 104T269 71Q269
59 262 50T244 34Q232 27 222 22T200 9Q206 1 210 -8T221 -26Q236 -18 252 -10T283 9Z" />
<glyph unicode="&#xa8;" horiz-adv-x="370" d="M299 508Q299 522 289 531T267 541Q254 541 244 532T234 508Q234 494 244 485T267 475Q279 475 289 484T299 508ZM134 508Q134 522 124 531T101 541Q89 541 79 532T69 508Q69 494 79 485T101 475Q114 475 124 484T134 508Z" />
<glyph unicode="&#xa9;" horiz-adv-x="793" d="M234 205Q202 237 184 279T166 371Q166 422 184 465T234 540Q266 572 308 589T399 607Q448 607 491 590T566 540Q598 508 616 465T634 371Q634 322 616 280T566 205Q534 173 491 156T399 138Q351 138 309 155T234
205ZM584 188Q618 223 638 270T658 372Q658 428 638 475T584 557Q548 591 501 610T400 630Q346 630 299 611T217 557Q182 523 162 476T142 372Q142 317 162 270T217 188Q252 154 299 135T400 115Q454 115 501 134T584 188ZM501 236L490 251Q475 242 457 237T418
231Q388 231 363 242T317 273Q298 293 287 319T276 374Q276 404 287 430T318 477Q337 497 363 508T419 520Q436 520 452 516T483 504V464H502V515Q483 526 462 531T419 537Q386 537 357 525T305 490Q283 468 270 438T256 374Q256 342 269 312T304 260Q326 238 356
226T419 213Q442 213 462 219T501 236Z" />
<glyph unicode="&#xaa;" horiz-adv-x="585" d="M421 306V334H368V576H344Q342 560 342 545T341 513Q329 541 298 561T225 582Q196 582 170 571T125 541Q105 522 94 496T83 442Q83 412 94 387T125 343Q144 323 170 312T225 301Q247 301 266 307T300 322Q315 331
325 343T341 368Q341 360 341 352T341 335V306H421ZM225 554Q248 554 268 546T305 522Q320 507 329 486T338 442Q338 417 329 397T304 361Q288 346 268 338T225 330Q201 330 181 338T146 362Q131 377 122 397T113 442Q113 464 121 484T145 520Q159 536 180 545T225
554Z" />
<glyph unicode="&#xab;" horiz-adv-x="601" d="M288 239L459 77V124Q431 153 403 181T347 239Q375 268 403 296T459 353V400Q416 359 374 320T288 239ZM117 239L288 77V124Q260 153 232 181T176 239Q204 268 232 296T288 352V400Q245 359 203 320T117 239Z" />
<glyph unicode="&#xac;" horiz-adv-x="559" d="M460 148V244H100V212H419V148H460Z" />
<glyph unicode="&#xad;" horiz-adv-x="300" d="M237 170V210H53V170H237Z" />
<glyph unicode="&#xae;" horiz-adv-x="801" d="M234 205Q202 237 184 279T166 371Q166 422 184 465T234 540Q266 572 308 589T399 607Q448 607 491 590T566 540Q598 508 616 465T634 371Q634 322 616 280T566 205Q534 173 491 156T399 138Q351 138 309 155T234
205ZM584 188Q618 223 638 270T658 372Q658 428 638 475T584 557Q548 591 501 610T400 630Q346 630 299 611T217 557Q182 523 162 476T142 372Q142 317 162 270T217 188Q252 154 299 135T400 115Q454 115 501 134T584 188ZM401 210V229H355V366H394Q400 366 405
366T416 367L490 210H543V229H502L437 369Q471 376 489 398T507 455Q507 477 497 493T471 521Q455 532 438 536T406 541H307V522H335V229H307V210H401ZM355 522H404Q440 522 464 502T488 455Q488 443 484 431T471 409Q461 398 445 392T404 385H355V522Z" />
<glyph unicode="&#xaf;" horiz-adv-x="399" d="M315 487V516H85V487H315Z" />
<glyph unicode="&#xb0;" horiz-adv-x="282" d="M81 560Q81 571 85 581T97 600Q105 607 115 612T138 617Q150 617 160 613T178 600Q186 592 190 582T195 560Q195 547 191 537T177 519Q170 512 160 508T138 503Q127 503 118 507T100 517Q91 525 86 536T81 560ZM223
559Q223 579 216 595T196 622Q185 633 170 639T138 645Q121 645 106 640T79 623Q66 612 59 596T51 559Q51 541 58 525T78 498Q89 487 104 481T138 475Q155 475 170 481T197 498Q209 509 216 525T223 559Z" />
<glyph unicode="&#xb1;" horiz-adv-x="524" d="M287 211V371H446V412H287V571H245V412H86V371H245V211H287ZM446 122V162H86V122H446Z" />
<glyph unicode="&#xb2;" horiz-adv-x="398" d="M308 375V447H289V395H152Q176 420 200 445T243 496Q262 522 274 548T287 601Q287 622 281 640T262 671Q249 685 232 692T194 700Q172 700 154 693T124 672Q112 658 107 641T101 604Q101 584 108 567T128 537L141
549Q131 560 126 573T121 604Q121 615 124 628T136 653Q144 665 158 672T194 680Q205 680 218 676T241 662Q252 651 259 636T267 595Q267 572 253 546T216 492Q193 464 164 435T103 375H308Z" />
<glyph unicode="&#xb3;" horiz-adv-x="419" d="M237 407Q251 420 259 438T268 479Q268 499 260 516T240 548Q227 561 210 569T172 579L259 700H100V651H120V680H223L133 551Q140 556 147 558T163 561Q180 561 195 555T223 537Q234 526 240 511T247 479Q247 462
241 447T223 421Q211 409 196 403T163 396Q145 396 130 404T103 424L89 410Q103 394 122 385T164 376Q185 376 203 384T237 407Z" />
<glyph unicode="&#xb4;" horiz-adv-x="240" d="M133 479Q158 512 182 545T233 612H190Q167 579 145 546T100 479H133Z" />
<glyph unicode="&#xb5;" horiz-adv-x="545" d="M144 -201V29Q157 12 177 2T224 -8Q280 -8 324 20T389 97V52L390 0H498V36H427V375H312V336H386V170Q386 140 373 115T339 72Q318 53 290 43T231 33Q190 35 168 58T144 115V375H29V336H103V-201H144Z" />
<glyph unicode="&#xb6;" horiz-adv-x="534" d="M242 0V714H364V0H498V36H405V714H498V750H201Q167 750 137 737T85 702Q63 680 51 650T38 586Q38 552 50 522T85 470Q107 448 137 436T201 423V0H242Z" />
<glyph unicode="&#xb7;" horiz-adv-x="165" d="M118 281Q118 294 108 303T86 313Q73 313 63 304T53 281Q53 267 63 258T86 248Q98 248 108 257T118 281Z" />
<glyph unicode="&#xb8;" horiz-adv-x="452" d="M300 -133Q300 -115 291 -96T259 -61Q247 -52 233 -43T218 -6V0H189V-23Q189 -42 201 -52T229 -73Q243 -83 255 -96T267 -135Q267 -163 250 -182T205 -201Q182 -201 166 -189T145 -157Q138 -160 131 -163T118 -169Q129
-201 153 -217T208 -234Q248 -234 274 -209T300 -133Z" />
<glyph unicode="&#xb9;" horiz-adv-x="258" d="M169 385V403H131V700H65V681H111V403H73V385H169Z" />
<glyph unicode="&#xba;" horiz-adv-x="469" d="M334 343Q353 362 364 387T375 442Q375 470 364 496T334 542Q315 561 289 572T232 583Q202 583 177 572T132 542Q113 522 102 496T91 442Q91 412 102 387T132 343Q151 323 176 312T232 301Q262 301 288 312T334 343ZM153
363Q137 377 129 397T120 442Q120 464 128 484T153 521Q168 536 188 545T232 554Q255 554 275 545T311 521Q327 505 335 485T344 442Q344 418 336 398T311 363Q296 347 276 339T232 330Q208 330 188 338T153 363Z" />
<glyph unicode="&#xbb;" horiz-adv-x="601" d="M288 239L117 77V124Q145 153 173 181T229 239Q201 268 173 296T117 353V400Q160 359 202 320T288 239ZM459 239L288 77V124Q316 153 344 181T400 239Q372 268 344 296T288 352V400Q331 359 373 320T459 239Z" />
<glyph unicode="&#xbc;" horiz-adv-x="968" d="M321 -19Q391 171 460 358T599 735H558Q488 545 419 358T280 -19H321ZM835 0V29H773V136H845V167H773V490L501 136H743V29H686V0H835ZM743 400V167H564L743 400ZM285 234V262H228V695H131V667H199V262H142V234H285Z" />
<glyph unicode="&#xbd;" horiz-adv-x="1069" d="M275 234V262H218V695H121V667H188V262H132V234H275ZM866 0V103H838V28H645Q678 64 712 100T774 174Q801 211 819 248T837 324Q837 354 828 380T800 425Q783 444 759 455T704 466Q672 466 647 455T605 425Q587 406
579 381T570 328Q570 299 580 274T609 232L627 250Q614 265 607 284T599 328Q599 344 603 363T620 399Q632 415 652 426T704 437Q720 437 738 431T772 411Q787 397 797 374T808 316Q808 282 788 245T736 168Q703 128 661 86T574 0H866ZM321 -19Q391 171 460 358T599
735H558Q488 545 419 358T280 -19H321Z" />
<glyph unicode="&#xbe;" horiz-adv-x="1276" d="M381 247Q403 269 415 298T428 361Q428 393 417 420T385 469Q364 489 337 502T278 517L415 708H166V631H196V676H358L216 474Q227 482 239 485T264 489Q291 489 315 479T357 452Q375 435 385 412T396 361Q396 334
386 311T357 269Q340 251 316 241T265 231Q236 231 212 243T171 275L148 252Q170 228 200 214T265 200Q299 200 328 212T381 247ZM496 -19Q566 171 635 358T774 736H733Q663 546 594 359T455 -19H496ZM1034 0V29H972V136H1045V167H972V490L700 136H942V29H884V0H1034ZM942
400V167H762L942 400Z" />
<glyph unicode="&#xbf;" horiz-adv-x="426" d="M224 375V297Q224 266 217 248T196 216Q182 204 166 194T132 171Q87 139 61 98T34 2Q34 -38 49 -73T91 -135Q117 -162 153 -177T230 -193Q270 -193 301 -181T357 -149Q380 -129 396 -104T421 -52Q412 -49 403 -46T385
-40Q377 -64 364 -84T333 -118Q313 -135 288 -144T230 -153Q198 -153 170 -142T121 -109Q100 -89 88 -61T76 2Q76 39 91 71T139 131Q163 150 185 164T226 193Q244 208 255 227T266 278V375H224ZM213 491Q213 477 223 468T245 458Q257 458 267 467T277 491Q277 505
267 514T245 524Q233 524 223 515T213 491Z" />
<glyph unicode="&#xc0;" horiz-adv-x="812" d="M228 0V39H154Q185 111 210 170T265 301H547Q575 235 602 170T658 39H585V0H777V39H700Q626 214 553 385T406 732Q333 557 259 386T112 39H35V0H228ZM396 612Q399 620 401 626T406 641L415 612L530 340H282Q310 407
339 475T396 612ZM419 750Q396 783 374 816T329 883H287Q312 850 336 817T386 750H419Z" />
<glyph unicode="&#xc1;" horiz-adv-x="812" d="M425 750Q450 783 474 816T525 883H482Q459 850 437 817T392 750H425ZM228 0V39H154Q185 111 210 170T265 301H547Q575 235 602 170T658 39H585V0H777V39H700Q626 214 553 385T406 732Q333 557 259 386T112 39H35V0H228ZM396
612Q399 620 401 626T406 641L415 612L530 340H282Q310 407 339 475T396 612Z" />
<glyph unicode="&#xc2;" horiz-adv-x="812" d="M319 750Q341 780 362 811T406 872Q428 842 449 811T493 750H526Q496 795 466 840T406 931Q376 886 346 841T286 750H319ZM228 0V39H154Q185 111 210 170T265 301H547Q575 235 602 170T658 39H585V0H777V39H700Q626
214 553 385T406 732Q333 557 259 386T112 39H35V0H228ZM396 612Q399 620 401 626T406 641L415 612L530 340H282Q310 407 339 475T396 612Z" />
<glyph unicode="&#xc3;" horiz-adv-x="812" d="M524 770Q536 779 544 793T554 827L528 829Q526 813 520 804T504 788Q495 782 485 780T468 778Q454 778 442 783T414 806Q398 823 381 832T342 842Q328 842 314 838T287 824Q274 815 266 801T257 767L282 765Q284
779 289 788T303 803Q313 810 324 813T343 816Q357 816 368 811T396 788Q412 772 429 762T468 752Q483 752 497 756T524 770ZM228 0V39H154Q185 111 210 170T265 301H547Q575 235 602 170T658 39H585V0H777V39H700Q626 214 553 385T406 732Q333 557 259 386T112
39H35V0H228ZM396 612Q399 620 401 626T406 641L415 612L530 340H282Q310 407 339 475T396 612Z" />
<glyph unicode="&#xc4;" horiz-adv-x="812" d="M521 798Q521 812 511 821T489 831Q476 831 466 822T456 798Q456 784 466 775T489 765Q501 765 511 774T521 798ZM356 798Q356 812 346 821T323 831Q311 831 301 822T291 798Q291 784 301 775T323 765Q336 765 346
774T356 798ZM228 0V39H154Q185 111 210 170T265 301H547Q575 235 602 170T658 39H585V0H777V39H700Q626 214 553 385T406 732Q333 557 259 386T112 39H35V0H228ZM396 612Q399 620 401 626T406 641L415 612L530 340H282Q310 407 339 475T396 612Z" />
<glyph unicode="&#xc5;" horiz-adv-x="812" d="M228 0V39H154Q185 111 210 170T265 301H547Q575 235 602 170T658 39H585V0H777V39H700Q626 214 553 385T406 732Q333 557 259 386T112 39H35V0H228ZM396 612Q399 620 401 626T406 641L415 612L530 340H282Q310 407
339 475T396 612ZM364 836Q364 853 376 865T407 878Q426 878 437 866T449 836Q449 818 437 806T407 793Q387 793 376 806T364 836ZM479 836Q479 852 473 865T456 889Q447 898 434 903T407 908Q390 908 377 902T354 885Q345 876 340 863T334 836Q334 820 340 807T357
783Q367 774 379 769T407 764Q421 764 434 769T456 783Q467 793 473 806T479 836Z" />
<glyph unicode="&#xc6;" horiz-adv-x="776" d="M228 0V39H155Q182 103 209 167T264 296H398V0H741V154H701V39H439V333H688V373H439V661H687V546H727V700H393Q322 534 253 370T113 39H35V0H228ZM398 620V335H280Q310 407 341 477T398 620Z" />
<glyph unicode="&#xc7;" horiz-adv-x="595" d="M479 -133Q479 -115 470 -96T439 -61Q428 -54 416 -47T399 -21Q398 -20 398 -17T397 -8Q447 -7 491 6T574 42L551 75Q515 54 475 43T390 31Q325 31 268 56T169 125Q126 167 101 225T76 348Q76 414 101 472T169 574Q212
618 269 643T392 669Q430 669 466 660T536 633V465H575V658Q534 682 489 695T392 708Q318 708 253 680T140 603Q91 554 63 489T35 349Q35 278 60 215T132 104Q177 56 238 27T369 -7V-23Q369 -42 381 -52T408 -73Q422 -83 434 -96T447 -135Q447 -163 430 -182T384
-201Q361 -201 346 -189T324 -157L297 -169Q308 -201 333 -217T387 -234Q427 -234 453 -208T479 -133Z" />
<glyph unicode="&#xc8;" horiz-adv-x="571" d="M536 0V154H497V39H148V333H483V373H148V661H483V546H522V700H35V661H107V39H35V0H536ZM310 750Q287 783 265 816T220 883H178Q203 850 227 817T277 750H310Z" />
<glyph unicode="&#xc9;" horiz-adv-x="571" d="M536 0V154H497V39H148V333H483V373H148V661H483V546H522V700H35V661H107V39H35V0H536ZM305 750Q330 783 354 816T405 883H362Q339 850 317 817T272 750H305Z" />
<glyph unicode="&#xca;" horiz-adv-x="571" d="M536 0V154H497V39H148V333H483V373H148V661H483V546H522V700H35V661H107V39H35V0H536ZM213 750Q235 780 256 811T300 872Q322 842 343 811T387 750H420Q390 795 360 840T300 931Q270 886 240 841T180 750H213Z" />
<glyph unicode="&#xcb;" horiz-adv-x="571" d="M536 0V154H497V39H148V333H483V373H148V661H483V546H522V700H35V661H107V39H35V0H536ZM409 798Q409 812 399 821T377 831Q364 831 354 822T344 798Q344 784 354 775T377 765Q389 765 399 774T409 798ZM244 798Q244
812 234 821T211 831Q199 831 189 822T179 798Q179 784 189 775T211 765Q224 765 234 774T244 798Z" />
<glyph unicode="&#xcc;" horiz-adv-x="271" d="M236 0V39H154V661H236V700H35V661H113V39H35V0H236ZM142 750Q119 783 97 816T52 883H10Q35 850 59 817T109 750H142Z" />
<glyph unicode="&#xcd;" horiz-adv-x="271" d="M236 0V39H154V661H236V700H35V661H113V39H35V0H236ZM158 750Q183 783 207 816T258 883H215Q192 850 170 817T125 750H158Z" />
<glyph unicode="&#xce;" horiz-adv-x="271" d="M236 0V39H154V661H236V700H35V661H113V39H35V0H236ZM48 750Q70 780 91 811T135 872Q157 842 178 811T222 750H255Q225 795 195 840T135 931Q105 886 75 841T15 750H48Z" />
<glyph unicode="&#xcf;" horiz-adv-x="271" d="M236 0V39H154V661H236V700H35V661H113V39H35V0H236ZM250 798Q250 812 240 821T218 831Q205 831 195 822T185 798Q185 784 195 775T218 765Q230 765 240 774T250 798ZM85 798Q85 812 75 821T52 831Q40 831 30 822T20
798Q20 784 30 775T52 765Q65 765 75 774T85 798Z" />
<glyph unicode="&#xd0;" horiz-adv-x="632" d="M211 0Q317 0 390 32T510 116Q556 167 576 229T597 350Q597 430 569 495T493 606Q445 651 381 675T245 700H35V661H98V372H44V332H98V39H35V0H211ZM139 332H346V372H139V661H245Q309 661 365 639T465 577Q508 536
532 479T557 350Q557 291 537 236T475 137Q434 93 372 67T226 40H139V332Z" />
<glyph unicode="&#xd1;" horiz-adv-x="808" d="M727 661H811V700H610V661H686V92L689 60L670 86L143 700H35V661H116V39H35V0H236V39H157V602L155 631L173 608L727 -32V661ZM526 766Q538 775 546 789T556 823L530 825Q528 809 522 800T506 784Q497 778 487 776T470
774Q456 774 444 779T416 802Q400 819 383 828T344 838Q330 838 316 834T289 820Q276 811 268 797T259 763L284 761Q286 775 291 784T305 799Q315 806 326 809T345 812Q359 812 370 807T398 784Q414 768 431 758T470 748Q485 748 499 752T526 766Z" />
<glyph unicode="&#xd2;" horiz-adv-x="786" d="M646 97Q694 145 722 210T751 349Q751 423 723 488T646 603Q597 651 532 679T392 708Q318 708 253 680T140 603Q91 554 63 489T35 349Q35 275 63 210T140 97Q188 48 253 20T392 -8Q466 -8 531 20T646 97ZM169 125Q126
167 101 225T76 348Q76 414 101 472T169 574Q212 617 269 642T392 668Q458 668 515 643T617 574Q660 530 685 473T710 349Q710 283 685 226T617 125Q573 81 515 56T390 31Q326 31 269 56T169 125ZM407 750Q384 783 362 816T317 883H275Q300 850 324 817T374 750H407Z"
/>
<glyph unicode="&#xd3;" horiz-adv-x="786" d="M646 97Q694 145 722 210T751 349Q751 423 723 488T646 603Q597 651 532 679T392 708Q318 708 253 680T140 603Q91 554 63 489T35 349Q35 275 63 210T140 97Q188 48 253 20T392 -8Q466 -8 531 20T646 97ZM169 125Q126
167 101 225T76 348Q76 414 101 472T169 574Q212 617 269 642T392 668Q458 668 515 643T617 574Q660 530 685 473T710 349Q710 283 685 226T617 125Q573 81 515 56T390 31Q326 31 269 56T169 125ZM427 750Q452 783 476 816T527 883H484Q461 850 439 817T394 750H427Z"
/>
<glyph unicode="&#xd4;" horiz-adv-x="786" d="M646 97Q694 145 722 210T751 349Q751 423 723 488T646 603Q597 651 532 679T392 708Q318 708 253 680T140 603Q91 554 63 489T35 349Q35 275 63 210T140 97Q188 48 253 20T392 -8Q466 -8 531 20T646 97ZM169 125Q126
167 101 225T76 348Q76 414 101 472T169 574Q212 617 269 642T392 668Q458 668 515 643T617 574Q660 530 685 473T710 349Q710 283 685 226T617 125Q573 81 515 56T390 31Q326 31 269 56T169 125ZM310 750Q332 780 353 811T397 872Q419 842 440 811T484 750H517Q487
795 457 840T397 931Q367 886 337 841T277 750H310Z" />
<glyph unicode="&#xd5;" horiz-adv-x="786" d="M646 97Q694 145 722 210T751 349Q751 423 723 488T646 603Q597 651 532 679T392 708Q318 708 253 680T140 603Q91 554 63 489T35 349Q35 275 63 210T140 97Q188 48 253 20T392 -8Q466 -8 531 20T646 97ZM169 125Q126
167 101 225T76 348Q76 414 101 472T169 574Q212 617 269 642T392 668Q458 668 515 643T617 574Q660 530 685 473T710 349Q710 283 685 226T617 125Q573 81 515 56T390 31Q326 31 269 56T169 125ZM516 779Q528 788 536 802T546 836L520 838Q518 822 512 813T496
797Q487 791 477 789T460 787Q446 787 434 792T406 815Q390 832 373 841T334 851Q320 851 306 847T279 833Q266 824 258 810T249 776L274 774Q276 788 281 797T295 812Q305 819 316 822T335 825Q349 825 360 820T388 797Q404 781 421 771T460 761Q475 761 489 765T516
779Z" />
<glyph unicode="&#xd6;" horiz-adv-x="786" d="M646 97Q694 145 722 210T751 349Q751 423 723 488T646 603Q597 651 532 679T392 708Q318 708 253 680T140 603Q91 554 63 489T35 349Q35 275 63 210T140 97Q188 48 253 20T392 -8Q466 -8 531 20T646 97ZM169 125Q126
167 101 225T76 348Q76 414 101 472T169 574Q212 617 269 642T392 668Q458 668 515 643T617 574Q660 530 685 473T710 349Q710 283 685 226T617 125Q573 81 515 56T390 31Q326 31 269 56T169 125ZM512 798Q512 812 502 821T480 831Q467 831 457 822T447 798Q447
784 457 775T480 765Q492 765 502 774T512 798ZM347 798Q347 812 337 821T314 831Q302 831 292 822T282 798Q282 784 292 775T314 765Q327 765 337 774T347 798Z" />
<glyph unicode="&#xd7;" horiz-adv-x="500" d="M263 113L377 0L406 29L293 143L406 255L377 284L264 171L152 284L122 254L235 142L122 29L151 0L263 113Z" />
<glyph unicode="&#xd8;" horiz-adv-x="786" d="M76 348Q76 414 101 472T169 574Q212 618 269 643T392 669Q444 669 491 653T578 606Q476 484 375 365T170 123Q127 166 102 223T76 348ZM198 98Q323 246 402 340T606 582Q654 538 682 478T710 349Q710 283 685 225T616
125Q572 82 514 57T390 31Q335 31 287 49T198 98ZM173 68Q218 32 274 12T392 -8Q466 -8 531 20T646 97Q694 145 722 210T751 349Q751 428 719 496T633 613Q649 632 664 650T696 687Q689 694 682 700T668 712Q652 693 637 675T605 637Q560 670 506 689T392 708Q318
708 253 680T140 603Q91 554 63 489T35 349Q35 273 64 207T144 92Q127 73 111 53T78 13Q85 7 92 1T106 -12Q123 8 139 28T173 68Z" />
<glyph unicode="&#xd9;" horiz-adv-x="696" d="M515 52Q547 81 565 125T584 226V661H661V700H460V661H543V229Q543 181 528 145T487 83Q461 57 425 44T348 31Q305 31 269 44T208 83Q182 108 168 144T153 229V661H236V700H35V661H112V226Q112 169 130 125T179 52Q211
22 254 7T348 -8Q398 -8 441 7T515 52ZM361 750Q338 783 316 816T271 883H229Q254 850 278 817T328 750H361Z" />
<glyph unicode="&#xda;" horiz-adv-x="696" d="M515 52Q547 81 565 125T584 226V661H661V700H460V661H543V229Q543 181 528 145T487 83Q461 57 425 44T348 31Q305 31 269 44T208 83Q182 108 168 144T153 229V661H236V700H35V661H112V226Q112 169 130 125T179 52Q211
22 254 7T348 -8Q398 -8 441 7T515 52ZM372 750Q397 783 421 816T472 883H429Q406 850 384 817T339 750H372Z" />
<glyph unicode="&#xdb;" horiz-adv-x="696" d="M515 52Q547 81 565 125T584 226V661H661V700H460V661H543V229Q543 181 528 145T487 83Q461 57 425 44T348 31Q305 31 269 44T208 83Q182 108 168 144T153 229V661H236V700H35V661H112V226Q112 169 130 125T179 52Q211
22 254 7T348 -8Q398 -8 441 7T515 52ZM263 750Q285 780 306 811T350 872Q372 842 393 811T437 750H470Q440 795 410 840T350 931Q320 886 290 841T230 750H263Z" />
<glyph unicode="&#xdc;" horiz-adv-x="696" d="M515 52Q547 81 565 125T584 226V661H661V700H460V661H543V229Q543 181 528 145T487 83Q461 57 425 44T348 31Q305 31 269 44T208 83Q182 108 168 144T153 229V661H236V700H35V661H112V226Q112 169 130 125T179 52Q211
22 254 7T348 -8Q398 -8 441 7T515 52ZM462 799Q462 813 452 822T430 832Q417 832 407 823T397 799Q397 785 407 776T430 766Q442 766 452 775T462 799ZM297 799Q297 813 287 822T264 832Q252 832 242 823T232 799Q232 785 242 776T264 766Q277 766 287 775T297
799Z" />
<glyph unicode="&#xdd;" horiz-adv-x="746" d="M475 0V39H397V265Q456 364 515 462T632 661H711V700H510V661H582L385 329L374 301H373L361 329Q312 412 263 494T162 661H236V700H35V661H112Q172 562 230 463T349 265V39H275V0H475ZM405 750Q430 783 454 816T505
883H462Q439 850 417 817T372 750H405Z" />
<glyph unicode="&#xde;" horiz-adv-x="505" d="M236 0V39H147V165H258Q360 165 415 215T470 352Q470 401 449 436T394 493Q362 515 325 525T256 535H147V661H228V700H35V661H106V39H35V0H236ZM147 496H252Q290 496 322 484T379 453Q402 433 415 407T429 352Q429
328 421 302T393 255Q372 233 338 219T251 204H147V496Z" />
<glyph unicode="&#xdf;" horiz-adv-x="549" d="M452 53Q480 81 497 119T514 200Q514 236 503 267T471 325Q453 347 430 363T378 389Q411 406 431 437T452 507Q452 538 440 565T408 613Q388 633 361 645T304 658Q265 656 230 641T168 595Q140 566 125 523T109 425V396H46V356H109V39H35V0H150V425Q150
470 162 505T196 566Q217 591 244 604T303 617Q325 617 345 609T379 586Q394 570 402 549T411 506Q411 461 379 434T303 407V366Q337 366 368 353T423 317Q446 294 459 264T473 200Q473 166 459 136T422 82Q399 59 368 45T302 31Q280 31 260 36T222 53L205 17Q226
5 251 -1T303 -8Q346 -8 384 8T452 53Z" />
<glyph unicode="&#xe0;" horiz-adv-x="538" d="M503 0V39H429V375H396Q394 353 393 331T392 287Q375 326 333 354T232 383Q190 383 155 368T92 326Q65 299 50 263T35 188Q35 147 50 112T92 50Q119 23 154 8T232 -7Q262 -7 288 1T336 23Q356 36 370 52T392 87Q392
74 392 64T392 41V0H503ZM232 343Q264 343 292 332T342 299Q363 278 375 250T388 188Q388 155 376 127T341 77Q320 56 292 45T232 33Q200 33 173 44T125 75Q102 96 89 125T76 188Q76 220 87 248T120 297Q140 319 169 331T232 343ZM260 479Q237 512 215 545T170
612H128Q153 579 177 546T227 479H260Z" />
<glyph unicode="&#xe1;" horiz-adv-x="538" d="M503 0V39H429V375H396Q394 353 393 331T392 287Q375 326 333 354T232 383Q190 383 155 368T92 326Q65 299 50 263T35 188Q35 147 50 112T92 50Q119 23 154 8T232 -7Q262 -7 288 1T336 23Q356 36 370 52T392 87Q392
74 392 64T392 41V0H503ZM232 343Q264 343 292 332T342 299Q363 278 375 250T388 188Q388 155 376 127T341 77Q320 56 292 45T232 33Q200 33 173 44T125 75Q102 96 89 125T76 188Q76 220 87 248T120 297Q140 319 169 331T232 343ZM265 479Q290 512 314 545T365
612H322Q299 579 277 546T232 479H265Z" />
<glyph unicode="&#xe2;" horiz-adv-x="538" d="M503 0V39H429V375H396Q394 353 393 331T392 287Q375 326 333 354T232 383Q190 383 155 368T92 326Q65 299 50 263T35 188Q35 147 50 112T92 50Q119 23 154 8T232 -7Q262 -7 288 1T336 23Q356 36 370 52T392 87Q392
74 392 64T392 41V0H503ZM232 343Q264 343 292 332T342 299Q363 278 375 250T388 188Q388 155 376 127T341 77Q320 56 292 45T232 33Q200 33 173 44T125 75Q102 96 89 125T76 188Q76 220 87 248T120 297Q140 319 169 331T232 343ZM174 479Q196 509 217 540T261
601Q283 571 304 540T348 479H381Q351 524 321 569T261 660Q231 615 201 570T141 479H174Z" />
<glyph unicode="&#xe3;" horiz-adv-x="538" d="M503 0V39H429V375H396Q394 353 393 331T392 287Q375 326 333 354T232 383Q190 383 155 368T92 326Q65 299 50 263T35 188Q35 147 50 112T92 50Q119 23 154 8T232 -7Q262 -7 288 1T336 23Q356 36 370 52T392 87Q392
74 392 64T392 41V0H503ZM232 343Q264 343 292 332T342 299Q363 278 375 250T388 188Q388 155 376 127T341 77Q320 56 292 45T232 33Q200 33 173 44T125 75Q102 96 89 125T76 188Q76 220 87 248T120 297Q140 319 169 331T232 343ZM610 473Q622 482 630 496T640
530L614 532Q612 516 606 507T590 491Q581 485 571 483T554 481Q540 481 528 486T500 509Q484 526 467 535T428 545Q414 545 400 541T373 527Q360 518 352 504T343 470L368 468Q370 482 375 491T389 506Q399 513 410 516T429 519Q443 519 454 514T482 491Q498 475
515 465T554 455Q569 455 583 459T610 473Z" />
<glyph unicode="&#xe4;" horiz-adv-x="538" d="M503 0V39H429V375H396Q394 353 393 331T392 287Q375 326 333 354T232 383Q190 383 155 368T92 326Q65 299 50 263T35 188Q35 147 50 112T92 50Q119 23 154 8T232 -7Q262 -7 288 1T336 23Q356 36 370 52T392 87Q392
74 392 64T392 41V0H503ZM232 343Q264 343 292 332T342 299Q363 278 375 250T388 188Q388 155 376 127T341 77Q320 56 292 45T232 33Q200 33 173 44T125 75Q102 96 89 125T76 188Q76 220 87 248T120 297Q140 319 169 331T232 343ZM357 508Q357 522 347 531T325
541Q312 541 302 532T292 508Q292 494 302 485T325 475Q337 475 347 484T357 508ZM192 508Q192 522 182 531T159 541Q147 541 137 532T127 508Q127 494 137 485T159 475Q172 475 182 484T192 508Z" />
<glyph unicode="&#xe5;" horiz-adv-x="538" d="M503 0V39H429V375H396Q394 353 393 331T392 287Q375 326 333 354T232 383Q190 383 155 368T92 326Q65 299 50 263T35 188Q35 147 50 112T92 50Q119 23 154 8T232 -7Q262 -7 288 1T336 23Q356 36 370 52T392 87Q392
74 392 64T392 41V0H503ZM232 343Q264 343 292 332T342 299Q363 278 375 250T388 188Q388 155 376 127T341 77Q320 56 292 45T232 33Q200 33 173 44T125 75Q102 96 89 125T76 188Q76 220 87 248T120 297Q140 319 169 331T232 343ZM202 540Q202 557 214 569T245
582Q264 582 275 570T287 540Q287 522 275 510T245 497Q225 497 214 510T202 540ZM317 540Q317 556 311 569T294 593Q285 602 272 607T245 612Q228 612 215 606T192 589Q183 580 178 567T172 540Q172 524 178 511T195 487Q205 478 217 473T245 468Q259 468 272
473T294 487Q305 497 311 510T317 540Z" />
<glyph unicode="&#xe6;" horiz-adv-x="593" d="M348 241Q348 272 343 294T325 329Q340 336 355 339T386 342Q425 342 456 321T505 264Q466 249 427 234T348 202V241ZM76 101Q76 125 94 137T137 155Q161 160 187 160T228 160H307V106Q307 82 297 67T271 45Q254
36 234 33T194 30Q175 30 155 32T118 43Q100 50 88 64T76 101ZM297 12Q317 2 339 -3T386 -9Q425 -9 458 5T517 44L491 74Q471 54 444 43T386 31Q369 31 353 34T321 44Q337 60 342 80T348 128V159Q401 180 453 200T558 241Q549 271 533 296T495 340Q473 360 445
371T386 382Q363 382 342 377T301 363Q284 372 257 377T193 382Q176 382 157 379T120 369Q101 363 86 355T60 337Q66 330 72 324T85 309Q93 315 106 321T133 331Q148 336 163 339T192 342Q229 342 252 336T287 317Q299 305 303 287T307 243V202H183Q155 202 129
198T81 181Q60 169 48 150T35 101Q35 69 46 48T78 13Q99 0 128 -5T193 -10Q227 -10 253 -5T297 12Z" />
<glyph unicode="&#xe7;" horiz-adv-x="391" d="M319 -133Q319 -115 310 -96T279 -61Q266 -52 252 -41T237 -7Q270 -7 302 5T356 36L330 67Q310 51 285 42T232 33Q200 33 172 44T124 76Q102 97 89 125T76 188Q76 221 88 249T122 299Q143 320 171 331T232 343Q256
343 278 336T318 316V241H356V340Q331 360 300 371T232 383Q190 383 155 368T93 326Q66 300 51 264T35 188Q35 150 48 117T86 58Q109 32 140 16T209 -4V-21Q209 -39 221 -51T248 -73Q262 -83 274 -96T286 -135Q286 -163 270 -182T224 -201Q202 -201 186 -189T164
-157L137 -169Q148 -202 172 -218T227 -234Q267 -234 293 -207T319 -133Z" />
<glyph unicode="&#xe8;" horiz-adv-x="441" d="M231 343Q270 343 301 322T351 266Q283 239 216 213T80 159Q73 193 81 225T109 284Q130 311 161 327T231 343ZM362 45L337 75Q316 55 289 44T231 33Q184 33 147 57T92 120Q170 152 247 182T403 243Q393 273 377 298T340
342Q318 362 290 372T231 383Q190 383 155 368T92 326Q65 300 50 264T35 188Q35 147 50 112T92 50Q119 23 154 8T231 -7Q270 -7 303 7T362 45ZM240 479Q217 512 195 545T150 612H108Q133 579 157 546T207 479H240Z" />
<glyph unicode="&#xe9;" horiz-adv-x="441" d="M231 343Q270 343 301 322T351 266Q283 239 216 213T80 159Q73 193 81 225T109 284Q130 311 161 327T231 343ZM362 45L337 75Q316 55 289 44T231 33Q184 33 147 57T92 120Q170 152 247 182T403 243Q393 273 377 298T340
342Q318 362 290 372T231 383Q190 383 155 368T92 326Q65 300 50 264T35 188Q35 147 50 112T92 50Q119 23 154 8T231 -7Q270 -7 303 7T362 45ZM261 479Q286 512 310 545T361 612H318Q295 579 273 546T228 479H261Z" />
<glyph unicode="&#xea;" horiz-adv-x="441" d="M231 343Q270 343 301 322T351 266Q283 239 216 213T80 159Q73 193 81 225T109 284Q130 311 161 327T231 343ZM362 45L337 75Q316 55 289 44T231 33Q184 33 147 57T92 120Q170 152 247 182T403 243Q393 273 377 298T340
342Q318 362 290 372T231 383Q190 383 155 368T92 326Q65 300 50 264T35 188Q35 147 50 112T92 50Q119 23 154 8T231 -7Q270 -7 303 7T362 45ZM399 479Q421 509 442 540T486 601Q508 571 529 540T573 479H606Q576 524 546 569T486 660Q456 615 426 570T366 479H399Z"
/>
<glyph unicode="&#xeb;" horiz-adv-x="441" d="M231 343Q270 343 301 322T351 266Q283 239 216 213T80 159Q73 193 81 225T109 284Q130 311 161 327T231 343ZM362 45L337 75Q316 55 289 44T231 33Q184 33 147 57T92 120Q170 152 247 182T403 243Q393 273 377 298T340
342Q318 362 290 372T231 383Q190 383 155 368T92 326Q65 300 50 264T35 188Q35 147 50 112T92 50Q119 23 154 8T231 -7Q270 -7 303 7T362 45ZM347 508Q347 522 337 531T315 541Q302 541 292 532T282 508Q282 494 292 485T315 475Q327 475 337 484T347 508ZM182
508Q182 522 172 531T149 541Q137 541 127 532T117 508Q117 494 127 485T149 475Q162 475 172 484T182 508Z" />
<glyph unicode="&#xec;" horiz-adv-x="263" d="M228 0V39H153V375H35V336H112V39H35V0H228ZM147 479Q124 512 102 545T57 612H15Q40 579 64 546T114 479H147Z" />
<glyph unicode="&#xed;" horiz-adv-x="263" d="M228 0V39H153V375H35V336H112V39H35V0H228ZM151 479Q176 512 200 545T251 612H208Q185 579 163 546T118 479H151Z" />
<glyph unicode="&#xee;" horiz-adv-x="263" d="M228 0V39H153V375H35V336H112V39H35V0H228ZM303 479Q325 509 346 540T390 601Q412 571 433 540T477 479H510Q480 524 450 569T390 660Q360 615 330 570T270 479H303Z" />
<glyph unicode="&#xef;" horiz-adv-x="263" d="M228 0V39H153V375H35V336H112V39H35V0H228ZM505 508Q505 522 495 531T473 541Q460 541 450 532T440 508Q440 494 450 485T473 475Q485 475 495 484T505 508ZM340 508Q340 522 330 531T307 541Q295 541 285 532T275
508Q275 494 285 485T307 475Q320 475 330 484T340 508Z" />
<glyph unicode="&#xf0;" horiz-adv-x="464" d="M122 79Q101 99 89 127T76 188Q76 220 87 248T120 298Q140 319 168 331T231 344Q263 345 291 333T342 300Q363 279 375 251T388 190Q388 158 376 130T343 81Q322 59 294 47T233 34Q200 34 172 46T122 79ZM373 53Q399
80 414 115T429 192Q429 244 414 299T373 410Q347 465 314 517T243 616Q259 634 275 651T307 686Q300 693 293 698T279 710Q265 693 250 677T219 644Q196 670 173 691T126 731L98 704Q123 683 146 661T191 614Q174 596 157 578T123 541L151 515L214 584Q244 548
267 514T307 446Q324 413 335 383T354 327Q332 353 300 368T229 384Q188 384 153 368T91 326Q64 299 50 263T35 187Q35 146 51 111T94 50Q121 23 157 9T234 -6Q275 -6 311 10T373 53Z" />
<glyph unicode="&#xf1;" horiz-adv-x="545" d="M228 0V39H154V205Q154 235 166 260T201 304Q221 322 249 332T308 342Q350 340 371 317T395 260V39H317V0H510V39H436V271Q434 321 402 352T315 383Q259 383 215 354T151 278Q150 295 149 308T147 339L146 375H41V336H113V39H35V0H228ZM397
721Q409 730 417 744T427 778L401 780Q399 764 393 755T377 739Q368 733 358 731T341 729Q327 729 315 734T287 757Q271 774 254 783T215 793Q201 793 187 789T160 775Q147 766 139 752T130 718L155 716Q157 730 162 739T176 754Q186 761 197 764T216 767Q230 767
241 762T269 739Q285 723 302 713T341 703Q356 703 370 707T397 721Z" />
<glyph unicode="&#xf2;" horiz-adv-x="465" d="M373 50Q399 77 414 112T430 188Q430 228 415 264T373 327Q346 353 310 368T232 384Q191 384 155 369T93 327Q66 300 51 264T36 188Q36 147 51 112T93 50Q119 23 154 8T232 -7Q273 -7 309 8T373 50ZM122 79Q101 99
89 127T77 188Q77 220 89 248T122 298Q143 319 171 331T231 343Q263 343 291 331T341 298Q363 276 375 248T387 188Q387 155 375 127T341 79Q320 57 292 45T231 33Q199 33 171 45T122 79ZM244 479Q221 512 199 545T154 612H112Q137 579 161 546T211 479H244Z" />
<glyph unicode="&#xf3;" horiz-adv-x="465" d="M373 50Q399 77 414 112T430 188Q430 228 415 264T373 327Q346 353 310 368T232 384Q191 384 155 369T93 327Q66 300 51 264T36 188Q36 147 51 112T93 50Q119 23 154 8T232 -7Q273 -7 309 8T373 50ZM122 79Q101 99
89 127T77 188Q77 220 89 248T122 298Q143 319 171 331T231 343Q263 343 291 331T341 298Q363 276 375 248T387 188Q387 155 375 127T341 79Q320 57 292 45T231 33Q199 33 171 45T122 79ZM264 479Q289 512 313 545T364 612H321Q298 579 276 546T231 479H264Z" />
<glyph unicode="&#xf4;" horiz-adv-x="465" d="M373 50Q399 77 414 112T430 188Q430 228 415 264T373 327Q346 353 310 368T232 384Q191 384 155 369T93 327Q66 300 51 264T36 188Q36 147 51 112T93 50Q119 23 154 8T232 -7Q273 -7 309 8T373 50ZM122 79Q101 99
89 127T77 188Q77 220 89 248T122 298Q143 319 171 331T231 343Q263 343 291 331T341 298Q363 276 375 248T387 188Q387 155 375 127T341 79Q320 57 292 45T231 33Q199 33 171 45T122 79ZM148 479Q170 509 191 540T235 601Q257 571 278 540T322 479H355Q325 524
295 569T235 660Q205 615 175 570T115 479H148Z" />
<glyph unicode="&#xf5;" horiz-adv-x="465" d="M373 50Q399 77 414 112T430 188Q430 228 415 264T373 327Q346 353 310 368T232 384Q191 384 155 369T93 327Q66 300 51 264T36 188Q36 147 51 112T93 50Q119 23 154 8T232 -7Q273 -7 309 8T373 50ZM122 79Q101 99
89 127T77 188Q77 220 89 248T122 298Q143 319 171 331T231 343Q263 343 291 331T341 298Q363 276 375 248T387 188Q387 155 375 127T341 79Q320 57 292 45T231 33Q199 33 171 45T122 79ZM616 473Q628 482 636 496T646 530L620 532Q618 516 612 507T596 491Q587
485 577 483T560 481Q546 481 534 486T506 509Q490 526 473 535T434 545Q420 545 406 541T379 527Q366 518 358 504T349 470L374 468Q376 482 381 491T395 506Q405 513 416 516T435 519Q449 519 460 514T488 491Q504 475 521 465T560 455Q575 455 589 459T616 473Z"
/>
<glyph unicode="&#xf6;" horiz-adv-x="465" d="M373 50Q399 77 414 112T430 188Q430 228 415 264T373 327Q346 353 310 368T232 384Q191 384 155 369T93 327Q66 300 51 264T36 188Q36 147 51 112T93 50Q119 23 154 8T232 -7Q273 -7 309 8T373 50ZM122 79Q101 99
89 127T77 188Q77 220 89 248T122 298Q143 319 171 331T231 343Q263 343 291 331T341 298Q363 276 375 248T387 188Q387 155 375 127T341 79Q320 57 292 45T231 33Q199 33 171 45T122 79ZM350 508Q350 522 340 531T318 541Q305 541 295 532T285 508Q285 494 295
485T318 475Q330 475 340 484T350 508ZM185 508Q185 522 175 531T152 541Q140 541 130 532T120 508Q120 494 130 485T152 475Q165 475 175 484T185 508Z" />
<glyph unicode="&#xf7;" horiz-adv-x="501" d="M428 208V249H68V208H428ZM283 354Q283 367 273 376T251 386Q238 386 228 377T218 354Q218 340 228 331T251 321Q263 321 273 330T283 354ZM283 104Q283 117 273 126T251 136Q238 136 228 127T218 104Q218 90 228
81T251 71Q263 71 273 80T283 104Z" />
<glyph unicode="&#xf8;" horiz-adv-x="463" d="M76 188Q76 220 88 248T121 298Q141 319 169 331T231 343Q254 343 275 337T313 319Q263 261 214 202T116 84Q97 105 87 131T76 188ZM138 64Q193 128 238 182T338 300Q361 280 374 251T387 188Q387 154 374 125T338
75Q317 55 290 44T231 33Q205 33 182 40T138 64ZM112 33Q137 14 167 4T231 -7Q272 -7 308 8T371 50Q398 77 413 112T429 188Q429 230 412 267T365 331Q373 341 381 350T397 370Q391 375 385 380T374 390Q365 380 357 370T340 351Q317 366 290 374T231 383Q190 383
155 368T92 326Q65 300 50 264T35 188Q35 148 49 114T89 53Q79 40 69 29T48 5Q54 0 60 -5T72 -15Q82 -3 92 9T112 33Z" />
<glyph unicode="&#xf9;" horiz-adv-x="538" d="M394 97V52L396 0H503V36H432V375H317V336H391V170Q391 140 379 115T345 72Q323 53 296 43T237 33Q195 35 174 58T150 115V375H35V336H109V104Q111 54 143 23T230 -8Q285 -8 329 20T394 97ZM274 479Q251 512 229
545T184 612H142Q167 579 191 546T241 479H274Z" />
<glyph unicode="&#xfa;" horiz-adv-x="538" d="M394 97V52L396 0H503V36H432V375H317V336H391V170Q391 140 379 115T345 72Q323 53 296 43T237 33Q195 35 174 58T150 115V375H35V336H109V104Q111 54 143 23T230 -8Q285 -8 329 20T394 97ZM264 479Q289 512 313
545T364 612H321Q298 579 276 546T231 479H264Z" />
<glyph unicode="&#xfb;" horiz-adv-x="538" d="M394 97V52L396 0H503V36H432V375H317V336H391V170Q391 140 379 115T345 72Q323 53 296 43T237 33Q195 35 174 58T150 115V375H35V336H109V104Q111 54 143 23T230 -8Q285 -8 329 20T394 97ZM179 479Q201 509 222
540T266 601Q288 571 309 540T353 479H386Q356 524 326 569T266 660Q236 615 206 570T146 479H179Z" />
<glyph unicode="&#xfc;" horiz-adv-x="538" d="M394 97V52L396 0H503V36H432V375H317V336H391V170Q391 140 379 115T345 72Q323 53 296 43T237 33Q195 35 174 58T150 115V375H35V336H109V104Q111 54 143 23T230 -8Q285 -8 329 20T394 97ZM376 508Q376 522 366
531T344 541Q331 541 321 532T311 508Q311 494 321 485T344 475Q356 475 366 484T376 508ZM211 508Q211 522 201 531T178 541Q166 541 156 532T146 508Q146 494 156 485T178 475Q191 475 201 484T211 508Z" />
<glyph unicode="&#xfd;" horiz-adv-x="601" d="M285 -250V-211H221Q289 -73 357 62T493 336H566V375H391V336H449Q411 260 374 185T303 37Q268 112 231 186T156 336H220V375H35V336H112Q154 250 196 166T281 -2Q255 -54 229 -106T177 -211H92V-250H285ZM331 479Q356
512 380 545T431 612H388Q365 579 343 546T298 479H331Z" />
<glyph unicode="&#xfe;" horiz-adv-x="503" d="M217 -250V-211H135V32Q135 47 134 59T133 83Q140 65 154 49T189 20Q209 6 234 -1T290 -8Q331 -8 367 7T430 49Q456 75 471 110T487 187Q487 227 472 262T430 325Q403 351 367 366T290 381Q234 381 192 355T133 288Q133
300 133 314T134 341V711H209V750H16V711H93V-211H16V-250H217ZM290 342Q321 342 349 331T397 301Q420 279 432 250T445 187Q445 154 433 125T398 75Q377 54 349 43T290 32Q258 32 231 43T182 75Q159 96 147 125T134 187Q134 219 145 247T178 297Q199 317 227 329T290
342Z" />
<glyph unicode="&#xff;" horiz-adv-x="601" d="M285 -250V-211H221Q289 -73 357 62T493 336H566V375H391V336H449Q411 260 374 185T303 37Q268 112 231 186T156 336H220V375H35V336H112Q154 250 196 166T281 -2Q255 -54 229 -106T177 -211H92V-250H285ZM419 508Q419
522 409 531T387 541Q374 541 364 532T354 508Q354 494 364 485T387 475Q399 475 409 484T419 508ZM254 508Q254 522 244 531T221 541Q209 541 199 532T189 508Q189 494 199 485T221 475Q234 475 244 484T254 508Z" />
<glyph unicode="&#x2013;" horiz-adv-x="509" d="M401 177V217H100V177H401Z" />
<glyph unicode="&#x2014;" horiz-adv-x="700" d="M601 177V217H99V177H601Z" />
<glyph unicode="&#x2018;" horiz-adv-x="164" d="M101 590Q80 610 71 639T68 704Q60 706 53 707T36 711Q28 670 40 633T82 570L101 590Z" />
<glyph unicode="&#x2019;" horiz-adv-x="164" d="M115 711Q106 709 99 708T83 704Q90 669 81 640T50 590L69 570Q98 596 110 633T115 711Z" />
<glyph unicode="&#x201a;" horiz-adv-x="146" d="M85 92Q76 90 69 89T53 85Q60 50 51 21T20 -29L39 -49Q68 -23 80 14T85 92Z" />
<glyph unicode="&#x201c;" horiz-adv-x="249" d="M200 590Q179 610 170 639T167 704Q159 706 151 707T135 711Q127 670 139 633T180 570L200 590ZM96 590Q75 610 66 639T63 704Q55 706 47 707T31 711Q23 670 35 633T76 570L96 590Z" />
<glyph unicode="&#x201d;" horiz-adv-x="248" d="M96 711Q88 709 80 708T64 704Q71 669 62 640T31 590L51 570Q79 596 91 633T96 711ZM200 711Q192 709 184 708T168 704Q175 669 166 640T135 590L155 570Q183 596 195 633T200 711Z" />
<glyph unicode="&#x201e;" horiz-adv-x="276" d="M85 92Q76 90 69 89T53 85Q60 50 51 21T20 -29L39 -49Q68 -23 80 14T85 92ZM189 92Q180 90 173 89T157 85Q164 50 155 21T124 -29L143 -49Q172 -23 184 14T189 92Z" />
<glyph unicode="&#x2022;" horiz-adv-x="479" d="M239 211Q257 211 273 217T302 236Q315 248 322 264T329 300Q329 320 322 336T303 365Q290 377 274 383T239 390Q220 390 204 383T175 364Q163 351 157 335T150 300Q150 280 157 264T178 235Q190 223 206 217T239 211Z" />
<glyph unicode="&#x2039;" horiz-adv-x="392" d="M117 239L288 77V124Q260 153 232 181T176 239Q204 268 232 296T288 352V400Q245 359 203 320T117 239Z" />
<glyph unicode="&#x203a;" horiz-adv-x="392" d="M288 239L117 77V124Q145 153 173 181T229 239Q201 268 173 296T117 352V400Q160 359 202 320T288 239Z" />
</font>
</defs>
</svg>
