<?xml version="1.0" standalone="no"?>
<!DOCTYPE svg PUBLIC "-//W3C//DTD SVG 1.1//EN" "http://www.w3.org/Graphics/SVG/1.1/DTD/svg11.dtd">
<svg xmlns="http://www.w3.org/2000/svg">
<defs >
<font id="ElMessiri" horiz-adv-x="494" ><font-face
    font-family="El Messiri"
    units-per-em="1000"
    panose-1="0 0 0 0 0 0 0 0 0 0"
    ascent="1019"
    descent="-544"
    alphabetic="0" />
<glyph unicode=" " horiz-adv-x="250" />
<glyph unicode="!" horiz-adv-x="234" d="M88 155L70 660H164L146 155H88ZM117 -14Q95 -14 79 2T63 41Q63 63 79 78T117 94Q139 94 155 79T171 41Q171 18 155 2T117 -14Z" />
<glyph unicode="&quot;" horiz-adv-x="366" d="M243 390L213 660H313L283 390H243ZM83 390L53 660H153L123 390H83Z" />
<glyph unicode="#" horiz-adv-x="668" d="M126 0L161 175H31V235H175L211 415H91V475H224L266 675H331L289 475H434L476 675H541L499 475H636V415H486L449 235H576V175H436L401 0H336L371 175H226L191 0H126ZM239 235H385L421 415H276L239 235Z" />
<glyph unicode="$" horiz-adv-x="526" d="M236 -80V-15Q188 -9 146 6T76 47T49 105V212H67Q82 121 124 77T236 24V294L166 336Q102 374 76 413T49 508Q49 584 100 630T236 678V735H276V676Q321 672 363 657T432 617T459 558V451H441Q426 542 386 585T276 636V383L361
333Q425 295 455 260T485 168Q485 83 430 33T276 -17V-80H236ZM276 23Q325 25 362 51T399 125Q399 172 370 202T276 270V23ZM236 407V638Q193 636 160 609T127 537Q127 493 154 466T236 407Z" />
<glyph unicode="%" horiz-adv-x="674" d="M72 0L527 660H602L147 0H72ZM497 -5Q429 -5 391 30T352 130Q352 194 390 229T497 265Q565 265 603 230T642 130Q642 66 604 31T497 -5ZM497 30Q582 30 582 130Q582 230 497 230Q412 230 412 130Q412 30 497 30ZM177 395Q109
395 71 430T32 530Q32 594 70 629T177 665Q245 665 283 630T322 530Q322 466 284 431T177 395ZM177 430Q262 430 262 530Q262 630 177 630Q92 630 92 530Q92 430 177 430Z" />
<glyph unicode="&amp;" horiz-adv-x="616" d="M252 -20Q182 -20 136 1T66 58T42 140Q42 182 62 214T116 272T185 326Q167 343 149 363T115 409T91 462T82 524Q82 596 130 638T262 680Q341 680 384 640T427 540Q427 494 407 459T353 396T281 340L482 120Q503 143
519 165T548 205Q555 216 561 225T572 245L592 230Q588 220 583 210T570 188Q559 169 542 145T503 97L592 0H482L442 43Q418 25 389 11T326 -11T252 -20ZM271 15Q317 15 354 29T421 66L215 291Q181 262 159 229T137 150Q137 83 170 49T271 15ZM250 375Q288 407
315 443T342 530Q342 573 330 598T299 634T262 645Q242 645 223 634T190 596T177 524Q177 494 187 468T211 422T236 389T250 375Z" />
<glyph unicode="&apos;" horiz-adv-x="206" d="M83 390L53 660H153L123 390H83Z" />
<glyph unicode="(" horiz-adv-x="309" d="M284 -210Q204 -150 148 -84T63 61T34 240Q34 340 63 419T148 564T284 690L294 675Q229 618 192 548T140 399T124 240Q124 160 139 82T192 -67T294 -195L284 -210Z" />
<glyph unicode=")" horiz-adv-x="309" d="M25 -210L15 -195Q80 -138 117 -68T169 81T185 240Q185 320 170 398T117 547T15 675L25 690Q105 630 161 564T246 419T275 240Q275 140 246 61T161 -84T25 -210Z" />
<glyph unicode="*" horiz-adv-x="424" d="M172 330L202 480L87 375L47 445L192 495L47 545L87 615L202 510L172 660H252L222 510L337 615L377 545L232 495L377 445L337 375L222 480L252 330H172Z" />
<glyph unicode="+" horiz-adv-x="530" d="M235 100V300H35V360H235V560H295V360H495V300H295V100H235Z" />
<glyph unicode="," horiz-adv-x="237" d="M71 -155L61 -140Q87 -123 104 -103T131 -59T141 -5Q137 -8 128 -11T111 -15Q88 -15 72 1T56 40Q56 66 73 83T116 100Q146 100 163 82T181 30Q181 -34 153 -79T71 -155Z" />
<glyph unicode="-" horiz-adv-x="387" d="M66 230V300H321V230H66Z" />
<glyph unicode="." horiz-adv-x="220" d="M110 -14Q88 -14 72 2T56 41Q56 63 72 79T110 95Q133 95 148 79T164 41Q164 18 148 2T110 -14Z" />
<glyph unicode="/" horiz-adv-x="440" d="M23 0L344 660H417L96 0H23Z" />
<glyph unicode="0" horiz-adv-x="584" d="M292 -20Q205 -20 152 23T76 146T52 330Q52 436 75 514T152 636T292 680Q380 680 432 637T508 515T532 330Q532 225 509 146T433 24T292 -20ZM292 20Q374 20 403 96T432 330Q432 488 403 564T292 640Q210 640 181 564T152
330Q152 173 181 97T292 20Z" />
<glyph unicode="1" horiz-adv-x="305" d="M129 0V560L32 497L14 520L169 660H219V0H129Z" />
<glyph unicode="2" horiz-adv-x="530" d="M41 0V50Q104 111 155 160T246 250T312 329T352 406T366 490Q366 540 348 573T301 623T236 640Q176 640 131 597T71 470H51Q51 508 54 542T75 600Q102 633 154 656T266 680Q296 680 330 673T396 645T446 588T466 490Q466
447 453 410T415 337T358 268T286 198T202 123T111 40H336Q396 40 428 66T461 145H481V80Q481 60 474 42T449 12T396 0H41Z" />
<glyph unicode="3" horiz-adv-x="530" d="M266 -20Q216 -20 176 -7T102 30T40 87L56 105Q94 63 139 42T241 20Q281 20 315 37T370 91T391 185Q391 238 371 272T321 323T261 340Q231 340 213 339T180 334T141 325L115 367L386 620H201Q141 620 109 594T76 515H56V580Q56
600 63 618T88 648T141 660H459V620L191 370Q217 377 244 378T281 380Q303 380 338 373T408 344T467 285T491 185Q491 119 467 79T407 17T332 -12T266 -20Z" />
<glyph unicode="4" horiz-adv-x="546" d="M338 0V170H18V210L348 660H428V210H518V170H428V0H338ZM78 210H338V564L78 210Z" />
<glyph unicode="5" horiz-adv-x="530" d="M257 -20Q182 -20 133 8T42 85L61 102Q99 60 143 40T242 20Q282 20 316 37T371 91T392 185Q392 264 350 302T232 340Q207 340 180 338T107 330L67 370L77 660H452V620H159L150 375L182 377Q196 378 214 379T252 380Q290
380 331 372T409 343T469 283T492 185Q492 121 468 81T406 19T329 -11T257 -20Z" />
<glyph unicode="6" horiz-adv-x="537" d="M282 -20Q162 -20 107 68T52 330Q52 504 113 592T302 680Q351 680 389 671T457 650L452 630Q437 633 416 635T372 638T322 640Q232 640 190 571T147 385Q173 404 208 417T297 430Q367 430 411 402T476 324T497 205Q497
148 474 97T403 13T282 -20ZM282 20Q320 20 347 46T388 115T402 205Q402 291 370 340T267 390Q242 390 221 384T183 367T147 340Q147 225 164 155T211 52T282 20Z" />
<glyph unicode="7" horiz-adv-x="474" d="M121 0L371 620H171Q111 620 79 594T46 515H26V580Q26 600 33 618T58 648T111 660H461V620L211 0H121Z" />
<glyph unicode="8" horiz-adv-x="554" d="M277 -20Q215 -20 163 -3T79 52T47 150Q47 200 70 235T130 294T207 335Q172 356 141 379T91 434T72 510Q72 575 100 612T175 664T277 680Q332 680 378 665T453 615T482 520Q482 480 464 449T418 395T357 355Q395 333 429
307T485 246T507 160Q507 95 476 56T392 -2T277 -20ZM277 20Q312 20 342 33T392 73T412 140Q412 183 390 214T331 269T252 315Q223 301 198 281T157 229T142 150Q142 105 161 76T211 34T277 20ZM312 380Q342 402 364 433T387 520Q387 568 370 594T328 630T277 640Q252
640 227 630T184 597T167 530Q167 498 187 471T241 421T312 380Z" />
<glyph unicode="9" horiz-adv-x="536" d="M234 -20Q202 -20 174 -16T123 -4T79 10L84 30Q100 28 120 26T165 22T214 20Q304 20 346 89T389 275Q363 256 328 243T239 230Q169 230 125 258T60 336T39 455Q39 513 62 564T134 647T254 680Q374 680 429 591T484 330Q484
156 423 68T234 -20ZM269 270Q295 270 315 276T354 293T389 320Q389 435 372 505T325 608T254 640Q216 640 189 614T148 545T134 455Q134 369 166 320T269 270Z" />
<glyph unicode=":" horiz-adv-x="241" d="M121 353Q99 353 83 368T67 407Q67 429 83 445T121 461Q144 461 159 445T175 407Q175 384 160 369T121 353ZM120 -14Q98 -14 82 2T66 41Q66 63 82 79T120 95Q143 95 159 79T175 41Q175 18 159 2T120 -14Z" />
<glyph unicode=";" horiz-adv-x="258" d="M131 354Q109 354 93 370T77 409Q77 431 93 447T131 463Q154 463 169 447T185 409Q185 386 169 370T131 354ZM80 -155L70 -140Q96 -123 113 -103T140 -59T150 -5Q146 -8 137 -11T120 -15Q97 -15 81 1T65 40Q65 66 82 83T125
100Q155 100 172 82T190 30Q190 -34 162 -79T80 -155Z" />
<glyph unicode="&lt;" horiz-adv-x="618" d="M550 95L30 320V350L550 575V515L133 335L550 155V95Z" />
<glyph unicode="=" horiz-adv-x="657" d="M66 390V450H591V390H66ZM66 210V270H591V210H66Z" />
<glyph unicode="&gt;" horiz-adv-x="618" d="M68 95V155L485 335L68 515V575L588 350V320L68 95Z" />
<glyph unicode="?" horiz-adv-x="478" d="M206 156Q207 206 221 240T257 302T298 355T332 413T346 490Q346 565 307 602T216 640Q156 640 111 597T50 470H30Q30 508 33 542T55 600Q82 633 134 656T246 680Q276 680 310 673T376 645T426 588T446 490Q446 440 426
404T377 338T318 283T268 226T246 156H206ZM226 -13Q203 -13 188 3T172 41Q172 64 187 80T226 96Q249 96 265 80T281 41Q281 19 265 3T226 -13Z" />
<glyph unicode="@" horiz-adv-x="856" d="M430 -180Q315 -180 227 -131T90 14T40 250Q40 390 89 486T227 631T430 680Q545 680 633 632T770 492T820 270Q820 150 773 78T625 5Q597 5 576 11T542 30T520 60H515Q500 41 466 23T375 5Q354 5 330 11T282 34T245 77T230
145Q230 200 265 230T359 272T485 285H515Q515 355 501 391T464 441T410 455Q368 455 340 437T300 370H255Q255 396 258 418T280 460Q299 479 342 487T430 495Q464 495 495 487T551 458T590 395T605 285V105Q605 82 617 64T655 45Q688 45 716 72T762 149T780 270Q780
390 737 472T615 597T430 640Q325 640 246 597T124 467T80 250Q80 120 123 34T246 -96T430 -140Q528 -140 604 -119T740 -55L760 -85Q700 -127 620 -153T430 -180ZM420 50Q457 50 478 68T515 110V245H485Q410 245 368 218T325 145Q325 96 354 73T420 50Z" />
<glyph unicode="A" horiz-adv-x="635" d="M622 -5Q600 -5 568 3T505 39T452 125L427 190H147L67 0H22L302 660H332L552 125Q576 69 598 47T662 20V0Q654 -2 644 -3T622 -5ZM162 230H407L287 520L162 230Z" />
<glyph unicode="B" horiz-adv-x="622" d="M106 0V540Q106 585 94 612T36 640H16V660H276Q315 660 361 654T450 631T519 578T546 485Q546 440 515 402T416 340Q481 330 517 308T567 253T581 180Q581 124 556 89T491 34T402 8T306 0H106ZM291 35Q382 35 431 71T481
175Q481 243 433 279T291 315H196V49Q219 42 243 39T291 35ZM196 355H291Q331 355 367 370T427 415T451 490Q451 538 423 568T353 611T271 625Q252 625 232 622T196 615V355Z" />
<glyph unicode="C" horiz-adv-x="665" d="M354 -20Q259 -20 190 25T82 148T44 320Q44 395 68 460T135 575T234 652T354 680Q437 680 497 657T584 600Q603 577 606 536T609 450H589Q570 548 519 594T384 640Q319 640 264 610T177 510T144 320Q144 264 157 211T200
114T274 46T384 20Q459 20 513 56T609 160L629 145Q581 51 512 16T354 -20Z" />
<glyph unicode="D" horiz-adv-x="715" d="M106 0V540Q106 585 94 612T36 640H16V660H278Q476 660 573 572T671 334Q671 237 630 162T507 43T304 0H106ZM301 35Q375 35 434 71T527 173T562 330Q562 419 528 485T435 588T299 625Q277 625 252 621T199 609V48Q219
44 236 41T270 37T301 35Z" />
<glyph unicode="E" horiz-adv-x="590" d="M106 0V540Q106 585 94 612T36 640H16V660H442Q477 660 495 649T520 619T527 580V505H507Q507 565 475 592T382 620H196V360H466V320H196V40H371Q439 40 478 65T541 150L561 145L526 50Q518 27 500 14T451 0H106Z" />
<glyph unicode="F" horiz-adv-x="527" d="M106 0V540Q106 585 94 612T36 640H16V660H415Q450 660 468 649T493 619T500 580V505H480Q480 565 448 592T355 620H196V355H422V315H196V0H106Z" />
<glyph unicode="G" horiz-adv-x="720" d="M384 -20Q309 -20 247 8T139 85T69 199T44 340Q44 435 82 512T189 634T354 680Q445 680 506 657T594 600Q613 577 616 538T619 465H599Q580 552 528 596T384 640Q320 640 275 615T200 546T158 450T144 340Q144 220 176
150T264 50T384 20Q438 20 474 29T539 55V229Q539 250 544 270T565 308T615 335T704 346V326Q655 326 642 301T629 231V43Q575 10 516 -5T384 -20Z" />
<glyph unicode="H" horiz-adv-x="693" d="M106 0V540Q106 585 94 612T36 640H16V660H106Q141 660 160 651T188 616T196 540V360H496V660H586V120Q586 75 598 48T656 20H676V0H586Q551 0 532 9T504 44T496 120V320H196V0H106Z" />
<glyph unicode="I" horiz-adv-x="285" d="M179 0Q144 0 125 9T97 44T89 120V660H179V120Q179 75 191 48T249 20H269V0H179Z" />
<glyph unicode="J" horiz-adv-x="261" d="M-9 -137V-117Q24 -117 45 -94T76 -26T86 78V660H176V78Q176 3 160 -44T104 -114T-9 -137Z" />
<glyph unicode="K" horiz-adv-x="677" d="M621 -10Q594 -10 562 -1T492 34T406 110L196 330V0H106V540Q106 585 94 612T36 640H16V660H106Q141 660 160 651T188 616T196 540V345L406 555Q431 580 455 604T507 644T576 660H626V635Q585 635 554 621T481 565L286
370L516 130Q544 102 573 78T632 39T686 19V0Q675 -4 660 -7T621 -10Z" />
<glyph unicode="L" horiz-adv-x="558" d="M106 0V540Q106 585 94 612T36 640H16V660H106Q141 660 160 651T188 616T196 540V40H551V0H106Z" />
<glyph unicode="M" horiz-adv-x="855" d="M841 -45Q769 -45 729 -23T672 47T656 170V555L406 0H386L126 565V0H86V660H181L421 140L656 660H746V170Q746 79 769 27T841 -25V-45Z" />
<glyph unicode="N" horiz-adv-x="685" d="M580 -10L150 525V0H110V540Q110 585 91 612T20 640H10V660H75Q124 660 155 644T210 600L560 165V660H600V-10H580Z" />
<glyph unicode="O" horiz-adv-x="712" d="M356 -20Q261 -20 192 26T84 152T46 330Q46 428 84 507T191 633T356 680Q451 680 520 634T628 508T666 330Q666 232 628 153T521 27T356 -20ZM356 20Q422 20 469 58T541 165T566 330Q566 425 541 494T469 602T356 640Q291
640 244 602T171 495T146 330Q146 235 171 166T243 58T356 20Z" />
<glyph unicode="P" horiz-adv-x="552" d="M106 0V540Q106 585 94 612T36 640H16V660H276Q302 660 334 657T400 642T462 608T508 550T526 460Q526 409 509 375T465 319T407 288T350 274T306 270H196V0H106ZM196 305H271Q292 305 318 313T369 340T410 389T426 465Q426
510 410 540T369 590T318 617T271 625Q252 625 232 622T196 615V305Z" />
<glyph unicode="Q" horiz-adv-x="714" d="M677 -205Q604 -205 533 -188T396 -127T267 -7Q199 13 150 61T74 179T47 330Q47 428 85 507T192 633T357 680Q452 680 521 634T629 508T667 330Q667 247 640 177T561 59T439 -9Q451 -46 477 -78T538 -134T608 -171T677
-185V-205ZM357 20Q423 20 470 58T542 165T567 330Q567 425 542 494T470 602T357 640Q292 640 245 602T172 495T147 330Q147 235 172 166T244 58T357 20Z" />
<glyph unicode="R" horiz-adv-x="595" d="M545 -10Q511 -10 483 3T427 48T366 135L266 305H196V0H106V540Q106 585 94 612T36 640H16V660H276Q301 660 334 657T400 643T462 613T508 561T526 481Q526 424 502 390T440 337T366 310L471 135Q509 71 539 48T606 20V0Q598
-4 582 -7T545 -10ZM196 340H268Q290 340 317 348T369 372T410 416T426 482Q426 521 410 548T369 592T317 617T268 625Q252 625 232 622T196 615V340Z" />
<glyph unicode="S" horiz-adv-x="533" d="M282 -17Q242 -17 202 -9T128 16T74 54T54 105V212H72Q89 111 138 67T273 23Q307 23 337 34T385 69T404 125Q404 169 377 200T294 263L171 336Q107 374 81 413T54 508Q54 585 107 631T248 678Q285 678 323 670T393 647T444
609T464 558V451H446Q429 552 381 595T248 638Q219 638 192 626T149 591T132 537Q132 494 160 466T243 406L366 333Q430 295 460 260T490 168Q490 84 434 34T282 -17Z" />
<glyph unicode="T" horiz-adv-x="583" d="M256 0V620H166Q106 620 74 593T41 505H21V580Q21 600 28 618T53 648T106 660H571V620H346V0H256Z" />
<glyph unicode="U" horiz-adv-x="687" d="M354 -10Q257 -10 201 23T122 121T99 285V540Q99 585 87 612T29 640H9V660H99Q134 660 153 651T181 616T189 540V255Q189 150 228 90T366 30Q443 30 487 57T550 140T569 285V660H609V285Q609 187 588 122T512 23T354 -10Z" />
<glyph unicode="V" horiz-adv-x="640" d="M313 -10L81 543Q57 599 35 621T-29 648V668Q-25 668 -14 669T5 670Q30 670 61 662T123 627T179 543L350 140L570 660H618L331 -10H313Z" />
<glyph unicode="W" horiz-adv-x="866" d="M272 -10L78 543Q58 600 36 622T-32 648V668Q-28 668 -17 669T2 670Q30 670 62 663T123 628T173 543L307 157L414 474L390 543Q370 600 348 622T280 648V668Q284 668 295 669T314 670Q342 670 374 663T435 628T485 543L619
157L790 660H833L604 -10H584L436 411L292 -10H272Z" />
<glyph unicode="X" horiz-adv-x="667" d="M41 0L291 325L151 530Q134 555 114 579T65 621T-9 640V660H111Q144 660 169 643T214 601T251 550L351 400L551 660H601L376 365L536 130Q553 105 574 81T622 40T681 20V0H576Q544 0 519 17T473 59T436 110L316 290L91 0H41Z" />
<glyph unicode="Y" horiz-adv-x="628" d="M290 0V273L120 530Q100 560 80 583T36 622T-25 640V660H65Q102 660 129 644T177 603T215 550L360 325L569 660H614L380 280V0H290Z" />
<glyph unicode="Z" horiz-adv-x="591" d="M24 0V20L439 620H199Q139 620 107 593T74 505H54V580Q54 600 61 618T86 648T139 660H574L149 40H559V0H24Z" />
<glyph unicode="[" horiz-adv-x="316" d="M75 -200V680H290V640H155V-160H290V-200H75Z" />
<glyph unicode="\" horiz-adv-x="440" d="M344 0L23 660H96L417 0H344Z" />
<glyph unicode="]" horiz-adv-x="316" d="M26 -200V-160H161V640H26V680H241V-200H26Z" />
<glyph unicode="^" horiz-adv-x="490" d="M20 330L235 680H255L470 330H403L245 587L87 330H20Z" />
<glyph unicode="_" horiz-adv-x="432" d="M16 -60V0H416V-60H16Z" />
<glyph unicode="`" horiz-adv-x="200" d="M130 480L20 680H120L180 480H130Z" />
<glyph unicode="a" horiz-adv-x="481" d="M184 -10Q163 -10 139 -4T91 19T54 62T39 130Q39 185 74 215T168 257T294 270H324Q324 340 310 376T273 426T219 440Q177 440 149 422T109 355H64Q64 381 67 403T89 445Q108 464 151 472T239 480Q273 480 304 472T360
443T399 380T414 270V0H364L329 45H324Q309 26 275 8T184 -10ZM229 35Q266 35 287 53T324 95V230H294Q219 230 177 203T134 130Q134 81 163 58T229 35Z" />
<glyph unicode="b" horiz-adv-x="523" d="M297 -10Q241 -10 209 8T162 45H157L122 0H72V540Q72 585 60 612T2 640H-18V660H72Q107 660 126 651T154 616T162 540V450Q185 461 215 470T287 480Q352 480 394 447T456 359T477 235Q477 168 457 112T397 23T297 -10ZM267
30Q307 30 332 57T370 131T382 235Q382 293 370 339T330 412T257 440Q234 440 210 431T162 410V90Q177 67 201 49T267 30Z" />
<glyph unicode="c" horiz-adv-x="483" d="M265 -10Q191 -10 142 23T69 112T45 235Q45 303 69 358T142 447T265 480Q318 480 354 472T410 445Q429 426 432 399T435 315H415Q411 379 375 409T285 440Q235 440 203 413T156 339T140 235Q140 178 155 132T203 58T285
30Q338 30 371 51T430 110L450 95Q428 57 400 34T339 1T265 -10Z" />
<glyph unicode="d" horiz-adv-x="524" d="M227 -10Q167 -10 127 23T67 112T47 235Q47 303 67 358T130 447T237 480Q279 480 309 471T362 450V540Q362 585 350 612T292 640H272V660H362Q397 660 416 651T444 616T452 540V0H402L367 45H362Q346 26 317 8T227 -10ZM257
30Q288 30 307 39T338 61T362 90V410Q339 421 315 430T267 440Q222 440 195 413T155 339T142 235Q142 178 154 132T191 58T257 30Z" />
<glyph unicode="e" horiz-adv-x="488" d="M255 -10Q185 -10 139 23T69 112T45 235Q45 303 69 358T138 447T245 480Q313 480 357 455T423 380T445 260L443 220H140Q140 138 175 84T275 30Q324 30 356 51T415 110L435 95Q413 57 386 34T326 1T255 -10ZM140 260H350Q350
347 324 393T245 440Q215 440 192 417T154 353T140 260Z" />
<glyph unicode="f" horiz-adv-x="337" d="M91 0V430H21V470H91V500Q91 570 117 606T183 656T266 670Q297 670 318 667T351 655Q362 647 370 636T386 610L356 585Q341 608 317 619T261 630Q227 630 204 602T181 500V470H321V430H181V0H91Z" />
<glyph unicode="g" horiz-adv-x="492" d="M246 -200Q184 -200 134 -185T55 -136T26 -45Q26 -12 41 13T81 57T136 85Q121 93 109 107T96 145Q96 168 108 180T131 200Q101 215 79 248T56 330Q56 388 81 420T150 466T246 480H431V455L366 445Q394 428 415 398T436
330Q436 273 411 240T342 194T246 180Q194 180 168 171T141 145Q141 128 167 119T246 110Q306 110 356 94T436 44T466 -45Q466 -102 437 -136T358 -185T246 -200ZM246 -160Q303 -160 339 -133T376 -45Q376 5 346 34T256 70L201 75Q163 60 140 32T116 -45Q116 -105
152 -132T246 -160ZM246 215Q287 215 316 240T346 330Q346 390 317 417T246 445Q205 445 176 420T146 330Q146 266 175 241T246 215Z" />
<glyph unicode="h" horiz-adv-x="529" d="M72 0V540Q72 585 60 612T2 640H-18V660H72Q107 660 126 651T154 616T162 540V430Q181 449 214 464T292 480Q324 480 354 472T409 445T447 390T462 300V0H372V300Q372 350 356 379T315 422T262 435Q232 435 207 419T162
382V0H72Z" />
<glyph unicode="i" horiz-adv-x="246" d="M87 0V350Q87 395 75 422T17 450H-3V470H87Q122 470 141 461T169 426T177 350V0H87ZM125 530Q102 530 86 549T69 594Q69 615 81 627T115 639Q138 639 154 620T171 575Q171 554 159 542T125 530Z" />
<glyph unicode="j" horiz-adv-x="246" d="M-8 -190V-170Q25 -170 46 -147T77 -79T87 25V350Q87 395 75 422T17 450H-3V470H87Q122 470 141 461T169 426T177 350V25Q177 -50 161 -97T105 -167T-8 -190ZM125 530Q102 530 86 549T69 594Q69 615 81 627T115 639Q138
639 154 620T171 575Q171 554 159 542T125 530Z" />
<glyph unicode="k" horiz-adv-x="485" d="M427 -10Q389 -10 353 7T282 70L162 230V0H72V540Q72 585 60 612T2 640H-18V660H72Q107 660 126 651T154 616T162 540V245L287 405Q310 434 339 452T417 470H447V445Q421 445 396 434T352 400L242 260L367 100Q396 62
421 43T477 19V0Q469 -4 456 -7T427 -10Z" />
<glyph unicode="l" horiz-adv-x="242" d="M76 0V540Q76 585 64 612T6 640H-14V660H76Q111 660 130 651T158 616T166 540V0H76Z" />
<glyph unicode="m" horiz-adv-x="785" d="M87 0V350Q87 395 75 422T17 450H-3V470H87Q125 470 144 460T172 430H177Q196 449 229 464T307 480Q333 480 355 474T396 453T427 410Q453 444 494 462T577 480Q615 480 646 465T697 412T717 300V0H627V300Q627 375 606
405T547 435Q518 435 487 414T442 370Q446 359 446 337T447 300V0H357V300Q357 375 336 405T277 435Q247 435 222 419T177 382V0H87Z" />
<glyph unicode="n" horiz-adv-x="544" d="M87 0V350Q87 395 75 422T17 450H-3V470H87Q125 470 144 460T172 430Q192 447 227 463T307 480Q350 480 388 465T452 412T477 300V0H387V300Q387 350 371 379T330 422T277 435Q247 435 222 419T177 382V0H87Z" />
<glyph unicode="o" horiz-adv-x="530" d="M265 -10Q195 -10 146 23T71 112T45 235Q45 303 71 358T146 447T265 480Q335 480 384 447T459 359T485 235Q485 168 459 112T384 23T265 -10ZM265 30Q303 30 331 57T374 131T390 235Q390 293 375 339T331 412T265 440Q228
440 200 413T156 339T140 235Q140 178 155 132T199 58T265 30Z" />
<glyph unicode="p" horiz-adv-x="538" d="M87 -190V350Q87 395 75 422T17 450H-3V470H87Q125 470 144 459T172 425Q192 445 226 462T312 480Q372 480 412 447T472 359T492 235Q492 168 472 112T409 23T302 -10Q260 -10 230 -1T177 20V-190H87ZM272 30Q317 30 344
57T384 131T397 235Q397 293 385 339T348 412T282 440Q241 440 216 422T177 380V60Q200 49 224 40T272 30Z" />
<glyph unicode="q" horiz-adv-x="524" d="M362 -190V20Q339 9 309 0T237 -10Q172 -10 130 23T68 112T47 235Q47 303 67 358T127 447T227 480Q283 480 315 462T362 425H367L402 470H452V-190H362ZM267 30Q290 30 314 39T362 60V380Q346 403 323 421T257 440Q217
440 192 413T154 339T142 235Q142 178 154 132T194 58T267 30Z" />
<glyph unicode="r" horiz-adv-x="397" d="M80 0V350Q80 395 68 422T10 450H0V470H80Q118 470 137 459T165 425Q182 442 214 461T290 480Q305 480 322 477T350 465Q361 457 369 446T385 420L345 390Q334 405 313 412T265 420Q235 420 210 407T170 370Q170 365 170
356T170 340V0H80Z" />
<glyph unicode="s" horiz-adv-x="446" d="M229 -10Q169 -10 131 0T74 30Q55 49 52 73T49 135H69Q77 86 111 58T209 30Q266 30 292 50T319 100Q319 130 297 150T229 190L169 215Q112 238 81 269T49 350Q49 413 96 446T214 480Q271 480 308 470T364 440Q383 421
386 397T389 335H369Q361 384 328 412T234 440Q185 440 160 420T134 370Q134 344 155 323T214 285L274 260Q338 234 371 203T404 120Q404 57 354 24T229 -10Z" />
<glyph unicode="t" horiz-adv-x="338" d="M211 -10Q158 -10 125 21T91 120V430H21V470H91V560L141 620H181V470H301V430H181V120Q181 75 198 53T251 30Q277 30 294 36T326 50L336 30Q320 18 292 4T211 -10Z" />
<glyph unicode="u" horiz-adv-x="535" d="M243 -10Q201 -10 162 5T98 59T73 170V350Q73 395 61 422T3 450H-7V470H73Q108 470 127 461T155 426T163 350V170Q163 120 179 91T220 48T273 35Q293 35 311 42T345 62T373 88V470H463V0H413L378 40H373Q354 21 321 6T243 -10Z" />
<glyph unicode="v" horiz-adv-x="497" d="M254 -10L99 355Q75 411 53 433T-5 458V478Q-1 478 10 479T29 480Q60 480 90 471T149 434T199 355L289 140L429 470H479L274 -10H254Z" />
<glyph unicode="w" horiz-adv-x="749" d="M245 -10L100 355Q77 411 55 433T-5 458V478Q-2 478 4 478T18 479T30 480Q79 480 122 455T195 355L280 145L365 360Q350 395 336 415T305 446T265 458V478Q269 478 281 479T300 480Q349 480 392 455T465 355L550 145L680
470H730L535 -10H515L390 300L265 -10H245Z" />
<glyph unicode="x" horiz-adv-x="488" d="M38 0L198 225L111 370Q90 406 65 426T8 450V470H93Q127 470 155 449T206 390L268 285L398 470H448L288 245L375 100Q396 63 423 44T483 20V0H393Q359 0 331 21T280 80L218 185L88 0H38Z" />
<glyph unicode="y" horiz-adv-x="514" d="M105 -200V-170Q151 -170 183 -150T240 -65L260 -10L100 380Q85 418 57 437T-10 460V480H75Q120 480 149 459T195 400L309 123L435 470H485L290 -65Q270 -120 248 -149T198 -189T135 -200H105Z" />
<glyph unicode="z" horiz-adv-x="466" d="M44 0V19L304 430H189Q125 430 95 406T64 340H44V390Q44 410 51 428T76 458T129 470H434L164 40H434V0H44Z" />
<glyph unicode="{" horiz-adv-x="304" d="M276 -210Q216 -195 180 -171T128 -111T111 -30V110Q111 152 89 184T11 225V255Q67 263 89 295T111 370V510Q111 555 127 589T180 649T276 690V660Q224 644 208 620T191 550V380Q191 320 165 288T86 240Q139 225 165 193T191
100V-70Q191 -114 207 -140T276 -180V-210Z" />
<glyph unicode="|" horiz-adv-x="240" d="M75 -190V680H165V-190H75Z" />
<glyph unicode="}" horiz-adv-x="304" d="M28 -210V-180Q80 -166 96 -140T113 -70V100Q113 160 139 192T218 240Q165 255 139 287T113 380V550Q113 596 97 620T28 660V690Q88 675 124 650T177 590T193 510V370Q193 328 215 296T293 255V225Q237 217 215 185T193
110V-30Q193 -75 177 -110T125 -170T28 -210Z" />
<glyph unicode="~" horiz-adv-x="629" d="M450 180Q412 180 377 192T308 220T242 248T180 260Q142 260 121 240T100 190H60Q60 240 77 271T122 316T180 330Q218 330 253 318T322 290T388 262T450 250Q488 250 509 270T530 320H570Q570 270 553 239T508 194T450 180Z" />
<glyph unicode="&#xa0;" horiz-adv-x="250" />
<glyph unicode="&#xa1;" horiz-adv-x="220" d="M63 -194L81 311H139L157 -194H63ZM110 372Q88 372 72 387T56 425Q56 448 72 464T110 480Q132 480 148 464T164 425Q164 403 148 388T110 372Z" />
<glyph unicode="&#xa2;" horiz-adv-x="483" d="M240 -50V-10Q173 -4 129 29T62 117T40 235Q40 300 62 353T128 441T240 480V520H280V480Q322 480 355 471T405 445Q424 426 427 399T430 315H410Q406 379 370 409T280 440V30Q333 30 366 51T425 110L445 95Q425 61
400 39T346 4T280 -10V-50H240ZM240 35V435Q188 419 162 365T135 235Q135 162 161 106T240 35Z" />
<glyph unicode="&#xa3;" horiz-adv-x="528" d="M32 0V25Q60 33 78 54T107 115T117 220V320H47V360H117V460Q117 528 131 569T170 632T226 662T292 670Q337 670 380 662T442 635Q461 616 464 594T467 545H422Q411 594 383 612T312 630Q282 630 259 617T221 567T207
460V360H347V320H207V220Q207 148 193 106T152 40H337Q397 40 429 67T462 155H482V80Q482 60 475 42T450 12T397 0H32Z" />
<glyph unicode="&#xa4;" horiz-adv-x="576" d="M124 0V200H64V240H124V290H64V330H124V540Q124 585 112 612T54 640H34V660H294Q359 660 416 644T508 588T544 480Q544 408 509 367T416 308T294 290H214V240H474V200H214V0H124ZM214 330H294Q336 332 370 347T424
395T444 480Q444 530 423 562T367 609T289 625Q270 625 250 622T214 615V330Z" />
<glyph unicode="&#xa5;" horiz-adv-x="687" d="M339 0V145H244V185H339V225H244V265H339L169 530Q149 560 129 583T85 622T24 640V660H114Q151 660 178 644T226 603T264 550L409 325L618 660H663L429 280V265H524V225H429V185H524V145H429V0H339Z" />
<glyph unicode="&#xa6;" horiz-adv-x="246" d="M78 330V680H168V330H78ZM78 -190V160H168V-190H78Z" />
<glyph unicode="&#xa7;" horiz-adv-x="432" d="M211 -200Q169 -200 135 -190T81 -160Q62 -141 59 -117T56 -55H76Q84 -104 111 -132T181 -160Q226 -160 253 -138T281 -70Q281 -35 265 -10T222 34T166 72T111 111T68 159T51 225Q51 282 79 316T156 370Q118 395
92 431T66 520Q66 573 87 606T144 654T221 670Q263 670 297 660T351 630Q370 611 373 587T376 525H356Q348 574 321 602T251 630Q206 630 179 608T151 540Q151 505 167 480T210 436T266 398T321 359T364 311T381 245Q381 187 353 153T275 100Q313 74 339 38T366
-50Q366 -102 345 -135T289 -184T211 -200ZM237 123Q266 132 286 152T306 215Q306 257 276 288T195 347Q166 338 146 318T126 255Q126 213 156 182T237 123Z" />
<glyph unicode="&#xa8;" horiz-adv-x="310" d="M240 690Q217 690 204 703T190 740Q190 763 203 776T240 790Q263 790 276 777T290 740Q290 717 277 704T240 690ZM70 690Q47 690 34 703T20 740Q20 763 33 776T70 790Q93 790 106 777T120 740Q120 717 107 704T70 690Z" />
<glyph unicode="&#xa9;" horiz-adv-x="790" d="M395 -25Q318 -25 253 1T141 75T67 188T40 330Q40 407 66 472T140 584T253 658T395 685Q472 685 537 659T649 585T723 472T750 330Q750 253 724 188T650 76T537 2T395 -25ZM395 105Q334 105 289 134T220 214T195
327Q195 393 222 446T295 530T395 562Q449 562 488 547T544 510Q557 495 559 468T561 412H548Q536 476 503 506T415 536Q373 536 338 517T281 452T259 327Q259 278 275 233T326 160T415 132Q464 132 499 155T561 223L574 213Q542 152 498 129T395 105ZM395 15Q488
15 559 55T670 166T710 330Q710 423 670 494T559 605T395 645Q303 645 232 605T120 494T80 330Q80 237 120 166T231 55T395 15Z" />
<glyph unicode="&#xaa;" horiz-adv-x="321" d="M130 396Q115 396 97 401T65 421T51 466Q51 496 70 514T121 539T189 547H205Q205 585 198 604T178 631T149 638Q126 638 111 629T90 593H65Q65 607 66 618T79 641Q89 652 112 656T159 660Q184 660 206 652T242 620T257
547V401H227L208 426H205Q197 415 179 406T130 396ZM149 418Q169 418 183 429T205 453V525H189Q148 525 126 508T103 466Q103 440 116 429T149 418Z" />
<glyph unicode="&#xab;" horiz-adv-x="372" d="M190 30L35 225L190 420H230L135 225L230 30H190ZM275 80L175 225L275 370H315L255 225L315 80H275Z" />
<glyph unicode="&#xac;" horiz-adv-x="654" d="M528 130V230H68V290H588V130H528Z" />
<glyph unicode="&#xad;" horiz-adv-x="387" d="M66 230V300H321V230H66Z" />
<glyph unicode="&#xae;" horiz-adv-x="790" d="M395 -25Q318 -25 253 1T141 75T67 188T40 330Q40 407 66 472T140 584T253 658T395 685Q472 685 537 659T649 585T723 472T750 330Q750 253 724 188T650 76T537 2T395 -25ZM395 15Q488 15 559 55T670 166T710 330Q710
423 670 494T559 605T395 645Q303 645 232 605T120 494T80 330Q80 237 120 166T231 55T395 15ZM553 118Q522 118 498 138T442 211L375 323H327V125H269V474Q269 503 261 521T224 539H211V552H379Q400 552 427 548T481 533T524 497T541 434Q541 398 525 376T485
343T438 327L510 211Q535 171 553 156T595 137V125Q590 121 580 120T553 118ZM376 345Q394 345 417 354T458 384T476 438Q476 472 459 492T418 521T376 530Q364 530 351 528T327 523V352Q337 350 350 348T376 345Z" />
<glyph unicode="&#xaf;" horiz-adv-x="272" d="M20 733H252V700H20V733Z" />
<glyph unicode="&#xb0;" horiz-adv-x="412" d="M206 625Q247 625 276 595T306 520Q306 475 277 445T206 415Q165 415 136 445T106 520Q106 565 135 595T206 625ZM206 680Q161 680 125 659T68 602T46 520Q46 475 67 439T125 382T206 360Q251 360 287 381T345 439T366
520Q366 565 345 601T288 659T206 680Z" />
<glyph unicode="&#xb1;" horiz-adv-x="574" d="M57 60V120H257V300H57V360H257V560H317V360H517V300H317V120H517V60H57Z" />
<glyph unicode="&#xb2;" horiz-adv-x="321" d="M61 377V400Q109 447 141 479T189 539T205 602Q205 637 189 652T150 667Q122 667 103 649T77 593H65Q65 610 66 626T76 653Q89 668 112 678T163 689Q182 689 203 683T241 659T257 602Q257 563 236 532T179 471T101
399H192Q220 399 234 409T249 443H261V413Q261 399 254 388T222 377H61Z" />
<glyph unicode="&#xb3;" horiz-adv-x="311" d="M151 367Q116 367 94 380T53 416L63 425Q96 389 147 389Q174 389 192 407T211 462Q211 498 192 513T153 529Q142 529 128 528T100 523L86 547L209 658H125Q98 658 83 648T68 613H59V643Q59 657 66 668T98 680H249V662L121
547Q133 550 145 550T162 551Q183 551 206 543T246 516T263 462Q263 422 243 402T197 374T151 367Z" />
<glyph unicode="&#xb4;" horiz-adv-x="175" d="M20 700L60 830H155L60 700H20Z" />
<glyph unicode="&#xb5;" horiz-adv-x="529" d="M74 -190V470H164V235Q164 178 176 132T213 58T279 30Q320 30 344 48T384 90V470H474V0H424L389 45H384Q368 27 344 9T269 -10Q239 -10 213 1T164 35V-190H74Z" />
<glyph unicode="&#xb6;" horiz-adv-x="601" d="M258 -190V290Q193 290 141 312T58 375T28 475Q28 533 58 574T140 638T258 660H558V620H503V-190H413V620H348V-190H258Z" />
<glyph unicode="&#xb7;" horiz-adv-x="230" d="M115 276Q93 276 77 292T61 331Q61 353 77 369T115 385Q138 385 153 369T169 331Q169 308 153 292T115 276Z" />
<glyph unicode="&#xb8;" horiz-adv-x="180" d="M40 -196V-155H90Q110 -155 120 -147T130 -123Q130 -106 120 -98T90 -90H45V0H90V-50Q134 -50 157 -68T180 -123Q180 -158 157 -177T100 -196H40Z" />
<glyph unicode="&#xb9;" horiz-adv-x="212" d="M90 377V624L49 600L38 616L103 680H142V377H90Z" />
<glyph unicode="&#xba;" horiz-adv-x="335" d="M167 667Q188 667 202 653T223 608T231 528Q231 480 224 450T203 404T167 389Q147 389 133 404T112 449T104 528Q104 577 111 607T133 652T167 667ZM167 689Q107 689 80 645T52 528Q52 480 64 444T101 387T167 367Q207
367 232 387T270 443T283 528Q283 601 255 645T167 689Z" />
<glyph unicode="&#xbb;" horiz-adv-x="372" d="M142 30L237 225L142 420H182L337 225L182 30H142ZM57 80L117 225L57 370H97L197 225L97 80H57Z" />
<glyph unicode="&#xbc;" horiz-adv-x="596" d="M29 0L484 660H549L94 0H29ZM342 100H460V255L342 100ZM460 0V78H308V97L465 304H512V100H553V78H512V0H460ZM106 377V624L65 600L54 616L119 680H158V377H106Z" />
<glyph unicode="&#xbd;" horiz-adv-x="613" d="M29 0L484 660H549L94 0H29ZM363 0V23Q411 70 443 102T491 162T507 225Q507 260 491 275T452 290Q424 290 405 272T379 216H367Q367 233 368 249T378 276Q391 291 414 301T465 312Q484 312 505 306T543 282T559 225Q559
186 538 155T481 94T403 22H494Q522 22 536 32T551 66H563V36Q563 22 556 11T524 0H363ZM106 377V624L65 600L54 616L119 680H158V377H106Z" />
<glyph unicode="&#xbe;" horiz-adv-x="614" d="M58 0L513 660H578L123 0H58ZM360 100H478V255L360 100ZM478 0V78H326V97L483 304H530V100H571V78H530V0H478ZM140 367Q105 367 83 380T42 416L52 425Q85 389 136 389Q163 389 181 407T200 462Q200 498 181 513T142
529Q131 529 117 528T89 523L75 547L198 658H114Q87 658 72 648T57 613H48V643Q48 657 55 668T87 680H238V662L110 547Q122 550 134 550T151 551Q172 551 195 543T235 516T252 462Q252 422 232 402T186 374T140 367Z" />
<glyph unicode="&#xbf;" horiz-adv-x="473" d="M229 -212Q199 -212 165 -205T99 -177T49 -120T29 -22Q29 29 50 65T101 130T163 185T216 242T239 312H279Q278 263 263 229T225 167T181 113T144 55T129 -22Q129 -97 168 -134T259 -172Q319 -172 364 -129T425 -2H445Q445
-40 442 -74T420 -132Q393 -165 341 -188T229 -212ZM259 372Q236 372 220 388T204 427Q204 449 220 465T259 481Q282 481 297 465T313 427Q313 404 298 388T259 372Z" />
<glyph unicode="&#xc0;" horiz-adv-x="635" d="M622 -5Q600 -5 568 3T505 39T452 125L427 190H147L67 0H22L302 660H332L552 125Q576 69 598 47T662 20V0Q654 -2 644 -3T622 -5ZM162 230H407L287 520L162 230ZM297 700L202 830H297L337 700H297Z" />
<glyph unicode="&#xc1;" horiz-adv-x="635" d="M622 -5Q600 -5 568 3T505 39T452 125L427 190H147L67 0H22L302 660H332L552 125Q576 69 598 47T662 20V0Q654 -2 644 -3T622 -5ZM162 230H407L287 520L162 230ZM302 700L342 830H437L342 700H302Z" />
<glyph unicode="&#xc2;" horiz-adv-x="635" d="M622 -5Q600 -5 568 3T505 39T452 125L427 190H147L67 0H22L302 660H332L552 125Q576 69 598 47T662 20V0Q654 -2 644 -3T622 -5ZM162 230H407L287 520L162 230ZM182 685L262 800H372L452 685H402L317 765L232 685H182Z" />
<glyph unicode="&#xc3;" horiz-adv-x="635" d="M622 -5Q600 -5 568 3T505 39T452 125L427 190H147L67 0H22L302 660H332L552 125Q576 69 598 47T662 20V0Q654 -2 644 -3T622 -5ZM162 230H407L287 520L162 230ZM209 700Q209 753 224 774T269 795Q291 795 307 785T339
765T374 755Q385 755 394 769T404 795H434Q434 742 419 721T374 700Q353 700 337 710T305 730T269 740Q258 740 249 726T239 700H209Z" />
<glyph unicode="&#xc4;" horiz-adv-x="635" d="M622 -5Q600 -5 568 3T505 39T452 125L427 190H147L67 0H22L302 660H332L552 125Q576 69 598 47T662 20V0Q654 -2 644 -3T622 -5ZM162 230H407L287 520L162 230ZM402 690Q379 690 366 703T352 740Q352 763 365 776T402
790Q425 790 438 777T452 740Q452 717 439 704T402 690ZM232 690Q209 690 196 703T182 740Q182 763 195 776T232 790Q255 790 268 777T282 740Q282 717 269 704T232 690Z" />
<glyph unicode="&#xc5;" horiz-adv-x="636" d="M622 -5Q600 -5 568 3T505 39T452 125L427 190H147L67 0H22L287 625Q268 633 250 652T232 705Q232 739 257 764T317 790Q351 790 376 765T402 705Q402 671 384 652T347 625L552 125Q576 69 598 47T662 20V0Q654 -2
644 -3T622 -5ZM162 230H407L287 520L162 230ZM297 660H337Q348 668 355 679T362 705Q362 728 349 741T317 755Q298 755 285 742T272 705Q272 690 279 679T297 660Z" />
<glyph unicode="&#xc6;" horiz-adv-x="865" d="M-14 0L356 660H717Q752 660 770 649T795 619T802 580V505H782Q782 565 750 592T657 620H471V360H741V320H471V40H646Q714 40 753 65T816 150L836 145L801 50Q793 27 775 14T726 0H381V190H141L36 0H-14ZM166 230H381V615L166
230Z" />
<glyph unicode="&#xc7;" horiz-adv-x="665" d="M354 -20Q259 -20 190 25T82 148T44 320Q44 395 68 460T135 575T234 652T354 680Q437 680 497 657T584 600Q603 577 606 536T609 450H589Q570 548 519 594T384 640Q319 640 264 610T177 510T144 320Q144 264 157
211T200 114T274 46T384 20Q459 20 513 56T609 160L629 145Q581 51 512 16T354 -20ZM324 -196V-155H374Q394 -155 404 -147T414 -123Q414 -106 404 -98T374 -90H329V0H374V-50Q418 -50 441 -68T464 -123Q464 -158 441 -177T384 -196H324Z" />
<glyph unicode="&#xc8;" horiz-adv-x="590" d="M106 0V540Q106 585 94 612T36 640H16V660H442Q477 660 495 649T520 619T527 580V505H507Q507 565 475 592T382 620H196V360H466V320H196V40H371Q439 40 478 65T541 150L561 145L526 50Q518 27 500 14T451 0H106ZM291
700L196 830H291L331 700H291Z" />
<glyph unicode="&#xc9;" horiz-adv-x="590" d="M106 0V540Q106 585 94 612T36 640H16V660H442Q477 660 495 649T520 619T527 580V505H507Q507 565 475 592T382 620H196V360H466V320H196V40H371Q439 40 478 65T541 150L561 145L526 50Q518 27 500 14T451 0H106ZM276
700L316 830H411L316 700H276Z" />
<glyph unicode="&#xca;" horiz-adv-x="590" d="M106 0V540Q106 585 94 612T36 640H16V660H442Q477 660 495 649T520 619T527 580V505H507Q507 565 475 592T382 620H196V360H466V320H196V40H371Q439 40 478 65T541 150L561 145L526 50Q518 27 500 14T451 0H106ZM166
721L246 836H356L436 721H386L301 801L216 721H166Z" />
<glyph unicode="&#xcb;" horiz-adv-x="590" d="M106 0V540Q106 585 94 612T36 640H16V660H442Q477 660 495 649T520 619T527 580V505H507Q507 565 475 592T382 620H196V360H466V320H196V40H371Q439 40 478 65T541 150L561 145L526 50Q518 27 500 14T451 0H106ZM394
730Q375 730 362 743T349 775Q349 794 362 807T394 820Q413 820 426 807T439 775Q439 756 426 743T394 730ZM224 730Q205 730 192 743T179 775Q179 794 192 807T224 820Q243 820 256 807T269 775Q269 756 256 743T224 730Z" />
<glyph unicode="&#xcc;" horiz-adv-x="285" d="M179 0Q144 0 125 9T97 44T89 120V660H179V120Q179 75 191 48T249 20H269V0H179ZM125 700L30 830H125L165 700H125Z" />
<glyph unicode="&#xcd;" horiz-adv-x="285" d="M179 0Q144 0 125 9T97 44T89 120V660H179V120Q179 75 191 48T249 20H269V0H179ZM109 700L149 830H244L149 700H109Z" />
<glyph unicode="&#xce;" horiz-adv-x="285" d="M179 0Q144 0 125 9T97 44T89 120V660H179V120Q179 75 191 48T249 20H269V0H179ZM255 695L335 810H445L525 695H475L390 775L305 695H255Z" />
<glyph unicode="&#xcf;" horiz-adv-x="285" d="M179 0Q144 0 125 9T97 44T89 120V660H179V120Q179 75 191 48T249 20H269V0H179ZM57 715Q34 715 21 728T7 765Q7 788 20 801T57 815Q80 815 93 802T107 765Q107 742 94 729T57 715ZM211 715Q188 715 175 728T161
765Q161 788 174 801T211 815Q234 815 247 802T261 765Q261 742 248 729T211 715Z" />
<glyph unicode="&#xd0;" horiz-adv-x="715" d="M106 0V310H31V350H106V540Q106 585 94 612T36 640H16V660H278Q476 660 573 572T671 334Q671 237 630 162T507 43T304 0H106ZM301 35Q375 35 434 71T527 173T562 330Q562 419 528 485T435 588T299 625Q277 625 252
621T199 609V350H286V310H199V48Q219 44 236 41T270 37T301 35Z" />
<glyph unicode="&#xd1;" horiz-adv-x="685" d="M580 -10L150 525V0H110V540Q110 585 91 612T20 640H10V660H75Q124 660 155 644T210 600L560 165V660H600V-10H580ZM237 694Q237 747 252 768T297 789Q319 789 335 779T367 759T402 749Q413 749 422 763T432 789H462Q462
736 447 715T402 694Q381 694 365 704T333 724T297 734Q286 734 277 720T267 694H237Z" />
<glyph unicode="&#xd2;" horiz-adv-x="712" d="M356 -20Q261 -20 192 26T84 152T46 330Q46 428 84 507T191 633T356 680Q451 680 520 634T628 508T666 330Q666 232 628 153T521 27T356 -20ZM356 20Q422 20 469 58T541 165T566 330Q566 425 541 494T469 602T356
640Q291 640 244 602T171 495T146 330Q146 235 171 166T243 58T356 20ZM341 724L246 854H341L381 724H341Z" />
<glyph unicode="&#xd3;" horiz-adv-x="712" d="M356 -20Q261 -20 192 26T84 152T46 330Q46 428 84 507T191 633T356 680Q451 680 520 634T628 508T666 330Q666 232 628 153T521 27T356 -20ZM356 20Q422 20 469 58T541 165T566 330Q566 425 541 494T469 602T356
640Q291 640 244 602T171 495T146 330Q146 235 171 166T243 58T356 20ZM335 720L375 850H470L375 720H335Z" />
<glyph unicode="&#xd4;" horiz-adv-x="712" d="M356 -20Q261 -20 192 26T84 152T46 330Q46 428 84 507T191 633T356 680Q451 680 520 634T628 508T666 330Q666 232 628 153T521 27T356 -20ZM356 20Q422 20 469 58T541 165T566 330Q566 425 541 494T469 602T356
640Q291 640 244 602T171 495T146 330Q146 235 171 166T243 58T356 20ZM216 720L296 835H406L486 720H436L351 800L266 720H216Z" />
<glyph unicode="&#xd5;" horiz-adv-x="712" d="M356 -20Q261 -20 192 26T84 152T46 330Q46 428 84 507T191 633T356 680Q451 680 520 634T628 508T666 330Q666 232 628 153T521 27T356 -20ZM356 20Q422 20 469 58T541 165T566 330Q566 425 541 494T469 602T356
640Q291 640 244 602T171 495T146 330Q146 235 171 166T243 58T356 20ZM242 738Q242 791 257 812T302 833Q324 833 340 823T372 803T407 793Q418 793 427 807T437 833H467Q467 780 452 759T407 738Q386 738 370 748T338 768T302 778Q291 778 282 764T272 738H242Z"
/>
<glyph unicode="&#xd6;" horiz-adv-x="712" d="M356 -20Q261 -20 192 26T84 152T46 330Q46 428 84 507T191 633T356 680Q451 680 520 634T628 508T666 330Q666 232 628 153T521 27T356 -20ZM356 20Q422 20 469 58T541 165T566 330Q566 425 541 494T469 602T356
640Q291 640 244 602T171 495T146 330Q146 235 171 166T243 58T356 20ZM457 735Q438 735 425 748T412 780Q412 799 425 812T457 825Q476 825 489 812T502 780Q502 761 489 748T457 735ZM287 735Q268 735 255 748T242 780Q242 799 255 812T287 825Q306 825 319 812T332
780Q332 761 319 748T287 735Z" />
<glyph unicode="&#xd7;" horiz-adv-x="469" d="M93 149L51 192L192 333L51 475L93 517L235 375L376 517L418 474L277 333L418 191L376 149L234 291L93 149Z" />
<glyph unicode="&#xd8;" horiz-adv-x="712" d="M126 -20L163 48Q107 96 77 169T46 330Q46 428 84 507T191 633T356 680Q394 680 427 672T490 650L507 680H580L544 615Q602 567 634 494T666 330Q666 232 628 153T521 27T356 -20Q317 -20 282 -12T216 12L199 -20H126ZM356
20Q422 20 469 58T541 165T566 330Q566 400 552 456T511 554L242 59Q292 20 356 20ZM197 111L465 604Q419 640 356 640Q291 640 244 602T171 495T146 330Q146 193 197 111Z" />
<glyph unicode="&#xd9;" horiz-adv-x="687" d="M354 -10Q257 -10 201 23T122 121T99 285V540Q99 585 87 612T29 640H9V660H99Q134 660 153 651T181 616T189 540V255Q189 150 228 90T366 30Q443 30 487 57T550 140T569 285V660H609V285Q609 187 588 122T512 23T354
-10ZM364 680L269 810H364L404 680H364Z" />
<glyph unicode="&#xda;" horiz-adv-x="687" d="M354 -10Q257 -10 201 23T122 121T99 285V540Q99 585 87 612T29 640H9V660H99Q134 660 153 651T181 616T189 540V255Q189 150 228 90T366 30Q443 30 487 57T550 140T569 285V660H609V285Q609 187 588 122T512 23T354
-10ZM329 680L369 810H464L369 680H329Z" />
<glyph unicode="&#xdb;" horiz-adv-x="687" d="M354 -10Q257 -10 201 23T122 121T99 285V540Q99 585 87 612T29 640H9V660H99Q134 660 153 651T181 616T189 540V255Q189 150 228 90T366 30Q443 30 487 57T550 140T569 285V660H609V285Q609 187 588 122T512 23T354
-10ZM239 671L319 786H429L509 671H459L374 751L289 671H239Z" />
<glyph unicode="&#xdc;" horiz-adv-x="687" d="M354 -10Q257 -10 201 23T122 121T99 285V540Q99 585 87 612T29 640H9V660H99Q134 660 153 651T181 616T189 540V255Q189 150 228 90T366 30Q443 30 487 57T550 140T569 285V660H609V285Q609 187 588 122T512 23T354
-10ZM456 679Q437 679 424 692T411 724Q411 743 424 756T456 769Q475 769 488 756T501 724Q501 705 488 692T456 679ZM286 679Q267 679 254 692T241 724Q241 743 254 756T286 769Q305 769 318 756T331 724Q331 705 318 692T286 679Z" />
<glyph unicode="&#xdd;" horiz-adv-x="628" d="M290 0V273L120 530Q100 560 80 583T36 622T-25 640V660H65Q102 660 129 644T177 603T215 550L360 325L569 660H614L380 280V0H290ZM315 670L355 800H450L355 670H315Z" />
<glyph unicode="&#xde;" horiz-adv-x="535" d="M109 -30V600Q109 638 93 654T39 670H19V690H109Q161 690 180 671T199 600V550Q350 550 429 491T509 315Q509 198 430 139T199 80V-30H109ZM199 120Q274 120 320 145T387 214T409 315Q409 373 388 416T320 485T199 510V120Z" />
<glyph unicode="&#xdf;" horiz-adv-x="554" d="M382 -10Q344 -10 310 0T257 30Q238 49 235 70T232 110H252Q256 80 286 55T362 30Q400 30 421 50T442 100Q442 133 422 155T371 196T309 235T258 282T237 350Q237 383 248 404T277 441T311 471T340 504T352 550Q352
588 330 609T262 630Q213 630 188 603T162 500V0H72V500Q72 570 99 606T170 656T267 670Q350 670 393 643T437 570Q437 537 426 516T397 479T363 449T334 416T322 370Q322 337 342 315T394 274T455 235T506 188T527 120Q527 75 509 46T458 4T382 -10Z" />
<glyph unicode="&#xe0;" horiz-adv-x="481" d="M184 -10Q163 -10 139 -4T91 19T54 62T39 130Q39 185 74 215T168 257T294 270H324Q324 340 310 376T273 426T219 440Q177 440 149 422T109 355H64Q64 381 67 403T89 445Q108 464 151 472T239 480Q273 480 304 472T360
443T399 380T414 270V0H364L329 45H324Q309 26 275 8T184 -10ZM229 35Q266 35 287 53T324 95V230H294Q219 230 177 203T134 130Q134 81 163 58T229 35ZM219 525L124 655H219L259 525H219Z" />
<glyph unicode="&#xe1;" horiz-adv-x="481" d="M184 -10Q163 -10 139 -4T91 19T54 62T39 130Q39 185 74 215T168 257T294 270H324Q324 340 310 376T273 426T219 440Q177 440 149 422T109 355H64Q64 381 67 403T89 445Q108 464 151 472T239 480Q273 480 304 472T360
443T399 380T414 270V0H364L329 45H324Q309 26 275 8T184 -10ZM229 35Q266 35 287 53T324 95V230H294Q219 230 177 203T134 130Q134 81 163 58T229 35ZM201 525L241 655H336L241 525H201Z" />
<glyph unicode="&#xe2;" horiz-adv-x="481" d="M184 -10Q163 -10 139 -4T91 19T54 62T39 130Q39 185 74 215T168 257T294 270H324Q324 340 310 376T273 426T219 440Q177 440 149 422T109 355H64Q64 381 67 403T89 445Q108 464 151 472T239 480Q273 480 304 472T360
443T399 380T414 270V0H364L329 45H324Q309 26 275 8T184 -10ZM229 35Q266 35 287 53T324 95V230H294Q219 230 177 203T134 130Q134 81 163 58T229 35ZM105 530L185 645H295L375 530H325L240 610L155 530H105Z" />
<glyph unicode="&#xe3;" horiz-adv-x="481" d="M184 -10Q163 -10 139 -4T91 19T54 62T39 130Q39 185 74 215T168 257T294 270H324Q324 340 310 376T273 426T219 440Q177 440 149 422T109 355H64Q64 381 67 403T89 445Q108 464 151 472T239 480Q273 480 304 472T360
443T399 380T414 270V0H364L329 45H324Q309 26 275 8T184 -10ZM229 35Q266 35 287 53T324 95V230H294Q219 230 177 203T134 130Q134 81 163 58T229 35ZM123 535Q123 588 138 609T183 630Q205 630 221 620T253 600T288 590Q299 590 308 604T318 630H348Q348 577
333 556T288 535Q267 535 251 545T219 565T183 575Q172 575 163 561T153 535H123Z" />
<glyph unicode="&#xe4;" horiz-adv-x="481" d="M184 -10Q163 -10 139 -4T91 19T54 62T39 130Q39 185 74 215T168 257T294 270H324Q324 340 310 376T273 426T219 440Q177 440 149 422T109 355H64Q64 381 67 403T89 445Q108 464 151 472T239 480Q273 480 304 472T360
443T399 380T414 270V0H364L329 45H324Q309 26 275 8T184 -10ZM229 35Q266 35 287 53T324 95V230H294Q219 230 177 203T134 130Q134 81 163 58T229 35ZM324 535Q305 535 292 548T279 580Q279 599 292 612T324 625Q343 625 356 612T369 580Q369 561 356 548T324
535ZM154 535Q135 535 122 548T109 580Q109 599 122 612T154 625Q173 625 186 612T199 580Q199 561 186 548T154 535Z" />
<glyph unicode="&#xe5;" horiz-adv-x="481" d="M184 -10Q163 -10 139 -4T91 19T54 62T39 130Q39 185 74 215T168 257T294 270H324Q324 340 310 376T273 426T219 440Q177 440 149 422T109 355H64Q64 381 67 403T89 445Q108 464 151 472T239 480Q273 480 304 472T360
443T399 380T414 270V0H364L329 45H324Q309 26 275 8T184 -10ZM229 35Q266 35 287 53T324 95V230H294Q219 230 177 203T134 130Q134 81 163 58T229 35ZM234 530Q200 530 175 555T149 615Q149 649 174 674T234 700Q268 700 293 675T319 615Q319 581 294 556T234
530ZM234 565Q253 565 266 578T279 615Q279 638 266 651T234 665Q215 665 202 652T189 615Q189 592 202 579T234 565Z" />
<glyph unicode="&#xe6;" horiz-adv-x="759" d="M199 -10Q164 -10 127 2T65 43T39 125Q39 177 74 206T168 248T294 260H324Q324 335 310 374T273 426T219 440Q177 440 149 422T109 355H64Q64 410 82 436T140 471T239 480Q292 480 328 454T379 390Q394 428 429 454T514
480Q582 480 626 455T692 380T714 260L712 220H414Q414 138 449 84T549 30Q598 30 630 51T689 110L709 95Q687 57 660 34T600 1T529 -10Q412 -10 359 75Q337 34 301 12T199 -10ZM229 35Q266 35 287 53T324 95V220H294Q244 220 208 208T153 175T134 125Q134 80 162
58T229 35ZM414 260H624Q624 343 598 389T519 435Q489 435 466 412T428 350T414 260Z" />
<glyph unicode="&#xe7;" horiz-adv-x="483" d="M265 -10Q191 -10 142 23T69 112T45 235Q45 303 69 358T142 447T265 480Q318 480 354 472T410 445Q429 426 432 399T435 315H415Q411 379 375 409T285 440Q235 440 203 413T156 339T140 235Q140 178 155 132T203
58T285 30Q338 30 371 51T430 110L450 95Q428 57 400 34T339 1T265 -10ZM231 -196V-155H281Q301 -155 311 -147T321 -123Q321 -106 311 -98T281 -90H236V0H281V-50Q325 -50 348 -68T371 -123Q371 -158 348 -177T291 -196H231Z" />
<glyph unicode="&#xe8;" horiz-adv-x="488" d="M255 -10Q185 -10 139 23T69 112T45 235Q45 303 69 358T138 447T245 480Q313 480 357 455T423 380T445 260L443 220H140Q140 138 175 84T275 30Q324 30 356 51T415 110L435 95Q413 57 386 34T326 1T255 -10ZM140
260H350Q350 347 324 393T245 440Q215 440 192 417T154 353T140 260ZM230 525L135 655H230L270 525H230Z" />
<glyph unicode="&#xe9;" horiz-adv-x="488" d="M255 -10Q185 -10 139 23T69 112T45 235Q45 303 69 358T138 447T245 480Q313 480 357 455T423 380T445 260L443 220H140Q140 138 175 84T275 30Q324 30 356 51T415 110L435 95Q413 57 386 34T326 1T255 -10ZM140
260H350Q350 347 324 393T245 440Q215 440 192 417T154 353T140 260ZM219 524L259 654H354L259 524H219Z" />
<glyph unicode="&#xea;" horiz-adv-x="488" d="M255 -10Q185 -10 139 23T69 112T45 235Q45 303 69 358T138 447T245 480Q313 480 357 455T423 380T445 260L443 220H140Q140 138 175 84T275 30Q324 30 356 51T415 110L435 95Q413 57 386 34T326 1T255 -10ZM140
260H350Q350 347 324 393T245 440Q215 440 192 417T154 353T140 260ZM115 530L195 645H305L385 530H335L250 610L165 530H115Z" />
<glyph unicode="&#xeb;" horiz-adv-x="488" d="M255 -10Q185 -10 139 23T69 112T45 235Q45 303 69 358T138 447T245 480Q313 480 357 455T423 380T445 260L443 220H140Q140 138 175 84T275 30Q324 30 356 51T415 110L435 95Q413 57 386 34T326 1T255 -10ZM140
260H350Q350 347 324 393T245 440Q215 440 192 417T154 353T140 260ZM325 545Q306 545 293 558T280 590Q280 609 293 622T325 635Q344 635 357 622T370 590Q370 571 357 558T325 545ZM155 545Q136 545 123 558T110 590Q110 609 123 622T155 635Q174 635 187 622T200
590Q200 571 187 558T155 545Z" />
<glyph unicode="&#xec;" horiz-adv-x="246" d="M87 0V350Q87 395 75 422T17 450H-3V470H87Q122 470 141 461T169 426T177 350V0H87ZM117 525L22 655H117L157 525H117Z" />
<glyph unicode="&#xed;" horiz-adv-x="246" d="M87 0V350Q87 395 75 422T17 450H-3V470H87Q122 470 141 461T169 426T177 350V0H87ZM93 525L133 655H228L133 525H93Z" />
<glyph unicode="&#xee;" horiz-adv-x="246" d="M87 0V350Q87 395 75 422T17 450H-3V470H87Q122 470 141 461T169 426T177 350V0H87ZM-11 531L69 646H179L259 531H209L124 611L39 531H-11Z" />
<glyph unicode="&#xef;" horiz-adv-x="246" d="M87 0V350Q87 395 75 422T17 450H-3V470H87Q122 470 141 461T169 426T177 350V0H87ZM52 540Q29 540 13 559T-4 604Q-4 625 8 637T42 649Q65 649 81 630T98 585Q98 564 86 552T52 540ZM206 540Q183 540 167 559T150
604Q150 625 162 637T196 649Q219 649 235 630T252 585Q252 564 240 552T206 540Z" />
<glyph unicode="&#xf0;" horiz-adv-x="537" d="M264 -10Q194 -10 145 23T70 112T44 235Q44 303 70 358T145 447T264 480Q306 480 340 459T394 400Q383 453 367 491T324 560L284 520L254 550L294 590Q271 613 247 624T184 635Q172 635 159 633T140 629L132 648Q152
662 175 666T224 670Q254 670 283 660T339 630L374 670L404 640L369 605Q422 552 453 468T484 270Q484 143 427 67T264 -10ZM264 30Q302 30 330 57T373 131T389 235Q389 293 374 339T330 412T264 440Q227 440 199 413T155 339T139 235Q139 178 154 132T198 58T264
30Z" />
<glyph unicode="&#xf1;" horiz-adv-x="544" d="M87 0V350Q87 395 75 422T17 450H-3V470H87Q125 470 144 460T172 430Q192 447 227 463T307 480Q350 480 388 465T452 412T477 300V0H387V300Q387 350 371 379T330 422T277 435Q247 435 222 419T177 382V0H87ZM169
544Q169 597 184 618T229 639Q251 639 267 629T299 609T334 599Q345 599 354 613T364 639H394Q394 586 379 565T334 544Q313 544 297 554T265 574T229 584Q218 584 209 570T199 544H169Z" />
<glyph unicode="&#xf2;" horiz-adv-x="530" d="M265 -10Q195 -10 146 23T71 112T45 235Q45 303 71 358T146 447T265 480Q335 480 384 447T459 359T485 235Q485 168 459 112T384 23T265 -10ZM265 30Q303 30 331 57T374 131T390 235Q390 293 375 339T331 412T265
440Q228 440 200 413T156 339T140 235Q140 178 155 132T199 58T265 30ZM255 525L160 655H255L295 525H255Z" />
<glyph unicode="&#xf3;" horiz-adv-x="530" d="M265 -10Q195 -10 146 23T71 112T45 235Q45 303 71 358T146 447T265 480Q335 480 384 447T459 359T485 235Q485 168 459 112T384 23T265 -10ZM265 30Q303 30 331 57T374 131T390 235Q390 293 375 339T331 412T265
440Q228 440 200 413T156 339T140 235Q140 178 155 132T199 58T265 30ZM233 524L273 654H368L273 524H233Z" />
<glyph unicode="&#xf4;" horiz-adv-x="530" d="M265 -10Q195 -10 146 23T71 112T45 235Q45 303 71 358T146 447T265 480Q335 480 384 447T459 359T485 235Q485 168 459 112T384 23T265 -10ZM265 30Q303 30 331 57T374 131T390 235Q390 293 375 339T331 412T265
440Q228 440 200 413T156 339T140 235Q140 178 155 132T199 58T265 30ZM131 524L211 639H321L401 524H351L266 604L181 524H131Z" />
<glyph unicode="&#xf5;" horiz-adv-x="530" d="M265 -10Q195 -10 146 23T71 112T45 235Q45 303 71 358T146 447T265 480Q335 480 384 447T459 359T485 235Q485 168 459 112T384 23T265 -10ZM265 30Q303 30 331 57T374 131T390 235Q390 293 375 339T331 412T265
440Q228 440 200 413T156 339T140 235Q140 178 155 132T199 58T265 30ZM153 535Q153 588 168 609T213 630Q235 630 251 620T283 600T318 590Q329 590 338 604T348 630H378Q378 577 363 556T318 535Q297 535 281 545T249 565T213 575Q202 575 193 561T183 535H153Z"
/>
<glyph unicode="&#xf6;" horiz-adv-x="530" d="M265 -10Q195 -10 146 23T71 112T45 235Q45 303 71 358T146 447T265 480Q335 480 384 447T459 359T485 235Q485 168 459 112T384 23T265 -10ZM265 30Q303 30 331 57T374 131T390 235Q390 293 375 339T331 412T265
440Q228 440 200 413T156 339T140 235Q140 178 155 132T199 58T265 30ZM350 535Q331 535 318 548T305 580Q305 599 318 612T350 625Q369 625 382 612T395 580Q395 561 382 548T350 535ZM180 535Q161 535 148 548T135 580Q135 599 148 612T180 625Q199 625 212 612T225
580Q225 561 212 548T180 535Z" />
<glyph unicode="&#xf7;" horiz-adv-x="564" d="M62 300V360H502V300H62ZM282 145Q263 145 250 158T237 190Q237 209 250 222T282 235Q301 235 314 222T327 190Q327 171 314 158T282 145ZM282 425Q263 425 250 438T237 470Q237 489 250 502T282 515Q301 515 314
502T327 470Q327 451 314 438T282 425Z" />
<glyph unicode="&#xf8;" horiz-adv-x="530" d="M265 -10Q232 -10 204 -2T151 20L138 0H65L105 58Q45 127 45 235Q45 303 71 358T146 447T265 480Q298 480 326 472T378 450L392 470H465L424 411Q453 378 469 333T485 235Q485 168 459 112T384 23T265 -10ZM265 30Q303
30 331 57T374 131T390 235Q390 294 374 339L187 71Q219 30 265 30ZM156 131L343 399Q327 419 308 429T265 440Q228 440 200 413T156 339T140 235Q140 206 144 180T156 131Z" />
<glyph unicode="&#xf9;" horiz-adv-x="535" d="M243 -10Q201 -10 162 5T98 59T73 170V350Q73 395 61 422T3 450H-7V470H73Q108 470 127 461T155 426T163 350V170Q163 120 179 91T220 48T273 35Q293 35 311 42T345 62T373 88V470H463V0H413L378 40H373Q354 21 321
6T243 -10ZM254 500L159 630H254L294 500H254Z" />
<glyph unicode="&#xfa;" horiz-adv-x="535" d="M243 -10Q201 -10 162 5T98 59T73 170V350Q73 395 61 422T3 450H-7V470H73Q108 470 127 461T155 426T163 350V170Q163 120 179 91T220 48T273 35Q293 35 311 42T345 62T373 88V470H463V0H413L378 40H373Q354 21 321
6T243 -10ZM240 500L280 630H375L280 500H240Z" />
<glyph unicode="&#xfb;" horiz-adv-x="535" d="M243 -10Q201 -10 162 5T98 59T73 170V350Q73 395 61 422T3 450H-7V470H73Q108 470 127 461T155 426T163 350V170Q163 120 179 91T220 48T273 35Q293 35 311 42T345 62T373 88V470H463V0H413L378 40H373Q354 21 321
6T243 -10ZM123 530L203 645H313L393 530H343L258 610L173 530H123Z" />
<glyph unicode="&#xfc;" horiz-adv-x="535" d="M243 -10Q201 -10 162 5T98 59T73 170V350Q73 395 61 422T3 450H-7V470H73Q108 470 127 461T155 426T163 350V170Q163 120 179 91T220 48T273 35Q293 35 311 42T345 62T373 88V470H463V0H413L378 40H373Q354 21 321
6T243 -10ZM343 520Q324 520 311 533T298 565Q298 584 311 597T343 610Q362 610 375 597T388 565Q388 546 375 533T343 520ZM173 520Q154 520 141 533T128 565Q128 584 141 597T173 610Q192 610 205 597T218 565Q218 546 205 533T173 520Z" />
<glyph unicode="&#xfd;" horiz-adv-x="514" d="M105 -200V-170Q151 -170 183 -150T240 -65L260 -10L100 380Q85 418 57 437T-10 460V480H75Q120 480 149 459T195 400L309 123L435 470H485L290 -65Q270 -120 248 -149T198 -189T135 -200H105ZM259 500L299 630H394L299
500H259Z" />
<glyph unicode="&#xfe;" horiz-adv-x="523" d="M72 -190V540Q72 585 60 612T2 640H-13V660H72Q107 660 126 651T154 616T162 540V425Q177 444 209 462T297 480Q357 480 397 447T457 359T477 235Q477 168 457 112T394 23T287 -10Q245 -10 215 -1T162 20V-190H72ZM257
30Q302 30 329 57T369 131T382 235Q382 293 370 339T333 412T267 440Q226 440 201 422T162 380V60Q185 49 209 40T257 30Z" />
<glyph unicode="&#xff;" horiz-adv-x="514" d="M105 -200V-170Q151 -170 183 -150T240 -65L260 -10L100 380Q85 418 57 437T-10 460V480H75Q120 480 149 459T195 400L309 123L435 470H485L290 -65Q270 -120 248 -149T198 -189T135 -200H105ZM375 520Q356 520 343
533T330 565Q330 584 343 597T375 610Q394 610 407 597T420 565Q420 546 407 533T375 520ZM205 520Q186 520 173 533T160 565Q160 584 173 597T205 610Q224 610 237 597T250 565Q250 546 237 533T205 520Z" />
<glyph unicode="&#x2013;" horiz-adv-x="610" d="M70 230V290H540V230H70Z" />
<glyph unicode="&#x2014;" horiz-adv-x="872" d="M66 230V290H806V230H66Z" />
<glyph unicode="&#x2018;" horiz-adv-x="226" d="M116 425Q86 425 69 443T51 495Q51 559 79 604T161 680L171 665Q146 648 128 628T101 584T91 530L121 540Q144 540 160 524T176 485Q176 459 159 442T116 425Z" />
<glyph unicode="&#x2019;" horiz-adv-x="228" d="M72 425L62 440Q88 458 105 477T132 521T142 575L112 565Q89 565 73 581T57 620Q57 646 74 663T117 680Q147 680 164 662T182 610Q182 546 154 501T72 425Z" />
<glyph unicode="&#x201a;" horiz-adv-x="237" d="M71 -155L61 -140Q87 -123 104 -103T131 -59T141 -5L111 -15Q88 -15 72 1T56 40Q56 66 73 83T116 100Q146 100 163 82T181 30Q181 -34 153 -79T71 -155Z" />
<glyph unicode="&#x201c;" horiz-adv-x="406" d="M296 425Q266 425 249 443T231 495Q231 559 259 604T341 680L351 665Q326 648 308 628T281 584T271 530L301 540Q324 540 340 524T356 485Q356 459 339 442T296 425ZM116 425Q86 425 69 443T51 495Q51 559 79 604T161
680L171 665Q146 648 128 628T101 584T91 530L121 540Q144 540 160 524T176 485Q176 459 159 442T116 425Z" />
<glyph unicode="&#x201d;" horiz-adv-x="408" d="M252 425L242 440Q268 458 285 477T312 521T322 575L292 565Q269 565 253 581T237 620Q237 646 254 663T297 680Q327 680 344 662T362 610Q362 546 334 501T252 425ZM72 425L62 440Q88 458 105 477T132 521T142
575L112 565Q89 565 73 581T57 620Q57 646 74 663T117 680Q147 680 164 662T182 610Q182 546 154 501T72 425Z" />
<glyph unicode="&#x201e;" horiz-adv-x="417" d="M251 -155L241 -140Q267 -123 284 -103T311 -59T321 -5L291 -15Q268 -15 252 1T236 40Q236 66 253 83T296 100Q326 100 343 82T361 30Q361 -34 333 -79T251 -155ZM71 -155L61 -140Q87 -123 104 -103T131 -59T141
-5L111 -15Q88 -15 72 1T56 40Q56 66 73 83T116 100Q146 100 163 82T181 30Q181 -34 153 -79T71 -155Z" />
<glyph unicode="&#x2022;" horiz-adv-x="340" d="M170 210Q117 210 84 243T50 330Q50 383 83 416T170 450Q223 450 256 417T290 330Q290 277 257 244T170 210Z" />
<glyph unicode="&#x2039;" horiz-adv-x="302" d="M209 30L34 225L209 420H249L139 225L249 30H209Z" />
<glyph unicode="&#x203a;" horiz-adv-x="302" d="M53 30L163 225L53 420H93L268 225L93 30H53Z" />
</font>
</defs>
</svg>
