<?xml version="1.0" standalone="no"?>
<!DOCTYPE svg PUBLIC "-//W3C//DTD SVG 1.1//EN" "http://www.w3.org/Graphics/SVG/1.1/DTD/svg11.dtd">
<svg xmlns="http://www.w3.org/2000/svg">
<defs >
<font id="PlaypenSans" horiz-adv-x="610" ><font-face
    font-family="Playpen Sans"
    units-per-em="1000"
    panose-1="0 0 0 0 0 0 0 0 0 0"
    ascent="1170"
    descent="-340"
    alphabetic="0" />
<glyph unicode=" " horiz-adv-x="424" />
<glyph unicode="!" horiz-adv-x="300" d="M147 203Q119 203 110 222T101 266Q102 273 103 300T105 370T109 462T112 563T115 659T118 736Q118 757 131 767T163 778Q180 778 193 768T206 736Q203 668 201 620T198 533T196 455T194 366T191 245Q190 226 178 215T147
203ZM142 -18Q118 -17 103 3T87 48Q87 71 101 88T145 105Q169 106 183 87T198 42Q198 17 183 0T142 -18Z" />
<glyph unicode="&quot;" horiz-adv-x="413" d="M93 744Q95 764 107 774T138 785Q156 785 170 775T182 744Q180 723 176 690T168 624T163 571Q162 551 153 541T126 530Q107 530 97 540T87 571Q87 608 88 654T93 744ZM256 744Q258 764 270 774T301 785Q319 785 333
775T345 744Q343 723 339 690T331 624T326 571Q325 551 316 541T289 530Q270 530 260 540T250 571Q250 608 251 654T256 744Z" />
<glyph unicode="#" horiz-adv-x="607" d="M198 631Q200 646 210 652T233 659Q252 659 267 646T278 610Q255 468 231 327T183 44Q181 28 171 22T148 15Q130 15 115 28T103 64Q127 206 151 347T198 631ZM414 663Q417 678 427 684T451 691Q470 691 484 678T494 642Q462
503 431 363T366 82Q363 69 353 62T330 55Q311 55 297 68T287 103Q319 244 351 383T414 663ZM76 431Q58 432 48 444T38 473Q38 488 48 499T76 510L535 491Q553 490 563 479T573 451Q573 435 563 424T535 413L76 431ZM74 174Q52 174 40 189T29 222Q30 236 38 244T61
253L497 265Q519 266 531 251T541 216Q541 209 538 203T527 192T509 187Q440 185 366 183T218 179T74 174Z" />
<glyph unicode="$" horiz-adv-x="604" d="M523 683Q537 666 537 654Q537 642 531 632T515 615T495 608Q488 608 480 611T466 621Q438 649 406 663T329 677Q286 677 253 664T200 629T181 577Q181 552 196 531T246 489T340 448Q408 425 452 393T519 323T541 238Q541
179 510 135T424 67T293 42Q245 42 205 50T132 75T74 113Q67 120 62 128T57 145Q57 156 63 165T78 181T99 188Q110 188 118 184T138 168Q151 157 176 147T231 131T289 125Q363 125 408 153T454 231Q454 261 439 284T388 329T286 375Q222 399 179 427T115 491T93
571Q93 624 123 666T208 734T331 759Q371 759 407 750T473 724T523 683ZM291 819Q291 834 296 843T311 857T332 862Q350 862 362 852T375 819Q374 763 369 681T358 503T345 310T334 126T329 -27Q329 -48 317 -58T288 -69Q270 -69 258 -59T246 -27Q246 38 250 125T261
310T274 502T285 680T291 819Z" />
<glyph unicode="%" horiz-adv-x="868" d="M668 -14Q629 -14 599 3T547 49T515 112T504 182Q504 240 523 283T588 362Q595 367 600 369T610 371Q621 371 631 364T641 343Q641 333 638 323T628 307Q608 285 597 268T583 232T579 186Q579 156 585 133T604 92T632
66T669 57Q695 57 717 72T753 117T767 187Q767 220 759 246T737 289T703 316T661 326Q654 326 647 325T631 322Q614 318 604 329T594 356Q594 382 620 390Q631 394 640 395T661 397Q703 397 736 380T793 334T829 266T842 186Q842 152 830 117T796 53T741 5T668
-14ZM200 378Q143 378 106 405T52 478T34 577Q34 613 43 651T73 721T124 772T198 792Q250 792 288 766T347 697T369 602Q369 563 359 523T327 451T274 398T200 378ZM108 575Q108 515 131 482T194 449Q230 449 252 473T285 532T295 596Q295 634 282 662T248 705T199
721Q160 721 134 681T108 575ZM658 816Q669 836 683 840T711 836Q727 828 730 816T723 784Q691 735 651 672T567 536T476 387T387 235T305 92T236 -32Q226 -51 212 -54T183 -51Q167 -42 164 -30T170 1Q201 59 240 128T324 272T414 424T504 572T588 706T658 816Z"
/>
<glyph unicode="&amp;" horiz-adv-x="760" d="M693 77Q704 71 709 62T715 41Q715 23 705 11T679 -4T646 2Q601 26 550 64T448 144T360 222T304 281Q278 313 251 352T200 432T163 512T149 585Q149 631 175 670T242 734T330 758Q373 758 407 734T460 673T480 598Q480
554 456 515T395 440T315 370Q275 338 239 300T179 224T156 151Q156 115 183 98T262 80Q299 80 327 90T383 125T449 198Q480 239 510 281T578 367Q584 375 591 377T605 379Q617 379 628 373T646 355T653 332Q653 325 650 318T641 304Q633 294 629 289T619 276T603
255Q581 228 561 199T518 141Q490 106 463 79T406 34T341 6T260 -4Q221 -4 186 5T123 33T79 80T63 145Q63 184 80 224T127 305T195 382T273 450Q314 482 339 508T377 556T390 599Q390 619 382 636T359 663T327 674Q303 674 284 661T253 627T241 583Q241 550 269
495T358 353Q373 333 414 295T508 214Q544 185 579 158T645 109T693 77Z" />
<glyph unicode="&apos;" horiz-adv-x="250" d="M93 744Q95 764 107 774T138 785Q156 785 170 775T182 744Q180 723 176 690T168 624T163 571Q162 551 153 541T126 530Q107 530 97 540T87 571Q87 608 88 654T93 744Z" />
<glyph unicode="(" horiz-adv-x="397" d="M231 855Q238 866 247 871T266 876Q284 876 298 864T313 834Q313 828 312 822T307 811Q237 696 200 566T163 312Q163 199 188 98T252 -88Q257 -100 259 -108T261 -124Q261 -137 255 -147T240 -162T220 -168Q210 -168 198
-163T181 -146Q150 -81 127 -10T90 138T77 297Q77 452 118 595T231 855Z" />
<glyph unicode=")" horiz-adv-x="390" d="M129 806Q125 814 125 821T124 831Q124 844 131 852T147 864T166 869Q177 869 186 862T204 838Q224 802 243 751T276 639T299 518T308 400Q308 314 296 223T258 45T195 -115Q182 -140 170 -156T141 -171Q127 -170 117
-164T103 -149T98 -134Q98 -126 99 -118T108 -97Q144 -31 169 44T207 207T220 396Q220 466 209 535T178 672T129 806Z" />
<glyph unicode="*" horiz-adv-x="507" d="M238 797Q239 815 250 823T277 831Q291 831 303 823T314 796L306 475Q305 459 293 450T267 440Q253 440 242 449T231 475L238 797ZM405 789Q410 792 415 794T425 796Q441 796 450 785T460 760Q460 750 456 743T442 729Q391
695 339 660T234 590T129 520Q124 518 119 517T109 515Q100 515 92 520T79 535T74 552Q74 571 91 582L405 789ZM128 714Q120 720 116 727T112 743Q112 758 122 770T146 782Q151 782 156 781T166 775L409 601Q417 595 421 588T425 572Q425 556 415 545T390 534Q386
534 381 535T369 541L128 714Z" />
<glyph unicode="+" horiz-adv-x="650" d="M367 130Q367 110 354 100T324 89Q307 89 293 99T279 130Q279 155 279 194T280 278T281 368T282 453T281 517Q280 538 294 548T325 558Q342 558 355 548T369 517Q370 494 370 457T371 375T370 284T369 198T367 130ZM132
281Q112 281 102 292T91 321Q91 338 101 351T132 365Q158 365 202 365T297 365T396 363T478 362T520 361Q540 361 550 349T560 320Q560 303 550 291T520 279Q514 279 482 279T403 279T304 280T206 281T132 281Z" />
<glyph unicode="," horiz-adv-x="268" d="M88 63Q88 85 100 96T137 108Q159 108 171 95T183 63Q183 23 175 -18T149 -96T103 -163Q96 -170 88 -173T71 -176Q62 -176 53 -171T38 -158T32 -138Q32 -129 37 -119T50 -100Q71 -71 79 -34T88 63Z" />
<glyph unicode="-" horiz-adv-x="482" d="M124 278Q105 277 93 288T81 321Q81 340 94 353T124 366Q141 367 175 368T247 369T316 370T360 369Q380 368 390 358T401 330Q401 312 391 296T360 281Q348 282 317 282T247 282T175 281T124 278Z" />
<glyph unicode="." horiz-adv-x="264" d="M123 -20Q101 -19 83 -5T65 36Q65 49 72 64T94 91T132 103Q161 103 172 83T183 45Q183 19 166 0T123 -20Z" />
<glyph unicode="/" horiz-adv-x="410" d="M311 814Q318 836 334 842T367 843Q384 839 393 825T395 789Q374 735 349 664T297 510T243 343T191 175T143 19T105 -110Q99 -131 83 -137T51 -140Q34 -135 24 -121T20 -86Q36 -30 58 43T105 198T158 366T212 534T265
688T311 814Z" />
<glyph unicode="0" horiz-adv-x="731" d="M376 -16Q295 -16 236 15T137 101T79 226T59 372Q59 447 78 518T136 648T233 740T367 775Q383 775 401 773T440 767T484 755Q551 712 593 645T657 500T678 346Q678 273 659 208T602 93T508 13T376 -16ZM150 380Q150 325
162 271T200 171T269 98T376 70Q442 70 488 104T560 199T585 343Q585 410 567 477T516 599T435 679Q419 684 402 686T368 689Q314 689 276 666T214 607T175 528T156 446T150 380Z" />
<glyph unicode="1" horiz-adv-x="449" d="M105 479Q99 476 93 475T82 473Q70 473 60 480T45 500T39 523Q39 534 44 542T60 557Q107 581 153 613T240 682T311 760Q317 768 325 770T341 773Q353 773 364 768T383 754T391 732Q391 728 389 722T385 707Q363 628 347
543T322 368T313 184Q313 131 314 97T318 31Q319 20 313 10T296 -5T271 -11Q250 -11 239 2T225 37T221 83Q221 167 223 239T232 378T250 511T281 649L307 625Q262 580 212 544T105 479Z" />
<glyph unicode="2" horiz-adv-x="708" d="M67 555Q71 599 94 638T155 706T237 752T332 769Q385 769 433 752T520 704T581 627T604 524Q604 464 580 407T514 295T419 194T307 105Q349 106 387 104T462 98T532 89T598 79Q621 75 634 64T646 32Q645 10 628 -1T590
-10Q538 -2 467 8T316 19Q290 20 263 18T214 12T182 6Q168 -6 156 -10T133 -15Q115 -15 102 -4T88 25Q87 36 92 47T111 66Q183 109 254 163T384 278T478 398T513 512Q513 560 491 599T429 661T333 684Q295 684 258 668T192 621T155 548Q152 532 140 523T111 513Q93
513 80 524T67 555Z" />
<glyph unicode="3" horiz-adv-x="660" d="M125 587Q115 587 106 592T90 608T83 632Q83 645 91 659T114 688Q166 740 213 758T306 777Q360 777 401 756T471 699T514 621T529 536Q529 498 514 462T469 398Q514 379 543 348T585 278T599 196Q599 142 573 94T492 16T351
-14Q308 -14 263 -4T174 29T94 88Q87 96 84 104T81 122Q81 133 86 142T101 158T123 164Q148 164 181 130Q190 122 216 108T278 82T352 71Q413 71 446 92T492 145T506 210Q506 257 477 295T388 342Q362 330 332 325T274 318T230 320Q209 324 198 335T187 360Q187
377 200 391T236 413Q268 424 305 427T383 426Q412 443 425 472T439 536Q439 560 431 587T405 638T361 677T299 692Q259 692 227 670T168 613Q161 603 149 595T125 587Z" />
<glyph unicode="4" horiz-adv-x="661" d="M544 179Q537 179 509 180T438 182T347 186T248 190T155 194T81 197Q58 198 49 209T39 234Q39 241 41 249T46 266T53 283Q57 294 72 331T109 422T155 534T202 650T240 748Q246 764 257 771T282 779Q301 779 315 768T330
737Q330 734 329 727T323 709Q303 657 285 610T248 518T212 428T175 337T133 240L108 281Q208 277 324 274T560 265Q580 264 591 254T602 224Q602 205 594 195T572 182T544 179ZM454 -18Q435 -18 422 -8T408 23Q409 112 412 201T421 381T435 559Q437 572 444 581T461
596T483 602Q506 602 517 585T527 545Q520 473 516 420T508 321T504 233T501 139T499 23Q499 3 486 -7T454 -18Z" />
<glyph unicode="5" horiz-adv-x="643" d="M171 723Q174 737 185 744T210 752Q239 753 249 737T258 709Q257 700 251 666T237 585T220 489T201 400L166 407Q216 445 264 460T347 476Q416 476 468 445T550 360T580 238Q580 169 552 111T470 18T334 -18Q294 -18 256
-12T183 8T120 38Q110 43 105 53T100 73Q100 81 105 92T118 111T140 119Q148 119 157 116T174 109Q198 97 223 88T276 73T335 67Q388 67 421 91T471 155T487 239Q487 273 473 308T427 367T340 391Q293 391 255 376T170 322Q159 314 148 314Q136 314 126 320T110
338T108 367Q121 426 131 485T151 605T171 723ZM141 720Q141 734 147 743T164 758T184 762Q214 761 254 761T340 762T432 765T520 772Q540 774 550 762T560 731Q560 712 550 701T518 688Q473 684 420 681T310 676T195 675Q184 676 171 679T150 693T141 720Z" />
<glyph unicode="6" horiz-adv-x="701" d="M490 785Q498 788 504 789T517 791Q536 791 549 778T562 744Q562 728 550 719T523 704Q469 683 412 645T306 554T227 435T196 292Q196 254 208 216T244 146T301 95T377 76Q429 76 469 102T531 167T554 248Q554 286 536
322T481 383T391 408Q342 408 293 391T201 344T131 271Q126 264 120 259T108 251T94 248Q78 248 67 260T55 292Q55 302 59 312T73 334T96 357Q133 391 181 422T285 472T394 492Q456 492 502 471T581 414T629 336T645 251Q645 201 626 154T570 70T485 12T378 -10Q322
-10 273 14T186 80T127 174T106 283Q106 369 137 447T223 592T346 708T490 785Z" />
<glyph unicode="7" horiz-adv-x="569" d="M86 657Q65 657 55 669T45 701Q45 719 55 732T84 745Q148 745 219 747T361 756T496 772Q513 775 523 770T539 754T544 731Q544 725 543 719T538 708Q468 580 410 464T299 233T196 -4Q191 -17 180 -22T156 -27Q142 -27
132 -21T116 -6T110 14Q110 20 112 26T116 37Q164 153 217 268T331 502T465 750L505 687Q437 676 369 669T230 659T86 657Z" />
<glyph unicode="8" horiz-adv-x="625" d="M67 175Q67 225 88 267T144 343T223 405Q153 444 118 489T83 596Q83 651 114 692T194 756T301 779Q363 779 412 758T490 698T519 609Q519 550 476 502T364 409Q421 381 463 347T529 272T553 183Q553 138 532 101T476 38T396
-2T304 -15Q226 -12 173 13T94 80T67 175ZM159 172Q159 132 182 110T240 78T307 69Q354 69 388 85T442 128T461 184Q461 214 439 245T379 306T293 359Q242 324 213 293T172 231T159 172ZM291 454Q350 490 389 530T428 608Q428 633 412 652T366 684T296 696Q264
696 236 684T191 650T174 596Q174 554 205 517T291 454Z" />
<glyph unicode="9" horiz-adv-x="585" d="M458 463L476 377Q450 351 419 330T352 297T282 284Q214 284 165 316T90 401T64 512Q64 581 92 640T171 736T293 772Q347 772 390 747T464 681T511 590T527 490Q527 420 509 354T457 228T379 120T282 39T171 -8Q138 -15
122 -2T106 34Q106 48 113 59T135 73Q193 87 247 126T344 223T412 347T437 482Q437 515 428 551T401 618T354 668T288 687Q251 687 221 664T172 602T154 516Q154 475 171 441T218 388T285 368Q318 368 351 378T413 410T458 463Z" />
<glyph unicode=":" horiz-adv-x="285" d="M164 427Q132 427 112 445T91 494Q91 513 106 526T144 540Q171 540 189 521T208 476Q208 462 202 451T187 434T164 427ZM139 -10Q113 -10 95 5T76 42Q76 68 92 85T133 102Q157 102 173 85T189 45Q189 23 174 7T139 -10Z" />
<glyph unicode=";" horiz-adv-x="285" d="M76 -182Q65 -182 56 -177T42 -163T37 -144Q37 -134 42 -123T52 -102Q69 -74 77 -35T86 63Q86 85 98 96T129 108Q151 108 164 95T178 63Q181 23 174 -19T150 -100T108 -169Q102 -176 93 -179T76 -182ZM149 413Q135 414
121 420T99 439T92 469Q92 482 98 497T119 524T158 535Q187 535 197 516T208 478Q208 452 191 433T149 413Z" />
<glyph unicode="&lt;" horiz-adv-x="650" d="M471 47Q456 47 443 55T410 75Q373 99 330 127T245 184T168 237T113 276Q100 286 94 296T88 317Q88 330 96 340T124 366Q136 376 170 398T250 451T346 514T441 578Q451 585 461 590T484 596Q495 596 503 591T517 576T522
556Q522 548 518 540T506 528Q471 505 429 478T342 421T257 366T184 317Q205 302 239 280T316 231T402 177T489 125Q498 119 504 110T511 90Q511 79 506 69T492 53T471 47Z" />
<glyph unicode="=" horiz-adv-x="650" d="M132 377Q112 378 102 389T91 417Q91 434 101 448T132 461Q164 460 214 458T321 455T430 454T519 455Q539 456 549 444T560 414Q560 398 550 386T519 372Q486 371 435 371T328 371T219 373T132 377ZM128 193Q108 193 98
204T87 233Q87 250 97 263T128 277Q154 277 198 276T293 274T392 272T473 270T515 269Q535 269 545 257T556 228Q556 211 546 199T515 187Q509 187 477 187T398 188T300 190T202 191T128 193Z" />
<glyph unicode="&gt;" horiz-adv-x="650" d="M170 48Q159 48 151 53T137 68T132 88Q132 96 136 104T148 117Q183 140 225 167T312 223T397 279T469 328Q448 343 414 365T337 414T251 468T165 520Q156 525 150 535T143 555Q143 566 148 575T162 590T183 596Q199
596 212 589T244 569Q281 545 324 517T410 460T486 408T541 369Q554 359 560 349T566 327Q566 314 558 304T530 279Q518 269 484 247T404 194T308 130T213 66Q203 59 193 54T170 48Z" />
<glyph unicode="?" horiz-adv-x="519" d="M110 616Q92 616 79 628T66 658Q66 664 68 670T77 686Q104 728 160 752T280 774Q343 773 389 747T460 675T486 565Q486 496 456 437T376 342T263 301L258 202Q257 183 245 172T213 160Q197 159 184 172T171 203L177 333Q179
356 192 368T234 380Q278 380 315 405T376 470T399 559Q399 601 384 630T340 674T272 690Q232 690 200 678T151 643Q141 631 133 624T110 616ZM202 99Q214 99 228 93T254 74T265 36Q265 17 256 6T234 -11T209 -16Q184 -16 165 1T145 42Q146 64 161 81T202 99Z"
/>
<glyph unicode="@" horiz-adv-x="851" d="M331 -218Q267 -218 215 -192T124 -120T65 -18T44 98Q44 179 68 256T136 400T236 519T358 599T491 628Q569 628 627 600T724 524T782 419T802 305Q802 210 771 141T687 35T572 -2Q533 -2 504 21T461 76Q436 42 409 20T356
-2Q326 -2 306 12T274 47T257 93T251 138Q251 189 270 232T324 307T404 358T501 376Q520 376 542 373T584 359Q600 353 606 341T613 314Q613 298 602 289T575 283Q562 286 550 289T526 295T499 298Q452 298 415 279T356 225T335 143Q335 121 339 103T354 69Q382
86 406 113T449 168Q450 185 453 204T462 242T475 277T493 305Q502 316 512 321T533 327Q553 327 563 310T568 274Q563 259 556 241T540 204T520 165Q522 147 529 128T549 95T580 81Q617 81 643 100T685 152T708 224T715 304Q715 355 699 399T651 476T578 527T485
545Q415 545 352 507T239 405T161 260T132 95Q132 50 144 9T183 -66T249 -118T345 -135Q370 -134 381 -145T392 -178Q392 -199 374 -208T331 -218Z" />
<glyph unicode="A" horiz-adv-x="766" d="M114 18Q109 1 98 -7T69 -15Q50 -15 36 -4T22 26Q22 31 24 38T33 65Q67 152 105 238T185 412T270 586T355 763Q361 776 372 782T397 789Q414 789 427 780T446 756Q451 744 468 701T509 594T561 458T618 312T672 176T715
71Q720 61 725 49T730 28Q730 6 717 -6T686 -19Q676 -19 663 -15T643 4Q609 85 575 175T507 353T445 518T395 650Q346 541 297 436T201 226T114 18ZM146 286Q146 299 155 307T176 321T200 328Q222 333 261 336T352 341T465 339Q484 338 504 338T542 340T576 342T603
346Q624 349 637 335T650 302Q650 285 640 275T612 260T577 254T542 252Q485 252 426 252T310 248T196 238Q181 237 164 252T146 286Z" />
<glyph unicode="B" horiz-adv-x="661" d="M110 728Q109 748 121 759T153 772Q165 773 175 769T193 757T201 735Q194 560 195 384T185 32Q184 13 172 3T143 -10Q124 -11 109 -2T94 27Q101 138 102 255T104 492T110 728ZM170 680V763Q190 769 221 773T304 778Q346
778 392 771T479 744T545 692T571 606Q571 556 539 505T433 423Q490 408 528 380T586 316T606 241Q606 183 573 138T484 62T362 15T229 -1Q198 -1 170 1T124 6L135 91Q158 87 181 86T225 84Q272 84 322 94T416 124T487 173T514 243Q514 277 492 301T437 341T366
365T297 373Q268 369 246 367T204 364Q164 364 143 374T121 413Q121 424 123 433T131 449T147 455Q164 454 179 453T213 451Q250 451 296 459T384 484T453 530T481 600Q481 636 454 656T386 685T309 694Q288 694 261 692T208 686T170 680Z" />
<glyph unicode="C" horiz-adv-x="771" d="M681 681Q687 677 691 670T695 654Q695 641 689 630T673 613T653 606Q642 606 634 612T618 623Q579 650 548 665T484 687T408 694Q334 694 279 655T193 541T162 363Q162 276 191 209T272 103T393 65Q437 65 480 79T562
118T630 178Q638 187 646 191T665 195Q676 195 685 190T700 174T706 152Q706 139 698 125T673 94Q621 39 547 9T393 -22Q291 -22 219 24T108 157T69 367Q69 462 94 538T165 668T274 751T415 780Q463 780 510 769T600 735T681 681Z" />
<glyph unicode="D" horiz-adv-x="792" d="M85 22Q90 126 97 230T112 440Q117 506 120 572T125 704Q125 718 133 729T157 745Q179 750 201 753T244 759T286 762T326 764Q428 764 503 734T628 651T702 532T727 394Q727 317 699 243T614 108T476 11T287 -25Q256 -25
225 -22T160 -11Q153 -15 145 -17T129 -19Q113 -19 99 -9T85 22ZM179 73Q188 70 201 68T231 65T262 62T287 61Q356 61 418 83T530 149T607 254T636 397Q636 472 609 525T538 612T442 662T340 678Q319 678 296 677T251 673T213 667Q211 606 208 547T202 429T194
311T187 193T179 73Z" />
<glyph unicode="E" horiz-adv-x="628" d="M147 -15Q136 -15 122 -13T97 -2T86 27Q95 139 102 254T116 485T128 713Q130 737 140 750T177 765Q229 769 284 771T400 775T530 777Q555 777 565 766T576 736Q576 716 566 704T530 691Q482 691 441 691T362 689T289 686T218
681Q216 642 214 600T210 517T205 436Q249 442 299 445T397 449T475 448Q492 448 504 437T517 406Q518 386 505 374T475 362Q450 364 405 364T306 360T200 349Q196 281 191 212T181 75Q216 77 258 80T347 85T436 90T513 92Q533 92 543 80T553 51Q553 32 543 19T513
6Q493 6 473 6T432 5Q385 4 337 1T242 -6T147 -15Z" />
<glyph unicode="F" horiz-adv-x="577" d="M96 48Q100 89 102 146T104 265T105 383Q105 422 105 459T107 534T111 608T118 683Q114 690 112 697T109 715Q109 732 119 745T149 758Q188 756 234 755T329 753T422 752T501 754Q518 755 530 743T542 711Q542 691 532
682T505 671T472 668Q430 667 400 667T344 666T286 667T209 671Q202 607 200 541T197 410Q228 407 271 406T356 405T426 408Q444 410 455 398T468 369Q469 348 456 337T426 323Q376 320 313 320T197 325Q197 228 196 154T188 34Q184 15 172 3T140 -9Q123 -9 113
-1T99 20T96 48Z" />
<glyph unicode="G" horiz-adv-x="838" d="M733 674Q739 669 742 661T746 645Q746 633 740 622T725 604T703 597Q687 597 677 607T657 624Q612 658 566 674T473 691Q406 691 355 666T267 601T207 514T172 423T160 346Q160 309 174 262T219 170T296 96T407 67Q461
67 508 88T591 146T650 227T678 320Q645 320 612 320T546 321T479 321Q460 321 449 333T437 365Q436 383 448 395T479 407Q541 407 603 407T728 406Q754 405 762 388T771 348Q771 278 742 213T662 95T546 12T407 -19Q335 -19 273 10T165 90T94 207T68 348Q68 435
101 512T191 650T323 745T480 780Q543 780 608 755T733 674Z" />
<glyph unicode="H" horiz-adv-x="775" d="M110 741Q112 761 125 771T157 782Q176 782 190 772T202 741Q189 624 186 506T181 271T170 34Q169 21 163 12T147 -2T124 -7Q105 -7 91 4T78 35Q86 153 88 270T94 504T110 741ZM155 352Q144 352 135 357T120 373T114 398Q114
421 127 429T156 439Q212 441 258 442T354 445T463 446T606 447Q623 447 635 436T647 408Q647 386 638 376T614 364T583 361Q542 362 486 362T350 360T155 352ZM598 732Q598 752 611 763T644 774Q663 774 677 763T690 732Q688 694 687 656T683 578Q678 439 676
300T673 21Q673 2 660 -9T627 -20Q608 -20 595 -9T581 21Q581 200 585 377T598 732Z" />
<glyph unicode="I" horiz-adv-x="309" d="M125 727Q126 748 140 758T171 768Q190 768 204 758T217 726Q201 551 192 376T179 24Q179 3 165 -7T133 -17Q115 -17 101 -7T87 25Q91 200 100 376T125 727Z" />
<glyph unicode="J" horiz-adv-x="602" d="M423 760Q427 775 440 783T469 791Q489 791 502 779T512 748Q507 716 502 668T497 562Q497 540 497 516T498 468T498 417Q498 354 494 292T478 174T440 76T373 9T267 -16Q216 -16 167 1T81 52T30 140Q26 156 29 167T39
186T55 197T73 201Q96 201 104 189T117 160Q123 144 141 123T190 86T262 70Q308 70 336 93T380 159T401 261T407 391Q407 420 407 446T406 499T405 551Q405 604 408 656T423 760Z" />
<glyph unicode="K" horiz-adv-x="685" d="M182 24Q182 4 169 -6T136 -17Q117 -17 104 -7T90 26Q97 204 101 382T107 738Q107 760 121 770T154 780Q172 780 186 770T199 739Q198 561 194 382T182 24ZM529 761Q537 769 544 772T559 775Q571 775 582 768T599 750T606
727Q606 719 604 712T593 697Q552 661 512 626T430 556T346 487T259 419Q307 372 349 321T432 221T520 131T623 60Q635 53 640 45T645 25Q645 13 639 1T622 -18T599 -26Q589 -26 578 -20Q523 8 476 46T389 130T310 222Q273 268 236 312T155 399L172 459Q234 507
294 557T413 658T529 761Z" />
<glyph unicode="L" horiz-adv-x="580" d="M120 734Q122 755 136 765T167 775Q187 775 200 765T212 732Q206 656 203 577T198 415T191 250T178 81Q226 82 269 83T351 85T428 88T504 89Q522 89 534 79T547 47Q547 25 535 14T497 2Q426 2 373 1T277 -1T199 -4T123
-5Q101 -5 92 10T82 48Q82 71 84 96T90 146T95 192Q105 333 107 471T120 734Z" />
<glyph unicode="M" horiz-adv-x="940" d="M174 24Q171 8 158 0T128 -8Q107 -8 95 4T85 37Q98 151 105 243T114 416T117 572T115 729Q114 749 129 760T163 771Q177 771 187 766T204 747Q238 687 271 628T338 508T406 387T476 262Q517 321 555 379T627 495T694 614T758
737Q764 749 774 754T798 760Q817 760 830 749T843 718Q845 642 845 575T844 441T841 295Q839 228 836 161T827 27Q826 6 813 -4T782 -14Q763 -14 750 -4T737 27L746 178Q749 223 750 267T753 357T755 450T757 550Q719 478 679 413T597 287T510 167Q503 157 494
151T470 145Q458 145 447 150T430 168Q402 217 374 265T319 363T263 464T205 570Q205 493 204 423T200 286T190 154T174 24Z" />
<glyph unicode="N" horiz-adv-x="782" d="M177 26Q175 10 162 3T132 -5Q115 -5 100 7T86 42Q101 167 111 284T124 516T122 747Q121 767 134 778T167 789Q180 789 191 784T209 764Q216 752 235 720T284 641T350 536T425 417T503 292T579 172Q578 242 580 313T587
456T598 596T612 732Q614 752 626 764T659 776Q684 776 693 764T701 728Q693 646 687 570T675 414T667 241T663 31Q663 15 651 3T619 -10Q605 -10 594 -4T574 15Q522 95 483 156T412 267T350 366T287 468T212 592Q214 519 212 448T206 307T194 167T177 26Z" />
<glyph unicode="O" horiz-adv-x="805" d="M553 761Q568 757 575 747T583 723Q583 715 580 706T569 690T551 680T527 679Q514 684 493 689T438 695Q373 695 322 666T235 586T181 476T162 353Q162 295 177 243T223 151T297 89T398 66Q467 66 523 102T613 210T647
384Q647 442 636 491T607 578T575 635Q565 649 559 657T553 677Q553 686 557 694T568 710T583 722T600 726Q616 726 626 717T645 695T661 671Q701 612 720 537T739 385Q739 303 716 230T649 101T541 12T396 -20Q329 -20 276 2T184 63T119 150T81 250T68 352Q68
432 95 508T172 647T289 746T438 783Q465 783 495 778T553 761Z" />
<glyph unicode="P" horiz-adv-x="617" d="M121 736Q123 750 132 760T170 775Q184 777 201 778T235 780T268 781Q358 781 428 753T539 672T579 541Q579 484 552 441T479 368T377 325T261 310Q242 310 225 311T190 316Q187 245 185 173T178 26Q177 5 163 -5T131
-15Q112 -15 99 -5T86 27Q97 204 101 382T121 736ZM193 402Q210 400 229 397T273 394Q306 394 343 402T412 429T465 477T486 548Q486 571 476 597T440 645T374 682T269 697Q250 697 236 696T209 692Q206 645 203 597T198 501T193 402Z" />
<glyph unicode="Q" horiz-adv-x="815" d="M472 783Q491 782 504 772T518 745Q518 733 513 723T497 706T471 698Q395 698 337 673T239 602T180 496T160 367Q160 268 192 203T274 106T378 74Q424 74 473 91T564 145T632 243T658 389Q658 441 645 492T604 587T535
662Q508 682 486 694T451 718T438 748Q438 764 451 777T492 783Q554 764 602 725T683 632T733 516T751 391Q751 306 725 233T649 105T532 20T379 -11Q297 -11 238 21T141 108T85 227T67 358Q67 436 92 511T165 648T282 747T441 784Q449 784 457 784T472 783ZM432
189Q425 207 438 224T473 243Q487 245 495 241T510 228T520 209Q530 184 542 159T568 109T596 58T624 7T651 -44Q662 -69 651 -87T616 -107Q602 -109 591 -104T573 -86Q559 -60 545 -33T515 21T486 76T458 132T432 189Z" />
<glyph unicode="R" horiz-adv-x="729" d="M130 731Q132 751 144 761T173 772Q182 772 190 770T206 762T218 749T222 730L178 27Q177 6 163 -4T130 -14Q114 -14 100 -4T86 27L130 731ZM204 683Q192 681 183 684T167 693T157 708T153 725Q153 742 171 755T234 773Q257
775 279 776T324 778Q430 778 498 748T599 670T632 567Q632 524 612 482T554 405T460 348T333 324Q380 292 421 262T502 200T579 137T657 69Q664 62 667 55T670 39Q670 27 664 17T648 -1T625 -8Q616 -8 606 -4T585 9Q545 45 495 87T389 173T277 257T170 330L189
408Q200 407 227 403T295 399Q364 399 411 416T486 459T527 514T540 567Q540 605 512 633T434 677T319 693Q296 693 279 692T245 689T204 683Z" />
<glyph unicode="S" horiz-adv-x="623" d="M543 706Q549 700 552 693T556 675Q556 663 550 653T534 637T511 631Q502 631 490 638T459 655Q429 672 398 680T321 688Q270 688 236 674T185 637T168 587Q168 554 192 529T255 484T336 442Q414 405 462 367T533 285T556
185Q556 142 539 105T489 40T412 -3T315 -19Q279 -19 235 -10T153 15T93 47Q65 71 65 94Q65 106 70 116T85 132T105 138Q113 138 123 133T147 120Q175 104 215 86T314 68Q356 68 389 83T443 125T463 183Q463 218 444 249T389 309T297 360Q260 377 221 396T149 440T96
502T76 590Q76 645 108 686T196 750T328 774Q390 774 447 756T543 706Z" />
<glyph unicode="T" horiz-adv-x="680" d="M80 681Q59 681 49 693T38 725Q38 743 48 756T80 769Q115 768 160 767T252 765T336 764Q411 764 486 765T634 770Q654 771 664 758T675 726Q675 707 665 695T633 682Q560 679 487 677T339 675Q274 675 209 676T80 681ZM295
697Q295 707 299 714T311 726T326 733T342 736Q350 736 358 734T372 726T383 714T387 697Q387 524 381 356T362 21Q361 7 354 -2T337 -15T316 -20Q305 -20 294 -16T277 -2T271 22Q283 183 289 353T295 697Z" />
<glyph unicode="U" horiz-adv-x="780" d="M118 733Q122 750 134 758T162 766Q182 766 198 754T210 721Q207 708 204 676T197 601T191 516T189 438Q189 303 206 225T267 113T390 79Q431 79 469 94T536 149T583 262T601 451Q601 527 595 597T584 734Q583 752 596
764T628 776Q649 777 659 768T672 743T677 708Q680 679 682 651T687 590T690 519T692 427Q692 338 678 260T628 121T535 26T387 -8Q316 -8 264 14T176 77T122 174T102 299Q99 338 98 391T97 503T104 621T118 733Z" />
<glyph unicode="V" horiz-adv-x="700" d="M42 714Q36 731 42 743T61 763T89 770Q103 770 113 764T130 740Q160 665 186 593T235 448T278 303T317 153Q360 262 404 365T496 567T592 765Q599 777 608 782T629 788Q645 788 658 780T676 757T673 725Q625 631 578 531T487
334T409 155T350 12Q346 -1 334 -11T306 -21Q290 -22 277 -12T261 13Q239 108 216 194T167 363T111 533T42 714Z" />
<glyph unicode="W" horiz-adv-x="1026" d="M49 711Q43 734 56 749T95 765Q109 765 121 758T138 734Q151 679 164 625T190 518T216 410T242 301T269 187Q287 250 306 309T347 425T391 536T438 647T489 758Q494 769 504 774T528 780Q556 780 564 763T579 703Q591
632 607 567T642 438T683 309T725 175Q743 240 760 300T796 416T833 528T872 641T915 758Q920 774 931 782T959 790Q976 790 987 782T1003 762T1002 735Q985 693 964 635T921 508T876 369T833 232T796 109T771 15Q767 -2 754 -10T726 -19Q710 -19 698 -11T680 14Q669
55 653 108T617 222T577 347T540 474T509 596Q480 528 448 445T382 257T309 18Q305 2 292 -6T263 -14Q248 -14 236 -6T219 18L49 711Z" />
<glyph unicode="X" horiz-adv-x="664" d="M90 719Q81 735 85 749T103 773T134 782Q145 782 155 777T173 758L563 50Q573 33 568 18T550 -5T521 -14Q508 -14 498 -9T482 9L90 719ZM110 14Q101 3 92 -2T72 -8Q56 -8 42 2T24 27T31 58L546 754Q555 765 564 770T584
776Q601 776 615 767T634 742T627 712L110 14Z" />
<glyph unicode="Y" horiz-adv-x="642" d="M57 714Q48 731 53 745T71 769T100 778Q112 778 122 773T138 756Q152 731 172 694T216 615T261 536T297 472T315 440Q353 499 389 554T461 660T531 759Q539 770 547 775T566 780Q583 780 597 770T615 745T609 713Q569
656 527 596T443 472T357 340Q358 262 349 185T331 31Q330 13 318 2T284 -11Q265 -12 252 1T239 32Q247 108 256 183T265 336Q217 437 161 531T57 714Z" />
<glyph unicode="Z" horiz-adv-x="653" d="M149 687Q129 688 119 700T108 730Q109 749 120 762T150 774Q256 767 360 768T564 778Q575 779 584 773T600 757T606 734T598 708Q553 639 503 563T399 407T289 243T176 78Q204 79 231 79T285 80T339 81Q392 81 445 80T550
76Q570 76 580 63T590 30Q589 12 579 1T549 -11Q494 -9 441 -8T332 -6Q271 -6 209 -7T85 -13Q68 -13 56 -3T42 22T48 51Q100 126 138 181T207 282T266 368T324 454T391 555T477 686Q420 683 365 682T256 682T149 687Z" />
<glyph unicode="[" horiz-adv-x="481" d="M118 829Q119 850 132 860T161 870Q179 870 193 860T206 829Q201 771 198 695T191 531T186 354T182 177T179 14T176 -122Q176 -142 162 -152T130 -162Q114 -162 101 -152T87 -122Q88 -63 89 13T93 177T97 354T102 531T109
694T118 829ZM176 784Q156 784 146 798T136 828Q136 844 146 857T176 870Q223 870 278 869T386 870Q405 871 416 857T427 826Q427 807 416 796T386 784Q334 782 279 783T176 784ZM142 -164Q123 -165 112 -151T100 -121Q98 -104 111 -93T149 -78Q163 -76 189 -76T247
-75T305 -76T349 -77Q375 -77 387 -88T399 -121Q399 -138 387 -152T357 -166Q323 -164 298 -163T249 -161T201 -161T142 -164Z" />
<glyph unicode="\" horiz-adv-x="472" d="M151 817Q170 762 193 690T240 535T289 366T337 196T379 39T413 -92Q418 -113 408 -126T381 -144Q365 -148 349 -142T327 -113Q313 -56 294 17T252 174T204 344T155 512T108 667T66 794Q59 816 69 829T96 847Q113 853
129 846T151 817Z" />
<glyph unicode="]" horiz-adv-x="477" d="M314 829Q315 850 328 860T358 870Q369 870 379 866T397 852T403 829Q402 775 400 699T394 535T386 355T378 175T372 11T368 -119Q368 -140 354 -150T323 -161Q307 -161 293 -150T279 -119L314 829ZM102 -161Q80 -161
70 -147T60 -117Q60 -101 70 -88T102 -75Q133 -77 168 -77T240 -76T311 -71Q331 -69 342 -83T354 -115Q354 -123 352 -131T342 -144Q336 -150 328 -153T311 -157Q277 -160 241 -161T169 -163T102 -161ZM131 777Q112 776 100 790T88 820Q88 837 101 851T139 867Q171
869 215 869T325 862Q351 860 369 851T387 820Q387 803 375 789T343 775Q299 779 264 780T198 782T131 777Z" />
<glyph unicode="^" horiz-adv-x="650" d="M560 389Q560 378 554 369T538 354T517 349Q508 349 500 354T485 368Q433 449 395 509T327 612Q312 591 290 560T244 494T197 424T157 363Q152 357 144 353T128 348Q120 348 111 353T97 366T91 384Q91 395 96 404T108
424Q141 471 175 519T237 607T278 667Q292 687 303 696T327 706Q338 706 347 699T366 679Q395 638 439 576T539 434Q552 416 556 407T560 389Z" />
<glyph unicode="_" horiz-adv-x="522" d="M423 -49Q443 -47 453 -59T463 -89Q463 -105 453 -119T423 -136Q358 -142 290 -144T157 -147Q136 -147 116 -147T75 -146Q55 -145 45 -132T35 -102Q35 -85 44 -72T73 -59Q155 -59 245 -57T423 -49Z" />
<glyph unicode="`" horiz-adv-x="505" d="M327 640Q311 628 296 631T269 647Q251 666 231 689T195 735T168 779Q158 798 161 813T178 839Q192 850 212 851T242 828Q253 803 276 765T327 695Q338 683 338 667T327 640Z" />
<glyph unicode="a" horiz-adv-x="622" d="M51 234Q51 293 69 348T120 448T197 517T295 543Q325 543 355 534T415 501Q420 523 429 532T455 542Q475 542 489 530T502 494Q501 463 495 418T483 327Q481 313 477 288T471 237T468 197Q468 178 471 150T482 99T505
77Q516 77 525 85T542 109Q547 120 556 124T576 129Q587 129 597 124T612 109T617 85Q617 66 602 44T561 7T502 -9Q474 -9 452 3T416 37T397 92Q367 48 331 24T245 -1Q181 -1 138 29T73 113T51 234ZM144 238Q144 189 155 155T190 102T248 83Q276 83 296 95T331
130T357 181Q367 206 374 236T387 298T395 362T400 419Q376 439 349 449T299 460Q263 460 235 442T186 392T155 321T144 238Z" />
<glyph unicode="b" horiz-adv-x="576" d="M119 792Q121 814 133 824T166 835Q185 835 198 825T211 792Q207 753 204 713T199 632T196 548T192 458Q210 484 232 501T278 528T330 538Q393 538 435 504T499 413T521 287Q521 206 493 139T414 32T291 -9Q258 -9 225
0T166 25Q161 8 150 2T125 -4Q108 -4 95 6T81 35Q81 41 81 54T83 74Q74 82 70 90T66 110Q66 118 71 127T87 143Q93 254 97 359T105 572T119 792ZM176 110Q199 92 224 84T278 75Q317 75 351 95T407 160T428 282Q428 327 418 366T384 428T321 452Q293 452 269 433T225
386T195 326T183 268Q182 241 181 214T179 160T176 110Z" />
<glyph unicode="c" horiz-adv-x="522" d="M266 -4Q212 -4 172 20T105 85T65 174T51 268Q51 322 69 372T121 461T200 523T298 546Q336 546 372 536T437 502T480 441Q482 437 483 434T484 426Q484 413 477 404T460 389T438 384Q425 384 416 390T398 413Q382 442
354 452T302 462Q277 462 250 450T198 414T159 353T144 267Q144 226 157 183T198 111T268 81Q310 81 347 108T411 167Q418 174 424 177T438 181Q450 181 460 175T476 158T483 136Q483 129 481 122T471 107Q431 62 378 29T266 -4Z" />
<glyph unicode="d" horiz-adv-x="590" d="M435 791Q437 812 450 822T480 832Q499 832 513 822T526 790Q513 601 505 411T487 30Q487 9 472 -1T440 -11Q423 -11 409 -1T396 29Q397 42 397 53T399 79T401 113Q379 75 350 48T288 7T221 -8Q179 -8 148 14T95 72T64
150T53 233Q53 292 72 348T125 448T205 519T306 545Q333 545 361 538T418 515Q421 561 423 607T429 700T435 791ZM146 231Q146 193 157 158T187 100T229 77Q262 77 291 100T343 157T380 229T397 293Q398 299 400 303T407 312L413 421Q389 442 360 451T308 461Q271
461 234 435T171 357T146 231Z" />
<glyph unicode="e" horiz-adv-x="531" d="M282 0Q227 0 184 22T111 81T66 165T50 260Q50 311 70 361T127 453T212 520T315 545Q358 545 390 528T441 480T460 410Q460 368 439 331T380 270Q329 235 269 222T146 206Q154 177 172 149T218 103T286 84Q323 84 357
105T417 155Q423 163 430 166T445 169Q457 169 467 163T483 147T489 125Q490 117 487 110T477 95Q440 55 391 28T282 0ZM142 288Q182 290 216 294T287 314Q320 327 345 351T370 411Q370 425 364 436T345 455T312 463Q280 463 251 447T199 406T162 349T142 288Z"
/>
<glyph unicode="f" horiz-adv-x="409" d="M159 -20Q140 -20 128 -8T115 22Q115 70 115 105T117 176T120 261Q121 287 122 326T126 425T139 571Q144 619 152 660T172 734T203 786Q223 808 251 817T310 827Q339 827 367 819T418 795T455 759Q465 743 465 733Q465
723 460 713T447 695T426 688Q410 688 384 713Q368 729 349 736T311 744Q291 744 277 732T252 687T234 592Q228 537 225 494T219 417T216 354T214 300Q212 245 211 203T209 120T207 24Q206 5 193 -7T159 -20ZM53 440Q43 440 34 446T19 462T13 483Q13 499 20 505T40
518Q60 527 87 532T146 539T213 539Q235 538 266 538T326 538T371 538Q389 538 400 526T412 495Q412 476 400 464T371 452Q361 452 339 452T296 453T263 454Q232 454 204 453T149 450T93 445Q86 444 74 442T53 440Z" />
<glyph unicode="g" horiz-adv-x="576" d="M47 242Q47 304 69 359T129 457T216 524T320 549Q345 549 369 544T416 525Q421 539 432 543T453 548Q473 548 485 540T498 511V475Q503 468 505 462T507 447Q507 431 497 419V392Q497 354 497 316T498 236Q498 182 495
127T487 18Q479 -70 453 -137T383 -241T277 -279Q250 -279 219 -271T154 -245T84 -200Q75 -193 70 -184T64 -165Q64 -155 69 -145T83 -128T105 -120Q115 -120 126 -124T148 -137Q167 -150 188 -163T232 -185T277 -194Q311 -194 333 -170T368 -110T388 -38Q393 -8
396 11T401 47T405 85Q379 38 342 17T260 -4Q198 -4 150 29T75 119T47 242ZM264 80Q301 80 325 102T365 165T391 264Q393 279 395 305T398 359T401 408T402 436Q383 451 360 458T320 465Q283 465 251 447T193 397T154 324T140 238Q140 193 157 157T202 101T264
80Z" />
<glyph unicode="h" horiz-adv-x="582" d="M103 781Q103 802 116 812T148 822Q167 822 180 812T193 781Q192 761 192 738T191 680T190 589T188 447Q210 476 235 496T290 528T351 539Q403 539 433 517T477 461T496 387T502 313Q504 231 501 182T497 92Q497 75 498
60T500 28Q501 9 488 -1T454 -12Q435 -12 423 -2T409 29Q407 52 407 85T408 154T411 225T412 285Q412 380 399 416T345 453Q316 453 287 436T232 384T190 290Q186 226 184 163T179 39Q178 20 165 9T131 -3Q112 -3 101 9T88 38Q87 62 85 87T83 138Q83 178 87 217T100
295Q100 399 100 472T100 596T100 679T101 736T103 781Z" />
<glyph unicode="i" horiz-adv-x="280" d="M104 501Q104 515 110 524T127 537T149 542Q169 542 182 532T196 501Q196 429 194 373T188 266T183 159T179 28Q179 9 166 -3T134 -15Q114 -15 104 -6T91 17T87 46Q87 55 88 90T92 176T98 286T102 401T104 501ZM90 712Q90
729 97 746T118 776T148 788Q180 788 195 775T216 746T221 721Q221 694 201 672T152 650Q127 650 109 668T90 712Z" />
<glyph unicode="j" horiz-adv-x="283" d="M114 508Q117 532 131 540T159 549Q176 549 186 543T202 529T206 512Q205 502 204 486T201 443T198 370T195 254Q194 190 193 127T186 2T168 -123Q160 -168 143 -199T104 -247T54 -264Q24 -264 -8 -243T-68 -184Q-75 -174
-76 -168T-78 -156Q-78 -143 -71 -134T-54 -118T-32 -112Q-21 -112 -12 -117T5 -135Q19 -155 31 -165T49 -176Q55 -176 63 -156T81 -89T96 37T102 236Q102 307 104 377T114 508ZM99 725Q99 761 118 777T166 793Q192 793 207 774T223 732Q223 708 211 693T182 670T149
662Q126 662 113 682T99 725Z" />
<glyph unicode="k" horiz-adv-x="609" d="M125 781Q127 800 140 811T172 822Q197 822 205 807T214 767Q214 743 208 687T194 541T182 328Q183 329 202 344T252 383T316 434T384 488T441 534Q449 540 457 543T473 547Q483 547 491 544T504 536T513 523T516 506Q516
496 513 487T502 472Q487 460 463 442T409 401T351 355T296 313T253 281Q269 261 291 229T336 165Q353 142 371 122T408 91T443 79Q459 79 475 95T504 124Q512 134 520 140T539 146Q550 146 560 141T576 127T583 105Q583 93 576 81T556 55Q542 39 522 25T480 1T437
-8Q401 -8 370 11T311 60T259 123Q235 158 216 187T179 236Q178 183 176 133T172 31Q172 10 159 0T127 -10Q108 -10 95 0T81 31Q88 220 98 410T125 781Z" />
<glyph unicode="l" horiz-adv-x="287" d="M128 780Q130 800 143 811T175 822Q193 822 202 815T215 796T218 767Q216 739 210 678T196 510T183 236Q182 183 180 133T176 32Q176 10 163 0T130 -10Q111 -10 98 0T85 32Q88 126 92 221T101 410T112 597T128 780Z" />
<glyph unicode="m" horiz-adv-x="910" d="M113 516Q116 531 129 539T157 547Q177 547 188 536T200 505Q200 495 198 483T192 447Q215 480 240 502T294 536T351 548Q379 548 406 537T455 502T488 438Q511 473 539 498T600 538T667 552Q717 552 749 531T800 473T826
389T834 290Q834 257 833 231T828 177T822 116T813 38Q810 18 797 7T767 -5Q744 -5 733 8T722 41Q722 50 725 73T732 129T740 202T743 285Q743 386 722 426T659 466Q637 466 612 451T564 411T525 354T504 288Q504 269 503 255T502 229T500 202Q499 173 497 145T492
88T489 31Q489 10 476 0T443 -11Q424 -11 411 -1T398 32Q399 77 402 120T409 206T412 296Q412 387 395 425T346 464Q320 464 291 444T234 389T187 308Q185 258 183 208T179 112T175 31Q174 10 162 0T130 -11Q111 -11 97 -1T84 32Q87 102 89 171T94 309Q96 361 100
412T113 516Z" />
<glyph unicode="n" horiz-adv-x="601" d="M102 523Q105 540 118 547T146 555Q164 555 177 543T191 515Q191 510 189 494T185 459T182 424Q202 460 227 488T285 532T355 548Q444 548 487 485T531 317Q531 266 524 218T510 123T503 30Q503 11 490 0T457 -11Q438
-11 425 0T411 31Q411 80 418 125T433 216T440 312Q440 372 428 404T394 448T345 461Q311 461 284 438T237 379T203 304T181 235Q181 180 180 128T176 29Q175 12 162 0T128 -12Q108 -12 97 -1T82 30T78 71Q78 106 81 145T92 221Q91 278 91 323T91 403T94 468T102
523Z" />
<glyph unicode="o" horiz-adv-x="555" d="M291 546Q314 546 337 542T380 529T414 507Q460 470 481 411T503 287Q503 232 489 181T448 88T382 22T293 -3Q242 -3 199 19T122 79T71 166T53 271Q53 323 68 372T114 460T189 523T291 546ZM145 278Q145 228 162 184T211
112T290 84Q322 84 345 101T383 148T405 213T412 282Q412 343 393 385T340 451Q327 455 315 456T289 458Q255 458 228 444T183 404T155 346T145 278Z" />
<glyph unicode="p" horiz-adv-x="602" d="M116 -284Q95 -284 82 -274T69 -241Q72 -182 74 -135T79 -43T83 52T89 166T97 315T107 514Q108 536 125 546T160 556Q176 556 186 544T197 515Q197 499 197 483T194 438Q232 491 276 517T369 544Q407 544 440 524T498
470T537 391T551 296Q551 233 534 177T485 78T411 11T318 -14Q280 -14 243 0T175 39Q172 -34 169 -101T161 -242Q160 -261 149 -272T116 -284ZM316 70Q345 70 370 87T414 135T445 204T456 287Q456 324 449 355T428 410T396 445T354 458Q332 458 308 442T259 399T216
336T183 262Q182 228 181 199T178 134Q209 103 246 87T316 70Z" />
<glyph unicode="q" horiz-adv-x="582" d="M439 523Q442 537 455 543T484 550Q509 550 518 539T527 506Q527 480 519 447T505 388L498 306Q486 165 482 23T473 -260Q472 -279 459 -291T425 -303Q407 -303 394 -290T382 -259Q383 -230 384 -189T387 -101T389 -11T392
67Q367 33 331 14T250 -5Q186 -5 143 28T77 116T54 235Q54 297 72 352T125 450T209 517T319 542Q351 542 380 533T435 506L439 523ZM148 236Q148 186 163 151T201 98T247 80Q292 80 322 102T372 165T400 261Q406 306 409 335T415 383T419 419Q399 439 373 448T318
458Q269 458 231 430T170 353T148 236Z" />
<glyph unicode="r" horiz-adv-x="465" d="M99 503Q100 524 114 534T147 545Q165 545 178 536T191 506Q191 500 191 491T191 470T188 444Q217 494 254 518T338 543Q361 543 387 537T442 513Q454 506 459 496T463 472Q462 450 450 439T419 427Q409 427 401 431T384
440Q374 446 363 451T335 457Q276 457 241 399T182 248Q181 214 181 185T179 128T178 76T177 27Q177 14 171 5T154 -8T131 -13Q109 -13 98 0T83 34T79 81Q79 101 80 131T84 191T90 241L99 503Z" />
<glyph unicode="s" horiz-adv-x="456" d="M409 471Q416 463 418 455T420 440Q420 428 414 419T397 404T376 398Q366 398 358 403T343 415Q333 430 310 445T251 460Q218 460 194 444T170 402Q170 371 190 355T257 316Q292 299 324 276T378 219T400 138Q400 98 381
65T326 12T241 -8Q186 -8 132 16T40 74Q33 80 30 87T27 102Q27 120 40 134T70 149Q75 149 80 147T93 140Q125 115 162 95T234 75Q272 75 289 92T307 132Q307 168 280 194T208 240Q162 261 133 285T90 337T76 400Q76 442 100 474T165 524T251 542Q298 542 341 524T409
471Z" />
<glyph unicode="t" horiz-adv-x="408" d="M132 646Q134 666 146 676T177 686Q189 686 200 682T219 668T224 645Q216 581 211 522T202 405T199 285Q200 209 205 164T219 98T233 78Q242 78 256 89T283 115T303 137Q309 144 316 146T331 149Q343 149 353 143T369
127T375 105Q375 98 372 90T360 72Q340 46 317 28T270 1T225 -8Q186 -8 159 20T120 110Q113 154 110 198T106 288Q106 349 109 405T118 519T132 646ZM80 445Q61 444 51 456T40 487Q40 504 50 516T80 529Q106 531 134 532T194 534T261 535T338 536Q355 536 367 524T380
493Q380 475 367 464T338 452Q296 452 266 452T209 451T152 449T80 445Z" />
<glyph unicode="u" horiz-adv-x="582" d="M244 -12Q195 -12 161 13T106 79T76 170T66 269Q66 331 75 393T94 512Q96 526 109 535T140 544Q160 544 172 530T184 496Q183 478 177 450T164 380T158 274Q159 228 167 182T195 105T247 74Q280 74 306 97T354 156T389
231T412 300Q415 357 416 408T418 504Q419 524 432 534T465 545Q478 545 488 540T504 526T510 502Q511 492 511 471T510 422T507 366T499 309Q496 235 495 165T486 27Q485 11 472 0T439 -11Q413 -11 405 2T396 30Q396 39 397 49T400 71T402 98Q387 75 370 55T334
20T293 -3T244 -12Z" />
<glyph unicode="v" horiz-adv-x="508" d="M29 483Q28 488 27 491T26 499Q26 517 40 528T73 540Q88 540 99 533T115 509Q130 463 146 418T180 325T213 230T245 132Q267 187 287 237T326 334T366 426T410 514Q416 526 425 531T445 537Q457 537 468 531T487 516T495
494Q495 489 493 482T483 462Q471 440 450 395T404 292T354 178T310 76T281 8Q277 -3 266 -8T240 -14Q224 -14 211 -6T192 19Q176 78 156 136T114 252T71 367T29 483Z" />
<glyph unicode="w" horiz-adv-x="772" d="M559 -15Q544 -15 533 -8T517 16Q503 61 488 107T456 198T423 290T393 383Q352 286 325 218T279 102T248 18Q244 8 237 1T221 -9T203 -12Q188 -12 175 -4T160 20Q148 101 125 178T78 333T36 487Q35 495 34 499T33 511Q33
525 47 535T81 546Q95 546 106 539T122 516Q132 472 143 429T167 343T191 255T216 162Q241 224 264 281T310 394T355 504Q356 518 362 528T380 545T407 551Q420 551 431 544T447 520Q455 493 461 466T475 412Q484 382 493 352T512 292T532 230T553 167Q570 231
590 290T631 406T673 520Q678 536 689 543T714 550Q733 550 746 539T760 510Q760 506 759 502T755 491Q728 414 699 338T645 185T607 28Q604 8 592 -3T559 -15Z" />
<glyph unicode="x" horiz-adv-x="524" d="M33 483Q27 494 27 504Q27 513 31 521T43 534T58 543T76 546Q88 546 97 541T112 525Q148 471 193 412T288 292T385 173T472 64Q478 57 481 51T485 36Q485 25 478 15T459 -1T434 -7Q426 -7 418 -3T404 7Q378 41 351 75T296
142T242 209T187 275T134 343T82 412T33 483ZM83 0Q76 -8 68 -11T52 -14Q39 -14 28 -8T10 9T3 31Q3 38 6 44T15 58Q77 130 143 210T278 371T414 529Q421 536 428 539T443 543Q457 544 468 538T486 521T493 499Q493 492 490 485T480 471Q378 356 280 236T83 0Z"
/>
<glyph unicode="y" horiz-adv-x="573" d="M94 508Q97 525 109 532T138 539Q147 539 155 536T169 527T179 513T183 493Q183 478 177 451T165 383T159 280Q159 228 168 181T197 103T247 73Q276 73 302 95T349 152T384 218V263Q384 310 386 354T393 437T409 501Q417
523 430 535T461 547Q478 547 487 538T500 511T504 471Q504 410 498 345T474 217Q475 196 475 174T475 130T476 86Q476 15 467 -52T436 -173T372 -258T265 -290Q206 -290 154 -264T74 -188Q71 -181 70 -176T68 -165Q68 -152 74 -143T91 -129T112 -123Q126 -123
136 -130T156 -151Q174 -179 206 -192T266 -205Q310 -205 334 -174T369 -80T386 80Q362 43 326 15T246 -14Q196 -14 162 11T106 79T76 173T67 275Q67 314 70 354T80 434T94 508Z" />
<glyph unicode="z" horiz-adv-x="474" d="M81 453Q60 453 50 465T39 496Q39 513 50 525T82 537Q168 537 224 537T315 537T371 537T407 539Q426 541 438 528T450 497Q450 490 448 483T441 470Q400 409 356 345T266 218T178 102Q217 99 254 97T327 94T401 91Q421
91 431 79T442 50Q442 32 431 19T398 6Q352 6 306 9T212 15T115 20Q102 2 89 -5T65 -12Q49 -12 36 0T23 29Q23 43 31 55T50 77Q67 100 88 129T134 193T184 263T234 333T279 398T316 452L81 453Z" />
<glyph unicode="{" horiz-adv-x="409" d="M287 880Q309 879 320 868T331 839Q331 822 317 810T285 797Q236 794 210 771T183 716Q183 691 194 663T219 605T244 544T255 480Q255 459 249 439T228 401T190 368Q224 355 240 332T256 279Q256 240 246 205T224 136T201
66T191 -9Q191 -42 202 -65T238 -89Q247 -89 258 -86T279 -79Q288 -75 297 -76T313 -83T324 -98T328 -121Q328 -129 325 -136T314 -149Q298 -162 279 -167T240 -173Q199 -173 168 -154T120 -102T103 -29Q103 16 113 59T135 140T158 211T168 266Q168 292 152 304T91
317Q71 317 60 329T49 356Q49 377 61 388T93 401Q126 403 146 418T166 478Q166 500 156 526T131 583T106 646T95 713Q95 770 124 807T197 863T287 880Z" />
<glyph unicode="|" horiz-adv-x="317" d="M136 826Q138 848 151 858T181 869Q199 869 212 859T225 826Q220 768 216 692T208 529T201 352T197 176T194 13T193 -122Q193 -143 180 -153T150 -164Q132 -164 119 -154T105 -122Q105 -63 106 13T108 175T113 352T119
528T127 691T136 826Z" />
<glyph unicode="}" horiz-adv-x="399" d="M105 -173Q84 -172 73 -161T62 -132Q62 -115 76 -103T107 -90Q157 -87 183 -64T210 -9Q210 25 195 62T165 139T150 221Q150 243 156 263T177 301T215 335Q181 349 165 372T149 426Q149 464 160 499T186 569T212 641T224
716Q224 750 214 773T177 796Q169 796 158 794T137 787Q119 779 103 790T87 829Q87 837 90 844T101 856Q118 869 137 874T175 880Q217 880 247 861T295 809T312 736Q312 691 301 648T275 565T249 493T237 437Q237 412 254 399T316 386Q336 386 346 374T356 347Q356
327 345 315T313 302Q280 301 260 285T239 225Q239 196 254 160T283 81T298 -6Q298 -49 281 -80T236 -133T173 -164T105 -173Z" />
<glyph unicode="~" horiz-adv-x="650" d="M454 225Q409 225 377 237T319 265T269 293T214 305Q186 305 178 288T170 246Q171 232 159 224T129 215Q114 215 104 222T92 246Q88 310 114 351T201 393Q240 393 270 381T325 353T377 324T434 312Q463 312 477 331T492
382Q494 400 515 400Q532 400 547 390T562 363Q560 300 532 263T454 225Z" />
<glyph unicode="&#xa0;" horiz-adv-x="424" />
<glyph unicode="&#xa1;" horiz-adv-x="302" d="M144 -272Q128 -272 114 -262T100 -231Q103 -174 105 -105T108 35T109 170T107 281Q107 301 121 311T152 321Q168 321 181 311T196 280Q197 271 197 238T197 157T195 54T194 -55T192 -156T189 -231Q188 -252 174
-262T144 -272ZM158 425Q142 426 130 435T110 460T103 491Q103 513 117 530T161 548Q186 549 200 529T214 485Q214 469 207 456T187 434T158 425Z" />
<glyph unicode="&#xa2;" horiz-adv-x="546" d="M489 600Q496 593 499 586T502 570Q502 559 496 549T480 533T457 527Q449 527 443 530T426 543Q407 557 377 566T322 576Q288 576 256 563T199 526T160 469T145 395Q145 341 165 301T219 238T290 215Q337 215 371
229T427 272Q451 300 471 300Q489 300 501 287T514 253Q514 235 500 219Q477 192 446 173T376 144T291 133Q242 133 199 151T123 203T73 286T54 395Q54 453 74 501T131 584T217 639T322 659Q369 659 413 643T489 600ZM312 726Q315 747 329 755T359 762Q376 761
387 749T395 717Q389 677 379 618T354 487T324 340T293 190T265 52Q261 32 248 24T219 17Q203 19 191 30T182 61Q195 125 210 199T240 349T270 496T295 626T312 726Z" />
<glyph unicode="&#xa3;" horiz-adv-x="690" d="M83 -35Q61 -35 50 -25T39 4Q39 24 54 46T98 88T164 114Q182 146 188 177T194 248Q194 283 187 324T170 409T153 493T145 567Q145 630 175 676T254 747T364 772Q398 772 433 764T503 738T570 694Q578 688 580 681T582
666Q582 654 576 644T559 627T536 620Q529 620 522 624T507 633Q471 663 433 674T360 686Q324 686 296 674T251 636T234 567Q234 544 241 508T257 430T274 343T281 258Q281 211 267 161T211 73L223 133Q256 131 288 116T354 86T426 71Q466 71 489 82T528 114T560
165Q568 179 577 184T595 189Q607 189 617 184T633 169T640 149Q640 135 636 124T624 100Q589 42 537 14T433 -15Q391 -15 355 -5T289 20T236 46T196 60Q171 22 140 -6T83 -35ZM439 326Q390 325 337 325T235 326T147 331T87 338Q69 344 62 354T56 377Q61 391 84
403T133 414Q161 412 193 410T261 406T334 403T410 402T486 401Q503 398 510 387T516 361Q509 347 487 337T439 326Z" />
<glyph unicode="&#xa4;" horiz-adv-x="662" d="M317 130Q260 130 215 158T144 234T118 341Q118 379 135 416T183 484T254 533T341 552Q384 552 422 534T491 485T538 416T556 337Q556 280 525 233T440 158T317 130ZM326 210Q370 210 403 225T454 269T473 337Q473
365 463 390T434 434T392 463T338 474Q293 474 263 456T216 408T200 341Q200 302 215 273T258 227T326 210ZM586 98Q573 85 555 81T523 92Q517 99 503 113T472 144T438 179L500 240Q518 224 535 207T565 176T585 155Q599 139 599 124T586 98ZM486 433L425 495Q442
513 459 530T490 560T510 580Q526 594 541 594T567 581Q581 568 584 550T573 517Q566 511 552 498T521 467T486 433ZM168 412Q152 429 135 446T103 477T79 498Q64 511 64 527T78 559Q92 573 110 573T141 561Q150 553 164 539T196 508T230 474L168 412ZM104 73Q91
87 91 105T102 136Q111 145 125 159T156 191T189 225L251 163Q235 146 218 129T187 97T165 73Q152 58 136 58T104 73Z" />
<glyph unicode="&#xa5;" horiz-adv-x="615" d="M67 700Q63 706 61 712T59 724Q59 743 73 756T106 769Q119 769 127 764T143 746Q161 714 180 682T217 619T254 556T289 494Q309 457 323 421T343 341Q346 318 346 276T346 186T344 96T340 30Q339 9 326 -1T295 -11Q278
-11 264 -1T251 30Q252 55 253 94T255 178T256 263T255 331Q254 352 248 374T233 414Q233 413 221 433T190 487T149 558T105 634T67 700ZM342 371Q336 361 326 357T305 352Q293 352 283 357T266 372T260 393Q260 403 264 411T274 428T286 444Q308 476 336 515T394
595T453 676T503 745Q511 756 520 761T539 767Q550 767 560 762T578 749T585 728Q585 714 581 705T569 683Q556 665 534 635T485 568T431 494T380 424T342 371ZM120 342Q101 345 91 355T81 381Q81 397 91 410T120 422Q148 420 182 418T254 415T332 414T412 413T492
416Q512 417 521 405T531 377Q531 361 521 350T492 337Q442 335 387 335T280 334T186 337T120 342ZM494 255Q514 256 523 245T533 218Q533 202 524 189T494 175Q463 174 413 174T309 173T208 175T134 178Q108 180 102 191T94 219Q94 235 104 246T135 256Q159 255
204 254T302 253T407 253T494 255Z" />
<glyph unicode="&#xa6;" horiz-adv-x="318" d="M119 249Q121 271 135 281T166 291Q183 291 196 281T207 249Q194 134 191 41T188 -123Q188 -143 175 -153T144 -164Q126 -164 113 -154T99 -123Q99 -53 102 40T119 249ZM135 827Q137 848 150 858T180 869Q198 869
211 859T223 827Q216 712 213 624T210 466Q210 446 197 436T167 425Q149 425 136 435T122 466Q122 536 125 624T135 827Z" />
<glyph unicode="&#xa7;" horiz-adv-x="608" d="M305 -101Q272 -101 241 -91T192 -64Q185 -56 182 -48T179 -33Q179 -21 185 -12T200 4T221 10Q229 10 235 8T250 0Q264 -9 279 -13T305 -17Q319 -17 338 -2T358 43Q358 73 341 101T297 155T244 204Q213 232 188 260T147
322T132 402Q132 442 150 478T209 530Q195 553 189 574T183 615Q183 659 202 695T252 753T320 775Q358 775 382 765T426 734Q433 727 435 721T438 707Q438 694 432 683T416 665T394 658Q387 658 380 662T367 672Q362 678 350 683T322 689Q305 689 293 680T274 657T268
629Q268 598 286 570T333 516T390 468Q424 442 454 414T502 350T521 267Q521 217 497 177T422 128Q447 79 447 41Q447 4 427 -28T374 -81T305 -101ZM376 194Q393 193 406 201T428 223T436 253Q437 285 425 310T393 356T349 395Q327 413 304 430T261 466Q241 459
229 443T217 403Q217 376 232 347T277 292Q293 280 320 254T376 194Z" />
<glyph unicode="&#xa8;" horiz-adv-x="505" d="M170 655Q144 655 124 673T104 718Q104 737 113 753T138 778T170 788Q190 788 211 771T232 721Q232 703 224 688T201 664T170 655ZM364 650Q340 650 322 668T303 712Q303 728 310 745T330 773T361 785Q391 785 405
773T424 745T429 721Q429 704 420 688T396 661T364 650Z" />
<glyph unicode="&#xa9;" horiz-adv-x="922" d="M471 -15Q400 -15 330 13T202 92T110 212T75 366Q75 443 104 514T187 642T311 732T467 766Q543 766 613 737T737 655T824 535T856 389Q856 312 827 240T744 111T621 19T471 -15ZM471 68Q535 68 589 94T684 166T747
268T770 386Q770 450 744 504T675 599T579 661T470 684Q402 684 346 658T248 588T184 486T161 367Q161 301 187 246T257 151T356 90T471 68ZM481 207Q427 207 385 230T317 293T292 376Q292 413 308 446T352 506T415 548T487 564Q501 564 515 562T544 553Q560 547
566 536T573 511Q573 499 563 486T536 473Q532 473 529 474T521 476Q514 478 506 480T490 482Q459 482 433 469T392 432T377 379Q377 354 389 334T425 301T477 289Q501 289 524 298T563 324Q568 332 576 335T591 338Q608 338 619 327T631 296Q631 288 628 280T616
264Q591 235 555 221T481 207Z" />
<glyph unicode="&#xaa;" horiz-adv-x="528" d="M61 645Q61 705 86 758T156 844T256 877Q279 877 306 870T355 840Q359 860 367 868T391 877Q410 877 422 868T433 840Q432 817 428 783T418 715Q416 704 413 685T408 647T406 617Q406 603 408 584T417 550T435 536Q443
536 449 541T462 560Q466 568 473 571T488 575Q503 575 514 564T524 533Q524 519 513 503T481 474T432 462Q395 462 372 485T342 544Q320 510 288 489T218 468Q169 468 134 491T80 554T61 645ZM141 647Q141 598 161 570T221 542Q242 542 259 551T290 576T313 614Q323
639 329 666T339 720T345 773Q326 788 301 796T259 804Q232 804 210 792T173 758T150 708T141 647Z" />
<glyph unicode="&#xab;" horiz-adv-x="596" d="M474 23Q457 23 444 35T420 65Q412 77 393 101T350 153T308 204T280 238Q264 256 257 268T250 293Q250 307 260 322T291 359Q318 387 360 433T459 557Q465 564 473 567T488 570Q502 570 516 560T531 531Q531 525
529 519T521 505Q487 455 442 402T350 292Q388 245 428 194T512 88Q516 83 517 78T519 67Q519 51 507 37T474 23ZM244 59Q233 59 223 64T206 80Q179 117 152 151T102 217T61 273Q54 283 47 292T39 316Q39 328 47 340T68 368Q85 389 107 413T151 460T191 502T218
533Q223 541 231 544T247 547Q260 547 270 542T287 527T293 505Q293 496 289 488T280 474Q245 434 207 396T134 318Q169 269 207 222T281 125Q284 120 286 115T288 103Q288 86 275 73T244 59Z" />
<glyph unicode="&#xac;" horiz-adv-x="650" d="M556 189Q558 169 545 158T513 147Q496 147 484 157T468 189Q465 209 466 236T469 292T471 339Q439 339 393 339T297 338T203 336T131 334Q111 333 101 344T90 373Q90 390 100 403T131 418Q157 419 201 420T297 421T396
421T477 422T519 421Q540 421 550 410T561 381Q561 365 559 332T555 260T556 189Z" />
<glyph unicode="&#xad;" horiz-adv-x="0" />
<glyph unicode="&#xae;" horiz-adv-x="825" d="M80 623Q80 687 108 745T184 848T296 919T431 945Q529 945 605 901T725 779T769 597Q769 532 745 477T676 379T568 314T425 291Q358 291 296 312T186 376T109 480T80 623ZM145 623Q145 542 182 481T283 386T426 351Q508
351 570 381T667 467T701 601Q702 684 671 748T580 848T433 885Q351 885 286 850T183 756T145 623ZM315 449Q299 449 290 455T281 481Q281 559 284 628T293 765Q294 774 301 780T316 787Q339 789 362 789T408 789Q457 788 494 779T552 749T573 693Q573 664 557
641T513 605T449 590Q486 569 511 553T564 511Q569 506 573 500T578 486Q578 473 566 463T539 452Q530 452 521 456T502 469Q486 484 460 505T404 547T352 578Q352 560 352 537T351 481Q351 462 342 456T315 449ZM354 627Q358 627 369 627T408 627Q424 627 445
634T482 654T498 687Q498 712 476 720T423 730Q407 731 391 730T363 728Q360 703 358 682T354 627Z" />
<glyph unicode="&#xaf;" horiz-adv-x="505" d="M156 672Q137 672 126 685T114 717Q114 734 127 746T156 759Q174 760 203 760T266 759T329 757T377 753Q397 752 407 738T417 708Q417 691 407 678T377 666Q359 668 330 669T267 672T204 673T156 672Z" />
<glyph unicode="&#xb0;" horiz-adv-x="448" d="M242 780Q289 780 328 755T390 690T414 606Q414 559 389 521T320 461T220 438Q173 438 137 461T79 522T58 609Q58 651 82 690T149 755T242 780ZM240 708Q208 708 185 695T150 659T138 609Q138 579 149 557T180 523T228
511Q259 511 283 522T321 555T335 606Q335 634 323 657T289 694T240 708Z" />
<glyph unicode="&#xb1;" horiz-adv-x="650" d="M367 202Q366 182 354 172T324 161Q307 161 293 171T278 202Q278 222 278 254T280 326T281 404T281 475T280 528Q279 548 293 558T325 569Q342 569 355 559T369 528Q370 511 370 480T370 410T369 332T368 258T367
202ZM131 322Q112 322 102 334T91 362Q91 380 101 393T131 406Q157 406 201 406T297 406T396 404T477 403T519 402Q539 402 549 390T559 361Q559 345 549 333T519 320Q513 320 481 320T402 320T303 321T206 322T131 322ZM131 -6Q111 -6 101 5T91 34Q91 51 101 64T131
78Q164 78 214 78T321 79T430 81T519 84Q539 85 549 73T560 44Q560 27 550 15T519 1Q482 -1 431 -2T324 -4T218 -5T131 -6Z" />
<glyph unicode="&#xb2;" horiz-adv-x="516" d="M48 764Q48 804 75 836T145 888T236 908Q291 908 334 889T403 833T429 745Q429 693 401 645T324 553T215 468Q255 473 290 474T356 475T415 468Q430 465 443 456T456 424Q456 396 441 392T411 389Q397 392 375 394T328
397T279 399T239 400Q208 400 180 396T127 389T82 385Q69 385 61 392T52 412Q52 429 58 438T75 454Q126 483 174 517T262 588T325 664T349 737Q349 783 319 809T237 836Q193 836 164 817T124 755Q123 743 114 738T87 732Q69 732 59 741T48 764Z" />
<glyph unicode="&#xb3;" horiz-adv-x="485" d="M249 381Q188 381 139 400T52 455Q41 466 41 481Q41 498 51 508T73 519Q82 519 91 517T112 504Q123 495 140 484T185 464T250 455Q284 455 306 466T340 496T352 535Q352 553 337 578T284 616Q269 608 252 602T215
595T171 598Q158 600 149 611T139 636Q139 654 148 666T174 682Q196 688 219 688T269 676Q295 696 307 718T320 762Q320 781 307 797T273 823T225 833Q196 833 174 824T134 795Q124 784 118 780T102 776Q87 776 75 786T62 816Q62 824 67 834T82 853Q113 879 149
893T233 908Q283 908 321 891T380 843T402 769Q402 736 387 707T347 658Q389 639 412 606T435 528Q435 502 424 476T391 429T333 394T249 381Z" />
<glyph unicode="&#xb4;" horiz-adv-x="505" d="M277 648Q269 633 252 631T218 639Q205 647 207 663T216 693Q229 716 244 742T275 792T302 829Q319 848 335 849T366 840Q381 830 385 811T373 773Q356 754 327 719T277 648Z" />
<glyph unicode="&#xb5;" horiz-adv-x="563" d="M89 498Q89 521 103 531T135 541Q146 541 156 537T174 523T180 498Q177 457 172 414T161 328T156 241Q156 165 175 123T231 80Q281 80 317 145T375 325Q379 371 380 404T383 461T391 503Q396 520 407 529T434 538Q460
538 470 522T481 485Q481 469 477 443T470 368T466 238Q466 184 469 131T477 24Q479 12 472 2T452 -13T424 -19Q417 -19 409 -12T393 12Q388 27 384 50T378 110Q362 77 340 51T290 9T229 -7Q183 -7 152 17T101 78T73 158T64 238Q64 282 69 326T80 413T89 498ZM65
252Q66 266 73 284T90 315T111 328Q130 328 137 314T144 280Q144 207 140 155T131 55T120 -45T114 -173Q114 -191 102 -203T70 -215Q51 -215 41 -206T27 -184T23 -155Q23 -146 26 -115T35 -37T46 61T57 163T65 252Z" />
<glyph unicode="&#xb6;" horiz-adv-x="771" d="M407 -14Q388 -14 375 -4T362 27Q362 57 363 99T364 188T365 278T363 352Q339 345 316 341T272 337Q190 337 143 385T95 513Q95 555 108 599T151 680T230 741T349 764Q373 764 396 761T442 751Q462 747 475 731T483
697Q475 665 470 616T461 514T456 416T454 345Q454 290 455 238T456 134T454 27Q453 6 440 -4T407 -14ZM281 422Q305 422 324 426T364 440Q366 497 372 557T393 673Q380 676 366 677T338 679Q317 679 292 671T242 645T203 596T188 518Q188 483 200 462T234 432T281
422ZM596 -17Q581 -17 568 -10T554 14Q548 121 548 228T551 432T555 602T553 719Q552 740 566 750T598 760Q617 760 630 750T644 720Q644 593 643 501T641 340T640 219T640 120T644 23Q646 4 631 -6T596 -17Z" />
<glyph unicode="&#xb7;" horiz-adv-x="287" d="M130 260Q108 261 90 275T72 316Q72 329 79 344T101 371T139 383Q168 383 179 363T190 325Q190 299 173 280T130 260Z" />
<glyph unicode="&#xb8;" horiz-adv-x="255" d="M-10 -250Q-28 -250 -51 -246T-94 -229Q-104 -223 -107 -214T-107 -191Q-103 -177 -94 -172T-73 -171Q-64 -175 -49 -178T-20 -182Q3 -182 12 -172T22 -149Q22 -131 7 -124T-31 -123Q-44 -127 -51 -124T-64 -113Q-68
-105 -67 -96T-60 -73L-28 0H30L-2 -77L-24 -66Q11 -57 39 -64T85 -93T103 -149Q103 -192 72 -221T-10 -250Z" />
<glyph unicode="&#xb9;" horiz-adv-x="354" d="M86 672Q83 671 79 670T66 669Q57 669 50 675T38 690T33 708Q33 719 36 727T56 744Q87 760 118 785T178 840T226 896Q231 902 237 905T254 908Q269 908 282 901T296 883Q296 868 289 843Q272 771 264 694T254 547T256
428Q258 407 245 398T215 389Q189 389 182 404T175 438Q175 518 177 581T186 703T205 823L226 788Q207 769 184 747T136 705T86 672Z" />
<glyph unicode="&#xba;" horiz-adv-x="480" d="M62 674Q62 727 83 774T147 851T251 881Q312 881 352 853T412 780T433 683Q433 628 413 579T352 499T252 468Q196 468 153 495T86 569T62 674ZM142 679Q142 640 154 609T191 559T251 541Q286 541 308 561T341 612T352
679Q352 735 328 770T250 806Q216 806 192 790T155 744T142 679Z" />
<glyph unicode="&#xbb;" horiz-adv-x="573" d="M109 18Q86 18 75 33T64 62Q64 68 68 77T77 94Q112 144 154 196T233 306Q203 358 166 404T95 501Q92 506 90 511T88 522Q88 539 101 553T131 567Q142 567 152 561T172 543Q182 531 202 503T247 442T291 380T319 336Q323
330 325 322T327 307Q327 296 323 286T307 258Q286 226 257 187T198 110T146 39Q139 29 130 24T109 18ZM342 45Q323 45 309 57T294 88Q294 93 296 98T301 110Q327 148 350 178T396 238T443 306Q413 354 387 394T329 480Q326 486 324 491T322 503Q322 521 334 533T365
546Q375 546 384 541T400 525Q426 483 445 454T483 400T522 345Q529 335 532 326T536 311Q536 301 532 292T522 273Q485 218 446 168T377 66Q371 56 362 51T342 45Z" />
<glyph unicode="&#xbc;" horiz-adv-x="1103" d="M727 804Q738 823 753 826T781 822Q796 813 798 800T789 769Q755 722 712 661T620 529T523 384T426 238T336 100T261 -20Q251 -39 236 -41T207 -37Q177 -18 197 16Q231 72 274 139T365 279T463 426T561 569T651
698T727 804ZM104 550Q101 549 97 548T84 547Q75 547 68 553T56 568T51 586Q51 597 54 605T74 622Q105 638 136 663T196 718T244 774Q249 780 255 783T272 786Q287 786 300 779T314 761Q314 746 307 721Q290 649 282 572T272 425T274 306Q276 285 263 276T233 267Q207
267 200 282T193 316Q193 396 195 459T204 581T223 701L244 666Q225 647 202 625T154 583T104 550ZM759 493Q766 510 776 516T802 523Q822 523 832 516T843 499Q843 495 842 488T836 470Q808 398 783 333T728 196Q773 195 826 194T935 192T1036 188Q1049 187 1056
177T1064 150Q1064 131 1052 122T1025 113Q1020 113 998 114T943 115T871 117T794 119T723 122T669 124Q655 125 644 134T633 157Q633 164 635 172T642 194Q644 199 653 222T676 281T705 356T735 432T759 493ZM916 371Q918 388 928 397T957 406Q977 406 988 397T997
368Q991 307 988 265T982 189T979 118T978 31Q978 9 966 0T937 -9Q916 -9 907 -1T898 29Q898 84 900 142T906 258T916 371Z" />
<glyph unicode="&#xbd;" horiz-adv-x="1096" d="M727 804Q738 823 753 826T781 822Q796 813 798 800T789 769Q755 722 712 661T620 529T523 384T426 238T336 100T261 -20Q251 -39 236 -41T207 -37Q177 -18 197 16Q231 72 274 139T365 279T463 426T561 569T651
698T727 804ZM104 550Q101 549 97 548T84 547Q75 547 68 553T56 568T51 586Q51 597 54 605T74 622Q105 638 136 663T196 718T244 774Q249 780 255 783T272 786Q287 786 300 779T314 761Q314 746 307 721Q290 649 282 572T272 425T274 306Q276 285 263 276T233 267Q207
267 200 282T193 316Q193 396 195 459T204 581T223 701L244 666Q225 647 202 625T154 583T104 550ZM641 373Q641 413 668 445T738 497T829 517Q884 517 927 498T996 442T1022 354Q1022 302 994 254T917 162T808 77Q848 82 883 83T949 84T1008 77Q1023 74 1036 65T1049
33Q1049 5 1034 1T1004 -2Q990 1 968 3T921 6T872 8T832 9Q801 9 773 5T720 -2T675 -6Q662 -6 654 1T645 21Q645 38 651 47T668 63Q719 92 767 126T855 197T918 273T942 346Q942 392 912 418T830 445Q786 445 757 426T717 364Q716 352 707 347T680 341Q662 341
652 350T641 373Z" />
<glyph unicode="&#xbe;" horiz-adv-x="1164" d="M846 804Q857 823 872 826T900 822Q915 813 918 800T909 769Q875 722 832 661T740 529T642 384T545 238T455 100T380 -20Q370 -39 356 -41T327 -37Q297 -18 317 16Q351 72 394 139T485 279T582 426T680 569T770
698T846 804ZM259 259Q198 259 149 278T62 333Q51 344 51 359Q51 376 61 386T83 397Q92 397 101 395T122 382Q133 373 150 362T195 342T260 333Q294 333 316 344T350 374T362 413Q362 431 347 456T294 494Q279 486 262 480T225 473T181 476Q168 478 159 489T149
514Q149 532 158 544T184 560Q206 566 229 566T279 554Q305 574 317 596T330 640Q330 659 317 675T283 701T235 711Q206 711 184 702T144 673Q134 662 128 658T112 654Q97 654 85 664T72 694Q72 702 77 712T92 731Q123 757 159 771T243 786Q293 786 331 769T390
721T412 647Q412 614 397 585T357 536Q399 517 422 484T445 406Q445 380 434 354T401 307T343 272T259 259ZM808 492Q815 509 825 515T851 522Q871 522 881 515T892 498Q892 494 891 487T885 469Q857 397 832 332T777 195Q822 194 875 193T984 191T1085 187Q1098
186 1105 176T1113 149Q1113 130 1101 121T1074 112Q1069 112 1047 113T992 114T920 116T843 118T772 121T718 123Q704 124 693 133T682 156Q682 163 684 171T691 193Q693 198 702 221T725 280T754 355T784 431T808 492ZM965 370Q967 387 977 396T1006 405Q1026
405 1037 396T1046 367Q1040 306 1037 264T1031 188T1028 117T1027 30Q1027 8 1015 -1T986 -10Q965 -10 956 -2T947 28Q947 83 949 141T955 257T965 370Z" />
<glyph unicode="&#xbf;" horiz-adv-x="532" d="M257 -278Q190 -278 139 -250T60 -171T32 -51Q32 18 60 74T139 163T262 199L268 283Q268 304 282 314T312 324Q329 324 343 314T355 283L346 166Q344 140 329 133T290 125Q239 123 201 107T143 54T122 -52Q122 -89
135 -121T178 -174T257 -194Q308 -194 345 -175T408 -128Q421 -115 436 -115Q453 -115 465 -127T478 -157Q478 -165 475 -172T465 -187Q426 -232 371 -255T257 -278ZM310 412Q299 412 286 419T263 438T253 466Q253 484 262 502T289 533T328 546Q340 546 352 540T373
523T382 499Q382 481 373 461T347 426T310 412Z" />
<glyph unicode="&#xc0;" horiz-adv-x="766" d="M114 18Q109 1 98 -7T69 -15Q50 -15 36 -4T22 26Q22 31 24 38T33 65Q67 152 105 238T185 412T270 586T355 763Q361 776 372 782T397 789Q414 789 427 780T446 756Q451 744 468 701T509 594T561 458T618 312T672 176T715
71Q720 61 725 49T730 28Q730 6 717 -6T686 -19Q676 -19 663 -15T643 4Q609 85 575 175T507 353T445 518T395 650Q346 541 297 436T201 226T114 18ZM146 286Q146 299 155 307T176 321T200 328Q222 333 261 336T352 341T465 339Q484 338 504 338T542 340T576 342T603
346Q624 349 637 335T650 302Q650 285 640 275T612 260T577 254T542 252Q485 252 426 252T310 248T196 238Q181 237 164 252T146 286ZM414 847Q392 861 369 878T326 913T290 949Q277 966 277 982T290 1011Q303 1025 321 1028T356 1012Q374 990 402 960T463 904Q477
894 480 878T473 850Q460 836 444 837T414 847Z" />
<glyph unicode="&#xc1;" horiz-adv-x="766" d="M114 18Q109 1 98 -7T69 -15Q50 -15 36 -4T22 26Q22 31 24 38T33 65Q67 152 105 238T185 412T270 586T355 763Q361 776 372 782T397 789Q414 789 427 780T446 756Q451 744 468 701T509 594T561 458T618 312T672 176T715
71Q720 61 725 49T730 28Q730 6 717 -6T686 -19Q676 -19 663 -15T643 4Q609 85 575 175T507 353T445 518T395 650Q346 541 297 436T201 226T114 18ZM146 286Q146 299 155 307T176 321T200 328Q222 333 261 336T352 341T465 339Q484 338 504 338T542 340T576 342T603
346Q624 349 637 335T650 302Q650 285 640 275T612 260T577 254T542 252Q485 252 426 252T310 248T196 238Q181 237 164 252T146 286ZM363 836Q349 836 335 846T321 870Q321 880 327 889T340 906Q358 925 379 946T422 987T457 1016Q466 1023 474 1025T490 1028Q502
1028 512 1021T527 1004T533 982Q533 959 512 945Q491 931 454 904T387 847Q376 836 363 836Z" />
<glyph unicode="&#xc2;" horiz-adv-x="766" d="M114 18Q109 1 98 -7T69 -15Q50 -15 36 -4T22 26Q22 31 24 38T33 65Q67 152 105 238T185 412T270 586T355 763Q361 776 372 782T397 789Q414 789 427 780T446 756Q451 744 468 701T509 594T561 458T618 312T672 176T715
71Q720 61 725 49T730 28Q730 6 717 -6T686 -19Q676 -19 663 -15T643 4Q609 85 575 175T507 353T445 518T395 650Q346 541 297 436T201 226T114 18ZM146 286Q146 299 155 307T176 321T200 328Q222 333 261 336T352 341T465 339Q484 338 504 338T542 340T576 342T603
346Q624 349 637 335T650 302Q650 285 640 275T612 260T577 254T542 252Q485 252 426 252T310 248T196 238Q181 237 164 252T146 286ZM302 840Q289 827 274 826T244 838Q234 848 235 862T246 890Q262 911 283 932T327 972T365 1001Q379 1009 390 1013T411 1018Q422
1018 430 1013T446 999Q468 975 495 948T556 893Q568 883 569 867T559 838Q548 827 536 827T503 840Q477 857 451 878T402 922Q387 913 369 899T334 870T302 840Z" />
<glyph unicode="&#xc3;" horiz-adv-x="766" d="M114 18Q109 1 98 -7T69 -15Q50 -15 36 -4T22 26Q22 31 24 38T33 65Q67 152 105 238T185 412T270 586T355 763Q361 776 372 782T397 789Q414 789 427 780T446 756Q451 744 468 701T509 594T561 458T618 312T672 176T715
71Q720 61 725 49T730 28Q730 6 717 -6T686 -19Q676 -19 663 -15T643 4Q609 85 575 175T507 353T445 518T395 650Q346 541 297 436T201 226T114 18ZM146 286Q146 299 155 307T176 321T200 328Q222 333 261 336T352 341T465 339Q484 338 504 338T542 340T576 342T603
346Q624 349 637 335T650 302Q650 285 640 275T612 260T577 254T542 252Q485 252 426 252T310 248T196 238Q181 237 164 252T146 286ZM485 860Q452 860 430 867T391 883T361 900T331 907Q303 907 306 871Q307 859 296 852T271 844T245 849T232 872Q230 928 253
960T319 992Q346 992 365 985T400 968T431 951T466 943Q481 943 489 954T505 991Q508 1003 518 1005T541 1004T563 992T570 971Q563 916 540 888T485 860Z" />
<glyph unicode="&#xc4;" horiz-adv-x="766" d="M114 18Q109 1 98 -7T69 -15Q50 -15 36 -4T22 26Q22 31 24 38T33 65Q67 152 105 238T185 412T270 586T355 763Q361 776 372 782T397 789Q414 789 427 780T446 756Q451 744 468 701T509 594T561 458T618 312T672 176T715
71Q720 61 725 49T730 28Q730 6 717 -6T686 -19Q676 -19 663 -15T643 4Q609 85 575 175T507 353T445 518T395 650Q346 541 297 436T201 226T114 18ZM146 286Q146 299 155 307T176 321T200 328Q222 333 261 336T352 341T465 339Q484 338 504 338T542 340T576 342T603
346Q624 349 637 335T650 302Q650 285 640 275T612 260T577 254T542 252Q485 252 426 252T310 248T196 238Q181 237 164 252T146 286ZM307 857Q281 857 261 875T241 920Q241 939 250 955T275 980T307 990Q327 990 348 973T369 923Q369 905 361 890T338 866T307
857ZM501 852Q477 852 459 870T440 914Q440 930 447 947T467 975T498 987Q528 987 542 975T561 947T566 923Q566 906 557 890T533 863T501 852Z" />
<glyph unicode="&#xc5;" horiz-adv-x="766" d="M114 18Q109 1 98 -7T69 -15Q50 -15 36 -4T22 26Q22 31 24 38T33 65Q67 152 105 238T185 412T270 586T355 763Q361 776 372 782T397 789Q414 789 427 780T446 756Q451 744 468 701T509 594T561 458T618 312T672 176T715
71Q720 61 725 49T730 28Q730 6 717 -6T686 -19Q676 -19 663 -15T643 4Q609 85 575 175T507 353T445 518T395 650Q346 541 297 436T201 226T114 18ZM146 286Q146 299 155 307T176 321T200 328Q222 333 261 336T352 341T465 339Q484 338 504 338T542 340T576 342T603
346Q624 349 637 335T650 302Q650 285 640 275T612 260T577 254T542 252Q485 252 426 252T310 248T196 238Q181 237 164 252T146 286ZM395 808Q344 808 312 842T281 927Q281 956 299 983T347 1028T410 1046Q444 1046 471 1029T514 985T531 927Q531 878 493 843T395
808ZM402 877Q425 877 440 890T455 927Q455 947 442 962T408 977Q387 977 372 962T356 927Q356 904 368 891T402 877Z" />
<glyph unicode="&#xc6;" horiz-adv-x="1093" d="M106 4Q99 -5 90 -8T71 -12Q59 -12 48 -7T29 9T22 31Q23 42 28 50T40 68Q89 130 144 202T255 351T366 503T469 646T554 768Q562 779 574 785T601 792Q618 792 629 786T646 768Q662 769 694 769T767 769T851 768T934
766T1000 763Q1017 762 1029 751T1041 720Q1041 695 1025 685T987 677Q975 678 947 679T881 681T801 682T719 683T646 684Q644 658 643 626T640 560T637 494T636 434Q675 440 713 443T790 449T867 452T946 453Q963 453 975 442T987 411Q986 383 966 375T920 367Q882
367 833 365T733 359T636 348Q636 323 637 292T639 226T643 157T648 93Q708 95 766 97T882 100T998 101Q1017 101 1029 89T1041 58Q1041 33 1023 23T980 13Q965 13 933 13T861 13T780 11T706 9T656 6Q656 -14 642 -24T610 -36Q590 -37 578 -24T563 6Q554 96 549
196T544 399T548 602Q494 525 439 450T329 300T219 151T106 4ZM281 210Q262 210 252 223T242 256Q242 273 252 285T283 297Q329 297 376 297T470 299T562 303Q582 303 592 292T602 261Q602 243 592 230T562 216Q517 214 470 213T376 211T281 210Z" />
<glyph unicode="&#xc7;" horiz-adv-x="771" d="M681 681Q687 677 691 670T695 654Q695 641 689 630T673 613T653 606Q642 606 634 612T618 623Q579 650 548 665T484 687T408 694Q334 694 279 655T193 541T162 363Q162 276 191 209T272 103T393 65Q437 65 480 79T562
118T630 178Q638 187 646 191T665 195Q676 195 685 190T700 174T706 152Q706 139 698 125T673 94Q621 39 547 9T393 -22Q291 -22 219 24T108 157T69 367Q69 462 94 538T165 668T274 751T415 780Q463 780 510 769T600 735T681 681ZM384 -250Q366 -250 343 -246T300
-229Q290 -223 287 -214T287 -191Q291 -177 300 -172T321 -171Q330 -175 345 -178T374 -182Q397 -182 406 -172T416 -149Q416 -131 401 -124T363 -123Q350 -127 343 -124T330 -113Q326 -105 327 -96T334 -73L366 0H424L392 -77L370 -66Q405 -57 433 -64T479 -93T497
-149Q497 -192 466 -221T384 -250Z" />
<glyph unicode="&#xc8;" horiz-adv-x="628" d="M147 -15Q136 -15 122 -13T97 -2T86 27Q95 139 102 254T116 485T128 713Q130 737 140 750T177 765Q229 769 284 771T400 775T530 777Q555 777 565 766T576 736Q576 716 566 704T530 691Q482 691 441 691T362 689T289
686T218 681Q216 642 214 600T210 517T205 436Q249 442 299 445T397 449T475 448Q492 448 504 437T517 406Q518 386 505 374T475 362Q450 364 405 364T306 360T200 349Q196 281 191 212T181 75Q216 77 258 80T347 85T436 90T513 92Q533 92 543 80T553 51Q553 32
543 19T513 6Q493 6 473 6T432 5Q385 4 337 1T242 -6T147 -15ZM369 847Q347 861 324 878T281 913T245 949Q232 966 232 982T245 1011Q258 1025 276 1028T311 1012Q329 990 357 960T418 904Q432 894 435 878T428 850Q415 836 399 837T369 847Z" />
<glyph unicode="&#xc9;" horiz-adv-x="628" d="M147 -15Q136 -15 122 -13T97 -2T86 27Q95 139 102 254T116 485T128 713Q130 737 140 750T177 765Q229 769 284 771T400 775T530 777Q555 777 565 766T576 736Q576 716 566 704T530 691Q482 691 441 691T362 689T289
686T218 681Q216 642 214 600T210 517T205 436Q249 442 299 445T397 449T475 448Q492 448 504 437T517 406Q518 386 505 374T475 362Q450 364 405 364T306 360T200 349Q196 281 191 212T181 75Q216 77 258 80T347 85T436 90T513 92Q533 92 543 80T553 51Q553 32
543 19T513 6Q493 6 473 6T432 5Q385 4 337 1T242 -6T147 -15ZM318 836Q304 836 290 846T276 870Q276 880 282 889T295 906Q313 925 334 946T377 987T412 1016Q421 1023 429 1025T445 1028Q457 1028 467 1021T482 1004T488 982Q488 959 467 945Q446 931 409 904T342
847Q331 836 318 836Z" />
<glyph unicode="&#xca;" horiz-adv-x="628" d="M147 -15Q136 -15 122 -13T97 -2T86 27Q95 139 102 254T116 485T128 713Q130 737 140 750T177 765Q229 769 284 771T400 775T530 777Q555 777 565 766T576 736Q576 716 566 704T530 691Q482 691 441 691T362 689T289
686T218 681Q216 642 214 600T210 517T205 436Q249 442 299 445T397 449T475 448Q492 448 504 437T517 406Q518 386 505 374T475 362Q450 364 405 364T306 360T200 349Q196 281 191 212T181 75Q216 77 258 80T347 85T436 90T513 92Q533 92 543 80T553 51Q553 32
543 19T513 6Q493 6 473 6T432 5Q385 4 337 1T242 -6T147 -15ZM257 840Q244 827 229 826T199 838Q189 848 190 862T201 890Q217 911 238 932T282 972T320 1001Q334 1009 345 1013T366 1018Q377 1018 385 1013T401 999Q423 975 450 948T511 893Q523 883 524 867T514
838Q503 827 491 827T458 840Q432 857 406 878T357 922Q342 913 324 899T289 870T257 840Z" />
<glyph unicode="&#xcb;" horiz-adv-x="628" d="M147 -15Q136 -15 122 -13T97 -2T86 27Q95 139 102 254T116 485T128 713Q130 737 140 750T177 765Q229 769 284 771T400 775T530 777Q555 777 565 766T576 736Q576 716 566 704T530 691Q482 691 441 691T362 689T289
686T218 681Q216 642 214 600T210 517T205 436Q249 442 299 445T397 449T475 448Q492 448 504 437T517 406Q518 386 505 374T475 362Q450 364 405 364T306 360T200 349Q196 281 191 212T181 75Q216 77 258 80T347 85T436 90T513 92Q533 92 543 80T553 51Q553 32
543 19T513 6Q493 6 473 6T432 5Q385 4 337 1T242 -6T147 -15ZM262 857Q236 857 216 875T196 920Q196 939 205 955T230 980T262 990Q282 990 303 973T324 923Q324 905 316 890T293 866T262 857ZM456 852Q432 852 414 870T395 914Q395 930 402 947T422 975T453 987Q483
987 497 975T516 947T521 923Q521 906 512 890T488 863T456 852Z" />
<glyph unicode="&#xcc;" horiz-adv-x="309" d="M125 727Q126 748 140 758T171 768Q190 768 204 758T217 726Q201 551 192 376T179 24Q179 3 165 -7T133 -17Q115 -17 101 -7T87 25Q91 200 100 376T125 727ZM190 843Q168 857 145 874T102 909T66 945Q53 962 53 978T66
1007Q79 1021 97 1024T132 1008Q150 986 178 956T239 900Q253 890 256 874T249 846Q236 832 220 833T190 843Z" />
<glyph unicode="&#xcd;" horiz-adv-x="309" d="M125 727Q126 748 140 758T171 768Q190 768 204 758T217 726Q201 551 192 376T179 24Q179 3 165 -7T133 -17Q115 -17 101 -7T87 25Q91 200 100 376T125 727ZM139 832Q125 832 111 842T97 866Q97 876 103 885T116
902Q134 921 155 942T198 983T233 1012Q242 1019 250 1021T266 1024Q278 1024 288 1017T303 1000T309 978Q309 955 288 941Q267 927 230 900T163 843Q152 832 139 832Z" />
<glyph unicode="&#xce;" horiz-adv-x="309" d="M125 727Q126 748 140 758T171 768Q190 768 204 758T217 726Q201 551 192 376T179 24Q179 3 165 -7T133 -17Q115 -17 101 -7T87 25Q91 200 100 376T125 727ZM78 836Q65 823 50 822T20 834Q10 844 11 858T22 886Q38
907 59 928T103 968T141 997Q155 1005 166 1009T187 1014Q198 1014 206 1009T222 995Q244 971 271 944T332 889Q344 879 345 863T335 834Q324 823 312 823T279 836Q253 853 227 874T178 918Q163 909 145 895T110 866T78 836Z" />
<glyph unicode="&#xcf;" horiz-adv-x="309" d="M125 727Q126 748 140 758T171 768Q190 768 204 758T217 726Q201 551 192 376T179 24Q179 3 165 -7T133 -17Q115 -17 101 -7T87 25Q91 200 100 376T125 727ZM83 853Q57 853 37 871T17 916Q17 935 26 951T51 976T83
986Q103 986 124 969T145 919Q145 901 137 886T114 862T83 853ZM277 848Q253 848 235 866T216 910Q216 926 223 943T243 971T274 983Q304 983 318 971T337 943T342 919Q342 902 333 886T309 859T277 848Z" />
<glyph unicode="&#xd0;" horiz-adv-x="813" d="M80 349Q61 349 50 360T38 391Q38 408 51 419T80 430Q129 429 185 429T297 430T401 433Q421 434 431 422T442 393Q442 375 432 364T401 352Q352 350 297 349T185 348T80 349ZM106 22Q111 126 118 230T133 440Q138
506 141 572T146 704Q146 718 154 729T178 745Q200 750 222 753T265 759T307 762T347 764Q449 764 524 734T649 651T723 532T748 394Q748 317 720 243T635 108T497 11T308 -25Q277 -25 246 -22T181 -11Q174 -15 166 -17T150 -19Q134 -19 120 -9T106 22ZM200 73Q209
70 222 68T252 65T283 62T308 61Q377 61 439 83T551 149T628 254T657 397Q657 472 630 525T559 612T463 662T361 678Q340 678 317 677T272 673T234 667Q232 606 229 547T223 429T215 311T208 193T200 73Z" />
<glyph unicode="&#xd1;" horiz-adv-x="782" d="M177 26Q175 10 162 3T132 -5Q115 -5 100 7T86 42Q101 167 111 284T124 516T122 747Q121 767 134 778T167 789Q180 789 191 784T209 764Q216 752 235 720T284 641T350 536T425 417T503 292T579 172Q578 242 580 313T587
456T598 596T612 732Q614 752 626 764T659 776Q684 776 693 764T701 728Q693 646 687 570T675 414T667 241T663 31Q663 15 651 3T619 -10Q605 -10 594 -4T574 15Q522 95 483 156T412 267T350 366T287 468T212 592Q214 519 212 448T206 307T194 167T177 26ZM505
860Q472 860 450 867T411 883T381 900T351 907Q323 907 326 871Q327 859 316 852T291 844T265 849T252 872Q250 928 273 960T339 992Q366 992 385 985T420 968T451 951T486 943Q501 943 509 954T525 991Q528 1003 538 1005T561 1004T583 992T590 971Q583 916 560
888T505 860Z" />
<glyph unicode="&#xd2;" horiz-adv-x="805" d="M553 761Q568 757 575 747T583 723Q583 715 580 706T569 690T551 680T527 679Q514 684 493 689T438 695Q373 695 322 666T235 586T181 476T162 353Q162 295 177 243T223 151T297 89T398 66Q467 66 523 102T613 210T647
384Q647 442 636 491T607 578T575 635Q565 649 559 657T553 677Q553 686 557 694T568 710T583 722T600 726Q616 726 626 717T645 695T661 671Q701 612 720 537T739 385Q739 303 716 230T649 101T541 12T396 -20Q329 -20 276 2T184 63T119 150T81 250T68 352Q68
432 95 508T172 647T289 746T438 783Q465 783 495 778T553 761ZM445 854Q423 868 400 885T357 920T321 956Q308 973 308 989T321 1018Q334 1032 352 1035T387 1019Q405 997 433 967T494 911Q508 901 511 885T504 857Q491 843 475 844T445 854Z" />
<glyph unicode="&#xd3;" horiz-adv-x="805" d="M553 761Q568 757 575 747T583 723Q583 715 580 706T569 690T551 680T527 679Q514 684 493 689T438 695Q373 695 322 666T235 586T181 476T162 353Q162 295 177 243T223 151T297 89T398 66Q467 66 523 102T613 210T647
384Q647 442 636 491T607 578T575 635Q565 649 559 657T553 677Q553 686 557 694T568 710T583 722T600 726Q616 726 626 717T645 695T661 671Q701 612 720 537T739 385Q739 303 716 230T649 101T541 12T396 -20Q329 -20 276 2T184 63T119 150T81 250T68 352Q68
432 95 508T172 647T289 746T438 783Q465 783 495 778T553 761ZM394 843Q380 843 366 853T352 877Q352 887 358 896T371 913Q389 932 410 953T453 994T488 1023Q497 1030 505 1032T521 1035Q533 1035 543 1028T558 1011T564 989Q564 966 543 952Q522 938 485 911T418
854Q407 843 394 843Z" />
<glyph unicode="&#xd4;" horiz-adv-x="805" d="M553 761Q568 757 575 747T583 723Q583 715 580 706T569 690T551 680T527 679Q514 684 493 689T438 695Q373 695 322 666T235 586T181 476T162 353Q162 295 177 243T223 151T297 89T398 66Q467 66 523 102T613 210T647
384Q647 442 636 491T607 578T575 635Q565 649 559 657T553 677Q553 686 557 694T568 710T583 722T600 726Q616 726 626 717T645 695T661 671Q701 612 720 537T739 385Q739 303 716 230T649 101T541 12T396 -20Q329 -20 276 2T184 63T119 150T81 250T68 352Q68
432 95 508T172 647T289 746T438 783Q465 783 495 778T553 761ZM333 847Q320 834 305 833T275 845Q265 855 266 869T277 897Q293 918 314 939T358 979T396 1008Q410 1016 421 1020T442 1025Q453 1025 461 1020T477 1006Q499 982 526 955T587 900Q599 890 600 874T590
845Q579 834 567 834T534 847Q508 864 482 885T433 929Q418 920 400 906T365 877T333 847Z" />
<glyph unicode="&#xd5;" horiz-adv-x="805" d="M553 761Q568 757 575 747T583 723Q583 715 580 706T569 690T551 680T527 679Q514 684 493 689T438 695Q373 695 322 666T235 586T181 476T162 353Q162 295 177 243T223 151T297 89T398 66Q467 66 523 102T613 210T647
384Q647 442 636 491T607 578T575 635Q565 649 559 657T553 677Q553 686 557 694T568 710T583 722T600 726Q616 726 626 717T645 695T661 671Q701 612 720 537T739 385Q739 303 716 230T649 101T541 12T396 -20Q329 -20 276 2T184 63T119 150T81 250T68 352Q68
432 95 508T172 647T289 746T438 783Q465 783 495 778T553 761ZM516 867Q483 867 461 874T422 890T392 907T362 914Q334 914 337 878Q338 866 327 859T302 851T276 856T263 879Q261 935 284 967T350 999Q377 999 396 992T431 975T462 958T497 950Q512 950 520 961T536
998Q539 1010 549 1012T572 1011T594 999T601 978Q594 923 571 895T516 867Z" />
<glyph unicode="&#xd6;" horiz-adv-x="805" d="M553 761Q568 757 575 747T583 723Q583 715 580 706T569 690T551 680T527 679Q514 684 493 689T438 695Q373 695 322 666T235 586T181 476T162 353Q162 295 177 243T223 151T297 89T398 66Q467 66 523 102T613 210T647
384Q647 442 636 491T607 578T575 635Q565 649 559 657T553 677Q553 686 557 694T568 710T583 722T600 726Q616 726 626 717T645 695T661 671Q701 612 720 537T739 385Q739 303 716 230T649 101T541 12T396 -20Q329 -20 276 2T184 63T119 150T81 250T68 352Q68
432 95 508T172 647T289 746T438 783Q465 783 495 778T553 761ZM338 864Q312 864 292 882T272 927Q272 946 281 962T306 987T338 997Q358 997 379 980T400 930Q400 912 392 897T369 873T338 864ZM532 859Q508 859 490 877T471 921Q471 937 478 954T498 982T529
994Q559 994 573 982T592 954T597 930Q597 913 588 897T564 870T532 859Z" />
<glyph unicode="&#xd7;" horiz-adv-x="650" d="M523 178Q537 164 537 149T524 123Q513 111 496 109T465 122Q445 143 411 178T335 256T253 339T178 414T125 466Q111 480 112 496T125 523Q137 535 152 535T182 523Q200 507 233 474T308 398T392 314T469 235T523
178ZM185 123Q170 109 155 110T128 122Q117 133 115 150T127 180Q145 199 180 233T258 310T344 395T421 470T472 520Q486 534 502 533T528 521Q539 510 540 494T528 464Q513 449 480 417T405 343T320 258T241 179T185 123Z" />
<glyph unicode="&#xd8;" horiz-adv-x="805" d="M553 761Q568 757 575 747T583 723Q583 715 580 706T569 690T551 680T527 679Q514 684 493 689T438 695Q373 695 322 666T235 586T181 476T162 353Q162 295 177 243T223 151T297 89T398 66Q467 66 523 102T613 210T647
384Q647 442 636 491T607 578T575 635Q565 649 559 657T553 677Q553 686 557 694T568 710T583 722T600 726Q616 726 626 717T645 695T661 671Q701 612 720 537T739 385Q739 303 716 230T649 101T541 12T396 -20Q329 -20 276 2T184 63T119 150T81 250T68 352Q68
432 95 508T172 647T289 746T438 783Q465 783 495 778T553 761ZM144 -32Q140 -37 132 -42T112 -47T88 -38Q74 -27 71 -11T78 19Q177 140 274 267T467 524T657 778Q666 790 675 796T693 802T712 795Q721 788 726 779T732 758T723 735Q581 545 437 351T144 -32Z"
/>
<glyph unicode="&#xd9;" horiz-adv-x="780" d="M118 733Q122 750 134 758T162 766Q182 766 198 754T210 721Q207 708 204 676T197 601T191 516T189 438Q189 303 206 225T267 113T390 79Q431 79 469 94T536 149T583 262T601 451Q601 527 595 597T584 734Q583 752
596 764T628 776Q649 777 659 768T672 743T677 708Q680 679 682 651T687 590T690 519T692 427Q692 338 678 260T628 121T535 26T387 -8Q316 -8 264 14T176 77T122 174T102 299Q99 338 98 391T97 503T104 621T118 733ZM414 838Q392 852 369 869T326 904T290 940Q277
957 277 973T290 1002Q303 1016 321 1019T356 1003Q374 981 402 951T463 895Q477 885 480 869T473 841Q460 827 444 828T414 838Z" />
<glyph unicode="&#xda;" horiz-adv-x="780" d="M118 733Q122 750 134 758T162 766Q182 766 198 754T210 721Q207 708 204 676T197 601T191 516T189 438Q189 303 206 225T267 113T390 79Q431 79 469 94T536 149T583 262T601 451Q601 527 595 597T584 734Q583 752
596 764T628 776Q649 777 659 768T672 743T677 708Q680 679 682 651T687 590T690 519T692 427Q692 338 678 260T628 121T535 26T387 -8Q316 -8 264 14T176 77T122 174T102 299Q99 338 98 391T97 503T104 621T118 733ZM363 827Q349 827 335 837T321 861Q321 871
327 880T340 897Q358 916 379 937T422 978T457 1007Q466 1014 474 1016T490 1019Q502 1019 512 1012T527 995T533 973Q533 950 512 936Q491 922 454 895T387 838Q376 827 363 827Z" />
<glyph unicode="&#xdb;" horiz-adv-x="780" d="M118 733Q122 750 134 758T162 766Q182 766 198 754T210 721Q207 708 204 676T197 601T191 516T189 438Q189 303 206 225T267 113T390 79Q431 79 469 94T536 149T583 262T601 451Q601 527 595 597T584 734Q583 752
596 764T628 776Q649 777 659 768T672 743T677 708Q680 679 682 651T687 590T690 519T692 427Q692 338 678 260T628 121T535 26T387 -8Q316 -8 264 14T176 77T122 174T102 299Q99 338 98 391T97 503T104 621T118 733ZM302 831Q289 818 274 817T244 829Q234 839
235 853T246 881Q262 902 283 923T327 963T365 992Q379 1000 390 1004T411 1009Q422 1009 430 1004T446 990Q468 966 495 939T556 884Q568 874 569 858T559 829Q548 818 536 818T503 831Q477 848 451 869T402 913Q387 904 369 890T334 861T302 831Z" />
<glyph unicode="&#xdc;" horiz-adv-x="780" d="M118 733Q122 750 134 758T162 766Q182 766 198 754T210 721Q207 708 204 676T197 601T191 516T189 438Q189 303 206 225T267 113T390 79Q431 79 469 94T536 149T583 262T601 451Q601 527 595 597T584 734Q583 752
596 764T628 776Q649 777 659 768T672 743T677 708Q680 679 682 651T687 590T690 519T692 427Q692 338 678 260T628 121T535 26T387 -8Q316 -8 264 14T176 77T122 174T102 299Q99 338 98 391T97 503T104 621T118 733ZM307 848Q281 848 261 866T241 911Q241 930
250 946T275 971T307 981Q327 981 348 964T369 914Q369 896 361 881T338 857T307 848ZM501 843Q477 843 459 861T440 905Q440 921 447 938T467 966T498 978Q528 978 542 966T561 938T566 914Q566 897 557 881T533 854T501 843Z" />
<glyph unicode="&#xdd;" horiz-adv-x="642" d="M57 714Q48 731 53 745T71 769T100 778Q112 778 122 773T138 756Q152 731 172 694T216 615T261 536T297 472T315 440Q353 499 389 554T461 660T531 759Q539 770 547 775T566 780Q583 780 597 770T615 745T609 713Q569
656 527 596T443 472T357 340Q358 262 349 185T331 31Q330 13 318 2T284 -11Q265 -12 252 1T239 32Q247 108 256 183T265 336Q217 437 161 531T57 714ZM304 836Q290 836 276 846T262 870Q262 880 268 889T281 906Q299 925 320 946T363 987T398 1016Q407 1023 415
1025T431 1028Q443 1028 453 1021T468 1004T474 982Q474 959 453 945Q432 931 395 904T328 847Q317 836 304 836Z" />
<glyph unicode="&#xde;" horiz-adv-x="608" d="M120 733Q123 749 136 757T164 765Q183 765 196 754T209 720Q209 704 205 689T199 655Q192 595 190 541T188 426Q188 389 189 338T190 229T186 116T175 15Q173 3 166 -3T150 -13T132 -16Q120 -16 109 -11T90 5T85
31Q93 105 95 181T97 323T97 432Q97 509 101 584T120 733ZM172 522Q156 519 142 529T128 557Q128 580 139 589T172 604Q196 609 222 614T280 619Q338 619 388 607T476 567T535 497T557 391Q557 325 535 280T475 207T389 168T288 156Q258 156 236 156T200 156T181
156Q165 155 153 167T141 196Q141 217 152 228T184 240Q200 240 223 240T270 240T307 240Q376 240 420 278T465 390Q465 461 421 498T297 535Q269 535 240 533T172 522Z" />
<glyph unicode="&#xdf;" horiz-adv-x="680" d="M185 -188Q189 -205 183 -218T165 -239T138 -247Q122 -247 111 -238T94 -211Q79 -134 71 -57T63 99Q63 158 69 227T87 370T118 511T163 636Q188 689 222 731T303 798T412 823Q456 823 490 808T550 767T588 707T601
635Q601 596 588 562T552 499T497 446T431 400L427 430Q491 423 533 390T596 310T617 211Q617 152 588 99T500 14T354 -14Q333 -13 322 1T310 35Q310 54 322 65T354 75Q409 71 447 91T505 144T525 215Q525 252 506 286T447 340T351 353Q327 350 311 361T294 394Q294
407 300 417T321 434Q421 478 465 535T509 639Q509 666 497 688T463 724T415 737Q390 737 359 722T298 677T247 601Q222 547 205 488T176 367T160 241T154 112Q154 35 162 -40T185 -188Z" />
<glyph unicode="&#xe0;" horiz-adv-x="622" d="M51 234Q51 293 69 348T120 448T197 517T295 543Q325 543 355 534T415 501Q420 523 429 532T455 542Q475 542 489 530T502 494Q501 463 495 418T483 327Q481 313 477 288T471 237T468 197Q468 178 471 150T482 99T505
77Q516 77 525 85T542 109Q547 120 556 124T576 129Q587 129 597 124T612 109T617 85Q617 66 602 44T561 7T502 -9Q474 -9 452 3T416 37T397 92Q367 48 331 24T245 -1Q181 -1 138 29T73 113T51 234ZM144 238Q144 189 155 155T190 102T248 83Q276 83 296 95T331
130T357 181Q367 206 374 236T387 298T395 362T400 419Q376 439 349 449T299 460Q263 460 235 442T186 392T155 321T144 238ZM382 640Q366 628 351 631T324 647Q306 666 286 689T250 735T223 779Q213 798 216 813T233 839Q247 850 267 851T297 828Q308 803 331
765T382 695Q393 683 393 667T382 640Z" />
<glyph unicode="&#xe1;" horiz-adv-x="622" d="M51 234Q51 293 69 348T120 448T197 517T295 543Q325 543 355 534T415 501Q420 523 429 532T455 542Q475 542 489 530T502 494Q501 463 495 418T483 327Q481 313 477 288T471 237T468 197Q468 178 471 150T482 99T505
77Q516 77 525 85T542 109Q547 120 556 124T576 129Q587 129 597 124T612 109T617 85Q617 66 602 44T561 7T502 -9Q474 -9 452 3T416 37T397 92Q367 48 331 24T245 -1Q181 -1 138 29T73 113T51 234ZM144 238Q144 189 155 155T190 102T248 83Q276 83 296 95T331
130T357 181Q367 206 374 236T387 298T395 362T400 419Q376 439 349 449T299 460Q263 460 235 442T186 392T155 321T144 238ZM332 648Q324 633 307 631T273 639Q260 647 262 663T271 693Q284 716 299 742T330 792T357 829Q374 848 390 849T421 840Q436 830 440
811T428 773Q411 754 382 719T332 648Z" />
<glyph unicode="&#xe2;" horiz-adv-x="622" d="M51 234Q51 293 69 348T120 448T197 517T295 543Q325 543 355 534T415 501Q420 523 429 532T455 542Q475 542 489 530T502 494Q501 463 495 418T483 327Q481 313 477 288T471 237T468 197Q468 178 471 150T482 99T505
77Q516 77 525 85T542 109Q547 120 556 124T576 129Q587 129 597 124T612 109T617 85Q617 66 602 44T561 7T502 -9Q474 -9 452 3T416 37T397 92Q367 48 331 24T245 -1Q181 -1 138 29T73 113T51 234ZM144 238Q144 189 155 155T190 102T248 83Q276 83 296 95T331
130T357 181Q367 206 374 236T387 298T395 362T400 419Q376 439 349 449T299 460Q263 460 235 442T186 392T155 321T144 238ZM234 632Q224 618 208 616T176 627Q166 637 168 651T179 679Q194 702 215 727T256 776T288 811Q299 821 309 826T329 831Q340 831 349
826T366 809Q382 785 411 748T468 681Q479 669 480 654T471 627Q458 612 443 615T415 630Q395 649 371 677T325 729Q312 718 295 701T262 666T234 632Z" />
<glyph unicode="&#xe3;" horiz-adv-x="622" d="M51 234Q51 293 69 348T120 448T197 517T295 543Q325 543 355 534T415 501Q420 523 429 532T455 542Q475 542 489 530T502 494Q501 463 495 418T483 327Q481 313 477 288T471 237T468 197Q468 178 471 150T482 99T505
77Q516 77 525 85T542 109Q547 120 556 124T576 129Q587 129 597 124T612 109T617 85Q617 66 602 44T561 7T502 -9Q474 -9 452 3T416 37T397 92Q367 48 331 24T245 -1Q181 -1 138 29T73 113T51 234ZM144 238Q144 189 155 155T190 102T248 83Q276 83 296 95T331
130T357 181Q367 206 374 236T387 298T395 362T400 419Q376 439 349 449T299 460Q263 460 235 442T186 392T155 321T144 238ZM413 657Q380 657 358 664T319 680T289 697T259 704Q231 704 234 668Q235 656 224 649T199 641T173 646T160 669Q158 725 181 757T247
789Q274 789 293 782T328 765T359 748T394 740Q409 740 417 751T433 788Q436 800 446 802T469 801T491 789T498 768Q491 713 468 685T413 657Z" />
<glyph unicode="&#xe4;" horiz-adv-x="622" d="M51 234Q51 293 69 348T120 448T197 517T295 543Q325 543 355 534T415 501Q420 523 429 532T455 542Q475 542 489 530T502 494Q501 463 495 418T483 327Q481 313 477 288T471 237T468 197Q468 178 471 150T482 99T505
77Q516 77 525 85T542 109Q547 120 556 124T576 129Q587 129 597 124T612 109T617 85Q617 66 602 44T561 7T502 -9Q474 -9 452 3T416 37T397 92Q367 48 331 24T245 -1Q181 -1 138 29T73 113T51 234ZM144 238Q144 189 155 155T190 102T248 83Q276 83 296 95T331
130T357 181Q367 206 374 236T387 298T395 362T400 419Q376 439 349 449T299 460Q263 460 235 442T186 392T155 321T144 238ZM225 655Q199 655 179 673T159 718Q159 737 168 753T193 778T225 788Q245 788 266 771T287 721Q287 703 279 688T256 664T225 655ZM419
650Q395 650 377 668T358 712Q358 728 365 745T385 773T416 785Q446 785 460 773T479 745T484 721Q484 704 475 688T451 661T419 650Z" />
<glyph unicode="&#xe5;" horiz-adv-x="622" d="M51 234Q51 293 69 348T120 448T197 517T295 543Q325 543 355 534T415 501Q420 523 429 532T455 542Q475 542 489 530T502 494Q501 463 495 418T483 327Q481 313 477 288T471 237T468 197Q468 178 471 150T482 99T505
77Q516 77 525 85T542 109Q547 120 556 124T576 129Q587 129 597 124T612 109T617 85Q617 66 602 44T561 7T502 -9Q474 -9 452 3T416 37T397 92Q367 48 331 24T245 -1Q181 -1 138 29T73 113T51 234ZM144 238Q144 189 155 155T190 102T248 83Q276 83 296 95T331
130T357 181Q367 206 374 236T387 298T395 362T400 419Q376 439 349 449T299 460Q263 460 235 442T186 392T155 321T144 238ZM308 620Q257 620 225 654T194 739Q194 768 212 795T260 840T323 858Q357 858 384 841T427 797T444 739Q444 690 406 655T308 620ZM315
689Q338 689 353 702T368 739Q368 759 355 774T321 789Q300 789 285 774T269 739Q269 716 281 703T315 689Z" />
<glyph unicode="&#xe6;" horiz-adv-x="819" d="M130 380Q123 368 113 364T93 359Q82 359 73 365T57 381T51 404Q51 415 56 426T71 448Q109 495 154 518T249 541Q317 541 364 500T434 391L412 172Q390 119 353 79T273 16T191 -6Q153 -6 126 9T84 52T69 113Q69 140
82 173T128 235T218 282T363 293Q364 303 364 308T364 319Q364 351 349 382T308 435T250 457Q223 457 200 446T159 418T130 380ZM157 115Q157 95 168 86T196 77Q221 77 249 94T306 142T356 217Q280 222 237 205T175 163T157 115ZM499 284Q552 284 593 301T657 348T680
409Q680 426 671 437T648 453T617 459Q601 459 575 451T521 420T475 354T456 242Q456 193 474 157T524 102T597 82Q629 82 661 96T711 132Q722 145 732 150T753 156Q764 156 772 151T786 137T791 115Q791 99 782 85T757 59Q720 28 678 13T594 -2Q546 -2 504 18T431
74T384 160L391 364Q409 418 444 457T524 519T618 541Q655 541 690 528T747 487T770 412Q770 361 746 322T682 257T592 216T492 202Q474 202 457 203T429 207L442 288Q451 287 466 286T499 284Z" />
<glyph unicode="&#xe7;" horiz-adv-x="522" d="M266 -4Q212 -4 172 20T105 85T65 174T51 268Q51 322 69 372T121 461T200 523T298 546Q336 546 372 536T437 502T480 441Q482 437 483 434T484 426Q484 413 477 404T460 389T438 384Q425 384 416 390T398 413Q382
442 354 452T302 462Q277 462 250 450T198 414T159 353T144 267Q144 226 157 183T198 111T268 81Q310 81 347 108T411 167Q418 174 424 177T438 181Q450 181 460 175T476 158T483 136Q483 129 481 122T471 107Q431 62 378 29T266 -4ZM261 -240Q243 -240 220 -236T177
-219Q167 -213 164 -204T164 -181Q168 -167 177 -162T198 -161Q207 -165 222 -168T251 -172Q274 -172 283 -162T293 -139Q293 -121 278 -114T240 -113Q227 -117 220 -114T207 -103Q203 -95 204 -86T211 -63L243 10H301L269 -67L247 -56Q282 -47 310 -54T356 -83T374
-139Q374 -182 343 -211T261 -240Z" />
<glyph unicode="&#xe8;" horiz-adv-x="531" d="M282 0Q227 0 184 22T111 81T66 165T50 260Q50 311 70 361T127 453T212 520T315 545Q358 545 390 528T441 480T460 410Q460 368 439 331T380 270Q329 235 269 222T146 206Q154 177 172 149T218 103T286 84Q323 84
357 105T417 155Q423 163 430 166T445 169Q457 169 467 163T483 147T489 125Q490 117 487 110T477 95Q440 55 391 28T282 0ZM142 288Q182 290 216 294T287 314Q320 327 345 351T370 411Q370 425 364 436T345 455T312 463Q280 463 251 447T199 406T162 349T142 288ZM357
640Q341 628 326 631T299 647Q281 666 261 689T225 735T198 779Q188 798 191 813T208 839Q222 850 242 851T272 828Q283 803 306 765T357 695Q368 683 368 667T357 640Z" />
<glyph unicode="&#xe9;" horiz-adv-x="531" d="M282 0Q227 0 184 22T111 81T66 165T50 260Q50 311 70 361T127 453T212 520T315 545Q358 545 390 528T441 480T460 410Q460 368 439 331T380 270Q329 235 269 222T146 206Q154 177 172 149T218 103T286 84Q323 84
357 105T417 155Q423 163 430 166T445 169Q457 169 467 163T483 147T489 125Q490 117 487 110T477 95Q440 55 391 28T282 0ZM142 288Q182 290 216 294T287 314Q320 327 345 351T370 411Q370 425 364 436T345 455T312 463Q280 463 251 447T199 406T162 349T142 288ZM307
648Q299 633 282 631T248 639Q235 647 237 663T246 693Q259 716 274 742T305 792T332 829Q349 848 365 849T396 840Q411 830 415 811T403 773Q386 754 357 719T307 648Z" />
<glyph unicode="&#xea;" horiz-adv-x="531" d="M282 0Q227 0 184 22T111 81T66 165T50 260Q50 311 70 361T127 453T212 520T315 545Q358 545 390 528T441 480T460 410Q460 368 439 331T380 270Q329 235 269 222T146 206Q154 177 172 149T218 103T286 84Q323 84
357 105T417 155Q423 163 430 166T445 169Q457 169 467 163T483 147T489 125Q490 117 487 110T477 95Q440 55 391 28T282 0ZM142 288Q182 290 216 294T287 314Q320 327 345 351T370 411Q370 425 364 436T345 455T312 463Q280 463 251 447T199 406T162 349T142 288ZM209
632Q199 618 183 616T151 627Q141 637 143 651T154 679Q169 702 190 727T231 776T263 811Q274 821 284 826T304 831Q315 831 324 826T341 809Q357 785 386 748T443 681Q454 669 455 654T446 627Q433 612 418 615T390 630Q370 649 346 677T300 729Q287 718 270 701T237
666T209 632Z" />
<glyph unicode="&#xeb;" horiz-adv-x="531" d="M282 0Q227 0 184 22T111 81T66 165T50 260Q50 311 70 361T127 453T212 520T315 545Q358 545 390 528T441 480T460 410Q460 368 439 331T380 270Q329 235 269 222T146 206Q154 177 172 149T218 103T286 84Q323 84
357 105T417 155Q423 163 430 166T445 169Q457 169 467 163T483 147T489 125Q490 117 487 110T477 95Q440 55 391 28T282 0ZM142 288Q182 290 216 294T287 314Q320 327 345 351T370 411Q370 425 364 436T345 455T312 463Q280 463 251 447T199 406T162 349T142 288ZM200
655Q174 655 154 673T134 718Q134 737 143 753T168 778T200 788Q220 788 241 771T262 721Q262 703 254 688T231 664T200 655ZM394 650Q370 650 352 668T333 712Q333 728 340 745T360 773T391 785Q421 785 435 773T454 745T459 721Q459 704 450 688T426 661T394
650Z" />
<glyph unicode="&#xec;" horiz-adv-x="279" d="M104 501Q104 515 110 524T127 537T149 542Q168 542 181 532T195 501Q195 429 193 373T188 266T183 159T179 28Q179 9 166 -3T133 -15Q114 -15 104 -8T90 10T86 37Q86 46 88 82T92 170T97 283T102 400T104 501ZM212
640Q196 628 181 631T154 647Q136 666 116 689T80 735T53 779Q43 798 46 813T63 839Q77 850 97 851T127 828Q138 803 161 765T212 695Q223 683 223 667T212 640Z" />
<glyph unicode="&#xed;" horiz-adv-x="279" d="M104 501Q104 515 110 524T127 537T149 542Q168 542 181 532T195 501Q195 429 193 373T188 266T183 159T179 28Q179 9 166 -3T133 -15Q114 -15 104 -8T90 10T86 37Q86 46 88 82T92 170T97 283T102 400T104 501ZM162
648Q154 633 137 631T103 639Q90 647 92 663T101 693Q114 716 129 742T160 792T187 829Q204 848 220 849T251 840Q266 830 270 811T258 773Q241 754 212 719T162 648Z" />
<glyph unicode="&#xee;" horiz-adv-x="279" d="M104 501Q104 515 110 524T127 537T149 542Q168 542 181 532T195 501Q195 429 193 373T188 266T183 159T179 28Q179 9 166 -3T133 -15Q114 -15 104 -8T90 10T86 37Q86 46 88 82T92 170T97 283T102 400T104 501ZM64
632Q54 618 38 616T6 627Q-4 637 -2 651T9 679Q24 702 45 727T86 776T118 811Q129 821 139 826T159 831Q170 831 179 826T196 809Q212 785 241 748T298 681Q309 669 310 654T301 627Q288 612 273 615T245 630Q225 649 201 677T155 729Q142 718 125 701T92 666T64
632Z" />
<glyph unicode="&#xef;" horiz-adv-x="279" d="M104 501Q104 515 110 524T127 537T149 542Q168 542 181 532T195 501Q195 429 193 373T188 266T183 159T179 28Q179 9 166 -3T133 -15Q114 -15 104 -8T90 10T86 37Q86 46 88 82T92 170T97 283T102 400T104 501ZM55
655Q29 655 9 673T-11 718Q-11 737 -2 753T23 778T55 788Q75 788 96 771T117 721Q117 703 109 688T86 664T55 655ZM249 650Q225 650 207 668T188 712Q188 728 195 745T215 773T246 785Q276 785 290 773T309 745T314 721Q314 704 305 688T281 661T249 650Z" />
<glyph unicode="&#xf0;" horiz-adv-x="622" d="M490 278Q453 307 403 331T302 356Q248 356 213 333T159 274T141 200Q141 154 159 124T209 80T275 66Q310 66 344 80T407 121T453 190T471 285Q471 357 449 418T388 534T299 638T192 737Q185 743 183 750T180 764Q180
777 186 787T203 804T226 811Q233 811 241 809T256 801Q314 750 369 693T467 571T537 437T563 291Q563 227 540 171T477 73T386 6T277 -18Q215 -18 163 7T80 81T49 200Q49 274 86 327T183 410T316 440Q362 440 407 425T493 371L490 278ZM434 769Q448 778 460 778Q472
778 481 773T496 758T502 736Q502 721 488 710L248 522Q235 512 221 512Q209 512 199 518T184 534T178 555Q178 571 191 581Q232 612 272 643T354 706T434 769Z" />
<glyph unicode="&#xf1;" horiz-adv-x="601" d="M102 523Q105 540 118 547T146 555Q164 555 177 543T191 515Q191 510 189 494T185 459T182 424Q202 460 227 488T285 532T355 548Q444 548 487 485T531 317Q531 266 524 218T510 123T503 30Q503 11 490 0T457 -11Q438
-11 425 0T411 31Q411 80 418 125T433 216T440 312Q440 372 428 404T394 448T345 461Q311 461 284 438T237 379T203 304T181 235Q181 180 180 128T176 29Q175 12 162 0T128 -12Q108 -12 97 -1T82 30T78 71Q78 106 81 145T92 221Q91 278 91 323T91 403T94 468T102
523ZM405 657Q372 657 350 664T311 680T281 697T251 704Q223 704 226 668Q227 656 216 649T191 641T165 646T152 669Q150 725 173 757T239 789Q266 789 285 782T320 765T351 748T386 740Q401 740 409 751T425 788Q428 800 438 802T461 801T483 789T490 768Q483
713 460 685T405 657Z" />
<glyph unicode="&#xf2;" horiz-adv-x="555" d="M291 546Q314 546 337 542T380 529T414 507Q460 470 481 411T503 287Q503 232 489 181T448 88T382 22T293 -3Q242 -3 199 19T122 79T71 166T53 271Q53 323 68 372T114 460T189 523T291 546ZM145 278Q145 228 162
184T211 112T290 84Q322 84 345 101T383 148T405 213T412 282Q412 343 393 385T340 451Q327 455 315 456T289 458Q255 458 228 444T183 404T155 346T145 278ZM352 640Q336 628 321 631T294 647Q276 666 256 689T220 735T193 779Q183 798 186 813T203 839Q217 850
237 851T267 828Q278 803 301 765T352 695Q363 683 363 667T352 640Z" />
<glyph unicode="&#xf3;" horiz-adv-x="555" d="M291 546Q314 546 337 542T380 529T414 507Q460 470 481 411T503 287Q503 232 489 181T448 88T382 22T293 -3Q242 -3 199 19T122 79T71 166T53 271Q53 323 68 372T114 460T189 523T291 546ZM145 278Q145 228 162
184T211 112T290 84Q322 84 345 101T383 148T405 213T412 282Q412 343 393 385T340 451Q327 455 315 456T289 458Q255 458 228 444T183 404T155 346T145 278ZM302 648Q294 633 277 631T243 639Q230 647 232 663T241 693Q254 716 269 742T300 792T327 829Q344 848
360 849T391 840Q406 830 410 811T398 773Q381 754 352 719T302 648Z" />
<glyph unicode="&#xf4;" horiz-adv-x="555" d="M291 546Q314 546 337 542T380 529T414 507Q460 470 481 411T503 287Q503 232 489 181T448 88T382 22T293 -3Q242 -3 199 19T122 79T71 166T53 271Q53 323 68 372T114 460T189 523T291 546ZM145 278Q145 228 162
184T211 112T290 84Q322 84 345 101T383 148T405 213T412 282Q412 343 393 385T340 451Q327 455 315 456T289 458Q255 458 228 444T183 404T155 346T145 278ZM204 632Q194 618 178 616T146 627Q136 637 138 651T149 679Q164 702 185 727T226 776T258 811Q269 821
279 826T299 831Q310 831 319 826T336 809Q352 785 381 748T438 681Q449 669 450 654T441 627Q428 612 413 615T385 630Q365 649 341 677T295 729Q282 718 265 701T232 666T204 632Z" />
<glyph unicode="&#xf5;" horiz-adv-x="555" d="M291 546Q314 546 337 542T380 529T414 507Q460 470 481 411T503 287Q503 232 489 181T448 88T382 22T293 -3Q242 -3 199 19T122 79T71 166T53 271Q53 323 68 372T114 460T189 523T291 546ZM145 278Q145 228 162
184T211 112T290 84Q322 84 345 101T383 148T405 213T412 282Q412 343 393 385T340 451Q327 455 315 456T289 458Q255 458 228 444T183 404T155 346T145 278ZM383 657Q350 657 328 664T289 680T259 697T229 704Q201 704 204 668Q205 656 194 649T169 641T143 646T130
669Q128 725 151 757T217 789Q244 789 263 782T298 765T329 748T364 740Q379 740 387 751T403 788Q406 800 416 802T439 801T461 789T468 768Q461 713 438 685T383 657Z" />
<glyph unicode="&#xf6;" horiz-adv-x="555" d="M291 546Q314 546 337 542T380 529T414 507Q460 470 481 411T503 287Q503 232 489 181T448 88T382 22T293 -3Q242 -3 199 19T122 79T71 166T53 271Q53 323 68 372T114 460T189 523T291 546ZM145 278Q145 228 162
184T211 112T290 84Q322 84 345 101T383 148T405 213T412 282Q412 343 393 385T340 451Q327 455 315 456T289 458Q255 458 228 444T183 404T155 346T145 278ZM195 655Q169 655 149 673T129 718Q129 737 138 753T163 778T195 788Q215 788 236 771T257 721Q257 703
249 688T226 664T195 655ZM389 650Q365 650 347 668T328 712Q328 728 335 745T355 773T386 785Q416 785 430 773T449 745T454 721Q454 704 445 688T421 661T389 650Z" />
<glyph unicode="&#xf7;" horiz-adv-x="650" d="M519 279Q478 281 426 281T320 282T216 283T132 282Q112 281 102 293T91 322Q91 339 101 352T132 366Q164 367 211 367T313 367T421 365T519 361Q540 360 550 349T560 320Q560 303 550 291T519 279ZM318 84Q296 85
280 99T263 140Q263 152 269 167T290 192T327 203Q354 203 364 184T375 146Q375 121 359 103T318 84ZM331 440Q319 440 304 446T278 467T267 504Q267 530 286 540T324 551Q350 551 368 535T387 495Q387 473 372 457T331 440Z" />
<glyph unicode="&#xf8;" horiz-adv-x="555" d="M291 546Q314 546 337 542T380 529T414 507Q460 470 481 411T503 287Q503 232 489 181T448 88T382 22T293 -3Q242 -3 199 19T122 79T71 166T53 271Q53 323 68 372T114 460T189 523T291 546ZM145 278Q145 228 162
184T211 112T290 84Q322 84 345 101T383 148T405 213T412 282Q412 343 393 385T340 451Q327 455 315 456T289 458Q255 458 228 444T183 404T155 346T145 278ZM105 -34Q100 -41 88 -46T58 -41Q45 -33 44 -18T51 10Q115 103 181 195T316 380T454 565Q468 583 480
584T504 577Q516 568 519 557T510 528Q441 435 372 341T237 154T105 -34Z" />
<glyph unicode="&#xf9;" horiz-adv-x="582" d="M244 -12Q195 -12 161 13T106 79T76 170T66 269Q66 331 75 393T94 512Q96 526 109 535T140 544Q160 544 172 530T184 496Q183 478 177 450T164 380T158 274Q159 228 167 182T195 105T247 74Q280 74 306 97T354 156T389
231T412 300Q415 357 416 408T418 504Q419 524 432 534T465 545Q478 545 488 540T504 526T510 502Q511 492 511 471T510 422T507 366T499 309Q496 235 495 165T486 27Q485 11 472 0T439 -11Q413 -11 405 2T396 30Q396 39 397 49T400 71T402 98Q387 75 370 55T334
20T293 -3T244 -12ZM355 650Q339 638 324 641T297 657Q279 676 259 699T223 745T196 789Q186 808 189 823T206 849Q220 860 240 861T270 838Q281 813 304 775T355 705Q366 693 366 677T355 650Z" />
<glyph unicode="&#xfa;" horiz-adv-x="582" d="M244 -12Q195 -12 161 13T106 79T76 170T66 269Q66 331 75 393T94 512Q96 526 109 535T140 544Q160 544 172 530T184 496Q183 478 177 450T164 380T158 274Q159 228 167 182T195 105T247 74Q280 74 306 97T354 156T389
231T412 300Q415 357 416 408T418 504Q419 524 432 534T465 545Q478 545 488 540T504 526T510 502Q511 492 511 471T510 422T507 366T499 309Q496 235 495 165T486 27Q485 11 472 0T439 -11Q413 -11 405 2T396 30Q396 39 397 49T400 71T402 98Q387 75 370 55T334
20T293 -3T244 -12ZM305 658Q297 643 280 641T246 649Q233 657 235 673T244 703Q257 726 272 752T303 802T330 839Q347 858 363 859T394 850Q409 840 413 821T401 783Q384 764 355 729T305 658Z" />
<glyph unicode="&#xfb;" horiz-adv-x="582" d="M244 -12Q195 -12 161 13T106 79T76 170T66 269Q66 331 75 393T94 512Q96 526 109 535T140 544Q160 544 172 530T184 496Q183 478 177 450T164 380T158 274Q159 228 167 182T195 105T247 74Q280 74 306 97T354 156T389
231T412 300Q415 357 416 408T418 504Q419 524 432 534T465 545Q478 545 488 540T504 526T510 502Q511 492 511 471T510 422T507 366T499 309Q496 235 495 165T486 27Q485 11 472 0T439 -11Q413 -11 405 2T396 30Q396 39 397 49T400 71T402 98Q387 75 370 55T334
20T293 -3T244 -12ZM207 642Q197 628 181 626T149 637Q139 647 141 661T152 689Q167 712 188 737T229 786T261 821Q272 831 282 836T302 841Q313 841 322 836T339 819Q355 795 384 758T441 691Q452 679 453 664T444 637Q431 622 416 625T388 640Q368 659 344 687T298
739Q285 728 268 711T235 676T207 642Z" />
<glyph unicode="&#xfc;" horiz-adv-x="582" d="M244 -12Q195 -12 161 13T106 79T76 170T66 269Q66 331 75 393T94 512Q96 526 109 535T140 544Q160 544 172 530T184 496Q183 478 177 450T164 380T158 274Q159 228 167 182T195 105T247 74Q280 74 306 97T354 156T389
231T412 300Q415 357 416 408T418 504Q419 524 432 534T465 545Q478 545 488 540T504 526T510 502Q511 492 511 471T510 422T507 366T499 309Q496 235 495 165T486 27Q485 11 472 0T439 -11Q413 -11 405 2T396 30Q396 39 397 49T400 71T402 98Q387 75 370 55T334
20T293 -3T244 -12ZM198 665Q172 665 152 683T132 728Q132 747 141 763T166 788T198 798Q218 798 239 781T260 731Q260 713 252 698T229 674T198 665ZM392 660Q368 660 350 678T331 722Q331 738 338 755T358 783T389 795Q419 795 433 783T452 755T457 731Q457 714
448 698T424 671T392 660Z" />
<glyph unicode="&#xfd;" horiz-adv-x="573" d="M94 508Q97 525 109 532T138 539Q147 539 155 536T169 527T179 513T183 493Q183 478 177 451T165 383T159 280Q159 228 168 181T197 103T247 73Q276 73 302 95T349 152T384 218V263Q384 310 386 354T393 437T409
501Q417 523 430 535T461 547Q478 547 487 538T500 511T504 471Q504 410 498 345T474 217Q475 196 475 174T475 130T476 86Q476 15 467 -52T436 -173T372 -258T265 -290Q206 -290 154 -264T74 -188Q71 -181 70 -176T68 -165Q68 -152 74 -143T91 -129T112 -123Q126
-123 136 -130T156 -151Q174 -179 206 -192T266 -205Q310 -205 334 -174T369 -80T386 80Q362 43 326 15T246 -14Q196 -14 162 11T106 79T76 173T67 275Q67 314 70 354T80 434T94 508ZM300 632Q292 617 275 615T241 623Q228 631 230 647T239 677Q252 700 267 726T298
776T325 813Q342 832 358 833T389 824Q404 814 408 795T396 757Q379 738 350 703T300 632Z" />
<glyph unicode="&#xfe;" horiz-adv-x="593" d="M115 -284Q94 -284 81 -274T68 -241Q72 -168 76 -74T86 128T95 350T105 576T114 792Q115 814 132 824T167 835Q184 835 195 823T206 794Q206 788 205 756T201 677T197 583T192 497T189 442Q227 493 273 518T365 544Q404
544 436 524T491 469T528 388T541 293Q541 230 525 175T478 77T407 10T315 -14Q278 -14 242 0T174 39Q171 -34 168 -101T160 -242Q159 -261 148 -272T115 -284ZM305 73Q332 72 355 87T397 130T425 192T437 266Q439 301 435 332T420 388T393 429T355 449Q330 452
300 436T242 386T196 304Q191 273 186 229T178 147Q207 115 242 96T305 73Z" />
<glyph unicode="&#xff;" horiz-adv-x="573" d="M94 508Q97 525 109 532T138 539Q147 539 155 536T169 527T179 513T183 493Q183 478 177 451T165 383T159 280Q159 228 168 181T197 103T247 73Q276 73 302 95T349 152T384 218V263Q384 310 386 354T393 437T409
501Q417 523 430 535T461 547Q478 547 487 538T500 511T504 471Q504 410 498 345T474 217Q475 196 475 174T475 130T476 86Q476 15 467 -52T436 -173T372 -258T265 -290Q206 -290 154 -264T74 -188Q71 -181 70 -176T68 -165Q68 -152 74 -143T91 -129T112 -123Q126
-123 136 -130T156 -151Q174 -179 206 -192T266 -205Q310 -205 334 -174T369 -80T386 80Q362 43 326 15T246 -14Q196 -14 162 11T106 79T76 173T67 275Q67 314 70 354T80 434T94 508ZM193 639Q167 639 147 657T127 702Q127 721 136 737T161 762T193 772Q213 772
234 755T255 705Q255 687 247 672T224 648T193 639ZM387 634Q363 634 345 652T326 696Q326 712 333 729T353 757T384 769Q414 769 428 757T447 729T452 705Q452 688 443 672T419 645T387 634Z" />
<glyph unicode="&#x2013;" horiz-adv-x="529" d="M96 267Q75 265 65 277T54 306Q54 324 64 338T96 354Q158 360 223 362T351 365Q376 365 399 365T441 364Q461 363 471 350T481 321Q481 304 471 290T441 276Q427 276 410 276T374 277Q307 277 236 275T96 267Z" />
<glyph unicode="&#x2014;" horiz-adv-x="1025" d="M95 262Q74 261 64 274T53 304Q53 322 63 335T95 350Q167 354 239 356T385 361T530 364T675 365Q713 365 755 365T843 365T936 364Q956 364 966 351T977 320Q977 303 967 289T936 276Q890 277 845 277T758 277T679
277Q607 277 534 276T387 273T240 269T95 262Z" />
<glyph unicode="&#x2018;" horiz-adv-x="219" d="M168 647Q176 633 174 621T161 599T138 585T112 583T90 598Q62 637 59 678T73 764T122 856Q136 876 151 878T179 871T194 846T188 815Q152 761 149 723T168 647Z" />
<glyph unicode="&#x2019;" horiz-adv-x="219" d="M68 812Q58 830 63 845T84 869T115 877T144 862Q175 825 179 783T166 696T113 603Q99 584 83 582T54 589T37 614T44 645Q83 699 86 737T68 812Z" />
<glyph unicode="&#x201a;" horiz-adv-x="227" d="M42 60Q32 78 37 93T58 117T89 125T118 110Q149 73 153 31T140 -56T87 -149Q73 -168 57 -170T28 -163T11 -138T18 -107Q57 -53 60 -15T42 60Z" />
<glyph unicode="&#x201c;" horiz-adv-x="414" d="M271 591Q250 631 250 670T269 752T320 838Q334 857 349 858T375 850T390 825T383 793Q361 759 351 731T341 679T351 628Q357 609 349 595T326 575T296 571T271 591ZM90 599Q62 638 59 679T73 765T122 857Q136
877 151 879T179 872T194 847T188 816Q152 762 149 724T168 648Q176 634 174 622T161 600T138 586T112 584T90 599Z" />
<glyph unicode="&#x201d;" horiz-adv-x="398" d="M288 590Q274 571 258 569T229 576T212 601T219 632Q259 686 263 727T254 803Q247 822 254 838T276 862T307 870T334 853Q357 818 358 775T341 684T288 590ZM111 612Q98 593 82 591T54 598T37 622T42 653Q77 707
79 741T61 812Q51 830 57 845T77 869T109 877T137 862Q167 825 171 785T160 702T111 612Z" />
<glyph unicode="&#x201e;" horiz-adv-x="406" d="M262 -157Q248 -176 232 -178T203 -171T186 -146T193 -115Q233 -61 237 -20T228 56Q221 75 228 91T250 115T281 123T308 106Q331 71 332 28T315 -63T262 -157ZM85 -135Q72 -154 56 -156T28 -149T11 -125T16 -94Q51
-40 53 -6T35 65Q25 83 31 98T51 122T83 130T111 115Q141 78 145 38T134 -45T85 -135Z" />
<glyph unicode="&#x2022;" horiz-adv-x="482" d="M229 162Q193 162 166 181T123 232T108 299Q108 325 120 349T153 394T198 425T247 437Q259 437 280 430T324 407T361 365T376 299Q376 254 353 224T296 178T229 162Z" />
<glyph unicode="&#x2039;" horiz-adv-x="386" d="M263 12Q247 12 236 22T211 53Q184 97 142 147T61 237Q48 250 44 261T39 282Q39 295 48 308T75 341Q99 367 141 415T239 535Q246 546 256 552T278 559Q290 559 299 554T315 540T321 521Q321 513 317 504T308 487Q271
432 225 383T136 283Q173 243 215 192T289 96Q296 86 302 76T308 56Q308 46 302 36T286 19T263 12Z" />
<glyph unicode="&#x203a;" horiz-adv-x="363" d="M108 18Q94 18 84 25T69 42T64 62Q64 68 65 73T70 84Q96 122 124 158T180 230T235 305Q219 331 202 355T166 402T130 450T93 499Q90 504 89 509T87 520Q87 531 93 541T108 558T129 565Q141 565 150 558T170 539Q180
527 201 499T246 438T290 375T318 331Q326 319 326 306Q326 293 320 281T304 256Q290 238 270 211T228 153T184 93T145 39Q138 29 129 24T108 18Z" />
</font>
</defs>
</svg>
