<?xml version="1.0" standalone="no"?>
<!DOCTYPE svg PUBLIC "-//W3C//DTD SVG 1.1//EN" "http://www.w3.org/Graphics/SVG/1.1/DTD/svg11.dtd">
<svg xmlns="http://www.w3.org/2000/svg">
<defs >
<font id="Fredoka" horiz-adv-x="535" ><font-face
    font-family="Fredoka Light"
    units-per-em="1000"
    panose-1="0 0 0 0 0 0 0 0 0 0"
    ascent="974"
    descent="-236"
    alphabetic="0" />
<glyph unicode=" " horiz-adv-x="254" />
<glyph unicode="!" horiz-adv-x="231" d="M116 187Q96 187 87 191T74 205T71 229V646Q71 659 74 668T86 683T115 689Q135 689 144 684T157 670T160 646V230Q160 217 157 207T145 192T116 187ZM116 -11Q85 -11 74 1T63 41Q63 58 67 70T82 88T115 95Q147 95 157
83T168 43Q168 26 164 15T149 -4T116 -11Z" />
<glyph unicode="&quot;" horiz-adv-x="335" d="M235 444Q226 444 219 454T206 484T197 526T191 576T189 626Q189 640 191 652T203 673T236 682Q259 682 268 674T280 653T282 626Q282 602 281 576T275 527T266 484T253 455T235 444ZM98 444Q89 444 82 454T69 484T60
526T55 576T53 626Q53 640 55 652T66 673T99 682Q122 682 131 674T143 653T145 626Q145 602 144 576T138 527T129 484T116 455T98 444Z" />
<glyph unicode="#" horiz-adv-x="796" d="M195 -14Q177 -14 171 -4T168 31L190 162H80Q66 162 61 169T58 195Q60 213 65 222T81 234T105 238H202L232 421H123Q109 421 104 428T100 452Q102 471 108 480T124 492T148 496H244L269 646Q273 668 279 679T297 694T330
699Q351 699 356 688T357 648L331 496H535L558 642Q562 664 567 676T583 693T616 699Q637 699 644 689T647 653L622 496H714Q731 496 735 487T736 460Q732 442 725 434T710 423T690 421H608L580 238H671Q688 238 692 229T694 206Q689 187 683 178T669 165T647 162H566L546
40Q544 22 538 10T520 -8T484 -14Q468 -14 461 -4T458 32L478 162H277L257 42Q254 23 248 11T230 -8T195 -14ZM288 238H492L521 421H321L288 238Z" />
<glyph unicode="$" horiz-adv-x="467" d="M412 203Q412 170 401 142T369 94T319 60T254 42V-33Q254 -46 251 -55T240 -69T216 -74Q200 -74 192 -69T182 -55T179 -32V43Q151 47 125 58T78 87T43 124Q32 142 31 155T49 184Q64 195 75 195T96 187T114 167Q130 143
156 130T214 117Q251 117 277 127T316 155T330 201Q330 232 310 250T258 280T189 306Q162 316 136 328T89 357T56 400T44 462Q44 492 53 517T80 561T123 592T179 609V679Q179 692 181 701T192 716T216 721Q232 721 240 716T251 702T254 680V610Q292 605 320 589T367
554Q383 539 384 528T371 499Q363 488 354 484T335 481T314 494Q303 505 287 514T253 528T215 534Q194 534 177 529T149 515T131 492T124 461Q124 435 141 419T187 392T247 371Q276 361 305 349T358 319T397 273T412 203Z" />
<glyph unicode="%" horiz-adv-x="823" d="M211 -44Q200 -38 196 -31T192 -14T202 11L560 687Q568 702 575 709T591 716T611 711Q621 705 625 698T628 681T618 656L259 -21Q252 -35 245 -42T229 -49T211 -44ZM208 317Q128 317 79 368T30 503Q30 587 79 638T208
689Q288 689 335 639T383 504Q383 418 336 368T208 317ZM208 390Q256 390 283 421T311 505Q311 557 284 586T208 616Q159 616 131 586T102 505Q102 452 130 421T208 390ZM622 -11Q542 -11 493 40T444 175Q444 259 492 310T622 361Q702 361 749 311T797 176Q797
90 750 40T622 -11ZM622 62Q670 62 697 93T725 178Q725 229 698 258T622 288Q573 288 545 258T516 177Q516 124 544 93T622 62Z" />
<glyph unicode="&amp;" horiz-adv-x="713" d="M248 -12Q180 -12 132 9T59 73T33 174Q33 206 48 238T91 304T160 370Q146 399 135 428T117 486T111 541Q111 592 134 629T199 686T299 706Q349 706 385 688T442 636T462 557Q462 535 448 511T408 460T348 405T274
345Q301 305 329 270T388 206T447 157Q486 189 501 216T522 272Q525 284 536 292T573 301Q590 301 598 296T610 282T613 265Q611 227 587 189T519 112Q535 107 547 103T576 98T617 96Q640 96 649 87T659 53Q659 24 650 14T616 4Q588 4 559 8T500 22T440 49Q413
30 381 16T316 -5T248 -12ZM248 73Q282 73 313 82T365 105Q348 121 327 141T285 186T243 237T203 292Q182 272 167 257T143 229T130 203T126 174Q126 143 141 120T183 85T248 73ZM233 416Q266 441 292 461T337 500T365 533T375 559Q375 592 354 612T298 633Q267
633 244 623T209 593T196 547Q196 530 200 512T212 470T233 416Z" />
<glyph unicode="&apos;" horiz-adv-x="181" d="M90 444Q81 444 74 454T61 484T52 526T47 576T45 626Q45 640 47 652T58 673T91 682Q114 682 123 674T134 653T136 626Q136 602 135 576T130 527T121 484T108 455T90 444Z" />
<glyph unicode="(" horiz-adv-x="377" d="M283 -164Q240 -164 204 -141T141 -75T94 25T64 153T54 299Q54 376 64 446T93 574T140 675T204 742T284 766Q297 766 306 763T319 751T324 726Q324 709 320 701T308 689T288 686H283Q244 686 212 641T161 510T142 301Q142
214 152 143T182 22T227 -56T284 -84Q297 -84 306 -87T319 -98T324 -125Q324 -141 320 -149T306 -161T283 -164Z" />
<glyph unicode=")" horiz-adv-x="377" d="M92 -164Q79 -164 70 -161T56 -150T51 -125Q51 -107 55 -99T69 -87T91 -84Q123 -84 149 -57T194 21T223 143T233 301Q233 424 215 509T164 640T92 686H87Q76 686 68 689T55 700T51 726Q51 742 55 750T69 762T91 766Q135
766 171 742T235 676T282 575T311 446T321 299Q321 223 311 153T282 26T235 -74T171 -140T92 -164Z" />
<glyph unicode="*" horiz-adv-x="494" d="M234 654Q255 654 263 646T272 617V522L378 555Q393 560 402 554T418 530Q424 510 420 500T396 483L294 452L362 356Q370 344 367 334T348 312Q333 300 321 301T298 319L233 406L168 317Q158 303 147 303T119 315Q103
326 101 336T110 362L174 452L67 483Q51 488 48 498T50 528Q57 548 65 554T90 554L197 521V618Q197 637 205 645T234 654Z" />
<glyph unicode="+" horiz-adv-x="537" d="M269 25Q251 25 242 30T229 44T225 67V445Q225 459 228 468T241 482T269 487Q288 487 297 482T309 467T312 444V68Q312 55 309 45T297 30T269 25ZM79 213Q66 213 57 215T43 227T37 255Q37 275 42 284T57 296T79 299H458Q471
299 480 296T494 284T499 255Q499 236 494 227T480 216T458 213H79Z" />
<glyph unicode="," horiz-adv-x="225" d="M71 -90Q71 -90 68 -89T62 -84T59 -68Q59 -52 63 -48T70 -44Q70 -43 81 -35T94 -4Q86 -3 80 0T69 8Q61 15 60 26T59 48Q59 61 61 73T74 92T112 100Q142 100 154 88Q161 81 162 70T164 47Q164 41 164 36T162 25Q160 -5
147 -31T114 -74T71 -90Z" />
<glyph unicode="-" horiz-adv-x="426" d="M49 213Q37 213 28 216T13 228T7 256Q7 275 12 284T27 296T48 299H310Q322 299 331 296T345 284T350 256Q350 237 345 228T331 216T308 213H49Z" />
<glyph unicode="." horiz-adv-x="211" d="M106 -11Q76 -11 64 1T52 41Q52 62 57 73T74 90T106 96Q136 96 147 84T159 42Q159 22 154 11T138 -6T106 -11Z" />
<glyph unicode="/" horiz-adv-x="517" d="M50 -49Q28 -37 26 -23T36 18L379 681Q389 699 397 707T417 716T442 709Q457 701 462 693T466 672T454 641L111 -21Q98 -48 85 -53T50 -49Z" />
<glyph unicode="0" horiz-adv-x="587" d="M297 -15Q244 -15 203 2T131 50T82 126T54 225T45 341Q45 401 54 454T82 552T130 628T201 678T295 696Q347 696 387 679T457 629T505 552T533 454T542 340Q542 279 533 225T505 127T457 51T389 2T297 -15ZM293 76Q340
76 370 96T417 149T441 216T450 284T452 335V341Q452 425 435 484T382 575T294 606Q241 606 206 575T153 485T135 340Q135 256 152 197T205 107T293 76Z" />
<glyph unicode="1" horiz-adv-x="392" d="M299 -11Q274 -11 265 -1T255 34V644Q255 669 265 678T300 688Q324 688 333 678T343 642V33Q343 9 334 -1T299 -11ZM119 437Q100 421 87 421T58 440Q42 458 43 472T64 504L257 672Q274 688 288 687T318 668Q334 651 333
637T311 604L119 437Z" />
<glyph unicode="2" horiz-adv-x="598" d="M90 -3Q73 -3 60 11T46 44Q46 58 46 72T53 100T76 126Q131 166 183 200T281 267T361 331T414 397T434 473Q434 514 418 543T368 589T286 606Q250 606 222 596T175 565T146 516T136 450Q136 435 134 425T122 410T90 405Q68
405 59 412T48 431T46 458Q46 510 62 553T109 629T184 678T285 696Q358 696 411 669T495 591T525 464Q525 430 515 399T486 340T440 285T380 232T307 180T225 126L162 88H510Q524 88 534 85T549 72T555 42Q555 23 549 13T533 0T508 -3H90Z" />
<glyph unicode="3" horiz-adv-x="587" d="M293 -14Q241 -14 197 1T120 44T67 107T45 180Q45 215 92 215Q109 215 117 211T129 198T137 171Q148 141 170 119T223 84T294 71Q341 71 376 88T432 134T452 201Q452 237 433 265T380 308T303 323Q286 323 274 326T257
338T251 368Q251 387 256 396T274 408T304 411Q344 411 371 423T413 456T427 501Q427 534 412 559T368 599T302 613Q270 613 246 605T202 580T165 539Q151 517 138 514T101 524Q85 535 81 546T83 573Q88 583 98 598T125 631T166 663T222 687T298 697Q349 697 390
682T460 639T503 578T518 505Q518 473 506 445T472 398T429 367Q456 358 477 340T512 298T534 250T542 203Q542 141 511 92T423 15T293 -14Z" />
<glyph unicode="4" horiz-adv-x="544" d="M450 -10Q430 -10 421 -5T408 11T405 35V211H88Q69 211 59 217T46 233T43 257Q43 263 43 268T46 279L155 655Q163 685 174 690T209 691Q231 687 241 676T245 646L144 295H405V649Q405 661 408 669T422 683T452 688Q471
688 480 683T493 667T496 643V34Q496 20 493 10T480 -5T450 -10Z" />
<glyph unicode="5" horiz-adv-x="516" d="M253 -15Q218 -15 191 -10T141 5T100 25T66 47Q56 56 50 63T43 80Q43 87 46 95T59 114Q68 126 76 130T92 135Q98 135 106 132T127 117Q139 108 153 98T190 82T246 76Q286 76 316 92T364 138T381 209Q381 249 364 279T316
326T250 344Q232 344 216 340T187 329T163 311Q156 304 151 301T137 295Q128 292 119 293T94 301Q76 309 68 316T60 336L103 642Q105 653 108 663T120 681T148 689L408 688Q421 688 430 685T445 672T450 642Q450 624 445 615T431 603T409 600H188L160 403Q172 413
187 419T219 429T250 433H257Q300 433 338 416T406 369T454 300T472 217Q472 149 443 97T365 15T253 -15Z" />
<glyph unicode="6" horiz-adv-x="536" d="M275 -13Q203 -13 152 18T73 111T45 263Q45 341 62 407T113 525T194 615T300 672T429 692Q442 692 450 689T464 676T469 646Q469 627 464 618T448 605T424 602Q372 602 329 589T252 552T193 493T156 418T142 330L126 317Q135
341 157 362T212 395T284 407Q347 407 393 381T465 309T491 204Q491 140 465 91T391 15T275 -13ZM271 70Q314 70 343 86T388 131T404 198Q404 235 389 263T346 308T278 324Q236 324 205 309T157 265T141 201Q141 161 156 132T200 87T271 70Z" />
<glyph unicode="7" horiz-adv-x="554" d="M199 -10Q180 -10 170 -7T157 4T154 22Q154 82 172 141T221 255T285 362T347 457T394 537T409 599H87Q73 599 63 602T48 615T43 644Q43 664 47 673T61 685T81 688H467Q486 688 495 681T508 662T511 635Q511 591 492 545T443
449T378 348T313 243T264 134T245 20Q245 10 242 4T228 -6T199 -10Z" />
<glyph unicode="8" horiz-adv-x="559" d="M283 -15Q213 -15 160 11T76 85T45 196Q45 221 52 245T70 289T95 326T123 352T150 368Q138 373 124 386T97 419T76 461T68 510Q68 566 95 608T171 675T283 700Q344 700 391 676T464 608T491 509Q491 489 486 471T473 436T455
406T434 382T413 368Q425 363 439 352T466 325T490 289T508 245T514 196Q514 148 497 109T448 43T374 0T283 -15ZM281 65Q324 65 356 81T406 127T424 195Q424 235 407 264T356 309T279 326Q236 326 204 310T153 264T135 195Q135 156 153 127T204 82T281 65ZM281
400Q318 400 344 413T386 452T401 510Q401 543 386 567T344 604T280 617Q244 617 217 604T175 567T160 510Q160 477 175 452T217 414T281 400Z" />
<glyph unicode="9" horiz-adv-x="536" d="M107 -9Q95 -9 86 -6T72 7T67 36Q67 56 72 65T88 78T112 81Q164 81 207 94T284 131T343 189T380 264T394 352L410 366Q401 342 379 322T325 289T252 277Q190 277 143 303T71 375T45 479Q45 543 71 592T146 668T261 696Q333
696 384 664T463 571T491 420Q491 342 474 276T423 158T342 68T236 11T107 -9ZM258 359Q302 359 332 374T379 418T396 482Q396 522 381 551T336 596T265 613Q222 613 193 597T148 553T132 485Q132 448 147 420T190 375T258 359Z" />
<glyph unicode=":" horiz-adv-x="234" d="M110 340Q81 340 69 351T57 392Q57 412 62 424T79 441T111 446Q140 446 152 435T164 393Q164 373 159 361T143 345T110 340ZM110 -11Q80 -11 69 1T57 41Q57 62 62 73T79 90T110 96Q140 96 151 84T163 42Q163 22 159 11T142
-6T110 -11Z" />
<glyph unicode=";" horiz-adv-x="213" d="M67 -90Q67 -90 64 -90T58 -84T55 -68Q55 -52 59 -48T66 -44Q66 -44 77 -35T90 -4Q82 -3 76 0T65 8Q57 15 56 26T55 47Q55 64 58 75T72 93T107 100Q137 100 150 88Q157 81 158 70T160 48Q160 41 160 36T158 25Q156 -5
143 -32T110 -74T67 -90ZM106 338Q75 338 64 350T52 390Q52 410 57 422T74 440T106 445Q137 445 148 433T159 391Q159 375 156 363T141 344T106 338Z" />
<glyph unicode="&lt;" horiz-adv-x="513" d="M411 1L47 241Q38 247 33 256T28 277Q28 291 33 299T47 312L412 553Q423 560 432 563T451 564T472 543Q483 528 484 518T481 499T463 483L144 277L464 70Q475 63 480 55T485 36T472 10Q461 -5 452 -9T433 -10T411 1Z" />
<glyph unicode="=" horiz-adv-x="465" d="M78 314Q66 314 57 316T43 328T38 356Q38 374 42 383T56 395T77 398H389Q401 398 409 395T423 383T428 355Q428 337 423 328T409 317T387 314H78ZM78 115Q66 115 57 117T43 129T37 156Q37 175 42 184T56 196T77 199H389Q401
199 409 196T423 184T428 156Q428 138 423 129T409 118T387 115H78Z" />
<glyph unicode="&gt;" horiz-adv-x="513" d="M102 1Q91 -6 81 -9T62 -9T42 10Q31 25 29 36T33 55T50 70L369 277L50 483Q39 490 34 498T29 517T42 543Q53 560 62 563T81 564T102 553L467 312Q475 308 480 300T486 277Q486 266 481 257T467 241L102 1Z" />
<glyph unicode="?" horiz-adv-x="491" d="M247 186Q229 186 221 191T210 205T207 227V322Q207 342 218 353T247 373T285 390T323 413T352 449T363 508Q363 564 333 593T244 623Q216 623 193 614T154 589T129 550Q125 538 119 531T104 523T78 527Q62 532 55 538T47
553T49 575Q53 593 64 611T91 646T129 675T181 696T244 704Q307 704 352 680T422 613T447 511Q447 478 439 451T415 402T379 362T335 332T284 311L291 322V225Q291 213 288 204T276 191T247 186ZM248 -11Q216 -11 206 2T195 43Q195 55 197 67T210 88T248 96Q283
96 292 84T302 42Q302 30 300 18T286 -2T248 -11Z" />
<glyph unicode="@" horiz-adv-x="829" d="M382 -141Q276 -141 199 -96T79 33T37 229Q37 311 64 378T141 495T259 570T411 597Q502 597 573 572T693 498T767 382T793 230Q793 165 776 113T730 23T662 -34T580 -54Q523 -54 490 -22T460 64Q461 78 462 92T465 119Q456
107 442 96T408 79T361 73Q334 73 309 84T265 114T236 162T225 224Q225 231 225 236T226 244Q230 283 245 314T283 369T335 404T395 417Q425 417 446 408T482 386T502 362L501 391Q503 408 513 413T544 418Q559 418 568 410T575 385L535 69Q534 47 545 34T584 21Q611
21 634 35T677 76T708 144T719 237Q719 303 701 355T645 445T551 503T418 523Q328 523 259 487T151 387T112 235Q112 143 144 76T237 -28T382 -65Q397 -65 405 -69T416 -81T420 -103Q420 -118 415 -126T401 -137T382 -141ZM382 151Q401 151 417 157T445 175T466
204T478 243V251Q478 272 472 288T456 316T431 333T399 339Q380 339 364 333T335 315T314 285T303 246V237Q303 211 313 192T340 162T382 151Z" />
<glyph unicode="A" horiz-adv-x="704" d="M683 54Q691 39 691 29T685 10T663 -6Q639 -17 626 -11T601 18L351 550L103 19Q92 -4 79 -10T40 -5Q25 1 19 10T13 32T23 62L310 661Q316 673 327 680T352 688Q361 688 369 685T383 676T393 660L683 54ZM163 189L197 266H507L540
189H163Z" />
<glyph unicode="B" horiz-adv-x="638" d="M99 -10Q81 -10 72 -4T59 15T56 43V637Q56 652 59 663T72 681T100 688H379Q435 688 477 663T544 595T567 501Q568 475 561 450T541 404T507 368Q534 351 553 324T582 264T592 195Q591 152 576 115T533 49T468 6T389 -10H99ZM146
76H379Q418 76 446 91T489 135T504 206Q504 242 494 264T467 297T431 314T393 319T359 320H298Q278 320 269 330T260 362Q260 383 269 392T299 401H360Q376 401 396 402T435 410T467 436T480 492Q480 548 450 574T351 601H146V76Z" />
<glyph unicode="C" horiz-adv-x="667" d="M399 -12Q345 -12 294 4T199 50T122 124T69 224T50 347Q50 411 69 465T121 562T198 633T294 678T400 694Q450 694 486 684T545 663T576 645Q590 637 603 626T617 600Q619 589 616 582T607 567Q599 555 591 550T572 544Q562
544 554 550T533 564Q527 568 509 577T463 594T395 603Q344 603 298 585T216 532T161 450T141 342Q141 281 161 233T216 150T298 98T395 80Q433 80 461 88T508 105T534 120Q545 126 553 132T572 138Q582 138 590 133T607 115Q612 108 615 100T617 81Q616 66 603
56T576 36Q567 32 545 20T486 -2T399 -12Z" />
<glyph unicode="D" horiz-adv-x="692" d="M109 -10Q92 -10 83 -4T69 12T65 36V644Q65 657 68 667T82 683T110 689L307 688Q381 688 441 664T545 594T611 485T634 343Q634 262 611 197T545 86T440 15T304 -10H109ZM155 81H307Q380 81 433 112T515 201T544 338Q544
418 515 476T433 565T306 597H155V81Z" />
<glyph unicode="E" horiz-adv-x="623" d="M121 -10Q101 -10 92 -5T79 11T76 36V643Q76 669 86 678T124 688H526Q540 688 550 685T565 672T570 642Q570 622 565 613T549 600T525 597H166V390H416Q430 390 439 387T454 375T459 347Q459 329 454 320T439 309T414
306H166V80H526Q540 80 550 77T565 65T570 35Q570 15 565 6T549 -7T525 -10H121Z" />
<glyph unicode="F" horiz-adv-x="631" d="M121 -10Q101 -10 92 -5T79 11T76 36V643Q76 669 86 678T124 688H526Q540 688 549 685T564 672T569 642Q569 622 564 613T548 600T524 597H166V390H415Q429 390 438 387T453 375T458 347Q458 329 453 320T439 309T414
306H166V35Q166 21 163 11T151 -4T121 -10Z" />
<glyph unicode="G" horiz-adv-x="708" d="M395 -12Q317 -12 255 13T149 86T80 201T56 350Q56 428 80 491T151 599T261 669T405 696Q436 696 468 690T531 673T585 647Q602 636 614 625T627 601Q628 595 625 586T617 569Q609 557 600 552T581 546Q577 546 567 551T542
566Q525 576 503 585T454 599T400 604Q323 604 266 573T179 484T147 347Q148 265 179 205T266 112T399 79Q424 79 450 83T501 94T549 113V306H374Q361 306 352 309T338 321T333 348Q333 366 338 375T352 387T374 390H591Q611 390 621 383T635 366T640 340V94Q640
78 623 61T573 28Q550 16 522 7T461 -7T395 -12Z" />
<glyph unicode="H" horiz-adv-x="687" d="M568 -10Q549 -10 540 -5T527 11T524 36V643Q524 657 527 667T540 682T569 688Q589 688 598 683T611 667T614 642V35Q614 21 611 11T598 -4T568 -10ZM118 -10Q98 -10 89 -5T76 11T73 36V643Q73 657 76 667T89 682T119
688Q138 688 147 683T160 667T163 642V35Q163 21 160 11T147 -4T118 -10ZM122 306V390H540L539 306H122Z" />
<glyph unicode="I" horiz-adv-x="217" d="M108 -10Q88 -10 79 -5T66 11T63 36V643Q63 657 66 667T79 682T109 688Q129 688 138 683T150 667T153 642V35Q153 21 150 11T138 -4T108 -10Z" />
<glyph unicode="J" horiz-adv-x="545" d="M245 -13Q216 -13 189 -6T138 12T97 36T67 61Q56 72 49 81T41 98Q41 107 47 116T60 133Q71 144 78 147T93 151Q107 151 115 142T141 117Q151 110 167 100T204 83T249 75Q282 75 306 87T345 121T369 172T377 236V635Q377
651 380 663T393 681T424 688Q443 688 452 683T464 667T467 642V228Q467 175 453 131T410 55T341 5T245 -13Z" />
<glyph unicode="K" horiz-adv-x="591" d="M114 -10Q94 -10 85 -5T72 11T69 35V644Q69 657 72 667T85 683T115 688Q135 688 144 683T157 667T160 643V401L455 674Q467 686 477 690T497 690T519 674Q538 655 538 642T519 611L221 340L523 67Q542 49 542 35T523 3Q510
-9 500 -13T481 -13T459 4L160 279V34Q160 20 157 10T144 -5T114 -10Z" />
<glyph unicode="L" horiz-adv-x="558" d="M112 -10Q92 -10 82 -5T69 11T65 35V642Q65 657 68 667T80 682T110 688Q130 688 139 683T152 667T155 643V74H490Q503 74 512 71T526 59T532 32Q532 15 527 6T513 -7T491 -10H112Z" />
<glyph unicode="M" horiz-adv-x="825" d="M114 -10Q96 -10 87 -4T73 12T69 36V644Q69 657 73 666T87 682T116 688Q131 688 140 686T154 681T166 670L427 292H396L660 673Q666 680 672 683T687 687T710 688Q729 688 738 682T752 666T756 642V34Q756 22 752 12T738
-4T709 -10Q691 -10 682 -4T669 12T665 36V538L451 223Q448 218 443 214T431 206T412 203Q400 203 394 206T382 213T372 224L159 537V34Q159 22 156 12T143 -4T114 -10Z" />
<glyph unicode="N" horiz-adv-x="708" d="M108 -10Q91 -10 82 -4T69 12T65 37V646Q65 659 69 668T83 682T113 688Q135 688 144 684T162 670L538 138V646Q538 659 541 668T555 682T584 688Q602 688 611 682T624 666T628 642V36Q628 23 624 13T609 -4T579 -10Q563
-10 553 -6T533 9L155 537V36Q155 23 151 13T137 -4T108 -10Z" />
<glyph unicode="O" horiz-adv-x="732" d="M371 -17Q300 -17 238 10T128 85T53 197T26 333Q26 407 52 472T124 587T232 664T362 692Q434 692 496 665T605 590T679 476T706 337Q706 264 680 201T607 88T501 11T371 -17ZM365 74Q417 74 462 94T542 150T595 234T615
338Q615 392 596 439T542 523T462 581T366 602Q315 602 270 581T191 524T137 440T117 337Q117 283 136 235T190 151T269 95T365 74Z" />
<glyph unicode="P" horiz-adv-x="601" d="M113 -10Q94 -10 85 -5T72 11T69 36V643Q69 656 72 666T86 682T114 688H333Q381 688 421 674T492 630T540 558T557 461Q557 407 540 365T492 295T421 251T332 236H160V35Q160 21 157 11T144 -4T113 -10ZM160 327H333Q373
327 403 342T450 388T467 463Q467 505 451 535T405 581T332 597H160V327Z" />
<glyph unicode="Q" horiz-adv-x="811" d="M760 80Q781 66 783 53T771 18Q761 3 752 -2T733 -5T709 7L599 81Q554 36 496 10T371 -17Q300 -17 238 10T128 85T53 197T26 333Q26 407 52 472T124 587T232 664T362 692Q434 692 496 665T605 590T679 476T706 337Q706
286 693 239T654 152L760 80ZM365 74Q417 74 462 94T542 150T595 235T615 338Q615 392 596 439T542 523T462 581T366 602Q315 602 270 581T190 524T136 440T117 337Q117 283 136 235T190 151T269 95T365 74Z" />
<glyph unicode="R" horiz-adv-x="624" d="M120 -10Q101 -10 91 -5T79 11T76 36V644Q76 657 79 666T92 682T121 688H342Q391 688 431 674T502 631T548 561T565 462Q565 427 554 390T521 319T463 264T378 239H166V35Q166 21 163 11T150 -4T120 -10ZM549 1Q528 -13
514 -8T486 16L326 272L425 287L563 67Q573 51 575 40T572 20T549 1ZM166 327H364Q387 327 407 335T442 361T466 403T475 463Q475 506 460 536T414 581T340 597H166V327Z" />
<glyph unicode="S" horiz-adv-x="554" d="M271 -20Q233 -20 200 -11T139 13T90 48T57 86Q46 102 43 112T44 133T63 155Q79 167 91 167T113 157T135 133Q160 99 196 84T267 68Q312 68 347 80T402 116T423 180Q423 212 407 234T364 271T304 298T237 321Q210 330
184 341T135 367T95 402T68 449T58 512Q58 567 84 609T159 674T270 698Q307 698 338 691T393 673T434 649T460 625Q478 606 480 593T465 561Q449 543 434 542T401 556Q382 578 362 590T319 606T269 611Q243 611 221 605T182 585T156 554T147 511Q147 484 161 465T200
433T254 409T317 388Q353 377 388 362T451 324T496 267T513 183Q513 133 494 95T440 32T363 -7T271 -20Z" />
<glyph unicode="T" horiz-adv-x="664" d="M587 688Q600 688 608 685T622 674T627 646Q627 628 622 619T607 608T585 605H378V34Q378 21 375 11T362 -4T333 -10Q313 -10 304 -5T292 11T289 35V605H79Q66 605 57 607T43 619T38 646Q38 665 42 673T56 685T78 688H587Z" />
<glyph unicode="U" horiz-adv-x="713" d="M355 -13Q288 -13 236 10T147 76T91 177T72 305V643Q72 657 75 667T88 682T118 688Q138 688 148 683T161 667T164 642V305Q164 238 186 187T251 107T358 77Q418 77 461 105T527 184T550 306V649Q550 661 553 669T567 683T597
688Q616 688 625 683T638 667T641 642V303Q641 233 622 176T567 76T477 10T355 -13Z" />
<glyph unicode="V" horiz-adv-x="724" d="M362 -10Q344 -10 333 -5T315 14L62 632Q52 656 58 666T87 687Q101 694 111 694T130 689T145 667L362 116L578 658Q584 674 591 683T611 694T641 686Q669 673 669 658T661 623L409 15Q404 3 392 -3T362 -10Z" />
<glyph unicode="W" horiz-adv-x="965" d="M281 -6Q266 -6 258 -2T245 10T239 25L35 628Q27 652 32 664T63 685Q79 690 89 690T107 682T120 658L285 155L436 654Q439 663 443 671T457 683T481 688Q498 688 507 683T520 672T526 658L680 152L844 656Q850 673 857
681T875 691T904 686Q921 681 928 674T935 656T930 628L726 24Q724 17 720 10T707 -1T683 -6Q669 -6 660 -1T647 12T639 28L482 533L325 28Q323 21 318 13T305 -1T281 -6Z" />
<glyph unicode="X" horiz-adv-x="694" d="M613 -6Q599 -16 589 -19T570 -18T550 1L77 615Q61 635 61 649T82 679Q95 691 105 694T124 692T145 673L618 57Q634 38 634 24T613 -6ZM82 -6Q62 10 62 24T77 57L550 673Q561 687 570 692T589 694T613 679Q633 663 633
649T618 615L145 1Q134 -12 125 -17T105 -20T82 -6Z" />
<glyph unicode="Y" horiz-adv-x="638" d="M587 685Q608 670 610 657T600 626L365 269V34Q365 21 362 11T350 -5T320 -11Q300 -11 291 -6T278 11T274 36V270L38 624Q26 642 29 655T53 684Q68 694 78 696T98 694T115 674L319 354L524 674Q533 688 541 693T561 697T587 685Z" />
<glyph unicode="Z" horiz-adv-x="575" d="M74 -11Q54 -11 42 0T30 34Q30 41 32 48T37 59L405 601H79Q65 601 54 603T36 615T30 642Q30 663 35 672T51 685T76 688H486Q507 688 518 675T530 645Q530 634 527 626T519 611L157 76H501Q515 76 525 73T540 61T545 34Q545
14 540 5T524 -8T499 -11H74Z" />
<glyph unicode="[" horiz-adv-x="342" d="M89 -160Q70 -160 60 -155T47 -139T44 -115V717Q44 730 47 740T60 756T89 762H256Q268 762 276 759T288 748T292 720Q292 702 288 693T275 682T254 679H130V-78H254Q266 -78 274 -80T287 -92T292 -119Q292 -136 288 -145T276
-157T255 -160H89Z" />
<glyph unicode="\" horiz-adv-x="519" d="M431 -47Q417 -54 407 -54T388 -44T371 -18L41 653Q28 680 31 694T55 719Q77 730 91 723T117 690L445 21Q459 -8 456 -22T431 -47Z" />
<glyph unicode="]" horiz-adv-x="342" d="M75 -160Q64 -160 56 -158T43 -146T38 -119Q38 -101 42 -92T55 -81T76 -78H200V679H76Q65 679 56 681T43 693T38 720Q38 739 42 747T55 759T75 762H241Q261 762 270 756T283 740T286 717V-115Q286 -129 283 -139T271 -154T241
-160H75Z" />
<glyph unicode="^" horiz-adv-x="509" d="M255 517Q263 517 270 513T283 503L463 322Q472 314 476 306T477 288T461 265Q449 253 439 251T421 252T404 265L255 415L105 265Q97 257 89 253T71 250T49 265Q36 278 33 287T34 305T46 322L227 503Q233 509 240 513T255 517Z" />
<glyph unicode="_" horiz-adv-x="812" d="M84 -143Q72 -143 63 -141T50 -129T45 -103Q45 -85 49 -76T62 -64T83 -61H731Q743 -61 751 -64T764 -76T769 -103Q769 -120 764 -129T750 -140T729 -143H84Z" />
<glyph unicode="`" horiz-adv-x="334" d="M223 545L72 596Q53 603 49 613T50 645Q57 667 67 672T97 672L249 620Q269 614 273 603T270 571Q263 549 253 544T223 545Z" />
<glyph unicode="a" horiz-adv-x="574" d="M475 -9Q453 -9 444 0T432 28L436 78Q426 62 405 42T350 6T267 -10Q219 -10 178 9T105 62T56 140T38 234Q38 283 55 326T105 403T178 455T267 474Q311 474 342 463T395 433T435 391L433 433Q432 455 442 464T476 474Q495
474 503 468T515 451T518 424V38Q518 24 515 13T503 -3T475 -9ZM282 74Q322 74 355 95T408 151T428 233Q428 280 408 315T354 371T280 392Q233 392 199 371T144 313T124 231Q124 186 144 151T199 95T282 74Z" />
<glyph unicode="b" horiz-adv-x="582" d="M310 -10Q261 -10 221 8T153 59T110 136T95 233Q95 285 110 329T153 406T221 457T310 475Q356 475 396 457T467 407T515 330T533 234Q533 181 516 137T468 59T397 8T310 -10ZM297 75Q339 75 373 95T426 150T446 232Q446
279 427 314T374 370T297 390Q255 390 222 370T169 315T149 232Q149 186 168 151T221 95T297 75ZM102 -11Q83 -11 74 -6T61 10T58 34V651Q58 666 61 676T73 691T102 697Q121 697 130 691T142 675T145 651V25Q143 6 134 -2T102 -11Z" />
<glyph unicode="c" horiz-adv-x="508" d="M291 -12Q239 -12 194 5T114 54T60 130T40 232Q40 289 59 333T113 410T192 459T289 476Q323 476 356 466T414 439T451 404Q461 391 465 383T466 363Q462 355 455 349T441 338Q423 324 405 334Q394 345 381 354T352 372T322
384T289 389Q242 389 206 370T151 315T131 232Q131 185 150 150T205 95T287 75Q308 75 327 80T364 95T392 116Q402 123 409 128T426 133Q434 133 443 127T462 107Q470 98 471 88T468 69T452 51Q436 35 410 21T352 -3T291 -12Z" />
<glyph unicode="d" horiz-adv-x="586" d="M272 -10Q227 -10 186 8T115 59T67 136T49 234Q49 286 66 330T114 406T186 457T272 475Q321 475 360 457T428 407T472 330T487 233Q488 180 473 136T429 59T362 8T272 -10ZM285 75Q327 75 360 95T413 150T433 232Q433
279 414 314T361 370T285 390Q243 390 209 370T156 315T136 232Q136 186 155 151T209 95T285 75ZM481 -10Q459 -10 449 -2T437 25V651Q437 666 439 676T451 691T480 697Q499 697 508 692T521 676T524 652V36Q524 22 521 12T509 -4T481 -10Z" />
<glyph unicode="e" horiz-adv-x="540" d="M291 -15Q231 -15 184 5T105 59T55 139T38 236Q38 305 70 359T158 444T288 476Q338 476 377 461T445 419T488 361T503 297Q503 246 479 226T420 205H131Q130 161 154 130T216 81T292 64Q320 64 340 67T375 75T401 85T420
95T437 102Q446 104 454 101T468 87Q474 79 476 72T478 57Q478 43 454 26T388 -3T291 -15ZM131 264H382Q401 264 410 269T420 296Q420 324 403 346T357 383T289 397Q245 397 209 380T151 332T131 264Z" />
<glyph unicode="f" horiz-adv-x="378" d="M162 -11Q144 -11 135 -5T122 11T119 36V538Q119 578 128 608T158 658T211 688T292 699Q305 699 315 697T331 685T337 656Q337 637 331 628T315 615T291 612Q268 612 252 610T226 601T213 580T208 540V33Q208 20 205 10T192
-5T162 -11ZM68 463L164 462L303 464Q317 464 327 462T342 450T348 421Q348 402 343 393T328 380T304 377L167 379L66 378Q45 378 38 388T30 421Q30 443 39 453T68 463Z" />
<glyph unicode="g" horiz-adv-x="565" d="M267 -206Q232 -206 200 -198T144 -177T106 -149T92 -121Q92 -111 95 -105T104 -91Q114 -81 120 -77T136 -73Q146 -73 156 -81T180 -100T216 -119T270 -128Q303 -128 329 -118T374 -88T403 -40T413 25L411 441Q412 460
422 468T456 476Q475 476 483 471T494 456T497 432V18Q497 -35 480 -76T432 -147T359 -191T267 -206ZM264 1Q216 1 176 18T105 68T58 143T41 237Q41 288 57 331T104 406T174 455T263 473Q307 473 343 456T404 408T443 333T456 237Q456 165 433 112T367 30T264 1ZM269
83Q309 83 341 103T392 158T411 239Q411 284 392 318T341 372T267 391Q226 391 194 372T145 319T127 238Q127 192 145 158T195 103T269 83Z" />
<glyph unicode="h" d="M100 -10Q81 -10 71 -5T59 11T56 36V652Q56 666 59 676T72 691T101 697Q121 697 130 692T142 676T145 651V404Q169 432 203 454T288 476Q347 476 393 449T467 371T495 252V35Q495 21 492 11T480 -4T451 -10Q432 -10 422 -5T409 11T406 36V253Q406
295 392 326T351 374T281 391Q224 391 188 359T145 272V35Q145 21 142 11T130 -4T100 -10Z" />
<glyph unicode="i" horiz-adv-x="224" d="M112 -10Q93 -10 84 -5T71 11T68 35V430Q68 444 71 454T83 469T113 474Q132 474 141 469T153 453T156 428V34Q156 20 153 10T141 -5T112 -10ZM112 594Q90 594 79 600T65 619T61 647Q61 663 65 674T80 691T113 697Q134
697 145 691T159 673T163 645Q163 629 160 618T145 600T112 594Z" />
<glyph unicode="j" horiz-adv-x="240" d="M-41 -205Q-54 -205 -64 -202T-79 -189T-85 -161Q-85 -143 -80 -134T-64 -122T-40 -118Q-17 -118 4 -114T42 -98T68 -63T78 -2V433Q78 446 81 455T93 469T122 475Q140 475 149 470T162 454T165 429V-2Q165 -54 149 -92T105
-156T40 -193T-41 -205ZM120 595Q91 595 81 606T70 647Q70 676 81 686T121 697Q150 697 160 686T171 645Q171 617 160 606T120 595Z" />
<glyph unicode="k" horiz-adv-x="489" d="M435 68Q454 53 455 39T441 6Q429 -8 420 -12T400 -14T377 1L151 185V35Q151 21 148 11T135 -4T106 -10Q88 -10 78 -5T66 11T63 36V653Q63 667 66 677T79 692T107 698Q127 698 136 693T148 677T151 652V298L316 456Q327
467 337 471T358 473T380 457Q398 437 398 424T379 393L217 240L435 68Z" />
<glyph unicode="l" horiz-adv-x="281" d="M215 -10Q183 -10 158 -5T113 13T82 44T64 90T58 153V653Q58 668 60 678T73 693T101 699Q121 699 130 694T143 679T146 655V154Q146 134 150 120T162 95T184 81T215 77Q227 77 235 74T249 62T254 34Q254 14 249 5T236
-7T215 -10Z" />
<glyph unicode="m" horiz-adv-x="826" d="M106 -10Q87 -10 78 -4T66 12T63 36V432Q63 446 66 455T78 469T107 474Q129 474 138 466T148 436L144 393Q151 408 165 423T198 450T240 469T285 476Q320 476 347 464T397 428T434 371Q454 404 476 427T528 463T593 476Q650
476 688 448T746 368T766 244V35Q766 21 764 11T752 -4T722 -10Q703 -10 694 -4T681 12T678 36V245Q678 290 668 322T636 373T580 391Q544 391 517 374T474 323T459 245V34Q459 19 453 8T435 -7T406 -9Q390 -7 382 -1T372 14T370 36V245Q370 290 360 322T328 373T272
391Q236 391 209 373T166 321T151 245V35Q151 21 148 11T136 -4T106 -10Z" />
<glyph unicode="n" horiz-adv-x="557" d="M107 -9Q88 -9 79 -4T67 12T64 36V433Q64 446 67 455T79 469T108 474Q123 474 131 471T143 461T148 448T149 435L147 389Q157 406 172 421T207 449T250 469T301 476Q345 476 382 461T445 416T486 345T501 252V35Q501 21
499 11T487 -4T458 -9Q438 -9 429 -4T416 12T413 36V253Q413 295 399 326T357 374T286 392Q245 392 215 375T168 326T151 253V35Q151 21 148 11T136 -4T107 -9Z" />
<glyph unicode="o" horiz-adv-x="560" d="M282 -16Q233 -16 189 3T109 55T54 134T34 232Q34 284 53 328T106 407T184 460T280 480Q349 480 404 448T493 359T526 233Q526 178 506 133T452 54T374 3T282 -16ZM280 71Q322 71 358 92T416 150T438 234Q438 281 418
317T361 373T279 393Q235 393 200 372T143 315T121 233Q121 185 143 149T201 92T280 71Z" />
<glyph unicode="p" horiz-adv-x="574" d="M308 -6Q259 -6 219 12T151 62T108 139T93 236Q93 288 108 332T151 408T219 458T308 476Q354 476 394 458T465 408T513 330T531 233Q531 181 514 137T466 61T395 12T308 -6ZM100 -207Q81 -207 72 -202T59 -186T55 -162V429Q55
443 58 453T70 468T99 474Q121 474 131 467T144 442V-161Q145 -175 142 -185T130 -201T100 -207ZM295 76Q337 76 371 96T424 153T444 235Q444 282 425 317T372 371T295 391Q253 391 220 371T167 316T147 235Q147 189 166 153T219 97T295 76Z" />
<glyph unicode="q" horiz-adv-x="568" d="M260 -6Q214 -6 174 11T102 61T54 137T36 233Q36 285 53 330T102 407T173 458T260 476Q309 476 348 459T416 409T459 332T475 236Q475 183 460 139T417 63T349 12T260 -6ZM273 76Q314 76 347 96T401 153T421 235Q421 281
402 316T349 371T272 391Q231 391 197 371T143 316T123 235Q123 189 143 153T197 97T273 76ZM467 -207Q448 -207 439 -202T426 -186T423 -161V442Q425 454 430 461T444 471T468 474Q488 474 497 469T509 453T512 429V-162Q512 -176 509 -186T497 -201T467 -207Z"
/>
<glyph unicode="r" horiz-adv-x="406" d="M107 -10Q88 -10 79 -5T67 11T64 36V430Q64 445 67 455T79 469T108 474Q126 474 135 470T148 457T152 437L148 407Q155 420 164 433T188 456T223 474T274 481Q289 481 302 479T328 471T350 460T364 446T370 428Q370 406
356 391T327 375Q314 375 308 378T297 386T281 393T249 397Q234 397 218 391T186 374T162 344T152 302V34Q152 20 149 10T137 -5T107 -10Z" />
<glyph unicode="s" horiz-adv-x="459" d="M224 -15Q200 -15 174 -10T124 4T81 27T53 56Q48 66 47 74T50 91T62 107Q72 119 82 119T107 105Q118 98 133 90T164 75T196 64T229 59Q275 59 303 76T331 123Q331 140 324 152T305 172T278 187T245 198T208 209Q181 216
155 225T108 248T74 285T61 343Q61 384 82 414T141 460T230 477Q252 477 271 474T307 465T341 450T372 429Q390 417 391 403T380 374Q371 361 360 358T338 363Q322 375 304 384T267 399T228 405Q203 405 184 398T154 376T143 343Q143 327 151 317T173 300T205 288T244
277Q273 270 303 261T358 236T398 195T414 127Q414 61 362 23T224 -15Z" />
<glyph unicode="t" horiz-adv-x="376" d="M291 -10Q244 -10 212 -1T158 27T128 76T119 152V594Q119 608 122 618T134 633T162 639Q181 639 191 634T204 619T207 595V152Q207 126 211 111T225 87T251 77T290 75Q306 75 316 72T331 60T336 33Q336 14 331 5T315 -7T291
-10ZM67 463L163 462L302 464Q316 464 326 462T341 450T347 421Q347 402 342 393T327 380T303 377L166 379L65 378Q44 378 37 388T29 421Q29 443 38 453T67 463Z" />
<glyph unicode="u" horiz-adv-x="543" d="M255 -11Q211 -11 174 5T108 50T65 120T49 213V430Q49 444 52 454T64 469T93 475Q112 475 121 469T134 453T137 429V212Q137 171 151 140T193 91T263 74Q305 74 335 91T382 139T399 212V430Q399 444 402 454T414 469T443
475Q462 475 471 469T483 453T486 429V32Q486 20 484 11T472 -4T443 -9Q429 -9 421 -6T408 2T403 13T401 27L405 70Q395 58 381 44T349 18T307 -3T255 -11Z" />
<glyph unicode="v" horiz-adv-x="537" d="M268 -12Q251 -12 241 -7T223 11L38 414Q27 438 33 450T61 474Q81 484 95 481T119 454L268 99L414 444Q425 467 438 477T479 473Q506 460 506 444T497 408L313 12Q308 0 297 -6T268 -12Z" />
<glyph unicode="w" horiz-adv-x="763" d="M231 -7Q216 -7 208 -3T195 9T188 26L33 420Q28 435 28 445T36 462T59 474Q83 483 96 479T117 452L231 148L337 445Q340 453 344 460T358 473T381 478Q397 478 405 473T419 461T427 446L532 146L646 447Q655 471 668 478T706
476Q727 469 734 456T731 419L576 25Q573 17 569 10T556 -2T533 -7Q519 -7 511 -3T498 9T489 28L382 336L274 28Q270 16 266 8T253 -3T231 -7Z" />
<glyph unicode="x" horiz-adv-x="494" d="M436 467Q450 456 455 447T456 426T438 398L122 9Q109 -6 99 -11T80 -14T57 -1Q44 10 40 19T39 40T57 67L373 456Q393 478 405 480T436 467ZM59 467Q72 477 81 480T100 477T121 456L437 67Q451 51 455 40T456 20T437 -1Q425
-11 416 -14T396 -12T373 9L57 398Q43 414 39 425T39 446T59 467Z" />
<glyph unicode="y" horiz-adv-x="526" d="M170 -204Q146 -194 142 -181T149 -145L414 450Q425 473 437 478T473 474Q497 463 500 450T494 415L227 -183Q217 -206 205 -210T170 -204ZM269 54L40 407Q27 427 30 440T53 467Q75 481 88 478T116 454L310 149L269 54Z" />
<glyph unicode="z" horiz-adv-x="531" d="M81 -10Q60 -10 49 1T37 33Q37 44 40 52T52 68L346 386H105Q91 386 81 388T66 401T60 430Q60 450 65 459T81 471T105 474H437Q459 474 470 463T481 432Q481 422 478 414T470 401L176 79H450Q464 79 474 76T489 63T494
33Q494 14 489 5T473 -7T449 -10H81Z" />
<glyph unicode="{" horiz-adv-x="374" d="M273 -160Q240 -160 217 -152T178 -127T155 -83T147 -19V189Q147 209 142 222T127 244T101 255T64 259H52Q37 259 31 268T25 300Q25 318 28 327T38 339T51 342H61Q83 342 99 345T125 357T141 379T146 413L147 626Q147
661 154 687T177 729T216 754T272 762Q286 762 295 760T310 748T315 722Q315 704 310 696T296 684T272 680Q256 680 247 674T234 655T230 618V437Q230 412 226 390T213 350T189 319T153 298Q174 291 188 277T212 242T226 199T230 151L229 -29Q229 -47 233 -58T246
-74T272 -79Q286 -79 295 -81T309 -93T315 -119Q315 -137 310 -146T295 -157T273 -160Z" />
<glyph unicode="|" horiz-adv-x="213" d="M109 -208Q93 -208 84 -203T73 -187T70 -163V653Q70 667 72 677T84 692T110 697Q128 697 136 692T146 676T149 652V-164Q149 -178 147 -188T136 -203T109 -208Z" />
<glyph unicode="}" horiz-adv-x="374" d="M67 -160Q55 -160 46 -158T31 -146T25 -119Q25 -102 30 -93T45 -82T68 -79Q85 -79 94 -74T107 -58T111 -29V151Q111 175 115 198T128 242T152 276T187 298Q167 306 152 319T128 350T115 390T111 437V618Q111 642 107 655T94
674T68 680Q55 680 46 683T31 695T25 722Q25 739 30 748T45 759T68 762Q101 762 124 754T163 730T185 687T193 626L194 413Q194 393 199 379T215 357T242 346T279 342H290Q296 342 302 339T311 327T315 300Q315 278 309 269T289 259H276Q255 259 240 256T214 244T198
223T193 189V-19Q193 -56 186 -82T163 -126T124 -152T67 -160Z" />
<glyph unicode="~" horiz-adv-x="552" d="M196 349Q220 349 239 342T274 324T305 302T334 284T362 276Q373 276 382 282T401 297T419 315T436 333Q443 341 456 342T481 336Q493 329 498 321T503 300Q503 284 491 265T458 229T412 201T360 190Q334 190 315 197T280
215T251 236T224 254T194 262Q183 262 172 257T152 243T133 225T115 209Q110 204 104 203T89 203T72 210Q55 221 51 234T55 262Q62 276 75 291T108 319T149 340T196 349Z" />
<glyph unicode="&#xa0;" horiz-adv-x="254" />
<glyph unicode="&#xa1;" horiz-adv-x="231" d="M116 304Q136 304 145 299T157 285T160 261V-156Q160 -169 157 -179T145 -194T115 -199Q96 -199 87 -194T74 -179T71 -155V262Q71 275 74 284T86 299T116 304ZM116 501Q138 501 149 495T164 476T168 447Q168 419
158 407T115 395Q93 395 82 402T67 421T63 449Q63 478 74 489T116 501Z" />
<glyph unicode="&#xa2;" horiz-adv-x="427" d="M232 -74Q217 -74 209 -69T199 -55T196 -32V46Q140 55 101 84T41 159T20 260Q20 316 41 361T101 436T196 473V559Q196 572 198 581T209 595T233 600Q249 600 257 595T267 581T270 557V474Q297 471 319 462T357 440T384
415Q394 403 397 395T397 377Q392 369 386 363T372 353Q355 342 340 352Q325 367 309 377T275 392T235 398Q193 398 164 379T119 329T103 259Q103 221 118 190T163 140T234 121Q255 121 273 125T308 138T340 158Q350 164 358 164T376 160Q383 157 388 151T398 135Q402
127 400 116T385 96Q369 81 351 70T312 53T270 45V-33Q270 -46 268 -55T257 -69T232 -74Z" />
<glyph unicode="&#xa3;" horiz-adv-x="663" d="M131 -10Q108 -10 98 2T88 36Q88 66 97 83T120 115T142 152T152 214Q152 223 150 247T138 294H64Q52 294 44 297T30 308T25 334Q25 352 30 360T44 372T64 375H121V442Q121 479 127 504T148 559Q169 599 203 630T284
678T393 696Q429 696 461 687T519 665T565 635T596 605Q613 585 613 570T598 538Q578 521 562 520T532 536Q519 552 500 568T455 594T393 605Q339 605 299 585T237 527T215 438V375H362Q374 375 382 372T395 361T400 334Q400 317 395 309T382 297T360 294H233Q240
272 242 249T244 213Q244 192 238 169T223 122T201 83H584Q599 83 609 80T625 66T631 35Q631 15 625 6T609 -7T583 -10H131Z" />
<glyph unicode="&#xa4;" horiz-adv-x="665" d="M62 -5Q46 3 43 13T45 37Q54 62 71 83T111 121T157 146Q132 163 110 191T74 257T60 342Q60 403 85 459T160 553Q116 569 90 594T51 647Q42 666 44 678T63 700Q81 711 91 707T114 685Q120 676 126 668T139 650Q154
630 186 620T256 606T327 602H341Q378 602 415 606T482 620T525 650Q530 658 536 667T547 684Q558 701 568 704T597 699Q616 689 617 678T611 648Q597 617 569 592T492 551Q546 520 572 465T599 345Q599 307 587 269T554 198T504 146Q528 138 549 122T587 86T610
45Q618 26 616 16T596 -5Q578 -16 568 -12T547 10Q541 22 536 31T523 51Q514 65 490 74T427 87T334 91H313Q272 91 243 89T195 81T162 69T141 51Q128 36 123 26T113 7Q102 -11 92 -13T62 -5ZM324 163Q385 163 428 185T494 248T518 346Q518 403 495 443T430 506T330
528Q273 528 231 506T167 444T144 347Q144 291 166 250T229 186T324 163Z" />
<glyph unicode="&#xa5;" horiz-adv-x="665" d="M604 685Q625 670 627 657T618 626L383 269V34Q383 21 380 11T367 -5T337 -11Q317 -11 308 -6T295 11T292 36V269L55 624Q43 642 46 655T70 684Q92 700 106 697T132 674L337 352L541 674Q555 694 568 696T604 685ZM191
136Q179 136 170 138T156 149T150 172Q150 189 155 196T169 207T191 210H471Q484 210 493 207T507 197T512 172Q512 157 507 149T492 139T471 136H191ZM191 258Q179 258 170 260T156 271T150 295Q150 317 159 325T190 333H472Q494 333 503 325T512 295Q512 279
507 271T492 261T471 258H191Z" />
<glyph unicode="&#xa6;" horiz-adv-x="211" d="M109 295Q93 295 84 300T73 315T70 334V654Q70 667 72 677T84 692T110 697Q127 697 135 692T146 676T149 652V334Q149 323 147 314T135 300T109 295ZM109 -206Q93 -206 84 -201T73 -185T70 -161V157Q70 168 72 177T84
191T110 197Q127 197 135 191T146 176T149 156V-162Q149 -176 147 -186T135 -201T109 -206Z" />
<glyph unicode="&#xa7;" horiz-adv-x="550" d="M277 -224Q241 -224 208 -215T145 -189T94 -154T59 -114Q45 -92 45 -78T66 -47Q90 -29 104 -38T136 -68Q153 -90 176 -106T225 -130T274 -139Q318 -139 350 -128T401 -93T419 -35Q419 -4 399 16T346 48T274 72T196
97Q159 111 128 130T77 180T58 257Q58 291 70 319T104 367T155 401Q115 422 87 455T58 540Q58 595 84 633T158 691T267 711Q310 711 345 701T408 673T455 638Q472 620 473 609T459 578Q444 560 429 559T396 572Q382 587 362 599T317 618T266 626Q231 626 204 618T162
590T146 539Q146 511 165 493T217 461T288 437T365 412T436 379T488 329T508 254Q508 201 482 164T413 105Q453 83 480 51T508 -32Q508 -79 490 -115T440 -175T367 -211T277 -224ZM310 147Q342 152 366 164T405 197T419 251Q419 272 408 288T376 316T325 340T255
360Q204 352 175 328T146 256Q146 237 154 223T179 198T216 179T261 163T310 147Z" />
<glyph unicode="&#xa8;" horiz-adv-x="334" d="M240 562Q215 562 205 569T193 588T191 612Q191 624 193 635T205 653T240 660Q265 660 275 653T287 635T289 611Q289 600 287 588T275 569T240 562ZM94 562Q69 562 59 569T47 588T45 612Q45 624 47 635T59 653T95
660Q119 660 129 653T141 635T143 611Q143 600 141 588T129 569T94 562Z" />
<glyph unicode="&#xa9;" horiz-adv-x="653" d="M329 112Q255 112 201 128T113 179T62 268T45 398Q45 476 61 531T111 622T198 674T324 691Q399 691 453 675T541 623T591 533T608 401Q608 324 592 270T542 180T455 129T329 112ZM337 218Q284 218 243 242T178 308T154
405Q154 456 177 496T242 561T334 585Q365 585 386 578T419 563T436 550Q448 538 451 526T442 500Q435 491 428 490T413 492T398 499Q395 502 378 510T335 519Q301 519 276 504T235 462T220 401Q220 367 235 341T275 299T334 283Q353 283 366 288T388 298T403 305Q417
309 425 311T445 299Q458 280 452 267T430 244Q423 239 410 233T379 222T337 218ZM326 173Q386 173 428 185T496 225T535 296T547 402Q547 464 535 507T496 578T428 618T326 631Q267 631 225 619T157 578T118 507T106 400Q106 339 118 296T157 225T225 186T326
173Z" />
<glyph unicode="&#xaa;" horiz-adv-x="437" d="M357 683Q373 683 380 678T390 663T393 639V351Q393 338 391 329T380 314T356 309Q337 309 328 317T318 348L323 376Q313 356 295 341T253 317T198 309Q150 309 110 333T46 401T22 498Q22 552 46 594T110 659T198
683Q227 683 250 675T292 654T322 623L318 642Q318 664 327 673T357 683ZM211 382Q242 382 265 396T301 437T314 496Q314 531 301 557T265 598T209 612Q159 612 128 580T97 495Q97 462 111 436T152 396T211 382Z" />
<glyph unicode="&#xab;" horiz-adv-x="539" d="M549 -3Q537 -14 528 -18T509 -19T488 -5L287 196Q279 204 275 211T271 226Q271 234 275 241T287 256L489 458Q500 469 509 472T527 471T549 455Q561 443 563 434T561 415T545 395L376 226L544 58Q556 46 561 37T564
19T549 -3ZM508 -3Q496 -14 487 -18T468 -19T447 -5L246 196Q238 204 234 211T230 226Q230 234 234 241T246 256L448 458Q459 469 468 472T486 471T508 455Q520 443 522 434T520 415T504 395L335 226L503 58Q515 46 520 37T523 19T508 -3Z" />
<glyph unicode="&#xac;" horiz-adv-x="517" d="M443 127Q426 127 417 132T405 146T402 166V275H79Q67 275 58 277T44 289T39 319Q39 339 44 348T58 361T78 364H443Q465 364 474 355T483 323V167Q483 155 480 146T469 132T443 127Z" />
<glyph unicode="&#xae;" horiz-adv-x="653" d="M324 691Q399 691 453 675T541 623T591 533T608 401Q608 324 592 270T542 180T455 129T329 112Q255 112 201 128T113 179T62 268T45 398Q45 476 61 531T111 622T198 674T324 691ZM326 173Q385 173 427 185T495 225T534
296T547 402Q547 464 535 507T496 578T428 618T326 631Q267 631 225 619T157 578T118 507T106 400Q106 339 118 296T157 225T225 186T326 173ZM412 363L468 262Q473 254 471 246T461 233T443 223Q432 220 424 224T410 239L351 345H269V252Q269 244 267 237T258
225T238 221Q226 221 219 225T210 237T207 252V558Q207 568 210 574T222 583T241 586H345Q383 586 410 572T451 531T466 464Q466 438 454 409T412 363ZM269 524V406H356Q379 406 392 422T405 465Q405 494 390 509T345 524H269Z" />
<glyph unicode="&#xaf;" horiz-adv-x="375" d="M97 575Q90 575 84 577T73 585T69 603Q69 617 73 623T83 631T97 633H270Q277 633 283 631T294 623T298 604Q298 591 294 585T283 577T269 575H97Z" />
<glyph unicode="&#xb0;" horiz-adv-x="330" d="M165 401Q126 401 92 421T38 474T18 548Q18 589 38 623T91 677T164 697Q206 697 239 677T293 624T313 549Q313 508 293 474T240 421T165 401ZM165 471Q198 471 220 494T243 550Q243 584 221 605T164 627Q132 627
110 605T87 549Q87 516 109 494T165 471Z" />
<glyph unicode="&#xb1;" horiz-adv-x="501" d="M66 237Q54 237 45 239T31 250T25 276Q25 295 30 303T44 315T65 318H436Q448 318 457 315T471 303T476 276Q476 259 471 251T456 240T434 237H66ZM251 120Q232 120 223 125T210 139T207 162V395Q207 409 210 418T223
432T251 437Q270 437 279 432T290 417T293 394V163Q293 150 291 140T279 125T251 120ZM66 -10Q54 -10 45 -8T31 3T25 30Q25 48 30 56T44 68T65 71H436Q448 71 457 68T471 57T476 29Q476 12 471 4T456 -7T434 -10H66Z" />
<glyph unicode="&#xb2;" horiz-adv-x="447" d="M71 194Q59 194 49 199T34 215T28 237Q28 249 29 261T37 285T61 309Q111 343 154 370T231 424T283 479T302 540Q302 565 292 584T260 614T207 625Q174 625 153 612T121 576T110 524Q110 510 107 501T95 487T67 482Q47
482 39 489T30 507T28 528Q28 582 50 622T112 684T206 706Q262 706 302 685T363 626T385 533Q385 507 378 484T354 438T314 392T257 345T182 292L145 276H369Q380 276 388 273T401 261T406 234Q406 217 402 209T388 197T368 194H71Z" />
<glyph unicode="&#xb3;" horiz-adv-x="449" d="M210 183Q161 183 121 202T55 254T26 328Q26 340 31 348T46 360T70 364Q92 364 97 355T108 329Q114 311 127 295T162 270T211 261Q243 261 265 272T300 302T312 343Q312 378 287 399T218 420Q204 420 195 422T182
434T177 459Q177 474 181 481T195 491T217 494Q252 494 273 510T294 553Q294 584 272 604T215 624Q192 624 176 618T148 601T128 574Q124 566 117 559T98 552Q89 552 82 555T65 565Q46 580 51 598Q57 617 72 636T108 669T156 693T215 703Q263 703 299 684T357 633T379
559Q379 530 366 504T328 461Q348 449 363 431T386 391T395 346Q395 299 371 262T306 204T210 183Z" />
<glyph unicode="&#xb4;" horiz-adv-x="363" d="M111 543Q95 540 86 546T71 571Q64 592 68 603T92 620L252 674Q267 677 276 671T291 645Q298 624 293 614T268 596L111 543Z" />
<glyph unicode="&#xb5;" horiz-adv-x="591" d="M106 -209Q88 -209 79 -203T67 -187T63 -164V431Q63 446 66 455T80 469T107 474Q126 474 135 469T148 453T151 429V213Q151 171 165 140T207 92T277 74Q319 74 349 91T396 140T413 213V430Q413 444 415 454T427 469T457
475Q476 475 485 469T497 453T500 429V34Q500 21 497 12T485 -3T456 -8Q443 -8 435 -6T423 1T416 12T414 26L418 69Q407 55 393 41T362 16T322 -3T273 -10Q236 -10 205 2T150 37V-165Q150 -177 147 -187T134 -203T106 -209Z" />
<glyph unicode="&#xb6;" horiz-adv-x="492" d="M262 -245Q245 -245 237 -238T225 -218T222 -184V290Q149 289 107 304T48 355T30 445Q30 486 37 515T62 563T110 590T188 599H401Q418 599 426 592T437 572T440 539V-186Q440 -205 438 -218T426 -238T400 -245Q383
-245 374 -238T363 -218T360 -184V526H302V-186Q302 -205 300 -218T289 -238T262 -245Z" />
<glyph unicode="&#xb7;" horiz-adv-x="181" d="M91 234Q59 234 48 246T37 287Q37 311 46 325T91 340Q123 340 133 328T144 288Q144 263 135 249T91 234Z" />
<glyph unicode="&#xb8;" horiz-adv-x="267" d="M118 -178Q96 -178 74 -168T50 -144Q50 -134 58 -124Q66 -113 71 -110T81 -106Q88 -106 98 -113T120 -120Q134 -120 146 -109T158 -82Q158 -65 147 -54T119 -43Q104 -43 95 -50T79 -58Q74 -58 69 -53T57 -39Q53 -31
52 -27T50 -18Q52 -10 63 -3T89 10T119 15Q145 15 166 3T202 -31T216 -81Q216 -108 203 -130T168 -165T118 -178Z" />
<glyph unicode="&#xb9;" horiz-adv-x="316" d="M199 190Q182 190 174 195T162 208T159 229V569Q143 557 126 546T92 523Q79 515 69 517T47 532Q34 548 35 561T52 588L165 677Q174 684 182 687T201 691Q222 691 231 682T241 651V227Q241 216 239 208T227 195T199 190Z" />
<glyph unicode="&#xba;" horiz-adv-x="431" d="M226 306Q173 306 132 330T66 396T42 493Q42 548 65 590T131 657T226 681Q280 681 320 658T384 592T407 494Q407 439 384 397T321 330T226 306ZM226 380Q273 380 302 412T331 496Q331 546 302 576T226 607Q177 607
148 576T118 495Q118 443 148 412T226 380Z" />
<glyph unicode="&#xbb;" horiz-adv-x="527" d="M277 -3Q265 9 263 18T265 37T282 58L450 226L281 395Q270 406 265 415T262 433T277 455Q289 467 298 471T317 472T337 458L539 256Q547 248 551 241T555 226Q555 219 551 212T539 196L338 -5Q328 -15 318 -19T299
-19T277 -3ZM235 -3Q223 9 221 18T223 37T240 58L408 226L239 395Q228 406 223 415T220 433T235 455Q247 467 256 471T275 472T295 458L497 256Q505 248 509 241T513 226Q513 219 509 212T497 196L296 -5Q286 -15 276 -19T257 -19T235 -3Z" />
<glyph unicode="&#xbc;" horiz-adv-x="772" d="M147 -27Q136 -21 132 -14T129 3T139 29L496 705Q504 720 511 726T528 733T547 728Q558 722 562 715T565 698T555 673L196 -4Q189 -18 182 -25T166 -32T147 -27ZM664 -10Q648 -10 640 -6T630 7T627 26V103H457Q438
103 430 112T421 140Q421 146 422 151T424 164L489 381Q496 406 505 411T534 412Q548 410 555 404T564 388T562 365L506 174H627V377Q627 387 629 394T641 405T666 409Q682 409 690 405T700 392T703 372V24Q703 14 700 6T689 -6T664 -10ZM191 333Q176 333 168 337T158
350T155 369V605Q144 597 133 590T111 573Q99 565 90 566T70 580Q58 594 58 606T74 633L159 706Q168 713 174 716T192 719Q212 719 220 710T229 682V368Q229 357 227 350T216 338T191 333Z" />
<glyph unicode="&#xbd;" horiz-adv-x="790" d="M154 -27Q143 -21 139 -14T136 3T146 29L503 705Q511 720 518 726T535 733T554 728Q565 722 569 715T571 698T562 673L203 -4Q196 -18 189 -25T173 -32T154 -27ZM213 333Q198 333 190 337T180 350T177 369V605Q166
597 156 590T134 573Q122 566 113 567T93 580Q80 594 80 606T97 633L182 706Q190 713 197 716T215 719Q234 719 242 710T251 682V368Q251 357 249 350T238 338T213 333ZM475 -10Q465 -10 457 -5T445 10T440 28Q440 40 441 50T449 71T471 90Q512 117 546 139T607
182T649 226T664 277Q664 295 656 308T630 329T587 337Q560 337 543 327T518 298T509 256Q509 245 507 238T496 226T472 221Q454 221 447 227T438 242T437 260Q437 305 456 338T508 390T587 409Q632 409 665 391T717 343T736 271Q736 245 726 221T695 173T642 126T565
73L543 62H721Q730 62 736 59T747 48T751 24Q751 10 747 3T737 -7T720 -10H475Z" />
<glyph unicode="&#xbe;" horiz-adv-x="819" d="M206 -27Q195 -21 191 -14T188 4T198 29L556 705Q564 720 571 726T587 733T607 728Q617 722 621 715T624 698T614 673L255 -4Q248 -18 241 -25T225 -32T206 -27ZM206 332Q170 332 140 346T91 385T70 440Q70 450 75
456T89 464T104 467Q122 467 127 459T135 442Q139 429 148 418T172 399T207 392Q237 392 258 408T279 451Q279 473 262 488T210 504Q195 504 187 510T179 534Q179 551 187 556T210 562Q235 562 250 573T265 603Q265 626 250 639T209 653Q194 653 183 650T163 639T148
620Q145 612 140 606T124 600Q110 600 97 611T88 638Q95 656 111 674T153 703T209 714Q245 714 272 700T315 661T331 607Q331 585 321 567T295 536Q317 523 330 500T343 452Q343 419 326 392T278 348T206 332ZM711 -10Q696 -10 688 -6T677 7T674 26V103H504Q486
103 477 112T468 140Q468 146 469 151T472 164L536 381Q544 406 553 411T581 412Q595 410 602 404T612 388T610 365L554 174H674V377Q674 387 677 394T688 405T713 409Q729 409 737 405T747 392T750 372V24Q750 14 748 6T737 -6T711 -10Z" />
<glyph unicode="&#xbf;" horiz-adv-x="474" d="M240 295Q259 295 267 291T278 277T280 254V159Q280 139 269 128T240 108T202 91T164 68T135 32T124 -27Q124 -82 154 -112T244 -142Q273 -142 295 -133T334 -108T358 -69Q363 -56 368 -49T384 -41T410 -45Q425 -50
432 -56T440 -71T438 -94Q434 -112 424 -130T397 -165T358 -194T307 -214T244 -222Q181 -222 135 -199T65 -132T40 -29Q40 3 48 30T72 79T108 120T153 150T203 170L197 160V256Q197 269 199 277T211 290T240 295ZM239 492Q272 492 282 480T292 438Q292 426 290
414T277 394T239 385Q205 385 196 398T186 439Q186 452 188 464T201 484T239 492Z" />
<glyph unicode="&#xc0;" horiz-adv-x="704" d="M683 54Q691 39 691 29T685 10T663 -6Q639 -17 626 -11T601 18L351 550L103 19Q92 -4 79 -10T40 -5Q25 1 19 10T13 32T23 62L310 661Q316 673 327 680T352 688Q361 688 369 685T383 676T393 660L683 54ZM163 189L197
266H507L540 189H163ZM371 745L220 796Q201 803 197 813T198 845Q205 867 215 872T245 872L397 820Q417 814 421 803T418 771Q411 749 401 744T371 745Z" />
<glyph unicode="&#xc1;" horiz-adv-x="704" d="M683 54Q691 39 691 29T685 10T663 -6Q639 -17 626 -11T601 18L351 550L103 19Q92 -4 79 -10T40 -5Q25 1 19 10T13 32T23 62L310 661Q316 673 327 680T352 688Q361 688 369 685T383 676T393 660L683 54ZM163 189L197
266H507L540 189H163ZM310 733Q294 730 285 736T270 761Q263 782 267 793T291 810L451 864Q466 867 475 861T490 835Q497 814 492 804T467 786L310 733Z" />
<glyph unicode="&#xc2;" horiz-adv-x="704" d="M683 54Q691 39 691 29T685 10T663 -6Q639 -17 626 -11T601 18L351 550L103 19Q92 -4 79 -10T40 -5Q25 1 19 10T13 32T23 62L310 661Q316 673 327 680T352 688Q361 688 369 685T383 676T393 660L683 54ZM163 189L197
266H507L540 189H163ZM349 873Q354 873 357 872T365 869L472 819Q492 812 497 799T492 767Q483 750 473 744T450 744L349 795L249 745Q237 739 227 745T207 769Q197 788 202 799T227 819L333 869Q337 871 340 872T349 873Z" />
<glyph unicode="&#xc3;" horiz-adv-x="704" d="M683 54Q691 39 691 29T685 10T663 -6Q639 -17 626 -11T601 18L351 550L103 19Q92 -4 79 -10T40 -5Q25 1 19 10T13 32T23 62L310 661Q316 673 327 680T352 688Q361 688 369 685T383 676T393 660L683 54ZM163 189L197
266H507L540 189H163ZM294 852Q320 852 336 841T367 818T395 806Q404 806 411 812T426 825T441 838Q447 846 457 847T479 842Q491 834 496 825T498 805Q495 785 480 768T444 741T398 730Q379 730 362 741T329 765T297 777Q282 777 270 769T251 749Q246 741 236
738T211 744Q197 753 194 765T197 790Q206 806 222 820T257 843T294 852Z" />
<glyph unicode="&#xc4;" horiz-adv-x="704" d="M683 54Q691 39 691 29T685 10T663 -6Q639 -17 626 -11T601 18L351 550L103 19Q92 -4 79 -10T40 -5Q25 1 19 10T13 32T23 62L310 661Q316 673 327 680T352 688Q361 688 369 685T383 676T393 660L683 54ZM163 189L197
266H507L540 189H163ZM425 762Q400 762 390 769T378 788T376 812Q376 824 378 835T390 853T425 860Q450 860 460 853T472 835T474 811Q474 800 472 788T460 769T425 762ZM279 762Q254 762 244 769T232 788T230 812Q230 824 232 835T244 853T280 860Q304 860 314
853T326 835T328 811Q328 800 326 788T314 769T279 762Z" />
<glyph unicode="&#xc5;" horiz-adv-x="704" d="M683 54Q691 39 691 29T685 10T663 -6Q639 -17 626 -11T601 18L351 550L103 19Q92 -4 79 -10T40 -5Q25 1 19 10T13 32T23 62L310 661Q316 673 327 680T352 688Q361 688 369 685T383 676T393 660L683 54ZM163 189L197
266H507L540 189H163ZM349 743Q319 743 295 758T255 798T240 853Q240 882 254 907T293 947T348 962Q379 962 404 948T444 909T459 853Q459 823 444 798T404 758T349 743ZM349 797Q372 797 388 814T404 854Q404 877 389 892T348 908Q325 908 310 892T294 854Q294
830 309 814T349 797Z" />
<glyph unicode="&#xc6;" horiz-adv-x="1128" d="M632 -10Q621 -10 611 -4T594 14T587 37V577L108 3Q98 -10 88 -14T67 -13T44 4Q32 19 29 29T30 48T46 69L557 674Q564 683 573 685T595 688H1035Q1049 688 1059 685T1074 673T1080 643Q1080 624 1075 614T1061 601T1040
598H678V387H922Q936 387 946 384T961 371T967 341Q967 322 962 312T946 299T921 296H678V81H1041Q1053 81 1061 78T1075 65T1080 35Q1080 16 1074 6T1058 -7T1034 -10H632ZM226 186L283 262H607V186H226Z" />
<glyph unicode="&#xc7;" horiz-adv-x="667" d="M399 -12Q345 -12 294 4T199 50T122 124T69 224T50 347Q50 411 69 465T121 562T198 633T294 678T400 694Q450 694 486 684T545 663T576 645Q590 637 603 626T617 600Q619 589 616 582T607 567Q599 555 591 550T572
544Q562 544 554 550T533 564Q527 568 509 577T463 594T395 603Q344 603 298 585T216 532T161 450T141 342Q141 281 161 233T216 150T298 98T395 80Q433 80 461 88T508 105T534 120Q545 126 553 132T572 138Q582 138 590 133T607 115Q612 108 615 100T617 81Q616
66 603 56T576 36Q567 32 545 20T486 -2T399 -12ZM368 -163Q346 -163 324 -153T300 -129Q300 -119 308 -109Q316 -98 321 -95T331 -91Q338 -91 348 -98T370 -105Q384 -105 396 -94T408 -67Q408 -50 397 -39T369 -28Q354 -28 345 -35T329 -43Q324 -43 319 -38T307
-24Q303 -16 302 -12T300 -3Q302 5 313 12T339 25T369 30Q395 30 416 18T452 -16T466 -66Q466 -93 453 -115T418 -150T368 -163Z" />
<glyph unicode="&#xc8;" horiz-adv-x="623" d="M121 -10Q101 -10 92 -5T79 11T76 36V643Q76 669 86 678T124 688H526Q540 688 550 685T565 672T570 642Q570 622 565 613T549 600T525 597H166V390H416Q430 390 439 387T454 375T459 347Q459 329 454 320T439 309T414
306H166V80H526Q540 80 550 77T565 65T570 35Q570 15 565 6T549 -7T525 -10H121ZM319 745L168 796Q149 803 145 813T146 845Q153 867 163 872T193 872L345 820Q365 814 369 803T366 771Q359 749 349 744T319 745Z" />
<glyph unicode="&#xc9;" horiz-adv-x="623" d="M121 -10Q101 -10 92 -5T79 11T76 36V643Q76 669 86 678T124 688H526Q540 688 550 685T565 672T570 642Q570 622 565 613T549 600T525 597H166V390H416Q430 390 439 387T454 375T459 347Q459 329 454 320T439 309T414
306H166V80H526Q540 80 550 77T565 65T570 35Q570 15 565 6T549 -7T525 -10H121ZM291 740Q275 737 266 743T251 768Q244 789 248 800T272 817L432 871Q447 874 456 868T471 842Q478 821 473 811T448 793L291 740Z" />
<glyph unicode="&#xca;" horiz-adv-x="623" d="M121 -10Q101 -10 92 -5T79 11T76 36V643Q76 669 86 678T124 688H526Q540 688 550 685T565 672T570 642Q570 622 565 613T549 600T525 597H166V390H416Q430 390 439 387T454 375T459 347Q459 329 454 320T439 309T414
306H166V80H526Q540 80 550 77T565 65T570 35Q570 15 565 6T549 -7T525 -10H121ZM316 873Q321 873 324 872T332 869L439 819Q459 812 464 799T459 767Q450 750 440 744T417 744L316 795L216 745Q204 739 194 745T174 769Q164 788 169 799T194 819L300 869Q304 871
307 872T316 873Z" />
<glyph unicode="&#xcb;" horiz-adv-x="623" d="M121 -10Q101 -10 92 -5T79 11T76 36V643Q76 669 86 678T124 688H526Q540 688 550 685T565 672T570 642Q570 622 565 613T549 600T525 597H166V390H416Q430 390 439 387T454 375T459 347Q459 329 454 320T439 309T414
306H166V80H526Q540 80 550 77T565 65T570 35Q570 15 565 6T549 -7T525 -10H121ZM392 762Q367 762 357 769T345 788T343 812Q343 824 345 835T357 853T392 860Q417 860 427 853T439 835T441 811Q441 800 439 788T427 769T392 762ZM246 762Q221 762 211 769T199
788T197 812Q197 824 199 835T211 853T247 860Q271 860 281 853T293 835T295 811Q295 800 293 788T281 769T246 762Z" />
<glyph unicode="&#xcc;" horiz-adv-x="217" d="M108 -10Q88 -10 79 -5T66 11T63 36V643Q63 657 66 667T79 682T109 688Q129 688 138 683T150 667T153 642V35Q153 21 150 11T138 -4T108 -10ZM108 745L-43 796Q-62 803 -66 813T-65 845Q-58 867 -48 872T-18 872L134
820Q154 814 158 803T155 771Q148 749 138 744T108 745Z" />
<glyph unicode="&#xcd;" horiz-adv-x="217" d="M108 -10Q88 -10 79 -5T66 11T63 36V643Q63 657 66 667T79 682T109 688Q129 688 138 683T150 667T153 642V35Q153 21 150 11T138 -4T108 -10ZM66 733Q50 730 41 736T26 761Q19 782 23 793T47 810L207 864Q222 867
231 861T246 835Q253 814 248 804T223 786L66 733Z" />
<glyph unicode="&#xce;" horiz-adv-x="217" d="M108 -10Q88 -10 79 -5T66 11T63 36V643Q63 657 66 667T79 682T109 688Q129 688 138 683T150 667T153 642V35Q153 21 150 11T138 -4T108 -10ZM105 873Q110 873 113 872T121 869L228 819Q248 812 253 799T248 767Q239
750 229 744T206 744L105 795L5 745Q-7 739 -17 745T-37 769Q-47 788 -42 799T-17 819L89 869Q93 871 96 872T105 873Z" />
<glyph unicode="&#xcf;" horiz-adv-x="217" d="M108 -10Q88 -10 79 -5T66 11T63 36V643Q63 657 66 667T79 682T109 688Q129 688 138 683T150 667T153 642V35Q153 21 150 11T138 -4T108 -10ZM181 762Q156 762 146 769T134 788T132 812Q132 824 134 835T146 853T181
860Q206 860 216 853T228 835T230 811Q230 800 228 788T216 769T181 762ZM35 762Q10 762 0 769T-12 788T-14 812Q-14 824 -12 835T0 853T36 860Q60 860 70 853T82 835T84 811Q84 800 82 788T70 769T35 762Z" />
<glyph unicode="&#xd0;" horiz-adv-x="739" d="M157 -10Q140 -10 131 -4T117 12T113 36V644Q113 657 116 667T130 683T158 689L355 688Q429 688 489 664T593 594T659 485T682 343Q682 262 659 197T593 86T488 15T352 -10H157ZM203 81H355Q428 81 481 112T563 201T592
338Q592 418 563 476T481 565T354 597H203V81ZM66 303Q54 303 45 306T30 318T24 346Q24 365 29 374T44 386T65 389H327Q339 389 348 386T362 374T367 346Q367 327 362 318T348 306T325 303H66Z" />
<glyph unicode="&#xd1;" horiz-adv-x="708" d="M108 -10Q91 -10 82 -4T69 12T65 37V646Q65 659 69 668T83 682T113 688Q135 688 144 684T162 670L538 138V646Q538 659 541 668T555 682T584 688Q602 688 611 682T624 666T628 642V36Q628 23 624 13T609 -4T579 -10Q563
-10 553 -6T533 9L155 537V36Q155 23 151 13T137 -4T108 -10ZM299 852Q325 852 341 841T372 818T400 806Q409 806 416 812T431 825T446 838Q452 846 462 847T484 842Q496 834 501 825T503 805Q500 785 485 768T449 741T403 730Q384 730 367 741T334 765T302 777Q287
777 275 769T256 749Q251 741 241 738T216 744Q202 753 199 765T202 790Q211 806 227 820T262 843T299 852Z" />
<glyph unicode="&#xd2;" horiz-adv-x="732" d="M371 -17Q300 -17 238 10T128 85T53 197T26 333Q26 407 52 472T124 587T232 664T362 692Q434 692 496 665T605 590T679 476T706 337Q706 264 680 201T607 88T501 11T371 -17ZM365 74Q417 74 462 94T542 150T595 234T615
338Q615 392 596 439T542 523T462 581T366 602Q315 602 270 581T191 524T137 440T117 337Q117 283 136 235T190 151T269 95T365 74ZM369 745L218 796Q199 803 195 813T196 845Q203 867 213 872T243 872L395 820Q415 814 419 803T416 771Q409 749 399 744T369 745Z"
/>
<glyph unicode="&#xd3;" horiz-adv-x="732" d="M371 -17Q300 -17 238 10T128 85T53 197T26 333Q26 407 52 472T124 587T232 664T362 692Q434 692 496 665T605 590T679 476T706 337Q706 264 680 201T607 88T501 11T371 -17ZM365 74Q417 74 462 94T542 150T595 234T615
338Q615 392 596 439T542 523T462 581T366 602Q315 602 270 581T191 524T137 440T117 337Q117 283 136 235T190 151T269 95T365 74ZM327 733Q311 730 302 736T287 761Q280 782 284 793T308 810L468 864Q483 867 492 861T507 835Q514 814 509 804T484 786L327 733Z"
/>
<glyph unicode="&#xd4;" horiz-adv-x="732" d="M371 -17Q300 -17 238 10T128 85T53 197T26 333Q26 407 52 472T124 587T232 664T362 692Q434 692 496 665T605 590T679 476T706 337Q706 264 680 201T607 88T501 11T371 -17ZM365 74Q417 74 462 94T542 150T595 234T615
338Q615 392 596 439T542 523T462 581T366 602Q315 602 270 581T191 524T137 440T117 337Q117 283 136 235T190 151T269 95T365 74ZM366 873Q371 873 374 872T382 869L489 819Q509 812 514 799T509 767Q500 750 490 744T467 744L366 795L266 745Q254 739 244 745T224
769Q214 788 219 799T244 819L350 869Q354 871 357 872T366 873Z" />
<glyph unicode="&#xd5;" horiz-adv-x="732" d="M371 -17Q300 -17 238 10T128 85T53 197T26 333Q26 407 52 472T124 587T232 664T362 692Q434 692 496 665T605 590T679 476T706 337Q706 264 680 201T607 88T501 11T371 -17ZM365 74Q417 74 462 94T542 150T595 234T615
338Q615 392 596 439T542 523T462 581T366 602Q315 602 270 581T191 524T137 440T117 337Q117 283 136 235T190 151T269 95T365 74ZM311 852Q337 852 353 841T384 818T412 806Q421 806 428 812T443 825T458 838Q464 846 474 847T496 842Q508 834 513 825T515 805Q512
785 497 768T461 741T415 730Q396 730 379 741T346 765T314 777Q299 777 287 769T268 749Q263 741 253 738T228 744Q214 753 211 765T214 790Q223 806 239 820T274 843T311 852Z" />
<glyph unicode="&#xd6;" horiz-adv-x="732" d="M371 -17Q300 -17 238 10T128 85T53 197T26 333Q26 407 52 472T124 587T232 664T362 692Q434 692 496 665T605 590T679 476T706 337Q706 264 680 201T607 88T501 11T371 -17ZM365 74Q417 74 462 94T542 150T595 234T615
338Q615 392 596 439T542 523T462 581T366 602Q315 602 270 581T191 524T137 440T117 337Q117 283 136 235T190 151T269 95T365 74ZM442 762Q417 762 407 769T395 788T393 812Q393 824 395 835T407 853T442 860Q467 860 477 853T489 835T491 811Q491 800 489 788T477
769T442 762ZM296 762Q271 762 261 769T249 788T247 812Q247 824 249 835T261 853T297 860Q321 860 331 853T343 835T345 811Q345 800 343 788T331 769T296 762Z" />
<glyph unicode="&#xd7;" horiz-adv-x="453" d="M287 253L397 143Q409 133 413 123T414 104T399 83Q387 71 378 67T359 66T338 81L227 193L116 83Q106 71 96 67T77 66T55 82Q44 93 40 102T40 122T54 143L165 253L54 365Q43 376 40 385T40 404T55 425Q67 437 76
440T96 440T116 425L227 315L338 426Q349 437 358 440T377 440T399 425Q410 413 413 404T413 385T398 364L287 253Z" />
<glyph unicode="&#xd8;" horiz-adv-x="737" d="M374 -17Q302 -17 240 10T130 85T56 197T29 333Q29 407 55 472T127 587T234 664T365 692Q436 692 498 665T608 590T681 476T708 337Q708 264 682 201T610 88T503 11T374 -17ZM368 74Q420 74 465 94T545 150T598 234T617
338Q617 392 598 439T545 523T465 581T369 602Q318 602 273 581T193 524T139 440T119 337Q119 283 139 235T193 151T272 95T368 74ZM190 -31Q168 -20 164 -8T170 26L485 687Q496 709 508 713T543 706Q566 695 569 683T562 648L249 -12Q239 -33 227 -37T190 -31Z"
/>
<glyph unicode="&#xd9;" horiz-adv-x="713" d="M355 -13Q288 -13 236 10T147 76T91 177T72 305V643Q72 657 75 667T88 682T118 688Q138 688 148 683T161 667T164 642V305Q164 238 186 187T251 107T358 77Q418 77 461 105T527 184T550 306V649Q550 661 553 669T567
683T597 688Q616 688 625 683T638 667T641 642V303Q641 233 622 176T567 76T477 10T355 -13ZM358 745L207 796Q188 803 184 813T185 845Q192 867 202 872T232 872L384 820Q404 814 408 803T405 771Q398 749 388 744T358 745Z" />
<glyph unicode="&#xda;" horiz-adv-x="713" d="M355 -13Q288 -13 236 10T147 76T91 177T72 305V643Q72 657 75 667T88 682T118 688Q138 688 148 683T161 667T164 642V305Q164 238 186 187T251 107T358 77Q418 77 461 105T527 184T550 306V649Q550 661 553 669T567
683T597 688Q616 688 625 683T638 667T641 642V303Q641 233 622 176T567 76T477 10T355 -13ZM316 733Q300 730 291 736T276 761Q269 782 273 793T297 810L457 864Q472 867 481 861T496 835Q503 814 498 804T473 786L316 733Z" />
<glyph unicode="&#xdb;" horiz-adv-x="713" d="M355 -13Q288 -13 236 10T147 76T91 177T72 305V643Q72 657 75 667T88 682T118 688Q138 688 148 683T161 667T164 642V305Q164 238 186 187T251 107T358 77Q418 77 461 105T527 184T550 306V649Q550 661 553 669T567
683T597 688Q616 688 625 683T638 667T641 642V303Q641 233 622 176T567 76T477 10T355 -13ZM355 873Q360 873 363 872T371 869L478 819Q498 812 503 799T498 767Q489 750 479 744T456 744L355 795L255 745Q243 739 233 745T213 769Q203 788 208 799T233 819L339
869Q343 871 346 872T355 873Z" />
<glyph unicode="&#xdc;" horiz-adv-x="713" d="M355 -13Q288 -13 236 10T147 76T91 177T72 305V643Q72 657 75 667T88 682T118 688Q138 688 148 683T161 667T164 642V305Q164 238 186 187T251 107T358 77Q418 77 461 105T527 184T550 306V649Q550 661 553 669T567
683T597 688Q616 688 625 683T638 667T641 642V303Q641 233 622 176T567 76T477 10T355 -13ZM431 762Q406 762 396 769T384 788T382 812Q382 824 384 835T396 853T431 860Q456 860 466 853T478 835T480 811Q480 800 478 788T466 769T431 762ZM285 762Q260 762 250
769T238 788T236 812Q236 824 238 835T250 853T286 860Q310 860 320 853T332 835T334 811Q334 800 332 788T320 769T285 762Z" />
<glyph unicode="&#xdd;" horiz-adv-x="638" d="M587 685Q608 670 610 657T600 626L365 269V34Q365 21 362 11T350 -5T320 -11Q300 -11 291 -6T278 11T274 36V270L38 624Q26 642 29 655T53 684Q68 694 78 696T98 694T115 674L319 354L524 674Q533 688 541 693T561
697T587 685ZM280 733Q264 730 255 736T240 761Q233 782 237 793T261 810L421 864Q436 867 445 861T460 835Q467 814 462 804T437 786L280 733Z" />
<glyph unicode="&#xde;" horiz-adv-x="593" d="M111 -10Q91 -10 82 -5T69 11T66 36V643Q66 657 69 667T82 682T112 688Q132 688 141 683T154 667T157 642V568H330Q373 568 413 552T485 505T536 433T555 341Q555 291 536 250T485 178T413 132T329 116H157V35Q157
21 154 11T141 -4T111 -10ZM157 207H330Q366 207 396 224T446 272T465 342Q465 380 447 411T398 459T329 477H157V207Z" />
<glyph unicode="&#xdf;" horiz-adv-x="584" d="M107 -25Q88 -25 79 -20T67 -5T63 19V471Q63 542 87 589T160 661T279 686Q336 686 373 666T429 616T448 554Q448 513 436 488T409 444T381 410T369 371Q369 348 386 334T428 308T479 279T522 233T539 157Q539 121
527 92T491 41T437 9T367 -3Q335 -3 306 4T252 26Q236 33 232 42T230 70Q233 84 239 92T254 105T273 106Q285 102 297 95T324 83T359 77Q384 77 406 85T441 113T454 163Q454 192 437 210T395 241T344 270T301 307T284 360Q284 397 295 419T322 457T349 494T361
546Q361 563 352 577T324 599T280 607Q241 607 216 597T177 570T157 530T151 480V17Q151 4 148 -5T135 -20T107 -25Z" />
<glyph unicode="&#xe0;" horiz-adv-x="574" d="M475 -9Q453 -9 444 0T432 28L436 78Q426 62 405 42T350 6T267 -10Q219 -10 178 9T105 62T56 140T38 234Q38 283 55 326T105 403T178 455T267 474Q311 474 342 463T395 433T435 391L433 433Q432 455 442 464T476
474Q495 474 503 468T515 451T518 424V38Q518 24 515 13T503 -3T475 -9ZM282 74Q322 74 355 95T408 151T428 233Q428 280 408 315T354 371T280 392Q233 392 199 371T144 313T124 231Q124 186 144 151T199 95T282 74ZM304 545L153 596Q134 603 130 613T131 645Q138
667 148 672T178 672L330 620Q350 614 354 603T351 571Q344 549 334 544T304 545Z" />
<glyph unicode="&#xe1;" horiz-adv-x="574" d="M475 -9Q453 -9 444 0T432 28L436 78Q426 62 405 42T350 6T267 -10Q219 -10 178 9T105 62T56 140T38 234Q38 283 55 326T105 403T178 455T267 474Q311 474 342 463T395 433T435 391L433 433Q432 455 442 464T476
474Q495 474 503 468T515 451T518 424V38Q518 24 515 13T503 -3T475 -9ZM282 74Q322 74 355 95T408 151T428 233Q428 280 408 315T354 371T280 392Q233 392 199 371T144 313T124 231Q124 186 144 151T199 95T282 74ZM258 540Q242 537 233 543T218 568Q211 589 215
600T239 617L399 671Q414 674 423 668T438 642Q445 621 440 611T415 593L258 540Z" />
<glyph unicode="&#xe2;" horiz-adv-x="574" d="M475 -9Q453 -9 444 0T432 28L436 78Q426 62 405 42T350 6T267 -10Q219 -10 178 9T105 62T56 140T38 234Q38 283 55 326T105 403T178 455T267 474Q311 474 342 463T395 433T435 391L433 433Q432 455 442 464T476
474Q495 474 503 468T515 451T518 424V38Q518 24 515 13T503 -3T475 -9ZM282 74Q322 74 355 95T408 151T428 233Q428 280 408 315T354 371T280 392Q233 392 199 371T144 313T124 231Q124 186 144 151T199 95T282 74ZM281 673Q286 673 289 672T297 669L404 619Q424
612 429 599T424 567Q415 550 405 544T382 544L281 595L181 545Q169 539 159 545T139 569Q129 588 134 599T159 619L265 669Q269 671 272 672T281 673Z" />
<glyph unicode="&#xe3;" horiz-adv-x="574" d="M475 -9Q453 -9 444 0T432 28L436 78Q426 62 405 42T350 6T267 -10Q219 -10 178 9T105 62T56 140T38 234Q38 283 55 326T105 403T178 455T267 474Q311 474 342 463T395 433T435 391L433 433Q432 455 442 464T476
474Q495 474 503 468T515 451T518 424V38Q518 24 515 13T503 -3T475 -9ZM282 74Q322 74 355 95T408 151T428 233Q428 280 408 315T354 371T280 392Q233 392 199 371T144 313T124 231Q124 186 144 151T199 95T282 74ZM221 672Q247 672 263 661T294 638T322 626Q331
626 338 632T353 645T368 658Q374 666 384 667T406 662Q418 654 423 645T425 625Q422 605 407 588T371 561T325 550Q306 550 289 561T256 585T224 597Q209 597 197 589T178 569Q173 561 163 558T138 564Q124 573 121 585T124 610Q133 626 149 640T184 663T221 672Z"
/>
<glyph unicode="&#xe4;" horiz-adv-x="574" d="M475 -9Q453 -9 444 0T432 28L436 78Q426 62 405 42T350 6T267 -10Q219 -10 178 9T105 62T56 140T38 234Q38 283 55 326T105 403T178 455T267 474Q311 474 342 463T395 433T435 391L433 433Q432 455 442 464T476
474Q495 474 503 468T515 451T518 424V38Q518 24 515 13T503 -3T475 -9ZM282 74Q322 74 355 95T408 151T428 233Q428 280 408 315T354 371T280 392Q233 392 199 371T144 313T124 231Q124 186 144 151T199 95T282 74ZM359 562Q334 562 324 569T312 588T310 612Q310
624 312 635T324 653T359 660Q384 660 394 653T406 635T408 611Q408 600 406 588T394 569T359 562ZM213 562Q188 562 178 569T166 588T164 612Q164 624 166 635T178 653T214 660Q238 660 248 653T260 635T262 611Q262 600 260 588T248 569T213 562Z" />
<glyph unicode="&#xe5;" horiz-adv-x="574" d="M475 -9Q453 -9 444 0T432 28L436 78Q426 62 405 42T350 6T267 -10Q219 -10 178 9T105 62T56 140T38 234Q38 283 55 326T105 403T178 455T267 474Q311 474 342 463T395 433T435 391L433 433Q432 455 442 464T476
474Q495 474 503 468T515 451T518 424V38Q518 24 515 13T503 -3T475 -9ZM282 74Q322 74 355 95T408 151T428 233Q428 280 408 315T354 371T280 392Q233 392 199 371T144 313T124 231Q124 186 144 151T199 95T282 74ZM282 521Q252 521 228 536T188 576T173 631Q173
660 187 685T226 725T281 740Q312 740 337 726T377 687T392 631Q392 601 377 576T337 536T282 521ZM282 575Q305 575 321 592T337 632Q337 655 322 670T281 686Q258 686 243 670T227 632Q227 608 242 592T282 575Z" />
<glyph unicode="&#xe6;" horiz-adv-x="884" d="M259 474Q294 474 327 464T388 431T435 373Q457 405 488 427T558 462T641 474Q690 474 729 459T797 419T840 361T855 297Q855 246 831 225T772 203H484Q484 171 498 146T535 102T587 75T645 65Q679 65 702 69T740
80T767 93T789 102Q798 104 806 101T820 88Q825 80 827 73T830 58Q830 43 805 27T737 -2T644 -14Q596 -14 556 -1T485 37T432 96Q415 66 387 41T314 1T201 -14Q123 -14 77 21T30 117Q30 158 52 187T116 234T216 251Q235 251 255 250T294 245T330 237T363 227T391
216Q390 271 378 311T339 372T263 394Q246 394 228 391T193 383T162 369T137 350Q116 328 99 327T67 344Q50 363 53 377T77 411Q102 432 129 446T188 467T259 474ZM484 264H734Q752 264 761 269T771 295Q771 323 754 345T708 382T641 396Q600 396 564 379T506 332T484
264ZM224 54Q253 54 280 61T331 81T370 113T393 155Q377 164 352 172T296 185T238 190Q191 190 163 181T123 157T111 123Q111 91 138 73T224 54Z" />
<glyph unicode="&#xe7;" horiz-adv-x="515" d="M291 -12Q239 -12 194 5T114 54T60 130T40 232Q40 289 59 333T113 410T192 459T289 476Q323 476 356 466T414 439T451 404Q461 391 465 383T466 363Q462 355 455 349T441 338Q423 324 405 334Q394 345 381 354T352
372T322 384T289 389Q242 389 206 370T151 315T131 232Q131 185 150 150T205 95T287 75Q308 75 327 80T364 95T392 116Q402 123 409 128T426 133Q434 133 443 127T462 107Q470 98 471 88T468 69T452 51Q436 35 410 21T352 -3T291 -12ZM276 -178Q254 -178 232 -168T208
-144Q208 -134 216 -124Q224 -113 229 -110T239 -106Q246 -106 256 -113T278 -120Q292 -120 304 -109T316 -82Q316 -65 305 -54T277 -43Q262 -43 253 -50T237 -58Q232 -58 227 -53T215 -39Q211 -31 210 -27T208 -18Q210 -10 221 -3T247 10T277 15Q303 15 324 3T360
-31T374 -81Q374 -108 361 -130T326 -165T276 -178Z" />
<glyph unicode="&#xe8;" horiz-adv-x="540" d="M291 -15Q231 -15 184 5T105 59T55 139T38 236Q38 305 70 359T158 444T288 476Q338 476 377 461T445 419T488 361T503 297Q503 246 479 226T420 205H131Q130 161 154 130T216 81T292 64Q320 64 340 67T375 75T401
85T420 95T437 102Q446 104 454 101T468 87Q474 79 476 72T478 57Q478 43 454 26T388 -3T291 -15ZM131 264H382Q401 264 410 269T420 296Q420 324 403 346T357 383T289 397Q245 397 209 380T151 332T131 264ZM292 545L141 596Q122 603 118 613T119 645Q126 667
136 672T166 672L318 620Q338 614 342 603T339 571Q332 549 322 544T292 545Z" />
<glyph unicode="&#xe9;" horiz-adv-x="540" d="M291 -15Q231 -15 184 5T105 59T55 139T38 236Q38 305 70 359T158 444T288 476Q338 476 377 461T445 419T488 361T503 297Q503 246 479 226T420 205H131Q130 161 154 130T216 81T292 64Q320 64 340 67T375 75T401
85T420 95T437 102Q446 104 454 101T468 87Q474 79 476 72T478 57Q478 43 454 26T388 -3T291 -15ZM131 264H382Q401 264 410 269T420 296Q420 324 403 346T357 383T289 397Q245 397 209 380T151 332T131 264ZM246 540Q230 537 221 543T206 568Q199 589 203 600T227
617L387 671Q402 674 411 668T426 642Q433 621 428 611T403 593L246 540Z" />
<glyph unicode="&#xea;" horiz-adv-x="540" d="M291 -15Q231 -15 184 5T105 59T55 139T38 236Q38 305 70 359T158 444T288 476Q338 476 377 461T445 419T488 361T503 297Q503 246 479 226T420 205H131Q130 161 154 130T216 81T292 64Q320 64 340 67T375 75T401
85T420 95T437 102Q446 104 454 101T468 87Q474 79 476 72T478 57Q478 43 454 26T388 -3T291 -15ZM131 264H382Q401 264 410 269T420 296Q420 324 403 346T357 383T289 397Q245 397 209 380T151 332T131 264ZM269 673Q274 673 277 672T285 669L392 619Q412 612
417 599T412 567Q403 550 393 544T370 544L269 595L169 545Q157 539 147 545T127 569Q117 588 122 599T147 619L253 669Q257 671 260 672T269 673Z" />
<glyph unicode="&#xeb;" horiz-adv-x="540" d="M291 -15Q231 -15 184 5T105 59T55 139T38 236Q38 305 70 359T158 444T288 476Q338 476 377 461T445 419T488 361T503 297Q503 246 479 226T420 205H131Q130 161 154 130T216 81T292 64Q320 64 340 67T375 75T401
85T420 95T437 102Q446 104 454 101T468 87Q474 79 476 72T478 57Q478 43 454 26T388 -3T291 -15ZM131 264H382Q401 264 410 269T420 296Q420 324 403 346T357 383T289 397Q245 397 209 380T151 332T131 264ZM346 562Q321 562 311 569T299 588T297 612Q297 624
299 635T311 653T346 660Q371 660 381 653T393 635T395 611Q395 600 393 588T381 569T346 562ZM200 562Q175 562 165 569T153 588T151 612Q151 624 153 635T165 653T201 660Q225 660 235 653T247 635T249 611Q249 600 247 588T235 569T200 562Z" />
<glyph unicode="&#xec;" horiz-adv-x="200" d="M99 -10Q81 -10 71 -5T59 11T56 35V430Q56 444 59 454T71 469T100 474Q120 474 129 469T141 453T144 428V34Q144 20 141 10T129 -5T99 -10ZM378 545L227 596Q208 603 204 613T205 645Q212 667 222 672T252 672L404
620Q424 614 428 603T425 571Q418 549 408 544T378 545Z" />
<glyph unicode="&#xed;" horiz-adv-x="200" d="M99 -10Q81 -10 71 -5T59 11T56 35V430Q56 444 59 454T71 469T100 474Q120 474 129 469T141 453T144 428V34Q144 20 141 10T129 -5T99 -10ZM332 796Q316 793 307 799T292 824Q285 845 289 856T313 873L473 927Q488
930 497 924T512 898Q519 877 514 867T489 849L332 796Z" />
<glyph unicode="&#xee;" horiz-adv-x="200" d="M99 -10Q81 -10 71 -5T59 11T56 35V430Q56 444 59 454T71 469T100 474Q120 474 129 469T141 453T144 428V34Q144 20 141 10T129 -5T99 -10ZM355 673Q360 673 363 672T371 669L478 619Q498 612 503 599T498 567Q489
550 479 544T456 544L355 595L255 545Q243 539 233 545T213 569Q203 588 208 599T233 619L339 669Q343 671 346 672T355 673Z" />
<glyph unicode="&#xef;" horiz-adv-x="200" d="M99 -10Q81 -10 71 -5T59 11T56 35V430Q56 444 59 454T71 469T100 474Q120 474 129 469T141 453T144 428V34Q144 20 141 10T129 -5T99 -10ZM432 562Q407 562 397 569T385 588T383 612Q383 624 385 635T397 653T432
660Q457 660 467 653T479 635T481 611Q481 600 479 588T467 569T432 562ZM286 562Q261 562 251 569T239 588T237 612Q237 624 239 635T251 653T287 660Q311 660 321 653T333 635T335 611Q335 600 333 588T321 569T286 562Z" />
<glyph unicode="&#xf0;" horiz-adv-x="580" d="M353 728Q364 721 367 714T370 699T361 680L336 649Q385 620 421 580T480 487T515 370T525 230Q524 178 505 134T453 57T377 6T282 -13Q234 -13 191 5T115 57T63 135T44 235Q44 288 63 332T114 410T189 461T278 479Q326
479 364 464T427 421Q408 481 375 522T291 589L252 538Q245 528 238 524T223 522T205 530Q193 538 188 545T185 560T194 578L224 617Q209 623 197 627T174 639Q162 644 161 654T166 678Q172 693 182 697T206 699Q218 698 229 695T252 688T273 680L305 722Q313 733
319 736T334 739T353 728ZM289 72Q330 72 364 92T418 149T439 233Q439 281 420 318T366 376T288 398Q243 398 208 376T151 317T130 233Q130 185 151 149T209 93T289 72Z" />
<glyph unicode="&#xf1;" horiz-adv-x="557" d="M107 -9Q88 -9 79 -4T67 12T64 36V433Q64 446 67 455T79 469T108 474Q123 474 131 471T143 461T148 448T149 435L147 389Q157 406 172 421T207 449T250 469T301 476Q345 476 382 461T445 416T486 345T501 252V35Q501
21 499 11T487 -4T458 -9Q438 -9 429 -4T416 12T413 36V253Q413 295 399 326T357 374T286 392Q245 392 215 375T168 326T151 253V35Q151 21 148 11T136 -4T107 -9ZM225 672Q251 672 267 661T298 638T326 626Q335 626 342 632T357 645T372 658Q378 666 388 667T410
662Q422 654 427 645T429 625Q426 605 411 588T375 561T329 550Q310 550 293 561T260 585T228 597Q213 597 201 589T182 569Q177 561 167 558T142 564Q128 573 125 585T128 610Q137 626 153 640T188 663T225 672Z" />
<glyph unicode="&#xf2;" horiz-adv-x="560" d="M282 -16Q233 -16 189 3T109 55T54 134T34 232Q34 284 53 328T106 407T184 460T280 480Q349 480 404 448T493 359T526 233Q526 178 506 133T452 54T374 3T282 -16ZM280 71Q322 71 358 92T416 150T438 234Q438 281
418 317T361 373T279 393Q235 393 200 372T143 315T121 233Q121 185 143 149T201 92T280 71ZM302 545L151 596Q132 603 128 613T129 645Q136 667 146 672T176 672L328 620Q348 614 352 603T349 571Q342 549 332 544T302 545Z" />
<glyph unicode="&#xf3;" horiz-adv-x="560" d="M282 -16Q233 -16 189 3T109 55T54 134T34 232Q34 284 53 328T106 407T184 460T280 480Q349 480 404 448T493 359T526 233Q526 178 506 133T452 54T374 3T282 -16ZM280 71Q322 71 358 92T416 150T438 234Q438 281
418 317T361 373T279 393Q235 393 200 372T143 315T121 233Q121 185 143 149T201 92T280 71ZM256 540Q240 537 231 543T216 568Q209 589 213 600T237 617L397 671Q412 674 421 668T436 642Q443 621 438 611T413 593L256 540Z" />
<glyph unicode="&#xf4;" horiz-adv-x="560" d="M282 -16Q233 -16 189 3T109 55T54 134T34 232Q34 284 53 328T106 407T184 460T280 480Q349 480 404 448T493 359T526 233Q526 178 506 133T452 54T374 3T282 -16ZM280 71Q322 71 358 92T416 150T438 234Q438 281
418 317T361 373T279 393Q235 393 200 372T143 315T121 233Q121 185 143 149T201 92T280 71ZM279 673Q284 673 287 672T295 669L402 619Q422 612 427 599T422 567Q413 550 403 544T380 544L279 595L179 545Q167 539 157 545T137 569Q127 588 132 599T157 619L263
669Q267 671 270 672T279 673Z" />
<glyph unicode="&#xf5;" horiz-adv-x="560" d="M282 -16Q233 -16 189 3T109 55T54 134T34 232Q34 284 53 328T106 407T184 460T280 480Q349 480 404 448T493 359T526 233Q526 178 506 133T452 54T374 3T282 -16ZM280 71Q322 71 358 92T416 150T438 234Q438 281
418 317T361 373T279 393Q235 393 200 372T143 315T121 233Q121 185 143 149T201 92T280 71ZM219 672Q245 672 261 661T292 638T320 626Q329 626 336 632T351 645T366 658Q372 666 382 667T404 662Q416 654 421 645T423 625Q420 605 405 588T369 561T323 550Q304
550 287 561T254 585T222 597Q207 597 195 589T176 569Q171 561 161 558T136 564Q122 573 119 585T122 610Q131 626 147 640T182 663T219 672Z" />
<glyph unicode="&#xf6;" horiz-adv-x="560" d="M282 -16Q233 -16 189 3T109 55T54 134T34 232Q34 284 53 328T106 407T184 460T280 480Q349 480 404 448T493 359T526 233Q526 178 506 133T452 54T374 3T282 -16ZM280 71Q322 71 358 92T416 150T438 234Q438 281
418 317T361 373T279 393Q235 393 200 372T143 315T121 233Q121 185 143 149T201 92T280 71ZM357 562Q332 562 322 569T310 588T308 612Q308 624 310 635T322 653T357 660Q382 660 392 653T404 635T406 611Q406 600 404 588T392 569T357 562ZM211 562Q186 562 176
569T164 588T162 612Q162 624 164 635T176 653T212 660Q236 660 246 653T258 635T260 611Q260 600 258 588T246 569T211 562Z" />
<glyph unicode="&#xf7;" horiz-adv-x="464" d="M78 217Q66 217 57 219T43 231T37 258Q37 276 42 285T57 297T78 300H386Q398 300 407 297T421 285T426 258Q426 240 421 231T407 220T384 217H78ZM229 38Q201 38 190 49T179 87Q179 117 190 128T230 139Q258 139
269 128T280 88Q280 60 269 49T229 38ZM229 377Q201 377 190 388T179 426Q179 456 190 467T230 478Q258 478 269 467T280 427Q280 399 269 388T229 377Z" />
<glyph unicode="&#xf8;" horiz-adv-x="560" d="M421 411L343 449L397 556Q408 577 420 580T455 573Q470 566 476 558T482 540T474 516L421 411ZM111 -103Q91 -93 86 -80T92 -47L146 60L221 14L170 -84Q160 -107 147 -110T111 -103ZM282 -16Q233 -16 189 3T109
55T54 134T34 232Q34 284 53 328T106 407T184 460T280 480Q349 480 404 448T493 359T526 233Q526 178 506 133T452 54T374 3T282 -16ZM280 71Q322 71 358 92T416 150T438 234Q438 281 418 317T361 373T279 393Q235 393 200 372T143 315T121 233Q121 185 143 149T201
92T280 71Z" />
<glyph unicode="&#xf9;" horiz-adv-x="543" d="M255 -11Q211 -11 174 5T108 50T65 120T49 213V430Q49 444 52 454T64 469T93 475Q112 475 121 469T134 453T137 429V212Q137 171 151 140T193 91T263 74Q305 74 335 91T382 139T399 212V430Q399 444 402 454T414
469T443 475Q462 475 471 469T483 453T486 429V32Q486 20 484 11T472 -4T443 -9Q429 -9 421 -6T408 2T403 13T401 27L405 70Q395 58 381 44T349 18T307 -3T255 -11ZM293 545L142 596Q123 603 119 613T120 645Q127 667 137 672T167 672L319 620Q339 614 343 603T340
571Q333 549 323 544T293 545Z" />
<glyph unicode="&#xfa;" horiz-adv-x="543" d="M255 -11Q211 -11 174 5T108 50T65 120T49 213V430Q49 444 52 454T64 469T93 475Q112 475 121 469T134 453T137 429V212Q137 171 151 140T193 91T263 74Q305 74 335 91T382 139T399 212V430Q399 444 402 454T414
469T443 475Q462 475 471 469T483 453T486 429V32Q486 20 484 11T472 -4T443 -9Q429 -9 421 -6T408 2T403 13T401 27L405 70Q395 58 381 44T349 18T307 -3T255 -11ZM247 540Q231 537 222 543T207 568Q200 589 204 600T228 617L388 671Q403 674 412 668T427 642Q434
621 429 611T404 593L247 540Z" />
<glyph unicode="&#xfb;" horiz-adv-x="543" d="M255 -11Q211 -11 174 5T108 50T65 120T49 213V430Q49 444 52 454T64 469T93 475Q112 475 121 469T134 453T137 429V212Q137 171 151 140T193 91T263 74Q305 74 335 91T382 139T399 212V430Q399 444 402 454T414
469T443 475Q462 475 471 469T483 453T486 429V32Q486 20 484 11T472 -4T443 -9Q429 -9 421 -6T408 2T403 13T401 27L405 70Q395 58 381 44T349 18T307 -3T255 -11ZM270 673Q275 673 278 672T286 669L393 619Q413 612 418 599T413 567Q404 550 394 544T371 544L270
595L170 545Q158 539 148 545T128 569Q118 588 123 599T148 619L254 669Q258 671 261 672T270 673Z" />
<glyph unicode="&#xfc;" horiz-adv-x="543" d="M255 -11Q211 -11 174 5T108 50T65 120T49 213V430Q49 444 52 454T64 469T93 475Q112 475 121 469T134 453T137 429V212Q137 171 151 140T193 91T263 74Q305 74 335 91T382 139T399 212V430Q399 444 402 454T414
469T443 475Q462 475 471 469T483 453T486 429V32Q486 20 484 11T472 -4T443 -9Q429 -9 421 -6T408 2T403 13T401 27L405 70Q395 58 381 44T349 18T307 -3T255 -11ZM347 562Q322 562 312 569T300 588T298 612Q298 624 300 635T312 653T347 660Q372 660 382 653T394
635T396 611Q396 600 394 588T382 569T347 562ZM201 562Q176 562 166 569T154 588T152 612Q152 624 154 635T166 653T202 660Q226 660 236 653T248 635T250 611Q250 600 248 588T236 569T201 562Z" />
<glyph unicode="&#xfd;" horiz-adv-x="526" d="M170 -204Q146 -194 142 -181T149 -145L414 450Q425 473 437 478T473 474Q497 463 500 450T494 415L227 -183Q217 -206 205 -210T170 -204ZM269 54L40 407Q27 427 30 440T53 467Q75 481 88 478T116 454L310 149L269
54ZM243 540Q227 537 218 543T203 568Q196 589 200 600T224 617L384 671Q399 674 408 668T423 642Q430 621 425 611T400 593L243 540Z" />
<glyph unicode="&#xfe;" horiz-adv-x="570" d="M307 -6Q258 -6 218 12T150 62T107 139T92 236Q92 288 107 332T151 408T218 458T307 476Q353 476 393 458T464 408T512 330T530 233Q530 181 513 137T465 61T394 12T307 -6ZM99 -206Q81 -206 72 -201T59 -185T56
-161V655Q56 670 58 680T70 695T99 701Q118 701 127 695T139 679T143 656V-161Q143 -175 140 -185T128 -200T99 -206ZM294 76Q337 76 370 96T424 153T444 235Q444 282 424 317T371 371T294 391Q252 391 219 371T166 316T146 235Q146 189 165 153T219 97T294 76Z"
/>
<glyph unicode="&#xff;" horiz-adv-x="526" d="M170 -204Q146 -194 142 -181T149 -145L414 450Q425 473 437 478T473 474Q497 463 500 450T494 415L227 -183Q217 -206 205 -210T170 -204ZM269 54L40 407Q27 427 30 440T53 467Q75 481 88 478T116 454L310 149L269
54ZM344 562Q319 562 309 569T297 588T295 612Q295 624 297 635T309 653T344 660Q369 660 379 653T391 635T393 611Q393 600 391 588T379 569T344 562ZM198 562Q173 562 163 569T151 588T149 612Q149 624 151 635T163 653T199 660Q223 660 233 653T245 635T247
611Q247 600 245 588T233 569T198 562Z" />
<glyph unicode="&#x2013;" horiz-adv-x="556" d="M49 212Q37 212 28 215T13 227T8 255Q8 275 13 284T27 296T48 299H456Q469 299 478 296T492 284T497 255Q497 236 492 227T478 215T455 212H49Z" />
<glyph unicode="&#x2014;" horiz-adv-x="686" d="M49 212Q37 212 28 215T13 227T8 255Q8 275 13 284T27 296T48 299H585Q597 299 606 296T620 284T625 255Q625 236 620 227T606 215T583 212H49Z" />
<glyph unicode="&#x2018;" horiz-adv-x="166" d="M120 689Q120 689 123 688T129 683T132 667Q132 651 127 647T121 643Q120 643 110 634T96 603Q105 602 111 599T122 591Q129 584 130 573T132 551Q132 538 130 526T116 507T79 499Q49 499 37 511Q29 518 28 529T27
552Q27 558 27 563T28 574Q31 605 44 631T76 673T120 689Z" />
<glyph unicode="&#x2019;" horiz-adv-x="157" d="M42 425Q42 425 39 426T33 431T30 447Q30 463 34 467T41 471Q41 472 52 480T65 511Q57 512 51 515T40 523Q32 530 31 541T30 563Q30 576 32 588T45 607T83 615Q113 615 125 603Q132 596 133 585T135 562Q135 556
135 551T133 540Q131 510 118 484T85 441T42 425Z" />
<glyph unicode="&#x201a;" horiz-adv-x="167" d="M297 -90Q297 -90 294 -89T288 -84T285 -68Q285 -52 289 -48T296 -44Q296 -43 307 -35T320 -4Q312 -3 306 0T295 8Q287 15 286 26T285 48Q285 61 287 73T300 92T338 100Q368 100 380 88Q387 81 388 70T390 47Q390
41 390 36T388 25Q386 -5 373 -31T340 -74T297 -90Z" />
<glyph unicode="&#x201c;" horiz-adv-x="294" d="M244 689Q244 689 247 688T253 683T256 667Q256 651 251 647T245 643Q244 643 234 634T220 603Q229 602 235 599T246 591Q253 584 254 573T256 551Q256 538 254 526T240 507T203 499Q173 499 161 511Q153 518 152
529T151 552Q151 558 151 563T152 574Q155 605 168 631T200 673T244 689ZM127 689Q127 689 130 688T135 683T138 667Q138 651 134 647T128 643Q127 643 117 634T103 603Q112 602 118 599T129 591Q136 584 137 573T139 551Q139 538 137 526T123 507T86 499Q56 499
43 511Q36 518 35 529T33 552Q33 558 33 563T35 574Q38 605 51 631T83 673T127 689Z" />
<glyph unicode="&#x201d;" horiz-adv-x="293" d="M43 500Q43 500 40 501T34 506T31 522Q31 538 35 542T42 546Q42 547 53 555T66 586Q58 587 52 590T41 598Q33 605 32 616T31 638Q31 651 33 663T46 682T84 690Q114 690 126 678Q133 671 134 660T136 637Q136 631
136 626T134 615Q132 585 119 559T86 516T43 500ZM167 500Q167 500 164 501T158 506T155 522Q155 538 159 542T166 546Q166 547 177 555T190 586Q182 587 176 590T165 598Q157 605 156 616T155 638Q155 651 157 663T170 682T208 690Q238 690 250 678Q257 671 258
660T260 637Q260 631 260 626T258 615Q256 585 243 559T210 516T167 500Z" />
<glyph unicode="&#x201e;" horiz-adv-x="294" d="M305 -90Q305 -90 302 -89T296 -84T293 -68Q293 -52 297 -48T304 -44Q304 -43 315 -35T328 -4Q320 -3 314 0T303 8Q295 15 294 26T293 48Q293 61 295 73T308 92T346 100Q376 100 388 88Q395 81 396 70T398 47Q398
41 398 36T396 25Q394 -5 381 -31T348 -74T305 -90ZM170 -90Q170 -90 167 -89T161 -84T158 -68Q158 -52 162 -48T169 -44Q169 -43 180 -35T193 -4Q185 -3 179 0T168 8Q160 15 159 26T158 48Q158 61 160 73T173 92T211 100Q241 100 253 88Q260 81 261 70T263 47Q263
41 263 36T261 25Q259 -5 246 -31T213 -74T170 -90Z" />
<glyph unicode="&#x2022;" horiz-adv-x="236" d="M118 214Q92 214 74 222T46 249T37 294Q37 321 46 339T73 366T118 375Q145 375 162 366T189 339T198 294Q198 268 189 250T163 223T118 214Z" />
<glyph unicode="&#x2039;" horiz-adv-x="352" d="M307 -3Q295 -14 286 -18T267 -19T246 -5L45 196Q37 204 33 211T29 226Q29 234 33 241T45 256L247 458Q258 469 267 472T285 471T307 455Q319 443 321 434T319 415T303 395L134 226L302 58Q314 46 319 37T322 19T307 -3Z" />
<glyph unicode="&#x203a;" horiz-adv-x="332" d="M35 -3Q23 9 21 18T23 37T40 58L208 226L39 395Q28 406 23 415T20 433T35 455Q47 467 56 471T75 472T95 458L297 256Q305 248 309 241T313 226Q313 219 309 212T297 196L96 -5Q86 -15 76 -19T57 -19T35 -3Z" />
</font>
</defs>
</svg>
