<?xml version="1.0" standalone="no"?>
<!DOCTYPE svg PUBLIC "-//W3C//DTD SVG 1.1//EN" "http://www.w3.org/Graphics/SVG/1.1/DTD/svg11.dtd">
<svg xmlns="http://www.w3.org/2000/svg">
<defs >
<font id="Asset" horiz-adv-x="2635" ><font-face
    font-family="Asset"
    units-per-em="2048"
    panose-1="0 0 0 0 0 0 0 0 0 0"
    ascent="1971"
    descent="-589"
    alphabetic="0" />
<glyph unicode=" " glyph-name="space" horiz-adv-x="885" />
<glyph unicode="!" glyph-name="exclam" horiz-adv-x="1148" d="M574 661Q524 661 491 679T458 739Q458 833 400 916T265 1073Q240 1098 217 1122T171 1171Q128 1220 100 1270T71 1376Q71 1490 141 1556T325 1651T574 1680Q708 1680 822 1652T1007 1557T1077 1376Q1077
1320 1049 1271Q1021 1220 978 1171T884 1073Q807 999 749 916T690 739Q690 698 657 680T574 661ZM574 -45Q479 -45 397 -23T252 36Q191 74 155 123T118 230Q118 287 154 338T252 426Q314 464 396 485T574 507Q668 507 751 486T897 426Q959 389 995 338T1031 230Q1031
173 995 124T897 36Q835 -1 752 -23T574 -45Z" />
<glyph unicode="&quot;" glyph-name="quotedbl" horiz-adv-x="1622" d="M1111 586Q1110 699 1090 784Q1071 870 1043 936T983 1053L924 1147Q896 1190 878 1229T860 1311Q860 1526 1161 1526Q1462 1526 1462 1311Q1462 1269 1445 1229Q1427 1190 1401 1147T1343
1053Q1310 1000 1284 936Q1257 870 1239 784T1218 586H1111ZM411 586Q410 699 390 784Q371 870 343 936T283 1053L224 1147Q196 1190 178 1229T160 1311Q160 1526 461 1526Q762 1526 762 1311Q762 1269 745 1229Q727 1190 701 1147T643 1053Q610 1000 584 936Q557
870 539 784T518 586H411Z" />
<glyph unicode="#" glyph-name="numbersign" horiz-adv-x="1884" d="M318 0L430 381Q301 379 203 375T75 367Q72 393 71 413T70 459Q70 484 71 509T75 561Q91 558 130 555T225 550Q279 548 344 547T478 544L577 880Q444 876 342 873T203 865Q200 891 199 911T198
957Q198 982 199 1007T203 1059Q219 1055 260 1053T360 1048Q418 1045 486 1044T625 1042L736 1416H926L816 1039H1096L1230 1040L1341 1416H1531L1422 1044Q1488 1045 1551 1046T1667 1050Q1720 1052 1759 1054T1817 1059Q1820 1039 1821 1004T1822 957Q1822 937
1821 911T1817 865Q1798 868 1754 870T1649 875Q1588 877 1517 878T1374 881L1276 545Q1344 546 1410 547T1532 552Q1588 554 1629 556T1689 561Q1692 541 1693 506T1694 459Q1694 439 1693 413T1689 367Q1669 370 1623 372T1513 377Q1450 379 1376 380T1228 383L1116
0H923L1037 386L939 387H880Q834 387 779 386T624 385L511 0H318ZM802 541H960L1083 542L1184 883L1008 885L770 883L670 542L802 541Z" />
<glyph unicode="$" glyph-name="dollar" horiz-adv-x="2889" d="M1493 -271Q1476 -271 1437 -269T1381 -262Q1383 -224 1385 -171T1390 -52Q1262 -46 1148 -37T917 -21T657 -13Q586 -13 536 -16T436 -29T320 -57Q304 -25 290 40T265 181Q253 255 248 321T242 423H344Q393
324 487 256T704 147Q824 107 958 90T1229 72Q1422 72 1530 93T1684 151T1729 232Q1729 281 1687 311T1573 360Q1500 378 1404 388T1199 406Q1090 414 976 423T754 452Q645 470 549 500T380 580Q307 629 265 700T223 873Q223 1009 319 1102T575 1248Q742 1304 946
1325T1371 1347H1417Q1415 1405 1413 1456T1409 1537Q1432 1542 1469 1544T1531 1547Q1583 1547 1633 1537Q1629 1511 1627 1455T1622 1339Q1705 1334 1783 1329T1934 1316Q2007 1309 2075 1306T2205 1303Q2280 1303 2330 1307T2429 1320T2545 1347Q2561 1315 2575
1256T2599 1131Q2610 1065 2615 1006T2621 911H2508Q2487 970 2407 1027T2205 1131Q2084 1177 1928 1205T1595 1234Q1529 1234 1479 1223T1393 1191Q1322 1152 1322 1093Q1322 1034 1362 997T1471 937Q1540 915 1632 903T1827 881Q1931 872 2039 862T2251 834Q2391
809 2505 760T2687 623T2755 393Q2755 248 2655 158T2391 21Q2216 -28 2013 -42T1595 -57Q1597 -118 1599 -170T1605 -262Q1592 -266 1553 -268T1493 -271Z" />
<glyph unicode="%" glyph-name="percent" horiz-adv-x="2653" d="M538 -315Q443 -252 380 -154Q442 -105 560 5T826 257L1093 515L1273 693Q1340 760 1419 839T1580 1002T1736 1163Q1883 1315 1991 1428T2164 1613Q2211 1579 2251 1540T2320 1453Q2250 1393 2133
1279T1864 1019Q1788 946 1722 880T1596 755L1414 576Q1371 533 1312 475T1169 332T962 125Q876 38 788 -52T633 -213T538 -315ZM670 708Q515 708 385 735T175 831T96 1027Q96 1122 142 1184T267 1282Q345 1318 449 1332T670 1347Q787 1347 891 1333T1074 1282Q1152
1246 1198 1184T1244 1027Q1244 901 1165 832T956 735T670 708ZM670 809Q742 809 797 854T853 1027Q853 1155 797 1200T670 1246Q636 1246 604 1237T545 1203Q520 1178 504 1136T487 1027Q487 961 503 919T545 852Q571 828 603 819T670 809ZM1983 -57Q1828 -57
1698 -30T1488 66T1409 262Q1409 357 1455 419T1580 517Q1658 553 1762 567T1983 582Q2100 582 2204 568T2387 517Q2465 481 2511 419T2557 262Q2557 136 2478 67T2269 -30T1983 -57ZM1983 44Q2055 44 2110 89T2166 262Q2166 390 2110 435T1983 481Q1949 481 1917
472T1858 438Q1833 413 1817 371T1800 262Q1800 196 1816 154T1858 87Q1884 63 1916 54T1983 44Z" />
<glyph unicode="&amp;" glyph-name="ampersand" horiz-adv-x="3748" d="M2741 -59Q2589 -59 2432 -38T2117 21Q1954 -23 1772 -40T1374 -57Q1283 -57 1161 -54T904 -39T640 -4Q513 19 408 57T239 152T176 291Q176 383 247 438T437 526Q562 559 711 575T1019 605Q953
685 917 767T880 935Q880 1141 1103 1244Q1326 1348 1785 1348Q2009 1348 2171 1324T2439 1255Q2544 1212 2594 1154T2644 1028Q2644 958 2566 910T2352 828T2048 766Q2213 701 2395 647T2736 554Q2746 583 2746 616Q2746 658 2678 675Q2609 690 2486 690V795H3475V690Q3346
690 3260 679T3111 644Q3050 622 3005 589T2916 514Q2970 503 3013 496T3086 485Q3251 466 3366 466Q3442 466 3496 472T3589 490L3657 433Q3642 337 3572 248T3382 91Q3264 23 3102 -18T2741 -59ZM1826 869Q1897 923 1941 981T1985 1100Q1985 1179 1932 1211T1807
1243Q1728 1243 1675 1205T1621 1086Q1621 1030 1677 976T1826 869ZM1630 70Q1758 70 1881 89Q1672 158 1489 252T1168 459Q1110 380 1110 304Q1110 243 1151 199T1262 126Q1333 98 1427 84T1630 70Z" />
<glyph unicode="&apos;" glyph-name="quotesingle" horiz-adv-x="922" d="M411 586Q410 699 390 784Q371 870 343 936T283 1053L224 1147Q196 1190 178 1229T160 1311Q160 1526 461 1526Q762 1526 762 1311Q762 1269 745 1229Q727 1190 701 1147T643 1053Q610
1000 584 936Q557 870 539 784T518 586H411Z" />
<glyph unicode="(" glyph-name="parenleft" horiz-adv-x="1332" d="M1152 -272Q1047 -272 937 -257Q828 -243 727 -206T537 -102Q448 -37 382 65Q316 167 278 310T240 645Q240 836 278 980Q316 1123 382 1225T537 1393Q629 1460 727 1496Q828 1534 937 1548T1152
1562V1449Q1050 1449 979 1375T871 1125T833 645Q833 345 870 169T978 -83T1152 -159V-272Z" />
<glyph unicode=")" glyph-name="parenright" horiz-adv-x="1332" d="M180 -272V-159Q282 -159 353 -85T461 166T499 645Q499 946 462 1121T354 1373T180 1449V1562Q233 1562 286 1559T395 1548Q504 1533 606 1496T796 1393Q884 1328 950 1225Q1016 1123 1054 980T1092
645Q1092 454 1054 310Q1016 168 951 66T796 -102Q710 -166 606 -205Q504 -242 395 -257T180 -272Z" />
<glyph unicode="*" glyph-name="asterisk" horiz-adv-x="1594" d="M800 413Q694 413 643 460T592 588Q592 633 613 685T661 798Q688 858 714 926T753 1072Q678 1013 624 941T526 806Q483 743 435 703T324 662Q229 662 160 781Q119 852 119 911Q119 999 207 1050Q246
1072 302 1079T425 1092Q492 1097 565 1107T711 1145Q612 1182 516 1190T340 1204T208 1241Q120 1292 120 1379Q120 1438 160 1508Q230 1628 324 1628Q388 1628 435 1587T526 1484Q570 1421 624 1349T753 1218Q741 1295 714 1363T657 1493Q629 1553 607 1606T584
1704Q584 1785 635 1832T792 1879Q898 1879 949 1832T1000 1704Q1000 1644 966 1569T892 1406T838 1217Q912 1275 968 1349T1066 1484Q1110 1547 1157 1587T1269 1628Q1363 1628 1433 1508Q1473 1438 1473 1379Q1473 1293 1385 1241Q1346 1218 1290 1211T1167 1198Q1100
1192 1027 1182T882 1145Q954 1117 1027 1107T1168 1092Q1234 1087 1290 1080T1386 1050Q1473 999 1473 911Q1473 851 1433 781Q1364 662 1269 662Q1206 662 1159 702T1067 806Q1022 869 968 941T838 1073Q854 970 895 882T972 721T1008 588Q1008 507 957 460T800
413Z" />
<glyph unicode="+" glyph-name="plus" horiz-adv-x="1684" d="M842 98Q821 98 790 99T740 103Q746 146 749 227T755 399T759 557Q711 557 647 556T520 554T407 552Q304 549 233 546T135 538Q132 564 131 589T130 640Q130 665 131 690T135 742Q157 737 237 733T406
727Q510 724 602 723T759 722Q758 773 757 838T753 970T748 1092T740 1177Q766 1180 791 1181T842 1182Q867 1182 892 1181T944 1177Q938 1152 934 1096T928 971T925 835T924 722Q1000 722 1087 724T1275 729Q1376 731 1447 734T1549 742Q1552 722 1553 687T1554
640Q1554 619 1553 588T1549 538Q1523 543 1444 546T1275 551Q1154 553 1079 554T924 557Q925 509 926 444T930 310T935 187T944 103Q924 100 889 99T842 98Z" />
<glyph unicode="," glyph-name="comma" horiz-adv-x="1190" d="M540 -331Q442 -331 343 -313T154 -257L194 -151Q259 -182 348 -201T534 -220Q632 -220 713 -195T846 -112T903 44Q840 -6 758 -22T573 -39Q449 -39 346 -9T180 83T117 236Q117 300 153 352T251 442Q313
478 395 498T573 518Q694 518 787 493T945 421Q1073 327 1073 159Q1073 -23 999 -130T803 -284T540 -331Z" />
<glyph unicode="-" glyph-name="hyphen" horiz-adv-x="1684" d="M135 538Q132 564 131 589T130 640Q130 665 131 690T135 742Q162 737 217 734T343 728T484 725Q624 723 721 723T840 722Q883 722 980 723T1204 727Q1275 728 1346 730T1473 735T1549 742Q1552 722
1553 687T1554 640Q1554 619 1553 588T1549 538Q1516 543 1421 547T1195 554Q1065 556 969 557T840 558Q790 558 726 557T596 555T481 553Q418 552 345 550T214 545T135 538Z" />
<glyph unicode="." glyph-name="period" horiz-adv-x="1147" d="M573 -45Q443 -45 340 -10T177 89T117 240Q117 304 151 356T247 446Q308 482 391 502T573 522Q671 522 755 502T900 446Q961 409 995 357T1030 240Q1030 154 970 90T807 -10T573 -45Z" />
<glyph unicode="/" glyph-name="slash" horiz-adv-x="1112" d="M123 -481Q75 -468 29 -446T-60 -389Q-36 -353 6 -276T103 -96T214 115Q261 203 300 281T375 428Q414 502 440 555T482 638L597 868L749 1178Q797 1277 847 1381T936 1570T990 1690Q1004 1686 1035
1674T1085 1652Q1084 1653 1100 1644T1138 1622T1172 1598Q1154 1568 1125 1515T1059 1393L896 1085L736 775L628 564Q598 503 532 371T365 33Q278 -147 215 -278T123 -481Z" />
<glyph unicode="0" glyph-name="zero" horiz-adv-x="3161" d="M1580 -57Q1308 -57 1052 -22T587 98Q382 180 262 316T141 646Q141 777 197 881Q253 985 352 1062T587 1194Q792 1277 1047 1312T1580 1347Q1857 1347 2113 1312T2575 1194Q2710 1139 2809 1062Q2908
984 2964 881T3020 646Q3020 453 2900 317T2575 98Q2364 13 2108 -22T1580 -57ZM1574 56Q1648 56 1700 116T1783 267Q1814 362 1825 461T1837 643Q1837 725 1826 826T1783 1021Q1773 1052 1761 1079T1734 1130Q1705 1177 1665 1205T1574 1234Q1498 1234 1449 1170T1372
1011Q1344 911 1334 816T1324 643Q1324 559 1334 462T1372 267Q1399 176 1448 116T1574 56Z" />
<glyph unicode="1" glyph-name="one" horiz-adv-x="2234" d="M70 0V94Q312 101 450 153T647 315T705 602Q705 698 681 779T591 921Q527 980 416 1014T133 1050V1171Q213 1171 331 1179T587 1202T866 1234Q997 1250 1132 1270T1377 1311T1545 1347L1701 1302V668Q1701
560 1710 477Q1726 310 1798 225Q1836 181 1892 153Q1999 100 2209 94V0H70Z" />
<glyph unicode="2" glyph-name="two" horiz-adv-x="3217" d="M2372 -81Q2188 -81 1970 -51T1531 17Q1311 55 1106 85T741 115H717Q736 89 736 62Q736 8 677 -35T535 -79Q453 -79 382 -50T268 37T225 181Q225 391 478 502Q604 558 791 594T1225 655Q1532 685 1691
749T1851 937Q1851 1064 1699 1138Q1624 1173 1516 1192T1269 1212Q1178 1212 1081 1205T913 1191Q1048 1186 1137 1166T1280 1115Q1333 1085 1355 1047T1377 969Q1377 915 1337 872T1227 799Q1084 736 868 736Q770 736 677 751T510 800Q437 833 393 884T348 1007Q348
1087 449 1150T718 1257Q887 1301 1109 1325T1582 1349Q1629 1349 1712 1349T1899 1343Q2003 1339 2121 1329T2355 1300Q2471 1281 2576 1253T2763 1183Q2844 1141 2892 1085T2940 954Q2940 730 2553 630Q2357 579 2055 551T1342 510Q1117 502 961 478T707 418Q610
382 566 336T522 237Q522 221 525 204Q649 307 933 350T1655 394L1853 393L2046 392Q2200 392 2337 404T2581 440Q2688 464 2756 499T2839 583Q2871 564 2909 529T2974 442T3002 320Q3002 200 2953 122T2817 0T2616 -63T2372 -81Z" />
<glyph unicode="3" glyph-name="three" horiz-adv-x="3248" d="M1498 -57Q1238 -57 1010 -39T603 16Q479 40 391 73Q302 106 252 148T201 242Q201 304 249 351T376 429Q452 460 549 475T748 491Q1001 491 1133 429T1266 293Q1266 223 1143 163T765 99Q808 96 889
90T1072 79T1281 73Q1399 73 1507 83T1701 122Q1788 149 1840 198T1893 324Q1893 432 1743 506T1252 582V679Q1575 679 1737 756Q1897 832 1897 964Q1897 1044 1851 1095T1731 1175Q1656 1204 1561 1214T1368 1224Q1296 1224 1226 1221T1094 1213Q1027 1208 978
1204T897 1199Q1032 1194 1121 1174T1264 1123Q1317 1093 1338 1055T1360 977Q1360 923 1320 880T1210 807Q1069 744 851 744Q753 744 660 759T493 808Q420 841 376 892T331 1015Q331 1068 386 1113Q440 1158 535 1195T760 1261Q944 1302 1184 1324T1686 1347Q1938
1347 2160 1325T2555 1261Q2672 1233 2761 1193Q2848 1153 2897 1103T2946 992Q2946 823 2723 743T2030 636Q2290 628 2490 610T2827 555Q2964 518 3034 460T3104 317Q3104 239 3049 181Q2994 123 2891 82T2644 13Q2498 -14 2321 -29Q2143 -45 1935 -51T1498 -57Z"
/>
<glyph unicode="4" glyph-name="four" horiz-adv-x="3208" d="M674 0V94Q796 98 898 113T1080 163Q1158 198 1211 255T1287 399H52V526Q92 548 163 589T326 686Q416 741 518 804T720 934Q820 999 912 1061T1074 1177Q1134 1222 1181 1264T1228 1326H2443V526H3024V399H2450Q2462
294 2496 234T2597 144Q2636 126 2697 115Q2755 105 2828 101T2993 94V0H674ZM654 526H1304L1305 536V1103Q1305 1127 1272 1127Q1244 1127 1201 1109T1105 1058Q1053 1026 996 984T884 895Q829 848 780 799T692 705Q655 660 632 622T609 556Q609 530 654 526Z"
/>
<glyph unicode="5" glyph-name="five" horiz-adv-x="3120" d="M1645 -57Q1356 -57 1096 -44T623 4Q482 26 378 61Q275 96 216 143T156 252Q156 307 196 349T307 422Q449 481 683 481Q938 481 1070 419T1202 283Q1202 213 1079 153T701 89Q766 83 842 72T999 60Q1314
60 1548 134Q1665 170 1736 228T1807 359Q1807 445 1751 502T1600 591Q1501 624 1381 637T1124 650Q1035 650 937 640T747 614T580 582T462 551L312 600Q331 668 344 757T365 942T377 1127T381 1283Q404 1289 412 1292T437 1296Q513 1296 537 1253T561 1159V1153L560
1145Q626 1192 721 1226T926 1280Q1035 1300 1145 1309T1364 1319Q1508 1319 1648 1313T1914 1300Q2034 1293 2139 1287T2319 1281Q2391 1281 2472 1290T2628 1322T2751 1383Q2771 1335 2780 1291T2789 1205Q2789 1046 2680 966T2342 885Q2141 885 1955 901T1592
939Q1417 959 1253 975T933 992Q848 992 741 984T545 941Q536 857 530 798T512 675Q680 724 876 750T1275 787T1669 798Q2134 798 2418 756T2833 628T2963 410Q2963 333 2913 268Q2812 140 2560 60Q2380 3 2147 -27T1645 -57Z" />
<glyph unicode="6" glyph-name="six" horiz-adv-x="3267" d="M1689 -56Q1513 -56 1334 -44Q1155 -33 989 -4T678 76Q459 152 327 289T195 635Q195 731 231 813T335 963Q401 1031 494 1086T699 1184Q849 1241 1027 1276T1396 1329T1776 1346Q1945 1346 2099 1337Q2408
1317 2622 1265Q2778 1227 2870 1174T2962 1053Q2962 982 2886 937T2686 871T2423 850Q2235 850 2098 875T1885 942T1810 1033Q1810 1104 1901 1158T2165 1213Q2108 1230 2037 1238T1913 1247Q1850 1247 1782 1241Q1715 1234 1651 1214T1529 1155Q1472 1117 1428
1052Q1385 988 1360 893T1333 665Q1411 690 1495 710T1673 746Q1767 761 1873 769T2100 778Q2320 778 2504 754T2822 681Q2954 632 3028 557T3102 378Q3102 304 3051 242Q2948 121 2683 49Q2618 31 2547 16T2396 -10Q2239 -33 2060 -44T1689 -56ZM1699 57Q1749
57 1806 69T1913 112T1996 194T2028 326Q2028 431 1971 495T1823 588T1632 617Q1550 617 1474 600T1335 561Q1339 447 1358 362Q1376 280 1403 224T1465 134Q1518 82 1578 70T1699 57Z" />
<glyph unicode="7" glyph-name="seven" horiz-adv-x="2993" d="M1432 -72Q1310 -72 1200 -58T1004 -9Q915 26 863 85T811 229Q811 317 860 379T996 485Q1084 530 1214 562T1490 617T1769 657T1997 689Q2180 718 2340 760T2613 874T2761 1059Q2674 1023 2532 996T2220
949Q2046 930 1857 920T1484 910Q1181 910 975 895T643 846Q516 812 462 758T407 625H322Q276 645 219 699T120 827T78 975Q78 1084 116 1161T239 1287Q404 1381 806 1381Q1039 1381 1255 1356T1690 1306T2145 1280Q2330 1280 2511 1302T2875 1355V1160Q2875 1037
2842 950T2755 797Q2701 733 2631 688T2487 604Q2409 564 2339 533T2206 457Q2145 415 2103 361T2048 231Q2023 106 1864 20Q1785 -22 1676 -47T1432 -72Z" />
<glyph unicode="8" glyph-name="eight" horiz-adv-x="3126" d="M1571 -57Q1450 -57 1304 -52T1009 -34T730 -1Q628 15 541 36T388 86Q323 113 286 147T249 224Q249 285 296 328T422 400Q500 429 602 446T814 473Q673 513 554 570T363 709T291 898Q291 1005 393
1085T671 1216Q844 1266 1071 1291T1551 1316Q1747 1316 1949 1304T2327 1264Q2386 1254 2438 1243T2537 1217Q2628 1189 2682 1151T2736 1064Q2736 1010 2672 964T2504 886T2279 843Q2431 813 2564 770T2796 668Q2894 610 2951 534T3008 364Q3008 250 2854 154T2381
1T1571 -57ZM2144 867Q2235 910 2242 1019Q2242 1121 2069 1168T1602 1215Q1549 1215 1490 1213T1378 1203T1292 1178T1257 1130Q1257 1044 1454 986Q1550 958 1690 933T2010 886L2078 877L2144 867ZM1577 50Q1679 50 1777 57T1942 88T2010 162Q2010 201 1953 230T1800
284Q1694 311 1537 338T1169 396Q1112 404 1055 416T939 441Q889 425 847 379T800 262Q800 152 999 101T1577 50Z" />
<glyph unicode="9" glyph-name="nine" horiz-adv-x="3267" d="M1369 -56Q1051 -56 811 -26T437 64T303 217Q303 270 351 308T479 372Q558 396 658 408T864 420Q1148 420 1313 371T1478 247Q1478 177 1387 127T1122 77Q1177 61 1252 52T1380 43Q1398 43 1420 44T1471
48Q1525 53 1586 71T1708 125Q1768 159 1819 222Q1869 284 1900 376T1933 599Q1791 553 1608 523T1167 492Q873 492 647 540T293 681T165 912Q165 987 214 1048Q310 1169 569 1242Q633 1259 704 1274T855 1300Q1013 1323 1198 1334T1588 1346Q1676 1346 1765 1343T1943
1335Q2122 1323 2286 1294T2595 1214Q2812 1138 2942 1001T3072 655Q3072 462 2941 326T2582 107Q2427 50 2239 14Q2050 -22 1830 -39T1369 -56ZM1636 653Q1717 653 1793 669T1932 708Q1926 876 1897 979T1820 1138T1711 1213T1579 1233Q1529 1233 1471 1218T1359
1169T1273 1080T1239 944Q1239 840 1296 776T1445 683T1636 653Z" />
<glyph unicode=":" glyph-name="colon" horiz-adv-x="1147" d="M573 661Q443 661 340 696T177 795T117 946Q117 1010 151 1062T247 1152Q308 1188 391 1208T573 1228Q671 1228 755 1208T900 1152Q961 1115 995 1063T1030 946Q1030 860 970 796T807 696T573 661ZM573
-45Q443 -45 340 -10T177 89T117 240Q117 304 151 356T247 446Q308 482 391 502T573 522Q671 522 755 502T900 446Q961 409 995 357T1030 240Q1030 154 970 90T807 -10T573 -45Z" />
<glyph unicode=";" glyph-name="semicolon" horiz-adv-x="1190" d="M573 661Q443 661 340 696T177 795T117 946Q117 1010 151 1062T247 1152Q308 1188 391 1208T573 1228Q671 1228 755 1208T900 1152Q961 1115 995 1063T1030 946Q1030 860 970 796T807 696T573
661ZM540 -331Q442 -331 343 -313T154 -257L194 -151Q259 -182 348 -201T534 -220Q632 -220 713 -195T846 -112T903 44Q840 -6 758 -22T573 -39Q449 -39 346 -9T180 83T117 236Q117 300 153 352T251 442Q313 478 395 498T573 518Q694 518 787 493T945 421Q1073
327 1073 159Q1073 -23 999 -130T803 -284T540 -331Z" />
<glyph unicode="&lt;" glyph-name="less" horiz-adv-x="1429" d="M1207 117Q1034 205 841 286T461 440T115 573V692Q273 753 460 825T841 979T1207 1148Q1267 1066 1299 978L375 632L1299 287Q1266 196 1207 117Z" />
<glyph unicode="=" glyph-name="equal" horiz-adv-x="1684" d="M135 738Q132 764 131 789T130 840Q130 865 131 890T135 942Q162 937 217 934T343 928T484 925Q624 923 721 923T840 922Q883 922 980 923T1204 927Q1275 928 1346 930T1473 935T1549 942Q1552 922
1553 887T1554 840Q1554 819 1553 788T1549 738Q1516 743 1421 747T1195 754Q1065 756 969 757T840 758Q790 758 726 757T596 755T481 753Q418 752 345 750T214 745T135 738ZM135 298Q132 324 131 349T130 400Q130 425 131 450T135 502Q162 497 217 494T343 488T484
485Q624 483 721 483T840 482Q883 482 980 483T1204 487Q1275 488 1346 490T1473 495T1549 502Q1552 482 1553 447T1554 400Q1554 379 1553 348T1549 298Q1516 303 1421 307T1195 314Q1065 316 969 317T840 318Q790 318 726 317T596 315T481 313Q418 312 345 310T214
305T135 298Z" />
<glyph unicode="&gt;" glyph-name="greater" horiz-adv-x="1429" d="M222 117Q163 196 130 287L1054 632L130 978Q162 1066 222 1148Q347 1084 492 1021T780 900Q930 839 1065 788T1314 692V573Q1198 529 1062 476T780 365Q631 305 490 243T222 117Z" />
<glyph unicode="?" glyph-name="question" horiz-adv-x="2637" d="M1269 635Q1214 635 1168 668T1122 762Q1122 816 1153 857Q1183 898 1229 935T1329 1007Q1412 1060 1474 1121T1536 1262Q1536 1333 1493 1378T1379 1449Q1308 1475 1215 1484T1022 1494Q973 1494
896 1491T744 1483T621 1472Q748 1467 832 1447T968 1396Q1018 1366 1038 1328T1059 1250Q1059 1196 1021 1153T918 1080Q783 1017 579 1017Q486 1017 398 1032T241 1081Q172 1114 130 1165T88 1288Q88 1348 139 1397Q190 1446 279 1484T490 1550Q667 1590 884
1610T1347 1630Q1408 1630 1492 1629T1671 1623Q1766 1618 1867 1608T2066 1580Q2162 1561 2248 1534T2399 1467Q2464 1427 2501 1374T2539 1250Q2539 1170 2499 1120Q2459 1069 2388 1034T2220 973L2010 920Q1896 892 1771 856T1518 762Q1474 743 1452 719T1413
678Q1395 657 1363 646T1269 635ZM1306 -45Q1211 -45 1129 -23T984 36Q923 74 887 123T850 230Q850 287 886 338T984 426Q1046 464 1128 485T1306 507Q1400 507 1483 486T1629 426Q1691 389 1727 338T1763 230Q1763 173 1727 124T1629 36Q1567 -1 1484 -23T1306
-45Z" />
<glyph unicode="@" glyph-name="at" horiz-adv-x="3256" d="M1712 -438Q1351 -438 1060 -384T562 -215Q357 -102 245 71T133 483Q133 668 197 812T373 1065T634 1249Q781 1324 950 1369T1295 1434T1635 1454Q1929 1454 2197 1402T2674 1234Q2874 1122 2998 937T3123
482Q3123 361 3095 280Q3067 197 3016 142T2892 56Q2822 25 2733 10Q2645 -6 2545 -10T2336 -14Q2202 -14 2089 -3T1892 42T1764 143Q1680 89 1563 57T1320 11T1088 -3Q952 -3 838 19T654 96T584 247Q584 330 638 383T785 464Q880 493 997 503T1245 513Q1295 513
1344 512T1476 508Q1547 505 1612 500T1723 487V686Q1723 811 1670 864T1506 928T1217 940Q1307 938 1374 923T1485 883Q1571 834 1571 767Q1571 726 1537 693T1445 634Q1324 582 1145 582Q1041 582 962 600T828 650Q717 711 717 797Q717 858 780 903T953 978Q1061
1007 1205 1021T1515 1035Q1706 1035 1893 1028T2243 985Q2396 951 2491 874T2586 660L2585 454Q2585 279 2625 215T2724 151Q2770 151 2815 171T2896 231Q2931 272 2953 333T2975 479Q2975 717 2835 900T2398 1187T1635 1291Q1289 1291 1031 1234T602 1070Q430
964 345 814T260 478Q260 286 337 147T581 -85Q692 -146 848 -187Q1160 -268 1664 -268Q1855 -268 2038 -258T2392 -226Q2562 -203 2717 -166T3006 -72L3046 -152Q2795 -300 2462 -369T1712 -438ZM1473 200Q1517 200 1589 209T1728 236Q1723 269 1723 302V404L1629
406Q1565 406 1509 401T1411 383Q1369 370 1345 349T1321 295Q1321 256 1358 228T1473 200Z" />
<glyph unicode="A" glyph-name="A" horiz-adv-x="3186" d="M70 0V94Q99 94 149 111T259 166Q319 204 384 262T509 406L1131 1291H2140L2685 428Q2742 338 2809 275T2942 171Q3007 131 3064 113T3161 94V0H1240V94Q1301 94 1356 116T1447 182T1482 291Q1482 313
1472 346H675Q666 322 666 300Q666 233 701 187T792 118T909 94V0H70ZM748 485H1412Q1391 525 1363 577T1297 697Q1259 764 1212 847T1104 1032Q1036 929 980 845T880 693Q837 626 804 575T748 485Z" />
<glyph unicode="B" glyph-name="B" horiz-adv-x="3300" d="M100 0V94Q300 101 412 154T569 331T615 668Q615 826 588 931T496 1097Q454 1135 397 1157Q340 1179 266 1188T100 1197V1291H1770Q2036 1291 2235 1285Q2634 1273 2820 1228Q2960 1194 3017 1136T3074
986Q3074 885 2979 824T2732 732Q2571 699 2382 690T1993 679Q2242 678 2460 669T2869 625Q3044 593 3150 525T3257 341Q3257 226 3165 159T2890 56Q2708 20 2439 10T1815 0H100ZM1687 750Q1816 753 1910 770T2055 832T2106 963Q2106 1028 2075 1069T1985 1132Q1927
1155 1843 1162T1655 1171V751H1684L1687 750ZM1655 128Q1751 128 1840 135T1999 168T2110 244T2151 382Q2151 497 2084 550T1904 617T1655 632V128Z" />
<glyph unicode="C" glyph-name="C" horiz-adv-x="2858" d="M1596 -57Q1486 -57 1382 -54T1180 -43Q984 -29 820 3T525 89Q329 169 222 307T115 652Q115 809 201 937T444 1156Q602 1247 824 1296T1322 1346Q1469 1346 1600 1334T1844 1308Q1956 1295 2049 1283T2222
1270Q2258 1270 2307 1292T2378 1352H2598Q2638 1283 2668 1180T2716 972T2733 786H2583Q2555 888 2481 963T2304 1089Q2203 1139 2093 1162T1885 1185Q1776 1185 1677 1157T1501 1064T1379 893T1334 629Q1334 452 1418 335T1638 160T1928 102Q2165 102 2357 211Q2454
266 2518 352T2594 551H2743Q2743 271 2453 107T1596 -57Z" />
<glyph unicode="D" glyph-name="D" horiz-adv-x="3336" d="M100 0V94Q300 101 412 154T569 331T615 668Q615 826 588 931T496 1097Q454 1135 397 1157Q340 1179 266 1188T100 1197V1291H1747Q1929 1291 2110 1285Q2290 1279 2455 1258T2762 1196Q2903 1154 3008
1083Q3112 1011 3171 905T3231 648Q3231 493 3158 384T2959 205T2671 91Q2513 49 2332 30T1969 5T1621 0H100ZM1655 121Q1750 126 1829 149T1966 229Q2023 286 2055 386T2087 648Q2087 812 2058 918T1971 1079Q1932 1115 1885 1134Q1837 1154 1779 1161T1655 1171V121Z"
/>
<glyph unicode="E" glyph-name="E" horiz-adv-x="3091" d="M100 0V94Q300 101 412 154T569 331T615 668Q615 826 588 931T496 1097Q454 1135 397 1157Q340 1179 266 1188T100 1197V1291H2893Q2919 1165 2931 1017T2944 749H2839Q2772 849 2643 931T2350 1071Q2186
1130 2007 1161T1655 1192V686Q1711 702 1805 740T2010 829Q2120 880 2197 919T2298 975Q2315 900 2320 801T2325 626Q2325 554 2319 461T2298 305Q2272 321 2192 361T2006 451Q1905 497 1810 537T1655 593V99Q1823 99 2025 133T2423 229Q2548 269 2656 318T2841
425T2949 542H3054Q3054 422 3042 274T3003 0H100Z" />
<glyph unicode="F" glyph-name="F" horiz-adv-x="2986" d="M100 0V94Q300 101 412 154T569 331T615 668Q615 826 588 931T496 1097Q454 1135 397 1157Q340 1179 266 1188T100 1197V1291H2903Q2929 1165 2941 1017T2954 749H2849Q2778 859 2647 943T2350 1083Q2185
1137 2007 1164T1655 1192V686Q1723 701 1832 742T2050 829Q2160 876 2245 916T2360 976Q2377 903 2383 806T2389 634Q2389 588 2386 526T2376 403T2360 302Q2332 319 2249 358T2046 450Q1977 480 1903 509T1764 561T1658 594Q1677 320 1865 204Q1960 146 2098
120T2425 94V0H100Z" />
<glyph unicode="G" glyph-name="G" horiz-adv-x="3078" d="M1477 -57Q1390 -57 1305 -54T1135 -46Q966 -35 815 -8T535 68Q409 114 314 189Q220 263 168 366T115 608Q115 832 250 998T641 1255T1261 1347Q1393 1347 1499 1341Q1606 1335 1692 1327T1849 1308Q1947
1294 2035 1282T2194 1269Q2329 1269 2378 1352H2628Q2668 1283 2691 1181T2723 972T2733 786H2583Q2555 888 2481 963T2304 1089Q2203 1139 2093 1162T1885 1185Q1647 1185 1478 1051Q1390 982 1339 876T1287 630Q1287 467 1357 340T1549 139T1821 66Q1839 66
1871 67T1935 70T1983 76Q1983 128 1983 172T1981 254Q1978 328 1966 378T1927 458Q1900 487 1851 503Q1802 518 1728 522T1545 527V621H3004V527Q2889 527 2843 496T2796 387Q2796 295 2822 195T2895 14Q2538 -21 2186 -39T1477 -57Z" />
<glyph unicode="H" glyph-name="H" horiz-adv-x="3750" d="M100 0V94Q300 101 412 154T569 331T615 668Q615 826 588 931T496 1097Q454 1135 397 1157Q340 1179 266 1188T100 1197V1291H1781V1197Q1740 1197 1716 1177T1678 1102Q1665 1047 1660 948T1655 692H2097Q2097
901 2088 1009T2051 1157T1971 1197V1291H3650V1197Q3514 1197 3416 1176T3257 1097T3166 937T3136 668Q3136 452 3182 329T3340 154T3650 94V0H1971V94Q2003 99 2029 144T2073 291T2095 565H1656Q1659 436 1670 348T1698 204Q1715 149 1736 124T1781 94V0H100Z"
/>
<glyph unicode="I" glyph-name="I" horiz-adv-x="2269" d="M100 0V94Q300 101 412 154T569 331T615 668Q615 826 588 931T496 1097Q454 1135 397 1157Q340 1179 266 1188T100 1197V1291H2169V1197Q2032 1197 1934 1176T1775 1097T1684 937T1655 668Q1655 452 1700
329T1858 154T2169 94V0H100Z" />
<glyph unicode="J" glyph-name="J" horiz-adv-x="2318" d="M1081 -148Q912 -148 773 -137T518 -107Q402 -89 304 -65T120 -14L138 89Q222 73 280 63T387 49T489 44Q572 44 628 71T719 166Q753 233 767 343T782 621Q782 800 745 916T632 1095Q582 1136 519 1158Q455
1181 377 1189T207 1197V1291H2275V1197Q2135 1197 2044 1177T1905 1102Q1874 1066 1857 1012Q1840 958 1834 885T1828 715Q1828 604 1841 498T1855 273Q1855 134 1791 53T1632 -70Q1559 -101 1476 -117Q1390 -135 1290 -141T1081 -148Z" />
<glyph unicode="K" glyph-name="K" horiz-adv-x="3369" d="M2759 -57Q2686 -57 2623 -56T2507 -52Q2399 -47 2321 -35T2189 1Q2137 24 2102 61Q2068 97 2048 149T2014 271Q1995 377 1957 441T1848 535T1656 568Q1660 393 1684 289T1760 140T1899 94V0H100V94Q300
101 412 154T569 331T615 668Q615 826 588 931T496 1097Q454 1135 397 1157Q340 1179 266 1188T100 1197V1291H1890V1197Q1831 1197 1779 1147T1693 983T1655 674Q1760 729 1867 788T2074 911Q2168 972 2232 1028T2296 1123Q2296 1158 2250 1177Q2202 1197 2095
1197V1291H3164V1197Q3109 1197 3020 1174Q2932 1150 2825 1110T2595 1017Q2408 937 2221 846T1874 676Q1935 684 1988 691T2088 705L2258 729Q2336 740 2411 746T2574 752Q2689 752 2771 737Q2929 706 3001 622Q3036 579 3060 527Q3083 473 3098 410T3128 273Q3143
202 3161 164T3220 112T3344 95V-6Q3296 -17 3243 -26T3121 -42Q3052 -49 2964 -53T2759 -57Z" />
<glyph unicode="L" glyph-name="L" horiz-adv-x="2777" d="M100 0V94Q300 101 412 154T569 331T615 668Q615 826 588 931T496 1097Q454 1135 397 1157Q340 1179 266 1188T100 1197V1291H2169V1197Q2032 1197 1934 1176T1775 1097T1684 937T1655 668V99Q1849 99
2026 157T2340 310Q2477 403 2558 518T2649 742H2754Q2754 687 2751 590T2742 377Q2735 260 2726 162T2703 0H100Z" />
<glyph unicode="M" glyph-name="M" horiz-adv-x="3645" d="M1449 -36L736 848V668Q736 629 737 592T740 518Q743 446 757 384T799 269Q825 219 873 180Q920 143 990 120T1160 94V0H100V94Q300 101 412 154T569 331T615 668Q615 832 585 935T489 1097Q425 1156
325 1176T86 1197V1291H1558L1892 907L2126 1291H3590V1197Q3453 1197 3355 1176T3196 1097T3105 937T3076 668Q3076 452 3121 329T3279 154T3590 94V0H1702V94Q1803 97 1872 119Q1943 141 1989 179T2064 269Q2107 350 2116 453T2126 668V1045L1449 -36Z" />
<glyph unicode="N" glyph-name="N" horiz-adv-x="3330" d="M80 0V94Q280 101 392 154T549 331T595 668Q595 826 568 931T476 1097Q434 1135 377 1157Q320 1179 246 1188T80 1197V1291H1826L2707 575L2709 668Q2709 833 2680 936T2590 1097T2430 1175T2195 1197V1291H3295V1197Q3204
1197 3133 1188Q2992 1170 2926 1097Q2890 1057 2870 1000Q2849 942 2840 860T2831 668V0H1805L1439 315L739 915Q716 819 716 668Q716 452 762 329T920 154T1230 94V0H80Z" />
<glyph unicode="O" glyph-name="O" horiz-adv-x="3051" d="M1525 -57Q1439 -57 1354 -54T1182 -46Q1010 -35 854 -6T564 74Q429 123 331 202Q232 280 176 389T119 645Q119 792 176 901Q232 1010 330 1088T564 1216Q700 1266 854 1296Q1010 1325 1181 1336T1525
1347Q1611 1347 1697 1344T1869 1336Q2040 1325 2196 1296T2488 1216Q2621 1167 2721 1088Q2819 1010 2875 901T2932 645Q2932 499 2876 389Q2819 280 2721 202T2488 74Q2421 49 2348 29T2197 -5Q2040 -35 1869 -46T1525 -57ZM1520 56Q1618 56 1671 134T1746 346T1767
645Q1767 815 1746 948T1671 1157T1520 1234Q1448 1234 1402 1185T1329 1051Q1304 968 1294 865T1284 645Q1284 480 1302 347T1371 135T1520 56Z" />
<glyph unicode="P" glyph-name="P" horiz-adv-x="3210" d="M100 0V94Q300 101 412 154T569 331T615 668Q615 826 588 931T496 1097Q454 1135 397 1157Q340 1179 266 1188T100 1197V1291H1720Q2095 1291 2363 1273T2802 1207T3054 1071T3135 843Q3135 710 3070
628T2899 501Q2823 470 2737 454Q2649 436 2548 430T2339 423Q2173 423 2001 434T1669 449Q1690 321 1752 246T1937 136T2259 94V0H100ZM1657 573Q1746 579 1820 597T1949 652Q2002 687 2031 741T2061 873Q2061 959 2034 1014T1953 1104Q1901 1137 1825 1151T1655
1170V619L1657 573Z" />
<glyph unicode="Q" glyph-name="Q" horiz-adv-x="3023" d="M1657 -491Q1567 -491 1479 -481T1318 -447T1203 -382T1160 -276Q1160 -214 1202 -154T1307 -53Q1230 -50 1154 -44T1003 -30Q854 -13 721 20T474 106Q303 185 204 318T105 645Q105 792 162 901Q218 1010
316 1088T550 1216Q686 1266 840 1296Q996 1325 1167 1336T1511 1347Q1597 1347 1683 1344T1855 1336Q2026 1325 2182 1296T2474 1216Q2607 1167 2707 1088Q2805 1010 2861 901T2918 645Q2918 443 2812 308T2522 94Q2399 41 2259 10Q2117 -22 1959 -36T1639 -55Q1637
-67 1637 -73V-90Q1637 -158 1678 -207T1789 -287Q1857 -316 1943 -330T2124 -344Q2149 -344 2174 -342T2224 -337V-419Q2140 -438 2065 -454T1895 -481T1657 -491ZM1506 56Q1604 56 1657 134T1732 346T1753 645Q1753 815 1732 948T1657 1157T1506 1234Q1434 1234
1388 1185T1315 1051Q1290 968 1280 865T1270 645Q1270 480 1288 347T1357 135T1506 56Z" />
<glyph unicode="R" glyph-name="R" horiz-adv-x="3399" d="M2669 -57Q2524 -57 2422 -51Q2219 -41 2136 7Q2093 29 2069 67Q2044 103 2033 153T2014 271Q2005 352 1987 407T1931 499Q1858 566 1656 578Q1659 443 1673 351T1715 201Q1744 144 1788 119T1899 94V0H100V94Q300
101 412 154T569 331T615 668Q615 826 588 931T496 1097Q454 1135 397 1157Q340 1179 266 1188T100 1197V1291H1720Q1850 1291 1966 1290T2185 1287Q2390 1283 2545 1272T2809 1239Q2970 1208 3043 1146T3117 976Q3117 871 3031 803T2798 695Q2700 669 2577 652Q2456
636 2318 629T2029 621H2454Q2589 621 2686 612Q2876 593 2971 530Q3018 499 3049 455Q3080 412 3100 356T3137 230Q3157 150 3197 123T3344 95V-6Q3231 -19 3136 -28T2958 -44Q2876 -51 2805 -54T2669 -57ZM1655 688Q1784 694 1886 716T2047 790T2106 932Q2106
1003 2074 1048T1982 1120Q1922 1146 1839 1157T1655 1171V688Z" />
<glyph unicode="S" glyph-name="S" horiz-adv-x="2840" d="M302 -57Q286 -25 272 40T247 181Q235 255 230 321T224 423H326Q375 324 469 256T686 147Q806 107 940 90T1211 72Q1404 72 1512 93T1666 151T1711 232Q1711 281 1669 311T1555 360Q1482 378 1386 388T1181
406Q1072 414 958 423T736 452Q627 470 531 500T362 580Q289 629 247 700T205 873Q205 1009 301 1102T557 1248Q724 1304 928 1325T1353 1347Q1471 1347 1584 1340T1803 1325Q1908 1317 2004 1310T2187 1303Q2262 1303 2312 1307T2411 1320T2527 1347Q2543 1315
2557 1256T2581 1131Q2592 1065 2597 1006T2603 911H2490Q2469 970 2389 1027T2187 1131Q2066 1177 1910 1205T1577 1234Q1511 1234 1461 1223T1375 1191Q1304 1152 1304 1093Q1304 1034 1344 997T1453 937Q1522 915 1614 903T1809 881Q1913 872 2021 862T2233
834Q2373 809 2487 760T2669 623T2737 393Q2737 248 2636 158T2371 21Q2197 -28 1995 -42T1574 -57Q1405 -57 1258 -46T962 -24T639 -13Q568 -13 518 -16T418 -29T302 -57Z" />
<glyph unicode="T" glyph-name="T" horiz-adv-x="2870" d="M400 0V94Q600 101 712 154T869 331T915 668V1169Q758 1140 616 1066T370 878T221 619H116Q116 671 119 762T129 951Q136 1048 145 1137T167 1291H2703Q2717 1227 2726 1138T2742 951Q2749 853 2751 762T2754
619H2649Q2601 754 2493 867T2243 1060T1955 1169V636Q1958 432 2005 316T2163 151T2468 94V0H400Z" />
<glyph unicode="U" glyph-name="U" horiz-adv-x="3450" d="M1894 -57Q1733 -57 1575 -51Q1416 -46 1273 -24T1008 41Q884 83 796 158Q706 233 656 344T605 615V678Q605 841 575 943T481 1100T321 1176T90 1197V1291H2113V1197Q2020 1197 1949 1170T1831 1081Q1783
1019 1759 917T1734 663Q1734 528 1778 426T1896 256Q1969 187 2063 153T2257 119Q2400 119 2511 176T2687 352T2751 654Q2751 809 2727 913T2656 1080Q2608 1143 2537 1170T2371 1197V1291H3423V1197Q3285 1197 3185 1179T3019 1104Q2954 1049 2923 947T2891 681Q2891
449 2821 301T2618 74Q2529 21 2419 -7Q2308 -36 2176 -46T1894 -57Z" />
<glyph unicode="V" glyph-name="V" horiz-adv-x="3110" d="M982 0Q815 365 663 633T371 1049T100 1197V1291H1875V1197Q1769 1197 1698 1170T1627 1063Q1627 1028 1659 938T1750 713Q1806 581 1873 444T2010 177Q2029 206 2056 255T2114 366Q2145 428 2179 497T2244
637Q2286 732 2321 817T2378 967T2400 1058Q2400 1130 2346 1163Q2288 1197 2153 1197V1291H3055V1197Q2907 1197 2788 1120T2563 896Q2491 796 2419 662Q2346 529 2271 364T2112 0H982Z" />
<glyph unicode="W" glyph-name="W" horiz-adv-x="4266" d="M823 0Q768 217 707 413T590 755T497 970Q427 1095 320 1146T100 1197V1291H1687V1194Q1625 1194 1594 1158T1563 1063Q1563 1026 1578 943T1621 752Q1650 642 1694 513T1797 262Q1851 418 1899 561T1977
823T2008 1027Q2008 1104 1977 1147T1873 1191V1291H3250V1195Q3180 1195 3148 1153T3116 1063Q3116 1027 3128 943T3169 748Q3196 636 3239 507T3342 252Q3380 343 3416 449T3486 677Q3517 787 3537 890T3557 1058Q3557 1105 3522 1150T3414 1196V1291H4211V1197Q4054
1197 3948 1120T3761 896Q3706 796 3653 662Q3601 529 3547 364T3431 0H2390Q2318 239 2258 425T2145 757Q2115 685 2085 602T2026 424L1891 0H823Z" />
<glyph unicode="X" glyph-name="X" horiz-adv-x="3209" d="M100 0V94Q165 94 266 138T496 265Q621 345 752 445T1019 664Q962 731 902 797T783 921Q725 978 669 1024T566 1098Q505 1133 429 1155T276 1187T137 1197V1291H2060V1197Q1992 1197 1945 1175T1897 1105Q1897
1090 1960 1001Q1990 959 2031 906T2121 792Q2179 834 2233 877T2327 960Q2368 1000 2392 1033T2416 1090Q2416 1197 2244 1197V1291H3061V1197Q2976 1197 2897 1160T2699 1055Q2559 974 2434 888T2188 711Q2268 618 2357 521T2533 345T2691 222Q2809 150 2932
122T3154 94V0H1147V94Q1226 94 1289 117T1352 205Q1352 224 1277 332Q1242 382 1194 445T1091 577Q1009 511 929 438T797 301T744 201Q744 94 952 94V0H100Z" />
<glyph unicode="Y" glyph-name="Y" horiz-adv-x="3178" d="M497 0V94Q642 97 745 130T915 209Q981 256 1011 308T1042 404V542Q949 683 835 802T598 1007Q468 1099 341 1148T100 1197V1291H1898V1197Q1810 1197 1763 1161T1716 1063Q1716 1002 1796 874Q1835 811
1891 734T2017 564Q2057 622 2103 692T2190 832T2258 961T2285 1058Q2285 1111 2244 1154T2083 1197V1291H3123V1197Q2987 1194 2864 1151Q2740 1108 2633 1040T2437 888Q2305 762 2229 634T2153 422Q2153 333 2200 271T2326 169Q2406 130 2512 112T2740 94V0H497Z"
/>
<glyph unicode="Z" glyph-name="Z" horiz-adv-x="2742" d="M95 0V108Q157 108 229 154T413 312Q453 350 500 399T604 509Q715 629 865 795T1216 1186Q1127 1185 1048 1184T901 1178Q764 1171 663 1155T492 1110Q424 1082 380 1037Q338 993 320 931T301 784H286L253
783H205V1291H2673V1197Q2607 1197 2542 1147T2377 990Q2305 911 2201 791T1950 503Q1877 420 1791 323T1604 113Q1870 116 2057 132T2360 190T2530 307T2584 507H2631L2677 508V0H95Z" />
<glyph unicode="[" glyph-name="bracketleft" horiz-adv-x="1227" d="M255 -287V1577H1184L1187 1474Q1075 1474 997 1468Q918 1461 866 1435T783 1357Q753 1304 738 1214Q723 1123 719 985T715 651Q715 553 716 470T719 319Q726 46 783 -50Q812 -101 866 -127Q919
-152 996 -158T1186 -164L1183 -287H255Z" />
<glyph unicode="\" glyph-name="backslash" horiz-adv-x="1112" d="M989 -481Q977 -451 953 -398T896 -276Q865 -209 828 -132T747 33Q647 239 581 371T484 564Q451 633 377 775L217 1085L54 1393Q17 1461 -12 1514T-60 1598Q-48 1609 -27 1622T12 1644T27 1652Q46
1662 77 1674T122 1690Q137 1654 176 1570T265 1382T363 1178L515 868L630 638Q646 608 672 555T737 428Q772 360 812 282T898 115Q955 6 1009 -96T1106 -275T1172 -389Q1089 -454 989 -481Z" />
<glyph unicode="]" glyph-name="bracketright" horiz-adv-x="1227" d="M43 -287V-184Q99 -184 146 -183T232 -177Q387 -165 444 -67Q474 -14 489 77Q504 169 508 306T512 639Q512 737 511 820T508 972Q501 1243 444 1341Q414 1392 362 1417Q310 1442 232 1448T41
1454L44 1577H972V-287H43Z" />
<glyph unicode="^" glyph-name="asciicircum" horiz-adv-x="1594" d="M471 207Q380 240 301 299Q432 556 549 806T757 1291H876Q967 1057 1084 807T1332 299Q1250 239 1162 207L817 1071L471 207Z" />
<glyph unicode="_" glyph-name="underscore" horiz-adv-x="1949" d="M-60 -535V-354H2009V-535H-60Z" />
<glyph unicode="`" glyph-name="grave" horiz-adv-x="1707" d="M1283 1187Q1111 1238 973 1273T731 1334Q628 1359 561 1375T463 1405Q394 1434 356 1482T317 1589Q317 1672 372 1716T493 1761Q551 1761 608 1736Q640 1722 720 1669T914 1540Q1041 1455 1169 1372T1468
1187H1283Z" />
<glyph unicode="a" glyph-name="a" horiz-adv-x="2814" d="M689 -45Q532 -45 404 -14T201 78T125 221Q125 309 179 367T322 459Q411 492 525 505T761 519Q906 519 1040 516T1282 506T1458 492V709Q1458 867 1367 933Q1321 966 1249 981T1078 996Q932 996 804 988Q995
988 1111 936T1227 796Q1227 730 1165 685T998 618T764 595Q675 595 595 612T452 659Q390 688 354 728T317 816Q317 889 400 942T612 1028Q737 1060 883 1076T1187 1092Q1397 1092 1601 1085T1990 1038Q2161 1001 2269 918T2377 688V449Q2377 356 2389 299T2424
210Q2446 179 2476 168T2540 157Q2603 157 2650 208T2701 356H2814Q2814 212 2749 134T2596 21Q2490 -22 2366 -33T2099 -45Q1872 -45 1719 -18T1501 112Q1459 83 1395 56T1234 5Q1137 -17 1003 -31T689 -45ZM1176 142Q1234 142 1308 149T1468 191Q1458 230 1458
289V396Q1415 398 1371 398T1286 399Q1218 399 1167 394T1080 375Q1010 345 1010 270Q1010 230 1046 186T1176 142Z" />
<glyph unicode="b" glyph-name="b" horiz-adv-x="2666" d="M1692 -45Q1550 -45 1432 -34T1206 -9Q1098 5 993 15T770 26Q608 26 497 17T314 -18L230 27Q245 58 254 103T268 220Q273 295 274 417T275 704Q275 894 249 1012T167 1196Q111 1261 24 1284T-188 1307V1400L1154
1490V940Q1237 1003 1386 1047T1776 1092Q2130 1092 2340 944Q2442 872 2497 769T2553 536Q2553 391 2494 282T2324 101Q2101 -45 1692 -45ZM1367 83Q1480 83 1520 177T1561 502Q1561 595 1554 671T1527 800Q1508 853 1477 882T1398 911Q1321 911 1257 876T1154
785V125Q1205 105 1257 94T1367 83Z" />
<glyph unicode="c" glyph-name="c" horiz-adv-x="2486" d="M1445 -45Q1354 -45 1267 -42T1096 -34Q928 -23 781 2T513 70Q333 132 228 241T123 514Q123 670 231 782T521 961Q709 1031 943 1061T1436 1092Q1623 1092 1785 1072T2074 1013Q2202 975 2279 920T2357
793Q2357 690 2240 618Q2183 582 2100 561T1909 539Q1775 539 1666 566T1491 641T1426 750Q1426 828 1527 893T1828 959Q1771 975 1710 982T1585 989Q1463 989 1355 951T1178 821T1110 570Q1110 452 1160 367T1290 228Q1370 174 1471 147T1683 119Q1798 119 1905
139T2094 194Q2176 229 2225 274T2274 371H2397Q2397 268 2320 190T2110 59Q1845 -45 1445 -45Z" />
<glyph unicode="d" glyph-name="d" horiz-adv-x="2807" d="M870 -45Q642 -45 472 33T207 240T113 522Q113 668 172 775T335 953T575 1057T864 1092Q1020 1092 1133 1076T1333 1029T1492 953V976Q1492 1171 1384 1242Q1328 1279 1241 1293T1029 1307V1400L2391
1490V468Q2391 436 2392 407T2395 351Q2403 244 2453 188Q2529 101 2783 92V-2Q2678 -2 2531 -4T2193 -10Q2003 -14 1870 -16T1654 -18Q1610 -18 1570 23T1510 117Q1473 83 1423 54T1298 2Q1223 -20 1119 -32T870 -45ZM1248 126Q1326 126 1391 158T1492 246V824Q1425
885 1357 910T1236 935Q1156 935 1121 834Q1085 734 1085 526Q1085 433 1092 359T1119 233Q1158 126 1248 126Z" />
<glyph unicode="e" glyph-name="e" horiz-adv-x="2479" d="M1369 -45Q1082 -45 849 -17T450 75Q285 139 195 242T105 498Q105 647 199 760T460 947Q573 997 710 1028Q847 1060 1007 1076T1343 1092Q1578 1092 1769 1059T2096 957Q2231 887 2305 778T2379 517H1075Q1089
287 1207 193T1575 99Q1696 99 1813 116T2027 168Q2125 201 2186 253T2248 371H2379Q2379 261 2292 182T2065 53Q1924 4 1744 -20T1369 -45ZM1074 629H1479Q1479 720 1465 784T1426 890Q1401 931 1367 950T1294 970Q1251 970 1213 951T1145 890Q1115 848 1097 784T1074
629Z" />
<glyph unicode="f" glyph-name="f" horiz-adv-x="2231" d="M60 0V94Q323 104 426 190Q479 234 501 303T523 470V740H90V834L523 864V1083Q523 1232 609 1331T848 1484Q947 1519 1075 1542Q1200 1563 1344 1571T1646 1580Q2046 1580 2226 1499T2406 1286Q2406 1183
2289 1117Q2232 1084 2149 1066T1959 1047Q1862 1047 1778 1063T1630 1106Q1567 1133 1531 1168T1495 1244Q1495 1325 1595 1377Q1645 1403 1719 1417T1893 1431Q1816 1463 1718 1463Q1575 1463 1502 1430T1404 1340T1378 1211Q1378 1149 1384 1084T1396 966T1402
884V878H2041V740H1402V470Q1402 328 1467 249T1662 136T1985 94V0H60Z" />
<glyph unicode="g" glyph-name="g" horiz-adv-x="2602" d="M1199 -505Q978 -505 771 -499T384 -467Q326 -459 277 -449T184 -426Q99 -400 51 -364T2 -275Q2 -234 41 -202T147 -145Q213 -121 300 -104T483 -75Q401 -40 351 9T300 122Q300 166 326 203T397 272Q486
334 628 365Q483 389 373 432T201 539T138 692Q138 797 227 874T465 999Q612 1046 803 1069T1204 1092Q1378 1092 1540 1077T1841 1027Q1875 1106 1932 1150T2060 1213T2208 1237T2358 1242Q2405 1242 2461 1241T2585 1236Q2579 1208 2574 1159T2549 1072Q2527
1030 2464 1014T2345 998H2113Q2075 998 2040 997T1973 988Q2107 941 2188 868T2270 692Q2270 586 2181 515T1944 402Q1795 361 1606 343T1204 325Q1092 325 984 329T775 345L776 340Q746 340 719 322T692 277Q692 253 718 236T788 209Q832 199 888 195T1007 190H1537Q1719
190 1884 189T2195 161Q2329 138 2413 77T2497 -99Q2497 -195 2440 -262T2284 -373T2055 -445Q1928 -471 1782 -484T1486 -501T1199 -505ZM1203 435Q1276 435 1321 473T1386 573T1407 708Q1407 824 1360 903T1203 983Q1094 983 1048 904T1001 708Q1001 636 1021
574T1086 473T1203 435ZM1245 -398Q1342 -398 1439 -395T1616 -378Q1697 -366 1749 -342T1801 -278Q1801 -232 1732 -208T1543 -171Q1423 -159 1259 -157T904 -154Q874 -154 844 -152T783 -147Q719 -192 719 -268Q719 -308 756 -333T863 -373Q932 -387 1029 -392T1245
-398Z" />
<glyph unicode="h" glyph-name="h" horiz-adv-x="3014" d="M75 0V94Q164 97 232 109Q366 133 426 216Q456 258 476 326Q494 392 501 485T508 704Q508 894 482 1012T400 1196Q344 1261 257 1284T45 1307V1400L1387 1490V900Q1567 980 1765 1036T2174 1092Q2256
1092 2340 1082T2500 1023Q2548 992 2584 939Q2619 885 2640 805T2661 612Q2661 593 2661 574T2659 535Q2656 495 2656 448Q2656 390 2659 340Q2661 291 2672 252T2706 183Q2773 94 3019 94V0H1623V76Q1688 118 1713 217T1738 488Q1738 637 1712 707T1640 799T1538
820Q1503 820 1465 813T1387 792V470Q1387 295 1412 207T1502 76V0H75Z" />
<glyph unicode="i" glyph-name="i" horiz-adv-x="1838" d="M939 1209Q834 1209 741 1228T578 1280Q508 1313 468 1357T427 1451Q427 1520 496 1575T682 1662T939 1695Q1084 1695 1200 1662T1384 1574T1452 1451Q1452 1386 1384 1331T1200 1242T939 1209ZM35 0V94Q309
104 420 211T531 515Q531 715 424 803T68 891V985L1410 1075V515Q1410 385 1443 294T1570 152T1843 94V0H35Z" />
<glyph unicode="j" glyph-name="j" horiz-adv-x="1627" d="M832 1209Q727 1209 634 1228T471 1280Q401 1313 361 1357T320 1451Q320 1520 389 1575T575 1662T832 1695Q977 1695 1093 1662T1277 1574T1345 1451Q1345 1386 1277 1331T1093 1242T832 1209ZM641 -462Q477
-462 315 -444T15 -406V-287Q74 -294 121 -297T208 -301Q313 -301 363 -254T429 -123T445 67V472Q445 572 419 650T337 782Q281 835 194 863T-18 891V985L1336 1075V897L1335 677Q1335 491 1341 318T1348 27Q1348 -70 1322 -145Q1295 -220 1247 -274T1133 -365Q1030
-421 904 -441T641 -462Z" />
<glyph unicode="k" glyph-name="k" horiz-adv-x="2904" d="M2252 -57Q2086 -57 1978 -45T1812 1Q1777 21 1754 54Q1732 86 1720 129T1698 228Q1688 282 1670 329T1596 406T1417 438Q1419 259 1454 177T1589 94V0H75V94Q165 97 234 109Q373 133 441 216Q476 260
498 326Q519 392 528 485T538 704Q538 894 512 1012T430 1196Q374 1261 287 1284T75 1307V1400L1417 1490V579Q1490 630 1557 685T1675 789Q1787 895 1787 920Q1787 940 1744 946Q1701 952 1627 952V1046H2739V952Q2620 952 2478 924T2177 840Q2017 784 1843 699T1486
500Q1672 530 1861 547T2196 565Q2406 565 2517 517Q2631 467 2661 355Q2679 289 2707 242T2768 164Q2800 133 2832 118T2889 99V-6Q2863 -14 2803 -22T2659 -39Q2574 -47 2470 -52T2252 -57Z" />
<glyph unicode="l" glyph-name="l" horiz-adv-x="1807" d="M75 0V94Q120 96 159 99T232 108Q368 129 426 209Q456 247 476 317Q494 384 501 479T508 704Q508 835 498 925Q479 1110 408 1196Q373 1238 321 1264Q269 1288 201 1297T45 1307V1400L1387 1490V470Q1387
340 1422 260T1545 140T1792 94V0H75Z" />
<glyph unicode="m" glyph-name="m" horiz-adv-x="4172" d="M70 0V94Q318 104 427 203Q483 253 508 326T533 497Q533 660 487 742T339 852T70 881V975L1376 1065V903Q1553 982 1747 1037T2155 1092Q2235 1092 2312 1081T2454 1029T2559 897Q2737 979 2922 1035T3322
1092Q3404 1092 3488 1082T3648 1023Q3696 992 3732 939Q3767 885 3788 805T3809 612L3807 535Q3804 495 3804 448Q3804 360 3820 294T3878 183Q3919 139 3991 117T4177 94V0H2807V76Q2872 118 2897 217T2922 488Q2922 637 2896 707T2824 799T2722 820Q2690 820
2657 815T2588 802Q2596 762 2601 715T2606 612L2604 524Q2601 475 2601 427Q2601 339 2605 274T2620 164Q2643 76 2700 76V0H1604V76Q1669 118 1694 217T1719 488Q1719 637 1693 707T1621 799T1519 820Q1485 820 1449 813T1376 795V470Q1376 295 1401 207T1491
76V0H70Z" />
<glyph unicode="n" glyph-name="n" horiz-adv-x="3049" d="M70 0V94Q318 104 427 203Q483 253 508 326T533 497Q533 660 487 742T339 852T70 881V975L1412 1065V900Q1592 980 1790 1036T2199 1092Q2281 1092 2365 1082T2525 1023Q2573 992 2609 939Q2644 885 2665
805T2686 612L2684 535Q2681 495 2681 448Q2681 360 2690 294T2736 183Q2772 139 2847 117T3054 94V0H1648V76Q1713 118 1738 217T1763 488Q1763 637 1737 707T1665 799T1563 820Q1528 820 1490 813T1412 792V470Q1412 295 1437 207T1527 76V0H70Z" />
<glyph unicode="o" glyph-name="o" horiz-adv-x="2611" d="M1306 -45Q946 -45 676 17T255 205T105 523Q105 668 191 776T436 954Q594 1025 815 1059T1306 1093Q1575 1093 1797 1059T2176 954Q2334 884 2420 776T2506 523Q2506 379 2420 273T2176 95Q2019 25 1797
-10T1306 -45ZM1306 60Q1353 60 1390 97T1455 199Q1509 329 1509 523Q1509 719 1455 850Q1428 914 1391 952T1306 990Q1258 990 1221 952T1157 850Q1130 786 1116 702T1102 523Q1102 430 1116 346T1157 199Q1183 135 1220 98T1306 60Z" />
<glyph unicode="p" glyph-name="p" horiz-adv-x="2869" d="M15 -462V-368Q102 -365 174 -351Q312 -324 381 -234Q416 -187 438 -119Q459 -50 468 45T478 265Q478 329 475 384T467 488Q443 677 370 768Q333 814 282 841Q230 868 164 879T15 890V984L1357 1074V940Q1399
972 1456 999T1590 1048Q1666 1068 1762 1080T1979 1092Q2198 1092 2347 1050T2587 934T2716 760T2756 544Q2756 397 2697 287T2534 103Q2430 30 2289 -7T1985 -45Q1819 -45 1649 -8T1357 96V8Q1357 -122 1402 -202T1559 -322T1869 -368V-462H15ZM1613 115Q1693
115 1729 215Q1764 315 1764 520Q1764 613 1757 686T1730 811Q1691 916 1601 916Q1524 916 1460 881T1357 790V237Q1426 174 1494 145T1613 115Z" />
<glyph unicode="q" glyph-name="q" horiz-adv-x="2731" d="M989 -462V-368Q1259 -358 1375 -250T1492 53V106Q1450 74 1393 47T1259 -1Q1183 -21 1087 -33T870 -45Q699 -45 559 -2T320 119Q221 196 167 300T113 526Q113 683 180 790T348 961Q453 1028 587 1060T870
1092Q1044 1092 1213 1074T1549 1038T1878 1020Q1993 1020 2106 1029T2332 1065L2415 1020Q2401 925 2391 803T2375 553T2370 314Q2370 250 2371 194T2377 88Q2389 -113 2447 -213Q2477 -265 2525 -298Q2615 -361 2794 -368V-462H989ZM1248 112Q1325 112 1390 147T1492
238V910Q1423 945 1354 956T1235 967Q1156 967 1121 860Q1085 752 1085 545Q1085 452 1092 373T1119 236Q1138 178 1169 145T1248 112Z" />
<glyph unicode="r" glyph-name="r" horiz-adv-x="2526" d="M70 0V94Q249 101 350 151T492 293T533 515Q533 715 426 803T70 891V985L1412 1075V927Q1525 1006 1687 1049T2006 1092Q2130 1092 2220 1071T2371 1012Q2487 936 2487 801Q2487 698 2370 621Q2313 584
2230 561T2039 537Q1847 537 1729 595Q1612 651 1612 744Q1612 816 1666 862T1803 931T1967 955Q1786 955 1660 923T1412 816V524Q1412 381 1459 289T1617 149T1919 94V0H70Z" />
<glyph unicode="s" glyph-name="s" horiz-adv-x="2443" d="M238 -56Q227 -32 218 12T201 107T191 202T187 271H310Q337 226 413 189T604 126Q840 72 1189 72Q1287 72 1345 98Q1402 124 1402 163Q1402 197 1367 217T1270 251Q1189 268 1075 275T833 291T580 321Q458
342 356 381T194 489T133 667Q133 780 198 860T380 993Q493 1043 643 1067T966 1092Q1100 1092 1235 1085T1495 1068Q1620 1059 1721 1052T1881 1044Q1950 1044 2031 1054T2158 1093Q2173 1061 2184 1002T2202 884T2209 791H2089Q2069 824 1997 860T1812 924Q1700
953 1557 971T1252 989Q1230 989 1193 984T1127 961T1097 907Q1097 874 1131 853T1224 818Q1283 804 1361 795T1527 776Q1615 766 1708 754T1889 722Q2008 696 2105 651T2261 535T2319 355Q2319 268 2261 195T2097 69Q1992 15 1848 -15T1533 -45Q1393 -45 1257
-38T990 -22Q860 -13 737 -6T502 1Q436 1 359 -11T238 -56Z" />
<glyph unicode="t" glyph-name="t" horiz-adv-x="2049" d="M1153 -45Q1094 -45 1037 -43T927 -37Q820 -29 729 -9T564 49Q491 87 438 145Q386 204 358 287T330 484V909H58V1003Q239 1003 407 1033T713 1123Q853 1184 944 1277T1053 1497H1265V1047H1892V909H1265V597Q1265
460 1277 365T1320 210Q1380 96 1548 96Q1640 96 1722 121T1856 208T1908 380H2029Q2029 275 1991 197T1857 65Q1792 29 1696 5Q1599 -20 1465 -32T1153 -45Z" />
<glyph unicode="u" glyph-name="u" horiz-adv-x="2835" d="M862 -45Q786 -45 693 -39T510 4Q454 26 410 67Q367 108 342 168T316 316Q316 384 324 470T332 622Q332 691 316 757T246 867T75 911Q44 911 8 908V1002L1240 1092V505Q1240 430 1249 375T1280 283Q1325
209 1440 209Q1507 209 1576 231V617Q1576 734 1548 799T1473 897T1370 943V1020L2455 1110V468Q2455 337 2479 257T2581 138T2817 92L2823 -2Q2718 -2 2585 -4T2286 -10Q2120 -13 1999 -15T1798 -18Q1710 -18 1658 28T1588 130Q1422 50 1247 3T862 -45Z" />
<glyph unicode="v" glyph-name="v" horiz-adv-x="2622" d="M820 0Q754 106 684 226T539 473Q472 586 411 682T300 834Q264 876 211 902T103 940T10 953V1047H1636V953Q1589 953 1526 946T1414 921T1366 865Q1366 816 1499 565Q1559 453 1629 334T1755 130Q1782
165 1837 266T1960 504Q2026 636 2067 735T2109 861Q2109 895 2069 915T1966 944T1839 953V1047H2612V953Q2524 953 2433 927T2283 818Q2235 751 2185 659T2078 453Q2023 344 1965 229T1844 0H820Z" />
<glyph unicode="w" glyph-name="w" horiz-adv-x="3837" d="M722 0Q688 75 640 189T531 440Q475 565 418 672T310 834Q271 876 216 902T106 941T10 953V1047H1480V953Q1409 953 1368 932T1326 874Q1326 846 1348 769T1409 578Q1446 469 1493 355T1587 145Q1619
209 1656 305T1731 511Q1766 615 1790 708T1815 848Q1815 916 1773 934T1638 953V1047H2986V953Q2895 953 2851 927Q2806 902 2806 865Q2806 836 2829 756T2890 571Q2927 467 2977 349T3073 141Q3099 191 3141 296T3227 528Q3324 807 3324 861Q3324 899 3287 926T3144
953V1047H3827V953Q3706 953 3623 921T3498 818Q3464 760 3416 651T3314 411Q3209 146 3158 0H2208Q2187 50 2156 133T2088 310Q2053 399 2012 493T1938 646Q1907 589 1868 503T1789 315Q1752 221 1720 137T1670 0H722Z" />
<glyph unicode="x" glyph-name="x" horiz-adv-x="2741" d="M75 0V94Q160 94 244 143T408 256Q526 350 620 427T791 573Q720 642 642 709T485 834Q450 859 393 881T275 920Q214 935 160 944T75 953V1047H1861V953Q1790 953 1744 936T1698 865Q1698 842 1754 768Q1781
733 1818 689T1900 596Q1954 633 2007 670T2103 743Q2145 778 2171 808T2198 861Q2198 896 2164 924T2054 953V1047H2730V953Q2660 953 2569 917T2399 818L2184 649Q2132 609 2086 571T1996 497Q2072 422 2157 348T2329 212Q2363 188 2417 167T2531 129T2643 103T2726
94V0H953V94Q1024 94 1070 111T1116 182Q1116 206 1052 289Q991 369 887 477Q833 440 779 399T681 318Q638 278 610 244T582 185Q582 151 616 123T726 94V0H75Z" />
<glyph unicode="y" glyph-name="y" horiz-adv-x="2611" d="M865 -546Q681 -546 520 -528T237 -475T46 -386T-23 -263Q-23 -161 104 -97Q165 -67 251 -50T445 -33Q575 -33 674 -59T831 -131T888 -234Q888 -308 787 -361T486 -414Q531 -421 594 -428T721 -439T832
-443Q1076 -443 1282 -368T1657 -89H895Q808 77 725 219T567 478Q417 709 301 826Q238 889 190 915T96 947T-10 953V1047H1656V953Q1622 953 1576 950T1486 937T1414 910T1385 864Q1385 834 1424 753T1528 557Q1590 446 1656 330T1781 107Q1822 181 1876 283T1987
501Q2040 610 2077 704T2115 844Q2115 889 2079 912T1985 944T1859 953V1047H2622V953Q2544 953 2490 942T2394 900T2309 813Q2248 734 2200 643T2103 449Q2054 347 1999 235T1870 0Q1773 -156 1658 -261T1415 -429Q1286 -493 1148 -519T865 -546Z" />
<glyph unicode="z" glyph-name="z" horiz-adv-x="2459" d="M136 0V104Q182 104 223 139T346 256Q421 331 518 427T754 654T1090 964Q885 960 736 945T490 895Q300 827 300 660H187V1047H2345V953Q2314 953 2278 917T2169 807Q2110 746 2013 651T1769 417T1408
88Q1610 91 1762 104T2017 151Q2118 184 2169 241T2220 387H2333V0H136Z" />
<glyph unicode="{" glyph-name="braceleft" horiz-adv-x="1412" d="M848 -277Q716 -277 620 -261T460 -211Q335 -143 335 8Q335 70 359 141T414 283Q443 350 468 406T493 494Q493 556 428 576T275 596V694Q362 694 427 714T493 796Q493 828 468 884T414 1008Q383
1078 359 1149T335 1282Q335 1434 460 1502Q523 1537 619 1552T848 1567Q935 1567 1036 1563T1262 1547V1434Q1220 1437 1185 1437Q1101 1437 1046 1422T957 1378Q924 1350 911 1311T898 1223Q898 1172 921 1115T968 998T992 878Q992 784 902 717T603 645Q749 643
834 611T955 527T992 412Q992 353 969 293T922 176T898 67Q898 19 911 -19T957 -87Q990 -115 1045 -131T1185 -147Q1220 -147 1262 -144V-257Q1137 -269 1036 -273T848 -277Z" />
<glyph unicode="|" glyph-name="bar" horiz-adv-x="516" d="M278 -589Q226 -589 176 -579Q182 -515 187 -362Q189 -290 190 -206T193 -34Q195 174 195 322T196 525Q196 622 195 733T193 955T191 1162Q190 1257 189 1350T185 1522Q183 1602 181 1664T176 1763Q189
1767 224 1769T278 1772Q298 1772 331 1770T380 1763Q377 1728 375 1665T371 1518Q369 1436 368 1340T365 1145L362 772L360 525L362 290L365 -40Q366 -126 367 -209T371 -363Q373 -435 375 -491T380 -579Q333 -589 278 -589Z" />
<glyph unicode="}" glyph-name="braceright" horiz-adv-x="1412" d="M564 -277Q477 -277 376 -273T150 -257V-144Q192 -147 227 -147Q311 -147 366 -131T455 -87Q488 -58 501 -20T514 67Q514 118 491 175T444 293T420 412Q420 507 510 574T809 645Q665 648 580
679T457 763T420 878Q420 938 443 997T490 1114T514 1223Q514 1271 501 1310T455 1378Q422 1407 367 1422T227 1437Q192 1437 150 1434V1547Q275 1559 376 1563T564 1567Q696 1567 792 1552T952 1502Q1077 1434 1077 1282Q1077 1220 1053 1149T998 1008Q969 941
944 885T919 796Q919 735 984 715T1137 694V596Q1050 596 985 576T919 494Q919 463 944 407T998 283Q1029 213 1053 142T1077 8Q1077 -143 952 -211Q889 -245 793 -261T564 -277Z" />
<glyph unicode="~" glyph-name="asciitilde" horiz-adv-x="1707" d="M1182 393Q1071 393 955 421T719 478T478 506Q434 506 368 502T234 486T123 457L88 591Q147 663 229 703T398 759T558 776Q670 776 787 748T1025 693T1264 665Q1306 665 1374 670T1510 685T1619
714L1654 580Q1595 509 1513 468T1344 410T1182 393Z" />
<glyph unicode="&#xa0;" glyph-name="uni00A0" horiz-adv-x="885" />
<glyph unicode="&#xa1;" glyph-name="exclamdown" horiz-adv-x="1148" d="M574 638Q479 638 396 660T251 720Q189 758 153 808T117 915Q117 972 153 1022T251 1110Q313 1148 396 1169T574 1190Q668 1190 752 1169T897 1110Q959 1073 994 1023T1030 915Q1030 858
995 808T897 720Q836 683 752 661T574 638ZM574 -535Q440 -535 326 -507T141 -411T71 -231Q71 -177 100 -125Q129 -75 171 -26T265 72Q342 146 400 229T458 406Q458 447 491 465T574 484Q623 484 656 466T690 406Q690 312 748 229T884 72Q909 47 932 23T977 -26Q1020
-75 1048 -125T1077 -231Q1077 -344 1007 -411T823 -506T574 -535Z" />
<glyph unicode="&#xa2;" glyph-name="cent" horiz-adv-x="2522" d="M1322 -95Q1303 -95 1267 -93T1214 -86Q1217 -44 1220 12T1225 135Q993 144 795 177T449 275Q301 340 217 442T133 690Q133 832 223 936T468 1110Q623 1179 824 1216T1261 1264Q1259 1326 1256
1379T1250 1473Q1276 1478 1304 1480T1359 1483Q1384 1483 1413 1481T1469 1473Q1464 1435 1461 1383T1456 1268Q1638 1267 1798 1247T2088 1188Q2214 1150 2290 1094T2367 969Q2367 866 2250 794Q2193 758 2110 737T1919 715Q1785 715 1676 742T1501 817T1436
926Q1436 1004 1537 1069T1838 1135Q1781 1151 1720 1158T1595 1165Q1473 1165 1365 1127T1188 997T1120 746Q1120 628 1170 543T1300 404Q1380 350 1481 323T1693 295Q1808 295 1915 315T2104 370Q2186 405 2235 450T2284 547H2407Q2407 444 2330 366T2120 235Q1855
131 1455 131H1419Q1421 68 1424 14T1430 -86Q1416 -90 1379 -92T1322 -95Z" />
<glyph unicode="&#xa3;" glyph-name="sterling" horiz-adv-x="3256" d="M2455 -81Q2281 -81 2124 -49T1820 32T1529 133L1525 129Q1484 90 1419 56T1258 -3Q1162 -28 1033 -42T738 -57Q528 -57 405 -25T228 64T174 196Q174 262 241 316T435 402T737 435Q766 435
796 434T859 431Q834 463 805 494L747 557Q622 553 512 551T330 542Q326 555 324 590T321 644Q321 664 323 697T330 746Q378 742 452 739T613 734Q595 769 585 807T574 888Q574 1009 658 1096T888 1239Q1034 1295 1231 1321T1661 1347Q1797 1347 1954 1341T2271
1321T2570 1282Q2676 1264 2767 1240T2925 1185Q2991 1154 3029 1115T3067 1029Q3067 970 3025 929T2915 861Q2847 835 2761 823T2584 811Q2421 811 2307 840T2132 914T2071 1009Q2071 1085 2189 1134Q2248 1159 2337 1174T2547 1191Q2439 1205 2320 1216T2053
1228Q1961 1228 1885 1217T1753 1169T1667 1062T1636 870Q1636 840 1640 804T1650 727Q1746 729 1841 730T2015 733T2141 740Q2151 690 2151 644Q2151 592 2141 542Q2070 548 1946 553Q1885 555 1815 556T1672 559Q1675 531 1675 506Q1675 462 1669 422T1651 345Q1805
326 1955 314T2247 301Q2354 301 2461 309T2663 336Q2759 356 2833 388T2935 469H3028Q3056 428 3077 369T3099 255Q3099 78 2942 -2Q2787 -81 2455 -81ZM654 36Q741 36 800 50T895 88Q930 111 945 140T960 200Q960 247 944 288Q893 295 840 298T731 302Q563 302
464 269Q367 237 367 182Q367 132 414 100T529 52T654 36Z" />
<glyph unicode="&#xa4;" glyph-name="currency" horiz-adv-x="1647" d="M238 -14Q221 -1 197 19T153 59Q139 73 112 103T80 144Q99 160 141 200T233 289T324 376Q284 437 262 506T240 653Q240 806 325 931Q245 1007 182 1069T80 1165Q85 1175 112 1205T153 1250Q173
1270 197 1290T238 1323Q252 1306 293 1263T383 1170T470 1079Q544 1130 634 1159T824 1188Q924 1188 1013 1160T1177 1080Q1255 1163 1316 1225T1409 1323Q1426 1310 1450 1290T1494 1250Q1508 1236 1535 1206T1567 1165Q1554 1154 1521 1123T1448 1053T1374 981T1323
932Q1364 871 1386 801T1409 653Q1409 500 1324 375Q1369 332 1420 283T1512 195T1567 144Q1562 134 1535 104T1494 59Q1475 40 1451 20T1409 -14Q1375 24 1332 68T1248 155T1178 227Q1104 176 1014 148T824 119Q723 119 633 147T469 228Q431 189 383 139T294 47T238
-14ZM824 259Q945 259 1041 306T1192 441T1248 653Q1248 775 1193 863T1042 999T824 1047Q702 1047 606 999T455 863T400 653Q400 530 455 442T607 306T824 259Z" />
<glyph unicode="&#xa5;" glyph-name="yen" horiz-adv-x="2972" d="M407 0V94Q517 97 600 116T743 167Q802 198 840 235T898 312Q809 311 723 310T562 306Q481 303 423 301T328 296Q324 310 322 349T319 408Q319 427 321 455T328 500Q377 496 471 493T684 488T922
484V542Q908 563 893 584T863 626Q757 625 650 623T456 618T328 612Q324 625 322 660T319 714Q319 732 321 763T328 811Q346 810 406 805T553 792T736 779Q619 904 490 998T230 1144T-20 1197V1291H1768V1197Q1680 1197 1633 1161T1586 1063Q1586 1002 1666 874Q1705
811 1761 734T1887 564Q1927 622 1973 692T2060 832T2128 961T2155 1058Q2155 1111 2114 1154T1953 1197V1291H2993V1197Q2834 1193 2691 1136T2428 989T2219 798Q2266 800 2329 802T2454 806T2564 811T2627 816Q2637 769 2637 714Q2637 662 2627 612Q2603 615
2547 616T2407 621Q2321 623 2242 624T2094 626Q2071 588 2056 552T2032 484Q2127 485 2220 486T2392 491Q2472 493 2533 495T2627 500Q2632 474 2634 454T2637 408Q2637 383 2635 353T2627 296Q2559 302 2396 307Q2317 309 2225 310T2038 313Q2075 195 2204 145T2560
94V0H407Z" />
<glyph unicode="&#xa6;" glyph-name="brokenbar" horiz-adv-x="516" d="M194 797Q194 933 193 1060T189 1353Q187 1489 183 1599T176 1761Q189 1765 224 1767T278 1770Q298 1770 331 1768T380 1761Q376 1716 373 1604T368 1361Q365 1198 364 1068T362 797H194ZM278
-589Q259 -589 226 -587T176 -580Q179 -530 183 -423T189 -180Q191 -16 192 114T194 384H362Q362 248 363 121T368 -171Q370 -302 373 -417T380 -580Q367 -584 333 -586T278 -589Z" />
<glyph unicode="&#xa7;" glyph-name="section" horiz-adv-x="2642" d="M346 -447Q336 -425 327 -381T310 -283Q303 -230 299 -185T295 -118H408Q445 -155 535 -191T749 -258Q871 -289 1015 -308T1297 -327Q1384 -327 1447 -313T1510 -258Q1510 -227 1475 -208T1379
-175Q1319 -162 1238 -154T1067 -138Q976 -130 881 -121T695 -95Q577 -74 476 -38T313 59T251 216Q251 295 299 355T428 456Q508 497 606 521T811 561Q665 579 541 615T341 721T266 908Q266 999 325 1069T487 1186Q591 1233 733 1257T1044 1282Q1178 1282 1313
1275T1573 1258Q1698 1249 1799 1242T1959 1234Q2028 1234 2099 1244T2216 1283Q2230 1250 2241 1189T2260 1067T2267 971H2167Q2069 1048 1833 1112Q1713 1144 1584 1161T1330 1179Q1307 1179 1271 1176T1205 1160T1176 1115Q1176 1078 1210 1053T1304 1011Q1383
988 1495 972T1733 941T1974 901Q2063 882 2141 856T2279 790Q2338 751 2372 698T2407 573Q2407 405 2245 338T1773 258Q1894 244 2004 221T2201 160Q2289 120 2340 58T2392 -97Q2392 -187 2335 -251T2179 -356T1948 -416T1668 -436Q1489 -436 1315 -425T965 -402T600
-390Q531 -390 460 -402T346 -447ZM1549 281Q1577 328 1583 359T1590 423Q1590 457 1553 477T1451 509Q1387 521 1301 527T1118 538Q1096 493 1096 434Q1096 381 1158 352T1323 308T1549 281Z" />
<glyph unicode="&#xa8;" glyph-name="dieresis" horiz-adv-x="1707" d="M1173 1323Q1053 1323 987 1375T920 1495Q920 1563 986 1616T1173 1669Q1294 1669 1360 1616T1426 1495Q1426 1428 1360 1376T1173 1323ZM503 1323Q383 1323 317 1375T250 1495Q250 1563
316 1616T503 1669Q624 1669 690 1616T756 1495Q756 1428 690 1376T503 1323Z" />
<glyph unicode="&#xa9;" glyph-name="copyright" horiz-adv-x="3255" d="M1621 -419Q1325 -419 1058 -363T583 -188Q373 -69 253 117T133 553Q133 754 197 907T373 1171T629 1358Q776 1435 943 1479T1287 1543T1634 1563Q1930 1563 2197 1507T2673 1332Q2882 1213
3002 1028T3122 591Q3122 390 3058 237T2882 -27T2626 -214Q2480 -290 2312 -335T1968 -399T1621 -419ZM1630 -279Q1984 -279 2238 -217T2656 -42Q2820 71 2897 226T2974 571Q2974 735 2898 884T2658 1151Q2548 1229 2401 1284Q2252 1340 2061 1371T1634 1403Q1280
1403 1027 1342T609 1167Q446 1055 368 899T290 553Q290 389 366 240T606 -26Q715 -105 863 -160Q1012 -216 1203 -247T1630 -279ZM1712 65Q1460 65 1254 88T898 168Q750 224 668 320T586 564Q586 675 651 765T836 919Q956 983 1125 1018T1504 1053Q1616 1053 1721
1045T1917 1026Q2006 1016 2082 1008T2219 999Q2248 999 2283 1014T2338 1057H2474Q2505 1008 2527 936T2563 789T2576 659H2442Q2421 732 2367 782T2240 862T2087 906T1932 920Q1806 920 1697 889T1520 777T1453 548Q1453 423 1526 346T1716 233T1965 197Q2049
197 2131 213T2280 264Q2351 299 2396 356T2450 493H2584Q2584 293 2364 181Q2255 126 2091 96T1712 65Z" />
<glyph unicode="&#xaa;" glyph-name="ordfeminine" horiz-adv-x="2005" d="M633 946Q564 946 494 955T368 985Q312 1005 277 1037T241 1118Q241 1173 273 1209T359 1267Q412 1288 480 1296T622 1305Q756 1305 865 1302Q919 1301 964 1298T1040 1290V1400Q1040
1498 985 1529T813 1560Q769 1560 727 1559T648 1555Q762 1555 832 1530Q902 1503 902 1452Q902 1411 863 1389T761 1358T623 1350Q556 1350 495 1362T394 1400T355 1464Q355 1508 405 1540T532 1592Q609 1612 699 1621T878 1630Q1008 1630 1129 1626T1360 1597Q1463
1575 1527 1525T1591 1387V1244Q1591 1156 1615 1116T1681 1075Q1728 1075 1748 1103T1776 1188H1854Q1854 1080 1794 1029T1636 963T1425 947Q1359 947 1303 950T1201 962Q1156 971 1123 988T1069 1035Q1044 1020 1007 1005T916 976Q862 963 792 955T633 946ZM889
1069Q927 1069 968 1076T1045 1093Q1040 1113 1040 1147V1219L937 1221Q858 1221 815 1209T772 1146Q772 1104 806 1087T889 1069Z" />
<glyph unicode="&#xab;" glyph-name="guillemotleft" horiz-adv-x="2168" d="M1956 39L1126 432Q1058 463 1024 495T990 575Q990 623 1024 655T1126 718L1956 1111L2028 1035L1470 575L2028 115L1956 39ZM1106 39L276 432Q208 463 174 495T140 575Q140 623 174
655T276 718L1106 1111L1178 1035L620 575L1178 115L1106 39Z" />
<glyph unicode="&#xac;" glyph-name="logicalnot" horiz-adv-x="1714" d="M1472 455Q1451 455 1420 456T1370 460Q1376 501 1379 573T1385 724T1389 867Q1313 870 1233 872T1068 875L840 877Q790 877 726 876T596 874T481 872Q418 871 345 869T214 864T135 857Q132
883 131 908T130 959Q130 984 131 1009T135 1061Q162 1056 217 1053T343 1047T484 1044Q624 1042 721 1042T840 1041Q883 1041 980 1042T1204 1046Q1275 1047 1346 1049T1473 1054T1549 1061Q1552 1044 1553 973T1556 803Q1558 707 1561 614T1574 460Q1554 457
1519 456T1472 455Z" />
<glyph unicode="&#xae;" glyph-name="registered" horiz-adv-x="3255" d="M1621 -419Q1325 -419 1058 -363T583 -188Q373 -69 253 117T133 553Q133 754 197 907T373 1171T629 1358Q776 1435 943 1479T1287 1543T1634 1563Q1930 1563 2197 1507T2673 1332Q2882
1213 3002 1028T3122 591Q3122 390 3058 237T2882 -27T2626 -214Q2480 -290 2312 -335T1968 -399T1621 -419ZM1630 -279Q1984 -279 2238 -217T2656 -42Q2820 71 2897 226T2974 571Q2974 735 2898 884T2658 1151Q2548 1229 2401 1284Q2252 1340 2061 1371T1634 1403Q1280
1403 1027 1342T609 1167Q446 1055 368 899T290 553Q290 389 366 240T606 -26Q715 -105 863 -160Q1012 -216 1203 -247T1630 -279ZM2260 71Q2132 71 2047 80T1920 115Q1893 132 1878 157Q1862 183 1855 217T1843 298Q1835 371 1817 415T1752 482T1615 510Q1617
335 1642 256T1750 176V111H625V176Q752 180 823 217T923 339T952 573Q952 796 877 884Q837 930 775 949T625 969V1034H1656Q1956 1034 2153 1015T2447 945T2545 796Q2545 735 2491 688T2338 609Q2135 543 1805 541H2123Q2226 541 2301 531T2428 490Q2528 432 2558
269Q2568 216 2593 197T2689 177V106Q2618 97 2558 91T2444 80Q2339 71 2260 71ZM1615 606Q1679 609 1738 617T1842 644Q1887 662 1914 692T1941 770Q1941 866 1858 908Q1817 929 1756 938T1615 951V606Z" />
<glyph unicode="&#xaf;" glyph-name="overscore" horiz-adv-x="1245" d="M113 1468Q110 1494 109 1514T108 1560Q108 1585 109 1605T113 1652Q145 1645 214 1642T362 1636Q456 1633 517 1633T618 1632Q662 1632 731 1633T882 1637Q950 1639 1023 1643T1127 1652Q1129
1634 1130 1605T1132 1560Q1132 1540 1131 1514T1127 1468Q1094 1473 1027 1477T873 1484Q786 1486 719 1487T618 1488Q581 1488 514 1487T360 1484Q178 1478 113 1468Z" />
<glyph unicode="&#xb0;" glyph-name="degree" horiz-adv-x="1239" d="M618 811Q514 811 430 861T296 996T246 1183Q246 1289 296 1373T431 1507T618 1557Q722 1557 807 1507T942 1372T992 1183Q992 1081 943 997T809 862T618 811ZM618 996Q698 996 751 1052T805
1183Q805 1260 751 1315T618 1371Q542 1371 487 1316T431 1183Q431 1107 486 1052T618 996Z" />
<glyph unicode="&#xb1;" glyph-name="plusminus" horiz-adv-x="1684" d="M842 258Q821 258 790 259T740 263Q746 306 749 387T755 559T759 717Q711 717 647 716T520 714T407 712Q304 709 233 706T135 698Q132 724 131 749T130 800Q130 825 131 850T135 902Q157
897 237 893T406 887Q510 884 602 883T759 882Q758 933 757 998T753 1130T748 1252T740 1337Q766 1340 791 1341T842 1342Q867 1342 892 1341T944 1337Q938 1312 934 1256T928 1131T925 995T924 882Q1000 882 1087 884T1275 889Q1376 891 1447 894T1549 902Q1552
882 1553 847T1554 800Q1554 779 1553 748T1549 698Q1523 703 1444 706T1275 711Q1154 713 1079 714T924 717Q925 669 926 604T930 470T935 347T944 263Q924 260 889 259T842 258ZM135 -20Q132 6 131 31T130 82Q130 107 131 132T135 184Q162 179 217 176T343 170T484
167Q624 165 721 165T840 164Q883 164 980 165T1204 169Q1275 170 1346 172T1473 177T1549 184Q1552 164 1553 129T1554 82Q1554 61 1553 30T1549 -20Q1516 -15 1421 -11T1195 -4Q1065 -2 969 -1T840 0Q790 0 726 -1T596 -3T481 -5Q418 -6 345 -8T214 -13T135 -20Z"
/>
<glyph unicode="&#xb2;" glyph-name="uni00B2" horiz-adv-x="1769" d="M1296 831Q1200 831 1079 848T840 888Q725 910 613 927T423 945H412Q421 929 421 915Q421 884 391 860T320 835Q259 835 214 873T168 984Q168 1126 290 1209T675 1324Q844 1349 930 1393T1017
1521Q1017 1598 934 1637T699 1676Q644 1676 594 1672T509 1665Q655 1657 705 1623T756 1539Q756 1493 717 1460T615 1410T487 1393Q422 1393 363 1410T266 1465T228 1561Q228 1624 307 1673T531 1750T866 1779Q899 1779 964 1778T1111 1770T1276 1748Q1357 1733
1428 1706T1543 1635T1587 1529Q1587 1373 1381 1302Q1276 1266 1116 1247T736 1217Q616 1211 536 1192T406 1146Q357 1118 336 1084T315 1015V1004Q315 1000 317 990H318Q357 1029 425 1052T594 1089Q693 1102 824 1106T1121 1111Q1203 1111 1276 1118T1406 1140Q1462
1154 1498 1175T1543 1223Q1572 1205 1601 1161T1630 1051Q1630 960 1586 913T1467 848T1296 831Z" />
<glyph unicode="&#xb3;" glyph-name="uni00B3" horiz-adv-x="1769" d="M930 921Q753 921 609 932T364 967Q151 1015 151 1102Q151 1154 194 1185T304 1230T439 1245Q506 1245 560 1236T652 1209Q732 1174 732 1129Q732 1106 721 1087T683 1053Q656 1039 611 1031T499
1021Q522 1020 548 1017T603 1010Q632 1006 666 1004T739 1002Q802 1002 859 1006T961 1025Q1005 1040 1031 1068T1057 1144Q1057 1214 979 1250Q939 1268 875 1278T721 1289V1378Q890 1378 969 1414Q1048 1450 1048 1527Q1048 1593 1011 1623T912 1663T775 1672Q700
1672 649 1663Q598 1654 563 1654Q634 1650 675 1639T735 1610Q755 1593 759 1571T763 1523Q763 1462 680 1431T484 1399Q415 1399 352 1414T250 1464T210 1553Q210 1600 268 1637T423 1699Q518 1724 642 1737T899 1750Q1027 1750 1148 1738T1365 1700Q1461 1674
1521 1635T1581 1541Q1581 1491 1543 1455T1434 1393Q1364 1368 1267 1353T1051 1331Q1230 1326 1371 1308T1595 1250T1677 1141Q1677 1072 1619 1029T1457 962T1219 930T930 921Z" />
<glyph unicode="&#xb4;" glyph-name="acute" horiz-adv-x="1707" d="M287 1187Q457 1288 586 1371T842 1540Q955 1615 1035 1668T1147 1736Q1204 1761 1262 1761Q1327 1761 1382 1717T1438 1589Q1438 1531 1400 1483T1292 1405Q1262 1392 1195 1376T1024 1334Q921
1309 783 1274T472 1187H287Z" />
<glyph unicode="&#xb5;" glyph-name="uni00B5" horiz-adv-x="2657" d="M215 -462V1047H1092V320Q1092 226 1138 183T1258 139Q1330 139 1419 178Q1416 210 1416 246V1047H2293V321Q2293 200 2376 146Q2417 119 2478 107T2619 95V15Q2570 6 2468 -4T2229 -24Q2096
-34 1977 -39T1788 -45Q1646 -45 1566 -17T1451 73Q1367 20 1269 -12T1047 -45H1026L1004 -44Q1016 -139 1038 -227T1092 -382V-462H215Z" />
<glyph unicode="&#xb6;" glyph-name="paragraph" horiz-adv-x="2680" d="M845 -500V-406Q901 -404 951 -400T1044 -390Q1130 -378 1193 -351T1299 -275Q1341 -230 1369 -153Q1396 -78 1409 29T1427 285Q1247 266 1090 266Q835 266 647 300T335 398Q89 525 89 760Q89
891 146 987T344 1152Q437 1196 580 1228Q721 1259 915 1275T1364 1291H1666V-500H845ZM1899 -500V1291H2634V1197Q2428 1197 2315 1092T2157 781T2112 272Q2112 141 2126 35Q2154 -165 2239 -265Q2284 -316 2340 -345Q2398 -375 2471 -389T2634 -406V-500H1899Z"
/>
<glyph unicode="&#xb7;" glyph-name="middot" horiz-adv-x="1147" d="M573 355Q443 355 340 390T177 489T117 640Q117 704 151 756T247 846Q308 882 391 902T573 922Q671 922 755 902T900 846Q961 809 995 757T1030 640Q1030 554 970 490T807 390T573 355Z" />
<glyph unicode="&#xb8;" glyph-name="cedilla" horiz-adv-x="1707" d="M806 -589Q587 -589 408 -520Q322 -487 262 -437T187 -322H338Q350 -355 390 -383T491 -432Q617 -476 779 -476Q1067 -476 1067 -352Q1067 -310 1021 -283T910 -244T787 -231Q763 -231 714
-235T641 -244V99L792 156L793 -124Q821 -117 864 -115T954 -113Q1010 -113 1102 -116T1292 -141Q1386 -163 1449 -212T1512 -346Q1512 -460 1330 -524Q1240 -555 1109 -572T806 -589Z" />
<glyph unicode="&#xb9;" glyph-name="uni00B9" horiz-adv-x="1357" d="M204 884V966Q325 970 391 1011T482 1125T508 1291Q508 1343 498 1394T458 1492Q430 1536 374 1564T235 1593V1674Q299 1674 393 1684T590 1710Q691 1725 778 1742T917 1773L1009 1749V1308Q1011
1141 1070 1057T1281 966V884H204Z" />
<glyph unicode="&#xba;" glyph-name="ordmasculine" horiz-adv-x="1997" d="M998 946Q782 946 620 983T368 1096T277 1287Q277 1403 367 1479T619 1592T998 1630Q1213 1630 1375 1593T1628 1480T1719 1287Q1719 1171 1628 1096T1375 983T998 946ZM998 1039Q1058
1039 1089 1110T1120 1287Q1120 1395 1090 1466T998 1538Q941 1538 909 1469T876 1287Q876 1177 908 1108T998 1039Z" />
<glyph unicode="&#xbb;" glyph-name="guillemotright" horiz-adv-x="2168" d="M1062 39L990 115L1548 575L990 1035L1062 1111L1892 718Q1960 687 1994 655T2028 575Q2028 527 1994 495T1892 432L1062 39ZM212 39L140 115L698 575L140 1035L212 1111L1042 718Q1110
687 1144 655T1178 575Q1178 527 1144 495T1042 432L212 39Z" />
<glyph unicode="&#xbc;" glyph-name="onequarter" horiz-adv-x="3188" d="M164 884V966Q285 970 351 1011T442 1125T468 1291Q468 1343 458 1394T418 1492Q390 1536 334 1564T195 1593V1674Q259 1674 353 1684T550 1710Q658 1726 744 1743T877 1773L969 1749V1325Q969
1153 1027 1063T1241 966V884H164ZM591 -225Q496 -162 433 -64Q495 -15 613 95T879 347L1146 605L1326 783Q1393 850 1472 929T1633 1092T1789 1253Q1936 1405 2044 1518T2217 1703Q2264 1669 2304 1630T2373 1543Q2303 1483 2186 1369T1917 1109Q1841 1036 1775
970T1649 845L1467 666Q1424 623 1365 565T1222 422T1015 215Q929 128 841 38T686 -123T591 -225ZM1811 0V59Q1928 63 2003 135T2104 310H1420V418Q1468 444 1562 506T1760 642Q1822 686 1881 730T1980 809T2019 858H2690V418H3015V310H2697Q2714 191 2780 128T2977
59V0H1811ZM1698 408Q1701 408 1706 412Q1711 417 1721 418H2117V729Q2117 742 2101 742Q2074 742 2010 705T1869 605Q1800 550 1749 495T1697 411Q1697 408 1698 408Z" />
<glyph unicode="&#xbd;" glyph-name="onehalf" horiz-adv-x="3188" d="M204 884V966Q325 970 391 1011T482 1125T508 1291Q508 1343 498 1394T458 1492Q430 1536 374 1564T235 1593V1674Q299 1674 393 1684T590 1710Q691 1725 778 1742T917 1773L1009 1749V1325Q1009
1153 1067 1063T1281 966V884H204ZM601 -225Q506 -162 443 -64Q505 -15 623 95T889 347L1156 605L1336 783Q1403 850 1482 929T1643 1092T1799 1253Q1946 1405 2054 1518T2227 1703Q2274 1669 2314 1630T2383 1543Q2313 1483 2196 1369T1927 1109Q1851 1036 1785
970T1659 845L1477 666Q1434 623 1375 565T1232 422T1025 215Q939 128 851 38T696 -123T601 -225ZM2711 -132Q2615 -132 2494 -115T2255 -75Q2140 -53 2028 -36T1838 -18H1827Q1836 -34 1836 -48Q1836 -79 1806 -103T1735 -128Q1674 -128 1629 -90T1583 21Q1583
163 1705 246T2090 361Q2259 386 2345 430T2432 558Q2432 635 2349 674T2114 713Q2059 713 2009 709T1924 702Q2070 694 2120 660T2171 576Q2171 530 2132 497T2030 447T1902 430Q1837 430 1778 447T1681 502T1643 598Q1643 661 1722 710T1946 787T2281 816Q2314
816 2379 815T2526 807T2691 785Q2772 770 2843 743T2958 672T3002 566Q3002 410 2796 339Q2691 303 2531 284T2151 254Q2031 248 1951 229T1821 183Q1772 155 1751 121T1730 52V41Q1730 37 1732 27H1733Q1772 66 1840 89T2009 126Q2108 139 2239 143T2536 148Q2618
148 2691 155T2821 177Q2877 191 2913 212T2958 260Q2987 242 3016 198T3045 88Q3045 -3 3001 -50T2882 -115T2711 -132Z" />
<glyph unicode="&#xbe;" glyph-name="threequarters" horiz-adv-x="3363" d="M816 921Q551 921 370 962Q282 982 226 1014T170 1090Q170 1142 211 1175T314 1226T442 1243Q558 1243 629 1209T701 1127Q701 1080 641 1050Q581 1019 452 1016L565 1008Q633 1002
708 1002Q788 1002 861 1011T981 1050T1028 1144Q1028 1214 954 1250Q915 1268 855 1278T709 1289V1378Q871 1378 950 1414Q1029 1450 1029 1527Q1029 1593 988 1624T884 1663T751 1672Q683 1672 616 1666T516 1659Q653 1651 701 1617T749 1533Q749 1470 672 1435T494
1399Q429 1399 370 1414T273 1464T235 1553Q235 1600 293 1637T446 1699Q538 1724 658 1737T906 1750Q1028 1750 1139 1738T1339 1700Q1427 1674 1480 1634T1533 1541Q1533 1475 1468 1432T1288 1365T1023 1331Q1192 1326 1326 1308T1537 1250T1615 1141Q1615 1072
1555 1029T1385 962T1131 930T816 921ZM760 -225Q665 -162 602 -64Q664 -15 782 95T1048 347L1315 605L1495 783Q1562 850 1641 929T1802 1092T1958 1253Q2105 1405 2213 1518T2386 1703Q2433 1669 2473 1630T2542 1543Q2472 1483 2355 1369T2086 1109Q2010 1036
1944 970T1818 845L1636 666Q1593 623 1534 565T1391 422T1184 215Q1098 128 1010 38T855 -123T760 -225ZM2011 0V59Q2128 63 2203 135T2304 310H1620V418Q1668 444 1762 506T1960 642Q2022 686 2081 730T2180 809T2219 858H2900V418H3225V310H2907Q2924 191 2990
128T3187 59V0H2011ZM1898 408Q1899 408 1907 413Q1915 418 1926 418H2317V729Q2317 742 2301 742Q2270 742 2204 702T2069 605Q1993 543 1945 490T1897 411Q1897 408 1898 408Z" />
<glyph unicode="&#xbf;" glyph-name="questiondown" horiz-adv-x="2637" d="M1331 638Q1236 638 1153 660T1008 720Q946 758 910 808T874 915Q874 972 910 1022T1008 1110Q1070 1148 1153 1169T1331 1190Q1425 1190 1509 1169T1654 1110Q1716 1073 1751 1023T1787
915Q1787 858 1752 808T1654 720Q1593 683 1509 661T1331 638ZM1290 -485Q1229 -485 1145 -484T966 -478Q871 -473 770 -463T572 -434Q475 -416 390 -389T239 -321Q175 -282 137 -229T98 -105Q98 -25 138 25Q178 76 249 111T417 172L628 225Q741 253 866 289T1119
383Q1163 403 1185 426T1224 468Q1242 488 1274 499T1368 510Q1423 510 1469 477T1515 383Q1515 330 1485 289Q1454 247 1408 211T1308 139Q1226 86 1164 25T1101 -117Q1101 -188 1144 -233T1258 -304Q1329 -330 1422 -339T1615 -349Q1664 -349 1741 -346T1894
-338T2016 -327Q1888 -322 1804 -302T1670 -251Q1619 -221 1599 -183T1578 -105Q1578 -51 1616 -8T1720 66Q1855 128 2058 128Q2151 128 2239 113T2397 64Q2465 31 2507 -20T2549 -143Q2549 -202 2498 -252Q2447 -301 2358 -339T2147 -404Q1970 -444 1753 -464T1290
-485Z" />
<glyph unicode="&#xc0;" glyph-name="Agrave" horiz-adv-x="3186" d="M70 0V94Q99 94 149 111T259 166Q319 204 384 262T509 406L1131 1291H2140L2685 428Q2742 338 2809 275T2942 171Q3007 131 3064 113T3161 94V0H1240V94Q1301 94 1356 116T1447 182T1482 291Q1482
313 1472 346H675Q666 322 666 300Q666 233 701 187T792 118T909 94V0H70ZM748 485H1412Q1391 525 1363 577T1297 697Q1259 764 1212 847T1104 1032Q1036 929 980 845T880 693Q837 626 804 575T748 485ZM1589 1431Q1417 1482 1279 1517T1037 1578Q934 1603 867
1619T769 1649Q700 1678 662 1726T623 1833Q623 1916 678 1960T799 2005Q857 2005 914 1980Q946 1966 1026 1913T1220 1784Q1347 1699 1475 1616T1774 1431H1589Z" />
<glyph unicode="&#xc1;" glyph-name="Aacute" horiz-adv-x="3186" d="M70 0V94Q99 94 149 111T259 166Q319 204 384 262T509 406L1131 1291H2140L2685 428Q2742 338 2809 275T2942 171Q3007 131 3064 113T3161 94V0H1240V94Q1301 94 1356 116T1447 182T1482 291Q1482
313 1472 346H675Q666 322 666 300Q666 233 701 187T792 118T909 94V0H70ZM748 485H1412Q1391 525 1363 577T1297 697Q1259 764 1212 847T1104 1032Q1036 929 980 845T880 693Q837 626 804 575T748 485ZM1408 1431Q1578 1532 1707 1615T1963 1784Q2076 1859 2156
1912T2268 1980Q2325 2005 2383 2005Q2448 2005 2503 1961T2559 1833Q2559 1775 2521 1727T2413 1649Q2383 1636 2316 1620T2145 1578Q2042 1553 1904 1518T1593 1431H1408Z" />
<glyph unicode="&#xc2;" glyph-name="Acircumflex" horiz-adv-x="3186" d="M70 0V94Q99 94 149 111T259 166Q319 204 384 262T509 406L1131 1291H2140L2685 428Q2742 338 2809 275T2942 171Q3007 131 3064 113T3161 94V0H1240V94Q1301 94 1356 116T1447 182T1482
291Q1482 313 1472 346H675Q666 322 666 300Q666 233 701 187T792 118T909 94V0H70ZM748 485H1412Q1391 525 1363 577T1297 697Q1259 764 1212 847T1104 1032Q1036 929 980 845T880 693Q837 626 804 575T748 485ZM798 1431Q845 1466 886 1498T965 1561Q1039 1621
1097 1671T1203 1764Q1271 1826 1329 1874T1444 1960Q1473 1979 1506 1994T1593 2010Q1646 2010 1679 1995T1742 1960Q1799 1923 1857 1875T1983 1764L2089 1672Q2148 1621 2221 1561T2388 1431H2224L1593 1684L962 1431H798Z" />
<glyph unicode="&#xc3;" glyph-name="Atilde" horiz-adv-x="3186" d="M70 0V94Q99 94 149 111T259 166Q319 204 384 262T509 406L1131 1291H2140L2685 428Q2742 338 2809 275T2942 171Q3007 131 3064 113T3161 94V0H1240V94Q1301 94 1356 116T1447 182T1482 291Q1482
313 1472 346H675Q666 322 666 300Q666 233 701 187T792 118T909 94V0H70ZM748 485H1412Q1391 525 1363 577T1297 697Q1259 764 1212 847T1104 1032Q1036 929 980 845T880 693Q837 626 804 575T748 485ZM1856 1470Q1752 1470 1644 1500T1424 1561T1200 1591Q1136
1591 1073 1580T945 1542L910 1586Q976 1716 1044 1781T1183 1868T1329 1890Q1435 1890 1542 1860T1761 1800T1986 1770Q2050 1770 2113 1781T2241 1819L2276 1775Q2226 1677 2176 1618T2072 1525Q2020 1492 1966 1481T1856 1470Z" />
<glyph unicode="&#xc4;" glyph-name="Adieresis" horiz-adv-x="3186" d="M70 0V94Q99 94 149 111T259 166Q319 204 384 262T509 406L1131 1291H2140L2685 428Q2742 338 2809 275T2942 171Q3007 131 3064 113T3161 94V0H1240V94Q1301 94 1356 116T1447 182T1482
291Q1482 313 1472 346H675Q666 322 666 300Q666 233 701 187T792 118T909 94V0H70ZM748 485H1412Q1391 525 1363 577T1297 697Q1259 764 1212 847T1104 1032Q1036 929 980 845T880 693Q837 626 804 575T748 485ZM1928 1477Q1808 1477 1742 1529T1675 1649Q1675
1717 1741 1770T1928 1823Q2049 1823 2115 1770T2181 1649Q2181 1582 2115 1530T1928 1477ZM1258 1477Q1138 1477 1072 1529T1005 1649Q1005 1717 1071 1770T1258 1823Q1379 1823 1445 1770T1511 1649Q1511 1582 1445 1530T1258 1477Z" />
<glyph unicode="&#xc5;" glyph-name="Aring" horiz-adv-x="3186" d="M70 0V94Q99 94 149 111T259 166Q319 204 384 262T509 406L1131 1291H2140L2685 428Q2742 338 2809 275T2942 171Q3007 131 3064 113T3161 94V0H1240V94Q1301 94 1356 116T1447 182T1482 291Q1482
313 1472 346H675Q666 322 666 300Q666 233 701 187T792 118T909 94V0H70ZM748 485H1412Q1391 525 1363 577T1297 697Q1259 764 1212 847T1104 1032Q1036 929 980 845T880 693Q837 626 804 575T748 485ZM1592 1432Q1488 1432 1404 1482T1270 1617T1220 1804Q1220
1910 1270 1994T1405 2128T1592 2178Q1696 2178 1781 2128T1916 1993T1966 1804Q1966 1702 1917 1618T1783 1483T1592 1432ZM1592 1607Q1694 1607 1736 1664T1779 1804Q1779 1889 1736 1945T1592 2002Q1501 2002 1453 1945T1405 1804Q1405 1721 1453 1664T1592
1607Z" />
<glyph unicode="&#xc6;" glyph-name="AE" horiz-adv-x="3648" d="M-168 0V94Q-105 94 -39 122T100 201Q171 252 247 323T406 482L1165 1291H3356Q3382 1165 3394 1017T3407 749H3302Q3232 832 3114 910T2854 1048Q2709 1109 2542 1145T2208 1182V686Q2261 702
2340 738T2510 824Q2594 870 2658 907T2751 965Q2768 891 2773 797T2778 626Q2778 555 2772 466T2751 315Q2717 335 2653 372T2506 455Q2427 499 2344 537T2208 592V109Q2375 109 2552 145T2884 243Q3048 307 3171 385T3362 542H3467Q3467 422 3455 274T3416 0H1002V94Q1086
94 1159 137T1243 271V346H566Q561 327 559 310T557 278Q557 208 592 168T680 111T781 94V0H-168ZM634 485H1243V1166Q1047 959 926 826T738 613T634 485Z" />
<glyph unicode="&#xc7;" glyph-name="Ccedilla" horiz-adv-x="2858" d="M1596 -57Q1486 -57 1382 -54T1180 -43Q984 -29 820 3T525 89Q329 169 222 307T115 652Q115 809 201 937T444 1156Q602 1247 824 1296T1322 1346Q1469 1346 1600 1334T1844 1308Q1956 1295
2049 1283T2222 1270Q2258 1270 2307 1292T2378 1352H2598Q2638 1283 2668 1180T2716 972T2733 786H2583Q2555 888 2481 963T2304 1089Q2203 1139 2093 1162T1885 1185Q1776 1185 1677 1157T1501 1064T1379 893T1334 629Q1334 452 1418 335T1638 160T1928 102Q2165
102 2357 211Q2454 266 2518 352T2594 551H2743Q2743 271 2453 107T1596 -57ZM1385 -589Q1166 -589 987 -520Q901 -487 841 -437T766 -322H917Q929 -355 969 -383T1070 -432Q1196 -476 1358 -476Q1646 -476 1646 -352Q1646 -310 1600 -283T1489 -244T1366 -231Q1342
-231 1293 -235T1220 -244V99L1371 156L1372 -124Q1400 -117 1443 -115T1533 -113Q1589 -113 1681 -116T1871 -141Q1965 -163 2028 -212T2091 -346Q2091 -460 1909 -524Q1819 -555 1688 -572T1385 -589Z" />
<glyph unicode="&#xc8;" glyph-name="Egrave" horiz-adv-x="3091" d="M100 0V94Q300 101 412 154T569 331T615 668Q615 826 588 931T496 1097Q454 1135 397 1157Q340 1179 266 1188T100 1197V1291H2893Q2919 1165 2931 1017T2944 749H2839Q2772 849 2643 931T2350
1071Q2186 1130 2007 1161T1655 1192V686Q1711 702 1805 740T2010 829Q2120 880 2197 919T2298 975Q2315 900 2320 801T2325 626Q2325 554 2319 461T2298 305Q2272 321 2192 361T2006 451Q1905 497 1810 537T1655 593V99Q1823 99 2025 133T2423 229Q2548 269 2656
318T2841 425T2949 542H3054Q3054 422 3042 274T3003 0H100ZM1542 1431Q1370 1482 1232 1517T990 1578Q887 1603 820 1619T722 1649Q653 1678 615 1726T576 1833Q576 1916 631 1960T752 2005Q810 2005 867 1980Q899 1966 979 1913T1173 1784Q1300 1699 1428 1616T1727
1431H1542Z" />
<glyph unicode="&#xc9;" glyph-name="Eacute" horiz-adv-x="3091" d="M100 0V94Q300 101 412 154T569 331T615 668Q615 826 588 931T496 1097Q454 1135 397 1157Q340 1179 266 1188T100 1197V1291H2893Q2919 1165 2931 1017T2944 749H2839Q2772 849 2643 931T2350
1071Q2186 1130 2007 1161T1655 1192V686Q1711 702 1805 740T2010 829Q2120 880 2197 919T2298 975Q2315 900 2320 801T2325 626Q2325 554 2319 461T2298 305Q2272 321 2192 361T2006 451Q1905 497 1810 537T1655 593V99Q1823 99 2025 133T2423 229Q2548 269 2656
318T2841 425T2949 542H3054Q3054 422 3042 274T3003 0H100ZM1361 1431Q1531 1532 1660 1615T1916 1784Q2029 1859 2109 1912T2221 1980Q2278 2005 2336 2005Q2401 2005 2456 1961T2512 1833Q2512 1775 2474 1727T2366 1649Q2336 1636 2269 1620T2098 1578Q1995
1553 1857 1518T1546 1431H1361Z" />
<glyph unicode="&#xca;" glyph-name="Ecircumflex" horiz-adv-x="3091" d="M100 0V94Q300 101 412 154T569 331T615 668Q615 826 588 931T496 1097Q454 1135 397 1157Q340 1179 266 1188T100 1197V1291H2893Q2919 1165 2931 1017T2944 749H2839Q2772 849 2643
931T2350 1071Q2186 1130 2007 1161T1655 1192V686Q1711 702 1805 740T2010 829Q2120 880 2197 919T2298 975Q2315 900 2320 801T2325 626Q2325 554 2319 461T2298 305Q2272 321 2192 361T2006 451Q1905 497 1810 537T1655 593V99Q1823 99 2025 133T2423 229Q2548
269 2656 318T2841 425T2949 542H3054Q3054 422 3042 274T3003 0H100ZM751 1431Q798 1466 839 1498T918 1561Q992 1621 1050 1671T1156 1764Q1224 1826 1282 1874T1397 1960Q1426 1979 1459 1994T1546 2010Q1599 2010 1632 1995T1695 1960Q1752 1923 1810 1875T1936
1764L2042 1672Q2101 1621 2174 1561T2341 1431H2177L1546 1684L915 1431H751Z" />
<glyph unicode="&#xcb;" glyph-name="Edieresis" horiz-adv-x="3091" d="M100 0V94Q300 101 412 154T569 331T615 668Q615 826 588 931T496 1097Q454 1135 397 1157Q340 1179 266 1188T100 1197V1291H2893Q2919 1165 2931 1017T2944 749H2839Q2772 849 2643 931T2350
1071Q2186 1130 2007 1161T1655 1192V686Q1711 702 1805 740T2010 829Q2120 880 2197 919T2298 975Q2315 900 2320 801T2325 626Q2325 554 2319 461T2298 305Q2272 321 2192 361T2006 451Q1905 497 1810 537T1655 593V99Q1823 99 2025 133T2423 229Q2548 269 2656
318T2841 425T2949 542H3054Q3054 422 3042 274T3003 0H100ZM1881 1477Q1761 1477 1695 1529T1628 1649Q1628 1717 1694 1770T1881 1823Q2002 1823 2068 1770T2134 1649Q2134 1582 2068 1530T1881 1477ZM1211 1477Q1091 1477 1025 1529T958 1649Q958 1717 1024
1770T1211 1823Q1332 1823 1398 1770T1464 1649Q1464 1582 1398 1530T1211 1477Z" />
<glyph unicode="&#xcc;" glyph-name="Igrave" horiz-adv-x="2269" d="M100 0V94Q300 101 412 154T569 331T615 668Q615 826 588 931T496 1097Q454 1135 397 1157Q340 1179 266 1188T100 1197V1291H2169V1197Q2032 1197 1934 1176T1775 1097T1684 937T1655 668Q1655
452 1700 329T1858 154T2169 94V0H100ZM1131 1431Q959 1482 821 1517T579 1578Q476 1603 409 1619T311 1649Q242 1678 204 1726T165 1833Q165 1916 220 1960T341 2005Q399 2005 456 1980Q488 1966 568 1913T762 1784Q889 1699 1017 1616T1316 1431H1131Z" />
<glyph unicode="&#xcd;" glyph-name="Iacute" horiz-adv-x="2269" d="M100 0V94Q300 101 412 154T569 331T615 668Q615 826 588 931T496 1097Q454 1135 397 1157Q340 1179 266 1188T100 1197V1291H2169V1197Q2032 1197 1934 1176T1775 1097T1684 937T1655 668Q1655
452 1700 329T1858 154T2169 94V0H100ZM950 1431Q1120 1532 1249 1615T1505 1784Q1618 1859 1698 1912T1810 1980Q1867 2005 1925 2005Q1990 2005 2045 1961T2101 1833Q2101 1775 2063 1727T1955 1649Q1925 1636 1858 1620T1687 1578Q1584 1553 1446 1518T1135
1431H950Z" />
<glyph unicode="&#xce;" glyph-name="Icircumflex" horiz-adv-x="2269" d="M100 0V94Q300 101 412 154T569 331T615 668Q615 826 588 931T496 1097Q454 1135 397 1157Q340 1179 266 1188T100 1197V1291H2169V1197Q2032 1197 1934 1176T1775 1097T1684 937T1655
668Q1655 452 1700 329T1858 154T2169 94V0H100ZM340 1431Q387 1466 428 1498T507 1561Q581 1621 639 1671T745 1764Q813 1826 871 1874T986 1960Q1015 1979 1048 1994T1135 2010Q1188 2010 1221 1995T1284 1960Q1341 1923 1399 1875T1525 1764L1631 1672Q1690
1621 1763 1561T1930 1431H1766L1135 1684L504 1431H340Z" />
<glyph unicode="&#xcf;" glyph-name="Idieresis" horiz-adv-x="2269" d="M100 0V94Q300 101 412 154T569 331T615 668Q615 826 588 931T496 1097Q454 1135 397 1157Q340 1179 266 1188T100 1197V1291H2169V1197Q2032 1197 1934 1176T1775 1097T1684 937T1655 668Q1655
452 1700 329T1858 154T2169 94V0H100ZM1470 1477Q1350 1477 1284 1529T1217 1649Q1217 1717 1283 1770T1470 1823Q1591 1823 1657 1770T1723 1649Q1723 1582 1657 1530T1470 1477ZM800 1477Q680 1477 614 1529T547 1649Q547 1717 613 1770T800 1823Q921 1823 987
1770T1053 1649Q1053 1582 987 1530T800 1477Z" />
<glyph unicode="&#xd0;" glyph-name="Eth" horiz-adv-x="3336" d="M100 0V94Q284 101 393 146T554 294T613 576Q540 575 455 573T295 568T177 561Q173 575 171 604T168 653Q168 672 170 700T177 745Q202 743 253 741T369 736T498 733T614 730Q608 922 553 1023T386
1160T100 1197V1291H1747Q1929 1291 2110 1285Q2290 1279 2455 1258T2762 1196Q2903 1154 3008 1083Q3112 1011 3171 905T3231 648Q3231 493 3158 384T2959 205T2671 91Q2513 49 2332 30T1969 5T1621 0H100ZM1655 121Q1750 126 1829 149T1966 229Q2023 286 2055
386T2087 648Q2087 812 2058 918T1971 1079Q1932 1115 1885 1134Q1837 1154 1779 1161T1655 1171V732Q1743 734 1816 737T1936 745Q1941 719 1943 699T1946 653Q1946 611 1936 561Q1891 566 1817 569T1655 575V121Z" />
<glyph unicode="&#xd1;" glyph-name="Ntilde" horiz-adv-x="3330" d="M80 0V94Q280 101 392 154T549 331T595 668Q595 826 568 931T476 1097Q434 1135 377 1157Q320 1179 246 1188T80 1197V1291H1826L2707 575L2709 668Q2709 833 2680 936T2590 1097T2430 1175T2195
1197V1291H3295V1197Q3204 1197 3133 1188Q2992 1170 2926 1097Q2890 1057 2870 1000Q2849 942 2840 860T2831 668V0H1805L1439 315L739 915Q716 819 716 668Q716 452 762 329T920 154T1230 94V0H80ZM1928 1470Q1824 1470 1716 1500T1496 1561T1272 1591Q1208 1591
1145 1580T1017 1542L982 1586Q1048 1716 1116 1781T1255 1868T1401 1890Q1507 1890 1614 1860T1833 1800T2058 1770Q2122 1770 2185 1781T2313 1819L2348 1775Q2298 1677 2248 1618T2144 1525Q2092 1492 2038 1481T1928 1470Z" />
<glyph unicode="&#xd2;" glyph-name="Ograve" horiz-adv-x="3051" d="M1525 -57Q1439 -57 1354 -54T1182 -46Q1010 -35 854 -6T564 74Q429 123 331 202Q232 280 176 389T119 645Q119 792 176 901Q232 1010 330 1088T564 1216Q700 1266 854 1296Q1010 1325 1181
1336T1525 1347Q1611 1347 1697 1344T1869 1336Q2040 1325 2196 1296T2488 1216Q2621 1167 2721 1088Q2819 1010 2875 901T2932 645Q2932 499 2876 389Q2819 280 2721 202T2488 74Q2421 49 2348 29T2197 -5Q2040 -35 1869 -46T1525 -57ZM1520 56Q1618 56 1671 134T1746
346T1767 645Q1767 815 1746 948T1671 1157T1520 1234Q1448 1234 1402 1185T1329 1051Q1304 968 1294 865T1284 645Q1284 480 1302 347T1371 135T1520 56ZM1522 1431Q1350 1482 1212 1517T970 1578Q867 1603 800 1619T702 1649Q633 1678 595 1726T556 1833Q556
1916 611 1960T732 2005Q790 2005 847 1980Q879 1966 959 1913T1153 1784Q1280 1699 1408 1616T1707 1431H1522Z" />
<glyph unicode="&#xd3;" glyph-name="Oacute" horiz-adv-x="3051" d="M1525 -57Q1439 -57 1354 -54T1182 -46Q1010 -35 854 -6T564 74Q429 123 331 202Q232 280 176 389T119 645Q119 792 176 901Q232 1010 330 1088T564 1216Q700 1266 854 1296Q1010 1325 1181
1336T1525 1347Q1611 1347 1697 1344T1869 1336Q2040 1325 2196 1296T2488 1216Q2621 1167 2721 1088Q2819 1010 2875 901T2932 645Q2932 499 2876 389Q2819 280 2721 202T2488 74Q2421 49 2348 29T2197 -5Q2040 -35 1869 -46T1525 -57ZM1520 56Q1618 56 1671 134T1746
346T1767 645Q1767 815 1746 948T1671 1157T1520 1234Q1448 1234 1402 1185T1329 1051Q1304 968 1294 865T1284 645Q1284 480 1302 347T1371 135T1520 56ZM1341 1431Q1511 1532 1640 1615T1896 1784Q2009 1859 2089 1912T2201 1980Q2258 2005 2316 2005Q2381 2005
2436 1961T2492 1833Q2492 1775 2454 1727T2346 1649Q2316 1636 2249 1620T2078 1578Q1975 1553 1837 1518T1526 1431H1341Z" />
<glyph unicode="&#xd4;" glyph-name="Ocircumflex" horiz-adv-x="3051" d="M1525 -57Q1439 -57 1354 -54T1182 -46Q1010 -35 854 -6T564 74Q429 123 331 202Q232 280 176 389T119 645Q119 792 176 901Q232 1010 330 1088T564 1216Q700 1266 854 1296Q1010 1325
1181 1336T1525 1347Q1611 1347 1697 1344T1869 1336Q2040 1325 2196 1296T2488 1216Q2621 1167 2721 1088Q2819 1010 2875 901T2932 645Q2932 499 2876 389Q2819 280 2721 202T2488 74Q2421 49 2348 29T2197 -5Q2040 -35 1869 -46T1525 -57ZM1520 56Q1618 56 1671
134T1746 346T1767 645Q1767 815 1746 948T1671 1157T1520 1234Q1448 1234 1402 1185T1329 1051Q1304 968 1294 865T1284 645Q1284 480 1302 347T1371 135T1520 56ZM731 1431Q778 1466 819 1498T898 1561Q972 1621 1030 1671T1136 1764Q1204 1826 1262 1874T1377
1960Q1406 1979 1439 1994T1526 2010Q1579 2010 1612 1995T1675 1960Q1732 1923 1790 1875T1916 1764L2022 1672Q2081 1621 2154 1561T2321 1431H2157L1526 1684L895 1431H731Z" />
<glyph unicode="&#xd5;" glyph-name="Otilde" horiz-adv-x="3051" d="M1525 -57Q1439 -57 1354 -54T1182 -46Q1010 -35 854 -6T564 74Q429 123 331 202Q232 280 176 389T119 645Q119 792 176 901Q232 1010 330 1088T564 1216Q700 1266 854 1296Q1010 1325 1181
1336T1525 1347Q1611 1347 1697 1344T1869 1336Q2040 1325 2196 1296T2488 1216Q2621 1167 2721 1088Q2819 1010 2875 901T2932 645Q2932 499 2876 389Q2819 280 2721 202T2488 74Q2421 49 2348 29T2197 -5Q2040 -35 1869 -46T1525 -57ZM1520 56Q1618 56 1671 134T1746
346T1767 645Q1767 815 1746 948T1671 1157T1520 1234Q1448 1234 1402 1185T1329 1051Q1304 968 1294 865T1284 645Q1284 480 1302 347T1371 135T1520 56ZM1789 1470Q1685 1470 1577 1500T1357 1561T1133 1591Q1069 1591 1006 1580T878 1542L843 1586Q909 1716
977 1781T1116 1868T1262 1890Q1368 1890 1475 1860T1694 1800T1919 1770Q1983 1770 2046 1781T2174 1819L2209 1775Q2159 1677 2109 1618T2005 1525Q1953 1492 1899 1481T1789 1470Z" />
<glyph unicode="&#xd6;" glyph-name="Odieresis" horiz-adv-x="3051" d="M1525 -57Q1439 -57 1354 -54T1182 -46Q1010 -35 854 -6T564 74Q429 123 331 202Q232 280 176 389T119 645Q119 792 176 901Q232 1010 330 1088T564 1216Q700 1266 854 1296Q1010 1325 1181
1336T1525 1347Q1611 1347 1697 1344T1869 1336Q2040 1325 2196 1296T2488 1216Q2621 1167 2721 1088Q2819 1010 2875 901T2932 645Q2932 499 2876 389Q2819 280 2721 202T2488 74Q2421 49 2348 29T2197 -5Q2040 -35 1869 -46T1525 -57ZM1520 56Q1618 56 1671 134T1746
346T1767 645Q1767 815 1746 948T1671 1157T1520 1234Q1448 1234 1402 1185T1329 1051Q1304 968 1294 865T1284 645Q1284 480 1302 347T1371 135T1520 56ZM1861 1477Q1741 1477 1675 1529T1608 1649Q1608 1717 1674 1770T1861 1823Q1982 1823 2048 1770T2114 1649Q2114
1582 2048 1530T1861 1477ZM1191 1477Q1071 1477 1005 1529T938 1649Q938 1717 1004 1770T1191 1823Q1312 1823 1378 1770T1444 1649Q1444 1582 1378 1530T1191 1477Z" />
<glyph unicode="&#xd7;" glyph-name="multiply" horiz-adv-x="1468" d="M257 142Q221 166 183 205T113 286Q237 374 358 463T601 643Q480 736 358 824T113 1000Q175 1080 257 1144Q369 1041 488 942T733 745Q858 842 977 941T1211 1144Q1250 1113 1286 1077T1355
1000Q1232 914 1110 825T866 642Q989 548 1111 460T1355 286Q1331 250 1292 212T1211 142Q1095 246 976 344T734 540Q609 441 490 342T257 142Z" />
<glyph unicode="&#xd8;" glyph-name="Oslash" horiz-adv-x="3023" d="M286 -166Q255 -137 232 -94T194 -6Q226 9 289 43T438 124Q288 203 197 329T105 645Q105 792 162 901Q218 1010 316 1088T550 1216Q686 1266 840 1296Q996 1325 1167 1336T1511 1347Q1741 1347
1968 1326T2386 1246Q2500 1314 2593 1371T2713 1447Q2775 1378 2805 1288Q2778 1276 2719 1245T2578 1169Q2733 1090 2825 962T2918 645Q2918 499 2862 389Q2805 280 2707 202T2474 74Q2407 49 2334 29T2183 -5Q2026 -35 1855 -46T1511 -57Q1285 -57 1052 -35T630
46Q510 -26 420 -82T286 -166ZM1270 592L1449 695Q1486 716 1563 760T1743 865Q1734 948 1718 1016T1672 1133Q1644 1181 1603 1207T1506 1234Q1434 1234 1388 1185T1315 1051Q1290 968 1280 865T1270 645V592ZM1506 56Q1604 56 1657 134T1732 346T1753 645V675L1752
703L1521 570Q1483 548 1420 512T1278 428Q1292 262 1343 159T1506 56Z" />
<glyph unicode="&#xd9;" glyph-name="Ugrave" horiz-adv-x="3450" d="M1894 -57Q1733 -57 1575 -51Q1416 -46 1273 -24T1008 41Q884 83 796 158Q706 233 656 344T605 615V678Q605 841 575 943T481 1100T321 1176T90 1197V1291H2113V1197Q2020 1197 1949 1170T1831
1081Q1783 1019 1759 917T1734 663Q1734 528 1778 426T1896 256Q1969 187 2063 153T2257 119Q2400 119 2511 176T2687 352T2751 654Q2751 809 2727 913T2656 1080Q2608 1143 2537 1170T2371 1197V1291H3423V1197Q3285 1197 3185 1179T3019 1104Q2954 1049 2923
947T2891 681Q2891 449 2821 301T2618 74Q2529 21 2419 -7Q2308 -36 2176 -46T1894 -57ZM2010 1431Q1838 1482 1700 1517T1458 1578Q1355 1603 1288 1619T1190 1649Q1121 1678 1083 1726T1044 1833Q1044 1916 1099 1960T1220 2005Q1278 2005 1335 1980Q1367 1966
1447 1913T1641 1784Q1768 1699 1896 1616T2195 1431H2010Z" />
<glyph unicode="&#xda;" glyph-name="Uacute" horiz-adv-x="3450" d="M1894 -57Q1733 -57 1575 -51Q1416 -46 1273 -24T1008 41Q884 83 796 158Q706 233 656 344T605 615V678Q605 841 575 943T481 1100T321 1176T90 1197V1291H2113V1197Q2020 1197 1949 1170T1831
1081Q1783 1019 1759 917T1734 663Q1734 528 1778 426T1896 256Q1969 187 2063 153T2257 119Q2400 119 2511 176T2687 352T2751 654Q2751 809 2727 913T2656 1080Q2608 1143 2537 1170T2371 1197V1291H3423V1197Q3285 1197 3185 1179T3019 1104Q2954 1049 2923
947T2891 681Q2891 449 2821 301T2618 74Q2529 21 2419 -7Q2308 -36 2176 -46T1894 -57ZM1829 1431Q1999 1532 2128 1615T2384 1784Q2497 1859 2577 1912T2689 1980Q2746 2005 2804 2005Q2869 2005 2924 1961T2980 1833Q2980 1775 2942 1727T2834 1649Q2804 1636
2737 1620T2566 1578Q2463 1553 2325 1518T2014 1431H1829Z" />
<glyph unicode="&#xdb;" glyph-name="Ucircumflex" horiz-adv-x="3450" d="M1894 -57Q1733 -57 1575 -51Q1416 -46 1273 -24T1008 41Q884 83 796 158Q706 233 656 344T605 615V678Q605 841 575 943T481 1100T321 1176T90 1197V1291H2113V1197Q2020 1197 1949 1170T1831
1081Q1783 1019 1759 917T1734 663Q1734 528 1778 426T1896 256Q1969 187 2063 153T2257 119Q2400 119 2511 176T2687 352T2751 654Q2751 809 2727 913T2656 1080Q2608 1143 2537 1170T2371 1197V1291H3423V1197Q3285 1197 3185 1179T3019 1104Q2954 1049 2923
947T2891 681Q2891 449 2821 301T2618 74Q2529 21 2419 -7Q2308 -36 2176 -46T1894 -57ZM1219 1431Q1266 1466 1307 1498T1386 1561Q1460 1621 1518 1671T1624 1764Q1692 1826 1750 1874T1865 1960Q1894 1979 1927 1994T2014 2010Q2067 2010 2100 1995T2163 1960Q2220
1923 2278 1875T2404 1764L2510 1672Q2569 1621 2642 1561T2809 1431H2645L2014 1684L1383 1431H1219Z" />
<glyph unicode="&#xdc;" glyph-name="Udieresis" horiz-adv-x="3450" d="M1894 -57Q1733 -57 1575 -51Q1416 -46 1273 -24T1008 41Q884 83 796 158Q706 233 656 344T605 615V678Q605 841 575 943T481 1100T321 1176T90 1197V1291H2113V1197Q2020 1197 1949 1170T1831
1081Q1783 1019 1759 917T1734 663Q1734 528 1778 426T1896 256Q1969 187 2063 153T2257 119Q2400 119 2511 176T2687 352T2751 654Q2751 809 2727 913T2656 1080Q2608 1143 2537 1170T2371 1197V1291H3423V1197Q3285 1197 3185 1179T3019 1104Q2954 1049 2923
947T2891 681Q2891 449 2821 301T2618 74Q2529 21 2419 -7Q2308 -36 2176 -46T1894 -57ZM2349 1477Q2229 1477 2163 1529T2096 1649Q2096 1717 2162 1770T2349 1823Q2470 1823 2536 1770T2602 1649Q2602 1582 2536 1530T2349 1477ZM1679 1477Q1559 1477 1493 1529T1426
1649Q1426 1717 1492 1770T1679 1823Q1800 1823 1866 1770T1932 1649Q1932 1582 1866 1530T1679 1477Z" />
<glyph unicode="&#xdd;" glyph-name="Yacute" horiz-adv-x="3178" d="M497 0V94Q642 97 745 130T915 209Q981 256 1011 308T1042 404V542Q949 683 835 802T598 1007Q468 1099 341 1148T100 1197V1291H1898V1197Q1810 1197 1763 1161T1716 1063Q1716 1002 1796
874Q1835 811 1891 734T2017 564Q2057 622 2103 692T2190 832T2258 961T2285 1058Q2285 1111 2244 1154T2083 1197V1291H3123V1197Q2987 1194 2864 1151Q2740 1108 2633 1040T2437 888Q2305 762 2229 634T2153 422Q2153 333 2200 271T2326 169Q2406 130 2512 112T2740
94V0H497ZM1404 1431Q1574 1532 1703 1615T1959 1784Q2072 1859 2152 1912T2264 1980Q2321 2005 2379 2005Q2444 2005 2499 1961T2555 1833Q2555 1775 2517 1727T2409 1649Q2379 1636 2312 1620T2141 1578Q2038 1553 1900 1518T1589 1431H1404Z" />
<glyph unicode="&#xde;" glyph-name="Thorn" horiz-adv-x="3306" d="M100 0V94Q294 101 405 150T565 316T615 636V668Q615 826 588 931T496 1097Q454 1135 397 1157Q340 1179 266 1188T100 1197V1291H2169V1197Q2007 1197 1901 1167T1735 1051H1747Q2120 1051
2398 1035T2862 975Q3047 932 3139 855T3231 658Q3231 518 3118 436T2810 312Q2743 298 2669 287T2513 268Q2348 252 2155 247T1749 240Q1807 166 1909 133T2169 94V0H100ZM1689 359Q1810 361 1911 380T2075 460T2137 648Q2137 774 2078 833T1915 911T1682 931Q1668
879 1662 814T1655 668V636Q1655 551 1664 483T1689 359Z" />
<glyph unicode="&#xdf;" glyph-name="germandbls" horiz-adv-x="3408" d="M1721 -56Q1711 -34 1702 10T1685 108Q1678 161 1674 206T1670 273H1783Q1810 237 1857 200T1972 133Q2039 102 2126 83T2322 64Q2426 64 2480 80Q2535 95 2535 133Q2535 174 2496 200T2392
248Q2319 271 2244 288T2076 333Q1960 367 1855 420T1683 564T1616 795Q1616 873 1633 927Q1650 980 1675 1017T1732 1080Q1747 1093 1761 1106T1789 1132Q1815 1158 1834 1188T1856 1263Q1856 1340 1796 1381T1646 1422Q1539 1422 1485 1388T1412 1296T1393 1169Q1393
1134 1397 1094T1406 1009Q1411 962 1414 904T1418 771V0H75V94Q338 104 441 190Q494 234 516 303T538 470V756H195V850L538 880V1083Q538 1272 653 1368T998 1497T1569 1530Q2027 1530 2281 1455T2535 1214Q2535 1147 2512 1109T2466 1042T2443 972Q2443 922 2483
892T2587 838Q2655 814 2734 798T2903 759Q2990 737 3072 707T3219 630T3323 514T3362 346Q3362 244 3312 171T3176 49Q3089 1 2973 -22T2726 -45Q2662 -45 2597 -43T2463 -38Q2372 -33 2308 -26T2197 -12Q2148 -6 2096 -3T1975 1Q1906 1 1835 -11T1721 -56Z" />
<glyph unicode="&#xe0;" glyph-name="agrave" horiz-adv-x="2814" d="M689 -45Q532 -45 404 -14T201 78T125 221Q125 309 179 367T322 459Q411 492 525 505T761 519Q906 519 1040 516T1282 506T1458 492V709Q1458 867 1367 933Q1321 966 1249 981T1078 996Q932
996 804 988Q995 988 1111 936T1227 796Q1227 730 1165 685T998 618T764 595Q675 595 595 612T452 659Q390 688 354 728T317 816Q317 889 400 942T612 1028Q737 1060 883 1076T1187 1092Q1397 1092 1601 1085T1990 1038Q2161 1001 2269 918T2377 688V449Q2377 356
2389 299T2424 210Q2446 179 2476 168T2540 157Q2603 157 2650 208T2701 356H2814Q2814 212 2749 134T2596 21Q2490 -22 2366 -33T2099 -45Q1872 -45 1719 -18T1501 112Q1459 83 1395 56T1234 5Q1137 -17 1003 -31T689 -45ZM1176 142Q1234 142 1308 149T1468 191Q1458
230 1458 289V396Q1415 398 1371 398T1286 399Q1218 399 1167 394T1080 375Q1010 345 1010 270Q1010 230 1046 186T1176 142ZM1423 1187Q1251 1238 1113 1273T871 1334Q768 1359 701 1375T603 1405Q534 1434 496 1482T457 1589Q457 1672 512 1716T633 1761Q691
1761 748 1736Q780 1722 860 1669T1054 1540Q1181 1455 1309 1372T1608 1187H1423Z" />
<glyph unicode="&#xe1;" glyph-name="aacute" horiz-adv-x="2814" d="M689 -45Q532 -45 404 -14T201 78T125 221Q125 309 179 367T322 459Q411 492 525 505T761 519Q906 519 1040 516T1282 506T1458 492V709Q1458 867 1367 933Q1321 966 1249 981T1078 996Q932
996 804 988Q995 988 1111 936T1227 796Q1227 730 1165 685T998 618T764 595Q675 595 595 612T452 659Q390 688 354 728T317 816Q317 889 400 942T612 1028Q737 1060 883 1076T1187 1092Q1397 1092 1601 1085T1990 1038Q2161 1001 2269 918T2377 688V449Q2377 356
2389 299T2424 210Q2446 179 2476 168T2540 157Q2603 157 2650 208T2701 356H2814Q2814 212 2749 134T2596 21Q2490 -22 2366 -33T2099 -45Q1872 -45 1719 -18T1501 112Q1459 83 1395 56T1234 5Q1137 -17 1003 -31T689 -45ZM1176 142Q1234 142 1308 149T1468 191Q1458
230 1458 289V396Q1415 398 1371 398T1286 399Q1218 399 1167 394T1080 375Q1010 345 1010 270Q1010 230 1046 186T1176 142ZM1242 1187Q1412 1288 1541 1371T1797 1540Q1910 1615 1990 1668T2102 1736Q2159 1761 2217 1761Q2282 1761 2337 1717T2393 1589Q2393
1531 2355 1483T2247 1405Q2217 1392 2150 1376T1979 1334Q1876 1309 1738 1274T1427 1187H1242Z" />
<glyph unicode="&#xe2;" glyph-name="acircumflex" horiz-adv-x="2814" d="M689 -45Q532 -45 404 -14T201 78T125 221Q125 309 179 367T322 459Q411 492 525 505T761 519Q906 519 1040 516T1282 506T1458 492V709Q1458 867 1367 933Q1321 966 1249 981T1078 996Q932
996 804 988Q995 988 1111 936T1227 796Q1227 730 1165 685T998 618T764 595Q675 595 595 612T452 659Q390 688 354 728T317 816Q317 889 400 942T612 1028Q737 1060 883 1076T1187 1092Q1397 1092 1601 1085T1990 1038Q2161 1001 2269 918T2377 688V449Q2377 356
2389 299T2424 210Q2446 179 2476 168T2540 157Q2603 157 2650 208T2701 356H2814Q2814 212 2749 134T2596 21Q2490 -22 2366 -33T2099 -45Q1872 -45 1719 -18T1501 112Q1459 83 1395 56T1234 5Q1137 -17 1003 -31T689 -45ZM1176 142Q1234 142 1308 149T1468 191Q1458
230 1458 289V396Q1415 398 1371 398T1286 399Q1218 399 1167 394T1080 375Q1010 345 1010 270Q1010 230 1046 186T1176 142ZM632 1187Q679 1222 720 1254T799 1317Q873 1377 931 1427T1037 1520Q1105 1582 1163 1630T1278 1716Q1307 1735 1340 1750T1427 1766Q1480
1766 1513 1751T1576 1716Q1633 1679 1691 1631T1817 1520L1923 1428Q1982 1377 2055 1317T2222 1187H2058L1427 1440L796 1187H632Z" />
<glyph unicode="&#xe3;" glyph-name="atilde" horiz-adv-x="2814" d="M689 -45Q532 -45 404 -14T201 78T125 221Q125 309 179 367T322 459Q411 492 525 505T761 519Q906 519 1040 516T1282 506T1458 492V709Q1458 867 1367 933Q1321 966 1249 981T1078 996Q932
996 804 988Q995 988 1111 936T1227 796Q1227 730 1165 685T998 618T764 595Q675 595 595 612T452 659Q390 688 354 728T317 816Q317 889 400 942T612 1028Q737 1060 883 1076T1187 1092Q1397 1092 1601 1085T1990 1038Q2161 1001 2269 918T2377 688V449Q2377 356
2389 299T2424 210Q2446 179 2476 168T2540 157Q2603 157 2650 208T2701 356H2814Q2814 212 2749 134T2596 21Q2490 -22 2366 -33T2099 -45Q1872 -45 1719 -18T1501 112Q1459 83 1395 56T1234 5Q1137 -17 1003 -31T689 -45ZM1176 142Q1234 142 1308 149T1468 191Q1458
230 1458 289V396Q1415 398 1371 398T1286 399Q1218 399 1167 394T1080 375Q1010 345 1010 270Q1010 230 1046 186T1176 142ZM1690 1226Q1586 1226 1478 1256T1258 1317T1034 1347Q970 1347 907 1336T779 1298L744 1342Q810 1472 878 1537T1017 1624T1163 1646Q1269
1646 1376 1616T1595 1556T1820 1526Q1884 1526 1947 1537T2075 1575L2110 1531Q2060 1433 2010 1374T1906 1281Q1854 1248 1800 1237T1690 1226Z" />
<glyph unicode="&#xe4;" glyph-name="adieresis" horiz-adv-x="2814" d="M689 -45Q532 -45 404 -14T201 78T125 221Q125 309 179 367T322 459Q411 492 525 505T761 519Q906 519 1040 516T1282 506T1458 492V709Q1458 867 1367 933Q1321 966 1249 981T1078 996Q932
996 804 988Q995 988 1111 936T1227 796Q1227 730 1165 685T998 618T764 595Q675 595 595 612T452 659Q390 688 354 728T317 816Q317 889 400 942T612 1028Q737 1060 883 1076T1187 1092Q1397 1092 1601 1085T1990 1038Q2161 1001 2269 918T2377 688V449Q2377 356
2389 299T2424 210Q2446 179 2476 168T2540 157Q2603 157 2650 208T2701 356H2814Q2814 212 2749 134T2596 21Q2490 -22 2366 -33T2099 -45Q1872 -45 1719 -18T1501 112Q1459 83 1395 56T1234 5Q1137 -17 1003 -31T689 -45ZM1176 142Q1234 142 1308 149T1468 191Q1458
230 1458 289V396Q1415 398 1371 398T1286 399Q1218 399 1167 394T1080 375Q1010 345 1010 270Q1010 230 1046 186T1176 142ZM1762 1233Q1642 1233 1576 1285T1509 1405Q1509 1473 1575 1526T1762 1579Q1883 1579 1949 1526T2015 1405Q2015 1338 1949 1286T1762
1233ZM1092 1233Q972 1233 906 1285T839 1405Q839 1473 905 1526T1092 1579Q1213 1579 1279 1526T1345 1405Q1345 1338 1279 1286T1092 1233Z" />
<glyph unicode="&#xe5;" glyph-name="aring" horiz-adv-x="2814" d="M689 -45Q532 -45 404 -14T201 78T125 221Q125 309 179 367T322 459Q411 492 525 505T761 519Q906 519 1040 516T1282 506T1458 492V709Q1458 867 1367 933Q1321 966 1249 981T1078 996Q932
996 804 988Q995 988 1111 936T1227 796Q1227 730 1165 685T998 618T764 595Q675 595 595 612T452 659Q390 688 354 728T317 816Q317 889 400 942T612 1028Q737 1060 883 1076T1187 1092Q1397 1092 1601 1085T1990 1038Q2161 1001 2269 918T2377 688V449Q2377 356
2389 299T2424 210Q2446 179 2476 168T2540 157Q2603 157 2650 208T2701 356H2814Q2814 212 2749 134T2596 21Q2490 -22 2366 -33T2099 -45Q1872 -45 1719 -18T1501 112Q1459 83 1395 56T1234 5Q1137 -17 1003 -31T689 -45ZM1176 142Q1234 142 1308 149T1468 191Q1458
230 1458 289V396Q1415 398 1371 398T1286 399Q1218 399 1167 394T1080 375Q1010 345 1010 270Q1010 230 1046 186T1176 142ZM1426 1188Q1322 1188 1238 1238T1104 1373T1054 1560Q1054 1666 1104 1750T1239 1884T1426 1934Q1530 1934 1615 1884T1750 1749T1800
1560Q1800 1458 1751 1374T1617 1239T1426 1188ZM1426 1363Q1528 1363 1570 1420T1613 1560Q1613 1645 1570 1701T1426 1758Q1335 1758 1287 1701T1239 1560Q1239 1477 1287 1420T1426 1363Z" />
<glyph unicode="&#xe6;" glyph-name="ae" horiz-adv-x="3742" d="M667 -45Q573 -45 482 -34T310 7Q227 36 176 91T125 228Q125 314 181 372T331 462Q428 495 536 507T761 519Q958 519 1120 513Q1283 507 1388 493V709Q1388 812 1357 869T1259 951T1092 982T849
988Q943 986 1014 970T1133 927Q1227 873 1227 796Q1227 752 1191 716T1093 652Q960 595 764 595Q623 595 523 630T370 720T317 839Q317 902 384 949T568 1028Q684 1060 838 1076T1167 1092Q1391 1092 1568 1066T1880 997Q2030 1045 2208 1068T2581 1092Q2801 1092
2989 1059T3317 957Q3456 887 3535 778T3614 517H2310Q2324 287 2442 193T2810 99Q2931 99 3048 116T3262 168Q3360 201 3421 253T3483 371H3614Q3614 261 3527 182T3300 53Q3159 4 2979 -20T2604 -45Q2230 -45 1959 4T1545 169Q1487 110 1392 70T1180 4Q1062 -21
930 -33T667 -45ZM2310 649H2714Q2714 717 2698 776T2656 878Q2629 921 2594 945T2519 970Q2437 970 2380 884T2310 649ZM1142 171Q1198 171 1260 182T1376 213T1463 254Q1416 319 1400 400Q1342 403 1286 403Q1218 403 1159 398T1055 378Q1011 364 986 340T960
280Q960 220 1013 196T1142 171Z" />
<glyph unicode="&#xe7;" glyph-name="ccedilla" horiz-adv-x="2486" d="M1445 -45Q1354 -45 1267 -42T1096 -34Q928 -23 781 2T513 70Q333 132 228 241T123 514Q123 670 231 782T521 961Q709 1031 943 1061T1436 1092Q1623 1092 1785 1072T2074 1013Q2202 975
2279 920T2357 793Q2357 690 2240 618Q2183 582 2100 561T1909 539Q1775 539 1666 566T1491 641T1426 750Q1426 828 1527 893T1828 959Q1771 975 1710 982T1585 989Q1463 989 1355 951T1178 821T1110 570Q1110 452 1160 367T1290 228Q1370 174 1471 147T1683 119Q1798
119 1905 139T2094 194Q2176 229 2225 274T2274 371H2397Q2397 268 2320 190T2110 59Q1845 -45 1445 -45ZM1199 -589Q980 -589 801 -520Q715 -487 655 -437T580 -322H731Q743 -355 783 -383T884 -432Q1010 -476 1172 -476Q1460 -476 1460 -352Q1460 -310 1414 -283T1303
-244T1180 -231Q1156 -231 1107 -235T1034 -244V99L1185 156L1186 -124Q1214 -117 1257 -115T1347 -113Q1403 -113 1495 -116T1685 -141Q1779 -163 1842 -212T1905 -346Q1905 -460 1723 -524Q1633 -555 1502 -572T1199 -589Z" />
<glyph unicode="&#xe8;" glyph-name="egrave" horiz-adv-x="2479" d="M1369 -45Q1082 -45 849 -17T450 75Q285 139 195 242T105 498Q105 647 199 760T460 947Q573 997 710 1028Q847 1060 1007 1076T1343 1092Q1578 1092 1769 1059T2096 957Q2231 887 2305 778T2379
517H1075Q1089 287 1207 193T1575 99Q1696 99 1813 116T2027 168Q2125 201 2186 253T2248 371H2379Q2379 261 2292 182T2065 53Q1924 4 1744 -20T1369 -45ZM1074 629H1479Q1479 720 1465 784T1426 890Q1401 931 1367 950T1294 970Q1251 970 1213 951T1145 890Q1115
848 1097 784T1074 629ZM1502 1187Q1330 1238 1192 1273T950 1334Q847 1359 780 1375T682 1405Q613 1434 575 1482T536 1589Q536 1672 591 1716T712 1761Q770 1761 827 1736Q859 1722 939 1669T1133 1540Q1260 1455 1388 1372T1687 1187H1502Z" />
<glyph unicode="&#xe9;" glyph-name="eacute" horiz-adv-x="2479" d="M1369 -45Q1082 -45 849 -17T450 75Q285 139 195 242T105 498Q105 647 199 760T460 947Q573 997 710 1028Q847 1060 1007 1076T1343 1092Q1578 1092 1769 1059T2096 957Q2231 887 2305 778T2379
517H1075Q1089 287 1207 193T1575 99Q1696 99 1813 116T2027 168Q2125 201 2186 253T2248 371H2379Q2379 261 2292 182T2065 53Q1924 4 1744 -20T1369 -45ZM1074 629H1479Q1479 720 1465 784T1426 890Q1401 931 1367 950T1294 970Q1251 970 1213 951T1145 890Q1115
848 1097 784T1074 629ZM1065 1187Q1235 1288 1364 1371T1620 1540Q1733 1615 1813 1668T1925 1736Q1982 1761 2040 1761Q2105 1761 2160 1717T2216 1589Q2216 1531 2178 1483T2070 1405Q2040 1392 1973 1376T1802 1334Q1699 1309 1561 1274T1250 1187H1065Z" />
<glyph unicode="&#xea;" glyph-name="ecircumflex" horiz-adv-x="2479" d="M1369 -45Q1082 -45 849 -17T450 75Q285 139 195 242T105 498Q105 647 199 760T460 947Q573 997 710 1028Q847 1060 1007 1076T1343 1092Q1578 1092 1769 1059T2096 957Q2231 887 2305
778T2379 517H1075Q1089 287 1207 193T1575 99Q1696 99 1813 116T2027 168Q2125 201 2186 253T2248 371H2379Q2379 261 2292 182T2065 53Q1924 4 1744 -20T1369 -45ZM1074 629H1479Q1479 720 1465 784T1426 890Q1401 931 1367 950T1294 970Q1251 970 1213 951T1145
890Q1115 848 1097 784T1074 629ZM455 1187Q502 1222 543 1254T622 1317Q696 1377 754 1427T860 1520Q928 1582 986 1630T1101 1716Q1130 1735 1163 1750T1250 1766Q1303 1766 1336 1751T1399 1716Q1456 1679 1514 1631T1640 1520L1746 1428Q1805 1377 1878 1317T2045
1187H1881L1250 1440L619 1187H455Z" />
<glyph unicode="&#xeb;" glyph-name="edieresis" horiz-adv-x="2479" d="M1369 -45Q1082 -45 849 -17T450 75Q285 139 195 242T105 498Q105 647 199 760T460 947Q573 997 710 1028Q847 1060 1007 1076T1343 1092Q1578 1092 1769 1059T2096 957Q2231 887 2305 778T2379
517H1075Q1089 287 1207 193T1575 99Q1696 99 1813 116T2027 168Q2125 201 2186 253T2248 371H2379Q2379 261 2292 182T2065 53Q1924 4 1744 -20T1369 -45ZM1074 629H1479Q1479 720 1465 784T1426 890Q1401 931 1367 950T1294 970Q1251 970 1213 951T1145 890Q1115
848 1097 784T1074 629ZM1585 1233Q1465 1233 1399 1285T1332 1405Q1332 1473 1398 1526T1585 1579Q1706 1579 1772 1526T1838 1405Q1838 1338 1772 1286T1585 1233ZM915 1233Q795 1233 729 1285T662 1405Q662 1473 728 1526T915 1579Q1036 1579 1102 1526T1168
1405Q1168 1338 1102 1286T915 1233Z" />
<glyph unicode="&#xec;" glyph-name="igrave" horiz-adv-x="1894" d="M75 0V94Q254 101 355 151T497 293T538 515Q538 715 431 803T75 891V985L1417 1075V515Q1417 385 1457 294T1598 152T1879 94V0H75ZM943 1187Q771 1238 633 1273T391 1334Q288 1359 221 1375T123
1405Q54 1434 16 1482T-23 1589Q-23 1672 32 1716T153 1761Q211 1761 268 1736Q300 1722 380 1669T574 1540Q701 1455 829 1372T1128 1187H943Z" />
<glyph unicode="&#xed;" glyph-name="iacute" horiz-adv-x="1894" d="M75 0V94Q254 101 355 151T497 293T538 515Q538 715 431 803T75 891V985L1417 1075V515Q1417 385 1457 294T1598 152T1879 94V0H75ZM762 1187Q932 1288 1061 1371T1317 1540Q1430 1615 1510
1668T1622 1736Q1679 1761 1737 1761Q1802 1761 1857 1717T1913 1589Q1913 1531 1875 1483T1767 1405Q1737 1392 1670 1376T1499 1334Q1396 1309 1258 1274T947 1187H762Z" />
<glyph unicode="&#xee;" glyph-name="icircumflex" horiz-adv-x="1894" d="M75 0V94Q254 101 355 151T497 293T538 515Q538 715 431 803T75 891V985L1417 1075V515Q1417 385 1457 294T1598 152T1879 94V0H75ZM152 1187Q199 1222 240 1254T319 1317Q393 1377 451
1427T557 1520Q625 1582 683 1630T798 1716Q827 1735 860 1750T947 1766Q1000 1766 1033 1751T1096 1716Q1153 1679 1211 1631T1337 1520L1443 1428Q1502 1377 1575 1317T1742 1187H1578L947 1440L316 1187H152Z" />
<glyph unicode="&#xef;" glyph-name="idieresis" horiz-adv-x="1894" d="M75 0V94Q254 101 355 151T497 293T538 515Q538 715 431 803T75 891V985L1417 1075V515Q1417 385 1457 294T1598 152T1879 94V0H75ZM1282 1233Q1162 1233 1096 1285T1029 1405Q1029 1473
1095 1526T1282 1579Q1403 1579 1469 1526T1535 1405Q1535 1338 1469 1286T1282 1233ZM612 1233Q492 1233 426 1285T359 1405Q359 1473 425 1526T612 1579Q733 1579 799 1526T865 1405Q865 1338 799 1286T612 1233Z" />
<glyph unicode="&#xf0;" glyph-name="eth" horiz-adv-x="2699" d="M1303 -57Q1185 -57 1082 -53T889 -38Q709 -20 577 12T356 91Q223 159 168 246T113 433Q113 548 212 649T531 813T1109 876Q1227 876 1323 873T1503 864Q1460 1025 1366 1140T1122 1321Q1073 1272
1036 1233T970 1161L837 1008Q803 1027 768 1063T707 1138Q784 1204 845 1258T966 1370Q846 1397 700 1397Q617 1397 527 1388L575 1493Q731 1511 897 1511Q948 1511 998 1509T1100 1504Q1159 1564 1193 1602T1262 1679T1350 1781Q1427 1731 1480 1651Q1424 1605
1379 1566T1290 1486Q1556 1452 1785 1379T2192 1197Q2374 1085 2480 936T2586 607Q2586 414 2481 284T2194 79Q2071 28 1932 -1Q1790 -32 1630 -44T1303 -57ZM1309 63Q1407 63 1456 119T1522 287T1539 563Q1539 667 1526 754Q1478 757 1432 757Q1247 757 1168
677T1088 400Q1088 307 1106 243T1156 138Q1186 98 1226 81T1309 63Z" />
<glyph unicode="&#xf1;" glyph-name="ntilde" horiz-adv-x="3049" d="M70 0V94Q318 104 427 203Q483 253 508 326T533 497Q533 660 487 742T339 852T70 881V975L1412 1065V900Q1592 980 1790 1036T2199 1092Q2281 1092 2365 1082T2525 1023Q2573 992 2609 939Q2644
885 2665 805T2686 612L2684 535Q2681 495 2681 448Q2681 360 2690 294T2736 183Q2772 139 2847 117T3054 94V0H1648V76Q1713 118 1738 217T1763 488Q1763 637 1737 707T1665 799T1563 820Q1528 820 1490 813T1412 792V470Q1412 295 1437 207T1527 76V0H70ZM1795
1226Q1691 1226 1583 1256T1363 1317T1139 1347Q1075 1347 1012 1336T884 1298L849 1342Q915 1472 983 1537T1122 1624T1268 1646Q1374 1646 1481 1616T1700 1556T1925 1526Q1989 1526 2052 1537T2180 1575L2215 1531Q2165 1433 2115 1374T2011 1281Q1959 1248
1905 1237T1795 1226Z" />
<glyph unicode="&#xf2;" glyph-name="ograve" horiz-adv-x="2611" d="M1306 -45Q946 -45 676 17T255 205T105 523Q105 668 191 776T436 954Q594 1025 815 1059T1306 1093Q1575 1093 1797 1059T2176 954Q2334 884 2420 776T2506 523Q2506 379 2420 273T2176 95Q2019
25 1797 -10T1306 -45ZM1306 60Q1353 60 1390 97T1455 199Q1509 329 1509 523Q1509 719 1455 850Q1428 914 1391 952T1306 990Q1258 990 1221 952T1157 850Q1130 786 1116 702T1102 523Q1102 430 1116 346T1157 199Q1183 135 1220 98T1306 60ZM1302 1187Q1130 1238
992 1273T750 1334Q647 1359 580 1375T482 1405Q413 1434 375 1482T336 1589Q336 1672 391 1716T512 1761Q570 1761 627 1736Q659 1722 739 1669T933 1540Q1060 1455 1188 1372T1487 1187H1302Z" />
<glyph unicode="&#xf3;" glyph-name="oacute" horiz-adv-x="2611" d="M1306 -45Q946 -45 676 17T255 205T105 523Q105 668 191 776T436 954Q594 1025 815 1059T1306 1093Q1575 1093 1797 1059T2176 954Q2334 884 2420 776T2506 523Q2506 379 2420 273T2176 95Q2019
25 1797 -10T1306 -45ZM1306 60Q1353 60 1390 97T1455 199Q1509 329 1509 523Q1509 719 1455 850Q1428 914 1391 952T1306 990Q1258 990 1221 952T1157 850Q1130 786 1116 702T1102 523Q1102 430 1116 346T1157 199Q1183 135 1220 98T1306 60ZM1121 1187Q1291 1288
1420 1371T1676 1540Q1789 1615 1869 1668T1981 1736Q2038 1761 2096 1761Q2161 1761 2216 1717T2272 1589Q2272 1531 2234 1483T2126 1405Q2096 1392 2029 1376T1858 1334Q1755 1309 1617 1274T1306 1187H1121Z" />
<glyph unicode="&#xf4;" glyph-name="ocircumflex" horiz-adv-x="2611" d="M1306 -45Q946 -45 676 17T255 205T105 523Q105 668 191 776T436 954Q594 1025 815 1059T1306 1093Q1575 1093 1797 1059T2176 954Q2334 884 2420 776T2506 523Q2506 379 2420 273T2176
95Q2019 25 1797 -10T1306 -45ZM1306 60Q1353 60 1390 97T1455 199Q1509 329 1509 523Q1509 719 1455 850Q1428 914 1391 952T1306 990Q1258 990 1221 952T1157 850Q1130 786 1116 702T1102 523Q1102 430 1116 346T1157 199Q1183 135 1220 98T1306 60ZM511 1187Q558
1222 599 1254T678 1317Q752 1377 810 1427T916 1520Q984 1582 1042 1630T1157 1716Q1186 1735 1219 1750T1306 1766Q1359 1766 1392 1751T1455 1716Q1512 1679 1570 1631T1696 1520L1802 1428Q1861 1377 1934 1317T2101 1187H1937L1306 1440L675 1187H511Z" />
<glyph unicode="&#xf5;" glyph-name="otilde" horiz-adv-x="2611" d="M1306 -45Q946 -45 676 17T255 205T105 523Q105 668 191 776T436 954Q594 1025 815 1059T1306 1093Q1575 1093 1797 1059T2176 954Q2334 884 2420 776T2506 523Q2506 379 2420 273T2176 95Q2019
25 1797 -10T1306 -45ZM1306 60Q1353 60 1390 97T1455 199Q1509 329 1509 523Q1509 719 1455 850Q1428 914 1391 952T1306 990Q1258 990 1221 952T1157 850Q1130 786 1116 702T1102 523Q1102 430 1116 346T1157 199Q1183 135 1220 98T1306 60ZM1569 1226Q1465 1226
1357 1256T1137 1317T913 1347Q849 1347 786 1336T658 1298L623 1342Q689 1472 757 1537T896 1624T1042 1646Q1148 1646 1255 1616T1474 1556T1699 1526Q1763 1526 1826 1537T1954 1575L1989 1531Q1939 1433 1889 1374T1785 1281Q1733 1248 1679 1237T1569 1226Z"
/>
<glyph unicode="&#xf6;" glyph-name="odieresis" horiz-adv-x="2611" d="M1306 -45Q946 -45 676 17T255 205T105 523Q105 668 191 776T436 954Q594 1025 815 1059T1306 1093Q1575 1093 1797 1059T2176 954Q2334 884 2420 776T2506 523Q2506 379 2420 273T2176
95Q2019 25 1797 -10T1306 -45ZM1306 60Q1353 60 1390 97T1455 199Q1509 329 1509 523Q1509 719 1455 850Q1428 914 1391 952T1306 990Q1258 990 1221 952T1157 850Q1130 786 1116 702T1102 523Q1102 430 1116 346T1157 199Q1183 135 1220 98T1306 60ZM1641 1233Q1521
1233 1455 1285T1388 1405Q1388 1473 1454 1526T1641 1579Q1762 1579 1828 1526T1894 1405Q1894 1338 1828 1286T1641 1233ZM971 1233Q851 1233 785 1285T718 1405Q718 1473 784 1526T971 1579Q1092 1579 1158 1526T1224 1405Q1224 1338 1158 1286T971 1233Z" />
<glyph unicode="&#xf7;" glyph-name="divide" horiz-adv-x="1684" d="M840 871Q699 871 611 926Q568 952 544 989T519 1072Q519 1117 543 1154T611 1217Q698 1270 840 1270Q981 1270 1070 1217Q1113 1192 1137 1155T1162 1072Q1162 1027 1138 990T1070 926Q980
871 840 871ZM135 542Q132 568 131 593T130 644Q130 669 131 694T135 746Q162 741 217 738T343 732T484 729Q624 727 721 727T840 726Q883 726 980 727T1204 731Q1275 732 1346 734T1473 739T1549 746Q1552 726 1553 691T1554 644Q1554 623 1553 592T1549 542Q1516
547 1421 551T1195 558Q1065 560 969 561T840 562Q790 562 726 561T596 559T481 557Q418 556 345 554T214 549T135 542ZM840 31Q699 31 611 86Q568 112 544 149T519 232Q519 277 543 314T611 377Q698 430 840 430Q981 430 1070 377Q1113 352 1137 315T1162 232Q1162
187 1138 150T1070 86Q980 31 840 31Z" />
<glyph unicode="&#xf8;" glyph-name="oslash" horiz-adv-x="2627" d="M206 -229Q175 -200 152 -157T114 -70Q155 -50 239 -6T433 99Q279 170 196 275T113 523Q113 668 199 776T444 954Q602 1025 823 1059T1314 1093Q1739 1093 2030 1008L2273 1153Q2324 1184 2362
1207T2420 1245Q2479 1180 2512 1085Q2477 1070 2401 1030T2222 934Q2362 863 2438 762T2514 523Q2514 379 2428 273T2184 95Q2027 25 1805 -10T1314 -45Q916 -45 632 29Q557 -15 492 -53T373 -125Q318 -159 275 -185T206 -229ZM1111 476Q1161 503 1200 525T1262
562L1503 701Q1481 824 1433 907T1314 990Q1266 990 1229 952T1165 850Q1138 786 1124 702T1110 523V499Q1109 490 1111 476ZM1314 60Q1361 60 1398 97T1463 199Q1517 329 1517 523V541L1334 437L1129 318Q1152 203 1199 133Q1248 60 1314 60Z" />
<glyph unicode="&#xf9;" glyph-name="ugrave" horiz-adv-x="2835" d="M862 -45Q786 -45 693 -39T510 4Q454 26 410 67Q367 108 342 168T316 316Q316 384 324 470T332 622Q332 691 316 757T246 867T75 911Q44 911 8 908V1002L1240 1092V505Q1240 430 1249 375T1280
283Q1325 209 1440 209Q1507 209 1576 231V617Q1576 734 1548 799T1473 897T1370 943V1020L2455 1110V468Q2455 337 2479 257T2581 138T2817 92L2823 -2Q2718 -2 2585 -4T2286 -10Q2120 -13 1999 -15T1798 -18Q1710 -18 1658 28T1588 130Q1422 50 1247 3T862 -45ZM1414
1187Q1242 1238 1104 1273T862 1334Q759 1359 692 1375T594 1405Q525 1434 487 1482T448 1589Q448 1672 503 1716T624 1761Q682 1761 739 1736Q771 1722 851 1669T1045 1540Q1172 1455 1300 1372T1599 1187H1414Z" />
<glyph unicode="&#xfa;" glyph-name="uacute" horiz-adv-x="2835" d="M862 -45Q786 -45 693 -39T510 4Q454 26 410 67Q367 108 342 168T316 316Q316 384 324 470T332 622Q332 691 316 757T246 867T75 911Q44 911 8 908V1002L1240 1092V505Q1240 430 1249 375T1280
283Q1325 209 1440 209Q1507 209 1576 231V617Q1576 734 1548 799T1473 897T1370 943V1020L2455 1110V468Q2455 337 2479 257T2581 138T2817 92L2823 -2Q2718 -2 2585 -4T2286 -10Q2120 -13 1999 -15T1798 -18Q1710 -18 1658 28T1588 130Q1422 50 1247 3T862 -45ZM1233
1187Q1403 1288 1532 1371T1788 1540Q1901 1615 1981 1668T2093 1736Q2150 1761 2208 1761Q2273 1761 2328 1717T2384 1589Q2384 1531 2346 1483T2238 1405Q2208 1392 2141 1376T1970 1334Q1867 1309 1729 1274T1418 1187H1233Z" />
<glyph unicode="&#xfb;" glyph-name="ucircumflex" horiz-adv-x="2835" d="M862 -45Q786 -45 693 -39T510 4Q454 26 410 67Q367 108 342 168T316 316Q316 384 324 470T332 622Q332 691 316 757T246 867T75 911Q44 911 8 908V1002L1240 1092V505Q1240 430 1249
375T1280 283Q1325 209 1440 209Q1507 209 1576 231V617Q1576 734 1548 799T1473 897T1370 943V1020L2455 1110V468Q2455 337 2479 257T2581 138T2817 92L2823 -2Q2718 -2 2585 -4T2286 -10Q2120 -13 1999 -15T1798 -18Q1710 -18 1658 28T1588 130Q1422 50 1247
3T862 -45ZM623 1187Q670 1222 711 1254T790 1317Q864 1377 922 1427T1028 1520Q1096 1582 1154 1630T1269 1716Q1298 1735 1331 1750T1418 1766Q1471 1766 1504 1751T1567 1716Q1624 1679 1682 1631T1808 1520L1914 1428Q1973 1377 2046 1317T2213 1187H2049L1418
1440L787 1187H623Z" />
<glyph unicode="&#xfc;" glyph-name="udieresis" horiz-adv-x="2835" d="M862 -45Q786 -45 693 -39T510 4Q454 26 410 67Q367 108 342 168T316 316Q316 384 324 470T332 622Q332 691 316 757T246 867T75 911Q44 911 8 908V1002L1240 1092V505Q1240 430 1249 375T1280
283Q1325 209 1440 209Q1507 209 1576 231V617Q1576 734 1548 799T1473 897T1370 943V1020L2455 1110V468Q2455 337 2479 257T2581 138T2817 92L2823 -2Q2718 -2 2585 -4T2286 -10Q2120 -13 1999 -15T1798 -18Q1710 -18 1658 28T1588 130Q1422 50 1247 3T862 -45ZM1753
1233Q1633 1233 1567 1285T1500 1405Q1500 1473 1566 1526T1753 1579Q1874 1579 1940 1526T2006 1405Q2006 1338 1940 1286T1753 1233ZM1083 1233Q963 1233 897 1285T830 1405Q830 1473 896 1526T1083 1579Q1204 1579 1270 1526T1336 1405Q1336 1338 1270 1286T1083
1233Z" />
<glyph unicode="&#xfd;" glyph-name="yacute" horiz-adv-x="2611" d="M865 -546Q681 -546 520 -528T237 -475T46 -386T-23 -263Q-23 -161 104 -97Q165 -67 251 -50T445 -33Q575 -33 674 -59T831 -131T888 -234Q888 -308 787 -361T486 -414Q531 -421 594 -428T721
-439T832 -443Q1076 -443 1282 -368T1657 -89H895Q808 77 725 219T567 478Q417 709 301 826Q238 889 190 915T96 947T-10 953V1047H1656V953Q1622 953 1576 950T1486 937T1414 910T1385 864Q1385 834 1424 753T1528 557Q1590 446 1656 330T1781 107Q1822 181 1876
283T1987 501Q2040 610 2077 704T2115 844Q2115 889 2079 912T1985 944T1859 953V1047H2622V953Q2544 953 2490 942T2394 900T2309 813Q2248 734 2200 643T2103 449Q2054 347 1999 235T1870 0Q1773 -156 1658 -261T1415 -429Q1286 -493 1148 -519T865 -546ZM1121
1187Q1291 1288 1420 1371T1676 1540Q1789 1615 1869 1668T1981 1736Q2038 1761 2096 1761Q2161 1761 2216 1717T2272 1589Q2272 1531 2234 1483T2126 1405Q2096 1392 2029 1376T1858 1334Q1755 1309 1617 1274T1306 1187H1121Z" />
<glyph unicode="&#xfe;" glyph-name="thorn" horiz-adv-x="2819" d="M15 -462V-368Q127 -368 206 -335Q286 -302 340 -243T428 -102Q481 27 494 178T508 495Q508 637 491 778T421 1043Q374 1153 278 1230T18 1307V1400L1360 1490V943Q1402 974 1459 1001T1593
1049Q1668 1069 1764 1080T1979 1092Q2207 1092 2369 1019T2619 822T2706 544Q2706 397 2651 287T2498 103Q2401 30 2269 -7T1985 -45Q1819 -45 1649 -8T1357 96V8Q1357 -90 1378 -159T1453 -272Q1554 -358 1819 -368V-462H15ZM1613 98Q1693 98 1729 206Q1764 316
1764 520Q1764 613 1757 690T1730 822Q1711 876 1680 906T1601 936Q1524 936 1460 901T1357 810V220Q1426 157 1494 128T1613 98Z" />
<glyph unicode="&#xff;" glyph-name="ydieresis" horiz-adv-x="2611" d="M865 -546Q681 -546 520 -528T237 -475T46 -386T-23 -263Q-23 -161 104 -97Q165 -67 251 -50T445 -33Q575 -33 674 -59T831 -131T888 -234Q888 -308 787 -361T486 -414Q531 -421 594 -428T721
-439T832 -443Q1076 -443 1282 -368T1657 -89H895Q808 77 725 219T567 478Q417 709 301 826Q238 889 190 915T96 947T-10 953V1047H1656V953Q1622 953 1576 950T1486 937T1414 910T1385 864Q1385 834 1424 753T1528 557Q1590 446 1656 330T1781 107Q1822 181 1876
283T1987 501Q2040 610 2077 704T2115 844Q2115 889 2079 912T1985 944T1859 953V1047H2622V953Q2544 953 2490 942T2394 900T2309 813Q2248 734 2200 643T2103 449Q2054 347 1999 235T1870 0Q1773 -156 1658 -261T1415 -429Q1286 -493 1148 -519T865 -546ZM1641
1233Q1521 1233 1455 1285T1388 1405Q1388 1473 1454 1526T1641 1579Q1762 1579 1828 1526T1894 1405Q1894 1338 1828 1286T1641 1233ZM971 1233Q851 1233 785 1285T718 1405Q718 1473 784 1526T971 1579Q1092 1579 1158 1526T1224 1405Q1224 1338 1158 1286T971
1233Z" />
<glyph unicode="&#x2013;" glyph-name="endash" horiz-adv-x="1148" d="M67 548Q64 574 63 599T62 650Q62 675 63 700T67 752Q99 745 168 742T316 736Q410 733 471 733T572 732Q616 732 685 733T836 737Q904 739 977 743T1081 752Q1084 732 1085 697T1086 650Q1086
629 1085 598T1081 548Q1048 553 981 557T827 564Q740 566 673 567T572 568Q535 568 468 567T314 564Q132 558 67 548Z" />
<glyph unicode="&#x2014;" glyph-name="emdash" horiz-adv-x="2172" d="M72 548Q62 595 62 650Q62 702 72 752Q137 746 274 741Q340 739 416 738T571 735Q758 733 892 733T1083 732Q1169 732 1307 733T1610 737Q1703 738 1800 740T1979 745T2101 752Q2105 739
2107 705T2110 650Q2110 631 2108 598T2101 548Q2034 553 1900 557T1593 564Q1421 566 1286 567T1083 568Q1003 568 865 567T565 563Q487 562 413 561T273 557Q208 555 156 553T72 548Z" />
<glyph unicode="&#x2018;" glyph-name="quoteleft" horiz-adv-x="1092" d="M569 624Q447 624 362 656T222 743Q167 799 142 873T117 1035Q117 1181 177 1273T313 1416Q401 1474 504 1500T711 1527L717 1432Q519 1432 402 1338T274 1082Q340 1131 431 1149T625
1168Q723 1168 802 1140T928 1056T975 911Q975 830 922 765T778 662T569 624Z" />
<glyph unicode="&#x2019;" glyph-name="quoteright" horiz-adv-x="1092" d="M381 627L375 722Q573 722 690 816T818 1072Q752 1023 661 1005T467 986Q369 986 290 1014T164 1099T117 1243Q117 1324 168 1389T312 1492T523 1530Q644 1530 730 1499T871 1412Q925
1357 950 1282T975 1119Q975 975 916 882T780 739Q689 678 586 653T381 627Z" />
<glyph unicode="&#x201a;" glyph-name="quotesinglbase" horiz-adv-x="1092" d="M381 -388L375 -293Q573 -293 690 -199T818 57Q752 8 661 -10T467 -29Q369 -29 290 -1T164 84T117 228Q117 309 168 374T312 477T523 515Q644 515 730 484T871 397Q925 342 950 267T975
104Q975 -40 916 -133T780 -276Q689 -337 586 -362T381 -388Z" />
<glyph unicode="&#x201c;" glyph-name="quotedblleft" horiz-adv-x="2092" d="M1569 624Q1447 624 1362 656T1222 743Q1167 799 1142 873T1117 1035Q1117 1175 1175 1269T1313 1416Q1401 1474 1503 1500T1711 1527L1717 1432Q1519 1432 1402 1338T1274 1082Q1340
1131 1431 1149T1625 1168Q1723 1168 1802 1140T1928 1056T1975 911Q1975 830 1922 765T1778 662T1569 624ZM569 624Q447 624 362 656T222 743Q167 799 142 873T117 1035Q117 1181 177 1273T313 1416Q401 1474 504 1500T711 1527L717 1432Q519 1432 402 1338T274
1082Q340 1131 431 1149T625 1168Q723 1168 802 1140T928 1056T975 911Q975 830 922 765T778 662T569 624Z" />
<glyph unicode="&#x201d;" glyph-name="quotedblright" horiz-adv-x="2092" d="M1381 627L1375 722Q1573 722 1690 816T1818 1072Q1752 1023 1661 1005T1467 986Q1369 986 1290 1014T1164 1099T1117 1243Q1117 1324 1168 1389T1312 1492T1523 1530Q1644 1530 1730
1499T1871 1412Q1925 1357 1950 1282T1975 1119Q1975 974 1915 882T1779 739Q1690 679 1587 653T1381 627ZM381 627L375 722Q573 722 690 816T818 1072Q752 1023 661 1005T467 986Q369 986 290 1014T164 1099T117 1243Q117 1324 168 1389T312 1492T523 1530Q644
1530 730 1499T871 1412Q925 1357 950 1282T975 1119Q975 975 916 882T780 739Q689 678 586 653T381 627Z" />
<glyph unicode="&#x201e;" glyph-name="quotedblbase" horiz-adv-x="2092" d="M1380 -388L1374 -293Q1572 -293 1689 -199T1817 57Q1751 8 1660 -10T1466 -29Q1368 -29 1289 -1T1163 84T1116 228Q1116 309 1167 374T1311 477T1522 515Q1643 515 1729 484T1870
397Q1924 342 1949 267T1974 104Q1974 -40 1915 -133T1779 -276Q1688 -337 1585 -362T1380 -388ZM381 -388L375 -293Q573 -293 690 -199T818 57Q752 8 661 -10T467 -29Q369 -29 290 -1T164 84T117 228Q117 309 168 374T312 477T523 515Q644 515 730 484T871 397Q925
342 950 267T975 104Q975 -40 916 -133T780 -276Q689 -337 586 -362T381 -388Z" />
<glyph unicode="&#x2022;" glyph-name="bullet" horiz-adv-x="1276" d="M637 347Q453 347 339 396T171 525T117 690Q117 755 146 817T239 929Q302 977 400 1007T637 1037Q775 1037 874 1007T1037 929Q1100 880 1129 818T1159 690Q1159 604 1106 525T937 397T637 347Z" />
<glyph unicode="&#x2039;" glyph-name="guilsinglleft" horiz-adv-x="1318" d="M1106 39L276 432Q208 463 174 495T140 575Q140 623 174 655T276 718L1106 1111L1178 1035L620 575L1178 115L1106 39Z" />
<glyph unicode="&#x203a;" glyph-name="guilsinglright" horiz-adv-x="1318" d="M212 39L140 115L698 575L140 1035L212 1111L1042 718Q1110 687 1144 655T1178 575Q1178 527 1144 495T1042 432L212 39Z" />
</font>
</defs>
</svg>
