<?xml version="1.0" standalone="no"?>
<!DOCTYPE svg PUBLIC "-//W3C//DTD SVG 1.1//EN" "http://www.w3.org/Graphics/SVG/1.1/DTD/svg11.dtd">
<svg xmlns="http://www.w3.org/2000/svg">
<defs >
<font id="Diplomata" horiz-adv-x="1075" ><font-face
    font-family="Diplomata"
    units-per-em="1000"
    panose-1="0 0 0 0 0 0 0 0 0 0"
    ascent="930"
    descent="-287"
    alphabetic="0" />
<glyph unicode=" " glyph-name="space" horiz-adv-x="450" />
<glyph unicode="!" glyph-name="exclam" horiz-adv-x="679" d="M339 297Q327 297 308 319T267 379T222 461T181 548T151 627T140 682Q140 741 191 771T339 801Q434 801 486 771T538 682Q538 663 527 628T498 549T457 461T412 380T370 320T339 297ZM339 352L369
400Q351 437 331 482T294 573T266 653T255 706Q255 719 269 731T303 750L299 759Q262 752 235 736T207 695Q207 679 215 648T238 577T270 496T306 417T339 352ZM339 -26Q275 -26 223 -8T140 43T109 113Q109 152 140 183T223 233T339 252Q402 252 454 234T537 184T568
113Q568 75 537 43T454 -7T339 -26ZM274 16L277 21Q259 38 248 62T237 113Q237 140 248 164T277 205L274 210Q234 195 209 169T183 113Q183 83 208 57T274 16Z" />
<glyph unicode="&quot;" glyph-name="quotedbl" horiz-adv-x="794" d="M588 293Q577 293 559 318T518 381T477 462T446 540T433 594Q433 639 473 663T588 687Q662 687 703 663T744 594Q744 576 732 540T700 462T660 382T619 318T588 293ZM205 293Q194 293 176
318T135 381T94 462T63 540T50 594Q50 639 90 663T205 687Q280 687 320 663T361 594Q361 576 349 540T317 462T277 382T236 318T205 293ZM205 335L229 374Q215 403 200 438T171 508T148 571T139 614Q139 623 144 633T159 651L157 657Q102 644 102 604Q102 588 112
555T138 480T172 400T205 335ZM588 335L612 374Q597 403 582 438T553 508T531 571T522 614Q522 623 527 633T542 651L540 657Q485 644 485 604Q485 588 495 555T521 480T555 400T588 335Z" />
<glyph unicode="#" glyph-name="numbersign" horiz-adv-x="840" d="M129 -50L184 155H50L71 235H205L254 415H119L140 495H275L330 700H410L355 495H575L630 700H710L655 495H790L769 415H634L585 235H720L699 155H564L509 -50H429L484 155H264L209 -50H129ZM285
235H505L554 415H334L285 235Z" />
<glyph unicode="$" glyph-name="dollar" horiz-adv-x="1261" d="M584 -110V-20Q506 -17 439 -7T307 19T169 58L141 0H94V281H141Q155 250 195 212T295 137T429 71T584 29V179Q518 194 450 211T318 250T205 300T126 364T96 447Q96 513 126 555T206 620T319 654T445
667T567 670Q575 670 584 670V760H634V668Q703 664 782 654T935 632T1065 607L1083 650H1130V439H1083Q1071 457 1038 478T958 522T856 564T744 600T634 623V487Q699 475 772 463T915 432T1041 385T1132 313T1166 206Q1166 85 1032 32T644 -21Q639 -21 634 -21V-110H584ZM431
575Q431 544 474 527T584 496V628Q570 629 558 629Q505 629 468 618T431 575ZM973 68L977 69V92Q977 144 944 175T855 224T727 257T577 291Q507 308 440 328T316 376T223 441T177 529L170 530Q164 517 161 497T157 460Q157 390 241 340T504 244Q615 216 693 198T825
165T914 127T973 68ZM858 70Q858 91 828 107T748 138T634 167V23Q663 20 691 20Q730 20 768 23T832 37T858 70Z" />
<glyph unicode="%" glyph-name="percent" horiz-adv-x="1165" d="M350 -22L744 670H796L402 -22H350ZM291 305Q217 305 155 330T57 400T20 497Q20 550 53 593T148 662T291 688Q375 688 436 663T531 594T564 497Q564 444 527 400T429 331T291 305ZM196 334L197
337Q150 367 125 413T100 497Q100 535 125 581T197 657L196 660Q132 635 96 591T60 497Q60 448 96 404T196 334ZM291 333Q330 333 352 374T374 496Q374 577 358 618T291 659Q243 659 227 618T210 496Q210 416 232 375T291 333ZM394 363Q419 382 436 417T454 496Q454
540 437 575T394 629L391 627Q402 603 408 567T414 496Q414 462 408 426T391 365L394 363ZM872 -12Q798 -12 736 13T638 83T601 180Q601 233 634 276T729 345T872 371Q956 371 1017 346T1112 277T1145 180Q1145 127 1108 83T1010 14T872 -12ZM777 17L778 20Q731
50 706 96T681 180Q681 218 706 264T778 340L777 343Q713 318 677 274T641 180Q641 131 677 87T777 17ZM872 16Q911 16 933 57T955 179Q955 260 939 301T872 342Q824 342 808 301T791 179Q791 99 813 58T872 16ZM975 46Q1000 65 1017 100T1035 179Q1035 223 1018
258T975 312L972 310Q983 286 989 250T995 179Q995 145 989 109T972 48L975 46Z" />
<glyph unicode="&amp;" glyph-name="ampersand" horiz-adv-x="1389" d="M412 -23Q271 -23 180 3T45 74T0 175Q0 216 24 253T103 318T249 364T474 383Q463 415 457 445T450 501Q450 518 474 533T538 559T626 579T725 591T820 595Q906 595 957 566T1009 496Q1009
476 992 452T930 404T804 365Q830 318 868 268T955 173Q1002 203 1029 233T1057 290Q1057 313 1012 313H960V356H1389V313H1232Q1208 292 1146 244T991 143Q1048 99 1116 71T1264 43H1389V0H830Q789 0 739 31Q664 7 582 -8T412 -23ZM785 404Q856 418 888 436T929
471T938 498Q938 513 931 527T903 551T843 561Q804 561 786 552T762 529T757 505Q757 487 764 461T785 404ZM921 36Q839 73 777 131T670 258T599 394T557 517Q543 516 530 509T513 496Q536 403 576 320T670 173T788 73T921 36ZM510 33Q554 33 601 40T697 61Q657
94 619 140T547 238T491 342Q426 336 394 300T362 178Q362 97 403 65T510 33ZM126 53L130 56Q111 85 105 117T98 176Q98 203 104 235T130 295L126 299Q92 275 71 243T50 176Q50 142 71 109T126 53Z" />
<glyph unicode="&apos;" glyph-name="quotesingle" horiz-adv-x="411" d="M205 293Q194 293 176 318T135 381T94 462T63 540T50 594Q50 639 90 663T205 687Q279 687 320 663T361 594Q361 576 349 540T317 462T277 382T236 318T205 293ZM205 335L229 374Q214 403
199 438T170 508T148 571T139 614Q139 623 144 633T159 651L157 657Q102 644 102 604Q102 588 112 555T138 480T172 400T205 335Z" />
<glyph unicode="(" glyph-name="parenleft" horiz-adv-x="805" d="M684 -117Q509 -90 383 -31T188 115T120 310Q120 418 188 504T382 651T684 737V683Q684 683 665 678T619 655T564 596T517 488T498 312Q498 204 517 135T563 25T618 -34T665 -58T684 -63V-117ZM539
-49L542 -42Q463 -6 398 46T295 164T256 310Q256 390 294 456T398 574T542 662L539 669Q433 633 353 580T228 459T183 310Q183 229 228 161T353 40T539 -49Z" />
<glyph unicode=")" glyph-name="parenright" horiz-adv-x="800" d="M115 -117V-63Q115 -63 134 -58T180 -35T235 24T282 133T301 308Q301 416 282 485T236 595T181 654T134 678T115 683V737Q290 711 416 651T611 505T679 310Q679 202 611 116T417 -30T115 -117ZM268
-31Q290 -16 318 12T374 83T418 182T436 308Q436 378 419 434T374 532T319 603T268 647L261 641Q283 621 306 581T346 474T363 308Q363 209 347 143T307 36T261 -25L268 -31Z" />
<glyph unicode="*" glyph-name="asterisk" horiz-adv-x="676" d="M338 539Q331 539 319 555T292 598T264 652T243 704T235 740Q235 770 262 785T338 801Q388 801 415 786T442 740Q442 728 434 704T413 652T386 598T359 556T338 539ZM338 567L358 598Q345 625 332
656T309 713T299 751Q299 756 302 763T313 775L310 784Q269 777 269 745Q269 734 276 712T293 663T316 611T338 567ZM121 480Q87 480 69 495T50 542Q50 584 64 616T98 665T135 683Q148 683 169 670T214 636T260 593T296 551T310 522Q310 513 290 506T240 493T177
484T121 480ZM555 480Q531 480 499 483T437 492T386 505T366 522Q366 532 380 551T415 592T461 635T507 669T541 683Q558 683 578 666T612 616T626 542Q626 511 608 496T555 480ZM541 512Q573 512 590 521T607 555Q607 558 607 561T606 568L596 570Q592 551 576
548T542 544Q513 544 479 548T415 556L392 528Q422 521 464 517T541 512ZM135 512Q170 512 212 516T284 528L261 556Q231 552 197 548T134 544Q118 544 102 547T81 569L70 568Q70 567 70 564T69 557Q69 530 87 521T135 512ZM434 242Q393 242 377 294Q370 316 364
345T353 403T349 453Q349 464 351 476T364 488Q379 488 410 475T475 443T535 404T565 370Q566 367 566 364T567 358Q567 333 539 298T457 246Q446 242 434 242ZM245 243Q219 243 185 260T124 315Q110 333 110 352Q110 371 127 390T172 426T229 457T281 479T315
487Q324 487 326 473T328 451Q328 428 324 398T312 337T296 283T275 251Q270 247 262 245T245 243ZM154 307L164 310Q162 315 162 317T161 323Q161 335 179 351T223 382T271 410T303 427L305 464Q229 425 184 395T138 339Q138 328 143 321T154 307ZM451 266Q466
266 476 272V282Q458 282 444 307T421 371T406 451L372 464Q375 437 380 403T395 338T419 287T451 266Z" />
<glyph unicode="+" glyph-name="plus" horiz-adv-x="740" d="M100 298V378H330V608H410V378H640V298H410V68H330V298H100Z" />
<glyph unicode="," glyph-name="comma" horiz-adv-x="595" d="M129 -151V-114Q159 -114 201 -110T285 -95T358 -63T396 -5Q374 -12 349 -17T297 -22Q240 -22 194 -5T119 40T91 103Q91 138 119 166T193 212T297 229Q361 229 405 207T472 148T495 70Q495 31 474
-8T408 -79T294 -131T129 -151ZM215 15L218 19Q202 35 192 56T181 103Q181 128 191 149T218 187L215 191Q178 178 155 154T132 103Q132 76 155 53T215 15Z" />
<glyph unicode="-" glyph-name="hyphen" horiz-adv-x="740" d="M100 263V343H640V263H100Z" />
<glyph unicode="." glyph-name="period" horiz-adv-x="594" d="M296 -22Q239 -22 193 -5T119 40T91 103Q91 138 118 166T192 212T296 229Q353 229 399 212T473 167T501 103Q501 69 474 41T400 -5T296 -22ZM214 15L217 19Q201 35 191 56T180 103Q180 128 190 149T217
187L214 191Q177 178 154 154T131 103Q131 76 154 53T214 15Z" />
<glyph unicode="/" glyph-name="slash" horiz-adv-x="582" d="M50 -52L450 670H532L132 -52H50Z" />
<glyph unicode="0" glyph-name="zero" horiz-adv-x="1038" d="M519 -22Q417 -22 328 5T171 79T65 190T27 326Q27 397 61 459T160 569T315 643T519 670Q632 670 723 644T878 570T977 460T1011 326Q1011 254 973 191T867 80T710 5T519 -22ZM519 19Q593 19 634 96T676
324Q676 425 663 492T615 594T519 629Q457 629 423 595T376 493T362 324Q362 174 403 97T519 19ZM299 39L301 44Q222 88 172 161T122 325Q122 417 172 490T301 607L299 612Q230 584 178 541T96 442T67 325Q67 264 96 209T177 111T299 39ZM693 50Q721 80 743 123T780
219T794 325Q794 380 780 432T744 528T693 601L688 598Q712 538 724 470T737 325Q737 249 725 181T688 53L693 50Z" />
<glyph unicode="1" glyph-name="one" horiz-adv-x="925" d="M151 0V43H229Q273 43 305 67T337 152V433Q337 503 347 540T358 578L99 399L57 450L377 650H868V607H790Q761 607 736 592T697 552T682 497V152Q682 92 714 68T790 43H868V0H151ZM404 43H469V607H404V43Z" />
<glyph unicode="2" glyph-name="two" horiz-adv-x="1009" d="M50 0V66Q93 79 149 99T266 147T385 209T490 284T565 370T593 467Q593 523 576 556T533 605T485 625T450 630Q392 630 337 607T236 544T160 458T120 362H85V634H120V580Q157 601 207 622T327 656T491
670Q538 670 598 665T721 647T835 612T920 555T952 474Q952 425 910 380T797 292T636 213T450 145T261 89T94 47V42Q280 43 425 56T689 93T913 148V230H948V0H50ZM524 249Q524 249 541 255T584 276T635 315T677 377T695 464Q695 497 681 524T647 570T613 600T598
610L595 607Q595 607 608 592T635 547T648 467Q648 419 627 378T576 305T522 254L524 249Z" />
<glyph unicode="3" glyph-name="three" horiz-adv-x="1025" d="M481 -22Q363 -22 259 -1T87 49V6H52V213H87Q102 173 139 138T228 75T340 33T464 18Q518 18 557 39T617 96T638 175Q638 246 592 290T467 334Q423 334 386 324T326 292T303 236H269V459H303Q303 423
322 404T374 378T442 371Q516 371 557 406T598 497Q598 531 582 561T532 611T442 630Q382 630 320 609T205 544T120 434H85V625H120V583Q171 606 222 626T336 658T481 670Q611 670 705 646T852 582T904 499Q904 464 864 433T753 381T592 350Q711 342 796 318T928
257T974 173Q974 133 936 98T830 35T673 -7T481 -22ZM624 384Q659 406 680 437T701 501Q701 533 680 564T624 618L619 615Q634 589 643 560T652 501Q652 472 643 443T619 387L624 384ZM659 33Q692 59 713 95T735 170Q735 208 714 244T659 307L655 302Q674 271 680
236T687 170Q687 140 681 105T655 37L659 33Z" />
<glyph unicode="4" glyph-name="four" horiz-adv-x="1012" d="M238 0V43H315Q360 43 392 67T424 151V178H57V220L464 650H955V607H877Q848 607 823 592T784 552T769 497V220H956V178H769V151Q769 91 801 67T877 43H955V0H238ZM491 42H556V607H491V42ZM143 220H424V425Q424
495 434 532T445 570L143 220Z" />
<glyph unicode="5" glyph-name="five" horiz-adv-x="1020" d="M442 -22Q364 -22 299 -12T185 10T111 33T85 43V0H50V199H85Q111 168 142 137T216 78T313 35T440 18Q499 18 535 36T590 83T615 141T622 197Q622 222 615 253T584 314T508 363T370 383Q300 383 244
365T148 323T87 281T66 263L49 279L351 663H371Q371 663 375 660T395 654T449 650H886Q925 650 936 656T948 663L971 650L718 525H287L166 370Q216 390 262 404T367 427T511 436Q562 436 622 429T741 407T849 365T928 301T958 211Q958 159 926 120T841 54T720 10T581
-14T442 -22ZM606 18Q606 18 623 24T661 49T700 105T717 202Q717 249 704 282T672 336T632 368T599 383T586 387L584 383Q584 383 596 374T625 343T654 287T667 200Q667 149 658 115T636 60T615 31T605 22L606 18Z" />
<glyph unicode="6" glyph-name="six" horiz-adv-x="1097" d="M541 -22Q451 -22 365 2T209 72T98 180T57 321Q57 399 98 463T210 573T374 645T570 670Q650 670 713 661T819 639T886 617T909 607V643H943V476H909Q909 476 892 491T844 530T775 576T691 614T600 630Q524
630 479 596T414 501T394 358Q394 358 417 367T481 389T575 411T688 421Q747 421 809 408T923 370T1008 306T1040 217Q1040 167 1012 128T934 61T820 14T685 -13T541 -22ZM299 53L302 58Q302 58 282 75T235 126T188 209T168 322Q168 373 183 414T222 487T268 541T306
574T322 585L319 591Q319 591 298 582T246 553T185 502T133 426T112 322Q112 263 131 219T178 143T233 91T280 62T299 53ZM713 28Q713 28 728 36T762 65T796 121T811 211Q811 265 796 299T761 353T726 380T711 388L709 384Q709 384 722 367T749 312T763 211Q763
148 750 109T724 51T710 32L713 28ZM548 17Q608 17 641 38T689 90T707 153T710 206Q710 246 697 284T657 348T584 373Q550 373 517 365T455 346T410 327T393 318V277Q393 230 397 184T415 100T461 40T548 17Z" />
<glyph unicode="7" glyph-name="seven" horiz-adv-x="1106" d="M322 0Q322 84 345 163T403 311H242V355H426Q459 414 494 462T559 546T608 600T627 619Q627 619 614 620T575 622Q538 622 481 615T354 585T214 518T76 400H48V650H1049V605H957Q957 605 932 590T867
543T786 465T710 355H859V311H690Q673 269 663 221T652 116Q652 98 653 81T657 43H805V0H322ZM386 43H440Q440 121 462 193T519 330T592 448T666 539T723 599T745 620H691Q691 620 669 599T612 540T539 449T465 332T408 194T386 43ZM98 490L139 521V605H98V490Z"
/>
<glyph unicode="8" glyph-name="eight" horiz-adv-x="1098" d="M549 -22Q447 -22 358 -7T201 35T95 98T57 174Q57 236 138 285T364 356V360Q294 373 241 395T157 446T127 507Q127 552 179 589T325 648T549 670Q679 670 773 648T920 589T972 507Q972 475 942 446T859
395T735 360V356Q879 335 960 286T1041 174Q1041 134 1003 98T897 36T740 -6T549 -22ZM549 369Q623 369 664 402T706 505Q706 551 693 582T645 629T549 645Q488 645 454 629T407 582T393 505Q393 435 434 402T549 369ZM353 380L355 384Q299 406 266 437T232 507Q232
545 266 578T359 633L358 637Q279 617 232 583T184 507Q184 468 230 435T353 380ZM726 382Q762 406 783 438T804 507Q804 545 783 577T727 633L723 629Q737 601 746 570T755 507Q755 474 746 444T722 385L726 382ZM549 12Q623 12 664 53T706 174Q706 252 672 298T549
345Q467 345 430 303T392 174Q392 94 433 53T549 12ZM321 20L323 24Q253 49 211 88T168 174Q168 221 209 260T321 324L319 328Q225 303 169 263T112 174Q112 125 169 85T321 20ZM732 25Q775 52 799 91T823 174Q823 219 799 257T731 324L729 320Q747 287 757 250T768
174Q768 135 758 98T728 28L732 25Z" />
<glyph unicode="9" glyph-name="nine" horiz-adv-x="1087" d="M518 -22Q411 -22 335 -10T219 15T179 27V-7H144V158H179Q179 158 196 144T243 109T313 67T397 32T488 18Q602 18 647 85T693 276Q693 276 670 267T606 245T512 224T400 214Q340 214 280 225T169 260T88
323T57 418Q57 475 99 520T211 597T369 647T546 664Q636 664 722 641T878 573T989 463T1030 313Q1030 235 989 173T877 68T713 1T518 -22ZM504 262Q538 262 571 270T633 290T677 309T694 318V382Q694 426 690 469T671 547T625 603T540 624Q482 624 449 604T400
553T381 491T377 436Q377 389 390 349T431 286T504 262ZM681 25Q681 25 701 42T747 94T794 184T814 312Q814 386 799 440T764 530T729 583T713 600L710 598Q710 598 722 572T746 483T758 312Q758 249 746 197T719 107T691 49T679 28L681 25ZM236 264L237 267Q237
267 227 275T202 300T178 345T167 412Q167 451 178 480T202 527T226 555T235 563L234 566Q234 566 217 559T177 535T137 487T120 412Q120 367 137 338T176 293T217 271T236 264Z" />
<glyph unicode=":" glyph-name="colon" horiz-adv-x="594" d="M296 383Q239 383 193 400T119 445T91 508Q91 543 118 571T192 617T296 634Q353 634 399 617T473 572T501 508Q501 474 474 446T400 400T296 383ZM214 420L217 424Q201 440 191 461T180 508Q180 533
190 554T217 592L214 596Q177 583 154 559T131 508Q131 481 154 458T214 420ZM296 -22Q239 -22 193 -5T119 40T91 103Q91 138 118 166T192 212T296 229Q353 229 399 212T473 167T501 103Q501 69 474 41T400 -5T296 -22ZM214 15L217 19Q201 35 191 56T180 103Q180
128 190 149T217 187L214 191Q177 178 154 154T131 103Q131 76 154 53T214 15Z" />
<glyph unicode=";" glyph-name="semicolon" horiz-adv-x="595" d="M129 -151V-114Q159 -114 201 -110T285 -95T358 -63T396 -5Q374 -12 349 -17T297 -22Q240 -22 194 -5T119 40T91 103Q91 138 119 166T193 212T297 229Q361 229 405 207T472 148T495 70Q495 31
474 -8T408 -79T294 -131T129 -151ZM215 15L218 19Q202 35 192 56T181 103Q181 128 191 149T218 187L215 191Q178 178 155 154T132 103Q132 76 155 53T215 15ZM303 383Q246 383 200 400T126 445T98 508Q98 543 125 571T199 617T303 634Q360 634 406 617T480 572T508
508Q508 474 481 446T407 400T303 383ZM221 420L224 424Q208 440 198 461T187 508Q187 533 197 554T224 592L221 596Q184 583 161 559T138 508Q138 481 161 458T221 420Z" />
<glyph unicode="&lt;" glyph-name="less" horiz-adv-x="740" d="M585 87L107 309V369L585 591L619 520L217 339L619 158L585 87Z" />
<glyph unicode="=" glyph-name="equal" horiz-adv-x="740" d="M100 408V488H640V408H100ZM100 188V268H640V188H100Z" />
<glyph unicode="&gt;" glyph-name="greater" horiz-adv-x="740" d="M141 87L107 158L509 339L107 520L141 591L619 369V309L141 87Z" />
<glyph unicode="?" glyph-name="question" horiz-adv-x="1092" d="M417 317Q398 317 381 317T338 319V364Q361 363 389 363T436 362Q479 362 514 377T569 434T590 553Q590 621 583 659T563 716T535 740T506 745Q466 745 420 733T327 698T242 649T175 593T139 536H97V800H139V735Q183
748 234 758T350 776T502 783Q592 783 678 776T832 749T941 696T982 609Q982 549 936 497T811 404T630 340T417 317ZM614 375Q630 382 654 402T697 464T716 573Q716 634 697 670T654 726T614 751L608 743Q626 715 639 672T652 573Q652 511 639 464T608 384L614
375ZM496 -26Q433 -26 381 -8T297 43T266 113Q266 152 297 183T380 233T496 252Q559 252 611 234T693 184T724 113Q724 75 694 43T611 -7T496 -26ZM423 16L426 21Q410 38 400 61T389 113Q389 141 399 164T426 205L423 210Q386 195 363 169T340 113Q340 83 363 57T423
16Z" />
<glyph unicode="@" glyph-name="at" horiz-adv-x="1278" d="M575 -1Q507 -1 459 29T387 106T362 205Q362 256 387 303T466 379T600 409Q657 409 684 408T735 406V496Q735 515 731 540T712 589T668 628T587 644Q512 644 455 609T357 515T297 383T276 233Q276 158
296 88T358 -39T465 -129T618 -162Q736 -162 839 -125T1020 -22T1143 131T1188 317H1248Q1248 228 1216 147T1126 -1T990 -117T817 -194T618 -222Q476 -222 370 -183T192 -76T86 74T50 244Q50 329 83 409T184 554T352 656T587 694Q674 694 752 687T891 659T986
599T1021 497V18H775L751 70Q711 36 666 18T575 -1ZM787 74H851V525Q851 542 839 568T800 617T726 651L723 641Q751 630 764 609T782 564T787 525V74ZM315 -118L318 -110Q277 -78 244 -24T193 100T174 244Q174 319 192 387T243 510T317 596L314 604Q252 577 206
520T135 390T110 244Q110 190 124 135T166 29T230 -59T315 -118ZM548 34L550 41Q503 73 483 119T462 205Q462 244 482 291T550 369L548 376Q484 350 448 304T412 205Q412 153 448 107T548 34ZM600 229Q600 201 610 175T640 133T694 116Q713 116 735 121V355Q716
356 695 356Q663 356 642 337T611 289T600 229Z" />
<glyph unicode="A" glyph-name="A" horiz-adv-x="1397" d="M-14 0V43Q19 43 51 58T110 96T159 141T192 179T204 195L461 522L436 553Q414 580 388 593T313 607H234V650H806L1296 43H1410V0H659V43H733Q758 43 775 54T792 86Q792 112 763 148L726 194H283Q268 171
261 150T254 112Q254 79 275 61T329 43H422V0H-14ZM928 43H1005L550 607H473L928 43ZM321 242H688L500 474L321 242Z" />
<glyph unicode="B" glyph-name="B" horiz-adv-x="1481" d="M73 0V43H193Q238 43 269 67T301 151V497Q301 527 287 552T248 592T193 607H73V650H1035Q1102 650 1161 645T1265 626T1336 582T1362 505Q1362 468 1347 441T1309 396T1264 366T1228 350V345Q1245 342
1276 332T1341 303T1398 253T1421 175Q1421 132 1401 102T1347 52T1272 21T1190 5T1114 0H73ZM369 43H434V607H369V43ZM692 362H849Q879 362 909 374T959 414T980 484Q980 543 936 574T810 606Q755 606 724 579T692 508V362ZM1024 364Q1070 379 1101 408T1132 478Q1132
519 1102 548T1024 591L1021 588Q1040 565 1050 539T1061 478Q1061 445 1051 419T1021 368L1024 364ZM776 43H867Q901 43 935 56T994 99T1018 184Q1018 258 972 291T856 324H692V145Q692 100 711 72T776 43ZM1043 47Q1099 65 1135 101T1172 184Q1172 233 1136 269T1043
323L1040 319Q1068 295 1085 262T1102 184Q1102 141 1086 108T1041 51L1043 47Z" />
<glyph unicode="C" glyph-name="C" horiz-adv-x="1097" d="M666 -22Q537 -22 421 -2T215 60T74 168T22 328Q22 404 58 461T155 558T295 624T460 662T630 674Q731 674 822 651T989 600V650H1037V411H989Q970 448 933 486T847 557T741 610T625 630Q567 630 534 611T488
560T474 485V211Q474 111 517 66T669 20Q764 20 832 38T946 81T1019 124T1060 143Q1067 143 1075 139T1084 123Q1084 108 1057 88T980 42Q930 17 855 -2T666 -22ZM356 59L357 64Q302 88 256 124T181 209T152 320Q152 389 180 442T255 535T357 600L356 605Q276 583
214 540T116 441T81 320Q81 261 116 210T213 119T356 59Z" />
<glyph unicode="D" glyph-name="D" horiz-adv-x="1469" d="M70 0V43H190Q235 43 267 67T299 152V498Q299 528 285 552T245 592T190 607H70V650H833Q925 650 1014 640T1181 607T1318 547T1412 458T1446 337Q1446 267 1421 215T1352 126T1255 64T1143 25T1028 6T925
0H70ZM366 43H431V607H366V43ZM772 43H863Q910 43 942 67T993 131T1021 221T1030 324Q1030 404 1010 468T942 569T807 606Q752 606 720 580T688 508V145Q688 100 707 72T772 43ZM1034 50Q1110 93 1155 158T1200 324Q1200 425 1155 490T1034 598L1032 595Q1074 538
1096 470T1119 324Q1119 248 1097 179T1032 53L1034 50Z" />
<glyph unicode="E" glyph-name="E" horiz-adv-x="1360" d="M73 0V43H193Q239 43 270 67T302 151V497Q302 527 288 552T249 592T193 607H73V650H1280V420H1251Q1219 464 1161 506T1016 577T804 605Q752 605 722 578T691 508V474Q691 454 696 430T721 389T779 372Q812
372 849 382T921 409T983 449T1022 499H1059V194H1022Q1006 232 965 258T873 298T779 312Q745 312 726 299T699 265T691 223V187Q691 143 696 111T719 61T777 43H802Q856 43 915 46T1035 66T1150 116T1251 212H1280V0H73ZM369 43H435V607H369V43Z" />
<glyph unicode="F" glyph-name="F" horiz-adv-x="1235" d="M73 0V43H193Q238 43 269 67T301 152V497Q301 542 270 574T193 607H73V650H1208V463H1180Q1157 487 1130 512T1061 559T958 593T804 606Q751 606 722 579T692 508V474Q692 454 697 430T721 389T779 372Q844
372 890 399T961 463H998V213H961Q936 271 890 292T779 313Q745 313 726 300T700 266T692 223V147Q692 101 704 79T742 50T810 43H910V0H73ZM369 43H434V607H369V43Z" />
<glyph unicode="G" glyph-name="G" horiz-adv-x="1372" d="M666 -23Q531 -23 414 -4T209 57T72 166T22 328Q22 409 54 468T143 566T276 630T443 664T630 674Q735 674 853 657T1079 607V650H1127V439H1079Q1057 473 1018 506T925 568T811 612T684 629Q626 629 578
615T502 568T474 482V203Q474 169 482 137T511 78T570 37T669 21Q692 21 720 27T773 49T815 95T832 175V247Q832 276 815 299T772 335T718 348H603V391H1403V348H1213V0H1165Q1165 27 1147 45T1094 63Q1066 63 1030 50T945 20T827 -10T666 -23ZM300 67L301 71Q239
108 199 178T159 335Q159 421 199 490T301 596L299 601Q237 581 189 542T113 449T85 335Q85 274 112 221T188 128T300 67ZM914 71Q926 71 937 90T956 143T964 215V346H899V149Q899 101 903 86T914 71Z" />
<glyph unicode="H" glyph-name="H" horiz-adv-x="1711" d="M73 0V43H193Q238 43 269 67T301 151V497Q301 527 287 552T248 592T193 607H73V650H827V607Q772 607 743 594T703 559T692 508V371H1012V508Q1012 537 1001 559T961 594T877 607V650H1632V607H1511Q1482
607 1457 592T1417 552T1402 497V151Q1402 91 1434 67T1511 43H1632V0H877V43Q927 43 954 50T994 70T1009 100T1012 139V274Q1012 290 1004 304T970 318H734Q710 318 701 304T692 274V136Q692 109 698 88T733 55T827 43V0H73ZM369 43H434V607H369V43ZM1081 43H1146V607H1081V43Z"
/>
<glyph unicode="I" glyph-name="I" horiz-adv-x="1003" d="M73 0V43H195Q240 43 272 67T304 151V497Q304 527 290 552T250 592T195 607H73V650H924V607H803Q773 607 749 592T709 552T694 497V151Q694 91 726 67T803 43H924V0H73ZM371 43H436V607H371V43Z" />
<glyph unicode="J" glyph-name="J" horiz-adv-x="1088" d="M434 -22Q334 -22 252 -8T114 24T35 51V0H-14V262H35Q35 262 48 238T87 178T152 106T246 46T368 21Q412 21 444 45T477 129V497Q477 541 449 574T368 607H247V650H1075V607H976Q924 607 896 574T867 497V196Q867
145 847 105T778 36T645 -7T434 -22ZM544 64Q558 70 572 84T597 129T608 208V607H544V64Z" />
<glyph unicode="K" glyph-name="K" horiz-adv-x="1655" d="M73 0V43H193Q238 43 269 67T301 151V498Q301 528 287 552T248 592T193 607H73V650H915V607H804Q752 607 722 580T692 509V403Q692 383 702 364T750 345H770Q797 345 817 352T864 371L1061 460Q1124 489
1152 512T1181 563Q1181 590 1150 598T1041 607V650H1633V607H1526Q1501 607 1465 596T1388 566T1312 530T1249 497T1216 478Q1205 471 1196 460T1186 433Q1186 415 1201 397L1499 43H1633V0H1077L813 296H734Q709 296 701 282T692 252V151Q692 92 724 68T801 43H873V0H73ZM369
43H434V607H369V43ZM1126 43H1213L962 324H875L1126 43Z" />
<glyph unicode="L" glyph-name="L" horiz-adv-x="1249" d="M73 0V43H193Q238 43 269 67T301 151V497Q301 527 287 552T248 592T193 607H73V650H968V607H801Q771 607 747 592T707 552T692 497V151Q692 122 701 97T734 58T801 43Q838 43 885 53T985 89T1093 164T1202
288H1236V0H73ZM369 43H434V607H369V43Z" />
<glyph unicode="M" glyph-name="M" horiz-adv-x="1858" d="M35 0V43Q85 43 140 55T242 95T320 168T350 277V382Q350 433 323 474T248 545T143 591T22 607V650H669L976 389L1144 650H1825V607H1658Q1613 607 1581 589T1549 526V151Q1549 91 1581 67T1658 43H1825V0H930V43H1050Q1095
43 1127 67T1159 151V559L853 85H801L415 411V277Q415 213 445 168T522 96T625 56T730 43V0H35ZM1226 43H1291V607H1226V43ZM811 169H836V232L396 605H296L811 169Z" />
<glyph unicode="N" glyph-name="N" horiz-adv-x="1544" d="M1211 -42L515 379Q514 380 499 386T465 393Q446 393 431 379T415 323V277Q415 212 445 168T522 96T625 56T730 43V0H35V43Q85 43 140 55T242 95T320 167T350 277V382Q350 433 323 474T248 545T143 591T23
607V650H772L1120 431Q1120 431 1132 424T1160 407T1192 390T1214 383Q1220 383 1228 388T1237 410Q1237 475 1216 514T1160 573T1086 600T1009 607V650H1529V607Q1492 607 1452 600T1378 573T1323 514T1301 410V-42H1211ZM1211 35V107L383 607H356V552L1211 35Z"
/>
<glyph unicode="O" glyph-name="O" horiz-adv-x="1345" d="M672 -22Q537 -22 420 5T213 79T73 190T22 325Q22 397 67 459T198 569T403 643T672 670Q821 670 941 644T1146 570T1276 460T1322 325Q1322 253 1272 190T1132 80T925 5T672 -22ZM672 19Q770 19 824 96T879
324Q879 424 862 492T799 594T672 629Q591 629 546 595T483 492T465 324Q465 173 520 96T672 19ZM384 40L385 44Q315 72 262 115T179 211T149 325Q149 385 179 439T263 536T389 607L388 611Q295 584 225 541T115 442T76 325Q76 264 114 210T222 112T384 40ZM909
47Q965 99 1000 172T1035 325Q1035 405 1000 478T909 603L903 601Q929 538 944 467T960 325Q960 255 945 184T903 49L909 47Z" />
<glyph unicode="P" glyph-name="P" horiz-adv-x="1447" d="M73 0V43H194Q240 43 271 67T303 151V497Q303 527 289 552T250 592T194 607H73V650H1082Q1126 650 1174 647T1269 633T1352 602T1412 550T1434 469Q1434 401 1393 360T1282 302T1122 284H749Q721 284
708 269T694 216V151Q694 92 725 68T802 43H924V0H73ZM370 43H436V607H370V43ZM745 329H846Q867 329 894 336T948 360T992 402T1010 468Q1010 507 993 533T949 576T895 599T846 607H745Q724 607 710 592T695 556V379Q695 359 709 344T745 329ZM1061 333Q1087 342
1109 363T1144 412T1157 468Q1157 497 1144 524T1109 573T1061 603L1056 600Q1074 572 1081 538T1088 468Q1088 434 1081 399T1056 336L1061 333Z" />
<glyph unicode="Q" glyph-name="Q" horiz-adv-x="1345" d="M427 -207V-164Q442 -132 475 -107T552 -61T638 -25V-21Q509 -17 398 11T202 86T70 194T22 325Q22 397 67 460T198 570T403 644T672 671Q821 671 941 644T1146 570T1276 460T1322 325Q1322 259 1279 200T1157
95T975 19T751 -19Q735 -39 728 -62T721 -106Q721 -131 730 -147T759 -164H916V-207H427ZM672 20Q770 20 824 97T879 325Q879 425 862 492T799 594T672 629Q591 629 546 595T483 493T465 325Q465 174 520 97T672 20ZM384 40L385 44Q315 72 262 115T179 211T149
325Q149 385 179 439T263 536T389 607L388 611Q295 584 225 541T115 442T76 325Q76 264 114 210T222 112T384 40ZM909 47Q965 99 1000 172T1035 325Q1035 405 1000 478T909 603L903 601Q929 538 944 467T960 325Q960 255 945 184T903 49L909 47ZM497 -164H558Q558
-150 570 -132T600 -96T633 -63T657 -42L655 -39Q637 -46 611 -60T558 -94T515 -131T497 -164Z" />
<glyph unicode="R" glyph-name="R" horiz-adv-x="1585" d="M73 0V43H194Q240 43 271 67T303 152V497Q303 542 272 574T194 607H73V650H1147Q1191 650 1240 647T1335 633T1418 603T1477 551T1499 469Q1499 414 1465 380T1374 329T1251 305T1120 296V291Q1141 273
1193 250T1319 215L1453 43H1571V0H978L778 256Q778 256 769 266T748 287T723 298Q702 298 698 281T694 227V152Q694 92 725 68T802 43H877V0H73ZM370 43H436V607H370V43ZM856 349Q898 349 937 360T1001 398T1026 468Q1026 507 1009 533T965 576T911 599T862 607H745Q724
607 710 592T695 556V413Q695 396 718 381T778 358T856 349ZM1093 336Q1134 347 1161 384T1188 468Q1188 516 1161 552T1092 601L1089 598Q1108 570 1113 538T1119 468Q1119 433 1113 400T1090 339L1093 336ZM1024 43H1107L909 298H826L1024 43Z" />
<glyph unicode="S" glyph-name="S" horiz-adv-x="1261" d="M644 -21Q551 -21 474 -12T324 15T169 58L141 0H94V281H141Q154 252 189 217T278 148T398 84T539 38T691 20Q730 20 768 23T832 38T858 70Q858 92 826 109T740 141T617 171T477 203T337 243T215 294T128
360T96 447Q96 513 126 555T206 620T319 654T445 667T567 670Q619 670 685 665T820 650T953 629T1065 607L1083 650H1130V439H1083Q1069 460 1028 485T928 535T805 582T675 616T558 629Q505 629 468 618T431 575Q431 549 462 532T545 504T663 482T798 459T933 427T1051
380T1135 309T1166 206Q1166 85 1032 32T644 -21ZM973 68L977 69V92Q977 144 944 175T855 224T727 257T577 291Q507 308 440 328T316 376T223 441T177 529L170 530Q164 517 161 497T157 460Q157 390 241 340T504 244Q615 216 693 198T825 165T914 127T973 68Z"
/>
<glyph unicode="T" glyph-name="T" horiz-adv-x="1104" d="M127 0V43H248Q293 43 324 67T356 152V557Q356 580 348 593T319 606Q304 606 281 589T232 544T180 486T133 428T99 383T86 365H66V650H1055V365H1017Q1017 365 1004 382T970 427T924 486T872 544T823
588T785 606Q765 606 756 593T747 557V152Q747 92 779 68T856 43H977V0H127ZM424 43H489V607H424V43Z" />
<glyph unicode="U" glyph-name="U" horiz-adv-x="1217" d="M652 -22Q522 -22 437 -10T302 24T226 72T194 125T186 177V499Q186 559 155 583T78 607H40V650H701V607H685Q640 607 609 583T577 499V167Q577 97 603 64T692 31Q772 31 822 42T899 74T936 119T947 174V411Q947
476 927 515T875 574T812 600T757 607V650H1212V607Q1175 607 1140 601T1075 574T1029 515T1012 411V220Q1012 183 1008 148T986 82T930 28T824 -9T652 -22ZM319 88V607H254Q254 607 254 578T254 503T254 403T254 298T254 210Q254 164 263 139T285 103T307 90T319
88Z" />
<glyph unicode="V" glyph-name="V" horiz-adv-x="1259" d="M618 -23L53 607H-14V650H690V607H662Q631 607 615 585T599 533Q599 512 608 490T634 450L821 260L951 402Q967 419 974 437T981 474Q981 508 959 538T898 587T805 607H755V650H1273V607H1222L654 -23H618ZM635
21L679 69L197 607H110L635 21Z" />
<glyph unicode="W" glyph-name="W" horiz-adv-x="2028" d="M618 -23L53 607H-14V650H690V607H662Q631 607 615 585T599 533Q599 512 608 490T634 450L821 260L978 433L822 607H755V650H1459V607H1432Q1401 607 1385 585T1369 533Q1369 512 1378 490T1404 450L1589
260L1720 402Q1736 419 1743 437T1750 474Q1750 508 1728 538T1666 588T1573 607H1524V650H2041V607H1992L1423 -23H1387L1021 383L654 -23H618ZM636 21L679 69L197 607H110L636 21ZM1405 21L1448 69L966 607H878L1405 21Z" />
<glyph unicode="X" glyph-name="X" horiz-adv-x="1373" d="M13 0V43H47Q89 43 132 57T210 91T263 121L535 296L340 497Q311 527 272 552T194 592T125 607H64V650H751V607H733Q710 607 699 597T687 572Q687 540 730 497L805 420L833 439Q882 472 901 498T920 546Q920
574 903 590T860 607H841V649H1327V607H1294Q1252 607 1209 592T1132 557T1079 525L849 376L1067 151Q1126 91 1181 67T1282 43H1360V0H634V43H674Q698 43 712 50T727 72Q727 85 715 104T677 151L577 254L508 209Q459 177 440 150T421 102Q421 74 438 59T481 43H576V0H13ZM850
43H914L366 607H301L850 43Z" />
<glyph unicode="Y" glyph-name="Y" horiz-adv-x="1309" d="M197 0V43H319Q364 43 395 67T427 151V270L87 607H-14V650H735V607H707Q685 607 672 594T659 561Q659 547 666 530T689 498L818 370L877 418Q913 447 931 477T949 534Q949 565 924 586T850 607H800V650H1323V607H1257L818
291V151Q818 92 850 68T927 43H1048V0H197ZM495 43H560V306L255 607H176L495 292V43Z" />
<glyph unicode="Z" glyph-name="Z" horiz-adv-x="1173" d="M54 0V43H77L626 607H569Q478 607 409 588T289 540T201 480T141 424H112V650H1119V607H1098L548 43H666Q759 43 826 61T940 107T1020 167T1075 226H1104V0H54ZM166 43H257L805 607H712L166 43Z" />
<glyph unicode="[" glyph-name="bracketleft" horiz-adv-x="705" d="M150 -95V715H725V670H604Q574 670 550 656T510 617T495 562V56Q495 -4 527 -28T604 -52H725V-95H150ZM217 -52H282V670H217V-52Z" />
<glyph unicode="\" glyph-name="backslash" horiz-adv-x="582" d="M450 -52L50 670H132L532 -52H450Z" />
<glyph unicode="]" glyph-name="bracketright" horiz-adv-x="715" d="M-10 -95V-52H111Q156 -52 188 -28T220 56V562Q220 592 206 616T166 655T111 670H-10V715H565V-95H-10ZM287 -52H352V670H287V-52Z" />
<glyph unicode="^" glyph-name="asciicircum" horiz-adv-x="740" d="M209 189L143 223L345 595H395L597 223L531 189L370 491L209 189Z" />
<glyph unicode="_" glyph-name="underscore" horiz-adv-x="1010" d="M100 -100V-20H910V-100H100Z" />
<glyph unicode="`" glyph-name="grave" horiz-adv-x="650" d="M546 624Q513 624 466 624T369 626T273 631T198 642Q152 653 123 674T78 717T56 754T50 770H341Q366 735 396 711T474 673T600 660V624H546ZM288 663V667Q273 672 253 682T214 708T187 742H123Q132
730 150 712T202 680T288 663Z" />
<glyph unicode="a" glyph-name="a" horiz-adv-x="1162" d="M337 -22Q236 -22 175 8T87 87T60 187Q60 238 88 284T177 360T337 390Q403 390 454 389T550 387T639 383V386Q639 404 635 427T615 473T567 510T479 525Q413 525 352 508T243 467T168 425H127V579H169Q171
571 175 554T183 527Q279 556 382 568T606 580Q732 580 814 568T936 521T976 423V132Q976 83 1002 63T1066 43H1132V0H639V52Q570 17 491 -2T337 -22ZM701 43H752V409Q752 429 744 452T709 496T628 528L626 521Q659 508 675 489T696 448T701 409V43ZM369 8V14Q308
14 267 39T204 105T183 187Q183 228 203 266T266 330T370 355V361Q285 361 228 336T143 271T115 187Q115 142 143 101T228 34T369 8ZM417 207Q417 178 428 152T465 109T531 92Q580 92 639 113V332Q611 334 584 334T532 335Q493 335 468 316T430 267T417 207Z" />
<glyph unicode="b" glyph-name="b" horiz-adv-x="1166" d="M156 -22V588Q156 624 130 650T66 677H0V720H493V497Q543 541 610 560T747 580Q836 580 905 556T1021 489T1092 395T1116 287Q1116 230 1090 175T1008 76T869 5T669 -22Q530 -22 422 5T218 69L185 -22H156ZM269
113V677H218V130L269 113ZM725 20Q775 41 809 77T860 156T878 245Q878 292 865 342T818 434T726 500L722 494Q772 458 790 391T809 244Q809 171 787 113T721 24L725 20ZM619 21Q680 21 713 77T746 244Q746 318 735 374T697 463T619 496Q590 496 565 485T521 458T493
432V244Q493 134 526 78T619 21Z" />
<glyph unicode="c" glyph-name="c" horiz-adv-x="943" d="M556 -22Q454 -22 363 -5T202 48T91 142T50 278Q50 343 78 392T153 476T262 535T389 568T521 579Q608 579 687 560T831 518V558H884V350H833Q819 371 790 402T721 464T636 515T544 536Q483 536 461 502T439
415V185Q439 102 470 64T581 26Q652 26 707 40T802 74T866 108T900 123Q906 123 914 119T923 103Q923 92 906 78T862 50T804 23Q750 2 683 -10T556 -22ZM412 20L414 30Q346 50 294 85T211 169T181 278Q181 339 211 387T294 470T415 525L413 534Q325 515 258 478T152
391T113 278Q113 216 151 165T257 78T412 20Z" />
<glyph unicode="d" glyph-name="d" horiz-adv-x="1190" d="M394 -22Q307 -22 242 1T135 65T71 157T50 262Q50 321 73 377T142 479T255 552T411 580Q480 580 547 561T667 497V588Q667 624 644 650T587 677H533V720H1005V132Q1005 83 1031 63T1094 43H1160V0H667V68Q635
40 590 20T494 -11T394 -22ZM729 43H780V677H729V43ZM407 10L409 18Q326 27 272 63T192 152T165 263Q165 323 192 379T274 478T407 535L405 545Q310 532 245 488T147 385T113 262Q113 202 145 148T242 56T407 10ZM543 54Q584 54 616 77T667 131V432Q659 443 641
458T597 484T543 496Q495 496 468 466T430 383T419 262Q419 159 451 107T543 54Z" />
<glyph unicode="e" glyph-name="e" horiz-adv-x="983" d="M567 -22Q463 -22 370 -5T204 48T91 142T50 278Q50 343 77 392T152 476T260 535T387 568T517 579Q637 579 716 563T840 520T904 459T923 389Q923 354 905 321T842 260T721 216T526 199H425Q435 111 473
69T587 26Q660 26 717 40T817 74T885 108T920 123Q926 123 934 119T943 103Q943 92 925 78T879 50T819 23Q764 2 696 -10T567 -22ZM623 252Q692 273 728 314T764 402Q764 447 727 486T618 545L616 537Q664 516 688 480T713 402Q713 362 690 323T620 261L623 252ZM421
279Q421 268 421 259H526Q566 259 593 280T635 333T650 402Q650 436 637 466T600 516T538 536Q474 536 448 472T421 279ZM412 20L414 30Q346 50 294 85T211 169T181 278Q181 339 211 387T294 470T415 525L413 534Q325 515 258 478T152 391T113 278Q113 216 151
165T257 78T412 20Z" />
<glyph unicode="f" glyph-name="f" horiz-adv-x="777" d="M60 0V43H126Q163 43 189 63T216 132V426Q216 462 190 488T126 515H60V558H193Q229 651 269 711T353 805T443 852T539 866Q589 866 629 848T693 800T717 732Q717 694 693 663T627 614T534 595Q489 595
454 610T396 649T361 693L344 684Q367 611 419 585T547 558H709V515H643Q606 515 580 496T553 426V132Q553 83 579 63T643 43H709V0H60ZM464 636Q432 676 432 732Q432 789 464 826Q430 812 409 787T387 732Q387 701 408 676T464 636ZM278 43H329V403Q329 423 321
446T286 490T205 522L203 515Q236 502 252 483T273 442T278 403V43Z" />
<glyph unicode="g" glyph-name="g" horiz-adv-x="1060" d="M520 143Q437 143 360 158Q336 145 336 126Q336 103 362 93T434 79T535 76T651 75T767 65T869 37T940 -19T967 -114Q967 -169 923 -216T809 -287Q795 -255 756 -237T661 -210T540 -196T409 -186T281 -171T171
-142T94 -90T65 -4Q65 47 92 83T164 143T261 184Q176 213 125 260T73 362Q73 423 127 472T282 550T520 580Q533 580 546 580Q620 721 703 779T886 838Q937 838 979 820T1045 770T1070 699Q1070 660 1045 628T977 577T881 558Q835 558 795 576T729 623T695 682Q670
663 645 635T601 577Q714 568 796 538T922 462T966 362Q966 317 932 277T836 207T694 160T520 143ZM808 600Q775 642 775 699Q775 758 808 797Q774 782 752 756T729 699Q729 668 751 642T808 600ZM520 186Q552 186 584 205T637 264T659 361Q659 448 620 492T520
536Q461 536 421 492T381 361Q381 303 402 264T456 206T520 186ZM349 194L353 203Q285 229 245 270T204 362Q204 413 244 453T351 519L348 528Q252 502 194 460T136 362Q136 307 194 264T349 194ZM678 201Q730 230 760 275T790 361Q790 399 761 445T679 519L672
517Q694 482 708 439T722 361Q722 326 708 283T671 203L678 201ZM818 -220L826 -218Q820 -179 789 -157T710 -123T601 -108T475 -101Q395 -97 322 -84T199 -42T135 39L128 38Q121 18 121 -2Q121 -52 167 -83T292 -129T473 -150Q558 -154 615 -159T710 -171T773
-191T818 -220Z" />
<glyph unicode="h" glyph-name="h" horiz-adv-x="1324" d="M60 0V43H126Q170 43 193 66T216 132V588Q216 624 190 650T126 677H60V720H553V430Q634 504 722 542T900 580Q1025 580 1081 543T1138 423V132Q1138 89 1161 66T1228 43H1294V0H801V364Q801 414 786 435T735
456Q709 456 677 445T612 413T553 367V132Q553 89 576 66T643 43H709V0H60ZM278 43H329V677H278V43ZM863 43H914V357Q914 404 882 438T790 486L788 479Q823 464 843 432T863 357V43Z" />
<glyph unicode="i" glyph-name="i" horiz-adv-x="739" d="M379 615Q323 615 276 632T202 677T174 740Q174 775 201 803T276 849T379 866Q436 866 482 849T556 804T584 740Q584 706 557 678T483 632T379 615ZM299 653Q283 670 273 692T263 740Q263 766 273 788T299
827Q262 814 238 791T214 740Q214 712 238 689T299 653ZM60 0V43H126Q163 43 189 63T216 132V426Q216 462 190 488T126 515H60V558H553V132Q553 83 579 63T643 43H709V0H60ZM278 43H329V515H278V43Z" />
<glyph unicode="j" glyph-name="j" horiz-adv-x="645" d="M346 615Q290 615 243 632T169 677T141 740Q141 775 168 803T243 849T346 866Q403 866 449 849T523 804T551 740Q551 706 524 678T450 632T346 615ZM266 653Q250 670 240 692T230 740Q230 766 240 788T266
827Q229 814 205 791T181 740Q181 712 205 689T266 653ZM236 -223Q165 -223 100 -205T-3 -153V-200H-50V43H-11Q-6 -11 10 -56T54 -128T121 -156Q151 -156 166 -138T182 -75V426Q182 462 156 488T92 515H26V558H519V-26Q519 -94 480 -137T376 -202T236 -223ZM244
-135Q262 -125 278 -97T294 -16V515H244V-135Z" />
<glyph unicode="k" glyph-name="k" horiz-adv-x="1281" d="M50 0V43H115Q152 43 178 63T204 132V587Q204 623 178 650T115 677H50V720H542V346Q542 329 550 314T588 299H606Q616 299 638 309T692 336T755 369Q794 390 830 410T888 448T911 480Q911 502 885 508T793
515V558H1261V515H1208Q1188 515 1158 506T1094 481T1029 451T976 423T945 406Q937 401 929 392T921 371Q921 357 933 342Q939 334 960 310T1009 251T1069 181T1126 114T1169 63T1186 43H1261V0H826L601 252H575Q555 252 549 241T542 217V132Q542 83 568 63T632
43H656V0H50ZM267 43H317V677H267V43ZM855 43H923L728 275H659L855 43Z" />
<glyph unicode="l" glyph-name="l" horiz-adv-x="729" d="M50 0V43H116Q153 43 179 63T206 132V588Q206 624 180 650T116 677H50V720H543V132Q543 83 569 63T633 43H699V0H50ZM268 43H319V677H268V43Z" />
<glyph unicode="m" glyph-name="m" horiz-adv-x="1849" d="M60 0V43H126Q170 43 193 66T216 132V426Q216 462 190 488T126 515H60V558H553V430Q604 501 687 540T870 580Q992 580 1049 545T1108 430V430Q1159 501 1242 540T1425 580Q1550 580 1606 543T1663 423V132Q1663
89 1686 66T1753 43H1819V0H1326V364Q1326 456 1244 456Q1209 456 1172 432T1108 367V132Q1108 89 1131 66T1198 43H1234V0H771V364Q771 456 689 456Q654 456 617 432T553 367V132Q553 89 576 66T643 43H679V0H60ZM278 43H329V515H278V43ZM833 43H884V357Q884 405
852 439T760 486L758 479Q793 464 813 432T833 357V43ZM1388 43H1439V357Q1439 405 1407 439T1315 486L1313 479Q1348 465 1368 433T1388 357V43Z" />
<glyph unicode="n" glyph-name="n" horiz-adv-x="1324" d="M60 0V43H126Q170 43 193 66T216 132V426Q216 462 190 488T126 515H60V558H553V430Q634 504 722 542T900 580Q1025 580 1081 543T1138 423V132Q1138 89 1161 66T1228 43H1294V0H801V364Q801 415 786 435T735
456Q709 456 677 445T612 413T553 367V132Q553 89 576 66T643 43H709V0H60ZM278 43H329V515H278V43ZM863 43H914V357Q914 405 882 439T790 486L788 479Q823 464 843 432T863 357V43Z" />
<glyph unicode="o" glyph-name="o" horiz-adv-x="1099" d="M550 -22Q444 -22 352 1T189 66T80 162T40 280Q40 346 77 400T183 495T345 558T550 580Q661 580 754 558T916 496T1021 401T1059 280Q1059 217 1020 163T910 67T748 2T550 -22ZM402 22L404 32Q295 64
233 129T171 280Q171 365 232 429T405 527L403 536Q310 515 243 477T139 389T103 280Q103 192 183 124T402 22ZM550 22Q625 22 657 81T689 279Q689 419 657 477T550 536Q475 536 443 478T411 279Q411 140 443 81T550 22ZM708 35Q762 81 791 145T821 280Q821 351
792 414T709 523L705 520Q752 400 752 280Q752 158 704 38L708 35Z" />
<glyph unicode="p" glyph-name="p" horiz-adv-x="1190" d="M30 -200V-157H95Q132 -157 158 -137T185 -68V426Q185 476 159 495T96 515H30V558H523V490Q556 518 601 538T696 569T796 580Q883 580 948 557T1055 493T1119 401T1140 296Q1140 238 1117 181T1047 79T932
6T775 -22Q705 -22 639 -2T523 61V-68Q523 -117 546 -137T603 -157H702V-200H30ZM726 41Q788 59 822 96T871 185T886 296Q886 382 845 442T725 525L722 515Q776 489 805 432T834 296Q834 241 824 192T790 106T721 48L726 41ZM247 -157H298V515H247V-157ZM647 62Q696
62 722 92T760 175T771 296Q771 399 739 451T647 504Q607 504 575 481T523 427V126Q532 115 550 100T593 74T647 62Z" />
<glyph unicode="q" glyph-name="q" horiz-adv-x="1146" d="M673 -200V61Q624 18 557 -2T419 -22Q343 -22 276 -3T159 54T79 151T50 288Q50 377 104 442T259 544T497 580Q563 580 645 572T809 550T960 521L981 580H1010V-68Q1010 -104 1036 -130T1100 -157H1166V-200H673ZM546
62Q576 62 601 73T646 100T673 126V314Q673 424 640 480T546 537Q486 537 453 481T420 314Q420 241 431 184T469 95T546 62ZM412 22L414 32Q305 55 243 122T181 280Q181 341 211 391T294 476T415 527L413 536Q325 522 258 485T152 395T113 280Q113 218 151 163T257
71T412 22ZM736 -157H787V356Q787 387 779 422T744 487T663 528L661 521Q685 511 700 490T723 442T733 393T736 356V-157Z" />
<glyph unicode="r" glyph-name="r" horiz-adv-x="1001" d="M60 0V43H126Q163 43 189 63T216 132V426Q216 462 190 488T126 515H60V558H553V384Q610 485 683 532T832 580Q879 580 917 562T978 512T1001 441Q1001 396 978 365T918 318T840 302Q803 302 768 315T705
356T666 424Q634 400 603 361T553 286V132Q553 83 579 63T643 43H749V0H60ZM779 345Q746 387 746 444Q746 503 779 542Q745 527 723 501T700 444Q700 413 722 387T779 345ZM278 43H329V515H278V43Z" />
<glyph unicode="s" glyph-name="s" horiz-adv-x="1092" d="M612 -22Q511 -22 406 -8T185 45L163 -4H120V240H163Q180 194 222 154T324 84T456 36T608 19Q639 19 669 22T719 33T740 58Q740 78 707 94T618 125T497 156T364 193T243 240T155 303T121 386Q121 439
146 473T212 527T304 556T408 568T507 571Q549 571 602 567T711 555T818 538T910 518Q913 527 917 536T924 554H967V370H925Q910 392 871 419T773 472T645 514T499 531Q457 531 428 523T399 488Q399 464 431 449T517 424T634 403T762 377T879 336T964 272T997 175Q997
105 950 62T816 -2T612 -22ZM830 67L838 68Q838 112 811 140T737 185T632 216T512 244Q453 258 399 276T300 317T229 371T199 442H192Q178 414 178 391Q178 345 224 309T364 240T604 171Q664 157 705 144T777 113T830 67Z" />
<glyph unicode="t" glyph-name="t" horiz-adv-x="753" d="M417 -22Q351 -22 297 -10T211 36T179 136V426Q179 476 153 495T89 515H20V558H60Q113 558 158 575T236 614T289 653T308 670H516V558H743V515H516V205Q516 139 548 108T630 77Q680 77 737 104L753 64Q691
29 606 4T417 -22ZM172 522Q204 511 223 488T242 426V136Q242 76 270 49T345 13L346 21Q322 33 308 60T293 136V426Q293 470 260 494T174 529L172 522Z" />
<glyph unicode="u" glyph-name="u" horiz-adv-x="1284" d="M385 -22Q327 -22 280 -10T204 36T176 136V426Q176 476 150 495T86 515H20V558H472V225Q472 201 479 173T509 124T581 103Q635 103 683 130T761 192V426Q761 476 735 495T671 515H605V558H1098V132Q1098
96 1124 70T1188 43H1254V0H761V129Q728 95 674 60T547 2T385 -22ZM342 13L343 21Q319 33 305 60T290 136V426Q290 470 257 494T171 528L169 521Q201 510 220 487T239 426V136Q239 76 267 49T342 13ZM824 43H875V426Q875 470 842 494T756 528L754 521Q786 510 805
487T824 426V43Z" />
<glyph unicode="v" glyph-name="v" horiz-adv-x="1059" d="M480 -19L39 515H-30V558H544V515H495Q476 515 464 503T451 470Q451 454 461 433T496 387L652 229L762 346Q781 366 789 385T798 424Q798 462 762 488T659 515H594V558H1049V515H994L512 -19H480ZM499
31L529 63L157 515H100L499 31Z" />
<glyph unicode="w" glyph-name="w" horiz-adv-x="1663" d="M480 -19L39 515H-30V558H544V515H495Q476 515 464 503T451 470Q451 454 461 433T496 387L652 229L773 357L643 515H594V558H1148V515H1099Q1080 515 1068 503T1055 470Q1055 454 1065 433T1100 387L1256
229L1366 346Q1385 366 1393 385T1402 424Q1402 462 1366 488T1263 515H1198V558H1653V515H1598L1116 -19H1084L811 311L512 -19H480ZM499 31L529 63L157 515H100L499 31ZM1103 31L1133 63L761 515H704L1103 31Z" />
<glyph unicode="x" glyph-name="x" horiz-adv-x="1067" d="M30 0V43H61Q96 43 132 55T198 82T243 108L432 230L286 423Q247 474 201 494T105 515H40V558H509L639 384Q675 411 690 431T705 467Q705 490 688 502T656 515H637V557H1057V515H1025Q993 515 958 502T892
473T844 446L675 336L827 133Q855 96 887 77T951 50T1007 43H1067V0H605L466 185L454 177Q416 152 399 129T381 89Q381 67 399 55T431 43H474V0H30ZM654 43H717L360 515H297L654 43Z" />
<glyph unicode="y" glyph-name="y" horiz-adv-x="1058" d="M207 -221Q158 -221 118 -203T53 -155T29 -87Q29 -49 53 -18T119 31T212 50Q257 50 293 33T357 -10T400 -65L463 0L39 515H-30V558H544V515H495Q476 515 464 503T451 470Q451 454 461 433T496 387L652
229L762 346Q781 366 789 385T798 424Q798 462 762 488T659 515H594V558H1049V515H994L435 -105Q417 -125 386 -152T311 -200T207 -221ZM499 31L529 63L157 515H100L499 31ZM144 -183Q112 -143 112 -87Q112 -30 144 7Q110 -7 89 -32T67 -87Q67 -118 88 -143T144
-183Z" />
<glyph unicode="z" glyph-name="z" horiz-adv-x="971" d="M50 0V43H72L483 515H441Q339 515 277 492T180 434T128 361H100V558H911V515H891L479 43H533Q605 43 659 57T754 95T825 145T880 197H908V0H50ZM154 43H225L634 515H563L154 43Z" />
<glyph unicode="{" glyph-name="braceleft" horiz-adv-x="805" d="M684 -117Q547 -117 452 -94T296 -34T202 45T157 126T144 192Q144 248 120 264T43 281V339Q96 339 120 355T144 428Q144 455 156 494T202 575T295 654T451 714T684 737V683Q684 683 665 681T619
668T564 636T517 577T498 481Q498 424 488 391T459 343T415 323T357 318V302Q389 302 414 298T459 278T488 229T498 139Q498 81 517 44T563 -15T618 -47T665 -60T684 -63V-117ZM481 -62L483 -55Q420 -31 380 -8T319 45T290 115T282 216Q282 260 256 282T189 310Q230
315 256 337T282 404Q282 464 290 505T319 575T380 627T483 675L481 682Q381 658 321 620T235 528T209 404Q209 363 196 343T163 314V306Q183 299 196 278T209 216Q209 146 235 93T321 1T481 -62Z" />
<glyph unicode="|" glyph-name="bar" horiz-adv-x="365" d="M150 -95V715H215V-95H150Z" />
<glyph unicode="}" glyph-name="braceright" horiz-adv-x="805" d="M121 -117V-63Q121 -63 140 -61T186 -48T241 -16T288 43T307 139Q307 196 317 229T346 277T391 297T448 302V318Q417 318 391 322T346 342T317 391T307 481Q307 539 288 576T242 635T187 667T140
680T121 683V737Q258 737 353 714T509 654T603 575T648 494T661 428Q661 372 685 356T762 339V281Q710 281 686 265T661 192Q661 165 649 126T603 45T510 -34T354 -94T121 -117ZM498 338V346Q479 354 466 374T452 436Q452 506 432 554T361 636T220 694L218 687Q283
665 317 637T365 563T379 436Q379 376 412 357T498 338ZM220 -74Q311 -50 361 -17T431 65T452 184Q452 225 465 246T498 274V282Q446 282 413 263T379 184Q379 105 366 58T318 -17T218 -67L220 -74Z" />
<glyph unicode="~" glyph-name="asciitilde" horiz-adv-x="740" d="M212 253Q181 253 152 262T100 298V378Q127 353 155 343T211 333Q250 333 289 346T369 378T449 410T528 424Q557 424 584 414T640 379V299Q616 324 587 334T525 344Q483 344 445 331T370 299T295
267T212 253Z" />
<glyph unicode="&#xa0;" glyph-name="uni00A0" horiz-adv-x="450" />
<glyph unicode="&#xa1;" glyph-name="exclamdown" horiz-adv-x="679" d="M338 326Q274 326 222 344T139 395T108 465Q108 504 139 535T222 585T338 604Q401 604 453 586T536 536T567 465Q567 427 536 395T453 345T338 326ZM273 368L276 373Q258 390 247 414T236
465Q236 492 247 516T276 557L273 562Q233 547 208 521T182 465Q182 435 207 409T273 368ZM338 -223Q242 -223 191 -193T139 -104Q139 -85 150 -50T180 29T221 117T265 198T307 258T338 281Q350 281 369 259T410 199T455 117T496 30T526 -49T537 -104Q537 -162
485 -192T338 -223ZM298 -181L302 -172Q283 -165 269 -153T254 -128Q254 -111 265 -76T293 5T330 95T368 178L338 226Q323 199 305 162T270 83T238 2T215 -69T206 -117Q206 -142 233 -158T298 -181Z" />
<glyph unicode="&#xa2;" glyph-name="cent" horiz-adv-x="1013" d="M480 -110V36Q378 50 297 85T168 181T120 327Q120 394 150 445T231 531T346 589T480 620V760H530V626Q561 628 591 628Q678 628 757 609T901 567V607H954V399H903Q889 420 860 451T791 513T706
564T614 585Q553 585 531 551T509 464V234Q509 151 540 113T651 75Q722 75 777 89T872 123T936 157T970 172Q976 172 984 168T993 152Q993 141 976 127T932 99T874 72Q820 51 753 39T626 27Q576 27 530 31V-110H480ZM482 69L484 79Q416 99 364 134T281 218T251
327Q251 388 281 436T364 519T485 574L483 583Q395 564 328 527T222 440T183 327Q183 265 221 214T327 127T482 69Z" />
<glyph unicode="&#xa3;" glyph-name="sterling" horiz-adv-x="1109" d="M336 -22Q311 -22 274 -21T197 -15T123 1T67 32T45 83Q45 119 77 152T171 206T324 227Q355 227 386 221Q362 249 330 277T265 335H65V385H214Q186 415 169 445T151 508Q151 549 176 578T245
625T344 653T459 667T577 671Q649 671 711 662T821 641T895 619T922 610V671H970V453H921Q851 523 794 558T687 606T591 619Q545 619 520 608T486 581T476 549Q476 524 500 499T563 445T641 385H858V335H696Q728 301 750 262T772 175Q772 149 766 128T747 89Q788
77 829 69T915 61Q950 61 972 73T1009 102T1031 138T1047 168T1063 180Q1078 180 1086 156T1094 105Q1094 78 1084 49T1046 -1T970 -22Q920 -22 855 1T718 56Q684 28 636 12T534 -11T429 -20T336 -22ZM398 30Q457 37 496 72T536 164Q536 202 516 238T465 308T399
375T332 436T281 490T261 535Q261 558 269 575T287 602L284 607Q273 603 257 593T230 565T218 523Q218 497 237 468T288 408T353 345T418 281T468 219T488 160Q488 122 472 97T434 58T396 36L398 30ZM141 89Q141 61 174 47T250 32Q291 32 332 44T401 79T429 135Q429
153 420 172Q395 178 371 181T324 185Q274 185 233 173T166 139T141 89Z" />
<glyph unicode="&#xa4;" glyph-name="currency" horiz-adv-x="790" d="M173 -29L132 0L235 149Q146 174 90 224T33 335Q33 396 86 446T234 521L132 668L173 697L288 532Q339 540 395 540Q451 540 502 532L617 697L658 668L556 521Q651 496 704 446T757 335Q757
273 701 224T555 149L658 0L617 -29L502 137Q450 128 395 128Q340 128 288 137L173 -29ZM282 172V178Q213 199 170 242T127 335Q127 385 168 428T282 492V496Q188 478 135 435T82 335Q82 298 108 266T179 209T282 172ZM395 175Q445 175 473 215T502 334Q502 412
481 452T395 492Q333 492 311 452T289 334Q289 255 317 215T395 175ZM535 185Q562 214 582 249T603 335Q603 386 582 422T530 489Q544 452 551 414T559 335Q559 295 553 257T535 185Z" />
<glyph unicode="&#xa5;" glyph-name="yen" horiz-adv-x="1309" d="M197 0V43H319Q364 43 395 67T427 151V197H87V247H427V270L372 325H87V375H321L87 607H-14V650H735V607H707Q685 607 672 594T659 561Q659 547 666 530T689 498L818 370L877 418Q913 447 931 477T949
534Q949 565 924 586T850 607H800V650H1323V607H1257L935 375H1157V325H865L818 291V247H1157V197H818V151Q818 92 850 68T927 43H1048V0H197ZM495 43H560V319L269 607H176L495 292V43Z" />
<glyph unicode="&#xa6;" glyph-name="brokenbar" horiz-adv-x="365" d="M150 387V715H215V387H150ZM150 -95V233H215V-95H150Z" />
<glyph unicode="&#xa7;" glyph-name="section" horiz-adv-x="1105" d="M605 -199Q514 -199 440 -191T298 -168T162 -132L139 -181H94V63H139Q152 33 195 -5T302 -78T444 -135T604 -158Q636 -158 668 -155T721 -144T742 -119Q742 -102 715 -88T641 -61T538 -35T419
-7T300 28T196 71T123 128T95 202Q95 258 118 294T181 352T268 383T366 397V407Q295 428 233 454T133 516T95 602Q95 661 121 698T189 757T284 787T388 799T485 801Q624 801 730 782T920 741Q923 755 927 765T935 784H980V593H936Q899 629 842 660T721 713T596
748T490 761Q447 761 417 751T386 711Q386 690 412 677T483 653T583 634T698 614T813 587T913 546T984 485T1011 398Q1011 317 944 272T761 210V200Q827 184 884 159T976 95T1011 -2Q1011 -72 961 -115T820 -179T605 -199ZM839 295Q839 297 841 297T844 300Q844
343 816 369T740 411T632 439T506 467Q444 481 385 500T278 543T202 598T172 665H165Q158 652 155 639T152 614Q152 568 201 532T350 463T604 394Q667 380 710 368T784 339T839 295ZM604 242Q636 242 668 245T721 256T742 281Q742 300 719 313T660 336T588 350T524
358T490 361Q447 361 417 351T386 311Q386 292 404 280T450 260T508 249T565 244T604 242ZM839 -105Q839 -103 841 -103T844 -100Q844 -57 816 -31T740 11T632 39T506 67Q444 81 385 100T278 143T202 198T172 265H165Q158 252 155 239T152 214Q152 168 201 132T350
63T604 -6Q667 -20 710 -32T784 -61T839 -105Z" />
<glyph unicode="&#xa8;" glyph-name="dieresis" horiz-adv-x="885" d="M669 593Q632 593 601 608T552 649T533 706Q533 738 551 764T601 805T669 821Q708 821 739 806T788 764T807 706Q807 675 789 649T739 608T669 593ZM213 593Q176 593 145 608T96 649T77 706Q77
738 95 764T145 805T213 821Q252 821 283 806T332 764T351 706Q351 675 333 649T283 608T213 593ZM183 616L186 619Q172 635 164 657T155 706Q155 733 163 755T186 793L183 796Q153 783 134 759T114 706Q114 678 133 654T183 616ZM639 616L642 619Q628 635 620
657T611 706Q611 733 619 755T642 793L639 796Q609 783 590 759T570 706Q570 678 589 654T639 616Z" />
<glyph unicode="&#xa9;" glyph-name="copyright" horiz-adv-x="775" d="M388 192Q317 192 255 212T146 269T72 354T45 457Q45 512 71 560T145 644T255 701T388 722Q459 722 521 702T630 645T703 560T730 457Q730 402 704 354T630 270T521 213T388 192ZM388 226Q451
226 507 244T605 295T671 369T695 457Q695 504 671 545T605 619T507 669T388 688Q325 688 269 670T171 619T104 546T80 457Q80 411 104 369T170 295T269 245T388 226ZM410 322Q359 322 315 336T244 382T217 462Q217 513 245 543T315 587T399 601Q429 601 456 592T507
571V591H521V495H507Q499 515 482 535T443 569T397 583Q371 583 362 567T352 525V415Q352 375 365 357T411 339Q449 339 473 351T510 376T528 388Q535 388 535 380Q535 368 504 348Q489 338 467 330T410 322Z" />
<glyph unicode="&#xaa;" glyph-name="ordfeminine" horiz-adv-x="783" d="M230 294Q165 294 125 312T68 360T50 422Q50 454 68 482T126 529T231 547Q305 547 354 546T455 545Q455 560 449 580T421 615T349 631Q305 631 264 621T192 596T142 569H112V664H143L152
632Q191 643 237 651T330 663T415 667Q541 667 601 648T662 568V402Q662 372 679 360T718 348H783V308H455V353Q407 325 347 310T230 294ZM493 334H525V559Q525 578 512 600T448 634L447 628Q477 616 485 596T493 559V334ZM240 312V317Q202 317 177 332T138 372T125
422Q125 460 154 492T241 525V530Q188 530 153 515T101 474T83 422Q83 395 101 370T154 328T240 312ZM367 367Q386 367 410 373T455 389V507Q410 510 368 510Q334 510 317 486T300 435Q300 410 316 389T367 367Z" />
<glyph unicode="&#xab;" glyph-name="guillemotleft" horiz-adv-x="678" d="M598 8L325 258V300L598 549V462L486 359L598 255V8ZM273 8L0 258V300L273 549V462L161 359L273 255V8ZM235 119V181L100 303L66 272L235 119ZM560 119V181L425 303L391 272L560 119Z" />
<glyph unicode="&#xac;" glyph-name="logicalnot" horiz-adv-x="740" d="M562 108V298H100V378H640V108H562Z" />
<glyph unicode="&#xae;" glyph-name="registered" horiz-adv-x="775" d="M388 192Q317 192 255 212T146 269T72 354T45 457Q45 512 71 560T145 644T255 701T388 722Q459 722 521 702T630 645T703 560T730 457Q730 402 704 354T630 270T521 213T388 192ZM388 226Q451
226 507 244T605 295T671 369T695 457Q695 504 671 545T605 619T507 669T388 688Q325 688 269 670T171 619T104 546T80 457Q80 411 104 369T170 295T269 245T388 226ZM168 331V348H204Q218 348 227 358T237 392V530Q237 548 228 561T204 574H168V591H490Q512 591
536 587T578 567T596 519Q596 489 578 475T534 455T482 449V445Q488 439 502 433T538 423L582 348H617V331H439L379 433Q379 433 374 441T363 450Q356 450 355 443T354 422V392Q354 368 364 358T387 348H409V331H168ZM403 471Q422 471 438 481T454 518Q454 549
436 561T405 574H369Q363 574 359 568T354 553V496Q354 486 369 479T403 471Z" />
<glyph unicode="&#xaf;" glyph-name="overscore" horiz-adv-x="505" d="M50 630V764H455V630H50ZM111 650H165V744H111V650Z" />
<glyph unicode="&#xb0;" glyph-name="degree" horiz-adv-x="447" d="M223 451Q170 451 126 477T56 547T30 644Q30 698 56 742T126 812T223 838Q277 838 321 812T391 742T417 644Q417 591 391 547T321 477T223 451ZM223 511Q260 511 290 529T339 577T357 644Q357
681 339 711T291 760T223 778Q186 778 156 760T108 712T90 644Q90 607 108 577T156 529T223 511Z" />
<glyph unicode="&#xb1;" glyph-name="plusminus" horiz-adv-x="740" d="M100 360V440H330V670H410V440H640V360H410V130H330V360H100ZM100 0V80H640V0H100Z" />
<glyph unicode="&#xb2;" glyph-name="uni00B2" horiz-adv-x="555" d="M25 362V403Q53 411 90 425T168 459T242 503T298 557T320 619Q320 658 305 675T273 697T247 701Q206 701 168 680T104 627T71 559H44V713H71V687Q99 700 152 714T284 729Q311 729 351 725T431
710T497 677T524 623Q524 593 497 566T425 513T324 467T211 428T103 397V391Q232 395 324 409T494 447V494H521V362H25ZM309 505Q309 505 322 510T354 527T386 562T400 619Q400 654 378 676T333 708L330 705Q330 705 337 696T352 667T360 619Q360 598 350 566T307
509L309 505Z" />
<glyph unicode="&#xb3;" glyph-name="uni00B3" horiz-adv-x="564" d="M264 350Q201 350 145 360T53 386V362H26V484H52Q63 455 94 431T167 392T254 378Q296 378 320 402T345 460Q345 497 321 520T256 544Q221 544 196 531T171 491H144V617H171Q171 588 192 579T242
570Q280 570 301 588T323 635Q323 662 304 681T242 701Q195 701 146 677T70 598H44V708H71V688Q111 705 154 717T264 729Q371 729 434 702T497 636Q497 608 457 587T353 556Q438 547 487 521T536 459Q536 429 499 404T401 365T264 350ZM339 572Q371 583 387 599T403
633Q403 652 387 671T339 704L336 701Q351 682 357 666T363 635Q363 605 336 575L339 572ZM360 380Q389 395 408 416T427 460Q427 482 409 503T360 539L357 536Q374 517 379 497T385 460Q385 442 380 422T357 383L360 380Z" />
<glyph unicode="&#xb4;" glyph-name="acute" horiz-adv-x="650" d="M50 624V660Q128 660 176 673T254 710T309 770H600Q600 770 594 755T573 717T528 674T452 642Q423 635 378 632T282 627T184 625T104 624H50ZM248 663Q300 666 333 680T386 712T413 742H349Q340
724 322 709T284 683T248 667V663Z" />
<glyph unicode="&#xb5;" glyph-name="uni00B5" horiz-adv-x="1294" d="M424 -199Q358 -199 304 -187T218 -141T186 -41V426Q186 476 160 495T96 515H30V559H523V225Q523 201 529 173T555 124T616 103Q663 103 704 130T771 192V426Q771 476 745 495T681 515H615V559H1108V132Q1108
96 1134 70T1198 43H1264V0H771V129Q729 80 685 54T590 27Q571 27 548 33T510 53V-44Q510 -94 539 -124T639 -155H720V-199H424ZM352 -153L353 -145Q329 -133 315 -106T300 -30V426Q300 470 267 494T181 528L179 521Q211 510 230 487T249 426V-30Q249 -90 277 -117T352
-153ZM834 43H885V426Q885 470 852 494T766 528L764 521Q796 510 815 487T834 426V43Z" />
<glyph unicode="&#xb6;" glyph-name="paragraph" horiz-adv-x="1117" d="M305 106Q237 106 184 129T95 191T41 279T22 379Q22 430 41 478T99 565T197 627T338 650H540Q555 698 601 731T736 783T963 801Q990 801 1016 800T1067 796L1062 756Q1056 757 1047 757T1029
758Q985 758 953 734T920 650V19Q920 -32 900 -72T831 -141T698 -184T487 -199Q460 -199 434 -198T383 -194L388 -154Q394 -155 403 -155T421 -156Q465 -156 497 -132T530 -48V194Q479 151 421 129T305 106ZM597 -113Q611 -107 625 -93T650 -48T661 31V715Q648
710 633 695T608 651T597 571V-113ZM269 152L272 162Q230 190 205 227T167 304T155 379Q155 414 167 453T204 531T272 597L269 606Q184 572 136 510T88 379Q88 311 136 249T269 152ZM463 261Q494 261 530 271V580H464Q417 580 389 555T350 491T338 411Q338 374
351 340T391 283T463 261Z" />
<glyph unicode="&#xb7;" glyph-name="middot" horiz-adv-x="594" d="M501 306Q501 272 474 244T400 198T296 181Q239 181 193 198T119 243T91 306Q91 341 118 369T192 415T296 432Q353 432 399 415T473 370T501 306ZM180 306Q180 331 190 352T217 390L214 394Q177
381 154 357T131 306Q131 279 154 256T214 218L217 222Q201 238 191 259T180 306Z" />
<glyph unicode="&#xb8;" glyph-name="cedilla" horiz-adv-x="566" d="M283 -223Q212 -223 150 -213T50 -188V-79H89Q100 -105 122 -127T173 -162T228 -175Q260 -175 283 -159T306 -105Q306 -19 175 0V16Q239 16 299 7T409 -22T487 -68T516 -133Q516 -163 495 -180T440
-207T365 -220T283 -223ZM324 -188Q344 -183 365 -172T401 -143T416 -107Q416 -75 390 -56T324 -24L320 -30Q366 -58 366 -107Q366 -129 354 -150T321 -182L324 -188Z" />
<glyph unicode="&#xb9;" glyph-name="uni00B9" horiz-adv-x="509" d="M80 362V392H126Q149 392 164 404T180 448V600Q180 626 184 648T188 671L54 578L27 611L204 722H477V691H432Q409 691 393 675T376 635V448Q376 417 392 405T432 392H477V362H80ZM220 392H260V691H220V392Z"
/>
<glyph unicode="&#xba;" glyph-name="ordmasculine" horiz-adv-x="718" d="M359 295Q291 295 232 309T127 350T56 410T30 483Q30 534 70 576T185 644T359 670Q460 670 533 645T647 577T688 483Q688 444 663 410T592 350T487 310T359 295ZM256 335V340Q194 360
155 398T115 483Q115 529 152 568T256 626V630Q171 614 123 574T75 483Q75 433 126 393T256 335ZM359 338Q405 338 430 374T456 482Q456 553 437 589T359 626Q303 626 283 590T263 482Q263 410 288 374T359 338ZM486 347Q511 373 529 405T548 483Q548 530 529 562T482
623Q508 554 508 483Q508 447 502 413T486 347Z" />
<glyph unicode="&#xbb;" glyph-name="guillemotright" horiz-adv-x="678" d="M405 8V95L517 198L405 302V549L678 299V257L405 8ZM80 8V95L192 198L80 302V549L353 299V257L80 8ZM222 225L256 256L118 383V321L222 225ZM547 225L581 256L443 383V321L547 225Z" />
<glyph unicode="&#xbc;" glyph-name="onequarter" horiz-adv-x="1165" d="M361 -22L755 670H807L413 -22H361ZM71 317V347H117Q140 347 155 359T171 403V555Q171 581 175 603T179 626L45 533L18 566L195 677H468V646H423Q400 646 384 630T367 590V403Q367 372
383 360T423 347H468V317H71ZM211 347H251V646H211V347ZM716 0V29H762Q785 29 801 41T817 85V97H617V124L841 360H1114V329H1067Q1045 329 1029 313T1013 273V126H1115V97H1013V85Q1013 54 1029 42T1067 29H1114V0H716ZM857 29H897V329H857V29ZM676 126H817V234Q817
256 820 275T823 295Q786 251 750 211T676 126Z" />
<glyph unicode="&#xbd;" glyph-name="onehalf" horiz-adv-x="1165" d="M323 -22L717 670H769L375 -22H323ZM71 317V347H117Q140 347 155 359T171 403V555Q171 581 175 603T179 626L45 533L18 566L195 677H468V646H423Q400 646 384 630T367 590V403Q367 372 383
360T423 347H468V317H71ZM211 347H251V646H211V347ZM614 0V41Q642 49 679 63T757 97T831 141T887 195T909 257Q909 296 894 313T862 335T836 339Q795 339 757 318T693 265T660 197H633V351H660V325Q688 338 741 352T873 367Q900 367 940 363T1020 348T1086 315T1113
261Q1113 231 1086 204T1014 151T913 105T800 66T692 35V29Q821 33 913 47T1083 85V132H1110V0H614ZM898 143Q898 143 911 148T943 165T975 200T989 257Q989 292 967 314T922 346L919 343Q919 343 926 334T941 305T949 257Q949 236 939 204T896 147L898 143Z" />
<glyph unicode="&#xbe;" glyph-name="threequarters" horiz-adv-x="1165" d="M391 -22L785 670H837L443 -22H391ZM285 305Q222 305 166 315T74 341V317H47V439H73Q84 410 115 386T188 347T275 333Q317 333 341 357T366 415Q366 452 342 475T277 499Q242 499 217
486T192 446H165V572H192Q192 543 213 534T263 525Q301 525 322 543T344 590Q344 617 325 636T263 656Q216 656 167 632T91 553H65V663H92V643Q132 660 175 672T285 684Q392 684 455 657T518 591Q518 563 478 542T374 511Q459 502 508 476T557 414Q557 384 520
359T422 320T285 305ZM360 527Q392 538 408 554T424 588Q424 607 408 626T360 659L357 656Q372 637 378 621T384 590Q384 560 357 530L360 527ZM381 335Q410 350 429 371T448 415Q448 437 430 458T381 494L378 491Q395 472 400 452T406 415Q406 397 401 377T378
338L381 335ZM716 0V29H762Q785 29 801 41T817 85V97H617V124L841 360H1114V329H1067Q1045 329 1029 313T1013 273V126H1115V97H1013V85Q1013 54 1029 42T1067 29H1114V0H716ZM857 29H897V329H857V29ZM676 126H817V234Q817 256 820 275T823 295Q786 251 750 211T676
126Z" />
<glyph unicode="&#xbf;" glyph-name="questiondown" horiz-adv-x="1092" d="M583 505Q520 505 468 523T384 574T353 644Q353 683 384 714T467 764T583 783Q646 783 698 765T780 715T811 644Q811 606 781 574T698 524T583 505ZM510 547L513 552Q497 569 487 592T476
644Q476 672 486 695T513 736L510 741Q473 727 450 701T427 644Q427 614 450 588T510 547ZM938 -43V22Q894 10 843 -1T727 -19T575 -26Q485 -26 399 -19T245 8T136 61T95 148Q95 208 141 260T266 353T447 417T660 440Q679 440 696 440T739 438V393Q716 394 688
394T641 395Q598 395 563 380T508 323T487 204Q487 137 494 98T514 41T542 17T571 12Q611 12 657 24T750 59T835 108T902 164T938 221H980V-43H938ZM334 17L336 26Q284 43 252 72T220 148Q220 196 248 239T326 318T440 377L436 385Q355 363 292 327T192 245T155
148Q155 94 205 63T334 17Z" />
<glyph unicode="&#xc0;" glyph-name="Agrave" horiz-adv-x="1397" d="M-14 0V43Q19 43 51 58T110 96T159 141T192 179T204 195L461 522L436 553Q414 580 388 593T313 607H234V650H806L1296 43H1410V0H659V43H733Q758 43 775 54T792 86Q792 112 763 148L726 194H283Q268
171 261 150T254 112Q254 79 275 61T329 43H422V0H-14ZM928 43H1005L550 607H473L928 43ZM321 242H688L500 474L321 242ZM802 716Q769 716 722 716T625 718T529 723T454 734Q408 745 379 766T334 809T312 846T306 862H597Q622 827 652 803T730 765T856 752V716H802ZM544
755V759Q529 764 509 774T470 800T443 834H379Q388 822 406 804T458 772T544 755Z" />
<glyph unicode="&#xc1;" glyph-name="Aacute" horiz-adv-x="1397" d="M-14 0V43Q19 43 51 58T110 96T159 141T192 179T204 195L461 522L436 553Q414 580 388 593T313 607H234V650H806L1296 43H1410V0H659V43H733Q758 43 775 54T792 86Q792 112 763 148L726 194H283Q268
171 261 150T254 112Q254 79 275 61T329 43H422V0H-14ZM928 43H1005L550 607H473L928 43ZM321 242H688L500 474L321 242ZM306 716V752Q384 752 432 765T510 802T565 862H856Q856 862 850 847T829 809T784 766T708 734Q679 727 634 724T538 719T440 717T360 716H306ZM504
755Q556 758 589 772T642 804T669 834H605Q596 816 578 801T540 775T504 759V755Z" />
<glyph unicode="&#xc2;" glyph-name="Acircumflex" horiz-adv-x="1397" d="M-14 0V43Q19 43 51 58T110 96T159 141T192 179T204 195L461 522L436 553Q414 580 388 593T313 607H234V650H806L1296 43H1410V0H659V43H733Q758 43 775 54T792 86Q792 112 763 148L726
194H283Q268 171 261 150T254 112Q254 79 275 61T329 43H422V0H-14ZM928 43H1005L550 607H473L928 43ZM321 242H688L500 474L321 242ZM285 716L419 862H743L876 716H789L686 828L582 716H285ZM396 754H458L533 837H471L396 754Z" />
<glyph unicode="&#xc3;" glyph-name="Atilde" horiz-adv-x="1397" d="M-14 0V43Q19 43 51 58T110 96T159 141T192 179T204 195L461 522L436 553Q414 580 388 593T313 607H234V650H806L1296 43H1410V0H659V43H733Q758 43 775 54T792 86Q792 112 763 148L726 194H283Q268
171 261 150T254 112Q254 79 275 61T329 43H422V0H-14ZM928 43H1005L550 607H473L928 43ZM321 242H688L500 474L321 242ZM689 705Q630 705 588 712T511 729T438 746T352 754Q330 754 314 744T290 717H262Q264 736 278 763T321 816T391 861T488 879Q544 879 583
874T655 861T718 849T789 843Q822 843 839 852T867 878H900Q898 858 885 829T845 772T780 724T689 705ZM696 739Q731 739 767 751T829 785L827 789Q806 782 776 778T724 774Q666 774 625 780T552 796T487 811T414 818Q386 818 367 809T334 788L337 784Q348 786
358 787T379 789Q421 789 467 777T570 752T696 739Z" />
<glyph unicode="&#xc4;" glyph-name="Adieresis" horiz-adv-x="1397" d="M-14 0V43Q19 43 51 58T110 96T159 141T192 179T204 195L461 522L436 553Q414 580 388 593T313 607H234V650H806L1296 43H1410V0H659V43H733Q758 43 775 54T792 86Q792 112 763 148L726
194H283Q268 171 261 150T254 112Q254 79 275 61T329 43H422V0H-14ZM928 43H1005L550 607H473L928 43ZM321 242H688L500 474L321 242ZM808 685Q771 685 740 700T691 741T672 798Q672 830 690 856T740 897T808 913Q847 913 878 898T927 856T946 798Q946 767 928
741T878 700T808 685ZM352 685Q315 685 284 700T235 741T216 798Q216 830 234 856T284 897T352 913Q391 913 422 898T471 856T490 798Q490 767 472 741T422 700T352 685ZM322 708L325 711Q311 727 303 749T294 798Q294 825 302 847T325 885L322 888Q292 875 273
851T253 798Q253 770 272 746T322 708ZM778 708L781 711Q767 727 759 749T750 798Q750 825 758 847T781 885L778 888Q748 875 729 851T709 798Q709 770 728 746T778 708Z" />
<glyph unicode="&#xc5;" glyph-name="Aring" horiz-adv-x="1397" d="M-14 0V43Q19 43 51 58T110 96T159 141T192 179T204 195L461 522L436 553Q414 580 388 593T313 607H234V650H806L1296 43H1410V0H659V43H733Q758 43 775 54T792 86Q792 112 763 148L726 194H283Q268
171 261 150T254 112Q254 79 275 61T329 43H422V0H-14ZM928 43H1005L550 607H473L928 43ZM321 242H688L500 474L321 242ZM580 668Q537 668 502 685T445 732T423 798Q423 834 444 864T501 912T580 930Q624 930 660 912T717 864T739 798Q739 762 718 733T660 686T580
668ZM580 699Q600 699 614 728T628 798Q628 839 614 868T580 897Q561 897 547 868T532 798Q532 757 546 728T580 699ZM523 705L526 708Q512 725 504 748T495 798Q495 852 526 888L523 891Q493 878 474 853T455 798Q455 770 474 745T523 705Z" />
<glyph unicode="&#xc6;" glyph-name="AE" horiz-adv-x="1833" d="M-14 0V43Q19 43 51 58T110 96T159 141T192 179T204 195L461 522L436 553Q414 580 388 593T313 607H234V650H1753V420H1724Q1692 464 1634 506T1489 577T1277 605Q1225 605 1195 578T1164 508V474Q1164
454 1170 430T1194 389T1252 372Q1285 372 1322 382T1394 409T1456 449T1495 499H1532V194H1495Q1479 232 1438 258T1346 298T1252 312Q1218 312 1199 299T1172 265T1164 223V187Q1164 143 1169 111T1192 61T1250 43H1275Q1329 43 1388 46T1508 66T1623 116T1724
212H1753V0H546V43H666Q712 43 743 67T775 151V312H375L283 194Q266 172 260 151T254 112Q254 79 275 61T329 43H422V0H-14ZM666 607H605L422 372H775V507Q775 551 751 579T666 607ZM842 43H908V607H842V43Z" />
<glyph unicode="&#xc7;" glyph-name="Ccedilla" horiz-adv-x="1097" d="M666 -22Q537 -22 421 -2T215 60T74 168T22 328Q22 404 58 461T155 558T295 624T460 662T630 674Q731 674 822 651T989 600V650H1037V411H989Q970 448 933 486T847 557T741 610T625 630Q567
630 534 611T488 560T474 485V211Q474 111 517 66T669 20Q764 20 832 38T946 81T1019 124T1060 143Q1067 143 1075 139T1084 123Q1084 108 1057 88T980 42Q930 17 855 -2T666 -22ZM356 59L357 64Q302 88 256 124T181 209T152 320Q152 389 180 442T255 535T357 600L356
605Q276 583 214 540T116 441T81 320Q81 261 116 210T213 119T356 59ZM548 -223Q477 -223 415 -213T315 -188V-79H354Q365 -105 387 -127T438 -162T493 -175Q525 -175 548 -159T571 -105Q571 -19 440 0V16Q504 16 564 7T674 -22T752 -68T781 -133Q781 -163 760
-180T705 -207T630 -220T548 -223ZM589 -188Q609 -183 630 -172T666 -143T681 -107Q681 -75 655 -56T589 -24L585 -30Q631 -58 631 -107Q631 -129 619 -150T586 -182L589 -188Z" />
<glyph unicode="&#xc8;" glyph-name="Egrave" horiz-adv-x="1360" d="M73 0V43H193Q239 43 270 67T302 151V497Q302 527 288 552T249 592T193 607H73V650H1280V420H1251Q1219 464 1161 506T1016 577T804 605Q752 605 722 578T691 508V474Q691 454 696 430T721
389T779 372Q812 372 849 382T921 409T983 449T1022 499H1059V194H1022Q1006 232 965 258T873 298T779 312Q745 312 726 299T699 265T691 223V187Q691 143 696 111T719 61T777 43H802Q856 43 915 46T1035 66T1150 116T1251 212H1280V0H73ZM369 43H435V607H369V43ZM1001
716Q968 716 921 716T824 718T728 723T653 734Q607 745 578 766T533 809T511 846T505 862H796Q821 827 851 803T929 765T1055 752V716H1001ZM743 755V759Q728 764 708 774T669 800T642 834H578Q587 822 605 804T657 772T743 755Z" />
<glyph unicode="&#xc9;" glyph-name="Eacute" horiz-adv-x="1360" d="M73 0V43H193Q239 43 270 67T302 151V497Q302 527 288 552T249 592T193 607H73V650H1280V420H1251Q1219 464 1161 506T1016 577T804 605Q752 605 722 578T691 508V474Q691 454 696 430T721
389T779 372Q812 372 849 382T921 409T983 449T1022 499H1059V194H1022Q1006 232 965 258T873 298T779 312Q745 312 726 299T699 265T691 223V187Q691 143 696 111T719 61T777 43H802Q856 43 915 46T1035 66T1150 116T1251 212H1280V0H73ZM369 43H435V607H369V43ZM505
716V752Q583 752 631 765T709 802T764 862H1055Q1055 862 1049 847T1028 809T983 766T907 734Q878 727 833 724T737 719T639 717T559 716H505ZM703 755Q755 758 788 772T841 804T868 834H804Q795 816 777 801T739 775T703 759V755Z" />
<glyph unicode="&#xca;" glyph-name="Ecircumflex" horiz-adv-x="1360" d="M73 0V43H193Q239 43 270 67T302 151V497Q302 527 288 552T249 592T193 607H73V650H1280V420H1251Q1219 464 1161 506T1016 577T804 605Q752 605 722 578T691 508V474Q691 454 696 430T721
389T779 372Q812 372 849 382T921 409T983 449T1022 499H1059V194H1022Q1006 232 965 258T873 298T779 312Q745 312 726 299T699 265T691 223V187Q691 143 696 111T719 61T777 43H802Q856 43 915 46T1035 66T1150 116T1251 212H1280V0H73ZM369 43H435V607H369V43ZM484
716L618 862H942L1075 716H988L885 828L781 716H484ZM595 754H657L732 837H670L595 754Z" />
<glyph unicode="&#xcb;" glyph-name="Edieresis" horiz-adv-x="1360" d="M73 0V43H193Q239 43 270 67T302 151V497Q302 527 288 552T249 592T193 607H73V650H1280V420H1251Q1219 464 1161 506T1016 577T804 605Q752 605 722 578T691 508V474Q691 454 696 430T721
389T779 372Q812 372 849 382T921 409T983 449T1022 499H1059V194H1022Q1006 232 965 258T873 298T779 312Q745 312 726 299T699 265T691 223V187Q691 143 696 111T719 61T777 43H802Q856 43 915 46T1035 66T1150 116T1251 212H1280V0H73ZM369 43H435V607H369V43ZM1007
685Q970 685 939 700T890 741T871 798Q871 830 889 856T939 897T1007 913Q1046 913 1077 898T1126 856T1145 798Q1145 767 1127 741T1077 700T1007 685ZM551 685Q514 685 483 700T434 741T415 798Q415 830 433 856T483 897T551 913Q590 913 621 898T670 856T689
798Q689 767 671 741T621 700T551 685ZM521 708L524 711Q510 727 502 749T493 798Q493 825 501 847T524 885L521 888Q491 875 472 851T452 798Q452 770 471 746T521 708ZM977 708L980 711Q966 727 958 749T949 798Q949 825 957 847T980 885L977 888Q947 875 928
851T908 798Q908 770 927 746T977 708Z" />
<glyph unicode="&#xcc;" glyph-name="Igrave" horiz-adv-x="1003" d="M73 0V43H195Q240 43 272 67T304 151V497Q304 527 290 552T250 592T195 607H73V650H924V607H803Q773 607 749 592T709 552T694 497V151Q694 91 726 67T803 43H924V0H73ZM371 43H436V607H371V43ZM723
716Q690 716 643 716T546 718T450 723T375 734Q329 745 300 766T255 809T233 846T227 862H518Q543 827 573 803T651 765T777 752V716H723ZM465 755V759Q450 764 430 774T391 800T364 834H300Q309 822 327 804T379 772T465 755Z" />
<glyph unicode="&#xcd;" glyph-name="Iacute" horiz-adv-x="1003" d="M73 0V43H195Q240 43 272 67T304 151V497Q304 527 290 552T250 592T195 607H73V650H924V607H803Q773 607 749 592T709 552T694 497V151Q694 91 726 67T803 43H924V0H73ZM371 43H436V607H371V43ZM227
716V752Q305 752 353 765T431 802T486 862H777Q777 862 771 847T750 809T705 766T629 734Q600 727 555 724T459 719T361 717T281 716H227ZM425 755Q477 758 510 772T563 804T590 834H526Q517 816 499 801T461 775T425 759V755Z" />
<glyph unicode="&#xce;" glyph-name="Icircumflex" horiz-adv-x="1003" d="M73 0V43H195Q240 43 272 67T304 151V497Q304 527 290 552T250 592T195 607H73V650H924V607H803Q773 607 749 592T709 552T694 497V151Q694 91 726 67T803 43H924V0H73ZM371 43H436V607H371V43ZM206
716L340 862H664L797 716H710L607 828L503 716H206ZM317 754H379L454 837H392L317 754Z" />
<glyph unicode="&#xcf;" glyph-name="Idieresis" horiz-adv-x="1003" d="M73 0V43H195Q240 43 272 67T304 151V497Q304 527 290 552T250 592T195 607H73V650H924V607H803Q773 607 749 592T709 552T694 497V151Q694 91 726 67T803 43H924V0H73ZM371 43H436V607H371V43ZM729
685Q692 685 661 700T612 741T593 798Q593 830 611 856T661 897T729 913Q768 913 799 898T848 856T867 798Q867 767 849 741T799 700T729 685ZM273 685Q236 685 205 700T156 741T137 798Q137 830 155 856T205 897T273 913Q312 913 343 898T392 856T411 798Q411
767 393 741T343 700T273 685ZM243 708L246 711Q232 727 224 749T215 798Q215 825 223 847T246 885L243 888Q213 875 194 851T174 798Q174 770 193 746T243 708ZM699 708L702 711Q688 727 680 749T671 798Q671 825 679 847T702 885L699 888Q669 875 650 851T630
798Q630 770 649 746T699 708Z" />
<glyph unicode="&#xd0;" glyph-name="Eth" horiz-adv-x="1469" d="M70 0V43H190Q235 43 267 67T299 152V285H148V365H299V498Q299 528 285 552T245 592T190 607H70V650H833Q925 650 1014 640T1181 607T1318 547T1412 458T1446 337Q1446 267 1421 215T1352 126T1255
64T1143 25T1028 6T925 0H70ZM366 43H431V607H366V43ZM772 43H863Q910 43 942 67T993 131T1021 221T1030 324Q1030 404 1010 468T942 569T807 606Q752 606 720 580T688 508V365H876V285H688V145Q688 100 707 72T772 43ZM1034 50Q1110 93 1155 158T1200 324Q1200
425 1155 490T1034 598L1032 595Q1074 538 1096 470T1119 324Q1119 248 1097 179T1032 53L1034 50Z" />
<glyph unicode="&#xd1;" glyph-name="Ntilde" horiz-adv-x="1544" d="M1211 -42L515 379Q514 380 499 386T465 393Q446 393 431 379T415 323V277Q415 212 445 168T522 96T625 56T730 43V0H35V43Q85 43 140 55T242 95T320 167T350 277V382Q350 433 323 474T248
545T143 591T23 607V650H772L1120 431Q1120 431 1132 424T1160 407T1192 390T1214 383Q1220 383 1228 388T1237 410Q1237 475 1216 514T1160 573T1086 600T1009 607V650H1529V607Q1492 607 1452 600T1378 573T1323 514T1301 410V-42H1211ZM1211 35V107L383 607H356V552L1211
35ZM890 705Q831 705 789 712T712 729T639 746T553 754Q531 754 515 744T491 717H463Q465 736 479 763T522 816T592 861T689 879Q745 879 784 874T856 861T919 849T990 843Q1023 843 1040 852T1068 878H1101Q1099 858 1086 829T1046 772T981 724T890 705ZM897 739Q932
739 968 751T1030 785L1028 789Q1007 782 977 778T925 774Q867 774 826 780T753 796T688 811T615 818Q587 818 568 809T535 788L538 784Q549 786 559 787T580 789Q622 789 668 777T771 752T897 739Z" />
<glyph unicode="&#xd2;" glyph-name="Ograve" horiz-adv-x="1345" d="M672 -22Q537 -22 420 5T213 79T73 190T22 325Q22 397 67 459T198 569T403 643T672 670Q821 670 941 644T1146 570T1276 460T1322 325Q1322 253 1272 190T1132 80T925 5T672 -22ZM672 19Q770
19 824 96T879 324Q879 424 862 492T799 594T672 629Q591 629 546 595T483 492T465 324Q465 173 520 96T672 19ZM384 40L385 44Q315 72 262 115T179 211T149 325Q149 385 179 439T263 536T389 607L388 611Q295 584 225 541T115 442T76 325Q76 264 114 210T222 112T384
40ZM909 47Q965 99 1000 172T1035 325Q1035 405 1000 478T909 603L903 601Q929 538 944 467T960 325Q960 255 945 184T903 49L909 47ZM894 716Q861 716 814 716T717 718T621 723T546 734Q500 745 471 766T426 809T404 846T398 862H689Q714 827 744 803T822 765T948
752V716H894ZM636 755V759Q621 764 601 774T562 800T535 834H471Q480 822 498 804T550 772T636 755Z" />
<glyph unicode="&#xd3;" glyph-name="Oacute" horiz-adv-x="1345" d="M672 -22Q537 -22 420 5T213 79T73 190T22 325Q22 397 67 459T198 569T403 643T672 670Q821 670 941 644T1146 570T1276 460T1322 325Q1322 253 1272 190T1132 80T925 5T672 -22ZM672 19Q770
19 824 96T879 324Q879 424 862 492T799 594T672 629Q591 629 546 595T483 492T465 324Q465 173 520 96T672 19ZM384 40L385 44Q315 72 262 115T179 211T149 325Q149 385 179 439T263 536T389 607L388 611Q295 584 225 541T115 442T76 325Q76 264 114 210T222 112T384
40ZM909 47Q965 99 1000 172T1035 325Q1035 405 1000 478T909 603L903 601Q929 538 944 467T960 325Q960 255 945 184T903 49L909 47ZM398 716V752Q476 752 524 765T602 802T657 862H948Q948 862 942 847T921 809T876 766T800 734Q771 727 726 724T630 719T532
717T452 716H398ZM596 755Q648 758 681 772T734 804T761 834H697Q688 816 670 801T632 775T596 759V755Z" />
<glyph unicode="&#xd4;" glyph-name="Ocircumflex" horiz-adv-x="1345" d="M672 -22Q537 -22 420 5T213 79T73 190T22 325Q22 397 67 459T198 569T403 643T672 670Q821 670 941 644T1146 570T1276 460T1322 325Q1322 253 1272 190T1132 80T925 5T672 -22ZM672
19Q770 19 824 96T879 324Q879 424 862 492T799 594T672 629Q591 629 546 595T483 492T465 324Q465 173 520 96T672 19ZM384 40L385 44Q315 72 262 115T179 211T149 325Q149 385 179 439T263 536T389 607L388 611Q295 584 225 541T115 442T76 325Q76 264 114 210T222
112T384 40ZM909 47Q965 99 1000 172T1035 325Q1035 405 1000 478T909 603L903 601Q929 538 944 467T960 325Q960 255 945 184T903 49L909 47ZM377 716L511 862H835L968 716H881L778 828L674 716H377ZM488 754H550L625 837H563L488 754Z" />
<glyph unicode="&#xd5;" glyph-name="Otilde" horiz-adv-x="1345" d="M672 -22Q537 -22 420 5T213 79T73 190T22 325Q22 397 67 459T198 569T403 643T672 670Q821 670 941 644T1146 570T1276 460T1322 325Q1322 253 1272 190T1132 80T925 5T672 -22ZM672 19Q770
19 824 96T879 324Q879 424 862 492T799 594T672 629Q591 629 546 595T483 492T465 324Q465 173 520 96T672 19ZM384 40L385 44Q315 72 262 115T179 211T149 325Q149 385 179 439T263 536T389 607L388 611Q295 584 225 541T115 442T76 325Q76 264 114 210T222 112T384
40ZM909 47Q965 99 1000 172T1035 325Q1035 405 1000 478T909 603L903 601Q929 538 944 467T960 325Q960 255 945 184T903 49L909 47ZM781 705Q722 705 680 712T603 729T530 746T444 754Q422 754 406 744T382 717H354Q356 736 370 763T413 816T483 861T580 879Q636
879 675 874T747 861T810 849T881 843Q914 843 931 852T959 878H992Q990 858 977 829T937 772T872 724T781 705ZM788 739Q823 739 859 751T921 785L919 789Q898 782 868 778T816 774Q758 774 717 780T644 796T579 811T506 818Q478 818 459 809T426 788L429 784Q440
786 450 787T471 789Q513 789 559 777T662 752T788 739Z" />
<glyph unicode="&#xd6;" glyph-name="Odieresis" horiz-adv-x="1345" d="M672 -22Q537 -22 420 5T213 79T73 190T22 325Q22 397 67 459T198 569T403 643T672 670Q821 670 941 644T1146 570T1276 460T1322 325Q1322 253 1272 190T1132 80T925 5T672 -22ZM672 19Q770
19 824 96T879 324Q879 424 862 492T799 594T672 629Q591 629 546 595T483 492T465 324Q465 173 520 96T672 19ZM384 40L385 44Q315 72 262 115T179 211T149 325Q149 385 179 439T263 536T389 607L388 611Q295 584 225 541T115 442T76 325Q76 264 114 210T222 112T384
40ZM909 47Q965 99 1000 172T1035 325Q1035 405 1000 478T909 603L903 601Q929 538 944 467T960 325Q960 255 945 184T903 49L909 47ZM900 685Q863 685 832 700T783 741T764 798Q764 830 782 856T832 897T900 913Q939 913 970 898T1019 856T1038 798Q1038 767 1020
741T970 700T900 685ZM444 685Q407 685 376 700T327 741T308 798Q308 830 326 856T376 897T444 913Q483 913 514 898T563 856T582 798Q582 767 564 741T514 700T444 685ZM414 708L417 711Q403 727 395 749T386 798Q386 825 394 847T417 885L414 888Q384 875 365
851T345 798Q345 770 364 746T414 708ZM870 708L873 711Q859 727 851 749T842 798Q842 825 850 847T873 885L870 888Q840 875 821 851T801 798Q801 770 820 746T870 708Z" />
<glyph unicode="&#xd7;" glyph-name="multiply" horiz-adv-x="740" d="M552 101L370 283L188 101L133 156L315 338L133 520L188 575L370 393L552 575L607 520L425 338L607 156L552 101Z" />
<glyph unicode="&#xd8;" glyph-name="Oslash" horiz-adv-x="1345" d="M449 -89L488 -8Q387 8 302 39T154 115T57 212T22 325Q22 397 67 459T198 569T403 643T672 670Q741 670 806 664L843 741H895L856 658Q1001 638 1105 590T1266 474T1322 325Q1322 253 1272
190T1132 80T925 5T672 -22Q603 -22 536 -14L501 -89H449ZM465 324Q465 241 482 181T530 82L779 607Q737 629 672 629Q591 629 546 595T483 492T465 324ZM384 40L385 44Q315 72 262 115T179 211T149 325Q149 385 179 439T263 536T389 607L388 611Q295 584 225 541T115
442T76 325Q76 264 114 210T222 112T384 40ZM909 47Q965 99 1000 172T1035 325Q1035 405 1000 478T909 603L903 601Q929 538 944 467T960 325Q960 255 945 184T903 49L909 47ZM672 19Q770 19 824 96T879 324Q879 413 866 476T817 577L567 49Q611 19 672 19Z" />
<glyph unicode="&#xd9;" glyph-name="Ugrave" horiz-adv-x="1217" d="M652 -22Q522 -22 437 -10T302 24T226 72T194 125T186 177V499Q186 559 155 583T78 607H40V650H701V607H685Q640 607 609 583T577 499V167Q577 97 603 64T692 31Q772 31 822 42T899 74T936
119T947 174V411Q947 476 927 515T875 574T812 600T757 607V650H1212V607Q1175 607 1140 601T1075 574T1029 515T1012 411V220Q1012 183 1008 148T986 82T930 28T824 -9T652 -22ZM319 88V607H254Q254 607 254 578T254 503T254 403T254 298T254 210Q254 164 263
139T285 103T307 90T319 88ZM881 716Q848 716 801 716T704 718T608 723T533 734Q487 745 458 766T413 809T391 846T385 862H676Q701 827 731 803T809 765T935 752V716H881ZM623 755V759Q608 764 588 774T549 800T522 834H458Q467 822 485 804T537 772T623 755Z"
/>
<glyph unicode="&#xda;" glyph-name="Uacute" horiz-adv-x="1217" d="M652 -22Q522 -22 437 -10T302 24T226 72T194 125T186 177V499Q186 559 155 583T78 607H40V650H701V607H685Q640 607 609 583T577 499V167Q577 97 603 64T692 31Q772 31 822 42T899 74T936
119T947 174V411Q947 476 927 515T875 574T812 600T757 607V650H1212V607Q1175 607 1140 601T1075 574T1029 515T1012 411V220Q1012 183 1008 148T986 82T930 28T824 -9T652 -22ZM319 88V607H254Q254 607 254 578T254 503T254 403T254 298T254 210Q254 164 263
139T285 103T307 90T319 88ZM385 716V752Q463 752 511 765T589 802T644 862H935Q935 862 929 847T908 809T863 766T787 734Q758 727 713 724T617 719T519 717T439 716H385ZM583 755Q635 758 668 772T721 804T748 834H684Q675 816 657 801T619 775T583 759V755Z"
/>
<glyph unicode="&#xdb;" glyph-name="Ucircumflex" horiz-adv-x="1217" d="M652 -22Q522 -22 437 -10T302 24T226 72T194 125T186 177V499Q186 559 155 583T78 607H40V650H701V607H685Q640 607 609 583T577 499V167Q577 97 603 64T692 31Q772 31 822 42T899 74T936
119T947 174V411Q947 476 927 515T875 574T812 600T757 607V650H1212V607Q1175 607 1140 601T1075 574T1029 515T1012 411V220Q1012 183 1008 148T986 82T930 28T824 -9T652 -22ZM319 88V607H254Q254 607 254 578T254 503T254 403T254 298T254 210Q254 164 263
139T285 103T307 90T319 88ZM364 716L498 862H822L955 716H868L765 828L661 716H364ZM475 754H537L612 837H550L475 754Z" />
<glyph unicode="&#xdc;" glyph-name="Udieresis" horiz-adv-x="1217" d="M652 -22Q522 -22 437 -10T302 24T226 72T194 125T186 177V499Q186 559 155 583T78 607H40V650H701V607H685Q640 607 609 583T577 499V167Q577 97 603 64T692 31Q772 31 822 42T899 74T936
119T947 174V411Q947 476 927 515T875 574T812 600T757 607V650H1212V607Q1175 607 1140 601T1075 574T1029 515T1012 411V220Q1012 183 1008 148T986 82T930 28T824 -9T652 -22ZM319 88V607H254Q254 607 254 578T254 503T254 403T254 298T254 210Q254 164 263
139T285 103T307 90T319 88ZM887 685Q850 685 819 700T770 741T751 798Q751 830 769 856T819 897T887 913Q926 913 957 898T1006 856T1025 798Q1025 767 1007 741T957 700T887 685ZM431 685Q394 685 363 700T314 741T295 798Q295 830 313 856T363 897T431 913Q470
913 501 898T550 856T569 798Q569 767 551 741T501 700T431 685ZM401 708L404 711Q390 727 382 749T373 798Q373 825 381 847T404 885L401 888Q371 875 352 851T332 798Q332 770 351 746T401 708ZM857 708L860 711Q846 727 838 749T829 798Q829 825 837 847T860
885L857 888Q827 875 808 851T788 798Q788 770 807 746T857 708Z" />
<glyph unicode="&#xdd;" glyph-name="Yacute" horiz-adv-x="1309" d="M197 0V43H319Q364 43 395 67T427 151V270L87 607H-14V650H735V607H707Q685 607 672 594T659 561Q659 547 666 530T689 498L818 370L877 418Q913 447 931 477T949 534Q949 565 924 586T850
607H800V650H1323V607H1257L818 291V151Q818 92 850 68T927 43H1048V0H197ZM495 43H560V306L255 607H176L495 292V43ZM380 716V752Q458 752 506 765T584 802T639 862H930Q930 862 924 847T903 809T858 766T782 734Q753 727 708 724T612 719T514 717T434 716H380ZM578
755Q630 758 663 772T716 804T743 834H679Q670 816 652 801T614 775T578 759V755Z" />
<glyph unicode="&#xde;" glyph-name="Thorn" horiz-adv-x="1447" d="M73 0V43H195Q240 43 272 67T304 151V497Q304 527 290 552T250 592T195 607H73V650H924V607H693V577Q693 540 706 525T748 509H1081Q1125 509 1173 506T1268 492T1351 461T1411 408T1433 327Q1433
259 1392 218T1281 160T1121 142H748Q720 142 707 127T693 74V43H924V0H73ZM371 43H436V607H371V43ZM744 187H845Q866 187 893 194T947 218T991 260T1009 326Q1009 365 992 391T948 434T894 457T845 464H744Q723 464 709 449T694 413V237Q694 217 708 202T744 187ZM1060
191Q1086 200 1108 221T1143 270T1156 326Q1156 355 1143 382T1108 431T1060 461L1055 458Q1073 430 1080 396T1087 326Q1087 292 1080 257T1055 194L1060 191Z" />
<glyph unicode="&#xdf;" glyph-name="germandbls" horiz-adv-x="1250" d="M767 -22Q740 -22 714 -21T661 -17L666 25Q685 21 703 20T740 18Q788 18 820 40T868 98T884 180Q884 250 836 299T702 367V395Q763 419 794 460T825 550Q825 584 810 606T769 639T717 650Q689
650 664 639T622 606T606 550V0H73V43H179Q216 43 242 62T269 131V428Q269 463 242 489T179 515H73V558H286Q339 623 435 658T696 694Q761 694 819 683T921 652T992 602T1018 537Q1018 497 986 454T887 384V379Q1003 370 1084 341T1207 271T1250 183Q1250 135 1213
98T1111 33T957 -8T767 -22ZM827 427Q849 438 871 453T909 489T924 531Q924 555 908 577T864 615L859 612Q867 596 871 579T876 544Q876 516 861 486T822 430L827 427ZM331 43H382V405Q382 427 385 460T402 530T448 595L446 602Q404 579 381 550T347 491T334 436T331
396V43ZM900 25Q942 54 963 93T984 172Q984 214 961 255T890 330L886 325Q905 305 916 277T932 221T937 172Q937 142 928 102T896 29L900 25Z" />
<glyph unicode="&#xe0;" glyph-name="agrave" horiz-adv-x="1162" d="M337 -22Q236 -22 175 8T87 87T60 187Q60 238 88 284T177 360T337 390Q403 390 454 389T550 387T639 383V386Q639 404 635 427T615 473T567 510T479 525Q413 525 352 508T243 467T168 425H127V579H169Q171
571 175 554T183 527Q279 556 382 568T606 580Q732 580 814 568T936 521T976 423V132Q976 83 1002 63T1066 43H1132V0H639V52Q570 17 491 -2T337 -22ZM701 43H752V409Q752 429 744 452T709 496T628 528L626 521Q659 508 675 489T696 448T701 409V43ZM369 8V14Q308
14 267 39T204 105T183 187Q183 228 203 266T266 330T370 355V361Q285 361 228 336T143 271T115 187Q115 142 143 101T228 34T369 8ZM417 207Q417 178 428 152T465 109T531 92Q580 92 639 113V332Q611 334 584 334T532 335Q493 335 468 316T430 267T417 207ZM802
624Q769 624 722 624T625 626T529 631T454 642Q408 653 379 674T334 717T312 754T306 770H597Q622 735 652 711T730 673T856 660V624H802ZM544 663V667Q529 672 509 682T470 708T443 742H379Q388 730 406 712T458 680T544 663Z" />
<glyph unicode="&#xe1;" glyph-name="aacute" horiz-adv-x="1162" d="M337 -22Q236 -22 175 8T87 87T60 187Q60 238 88 284T177 360T337 390Q403 390 454 389T550 387T639 383V386Q639 404 635 427T615 473T567 510T479 525Q413 525 352 508T243 467T168 425H127V579H169Q171
571 175 554T183 527Q279 556 382 568T606 580Q732 580 814 568T936 521T976 423V132Q976 83 1002 63T1066 43H1132V0H639V52Q570 17 491 -2T337 -22ZM701 43H752V409Q752 429 744 452T709 496T628 528L626 521Q659 508 675 489T696 448T701 409V43ZM369 8V14Q308
14 267 39T204 105T183 187Q183 228 203 266T266 330T370 355V361Q285 361 228 336T143 271T115 187Q115 142 143 101T228 34T369 8ZM417 207Q417 178 428 152T465 109T531 92Q580 92 639 113V332Q611 334 584 334T532 335Q493 335 468 316T430 267T417 207ZM306
624V660Q384 660 432 673T510 710T565 770H856Q856 770 850 755T829 717T784 674T708 642Q679 635 634 632T538 627T440 625T360 624H306ZM504 663Q556 666 589 680T642 712T669 742H605Q596 724 578 709T540 683T504 667V663Z" />
<glyph unicode="&#xe2;" glyph-name="acircumflex" horiz-adv-x="1162" d="M337 -22Q236 -22 175 8T87 87T60 187Q60 238 88 284T177 360T337 390Q403 390 454 389T550 387T639 383V386Q639 404 635 427T615 473T567 510T479 525Q413 525 352 508T243 467T168
425H127V579H169Q171 571 175 554T183 527Q279 556 382 568T606 580Q732 580 814 568T936 521T976 423V132Q976 83 1002 63T1066 43H1132V0H639V52Q570 17 491 -2T337 -22ZM701 43H752V409Q752 429 744 452T709 496T628 528L626 521Q659 508 675 489T696 448T701
409V43ZM369 8V14Q308 14 267 39T204 105T183 187Q183 228 203 266T266 330T370 355V361Q285 361 228 336T143 271T115 187Q115 142 143 101T228 34T369 8ZM417 207Q417 178 428 152T465 109T531 92Q580 92 639 113V332Q611 334 584 334T532 335Q493 335 468 316T430
267T417 207ZM285 624L419 770H743L876 624H789L686 736L582 624H285ZM396 662H458L533 745H471L396 662Z" />
<glyph unicode="&#xe3;" glyph-name="atilde" horiz-adv-x="1162" d="M337 -22Q236 -22 175 8T87 87T60 187Q60 238 88 284T177 360T337 390Q403 390 454 389T550 387T639 383V386Q639 404 635 427T615 473T567 510T479 525Q413 525 352 508T243 467T168 425H127V579H169Q171
571 175 554T183 527Q279 556 382 568T606 580Q732 580 814 568T936 521T976 423V132Q976 83 1002 63T1066 43H1132V0H639V52Q570 17 491 -2T337 -22ZM701 43H752V409Q752 429 744 452T709 496T628 528L626 521Q659 508 675 489T696 448T701 409V43ZM369 8V14Q308
14 267 39T204 105T183 187Q183 228 203 266T266 330T370 355V361Q285 361 228 336T143 271T115 187Q115 142 143 101T228 34T369 8ZM417 207Q417 178 428 152T465 109T531 92Q580 92 639 113V332Q611 334 584 334T532 335Q493 335 468 316T430 267T417 207ZM689
613Q630 613 588 620T511 637T438 654T352 662Q330 662 314 652T290 625H262Q264 644 278 671T321 724T391 769T488 787Q544 787 583 782T655 769T718 757T789 751Q822 751 839 760T867 786H900Q898 766 885 737T845 680T780 632T689 613ZM696 647Q731 647 767
659T829 693L827 697Q806 690 776 686T724 682Q666 682 625 688T552 704T487 719T414 726Q386 726 367 717T334 696L337 692Q348 694 358 695T379 697Q421 697 467 685T570 660T696 647Z" />
<glyph unicode="&#xe4;" glyph-name="adieresis" horiz-adv-x="1162" d="M337 -22Q236 -22 175 8T87 87T60 187Q60 238 88 284T177 360T337 390Q403 390 454 389T550 387T639 383V386Q639 404 635 427T615 473T567 510T479 525Q413 525 352 508T243 467T168 425H127V579H169Q171
571 175 554T183 527Q279 556 382 568T606 580Q732 580 814 568T936 521T976 423V132Q976 83 1002 63T1066 43H1132V0H639V52Q570 17 491 -2T337 -22ZM701 43H752V409Q752 429 744 452T709 496T628 528L626 521Q659 508 675 489T696 448T701 409V43ZM369 8V14Q308
14 267 39T204 105T183 187Q183 228 203 266T266 330T370 355V361Q285 361 228 336T143 271T115 187Q115 142 143 101T228 34T369 8ZM417 207Q417 178 428 152T465 109T531 92Q580 92 639 113V332Q611 334 584 334T532 335Q493 335 468 316T430 267T417 207ZM808
593Q771 593 740 608T691 649T672 706Q672 738 690 764T740 805T808 821Q847 821 878 806T927 764T946 706Q946 675 928 649T878 608T808 593ZM352 593Q315 593 284 608T235 649T216 706Q216 738 234 764T284 805T352 821Q391 821 422 806T471 764T490 706Q490
675 472 649T422 608T352 593ZM322 616L325 619Q311 635 303 657T294 706Q294 733 302 755T325 793L322 796Q292 783 273 759T253 706Q253 678 272 654T322 616ZM778 616L781 619Q767 635 759 657T750 706Q750 733 758 755T781 793L778 796Q748 783 729 759T709
706Q709 678 728 654T778 616Z" />
<glyph unicode="&#xe5;" glyph-name="aring" horiz-adv-x="1162" d="M337 -22Q236 -22 175 8T87 87T60 187Q60 238 88 284T177 360T337 390Q403 390 454 389T550 387T639 383V386Q639 404 635 427T615 473T567 510T479 525Q413 525 352 508T243 467T168 425H127V579H169Q171
571 175 554T183 527Q279 556 382 568T606 580Q732 580 814 568T936 521T976 423V132Q976 83 1002 63T1066 43H1132V0H639V52Q570 17 491 -2T337 -22ZM701 43H752V409Q752 429 744 452T709 496T628 528L626 521Q659 508 675 489T696 448T701 409V43ZM369 8V14Q308
14 267 39T204 105T183 187Q183 228 203 266T266 330T370 355V361Q285 361 228 336T143 271T115 187Q115 142 143 101T228 34T369 8ZM417 207Q417 178 428 152T465 109T531 92Q580 92 639 113V332Q611 334 584 334T532 335Q493 335 468 316T430 267T417 207ZM580
576Q537 576 502 593T445 640T423 706Q423 742 444 772T501 820T580 838Q624 838 660 820T717 772T739 706Q739 670 718 641T660 594T580 576ZM580 607Q600 607 614 636T628 706Q628 747 614 776T580 805Q561 805 547 776T532 706Q532 665 546 636T580 607ZM523
613L526 616Q512 633 504 656T495 706Q495 760 526 796L523 799Q493 786 474 761T455 706Q455 678 474 653T523 613Z" />
<glyph unicode="&#xe6;" glyph-name="ae" horiz-adv-x="1572" d="M337 -22Q236 -22 175 8T87 87T60 187Q60 238 88 284T177 360T337 390Q435 390 504 389T639 384Q639 402 635 426T615 472T567 510T479 525Q413 525 352 508T243 467T168 425H127V579H169Q171 571
175 554T183 527Q279 556 382 568T606 580Q661 580 714 576T811 564T883 547Q936 564 993 571T1106 579Q1226 579 1305 563T1429 520T1493 459T1512 389Q1512 354 1494 321T1431 260T1310 216T1115 199H1014Q1024 111 1062 69T1176 26Q1249 26 1306 40T1406 74T1474
108T1509 123Q1515 123 1523 119T1532 103Q1532 87 1508 70T1444 37T1355 7T1254 -14T1156 -22Q1065 -22 982 -9T830 31T715 102Q650 52 582 25T450 -12T337 -22ZM1212 252Q1281 273 1317 314T1353 402Q1353 447 1316 486T1207 545L1205 537Q1253 516 1277 480T1302
402Q1302 362 1279 323T1209 261L1212 252ZM1010 279Q1010 268 1010 259H1115Q1155 259 1182 280T1224 333T1239 402Q1239 436 1226 466T1189 516T1127 536Q1063 536 1037 472T1010 279ZM1001 20L1003 30Q935 50 883 85T800 169T770 278Q770 339 800 387T883 470T1004
525L1002 534Q914 515 847 478T741 391T702 278Q702 216 740 165T846 78T1001 20ZM369 8V14Q308 14 267 39T204 105T183 187Q183 228 203 266T266 330T370 355V361Q285 361 228 336T143 271T115 187Q115 142 143 101T228 34T369 8ZM536 92Q568 92 605 104T680 142Q640
200 640 278V331Q614 332 588 333T538 335Q497 335 470 316T430 267T417 207Q417 152 450 122T536 92Z" />
<glyph unicode="&#xe7;" glyph-name="ccedilla" horiz-adv-x="943" d="M556 -22Q454 -22 363 -5T202 48T91 142T50 278Q50 343 78 392T153 476T262 535T389 568T521 579Q608 579 687 560T831 518V558H884V350H833Q819 371 790 402T721 464T636 515T544 536Q483
536 461 502T439 415V185Q439 102 470 64T581 26Q652 26 707 40T802 74T866 108T900 123Q906 123 914 119T923 103Q923 92 906 78T862 50T804 23Q750 2 683 -10T556 -22ZM412 20L414 30Q346 50 294 85T211 169T181 278Q181 339 211 387T294 470T415 525L413 534Q325
515 258 478T152 391T113 278Q113 216 151 165T257 78T412 20ZM454 -223Q383 -223 321 -213T221 -188V-79H260Q271 -105 293 -127T344 -162T399 -175Q431 -175 454 -159T477 -105Q477 -19 346 0V16Q410 16 470 7T580 -22T658 -68T687 -133Q687 -163 666 -180T611
-207T536 -220T454 -223ZM495 -188Q515 -183 536 -172T572 -143T587 -107Q587 -75 561 -56T495 -24L491 -30Q537 -58 537 -107Q537 -129 525 -150T492 -182L495 -188Z" />
<glyph unicode="&#xe8;" glyph-name="egrave" horiz-adv-x="983" d="M567 -22Q463 -22 370 -5T204 48T91 142T50 278Q50 343 77 392T152 476T260 535T387 568T517 579Q637 579 716 563T840 520T904 459T923 389Q923 354 905 321T842 260T721 216T526 199H425Q435
111 473 69T587 26Q660 26 717 40T817 74T885 108T920 123Q926 123 934 119T943 103Q943 92 925 78T879 50T819 23Q764 2 696 -10T567 -22ZM623 252Q692 273 728 314T764 402Q764 447 727 486T618 545L616 537Q664 516 688 480T713 402Q713 362 690 323T620 261L623
252ZM421 279Q421 268 421 259H526Q566 259 593 280T635 333T650 402Q650 436 637 466T600 516T538 536Q474 536 448 472T421 279ZM412 20L414 30Q346 50 294 85T211 169T181 278Q181 339 211 387T294 470T415 525L413 534Q325 515 258 478T152 391T113 278Q113
216 151 165T257 78T412 20ZM744 624Q711 624 664 624T567 626T471 631T396 642Q350 653 321 674T276 717T254 754T248 770H539Q564 735 594 711T672 673T798 660V624H744ZM486 663V667Q471 672 451 682T412 708T385 742H321Q330 730 348 712T400 680T486 663Z"
/>
<glyph unicode="&#xe9;" glyph-name="eacute" horiz-adv-x="983" d="M567 -22Q463 -22 370 -5T204 48T91 142T50 278Q50 343 77 392T152 476T260 535T387 568T517 579Q637 579 716 563T840 520T904 459T923 389Q923 354 905 321T842 260T721 216T526 199H425Q435
111 473 69T587 26Q660 26 717 40T817 74T885 108T920 123Q926 123 934 119T943 103Q943 92 925 78T879 50T819 23Q764 2 696 -10T567 -22ZM623 252Q692 273 728 314T764 402Q764 447 727 486T618 545L616 537Q664 516 688 480T713 402Q713 362 690 323T620 261L623
252ZM421 279Q421 268 421 259H526Q566 259 593 280T635 333T650 402Q650 436 637 466T600 516T538 536Q474 536 448 472T421 279ZM412 20L414 30Q346 50 294 85T211 169T181 278Q181 339 211 387T294 470T415 525L413 534Q325 515 258 478T152 391T113 278Q113
216 151 165T257 78T412 20ZM248 624V660Q326 660 374 673T452 710T507 770H798Q798 770 792 755T771 717T726 674T650 642Q621 635 576 632T480 627T382 625T302 624H248ZM446 663Q498 666 531 680T584 712T611 742H547Q538 724 520 709T482 683T446 667V663Z"
/>
<glyph unicode="&#xea;" glyph-name="ecircumflex" horiz-adv-x="983" d="M567 -22Q463 -22 370 -5T204 48T91 142T50 278Q50 343 77 392T152 476T260 535T387 568T517 579Q637 579 716 563T840 520T904 459T923 389Q923 354 905 321T842 260T721 216T526 199H425Q435
111 473 69T587 26Q660 26 717 40T817 74T885 108T920 123Q926 123 934 119T943 103Q943 92 925 78T879 50T819 23Q764 2 696 -10T567 -22ZM623 252Q692 273 728 314T764 402Q764 447 727 486T618 545L616 537Q664 516 688 480T713 402Q713 362 690 323T620 261L623
252ZM421 279Q421 268 421 259H526Q566 259 593 280T635 333T650 402Q650 436 637 466T600 516T538 536Q474 536 448 472T421 279ZM412 20L414 30Q346 50 294 85T211 169T181 278Q181 339 211 387T294 470T415 525L413 534Q325 515 258 478T152 391T113 278Q113
216 151 165T257 78T412 20ZM227 624L361 770H685L818 624H731L628 736L524 624H227ZM338 662H400L475 745H413L338 662Z" />
<glyph unicode="&#xeb;" glyph-name="edieresis" horiz-adv-x="983" d="M567 -22Q463 -22 370 -5T204 48T91 142T50 278Q50 343 77 392T152 476T260 535T387 568T517 579Q637 579 716 563T840 520T904 459T923 389Q923 354 905 321T842 260T721 216T526 199H425Q435
111 473 69T587 26Q660 26 717 40T817 74T885 108T920 123Q926 123 934 119T943 103Q943 92 925 78T879 50T819 23Q764 2 696 -10T567 -22ZM623 252Q692 273 728 314T764 402Q764 447 727 486T618 545L616 537Q664 516 688 480T713 402Q713 362 690 323T620 261L623
252ZM421 279Q421 268 421 259H526Q566 259 593 280T635 333T650 402Q650 436 637 466T600 516T538 536Q474 536 448 472T421 279ZM412 20L414 30Q346 50 294 85T211 169T181 278Q181 339 211 387T294 470T415 525L413 534Q325 515 258 478T152 391T113 278Q113
216 151 165T257 78T412 20ZM750 593Q713 593 682 608T633 649T614 706Q614 738 632 764T682 805T750 821Q789 821 820 806T869 764T888 706Q888 675 870 649T820 608T750 593ZM294 593Q257 593 226 608T177 649T158 706Q158 738 176 764T226 805T294 821Q333 821
364 806T413 764T432 706Q432 675 414 649T364 608T294 593ZM264 616L267 619Q253 635 245 657T236 706Q236 733 244 755T267 793L264 796Q234 783 215 759T195 706Q195 678 214 654T264 616ZM720 616L723 619Q709 635 701 657T692 706Q692 733 700 755T723 793L720
796Q690 783 671 759T651 706Q651 678 670 654T720 616Z" />
<glyph unicode="&#xec;" glyph-name="igrave" horiz-adv-x="739" d="M60 0V43H126Q163 43 189 63T216 132V426Q216 462 190 488T126 515H60V558H553V132Q553 83 579 63T643 43H709V0H60ZM278 43H329V515H278V43ZM591 624Q558 624 511 624T414 626T318 631T243
642Q197 653 168 674T123 717T101 754T95 770H386Q411 735 441 711T519 673T645 660V624H591ZM333 663V667Q318 672 298 682T259 708T232 742H168Q177 730 195 712T247 680T333 663Z" />
<glyph unicode="&#xed;" glyph-name="iacute" horiz-adv-x="739" d="M60 0V43H126Q163 43 189 63T216 132V426Q216 462 190 488T126 515H60V558H553V132Q553 83 579 63T643 43H709V0H60ZM278 43H329V515H278V43ZM95 624V660Q173 660 221 673T299 710T354 770H645Q645
770 639 755T618 717T573 674T497 642Q468 635 423 632T327 627T229 625T149 624H95ZM293 663Q345 666 378 680T431 712T458 742H394Q385 724 367 709T329 683T293 667V663Z" />
<glyph unicode="&#xee;" glyph-name="icircumflex" horiz-adv-x="739" d="M60 0V43H126Q163 43 189 63T216 132V426Q216 462 190 488T126 515H60V558H553V132Q553 83 579 63T643 43H709V0H60ZM278 43H329V515H278V43ZM74 624L208 770H532L665 624H578L475 736L371
624H74ZM185 662H247L322 745H260L185 662Z" />
<glyph unicode="&#xef;" glyph-name="idieresis" horiz-adv-x="739" d="M60 0V43H126Q163 43 189 63T216 132V426Q216 462 190 488T126 515H60V558H553V132Q553 83 579 63T643 43H709V0H60ZM278 43H329V515H278V43ZM853 593Q816 593 785 608T736 649T717 706Q717
738 735 764T785 805T853 821Q892 821 923 806T972 764T991 706Q991 675 973 649T923 608T853 593ZM397 593Q360 593 329 608T280 649T261 706Q261 738 279 764T329 805T397 821Q436 821 467 806T516 764T535 706Q535 675 517 649T467 608T397 593ZM367 616L370
619Q356 635 348 657T339 706Q339 733 347 755T370 793L367 796Q337 783 318 759T298 706Q298 678 317 654T367 616ZM823 616L826 619Q812 635 804 657T795 706Q795 733 803 755T826 793L823 796Q793 783 774 759T754 706Q754 678 773 654T823 616Z" />
<glyph unicode="&#xf0;" glyph-name="eth" horiz-adv-x="1102" d="M520 -22Q423 -22 338 -1T188 56T87 141T50 245Q50 300 84 348T182 434T336 493T539 515Q579 515 616 511T688 500Q688 528 684 555T669 607L464 566V626L633 660Q611 681 577 693T494 706Q448
706 404 692T320 657T250 615T202 580T185 566H150V724H185V687Q268 713 359 731T561 749Q631 749 698 737T825 698L1082 749V689L905 654Q971 607 1011 534T1052 360Q1052 288 1021 220T924 98T758 11T520 -22ZM718 58Q770 114 800 191T831 360Q831 451 801 528T719
661L715 657Q737 590 749 515T762 360Q762 280 750 206T714 62L718 58ZM560 21Q626 21 662 77T699 244Q699 354 671 412T560 471Q478 471 450 413T421 244Q421 134 457 78T560 21ZM412 22L414 29Q340 46 282 77T191 151T158 245Q158 297 191 340T282 414T415 462L413
467Q319 450 246 418T132 343T90 245Q90 192 131 148T245 72T412 22Z" />
<glyph unicode="&#xf1;" glyph-name="ntilde" horiz-adv-x="1324" d="M60 0V43H126Q170 43 193 66T216 132V426Q216 462 190 488T126 515H60V558H553V430Q634 504 722 542T900 580Q1025 580 1081 543T1138 423V132Q1138 89 1161 66T1228 43H1294V0H801V364Q801
415 786 435T735 456Q709 456 677 445T612 413T553 367V132Q553 89 576 66T643 43H709V0H60ZM278 43H329V515H278V43ZM863 43H914V357Q914 405 882 439T790 486L788 479Q823 464 843 432T863 357V43ZM795 613Q736 613 694 620T617 637T544 654T458 662Q436 662
420 652T396 625H368Q370 644 384 671T427 724T497 769T594 787Q650 787 689 782T761 769T824 757T895 751Q928 751 945 760T973 786H1006Q1004 766 991 737T951 680T886 632T795 613ZM802 647Q837 647 873 659T935 693L933 697Q912 690 882 686T830 682Q772 682
731 688T658 704T593 719T520 726Q492 726 473 717T440 696L443 692Q454 694 464 695T485 697Q527 697 573 685T676 660T802 647Z" />
<glyph unicode="&#xf2;" glyph-name="ograve" horiz-adv-x="1099" d="M550 -22Q444 -22 352 1T189 66T80 162T40 280Q40 346 77 400T183 495T345 558T550 580Q661 580 754 558T916 496T1021 401T1059 280Q1059 217 1020 163T910 67T748 2T550 -22ZM402 22L404
32Q295 64 233 129T171 280Q171 365 232 429T405 527L403 536Q310 515 243 477T139 389T103 280Q103 192 183 124T402 22ZM550 22Q625 22 657 81T689 279Q689 419 657 477T550 536Q475 536 443 478T411 279Q411 140 443 81T550 22ZM708 35Q762 81 791 145T821 280Q821
351 792 414T709 523L705 520Q752 400 752 280Q752 158 704 38L708 35ZM771 624Q738 624 691 624T594 626T498 631T423 642Q377 653 348 674T303 717T281 754T275 770H566Q591 735 621 711T699 673T825 660V624H771ZM513 663V667Q498 672 478 682T439 708T412 742H348Q357
730 375 712T427 680T513 663Z" />
<glyph unicode="&#xf3;" glyph-name="oacute" horiz-adv-x="1099" d="M550 -22Q444 -22 352 1T189 66T80 162T40 280Q40 346 77 400T183 495T345 558T550 580Q661 580 754 558T916 496T1021 401T1059 280Q1059 217 1020 163T910 67T748 2T550 -22ZM402 22L404
32Q295 64 233 129T171 280Q171 365 232 429T405 527L403 536Q310 515 243 477T139 389T103 280Q103 192 183 124T402 22ZM550 22Q625 22 657 81T689 279Q689 419 657 477T550 536Q475 536 443 478T411 279Q411 140 443 81T550 22ZM708 35Q762 81 791 145T821 280Q821
351 792 414T709 523L705 520Q752 400 752 280Q752 158 704 38L708 35ZM275 624V660Q353 660 401 673T479 710T534 770H825Q825 770 819 755T798 717T753 674T677 642Q648 635 603 632T507 627T409 625T329 624H275ZM473 663Q525 666 558 680T611 712T638 742H574Q565
724 547 709T509 683T473 667V663Z" />
<glyph unicode="&#xf4;" glyph-name="ocircumflex" horiz-adv-x="1099" d="M550 -22Q444 -22 352 1T189 66T80 162T40 280Q40 346 77 400T183 495T345 558T550 580Q661 580 754 558T916 496T1021 401T1059 280Q1059 217 1020 163T910 67T748 2T550 -22ZM402 22L404
32Q295 64 233 129T171 280Q171 365 232 429T405 527L403 536Q310 515 243 477T139 389T103 280Q103 192 183 124T402 22ZM550 22Q625 22 657 81T689 279Q689 419 657 477T550 536Q475 536 443 478T411 279Q411 140 443 81T550 22ZM708 35Q762 81 791 145T821 280Q821
351 792 414T709 523L705 520Q752 400 752 280Q752 158 704 38L708 35ZM254 624L388 770H712L845 624H758L655 736L551 624H254ZM365 662H427L502 745H440L365 662Z" />
<glyph unicode="&#xf5;" glyph-name="otilde" horiz-adv-x="1099" d="M550 -22Q444 -22 352 1T189 66T80 162T40 280Q40 346 77 400T183 495T345 558T550 580Q661 580 754 558T916 496T1021 401T1059 280Q1059 217 1020 163T910 67T748 2T550 -22ZM402 22L404
32Q295 64 233 129T171 280Q171 365 232 429T405 527L403 536Q310 515 243 477T139 389T103 280Q103 192 183 124T402 22ZM550 22Q625 22 657 81T689 279Q689 419 657 477T550 536Q475 536 443 478T411 279Q411 140 443 81T550 22ZM708 35Q762 81 791 145T821 280Q821
351 792 414T709 523L705 520Q752 400 752 280Q752 158 704 38L708 35ZM658 613Q599 613 557 620T480 637T407 654T321 662Q299 662 283 652T259 625H231Q233 644 247 671T290 724T360 769T457 787Q513 787 552 782T624 769T687 757T758 751Q791 751 808 760T836
786H869Q867 766 854 737T814 680T749 632T658 613ZM665 647Q700 647 736 659T798 693L796 697Q775 690 745 686T693 682Q635 682 594 688T521 704T456 719T383 726Q355 726 336 717T303 696L306 692Q317 694 327 695T348 697Q390 697 436 685T539 660T665 647Z"
/>
<glyph unicode="&#xf6;" glyph-name="odieresis" horiz-adv-x="1099" d="M550 -22Q444 -22 352 1T189 66T80 162T40 280Q40 346 77 400T183 495T345 558T550 580Q661 580 754 558T916 496T1021 401T1059 280Q1059 217 1020 163T910 67T748 2T550 -22ZM402 22L404
32Q295 64 233 129T171 280Q171 365 232 429T405 527L403 536Q310 515 243 477T139 389T103 280Q103 192 183 124T402 22ZM550 22Q625 22 657 81T689 279Q689 419 657 477T550 536Q475 536 443 478T411 279Q411 140 443 81T550 22ZM708 35Q762 81 791 145T821 280Q821
351 792 414T709 523L705 520Q752 400 752 280Q752 158 704 38L708 35ZM777 593Q740 593 709 608T660 649T641 706Q641 738 659 764T709 805T777 821Q816 821 847 806T896 764T915 706Q915 675 897 649T847 608T777 593ZM321 593Q284 593 253 608T204 649T185 706Q185
738 203 764T253 805T321 821Q360 821 391 806T440 764T459 706Q459 675 441 649T391 608T321 593ZM291 616L294 619Q280 635 272 657T263 706Q263 733 271 755T294 793L291 796Q261 783 242 759T222 706Q222 678 241 654T291 616ZM747 616L750 619Q736 635 728
657T719 706Q719 733 727 755T750 793L747 796Q717 783 698 759T678 706Q678 678 697 654T747 616Z" />
<glyph unicode="&#xf7;" glyph-name="divide" horiz-adv-x="740" d="M370 442Q327 442 296 465T265 522Q265 555 296 579T370 603Q414 603 444 579T475 522Q475 489 445 466T370 442ZM100 298V378H640V298H100ZM370 73Q327 73 296 96T265 153Q265 186 296 210T370
234Q414 234 444 210T475 153Q475 120 445 97T370 73Z" />
<glyph unicode="&#xf8;" glyph-name="oslash" horiz-adv-x="1099" d="M376 -69L401 -9Q297 10 215 52T87 153T40 280Q40 346 77 400T183 495T345 558T550 580Q600 580 648 575L670 628H722L697 569Q806 552 887 511T1014 411T1059 280Q1059 217 1020 163T910 67T748
2T550 -22Q499 -22 450 -16L428 -69H376ZM402 22L404 32Q295 64 233 129T171 280Q171 365 232 429T405 527L403 536Q310 515 243 477T139 389T103 280Q103 192 183 124T402 22ZM411 279Q411 144 441 85L623 516Q595 536 550 536Q475 536 443 478T411 279ZM708 35Q762
81 791 145T821 280Q821 351 792 414T709 523L705 520Q752 400 752 280Q752 158 704 38L708 35ZM550 22Q625 22 657 81T689 279Q689 417 658 476L475 43Q504 22 550 22Z" />
<glyph unicode="&#xf9;" glyph-name="ugrave" horiz-adv-x="1284" d="M385 -22Q327 -22 280 -10T204 36T176 136V426Q176 476 150 495T86 515H20V558H472V225Q472 201 479 173T509 124T581 103Q635 103 683 130T761 192V426Q761 476 735 495T671 515H605V558H1098V132Q1098
96 1124 70T1188 43H1254V0H761V129Q728 95 674 60T547 2T385 -22ZM342 13L343 21Q319 33 305 60T290 136V426Q290 470 257 494T171 528L169 521Q201 510 220 487T239 426V136Q239 76 267 49T342 13ZM824 43H875V426Q875 470 842 494T756 528L754 521Q786 510 805
487T824 426V43ZM849 624Q816 624 769 624T672 626T576 631T501 642Q455 653 426 674T381 717T359 754T353 770H644Q669 735 699 711T777 673T903 660V624H849ZM591 663V667Q576 672 556 682T517 708T490 742H426Q435 730 453 712T505 680T591 663Z" />
<glyph unicode="&#xfa;" glyph-name="uacute" horiz-adv-x="1284" d="M385 -22Q327 -22 280 -10T204 36T176 136V426Q176 476 150 495T86 515H20V558H472V225Q472 201 479 173T509 124T581 103Q635 103 683 130T761 192V426Q761 476 735 495T671 515H605V558H1098V132Q1098
96 1124 70T1188 43H1254V0H761V129Q728 95 674 60T547 2T385 -22ZM342 13L343 21Q319 33 305 60T290 136V426Q290 470 257 494T171 528L169 521Q201 510 220 487T239 426V136Q239 76 267 49T342 13ZM824 43H875V426Q875 470 842 494T756 528L754 521Q786 510 805
487T824 426V43ZM353 624V660Q431 660 479 673T557 710T612 770H903Q903 770 897 755T876 717T831 674T755 642Q726 635 681 632T585 627T487 625T407 624H353ZM551 663Q603 666 636 680T689 712T716 742H652Q643 724 625 709T587 683T551 667V663Z" />
<glyph unicode="&#xfb;" glyph-name="ucircumflex" horiz-adv-x="1284" d="M385 -22Q327 -22 280 -10T204 36T176 136V426Q176 476 150 495T86 515H20V558H472V225Q472 201 479 173T509 124T581 103Q635 103 683 130T761 192V426Q761 476 735 495T671 515H605V558H1098V132Q1098
96 1124 70T1188 43H1254V0H761V129Q728 95 674 60T547 2T385 -22ZM342 13L343 21Q319 33 305 60T290 136V426Q290 470 257 494T171 528L169 521Q201 510 220 487T239 426V136Q239 76 267 49T342 13ZM824 43H875V426Q875 470 842 494T756 528L754 521Q786 510 805
487T824 426V43ZM332 624L466 770H790L923 624H836L733 736L629 624H332ZM443 662H505L580 745H518L443 662Z" />
<glyph unicode="&#xfc;" glyph-name="udieresis" horiz-adv-x="1284" d="M385 -22Q327 -22 280 -10T204 36T176 136V426Q176 476 150 495T86 515H20V558H472V225Q472 201 479 173T509 124T581 103Q635 103 683 130T761 192V426Q761 476 735 495T671 515H605V558H1098V132Q1098
96 1124 70T1188 43H1254V0H761V129Q728 95 674 60T547 2T385 -22ZM342 13L343 21Q319 33 305 60T290 136V426Q290 470 257 494T171 528L169 521Q201 510 220 487T239 426V136Q239 76 267 49T342 13ZM824 43H875V426Q875 470 842 494T756 528L754 521Q786 510 805
487T824 426V43ZM855 593Q818 593 787 608T738 649T719 706Q719 738 737 764T787 805T855 821Q894 821 925 806T974 764T993 706Q993 675 975 649T925 608T855 593ZM399 593Q362 593 331 608T282 649T263 706Q263 738 281 764T331 805T399 821Q438 821 469 806T518
764T537 706Q537 675 519 649T469 608T399 593ZM369 616L372 619Q358 635 350 657T341 706Q341 733 349 755T372 793L369 796Q339 783 320 759T300 706Q300 678 319 654T369 616ZM825 616L828 619Q814 635 806 657T797 706Q797 733 805 755T828 793L825 796Q795
783 776 759T756 706Q756 678 775 654T825 616Z" />
<glyph unicode="&#xfd;" glyph-name="yacute" horiz-adv-x="1058" d="M207 -221Q158 -221 118 -203T53 -155T29 -87Q29 -49 53 -18T119 31T212 50Q257 50 293 33T357 -10T400 -65L463 0L39 515H-30V558H544V515H495Q476 515 464 503T451 470Q451 454 461 433T496
387L652 229L762 346Q781 366 789 385T798 424Q798 462 762 488T659 515H594V558H1049V515H994L435 -105Q417 -125 386 -152T311 -200T207 -221ZM499 31L529 63L157 515H100L499 31ZM144 -183Q112 -143 112 -87Q112 -30 144 7Q110 -7 89 -32T67 -87Q67 -118 88
-143T144 -183ZM264 624V660Q342 660 390 673T468 710T523 770H814Q814 770 808 755T787 717T742 674T666 642Q637 635 592 632T496 627T398 625T318 624H264ZM462 663Q514 666 547 680T600 712T627 742H563Q554 724 536 709T498 683T462 667V663Z" />
<glyph unicode="&#xfe;" glyph-name="thorn" horiz-adv-x="1190" d="M30 -200V-157H95Q132 -157 158 -137T185 -68V588Q185 638 159 657T96 677H30V720H523V490Q556 518 601 538T696 569T796 580Q883 580 948 557T1055 493T1119 401T1140 296Q1140 238 1117 181T1047
79T932 6T775 -22Q705 -22 639 -2T523 61V-68Q523 -117 546 -137T603 -157H702V-200H30ZM247 -157H298V677H247V-157ZM726 41Q788 59 822 96T871 185T886 296Q886 382 845 442T725 525L722 515Q776 489 805 432T834 296Q834 241 824 192T790 106T721 48L726 41ZM647
62Q696 62 722 92T760 175T771 296Q771 399 739 451T647 504Q607 504 575 481T523 427V126Q532 115 550 100T593 74T647 62Z" />
<glyph unicode="&#xff;" glyph-name="ydieresis" horiz-adv-x="1058" d="M207 -221Q158 -221 118 -203T53 -155T29 -87Q29 -49 53 -18T119 31T212 50Q257 50 293 33T357 -10T400 -65L463 0L39 515H-30V558H544V515H495Q476 515 464 503T451 470Q451 454 461 433T496
387L652 229L762 346Q781 366 789 385T798 424Q798 462 762 488T659 515H594V558H1049V515H994L435 -105Q417 -125 386 -152T311 -200T207 -221ZM499 31L529 63L157 515H100L499 31ZM144 -183Q112 -143 112 -87Q112 -30 144 7Q110 -7 89 -32T67 -87Q67 -118 88
-143T144 -183ZM766 593Q729 593 698 608T649 649T630 706Q630 738 648 764T698 805T766 821Q805 821 836 806T885 764T904 706Q904 675 886 649T836 608T766 593ZM310 593Q273 593 242 608T193 649T174 706Q174 738 192 764T242 805T310 821Q349 821 380 806T429
764T448 706Q448 675 430 649T380 608T310 593ZM280 616L283 619Q269 635 261 657T252 706Q252 733 260 755T283 793L280 796Q250 783 231 759T211 706Q211 678 230 654T280 616ZM736 616L739 619Q725 635 717 657T708 706Q708 733 716 755T739 793L736 796Q706
783 687 759T667 706Q667 678 686 654T736 616Z" />
<glyph unicode="&#x2013;" glyph-name="endash" horiz-adv-x="1010" d="M100 263V343H910V263H100Z" />
<glyph unicode="&#x2014;" glyph-name="emdash" horiz-adv-x="1212" d="M100 263V343H1112V263H100Z" />
<glyph unicode="&#x2018;" glyph-name="quoteleft" horiz-adv-x="524" d="M258 290Q195 290 151 312T83 371T60 449Q60 488 81 527T147 598T261 650T426 670V633Q396 633 354 629T270 614T197 582T159 524Q182 532 206 536T258 541Q315 541 362 524T436 479T464
416Q464 382 437 353T362 307T258 290ZM208 328L211 332Q195 348 185 369T174 416Q174 441 184 462T211 500L208 504Q162 495 144 469T125 416Q125 389 145 365T208 328Z" />
<glyph unicode="&#x2019;" glyph-name="quoteright" horiz-adv-x="524" d="M98 290V327Q128 327 170 331T254 346T327 378T365 436Q343 429 318 424T266 419Q209 419 163 436T88 481T60 544Q60 579 88 607T162 653T266 670Q330 670 374 648T441 590T464 511Q464
472 443 433T377 362T263 310T98 290ZM184 456L187 460Q171 476 161 497T150 544Q150 569 160 590T187 628L184 632Q147 619 124 595T101 544Q101 517 124 494T184 456Z" />
<glyph unicode="&#x201a;" glyph-name="quotesinglbase" horiz-adv-x="595" d="M129 -151V-114Q159 -114 201 -110T285 -95T358 -63T396 -5Q374 -12 349 -17T297 -22Q240 -22 194 -5T119 40T91 103Q91 138 119 166T193 212T297 229Q361 229 405 207T472 148T495
70Q495 31 474 -8T408 -79T294 -131T129 -151ZM215 15L218 19Q202 35 192 56T181 103Q181 128 191 149T218 187L215 191Q178 178 155 154T132 103Q132 76 155 53T215 15Z" />
<glyph unicode="&#x201c;" glyph-name="quotedblleft" horiz-adv-x="988" d="M722 290Q659 290 615 312T547 371T524 449Q524 488 545 527T611 598T725 650T890 670V633Q860 633 818 629T734 614T661 582T623 524Q646 532 670 536T722 541Q779 541 825 524T900
479T928 416Q928 382 900 353T826 307T722 290ZM258 290Q195 290 151 312T83 371T60 449Q60 488 81 527T147 598T261 650T426 670V633Q396 633 354 629T270 614T197 582T159 524Q182 532 206 536T258 541Q315 541 362 524T436 479T464 416Q464 382 437 353T362
307T258 290ZM208 328L211 332Q195 348 185 369T174 416Q174 441 184 462T211 500L208 504Q162 495 144 469T125 416Q125 389 145 365T208 328ZM672 328L675 332Q659 348 649 369T638 416Q638 441 648 462T675 500L672 504Q626 495 608 469T589 416Q589 389 609
365T672 328Z" />
<glyph unicode="&#x201d;" glyph-name="quotedblright" horiz-adv-x="988" d="M562 290V327Q592 327 634 331T718 346T791 378T829 436Q807 429 782 424T730 419Q673 419 627 436T552 481T524 544Q524 579 552 607T626 653T730 670Q794 670 838 648T905 590T928
511Q928 472 907 433T841 362T727 310T562 290ZM98 290V327Q128 327 170 331T254 346T327 378T365 436Q343 429 318 424T266 419Q209 419 163 436T88 481T60 544Q60 579 88 607T162 653T266 670Q330 670 374 648T441 590T464 511Q464 472 443 433T377 362T263 310T98
290ZM184 456L187 460Q171 476 161 497T150 544Q150 569 160 590T187 628L184 632Q147 619 124 595T101 544Q101 517 124 494T184 456ZM648 456L651 460Q635 476 625 497T614 544Q614 569 624 590T651 628L648 632Q611 619 588 595T565 544Q565 517 588 494T648
456Z" />
<glyph unicode="&#x201e;" glyph-name="quotedblbase" horiz-adv-x="1059" d="M593 -151V-114Q623 -114 665 -110T749 -95T822 -63T860 -5Q838 -12 813 -17T761 -22Q704 -22 658 -5T583 40T555 103Q555 138 583 166T657 212T761 229Q825 229 869 207T936 149T959
70Q959 31 938 -8T872 -79T758 -131T593 -151ZM129 -151V-114Q159 -114 201 -110T285 -95T358 -63T396 -5Q374 -12 349 -17T297 -22Q240 -22 194 -5T119 40T91 103Q91 138 119 166T193 212T297 229Q361 229 405 207T472 149T495 70Q495 31 474 -8T408 -79T294 -131T129
-151ZM215 15L218 19Q202 35 192 56T181 103Q181 128 191 149T218 187L215 191Q178 178 155 154T132 103Q132 76 155 53T215 15ZM679 15L682 19Q666 35 656 56T645 103Q645 128 655 149T682 187L679 191Q642 178 619 154T596 103Q596 76 619 53T679 15Z" />
<glyph unicode="&#x2022;" glyph-name="bullet" horiz-adv-x="555" d="M90 181V472H465V181H90ZM157 221H222V432H157V221Z" />
<glyph unicode="&#x2039;" glyph-name="guilsinglleft" horiz-adv-x="353" d="M273 8L0 258V300L273 549V462L161 359L273 255V8ZM235 119V181L100 303L66 272L235 119Z" />
<glyph unicode="&#x203a;" glyph-name="guilsinglright" horiz-adv-x="353" d="M80 8V95L192 198L80 302V549L353 299V257L80 8ZM222 225L256 256L118 383V321L222 225Z" />
</font>
</defs>
</svg>
