<?xml version="1.0" standalone="no"?>
<!DOCTYPE svg PUBLIC "-//W3C//DTD SVG 1.1//EN" "http://www.w3.org/Graphics/SVG/1.1/DTD/svg11.dtd">
<svg xmlns="http://www.w3.org/2000/svg">
<defs >
<font id="Murecho" horiz-adv-x="527" ><font-face
    font-family="Murecho Thin"
    units-per-em="1000"
    panose-1="2 11 0 3 2 2 4 2 2 4"
    ascent="1160"
    descent="-288"
    alphabetic="0" />
<glyph unicode=" " horiz-adv-x="232" />
<glyph unicode="!" horiz-adv-x="252" d="M79 728H173L161 218H91L79 728ZM126 -11Q100 -11 81 7T62 54Q62 82 81 100T126 118Q153 118 171 100T190 54Q190 25 172 7T126 -11Z" />
<glyph unicode="&quot;" horiz-adv-x="406" d="M72 501L62 760H151L141 501H72ZM265 501L255 760H344L334 501H265Z" />
<glyph unicode="#" horiz-adv-x="602" d="M407 642H466L398 0H339L407 642ZM58 230H524L520 171H54L58 230ZM204 642H264L196 0H136L204 642ZM83 471H549L543 412H77L83 471Z" />
<glyph unicode="$" horiz-adv-x="506" d="M221 49L244 10Q216 10 182 14T115 27T58 47L70 113Q105 98 149 88T239 78Q273 78 299 91T341 128T356 182Q356 221 335 246T281 288T211 322T141 360T87 415T66 499Q66 550 92 586T160 643T251 665L221 623V763H282V627L250
665Q306 665 348 657T422 635L408 569Q383 579 347 588T264 598Q229 598 204 585T167 550T154 504Q154 469 175 446T229 406T299 373T369 334T423 277T444 190Q444 141 421 101T355 37T249 10L282 53V-89H221V49Z" />
<glyph unicode="%" horiz-adv-x="861" d="M582 673H639L261 0H203L582 673ZM202 308Q157 308 123 331T69 397T49 496Q49 553 68 595T122 660T202 684Q248 684 282 661T336 595T356 496Q356 440 337 398T283 332T202 308ZM202 357Q246 357 268 396T291 496Q291
558 269 596T202 635Q158 635 136 597T114 496Q114 435 136 396T202 357ZM641 -11Q595 -11 561 12T507 78T488 177Q488 234 507 276T560 341T641 365Q687 365 721 342T774 276T794 177Q794 121 775 79T721 13T641 -11ZM641 38Q684 38 706 77T729 177Q729 239 707
277T641 316Q597 316 575 278T552 177Q552 116 574 77T641 38Z" />
<glyph unicode="&amp;" horiz-adv-x="663" d="M210 374Q185 401 165 431T133 496T120 565Q120 614 142 653T204 716T295 739Q339 739 376 721T435 668T458 585Q458 547 439 512T382 445T293 382L252 428Q286 449 315 473T362 524T380 583Q380 623 358 651T295
680Q266 680 245 665T213 625T202 571Q202 539 213 512T241 463T272 424L614 44L555 -11L210 374ZM273 -11Q210 -11 161 14T83 83T54 184Q54 255 97 310T207 404L248 356Q221 338 196 315T156 262T140 195Q140 152 160 122T215 75T288 59Q336 59 375 83T443 144L494
98Q450 49 396 19T273 -11ZM469 164Q501 204 520 264T541 399H621Q618 311 588 240T515 117L469 164Z" />
<glyph unicode="&apos;" horiz-adv-x="213" d="M72 501L62 760H151L141 501H72Z" />
<glyph unicode="(" horiz-adv-x="323" d="M230 -111Q180 -54 141 19T80 178T57 359Q57 456 79 542T141 701T230 831H290Q242 771 206 696T150 536T130 359Q130 268 150 184T206 25T290 -111H230Z" />
<glyph unicode=")" horiz-adv-x="323" d="M33 -111Q80 -50 116 24T172 183T192 359Q192 451 172 536T116 696T33 831H92Q142 774 181 701T242 542T265 359Q265 264 243 178T181 19T92 -111H33Z" />
<glyph unicode="*" horiz-adv-x="433" d="M199 555L181 730Q212 737 243 730L224 555L243 380Q212 373 181 380L199 555ZM206 545L45 616Q54 646 76 669L218 565L379 494Q375 479 368 466T349 441L206 545ZM218 545L76 441Q54 464 45 494L206 565L348 669Q360
658 367 645T379 616L218 545ZM212 515Q195 515 183 526T171 555Q171 572 183 584T212 596Q229 596 240 584T252 555Q252 538 241 527T212 515Z" />
<glyph unicode="+" horiz-adv-x="583" d="M263 85V555H319V85H263ZM56 348H526V292H56V348Z" />
<glyph unicode="," horiz-adv-x="227" d="M25 -127L70 123H162L91 -137L25 -127Z" />
<glyph unicode="-" horiz-adv-x="413" d="M49 322H364V257H49V322Z" />
<glyph unicode="." horiz-adv-x="227" d="M120 -10Q94 -10 75 8T56 55Q56 83 75 101T120 120Q146 120 165 102T184 55Q184 27 165 9T120 -10Z" />
<glyph unicode="/" horiz-adv-x="400" d="M319 740H386L83 -26H17L319 740Z" />
<glyph unicode="0" horiz-adv-x="583" d="M292 -11Q215 -11 161 31T79 154T51 347Q51 459 78 539T160 662T292 705Q369 705 422 662T504 539T532 347Q532 234 504 154T423 32T292 -11ZM292 60Q345 60 378 95T426 194T441 347Q441 435 426 499T378 599T292 634Q238
634 205 599T156 500T141 347Q141 258 156 194T204 95T292 60Z" />
<glyph unicode="1" horiz-adv-x="483" d="M230 608H228L82 538V612L251 696H318V0H230V608Z" />
<glyph unicode="2" horiz-adv-x="555" d="M48 56Q130 132 194 190T301 299T367 395T390 493Q390 530 376 561T331 612T253 631Q210 631 169 617T95 582L70 645Q108 668 159 686T268 704Q338 704 385 677T457 604T481 501Q481 439 457 387T388 284T282 179T150
59L135 74L495 73L491 0H48V56Z" />
<glyph unicode="3" horiz-adv-x="530" d="M232 -11Q177 -11 128 3T44 36L64 100Q94 86 138 74T226 62Q282 62 319 82T374 133T392 202Q392 236 377 261T336 302T278 326T210 334H155L157 401H209Q236 401 264 408T317 430T355 469T370 527Q370 573 337 603T241
633Q198 633 160 622T91 595L74 659Q109 677 157 691T259 705Q320 705 364 685T434 627T459 542Q459 480 424 437T317 371V369Q363 361 400 338T460 279T483 192Q483 137 453 91T366 17T232 -11Z" />
<glyph unicode="4" horiz-adv-x="560" d="M345 0V444L347 610H345L291 524L106 259V257H529L524 187H19V249L326 696H432V0H345Z" />
<glyph unicode="5" horiz-adv-x="533" d="M224 -11Q172 -11 125 1T46 30L63 96Q92 83 133 73T219 62Q275 62 314 83T373 141T394 219Q394 291 339 328T189 365Q159 365 135 361T87 350L86 351L119 693H460L456 620H189L168 423Q180 426 199 429T243 433Q356 433
420 378T485 227Q485 159 453 106T361 21T224 -11Z" />
<glyph unicode="6" horiz-adv-x="571" d="M292 -11Q214 -11 160 25T77 126T48 274Q48 382 80 464T168 600T298 681T456 707V637Q372 638 305 605T195 510T140 359H142Q171 406 217 429T318 452Q379 452 426 425T499 348T526 232Q526 165 497 110T416 22T292 -11ZM291
58Q333 58 366 79T417 138T436 226Q436 276 418 311T368 365T294 385Q262 385 231 373T175 337T137 275Q135 212 152 163T205 86T291 58Z" />
<glyph unicode="7" horiz-adv-x="505" d="M322 536L362 618V620H30V693H464V635L167 0H71L322 536Z" />
<glyph unicode="8" horiz-adv-x="575" d="M285 -11Q213 -11 159 14T76 81T46 175Q46 241 90 291T210 369L278 335Q241 323 209 302T157 252T137 183Q137 148 156 119T209 71T287 53Q331 53 365 70T418 118T438 183Q438 228 412 259T346 308T259 334L200 356V366Q137
390 104 433T71 527Q71 582 101 621T181 681T290 703Q353 703 401 680T476 619T503 534Q503 477 466 433T365 361L297 395Q326 405 353 422T398 466T417 527Q417 556 401 582T356 624T286 640Q248 640 219 624T174 583T157 528Q157 479 198 443T316 394L376 375V365Q414
352 448 329T505 270T528 185Q528 130 497 86T412 15T285 -11Z" />
<glyph unicode="9" horiz-adv-x="571" d="M280 707Q358 707 412 671T495 570T524 423Q524 314 492 232T404 96T274 15T115 -11V60Q200 59 267 92T378 187T431 337H429Q402 291 355 268T253 244Q193 244 146 271T73 348T46 464Q46 532 74 587T155 674T280 707ZM280
638Q238 638 206 617T154 559T135 470Q135 422 153 386T203 331T277 311Q310 311 341 323T398 360T434 421Q437 485 419 534T366 610T280 638Z" />
<glyph unicode=":" horiz-adv-x="227" d="M119 340Q93 340 75 358T56 405Q56 433 74 451T119 470Q145 470 164 452T184 405Q184 376 165 358T119 340ZM120 -10Q93 -10 75 8T56 55Q56 83 74 101T120 120Q146 120 165 102T184 55Q184 27 165 9T120 -10Z" />
<glyph unicode=";" horiz-adv-x="227" d="M114 340Q88 340 70 358T51 405Q51 433 69 451T114 470Q141 470 160 452T179 405Q179 377 160 359T114 340ZM25 -127L70 123H162L91 -137L25 -127Z" />
<glyph unicode="&lt;" horiz-adv-x="568" d="M72 288V351L496 556V493L133 320V320L496 147V84L72 288Z" />
<glyph unicode="=" horiz-adv-x="583" d="M56 467H527V409H56V467ZM56 231H527V173H56V231Z" />
<glyph unicode="&gt;" horiz-adv-x="568" d="M72 147L435 320V320L72 493V556L496 351V288L72 84V147Z" />
<glyph unicode="?" horiz-adv-x="424" d="M153 218Q152 228 151 240T149 262Q149 299 163 330T200 390T244 444T280 500T295 565Q295 613 263 638T178 664Q154 664 130 659T84 646L77 716Q105 728 135 733T198 739Q255 739 296 719T361 664T384 581Q384 534 368
498T329 431T283 373T244 315T228 246Q228 239 228 232T229 218H153ZM191 -11Q164 -11 146 7T127 54Q127 82 145 100T191 118Q218 118 236 100T255 54Q255 26 237 8T191 -11Z" />
<glyph unicode="@" horiz-adv-x="851" d="M400 -156Q299 -156 221 -110T98 18T53 210Q53 299 83 375T167 509T296 599T459 632Q561 632 638 591T758 477T802 310Q802 238 777 177T709 79T613 42Q575 42 555 62T528 116T526 187H524Q495 117 451 77T356 37Q303
37 270 76T236 181Q236 228 253 276T303 366T381 432T482 457Q515 457 548 449T603 425Q595 376 586 328T572 236T567 160T580 107T619 88Q653 88 683 117T731 195T749 304Q749 386 714 449T614 547T461 583Q384 583 319 555T206 478T132 361T106 214Q106 117 143
45T248 -67T403 -107Q437 -107 470 -101T527 -86L538 -131Q507 -143 471 -149T400 -156ZM376 90Q403 90 426 107T467 155T498 224T520 304L536 394Q529 399 513 404T476 410Q441 410 410 391T355 339T318 267T304 189Q304 145 322 118T376 90Z" />
<glyph unicode="A" horiz-adv-x="614" d="M253 728H364L597 0H504L361 485L309 650H308L256 485L112 0H19L253 728ZM193 296H424L441 225H176L193 296Z" />
<glyph unicode="B" horiz-adv-x="577" d="M219 -3Q174 -3 137 -2T72 1V723Q111 727 157 729T246 731Q308 731 356 721T439 688T490 632T508 550Q508 493 472 447T366 384L373 385Q417 376 454 352T512 291T534 203Q534 143 512 103T449 40T349 7T219 -3ZM247 68Q287
68 322 74T384 96T426 139T441 209Q441 276 393 311T269 346H160V69Q178 68 201 68T247 68ZM261 413Q313 413 347 429T399 474T417 539Q417 602 376 631T258 661Q231 661 204 660T160 657V413H261Z" />
<glyph unicode="C" horiz-adv-x="595" d="M381 -12Q296 -12 231 16T124 96T60 214T39 359Q39 470 80 556T199 691T386 740Q441 740 487 730T561 707L549 634Q518 646 477 655T391 664Q310 664 252 627T164 521T133 362Q133 274 162 207T250 102T392 64Q434 64
475 72T550 95L560 22Q526 6 479 -3T381 -12Z" />
<glyph unicode="D" horiz-adv-x="674" d="M232 -3Q185 -3 147 -2T72 1V723Q117 728 166 729T258 731Q384 731 468 688T593 566T635 376Q635 254 590 170T455 41T232 -3ZM246 71Q341 71 406 104T506 206T540 374Q540 462 510 525T417 623T261 658Q238 658 212 657T162
653V72Q181 71 200 71T246 71Z" />
<glyph unicode="E" horiz-adv-x="517" d="M72 728H463L458 653H162V415H437L432 339H162V75H478L472 0H72V728Z" />
<glyph unicode="F" horiz-adv-x="502" d="M72 728H462L457 653H162V404H432L426 329H162V0H72V728Z" />
<glyph unicode="G" horiz-adv-x="652" d="M389 -11Q307 -11 242 15T132 90T63 207T39 359Q39 442 63 511T134 632T245 711T394 740Q453 740 501 729T580 705L566 631Q534 643 492 653T397 664Q336 664 287 642T204 580T152 485T134 363Q134 268 167 202T259 100T394
65Q431 65 461 71T512 85V334L548 294H368L373 365H597V28Q574 19 541 10T469 -5T389 -11Z" />
<glyph unicode="H" horiz-adv-x="660" d="M72 728H162V417H498V728H587V0H498V339H162V0H72V728Z" />
<glyph unicode="I" horiz-adv-x="235" d="M72 728H162V0H72V728Z" />
<glyph unicode="J" horiz-adv-x="235" d="M-9 -50Q20 -49 37 -44T63 -18T72 45V728H162V45Q162 -10 149 -43T114 -94T61 -117T-4 -124L-9 -50Z" />
<glyph unicode="K" horiz-adv-x="570" d="M72 728H162V376L236 420L445 728H554L308 396L569 0H462L239 344L162 301V0H72V728Z" />
<glyph unicode="L" horiz-adv-x="494" d="M72 728H162V76H474L469 0H72V728Z" />
<glyph unicode="M" horiz-adv-x="837" d="M103 728H219L332 396L417 124H419L505 396L618 728H733L764 0H676L665 303L655 600H653L454 0H377L183 600H181L170 303L158 0H72L103 728Z" />
<glyph unicode="N" horiz-adv-x="665" d="M72 728H174Q263 575 345 432T509 136H511L507 389V728H592V0H497Q441 96 394 178T306 333T228 470T155 599H153L157 345V0H72V728Z" />
<glyph unicode="O" horiz-adv-x="703" d="M352 -12Q279 -12 221 15T123 93T61 213T39 364Q39 446 60 515T122 634T221 712T352 740Q424 740 482 713T580 635T642 515T664 364Q664 282 643 213T581 94T482 16T352 -12ZM352 64Q407 64 448 87T516 152T556 247T570
364Q570 426 557 480T516 576T448 640T352 664Q297 664 256 641T187 576T147 481T134 364Q134 302 147 248T187 152T255 88T352 64Z" />
<glyph unicode="P" horiz-adv-x="562" d="M72 723Q113 728 156 729T241 731Q304 731 355 719T444 682T501 616T521 520Q521 451 490 400T399 323T257 296Q233 296 208 297T160 302V0H72V723ZM241 369Q333 369 382 409T431 519Q431 588 386 623T249 659Q230 659
207 658T160 654V375Q172 374 195 372T241 369Z" />
<glyph unicode="Q" horiz-adv-x="703" d="M352 0Q254 0 184 46T77 174T39 366Q39 448 60 516T122 635T221 712T352 739Q424 739 482 712T580 635T642 520T664 375Q664 296 643 238T587 139T514 75V74H700L695 0H352ZM352 70Q407 70 448 93T516 156T556 250T570
366Q570 428 557 482T516 576T448 640T352 663Q297 663 256 640T187 577T147 482T134 366Q134 304 147 250T187 156T256 93T352 70Z" />
<glyph unicode="R" horiz-adv-x="563" d="M72 723Q111 728 153 729T240 731Q338 731 399 708T489 639T518 529Q518 475 496 436T440 373T370 339V337L542 0H445L288 314H160V0H72V723ZM274 384Q313 384 348 399T406 446T428 523Q428 591 385 625T248 659Q224 659
202 659T160 656V384H274Z" />
<glyph unicode="S" horiz-adv-x="524" d="M232 -12Q178 -12 127 1T42 28L59 100Q92 87 138 76T229 64Q276 64 311 79T368 124T389 193Q389 233 366 259T305 304T227 341Q194 356 163 373T105 413T64 467T48 542Q48 606 80 650T167 717T286 740Q335 740 377 729T448
706L433 634Q409 644 370 654T289 664Q221 664 181 632T140 546Q140 508 162 483T221 440T297 403Q330 388 362 371T422 331T464 276T480 199Q480 136 450 89T363 15T232 -12Z" />
<glyph unicode="T" horiz-adv-x="521" d="M215 652H7L12 728H514L508 652H306V0H215V652Z" />
<glyph unicode="U" horiz-adv-x="652" d="M326 -12Q248 -12 190 19T100 114T68 275V728H158V270Q158 170 201 116T326 62Q407 62 450 116T494 270V728H584V275Q584 178 553 115T463 20T326 -12Z" />
<glyph unicode="V" horiz-adv-x="597" d="M6 728H104L235 292L298 87H299L362 292L493 728H591L353 0H244L6 728Z" />
<glyph unicode="W" horiz-adv-x="882" d="M13 728H110L192 370L248 105H249L310 370L396 728H487L572 370L633 105H635L691 370L773 728H869L691 0H588L442 601H441L295 0H191L13 728Z" />
<glyph unicode="X" horiz-adv-x="574" d="M551 0L338 371L299 381L123 728H23L236 357L275 347L451 0H551ZM123 0L299 347L338 357L551 728H451L275 381L236 371L23 0H123Z" />
<glyph unicode="Y" horiz-adv-x="565" d="M238 295L9 728H108L202 536L282 361H284L364 536L458 728H557L328 295V0H238V295Z" />
<glyph unicode="Z" horiz-adv-x="555" d="M30 54L403 651V652H51L56 728H517V674L145 77V76H523L518 0H30V54Z" />
<glyph unicode="[" horiz-adv-x="294" d="M76 849H264L260 796H147V-76H264L260 -129H76V849Z" />
<glyph unicode="\" horiz-adv-x="404" d="M17 740H83L386 -27H320L17 740Z" />
<glyph unicode="]" horiz-adv-x="293" d="M32 -76H146V796H29L32 849H217V-129H29L32 -76Z" />
<glyph unicode="^" horiz-adv-x="564" d="M253 674H308L488 301H430L281 617V617L132 301H74L253 674Z" />
<glyph unicode="_" horiz-adv-x="578" d="M0 -76H543V-137H0V-76Z" />
<glyph unicode="`" horiz-adv-x="261" d="M107 602L3 744H80L164 602H107Z" />
<glyph unicode="a" horiz-adv-x="508" d="M190 -11Q144 -11 110 8T56 60T37 136Q37 181 54 209T101 252T167 272T240 278H350V341Q350 366 347 387T333 425T300 451T240 461Q199 461 160 451T87 427L72 491Q99 503 129 512T192 526T254 531Q314 531 351 517T407
477T432 417T439 344V128Q439 99 440 64T443 0H377L359 80H357Q332 40 289 15T190 -11ZM218 52Q263 52 301 76T352 141V227H252Q232 227 210 225T167 216T135 190T123 141Q123 99 149 76T218 52Z" />
<glyph unicode="b" horiz-adv-x="562" d="M312 -11Q274 -11 244 1T191 34T152 77H151L132 0H67Q67 15 67 33T68 72T69 111T70 147V748L160 751V447H161Q185 478 228 504T324 531Q387 531 431 499T498 407T522 269Q522 185 495 123T420 25T312 -11ZM289 61Q338
61 369 90T415 165T430 265Q430 324 415 367T369 434T294 458Q266 458 240 447T194 419T160 381V156Q168 133 185 112T229 76T289 61Z" />
<glyph unicode="c" horiz-adv-x="481" d="M296 -11Q217 -11 160 21T71 114T39 259Q39 340 70 401T160 496T302 530Q337 530 375 523T443 502L432 435Q408 446 375 453T306 460Q249 460 210 435T150 364T130 261Q130 199 152 154T216 85T312 61Q352 61 386 69T441
85L450 19Q425 8 382 -1T296 -11Z" />
<glyph unicode="d" horiz-adv-x="562" d="M247 -11Q185 -11 139 22T66 116T39 255Q39 337 66 398T142 495T255 531Q301 531 339 513T400 469H402V748L491 751V132Q491 113 491 89T492 42T494 0H429L410 75H408Q383 39 343 14T247 -11ZM272 61Q322 61 356 89T402
154V403Q380 427 349 443T280 459Q232 459 199 432T148 358T130 256Q130 201 147 157T196 87T272 61Z" />
<glyph unicode="e" horiz-adv-x="520" d="M293 -11Q208 -11 152 23T67 118T39 258Q39 316 55 365T101 451T176 510T277 531Q336 531 377 510T442 450T474 359T476 245H89L134 279Q123 214 138 165T195 87T304 58Q347 58 384 67T446 85L457 22Q427 9 383 -1T293
-11ZM90 297H397Q398 302 398 306T398 313Q398 360 384 394T343 448T274 467Q225 467 192 440T142 367T129 272L90 297Z" />
<glyph unicode="f" horiz-adv-x="317" d="M90 454H19L23 516L90 520V545Q90 648 134 703T265 759Q285 759 303 757T335 749L327 680Q317 684 306 685T282 686Q240 686 218 666T187 615T178 546V520H304L299 454H179V0H90V454Z" />
<glyph unicode="g" horiz-adv-x="541" d="M259 140Q198 140 152 165T79 234T53 335Q53 393 79 437T151 506T259 531Q320 531 366 506T439 437T465 335Q465 278 440 234T368 165T259 140ZM259 199Q299 199 325 217T365 267T378 335Q378 374 365 404T326 453T259
472Q219 472 193 454T153 405T140 335Q140 298 153 267T192 218T259 199ZM251 -235Q206 -235 164 -228T87 -205T32 -162T12 -96Q12 -54 33 -25T90 27V28Q74 38 66 51T58 84Q58 113 79 140T127 190L165 172Q147 156 136 139T124 102Q124 83 139 74T186 63L324 56Q349
55 382 51T446 34T498 -2T519 -70Q519 -111 492 -149T405 -211T251 -235ZM259 -167Q324 -167 363 -155T421 -121T439 -77Q439 -54 427 -41T395 -20T354 -10T313 -6L184 2Q162 4 150 6T128 13L139 12Q116 -1 100 -24T84 -74Q84 -101 99 -119T138 -148T194 -163T259
-167ZM318 520H522V470H394L318 520Z" />
<glyph unicode="h" horiz-adv-x="573" d="M70 748L160 751V446H162Q183 467 208 486T266 518T336 531Q369 531 399 519T453 482T490 417T504 319V0H414V315Q414 355 405 382T379 426T343 450T302 458Q271 458 244 446T197 417T160 383V0H71L70 748Z" />
<glyph unicode="i" horiz-adv-x="235" d="M73 520L163 523V0H73V520ZM118 613Q94 613 77 628T60 667Q60 692 77 707T118 723Q142 723 158 708T175 667Q175 643 159 628T118 613Z" />
<glyph unicode="j" horiz-adv-x="235" d="M6 -178L0 -106Q27 -106 43 -102T66 -81T73 -31V520L162 523V-43Q162 -102 145 -131T92 -169T6 -178ZM117 613Q94 613 77 628T60 667Q60 692 77 707T117 723Q141 723 158 708T175 667Q175 643 158 628T117 613Z" />
<glyph unicode="k" horiz-adv-x="500" d="M70 748L160 751V290L235 323L202 291L364 520H471L263 269L264 318L500 0H388L202 279L244 255L160 218V0H70V748Z" />
<glyph unicode="l" horiz-adv-x="231" d="M70 748L160 751V0H70V748Z" />
<glyph unicode="m" horiz-adv-x="875" d="M69 382Q69 420 69 452T67 520L145 523L150 445H154Q172 464 197 484T254 517T325 531Q369 531 406 510T462 441H464Q485 462 511 482T571 517T643 531Q678 531 707 519T758 483T793 420T806 325V0H717V311Q717 365 703
397T666 443T612 458Q581 458 555 445T507 414T472 377L477 403Q480 380 481 361T482 316V0H394V314Q394 354 384 386T353 438T294 458Q264 458 239 446T193 417T158 383V0H69V382Z" />
<glyph unicode="n" horiz-adv-x="572" d="M69 375Q69 418 69 453T67 520L146 523L151 445H154Q172 463 198 483T259 517T335 531Q368 531 398 519T452 482T489 418T503 322V0H413V318Q413 359 403 386T377 429T341 451T302 458Q270 458 243 446T195 417T159 383V0H69V375Z"
/>
<glyph unicode="o" horiz-adv-x="569" d="M285 -11Q235 -11 190 6T112 58T59 143T40 260Q40 326 59 377T111 462T190 513T285 531Q336 531 380 514T459 462T512 377T531 260Q531 194 512 143T459 58T381 7T285 -11ZM285 57Q324 57 353 72T401 115T429 180T439
260Q439 303 430 340T402 405T354 448T285 463Q246 463 217 448T169 405T141 340T132 260Q132 217 141 180T169 115T217 72T285 57Z" />
<glyph unicode="p" horiz-adv-x="562" d="M70 365Q70 407 69 446T67 520L145 523L151 443H153Q182 478 226 504T324 531Q387 531 431 499T499 407T522 269Q522 185 495 123T421 25T312 -11Q277 -11 248 1T197 31T161 68H159V-224H70V365ZM290 61Q338 61 369 90T415
165T430 265Q430 324 415 367T369 434T294 458Q266 458 241 447T194 419T160 381V158Q167 135 184 113T229 76T290 61Z" />
<glyph unicode="q" horiz-adv-x="561" d="M401 71H399Q379 40 340 15T245 -11Q184 -11 138 22T65 116T39 255Q39 337 66 398T141 495T254 531Q301 531 340 512T408 462H409L416 523L493 520Q492 489 492 451T491 372V-224H401V71ZM272 61Q322 61 356 89T401 154V403Q379
427 348 443T280 459Q232 459 199 432T148 358T130 256Q130 201 147 157T196 87T272 61Z" />
<glyph unicode="r" horiz-adv-x="355" d="M70 0V373Q70 419 69 453T67 520L146 523L153 431H155Q183 476 226 504T334 529V449Q276 453 232 433T160 367V0H70Z" />
<glyph unicode="s" horiz-adv-x="429" d="M190 -11Q151 -11 111 -2T40 22L53 84Q70 77 93 71T141 60T192 56Q244 56 272 78T301 136Q301 164 284 181T241 212T184 238Q152 252 121 269T70 315T49 385Q49 429 71 461T135 512T231 531Q269 531 305 523T367 501L354
439Q340 445 320 451T277 461T232 465Q185 465 161 444T136 392Q136 367 150 351T189 322T242 298Q275 285 309 266T365 218T388 143Q388 97 363 62T294 8T190 -11Z" />
<glyph unicode="t" horiz-adv-x="352" d="M228 -11Q186 -11 160 3T120 40T102 94T97 156V454H20L25 517L101 520L107 638L186 655V520H319L315 454H186V166Q186 142 191 119T213 80T262 65Q278 65 292 67T318 73L321 5Q305 -1 279 -6T228 -11Z" />
<glyph unicode="u" horiz-adv-x="569" d="M237 -11Q181 -11 143 14T87 88T68 204V520H158V208Q158 138 184 100T270 62Q300 62 326 73T373 102T409 137V520H498V145Q498 102 498 67T501 0H436L417 79H415Q397 58 370 37T309 3T237 -11Z" />
<glyph unicode="v" horiz-adv-x="501" d="M13 520H108L250 84H251L392 520H488L297 0H204L13 520Z" />
<glyph unicode="w" horiz-adv-x="772" d="M16 520H109L220 83H221L265 241L347 520H425L508 241L551 83H552L663 520H756L602 0H511L386 410H385L261 0H170L16 520Z" />
<glyph unicode="x" horiz-adv-x="480" d="M109 0L252 238L284 250L468 520H371L227 282L196 270L12 0H109ZM468 0L284 270L252 282L109 520H12L196 250L227 238L371 0H468Z" />
<glyph unicode="y" horiz-adv-x="493" d="M212 9L242 67L388 520H483L203 -224H109L212 9ZM11 520H107L246 83H268L261 2H201L11 520Z" />
<glyph unicode="z" horiz-adv-x="454" d="M25 57L320 451H43L49 520H426V461L134 70L431 69L427 0H25V57Z" />
<glyph unicode="{" horiz-adv-x="355" d="M317 -129Q218 -129 170 -95T122 23Q122 52 127 88T137 161T142 225Q142 258 134 281T103 319T38 336V384Q80 388 103 401T134 439T142 496Q142 524 138 560T128 632T122 698Q122 781 170 815T320 849L317 800Q243 800
217 772T191 686Q191 661 195 628T204 561T209 499Q209 457 197 429T160 384T102 360V360Q136 354 160 338T196 292T209 221Q209 194 205 160T196 93T191 35Q191 -22 218 -51T320 -80L317 -129Z" />
<glyph unicode="|" horiz-adv-x="243" d="M91 810H152V-80H91V810Z" />
<glyph unicode="}" horiz-adv-x="352" d="M39 849Q138 849 185 815T233 698Q233 669 228 633T218 560T213 496Q213 463 221 439T252 402T317 384V336Q275 333 252 319T221 282T213 225Q213 197 218 161T228 89T233 23Q233 -61 185 -95T35 -129L39 -80Q112 -80
138 -52T165 34Q165 59 161 92T151 159T146 221Q146 263 158 292T195 337T254 360V360Q219 367 195 383T159 428T146 499Q146 527 151 561T160 627T165 685Q165 743 137 771T35 800L39 849Z" />
<glyph unicode="~" horiz-adv-x="580" d="M403 248Q373 248 344 260T286 289T231 318T180 331Q146 331 131 306T107 251L61 257Q73 313 100 350T179 388Q209 388 238 376T296 347T351 317T402 304Q436 304 451 330T474 385L520 378Q508 322 481 285T403 248Z" />
<glyph unicode="&#xa0;" horiz-adv-x="252" />
<glyph unicode="&#xa1;" horiz-adv-x="252" d="M91 302H161L173 -208H79L91 302ZM126 402Q100 402 81 420T62 466Q62 494 81 512T126 531Q153 531 171 513T190 466Q190 438 172 420T126 402Z" />
<glyph unicode="&#xa2;" horiz-adv-x="507" d="M261 131L287 89Q224 89 173 116T91 199T60 336Q60 415 89 471T171 557T287 589L261 546V689H322V548L309 589Q331 589 355 586T401 578T439 564L430 498Q410 507 380 514T312 521Q269 521 232 503T172 444T149 341Q149
276 171 236T231 176T310 157Q349 157 380 165T432 181L441 117Q416 106 377 98T292 89L322 130V-11H261V131Z" />
<glyph unicode="&#xa3;" horiz-adv-x="532" d="M58 45Q90 68 111 97T145 161T157 229Q157 255 152 280T131 339L189 304H55L61 365H137Q130 395 125 422T119 477Q119 538 146 580T219 644T323 666Q364 666 397 660T453 643L443 579Q419 588 392 593T334 599Q273
599 238 567T203 473Q203 446 209 420T222 365H372L367 304H191L228 329Q232 310 234 292T236 257Q236 202 216 153T157 69V67H472L467 0H64L58 45Z" />
<glyph unicode="&#xa4;" horiz-adv-x="700" d="M350 151Q293 151 246 179T170 255T141 360Q141 417 169 464T245 540T350 569Q407 569 454 541T530 465T559 360Q559 303 531 256T455 180T350 151ZM350 209Q392 209 426 229T480 284T501 360Q501 402 481 436T426
490T350 511Q308 511 274 491T220 436T199 360Q199 318 219 284T274 230T350 209ZM96 573L137 614L231 520L190 479L96 573ZM469 200L510 241L604 147L563 106L469 200ZM563 614L604 573L510 479L469 520L563 614ZM190 241L231 200L137 106L96 147L190 241Z" />
<glyph unicode="&#xa5;" horiz-adv-x="528" d="M221 123H68L69 167H221V249H68L69 291H216L27 656H123L264 337H266L406 656H502L313 291H461L460 249H308V167H461L460 123H308V0H221V123Z" />
<glyph unicode="&#xa6;" horiz-adv-x="243" d="M91 810H152V465H91V810ZM91 265H152V-80H91V265Z" />
<glyph unicode="&#xa7;" horiz-adv-x="523" d="M224 -84Q187 -84 144 -75T68 -50L81 9Q99 1 123 -5T174 -16T226 -21Q281 -21 316 3T352 72Q352 101 335 120T288 154T225 184Q200 195 174 208T126 238T91 280T78 339Q78 396 114 435T213 487L241 440Q201 433 177
409T153 349Q153 321 169 303T214 271T273 243Q309 228 345 208T406 157T431 77Q431 29 405 -7T332 -64T224 -84ZM295 211Q332 222 353 246T375 304Q375 335 357 354T310 389T246 419Q221 430 195 443T146 474T111 517T98 577Q98 622 121 656T187 709T288 728Q325
728 364 719T429 697L417 638Q401 644 380 650T335 661T289 665Q234 665 206 641T177 582Q177 556 193 538T236 506T292 479Q330 463 366 444T427 394T451 314Q451 261 420 223T334 168L295 211Z" />
<glyph unicode="&#xa8;" horiz-adv-x="336" d="M77 606Q56 606 42 619T28 653Q28 673 42 687T77 701Q98 701 112 687T126 653Q126 633 112 620T77 606ZM258 606Q237 606 223 619T209 653Q209 673 223 687T258 701Q279 701 293 687T307 653Q307 633 293 620T258 606Z" />
<glyph unicode="&#xa9;" horiz-adv-x="812" d="M406 1Q334 1 272 27T164 99T91 208T65 342Q65 414 91 476T163 584T272 657T406 683Q478 683 540 657T648 585T721 476T747 342Q747 270 721 208T649 100T540 27T406 1ZM416 153Q355 153 314 177T253 244T233 338Q233
424 283 477T421 531Q454 531 483 524T531 509L522 471Q506 477 481 482T427 488Q358 488 320 448T281 339Q281 297 297 264T345 214T422 196Q452 196 479 202T528 218L537 181Q510 167 480 160T416 153ZM406 35Q471 35 527 58T624 123T689 221T712 342Q712 407
689 463T625 560T527 625T406 649Q341 649 285 626T188 561T123 463T100 342Q100 277 123 221T187 124T285 59T406 35Z" />
<glyph unicode="&#xaa;" horiz-adv-x="324" d="M126 275Q83 275 58 300T33 362Q33 399 49 417T93 442T150 448H218V487Q218 507 214 522T197 545T152 553Q123 553 101 546T63 532L52 578Q74 587 103 594T162 601Q210 601 234 588T268 551T278 495V357Q278 334
279 316T281 281H235L223 319H221Q204 299 180 287T126 275ZM144 319Q160 319 177 325T206 344T219 374V410H162Q145 410 130 408T104 397T93 367Q93 343 108 331T144 319Z" />
<glyph unicode="&#xab;" horiz-adv-x="670" d="M604 46L354 261V319L604 534V457L391 271V309L604 123V46ZM316 46L66 261V319L316 534V457L103 271V309L316 123V46Z" />
<glyph unicode="&#xac;" horiz-adv-x="626" d="M496 301H72V359H553V86H496V301Z" />
<glyph unicode="&#xad;" horiz-adv-x="420" d="M53 322H368V258H53V322Z" />
<glyph unicode="&#xae;" horiz-adv-x="633" d="M316 200Q245 200 189 232T101 320T69 447Q69 519 101 574T189 662T316 694Q388 694 443 662T531 575T563 447Q563 376 531 320T444 232T316 200ZM316 231Q380 231 428 259T503 336T531 447Q531 510 504 558T428
635T316 663Q254 663 206 635T130 559T102 447Q102 385 129 336T205 259T316 231ZM237 570Q250 572 268 573T307 575Q357 575 381 555T405 501Q405 475 391 457T344 430V429L416 323H379L311 425H268V323H237V570ZM309 453Q336 453 354 463T372 500Q372 547 307
547Q297 547 288 547T268 544V453H309Z" />
<glyph unicode="&#xaf;" horiz-adv-x="369" d="M50 620V670H319V620H50Z" />
<glyph unicode="&#xb0;" horiz-adv-x="339" d="M172 472Q139 472 112 487T68 529T52 590Q52 624 68 650T111 692T172 708Q206 708 233 693T275 651T291 590Q291 556 276 530T233 488T172 472ZM172 513Q205 513 227 534T249 589Q249 624 227 646T172 668Q139 668
117 646T95 590Q95 556 117 535T172 513Z" />
<glyph unicode="&#xb1;" horiz-adv-x="584" d="M264 85V555H320V85H264ZM57 348H527V292H57V348ZM57 60H527V7H57V60Z" />
<glyph unicode="&#xb2;" horiz-adv-x="343" d="M28 440Q92 498 137 539T207 615T232 689Q232 721 213 743T153 765Q128 765 104 757T58 737L40 785Q62 798 95 809T165 820Q209 820 239 804T284 759T300 695Q300 659 285 628T243 568T181 508T105 443L94 454L308
453L305 398H28V440Z" />
<glyph unicode="&#xb3;" horiz-adv-x="329" d="M143 391Q109 391 77 400T24 420L39 469Q59 461 86 454T139 447Q187 447 210 467T233 517Q233 541 219 558T181 583T130 592H95L97 643H130Q149 643 170 649T206 670T221 709Q221 734 202 750T145 766Q120 766 97
760T56 745L43 793Q65 804 95 812T160 821Q217 821 252 794T287 721Q287 685 267 659T202 619V618Q244 612 273 583T302 511Q302 477 283 450T228 407T143 391Z" />
<glyph unicode="&#xb4;" horiz-adv-x="261" d="M96 602L180 744H258L154 602H96Z" />
<glyph unicode="&#xb5;" horiz-adv-x="554" d="M232 -11Q176 -11 141 16T89 93T72 212V485H161V207Q161 137 185 100T261 62Q291 62 317 73T364 102T400 137V485H490V145Q490 102 490 67T492 0H428L409 79H407Q389 58 362 37T301 3T232 -11ZM72 392H154V-200H72V392Z" />
<glyph unicode="&#xb6;" horiz-adv-x="537" d="M246 303L293 256Q175 256 109 311T42 466Q42 565 108 619T310 674V-80H246V303ZM387 674H452V-80H387V674Z" />
<glyph unicode="&#xb7;" horiz-adv-x="231" d="M120 195Q94 195 75 213T56 259Q56 287 75 305T120 324Q147 324 166 306T185 259Q185 231 166 213T120 195Z" />
<glyph unicode="&#xb8;" horiz-adv-x="600" d="M264 -235Q241 -235 217 -232T170 -222L185 -190Q205 -194 225 -197T263 -200Q308 -200 332 -183T356 -139Q356 -115 340 -104T297 -93T240 -104L222 -86L264 0H302L267 -71Q305 -63 336 -67T385 -89T404 -137Q404
-182 366 -208T264 -235Z" />
<glyph unicode="&#xb9;" horiz-adv-x="299" d="M138 750H136L45 708V764L153 816H204V398H138V750Z" />
<glyph unicode="&#xba;" horiz-adv-x="345" d="M173 275Q132 275 98 293T44 347T24 437Q24 493 44 529T98 583T173 601Q213 601 247 584T301 530T322 437Q322 383 302 347T247 293T173 275ZM173 321Q202 321 221 336T249 377T259 438Q259 473 250 499T221 540T173
555Q143 555 124 540T96 499T87 438Q87 404 96 378T124 336T173 321Z" />
<glyph unicode="&#xbb;" horiz-adv-x="670" d="M354 46V123L567 309V271L354 457V534L604 319V261L354 46ZM66 46V123L279 309V271L66 457V534L316 319V261L66 46Z" />
<glyph unicode="&#xbc;" horiz-adv-x="788" d="M138 630H136L45 588V644L153 696H204V278H138V630ZM602 696L203 0H139L537 696H602ZM648 0V263L650 354L649 355L616 303L519 161V160H771L767 107H454V154L632 418H715V0H648Z" />
<glyph unicode="&#xbd;" horiz-adv-x="785" d="M138 630H136L45 588V644L153 696H204V278H138V630ZM602 696L203 0H139L537 696H602ZM470 42Q534 100 579 141T649 217T674 291Q674 323 655 345T595 367Q570 367 546 359T500 339L482 387Q504 400 537 411T607 422Q651
422 681 406T726 361T742 297Q742 261 727 230T685 170T623 110T547 45L536 56L750 55L747 0H470V42Z" />
<glyph unicode="&#xbe;" horiz-adv-x="818" d="M143 271Q109 271 77 280T24 300L39 349Q59 341 86 334T139 327Q187 327 210 347T233 397Q233 421 219 438T181 463T130 472H95L97 523H130Q149 523 170 529T206 550T221 589Q221 614 202 630T145 646Q120 646 97
640T56 625L43 673Q65 684 95 692T160 701Q217 701 252 674T287 601Q287 565 267 539T202 499V498Q244 492 273 463T302 391Q302 357 283 330T228 287T143 271ZM632 696L233 0H169L567 696H632ZM677 0V263L679 354L678 355L645 303L548 161V160H800L796 107H483V154L661
418H744V0H677Z" />
<glyph unicode="&#xbf;" horiz-adv-x="424" d="M226 -219Q170 -219 128 -199T63 -144T40 -61Q40 -14 56 22T95 89T141 147T180 205T196 274Q196 281 196 288T195 302H271Q273 292 274 280T275 258Q275 221 260 190T224 130T180 76T144 20T129 -45Q129 -92 161
-118T246 -144Q270 -144 293 -139T341 -126L347 -196Q319 -207 289 -213T226 -219ZM232 402Q206 402 187 420T168 466Q168 494 187 512T232 531Q259 531 277 513T296 466Q296 438 278 420T232 402Z" />
<glyph unicode="&#xc0;" horiz-adv-x="614" d="M253 728H364L597 0H504L361 485L309 650H308L256 485L112 0H19L253 728ZM193 296H424L441 225H176L193 296ZM280 772L174 898H255L339 772H280Z" />
<glyph unicode="&#xc1;" horiz-adv-x="614" d="M253 728H364L597 0H504L361 485L309 650H308L256 485L112 0H19L253 728ZM193 296H424L441 225H176L193 296ZM278 772L360 898H441L337 772H278Z" />
<glyph unicode="&#xc2;" horiz-adv-x="614" d="M253 728H364L597 0H504L361 485L309 650H308L256 485L112 0H19L253 728ZM193 296H424L441 225H176L193 296ZM156 772L263 898H351L461 772H389L308 868L227 772H156Z" />
<glyph unicode="&#xc3;" horiz-adv-x="614" d="M253 728H364L597 0H504L361 485L309 650H308L256 485L112 0H19L253 728ZM193 296H424L441 225H176L193 296ZM425 882L467 872Q454 828 430 805T376 782Q355 782 337 791T301 814T269 836T241 846Q227 846 215 833T192
791L151 801Q164 844 187 867T241 890Q262 890 280 881T316 859T347 836T376 826Q390 826 402 839T425 882Z" />
<glyph unicode="&#xc4;" horiz-adv-x="614" d="M253 728H364L597 0H504L361 485L309 650H308L256 485L112 0H19L253 728ZM193 296H424L441 225H176L193 296ZM218 783Q197 783 183 797T169 831Q169 851 183 864T218 878Q239 878 253 864T267 831Q267 811 253 797T218
783ZM399 783Q378 783 364 797T350 831Q350 851 364 864T399 878Q420 878 434 865T448 831Q448 811 434 797T399 783Z" />
<glyph unicode="&#xc5;" horiz-adv-x="614" d="M253 728H364L597 0H504L361 485L309 650H308L256 485L112 0H19L253 728ZM193 296H424L441 225H176L193 296ZM308 715Q281 715 259 728T223 765T209 815Q209 843 222 865T258 900T308 914Q336 914 358 901T394 865T408
815Q408 788 395 765T359 729T308 715ZM308 748Q336 748 355 767T374 815Q374 842 355 861T308 880Q281 880 262 861T242 815Q242 787 261 768T308 748Z" />
<glyph unicode="&#xc6;" horiz-adv-x="809" d="M328 728H440L413 650H383L112 0H19L328 728ZM209 296H396L409 225H192L209 296ZM388 728H755L751 653H478V415H729L724 339H478V75H770L764 0H388V728Z" />
<glyph unicode="&#xc7;" horiz-adv-x="595" d="M381 -12Q296 -12 231 16T124 96T60 214T39 359Q39 470 80 556T199 691T386 740Q441 740 487 730T561 707L549 634Q518 646 477 655T391 664Q310 664 252 627T164 521T133 362Q133 274 162 207T250 102T392 64Q434
64 475 72T550 95L560 22Q526 6 479 -3T381 -12ZM346 -236Q323 -236 299 -232T252 -222L267 -190Q287 -195 307 -197T345 -200Q390 -200 414 -183T438 -139Q438 -116 422 -105T379 -94T322 -105L304 -86L345 0H384L349 -72Q387 -63 418 -68T467 -90T486 -138Q486
-183 448 -209T346 -236Z" />
<glyph unicode="&#xc8;" horiz-adv-x="517" d="M72 728H463L458 653H162V415H437L432 339H162V75H478L472 0H72V728ZM248 772L142 898H223L307 772H248Z" />
<glyph unicode="&#xc9;" horiz-adv-x="517" d="M72 728H463L458 653H162V415H437L432 339H162V75H478L472 0H72V728ZM246 772L328 898H409L305 772H246Z" />
<glyph unicode="&#xca;" horiz-adv-x="517" d="M72 728H463L458 653H162V415H437L432 339H162V75H478L472 0H72V728ZM125 772L232 898H320L430 772H358L277 868L196 772H125Z" />
<glyph unicode="&#xcb;" horiz-adv-x="517" d="M72 728H463L458 653H162V415H437L432 339H162V75H478L472 0H72V728ZM186 783Q165 783 151 797T137 831Q137 851 151 864T186 878Q207 878 221 864T235 831Q235 811 221 797T186 783ZM367 783Q346 783 332 797T318
831Q318 851 332 864T367 878Q388 878 402 865T416 831Q416 811 402 797T367 783Z" />
<glyph unicode="&#xcc;" horiz-adv-x="235" d="M72 728H162V0H72V728ZM344 772L238 898H319L403 772H344Z" />
<glyph unicode="&#xcd;" horiz-adv-x="235" d="M72 728H162V0H72V728ZM86 772L168 898H249L145 772H86Z" />
<glyph unicode="&#xce;" horiz-adv-x="235" d="M72 728H162V0H72V728ZM220 772L327 898H415L525 772H453L372 868L291 772H220Z" />
<glyph unicode="&#xcf;" horiz-adv-x="235" d="M72 728H162V0H72V728ZM282 783Q261 783 247 797T233 831Q233 851 247 864T282 878Q303 878 317 864T331 831Q331 811 317 797T282 783ZM463 783Q442 783 428 797T414 831Q414 851 428 864T463 878Q484 878 498 865T512
831Q512 811 498 797T463 783Z" />
<glyph unicode="&#xd0;" horiz-adv-x="677" d="M235 -3Q188 -3 150 -2T75 1V723Q120 728 169 729T261 731Q388 731 471 688T596 566T638 376Q638 254 593 170T458 41T235 -3ZM249 71Q344 71 409 104T509 206T543 374Q543 462 513 525T420 623T264 658Q241 658
215 657T165 653V72Q184 71 203 71T249 71ZM5 327L10 402H328L323 327H5Z" />
<glyph unicode="&#xd1;" horiz-adv-x="665" d="M72 728H174Q263 575 345 432T509 136H511L507 389V728H592V0H497Q441 96 394 178T306 333T228 470T155 599H153L157 345V0H72V728ZM455 882L497 872Q484 828 460 805T406 782Q385 782 367 791T331 814T299 836T271
846Q257 846 245 833T222 791L181 801Q194 844 217 867T271 890Q292 890 310 881T346 859T377 836T406 826Q420 826 432 839T455 882Z" />
<glyph unicode="&#xd2;" horiz-adv-x="703" d="M352 -12Q279 -12 221 15T123 93T61 213T39 364Q39 446 60 515T122 634T221 712T352 740Q424 740 482 713T580 635T642 515T664 364Q664 282 643 213T581 94T482 16T352 -12ZM352 64Q407 64 448 87T516 152T556 247T570
364Q570 426 557 480T516 576T448 640T352 664Q297 664 256 641T187 576T147 481T134 364Q134 302 147 248T187 152T255 88T352 64ZM323 772L217 898H298L382 772H323Z" />
<glyph unicode="&#xd3;" horiz-adv-x="703" d="M352 -12Q279 -12 221 15T123 93T61 213T39 364Q39 446 60 515T122 634T221 712T352 740Q424 740 482 713T580 635T642 515T664 364Q664 282 643 213T581 94T482 16T352 -12ZM352 64Q407 64 448 87T516 152T556 247T570
364Q570 426 557 480T516 576T448 640T352 664Q297 664 256 641T187 576T147 481T134 364Q134 302 147 248T187 152T255 88T352 64ZM321 772L403 898H484L380 772H321Z" />
<glyph unicode="&#xd4;" horiz-adv-x="703" d="M352 -12Q279 -12 221 15T123 93T61 213T39 364Q39 446 60 515T122 634T221 712T352 740Q424 740 482 713T580 635T642 515T664 364Q664 282 643 213T581 94T482 16T352 -12ZM352 64Q407 64 448 87T516 152T556 247T570
364Q570 426 557 480T516 576T448 640T352 664Q297 664 256 641T187 576T147 481T134 364Q134 302 147 248T187 152T255 88T352 64ZM200 772L307 898H395L505 772H433L352 868L271 772H200Z" />
<glyph unicode="&#xd5;" horiz-adv-x="703" d="M352 -12Q279 -12 221 15T123 93T61 213T39 364Q39 446 60 515T122 634T221 712T352 740Q424 740 482 713T580 635T642 515T664 364Q664 282 643 213T581 94T482 16T352 -12ZM352 64Q407 64 448 87T516 152T556 247T570
364Q570 426 557 480T516 576T448 640T352 664Q297 664 256 641T187 576T147 481T134 364Q134 302 147 248T187 152T255 88T352 64ZM468 882L510 872Q497 828 473 805T419 782Q398 782 380 791T344 814T312 836T284 846Q270 846 258 833T235 791L194 801Q207 844
230 867T284 890Q305 890 323 881T359 859T390 836T419 826Q433 826 445 839T468 882Z" />
<glyph unicode="&#xd6;" horiz-adv-x="703" d="M352 -12Q279 -12 221 15T123 93T61 213T39 364Q39 446 60 515T122 634T221 712T352 740Q424 740 482 713T580 635T642 515T664 364Q664 282 643 213T581 94T482 16T352 -12ZM352 64Q407 64 448 87T516 152T556 247T570
364Q570 426 557 480T516 576T448 640T352 664Q297 664 256 641T187 576T147 481T134 364Q134 302 147 248T187 152T255 88T352 64ZM261 783Q240 783 226 797T212 831Q212 851 226 864T261 878Q282 878 296 864T310 831Q310 811 296 797T261 783ZM442 783Q421 783
407 797T393 831Q393 851 407 864T442 878Q463 878 477 865T491 831Q491 811 477 797T442 783Z" />
<glyph unicode="&#xd7;" horiz-adv-x="576" d="M451 120L91 480L131 520L491 160L451 120ZM91 160L451 520L491 480L131 120L91 160Z" />
<glyph unicode="&#xd8;" horiz-adv-x="703" d="M352 -11Q279 -11 221 16T123 94T61 214T39 364Q39 446 60 514T122 633T221 711T352 739Q424 739 482 712T580 634T642 515T664 364Q664 283 643 214T581 95T482 17T352 -11ZM352 65Q407 65 448 88T516 152T556 248T570
364Q570 426 557 480T516 575T448 640T352 663Q297 663 256 640T187 576T147 480T134 364Q134 302 147 248T187 153T255 88T352 65ZM164 -47L111 -23L539 775L592 751L164 -47Z" />
<glyph unicode="&#xd9;" horiz-adv-x="652" d="M326 -12Q248 -12 190 19T100 114T68 275V728H158V270Q158 170 201 116T326 62Q407 62 450 116T494 270V728H584V275Q584 178 553 115T463 20T326 -12ZM297 770L191 896H272L356 770H297Z" />
<glyph unicode="&#xda;" horiz-adv-x="652" d="M326 -12Q248 -12 190 19T100 114T68 275V728H158V270Q158 170 201 116T326 62Q407 62 450 116T494 270V728H584V275Q584 178 553 115T463 20T326 -12ZM295 772L377 898H458L354 772H295Z" />
<glyph unicode="&#xdb;" horiz-adv-x="652" d="M326 -12Q248 -12 190 19T100 114T68 275V728H158V270Q158 170 201 116T326 62Q407 62 450 116T494 270V728H584V275Q584 178 553 115T463 20T326 -12ZM174 772L281 898H369L479 772H407L326 868L245 772H174Z" />
<glyph unicode="&#xdc;" horiz-adv-x="652" d="M326 -12Q248 -12 190 19T100 114T68 275V728H158V270Q158 170 201 116T326 62Q407 62 450 116T494 270V728H584V275Q584 178 553 115T463 20T326 -12ZM236 783Q215 783 201 797T187 831Q187 851 201 864T236 878Q257
878 271 864T285 831Q285 811 271 797T236 783ZM417 783Q396 783 382 797T368 831Q368 851 382 864T417 878Q438 878 452 865T466 831Q466 811 452 797T417 783Z" />
<glyph unicode="&#xdd;" horiz-adv-x="565" d="M238 295L9 728H108L202 536L282 361H284L364 536L458 728H557L328 295V0H238V295ZM252 772L334 898H415L311 772H252Z" />
<glyph unicode="&#xde;" horiz-adv-x="558" d="M72 728H160V580Q182 581 208 582T268 584Q352 584 407 559T490 489T517 383Q517 312 487 263T398 187T250 161Q222 161 201 162T160 165V0H72V728ZM241 233Q338 233 382 271T427 378Q427 451 380 481T252 512Q225
512 202 511T160 507V238Q180 236 199 235T241 233Z" />
<glyph unicode="&#xdf;" horiz-adv-x="603" d="M368 -11Q332 -11 297 -3T232 20L244 84Q268 74 297 66T358 58Q411 58 442 82T473 144Q473 174 455 196T410 238T356 280T310 330T292 399Q292 437 309 472T358 541T431 604L418 585Q418 642 386 678T295 714Q249
714 223 694T185 642T170 571T167 494V0H78V487Q78 528 82 570T98 650T134 719T196 766T293 784Q357 784 402 760T471 694T497 594Q447 556 413 510T379 415Q379 383 397 359T442 313T497 270T542 217T560 145Q560 96 535 61T466 8T368 -11Z" />
<glyph unicode="&#xe0;" horiz-adv-x="508" d="M190 -11Q144 -11 110 8T56 60T37 136Q37 181 54 209T101 252T167 272T240 278H350V341Q350 366 347 387T333 425T300 451T240 461Q199 461 160 451T87 427L72 491Q99 503 129 512T192 526T254 531Q314 531 351 517T407
477T432 417T439 344V128Q439 99 440 64T443 0H377L359 80H357Q332 40 289 15T190 -11ZM218 52Q263 52 301 76T352 141V227H252Q232 227 210 225T167 216T135 190T123 141Q123 99 149 76T218 52ZM230 583L127 725H205L289 583H230Z" />
<glyph unicode="&#xe1;" horiz-adv-x="508" d="M190 -11Q144 -11 110 8T56 60T37 136Q37 181 54 209T101 252T167 272T240 278H350V341Q350 366 347 387T333 425T300 451T240 461Q199 461 160 451T87 427L72 491Q99 503 129 512T192 526T254 531Q314 531 351 517T407
477T432 417T439 344V128Q439 99 440 64T443 0H377L359 80H357Q332 40 289 15T190 -11ZM218 52Q263 52 301 76T352 141V227H252Q232 227 210 225T167 216T135 190T123 141Q123 99 149 76T218 52ZM231 583L315 725H394L290 583H231Z" />
<glyph unicode="&#xe2;" horiz-adv-x="508" d="M190 -11Q144 -11 110 8T56 60T37 136Q37 181 54 209T101 252T167 272T240 278H350V341Q350 366 347 387T333 425T300 451T240 461Q199 461 160 451T87 427L72 491Q99 503 129 512T192 526T254 531Q314 531 351 517T407
477T432 417T439 344V128Q439 99 440 64T443 0H377L359 80H357Q332 40 289 15T190 -11ZM218 52Q263 52 301 76T352 141V227H252Q232 227 210 225T167 216T135 190T123 141Q123 99 149 76T218 52ZM108 583L215 726H303L413 583H341L260 696L179 583H108Z" />
<glyph unicode="&#xe3;" horiz-adv-x="508" d="M190 -11Q144 -11 110 8T56 60T37 136Q37 181 54 209T101 252T167 272T240 278H350V341Q350 366 347 387T333 425T300 451T240 461Q199 461 160 451T87 427L72 491Q99 503 129 512T192 526T254 531Q314 531 351 517T407
477T432 417T439 344V128Q439 99 440 64T443 0H377L359 80H357Q332 40 289 15T190 -11ZM218 52Q263 52 301 76T352 141V227H252Q232 227 210 225T167 216T135 190T123 141Q123 99 149 76T218 52ZM380 705L426 693Q412 647 387 623T330 599Q309 599 290 609T253
632T220 655T192 665Q177 665 165 652T142 608L96 619Q109 664 134 688T192 713Q213 713 232 703T268 680T301 657T330 647Q344 647 356 661T380 705Z" />
<glyph unicode="&#xe4;" horiz-adv-x="508" d="M190 -11Q144 -11 110 8T56 60T37 136Q37 181 54 209T101 252T167 272T240 278H350V341Q350 366 347 387T333 425T300 451T240 461Q199 461 160 451T87 427L72 491Q99 503 129 512T192 526T254 531Q314 531 351 517T407
477T432 417T439 344V128Q439 99 440 64T443 0H377L359 80H357Q332 40 289 15T190 -11ZM218 52Q263 52 301 76T352 141V227H252Q232 227 210 225T167 216T135 190T123 141Q123 99 149 76T218 52ZM170 606Q149 606 135 619T121 653Q121 673 135 687T170 701Q191
701 205 687T219 653Q219 633 205 620T170 606ZM351 606Q330 606 316 619T302 653Q302 673 316 687T351 701Q372 701 386 687T400 653Q400 633 386 620T351 606Z" />
<glyph unicode="&#xe5;" horiz-adv-x="508" d="M190 -11Q144 -11 110 8T56 60T37 136Q37 181 54 209T101 252T167 272T240 278H350V341Q350 366 347 387T333 425T300 451T240 461Q199 461 160 451T87 427L72 491Q99 503 129 512T192 526T254 531Q314 531 351 517T407
477T432 417T439 344V128Q439 99 440 64T443 0H377L359 80H357Q332 40 289 15T190 -11ZM218 52Q263 52 301 76T352 141V227H252Q232 227 210 225T167 216T135 190T123 141Q123 99 149 76T218 52ZM260 793Q220 793 191 822T161 893Q161 920 174 942T210 978T260
992Q288 992 310 979T346 943T360 893Q360 865 347 843T311 807T260 793ZM260 826Q288 826 307 845T326 893Q326 920 307 939T260 958Q233 958 214 939T194 893Q194 865 213 846T260 826Z" />
<glyph unicode="&#xe6;" horiz-adv-x="831" d="M190 -11Q144 -11 110 7T56 59T37 136Q37 181 54 210T101 256T166 279T239 286H350V341Q350 366 347 387T333 425T300 451T240 461Q199 461 160 451T87 427L72 491Q99 503 129 512T192 526T254 531Q311 531 345 517T396
477T418 417T424 344V223Q403 150 378 104T322 33T259 -1T190 -11ZM215 51Q247 51 275 65T323 111T352 196V235H253Q233 235 211 232T168 219T136 191T123 141Q123 98 148 75T215 51ZM604 -11Q519 -11 464 23T381 118T353 258Q353 311 367 360T411 447T485 508T589
531Q647 531 688 510T753 449T786 356T788 238H400L445 272Q437 225 443 186T471 118T529 73T616 57Q659 57 696 66T758 84L769 21Q739 8 695 -1T604 -11ZM402 289H709Q710 300 710 305T710 313Q710 360 697 394T656 448T586 467Q537 467 504 439T454 365T441 265L402
289Z" />
<glyph unicode="&#xe7;" horiz-adv-x="481" d="M296 -11Q217 -11 160 21T71 114T39 259Q39 340 70 401T160 496T302 530Q337 530 375 523T443 502L432 435Q408 446 375 453T306 460Q249 460 210 435T150 364T130 261Q130 199 152 154T216 85T312 61Q352 61 386
69T441 85L450 19Q425 8 382 -1T296 -11ZM264 -236Q241 -236 217 -232T170 -222L185 -190Q205 -195 225 -197T263 -200Q308 -200 332 -183T356 -139Q356 -116 340 -105T297 -94T240 -105L222 -86L263 0H302L267 -72Q305 -63 336 -68T385 -90T404 -138Q404 -183
366 -209T264 -236Z" />
<glyph unicode="&#xe8;" horiz-adv-x="520" d="M293 -11Q208 -11 152 23T67 118T39 258Q39 316 55 365T101 451T176 510T277 531Q336 531 377 510T442 450T474 359T476 245H89L134 279Q123 214 138 165T195 87T304 58Q347 58 384 67T446 85L457 22Q427 9 383 -1T293
-11ZM90 297H397Q398 302 398 306T398 313Q398 360 384 394T343 448T274 467Q225 467 192 440T142 367T129 272L90 297ZM244 583L141 725H219L303 583H244Z" />
<glyph unicode="&#xe9;" horiz-adv-x="520" d="M293 -11Q208 -11 152 23T67 118T39 258Q39 316 55 365T101 451T176 510T277 531Q336 531 377 510T442 450T474 359T476 245H89L134 279Q123 214 138 165T195 87T304 58Q347 58 384 67T446 85L457 22Q427 9 383 -1T293
-11ZM90 297H397Q398 302 398 306T398 313Q398 360 384 394T343 448T274 467Q225 467 192 440T142 367T129 272L90 297ZM246 583L330 725H409L305 583H246Z" />
<glyph unicode="&#xea;" horiz-adv-x="520" d="M293 -11Q208 -11 152 23T67 118T39 258Q39 316 55 365T101 451T176 510T277 531Q336 531 377 510T442 450T474 359T476 245H89L134 279Q123 214 138 165T195 87T304 58Q347 58 384 67T446 85L457 22Q427 9 383 -1T293
-11ZM90 297H397Q398 302 398 306T398 313Q398 360 384 394T343 448T274 467Q225 467 192 440T142 367T129 272L90 297ZM123 583L230 726H318L428 583H356L275 696L194 583H123Z" />
<glyph unicode="&#xeb;" horiz-adv-x="520" d="M293 -11Q208 -11 152 23T67 118T39 258Q39 316 55 365T101 451T176 510T277 531Q336 531 377 510T442 450T474 359T476 245H89L134 279Q123 214 138 165T195 87T304 58Q347 58 384 67T446 85L457 22Q427 9 383 -1T293
-11ZM90 297H397Q398 302 398 306T398 313Q398 360 384 394T343 448T274 467Q225 467 192 440T142 367T129 272L90 297ZM184 606Q163 606 149 619T135 653Q135 673 149 687T184 701Q205 701 219 687T233 653Q233 633 219 620T184 606ZM365 606Q344 606 330 619T316
653Q316 673 330 687T365 701Q386 701 400 687T414 653Q414 633 400 620T365 606Z" />
<glyph unicode="&#xec;" horiz-adv-x="234" d="M72 0V520L161 524V0H72ZM349 848L285 990H362L406 848H349Z" />
<glyph unicode="&#xed;" horiz-adv-x="234" d="M72 0V520L161 524V0H72ZM339 848L383 990H460L396 848H339Z" />
<glyph unicode="&#xee;" horiz-adv-x="234" d="M72 0V520L161 524V0H72ZM264 847L338 990H404L481 847H426L372 960L319 847H264Z" />
<glyph unicode="&#xef;" horiz-adv-x="234" d="M72 0V520L161 524V0H72ZM297 606Q276 606 262 619T248 653Q248 673 262 687T297 701Q319 701 333 686T347 653Q347 633 333 620T297 606ZM448 606Q426 606 412 619T398 653Q398 673 412 687T448 701Q469 701 483
687T497 653Q497 633 483 620T448 606Z" />
<glyph unicode="&#xf0;" horiz-adv-x="541" d="M267 -10Q201 -10 150 19T69 102T40 227Q40 302 69 354T147 433T252 461Q293 461 327 447T389 399L391 401Q370 469 328 523T228 616T106 678L133 737Q214 710 281 665T397 558T472 423T499 265Q499 173 468 112T384
21T267 -10ZM269 57Q336 57 372 110T408 249Q408 294 392 328T345 381T271 401Q223 401 192 375T147 309T132 228Q132 180 148 142T196 80T269 57ZM145 503L117 547L407 725L436 682L145 503Z" />
<glyph unicode="&#xf1;" horiz-adv-x="572" d="M69 375Q69 418 69 453T67 520L146 523L151 445H154Q172 463 198 483T259 517T335 531Q368 531 398 519T452 482T489 418T503 322V0H413V318Q413 359 403 386T377 429T341 451T302 458Q270 458 243 446T195 417T159
383V0H69V375ZM411 705L457 693Q443 647 418 623T361 599Q340 599 321 609T284 632T251 655T223 665Q208 665 196 652T173 608L127 619Q140 664 165 688T223 713Q244 713 263 703T299 680T332 657T361 647Q375 647 387 661T411 705Z" />
<glyph unicode="&#xf2;" horiz-adv-x="569" d="M285 -11Q235 -11 190 6T112 58T59 143T40 260Q40 326 59 377T111 462T190 513T285 531Q336 531 380 514T459 462T512 377T531 260Q531 194 512 143T459 58T381 7T285 -11ZM285 57Q324 57 353 72T401 115T429 180T439
260Q439 303 430 340T402 405T354 448T285 463Q246 463 217 448T169 405T141 340T132 260Q132 217 141 180T169 115T217 72T285 57ZM255 583L152 725H230L314 583H255Z" />
<glyph unicode="&#xf3;" horiz-adv-x="569" d="M285 -11Q235 -11 190 6T112 58T59 143T40 260Q40 326 59 377T111 462T190 513T285 531Q336 531 380 514T459 462T512 377T531 260Q531 194 512 143T459 58T381 7T285 -11ZM285 57Q324 57 353 72T401 115T429 180T439
260Q439 303 430 340T402 405T354 448T285 463Q246 463 217 448T169 405T141 340T132 260Q132 217 141 180T169 115T217 72T285 57ZM256 583L340 725H419L315 583H256Z" />
<glyph unicode="&#xf4;" horiz-adv-x="569" d="M285 -11Q235 -11 190 6T112 58T59 143T40 260Q40 326 59 377T111 462T190 513T285 531Q336 531 380 514T459 462T512 377T531 260Q531 194 512 143T459 58T381 7T285 -11ZM285 57Q324 57 353 72T401 115T429 180T439
260Q439 303 430 340T402 405T354 448T285 463Q246 463 217 448T169 405T141 340T132 260Q132 217 141 180T169 115T217 72T285 57ZM133 583L240 726H328L438 583H366L285 696L204 583H133Z" />
<glyph unicode="&#xf5;" horiz-adv-x="569" d="M285 -11Q235 -11 190 6T112 58T59 143T40 260Q40 326 59 377T111 462T190 513T285 531Q336 531 380 514T459 462T512 377T531 260Q531 194 512 143T459 58T381 7T285 -11ZM285 57Q324 57 353 72T401 115T429 180T439
260Q439 303 430 340T402 405T354 448T285 463Q246 463 217 448T169 405T141 340T132 260Q132 217 141 180T169 115T217 72T285 57ZM404 705L450 693Q436 647 411 623T354 599Q333 599 314 609T277 632T244 655T216 665Q201 665 189 652T166 608L120 619Q133 664
158 688T216 713Q237 713 256 703T292 680T325 657T354 647Q368 647 380 661T404 705Z" />
<glyph unicode="&#xf6;" horiz-adv-x="569" d="M285 -11Q235 -11 190 6T112 58T59 143T40 260Q40 326 59 377T111 462T190 513T285 531Q336 531 380 514T459 462T512 377T531 260Q531 194 512 143T459 58T381 7T285 -11ZM285 57Q324 57 353 72T401 115T429 180T439
260Q439 303 430 340T402 405T354 448T285 463Q246 463 217 448T169 405T141 340T132 260Q132 217 141 180T169 115T217 72T285 57ZM195 606Q174 606 160 619T146 653Q146 673 160 687T195 701Q216 701 230 687T244 653Q244 633 230 620T195 606ZM376 606Q355 606
341 619T327 653Q327 673 341 687T376 701Q397 701 411 687T425 653Q425 633 411 620T376 606Z" />
<glyph unicode="&#xf7;" horiz-adv-x="581" d="M55 348H525V292H55V348ZM290 84Q267 84 252 99T237 136Q237 157 252 172T290 188Q312 188 327 173T342 136Q342 114 327 99T290 84ZM290 452Q267 452 252 467T237 504Q237 527 252 541T290 556Q312 556 327 542T342
504Q342 483 327 468T290 452Z" />
<glyph unicode="&#xf8;" horiz-adv-x="567" d="M88 -27L448 566L481 548L121 -45L88 -27ZM285 -11Q235 -11 190 6T112 57T59 143T40 260Q40 327 59 377T111 462T190 514T285 531Q336 531 380 514T459 463T512 378T531 260Q531 194 512 143T459 58T381 6T285 -11ZM285
56Q324 56 353 71T401 114T429 179T439 260Q439 303 430 340T402 405T354 448T285 464Q246 464 217 449T169 406T141 341T132 260Q132 217 141 180T169 115T217 72T285 56Z" />
<glyph unicode="&#xf9;" horiz-adv-x="569" d="M237 -11Q181 -11 143 14T87 88T68 204V520H158V208Q158 138 184 100T270 62Q300 62 326 73T373 102T409 137V520H498V145Q498 102 498 67T501 0H436L417 79H415Q397 58 370 37T309 3T237 -11ZM253 583L150 725H228L312
583H253Z" />
<glyph unicode="&#xfa;" horiz-adv-x="569" d="M237 -11Q181 -11 143 14T87 88T68 204V520H158V208Q158 138 184 100T270 62Q300 62 326 73T373 102T409 137V520H498V145Q498 102 498 67T501 0H436L417 79H415Q397 58 370 37T309 3T237 -11ZM254 583L338 725H417L313
583H254Z" />
<glyph unicode="&#xfb;" horiz-adv-x="569" d="M237 -11Q181 -11 143 14T87 88T68 204V520H158V208Q158 138 184 100T270 62Q300 62 326 73T373 102T409 137V520H498V145Q498 102 498 67T501 0H436L417 79H415Q397 58 370 37T309 3T237 -11ZM131 583L238 726H326L436
583H364L283 696L202 583H131Z" />
<glyph unicode="&#xfc;" horiz-adv-x="569" d="M237 -11Q181 -11 143 14T87 88T68 204V520H158V208Q158 138 184 100T270 62Q300 62 326 73T373 102T409 137V520H498V145Q498 102 498 67T501 0H436L417 79H415Q397 58 370 37T309 3T237 -11ZM193 606Q172 606 158
619T144 653Q144 673 158 687T193 701Q214 701 228 687T242 653Q242 633 228 620T193 606ZM374 606Q353 606 339 619T325 653Q325 673 339 687T374 701Q395 701 409 687T423 653Q423 633 409 620T374 606Z" />
<glyph unicode="&#xfd;" horiz-adv-x="493" d="M212 9L242 67L388 520H483L203 -224H109L212 9ZM11 520H107L246 83H268L261 2H201L11 520ZM218 583L302 725H381L277 583H218Z" />
<glyph unicode="&#xfe;" horiz-adv-x="563" d="M70 -224V748L160 751V447H161Q185 478 228 504T324 531Q387 531 431 499T499 407T522 269Q522 185 495 123T421 25T313 -11Q277 -11 248 1T197 31T161 68H160V-224H70ZM290 61Q338 61 369 90T415 165T430 265Q430
324 415 367T370 434T294 458Q267 458 241 447T195 419T160 381V158Q168 135 185 113T229 76T290 61Z" />
<glyph unicode="&#xff;" horiz-adv-x="493" d="M212 9L242 67L388 520H483L203 -224H109L212 9ZM11 520H107L246 83H268L261 2H201L11 520ZM156 606Q135 606 121 619T107 653Q107 673 121 687T156 701Q177 701 191 687T205 653Q205 633 191 620T156 606ZM337 606Q316
606 302 619T288 653Q288 673 302 687T337 701Q358 701 372 687T386 653Q386 633 372 620T337 606Z" />
<glyph unicode="&#x2013;" horiz-adv-x="562" d="M49 308H513V247H49V308Z" />
<glyph unicode="&#x2014;" horiz-adv-x="921" d="M49 308H871V246H49V308Z" />
<glyph unicode="&#x2018;" horiz-adv-x="247" d="M68 500L139 760L204 750L160 500H68Z" />
<glyph unicode="&#x2019;" horiz-adv-x="247" d="M108 500L43 509L88 760H180L108 500Z" />
<glyph unicode="&#x201a;" horiz-adv-x="247" d="M43 -127L88 123H180L108 -137L43 -127Z" />
<glyph unicode="&#x201c;" horiz-adv-x="447" d="M268 500L339 760L404 750L359 500H268ZM68 500L139 760L204 750L160 500H68Z" />
<glyph unicode="&#x201d;" horiz-adv-x="447" d="M308 500L243 509L288 760H380L308 500ZM108 500L43 509L88 760H180L108 500Z" />
<glyph unicode="&#x201e;" horiz-adv-x="447" d="M308 -137L243 -127L288 123H380L308 -137ZM108 -137L43 -127L88 123H180L108 -137Z" />
<glyph unicode="&#x2022;" horiz-adv-x="314" d="M157 178Q128 178 106 191T70 228T56 280Q56 309 69 332T105 368T157 382Q185 382 208 369T245 332T258 280Q258 251 245 228T209 192T157 178Z" />
<glyph unicode="&#x2039;" horiz-adv-x="393" d="M306 46L56 261V319L306 534V457L93 271V309L306 123V46Z" />
<glyph unicode="&#x203a;" horiz-adv-x="393" d="M87 46V123L299 309V271L87 457V534L336 319V261L87 46Z" />
</font>
</defs>
</svg>
