<?xml version="1.0" standalone="no"?>
<!DOCTYPE svg PUBLIC "-//W3C//DTD SVG 1.1//EN" "http://www.w3.org/Graphics/SVG/1.1/DTD/svg11.dtd">
<svg xmlns="http://www.w3.org/2000/svg">
<defs >
<font id="Smooch" horiz-adv-x="556" ><font-face
    font-family="Smooch"
    units-per-em="1000"
    panose-1="0 0 0 0 0 0 0 0 0 0"
    ascent="950"
    descent="-450"
    alphabetic="0" />
<glyph unicode=" " glyph-name="space" horiz-adv-x="171" />
<glyph unicode="!" glyph-name="exclam" horiz-adv-x="227" d="M125 168Q144 200 171 251T230 362T293 478T348 574Q355 586 367 591T392 596Q411 596 426 587T437 564Q429 539 406 510T356 447Q349 438 349 437T350 435Q345 429 341 423T331 411Q310 385 290
360T256 316Q253 312 246 302T234 286T232 283L275 333Q244 294 216 258T165 198T125 168ZM319 389L343 422Q348 430 349 432T350 435Q376 468 398 498T429 544Q432 549 433 549Q434 549 430 539T421 523Q409 506 385 474T331 404L319 389ZM290 352L319 389Q312
379 305 370T290 352ZM81 -7Q70 -2 58 10T37 35T28 59Q28 71 40 71Q47 71 55 70T73 68Q85 68 101 71T135 75Q143 75 151 74T167 69Q172 67 166 58T147 39T122 19T102 5Q109 6 122 15T146 34Q129 13 108 2T81 -7Z" />
<glyph unicode="&quot;" glyph-name="quotedbl" horiz-adv-x="368" d="M181 367Q188 384 200 411T226 469T253 529T276 580Q279 588 289 588Q302 588 318 577T336 554Q335 538 325 522T301 488Q297 484 297 484T299 481L290 471Q280 458 270 447T252 428Q250 425
245 417T241 411Q252 421 263 433T284 457Q260 423 234 397T181 367ZM317 367Q324 384 336 411T362 469T389 529T412 580Q415 588 425 588Q438 588 454 577T471 554Q471 538 461 522T436 488Q433 484 433 484T435 481L425 471Q415 458 405 447T388 428Q386 425
381 417T377 411Q388 421 399 433T420 457Q396 423 370 397T317 367ZM286 459Q289 463 291 466T296 474Q299 479 299 481Q312 496 322 510T337 532L338 534Q339 534 339 531Q339 525 336 519Q330 511 319 497T292 465L286 459ZM421 458L432 474Q435 479 435 481Q448
496 458 510T472 532Q473 534 474 534Q475 534 475 531Q475 525 472 519Q466 511 455 497T428 465L421 458Z" />
<glyph unicode="#" glyph-name="numbersign" horiz-adv-x="878" d="M191 37Q177 37 168 44T162 59Q163 60 175 74T204 108T234 143T251 162Q258 169 269 178T290 200L307 220Q255 220 209 220T128 219Q125 218 123 218T119 217Q110 217 110 227Q110 236 116 249T132
274H134Q138 286 149 286Q156 286 164 284T180 280Q193 279 208 280T228 286Q233 291 235 291Q237 291 237 283Q237 276 229 268Q258 267 286 266T344 263L419 351Q370 350 325 349T247 348T203 347Q199 345 193 345Q184 345 184 355Q184 364 190 377T206 401H208Q212
413 223 413Q230 413 238 411T254 408Q257 408 260 408T268 407Q279 407 289 409T302 414Q306 418 308 418Q311 418 311 410Q311 403 303 395Q377 391 453 389Q468 406 485 427T519 469T543 505Q550 516 561 520T591 525Q615 527 624 524T632 516Q631 512 620 501T595
477T571 453T559 442L509 387Q541 387 573 387T637 386Q652 403 670 425T705 468T730 505Q737 516 748 520T778 525H790Q823 525 818 516Q816 511 808 502T791 485T781 476Q774 468 750 442T698 387Q784 389 866 393H875Q890 393 890 389Q890 383 866 378Q844 372
794 367T670 357Q656 343 645 331T628 312L589 259Q640 260 691 261T792 266H801Q816 266 816 262Q816 256 792 251Q755 241 695 235T564 225Q552 209 543 197T529 180Q537 194 545 204T560 225H556Q541 208 523 184T486 136T454 93T434 68Q424 57 407 52T375 46Q362
46 355 49T349 59Q349 60 361 74T391 108T421 143T438 162Q448 172 463 189T494 223L372 220Q361 206 351 194T335 176Q342 187 351 198T370 220H366Q350 202 331 177T292 126T257 82T236 57Q225 46 214 42T191 37ZM530 259L608 354Q580 353 550 352T487 350Q486
350 477 340T456 318T436 295T425 285Q424 285 432 295T452 318T471 342T479 352H478L441 312Q438 308 428 294T403 261Q435 260 466 260T530 259ZM387 91Q401 107 433 143T500 223H496Q479 202 458 176T417 126T387 91ZM214 114L278 186Q259 166 241 147T214 114Z"
/>
<glyph unicode="$" glyph-name="dollar" horiz-adv-x="377" d="M-43 -100Q-58 -100 -67 -86T-73 -59Q-72 -57 -65 -46T-48 -21T-30 5T-18 22L19 72Q6 76 -3 83T-12 102Q-12 117 1 130T35 155T74 173T104 181H107Q117 181 119 178T113 174Q110 173 99 164T75 142T53
116T43 94Q43 88 50 88Q62 88 86 101T136 134T181 176T200 217Q200 235 183 245T142 264T93 281T51 304T34 344Q34 379 54 410L52 408L55 412Q72 438 99 459T158 499Q108 469 65 423Q85 444 111 463T156 493Q203 519 244 529T306 540Q310 540 310 542Q310 546 298
546Q295 546 291 546T281 545Q291 563 299 579T314 609Q321 626 332 631T362 640Q367 641 370 641T377 641Q401 641 401 630Q401 623 394 614T379 599T370 590Q366 585 359 574T340 546Q362 542 378 525T395 473Q395 456 373 435T318 394T256 361T209 348Q206 348
203 349T199 354Q199 360 219 371T265 398T313 429T339 462Q342 477 309 477Q284 477 246 468T171 441T108 400T83 347Q83 332 101 321T146 300T200 277T245 246T264 199Q264 174 247 152T206 111Q215 120 225 133Q218 129 210 121Q182 93 149 81T102 65Q123 67
151 79T206 111Q192 97 180 91T154 80Q124 67 107 62Q102 61 100 62T100 65H78Q53 28 32 -5T0 -59Q-11 -81 -22 -90T-43 -100ZM161 500Q180 511 196 519T226 531Q241 535 255 539T281 545L280 543Q253 538 222 528T161 500ZM46 400L50 406Q48 402 46 400ZM-31 -8Q-10
23 4 42T25 70Q24 70 23 70T20 71Q10 56 -3 36T-31 -8Z" />
<glyph unicode="%" glyph-name="percent" horiz-adv-x="605" d="M236 349Q230 349 213 355T186 371Q179 379 172 394T164 423Q164 428 166 434Q189 485 236 522T350 580Q363 578 375 563T391 533Q394 539 394 543V545Q394 553 390 554T386 560Q387 565 396 565Q399
565 401 565T405 564Q415 563 421 553T427 533Q427 520 418 505T395 472Q386 461 375 450T351 427Q356 430 361 433T373 444Q377 448 385 456T399 473T406 480Q394 459 377 441T347 411T331 399Q306 377 281 363T236 349ZM115 -10Q93 -10 77 6T65 32Q65 33 74 45T98
75T127 111T153 142T167 158L270 261Q260 250 238 224T191 167T143 109T110 69Q124 84 151 115T211 184T275 258T329 320T359 354Q375 372 399 402T448 465T483 522Q490 535 501 538T531 542Q566 542 581 537T597 527Q597 521 589 514T571 503T561 496L375 277Q370
271 354 251T318 208T285 173Q302 195 309 205T322 223T339 244Q326 231 306 207T263 154T219 99T183 51T162 22Q152 5 140 -2T115 -10ZM213 374Q219 374 232 381T261 397Q272 404 286 415T316 441Q288 417 260 400T212 378Q225 382 252 398T307 439L370 496Q380
509 386 520Q383 522 380 525T371 530Q362 537 351 537Q346 537 340 535T327 528Q312 518 287 500T237 458T198 402Q197 400 197 395Q197 388 201 383T212 378L209 376Q209 374 213 374ZM322 447Q335 458 346 470T368 494Q355 481 344 469T322 447ZM395 39Q389
39 372 45T345 61Q338 69 331 84T323 113Q323 118 325 124Q348 175 395 212T509 270Q522 268 534 253T550 223Q552 226 552 228T553 234V236Q553 243 549 245T545 251Q547 256 553 256T564 255Q574 253 580 244T586 223Q586 210 577 195T554 162Q545 152 534 140T510
117Q515 120 520 123T532 134Q536 138 543 147T558 163T565 170Q553 149 536 131T506 102T490 89Q465 67 440 53T395 39ZM377 65Q385 68 396 74T420 87Q429 92 439 101T463 121Q438 101 413 87T371 68Q384 73 411 89T466 130Q479 142 497 158T528 185L530 188Q535
194 538 200T545 211Q538 214 530 221Q521 228 510 228Q505 228 499 226T486 219Q471 208 446 190T396 148T357 92Q356 90 356 84Q356 78 359 73T368 67V66Q368 61 377 65ZM481 137Q494 149 505 160T527 184Q514 171 503 159T481 137Z" />
<glyph unicode="&amp;" glyph-name="ampersand" horiz-adv-x="626" d="M210 -2Q199 -1 187 10T174 34Q174 46 178 43T182 44Q176 58 170 93T163 159Q163 189 172 201Q186 215 201 224T233 241Q219 237 205 229T178 211L177 210Q176 210 179 215T186 222Q208 236
228 244T264 256Q273 261 283 265T304 274Q294 276 276 282T240 299T208 324T195 355Q196 399 211 422T246 456T280 476Q297 486 314 495T351 514L300 493Q296 491 294 491T295 494Q318 505 348 516T401 536Q450 554 502 564T596 575Q642 575 664 562Q668 551 668
539Q668 523 662 514T652 499Q655 501 659 506T666 516Q669 521 670 524T673 532Q675 535 682 522T688 498Q685 485 673 470T645 442T616 422T597 416Q588 406 573 393T543 371T516 363Q509 364 504 378T499 406Q499 416 502 420Q504 425 516 440T544 463Q545 463
546 463T547 464Q548 464 548 463Q548 459 537 447Q534 444 527 436T517 420T521 412Q534 412 551 421T586 443T616 468Q632 483 632 492Q632 503 598 505Q549 505 483 493T348 448Q333 441 314 429T282 403T268 372Q268 353 295 336Q320 321 353 317T415 301Q423
298 416 285T397 258T380 243Q359 237 329 225T270 197T223 162T206 123Q219 104 246 104Q266 104 291 113T342 136L338 133Q329 127 318 118T309 110Q320 115 344 131T384 160L390 164Q378 157 366 150T342 136Q350 142 361 150T387 169Q392 173 408 185T446 214T485
244L461 246Q455 248 455 263Q455 266 455 269T456 275Q453 278 453 280Q453 291 456 295T464 299Q469 299 475 297T488 293H495Q504 293 513 294T523 299Q525 304 527 304Q528 304 530 296Q530 285 523 277Q541 275 559 273T585 271Q601 270 623 268T666 264T692
260Q703 259 703 255Q703 252 698 250T686 247Q685 247 665 247T628 248Q620 248 606 249T581 251T570 251Q575 249 588 248T617 245T642 242Q632 241 616 242T584 244Q579 244 574 244T563 242Q559 242 548 242T523 243L518 236Q491 201 451 161T365 85T273 29Q273
27 272 22T268 15Q258 5 240 1T210 -2ZM358 514Q402 530 447 541T533 559T599 564Q612 563 612 566T606 570Q574 572 524 564T415 536Q402 532 387 526T358 514ZM390 164Q422 185 451 206T500 244H490Q515 265 521 273L485 244H490Q470 227 443 205T390 164ZM244
245Q264 252 285 256T317 262Q321 262 321 264Q321 268 314 268Q307 268 299 265T277 259Q270 255 261 252T244 245Z" />
<glyph unicode="&apos;" glyph-name="quotesingle" horiz-adv-x="227" d="M181 367Q188 384 200 411T226 469T253 529T276 580Q279 588 289 588Q302 588 318 577T336 554Q335 538 325 522T301 488Q297 484 297 484T299 481L290 471Q280 458 270 447T252 428Q250
425 245 417T241 411Q252 421 263 433T284 457Q260 423 234 397T181 367ZM286 459Q289 463 291 466T296 474Q299 479 299 481Q312 496 322 510T337 532L338 534Q339 534 339 531Q339 525 336 519Q330 511 319 497T292 465L286 459Z" />
<glyph unicode="(" glyph-name="parenleft" horiz-adv-x="280" d="M49 -25Q15 -25 1 5T-14 81Q-14 129 0 185T38 285Q59 324 87 367T149 449T221 517Q249 538 288 555T362 578Q368 578 380 573T405 560T418 538Q418 521 401 517T369 507Q359 503 349 499T328 489Q328
490 327 490Q325 490 318 487T306 481Q299 477 283 464T247 433T210 400T182 373Q169 360 148 331T105 262L106 263Q162 342 216 401T328 489Q328 489 327 488T323 485Q276 451 239 418T171 347T111 261Q80 209 63 159T43 67Q45 115 62 166T105 261Q71 209 57 160T42
69Q42 47 46 26Q47 19 49 10Q53 -3 58 -15Q59 -16 59 -18Q59 -25 49 -25ZM43 46Q44 36 45 27T50 8Q50 8 50 8T49 10Q47 18 46 26Q44 37 43 46Z" />
<glyph unicode=")" glyph-name="parenright" horiz-adv-x="456" d="M67 -25Q62 -25 49 -20T25 -6T11 15Q11 32 28 36T60 46Q71 50 80 53T100 63H101Q109 63 123 72Q130 76 146 89T182 120T219 153T247 180Q260 193 281 222T324 291L323 290Q268 211 213 152T101
64Q101 64 102 65T106 68Q153 103 190 136T258 206T318 292Q349 344 367 393T386 485Q385 437 367 387T324 292Q358 345 372 393T387 484Q387 496 386 507Q386 508 386 509V507V507V506V507Q385 513 385 519L384 520V520Q382 532 378 545Q380 540 382 534Q378 552
371 568Q370 569 370 571Q370 578 380 578Q414 578 428 548T443 472Q443 424 429 368T391 268Q370 229 342 186T281 104T208 36Q180 15 141 -2T67 -25Z" />
<glyph unicode="*" glyph-name="asterisk" horiz-adv-x="455" d="M416 187Q394 194 358 230T286 309Q264 281 241 254T195 211T147 195L234 333H214Q206 333 205 334T204 337T198 338Q188 338 177 337T155 336Q139 336 124 338T98 346Q91 351 88 360T85 379Q85
393 91 405T111 415Q131 411 162 404T225 391Q224 394 224 396Q212 399 213 399L224 397V399Q224 400 224 401T220 407Q202 430 186 453T165 499Q164 515 177 528T203 541Q216 541 221 529Q232 509 247 474T279 406Q282 401 286 407Q302 435 318 463T345 509Q351
518 360 518Q374 518 388 502T399 469Q394 449 377 428T339 387Q382 384 419 382T469 377Q453 364 414 354T329 339L368 278Q361 280 350 297T330 324Q337 309 350 288T377 246T403 209T416 187Z" />
<glyph unicode="+" glyph-name="plus" horiz-adv-x="473" d="M190 51Q171 51 156 59T142 74Q142 76 149 86T166 107T177 122Q186 134 203 155T230 189Q235 199 242 212T248 225Q198 220 158 217T106 213Q103 210 101 210Q96 210 96 222Q96 240 104 266Q99 271
99 275Q101 290 105 295T115 300Q121 300 127 298T141 294Q152 293 166 295T183 303Q186 309 189 309Q190 309 190 304Q190 287 180 274Q193 273 206 272T234 270L241 269H289Q299 283 312 304T337 348T354 386Q358 401 383 401Q397 401 411 402T437 403Q454 403
454 399Q453 392 443 386T432 378Q429 373 418 356T392 317T364 273Q404 276 441 280T504 287T533 290Q536 291 541 291Q547 291 547 287Q547 280 533 271Q523 265 494 259T424 246T338 235L328 219Q325 214 316 200T297 169T278 143Q288 159 291 166T298 179T307
195Q296 179 280 155T250 109T232 77Q226 62 215 57T190 51ZM246 208L257 223Q255 221 252 217T246 208ZM169 100Q177 113 193 135T226 180H225L228 186Q215 169 197 143T169 100Z" />
<glyph unicode="," glyph-name="comma" horiz-adv-x="234" d="M-19 -118Q10 -100 54 -43T138 93Q144 100 155 100Q167 100 180 94T202 78T209 59Q204 42 189 29T154 0Q147 -5 149 -5T149 -9Q169 6 185 22T208 48Q213 56 211 47T188 17Q180 8 170 0T137 -24L125
-34L145 -15L148 -10L133 -22Q117 -33 94 -53T53 -81Q49 -83 41 -91T36 -98Q55 -87 80 -68T125 -34Q88 -68 50 -92T-19 -118Z" />
<glyph unicode="-" glyph-name="hyphen" horiz-adv-x="552" d="M189 225Q178 226 178 241Q178 249 180 258T187 279Q182 282 182 288Q184 302 188 307T199 312Q206 312 214 309T230 306Q241 306 252 308T266 315Q270 322 272 322Q274 322 273 311Q273 304 270
298T261 284Q274 283 287 283T314 282Q397 282 484 299Q486 299 488 299T491 300Q500 300 500 293Q500 286 490 276T467 260Q400 236 336 231T231 225H189Z" />
<glyph unicode="." glyph-name="period" horiz-adv-x="260" d="M150 -7Q139 -2 127 10T106 35T97 59Q97 71 109 71Q116 71 124 70T142 68Q153 68 167 76T195 85Q203 85 210 80T224 60Q227 53 218 42T194 21T171 5Q178 6 191 15T215 34Q198 13 177 2T150 -7Z" />
<glyph unicode="/" glyph-name="slash" horiz-adv-x="477" d="M134 -17Q117 -17 103 -9T80 12T74 32Q75 34 86 48T115 83T149 125T180 161T197 180Q209 192 227 210T265 247T300 282T322 303Q314 295 296 273T253 223T204 166T159 112T128 75Q142 90 167 118T223
181T288 254T350 323T399 379T426 409Q404 390 403 390Q400 390 414 407T452 452T501 510T547 566T575 606Q583 621 597 625T633 630Q675 630 693 624T711 612Q711 604 701 597T680 584T667 576Q660 567 639 543T590 486T532 420T480 359T445 319Q440 313 428 298T399
264T366 227T337 197Q358 222 366 234T382 255T402 281Q387 265 363 237T312 176T259 110T215 54T190 20Q178 0 163 -8T134 -17Z" />
<glyph unicode="0" glyph-name="zero" horiz-adv-x="483" d="M144 3Q125 2 112 11T84 36Q63 34 49 46T27 80T20 122Q20 133 22 142T27 160Q125 408 410 554Q436 554 469 547T522 521Q540 521 555 510T568 476Q564 447 545 408T499 325T443 244T391 178Q404 189
423 211T459 257Q464 264 474 278T495 309T514 339T525 355Q507 316 484 280T437 215T399 169T380 148Q340 105 296 72T211 21T144 3ZM122 34Q128 34 146 44T187 71T233 105Q277 140 335 216T472 392Q464 383 455 373T436 349Q465 392 484 429T506 491Q506 495
506 497T504 502Q496 509 487 513Q484 515 478 515Q461 515 433 495T371 453Q326 422 271 373T166 255T86 98Q85 95 85 93T84 87Q84 68 97 51T126 40Q120 37 120 35Q120 34 122 34ZM131 42Q150 53 182 78T253 139T333 221Q355 245 382 280T434 346Q402 300 362
252T279 162T199 88T131 42Z" />
<glyph unicode="1" glyph-name="one" horiz-adv-x="286" d="M61 -21Q29 -20 17 5T5 58Q5 91 20 125T58 193T103 258Q156 332 198 386T274 481Q263 475 237 457T181 415T124 374T84 352Q83 352 82 352T80 351Q76 351 76 355Q76 360 79 366T86 375Q100 385 131 408T200
460T274 516T336 561T367 579Q376 579 389 573T412 557T422 538Q422 529 420 522T408 503T377 467L353 440Q363 452 369 458T374 464Q359 455 336 431T292 380Q272 357 243 322T183 246T123 164T77 85T58 19Q59 27 63 38Q57 17 57 -1Q57 -14 61 -21ZM70 57Q79 80
89 102T111 142Q152 206 209 273T320 403Q306 386 292 368T265 333Q261 327 244 307T202 256T153 192T105 122T70 57Z" />
<glyph unicode="2" glyph-name="two" horiz-adv-x="440" d="M29 -14Q20 -14 11 -2T-5 27T-12 54Q-12 68 5 81T68 120Q119 149 182 189T307 276T414 374Q440 403 456 431T473 479Q473 509 433 509Q406 509 363 496Q318 482 277 457T210 408T180 370Q180 336 164
336Q155 336 145 346T127 373T119 406Q119 415 122 424Q128 441 152 466T213 515T293 555T381 572Q403 572 428 561T476 532T513 490T528 440Q528 424 520 403Q523 412 523 421Q505 378 470 339T393 265T313 206T251 166Q235 156 210 141T159 110Q224 145 281 180T383
251L353 225Q359 229 376 241T409 265T430 279Q417 267 389 247T326 204T256 160Q220 138 192 125T143 101L159 110L136 98L133 96L143 101Q127 92 115 85T94 74Q125 79 156 82T219 85Q248 85 288 82T356 71Q359 70 375 67T400 59Q393 61 386 62T382 62Q388 58
394 52T398 41Q392 43 391 43Q387 43 384 41T375 39L360 38Q332 38 307 38T256 39Q208 39 163 33T68 3Q58 -2 48 -8T29 -14ZM517 395L519 401Q519 399 517 395ZM502 370L506 376Q504 372 502 370ZM400 266Q426 288 453 314T498 365L499 366L501 369Q500 367 499
366Q499 366 499 366T498 365Q464 317 400 266Z" />
<glyph unicode="3" glyph-name="three" horiz-adv-x="465" d="M110 -4Q62 -4 31 18T0 76Q0 95 5 103T16 112Q28 112 32 96Q39 75 55 66T93 57Q128 57 172 75T251 113Q301 142 324 164T347 202Q347 226 301 237T178 248Q168 250 161 263T153 289Q168 291 197 300T264
325T336 355T399 385T438 406Q461 422 476 442T491 479Q491 492 480 500T445 509Q417 509 372 496Q329 483 296 462T240 422Q257 439 274 451T300 467Q290 465 276 455T249 434T226 413T215 403Q192 382 189 370Q189 336 173 336Q164 336 154 346T136 373T128 406Q128
415 131 424Q137 441 161 466T222 515T302 555T390 572Q412 572 437 561T485 532T522 490T537 440Q537 429 534 418Q532 416 532 415Q522 389 493 370T432 336Q430 335 427 334L432 336Q464 351 491 371T530 413Q511 387 482 370T424 341Q385 325 346 314T277 297T231
290H227Q227 289 234 289T248 288Q250 288 253 288T261 289H252Q275 294 316 301T399 324Q377 316 359 310T326 301Q308 297 291 294T261 289Q294 288 328 275T387 236T411 172Q411 153 404 138L407 152Q387 106 349 74Q368 88 382 103T404 138Q396 110 373 89T321
52T263 27T216 14Q242 21 267 30T315 53H313Q253 30 202 19T128 8Q122 8 122 6Q122 3 136 1Q149 1 169 4T211 12Q183 4 157 0T110 -4ZM399 324L418 331Q414 329 409 328T399 324ZM324 58Q337 65 346 72Q341 68 336 65T324 58ZM211 12L216 14L215 13L211 12Z" />
<glyph unicode="4" glyph-name="four" horiz-adv-x="460" d="M175 -9Q159 -4 148 9T132 38T126 64Q126 90 148 133T204 225Q163 218 125 209T73 194Q71 193 68 193T63 192Q52 192 42 200T24 218T16 233Q13 251 24 269T53 303T87 330T109 346Q143 371 185 401T271
460T350 515T408 555T432 570Q454 570 472 556T502 528T513 509Q513 505 491 476T433 401T358 301Q363 301 368 301T379 300Q375 300 369 300T357 299L354 296Q380 298 405 295T447 281L444 285L447 283Q462 275 462 262Q462 245 442 225T402 189Q398 185 387 178T369
171Q366 171 366 174Q366 177 372 186Q383 203 383 214Q383 229 365 234T312 238Q267 177 231 117Q215 92 201 65T189 7V5Q189 -7 184 -8T175 -9ZM82 261Q95 264 123 268T186 279T249 290Q281 334 313 375T371 451T411 505Q405 499 379 481T315 436T234 379T151
318T82 261ZM444 285Q420 297 382 300H388Q402 300 419 297T444 285ZM158 273L244 283L248 288Q186 280 158 273Z" />
<glyph unicode="5" glyph-name="five" horiz-adv-x="450" d="M105 0Q68 0 45 19T10 67T-1 124Q-1 156 9 171T28 186Q39 186 39 169Q39 166 39 163T38 157Q37 152 37 147T36 137Q36 109 51 89T91 69Q123 69 158 81T228 114T291 159T336 206T353 247Q353 261 340
270T297 279Q264 279 234 271T182 255T151 246Q130 257 120 273T109 305Q109 310 123 331T159 383T205 445Q214 458 224 471T244 497Q225 510 231 518Q236 526 243 540T267 554Q270 554 276 552L283 549L301 572Q302 572 302 571Q302 569 296 561T294 550Q296 549
296 549T303 548Q307 548 310 546T316 540Q333 536 352 534T392 531Q436 531 461 537T486 560Q486 571 471 589Q464 597 464 601Q464 606 472 604T489 597T501 589Q523 574 544 558T565 523Q565 511 555 500L548 494Q552 497 556 499T563 506Q556 491 535 482T499
471Q492 470 480 470T454 470Q518 472 548 494Q523 479 487 476T423 473Q412 473 392 474T350 477T316 482Q321 479 339 477T384 472T435 470Q429 469 423 469T411 469Q398 469 372 471T316 476L297 479L201 329Q215 333 236 336T279 339Q296 339 313 337T347 329Q385
316 401 292T418 237Q418 209 407 180T375 125L401 155Q374 111 347 87T296 50T253 29Q237 22 208 11T146 0Q142 0 138 0T128 1H129Q127 1 125 1T120 2Q121 2 124 1H128Q122 0 117 0T105 0ZM223 19Q270 35 307 61T370 120Q352 101 333 86T282 54Q265 44 251 35T223
19ZM136 1Q165 0 185 5T222 19Q182 6 136 1Z" />
<glyph unicode="6" glyph-name="six" horiz-adv-x="416" d="M158 -7Q169 -5 179 -3T199 4Q172 -5 147 -5Q89 -5 50 30T10 121Q10 168 33 226T97 343T188 452T295 532T406 563Q428 563 451 553T488 522Q491 518 491 513Q491 508 479 509Q467 511 429 501T330 450Q335
456 357 469T396 492Q358 475 319 448T247 392T196 341Q200 343 214 352T248 371T291 380Q317 380 346 365T396 326T417 273Q417 257 414 240T403 205L406 210Q379 144 345 105T282 44Q264 30 241 18T189 -5Q183 -6 174 -7T159 -8T158 -7ZM119 51Q140 51 162 62T206
91Q193 77 188 72T183 66L194 74Q227 100 250 130T282 170Q290 179 304 203T330 256T342 307Q342 322 335 331T309 340Q297 340 282 336Q252 329 214 300T138 226Q130 214 114 190T86 138T73 88Q73 72 83 62T119 51ZM218 12Q256 29 291 57T354 122T399 196Q386
169 367 144T331 101Q303 71 275 49T218 12Z" />
<glyph unicode="7" glyph-name="seven" horiz-adv-x="441" d="M185 -20Q182 -20 176 -13T159 10Q146 30 146 58Q146 87 156 118T181 176T209 221Q215 229 239 262T312 351T442 485Q432 481 419 478T388 471Q357 466 332 461T292 455L267 453Q293 456 319 460T364
469T389 477Q370 472 341 467T289 459Q276 458 259 456T222 454Q202 454 183 457T148 468Q160 460 182 456T230 451Q220 450 212 450T199 449Q184 451 161 458T131 481Q137 474 147 468L140 474Q130 484 130 497Q130 517 153 536T199 573Q204 577 217 584T236 591Q239
591 239 589Q239 584 232 576Q216 556 216 543Q216 528 239 524T303 521Q344 523 376 533T436 553Q444 556 449 556Q459 556 466 550H488Q497 550 508 540T530 517T547 491T551 475Q547 463 521 437T457 374T375 293T293 199T227 101T193 5Q192 -5 191 -12T185
-20Z" />
<glyph unicode="8" glyph-name="eight" horiz-adv-x="427" d="M86 4Q38 4 10 27T-18 86Q-18 100 -14 114T0 144Q9 158 29 173T72 203T113 231Q120 236 140 245T185 264Q172 275 160 285T138 308Q123 327 123 351Q123 385 153 419T228 486Q241 495 254 504T281
520Q266 513 252 506T223 490Q223 490 222 490Q222 490 222 489Q222 489 222 489Q222 489 222 489Q222 490 222 490Q225 493 232 498Q260 515 286 527T338 549Q325 544 312 537T284 522Q335 544 384 554T460 566Q470 567 470 569T465 572Q446 571 417 568T353 554Q384
565 411 571T458 577Q471 577 481 574Q489 572 495 559T506 531Q508 534 513 545T519 569Q519 584 523 591T533 598Q541 598 548 587T555 556Q555 552 555 549T554 542Q548 500 520 463T453 393T374 335T301 288Q325 269 344 250T363 201Q363 187 358 170T338 133Q346
145 353 166T361 200Q361 204 359 208Q360 191 353 173T335 139T320 118Q298 93 278 76T241 48Q251 54 261 60T280 73Q254 53 229 41T182 20Q162 13 143 9T115 4Q124 6 135 8T155 14Q145 11 134 10T113 6Q106 5 100 5T86 4ZM263 318Q286 330 317 348T379 389T437
439T476 498Q476 510 456 510Q431 510 387 494T301 452Q261 428 248 406T234 366Q234 353 239 345Q246 334 254 326T263 318ZM69 52Q87 52 111 59T156 74Q159 75 176 81T215 99T255 130Q243 121 230 113T202 99Q243 122 260 139T277 172Q277 192 257 208T211 244Q173
222 137 195T72 132Q55 110 48 96T40 71Q40 61 48 57T69 52ZM302 92L306 95V96L309 98L310 100L311 101Q322 111 332 125Q322 112 311 101Q311 100 310 100Q310 99 309 98Q307 97 306 96Q305 95 305 95T306 95Q304 94 302 92ZM281 74H282V75H283V75L284 76V76V77H285V77L286
78V78L287 79Q287 79 286 78Q286 78 286 78Q286 78 285 77Q285 77 285 77Q285 77 284 77Q284 76 284 76Q284 76 284 76Q283 76 283 75Q283 75 283 75Q282 75 282 75Q283 75 282 74Q281 74 281 74ZM200 29Q214 34 233 44Q224 40 216 36T200 29ZM156 15Q167 18 177
21T198 29Q185 25 177 23T163 19Q161 17 156 15Z" />
<glyph unicode="9" glyph-name="nine" horiz-adv-x="436" d="M90 -7Q68 -7 45 4T9 34Q5 40 5 42Q5 47 18 46Q29 45 68 54T167 105Q164 101 152 94T125 78T101 63Q140 81 179 108T250 164T300 214Q297 213 283 203T248 184T205 175Q180 175 151 190T100 230T79
283Q79 317 95 355T139 429T202 495T275 542T350 560Q408 560 447 525T487 434Q487 424 486 413T482 389Q481 357 468 326T436 265Q441 275 446 286T455 310Q445 288 433 266T405 220Q413 230 420 240T434 262Q413 219 383 183T308 96Q293 79 267 61T209 27T149
0Q139 -4 122 -6T101 -7Q156 -4 211 28T317 111T405 220Q391 201 378 185T353 157Q293 87 233 48T104 -6Q103 -6 103 -6T101 -7Q98 -7 95 -7T90 -7ZM188 215Q202 215 215 219Q244 227 282 255T358 330Q367 343 382 367T410 418T423 467Q423 484 413 494T378 504Q356
504 335 494T290 465Q303 479 308 484T314 489Q314 489 302 482Q270 456 247 426T215 385Q208 376 193 352T166 299T154 248Q154 234 161 225T188 215Z" />
<glyph unicode=":" glyph-name="colon" horiz-adv-x="323" d="M287 240Q276 245 264 257T243 282T234 306Q234 318 246 318Q253 318 261 317T279 315Q290 315 304 323T332 332Q340 332 347 327T361 307Q364 300 355 289T331 268T308 252Q315 253 328 262T352 281Q335
260 314 249T287 240ZM150 -7Q139 -2 127 10T106 35T97 59Q97 71 109 71Q116 71 124 70T142 68Q153 68 167 76T195 85Q203 85 210 80T224 60Q227 53 218 42T194 21T171 5Q178 6 191 15T215 34Q198 13 177 2T150 -7Z" />
<glyph unicode=";" glyph-name="semicolon" horiz-adv-x="323" d="M287 240Q276 245 264 257T243 282T234 306Q234 318 246 318Q253 318 261 317T279 315Q290 315 304 323T332 332Q340 332 347 327T361 307Q364 300 355 289T331 268T308 252Q315 253 328 262T352
281Q335 260 314 249T287 240ZM-19 -118Q10 -100 54 -43T138 93Q144 100 155 100Q167 100 180 94T202 78T209 59Q204 42 189 29T154 0Q147 -5 149 -5T149 -9Q169 6 185 22T208 48Q213 56 211 47T188 17Q180 8 170 0T137 -24L125 -34L145 -15L148 -10L133 -22Q117
-33 94 -53T53 -81Q49 -83 41 -91T36 -98Q55 -87 80 -68T125 -34Q88 -68 50 -92T-19 -118Z" />
<glyph unicode="&lt;" glyph-name="less" horiz-adv-x="386" d="M271 124L261 128Q230 165 189 191T104 244Q100 248 100 250Q102 256 122 274T173 317T236 366T294 410T330 436Q337 441 344 443T362 446Q364 446 368 446T376 447Q381 447 385 446T390 441Q390
437 378 425Q377 422 361 407T320 372T270 330T224 292T195 269Q202 262 219 243T256 202T287 162T298 137Q294 124 271 124Z" />
<glyph unicode="=" glyph-name="equal" horiz-adv-x="552" d="M207 285Q203 285 203 296Q203 307 207 324T217 357Q246 350 295 347T396 344Q447 344 492 347T562 356Q564 356 564 356T566 357Q572 357 572 351Q572 346 566 338T551 326Q512 310 454 303T332 294T213
288Q210 285 207 285ZM107 134Q103 134 103 145Q103 156 107 173T117 206Q146 199 195 196T296 193Q347 193 392 196T462 205Q464 205 464 205T466 206Q472 206 472 200Q472 195 466 187T451 175Q412 159 354 152T232 143T113 137Q110 134 107 134Z" />
<glyph unicode="&gt;" glyph-name="greater" horiz-adv-x="373" d="M118 123Q113 123 109 124T104 129Q104 134 115 145Q116 148 132 163T173 198T224 240T270 278T298 301Q291 309 274 327T237 368T206 408T195 433Q199 446 222 446L232 442Q264 405 305 379T389
326Q393 322 393 320Q391 314 371 296T320 253T257 204T200 160T163 134Q156 130 149 127T132 124Q131 124 127 124T118 123Z" />
<glyph unicode="?" glyph-name="question" horiz-adv-x="327" d="M271 140Q240 143 229 158T205 190Q201 195 201 203Q201 219 215 239T251 279T297 316Q299 318 313 327T347 348T383 370T409 384Q414 386 402 378T371 358T337 335T319 317Q338 327 366 345T424
384T475 420T503 441Q520 456 527 470T535 494Q535 511 519 520T473 529Q468 529 462 529T450 528Q432 526 393 512T315 475L333 487Q375 515 404 526T439 538Q443 540 444 543T442 545Q420 538 388 523T331 491Q312 478 294 464T259 435Q268 443 279 450T303 466Q290
456 276 445T247 423L243 418L245 421Q226 397 230 375Q230 373 230 372T231 368Q231 352 217 352Q204 352 196 364Q188 377 181 399T173 442Q173 461 200 487T270 539T364 580T462 597Q485 597 509 584T554 549T585 507T595 468Q591 423 564 393Q551 380 526 361T477
333Q490 341 515 358T554 391Q548 387 533 377T501 355T470 335T454 325Q444 320 436 315T415 304Q387 291 359 275T311 240T285 197Q284 194 284 191T284 183Q284 179 285 173T287 158Q287 151 284 146T271 140ZM184 -6Q173 -1 162 11T142 36T134 60Q134 69 137
69Q141 69 148 64T167 59Q179 59 196 70T229 82Q237 82 243 78T255 61Q258 54 250 42T229 18T203 -1T184 -6Z" />
<glyph unicode="@" glyph-name="at" horiz-adv-x="658" d="M225 -110Q198 -110 182 -107T162 -102Q118 -91 91 -63Q69 -37 58 -3T47 69Q47 96 52 123T66 178Q62 170 59 162T52 146Q59 167 67 185T83 220Q79 210 75 200T66 178Q86 220 112 254T160 313T190 346Q212
371 240 390T282 420L334 458L331 457L337 461L334 458Q369 472 409 479T495 487Q542 487 579 473T639 428Q651 408 655 387T660 345Q660 311 651 281T631 230T615 200Q599 172 579 149T545 114L497 68L500 69L496 66Q496 67 497 68Q468 52 443 52Q417 52 412 56T413
65Q399 79 393 101T386 143Q386 151 387 158T390 169Q381 162 359 144T309 104T258 63T221 35Q216 35 207 45T189 69T175 89Q185 121 206 155T255 224T308 286T356 335Q341 324 324 307T301 284Q291 274 280 264T259 245Q287 276 313 302T351 337Q353 339 357 342T369
347L376 354Q398 353 422 341T462 310T478 265Q478 262 475 259T470 261Q465 273 459 283T444 298Q436 303 428 303Q419 303 408 296Q391 283 367 260T319 208T275 153T247 110Q252 116 265 126T293 148T318 167Q322 170 333 177T356 192T376 205Q376 204 367 197T343
180T318 163T303 153Q288 140 269 124T244 101Q241 98 242 97T246 99Q258 115 286 135T337 171Q354 183 368 192T393 211Q396 228 408 234T427 239Q432 238 441 234T458 223T462 209Q458 201 451 182T439 141T432 105V97Q432 76 445 73Q472 78 500 105T553 173T593
259T608 345Q608 389 585 419T504 450Q447 450 389 424T277 354T183 256T117 147T93 43Q93 8 108 -21Q125 -52 157 -67T229 -82Q283 -82 345 -58T462 6Q470 12 473 12Q478 12 474 3T458 -16Q428 -40 386 -61T299 -94T213 -106Q202 -107 215 -107T254 -105T300 -101Q278
-106 259 -108T225 -110ZM225 390Q251 411 276 428T331 457Q315 447 283 429T225 390ZM595 160Q622 198 640 241T663 323Q664 329 664 335T664 346Q664 395 639 428V429Q655 410 661 389T668 344Q668 310 655 272T619 193Q615 186 609 178T595 160ZM127 287Q139
302 150 315T174 342Q161 328 150 314T127 287ZM89 233Q96 244 103 255T118 276L126 285Q106 260 89 233ZM500 69Q514 80 543 107T595 160Q573 132 549 108T500 69Z" />
<glyph unicode="A" glyph-name="A" horiz-adv-x="862" d="M193 -43Q162 -42 129 -27T72 17T49 90Q49 135 75 176T148 252T252 310T373 345Q432 354 457 354Q488 354 488 345Q488 338 469 328T430 314Q374 304 322 287T235 250Q255 259 274 266T322 281T401 304Q374
295 335 279T252 241T172 194T111 144T87 95Q87 62 113 50T167 37Q203 37 247 52T339 91T432 144T514 201T575 253Q524 250 524 263Q524 270 545 277T604 285Q705 380 768 438T868 528T924 576Q917 571 900 558T866 534T845 522L939 596Q925 601 906 603T864 605Q809
605 744 595T622 572Q612 570 588 562T534 540T473 510T422 474T394 433Q398 425 398 418Q398 404 384 404Q372 404 358 418T344 457Q344 470 348 482Q358 514 386 541L382 539L388 543L386 541Q431 566 482 589T598 628T743 644Q787 644 836 639T940 621Q944 620
946 620T951 620Q913 634 862 639T757 645Q706 645 659 641T579 629Q562 625 543 620T504 607Q558 628 619 639T749 650Q843 650 949 629Q957 628 958 624T951 620Q957 618 963 616T973 610Q981 614 992 614Q1015 614 1032 595T1048 552Q1048 548 1034 527T996
475T947 410T897 343T854 286T831 253Q852 246 857 245T869 238Q875 234 868 231T848 226T826 225Q822 221 813 201T795 167Q800 181 809 199T819 228Q786 167 773 129T757 69T755 34Q756 21 764 7T772 -16Q772 -23 760 -23Q730 -22 716 8T701 74Q701 103 709 142T739
228Q736 219 731 202T724 179Q728 186 734 201T745 229T750 243Q743 244 713 248T654 255Q629 229 600 199T538 137Q557 153 574 170T609 204Q611 206 612 206Q613 206 609 201T599 190Q556 143 513 107T428 44Q457 64 485 88T538 137Q473 81 402 39T252 -28Q238
-32 217 -37T193 -43ZM388 543Q408 561 433 575T485 600Q461 590 440 577T397 549L388 543ZM766 271Q778 296 798 327T841 392T887 456T928 509Q900 490 877 473T827 432T763 372T672 280Q680 280 699 278T738 274T766 271ZM740 229Q740 230 741 231Q742 233 742
233Q742 233 741 231Q740 230 740 229ZM407 31Q407 31 407 31T408 32L428 44Q425 42 418 38T408 32L407 31ZM195 -43Q243 -37 295 -21T400 26Q351 -3 300 -23T195 -43Z" />
<glyph unicode="B" glyph-name="B" horiz-adv-x="679" d="M239 -32Q223 -32 205 -27T176 -8T169 24Q173 43 197 62T256 101T328 135T399 159T452 170Q455 170 455 168Q455 164 449 158T438 150Q416 144 382 131T313 100T252 65Q237 55 231 49T225 38Q225 33 233
32T247 31Q280 33 321 45T400 79T466 125T498 177Q501 191 474 198T396 205Q385 205 373 205T348 204Q339 207 339 216Q339 233 355 235Q426 256 496 288T629 359T743 434T822 500Q828 506 832 512T836 526Q836 539 819 549Q792 565 748 573T657 582Q578 582 486
560T305 498T144 403Q120 384 102 361T77 309Q73 291 83 278T91 255Q91 250 86 250Q79 250 69 256Q53 269 37 290T21 340Q21 387 73 436T208 529Q183 518 157 506T104 479Q103 478 102 478T101 478Q99 478 104 482T115 489Q170 520 225 543T333 584Q335 585 336
585L333 584Q299 573 268 559T208 529Q341 588 455 611T684 635Q692 635 695 635T698 636Q698 638 690 639T674 640Q607 641 527 631T359 593Q425 614 495 628T632 647Q641 648 650 648T669 648Q721 648 767 638T842 603T872 531Q889 508 889 488Q889 464 865 437L867
440Q857 431 832 414T778 376T725 341T692 321L632 290Q650 297 668 304T704 319L688 310Q675 303 654 294T609 275T567 260T539 253Q537 253 545 256T566 264T588 271Q595 273 606 277T630 289Q582 271 533 257T436 231Q454 231 477 226T522 209T558 183T572 146Q572
140 571 136Q566 111 535 83T455 29T351 -13T239 -32ZM336 585Q337 585 337 586Q338 586 338 586Q339 586 339 586Q340 587 341 587Q341 587 342 587Q342 587 343 588Q345 588 345 588L346 589H347H348L350 590Q349 590 348 589Q348 589 347 589Q347 589 346 589Q345
588 345 588Q345 588 343 588L342 587H341L339 586H338H337L336 585ZM56 -86Q37 -70 29 -55T20 -25Q20 -17 23 -8Q31 15 55 52T115 136T191 231T271 326T342 410T394 471Q386 467 381 467Q377 467 377 470Q377 474 383 480Q394 494 402 503T410 513Q416 515 430
509T461 492T487 470T494 450Q460 417 417 373T327 278T234 174T148 69T79 -28Q81 -25 84 -22T91 -15L176 86Q191 102 193 102Q194 102 194 101Q194 98 188 92Q166 65 141 34T92 -29T56 -86ZM835 408Q843 416 851 423T865 437Q861 432 854 425T835 408ZM715 325Q748
344 778 365T830 404L835 408Q835 408 835 408T830 404L802 380Q783 364 761 351T715 325Z" />
<glyph unicode="C" glyph-name="C" horiz-adv-x="626" d="M176 -29Q152 -29 133 -23T113 -4Q113 4 121 9T139 14Q73 28 46 62T18 143Q18 181 33 223T74 306Q127 391 188 442T325 535Q306 526 287 517T250 497Q243 493 239 493T241 497Q274 516 319 537T398 575Q484
616 572 639T726 662Q765 662 792 653Q804 634 809 619T814 591Q814 581 812 574T807 562Q812 565 816 572T824 586Q827 593 827 598T830 608Q832 611 841 604T858 586T866 566Q865 549 850 525T812 479T766 442T726 429Q710 412 679 388T611 341T538 302T480 285Q475
288 462 301T438 330T427 361Q427 364 429 370Q433 377 446 396T480 436T533 470Q539 473 542 473Q547 473 544 465T519 434Q515 430 504 417T483 390T473 366Q473 354 493 357Q520 361 554 376T624 412T691 456T745 500Q782 536 782 556Q782 569 771 575T739 581Q735
581 730 581T718 579Q660 571 594 553T458 506T326 435T210 339T125 214Q102 166 102 131Q102 100 121 82T186 63Q224 63 283 79T426 132Q407 123 392 117T366 105Q357 101 339 95T306 84T294 79Q311 79 339 88T397 110T444 133Q467 145 492 159T542 188Q511 172
482 158T426 132L448 143Q455 147 475 158T523 185T578 216T627 244T659 262Q651 254 618 233T542 188Q608 222 688 267Q702 275 708 275Q716 275 712 266T691 239Q660 208 609 172T497 100T373 36T255 -8V-9Q255 -13 248 -18Q237 -24 216 -26T176 -29ZM336 537Q401
567 474 591T616 628T731 642Q745 642 745 644Q745 646 739 647T725 648Q696 646 647 640T538 619T420 579Q401 570 378 559T336 537Z" />
<glyph unicode="D" glyph-name="D" horiz-adv-x="733" d="M236 -32Q220 -32 203 -26T176 -8T169 24Q173 43 197 62T256 101T328 135T399 159T452 170Q455 170 455 168Q455 164 449 158T438 150Q416 144 382 131T313 100T252 65Q237 55 231 49T225 38Q225 33 233
32T247 31Q324 34 396 67T532 152T650 263T742 379T802 479T823 540Q823 547 819 549Q792 565 748 573T657 582Q578 582 486 560T305 498T144 403Q120 384 102 361T77 309Q73 291 83 278T91 255Q91 250 86 250Q79 250 69 256Q53 269 37 290T21 340Q21 386 73 436T208
529Q183 518 157 506T104 479Q103 478 102 478T101 478Q99 478 104 482T115 489Q174 522 233 546T349 590Q311 577 276 562T208 529Q341 588 455 611T684 635Q692 635 695 635T698 636Q698 638 690 639T674 640Q608 641 528 631T360 594Q427 615 496 629T632 647Q641
648 650 648T669 648Q721 648 767 638T842 603T872 531Q889 510 889 477Q889 441 867 396T807 301T716 204Q766 252 804 304T875 426Q848 371 809 323T731 236T660 171T615 133Q590 111 559 93T501 61T458 38Q436 27 417 16T383 -3Q462 24 540 71T685 176Q649 143
611 111Q591 94 556 75T481 38T409 6T364 -14Q362 -15 367 -12T383 -3Q346 -16 309 -24T236 -32ZM56 -86Q37 -70 29 -55T20 -25Q20 -17 23 -8Q31 15 55 52T115 136T191 231T271 326T342 410T394 471Q386 467 381 467Q377 467 377 470Q377 474 383 480Q394 494 402
503T410 513Q416 515 430 509T461 492T487 470T494 450Q460 417 417 373T327 278T234 174T148 68T79 -29L91 -15L176 86Q184 95 188 98T193 102Q194 102 194 101Q194 98 188 92Q166 65 141 34T92 -29T56 -86Z" />
<glyph unicode="E" glyph-name="E" horiz-adv-x="626" d="M143 -49Q137 -49 133 -49T124 -48Q106 -46 93 -37T79 -14Q79 -12 81 -6Q84 2 88 -1T93 -1Q86 15 81 35T75 76Q75 93 79 108T93 134Q116 152 140 165T190 189Q141 175 102 147Q101 146 101 146T100 146Q99
146 104 152T114 161Q149 181 182 192T241 209Q255 216 272 222T305 235Q292 237 268 242T217 256T165 277T126 304T113 337Q116 358 134 381T177 426T226 465T268 491Q294 505 323 518T383 543Q341 530 301 514Q293 511 289 511T292 515Q329 530 378 546T464 575Q551
604 637 622T789 640Q841 640 871 627Q876 617 878 608T880 591Q880 573 873 562T860 545Q871 550 880 567Q885 574 885 579T890 589Q892 592 900 584T914 565T919 545Q916 528 897 505T851 461T799 428T757 418Q739 402 704 381T627 339T549 305T488 293Q484 296
474 308T454 337T445 367Q445 375 449 380Q454 387 470 405T511 443T569 473Q575 475 578 475Q584 475 580 468T549 438Q544 433 530 421T504 395T492 372Q492 362 511 363Q540 365 576 377T652 408T726 448T787 488Q811 506 821 517T832 536Q832 544 819 547T783
550Q728 550 658 542T510 516T356 464Q337 456 309 445T254 420T209 392T191 362Q191 341 232 324Q261 312 299 299T377 273T449 250Q456 249 456 243Q456 236 446 226T425 207T407 196Q372 187 330 171T251 136T189 101T166 73Q179 63 207 63Q239 63 284 75T378
109Q371 105 365 102T353 97Q343 93 331 87T311 76T305 71Q317 74 339 83T387 105T431 127L541 186Q529 180 509 171T468 151T432 133T416 126Q414 126 420 130Q410 124 400 119T378 109Q388 114 399 119T423 131L659 258Q651 250 618 230T541 186Q590 210 629
231T689 263Q705 271 710 271Q718 271 713 261T690 235Q656 203 602 167T482 95T351 31T228 -14Q228 -18 226 -24T220 -32Q207 -41 185 -45T143 -49ZM395 544Q465 566 539 583T679 610T788 620Q814 620 814 624Q814 627 803 627Q748 629 665 616T487 575Q465 569
440 561T395 544ZM208 195Q240 204 276 211T328 220Q335 221 335 223Q335 225 330 227T321 228Q309 226 296 223T262 214Q249 210 235 205T208 195Z" />
<glyph unicode="F" glyph-name="F" horiz-adv-x="547" d="M264 606Q300 614 338 618T417 624Q376 623 337 618T264 606ZM603 607Q568 614 533 618T463 624Q500 623 535 619T603 607ZM220 -10Q196 -8 174 14T152 69Q152 94 165 124T197 186T237 244Q226 244 201
241T153 236T121 232Q119 232 118 232T114 231Q102 231 102 238Q102 245 116 254T150 267L272 283Q289 305 320 340T391 415T470 495T547 564Q543 560 529 551T501 529Q505 534 520 547T546 568Q492 568 429 565T305 547Q295 545 271 537T217 516T156 486T105 449T77
408Q81 400 81 393Q81 379 68 379Q56 379 42 393T27 433Q27 446 31 458Q42 491 67 515L65 514Q61 512 62 513T68 517L67 515Q112 540 165 564T286 604T436 620Q474 620 516 616T604 603Q609 602 617 601T629 600H630Q630 601 607 606Q604 606 603 607Q616 615 624
618T639 621Q646 621 663 619T697 611T714 593Q737 591 761 590T811 589Q852 589 891 592T963 599Q960 583 944 569T892 545T794 535Q762 535 721 538Q710 539 691 541T661 543Q627 519 585 487T500 419T420 350T360 290Q396 296 448 302T555 319H556Q561 319 566
315T574 311Q582 311 587 300T592 284Q592 280 578 267T541 235T497 200T458 172T439 160Q439 165 446 173T464 194Q489 222 504 241T522 266Q511 254 497 236T463 198Q475 212 486 228T504 255T510 266Q495 265 467 264T408 260T356 256T330 254Q334 253 339 253T352
253Q357 253 364 253T381 254Q362 250 354 250T325 247Q277 192 257 149T232 79T227 43Q227 27 238 16T250 -3Q250 -6 244 -8T220 -10ZM255 604Q258 604 263 606H264Q264 606 263 606Q258 604 256 604H255ZM210 591Q221 595 232 598T255 604L210 591ZM68 517Q96
543 134 561T210 591Q174 579 142 562T80 524L68 517Z" />
<glyph unicode="G" glyph-name="G" horiz-adv-x="626" d="M168 -288Q155 -284 139 -276T123 -251Q123 -245 126 -239L128 -235Q113 -219 103 -201T93 -166Q93 -159 94 -156Q121 -116 171 -73T287 9T428 75Q444 96 457 116T483 155Q482 155 487 162T497 178T501
185Q500 185 494 176T481 157T473 147Q421 105 361 70T245 19Q217 12 189 9T138 6Q119 6 107 7T95 10Q95 14 139 14Q73 28 46 62T18 143Q18 181 33 223T74 306Q127 391 188 442T325 535Q306 526 287 517T250 497Q243 493 239 493T241 497Q274 516 319 537T398 575Q484
616 572 639T726 662Q765 662 792 653Q804 634 809 619T814 591Q814 581 812 574T807 562Q812 565 816 572T824 586Q827 593 827 598T830 608Q832 611 841 604T858 586T866 566Q865 549 850 525T812 479T766 442T726 429Q701 422 682 418T653 413Q645 413 645 417Q645
423 673 443Q715 471 745 500Q782 536 782 556Q782 569 771 575T739 581Q735 581 730 581T718 579Q660 571 594 553T458 506T326 435T210 339T125 214Q112 187 105 162T98 117Q98 89 113 73T164 56Q191 56 230 66T324 102Q364 120 405 151T482 216T544 278T581
320Q592 323 610 316T643 299T655 283Q655 283 640 256T596 184T528 84L554 86H557Q571 86 571 77Q571 69 558 66Q546 62 531 57T501 46L490 33L495 40L496 42L427 -37Q412 -54 389 -78T341 -127T293 -173T258 -207T247 -219Q300 -179 349 -130T446 -20Q453 -10
463 1T482 23Q471 7 454 -16T414 -67Q400 -84 376 -107T326 -153T278 -195T247 -219Q254 -219 258 -222Q262 -224 251 -235T223 -259T190 -281T168 -288ZM336 537Q401 567 474 591T616 628T731 642Q745 642 745 644Q745 646 739 647T725 648Q696 646 647 640T538
619T420 579Q401 570 378 559T336 537ZM169 -244Q196 -217 232 -178T305 -96T371 -21Q384 -7 397 8T421 39Q403 17 397 13T390 8Q373 1 345 -18T284 -63T224 -119T178 -176T160 -223Q160 -235 169 -244Z" />
<glyph unicode="H" glyph-name="H" horiz-adv-x="735" d="M177 617Q223 631 273 638T378 646Q391 646 404 646T431 644Q422 644 413 644T394 645Q345 645 300 641T222 629Q212 626 201 624T177 617ZM598 -24Q563 -19 550 6T536 66Q536 98 544 131T562 192T578
233Q579 234 575 222T566 197T560 179Q564 186 571 203T588 240T602 269Q554 262 499 255T384 240Q354 200 330 167T295 114Q288 103 283 87T276 69Q301 65 312 57T323 38Q323 23 301 9T241 -9Q218 -4 210 12T201 47Q201 66 206 81Q210 93 220 111T243 153Q236
146 232 142T226 137Q225 137 237 153T265 187Q271 197 278 207T292 228Q222 220 184 214T127 203T91 197Q84 193 78 193Q71 193 67 200T63 218Q63 229 66 241T75 265H77Q77 282 94 282Q102 282 111 280T131 278Q148 279 167 282T189 292Q193 298 195 298Q198 298
201 288Q202 286 202 283Q202 273 195 265Q254 267 321 271Q352 316 385 361T450 449T505 524T543 575Q523 559 511 541T488 520Q500 534 520 557T545 599Q537 601 527 601T506 601Q459 601 392 593T265 572Q255 570 231 562T177 540T116 510T65 474T37 433Q41
425 41 418Q41 404 27 404Q15 404 1 418T-13 457Q-13 470 -9 482Q-4 498 4 511T25 537Q34 541 60 556T117 586T170 609Q214 624 268 633T387 643Q425 643 468 639T557 626Q564 624 564 627Q564 629 556 630Q531 635 506 638T457 643Q481 642 504 640T550 632V635Q550
642 558 642Q560 642 568 640Q580 636 599 626T632 603T647 574Q647 569 646 566Q635 554 611 525T553 455T484 369T414 278Q458 282 510 286T618 297Q639 330 667 369T723 445T771 509L734 468Q740 476 752 495T765 528Q766 547 775 563T797 591T817 610Q827 618
836 618Q849 618 862 608T884 583T892 552Q892 551 877 531T837 478T782 401T720 310Q744 313 767 317T812 326Q817 327 820 327T826 328Q834 328 834 325Q834 319 816 311Q794 302 705 286Q692 266 680 246T656 206Q627 154 608 108T589 31Q589 3 606 -8Q612 -12
612 -17Q612 -26 598 -24ZM158 611H159L160 612H161H162Q163 613 163 613T164 613Q165 613 165 613Q166 614 166 614Q167 614 167 614Q168 614 168 614Q169 615 169 615T169 615Q170 615 171 615H169L168 614H167H166L165 613H164Q164 613 164 613T162 612Q162
612 161 612Q161 612 160 612Q160 611 160 611T159 611Q159 611 158 611ZM144 606H145V606V606H146V606L147 607V607V607Q147 607 147 607T148 607Q149 608 148 608Q149 608 149 608H148V607Q148 607 148 607T147 607Q147 607 147 607Q147 607 147 607Q146 607
146 606Q146 606 146 606Q146 606 145 606Q145 606 145 606Q146 606 145 606Q144 606 144 606ZM32 543Q54 564 83 579T144 606Q86 583 40 549L32 543ZM29 541Q29 541 29 541T25 537Q21 535 21 535Q21 535 23 536T29 541L25 539L32 543L29 541Z" />
<glyph unicode="I" glyph-name="I" horiz-adv-x="422" d="M254 -60Q254 -55 261 -47T279 -26Q304 2 319 21T337 46Q326 34 312 16T278 -22Q290 -8 301 8T319 35T325 46L169 36Q167 34 167 33Q171 33 180 33T195 34T196 34L165 31Q148 8 103 -9Q87 -6 79 3T66 25Q62
25 59 25T52 24Q41 24 17 21T-32 16T-64 12Q-66 12 -67 12T-71 11Q-83 11 -83 18Q-83 25 -69 34T-35 47Q-27 49 1 51T64 58Q64 65 65 71T68 81Q75 104 101 147T165 245T243 354T319 456T377 534L212 516Q205 512 199 512Q192 512 188 519T184 537Q184 548 187 560T196
584H198Q198 601 215 601Q223 601 232 599T252 597Q269 598 288 601T310 611Q314 617 316 617Q319 617 322 607Q323 605 323 601Q323 594 318 586L397 589Q398 592 398 595Q397 598 396 601T395 608Q395 616 404 616Q406 616 414 614Q422 611 434 606T458 592H475L490
593Q553 597 587 604T635 618T653 630T658 637Q662 639 663 639Q666 639 666 636Q666 630 659 623Q656 619 662 614T675 604T683 592Q683 586 671 580T626 567T533 552Q532 552 519 540T487 508T450 471T418 439T403 426Q402 426 412 438T439 469T471 506T498 537T508
549L493 548Q493 543 492 540Q480 527 455 498T395 428T324 344T252 256T188 178T142 120Q134 110 130 99T124 85Q152 81 164 69L175 70Q211 73 263 86T370 99H371Q376 99 381 95T389 91Q397 91 402 80T407 64Q407 60 393 47T356 15T312 -20T273 -48T254 -60Z"
/>
<glyph unicode="J" glyph-name="J" horiz-adv-x="540" d="M55 -219Q38 -219 22 -211T-4 -183Q-16 -178 -27 -161T-46 -119T-53 -71Q-53 -40 -40 -24Q-33 -6 -22 19T4 69T36 115T71 142Q75 141 93 136T134 122T173 104T188 85Q187 79 183 60T169 19T138 -23Q133
-28 130 -28Q127 -28 128 -20T138 9Q141 16 147 34T154 66Q154 79 146 79Q141 79 134 75Q110 62 84 32T38 -37T9 -117Q6 -127 6 -140Q7 -152 13 -167T31 -183Q51 -183 85 -155T162 -79T254 30T350 158T442 292T519 417T572 520T592 586L590 588Q554 582 511 557T432
507Q425 502 404 484T358 440T318 386T304 330Q312 318 312 309Q312 300 304 300Q294 300 279 320T263 383Q263 406 271 430L269 427Q267 423 268 425T271 432V430Q297 471 337 512T437 582T583 613Q584 614 584 616Q553 616 517 609T448 590T389 564Q431 589 481
604T587 621L584 616Q594 616 603 616T619 614Q623 615 623 618Q623 622 616 622Q609 622 602 622T587 621Q592 627 598 629Q601 630 603 630T609 631Q628 631 644 617T662 583Q680 573 680 555Q680 538 668 517T639 477T609 445Q569 372 525 296T434 145L535 300L611
418Q604 405 585 371T540 294T487 207T437 133Q432 125 417 105T383 60T352 19Q355 22 356 22Q358 22 347 8T318 -28T281 -71T246 -109T224 -128Q253 -99 282 -65T340 8Q308 -31 271 -71T196 -144T121 -198T55 -219ZM271 432Q285 471 311 500T363 549Q365 551 368
553T376 556Q342 534 317 504T275 439Q274 438 274 436T271 432ZM346 16L340 8L342 10L346 16Z" />
<glyph unicode="K" glyph-name="K" horiz-adv-x="712" d="M130 -49Q111 -50 94 -37T71 3Q58 5 51 30T44 85Q44 109 49 131T67 163Q79 188 98 212T140 255T184 277Q193 278 208 272T224 242Q241 230 256 224T269 208V205Q269 202 269 199T270 191Q270 184 265 175T240
151Q233 146 226 146Q220 146 220 153Q220 161 230 178Q237 190 237 200Q237 213 223 209Q202 202 178 181T130 131T92 70Q92 68 90 62Q89 52 88 47T87 30Q87 18 94 1T111 -12Q132 -6 157 12T207 55T253 103T287 143Q309 170 338 212T399 304T460 402T513 493T546
561Q542 562 538 562T529 562Q495 562 453 552T375 529Q368 526 346 514T299 483T254 441T229 391Q230 388 230 385T231 379Q231 363 216 363Q203 363 188 379T172 424Q172 459 185 480T200 503L209 511Q245 538 271 556T322 583T376 597T447 601Q495 601 552 586Q551
587 550 588T548 590Q568 586 586 576Q590 576 590 579Q590 583 585 585Q575 588 565 591T545 596L548 590Q495 604 434 604Q415 604 398 603T365 599Q361 598 357 597Q357 597 358 597T365 599Q384 602 404 604T446 607Q470 607 495 604T545 596Q544 599 544 602T543
607Q543 625 558 629Q561 630 563 630T569 631Q588 631 604 617T622 583Q640 573 640 555Q640 538 628 517T599 477T569 445Q545 405 522 366T482 300T466 272Q466 270 490 307Q498 319 511 339T536 379T557 413T565 426Q556 411 539 379T498 308T447 229Q512 247
571 278T688 351Q708 365 739 393T801 455T853 521T874 576Q874 586 871 595T867 611Q867 618 873 621T896 625Q917 625 932 602T948 546Q948 511 926 474T865 401T780 333Q816 356 852 384T914 445Q886 405 852 375T773 319T672 261Q660 254 641 248T599 233Q644
250 690 276T780 333Q746 311 717 296T676 274Q653 261 625 250T572 231T532 218L453 191H457L446 188Q444 188 453 191Q438 190 428 191Q487 113 526 87T589 60Q612 60 624 72T641 91Q649 101 658 101Q662 101 662 97Q662 96 662 94T660 89Q654 73 639 54T606
18Q611 15 615 8Q619 3 606 -8T576 -28T551 -35Q524 -28 516 -19T506 0Q478 22 447 64T402 165Q381 134 356 99T298 31T224 -23T130 -49ZM205 509V509Q207 511 213 520T222 533Q245 556 269 567T322 588L332 591Q327 590 304 579T254 550T205 509Q205 509 205 509ZM457
191Q477 196 512 205T583 227Q546 214 514 204T457 191Z" />
<glyph unicode="L" glyph-name="L" horiz-adv-x="544" d="M465 -18Q461 -18 461 -14Q461 -10 467 0Q475 16 475 25Q475 40 458 46T411 52Q396 52 378 51T337 47Q309 44 273 37T203 22T144 4Q156 7 176 12T216 22T249 29Q254 30 257 30T259 29Q249 27 226 21T178
9T135 -3T114 -9Q110 -10 107 -10T102 -11Q88 -11 82 -1T70 16Q64 22 66 33Q62 33 60 32Q60 36 60 41T59 50Q59 59 62 61Q83 94 107 125T157 190Q231 285 315 390T477 592Q476 597 474 604T472 619Q472 629 477 636T495 643Q506 643 518 639Q530 634 546 623T574
600T587 577Q587 561 560 533T493 463Q469 438 438 403T377 331T324 269T295 235Q296 239 307 253T334 286T362 319Q367 324 377 337T398 365T417 392T425 406Q425 406 424 405T418 399Q413 394 398 374T363 329T326 282T298 248Q257 204 222 164T164 91Q165 91
166 91T168 92Q177 96 201 101T257 111T321 120T378 126T415 129Q430 129 450 127T488 120T515 107Q497 115 477 119T433 124Q468 121 500 109Q521 102 529 91T538 68Q538 52 527 35T499 2Q495 -2 483 -10T465 -18ZM178 94Q193 97 217 100T265 108T305 115Q328
120 362 123T431 124Q425 125 419 125T406 125Q370 125 320 119Q310 118 284 114T229 104T178 94Z" />
<glyph unicode="M" glyph-name="M" horiz-adv-x="872" d="M787 -148Q753 -141 745 -121T734 -75L727 -55Q722 -38 722 -18Q722 20 733 72T760 179T794 283T825 365T842 405Q828 391 798 363T731 298T659 224T597 155T563 103Q544 105 534 124T523 162Q523 176
537 208T574 281T619 361T662 432T691 475Q691 475 671 458T617 414T544 353T464 285T388 219T329 164Q328 162 340 171T370 196T407 227T438 252T449 260Q396 211 366 184T318 140Q310 132 300 114T282 76T275 38Q275 19 285 10Q290 6 293 2T296 -5Q296 -10 285
-10Q262 -8 245 7T219 40T210 73Q210 90 230 127T282 213T353 317T429 422T497 513T543 575Q523 559 511 541T488 520Q500 534 520 557T545 599Q537 601 527 601T506 601Q459 601 392 593T265 572Q255 570 231 562T177 540T116 510T65 474T37 433Q41 425 41 418Q41
404 27 404Q15 404 1 418T-13 457Q-13 470 -9 482Q1 514 26 538T84 580T154 610T222 629Q254 637 301 641T399 645Q438 645 477 642T550 632V635Q550 642 558 642Q560 642 568 640Q580 636 599 626T632 603T647 574Q647 569 646 566Q613 531 572 483T487 382T404
273Q439 303 482 340T570 415T652 483T712 531Q722 531 738 521T768 498T782 474Q773 459 756 434T720 381T683 327T653 283Q657 286 677 307T727 357T787 414T841 462T872 483Q877 483 890 474T917 450T939 424T945 406Q900 347 868 279T813 146Q830 188 848 229T883
304T913 358Q915 360 915 360Q916 360 914 354T907 340Q901 330 888 300T857 229T824 145T795 64T778 1Q771 -33 769 -46T765 -48L762 -74Q777 -76 790 -79T804 -85Q832 -89 845 -97T858 -115Q858 -125 840 -134T787 -148ZM765 -46Q771 -11 782 39T813 146Q794
96 781 50T766 -27Q765 -33 765 -38T765 -46Z" />
<glyph unicode="N" glyph-name="N" horiz-adv-x="679" d="M586 -22Q549 -18 535 6T521 65Q521 98 530 134T551 199T573 244Q574 245 569 233T559 207T552 189Q572 233 598 281T651 372T699 448T729 491Q720 490 691 471T621 419T533 349T443 273T365 202T315 151Q319
152 330 161T354 183T377 205T390 215Q354 179 332 158T294 117T258 70Q299 64 299 47Q299 34 273 20T206 -1Q189 -2 183 6T176 26Q176 40 180 54T189 79Q197 100 222 139T283 228T360 331T440 435T510 525T559 586Q538 569 533 562T518 553Q531 567 543 579T563
610Q559 611 554 611T542 611Q511 611 468 606T376 592T282 572Q272 570 248 561T191 538T128 506T74 468T44 425Q47 418 47 412Q47 396 32 396Q20 396 8 408T-5 443Q-5 457 1 473Q6 487 15 500T35 525Q31 520 27 514T27 512Q41 523 71 538T138 568T208 598T264
621T286 634Q286 634 286 634T283 635Q281 635 275 634T261 631L242 627Q210 620 173 607T100 574T39 529Q95 589 189 621T413 653Q451 653 493 650Q444 652 393 649T299 638Q323 642 349 644T405 646Q439 646 476 643T555 635Q557 635 559 635T563 634Q573 634
573 637Q573 641 561 643Q546 645 531 647T502 650Q520 649 537 647T570 642Q570 653 579 653Q581 653 583 653T589 651Q601 648 618 639T650 617T664 589Q664 586 662 580Q650 568 625 540T567 472T496 389T423 300T355 216Q366 228 376 239T397 263Q433 295 481
337T580 421T676 498T754 547Q764 548 780 539T808 517T820 493Q809 477 784 442T728 360T667 265Q642 223 622 179T591 97T580 30Q580 -1 595 -12Q601 -16 601 -19Q601 -23 586 -22Z" />
<glyph unicode="O" glyph-name="O" horiz-adv-x="516" d="M178 -32Q158 -32 145 -21T114 8Q91 6 76 21T53 61T45 111Q45 124 46 136T52 158Q160 455 476 630Q496 631 519 620T562 590T592 548Q596 560 598 570T602 591Q604 607 596 612T580 620T578 628Q582 631
587 632T599 633Q606 633 612 633T623 632Q648 632 668 617T685 570Q681 539 663 498T618 412T561 323T503 242T455 179Q469 193 494 221T541 279Q547 288 560 308T588 351T613 388T622 402Q600 354 571 309T514 228T466 169T443 143Q398 91 348 52T253 -10T178
-32ZM155 6H156Q158 6 162 7T172 12Q190 22 220 44T280 91Q315 121 358 178T455 311Q407 244 353 182T249 76T164 14Q184 26 220 56T301 130T391 230Q409 252 430 282T474 343T516 400L505 383L543 436L516 400Q536 432 552 461T580 518Q573 524 564 531T546 544Q536
550 523 550Q489 550 432 509Q395 481 351 441T262 347T179 228T117 82Q115 74 115 68Q115 49 126 30T154 11Q157 11 163 13Q155 8 155 6ZM455 311Q458 315 463 323T472 337T473 338L455 311Z" />
<glyph unicode="P" glyph-name="P" horiz-adv-x="727" d="M177 617Q223 631 273 638T378 646Q391 646 404 646T431 644Q422 644 413 644T394 645Q345 645 300 641T222 629Q212 626 201 624T177 617ZM270 -11Q263 -11 256 -11T241 -9Q218 -5 210 11T201 47Q201
66 206 81Q212 101 235 139T291 226T361 327T434 429T499 516T543 575Q523 559 511 541T488 520Q500 534 520 557T545 599Q537 601 527 601T506 601Q459 601 392 593T265 572Q255 570 231 562T177 540T116 510T65 474T37 433Q41 425 41 418Q41 404 27 404Q15 404
1 418T-13 457Q-13 470 -9 482Q-4 499 6 513T29 541L25 539L32 543L29 541Q62 559 94 577T170 609Q214 624 268 633T387 643Q425 643 468 639T557 626Q564 624 564 627Q564 629 556 630Q531 635 506 638T457 643Q481 642 504 640T550 632V635Q550 642 558 642Q560
642 568 640Q576 637 588 631T613 617Q648 617 688 609T764 585T823 545T846 489Q846 467 834 443Q837 430 837 417Q837 386 824 360T788 311Q799 321 809 334T833 373Q824 345 812 330T787 303Q764 280 737 267T668 233Q658 229 643 225T609 215Q659 230 706 254T786
309L778 302Q746 274 720 262T689 248Q670 241 639 231T580 213T541 202L539 201Q549 202 559 203T579 207Q582 208 585 209Q585 209 584 209T579 207Q538 198 502 193T437 188Q421 188 417 190T411 197Q411 202 418 206Q420 207 421 208T425 210Q470 220 521 238T623
282T713 337T778 398T803 460Q803 488 779 509T718 544T646 566Q635 554 611 525T554 456T487 371T417 282Q398 257 376 227T334 165T300 105T287 57Q287 47 290 41Q334 34 334 16Q334 6 317 -2T270 -11ZM158 611H159L160 612H161H162Q163 613 163 613T164 613Q165
613 165 613Q166 614 166 614Q167 614 167 614Q168 614 168 614Q169 615 169 615T169 615Q170 615 171 615H169L168 614H167H166L165 613H164Q164 613 164 613T162 612Q162 612 161 612Q161 612 160 612Q160 611 160 611T159 611Q159 611 158 611ZM144 606H145V606V606H146V606L147
607V607V607Q147 607 147 607T148 607Q149 608 148 608Q149 608 149 608H148V607Q148 607 148 607T147 607Q147 607 147 607Q147 607 147 607Q146 607 146 606Q146 606 146 606Q146 606 145 606Q145 606 145 606Q146 606 145 606Q144 606 144 606ZM32 543Q54 564
83 579T144 606Q116 595 90 581T40 549L32 543Z" />
<glyph unicode="Q" glyph-name="Q" horiz-adv-x="537" d="M178 -32Q158 -32 145 -21T114 8Q91 6 76 21T53 61T45 111Q45 124 46 136T52 158Q160 455 476 630Q496 631 519 620T562 590T592 548Q596 560 598 570T602 591Q604 607 596 612T580 620T578 628Q582 631
587 632T599 633Q606 633 612 633T623 632Q648 632 668 617T685 570Q681 539 663 498T618 412T561 323T503 242T455 179Q469 193 494 221T541 279Q547 288 560 308T588 351T613 388T622 402Q600 354 571 309T514 228T466 169T443 143Q398 91 348 52T253 -10T178
-32ZM155 6H156Q158 6 162 7T172 12Q190 22 220 44T280 91Q315 121 358 178T455 311Q407 244 353 182T249 76T164 14Q184 26 220 56T301 130T391 230Q409 252 430 282T474 343T516 400Q510 391 504 382T491 363Q504 380 517 398T543 436L516 400Q536 432 552 461T580
518Q573 524 564 531T546 544Q536 550 523 550Q489 550 432 509Q395 481 351 441T262 347T179 228T117 82Q115 74 115 68Q115 49 126 30T154 11Q157 11 163 13Q155 8 155 6ZM-77 -169Q-87 -169 -91 -156L-93 -157Q-103 -144 -110 -129T-118 -102Q-118 -86 -103
-86Q-98 -86 -95 -87Q-45 -79 21 -70T158 -51T297 -34T419 -24T503 -23Q519 -25 519 -28Q519 -32 502 -33Q414 -41 328 -58T164 -93L24 -127Q35 -136 35 -147Q34 -158 31 -158Q29 -158 24 -153Q21 -150 6 -150Q-13 -150 -35 -155Q-47 -158 -58 -163T-77 -169Z"
/>
<glyph unicode="R" glyph-name="R" horiz-adv-x="712" d="M177 617Q223 631 273 638T378 646Q391 646 404 646T431 644Q422 644 413 644T394 645Q345 645 300 641T222 629Q212 626 201 624T177 617ZM550 -35Q522 -28 514 -19T505 0Q484 17 461 44T421 110T396
193V199Q396 209 403 209Q408 209 415 204L418 206Q420 207 421 208T425 210Q470 220 521 238T623 282T713 337T778 398T803 460Q803 488 779 509T718 544T646 566Q635 554 611 525T554 456T487 371T417 282Q398 257 376 227T334 165T300 105T287 57Q287 47 290
41Q334 34 334 16Q334 6 317 -2T270 -11Q263 -11 256 -11T241 -9Q218 -5 210 11T201 47Q201 66 206 81Q212 101 235 139T291 226T361 327T434 429T499 516T543 575Q523 559 511 541T488 520Q500 534 520 557T545 599Q537 601 527 601T506 601Q459 601 392 593T265
572Q255 570 231 562T177 540T116 510T65 474T37 433Q41 425 41 418Q41 404 27 404Q15 404 1 418T-13 457Q-13 470 -9 482Q-4 498 4 511T25 537Q34 541 60 556T117 586T170 609Q214 624 268 633T387 643Q425 643 468 639T557 626Q564 624 564 627Q564 629 556 630Q531
635 506 638T457 643Q481 642 504 640T550 632V635Q550 642 558 642Q560 642 568 640Q576 637 588 631T613 617Q648 617 688 609T764 585T823 545T846 489Q846 467 834 443Q837 430 837 417Q837 388 826 363T794 317V317Q794 317 794 317Q803 326 812 339T833 373Q824
345 812 330T787 303Q764 280 737 267T668 233Q658 229 643 225T609 215Q620 218 633 224T661 238Q639 231 615 224T570 210T541 202L539 201Q549 202 559 203T579 207Q582 208 585 209Q585 209 584 209T579 207Q538 198 502 193T437 188H429Q487 112 525 86T588
60Q611 60 623 72T640 91Q648 101 657 101Q661 101 661 97Q661 96 661 94T659 89Q653 73 638 54T605 18Q610 15 614 8Q618 3 605 -8T575 -28T550 -35ZM158 611H159L160 612H161H162Q163 613 163 613T164 613Q165 613 165 613Q166 614 166 614Q167 614 167 614Q168
614 168 614Q169 615 169 615T169 615Q170 615 171 615H169L168 614H167H166L165 613H164Q164 613 164 613T162 612Q162 612 161 612Q161 612 160 612Q160 611 160 611T159 611Q159 611 158 611ZM144 606H145V606V606H146V606L147 607V607V607Q147 607 147 607T148
607Q149 608 148 608Q149 608 149 608H148V607Q148 607 148 607T147 607Q147 607 147 607Q147 607 147 607Q146 607 146 606Q146 606 146 606Q146 606 145 606Q145 606 145 606Q146 606 145 606Q144 606 144 606ZM32 543Q54 564 83 579T144 606Q116 595 90 581T40
549L32 543ZM29 541Q29 541 29 541T25 537Q21 535 21 535Q21 535 23 536T29 541L25 539L32 543L29 541Z" />
<glyph unicode="S" glyph-name="S" horiz-adv-x="463" d="M34 -109Q23 -109 11 -105T-10 -91Q-19 -82 -19 -74Q-19 -69 -16 -64T-8 -54Q1 -43 26 -25T83 17L55 -9Q51 -13 48 -20T48 -24Q57 -13 90 13T160 68L83 17Q117 43 153 69T218 116T262 145Q263 146 265
146Q269 146 269 143Q269 139 261 136Q249 131 221 112T160 68Q199 94 234 115T289 148Q277 156 250 166T189 190T119 225T56 272Q43 284 38 297T32 324Q32 355 57 388T125 453T218 513Q242 526 267 538T318 562Q290 552 263 541T211 518Q210 517 209 517T208 517L226
528Q279 554 333 573T437 608Q408 599 378 588T318 562Q377 583 436 598T547 622T631 632Q650 633 650 637Q650 640 640 640Q606 639 558 633T454 613Q507 628 554 637T637 646Q655 646 670 643Q683 641 693 627T711 594T722 559L723 562Q727 569 728 574T732 585Q734
588 741 577T755 552T760 528Q757 510 741 489T704 447T661 414T623 401Q619 401 613 403Q625 413 635 424T654 446Q616 412 569 382T478 332T410 313Q397 313 397 318Q397 323 408 330T424 341Q448 352 483 377T556 432T621 491T660 538Q661 548 645 552T603 556Q570
556 524 549T426 529T328 498T246 457Q222 444 198 425T158 383T142 340Q142 323 157 308Q197 272 243 248T329 206T387 167Q392 162 394 152T397 131Q397 112 391 95T374 76Q290 59 231 35T134 -12T80 -50T60 -64Q68 -75 68 -85Q68 -96 58 -102T34 -109ZM437 608L441
609H443L446 610L448 611Q451 612 451 612T454 613Q454 613 454 613T448 611Q447 611 446 610Q444 610 443 609Q442 609 441 609T441 609Q439 608 437 608Z" />
<glyph unicode="T" glyph-name="T" horiz-adv-x="578" d="M264 606Q300 614 338 618T417 624Q376 623 337 618T264 606ZM603 607Q568 614 533 618T463 624Q500 623 535 619T603 607ZM244 -19Q219 -17 196 5T173 62Q173 95 194 139T250 233T326 334T410 430T489
511T547 565Q543 561 529 551T501 529Q505 534 520 547T546 568Q492 568 429 565T305 547Q295 545 271 537T217 516T156 486T105 449T77 408Q81 400 81 393Q81 379 68 379Q56 379 42 393T27 433Q27 446 31 458Q42 491 67 515L65 514Q61 512 62 513T68 517L67 515Q112
540 165 564T286 604T436 620Q474 620 516 616T604 603Q609 602 617 601T629 600H630Q630 601 607 606Q604 606 603 607Q616 615 624 618T639 621Q646 621 663 619T697 611T714 593Q762 589 807 577T875 552Q893 542 893 531Q893 519 874 522Q856 525 828 529T768
537T708 543T661 543Q621 514 567 471T457 376T353 266T276 149T249 34Q250 18 262 7T274 -11Q274 -15 268 -17T244 -19ZM210 591Q204 590 212 592T232 597L255 604Q253 604 257 604T264 606Q258 604 256 604H255Q259 605 255 604V604Q252 603 246 602T232 597L210
591ZM68 517Q96 543 134 561T210 591Q174 579 142 562T80 524L68 517Z" />
<glyph unicode="U" glyph-name="U" horiz-adv-x="716" d="M610 -39Q574 -35 560 -10T546 51Q546 86 555 123T575 190T592 232Q582 199 579 187T576 172Q587 204 601 241T633 306Q568 235 518 185T419 96T313 22Q293 10 272 3T231 -5Q210 -5 197 6T183 42Q183 58
189 79Q204 130 239 188T321 306T414 420T500 517T559 586Q538 569 533 562T518 553Q531 567 543 579T563 610Q543 612 508 602T432 577T356 546T300 521Q289 516 262 501T205 464T153 415T129 360Q136 350 136 342Q136 330 122 330Q108 330 91 346T73 394Q73 431
94 460T147 513Q126 495 112 476T87 436Q84 431 83 423T84 420Q98 448 130 484T220 553T361 609T562 632Q576 632 576 634Q576 636 571 637T559 637Q559 642 565 647T581 652Q586 652 589 651Q601 648 623 636T663 608T681 576Q681 574 681 572T679 568Q666 555
637 526T568 456T485 369T401 277T328 188T280 115Q267 90 267 78Q267 65 281 65Q295 65 315 75T344 93Q388 127 420 156T481 213T541 276T614 355Q639 382 657 408T694 459T743 508Q755 509 775 497T811 469T827 439Q815 419 784 377T716 280T645 166Q614 111
601 78T588 24Q588 6 597 -4T619 -24Q625 -27 625 -32Q625 -40 610 -39ZM280 587Q310 599 353 611T444 630T533 638Q540 638 546 638T559 637Q475 633 406 620T280 587ZM160 523Q210 558 280 587L273 583Q248 569 218 556T160 523ZM147 513L148 514H149L150 515H151L152
516L153 517V517Q154 518 155 518Q155 519 156 519Q156 520 156 520T157 520Q157 520 158 521L157 520L156 519L155 518Q154 518 153 517Q153 517 153 517Q152 516 152 516Q151 516 151 515Q150 515 150 515Q150 515 149 514Q149 514 149 514T148 514Q148 513 147
513Z" />
<glyph unicode="V" glyph-name="V" horiz-adv-x="689" d="M330 -31Q295 -31 271 -1T236 69Q235 73 235 76T234 84Q234 114 257 156T319 250T402 359T491 474Q485 474 470 456T433 410T388 350T342 289Q345 294 361 317T399 372T444 435T481 487T498 511Q504 520
517 532T530 552Q530 556 520 556Q517 556 513 556T502 554Q481 550 446 537T370 506T287 464T211 417T157 370T138 326Q140 302 134 295T119 279Q114 275 105 275Q89 275 74 291T58 332Q58 346 63 360T82 391Q109 425 159 458T273 519T401 566T522 592Q540 594
561 579T596 543T611 506Q611 498 607 494Q593 479 567 448T507 375T441 288T379 197T334 113T316 45Q316 41 316 38T318 30Q324 11 340 11Q357 11 380 27T427 65T466 104T484 124Q520 157 557 203T631 300T698 401T754 495T792 566Q795 572 786 579T775 593Q772
607 779 618T802 624Q835 614 858 591T882 547Q882 539 880 536Q867 509 846 473T808 409Q809 413 814 425T827 453T839 478T843 487Q817 443 776 381T683 253T579 129Q607 156 635 187T690 253Q720 293 747 332T799 406Q769 351 740 310T671 220Q604 139 549 88T455
12Q450 9 440 4T424 -5T421 -5L427 0Q414 -6 402 -10T378 -16Q353 -31 330 -31ZM430 2Q465 21 503 54T579 129Q530 80 489 48T430 2Z" />
<glyph unicode="W" glyph-name="W" horiz-adv-x="955" d="M255 -26Q233 -26 221 -9T208 31Q208 59 232 103T296 204T387 330T491 474Q493 476 485 467T465 444T441 414T422 390T415 383L498 511Q504 520 517 532T530 552Q530 556 520 556Q517 556 513 556T502
554Q481 550 446 537T370 506T287 464T211 417T157 370T138 326Q140 302 134 295T119 279Q114 275 105 275Q89 275 74 291T58 332Q58 346 63 360T82 391Q109 425 159 458T273 519T401 566T522 592Q540 594 561 579T596 543T611 506Q611 498 607 494Q567 451 522
398T436 292T371 200Q358 179 345 162T331 142Q331 140 342 149T380 183Q389 192 413 215T469 270T537 334T606 396T666 444T705 464Q712 465 726 459T753 443T775 423T778 407Q766 392 748 365T712 303T677 234Q658 193 646 155T634 94Q634 65 654 65Q667 65 689
79T746 124Q782 157 819 203T893 300T960 401T1016 495T1054 566Q1057 572 1048 579T1037 593Q1034 607 1041 618T1064 624Q1097 614 1120 591T1144 547Q1144 539 1142 536Q1129 509 1108 473T1070 409Q1071 413 1076 425T1089 453T1101 478T1105 487Q1090 462
1071 431T1028 364L1058 406Q1038 370 1021 342T986 287T945 229Q922 197 892 163T832 99T777 48Q771 44 770 48Q745 27 723 15T681 0Q655 5 630 18T586 50T563 89Q560 104 560 114Q560 124 562 136T569 167Q578 208 595 253T630 335T661 388Q633 369 594 337T510
265T424 184T347 106T294 42Q305 52 322 70T354 104T376 125Q368 116 355 101T330 69T309 42T300 30Q301 27 301 22Q301 3 285 -11T255 -26ZM770 48Q812 83 857 135T947 248T1028 364L935 235Q877 154 831 112T777 61Q770 55 770 48Z" />
<glyph unicode="X" glyph-name="X" horiz-adv-x="660" d="M558 -8Q507 -8 488 22T468 98Q468 123 473 150T485 205Q429 155 369 106T244 26T105 -6Q80 -6 53 4T7 34T-12 84Q-12 125 25 160T121 221T248 256Q296 262 316 262Q340 262 340 256Q340 251 325 244T294
235Q249 228 207 217T137 192Q153 198 168 202T206 213T271 228Q249 222 217 211T151 186T86 154T37 120T18 87Q18 65 39 57T83 48Q149 48 216 76T355 151T500 254Q507 274 514 290T526 320Q556 386 593 450T676 575Q652 574 622 561T561 530T505 492Q499 487 478
469T432 425T391 371T378 315Q386 303 386 294Q386 285 378 285Q367 285 352 305T337 369Q337 381 339 392T344 415L342 412L345 417L344 415Q365 447 394 480T465 541T560 584T686 598Q691 598 693 599Q678 602 660 602Q628 602 592 595T522 575T463 549Q510 578
567 593T689 607Q694 607 696 604T693 599L696 598Q718 601 738 588T766 554Q760 548 742 523T698 463T648 389T606 316Q643 348 695 387T806 468T916 544T1005 605T1052 637Q1062 644 1067 634T1073 607Q1073 593 1069 582Q1065 569 1047 552T1005 534Q1003 534
1000 534T995 535Q943 503 875 460T734 370T590 278Q582 261 572 230T555 164T547 98Q547 70 556 51T589 31Q613 31 652 54Q656 56 657 56Q661 56 661 51Q661 42 650 34Q630 20 609 6T558 -8ZM346 421Q360 459 386 487T437 534Q446 541 463 549Q424 527 396 495T348
424L346 421Z" />
<glyph unicode="Y" glyph-name="Y" horiz-adv-x="679" d="M231 -288Q218 -284 202 -276T186 -251Q186 -245 189 -239L191 -235Q176 -219 166 -201T156 -166Q156 -159 157 -156Q184 -116 234 -73T350 9T491 75Q507 96 520 116T546 155Q545 155 558 179T588 234Q539
185 494 148T405 81T313 22Q293 10 272 3T231 -5Q210 -5 197 6T183 42Q183 58 189 79Q204 130 239 188T321 306T414 420T500 517T559 586Q538 569 533 562T518 553Q531 567 543 579T563 610Q543 612 508 602T432 577T356 546T300 521Q289 516 262 501T205 464T153
415T129 360Q136 350 136 342Q136 330 122 330Q108 330 91 346T73 394Q73 432 96 462T153 516Q156 518 158 520Q158 520 158 520T153 516Q130 499 114 478T87 436Q84 431 83 423T84 420Q98 448 130 484T220 553T361 609T562 632Q576 632 576 634Q576 636 571 637T559
637Q559 642 565 647T581 652Q586 652 589 651Q601 648 623 636T663 608T681 576Q681 574 681 572T679 568Q666 555 637 526T568 456T485 369T401 277T328 188T280 115Q267 90 267 78Q267 65 281 65Q295 65 315 75T344 93Q388 127 425 153T496 204T566 261T644
337Q667 361 670 361Q672 361 665 351T645 326Q658 325 676 317T707 299T718 283Q718 283 703 256T659 184T591 84L617 86H620Q634 86 634 77Q634 69 621 66Q609 62 594 57T564 46L553 33L558 40L559 42L490 -37Q475 -54 452 -78T404 -127T356 -173T321 -207T310
-219Q363 -179 412 -130T509 -20Q516 -10 526 1T545 23Q534 7 517 -16T477 -67Q463 -84 439 -107T389 -153T341 -195T310 -219Q317 -219 321 -222Q325 -224 314 -235T286 -259T253 -281T231 -288ZM280 587Q310 599 353 611T444 630T533 638Q540 638 546 638T559
637Q475 633 406 620T280 587ZM160 522Q208 557 280 587L273 583Q248 569 218 556T160 522ZM232 -244Q259 -217 295 -178T368 -96T434 -21Q447 -7 460 8T484 39Q466 17 460 13T453 8Q436 1 408 -18T347 -63T287 -119T241 -176T223 -223Q223 -235 232 -244Z" />
<glyph unicode="Z" glyph-name="Z" horiz-adv-x="520" d="M67 -43Q54 -43 42 -30T24 3T19 36Q19 39 48 64T125 129T232 218T355 319T478 419T584 507T659 569Q606 561 554 547T451 520Q396 506 370 500T344 492Q344 491 435 510Q394 498 356 490T284 481Q265 481
247 496T215 532T193 575T185 607Q185 613 190 613Q195 613 203 609T212 602Q220 593 243 589T301 585Q346 585 402 590T513 601T614 613T681 618Q693 618 706 603T729 568T739 530Q739 517 732 510Q720 497 694 477T635 434T567 385T502 338T451 300Q348 218 263
154T127 50Q148 64 183 74T261 90T345 92Q345 92 344 92H346H347Q358 92 380 90T422 83T450 71Q430 79 409 82Q441 74 464 59T496 19Q497 17 497 12Q497 6 494 4T486 6Q480 8 460 18T407 37T331 46Q289 46 239 33T130 -17Q103 -33 90 -38T67 -43ZM409 82Q400 84
383 86T352 90T342 92Q327 91 301 89T246 83T191 73T147 56Q186 69 216 74T268 81Q285 82 308 83T357 85Q384 85 409 82Z" />
<glyph unicode="[" glyph-name="bracketleft" horiz-adv-x="404" d="M166 -56Q166 -56 153 -54T121 -50T90 -50Q81 -51 65 -51T32 -52T2 -52T-10 -52Q-12 -50 0 -24T32 43T77 130T123 217T161 286Q174 309 193 345T232 425T272 509Q274 512 270 505T259 487T249
469T246 464Q254 481 267 508T296 564T325 620T349 662T359 680Q363 682 385 683T436 684Q465 684 495 683T545 680Q553 680 549 670T535 650T520 639Q511 639 486 642T438 645Q432 645 428 645T419 644Q414 638 400 611T365 545T321 461T276 371T235 290T205 231T194
209L214 236L138 98L81 -16Q94 -15 109 -14T138 -12Q142 -11 145 -11T153 -11Q171 -11 184 -13T198 -16Q206 -16 201 -26T185 -46T166 -56Z" />
<glyph unicode="\" glyph-name="backslash" horiz-adv-x="290" d="M266 -32Q252 -32 252 -27Q252 -22 259 -13T266 9Q266 46 254 92T226 179T200 246Q196 256 185 281T160 341T130 411T100 479T77 532Q84 512 95 484T118 426T141 373T156 339Q153 344 145 362T125
405T102 452T84 490Q82 495 76 509T62 539T49 569T44 584Q44 594 53 607T76 631T104 642Q116 642 126 632T141 597Q144 583 153 555T174 493T200 425T224 368Q223 373 224 373T224 376T217 401T193 468Q200 454 209 432T226 387T240 346T250 320Q256 304 267 274T291
206T317 132T337 68T345 30Q345 27 344 17T337 -4T314 -23T266 -32Z" />
<glyph unicode="]" glyph-name="bracketright" horiz-adv-x="406" d="M99 -60Q70 -60 40 -59T-10 -56Q-17 -55 -13 -46T0 -26T15 -15Q24 -15 49 -18T97 -21Q103 -21 107 -21T116 -20Q121 -14 135 13T170 79T214 163T259 253T300 334T330 393T341 415L321 388L397
526L454 640Q441 639 426 639T397 636Q393 635 390 635T382 635Q364 635 351 637T337 640Q330 641 335 651T350 671T369 680Q369 680 382 678T414 675T445 674Q454 675 470 675T504 676T533 676T545 676Q547 674 535 648T503 581T458 494T412 407T374 338Q361 315
342 279T303 199T263 115Q262 112 266 119T276 137T286 155T289 160Q281 143 268 117T240 61T210 5T187 -38T176 -56Q173 -58 151 -59T99 -60Z" />
<glyph unicode="^" glyph-name="asciicircum" horiz-adv-x="468" d="M366 431Q352 431 345 438Q344 440 334 452T310 483T283 517L292 497Q286 506 281 515T273 531L268 538Q265 543 267 545Q265 551 265 553Q231 530 191 500T117 445Q112 442 104 451T95 469Q99
483 107 494T125 505Q132 505 141 499Q170 525 206 553T273 606Q289 619 297 619Q309 619 323 587Q332 565 347 535T378 482Q386 472 405 472Q424 472 444 483Q445 484 448 484Q457 484 457 476Q457 469 444 460Q432 453 409 442T366 431ZM334 444Q324 451 313
465T292 497Q301 483 312 469T334 444Z" />
<glyph unicode="_" glyph-name="underscore" horiz-adv-x="485" d="M0 -93V-41H485V-93H0Z" />
<glyph unicode="`" glyph-name="grave" horiz-adv-x="232" d="M227 454Q199 454 165 466T95 496Q111 489 127 483T159 472H160Q161 472 153 476T141 482Q131 486 116 492T83 505L71 510Q71 512 71 512T66 514Q59 516 54 520T42 531Q39 538 45 546T63 561T83 568Q87
568 93 564Q130 536 171 507T239 455Q236 454 233 454T227 454Z" />
<glyph unicode="a" glyph-name="a" horiz-adv-x="407" d="M74 -17Q68 -17 56 -4T31 26T12 51Q21 90 43 132T96 216T156 292T210 351Q193 338 174 318T148 290Q136 278 124 267T102 244Q132 281 161 312T204 353Q207 356 212 360T225 365L233 374Q260 373 291 358T344
318T368 262Q368 258 364 255T358 258Q351 273 342 285T322 304Q312 310 301 310Q289 310 279 302Q259 287 232 258T177 194T128 128T98 75Q104 82 119 95T151 121T180 144Q184 147 197 156T224 175T248 190Q248 188 237 179T209 159T180 139T163 127Q152 117 138
104T111 80T95 64Q93 60 94 59T98 62Q107 75 125 90T164 120T203 149Q223 164 239 175T269 197Q270 218 284 226T307 231Q313 229 325 224T348 211T354 194Q347 178 344 145T340 83Q340 43 365 43Q378 43 400 57Q408 62 412 62Q415 62 415 59Q415 55 410 48T403
38Q391 25 375 15T341 4Q334 4 327 6T313 13Q288 30 278 65T267 125Q267 131 267 136T269 145Q258 136 233 115T176 67T117 17T74 -17Z" />
<glyph unicode="b" glyph-name="b" horiz-adv-x="393" d="M86 -25Q67 -25 50 -21Q31 -21 17 -17T2 18Q2 30 6 39Q2 47 2 59Q2 82 19 104Q45 145 86 201T176 318T273 435Q313 481 330 503T348 532Q344 536 343 541T341 550Q341 556 342 560T343 567V575Q343 581
344 585T353 590Q355 590 357 590T363 588Q376 584 396 572T432 545T441 514Q441 504 431 493T396 460T326 392Q262 328 209 268T99 136Q109 146 136 172T198 232T271 296T340 348T391 373Q411 373 423 366T436 339Q448 330 448 313Q448 294 436 269T404 221T367
181Q366 180 375 191T396 218T418 251T429 279Q421 263 406 239T375 194T351 164Q323 133 294 111T248 67Q259 75 277 89T315 121T351 155Q350 151 337 139T306 110T269 78T237 52T222 42Q186 13 155 -6T86 -25ZM34 15Q60 16 91 27T151 56T195 89Q229 123 263 167T324
254T362 328Q347 321 328 310T291 286T263 267Q226 241 193 208T132 143T87 87T65 51Q63 44 62 36T47 27Q38 27 27 31Q24 32 22 33T16 36Q19 28 23 22T34 15Z" />
<glyph unicode="c" glyph-name="c" horiz-adv-x="344" d="M118 -7Q96 -7 71 10T29 50T11 92Q11 122 27 156T69 226T127 291T191 343Q193 354 208 365T244 377Q256 377 267 373Q279 373 295 357T324 321T339 292Q339 277 323 261T289 232T262 220Q258 220 258 223Q258
229 271 245Q276 250 283 261T296 283T302 300Q283 299 254 283T193 241T133 185T88 126T70 74Q70 64 75 57T95 50Q110 55 130 66T174 91L154 73Q151 70 143 61T139 53Q159 70 184 89T238 130Q222 120 206 110T174 91L229 132Q269 162 304 184T371 220Q343 203
311 181T245 135Q283 159 320 182T387 221Q404 230 412 230Q419 230 419 225Q419 221 411 212T385 194Q364 183 336 162T276 114T214 63T158 19Q146 10 136 4T118 -7Z" />
<glyph unicode="d" glyph-name="d" horiz-adv-x="401" d="M61 -30Q55 -30 43 -25T22 -10T12 7Q12 12 17 20L18 22Q4 41 2 51Q14 95 41 140T99 228Q83 212 70 196T46 169Q63 195 90 224T139 278Q129 266 119 254T99 228Q105 234 110 240T122 251Q128 257 141 271T171
302T202 333T225 352Q238 361 231 361Q226 361 215 351T193 330T179 316L139 278Q168 311 193 337T236 380Q257 379 282 370T325 342Q356 313 362 281Q397 330 433 380T503 476T562 554T598 604Q595 609 592 613T589 620Q589 626 606 625Q620 624 638 613T670 589T679
564Q667 552 640 522T577 451T500 364T422 272Q416 265 402 245T370 198T336 140T308 81T297 32Q297 5 316 0Q329 -4 329 -8Q329 -13 315 -13Q304 -13 291 -9Q267 -2 258 14T248 51Q248 81 261 113T287 168Q256 139 218 104T145 38Q147 38 149 36Q153 34 143 24T115
1T83 -21T61 -30ZM97 48Q111 57 136 75T192 118T257 170T318 223Q314 225 314 232Q314 239 318 247Q327 264 331 277T335 300Q335 324 316 324Q301 324 282 309Q265 296 239 270T186 211T135 147T99 91T90 55L241 166Q243 168 244 169T246 170Q247 170 242 165T232
154Q218 143 192 124T140 85T95 50Q91 47 91 46T97 48Z" />
<glyph unicode="e" glyph-name="e" horiz-adv-x="344" d="M120 -7Q98 -7 73 10T31 50T13 92Q13 128 34 169T90 251T164 322T239 367Q249 371 257 372T269 373Q281 373 297 357T326 321T341 292Q341 276 323 254T274 208T210 164T143 133T88 122Q72 93 72 74Q72
64 77 57T97 50Q121 58 157 79T234 126T316 178T389 221Q406 230 414 230Q421 230 421 225Q421 221 413 212T387 194Q378 189 367 182T344 166Q316 146 285 120T222 68T164 22T120 -7ZM109 155Q139 166 173 186T237 228T285 269L290 274Q290 276 278 267L194 205Q193
204 191 204Q190 204 192 206T199 212Q219 226 240 243T280 277Q304 296 304 300Q281 300 245 278T173 223T109 155Z" />
<glyph unicode="f" glyph-name="f" horiz-adv-x="418" d="M-31 -295Q-74 -295 -100 -267T-127 -202Q-127 -162 -102 -112T-37 -9T46 95T127 185T185 251Q175 248 158 244T126 236T105 232Q98 232 94 237T87 248Q80 252 80 254Q79 258 79 261T78 266Q78 282 95
282T129 284Q146 287 164 294T184 307Q188 314 189 314Q192 314 196 305Q198 302 198 295Q198 287 194 280L213 283Q249 329 288 378T364 472T428 553T470 604Q470 604 470 605T468 606Q464 606 452 593Q423 561 394 528T344 474T324 454Q324 455 338 473T373 518T415
570T452 614T468 632Q471 633 478 628T490 620Q499 617 513 603T538 572T545 545Q531 533 507 510T454 458T395 399T341 343T302 300Q322 305 348 310T400 320T447 328T475 333Q479 334 485 334Q494 334 494 330Q494 326 487 321T471 314Q470 314 454 310T416 301T377
290Q363 287 340 282T299 273T281 268Q290 268 312 272T360 281T401 288Q387 283 364 279T316 269T274 255Q264 245 251 231T221 198Q224 198 226 197Q252 187 277 174T318 145T332 105Q328 56 297 -7Q311 14 321 36T338 79Q332 36 305 -8T244 -94Q261 -72 274
-50T297 -7Q270 -50 241 -83T202 -127Q184 -146 163 -167T121 -206T89 -235T79 -245Q95 -237 120 -215T170 -170Q184 -156 200 -141T231 -109Q215 -128 199 -147T164 -186Q96 -253 48 -274T-31 -295ZM-61 -271Q-34 -271 0 -248T71 -187T141 -103T202 -12T246 72T262
133Q262 154 252 162T230 174Q225 176 221 181T215 191Q183 155 144 110T69 17T4 -71Q0 -76 -13 -96T-43 -144T-72 -199T-84 -246Q-84 -256 -78 -263T-61 -271ZM231 -109L244 -94L245 -93Q245 -93 240 -99T231 -109Z" />
<glyph unicode="g" glyph-name="g" horiz-adv-x="351" d="M-112 -359Q-117 -359 -128 -354T-149 -341T-159 -322Q-159 -316 -156 -310L-154 -306Q-169 -290 -179 -272T-189 -237Q-189 -230 -188 -227Q-161 -187 -108 -143T15 -58T159 10Q168 19 188 45T230 103T270
165T292 208Q279 201 257 180T208 131T156 75T109 25T74 -7Q68 -7 55 7T28 39T7 66Q10 99 29 136T76 210T135 280T193 341T238 384Q267 383 296 376T344 352T364 307Q364 298 362 288T353 265Q362 260 368 254T373 239Q370 215 354 185T317 126T279 76T256 47Q270
53 278 54T301 58Q305 59 308 59T313 59Q321 59 321 55Q321 51 315 46T304 39Q300 37 286 30T256 15T226 -1Q206 -28 176 -65T111 -142T39 -221T-35 -290Q-28 -290 -24 -293Q-19 -295 -29 -305T-55 -328T-88 -350T-112 -359ZM87 61Q98 75 118 96T151 129L110 73Q109
72 109 71Q109 70 113 72T119 78Q132 95 150 119T190 165Q181 157 172 150T155 134Q188 174 222 207T270 252Q274 255 280 259T295 265Q297 266 299 265T301 262Q304 264 306 265T310 266Q318 268 327 271T337 274Q340 285 335 298T322 322T309 338Q289 320 262
293T206 234T151 170T108 109T87 61ZM229 204Q249 223 268 238T298 261Q287 259 266 240T229 204ZM-113 -315Q-90 -292 -59 -259T4 -188T66 -118T116 -61Q102 -64 74 -82T12 -127T-52 -185T-102 -244T-122 -294Q-122 -307 -113 -315Z" />
<glyph unicode="h" glyph-name="h" horiz-adv-x="401" d="M220 -5Q210 -5 199 3T179 20T170 37Q170 43 173 43Q175 43 179 42T188 38Q185 45 183 51T181 63Q181 64 191 83T216 131T247 188T275 240T290 269L288 266Q283 258 272 241T249 204T229 172T221 160Q226
175 234 193T255 235Q216 197 172 153T90 69T34 0Q12 19 4 35T-5 66Q-5 72 -4 78T-1 90Q5 111 30 153T93 249T172 361T253 472T322 565T364 622Q364 622 364 622T363 623Q362 623 358 620T346 607Q324 579 301 550T259 497T228 459T216 446Q216 447 230 468T266
519T310 579T347 629T363 649H364Q368 649 374 646T385 641Q393 639 407 627T432 601T439 575Q427 563 401 533T340 462T265 375T188 283T118 199T66 134T43 102Q52 107 78 128T140 179T214 244T285 310T339 364L351 380Q364 375 379 367T406 349T418 329Q418 326
415 321Q366 252 335 209T299 155Q311 161 333 175T383 207Q415 227 449 248T518 283Q526 286 519 280T498 266T476 252Q492 260 503 264T534 277Q543 281 549 281Q556 281 551 274T536 258T515 242Q503 235 471 212T400 160T325 102Q308 89 293 75T266 49Q270
48 274 44T279 35Q279 28 267 19T241 2T220 -5ZM292 134Q305 145 334 164T398 206T459 243Q437 233 411 219T368 193Q343 177 326 167T298 145Q295 143 292 138T292 134Z" />
<glyph unicode="i" glyph-name="i" horiz-adv-x="234" d="M260 410Q247 416 233 433T219 462Q219 472 228 472Q233 472 240 471T254 469Q263 469 274 475T296 482Q310 482 318 463Q321 458 313 449T295 432T277 420Q282 420 293 427T311 442Q298 426 281 418T260
410ZM43 3Q25 19 19 29T12 49Q12 56 14 63T19 78Q30 115 55 158T109 242T162 316Q160 318 160 328Q160 342 165 359T181 373Q193 370 209 361T239 340T252 314Q252 311 250 305H249Q223 277 198 243T155 180T129 135Q135 138 142 143T157 155Q152 152 149 151T147
151Q173 172 207 194T278 234T346 265H348Q350 265 346 263T334 257Q327 254 315 248T288 232Q302 238 317 246T348 259Q353 261 357 262T364 263Q371 263 371 258Q371 251 357 238T321 213Q308 206 281 187T218 143T148 90T84 40T43 3ZM157 155Q162 157 167 160T175
165Q194 178 225 195T288 232Q238 208 209 190T157 155Z" />
<glyph unicode="j" glyph-name="j" horiz-adv-x="218" d="M266 412Q253 418 239 435T225 464Q225 474 234 474Q239 474 246 473T260 471Q269 471 280 477T302 484Q316 484 324 465Q327 460 319 451T301 434T283 422Q288 422 299 429T317 444Q304 428 287 420T266
412ZM-267 -304Q-287 -304 -307 -292T-328 -249Q-328 -232 -322 -217T-309 -191T-298 -180Q-297 -180 -297 -183Q-297 -184 -297 -187T-298 -193Q-299 -203 -300 -208T-301 -225Q-301 -237 -294 -254T-277 -267Q-256 -261 -231 -243T-181 -200T-135 -152T-101 -112Q-80
-86 -53 -48T4 36T62 128T114 215T150 287T164 331Q154 341 154 352Q154 369 170 374Q173 375 175 375T181 376Q200 376 216 362T234 328Q252 318 252 300Q252 283 240 263T211 223T181 190Q139 132 113 92T66 23T25 -33T-27 -91T-104 -167Q-76 -154 -40 -116T34
-26T104 73Q112 85 125 102T150 135T171 162T180 172Q165 146 129 91T46 -25Q28 -48 0 -83T-63 -157T-133 -228T-204 -283T-267 -304Z" />
<glyph unicode="k" glyph-name="k" horiz-adv-x="360" d="M260 -79Q236 -79 215 -50Q196 -24 182 18T168 103Q168 111 168 118T170 133Q173 151 189 158T213 163Q215 163 218 162T225 159Q248 170 280 200T334 270Q347 293 347 301Q347 310 335 302T308 282T285
262Q224 207 167 161T70 61Q56 42 46 28T34 0Q10 17 2 32T-6 61Q-6 69 -5 76T-1 90Q5 111 30 153T93 249T172 361T253 472T322 565T364 622Q359 619 357 618T348 609T324 580Q299 548 297 548Q296 548 303 559T321 586T343 618T360 640Q366 646 369 646Q371 646
374 645T385 641Q393 639 407 627T432 601T439 575Q427 563 401 533T340 462T265 375T188 283T118 199T66 134T43 102Q53 107 78 131T140 189T217 261T299 331T378 383Q392 383 409 371T430 347Q447 339 447 321Q447 303 432 282T401 247Q394 240 387 234T371 222Q388
239 403 260T434 307Q436 312 436 318T431 316Q415 280 390 250T337 196Q345 201 353 207T370 221Q348 196 325 180T282 153Q280 152 278 151T275 150L288 159Q313 176 337 196Q307 176 283 164T245 147Q256 140 254 131Q253 124 252 100T251 48Q251 33 251 20T252
-5Q254 -46 275 -46Q285 -46 304 -32Q310 -27 314 -27Q316 -27 316 -30Q316 -46 298 -62T260 -79Z" />
<glyph unicode="l" glyph-name="l" horiz-adv-x="302" d="M77 -27Q49 -4 30 16T10 55Q10 60 11 63Q21 98 47 146T110 249T188 361T268 469T341 561T394 625T415 648Q425 645 445 629T472 595Q474 593 474 591Q475 579 488 569T501 547Q501 513 475 474T407 393T316
313T220 240T137 181Q107 139 102 106T97 57Q146 90 190 131Q201 140 222 156T267 189T302 212Q313 218 319 222T318 220Q294 201 254 172Q311 210 368 228Q379 232 385 232Q395 232 384 222T358 200Q289 150 216 95T77 -27ZM177 236Q215 264 249 296T317 360Q376
416 412 469T459 563Q441 543 411 509T343 432T268 344T195 258Q192 255 188 250T177 236ZM114 47Q125 58 142 73T181 110Q191 120 211 138T254 172Q214 144 184 120T129 75L115 58Q109 51 110 47T114 47Z" />
<glyph unicode="m" glyph-name="m" horiz-adv-x="649" d="M52 -49Q43 -49 31 -40T10 -20T0 -2Q0 4 4 4Q8 4 15 1T33 -2Q27 6 24 16T21 36Q21 51 36 82T76 152T126 229T173 296T203 338Q176 307 159 287T140 266Q138 266 157 295T224 394Q234 394 250 384T280 361T294
337Q282 317 256 285T201 218T151 158Q155 161 177 181T230 228T294 282T352 327T384 346Q389 346 400 338T422 319T439 297T443 281Q436 271 418 243T378 178T339 109Q352 119 374 142T426 197T486 261T546 323T600 370L604 373L608 378Q613 378 623 369T643 347T658
323T660 307Q654 300 636 276T594 219T548 153T510 93L593 146Q603 152 593 145T568 127T544 108Q541 105 537 98T535 94Q551 108 576 126T629 162T678 195Q659 185 639 175T599 150L617 163Q628 171 647 182T685 204T713 218L678 195L731 220Q736 222 739 223T744
224Q754 224 746 211T722 190Q698 178 666 153T598 96T530 34T474 -21Q452 -1 452 17T450 51Q450 54 461 76Q459 86 461 95Q462 110 474 142T507 216T553 299Q527 270 495 234T432 161T376 93T342 42Q334 37 327 37Q321 37 314 42Q307 43 302 55T293 86Q293 83
292 80T291 73V72Q290 72 289 79T289 90L292 106V103Q292 99 292 95T293 86Q299 115 309 150T330 217T345 263Q340 254 332 234T316 193T304 159Q298 137 296 128T292 107Q292 123 297 148T311 200T328 249T340 280Q325 265 292 234T219 163T143 84T83 13Q87 14
93 14Q101 14 110 9T119 -4Q119 -11 107 -21T79 -40T52 -49Z" />
<glyph unicode="n" glyph-name="n" horiz-adv-x="404" d="M37 0Q20 2 10 19T0 53Q0 66 16 95T56 162T107 237T155 302T184 342Q159 314 144 296T126 277Q125 277 142 303T203 392Q213 392 228 383T255 363T268 341Q259 327 241 304T200 255T156 205T120 162Q123
165 143 181T193 221T256 272T321 322T374 361T402 376Q407 376 416 368T434 349T449 327T450 312Q444 306 422 282T370 225T314 160T273 104L343 148Q351 153 343 147T323 132T305 118Q302 115 298 109T297 105Q312 118 335 134T383 166T429 196Q411 187 394 178T358
157L372 167Q381 174 398 184T432 203T459 215L430 196Q441 201 453 206T478 218Q486 221 489 221Q498 221 491 210T469 191Q447 180 417 157T355 106T292 51T241 2Q220 19 219 36T218 66V70Q218 73 218 77T222 88Q221 93 214 95T208 102Q212 121 227 146T261 198T301
250T335 293T353 318Q342 308 316 285T257 231T187 166T119 100T65 41T37 0Z" />
<glyph unicode="o" glyph-name="o" horiz-adv-x="407" d="M134 -8Q120 -8 105 -3T77 14Q65 25 52 47T38 92Q38 101 41 108Q73 194 145 265T321 386Q335 386 350 376T375 350L393 344Q392 355 386 357T380 365Q382 374 393 375T409 377Q425 377 435 363T447 331Q471
328 497 327T542 326T564 325H567Q570 325 570 321Q570 314 562 309Q552 301 516 299T439 296Q434 281 424 264T401 229Q392 216 374 195T337 151T305 114Q314 122 334 142T368 179Q373 185 383 198T402 224T414 241Q401 214 381 189T341 144T307 112T291 97Q249
53 207 23T134 -8ZM102 26Q107 26 114 29Q125 35 142 48T179 75Q196 89 217 109T263 158Q285 183 310 212T359 274L344 260Q351 267 361 279T379 299Q348 301 342 302Q341 300 339 300Q337 300 337 307Q337 309 337 312T338 320Q328 321 316 317T289 300Q272 284
245 260T189 206T135 140T94 66Q89 54 89 42Q89 25 104 32Q99 29 99 28Q99 26 102 26ZM104 32Q123 42 164 74T249 154Q263 169 281 188T316 226T342 254Q319 226 300 204T262 161Q220 116 177 80T104 32Z" />
<glyph unicode="p" glyph-name="p" horiz-adv-x="396" d="M-64 -308Q-71 -308 -80 -303T-96 -290Q-116 -262 -116 -218Q-116 -190 -96 -142T-41 -34T34 88T115 205T190 299Q170 280 149 255T110 209T85 179Q84 178 84 180T89 190Q89 191 100 204T127 238T161 278T194
312Q191 317 189 322T186 331Q186 340 200 340Q207 340 212 339Q226 337 243 322T263 296Q257 287 249 278T230 258Q251 272 278 292T333 332T385 365T422 379Q450 379 461 363T472 325Q472 309 467 292T454 263Q452 260 441 242T415 204T390 176Q407 203 418 224T424
246Q399 200 383 174T356 135T337 111Q297 59 249 21T152 -17Q130 -17 111 -9Q93 -1 81 5T62 18Q41 -16 18 -57T-25 -138T-58 -210T-72 -258Q-72 -275 -61 -288Q-54 -296 -54 -301Q-54 -308 -64 -308ZM124 18Q135 23 157 38T197 69Q210 81 232 103T279 154T327
214T364 277Q360 270 351 259T332 236Q342 249 349 260T360 279Q369 295 374 308T379 328Q375 326 370 323T358 315Q319 288 273 251T183 173T108 90Q102 83 94 70T75 40Q85 28 96 28Q143 28 202 83L203 84L207 88Q207 88 207 88T203 84Q202 84 202 83Q178 61 155
46T108 24Q105 23 105 21Q105 19 111 17T124 18ZM327 230L328 231V231L329 232V232V233H330V233L331 234V234V235H332V236Q332 236 332 235Q332 235 331 235Q331 235 331 234Q331 234 331 234Q330 234 330 233Q330 233 330 233Q330 233 329 233Q329 232 329 232Q329
232 329 232Q328 231 328 231Q328 231 328 231Q327 230 327 230ZM213 94Q221 102 228 112T244 132Q255 144 276 167T317 216Q295 188 268 156T213 94Z" />
<glyph unicode="q" glyph-name="q" horiz-adv-x="321" d="M65 -250Q59 -250 49 -241T30 -220T20 -198Q20 -193 29 -179T50 -146T71 -115Q103 -71 136 -28T199 56T248 129T272 186Q255 177 227 151T167 92T107 32T63 -8Q57 -8 44 6T17 38T-4 65Q7 113 38 161T108
252T183 328T240 382Q272 381 304 366T349 331Q357 318 357 307Q357 296 351 281T333 243Q342 238 350 232T353 217Q332 187 302 136T237 24T169 -95T106 -199H115Q118 -200 113 -208T99 -225T80 -242T65 -250ZM98 55Q113 75 139 109T190 169Q222 201 253 226T295
254Q298 255 302 255Q308 255 312 254T317 252Q323 266 323 280Q323 312 310 323Q291 315 265 294T210 244T155 182T108 121T79 69Q84 76 100 85T130 106L97 62Q94 58 94 55T98 55ZM133 112Q156 139 179 166T222 214T251 243Q255 246 261 250T276 256Q280 257 282
255T280 252Q272 251 259 241T233 218T208 192T191 174Q178 161 161 143T133 112Z" />
<glyph unicode="r" glyph-name="r" horiz-adv-x="344" d="M37 0Q20 2 10 19T0 53Q0 66 14 94T51 157T98 227T142 289T170 327Q157 315 146 303T133 291Q132 291 143 309T189 377Q199 377 213 366T238 341T249 317Q238 299 215 272T166 215T120 162Q123 165 144
183T198 228T266 285T336 341T392 384T422 401Q428 401 439 390T461 364T471 341Q471 340 457 324T421 284T378 233T343 183T329 149Q319 151 312 167T305 205Q305 217 312 234T329 267T346 295T354 308Q348 301 338 285T318 254T305 231Q308 243 322 270T359 324Q348
314 322 291T261 235T191 169T121 101T66 42T37 0Z" />
<glyph unicode="s" glyph-name="s" horiz-adv-x="342" d="M180 -35Q161 -35 132 -21T78 13T42 49Q30 70 30 84Q30 92 35 92Q44 92 61 71Q68 62 87 54T131 39T177 33Q182 33 185 33T193 34Q192 57 173 81T130 133T87 188Q74 208 74 230Q74 260 98 287T157 336Q166
341 175 346T193 355Q177 350 161 343T131 328H130Q129 328 132 330T137 334Q177 360 221 370T300 380Q308 380 315 380T328 378Q331 377 332 375T328 373L345 367Q354 363 361 342T372 303Q372 303 372 303T373 305Q375 310 375 313T376 321Q377 323 381 315T388
296T392 278Q391 260 379 239T354 206T331 201Q342 213 348 229Q326 198 296 176T247 153Q238 153 238 158Q238 161 242 166T249 172Q259 178 274 192T304 226T330 263T346 293Q346 310 322 310Q308 310 290 305T252 293Q215 280 184 258T153 210Q153 200 159 189Q178
160 198 129T232 73T246 33Q246 27 238 16T218 -6T196 -26T180 -35Z" />
<glyph unicode="t" glyph-name="t" horiz-adv-x="344" d="M37 -60Q15 -41 7 -25T-2 7Q-2 13 -1 18T2 30Q7 45 25 81T70 163T127 256T184 342Q175 340 166 339T147 338Q122 338 103 341T80 346Q70 348 68 359T66 383Q63 384 62 386T60 389Q60 391 60 393T59 397Q59
407 64 410T77 413Q85 413 94 412T114 410Q131 410 150 413T172 423Q175 429 178 429Q180 429 184 418Q184 417 184 416T185 413Q185 404 177 394H220Q237 416 257 443T298 498T335 548T360 582Q356 586 356 592Q356 600 360 608T365 620Q365 623 364 627T362 634Q362
642 371 642Q373 642 381 640Q394 636 414 624T450 597T459 566Q452 558 435 538T395 493T352 441T313 392Q340 394 368 395T419 397T449 398Q467 398 467 393Q467 389 459 385T442 379Q441 380 415 377T362 371Q350 370 332 369T296 366L292 362Q314 363 341 364T385
366Q368 363 340 362T286 356Q266 334 242 302T191 233T140 162T97 100T68 60Q82 65 101 74T139 95Q183 124 233 158T322 217Q346 232 369 249T415 286Q417 288 417 286T416 282L378 248Q379 244 379 241T379 233Q379 224 377 216T367 203Q350 192 316 167T238
110T154 44T80 -17T37 -60ZM54 40L102 70L61 51L54 40Z" />
<glyph unicode="u" glyph-name="u" horiz-adv-x="415" d="M224 -12Q205 0 191 17T180 48Q182 58 193 79T221 126T253 179T283 227Q285 230 278 220T259 193T237 160T221 135Q221 140 229 154T249 184T270 216T284 237Q257 207 222 170T153 96T92 33T56 -3Q29 6
18 25T7 62Q7 72 10 81Q21 104 40 138T82 209T123 276T152 325Q151 332 146 342T140 359Q140 367 154 367Q157 367 161 367T172 365Q179 364 194 359T221 345T234 319Q234 308 227 297Q215 283 199 257T166 202T136 149T117 113Q125 118 146 138T194 186T250 242T300
291Q300 295 310 312T335 350T360 379Q373 374 388 366T415 348T427 329Q427 325 424 320Q391 274 362 235T314 169T292 136Q300 143 310 151Q326 166 356 184Q393 208 441 233T544 276Q553 279 558 279Q567 279 562 272T547 255T525 241Q471 214 423 183T335 114Q305
86 280 53T224 -12ZM305 146Q305 145 311 147T320 152Q341 168 373 186T437 221T482 243Q490 246 503 253T512 258Q497 254 471 243T414 216T356 184Q343 175 332 167T310 151Q308 149 306 147L305 146Z" />
<glyph unicode="v" glyph-name="v" horiz-adv-x="379" d="M65 -26Q61 -26 49 -19T25 -1T14 19Q14 25 17 25Q19 25 23 24T34 20Q28 32 26 46Q26 48 37 68T64 117T97 175T125 224T137 246Q137 249 124 233T95 194T69 155Q82 182 97 212T138 283T210 386Q224 380
241 372T270 353T282 332Q282 328 279 323Q243 275 214 232T167 160T145 124Q153 129 166 136T195 154Q191 150 187 148T181 143Q178 141 174 136T173 132Q187 143 221 165T295 216T367 272Q342 257 310 233Q344 260 374 289T415 330Q414 333 414 336T414 343Q414
370 430 386T456 411Q466 419 473 419Q485 419 492 405T499 374Q499 355 492 347Q487 340 461 316T396 258T316 189T238 124T178 75Q162 63 148 52T122 30Q125 29 128 25T132 15Q132 10 120 0T92 -18T65 -26ZM297 224H298V225H299V225H300V226V226H301V227H302V227L303
228Q303 228 302 227Q302 227 302 227Q302 227 301 227Q301 226 301 226Q301 226 300 226Q300 226 300 226Q300 225 300 225Q299 225 299 225Q299 225 299 225Q298 225 298 225Q298 225 298 224Q297 224 297 224ZM195 154Q205 162 219 172T252 193Q259 198 271
205T296 223Q278 210 263 198T236 179L195 154Z" />
<glyph unicode="w" glyph-name="w" horiz-adv-x="501" d="M57 -14Q47 -14 34 -6T12 13T2 30Q2 36 6 36Q8 36 12 35T22 31Q16 44 14 58Q14 60 25 80T52 129T85 187T113 236T125 258Q126 261 113 245T83 206T57 167Q70 194 85 224T127 295T198 398Q212 392 229 384T258
365T270 344Q270 340 267 335Q232 287 203 244T155 172T133 136Q140 140 149 145T169 157L167 155Q164 152 161 147T161 144Q175 155 211 178T286 226L289 234Q251 206 225 191Q210 182 197 175T172 159Q184 169 201 180T243 206Q251 211 264 219T291 237L289 234L316
254L291 237L308 272Q300 270 304 283T322 311T357 330Q364 331 377 320T401 296T405 278Q384 261 369 234T342 179T324 126T314 88Q361 124 397 156T465 225T529 313Q529 318 528 325T527 343Q527 354 529 368T538 395Q546 412 555 418T574 425Q589 425 600 413T612
391Q613 371 603 341T580 280T561 230Q558 222 555 222Q551 222 547 233T542 250Q517 213 486 177T425 111T369 61Q365 34 345 12T299 -11Q279 -11 264 6T248 42Q248 55 252 64T257 80Q257 94 260 117T270 168Q270 170 270 171T271 174Q240 147 212 124T166 87L110
42Q113 40 117 36T121 27Q121 21 109 12T81 -6T57 -14ZM323 84Q346 99 377 125T432 177Q478 227 520 287Q510 275 493 255T459 215T428 180Q390 137 360 116T324 91Q320 89 320 85T323 84ZM293 231L295 232L297 238L293 231Z" />
<glyph unicode="x" glyph-name="x" horiz-adv-x="321" d="M-40 -61Q-47 -61 -39 -46T-20 -19Q-19 -18 -8 -7T19 21T53 56T85 88Q98 101 108 112T125 132Q124 140 124 154T123 188Q123 217 124 248T126 302T128 330Q130 357 144 367T168 373Q173 371 185 367T207
357T218 342Q217 340 215 324T211 288T208 249T205 225Q228 247 255 272T309 320T355 359T382 381Q390 386 395 386Q403 386 408 380T418 365Q425 367 426 364Q434 353 434 346Q434 332 415 322T377 297Q358 282 339 262T318 234Q317 222 313 222Q308 222 303 227Q300
229 299 234T296 243Q318 263 343 281T380 307Q387 312 390 314T389 314Q368 303 339 282T281 235T229 190T199 161L198 160Q198 159 206 165T217 174Q228 183 251 205T296 243Q282 231 264 214T229 180T200 151Q199 140 198 131T197 113Q197 86 205 70T228 53Q242
53 259 67Q267 74 271 74Q277 74 272 61T262 42Q250 25 233 13T197 0Q180 0 166 11Q152 22 144 41T133 91L117 79Q97 59 75 38T40 7Q44 12 55 23T80 47T102 70T112 83Q102 74 82 55T41 13T4 -26T-18 -47Q-33 -61 -40 -61ZM218 340V342Q218 343 218 340Z" />
<glyph unicode="y" glyph-name="y" horiz-adv-x="357" d="M-9 -342Q-14 -342 -26 -333Q-29 -330 -41 -321T-63 -300T-74 -280Q-74 -275 -64 -261T-40 -227Q-19 -198 11 -157T77 -70T147 23T212 110T264 180T294 222Q296 225 287 215T264 188T238 155T220 130Q221
135 232 150T257 184T284 219T301 241Q274 211 238 177T163 108T92 45T40 -5Q15 3 5 21T-6 59Q-6 70 -3 79Q8 102 31 138T80 214T128 286T160 337Q157 342 149 330T131 299T112 266T100 252Q100 253 108 268T126 302T145 337T153 353Q151 358 149 362T147 370Q147
380 161 380Q168 380 180 377Q187 376 201 372T229 357T242 331Q242 320 235 309Q223 295 206 270T171 216T139 163T119 128Q137 142 168 173T235 242T305 317T365 375Q380 369 401 359T435 338T440 316Q406 270 380 239T330 179T273 107Q245 70 217 31T162 -48Q129
-96 100 -140T45 -223Q46 -218 60 -194T95 -139T134 -77T167 -27T179 -8Q178 -9 167 -25T139 -64T109 -109T87 -145Q74 -168 60 -191T37 -229T32 -247Q47 -241 59 -241Q75 -241 81 -250Q85 -255 85 -259Q85 -263 76 -262Q70 -261 55 -274T28 -300Q18 -313 10 -327T-9
-342Z" />
<glyph unicode="z" glyph-name="z" horiz-adv-x="342" d="M90 77H92V78L95 79Q112 87 142 95T201 109T240 115Q254 115 272 111T298 95Q288 102 275 105T247 109Q260 108 270 105T289 97Q306 87 306 71Q306 55 293 35T268 -2Q266 -6 257 -14T243 -22Q241 -22 241
-19Q241 -16 244 -7Q249 8 249 17Q249 42 212 42Q204 42 194 41T173 38Q152 35 124 25T72 4T35 -16Q31 -20 25 -20Q14 -20 5 -8T-9 9Q-13 13 -13 21Q-13 28 -11 35T-1 49Q1 52 2 55T6 61Q20 79 50 107T118 169T195 234T268 293T322 335Q279 317 240 304T170 290Q157
290 146 293Q133 296 133 317Q133 332 140 351T157 383Q167 396 180 396Q187 396 187 391Q179 376 179 366Q179 353 189 349T212 345Q242 345 277 353T356 365Q364 365 372 356T385 336T391 316Q391 313 387 306T374 293Q347 275 328 260T278 225Q281 228 282 229T290
236T312 254T363 292Q340 279 307 254T239 201T171 146T118 100T92 78L90 77ZM168 100Q158 98 136 92T95 79L93 78Q92 78 92 78T92 77H91Q92 78 93 78Q107 82 125 86T159 96Q170 100 189 104T228 109Q199 107 168 100Z" />
<glyph unicode="{" glyph-name="braceleft" horiz-adv-x="297" d="M142 -62Q114 -61 87 -51T46 -19Q36 0 36 24Q36 41 39 58T49 95Q54 111 60 127T70 160Q75 177 80 195T85 229Q85 246 71 265T39 300Q25 313 25 318Q25 323 33 326T55 337Q76 348 86 353T104 367T125
397Q127 399 134 419T152 464T169 506Q161 467 150 441T140 410Q149 421 157 448T174 507T193 568T215 612Q223 622 246 633T295 655T338 667Q347 669 362 669T391 668Q421 654 421 649Q421 645 410 644T385 640Q377 639 368 639T348 637Q338 636 329 634T311 626Q290
612 277 579T254 511T236 451Q230 431 213 409T174 368T128 337T84 324Q102 321 122 309T156 280T171 249Q171 233 168 219T158 187Q154 187 146 160T123 93Q122 90 128 105T142 139T154 166Q148 144 140 122T127 83T120 64Q116 47 116 34Q116 18 126 -1Q134 -14
150 -24T195 -34Q213 -34 230 -30Q233 -29 239 -29Q257 -29 257 -36Q257 -39 251 -44T228 -54Q205 -62 181 -62T142 -62Z" />
<glyph unicode="|" glyph-name="bar" horiz-adv-x="290" d="M86 -35Q72 -35 58 -25T35 -1T26 23Q26 25 31 38T43 67T57 97T66 117Q73 132 84 155T106 202T126 244T138 268Q134 258 124 235T101 182T77 124T59 75Q68 96 83 131T115 208T149 287T178 355T194 394Q202
413 212 442T234 506T254 573T266 631Q269 651 282 656T318 661Q348 661 361 654T375 638Q375 629 369 620T356 605T348 596Q344 586 333 557T308 488T278 409T250 336T232 287Q229 280 223 262T208 220T191 175T175 139Q186 170 190 184T197 210T207 240Q197 216
184 183T158 115T136 52T123 10Q118 -15 108 -25T86 -35Z" />
<glyph unicode="}" glyph-name="braceright" horiz-adv-x="406" d="M10 -62Q-20 -48 -20 -43Q-20 -39 -9 -38T16 -34Q24 -32 33 -32T53 -31Q63 -30 72 -28T90 -20Q112 -5 125 27T148 96T165 155Q172 175 189 197T228 238T274 269T317 282Q299 286 278 298T243
328T230 360Q232 375 234 389T243 419Q248 419 256 446T278 513Q279 516 273 501T259 467T247 440Q254 462 261 484T275 523T281 542Q283 552 284 559T286 573Q286 589 275 607Q268 620 252 630T206 640Q188 640 171 636Q168 635 162 635Q155 635 150 637T145 642Q145
645 151 650T173 660Q197 668 220 668T259 668Q288 667 315 657T355 625Q365 606 365 582Q365 566 362 548T352 511Q347 495 342 479T331 446Q326 429 321 412T316 378Q316 362 331 342T362 306Q376 293 376 288Q376 283 368 280T346 269Q326 259 316 254T298 240T276
209L232 100Q240 139 251 165T261 196Q252 185 244 158T227 99T208 38T186 -6Q178 -15 155 -27T106 -48T63 -61Q54 -62 39 -62T10 -62Z" />
<glyph unicode="~" glyph-name="asciitilde" horiz-adv-x="390" d="M279 470Q259 471 238 483T194 506T149 518Q136 518 124 509T101 491T84 482Q73 482 73 494Q73 505 79 518T88 533Q95 545 108 558T134 578Q140 581 149 581Q165 581 185 575T223 560T251 547Q262
543 276 536T302 528Q314 528 321 537T331 552Q339 569 342 572T344 574Q343 568 342 565T340 559Q340 556 342 556Q344 556 347 558T354 560Q362 560 363 547Q361 530 354 512T329 481T279 470Z" />
<glyph unicode="&#xa0;" glyph-name="uni00A0" horiz-adv-x="171" />
<glyph unicode="&#xa1;" glyph-name="exclamdown" horiz-adv-x="160" d="M203 278Q195 278 187 279T171 284Q166 286 172 295T191 314T216 334T236 348Q229 347 216 338T192 319Q209 340 230 351T257 360Q269 355 281 343T301 318T310 294Q310 282 298 282Q291
282 283 283T265 285Q253 285 237 282T203 278ZM-54 -243Q-73 -243 -88 -234T-99 -211Q-91 -186 -68 -157T-18 -94Q-11 -85 -11 -84T-12 -82Q-37 -115 -59 -145T-91 -191Q-94 -196 -95 -196Q-96 -196 -92 -185T-83 -170Q-71 -153 -47 -121T7 -51L19 -36L-5 -69Q-9
-76 -10 -78T-12 -82Q-7 -76 -2 -70T7 -58Q28 -32 48 -7T82 37Q86 41 93 51T105 68T106 70L65 22Q95 62 122 97T173 156T213 185Q194 154 167 102T108 -9T45 -125T-10 -221Q-17 -233 -29 -238T-54 -243ZM19 -36Q29 -21 40 -7T64 21L19 -36Z" />
<glyph unicode="&#xa2;" glyph-name="cent" horiz-adv-x="439" d="M59 21Q44 21 35 35T29 62Q30 64 37 75T54 100T72 126T84 143Q99 164 110 178T128 202Q117 186 103 163T70 111Q99 155 116 176T133 198L141 199L131 206Q115 219 103 236T91 267Q91 300 113 338T169
413T239 472Q241 481 253 490T282 500Q286 500 289 500T297 498Q311 523 324 546T344 587Q351 604 362 609T392 618Q397 619 400 619T407 619Q431 619 431 608Q431 601 424 592T409 577T400 568Q394 559 379 537T340 479L334 472Q356 446 360 431Q360 419 347 405T319
382T296 372Q293 372 293 374Q293 380 304 392Q309 398 319 414T330 437Q314 437 290 424T240 389T191 343T154 294T139 252Q139 243 143 237T160 232Q199 246 235 262T324 307Q337 314 344 314Q352 314 347 304T324 278Q281 239 248 221T180 186Q155 149 134 116T102
62Q91 40 80 31T59 21Z" />
<glyph unicode="&#xa3;" glyph-name="sterling" horiz-adv-x="646" d="M423 -20Q420 -20 420 -17Q420 -11 425 -4Q432 9 432 18Q432 32 417 37T373 43Q360 43 343 42T307 39Q282 36 250 30T186 16T133 0Q143 3 161 7T198 16T227 23Q232 24 235 24T237 23Q228 21
207 16T164 4T124 -6T105 -12Q97 -14 94 -14Q81 -14 76 -4T66 11Q60 17 62 26Q58 26 57 25Q57 30 56 34T55 43Q55 49 58 52Q75 79 109 123T200 238Q178 237 156 237T114 234Q111 231 109 231Q105 231 105 242Q105 258 113 282Q108 287 108 291Q110 305 114 309T123
313Q130 313 137 311T151 308Q162 308 172 310T184 317Q187 322 189 322Q190 322 190 318Q190 312 189 304T180 289L238 286Q260 312 273 327T299 356T328 388Q343 405 356 418T379 442Q399 460 417 477T452 509Q444 502 436 496T419 484Q428 492 436 498T453 509L456
512Q493 537 535 553T623 571Q635 571 635 574Q635 579 627 577Q584 574 551 565T489 536Q519 556 553 568T634 581Q640 581 646 581T660 580Q671 579 684 569T708 544T728 518T736 501Q737 477 720 446T676 385T622 336T575 314Q574 314 573 314T570 313Q564 313
564 317Q564 321 569 327T577 336Q591 346 609 367T646 413T675 462T687 500Q687 518 654 518Q634 518 604 507T537 469Q442 399 402 355T351 299Q352 303 365 319T397 356T434 392Q441 398 441 401Q441 404 435 400T414 381Q407 374 383 348T327 286Q359 288 386
290T430 296Q439 297 439 291Q439 287 434 280T420 269Q396 259 362 253T289 243Q275 228 256 206T216 159T178 114T151 79Q152 79 152 79T154 80Q162 84 184 88T236 96T294 105T346 111T378 113Q392 113 410 111T445 105T468 93Q437 106 394 109Q411 108 426 104T455
95Q474 88 481 79T489 58Q489 44 479 28T454 -2Q450 -6 439 -13T423 -20ZM460 516Q462 517 463 519Q463 518 463 518T465 520Q466 521 468 522Q469 523 470 523Q471 524 472 525Q473 526 474 526Q475 527 476 528Q477 529 479 529Q480 530 481 531Q482 532 483
532Q485 533 486 534T485 534Q487 535 489 536L485 534L483 532L481 531L479 529L476 528L474 526L472 525L470 523L468 522L465 520L463 519L460 516ZM358 426Q354 423 353 423T355 427Q369 441 385 455T419 484Q405 471 390 457T358 426ZM163 81Q177 84 199 87T243
93T278 100Q298 104 325 106T370 109Q359 109 339 109T292 104Q283 103 259 99T209 91T163 81Z" />
<glyph unicode="&#xa4;" glyph-name="currency" horiz-adv-x="593" d="M38 56Q31 56 31 69Q31 76 34 80Q50 112 87 142T160 206Q160 267 186 327T251 439Q227 475 205 503T151 556Q143 561 143 576Q143 584 146 588T153 591Q186 572 222 547T295 481Q314 496 336
503T371 511Q406 509 429 491Q439 499 461 513T508 544T553 577T581 605Q584 609 586 609Q589 609 591 604T593 593Q593 587 592 585Q576 549 544 517T476 448Q482 433 482 417Q482 387 464 359T421 304T373 254Q384 236 402 206T441 147T480 106Q484 103 484 101Q484
96 472 96Q467 96 461 98Q425 116 393 145T323 213Q291 182 258 162T196 141Q179 141 171 157Q148 140 122 123T74 90T43 60Q40 56 38 56ZM240 235Q260 237 297 264T370 334Q354 316 335 300T301 272T281 258Q305 276 333 300T385 353T413 407Q414 409 414 412T414
416Q414 430 405 435T383 441Q366 441 349 435Q329 428 317 423T286 406Q286 405 302 412T339 428T373 438Q354 434 335 426T303 411T288 402Q281 393 268 366T243 308T223 254Q225 270 233 293T252 340T270 375Q248 347 238 317T220 263Q219 259 219 256T218 249Q218
242 222 238T240 235Z" />
<glyph unicode="&#xa5;" glyph-name="yen" horiz-adv-x="499" d="M112 3Q99 9 84 29T68 69Q68 75 69 78Q78 105 96 140Q74 139 53 138T13 136Q11 134 8 134Q4 134 4 142Q4 151 8 164T16 190Q34 186 61 184T119 180Q123 187 128 195Q127 210 130 230Q114 229 99
229T68 227Q66 225 63 225Q60 225 60 233Q60 255 72 281Q84 278 101 276T140 273Q151 316 170 369T208 483Q209 485 204 475T193 450T182 426T177 417L199 510Q201 516 206 524T211 537Q211 543 200 543Q197 543 193 543T184 541Q165 538 149 538Q131 538 119 541T107
548Q107 553 124 559T185 569Q199 570 221 562T264 541T299 516T308 498Q290 466 271 428T236 351T215 285Q214 278 211 271Q215 271 219 271Q224 271 228 271L230 273Q235 279 256 303T307 362T371 433T437 502T493 554T528 574Q535 574 550 570T582 558T610 544T619
533Q615 522 595 512T548 490T498 455Q451 418 394 369T287 273Q308 274 325 275T354 280H358Q363 280 363 276Q363 272 358 266T345 257Q327 250 303 246T251 238Q235 221 221 206Q211 191 204 180Q234 181 259 183T299 189H303Q308 189 308 185Q308 181 303 175T290
166Q271 159 246 154T193 146Q184 131 172 111T146 69Q136 53 130 34T112 3ZM179 135Q183 141 186 146L184 145Q181 139 179 135Z" />
<glyph unicode="&#xa6;" glyph-name="brokenbar" horiz-adv-x="290" d="M248 367Q236 367 221 373T190 379Q198 398 209 430T232 499T253 571T266 631Q269 651 282 656T318 661Q348 661 361 654T375 638Q375 629 369 620T356 605T348 596Q344 585 331 550T300
469T267 381Q262 367 248 367ZM86 -35Q72 -35 58 -25T35 -1T26 23Q26 25 31 38T43 67T57 97T66 117Q73 132 84 155T106 202T126 244T138 268Q134 258 124 235T101 182T77 124T59 75L150 288Q152 291 160 292T180 294Q197 294 213 292T232 287Q229 280 223 262T208
220T191 175T175 139Q186 170 190 184T197 210T207 240Q197 216 184 183T158 115T136 52T123 10Q118 -15 108 -25T86 -35Z" />
<glyph unicode="&#xa7;" glyph-name="section" horiz-adv-x="463" d="M-19 -243Q-40 -243 -55 -228Q-62 -220 -62 -214Q-62 -209 -60 -206T-54 -198Q-46 -190 -27 -176T18 -142Q13 -146 8 -151T-2 -161Q-6 -165 -8 -171T-8 -173Q0 -165 26 -143T83 -99Q67 -109
51 -119T21 -140Q48 -119 77 -98T131 -60T166 -36Q167 -35 170 -35Q173 -35 173 -37Q173 -40 166 -43Q156 -47 133 -63T83 -99Q115 -78 144 -60T189 -33Q176 -25 142 -13T69 19T-1 68Q-21 87 -21 111Q-21 136 0 162T56 215T131 264Q148 274 165 283T201 300Q189
308 178 316T156 335Q136 354 136 377Q136 403 157 429T213 482T289 531Q309 542 329 552T370 571Q347 564 325 555T283 535Q282 535 282 535T281 534Q280 534 285 538T295 544Q334 564 374 578T453 604Q456 605 459 606Q459 606 459 606T453 604Q432 598 411 589T370
571Q418 588 467 600T557 620T626 629Q640 629 640 632T633 635Q605 634 563 629T473 610Q519 624 559 631T630 639Q638 639 644 639T657 637Q672 634 683 612T699 569L701 571Q703 577 704 581T708 590Q710 592 716 584T727 564T731 544Q728 529 715 512T685 478T650
451T619 440Q615 440 611 442Q629 458 644 477Q613 449 574 424T500 384T445 368Q435 368 435 372Q435 377 444 383T457 391Q476 400 505 420T564 466T617 514T649 552Q650 560 638 563T603 567Q576 567 538 562T459 545T379 519T311 485Q291 475 272 459T239 425T226
390Q226 376 238 364Q271 335 309 315T379 280T426 249Q431 245 432 237T434 219Q434 204 429 191T415 175Q346 161 298 142T220 103T176 72T159 60Q166 50 166 41Q199 24 227 11T268 -17Q273 -21 274 -29T276 -48Q276 -63 272 -76T258 -92Q189 -106 141 -125T62
-163T18 -194T1 -206Q8 -216 8 -224Q8 -233 0 -238T-19 -243ZM109 75Q118 83 136 96T176 124L156 105Q152 102 149 96T150 94Q157 101 178 119T226 157Q214 149 202 142T178 126Q204 149 234 170T288 207T324 231Q325 232 327 232Q330 232 330 229Q330 226 323
223Q314 219 291 203T241 168Q273 190 302 207T347 234Q338 239 318 247T271 265Q237 256 208 246T153 219Q133 208 114 192T81 159T68 124Q68 109 81 97Q94 86 109 75ZM18 -142Q18 -142 18 -142Q18 -142 19 -141Q19 -141 19 -141Q19 -141 19 -141Q19 -141 19 -141Q19
-141 19 -141Q20 -141 20 -140Q20 -140 20 -140Q20 -140 20 -140Q20 -140 20 -140Q20 -140 21 -140Q21 -140 21 -140V-140H20V-140V-140V-140L19 -141V-141V-141V-141V-141L18 -142V-142Z" />
<glyph unicode="&#xa8;" glyph-name="dieresis" horiz-adv-x="267" d="M202 457Q187 463 171 482T155 515Q155 526 166 526Q171 526 179 525T195 523Q205 523 217 530T242 538Q257 538 267 516Q270 510 261 500T241 481T221 467Q226 468 237 475T257 491Q242 473
225 464T202 457ZM46 457Q31 463 16 482T0 515Q0 526 11 526Q16 526 23 525T39 523Q49 523 61 530T86 538Q101 538 111 516Q114 510 106 500T85 481T65 467Q71 468 83 476T104 493Q88 474 70 465T46 457Z" />
<glyph unicode="&#xa9;" glyph-name="copyright" horiz-adv-x="655" d="M344 -8Q316 -8 293 2T237 31Q209 29 182 43T132 79T95 126T78 168Q75 209 89 257T126 352T173 437L134 382Q140 397 153 418T181 460T207 490Q236 518 274 541T355 587Q378 587 409 584T473
572T531 549Q557 548 585 535T624 498Q637 466 637 421Q637 379 628 333T604 246T575 177Q586 189 596 212T614 261Q617 269 622 287T632 324T640 356T644 368Q644 345 635 309T612 236T589 173T576 144Q549 99 509 65T425 11T344 -8ZM296 35Q369 53 421 90T507
177T556 279T572 380Q572 470 528 516Q518 527 507 531T490 540L488 541Q470 547 446 547Q421 547 393 539T341 513Q312 492 281 462T222 393T177 306T159 199Q159 185 160 170T164 137Q166 127 182 109T220 73T263 44T296 35ZM306 146Q288 146 268 160T233 193T218
228Q218 261 240 300T296 375T366 434Q368 444 380 453T410 463Q415 463 419 462T429 459Q439 459 452 446T476 417T488 393Q488 381 475 367T447 344T424 334Q421 334 421 336Q421 342 432 354Q437 360 447 376T458 399Q442 399 418 386T367 351T318 304T281 255T266
213Q266 205 270 199T287 193L315 204L312 202Q310 201 319 204T340 212T353 218Q373 227 387 236T415 255Q392 242 365 229T315 204Q326 215 341 222T375 238Q410 255 424 264T454 278Q444 273 435 268T417 256Q430 263 441 268T462 278Q473 283 473 277Q473 267
447 247Q433 237 409 217T357 178T306 146Z" />
<glyph unicode="&#xaa;" glyph-name="ordfeminine" horiz-adv-x="407" d="M171 355Q166 355 156 366T136 390T121 409V410Q121 448 145 488T201 564Q198 560 195 557L191 559Q214 588 237 611T270 643Q272 645 276 649T286 653L292 660Q314 660 338 648T380 617T399
572Q399 566 395 564T387 568Q382 579 376 588T361 602Q354 606 345 606Q335 606 330 601Q315 590 296 570T257 526T221 478T195 436Q206 446 223 460T252 483Q255 486 265 493T286 507T304 519L307 517Q307 515 302 511L319 523Q321 540 332 546T351 550Q371 543
381 535T388 519Q383 508 381 482T378 434Q378 406 395 406Q405 406 421 416Q426 420 431 420Q435 420 435 416Q435 408 425 399Q400 371 376 371Q365 371 354 379Q339 390 331 408T320 446T318 477L284 448Q265 432 243 414T202 379T172 355H171ZM240 466Q235
462 228 456Q233 460 237 463T247 470Q253 475 258 478T266 485L261 481L240 466Z" />
<glyph unicode="&#xab;" glyph-name="guillemotleft" horiz-adv-x="583" d="M469 124L458 128Q427 165 386 191T301 244Q297 248 297 250Q299 256 320 274T371 317T433 366T491 410T527 436Q534 441 541 443T559 446Q561 446 565 446T573 447Q578 447 582 446T587
441Q587 437 575 425Q574 422 558 407T517 372T467 330T421 292T392 269Q399 262 416 243T453 202T484 162T495 137Q491 124 469 124ZM271 124L261 128Q230 165 189 191T104 244Q100 248 100 250Q102 256 122 274T173 317T236 366T294 410T330 436Q337 441 344
443T362 446Q364 446 368 446T376 447Q381 447 385 446T390 441Q390 437 378 425Q377 422 361 407T320 372T270 330T224 292T195 269Q202 262 219 243T256 202T287 162T298 137Q294 124 271 124Z" />
<glyph unicode="&#xac;" glyph-name="logicalnot" horiz-adv-x="411" d="M333 56V142H8V173Q97 173 186 173T364 174V56H333Z" />
<glyph unicode="&#xad;" glyph-name="uni00AD" horiz-adv-x="465" d="M189 225Q178 226 178 241Q178 249 180 258T187 279Q182 282 182 288Q184 302 188 307T199 312Q206 312 214 309T230 306Q241 306 252 308T266 315Q270 322 272 322Q274 322 273 311Q273 304
270 298T261 284Q274 283 287 283T314 282Q334 282 355 283T397 288Q399 288 401 288T404 289Q413 289 413 282Q413 275 403 265T380 249Q337 234 297 230T231 225H189Z" />
<glyph unicode="&#xae;" glyph-name="registered" horiz-adv-x="655" d="M344 -8Q316 -8 293 2T237 31Q209 29 182 43T132 79T95 126T78 168Q75 209 89 257T126 352T173 437L134 382Q140 397 153 418T181 460T207 490Q236 518 274 541T355 587Q378 587 409 584T473
572T531 549Q557 548 585 535T624 498Q637 466 637 421Q637 379 628 333T604 246T575 177Q586 189 596 212T614 261Q617 269 622 287T632 324T640 356T644 368Q644 345 635 309T612 236T589 173T576 144Q549 99 509 65T425 11T344 -8ZM296 35Q369 53 421 90T507
177T556 279T572 380Q572 470 528 516Q518 527 507 531T490 540L488 541Q470 547 446 547Q421 547 393 539T341 513Q312 492 281 462T222 393T177 306T159 199Q159 185 160 170T164 137Q166 127 182 109T220 73T263 44T296 35ZM405 143Q396 147 375 164T334 206T310
258V259Q310 266 323 266H324Q350 272 380 284T438 312T482 346T499 382Q499 402 475 414T427 431Q420 424 403 403T363 355T320 299Q307 282 292 260T266 217T261 187Q282 184 282 175Q282 163 252 163Q249 163 246 163T239 164Q223 166 214 182T208 208Q211 219
225 242T260 295T301 353T340 405T366 440Q357 433 352 425T341 415Q346 421 353 429T362 446Q343 447 343 458Q343 463 349 467T366 470Q366 471 368 471Q372 471 379 469T390 465Q407 465 431 459T479 440T519 413T535 380Q535 372 529 361Q531 333 512 314T464
282T402 264T344 256L347 252Q374 222 398 212T437 202Q451 202 456 207Q457 208 458 208Q463 208 463 199Q463 191 454 179T433 157Q426 151 420 145T405 143ZM377 255Q383 257 396 260T425 267T449 274Q451 275 464 279T494 297Q500 302 507 308T524 329Q518
316 511 309T498 297Q486 287 473 281T438 267Q429 263 412 260T377 255ZM347 252L376 255Q367 254 359 253T347 252Z" />
<glyph unicode="&#xaf;" glyph-name="overscore" horiz-adv-x="272" d="M9 470Q0 471 0 483Q0 491 3 502T12 526Q76 512 168 512Q191 512 214 513T260 516H263Q272 516 272 511Q272 505 263 497T242 486Q224 482 196 480T142 476T104 475Q108 474 114 474T130
473Q141 473 155 473T185 475Q160 472 129 471T71 470H9Z" />
<glyph unicode="&#xb0;" glyph-name="degree" horiz-adv-x="363" d="M181 451Q172 451 165 454T147 464Q135 463 124 471T104 490T95 508Q94 527 103 550T123 591L113 577Q116 585 124 596T137 612Q158 631 185 644Q196 644 213 641T242 631Q250 631 259 627T272
615Q276 606 276 590Q276 570 270 548T256 511Q260 515 263 522T269 538L279 573Q279 563 274 546T263 516T257 500Q244 478 222 465T181 451ZM173 480Q207 490 222 518T237 573Q237 596 227 609L218 615H217Q211 617 207 617Q195 617 184 608Q171 596 157 576T142
523Q142 519 142 515T143 507Q144 502 156 491T173 480Z" />
<glyph unicode="&#xb1;" glyph-name="plusminus" horiz-adv-x="329" d="M190 51Q171 51 156 59T142 74Q142 76 149 86T166 107T177 122Q186 134 203 155T230 189Q235 199 242 212T248 225Q198 220 158 217T106 213Q103 210 100 210Q96 210 96 221Q96 232 100 249T110
282Q134 279 184 277T293 275Q303 290 315 310T338 350T354 386Q358 401 383 401Q397 401 411 402T437 403Q454 403 454 399Q453 392 443 386T432 378L365 276Q417 278 462 281T533 290Q535 290 536 290T538 291Q544 291 544 286Q544 281 539 274T526 264Q507 256
455 249T338 234L328 219Q325 214 316 200T297 169T278 143Q288 159 291 166T298 179T307 195Q296 179 280 155T250 109T232 77Q226 62 215 57T190 51ZM246 208L257 223Q255 221 252 217T246 208ZM169 100Q177 113 193 135T226 180H225L228 186Q215 169 197 143T169
100ZM50 -48Q42 -48 36 -48T28 -47H26Q24 -47 24 -45Q24 -40 32 -28T52 -4T70 7H72Q83 0 104 -3T151 -6Q186 -6 220 -2T267 3Q267 3 267 1Q266 -3 258 -12T247 -24Q235 -30 210 -34T155 -42T97 -46T50 -48Z" />
<glyph unicode="&#xb2;" glyph-name="uni00B2" horiz-adv-x="449" d="M91 246Q85 246 78 255T67 275T62 292Q62 302 74 311T115 337Q149 356 190 382T271 438T340 501Q357 520 367 537T378 568Q378 586 353 586Q338 586 309 577Q280 568 254 552T211 521T191 497Q191
472 179 472Q169 472 158 488T147 522Q147 525 147 527T149 533Q153 544 169 560T209 593T262 620T320 631Q340 631 362 619T401 586T417 543Q417 532 412 519V519Q412 519 412 519T411 518V516H409L410 515L409 514L407 516Q406 513 405 511L408 509L403 500Q393
485 377 469T341 434Q349 439 351 440L353 437Q340 425 307 402T239 359Q224 350 211 343T187 331Q181 328 176 326T166 320L145 309Q162 311 179 312T215 314Q233 314 259 312T304 305Q304 305 305 305T308 304Q315 303 325 301T337 293H335Q331 293 325 296Q329
293 332 289T333 283L330 282Q327 284 323 282Q321 280 316 280H270Q260 280 251 280T232 281Q202 281 174 277T117 257L111 254Q107 251 102 249T91 246ZM327 425Q329 425 333 428L332 430Q329 427 327 425Z" />
<glyph unicode="&#xb3;" glyph-name="uni00B3" horiz-adv-x="465" d="M135 251Q103 251 82 266T61 305Q61 330 74 330Q81 330 86 319Q91 306 101 301T125 295Q148 295 176 306T226 331Q287 366 287 386Q287 401 258 407T180 414Q173 416 167 424T161 443L163 445Q175
446 201 455T258 478T313 503T347 521Q362 531 371 543T381 566Q381 584 354 584Q336 584 306 575Q278 567 257 553T221 528L220 530Q213 525 209 521T204 516Q197 509 194 504T188 496Q188 471 176 471Q166 471 156 487T145 520Q145 523 145 526T147 532Q150 543
166 559T206 591T259 618T317 629Q337 629 359 617T398 584T415 541Q415 534 412 526Q401 496 337 469L335 473H336H334L336 469Q298 452 276 449L263 446Q255 444 248 443Q278 438 305 419T333 367Q333 355 328 345L326 346V345L328 344Q321 320 298 303T247 275T205
262V262Q163 251 135 251ZM152 258Q160 258 174 260T203 266Q208 268 213 269T225 273Q199 266 178 263T147 258H152Z" />
<glyph unicode="&#xb4;" glyph-name="acute" horiz-adv-x="237" d="M41 455Q68 477 109 506T187 564Q193 568 197 568Q207 568 217 562T234 547T238 531Q232 524 227 520T214 514Q209 513 209 513T209 510L197 505Q180 498 165 492T139 482Q135 481 126 476T121
472Q136 477 152 483T185 496Q146 477 108 464T41 455Z" />
<glyph unicode="&#xb5;" glyph-name="uni00B5" horiz-adv-x="396" d="M-27 -232Q-43 -232 -52 -219T-66 -191Q-67 -186 -67 -180T-68 -167Q-68 -134 -56 -92T-27 -8T8 70Q8 75 10 81Q18 97 30 118T55 164Q76 202 94 232T122 277Q122 277 119 270L145 312L152 326Q151
333 146 342T140 359Q140 367 154 367Q157 367 161 367T172 365Q179 364 194 359T221 345T234 319Q234 308 227 297Q215 283 199 257T166 202T136 149T117 113Q125 118 143 138T184 186T233 242T281 291Q281 295 291 312T316 350T341 379Q354 374 369 366T396 348T408
329Q408 325 405 320Q380 286 355 249T308 180T272 126T255 99Q279 117 289 117Q295 117 295 111Q295 102 281 86Q253 55 235 30T205 -12Q186 0 172 17T161 48Q163 58 174 79T202 126T234 179T264 227Q266 230 258 220T238 193T214 160T197 135Q198 142 208 160T231
197T249 225Q222 195 192 160T135 91T86 32T56 -3Q51 -1 47 1T39 5Q36 0 33 -5T28 -16Q21 -30 10 -53T-13 -102T-32 -152T-38 -195Q-37 -200 -32 -202T-21 -205Q-12 -205 -4 -201Q3 -199 6 -196T15 -190Q20 -186 22 -186Q27 -186 21 -197T1 -220T-27 -232ZM-32
-50Q-21 -16 -12 9T8 56L7 60Q-9 27 -20 -2T-32 -50Z" />
<glyph unicode="&#xb6;" glyph-name="paragraph" horiz-adv-x="418" d="M143 -234Q142 -234 142 -232Q142 -229 145 -222Q176 -149 188 -119T201 -90Q202 -90 196 -107T182 -152Q216 -90 258 -17T346 134T437 291T522 441T592 573L607 603Q589 612 562 612Q556
612 549 612T533 611Q533 602 525 580T503 529T476 471T451 418T435 382Q438 391 445 410T461 452T478 494T490 524T491 529Q478 504 469 483T439 427Q404 369 362 298T276 152T193 11T124 -108T79 -182Q68 -198 55 -205T39 -212Q38 -212 38 -209Q38 -207 38 -205T40
-200Q41 -199 48 -187T63 -162T71 -144Q71 -142 70 -142Q66 -142 48 -160Q87 -89 135 -3T236 173T337 343Q315 336 288 332T231 328Q213 328 195 329T156 335Q128 340 117 359T106 401Q106 421 111 440T124 473Q147 518 200 551T331 605T504 628L507 635Q512 644
517 644Q527 644 530 629Q555 629 577 628T619 624Q623 624 626 623T632 621Q633 622 637 622Q655 619 655 592Q655 581 651 566T637 531Q634 525 624 507T602 466T577 421T555 384T545 369Q544 369 551 383T575 434Q549 389 515 331T443 207T368 79T296 -41T237
-140T197 -204Q190 -215 178 -222T155 -231T143 -234ZM430 366V367L433 376L430 366Z" />
<glyph unicode="&#xb7;" glyph-name="middot" horiz-adv-x="352" d="M268 298Q257 303 245 315T224 340T215 364Q215 376 227 376Q234 376 242 375T260 373Q271 373 285 381T313 390Q321 390 328 385T342 365Q345 358 336 347T312 326T289 310Q296 311 309 320T333
339Q316 318 295 307T268 298Z" />
<glyph unicode="&#xb8;" glyph-name="cedilla" horiz-adv-x="215" d="M91 -183Q75 -183 59 -179T31 -167Q22 -162 15 -156T6 -145V-142Q6 -133 15 -133Q23 -133 35 -139T62 -145Q55 -144 45 -141T29 -135T26 -133Q37 -136 52 -140T80 -146Q115 -148 127 -138T139
-110Q139 -86 135 -72T130 -44Q130 -25 145 -7T203 15Q207 15 211 16T215 12Q192 4 183 -8T173 -34Q173 -50 185 -73T198 -124Q194 -110 192 -102T186 -87Q183 -80 180 -75T174 -66Q182 -85 187 -101T192 -129Q192 -156 175 -167T135 -180T91 -183Z" />
<glyph unicode="&#xb9;" glyph-name="uni00B9" horiz-adv-x="357" d="M120 238Q101 239 91 253T81 293Q81 326 102 359T145 422Q177 466 202 499T248 558Q241 553 230 545T207 528Q186 512 166 498T136 480H133Q128 480 128 485Q128 492 135 499Q143 504 157 515T191
541Q256 591 285 611T318 632Q328 632 342 623T356 603Q356 593 352 586T326 556Q325 554 325 554H323V554L324 553Q324 553 324 553V552Q321 550 317 545L315 546V546L317 545L310 537L307 539Q299 531 290 521T272 500L274 499L273 500L294 523L296 521L275 498H276Q270
491 265 484T254 469Q251 465 239 451Q225 434 202 406T159 347T128 289L125 291Q123 286 122 282L123 281V279H122Q121 279 121 278H122L120 270V271H116V267H120V265V265Q118 257 118 254Q118 247 122 241L120 238Z" />
<glyph unicode="&#xba;" glyph-name="ordmasculine" horiz-adv-x="375" d="M190 350Q179 350 161 354T133 369Q123 377 113 395T102 432Q102 436 102 439T104 446Q130 513 186 568T323 661Q338 661 351 650T374 624V626Q374 630 369 633Q364 636 364 641Q366 652
376 653T391 655Q404 655 414 642T424 614Q424 600 418 585T399 551H400Q400 548 400 547V547Q387 519 368 494T333 452T315 433Q278 393 246 372T190 350ZM150 401Q150 394 155 390T167 390V390Q182 398 213 422T276 481L347 561L346 562Q352 569 356 577T364
592L356 595L353 597L349 598Q339 603 331 603Q317 603 300 589Q296 585 291 580T280 569Q260 551 235 527T188 473T152 409Q150 403 150 401ZM292 479L297 487L289 491L284 483V483L288 487L293 482L291 480L292 479Z" />
<glyph unicode="&#xbb;" glyph-name="guillemotright" horiz-adv-x="593" d="M337 123Q332 123 328 124T323 129Q323 133 335 145Q336 148 352 163T393 198T443 240T489 278T518 301Q511 309 494 327T457 368T426 408T415 433Q419 446 442 446L452 442Q483 405
524 379T609 326Q613 322 613 320Q611 314 591 296T540 253T477 204T420 160T383 134Q376 130 369 127T351 124Q350 124 346 124T337 123ZM118 123Q113 123 109 124T104 129Q104 134 115 145Q116 148 132 163T173 198T224 240T270 278T298 301Q291 309 274 327T237
368T206 408T195 433Q199 446 222 446L232 442Q264 405 305 379T389 326Q393 322 393 320Q391 314 371 296T320 253T257 204T200 160T163 134Q156 130 149 127T132 124Q131 124 127 124T118 123Z" />
<glyph unicode="&#xbc;" glyph-name="onequarter" horiz-adv-x="798" d="M183 48Q167 48 158 61T153 85Q154 87 167 103T199 142T231 182T249 203Q261 216 280 236T318 276T342 301Q335 292 315 268T270 215T224 159T192 120Q205 134 230 163T285 227T344 297T393
355T420 387Q435 404 458 432T503 490T538 543Q546 557 557 560T586 564Q609 564 617 559T623 549Q619 541 606 533T591 522Q586 515 570 496T531 450T487 397T447 349T420 317Q415 311 400 292T368 253T337 219Q353 239 360 248T372 265T388 286Q377 273 359 251T319
202T277 150T243 105T223 78Q213 62 203 55T183 48ZM120 238Q101 239 91 253T81 293Q81 326 102 359T145 422Q177 466 202 499T248 558Q241 553 230 545T207 528Q186 512 166 498T136 480H133Q128 480 128 485Q128 492 135 499Q143 504 157 515T191 541Q256 591
285 611T318 632Q328 632 342 623T356 603Q356 593 352 586T326 556Q325 554 325 554H323V554L324 553Q324 553 324 553V552Q321 550 317 545L315 546V546L317 545L310 537L307 539Q299 531 290 521T272 500L274 499L273 500L294 523L296 521L275 498H276Q270 491
265 484T254 469Q251 465 239 451Q225 434 202 406T159 347T128 289L125 291Q123 286 122 282L123 281V279H122Q121 279 121 278H122L120 270V271H116V267H120V265V265Q118 257 118 254Q118 247 122 241L120 238ZM554 -33Q536 -28 527 -10T517 21Q517 53 571 133Q543
128 517 123T482 112Q473 108 463 113T447 128T439 142Q436 160 450 177T482 207T506 224Q522 236 550 255T610 297T670 340T718 372T738 385Q755 385 768 375T790 354T798 339Q798 337 789 325T754 277Q740 259 723 238T689 193Q692 192 695 192T701 192V189Q702
189 703 189V192H707Q739 192 748 181V181L750 179Q762 172 762 162Q762 149 747 135T718 109Q704 95 695 95Q690 95 690 99Q690 104 694 109Q702 122 702 128Q702 144 654 143Q638 121 624 100T596 58Q585 39 575 21T566 -20V-22Q566 -32 561 -33T554 -33ZM666
293Q640 275 609 253T548 208T495 165L554 176Q568 178 581 180T606 184Q623 207 639 228T670 269Q683 286 694 300T713 326Q705 320 693 312T666 293ZM543 169Q551 171 567 173T602 179L603 180L542 172L543 169Z" />
<glyph unicode="&#xbd;" glyph-name="onehalf" horiz-adv-x="816" d="M180 48Q164 48 155 61T150 85Q151 87 164 103T196 142T228 182T246 203Q258 216 277 236T315 276T339 301Q332 292 312 268T267 215T221 159T189 120Q202 134 227 163T282 227T341 297T390
355T417 387Q432 404 455 432T500 490T535 543Q543 557 554 560T583 564Q606 564 614 559T620 549Q616 541 603 533T588 522Q583 515 567 496T528 450T484 397T444 349T417 317Q412 311 397 292T365 253T334 219Q350 239 357 248T369 265T385 286Q374 273 356 251T316
202T274 150T240 105T220 78Q210 62 200 55T180 48ZM120 238Q101 239 91 253T81 293Q81 326 102 359T145 422Q177 466 202 499T248 558Q241 553 230 545T207 528Q186 512 166 498T136 480H133Q128 480 128 485Q128 492 135 499Q143 504 157 515T191 541Q256 591
285 611T318 632Q328 632 342 623T356 603Q356 593 352 586T326 556Q325 554 325 554H323V554L324 553Q324 553 324 553V552Q321 550 317 545L315 546V546L317 545L310 537L307 539Q299 531 290 521T272 500L274 499L273 500L294 523L296 521L275 498H276Q270 491
265 484T254 469Q251 465 239 451Q225 434 202 406T159 347T128 289L125 291Q123 286 122 282L123 281V279H122Q121 279 121 278H122L120 270V271H116V267H120V265V265Q118 257 118 254Q118 247 122 241L120 238ZM472 -1Q466 -1 459 8T448 28T443 45Q443 55 455
64T496 90Q530 109 571 135T652 191T721 254Q738 273 748 290T759 321Q759 339 734 339Q719 339 690 330Q661 321 635 305T592 274T572 250Q572 225 560 225Q550 225 539 241T528 275Q528 278 528 280T530 286Q534 297 550 313T590 346T643 373T701 384Q721 384
743 372T782 339T798 296Q798 285 793 272V272Q793 272 793 272T792 271V269H790L791 268L790 267L788 269Q787 266 786 264L789 262L784 253Q774 238 758 222T722 187Q730 192 732 193L734 190Q721 178 688 155T620 112Q605 103 592 96T568 84Q562 81 557 79T547
73L526 62Q543 64 560 65T596 67Q614 67 640 65T685 58Q685 58 686 58T689 57Q696 56 706 54T718 46H716Q712 46 706 49Q710 46 713 42T714 36L711 35Q708 37 704 35Q702 33 697 33H651Q641 33 632 33T613 34Q583 34 555 30T498 10L492 7Q488 4 483 2T472 -1ZM708
178Q710 178 714 181L713 183Q710 180 708 178Z" />
<glyph unicode="&#xbe;" glyph-name="threequarters" horiz-adv-x="871" d="M135 251Q103 251 82 266T61 305Q61 330 74 330Q81 330 86 319Q91 306 101 301T125 295Q148 295 176 306T226 331Q287 366 287 386Q287 401 258 407T180 414Q173 416 167 424T161 443L163
445Q175 446 201 455T258 478T313 503T347 521Q362 531 371 543T381 566Q381 584 354 584Q336 584 306 575Q278 567 257 553T221 528L220 530Q213 525 209 521T204 516Q197 509 194 504T188 496Q188 471 176 471Q166 471 156 487T145 520Q145 523 145 526T147 532Q150
543 166 559T206 591T259 618T317 629Q337 629 359 617T398 584T415 541Q415 534 412 526Q401 496 337 469L335 473H336H334L336 469Q298 452 276 449L263 446Q255 444 248 443Q278 438 305 419T333 367Q333 355 328 345L326 346V345L328 344Q321 320 298 303T247
275T205 262V262Q163 251 135 251ZM152 258Q160 258 174 260T203 266Q208 268 213 269T225 273Q199 266 178 263T147 258H152ZM256 48Q240 48 231 61T226 85Q227 87 240 103T272 142T304 182T322 203Q334 216 353 236T391 276T415 301Q408 292 388 268T343 215T297
159T265 120Q278 134 303 163T358 227T417 297T466 355T493 387Q508 404 531 432T576 490T611 543Q619 557 630 560T659 564Q682 564 690 559T696 549Q692 541 679 533T664 522Q659 515 643 496T604 450T560 397T520 349T493 317Q488 311 473 292T441 253T410 219Q426
239 433 248T445 265T461 286Q450 273 432 251T392 202T350 150T316 105T296 78Q286 62 276 55T256 48ZM627 -34Q609 -29 600 -11T590 20Q590 52 644 132Q616 127 590 122T555 111Q546 107 536 112T520 127T512 141Q509 159 523 176T555 206T579 223Q595 235 623
254T683 296T743 339T791 371T811 384Q828 384 841 374T863 353T871 338Q871 336 862 324T827 276Q813 258 796 237T762 192Q765 191 768 191T774 191V188Q775 188 776 188V191H780Q812 191 821 180V180L823 178Q835 171 835 161Q835 148 820 134T791 108Q777 94
768 94Q763 94 763 98Q763 103 767 108Q775 121 775 127Q775 143 727 142Q711 120 697 99T669 57Q658 38 648 20T639 -21V-23Q639 -33 634 -34T627 -34ZM739 292Q713 274 682 252T621 207T568 164L627 175Q641 177 654 179T679 183Q696 206 712 227T743 268Q756
285 767 299T786 325Q778 319 766 311T739 292ZM616 168Q624 170 640 172T675 178L676 179L615 171L616 168Z" />
<glyph unicode="&#xbf;" glyph-name="questiondown" horiz-adv-x="316" d="M246 262Q239 262 232 266T220 283Q217 290 225 302T246 326T272 345T291 350Q302 345 314 333T334 308T342 284Q342 275 339 275Q335 275 328 280T308 285Q296 285 279 274T246 262ZM14
-253Q-10 -253 -34 -240T-78 -205T-110 -162T-120 -124Q-114 -79 -89 -49Q-76 -35 -50 -16T-1 11Q-8 7 -23 -3T-54 -25T-80 -48Q-75 -44 -60 -34T-27 -12T4 9T21 19L60 40Q104 60 143 86T190 147Q191 150 191 153T191 161Q191 165 190 171T188 185Q188 193 191
198T205 204Q237 201 248 186T271 154Q275 149 275 141Q275 126 261 106T225 66T178 28Q176 27 162 18T129 -4T93 -26T66 -39Q61 -41 73 -34T104 -14T139 9T157 27Q138 17 109 -1T51 -39T0 -76T-27 -97Q-43 -112 -51 -125T-59 -150Q-59 -166 -43 -175T3 -185Q8
-185 14 -185T26 -184Q43 -182 82 -168T160 -131L142 -143Q101 -171 71 -181T36 -194Q32 -195 31 -198T34 -201Q56 -193 88 -178T145 -147Q165 -133 185 -117T222 -85Q212 -94 201 -102T176 -120L228 -79Q230 -75 232 -74L230 -77Q249 -53 246 -31Q245 -28 245
-23Q245 -8 258 -8Q272 -8 279 -20Q287 -32 294 -54T302 -98Q302 -117 275 -143T205 -195T112 -236T14 -253Z" />
<glyph unicode="&#xc0;" glyph-name="Agrave" horiz-adv-x="862" d="M193 -43Q162 -42 129 -27T72 17T49 90Q49 135 75 176T148 252T252 310T373 345Q432 354 457 354Q488 354 488 345Q488 338 469 328T430 314Q374 304 322 287T235 250Q255 259 274 266T322 281T401
304Q374 295 335 279T252 241T172 194T111 144T87 95Q87 62 113 50T167 37Q203 37 247 52T339 91T432 144T514 201T575 253Q524 250 524 263Q524 270 545 277T604 285Q705 380 768 438T868 528T924 576Q917 571 900 558T866 534T845 522L939 596Q925 601 906 603T864
605Q809 605 744 595T622 572Q612 570 588 562T534 540T473 510T422 474T394 433Q398 425 398 418Q398 404 384 404Q372 404 358 418T344 457Q344 470 348 482Q358 514 386 541L382 539L388 543L386 541Q431 566 482 589T598 628T743 644Q787 644 836 639T940 621Q944
620 946 620T951 620Q913 634 862 639T757 645Q706 645 659 641T579 629Q562 625 543 620T504 607Q558 628 619 639T749 650Q843 650 949 629Q957 628 958 624T951 620Q957 618 963 616T973 610Q981 614 992 614Q1015 614 1032 595T1048 552Q1048 548 1034 527T996
475T947 410T897 343T854 286T831 253Q852 246 857 245T869 238Q875 234 868 231T848 226T826 225Q822 221 813 201T795 167Q800 181 809 199T819 228Q786 167 773 129T757 69T755 34Q756 21 764 7T772 -16Q772 -23 760 -23Q730 -22 716 8T701 74Q701 103 709 142T739
228Q736 219 731 202T724 179Q728 186 734 201T745 229T750 243Q743 244 713 248T654 255Q629 229 600 199T538 137Q557 153 574 170T609 204Q611 206 612 206Q613 206 609 201T599 190Q556 143 513 107T428 44Q457 64 485 88T538 137Q473 81 402 39T252 -28Q238
-32 217 -37T193 -43ZM388 543Q408 561 433 575T485 600Q461 590 440 577T397 549L388 543ZM766 271Q778 296 798 327T841 392T887 456T928 509Q900 490 877 473T827 432T763 372T672 280Q680 280 699 278T738 274T766 271ZM740 229Q740 230 741 231Q742 233 742
233Q742 233 741 231Q740 230 740 229ZM407 31Q407 31 407 31T408 32L428 44Q425 42 418 38T408 32L407 31ZM195 -43Q243 -37 295 -21T400 26Q351 -3 300 -23T195 -43ZM1090 681Q1071 681 1048 688T999 708Q1007 705 1016 702T1034 696L1002 709Q992 714 983 720T958
733Q951 735 945 739Q945 740 945 740T939 744Q920 753 902 763T876 786Q873 794 877 804T891 823T909 831Q913 831 917 828Q928 819 945 803T982 772T1015 746Q1009 752 1000 760T984 775T980 779Q997 765 1023 746T1073 709T1107 683Q1103 682 1099 682T1090
681ZM996 710Q989 712 982 715T967 722Q946 732 936 739T916 750Q913 751 905 757T892 767Q900 762 914 755T945 739Q945 736 950 734Q961 727 972 721T996 710Z" />
<glyph unicode="&#xc1;" glyph-name="Aacute" horiz-adv-x="862" d="M193 -43Q162 -42 129 -27T72 17T49 90Q49 135 75 176T148 252T252 310T373 345Q432 354 457 354Q488 354 488 345Q488 338 469 328T430 314Q374 304 322 287T235 250Q255 259 274 266T322 281T401
304Q374 295 335 279T252 241T172 194T111 144T87 95Q87 62 113 50T167 37Q203 37 247 52T339 91T432 144T514 201T575 253Q524 250 524 263Q524 270 545 277T604 285Q705 380 768 438T868 528T924 576Q917 571 900 558T866 534T845 522L939 596Q925 601 906 603T864
605Q809 605 744 595T622 572Q612 570 588 562T534 540T473 510T422 474T394 433Q398 425 398 418Q398 404 384 404Q372 404 358 418T344 457Q344 470 348 482Q358 514 386 541L382 539L388 543L386 541Q431 566 482 589T598 628T743 644Q787 644 836 639T940 621Q944
620 946 620T951 620Q913 634 862 639T757 645Q706 645 659 641T579 629Q562 625 543 620T504 607Q558 628 619 639T749 650Q843 650 949 629Q957 628 958 624T951 620Q957 618 963 616T973 610Q981 614 992 614Q1015 614 1032 595T1048 552Q1048 548 1034 527T996
475T947 410T897 343T854 286T831 253Q852 246 857 245T869 238Q875 234 868 231T848 226T826 225Q822 221 813 201T795 167Q800 181 809 199T819 228Q786 167 773 129T757 69T755 34Q756 21 764 7T772 -16Q772 -23 760 -23Q730 -22 716 8T701 74Q701 103 709 142T739
228Q736 219 731 202T724 179Q728 186 734 201T745 229T750 243Q743 244 713 248T654 255Q629 229 600 199T538 137Q557 153 574 170T609 204Q611 206 612 206Q613 206 609 201T599 190Q556 143 513 107T428 44Q457 64 485 88T538 137Q473 81 402 39T252 -28Q238
-32 217 -37T193 -43ZM388 543Q408 561 433 575T485 600Q461 590 440 577T397 549L388 543ZM766 271Q778 296 798 327T841 392T887 456T928 509Q900 490 877 473T827 432T763 372T672 280Q680 280 699 278T738 274T766 271ZM740 229Q740 230 741 231Q742 233 742
233Q742 233 741 231Q740 230 740 229ZM407 31Q407 31 407 31T408 32L428 44Q425 42 418 38T408 32L407 31ZM195 -43Q243 -37 295 -21T400 26Q351 -3 300 -23T195 -43ZM974 683Q988 694 1011 711T1061 747T1115 784T1159 817Q1165 821 1169 821Q1179 821 1189 815T1206
800T1210 784Q1203 773 1185 763T1147 742Q1142 741 1142 741T1142 738L1130 733Q1113 726 1098 720T1072 710Q1068 709 1059 704T1054 700Q1069 705 1085 711T1118 724Q1079 705 1041 692T974 683Z" />
<glyph unicode="&#xc2;" glyph-name="Acircumflex" horiz-adv-x="862" d="M193 -43Q162 -42 129 -27T72 17T49 90Q49 135 75 176T148 252T252 310T373 345Q432 354 457 354Q488 354 488 345Q488 338 469 328T430 314Q374 304 322 287T235 250Q255 259 274 266T322
281T401 304Q374 295 335 279T252 241T172 194T111 144T87 95Q87 62 113 50T167 37Q203 37 247 52T339 91T432 144T514 201T575 253Q524 250 524 263Q524 270 545 277T604 285Q705 380 768 438T868 528T924 576Q917 571 900 558T866 534T845 522L939 596Q925 601
906 603T864 605Q809 605 744 595T622 572Q612 570 588 562T534 540T473 510T422 474T394 433Q398 425 398 418Q398 404 384 404Q372 404 358 418T344 457Q344 470 348 482Q358 514 386 541L382 539L388 543L386 541Q431 566 482 589T598 628T743 644Q787 644 836
639T940 621Q944 620 946 620T951 620Q913 634 862 639T757 645Q706 645 659 641T579 629Q562 625 543 620T504 607Q558 628 619 639T749 650Q843 650 949 629Q957 628 958 624T951 620Q957 618 963 616T973 610Q981 614 992 614Q1015 614 1032 595T1048 552Q1048
548 1034 527T996 475T947 410T897 343T854 286T831 253Q852 246 857 245T869 238Q875 234 868 231T848 226T826 225Q822 221 813 201T795 167Q800 181 809 199T819 228Q786 167 773 129T757 69T755 34Q756 21 764 7T772 -16Q772 -23 760 -23Q730 -22 716 8T701
74Q701 103 709 142T739 228Q736 219 731 202T724 179Q728 186 734 201T745 229T750 243Q743 244 713 248T654 255Q629 229 600 199T538 137Q557 153 574 170T609 204Q611 206 612 206Q613 206 609 201T599 190Q556 143 513 107T428 44Q457 64 485 88T538 137Q473
81 402 39T252 -28Q238 -32 217 -37T193 -43ZM388 543Q408 561 433 575T485 600Q461 590 440 577T397 549L388 543ZM766 271Q778 296 798 327T841 392T887 456T928 509Q900 490 877 473T827 432T763 372T672 280Q680 280 699 278T738 274T766 271ZM740 229Q740
230 741 231Q742 233 742 233Q742 233 741 231Q740 230 740 229ZM407 31Q407 31 407 31T408 32L428 44Q425 42 418 38T408 32L407 31ZM195 -43Q243 -37 295 -21T400 26Q351 -3 300 -23T195 -43ZM887 684Q879 684 875 685Q886 693 911 710T964 748T1010 782Q1012
784 1005 778T989 764T971 749Q991 761 1018 783T1064 821L1077 831Q1082 834 1086 834Q1091 834 1094 831V830Q1096 829 1098 827T1101 822Q1112 806 1128 784T1157 749Q1151 758 1142 771T1135 782Q1146 768 1163 749T1197 712T1219 686Q1215 685 1212 685T1205
684Q1189 684 1170 691T1133 711Q1139 708 1146 705T1160 699L1136 712Q1128 717 1122 723T1104 736Q1098 738 1094 742Q1095 743 1095 743T1091 747Q1086 751 1081 754T1070 761Q1069 761 1069 761T1068 760Q1074 756 1080 752T1094 742Q1094 739 1097 737Q1105
730 1113 724T1131 713Q1120 717 1109 725Q1093 735 1086 742T1072 753Q1071 753 1070 755T1066 758Q1064 757 1062 756T1058 753Q1052 750 1037 742T1006 725T978 712Q951 699 928 692T887 684ZM1029 741L1065 760L1036 746Q1031 744 1031 744T1029 741Z" />
<glyph unicode="&#xc3;" glyph-name="Atilde" horiz-adv-x="862" d="M193 -43Q162 -42 129 -27T72 17T49 90Q49 135 75 176T148 252T252 310T373 345Q432 354 457 354Q488 354 488 345Q488 338 469 328T430 314Q374 304 322 287T235 250Q255 259 274 266T322 281T401
304Q374 295 335 279T252 241T172 194T111 144T87 95Q87 62 113 50T167 37Q203 37 247 52T339 91T432 144T514 201T575 253Q524 250 524 263Q524 270 545 277T604 285Q705 380 768 438T868 528T924 576Q917 571 900 558T866 534T845 522L939 596Q925 601 906 603T864
605Q809 605 744 595T622 572Q612 570 588 562T534 540T473 510T422 474T394 433Q398 425 398 418Q398 404 384 404Q372 404 358 418T344 457Q344 470 348 482Q358 514 386 541L382 539L388 543L386 541Q431 566 482 589T598 628T743 644Q787 644 836 639T940 621Q944
620 946 620T951 620Q913 634 862 639T757 645Q706 645 659 641T579 629Q562 625 543 620T504 607Q558 628 619 639T749 650Q843 650 949 629Q957 628 958 624T951 620Q957 618 963 616T973 610Q981 614 992 614Q1015 614 1032 595T1048 552Q1048 548 1034 527T996
475T947 410T897 343T854 286T831 253Q852 246 857 245T869 238Q875 234 868 231T848 226T826 225Q822 221 813 201T795 167Q800 181 809 199T819 228Q786 167 773 129T757 69T755 34Q756 21 764 7T772 -16Q772 -23 760 -23Q730 -22 716 8T701 74Q701 103 709 142T739
228Q736 219 731 202T724 179Q728 186 734 201T745 229T750 243Q743 244 713 248T654 255Q629 229 600 199T538 137Q557 153 574 170T609 204Q611 206 612 206Q613 206 609 201T599 190Q556 143 513 107T428 44Q457 64 485 88T538 137Q473 81 402 39T252 -28Q238
-32 217 -37T193 -43ZM388 543Q408 561 433 575T485 600Q461 590 440 577T397 549L388 543ZM766 271Q778 296 798 327T841 392T887 456T928 509Q900 490 877 473T827 432T763 372T672 280Q680 280 699 278T738 274T766 271ZM740 229Q740 230 741 231Q742 233 742
233Q742 233 741 231Q740 230 740 229ZM407 31Q407 31 407 31T408 32L428 44Q425 42 418 38T408 32L407 31ZM195 -43Q243 -37 295 -21T400 26Q351 -3 300 -23T195 -43ZM1127 699Q1115 699 1100 702Q1099 702 1083 706T1050 715T1025 723Q1031 719 1052 713T1091
702Q1102 700 1104 700T1096 700Q1087 701 1070 706T1034 717T999 727T977 732Q962 732 955 728T933 712Q935 714 938 718T948 726Q939 722 927 711T908 700Q898 700 898 711Q898 721 903 729Q919 758 944 770T997 782Q1020 782 1044 776T1093 761Q1067 768 1055
770T1025 776Q1054 769 1090 760T1148 751Q1161 751 1174 758T1192 776Q1196 784 1203 784Q1208 784 1211 779T1212 766Q1210 754 1201 738T1175 711T1127 699Z" />
<glyph unicode="&#xc4;" glyph-name="Adieresis" horiz-adv-x="862" d="M193 -43Q162 -42 129 -27T72 17T49 90Q49 135 75 176T148 252T252 310T373 345Q432 354 457 354Q488 354 488 345Q488 338 469 328T430 314Q374 304 322 287T235 250Q255 259 274 266T322
281T401 304Q374 295 335 279T252 241T172 194T111 144T87 95Q87 62 113 50T167 37Q203 37 247 52T339 91T432 144T514 201T575 253Q524 250 524 263Q524 270 545 277T604 285Q705 380 768 438T868 528T924 576Q917 571 900 558T866 534T845 522L939 596Q925 601
906 603T864 605Q809 605 744 595T622 572Q612 570 588 562T534 540T473 510T422 474T394 433Q398 425 398 418Q398 404 384 404Q372 404 358 418T344 457Q344 470 348 482Q358 514 386 541L382 539L388 543L386 541Q431 566 482 589T598 628T743 644Q787 644 836
639T940 621Q944 620 946 620T951 620Q913 634 862 639T757 645Q706 645 659 641T579 629Q562 625 543 620T504 607Q558 628 619 639T749 650Q843 650 949 629Q957 628 958 624T951 620Q957 618 963 616T973 610Q981 614 992 614Q1015 614 1032 595T1048 552Q1048
548 1034 527T996 475T947 410T897 343T854 286T831 253Q852 246 857 245T869 238Q875 234 868 231T848 226T826 225Q822 221 813 201T795 167Q800 181 809 199T819 228Q786 167 773 129T757 69T755 34Q756 21 764 7T772 -16Q772 -23 760 -23Q730 -22 716 8T701
74Q701 103 709 142T739 228Q736 219 731 202T724 179Q728 186 734 201T745 229T750 243Q743 244 713 248T654 255Q629 229 600 199T538 137Q557 153 574 170T609 204Q611 206 612 206Q613 206 609 201T599 190Q556 143 513 107T428 44Q457 64 485 88T538 137Q473
81 402 39T252 -28Q238 -32 217 -37T193 -43ZM388 543Q408 561 433 575T485 600Q461 590 440 577T397 549L388 543ZM766 271Q778 296 798 327T841 392T887 456T928 509Q900 490 877 473T827 432T763 372T672 280Q680 280 699 278T738 274T766 271ZM740 229Q740
230 741 231Q742 233 742 233Q742 233 741 231Q740 230 740 229ZM407 31Q407 31 407 31T408 32L428 44Q425 42 418 38T408 32L407 31ZM195 -43Q243 -37 295 -21T400 26Q351 -3 300 -23T195 -43ZM1136 685Q1121 691 1105 710T1089 743Q1089 754 1100 754Q1105 754
1113 753T1129 751Q1139 751 1151 758T1176 766Q1191 766 1201 744Q1204 738 1195 728T1175 709T1155 695Q1160 696 1171 703T1191 719Q1176 701 1159 692T1136 685ZM980 685Q965 691 950 710T934 743Q934 754 945 754Q950 754 957 753T973 751Q983 751 995 758T1020
766Q1035 766 1045 744Q1048 738 1040 728T1019 709T999 695Q1005 696 1017 704T1038 721Q1022 702 1004 693T980 685Z" />
<glyph unicode="&#xc5;" glyph-name="Aring" horiz-adv-x="862" d="M193 -43Q162 -42 129 -27T72 17T49 90Q49 135 75 176T148 252T252 310T373 345Q432 354 457 354Q488 354 488 345Q488 338 469 328T430 314Q374 304 322 287T235 250Q255 259 274 266T322 281T401
304Q374 295 335 279T252 241T172 194T111 144T87 95Q87 62 113 50T167 37Q203 37 247 52T339 91T432 144T514 201T575 253Q524 250 524 263Q524 270 545 277T604 285Q705 380 768 438T868 528T924 576Q917 571 900 558T866 534T845 522L939 596Q925 601 906 603T864
605Q809 605 744 595T622 572Q612 570 588 562T534 540T473 510T422 474T394 433Q398 425 398 418Q398 404 384 404Q372 404 358 418T344 457Q344 470 348 482Q358 514 386 541L382 539L388 543L386 541Q431 566 482 589T598 628T743 644Q787 644 836 639T940 621Q944
620 946 620T951 620Q913 634 862 639T757 645Q706 645 659 641T579 629Q562 625 543 620T504 607Q558 628 619 639T749 650Q843 650 949 629Q957 628 958 624T951 620Q957 618 963 616T973 610Q981 614 992 614Q1015 614 1032 595T1048 552Q1048 548 1034 527T996
475T947 410T897 343T854 286T831 253Q852 246 857 245T869 238Q875 234 868 231T848 226T826 225Q822 221 813 201T795 167Q800 181 809 199T819 228Q786 167 773 129T757 69T755 34Q756 21 764 7T772 -16Q772 -23 760 -23Q730 -22 716 8T701 74Q701 103 709 142T739
228Q736 219 731 202T724 179Q728 186 734 201T745 229T750 243Q743 244 713 248T654 255Q629 229 600 199T538 137Q557 153 574 170T609 204Q611 206 612 206Q613 206 609 201T599 190Q556 143 513 107T428 44Q457 64 485 88T538 137Q473 81 402 39T252 -28Q238
-32 217 -37T193 -43ZM388 543Q408 561 433 575T485 600Q461 590 440 577T397 549L388 543ZM766 271Q778 296 798 327T841 392T887 456T928 509Q900 490 877 473T827 432T763 372T672 280Q680 280 699 278T738 274T766 271ZM740 229Q740 230 741 231Q742 233 742
233Q742 233 741 231Q740 230 740 229ZM407 31Q407 31 407 31T408 32L428 44Q425 42 418 38T408 32L407 31ZM195 -43Q243 -37 295 -21T400 26Q351 -3 300 -23T195 -43ZM1077 677Q1070 677 1060 679T1038 688Q1025 694 1007 708T987 733Q986 739 986 744T985 756Q985
819 1063 859Q1074 865 1089 865Q1103 865 1121 862Q1143 860 1155 844T1168 807Q1168 803 1168 800T1166 792Q1164 783 1157 765T1146 737Q1148 740 1154 750T1163 768Q1164 773 1166 784T1170 798Q1171 781 1164 766T1150 740T1143 728Q1132 706 1114 692T1077
677ZM1046 706Q1046 704 1056 706Q1071 714 1086 729T1112 763Q1117 773 1124 790T1132 818L1128 807Q1130 812 1130 816T1130 824Q1130 839 1109 839Q1099 839 1085 833T1059 815Q1043 798 1035 775T1026 734Q1026 721 1031 713T1047 708Q1046 707 1046 706ZM1054
709Q1062 714 1077 727T1100 752Q1108 764 1115 781T1127 805Q1122 792 1118 780T1107 757Q1097 741 1083 728T1054 709Z" />
<glyph unicode="&#xc6;" glyph-name="AE" horiz-adv-x="1296" d="M193 -43Q162 -42 129 -27T72 17T49 90Q49 135 75 176T148 252T252 310T373 345Q432 354 457 354Q488 354 488 345Q488 338 469 328T430 314Q374 304 322 287T235 250Q255 259 274 266T322 281T401
304Q374 295 335 279T252 241T172 194T111 144T87 95Q87 62 113 50T167 37Q203 37 247 52T339 91T432 144T514 201T575 253Q524 250 524 263Q524 270 545 277T604 285Q705 380 768 438T868 528T924 576Q917 571 900 558T866 534T845 522L939 596Q911 605 866 605Q811
605 745 595T622 572Q612 570 588 562T534 540T473 510T422 474T394 433Q398 425 398 418Q398 404 384 404Q372 404 358 418T344 457Q344 470 348 482Q358 514 386 541L382 539L388 543L386 541Q431 566 482 589T598 628T743 644Q787 644 836 639T940 621Q944 620
946 620T951 620Q913 634 862 639T757 645Q706 645 659 641T579 629Q562 625 543 620T504 607Q558 628 619 639T749 650Q843 650 949 629Q957 628 958 624T951 620Q957 618 963 616T973 610Q981 614 992 614Q1015 614 1032 595T1048 552Q1048 550 1047 548Q1069
555 1090 561T1134 575Q1221 604 1307 622T1459 640Q1512 640 1542 627Q1551 608 1551 592Q1551 574 1543 563T1530 545Q1541 550 1550 567Q1555 574 1555 579T1560 589Q1562 592 1570 584T1585 565T1590 545Q1586 528 1567 505T1522 461T1470 428T1427 418Q1409
402 1374 381T1297 339T1219 305T1158 293Q1154 296 1144 308T1124 337T1115 367Q1115 375 1119 380Q1124 387 1140 405T1181 443T1239 473Q1245 475 1248 475Q1254 475 1250 468T1219 438Q1214 433 1200 421T1174 395T1162 372Q1162 362 1181 363Q1210 365 1246
377T1322 408T1396 448T1458 488Q1502 522 1502 536Q1502 544 1489 547T1454 550Q1398 550 1327 542T1179 516T1026 464Q1009 457 991 446T955 420L893 338Q893 329 902 324Q930 309 968 296T1047 271T1119 250Q1126 249 1126 243Q1126 236 1117 226T1095 207T1077
196Q1043 187 1001 171T921 136T859 101T836 73Q849 63 877 63Q909 63 954 75T1048 109Q1041 105 1035 102T1023 97Q1014 93 1002 87T981 76T975 71Q987 74 1009 83T1057 105T1101 127L1211 186L1093 131L1330 258Q1321 250 1288 230T1211 186Q1260 210 1299 231T1359
263Q1375 271 1380 271Q1388 271 1383 261T1360 235Q1326 203 1272 167T1152 95T1021 30T898 -14Q875 -20 856 -23T819 -27Q793 -27 772 -18Q770 -24 760 -23Q730 -22 716 8T701 74Q701 103 709 142T739 228Q736 219 731 202T724 179Q728 186 734 201T745 229T750
243Q743 244 713 248T654 255Q629 229 600 199T538 137Q557 153 574 170T609 204Q611 206 612 206Q613 206 609 201T599 190Q553 140 508 103T419 38Q451 59 480 85T538 137Q473 81 402 39T252 -28Q238 -32 217 -37T193 -43ZM1065 544Q1135 566 1209 583T1349 610T1458
620Q1485 620 1485 624Q1485 627 1474 627Q1419 629 1336 616T1157 575Q1135 569 1110 561T1065 544ZM388 543Q411 563 440 578T501 606Q473 595 447 580T397 549L388 543ZM1042 538Q1044 540 1047 541T1053 543L1043 540L1042 538ZM766 271Q778 296 798 327T841
392T887 456T928 509Q900 490 877 473T827 432T763 372T672 280Q680 280 699 278T738 274T766 271ZM792 166Q825 183 856 193T911 209Q925 216 942 222T975 235Q956 238 932 244T888 263T863 297Q841 266 831 247Q807 201 792 166ZM740 229Q740 230 741 231Q742
233 742 233Q742 233 741 231Q740 230 740 229ZM878 195Q900 201 925 208T972 221T1005 228Q1007 228 1008 228T1009 229H1004Q999 229 992 229T980 228Q967 227 960 223T933 214Q920 210 906 205T878 195ZM785 150Q803 162 822 171T860 189Q841 184 823 176T788
157L785 150ZM1048 109Q1058 114 1069 119T1093 131Q1082 125 1071 120T1048 109ZM195 -43Q243 -37 295 -21T400 26Q351 -3 300 -23T195 -43Z" />
<glyph unicode="&#xc7;" glyph-name="Ccedilla" horiz-adv-x="626" d="M176 -29Q152 -29 133 -23T113 -4Q113 4 121 9T139 14Q73 28 46 62T18 143Q18 181 33 223T74 306Q127 391 188 442T325 535Q306 526 287 517T250 497Q243 493 239 493T241 497Q274 516 319
537T398 575Q484 616 572 639T726 662Q765 662 792 653Q804 634 809 619T814 591Q814 581 812 574T807 562Q812 565 816 572T824 586Q827 593 827 598T830 608Q832 611 841 604T858 586T866 566Q865 549 850 525T812 479T766 442T726 429Q710 412 679 388T611 341T538
302T480 285Q475 288 462 301T438 330T427 361Q427 364 429 370Q433 377 446 396T480 436T533 470Q539 473 542 473Q547 473 544 465T519 434Q515 430 504 417T483 390T473 366Q473 354 493 357Q520 361 554 376T624 412T691 456T745 500Q782 536 782 556Q782 569
771 575T739 581Q735 581 730 581T718 579Q660 571 594 553T458 506T326 435T210 339T125 214Q102 166 102 131Q102 100 121 82T186 63Q224 63 283 79T426 132Q407 123 392 117T366 105Q357 101 339 95T306 84T294 79Q311 79 339 88T397 110T444 133Q467 145 492
159T542 188Q511 172 482 158T426 132L448 143Q455 147 475 158T523 185T578 216T627 244T659 262Q651 254 618 233T542 188Q608 222 688 267Q702 275 708 275Q716 275 712 266T691 239Q660 208 609 172T497 100T373 36T255 -8V-9Q255 -13 248 -18Q237 -24 216
-26T176 -29ZM336 537Q401 567 474 591T616 628T731 642Q745 642 745 644Q745 646 739 647T725 648Q696 646 647 640T538 619T420 579Q401 570 378 559T336 537ZM100 -239Q66 -239 35 -228Q14 -221 10 -208V-205Q10 -196 19 -196Q27 -196 44 -202T75 -208Q68 -207
56 -204T35 -198T30 -196Q41 -199 60 -203T93 -209Q128 -211 140 -200T153 -171Q153 -160 150 -147T142 -121Q132 -92 132 -68Q132 -36 151 -16T213 15Q217 16 221 16T225 12Q203 4 192 -16T179 -61Q179 -72 183 -81Q188 -91 197 -108T209 -141Q205 -131 200 -120T190
-100L184 -91Q184 -90 184 -90T183 -90Q183 -90 186 -96T191 -105Q199 -121 204 -134T210 -155Q210 -167 206 -178Q195 -211 165 -225T100 -239Z" />
<glyph unicode="&#xc8;" glyph-name="Egrave" horiz-adv-x="626" d="M143 -49Q137 -49 133 -49T124 -48Q106 -46 93 -37T79 -14Q79 -12 81 -6Q84 2 88 -1T93 -1Q86 15 81 35T75 76Q75 93 79 108T93 134Q116 152 140 165T190 189Q141 175 102 147Q101 146 101 146T100
146Q99 146 104 152T114 161Q149 181 182 192T241 209Q255 216 272 222T305 235Q292 237 268 242T217 256T165 277T126 304T113 337Q116 358 134 381T177 426T226 465T268 491Q294 505 323 518T383 543Q341 530 301 514Q293 511 289 511T292 515Q329 530 378 546T464
575Q551 604 637 622T789 640Q841 640 871 627Q876 617 878 608T880 591Q880 573 873 562T860 545Q871 550 880 567Q885 574 885 579T890 589Q892 592 900 584T914 565T919 545Q916 528 897 505T851 461T799 428T757 418Q739 402 704 381T627 339T549 305T488 293Q484
296 474 308T454 337T445 367Q445 375 449 380Q454 387 470 405T511 443T569 473Q575 475 578 475Q584 475 580 468T549 438Q544 433 530 421T504 395T492 372Q492 362 511 363Q540 365 576 377T652 408T726 448T787 488Q811 506 821 517T832 536Q832 544 819 547T783
550Q728 550 658 542T510 516T356 464Q337 456 309 445T254 420T209 392T191 362Q191 341 232 324Q261 312 299 299T377 273T449 250Q456 249 456 243Q456 236 446 226T425 207T407 196Q372 187 330 171T251 136T189 101T166 73Q179 63 207 63Q239 63 284 75T378
109Q371 105 365 102T353 97Q343 93 331 87T311 76T305 71Q317 74 339 83T387 105T431 127L541 186Q529 180 509 171T468 151T432 133T416 126Q414 126 420 130Q410 124 400 119T378 109Q388 114 399 119T423 131L659 258Q651 250 618 230T541 186Q590 210 629
231T689 263Q705 271 710 271Q718 271 713 261T690 235Q656 203 602 167T482 95T351 31T228 -14Q228 -18 226 -24T220 -32Q207 -41 185 -45T143 -49ZM395 544Q465 566 539 583T679 610T788 620Q814 620 814 624Q814 627 803 627Q748 629 665 616T487 575Q465 569
440 561T395 544ZM208 195Q240 204 276 211T328 220Q335 221 335 223Q335 225 330 227T321 228Q309 226 296 223T262 214Q249 210 235 205T208 195ZM698 718Q679 718 656 725T607 745Q615 742 624 739T642 733L610 746Q600 751 591 757T566 770Q559 772 553 776Q553
777 553 777T547 781Q528 790 510 800T484 823Q481 831 485 841T499 860T517 868Q521 868 525 865Q536 856 553 840T590 809T623 783Q617 789 608 797T592 812T588 816Q605 802 631 783T681 746T715 720Q711 719 707 719T698 718ZM604 747Q597 749 590 752T575
759Q554 769 544 776T524 787Q521 788 513 794T500 804Q508 799 522 792T553 776Q553 773 558 771Q569 764 580 758T604 747Z" />
<glyph unicode="&#xc9;" glyph-name="Eacute" horiz-adv-x="626" d="M143 -49Q137 -49 133 -49T124 -48Q106 -46 93 -37T79 -14Q79 -12 81 -6Q84 2 88 -1T93 -1Q86 15 81 35T75 76Q75 93 79 108T93 134Q116 152 140 165T190 189Q141 175 102 147Q101 146 101 146T100
146Q99 146 104 152T114 161Q149 181 182 192T241 209Q255 216 272 222T305 235Q292 237 268 242T217 256T165 277T126 304T113 337Q116 358 134 381T177 426T226 465T268 491Q294 505 323 518T383 543Q341 530 301 514Q293 511 289 511T292 515Q329 530 378 546T464
575Q551 604 637 622T789 640Q841 640 871 627Q876 617 878 608T880 591Q880 573 873 562T860 545Q871 550 880 567Q885 574 885 579T890 589Q892 592 900 584T914 565T919 545Q916 528 897 505T851 461T799 428T757 418Q739 402 704 381T627 339T549 305T488 293Q484
296 474 308T454 337T445 367Q445 375 449 380Q454 387 470 405T511 443T569 473Q575 475 578 475Q584 475 580 468T549 438Q544 433 530 421T504 395T492 372Q492 362 511 363Q540 365 576 377T652 408T726 448T787 488Q811 506 821 517T832 536Q832 544 819 547T783
550Q728 550 658 542T510 516T356 464Q337 456 309 445T254 420T209 392T191 362Q191 341 232 324Q261 312 299 299T377 273T449 250Q456 249 456 243Q456 236 446 226T425 207T407 196Q372 187 330 171T251 136T189 101T166 73Q179 63 207 63Q239 63 284 75T378
109Q371 105 365 102T353 97Q343 93 331 87T311 76T305 71Q317 74 339 83T387 105T431 127L541 186Q529 180 509 171T468 151T432 133T416 126Q414 126 420 130Q410 124 400 119T378 109Q388 114 399 119T423 131L659 258Q651 250 618 230T541 186Q590 210 629
231T689 263Q705 271 710 271Q718 271 713 261T690 235Q656 203 602 167T482 95T351 31T228 -14Q228 -18 226 -24T220 -32Q207 -41 185 -45T143 -49ZM395 544Q465 566 539 583T679 610T788 620Q814 620 814 624Q814 627 803 627Q748 629 665 616T487 575Q465 569
440 561T395 544ZM208 195Q240 204 276 211T328 220Q335 221 335 223Q335 225 330 227T321 228Q309 226 296 223T262 214Q249 210 235 205T208 195ZM582 720Q596 731 619 748T669 784T723 821T767 854Q773 858 777 858Q787 858 797 852T814 837T818 821Q811 810
793 800T755 779Q750 778 750 778T750 775L738 770Q721 763 706 757T680 747Q676 746 667 741T662 737Q677 742 693 748T726 761Q687 742 649 729T582 720Z" />
<glyph unicode="&#xca;" glyph-name="Ecircumflex" horiz-adv-x="626" d="M143 -49Q137 -49 133 -49T124 -48Q106 -46 93 -37T79 -14Q79 -12 81 -6Q84 2 88 -1T93 -1Q86 15 81 35T75 76Q75 93 79 108T93 134Q116 152 140 165T190 189Q141 175 102 147Q101 146
101 146T100 146Q99 146 104 152T114 161Q149 181 182 192T241 209Q255 216 272 222T305 235Q292 237 268 242T217 256T165 277T126 304T113 337Q116 358 134 381T177 426T226 465T268 491Q294 505 323 518T383 543Q341 530 301 514Q293 511 289 511T292 515Q329
530 378 546T464 575Q551 604 637 622T789 640Q841 640 871 627Q876 617 878 608T880 591Q880 573 873 562T860 545Q871 550 880 567Q885 574 885 579T890 589Q892 592 900 584T914 565T919 545Q916 528 897 505T851 461T799 428T757 418Q739 402 704 381T627 339T549
305T488 293Q484 296 474 308T454 337T445 367Q445 375 449 380Q454 387 470 405T511 443T569 473Q575 475 578 475Q584 475 580 468T549 438Q544 433 530 421T504 395T492 372Q492 362 511 363Q540 365 576 377T652 408T726 448T787 488Q811 506 821 517T832 536Q832
544 819 547T783 550Q728 550 658 542T510 516T356 464Q337 456 309 445T254 420T209 392T191 362Q191 341 232 324Q261 312 299 299T377 273T449 250Q456 249 456 243Q456 236 446 226T425 207T407 196Q372 187 330 171T251 136T189 101T166 73Q179 63 207 63Q239
63 284 75T378 109Q371 105 365 102T353 97Q343 93 331 87T311 76T305 71Q317 74 339 83T387 105T431 127L541 186Q529 180 509 171T468 151T432 133T416 126Q414 126 420 130Q410 124 400 119T378 109Q388 114 399 119T423 131L659 258Q651 250 618 230T541 186Q590
210 629 231T689 263Q705 271 710 271Q718 271 713 261T690 235Q656 203 602 167T482 95T351 31T228 -14Q228 -18 226 -24T220 -32Q207 -41 185 -45T143 -49ZM395 544Q465 566 539 583T679 610T788 620Q814 620 814 624Q814 627 803 627Q748 629 665 616T487 575Q465
569 440 561T395 544ZM208 195Q240 204 276 211T328 220Q335 221 335 223Q335 225 330 227T321 228Q309 226 296 223T262 214Q249 210 235 205T208 195ZM495 721Q487 721 483 722Q494 730 519 747T572 785T618 819Q620 821 613 815T597 801T579 786Q599 798 626
820T672 858L685 868Q690 871 694 871Q699 871 702 868V867Q704 866 706 864T709 859Q720 843 736 821T765 786Q759 795 750 808T743 819Q754 805 771 786T805 749T827 723Q823 722 820 722T813 721Q797 721 778 728T741 748Q747 745 754 742T768 736L744 749Q736
754 730 760T712 773Q706 775 702 779Q703 780 703 780T699 784Q694 788 689 791T678 798Q677 798 677 798T676 797Q682 793 688 789T702 779Q702 776 705 774Q713 767 721 761T739 750Q728 754 717 762Q701 772 694 779T680 790Q679 790 678 792T674 795Q672 794
670 793T666 790Q660 787 645 779T614 762T586 749Q559 736 536 729T495 721ZM637 778L673 797L644 783Q639 781 639 781T637 778Z" />
<glyph unicode="&#xcb;" glyph-name="Edieresis" horiz-adv-x="626" d="M143 -49Q137 -49 133 -49T124 -48Q106 -46 93 -37T79 -14Q79 -12 81 -6Q84 2 88 -1T93 -1Q86 15 81 35T75 76Q75 93 79 108T93 134Q116 152 140 165T190 189Q141 175 102 147Q101 146 101
146T100 146Q99 146 104 152T114 161Q149 181 182 192T241 209Q255 216 272 222T305 235Q292 237 268 242T217 256T165 277T126 304T113 337Q116 358 134 381T177 426T226 465T268 491Q294 505 323 518T383 543Q341 530 301 514Q293 511 289 511T292 515Q329 530
378 546T464 575Q551 604 637 622T789 640Q841 640 871 627Q876 617 878 608T880 591Q880 573 873 562T860 545Q871 550 880 567Q885 574 885 579T890 589Q892 592 900 584T914 565T919 545Q916 528 897 505T851 461T799 428T757 418Q739 402 704 381T627 339T549
305T488 293Q484 296 474 308T454 337T445 367Q445 375 449 380Q454 387 470 405T511 443T569 473Q575 475 578 475Q584 475 580 468T549 438Q544 433 530 421T504 395T492 372Q492 362 511 363Q540 365 576 377T652 408T726 448T787 488Q811 506 821 517T832 536Q832
544 819 547T783 550Q728 550 658 542T510 516T356 464Q337 456 309 445T254 420T209 392T191 362Q191 341 232 324Q261 312 299 299T377 273T449 250Q456 249 456 243Q456 236 446 226T425 207T407 196Q372 187 330 171T251 136T189 101T166 73Q179 63 207 63Q239
63 284 75T378 109Q371 105 365 102T353 97Q343 93 331 87T311 76T305 71Q317 74 339 83T387 105T431 127L541 186Q529 180 509 171T468 151T432 133T416 126Q414 126 420 130Q410 124 400 119T378 109Q388 114 399 119T423 131L659 258Q651 250 618 230T541 186Q590
210 629 231T689 263Q705 271 710 271Q718 271 713 261T690 235Q656 203 602 167T482 95T351 31T228 -14Q228 -18 226 -24T220 -32Q207 -41 185 -45T143 -49ZM395 544Q465 566 539 583T679 610T788 620Q814 620 814 624Q814 627 803 627Q748 629 665 616T487 575Q465
569 440 561T395 544ZM208 195Q240 204 276 211T328 220Q335 221 335 223Q335 225 330 227T321 228Q309 226 296 223T262 214Q249 210 235 205T208 195ZM744 722Q729 728 713 747T697 780Q697 791 708 791Q713 791 721 790T737 788Q747 788 759 795T784 803Q799
803 809 781Q812 775 803 765T783 746T763 732Q768 733 779 740T799 756Q784 738 767 729T744 722ZM588 722Q573 728 558 747T542 780Q542 791 553 791Q558 791 565 790T581 788Q591 788 603 795T628 803Q643 803 653 781Q656 775 648 765T627 746T607 732Q613
733 625 741T646 758Q630 739 612 730T588 722Z" />
<glyph unicode="&#xcc;" glyph-name="Igrave" horiz-adv-x="422" d="M254 -60Q254 -55 261 -47T279 -26Q304 2 319 21T337 46Q326 34 312 16T278 -22Q290 -8 301 8T319 35T325 46L169 36Q167 34 167 33Q171 33 180 33T195 34T196 34L165 31Q148 8 103 -9Q87 -6
79 3T66 25Q62 25 59 25T52 24Q41 24 17 21T-32 16T-64 12Q-66 12 -67 12T-71 11Q-83 11 -83 18Q-83 25 -69 34T-35 47Q-27 49 1 51T64 58Q64 65 65 71T68 81Q75 104 101 147T165 245T243 354T319 456T377 534L212 516Q205 512 199 512Q192 512 188 519T184 537Q184
548 187 560T196 584H198Q198 601 215 601Q223 601 232 599T252 597Q269 598 288 601T310 611Q314 617 316 617Q319 617 322 607Q323 605 323 601Q323 594 318 586L397 589Q398 592 398 595Q397 598 396 601T395 608Q395 616 404 616Q406 616 414 614Q422 611 434
606T458 592H475L490 593Q553 597 587 604T635 618T653 630T658 637Q662 639 663 639Q666 639 666 636Q666 630 659 623Q656 619 662 614T675 604T683 592Q683 586 671 580T626 567T533 552Q532 552 519 540T487 508T450 471T418 439T403 426Q402 426 412 438T439
469T471 506T498 537T508 549L493 548Q493 543 492 540Q480 527 455 498T395 428T324 344T252 256T188 178T142 120Q134 110 130 99T124 85Q152 81 164 69L175 70Q211 73 263 86T370 99H371Q376 99 381 95T389 91Q397 91 402 80T407 64Q407 60 393 47T356 15T312
-20T273 -48T254 -60ZM515 681Q496 681 473 688T424 708Q432 705 441 702T459 696L427 709Q417 714 408 720T383 733Q376 735 370 739Q370 740 370 740T364 744Q345 753 327 763T301 786Q298 794 302 804T316 823T334 831Q338 831 342 828Q353 819 370 803T407
772T440 746Q434 752 425 760T409 775T405 779Q422 765 448 746T498 709T532 683Q528 682 524 682T515 681ZM421 710Q414 712 407 715T392 722Q371 732 361 739T341 750Q338 751 330 757T317 767Q325 762 339 755T370 739Q370 736 375 734Q386 727 397 721T421
710Z" />
<glyph unicode="&#xcd;" glyph-name="Iacute" horiz-adv-x="422" d="M254 -60Q254 -55 261 -47T279 -26Q304 2 319 21T337 46Q326 34 312 16T278 -22Q290 -8 301 8T319 35T325 46L169 36Q167 34 167 33Q171 33 180 33T195 34T196 34L165 31Q148 8 103 -9Q87 -6
79 3T66 25Q62 25 59 25T52 24Q41 24 17 21T-32 16T-64 12Q-66 12 -67 12T-71 11Q-83 11 -83 18Q-83 25 -69 34T-35 47Q-27 49 1 51T64 58Q64 65 65 71T68 81Q75 104 101 147T165 245T243 354T319 456T377 534L212 516Q205 512 199 512Q192 512 188 519T184 537Q184
548 187 560T196 584H198Q198 601 215 601Q223 601 232 599T252 597Q269 598 288 601T310 611Q314 617 316 617Q319 617 322 607Q323 605 323 601Q323 594 318 586L397 589Q398 592 398 595Q397 598 396 601T395 608Q395 616 404 616Q406 616 414 614Q422 611 434
606T458 592H475L490 593Q553 597 587 604T635 618T653 630T658 637Q662 639 663 639Q666 639 666 636Q666 630 659 623Q656 619 662 614T675 604T683 592Q683 586 671 580T626 567T533 552Q532 552 519 540T487 508T450 471T418 439T403 426Q402 426 412 438T439
469T471 506T498 537T508 549L493 548Q493 543 492 540Q480 527 455 498T395 428T324 344T252 256T188 178T142 120Q134 110 130 99T124 85Q152 81 164 69L175 70Q211 73 263 86T370 99H371Q376 99 381 95T389 91Q397 91 402 80T407 64Q407 60 393 47T356 15T312
-20T273 -48T254 -60ZM399 683Q413 694 436 711T486 747T540 784T584 817Q590 821 594 821Q604 821 614 815T631 800T635 784Q628 773 610 763T572 742Q567 741 567 741T567 738L555 733Q538 726 523 720T497 710Q493 709 484 704T479 700Q494 705 510 711T543
724Q504 705 466 692T399 683Z" />
<glyph unicode="&#xce;" glyph-name="Icircumflex" horiz-adv-x="422" d="M254 -60Q254 -55 261 -47T279 -26Q304 2 319 21T337 46Q326 34 312 16T278 -22Q290 -8 301 8T319 35T325 46L169 36Q167 34 167 33Q171 33 180 33T195 34T196 34L165 31Q148 8 103 -9Q87
-6 79 3T66 25Q62 25 59 25T52 24Q41 24 17 21T-32 16T-64 12Q-66 12 -67 12T-71 11Q-83 11 -83 18Q-83 25 -69 34T-35 47Q-27 49 1 51T64 58Q64 65 65 71T68 81Q75 104 101 147T165 245T243 354T319 456T377 534L212 516Q205 512 199 512Q192 512 188 519T184
537Q184 548 187 560T196 584H198Q198 601 215 601Q223 601 232 599T252 597Q269 598 288 601T310 611Q314 617 316 617Q319 617 322 607Q323 605 323 601Q323 594 318 586L397 589Q398 592 398 595Q397 598 396 601T395 608Q395 616 404 616Q406 616 414 614Q422
611 434 606T458 592H475L490 593Q553 597 587 604T635 618T653 630T658 637Q662 639 663 639Q666 639 666 636Q666 630 659 623Q656 619 662 614T675 604T683 592Q683 586 671 580T626 567T533 552Q532 552 519 540T487 508T450 471T418 439T403 426Q402 426 412
438T439 469T471 506T498 537T508 549L493 548Q493 543 492 540Q480 527 455 498T395 428T324 344T252 256T188 178T142 120Q134 110 130 99T124 85Q152 81 164 69L175 70Q211 73 263 86T370 99H371Q376 99 381 95T389 91Q397 91 402 80T407 64Q407 60 393 47T356
15T312 -20T273 -48T254 -60ZM312 684Q304 684 300 685Q311 693 336 710T389 748T435 782Q437 784 430 778T414 764T396 749Q416 761 443 783T489 821L502 831Q507 834 511 834Q516 834 519 831V830Q521 829 523 827T526 822Q537 806 553 784T582 749Q576 758 567
771T560 782Q571 768 588 749T622 712T644 686Q640 685 637 685T630 684Q614 684 595 691T558 711Q564 708 571 705T585 699L561 712Q553 717 547 723T529 736Q523 738 519 742Q520 743 520 743T516 747Q511 751 506 754T495 761Q494 761 494 761T493 760Q499 756
505 752T519 742Q519 739 522 737Q530 730 538 724T556 713Q545 717 534 725Q518 735 511 742T497 753Q496 753 495 755T491 758Q489 757 487 756T483 753Q477 750 462 742T431 725T403 712Q376 699 353 692T312 684ZM454 741L490 760L461 746Q456 744 456 744T454
741Z" />
<glyph unicode="&#xcf;" glyph-name="Idieresis" horiz-adv-x="422" d="M254 -60Q254 -55 261 -47T279 -26Q304 2 319 21T337 46Q326 34 312 16T278 -22Q290 -8 301 8T319 35T325 46L169 36Q167 34 167 33Q171 33 180 33T195 34T196 34L165 31Q148 8 103 -9Q87
-6 79 3T66 25Q62 25 59 25T52 24Q41 24 17 21T-32 16T-64 12Q-66 12 -67 12T-71 11Q-83 11 -83 18Q-83 25 -69 34T-35 47Q-27 49 1 51T64 58Q64 65 65 71T68 81Q75 104 101 147T165 245T243 354T319 456T377 534L212 516Q205 512 199 512Q192 512 188 519T184
537Q184 548 187 560T196 584H198Q198 601 215 601Q223 601 232 599T252 597Q269 598 288 601T310 611Q314 617 316 617Q319 617 322 607Q323 605 323 601Q323 594 318 586L397 589Q398 592 398 595Q397 598 396 601T395 608Q395 616 404 616Q406 616 414 614Q422
611 434 606T458 592H475L490 593Q553 597 587 604T635 618T653 630T658 637Q662 639 663 639Q666 639 666 636Q666 630 659 623Q656 619 662 614T675 604T683 592Q683 586 671 580T626 567T533 552Q532 552 519 540T487 508T450 471T418 439T403 426Q402 426 412
438T439 469T471 506T498 537T508 549L493 548Q493 543 492 540Q480 527 455 498T395 428T324 344T252 256T188 178T142 120Q134 110 130 99T124 85Q152 81 164 69L175 70Q211 73 263 86T370 99H371Q376 99 381 95T389 91Q397 91 402 80T407 64Q407 60 393 47T356
15T312 -20T273 -48T254 -60ZM561 685Q546 691 530 710T514 743Q514 754 525 754Q530 754 538 753T554 751Q564 751 576 758T601 766Q616 766 626 744Q629 738 620 728T600 709T580 695Q585 696 596 703T616 719Q601 701 584 692T561 685ZM405 685Q390 691 375
710T359 743Q359 754 370 754Q375 754 382 753T398 751Q408 751 420 758T445 766Q460 766 470 744Q473 738 465 728T444 709T424 695Q430 696 442 704T463 721Q447 702 429 693T405 685Z" />
<glyph unicode="&#xd0;" glyph-name="Eth" horiz-adv-x="733" d="M236 -32Q220 -32 203 -26T176 -8T169 24Q173 43 197 62T256 101T328 135T399 159T452 170Q455 170 455 168Q455 164 449 158T438 150Q416 144 382 131T313 100T252 65Q237 55 231 49T225 38Q225
33 233 32T247 31Q324 34 396 67T532 152T650 263T742 379T802 479T823 540Q823 547 819 549Q792 565 748 573T657 582Q578 582 486 560T305 498T144 403Q120 384 102 361T77 309Q73 291 83 278T91 255Q91 250 86 250Q79 250 69 256Q53 269 37 290T21 340Q21 382
67 431T190 520Q169 510 148 500T104 479Q103 478 102 478T101 478Q99 478 104 482T115 489Q167 518 220 541T325 581Q293 570 264 557T208 529Q339 591 454 612T684 635Q692 635 695 635T698 636Q698 638 690 639T674 640Q608 641 528 631T360 594Q427 615 496
629T632 647Q641 648 650 648T669 648Q721 648 767 638T842 603T872 531Q889 510 889 477Q889 441 867 396T807 301T716 204Q766 252 804 304T875 426Q848 371 809 323T731 236T660 171T615 133Q590 111 559 93T501 61T458 38Q436 27 417 16T383 -3Q463 25 542
73T689 180L695 185Q695 185 695 185T689 180L611 111Q591 94 556 75T481 38T409 6T364 -14Q362 -15 367 -12T383 -3Q346 -16 309 -24T236 -32ZM56 -86Q37 -70 29 -55T20 -25Q20 -17 23 -8Q31 14 55 51T114 133Q98 132 83 132T56 132H21Q16 133 10 143T4 166Q4
179 13 189T48 200H68Q76 200 81 199T93 191Q109 190 125 190T158 189Q202 244 248 299T334 399T394 471Q386 467 381 467Q377 467 377 470Q377 474 383 480Q394 494 402 503T410 513Q416 515 430 509T461 492T487 470T494 450Q448 404 384 337T254 196Q270 198
285 200T316 206Q319 207 323 207Q332 207 332 200Q332 193 322 183T298 167Q276 159 254 154T209 143Q171 98 138 54T79 -29L91 -15L176 86Q191 102 193 102Q194 102 194 101Q194 98 188 92Q166 65 141 34T92 -29T56 -86ZM701 191H702V192H703V192L704 193V193V194H705V194L706
195V195L707 196Q707 196 706 195Q706 195 706 195Q706 195 705 194Q705 194 705 194Q705 194 704 194Q704 193 704 193Q704 193 704 193Q703 193 703 192Q703 192 703 192Q702 192 702 192Q703 192 702 191Q701 191 701 191ZM695 185Q695 185 696 186Q696 186
696 186Q696 186 697 187Q697 186 697 187H698V188H699V189V189H700V190Q700 190 700 189Q700 189 699 189Q699 189 699 189Q699 188 699 188Q698 188 698 188Q698 188 698 187Q698 187 697 187Q697 186 697 187L696 186V186L695 185Z" />
<glyph unicode="&#xd1;" glyph-name="Ntilde" horiz-adv-x="679" d="M586 -22Q549 -18 535 6T521 65Q521 98 530 134T551 199T573 244Q574 245 569 233T559 207T552 189Q572 233 598 281T651 372T699 448T729 491Q720 490 691 471T621 419T533 349T443 273T365
202T315 151Q319 152 330 161T354 183T377 205T390 215Q354 179 332 158T294 117T258 70Q299 64 299 47Q299 34 273 20T206 -1Q189 -2 183 6T176 26Q176 40 180 54T189 79Q197 100 222 139T283 228T360 331T440 435T510 525T559 586Q538 569 533 562T518 553Q531
567 543 579T563 610Q559 611 554 611T542 611Q511 611 468 606T376 592T282 572Q272 570 248 561T191 538T128 506T74 468T44 425Q47 418 47 412Q47 396 32 396Q20 396 8 408T-5 443Q-5 457 1 473Q6 487 15 500T35 525Q31 520 27 514T27 512Q41 523 71 538T138
568T208 598T264 621T286 634Q286 634 286 634T283 635Q281 635 275 634T261 631L242 627Q210 620 173 607T100 574T39 529Q95 589 189 621T413 653Q451 653 493 650Q444 652 393 649T299 638Q323 642 349 644T405 646Q439 646 476 643T555 635Q557 635 559 635T563
634Q573 634 573 637Q573 641 561 643Q546 645 531 647T502 650Q520 649 537 647T570 642Q570 653 579 653Q581 653 583 653T589 651Q601 648 618 639T650 617T664 589Q664 586 662 580Q650 568 625 540T567 472T496 389T423 300T355 216Q366 228 376 239T397 263Q433
295 481 337T580 421T676 498T754 547Q764 548 780 539T808 517T820 493Q809 477 784 442T728 360T667 265Q642 223 622 179T591 97T580 30Q580 -1 595 -12Q601 -16 601 -19Q601 -23 586 -22ZM920 653Q911 653 896 656Q895 656 882 660T853 669T832 677Q837 673
855 667T889 656Q898 654 900 654T893 654Q883 655 862 663T820 678T791 686Q778 686 772 682T753 666Q755 668 757 672T766 680Q759 676 748 665T732 654Q723 654 723 665Q723 673 727 683Q741 712 762 724T808 736Q828 736 849 730T890 715Q868 722 858 724T832
730Q857 723 888 714T938 705Q949 705 960 712T976 730Q980 738 985 738Q989 738 992 733T993 720Q991 708 984 692T961 665T920 653Z" />
<glyph unicode="&#xd2;" glyph-name="Ograve" horiz-adv-x="516" d="M178 -32Q158 -32 145 -21T114 8Q91 6 76 21T53 61T45 111Q45 124 46 136T52 158Q160 455 476 630Q496 631 519 620T562 590T592 548Q596 560 598 570T602 591Q604 607 596 612T580 620T578
628Q582 631 587 632T599 633Q606 633 612 633T623 632Q648 632 668 617T685 570Q681 539 663 498T618 412T561 323T503 242T455 179Q469 193 494 221T541 279Q547 288 560 308T588 351T613 388T622 402Q600 354 571 309T514 228T466 169T443 143Q398 91 348 52T253
-10T178 -32ZM155 6H156Q158 6 162 7T172 12Q190 22 220 44T280 91Q315 121 358 178T455 311Q407 244 353 182T249 76T164 14Q184 26 220 56T301 130T391 230Q409 252 430 282T474 343T516 400L505 383L543 436L516 400Q536 432 552 461T580 518Q573 524 564 531T546
544Q536 550 523 550Q489 550 432 509Q395 481 351 441T262 347T179 228T117 82Q115 74 115 68Q115 49 126 30T154 11Q157 11 163 13Q155 8 155 6ZM455 311Q458 315 463 323T472 337T473 338L455 311ZM651 711Q632 711 609 718T560 738Q568 735 577 732T595 726L563
739Q553 744 544 750T519 763Q512 765 506 769Q506 770 506 770T500 774Q481 783 463 793T437 816Q434 824 438 834T452 853T470 861Q474 861 478 858Q489 849 506 833T543 802T576 776Q570 782 561 790T545 805T541 809Q558 795 584 776T634 739T668 713Q664 712
660 712T651 711ZM557 740Q550 742 543 745T528 752Q507 762 497 769T477 780Q474 781 466 787T453 797Q461 792 475 785T506 769Q506 766 511 764Q522 757 533 751T557 740Z" />
<glyph unicode="&#xd3;" glyph-name="Oacute" horiz-adv-x="516" d="M178 -32Q158 -32 145 -21T114 8Q91 6 76 21T53 61T45 111Q45 124 46 136T52 158Q160 455 476 630Q496 631 519 620T562 590T592 548Q596 560 598 570T602 591Q604 607 596 612T580 620T578
628Q582 631 587 632T599 633Q606 633 612 633T623 632Q648 632 668 617T685 570Q681 539 663 498T618 412T561 323T503 242T455 179Q469 193 494 221T541 279Q547 288 560 308T588 351T613 388T622 402Q600 354 571 309T514 228T466 169T443 143Q398 91 348 52T253
-10T178 -32ZM155 6H156Q158 6 162 7T172 12Q190 22 220 44T280 91Q315 121 358 178T455 311Q407 244 353 182T249 76T164 14Q184 26 220 56T301 130T391 230Q409 252 430 282T474 343T516 400L505 383L543 436L516 400Q536 432 552 461T580 518Q573 524 564 531T546
544Q536 550 523 550Q489 550 432 509Q395 481 351 441T262 347T179 228T117 82Q115 74 115 68Q115 49 126 30T154 11Q157 11 163 13Q155 8 155 6ZM455 311Q458 315 463 323T472 337T473 338L455 311ZM535 713Q549 724 572 741T622 777T676 814T720 847Q726 851
730 851Q740 851 750 845T767 830T771 814Q764 803 746 793T708 772Q703 771 703 771T703 768L691 763Q674 756 659 750T633 740Q629 739 620 734T615 730Q630 735 646 741T679 754Q640 735 602 722T535 713Z" />
<glyph unicode="&#xd4;" glyph-name="Ocircumflex" horiz-adv-x="516" d="M178 -32Q158 -32 145 -21T114 8Q91 6 76 21T53 61T45 111Q45 124 46 136T52 158Q160 455 476 630Q496 631 519 620T562 590T592 548Q596 560 598 570T602 591Q604 607 596 612T580 620T578
628Q582 631 587 632T599 633Q606 633 612 633T623 632Q648 632 668 617T685 570Q681 539 663 498T618 412T561 323T503 242T455 179Q469 193 494 221T541 279Q547 288 560 308T588 351T613 388T622 402Q600 354 571 309T514 228T466 169T443 143Q398 91 348 52T253
-10T178 -32ZM155 6H156Q158 6 162 7T172 12Q190 22 220 44T280 91Q315 121 358 178T455 311Q407 244 353 182T249 76T164 14Q184 26 220 56T301 130T391 230Q409 252 430 282T474 343T516 400L505 383L543 436L516 400Q536 432 552 461T580 518Q573 524 564 531T546
544Q536 550 523 550Q489 550 432 509Q395 481 351 441T262 347T179 228T117 82Q115 74 115 68Q115 49 126 30T154 11Q157 11 163 13Q155 8 155 6ZM455 311Q458 315 463 323T472 337T473 338L455 311ZM448 714Q440 714 436 715Q447 723 472 740T525 778T571 812Q573
814 566 808T550 794T532 779Q552 791 579 813T625 851L638 861Q643 864 647 864Q652 864 655 861V860Q657 859 659 857T662 852Q673 836 689 814T718 779Q712 788 703 801T696 812Q707 798 724 779T758 742T780 716Q776 715 773 715T766 714Q750 714 731 721T694
741Q700 738 707 735T721 729L697 742Q689 747 683 753T665 766Q659 768 655 772Q656 773 656 773T652 777Q647 781 642 784T631 791Q630 791 630 791T629 790Q635 786 641 782T655 772Q655 769 658 767Q666 760 674 754T692 743Q681 747 670 755Q654 765 647 772T633
783Q632 783 631 785T627 788Q625 787 623 786T619 783Q613 780 598 772T567 755T539 742Q512 729 489 722T448 714ZM590 771L626 790L597 776Q592 774 592 774T590 771Z" />
<glyph unicode="&#xd5;" glyph-name="Otilde" horiz-adv-x="516" d="M178 -32Q158 -32 145 -21T114 8Q91 6 76 21T53 61T45 111Q45 124 46 136T52 158Q160 455 476 630Q496 631 519 620T562 590T592 548Q596 560 598 570T602 591Q604 607 596 612T580 620T578
628Q582 631 587 632T599 633Q606 633 612 633T623 632Q648 632 668 617T685 570Q681 539 663 498T618 412T561 323T503 242T455 179Q469 193 494 221T541 279Q547 288 560 308T588 351T613 388T622 402Q600 354 571 309T514 228T466 169T443 143Q398 91 348 52T253
-10T178 -32ZM155 6H156Q158 6 162 7T172 12Q190 22 220 44T280 91Q315 121 358 178T455 311Q407 244 353 182T249 76T164 14Q184 26 220 56T301 130T391 230Q409 252 430 282T474 343T516 400L505 383L543 436L516 400Q536 432 552 461T580 518Q573 524 564 531T546
544Q536 550 523 550Q489 550 432 509Q395 481 351 441T262 347T179 228T117 82Q115 74 115 68Q115 49 126 30T154 11Q157 11 163 13Q155 8 155 6ZM455 311Q458 315 463 323T472 337T473 338L455 311ZM701 729Q692 729 677 732Q676 732 663 736T634 745T613 753Q618
749 636 743T670 732Q679 730 681 730T674 730Q664 731 643 739T601 754T572 762Q559 762 553 758T534 742Q536 744 538 748T547 756Q540 752 529 741T513 730Q504 730 504 741Q504 749 508 759Q522 788 543 800T589 812Q609 812 630 806T671 791Q649 798 639 800T613
806Q638 799 669 790T719 781Q730 781 741 788T757 806Q761 814 766 814Q770 814 773 809T774 796Q772 784 765 768T742 741T701 729Z" />
<glyph unicode="&#xd6;" glyph-name="Odieresis" horiz-adv-x="516" d="M178 -32Q158 -32 145 -21T114 8Q91 6 76 21T53 61T45 111Q45 124 46 136T52 158Q160 455 476 630Q496 631 519 620T562 590T592 548Q596 560 598 570T602 591Q604 607 596 612T580 620T578
628Q582 631 587 632T599 633Q606 633 612 633T623 632Q648 632 668 617T685 570Q681 539 663 498T618 412T561 323T503 242T455 179Q469 193 494 221T541 279Q547 288 560 308T588 351T613 388T622 402Q600 354 571 309T514 228T466 169T443 143Q398 91 348 52T253
-10T178 -32ZM155 6H156Q158 6 162 7T172 12Q190 22 220 44T280 91Q315 121 358 178T455 311Q407 244 353 182T249 76T164 14Q184 26 220 56T301 130T391 230Q409 252 430 282T474 343T516 400L505 383L543 436L516 400Q536 432 552 461T580 518Q573 524 564 531T546
544Q536 550 523 550Q489 550 432 509Q395 481 351 441T262 347T179 228T117 82Q115 74 115 68Q115 49 126 30T154 11Q157 11 163 13Q155 8 155 6ZM455 311Q458 315 463 323T472 337T473 338L455 311ZM697 715Q682 721 666 740T650 773Q650 784 661 784Q666 784
674 783T690 781Q700 781 712 788T737 796Q752 796 762 774Q765 768 756 758T736 739T716 725Q721 726 732 733T752 749Q737 731 720 722T697 715ZM541 715Q526 721 511 740T495 773Q495 784 506 784Q511 784 518 783T534 781Q544 781 556 788T581 796Q596 796
606 774Q609 768 601 758T580 739T560 725Q566 726 578 734T599 751Q583 732 565 723T541 715Z" />
<glyph unicode="&#xd7;" glyph-name="multiply" horiz-adv-x="552" d="M40 45Q33 45 41 58T60 82Q61 83 79 100T122 139T165 178Q178 189 188 199T205 217Q204 225 204 238T203 267Q203 293 204 321T206 370T208 395Q210 419 225 428T248 433Q253 431 265 428T287
418T298 405Q297 402 296 388T292 356T288 323T285 301Q308 321 335 343T389 385T435 421T462 440Q469 444 475 444Q483 444 488 439T498 427Q505 427 506 426Q514 416 514 410Q514 397 495 388T457 365Q438 352 419 334T398 309Q398 298 393 298Q388 298 383 302Q380
304 379 308T376 317Q399 334 424 350T460 374Q467 378 470 380T469 381Q448 371 419 352T361 310T309 269T279 243L297 255Q308 263 331 282T376 317Q355 301 327 276T280 234Q279 224 279 216T278 200Q278 175 285 161T308 147Q321 147 339 159Q348 165 351 165Q354
165 354 162Q354 157 350 149T342 137Q330 121 313 110T277 99Q260 99 246 109Q232 118 224 135T213 181L197 170Q177 152 155 133T120 105Q124 110 135 120T160 141T182 162T192 173Q182 165 162 148T121 111T84 76T62 57Q47 45 40 45ZM298 403V405Q298 407 298
403Z" />
<glyph unicode="&#xd8;" glyph-name="Oslash" horiz-adv-x="532" d="M2 -113Q-11 -113 -18 -103T-22 -83Q-21 -81 -9 -66T21 -32T52 4T69 23L71 25Q58 40 52 63T45 111Q45 138 52 158Q160 455 476 630Q499 631 527 615T574 575L610 616Q603 620 599 622T598 628Q606
635 624 633L642 658Q650 672 661 680T690 688H695Q714 688 715 684T714 675Q710 666 697 658T682 647Q681 646 677 641T666 629Q684 623 696 608T705 570Q701 539 683 497T638 409T581 317T523 234T475 170Q485 179 499 197T530 238T561 279Q567 288 580 308T608
351T633 388T642 402Q620 354 591 309T534 228T486 169T463 143Q418 91 368 52T273 -10T198 -32Q177 -32 154 -21T114 8H112Q89 -22 70 -46T46 -79Q34 -98 23 -105T2 -113ZM599 517Q615 552 619 577L592 547Q599 533 599 522V517ZM117 66Q148 102 178 137T231 197T259
229Q265 236 286 258T338 314T405 387T477 467T546 544Q536 550 523 550Q489 550 432 509Q395 481 351 441T262 347T179 228T117 82Q116 79 116 74Q138 97 158 119T183 145Q177 139 158 118T116 69Q116 67 117 66ZM175 6H176Q178 6 182 7T192 12Q210 22 240 44T300
91Q335 121 378 178T475 311Q427 244 373 182T269 76T184 14Q204 26 240 56T321 130T411 230Q429 252 450 282T494 343T536 400Q530 391 524 382T511 363Q524 380 537 398T563 436L536 400Q554 429 569 456T596 509Q593 508 587 513T572 524Q535 483 493 436T409
344T332 259T273 193T243 160Q238 154 223 135T190 96T160 62Q175 80 181 89T193 106T206 122Q193 108 174 84T133 34Q141 24 152 18T173 11Q177 11 183 13Q175 8 175 6ZM20 -43L76 20L75 21Q58 1 43 -15T20 -43Z" />
<glyph unicode="&#xd9;" glyph-name="Ugrave" horiz-adv-x="716" d="M610 -39Q574 -35 560 -10T546 51Q546 86 555 123T575 190T592 232Q582 199 579 187T576 172Q587 204 601 241T633 306Q568 235 518 185T419 96T313 22Q293 10 272 3T231 -5Q210 -5 197 6T183
42Q183 58 189 79Q204 130 239 188T321 306T414 420T500 517T559 586Q538 569 533 562T518 553Q531 567 543 579T563 610Q543 612 508 602T432 577T356 546T300 521Q289 516 262 501T205 464T153 415T129 360Q136 350 136 342Q136 330 122 330Q108 330 91 346T73
394Q73 431 94 460T147 513Q126 495 112 476T87 436Q84 431 83 423T84 420Q98 448 130 484T220 553T361 609T562 632Q576 632 576 634Q576 636 571 637T559 637Q559 642 565 647T581 652Q586 652 589 651Q601 648 623 636T663 608T681 576Q681 574 681 572T679
568Q666 555 637 526T568 456T485 369T401 277T328 188T280 115Q267 90 267 78Q267 65 281 65Q295 65 315 75T344 93Q388 127 420 156T481 213T541 276T614 355Q639 382 657 408T694 459T743 508Q755 509 775 497T811 469T827 439Q815 419 784 377T716 280T645
166Q614 111 601 78T588 24Q588 6 597 -4T619 -24Q625 -27 625 -32Q625 -40 610 -39ZM280 587Q310 599 353 611T444 630T533 638Q540 638 546 638T559 637Q475 633 406 620T280 587ZM160 523Q210 558 280 587L273 583Q248 569 218 556T160 523ZM147 513L148 514H149L150
515H151L152 516L153 517V517Q154 518 155 518Q155 519 156 519Q156 520 156 520T157 520Q157 520 158 521L157 520L156 519L155 518Q154 518 153 517Q153 517 153 517Q152 516 152 516Q151 516 151 515Q150 515 150 515Q150 515 149 514Q149 514 149 514T148 514Q148
513 147 513ZM819 676Q800 676 777 683T728 703Q736 700 745 697T763 691L731 704Q721 709 712 715T687 728Q680 730 674 734Q674 735 674 735T668 739Q649 748 631 758T605 781Q602 789 606 799T620 818T638 826Q642 826 646 823Q657 814 674 798T711 767T744
741Q738 747 729 755T713 770T709 774Q726 760 752 741T802 704T836 678Q832 677 828 677T819 676ZM725 705Q718 707 711 710T696 717Q675 727 665 734T645 745Q642 746 634 752T621 762Q629 757 643 750T674 734Q674 731 679 729Q690 722 701 716T725 705Z" />
<glyph unicode="&#xda;" glyph-name="Uacute" horiz-adv-x="716" d="M610 -39Q574 -35 560 -10T546 51Q546 86 555 123T575 190T592 232Q582 199 579 187T576 172Q587 204 601 241T633 306Q568 235 518 185T419 96T313 22Q293 10 272 3T231 -5Q210 -5 197 6T183
42Q183 58 189 79Q204 130 239 188T321 306T414 420T500 517T559 586Q538 569 533 562T518 553Q531 567 543 579T563 610Q543 612 508 602T432 577T356 546T300 521Q289 516 262 501T205 464T153 415T129 360Q136 350 136 342Q136 330 122 330Q108 330 91 346T73
394Q73 431 94 460T147 513Q126 495 112 476T87 436Q84 431 83 423T84 420Q98 448 130 484T220 553T361 609T562 632Q576 632 576 634Q576 636 571 637T559 637Q559 642 565 647T581 652Q586 652 589 651Q601 648 623 636T663 608T681 576Q681 574 681 572T679
568Q666 555 637 526T568 456T485 369T401 277T328 188T280 115Q267 90 267 78Q267 65 281 65Q295 65 315 75T344 93Q388 127 420 156T481 213T541 276T614 355Q639 382 657 408T694 459T743 508Q755 509 775 497T811 469T827 439Q815 419 784 377T716 280T645
166Q614 111 601 78T588 24Q588 6 597 -4T619 -24Q625 -27 625 -32Q625 -40 610 -39ZM280 587Q310 599 353 611T444 630T533 638Q540 638 546 638T559 637Q475 633 406 620T280 587ZM160 523Q210 558 280 587L273 583Q248 569 218 556T160 523ZM147 513L148 514H149L150
515H151L152 516L153 517V517Q154 518 155 518Q155 519 156 519Q156 520 156 520T157 520Q157 520 158 521L157 520L156 519L155 518Q154 518 153 517Q153 517 153 517Q152 516 152 516Q151 516 151 515Q150 515 150 515Q150 515 149 514Q149 514 149 514T148 514Q148
513 147 513ZM703 678Q717 689 740 706T790 742T844 779T888 812Q894 816 898 816Q908 816 918 810T935 795T939 779Q932 768 914 758T876 737Q871 736 871 736T871 733L859 728Q842 721 827 715T801 705Q797 704 788 699T783 695Q798 700 814 706T847 719Q808
700 770 687T703 678Z" />
<glyph unicode="&#xdb;" glyph-name="Ucircumflex" horiz-adv-x="716" d="M610 -39Q574 -35 560 -10T546 51Q546 86 555 123T575 190T592 232Q582 199 579 187T576 172Q587 204 601 241T633 306Q568 235 518 185T419 96T313 22Q293 10 272 3T231 -5Q210 -5 197
6T183 42Q183 58 189 79Q204 130 239 188T321 306T414 420T500 517T559 586Q538 569 533 562T518 553Q531 567 543 579T563 610Q543 612 508 602T432 577T356 546T300 521Q289 516 262 501T205 464T153 415T129 360Q136 350 136 342Q136 330 122 330Q108 330 91
346T73 394Q73 431 94 460T147 513Q126 495 112 476T87 436Q84 431 83 423T84 420Q98 448 130 484T220 553T361 609T562 632Q576 632 576 634Q576 636 571 637T559 637Q559 642 565 647T581 652Q586 652 589 651Q601 648 623 636T663 608T681 576Q681 574 681 572T679
568Q666 555 637 526T568 456T485 369T401 277T328 188T280 115Q267 90 267 78Q267 65 281 65Q295 65 315 75T344 93Q388 127 420 156T481 213T541 276T614 355Q639 382 657 408T694 459T743 508Q755 509 775 497T811 469T827 439Q815 419 784 377T716 280T645
166Q614 111 601 78T588 24Q588 6 597 -4T619 -24Q625 -27 625 -32Q625 -40 610 -39ZM280 587Q310 599 353 611T444 630T533 638Q540 638 546 638T559 637Q475 633 406 620T280 587ZM160 523Q210 558 280 587L273 583Q248 569 218 556T160 523ZM147 513L148 514H149L150
515H151L152 516L153 517V517Q154 518 155 518Q155 519 156 519Q156 520 156 520T157 520Q157 520 158 521L157 520L156 519L155 518Q154 518 153 517Q153 517 153 517Q152 516 152 516Q151 516 151 515Q150 515 150 515Q150 515 149 514Q149 514 149 514T148 514Q148
513 147 513ZM616 679Q608 679 604 680Q615 688 640 705T693 743T739 777Q741 779 734 773T718 759T700 744Q720 756 747 778T793 816L806 826Q811 829 815 829Q820 829 823 826V825Q825 824 827 822T830 817Q841 801 857 779T886 744Q880 753 871 766T864 777Q875
763 892 744T926 707T948 681Q944 680 941 680T934 679Q918 679 899 686T862 706Q868 703 875 700T889 694L865 707Q857 712 851 718T833 731Q827 733 823 737Q824 738 824 738T820 742Q815 746 810 749T799 756Q798 756 798 756T797 755Q803 751 809 747T823 737Q823
734 826 732Q834 725 842 719T860 708Q849 712 838 720Q822 730 815 737T801 748Q800 748 799 750T795 753Q793 752 791 751T787 748Q781 745 766 737T735 720T707 707Q680 694 657 687T616 679ZM758 736L794 755L765 741Q760 739 760 739T758 736Z" />
<glyph unicode="&#xdc;" glyph-name="Udieresis" horiz-adv-x="716" d="M610 -39Q574 -35 560 -10T546 51Q546 86 555 123T575 190T592 232Q582 199 579 187T576 172Q587 204 601 241T633 306Q568 235 518 185T419 96T313 22Q293 10 272 3T231 -5Q210 -5 197 6T183
42Q183 58 189 79Q204 130 239 188T321 306T414 420T500 517T559 586Q538 569 533 562T518 553Q531 567 543 579T563 610Q543 612 508 602T432 577T356 546T300 521Q289 516 262 501T205 464T153 415T129 360Q136 350 136 342Q136 330 122 330Q108 330 91 346T73
394Q73 431 94 460T147 513Q126 495 112 476T87 436Q84 431 83 423T84 420Q98 448 130 484T220 553T361 609T562 632Q576 632 576 634Q576 636 571 637T559 637Q559 642 565 647T581 652Q586 652 589 651Q601 648 623 636T663 608T681 576Q681 574 681 572T679
568Q666 555 637 526T568 456T485 369T401 277T328 188T280 115Q267 90 267 78Q267 65 281 65Q295 65 315 75T344 93Q388 127 420 156T481 213T541 276T614 355Q639 382 657 408T694 459T743 508Q755 509 775 497T811 469T827 439Q815 419 784 377T716 280T645
166Q614 111 601 78T588 24Q588 6 597 -4T619 -24Q625 -27 625 -32Q625 -40 610 -39ZM280 587Q310 599 353 611T444 630T533 638Q540 638 546 638T559 637Q475 633 406 620T280 587ZM160 523Q210 558 280 587L273 583Q248 569 218 556T160 523ZM147 513L148 514H149L150
515H151L152 516L153 517V517Q154 518 155 518Q155 519 156 519Q156 520 156 520T157 520Q157 520 158 521L157 520L156 519L155 518Q154 518 153 517Q153 517 153 517Q152 516 152 516Q151 516 151 515Q150 515 150 515Q150 515 149 514Q149 514 149 514T148 514Q148
513 147 513ZM865 680Q850 686 834 705T818 738Q818 749 829 749Q834 749 842 748T858 746Q868 746 880 753T905 761Q920 761 930 739Q933 733 924 723T904 704T884 690Q889 691 900 698T920 714Q905 696 888 687T865 680ZM709 680Q694 686 679 705T663 738Q663
749 674 749Q679 749 686 748T702 746Q712 746 724 753T749 761Q764 761 774 739Q777 733 769 723T748 704T728 690Q734 691 746 699T767 716Q751 697 733 688T709 680Z" />
<glyph unicode="&#xdd;" glyph-name="Yacute" horiz-adv-x="679" d="M231 -288Q218 -284 202 -276T186 -251Q186 -245 189 -239L191 -235Q176 -219 166 -201T156 -166Q156 -159 157 -156Q184 -116 234 -73T350 9T491 75Q507 96 520 116T546 155Q545 155 558 179T588
234Q539 185 494 148T405 81T313 22Q293 10 272 3T231 -5Q210 -5 197 6T183 42Q183 58 189 79Q204 130 239 188T321 306T414 420T500 517T559 586Q538 569 533 562T518 553Q531 567 543 579T563 610Q543 612 508 602T432 577T356 546T300 521Q289 516 262 501T205
464T153 415T129 360Q136 350 136 342Q136 330 122 330Q108 330 91 346T73 394Q73 432 96 462T153 516Q156 518 158 520Q158 520 158 520T153 516Q130 499 114 478T87 436Q84 431 83 423T84 420Q98 448 130 484T220 553T361 609T562 632Q576 632 576 634Q576 636
571 637T559 637Q559 642 565 647T581 652Q586 652 589 651Q601 648 623 636T663 608T681 576Q681 574 681 572T679 568Q666 555 637 526T568 456T485 369T401 277T328 188T280 115Q267 90 267 78Q267 65 281 65Q295 65 315 75T344 93Q388 127 425 153T496 204T566
261T644 337Q667 361 670 361Q672 361 665 351T645 326Q658 325 676 317T707 299T718 283Q718 283 703 256T659 184T591 84L617 86H620Q634 86 634 77Q634 69 621 66Q609 62 594 57T564 46L553 33L558 40L559 42L490 -37Q475 -54 452 -78T404 -127T356 -173T321
-207T310 -219Q363 -179 412 -130T509 -20Q516 -10 526 1T545 23Q534 7 517 -16T477 -67Q463 -84 439 -107T389 -153T341 -195T310 -219Q317 -219 321 -222Q325 -224 314 -235T286 -259T253 -281T231 -288ZM280 587Q310 599 353 611T444 630T533 638Q540 638 546
638T559 637Q475 633 406 620T280 587ZM160 522Q208 557 280 587L273 583Q248 569 218 556T160 522ZM232 -244Q259 -217 295 -178T368 -96T434 -21Q447 -7 460 8T484 39Q466 17 460 13T453 8Q436 1 408 -18T347 -63T287 -119T241 -176T223 -223Q223 -235 232 -244ZM713
666Q727 677 750 694T800 730T854 767T898 800Q904 804 908 804Q918 804 928 798T945 783T949 767Q942 756 924 746T886 725Q881 724 881 724T881 721L869 716Q852 709 837 703T811 693Q807 692 798 687T793 683Q808 688 824 694T857 707Q818 688 780 675T713 666Z"
/>
<glyph unicode="&#xde;" glyph-name="Thorn" horiz-adv-x="727" d="M243 -41Q236 -41 230 -41T215 -39Q192 -35 184 -19T175 16Q175 36 180 51Q185 68 203 100T249 173T307 259T370 346Q435 431 507 521T646 698Q645 703 643 709T641 722Q641 730 645 736T662
743Q669 743 681 740Q691 735 705 726T730 705T741 685Q741 671 718 645T660 582L642 563Q681 554 717 538T778 498T802 442Q802 420 791 399Q792 394 792 389T793 378Q793 344 776 313T736 258Q747 268 757 281T781 320Q772 292 760 277T735 250Q712 227 685 214T616
180Q606 176 591 172T557 162Q607 177 654 201T734 256L726 249Q694 221 668 209T637 195Q618 188 587 178T528 160T489 149L487 148Q497 149 507 150T527 154Q530 155 533 156Q533 156 532 156T527 154Q486 145 450 140T385 135Q369 135 365 137T359 144Q359 149
366 153Q368 154 369 155T373 157Q418 167 469 185T571 229T661 284T726 345T751 407Q751 431 727 451T668 486T596 510Q572 481 549 453T509 404T487 378Q488 381 497 394T520 424T545 453Q550 459 564 477T589 511Q587 512 584 512Q572 497 553 472T517 424T489
390Q474 374 447 338T388 257T327 165T280 80T261 21Q261 17 263 11Q307 4 307 -14Q307 -24 290 -32T243 -41Z" />
<glyph unicode="&#xdf;" glyph-name="germandbls" horiz-adv-x="679" d="M-236 -350Q-258 -350 -278 -337T-298 -291Q-298 -268 -288 -248T-273 -228Q-268 -228 -271 -241Q-271 -251 -271 -256T-271 -273Q-269 -285 -261 -301T-242 -313Q-219 -305 -194 -285T-145
-237T-100 -185T-68 -143Q-5 -56 54 42T178 239T322 425Q390 500 460 556T599 635Q637 648 667 653T722 659Q776 659 803 637T847 587Q851 581 862 573T883 552T894 520Q894 509 890 496T875 468Q864 435 838 410T778 362Q784 367 790 371T802 380Q827 400 843
420T871 460Q871 461 871 462Q873 465 873 465V465L871 462V460Q867 455 863 452Q869 459 873 465L874 467Q872 463 869 460T863 452Q837 418 801 391T734 345T692 321L630 289Q653 299 676 309T722 329L688 310Q675 303 654 294T609 275T567 260T539 253Q537 253
545 256T566 264T588 271Q602 276 627 288Q580 270 532 257T436 231Q454 231 477 226T522 209T558 183T572 146Q572 140 571 136Q566 111 535 83T455 29T351 -13T239 -32Q223 -32 205 -27T176 -8T169 24Q173 43 197 62T256 101T328 135T399 159T452 170Q455 170
455 168Q455 164 449 158T438 150Q416 144 382 131T313 100T252 65Q237 55 231 49T225 38Q225 33 233 32T247 31Q280 33 321 45T400 79T466 125T498 177Q501 191 474 198T396 205Q385 205 373 205T348 204Q339 207 339 216Q339 233 355 235Q376 241 417 256T511
294T618 345T717 406T791 474T819 545Q819 582 798 598T744 614Q715 614 682 603T617 575Q553 539 484 475T350 338Q312 295 269 231T179 94T83 -53T-17 -190T-117 -295T-217 -348Q-221 -349 -226 -349T-236 -350Z" />
<glyph unicode="&#xe0;" glyph-name="agrave" horiz-adv-x="407" d="M74 -17Q68 -17 56 -4T31 26T12 51Q21 90 43 132T96 216T156 292T210 351Q193 338 174 318T148 290Q136 278 124 267T102 244Q132 281 161 312T204 353Q207 356 212 360T225 365L233 374Q260
373 291 358T344 318T368 262Q368 258 364 255T358 258Q351 273 342 285T322 304Q312 310 301 310Q289 310 279 302Q259 287 232 258T177 194T128 128T98 75Q104 82 119 95T151 121T180 144Q184 147 197 156T224 175T248 190Q248 188 237 179T209 159T180 139T163
127Q152 117 138 104T111 80T95 64Q93 60 94 59T98 62Q107 75 125 90T164 120T203 149Q223 164 239 175T269 197Q270 218 284 226T307 231Q313 229 325 224T348 211T354 194Q347 178 344 145T340 83Q340 43 365 43Q378 43 400 57Q408 62 412 62Q415 62 415 59Q415
55 410 48T403 38Q391 25 375 15T341 4Q334 4 327 6T313 13Q288 30 278 65T267 125Q267 131 267 136T269 145Q258 136 233 115T176 67T117 17T74 -17ZM360 436Q332 436 298 448T228 478Q244 471 260 465T292 454H293Q294 454 286 458T274 464Q264 468 249 474T216
487L204 492Q204 494 204 494T199 496Q192 498 187 502T175 513Q172 520 178 528T196 543T216 550Q220 550 226 546Q263 518 304 489T372 437Q369 436 366 436T360 436Z" />
<glyph unicode="&#xe1;" glyph-name="aacute" horiz-adv-x="407" d="M74 -17Q68 -17 56 -4T31 26T12 51Q21 90 43 132T96 216T156 292T210 351Q193 338 174 318T148 290Q136 278 124 267T102 244Q132 281 161 312T204 353Q207 356 212 360T225 365L233 374Q260
373 291 358T344 318T368 262Q368 258 364 255T358 258Q351 273 342 285T322 304Q312 310 301 310Q289 310 279 302Q259 287 232 258T177 194T128 128T98 75Q104 82 119 95T151 121T180 144Q184 147 197 156T224 175T248 190Q248 188 237 179T209 159T180 139T163
127Q152 117 138 104T111 80T95 64Q93 60 94 59T98 62Q107 75 125 90T164 120T203 149Q223 164 239 175T269 197Q270 218 284 226T307 231Q313 229 325 224T348 211T354 194Q347 178 344 145T340 83Q340 43 365 43Q378 43 400 57Q408 62 412 62Q415 62 415 59Q415
55 410 48T403 38Q391 25 375 15T341 4Q334 4 327 6T313 13Q288 30 278 65T267 125Q267 131 267 136T269 145Q258 136 233 115T176 67T117 17T74 -17ZM239 437Q266 459 307 488T385 546Q391 550 395 550Q405 550 415 544T432 529T436 513Q430 506 425 502T412 496Q407
495 407 495T407 492L395 487Q378 480 363 474T337 464Q333 463 324 458T319 454Q334 459 350 465T383 478Q344 459 306 446T239 437Z" />
<glyph unicode="&#xe2;" glyph-name="acircumflex" horiz-adv-x="407" d="M74 -17Q68 -17 56 -4T31 26T12 51Q21 90 43 132T96 216T156 292T210 351Q193 338 174 318T148 290Q136 278 124 267T102 244Q132 281 161 312T204 353Q207 356 212 360T225 365L233 374Q260
373 291 358T344 318T368 262Q368 258 364 255T358 258Q351 273 342 285T322 304Q312 310 301 310Q289 310 279 302Q259 287 232 258T177 194T128 128T98 75Q104 82 119 95T151 121T180 144Q184 147 197 156T224 175T248 190Q248 188 237 179T209 159T180 139T163
127Q152 117 138 104T111 80T95 64Q93 60 94 59T98 62Q107 75 125 90T164 120T203 149Q223 164 239 175T269 197Q270 218 284 226T307 231Q313 229 325 224T348 211T354 194Q347 178 344 145T340 83Q340 43 365 43Q378 43 400 57Q408 62 412 62Q415 62 415 59Q415
55 410 48T403 38Q391 25 375 15T341 4Q334 4 327 6T313 13Q288 30 278 65T267 125Q267 131 267 136T269 145Q258 136 233 115T176 67T117 17T74 -17ZM185 433Q177 433 173 434Q189 446 215 469T268 513Q270 515 263 509T247 495T229 480Q249 492 276 514T322 552L335
562Q340 565 344 565Q349 565 352 562V561Q354 560 356 558T359 553Q370 537 386 515T415 480Q409 489 400 502T393 513Q409 492 423 470T447 436Q443 435 440 435T433 434Q417 434 400 445T364 469Q370 466 377 463T391 457L367 470Q366 471 365 471L362 473Q356
475 352 479Q353 480 353 480T349 484Q344 488 339 491T328 498Q327 498 327 498T326 497Q332 493 338 489T352 479Q352 478 354 476L362 470Q356 472 349 477T330 490Q329 490 328 492T324 495Q322 494 320 493T316 490Q306 485 296 478T276 467Q249 450 226 442T185
433ZM287 478L322 496Q313 495 308 491T294 483Q289 481 289 481T287 478ZM365 471L367 470Q370 468 366 470T365 471Z" />
<glyph unicode="&#xe3;" glyph-name="atilde" horiz-adv-x="407" d="M74 -17Q68 -17 56 -4T31 26T12 51Q21 90 43 132T96 216T156 292T210 351Q193 338 174 318T148 290Q136 278 124 267T102 244Q132 281 161 312T204 353Q207 356 212 360T225 365L233 374Q260
373 291 358T344 318T368 262Q368 258 364 255T358 258Q351 273 342 285T322 304Q312 310 301 310Q289 310 279 302Q259 287 232 258T177 194T128 128T98 75Q104 82 119 95T151 121T180 144Q184 147 197 156T224 175T248 190Q248 188 237 179T209 159T180 139T163
127Q152 117 138 104T111 80T95 64Q93 60 94 59T98 62Q107 75 125 90T164 120T203 149Q223 164 239 175T269 197Q270 218 284 226T307 231Q313 229 325 224T348 211T354 194Q347 178 344 145T340 83Q340 43 365 43Q378 43 400 57Q408 62 412 62Q415 62 415 59Q415
55 410 48T403 38Q391 25 375 15T341 4Q334 4 327 6T313 13Q288 30 278 65T267 125Q267 131 267 136T269 145Q258 136 233 115T176 67T117 17T74 -17ZM398 453Q389 453 374 456Q373 456 360 460T331 469T310 477Q315 473 333 467T367 456Q376 454 378 454T371 454Q361
455 340 463T298 478T269 486Q256 486 250 482T231 466Q233 468 235 472T244 480Q237 476 226 465T210 454Q201 454 201 465Q201 473 205 483Q219 512 240 524T286 536Q306 536 327 530T368 515Q346 522 336 524T310 530Q335 523 366 514T416 505Q427 505 438 512T454
530Q458 538 463 538Q467 538 470 533T471 520Q469 508 462 492T439 465T398 453Z" />
<glyph unicode="&#xe4;" glyph-name="adieresis" horiz-adv-x="407" d="M74 -17Q68 -17 56 -4T31 26T12 51Q21 90 43 132T96 216T156 292T210 351Q193 338 174 318T148 290Q136 278 124 267T102 244Q132 281 161 312T204 353Q207 356 212 360T225 365L233 374Q260
373 291 358T344 318T368 262Q368 258 364 255T358 258Q351 273 342 285T322 304Q312 310 301 310Q289 310 279 302Q259 287 232 258T177 194T128 128T98 75Q104 82 119 95T151 121T180 144Q184 147 197 156T224 175T248 190Q248 188 237 179T209 159T180 139T163
127Q152 117 138 104T111 80T95 64Q93 60 94 59T98 62Q107 75 125 90T164 120T203 149Q223 164 239 175T269 197Q270 218 284 226T307 231Q313 229 325 224T348 211T354 194Q347 178 344 145T340 83Q340 43 365 43Q378 43 400 57Q408 62 412 62Q415 62 415 59Q415
55 410 48T403 38Q391 25 375 15T341 4Q334 4 327 6T313 13Q288 30 278 65T267 125Q267 131 267 136T269 145Q258 136 233 115T176 67T117 17T74 -17ZM394 439Q379 445 363 464T347 497Q347 508 358 508Q363 508 371 507T387 505Q397 505 409 512T434 520Q449 520
459 498Q462 492 453 482T433 463T413 449Q418 450 429 457T449 473Q434 455 417 446T394 439ZM238 439Q223 445 208 464T192 497Q192 508 203 508Q208 508 215 507T231 505Q241 505 253 512T278 520Q293 520 303 498Q306 492 298 482T277 463T257 449Q263 450
275 458T296 475Q280 456 262 447T238 439Z" />
<glyph unicode="&#xe5;" glyph-name="aring" horiz-adv-x="407" d="M74 -17Q68 -17 56 -4T31 26T12 51Q21 90 43 132T96 216T156 292T210 351Q193 338 174 318T148 290Q136 278 124 267T102 244Q132 281 161 312T204 353Q207 356 212 360T225 365L233 374Q260
373 291 358T344 318T368 262Q368 258 364 255T358 258Q351 273 342 285T322 304Q312 310 301 310Q289 310 279 302Q259 287 232 258T177 194T128 128T98 75Q104 82 119 95T151 121T180 144Q184 147 197 156T224 175T248 190Q248 188 237 179T209 159T180 139T163
127Q152 117 138 104T111 80T95 64Q93 60 94 59T98 62Q107 75 125 90T164 120T203 149Q223 164 239 175T269 197Q270 218 284 226T307 231Q313 229 325 224T348 211T354 194Q347 178 344 145T340 83Q340 43 365 43Q378 43 400 57Q408 62 412 62Q415 62 415 59Q415
55 410 48T403 38Q391 25 375 15T341 4Q334 4 327 6T313 13Q288 30 278 65T267 125Q267 131 267 136T269 145Q258 136 233 115T176 67T117 17T74 -17ZM335 431Q328 431 318 433T296 442Q283 448 265 462T245 487Q244 493 244 498T243 510Q243 573 321 613Q332 619
347 619Q361 619 379 616Q401 614 413 598T426 561Q426 557 426 554T424 546Q422 537 415 519T404 491Q406 494 412 504T421 522Q422 527 424 538T428 552Q429 535 422 520T408 494T401 482Q390 460 372 446T335 431ZM304 460Q304 458 314 460Q329 468 344 483T370
517Q375 527 382 544T390 572L386 561Q388 566 388 570T388 578Q388 593 367 593Q357 593 343 587T317 569Q301 552 293 529T284 488Q284 475 289 467T305 462Q304 461 304 460ZM312 463Q320 468 335 481T358 506Q366 518 373 535T385 559Q380 546 376 534T365
511Q355 495 341 482T312 463Z" />
<glyph unicode="&#xe6;" glyph-name="ae" horiz-adv-x="596" d="M74 -17Q70 -17 60 -8T37 15T15 42T0 61Q9 99 32 139T86 218T148 290T205 347Q189 333 172 315T148 290Q136 278 124 267T102 244Q132 281 161 312T204 353Q207 356 212 360T224 365L233 374Q260
373 284 361T324 331T341 292Q341 289 338 287T333 289Q331 293 331 294T330 297V298Q330 298 322 304Q312 310 301 310Q289 310 279 302Q259 287 232 258T177 194T128 128T98 75Q104 82 119 95T151 121T180 144Q185 148 205 162T241 186Q248 194 256 202T276 221Q287
236 298 242T319 248Q329 248 337 244Q371 285 412 318T491 367Q501 371 509 372T521 373Q533 373 549 357T578 321T593 292Q593 276 575 254T526 208T462 164T395 133T340 122Q324 93 324 74Q324 64 329 57T349 50Q373 58 409 79T486 126T568 178T641 221Q658
230 666 230Q673 230 673 225Q673 221 665 212T639 194Q614 180 577 152T501 90T428 31T372 -7Q351 -7 327 9T285 47Q288 39 293 32T303 20Q280 40 271 59T261 95Q261 102 262 108T266 121Q267 119 267 116T267 111Q269 117 270 124T273 139Q270 127 266 121Q266
128 266 134T268 144Q257 135 231 113T175 65T117 17T74 -17ZM362 155Q392 166 425 186T489 228T537 269Q540 271 541 272T542 274Q542 276 530 267Q513 254 487 235T446 205Q445 204 443 204Q442 204 444 206T451 212Q471 226 492 243T532 277Q556 296 556 300Q534
300 498 278T426 223T362 155ZM98 62Q107 75 125 90T164 120T203 149Q211 155 218 162T232 176Q221 168 206 158T178 139T163 127Q152 117 138 104T111 80T95 64Q93 60 94 59T98 62ZM285 47Q278 62 274 79T267 111Q266 107 266 102T265 92Q265 82 271 71T285 47Z"
/>
<glyph unicode="&#xe7;" glyph-name="ccedilla" horiz-adv-x="344" d="M118 -7Q96 -7 71 10T29 50T11 92Q11 122 27 156T69 226T127 291T191 343Q193 354 208 365T244 377Q256 377 267 373Q279 373 295 357T324 321T339 292Q339 277 323 261T289 232T262 220Q258
220 258 223Q258 229 271 245Q276 250 283 261T296 283T302 300Q283 299 254 283T193 241T133 185T88 126T70 74Q70 64 75 57T95 50Q110 55 130 66T174 91L154 73Q151 70 143 61T139 53Q159 70 184 89T238 130Q222 120 206 110T174 91L229 132Q269 162 304 184T371
220Q343 203 311 181T245 135Q283 159 320 182T387 221Q404 230 412 230Q419 230 419 225Q419 221 411 212T385 194Q364 183 336 162T276 114T214 63T158 19Q146 10 136 4T118 -7ZM237 -183Q221 -183 205 -179T177 -167Q168 -162 161 -156T152 -145V-142Q152 -133
161 -133Q169 -133 181 -139T208 -145Q201 -144 191 -141T175 -135T172 -133Q183 -136 198 -140T226 -146Q261 -148 273 -138T285 -110Q285 -86 281 -72T276 -44Q276 -25 291 -7T349 15Q353 15 357 16T361 12Q338 4 329 -8T319 -34Q319 -50 331 -73T344 -124Q340
-110 338 -102T332 -87Q329 -80 326 -75T320 -66Q328 -85 333 -101T338 -129Q338 -156 321 -167T281 -180T237 -183Z" />
</font>
</defs>
</svg>
