<?xml version="1.0" standalone="no"?>
<!DOCTYPE svg PUBLIC "-//W3C//DTD SVG 1.1//EN" "http://www.w3.org/Graphics/SVG/1.1/DTD/svg11.dtd">
<svg xmlns="http://www.w3.org/2000/svg">
<defs >
<font id="Lumanosimo" horiz-adv-x="1308" ><font-face
    font-family="Lumanosimo"
    units-per-em="2048"
    panose-1="3 1 1 1 1 1 1 1 1 1"
    ascent="2098"
    descent="-727"
    alphabetic="0" />
<glyph unicode=" " glyph-name="space" horiz-adv-x="691" />
<glyph unicode="!" glyph-name="exclam" horiz-adv-x="786" d="M452 399Q420 399 411 424T401 475Q401 542 417 606T446 735Q465 827 477 921T489 1109Q489 1200 471 1295T390 1461Q429 1478 477 1494T568 1510Q652 1510 687 1464T723 1338Q723 1270 706 1188T664
1025T619 877Q607 836 586 767T547 629T529 522Q529 498 536 475T553 429Q531 419 504 409T452 399ZM385 -25Q332 -25 294 -8T256 73Q256 114 265 153T285 230Q325 244 366 253T449 263Q501 263 540 242T580 161Q580 122 566 82T537 7Q500 -6 462 -15T385 -25Z"
/>
<glyph unicode="&quot;" glyph-name="quotedbl" horiz-adv-x="831" d="M376 1045Q331 1045 316 1076T300 1146Q300 1187 307 1226T326 1304Q332 1324 338 1344T345 1387Q345 1417 333 1445T304 1498Q343 1520 386 1534T474 1548Q501 1548 508 1524T516 1479Q516
1428 497 1381T459 1290T440 1202Q440 1168 459 1136T496 1078Q468 1066 438 1056T376 1045ZM789 1045Q744 1045 729 1077T713 1147Q713 1187 721 1226T740 1303Q746 1323 753 1343T760 1385Q760 1416 747 1444T717 1498Q756 1520 799 1534T887 1548Q914 1548 921
1524T929 1479Q929 1428 910 1381T872 1291T853 1203Q853 1171 871 1137T906 1076Q878 1065 849 1055T789 1045Z" />
<glyph unicode="#" glyph-name="numbersign" horiz-adv-x="1382" d="M326 179Q326 232 333 284T352 387L358 412H357Q323 412 277 409T199 391Q170 432 170 488Q170 536 194 575T272 615Q304 615 336 613T401 610H402L458 865H447Q410 865 360 862T276 844Q247
888 247 942Q247 990 271 1029T350 1068Q387 1068 424 1068T499 1066Q507 1115 511 1164T516 1263Q516 1313 507 1362T471 1454Q496 1471 534 1489T603 1508Q674 1508 697 1470T721 1367Q721 1288 705 1212T669 1060Q761 1056 852 1053T1036 1050Q1046 1050 1056
1050Q1065 1102 1070 1155T1076 1261Q1076 1311 1066 1361T1030 1454Q1061 1475 1099 1491T1175 1508Q1239 1508 1260 1464T1281 1366Q1281 1287 1264 1211T1228 1058L1227 1055Q1286 1058 1341 1064T1431 1082Q1456 1047 1456 1001Q1456 920 1400 889T1273 858Q1228
858 1179 858Q1163 794 1148 730T1119 600Q1186 603 1250 609T1353 629Q1378 594 1378 548Q1378 490 1350 459T1276 416T1182 404Q1136 404 1085 404Q1082 375 1080 346T1078 288Q1078 230 1095 177T1158 84Q1139 50 1105 19T1028 -12Q971 -12 940 16T898 88T886
180Q886 227 892 273T908 365L917 406Q820 407 723 408T527 411Q523 381 521 351T518 290Q518 232 535 178T598 84Q579 50 545 19T468 -12Q383 -12 355 47T326 179ZM563 607V605Q661 602 760 600T957 597H959L1017 860Q918 862 819 863T621 865Q605 801 590 737T563
607Z" />
<glyph unicode="$" glyph-name="dollar" horiz-adv-x="1382" d="M1312 1322Q1312 1285 1286 1232T1195 1161Q1177 1223 1124 1262T1000 1323T862 1352Q843 1232 831 1114T811 878Q872 848 931 817T1045 750Q1113 707 1178 658T1285 545T1327 392Q1327 278 1270
200T1122 73T925 1T723 -27Q700 -83 657 -129T550 -175Q535 -175 525 -155T511 -110T504 -74Q557 -44 582 -24Q517 -19 442 -5T299 37T188 107T145 214Q145 249 159 294T208 356Q238 285 311 238T476 165T652 129Q654 138 656 152Q670 234 679 316T694 481Q698
530 700 579T705 679Q661 701 618 723T530 768Q433 819 358 897T283 1093Q283 1193 324 1263T435 1379T589 1450T761 1486Q770 1519 783 1550T814 1611Q828 1634 848 1654T898 1674Q917 1674 942 1653T980 1619Q950 1611 923 1567T889 1494V1494Q894 1494 900 1494Q945
1494 1013 1488T1150 1465T1265 1413T1312 1322ZM608 979Q634 965 660 952T714 925Q716 1001 719 1077T727 1229Q729 1260 731 1291T737 1354Q674 1351 605 1334T488 1276T439 1166Q439 1109 491 1062T608 979ZM779 360Q775 308 771 246T758 123Q800 124 865 132T997
161T1109 217T1155 305Q1155 373 1094 433T958 540Q918 565 878 587T796 632Q792 565 788 497T779 360Z" />
<glyph unicode="%" glyph-name="percent" horiz-adv-x="1703" d="M620 -45Q541 -45 541 40Q541 109 585 207T702 421T859 664T1023 917T1165 1162T1251 1381Q1254 1396 1254 1411Q1254 1425 1254 1440T1252 1469Q1275 1483 1306 1496T1365 1510Q1435 1510 1435
1436Q1435 1375 1391 1283T1274 1077T1119 842T955 595T814 357T729 148Q727 138 727 132Q727 105 737 80T761 32Q746 21 720 3T666 -30T620 -45ZM424 628Q324 628 265 677T179 806T152 972Q152 1061 178 1154T256 1328T385 1458T564 1508Q664 1508 723 1458T809
1328T836 1161Q836 1073 810 980T731 806T602 677T424 628ZM482 774Q545 774 589 806T659 890T698 1000T711 1111Q711 1178 691 1236T627 1329T506 1365Q422 1365 372 1310T299 1176T277 1028Q277 961 296 903T361 810T482 774ZM1357 -53Q1257 -53 1198 -3T1112
126T1085 292Q1085 380 1111 473T1190 647T1319 777T1497 827Q1597 827 1656 777T1742 647T1768 481Q1768 393 1742 299T1664 126T1535 -3T1357 -53ZM1415 92Q1478 92 1522 124T1593 209T1632 319T1644 430Q1644 497 1624 554T1560 647T1439 683Q1355 683 1305
628T1232 494T1209 346Q1209 279 1229 221T1294 128T1415 92Z" />
<glyph unicode="&amp;" glyph-name="ampersand" horiz-adv-x="1769" d="M822 -33Q731 -33 623 -13T418 55T258 179T196 368Q196 461 238 535T349 664T499 758T660 818Q580 838 498 878T361 984T306 1145Q306 1234 348 1297T460 1401T613 1467T779 1500T931 1510Q969
1510 1032 1505T1167 1487T1301 1450T1405 1389T1445 1298Q1445 1251 1417 1209T1338 1160Q1306 1245 1235 1289T1077 1350T910 1366Q863 1366 793 1358T654 1327T539 1265T492 1160Q492 1098 536 1054T646 981T780 937T896 916Q927 913 958 912T1019 905Q1042
901 1053 893T1064 857Q1064 829 1055 802T1031 752Q976 746 896 731T730 690T568 625T446 530T399 402Q399 326 448 275T571 192T725 148T866 134Q947 134 1039 146T1217 187T1367 271Q1399 298 1413 322T1428 389Q1428 423 1421 456T1400 523Q1253 495 1104 473T811
416Q813 429 815 442T822 469Q841 532 900 571T1036 634T1191 671T1323 695Q1411 711 1499 728T1675 762Q1726 772 1775 782T1875 806L1877 803Q1875 720 1831 672T1710 598Q1673 586 1635 576T1557 555Q1565 528 1570 501T1575 445Q1575 431 1574 417T1570 389Q1545
272 1465 191T1275 61T1045 -10T822 -33Z" />
<glyph unicode="&apos;" glyph-name="quotesingle" horiz-adv-x="532" d="M423 1045Q377 1045 361 1076T344 1148Q344 1188 352 1227T372 1303Q378 1321 385 1341T392 1381Q392 1411 373 1443T336 1499Q379 1520 425 1534T521 1548Q547 1548 553 1525T560 1481Q560
1429 540 1382T500 1292T480 1206Q480 1175 505 1137T549 1075Q519 1064 488 1055T423 1045Z" />
<glyph unicode="(" glyph-name="parenleft" horiz-adv-x="1329" d="M995 -212Q847 -212 731 -143T535 39T413 289T371 558Q371 686 408 807T510 1038Q563 1129 644 1223T827 1398T1039 1528T1261 1578Q1281 1578 1298 1551T1328 1490T1345 1442Q1197 1410 1053
1344T791 1178T603 943T533 641Q533 431 625 282T878 51T1238 -42Q1204 -115 1141 -163T995 -212Z" />
<glyph unicode=")" glyph-name="parenright" horiz-adv-x="1095" d="M102 -213Q83 -213 65 -186T35 -125T18 -77Q166 -44 308 23T564 190T747 425T815 726Q815 929 728 1077T485 1311T128 1406Q163 1479 224 1527T369 1576Q516 1576 629 1507T820 1324T938 1076T978
811Q978 682 942 560T840 326Q788 236 708 142T529 -33T321 -163T102 -213Z" />
<glyph unicode="*" glyph-name="asterisk" horiz-adv-x="993" d="M567 738Q545 738 535 753T524 788Q524 821 537 870T567 969T592 1054Q566 1038 535 1029T475 1011Q417 994 359 974T250 915Q213 923 186 954T159 1023Q159 1064 195 1090T283 1134T385 1160T466
1174Q408 1197 348 1214T224 1239V1245Q224 1258 228 1289T240 1355T260 1415T290 1440Q332 1440 375 1414T461 1352T546 1286T631 1248Q634 1264 635 1280T636 1312Q636 1361 625 1408T597 1502Q633 1524 673 1537T756 1550Q791 1550 795 1517T800 1459Q800 1402
790 1370T763 1310T728 1232Q752 1248 785 1258T846 1276Q906 1293 966 1314T1075 1374Q1112 1367 1138 1335T1165 1264Q1165 1224 1128 1197T1037 1152T932 1126T850 1112Q910 1088 973 1072T1100 1048V1042Q1100 1029 1096 998T1084 931T1064 872T1034 847Q991
847 948 874T863 937T777 1002T691 1038Q683 1009 683 971Q683 925 695 877T733 790Q696 768 654 753T567 738Z" />
<glyph unicode="+" glyph-name="plus" horiz-adv-x="1382" d="M819 349Q758 349 740 396T721 493Q721 536 728 577T742 660Q722 661 702 661T661 662Q617 662 569 658T479 633Q451 679 451 726Q451 775 482 797T559 820Q613 820 667 816T775 810Q783 856 792 901T802
993Q802 1017 799 1042T785 1089Q827 1120 880 1120Q928 1120 943 1086T959 1011Q959 958 947 907T924 803Q962 803 1014 805T1118 815T1202 839Q1224 810 1224 770Q1224 713 1182 689T1083 660T985 655Q963 655 941 656T896 657Q890 626 886 594T881 530Q881 495
890 462T922 400Q903 379 876 364T819 349Z" />
<glyph unicode="," glyph-name="comma" horiz-adv-x="714" d="M84 -108Q117 -103 164 -100T258 -85T336 -49T368 25Q368 57 339 86T273 140T211 176Q247 193 295 213T393 248T482 263Q538 263 560 228T583 143Q583 62 542 -6T433 -123T288 -200T136 -228Q103 -228
93 -207T83 -157Q83 -145 84 -133T84 -108Z" />
<glyph unicode="-" glyph-name="hyphen" horiz-adv-x="985" d="M151 575Q113 613 113 666Q113 722 148 750T237 779Q344 779 451 769T666 759Q689 759 712 759T758 758Q786 758 813 759T868 765Q878 760 879 750T881 730Q881 654 839 617T734 569T611 558Q515
558 420 571T229 584Q210 584 190 583T151 575Z" />
<glyph unicode="." glyph-name="period" horiz-adv-x="673" d="M318 -25Q266 -25 231 -6T195 73Q195 114 204 153T225 230Q265 244 306 253T389 263Q441 263 481 243T521 162Q521 122 506 83T474 7Q437 -6 398 -15T318 -25Z" />
<glyph unicode="/" glyph-name="slash" horiz-adv-x="934" d="M142 -213Q105 -213 61 -194T-15 -155Q62 -99 128 -36T243 111Q350 293 412 499T525 909Q541 972 566 1061T627 1246T713 1423T828 1557T976 1609Q1022 1609 1046 1567T1076 1486Q961 1449 896 1390T777
1224Q680 1032 619 824T505 409Q475 292 439 178T340 -41Q320 -74 291 -114T224 -183T142 -213Z" />
<glyph unicode="0" glyph-name="zero" horiz-adv-x="1382" d="M662 -28Q471 -28 346 54T159 279T97 601Q97 775 153 937T314 1229T569 1434T904 1510Q1096 1510 1220 1425T1406 1196T1467 873Q1467 699 1411 538T1249 249T995 47T662 -28ZM769 144Q903 144 999
203T1158 361T1249 577T1279 811Q1279 968 1227 1086T1067 1271T794 1338Q661 1338 565 1278T407 1120T315 905T285 673Q285 517 337 398T497 211T769 144Z" />
<glyph unicode="1" glyph-name="one" horiz-adv-x="1382" d="M946 -13Q844 -13 807 52T770 206Q770 307 792 406T837 603Q869 749 896 898T924 1198Q924 1230 922 1259T913 1319Q866 1280 807 1231T683 1135T550 1058T418 1027Q377 1027 338 1054T264 1118T206
1185Q318 1203 407 1231T579 1301T758 1403Q809 1435 873 1472T999 1510Q1083 1510 1116 1460T1149 1333Q1149 1294 1144 1257T1131 1181Q1100 1028 1062 877T995 571Q986 524 979 477T972 381Q972 286 1007 208T1124 76Q1105 61 1072 40T1005 3T946 -13Z" />
<glyph unicode="2" glyph-name="two" horiz-adv-x="1382" d="M75 61Q146 118 271 215T535 429Q640 517 740 611T922 797T1051 972T1099 1123Q1099 1190 1059 1234T958 1303T831 1339T713 1350Q637 1350 552 1328T404 1254T332 1110Q285 1115 256 1140T227 1215Q227
1306 281 1364T419 1453T592 1497T750 1510Q831 1510 928 1497T1113 1449T1258 1349T1315 1177Q1315 1086 1271 993T1152 809T988 631T803 468T625 328Q580 294 537 258T460 181Q480 185 500 188T537 195Q653 215 769 225T1004 235Q1081 235 1146 225T1250 172T1290
34Q1290 24 1290 15T1289 -5Q1141 28 987 29T681 31Q635 31 573 31T448 27Q407 25 360 23T273 8T208 -34Q164 -32 130 -4T75 61Z" />
<glyph unicode="3" glyph-name="three" horiz-adv-x="1382" d="M520 -28Q438 -28 346 -6T183 69T89 214Q97 257 119 295T190 338Q216 256 282 213T430 155T587 139Q654 139 739 155T904 206T1036 300T1088 444Q1088 516 1043 564T930 641T789 685T662 706Q656
707 651 707T642 707Q633 705 625 703Q587 694 548 685T468 675Q449 675 431 678Q429 694 427 712T425 748Q425 780 434 808T470 854Q517 866 589 874T741 897T892 937T1007 1010T1052 1131Q1052 1192 1015 1234T922 1301T804 1338T694 1350Q575 1350 475 1314T320
1160Q278 1165 253 1190T228 1258Q228 1321 265 1365T361 1438T489 1482T623 1504T734 1510Q817 1510 909 1496T1083 1444T1214 1341T1265 1169Q1265 1088 1223 1022T1111 905T960 815Q1044 800 1123 764T1253 663T1304 501Q1304 388 1253 301T1116 152T927 50T717
-9T520 -28Z" />
<glyph unicode="4" glyph-name="four" horiz-adv-x="1382" d="M961 157Q961 198 966 238T979 317Q913 319 848 320T716 321Q685 321 627 320T497 317T357 312T234 302T157 287L78 258Q40 263 12 290T-38 346Q67 423 186 527T415 754T608 1008T721 1268Q726 1293
726 1313Q726 1348 714 1379T683 1439Q721 1460 776 1485T876 1510Q925 1510 942 1479T959 1405Q959 1306 916 1201T801 991T643 787T469 600T307 443Q413 459 512 471T721 486T966 479Q980 478 993 477T1018 475Q1027 507 1034 539T1041 604Q1041 644 1027 681T973
750Q1011 765 1053 777T1137 790Q1255 790 1255 669Q1255 631 1248 579T1230 477Q1239 478 1249 480Q1314 489 1348 450T1382 346Q1382 318 1377 283Q1376 283 1375 283T1371 282Q1284 295 1192 304Q1188 284 1186 264T1183 225Q1183 175 1208 133T1303 64Q1268
43 1213 16T1117 -12Q1034 -12 998 33T961 157Z" />
<glyph unicode="5" glyph-name="five" horiz-adv-x="1382" d="M540 -28Q492 -28 422 -14T282 28T166 102T119 208Q119 256 147 294T222 343Q246 260 308 216T449 156T604 139Q673 139 757 155T919 208T1046 304T1096 451Q1096 531 1046 582T919 661T762 699T621
710Q548 710 475 704T329 683Q312 679 294 676T258 671Q255 715 266 758T288 844Q308 930 323 1018T339 1196Q339 1265 325 1334T270 1462Q302 1480 342 1496T420 1513Q459 1513 484 1493T523 1443Q583 1457 676 1457T877 1453T1093 1456T1289 1491Q1308 1387 1271
1335T1161 1265T1002 1247Q888 1247 772 1257T547 1306Q545 1182 512 1057T451 825Q528 851 637 857T864 846T1082 786T1247 673T1311 500Q1311 385 1261 298T1128 149T944 48T737 -9T540 -28Z" />
<glyph unicode="6" glyph-name="six" horiz-adv-x="1382" d="M657 -28Q476 -28 356 50T175 264T115 570Q115 753 182 921T370 1223T652 1433T1003 1510Q1037 1510 1084 1505T1177 1486T1253 1443T1284 1368Q1284 1337 1274 1303T1234 1252Q1089 1326 923 1326Q773
1326 658 1269T463 1113T342 886T301 619Q301 489 341 381T470 209T702 144Q795 144 888 176T1045 276T1108 451Q1108 550 1055 609T919 695T752 721Q685 721 606 708T465 668Q461 683 461 700Q461 735 476 771T511 835Q662 878 826 878Q913 878 1001 857T1163
791T1281 673T1326 500Q1326 371 1266 273T1106 107T889 6T657 -28Z" />
<glyph unicode="7" glyph-name="seven" horiz-adv-x="1382" d="M549 -28Q498 -28 480 6T462 83Q462 206 507 341T625 609T782 861T943 1072Q1056 1206 1179 1322Q958 1266 786 1257T472 1247Q423 1247 371 1251T273 1272T199 1326T171 1427Q171 1454 176 1486Q319
1467 464 1458T754 1448Q898 1448 1042 1456T1329 1480L1342 1462Q1373 1487 1404 1510Q1441 1506 1472 1477T1524 1418Q1328 1290 1166 1111T887 729Q845 655 804 570T734 395T706 219Q706 174 716 130T747 44Q708 22 651 -3T549 -28Z" />
<glyph unicode="8" glyph-name="eight" horiz-adv-x="1382" d="M651 -28Q570 -28 473 -12T289 43T145 150T89 321Q89 440 154 528T319 673Q359 696 402 713T489 746Q386 807 308 893T230 1100Q230 1220 292 1299T452 1425T660 1490T866 1510Q938 1510 1020 1496T1177
1447T1298 1353T1345 1203Q1345 1104 1295 1025T1166 890T1001 802Q976 811 962 834T945 882Q1017 945 1072 1029T1159 1204Q1143 1249 1101 1276T1004 1317T895 1336T801 1341Q757 1341 694 1333T569 1303T466 1243T425 1145Q425 1090 474 1039T594 942T736 863T850
809Q916 778 994 740T1142 652T1257 535T1302 382Q1302 287 1260 217T1146 100T989 25T815 -15T651 -28ZM271 347Q271 287 314 247T421 183T552 150T663 140Q708 140 781 148T928 177T1052 237T1102 339Q1102 384 1055 429T940 515T807 587T707 635Q685 645 662
656T615 679Q562 649 503 613T390 535T304 446T271 347Z" />
<glyph unicode="9" glyph-name="nine" horiz-adv-x="1382" d="M808 1510Q989 1510 1109 1432T1290 1218T1350 912Q1350 729 1283 561T1095 259T813 49T462 -28Q428 -28 381 -23T288 -4T212 39T181 114Q181 145 191 179T231 230Q376 156 542 156Q692 156 807 213T1002
369T1123 596T1164 863Q1164 993 1124 1101T995 1273T763 1338Q670 1338 577 1306T420 1206T357 1031Q357 932 410 873T546 787T713 761Q780 761 859 774T1000 814Q1004 799 1004 782Q1004 747 989 711T954 647Q803 604 639 604Q552 604 464 625T302 691T184 809T139
982Q139 1111 199 1209T359 1375T576 1476T808 1510Z" />
<glyph unicode=":" glyph-name="colon" horiz-adv-x="673" d="M384 829Q332 829 297 848T261 927Q261 967 270 1006T291 1084Q331 1098 372 1107T455 1116Q507 1116 547 1095T587 1014Q587 974 572 935T539 860Q502 848 463 839T384 829ZM352 -25Q300 -25 265
-6T229 73Q229 114 238 153T259 230Q299 244 340 253T423 263Q475 263 515 242T555 161Q555 121 540 82T507 7Q470 -6 431 -15T352 -25Z" />
<glyph unicode=";" glyph-name="semicolon" horiz-adv-x="714" d="M409 829Q357 829 322 848T286 927Q286 967 295 1006T316 1084Q356 1098 397 1107T480 1116Q532 1116 572 1096T612 1015Q612 975 597 936T565 860Q528 848 489 839T409 829ZM124 -228Q83 -228
68 -195T71 -106Q103 -103 150 -97T246 -78T326 -38T358 34Q358 66 332 99T268 154T200 176Q236 193 284 213T382 248T471 263Q527 263 550 228T573 142Q573 61 531 -6T422 -124T277 -201T124 -228Z" />
<glyph unicode="&lt;" glyph-name="less" horiz-adv-x="1382" d="M1178 346Q1154 346 1088 369T929 430T729 511T515 595T314 663T153 699Q152 764 191 810T294 888T430 940T568 974T678 996Q721 1005 795 1021T951 1056T1103 1097T1204 1137Q1233 1130 1248 1106T1264
1052Q1264 1000 1236 969T1163 921T1071 896T982 880Q862 858 741 835T502 780Q631 738 758 683T1014 583T1283 530Q1280 502 1270 458T1239 380T1178 346Z" />
<glyph unicode="=" glyph-name="equal" horiz-adv-x="1382" d="M185 919Q185 975 216 1008T304 1042Q468 1042 632 1034T961 1025Q1056 1025 1151 1027T1341 1040Q1348 1024 1353 1007T1358 973Q1358 929 1329 903T1255 862T1166 843T1088 838Q914 838 740 841T391
845Q348 845 304 843T217 832Q203 851 194 873T185 919ZM204 522Q204 574 237 606T322 638Q498 638 673 630T1024 622Q1108 622 1192 624T1360 636Q1376 602 1376 569Q1376 526 1348 499T1277 458T1190 439T1114 434Q938 434 762 437T410 441Q366 441 322 439T234
428Q221 449 213 473T204 522Z" />
<glyph unicode="&gt;" glyph-name="greater" horiz-adv-x="1382" d="M398 346Q362 346 339 380T304 457T288 529Q357 534 445 554T625 605T802 669T950 734Q972 745 993 757T1037 778Q996 783 957 794T878 814Q793 834 706 850T533 882Q503 887 461 895T379 918T311
958T283 1025Q283 1055 295 1084T324 1138Q365 1116 432 1096T577 1058T727 1026T848 1000Q895 990 963 976T1106 941T1245 887T1353 809T1398 701Q1291 689 1179 654T956 573T747 485Q728 477 677 455T565 408T457 364T398 346Z" />
<glyph unicode="?" glyph-name="question" horiz-adv-x="1135" d="M594 390Q566 407 542 427T507 464Q550 500 615 559T752 691T885 841T987 989T1027 1118Q1027 1185 987 1229T886 1300T759 1338T642 1350Q581 1350 519 1342T404 1311T319 1241T287 1118Q287
1111 287 1104T288 1089Q232 1100 195 1137T157 1235Q157 1318 211 1372T348 1456T515 1498T664 1510Q727 1510 804 1501T959 1471T1102 1412T1206 1316T1246 1176Q1246 1092 1201 1003T1082 826T921 656T748 507T594 390ZM535 -25Q483 -25 448 -6T413 74Q413 113
422 151T441 227Q479 241 520 252T602 263Q654 263 692 242T731 162Q731 123 718 85T689 11Q652 -3 614 -14T535 -25Z" />
<glyph unicode="@" glyph-name="at" horiz-adv-x="1906" d="M933 -169Q566 -169 366 6T166 560Q166 774 248 959T474 1283T807 1501T1206 1579Q1424 1579 1597 1510T1871 1292T1972 908Q1972 800 1941 680T1847 453T1690 280T1468 213Q1361 213 1303 255T1224
370T1202 539Q1202 561 1203 584T1205 629Q1177 576 1139 513T1056 392T960 297T855 260Q770 260 725 309T662 431T644 572Q644 665 673 770T760 969T902 1120T1094 1179Q1152 1179 1201 1153T1291 1089Q1298 1130 1301 1167Q1339 1163 1376 1149T1446 1118Q1399
990 1379 842T1359 557Q1359 512 1369 469T1407 398T1491 370Q1581 370 1640 417T1733 537T1782 693T1796 848Q1796 1058 1717 1184T1493 1366T1152 1422Q967 1422 818 1355T563 1169T399 895T342 565Q342 268 499 128T946 -12Q1094 -12 1238 25T1514 130Q1536
110 1549 82T1563 23Q1563 -25 1510 -58T1376 -113T1205 -147T1042 -164T933 -169ZM821 635Q821 604 827 562T853 488T916 456Q958 456 1001 493T1084 585T1152 695T1196 784Q1215 829 1232 877T1265 974Q1228 1001 1182 1014T1088 1027Q1015 1027 964 989T881
891T836 763T821 635Z" />
<glyph unicode="A" glyph-name="A" horiz-adv-x="1560" d="M243 179Q243 149 257 122T291 74Q258 46 207 18T106 -11Q26 -11 26 75Q26 141 60 218T146 373T252 521T346 643Q399 713 452 783T555 924Q598 984 654 1063T752 1227T795 1387Q795 1409 790 1430T777
1471Q807 1485 846 1498T918 1511Q1010 1511 1062 1478T1160 1366Q1201 1297 1222 1208T1254 1027T1277 856Q1290 766 1308 664T1356 464T1431 287Q1470 220 1536 172T1670 88Q1647 56 1608 23T1526 -11Q1415 -11 1354 37T1242 178Q1209 237 1187 297T1151 420Q1043
412 934 410T717 408Q622 408 528 410T340 420Q298 349 271 287T243 179ZM774 539Q862 539 950 538T1128 535Q1109 651 1097 768T1059 1001T976 1226Q957 1262 930 1300Q874 1179 799 1070T649 854Q613 803 549 719T420 542Q507 540 595 540T774 539Z" />
<glyph unicode="B" glyph-name="B" horiz-adv-x="1544" d="M716 -20Q673 -20 612 -18T488 -5T372 28T292 91Q271 123 264 155T256 225Q256 347 281 467T340 707T398 947T424 1190Q424 1264 408 1336T356 1474Q487 1489 619 1499T883 1510Q940 1510 1021 1503T1190
1476T1352 1422T1475 1333T1523 1201Q1523 1130 1489 1071T1401 965T1286 883T1169 826Q1235 818 1308 800T1445 746T1549 654T1589 516Q1589 392 1530 301T1373 148T1160 49T927 -4T716 -20ZM635 1351Q628 1219 596 1091T531 834Q600 835 702 843T915 869T1121
921T1278 1007T1339 1136Q1339 1195 1303 1236T1208 1303T1082 1343T953 1363T847 1369Q794 1369 741 1367T635 1351ZM498 168Q548 158 627 150T797 142Q899 142 1004 159T1198 213T1341 308T1396 449Q1396 520 1350 569T1230 650T1073 698T912 721T784 728Q712
728 641 722T499 706Q483 631 473 556T462 404Q462 345 470 286T498 168Z" />
<glyph unicode="C" glyph-name="C" horiz-adv-x="1450" d="M952 -36Q857 -36 758 -24T569 22Q381 92 279 238T176 585Q176 789 256 958T475 1251T791 1442T1164 1510Q1206 1510 1270 1504T1396 1480T1501 1426T1544 1331Q1544 1298 1530 1251T1487 1184Q1435 1250
1354 1283T1183 1327T1015 1338Q820 1338 675 1258T451 1032T371 690Q371 490 458 365T694 182T1026 124Q1111 124 1202 135T1375 183T1509 293Q1508 194 1452 130T1308 29T1126 -21T952 -36Z" />
<glyph unicode="D" glyph-name="D" horiz-adv-x="1773" d="M756 -20Q688 -20 607 -16T451 11T328 84T280 229Q280 349 305 465T365 696T424 928T450 1165Q450 1242 432 1316T378 1458Q521 1477 664 1487T952 1498Q1066 1498 1187 1486T1420 1441T1622 1346T1764
1185T1817 941Q1817 719 1731 542T1495 239T1155 47T756 -20ZM665 1339Q656 1220 627 1102T563 864T505 625T480 382Q480 269 528 169Q596 150 667 141T810 131Q965 131 1111 175T1374 308T1560 529T1629 835Q1629 993 1573 1095T1420 1255T1203 1336T953 1359Q880
1359 807 1354T665 1339Z" />
<glyph unicode="E" glyph-name="E" horiz-adv-x="1270" d="M336 817Q344 817 357 817Q378 908 396 1000T414 1185Q414 1241 405 1296T373 1406V1406L367 1421Q372 1424 380 1428V1428Q452 1463 532 1469T690 1476Q818 1476 945 1474T1199 1472Q1231 1472 1275
1472T1363 1476T1436 1487Q1425 1369 1366 1325T1194 1281Q1050 1281 907 1293T620 1321Q616 1191 585 1066T523 817Q624 818 734 821T943 831T1107 853Q1114 794 1091 760T1027 710T939 689T848 684Q750 684 662 684T493 684Q469 576 447 467T425 248Q425 211
427 181Q551 176 674 175T922 173Q955 173 1007 173T1118 175T1226 182T1305 196Q1295 96 1251 51T1137 -7T984 -19Q916 -19 820 -15T629 -2T468 21Q416 -15 359 -15Q277 -15 249 38T220 162Q220 295 255 425T324 683Q262 682 206 681Q205 688 205 700Q205 756
245 786T336 817Z" />
<glyph unicode="F" glyph-name="F" horiz-adv-x="1255" d="M349 817Q358 817 376 817Q397 908 415 1000T433 1185Q433 1241 424 1296T392 1406V1406L386 1421Q391 1424 399 1428V1428Q471 1463 551 1469T709 1476Q837 1476 964 1474T1218 1472Q1250 1472 1294
1472T1382 1476T1455 1487Q1444 1369 1385 1325T1213 1281Q1069 1281 926 1293T639 1321Q635 1191 604 1066T542 817Q654 818 777 821T1010 831T1194 853Q1202 794 1177 760T1107 710T1010 689T910 684Q800 684 702 684T512 684Q496 610 481 532T466 378Q466 291
495 213T603 75Q584 60 553 40T490 3T433 -13Q336 -13 301 51T265 211Q265 288 278 375T310 543T343 683Q271 682 206 681Q205 688 205 700Q205 756 249 786T349 817Z" />
<glyph unicode="G" glyph-name="G" horiz-adv-x="1469" d="M715 -36Q532 -36 413 45T235 264T176 573Q176 758 241 926T425 1226T704 1434T1055 1510Q1097 1510 1153 1504T1263 1479T1351 1426T1387 1334Q1387 1299 1370 1249T1316 1185Q1273 1248 1208 1281T1069
1326T923 1338Q785 1338 682 1284T509 1137T406 927T371 684Q371 582 393 483T464 302T595 173T796 124Q862 124 940 135T1094 173T1228 246Q1239 334 1262 408T1286 569Q1286 618 1272 665T1232 754Q1259 767 1295 780T1361 794Q1420 794 1440 757T1461 669Q1461
594 1442 523T1402 382T1382 243Q1382 188 1409 145T1478 66Q1455 47 1409 18T1319 -12Q1303 -12 1282 -3T1244 38T1223 137Q1120 70 986 17T715 -36Z" />
<glyph unicode="H" glyph-name="H" horiz-adv-x="1771" d="M1729 1329Q1729 1276 1717 1201T1687 1043T1650 885T1617 756Q1599 668 1577 571T1555 378Q1555 291 1584 213T1692 75Q1673 60 1642 40T1579 3T1522 -13Q1425 -13 1390 51T1354 211Q1354 289 1368 378T1400
549T1434 690Q1307 681 1178 679T920 676Q818 676 716 678T513 686Q496 612 481 533T466 378Q466 291 495 213T603 75Q584 60 553 40T490 3T433 -13Q336 -13 301 51T265 211Q265 283 277 364T306 523T338 661T362 756Q383 857 401 958T420 1163Q420 1242 403 1321T337
1464Q371 1481 415 1497T496 1513Q581 1513 610 1458T640 1329Q640 1267 624 1174T585 984T542 811Q651 809 762 808T985 807Q1103 807 1222 805T1461 802Q1479 891 1494 981T1509 1163Q1509 1242 1492 1321T1426 1464Q1460 1481 1504 1497T1585 1513Q1670 1513
1699 1458T1729 1329Z" />
<glyph unicode="I" glyph-name="I" horiz-adv-x="1117" d="M326 151Q363 151 405 151T493 151Q505 310 531 473T583 791T624 1081T625 1318Q554 1318 493 1311T359 1283Q352 1296 351 1308T350 1335Q350 1400 404 1435T595 1470Q637 1470 729 1470T930 1470T1132
1474Q1139 1408 1116 1375T1052 1330T964 1318T873 1317Q854 1317 834 1317Q815 1163 788 1022T737 743T698 461T690 155Q780 159 865 166T1018 187Q1027 108 985 68T880 13T759 -2Q570 -2 436 -2T196 -5Q195 4 195 16Q195 81 235 116T326 151Z" />
<glyph unicode="J" glyph-name="J" horiz-adv-x="1105" d="M106 -382Q81 -379 39 -370T-45 -341T-117 -287T-146 -200Q-146 -153 -129 -107T-84 -6Q-53 -98 2 -140T116 -193T210 -204Q364 -204 465 -131T627 68T721 353T767 688T789 1036T809 1358Q688 1362 559
1340T318 1272Q322 1387 371 1442T551 1502Q669 1505 812 1504T1112 1497Q1112 1429 1093 1404T1043 1355Q980 1118 955 929T919 585T892 303T831 58Q782 -72 695 -161T502 -302T293 -372T106 -382Z" />
<glyph unicode="K" glyph-name="K" horiz-adv-x="1512" d="M362 756H363Q386 857 403 958T420 1163Q420 1242 403 1321T337 1464Q371 1481 415 1497T496 1513Q581 1513 610 1458T640 1329Q640 1187 600 1042T531 756H528Q527 753 527 751Q626 782 709 830T870
937T1036 1060Q1101 1109 1172 1166T1310 1282T1426 1396T1497 1496Q1522 1496 1555 1489T1613 1463T1638 1412Q1638 1385 1585 1332T1446 1210T1259 1069T1060 929Q1014 897 965 864T863 798Q938 709 1012 620T1162 443Q1257 332 1355 259T1604 170Q1597 129 1576
85T1520 12T1437 -18Q1377 -18 1321 17T1217 100T1133 191Q1025 316 921 446T712 708Q660 679 606 652T494 601Q483 545 475 489T466 378Q466 291 495 213T603 75Q584 60 553 40T490 3T433 -13Q336 -13 301 51T265 211Q265 283 277 364T306 523T338 661T362 756Z"
/>
<glyph unicode="L" glyph-name="L" horiz-adv-x="1252" d="M220 162Q220 314 264 462T342 756Q365 857 382 958T399 1163Q399 1242 382 1321T316 1464Q350 1481 394 1497T475 1513Q560 1513 589 1458T619 1329Q619 1187 579 1042T510 756Q510 755 510 754T509
752Q483 628 454 502T425 248Q425 211 427 181Q551 176 674 175T922 173Q955 173 1007 173T1118 175T1226 182T1305 196Q1295 96 1251 51T1137 -7T984 -19Q869 -19 754 -9T522 13Q509 15 494 17T468 21Q416 -15 359 -15Q277 -15 249 38T220 162Z" />
<glyph unicode="M" glyph-name="M" horiz-adv-x="1918" d="M386 -13Q326 -13 296 19T254 100T243 197Q243 324 267 447T324 693T380 938T405 1189Q405 1260 391 1330T336 1461Q368 1482 405 1497T482 1513Q569 1513 628 1479T728 1388T798 1263T852 1126Q910 972
966 818T1073 506Q1139 644 1216 776T1381 1034Q1427 1100 1481 1169T1578 1313T1630 1470Q1716 1513 1819 1513Q1897 1513 1924 1463T1952 1344Q1952 1260 1936 1178T1900 1015Q1860 854 1817 691T1773 360Q1773 278 1800 203T1891 75Q1863 51 1815 19T1729 -13Q1666
-13 1632 17T1586 96T1573 197Q1573 332 1598 464T1657 727T1715 990T1741 1259Q1741 1291 1739 1322Q1693 1259 1627 1170T1488 981T1352 782T1250 600T1210 461Q1210 442 1212 423T1219 383Q1154 341 1077 341Q980 341 926 416Q868 498 829 607T760 812Q722 932
680 1050T576 1279Q572 1260 569 1242T561 1205Q548 1145 535 1085T507 964Q470 815 432 661T394 352Q394 277 416 207T501 89Q487 60 455 24T386 -13Z" />
<glyph unicode="N" glyph-name="N" horiz-adv-x="1667" d="M389 -13Q328 -13 297 19T255 100T244 198Q244 323 268 445T325 688T381 932T406 1181Q406 1253 391 1325T335 1457Q367 1480 403 1496T480 1513Q576 1513 649 1463T778 1333T874 1166T947 1004Q1007
863 1063 739T1189 502T1365 285Q1392 432 1431 576T1499 868T1527 1175Q1526 1250 1511 1325T1453 1463Q1479 1478 1519 1495T1589 1513Q1635 1513 1657 1487T1687 1423T1695 1348Q1695 1222 1668 1100T1605 856T1542 612T1515 364Q1515 284 1539 212T1630 89Q1610
52 1575 20T1493 -13Q1394 -13 1311 40T1157 185T1025 391T907 628T798 865T690 1073T577 1220Q549 1080 506 939T428 653T394 363Q394 286 417 213T504 90Q489 62 457 25T389 -13Z" />
<glyph unicode="O" glyph-name="O" horiz-adv-x="1770" d="M855 -36Q659 -36 506 36T266 250T178 597Q178 797 256 964T471 1255T784 1445T1156 1513Q1353 1513 1505 1440T1745 1225T1833 878Q1833 678 1755 511T1540 221T1227 31T855 -36ZM1022 137Q1214 137
1352 222T1565 453T1640 783Q1640 981 1552 1103T1317 1281T989 1338Q799 1338 661 1254T447 1026T372 698Q372 502 459 378T695 196T1022 137Z" />
<glyph unicode="P" glyph-name="P" horiz-adv-x="1406" d="M639 1335V1335Q637 1185 598 1042T528 756Q524 738 520 720T512 682Q593 688 708 703T946 746T1177 821T1351 937T1418 1102Q1418 1185 1366 1237T1234 1318T1070 1358T924 1370Q781 1370 639 1335ZM265
211Q265 283 277 364T306 523T338 661T362 756Q385 862 409 970T433 1185Q433 1237 426 1284Q410 1383 360 1470Q511 1480 662 1498T964 1516Q1033 1516 1118 1508T1288 1479T1445 1419T1561 1317T1605 1162Q1605 1030 1535 932T1347 767T1083 656T782 589T485
557Q477 512 472 467T466 378Q466 291 495 213T603 75Q584 60 553 40T490 3T433 -13Q336 -13 301 51T265 211Z" />
<glyph unicode="Q" glyph-name="Q" horiz-adv-x="1766" d="M855 -36Q659 -36 506 36T266 250T178 597Q178 797 256 964T471 1255T784 1445T1156 1513Q1353 1513 1505 1440T1745 1225T1833 878Q1833 663 1743 486T1497 185T1148 5Q1304 -53 1466 -91T1796 -129Q1813
-129 1828 -129T1860 -132V-139Q1860 -233 1791 -287T1633 -341Q1575 -341 1483 -310T1286 -231T1085 -130T924 -34Q889 -36 855 -36ZM1022 137Q1214 137 1352 222T1565 453T1640 783Q1640 981 1552 1103T1317 1281T989 1338Q799 1338 661 1254T447 1026T372 698Q372
502 459 378T695 196T1022 137Z" />
<glyph unicode="R" glyph-name="R" horiz-adv-x="1640" d="M639 1335V1335Q637 1185 598 1042T528 756Q524 738 520 720T512 682Q593 688 708 703T946 746T1177 821T1351 937T1418 1102Q1418 1185 1366 1237T1234 1318T1070 1358T924 1370Q781 1370 639 1335ZM1520
-18Q1466 -18 1396 27T1248 146T1097 303T961 466T858 602Q763 584 669 573T485 557Q477 512 472 467T466 378Q466 291 495 213T603 75Q584 60 553 40T490 3T433 -13Q336 -13 301 51T265 211Q265 283 277 364T306 523T338 661T362 756Q385 862 409 970T433 1185Q433
1237 426 1284Q410 1383 360 1470Q511 1480 662 1498T964 1516Q1033 1516 1118 1508T1288 1479T1445 1419T1561 1317T1605 1162Q1605 1023 1528 923T1322 754T1039 643Q1100 522 1202 420T1430 250T1691 171Q1684 129 1662 85T1605 12T1520 -18Z" />
<glyph unicode="S" glyph-name="S" horiz-adv-x="1147" d="M586 -30Q542 -30 479 -24T348 -2T221 41T125 111T88 213Q88 255 106 302T158 376Q193 275 274 220T458 145T655 124Q699 124 760 131T880 159T978 216T1018 312Q1018 372 976 424T872 520T746 598T636
657Q571 692 500 733T368 826T268 944T229 1096Q229 1215 285 1295T432 1423T628 1492T830 1513Q874 1513 934 1505T1054 1477T1152 1420T1191 1324Q1191 1287 1176 1244T1130 1178Q1092 1243 1018 1279T861 1331T707 1346Q666 1346 612 1338T506 1310T420 1255T386
1165Q386 1118 417 1078T496 1003T592 943T677 896Q749 857 836 809T1005 701T1138 565T1190 396Q1190 281 1133 200T984 68T787 -6T586 -30Z" />
<glyph unicode="T" glyph-name="T" horiz-adv-x="1359" d="M376 1480Q644 1480 912 1477Q1084 1476 1256 1474T1601 1472Q1621 1472 1641 1472T1681 1470Q1672 1370 1620 1326T1468 1282Q1349 1282 1230 1287T992 1302Q985 1161 949 1026T882 756Q864 668 842
571T820 378Q820 291 849 213T957 75Q938 60 907 40T844 3T787 -13Q690 -13 655 51T619 211Q619 283 631 364T660 523T692 661T716 756Q739 862 763 970T787 1185Q787 1248 776 1304Q622 1302 468 1301T160 1269Q171 1480 376 1480Z" />
<glyph unicode="U" glyph-name="U" horiz-adv-x="1743" d="M562 -28Q412 -28 341 46T270 267Q270 374 292 483T343 704T395 930T417 1162Q417 1242 399 1321T330 1465Q365 1481 409 1497T492 1513Q575 1513 606 1462T637 1336Q637 1210 609 1088T545 843T481 598T453
349Q453 240 495 208T642 175Q731 175 840 218T1060 328T1263 469T1413 606Q1424 655 1434 694T1450 756Q1471 857 1489 958T1508 1163Q1508 1242 1491 1321T1425 1464Q1459 1481 1503 1497T1584 1513Q1669 1513 1698 1458T1728 1329Q1728 1276 1716 1201T1686
1043T1649 885T1616 756Q1598 668 1576 571T1554 378Q1554 291 1583 213T1691 75Q1672 60 1641 40T1578 3T1521 -13Q1424 -13 1389 51T1353 211Q1353 267 1360 328T1379 451Q1314 387 1215 305T1002 147T774 22T562 -28Z" />
<glyph unicode="V" glyph-name="V" horiz-adv-x="1372" d="M772 -13Q680 -13 636 32T559 157Q514 265 501 389T477 628Q464 771 439 925T349 1210Q313 1282 259 1329T136 1417Q160 1446 202 1479T284 1513Q369 1513 425 1472T517 1365T573 1219T603 1062T619 922Q636
757 663 592T751 271Q765 272 778 271T805 268Q858 357 917 441T1037 610Q1089 682 1150 767T1269 944T1371 1128T1435 1307Q1437 1321 1437 1328Q1437 1356 1426 1381T1397 1429Q1423 1455 1464 1484T1543 1513Q1584 1513 1600 1488T1617 1425Q1617 1353 1572
1258T1455 1052T1299 822T1134 583T992 349T906 132Q903 119 903 103Q903 70 911 33Q880 12 845 0T772 -13Z" />
<glyph unicode="W" glyph-name="W" horiz-adv-x="1942" d="M683 -13Q588 -13 546 30T472 157Q432 270 429 391T421 630Q417 773 402 925T331 1211Q303 1281 251 1329T137 1418Q163 1447 204 1480T287 1513Q369 1513 422 1471T505 1360T551 1211T571 1054T579 918Q585
788 600 657Q612 546 630 437T672 218Q744 359 831 502T1006 790T1165 1078Q1144 1134 1112 1182T1033 1266Q1065 1304 1119 1345T1226 1386Q1273 1386 1301 1347T1345 1245T1367 1115T1375 988T1378 897Q1384 731 1402 564T1474 237Q1532 329 1586 422T1696 609Q1759
714 1830 828T1960 1063T2046 1302Q2049 1316 2049 1328Q2049 1356 2039 1381T2012 1429Q2037 1455 2077 1484T2155 1513Q2196 1513 2213 1489T2230 1427Q2230 1370 2206 1302T2146 1163T2070 1028T2001 915Q1950 834 1889 738T1769 538T1666 332T1602 136Q1601
129 1601 122T1600 108Q1600 71 1611 33Q1583 15 1550 1T1482 -13Q1385 -13 1344 29T1270 157Q1222 284 1219 417T1215 683Q1215 746 1212 812T1199 944Q1138 823 1070 708T941 485T842 282T803 103Q803 67 809 32Q781 13 749 0T683 -13Z" />
<glyph unicode="X" glyph-name="X" horiz-adv-x="1402" d="M180 -23Q142 -23 125 4T107 66Q107 117 156 193T282 355T439 521T585 661Q526 752 474 843T376 1021Q334 1101 306 1177T277 1310Q277 1369 311 1416T407 1471Q422 1388 459 1300T545 1128Q649 947 776
777Q856 857 934 939T1089 1105Q1148 1171 1196 1236T1244 1333Q1244 1348 1228 1371T1201 1407Q1230 1429 1274 1454T1355 1480Q1395 1480 1412 1453T1430 1390Q1430 1348 1395 1288T1304 1159T1180 1021Q1098 935 1012 855T839 693Q944 561 1055 445Q1156 342
1270 255T1497 135Q1488 81 1456 29T1360 -23Q1296 -23 1216 17T1052 124T894 265Q830 329 769 406T649 566Q599 514 538 449T421 318T329 201T292 124Q292 108 309 85T336 49Q306 27 262 2T180 -23Z" />
<glyph unicode="Y" glyph-name="Y" horiz-adv-x="1196" d="M718 -13Q659 -13 627 15T583 89T571 185Q571 268 588 355T632 521Q611 599 579 705T503 924T405 1133T283 1292T136 1358Q152 1391 179 1427T242 1488T318 1513Q378 1513 434 1451T540 1289T632 1077T707
860T762 687Q767 693 769 696Q813 747 872 813T993 951T1108 1094T1194 1225T1227 1325Q1227 1351 1215 1377T1189 1424Q1208 1439 1239 1459T1304 1495T1361 1511Q1395 1511 1406 1487T1418 1433Q1418 1372 1374 1292T1264 1125T1126 957T999 813Q948 754 895
687T807 534T771 333Q771 257 796 191T882 75Q854 51 805 19T718 -13Z" />
<glyph unicode="Z" glyph-name="Z" horiz-adv-x="1313" d="M215 -9Q165 -23 154 -36Q122 -34 96 -10T52 39Q90 96 161 201T328 439T530 715T746 994T955 1237Q867 1228 769 1219T577 1208T406 1218T283 1263T237 1358Q237 1387 248 1424T282 1480Q362 1451 470
1434T700 1410T938 1406T1154 1423Q1225 1475 1269 1475Q1352 1475 1383 1423T1414 1298Q1315 1280 1201 1197T968 988T732 717T513 426T329 162Q688 236 1053 236Q1210 236 1270 185T1308 -22Q1226 -4 1116 8T883 27T637 33T405 22T215 -9Z" />
<glyph unicode="[" glyph-name="bracketleft" horiz-adv-x="1113" d="M967 -9Q974 -81 939 -122T843 -183T711 -208T573 -212T463 -210Q379 -210 316 -160T252 -20Q252 13 257 45T269 109Q313 339 362 568T456 1028Q468 1090 477 1153T487 1280Q487 1354 470 1427T415
1564Q507 1602 607 1609T805 1616Q909 1616 1013 1615T1222 1617Q1228 1561 1197 1517T1110 1447T986 1422Q841 1422 715 1482Q696 1425 688 1366T669 1247Q633 1048 587 849T506 450T471 45Q471 17 476 -10T488 -64Q608 -52 728 -45T967 -9Z" />
<glyph unicode="\" glyph-name="backslash" horiz-adv-x="1012" d="M969 -213Q925 -213 889 -184T825 -115T777 -42Q718 60 684 172T618 396Q560 608 493 820T328 1230Q282 1324 225 1384T66 1482Q66 1526 91 1567T167 1609Q244 1609 306 1554T418 1412T504 1225T567
1035T609 886Q662 696 723 505T878 138Q922 54 983 -15T1118 -144Q1092 -163 1047 -188T969 -213Z" />
<glyph unicode="]" glyph-name="bracketright" horiz-adv-x="1113" d="M1101 1565Q1034 1498 1001 1424T950 1258Q914 1080 903 898T886 534Q885 477 880 386T860 192T814 -1T729 -149T594 -207Q557 -207 501 -206T383 -201T268 -187T184 -159Q144 -136 138 -104T131
-29V-1Q241 -20 358 -33T573 -52H575Q627 13 655 102T697 292T716 490T725 667Q736 871 751 1074T789 1482Q717 1454 640 1438T485 1422Q442 1422 398 1435T325 1480T295 1562Q295 1575 297 1589T304 1614Q334 1616 363 1616T422 1616Q469 1616 515 1616T608 1615Q683
1615 771 1616T946 1607T1101 1565Z" />
<glyph unicode="^" glyph-name="asciicircum" horiz-adv-x="1382" d="M1230 691Q1166 691 1117 723T1030 807T964 915T913 1022Q875 1108 813 1191T705 1356Q695 1356 655 1318T560 1219T454 1092T367 967T332 873Q332 845 353 815T392 765Q364 745 320 721T239
696Q200 696 182 722T163 784Q163 861 208 933T317 1070T431 1184Q464 1217 514 1274T611 1390T678 1487Q685 1500 706 1516T749 1545T781 1558Q816 1558 839 1530T878 1476Q892 1453 901 1428T920 1377Q949 1299 995 1209T1104 1037T1246 903T1421 847Q1404 814
1375 778T1308 716T1230 691Z" />
<glyph unicode="_" glyph-name="underscore" horiz-adv-x="1024" d="M-64 -170Q-66 -165 -68 -161T-73 -153Q-83 -130 -90 -104T-88 -49Q-79 -25 -46 -11T32 10T114 17Q308 17 484 9T769 0Q804 0 854 3T954 14T1037 36Q1069 -3 1056 -61Q1048 -101 1006 -119T914
-141T832 -146Q735 -146 583 -144T265 -141Q188 -141 97 -145T-64 -170Z" />
<glyph unicode="`" glyph-name="grave" horiz-adv-x="1382" d="M875 1223Q854 1223 808 1238T703 1278T585 1328T479 1378T408 1413Q387 1424 371 1438T354 1480Q354 1525 388 1543T461 1561Q479 1561 497 1561T533 1557Q573 1510 645 1465T796 1380T930 1308Q915
1288 901 1267T875 1223Z" />
<glyph unicode="a" glyph-name="a" horiz-adv-x="1621" d="M1224 333V517Q1187 463 1132 393T1008 249T858 114T691 14T515 -25Q388 -25 307 34T186 192T147 407Q147 562 201 698T353 939T584 1102T877 1161Q952 1161 1033 1141T1187 1089T1308 1017Q1323 1069
1348 1107T1417 1145Q1445 1145 1474 1131T1525 1101Q1458 980 1437 831T1415 545Q1415 447 1426 367T1474 215T1584 73Q1556 51 1507 19T1421 -13Q1355 -13 1316 21T1257 110T1231 224T1224 333ZM337 512Q337 423 364 351T452 236T610 193Q691 193 773 237T933
353T1077 510T1193 678T1267 827Q1271 847 1275 867T1284 908Q1234 951 1166 971T1024 998T884 1004Q732 1004 608 948T411 781T337 512Z" />
<glyph unicode="b" glyph-name="b" horiz-adv-x="1346" d="M595 1233Q562 1067 529 909T465 584Q486 633 503 667T543 741Q574 793 623 863T733 1002T864 1115T1005 1160Q1108 1160 1174 1118T1278 1005T1331 853T1346 690Q1346 561 1310 434T1200 203T1018 37T763
-25Q665 -25 581 17T417 107Q408 68 387 27T322 -15Q296 -15 270 -2T223 28Q266 223 297 420T358 816Q376 937 391 1058T406 1301Q406 1427 338 1526Q370 1543 410 1559T488 1575Q565 1575 590 1522T616 1404Q616 1361 610 1318T595 1233ZM946 943Q866 943 795
886T664 739T558 549T480 359T435 216Q506 181 591 156T753 131Q889 131 980 194T1117 362T1163 593Q1163 646 1154 706T1122 820T1057 908T946 943Z" />
<glyph unicode="c" glyph-name="c" horiz-adv-x="1170" d="M749 -29Q637 -29 530 -4T336 76T199 222T148 441Q148 595 213 726T391 954T643 1106T935 1161Q974 1161 1027 1157T1131 1139T1216 1093T1250 1006Q1250 978 1238 933T1201 872Q1156 926 1089 952T947
986T807 994Q596 994 469 872T341 534Q341 392 402 305T569 177T803 136Q931 136 1001 156T1108 203T1167 255Q1181 176 1149 122T1053 34T910 -14T749 -29Z" />
<glyph unicode="d" glyph-name="d" horiz-adv-x="1615" d="M1314 1147Q1318 1239 1293 1348T1209 1530Q1244 1545 1289 1560T1372 1575Q1429 1575 1461 1545T1506 1468T1519 1373Q1519 1288 1503 1204T1468 1037Q1442 916 1420 794T1398 547Q1398 417 1435 293T1566
73Q1539 51 1490 19T1405 -13Q1341 -13 1302 22T1244 112T1219 226T1212 334Q1212 380 1215 425T1224 516Q1187 463 1132 393T1007 249T858 114T691 14T515 -25Q388 -25 307 34T186 192T147 407Q147 562 201 698T353 939T584 1102T877 1161Q951 1161 1031 1142T1183
1091T1303 1021Q1307 1052 1310 1083T1314 1147ZM337 512Q337 423 364 351T452 236T610 193Q696 193 784 243T955 373T1105 545T1219 723T1281 870Q1284 888 1287 905Q1237 949 1169 970T1026 998T884 1004Q732 1004 608 948T411 781T337 512Z" />
<glyph unicode="e" glyph-name="e" horiz-adv-x="1198" d="M1152 229Q1152 152 1108 102T995 23T852 -17T717 -29Q569 -29 439 17T229 165T148 434Q148 529 177 623T256 798Q363 971 529 1066T899 1161Q975 1161 1054 1140T1187 1068T1242 924Q1242 808 1180 727T1015
592T791 511T551 472T336 466Q336 420 340 377T356 304Q385 225 463 183T642 128T846 128T1029 174T1144 256Q1152 248 1152 229ZM362 686Q354 654 347 610Q420 606 513 609T702 627T878 669T1008 742T1058 851Q1058 896 1027 924T951 967T858 988T777 994Q620
994 512 918T362 686Z" />
<glyph unicode="f" glyph-name="f" horiz-adv-x="740" d="M204 -132Q210 -52 223 66T257 326T303 615T362 903Q302 902 244 896T129 873Q128 968 166 1007T266 1055T401 1062Q431 1172 464 1261T535 1408Q599 1507 699 1565T957 1624Q1010 1624 1073 1613T1183
1569T1230 1468Q1230 1433 1215 1388T1167 1323Q1152 1378 1113 1407T1024 1447T931 1458Q827 1458 760 1416T648 1301Q628 1269 606 1207T561 1061Q649 1061 741 1066T894 1091Q881 1011 845 971T758 917T647 903T522 902Q498 794 477 673T440 432Q424 308 408
193T388 -18T406 -182T491 -279Q465 -304 422 -335T342 -366Q280 -366 249 -328T210 -234T204 -132Z" />
<glyph unicode="g" glyph-name="g" horiz-adv-x="1462" d="M676 -417Q635 -417 572 -412T445 -390T340 -339T297 -247Q297 -224 306 -185T330 -129Q382 -179 462 -205T628 -242T783 -252Q876 -252 955 -230T1089 -152T1164 3Q1172 42 1175 82T1179 162Q1183 240
1184 318T1185 475Q1185 487 1184 499T1181 524Q1146 471 1093 400T973 255T829 118T668 15T497 -25Q377 -25 300 34T185 192T147 407Q147 562 199 698T347 939T572 1102T857 1161Q927 1161 1003 1143T1148 1094T1266 1027V1028Q1273 1066 1297 1105T1367 1145Q1408
1145 1448 1135T1526 1108Q1471 1047 1438 1007T1389 928T1367 837T1362 701Q1362 592 1364 484T1367 267Q1367 57 1282 -96T1041 -333T676 -417ZM337 512Q337 379 397 286T595 193Q679 193 764 245T929 381T1073 559T1181 740T1236 884Q1237 906 1237 921Q1162
977 1059 990T865 1004Q719 1004 599 948T408 781T337 512Z" />
<glyph unicode="h" glyph-name="h" horiz-adv-x="1535" d="M516 14Q477 9 438 -2T359 -13Q301 -13 275 19T243 99T236 191Q236 304 263 415T318 635Q354 778 385 922T416 1214Q416 1296 399 1378T332 1528Q366 1545 408 1560T488 1575Q549 1575 578 1542T615 1460T624
1363Q624 1219 590 1080T513 802T440 524Q501 625 580 734T752 939T942 1094T1140 1155Q1285 1156 1344 1074T1403 857Q1403 747 1380 638T1357 419Q1357 318 1390 227T1507 72Q1488 58 1457 38T1392 3T1335 -13Q1275 -13 1240 17T1186 96T1161 198T1155 296Q1155
395 1173 485T1211 657T1230 811Q1230 866 1201 892T1127 928T1040 937Q955 937 871 881T711 735T572 540T468 337Q454 303 444 269T434 201Q434 149 458 101T516 14Z" />
<glyph unicode="i" glyph-name="i" horiz-adv-x="908" d="M405 1020Q374 1005 332 991T245 978T162 1009T101 1114Q215 1110 299 1126T475 1143Q528 1143 554 1119T588 1059T594 982T588 909Q581 845 563 758T525 582Q518 551 506 497T484 382T478 264T506 173T586
137Q627 137 684 140T795 158T880 203L882 205V202Q882 113 830 64T702 -6T553 -26Q432 -26 370 16T289 129T278 284T308 455T348 616Q371 711 389 810T405 1020ZM505 1234Q443 1234 413 1260T382 1350Q382 1393 390 1435T410 1518Q448 1532 488 1542T570 1553Q630
1553 666 1526T703 1434Q703 1390 689 1349T658 1267Q621 1253 583 1244T505 1234Z" />
<glyph unicode="j" glyph-name="j" horiz-adv-x="584" d="M463 1234Q412 1234 376 1255T340 1350Q340 1394 349 1435T368 1518Q407 1532 447 1542T528 1553Q577 1553 619 1530T661 1434Q661 1389 647 1348T616 1267Q579 1253 541 1244T463 1234ZM557 906Q544 810
534 712T511 515Q498 409 483 303T440 94Q421 20 380 -70T270 -244T104 -380T-128 -432Q-194 -431 -254 -418T-353 -371T-396 -278Q-399 -231 -381 -192T-320 -129Q-302 -180 -247 -216T-91 -252Q55 -252 130 -199T239 -46T289 197T331 519Q354 680 363 805T380
1019Q347 1004 304 990T216 977T133 1010T72 1115Q186 1111 269 1127T444 1143Q515 1143 540 1104T565 1009T557 906Z" />
<glyph unicode="k" glyph-name="k" horiz-adv-x="1328" d="M1240 -18Q1198 -18 1130 23T982 131T827 274T693 422T611 543Q560 512 518 487T447 443Q438 363 438 306Q438 233 474 175T568 74Q540 52 491 20T404 -13Q340 -13 306 18T258 99T245 202Q245 308 269
430T326 684T382 951T407 1219Q407 1299 393 1380T332 1528Q367 1547 405 1561T484 1575Q565 1575 593 1522T622 1399Q622 1293 597 1191T549 985Q533 911 512 815T473 619Q663 716 841 841T1153 1134Q1178 1134 1211 1127T1269 1101T1294 1051Q1294 1021 1247
974T1121 869T949 752T762 634Q780 582 834 522T962 402T1116 294T1268 212T1387 175Q1387 131 1372 87T1324 12T1240 -18Z" />
<glyph unicode="l" glyph-name="l" horiz-adv-x="832" d="M503 -13Q434 -13 396 18T342 101T326 213Q326 317 349 419T394 621Q426 761 453 902T480 1186Q480 1276 461 1367T383 1530Q420 1546 465 1560T550 1575Q636 1575 668 1521T701 1389Q701 1278 674 1169T622
953Q588 806 558 657T527 356Q527 250 560 192T681 75Q662 61 629 40T561 3T503 -13Z" />
<glyph unicode="m" glyph-name="m" horiz-adv-x="2201" d="M356 -13Q301 -13 276 18T244 94T237 181Q237 288 257 392T298 601T318 813Q318 887 302 959T241 1093Q274 1113 314 1128T393 1143Q474 1143 502 1089T531 965Q531 862 513 761T479 559Q510 608 559
683T669 839T798 993T937 1110T1075 1155Q1170 1155 1222 1113T1295 1000T1316 848Q1316 780 1315 711T1300 575Q1329 630 1374 705T1479 858T1606 1004T1747 1113T1896 1155Q1989 1155 2038 1117T2107 1013T2126 866Q2126 748 2108 632T2089 398Q2089 304 2116
220T2220 73Q2191 50 2143 19T2056 -13Q1999 -13 1965 17T1914 95T1892 195T1886 290Q1885 408 1904 504T1942 678T1960 814Q1959 889 1908 913T1794 937Q1730 937 1668 898T1550 796T1446 659T1362 515T1305 392Q1265 294 1264 202T1329 15Q1292 4 1254 -4T1176
-13Q1122 -13 1097 18T1065 94T1058 180Q1058 282 1078 382T1119 584T1139 788Q1139 887 1104 912T975 937Q911 937 849 898T731 795T626 657T542 513T484 390Q442 288 442 202T508 15Q471 4 433 -4T356 -13Z" />
<glyph unicode="n" glyph-name="n" horiz-adv-x="1652" d="M548 933Q548 845 534 760T504 588Q568 686 650 785T827 968T1024 1103T1230 1155Q1375 1156 1434 1074T1493 857Q1493 747 1470 638T1447 419Q1447 318 1480 227T1597 72Q1578 58 1547 38T1482 3T1425
-13Q1365 -13 1330 17T1276 96T1251 198T1245 296Q1245 395 1263 485T1301 657T1320 811Q1320 866 1291 892T1217 928T1130 937Q1041 937 946 885T762 746T604 559T497 357T466 179Q474 133 500 90T556 13Q516 3 475 -5T391 -13Q336 -13 309 19T272 98T263 188Q263
287 282 386T319 585T338 787Q338 871 318 949T242 1094Q277 1111 321 1127T404 1143Q464 1143 495 1111T537 1031T548 933Z" />
<glyph unicode="o" glyph-name="o" horiz-adv-x="1373" d="M636 -29Q497 -29 386 26T211 183T147 430Q147 580 206 712T369 945T606 1103T888 1161Q1027 1161 1137 1107T1311 949T1375 702Q1375 552 1316 420T1154 187T918 29T636 -29ZM760 136Q898 136 992 201T1135
374T1183 612Q1183 741 1127 825T974 952T756 994Q624 994 531 931T390 762T341 531Q341 336 457 236T760 136Z" />
<glyph unicode="p" glyph-name="p" horiz-adv-x="1252" d="M455 -357Q430 -382 389 -413T311 -445Q245 -445 213 -406T171 -311T160 -204Q160 -125 172 -48T200 106Q234 282 261 459T289 817Q289 887 281 958T242 1093Q271 1111 307 1127T378 1143Q428 1143 454
1117T490 1050T500 969Q500 896 485 826T451 685Q465 713 481 741Q511 793 558 863T664 1002T790 1115T926 1160Q1026 1160 1090 1118T1191 1005T1241 853T1256 690Q1256 561 1221 434T1115 203T939 37T694 -25Q602 -25 522 15T365 102L362 79Q360 61 356 28T349
-37T345 -85Q345 -164 369 -234T455 -357ZM864 943Q790 943 724 890T601 751T500 568T425 383T379 235L377 215Q447 181 528 156T681 131Q811 131 898 194T1029 362T1073 593Q1073 646 1065 706T1034 820T970 908T864 943Z" />
<glyph unicode="q" glyph-name="q" horiz-adv-x="1302" d="M1011 -450Q933 -450 908 -396T882 -276Q882 -232 888 -190T903 -105Q935 59 969 222T1035 548Q993 465 935 366T803 178T639 32T441 -25Q325 -25 261 37T172 193T146 384Q146 521 187 658T309 909T507
1092T778 1161Q871 1161 953 1121T1112 1030Q1113 1038 1115 1045Q1124 1081 1146 1113T1212 1145Q1238 1145 1264 1128T1308 1093Q1228 804 1164 505T1100 -97Q1100 -170 1108 -252T1155 -399Q1124 -417 1086 -433T1011 -450ZM333 482Q333 419 348 352T405 239T526
193Q579 193 635 228T747 319T852 439T939 565T998 669Q1024 723 1044 779T1081 893Q1085 906 1088 920Q1019 965 939 984T777 1004Q631 1004 532 930T383 736T333 482Z" />
<glyph unicode="r" glyph-name="r" horiz-adv-x="1108" d="M439 -13Q371 -13 334 19T281 104T266 214Q266 317 289 416T336 616T360 819Q360 894 339 965T266 1093Q304 1112 346 1127T431 1143Q503 1143 536 1105T569 997Q569 907 551 811T503 647Q560 723 632
811T788 979T969 1110T1170 1161Q1223 1161 1240 1117T1257 1030Q1257 974 1237 920Q1129 923 1010 883T774 755T556 529Q524 484 495 427T466 313Q466 237 510 177T615 75Q595 60 564 39T499 3T439 -13Z" />
<glyph unicode="s" glyph-name="s" horiz-adv-x="879" d="M424 -23Q378 -23 321 -14T212 17T125 77T91 175Q91 217 109 262T167 326Q196 225 285 177T472 128Q509 128 559 138T647 174T685 247Q685 296 647 340T559 421T472 482Q410 524 351 569T254 673T216 817Q216
944 281 1019T449 1128T660 1161Q710 1161 765 1150T858 1106T897 1010Q897 970 879 924T821 861Q785 939 713 970T559 1002Q528 1002 485 994T409 965T376 902Q376 857 414 813T503 733T587 674Q650 632 710 586T810 479T850 332Q850 210 790 131T632 15T424 -23Z"
/>
<glyph unicode="t" glyph-name="t" horiz-adv-x="900" d="M402 1066Q437 1066 471 1066Q472 1144 455 1217T397 1356Q432 1374 471 1390T550 1406Q626 1406 655 1359T684 1243Q684 1199 680 1155T669 1068Q764 1069 859 1071T1050 1076Q1049 999 989 959T834 903T631
887Q594 741 556 595T518 297Q518 248 523 212T554 157T638 137Q682 137 737 140T845 158T932 203Q932 114 881 64T755 -6T605 -26Q475 -26 404 33T333 228Q333 328 356 438T408 662T455 889Q406 891 360 892T276 894Q239 894 202 893T128 886Q128 965 169 1003T273
1053T402 1066Z" />
<glyph unicode="u" glyph-name="u" horiz-adv-x="1599" d="M536 -28Q388 -28 323 47T257 264Q257 360 276 454T315 642T335 832Q335 906 315 971T246 1093Q281 1110 325 1126T409 1143Q480 1143 512 1107T544 1002Q544 970 539 938T528 874Q504 749 471 610T438
344Q438 239 481 206T624 173Q711 173 792 224T946 354T1075 518T1168 672Q1184 703 1206 749T1244 844T1261 926Q1261 972 1240 1015T1193 1096Q1227 1112 1271 1127T1352 1143Q1426 1143 1458 1104T1491 994Q1491 910 1469 825T1426 652T1404 476Q1404 362 1444
257T1567 72Q1540 50 1491 19T1406 -13Q1328 -13 1286 36T1229 164T1214 331T1226 499T1243 629Q1204 569 1146 485T1015 311T862 145T698 20T536 -28Z" />
<glyph unicode="v" glyph-name="v" horiz-adv-x="1156" d="M670 -18Q635 -18 615 9T581 64Q554 119 536 178T498 295Q480 348 452 431T385 608T299 785T194 924T72 984Q87 1016 113 1052T173 1113T247 1138Q304 1138 350 1097T432 993T493 866T532 757Q576 619
623 482T718 208Q728 216 749 248T794 321T838 397T866 449Q899 511 940 599T1012 778T1043 937Q1043 997 1006 1048Q1034 1077 1074 1105T1157 1133Q1199 1133 1215 1110T1231 1048Q1231 1038 1211 985T1161 858T1099 708T1041 574T1006 495Q953 378 894 268T771
45Q752 11 732 -3T670 -18Z" />
<glyph unicode="w" glyph-name="w" horiz-adv-x="1715" d="M627 -18Q590 -18 572 9T541 65Q519 115 493 199T436 386T368 590T287 780T189 923T72 985Q87 1017 112 1052T170 1113T243 1138Q304 1138 357 1083T455 936T537 736T603 521T653 327T686 191Q773 321
845 466T969 760Q942 807 906 845T822 909Q851 946 898 988T995 1030Q1044 1030 1087 980T1166 847T1233 667T1285 474T1323 304T1345 190Q1378 234 1418 306T1499 465T1572 640T1626 806T1647 939Q1647 997 1610 1047Q1639 1076 1678 1104T1760 1133Q1801 1133
1816 1109T1832 1048Q1832 1028 1829 1009T1822 969Q1780 758 1678 557T1461 175Q1449 156 1434 136T1411 93Q1405 75 1403 54T1399 14Q1393 8 1370 1T1323 -12T1290 -18Q1253 -18 1234 8T1201 64Q1164 144 1140 227T1092 395Q1078 446 1064 502T1031 616Q972 468
893 328T728 54L729 -3Q705 -12 679 -15T627 -18Z" />
<glyph unicode="x" glyph-name="x" horiz-adv-x="1317" d="M121 60Q121 122 182 197T337 352T532 503Q457 588 385 680T266 853T219 989Q219 1048 261 1082T358 1124Q374 1060 426 974T551 796T697 620Q742 652 779 678T841 724Q862 741 902 775T986 851T1058
933T1088 1002Q1088 1013 1066 1038T1036 1071Q1059 1086 1103 1109T1175 1133Q1213 1133 1239 1115T1266 1055Q1266 1003 1221 941T1103 810T941 674T768 543Q833 475 882 430Q948 370 1027 309T1194 201T1370 134Q1356 73 1316 28T1207 -18Q1153 -18 1087 13T954
92T830 190T737 279Q714 304 679 341T603 423Q571 399 545 378T499 340Q487 329 455 299T387 233T326 164T300 114Q300 104 322 80T353 47Q329 33 285 9T213 -16Q176 -16 149 1T121 60Z" />
<glyph unicode="y" glyph-name="y" horiz-adv-x="1178" d="M182 -417Q142 -417 93 -412T-1 -389T-76 -340T-106 -255Q-106 -244 -100 -213T-84 -162Q-28 -207 56 -221T220 -235Q330 -235 427 -207T599 -112Q656 -60 711 17Q635 49 594 122T520 301T431 535Q411
583 375 655T290 801T187 926T72 983Q87 1015 113 1051T173 1112T243 1138Q293 1138 346 1083T452 936T553 732T644 504T719 287T772 114Q829 212 876 321T961 536T1025 732Q1048 809 1061 892T1025 1048Q1053 1077 1094 1105T1177 1133Q1219 1133 1236 1109T1253
1046Q1253 971 1222 878T1163 713Q1107 571 1034 414T869 107T659 -163Q599 -224 523 -282T359 -379T182 -417Z" />
<glyph unicode="z" glyph-name="z" horiz-adv-x="1273" d="M1283 985Q1198 975 1102 917T907 770T711 577Q622 480 539 379T375 172Q511 189 647 201T921 214Q962 214 1015 210T1116 189T1186 131Q1202 103 1206 60T1212 -15Q1067 12 920 21T626 30Q535 30 445
28T264 25Q243 1 218 -15T159 -32Q126 -32 100 -13T56 32Q182 196 317 351T591 658Q636 707 681 755T772 853Q786 868 800 885T829 920Q741 907 661 900T491 893Q457 893 408 896T312 911T233 951T201 1028Q201 1056 209 1084T237 1132Q354 1095 474 1084T717 1073T960
1066Q998 1100 1042 1121T1138 1143Q1206 1143 1241 1095T1283 985Z" />
<glyph unicode="{" glyph-name="braceleft" horiz-adv-x="1147" d="M996 -10Q999 -13 999 -20Q999 -90 960 -129T859 -185T734 -207T619 -211Q577 -211 525 -210T424 -198T344 -155T312 -63Q312 10 334 78T386 211T437 342T460 475Q460 534 430 579T359 663L274
643Q260 666 251 691T233 741Q311 775 387 825T513 947T563 1113Q563 1161 554 1206T530 1297Q521 1327 513 1358T505 1420Q495 1484 527 1522T617 1580T747 1608T890 1618T1017 1624Q1076 1629 1135 1630T1252 1631Q1252 1528 1181 1475T1014 1422Q869 1422 743
1482Q734 1460 729 1416T720 1327T715 1255Q709 1159 688 1054T617 860T471 722Q535 680 561 618T588 481Q588 399 566 321T521 164T498 3Q498 -14 503 -31T516 -64Q636 -52 757 -45T996 -10Z" />
<glyph unicode="|" glyph-name="bar" horiz-adv-x="617" d="M341 -213Q283 -213 255 -176T218 -86T209 10Q209 80 219 149T243 286Q273 442 306 597T369 909Q388 1006 403 1103T418 1300Q418 1363 409 1426T371 1547Q395 1566 432 1587T501 1609Q544 1609 564
1581T591 1513T598 1441Q598 1387 591 1334T573 1227Q538 1045 496 864T418 501Q402 419 390 336T377 168Q377 98 391 25T455 -103Q442 -136 412 -174T341 -213Z" />
<glyph unicode="}" glyph-name="braceright" horiz-adv-x="871" d="M605 91Q605 63 603 34T595 -23Q574 -118 528 -157T415 -203T265 -210Q234 -210 184 -208T82 -195T-4 -159T-39 -89Q-39 -67 -33 -46T-18 -4Q76 -30 173 -37T368 -45Q406 -29 420 19T437 137T443
287T462 448T517 599T634 719Q567 761 544 833T520 979Q520 1081 538 1184T585 1385Q590 1400 596 1415T602 1446Q602 1456 602 1467T601 1479Q578 1467 529 1454T425 1431T332 1422Q265 1422 215 1457T164 1566Q164 1600 173 1631Q228 1631 282 1628T391 1623Q419
1622 469 1621T577 1613T688 1594T775 1555T809 1489Q809 1449 786 1399T734 1290T681 1169T658 1039Q658 933 719 860T870 741L807 645L722 665Q675 618 644 584T598 507T583 392Q583 316 594 242T605 91Z" />
<glyph unicode="~" glyph-name="asciitilde" horiz-adv-x="1382" d="M304 619Q281 588 269 600T256 639Q256 706 296 761T397 849T522 883Q584 883 661 857T797 807Q880 776 943 767T1094 758Q1138 758 1174 773T1229 831Q1253 863 1265 851T1278 811Q1278 744
1238 689T1137 601T1011 568Q974 568 924 581T823 612T737 643Q653 675 592 684T441 693Q397 693 360 678T304 619ZM1223 882Q1217 881 1214 881T1223 882Z" />
<glyph unicode="&#xa0;" glyph-name="nbspace" horiz-adv-x="691" />
<glyph unicode="&#xa1;" glyph-name="exclamdown" horiz-adv-x="786" d="M441 885Q389 885 350 905T310 986Q310 1026 324 1065T353 1140Q391 1153 430 1162T510 1172Q563 1172 598 1154T634 1074Q634 1034 625 995T605 917Q565 904 524 895T441 885ZM323 -362Q240
-362 204 -316T167 -191Q167 -123 184 -41T226 122T270 270Q283 311 304 381T343 519T361 626Q361 650 354 673T337 719Q359 729 387 739T439 749Q471 749 480 724T489 673Q489 607 473 543T444 413Q425 321 413 227T401 38Q401 -53 420 -148T500 -314Q461 -331
414 -346T323 -362Z" />
<glyph unicode="&#xa2;" glyph-name="cent" horiz-adv-x="1382" d="M1085 1353Q1123 1353 1176 1348T1282 1327T1370 1280T1405 1198Q1405 1185 1400 1156T1384 1100T1360 1069Q1316 1106 1244 1134T1094 1178T954 1198Q951 1153 950 1109T947 1024Q943 948 940
828T933 569T919 304Q929 304 940 304Q996 304 1075 313T1227 346T1338 414Q1334 398 1331 381T1322 347Q1308 291 1262 254T1154 196T1026 165T904 153Q897 100 888 56T868 -18Q846 -80 804 -127T688 -175Q676 -175 666 -153T650 -106T642 -71Q722 -27 760 25Q780
53 793 85T814 153Q703 157 598 184T408 267T274 412T224 630Q224 748 270 857T394 1057T571 1210Q696 1289 861 1327Q866 1411 883 1491T936 1622T1034 1674Q1053 1674 1080 1653T1121 1618Q1053 1570 1019 1499T969 1346Q1028 1353 1085 1353ZM420 729Q420 600
476 513T627 376T834 311Q835 330 836 348T839 383Q852 550 855 717T859 1051Q859 1074 858 1111T857 1195Q735 1181 636 1121T479 962T420 729Z" />
<glyph unicode="&#xa3;" glyph-name="sterling" horiz-adv-x="1382" d="M271 836Q306 836 341 835T413 832Q411 864 410 896T409 960Q409 1120 473 1244T656 1439T938 1510Q993 1510 1068 1500T1215 1463T1334 1389T1382 1268Q1382 1213 1353 1161T1262 1105Q1257
1200 1203 1253T1069 1328T908 1350Q791 1350 727 1320T636 1235T602 1102T594 928Q593 901 593 874T592 820Q708 813 823 812T1049 831Q1057 815 1062 797T1067 761Q1067 709 1027 684T935 652T843 645Q788 645 723 648T588 653Q587 621 586 589T582 523Q575 419
551 339T467 173Q456 157 444 142Q597 187 755 211T1072 235Q1139 235 1202 226T1307 178T1349 54Q1349 21 1345 -6Q1235 20 1122 25T896 30Q750 30 604 26T313 1Q309 -2 305 -6Q288 -21 271 -36T233 -64Q194 -48 170 -15T130 61Q213 121 280 185T388 331T428 519Q428
554 427 588T424 657Q363 657 308 654T208 642Q175 669 175 715Q175 759 198 797T271 836Z" />
<glyph unicode="&#xa4;" glyph-name="currency" horiz-adv-x="1382" d="M1113 260Q1076 260 1039 288T970 354T919 417Q915 415 912 412T903 407Q863 384 818 373T730 362Q651 362 593 402Q590 404 587 407T580 412Q540 382 504 345T449 262Q412 266 373 297T341
370Q347 400 377 431T443 490T505 536Q484 623 504 719Q515 773 537 827T595 929Q561 982 520 1031T417 1104L418 1112Q422 1145 453 1182T522 1220Q557 1220 593 1185T659 1106T707 1036Q712 1038 715 1041T723 1046Q764 1069 808 1080T896 1091Q977 1091 1034
1049Q1037 1047 1039 1045T1046 1040Q1087 1072 1119 1112T1162 1201Q1163 1206 1163 1210T1165 1218Q1214 1218 1259 1193T1294 1109Q1287 1073 1257 1036T1189 967T1120 912Q1142 826 1122 732Q1100 620 1033 526Q1066 480 1109 440T1219 396Q1218 389 1218 382T1215
366Q1207 327 1183 294T1113 260ZM777 483Q834 483 872 523T932 619T964 717Q974 768 971 826T939 926T848 968Q792 968 753 928T692 833T660 734Q650 683 654 625T686 525T777 483Z" />
<glyph unicode="&#xa5;" glyph-name="yen" horiz-adv-x="1382" d="M868 -13Q809 -13 777 15T733 89T721 185Q721 202 722 219Q638 219 554 218T386 212Q349 238 349 293Q349 347 380 376T460 406Q532 406 603 403T747 396Q761 459 782 521Q779 533 776 543Q735
543 699 543Q626 543 553 541T406 533Q369 559 369 614Q369 664 397 696T480 729Q541 729 602 727T724 722Q691 826 648 935T551 1139T430 1294T286 1358Q302 1391 329 1427T392 1488T468 1513Q526 1513 580 1455T682 1304T772 1102T847 891T903 714Q919 713 934
713Q990 778 1065 862T1212 1035T1330 1199T1377 1325Q1377 1351 1365 1377T1339 1424Q1358 1439 1389 1459T1454 1495T1511 1511Q1545 1511 1556 1487T1568 1433Q1568 1372 1524 1292T1414 1125T1276 957T1149 813Q1128 788 1105 762T1061 709Q1096 708 1128 708Q1222
708 1272 712T1363 727Q1378 720 1381 706T1385 679Q1385 610 1342 581T1241 545T1136 538Q1092 538 1048 538T960 540Q946 506 937 469T924 388Q955 387 986 387T1049 386Q1123 386 1196 390T1342 406Q1357 399 1361 384T1365 355Q1365 288 1322 259T1221 224T1116
217Q1071 217 1027 217T937 217Q949 177 972 141T1032 75Q1004 51 955 19T868 -13Z" />
<glyph unicode="&#xa6;" glyph-name="brokenbar" horiz-adv-x="617" d="M510 907H505Q425 907 402 946T393 1061Q409 1138 422 1229T436 1408T410 1564Q459 1611 520 1611Q571 1611 590 1566T609 1457T598 1330T581 1232Q565 1151 547 1070T510 907ZM315 -218Q262
-218 237 -178T206 -74T205 61T222 194T240 292Q250 342 260 391T281 489Q283 497 285 505T288 522Q332 522 362 502T413 449Q402 385 389 304T370 138T374 -21T418 -145Q405 -178 377 -198T315 -218Z" />
<glyph unicode="&#xa7;" glyph-name="section" horiz-adv-x="1382" d="M1253 409L571 742Q503 776 431 819T310 924T261 1074Q261 1180 311 1255T443 1381T625 1460T823 1501T1004 1513Q1054 1513 1115 1503T1233 1469T1326 1403T1363 1296Q1363 1274 1356 1236T1334
1165T1291 1126Q1288 1197 1239 1240T1118 1307T972 1338T844 1346Q797 1346 726 1338T585 1309T468 1247T421 1142Q421 1100 450 1064T523 998T612 945T689 905Q781 858 872 812T1054 716Q1129 676 1171 639T1232 549T1253 409ZM579 -455Q535 -455 463 -450T309
-432T155 -392T37 -323T-9 -217Q-9 -183 5 -138T54 -78Q80 -153 150 -197T311 -264T492 -294T649 -301Q687 -301 746 -297T871 -281T995 -247T1090 -188T1127 -100Q1127 -41 1075 16T946 122T795 210T672 270Q619 295 554 326T433 398T350 494Q331 532 325 574T318
658L999 324Q1067 291 1138 246T1257 139T1305 -11Q1305 -113 1256 -187T1127 -313T950 -396T756 -441T579 -455Z" />
<glyph unicode="&#xa8;" glyph-name="dieresis" horiz-adv-x="1382" d="M224 1215Q172 1215 136 1234T99 1313Q99 1355 110 1395T136 1474Q174 1485 214 1493T294 1502Q346 1502 388 1481T430 1399Q430 1356 413 1318T377 1242Q340 1231 302 1223T224 1215ZM1064
1215Q1012 1215 976 1233T940 1312Q940 1353 951 1393T973 1473Q1013 1484 1053 1493T1135 1502Q1188 1502 1229 1481T1271 1398Q1271 1355 1254 1316T1215 1241Q1178 1230 1140 1223T1064 1215Z" />
<glyph unicode="&#xa9;" glyph-name="copyright" horiz-adv-x="1795" d="M850 -57Q727 -57 608 -18T391 104T235 319T176 635Q176 780 217 916T325 1165Q423 1331 560 1434T852 1586T1163 1634Q1286 1634 1405 1595T1622 1472T1778 1258T1837 941Q1837 796 1796
659T1688 409Q1590 243 1454 141T1161 -9T850 -57ZM940 81Q1065 81 1190 121T1424 250T1614 480Q1660 561 1692 664T1725 871Q1725 1067 1666 1189T1508 1378T1295 1469T1066 1494Q936 1494 808 1450T569 1310T380 1060Q339 978 313 884T287 688Q287 498 347 379T504
194T716 105T940 81ZM986 184Q882 184 799 236T668 395T620 670Q620 821 656 953T757 1187T910 1345T1100 1402Q1132 1402 1174 1394T1247 1365T1279 1300Q1279 1279 1276 1258T1267 1217Q1227 1260 1161 1269T1040 1279Q909 1279 822 1149T735 764Q735 593 779
493T894 349T1047 305Q1098 305 1157 312T1260 351Q1259 309 1230 278T1156 225T1066 194T986 184Z" />
<glyph unicode="&#xaa;" glyph-name="ordfeminine" horiz-adv-x="1332" d="M592 776Q532 776 499 814T453 910T442 1029T453 1136Q464 1192 491 1253T559 1369T656 1457T779 1491Q812 1491 839 1478T889 1445Q895 1441 901 1440T911 1434Q924 1480 971 1480Q1012
1480 1036 1448Q1024 1418 1012 1389T994 1327Q979 1253 969 1161T964 980T1002 829Q987 810 966 797T921 783Q886 783 868 811T844 882T838 965T840 1033H831Q817 1005 792 962T733 877T664 805T592 776ZM632 900Q659 900 690 937T751 1026T802 1126T833 1198Q843
1223 845 1252T852 1308T880 1348L892 1356Q888 1359 882 1359T871 1363Q850 1378 828 1391T777 1404Q719 1404 678 1362T613 1263T579 1161Q575 1139 572 1097T571 1009T588 932T632 900Z" />
<glyph unicode="&#xab;" glyph-name="guillemetleft" horiz-adv-x="1592" d="M677 170Q614 170 583 192T540 251T525 332T513 422Q504 471 469 503T384 555T283 586T191 605Q238 615 303 632T427 678T513 748Q539 787 550 837T578 934T633 1011T749 1042Q800 1042
855 1026T960 993Q833 949 770 907T684 824T653 746T633 674T573 609Q599 591 614 545T645 441T688 331T763 247T894 222Q845 208 786 189T677 170ZM1248 170Q1185 170 1154 192T1111 251T1096 332T1084 422Q1075 471 1040 503T955 555T854 586T762 605Q809 615
874 632T998 678T1084 748Q1110 787 1121 837T1149 934T1204 1011T1320 1042Q1371 1042 1426 1026T1531 993Q1404 949 1341 907T1255 824T1224 746T1204 674T1144 609Q1170 591 1185 545T1216 441T1259 331T1334 247T1465 222Q1416 208 1357 189T1248 170Z" />
<glyph unicode="&#xac;" glyph-name="logicalnot" horiz-adv-x="1382" d="M1259 299Q1186 299 1159 345T1132 456Q1132 501 1139 546T1162 633Q1144 634 1125 634T1086 634Q887 634 689 638T291 643Q265 643 238 642T185 636Q165 649 157 671T149 715Q149 768
179 805T265 843Q313 843 361 840T458 835Q574 830 690 827T923 823Q985 823 1048 824T1173 827Q1206 828 1238 829T1303 837Q1299 770 1291 703T1283 569Q1283 507 1320 459T1406 377Q1391 366 1363 348T1306 314T1259 299Z" />
<glyph unicode="&#xad;" glyph-name="softhyphen" horiz-adv-x="973" d="M151 557Q130 578 121 607T112 664Q112 721 146 749T234 777Q321 777 408 768T582 758Q617 758 669 760T753 776Q799 670 740 618T548 565Q484 565 421 568T295 572Q264 572 222 570T151 557Z" />
<glyph unicode="&#xae;" glyph-name="registered" horiz-adv-x="1382" d="M740 357Q611 357 525 410T391 554T333 757T345 985Q371 1113 429 1230T575 1438T778 1583T1033 1637Q1162 1637 1248 1583T1382 1439T1441 1236T1429 1008Q1404 880 1345 763T1198 555T995
410T740 357ZM799 454Q904 454 988 505T1136 637T1239 814T1298 998Q1301 1017 1304 1035T1308 1072Q1318 1199 1292 1304T1190 1474T971 1538Q866 1538 782 1488T636 1356T534 1179T476 996Q468 955 465 920Q456 794 481 688T581 518T799 454ZM1013 604Q974 604
942 642T885 736T841 844T809 926Q795 922 780 918T751 909L745 879Q733 821 727 755T757 645Q743 629 725 618T686 606Q649 606 634 631T617 693T620 767T631 831Q645 896 660 961T688 1092Q702 1161 710 1231T706 1366Q756 1376 807 1382T908 1388Q976 1388 1029
1369T1109 1304T1120 1183Q1106 1112 1050 1059T928 973Q922 970 916 967T903 961Q920 920 944 859T1006 748T1094 693L1093 689Q1087 661 1067 633T1013 604ZM766 983Q769 984 772 985T778 987Q792 991 806 995T835 1004Q895 1026 948 1067T1014 1172Q1029 1246
991 1284T882 1322Q857 1322 830 1319Q827 1288 822 1257T811 1194Q801 1142 789 1089T766 983Z" />
<glyph unicode="&#xb0;" glyph-name="degree" horiz-adv-x="605" d="M427 977Q348 977 294 1016T213 1120T186 1257Q186 1357 234 1447T365 1596T552 1654Q632 1654 685 1615T764 1513T791 1377Q791 1278 744 1187T614 1036T427 977ZM466 1114Q529 1114 565 1157T616
1260T632 1370Q632 1435 602 1476T502 1518Q440 1518 404 1476T352 1374T337 1264Q337 1200 366 1157T466 1114Z" />
<glyph unicode="&#xb1;" glyph-name="plusminus" horiz-adv-x="1382" d="M771 349Q710 349 692 396T673 493Q673 536 680 577T694 660Q674 661 654 661T613 662Q569 662 521 657T431 633Q403 679 403 726Q403 775 434 797T511 820Q565 820 619 816T727 810Q735
856 744 901T754 993Q754 1017 751 1042T737 1089Q779 1120 832 1120Q880 1120 895 1086T911 1011Q911 958 899 907T876 803Q914 803 966 805T1070 815T1154 839Q1176 810 1176 770Q1176 713 1134 689T1035 660T937 655Q915 655 893 656T848 657Q842 626 838 594T833
530Q833 495 842 462T874 400Q855 379 828 364T771 349ZM390 -48Q381 -24 373 -5T364 42Q364 92 394 116T472 140Q571 140 669 132T867 123Q901 123 947 125T1038 136T1114 158Q1136 129 1136 89Q1136 36 1101 12T1017 -18T928 -24Q840 -24 751 -22T573 -19Q528
-19 480 -24T390 -48Z" />
<glyph unicode="&#xb2;" glyph-name="twosuperior" horiz-adv-x="839" d="M587 898Q623 898 657 894T713 871T735 806Q735 775 727 740Q670 763 609 769T487 776Q444 776 402 774T318 762Q298 744 276 744Q252 744 235 760T210 798Q245 834 299 890T412 1013T523
1149T607 1284T640 1399Q640 1448 609 1477T529 1506Q468 1506 437 1459T395 1359Q364 1370 336 1389T307 1446Q307 1504 347 1538T444 1588T546 1603Q604 1603 658 1587T747 1531T782 1423Q782 1353 745 1278T652 1130T535 991T429 878Q506 898 587 898Z" />
<glyph unicode="&#xb3;" glyph-name="threesuperior" horiz-adv-x="839" d="M392 744Q356 744 312 759T236 803T203 876Q203 920 236 939T303 972Q310 922 338 883T422 844Q494 844 545 897T597 1022Q597 1076 562 1113T472 1150Q441 1150 412 1143T351 1133Q352
1149 353 1165T358 1198Q363 1219 369 1222T394 1231Q442 1244 492 1260T577 1310T612 1404Q612 1448 583 1477T509 1506Q457 1506 425 1471T379 1388Q351 1398 324 1416T296 1468Q296 1521 336 1550T431 1591T526 1603Q580 1603 631 1586T717 1531T751 1430Q751
1360 712 1307T617 1215Q673 1198 707 1153T741 1048Q741 956 690 888T558 782T392 744Z" />
<glyph unicode="&#xb4;" glyph-name="acute" horiz-adv-x="1382" d="M299 1222L251 1301Q308 1331 389 1372T546 1462T661 1557Q693 1561 732 1561Q761 1561 796 1549T832 1500Q806 1484 751 1452T628 1382T493 1309T374 1249T299 1222Z" />
<glyph unicode="&#xb5;" glyph-name="micro" horiz-adv-x="1646" d="M541 -461Q485 -461 457 -428T419 -347T410 -255Q410 -241 410 -228T412 -201Q417 -129 428 -57T451 86Q474 219 501 363T548 651T568 929Q568 971 564 1019T543 1106Q593 1145 659 1145Q719
1145 742 1110T766 1019Q766 994 763 969T754 918Q731 800 708 681T660 443Q651 399 643 354T635 263Q635 222 649 179T716 136Q758 136 807 185T906 316T1002 494T1084 689T1142 867T1163 995Q1163 1024 1159 1051T1145 1106Q1196 1145 1262 1145Q1324 1145 1346
1108T1369 1015Q1369 982 1364 949T1352 882Q1326 749 1297 619T1267 351Q1267 275 1279 197T1329 51Q1307 26 1276 7T1210 -12Q1165 -12 1139 19T1101 96T1085 190T1081 268Q1081 345 1093 419T1117 570Q1114 563 1111 557T1104 543Q1083 500 1048 430T968 280T870
132T763 18T652 -27Q617 -27 598 -2Q594 -41 591 -80T587 -159Q587 -223 601 -287T660 -400Q638 -425 607 -443T541 -461Z" />
<glyph unicode="&#xb6;" glyph-name="paragraph" horiz-adv-x="1382" d="M713 -347Q676 -347 646 -328T614 -269Q677 -248 712 -196T766 -81T795 33Q825 183 850 332T898 631Q879 628 862 627T826 626Q706 626 618 681T490 831T474 1049Q503 1194 596 1298T819
1458T1085 1514Q1134 1514 1182 1506T1266 1470Q1208 1400 1183 1307T1142 1134Q1126 1057 1113 981T1085 827Q1093 832 1101 838T1117 850Q1157 881 1191 918T1245 1000Q1279 989 1309 965T1331 896Q1323 857 1281 816T1186 740T1088 684Q1080 680 1073 677T1058
670Q1030 491 1002 312T939 -47Q930 -90 916 -142T876 -240T812 -317T713 -347ZM869 747Q893 747 915 750Q933 869 949 989T989 1228Q999 1277 1017 1327T1073 1417Q1063 1416 1054 1416T1034 1414Q898 1396 791 1311T654 1080Q638 999 656 923T727 797T869 747Z"
/>
<glyph unicode="&#xb8;" glyph-name="cedilla" horiz-adv-x="1382" d="M443 -452Q412 -452 371 -442T300 -408T269 -346Q269 -322 284 -287T327 -248Q331 -278 358 -295T419 -320T477 -327Q499 -327 538 -321T610 -298T643 -250Q643 -227 618 -214T557 -194T488
-184T440 -180Q433 -179 412 -179T390 -170Q390 -131 415 -81T472 17T525 98H583Q561 56 541 13T497 -71Q533 -73 578 -78T666 -98T736 -142T764 -221Q764 -304 713 -355T588 -429T443 -452Z" />
<glyph unicode="&#xb9;" glyph-name="onesuperior" horiz-adv-x="839" d="M493 752Q451 752 433 779T414 846T418 927T430 998Q444 1066 460 1134T489 1271Q497 1310 503 1349T512 1428Q508 1424 505 1420T496 1410Q471 1382 437 1356T370 1329Q331 1329 311 1358T278
1417Q324 1428 366 1458T446 1521T518 1579T580 1603Q628 1603 642 1569T652 1490T640 1410Q623 1321 603 1232T565 1053Q553 991 548 919T582 801Q565 782 542 767T493 752Z" />
<glyph unicode="&#xba;" glyph-name="ordmasculine" horiz-adv-x="1332" d="M692 772Q599 772 550 826T487 962T490 1125Q507 1207 553 1291T672 1433T840 1491Q933 1491 982 1437T1043 1301T1040 1138Q1024 1056 978 972T860 830T692 772ZM745 866Q798 866 831
906T883 999T910 1092Q919 1136 921 1188T912 1288T871 1366T783 1397Q731 1397 698 1357T647 1264T621 1173Q612 1130 610 1077T618 976T659 897T745 866Z" />
<glyph unicode="&#xbb;" glyph-name="guillemetright" horiz-adv-x="1592" d="M1047 170Q997 170 938 189T830 222Q912 215 960 246T1036 330T1078 440T1109 544T1151 609Q1105 639 1092 673T1071 745T1041 823T954 906T764 993Q813 1009 868 1025T975 1042Q1053
1042 1091 1012T1145 934T1173 837T1211 748Q1238 707 1297 679T1421 633T1533 605Q1493 598 1442 587T1341 555T1256 503T1211 422Q1203 377 1200 333T1185 252T1142 193T1047 170ZM476 170Q426 170 367 189T259 222Q341 215 389 246T465 330T507 440T538 544T580
609Q534 639 521 673T500 745T470 823T383 906T193 993Q242 1009 297 1025T404 1042Q482 1042 520 1012T574 934T602 837T640 748Q667 707 726 679T850 633T962 605Q922 598 871 587T770 555T685 503T640 422Q632 377 629 333T614 252T571 193T476 170Z" />
<glyph unicode="&#xbc;" glyph-name="onequarter" horiz-adv-x="2011" d="M493 752Q451 752 433 779T414 846T418 927T430 998Q444 1066 460 1134T489 1271Q497 1310 503 1349T512 1428Q508 1424 505 1420T496 1410Q471 1382 437 1356T370 1329Q331 1329 311 1358T278
1417Q324 1428 366 1458T446 1521T518 1579T580 1603Q628 1603 642 1569T652 1490T640 1410Q623 1321 603 1232T565 1053Q553 991 548 919T582 801Q565 782 542 767T493 752ZM622 -45Q540 -45 540 41Q540 106 574 183T659 340T764 489T857 610Q933 708 1021 827T1186
1072T1305 1313Q1308 1321 1317 1348T1326 1381Q1326 1404 1326 1427T1323 1473Q1349 1485 1381 1497T1442 1510Q1513 1510 1513 1435Q1513 1377 1479 1305T1395 1158T1294 1018T1206 905Q1153 836 1087 750T954 570T834 385T750 214Q747 207 738 181T729 148Q729
121 743 86T775 30Q759 21 729 3T669 -30T622 -45ZM1586 -45Q1537 -45 1521 -15T1507 58T1517 138H1456Q1420 138 1384 137T1311 130Q1304 129 1297 128T1282 125Q1278 124 1275 124T1268 122Q1247 103 1226 103Q1200 103 1183 120T1158 158Q1222 224 1286 311T1399
492T1465 670Q1470 693 1470 716T1462 760Q1482 777 1507 791T1558 805Q1606 805 1612 769T1610 695Q1595 621 1553 536T1458 370T1355 224Q1359 225 1362 225T1370 227Q1394 232 1414 235Q1443 240 1473 243T1532 248H1546L1549 262Q1562 323 1540 379Q1560 391
1581 398T1623 406Q1680 406 1688 368T1688 283Q1686 271 1683 259T1676 235Q1683 232 1690 228Q1724 209 1723 174T1719 98Q1689 111 1661 119Q1658 120 1655 120T1649 122Q1642 79 1646 54T1679 0Q1660 -18 1636 -31T1586 -45Z" />
<glyph unicode="&#xbd;" glyph-name="onehalf" horiz-adv-x="2011" d="M493 752Q451 752 433 779T414 846T418 927T430 998Q444 1066 460 1134T489 1271Q497 1310 503 1349T512 1428Q508 1424 505 1420T496 1410Q471 1382 437 1356T370 1329Q331 1329 311 1358T278
1417Q324 1428 366 1458T446 1521T518 1579T580 1603Q628 1603 642 1569T652 1490T640 1410Q623 1321 603 1232T565 1053Q553 991 548 919T582 801Q565 782 542 767T493 752ZM612 -45Q530 -45 530 41Q530 106 564 183T649 340T754 489T847 610Q923 708 1011 827T1176
1072T1295 1313Q1298 1321 1307 1348T1316 1381Q1316 1404 1316 1427T1313 1473Q1339 1485 1371 1497T1432 1510Q1503 1510 1503 1435Q1503 1377 1469 1305T1385 1158T1284 1018T1196 905Q1143 836 1077 750T944 570T824 385T740 214Q737 207 728 181T719 148Q719
121 733 86T765 30Q749 21 719 3T659 -30T612 -45ZM1577 158Q1613 158 1647 154T1703 131T1725 66Q1725 35 1717 0Q1660 23 1599 29T1477 36Q1434 36 1392 34T1308 22Q1288 4 1266 4Q1242 4 1225 20T1200 58Q1235 94 1289 150T1402 273T1513 409T1597 544T1630
659Q1630 708 1599 737T1519 766Q1458 766 1427 719T1385 619Q1354 630 1326 649T1297 706Q1297 764 1337 798T1434 848T1536 863Q1594 863 1648 847T1737 791T1772 683Q1772 613 1735 538T1642 390T1525 251T1419 138Q1496 158 1577 158Z" />
<glyph unicode="&#xbe;" glyph-name="threequarters" horiz-adv-x="2011" d="M392 744Q356 744 312 759T236 803T203 876Q203 920 236 939T303 972Q310 922 338 883T422 844Q494 844 545 897T597 1022Q597 1076 562 1113T472 1150Q441 1150 412 1143T351 1133Q352
1149 353 1165T358 1198Q363 1219 369 1222T394 1231Q442 1244 492 1260T577 1310T612 1404Q612 1448 583 1477T509 1506Q457 1506 425 1471T379 1388Q351 1398 324 1416T296 1468Q296 1521 336 1550T431 1591T526 1603Q580 1603 631 1586T717 1531T751 1430Q751
1360 712 1307T617 1215Q673 1198 707 1153T741 1048Q741 956 690 888T558 782T392 744ZM632 -45Q550 -45 550 41Q550 106 584 183T669 340T774 489T867 610Q943 708 1031 827T1196 1072T1315 1313Q1318 1321 1327 1348T1336 1381Q1336 1404 1336 1427T1333 1473Q1359
1485 1391 1497T1452 1510Q1523 1510 1523 1435Q1523 1377 1489 1305T1405 1158T1304 1018T1216 905Q1163 836 1097 750T964 570T844 385T760 214Q757 207 748 181T739 148Q739 121 753 86T785 30Q769 21 739 3T679 -30T632 -45ZM1551 -50Q1502 -50 1486 -20T1472
53T1482 133H1421Q1385 133 1349 132T1276 125Q1269 124 1262 123T1247 120Q1243 119 1240 119T1233 117Q1212 98 1191 98Q1165 98 1148 115T1123 153Q1187 219 1251 306T1364 487T1430 665Q1435 688 1435 711T1427 755Q1447 772 1472 786T1523 800Q1571 800 1577
764T1575 690Q1560 616 1518 531T1423 365T1320 219Q1324 220 1327 220T1335 222Q1359 227 1379 230Q1408 235 1438 238T1497 243H1511L1514 257Q1527 318 1505 374Q1525 386 1546 393T1588 401Q1645 401 1653 363T1653 278Q1651 266 1648 254T1641 230Q1648 227
1655 223Q1689 204 1688 169T1684 93Q1654 106 1626 114Q1623 115 1620 115T1614 117Q1607 74 1611 49T1644 -5Q1625 -23 1601 -36T1551 -50Z" />
<glyph unicode="&#xbf;" glyph-name="questiondown" horiz-adv-x="1135" d="M703 887Q651 887 610 906T568 988Q568 1027 581 1067T610 1142Q648 1155 687 1164T767 1174Q820 1174 856 1156T892 1076Q892 1036 883 997T863 919Q825 906 785 897T703 887ZM647 -361Q584
-361 504 -353T342 -323T191 -263T79 -167T36 -25Q36 53 76 135T183 297T326 450T479 585T613 690Q619 694 641 711T686 743T710 759Q730 759 758 730T798 685Q754 650 687 591T545 460T406 310T299 161T258 32Q258 3 268 -20T294 -67Q331 -119 396 -148T535 -188T667
-200Q724 -200 789 -194T912 -166T1006 -100T1043 19Q1043 28 1043 37T1041 56Q1097 47 1135 11T1173 -85Q1173 -152 1135 -200T1037 -279T905 -328T765 -353T647 -361Z" />
<glyph unicode="&#xc0;" glyph-name="Agrave" horiz-adv-x="1560" d="M243 179Q243 149 257 122T291 74Q258 46 207 18T106 -11Q26 -11 26 75Q26 141 60 218T146 373T252 521T346 643Q399 713 452 783T555 924Q598 984 654 1063T752 1227T795 1387Q795 1409 790
1430T777 1471Q807 1485 846 1498T918 1511Q1010 1511 1062 1478T1160 1366Q1201 1297 1222 1208T1254 1027T1277 856Q1290 766 1308 664T1356 464T1431 287Q1470 220 1536 172T1670 88Q1647 56 1608 23T1526 -11Q1415 -11 1354 37T1242 178Q1209 237 1187 297T1151
420Q1043 412 934 410T717 408Q622 408 528 410T340 420Q298 349 271 287T243 179ZM774 539Q862 539 950 538T1128 535Q1109 651 1097 768T1059 1001T976 1226Q957 1262 930 1300Q874 1179 799 1070T649 854Q613 803 549 719T420 542Q507 540 595 540T774 539ZM1261
1504Q1233 1506 1169 1529T1028 1585T887 1648T794 1694Q774 1705 757 1719T740 1760Q740 1806 774 1824T848 1842Q887 1842 919 1838Q960 1789 1032 1745T1182 1661T1317 1589Q1302 1568 1287 1548T1261 1504Z" />
<glyph unicode="&#xc1;" glyph-name="Aacute" horiz-adv-x="1560" d="M243 179Q243 149 257 122T291 74Q258 46 207 18T106 -11Q26 -11 26 75Q26 141 60 218T146 373T252 521T346 643Q399 713 452 783T555 924Q598 984 654 1063T752 1227T795 1387Q795 1409 790
1430T777 1471Q807 1485 846 1498T918 1511Q1010 1511 1062 1478T1160 1366Q1201 1297 1222 1208T1254 1027T1277 856Q1290 766 1308 664T1356 464T1431 287Q1470 220 1536 172T1670 88Q1647 56 1608 23T1526 -11Q1415 -11 1354 37T1242 178Q1209 237 1187 297T1151
420Q1043 412 934 410T717 408Q622 408 528 410T340 420Q298 349 271 287T243 179ZM774 539Q862 539 950 538T1128 535Q1109 651 1097 768T1059 1001T976 1226Q957 1262 930 1300Q874 1179 799 1070T649 854Q613 803 549 719T420 542Q507 540 595 540T774 539ZM777
1506L730 1585Q786 1614 867 1656T1023 1746T1136 1841Q1153 1843 1170 1843T1205 1844Q1234 1844 1268 1833T1303 1784Q1303 1751 1287 1734T1245 1700Q1225 1688 1178 1666T1071 1616T951 1565T844 1524T777 1506Z" />
<glyph unicode="&#xc2;" glyph-name="Acircumflex" horiz-adv-x="1560" d="M243 179Q243 149 257 122T291 74Q258 46 207 18T106 -11Q26 -11 26 75Q26 141 60 218T146 373T252 521T346 643Q399 713 452 783T555 924Q598 984 654 1063T752 1227T795 1387Q795 1409
790 1430T777 1471Q807 1485 846 1498T918 1511Q1010 1511 1062 1478T1160 1366Q1201 1297 1222 1208T1254 1027T1277 856Q1290 766 1308 664T1356 464T1431 287Q1470 220 1536 172T1670 88Q1647 56 1608 23T1526 -11Q1415 -11 1354 37T1242 178Q1209 237 1187
297T1151 420Q1043 412 934 410T717 408Q622 408 528 410T340 420Q298 349 271 287T243 179ZM774 539Q862 539 950 538T1128 535Q1109 651 1097 768T1059 1001T976 1226Q957 1262 930 1300Q874 1179 799 1070T649 854Q613 803 549 719T420 542Q507 540 595 540T774
539ZM612 1505Q603 1527 589 1545T561 1582Q621 1614 693 1654T830 1741T938 1841Q969 1841 1023 1835T1103 1815Q1122 1776 1167 1733T1262 1653T1350 1590Q1336 1570 1325 1548T1300 1505Q1263 1513 1207 1543T1095 1607T1001 1660Q968 1651 913 1626T796 1574T685
1526T612 1505Z" />
<glyph unicode="&#xc3;" glyph-name="Atilde" horiz-adv-x="1560" d="M243 179Q243 149 257 122T291 74Q258 46 207 18T106 -11Q26 -11 26 75Q26 141 60 218T146 373T252 521T346 643Q399 713 452 783T555 924Q598 984 654 1063T752 1227T795 1387Q795 1409 790
1430T777 1471Q807 1485 846 1498T918 1511Q1010 1511 1062 1478T1160 1366Q1201 1297 1222 1208T1254 1027T1277 856Q1290 766 1308 664T1356 464T1431 287Q1470 220 1536 172T1670 88Q1647 56 1608 23T1526 -11Q1415 -11 1354 37T1242 178Q1209 237 1187 297T1151
420Q1043 412 934 410T717 408Q622 408 528 410T340 420Q298 349 271 287T243 179ZM774 539Q862 539 950 538T1128 535Q1109 651 1097 768T1059 1001T976 1226Q957 1262 930 1300Q874 1179 799 1070T649 854Q613 803 549 719T420 542Q507 540 595 540T774 539ZM737
1535Q716 1541 707 1558T698 1596Q698 1649 726 1700T801 1786T903 1820Q964 1820 1015 1793T1119 1739T1237 1711Q1296 1711 1335 1734T1386 1819Q1407 1813 1416 1796T1425 1758Q1425 1706 1397 1654T1322 1568T1220 1534Q1160 1534 1109 1561T1005 1616T886
1643Q828 1643 789 1620T737 1535Z" />
<glyph unicode="&#xc4;" glyph-name="Adieresis" horiz-adv-x="1560" d="M243 179Q243 149 257 122T291 74Q258 46 207 18T106 -11Q26 -11 26 75Q26 141 60 218T146 373T252 521T346 643Q399 713 452 783T555 924Q598 984 654 1063T752 1227T795 1387Q795 1409
790 1430T777 1471Q807 1485 846 1498T918 1511Q1010 1511 1062 1478T1160 1366Q1201 1297 1222 1208T1254 1027T1277 856Q1290 766 1308 664T1356 464T1431 287Q1470 220 1536 172T1670 88Q1647 56 1608 23T1526 -11Q1415 -11 1354 37T1242 178Q1209 237 1187
297T1151 420Q1043 412 934 410T717 408Q622 408 528 410T340 420Q298 349 271 287T243 179ZM774 539Q862 539 950 538T1128 535Q1109 651 1097 768T1059 1001T976 1226Q957 1262 930 1300Q874 1179 799 1070T649 854Q613 803 549 719T420 542Q507 540 595 540T774
539ZM722 1534Q678 1534 653 1551T628 1616Q628 1651 636 1685T655 1754Q684 1768 716 1778T782 1788Q826 1788 854 1770T883 1702Q883 1667 871 1633T847 1567Q817 1554 786 1544T722 1534ZM1268 1534Q1225 1534 1200 1551T1175 1615Q1175 1650 1183 1685T1200
1754Q1230 1767 1262 1777T1327 1788Q1371 1788 1400 1769T1429 1701Q1429 1666 1418 1633T1392 1567Q1363 1554 1332 1544T1268 1534Z" />
<glyph unicode="&#xc5;" glyph-name="Aring" horiz-adv-x="1560" d="M243 179Q243 149 257 122T291 74Q258 46 207 18T106 -11Q26 -11 26 75Q26 141 60 218T146 373T252 521T346 643Q399 713 452 783T555 924Q598 984 654 1063T752 1227T795 1387Q795 1409 790
1430T777 1471Q807 1485 846 1498T918 1511Q1010 1511 1062 1478T1160 1366Q1201 1297 1222 1208T1254 1027T1277 856Q1290 766 1308 664T1356 464T1431 287Q1470 220 1536 172T1670 88Q1647 56 1608 23T1526 -11Q1415 -11 1354 37T1242 178Q1209 237 1187 297T1151
420Q1043 412 934 410T717 408Q622 408 528 410T340 420Q298 349 271 287T243 179ZM774 539Q862 539 950 538T1128 535Q1109 651 1097 768T1059 1001T976 1226Q957 1262 930 1300Q874 1179 799 1070T649 854Q613 803 549 719T420 542Q507 540 595 540T774 539ZM1038
1642Q951 1642 905 1706T876 1855Q893 1943 964 2001T1124 2060Q1211 2060 1256 1996T1284 1847Q1267 1759 1197 1701T1038 1642ZM1061 1722Q1105 1722 1126 1765T1154 1842Q1160 1871 1160 1903T1145 1959T1094 1982Q1050 1982 1029 1939T1001 1861Q996 1833 996
1801T1010 1745T1061 1722Z" />
<glyph unicode="&#xc6;" glyph-name="AE" horiz-adv-x="1927" d="M1259 721Q1400 721 1539 734T1811 793Q1809 710 1774 666T1681 603T1554 582T1413 576Q1309 574 1158 576Q1140 494 1127 412T1114 248Q1114 211 1116 181Q1240 176 1363 175T1611 173Q1644 173
1696 173T1807 175T1915 182T1994 196Q1984 96 1940 51T1826 -7T1673 -19Q1605 -19 1509 -15T1318 -2T1157 21Q1105 -15 1048 -15Q966 -15 938 38T909 162Q909 268 932 372T984 579Q851 582 708 587T426 600Q414 586 403 574Q376 542 331 487T239 369T161 246T129
146Q129 126 137 105T156 67Q128 41 86 14T4 -14Q-34 -14 -47 13T-60 72Q-60 167 -11 263T120 458T300 656T495 853T674 1048T805 1239T855 1425Q941 1463 1042 1469T1237 1476Q1395 1476 1553 1474T1870 1471Q1932 1471 1999 1471T2126 1488Q2116 1371 2057 1326T1884
1281Q1739 1281 1596 1293T1309 1322Q1304 1175 1267 1035T1198 756Q1195 740 1190 721Q1208 721 1225 721T1259 721ZM1031 756H1032Q1055 862 1079 970T1103 1185Q1103 1227 1098 1268T1081 1350Q1051 1354 1024 1358Q1006 1295 955 1217T834 1053T688 885T542
726Q665 724 785 723T1023 721Q1027 739 1031 756Z" />
<glyph unicode="&#xc7;" glyph-name="Ccedilla" horiz-adv-x="1450" d="M952 -36Q857 -36 758 -24T569 22Q381 92 279 238T176 585Q176 789 256 958T475 1251T791 1442T1164 1510Q1206 1510 1270 1504T1396 1480T1501 1426T1544 1331Q1544 1298 1530 1251T1487
1184Q1435 1250 1354 1283T1183 1327T1015 1338Q820 1338 675 1258T451 1032T371 690Q371 490 458 365T694 182T1026 124Q1111 124 1202 135T1375 183T1509 293Q1508 194 1452 130T1308 29T1126 -21T952 -36ZM809 -452Q778 -452 737 -442T666 -408T635 -346Q635
-322 650 -287T693 -248Q697 -278 724 -295T785 -320T843 -327Q865 -327 904 -321T976 -298T1009 -250Q1009 -227 984 -214T923 -194T854 -184T806 -180Q799 -179 778 -179T756 -170Q756 -131 781 -81T838 17T891 98H949Q927 56 907 13T863 -71Q899 -73 944 -78T1032
-98T1102 -142T1130 -221Q1130 -304 1079 -355T954 -429T809 -452Z" />
<glyph unicode="&#xc8;" glyph-name="Egrave" horiz-adv-x="1270" d="M336 817Q344 817 357 817Q378 908 396 1000T414 1185Q414 1241 405 1296T373 1406V1406L367 1421Q372 1424 380 1428V1428Q452 1463 532 1469T690 1476Q818 1476 945 1474T1199 1472Q1231
1472 1275 1472T1363 1476T1436 1487Q1425 1369 1366 1325T1194 1281Q1050 1281 907 1293T620 1321Q616 1191 585 1066T523 817Q624 818 734 821T943 831T1107 853Q1114 794 1091 760T1027 710T939 689T848 684Q750 684 662 684T493 684Q469 576 447 467T425 248Q425
211 427 181Q551 176 674 175T922 173Q955 173 1007 173T1118 175T1226 182T1305 196Q1295 96 1251 51T1137 -7T984 -19Q916 -19 820 -15T629 -2T468 21Q416 -15 359 -15Q277 -15 249 38T220 162Q220 295 255 425T324 683Q262 682 206 681Q205 688 205 700Q205
756 245 786T336 817ZM1182 1504Q1154 1506 1090 1529T949 1585T808 1648T715 1694Q695 1705 678 1719T661 1760Q661 1806 695 1824T769 1842Q808 1842 840 1838Q881 1789 953 1745T1103 1661T1238 1589Q1223 1568 1208 1548T1182 1504Z" />
<glyph unicode="&#xc9;" glyph-name="Eacute" horiz-adv-x="1270" d="M336 817Q344 817 357 817Q378 908 396 1000T414 1185Q414 1241 405 1296T373 1406V1406L367 1421Q372 1424 380 1428V1428Q452 1463 532 1469T690 1476Q818 1476 945 1474T1199 1472Q1231
1472 1275 1472T1363 1476T1436 1487Q1425 1369 1366 1325T1194 1281Q1050 1281 907 1293T620 1321Q616 1191 585 1066T523 817Q624 818 734 821T943 831T1107 853Q1114 794 1091 760T1027 710T939 689T848 684Q750 684 662 684T493 684Q469 576 447 467T425 248Q425
211 427 181Q551 176 674 175T922 173Q955 173 1007 173T1118 175T1226 182T1305 196Q1295 96 1251 51T1137 -7T984 -19Q916 -19 820 -15T629 -2T468 21Q416 -15 359 -15Q277 -15 249 38T220 162Q220 295 255 425T324 683Q262 682 206 681Q205 688 205 700Q205
756 245 786T336 817ZM698 1506L651 1585Q707 1614 788 1656T944 1746T1057 1841Q1074 1843 1091 1843T1126 1844Q1155 1844 1189 1833T1224 1784Q1224 1751 1208 1734T1166 1700Q1146 1688 1099 1666T992 1616T872 1565T765 1524T698 1506Z" />
<glyph unicode="&#xca;" glyph-name="Ecircumflex" horiz-adv-x="1270" d="M336 817Q344 817 357 817Q378 908 396 1000T414 1185Q414 1241 405 1296T373 1406V1406L367 1421Q372 1424 380 1428V1428Q452 1463 532 1469T690 1476Q818 1476 945 1474T1199 1472Q1231
1472 1275 1472T1363 1476T1436 1487Q1425 1369 1366 1325T1194 1281Q1050 1281 907 1293T620 1321Q616 1191 585 1066T523 817Q624 818 734 821T943 831T1107 853Q1114 794 1091 760T1027 710T939 689T848 684Q750 684 662 684T493 684Q469 576 447 467T425 248Q425
211 427 181Q551 176 674 175T922 173Q955 173 1007 173T1118 175T1226 182T1305 196Q1295 96 1251 51T1137 -7T984 -19Q916 -19 820 -15T629 -2T468 21Q416 -15 359 -15Q277 -15 249 38T220 162Q220 295 255 425T324 683Q262 682 206 681Q205 688 205 700Q205
756 245 786T336 817ZM533 1505Q524 1527 510 1545T482 1582Q542 1614 614 1654T751 1741T859 1841Q890 1841 944 1835T1024 1815Q1043 1776 1088 1733T1183 1653T1271 1590Q1257 1570 1246 1548T1221 1505Q1184 1513 1128 1543T1016 1607T922 1660Q889 1651 834
1626T717 1574T606 1526T533 1505Z" />
<glyph unicode="&#xcb;" glyph-name="Edieresis" horiz-adv-x="1270" d="M336 817Q344 817 357 817Q378 908 396 1000T414 1185Q414 1241 405 1296T373 1406V1406L367 1421Q372 1424 380 1428V1428Q452 1463 532 1469T690 1476Q818 1476 945 1474T1199 1472Q1231
1472 1275 1472T1363 1476T1436 1487Q1425 1369 1366 1325T1194 1281Q1050 1281 907 1293T620 1321Q616 1191 585 1066T523 817Q624 818 734 821T943 831T1107 853Q1114 794 1091 760T1027 710T939 689T848 684Q750 684 662 684T493 684Q469 576 447 467T425 248Q425
211 427 181Q551 176 674 175T922 173Q955 173 1007 173T1118 175T1226 182T1305 196Q1295 96 1251 51T1137 -7T984 -19Q916 -19 820 -15T629 -2T468 21Q416 -15 359 -15Q277 -15 249 38T220 162Q220 295 255 425T324 683Q262 682 206 681Q205 688 205 700Q205
756 245 786T336 817ZM643 1534Q599 1534 574 1551T549 1616Q549 1651 557 1685T576 1754Q605 1768 637 1778T703 1788Q747 1788 775 1770T804 1702Q804 1667 792 1633T768 1567Q738 1554 707 1544T643 1534ZM1189 1534Q1146 1534 1121 1551T1096 1615Q1096 1650
1104 1685T1121 1754Q1151 1767 1183 1777T1248 1788Q1292 1788 1321 1769T1350 1701Q1350 1666 1339 1633T1313 1567Q1284 1554 1253 1544T1189 1534Z" />
<glyph unicode="&#xcc;" glyph-name="Igrave" horiz-adv-x="1117" d="M326 151Q363 151 405 151T493 151Q505 310 531 473T583 791T624 1081T625 1318Q554 1318 493 1311T359 1283Q352 1296 351 1308T350 1335Q350 1400 404 1435T595 1470Q637 1470 729 1470T930
1470T1132 1474Q1139 1408 1116 1375T1052 1330T964 1318T873 1317Q854 1317 834 1317Q815 1163 788 1022T737 743T698 461T690 155Q780 159 865 166T1018 187Q1027 108 985 68T880 13T759 -2Q570 -2 436 -2T196 -5Q195 4 195 16Q195 81 235 116T326 151ZM1137
1504Q1109 1506 1045 1529T904 1585T763 1648T670 1694Q650 1705 633 1719T616 1760Q616 1806 650 1824T724 1842Q763 1842 795 1838Q836 1789 908 1745T1058 1661T1193 1589Q1178 1568 1163 1548T1137 1504Z" />
<glyph unicode="&#xcd;" glyph-name="Iacute" horiz-adv-x="1117" d="M326 151Q363 151 405 151T493 151Q505 310 531 473T583 791T624 1081T625 1318Q554 1318 493 1311T359 1283Q352 1296 351 1308T350 1335Q350 1400 404 1435T595 1470Q637 1470 729 1470T930
1470T1132 1474Q1139 1408 1116 1375T1052 1330T964 1318T873 1317Q854 1317 834 1317Q815 1163 788 1022T737 743T698 461T690 155Q780 159 865 166T1018 187Q1027 108 985 68T880 13T759 -2Q570 -2 436 -2T196 -5Q195 4 195 16Q195 81 235 116T326 151ZM653 1506L606
1585Q662 1614 743 1656T899 1746T1012 1841Q1029 1843 1046 1843T1081 1844Q1110 1844 1144 1833T1179 1784Q1179 1751 1163 1734T1121 1700Q1101 1688 1054 1666T947 1616T827 1565T720 1524T653 1506Z" />
<glyph unicode="&#xce;" glyph-name="Icircumflex" horiz-adv-x="1117" d="M326 151Q363 151 405 151T493 151Q505 310 531 473T583 791T624 1081T625 1318Q554 1318 493 1311T359 1283Q352 1296 351 1308T350 1335Q350 1400 404 1435T595 1470Q637 1470 729 1470T930
1470T1132 1474Q1139 1408 1116 1375T1052 1330T964 1318T873 1317Q854 1317 834 1317Q815 1163 788 1022T737 743T698 461T690 155Q780 159 865 166T1018 187Q1027 108 985 68T880 13T759 -2Q570 -2 436 -2T196 -5Q195 4 195 16Q195 81 235 116T326 151ZM488 1505Q479
1527 465 1545T437 1582Q497 1614 569 1654T706 1741T814 1841Q845 1841 899 1835T979 1815Q998 1776 1043 1733T1138 1653T1226 1590Q1212 1570 1201 1548T1176 1505Q1139 1513 1083 1543T971 1607T877 1660Q844 1651 789 1626T672 1574T561 1526T488 1505Z" />
<glyph unicode="&#xcf;" glyph-name="Idieresis" horiz-adv-x="1117" d="M326 151Q363 151 405 151T493 151Q505 310 531 473T583 791T624 1081T625 1318Q554 1318 493 1311T359 1283Q352 1296 351 1308T350 1335Q350 1400 404 1435T595 1470Q637 1470 729 1470T930
1470T1132 1474Q1139 1408 1116 1375T1052 1330T964 1318T873 1317Q854 1317 834 1317Q815 1163 788 1022T737 743T698 461T690 155Q780 159 865 166T1018 187Q1027 108 985 68T880 13T759 -2Q570 -2 436 -2T196 -5Q195 4 195 16Q195 81 235 116T326 151ZM598 1534Q554
1534 529 1551T504 1616Q504 1651 512 1685T531 1754Q560 1768 592 1778T658 1788Q702 1788 730 1770T759 1702Q759 1667 747 1633T723 1567Q693 1554 662 1544T598 1534ZM1144 1534Q1101 1534 1076 1551T1051 1615Q1051 1650 1059 1685T1076 1754Q1106 1767 1138
1777T1203 1788Q1247 1788 1276 1769T1305 1701Q1305 1666 1294 1633T1268 1567Q1239 1554 1208 1544T1144 1534Z" />
<glyph unicode="&#xd0;" glyph-name="Eth" horiz-adv-x="1777" d="M778 -20Q710 -20 629 -16T473 11T350 84T302 229Q302 346 327 460T384 687Q348 687 314 687Q227 687 157 677Q145 690 141 711T137 751Q137 787 166 810T244 833Q289 833 333 832T423 830Q444
912 458 995T472 1165Q472 1242 454 1316T400 1458Q543 1477 686 1487T974 1498Q1088 1498 1209 1486T1442 1441T1644 1346T1786 1185T1839 941Q1839 719 1753 542T1517 239T1177 47T778 -20ZM1003 814Q1041 815 1079 817T1154 827Q1165 823 1167 815T1169 797Q1169
746 1131 722T1038 690T931 682Q833 682 736 683T540 685Q523 610 513 535T502 382Q502 269 550 169Q618 150 689 141T832 131Q987 131 1133 175T1396 308T1582 529T1651 835Q1651 993 1595 1095T1442 1255T1225 1336T975 1359Q902 1359 829 1354T687 1339Q677
1210 643 1082T574 824Q681 819 788 816T1003 814ZM583 181L587 183L588 180L583 181Z" />
<glyph unicode="&#xd1;" glyph-name="Ntilde" horiz-adv-x="1667" d="M389 -13Q328 -13 297 19T255 100T244 198Q244 323 268 445T325 688T381 932T406 1181Q406 1253 391 1325T335 1457Q367 1480 403 1496T480 1513Q576 1513 649 1463T778 1333T874 1166T947
1004Q1007 863 1063 739T1189 502T1365 285Q1392 432 1431 576T1499 868T1527 1175Q1526 1250 1511 1325T1453 1463Q1479 1478 1519 1495T1589 1513Q1635 1513 1657 1487T1687 1423T1695 1348Q1695 1222 1668 1100T1605 856T1542 612T1515 364Q1515 284 1539 212T1630
89Q1610 52 1575 20T1493 -13Q1394 -13 1311 40T1157 185T1025 391T907 628T798 865T690 1073T577 1220Q549 1080 506 939T428 653T394 363Q394 286 417 213T504 90Q489 62 457 25T389 -13ZM835 1535Q814 1541 805 1558T796 1596Q796 1649 824 1700T899 1786T1001
1820Q1062 1820 1113 1793T1217 1739T1335 1711Q1394 1711 1433 1734T1484 1819Q1505 1813 1514 1796T1523 1758Q1523 1706 1495 1654T1420 1568T1318 1534Q1258 1534 1207 1561T1103 1616T984 1643Q926 1643 887 1620T835 1535Z" />
<glyph unicode="&#xd2;" glyph-name="Ograve" horiz-adv-x="1770" d="M855 -36Q659 -36 506 36T266 250T178 597Q178 797 256 964T471 1255T784 1445T1156 1513Q1353 1513 1505 1440T1745 1225T1833 878Q1833 678 1755 511T1540 221T1227 31T855 -36ZM1022 137Q1214
137 1352 222T1565 453T1640 783Q1640 981 1552 1103T1317 1281T989 1338Q799 1338 661 1254T447 1026T372 698Q372 502 459 378T695 196T1022 137ZM1409 1504Q1381 1506 1317 1529T1176 1585T1035 1648T942 1694Q922 1705 905 1719T888 1760Q888 1806 922 1824T996
1842Q1035 1842 1067 1838Q1108 1789 1180 1745T1330 1661T1465 1589Q1450 1568 1435 1548T1409 1504Z" />
<glyph unicode="&#xd3;" glyph-name="Oacute" horiz-adv-x="1770" d="M855 -36Q659 -36 506 36T266 250T178 597Q178 797 256 964T471 1255T784 1445T1156 1513Q1353 1513 1505 1440T1745 1225T1833 878Q1833 678 1755 511T1540 221T1227 31T855 -36ZM1022 137Q1214
137 1352 222T1565 453T1640 783Q1640 981 1552 1103T1317 1281T989 1338Q799 1338 661 1254T447 1026T372 698Q372 502 459 378T695 196T1022 137ZM925 1506L878 1585Q934 1614 1015 1656T1171 1746T1284 1841Q1301 1843 1318 1843T1353 1844Q1382 1844 1416 1833T1451
1784Q1451 1751 1435 1734T1393 1700Q1373 1688 1326 1666T1219 1616T1099 1565T992 1524T925 1506Z" />
<glyph unicode="&#xd4;" glyph-name="Ocircumflex" horiz-adv-x="1770" d="M855 -36Q659 -36 506 36T266 250T178 597Q178 797 256 964T471 1255T784 1445T1156 1513Q1353 1513 1505 1440T1745 1225T1833 878Q1833 678 1755 511T1540 221T1227 31T855 -36ZM1022
137Q1214 137 1352 222T1565 453T1640 783Q1640 981 1552 1103T1317 1281T989 1338Q799 1338 661 1254T447 1026T372 698Q372 502 459 378T695 196T1022 137ZM760 1505Q751 1527 737 1545T709 1582Q769 1614 841 1654T978 1741T1086 1841Q1117 1841 1171 1835T1251
1815Q1270 1776 1315 1733T1410 1653T1498 1590Q1484 1570 1473 1548T1448 1505Q1411 1513 1355 1543T1243 1607T1149 1660Q1116 1651 1061 1626T944 1574T833 1526T760 1505Z" />
<glyph unicode="&#xd5;" glyph-name="Otilde" horiz-adv-x="1770" d="M855 -36Q659 -36 506 36T266 250T178 597Q178 797 256 964T471 1255T784 1445T1156 1513Q1353 1513 1505 1440T1745 1225T1833 878Q1833 678 1755 511T1540 221T1227 31T855 -36ZM1022 137Q1214
137 1352 222T1565 453T1640 783Q1640 981 1552 1103T1317 1281T989 1338Q799 1338 661 1254T447 1026T372 698Q372 502 459 378T695 196T1022 137ZM885 1535Q864 1541 855 1558T846 1596Q846 1649 874 1700T949 1786T1051 1820Q1112 1820 1163 1793T1267 1739T1385
1711Q1444 1711 1483 1734T1534 1819Q1555 1813 1564 1796T1573 1758Q1573 1706 1545 1654T1470 1568T1368 1534Q1308 1534 1257 1561T1153 1616T1034 1643Q976 1643 937 1620T885 1535Z" />
<glyph unicode="&#xd6;" glyph-name="Odieresis" horiz-adv-x="1770" d="M855 -36Q659 -36 506 36T266 250T178 597Q178 797 256 964T471 1255T784 1445T1156 1513Q1353 1513 1505 1440T1745 1225T1833 878Q1833 678 1755 511T1540 221T1227 31T855 -36ZM1022
137Q1214 137 1352 222T1565 453T1640 783Q1640 981 1552 1103T1317 1281T989 1338Q799 1338 661 1254T447 1026T372 698Q372 502 459 378T695 196T1022 137ZM870 1534Q826 1534 801 1551T776 1616Q776 1651 784 1685T803 1754Q832 1768 864 1778T930 1788Q974
1788 1002 1770T1031 1702Q1031 1667 1019 1633T995 1567Q965 1554 934 1544T870 1534ZM1416 1534Q1373 1534 1348 1551T1323 1615Q1323 1650 1331 1685T1348 1754Q1378 1767 1410 1777T1475 1788Q1519 1788 1548 1769T1577 1701Q1577 1666 1566 1633T1540 1567Q1511
1554 1480 1544T1416 1534Z" />
<glyph unicode="&#xd7;" glyph-name="multiply" horiz-adv-x="1382" d="M1181 1105Q1212 1102 1224 1074T1236 1019Q1236 962 1183 913T1055 823T911 746Q998 679 1094 625T1304 566Q1304 534 1294 492T1261 417T1196 385Q1121 385 1041 427T884 530T743 643Q654
586 568 527T407 380Q387 385 358 399T305 433T282 478Q282 526 336 575T466 669T609 749Q527 810 439 861T250 932Q256 960 268 998T304 1066T363 1096Q424 1096 499 1054T649 954T784 846Q889 904 993 962T1181 1105Z" />
<glyph unicode="&#xd8;" glyph-name="Oslash" horiz-adv-x="1764" d="M855 -36Q838 -36 821 -35Q825 -27 829 -18Q846 22 862 62T892 145Q811 155 741 178Q806 305 849 444T929 715Q946 775 974 877T1042 1099T1136 1328Q1066 1338 989 1338Q799 1338 661 1254T447
1026T372 698Q372 486 474 359T741 178Q716 128 687 82T623 -7Q716 -32 821 -35Q792 -97 740 -155T613 -213Q577 -213 536 -194T464 -155Q510 -124 549 -87T623 -7Q422 48 300 201T178 597Q178 797 256 964T471 1255T784 1445T1156 1513Q1202 1513 1247 1509Q1231
1490 1214 1466Q1193 1435 1174 1400T1136 1328Q1214 1317 1282 1295Q1222 1210 1181 1109T1108 902T1050 702Q1020 598 983 449T892 145Q955 137 1022 137Q1214 137 1352 222T1565 453T1640 783Q1640 992 1541 1117T1282 1295Q1318 1345 1362 1387T1460 1460Q1363
1498 1247 1509Q1282 1551 1325 1580T1421 1609Q1467 1609 1490 1567T1518 1487Q1488 1475 1460 1460Q1631 1393 1732 1246T1833 878Q1833 678 1755 511T1540 221T1227 31T855 -36Z" />
<glyph unicode="&#xd9;" glyph-name="Ugrave" horiz-adv-x="1743" d="M562 -28Q412 -28 341 46T270 267Q270 374 292 483T343 704T395 930T417 1162Q417 1242 399 1321T330 1465Q365 1481 409 1497T492 1513Q575 1513 606 1462T637 1336Q637 1210 609 1088T545
843T481 598T453 349Q453 240 495 208T642 175Q731 175 840 218T1060 328T1263 469T1413 606Q1424 655 1434 694T1450 756Q1471 857 1489 958T1508 1163Q1508 1242 1491 1321T1425 1464Q1459 1481 1503 1497T1584 1513Q1669 1513 1698 1458T1728 1329Q1728 1276
1716 1201T1686 1043T1649 885T1616 756Q1598 668 1576 571T1554 378Q1554 291 1583 213T1691 75Q1672 60 1641 40T1578 3T1521 -13Q1424 -13 1389 51T1353 211Q1353 267 1360 328T1379 451Q1314 387 1215 305T1002 147T774 22T562 -28ZM1367 1504Q1339 1506 1275
1529T1134 1585T993 1648T900 1694Q880 1705 863 1719T846 1760Q846 1806 880 1824T954 1842Q993 1842 1025 1838Q1066 1789 1138 1745T1288 1661T1423 1589Q1408 1568 1393 1548T1367 1504Z" />
<glyph unicode="&#xda;" glyph-name="Uacute" horiz-adv-x="1743" d="M562 -28Q412 -28 341 46T270 267Q270 374 292 483T343 704T395 930T417 1162Q417 1242 399 1321T330 1465Q365 1481 409 1497T492 1513Q575 1513 606 1462T637 1336Q637 1210 609 1088T545
843T481 598T453 349Q453 240 495 208T642 175Q731 175 840 218T1060 328T1263 469T1413 606Q1424 655 1434 694T1450 756Q1471 857 1489 958T1508 1163Q1508 1242 1491 1321T1425 1464Q1459 1481 1503 1497T1584 1513Q1669 1513 1698 1458T1728 1329Q1728 1276
1716 1201T1686 1043T1649 885T1616 756Q1598 668 1576 571T1554 378Q1554 291 1583 213T1691 75Q1672 60 1641 40T1578 3T1521 -13Q1424 -13 1389 51T1353 211Q1353 267 1360 328T1379 451Q1314 387 1215 305T1002 147T774 22T562 -28ZM883 1506L836 1585Q892
1614 973 1656T1129 1746T1242 1841Q1259 1843 1276 1843T1311 1844Q1340 1844 1374 1833T1409 1784Q1409 1751 1393 1734T1351 1700Q1331 1688 1284 1666T1177 1616T1057 1565T950 1524T883 1506Z" />
<glyph unicode="&#xdb;" glyph-name="Ucircumflex" horiz-adv-x="1743" d="M562 -28Q412 -28 341 46T270 267Q270 374 292 483T343 704T395 930T417 1162Q417 1242 399 1321T330 1465Q365 1481 409 1497T492 1513Q575 1513 606 1462T637 1336Q637 1210 609 1088T545
843T481 598T453 349Q453 240 495 208T642 175Q731 175 840 218T1060 328T1263 469T1413 606Q1424 655 1434 694T1450 756Q1471 857 1489 958T1508 1163Q1508 1242 1491 1321T1425 1464Q1459 1481 1503 1497T1584 1513Q1669 1513 1698 1458T1728 1329Q1728 1276
1716 1201T1686 1043T1649 885T1616 756Q1598 668 1576 571T1554 378Q1554 291 1583 213T1691 75Q1672 60 1641 40T1578 3T1521 -13Q1424 -13 1389 51T1353 211Q1353 267 1360 328T1379 451Q1314 387 1215 305T1002 147T774 22T562 -28ZM718 1505Q709 1527 695
1545T667 1582Q727 1614 799 1654T936 1741T1044 1841Q1075 1841 1129 1835T1209 1815Q1228 1776 1273 1733T1368 1653T1456 1590Q1442 1570 1431 1548T1406 1505Q1369 1513 1313 1543T1201 1607T1107 1660Q1074 1651 1019 1626T902 1574T791 1526T718 1505Z" />
<glyph unicode="&#xdc;" glyph-name="Udieresis" horiz-adv-x="1743" d="M562 -28Q412 -28 341 46T270 267Q270 374 292 483T343 704T395 930T417 1162Q417 1242 399 1321T330 1465Q365 1481 409 1497T492 1513Q575 1513 606 1462T637 1336Q637 1210 609 1088T545
843T481 598T453 349Q453 240 495 208T642 175Q731 175 840 218T1060 328T1263 469T1413 606Q1424 655 1434 694T1450 756Q1471 857 1489 958T1508 1163Q1508 1242 1491 1321T1425 1464Q1459 1481 1503 1497T1584 1513Q1669 1513 1698 1458T1728 1329Q1728 1276
1716 1201T1686 1043T1649 885T1616 756Q1598 668 1576 571T1554 378Q1554 291 1583 213T1691 75Q1672 60 1641 40T1578 3T1521 -13Q1424 -13 1389 51T1353 211Q1353 267 1360 328T1379 451Q1314 387 1215 305T1002 147T774 22T562 -28ZM828 1534Q784 1534 759
1551T734 1616Q734 1651 742 1685T761 1754Q790 1768 822 1778T888 1788Q932 1788 960 1770T989 1702Q989 1667 977 1633T953 1567Q923 1554 892 1544T828 1534ZM1374 1534Q1331 1534 1306 1551T1281 1615Q1281 1650 1289 1685T1306 1754Q1336 1767 1368 1777T1433
1788Q1477 1788 1506 1769T1535 1701Q1535 1666 1524 1633T1498 1567Q1469 1554 1438 1544T1374 1534Z" />
<glyph unicode="&#xdd;" glyph-name="Yacute" horiz-adv-x="1196" d="M718 -13Q659 -13 627 15T583 89T571 185Q571 268 588 355T632 521Q611 599 579 705T503 924T405 1133T283 1292T136 1358Q152 1391 179 1427T242 1488T318 1513Q378 1513 434 1451T540 1289T632
1077T707 860T762 687Q767 693 769 696Q813 747 872 813T993 951T1108 1094T1194 1225T1227 1325Q1227 1351 1215 1377T1189 1424Q1208 1439 1239 1459T1304 1495T1361 1511Q1395 1511 1406 1487T1418 1433Q1418 1372 1374 1292T1264 1125T1126 957T999 813Q948
754 895 687T807 534T771 333Q771 257 796 191T882 75Q854 51 805 19T718 -13ZM631 1506L584 1585Q640 1614 721 1656T877 1746T990 1841Q1007 1843 1024 1843T1059 1844Q1088 1844 1122 1833T1157 1784Q1157 1751 1141 1734T1099 1700Q1079 1688 1032 1666T925
1616T805 1565T698 1524T631 1506Z" />
<glyph unicode="&#xde;" glyph-name="Thorn" horiz-adv-x="1406" d="M1170 840Q1186 922 1136 984T998 1090T810 1156T625 1184Q613 1112 596 1032T560 880T528 756Q513 684 495 604T469 444Q519 453 576 465Q719 496 847 545T1062 668T1170 840ZM603 75Q584 60
553 40T490 3T433 -13Q336 -13 301 51T265 211Q265 283 277 364T306 523T338 661T362 756Q383 857 401 958T420 1163Q420 1242 403 1321T337 1464Q371 1481 415 1497T496 1513Q581 1513 610 1458T640 1329Q640 1309 638 1285Q721 1286 828 1273T1044 1231T1239
1154T1373 1036T1400 871Q1381 774 1306 695T1120 554T875 446T606 366Q538 350 468 336Q473 261 504 194T603 75Z" />
<glyph unicode="&#xdf;" glyph-name="germandbls" horiz-adv-x="1271" d="M475 -280Q450 -305 408 -335T329 -366Q267 -366 239 -327T203 -233T195 -132Q195 -46 207 38T234 208Q271 436 312 664Q322 718 331 772T352 881Q332 884 312 885T271 886Q235 886 199
884T128 872Q128 964 163 1006T258 1061T392 1073V1073Q416 1177 465 1275T587 1452T755 1577T966 1624Q1056 1624 1143 1596T1289 1505T1347 1337Q1347 1237 1299 1150T1175 997T1012 890Q1153 853 1243 759T1333 511Q1333 385 1284 285T1149 116T955 9T728 -28Q639
-28 546 12T387 112Q382 74 382 41Q382 -50 392 -131T475 -280ZM755 138Q849 138 933 176T1071 286T1124 459Q1124 561 1074 639T940 761T758 806Q738 806 718 804T678 800Q671 822 671 850Q671 887 683 912T732 950Q764 962 801 964T872 975Q938 992 1006 1037T1120
1148T1166 1286Q1166 1351 1130 1388T1039 1442T930 1458Q803 1458 729 1405T615 1261T550 1063Q509 880 483 697T427 328Q424 308 420 288T412 248Q481 212 525 188T619 151T755 138Z" />
<glyph unicode="&#xe0;" glyph-name="agrave" horiz-adv-x="1621" d="M1224 333V517Q1187 463 1132 393T1008 249T858 114T691 14T515 -25Q388 -25 307 34T186 192T147 407Q147 562 201 698T353 939T584 1102T877 1161Q952 1161 1033 1141T1187 1089T1308 1017Q1323
1069 1348 1107T1417 1145Q1445 1145 1474 1131T1525 1101Q1458 980 1437 831T1415 545Q1415 447 1426 367T1474 215T1584 73Q1556 51 1507 19T1421 -13Q1355 -13 1316 21T1257 110T1231 224T1224 333ZM337 512Q337 423 364 351T452 236T610 193Q691 193 773 237T933
353T1077 510T1193 678T1267 827Q1271 847 1275 867T1284 908Q1234 951 1166 971T1024 998T884 1004Q732 1004 608 948T411 781T337 512ZM1232 1223Q1204 1225 1140 1248T999 1304T858 1367T765 1413Q745 1424 728 1438T711 1479Q711 1525 745 1543T819 1561Q858
1561 890 1557Q931 1508 1003 1464T1153 1380T1288 1308Q1273 1287 1258 1267T1232 1223Z" />
<glyph unicode="&#xe1;" glyph-name="aacute" horiz-adv-x="1621" d="M1224 333V517Q1187 463 1132 393T1008 249T858 114T691 14T515 -25Q388 -25 307 34T186 192T147 407Q147 562 201 698T353 939T584 1102T877 1161Q952 1161 1033 1141T1187 1089T1308 1017Q1323
1069 1348 1107T1417 1145Q1445 1145 1474 1131T1525 1101Q1458 980 1437 831T1415 545Q1415 447 1426 367T1474 215T1584 73Q1556 51 1507 19T1421 -13Q1355 -13 1316 21T1257 110T1231 224T1224 333ZM337 512Q337 423 364 351T452 236T610 193Q691 193 773 237T933
353T1077 510T1193 678T1267 827Q1271 847 1275 867T1284 908Q1234 951 1166 971T1024 998T884 1004Q732 1004 608 948T411 781T337 512ZM747 1222L699 1301Q757 1332 836 1373T990 1461T1105 1557Q1136 1561 1174 1561Q1203 1561 1238 1549T1273 1500Q1248 1484
1195 1452T1074 1382T941 1309T822 1249T747 1222Z" />
<glyph unicode="&#xe2;" glyph-name="acircumflex" horiz-adv-x="1621" d="M1224 333V517Q1187 463 1132 393T1008 249T858 114T691 14T515 -25Q388 -25 307 34T186 192T147 407Q147 562 201 698T353 939T584 1102T877 1161Q952 1161 1033 1141T1187 1089T1308
1017Q1323 1069 1348 1107T1417 1145Q1445 1145 1474 1131T1525 1101Q1458 980 1437 831T1415 545Q1415 447 1426 367T1474 215T1584 73Q1556 51 1507 19T1421 -13Q1355 -13 1316 21T1257 110T1231 224T1224 333ZM337 512Q337 423 364 351T452 236T610 193Q691
193 773 237T933 353T1077 510T1193 678T1267 827Q1271 847 1275 867T1284 908Q1234 951 1166 971T1024 998T884 1004Q732 1004 608 948T411 781T337 512ZM654 1222Q645 1244 631 1262T603 1299Q663 1331 735 1371T872 1458T980 1558Q1011 1558 1065 1552T1145
1532Q1164 1493 1209 1450T1304 1370T1392 1307Q1378 1287 1367 1265T1342 1222Q1305 1230 1249 1260T1137 1324T1043 1377Q1010 1368 955 1343T838 1291T727 1243T654 1222Z" />
<glyph unicode="&#xe3;" glyph-name="atilde" horiz-adv-x="1621" d="M1224 333V517Q1187 463 1132 393T1008 249T858 114T691 14T515 -25Q388 -25 307 34T186 192T147 407Q147 562 201 698T353 939T584 1102T877 1161Q952 1161 1033 1141T1187 1089T1308 1017Q1323
1069 1348 1107T1417 1145Q1445 1145 1474 1131T1525 1101Q1458 980 1437 831T1415 545Q1415 447 1426 367T1474 215T1584 73Q1556 51 1507 19T1421 -13Q1355 -13 1316 21T1257 110T1231 224T1224 333ZM337 512Q337 423 364 351T452 236T610 193Q691 193 773 237T933
353T1077 510T1193 678T1267 827Q1271 847 1275 867T1284 908Q1234 951 1166 971T1024 998T884 1004Q732 1004 608 948T411 781T337 512ZM666 1249Q645 1255 636 1272T627 1310Q627 1363 655 1414T730 1500T832 1534Q893 1534 944 1507T1048 1453T1166 1425Q1225
1425 1264 1448T1315 1533Q1336 1527 1345 1510T1354 1472Q1354 1420 1326 1368T1251 1282T1149 1248Q1089 1248 1038 1275T934 1330T815 1357Q757 1357 718 1334T666 1249Z" />
<glyph unicode="&#xe4;" glyph-name="adieresis" horiz-adv-x="1621" d="M1224 333V517Q1187 463 1132 393T1008 249T858 114T691 14T515 -25Q388 -25 307 34T186 192T147 407Q147 562 201 698T353 939T584 1102T877 1161Q952 1161 1033 1141T1187 1089T1308 1017Q1323
1069 1348 1107T1417 1145Q1445 1145 1474 1131T1525 1101Q1458 980 1437 831T1415 545Q1415 447 1426 367T1474 215T1584 73Q1556 51 1507 19T1421 -13Q1355 -13 1316 21T1257 110T1231 224T1224 333ZM337 512Q337 423 364 351T452 236T610 193Q691 193 773 237T933
353T1077 510T1193 678T1267 827Q1271 847 1275 867T1284 908Q1234 951 1166 971T1024 998T884 1004Q732 1004 608 948T411 781T337 512ZM692 1250Q648 1250 623 1267T598 1333Q598 1368 606 1402T624 1470Q653 1484 685 1494T751 1504Q795 1504 823 1485T852 1417Q852
1382 840 1349T816 1283Q787 1269 756 1260T692 1250ZM1237 1250Q1193 1250 1169 1267T1144 1332Q1144 1367 1152 1401T1169 1470Q1200 1483 1231 1493T1297 1504Q1341 1504 1369 1484T1397 1416Q1397 1381 1386 1348T1361 1283Q1332 1270 1301 1260T1237 1250Z"
/>
<glyph unicode="&#xe5;" glyph-name="aring" horiz-adv-x="1621" d="M1224 333V517Q1187 463 1132 393T1008 249T858 114T691 14T515 -25Q388 -25 307 34T186 192T147 407Q147 562 201 698T353 939T584 1102T877 1161Q952 1161 1033 1141T1187 1089T1308 1017Q1323
1069 1348 1107T1417 1145Q1445 1145 1474 1131T1525 1101Q1458 980 1437 831T1415 545Q1415 447 1426 367T1474 215T1584 73Q1556 51 1507 19T1421 -13Q1355 -13 1316 21T1257 110T1231 224T1224 333ZM337 512Q337 423 364 351T452 236T610 193Q691 193 773 237T933
353T1077 510T1193 678T1267 827Q1271 847 1275 867T1284 908Q1234 951 1166 971T1024 998T884 1004Q732 1004 608 948T411 781T337 512ZM965 1239Q878 1239 832 1303T803 1452Q820 1540 891 1598T1051 1657Q1138 1657 1183 1593T1211 1444Q1194 1356 1124 1298T965
1239ZM988 1319Q1032 1319 1053 1362T1081 1439Q1087 1468 1087 1500T1072 1556T1021 1579Q977 1579 956 1536T928 1458Q923 1430 923 1398T937 1342T988 1319Z" />
<glyph unicode="&#xe6;" glyph-name="ae" horiz-adv-x="1985" d="M1544 -29Q1396 -29 1275 7T1076 128T984 358Q933 295 873 228T747 104T611 11T470 -25Q348 -25 277 36T177 195T147 397Q147 541 193 677T327 923T538 1096T817 1161Q900 1161 985 1137T1144 1075T1270
1000Q1357 1066 1459 1105Q1525 1130 1596 1145T1734 1161Q1811 1161 1890 1141T2024 1069T2079 923Q2079 806 2017 728T1851 602T1627 527T1385 489T1168 470Q1170 372 1206 291T1321 173Q1383 145 1455 141T1597 136Q1655 136 1731 144T1875 177T1980 255Q1983
252 1983 233T1983 194T1980 168Q1962 110 1912 72T1797 11T1664 -20T1544 -29ZM334 492Q334 419 354 350T424 237T559 193Q622 193 684 226T803 312T908 421T988 525Q1005 635 1053 734T1176 914Q1094 961 1004 982T820 1004Q669 1004 560 938T393 755T334 492ZM1318
891Q1264 843 1226 756T1174 569Q1249 576 1344 586T1536 613T1714 660T1845 736T1895 849Q1895 895 1865 923T1788 967T1694 988T1612 994Q1436 994 1318 891Z" />
<glyph unicode="&#xe7;" glyph-name="ccedilla" horiz-adv-x="1170" d="M749 -29Q637 -29 530 -4T336 76T199 222T148 441Q148 595 213 726T391 954T643 1106T935 1161Q974 1161 1027 1157T1131 1139T1216 1093T1250 1006Q1250 978 1238 933T1201 872Q1156 926
1089 952T947 986T807 994Q596 994 469 872T341 534Q341 392 402 305T569 177T803 136Q931 136 1001 156T1108 203T1167 255Q1181 176 1149 122T1053 34T910 -14T749 -29ZM610 -452Q579 -452 538 -442T467 -408T436 -346Q436 -322 451 -287T494 -248Q498 -278 525
-295T586 -320T644 -327Q666 -327 705 -321T777 -298T810 -250Q810 -227 785 -214T724 -194T655 -184T607 -180Q600 -179 579 -179T557 -170Q557 -131 582 -81T639 17T692 98H750Q728 56 708 13T664 -71Q700 -73 745 -78T833 -98T903 -142T931 -221Q931 -304 880
-355T755 -429T610 -452Z" />
<glyph unicode="&#xe8;" glyph-name="egrave" horiz-adv-x="1198" d="M1152 229Q1152 152 1108 102T995 23T852 -17T717 -29Q569 -29 439 17T229 165T148 434Q148 529 177 623T256 798Q363 971 529 1066T899 1161Q975 1161 1054 1140T1187 1068T1242 924Q1242
808 1180 727T1015 592T791 511T551 472T336 466Q336 420 340 377T356 304Q385 225 463 183T642 128T846 128T1029 174T1144 256Q1152 248 1152 229ZM362 686Q354 654 347 610Q420 606 513 609T702 627T878 669T1008 742T1058 851Q1058 896 1027 924T951 967T858
988T777 994Q620 994 512 918T362 686ZM1148 1223Q1120 1225 1056 1248T915 1304T774 1367T681 1413Q661 1424 644 1438T627 1479Q627 1525 661 1543T735 1561Q774 1561 806 1557Q847 1508 919 1464T1069 1380T1204 1308Q1189 1287 1174 1267T1148 1223Z" />
<glyph unicode="&#xe9;" glyph-name="eacute" horiz-adv-x="1198" d="M1152 229Q1152 152 1108 102T995 23T852 -17T717 -29Q569 -29 439 17T229 165T148 434Q148 529 177 623T256 798Q363 971 529 1066T899 1161Q975 1161 1054 1140T1187 1068T1242 924Q1242
808 1180 727T1015 592T791 511T551 472T336 466Q336 420 340 377T356 304Q385 225 463 183T642 128T846 128T1029 174T1144 256Q1152 248 1152 229ZM362 686Q354 654 347 610Q420 606 513 609T702 627T878 669T1008 742T1058 851Q1058 896 1027 924T951 967T858
988T777 994Q620 994 512 918T362 686ZM663 1222L615 1301Q673 1332 752 1373T906 1461T1021 1557Q1052 1561 1090 1561Q1119 1561 1154 1549T1189 1500Q1164 1484 1111 1452T990 1382T857 1309T738 1249T663 1222Z" />
<glyph unicode="&#xea;" glyph-name="ecircumflex" horiz-adv-x="1198" d="M1152 229Q1152 152 1108 102T995 23T852 -17T717 -29Q569 -29 439 17T229 165T148 434Q148 529 177 623T256 798Q363 971 529 1066T899 1161Q975 1161 1054 1140T1187 1068T1242 924Q1242
808 1180 727T1015 592T791 511T551 472T336 466Q336 420 340 377T356 304Q385 225 463 183T642 128T846 128T1029 174T1144 256Q1152 248 1152 229ZM362 686Q354 654 347 610Q420 606 513 609T702 627T878 669T1008 742T1058 851Q1058 896 1027 924T951 967T858
988T777 994Q620 994 512 918T362 686ZM570 1222Q561 1244 547 1262T519 1299Q579 1331 651 1371T788 1458T896 1558Q927 1558 981 1552T1061 1532Q1080 1493 1125 1450T1220 1370T1308 1307Q1294 1287 1283 1265T1258 1222Q1221 1230 1165 1260T1053 1324T959
1377Q926 1368 871 1343T754 1291T643 1243T570 1222Z" />
<glyph unicode="&#xeb;" glyph-name="edieresis" horiz-adv-x="1198" d="M1152 229Q1152 152 1108 102T995 23T852 -17T717 -29Q569 -29 439 17T229 165T148 434Q148 529 177 623T256 798Q363 971 529 1066T899 1161Q975 1161 1054 1140T1187 1068T1242 924Q1242
808 1180 727T1015 592T791 511T551 472T336 466Q336 420 340 377T356 304Q385 225 463 183T642 128T846 128T1029 174T1144 256Q1152 248 1152 229ZM362 686Q354 654 347 610Q420 606 513 609T702 627T878 669T1008 742T1058 851Q1058 896 1027 924T951 967T858
988T777 994Q620 994 512 918T362 686ZM608 1250Q564 1250 539 1267T514 1333Q514 1368 522 1402T540 1470Q569 1484 601 1494T667 1504Q711 1504 739 1485T768 1417Q768 1382 756 1349T732 1283Q703 1269 672 1260T608 1250ZM1153 1250Q1109 1250 1085 1267T1060
1332Q1060 1367 1068 1401T1085 1470Q1116 1483 1147 1493T1213 1504Q1257 1504 1285 1484T1313 1416Q1313 1381 1302 1348T1277 1283Q1248 1270 1217 1260T1153 1250Z" />
<glyph unicode="&#xec;" glyph-name="igrave" horiz-adv-x="908" d="M405 1020Q374 1005 332 991T245 978T162 1009T101 1114Q215 1110 299 1126T475 1143Q528 1143 554 1119T588 1059T594 982T588 909Q581 845 563 758T525 582Q518 551 506 497T484 382T478 264T506
173T586 137Q627 137 684 140T795 158T880 203L882 205V202Q882 113 830 64T702 -6T553 -26Q432 -26 370 16T289 129T278 284T308 455T348 616Q371 711 389 810T405 1020ZM933 1223Q905 1225 841 1248T700 1304T559 1367T466 1413Q446 1424 429 1438T412 1479Q412
1525 446 1543T520 1561Q559 1561 591 1557Q632 1508 704 1464T854 1380T989 1308Q974 1287 959 1267T933 1223Z" />
<glyph unicode="&#xed;" glyph-name="iacute" horiz-adv-x="908" d="M405 1020Q374 1005 332 991T245 978T162 1009T101 1114Q215 1110 299 1126T475 1143Q528 1143 554 1119T588 1059T594 982T588 909Q581 845 563 758T525 582Q518 551 506 497T484 382T478 264T506
173T586 137Q627 137 684 140T795 158T880 203L882 205V202Q882 113 830 64T702 -6T553 -26Q432 -26 370 16T289 129T278 284T308 455T348 616Q371 711 389 810T405 1020ZM448 1222L400 1301Q458 1332 537 1373T691 1461T806 1557Q837 1561 875 1561Q904 1561 939
1549T974 1500Q949 1484 896 1452T775 1382T642 1309T523 1249T448 1222Z" />
<glyph unicode="&#xee;" glyph-name="icircumflex" horiz-adv-x="908" d="M405 1020Q374 1005 332 991T245 978T162 1009T101 1114Q215 1110 299 1126T475 1143Q528 1143 554 1119T588 1059T594 982T588 909Q581 845 563 758T525 582Q518 551 506 497T484 382T478
264T506 173T586 137Q627 137 684 140T795 158T880 203L882 205V202Q882 113 830 64T702 -6T553 -26Q432 -26 370 16T289 129T278 284T308 455T348 616Q371 711 389 810T405 1020ZM355 1222Q346 1244 332 1262T304 1299Q364 1331 436 1371T573 1458T681 1558Q712
1558 766 1552T846 1532Q865 1493 910 1450T1005 1370T1093 1307Q1079 1287 1068 1265T1043 1222Q1006 1230 950 1260T838 1324T744 1377Q711 1368 656 1343T539 1291T428 1243T355 1222Z" />
<glyph unicode="&#xef;" glyph-name="idieresis" horiz-adv-x="908" d="M405 1020Q374 1005 332 991T245 978T162 1009T101 1114Q215 1110 299 1126T475 1143Q528 1143 554 1119T588 1059T594 982T588 909Q581 845 563 758T525 582Q518 551 506 497T484 382T478
264T506 173T586 137Q627 137 684 140T795 158T880 203L882 205V202Q882 113 830 64T702 -6T553 -26Q432 -26 370 16T289 129T278 284T308 455T348 616Q371 711 389 810T405 1020ZM393 1250Q349 1250 324 1267T299 1333Q299 1368 307 1402T325 1470Q354 1484 386
1494T452 1504Q496 1504 524 1485T553 1417Q553 1382 541 1349T517 1283Q488 1269 457 1260T393 1250ZM938 1250Q894 1250 870 1267T845 1332Q845 1367 853 1401T870 1470Q901 1483 932 1493T998 1504Q1042 1504 1070 1484T1098 1416Q1098 1381 1087 1348T1062
1283Q1033 1270 1002 1260T938 1250Z" />
<glyph unicode="&#xf0;" glyph-name="eth" horiz-adv-x="1367" d="M725 1233Q726 1280 781 1315T919 1379Q812 1432 659 1432Q585 1432 494 1417T344 1352Q320 1361 311 1383T302 1428Q302 1509 350 1547T468 1597T600 1609Q673 1609 746 1596T886 1554Q939 1532
986 1501T1075 1430Q1166 1458 1252 1488T1393 1559Q1414 1553 1421 1535T1429 1497Q1429 1433 1383 1396T1284 1336Q1261 1326 1238 1317T1189 1299Q1214 1265 1236 1229T1278 1157Q1334 1053 1363 948T1393 723Q1393 505 1304 335T1050 68T664 -29Q528 -29 415
19T235 165T167 409Q167 541 221 657T368 863T579 1002T828 1053Q938 1053 1039 1015T1222 903Q1221 959 1205 1011T1163 1113Q1118 1200 1068 1259Q991 1234 916 1209T776 1149Q751 1156 738 1180T725 1233ZM790 136Q917 136 1014 189T1166 339T1221 562Q1221
692 1160 769T999 881T784 916Q658 916 562 862T412 712T358 489Q358 361 418 284T577 171T790 136Z" />
<glyph unicode="&#xf1;" glyph-name="ntilde" horiz-adv-x="1652" d="M548 933Q548 845 534 760T504 588Q568 686 650 785T827 968T1024 1103T1230 1155Q1375 1156 1434 1074T1493 857Q1493 747 1470 638T1447 419Q1447 318 1480 227T1597 72Q1578 58 1547 38T1482
3T1425 -13Q1365 -13 1330 17T1276 96T1251 198T1245 296Q1245 395 1263 485T1301 657T1320 811Q1320 866 1291 892T1217 928T1130 937Q1041 937 946 885T762 746T604 559T497 357T466 179Q474 133 500 90T556 13Q516 3 475 -5T391 -13Q336 -13 309 19T272 98T263
188Q263 287 282 386T319 585T338 787Q338 871 318 949T242 1094Q277 1111 321 1127T404 1143Q464 1143 495 1111T537 1031T548 933ZM663 1249Q642 1255 633 1272T624 1310Q624 1363 652 1414T727 1500T829 1534Q890 1534 941 1507T1045 1453T1163 1425Q1222 1425
1261 1448T1312 1533Q1333 1527 1342 1510T1351 1472Q1351 1420 1323 1368T1248 1282T1146 1248Q1086 1248 1035 1275T931 1330T812 1357Q754 1357 715 1334T663 1249Z" />
<glyph unicode="&#xf2;" glyph-name="ograve" horiz-adv-x="1373" d="M636 -29Q497 -29 386 26T211 183T147 430Q147 580 206 712T369 945T606 1103T888 1161Q1027 1161 1137 1107T1311 949T1375 702Q1375 552 1316 420T1154 187T918 29T636 -29ZM760 136Q898
136 992 201T1135 374T1183 612Q1183 741 1127 825T974 952T756 994Q624 994 531 931T390 762T341 531Q341 336 457 236T760 136ZM1154 1223Q1126 1225 1062 1248T921 1304T780 1367T687 1413Q667 1424 650 1438T633 1479Q633 1525 667 1543T741 1561Q780 1561
812 1557Q853 1508 925 1464T1075 1380T1210 1308Q1195 1287 1180 1267T1154 1223Z" />
<glyph unicode="&#xf3;" glyph-name="oacute" horiz-adv-x="1373" d="M636 -29Q497 -29 386 26T211 183T147 430Q147 580 206 712T369 945T606 1103T888 1161Q1027 1161 1137 1107T1311 949T1375 702Q1375 552 1316 420T1154 187T918 29T636 -29ZM760 136Q898
136 992 201T1135 374T1183 612Q1183 741 1127 825T974 952T756 994Q624 994 531 931T390 762T341 531Q341 336 457 236T760 136ZM669 1222L621 1301Q679 1332 758 1373T912 1461T1027 1557Q1058 1561 1096 1561Q1125 1561 1160 1549T1195 1500Q1170 1484 1117
1452T996 1382T863 1309T744 1249T669 1222Z" />
<glyph unicode="&#xf4;" glyph-name="ocircumflex" horiz-adv-x="1373" d="M636 -29Q497 -29 386 26T211 183T147 430Q147 580 206 712T369 945T606 1103T888 1161Q1027 1161 1137 1107T1311 949T1375 702Q1375 552 1316 420T1154 187T918 29T636 -29ZM760 136Q898
136 992 201T1135 374T1183 612Q1183 741 1127 825T974 952T756 994Q624 994 531 931T390 762T341 531Q341 336 457 236T760 136ZM576 1222Q567 1244 553 1262T525 1299Q585 1331 657 1371T794 1458T902 1558Q933 1558 987 1552T1067 1532Q1086 1493 1131 1450T1226
1370T1314 1307Q1300 1287 1289 1265T1264 1222Q1227 1230 1171 1260T1059 1324T965 1377Q932 1368 877 1343T760 1291T649 1243T576 1222Z" />
<glyph unicode="&#xf5;" glyph-name="otilde" horiz-adv-x="1373" d="M636 -29Q497 -29 386 26T211 183T147 430Q147 580 206 712T369 945T606 1103T888 1161Q1027 1161 1137 1107T1311 949T1375 702Q1375 552 1316 420T1154 187T918 29T636 -29ZM760 136Q898
136 992 201T1135 374T1183 612Q1183 741 1127 825T974 952T756 994Q624 994 531 931T390 762T341 531Q341 336 457 236T760 136ZM588 1249Q567 1255 558 1272T549 1310Q549 1363 577 1414T652 1500T754 1534Q815 1534 866 1507T970 1453T1088 1425Q1147 1425 1186
1448T1237 1533Q1258 1527 1267 1510T1276 1472Q1276 1420 1248 1368T1173 1282T1071 1248Q1011 1248 960 1275T856 1330T737 1357Q679 1357 640 1334T588 1249Z" />
<glyph unicode="&#xf6;" glyph-name="odieresis" horiz-adv-x="1373" d="M636 -29Q497 -29 386 26T211 183T147 430Q147 580 206 712T369 945T606 1103T888 1161Q1027 1161 1137 1107T1311 949T1375 702Q1375 552 1316 420T1154 187T918 29T636 -29ZM760 136Q898
136 992 201T1135 374T1183 612Q1183 741 1127 825T974 952T756 994Q624 994 531 931T390 762T341 531Q341 336 457 236T760 136ZM614 1250Q570 1250 545 1267T520 1333Q520 1368 528 1402T546 1470Q575 1484 607 1494T673 1504Q717 1504 745 1485T774 1417Q774
1382 762 1349T738 1283Q709 1269 678 1260T614 1250ZM1159 1250Q1115 1250 1091 1267T1066 1332Q1066 1367 1074 1401T1091 1470Q1122 1483 1153 1493T1219 1504Q1263 1504 1291 1484T1319 1416Q1319 1381 1308 1348T1283 1283Q1254 1270 1223 1260T1159 1250Z"
/>
<glyph unicode="&#xf7;" glyph-name="divide" horiz-adv-x="1382" d="M790 948Q739 948 704 967T668 1045Q668 1086 677 1125T697 1203Q737 1217 778 1226T861 1235Q913 1235 953 1215T993 1134Q993 1093 978 1055T946 979Q908 967 869 958T790 948ZM219 630Q209
651 199 676T189 724Q189 776 222 808T307 840Q472 840 637 832T968 823Q1031 823 1093 824T1219 827Q1252 828 1284 829T1349 838Q1337 818 1307 785T1238 717T1163 660T1103 636Q926 636 749 639T394 643Q350 643 307 641T219 630ZM687 232Q635 232 600 250T564
329Q564 370 574 409T594 487Q634 501 675 510T759 519Q811 519 851 498T891 417Q891 376 876 338T843 263Q805 251 766 242T687 232Z" />
<glyph unicode="&#xf8;" glyph-name="oslash" horiz-adv-x="1373" d="M636 -29Q634 -29 633 -29Q592 -117 544 -172T441 -227Q410 -227 376 -210T317 -174Q363 -137 402 -95T475 -8Q329 32 238 145T147 430Q147 580 206 712T369 945T606 1103T888 1161H891Q936
1265 993 1332T1125 1399Q1164 1399 1183 1359T1205 1286Q1144 1267 1099 1231T1020 1147Q1177 1113 1276 998T1375 702Q1375 552 1316 420T1154 187T918 29T636 -29ZM341 531Q341 388 404 296T578 165Q635 281 666 388T717 568Q741 660 768 771T829 990Q794 994
756 994Q624 994 531 931T390 762T341 531ZM760 136Q898 136 992 201T1135 374T1183 612Q1183 755 1114 843T930 969Q908 905 893 846T863 741Q845 682 821 583T766 367T698 139Q728 136 760 136Z" />
<glyph unicode="&#xf9;" glyph-name="ugrave" horiz-adv-x="1599" d="M536 -28Q388 -28 323 47T257 264Q257 360 276 454T315 642T335 832Q335 906 315 971T246 1093Q281 1110 325 1126T409 1143Q480 1143 512 1107T544 1002Q544 970 539 938T528 874Q504 749
471 610T438 344Q438 239 481 206T624 173Q711 173 792 224T946 354T1075 518T1168 672Q1184 703 1206 749T1244 844T1261 926Q1261 972 1240 1015T1193 1096Q1227 1112 1271 1127T1352 1143Q1426 1143 1458 1104T1491 994Q1491 910 1469 825T1426 652T1404 476Q1404
362 1444 257T1567 72Q1540 50 1491 19T1406 -13Q1328 -13 1286 36T1229 164T1214 331T1226 499T1243 629Q1204 569 1146 485T1015 311T862 145T698 20T536 -28ZM1241 1223Q1213 1225 1149 1248T1008 1304T867 1367T774 1413Q754 1424 737 1438T720 1479Q720 1525
754 1543T828 1561Q867 1561 899 1557Q940 1508 1012 1464T1162 1380T1297 1308Q1282 1287 1267 1267T1241 1223Z" />
<glyph unicode="&#xfa;" glyph-name="uacute" horiz-adv-x="1599" d="M536 -28Q388 -28 323 47T257 264Q257 360 276 454T315 642T335 832Q335 906 315 971T246 1093Q281 1110 325 1126T409 1143Q480 1143 512 1107T544 1002Q544 970 539 938T528 874Q504 749
471 610T438 344Q438 239 481 206T624 173Q711 173 792 224T946 354T1075 518T1168 672Q1184 703 1206 749T1244 844T1261 926Q1261 972 1240 1015T1193 1096Q1227 1112 1271 1127T1352 1143Q1426 1143 1458 1104T1491 994Q1491 910 1469 825T1426 652T1404 476Q1404
362 1444 257T1567 72Q1540 50 1491 19T1406 -13Q1328 -13 1286 36T1229 164T1214 331T1226 499T1243 629Q1204 569 1146 485T1015 311T862 145T698 20T536 -28ZM756 1222L708 1301Q766 1332 845 1373T999 1461T1114 1557Q1145 1561 1183 1561Q1212 1561 1247 1549T1282
1500Q1257 1484 1204 1452T1083 1382T950 1309T831 1249T756 1222Z" />
<glyph unicode="&#xfb;" glyph-name="ucircumflex" horiz-adv-x="1599" d="M536 -28Q388 -28 323 47T257 264Q257 360 276 454T315 642T335 832Q335 906 315 971T246 1093Q281 1110 325 1126T409 1143Q480 1143 512 1107T544 1002Q544 970 539 938T528 874Q504
749 471 610T438 344Q438 239 481 206T624 173Q711 173 792 224T946 354T1075 518T1168 672Q1184 703 1206 749T1244 844T1261 926Q1261 972 1240 1015T1193 1096Q1227 1112 1271 1127T1352 1143Q1426 1143 1458 1104T1491 994Q1491 910 1469 825T1426 652T1404
476Q1404 362 1444 257T1567 72Q1540 50 1491 19T1406 -13Q1328 -13 1286 36T1229 164T1214 331T1226 499T1243 629Q1204 569 1146 485T1015 311T862 145T698 20T536 -28ZM663 1222Q654 1244 640 1262T612 1299Q672 1331 744 1371T881 1458T989 1558Q1020 1558
1074 1552T1154 1532Q1173 1493 1218 1450T1313 1370T1401 1307Q1387 1287 1376 1265T1351 1222Q1314 1230 1258 1260T1146 1324T1052 1377Q1019 1368 964 1343T847 1291T736 1243T663 1222Z" />
<glyph unicode="&#xfc;" glyph-name="udieresis" horiz-adv-x="1599" d="M536 -28Q388 -28 323 47T257 264Q257 360 276 454T315 642T335 832Q335 906 315 971T246 1093Q281 1110 325 1126T409 1143Q480 1143 512 1107T544 1002Q544 970 539 938T528 874Q504 749
471 610T438 344Q438 239 481 206T624 173Q711 173 792 224T946 354T1075 518T1168 672Q1184 703 1206 749T1244 844T1261 926Q1261 972 1240 1015T1193 1096Q1227 1112 1271 1127T1352 1143Q1426 1143 1458 1104T1491 994Q1491 910 1469 825T1426 652T1404 476Q1404
362 1444 257T1567 72Q1540 50 1491 19T1406 -13Q1328 -13 1286 36T1229 164T1214 331T1226 499T1243 629Q1204 569 1146 485T1015 311T862 145T698 20T536 -28ZM701 1250Q657 1250 632 1267T607 1333Q607 1368 615 1402T633 1470Q662 1484 694 1494T760 1504Q804
1504 832 1485T861 1417Q861 1382 849 1349T825 1283Q796 1269 765 1260T701 1250ZM1246 1250Q1202 1250 1178 1267T1153 1332Q1153 1367 1161 1401T1178 1470Q1209 1483 1240 1493T1306 1504Q1350 1504 1378 1484T1406 1416Q1406 1381 1395 1348T1370 1283Q1341
1270 1310 1260T1246 1250Z" />
<glyph unicode="&#xfd;" glyph-name="yacute" horiz-adv-x="1178" d="M182 -417Q142 -417 93 -412T-1 -389T-76 -340T-106 -255Q-106 -244 -100 -213T-84 -162Q-28 -207 56 -221T220 -235Q330 -235 427 -207T599 -112Q656 -60 711 17Q635 49 594 122T520 301T431
535Q411 583 375 655T290 801T187 926T72 983Q87 1015 113 1051T173 1112T243 1138Q293 1138 346 1083T452 936T553 732T644 504T719 287T772 114Q829 212 876 321T961 536T1025 732Q1048 809 1061 892T1025 1048Q1053 1077 1094 1105T1177 1133Q1219 1133 1236
1109T1253 1046Q1253 971 1222 878T1163 713Q1107 571 1034 414T869 107T659 -163Q599 -224 523 -282T359 -379T182 -417ZM564 1222L516 1301Q574 1332 653 1373T807 1461T922 1557Q953 1561 991 1561Q1020 1561 1055 1549T1090 1500Q1065 1484 1012 1452T891 1382T758
1309T639 1249T564 1222Z" />
<glyph unicode="&#xfe;" glyph-name="thorn" horiz-adv-x="1252" d="M617 1387Q617 1315 602 1219T563 1013T512 793Q545 848 591 911T691 1031T805 1124T926 1160Q1026 1160 1090 1118T1191 1005T1241 853T1256 690Q1256 561 1221 434T1115 203T939 37T694 -25Q604
-25 527 13T374 97Q370 70 368 47T365 11Q365 -95 385 -190T455 -357Q432 -382 394 -413T321 -445Q260 -445 230 -390T190 -256T180 -105Q180 6 202 115T250 331Q290 497 325 659T383 968T406 1235Q406 1305 398 1376T359 1511Q388 1529 424 1545T495 1561Q545
1561 571 1535T607 1468T617 1387ZM393 233Q392 224 390 209Q458 177 535 154T681 131Q811 131 898 194T1029 362T1073 593Q1073 646 1065 706T1034 820T970 908T864 943Q799 943 740 901T629 790T535 638T459 472T404 320Q403 314 402 307L393 233Z" />
<glyph unicode="&#xff;" glyph-name="ydieresis" horiz-adv-x="1178" d="M182 -417Q142 -417 93 -412T-1 -389T-76 -340T-106 -255Q-106 -244 -100 -213T-84 -162Q-28 -207 56 -221T220 -235Q330 -235 427 -207T599 -112Q656 -60 711 17Q635 49 594 122T520 301T431
535Q411 583 375 655T290 801T187 926T72 983Q87 1015 113 1051T173 1112T243 1138Q293 1138 346 1083T452 936T553 732T644 504T719 287T772 114Q829 212 876 321T961 536T1025 732Q1048 809 1061 892T1025 1048Q1053 1077 1094 1105T1177 1133Q1219 1133 1236
1109T1253 1046Q1253 971 1222 878T1163 713Q1107 571 1034 414T869 107T659 -163Q599 -224 523 -282T359 -379T182 -417ZM509 1250Q465 1250 440 1267T415 1333Q415 1368 423 1402T441 1470Q470 1484 502 1494T568 1504Q612 1504 640 1485T669 1417Q669 1382 657
1349T633 1283Q604 1269 573 1260T509 1250ZM1054 1250Q1010 1250 986 1267T961 1332Q961 1367 969 1401T986 1470Q1017 1483 1048 1493T1114 1504Q1158 1504 1186 1484T1214 1416Q1214 1381 1203 1348T1178 1283Q1149 1270 1118 1260T1054 1250Z" />
<glyph unicode="&#x2013;" glyph-name="endash" horiz-adv-x="1024" d="M176 626Q171 633 168 640T160 655Q150 678 146 703T147 757Q155 795 191 809T259 824Q332 824 375 822T447 818T505 812T577 807T693 805Q757 805 837 806T999 816T1143 846Q1178 800 1167
743Q1159 700 1119 681T1032 658T955 653Q867 653 808 653T704 655T613 658T508 659T361 660Q316 660 268 655T176 626Z" />
<glyph unicode="&#x2014;" glyph-name="emdash" horiz-adv-x="2048" d="M176 626Q171 633 168 640T160 655Q150 678 146 703T147 757Q155 795 191 809T259 824Q332 824 375 822T447 818T505 812T577 807T693 805Q720 805 807 805T1019 805T1288 807T1577 812T1847
819T2059 830T2173 846Q2208 800 2197 743Q2189 700 2149 681T2062 658T1985 653Q1912 653 1785 653T1499 655T1173 656T847 658T562 659T361 660Q316 660 268 655T176 626Z" />
<glyph unicode="&#x2018;" glyph-name="quoteleft" horiz-adv-x="584" d="M678 1523Q704 1523 714 1508T724 1469Q724 1452 723 1436T721 1403Q678 1401 621 1389T520 1345T476 1259Q476 1210 518 1168T607 1118Q558 1092 487 1062T361 1032Q307 1032 286 1067T265
1150Q265 1228 301 1295T397 1414T531 1494T678 1523Z" />
<glyph unicode="&#x2019;" glyph-name="quoteright" horiz-adv-x="584" d="M281 1032Q255 1032 245 1047T235 1086Q235 1103 236 1119T238 1152Q281 1154 338 1166T439 1210T483 1296Q483 1345 441 1387T352 1437Q401 1463 472 1493T598 1523Q652 1523 673 1488T694
1405Q694 1327 658 1260T562 1141T428 1061T281 1032Z" />
<glyph unicode="&#x201a;" glyph-name="quotesinglbase" horiz-adv-x="714" d="M161 -226Q135 -226 125 -211T115 -172Q115 -155 116 -139T118 -106Q161 -104 218 -92T319 -48T363 38Q363 87 321 129T232 179Q281 205 352 235T478 265Q532 265 553 230T574 147Q574
69 538 2T442 -117T308 -197T161 -226Z" />
<glyph unicode="&#x201c;" glyph-name="quotedblleft" horiz-adv-x="1044" d="M1162 1523Q1188 1523 1198 1508T1208 1469Q1208 1453 1207 1437T1205 1403Q1163 1402 1105 1389T1004 1346T960 1259Q960 1210 1002 1168T1091 1118Q1042 1092 972 1062T845 1032Q791
1032 770 1067T749 1150Q749 1228 785 1295T881 1414T1015 1494T1162 1523ZM648 1523Q674 1523 684 1508T694 1469Q694 1453 693 1437T691 1403Q649 1402 591 1389T490 1346T446 1259Q446 1210 488 1168T577 1118Q528 1092 458 1062T331 1032Q277 1032 256 1067T235
1150Q235 1228 271 1295T367 1414T501 1494T648 1523Z" />
<glyph unicode="&#x201d;" glyph-name="quotedblright" horiz-adv-x="1044" d="M281 1032Q255 1032 245 1047T235 1086Q235 1103 236 1119T238 1152Q281 1154 338 1166T439 1210T483 1296Q483 1345 441 1387T352 1437Q401 1463 472 1493T598 1523Q652 1523 673
1488T694 1405Q694 1327 658 1260T562 1141T428 1061T281 1032ZM795 1032Q769 1032 759 1047T749 1086Q749 1103 750 1119T752 1152Q795 1154 852 1166T953 1210T997 1296Q997 1345 955 1387T866 1437Q915 1463 986 1493T1112 1523Q1166 1523 1187 1488T1208 1405Q1208
1327 1172 1260T1076 1141T942 1061T795 1032Z" />
<glyph unicode="&#x201e;" glyph-name="quotedblbase" horiz-adv-x="1173" d="M99 -226Q73 -226 63 -211T53 -172Q53 -155 54 -139T56 -106Q99 -104 156 -92T257 -48T301 38Q301 87 259 129T170 179Q219 205 290 235T416 265Q470 265 491 230T512 147Q512 69 476
2T380 -117T246 -197T99 -226ZM613 -226Q587 -226 577 -211T567 -172Q567 -155 568 -139T570 -106Q613 -104 670 -92T771 -48T815 38Q815 87 773 129T684 179Q733 205 804 235T930 265Q984 265 1005 230T1026 147Q1026 69 990 2T894 -117T760 -197T613 -226Z" />
<glyph unicode="&#x2022;" glyph-name="bullet" horiz-adv-x="1382" d="M695 471Q645 471 598 480T520 520T490 613Q490 663 502 713T527 811Q592 833 658 847T793 861Q841 861 892 851T979 811T1015 719Q1015 670 995 619T952 523Q890 501 826 486T695 471Z" />
<glyph unicode="&#x2039;" glyph-name="guilsinglleft" horiz-adv-x="1036" d="M677 170Q614 170 583 192T540 251T525 332T513 422Q504 471 469 503T384 555T283 586T191 605Q238 615 303 632T427 678T513 748Q539 787 550 837T578 934T633 1011T749 1042Q800
1042 855 1026T960 993Q833 949 770 907T684 824T653 746T633 674T573 609Q599 591 614 545T645 441T688 331T763 247T894 222Q845 208 786 189T677 170Z" />
<glyph unicode="&#x203a;" glyph-name="guilsinglright" horiz-adv-x="1036" d="M474 170Q424 170 365 189T257 222Q339 215 387 246T463 330T505 440T536 544T578 609Q532 639 519 673T498 745T468 823T381 906T191 993Q240 1009 295 1025T402 1042Q480 1042
518 1012T572 934T600 837T638 748Q665 707 724 679T848 633T960 605Q920 598 869 587T768 555T683 503T638 422Q630 377 627 333T612 252T569 193T474 170Z" />
</font>
</defs>
</svg>
