<?xml version="1.0" standalone="no"?>
<!DOCTYPE svg PUBLIC "-//W3C//DTD SVG 1.1//EN" "http://www.w3.org/Graphics/SVG/1.1/DTD/svg11.dtd">
<svg xmlns="http://www.w3.org/2000/svg">
<defs >
<font id="Shanti" horiz-adv-x="1098" ><font-face
    font-family="Shanti"
    units-per-em="2048"
    panose-1="0 0 0 0 0 0 0 0 0 0"
    ascent="2012"
    descent="-599"
    alphabetic="0" />
<glyph unicode=" " glyph-name="space" horiz-adv-x="525" />
<glyph unicode="!" glyph-name="exclam" horiz-adv-x="530" d="M209 339V1394H369L321 339H209ZM161 0V211H369V0H161Z" />
<glyph unicode="&quot;" glyph-name="quotedbl" horiz-adv-x="762" d="M169 875L123 1377H308V875H169ZM474 875V1377H638L593 875H474Z" />
<glyph unicode="#" glyph-name="numbersign" horiz-adv-x="1274" d="M226 0L300 393H85V539H327L381 824H159V971H409L483 1377H644L568 971H813L888 1377H1048L969 971H1187V824H943L888 539H1113V393H861L787 0H627L701 393H459L384 0H226ZM486 539H729L784
824H540L486 539Z" />
<glyph unicode="$" glyph-name="dollar" horiz-adv-x="1099" d="M484 -161V39Q353 41 247 96T90 285Q120 307 148 325T206 365Q238 314 304 264T484 207V629Q344 672 263 720T148 836T113 1002Q113 1107 165 1177T302 1287T487 1339V1503H611V1342Q655 1339 710
1330T821 1298T919 1234T983 1124L838 1058Q808 1118 748 1144T610 1178V787Q706 758 796 713T946 596T1005 409Q1005 297 951 221T806 101T607 43V-161H484ZM486 826V1175Q409 1161 370 1132T318 1069T305 1009Q305 932 356 893T486 826ZM610 212Q714 224 761
279T808 396Q808 474 749 517T610 590V212Z" />
<glyph unicode="%" glyph-name="percent" horiz-adv-x="1643" d="M330 -40L1156 1418H1305Q1097 1048 894 688T480 -40H330ZM387 616Q252 616 167 714T82 1008Q82 1187 159 1296T396 1405Q502 1405 567 1354T664 1215T695 1015Q695 820 612 718T387 616ZM389 748Q453
748 485 790T527 893T538 1010Q538 1117 507 1194T389 1272Q323 1272 291 1231T248 1129T238 1009Q238 951 248 891T290 789T389 748ZM1255 -22Q1143 -22 1076 31T980 175T950 372Q950 565 1033 666T1255 768Q1302 768 1355 751T1455 690T1532 570T1562 377Q1562
194 1488 86T1255 -22ZM1254 112Q1318 112 1351 151T1396 250T1408 375Q1408 438 1396 498T1351 598T1256 638Q1191 638 1159 595T1116 488T1106 362Q1106 298 1117 241T1161 148T1254 112Z" />
<glyph unicode="&amp;" glyph-name="ampersand" horiz-adv-x="1452" d="M552 -22Q336 -22 217 89T97 377Q97 480 135 556T237 692T380 807Q329 863 279 943T228 1135Q228 1279 324 1364T598 1449Q697 1449 779 1417T910 1319T959 1150Q959 1060 916 989T809 866T687
775L1015 441Q1065 513 1090 596T1126 812H1319Q1305 645 1263 532T1138 315L1444 1H1185L1014 171Q914 81 805 30T552 -22ZM563 902Q634 948 696 1009T758 1147Q758 1198 719 1241T598 1285Q522 1285 475 1244T428 1140Q428 1083 462 1026T563 902ZM568 151Q685
151 762 197T889 293Q825 354 762 418T638 545L505 684Q397 608 349 539T300 383Q300 302 339 251T441 176T568 151Z" />
<glyph unicode="&apos;" glyph-name="quotesingle" horiz-adv-x="437" d="M149 875V1377H312L267 875H149Z" />
<glyph unicode="(" glyph-name="parenleft" horiz-adv-x="579" d="M358 -261Q285 -136 227 6T134 299T100 598Q100 757 138 917T234 1216T353 1449H508Q444 1327 395 1180T317 883T288 601Q288 459 312 326T385 50T511 -261H358Z" />
<glyph unicode=")" glyph-name="parenright" horiz-adv-x="579" d="M72 -261Q168 -68 229 144T290 582Q290 726 266 860T193 1137T67 1449H220Q294 1323 352 1179T445 883T479 583Q479 426 441 266T345 -32T227 -261H72Z" />
<glyph unicode="*" glyph-name="asterisk" horiz-adv-x="948" d="M336 677L210 754L340 969H109V1118H341L211 1334L336 1411L473 1183L610 1411L737 1334L604 1118H839V969H603L736 754L610 677L473 904L336 677Z" />
<glyph unicode="+" glyph-name="plus" horiz-adv-x="1200" d="M517 114V505H126V665H517V1058H681V665H1074V505H681V114H517Z" />
<glyph unicode="," glyph-name="comma" horiz-adv-x="519" d="M57 -248L169 244H391L197 -248H57Z" />
<glyph unicode="-" glyph-name="hyphen" horiz-adv-x="776" d="M143 439V606H632V439H143Z" />
<glyph unicode="." glyph-name="period" horiz-adv-x="518" d="M143 0V239H374V0H143Z" />
<glyph unicode="/" glyph-name="slash" horiz-adv-x="792" d="M73 -26L562 1442H719L234 -26H73Z" />
<glyph unicode="0" glyph-name="zero" horiz-adv-x="1164" d="M582 -26Q467 -26 388 19T258 140T180 311T142 509T131 708Q131 804 141 906T179 1104T257 1276T387 1397T582 1442Q717 1442 805 1378T943 1207T1013 970T1034 708Q1034 576 1014 446T943 209T805
38T582 -26ZM583 149Q681 149 737 217T818 411T842 708Q842 970 786 1119T583 1268Q477 1268 420 1192T342 989T321 708Q321 558 342 431T420 226T583 149Z" />
<glyph unicode="1" glyph-name="one" horiz-adv-x="757" d="M372 0V1196Q291 1124 216 1074T87 993L42 1165Q73 1182 122 1216T225 1289T324 1362T391 1412H556V0H372Z" />
<glyph unicode="2" glyph-name="two" horiz-adv-x="1077" d="M99 0V174L443 572Q524 655 593 738T704 900T746 1049Q746 1099 726 1149T659 1234T532 1268Q450 1268 400 1237T322 1162T278 1077L114 1144Q179 1298 283 1370T548 1442Q655 1442 743 1402T885 1277T938
1062Q938 981 902 897T784 706T560 454L321 170H968V0H99Z" />
<glyph unicode="3" glyph-name="three" horiz-adv-x="1115" d="M516 -20Q410 -20 303 20T101 148L169 308Q242 232 337 192T519 152Q592 152 654 177T755 257T793 394Q793 503 737 557T595 631T418 650Q401 650 388 650T364 649H343V814Q350 813 358 813T376 812Q472
812 560 829T705 900T762 1063Q762 1153 694 1210T514 1268Q448 1268 367 1235T191 1127L95 1257Q195 1351 307 1396T525 1442Q642 1442 741 1399T899 1273T959 1072Q959 970 899 879T716 736Q827 701 886 637T967 505T990 389Q990 260 923 169T748 29T516 -20Z"
/>
<glyph unicode="4" glyph-name="four" horiz-adv-x="1149" d="M689 0V300H66V504L673 1412H875V472H1074V300H875V0H689ZM240 472H689V1180L625 1078L240 472Z" />
<glyph unicode="5" glyph-name="five" horiz-adv-x="1087" d="M488 -26Q355 -26 252 33T110 208L228 303Q252 249 297 215T395 165T494 149Q605 149 669 192T761 304T788 444Q788 578 715 649T506 720Q421 720 362 681T274 610L157 638V1412H897V1240H346L316
811Q358 837 417 859T555 882Q687 882 782 826T929 672T981 448Q981 234 851 104T488 -26Z" />
<glyph unicode="6" glyph-name="six" horiz-adv-x="1141" d="M587 -26Q425 -26 324 58T176 287T128 609Q128 718 142 834T192 1058T289 1253T443 1391T666 1442Q735 1442 815 1423T987 1361L927 1207Q855 1236 793 1252T677 1268Q551 1268 477 1203T369 1015T323
723Q365 789 442 836T625 883Q741 883 832 834T977 688T1031 449Q1031 297 971 191T810 30T587 -26ZM590 149Q656 149 713 179T806 273T842 440Q842 504 821 570T747 681T597 726Q511 726 451 686T360 584T328 453Q328 372 359 303T449 191T590 149Z" />
<glyph unicode="7" glyph-name="seven" horiz-adv-x="959" d="M180 0L704 1240H60V1412H904V1253L395 0H180Z" />
<glyph unicode="8" glyph-name="eight" horiz-adv-x="1163" d="M581 -26Q460 -26 356 15T189 141T125 358Q125 496 199 590T394 744Q282 799 221 885T159 1083Q159 1167 203 1250T341 1387T580 1442Q769 1442 887 1346T1005 1086Q1005 974 942 887T757 748Q819
716 883 668T992 547T1037 366Q1037 262 987 173T835 29T581 -26ZM581 833Q679 851 748 915T817 1082Q817 1168 755 1220T582 1273Q481 1273 415 1223T349 1082Q349 973 416 912T581 833ZM580 149Q677 149 734 181T817 265T843 372Q843 485 766 561T572 663Q457
633 388 554T318 366Q318 283 378 216T580 149Z" />
<glyph unicode="9" glyph-name="nine" horiz-adv-x="1133" d="M491 -26Q419 -26 339 -5T167 55L231 214Q381 149 480 149Q621 149 709 282T808 701Q760 619 677 584T513 548Q398 548 306 597T159 744T105 985Q105 1137 164 1238T320 1391T534 1442Q621 1442 704
1411T856 1305T964 1099T1004 768Q1004 510 939 333T759 65T491 -26ZM541 701Q620 701 677 738T766 837T798 970Q798 1100 727 1184T542 1268Q429 1268 362 1193T295 984Q295 853 360 777T541 701Z" />
<glyph unicode=":" glyph-name="colon" horiz-adv-x="518" d="M143 785V1024H374V785H143ZM143 0V239H374V0H143Z" />
<glyph unicode=";" glyph-name="semicolon" horiz-adv-x="579" d="M191 785V1024H422V785H191ZM97 -233L207 229H403L220 -233H97Z" />
<glyph unicode="&lt;" glyph-name="less" horiz-adv-x="1200" d="M1074 111L126 510V651L1074 1074V899L342 585L1074 289V111Z" />
<glyph unicode="=" glyph-name="equal" horiz-adv-x="1200" d="M126 700V860H1074V700H126ZM126 308V470H1074V308H126Z" />
<glyph unicode="&gt;" glyph-name="greater" horiz-adv-x="1200" d="M126 111V289L858 585L126 899V1074L1074 651V510L126 111Z" />
<glyph unicode="?" glyph-name="question" horiz-adv-x="882" d="M283 363V442Q283 509 292 559T328 657T412 760Q499 847 553 918T608 1073Q608 1152 568 1194T472 1252T372 1268Q327 1268 258 1254T95 1198L65 1373Q125 1399 203 1420T378 1442Q575 1442 689
1348T803 1086Q803 1003 779 943T705 826T580 700Q523 647 493 612T453 539T442 433V363H283ZM256 0V211H469V0H256Z" />
<glyph unicode="@" glyph-name="at" horiz-adv-x="1642" d="M834 -77Q612 -77 447 11T190 262T98 647Q98 831 159 978T329 1228T581 1387T888 1442Q1070 1442 1221 1370T1463 1156T1554 807Q1554 666 1504 551T1371 368T1185 300Q1109 300 1066 345T1019 485Q990
441 954 399T869 328T750 300Q631 300 550 381T469 601Q469 723 512 835T643 1018T862 1090Q968 1090 1058 1000Q1057 1011 1060 1023T1065 1045L1069 1068L1208 1049L1134 646Q1126 608 1123 577T1120 521Q1120 461 1141 437T1209 413Q1268 413 1318 465T1400
608T1431 813Q1431 983 1357 1096T1160 1265T888 1322Q694 1322 543 1240T307 1007T221 647Q221 457 297 322T511 114T837 42Q975 42 1094 84T1316 183L1347 72Q1237 6 1113 -35T834 -77ZM782 423Q844 423 882 456T943 540T979 642T1002 733L1038 940L969 954Q941
959 918 964T880 969Q796 969 738 915T648 781T617 626Q619 529 661 476T782 423Z" />
<glyph unicode="A" glyph-name="A" horiz-adv-x="1295" d="M19 0V64L553 1412H746L1273 59V0H1084L932 396H349L195 0H19ZM414 568H869L739 928L644 1198L547 928L414 568Z" />
<glyph unicode="B" glyph-name="B" horiz-adv-x="1269" d="M190 0V1412H615Q853 1412 987 1333T1122 1054Q1122 970 1089 908T1002 804T892 740Q958 720 1020 682T1122 575T1163 399Q1163 284 1121 207T1005 84T840 20T648 0H190ZM387 821H637Q703 821 768 836T876
898T919 1037Q919 1129 878 1172T772 1229T631 1242H387V821ZM386 170H678Q817 174 887 232T958 410Q958 512 892 579T677 647H386V170Z" />
<glyph unicode="C" glyph-name="C" horiz-adv-x="1236" d="M730 -26Q562 -26 444 34T250 201T140 444T105 735Q105 919 160 1052T306 1272T507 1400T730 1442Q840 1442 938 1403T1105 1286T1196 1095L1009 1051Q993 1155 914 1211T732 1268Q659 1268 585 1238T450
1144T351 979T313 737Q313 625 333 520T402 331T535 198T749 149Q895 149 1096 247L1162 93Q925 -26 730 -26Z" />
<glyph unicode="D" glyph-name="D" horiz-adv-x="1400" d="M190 0V1412H592Q796 1412 953 1340T1200 1112T1289 706Q1289 505 1234 370T1080 153T850 36T568 0H190ZM385 170H554Q830 174 955 299T1080 699Q1080 953 969 1097T595 1242H385V170Z" />
<glyph unicode="E" glyph-name="E" horiz-adv-x="1138" d="M190 0V1412H1008V1242H386V818H973V643H386V170H1017V0H190Z" />
<glyph unicode="F" glyph-name="F" horiz-adv-x="1076" d="M191 0V1412H986V1242H391V789H950V614H391V0H191Z" />
<glyph unicode="G" glyph-name="G" horiz-adv-x="1368" d="M752 -26Q532 -26 389 68T175 326T105 700Q105 910 163 1053T317 1281T529 1404T763 1442Q828 1442 899 1426T1034 1371T1144 1265T1203 1093L1027 1051Q1002 1161 932 1214T767 1268Q683 1268 603 1242T457
1152T352 980T313 704Q313 537 358 412T506 218T785 149Q867 149 924 157T1027 175H1041V751H1231V54Q1132 23 1017 -1T752 -26Z" />
<glyph unicode="H" glyph-name="H" horiz-adv-x="1417" d="M191 0V1412H388V818H1029V1412H1226V0H1029V640H388V0H191Z" />
<glyph unicode="I" glyph-name="I" horiz-adv-x="577" d="M191 0V1412H387V0H191Z" />
<glyph unicode="J" glyph-name="J" horiz-adv-x="575" d="M76 -273Q-37 -273 -152 -208L-117 -57Q-78 -77 -41 -89T31 -102Q100 -102 145 -56T191 125V1412H385V126Q385 -12 343 -100T231 -230T76 -273Z" />
<glyph unicode="K" glyph-name="K" horiz-adv-x="1231" d="M191 0V1412H387V769L494 896L948 1412H1200L626 785L1244 0H988L443 706L387 636V0H191Z" />
<glyph unicode="L" glyph-name="L" horiz-adv-x="1025" d="M190 0V1412H387V170H991V0H190Z" />
<glyph unicode="M" glyph-name="M" horiz-adv-x="1789" d="M190 0V1412H505L889 252L1296 1412H1599V0H1404V735Q1404 749 1404 794T1404 902T1406 1028T1408 1146L1384 1150L971 0H797L398 1139L373 1135Q374 1082 375 1018T377 894T378 788T379 728V0H190Z" />
<glyph unicode="N" glyph-name="N" horiz-adv-x="1487" d="M191 0V1412H437L1096 305L1118 310Q1117 358 1116 424T1114 558T1113 675T1112 742V1412H1296V0H1059L387 1123L366 1118Q368 1069 369 1001T370 865T371 744T372 675V0H191Z" />
<glyph unicode="O" glyph-name="O" horiz-adv-x="1483" d="M742 -26Q568 -26 448 33T253 194T146 428T112 703Q112 850 147 983T258 1219T454 1382T742 1442Q911 1442 1030 1383T1225 1220T1336 983T1371 703Q1371 559 1338 428T1231 195T1037 33T742 -26ZM742
149Q866 149 948 193T1077 316T1144 495T1164 708Q1164 864 1126 991T996 1193T742 1268Q581 1268 489 1193T358 991T319 708Q319 596 339 495T406 316T535 194T742 149Z" />
<glyph unicode="P" glyph-name="P" horiz-adv-x="1160" d="M191 0V1412H608Q749 1412 860 1374T1036 1247T1101 1010Q1101 897 1053 801T889 646T571 587H387V0H191ZM387 757H482Q558 757 631 761T765 788T860 863T896 1010Q896 1109 854 1158T744 1225T601 1242H387V757Z"
/>
<glyph unicode="Q" glyph-name="Q" horiz-adv-x="1467" d="M1305 -180Q1166 -125 1032 -89T752 -24Q738 -25 725 -25T698 -26Q521 -26 389 60T184 310T111 703Q111 850 148 983T260 1219T452 1382T728 1442Q896 1442 1015 1385T1208 1227T1317 996T1352 722Q1352
615 1327 500T1239 280T1064 92Q1130 74 1217 41T1362 -25L1305 -180ZM730 149Q860 149 942 201T1069 338T1131 519T1149 704Q1149 967 1045 1117T733 1268Q606 1268 525 1214T399 1074T337 889T319 700Q319 595 340 496T408 319T535 195T730 149Z" />
<glyph unicode="R" glyph-name="R" horiz-adv-x="1284" d="M191 0V1412H624Q716 1412 803 1394T960 1333T1071 1220T1113 1043Q1113 907 1044 823T854 692Q950 669 1000 631T1072 536T1104 402T1129 225T1183 0H973Q942 164 928 279T889 467T808 573T635 607H387V0H191ZM386
755H618Q740 755 824 814T909 1019Q909 1097 881 1142T805 1208T702 1236T592 1242H386V755Z" />
<glyph unicode="S" glyph-name="S" horiz-adv-x="1095" d="M501 -26Q410 -26 306 2T87 93L151 249Q341 149 489 149Q653 149 728 216T804 383Q804 484 734 538T500 651Q288 727 204 824T120 1070Q120 1192 178 1274T337 1399T561 1442Q658 1442 762 1410T975 1305L898
1159Q807 1217 724 1242T565 1268Q441 1268 376 1217T311 1074Q311 1007 336 963T421 887T582 821Q760 761 848 699T965 565T994 401Q994 203 864 89T501 -26Z" />
<glyph unicode="T" glyph-name="T" horiz-adv-x="1140" d="M473 0V1242H35V1412H1106V1242H668V0H473Z" />
<glyph unicode="U" glyph-name="U" horiz-adv-x="1441" d="M721 -26Q560 -26 437 36T244 223T174 531V1412H370V519Q370 371 423 291T558 181T725 150Q839 150 908 187T1013 281T1061 404T1073 524V1412H1266V524Q1266 359 1198 235T1006 43T721 -26Z" />
<glyph unicode="V" glyph-name="V" horiz-adv-x="1212" d="M500 0L15 1412H229L467 638L601 194H612L757 641L1000 1412H1205L706 0H500Z" />
<glyph unicode="W" glyph-name="W" horiz-adv-x="1898" d="M426 0L38 1412H246L422 707L522 240H543L844 1412H1068L1369 240H1390L1490 707L1666 1412H1874L1486 0H1285L1084 735L961 1219H951L828 735L627 0H426Z" />
<glyph unicode="X" glyph-name="X" horiz-adv-x="1261" d="M12 0L509 737L57 1412H291L640 878L987 1412H1212L754 738L1242 0H1003L624 599L235 0H12Z" />
<glyph unicode="Y" glyph-name="Y" horiz-adv-x="1174" d="M487 0V547L-9 1412H223L594 723L963 1412H1183L687 547V0H487Z" />
<glyph unicode="Z" glyph-name="Z" horiz-adv-x="1173" d="M89 0V169L831 1242H110V1412H1064V1235L320 170H1082V0H89Z" />
<glyph unicode="[" glyph-name="bracketleft" horiz-adv-x="609" d="M172 -272V1442H540V1308H344V-135H540V-272H172Z" />
<glyph unicode="\" glyph-name="backslash" horiz-adv-x="792" d="M560 -16L73 1412H231Q352 1053 473 698T717 -16H560Z" />
<glyph unicode="]" glyph-name="bracketright" horiz-adv-x="610" d="M70 -272V-135H265V1308H70V1442H438V-272H70Z" />
<glyph unicode="^" glyph-name="asciicircum" horiz-adv-x="1200" d="M152 523L537 1381H666L1048 523H876L600 1172L323 523H152Z" />
<glyph unicode="_" glyph-name="underscore" horiz-adv-x="1116" d="M105 -273V-145H1012V-273H105Z" />
<glyph unicode="`" glyph-name="grave" horiz-adv-x="816" d="M435 1136L162 1445H392L564 1136H435Z" />
<glyph unicode="a" glyph-name="a" horiz-adv-x="1039" d="M405 -17Q254 -17 166 58T77 267Q77 332 109 404T223 529Q281 565 354 580T505 599T653 602H707V673Q707 779 654 819T526 860Q444 860 355 828T209 761L154 883Q234 933 336 966T533 1000Q630 1000 710
968T838 867T887 685V289Q887 184 893 115T910 0H741Q738 17 736 60T731 159Q665 53 578 18T405 -17ZM417 122Q489 122 550 141T646 202Q684 243 695 307T706 471H677Q608 471 535 466T400 441T298 380T259 264Q259 212 296 167T417 122Z" />
<glyph unicode="b" glyph-name="b" horiz-adv-x="1158" d="M615 -17Q550 -17 474 16T336 132Q332 112 327 77T320 0H158V1357H345V1016L342 855Q384 911 452 955T622 1000Q778 1000 874 932T1014 750T1058 502Q1058 354 1014 237T872 51T615 -17ZM619 122Q713
122 769 174T851 312T876 496Q876 586 855 669T776 806T613 859Q543 859 482 826T383 744T345 650V338Q345 294 373 244T462 158T619 122Z" />
<glyph unicode="c" glyph-name="c" horiz-adv-x="960" d="M530 -17Q420 -17 321 36T160 204T98 502Q98 672 165 782T336 946T548 1000Q624 1000 695 975T821 891T896 734L737 708Q715 796 663 827T551 859Q488 859 426 823T324 709T283 508Q283 325 345 224T547
122Q633 122 696 148T805 208L862 83Q784 32 698 8T530 -17Z" />
<glyph unicode="d" glyph-name="d" horiz-adv-x="1159" d="M543 -17Q384 -17 287 51T145 236T100 502Q100 637 144 750T284 931T536 1000Q637 1000 705 956T816 855L813 1016V1357H1000V0H838L831 53Q828 76 826 98T822 132Q758 50 683 17T543 -17ZM539 122Q635
122 695 157T784 243T813 338V650Q813 695 775 743T676 825T545 859Q439 859 382 806T304 670T282 496Q282 398 307 313T388 175T539 122Z" />
<glyph unicode="e" glyph-name="e" horiz-adv-x="1043" d="M567 -17Q439 -17 333 37T163 204T99 490Q99 625 145 741T289 928T538 1000Q682 1000 773 938T908 772T951 544V463H285V445Q285 275 371 198T581 120Q721 120 868 207L925 79Q745 -17 567 -17ZM291 591H755Q753
663 733 724T666 822T534 859Q436 859 364 795T291 591Z" />
<glyph unicode="f" glyph-name="f" horiz-adv-x="686" d="M231 0V840H43V966L232 983V1021Q232 1186 294 1271T535 1356Q577 1356 622 1349T709 1331L685 1185Q654 1191 622 1195T561 1200Q470 1200 445 1160T420 1042V984H649V840H420V0H231Z" />
<glyph unicode="g" glyph-name="g" horiz-adv-x="1139" d="M549 -495Q422 -495 319 -463T156 -376T96 -250Q96 -205 130 -130T245 7L242 23Q221 25 192 37T140 78T118 155Q118 262 251 394Q176 439 141 502T106 635Q106 724 153 807T295 945T531 1000Q625 1000
693 974T816 903Q863 935 931 966T1079 999L1109 794L1080 797Q1068 799 1057 799T1039 800Q977 800 909 780Q936 745 943 712T950 647Q950 521 890 444T734 331T532 295Q428 295 347 320Q319 289 304 260T289 214Q289 185 302 168T377 151H524Q613 151 707 143T881
110T1010 36T1060 -97Q1060 -290 931 -386T549 -495ZM530 433Q632 433 687 465T764 548T786 654Q786 706 763 754T686 833T536 864Q471 864 412 843T316 773T279 642Q279 550 340 492T530 433ZM553 -341Q623 -341 682 -326T787 -283Q832 -256 856 -213T880 -95Q880
-2 558 -2Q510 -2 463 -2T367 -1Q325 -49 302 -121T279 -239Q279 -290 350 -315T553 -341Z" />
<glyph unicode="h" glyph-name="h" horiz-adv-x="1149" d="M159 0V1357H346V856Q409 922 488 961T652 1000Q831 1000 916 901T1002 624V0H816V614Q816 672 800 728T740 821T608 859Q517 859 467 825T392 751Q366 709 357 649T348 526V0H159Z" />
<glyph unicode="i" glyph-name="i" horiz-adv-x="497" d="M341 984V0H155V840H3V984H341ZM410 1197V1410H600V1197H410Z" />
<glyph unicode="j" glyph-name="j" horiz-adv-x="696" d="M183 -429Q111 -429 55 -408V-261Q82 -269 104 -273T150 -278Q208 -278 238 -248T268 -127V840H117V984H457V-124Q457 -206 431 -275T346 -387T183 -429ZM266 1197V1410H456V1197H266Z" />
<glyph unicode="k" glyph-name="k" horiz-adv-x="1041" d="M158 0V1357H348V551L478 620Q613 692 690 792T803 984H999Q953 827 872 719T676 533L1028 0H817L517 473L348 387V0H158Z" />
<glyph unicode="l" glyph-name="l" horiz-adv-x="563" d="M494 -17Q376 -17 312 8T219 87T186 223T180 421V1215H58V1357H369V370Q369 268 375 217T414 148T524 131L494 -17Z" />
<glyph unicode="m" glyph-name="m" horiz-adv-x="1817" d="M203 0V840H71V984H378L388 857Q460 935 538 967T684 1000Q810 1000 882 953T997 832Q1041 898 1121 949T1320 1000Q1410 1000 1489 969T1619 860T1669 646V0H1483V637Q1483 754 1433 806T1279 859Q1192
859 1142 830T1068 755T1038 656T1031 552V0H844V646Q844 746 794 802T644 859Q562 859 512 828T439 764Q410 722 401 665T392 542V0H203Z" />
<glyph unicode="n" glyph-name="n" horiz-adv-x="1196" d="M203 0V840H81V984H378L388 858Q449 927 518 963T696 1000Q751 1000 812 984T926 929T1014 822T1048 650V0H862V635Q862 744 808 801T650 859Q529 859 461 780T392 545V0H203Z" />
<glyph unicode="o" glyph-name="o" horiz-adv-x="1129" d="M560 -17Q415 -17 312 45T153 221T98 483Q98 623 147 740T300 929T572 1000Q736 1000 837 927T984 738T1031 492Q1031 341 977 227T819 48T560 -17ZM564 122Q685 122 764 208T844 488Q844 859 570 859Q496
859 431 821T325 701T284 484Q284 324 349 223T564 122Z" />
<glyph unicode="p" glyph-name="p" horiz-adv-x="1159" d="M159 -400V984H330L343 837Q409 931 495 965T657 1000Q765 1000 856 944T1003 775T1059 490Q1059 318 1001 206T848 38T638 -17Q544 -17 471 17T341 107L346 -72V-400H159ZM611 121Q694 121 746 155T826
244T866 365T877 496Q877 598 853 680T773 811T621 859Q548 859 485 826T384 744T346 648V348Q346 297 375 245T462 157T611 121Z" />
<glyph unicode="q" glyph-name="q" horiz-adv-x="1156" d="M811 -400V-72Q811 -27 813 28T817 111Q747 43 668 13T518 -17Q401 -17 307 38T157 206T101 491Q101 666 155 778T299 945T499 1000Q612 1000 688 948T816 836L829 984H1002Q1002 972 1001 941T1000 874T998
809T997 772V-400H811ZM552 122Q654 122 711 165T791 284T815 457Q815 514 808 583T774 715T692 818T539 859Q458 859 408 824T332 734T297 615T287 496Q287 433 298 368T337 247T417 157T552 122Z" />
<glyph unicode="r" glyph-name="r" horiz-adv-x="749" d="M159 0V732Q159 749 158 797T155 900T153 984H328L337 814Q402 915 486 957T635 1000Q681 1000 723 994L711 818Q684 823 660 826T611 829Q471 829 410 744T348 524V0H159Z" />
<glyph unicode="s" glyph-name="s" horiz-adv-x="922" d="M428 -17Q239 -17 82 82L141 213Q201 167 282 145T440 122Q522 122 582 157T643 266Q643 321 599 353T425 434Q330 468 259 502T148 588T108 727Q108 820 159 880T294 970T472 1000Q563 1000 653 974T818
896L757 773Q692 815 615 837T476 859Q398 859 343 829T287 741Q287 687 340 651T494 581Q616 538 689 497T796 405T829 280Q829 176 771 111T621 14T428 -17Z" />
<glyph unicode="t" glyph-name="t" horiz-adv-x="700" d="M472 -17Q349 -17 278 36T206 243V841H49V984H211L244 1220L395 1250V984H633V841H395V263Q395 207 417 165T519 122Q547 122 580 126T637 135V2Q606 -4 562 -10T472 -17Z" />
<glyph unicode="u" glyph-name="u" horiz-adv-x="1147" d="M523 -17Q333 -17 241 77T148 352V984H334V351Q334 257 376 190T533 122Q639 122 696 165T777 281T800 447V984H986V360Q986 216 991 135T1003 0H846Q840 20 835 57T825 161Q787 75 706 29T523 -17Z" />
<glyph unicode="v" glyph-name="v" horiz-adv-x="1028" d="M405 0L17 984H220L393 519L516 173L638 518L809 984H1014L612 0H405Z" />
<glyph unicode="w" glyph-name="w" horiz-adv-x="1517" d="M299 0L39 984H233L414 155H428L516 495L652 984H866L1002 495L1093 155H1108L1187 547L1288 984H1478L1219 0H986L847 491L759 831L671 491L532 0H299Z" />
<glyph unicode="x" glyph-name="x" horiz-adv-x="1051" d="M36 0L408 507L55 984H284L533 620L785 984H1003L641 502L1010 0H781L516 381L250 0H36Z" />
<glyph unicode="y" glyph-name="y" horiz-adv-x="1025" d="M299 -367Q279 -367 255 -363T191 -351V-210Q223 -218 240 -221T268 -224Q325 -224 355 -165T408 -29L418 5L14 984H220L396 519L516 188L809 984H1011L573 -84Q549 -144 514 -210T426 -321T299 -367Z" />
<glyph unicode="z" glyph-name="z" horiz-adv-x="885" d="M85 0V159L574 840H114V984H784V836L286 144H791V0H85Z" />
<glyph unicode="{" glyph-name="braceleft" horiz-adv-x="717" d="M646 -268Q492 -261 412 -209T303 -72T274 115V289Q274 419 205 465T22 521V654Q132 664 185 695T256 775T274 887V1068Q274 1176 305 1258T417 1388T645 1442L653 1311Q525 1295 487 1237T448
1077V902Q448 837 432 775T371 664T238 587Q327 559 372 510T432 399T448 274V161Q448 80 456 16T507 -87T653 -134L646 -268Z" />
<glyph unicode="|" glyph-name="bar" horiz-adv-x="497" d="M167 -477V1442H330V-477H167Z" />
<glyph unicode="}" glyph-name="braceright" horiz-adv-x="717" d="M71 -268L64 -134Q167 -126 209 -87T260 16T269 161V274Q269 337 284 398T345 509T479 587Q391 615 346 664T285 775T269 902V1077Q269 1179 231 1237T64 1311L72 1442Q220 1436 300 1388T411
1258T443 1068V887Q443 824 460 775T532 695T695 654V521Q581 511 512 465T443 289V115Q443 12 414 -72T305 -208T71 -268Z" />
<glyph unicode="~" glyph-name="asciitilde" horiz-adv-x="1200" d="M180 434L116 514Q152 614 216 671T375 728Q411 728 473 709T607 665T742 621T848 602Q893 602 940 633T1021 734L1085 656Q1061 567 1018 521T926 459T833 443Q775 443 705 462T565 505T440
549T355 568Q312 568 264 534T180 434Z" />
<glyph unicode="&#xa0;" glyph-name="uni00A0" horiz-adv-x="525" />
<glyph unicode="&#xa1;" glyph-name="exclamdown" horiz-adv-x="531" d="M162 1183V1394H370V1183H162ZM162 0V1055H322L370 0H162Z" />
<glyph unicode="&#xa2;" glyph-name="cent" horiz-adv-x="953" d="M213 -233L293 43Q207 101 151 214T94 508Q94 717 161 836T337 1004T573 1054Q583 1054 590 1052L664 1302H782L703 1034L740 1013Q775 993 804 969T856 924L767 803Q743 821 723 836T654 871L443
153Q494 136 550 136Q627 136 687 167T794 235L843 107Q799 49 729 12T550 -26Q515 -26 477 -21T396 -5L330 -233H213ZM347 228L543 893Q396 877 341 773T286 514Q286 353 347 228Z" />
<glyph unicode="&#xa3;" glyph-name="sterling" horiz-adv-x="1163" d="M112 0V141L224 156Q235 162 243 195T257 272T266 357T269 416V648H106V793H269V913Q269 999 279 1091T329 1263T452 1392T682 1442Q798 1442 898 1394T1063 1226L919 1160Q890 1221 832
1257T688 1293Q594 1293 546 1252T480 1142T463 987V793H774V648H463V416Q463 387 456 340T437 243T410 156H1063V0H112Z" />
<glyph unicode="&#xa4;" glyph-name="currency" horiz-adv-x="1466" d="M734 271Q634 271 542 303T372 396L279 303L175 407L270 502Q213 577 182 666T150 856Q150 956 182 1047T272 1217L175 1315L279 1418L376 1320Q454 1377 544 1409T734 1442Q831 1442 921
1410T1089 1321L1186 1418L1290 1315L1193 1217Q1317 1060 1317 856Q1317 756 1286 667T1196 501Q1218 478 1243 454T1290 407L1186 303L1094 395Q933 271 734 271ZM734 410Q874 410 966 475T1105 642T1152 856Q1152 968 1106 1070T966 1237T734 1302Q595 1302
502 1237T363 1070T316 856Q316 745 362 643T502 475T734 410Z" />
<glyph unicode="&#xa5;" glyph-name="yen" horiz-adv-x="1202" d="M504 0V286H179V424H504V536H179V675H439Q348 856 254 1043T65 1412H292L605 722L923 1412H1137L763 675H1020V536H696V424H1020V286H696V0H504Z" />
<glyph unicode="&#xa6;" glyph-name="brokenbar" horiz-adv-x="517" d="M177 719V1442H340V719H177ZM177 -477V300H340V-477H177Z" />
<glyph unicode="&#xa7;" glyph-name="section" horiz-adv-x="955" d="M423 -26Q344 -26 277 -13T146 27V202Q196 178 272 154T431 129Q518 129 562 153T621 208T636 262Q636 306 599 333T505 382T385 429Q341 447 282 477T180 561T136 702Q136 768 163 815T230
896T308 951Q236 986 195 1040T153 1173Q153 1301 252 1371T512 1442Q636 1442 786 1391L758 1234Q695 1260 636 1277T518 1294Q476 1294 435 1285T367 1252T340 1181Q340 1127 387 1097T549 1022Q608 1000 670 969T776 884T819 741Q819 647 778 586T661 487Q703
467 741 442T803 376T828 272Q828 138 722 56T423 -26ZM519 546Q544 558 575 579T629 633T652 711Q652 779 599 817T443 892Q395 874 350 834T305 731Q305 663 367 619T519 546Z" />
<glyph unicode="&#xa8;" glyph-name="dieresis" horiz-adv-x="816" d="M483 1135V1307H705V1135H483ZM105 1135V1307H327V1135H105Z" />
<glyph unicode="&#xa9;" glyph-name="copyright" horiz-adv-x="1647" d="M824 -26Q671 -26 539 31T306 189T150 422T93 706Q93 857 149 990T306 1224T538 1384T824 1442Q975 1442 1107 1385T1339 1226T1497 991T1554 706Q1554 554 1497 422T1340 189T1107 31T824
-26ZM824 83Q955 83 1068 131T1266 266T1400 464T1448 706Q1448 835 1400 948T1266 1149T1067 1285T824 1334Q694 1334 581 1285T381 1149T246 949T197 706Q197 577 245 465T380 266T580 132T824 83ZM843 275Q740 275 670 315T557 420T496 561T477 712Q477 786
496 863T558 1005T671 1110T843 1151Q891 1151 943 1137T1039 1086T1108 984L1012 925Q982 993 939 1010T840 1028Q755 1028 707 978T639 855T619 711Q619 642 638 570T706 448T840 398Q895 398 938 415T1012 501L1108 442Q1084 376 1040 340T943 289T843 275Z"
/>
<glyph unicode="&#xaa;" glyph-name="ordfeminine" horiz-adv-x="770" d="M317 791Q231 791 170 840T108 982Q108 1059 149 1106T259 1175T410 1197H499V1234Q497 1291 466 1315T391 1340Q346 1340 300 1326T216 1287L168 1366Q213 1403 279 1422T411 1442Q497
1442 560 1388T624 1214V975Q624 940 624 910T626 856L629 809H519Q517 823 513 840T505 880Q473 846 428 819T317 791ZM345 900Q412 900 445 931T488 1008T499 1100Q486 1100 463 1100T431 1101Q351 1101 295 1076T239 989Q239 955 263 928T345 900Z" />
<glyph unicode="&#xab;" glyph-name="guillemotleft" horiz-adv-x="989" d="M730 108L476 495V513L730 900L876 863L670 503L877 141L730 108ZM347 107L95 495V514L347 900L493 863L285 503L494 141L347 107Z" />
<glyph unicode="&#xac;" glyph-name="logicalnot" horiz-adv-x="1200" d="M915 230V612H126V771H1074V230H915Z" />
<glyph unicode="&#xae;" glyph-name="registered" horiz-adv-x="1644" d="M821 -26Q672 -26 540 31T308 190T150 424T92 711Q92 864 149 996T308 1229T541 1386T821 1442Q972 1442 1104 1386T1336 1229T1493 996T1550 711Q1550 558 1493 425T1336 190T1103 32T821
-26ZM821 82Q951 82 1064 131T1262 266T1396 467T1444 711Q1444 839 1397 951T1264 1150T1066 1285T821 1334Q692 1334 579 1286T380 1151T245 953T196 711Q196 581 245 467T380 266T579 131T821 82ZM553 301V1129H813Q879 1129 946 1112T1059 1045T1105 899Q1105
852 1075 792T970 694Q1024 679 1052 636T1094 535T1119 416T1152 301H1009Q984 398 971 464T942 571T897 628T811 646H693V301H553ZM693 768H811Q869 768 916 790T964 888Q964 965 917 985T810 1006H693V768Z" />
<glyph unicode="&#xaf;" glyph-name="overscore" horiz-adv-x="546" d="M-3 1242V1359H540V1242H-3Z" />
<glyph unicode="&#xb0;" glyph-name="degree" horiz-adv-x="808" d="M404 797Q320 797 251 838T140 950T98 1104Q98 1190 139 1259T250 1370T404 1412Q488 1412 557 1371T668 1260T710 1104Q710 1020 669 950T558 839T404 797ZM404 937Q476 937 525 986T574 1104Q574
1173 524 1223T404 1273Q334 1273 284 1224T234 1104Q234 1035 284 986T404 937Z" />
<glyph unicode="&#xb1;" glyph-name="plusminus" horiz-adv-x="1200" d="M517 222V564H126V725H517V1070H681V725H1074V564H681V222H517ZM126 -13V147H1074V-13H126Z" />
<glyph unicode="&#xb2;" glyph-name="uni00B2" horiz-adv-x="925" d="M112 285V425L386 708Q489 815 558 910T627 1093Q627 1133 612 1172T559 1237T457 1263Q393 1263 354 1238T294 1178T257 1109L123 1159Q182 1290 257 1344T454 1399Q544 1399 618 1366T737
1264T782 1089Q782 1027 755 960T663 808T487 612L300 422H804V285H112Z" />
<glyph unicode="&#xb3;" glyph-name="uni00B3" horiz-adv-x="933" d="M447 292Q351 292 255 337T86 482L203 546Q248 482 313 450T448 418Q529 418 590 466T652 610Q652 682 615 722T519 779T396 795H318V926Q326 925 335 925T354 924Q424 924 486 939T588 995T628
1111Q628 1191 575 1229T451 1268Q385 1268 323 1235T230 1136L110 1181Q158 1291 258 1345T464 1399Q546 1399 619 1368T738 1273T784 1117Q784 1042 736 975T600 863Q685 835 729 788T790 691T807 607Q807 512 757 441T624 331T447 292Z" />
<glyph unicode="&#xb4;" glyph-name="acute" horiz-adv-x="816" d="M249 1135L417 1444H636L380 1135H249Z" />
<glyph unicode="&#xb5;" glyph-name="uni00B5" horiz-adv-x="1137" d="M175 -438V984H350V444Q350 363 366 291T429 173T570 127Q690 127 759 214T829 508V984H1003V0H852L840 125Q794 66 726 20T563 -26Q490 -26 439 2T347 69Q347 -13 348 -96T350 -221V-438H175Z" />
<glyph unicode="&#xb6;" glyph-name="paragraph" horiz-adv-x="1222" d="M526 -290V518Q496 516 470 516Q340 516 250 575T113 736T66 971Q66 1178 177 1295T541 1412H1075V1259H1020V-290H874V1261H671V-290H526Z" />
<glyph unicode="&#xb7;" glyph-name="middot" horiz-adv-x="510" d="M143 448V697H367V448H143Z" />
<glyph unicode="&#xb8;" glyph-name="cedilla" horiz-adv-x="481" d="M175 -439Q130 -439 96 -431T34 -412L60 -313Q102 -330 166 -330Q217 -330 249 -311T282 -256Q282 -216 246 -203T175 -189Q157 -189 149 -190L96 -163L208 18H319L248 -97Q345 -111 389 -146T434
-248Q434 -282 415 -327T340 -405T175 -439Z" />
<glyph unicode="&#xb9;" glyph-name="uni00B9" horiz-adv-x="632" d="M306 285V1196Q255 1153 199 1116T81 1044L44 1182Q70 1196 110 1223T193 1281T271 1338T321 1377H452V285H306Z" />
<glyph unicode="&#xba;" glyph-name="ordmasculine" horiz-adv-x="753" d="M376 789Q227 789 150 882T73 1115Q73 1255 149 1348T379 1442Q489 1442 555 1395T651 1274T681 1118Q681 970 600 880T376 789ZM376 897Q447 897 495 950T544 1120Q544 1210 510 1273T379
1337Q287 1337 248 1275T208 1119Q208 1030 244 964T376 897Z" />
<glyph unicode="&#xbb;" glyph-name="guillemotright" horiz-adv-x="991" d="M642 107L498 141L705 502L497 863L643 900L898 511V492L642 107ZM260 107L116 141L322 502L114 863L260 900L514 511V492L260 107Z" />
<glyph unicode="&#xbc;" glyph-name="onequarter" horiz-adv-x="1966" d="M551 -26L1040 1442H1197L712 -26H551ZM321 285V1196Q270 1153 214 1116T96 1044L59 1182Q85 1196 125 1223T208 1281T286 1338T336 1377H467V285H321ZM1581 -1V237H1088V399L1570 1104H1731V376H1888V237H1731V-1H1581ZM1230
376H1581V931L1461 726L1230 376Z" />
<glyph unicode="&#xbd;" glyph-name="onehalf" horiz-adv-x="1976" d="M556 -26L1045 1442H1202L717 -26H556ZM321 285V1196Q270 1153 214 1116T96 1044L59 1182Q85 1196 125 1223T208 1281T286 1338T336 1377H467V285H321ZM1178 -1V139L1452 422Q1555 529 1624
624T1693 807Q1693 847 1678 886T1625 951T1523 977Q1459 977 1420 952T1360 892T1323 823L1189 873Q1248 1004 1323 1058T1520 1113Q1610 1113 1684 1080T1803 978T1848 803Q1848 741 1821 674T1729 522T1553 326L1366 136H1870V-1H1178Z" />
<glyph unicode="&#xbe;" glyph-name="threequarters" horiz-adv-x="2211" d="M811 -26L1300 1442H1457L972 -26H811ZM1836 0V238H1343V400L1825 1105H1986V377H2143V238H1986V0H1836ZM1485 377H1836V932L1716 727L1485 377ZM447 292Q351 292 255 337T86 482L203
546Q248 482 313 450T448 418Q529 418 590 466T652 610Q652 682 615 722T519 779T396 795H318V926Q326 925 335 925T354 924Q424 924 486 939T588 995T628 1111Q628 1191 575 1229T451 1268Q385 1268 323 1235T230 1136L110 1181Q158 1291 258 1345T464 1399Q546
1399 619 1368T738 1273T784 1117Q784 1042 736 975T600 863Q685 835 729 788T790 691T807 607Q807 512 757 441T624 331T447 292Z" />
<glyph unicode="&#xbf;" glyph-name="questiondown" horiz-adv-x="882" d="M599 1050V971Q599 905 590 854T554 756T470 653Q383 566 329 495T274 340Q274 262 314 220T410 161T510 145Q555 145 624 159T787 215L817 40Q757 14 679 -7T504 -29Q308 -29 194 65T79
327Q79 410 103 470T177 587T302 713Q360 767 389 801T429 875T440 980V1050H599ZM626 1413V1202H413V1413H626Z" />
<glyph unicode="&#xc0;" glyph-name="Agrave" horiz-adv-x="1295" d="M19 0V64L553 1412H746L1273 59V0H1084L932 396H349L195 0H19ZM414 568H869L739 928L644 1198L547 928L414 568ZM587 1564L314 1873H544L716 1564H587Z" />
<glyph unicode="&#xc1;" glyph-name="Aacute" horiz-adv-x="1295" d="M19 0V64L553 1412H746L1273 59V0H1084L932 396H349L195 0H19ZM414 568H869L739 928L644 1198L547 928L414 568ZM582 1563L750 1872H969L713 1563H582Z" />
<glyph unicode="&#xc2;" glyph-name="Acircumflex" horiz-adv-x="1295" d="M19 0V64L553 1412H746L1273 59V0H1084L932 396H349L195 0H19ZM414 568H869L739 928L644 1198L547 928L414 568ZM299 1564L559 1922H741L997 1564H809L646 1790L480 1564H299Z" />
<glyph unicode="&#xc3;" glyph-name="Atilde" horiz-adv-x="1295" d="M19 0V64L553 1412H746L1273 59V0H1084L932 396H349L195 0H19ZM414 568H869L739 928L644 1198L547 928L414 568ZM341 1563Q341 1665 396 1729T527 1794Q569 1794 612 1776T696 1740T774 1721Q809
1721 828 1743T855 1808H955Q949 1685 895 1629T769 1573Q733 1573 685 1592T593 1630T521 1649Q489 1649 471 1630T437 1563H341Z" />
<glyph unicode="&#xc4;" glyph-name="Adieresis" horiz-adv-x="1295" d="M19 0V64L553 1412H746L1273 59V0H1084L932 396H349L195 0H19ZM414 568H869L739 928L644 1198L547 928L414 568ZM726 1563V1735H948V1563H726ZM348 1563V1735H570V1563H348Z" />
<glyph unicode="&#xc5;" glyph-name="Aring" horiz-adv-x="1295" d="M19 0V64L553 1412H746L1273 59V0H1084L932 396H349L195 0H19ZM414 568H869L739 928L644 1198L547 928L414 568ZM648 1893Q752 1893 818 1828T885 1658Q885 1557 819 1492T648 1427Q544 1427
478 1492T411 1658Q411 1762 477 1827T648 1893ZM647 1800Q597 1800 551 1760T504 1658Q504 1600 544 1561T649 1521Q712 1521 752 1560T792 1658Q792 1722 748 1761T647 1800Z" />
<glyph unicode="&#xc6;" glyph-name="AE" horiz-adv-x="1814" d="M-33 0L704 1412H1683V1237H1042L1081 820H1651V645H1098L1142 177H1694V0H960L924 410H389L176 0H-33ZM472 581H907L848 1245H807L472 581Z" />
<glyph unicode="&#xc7;" glyph-name="Ccedilla" horiz-adv-x="1236" d="M730 -26Q562 -26 444 34T250 201T140 444T105 735Q105 919 160 1052T306 1272T507 1400T730 1442Q840 1442 938 1403T1105 1286T1196 1095L1009 1051Q993 1155 914 1211T732 1268Q659 1268
585 1238T450 1144T351 979T313 737Q313 625 333 520T402 331T535 198T749 149Q895 149 1096 247L1162 93Q925 -26 730 -26ZM610 -455Q565 -455 531 -447T469 -428L495 -329Q537 -346 601 -346Q652 -346 684 -327T717 -272Q717 -232 681 -219T610 -205Q592 -205
584 -206L531 -179L643 2H754L683 -113Q780 -127 824 -162T869 -264Q869 -298 850 -343T775 -421T610 -455Z" />
<glyph unicode="&#xc8;" glyph-name="Egrave" horiz-adv-x="1138" d="M190 0V1412H1008V1242H386V818H973V643H386V170H1017V0H190ZM495 1564L222 1873H452L624 1564H495Z" />
<glyph unicode="&#xc9;" glyph-name="Eacute" horiz-adv-x="1138" d="M190 0V1412H1008V1242H386V818H973V643H386V170H1017V0H190ZM490 1563L658 1872H877L621 1563H490Z" />
<glyph unicode="&#xca;" glyph-name="Ecircumflex" horiz-adv-x="1138" d="M190 0V1412H1008V1242H386V818H973V643H386V170H1017V0H190ZM207 1564L467 1922H649L905 1564H717L554 1790L388 1564H207Z" />
<glyph unicode="&#xcb;" glyph-name="Edieresis" horiz-adv-x="1138" d="M190 0V1412H1008V1242H386V818H973V643H386V170H1017V0H190ZM634 1563V1735H856V1563H634ZM256 1563V1735H478V1563H256Z" />
<glyph unicode="&#xcc;" glyph-name="Igrave" horiz-adv-x="577" d="M191 0V1412H387V0H191ZM228 1564L-45 1873H185L357 1564H228Z" />
<glyph unicode="&#xcd;" glyph-name="Iacute" horiz-adv-x="577" d="M191 0V1412H387V0H191ZM223 1563L391 1872H610L354 1563H223Z" />
<glyph unicode="&#xce;" glyph-name="Icircumflex" horiz-adv-x="577" d="M191 0V1412H387V0H191ZM-60 1564L200 1922H382L638 1564H450L287 1790L121 1564H-60Z" />
<glyph unicode="&#xcf;" glyph-name="Idieresis" horiz-adv-x="577" d="M191 0V1412H387V0H191ZM367 1563V1735H589V1563H367ZM-11 1563V1735H211V1563H-11Z" />
<glyph unicode="&#xd0;" glyph-name="Eth" horiz-adv-x="1403" d="M192 0V640H73V808H192V1412H674Q830 1412 946 1355T1140 1199T1255 978T1294 725Q1294 511 1221 348T1005 92T651 0H192ZM389 171H637Q787 171 886 242T1034 435T1084 713Q1084 846 1038 966T902
1163T677 1240H389V808H565V640H389V171Z" />
<glyph unicode="&#xd1;" glyph-name="Ntilde" horiz-adv-x="1487" d="M191 0V1412H437L1096 305L1118 310Q1117 358 1116 424T1114 558T1113 675T1112 742V1412H1296V0H1059L387 1123L366 1118Q368 1069 369 1001T370 865T371 744T372 675V0H191ZM437 1563Q437
1665 492 1729T623 1794Q665 1794 708 1776T792 1740T870 1721Q905 1721 924 1743T951 1808H1051Q1045 1685 991 1629T865 1573Q829 1573 781 1592T689 1630T617 1649Q585 1649 567 1630T533 1563H437Z" />
<glyph unicode="&#xd2;" glyph-name="Ograve" horiz-adv-x="1483" d="M742 -26Q568 -26 448 33T253 194T146 428T112 703Q112 850 147 983T258 1219T454 1382T742 1442Q911 1442 1030 1383T1225 1220T1336 983T1371 703Q1371 559 1338 428T1231 195T1037 33T742
-26ZM742 149Q866 149 948 193T1077 316T1144 495T1164 708Q1164 864 1126 991T996 1193T742 1268Q581 1268 489 1193T358 991T319 708Q319 596 339 495T406 316T535 194T742 149ZM681 1564L408 1873H638L810 1564H681Z" />
<glyph unicode="&#xd3;" glyph-name="Oacute" horiz-adv-x="1483" d="M742 -26Q568 -26 448 33T253 194T146 428T112 703Q112 850 147 983T258 1219T454 1382T742 1442Q911 1442 1030 1383T1225 1220T1336 983T1371 703Q1371 559 1338 428T1231 195T1037 33T742
-26ZM742 149Q866 149 948 193T1077 316T1144 495T1164 708Q1164 864 1126 991T996 1193T742 1268Q581 1268 489 1193T358 991T319 708Q319 596 339 495T406 316T535 194T742 149ZM676 1563L844 1872H1063L807 1563H676Z" />
<glyph unicode="&#xd4;" glyph-name="Ocircumflex" horiz-adv-x="1483" d="M742 -26Q568 -26 448 33T253 194T146 428T112 703Q112 850 147 983T258 1219T454 1382T742 1442Q911 1442 1030 1383T1225 1220T1336 983T1371 703Q1371 559 1338 428T1231 195T1037
33T742 -26ZM742 149Q866 149 948 193T1077 316T1144 495T1164 708Q1164 864 1126 991T996 1193T742 1268Q581 1268 489 1193T358 991T319 708Q319 596 339 495T406 316T535 194T742 149ZM393 1564L653 1922H835L1091 1564H903L740 1790L574 1564H393Z" />
<glyph unicode="&#xd5;" glyph-name="Otilde" horiz-adv-x="1483" d="M742 -26Q568 -26 448 33T253 194T146 428T112 703Q112 850 147 983T258 1219T454 1382T742 1442Q911 1442 1030 1383T1225 1220T1336 983T1371 703Q1371 559 1338 428T1231 195T1037 33T742
-26ZM742 149Q866 149 948 193T1077 316T1144 495T1164 708Q1164 864 1126 991T996 1193T742 1268Q581 1268 489 1193T358 991T319 708Q319 596 339 495T406 316T535 194T742 149ZM435 1563Q435 1665 490 1729T621 1794Q663 1794 706 1776T790 1740T868 1721Q903
1721 922 1743T949 1808H1049Q1043 1685 989 1629T863 1573Q827 1573 779 1592T687 1630T615 1649Q583 1649 565 1630T531 1563H435Z" />
<glyph unicode="&#xd6;" glyph-name="Odieresis" horiz-adv-x="1483" d="M742 -26Q568 -26 448 33T253 194T146 428T112 703Q112 850 147 983T258 1219T454 1382T742 1442Q911 1442 1030 1383T1225 1220T1336 983T1371 703Q1371 559 1338 428T1231 195T1037 33T742
-26ZM742 149Q866 149 948 193T1077 316T1144 495T1164 708Q1164 864 1126 991T996 1193T742 1268Q581 1268 489 1193T358 991T319 708Q319 596 339 495T406 316T535 194T742 149ZM820 1563V1735H1042V1563H820ZM442 1563V1735H664V1563H442Z" />
<glyph unicode="&#xd7;" glyph-name="multiply" horiz-adv-x="1200" d="M321 194L209 305L487 581L208 860L325 976L603 699L881 976L993 865L714 587L992 311L874 194L598 470L321 194Z" />
<glyph unicode="&#xd8;" glyph-name="Oslash" horiz-adv-x="1485" d="M324 -103L195 -69L311 123Q207 221 160 372T113 703Q113 922 184 1088T397 1348T747 1442Q925 1442 1062 1368L1152 1517L1283 1482L1167 1291Q1267 1197 1319 1054T1371 714Q1371 563 1336
429T1225 193T1029 32T737 -26Q637 -26 559 -7T415 47L324 -103ZM419 302L968 1212Q923 1239 869 1253T748 1268Q587 1268 493 1193T360 991T320 708Q320 593 342 489T419 302ZM741 149Q897 149 989 225T1121 430T1161 715Q1161 843 1138 944T1064 1120L513 210Q610
149 741 149Z" />
<glyph unicode="&#xd9;" glyph-name="Ugrave" horiz-adv-x="1441" d="M721 -26Q560 -26 437 36T244 223T174 531V1412H370V519Q370 371 423 291T558 181T725 150Q839 150 908 187T1013 281T1061 404T1073 524V1412H1266V524Q1266 359 1198 235T1006 43T721 -26ZM660
1564L387 1873H617L789 1564H660Z" />
<glyph unicode="&#xda;" glyph-name="Uacute" horiz-adv-x="1441" d="M721 -26Q560 -26 437 36T244 223T174 531V1412H370V519Q370 371 423 291T558 181T725 150Q839 150 908 187T1013 281T1061 404T1073 524V1412H1266V524Q1266 359 1198 235T1006 43T721 -26ZM655
1563L823 1872H1042L786 1563H655Z" />
<glyph unicode="&#xdb;" glyph-name="Ucircumflex" horiz-adv-x="1441" d="M721 -26Q560 -26 437 36T244 223T174 531V1412H370V519Q370 371 423 291T558 181T725 150Q839 150 908 187T1013 281T1061 404T1073 524V1412H1266V524Q1266 359 1198 235T1006 43T721
-26ZM372 1564L632 1922H814L1070 1564H882L719 1790L553 1564H372Z" />
<glyph unicode="&#xdc;" glyph-name="Udieresis" horiz-adv-x="1441" d="M721 -26Q560 -26 437 36T244 223T174 531V1412H370V519Q370 371 423 291T558 181T725 150Q839 150 908 187T1013 281T1061 404T1073 524V1412H1266V524Q1266 359 1198 235T1006 43T721
-26ZM799 1563V1735H1021V1563H799ZM421 1563V1735H643V1563H421Z" />
<glyph unicode="&#xdd;" glyph-name="Yacute" horiz-adv-x="1174" d="M487 0V547L-9 1412H223L594 723L963 1412H1183L687 547V0H487ZM521 1563L689 1872H908L652 1563H521Z" />
<glyph unicode="&#xde;" glyph-name="Thorn" horiz-adv-x="1160" d="M189 0V1457H385V1269H606Q748 1269 859 1231T1035 1105T1099 868Q1099 643 960 544T569 444H385V0H189ZM385 614H480Q556 614 629 618T763 645T858 720T894 868Q894 965 852 1015T742 1082T599
1100H385V614Z" />
<glyph unicode="&#xdf;" glyph-name="germandbls" horiz-adv-x="1200" d="M760 -17Q692 -17 629 0T520 60T455 181L561 262Q590 202 643 168T764 134Q868 134 908 186T948 297Q948 355 920 394T844 467T733 538Q638 597 597 650T555 778Q555 861 600 911T705 1008Q748
1040 778 1072T809 1161Q809 1234 753 1277T585 1321Q471 1321 409 1268T347 1081V0H159V1083Q159 1188 196 1275T328 1415T590 1467Q694 1467 787 1438T938 1344T997 1170Q997 1093 960 1042T874 949Q800 887 772 859T743 798Q743 767 766 743T845 681Q912 638
979 588T1091 473T1137 318Q1137 206 1087 132T951 20T760 -17Z" />
<glyph unicode="&#xe0;" glyph-name="agrave" horiz-adv-x="1039" d="M405 -17Q254 -17 166 58T77 267Q77 332 109 404T223 529Q281 565 354 580T505 599T653 602H707V673Q707 779 654 819T526 860Q444 860 355 828T209 761L154 883Q234 933 336 966T533 1000Q630
1000 710 968T838 867T887 685V289Q887 184 893 115T910 0H741Q738 17 736 60T731 159Q665 53 578 18T405 -17ZM417 122Q489 122 550 141T646 202Q684 243 695 307T706 471H677Q608 471 535 466T400 441T298 380T259 264Q259 212 296 167T417 122ZM459 1136L186
1445H416L588 1136H459Z" />
<glyph unicode="&#xe1;" glyph-name="aacute" horiz-adv-x="1039" d="M405 -17Q254 -17 166 58T77 267Q77 332 109 404T223 529Q281 565 354 580T505 599T653 602H707V673Q707 779 654 819T526 860Q444 860 355 828T209 761L154 883Q234 933 336 966T533 1000Q630
1000 710 968T838 867T887 685V289Q887 184 893 115T910 0H741Q738 17 736 60T731 159Q665 53 578 18T405 -17ZM417 122Q489 122 550 141T646 202Q684 243 695 307T706 471H677Q608 471 535 466T400 441T298 380T259 264Q259 212 296 167T417 122ZM454 1135L622
1444H841L585 1135H454Z" />
<glyph unicode="&#xe2;" glyph-name="acircumflex" horiz-adv-x="1039" d="M405 -17Q254 -17 166 58T77 267Q77 332 109 404T223 529Q281 565 354 580T505 599T653 602H707V673Q707 779 654 819T526 860Q444 860 355 828T209 761L154 883Q234 933 336 966T533
1000Q630 1000 710 968T838 867T887 685V289Q887 184 893 115T910 0H741Q738 17 736 60T731 159Q665 53 578 18T405 -17ZM417 122Q489 122 550 141T646 202Q684 243 695 307T706 471H677Q608 471 535 466T400 441T298 380T259 264Q259 212 296 167T417 122ZM171
1136L431 1494H613L869 1136H681L518 1362L352 1136H171Z" />
<glyph unicode="&#xe3;" glyph-name="atilde" horiz-adv-x="1039" d="M405 -17Q254 -17 166 58T77 267Q77 332 109 404T223 529Q281 565 354 580T505 599T653 602H707V673Q707 779 654 819T526 860Q444 860 355 828T209 761L154 883Q234 933 336 966T533 1000Q630
1000 710 968T838 867T887 685V289Q887 184 893 115T910 0H741Q738 17 736 60T731 159Q665 53 578 18T405 -17ZM417 122Q489 122 550 141T646 202Q684 243 695 307T706 471H677Q608 471 535 466T400 441T298 380T259 264Q259 212 296 167T417 122ZM213 1135Q213
1237 268 1301T399 1366Q441 1366 484 1348T568 1312T646 1293Q681 1293 700 1315T727 1380H827Q821 1257 767 1201T641 1145Q605 1145 557 1164T465 1202T393 1221Q361 1221 343 1202T309 1135H213Z" />
<glyph unicode="&#xe4;" glyph-name="adieresis" horiz-adv-x="1039" d="M405 -17Q254 -17 166 58T77 267Q77 332 109 404T223 529Q281 565 354 580T505 599T653 602H707V673Q707 779 654 819T526 860Q444 860 355 828T209 761L154 883Q234 933 336 966T533 1000Q630
1000 710 968T838 867T887 685V289Q887 184 893 115T910 0H741Q738 17 736 60T731 159Q665 53 578 18T405 -17ZM417 122Q489 122 550 141T646 202Q684 243 695 307T706 471H677Q608 471 535 466T400 441T298 380T259 264Q259 212 296 167T417 122ZM598 1135V1307H820V1135H598ZM220
1135V1307H442V1135H220Z" />
<glyph unicode="&#xe5;" glyph-name="aring" horiz-adv-x="1039" d="M405 -17Q254 -17 166 58T77 267Q77 332 109 404T223 529Q281 565 354 580T505 599T653 602H707V673Q707 779 654 819T526 860Q444 860 355 828T209 761L154 883Q234 933 336 966T533 1000Q630
1000 710 968T838 867T887 685V289Q887 184 893 115T910 0H741Q738 17 736 60T731 159Q665 53 578 18T405 -17ZM417 122Q489 122 550 141T646 202Q684 243 695 307T706 471H677Q608 471 535 466T400 441T298 380T259 264Q259 212 296 167T417 122ZM520 1598Q624
1598 690 1533T757 1363Q757 1262 691 1197T520 1132Q416 1132 350 1197T283 1363Q283 1467 349 1532T520 1598ZM519 1505Q469 1505 423 1465T376 1363Q376 1305 416 1266T521 1226Q584 1226 624 1265T664 1363Q664 1427 620 1466T519 1505Z" />
<glyph unicode="&#xe6;" glyph-name="ae" horiz-adv-x="1658" d="M405 -26Q253 -26 165 55T76 279Q76 380 123 447T248 556T419 614T603 632Q630 632 655 631T706 627V688Q706 822 651 864T506 907Q428 907 368 878T247 808Q223 836 198 863T149 916Q234 984 316
1022T507 1060Q619 1060 699 1022T833 893Q895 976 982 1017T1152 1059Q1296 1059 1387 993T1522 819T1565 580V480H898Q900 386 929 309T1020 185T1183 139Q1271 139 1342 165T1480 246L1529 116Q1465 64 1385 21T1179 -22Q1117 -22 1045 -1T909 73T804 216Q764
126 698 73T554 -3T405 -26ZM905 631H1368Q1366 703 1346 765T1280 865T1148 904Q1052 904 986 839T905 647V631ZM448 131Q580 131 645 217Q681 261 693 324T705 491H676Q622 491 553 487T419 465T312 407T269 292Q269 229 310 180T448 131Z" />
<glyph unicode="&#xe7;" glyph-name="ccedilla" horiz-adv-x="960" d="M530 -17Q420 -17 321 36T160 204T98 502Q98 672 165 782T336 946T548 1000Q624 1000 695 975T821 891T896 734L737 708Q715 796 663 827T551 859Q488 859 426 823T324 709T283 508Q283 325
345 224T547 122Q633 122 696 148T805 208L862 83Q784 32 698 8T530 -17ZM391 -455Q346 -455 312 -447T250 -428L276 -329Q318 -346 382 -346Q433 -346 465 -327T498 -272Q498 -232 462 -219T391 -205Q373 -205 365 -206L312 -179L424 2H535L464 -113Q561 -127
605 -162T650 -264Q650 -298 631 -343T556 -421T391 -455Z" />
<glyph unicode="&#xe8;" glyph-name="egrave" horiz-adv-x="1043" d="M567 -17Q439 -17 333 37T163 204T99 490Q99 625 145 741T289 928T538 1000Q682 1000 773 938T908 772T951 544V463H285V445Q285 275 371 198T581 120Q721 120 868 207L925 79Q745 -17 567
-17ZM291 591H755Q753 663 733 724T666 822T534 859Q436 859 364 795T291 591ZM476 1136L203 1445H433L605 1136H476Z" />
<glyph unicode="&#xe9;" glyph-name="eacute" horiz-adv-x="1043" d="M567 -17Q439 -17 333 37T163 204T99 490Q99 625 145 741T289 928T538 1000Q682 1000 773 938T908 772T951 544V463H285V445Q285 275 371 198T581 120Q721 120 868 207L925 79Q745 -17 567
-17ZM291 591H755Q753 663 733 724T666 822T534 859Q436 859 364 795T291 591ZM471 1135L639 1444H858L602 1135H471Z" />
<glyph unicode="&#xea;" glyph-name="ecircumflex" horiz-adv-x="1043" d="M567 -17Q439 -17 333 37T163 204T99 490Q99 625 145 741T289 928T538 1000Q682 1000 773 938T908 772T951 544V463H285V445Q285 275 371 198T581 120Q721 120 868 207L925 79Q745 -17
567 -17ZM291 591H755Q753 663 733 724T666 822T534 859Q436 859 364 795T291 591ZM188 1136L448 1494H630L886 1136H698L535 1362L369 1136H188Z" />
<glyph unicode="&#xeb;" glyph-name="edieresis" horiz-adv-x="1043" d="M567 -17Q439 -17 333 37T163 204T99 490Q99 625 145 741T289 928T538 1000Q682 1000 773 938T908 772T951 544V463H285V445Q285 275 371 198T581 120Q721 120 868 207L925 79Q745 -17 567
-17ZM291 591H755Q753 663 733 724T666 822T534 859Q436 859 364 795T291 591ZM615 1135V1307H837V1135H615ZM237 1135V1307H459V1135H237Z" />
<glyph unicode="&#xec;" glyph-name="igrave" horiz-adv-x="497" d="M341 984V0H155V840H3V984H341ZM188 1136L-85 1445H145L317 1136H188Z" />
<glyph unicode="&#xed;" glyph-name="iacute" horiz-adv-x="497" d="M341 984V0H155V840H3V984H341ZM439 1135L607 1444H826L570 1135H439Z" />
<glyph unicode="&#xee;" glyph-name="icircumflex" horiz-adv-x="497" d="M341 984V0H155V840H3V984H341ZM-100 1136L160 1494H342L598 1136H410L247 1362L81 1136H-100Z" />
<glyph unicode="&#xef;" glyph-name="idieresis" horiz-adv-x="497" d="M341 984V0H155V840H3V984H341ZM327 1135V1307H549V1135H327ZM-51 1135V1307H171V1135H-51Z" />
<glyph unicode="&#xf0;" glyph-name="eth" horiz-adv-x="1102" d="M512 -22Q394 -22 296 28T138 180T79 435Q79 574 133 668T279 812T486 861Q669 861 798 702Q798 816 786 898T749 1048Q732 1043 699 1031T630 1004L543 970L510 1076L697 1145Q648 1208 587 1237T453
1267Q401 1267 337 1252T204 1206L151 1328Q323 1408 465 1408Q577 1408 675 1355T843 1202L1045 1280L1078 1173L896 1106Q977 919 977 643Q977 447 938 318T832 114T682 9T512 -22ZM513 122Q593 122 655 165T752 282T788 449Q788 562 715 642T518 723Q396 723
325 647T254 436Q254 292 323 207T513 122Z" />
<glyph unicode="&#xf1;" glyph-name="ntilde" horiz-adv-x="1196" d="M203 0V840H81V984H378L388 858Q449 927 518 963T696 1000Q751 1000 812 984T926 929T1014 822T1048 650V0H862V635Q862 744 808 801T650 859Q529 859 461 780T392 545V0H203ZM291 1135Q291
1237 346 1301T477 1366Q519 1366 562 1348T646 1312T724 1293Q759 1293 778 1315T805 1380H905Q899 1257 845 1201T719 1145Q683 1145 635 1164T543 1202T471 1221Q439 1221 421 1202T387 1135H291Z" />
<glyph unicode="&#xf2;" glyph-name="ograve" horiz-adv-x="1129" d="M560 -17Q415 -17 312 45T153 221T98 483Q98 623 147 740T300 929T572 1000Q736 1000 837 927T984 738T1031 492Q1031 341 977 227T819 48T560 -17ZM564 122Q685 122 764 208T844 488Q844 859
570 859Q496 859 431 821T325 701T284 484Q284 324 349 223T564 122ZM511 1136L238 1445H468L640 1136H511Z" />
<glyph unicode="&#xf3;" glyph-name="oacute" horiz-adv-x="1129" d="M560 -17Q415 -17 312 45T153 221T98 483Q98 623 147 740T300 929T572 1000Q736 1000 837 927T984 738T1031 492Q1031 341 977 227T819 48T560 -17ZM564 122Q685 122 764 208T844 488Q844 859
570 859Q496 859 431 821T325 701T284 484Q284 324 349 223T564 122ZM506 1135L674 1444H893L637 1135H506Z" />
<glyph unicode="&#xf4;" glyph-name="ocircumflex" horiz-adv-x="1129" d="M560 -17Q415 -17 312 45T153 221T98 483Q98 623 147 740T300 929T572 1000Q736 1000 837 927T984 738T1031 492Q1031 341 977 227T819 48T560 -17ZM564 122Q685 122 764 208T844 488Q844
859 570 859Q496 859 431 821T325 701T284 484Q284 324 349 223T564 122ZM223 1136L483 1494H665L921 1136H733L570 1362L404 1136H223Z" />
<glyph unicode="&#xf5;" glyph-name="otilde" horiz-adv-x="1129" d="M560 -17Q415 -17 312 45T153 221T98 483Q98 623 147 740T300 929T572 1000Q736 1000 837 927T984 738T1031 492Q1031 341 977 227T819 48T560 -17ZM564 122Q685 122 764 208T844 488Q844 859
570 859Q496 859 431 821T325 701T284 484Q284 324 349 223T564 122ZM265 1135Q265 1237 320 1301T451 1366Q493 1366 536 1348T620 1312T698 1293Q733 1293 752 1315T779 1380H879Q873 1257 819 1201T693 1145Q657 1145 609 1164T517 1202T445 1221Q413 1221 395
1202T361 1135H265Z" />
<glyph unicode="&#xf6;" glyph-name="odieresis" horiz-adv-x="1129" d="M560 -17Q415 -17 312 45T153 221T98 483Q98 623 147 740T300 929T572 1000Q736 1000 837 927T984 738T1031 492Q1031 341 977 227T819 48T560 -17ZM564 122Q685 122 764 208T844 488Q844
859 570 859Q496 859 431 821T325 701T284 484Q284 324 349 223T564 122ZM650 1135V1307H872V1135H650ZM272 1135V1307H494V1135H272Z" />
<glyph unicode="&#xf7;" glyph-name="divide" horiz-adv-x="1200" d="M486 814V1053H717V814H486ZM126 513V675H1074V513H126ZM486 127V366H717V127H486Z" />
<glyph unicode="&#xf8;" glyph-name="oslash" horiz-adv-x="1129" d="M262 -119L133 -85L244 99Q98 239 98 503Q98 649 147 771T300 967T572 1041Q635 1041 687 1029T784 995L890 1171L1021 1136L889 918Q963 842 997 735T1031 512Q1031 356 977 237T819 49T560
-19Q444 -19 349 26L262 -119ZM337 253L703 861Q645 895 570 895Q496 895 431 856T325 730T284 504Q284 429 296 366T337 253ZM564 127Q685 127 764 216T844 508Q844 663 794 761L429 158Q484 127 564 127Z" />
<glyph unicode="&#xf9;" glyph-name="ugrave" horiz-adv-x="1147" d="M523 -17Q333 -17 241 77T148 352V984H334V351Q334 257 376 190T533 122Q639 122 696 165T777 281T800 447V984H986V360Q986 216 991 135T1003 0H846Q840 20 835 57T825 161Q787 75 706 29T523
-17ZM513 1136L240 1445H470L642 1136H513Z" />
<glyph unicode="&#xfa;" glyph-name="uacute" horiz-adv-x="1147" d="M523 -17Q333 -17 241 77T148 352V984H334V351Q334 257 376 190T533 122Q639 122 696 165T777 281T800 447V984H986V360Q986 216 991 135T1003 0H846Q840 20 835 57T825 161Q787 75 706 29T523
-17ZM508 1135L676 1444H895L639 1135H508Z" />
<glyph unicode="&#xfb;" glyph-name="ucircumflex" horiz-adv-x="1147" d="M523 -17Q333 -17 241 77T148 352V984H334V351Q334 257 376 190T533 122Q639 122 696 165T777 281T800 447V984H986V360Q986 216 991 135T1003 0H846Q840 20 835 57T825 161Q787 75 706
29T523 -17ZM225 1136L485 1494H667L923 1136H735L572 1362L406 1136H225Z" />
<glyph unicode="&#xfc;" glyph-name="udieresis" horiz-adv-x="1147" d="M523 -17Q333 -17 241 77T148 352V984H334V351Q334 257 376 190T533 122Q639 122 696 165T777 281T800 447V984H986V360Q986 216 991 135T1003 0H846Q840 20 835 57T825 161Q787 75 706
29T523 -17ZM652 1135V1307H874V1135H652ZM274 1135V1307H496V1135H274Z" />
<glyph unicode="&#xfd;" glyph-name="yacute" horiz-adv-x="1025" d="M299 -367Q279 -367 255 -363T191 -351V-210Q223 -218 240 -221T268 -224Q325 -224 355 -165T408 -29L418 5L14 984H220L396 519L516 188L809 984H1011L573 -84Q549 -144 514 -210T426 -321T299
-367ZM447 1135L615 1444H834L578 1135H447Z" />
<glyph unicode="&#xfe;" glyph-name="thorn" horiz-adv-x="1166" d="M158 -416V1449H343V892Q389 948 463 995T650 1042Q794 1042 886 970T1022 779T1066 522Q1066 425 1043 330T970 156T840 32T644 -15Q574 -15 491 20T340 132L345 19V-416H158ZM609 135Q708
135 764 189T845 330T869 516Q869 579 859 645T821 768T743 860T613 895Q523 895 469 857T388 760T353 634T344 511Q344 455 352 390T387 267T467 172T609 135Z" />
<glyph unicode="&#xff;" glyph-name="ydieresis" horiz-adv-x="1025" d="M299 -367Q279 -367 255 -363T191 -351V-210Q223 -218 240 -221T268 -224Q325 -224 355 -165T408 -29L418 5L14 984H220L396 519L516 188L809 984H1011L573 -84Q549 -144 514 -210T426 -321T299
-367ZM591 1135V1307H813V1135H591ZM213 1135V1307H435V1135H213Z" />
<glyph unicode="&#x2013;" glyph-name="endash" horiz-adv-x="1207" d="M149 444V608H1057V444H149Z" />
<glyph unicode="&#x2014;" glyph-name="emdash" horiz-adv-x="1906" d="M150 444V608H1756V444H150Z" />
<glyph unicode="&#x2018;" glyph-name="quoteleft" horiz-adv-x="517" d="M92 923L290 1412H431L312 923H92Z" />
<glyph unicode="&#x2019;" glyph-name="quoteright" horiz-adv-x="501" d="M109 923L220 1412H443L247 923H109Z" />
<glyph unicode="&#x201a;" glyph-name="quotesinglbase" horiz-adv-x="511" d="M55 -256L166 223H387L194 -256H55Z" />
<glyph unicode="&#x201c;" glyph-name="quotedblleft" horiz-adv-x="878" d="M454 923L652 1412H793L674 923H454ZM92 923L290 1412H431L312 923H92Z" />
<glyph unicode="&#x201d;" glyph-name="quotedblright" horiz-adv-x="866" d="M474 923L585 1412H808L612 923H474ZM109 923L220 1412H443L247 923H109Z" />
<glyph unicode="&#x201e;" glyph-name="quotedblbase" horiz-adv-x="875" d="M419 -256L529 223H751L558 -256H419ZM55 -256L165 223H387L194 -256H55Z" />
<glyph unicode="&#x2022;" glyph-name="bullet" horiz-adv-x="807" d="M403 403Q321 403 254 441T146 549T106 713Q106 810 146 879T253 986T403 1024Q485 1024 552 986T660 879T701 713Q701 619 661 550T554 442T403 403Z" />
<glyph unicode="&#x2039;" glyph-name="guilsinglleft" horiz-adv-x="605" d="M347 108L93 495V514L348 900L490 863L282 503L492 141L347 108Z" />
<glyph unicode="&#x203a;" glyph-name="guilsinglright" horiz-adv-x="605" d="M258 107L113 141L319 502L112 863L258 900L512 511V493L258 107Z" />
</font>
</defs>
</svg>
