<?xml version="1.0" standalone="no"?>
<!DOCTYPE svg PUBLIC "-//W3C//DTD SVG 1.1//EN" "http://www.w3.org/Graphics/SVG/1.1/DTD/svg11.dtd">
<svg xmlns="http://www.w3.org/2000/svg">
<defs >
<font id="Jomolhari" horiz-adv-x="521" ><font-face
    font-family="Jomolhari"
    units-per-em="1024"
    panose-1="1 1 1 0 1 1 1 1 1 1"
    ascent="1248"
    descent="-392"
    alphabetic="0" />
<glyph unicode=" " glyph-name="space" horiz-adv-x="300" />
<glyph unicode="!" glyph-name="exclam" horiz-adv-x="381" d="M200 200L190 324Q187 349 185 375T178 428Q176 441 176 446T175 454T173 463T171 481Q166 514 162 545T154 603T149 651T147 684Q147 725 163 748T209 771Q268 771 268 678Q268 667 268 657T267
638L215 200H200ZM209 111Q234 111 251 93T268 48Q268 23 251 7T208 -10Q182 -10 165 6T147 49Q147 75 165 93T209 111Z" />
<glyph unicode="&quot;" glyph-name="quotedbl" horiz-adv-x="466" d="M318 491Q310 533 303 572T291 643T284 696T281 724Q281 744 295 757T330 771Q349 771 363 758T378 727Q378 701 371 652T349 538L343 507L341 491H318ZM123 491Q115 533 109 572T98 643T91
696T88 724Q88 744 102 757T137 771Q157 771 171 758T185 727Q185 701 178 652T156 538Q154 527 152 516T147 491H123Z" />
<glyph unicode="#" glyph-name="numbersign" horiz-adv-x="571" d="M538 246H413L378 0H311L346 246H194L156 0H89L127 246H5V309H137L163 462H37V525H171L207 756H272L237 525H389L423 756H490L455 525H566V462H446L423 309H538V246ZM228 462L204 309H357L381 462H228Z" />
<glyph unicode="$" glyph-name="dollar" horiz-adv-x="571" d="M467 571Q453 644 413 681T301 727V446Q352 416 385 395T440 358T475 328T499 296Q522 259 522 194Q522 152 507 118T462 60Q447 47 432 38T398 23T357 11T301 0V-100H262V0Q227 1 199 4T147 14T99
31T50 58V207H67Q87 116 134 75T262 31V354Q203 388 164 415T102 469T69 523T59 585Q59 622 75 654T121 709Q135 721 149 729T179 742T215 752T262 759V830H301V759Q373 749 414 736T485 697V571H467ZM261 727Q144 703 144 610Q144 590 149 574T166 541T202 507T261
465V727ZM301 31Q367 45 399 77T431 166Q431 193 426 213T406 252T366 290T301 334V31Z" />
<glyph unicode="%" glyph-name="percent" horiz-adv-x="951" d="M765 423Q820 423 850 392T881 301Q881 266 874 232T853 165T820 103T776 50Q747 24 717 12T648 0Q587 0 550 40T513 147Q513 201 534 250T590 338T670 400T765 423ZM769 387Q718 387 670 318Q655
295 642 268T619 213T604 158T598 107Q598 75 617 55T669 34Q701 34 728 50T784 105Q815 147 833 197T852 296Q852 334 828 360T769 387ZM283 -15H229L630 699Q596 679 569 672T507 665Q480 665 464 668T430 677Q435 661 436 650T438 626Q438 568 419 515T367 420T292
355T204 330Q176 330 152 341T109 372T80 418T69 475Q69 530 90 580T146 670T227 732T323 756Q336 756 345 755T364 750T382 740T402 724Q422 707 443 701T500 694Q527 694 549 698T593 711T634 734T679 771H723L283 -15ZM399 685Q373 692 361 697T336 714Q328
721 323 721Q296 721 267 694T213 625T172 533T156 438Q156 407 175 388T223 369Q258 369 291 391T351 450T393 533T409 629Q409 651 399 685Z" />
<glyph unicode="&amp;" glyph-name="ampersand" horiz-adv-x="888" d="M811 462Q790 459 775 455T747 444T725 424T704 394L674 341Q661 318 649 299T623 259T595 218T561 171Q640 66 736 66Q767 66 789 79T839 126L856 113Q830 53 785 19T684 -15Q634 -15 589
9T490 89Q458 61 428 41T369 9T308 -9T243 -15Q151 -15 100 31T48 159Q48 231 92 291T227 404L270 430Q258 463 251 486T239 529T233 564T231 598Q231 634 244 665T282 720T338 757T406 771Q440 771 468 761T517 733T549 689T561 634Q561 603 552 577T521 528T466
483T383 438Q402 401 419 371T453 314T490 260T534 203Q590 276 614 324T638 411Q638 436 623 446T564 462V486H811V462ZM365 475Q434 511 467 550T500 638Q500 680 474 707T408 735Q370 735 345 710T320 643Q320 623 322 605T329 567T343 525T365 475ZM287 391Q250
367 224 346T182 302T159 256T152 205Q152 172 163 143T195 91T243 57T300 44Q337 44 373 61T461 118Q437 148 416 176T375 235T334 304T287 391Z" />
<glyph unicode="&apos;" glyph-name="quotesingle" horiz-adv-x="205" d="M91 491Q83 533 77 572T65 643T57 696T54 724Q54 744 68 757T103 771Q123 771 137 758T151 727Q151 701 144 652T123 538Q121 527 119 516T115 491H91Z" />
<glyph unicode="(" glyph-name="parenleft" horiz-adv-x="381" d="M346 753Q316 728 294 707T254 666T224 624T198 575Q175 521 164 452T152 291Q152 203 162 137T193 14Q204 -18 217 -42T247 -89T288 -134T346 -184L333 -202Q310 -189 293 -177T261 -151T230
-123T197 -86Q159 -43 132 0T88 89T63 183T54 287Q54 486 175 635Q191 654 206 670T240 701T281 733T336 771L346 753Z" />
<glyph unicode=")" glyph-name="parenright" horiz-adv-x="381" d="M33 -184Q64 -159 86 -138T126 -97T156 -54T181 -5Q227 100 227 278Q227 366 217 432T186 556Q174 588 162 612T132 659T91 704T33 753L47 771Q69 757 86 745T119 720T150 691T183 655Q220 611
247 568T291 480T317 386T325 282Q325 180 295 95T204 -66Q189 -86 174 -101T140 -132T98 -164T43 -202L33 -184Z" />
<glyph unicode="*" glyph-name="asterisk" horiz-adv-x="571" d="M275 520Q260 511 250 505T234 495T224 487T215 479Q211 474 208 471T200 463T188 450T168 428Q152 411 143 406T120 401Q78 401 78 438Q78 461 94 473T149 491Q169 495 183 498T210 507T236 520T267
538L255 546Q247 550 244 552T239 555T234 557T223 562Q209 567 193 571T156 580Q114 588 96 600T78 634Q78 652 89 663T117 674Q131 674 142 667T171 638Q186 623 198 611T221 590T246 572T275 554V570Q275 593 271 619T258 673Q251 691 249 706T246 733Q246 750
257 760T286 771Q303 771 315 760T328 731Q328 720 325 707T316 677Q307 650 302 627T296 582V552L305 557Q313 562 316 563T321 566T325 570T335 577Q341 582 343 584T347 587T352 592T363 602Q370 609 372 611T376 615T379 620T387 630Q408 655 422 666T451 677Q470
677 480 665T491 633Q491 610 479 600T433 585Q414 582 400 578T372 569T343 557T306 537L315 530Q361 503 426 491Q464 486 478 475T493 442Q493 423 483 411T452 399Q436 399 421 410T384 449Q340 503 305 517L296 520V513Q296 478 302 447T319 384Q329 359 329
346Q329 329 315 316T283 302Q267 302 256 315T244 343Q244 365 257 397Q267 424 272 445T276 483L275 513V520Z" />
<glyph unicode="+" glyph-name="plus" horiz-adv-x="644" d="M283 577H359V326H610V251H359V0H283V251H34V326H283V577Z" />
<glyph unicode="," glyph-name="comma" horiz-adv-x="285" d="M84 -140Q178 -75 178 -18Q178 -11 174 -7T163 -3Q161 -3 160 -3T154 -5Q149 -6 143 -7T131 -8Q99 -8 82 8T64 50Q64 79 82 97T131 116Q170 116 196 87T222 15Q222 -37 187 -84T94 -161L84 -140Z" />
<glyph unicode="-" glyph-name="hyphen" horiz-adv-x="381" d="M325 292V220H44V292H325Z" />
<glyph unicode="." glyph-name="period" horiz-adv-x="285" d="M144 113Q168 113 187 94T207 49Q207 24 188 6T142 -13Q116 -13 98 5T79 50Q79 77 98 95T144 113Z" />
<glyph unicode="/" glyph-name="slash" horiz-adv-x="318" d="M67 -16H-10L251 771H328L67 -16Z" />
<glyph unicode="0" glyph-name="zero" horiz-adv-x="571" d="M290 771Q345 771 391 743T472 662T524 538T543 377Q543 323 535 272T512 177T476 97T428 38Q368 -16 285 -16Q232 -16 189 5T113 68Q94 93 78 128T51 205T33 292T26 383Q26 435 34 485T58 580T96 659T144
718Q175 746 210 758T290 771ZM283 742Q211 742 174 648T137 375Q137 14 285 14Q358 14 395 103T433 370Q433 556 396 649T283 742Z" />
<glyph unicode="1" glyph-name="one" horiz-adv-x="571" d="M341 769V84Q341 63 345 51T361 31T394 20T450 16V0H135V16Q168 17 189 22T222 37T238 63T243 106V622Q243 677 209 677Q191 677 157 664L126 651V668L331 771L341 769Z" />
<glyph unicode="2" glyph-name="two" horiz-adv-x="571" d="M479 0H34V14L237 229Q309 306 347 382T386 525Q386 598 343 642T224 687Q194 687 171 680T129 655T93 609T59 539L35 544Q42 574 49 597T65 638T84 671T108 701Q140 735 182 753T272 771Q317 771 355
756T422 713T467 650T484 571Q484 502 449 435T338 287L146 87H418Q437 87 451 89T476 100T499 123T527 163L542 156L479 0Z" />
<glyph unicode="3" glyph-name="three" horiz-adv-x="571" d="M174 391Q203 401 224 410T262 428T292 447T318 470Q339 492 351 521T363 581Q363 636 329 669T237 703Q183 703 143 675T68 582L50 587Q60 612 68 631T85 665T104 692T127 716Q190 771 275 771Q355
771 403 729T452 615Q452 592 447 572T429 534T397 497T346 457Q384 441 404 429T442 397Q466 371 478 333T491 249Q491 189 469 139T403 54Q361 22 301 3T176 -16Q117 -16 83 1T49 49Q49 67 60 78T92 89Q107 89 123 83T164 60Q196 40 216 33T261 25Q293 25 320
38T367 73T398 127T409 195Q409 255 378 301T291 365Q272 372 248 374T174 377V391Z" />
<glyph unicode="4" glyph-name="four" horiz-adv-x="571" d="M539 190H422V0H334V190H14V263L372 771H422V263H539V190ZM333 655L59 263H333V655Z" />
<glyph unicode="5" glyph-name="five" horiz-adv-x="571" d="M159 568Q210 559 248 549T316 527T368 500T411 466Q432 444 446 423T469 380T482 332T486 276Q486 147 411 73Q367 29 307 7T174 -16Q110 -16 74 3T37 54Q37 97 84 97Q104 97 124 89T171 59Q198 40
214 33T247 26Q281 26 310 41T360 82T394 144T406 220Q406 309 358 363T207 450Q172 459 143 464T87 470Q73 470 73 479Q73 484 74 485L198 756H437Q455 756 465 761T490 785L500 777L456 675Q453 670 449 668T430 665H207L159 568Z" />
<glyph unicode="6" glyph-name="six" horiz-adv-x="571" d="M512 762Q444 751 387 723T287 653T214 557T173 437Q200 453 219 463T253 479T284 487T318 489Q368 489 408 473T476 425T519 349T534 249Q534 190 517 142T468 58T392 4T294 -16Q238 -16 192 5T113
68Q78 111 59 178T39 318Q39 436 89 532T237 696Q267 716 295 730T355 754T424 770T509 781L512 762ZM272 436Q245 436 219 429T176 407Q145 383 145 304Q145 167 187 92T307 16Q367 16 399 66T431 210Q431 319 391 377T272 436Z" />
<glyph unicode="7" glyph-name="seven" horiz-adv-x="571" d="M513 737L270 -9H197L422 670H174Q151 670 134 667T103 653T75 625T42 578L23 588L89 756H513V737Z" />
<glyph unicode="8" glyph-name="eight" horiz-adv-x="571" d="M331 423Q383 384 417 353T471 294T499 238T508 176Q508 132 492 97T447 36T376 -2T283 -16Q235 -16 195 -3T125 36T80 95T64 171Q64 201 69 223T91 268T136 317T212 379Q167 418 140 446T97 497T76
541T71 591Q71 630 87 663T132 720T200 757T287 771Q330 771 366 759T429 726T469 675T484 610Q484 581 476 557T450 510T403 467T331 423ZM242 355Q216 335 199 316T171 276T155 232T150 180Q150 106 190 61T295 16Q352 16 386 50T421 141Q421 165 416 185T397
224T363 263T310 306L242 355ZM297 444Q326 463 346 481T379 520T398 562T404 611Q404 670 370 705T278 740Q224 740 190 709T155 626Q155 578 188 536T297 444Z" />
<glyph unicode="9" glyph-name="nine" horiz-adv-x="571" d="M64 -3Q129 8 185 36T285 107T361 207T411 335Q365 300 326 285T239 270Q193 270 155 286T90 333T49 406T34 501Q34 559 52 608T102 694T177 750T271 771Q327 771 373 748T453 682T505 580T524 450Q524
391 511 335T473 229T412 137T329 63Q300 43 273 29T216 4T150 -13T67 -25L64 -3ZM413 450Q413 594 375 667T262 740Q209 740 179 701Q170 689 163 672T151 633T142 588T139 541Q139 438 177 379T280 319Q312 319 342 330T398 363Q406 370 409 379T413 404V450Z"
/>
<glyph unicode=":" glyph-name="colon" horiz-adv-x="318" d="M156 524Q181 524 200 505T219 459Q219 434 200 416T155 397Q129 397 111 415T92 460Q92 486 111 505T156 524ZM156 113Q181 113 200 94T219 49Q219 24 200 6T155 -13Q129 -13 111 5T92 50Q92 77 111
95T156 113Z" />
<glyph unicode=";" glyph-name="semicolon" horiz-adv-x="318" d="M112 -140Q205 -74 205 -18Q205 -3 189 -3Q186 -3 181 -5Q176 -6 170 -7T159 -8Q127 -8 109 8T91 52Q91 81 109 98T159 116Q178 116 194 109T223 88T242 56T249 15Q249 -37 215 -84T122 -161L112
-140ZM156 524Q181 524 200 505T219 459Q219 434 200 416T155 397Q129 397 111 415T92 460Q92 486 111 505T156 524Z" />
<glyph unicode="&lt;" glyph-name="less" horiz-adv-x="644" d="M31 251V326L612 588V507L132 289L612 71V-11L31 251Z" />
<glyph unicode="=" glyph-name="equal" horiz-adv-x="644" d="M610 365H34V441H610V365ZM610 137H34V212H610V137Z" />
<glyph unicode="&gt;" glyph-name="greater" horiz-adv-x="644" d="M31 71L512 289L31 507V588L612 326V251L31 -11V71Z" />
<glyph unicode="?" glyph-name="question" horiz-adv-x="507" d="M260 186Q260 262 292 349L325 422Q346 470 356 515T367 601Q367 629 358 654T331 697T292 726T243 737Q222 737 203 731T169 716T145 693T136 667Q136 659 140 651T155 631Q167 617 173 606T179
582Q179 560 167 548T132 535Q77 535 77 606Q77 642 91 672T130 724T189 758T262 771Q310 771 356 753T431 706Q451 686 461 657T472 595Q472 569 467 546T449 497T413 439T353 363Q337 343 325 324T304 284T289 240T278 186H260ZM270 112Q296 112 313 94T331 49Q331
24 314 8T268 -9Q242 -9 226 7T210 50Q210 77 227 94T270 112Z" />
<glyph unicode="@" glyph-name="at" horiz-adv-x="1051" d="M799 49Q757 30 725 18T665 -2T609 -13T552 -16Q463 -16 387 13T254 95T165 218T132 372Q132 456 164 528T253 655T386 740T549 771Q628 771 696 745T815 674T895 568T924 437Q924 382 907 332T861 245T794
185T713 163Q672 163 644 186T610 246Q581 208 543 186T467 164Q446 164 428 174T395 201T373 241T365 292Q365 358 392 421T467 528Q496 555 525 567T590 580Q605 580 616 577T636 568T653 550T672 520L684 564H762L688 273Q687 269 686 264T685 253Q685 200 731
200Q759 200 785 219T832 269T865 341T878 426Q878 490 852 546T782 645T677 711T549 736Q486 736 431 714T334 649Q284 599 256 524T228 369Q228 294 252 232T321 124T426 54T562 28Q590 28 616 31T668 40T723 57T785 83L799 49ZM602 529Q580 529 553 512T501
467Q475 435 461 395T447 311Q447 264 465 239T515 213Q539 213 562 230T602 280Q614 301 623 324T639 372T649 418T653 461Q653 529 602 529Z" />
<glyph unicode="A" glyph-name="A" horiz-adv-x="816" d="M808 0H517V21Q532 21 542 21T558 23T570 26T580 31Q588 36 592 43T597 59Q597 87 575 137L527 246H229L176 113Q172 102 170 91T167 68Q167 45 185 33T245 21V0H18V21Q39 22 54 28T84 53T116 109T161
209L398 769H420L705 121Q719 89 729 70T751 41T775 26T808 21V0ZM512 292L380 607L248 292H512Z" />
<glyph unicode="B" glyph-name="B" horiz-adv-x="761" d="M339 756Q488 756 563 707T638 562Q638 527 626 497T592 447Q581 438 571 431T549 419T520 408T481 397Q509 391 529 385T566 372T595 355T621 334Q677 284 677 205Q677 157 658 119T603 55T516 14T401
0H19V21Q54 22 75 26T109 42T125 72T129 123V631Q129 663 126 682T110 712T77 727T19 733V756H339ZM244 89Q244 61 259 52T314 42Q344 42 367 43T410 48T446 58T476 72Q546 112 546 204Q546 312 447 350Q431 356 413 360T371 366T316 370T244 372V89ZM354 418Q435
418 478 453T522 557Q522 635 471 674T320 713H270Q244 713 244 679V418H354Z" />
<glyph unicode="C" glyph-name="C" horiz-adv-x="761" d="M682 514Q674 542 666 562T650 599T631 629T606 656Q572 691 529 708T436 726Q374 726 324 702T238 634T183 526T164 386Q164 286 191 211T268 94Q343 34 447 34Q518 34 578 61T702 149L722 129Q670 60
590 22T411 -16Q326 -16 256 12T136 90T59 212T31 370Q31 469 65 548T165 682Q217 724 282 747T413 771Q498 771 581 743Q609 733 626 733Q643 733 655 743T673 771H697L708 514H682Z" />
<glyph unicode="D" glyph-name="D" horiz-adv-x="824" d="M118 631Q118 663 115 682T102 711T72 726T18 733V756H326Q433 756 518 731T661 657T751 539T782 381Q782 294 749 219T656 93Q603 49 520 25T341 0H18V21Q51 23 70 27T100 43T114 74T118 123V631ZM234
89Q234 61 246 52T292 42Q369 42 421 52T518 89Q658 169 658 373Q658 467 623 540T518 659Q476 687 422 700T292 713Q258 713 246 704T234 669V89Z" />
<glyph unicode="E" glyph-name="E" horiz-adv-x="697" d="M630 0H14V21Q45 23 64 28T94 44T109 74T113 123V631Q113 661 110 680T95 710T65 726T14 733V756H620L622 592H595Q587 631 577 654T549 691T500 708T421 712H267Q244 712 237 705T229 673V420H404Q439
420 461 424T496 439T517 472T530 528H557V263H530Q524 299 517 320T497 353T462 369T404 373H229V91Q229 74 231 66T238 54Q246 49 276 46T349 42H381Q442 42 483 48T554 71T606 117T649 193H682L630 0Z" />
<glyph unicode="F" glyph-name="F" horiz-adv-x="635" d="M520 263Q515 297 508 318T487 352T451 368T394 373H229V123Q229 93 232 74T247 44T279 28T333 21V0H14V21Q46 23 65 28T95 45T109 79T113 137V631Q113 661 110 680T95 710T65 726T14 733V756H620L622
592H595Q587 631 577 654T549 691T500 708T421 712H266Q242 712 236 705T229 673V420H394Q428 420 450 424T486 440T507 473T520 528H547V263H520Z" />
<glyph unicode="G" glyph-name="G" horiz-adv-x="824" d="M809 383Q784 381 769 377T745 363T733 337T730 295V64Q713 49 680 35T607 9T524 -9T444 -16Q349 -16 269 15T131 106Q83 157 60 222T37 370Q37 458 66 531T146 658T269 741T427 771Q505 771 583 745Q616
733 634 733Q652 733 666 744T685 771H709L719 530H693Q682 556 673 575T655 610T635 638T612 663Q544 726 447 726Q385 726 333 702T243 633Q208 590 187 520T166 372Q166 292 187 229T247 121T341 53T467 29Q498 29 525 34T574 49T607 70T619 97V282Q619 313
616 332T603 361T572 376T518 383V404H809V383Z" />
<glyph unicode="H" glyph-name="H" horiz-adv-x="824" d="M585 409V631Q585 662 582 680T568 710T537 725T484 733V756H801V733Q768 730 748 726T718 710T704 681T701 631V123Q701 93 704 75T719 45T749 29T801 21V0H484V21Q517 23 537 27T567 44T581 79T585 137V359H238V123Q238
93 241 75T256 45T287 29T339 21V0H21V21Q55 23 75 27T105 44T119 79T122 137V631Q122 662 119 680T105 710T74 725T21 733V756H339V733Q306 730 286 726T256 710T242 681T238 631V409H585Z" />
<glyph unicode="I" glyph-name="I" horiz-adv-x="381" d="M131 631Q131 663 128 682T112 712T78 727T20 733V756H359V733Q323 732 301 728T267 712T251 682T247 631V123Q247 92 251 73T268 42T302 27T359 21V0H20V21Q56 22 78 26T111 42T127 72T131 123V631Z" />
<glyph unicode="J" glyph-name="J" horiz-adv-x="444" d="M318 209Q318 101 268 43T123 -16Q74 -16 43 7T11 67Q11 90 27 106T67 123Q110 123 126 66Q133 44 139 35T157 26Q200 26 200 102V631Q200 662 197 681T182 711T150 726T94 733V756H422V733Q387 731 367
727T336 711T322 681T318 631V209Z" />
<glyph unicode="K" glyph-name="K" horiz-adv-x="824" d="M471 756H770V733Q741 731 721 728T683 715T646 690T597 645L381 430L646 145Q685 103 709 79T752 42T787 26T825 21V0H478V21L509 23Q557 24 557 48Q557 58 546 77T516 121T469 178T408 242L287 362L258
338V123Q258 92 261 73T275 43T306 28T360 21V0H39V21Q73 23 93 28T123 45T137 79T141 137V631Q141 661 138 680T123 710T92 726T39 733V756H363V733Q328 731 308 727T276 711T262 681T258 631V397L460 581Q508 625 528 652T549 698Q549 715 539 723T501 733H471V756Z"
/>
<glyph unicode="L" glyph-name="L" horiz-adv-x="697" d="M683 198L627 0H14V21Q45 23 64 28T94 44T109 74T113 123V631Q113 661 110 680T95 710T65 726T14 733V756H335V733Q301 731 280 727T248 711T233 680T229 631V91Q229 76 232 67T247 52T277 46T328 44H404Q477
44 525 61T605 113Q617 127 628 148T654 198H683Z" />
<glyph unicode="M" glyph-name="M" horiz-adv-x="1016" d="M478 0H461L174 627V168Q174 124 178 97T195 53T228 30T282 21V0H14V21Q49 24 70 30T103 53T119 96T123 168V631Q123 662 120 681T105 711T72 726T16 733V756H242L505 179L759 756H985V733Q953 731 934
726T904 710T890 680T886 631V123Q886 93 890 74T904 44T934 28T985 21V0H665V21Q699 23 719 28T751 45T765 79T769 137V654L478 0Z" />
<glyph unicode="N" glyph-name="N" horiz-adv-x="824" d="M679 -13L174 615V168Q174 124 178 97T195 53T228 30T282 21V0H14V21Q49 24 70 30T103 53T119 96T123 168V670Q106 690 94 702T70 721T45 730T14 733V756H209L648 203V588Q648 692 615 716Q602 724 587
727T539 733V756H806V733Q774 731 759 726T732 713Q698 691 698 588V-13H679Z" />
<glyph unicode="O" glyph-name="O" horiz-adv-x="824" d="M418 771Q499 771 572 737T697 643Q739 592 762 524T785 378Q785 291 758 219T681 94T563 13T412 -16Q329 -16 260 13T142 94T66 220T39 381Q39 467 67 539T145 662T264 742T418 771ZM408 731Q361 731
318 710T243 650Q226 630 213 600T189 535T174 459T169 379Q169 276 196 196T271 76Q331 25 413 25Q456 25 494 41T562 86Q655 177 655 384Q655 483 628 560T551 679Q488 731 408 731Z" />
<glyph unicode="P" glyph-name="P" horiz-adv-x="635" d="M231 123Q231 92 235 73T250 42T283 27T338 21V0H18V21Q51 24 69 29T98 46T110 79T113 137V631Q113 662 110 680T97 709T68 725T18 733V756H319Q404 756 472 732T576 669Q619 618 619 549Q619 492 590
444T509 367Q472 347 425 338T309 329Q287 329 271 329T231 331V123ZM231 378Q251 376 264 375T295 374Q494 374 494 542Q494 631 440 672T268 713Q245 713 238 706T231 674V378Z" />
<glyph unicode="Q" glyph-name="Q" horiz-adv-x="824" d="M800 -202H793Q785 -204 776 -204T756 -204Q617 -204 516 -169T355 -64L302 -1Q271 9 249 19T208 40T173 65T140 97Q39 207 39 375Q39 462 66 534T143 659T261 741T412 771Q494 771 562 742T680 661T757
537T785 378Q785 185 658 72Q638 54 620 42T581 20T538 4T486 -8Q520 -53 555 -85T629 -139T709 -170T800 -181V-202ZM408 731Q361 731 319 710T244 649Q227 629 213 600T189 535T174 459T169 379Q169 276 196 196T271 76Q331 25 412 25Q462 25 506 46T581 105Q597
125 611 155T634 222T649 299T655 382Q655 482 628 559T551 679Q488 731 408 731Z" />
<glyph unicode="R" glyph-name="R" horiz-adv-x="761" d="M752 0H568L296 352L233 349V123Q233 93 236 74T251 44T282 28T335 21V0H19V21Q51 24 70 29T100 46T113 79T116 137V631Q116 661 113 679T100 709T71 725T19 733V756H334Q418 756 484 734T583 673Q604
650 614 620T624 554Q624 476 576 431T418 364L653 74Q677 46 698 35T752 21V0ZM233 391Q273 392 302 394T354 400T396 412T435 430Q466 447 483 480T500 557Q500 638 450 675T289 713Q255 713 244 705T233 672V391Z" />
<glyph unicode="S" glyph-name="S" horiz-adv-x="635" d="M535 528H507Q500 553 494 572T479 606T460 634T437 661Q377 724 297 724Q244 724 212 696T179 620Q179 573 218 532T346 442Q460 380 510 321T561 192Q561 148 543 110T494 44T420 0T328 -16Q293 -16
259 -10T193 10Q176 16 162 19T139 23Q126 23 117 12T107 -15H82L48 227H74Q117 122 172 74T305 25Q368 25 406 60T445 152Q445 174 441 191T428 220Q408 252 365 286T260 354Q212 379 178 404T123 456T91 512T81 575Q81 670 147 723Q175 746 209 758T276 771Q306
771 336 765T399 746Q415 739 428 736T450 733Q478 733 486 771H510L535 528Z" />
<glyph unicode="T" glyph-name="T" horiz-adv-x="697" d="M228 708Q180 708 150 703T100 682T69 638T47 562H19L26 756H670L677 562H649Q639 609 628 637T597 682T547 703T467 708H406V123Q406 92 410 73T425 43T458 28T515 21V0H183V21Q218 23 239 27T271 44T286
79T290 137V708H228Z" />
<glyph unicode="U" glyph-name="U" horiz-adv-x="824" d="M697 290Q697 224 689 181T660 101Q592 -16 404 -16Q258 -16 188 55T118 275V631Q118 662 115 681T101 711T70 726T16 733V756H339V733Q304 730 284 726T252 710T238 681T234 631V266Q234 212 241 177T263
115Q310 34 431 34Q496 34 547 58T621 123Q635 150 640 185T646 280V588Q646 631 642 658T627 701T595 724T541 733V756H805V733Q770 729 749 722T716 700T701 658T697 588V290Z" />
<glyph unicode="V" glyph-name="V" horiz-adv-x="824" d="M795 733Q775 732 762 729T737 714T716 682T690 627L437 -13H420L139 614Q120 653 107 676T81 711T54 728T18 733V756H323V733L289 732Q236 729 236 696Q236 689 238 681T245 658T259 623T283 570L455
184L622 602Q634 629 639 651T645 687Q645 695 640 704T627 719Q616 727 604 729T562 733V756H795V733Z" />
<glyph unicode="W" glyph-name="W" horiz-adv-x="1077" d="M1063 733Q1040 729 1026 724T1001 711T984 689T969 653Q938 569 916 508T875 398T843 306T812 218T778 117T736 -13H719L537 470L360 -13H343L123 600Q107 641 95 666T71 705T43 725T5 733V756H285V733Q242
731 226 724T210 698Q210 688 213 675T223 645L388 215L510 538L472 631Q457 665 447 685T424 716T397 730T357 733V756H661V733Q616 733 596 723T575 694Q575 685 579 670T591 636L605 601L756 212L898 598Q917 650 917 685Q917 708 900 718T838 733V756H1063V733Z"
/>
<glyph unicode="X" glyph-name="X" horiz-adv-x="824" d="M794 733Q767 732 747 728T709 712T672 681T624 626L457 418L677 106Q695 81 708 66T735 41T765 28T804 21V0H465V21L495 24Q552 25 552 57Q552 83 494 169L386 329L249 160Q218 120 204 97T190 62Q190
42 208 34T277 21V0H11V21Q33 23 47 26T77 42T115 80T176 151L355 372L232 554Q189 614 162 649T114 702T73 726T25 733V756H370V733H338Q283 732 283 699Q283 680 305 641T381 528L428 461L557 619Q583 651 592 667T602 697Q602 717 586 724T523 733V756H794V733Z"
/>
<glyph unicode="Y" glyph-name="Y" horiz-adv-x="824" d="M803 733Q780 732 763 726T728 706T691 667T645 604L476 346V123Q476 91 480 72T496 41T532 26T593 21V0H244V21Q283 23 306 27T340 44T355 78T359 137V335L210 554Q167 615 141 650T95 704T61 727T25
733V756H344V733H316Q263 730 263 701Q263 678 283 649L452 396L615 654Q631 677 631 696Q631 716 614 724T552 733V756H803V733Z" />
<glyph unicode="Z" glyph-name="Z" horiz-adv-x="697" d="M682 200L654 0H10V16L509 712H257Q143 712 103 663Q89 645 81 624T66 561H35L58 756H659V738L165 43H459Q508 43 544 54T601 88Q610 97 616 107T629 129T642 159T655 200H682Z" />
<glyph unicode="[" glyph-name="bracketleft" horiz-adv-x="381" d="M341 -178H100V756H341V727H238Q186 727 186 677V-91Q186 -150 243 -150H341V-178Z" />
<glyph unicode="\" glyph-name="backslash" horiz-adv-x="318" d="M66 771L328 -16H249L-10 771H66Z" />
<glyph unicode="]" glyph-name="bracketright" horiz-adv-x="381" d="M141 -150Q193 -150 193 -100V668Q193 727 137 727H39V756H280V-178H39V-150H141Z" />
<glyph unicode="^" glyph-name="asciicircum" horiz-adv-x="535" d="M26 339L234 756H302L509 339H431L268 669L105 339H26Z" />
<glyph unicode="_" glyph-name="underscore" horiz-adv-x="571" d="M0 -144V-86H571V-144H0Z" />
<glyph unicode="`" glyph-name="grave" horiz-adv-x="381" d="M231 578L54 689Q21 711 21 738Q21 755 32 764T60 774Q73 774 83 768T108 747L276 578H231Z" />
<glyph unicode="a" glyph-name="a" horiz-adv-x="507" d="M420 120Q420 82 427 68T454 53Q477 53 504 74V45Q475 13 453 1T402 -11Q367 -11 351 8T330 74Q278 29 239 9T163 -11Q109 -11 76 23T42 111Q42 138 52 165T83 210Q101 226 116 237T157 261T222 290T328
333V406Q328 453 306 477T241 501Q206 501 183 485T159 445Q159 436 161 422T164 399Q164 379 149 365T113 351Q93 351 79 365T64 400Q64 422 76 445T111 486Q134 506 172 517T256 528Q308 528 343 511T398 462Q410 442 415 416T420 344V120ZM328 305Q276 286 240
269T181 233T148 193T138 147V142Q138 124 144 108T160 79T185 60T214 53Q232 53 254 60T297 79Q317 90 322 102T328 140V305Z" />
<glyph unicode="b" glyph-name="b" horiz-adv-x="571" d="M174 431Q183 452 199 470T236 501T282 521T333 528Q376 528 412 509T476 456T518 376T534 277Q534 215 514 163T457 72T373 11T267 -11Q232 -11 198 -5T138 12T95 35T78 62V654Q78 690 68 701T23 713Q17
713 13 713T3 711V730L37 738Q77 747 105 756T169 780L174 777V431ZM174 79Q174 68 183 59T207 42T243 30T285 25Q356 25 394 77T433 224Q433 256 429 286T416 344T395 392T369 426Q352 442 331 448T287 455Q265 455 245 448T209 430T184 403T174 370V79Z" />
<glyph unicode="c" glyph-name="c" horiz-adv-x="507" d="M470 168Q456 141 445 122T423 87T401 59T377 37Q317 -11 244 -11Q197 -11 157 7T89 60T44 140T28 242Q28 313 52 372T123 470Q158 499 197 513T278 528Q314 528 346 519T402 493T440 456T454 410Q454
390 439 375T401 360Q381 360 367 375T346 415L339 440Q331 472 317 483T271 494Q236 494 208 480T159 438T128 374T116 292Q116 244 129 203T165 133T220 88T292 71Q341 71 377 94T454 178L470 168Z" />
<glyph unicode="d" glyph-name="d" horiz-adv-x="571" d="M388 -8V66Q359 24 325 7T242 -11Q194 -11 155 6T89 56T46 134T30 234Q30 295 49 348T100 441T175 504T268 527Q303 527 329 517T388 478V654Q388 689 378 701T335 713Q328 713 323 713T310 711V731Q337
738 359 743T400 754T438 766T478 780L484 777V130Q484 90 493 78T534 65Q539 65 546 65T561 66V48L393 -11L388 -8ZM388 381Q388 403 379 423T353 460T316 485T271 495Q239 495 213 480T168 436T139 368T129 280Q129 227 140 184T171 111T221 65T286 48Q340 48
370 84Q388 104 388 116V381Z" />
<glyph unicode="e" glyph-name="e" horiz-adv-x="507" d="M484 179Q448 85 387 37T242 -11Q193 -11 154 7T86 58T43 138T28 244Q28 307 45 359T94 448T170 507T267 528Q312 528 349 511T413 463Q424 449 431 435T444 404T454 366T462 318H111Q113 263 120 228T145
159Q194 67 289 67Q344 67 384 94T466 186L484 179ZM346 356Q335 430 311 458T234 487Q181 487 152 456T113 356H346Z" />
<glyph unicode="f" glyph-name="f" horiz-adv-x="381" d="M353 478H213V118Q213 86 216 67T231 37T263 22T319 16V0H23V16Q54 18 72 22T101 38T114 68T117 118V478H24V516H117Q117 550 119 575T126 621T138 660T157 697Q179 735 221 757T318 780Q370 780 403 760T437
709Q437 689 424 675T389 661Q375 661 363 670T338 703Q323 728 310 737T277 747Q212 747 212 646V516H353V478Z" />
<glyph unicode="g" glyph-name="g" horiz-adv-x="571" d="M442 444Q453 415 457 394T462 346Q462 310 448 278T410 222T354 183T285 168Q280 168 269 169T242 172L220 175Q208 172 196 164T174 145T158 123T151 103Q151 90 172 83T241 73L388 66Q451 63 488 31T525
-55Q525 -105 495 -141T420 -202T324 -237T229 -249Q188 -249 152 -241T89 -217T47 -182T31 -139Q31 -107 56 -75T144 1Q108 18 96 30T83 62Q83 79 95 96T136 140L185 186Q127 214 103 249T78 339Q78 378 93 412T133 472T194 513T268 528Q314 528 360 511L386 501Q403
495 417 491T449 486H537V444H442ZM168 -3Q151 -23 140 -37T123 -62T115 -82T112 -101Q112 -139 156 -161T277 -184Q326 -184 366 -176T434 -154T478 -119T494 -73Q494 -42 462 -30T353 -18Q332 -18 306 -17T254 -13T206 -9T168 -3ZM173 382Q173 341 181 307T205
248T242 210T291 196Q329 196 352 224T375 301Q375 336 367 372T342 438Q328 465 306 480T258 496Q218 496 196 466T173 386V382Z" />
<glyph unicode="h" glyph-name="h" horiz-adv-x="571" d="M179 116Q179 87 182 69T193 40T216 24T257 16V0H10V16Q35 20 49 25T71 40T81 68T83 116V654Q83 672 81 683T73 701T55 710T25 712Q15 712 11 711V730L42 738Q66 746 84 751T117 761T145 770T173 780L179
776V428Q219 481 257 503T346 525Q418 525 452 479T486 343V116Q486 87 488 70T497 42T519 26T556 16V0H314V16Q339 19 354 24T377 39T388 68T391 116V341Q391 462 307 462Q272 462 244 447T179 391V116Z" />
<glyph unicode="i" glyph-name="i" horiz-adv-x="318" d="M204 522V116Q204 85 206 67T218 38T243 23T289 16V0H18V16Q48 18 65 22T92 37T105 66T108 116V381Q108 419 100 434T71 450Q63 450 53 449T31 446L23 445V462L199 525L204 522ZM147 780Q171 780 188 763T205
721Q205 696 189 680T146 663Q121 663 105 679T89 721Q89 745 106 762T147 780Z" />
<glyph unicode="j" glyph-name="j" horiz-adv-x="318" d="M220 0Q220 -123 171 -186T26 -249Q-20 -249 -50 -232T-81 -186Q-81 -167 -67 -155T-33 -142Q-19 -142 -7 -150T21 -178Q35 -196 45 -203T69 -210Q96 -210 108 -190Q113 -182 116 -172T120 -146T122 -108T123
-52V381Q123 418 115 434T88 450Q79 450 68 449T42 446L37 445V462Q62 470 83 477T125 492T167 507T214 525L220 522V0ZM163 780Q187 780 203 763T220 721Q220 696 205 680T163 663Q138 663 122 679T105 721Q105 745 122 762T163 780Z" />
<glyph unicode="k" glyph-name="k" horiz-adv-x="571" d="M8 730L42 738Q68 745 87 750T122 761T153 770T185 780L189 777V297L346 437Q372 461 372 478Q372 488 360 492T315 498V514H548V496Q521 497 499 493T451 473T390 430T301 353L268 323L444 100Q479 56
508 38T576 16V0H328V16H349Q360 16 366 21T373 34Q373 39 371 44T360 58Q354 66 353 68L349 73L189 286V76Q189 47 203 34T252 18L275 16V0H8V16Q38 21 55 25T81 37T91 58T93 93V644Q93 685 83 699T44 713Q36 713 28 713T8 711V730Z" />
<glyph unicode="l" glyph-name="l" horiz-adv-x="318" d="M21 730Q51 737 74 742T119 754T161 766T203 780L208 777V96Q208 72 211 58T223 35T248 22T292 16V0H24V16Q51 19 68 23T95 37T108 62T112 100V644Q112 684 102 698T64 713Q56 713 47 713T28 711H21V730Z" />
<glyph unicode="m" glyph-name="m" horiz-adv-x="888" d="M21 474Q45 480 64 486T103 498T140 510T181 525L189 523V437Q225 464 250 481T294 508T330 521T365 525Q458 525 486 428Q534 479 578 502T673 525Q806 525 806 323V87Q806 22 856 19L885 16V0H635V16Q660
19 674 23T696 36T706 60T709 100V340Q709 376 705 400T691 438T665 459T624 466Q584 466 555 450T500 396V108Q500 82 503 65T516 37T542 22T582 16V0H326V16Q350 18 365 22T389 35T401 59T404 98V346Q404 466 330 466Q298 466 264 452T209 418Q194 401 194 398V76Q194
42 209 30T271 16V0H18V16Q42 17 57 21T82 34T94 58T98 97V386Q98 428 90 443T58 459Q48 459 41 458T21 454V474Z" />
<glyph unicode="n" glyph-name="n" horiz-adv-x="571" d="M18 474Q65 487 99 498T175 525L184 523V432Q213 459 235 477T275 505T311 520T349 525Q412 525 448 480T484 354V92Q484 51 498 36T553 16V0H316V16Q337 18 351 23T373 39T385 68T388 113V352Q388 462
305 462Q291 462 278 459T252 449T223 429T186 397V76Q186 45 202 33T262 16V0H20V16Q42 18 55 22T77 37T88 62T91 102V386Q91 428 82 443T49 459Q31 459 18 454V474Z" />
<glyph unicode="o" glyph-name="o" horiz-adv-x="571" d="M285 525Q340 525 386 506T465 453T518 371T537 267Q537 207 518 157T464 69T384 10T283 -11Q229 -11 183 9T104 65T52 150T33 257Q33 316 51 365T103 450T182 505T285 525ZM268 493Q208 493 172 444T136
314Q136 253 149 196T186 93Q204 58 234 39T299 20Q362 20 397 75T433 228Q433 301 412 364T355 459Q336 477 315 485T268 493Z" />
<glyph unicode="p" glyph-name="p" horiz-adv-x="571" d="M10 467Q34 474 54 480T93 494T131 508T174 525L181 523V435Q219 483 258 504T346 525Q387 525 422 507T482 457T522 380T537 282Q537 220 519 167T468 74T391 12T296 -11Q278 -11 264 -9T236 -1T210 14T181
38V-142Q181 -169 185 -185T200 -211T230 -224T282 -228V-248H5V-229Q30 -226 46 -222T71 -209T83 -186T86 -150V384Q86 425 77 437T39 450Q31 450 25 450T10 449V467ZM181 100Q181 87 192 74T220 50T258 32T300 25Q331 25 356 40T400 83T428 150T438 236Q438 286
428 327T400 396T355 440T297 456Q277 456 257 449T219 431T192 407T181 381V100Z" />
<glyph unicode="q" glyph-name="q" horiz-adv-x="571" d="M472 522H485V-161Q485 -179 487 -190T497 -209T519 -222T557 -232V-248H287V-229Q318 -227 337 -222T368 -208T384 -182T389 -142V73Q351 31 306 10T210 -11Q169 -11 136 7T78 57T40 134T26 234Q26 295
45 348T99 441T179 502T278 525Q313 525 342 517T411 485L472 522ZM389 381Q389 493 283 493Q210 493 168 435T125 275Q125 216 142 165T189 89Q223 58 275 58Q302 58 329 67T375 94Q389 106 389 145V381Z" />
<glyph unicode="r" glyph-name="r" horiz-adv-x="381" d="M8 462Q33 471 54 478T94 493T133 508T176 525L183 523V418Q204 449 221 469T254 502T285 520T319 525Q348 525 365 509T382 465Q382 440 370 427T338 413Q327 413 317 417T292 436Q283 444 275 448T262
452Q250 452 237 443T211 419T191 389T183 359V102Q183 78 187 62T202 37T232 22T280 16V0H5V16Q32 21 48 26T73 40T84 61T87 96V381Q87 419 78 434T48 450Q37 450 29 449T8 445V462Z" />
<glyph unicode="s" glyph-name="s" horiz-adv-x="444" d="M341 358Q322 435 294 467T217 499Q177 499 153 478T129 421Q129 372 178 343L301 270Q353 239 375 209T397 135Q397 105 384 78T350 32T299 1T237 -11Q219 -11 198 -9T152 0Q132 5 121 7T100 9Q90 9 85
6T74 -5H59V173H77Q87 129 100 99T130 50T170 23T222 14Q267 14 292 36T318 96Q318 147 258 181L192 219Q155 240 130 259T88 297T65 338T58 383Q58 414 69 440T101 485T151 514T215 524Q255 524 292 510Q313 501 324 501Q328 501 330 503T340 512L341 514H355L359
358H341Z" />
<glyph unicode="t" glyph-name="t" horiz-adv-x="318" d="M291 478H175V150Q175 95 189 72T234 48Q254 48 269 56T304 88L318 74Q264 -11 180 -11Q79 -11 79 134V478H19Q15 479 15 485Q15 495 34 507Q79 533 145 629Q150 637 156 644T168 661Q172 661 173 658T175
646V514H291V478Z" />
<glyph unicode="u" glyph-name="u" horiz-adv-x="571" d="M547 40Q503 29 468 18T389 -10L386 -8V87L336 38Q313 14 282 2T219 -11Q156 -11 119 29T81 137V423Q81 463 67 478T10 496V516H176V141Q176 105 200 80T258 54Q284 54 310 64T360 96Q371 104 376 117T381
154V424Q381 445 378 458T365 480T338 491T295 496V516H476V122Q476 82 489 70T541 57H547V40Z" />
<glyph unicode="v" glyph-name="v" horiz-adv-x="571" d="M544 496Q531 495 523 492T507 480T491 454T470 407L324 40Q311 9 304 -3T292 -16Q287 -16 282 -10T271 14Q269 18 267 23T262 38L125 365Q105 409 93 435T71 474T49 491T21 496V514H244V496Q216 494 205
487T193 466Q193 457 195 446T203 422L319 130L432 426Q436 434 437 443T438 460Q438 492 386 496V514H544V496Z" />
<glyph unicode="w" glyph-name="w" horiz-adv-x="824" d="M793 514V496Q784 493 779 490T768 481T758 464T745 435L588 40Q581 23 577 12T569 -5T562 -13T556 -16Q550 -16 546 -8T528 33L425 302L296 28Q276 -16 268 -16Q258 -16 238 34L84 425Q75 447 68 460T55
481T41 492T24 496V514H229V496Q199 492 188 485T176 459Q176 443 184 425L296 126L401 354L378 418Q369 441 362 455T346 478T326 490T299 496V514H530V496Q491 491 478 483T465 456Q465 450 465 447T467 437T473 419T484 388L580 132L683 386Q693 409 697 428T702
462Q702 476 691 483T651 496V514H793Z" />
<glyph unicode="x" glyph-name="x" horiz-adv-x="571" d="M318 16Q346 18 354 23T363 44Q363 50 361 55T355 66L252 224L163 84Q150 65 145 54T139 38Q139 27 149 22T185 16V0H19V16Q33 17 43 20T62 29T80 45T102 74L233 263L125 428Q111 448 101 461T81 482T61
493T38 496H26V514H263V496Q237 495 226 490T214 471Q214 460 228 433T267 370Q271 364 275 359T283 346Q291 358 299 370T318 397Q338 425 348 442T359 471Q359 482 350 488T314 496V514H494V496Q466 495 442 483T402 446L307 309L452 86Q478 46 499 31T547 16V0H318V16Z"
/>
<glyph unicode="y" glyph-name="y" horiz-adv-x="571" d="M542 496Q522 494 510 483T486 445L311 -21Q287 -83 265 -126T221 -197T173 -236T118 -249Q81 -249 58 -231T34 -183Q34 -161 48 -148T83 -134Q97 -134 112 -136T142 -145Q152 -150 159 -151T171 -152Q184
-152 200 -139T229 -103Q236 -90 244 -72T259 -35T270 -2T275 20Q275 34 262 64T224 137Q219 144 215 152T208 171L204 180L74 461Q62 490 16 498V514H251V496Q214 494 200 488T185 466Q185 455 187 445T197 422L328 134L438 449Q444 459 444 467Q444 481 429 488T388
496V514H542V496Z" />
<glyph unicode="z" glyph-name="z" horiz-adv-x="507" d="M461 0H30V16L334 479H176Q150 479 134 475T107 460T91 430T81 379H60L64 514H460V496L152 34H310Q399 34 423 64Q429 71 433 78T441 96T448 122T456 159L478 154L461 0Z" />
<glyph unicode="{" glyph-name="braceleft" horiz-adv-x="548" d="M399 -207Q370 -207 350 -206T313 -201T285 -192T261 -178Q237 -163 224 -129T210 -47V155Q210 185 206 205T190 240T161 265T113 285Q142 293 160 303T190 328T205 364T210 415V617Q210 716 261
747Q273 754 285 759T314 768T350 774T399 776V764Q369 756 349 745T317 718T300 678T295 622V431Q295 395 290 371T273 331T241 303T188 283Q220 275 240 265T273 239T290 198T295 137V-54Q295 -86 300 -109T317 -148T349 -176T399 -194V-207Z" />
<glyph unicode="|" glyph-name="bar" horiz-adv-x="228" d="M76 771H151V-16H76V771Z" />
<glyph unicode="}" glyph-name="braceright" horiz-adv-x="548" d="M147 776Q176 776 197 774T234 769T262 760T286 747Q310 732 323 698T336 616V415Q336 385 340 364T356 328T385 303T433 285Q404 276 386 266T356 241T341 206T336 155V-48Q336 -148 286 -178Q274
-186 261 -191T233 -200T196 -205T147 -207V-194Q177 -187 197 -176T229 -149T247 -109T252 -54V137Q252 173 256 197T273 238T306 265T359 285Q327 293 306 303T273 330T257 371T252 431V622Q252 655 247 678T230 717T197 745T147 764V776Z" />
<glyph unicode="~" glyph-name="asciitilde" horiz-adv-x="617" d="M573 309Q553 282 536 263T503 233T469 217T432 212Q413 212 398 214T364 222T322 241T260 273Q243 281 226 285T192 290Q165 290 148 278T107 232L45 268Q65 295 82 314T115 344T149 360T186
365Q205 365 220 363T254 355T296 336T359 304Q390 287 427 287Q453 287 471 299T512 346L573 309Z" />
<glyph unicode="&#xa0;" glyph-name="nbspace" horiz-adv-x="300" />
<glyph unicode="&#xa1;" glyph-name="exclamdown" horiz-adv-x="381" d="M179 323L189 198Q192 176 195 151T200 93Q202 80 202 75T204 67T206 59T209 40Q220 -23 226 -76T232 -164Q232 -202 216 -225T171 -249Q142 -249 127 -226T111 -159Q111 -148 111 -137T113
-116L164 323H179ZM171 534Q197 534 214 518T232 476Q232 450 214 432T170 413Q144 413 128 431T111 476Q111 502 128 518T171 534Z" />
<glyph unicode="&#xa2;" glyph-name="cent" horiz-adv-x="571" d="M406 507Q491 473 491 411Q491 388 478 374T444 359Q422 359 407 372T377 418L261 87Q281 79 296 76T329 73Q354 73 375 78T415 97T454 132T496 186L512 178Q497 148 485 127T462 89T438 59T411
33Q387 12 357 1T294 -10Q278 -10 264 -8T229 0L173 -158H135L193 14Q176 23 164 31T142 47T124 65T108 87Q85 120 73 162T60 249Q60 307 79 357T132 445T212 503T311 525Q324 525 336 524T370 519L420 661H460L406 507ZM357 480Q341 487 330 489T304 491Q269 491
240 477T191 438T159 376T147 296Q147 265 151 240T165 192T190 151T226 112L357 480Z" />
<glyph unicode="&#xa3;" glyph-name="sterling" horiz-adv-x="571" d="M393 374H257L255 343L256 305Q256 292 256 282T252 255T243 207T227 126Q255 115 277 108T318 96T357 89T397 87Q437 87 468 100T525 142Q544 161 552 161Q559 161 559 155Q559 147 555 135T543
108T526 79T508 54Q479 25 444 9T369 -8Q350 -8 333 -5T296 7T255 28T203 62Q186 41 172 28T145 6T119 -6T91 -9Q55 -9 35 10T14 62Q14 100 41 123T117 147Q131 147 142 147T170 142Q171 149 172 155T173 166Q173 183 167 229T153 336L147 374H26V426H145Q138 467
138 504Q138 565 154 614T199 699T270 752T363 771Q395 771 422 763T470 741T501 708T512 665Q512 639 495 622T454 605Q428 605 420 620T409 682Q407 741 346 741Q294 741 266 700T237 585Q237 568 238 553T241 519T245 478T251 426H393V374ZM100 107Q73 107 58
97T43 66Q43 46 56 35T91 23Q108 23 120 29T145 50Q153 62 158 70T163 87Q163 95 143 101T100 107Z" />
<glyph unicode="&#xa4;" glyph-name="currency" horiz-adv-x="571" d="M87 233Q61 269 51 302T40 377Q40 418 50 452T87 520L-25 633L31 687L141 577Q179 602 212 612T286 622Q328 622 361 612T428 577L541 687L596 633L486 520Q511 483 520 452T530 378Q530 336
521 304T486 233L596 123L541 66L428 178Q394 154 361 143T286 131Q246 131 212 142T141 178L31 66L-25 123L87 233ZM283 549Q249 549 219 536T167 499T131 444T117 378Q117 342 130 311T167 255T220 218T286 204Q322 204 352 217T404 254T439 310T452 379Q452
415 439 446T404 500T350 536T283 549Z" />
<glyph unicode="&#xa5;" glyph-name="yen" horiz-adv-x="571" d="M18 231V276H217V340L209 355H18V402H183L74 598Q50 641 34 667T3 707T-26 727T-60 733V756H217V733Q176 733 159 726T142 702Q142 677 157 649L292 397L420 648Q436 680 436 699Q436 714 420 723T378
733H362V756H585V733Q540 724 511 697T450 612L344 402H512V355H323L314 340V276H512V231H314V123Q314 93 318 74T332 44T359 27T404 21V0H126V21Q155 22 173 27T200 44T213 79T217 137V231H18Z" />
<glyph unicode="&#xa6;" glyph-name="brokenbar" horiz-adv-x="228" d="M76 299H151V-16H76V299ZM76 771H151V456H76V771Z" />
<glyph unicode="&#xa7;" glyph-name="section" horiz-adv-x="571" d="M333 142Q365 114 386 93T419 54T436 17T441 -24Q441 -90 396 -129T276 -169Q242 -169 213 -160T163 -136T130 -100T118 -55Q118 -29 136 -12T180 6Q203 6 218 -7T234 -42Q234 -67 209 -88Q197
-97 197 -105Q197 -121 221 -133T277 -145Q323 -145 350 -122T377 -57Q377 -24 354 6T275 74Q171 146 125 204T79 326Q79 355 89 380T116 423T158 451T210 462Q216 462 223 462T239 461Q204 489 182 511T148 552T130 591T125 633Q125 696 168 733T283 771Q314 771
341 763T388 739T419 704T430 660Q430 631 415 615T372 598Q348 598 333 612T318 648Q318 662 326 675T348 698Q357 706 357 711Q357 727 337 737T286 747Q242 747 216 725T189 667Q189 645 200 623T228 586L384 456Q435 415 460 370T486 280Q486 217 448 180T346
142H333ZM217 437Q184 437 162 416T140 362Q140 334 152 312T193 261Q245 210 280 188T348 166Q363 166 377 172T403 188T420 212T427 241Q427 286 365 348Q324 389 284 413T217 437Z" />
<glyph unicode="&#xa8;" glyph-name="dieresis" horiz-adv-x="381" d="M76 709Q99 709 116 693T134 653Q134 630 117 614T74 597Q51 597 36 613T20 654Q20 677 36 693T76 709ZM304 709Q327 709 343 693T360 653Q360 630 343 614T302 597Q279 597 263 613T247 654Q247
677 263 693T304 709Z" />
<glyph unicode="&#xa9;" glyph-name="copyright" horiz-adv-x="867" d="M441 771Q520 771 589 740T711 656T793 531T824 377Q824 294 794 223T712 98T588 15T435 -16Q352 -16 281 14T157 98T74 222T43 377Q43 460 73 532T158 657T284 740T441 771ZM430 723Q365
723 306 695T203 620T132 511T106 378Q106 307 132 244T203 133T308 59T435 31Q502 31 561 58T665 134T735 245T761 381Q761 452 735 514T664 622T559 696T430 723ZM624 282L605 195Q603 189 588 183T549 172T498 164T444 161Q393 161 352 176T280 220T234 289T217
378Q217 429 235 471T286 544T365 590T469 607Q498 607 531 600T591 582Q606 574 606 563V483H587Q579 533 548 559T462 585Q387 585 346 533T305 384Q305 289 347 237T465 184Q516 184 548 206T606 282H624Z" />
<glyph unicode="&#xaa;" glyph-name="ordfeminine" horiz-adv-x="315" d="M307 484Q287 464 274 457T241 450Q218 450 207 460T189 500Q160 474 136 462T86 450Q51 450 28 471T4 527Q4 544 11 560T29 586Q41 596 51 603T76 617T116 634T179 658V692Q179 715 168
727T137 740Q119 740 103 732T87 713Q87 710 87 706T89 697V688Q89 677 79 669T54 660Q39 660 29 669T18 696Q18 729 52 750T141 771Q261 771 261 661V530Q261 507 263 499T276 491Q284 491 291 493T307 504V484ZM180 629Q150 618 130 609T98 592T81 574T76 553Q76
532 89 518T120 503Q131 503 141 506T168 515Q180 528 180 541V629Z" />
<glyph unicode="&#xab;" glyph-name="guillemotleft" horiz-adv-x="571" d="M122 320L140 336L144 339L171 363Q177 369 179 371T182 374T186 377T195 384Q220 405 241 430Q255 448 270 461T290 475Q294 475 297 471T301 462Q301 452 283 423T239 362Q225 345
214 331T194 305T175 281T154 256Q161 247 162 245T165 241Q231 158 265 109T300 48Q300 38 290 38Q285 38 283 39T277 44Q251 70 229 91T185 132T139 173T83 222L48 253L122 320ZM341 320Q351 328 356 333T363 339L389 363Q403 375 414 386T437 407Q443 413 445
415T449 418T453 422T460 430Q474 448 488 461T509 475Q520 475 520 462Q520 452 503 423T459 362Q445 345 434 331T413 305T394 281T373 256L378 248L384 241Q450 158 484 109T519 48Q519 38 509 38Q502 38 496 44Q470 70 448 91T404 132T358 173T302 222L267
253L341 320Z" />
<glyph unicode="&#xac;" glyph-name="logicalnot" horiz-adv-x="644" d="M534 365H34V441H610V123H534V365Z" />
<glyph unicode="&#xad;" glyph-name="uni00AD" horiz-adv-x="348" d="M325 292V220H44V292H325Z" />
<glyph unicode="&#xae;" glyph-name="registered" horiz-adv-x="867" d="M438 771Q518 771 588 740T710 656T793 530T824 375Q824 293 794 222T712 98T588 15T435 -16Q352 -16 281 14T156 98T73 223T43 379Q43 461 74 532T158 657T283 740T438 771ZM431 723Q365
723 306 695T203 620T132 511T106 378Q106 307 132 244T203 133T308 59T435 31Q501 31 560 58T664 133T735 243T761 377Q761 449 735 512T665 622T560 696T431 723ZM249 593H452Q513 593 548 565T583 489Q583 407 493 370L558 280Q583 245 603 223T645 183V173H572Q542
173 493 263Q488 273 484 279T475 295T460 319T433 358H379V244Q379 226 380 217T386 202T402 195T435 190V173H249V190Q270 193 282 195T299 202T305 216T306 244V520Q306 539 305 549T299 565T282 572T249 576V593ZM379 381H428Q466 381 486 407T507 481Q507
572 426 572H379V381Z" />
<glyph unicode="&#xaf;" glyph-name="overscore" horiz-adv-x="381" d="M367 685V624H13V685H367Z" />
<glyph unicode="&#xb0;" glyph-name="degree" horiz-adv-x="456" d="M231 771Q264 771 293 758T344 723T378 672T391 609Q391 574 379 545T344 493T292 458T228 445Q193 445 164 457T113 492T79 545T66 610Q66 644 78 673T113 724T165 758T231 771ZM226 733Q202
733 181 723T145 696T120 657T110 609Q110 583 119 561T145 521T182 494T228 484Q252 484 273 494T311 521T336 561T346 610Q346 635 337 657T311 696T273 723T226 733Z" />
<glyph unicode="&#xb1;" glyph-name="plusminus" horiz-adv-x="644" d="M34 74H610V0H34V74ZM283 648H359V397H610V323H359V139H283V323H34V397H283V648Z" />
<glyph unicode="&#xb2;" glyph-name="twosuperior" horiz-adv-x="341" d="M295 307H6V334L118 456Q161 504 185 545T210 612Q210 649 186 674T127 699Q66 699 29 620L1 636Q14 675 25 695T54 732Q74 752 102 761T166 771Q234 771 275 738T316 650Q316 609 294
570T220 479L122 382H260Q283 382 294 388T318 413L338 404L295 307Z" />
<glyph unicode="&#xb3;" glyph-name="threesuperior" horiz-adv-x="341" d="M106 558Q166 579 190 600T214 651Q214 677 197 692T150 708Q120 708 99 695T52 643L24 663Q54 722 89 746T178 771Q230 771 265 745T301 677Q301 653 286 632T233 583Q331 544 331 455Q331
421 315 393T269 343T199 311T112 299Q65 299 41 313T16 355Q16 375 28 386T57 398Q66 398 76 394T103 377Q123 363 134 359T163 354Q198 354 218 375T239 431Q239 485 193 513Q179 521 161 525T132 528L106 525V558Z" />
<glyph unicode="&#xb4;" glyph-name="acute" horiz-adv-x="381" d="M218 724Q237 743 247 749T270 755Q285 755 296 744T307 718Q307 707 300 697T280 678L115 576H72L218 724Z" />
<glyph unicode="&#xb5;" glyph-name="mu" horiz-adv-x="571" d="M491 105Q491 65 499 48T527 30Q540 30 552 37T585 63V53Q556 16 533 3T478 -11Q436 -11 416 13T394 91Q359 37 322 13T237 -11Q193 -11 162 9T103 73Q105 57 106 46T110 23T116 -3T125 -38Q136
-83 141 -110T146 -161Q146 -249 93 -249Q68 -249 54 -228T40 -169Q40 -150 44 -117T54 -49Q58 -26 61 -9T65 20T67 43T68 62V514H169V164Q169 116 194 88T265 59Q305 59 337 77T389 131V514H491V105Z" />
<glyph unicode="&#xb6;" glyph-name="paragraph" horiz-adv-x="517" d="M271 -176H96V-151Q129 -149 149 -144T179 -127T193 -93T197 -35V311Q169 312 149 314T112 321T82 333T54 350Q-25 405 -25 544Q-25 656 31 706T213 756H514V733Q481 730 461 726T431 710T417
681T413 631V-48Q413 -78 416 -97T431 -127T461 -143T514 -151V-176H338V731H271V-176ZM197 731Q162 728 144 722T111 706Q62 671 62 549Q62 495 69 456T92 392T134 353T197 336V731Z" />
<glyph unicode="&#xb7;" glyph-name="middot" horiz-adv-x="285" d="M144 354Q168 354 187 335T207 289Q207 264 188 246T142 227Q116 227 98 245T79 290Q79 316 98 335T144 354Z" />
<glyph unicode="&#xb8;" glyph-name="cedilla" horiz-adv-x="381" d="M159 0H198L170 -74Q178 -72 184 -72T199 -71Q246 -71 271 -91T297 -150Q297 -195 259 -220T155 -246Q129 -246 107 -242T59 -228L74 -192Q98 -200 114 -203T149 -207Q178 -207 195 -193T212
-156Q212 -133 198 -124T151 -115Q140 -115 134 -115T120 -118L112 -113L159 0Z" />
<glyph unicode="&#xb9;" glyph-name="onesuperior" horiz-adv-x="341" d="M283 307H66V335Q101 338 113 345T125 372V665Q125 684 123 690T116 697Q113 697 111 697T104 696T91 691T67 683V709L202 771L218 767V377Q218 354 231 346T283 335V307Z" />
<glyph unicode="&#xba;" glyph-name="ordmasculine" horiz-adv-x="354" d="M181 771Q217 771 247 760T300 729T334 681T346 619Q346 583 333 552T297 499T241 463T171 450Q135 450 105 461T53 494T19 544T6 609Q6 683 54 727T181 771ZM169 733Q134 733 112 710T89
649Q89 616 96 584T118 525Q129 507 145 497T183 486Q221 486 242 512T263 588Q263 653 237 693T169 733Z" />
<glyph unicode="&#xbb;" glyph-name="guillemotright" horiz-adv-x="571" d="M486 222Q456 196 432 175T386 133T341 91T292 44Q288 38 281 38Q270 38 270 48Q270 59 304 108T404 241L412 248L417 256Q406 269 397 281T378 305T357 331T331 362Q305 393 287 422T268
462Q268 467 272 471T281 475Q286 475 300 462T330 430Q338 421 348 411T375 384Q381 379 383 377T386 374T390 371T399 363L427 339L430 336L449 320L523 253L486 222ZM268 222Q237 196 213 175T166 133T121 91T74 44Q68 38 62 38Q50 38 50 48Q50 59 85 108T186
241L193 248L197 256Q186 269 177 281T158 305T137 331T112 362Q86 393 68 422T50 462Q50 475 62 475Q67 475 81 462T111 430Q120 417 131 406T156 384Q162 379 164 377T167 374T171 371T180 363L208 339Q210 338 215 333T229 320L304 253L268 222Z" />
<glyph unicode="&#xbc;" glyph-name="onequarter" horiz-adv-x="856" d="M819 102H757V0H677V102H471V159L703 462H757V168H819V102ZM677 372L523 168H677V372ZM213 -16H157L674 771H727L213 -16ZM260 307H42V335Q79 338 90 345T102 372V665Q102 684 100 690T93
697Q90 697 88 697T82 696T69 691T44 683V709L179 771L195 767V377Q195 354 208 346T260 335V307Z" />
<glyph unicode="&#xbd;" glyph-name="onehalf" horiz-adv-x="856" d="M171 -16H115L633 771H685L171 -16ZM253 307H35V335Q72 338 84 345T96 372V665Q96 684 94 690T87 697Q84 697 82 697T75 696T62 691T38 683V709L171 771L188 767V377Q188 354 200 346T253 335V307ZM809
0H520V26L633 147Q675 195 699 237T724 305Q724 341 700 366T641 391Q609 391 586 372T543 311L515 328Q528 368 539 387T568 423Q588 443 616 452T680 462Q747 462 788 430T830 341Q830 300 808 262T733 171L636 74H774Q786 74 794 75T808 79T820 89T832 105L852
97L809 0Z" />
<glyph unicode="&#xbe;" glyph-name="threequarters" horiz-adv-x="856" d="M819 102H757V0H677V102H471V159L703 462H757V168H819V102ZM677 372L523 168H677V372ZM213 -16H157L674 771H727L213 -16ZM107 558Q167 579 191 600T215 651Q215 677 199 692T151 708Q121
708 100 695T52 643L24 663Q56 722 91 746T179 771Q231 771 266 745T302 677Q302 653 287 632T234 583Q333 544 333 455Q333 421 317 393T271 343T201 311T112 299Q65 299 41 313T16 355Q16 375 28 386T57 398Q66 398 77 394T103 377Q123 363 134 359T163 354Q198
354 219 375T241 431Q241 485 194 513Q180 521 162 525T134 528L107 525V558Z" />
<glyph unicode="&#xbf;" glyph-name="questiondown" horiz-adv-x="507" d="M247 335Q245 258 213 173L181 100Q161 52 150 7T139 -79Q139 -107 148 -132T175 -175T214 -204T263 -215Q284 -215 303 -209T337 -194T361 -171T370 -144Q370 -131 352 -110Q338 -94
333 -84T328 -59Q328 -39 340 -26T374 -13Q428 -13 428 -84Q428 -119 414 -149T376 -202T317 -236T244 -249Q196 -249 151 -231T74 -183Q55 -164 45 -135T34 -72Q34 -46 39 -23T57 26T94 84T154 160Q170 180 181 199T201 238T216 282T228 335H247ZM236 533Q262
533 279 517T296 475Q296 447 278 430T234 412Q208 412 192 429T175 475Q175 501 192 517T236 533Z" />
<glyph unicode="&#xc0;" glyph-name="Agrave" horiz-adv-x="816" d="M454 822L279 931Q246 953 246 980Q246 997 257 1006T285 1016Q298 1016 307 1011T333 990L501 822H454ZM808 0H517V21Q532 21 542 21T558 23T570 26T580 31Q588 36 592 43T597 59Q597 87 575
137L527 246H229L176 113Q172 102 170 91T167 68Q167 45 185 33T245 21V0H18V21Q39 22 54 28T84 53T116 109T161 209L398 769H420L705 121Q719 89 729 70T751 41T775 26T808 21V0ZM512 292L380 607L248 292H512Z" />
<glyph unicode="&#xc1;" glyph-name="Aacute" horiz-adv-x="824" d="M808 0H517V21Q532 21 542 21T558 23T570 26T580 31Q588 36 592 43T597 59Q597 87 575 137L527 246H229L176 113Q172 102 170 91T167 68Q167 45 185 33T245 21V0H18V21Q39 22 54 28T84 53T116
109T161 209L398 769H420L705 121Q719 89 729 70T751 41T775 26T808 21V0ZM512 292L380 607L248 292H512ZM472 972Q491 991 501 997T524 1003Q539 1003 550 992T561 966Q561 955 554 945T534 926L369 824H326L472 972Z" />
<glyph unicode="&#xc2;" glyph-name="Acircumflex" horiz-adv-x="816" d="M808 0H517V21Q532 21 542 21T558 23T570 26T580 31Q588 36 592 43T597 59Q597 87 575 137L527 246H229L176 113Q172 102 170 91T167 68Q167 45 185 33T245 21V0H18V21Q39 22 54 28T84
53T116 109T161 209L398 769H420L705 121Q719 89 729 70T751 41T775 26T808 21V0ZM512 292L380 607L248 292H512ZM442 989L572 816H534L408 921L282 816H244L375 989H442Z" />
<glyph unicode="&#xc3;" glyph-name="Atilde" horiz-adv-x="824" d="M806 0H515V21Q530 21 540 21T556 23T568 26T578 31Q586 36 590 43T595 59Q595 87 573 137L525 246H227L174 113Q170 102 168 91T165 68Q165 45 183 33T243 21V0H16V21Q37 22 51 28T81 54T114
109T159 209L396 769H418L703 121Q718 89 729 70T750 41T774 26T806 21V0ZM510 292L378 607L246 292H510ZM600 970Q582 904 555 877T480 849Q469 849 460 850T441 854T419 862T388 877L362 890Q348 895 337 898T315 902Q295 902 280 889T257 849H223Q237 906 266
935T339 965Q377 965 418 944L446 930Q462 922 478 918T507 913Q527 913 540 925T567 970H600Z" />
<glyph unicode="&#xc4;" glyph-name="Adieresis" horiz-adv-x="824" d="M806 0H515V21Q530 21 540 21T556 23T568 26T578 31Q586 36 590 43T595 59Q595 87 573 137L525 246H227L174 113Q170 102 168 91T165 68Q165 45 183 33T243 21V0H16V21Q37 22 51 28T81 54T114
109T159 209L396 769H418L703 121Q718 89 729 70T750 41T774 26T806 21V0ZM510 292L378 607L246 292H510ZM291 953Q315 953 331 936T348 895Q348 872 332 856T290 839Q267 839 251 855T234 896Q234 919 251 936T291 953ZM518 953Q541 953 558 936T575 895Q575 872
558 856T517 839Q494 839 478 855T462 896Q462 919 478 936T518 953Z" />
<glyph unicode="&#xc5;" glyph-name="Aring" horiz-adv-x="824" d="M806 0H515V21Q530 21 540 21T556 23T568 26T578 31Q586 36 590 43T595 59Q595 87 573 137L525 246H227L174 113Q170 102 168 91T165 68Q165 45 183 33T243 21V0H16V21Q37 22 51 28T81 54T114
109T159 209L396 769H418L703 121Q718 89 729 70T750 41T774 26T806 21V0ZM510 292L378 607L246 292H510ZM403 1045Q425 1045 445 1036T481 1011T506 974T515 930Q515 906 506 886T481 850T444 825T399 816Q375 816 355 825T319 849T296 886T287 931Q287 955 296
975T321 1011T358 1036T403 1045ZM399 1005Q370 1005 348 983T326 931Q326 900 347 878T399 856Q433 856 454 878T476 931Q476 963 454 984T399 1005Z" />
<glyph unicode="&#xc6;" glyph-name="AE" horiz-adv-x="1016" d="M905 595Q899 634 890 657T858 693T798 710T697 714H598Q581 714 574 707T567 680V418H694Q748 418 779 426T824 452Q832 465 836 480T845 528H869V261H845Q841 295 834 317T814 352T782 370T733
375H567V103Q567 82 569 70T579 52T603 45T646 43H733Q779 43 810 48T866 70T912 115T958 192H985L935 0H353V21L372 24Q398 27 414 32T439 48T451 77T454 123V296H253L220 236Q186 170 167 122T147 54Q147 43 167 34T226 21H227V0H0V21Q18 24 31 28T54 42T75 68T100
111L381 663Q386 672 387 681T389 696Q389 713 367 722T287 733V756H931V595H905ZM454 341V706L272 341H454Z" />
<glyph unicode="&#xc7;" glyph-name="Ccedilla" horiz-adv-x="761" d="M360 -74Q369 -72 375 -72T389 -71Q437 -71 463 -91T489 -150Q489 -195 451 -220T346 -246Q319 -246 297 -242T249 -228L266 -192Q289 -200 305 -203T340 -207Q369 -207 386 -193T403 -156Q403
-133 389 -124T341 -115Q323 -115 310 -118L302 -113L344 -11Q273 -1 215 30T116 111T53 226T31 370Q31 469 65 548T165 682Q217 724 282 747T413 771Q498 771 581 743Q609 733 626 733Q643 733 655 743T673 771H697L708 514H682Q674 542 666 562T650 599T631 629T607
656Q572 691 529 708T436 726Q374 726 324 702T238 634T183 526T164 386Q164 286 191 212T269 95Q306 64 351 49T447 34Q518 34 578 61T702 149L722 129Q670 60 590 22T411 -16Q404 -16 398 -16T383 -15L360 -74Z" />
<glyph unicode="&#xc8;" glyph-name="Egrave" horiz-adv-x="697" d="M630 0H14V21Q45 23 64 28T94 44T109 74T113 123V631Q113 661 110 680T95 710T65 726T14 733V756H620L622 592H595Q587 631 577 654T549 691T500 708T421 712H267Q244 712 237 705T229 673V420H404Q439
420 461 424T496 439T517 472T530 528H557V263H530Q524 299 517 320T497 353T462 369T404 373H229V91Q229 74 231 66T238 54Q246 49 276 46T349 42H381Q442 42 483 48T554 71T606 117T649 193H682L630 0ZM389 822L214 931Q181 953 181 980Q181 997 192 1006T220
1016Q233 1016 242 1011T268 990L436 822H389Z" />
<glyph unicode="&#xc9;" glyph-name="Eacute" horiz-adv-x="697" d="M630 0H14V21Q45 23 64 28T94 44T109 74T113 123V631Q113 661 110 680T95 710T65 726T14 733V756H620L622 592H595Q587 631 577 654T549 691T500 708T421 712H267Q244 712 237 705T229 673V420H404Q439
420 461 424T496 439T517 472T530 528H557V263H530Q524 299 517 320T497 353T462 369T404 373H229V91Q229 74 231 66T238 54Q246 49 276 46T349 42H381Q442 42 483 48T554 71T606 117T649 193H682L630 0ZM266 822L433 990Q449 1006 459 1011T481 1016Q522 1016
522 979Q522 965 514 954T486 931L311 822H266Z" />
<glyph unicode="&#xca;" glyph-name="Ecircumflex" horiz-adv-x="697" d="M630 0H14V21Q45 23 64 28T94 44T109 74T113 123V631Q113 661 110 680T95 710T65 726T14 733V756H620L622 592H595Q587 631 577 654T549 691T500 708T421 712H267Q244 712 237 705T229
673V420H404Q439 420 461 424T496 439T517 472T530 528H557V263H530Q524 299 517 320T497 353T462 369T404 373H229V91Q229 74 231 66T238 54Q246 49 276 46T349 42H381Q442 42 483 48T554 71T606 117T649 193H682L630 0ZM489 822L349 937L210 822H171L314 1012H384L527
822H489Z" />
<glyph unicode="&#xcb;" glyph-name="Edieresis" horiz-adv-x="697" d="M630 0H14V21Q45 23 64 28T94 44T109 74T113 123V631Q113 661 110 680T95 710T65 726T14 733V756H620L622 592H595Q587 631 577 654T549 691T500 708T421 712H267Q244 712 237 705T229 673V420H404Q439
420 461 424T496 439T517 472T530 528H557V263H530Q524 299 517 320T497 353T462 369T404 373H229V91Q229 74 231 66T238 54Q246 49 276 46T349 42H381Q442 42 483 48T554 71T606 117T649 193H682L630 0ZM236 953Q259 953 275 936T292 895Q292 872 276 856T234
839Q211 839 196 855T180 896Q180 919 196 936T236 953ZM462 953Q486 953 503 936T520 895Q520 872 503 856T462 839Q439 839 423 855T407 896Q407 919 423 936T462 953Z" />
<glyph unicode="&#xcc;" glyph-name="Igrave" horiz-adv-x="381" d="M131 631Q131 663 128 682T112 712T78 727T20 733V756H359V733Q323 732 301 728T267 712T251 682T247 631V123Q247 92 251 73T268 42T302 27T359 21V0H20V21Q56 22 78 26T111 42T127 72T131
123V631ZM232 822L55 931Q23 952 23 980Q23 997 33 1006T62 1016Q74 1016 84 1011T110 990L277 822H232Z" />
<glyph unicode="&#xcd;" glyph-name="Iacute" horiz-adv-x="381" d="M242 972Q261 991 271 997T294 1003Q309 1003 320 992T331 966Q331 955 324 945T304 926L139 824H96L242 972ZM131 631Q131 663 128 682T112 712T78 727T20 733V756H359V733Q323 732 301 728T267
712T251 682T247 631V123Q247 92 251 73T268 42T302 27T359 21V0H20V21Q56 22 78 26T111 42T127 72T131 123V631Z" />
<glyph unicode="&#xce;" glyph-name="Icircumflex" horiz-adv-x="381" d="M131 631Q131 663 128 682T112 712T78 727T20 733V756H359V733Q323 732 301 728T267 712T251 682T247 631V123Q247 92 251 73T268 42T302 27T359 21V0H20V21Q56 22 78 26T111 42T127 72T131
123V631ZM224 989L354 816H316L190 921L64 816H26L157 989H224Z" />
<glyph unicode="&#xcf;" glyph-name="Idieresis" horiz-adv-x="381" d="M131 631Q131 663 128 682T112 712T78 727T20 733V756H359V733Q323 732 301 728T267 712T251 682T247 631V123Q247 92 251 73T268 42T302 27T359 21V0H20V21Q56 22 78 26T111 42T127 72T131
123V631ZM76 953Q99 953 116 936T134 895Q134 872 117 856T74 839Q51 839 36 855T20 896Q20 919 36 936T76 953ZM304 953Q327 953 343 936T360 895Q360 872 343 856T302 839Q279 839 263 855T247 896Q247 919 263 936T304 953Z" />
<glyph unicode="&#xd0;" glyph-name="Eth" horiz-adv-x="824" d="M24 359V409H118V631Q118 663 115 682T102 711T72 726T18 733V756H326Q433 756 518 731T661 657T751 539T782 381Q782 294 749 219T656 93Q603 49 521 25T341 0H18V21Q51 23 70 27T100 43T114 74T118
123V359H24ZM402 359H234V89Q234 61 246 52T292 42Q369 42 421 52T518 89Q658 169 658 373Q658 467 623 540T518 659Q476 687 422 700T291 713Q257 713 246 704T234 669V409H402V359Z" />
<glyph unicode="&#xd1;" glyph-name="Ntilde" horiz-adv-x="824" d="M679 -13L174 615V168Q174 124 178 97T195 53T228 30T282 21V0H14V21Q49 24 70 30T103 53T119 96T123 168V670Q106 690 94 702T70 721T45 730T14 733V756H209L648 203V588Q648 692 615 716Q602
724 587 727T539 733V756H806V733Q774 731 759 726T732 713Q698 691 698 588V-13H679ZM600 970Q582 904 555 877T480 849Q469 849 460 850T441 854T419 862T388 877L362 890Q348 895 337 898T315 902Q295 902 280 889T257 849H223Q237 906 266 935T339 965Q377
965 418 944L446 930Q462 922 478 918T507 913Q527 913 540 925T567 970H600Z" />
<glyph unicode="&#xd2;" glyph-name="Ograve" horiz-adv-x="824" d="M452 822L277 931Q244 953 244 980Q244 997 255 1006T283 1016Q296 1016 305 1011T331 990L499 822H452ZM418 771Q499 771 572 737T697 643Q739 592 762 524T785 378Q785 291 758 219T681 94T563
13T412 -16Q329 -16 260 13T142 94T66 220T39 381Q39 467 67 539T145 662T264 742T418 771ZM408 731Q361 731 318 710T243 650Q226 630 213 600T189 535T174 459T169 379Q169 276 196 196T271 76Q331 25 413 25Q456 25 494 41T562 86Q655 177 655 384Q655 483 628
560T551 679Q488 731 408 731Z" />
<glyph unicode="&#xd3;" glyph-name="Oacute" horiz-adv-x="824" d="M329 822L496 990Q512 1006 521 1011T544 1016Q585 1016 585 979Q585 954 549 931L374 822H329ZM418 771Q499 771 572 737T697 643Q739 592 762 524T785 378Q785 291 758 219T681 94T563 13T412
-16Q329 -16 260 13T142 94T66 220T39 381Q39 467 67 539T145 662T264 742T418 771ZM408 731Q361 731 318 710T243 650Q226 630 213 600T189 535T174 459T169 379Q169 276 196 196T271 76Q331 25 413 25Q456 25 494 41T562 86Q655 177 655 384Q655 483 628 560T551
679Q488 731 408 731Z" />
<glyph unicode="&#xd4;" glyph-name="Ocircumflex" horiz-adv-x="824" d="M418 771Q499 771 572 737T697 643Q739 592 762 524T785 378Q785 291 758 219T681 94T563 13T412 -16Q329 -16 260 13T142 94T66 220T39 381Q39 467 67 539T145 662T264 742T418 771ZM408
731Q361 731 318 710T243 650Q226 630 213 600T189 535T174 459T169 379Q169 276 196 196T271 76Q331 25 413 25Q456 25 494 41T562 86Q655 177 655 384Q655 483 628 560T551 679Q488 731 408 731ZM446 988L576 815H538L412 920L286 815H248L379 988H446Z" />
<glyph unicode="&#xd5;" glyph-name="Otilde" horiz-adv-x="824" d="M418 771Q499 771 572 737T697 643Q739 592 762 524T785 378Q785 291 758 219T681 94T563 13T412 -16Q329 -16 260 13T142 94T66 220T39 381Q39 467 67 539T145 662T264 742T418 771ZM408 731Q361
731 318 710T243 650Q226 630 213 600T189 535T174 459T169 379Q169 276 196 196T271 76Q331 25 413 25Q456 25 494 41T562 86Q655 177 655 384Q655 483 628 560T551 679Q488 731 408 731ZM600 970Q582 904 555 877T480 849Q469 849 460 850T441 854T419 862T388
877L362 890Q348 895 337 898T315 902Q295 902 280 889T257 849H223Q237 906 266 935T339 965Q377 965 418 944L446 930Q462 922 478 918T507 913Q527 913 540 925T567 970H600Z" />
<glyph unicode="&#xd6;" glyph-name="Odieresis" horiz-adv-x="824" d="M418 771Q499 771 572 737T697 643Q739 592 762 524T785 378Q785 291 758 219T681 94T563 13T412 -16Q329 -16 260 13T142 94T66 220T39 381Q39 467 67 539T145 662T264 742T418 771ZM408
731Q361 731 318 710T243 650Q226 630 213 600T189 535T174 459T169 379Q169 276 196 196T271 76Q331 25 413 25Q456 25 494 41T562 86Q655 177 655 384Q655 483 628 560T551 679Q488 731 408 731ZM299 953Q322 953 338 936T355 895Q355 872 339 856T297 839Q274
839 259 855T243 896Q243 919 259 936T299 953ZM525 953Q549 953 566 936T583 895Q583 872 566 856T525 839Q502 839 486 855T470 896Q470 919 486 936T525 953Z" />
<glyph unicode="&#xd7;" glyph-name="multiply" horiz-adv-x="644" d="M43 513L98 567L323 341L547 567L601 513L377 289L601 64L547 9L323 234L98 9L43 64L267 289L43 513Z" />
<glyph unicode="&#xd8;" glyph-name="Oslash" horiz-adv-x="824" d="M650 689Q668 672 681 659T705 632T724 606T741 576Q762 534 773 483T785 379Q785 291 758 219T681 94T562 13T409 -16Q380 -16 356 -13T308 -4T261 14T210 40L120 -92H64L171 67Q153 84 140
98T116 124T97 150T82 180Q61 222 50 273T39 377Q39 464 66 536T143 661T261 742T413 771Q441 771 466 768T514 759T561 742T612 716L696 838H751L650 689ZM249 100Q287 60 324 43T412 25Q469 25 514 49T590 119T638 230T655 377Q655 415 652 446T643 506T626 561T601
616L249 100ZM573 656Q535 696 498 713T412 731Q356 731 311 707T235 636T186 525T169 377Q169 339 172 308T181 248T196 194T220 140L573 656Z" />
<glyph unicode="&#xd9;" glyph-name="Ugrave" horiz-adv-x="824" d="M697 290Q697 224 689 181T660 101Q592 -16 404 -16Q258 -16 188 55T118 275V631Q118 662 115 681T101 711T70 726T16 733V756H339V733Q304 730 284 726T252 710T238 681T234 631V266Q234 212
241 177T263 115Q310 34 431 34Q496 34 547 58T621 123Q635 150 640 185T646 280V588Q646 631 642 658T627 701T595 724T541 733V756H805V733Q770 729 749 722T716 700T701 658T697 588V290ZM474 822L297 931Q265 952 265 980Q265 997 275 1006T304 1016Q316 1016
326 1011T352 990L519 822H474Z" />
<glyph unicode="&#xda;" glyph-name="Uacute" horiz-adv-x="824" d="M697 290Q697 224 689 181T660 101Q592 -16 404 -16Q258 -16 188 55T118 275V631Q118 662 115 681T101 711T70 726T16 733V756H339V733Q304 730 284 726T252 710T238 681T234 631V266Q234 212
241 177T263 115Q310 34 431 34Q496 34 547 58T621 123Q635 150 640 185T646 280V588Q646 631 642 658T627 701T595 724T541 733V756H805V733Q770 729 749 722T716 700T701 658T697 588V290ZM357 822L525 990Q541 1006 550 1011T573 1016Q612 1016 612 979Q612
952 578 931L403 822H357Z" />
<glyph unicode="&#xdb;" glyph-name="Ucircumflex" horiz-adv-x="824" d="M697 290Q697 224 689 181T660 101Q592 -16 404 -16Q258 -16 188 55T118 275V631Q118 662 115 681T101 711T70 726T16 733V756H339V733Q304 730 284 726T252 710T238 681T234 631V266Q234
212 241 177T263 115Q310 34 431 34Q496 34 547 58T621 123Q635 150 640 185T646 280V588Q646 631 642 658T627 701T595 724T541 733V756H805V733Q770 729 749 722T716 700T701 658T697 588V290ZM573 822L433 937L295 822H257L398 1012H469L612 822H573Z" />
<glyph unicode="&#xdc;" glyph-name="Udieresis" horiz-adv-x="824" d="M697 290Q697 224 689 181T660 101Q592 -16 404 -16Q258 -16 188 55T118 275V631Q118 662 115 681T101 711T70 726T16 733V756H339V733Q304 730 284 726T252 710T238 681T234 631V266Q234
212 241 177T263 115Q310 34 431 34Q496 34 547 58T621 123Q635 150 640 185T646 280V588Q646 631 642 658T627 701T595 724T541 733V756H805V733Q770 729 749 722T716 700T701 658T697 588V290ZM319 953Q342 953 359 936T377 895Q377 872 360 856T318 839Q295
839 279 855T263 896Q263 919 279 936T319 953ZM547 953Q570 953 587 936T604 895Q604 872 587 856T546 839Q523 839 507 855T491 896Q491 919 507 936T547 953Z" />
<glyph unicode="&#xdd;" glyph-name="Yacute" horiz-adv-x="824" d="M803 733Q780 732 763 726T728 706T691 667T645 604L476 346V123Q476 91 480 72T496 41T532 26T593 21V0H244V21Q283 23 306 27T340 44T355 78T359 137V335L210 554Q167 615 141 650T95 704T61
727T25 733V756H344V733H316Q263 730 263 701Q263 678 283 649L452 396L615 654Q631 677 631 696Q631 716 614 724T552 733V756H803V733ZM365 822L533 990Q548 1006 558 1011T581 1016Q621 1016 621 979Q621 952 587 931L411 822H365Z" />
<glyph unicode="&#xde;" glyph-name="Thorn" horiz-adv-x="635" d="M334 733Q299 730 279 725T247 707T233 670T231 607H323Q391 607 445 593T538 551T598 486T619 401Q619 344 590 296T509 219Q472 199 425 190T309 180Q287 180 271 181T231 184V123Q231 92 235
73T250 42T283 27T338 21V0H18V21Q51 24 69 29T98 46T110 79T113 137V631Q113 662 110 680T97 709T68 725T18 733V756H334V733ZM231 229Q250 227 263 227T295 226Q494 226 494 394Q494 484 440 524T267 564Q244 564 238 556T231 525V229Z" />
<glyph unicode="&#xdf;" glyph-name="germandbls" horiz-adv-x="571" d="M83 518Q83 652 132 716T286 780Q375 780 427 733T480 606Q480 575 473 552T448 508T400 470T324 430Q376 420 406 408T462 372Q534 312 534 212Q534 165 519 125T476 54T411 7T330 -10Q281
-10 250 13T219 73Q219 96 233 111T270 127Q289 127 302 115T318 82L320 57Q322 37 329 30T354 23Q382 23 399 43Q405 51 410 64T419 95T425 132T427 171Q427 403 276 407Q256 408 248 413T239 427Q239 435 246 438T272 444Q381 456 381 588Q381 664 353 706T277
748Q232 748 206 716T179 626V0H14V16Q36 18 49 22T70 35T80 58T83 96V518Z" />
<glyph unicode="&#xe0;" glyph-name="agrave" horiz-adv-x="507" d="M504 45Q475 13 453 1T402 -11Q367 -11 350 7T329 72Q277 27 239 8T163 -11Q109 -11 76 23T42 111Q42 138 53 165T83 210Q101 226 117 237T157 261T222 289T328 333V403Q328 450 306 474T241
498Q206 498 183 482T159 442Q159 428 163 415Q163 408 163 404T164 396Q164 376 149 362T113 348Q93 348 79 362T64 397Q64 419 76 442T111 483Q134 503 172 514T256 525Q308 525 344 508T398 459Q411 439 415 413T420 341V120Q420 82 427 68T454 53Q477 53 504
74V45ZM328 306Q276 287 241 270T183 233T152 193T142 147V142Q142 105 163 80T214 54Q232 54 254 61T297 79Q317 90 322 102T328 140V306ZM294 578L118 689Q86 710 86 738Q86 755 96 764T123 774Q137 774 146 768T171 747L340 578H294Z" />
<glyph unicode="&#xe1;" glyph-name="aacute" horiz-adv-x="507" d="M504 45Q475 13 453 1T402 -11Q367 -11 350 7T329 72Q277 27 239 8T163 -11Q109 -11 76 23T42 111Q42 138 53 165T83 210Q101 226 117 237T157 261T222 289T328 333V403Q328 450 306 474T241
498Q206 498 183 482T159 442Q159 428 163 415Q163 408 163 404T164 396Q164 376 149 362T113 348Q93 348 79 362T64 397Q64 419 76 442T111 483Q134 503 172 514T256 525Q308 525 344 508T398 459Q411 439 415 413T420 341V120Q420 82 427 68T454 53Q477 53 504
74V45ZM328 306Q276 287 241 270T183 233T152 193T142 147V142Q142 105 163 80T214 54Q232 54 254 61T297 79Q317 90 322 102T328 140V306ZM170 578L338 747Q353 762 363 768T386 774Q426 774 426 737Q426 711 391 689L215 578H170Z" />
<glyph unicode="&#xe2;" glyph-name="acircumflex" horiz-adv-x="507" d="M504 45Q475 13 453 1T402 -11Q367 -11 350 7T329 72Q277 27 239 8T163 -11Q109 -11 76 23T42 111Q42 138 53 165T83 210Q101 226 117 237T157 261T222 289T328 333V403Q328 450 306 474T241
498Q206 498 183 482T159 442Q159 428 163 415Q163 408 163 404T164 396Q164 376 149 362T113 348Q93 348 79 362T64 397Q64 419 76 442T111 483Q134 503 172 514T256 525Q308 525 344 508T398 459Q411 439 415 413T420 341V120Q420 82 427 68T454 53Q477 53 504
74V45ZM328 306Q276 287 241 270T183 233T152 193T142 147V142Q142 105 163 80T214 54Q232 54 254 61T297 79Q317 90 322 102T328 140V306ZM393 578L253 696L115 578H76L218 769H289L431 578H393Z" />
<glyph unicode="&#xe3;" glyph-name="atilde" horiz-adv-x="507" d="M504 45Q475 13 453 1T402 -11Q367 -11 350 7T329 72Q277 27 239 8T163 -11Q109 -11 76 23T42 111Q42 138 53 165T83 210Q101 226 117 237T157 261T222 289T328 333V403Q328 450 306 474T241
498Q206 498 183 482T159 442Q159 428 163 415Q163 408 163 404T164 396Q164 376 149 362T113 348Q93 348 79 362T64 397Q64 419 76 442T111 483Q134 503 172 514T256 525Q308 525 344 508T398 459Q411 439 415 413T420 341V120Q420 82 427 68T454 53Q477 53 504
74V45ZM328 306Q276 287 241 270T183 233T152 193T142 147V142Q142 105 163 80T214 54Q232 54 254 61T297 79Q317 90 322 102T328 140V306ZM442 728Q424 662 397 635T323 607Q300 607 282 612T229 635L203 646Q177 660 156 660Q117 660 98 607H66Q78 664 107 693T180
722Q199 722 219 718T260 702L287 688Q304 680 319 675T348 670Q368 670 381 683T408 728H442Z" />
<glyph unicode="&#xe4;" glyph-name="adieresis" horiz-adv-x="507" d="M504 45Q475 13 453 1T402 -11Q367 -11 350 7T329 72Q277 27 239 8T163 -11Q109 -11 76 23T42 111Q42 138 53 165T83 210Q101 226 117 237T157 261T222 289T328 333V403Q328 450 306 474T241
498Q206 498 183 482T159 442Q159 428 163 415Q163 408 163 404T164 396Q164 376 149 362T113 348Q93 348 79 362T64 397Q64 419 76 442T111 483Q134 503 172 514T256 525Q308 525 344 508T398 459Q411 439 415 413T420 341V120Q420 82 427 68T454 53Q477 53 504
74V45ZM328 306Q276 287 241 270T183 233T152 193T142 147V142Q142 105 163 80T214 54Q232 54 254 61T297 79Q317 90 322 102T328 140V306ZM140 709Q163 709 180 693T197 653Q197 630 180 614T139 597Q116 597 100 613T84 654Q84 677 100 693T140 709ZM367 709Q390
709 407 693T425 653Q425 630 408 614T365 597Q342 597 327 613T311 654Q311 677 327 693T367 709Z" />
<glyph unicode="&#xe5;" glyph-name="aring" horiz-adv-x="507" d="M504 45Q475 13 453 1T402 -11Q367 -11 350 7T329 72Q277 27 239 8T163 -11Q109 -11 76 23T42 111Q42 138 53 165T83 210Q101 226 117 237T157 261T222 289T328 333V403Q328 450 306 474T241
498Q206 498 183 482T159 442Q159 428 163 415Q163 408 163 404T164 396Q164 376 149 362T113 348Q93 348 79 362T64 397Q64 419 76 442T111 483Q134 503 172 514T256 525Q308 525 344 508T398 459Q411 439 415 413T420 341V120Q420 82 427 68T454 53Q477 53 504
74V45ZM328 306Q276 287 241 270T183 233T152 193T142 147V142Q142 105 163 80T214 54Q232 54 254 61T297 79Q317 90 322 102T328 140V306ZM256 824Q278 824 298 815T334 790T358 753T367 709Q367 685 358 665T334 629T297 606T252 597Q228 597 208 605T172 629T149
666T140 711Q140 735 149 755T174 791T211 815T256 824ZM252 785Q223 785 201 763T179 711Q179 679 200 658T252 636Q284 636 306 657T329 711Q329 742 307 763T252 785Z" />
<glyph unicode="&#xe6;" glyph-name="ae" horiz-adv-x="761" d="M721 170Q709 144 699 124T678 89T656 61T631 38Q573 -11 496 -11Q447 -11 413 8T349 72Q320 47 297 31T255 6T216 -7T175 -11Q117 -11 80 23T43 113Q43 139 52 161T82 204T135 242T213 280L311
320L314 393Q316 449 299 473T243 498Q226 498 212 494T187 483T170 467T165 447L166 433V421L168 398Q168 373 155 360T118 346Q95 346 82 361T68 402Q68 428 82 450T120 489T178 515T249 525Q292 525 322 514T384 474Q403 489 419 499T451 514T483 522T520 525Q609
525 651 476T703 316H404Q404 273 405 244T410 193T420 155T435 122Q449 96 478 81T543 66Q592 66 629 90T708 175L721 170ZM312 289Q260 270 227 254T175 222T149 186T142 142Q142 102 164 73T218 43Q234 43 254 49T292 63T322 82T334 100Q334 102 333 103Q312
169 312 229V289ZM595 350Q593 426 572 458T504 491Q454 491 432 459T404 350H595Z" />
<glyph unicode="&#xe7;" glyph-name="ccedilla" horiz-adv-x="507" d="M234 -74Q249 -71 263 -71Q310 -71 336 -91T362 -150Q362 -195 324 -220T219 -246Q193 -246 171 -242T123 -228L139 -192Q162 -200 178 -203T213 -207Q242 -207 259 -193T276 -156Q276 -133
263 -124T215 -115Q197 -115 184 -118L175 -113L219 -9Q175 -4 140 17T80 71T42 147T28 242Q28 313 52 370T123 467Q158 495 197 510T278 525Q314 525 346 516T402 490T440 453T454 407Q454 387 439 373T401 359Q381 359 367 373T346 412L339 437Q331 469 317 480T271
491Q236 491 208 477T159 437T128 374T116 292Q116 244 129 203T165 133T220 88T292 71Q341 71 377 94T454 178L470 168Q426 78 377 36T258 -11L234 -74Z" />
<glyph unicode="&#xe8;" glyph-name="egrave" horiz-adv-x="507" d="M484 179Q448 85 387 37T242 -11Q193 -11 154 7T86 58T43 138T28 244Q28 307 45 358T94 447T170 504T267 525Q312 525 349 508T413 460Q424 446 431 432T444 402T454 364T462 316H111Q112 261
120 227T145 159Q194 67 289 67Q344 67 384 94T466 186L484 179ZM346 353Q335 427 311 455T234 484Q181 484 152 453T113 353H346ZM294 578L118 689Q86 710 86 738Q86 755 96 764T123 774Q137 774 146 768T171 747L340 578H294Z" />
<glyph unicode="&#xe9;" glyph-name="eacute" horiz-adv-x="507" d="M484 179Q448 85 387 37T242 -11Q193 -11 154 7T86 58T43 138T28 244Q28 307 45 358T94 447T170 504T267 525Q312 525 349 508T413 460Q424 446 431 432T444 402T454 364T462 316H111Q112 261
120 227T145 159Q194 67 289 67Q344 67 384 94T466 186L484 179ZM346 353Q335 427 311 455T234 484Q181 484 152 453T113 353H346ZM170 578L338 747Q353 762 363 768T386 774Q426 774 426 737Q426 711 391 689L215 578H170Z" />
<glyph unicode="&#xea;" glyph-name="ecircumflex" horiz-adv-x="507" d="M484 179Q448 85 387 37T242 -11Q193 -11 154 7T86 58T43 138T28 244Q28 307 45 358T94 447T170 504T267 525Q312 525 349 508T413 460Q424 446 431 432T444 402T454 364T462 316H111Q112
261 120 227T145 159Q194 67 289 67Q344 67 384 94T466 186L484 179ZM346 353Q335 427 311 455T234 484Q181 484 152 453T113 353H346ZM393 578L253 696L115 578H76L218 769H289L431 578H393Z" />
<glyph unicode="&#xeb;" glyph-name="edieresis" horiz-adv-x="507" d="M484 179Q448 85 387 37T242 -11Q193 -11 154 7T86 58T43 138T28 244Q28 307 45 358T94 447T170 504T267 525Q312 525 349 508T413 460Q424 446 431 432T444 402T454 364T462 316H111Q112
261 120 227T145 159Q194 67 289 67Q344 67 384 94T466 186L484 179ZM346 353Q335 427 311 455T234 484Q181 484 152 453T113 353H346ZM140 709Q163 709 180 693T197 653Q197 630 180 614T139 597Q116 597 100 613T84 654Q84 677 100 693T140 709ZM367 709Q390
709 407 693T425 653Q425 630 408 614T365 597Q342 597 327 613T311 654Q311 677 327 693T367 709Z" />
<glyph unicode="&#xec;" glyph-name="igrave" horiz-adv-x="318" d="M204 522V116Q204 85 206 67T218 38T243 23T289 16V0H18V16Q48 18 65 22T92 37T105 66T108 116V381Q108 419 100 434T71 450Q63 450 53 449T31 446L23 445V462L199 525L204 522ZM199 578L24
689Q-9 711 -9 738Q-9 755 1 764T29 774Q43 774 52 768T77 747L244 578H199Z" />
<glyph unicode="&#xed;" glyph-name="iacute" horiz-adv-x="318" d="M204 522V116Q204 85 206 67T218 38T243 23T289 16V0H18V16Q48 18 65 22T92 37T105 66T108 116V381Q108 419 100 434T71 450Q63 450 53 449T31 446L23 445V462L199 525L204 522ZM74 578L243
747Q258 762 267 768T291 774Q331 774 331 737Q331 711 296 689L121 578H74Z" />
<glyph unicode="&#xee;" glyph-name="icircumflex" horiz-adv-x="318" d="M204 522V116Q204 85 206 67T218 38T243 23T289 16V0H18V16Q48 18 65 22T92 37T105 66T108 116V381Q108 419 100 434T71 450Q63 450 53 449T31 446L23 445V462L199 525L204 522ZM297 578L159
696L20 578H-19L123 769H194L336 578H297Z" />
<glyph unicode="&#xef;" glyph-name="idieresis" horiz-adv-x="318" d="M204 522V116Q204 85 206 67T218 38T243 23T289 16V0H18V16Q48 18 65 22T92 37T105 66T108 116V381Q108 419 100 434T71 450Q63 450 53 449T31 446L23 445V462L199 525L204 522ZM68 709Q92
709 108 693T125 653Q125 630 109 614T67 597Q44 597 29 613T13 654Q13 677 29 693T68 709ZM249 709Q273 709 290 693T307 653Q307 630 290 614T248 597Q225 597 210 613T194 654Q194 677 210 693T249 709Z" />
<glyph unicode="&#xf0;" glyph-name="eth" horiz-adv-x="571" d="M168 582L130 616L268 689Q248 703 230 713T194 731T157 744T116 753L164 780Q192 777 214 773T257 763T297 748T338 726L446 782L484 748L381 694Q403 672 419 655T447 622T469 588T489 549Q512
497 525 440T538 325Q538 238 509 163T430 43Q370 -11 282 -11Q228 -11 183 9T104 64T52 149T33 255Q33 312 51 361T102 447T179 504T275 525Q296 525 312 522T345 511T379 490T418 456Q412 488 404 513T382 562T351 608T307 656L168 582ZM268 493Q239 493 215
480T173 444T146 388T136 316Q136 254 149 197T186 94Q204 59 234 40T300 20Q363 20 399 76T435 231Q435 289 423 337T389 420T336 474T268 493Z" />
<glyph unicode="&#xf1;" glyph-name="ntilde" horiz-adv-x="571" d="M18 474Q65 487 99 498T175 525L184 523V432Q213 459 235 477T275 505T311 520T349 525Q412 525 448 480T484 354V92Q484 51 498 36T553 16V0H316V16Q337 18 351 23T373 39T385 68T388 113V352Q388
462 305 462Q291 462 278 459T252 449T223 429T186 397V76Q186 45 202 33T262 16V0H20V16Q42 18 55 22T77 37T88 62T91 102V386Q91 428 82 443T49 459Q31 459 18 454V474ZM474 728Q456 662 429 635T354 607Q343 607 334 608T314 612T291 620T261 635L234 646Q209
660 188 660Q148 660 130 607H97Q109 664 139 693T212 722Q231 722 251 718T292 702L319 688Q336 680 351 675T381 670Q400 670 413 683T441 728H474Z" />
<glyph unicode="&#xf2;" glyph-name="ograve" horiz-adv-x="571" d="M285 525Q340 525 386 506T465 453T518 371T537 267Q537 207 518 157T464 69T384 10T283 -11Q229 -11 183 9T104 65T52 150T33 257Q33 316 51 365T103 450T182 505T285 525ZM268 493Q208 493
172 444T136 314Q136 253 149 196T186 93Q204 58 234 39T299 20Q362 20 397 75T433 228Q433 301 412 364T355 459Q336 477 315 485T268 493ZM326 578L150 689Q117 711 117 738Q117 755 127 764T156 774Q169 774 179 768T204 747L372 578H326Z" />
<glyph unicode="&#xf3;" glyph-name="oacute" horiz-adv-x="571" d="M285 525Q340 525 386 506T465 453T518 371T537 267Q537 207 518 157T464 69T384 10T283 -11Q229 -11 183 9T104 65T52 150T33 257Q33 316 51 365T103 450T182 505T285 525ZM268 493Q208 493
172 444T136 314Q136 253 149 196T186 93Q204 58 234 39T299 20Q362 20 397 75T433 228Q433 301 412 364T355 459Q336 477 315 485T268 493ZM202 578L370 747Q384 762 394 768T418 774Q457 774 457 737Q457 710 423 689L247 578H202Z" />
<glyph unicode="&#xf4;" glyph-name="ocircumflex" horiz-adv-x="571" d="M285 525Q340 525 386 506T465 453T518 371T537 267Q537 207 518 157T464 69T384 10T283 -11Q229 -11 183 9T104 65T52 150T33 257Q33 316 51 365T103 450T182 505T285 525ZM268 493Q208
493 172 444T136 314Q136 253 149 196T186 93Q204 58 234 39T299 20Q362 20 397 75T433 228Q433 301 412 364T355 459Q336 477 315 485T268 493ZM425 578L285 696L147 578H108L249 769H320L462 578H425Z" />
<glyph unicode="&#xf5;" glyph-name="otilde" horiz-adv-x="571" d="M285 525Q340 525 386 506T465 453T518 371T537 267Q537 207 518 157T464 69T384 10T283 -11Q229 -11 183 9T104 65T52 150T33 257Q33 316 51 365T103 450T182 505T285 525ZM268 493Q208 493
172 444T136 314Q136 253 149 196T186 93Q204 58 234 39T299 20Q362 20 397 75T433 228Q433 301 412 364T355 459Q336 477 315 485T268 493ZM474 728Q456 662 429 635T354 607Q343 607 334 608T314 612T291 620T261 635L234 646Q209 660 188 660Q148 660 130 607H97Q109
664 139 693T212 722Q231 722 251 718T292 702L319 688Q336 680 351 675T381 670Q400 670 413 683T441 728H474Z" />
<glyph unicode="&#xf6;" glyph-name="odieresis" horiz-adv-x="571" d="M285 525Q340 525 386 506T465 453T518 371T537 267Q537 207 518 157T464 69T384 10T283 -11Q229 -11 183 9T104 65T52 150T33 257Q33 316 51 365T103 450T182 505T285 525ZM268 493Q208
493 172 444T136 314Q136 253 149 196T186 93Q204 58 234 39T299 20Q362 20 397 75T433 228Q433 301 412 364T355 459Q336 477 315 485T268 493ZM171 709Q195 709 212 693T229 653Q229 630 212 614T171 597Q148 597 132 613T116 654Q116 677 132 693T171 709ZM399
709Q422 709 439 693T456 653Q456 630 439 614T398 597Q375 597 359 613T343 654Q343 677 359 693T399 709Z" />
<glyph unicode="&#xf7;" glyph-name="divide" horiz-adv-x="644" d="M34 251V326H610V251H34ZM323 588Q347 588 366 569T386 524Q386 499 367 481T323 462Q295 462 278 480T260 525Q260 552 278 570T323 588ZM323 115Q347 115 366 96T386 50Q386 24 367 7T323
-11Q295 -11 278 6T260 50Q260 78 278 96T323 115Z" />
<glyph unicode="&#xf8;" glyph-name="oslash" horiz-adv-x="571" d="M425 486Q482 446 509 393T537 267Q537 207 518 157T464 69T383 10T282 -11Q252 -11 229 -6T175 13L101 -129H59L142 31Q127 44 116 54T97 73T82 93T68 115Q51 147 42 184T33 260Q33 318 51
366T103 450T182 505T283 525Q313 525 336 520T389 504L454 629H499L425 486ZM204 68Q226 42 247 31T297 20Q362 20 397 75T433 232Q433 287 423 329T388 418L204 68ZM362 452Q339 474 318 483T270 493Q209 493 173 445T136 316Q136 256 146 206T180 105L362 452Z"
/>
<glyph unicode="&#xf9;" glyph-name="ugrave" horiz-adv-x="571" d="M547 40Q503 29 468 18T389 -10L386 -8V87L336 38Q313 14 282 2T219 -11Q156 -11 119 29T81 137V427Q81 467 67 482T10 500V516H176V141Q176 105 200 80T258 54Q284 54 310 64T360 96Q371 104
376 117T381 154V424Q381 445 378 458T365 480T338 491T295 496V516H476V122Q476 82 489 70T541 57H547V40ZM302 578L126 689Q93 711 93 738Q93 755 103 764T132 774Q145 774 155 768T180 747L348 578H302Z" />
<glyph unicode="&#xfa;" glyph-name="uacute" horiz-adv-x="571" d="M547 40Q503 29 468 18T389 -10L386 -8V87L336 38Q313 14 282 2T219 -11Q156 -11 119 29T81 137V423Q81 463 67 478T10 496V516H176V141Q176 105 200 80T258 54Q284 54 310 64T360 96Q371 104
376 117T381 154V424Q381 445 378 458T365 480T338 491T295 496V516H476V122Q476 82 489 70T541 57H547V40ZM314 724Q333 743 343 749T366 755Q381 755 392 744T403 718Q403 707 396 697T376 678L211 576H168L314 724Z" />
<glyph unicode="&#xfb;" glyph-name="ucircumflex" horiz-adv-x="571" d="M547 40Q503 29 468 18T389 -10L386 -8V87L336 38Q313 14 282 2T219 -11Q156 -11 119 29T81 137V425Q81 465 67 480T10 498V514H176V141Q176 105 200 80T258 54Q284 54 310 64T360 96Q371
104 376 117T381 154V422Q381 443 378 456T365 478T338 489T295 494V514H476V122Q476 82 489 70T541 57H547V40ZM409 578L270 696L132 578H93L234 769H306L449 578H409Z" />
<glyph unicode="&#xfc;" glyph-name="udieresis" horiz-adv-x="571" d="M547 40Q503 29 468 18T389 -10L386 -8V87L336 38Q313 14 282 2T219 -11Q156 -11 119 29T81 137V425Q81 465 67 480T10 498V514H176V141Q176 105 200 80T258 54Q284 54 310 64T360 96Q371
104 376 117T381 154V422Q381 443 378 456T365 478T338 489T295 494V514H476V122Q476 82 489 70T541 57H547V40ZM149 709Q172 709 189 693T207 653Q207 630 190 614T147 597Q124 597 109 613T93 654Q93 677 109 693T149 709ZM377 709Q400 709 416 693T433 653Q433
630 416 614T375 597Q352 597 336 613T320 654Q320 677 337 693T377 709Z" />
<glyph unicode="&#xfd;" glyph-name="yacute" horiz-adv-x="571" d="M542 496Q522 494 510 483T486 445L311 -21Q287 -83 265 -126T221 -197T173 -236T118 -249Q81 -249 58 -231T34 -183Q34 -161 48 -148T83 -134Q97 -134 112 -136T142 -145Q152 -150 159 -151T171
-152Q184 -152 200 -139T229 -103Q236 -90 244 -72T259 -35T270 -2T275 20Q275 34 262 64T224 137Q219 144 215 152T208 171L204 180L74 461Q62 490 16 498V514H251V496Q214 494 200 488T185 466Q185 455 187 445T197 422L328 134L438 449Q444 459 444 467Q444
481 429 488T388 496V514H542V496ZM202 578L370 747Q384 762 394 768T418 774Q457 774 457 737Q457 710 423 689L247 578H202Z" />
<glyph unicode="&#xfe;" glyph-name="thorn" horiz-adv-x="571" d="M10 730Q40 738 61 744T101 755T137 766T175 780L181 776V436Q220 483 259 504T346 525Q387 525 422 507T482 457T522 380T537 282Q537 220 519 167T468 74T391 12T296 -11Q278 -11 264 -9T236
-1T210 14T181 38V-142Q181 -169 185 -185T200 -211T230 -224T282 -228V-248H5V-228Q30 -226 46 -222T71 -209T83 -186T86 -150V654Q86 690 75 701T29 712Q23 712 19 712T10 711V730ZM181 100Q181 87 192 74T220 50T258 32T300 25Q331 25 356 40T400 83T428 150T438
236Q438 286 428 327T400 396T355 440T297 456Q277 456 257 449T219 431T192 407T181 381V100Z" />
<glyph unicode="&#xff;" glyph-name="ydieresis" horiz-adv-x="571" d="M542 496Q522 494 510 483T486 445L311 -21Q287 -83 265 -126T221 -197T173 -236T118 -249Q81 -249 58 -231T34 -183Q34 -161 48 -148T83 -134Q97 -134 112 -136T142 -145Q152 -150 159 -151T171
-152Q184 -152 200 -139T229 -103Q236 -90 244 -72T259 -35T270 -2T275 20Q275 34 262 64T224 137Q219 144 215 152T208 171L204 180L74 461Q62 490 16 498V514H251V496Q214 494 200 488T185 466Q185 455 187 445T197 422L328 134L438 449Q444 459 444 467Q444
481 429 488T388 496V514H542V496ZM189 709Q212 709 229 693T246 653Q246 630 229 614T188 597Q165 597 150 613T134 654Q134 677 150 693T189 709ZM417 709Q440 709 457 693T474 653Q474 630 457 614T415 597Q392 597 376 613T360 654Q360 677 377 693T417 709Z"
/>
<glyph unicode="&#x2013;" glyph-name="endash" horiz-adv-x="582" d="M582 280V216H0V280H582Z" />
<glyph unicode="&#x2014;" glyph-name="emdash" horiz-adv-x="1047" d="M1047 280V216H0V280H1047Z" />
<glyph unicode="&#x2018;" glyph-name="quoteleft" horiz-adv-x="214" d="M190 741Q134 702 108 667T82 598Q82 588 90 588H91Q92 588 94 589L111 590Q143 590 162 574T181 529Q181 501 162 483T113 465Q75 465 52 492T28 568Q28 624 61 673T164 771L190 741Z" />
<glyph unicode="&#x2019;" glyph-name="quoteright" horiz-adv-x="214" d="M120 652Q117 651 114 651T107 651Q72 651 52 667T32 712Q32 740 52 757T101 775Q139 775 162 748T186 676Q186 643 175 611T143 549Q137 541 131 535T116 521T95 504T66 483Q63 481 58
478T49 472L25 500Q77 534 104 570T131 642Q131 652 124 652H120Z" />
<glyph unicode="&#x201a;" glyph-name="quotesinglbase" horiz-adv-x="214" d="M120 -10Q118 -12 113 -12T104 -12Q72 -12 52 5T32 50Q32 76 52 94T101 113Q139 113 162 85T186 9Q186 -46 153 -95T49 -192L25 -162Q77 -128 104 -92T131 -19Q131 -10 124 -10H120Z" />
<glyph unicode="&#x201c;" glyph-name="quotedblleft" horiz-adv-x="408" d="M382 741Q327 702 301 667T275 598Q275 588 283 588L305 590Q336 590 355 574T374 529Q374 501 355 483T306 465Q268 465 244 492T220 568Q220 624 253 673T357 771L382 741ZM190 741Q142
711 112 671T82 598Q82 588 90 588L111 590Q143 590 162 574T181 529Q181 501 162 483T113 465Q75 465 52 492T28 568Q28 624 61 673T164 771L190 741Z" />
<glyph unicode="&#x201d;" glyph-name="quotedblright" horiz-adv-x="408" d="M104 647Q72 647 52 663T32 708Q32 734 52 752T101 771Q139 771 162 743T186 667Q186 612 153 563T49 465L25 495Q131 574 131 637Q131 647 124 647H104ZM296 647Q264 647 244 663T224
708Q224 734 244 752T293 771Q332 771 355 743T379 667Q379 560 242 465L218 495Q324 573 324 637Q324 647 316 647H296Z" />
<glyph unicode="&#x201e;" glyph-name="quotedblbase" horiz-adv-x="408" d="M120 -10Q118 -12 113 -12T104 -12Q72 -12 52 5T32 50Q32 76 52 94T101 113Q139 113 162 85T186 9Q186 -46 153 -95T49 -192L25 -162Q131 -88 131 -19Q131 -10 124 -10H120ZM313 -10Q311
-12 305 -12T296 -12Q264 -12 244 5T224 50Q224 76 244 94T293 113Q332 113 355 85T379 9Q379 -46 345 -95T242 -192L218 -162Q270 -125 297 -89T324 -19Q324 -10 316 -10H313Z" />
<glyph unicode="&#x2022;" glyph-name="bullet" horiz-adv-x="634" d="M141 404Q141 440 155 472T193 528T249 566T318 580Q354 580 386 566T441 528T479 472T493 404Q493 367 479 335T441 278T385 241T315 227Q279 227 248 241T193 279T155 336T141 404Z" />
<glyph unicode="&#x2039;" glyph-name="guilsinglleft" horiz-adv-x="288" d="M49 255Q87 291 126 329T204 406Q219 421 228 421Q232 421 236 417T240 409Q240 402 230 386T193 333Q178 312 168 297T140 255Q173 208 192 180T222 135T236 112T240 101Q240 96 236
93T227 89Q219 89 204 105L49 255Z" />
<glyph unicode="&#x203a;" glyph-name="guilsinglright" horiz-adv-x="288" d="M84 105Q69 89 61 89Q56 89 52 92T48 101Q48 105 51 112T64 135T95 179T148 255Q130 282 120 297T95 333Q69 369 59 385T48 409Q48 413 52 417T60 421Q69 421 84 406Q123 367 162
329T239 255L84 105Z" />
</font>
</defs>
</svg>
