<?xml version="1.0" standalone="no"?>
<!DOCTYPE svg PUBLIC "-//W3C//DTD SVG 1.1//EN" "http://www.w3.org/Graphics/SVG/1.1/DTD/svg11.dtd">
<svg xmlns="http://www.w3.org/2000/svg">
<defs >
<font id="KonkhmerSleokchher" horiz-adv-x="1223" ><font-face
    font-family="Konkhmer Sleokchher"
    units-per-em="2048"
    panose-1="0 0 0 0 0 0 0 0 0 0"
    ascent="2500"
    descent="-1200"
    alphabetic="0" />
<glyph unicode=" " glyph-name="space" horiz-adv-x="475" />
<glyph unicode="!" glyph-name="exclam" horiz-adv-x="709" d="M211 472L188 1490H520L498 472H211ZM174 153Q174 230 224 277T354 324Q434 324 484 277T535 153Q535 76 485 29T354 -19Q275 -19 225 28T174 153Z" />
<glyph unicode="&quot;" glyph-name="quotedbl" horiz-adv-x="1146" d="M232 866L202 1490H498L467 866H232ZM678 866L648 1490H944L913 866H678Z" />
<glyph unicode="#" glyph-name="numbersign" horiz-adv-x="1330" d="M688 0L749 370H459L398 0H165L226 370H21L60 602H264L310 887H106L146 1120H348L409 1490H642L581 1120H872L933 1490H1166L1105 1120H1309L1270 887H1066L1019 602H1224L1184 370H981L920
0H688ZM497 602H787L834 887H543L497 602Z" />
<glyph unicode="$" glyph-name="dollar" horiz-adv-x="1341" d="M622 -186V-19Q377 -6 232 117T81 468H386Q393 369 457 314T622 246V628L526 652Q338 697 230 795T121 1059Q121 1185 185 1282T362 1438T622 1508V1676H741V1508Q891 1498 1002 1440T1176 1284T1240
1062H936Q921 1219 741 1243V881L812 863Q942 834 1043 779T1202 637T1260 426Q1260 232 1123 113T741 -19V-186H622ZM444 1079Q444 1012 495 973T622 911V1243Q536 1231 490 1186T444 1079ZM943 427Q943 494 891 532T741 598V247Q834 260 888 308T943 427Z" />
<glyph unicode="%" glyph-name="percent" horiz-adv-x="1899" d="M162 1105V1183Q162 1273 200 1348T312 1469T490 1514Q597 1514 670 1469T780 1349T817 1183V1105Q817 1015 779 940T669 820T490 775Q384 775 311 820T200 940T162 1105ZM352 0L1376 1490H1586L562
0H352ZM375 1105Q375 1051 400 1007T490 962Q556 962 580 1006T604 1105V1183Q604 1236 581 1282T490 1328Q425 1328 400 1282T375 1183V1105ZM1120 306V384Q1120 474 1158 549T1270 670T1448 715Q1555 715 1628 670T1738 550T1775 384V306Q1775 216 1737 141T1627
21T1448 -24Q1342 -24 1269 21T1158 141T1120 306ZM1333 306Q1333 252 1358 208T1448 163Q1514 163 1538 207T1562 306V384Q1562 437 1539 483T1448 529Q1383 529 1358 483T1333 384V306Z" />
<glyph unicode="&amp;" glyph-name="ampersand" horiz-adv-x="1378" d="M578 -22Q423 -22 311 33T139 184T79 396Q79 526 155 612T351 785Q293 859 252 943T210 1126Q210 1235 260 1321T402 1458T615 1509Q735 1509 822 1461T955 1333T1002 1157Q1002 1053 951
968T804 814L717 751L963 470Q992 525 1009 589T1026 726H1284Q1284 575 1248 458T1149 257L1373 0H1048L959 100Q877 36 776 7T578 -22ZM475 1122Q475 1076 501 1029T568 928L646 979Q754 1051 754 1140Q754 1184 719 1222T618 1260Q554 1260 515 1219T475 1122ZM380
413Q380 333 438 280T593 226Q695 226 792 286L509 601L500 594Q439 550 410 503T380 413Z" />
<glyph unicode="&apos;" glyph-name="quotesingle" horiz-adv-x="700" d="M232 866L202 1490H498L467 866H232Z" />
<glyph unicode="(" glyph-name="parenleft" horiz-adv-x="772" d="M164 607Q164 772 197 951T288 1295T422 1581H708Q636 1426 585 1258T507 923T479 607Q479 477 502 345T575 62T708 -279H422Q164 147 164 607Z" />
<glyph unicode=")" glyph-name="parenright" horiz-adv-x="772" d="M64 -279Q146 -90 196 61T270 345T293 607Q293 757 266 923T187 1257T64 1581H350Q426 1460 484 1296T575 952T608 607Q608 147 350 -279H64Z" />
<glyph unicode="*" glyph-name="asterisk" horiz-adv-x="1157" d="M480 652L500 934L264 776L166 946L420 1070L166 1194L264 1366L500 1208L480 1490H676L658 1208L893 1366L990 1194L738 1070L990 946L893 776L658 934L676 652H480Z" />
<glyph unicode="+" glyph-name="plus" horiz-adv-x="1392" d="M565 80V465H181V726H565V1111H826V726H1210V465H826V80H565Z" />
<glyph unicode="," glyph-name="comma" horiz-adv-x="723" d="M118 -397L206 227H513L327 -397H118Z" />
<glyph unicode="-" glyph-name="hyphen" horiz-adv-x="959" d="M819 734V488H140V734H819Z" />
<glyph unicode="." glyph-name="period" horiz-adv-x="691" d="M346 -19Q272 -19 221 31T170 155Q170 229 221 279T346 329Q420 329 471 279T522 155Q522 82 471 32T346 -19Z" />
<glyph unicode="/" glyph-name="slash" horiz-adv-x="798" d="M773 1560L293 -224H26L506 1560H773Z" />
<glyph unicode="0" glyph-name="zero" horiz-adv-x="1410" d="M705 -20Q420 -20 262 181T103 744Q103 1106 262 1308T705 1510Q989 1510 1148 1308T1307 744Q1307 382 1149 181T705 -20ZM424 744Q424 502 496 371T705 240Q841 240 913 371T986 744Q986 987 914
1119T705 1251Q570 1251 497 1119T424 744Z" />
<glyph unicode="1" glyph-name="one" horiz-adv-x="885" d="M756 1490V0H442V1191H433L92 976V1256L461 1490H756Z" />
<glyph unicode="2" glyph-name="two" horiz-adv-x="1290" d="M120 0V226L651 718Q752 816 805 888T858 1048Q858 1146 794 1203T631 1260Q528 1260 467 1199T405 1030H106Q106 1177 173 1284T358 1451T633 1510Q793 1510 912 1454T1097 1298T1163 1068Q1163 984
1130 903T1012 721T774 481L557 268V257H1183V0H120Z" />
<glyph unicode="3" glyph-name="three" horiz-adv-x="1351" d="M671 -20Q508 -20 381 36T181 191T106 421H423Q426 339 497 290T672 240Q780 240 848 295T917 439Q917 529 844 586T644 643H505V875H644Q751 875 818 929T886 1071Q886 1155 828 1207T674 1260Q577
1260 509 1210T438 1074H136Q138 1203 209 1301T401 1454T676 1510Q830 1510 945 1454T1125 1303T1190 1090Q1190 965 1112 882T909 775V764Q1073 743 1158 650T1244 418Q1244 291 1171 192T968 37T671 -20Z" />
<glyph unicode="4" glyph-name="four" horiz-adv-x="1388" d="M98 262V509L720 1490H1114V514H1299V262H1114V0H813V262H98ZM415 514H819V1146H807L415 526V514Z" />
<glyph unicode="5" glyph-name="five" horiz-adv-x="1324" d="M666 -20Q512 -20 391 36T199 193T126 421H432Q436 335 504 282T666 228Q776 228 846 300T917 489Q917 606 846 680T661 754Q594 754 534 727T439 654L157 704L228 1490H1139V1232H488L450 859H458Q498
914 577 950T754 986Q889 986 994 923T1160 750T1221 497Q1221 347 1151 230T956 47T666 -20Z" />
<glyph unicode="6" glyph-name="six" horiz-adv-x="1357" d="M698 -20Q583 -20 477 18T286 141T152 366T103 711Q103 961 177 1140T388 1414T708 1510Q857 1510 971 1452T1154 1296T1239 1074H930Q911 1152 853 1196T708 1240Q563 1240 488 1114T412 770H422Q472
868 573 924T796 980Q929 980 1032 918T1194 748T1254 499Q1254 348 1184 231T989 47T698 -20ZM443 490Q443 418 476 359T566 264T695 228Q805 228 877 303T950 491Q950 601 879 676T698 752Q626 752 568 717T477 622T443 490Z" />
<glyph unicode="7" glyph-name="seven" horiz-adv-x="1197" d="M180 0L796 1222V1232H78V1490H1124V1228L505 0H180Z" />
<glyph unicode="8" glyph-name="eight" horiz-adv-x="1361" d="M680 -20Q511 -20 381 35T177 185T103 401Q103 494 145 572T261 702T426 769V778Q306 803 232 895T157 1109Q157 1225 225 1315T411 1458T680 1510Q831 1510 949 1458T1135 1315T1203 1109Q1203 987
1128 895T935 778V769Q1024 754 1097 702T1214 572T1258 401Q1258 280 1184 185T979 35T680 -20ZM464 1076Q464 988 525 932T680 876Q773 876 834 932T896 1076Q896 1163 836 1217T680 1272Q584 1272 524 1218T464 1076ZM430 426Q430 331 499 271T680 211Q792 211
861 271T930 426Q930 522 859 584T680 646Q571 646 501 585T430 426Z" />
<glyph unicode="9" glyph-name="nine" horiz-adv-x="1357" d="M660 1512Q775 1512 881 1474T1072 1350T1205 1124T1254 780Q1254 529 1180 350T970 74T650 -22Q501 -22 387 36T203 195T118 418H428Q446 339 505 294T650 248Q795 248 870 375T946 721H936Q886 623
785 567T562 511Q430 511 326 573T163 744T103 992Q103 1143 173 1261T368 1446T660 1512ZM408 1000Q408 889 479 814T660 739Q733 739 790 774T881 870T915 1002Q915 1073 882 1132T792 1226T662 1262Q553 1262 481 1187T408 1000Z" />
<glyph unicode=":" glyph-name="colon" horiz-adv-x="691" d="M346 -19Q272 -19 221 31T170 155Q170 229 221 279T346 329Q420 329 471 279T522 155Q522 82 471 32T346 -19ZM346 716Q272 716 221 766T170 890Q170 964 221 1014T346 1064Q420 1064 471 1014T522
890Q522 817 471 767T346 716Z" />
<glyph unicode=";" glyph-name="semicolon" horiz-adv-x="708" d="M118 -397L206 227H513L327 -397H118ZM363 716Q289 716 238 766T187 890Q187 964 238 1014T363 1064Q437 1064 488 1014T539 890Q539 817 488 767T363 716Z" />
<glyph unicode="&lt;" glyph-name="less" horiz-adv-x="1392" d="M166 468V724L1190 1176V880L499 602V588L1190 311V17L166 468Z" />
<glyph unicode="=" glyph-name="equal" horiz-adv-x="1392" d="M194 708V966H1198V708H194ZM194 484H1198V226H194V484Z" />
<glyph unicode="&gt;" glyph-name="greater" horiz-adv-x="1392" d="M1226 468L202 17V311L894 588V602L202 880V1176L1226 724V468Z" />
<glyph unicode="?" glyph-name="question" horiz-adv-x="1021" d="M360 1352L432 1365H472L508 1361L520 1365L524 1348L580 1352L592 1348L596 1352H600L620 1343L632 1348L636 1343H640L656 1348Q707 1341 764 1273Q764 1256 800 1256Q848 1247 848 1238V1221H844Q810
1239 772 1243L764 1251Q764 1243 728 1238L664 1173H668Q689 1173 760 1238H764V1234Q720 1187 720 1168Q684 979 652 936Q568 809 516 779Q528 743 528 718L524 713V709L528 704V691H524L528 661Q528 556 492 455Q484 455 476 416Q460 373 404 284H400L404 306V389L356
678L352 704L356 709L344 722Q353 724 380 809Q393 809 400 827V862Q400 886 436 958V954Q536 1037 596 1076Q684 1155 684 1164V1168L640 1155L636 1159H632L628 1155H624L392 1221L368 1225Q252 1076 200 1076L208 1037L196 910Q219 938 292 1085L332 1120L340
1111H348L368 1116L372 1111L400 1155L404 1142L380 1103V1072Q380 1005 264 910L196 879L200 849L196 844H192Q128 951 120 1006L116 1011L120 1015Q116 1076 104 1076L64 1089L8 1033L0 1046V1050L64 1116Q64 1223 160 1269Q272 1352 360 1352ZM408 1334H412Q431
1343 432 1352H420Q420 1339 408 1339V1334ZM356 1308H360L388 1343H384L356 1313V1308ZM304 1282Q324 1289 352 1334V1339H344Q337 1339 304 1286V1282ZM452 1321Q476 1332 476 1339H468Q444 1329 444 1321H452ZM556 1330Q571 1330 632 1273H660Q607 1329 556
1339V1330ZM608 1330Q648 1308 696 1264H716Q700 1298 636 1330V1334L632 1330L612 1334H608V1330ZM252 1256L256 1251Q269 1251 316 1334H312Q288 1334 252 1256ZM500 1330Q516 1330 580 1282H600Q587 1304 520 1334H500V1330ZM668 1326Q677 1326 748 1256H760Q725
1317 672 1330H668V1326ZM468 1313L500 1295L548 1282H552V1286Q507 1318 480 1326Q480 1317 468 1317V1313ZM388 1299H412L440 1308V1313L416 1317L388 1308V1299ZM208 1221Q228 1230 228 1251L256 1299V1308Q230 1292 204 1221H208ZM444 1299Q444 1288 488 1282H492V1286L456
1304L444 1299ZM336 1278L396 1264L408 1282L364 1295L336 1282V1278ZM152 1177Q173 1177 216 1286L220 1291H216Q191 1278 152 1181V1177ZM396 1234L420 1229Q452 1243 464 1269H436Q415 1238 396 1238V1234ZM432 1221L468 1216L516 1251L524 1269H488Q447 1225
432 1225V1221ZM480 1208L512 1199Q512 1211 544 1229L576 1269H548Q501 1216 480 1216V1208ZM280 1251Q280 1240 336 1234L352 1238L360 1229L376 1251L316 1264L280 1251ZM520 1194L548 1186Q581 1206 628 1264H596Q534 1199 520 1199V1194ZM112 1142Q120 1142
168 1256V1260Q136 1237 136 1216Q125 1216 108 1142H112ZM560 1181L588 1177L640 1212Q672 1247 680 1247V1256H640Q582 1186 560 1186V1181ZM600 1168H604L620 1173L632 1168Q680 1201 720 1247L696 1251Q629 1173 600 1173V1168ZM236 1216L312 1199H324V1190H328L348
1221H344L340 1216L252 1234Q252 1225 236 1225V1216ZM76 1116Q89 1116 96 1168L120 1225H116Q76 1176 76 1138V1116ZM192 1186L296 1159Q307 1162 316 1181L216 1203Q192 1193 192 1186ZM148 1146L252 1133H260Q280 1133 284 1151H280L276 1146H272L180 1173Q152
1161 148 1146ZM696 1155H700V1164H696V1155ZM644 1068L648 1063H652Q652 1077 668 1094Q668 1124 684 1124L696 1151H684Q684 1141 648 1103L644 1068ZM704 1138H708V1146H704V1138ZM116 1120L236 1103Q236 1111 248 1111V1116L132 1133H128L116 1120ZM676 1076Q688
1098 700 1098V1107H696Q680 1097 672 1076H676ZM84 1094L164 1081L176 1085L180 1081H184L204 1085V1089Q120 1097 120 1107H104L84 1103V1094ZM344 1098H352V1094L364 1098V1103H344V1098ZM332 1094H340L332 1103V1094ZM616 1011H620L636 1050L632 1076L640 1098H636L616
1076V1011ZM300 1072H316L328 1076V1072L348 1076V1081H332L300 1076V1072ZM576 989L580 967Q592 972 608 1006L600 1046L604 1072L580 1050L584 1046V1041L576 1006V989ZM160 1063Q160 1054 192 1028Q192 1036 160 1068V1063ZM648 1033L688 1063V1068Q653 1052
648 1037V1033ZM352 1050H356V1063H352V1050ZM292 1046L308 1050L312 1046H316Q336 1051 336 1059H316Q287 1059 284 1046H292ZM540 993L548 928H552Q559 928 568 954L564 1006L568 1041H564L540 1024L544 1019V1015L540 993ZM348 1033H352V1041H348V1033ZM160
1033L188 1006Q188 1015 160 1037V1033ZM616 984L676 1015V1033Q623 1006 616 984ZM332 1024H336V1033H332V1024ZM268 1019H272L276 1024L296 1019H308L316 1028V1033H308L280 1028L276 1033L268 1019ZM128 1019H132V1028H128V1019ZM328 1011H332V1019H328V1011ZM344
1011H348V1019H344V1011ZM504 958L512 888L536 914L528 989L532 1015H528Q507 1015 504 958ZM256 993Q296 997 296 1006H288Q256 1004 256 993ZM164 1006L188 980Q183 998 168 1006H164ZM576 936H580Q668 964 668 993V998L588 954L576 936ZM468 897L472 844Q500
863 500 888L492 945V963L496 984H488L472 971L476 958L468 919V897ZM168 976L188 954V963Q176 963 176 976L172 980H168V976ZM244 967L248 971H256L260 967L276 971V980H252L244 971V967ZM140 967H144V976H140V967ZM288 963H292V976H288V963ZM436 875L440 840V814L460
831L456 919L464 958V963H460Q460 951 444 941L436 875ZM284 949H288V958H284V949ZM232 945H252V954L248 949H244L232 954V945ZM148 941H156V954H152L148 941ZM280 936H284V945H280V936ZM176 936L180 932H184V936L180 941H176V936ZM544 893Q636 916 636 941H632Q541
908 540 893H544ZM220 923H228V928H220V923ZM180 906H184V914H180V906ZM408 823L412 788H416L432 801L428 866V910H424Q408 871 408 823ZM500 849H504Q566 857 612 897V901L516 871L500 849ZM456 805H460Q505 805 560 836Q560 847 580 849V858H576L460 814L456
809V805ZM368 739H372L404 792L400 805Q383 797 368 744V739ZM428 774L444 770L448 774H452L456 770L460 774H464L468 770L536 801V805H532L480 792V796Q428 786 428 774ZM500 766Q512 750 512 735H516V748Q511 774 504 774H500V766ZM468 761Q512 681 512 669H520Q501
766 480 766L468 761ZM364 678H368Q368 699 424 761H416L364 704L368 700V696L364 683V678ZM368 661L372 630H376Q376 652 448 722V753L440 761Q391 701 368 661ZM460 718L508 617V613H516V617Q516 647 464 744V748H460V718ZM372 613L380 582H384Q384 597 452 665V704H448L388
639Q388 620 372 613ZM464 643Q504 570 504 551H508V569Q508 600 468 674H464V643ZM388 569L392 525H396Q396 557 452 613V643Q390 579 388 569ZM460 608Q460 590 492 494L500 503V508Q500 549 468 613L464 608H460ZM396 516L400 486H404Q404 493 448 543L452 586Q421
566 396 516ZM460 516L476 451H480Q480 468 488 468L464 547H460V516ZM404 468L408 438H412Q412 457 444 486L448 516Q430 506 404 468ZM452 473L460 411H464L468 429L460 481H452V473ZM412 398H420Q440 433 440 459L412 424V398ZM444 389L452 381V411L444 420V389ZM412
363L416 350H420L424 385H420L416 381H412L416 376V372L412 368V363ZM432 354H436V368H432V354ZM248 162V166L288 158Q368 172 368 197L384 206L388 201L424 210Q495 210 596 127H600V123Q600 116 560 92V79H552V83L556 88V96H552L528 48V44L552 70V61Q540 32 476
13Q476 6 456 0Q352 0 248 162ZM420 153Q427 153 456 197H448Q420 169 420 153ZM408 149Q408 164 432 197H428Q409 185 392 149H408ZM368 140H372L404 193H392L368 140ZM444 158Q460 158 480 193H472Q453 183 444 162V158ZM352 136H356L376 184V188Q352 175 352
140V136ZM484 162L500 179V184H496Q479 178 472 162H484ZM500 158H504L520 166V171H512L500 166V158ZM336 153L344 144L348 149V158H336V153ZM320 144Q328 144 328 131H340L328 153L320 144ZM300 144L308 123H312L320 131Q310 131 308 149H300V144ZM276 144L292
140V149H276V144ZM460 149L468 140H472V149H460ZM436 144L448 131H456L444 144H436ZM516 140L548 105H552V109Q552 127 516 140ZM544 131H556L548 140H544V131ZM412 140L436 114L440 118V123L424 140H412ZM480 136Q495 136 532 96L536 101V105Q501 140 488 140H480V136ZM388
131L412 105H424Q408 136 400 136H388V131ZM468 123Q476 123 508 88H512L520 96Q483 131 468 131V123ZM556 118L564 109L584 118V127L564 123L560 127L556 123V118ZM372 127L400 92H404V96L384 127H372ZM356 118L388 83V88Q368 120 356 123V118ZM448 114L484 79H496V83Q480
111 452 123L448 118V114ZM336 109H348V118H336V109ZM296 105H308L300 114H296V105ZM428 105Q460 70 472 70V74Q454 105 432 105H428ZM312 88H324L336 92V101H332L312 92V88ZM412 92L436 66H452Q438 92 416 92H412ZM500 35H504Q524 49 540 88H536L500 35ZM332 74L340
66Q357 66 364 88H352L332 74ZM396 74L416 61H424Q417 77 400 83L396 79V74ZM472 26H476Q485 26 512 70V74H500Q500 60 472 26ZM380 70L392 57H400V66L380 70ZM364 66L372 57V66H364ZM456 26Q472 34 488 66H484L456 26ZM432 22Q451 35 464 57H460Q451 57 428 22H432ZM412
26Q440 45 440 53H436Q419 45 412 31V26ZM392 35H396L412 48H408L392 39V35Z" />
<glyph unicode="@" glyph-name="at" horiz-adv-x="2111" d="M1078 -429Q769 -429 551 -318T218 3T103 510Q103 803 219 1022T555 1362T1088 1483Q1377 1483 1583 1372T1898 1064T2008 607Q2008 431 1962 289T1813 63T1538 -21Q1438 -21 1386 22T1322 137H1314Q1289
75 1201 32T996 -12Q856 -12 754 54T596 241T540 520Q540 687 604 805T777 987T1013 1050Q1116 1050 1191 1017T1287 945H1298V1026H1525V316Q1525 212 1606 212Q1682 212 1720 311T1758 624Q1758 796 1703 915T1553 1108T1337 1215T1084 1249Q842 1249 682 1153T442
892T362 519Q362 174 551 -9T1095 -193Q1221 -193 1335 -167T1508 -118L1579 -329Q1534 -354 1456 -377T1280 -414T1078 -429ZM790 528Q790 451 814 383T894 271T1044 228Q1178 228 1230 305T1283 530Q1283 661 1233 732T1044 803Q923 803 857 728T790 528Z" />
<glyph unicode="A" glyph-name="A" horiz-adv-x="1530" d="M386 0H48L563 1490H968L1482 0H1145L1034 340H496L386 0ZM576 586H954L771 1150H759L576 586Z" />
<glyph unicode="B" glyph-name="B" horiz-adv-x="1354" d="M130 0V1490H726Q972 1490 1096 1383T1220 1108Q1220 977 1144 896T951 788V773Q1036 769 1110 725T1231 602T1278 412Q1278 294 1220 201T1048 54T766 0H130ZM678 866Q774 866 838 917T902 1056Q902
1136 845 1185T684 1235H444V866H678ZM701 257Q833 257 893 308T954 443Q954 535 888 594T709 654H444V257H701Z" />
<glyph unicode="C" glyph-name="C" horiz-adv-x="1540" d="M797 -20Q598 -20 441 70T194 331T103 744Q103 988 194 1159T443 1420T797 1510Q970 1510 1108 1446T1335 1261T1443 968H1125Q1107 1091 1020 1161T804 1232Q632 1232 527 1105T422 744Q422 506 527
382T803 258Q928 258 1015 324T1125 509H1443Q1426 372 1346 251T1127 55T797 -20Z" />
<glyph unicode="D" glyph-name="D" horiz-adv-x="1489" d="M658 0H130V1490H662Q887 1490 1049 1401T1298 1145T1386 746Q1386 513 1299 346T1048 90T658 0ZM444 270H644Q855 270 964 383T1073 746Q1073 994 964 1107T644 1220H444V270Z" />
<glyph unicode="E" glyph-name="E" horiz-adv-x="1254" d="M130 0V1490H1134V1230H444V880H1081V625H444V260H1136V0H130Z" />
<glyph unicode="F" glyph-name="F" horiz-adv-x="1198" d="M130 0V1490H1116V1230H444V821H1050V566H444V0H130Z" />
<glyph unicode="G" glyph-name="G" horiz-adv-x="1558" d="M806 -20Q597 -20 439 72T192 336T103 743Q103 985 195 1156T445 1419T800 1510Q969 1510 1105 1446T1329 1269T1437 1008H1118Q1087 1113 1007 1172T805 1232Q634 1232 528 1106T422 746Q422 513 526
386T809 258Q965 258 1054 339T1147 560H828V797H1452V609Q1452 413 1369 272T1140 56T806 -20Z" />
<glyph unicode="H" glyph-name="H" horiz-adv-x="1527" d="M130 0V1490H444V875H1083V1490H1398V0H1083V616H444V0H130Z" />
<glyph unicode="I" glyph-name="I" horiz-adv-x="573" d="M444 1490V0H130V1490H444Z" />
<glyph unicode="J" glyph-name="J" horiz-adv-x="1166" d="M544 -20Q410 -20 297 27T116 173T48 420V437H362V420Q362 331 412 282T544 232Q726 232 726 450V1490H1037V450Q1037 234 904 107T544 -20Z" />
<glyph unicode="K" glyph-name="K" horiz-adv-x="1413" d="M130 0V1490H444V833H463L1000 1490H1377L825 823L1384 0H1006L599 612L444 423V0H130Z" />
<glyph unicode="L" glyph-name="L" horiz-adv-x="1163" d="M130 0V1490H444V260H1083V0H130Z" />
<glyph unicode="M" glyph-name="M" horiz-adv-x="1876" d="M130 1490H518L928 489H945L1356 1490H1747V0H1438V970H1427L1040 7H831L448 972H435V0H130V1490Z" />
<glyph unicode="N" glyph-name="N" horiz-adv-x="1505" d="M1376 1490V0H1103L456 937H444V0H130V1490H406L1049 553H1062V1490H1376Z" />
<glyph unicode="O" glyph-name="O" horiz-adv-x="1601" d="M801 -20Q603 -20 445 70T195 331T103 744Q103 988 195 1159T445 1420T801 1510Q999 1510 1156 1420T1406 1159T1498 744Q1498 500 1406 330T1157 70T801 -20ZM422 744Q422 508 525 383T801 258Q972 258
1075 383T1179 744Q1179 981 1076 1106T801 1232Q629 1232 526 1107T422 744Z" />
<glyph unicode="P" glyph-name="P" horiz-adv-x="1326" d="M130 0V1490H716Q886 1490 1005 1425T1188 1246T1251 984Q1251 836 1187 723T1002 547T709 483H444V0H130ZM444 735H657Q794 735 860 804T927 984Q927 1096 860 1164T656 1232H444V735Z" />
<glyph unicode="Q" glyph-name="Q" horiz-adv-x="1601" d="M801 -20Q603 -20 445 70T195 331T103 744Q103 988 195 1159T445 1420T801 1510Q999 1510 1156 1420T1406 1159T1498 744Q1498 545 1435 394T1262 145L1476 -122H1182L1062 25Q941 -20 801 -20ZM422 744Q422
508 525 383T801 258Q844 258 883 266L692 518H960L1070 376Q1122 438 1150 530T1179 744Q1179 981 1076 1106T801 1232Q629 1232 526 1107T422 744Z" />
<glyph unicode="R" glyph-name="R" horiz-adv-x="1345" d="M130 0V1490H716Q970 1490 1110 1357T1251 1003Q1251 850 1183 742T988 579L1304 0H956L674 528H444V0H130ZM444 781H657Q927 781 927 1003Q927 1114 860 1173T656 1232H444V781Z" />
<glyph unicode="S" glyph-name="S" horiz-adv-x="1341" d="M682 -21Q411 -21 250 103T81 468H386Q394 356 474 300T678 243Q798 243 870 294T943 427Q943 502 877 542T689 612L526 652Q338 697 230 795T121 1059Q121 1194 194 1295T394 1453T685 1510Q851 1510
975 1453T1168 1295T1240 1062H936Q928 1149 862 1198T683 1247Q568 1247 506 1200T444 1079Q444 1000 513 960T679 896L812 863Q942 834 1043 779T1202 637T1260 426Q1260 221 1107 100T682 -21Z" />
<glyph unicode="T" glyph-name="T" horiz-adv-x="1369" d="M73 1230V1490H1296V1230H842V0H528V1230H73Z" />
<glyph unicode="U" glyph-name="U" horiz-adv-x="1493" d="M1050 1490H1364V524Q1364 361 1287 239T1071 48T747 -20Q561 -20 423 48T207 238T130 524V1490H444V550Q444 422 527 340T747 257Q884 257 967 339T1050 550V1490Z" />
<glyph unicode="V" glyph-name="V" horiz-adv-x="1530" d="M399 1490L758 358H773L1133 1490H1482L968 0H563L48 1490H399Z" />
<glyph unicode="W" glyph-name="W" horiz-adv-x="2117" d="M462 0L36 1490H380L627 455H640L911 1490H1206L1476 452H1490L1736 1490H2081L1654 0H1347L1064 974H1052L770 0H462Z" />
<glyph unicode="X" glyph-name="X" horiz-adv-x="1465" d="M425 1490L725 982H737L1038 1490H1394L940 744L1405 0H1042L737 508H725L419 0H60L525 744L68 1490H425Z" />
<glyph unicode="Y" glyph-name="Y" horiz-adv-x="1484" d="M41 1490H395L734 848H749L1089 1490H1442L898 526V0H585V526L41 1490Z" />
<glyph unicode="Z" glyph-name="Z" horiz-adv-x="1365" d="M113 0V186L857 1230H111V1490H1252V1303L508 260H1254V0H113Z" />
<glyph unicode="[" glyph-name="bracketleft" horiz-adv-x="772" d="M177 -279V1581H672V1347H476V-45H672V-279H177Z" />
<glyph unicode="\" glyph-name="backslash" horiz-adv-x="798" d="M506 -224L26 1560H293L773 -224H506Z" />
<glyph unicode="]" glyph-name="bracketright" horiz-adv-x="773" d="M100 -279V-45H297V1347H100V1581H596V-279H100Z" />
<glyph unicode="^" glyph-name="asciicircum" horiz-adv-x="998" d="M68 814L375 1456H624L931 814H696L505 1248H493L303 814H68Z" />
<glyph unicode="_" glyph-name="underscore" horiz-adv-x="976" d="M977 0V-236H-1V0H977Z" />
<glyph unicode="`" glyph-name="grave" horiz-adv-x="952" d="M475 1257L268 1562H551L691 1257H475Z" />
<glyph unicode="a" glyph-name="a" horiz-adv-x="1195" d="M443 -21Q283 -21 178 62T72 312Q72 437 130 508T285 613T491 657Q637 671 699 686T762 756V761Q762 830 718 868T591 906Q508 906 456 870T386 778L104 823Q144 969 272 1050T592 1132Q716 1132 825
1093T1003 971T1071 754V0H778V156H769Q728 77 648 28T443 -21ZM367 322Q367 258 413 226T531 193Q633 193 698 252T764 399V518Q746 506 708 496T626 480T549 468Q467 456 417 422T367 322Z" />
<glyph unicode="b" glyph-name="b" horiz-adv-x="1292" d="M759 -18Q669 -18 607 12T505 87T443 179H429V0H124V1490H434V929H443Q464 975 502 1022T604 1100T761 1132Q884 1132 986 1069T1151 877T1213 557Q1213 371 1153 243T990 48T759 -18ZM427 558Q427 410
488 319T662 228Q776 228 836 320T896 558Q896 704 837 795T662 886Q550 886 489 797T427 558Z" />
<glyph unicode="c" glyph-name="c" horiz-adv-x="1203" d="M628 -22Q456 -22 333 51T145 254T79 554Q79 726 145 856T335 1059T627 1132Q773 1132 883 1079T1057 930T1127 704H835Q822 787 770 838T632 890Q524 890 459 804T394 558Q394 398 458 309T632 220Q712
220 767 270T835 410H1127Q1120 282 1058 185T887 33T628 -22Z" />
<glyph unicode="d" glyph-name="d" horiz-adv-x="1292" d="M533 -18Q405 -18 302 48T139 242T79 557Q79 749 141 877T306 1068T531 1132Q625 1132 688 1101T790 1022T849 929H858V1490H1168V0H863V179H849Q828 133 788 88T686 12T533 -18ZM865 558Q865 708 804
797T630 886Q515 886 456 795T396 558Q396 413 456 321T630 228Q742 228 803 319T865 558Z" />
<glyph unicode="e" glyph-name="e" horiz-adv-x="1225" d="M633 -22Q461 -22 337 48T146 247T79 554Q79 726 145 856T333 1059T618 1132Q766 1132 885 1069T1075 880T1146 564V480H384Q389 353 458 281T638 209Q715 209 770 242T850 338L1136 319Q1103 165 972
72T633 -22ZM386 671H849Q838 777 781 839T621 901Q517 901 457 837T386 671Z" />
<glyph unicode="f" glyph-name="f" horiz-adv-x="794" d="M197 0V884H40V1118H197V1199Q197 1380 301 1470T563 1560Q635 1560 694 1549T782 1529L727 1297Q709 1302 683 1307T628 1312Q560 1312 533 1281T505 1192V1118H728V884H505V0H197Z" />
<glyph unicode="g" glyph-name="g" horiz-adv-x="1294" d="M625 -442Q399 -442 271 -353T115 -130L401 -92Q420 -143 474 -181T632 -219Q733 -219 799 -171T865 -7V198H851Q821 128 744 72T532 16Q407 16 304 74T140 254T79 560Q79 751 141 878T307 1068T533 1132Q626
1132 690 1101T793 1022T854 929H866V1118H1170V-12Q1170 -154 1100 -250T908 -394T625 -442ZM396 562Q396 418 456 334T631 249Q743 249 804 332T866 562Q866 709 805 797T631 886Q516 886 456 796T396 562Z" />
<glyph unicode="h" glyph-name="h" horiz-adv-x="1282" d="M434 646V0H124V1490H424V919H438Q476 1018 560 1075T772 1132Q946 1132 1052 1020T1158 711V0H849V656Q849 760 797 817T648 875Q554 875 494 815T434 646Z" />
<glyph unicode="i" glyph-name="i" horiz-adv-x="558" d="M124 0V1118H434V0H124ZM535 1261Q466 1261 417 1307T367 1418Q367 1483 416 1528T535 1574Q604 1574 653 1529T703 1418Q703 1353 654 1307T535 1261Z" />
<glyph unicode="j" glyph-name="j" horiz-adv-x="558" d="M124 1118H434V-56Q434 -249 321 -333T10 -418H-52V-176H-12Q63 -176 93 -145T124 -51V1118ZM534 1261Q465 1261 416 1307T366 1418Q366 1483 415 1528T534 1574Q603 1574 652 1529T702 1418Q702 1353
653 1307T534 1261Z" />
<glyph unicode="k" glyph-name="k" horiz-adv-x="1191" d="M124 1490H434V693H451L808 1118H1164L750 633L1184 0H822L518 451L434 356V0H124V1490Z" />
<glyph unicode="l" glyph-name="l" horiz-adv-x="558" d="M434 1490V0H124V1490H434Z" />
<glyph unicode="m" glyph-name="m" horiz-adv-x="1872" d="M124 0V1118H418V919H432Q467 1018 549 1075T744 1132Q859 1132 939 1075T1046 919H1058Q1093 1016 1182 1074T1395 1132Q1551 1132 1649 1033T1748 752V0H1438V690Q1438 784 1389 830T1265 876Q1181
876 1134 823T1086 682V0H785V698Q785 779 739 827T616 876Q538 876 486 820T434 670V0H124Z" />
<glyph unicode="n" glyph-name="n" horiz-adv-x="1278" d="M434 646V0H124V1118H429V919H440Q478 1017 561 1074T768 1132Q943 1132 1048 1020T1154 711V0H844V656Q844 759 792 817T646 875Q552 875 493 815T434 646Z" />
<glyph unicode="o" glyph-name="o" horiz-adv-x="1257" d="M628 -22Q459 -22 336 50T146 252T79 554Q79 727 145 857T335 1059T628 1132Q798 1132 921 1060T1111 857T1178 554Q1178 382 1112 253T922 51T628 -22ZM394 556Q394 410 453 315T629 220Q745 220 804
315T863 556Q863 702 804 796T629 890Q512 890 453 796T394 556Z" />
<glyph unicode="p" glyph-name="p" horiz-adv-x="1292" d="M124 -418V1118H429V929H443Q464 975 502 1022T604 1100T761 1132Q884 1132 986 1069T1151 877T1213 557Q1213 371 1153 243T990 48T759 -18Q669 -18 607 12T505 87T443 179H434V-418H124ZM427 558Q427
410 488 319T662 228Q776 228 836 320T896 558Q896 704 837 795T662 886Q550 886 489 797T427 558Z" />
<glyph unicode="q" glyph-name="q" horiz-adv-x="1292" d="M1168 -418H858V179H849Q828 133 788 88T686 12T533 -18Q405 -18 302 48T139 242T79 557Q79 749 141 877T306 1068T531 1132Q625 1132 688 1101T790 1022T849 929H863V1118H1168V-418ZM865 558Q865 708
804 797T630 886Q515 886 456 795T396 558Q396 413 456 321T630 228Q742 228 803 319T865 558Z" />
<glyph unicode="r" glyph-name="r" horiz-adv-x="838" d="M124 0V1118H424V922H436Q466 1026 538 1079T704 1133Q727 1133 754 1130T801 1122V848Q779 855 741 859T670 864Q568 864 501 800T434 632V0H124Z" />
<glyph unicode="s" glyph-name="s" horiz-adv-x="1150" d="M1052 799L770 782Q758 835 711 873T582 912Q510 912 461 882T412 802Q412 762 444 734T553 689L756 649Q1078 585 1078 347Q1078 236 1014 153T838 24T581 -22Q359 -22 228 70T74 323L378 339Q409 201
582 201Q663 201 713 233T763 314Q763 397 620 426L427 466Q104 531 104 784Q104 946 233 1039T577 1132Q789 1132 911 1043T1052 799Z" />
<glyph unicode="t" glyph-name="t" horiz-adv-x="796" d="M718 1118V884H506V344Q506 235 612 235Q630 235 651 238T689 245L738 13Q639 -16 546 -16Q380 -16 289 68T197 303V884H45V1118H197V1384H506V1118H718Z" />
<glyph unicode="u" glyph-name="u" horiz-adv-x="1274" d="M840 475V1118H1150V0H852V203H840Q803 105 716 45T502 -14Q333 -15 229 97T124 406V1118H434V460Q434 362 487 305T628 248Q711 247 775 305T840 475Z" />
<glyph unicode="v" glyph-name="v" horiz-adv-x="1200" d="M1165 1118L774 0H424L35 1118H363L598 317H610L841 1118H1165Z" />
<glyph unicode="w" glyph-name="w" horiz-adv-x="1741" d="M344 0L40 1118H353L527 366H536L718 1118H1024L1208 371H1218L1388 1118H1701L1397 0H1069L877 703H864L672 0H344Z" />
<glyph unicode="x" glyph-name="x" horiz-adv-x="1176" d="M383 1118L587 726L797 1118H1116L792 558L1125 0H808L587 386L371 0H51L383 558L63 1118H383Z" />
<glyph unicode="y" glyph-name="y" horiz-adv-x="1200" d="M313 -426Q254 -426 203 -417T117 -395L188 -164L198 -166Q276 -188 332 -176T416 -88L435 -32L35 1118H360L592 297H604L837 1118H1165L728 -129Q681 -265 584 -345T313 -426Z" />
<glyph unicode="z" glyph-name="z" horiz-adv-x="1172" d="M119 0V185L665 862V870H136V1118H1038V915L525 256V248H1056V0H119Z" />
<glyph unicode="{" glyph-name="braceleft" horiz-adv-x="967" d="M140 790Q265 790 314 840T363 1003V1173Q363 1307 400 1388T504 1511T664 1567T867 1581V1348Q737 1349 693 1299T649 1142V929Q649 875 631 823T562 730T413 663V639Q511 614 562 572T631 478T649
372V160Q649 54 693 4T867 -47V-279Q757 -279 665 -265T505 -210T400 -87T363 129V299Q363 411 314 461T140 512V790Z" />
<glyph unicode="|" glyph-name="bar" horiz-adv-x="766" d="M529 1970V-480H236V1970H529Z" />
<glyph unicode="}" glyph-name="braceright" horiz-adv-x="967" d="M827 512Q703 512 654 462T604 299V129Q604 -6 567 -87T463 -209T303 -265T100 -279V-47Q230 -47 273 3T317 160V372Q317 426 335 478T405 572T554 639V663Q456 688 405 729T336 823T317 929V1142Q317
1248 274 1298T100 1348V1581Q210 1581 302 1567T462 1512T567 1389T604 1173V1003Q604 891 653 841T827 790V512Z" />
<glyph unicode="~" glyph-name="asciitilde" horiz-adv-x="1392" d="M156 402Q149 608 235 718T470 829Q540 829 602 801T744 702Q785 666 814 647T882 626Q933 627 966 667T998 795H1236Q1242 589 1154 479T922 368Q849 368 786 398T646 495Q601 535 575 553T510
571Q459 571 426 532T394 402H156Z" />
<glyph unicode="&#xa0;" glyph-name="uni00A0" horiz-adv-x="475" />
<glyph unicode="&#xa1;" glyph-name="exclamdown" horiz-adv-x="697" d="M174 957Q173 1030 224 1081T348 1132Q418 1132 470 1081T523 957Q522 886 470 836T348 784Q275 785 224 835T174 957ZM186 -377L215 666H482L510 -377H186Z" />
<glyph unicode="&#xa2;" glyph-name="cent" horiz-adv-x="1203" d="M567 0V171Q413 184 304 259T137 459T79 744Q79 905 138 1030T306 1230T567 1319V1490H686V1320Q880 1304 999 1190T1127 894H835Q824 963 786 1011T686 1074V417Q745 432 784 479T835 600H1127Q1117
420 1001 303T686 170V0H567ZM394 748Q394 614 440 529T567 419V1071Q487 1047 441 965T394 748Z" />
<glyph unicode="&#xa3;" glyph-name="sterling" horiz-adv-x="1376" d="M1227 0H145V260H239Q287 270 301 322T314 432L308 592H140V840H300L292 1068Q287 1210 347 1308T515 1458T759 1510Q911 1510 1018 1455T1180 1303T1229 1080L935 1088Q937 1180 886 1219T764
1258Q696 1258 649 1211T602 1068L610 840H938V592H620L625 450Q631 332 568 260H1227V0Z" />
<glyph unicode="&#xa5;" glyph-name="yen" horiz-adv-x="1171" d="M352 1490L586 917L820 1490H1143L811 768H1032V588H737V480H1032V300H737V0H426V300H109V480H426V588H109V768H360L30 1490H352Z" />
<glyph unicode="&#xa7;" glyph-name="section" horiz-adv-x="1214" d="M1022 1120H749Q748 1176 710 1213T597 1252Q539 1251 496 1226T452 1148Q452 1096 500 1058T591 1003L870 874Q899 861 940 837T1020 773T1083 676T1100 538Q1094 478 1062 436T990 370T916
335L912 333Q1037 223 1037 62Q1037 -52 981 -133T827 -258T606 -301Q472 -301 370 -252T211 -113T154 98H427Q427 30 476 -7T610 -40Q666 -38 713 -15T762 62Q761 119 715 153T628 207L349 334Q319 347 277 371T196 436T134 534T117 672Q122 733 152 774T223 841T301
876V878Q246 932 212 997T178 1148Q178 1252 231 1334T379 1463T597 1510Q724 1510 819 1460T967 1321T1022 1120ZM370 687Q364 649 395 615T488 555L730 447Q765 431 802 454T845 523Q855 601 728 654L484 764Q445 782 410 758T370 687Z" />
<glyph unicode="&#xa8;" glyph-name="dieresis" horiz-adv-x="1092" d="M768 1270Q706 1270 661 1313T616 1418Q616 1480 661 1523T768 1566Q831 1566 875 1523T920 1418Q920 1357 876 1314T768 1270ZM172 1418Q172 1480 216 1523T324 1566Q387 1566 431 1523T476
1418Q476 1357 432 1314T324 1270Q261 1270 217 1313T172 1418Z" />
<glyph unicode="&#xa9;" glyph-name="copyright" horiz-adv-x="1874" d="M936 -24Q778 -24 639 36T393 201T228 446T168 744Q169 903 229 1042T394 1287T639 1452T936 1512Q1096 1512 1235 1453T1479 1288T1644 1043T1704 744Q1705 585 1646 446T1481 202T1236
36T936 -24ZM411 744Q411 600 481 481T671 290T936 219Q1082 219 1202 290T1393 480T1463 744Q1463 890 1392 1009T1202 1200T936 1271Q792 1271 673 1200T483 1009T411 744ZM532 744Q532 858 587 951T736 1099T943 1154Q1042 1155 1126 1112T1264 993T1330 824H1115Q1104
879 1055 913T943 948Q859 948 799 889T739 745Q739 661 799 602T943 542Q1005 542 1051 576T1108 665H1324Q1313 571 1260 497T1125 379T943 335Q830 335 737 390T588 539T532 744Z" />
<glyph unicode="&#xaa;" glyph-name="ordfeminine" horiz-adv-x="998" d="M168 920Q168 1031 255 1090T520 1151H624V1202Q624 1329 504 1330Q437 1329 400 1304T362 1230L184 1244Q184 1345 271 1411T504 1478Q639 1478 721 1409T803 1202V888Q803 845 808 799T831
705H649Q638 739 632 774Q601 740 549 716T423 692Q301 692 235 754T168 920ZM349 924Q349 884 378 860T468 836Q510 836 553 855T624 899V1034H520Q432 1034 391 1001T349 924Z" />
<glyph unicode="&#xab;" glyph-name="guillemotleft" horiz-adv-x="1366" d="M489 144L88 616L489 1088H816L422 616L816 144H489ZM965 144L564 616L965 1088H1292L898 616L1292 144H965Z" />
<glyph unicode="&#xae;" glyph-name="registered" horiz-adv-x="1360" d="M98 928Q98 1048 143 1153T268 1339T453 1464T679 1510Q800 1510 905 1465T1091 1339T1216 1154T1261 928Q1261 808 1216 703T1091 517T906 392T679 346Q559 346 454 391T268 517T143 702T98
928ZM251 928Q251 810 309 713T464 558T679 500Q798 500 895 557T1050 712T1108 928Q1108 1046 1050 1143T895 1298T679 1356Q561 1356 464 1298T309 1143T251 928ZM469 666V1202H731Q808 1203 862 1157T918 1026Q917 972 894 934T832 873L935 666H781L698 847H608V666H469ZM608
948H696Q727 948 749 967T771 1026Q771 1065 749 1082T696 1100H608V948Z" />
<glyph unicode="&#xaf;" glyph-name="overscore" horiz-adv-x="1156" d="M933 1490V1321H224V1490H933Z" />
<glyph unicode="&#xb0;" glyph-name="degree" horiz-adv-x="941" d="M471 785Q372 785 291 833T162 962T113 1142Q114 1241 162 1322T291 1451T471 1500Q570 1500 651 1452T780 1322T828 1142Q828 1044 780 963T651 833T471 785ZM320 1142Q320 1080 364 1036T471
991Q533 991 577 1035T622 1142Q621 1204 577 1248T471 1292Q408 1293 364 1249T320 1142Z" />
<glyph unicode="&#xb4;" glyph-name="acute" horiz-adv-x="952" d="M261 1257L400 1562H684L476 1257H261Z" />
<glyph unicode="&#xb6;" glyph-name="paragraph" horiz-adv-x="1248" d="M100 1022Q100 1156 158 1261T329 1428T606 1490H1119V0H872V1251H692V552H606Q442 553 329 614T158 781T100 1022Z" />
<glyph unicode="&#xb7;" glyph-name="middot" horiz-adv-x="691" d="M346 531Q272 531 221 581T170 705Q170 779 221 829T346 879Q420 879 471 829T522 705Q522 632 471 582T346 531Z" />
<glyph unicode="&#xb8;" glyph-name="cedilla" horiz-adv-x="767" d="M313 6H456L444 -58Q519 -69 567 -113T616 -235Q616 -343 515 -407T230 -471L228 -333Q320 -333 372 -311T426 -242Q429 -160 281 -142L313 6Z" />
<glyph unicode="&#xba;" glyph-name="ordmasculine" horiz-adv-x="993" d="M140 1044V1121Q139 1277 236 1377T496 1478Q662 1478 757 1378T853 1121V1044Q853 890 759 790T499 691Q333 690 236 790T140 1044ZM319 1044Q319 955 364 897T499 838Q587 838 630 896T674
1044V1121Q673 1208 630 1268T496 1330Q408 1329 364 1269T319 1121V1044Z" />
<glyph unicode="&#xbb;" glyph-name="guillemotright" horiz-adv-x="1366" d="M74 144L468 616L74 1088H401L802 616L401 144H74ZM550 144L944 616L550 1088H877L1278 616L877 144H550Z" />
<glyph unicode="&#xbf;" glyph-name="questiondown" horiz-adv-x="1153" d="M793 -234L721 -247H681L645 -243L633 -247L629 -230L573 -234L561 -230L557 -234H553L533 -225L521 -230L517 -225H513L497 -230Q446 -222 389 -155Q389 -138 353 -138Q305 -129 305
-120V-103H309Q343 -121 381 -125L389 -133Q389 -124 425 -120L489 -55H485Q464 -55 393 -120H389V-116Q433 -69 433 -50Q469 139 501 182Q585 309 637 339Q625 375 625 400L629 405V409L625 414V427H629L625 457Q625 563 661 663Q670 663 677 702Q694 746 749
834H753L749 812V729L797 440L801 414L797 409L809 396Q800 395 773 309Q761 309 753 291V256Q753 232 717 160V164Q617 81 557 42Q469 -37 469 -46V-50L513 -37L517 -41H521L525 -37H529L761 -103L785 -107Q901 42 953 42L945 81L957 208Q934 180 861 33L821 -2L813
7H805L785 2L781 7L753 -37L749 -24L773 15V46Q773 113 889 208L957 239L953 269L957 274H961Q1026 168 1033 112L1037 107L1033 103Q1037 42 1049 42L1089 29L1145 85L1153 72V68L1089 2Q1089 -104 993 -151Q881 -234 793 -234ZM745 -216H741Q722 -225 721 -234H733Q733
-221 745 -221V-216ZM797 -190H793L765 -225H769L797 -195V-190ZM849 -164Q829 -171 801 -216V-221H809Q816 -221 849 -168V-164ZM701 -203Q677 -213 677 -221H685Q709 -210 709 -203H701ZM597 -212Q583 -212 521 -155H493Q546 -211 597 -221V-212ZM545 -212Q505
-190 457 -146H437Q453 -180 517 -212V-216L521 -212L541 -216H545V-212ZM901 -138L897 -133Q884 -133 837 -216H841Q865 -216 901 -138ZM653 -212Q638 -212 573 -164H553Q566 -186 633 -216H653V-212ZM485 -208Q476 -208 405 -138H393Q428 -199 481 -212H485V-208ZM685
-195L653 -177L605 -164H601V-168Q646 -200 673 -208Q673 -199 685 -199V-195ZM765 -181H741L713 -190V-195L737 -199L765 -190V-181ZM945 -103Q925 -112 925 -133L897 -181V-190Q923 -174 949 -103H945ZM709 -181Q709 -170 665 -164H661V-168L697 -186L709 -181ZM817
-160L757 -146L745 -164L789 -177L817 -164V-160ZM1001 -59Q980 -59 937 -168L933 -173H937Q962 -160 1001 -63V-59ZM757 -116L733 -111Q701 -125 689 -151H717Q738 -120 757 -120V-116ZM721 -103L685 -98L637 -133L629 -151H665Q706 -107 721 -107V-103ZM673 -90L641
-81Q641 -93 609 -111L577 -151H605Q652 -98 673 -98V-90ZM873 -133Q873 -122 817 -116L801 -120L793 -111L777 -133L837 -146L873 -133ZM633 -76L605 -68Q572 -88 525 -146H557Q619 -81 633 -81V-76ZM1041 -24Q1033 -24 985 -138V-142Q1017 -119 1017 -98Q1028
-98 1045 -24H1041ZM593 -63L565 -59L513 -94Q481 -129 473 -129V-138H513Q571 -68 593 -68V-63ZM553 -50H549L533 -55L521 -50Q473 -83 433 -129L457 -133Q525 -55 553 -55V-50ZM917 -98L841 -81H829V-72H825L805 -103H809L813 -98L901 -116Q901 -107 917 -107V-98ZM1077
2Q1064 2 1057 -50L1033 -107H1037Q1077 -58 1077 -20V2ZM961 -68L857 -41Q846 -44 837 -63L937 -85Q961 -74 961 -68ZM1005 -28L901 -15H893Q874 -15 869 -33H873L877 -28H881L973 -55Q1001 -43 1005 -28ZM457 -37H453V-46H457V-37ZM509 50L505 55H501Q501 41
485 24Q485 -6 469 -6L457 -33H469Q469 -22 505 15L509 50ZM449 -20H445V-28H449V-20ZM1037 -2L917 15Q917 7 905 7V2L1021 -15H1025L1037 -2ZM477 42Q465 20 453 20V11H457Q473 21 481 42H477ZM1069 24L989 37L977 33L973 37H969L949 33V29Q1033 22 1033 11H1049L1069
15V24ZM809 20H801V24L789 20V15H809V20ZM821 24H813L821 15V24ZM537 107H533L517 68L521 42L513 20H517L537 42V107ZM853 46H837L825 42V46L805 42V37H821L853 42V46ZM577 129L573 151Q561 146 545 112L553 72L549 46L573 68L569 72V77L577 112V129ZM993 55Q993
64 961 90Q961 82 993 50V55ZM505 85L465 55V50Q500 66 505 81V85ZM801 68H797V55H801V68ZM861 72L845 68L841 72H837Q817 67 817 59H837Q866 59 869 72H861ZM613 125L605 190H601Q594 190 585 164L589 112L585 77H589L613 94L609 99V103L613 125ZM805 85H801V77H805V85ZM993
85L965 112Q965 103 993 81V85ZM537 134L477 103V85Q530 112 537 134ZM821 94H817V85H821V94ZM885 99H881L877 94L857 99H845L837 90V85H845L873 90L877 85L885 99ZM1025 99H1021V90H1025V99ZM825 107H821V99H825V107ZM809 107H805V99H809V107ZM649 160L641 230L617
204L625 129L621 103H625Q646 103 649 160ZM897 125Q857 121 857 112H865Q897 114 897 125ZM989 112L965 138Q970 120 985 112H989ZM577 182H573Q485 154 485 125V120L565 164L577 182ZM685 221L681 274Q653 255 653 230L661 173V155L657 134H665L681 147L677 160L685
199V221ZM985 142L965 164V155Q977 155 977 142L981 138H985V142ZM909 151L905 147H897L893 151L877 147V138H901L909 147V151ZM1013 151H1009V142H1013V151ZM865 155H861V142H865V155ZM717 243L713 278V304L693 287L697 199L689 160V155H693Q693 167 709 177L717
243ZM869 169H865V160H869V169ZM921 173H901V164L905 169H909L921 164V173ZM1005 177H997V164H1001L1005 177ZM873 182H869V173H873V182ZM977 182L973 186H969V182L973 177H977V182ZM609 225Q517 202 517 177H521Q612 210 613 225H609ZM933 195H925V190H933V195ZM973
212H969V204H973V212ZM745 295L741 330H737L721 317L725 252V208H729Q745 247 745 295ZM653 269H649Q588 262 541 221V217L637 247L653 269ZM697 313H693Q648 313 593 282Q593 271 573 269V260H577L693 304L697 309V313ZM785 379H781L749 326L753 313Q770 321 785
374V379ZM725 344L709 348L705 344H701L697 348L693 344H689L685 348L617 317V313H621L673 326V322Q725 332 725 344ZM653 352Q641 369 641 383H637V370Q642 344 649 344H653V352ZM685 357Q641 437 641 449H633Q652 352 673 352L685 357ZM789 440H785Q785 419 729
357H737L789 414L785 418V422L789 435V440ZM785 457L781 488H777Q777 467 705 396V365L713 357Q762 417 785 457ZM693 400L645 501V505H637V501Q637 471 689 374V370H693V400ZM781 505L773 536H769Q769 521 701 453V414H705L765 479Q765 498 781 505ZM689 475Q649
548 649 567H645V549Q645 518 685 444H689V475ZM765 549L761 593H757Q757 561 701 505V475Q763 539 765 549ZM693 510Q693 528 661 624L653 615V610Q653 569 685 505L689 510H693ZM757 602L753 632H749Q749 625 705 575L701 532Q732 552 757 602ZM693 602L677 667H673Q673
650 665 650L689 571H693V602ZM749 650L745 680H741Q741 661 709 632L705 602Q723 612 749 650ZM701 645L693 707H689L685 689L693 637H701V645ZM741 720H733Q713 685 713 659L741 694V720ZM709 729L701 737V707L709 698V729ZM741 755L737 768H733L729 733H733L737
737H741L737 742V746L741 750V755ZM721 764H717V750H721V764ZM905 956V952L865 960Q785 946 785 921L769 912L765 917L729 908Q658 908 557 991H553V995Q553 1002 593 1026V1039H601V1035L597 1030V1022H601L625 1070V1074L601 1048V1057Q613 1086 677 1105Q677
1112 697 1118Q802 1118 905 956ZM733 965Q726 965 697 921H705Q733 949 733 965ZM745 969Q745 954 721 921H725Q745 933 761 969H745ZM785 978H781L749 925H761L785 978ZM709 960Q693 960 673 925H681Q700 935 709 956V960ZM801 982H797L777 934V930Q801 944 801
978V982ZM669 956L653 939V934H657Q674 940 681 956H669ZM653 960H649L633 952V947H641L653 952V960ZM817 965L809 974L805 969V960H817V965ZM833 974Q825 974 825 987H813L825 965L833 974ZM853 974L845 995H841L833 987Q844 987 845 969H853V974ZM877 974L861
978V969H877V974ZM693 969L685 978H681V969H693ZM717 974L705 987H697L709 974H717ZM637 978L605 1013H601V1009Q601 992 637 978ZM609 987H597L605 978H609V987ZM741 978L717 1004L713 1000V995L729 978H741ZM673 982Q658 982 621 1022L617 1017V1013Q652 978
665 978H673V982ZM765 987L741 1013H729Q745 982 753 982H765V987ZM685 995Q677 995 645 1030H641L633 1022Q670 987 685 987V995ZM597 1000L589 1009L569 1000V991L589 995L593 991L597 995V1000ZM781 991L753 1026H749V1022L769 991H781ZM797 1000L765 1035V1030Q785
998 797 995V1000ZM705 1004L669 1039H657V1035Q673 1007 701 995L705 1000V1004ZM817 1009H805V1000H817V1009ZM857 1013H845L853 1004H857V1013ZM725 1013Q693 1048 681 1048V1044Q699 1013 721 1013H725ZM841 1030H829L817 1026V1017H821L841 1026V1030ZM741
1026L717 1052H701Q715 1026 737 1026H741ZM653 1083H649Q629 1069 613 1030H617L653 1083ZM821 1044L813 1052Q796 1052 789 1030H801L821 1044ZM757 1044L737 1057H729Q736 1041 753 1035L757 1039V1044ZM681 1092H677Q668 1092 641 1048V1044H653Q653 1058 681
1092ZM773 1048L761 1061H753V1052L773 1048ZM789 1052L781 1061V1052H789ZM697 1092Q681 1084 665 1052H669L697 1092ZM721 1096Q702 1083 689 1061H693Q702 1061 725 1096H721ZM741 1092Q713 1073 713 1065H717Q734 1073 741 1087V1092ZM761 1083H757L741 1070H745L761
1079V1083Z" />
<glyph unicode="&#xc0;" glyph-name="Agrave" horiz-adv-x="1530" d="M386 0H48L563 1490H968L1482 0H1145L1034 340H496L386 0ZM576 586H954L771 1150H759L576 586ZM663 1629L456 1934H739L879 1629H663Z" />
<glyph unicode="&#xc1;" glyph-name="Aacute" horiz-adv-x="1530" d="M386 0H48L563 1490H968L1482 0H1145L1034 340H496L386 0ZM576 586H954L771 1150H759L576 586ZM651 1629L790 1934H1074L866 1629H651Z" />
<glyph unicode="&#xc2;" glyph-name="Acircumflex" horiz-adv-x="1530" d="M386 0H48L563 1490H968L1482 0H1145L1034 340H496L386 0ZM576 586H954L771 1150H759L576 586ZM910 1622L764 1800L619 1622H354V1633L649 1954H880L1174 1633V1622H910Z" />
<glyph unicode="&#xc3;" glyph-name="Atilde" horiz-adv-x="1530" d="M386 0H48L563 1490H968L1482 0H1145L1034 340H496L386 0ZM576 586H954L771 1150H759L576 586ZM907 1640Q842 1640 796 1666T715 1719T648 1745Q617 1745 601 1718T582 1646H414Q417 1776 474
1845T626 1915Q692 1915 736 1889T815 1837T884 1811Q919 1811 934 1836T953 1910H1118Q1116 1780 1057 1710T907 1640Z" />
<glyph unicode="&#xc4;" glyph-name="Adieresis" horiz-adv-x="1530" d="M386 0H48L563 1490H968L1482 0H1145L1034 340H496L386 0ZM576 586H954L771 1150H759L576 586ZM987 1642Q925 1642 880 1685T835 1790Q835 1852 880 1895T987 1938Q1050 1938 1094 1895T1139
1790Q1139 1729 1095 1686T987 1642ZM391 1790Q391 1852 435 1895T543 1938Q606 1938 650 1895T695 1790Q695 1729 651 1686T543 1642Q480 1642 436 1685T391 1790Z" />
<glyph unicode="&#xc5;" glyph-name="Aring" horiz-adv-x="1530" d="M386 0H48L563 1490H968L1482 0H1145L1034 340H496L386 0ZM576 586H954L771 1150H759L576 586ZM765 1576Q672 1575 607 1639T542 1795Q541 1885 606 1949T765 2014Q858 2013 923 1949T988 1795Q989
1704 924 1640T765 1576ZM668 1795Q667 1755 696 1727T765 1700Q806 1700 834 1727T863 1795Q863 1834 835 1861T765 1889Q725 1889 696 1862T668 1795Z" />
<glyph unicode="&#xc6;" glyph-name="AE" horiz-adv-x="2109" d="M48 0L686 1490H1989V1230H1300V875H1937V616H1300V260H1991V0H985V340H535L395 0H48ZM636 586H985V1180H881L636 586Z" />
<glyph unicode="&#xc7;" glyph-name="Ccedilla" horiz-adv-x="1540" d="M797 -20Q598 -20 441 70T194 331T103 744Q103 988 194 1159T443 1420T797 1510Q970 1510 1108 1446T1335 1261T1443 968H1125Q1107 1091 1020 1161T804 1232Q632 1232 527 1105T422 744Q422
506 527 382T803 258Q928 258 1015 324T1125 509H1443Q1426 372 1346 251T1127 55T797 -20ZM719 5H862L850 -59Q925 -70 973 -114T1022 -236Q1022 -344 921 -408T636 -472L634 -334Q726 -334 778 -312T832 -243Q835 -161 687 -143L719 5Z" />
<glyph unicode="&#xc8;" glyph-name="Egrave" horiz-adv-x="1254" d="M130 0V1490H1134V1230H444V880H1081V625H444V260H1136V0H130ZM531 1629L324 1934H607L747 1629H531Z" />
<glyph unicode="&#xc9;" glyph-name="Eacute" horiz-adv-x="1254" d="M130 0V1490H1134V1230H444V880H1081V625H444V260H1136V0H130ZM520 1629L659 1934H943L735 1629H520Z" />
<glyph unicode="&#xca;" glyph-name="Ecircumflex" horiz-adv-x="1254" d="M130 0V1490H1134V1230H444V880H1081V625H444V260H1136V0H130ZM779 1622L633 1800L488 1622H223V1633L518 1954H749L1043 1633V1622H779Z" />
<glyph unicode="&#xcb;" glyph-name="Edieresis" horiz-adv-x="1254" d="M130 0V1490H1134V1230H444V880H1081V625H444V260H1136V0H130ZM855 1642Q793 1642 748 1685T703 1790Q703 1852 748 1895T855 1938Q918 1938 962 1895T1007 1790Q1007 1729 963 1686T855
1642ZM259 1790Q259 1852 303 1895T411 1938Q474 1938 518 1895T563 1790Q563 1729 519 1686T411 1642Q348 1642 304 1685T259 1790Z" />
<glyph unicode="&#xcc;" glyph-name="Igrave" horiz-adv-x="574" d="M444 1490V0H130V1490H444ZM185 1629L-22 1934H261L401 1629H185Z" />
<glyph unicode="&#xcd;" glyph-name="Iacute" horiz-adv-x="574" d="M444 1490V0H130V1490H444ZM174 1629L313 1934H597L389 1629H174Z" />
<glyph unicode="&#xce;" glyph-name="Icircumflex" horiz-adv-x="574" d="M444 1490V0H130V1490H444ZM433 1622L287 1800L142 1622H-123V1633L172 1954H403L697 1633V1622H433Z" />
<glyph unicode="&#xcf;" glyph-name="Idieresis" horiz-adv-x="574" d="M444 1490V0H130V1490H444ZM509 1642Q447 1642 402 1685T357 1790Q357 1852 402 1895T509 1938Q572 1938 616 1895T661 1790Q661 1729 617 1686T509 1642ZM-87 1790Q-87 1852 -43 1895T65
1938Q128 1938 172 1895T217 1790Q217 1729 173 1686T65 1642Q2 1642 -42 1685T-87 1790Z" />
<glyph unicode="&#xd0;" glyph-name="Eth" horiz-adv-x="1489" d="M658 0H130V688H-77V872H130V1490H662Q887 1490 1049 1401T1298 1145T1386 746Q1386 513 1299 346T1048 90T658 0ZM444 270H644Q855 270 964 383T1073 746Q1073 994 964 1107T644 1220H444V872H648V688H444V270Z"
/>
<glyph unicode="&#xd1;" glyph-name="Ntilde" horiz-adv-x="1506" d="M1376 1490V0H1103L456 937H444V0H130V1490H406L1049 553H1062V1490H1376ZM895 1640Q830 1640 784 1666T703 1719T636 1745Q605 1745 589 1718T570 1646H402Q405 1776 462 1845T614 1915Q680
1915 724 1889T803 1837T872 1811Q907 1811 922 1836T941 1910H1106Q1104 1780 1045 1710T895 1640Z" />
<glyph unicode="&#xd2;" glyph-name="Ograve" horiz-adv-x="1601" d="M801 -20Q603 -20 445 70T195 331T103 744Q103 988 195 1159T445 1420T801 1510Q999 1510 1156 1420T1406 1159T1498 744Q1498 500 1406 330T1157 70T801 -20ZM422 744Q422 508 525 383T801
258Q972 258 1075 383T1179 744Q1179 981 1076 1106T801 1232Q629 1232 526 1107T422 744ZM698 1629L491 1934H774L914 1629H698Z" />
<glyph unicode="&#xd3;" glyph-name="Oacute" horiz-adv-x="1601" d="M801 -20Q603 -20 445 70T195 331T103 744Q103 988 195 1159T445 1420T801 1510Q999 1510 1156 1420T1406 1159T1498 744Q1498 500 1406 330T1157 70T801 -20ZM422 744Q422 508 525 383T801
258Q972 258 1075 383T1179 744Q1179 981 1076 1106T801 1232Q629 1232 526 1107T422 744ZM687 1629L826 1934H1110L902 1629H687Z" />
<glyph unicode="&#xd4;" glyph-name="Ocircumflex" horiz-adv-x="1601" d="M801 -20Q603 -20 445 70T195 331T103 744Q103 988 195 1159T445 1420T801 1510Q999 1510 1156 1420T1406 1159T1498 744Q1498 500 1406 330T1157 70T801 -20ZM422 744Q422 508 525 383T801
258Q972 258 1075 383T1179 744Q1179 981 1076 1106T801 1232Q629 1232 526 1107T422 744ZM946 1622L800 1800L655 1622H390V1633L685 1954H916L1210 1633V1622H946Z" />
<glyph unicode="&#xd5;" glyph-name="Otilde" horiz-adv-x="1601" d="M801 -20Q603 -20 445 70T195 331T103 744Q103 988 195 1159T445 1420T801 1510Q999 1510 1156 1420T1406 1159T1498 744Q1498 500 1406 330T1157 70T801 -20ZM422 744Q422 508 525 383T801
258Q972 258 1075 383T1179 744Q1179 981 1076 1106T801 1232Q629 1232 526 1107T422 744ZM942 1640Q877 1640 831 1666T750 1719T683 1745Q652 1745 636 1718T617 1646H449Q452 1776 509 1845T661 1915Q727 1915 771 1889T850 1837T919 1811Q954 1811 969 1836T988
1910H1153Q1151 1780 1092 1710T942 1640Z" />
<glyph unicode="&#xd6;" glyph-name="Odieresis" horiz-adv-x="1601" d="M801 -20Q603 -20 445 70T195 331T103 744Q103 988 195 1159T445 1420T801 1510Q999 1510 1156 1420T1406 1159T1498 744Q1498 500 1406 330T1157 70T801 -20ZM422 744Q422 508 525 383T801
258Q972 258 1075 383T1179 744Q1179 981 1076 1106T801 1232Q629 1232 526 1107T422 744ZM1022 1642Q960 1642 915 1685T870 1790Q870 1852 915 1895T1022 1938Q1085 1938 1129 1895T1174 1790Q1174 1729 1130 1686T1022 1642ZM426 1790Q426 1852 470 1895T578
1938Q641 1938 685 1895T730 1790Q730 1729 686 1686T578 1642Q515 1642 471 1685T426 1790Z" />
<glyph unicode="&#xd7;" glyph-name="multiply" horiz-adv-x="1392" d="M1035 66L696 404L357 66L166 256L504 595L166 932L357 1126L696 786L1035 1126L1225 932L887 595L1225 256L1035 66Z" />
<glyph unicode="&#xd8;" glyph-name="Oslash" horiz-adv-x="1601" d="M337 -72L196 25L304 180Q210 277 157 419T103 744Q103 988 195 1159T445 1420T801 1510Q1004 1510 1164 1416L1263 1559L1404 1461L1298 1309Q1392 1211 1445 1069T1498 744Q1498 500 1406
330T1157 70T801 -20Q597 -20 438 73L337 -72ZM422 744Q422 563 486 442L998 1177Q914 1232 801 1232Q629 1232 526 1107T422 744ZM1179 744Q1179 925 1115 1046L604 312Q688 258 801 258Q972 258 1075 383T1179 744Z" />
<glyph unicode="&#xd9;" glyph-name="Ugrave" horiz-adv-x="1494" d="M1050 1490H1364V524Q1364 361 1287 239T1071 48T747 -20Q561 -20 423 48T207 238T130 524V1490H444V550Q444 422 527 340T747 257Q884 257 967 339T1050 550V1490ZM644 1629L437 1934H720L860
1629H644Z" />
<glyph unicode="&#xda;" glyph-name="Uacute" horiz-adv-x="1494" d="M1050 1490H1364V524Q1364 361 1287 239T1071 48T747 -20Q561 -20 423 48T207 238T130 524V1490H444V550Q444 422 527 340T747 257Q884 257 967 339T1050 550V1490ZM633 1629L772 1934H1056L848
1629H633Z" />
<glyph unicode="&#xdb;" glyph-name="Ucircumflex" horiz-adv-x="1494" d="M1050 1490H1364V524Q1364 361 1287 239T1071 48T747 -20Q561 -20 423 48T207 238T130 524V1490H444V550Q444 422 527 340T747 257Q884 257 967 339T1050 550V1490ZM892 1622L746 1800L601
1622H336V1633L631 1954H862L1156 1633V1622H892Z" />
<glyph unicode="&#xdc;" glyph-name="Udieresis" horiz-adv-x="1494" d="M1050 1490H1364V524Q1364 361 1287 239T1071 48T747 -20Q561 -20 423 48T207 238T130 524V1490H444V550Q444 422 527 340T747 257Q884 257 967 339T1050 550V1490ZM968 1642Q906 1642 861
1685T816 1790Q816 1852 861 1895T968 1938Q1031 1938 1075 1895T1120 1790Q1120 1729 1076 1686T968 1642ZM372 1790Q372 1852 416 1895T524 1938Q587 1938 631 1895T676 1790Q676 1729 632 1686T524 1642Q461 1642 417 1685T372 1790Z" />
<glyph unicode="&#xdd;" glyph-name="Yacute" horiz-adv-x="1484" d="M41 1490H395L734 848H749L1089 1490H1442L898 526V0H585V526L41 1490ZM627 1629L766 1934H1050L842 1629H627Z" />
<glyph unicode="&#xde;" glyph-name="Thorn" horiz-adv-x="1374" d="M126 1490H442V1217H660Q840 1217 964 1157T1152 995T1216 761Q1216 630 1152 528T964 366T660 307H442V0H126V1490ZM442 548H660Q794 549 854 610T916 757Q915 845 855 908T660 973H442V548Z" />
<glyph unicode="&#xdf;" glyph-name="germandbls" horiz-adv-x="1351" d="M130 0V1096Q130 1289 270 1399T642 1510Q787 1510 908 1465T1101 1330T1174 1107Q1174 992 1117 910T958 799V782Q1104 772 1189 670T1275 410Q1275 280 1214 188T1046 48T796 0H600V252H746Q845
252 903 303T961 440Q961 528 897 580T721 633H606V874H683Q762 874 809 930T856 1062Q856 1143 803 1196T652 1250Q557 1250 499 1196T440 1050V0H130Z" />
<glyph unicode="&#xe0;" glyph-name="agrave" horiz-adv-x="1196" d="M443 -21Q283 -21 178 62T72 312Q72 437 130 508T285 613T491 657Q637 671 699 686T762 756V761Q762 830 718 868T591 906Q508 906 456 870T386 778L104 823Q144 969 272 1050T592 1132Q716
1132 825 1093T1003 971T1071 754V0H778V156H769Q728 77 648 28T443 -21ZM367 322Q367 258 413 226T531 193Q633 193 698 252T764 399V518Q746 506 708 496T626 480T549 468Q467 456 417 422T367 322ZM505 1257L298 1562H581L721 1257H505Z" />
<glyph unicode="&#xe1;" glyph-name="aacute" horiz-adv-x="1196" d="M443 -21Q283 -21 178 62T72 312Q72 437 130 508T285 613T491 657Q637 671 699 686T762 756V761Q762 830 718 868T591 906Q508 906 456 870T386 778L104 823Q144 969 272 1050T592 1132Q716
1132 825 1093T1003 971T1071 754V0H778V156H769Q728 77 648 28T443 -21ZM367 322Q367 258 413 226T531 193Q633 193 698 252T764 399V518Q746 506 708 496T626 480T549 468Q467 456 417 422T367 322ZM494 1257L633 1562H917L709 1257H494Z" />
<glyph unicode="&#xe2;" glyph-name="acircumflex" horiz-adv-x="1196" d="M443 -21Q283 -21 178 62T72 312Q72 437 130 508T285 613T491 657Q637 671 699 686T762 756V761Q762 830 718 868T591 906Q508 906 456 870T386 778L104 823Q144 969 272 1050T592 1132Q716
1132 825 1093T1003 971T1071 754V0H778V156H769Q728 77 648 28T443 -21ZM367 322Q367 258 413 226T531 193Q633 193 698 252T764 399V518Q746 506 708 496T626 480T549 468Q467 456 417 422T367 322ZM753 1250L607 1428L462 1250H197V1261L492 1582H723L1017 1261V1250H753Z"
/>
<glyph unicode="&#xe3;" glyph-name="atilde" horiz-adv-x="1196" d="M443 -21Q283 -21 178 62T72 312Q72 437 130 508T285 613T491 657Q637 671 699 686T762 756V761Q762 830 718 868T591 906Q508 906 456 870T386 778L104 823Q144 969 272 1050T592 1132Q716
1132 825 1093T1003 971T1071 754V0H778V156H769Q728 77 648 28T443 -21ZM367 322Q367 258 413 226T531 193Q633 193 698 252T764 399V518Q746 506 708 496T626 480T549 468Q467 456 417 422T367 322ZM749 1259Q684 1259 638 1285T557 1338T490 1364Q459 1364 443
1337T424 1265H256Q259 1395 316 1464T468 1534Q534 1534 578 1508T657 1456T726 1430Q761 1430 776 1455T795 1529H960Q958 1399 899 1329T749 1259Z" />
<glyph unicode="&#xe4;" glyph-name="adieresis" horiz-adv-x="1196" d="M443 -21Q283 -21 178 62T72 312Q72 437 130 508T285 613T491 657Q637 671 699 686T762 756V761Q762 830 718 868T591 906Q508 906 456 870T386 778L104 823Q144 969 272 1050T592 1132Q716
1132 825 1093T1003 971T1071 754V0H778V156H769Q728 77 648 28T443 -21ZM367 322Q367 258 413 226T531 193Q633 193 698 252T764 399V518Q746 506 708 496T626 480T549 468Q467 456 417 422T367 322ZM829 1270Q767 1270 722 1313T677 1418Q677 1480 722 1523T829
1566Q892 1566 936 1523T981 1418Q981 1357 937 1314T829 1270ZM233 1418Q233 1480 277 1523T385 1566Q448 1566 492 1523T537 1418Q537 1357 493 1314T385 1270Q322 1270 278 1313T233 1418Z" />
<glyph unicode="&#xe5;" glyph-name="aring" horiz-adv-x="1196" d="M443 -21Q283 -21 178 62T72 312Q72 437 130 508T285 613T491 657Q637 671 699 686T762 756V761Q762 830 718 868T591 906Q508 906 456 870T386 778L104 823Q144 969 272 1050T592 1132Q716
1132 825 1093T1003 971T1071 754V0H778V156H769Q728 77 648 28T443 -21ZM367 322Q367 258 413 226T531 193Q633 193 698 252T764 399V518Q746 506 708 496T626 480T549 468Q467 456 417 422T367 322ZM608 1237Q539 1237 483 1269T393 1355T360 1476Q360 1542 393
1597T482 1684T608 1717Q677 1717 733 1685T823 1597T856 1476Q856 1410 823 1356T734 1269T608 1237ZM495 1476Q495 1433 527 1400T608 1366Q656 1367 689 1400T722 1476Q722 1520 689 1553T608 1586Q560 1586 528 1553T495 1476Z" />
<glyph unicode="&#xe6;" glyph-name="ae" horiz-adv-x="1871" d="M1298 -22Q1162 -22 1055 31T892 182H884Q839 89 721 34T460 -21Q287 -21 180 63T72 312Q72 437 131 508T285 613T491 657Q637 671 699 687T761 756V761Q761 830 718 868T596 906Q514 906 463 870T397
777L111 800Q143 952 269 1042T602 1132Q694 1132 783 1101T921 987Q1048 1132 1268 1132Q1416 1132 1534 1069T1722 880T1792 564V480H1032V478Q1032 354 1100 282T1284 209Q1362 209 1419 242T1499 338L1785 319Q1753 165 1621 72T1298 -22ZM1032 671H1501Q1500
772 1437 836T1273 901Q1170 901 1104 834T1032 671ZM367 322Q367 258 413 226T531 193Q633 193 698 252T764 399V518Q745 506 707 496T626 480T549 468Q467 456 417 422T367 322Z" />
<glyph unicode="&#xe7;" glyph-name="ccedilla" horiz-adv-x="1203" d="M628 -22Q456 -22 333 51T145 254T79 554Q79 726 145 856T335 1059T627 1132Q773 1132 883 1079T1057 930T1127 704H835Q822 787 770 838T632 890Q524 890 459 804T394 558Q394 398 458 309T632
220Q712 220 767 270T835 410H1127Q1120 282 1058 185T887 33T628 -22ZM555 6H698L686 -58Q761 -69 809 -113T858 -235Q858 -343 757 -407T472 -471L470 -333Q562 -333 614 -311T668 -242Q671 -160 523 -142L555 6Z" />
<glyph unicode="&#xe8;" glyph-name="egrave" horiz-adv-x="1220" d="M633 -22Q461 -22 337 48T146 247T79 554Q79 726 145 856T333 1059T618 1132Q766 1132 885 1069T1075 880T1146 564V480H384Q389 353 458 281T638 209Q715 209 770 242T850 338L1136 319Q1103
165 972 72T633 -22ZM386 671H849Q838 777 781 839T621 901Q517 901 457 837T386 671ZM511 1257L304 1562H587L727 1257H511Z" />
<glyph unicode="&#xe9;" glyph-name="eacute" horiz-adv-x="1220" d="M633 -22Q461 -22 337 48T146 247T79 554Q79 726 145 856T333 1059T618 1132Q766 1132 885 1069T1075 880T1146 564V480H384Q389 353 458 281T638 209Q715 209 770 242T850 338L1136 319Q1103
165 972 72T633 -22ZM386 671H849Q838 777 781 839T621 901Q517 901 457 837T386 671ZM499 1257L638 1562H922L714 1257H499Z" />
<glyph unicode="&#xea;" glyph-name="ecircumflex" horiz-adv-x="1220" d="M633 -22Q461 -22 337 48T146 247T79 554Q79 726 145 856T333 1059T618 1132Q766 1132 885 1069T1075 880T1146 564V480H384Q389 353 458 281T638 209Q715 209 770 242T850 338L1136 319Q1103
165 972 72T633 -22ZM386 671H849Q838 777 781 839T621 901Q517 901 457 837T386 671ZM758 1250L612 1428L467 1250H202V1261L497 1582H728L1022 1261V1250H758Z" />
<glyph unicode="&#xeb;" glyph-name="edieresis" horiz-adv-x="1220" d="M633 -22Q461 -22 337 48T146 247T79 554Q79 726 145 856T333 1059T618 1132Q766 1132 885 1069T1075 880T1146 564V480H384Q389 353 458 281T638 209Q715 209 770 242T850 338L1136 319Q1103
165 972 72T633 -22ZM386 671H849Q838 777 781 839T621 901Q517 901 457 837T386 671ZM835 1270Q773 1270 728 1313T683 1418Q683 1480 728 1523T835 1566Q898 1566 942 1523T987 1418Q987 1357 943 1314T835 1270ZM239 1418Q239 1480 283 1523T391 1566Q454 1566
498 1523T543 1418Q543 1357 499 1314T391 1270Q328 1270 284 1313T239 1418Z" />
<glyph unicode="&#xec;" glyph-name="igrave" horiz-adv-x="558" d="M124 0V1118H434V0H124ZM176 1257L-31 1562H252L392 1257H176Z" />
<glyph unicode="&#xed;" glyph-name="iacute" horiz-adv-x="558" d="M124 0V1118H434V0H124ZM421 1257L560 1562H844L636 1257H421Z" />
<glyph unicode="&#xee;" glyph-name="icircumflex" horiz-adv-x="558" d="M124 0V1118H434V0H124ZM424 1250L278 1428L133 1250H-132V1261L163 1582H394L688 1261V1250H424Z" />
<glyph unicode="&#xef;" glyph-name="idieresis" horiz-adv-x="558" d="M124 0V1118H434V0H124ZM500 1270Q438 1270 393 1313T348 1418Q348 1480 393 1523T500 1566Q563 1566 607 1523T652 1418Q652 1357 608 1314T500 1270ZM-96 1418Q-96 1480 -52 1523T56 1566Q119
1566 163 1523T208 1418Q208 1357 164 1314T56 1270Q-7 1270 -51 1313T-96 1418Z" />
<glyph unicode="&#xf0;" glyph-name="eth" horiz-adv-x="1228" d="M952 1403L788 1319Q948 1186 1048 997T1149 572Q1149 391 1084 257T897 50T610 -24Q450 -23 331 44T145 232T79 512Q79 660 136 778T295 965T532 1035Q634 1034 706 994T822 901H838Q799 986
733 1065T581 1214L270 1055L250 1196L458 1302Q361 1363 255 1406L286 1571Q385 1547 482 1506T667 1408L932 1543L952 1403ZM374 530Q374 394 435 304T617 214Q733 214 797 300T862 525Q862 612 836 683T755 797T617 840Q496 840 435 753T374 530Z" />
<glyph unicode="&#xf1;" glyph-name="ntilde" horiz-adv-x="1278" d="M434 646V0H124V1118H429V919H440Q478 1017 561 1074T768 1132Q943 1132 1048 1020T1154 711V0H844V656Q844 759 792 817T646 875Q552 875 493 815T434 646ZM779 1259Q714 1259 668 1285T587
1338T520 1364Q489 1364 473 1337T454 1265H286Q289 1395 346 1464T498 1534Q564 1534 608 1508T687 1456T756 1430Q791 1430 806 1455T825 1529H990Q988 1399 929 1329T779 1259Z" />
<glyph unicode="&#xf2;" glyph-name="ograve" horiz-adv-x="1257" d="M628 -22Q459 -22 336 50T146 252T79 554Q79 727 145 857T335 1059T628 1132Q798 1132 921 1060T1111 857T1178 554Q1178 382 1112 253T922 51T628 -22ZM394 556Q394 410 453 315T629 220Q745
220 804 315T863 556Q863 702 804 796T629 890Q512 890 453 796T394 556ZM525 1257L318 1562H601L741 1257H525Z" />
<glyph unicode="&#xf3;" glyph-name="oacute" horiz-adv-x="1257" d="M628 -22Q459 -22 336 50T146 252T79 554Q79 727 145 857T335 1059T628 1132Q798 1132 921 1060T1111 857T1178 554Q1178 382 1112 253T922 51T628 -22ZM394 556Q394 410 453 315T629 220Q745
220 804 315T863 556Q863 702 804 796T629 890Q512 890 453 796T394 556ZM514 1257L653 1562H937L729 1257H514Z" />
<glyph unicode="&#xf4;" glyph-name="ocircumflex" horiz-adv-x="1257" d="M628 -22Q459 -22 336 50T146 252T79 554Q79 727 145 857T335 1059T628 1132Q798 1132 921 1060T1111 857T1178 554Q1178 382 1112 253T922 51T628 -22ZM394 556Q394 410 453 315T629
220Q745 220 804 315T863 556Q863 702 804 796T629 890Q512 890 453 796T394 556ZM773 1250L627 1428L482 1250H217V1261L512 1582H743L1037 1261V1250H773Z" />
<glyph unicode="&#xf5;" glyph-name="otilde" horiz-adv-x="1257" d="M628 -22Q459 -22 336 50T146 252T79 554Q79 727 145 857T335 1059T628 1132Q798 1132 921 1060T1111 857T1178 554Q1178 382 1112 253T922 51T628 -22ZM394 556Q394 410 453 315T629 220Q745
220 804 315T863 556Q863 702 804 796T629 890Q512 890 453 796T394 556ZM769 1259Q704 1259 658 1285T577 1338T510 1364Q479 1364 463 1337T444 1265H276Q279 1395 336 1464T488 1534Q554 1534 598 1508T677 1456T746 1430Q781 1430 796 1455T815 1529H980Q978
1399 919 1329T769 1259Z" />
<glyph unicode="&#xf6;" glyph-name="odieresis" horiz-adv-x="1257" d="M628 -22Q459 -22 336 50T146 252T79 554Q79 727 145 857T335 1059T628 1132Q798 1132 921 1060T1111 857T1178 554Q1178 382 1112 253T922 51T628 -22ZM394 556Q394 410 453 315T629 220Q745
220 804 315T863 556Q863 702 804 796T629 890Q512 890 453 796T394 556ZM849 1270Q787 1270 742 1313T697 1418Q697 1480 742 1523T849 1566Q912 1566 956 1523T1001 1418Q1001 1357 957 1314T849 1270ZM253 1418Q253 1480 297 1523T405 1566Q468 1566 512 1523T557
1418Q557 1357 513 1314T405 1270Q342 1270 298 1313T253 1418Z" />
<glyph unicode="&#xf7;" glyph-name="divide" horiz-adv-x="1392" d="M520 1002Q519 1074 571 1124T696 1176Q768 1175 818 1125T869 1002Q869 929 819 877T696 826Q623 825 571 877T520 1002ZM1205 719V472H187V719H1205ZM520 193Q519 264 571 315T696 365Q767
366 818 315T869 193Q869 119 818 68T696 16Q623 17 571 68T520 193Z" />
<glyph unicode="&#xf8;" glyph-name="oslash" horiz-adv-x="1257" d="M298 -72L155 25L230 132Q79 290 79 553Q79 726 145 856T335 1058T628 1131Q772 1131 886 1077L958 1180L1102 1083L1027 975Q1178 818 1178 553Q1178 381 1112 252T922 50T628 -23Q484 -23
370 31L298 -72ZM394 555Q394 467 415 398L736 861Q689 889 629 889Q512 889 453 795T394 555ZM863 555Q863 642 842 710L520 248Q568 219 629 219Q745 219 804 314T863 555Z" />
<glyph unicode="&#xf9;" glyph-name="ugrave" horiz-adv-x="1274" d="M840 475V1118H1150V0H852V203H840Q803 105 716 45T502 -14Q333 -15 229 97T124 406V1118H434V460Q434 362 487 305T628 248Q711 247 775 305T840 475ZM535 1257L328 1562H611L751 1257H535Z" />
<glyph unicode="&#xfa;" glyph-name="uacute" horiz-adv-x="1274" d="M840 475V1118H1150V0H852V203H840Q803 105 716 45T502 -14Q333 -15 229 97T124 406V1118H434V460Q434 362 487 305T628 248Q711 247 775 305T840 475ZM524 1257L663 1562H947L739 1257H524Z" />
<glyph unicode="&#xfb;" glyph-name="ucircumflex" horiz-adv-x="1274" d="M840 475V1118H1150V0H852V203H840Q803 105 716 45T502 -14Q333 -15 229 97T124 406V1118H434V460Q434 362 487 305T628 248Q711 247 775 305T840 475ZM783 1250L637 1428L492 1250H227V1261L522
1582H753L1047 1261V1250H783Z" />
<glyph unicode="&#xfc;" glyph-name="udieresis" horiz-adv-x="1274" d="M840 475V1118H1150V0H852V203H840Q803 105 716 45T502 -14Q333 -15 229 97T124 406V1118H434V460Q434 362 487 305T628 248Q711 247 775 305T840 475ZM859 1270Q797 1270 752 1313T707
1418Q707 1480 752 1523T859 1566Q922 1566 966 1523T1011 1418Q1011 1357 967 1314T859 1270ZM263 1418Q263 1480 307 1523T415 1566Q478 1566 522 1523T567 1418Q567 1357 523 1314T415 1270Q352 1270 308 1313T263 1418Z" />
<glyph unicode="&#xfd;" glyph-name="yacute" horiz-adv-x="1200" d="M313 -426Q254 -426 203 -417T117 -395L188 -164L198 -166Q276 -188 332 -176T416 -88L435 -32L35 1118H360L592 297H604L837 1118H1165L728 -129Q681 -265 584 -345T313 -426ZM484 1257L623
1562H907L699 1257H484Z" />
<glyph unicode="&#xfe;" glyph-name="thorn" horiz-adv-x="1292" d="M759 -18Q669 -18 607 12T505 87T443 179H434V-418H124V1490H434V929H443Q464 975 502 1022T604 1100T761 1132Q884 1132 986 1069T1151 877T1213 557Q1213 371 1153 243T990 48T759 -18ZM427
558Q427 410 488 319T662 228Q776 228 836 320T896 558Q896 704 837 795T662 886Q550 886 489 797T427 558Z" />
<glyph unicode="&#xff;" glyph-name="ydieresis" horiz-adv-x="1200" d="M313 -426Q254 -426 203 -417T117 -395L188 -164L198 -166Q276 -188 332 -176T416 -88L435 -32L35 1118H360L592 297H604L837 1118H1165L728 -129Q681 -265 584 -345T313 -426ZM819 1270Q757
1270 712 1313T667 1418Q667 1480 712 1523T819 1566Q882 1566 926 1523T971 1418Q971 1357 927 1314T819 1270ZM223 1418Q223 1480 267 1523T375 1566Q438 1566 482 1523T527 1418Q527 1357 483 1314T375 1270Q312 1270 268 1313T223 1418Z" />
<glyph unicode="&#x2013;" glyph-name="endash" horiz-adv-x="1024" d="M1024 734V488H0V734H1024Z" />
<glyph unicode="&#x2014;" glyph-name="emdash" horiz-adv-x="2048" d="M2048 734V488H0V734H2048Z" />
<glyph unicode="&#x2018;" glyph-name="quoteleft" horiz-adv-x="727" d="M166 866L352 1490H561L473 866H166Z" />
<glyph unicode="&#x2019;" glyph-name="quoteright" horiz-adv-x="727" d="M166 866L254 1490H561L375 866H166Z" />
<glyph unicode="&#x201a;" glyph-name="quotesinglbase" horiz-adv-x="727" d="M166 -438L254 186H561L375 -438H166Z" />
<glyph unicode="&#x201c;" glyph-name="quotedblleft" horiz-adv-x="1208" d="M166 866L352 1490H561L473 866H166ZM647 866L833 1490H1042L954 866H647Z" />
<glyph unicode="&#x201d;" glyph-name="quotedblright" horiz-adv-x="1190" d="M166 866L254 1490H561L375 866H166ZM629 866L717 1490H1024L838 866H629Z" />
<glyph unicode="&#x201e;" glyph-name="quotedblbase" horiz-adv-x="1190" d="M166 -438L254 186H561L375 -438H166ZM629 -438L717 186H1024L838 -438H629Z" />
<glyph unicode="&#x2022;" glyph-name="bullet" horiz-adv-x="950" d="M475 274Q387 274 314 317T198 433T155 594Q155 683 198 755T314 871T475 914Q564 914 636 871T752 756T795 594Q795 506 752 433T637 317T475 274Z" />
<glyph unicode="&#x2039;" glyph-name="guilsinglleft" horiz-adv-x="890" d="M489 144L88 616L489 1088H816L422 616L816 144H489Z" />
<glyph unicode="&#x203a;" glyph-name="guilsinglright" horiz-adv-x="890" d="M74 144L468 616L74 1088H401L802 616L401 144H74Z" />
</font>
</defs>
</svg>
