<?xml version="1.0" standalone="no"?>
<!DOCTYPE svg PUBLIC "-//W3C//DTD SVG 1.1//EN" "http://www.w3.org/Graphics/SVG/1.1/DTD/svg11.dtd">
<svg xmlns="http://www.w3.org/2000/svg">
<defs >
<font id="Mooli" horiz-adv-x="1157" ><font-face
    font-family="Mooli"
    units-per-em="2000"
    panose-1="0 0 0 0 0 0 0 0 0 0"
    ascent="1928"
    descent="-472"
    alphabetic="0" />
<glyph unicode=" " glyph-name="space" horiz-adv-x="531" />
<glyph unicode="!" glyph-name="exclam" horiz-adv-x="737" d="M305 373L254 1456H441L391 373H305ZM352 -6Q297 -6 268 27T239 106Q239 159 274 188T353 217Q408 217 437 184T466 105Q466 53 431 24T352 -6Z" />
<glyph unicode="&quot;" glyph-name="quotedbl" horiz-adv-x="720" d="M150 989L114 1451H281V989H150ZM439 989L403 1451H569V989H439Z" />
<glyph unicode="#" glyph-name="numbersign" horiz-adv-x="1242" d="M210 60L294 485H42L53 611H318Q330 682 342 749T368 886H107L120 1010H390L469 1420H615L538 1010H799L875 1420H1021L943 1010H1184L1170 886H920L869 611H1121L1107 485H847L764 60H619L699
485H438L356 60H210ZM460 611H724L775 886H514L460 611Z" />
<glyph unicode="$" glyph-name="dollar" horiz-adv-x="1190" d="M532 -172V-16Q428 -14 349 13T202 89L251 223Q307 186 379 159T534 127V648Q424 697 334 746T191 866T137 1047Q137 1150 192 1235T338 1375T530 1437V1575H654V1439Q760 1437 848 1407T997 1326L948
1198Q842 1293 658 1299V770Q738 739 813 705T949 625T1044 515T1080 361Q1080 243 1019 164T862 42T656 -11V-172H532ZM534 818V1293Q444 1282 385 1221T326 1059Q326 986 355 940T433 866T534 818ZM658 131Q760 145 830 204T901 358Q901 433 863 478T768 553T658
605V131Z" />
<glyph unicode="%" glyph-name="percent" horiz-adv-x="1985" d="M520 686Q388 686 307 751T192 915Q168 984 168 1064Q168 1196 226 1286T377 1418Q441 1447 526 1447Q696 1447 786 1343T877 1068Q877 936 819 847T668 716Q602 686 520 686ZM440 -5L1344 1436H1499L594
-5H440ZM524 799Q634 799 684 879T734 1069Q734 1157 705 1220T618 1314Q579 1335 525 1335Q414 1335 363 1255T312 1065Q312 954 362 877T524 799ZM1449 -27Q1317 -27 1237 38T1121 202Q1097 271 1097 351Q1097 484 1155 573T1306 705Q1372 735 1455 735Q1625
735 1715 631T1806 356Q1806 224 1748 135T1597 3Q1531 -27 1449 -27ZM1452 86Q1562 86 1612 167T1662 357Q1662 467 1613 544T1454 622Q1343 622 1292 541T1241 350Q1241 169 1358 107Q1397 86 1452 86Z" />
<glyph unicode="&amp;" glyph-name="ampersand" horiz-adv-x="1647" d="M661 -27Q481 -27 350 37T156 220Q115 298 115 402Q115 493 150 558T233 672Q286 726 355 770T494 852Q442 904 392 958T315 1086Q299 1128 299 1182Q299 1282 348 1346T479 1441T661 1473Q780
1473 869 1431T1004 1314Q1036 1262 1036 1188Q1036 1119 1007 1068T942 977Q899 931 844 893T729 822L1144 398Q1194 469 1231 561T1285 756Q1296 825 1296 884L1463 863Q1456 685 1400 538T1260 284Q1316 227 1371 184T1508 114Q1531 107 1559 100T1618 86L1486
-12Q1375 5 1305 63T1166 186Q1077 99 957 36T661 -27ZM625 918Q689 952 749 995T844 1099Q865 1137 865 1178Q865 1260 808 1300T669 1340Q587 1340 530 1301T472 1178Q472 1110 500 1063T563 979Q577 964 592 949T625 918ZM658 116Q801 116 893 168T1058 291Q1056
291 1034 311Q984 359 930 415T823 523L594 750Q512 708 437 657T320 522Q295 472 295 406Q295 296 361 232T512 138Q577 116 658 116Z" />
<glyph unicode="&apos;" glyph-name="quotesingle" horiz-adv-x="554" d="M212 989L176 1451H342V989H212Z" />
<glyph unicode="(" glyph-name="parenleft" horiz-adv-x="626" d="M421 -214Q150 213 147 659T427 1551H574Q441 1342 377 1116T313 660T379 208T570 -214H421Z" />
<glyph unicode=")" glyph-name="parenright" horiz-adv-x="626" d="M56 -214Q182 -14 246 208T312 659T250 1115T52 1551H199Q483 1105 480 659T205 -214H56Z" />
<glyph unicode="*" glyph-name="asterisk" horiz-adv-x="1065" d="M692 737L534 1003L381 745L257 820L448 1058L175 1136L196 1271L480 1148Q470 1223 460 1299T439 1451H581V1153L816 1274L880 1149L617 1061L818 810L692 737Z" />
<glyph unicode="+" glyph-name="plus" horiz-adv-x="1458" d="M653 62V485H205V624H656V1047H804V624H1253V485H802V62H653Z" />
<glyph unicode="," glyph-name="comma" horiz-adv-x="540" d="M78 -256L185 207H372L209 -256H78Z" />
<glyph unicode="-" glyph-name="hyphen" horiz-adv-x="728" d="M79 489V626H651V489H79Z" />
<glyph unicode="." glyph-name="period" horiz-adv-x="540" d="M251 0Q199 0 172 31T144 106Q144 156 178 183T252 211Q304 211 331 180T359 105Q359 56 326 28T251 0Z" />
<glyph unicode="/" glyph-name="slash" horiz-adv-x="717" d="M-47 -215L590 1451H757L116 -215H-47Z" />
<glyph unicode="0" glyph-name="zero" horiz-adv-x="1219" d="M607 -23Q462 -23 365 36T210 197T129 431T104 710Q104 857 129 991T211 1229T366 1393T607 1453Q759 1453 858 1395T1013 1235T1092 998T1115 710Q1115 566 1089 434T1003 199T847 37T607 -23ZM607
119Q705 119 768 172T866 313T916 505T931 710Q931 817 920 923T875 1118T778 1259T607 1312Q507 1312 444 1258T345 1114T296 919T282 710Q282 602 293 497T338 307T436 170T607 119Z" />
<glyph unicode="1" glyph-name="one" horiz-adv-x="971" d="M439 0V1270Q337 1193 181 1128L140 1259Q227 1299 311 1348T446 1436H611V0H439Z" />
<glyph unicode="2" glyph-name="two" horiz-adv-x="1248" d="M98 0V147Q216 260 343 378T583 616Q635 671 699 741T810 895T857 1071Q857 1189 775 1248T573 1307Q440 1307 356 1240T230 1078L133 1175Q180 1300 297 1374T584 1448Q708 1448 809 1407T971 1283T1032
1078Q1032 976 990 885T884 714T749 566T623 442Q547 366 465 291T305 145H1035V0H98Z" />
<glyph unicode="3" glyph-name="three" horiz-adv-x="1190" d="M519 -23Q365 -23 251 37T108 223L191 324Q227 230 313 175T528 119Q621 119 699 149T824 241T871 394Q871 505 816 566T667 651T462 672L385 670V813H446Q555 813 641 836T776 918T826 1085Q826
1204 745 1255T544 1306Q424 1306 346 1258T219 1128L121 1217Q166 1327 281 1388T550 1449Q672 1449 776 1409T945 1288T1010 1086Q1010 988 970 920T865 810T721 746Q811 728 885 685T1004 570T1049 391Q1049 253 974 161T779 23T519 -23Z" />
<glyph unicode="4" glyph-name="four" horiz-adv-x="1189" d="M726 0V351H25V475L690 1420H898V483H1112V351H898V0H726ZM196 483H726V1292L638 1146L196 483Z" />
<glyph unicode="5" glyph-name="five" horiz-adv-x="1251" d="M581 -23Q438 -23 338 31T180 173L261 289Q311 215 389 167T579 119Q704 119 785 176T901 324Q924 385 924 452Q924 559 878 630T754 734Q699 758 626 758Q553 758 498 731T412 658L236 652V1425H1027V1280H399L385
839Q437 869 496 887T632 905Q801 905 911 829T1069 630Q1101 549 1101 449Q1101 277 1014 170T799 14Q700 -23 581 -23Z" />
<glyph unicode="6" glyph-name="six" horiz-adv-x="1320" d="M667 -22Q534 -22 440 22T284 142T192 310T153 501Q145 618 162 743T228 988T364 1210T584 1384T900 1484L936 1338Q761 1315 636 1234T434 1035T327 779Q360 840 425 879T563 938T691 957Q845 957
952 891T1114 713T1170 466Q1170 322 1105 212T926 40T667 -22ZM665 127Q826 127 914 217T1003 461Q1003 548 973 631T871 768T671 821Q565 821 486 775T364 649T320 469Q320 381 357 303T471 176T665 127Z" />
<glyph unicode="7" glyph-name="seven" horiz-adv-x="1196" d="M315 0L895 1275H117V1420H1087V1329L501 0H315Z" />
<glyph unicode="8" glyph-name="eight" horiz-adv-x="1288" d="M644 -23Q484 -23 367 37T191 200Q150 273 150 367Q150 527 241 617T466 747Q348 784 267 865T185 1091Q185 1186 224 1253T327 1363T465 1428Q507 1440 551 1446T644 1453Q795 1453 905 1398T1067
1244Q1103 1177 1103 1091Q1103 946 1022 865T822 747Q956 707 1047 617T1138 367Q1138 264 1095 194T989 78Q926 32 837 5T644 -23ZM644 820Q723 835 788 865T892 948T931 1086Q931 1203 846 1260T644 1317Q550 1317 482 1282T380 1185Q357 1141 357 1086Q357
1002 396 949T500 865T644 820ZM644 119Q864 119 937 268Q961 316 961 380Q961 474 915 532T796 624T644 673Q547 654 468 610T351 489Q327 441 327 380Q327 246 418 183T644 119Z" />
<glyph unicode="9" glyph-name="nine" horiz-adv-x="1217" d="M510 -76L374 0L783 575Q777 571 725 543T590 515Q436 515 327 578T159 751T100 995Q100 1139 165 1249T345 1421T603 1483Q781 1483 894 1413T1062 1230T1117 991Q1117 798 978 598L510 -76ZM610
651Q781 651 865 746T950 992Q950 1150 871 1242T615 1334Q455 1334 364 1243T272 994Q272 908 303 829T409 701T610 651Z" />
<glyph unicode=":" glyph-name="colon" horiz-adv-x="540" d="M159 841V1051H376V841H159ZM159 -11V199H376V-11H159Z" />
<glyph unicode=";" glyph-name="semicolon" horiz-adv-x="540" d="M159 841L206 1051H376V841H159ZM100 -256L206 207H394L231 -256H100Z" />
<glyph unicode="&lt;" glyph-name="less" horiz-adv-x="1458" d="M1229 48L225 508V595L1233 1067V914L444 552L1229 200V48Z" />
<glyph unicode="=" glyph-name="equal" horiz-adv-x="1458" d="M204 689V827H1253V689H204ZM205 283V420H1254V283H205Z" />
<glyph unicode="&gt;" glyph-name="greater" horiz-adv-x="1458" d="M224 58V212L1013 555L229 926V1078L1234 594V505L224 58Z" />
<glyph unicode="?" glyph-name="question" horiz-adv-x="1032" d="M356 368Q352 404 349 448T346 530Q346 606 385 663T481 768T595 867T691 979T730 1125Q730 1201 692 1246T590 1312T454 1331T309 1311T183 1262V1413Q243 1442 314 1462T464 1483Q677 1483 788
1385T899 1133Q899 1047 869 983T790 867T687 772T585 681T506 578T475 447Q475 413 481 368H356ZM425 0Q373 0 346 31T318 106Q318 156 352 183T426 211Q478 211 505 180T533 105Q533 56 500 28T425 0Z" />
<glyph unicode="@" glyph-name="at" horiz-adv-x="1895" d="M967 -109Q774 -109 622 -45T366 116Q266 211 198 352T130 679Q130 871 201 1011T374 1246Q478 1344 626 1410T971 1476Q1153 1476 1292 1422T1531 1283Q1626 1203 1693 1082T1760 791Q1760 664 1717
563T1612 390Q1558 328 1475 277T1288 225Q1099 225 1071 384Q1028 331 965 294T814 257Q702 257 631 316T525 457Q498 523 498 610Q498 725 543 818T646 976Q702 1038 786 1088T978 1138Q1058 1138 1118 1106T1207 1022L1225 1107H1371L1314 857Q1295 772 1279
704T1250 584Q1226 482 1226 436Q1226 394 1245 372T1309 350Q1381 350 1433 393T1517 486Q1555 543 1581 623T1607 796Q1607 931 1556 1032T1428 1200Q1348 1271 1231 1314T966 1357Q806 1357 683 1300T476 1158Q394 1076 338 954T281 677Q281 522 335 403T471
202Q557 118 682 65T972 12Q1136 12 1264 62T1486 192L1566 122Q1470 18 1317 -45T967 -109ZM831 385Q908 385 963 428T1052 522Q1090 578 1115 655T1141 821Q1141 907 1104 957T980 1007Q899 1007 841 963T746 866Q709 813 682 739T655 582Q655 494 699 440T831
385Z" />
<glyph unicode="A" glyph-name="A" horiz-adv-x="1425" d="M13 0L617 1456H802L1407 0H1216L1053 397H355L199 0H13ZM410 545H994L760 1150Q747 1182 733 1223T707 1298Q696 1264 681 1223T655 1149L410 545Z" />
<glyph unicode="B" glyph-name="B" horiz-adv-x="1297" d="M174 0V1456H585Q866 1456 1004 1375T1143 1105Q1143 965 1086 888T908 769Q1057 740 1134 655T1212 403Q1212 186 1062 93T651 0H174ZM346 825H569Q781 825 871 884T962 1077Q962 1202 876 1255T585
1308H346V825ZM346 148H645Q846 148 938 207T1030 406Q1030 553 931 618T599 684H346V148Z" />
<glyph unicode="C" glyph-name="C" horiz-adv-x="1391" d="M816 -22Q596 -22 438 73T196 337T112 726Q112 947 199 1118T445 1386T818 1483Q983 1483 1091 1439T1281 1332L1202 1206Q1126 1264 1033 1297T837 1331Q660 1331 540 1253T357 1038T295 725Q295 554
352 420T526 208T821 130Q957 130 1059 165T1238 267L1295 127Q1206 55 1087 17T816 -22Z" />
<glyph unicode="D" glyph-name="D" horiz-adv-x="1523" d="M174 0V1456H489Q695 1456 864 1419T1155 1296T1344 1071T1411 724Q1411 483 1307 322T1019 81T591 0H174ZM346 148H607Q896 148 1062 292T1229 721Q1229 946 1143 1074T896 1255T510 1308H346V148Z" />
<glyph unicode="E" glyph-name="E" horiz-adv-x="1187" d="M174 0V1456H1041V1308H346V820H1003V672H346V148H1091V0H174Z" />
<glyph unicode="F" glyph-name="F" horiz-adv-x="1103" d="M174 0V1456H1017V1308H346V815H983V667H346V0H174Z" />
<glyph unicode="G" glyph-name="G" horiz-adv-x="1512" d="M845 -22Q496 -22 304 166T112 701Q112 933 201 1109T457 1384T856 1483Q1014 1483 1125 1443T1323 1315L1251 1198Q1112 1331 852 1331Q674 1331 548 1251T356 1031T290 714Q290 437 435 284T859 130Q950
130 1029 140T1176 178V608H815V757H1348V81Q1239 30 1117 4T845 -22Z" />
<glyph unicode="H" glyph-name="H" horiz-adv-x="1493" d="M174 0V1456H346V822H1148V1456H1319V0H1148V674H346V0H174Z" />
<glyph unicode="I" glyph-name="I" horiz-adv-x="544" d="M186 0V1456H358V0H186Z" />
<glyph unicode="J" glyph-name="J" horiz-adv-x="1041" d="M41 -114L93 22Q242 -44 352 -38T522 59T583 334V1314H164V1456H1027V1314H755V336Q755 144 695 26T532 -145T302 -188T41 -114Z" />
<glyph unicode="K" glyph-name="K" horiz-adv-x="1246" d="M174 0V1456H346V796L990 1456H1202L531 764L1242 0H1024L346 725V0H174Z" />
<glyph unicode="L" glyph-name="L" horiz-adv-x="1069" d="M174 0V1456H346V148H1045V0H174Z" />
<glyph unicode="M" glyph-name="M" horiz-adv-x="1944" d="M174 0V1456H412L887 526L973 322L1058 529L1536 1456H1770V0H1602V1251L1534 1096L1034 110H908L404 1108L344 1268V0H174Z" />
<glyph unicode="N" glyph-name="N" horiz-adv-x="1570" d="M174 0V1456H380L1147 342L1225 215V1456H1396V0H1188L418 1113L346 1237V0H174Z" />
<glyph unicode="O" glyph-name="O" horiz-adv-x="1660" d="M830 -25Q652 -25 518 36T294 204T158 446T112 728Q112 876 157 1011T293 1253T518 1421T830 1483Q1008 1483 1142 1422T1366 1254T1502 1012T1548 728Q1548 581 1503 446T1367 205T1142 37T830 -25ZM830
127Q969 127 1091 194T1288 396T1364 729Q1364 929 1289 1062T1091 1263T830 1331Q691 1331 569 1264T372 1063T296 729Q296 530 371 396T569 195T830 127Z" />
<glyph unicode="P" glyph-name="P" horiz-adv-x="1239" d="M174 0V1456H563Q887 1456 1029 1349T1171 1020Q1171 587 588 587H346V0H174ZM346 736H607Q987 736 987 1018Q987 1166 896 1237T587 1308H346V736Z" />
<glyph unicode="Q" glyph-name="Q" horiz-adv-x="1648" d="M1229 -422Q1141 -334 1063 -235T927 -13Q881 -22 822 -22Q596 -22 437 73T195 338T112 736Q112 960 199 1128T447 1389T830 1483Q1054 1483 1212 1390T1453 1128T1536 736Q1536 465 1413 282T1092 20Q1139
-77 1203 -156T1341 -304L1229 -422ZM823 123Q1001 123 1117 202T1290 420T1348 736Q1348 912 1290 1046T1116 1257T823 1334Q650 1334 532 1257T352 1044T291 736Q291 563 352 424T531 204T823 123Z" />
<glyph unicode="R" glyph-name="R" horiz-adv-x="1320" d="M174 0V1456H530Q656 1456 770 1443T974 1391T1116 1276T1168 1074Q1168 971 1125 899T1012 782T858 715Q926 693 968 647T1038 539T1093 410L1256 0H1068L915 419Q889 492 857 544T770 624T616 652H346V0H174ZM346
799H612Q711 799 796 822T933 902T986 1058Q986 1160 938 1214T807 1288T623 1308H346V799Z" />
<glyph unicode="S" glyph-name="S" horiz-adv-x="1229" d="M664 -22Q531 -22 389 17T146 123L174 289Q240 238 322 201T490 144T649 123Q804 123 877 198T951 401Q951 438 939 471T888 536T772 601T566 671Q395 720 302 782T174 925T141 1109Q143 1224 206 1308T379
1437T636 1483Q739 1483 854 1458T1085 1359L1033 1218Q949 1271 849 1302T656 1334Q333 1334 324 1120Q321 1052 345 1000T446 905T676 817Q864 763 963 700T1098 562T1135 395Q1135 281 1085 186T931 35T664 -22Z" />
<glyph unicode="T" glyph-name="T" horiz-adv-x="1161" d="M493 0V1308H24V1456H1137V1308H665V0H493Z" />
<glyph unicode="U" glyph-name="U" horiz-adv-x="1473" d="M749 -22Q461 -22 313 115T164 541V1456H336V546Q336 123 747 123Q936 123 1037 233T1138 539V1456H1309V551Q1308 281 1165 130T749 -22Z" />
<glyph unicode="V" glyph-name="V" horiz-adv-x="1336" d="M581 1L13 1456H201L626 325L672 184L720 324L1141 1456H1324L767 1H581Z" />
<glyph unicode="W" glyph-name="W" horiz-adv-x="2095" d="M1442 0L1049 1247L654 1H441L18 1456H204L514 349L552 189L602 349L964 1456H1145L1504 345L1550 190L1592 349L1897 1456H2077L1654 0H1442Z" />
<glyph unicode="X" glyph-name="X" horiz-adv-x="1304" d="M11 0L548 741L50 1456H258L662 854L1079 1456H1275L764 742L1285 0H1084L648 623L215 0H11Z" />
<glyph unicode="Y" glyph-name="Y" horiz-adv-x="1256" d="M537 0V582L4 1456H195L626 727L1061 1456H1252L709 585V0H537Z" />
<glyph unicode="Z" glyph-name="Z" horiz-adv-x="1222" d="M92 0V92L922 1308H124V1456H1154V1368L320 148H1146V0H92Z" />
<glyph unicode="[" glyph-name="bracketleft" horiz-adv-x="628" d="M191 -259V1451H547V1329H354V-137H548V-259H191Z" />
<glyph unicode="\" glyph-name="backslash" horiz-adv-x="706" d="M757 -215H594L-47 1451H120L757 -215Z" />
<glyph unicode="]" glyph-name="bracketright" horiz-adv-x="628" d="M87 -259V-137H278V1329H88L78 1451H442V-259H87Z" />
<glyph unicode="^" glyph-name="asciicircum" horiz-adv-x="1457" d="M184 550L665 1432H766L1255 550H1100L714 1260L340 550H184Z" />
<glyph unicode="_" glyph-name="underscore" horiz-adv-x="998" d="M-5 -273V-145H998V-273H-5Z" />
<glyph unicode="`" glyph-name="grave" horiz-adv-x="593" d="M333 1178L1 1498H215L462 1178H333Z" />
<glyph unicode="a" glyph-name="a" horiz-adv-x="1205" d="M506 -22Q381 -22 288 35T142 196T90 438Q90 621 162 758T363 971T666 1048Q767 1048 865 1025T1023 962V286Q1023 220 1057 180T1148 139L1114 -4Q1027 -4 963 43T882 166Q831 81 728 30T506 -22ZM531
116Q630 116 703 160T818 281T859 453V872Q828 888 774 897T663 907Q542 907 452 850T311 689T260 448Q260 299 334 208T531 116Z" />
<glyph unicode="b" glyph-name="b" horiz-adv-x="1210" d="M612 -22Q491 -22 388 0T220 46T152 71V1495L317 1525V851Q405 951 506 998T704 1045Q815 1045 910 986T1062 816T1120 545Q1120 380 1059 252T885 51T612 -22ZM615 116Q732 116 806 176T915 336T950
550Q950 729 874 816T686 904Q598 904 501 849T317 686V156Q321 155 363 145T471 126T615 116Z" />
<glyph unicode="c" glyph-name="c" horiz-adv-x="1019" d="M634 -23Q494 -23 370 36T168 213T90 503Q90 634 136 735T261 907T438 1013T640 1050Q731 1050 820 1020T983 920L923 799Q867 853 797 879T656 906Q556 906 465 861T317 726T260 508Q260 375 316 289T461
161T651 119Q732 119 813 149T956 238L1013 112Q930 45 831 11T634 -23Z" />
<glyph unicode="d" glyph-name="d" horiz-adv-x="1226" d="M561 -22Q420 -22 314 43T149 226T90 501Q90 656 143 779T302 975T561 1048Q660 1048 742 1018T906 917V1506L1071 1526V390Q1071 276 1083 205T1116 88T1159 10L997 -13Q969 21 946 74T919 177Q874 83
778 31T561 -22ZM579 116Q699 116 771 171T875 320T907 534V744Q851 819 763 863T585 907Q472 907 400 854T294 711T260 507Q260 391 300 303T413 165T579 116Z" />
<glyph unicode="e" glyph-name="e" horiz-adv-x="1070" d="M619 -22Q467 -22 348 44T159 231T90 516Q90 657 151 778T329 973T610 1048Q718 1048 797 1009T920 902T964 751Q964 629 875 555T633 440T285 371Q305 295 356 238T476 148T619 116Q723 116 810 155T948
252L1031 146Q956 69 848 24T619 -22ZM273 490Q427 512 546 543T733 624T801 755Q801 823 752 865T611 907Q528 907 450 867T321 745T270 539Q270 514 273 490Z" />
<glyph unicode="f" glyph-name="f" horiz-adv-x="699" d="M91 -449L70 -328Q160 -306 206 -230T253 -34V919H51V1026H253V1170Q253 1360 321 1446T541 1532Q623 1532 719 1499L695 1392Q667 1399 639 1404T584 1409Q496 1409 457 1358T417 1193V1026H665V919H417V-11Q417
-198 344 -312T91 -449Z" />
<glyph unicode="g" glyph-name="g" horiz-adv-x="1143" d="M525 -494Q449 -494 357 -478T189 -433L208 -280Q277 -314 360 -335T511 -357Q668 -357 763 -271T859 -44V133Q803 63 708 21T506 -22Q381 -22 288 35T142 196T90 438Q90 621 162 758T363 971T666 1048Q767
1048 865 1025T1023 962V-23Q1023 -164 961 -270T787 -435T525 -494ZM531 116Q630 116 703 160T818 281T859 453V872Q828 888 774 897T663 907Q542 907 452 850T311 689T260 448Q260 299 334 208T531 116Z" />
<glyph unicode="h" glyph-name="h" horiz-adv-x="1222" d="M1132 -19Q1023 -35 966 -7T888 93T867 284V562Q867 744 817 825T651 907Q575 907 498 868T368 747T316 532V0H152V1506L316 1526V875Q367 953 469 1000T686 1048Q860 1048 946 934T1032 565V320Q1032
244 1035 195T1062 127T1148 119L1132 -19Z" />
<glyph unicode="i" glyph-name="i" horiz-adv-x="600" d="M434 -5Q363 -5 302 22T204 111T167 278V1026H332V283Q332 178 369 148T457 118Q480 118 517 124T580 141L600 30Q563 15 516 5T434 -5ZM420 1238V1417H596V1238H420Z" />
<glyph unicode="j" glyph-name="j" horiz-adv-x="503" d="M21 -429Q-47 -429 -102 -416V-273Q-79 -277 -60 -280T-18 -283Q60 -283 102 -242T159 -129T175 31V1026H340V73Q340 -38 323 -135T262 -302T140 -407Q90 -429 21 -429ZM420 1238V1417H596V1238H420Z" />
<glyph unicode="k" glyph-name="k" horiz-adv-x="1107" d="M1064 -35Q986 -21 905 34T763 189L602 458L297 27Q270 -6 236 -13T177 -2T152 60V1496L316 1526V292L832 1026L981 976L694 580L891 270Q944 186 1010 137T1153 89L1064 -35Z" />
<glyph unicode="l" glyph-name="l" horiz-adv-x="686" d="M720 35Q619 -9 521 -16T343 7T216 111T168 300V1496L332 1526V292Q332 188 386 146T523 109T695 152L720 35Z" />
<glyph unicode="m" glyph-name="m" horiz-adv-x="1964" d="M1879 -19Q1770 -35 1712 -7T1631 93T1609 284V562Q1609 744 1559 825T1393 907Q1317 907 1239 868T1109 747T1056 532V0H891V562Q891 744 842 825T677 907Q605 907 531 872T404 761T343 565V0H179V699Q179
786 149 851T84 974L249 1026Q276 985 298 943T328 851Q373 940 481 994T712 1048Q834 1048 913 993T1028 819L1040 842Q1068 904 1128 950T1266 1022T1428 1048Q1602 1048 1688 934T1774 565V320Q1774 244 1778 195T1808 127T1895 119L1879 -19Z" />
<glyph unicode="n" glyph-name="n" horiz-adv-x="1248" d="M1158 -19Q1049 -35 992 -7T914 93T893 284V562Q893 744 843 825T677 907Q605 907 531 872T404 761T343 565V0H179V699Q179 786 149 851T84 974L249 1026Q276 985 298 943T328 851Q373 940 481 994T712
1048Q886 1048 972 934T1058 565V320Q1058 244 1061 195T1088 127T1174 119L1158 -19Z" />
<glyph unicode="o" glyph-name="o" horiz-adv-x="1230" d="M622 -22Q463 -22 344 44T159 231T92 511Q92 672 158 793T343 981T621 1048Q778 1048 895 981T1077 794T1142 513Q1142 353 1077 233T895 45T622 -22ZM622 116Q780 116 876 224T972 511Q972 690 876 798T621
907Q460 907 361 798T262 509Q262 332 361 224T622 116Z" />
<glyph unicode="p" glyph-name="p" horiz-adv-x="1253" d="M173 -457V718Q173 790 147 848T82 948L221 1026Q304 965 317 840Q372 938 477 993T704 1048Q919 1048 1040 910T1161 527Q1161 268 1038 123T694 -22Q588 -22 491 9T337 95V-439L173 -457ZM670 116Q822
116 906 223T991 521Q991 703 913 805T695 907Q532 907 434 782T336 434V268Q388 196 479 156T670 116Z" />
<glyph unicode="q" glyph-name="q" horiz-adv-x="1241" d="M1023 -539L909 -426V128Q851 57 765 18T571 -22Q419 -22 312 47T149 235T92 506Q92 661 150 783T318 977T583 1048Q724 1048 795 1005T909 888L924 1026H1091Q1087 1001 1080 946T1073 813V-355L1325
-221L1397 -343L1023 -539ZM588 116Q655 116 719 144T833 214T909 302V543Q909 705 830 806T589 907Q474 907 402 855T296 712T262 507Q262 396 297 308T404 168T588 116Z" />
<glyph unicode="r" glyph-name="r" horiz-adv-x="792" d="M185 0V699Q185 786 155 851T90 974L255 1026Q282 985 304 944T334 854Q374 935 451 991T624 1048Q686 1048 718 1042T778 1028L764 883Q751 888 717 897T619 907Q510 907 430 826T349 568V0H185Z" />
<glyph unicode="s" glyph-name="s" horiz-adv-x="896" d="M464 -22Q348 -22 256 9T108 71L158 212Q216 168 296 142T452 116Q535 116 593 149T652 260Q652 313 613 349T511 415T380 474T248 542T148 636T111 771Q113 899 205 973T451 1048Q549 1048 630 1024T775
967L731 832Q668 866 597 886T461 907Q374 907 324 873T273 776Q273 729 312 695T414 633T545 574T676 505T776 410T812 275Q809 143 716 61T464 -22Z" />
<glyph unicode="t" glyph-name="t" horiz-adv-x="821" d="M560 -8Q386 -8 307 65T228 300V919H25V1026H233V1298L392 1345V1026H729V919H392V298Q392 204 437 162T579 119Q602 119 638 125T712 140T772 158L791 35Q744 19 674 6T560 -8Z" />
<glyph unicode="u" glyph-name="u" horiz-adv-x="1199" d="M522 -22Q425 -22 337 15T195 138T145 365L151 582Q156 742 142 831T111 958T92 1000L257 1026Q260 1021 276 986T306 860T316 595L310 365Q308 267 342 213T431 138T547 116Q630 116 698 153T808 259T850
427V1026H1014V302Q1014 193 1050 157T1155 135L1139 -3Q1021 -25 953 24T875 164Q760 -22 522 -22Z" />
<glyph unicode="v" glyph-name="v" horiz-adv-x="1062" d="M445 0L16 1026H198L479 336Q493 302 509 253T537 163Q560 239 572 277T593 336L869 1026H1046L613 0H445Z" />
<glyph unicode="w" glyph-name="w" horiz-adv-x="1688" d="M391 0L26 1026H202L451 284Q459 262 466 236T480 186Q488 207 495 231T511 276L776 1026H942L1190 286Q1198 265 1205 239T1219 189Q1229 212 1236 237T1253 287L1493 1026H1662L1294 0H1134L853 831L553
0H391Z" />
<glyph unicode="x" glyph-name="x" horiz-adv-x="1087" d="M48 0L448 514L67 1026H270L558 626L847 1026H1026L648 518L1039 0H838L542 408L238 0H48Z" />
<glyph unicode="y" glyph-name="y" horiz-adv-x="1186" d="M527 -494Q451 -494 359 -478T191 -433L210 -280Q279 -314 362 -335T513 -357Q670 -357 766 -271T862 -44V128Q747 -22 534 -22Q437 -22 349 15T207 138T157 365L163 582Q168 742 154 831T123 957T104
1000L269 1026Q271 1021 287 986T318 860T328 595L322 365Q320 267 354 213T443 138T559 116Q642 116 710 153T820 259T862 427V1026H1026V-23Q1026 -164 964 -270T789 -435T527 -494Z" />
<glyph unicode="z" glyph-name="z" horiz-adv-x="979" d="M80 0V89L680 891H106V1026H903V939L305 134H920V0H80Z" />
<glyph unicode="{" glyph-name="braceleft" horiz-adv-x="627" d="M86 553V676L88 675Q189 686 216 755T243 935V1218Q243 1315 285 1373T400 1457T566 1488V1362Q462 1362 433 1306T403 1122V884Q403 820 394 775T349 692T232 615Q313 575 349 538T394 455T403
345V107Q403 -20 432 -76T566 -133V-259Q473 -255 400 -228T285 -144T243 11V294Q243 405 216 474T88 554L86 553Z" />
<glyph unicode="|" glyph-name="bar" horiz-adv-x="500" d="M168 -491V1545H325V-491H168Z" />
<glyph unicode="}" glyph-name="braceright" horiz-adv-x="627" d="M566 553L564 554Q463 543 436 474T409 294V11Q409 -86 367 -143T252 -228T86 -259V-133Q190 -133 219 -77T249 107V345Q249 409 258 454T303 537T420 615Q339 654 303 691T258 774T249 884V1122Q249
1249 220 1305T86 1362V1488Q179 1484 252 1458T367 1373T409 1218V935Q409 825 436 756T564 675L566 676V553Z" />
<glyph unicode="~" glyph-name="asciitilde" horiz-adv-x="1458" d="M311 385L196 440Q214 525 262 588T384 683Q434 705 498 705Q544 705 586 692T665 664Q726 640 786 610T907 557Q940 545 964 545Q1014 545 1049 572T1107 641T1138 723L1263 684Q1242 596 1196
529T1072 430Q1025 410 963 410Q924 410 887 424T817 452Q758 478 697 508T571 559Q532 571 501 571Q419 571 373 512T311 385Z" />
<glyph unicode="&#xa0;" glyph-name="uni00A0" horiz-adv-x="531" />
<glyph unicode="&#xa1;" glyph-name="exclamdown" horiz-adv-x="737" d="M305 1077H391L441 -6H254L305 1077ZM352 1456Q395 1456 430 1427T466 1345Q466 1300 437 1267T353 1233Q310 1233 275 1262T239 1344Q239 1389 268 1422T352 1456Z" />
<glyph unicode="&#xa2;" glyph-name="cent" horiz-adv-x="1189" d="M553 -235V-20Q420 -8 317 61T154 244T94 503Q94 654 149 772T307 963T553 1049V1281H666V1049Q869 1033 960 912L883 801Q808 894 666 907V120Q730 126 799 151T940 225L976 87Q896 39 818 13T666
-20V-235H553ZM267 508Q267 340 346 241T553 122V904Q413 881 340 772T267 508Z" />
<glyph unicode="&#xa3;" glyph-name="sterling" horiz-adv-x="1189" d="M114 0V138Q192 184 244 249T297 440V690H114V832H296Q295 840 295 847T294 861Q294 1036 330 1168T461 1374T733 1448Q947 1448 1062 1357L1010 1237Q958 1269 889 1288T736 1307Q632 1307
573 1261T490 1133T466 947V832H798V690H468V641Q468 517 460 397T411 194Q396 162 370 141H1081V0H114Z" />
<glyph unicode="&#xa4;" glyph-name="currency" horiz-adv-x="1238" d="M157 195L121 232L281 398Q232 450 204 517T175 661Q175 731 200 794T269 908L106 1065L145 1104L307 947Q361 995 430 1022T576 1048Q645 1046 707 1022T818 956L976 1120L1016 1081L858
917Q905 864 932 796T957 651Q955 581 931 519T863 408L1031 246L994 210L827 371Q775 326 708 300T566 274Q496 274 433 297T319 363L157 195ZM564 351Q649 351 716 391T823 499T865 651Q867 736 829 806T723 920T572 965Q487 967 417 926T305 814T263 658Q263
574 303 504T411 393T564 351Z" />
<glyph unicode="&#xa5;" glyph-name="yen" horiz-adv-x="1266" d="M147 283V423H537V574H141V716H455L4 1456H195L626 727L1061 1456H1252L791 716H1099V574H709V423H1102V283H709V0H537V283H147Z" />
<glyph unicode="&#xa6;" glyph-name="brokenbar" horiz-adv-x="500" d="M168 677V1545H325V677H168ZM168 -491V393H325V-491H168Z" />
<glyph unicode="&#xa7;" glyph-name="section" horiz-adv-x="1097" d="M482 -48Q406 -48 338 -34T212 4V153Q274 125 336 107T477 89Q575 89 645 128T715 243Q715 302 677 330T594 379Q557 396 533 406T484 427T421 454Q312 501 249 567T185 729Q185 794 214 841T286
920T374 975Q310 1014 266 1068T221 1217Q221 1317 275 1377T416 1465T603 1493Q673 1493 724 1481T832 1452V1304Q787 1325 729 1340T608 1356Q554 1356 505 1345T424 1304T393 1221Q393 1160 428 1128T506 1072Q574 1035 645 1004T774 939Q834 905 872 855T911
737Q911 672 882 624T810 541T725 480Q789 448 838 398T888 252Q888 152 829 86T676 -14T482 -48ZM591 547Q644 581 688 623T733 723Q733 769 708 798T644 847T566 881T495 912Q450 888 406 849T362 741Q362 675 406 642T498 587Q519 577 542 568T591 547Z" />
<glyph unicode="&#xa8;" glyph-name="dieresis" horiz-adv-x="743" d="M458 1208V1381H633V1208H458ZM105 1208V1381H280V1208H105Z" />
<glyph unicode="&#xa9;" glyph-name="copyright" horiz-adv-x="1829" d="M914 -32Q725 -32 583 33T340 192Q270 258 217 341T132 526Q103 624 103 726Q103 907 174 1038T341 1260Q441 1354 581 1418T908 1483Q1097 1483 1238 1418T1480 1258Q1550 1192 1603 1109T1688
924Q1717 826 1717 725Q1717 545 1647 414T1480 192Q1381 98 1241 33T914 -32ZM913 85Q1068 85 1190 138T1395 270Q1476 347 1533 461T1590 724Q1590 874 1533 988T1394 1180Q1311 1259 1188 1312T909 1366Q755 1366 632 1313T426 1182Q344 1106 287 991T230 727Q230
577 287 462T426 270Q510 191 633 138T913 85ZM940 249Q770 249 658 334T496 542Q460 629 460 729Q460 902 542 1012T750 1172Q840 1208 951 1208Q1124 1208 1245 1105L1214 985Q1104 1080 944 1080Q823 1080 746 1020T636 868Q613 804 613 733Q613 608 669 527T816
408Q886 380 972 380Q1048 380 1106 401T1210 460L1249 339Q1120 249 940 249Z" />
<glyph unicode="&#xaa;" glyph-name="ordfeminine" horiz-adv-x="745" d="M317 768Q233 768 173 800T85 890Q66 928 66 975Q66 1044 102 1088T193 1158T309 1192Q365 1200 423 1202T536 1211V1219Q536 1302 504 1335T388 1369Q242 1369 178 1275L111 1350Q149
1415 222 1446T394 1477Q517 1477 593 1418T669 1235V914Q669 881 670 856T676 786H543L537 860Q503 819 448 794T317 768ZM338 871Q436 871 484 932T536 1085V1110Q494 1102 438 1099T327 1087T238 1054T202 977Q202 919 241 895T338 871Z" />
<glyph unicode="&#xab;" glyph-name="guillemotleft" horiz-adv-x="1156" d="M515 171L246 541L521 914H681L416 541L672 171H515ZM885 171L616 541L890 914H1049L786 541L1042 171H885Z" />
<glyph unicode="&#xac;" glyph-name="logicalnot" horiz-adv-x="1458" d="M1103 238V659H205V798H1253V238H1103Z" />
<glyph unicode="&#xae;" glyph-name="registered" horiz-adv-x="1829" d="M914 -32Q725 -32 583 33T340 192Q270 258 217 341T132 526Q103 624 103 726Q103 907 174 1038T341 1260Q441 1354 581 1418T908 1483Q1097 1483 1238 1418T1480 1258Q1550 1192 1603 1109T1688
924Q1717 826 1717 725Q1717 545 1647 414T1480 192Q1381 98 1241 33T914 -32ZM913 85Q1073 85 1192 138T1396 270Q1478 347 1534 458T1590 724Q1590 874 1533 988T1394 1180Q1311 1259 1188 1312T909 1366Q755 1366 632 1314T426 1182Q344 1105 287 991T230 727Q230
577 287 462T426 270Q510 191 633 138T913 85ZM597 273V1192H870Q1089 1192 1195 1126Q1301 1060 1301 935Q1301 815 1224 755T1036 681Q1094 627 1139 559T1231 418Q1251 386 1273 350T1320 273H1152L1029 485Q998 539 963 587T882 664H745V273H597ZM743 783H868Q937
783 1001 789T1105 823T1146 920Q1146 996 1108 1027T1007 1065T866 1072H743V783Z" />
<glyph unicode="&#xaf;" glyph-name="overscore" horiz-adv-x="728" d="M79 1213V1347H651V1213H79Z" />
<glyph unicode="&#xb0;" glyph-name="degree" horiz-adv-x="844" d="M414 855Q307 855 231 908T120 1036Q95 1089 95 1150Q95 1254 155 1322T291 1421Q351 1444 414 1444Q522 1444 597 1391T708 1264Q733 1211 733 1150Q733 1045 673 977T536 878Q480 855 414
855ZM414 971Q480 971 526 1002T593 1080Q608 1113 608 1151Q608 1216 572 1256T488 1314Q451 1328 414 1328Q349 1328 304 1298T236 1222Q220 1187 220 1151Q220 1086 255 1045T338 985Q374 971 414 971Z" />
<glyph unicode="&#xb1;" glyph-name="plusminus" horiz-adv-x="1458" d="M658 223V595H211L199 733H656V1107H805V733H1256V595H809V223H658ZM211 0V138H1260V0H211Z" />
<glyph unicode="&#xb2;" glyph-name="uni00B2" horiz-adv-x="747" d="M100 604V715Q180 788 257 860T401 1006Q454 1065 487 1118Q518 1168 518 1211Q518 1267 478 1295T378 1323Q307 1323 263 1284T193 1192L108 1270Q140 1345 210 1392T384 1440Q473 1440 535
1404T627 1307Q647 1264 647 1213Q647 1134 615 1076T541 968Q486 901 419 842T282 722H646V604H100Z" />
<glyph unicode="&#xb3;" glyph-name="uni00B3" horiz-adv-x="745" d="M346 586Q266 586 205 613T100 683L160 779Q244 701 341 701Q412 701 464 734T516 837Q516 893 486 921T407 960T301 971Q296 971 287 971T271 970H245V1089H294Q370 1089 430 1112T491 1210Q491
1271 451 1296T350 1322Q289 1322 242 1298T158 1244L100 1340Q141 1381 207 1411T352 1441Q441 1441 505 1405T601 1310Q624 1267 624 1213Q624 1146 594 1102T517 1032Q573 1007 609 959T645 834Q645 740 590 683T461 603Q405 586 346 586Z" />
<glyph unicode="&#xb4;" glyph-name="acute" horiz-adv-x="607" d="M175 1172L401 1492H613L305 1172H175Z" />
<glyph unicode="&#xb6;" glyph-name="paragraph" horiz-adv-x="1214" d="M442 -148V786Q325 788 248 846T134 990Q107 1053 107 1130Q107 1229 150 1292T266 1389T431 1437T623 1451H1009V1327H922V-148H793V1327H585V-148H442Z" />
<glyph unicode="&#xb7;" glyph-name="middot" horiz-adv-x="444" d="M76 513V723H293V513H76Z" />
<glyph unicode="&#xb8;" glyph-name="cedilla" horiz-adv-x="529" d="M227 -396Q182 -396 138 -389T52 -374L60 -289Q98 -298 134 -305T211 -313Q261 -313 293 -298T325 -241Q325 -197 293 -183T216 -168Q197 -168 180 -169T147 -173L180 17H277L259 -90H268Q346
-94 407 -126T468 -239Q468 -299 433 -333T343 -381T227 -396Z" />
<glyph unicode="&#xb9;" glyph-name="uni00B9" horiz-adv-x="595" d="M130 604V723H252V1008Q252 1052 252 1090T251 1168V1271Q218 1254 178 1236T100 1203V1333Q150 1349 189 1369T268 1412L373 1427V720H495V604H130Z" />
<glyph unicode="&#xba;" glyph-name="ordmasculine" horiz-adv-x="824" d="M416 767Q247 767 150 862T53 1124Q53 1249 111 1330T261 1448Q331 1476 415 1476Q547 1476 632 1417T751 1260Q774 1194 774 1121Q774 996 717 915T570 795Q505 767 416 767ZM416 875Q522
875 579 944T636 1119Q636 1228 579 1298T413 1369Q307 1369 250 1299T193 1123Q193 1014 249 945T416 875Z" />
<glyph unicode="&#xbb;" glyph-name="guillemotright" horiz-adv-x="1156" d="M165 171L430 542L172 914H330L600 542L325 171H165ZM563 171L824 542L570 914H726L996 542L720 171H563Z" />
<glyph unicode="&#xbc;" glyph-name="onequarter" horiz-adv-x="1592" d="M131 604V723H253V1008Q253 1052 253 1090T252 1168V1271Q219 1254 179 1236T101 1203V1333Q151 1349 190 1369T269 1412L374 1427V720H496V604H131ZM259 0L1164 1436H1313L410 0H259ZM1251
0V188H873V279L1239 797H1373V295H1482L1492 188H1371V0H1251ZM1012 295H1251V629L1012 295Z" />
<glyph unicode="&#xbd;" glyph-name="onehalf" horiz-adv-x="1610" d="M131 604V723H253V1008Q253 1052 253 1090T252 1168V1271Q219 1254 179 1236T101 1203V1333Q151 1349 190 1369T269 1412L374 1427V720H496V604H131ZM259 0L1164 1436H1313L410 0H259ZM963
0V111Q1043 184 1120 256T1264 402Q1317 461 1350 514Q1381 564 1381 607Q1381 663 1341 691T1241 719Q1170 719 1126 680T1056 588L971 666Q1003 741 1073 788T1247 836Q1336 836 1398 800T1490 703Q1510 660 1510 609Q1510 530 1478 472T1404 364Q1349 297 1282
238T1145 118H1509V0H963Z" />
<glyph unicode="&#xbe;" glyph-name="threequarters" horiz-adv-x="1741" d="M346 586Q266 586 205 613T100 683L160 779Q244 701 341 701Q412 701 464 734T516 837Q516 893 486 921T407 960T301 971Q296 971 287 971T271 970H245V1089H294Q370 1089 430 1112T491
1210Q491 1271 451 1296T350 1322Q289 1322 242 1298T158 1244L100 1340Q141 1381 207 1411T352 1441Q441 1441 505 1405T601 1310Q624 1267 624 1213Q624 1146 594 1102T517 1032Q573 1007 609 959T645 834Q645 740 590 683T461 603Q405 586 346 586ZM408 0L1313
1436H1462L559 0H408ZM1400 0V188H1022V279L1388 797H1522V295H1631L1641 188H1520V0H1400ZM1161 295H1400V629L1161 295Z" />
<glyph unicode="&#xbf;" glyph-name="questiondown" horiz-adv-x="1032" d="M726 1099Q730 1063 733 1019T736 937Q736 861 697 804T601 699T487 600T391 488T352 342Q352 266 390 221T492 155T628 136T773 156T899 205V54Q839 25 769 5T618 -16Q405 -16 294 82T183
334Q183 421 213 485T292 600T395 695T497 786T576 889T607 1020Q607 1054 601 1099H726ZM657 1467Q709 1467 736 1436T764 1361Q764 1312 731 1284T656 1256Q604 1256 577 1287T549 1362Q549 1412 583 1439T657 1467Z" />
<glyph unicode="&#xc0;" glyph-name="Agrave" horiz-adv-x="1425" d="M13 0L617 1456H802L1407 0H1216L1053 397H355L199 0H13ZM410 545H994L760 1150Q747 1182 733 1223T707 1298Q696 1264 681 1223T655 1149L410 545ZM678 1608L346 1928H560L807 1608H678Z" />
<glyph unicode="&#xc1;" glyph-name="Aacute" horiz-adv-x="1425" d="M13 0L617 1456H802L1407 0H1216L1053 397H355L199 0H13ZM410 545H994L760 1150Q747 1182 733 1223T707 1298Q696 1264 681 1223T655 1149L410 545ZM632 1602L858 1922H1070L762 1602H632Z" />
<glyph unicode="&#xc2;" glyph-name="Acircumflex" horiz-adv-x="1425" d="M13 0L617 1456H802L1407 0H1216L1053 397H355L199 0H13ZM410 545H994L760 1150Q747 1182 733 1223T707 1298Q696 1264 681 1223T655 1149L410 545ZM406 1600L634 1920H791L1020 1600H888L710
1812L532 1600H406Z" />
<glyph unicode="&#xc3;" glyph-name="Atilde" horiz-adv-x="1425" d="M13 0L617 1456H802L1407 0H1216L1053 397H355L199 0H13ZM410 545H994L760 1150Q747 1182 733 1223T707 1298Q696 1264 681 1223T655 1149L410 545ZM391 1633Q399 1720 448 1781T590 1843Q647
1843 687 1823T771 1786Q802 1775 830 1775Q870 1775 891 1801T917 1865H1035Q1025 1780 979 1715T840 1650Q792 1650 755 1667T682 1701T597 1718Q516 1718 506 1633H391Z" />
<glyph unicode="&#xc4;" glyph-name="Adieresis" horiz-adv-x="1425" d="M13 0L617 1456H802L1407 0H1216L1053 397H355L199 0H13ZM410 545H994L760 1150Q747 1182 733 1223T707 1298Q696 1264 681 1223T655 1149L410 545ZM802 1638V1811H977V1638H802ZM449 1638V1811H624V1638H449Z"
/>
<glyph unicode="&#xc5;" glyph-name="Aring" horiz-adv-x="1425" d="M13 0L617 1456H802L1407 0H1216L1053 397H355L199 0H13ZM410 545H994L760 1150Q747 1182 733 1223T707 1298Q696 1264 681 1223T655 1149L410 545ZM714 1579Q627 1579 565 1632T503 1769Q503
1859 568 1909T713 1960Q804 1960 863 1905T923 1770Q923 1712 893 1669T814 1603T714 1579ZM712 1674Q753 1674 783 1701T813 1770Q813 1813 784 1839T712 1866Q671 1866 642 1839T612 1770Q612 1727 640 1701T712 1674Z" />
<glyph unicode="&#xc6;" glyph-name="AE" horiz-adv-x="2028" d="M5 0L836 1456H1878V1308H1159L1197 820H1837V672H1216L1257 148H1901V0H1104L1073 398H427L201 0H5ZM506 546H1054L994 1308H944L506 546Z" />
<glyph unicode="&#xc7;" glyph-name="Ccedilla" horiz-adv-x="1391" d="M816 -22Q596 -22 438 73T196 337T112 726Q112 947 199 1118T445 1386T818 1483Q983 1483 1091 1439T1281 1332L1202 1206Q1126 1264 1033 1297T837 1331Q660 1331 540 1253T357 1038T295
725Q295 554 352 420T526 208T821 130Q957 130 1059 165T1238 267L1295 127Q1206 55 1087 17T816 -22ZM809 -396Q764 -396 720 -389T634 -374L642 -289Q680 -298 716 -305T793 -313Q843 -313 875 -298T907 -241Q907 -197 875 -183T798 -168Q779 -168 762 -169T729
-173L762 17H859L841 -90H850Q928 -94 989 -126T1050 -239Q1050 -299 1015 -333T925 -381T809 -396Z" />
<glyph unicode="&#xc8;" glyph-name="Egrave" horiz-adv-x="1187" d="M174 0V1456H1041V1308H346V820H1003V672H346V148H1091V0H174ZM578 1608L246 1928H460L707 1608H578Z" />
<glyph unicode="&#xc9;" glyph-name="Eacute" horiz-adv-x="1187" d="M174 0V1456H1041V1308H346V820H1003V672H346V148H1091V0H174ZM532 1602L758 1922H970L662 1602H532Z" />
<glyph unicode="&#xca;" glyph-name="Ecircumflex" horiz-adv-x="1187" d="M174 0V1456H1041V1308H346V820H1003V672H346V148H1091V0H174ZM306 1600L534 1920H691L920 1600H788L610 1812L432 1600H306Z" />
<glyph unicode="&#xcb;" glyph-name="Edieresis" horiz-adv-x="1187" d="M174 0V1456H1041V1308H346V820H1003V672H346V148H1091V0H174ZM702 1638V1811H877V1638H702ZM349 1638V1811H524V1638H349Z" />
<glyph unicode="&#xcc;" glyph-name="Igrave" horiz-adv-x="544" d="M186 0V1456H358V0H186ZM237 1608L-95 1928H119L366 1608H237Z" />
<glyph unicode="&#xcd;" glyph-name="Iacute" horiz-adv-x="544" d="M186 0V1456H358V0H186ZM191 1602L417 1922H629L321 1602H191Z" />
<glyph unicode="&#xce;" glyph-name="Icircumflex" horiz-adv-x="544" d="M186 0V1456H358V0H186ZM-35 1600L193 1920H350L579 1600H447L269 1812L91 1600H-35Z" />
<glyph unicode="&#xcf;" glyph-name="Idieresis" horiz-adv-x="544" d="M186 0V1456H358V0H186ZM361 1638V1811H536V1638H361ZM8 1638V1811H183V1638H8Z" />
<glyph unicode="&#xd0;" glyph-name="Eth" horiz-adv-x="1546" d="M193 0V658H-1V795H193V1456H508Q714 1456 883 1419T1174 1296T1363 1071T1430 724Q1430 542 1370 408T1202 186T956 51Q803 0 610 0H193ZM365 148H626Q853 148 1002 236T1210 490Q1248 596 1248
721Q1248 966 1144 1099T840 1278Q705 1308 529 1308H365V795H571V658H365V148Z" />
<glyph unicode="&#xd1;" glyph-name="Ntilde" horiz-adv-x="1570" d="M174 0V1456H380L1147 342L1225 215V1456H1396V0H1188L418 1113L346 1237V0H174ZM473 1633Q481 1720 530 1781T672 1843Q729 1843 769 1823T853 1786Q884 1775 912 1775Q952 1775 973 1801T999
1865H1117Q1107 1780 1061 1715T922 1650Q874 1650 837 1667T764 1701T679 1718Q598 1718 588 1633H473Z" />
<glyph unicode="&#xd2;" glyph-name="Ograve" horiz-adv-x="1660" d="M830 -25Q652 -25 518 36T294 204T158 446T112 728Q112 876 157 1011T293 1253T518 1421T830 1483Q1008 1483 1142 1422T1366 1254T1502 1012T1548 728Q1548 581 1503 446T1367 205T1142 37T830
-25ZM830 127Q969 127 1091 194T1288 396T1364 729Q1364 929 1289 1062T1091 1263T830 1331Q691 1331 569 1264T372 1063T296 729Q296 530 371 396T569 195T830 127ZM795 1635L463 1955H677L924 1635H795Z" />
<glyph unicode="&#xd3;" glyph-name="Oacute" horiz-adv-x="1660" d="M830 -25Q652 -25 518 36T294 204T158 446T112 728Q112 876 157 1011T293 1253T518 1421T830 1483Q1008 1483 1142 1422T1366 1254T1502 1012T1548 728Q1548 581 1503 446T1367 205T1142 37T830
-25ZM830 127Q969 127 1091 194T1288 396T1364 729Q1364 929 1289 1062T1091 1263T830 1331Q691 1331 569 1264T372 1063T296 729Q296 530 371 396T569 195T830 127ZM749 1629L975 1949H1187L879 1629H749Z" />
<glyph unicode="&#xd4;" glyph-name="Ocircumflex" horiz-adv-x="1660" d="M830 -25Q652 -25 518 36T294 204T158 446T112 728Q112 876 157 1011T293 1253T518 1421T830 1483Q1008 1483 1142 1422T1366 1254T1502 1012T1548 728Q1548 581 1503 446T1367 205T1142
37T830 -25ZM830 127Q969 127 1091 194T1288 396T1364 729Q1364 929 1289 1062T1091 1263T830 1331Q691 1331 569 1264T372 1063T296 729Q296 530 371 396T569 195T830 127ZM523 1627L751 1947H908L1137 1627H1005L827 1839L649 1627H523Z" />
<glyph unicode="&#xd5;" glyph-name="Otilde" horiz-adv-x="1660" d="M830 -25Q652 -25 518 36T294 204T158 446T112 728Q112 876 157 1011T293 1253T518 1421T830 1483Q1008 1483 1142 1422T1366 1254T1502 1012T1548 728Q1548 581 1503 446T1367 205T1142 37T830
-25ZM830 127Q969 127 1091 194T1288 396T1364 729Q1364 929 1289 1062T1091 1263T830 1331Q691 1331 569 1264T372 1063T296 729Q296 530 371 396T569 195T830 127ZM508 1660Q516 1747 565 1808T707 1870Q764 1870 804 1850T888 1813Q919 1802 947 1802Q987 1802
1008 1828T1034 1892H1152Q1142 1807 1096 1742T957 1677Q909 1677 872 1694T799 1728T714 1745Q633 1745 623 1660H508Z" />
<glyph unicode="&#xd6;" glyph-name="Odieresis" horiz-adv-x="1660" d="M830 -25Q652 -25 518 36T294 204T158 446T112 728Q112 876 157 1011T293 1253T518 1421T830 1483Q1008 1483 1142 1422T1366 1254T1502 1012T1548 728Q1548 581 1503 446T1367 205T1142
37T830 -25ZM830 127Q969 127 1091 194T1288 396T1364 729Q1364 929 1289 1062T1091 1263T830 1331Q691 1331 569 1264T372 1063T296 729Q296 530 371 396T569 195T830 127ZM919 1665V1838H1094V1665H919ZM566 1665V1838H741V1665H566Z" />
<glyph unicode="&#xd7;" glyph-name="multiply" horiz-adv-x="1458" d="M432 154L329 257L625 554L329 851L432 954L729 657L1025 954L1129 850L832 554L1129 258L1025 154L729 450L432 154Z" />
<glyph unicode="&#xd8;" glyph-name="Oslash" horiz-adv-x="1663" d="M521 -165L400 -121L476 58Q355 123 275 227T153 460T112 728Q112 876 157 1011T293 1253T518 1421T830 1483Q955 1483 1063 1450L1137 1625L1262 1581L1185 1399Q1305 1335 1386 1231T1507
997T1548 728Q1548 581 1503 446T1367 205T1142 37T830 -25Q704 -25 595 9L521 -165ZM296 729Q296 541 364 412T540 211L1001 1304Q919 1331 830 1331Q691 1331 569 1264T372 1063T296 729ZM830 127Q969 127 1091 194T1288 396T1364 729Q1364 917 1296 1046T1120
1246L657 155Q740 127 830 127Z" />
<glyph unicode="&#xd9;" glyph-name="Ugrave" horiz-adv-x="1473" d="M749 -22Q461 -22 313 115T164 541V1456H336V546Q336 123 747 123Q936 123 1037 233T1138 539V1456H1309V551Q1308 281 1165 130T749 -22ZM704 1608L372 1928H586L833 1608H704Z" />
<glyph unicode="&#xda;" glyph-name="Uacute" horiz-adv-x="1473" d="M749 -22Q461 -22 313 115T164 541V1456H336V546Q336 123 747 123Q936 123 1037 233T1138 539V1456H1309V551Q1308 281 1165 130T749 -22ZM658 1602L884 1922H1096L788 1602H658Z" />
<glyph unicode="&#xdb;" glyph-name="Ucircumflex" horiz-adv-x="1473" d="M749 -22Q461 -22 313 115T164 541V1456H336V546Q336 123 747 123Q936 123 1037 233T1138 539V1456H1309V551Q1308 281 1165 130T749 -22ZM432 1600L660 1920H817L1046 1600H914L736 1812L558
1600H432Z" />
<glyph unicode="&#xdc;" glyph-name="Udieresis" horiz-adv-x="1473" d="M749 -22Q461 -22 313 115T164 541V1456H336V546Q336 123 747 123Q936 123 1037 233T1138 539V1456H1309V551Q1308 281 1165 130T749 -22ZM828 1638V1811H1003V1638H828ZM475 1638V1811H650V1638H475Z"
/>
<glyph unicode="&#xdd;" glyph-name="Yacute" horiz-adv-x="1256" d="M537 0V582L4 1456H195L626 727L1061 1456H1252L709 585V0H537ZM546 1602L772 1922H984L676 1602H546Z" />
<glyph unicode="&#xde;" glyph-name="Thorn" horiz-adv-x="1274" d="M203 0V1456H375V1312H544Q677 1312 795 1294T1005 1228T1148 1095T1200 876Q1200 755 1148 675T1018 546Q854 443 597 443H375V0H203ZM375 592H636Q761 592 853 629T988 747Q1016 799 1016
874Q1016 994 959 1056T805 1141T588 1164H375V592Z" />
<glyph unicode="&#xdf;" glyph-name="germandbls" horiz-adv-x="1257" d="M792 -23Q684 -23 605 23T471 138L536 243Q582 191 644 150T788 109Q880 109 933 168T986 322Q986 408 947 467T858 570Q797 623 722 668T572 756L588 892Q688 937 755 1015T823 1191Q823
1286 761 1334T603 1382Q508 1382 450 1336T364 1211T337 1038Q337 962 337 878T338 711Q338 618 339 519T340 326Q340 244 340 160T341 0H176V1071Q176 1282 290 1396T604 1511Q720 1511 812 1473T957 1363T1011 1192Q1011 1115 966 1045T853 921T719 838Q712
835 703 830T693 816Q693 807 722 798Q843 763 945 703T1110 553T1173 341Q1173 226 1117 145T974 20T792 -23Z" />
<glyph unicode="&#xe0;" glyph-name="agrave" horiz-adv-x="1205" d="M506 -22Q381 -22 288 35T142 196T90 438Q90 621 162 758T363 971T666 1048Q767 1048 865 1025T1023 962V286Q1023 220 1057 180T1148 139L1114 -4Q1027 -4 963 43T882 166Q831 81 728 30T506
-22ZM531 116Q630 116 703 160T818 281T859 453V872Q828 888 774 897T663 907Q542 907 452 850T311 689T260 448Q260 299 334 208T531 116ZM595 1178L263 1498H477L724 1178H595Z" />
<glyph unicode="&#xe1;" glyph-name="aacute" horiz-adv-x="1205" d="M506 -22Q381 -22 288 35T142 196T90 438Q90 621 162 758T363 971T666 1048Q767 1048 865 1025T1023 962V286Q1023 220 1057 180T1148 139L1114 -4Q1027 -4 963 43T882 166Q831 81 728 30T506
-22ZM531 116Q630 116 703 160T818 281T859 453V872Q828 888 774 897T663 907Q542 907 452 850T311 689T260 448Q260 299 334 208T531 116ZM549 1172L775 1492H987L679 1172H549Z" />
<glyph unicode="&#xe2;" glyph-name="acircumflex" horiz-adv-x="1205" d="M506 -22Q381 -22 288 35T142 196T90 438Q90 621 162 758T363 971T666 1048Q767 1048 865 1025T1023 962V286Q1023 220 1057 180T1148 139L1114 -4Q1027 -4 963 43T882 166Q831 81 728
30T506 -22ZM531 116Q630 116 703 160T818 281T859 453V872Q828 888 774 897T663 907Q542 907 452 850T311 689T260 448Q260 299 334 208T531 116ZM323 1170L551 1490H708L937 1170H805L627 1382L449 1170H323Z" />
<glyph unicode="&#xe3;" glyph-name="atilde" horiz-adv-x="1205" d="M506 -22Q381 -22 288 35T142 196T90 438Q90 621 162 758T363 971T666 1048Q767 1048 865 1025T1023 962V286Q1023 220 1057 180T1148 139L1114 -4Q1027 -4 963 43T882 166Q831 81 728 30T506
-22ZM531 116Q630 116 703 160T818 281T859 453V872Q828 888 774 897T663 907Q542 907 452 850T311 689T260 448Q260 299 334 208T531 116ZM308 1203Q316 1290 365 1351T507 1413Q564 1413 604 1393T688 1356Q719 1345 747 1345Q787 1345 808 1371T834 1435H952Q942
1350 896 1285T757 1220Q709 1220 672 1237T599 1271T514 1288Q433 1288 423 1203H308Z" />
<glyph unicode="&#xe4;" glyph-name="adieresis" horiz-adv-x="1205" d="M506 -22Q381 -22 288 35T142 196T90 438Q90 621 162 758T363 971T666 1048Q767 1048 865 1025T1023 962V286Q1023 220 1057 180T1148 139L1114 -4Q1027 -4 963 43T882 166Q831 81 728 30T506
-22ZM531 116Q630 116 703 160T818 281T859 453V872Q828 888 774 897T663 907Q542 907 452 850T311 689T260 448Q260 299 334 208T531 116ZM719 1208V1381H894V1208H719ZM366 1208V1381H541V1208H366Z" />
<glyph unicode="&#xe5;" glyph-name="aring" horiz-adv-x="1205" d="M506 -22Q381 -22 288 35T142 196T90 438Q90 621 162 758T363 971T666 1048Q767 1048 865 1025T1023 962V286Q1023 220 1057 180T1148 139L1114 -4Q1027 -4 963 43T882 166Q831 81 728 30T506
-22ZM531 116Q630 116 703 160T818 281T859 453V872Q828 888 774 897T663 907Q542 907 452 850T311 689T260 448Q260 299 334 208T531 116ZM631 1149Q544 1149 482 1202T420 1339Q420 1429 485 1479T630 1530Q721 1530 780 1475T840 1340Q840 1282 810 1239T731
1173T631 1149ZM629 1244Q670 1244 700 1271T730 1340Q730 1383 701 1409T629 1436Q588 1436 559 1409T529 1340Q529 1297 557 1271T629 1244Z" />
<glyph unicode="&#xe6;" glyph-name="ae" horiz-adv-x="1807" d="M441 -22Q277 -22 179 59T81 282Q81 405 141 472T303 567T526 600T771 605V628Q771 752 718 829T540 907Q428 907 356 873T238 763L148 856Q251 1048 550 1048Q675 1048 760 984T877 806Q905 874
961 928T1093 1015T1251 1048Q1470 1048 1583 907T1697 524V489H942Q942 486 942 477T941 463Q941 306 1011 211T1242 115Q1358 115 1443 166T1577 292L1664 206Q1603 100 1498 39T1232 -22Q1091 -22 989 48T853 230Q802 129 704 54T441 -22ZM943 606H1534Q1521
737 1457 822T1250 907Q1153 907 1087 864T985 753T943 606ZM464 115Q629 115 701 220T773 489L627 486Q535 484 448 471T306 417T250 290Q250 195 309 155T464 115Z" />
<glyph unicode="&#xe7;" glyph-name="ccedilla" horiz-adv-x="1019" d="M634 -23Q494 -23 370 36T168 213T90 503Q90 634 136 735T261 907T438 1013T640 1050Q731 1050 820 1020T983 920L923 799Q867 853 797 879T656 906Q556 906 465 861T317 726T260 508Q260
375 316 289T461 161T651 119Q732 119 813 149T956 238L1013 112Q930 45 831 11T634 -23ZM613 -396Q568 -396 524 -389T438 -374L446 -289Q484 -298 520 -305T597 -313Q647 -313 679 -298T711 -241Q711 -197 679 -183T602 -168Q583 -168 566 -169T533 -173L566
17H663L645 -90H654Q732 -94 793 -126T854 -239Q854 -299 819 -333T729 -381T613 -396Z" />
<glyph unicode="&#xe8;" glyph-name="egrave" horiz-adv-x="1070" d="M619 -22Q467 -22 348 44T159 231T90 516Q90 657 151 778T329 973T610 1048Q718 1048 797 1009T920 902T964 751Q964 629 875 555T633 440T285 371Q305 295 356 238T476 148T619 116Q723 116
810 155T948 252L1031 146Q956 69 848 24T619 -22ZM273 490Q427 512 546 543T733 624T801 755Q801 823 752 865T611 907Q528 907 450 867T321 745T270 539Q270 514 273 490ZM527 1178L195 1498H409L656 1178H527Z" />
<glyph unicode="&#xe9;" glyph-name="eacute" horiz-adv-x="1070" d="M619 -22Q467 -22 348 44T159 231T90 516Q90 657 151 778T329 973T610 1048Q718 1048 797 1009T920 902T964 751Q964 629 875 555T633 440T285 371Q305 295 356 238T476 148T619 116Q723 116
810 155T948 252L1031 146Q956 69 848 24T619 -22ZM273 490Q427 512 546 543T733 624T801 755Q801 823 752 865T611 907Q528 907 450 867T321 745T270 539Q270 514 273 490ZM481 1172L707 1492H919L611 1172H481Z" />
<glyph unicode="&#xea;" glyph-name="ecircumflex" horiz-adv-x="1070" d="M619 -22Q467 -22 348 44T159 231T90 516Q90 657 151 778T329 973T610 1048Q718 1048 797 1009T920 902T964 751Q964 629 875 555T633 440T285 371Q305 295 356 238T476 148T619 116Q723
116 810 155T948 252L1031 146Q956 69 848 24T619 -22ZM273 490Q427 512 546 543T733 624T801 755Q801 823 752 865T611 907Q528 907 450 867T321 745T270 539Q270 514 273 490ZM255 1170L483 1490H640L869 1170H737L559 1382L381 1170H255Z" />
<glyph unicode="&#xeb;" glyph-name="edieresis" horiz-adv-x="1070" d="M619 -22Q467 -22 348 44T159 231T90 516Q90 657 151 778T329 973T610 1048Q718 1048 797 1009T920 902T964 751Q964 629 875 555T633 440T285 371Q305 295 356 238T476 148T619 116Q723
116 810 155T948 252L1031 146Q956 69 848 24T619 -22ZM273 490Q427 512 546 543T733 624T801 755Q801 823 752 865T611 907Q528 907 450 867T321 745T270 539Q270 514 273 490ZM651 1208V1381H826V1208H651ZM298 1208V1381H473V1208H298Z" />
<glyph unicode="&#xec;" glyph-name="igrave" horiz-adv-x="600" d="M434 -5Q363 -5 302 22T204 111T167 278V1026H332V283Q332 178 369 148T457 118Q480 118 517 124T580 141L600 30Q563 15 516 5T434 -5ZM473 1178L141 1498H355L602 1178H473Z" />
<glyph unicode="&#xed;" glyph-name="iacute" horiz-adv-x="600" d="M434 -5Q363 -5 302 22T204 111T167 278V1026H332V283Q332 178 369 148T457 118Q480 118 517 124T580 141L600 30Q563 15 516 5T434 -5ZM427 1172L653 1492H865L557 1172H427Z" />
<glyph unicode="&#xee;" glyph-name="icircumflex" horiz-adv-x="600" d="M434 -5Q363 -5 302 22T204 111T167 278V1026H332V283Q332 178 369 148T457 118Q480 118 517 124T580 141L600 30Q563 15 516 5T434 -5ZM201 1170L429 1490H586L815 1170H683L505 1382L327
1170H201Z" />
<glyph unicode="&#xef;" glyph-name="idieresis" horiz-adv-x="600" d="M434 -5Q363 -5 302 22T204 111T167 278V1026H332V283Q332 178 369 148T457 118Q480 118 517 124T580 141L600 30Q563 15 516 5T434 -5ZM597 1208V1381H772V1208H597ZM244 1208V1381H419V1208H244Z" />
<glyph unicode="&#xf0;" glyph-name="eth" horiz-adv-x="1190" d="M581 -23Q406 -23 289 56T122 261Q88 345 88 446Q88 608 163 713T356 864Q440 897 545 897Q809 897 918 723V733Q917 898 882 1026H620V1163H826Q781 1244 719 1302T574 1406L653 1490Q772 1444
855 1361T993 1163H1190V1026H1045Q1068 947 1080 860T1093 672Q1093 439 1024 268T798 22Q702 -23 581 -23ZM573 118Q686 118 759 170T867 311T903 512V536Q870 632 785 694T572 757Q423 757 344 673T264 441Q264 329 315 253T446 142Q503 118 573 118Z" />
<glyph unicode="&#xf1;" glyph-name="ntilde" horiz-adv-x="1248" d="M1158 -19Q1049 -35 992 -7T914 93T893 284V562Q893 744 843 825T677 907Q605 907 531 872T404 761T343 565V0H179V699Q179 786 149 851T84 974L249 1026Q276 985 298 943T328 851Q373 940
481 994T712 1048Q886 1048 972 934T1058 565V320Q1058 244 1061 195T1088 127T1174 119L1158 -19ZM313 1203Q321 1290 370 1351T512 1413Q569 1413 609 1393T693 1356Q724 1345 752 1345Q792 1345 813 1371T839 1435H957Q947 1350 901 1285T762 1220Q714 1220
677 1237T604 1271T519 1288Q438 1288 428 1203H313Z" />
<glyph unicode="&#xf2;" glyph-name="ograve" horiz-adv-x="1230" d="M622 -22Q463 -22 344 44T159 231T92 511Q92 672 158 793T343 981T621 1048Q778 1048 895 981T1077 794T1142 513Q1142 353 1077 233T895 45T622 -22ZM622 116Q780 116 876 224T972 511Q972
690 876 798T621 907Q460 907 361 798T262 509Q262 332 361 224T622 116ZM586 1178L254 1498H468L715 1178H586Z" />
<glyph unicode="&#xf3;" glyph-name="oacute" horiz-adv-x="1230" d="M622 -22Q463 -22 344 44T159 231T92 511Q92 672 158 793T343 981T621 1048Q778 1048 895 981T1077 794T1142 513Q1142 353 1077 233T895 45T622 -22ZM622 116Q780 116 876 224T972 511Q972
690 876 798T621 907Q460 907 361 798T262 509Q262 332 361 224T622 116ZM540 1172L766 1492H978L670 1172H540Z" />
<glyph unicode="&#xf4;" glyph-name="ocircumflex" horiz-adv-x="1230" d="M622 -22Q463 -22 344 44T159 231T92 511Q92 672 158 793T343 981T621 1048Q778 1048 895 981T1077 794T1142 513Q1142 353 1077 233T895 45T622 -22ZM622 116Q780 116 876 224T972 511Q972
690 876 798T621 907Q460 907 361 798T262 509Q262 332 361 224T622 116ZM314 1170L542 1490H699L928 1170H796L618 1382L440 1170H314Z" />
<glyph unicode="&#xf5;" glyph-name="otilde" horiz-adv-x="1230" d="M622 -22Q463 -22 344 44T159 231T92 511Q92 672 158 793T343 981T621 1048Q778 1048 895 981T1077 794T1142 513Q1142 353 1077 233T895 45T622 -22ZM622 116Q780 116 876 224T972 511Q972
690 876 798T621 907Q460 907 361 798T262 509Q262 332 361 224T622 116ZM299 1203Q307 1290 356 1351T498 1413Q555 1413 595 1393T679 1356Q710 1345 738 1345Q778 1345 799 1371T825 1435H943Q933 1350 887 1285T748 1220Q700 1220 663 1237T590 1271T505 1288Q424
1288 414 1203H299Z" />
<glyph unicode="&#xf6;" glyph-name="odieresis" horiz-adv-x="1230" d="M622 -22Q463 -22 344 44T159 231T92 511Q92 672 158 793T343 981T621 1048Q778 1048 895 981T1077 794T1142 513Q1142 353 1077 233T895 45T622 -22ZM622 116Q780 116 876 224T972 511Q972
690 876 798T621 907Q460 907 361 798T262 509Q262 332 361 224T622 116ZM710 1208V1381H885V1208H710ZM357 1208V1381H532V1208H357Z" />
<glyph unicode="&#xf7;" glyph-name="divide" horiz-adv-x="1458" d="M626 873V1083H843V873H626ZM205 485V624H1253V485H205ZM626 21V231H843V21H626Z" />
<glyph unicode="&#xf8;" glyph-name="oslash" horiz-adv-x="1238" d="M346 -261L247 -229L359 37Q234 100 163 223T92 511Q92 672 158 793T343 981T621 1048Q704 1048 779 1028L884 1277L987 1245L878 990Q1002 926 1072 803T1142 513Q1142 353 1077 233T895 45T622
-22Q534 -22 457 -1L346 -261ZM262 509Q262 397 303 311T418 175L722 894Q674 907 621 907Q460 907 361 798T262 509ZM622 116Q780 116 876 224T972 511Q972 625 932 712T818 849L513 131Q564 116 622 116Z" />
<glyph unicode="&#xf9;" glyph-name="ugrave" horiz-adv-x="1199" d="M522 -22Q425 -22 337 15T195 138T145 365L151 582Q156 742 142 831T111 958T92 1000L257 1026Q260 1021 276 986T306 860T316 595L310 365Q308 267 342 213T431 138T547 116Q630 116 698 153T808
259T850 427V1026H1014V302Q1014 193 1050 157T1155 135L1139 -3Q1021 -25 953 24T875 164Q760 -22 522 -22ZM565 1178L233 1498H447L694 1178H565Z" />
<glyph unicode="&#xfa;" glyph-name="uacute" horiz-adv-x="1199" d="M522 -22Q425 -22 337 15T195 138T145 365L151 582Q156 742 142 831T111 958T92 1000L257 1026Q260 1021 276 986T306 860T316 595L310 365Q308 267 342 213T431 138T547 116Q630 116 698 153T808
259T850 427V1026H1014V302Q1014 193 1050 157T1155 135L1139 -3Q1021 -25 953 24T875 164Q760 -22 522 -22ZM519 1172L745 1492H957L649 1172H519Z" />
<glyph unicode="&#xfb;" glyph-name="ucircumflex" horiz-adv-x="1199" d="M522 -22Q425 -22 337 15T195 138T145 365L151 582Q156 742 142 831T111 958T92 1000L257 1026Q260 1021 276 986T306 860T316 595L310 365Q308 267 342 213T431 138T547 116Q630 116
698 153T808 259T850 427V1026H1014V302Q1014 193 1050 157T1155 135L1139 -3Q1021 -25 953 24T875 164Q760 -22 522 -22ZM293 1170L521 1490H678L907 1170H775L597 1382L419 1170H293Z" />
<glyph unicode="&#xfc;" glyph-name="udieresis" horiz-adv-x="1199" d="M522 -22Q425 -22 337 15T195 138T145 365L151 582Q156 742 142 831T111 958T92 1000L257 1026Q260 1021 276 986T306 860T316 595L310 365Q308 267 342 213T431 138T547 116Q630 116 698
153T808 259T850 427V1026H1014V302Q1014 193 1050 157T1155 135L1139 -3Q1021 -25 953 24T875 164Q760 -22 522 -22ZM689 1208V1381H864V1208H689ZM336 1208V1381H511V1208H336Z" />
<glyph unicode="&#xfd;" glyph-name="yacute" horiz-adv-x="1186" d="M527 -494Q451 -494 359 -478T191 -433L210 -280Q279 -314 362 -335T513 -357Q670 -357 766 -271T862 -44V128Q747 -22 534 -22Q437 -22 349 15T207 138T157 365L163 582Q168 742 154 831T123
957T104 1000L269 1026Q271 1021 287 986T318 860T328 595L322 365Q320 267 354 213T443 138T559 116Q642 116 710 153T820 259T862 427V1026H1026V-23Q1026 -164 964 -270T789 -435T527 -494ZM485 1172L711 1492H923L615 1172H485Z" />
<glyph unicode="&#xfe;" glyph-name="thorn" horiz-adv-x="1239" d="M158 -427V1455H325V882Q381 957 464 1004T668 1051Q851 1051 959 960T1110 728Q1139 630 1139 527Q1139 345 1068 215T874 22Q786 -23 668 -23Q452 -23 323 135V-427H158ZM644 109Q757 109
827 165T930 315T963 521Q963 633 932 722T832 864T650 917Q531 917 459 861T355 709T323 494Q323 364 370 273T506 138Q567 109 644 109Z" />
<glyph unicode="&#xff;" glyph-name="ydieresis" horiz-adv-x="1186" d="M527 -494Q451 -494 359 -478T191 -433L210 -280Q279 -314 362 -335T513 -357Q670 -357 766 -271T862 -44V128Q747 -22 534 -22Q437 -22 349 15T207 138T157 365L163 582Q168 742 154 831T123
957T104 1000L269 1026Q271 1021 287 986T318 860T328 595L322 365Q320 267 354 213T443 138T559 116Q642 116 710 153T820 259T862 427V1026H1026V-23Q1026 -164 964 -270T789 -435T527 -494ZM655 1208V1381H830V1208H655ZM302 1208V1381H477V1208H302Z" />
<glyph unicode="&#x2013;" glyph-name="endash" horiz-adv-x="1085" d="M-6 489V626H1084V489H-6Z" />
<glyph unicode="&#x2014;" glyph-name="emdash" horiz-adv-x="2171" d="M-3 489V626H2160V489H-3Z" />
<glyph unicode="&#x2018;" glyph-name="quoteleft" horiz-adv-x="553" d="M130 1023L284 1463H416L312 1023H130Z" />
<glyph unicode="&#x2019;" glyph-name="quoteright" horiz-adv-x="553" d="M140 1023L245 1463H426L272 1023H140Z" />
<glyph unicode="&#x201a;" glyph-name="quotesinglbase" horiz-adv-x="553" d="M125 -238L231 201H412L258 -238H125Z" />
<glyph unicode="&#x201c;" glyph-name="quotedblleft" horiz-adv-x="1024" d="M528 1023L682 1463H815L711 1023H528ZM179 1023L333 1463H466L361 1023H179Z" />
<glyph unicode="&#x201d;" glyph-name="quotedblright" horiz-adv-x="1024" d="M534 1023L639 1463H821L667 1023H534ZM208 1023L312 1463H494L341 1023H208Z" />
<glyph unicode="&#x201e;" glyph-name="quotedblbase" horiz-adv-x="1024" d="M537 -238L641 201H824L670 -238H537ZM178 -238L283 201H465L312 -238H178Z" />
<glyph unicode="&#x2022;" glyph-name="bullet" horiz-adv-x="989" d="M493 385Q378 385 299 440T183 575Q157 632 157 694Q157 805 221 878T368 985Q428 1010 498 1010Q612 1010 690 955T806 820Q833 763 833 701Q833 628 803 572T732 478Q691 439 630 412T493 385Z" />
<glyph unicode="&#x2039;" glyph-name="guilsinglleft" horiz-adv-x="642" d="M374 171L105 541L379 914H538L275 541L530 171H374Z" />
<glyph unicode="&#x203a;" glyph-name="guilsinglright" horiz-adv-x="642" d="M103 171L365 542L111 914H266L537 542L260 171H103Z" />
</font>
</defs>
</svg>
