<?xml version="1.0" standalone="no"?>
<!DOCTYPE svg PUBLIC "-//W3C//DTD SVG 1.1//EN" "http://www.w3.org/Graphics/SVG/1.1/DTD/svg11.dtd">
<svg xmlns="http://www.w3.org/2000/svg">
<defs >
<font id="CharisSIL" horiz-adv-x="1118" ><font-face
    font-family="Charis SIL"
    units-per-em="2048"
    panose-1="2 0 5 0 6 0 0 2 0 4"
    ascent="2450"
    descent="-900"
    alphabetic="0" />
<glyph unicode=" " glyph-name="space" horiz-adv-x="600" />
<glyph unicode="!" glyph-name="exclam" horiz-adv-x="692" d="M471 1274Q471 1266 466 1198T452 1026T434 810T417 597T403 434T397 371H297Q297 371 292 434T278 597T259 810T241 1026T227 1197T221 1274Q221 1336 251 1371T346 1407Q411 1407 441 1372T471
1274ZM473 102Q473 52 436 14T346 -25Q294 -25 258 13T221 102Q221 155 257 191T346 227Q399 227 436 191T473 102Z" />
<glyph unicode="&quot;" glyph-name="quotedbl" horiz-adv-x="682" d="M594 1362L522 862H489L420 1362Q420 1462 506 1462Q594 1462 594 1362ZM262 1362L193 862H160L88 1362Q88 1462 176 1462Q262 1462 262 1362Z" />
<glyph unicode="#" glyph-name="numbersign" horiz-adv-x="1522" d="M1397 862H1073L977 569H1307V467H940L768 -47L666 -14L825 467H528L354 -47L254 -12L418 467H127V569H451L551 862H219V967H586L750 1450L854 1417L696 967H995L1157 1450L1266 1417L1110 967H1397V862ZM961
862H664L563 569H860L961 862Z" />
<glyph unicode="$" glyph-name="dollar" horiz-adv-x="1153" d="M1034 389Q1034 295 991 224T881 103T747 29T627 0V-211H532V0Q456 5 340 13T119 53V401H221L258 172Q286 138 367 119T532 100V618Q443 639 356 681T210 799T152 991Q152 1084 188 1151T283 1263T407
1333T535 1368V1522H629V1374Q717 1374 796 1363T926 1339T977 1327V1004H870L840 1221Q792 1274 629 1274V786Q696 766 767 741T898 673T996 563T1034 389ZM535 813V1266Q453 1249 398 1191T342 1032Q342 966 372 923T448 855T535 813ZM848 350Q848 425 817 472T736
547T627 594V109Q714 124 781 182T848 350Z" />
<glyph unicode="%" glyph-name="percent" horiz-adv-x="1761" d="M1696 397Q1696 276 1662 179T1558 24T1382 -33Q1277 -33 1207 24T1102 178T1067 397Q1067 519 1102 616T1207 770T1382 827Q1488 827 1557 771T1661 617T1696 397ZM1380 1374L512 0H383L1253 1374H1380ZM694
977Q694 855 660 758T556 604T381 547Q276 547 206 603T101 757T66 977Q66 1099 101 1196T206 1350T381 1407Q487 1407 556 1351T659 1197T694 977ZM1538 397Q1538 558 1502 654T1382 750Q1300 750 1261 654T1221 397Q1221 236 1260 140T1382 43Q1465 43 1501 139T1538
397ZM537 977Q537 1138 501 1233T381 1329Q298 1329 259 1234T219 977Q219 816 258 721T381 625Q464 625 500 720T537 977Z" />
<glyph unicode="&amp;" glyph-name="ampersand" horiz-adv-x="1432" d="M1391 0H1014V49L922 152Q869 110 809 70T676 2T506 -25Q389 -25 292 28T138 172T80 381Q80 516 156 603T354 741Q332 764 291 808T216 915T182 1055Q182 1158 233 1235T372 1357T571 1401Q675
1401 756 1361T885 1251T932 1092Q932 992 888 925T775 812T631 733L975 362Q1007 404 1044 473T1090 602Q1092 611 1081 625T1055 641L944 657V743H1364V657L1217 635Q1188 531 1138 441T1042 289L1208 98L1391 88V0ZM743 1079Q743 1167 696 1233T551 1300Q468
1300 418 1244T367 1108Q367 1040 399 984T475 884T557 803Q646 847 694 911T743 1079ZM856 223L434 682Q373 639 330 580T287 428Q287 336 326 264T433 151T584 109Q678 109 741 144T856 223Z" />
<glyph unicode="&apos;" glyph-name="quotesingle" horiz-adv-x="350" d="M262 1362L193 862H160L88 1362Q88 1462 174 1462Q262 1462 262 1362Z" />
<glyph unicode="(" glyph-name="parenleft" horiz-adv-x="770" d="M702 -291Q542 -273 431 -197T251 -1T152 271T121 590Q121 757 152 908T251 1178T430 1374T702 1468V1378Q486 1343 399 1137T311 590Q311 363 349 194T472 -76T702 -201V-291Z" />
<glyph unicode=")" glyph-name="parenright" horiz-adv-x="770" d="M651 590Q651 422 620 271T521 0T342 -197T70 -291V-201Q214 -177 299 -77T422 193T459 590Q459 817 422 985T300 1254T70 1378V1468Q231 1450 342 1374T521 1179T620 908T651 590Z" />
<glyph unicode="*" glyph-name="asterisk" horiz-adv-x="1024" d="M915 1167L823 1051L559 1036L549 1065L770 1210L915 1167ZM598 1341L526 1085H498L428 1341L512 1466L598 1341ZM760 690L618 743L524 989L549 1008L756 842L760 690ZM475 1065L467 1036L201
1051L109 1167L254 1210L475 1065ZM500 989L406 743L264 690L268 842L475 1008L500 989Z" />
<glyph unicode="+" glyph-name="plus" horiz-adv-x="2048" d="M1638 551H1087V0H961V551H410V678H961V1229H1087V678H1638V551Z" />
<glyph unicode="," glyph-name="comma" horiz-adv-x="573" d="M422 20Q422 -82 372 -162T241 -291T66 -348V-274Q175 -250 234 -188T291 14H162Q158 19 142 43T125 109Q125 162 161 206T252 250Q340 250 381 185T422 20Z" />
<glyph unicode="-" glyph-name="hyphen" horiz-adv-x="655" d="M565 416H90V569H565V416Z" />
<glyph unicode="." glyph-name="period" horiz-adv-x="573" d="M401 113Q401 56 360 16T262 -25Q205 -25 165 15T125 113Q125 169 165 209T262 250Q319 250 360 210T401 113Z" />
<glyph unicode="/" glyph-name="slash" horiz-adv-x="1004" d="M1004 1374L131 -190H0L872 1374H1004Z" />
<glyph unicode="0" glyph-name="zero" horiz-adv-x="1153" d="M1071 686Q1071 539 1041 409T949 180T794 24T575 -33Q450 -33 358 23T204 179T112 409T82 686Q82 833 112 963T203 1193T357 1350T575 1407Q700 1407 793 1350T948 1193T1040 963T1071 686ZM854 686Q854
801 841 911T797 1111T711 1252T575 1305Q494 1305 440 1253T355 1111T310 912T297 686Q297 571 310 461T354 263T440 123T575 70Q657 70 711 122T796 263T841 461T854 686Z" />
<glyph unicode="1" glyph-name="one" horiz-adv-x="1153" d="M913 0H221V92L428 100Q447 100 460 113T473 145V1233L156 1178V1270L598 1407H676V145Q676 127 689 114T721 100L913 92V0Z" />
<glyph unicode="2" glyph-name="two" horiz-adv-x="1153" d="M1057 0H96V137Q252 266 382 375T609 583T758 781T811 987Q811 1135 725 1215T518 1296Q446 1296 401 1271T348 1243V1016Q348 1016 322 999T248 981Q200 981 163 1011T125 1102Q125 1188 187 1257T353
1366T575 1407Q709 1407 812 1357T973 1217T1032 1008Q1032 900 973 797T811 591T580 385T313 172H920L956 348H1057V0Z" />
<glyph unicode="3" glyph-name="three" horiz-adv-x="1153" d="M1057 391Q1057 267 984 172T790 22T520 -33Q382 -33 288 6T145 102T96 209Q96 250 126 284T217 319Q229 319 251 317T287 305L348 123Q388 100 432 85T526 70Q622 70 694 116T806 235T846 391Q846
491 798 547T678 626T539 649Q485 649 450 645T414 641V768Q417 768 434 767T467 766Q553 766 628 793T749 878T795 1026Q795 1112 757 1172T658 1263T526 1294Q472 1294 431 1280T366 1252T342 1237V1032Q336 1029 312 1018T250 1006Q213 1006 172 1030T131 1120Q131
1198 193 1263T358 1367T584 1407Q703 1407 798 1364T948 1241T1004 1053Q1004 938 922 852T688 723Q774 719 859 683T1000 576T1057 391Z" />
<glyph unicode="4" glyph-name="four" horiz-adv-x="1153" d="M1071 408H897V-33H705V408H82V549L754 1407H897V547H1071V408ZM705 547V1145L244 547H705Z" />
<glyph unicode="5" glyph-name="five" horiz-adv-x="1153" d="M1059 444Q1059 305 993 198T799 29T481 -33Q375 -33 287 5T145 99T92 209Q92 265 129 294T221 324Q238 324 254 321T276 315L354 127Q379 104 428 86T512 68Q621 68 696 119T810 247T850 395Q850
568 750 650T500 733Q450 733 394 723T287 699T206 675T174 664V1374H965V1200H319V811Q322 811 362 824T465 851T596 864Q810 864 934 754T1059 444Z" />
<glyph unicode="6" glyph-name="six" horiz-adv-x="1153" d="M1071 469Q1071 320 1004 207T825 30T573 -33Q435 -33 324 28T148 227T82 588Q82 833 178 1017T458 1304T901 1407V1280L831 1282Q701 1286 589 1225T401 1046T303 766Q388 840 473 867T645 895Q774
895 870 840T1018 688T1071 469ZM862 442Q862 593 786 677T573 762Q507 762 432 734T297 659Q294 627 294 599T293 547Q293 408 322 301T413 134T573 74Q672 74 736 123T831 256T862 442Z" />
<glyph unicode="7" glyph-name="seven" horiz-adv-x="1153" d="M1067 1260L395 35V-33H178L854 1200H223L190 1014H86V1374H1067V1260Z" />
<glyph unicode="8" glyph-name="eight" horiz-adv-x="1153" d="M1069 373Q1069 256 1005 164T829 20T575 -33Q425 -33 314 19T143 162T82 369Q82 462 123 527T232 637T375 711Q319 734 264 776T173 879T137 1022Q137 1140 192 1226T345 1359T575 1407Q700 1407
799 1361T956 1234T1014 1055Q1014 968 973 903T874 794T764 723Q830 700 900 658T1020 546T1069 373ZM825 1036Q825 1162 751 1232T575 1303Q505 1303 453 1270T370 1184T340 1069Q340 962 429 892T676 762Q739 808 782 875T825 1036ZM862 340Q862 425 815 478T677
573T457 666Q380 624 326 560T272 385Q272 253 349 166T575 78Q664 78 728 115T827 212T862 340Z" />
<glyph unicode="9" glyph-name="nine" horiz-adv-x="1153" d="M1071 786Q1071 542 974 358T694 70T250 -33V94L319 92Q450 88 562 149T752 328T850 608Q765 535 680 507T508 479Q379 479 283 534T135 685T82 903Q82 1053 148 1166T327 1343T578 1407Q716 1407
828 1346T1005 1148T1071 786ZM858 827Q858 967 829 1073T738 1240T578 1300Q480 1300 416 1251T320 1118T289 932Q289 781 365 697T578 612Q644 612 719 640T854 715Q857 747 857 776T858 827Z" />
<glyph unicode=":" glyph-name="colon" horiz-adv-x="573" d="M401 874Q401 818 360 778T262 737Q205 737 165 777T125 874Q125 931 165 971T262 1012Q319 1012 360 972T401 874ZM401 113Q401 56 360 16T262 -25Q205 -25 165 15T125 113Q125 169 165 209T262 250Q319
250 360 210T401 113Z" />
<glyph unicode=";" glyph-name="semicolon" horiz-adv-x="573" d="M399 874Q399 818 359 778T262 737Q205 737 165 777T125 874Q125 931 166 971T264 1012Q321 1012 360 972T399 874ZM422 20Q422 -82 372 -162T241 -291T66 -348V-274Q175 -250 234 -188T291 14H162Q158
19 142 43T125 109Q125 162 161 206T252 250Q340 250 381 185T422 20Z" />
<glyph unicode="&lt;" glyph-name="less" horiz-adv-x="2048" d="M1638 80L410 551V678L1638 1149V1022L541 614L1638 207V80Z" />
<glyph unicode="=" glyph-name="equal" horiz-adv-x="2048" d="M1638 737H410V864H1638V737ZM1638 365H410V492H1638V365Z" />
<glyph unicode="&gt;" glyph-name="greater" horiz-adv-x="2048" d="M1638 551L410 80V207L1507 614L410 1022V1149L1638 678V551Z" />
<glyph unicode="?" glyph-name="question" horiz-adv-x="995" d="M854 1040Q854 943 816 871T719 747T592 659T465 596V369H350V666Q415 688 483 733T599 850T647 1024Q647 1167 571 1237T354 1307L270 1098Q270 1098 255 1097T236 1096Q181 1096 142 1122T102
1206Q102 1255 137 1301T244 1377T428 1407Q549 1407 645 1362T798 1235T854 1040ZM537 100Q537 48 500 12T410 -25Q358 -25 322 12T285 102Q285 155 321 191T410 227Q463 227 500 190T537 100Z" />
<glyph unicode="@" glyph-name="at" horiz-adv-x="1917" d="M1769 764Q1769 608 1721 487T1597 284T1434 158T1270 115Q1185 115 1148 157T1110 285Q1031 205 958 161T813 117Q701 117 629 207T557 451Q557 568 600 669T715 847T879 965T1067 1008Q1111 1008 1167
993T1268 952L1305 999H1419Q1417 991 1406 944T1379 828T1346 683T1314 541T1290 433T1280 391Q1263 321 1280 276T1356 231Q1401 231 1455 268T1558 374T1638 542T1669 762Q1669 906 1621 1012T1491 1188T1307 1291T1096 1325Q921 1325 775 1265T521 1097T356
843T297 526Q297 318 382 151T627 -113T1014 -211Q1193 -211 1327 -161T1554 -59L1583 -133Q1445 -206 1294 -259T965 -313Q800 -313 653 -258T393 -99T215 154T150 489Q150 717 228 890T438 1180T734 1356T1069 1415Q1272 1415 1430 1340T1678 1120T1769 764ZM1196
805Q1200 823 1185 850T1141 900T1075 922Q974 922 900 861T785 697T745 469Q745 359 787 304T905 248Q974 248 1028 294T1114 381L1196 805Z" />
<glyph unicode="A" glyph-name="A" horiz-adv-x="1380" d="M1370 0H883V88L1001 98Q1011 98 1018 112T1022 133L881 508H408L272 139Q268 127 279 113T301 98L422 88V0H10V88L129 113L606 1407H760L1235 143Q1243 122 1249 115T1278 104L1370 88V0ZM844 606L643
1143L444 606H844Z" />
<glyph unicode="B" glyph-name="B" horiz-adv-x="1239" d="M1159 406Q1159 282 1109 203T980 79T810 17T639 0H66V88L174 96Q196 98 206 112T217 141V1233Q217 1248 207 1262T174 1278L66 1286V1374H614Q859 1374 967 1286T1075 1044Q1075 942 1027 878T910 780T780
729Q872 729 959 699T1102 598T1159 406ZM854 1030Q854 1150 776 1215T539 1280Q507 1280 470 1277T422 1274V756Q422 756 450 755T496 754Q696 754 775 826T854 1030ZM936 389Q936 529 853 594T606 659Q573 659 532 656T460 650T422 647V106Q422 106 445 105T499
102T549 100Q764 100 850 172T936 389Z" />
<glyph unicode="C" glyph-name="C" horiz-adv-x="1284" d="M1204 47Q1199 45 1141 25T991 -14T795 -33Q623 -33 490 26T266 188T127 419T80 690Q80 902 170 1063T421 1316T797 1407Q897 1407 988 1386T1204 1327V1006H1081L1051 1192Q1050 1206 1038 1220T1016
1239Q993 1250 939 1271T807 1292Q668 1292 557 1224T380 1021T315 690Q315 404 453 242T834 80Q906 80 951 97T999 115Q1031 127 1038 156L1085 379H1204V47Z" />
<glyph unicode="D" glyph-name="D" horiz-adv-x="1425" d="M1346 690Q1346 556 1307 432T1184 211T964 57T635 0H66V88L174 96Q196 98 207 112T219 141V1233Q219 1248 208 1262T174 1278L66 1286V1374H594Q809 1374 979 1302T1247 1078T1346 690ZM1114 686Q1114
901 1049 1030T864 1218T582 1276H426V98L592 100Q750 102 867 160T1049 347T1114 686Z" />
<glyph unicode="E" glyph-name="E" horiz-adv-x="1194" d="M1128 0H66V88L172 96Q194 98 205 112T217 141V1233Q217 1248 206 1262T172 1278L66 1286V1374H1061V1069H938L907 1237Q906 1252 895 1264T870 1276H426V766H733Q747 766 758 778T770 801L791 942H895V485H791L770
627Q770 638 758 651T733 664H426V100H944Q957 100 968 114T981 139L1018 342H1128V0Z" />
<glyph unicode="F" glyph-name="F" horiz-adv-x="1108" d="M1047 1049H926L897 1237Q894 1252 885 1263T862 1274H426V741H739Q753 741 764 754T776 778L795 922H897V461H795L776 604Q775 615 764 628T739 641H426V141Q426 126 436 112T469 96L606 88V0H68V88L176
96Q198 98 208 112T219 141V1233Q219 1248 209 1262T176 1278L51 1286V1374H1047V1049Z" />
<glyph unicode="G" glyph-name="G" horiz-adv-x="1423" d="M1372 575L1268 565Q1246 564 1236 551T1225 522V49Q1225 49 1164 29T1004 -12T795 -33Q624 -33 491 26T267 186T128 418T80 690Q80 905 169 1066T425 1317T821 1407Q937 1407 1033 1385T1223 1337V1006H1100L1067
1190Q1064 1208 1052 1220T1026 1239Q997 1251 941 1271T813 1292Q666 1292 553 1224T377 1023T313 700Q313 405 455 244T838 82Q906 82 958 97T1018 113V522Q1018 538 1008 551T975 565L838 575V664H1372V575Z" />
<glyph unicode="H" glyph-name="H" horiz-adv-x="1522" d="M1456 0H938V88L1055 96Q1076 98 1087 112T1098 141V670H424V141Q424 126 434 112T467 96L584 88V0H66V88L172 96Q194 98 205 112T217 141V1233Q217 1248 206 1261T172 1276L66 1284V1374H584V1284L467
1276Q445 1275 435 1262T424 1233V772H1098V1233Q1098 1248 1087 1261T1055 1276L938 1284V1374H1456V1284L1350 1276Q1328 1275 1317 1262T1305 1233V141Q1305 126 1316 112T1350 96L1456 88V0Z" />
<glyph unicode="I" glyph-name="I" horiz-adv-x="676" d="M608 0H68V88L190 96Q212 98 222 112T233 141V1233Q233 1248 223 1261T190 1276L68 1284V1374H608V1284L483 1276Q462 1275 451 1262T440 1233V141Q440 126 451 112T483 96L608 88V0Z" />
<glyph unicode="J" glyph-name="J" horiz-adv-x="993" d="M940 1286L821 1278Q800 1277 789 1263T778 1233V518Q778 348 735 225T593 34T328 -33Q262 -33 201 -20T98 8T51 25V375H174L219 125Q225 94 253 83T313 72Q453 72 512 180T571 504V1233Q571 1248 561
1262T528 1278L399 1286V1374H940V1286Z" />
<glyph unicode="K" glyph-name="K" horiz-adv-x="1307" d="M1307 0H948V63L567 610H424V141Q424 126 435 112T469 96L586 88V0H66V88L174 96Q196 98 206 112T217 141V1233Q217 1248 207 1262T174 1278L66 1286V1374H586V1286L469 1278Q447 1277 436 1263T424 1233V696H498L944
1241Q952 1250 946 1262T928 1276L823 1286V1374H1257V1286Q1257 1286 1225 1283T1158 1275T1118 1270L700 770L1159 98L1307 88V0Z" />
<glyph unicode="L" glyph-name="L" horiz-adv-x="1087" d="M1051 0H55V88L174 96Q196 98 206 112T217 141V1233Q217 1248 207 1262T174 1278L55 1286V1374H578V1286L469 1278Q447 1277 436 1263T424 1233V100H854Q868 100 883 111T899 135L932 381H1051V0Z" />
<glyph unicode="M" glyph-name="M" horiz-adv-x="1794" d="M1731 0H1214V88L1323 96Q1345 98 1356 112T1368 141V1270L897 0H795L340 1251V141Q340 126 351 112T385 96L502 88V0H59V88L176 96Q198 98 208 112T219 141V1233Q219 1248 209 1262T176 1278L59 1286V1374H518V1319L889
313L1260 1313V1374H1731V1286L1620 1278Q1598 1277 1587 1263T1575 1233V141Q1575 126 1586 112T1620 96L1731 88V0Z" />
<glyph unicode="N" glyph-name="N" horiz-adv-x="1477" d="M1417 1286L1303 1278Q1281 1277 1271 1263T1260 1233V0H1100L338 1147V141Q338 126 348 112T381 96L498 88V0H55V88L172 96Q194 98 205 112T217 141V1233Q217 1248 206 1262T172 1278L51 1286V1374H457V1323L1139
293V1233Q1139 1248 1128 1262T1096 1278L979 1286V1374H1417V1286Z" />
<glyph unicode="O" glyph-name="O" horiz-adv-x="1497" d="M1417 686Q1417 537 1370 407T1234 178T1023 23T750 -33Q549 -33 399 61T164 319T80 688Q80 838 126 968T261 1197T472 1351T748 1407Q900 1407 1023 1351T1234 1196T1369 966T1417 686ZM1180 684Q1180
851 1132 988T989 1208T750 1290Q602 1290 506 1208T362 988T315 688Q315 524 362 386T504 164T745 80Q893 80 989 163T1132 384T1180 684Z" />
<glyph unicode="P" glyph-name="P" horiz-adv-x="1186" d="M1106 961Q1106 810 1034 711T841 562T571 514Q531 514 483 517T426 522V141Q426 126 436 112T469 96L604 88V0H66V88L174 96Q196 98 207 112T219 141V1233Q219 1248 208 1262T174 1278L51 1286V1374H541Q831
1374 968 1281T1106 961ZM893 958Q893 1107 810 1190T530 1274Q502 1274 464 1273T426 1272V627Q431 627 471 622T541 616Q702 615 797 697T893 958Z" />
<glyph unicode="Q" glyph-name="Q" horiz-adv-x="1513" d="M1434 686Q1434 502 1367 352T1173 104T868 -23Q870 -138 940 -204T1151 -270Q1211 -270 1272 -261T1348 -248V-336Q1334 -339 1285 -347T1171 -363T1044 -371Q828 -371 739 -278T649 -27Q486 -3 357
89T154 334T80 686Q80 836 127 967T263 1197T476 1351T754 1407Q962 1407 1114 1311T1350 1052T1434 686ZM1192 686Q1192 847 1146 985T1003 1207T756 1292Q607 1292 510 1210T366 990T319 690Q319 530 367 391T512 166T756 80Q904 80 1000 164T1144 387T1192 686Z"
/>
<glyph unicode="R" glyph-name="R" horiz-adv-x="1329" d="M1329 -6Q1316 -7 1278 -20T1194 -33Q1089 -33 1028 2T933 94T880 221T840 358T785 484T687 577T516 612Q484 612 456 610T424 608V141Q424 126 434 112T467 96L575 88V0H66V88L172 96Q194 98 205 112T217
141V1233Q217 1248 206 1262T172 1278L66 1286V1374H600Q833 1374 967 1294T1102 1010Q1102 903 1054 835T930 727T766 668Q861 645 914 603T994 506T1033 394T1059 281T1098 182T1179 112T1329 86V-6ZM879 1001Q879 1132 796 1203T518 1274Q518 1274 496 1274T451
1274T424 1274V713Q429 713 465 712T526 711Q697 711 788 774T879 1001Z" />
<glyph unicode="S" glyph-name="S" horiz-adv-x="1067" d="M987 385Q987 282 932 186T757 29T444 -33Q323 -33 225 -8T80 43V406H209L236 174Q238 162 249 148T270 129Q302 113 353 98T477 82Q608 82 693 146T778 324Q778 395 733 445T608 541T418 637Q334 677
262 722T146 835T102 1006Q102 1128 164 1218T333 1357T575 1407Q682 1407 775 1384T936 1337V1018H819L788 1214Q787 1225 777 1234T758 1249Q742 1260 701 1278T578 1296Q455 1296 384 1228T313 1055Q313 961 386 899T598 784Q784 714 885 627T987 385Z" />
<glyph unicode="T" glyph-name="T" horiz-adv-x="1227" d="M1194 1047H1073L1044 1239Q1037 1274 1010 1274H717V141Q717 126 727 112T760 96L891 88V0H336V88L467 96Q489 98 499 112T510 141V1274H215Q183 1274 180 1239L152 1047H33V1374H1194V1047Z" />
<glyph unicode="U" glyph-name="U" horiz-adv-x="1458" d="M1403 1286L1284 1278Q1262 1277 1252 1263T1241 1233V455Q1241 203 1107 85T715 -33Q462 -33 339 90T215 455V1233Q215 1248 205 1262T172 1278L63 1286V1374H584V1286L467 1278Q445 1277 435 1263T424
1233V508Q424 388 451 297T553 155T770 104Q912 104 987 157T1091 303T1120 508V1233Q1120 1248 1109 1262T1075 1278L958 1286V1374H1403V1286Z" />
<glyph unicode="V" glyph-name="V" horiz-adv-x="1364" d="M1343 1286L1225 1264L766 -33H610L141 1266L20 1286V1374H510V1286L389 1276Q379 1275 374 1262T371 1239L731 227L1077 1235Q1082 1247 1073 1261T1049 1276L936 1286V1374H1343V1286Z" />
<glyph unicode="W" glyph-name="W" horiz-adv-x="1907" d="M1886 1286L1761 1262L1448 -33H1298L956 1102L621 -33H473L139 1262L20 1286V1374H489V1286L367 1274Q353 1273 348 1260T346 1233L590 309L911 1374H1069L1399 276L1626 1233Q1629 1247 1621 1260T1597
1274L1468 1286V1374H1886V1286Z" />
<glyph unicode="X" glyph-name="X" horiz-adv-x="1298" d="M1278 0H752V88L870 100Q886 102 895 115T895 143L623 571L307 137Q300 127 303 114T332 98L455 88V0H20V88L143 113L555 678L182 1262L47 1286V1374H561V1286L457 1276Q432 1275 429 1261T432 1235L682
850L958 1229Q969 1244 960 1257T936 1272L831 1286V1374H1260V1286L1128 1266L748 743L1151 113L1278 88V0Z" />
<glyph unicode="Y" glyph-name="Y" horiz-adv-x="1282" d="M1262 1286L1151 1266L739 584V141Q739 126 750 112T782 96L913 88V0H360V88L487 96Q509 98 520 112T532 141V553L139 1262L20 1286V1374H506V1286L403 1276Q379 1273 376 1260T379 1235L668 700L985
1229Q994 1244 985 1257T961 1272L846 1286V1374H1262V1286Z" />
<glyph unicode="Z" glyph-name="Z" horiz-adv-x="1178" d="M1098 0H80V90L842 1272H309Q283 1272 274 1237L244 1047H123V1374H1087V1280L324 104H907Q921 104 930 115T942 141L977 379H1098V0Z" />
<glyph unicode="[" glyph-name="bracketleft" horiz-adv-x="866" d="M776 -270H279V1450H776V1358H457V-176H776V-270Z" />
<glyph unicode="\" glyph-name="backslash" horiz-adv-x="1001" d="M1001 -190H870L0 1374H131L1001 -190Z" />
<glyph unicode="]" glyph-name="bracketright" horiz-adv-x="866" d="M590 -270H90V-176H412V1358H90V1450H590V-270Z" />
<glyph unicode="^" glyph-name="asciicircum" horiz-adv-x="670" d="M670 1128H547L336 1331L123 1128H0L258 1475H412L670 1128Z" />
<glyph unicode="_" glyph-name="underscore" horiz-adv-x="686" d="M686 -305H0V-175H686V-305Z" />
<glyph unicode="`" glyph-name="grave" horiz-adv-x="717" d="M475 1128H358L47 1327Q0 1358 0 1409Q0 1441 21 1471T94 1501Q138 1501 158 1487T201 1446L475 1128Z" />
<glyph unicode="a" glyph-name="a" horiz-adv-x="1042" d="M1008 0H705L678 121Q678 121 648 99T567 48T457 -3T336 -25Q225 -25 148 49T70 252Q70 309 90 358T172 451T355 538T678 625Q678 628 678 650T678 692T678 713Q678 915 487 915Q434 915 396 905T342
889V711H193Q165 711 141 721T117 770Q117 854 181 907T343 986T543 1012Q670 1012 740 973T838 864T866 705V131Q866 112 878 100T909 86L1008 80V0ZM678 193V547Q540 513 459 479T337 410T285 340T272 266Q272 203 312 150T426 96Q467 96 511 110T593 144T654
178T678 193Z" />
<glyph unicode="b" glyph-name="b" horiz-adv-x="1137" d="M1067 541Q1067 387 1006 265T815 71T479 0H184V1362H29V1430L293 1509H375V936Q410 953 488 982T657 1012Q792 1012 883 947T1020 775T1067 541ZM858 500Q858 694 776 792T545 891Q511 891 459 880T375
858V98Q400 97 425 97T475 96Q657 96 757 186T858 500Z" />
<glyph unicode="c" glyph-name="c" horiz-adv-x="954" d="M885 76Q816 39 730 7T539 -25Q396 -25 291 42T128 224T70 487Q70 659 138 776T319 952T563 1012Q698 1012 789 960T881 807Q881 747 844 717T760 686Q726 686 701 697T657 721V899Q610 926 571 926Q480
926 415 873T314 726T279 514Q279 401 317 308T430 159T618 104Q689 104 754 127T885 193V76Z" />
<glyph unicode="d" glyph-name="d" horiz-adv-x="1155" d="M1102 0H780V109Q710 55 631 15T463 -25Q360 -25 286 18T164 134T93 293T70 467Q70 606 127 730T300 933T592 1012Q641 1012 698 1003T780 987V1362H625V1430L889 1509H971V131Q971 89 1014 86L1102 80V0ZM780
186V883Q754 892 703 902T606 913Q454 913 363 801T272 502Q272 335 350 225T569 115Q631 115 685 138T780 186Z" />
<glyph unicode="e" glyph-name="e" horiz-adv-x="1004" d="M934 102Q848 49 749 12T545 -25Q421 -25 313 30T137 199T70 483Q70 643 132 762T303 946T551 1012Q742 1012 838 894T934 592Q934 582 934 566T932 535H268Q268 457 284 380T340 239T445 138T610 100Q698
100 781 140T934 227V102ZM729 627V672Q729 773 681 842T530 911Q429 911 358 835T279 627H729Z" />
<glyph unicode="f" glyph-name="f" horiz-adv-x="668" d="M797 1386Q797 1345 777 1322T733 1288T702 1276L514 1409Q470 1386 432 1316T393 1102V971H647V866H393V131Q393 112 405 100T436 86L557 80V0H59V80L160 86Q178 87 190 99T203 131V866H72V938L203 975Q203
1076 218 1142T272 1282Q332 1398 426 1453T621 1509Q708 1509 752 1473T797 1386Z" />
<glyph unicode="g" glyph-name="g" horiz-adv-x="1075" d="M1040 850H836Q859 813 875 769T891 666Q891 558 828 483T665 371T449 342Q433 316 430 285T428 231T432 205Q487 199 559 191T706 166T845 119T948 40T987 -82Q987 -179 916 -267T725 -412T455 -469Q272
-469 171 -386T70 -178Q70 -89 123 -20T287 70Q276 102 271 116T266 164Q266 204 290 252T369 356Q267 379 191 459T115 664Q115 825 228 918T526 1012Q599 1012 661 991T764 950H1040V850ZM696 678Q696 743 674 800T610 892T506 928Q420 928 366 862T311 676Q311
573 360 500T506 426Q598 426 647 500T696 678ZM811 -137Q811 -73 767 -38T656 14T523 38T410 55Q321 23 288 -32T254 -137Q254 -186 282 -241T370 -336T522 -375Q620 -375 684 -336T779 -242T811 -137Z" />
<glyph unicode="h" glyph-name="h" horiz-adv-x="1176" d="M1128 0H672V80L756 86Q774 88 787 100T801 131V659Q801 747 759 804T598 862Q544 862 482 845T375 803V131Q375 89 416 86L504 80V0H43V80L141 86Q184 89 184 131V1362H31V1430L293 1509H375V885Q412
908 471 937T595 989T713 1012Q831 1012 911 936T991 702V131Q991 112 1004 100T1036 86L1128 80V0Z" />
<glyph unicode="i" glyph-name="i" horiz-adv-x="621" d="M446 1325Q446 1273 410 1236T322 1198Q270 1198 233 1235T195 1325Q195 1378 232 1414T322 1450Q374 1450 410 1414T446 1325ZM551 0H70V80L170 86Q213 89 213 131V862H72V934L322 1012H403V131Q403 112
415 100T446 86L551 80V0Z" />
<glyph unicode="j" glyph-name="j" horiz-adv-x="598" d="M436 1325Q436 1273 400 1236T311 1198Q259 1198 222 1235T184 1325Q184 1378 221 1414T311 1450Q364 1450 400 1414T436 1325ZM414 131Q414 70 409 -5T386 -152T334 -279Q271 -376 181 -422T-6 -469Q-69
-469 -115 -442T-162 -356Q-162 -304 -134 -276T-74 -238L125 -375Q182 -343 202 -252T223 -43V866H78V934L330 1012H414V131Z" />
<glyph unicode="k" glyph-name="k" horiz-adv-x="1094" d="M1073 0H745V80L489 465H375V131Q375 89 418 86L506 80V0H41V80L141 86Q184 89 184 131V1362H29V1430L291 1509H375V524H416L717 864Q725 874 720 886T700 899L616 907V987H1014V907L883 893L612 604L965
92L1073 80V0Z" />
<glyph unicode="l" glyph-name="l" horiz-adv-x="608" d="M553 0H55V80L164 86Q178 87 193 101T209 129V1362H53V1430L315 1509H399V129Q399 116 414 102T442 86L553 80V0Z" />
<glyph unicode="m" glyph-name="m" horiz-adv-x="1741" d="M1696 0H1237V80L1323 86Q1366 89 1366 131V653Q1366 748 1327 805T1184 862Q1133 862 1073 846T965 805V131Q965 89 1008 86L1094 80V0H645V80L731 86Q774 89 774 131V666Q774 753 733 807T594 862Q536
862 473 843T375 803V131Q375 89 418 86L504 80V0H41V80L141 86Q184 89 184 131V842H43V909L291 987H375V885Q421 913 478 942T596 991T709 1012Q798 1012 853 967T934 870Q975 896 1038 929T1168 987T1290 1012Q1398 1012 1455 963T1533 841T1554 698V131Q1554
112 1566 100T1597 86L1696 80V0Z" />
<glyph unicode="n" glyph-name="n" horiz-adv-x="1161" d="M1120 0H668V80L754 86Q772 88 784 100T797 131V664Q797 761 752 811T600 862Q542 862 485 846T375 803V131Q375 89 418 86L504 80V0H41V80L141 86Q184 89 184 131V842H41V909L291 987H375V885Q461 934
551 973T713 1012Q847 1012 917 929T987 696V131Q987 112 999 100T1030 86L1120 80V0Z" />
<glyph unicode="o" glyph-name="o" horiz-adv-x="1114" d="M1044 492Q1044 347 984 230T815 44T555 -25Q406 -25 297 43T129 228T70 492Q70 638 129 756T299 943T561 1012Q714 1012 822 942T987 754T1044 492ZM831 494Q831 606 802 703T712 860T559 920Q464 920
404 860T314 703T285 494Q285 383 314 286T404 128T557 68Q651 68 711 128T801 285T831 494Z" />
<glyph unicode="p" glyph-name="p" horiz-adv-x="1145" d="M1075 508Q1075 347 1013 227T835 41T557 -25Q511 -25 466 -19T375 -6V-311Q375 -330 388 -341T420 -354L541 -367V-446H43V-367L141 -354Q184 -349 184 -311V842H43V909L295 987H375V885Q445 939 526
975T684 1012Q790 1012 878 950T1021 774T1075 508ZM870 479Q870 585 838 673T742 814T584 868Q532 868 476 849T375 807V102Q459 70 541 70Q654 70 726 128T834 279T870 479Z" />
<glyph unicode="q" glyph-name="q" horiz-adv-x="1124" d="M1094 -446H598V-369L719 -358Q737 -356 749 -345T762 -315V55Q705 27 625 1T475 -25Q349 -25 259 42T119 221T70 469Q70 720 226 866T662 1012Q718 1012 803 1003T952 979V-315Q952 -334 964 -344T995
-358L1094 -369V-446ZM762 125V895Q734 901 698 909T621 918Q453 918 365 804T276 502Q276 397 307 304T407 154T586 96Q624 96 676 105T762 125Z" />
<glyph unicode="r" glyph-name="r" horiz-adv-x="801" d="M780 778H700Q681 801 655 817T590 834Q541 834 490 800T385 707V131Q385 88 428 86L563 80V0H51V78L152 86Q170 88 182 100T195 131V842H47V909L301 987H385V805Q472 906 536 959T655 1012Q687 1012 724
1002T780 981V778Z" />
<glyph unicode="s" glyph-name="s" horiz-adv-x="815" d="M715 723H608L592 866Q570 883 527 898T436 913Q352 913 311 875T270 776Q270 730 291 698T362 636T498 565Q605 516 675 457T745 297Q745 146 641 61T354 -25Q260 -25 181 -6T70 27V299H174L199 125Q230
105 275 87T381 68Q469 68 517 117T565 227Q565 307 500 352T315 455Q203 509 144 566T84 715Q84 852 180 932T453 1012Q543 1012 613 996T715 965V723Z" />
<glyph unicode="t" glyph-name="t" horiz-adv-x="696" d="M682 43Q682 43 644 26T543 -8T406 -25Q291 -25 239 29T186 205V885H55V952L195 1018L287 1235H377V987H666V885H377V313Q377 191 418 141T541 90Q601 90 641 107T682 125V43Z" />
<glyph unicode="u" glyph-name="u" horiz-adv-x="1165" d="M1120 0H795V117Q760 90 706 57T590 0T467 -25Q335 -25 260 54T184 307V862H41V932L293 1012H375V346Q375 237 419 176T573 115Q636 115 697 136T795 176V862H651V932L901 1012H985V131Q985 112 998 100T1030
86L1120 80V0Z" />
<glyph unicode="v" glyph-name="v" horiz-adv-x="1083" d="M1063 907L954 895L596 0H463L133 895L20 907V987H473V907L375 901Q358 900 348 887T344 856L573 215L825 856Q832 872 823 886T797 901L705 907V987H1063V907Z" />
<glyph unicode="w" glyph-name="w" horiz-adv-x="1604" d="M1583 907L1479 895L1198 0H1053L811 766L541 0H395L133 895L20 907V987H469V907L373 901Q356 900 347 887T342 856L512 219L776 987H922L1159 219L1348 856Q1353 872 1345 886T1319 901L1225 907V987H1583V907Z" />
<glyph unicode="x" glyph-name="x" horiz-adv-x="1044" d="M1024 0H584V80L653 88Q667 90 672 102T672 125L496 387L295 125Q288 116 291 103T307 88L410 80V0H20V80L137 96L430 477L152 889L31 907V987H481V907L410 897Q396 896 390 884T389 860L551 631L729
860Q737 869 733 882T715 897L627 907V987H995V907L885 889L610 539L913 96L1024 80V0Z" />
<glyph unicode="y" glyph-name="y" horiz-adv-x="1085" d="M1065 907L958 895L565 -63Q552 -96 525 -157T460 -283T379 -391Q342 -428 298 -448T201 -469Q128 -469 90 -434T51 -352Q51 -284 117 -229L309 -317Q343 -283 377 -225T438 -105T481 2L133 895L20 907V987H473V907L375
901Q358 900 348 887T344 856L582 252L825 856Q832 872 823 886T797 901L700 907V987H1065V907Z" />
<glyph unicode="z" glyph-name="z" horiz-adv-x="946" d="M877 0H70V109L612 891H256Q241 891 230 877T215 848L195 696H90V987H848V903L287 98H700Q714 98 729 115T745 147L766 309H877V0Z" />
<glyph unicode="{" glyph-name="braceleft" horiz-adv-x="999" d="M858 -252Q749 -252 651 -234T502 -162Q456 -114 439 -55T420 70T418 203Q418 248 417 304T404 411T360 494Q323 529 268 539T123 549V641Q212 641 267 651T360 696Q392 727 404 778T417 886T418
987Q418 1055 420 1120T439 1244T502 1352Q552 1405 650 1423T858 1442V1358Q841 1358 801 1354T718 1337T649 1296Q606 1250 603 1165T600 993Q600 923 591 844T541 713Q501 661 444 636T324 596Q387 583 444 557T541 477Q582 425 591 347T600 197Q600 111 603
26T649 -106Q675 -134 717 -147T800 -164T858 -168V-252Z" />
<glyph unicode="|" glyph-name="bar" horiz-adv-x="724" d="M424 -528H300V1630H424V-528Z" />
<glyph unicode="}" glyph-name="braceright" horiz-adv-x="999" d="M877 549Q788 549 732 539T639 494Q607 463 596 412T583 304T582 203Q582 136 580 70T561 -55T498 -162Q447 -215 349 -233T141 -252V-168Q159 -168 199 -164T282 -147T350 -106Q394 -60 396
25T399 197Q399 268 408 346T459 477Q499 530 556 556T676 596Q613 610 556 635T459 713Q417 765 408 844T399 993Q399 1079 397 1164T350 1296Q325 1324 282 1337T199 1354T141 1358V1442Q251 1442 349 1424T498 1352Q544 1304 561 1245T580 1120T582 987Q582
942 583 886T595 779T639 696Q676 661 732 651T877 641V549Z" />
<glyph unicode="~" glyph-name="asciitilde" horiz-adv-x="1706" d="M1530 627Q1412 545 1323 514T1145 483Q1072 483 1000 504T855 552T707 600T553 621Q475 621 377 579T176 461V594Q286 672 384 705T565 739Q640 739 715 719T864 671T1009 623T1147 602Q1221
602 1314 636T1530 760V627Z" />
<glyph unicode="&#xa0;" glyph-name="uni00A0" horiz-adv-x="600" />
<glyph unicode="&#xa1;" glyph-name="exclamdown" horiz-adv-x="692" d="M471 885Q471 833 435 797T346 760Q294 760 257 796T219 885Q219 938 256 975T346 1012Q399 1012 435 975T471 885ZM469 -262Q477 -350 442 -385T346 -420Q286 -420 250 -385T221 -262L297
617H395L469 -262Z" />
<glyph unicode="&#xa2;" glyph-name="cent" horiz-adv-x="1153" d="M997 47Q993 43 920 22T702 0V-203H604V4Q465 20 365 88T210 267T156 516Q156 652 212 761T369 940T604 1028V1237H702V1036Q779 1036 848 1024T997 985V684H899L870 862Q867 875 863 888T846
905Q824 918 795 926T702 936V98Q767 100 806 113T846 127Q855 132 861 142T870 160L897 356H997V47ZM604 104V930Q551 918 493 871T393 737T352 522Q352 340 426 235T604 104Z" />
<glyph unicode="&#xa3;" glyph-name="sterling" horiz-adv-x="1153" d="M1065 1292Q1065 1242 1027 1209T938 1176Q916 1176 890 1181T864 1186V1391Q864 1391 834 1399T772 1407Q683 1407 629 1371T546 1274T508 1143T498 1001Q498 956 499 903T501 812T502 774H883V674H502Q502
543 486 449T422 284T285 156Q285 156 319 159T394 165T455 168H1061V0H88V125Q214 157 263 258T311 524Q313 527 313 550T312 602T310 652T309 674H166V774H307Q307 774 307 800T306 863T306 938T305 999Q305 1141 351 1256T495 1440T741 1509Q789 1509 844 1497T950
1460T1033 1393T1065 1292Z" />
<glyph unicode="&#xa4;" glyph-name="currency" horiz-adv-x="1249" d="M1188 401L1114 328L903 539Q848 491 779 467T639 442Q563 442 493 466T367 539L156 328L82 401L293 612Q248 668 226 735T203 874Q203 945 225 1018T297 1145L82 1360L156 1434L371 1219Q426
1263 496 1286T639 1309Q788 1309 897 1217L1114 1434L1188 1360L975 1147Q1018 1093 1042 1021T1067 877Q1067 804 1045 736T977 612L1188 401ZM950 877Q950 962 908 1033T796 1148T639 1192Q550 1192 478 1150T362 1036T319 874Q319 786 362 715T478 601T639
559Q726 559 796 602T908 718T950 877Z" />
<glyph unicode="&#xa5;" glyph-name="yen" horiz-adv-x="1221" d="M1200 1288L1085 1262L866 874H1155V784H815L696 575H1155V485H698V141Q698 131 711 115T752 96L870 86V0H336V86L457 96Q485 98 496 114T508 141V485H66V575H504L393 784H66V874H344L141 1264L20
1288V1374H479V1288L391 1274Q375 1271 367 1258T367 1229L637 700L934 1227Q940 1236 938 1252T907 1272L809 1288V1374H1200V1288Z" />
<glyph unicode="&#xa6;" glyph-name="brokenbar" horiz-adv-x="707" d="M406 688H301V1507H406V688ZM406 -406H301V414H406V-406Z" />
<glyph unicode="&#xa7;" glyph-name="section" horiz-adv-x="1024" d="M903 666Q903 586 867 520T775 407T655 334Q744 293 805 228T866 63Q866 -29 817 -99T682 -210T485 -250Q379 -250 294 -226T170 -184V84H272Q277 56 279 43T284 18T290 -20T301 -100Q338
-125 393 -139T494 -154Q584 -154 644 -109T705 12Q705 72 663 114T555 192T413 265T272 349T163 462T121 625Q121 716 153 776T241 876T362 946Q271 993 215 1055T158 1208Q158 1348 257 1428T555 1509Q644 1509 726 1492T840 1460V1194H743L723 1360Q689 1378
641 1398T530 1419Q439 1419 383 1370T326 1247Q326 1195 367 1156T475 1083T614 1013T754 930T861 819T903 666ZM743 614Q743 706 669 777T461 903Q367 871 322 806T276 672Q276 578 348 512T571 375Q601 391 641 427T712 512T743 614Z" />
<glyph unicode="&#xa8;" glyph-name="dieresis" horiz-adv-x="647" d="M647 1313Q647 1267 615 1233T537 1198Q491 1198 458 1232T424 1313Q424 1356 458 1390T537 1425Q583 1425 615 1391T647 1313ZM223 1313Q223 1267 190 1233T111 1198Q66 1198 33 1232T0 1311Q0
1355 33 1390T111 1425Q157 1425 190 1392T223 1313Z" />
<glyph unicode="&#xa9;" glyph-name="copyright" horiz-adv-x="1714" d="M1645 719Q1645 556 1584 412T1414 159T1163 -12T856 -74Q694 -74 552 -12T301 159T132 411T70 717Q70 881 131 1024T300 1276T552 1447T858 1509Q1023 1509 1166 1447T1416 1275T1584 1023T1645
719ZM1556 717Q1556 862 1502 990T1352 1215T1130 1368T858 1423Q713 1423 586 1368T363 1216T213 991T158 717Q158 572 212 445T363 220T585 67T856 12Q1000 12 1127 67T1350 219T1501 444T1556 717ZM1180 283Q1177 282 1136 270T1030 245T889 233Q728 233 616
300T446 478T387 717Q387 858 449 966T625 1136T891 1198Q971 1198 1042 1183T1180 1147V903H1087L1057 1059Q1034 1074 995 1088T911 1102Q824 1102 748 1057T623 927T575 721Q575 596 620 508T738 374T891 328Q941 328 988 341T1061 367L1090 541H1180V283Z"
/>
<glyph unicode="&#xaa;" glyph-name="ordfeminine" horiz-adv-x="698" d="M666 784H469L451 856Q451 856 417 835T332 792T227 770Q157 770 106 813T55 936Q55 970 68 999T121 1055T240 1107T451 1159Q451 1162 451 1187T451 1212Q451 1333 328 1333Q293 1333
268 1327T231 1317V1210H135Q117 1210 102 1216T86 1245Q86 1297 127 1329T233 1376T362 1391Q487 1391 530 1340T573 1206V862Q573 840 600 836L666 831V784ZM659 623H63V684H659V623ZM451 899V1112Q331 1085 275 1058T202 1002T186 944Q186 906 212 874T287 842Q323
842 361 856T425 884T451 899Z" />
<glyph unicode="&#xab;" glyph-name="guillemotleft" horiz-adv-x="905" d="M385 0L55 441V544L385 987H485L230 493L485 0H385ZM765 0L435 441V544L765 987H865L610 493L865 0H765Z" />
<glyph unicode="&#xac;" glyph-name="logicalnot" horiz-adv-x="1270" d="M1188 387H1065V737H82V860H1188V387Z" />
<glyph unicode="&#xad;" glyph-name="uni00AD" horiz-adv-x="655" d="M565 416H90V569H565V416Z" />
<glyph unicode="&#xae;" glyph-name="registered" horiz-adv-x="1714" d="M1645 717Q1645 554 1584 411T1414 158T1162 -12T854 -74Q693 -74 551 -13T301 158T132 410T70 717Q70 881 131 1024T300 1276T552 1447T858 1509Q1019 1509 1161 1448T1412 1277T1583
1025T1645 717ZM1556 717Q1556 864 1502 992T1351 1217T1129 1368T858 1423Q714 1423 588 1369T365 1218T213 992T158 713Q158 569 212 443T362 219T584 67T856 12Q1001 12 1128 67T1351 220T1501 445T1556 717ZM1366 291Q1357 290 1318 286T1247 281Q1157 281
1110 310T1041 386T1006 485T970 584T902 660T764 690Q741 690 720 689T696 688V383Q696 374 704 365T727 354L805 348V291H442V348L520 354Q536 356 543 365T551 383V1096Q551 1105 544 1114T520 1124L442 1130V1188H823Q991 1188 1086 1135T1182 950Q1182 881
1148 837T1060 767T942 727Q1024 709 1063 675T1117 597T1142 510T1169 429T1232 369T1366 346V291ZM1022 944Q1022 1029 963 1076T766 1124Q766 1124 750 1124T716 1124T696 1124V756Q699 756 727 755T772 754Q894 754 958 795T1022 944Z" />
<glyph unicode="&#xaf;" glyph-name="overscore" horiz-adv-x="686" d="M686 1200H0V1330H686V1200Z" />
<glyph unicode="&#xb0;" glyph-name="degree" horiz-adv-x="655" d="M553 1249Q553 1155 488 1090T328 1024Q234 1024 168 1089T102 1249Q102 1343 168 1409T328 1475Q422 1475 487 1409T553 1249ZM471 1249Q471 1309 430 1351T328 1393Q268 1393 226 1351T184
1249Q184 1189 226 1148T328 1106Q388 1106 429 1147T471 1249Z" />
<glyph unicode="&#xb1;" glyph-name="plusminus" horiz-adv-x="2048" d="M1638 733H1087V365H961V733H410V860H961V1229H1087V860H1638V733ZM1638 0H410V127H1638V0Z" />
<glyph unicode="&#xb2;" glyph-name="twosuperior" horiz-adv-x="750" d="M686 784H63V866Q199 970 303 1053T466 1213T526 1376Q526 1465 470 1510T336 1556Q290 1556 260 1544T225 1530V1395Q225 1395 208 1384T160 1372Q129 1372 105 1390T80 1446Q80 1498
121 1537T228 1599T373 1622Q502 1622 586 1559T670 1389Q670 1302 603 1221T430 1058T203 889H598L621 993H686V784Z" />
<glyph unicode="&#xb3;" glyph-name="threesuperior" horiz-adv-x="750" d="M686 1020Q686 945 639 889T513 800T338 768Q203 768 133 816T63 909Q63 934 82 955T141 977Q149 977 164 976T186 969L227 858Q280 831 342 831Q434 831 491 889T549 1020Q549 1080
517 1113T439 1160T348 1174Q313 1174 291 1171T268 1167V1245Q271 1245 282 1244T303 1243Q388 1243 452 1281T516 1401Q516 1478 463 1517T342 1556Q288 1556 255 1541T221 1526V1405Q218 1404 203 1395T162 1386Q139 1386 113 1401T86 1456Q86 1503 126 1540T232
1600T379 1622Q494 1622 572 1568T651 1415Q651 1346 599 1295T449 1217Q505 1215 559 1194T650 1131T686 1020Z" />
<glyph unicode="&#xb4;" glyph-name="acute" horiz-adv-x="717" d="M717 1409Q717 1381 704 1361T670 1327L358 1128H242L514 1446Q537 1472 558 1486T623 1501Q676 1501 696 1471T717 1409Z" />
<glyph unicode="&#xb5;" glyph-name="mu" horiz-adv-x="1120" d="M1133 221Q1123 89 1065 32T926 -25Q865 -25 813 17T745 174Q658 73 590 24T440 -25Q425 -25 392 -20T321 4T258 66V16Q258 -49 270 -115T295 -238T307 -338Q307 -389 277 -422T209 -455Q174 -455
147 -423T119 -342Q119 -294 129 -256T151 -167T174 -28T184 207V987H375V403Q375 257 393 201Q406 163 439 134T522 104Q582 104 633 140T745 246V987H936V281Q936 189 945 149T971 101T1006 92Q1038 92 1057 119T1092 221H1133Z" />
<glyph unicode="&#xb6;" glyph-name="paragraph" horiz-adv-x="995" d="M940 1300L813 1280V-162H713V1290H557V575Q410 575 297 608T119 728T55 973Q55 1199 180 1286T535 1374H940V1300Z" />
<glyph unicode="&#xb7;" glyph-name="middot" horiz-adv-x="385" d="M313 696Q313 646 278 611T193 575Q142 575 107 610T72 696Q72 747 107 782T193 817Q243 817 278 782T313 696Z" />
<glyph unicode="&#xb8;" glyph-name="cedilla" horiz-adv-x="471" d="M471 -266Q471 -361 404 -411T233 -461Q180 -461 131 -451T82 -440V-360Q82 -360 125 -368T207 -377Q256 -377 297 -359T338 -293Q338 -255 311 -236T242 -217Q228 -217 212 -223T195 -229V52H276V-129Q287
-127 297 -124T324 -121Q386 -121 428 -154T471 -266Z" />
<glyph unicode="&#xb9;" glyph-name="onesuperior" horiz-adv-x="750" d="M594 784H143V840L279 844Q307 844 307 870V1520L100 1487V1540L389 1622H438V870Q438 860 447 852T469 844L594 840V784Z" />
<glyph unicode="&#xba;" glyph-name="ordmasculine" horiz-adv-x="733" d="M684 1079Q684 949 599 860T367 770Q221 770 135 858T49 1079Q49 1211 135 1301T371 1391Q470 1391 540 1349T647 1236T684 1079ZM680 623H55V684H680V623ZM547 1079Q547 1180 503 1257T369
1335Q277 1335 234 1258T190 1079Q190 1013 209 955T268 861T367 825Q459 825 503 902T547 1079Z" />
<glyph unicode="&#xbb;" glyph-name="guillemotright" horiz-adv-x="905" d="M520 987L850 546V443L520 0H420L675 494L420 987H520ZM140 987L470 546V443L140 0H40L295 494L40 987H140Z" />
<glyph unicode="&#xbc;" glyph-name="onequarter" horiz-adv-x="1792" d="M1694 233H1542V-43H1427V233H1001V319L1452 831H1542V317H1694V233ZM1413 1430L506 0H375L1284 1430H1413ZM592 604H141V659L276 664Q305 667 305 690V1339L98 1307V1362L387 1444H436V690Q436
680 445 673T467 664L592 659V604ZM1427 317V688L1108 317H1427Z" />
<glyph unicode="&#xbd;" glyph-name="onehalf" horiz-adv-x="1792" d="M1700 0H1075V82Q1211 186 1312 269T1471 430T1528 594Q1528 683 1480 727T1354 772Q1308 772 1279 760T1245 745V610Q1245 610 1228 600T1180 590Q1149 590 1125 607T1100 662Q1100 714 1140
754T1245 817T1389 840Q1518 840 1593 776T1669 604Q1669 517 1606 436T1440 273T1217 104H1610L1632 211H1700V0ZM1399 1430L489 0H360L1270 1430H1399ZM588 604H137V659L272 664Q301 667 301 690V1339L94 1307V1362L383 1444H432V690Q432 668 463 664L588 659V604Z"
/>
<glyph unicode="&#xbe;" glyph-name="threequarters" horiz-adv-x="1792" d="M1716 233H1565V-43H1450V233H1024V319L1475 831H1565V317H1716V233ZM1436 1430L526 0H397L1307 1430H1436ZM686 844Q686 769 641 713T520 625T346 594Q211 594 145 640T78 731Q78 756
97 778T156 801Q164 801 178 799T201 791L242 682Q268 669 293 662T350 655Q442 655 496 712T551 844Q551 904 521 936T447 982T358 995Q323 995 303 993T283 991V1067Q286 1067 297 1067T317 1067Q402 1067 460 1104T518 1223Q518 1300 468 1339T350 1378Q297
1378 267 1364T236 1350V1227Q232 1226 217 1218T176 1210Q153 1210 126 1225T98 1280Q98 1351 181 1398T385 1446Q501 1446 577 1391T653 1237Q653 1168 600 1117T449 1040Q505 1038 559 1018T650 955T686 844ZM1450 317V688L1130 317H1450Z" />
<glyph unicode="&#xbf;" glyph-name="questiondown" horiz-adv-x="995" d="M711 885Q711 833 675 797T586 760Q532 760 496 797T459 887Q459 940 496 976T586 1012Q638 1012 674 975T711 885ZM893 -219Q893 -267 858 -313T751 -389T567 -420Q447 -420 351 -375T198
-247T141 -53Q141 45 179 117T276 241T403 329T530 391V621H645V324Q581 303 512 257T396 138T348 -37Q348 -179 425 -248T641 -317L725 -110Q725 -110 741 -108T760 -106Q816 -106 854 -133T893 -219Z" />
<glyph unicode="&#xc0;" glyph-name="Agrave" horiz-adv-x="1380" d="M1370 0H883V88L1001 98Q1011 98 1018 112T1022 133L881 508H408L272 139Q268 127 279 113T301 98L422 88V0H10V88L129 113L606 1407H760L1235 143Q1243 122 1249 115T1278 104L1370 88V0ZM844
606L643 1143L444 606H844ZM864 1528H747L436 1727Q389 1758 389 1809Q389 1841 410 1871T483 1901Q527 1901 547 1887T590 1846L864 1528Z" />
<glyph unicode="&#xc1;" glyph-name="Aacute" horiz-adv-x="1380" d="M1370 0H883V88L1001 98Q1011 98 1018 112T1022 133L881 508H408L272 139Q268 127 279 113T301 98L422 88V0H10V88L129 113L606 1407H760L1235 143Q1243 122 1249 115T1278 104L1370 88V0ZM844
606L643 1143L444 606H844ZM979 1809Q979 1781 966 1761T932 1727L620 1528H504L776 1846Q799 1872 820 1886T885 1901Q938 1901 958 1871T979 1809Z" />
<glyph unicode="&#xc2;" glyph-name="Acircumflex" horiz-adv-x="1380" d="M1370 0H883V88L1001 98Q1011 98 1018 112T1022 133L881 508H408L272 139Q268 127 279 113T301 98L422 88V0H10V88L129 113L606 1407H760L1235 143Q1243 122 1249 115T1278 104L1370 88V0ZM844
606L643 1143L444 606H844ZM1018 1528H895L684 1731L471 1528H348L606 1875H760L1018 1528Z" />
<glyph unicode="&#xc3;" glyph-name="Atilde" horiz-adv-x="1380" d="M1370 0H883V88L1001 98Q1011 98 1018 112T1022 133L881 508H408L272 139Q268 127 279 113T301 98L422 88V0H10V88L129 113L606 1407H760L1235 143Q1243 122 1249 115T1278 104L1370 88V0ZM844
606L643 1143L444 606H844ZM1039 1823Q1016 1733 959 1666T801 1598Q747 1598 708 1622T626 1671T516 1696Q475 1696 445 1666T410 1598H328Q351 1689 408 1756T566 1823Q620 1823 658 1799T739 1750T848 1725Q889 1725 921 1755T957 1823H1039Z" />
<glyph unicode="&#xc4;" glyph-name="Adieresis" horiz-adv-x="1380" d="M1370 0H883V88L1001 98Q1011 98 1018 112T1022 133L881 508H408L272 139Q268 127 279 113T301 98L422 88V0H10V88L129 113L606 1407H760L1235 143Q1243 122 1249 115T1278 104L1370 88V0ZM844
606L643 1143L444 606H844ZM1007 1713Q1007 1667 975 1633T897 1598Q851 1598 818 1632T784 1713Q784 1756 818 1790T897 1825Q943 1825 975 1791T1007 1713ZM583 1713Q583 1667 550 1633T471 1598Q426 1598 393 1632T360 1711Q360 1755 393 1790T471 1825Q517
1825 550 1792T583 1713Z" />
<glyph unicode="&#xc5;" glyph-name="Aring" horiz-adv-x="1380" d="M1370 0H883V88L1001 98Q1011 98 1018 112T1022 133L881 508H408L272 139Q268 127 279 113T301 98L422 88V0H10V88L129 113L606 1407H760L1235 143Q1243 122 1249 115T1278 104L1370 88V0ZM844
606L643 1143L444 606H844ZM927 1770Q927 1704 895 1649T807 1561T684 1528Q617 1528 562 1561T473 1649T440 1770Q440 1838 473 1893T561 1982T684 2016Q752 2016 807 1983T894 1894T927 1770ZM827 1770Q827 1830 786 1873T684 1916Q624 1916 582 1873T540 1770Q540
1712 582 1670T684 1627Q744 1627 785 1669T827 1770Z" />
<glyph unicode="&#xc6;" glyph-name="AE" horiz-adv-x="1911" d="M1845 0H831V88L932 96Q954 98 969 113T985 141V512H512L283 141Q272 125 278 113T297 98L414 88V0H10V88L119 104L815 1235Q824 1250 812 1263T786 1278L686 1288V1374H1772V1069H1653L1624 1237Q1621
1252 1612 1264T1589 1276H1192V766L1450 764Q1464 764 1475 777T1487 801L1505 942H1606V485H1505L1487 629Q1486 640 1474 652T1450 664H1192V100H1661Q1673 100 1685 114T1698 139L1729 342H1845V0ZM985 612V1280L569 612H985Z" />
<glyph unicode="&#xc7;" glyph-name="Ccedilla" horiz-adv-x="1284" d="M1204 47Q1199 45 1141 25T991 -14T795 -33Q623 -33 490 26T266 188T127 419T80 690Q80 902 170 1063T421 1316T797 1407Q897 1407 988 1386T1204 1327V1006H1081L1051 1192Q1050 1206 1038
1220T1016 1239Q993 1250 939 1271T807 1292Q668 1292 557 1224T380 1021T315 690Q315 404 453 242T834 80Q906 80 951 97T999 115Q1031 127 1038 156L1085 379H1204V47ZM966 -266Q966 -361 899 -411T728 -461Q675 -461 626 -451T577 -440V-360Q577 -360 620 -368T702
-377Q751 -377 792 -359T833 -293Q833 -255 806 -236T737 -217Q723 -217 707 -223T690 -229V52H771V-129Q782 -127 792 -124T819 -121Q881 -121 923 -154T966 -266Z" />
<glyph unicode="&#xc8;" glyph-name="Egrave" horiz-adv-x="1194" d="M1128 0H66V88L172 96Q194 98 205 112T217 141V1233Q217 1248 206 1262T172 1278L66 1286V1374H1061V1069H938L907 1237Q906 1252 895 1264T870 1276H426V766H733Q747 766 758 778T770 801L791
942H895V485H791L770 627Q770 638 758 651T733 664H426V100H944Q957 100 968 114T981 139L1018 342H1128V0ZM778 1528H661L350 1727Q303 1758 303 1809Q303 1841 324 1871T397 1901Q441 1901 461 1887T504 1846L778 1528Z" />
<glyph unicode="&#xc9;" glyph-name="Eacute" horiz-adv-x="1194" d="M1128 0H66V88L172 96Q194 98 205 112T217 141V1233Q217 1248 206 1262T172 1278L66 1286V1374H1061V1069H938L907 1237Q906 1252 895 1264T870 1276H426V766H733Q747 766 758 778T770 801L791
942H895V485H791L770 627Q770 638 758 651T733 664H426V100H944Q957 100 968 114T981 139L1018 342H1128V0ZM893 1809Q893 1781 880 1761T846 1727L534 1528H418L690 1846Q713 1872 734 1886T799 1901Q852 1901 872 1871T893 1809Z" />
<glyph unicode="&#xca;" glyph-name="Ecircumflex" horiz-adv-x="1194" d="M1128 0H66V88L172 96Q194 98 205 112T217 141V1233Q217 1248 206 1262T172 1278L66 1286V1374H1061V1069H938L907 1237Q906 1252 895 1264T870 1276H426V766H733Q747 766 758 778T770
801L791 942H895V485H791L770 627Q770 638 758 651T733 664H426V100H944Q957 100 968 114T981 139L1018 342H1128V0ZM932 1528H809L598 1731L385 1528H262L520 1875H674L932 1528Z" />
<glyph unicode="&#xcb;" glyph-name="Edieresis" horiz-adv-x="1194" d="M1128 0H66V88L172 96Q194 98 205 112T217 141V1233Q217 1248 206 1262T172 1278L66 1286V1374H1061V1069H938L907 1237Q906 1252 895 1264T870 1276H426V766H733Q747 766 758 778T770 801L791
942H895V485H791L770 627Q770 638 758 651T733 664H426V100H944Q957 100 968 114T981 139L1018 342H1128V0ZM921 1713Q921 1667 889 1633T811 1598Q765 1598 732 1632T698 1713Q698 1756 732 1790T811 1825Q857 1825 889 1791T921 1713ZM497 1713Q497 1667 464
1633T385 1598Q340 1598 307 1632T274 1711Q274 1755 307 1790T385 1825Q431 1825 464 1792T497 1713Z" />
<glyph unicode="&#xcc;" glyph-name="Igrave" horiz-adv-x="676" d="M608 0H68V88L190 96Q212 98 222 112T233 141V1233Q233 1248 223 1261T190 1276L68 1284V1374H608V1284L483 1276Q462 1275 451 1262T440 1233V141Q440 126 451 112T483 96L608 88V0ZM519 1528H402L91
1727Q44 1758 44 1809Q44 1841 65 1871T138 1901Q182 1901 202 1887T245 1846L519 1528Z" />
<glyph unicode="&#xcd;" glyph-name="Iacute" horiz-adv-x="676" d="M608 0H68V88L190 96Q212 98 222 112T233 141V1233Q233 1248 223 1261T190 1276L68 1284V1374H608V1284L483 1276Q462 1275 451 1262T440 1233V141Q440 126 451 112T483 96L608 88V0ZM634 1809Q634
1781 621 1761T587 1727L275 1528H159L431 1846Q454 1872 475 1886T540 1901Q593 1901 613 1871T634 1809Z" />
<glyph unicode="&#xce;" glyph-name="Icircumflex" horiz-adv-x="676" d="M608 0H68V88L190 96Q212 98 222 112T233 141V1233Q233 1248 223 1261T190 1276L68 1284V1374H608V1284L483 1276Q462 1275 451 1262T440 1233V141Q440 126 451 112T483 96L608 88V0ZM673
1528H550L339 1731L126 1528H3L261 1875H415L673 1528Z" />
<glyph unicode="&#xcf;" glyph-name="Idieresis" horiz-adv-x="676" d="M608 0H68V88L190 96Q212 98 222 112T233 141V1233Q233 1248 223 1261T190 1276L68 1284V1374H608V1284L483 1276Q462 1275 451 1262T440 1233V141Q440 126 451 112T483 96L608 88V0ZM662
1713Q662 1667 630 1633T552 1598Q506 1598 473 1632T439 1713Q439 1756 473 1790T552 1825Q598 1825 630 1791T662 1713ZM238 1713Q238 1667 205 1633T126 1598Q81 1598 48 1632T15 1711Q15 1755 48 1790T126 1825Q172 1825 205 1792T238 1713Z" />
<glyph unicode="&#xd0;" glyph-name="Eth" horiz-adv-x="1425" d="M29 668V772H750V668H29ZM1346 690Q1346 556 1307 432T1184 211T964 57T635 0H66V88L174 96Q196 98 207 112T219 141V1233Q219 1248 208 1262T174 1278L66 1286V1374H594Q809 1374 979 1302T1247
1078T1346 690ZM1114 686Q1114 901 1049 1030T864 1218T582 1276H426V98L592 100Q750 102 867 160T1049 347T1114 686Z" />
<glyph unicode="&#xd1;" glyph-name="Ntilde" horiz-adv-x="1477" d="M1417 1286L1303 1278Q1281 1277 1271 1263T1260 1233V0H1100L338 1147V141Q338 126 348 112T381 96L498 88V0H55V88L172 96Q194 98 205 112T217 141V1233Q217 1248 206 1262T172 1278L51 1286V1374H457V1323L1139
293V1233Q1139 1248 1128 1262T1096 1278L979 1286V1374H1417V1286ZM1090 1823Q1067 1733 1010 1666T852 1598Q798 1598 759 1622T677 1671T567 1696Q526 1696 496 1666T461 1598H379Q402 1689 459 1756T617 1823Q671 1823 709 1799T790 1750T899 1725Q940 1725
972 1755T1008 1823H1090Z" />
<glyph unicode="&#xd2;" glyph-name="Ograve" horiz-adv-x="1497" d="M1417 686Q1417 537 1370 407T1234 178T1023 23T750 -33Q549 -33 399 61T164 319T80 688Q80 838 126 968T261 1197T472 1351T748 1407Q900 1407 1023 1351T1234 1196T1369 966T1417 686ZM1180
684Q1180 851 1132 988T989 1208T750 1290Q602 1290 506 1208T362 988T315 688Q315 524 362 386T504 164T745 80Q893 80 989 163T1132 384T1180 684ZM929 1528H812L501 1727Q454 1758 454 1809Q454 1841 475 1871T548 1901Q592 1901 612 1887T655 1846L929 1528Z"
/>
<glyph unicode="&#xd3;" glyph-name="Oacute" horiz-adv-x="1497" d="M1417 686Q1417 537 1370 407T1234 178T1023 23T750 -33Q549 -33 399 61T164 319T80 688Q80 838 126 968T261 1197T472 1351T748 1407Q900 1407 1023 1351T1234 1196T1369 966T1417 686ZM1180
684Q1180 851 1132 988T989 1208T750 1290Q602 1290 506 1208T362 988T315 688Q315 524 362 386T504 164T745 80Q893 80 989 163T1132 384T1180 684ZM1044 1809Q1044 1781 1031 1761T997 1727L685 1528H569L841 1846Q864 1872 885 1886T950 1901Q1003 1901 1023
1871T1044 1809Z" />
<glyph unicode="&#xd4;" glyph-name="Ocircumflex" horiz-adv-x="1497" d="M1417 686Q1417 537 1370 407T1234 178T1023 23T750 -33Q549 -33 399 61T164 319T80 688Q80 838 126 968T261 1197T472 1351T748 1407Q900 1407 1023 1351T1234 1196T1369 966T1417 686ZM1180
684Q1180 851 1132 988T989 1208T750 1290Q602 1290 506 1208T362 988T315 688Q315 524 362 386T504 164T745 80Q893 80 989 163T1132 384T1180 684ZM1083 1528H960L749 1731L536 1528H413L671 1875H825L1083 1528Z" />
<glyph unicode="&#xd5;" glyph-name="Otilde" horiz-adv-x="1497" d="M1417 686Q1417 537 1370 407T1234 178T1023 23T750 -33Q549 -33 399 61T164 319T80 688Q80 838 126 968T261 1197T472 1351T748 1407Q900 1407 1023 1351T1234 1196T1369 966T1417 686ZM1180
684Q1180 851 1132 988T989 1208T750 1290Q602 1290 506 1208T362 988T315 688Q315 524 362 386T504 164T745 80Q893 80 989 163T1132 384T1180 684ZM1104 1823Q1081 1733 1024 1666T866 1598Q812 1598 773 1622T691 1671T581 1696Q540 1696 510 1666T475 1598H393Q416
1689 473 1756T631 1823Q685 1823 723 1799T804 1750T913 1725Q954 1725 986 1755T1022 1823H1104Z" />
<glyph unicode="&#xd6;" glyph-name="Odieresis" horiz-adv-x="1497" d="M1417 686Q1417 537 1370 407T1234 178T1023 23T750 -33Q549 -33 399 61T164 319T80 688Q80 838 126 968T261 1197T472 1351T748 1407Q900 1407 1023 1351T1234 1196T1369 966T1417 686ZM1180
684Q1180 851 1132 988T989 1208T750 1290Q602 1290 506 1208T362 988T315 688Q315 524 362 386T504 164T745 80Q893 80 989 163T1132 384T1180 684ZM1072 1713Q1072 1667 1040 1633T962 1598Q916 1598 883 1632T849 1713Q849 1756 883 1790T962 1825Q1008 1825
1040 1791T1072 1713ZM648 1713Q648 1667 615 1633T536 1598Q491 1598 458 1632T425 1711Q425 1755 458 1790T536 1825Q582 1825 615 1792T648 1713Z" />
<glyph unicode="&#xd7;" glyph-name="multiply" horiz-adv-x="2048" d="M1577 141L1497 61L1024 537L551 61L471 141L942 614L471 1087L551 1167L1024 692L1497 1167L1577 1087L1106 614L1577 141Z" />
<glyph unicode="&#xd8;" glyph-name="Oslash" horiz-adv-x="1497" d="M1417 686Q1417 537 1370 407T1234 178T1023 23T750 -33Q565 -33 420 49Q388 -5 357 -57T293 -162L199 -104L328 113Q211 210 146 359T80 688Q80 838 126 968T261 1197T472 1351T748 1407Q834
1407 911 1388T1055 1335L1171 1532L1268 1475Q1242 1430 1212 1380T1149 1276Q1277 1178 1347 1024T1417 686ZM1180 684Q1180 816 1151 931T1063 1128Q940 921 794 676T496 174Q545 130 607 105T745 80Q893 80 989 163T1132 384T1180 684ZM981 1212Q886 1290 750
1290Q602 1290 506 1208T362 988T315 688Q315 567 341 458T420 266L981 1212Z" />
<glyph unicode="&#xd9;" glyph-name="Ugrave" horiz-adv-x="1458" d="M1403 1286L1284 1278Q1262 1277 1252 1263T1241 1233V455Q1241 203 1107 85T715 -33Q462 -33 339 90T215 455V1233Q215 1248 205 1262T172 1278L63 1286V1374H584V1286L467 1278Q445 1277
435 1263T424 1233V508Q424 388 451 297T553 155T770 104Q912 104 987 157T1091 303T1120 508V1233Q1120 1248 1109 1262T1075 1278L958 1286V1374H1403V1286ZM931 1528H814L503 1727Q456 1758 456 1809Q456 1841 477 1871T550 1901Q594 1901 614 1887T657 1846L931
1528Z" />
<glyph unicode="&#xda;" glyph-name="Uacute" horiz-adv-x="1458" d="M1403 1286L1284 1278Q1262 1277 1252 1263T1241 1233V455Q1241 203 1107 85T715 -33Q462 -33 339 90T215 455V1233Q215 1248 205 1262T172 1278L63 1286V1374H584V1286L467 1278Q445 1277
435 1263T424 1233V508Q424 388 451 297T553 155T770 104Q912 104 987 157T1091 303T1120 508V1233Q1120 1248 1109 1262T1075 1278L958 1286V1374H1403V1286ZM1046 1809Q1046 1781 1033 1761T999 1727L687 1528H571L843 1846Q866 1872 887 1886T952 1901Q1005
1901 1025 1871T1046 1809Z" />
<glyph unicode="&#xdb;" glyph-name="Ucircumflex" horiz-adv-x="1458" d="M1403 1286L1284 1278Q1262 1277 1252 1263T1241 1233V455Q1241 203 1107 85T715 -33Q462 -33 339 90T215 455V1233Q215 1248 205 1262T172 1278L63 1286V1374H584V1286L467 1278Q445
1277 435 1263T424 1233V508Q424 388 451 297T553 155T770 104Q912 104 987 157T1091 303T1120 508V1233Q1120 1248 1109 1262T1075 1278L958 1286V1374H1403V1286ZM1085 1528H962L751 1731L538 1528H415L673 1875H827L1085 1528Z" />
<glyph unicode="&#xdc;" glyph-name="Udieresis" horiz-adv-x="1458" d="M1403 1286L1284 1278Q1262 1277 1252 1263T1241 1233V455Q1241 203 1107 85T715 -33Q462 -33 339 90T215 455V1233Q215 1248 205 1262T172 1278L63 1286V1374H584V1286L467 1278Q445 1277
435 1263T424 1233V508Q424 388 451 297T553 155T770 104Q912 104 987 157T1091 303T1120 508V1233Q1120 1248 1109 1262T1075 1278L958 1286V1374H1403V1286ZM1074 1713Q1074 1667 1042 1633T964 1598Q918 1598 885 1632T851 1713Q851 1756 885 1790T964 1825Q1010
1825 1042 1791T1074 1713ZM650 1713Q650 1667 617 1633T538 1598Q493 1598 460 1632T427 1711Q427 1755 460 1790T538 1825Q584 1825 617 1792T650 1713Z" />
<glyph unicode="&#xdd;" glyph-name="Yacute" horiz-adv-x="1282" d="M1262 1286L1151 1266L739 584V141Q739 126 750 112T782 96L913 88V0H360V88L487 96Q509 98 520 112T532 141V553L139 1262L20 1286V1374H506V1286L403 1276Q379 1273 376 1260T379 1235L668
700L985 1229Q994 1244 985 1257T961 1272L846 1286V1374H1262V1286ZM937 1809Q937 1781 924 1761T890 1727L578 1528H462L734 1846Q757 1872 778 1886T843 1901Q896 1901 916 1871T937 1809Z" />
<glyph unicode="&#xde;" glyph-name="Thorn" horiz-adv-x="1184" d="M1104 709Q1104 567 1036 469T847 320T569 270Q541 270 507 273T449 278T424 281V141Q424 123 437 111T469 96L588 88V0H66V88L170 96Q189 98 202 110T215 141V1233Q215 1251 202 1264T170 1278L66
1286V1374H588V1286L469 1278Q450 1277 437 1264T424 1233V1118L563 1116Q843 1112 973 1019T1104 709ZM870 709Q870 862 794 945T520 1020Q517 1022 494 1021T447 1018T424 1016V383Q424 383 445 381T495 377T543 375Q707 374 788 454T870 709Z" />
<glyph unicode="&#xdf;" glyph-name="germandbls" horiz-adv-x="1286" d="M1217 305Q1217 205 1169 131T1039 16T860 -25Q813 -25 757 -12T659 14T618 27V301H729L748 123Q765 107 796 90T870 72Q947 72 994 125T1042 246Q1042 314 998 360T889 443T758 519T648
610T604 741Q604 852 675 925T852 1022Q852 1022 856 1047T865 1107T870 1169Q870 1261 820 1334T664 1407Q569 1407 512 1357T425 1232T385 1080T375 948V135Q375 112 385 100T406 86L510 78V0H45V78L143 88Q162 90 173 106T184 135V928Q184 1034 214 1137T307
1324T467 1458T700 1509Q877 1509 968 1417T1059 1169Q1059 1119 1051 1072T1034 994T1024 956Q1021 956 1011 958T979 961Q875 961 832 914T788 805Q788 745 831 704T939 627T1066 551T1173 452T1217 305Z" />
<glyph unicode="&#xe0;" glyph-name="agrave" horiz-adv-x="1042" d="M1008 0H705L678 121Q678 121 648 99T567 48T457 -3T336 -25Q225 -25 148 49T70 252Q70 309 90 358T172 451T355 538T678 625Q678 628 678 650T678 692T678 713Q678 915 487 915Q434 915 396
905T342 889V711H193Q165 711 141 721T117 770Q117 854 181 907T343 986T543 1012Q670 1012 740 973T838 864T866 705V131Q866 112 878 100T909 86L1008 80V0ZM678 193V547Q540 513 459 479T337 410T285 340T272 266Q272 203 312 150T426 96Q467 96 511 110T593
144T654 178T678 193ZM691 1128H574L263 1327Q216 1358 216 1409Q216 1441 237 1471T310 1501Q354 1501 374 1487T417 1446L691 1128Z" />
<glyph unicode="&#xe1;" glyph-name="aacute" horiz-adv-x="1042" d="M1008 0H705L678 121Q678 121 648 99T567 48T457 -3T336 -25Q225 -25 148 49T70 252Q70 309 90 358T172 451T355 538T678 625Q678 628 678 650T678 692T678 713Q678 915 487 915Q434 915 396
905T342 889V711H193Q165 711 141 721T117 770Q117 854 181 907T343 986T543 1012Q670 1012 740 973T838 864T866 705V131Q866 112 878 100T909 86L1008 80V0ZM678 193V547Q540 513 459 479T337 410T285 340T272 266Q272 203 312 150T426 96Q467 96 511 110T593
144T654 178T678 193ZM806 1409Q806 1381 793 1361T759 1327L447 1128H331L603 1446Q626 1472 647 1486T712 1501Q765 1501 785 1471T806 1409Z" />
<glyph unicode="&#xe2;" glyph-name="acircumflex" horiz-adv-x="1042" d="M1008 0H705L678 121Q678 121 648 99T567 48T457 -3T336 -25Q225 -25 148 49T70 252Q70 309 90 358T172 451T355 538T678 625Q678 628 678 650T678 692T678 713Q678 915 487 915Q434 915
396 905T342 889V711H193Q165 711 141 721T117 770Q117 854 181 907T343 986T543 1012Q670 1012 740 973T838 864T866 705V131Q866 112 878 100T909 86L1008 80V0ZM678 193V547Q540 513 459 479T337 410T285 340T272 266Q272 203 312 150T426 96Q467 96 511 110T593
144T654 178T678 193ZM845 1128H722L511 1331L298 1128H175L433 1475H587L845 1128Z" />
<glyph unicode="&#xe3;" glyph-name="atilde" horiz-adv-x="1042" d="M1008 0H705L678 121Q678 121 648 99T567 48T457 -3T336 -25Q225 -25 148 49T70 252Q70 309 90 358T172 451T355 538T678 625Q678 628 678 650T678 692T678 713Q678 915 487 915Q434 915 396
905T342 889V711H193Q165 711 141 721T117 770Q117 854 181 907T343 986T543 1012Q670 1012 740 973T838 864T866 705V131Q866 112 878 100T909 86L1008 80V0ZM678 193V547Q540 513 459 479T337 410T285 340T272 266Q272 203 312 150T426 96Q467 96 511 110T593
144T654 178T678 193ZM866 1423Q843 1333 786 1266T628 1198Q574 1198 535 1222T453 1271T343 1296Q302 1296 272 1266T237 1198H155Q178 1289 235 1356T393 1423Q447 1423 485 1399T566 1350T675 1325Q716 1325 748 1355T784 1423H866Z" />
<glyph unicode="&#xe4;" glyph-name="adieresis" horiz-adv-x="1042" d="M1008 0H705L678 121Q678 121 648 99T567 48T457 -3T336 -25Q225 -25 148 49T70 252Q70 309 90 358T172 451T355 538T678 625Q678 628 678 650T678 692T678 713Q678 915 487 915Q434 915
396 905T342 889V711H193Q165 711 141 721T117 770Q117 854 181 907T343 986T543 1012Q670 1012 740 973T838 864T866 705V131Q866 112 878 100T909 86L1008 80V0ZM678 193V547Q540 513 459 479T337 410T285 340T272 266Q272 203 312 150T426 96Q467 96 511 110T593
144T654 178T678 193ZM834 1313Q834 1267 802 1233T724 1198Q678 1198 645 1232T611 1313Q611 1356 645 1390T724 1425Q770 1425 802 1391T834 1313ZM410 1313Q410 1267 377 1233T298 1198Q253 1198 220 1232T187 1311Q187 1355 220 1390T298 1425Q344 1425 377
1392T410 1313Z" />
<glyph unicode="&#xe5;" glyph-name="aring" horiz-adv-x="1042" d="M1008 0H705L678 121Q678 121 648 99T567 48T457 -3T336 -25Q225 -25 148 49T70 252Q70 309 90 358T172 451T355 538T678 625Q678 628 678 650T678 692T678 713Q678 915 487 915Q434 915 396
905T342 889V711H193Q165 711 141 721T117 770Q117 854 181 907T343 986T543 1012Q670 1012 740 973T838 864T866 705V131Q866 112 878 100T909 86L1008 80V0ZM678 193V547Q540 513 459 479T337 410T285 340T272 266Q272 203 312 150T426 96Q467 96 511 110T593
144T654 178T678 193ZM754 1370Q754 1304 722 1249T634 1161T511 1128Q444 1128 389 1161T300 1249T267 1370Q267 1438 300 1493T388 1582T511 1616Q579 1616 634 1583T721 1494T754 1370ZM654 1370Q654 1430 613 1473T511 1516Q451 1516 409 1473T367 1370Q367
1312 409 1270T511 1227Q571 1227 612 1269T654 1370Z" />
<glyph unicode="&#xe6;" glyph-name="ae" horiz-adv-x="1477" d="M1407 102Q1378 81 1330 51T1215 -2T1067 -25Q978 -25 909 -2T791 53T719 107T694 131Q694 131 664 108T582 53T466 -1T334 -25Q205 -25 138 52T70 244Q70 353 127 416T310 526T645 625V709Q645
810 608 862T467 915Q418 915 386 905T338 889V711Q329 711 294 711T227 711T195 711Q155 711 136 723T117 770Q117 854 178 907T332 986T518 1012Q615 1012 668 991T749 942T791 891Q807 911 842 939T932 990T1067 1012Q1189 1012 1264 954T1373 801T1407 596Q1407
579 1405 552T1403 524H836V252Q880 208 952 161T1133 113Q1225 113 1288 146T1407 225V102ZM1204 612V674Q1204 736 1186 791T1129 880T1030 915Q955 915 913 870T853 756T836 612H1204ZM645 193V547Q494 506 412 467T298 381T266 272Q266 203 304 151T422 98Q470
98 522 122T609 169T645 193Z" />
<glyph unicode="&#xe7;" glyph-name="ccedilla" horiz-adv-x="954" d="M885 76Q816 39 730 7T539 -25Q396 -25 291 42T128 224T70 487Q70 659 138 776T319 952T563 1012Q698 1012 789 960T881 807Q881 747 844 717T760 686Q726 686 701 697T657 721V899Q610 926
571 926Q480 926 415 873T314 726T279 514Q279 401 317 308T430 159T618 104Q689 104 754 127T885 193V76ZM761 -266Q761 -361 694 -411T523 -461Q470 -461 421 -451T372 -440V-360Q372 -360 415 -368T497 -377Q546 -377 587 -359T628 -293Q628 -255 601 -236T532
-217Q518 -217 502 -223T485 -229V52H566V-129Q577 -127 587 -124T614 -121Q676 -121 718 -154T761 -266Z" />
<glyph unicode="&#xe8;" glyph-name="egrave" horiz-adv-x="1004" d="M934 102Q848 49 749 12T545 -25Q421 -25 313 30T137 199T70 483Q70 643 132 762T303 946T551 1012Q742 1012 838 894T934 592Q934 582 934 566T932 535H268Q268 457 284 380T340 239T445 138T610
100Q698 100 781 140T934 227V102ZM729 627V672Q729 773 681 842T530 911Q429 911 358 835T279 627H729ZM716 1128H599L288 1327Q241 1358 241 1409Q241 1441 262 1471T335 1501Q379 1501 399 1487T442 1446L716 1128Z" />
<glyph unicode="&#xe9;" glyph-name="eacute" horiz-adv-x="1004" d="M934 102Q848 49 749 12T545 -25Q421 -25 313 30T137 199T70 483Q70 643 132 762T303 946T551 1012Q742 1012 838 894T934 592Q934 582 934 566T932 535H268Q268 457 284 380T340 239T445 138T610
100Q698 100 781 140T934 227V102ZM729 627V672Q729 773 681 842T530 911Q429 911 358 835T279 627H729ZM831 1409Q831 1381 818 1361T784 1327L472 1128H356L628 1446Q651 1472 672 1486T737 1501Q790 1501 810 1471T831 1409Z" />
<glyph unicode="&#xea;" glyph-name="ecircumflex" horiz-adv-x="1004" d="M934 102Q848 49 749 12T545 -25Q421 -25 313 30T137 199T70 483Q70 643 132 762T303 946T551 1012Q742 1012 838 894T934 592Q934 582 934 566T932 535H268Q268 457 284 380T340 239T445
138T610 100Q698 100 781 140T934 227V102ZM729 627V672Q729 773 681 842T530 911Q429 911 358 835T279 627H729ZM870 1128H747L536 1331L323 1128H200L458 1475H612L870 1128Z" />
<glyph unicode="&#xeb;" glyph-name="edieresis" horiz-adv-x="1004" d="M934 102Q848 49 749 12T545 -25Q421 -25 313 30T137 199T70 483Q70 643 132 762T303 946T551 1012Q742 1012 838 894T934 592Q934 582 934 566T932 535H268Q268 457 284 380T340 239T445
138T610 100Q698 100 781 140T934 227V102ZM729 627V672Q729 773 681 842T530 911Q429 911 358 835T279 627H729ZM859 1313Q859 1267 827 1233T749 1198Q703 1198 670 1232T636 1313Q636 1356 670 1390T749 1425Q795 1425 827 1391T859 1313ZM435 1313Q435 1267
402 1233T323 1198Q278 1198 245 1232T212 1311Q212 1355 245 1390T323 1425Q369 1425 402 1392T435 1313Z" />
<glyph unicode="&#xec;" glyph-name="igrave" horiz-adv-x="621" d="M551 0H70V80L170 86Q213 89 213 131V862H72V934L322 1012H403V131Q403 112 415 100T446 86L551 80V0ZM491 1128H374L63 1327Q16 1358 16 1409Q16 1441 37 1471T110 1501Q154 1501 174 1487T217
1446L491 1128Z" />
<glyph unicode="&#xed;" glyph-name="iacute" horiz-adv-x="621" d="M551 0H70V80L170 86Q213 89 213 131V862H72V934L322 1012H403V131Q403 112 415 100T446 86L551 80V0ZM606 1409Q606 1381 593 1361T559 1327L247 1128H131L403 1446Q426 1472 447 1486T512
1501Q565 1501 585 1471T606 1409Z" />
<glyph unicode="&#xee;" glyph-name="icircumflex" horiz-adv-x="621" d="M551 0H70V80L170 86Q213 89 213 131V862H72V934L322 1012H403V131Q403 112 415 100T446 86L551 80V0ZM645 1128H522L311 1331L98 1128H-25L233 1475H387L645 1128Z" />
<glyph unicode="&#xef;" glyph-name="idieresis" horiz-adv-x="621" d="M551 0H70V80L170 86Q213 89 213 131V862H72V934L322 1012H403V131Q403 112 415 100T446 86L551 80V0ZM634 1313Q634 1267 602 1233T524 1198Q478 1198 445 1232T411 1313Q411 1356 445 1390T524
1425Q570 1425 602 1391T634 1313ZM210 1313Q210 1267 177 1233T98 1198Q53 1198 20 1232T-13 1311Q-13 1355 20 1390T98 1425Q144 1425 177 1392T210 1313Z" />
<glyph unicode="&#xf0;" glyph-name="eth" horiz-adv-x="1104" d="M1034 555Q1034 379 973 249T803 47T553 -25Q408 -25 299 42T130 229T70 500Q70 652 135 767T312 947T565 1012Q609 1012 655 998T702 983Q687 1010 662 1046T611 1118T566 1177T545 1204L285
1049L240 1130L475 1272L403 1354L231 1376V1434L483 1509L631 1358L854 1491L901 1409L692 1282Q719 1251 774 1182T890 1016T992 801T1034 555ZM836 514Q836 637 815 727T756 881Q756 881 731 891T669 912T600 922Q491 922 421 866T317 713T283 498Q283 390 310
292T399 131T559 68Q660 68 720 134T808 303T836 514Z" />
<glyph unicode="&#xf1;" glyph-name="ntilde" horiz-adv-x="1161" d="M1120 0H668V80L754 86Q772 88 784 100T797 131V664Q797 761 752 811T600 862Q542 862 485 846T375 803V131Q375 89 418 86L504 80V0H41V80L141 86Q184 89 184 131V842H41V909L291 987H375V885Q461
934 551 973T713 1012Q847 1012 917 929T987 696V131Q987 112 999 100T1030 86L1120 80V0ZM936 1423Q913 1333 856 1266T698 1198Q644 1198 605 1222T523 1271T413 1296Q372 1296 342 1266T307 1198H225Q248 1289 305 1356T463 1423Q517 1423 555 1399T636 1350T745
1325Q786 1325 818 1355T854 1423H936Z" />
<glyph unicode="&#xf2;" glyph-name="ograve" horiz-adv-x="1114" d="M1044 492Q1044 347 984 230T815 44T555 -25Q406 -25 297 43T129 228T70 492Q70 638 129 756T299 943T561 1012Q714 1012 822 942T987 754T1044 492ZM831 494Q831 606 802 703T712 860T559
920Q464 920 404 860T314 703T285 494Q285 383 314 286T404 128T557 68Q651 68 711 128T801 285T831 494ZM738 1128H621L310 1327Q263 1358 263 1409Q263 1441 284 1471T357 1501Q401 1501 421 1487T464 1446L738 1128Z" />
<glyph unicode="&#xf3;" glyph-name="oacute" horiz-adv-x="1114" d="M1044 492Q1044 347 984 230T815 44T555 -25Q406 -25 297 43T129 228T70 492Q70 638 129 756T299 943T561 1012Q714 1012 822 942T987 754T1044 492ZM831 494Q831 606 802 703T712 860T559
920Q464 920 404 860T314 703T285 494Q285 383 314 286T404 128T557 68Q651 68 711 128T801 285T831 494ZM853 1409Q853 1381 840 1361T806 1327L494 1128H378L650 1446Q673 1472 694 1486T759 1501Q812 1501 832 1471T853 1409Z" />
<glyph unicode="&#xf4;" glyph-name="ocircumflex" horiz-adv-x="1114" d="M1044 492Q1044 347 984 230T815 44T555 -25Q406 -25 297 43T129 228T70 492Q70 638 129 756T299 943T561 1012Q714 1012 822 942T987 754T1044 492ZM831 494Q831 606 802 703T712 860T559
920Q464 920 404 860T314 703T285 494Q285 383 314 286T404 128T557 68Q651 68 711 128T801 285T831 494ZM892 1128H769L558 1331L345 1128H222L480 1475H634L892 1128Z" />
<glyph unicode="&#xf5;" glyph-name="otilde" horiz-adv-x="1114" d="M1044 492Q1044 347 984 230T815 44T555 -25Q406 -25 297 43T129 228T70 492Q70 638 129 756T299 943T561 1012Q714 1012 822 942T987 754T1044 492ZM831 494Q831 606 802 703T712 860T559
920Q464 920 404 860T314 703T285 494Q285 383 314 286T404 128T557 68Q651 68 711 128T801 285T831 494ZM913 1423Q890 1333 833 1266T675 1198Q621 1198 582 1222T500 1271T390 1296Q349 1296 319 1266T284 1198H202Q225 1289 282 1356T440 1423Q494 1423 532
1399T613 1350T722 1325Q763 1325 795 1355T831 1423H913Z" />
<glyph unicode="&#xf6;" glyph-name="odieresis" horiz-adv-x="1114" d="M1044 492Q1044 347 984 230T815 44T555 -25Q406 -25 297 43T129 228T70 492Q70 638 129 756T299 943T561 1012Q714 1012 822 942T987 754T1044 492ZM831 494Q831 606 802 703T712 860T559
920Q464 920 404 860T314 703T285 494Q285 383 314 286T404 128T557 68Q651 68 711 128T801 285T831 494ZM881 1313Q881 1267 849 1233T771 1198Q725 1198 692 1232T658 1313Q658 1356 692 1390T771 1425Q817 1425 849 1391T881 1313ZM457 1313Q457 1267 424 1233T345
1198Q300 1198 267 1232T234 1311Q234 1355 267 1390T345 1425Q391 1425 424 1392T457 1313Z" />
<glyph unicode="&#xf7;" glyph-name="divide" horiz-adv-x="2048" d="M1147 944Q1147 892 1111 857T1024 821Q973 821 937 856T901 944Q901 995 937 1031T1024 1067Q1075 1067 1111 1031T1147 944ZM1638 551H410V678H1638V551ZM1147 285Q1147 234 1111 199T1024
164Q973 164 937 199T901 285Q901 337 937 372T1024 408Q1075 408 1111 373T1147 285Z" />
<glyph unicode="&#xf8;" glyph-name="oslash" horiz-adv-x="1114" d="M1044 492Q1044 347 984 230T815 44T555 -25Q489 -25 431 -10T322 31L209 -168L137 -125L252 76Q164 145 117 253T70 492Q70 638 129 756T299 943T561 1012Q618 1012 669 1002T764 971L866
1149L940 1108L838 930Q938 861 991 747T1044 492ZM705 866Q676 891 639 905T559 920Q464 920 404 860T314 703T285 494Q285 340 338 225L705 866ZM831 494Q831 580 814 658T762 797L389 145Q421 110 463 89T557 68Q651 68 711 128T801 285T831 494Z" />
<glyph unicode="&#xf9;" glyph-name="ugrave" horiz-adv-x="1165" d="M1120 0H795V117Q760 90 706 57T590 0T467 -25Q335 -25 260 54T184 307V862H41V932L293 1012H375V346Q375 237 419 176T573 115Q636 115 697 136T795 176V862H651V932L901 1012H985V131Q985
112 998 100T1030 86L1120 80V0ZM761 1128H644L333 1327Q286 1358 286 1409Q286 1441 307 1471T380 1501Q424 1501 444 1487T487 1446L761 1128Z" />
<glyph unicode="&#xfa;" glyph-name="uacute" horiz-adv-x="1165" d="M1120 0H795V117Q760 90 706 57T590 0T467 -25Q335 -25 260 54T184 307V862H41V932L293 1012H375V346Q375 237 419 176T573 115Q636 115 697 136T795 176V862H651V932L901 1012H985V131Q985
112 998 100T1030 86L1120 80V0ZM876 1409Q876 1381 863 1361T829 1327L517 1128H401L673 1446Q696 1472 717 1486T782 1501Q835 1501 855 1471T876 1409Z" />
<glyph unicode="&#xfb;" glyph-name="ucircumflex" horiz-adv-x="1165" d="M1120 0H795V117Q760 90 706 57T590 0T467 -25Q335 -25 260 54T184 307V862H41V932L293 1012H375V346Q375 237 419 176T573 115Q636 115 697 136T795 176V862H651V932L901 1012H985V131Q985
112 998 100T1030 86L1120 80V0ZM915 1128H792L581 1331L368 1128H245L503 1475H657L915 1128Z" />
<glyph unicode="&#xfc;" glyph-name="udieresis" horiz-adv-x="1165" d="M1120 0H795V117Q760 90 706 57T590 0T467 -25Q335 -25 260 54T184 307V862H41V932L293 1012H375V346Q375 237 419 176T573 115Q636 115 697 136T795 176V862H651V932L901 1012H985V131Q985
112 998 100T1030 86L1120 80V0ZM904 1313Q904 1267 872 1233T794 1198Q748 1198 715 1232T681 1313Q681 1356 715 1390T794 1425Q840 1425 872 1391T904 1313ZM480 1313Q480 1267 447 1233T368 1198Q323 1198 290 1232T257 1311Q257 1355 290 1390T368 1425Q414
1425 447 1392T480 1313Z" />
<glyph unicode="&#xfd;" glyph-name="yacute" horiz-adv-x="1085" d="M1065 907L958 895L565 -63Q552 -96 525 -157T460 -283T379 -391Q342 -428 298 -448T201 -469Q128 -469 90 -434T51 -352Q51 -284 117 -229L309 -317Q343 -283 377 -225T438 -105T481 2L133
895L20 907V987H473V907L375 901Q358 900 348 887T344 856L582 252L825 856Q832 872 823 886T797 901L700 907V987H1065V907ZM857 1409Q857 1381 844 1361T810 1327L498 1128H382L654 1446Q677 1472 698 1486T763 1501Q816 1501 836 1471T857 1409Z" />
<glyph unicode="&#xfe;" glyph-name="thorn" horiz-adv-x="1145" d="M1075 508Q1075 347 1013 227T835 41T557 -25Q520 -25 478 -20T405 -11T375 -6V-311Q375 -330 388 -341T420 -354L541 -367V-446H43V-367L141 -354Q184 -351 184 -311V1364H43V1432L295 1509H375V885Q375
885 400 904T469 948T568 993T684 1012Q790 1012 878 950T1021 774T1075 508ZM870 479Q870 585 838 673T742 814T584 868Q533 868 485 853T406 823T375 807V102Q375 102 426 86T541 70Q654 70 726 128T834 279T870 479Z" />
<glyph unicode="&#xff;" glyph-name="ydieresis" horiz-adv-x="1085" d="M1065 907L958 895L565 -63Q552 -96 525 -157T460 -283T379 -391Q342 -428 298 -448T201 -469Q128 -469 90 -434T51 -352Q51 -284 117 -229L309 -317Q343 -283 377 -225T438 -105T481 2L133
895L20 907V987H473V907L375 901Q358 900 348 887T344 856L582 252L825 856Q832 872 823 886T797 901L700 907V987H1065V907ZM885 1313Q885 1267 853 1233T775 1198Q729 1198 696 1232T662 1313Q662 1356 696 1390T775 1425Q821 1425 853 1391T885 1313ZM461 1313Q461
1267 428 1233T349 1198Q304 1198 271 1232T238 1311Q238 1355 271 1390T349 1425Q395 1425 428 1392T461 1313Z" />
<glyph unicode="&#x2013;" glyph-name="endash" horiz-adv-x="1024" d="M1024 422H0V563H1024V422Z" />
<glyph unicode="&#x2014;" glyph-name="emdash" horiz-adv-x="2048" d="M2048 422H0V563H2048V422Z" />
<glyph unicode="&#x2018;" glyph-name="quoteleft" horiz-adv-x="506" d="M381 1438Q348 1401 309 1355T240 1251T211 1126Q211 1117 212 1106T213 1087H342Q342 1087 357 1064T373 1006Q373 954 340 918T250 881Q171 881 126 931T80 1071Q80 1146 107 1208T172
1318T248 1400T305 1452L381 1438Z" />
<glyph unicode="&#x2019;" glyph-name="quoteright" horiz-adv-x="506" d="M426 1262Q426 1187 399 1125T334 1014T258 932T201 881L125 897Q194 965 245 1042T295 1208Q295 1216 294 1227T293 1245H164Q164 1245 149 1268T133 1327Q133 1380 165 1416T256 1452Q333
1452 379 1402T426 1262Z" />
<glyph unicode="&#x201a;" glyph-name="quotesinglbase" horiz-adv-x="506" d="M426 39Q426 -36 399 -98T334 -209T258 -291T201 -342L125 -326Q194 -258 245 -181T295 -14Q295 -6 294 4T293 23H164Q164 23 149 46T133 104Q133 157 165 193T256 229Q333 229 379
179T426 39Z" />
<glyph unicode="&#x201c;" glyph-name="quotedblleft" horiz-adv-x="928" d="M803 1438Q774 1404 734 1358T664 1255T633 1128Q633 1118 634 1107T635 1087H764Q764 1087 779 1065T795 1008Q795 956 761 919T672 881Q592 881 547 934T502 1075Q502 1149 529 1210T594
1320T670 1401T727 1452L803 1438ZM381 1438Q320 1377 266 1299T211 1126Q211 1116 212 1106T213 1087H342Q342 1087 357 1066T373 1006Q373 954 340 918T250 881Q171 881 126 932T80 1071Q80 1146 107 1208T172 1319T248 1401T305 1452L381 1438Z" />
<glyph unicode="&#x201d;" glyph-name="quotedblright" horiz-adv-x="928" d="M848 1262Q848 1187 821 1125T756 1014T680 932T623 881L547 897Q609 959 664 1036T719 1208Q719 1219 717 1228T715 1245H586Q586 1245 571 1268T555 1329Q555 1382 589 1417T678
1452Q756 1452 802 1401T848 1262ZM426 1260Q426 1186 399 1125T334 1015T258 933T201 881L125 897Q154 931 194 976T264 1079T295 1204Q295 1215 294 1226T293 1245H164Q164 1245 149 1269T133 1327Q133 1380 168 1416T258 1452Q338 1452 382 1400T426 1260Z"
/>
<glyph unicode="&#x201e;" glyph-name="quotedblbase" horiz-adv-x="928" d="M848 39Q848 -36 821 -98T756 -209T680 -291T623 -342L547 -326Q609 -264 664 -187T719 -14Q719 -3 717 6T715 23H586Q586 23 571 45T555 106Q555 159 589 194T678 229Q756 229 802
178T848 39ZM426 37Q426 -37 399 -98T334 -208T258 -290T201 -342L125 -326Q154 -292 194 -247T264 -144T295 -18Q295 -7 294 4T293 23H164Q164 23 149 46T133 104Q133 157 168 193T258 229Q338 229 382 177T426 37Z" />
<glyph unicode="&#x2022;" glyph-name="bullet" horiz-adv-x="614" d="M543 696Q543 598 474 530T307 461Q209 461 141 529T72 696Q72 794 140 863T307 932Q373 932 426 901T511 816T543 696Z" />
<glyph unicode="&#x2039;" glyph-name="guilsinglleft" horiz-adv-x="500" d="M370 0L40 441V544L370 987H470L215 493L470 0H370Z" />
<glyph unicode="&#x203a;" glyph-name="guilsinglright" horiz-adv-x="500" d="M130 987L460 546V443L130 0H30L285 494L30 987H130Z" />
</font>
</defs>
</svg>
