<?xml version="1.0" standalone="no"?>
<!DOCTYPE svg PUBLIC "-//W3C//DTD SVG 1.1//EN" "http://www.w3.org/Graphics/SVG/1.1/DTD/svg11.dtd">
<svg xmlns="http://www.w3.org/2000/svg">
<defs >
<font id="Enriqueta" horiz-adv-x="520" ><font-face
    font-family="Enriqueta"
    units-per-em="1000"
    panose-1="0 0 5 0 0 0 0 0 0 0"
    ascent="1077"
    descent="-261"
    alphabetic="0" />
<glyph unicode=" " glyph-name="space" horiz-adv-x="248" />
<glyph unicode="!" glyph-name="exclam" horiz-adv-x="313" d="M117 593L114 720H199L196 593L186 177L128 171L117 593ZM127 -5T114 7T100 49Q100 79 113 93T156 108Q186 108 199 96T213 53Q213 22 201 9T157 -5Q127 -5 114 7Z" />
<glyph unicode="&quot;" glyph-name="quotedbl" horiz-adv-x="289" d="M297 566Q286 701 286 755H365Q365 709 361 646T349 495H302L297 566ZM181 566Q170 701 170 755H249Q249 709 245 646T233 495H186L181 566Z" />
<glyph unicode="#" glyph-name="numbersign" horiz-adv-x="589" d="M424 337L404 227H532L515 168H394L365 5H298L327 168H219L190 5H123L152 168H30L47 227H163L182 337H56L74 396H193L224 569H291L260 396H368L399 569H465L434 396H559L542 337H424ZM357 337H249L230
227H338L357 337Z" />
<glyph unicode="$" glyph-name="dollar" horiz-adv-x="554" d="M490 147T468 107T401 40T296 6L306 -119H225L234 4Q176 6 139 14T47 41L60 187H129L140 97Q204 73 271 73Q330 73 366 100T402 176Q402 218 383 243T304 291L201 331Q63 385 63 502Q63 572 109 621T239
677L229 795H309L299 677Q349 674 396 665T467 648L455 508L389 507L374 591Q315 615 249 615Q201 615 175 592T148 524Q148 485 173 457T254 405L364 361Q425 336 457 296T490 193Q490 147 468 107Z" />
<glyph unicode="%" glyph-name="percent" horiz-adv-x="650" d="M106 13L485 595L537 559L159 -23L106 13ZM121 317T88 353T55 446Q55 479 71 510T117 560T188 579Q246 579 278 543T310 449Q310 416 294 386T248 336T177 317Q121 317 88 353ZM217 369T233 389T250
447Q250 483 231 505T179 527Q148 527 132 507T115 449Q115 413 134 391T186 369Q217 369 233 389ZM405 -10T372 26T339 119Q339 152 355 183T401 233T472 252Q530 252 562 216T594 122Q594 89 578 59T532 9T461 -10Q405 -10 372 26ZM501 42T517 62T534 120Q534
156 515 178T463 200Q432 200 416 180T400 122Q400 86 419 64T470 42Q501 42 517 62Z" />
<glyph unicode="&amp;" glyph-name="ampersand" horiz-adv-x="675" d="M650 63T660 70L650 5Q640 -3 630 -6T602 -10Q571 -10 526 14T429 81Q328 -10 224 -10Q165 -10 120 16T51 85T27 179Q27 245 62 296T165 395Q112 490 112 558Q112 638 162 684T293 730Q353
730 394 718T487 683L469 560H401L389 641Q373 651 347 658T287 665Q244 665 220 641T195 572Q195 516 240 433T355 268Q397 220 436 182Q494 249 542 334L599 305Q543 208 485 139Q578 63 631 63Q650 63 660 70ZM310 64T379 125Q277 221 200 336Q118 280 118 193Q118
131 156 98T249 64Q310 64 379 125Z" />
<glyph unicode="&apos;" glyph-name="quotesingle" horiz-adv-x="149" d="M46 566Q35 701 35 755H114Q114 709 110 646T98 495H51L46 566Z" />
<glyph unicode="(" glyph-name="parenleft" horiz-adv-x="317" d="M198 -162T158 -83T91 95T64 297Q64 446 117 575T241 784L287 743Q147 547 147 297Q147 178 179 57T287 -169L241 -210Q198 -162 158 -83Z" />
<glyph unicode=")" glyph-name="parenright" horiz-adv-x="317" d="M30 -169Q105 -65 137 56T170 297Q170 547 30 743L76 784Q147 704 200 575T253 297Q253 195 227 96T160 -83T76 -210L30 -169Z" />
<glyph unicode="*" glyph-name="asterisk" horiz-adv-x="353" d="M320 522T320 501Q320 488 301 463L196 537Q205 476 205 437Q205 425 197 416T176 407Q157 407 145 409L158 536Q120 506 97 490T61 474Q47 474 39 483T22 515L137 568L53 607Q32 617 32 637Q32
646 37 654T52 675L157 601L153 643Q148 678 148 700Q148 714 156 722T178 731Q189 731 197 730T208 729L196 600Q214 612 235 630Q256 647 268 655T290 664Q305 664 313 654T331 622L216 568Q274 540 297 531Q320 522 320 501Z" />
<glyph unicode="+" glyph-name="plus" d="M450 202H290V40H224V202H70V268H224V436H290V268H450V202Z" />
<glyph unicode="," glyph-name="comma" horiz-adv-x="229" d="M142 115T162 95T182 38Q182 -14 153 -56T73 -126L48 -96Q76 -84 98 -61T127 -6Q123 -7 118 -8T106 -9Q80 -9 64 7T48 51Q48 82 64 98T110 115Q142 115 162 95Z" />
<glyph unicode="-" glyph-name="hyphen" horiz-adv-x="365" d="M45 285H325L320 223H40L45 285Z" />
<glyph unicode="." glyph-name="period" horiz-adv-x="229" d="M78 -6T65 7T52 55Q52 90 67 104T117 118Q151 118 164 104T177 55Q177 21 162 8T112 -6Q78 -6 65 7Z" />
<glyph unicode="/" glyph-name="slash" horiz-adv-x="360" d="M274 833H330L85 -131H30L274 833Z" />
<glyph unicode="0" glyph-name="zero" horiz-adv-x="582" d="M201 -10T147 22T65 112T37 242Q37 312 67 374T158 474T305 512Q381 512 435 480T517 390T545 260Q545 190 515 128T424 28T277 -10Q201 -10 147 22ZM457 57T457 251Q457 344 410 395T280 446Q126 446
126 251Q126 158 172 108T302 57Q457 57 457 251Z" />
<glyph unicode="1" glyph-name="one" horiz-adv-x="374" d="M339 59V0H56V59L144 66Q159 67 163 75T168 105V415L63 375L37 426L192 503H248V105Q248 83 252 75T272 66L339 59Z" />
<glyph unicode="2" glyph-name="two" horiz-adv-x="467" d="M419 76V0H44Q44 64 60 98T121 167Q142 183 188 211Q232 239 258 259T302 305T320 364Q320 404 294 425T220 447Q176 447 142 435L129 360H72L62 482Q67 483 119 497T232 512Q318 512 363 472T409 366Q409
315 382 277T321 215T236 165Q184 137 163 118T136 76H419Z" />
<glyph unicode="3" glyph-name="three" horiz-adv-x="469" d="M325 181T368 140T411 27Q411 -34 382 -83T301 -160T188 -188Q108 -188 15 -153L35 -87Q41 -89 68 -98T129 -113T195 -120Q254 -120 288 -81T322 19Q322 72 290 104T196 141L115 147L110 211Q153 214
197 231T270 280T300 361Q300 400 275 423T204 447Q164 447 124 436L112 363H52L44 482Q49 483 100 497T213 512Q298 512 343 471T388 366Q388 308 351 264T254 194Q325 181 368 140Z" />
<glyph unicode="4" glyph-name="four" horiz-adv-x="497" d="M473 0H397V-179H317V0H63L20 71L312 512L369 472L123 71H317V246L397 255V71H473V0Z" />
<glyph unicode="5" glyph-name="five" horiz-adv-x="475" d="M350 212T383 165T416 49Q416 -21 385 -75T303 -158T191 -188Q138 -188 93 -176T15 -149L35 -84Q42 -86 70 -96T134 -113T205 -120Q261 -120 294 -78T327 33Q327 91 297 124T188 166L80 179L107 503H414L404
426H173L155 240Q218 233 257 227Q350 212 383 165Z" />
<glyph unicode="6" glyph-name="six" horiz-adv-x="549" d="M397 428T447 373T497 222Q497 151 470 99T392 18T275 -10Q166 -10 111 64T56 276Q56 400 100 501T233 663T450 730V664Q313 658 240 577T149 372Q218 428 305 428Q397 428 447 373ZM353 59T381 95T410
205Q410 360 279 360Q238 360 203 347T144 313Q143 303 143 284Q143 166 183 113T294 59Q353 59 381 95Z" />
<glyph unicode="7" glyph-name="seven" horiz-adv-x="474" d="M444 503V485Q444 459 437 436T411 375Q357 265 275 95T139 -187L62 -146Q311 289 359 425H117L107 340H48L34 503H444Z" />
<glyph unicode="8" glyph-name="eight" horiz-adv-x="511" d="M375 346T405 319T450 259T466 181Q466 121 436 78T356 12T247 -10Q154 -10 100 36T45 160Q45 207 65 244T112 306T187 367Q129 407 99 451T68 554Q68 609 94 648T166 709T264 730Q348 730 395 685T442
571Q442 513 411 469T322 380Q375 346 405 319ZM148 668T148 573Q148 525 178 490T278 409Q322 448 342 478T363 554Q363 610 329 639T246 668Q148 668 148 573ZM325 52T353 81T382 165Q382 200 368 227T324 278T237 336L230 340Q179 298 154 265T129 181Q129 120
167 86T270 52Q325 52 353 81Z" />
<glyph unicode="9" glyph-name="nine" horiz-adv-x="547" d="M378 512T433 439T488 237Q488 24 390 -86T85 -196L88 -129Q240 -127 310 -58T395 139Q364 115 329 101T245 87Q152 87 101 139T50 280Q50 394 110 453T270 512Q378 512 433 439ZM307 155T341 169T400
201V228Q400 339 363 392T253 445Q194 445 166 409T138 292Q138 225 170 190T273 155Q307 155 341 169Z" />
<glyph unicode=":" glyph-name="colon" horiz-adv-x="229" d="M77 362T64 376T51 426Q51 461 66 475T117 489Q152 489 165 475T179 426Q179 391 164 377T112 362Q77 362 64 376ZM77 -5T64 8T51 58Q51 93 66 107T117 122Q152 122 165 108T179 58Q179 23 164 9T112
-5Q77 -5 64 8Z" />
<glyph unicode=";" glyph-name="semicolon" horiz-adv-x="229" d="M397 115T417 95T437 38Q437 -14 408 -56T328 -126L303 -96Q331 -84 353 -61T382 -6Q378 -7 373 -8T361 -9Q335 -9 319 7T303 51Q303 82 319 98T365 115Q397 115 417 95ZM86 365T73 378T60 426Q60
461 75 475T125 489Q159 489 172 475T185 426Q185 392 170 379T120 365Q86 365 73 378Z" />
<glyph unicode="&lt;" glyph-name="less" horiz-adv-x="539" d="M149 240L449 55L415 0L70 211V269L416 480L449 426L149 240Z" />
<glyph unicode="=" glyph-name="equal" horiz-adv-x="550" d="M80 351H470V291H80V351ZM80 182H470V122H80V182Z" />
<glyph unicode="&gt;" glyph-name="greater" horiz-adv-x="539" d="M468 269V211L123 0L90 55L390 240L90 426L123 480L468 269Z" />
<glyph unicode="?" glyph-name="question" horiz-adv-x="446" d="M323 729T369 686T416 570Q416 510 389 472T320 404Q294 386 263 368Q249 360 225 344Q208 332 203 317T198 274V182L134 176Q132 192 132 199Q124 258 124 299Q124 331 139 353T181 393L211 413Q227
423 263 447Q295 469 314 496T333 567Q333 616 302 643T209 670Q184 670 166 666T127 653L116 570H53L42 697Q138 729 221 729Q323 729 369 686ZM200 108T213 96T227 53Q227 22 215 9T171 -5Q141 -5 128 7T114 49Q114 79 127 93T170 108Q200 108 213 96Z" />
<glyph unicode="@" glyph-name="at" horiz-adv-x="928" d="M546 -102T632 -73T788 -1L815 -53Q732 -105 635 -137T436 -169Q262 -169 162 -79T62 213Q62 355 118 467T279 644T520 708Q631 708 710 668T831 555T873 384Q873 299 844 227T764 111T656 68Q617 68
589 88T548 144Q516 110 478 89T401 68Q341 68 305 111T268 229Q268 303 296 360T372 447T481 478Q513 478 546 469T603 446L660 463Q643 390 632 320T621 209Q621 173 635 154T675 135Q711 135 738 166T779 252T794 372Q794 501 720 571T500 641Q384 641 305 588T186
442T147 226Q147 59 228 -21T456 -102Q546 -102 632 -73ZM451 138T481 155T538 202Q538 274 564 387Q514 419 464 419Q410 419 382 376T353 244Q353 138 425 138Q451 138 481 155Z" />
<glyph unicode="A" glyph-name="A" horiz-adv-x="685" d="M684 57V0H437V55L489 64Q515 69 515 88Q515 97 511 109L467 239H199L154 112Q150 98 150 90Q150 69 177 64L227 55V0H-4V57L31 64Q51 68 60 76T78 110L296 720H390L600 110Q608 86 617 77T648 64L684
57ZM444 306L348 589L335 639L322 589L222 306H444Z" />
<glyph unicode="B" glyph-name="B" horiz-adv-x="623" d="M495 379T538 336T582 214Q582 115 514 58T327 0H53V57L103 66Q121 69 126 76T132 104V616Q132 636 127 643T103 654L53 663V720H309Q534 720 534 555Q534 495 503 448T421 386Q495 379 538 336ZM444 597T406
623T285 650H214V408H298Q376 408 410 434T444 527Q444 597 406 623ZM411 70T451 100T492 202Q492 276 451 308T326 340H214V70H326Q411 70 451 100Z" />
<glyph unicode="C" glyph-name="C" horiz-adv-x="612" d="M193 -10T119 83T45 345Q45 464 82 551T192 684T367 730Q429 730 485 714T582 674L566 509H504L488 626Q424 657 348 657Q234 657 185 590T136 383Q136 221 194 143T359 64Q447 64 560 112L579 49Q524
25 460 8T332 -10Q193 -10 119 83Z" />
<glyph unicode="D" glyph-name="D" horiz-adv-x="702" d="M503 720T580 638T657 381Q657 203 579 102T346 0H53V57L103 66Q121 69 126 77T132 106V617Q132 638 127 646T103 657L53 663V720H346Q503 720 580 638ZM455 70T509 137T564 356Q564 510 508 580T332 650H215V70H332Q455
70 509 137Z" />
<glyph unicode="E" glyph-name="E" horiz-adv-x="608" d="M567 0H53V58L103 67Q121 70 126 77T132 105V616Q132 637 127 645T103 656L53 662V720H563L557 549H495L489 621Q488 638 480 644T451 650H215V409H453V343H215V70H454Q474 70 482 76T492 99L498 175H561L567 0Z" />
<glyph unicode="F" glyph-name="F" horiz-adv-x="550" d="M547 720L541 548H479L473 621Q472 638 464 644T435 650H215V402H431V335H215V103Q215 83 221 75T245 65L316 57V0H53V57L103 66Q121 69 126 76T132 104V621Q132 639 126 647T103 657L53 663V720H547Z" />
<glyph unicode="G" glyph-name="G" horiz-adv-x="679" d="M649 275L617 268Q600 264 595 257T589 230V51Q524 20 459 5T337 -10Q196 -10 121 83T45 347Q45 527 129 628T372 730Q441 730 500 713T601 671L585 510H523L504 625Q425 657 347 657Q234 657 185 590T136
382Q136 221 194 143T360 65Q433 65 510 92V228Q510 247 504 255T481 266L414 275V329H648L649 275Z" />
<glyph unicode="H" glyph-name="H" horiz-adv-x="737" d="M629 651T624 644T618 616V104Q618 84 623 77T647 66L697 57V0H451V57L506 66Q524 69 529 76T535 104V344H192V104Q192 84 197 77T221 66L276 57V0H30V57L80 66Q98 69 103 76T109 104V616Q109 636 104
643T80 654L30 663V720H276V663L221 654Q203 651 198 644T192 616V410H535V616Q535 636 530 643T506 654L451 663V720H697V663L647 654Q629 651 624 644Z" />
<glyph unicode="I" glyph-name="I" horiz-adv-x="348" d="M53 57L104 66Q122 69 127 76T133 104V616Q133 636 128 643T104 654L53 663V720H295V663L245 654Q227 651 222 644T216 616V104Q216 84 221 77T245 66L295 57V0H53V57Z" />
<glyph unicode="J" glyph-name="J" horiz-adv-x="324" d="M39 -57T72 -25T117 46T128 158V616Q128 636 123 643T99 654L49 663V720H289V663L240 654Q222 651 217 644T211 616V148Q211 59 196 11T138 -71T2 -155L-35 -101Q39 -57 72 -25Z" />
<glyph unicode="K" glyph-name="K" horiz-adv-x="637" d="M632 61T652 68L647 8Q637 1 617 -4T572 -10Q530 -10 500 14T432 88L215 381V104Q215 84 220 77T244 66L298 57V0H53V57L103 66Q121 69 126 76T132 104V616Q132 636 127 643T103 654L53 663V720H298V663L244
654Q226 651 221 644T215 616V401L471 677Q511 720 574 720H614V657Q580 657 560 650T517 619L306 393L495 145Q534 95 557 78T607 61Q632 61 652 68Z" />
<glyph unicode="L" glyph-name="L" horiz-adv-x="547" d="M530 0H53V57L103 66Q121 69 126 76T132 104V616Q132 636 127 643T103 654L53 663V720H300V663L244 654Q226 651 221 644T215 616V69H420Q440 69 448 75T458 98L464 177H524L530 0Z" />
<glyph unicode="M" glyph-name="M" horiz-adv-x="905" d="M878 57V0H633V57L686 63Q700 65 708 73T715 95L686 541L682 617L659 542L482 0H413L230 545L207 617L205 544L177 97Q176 81 183 73T207 63L258 57V0H27V57L78 66Q96 69 100 75T107 103L143 627Q144 640
136 647T113 657L64 663V720H258L438 179L454 113L471 183L644 720H841V663L793 657Q775 655 768 648T762 625L798 103Q800 82 804 76T827 66L878 57Z" />
<glyph unicode="N" glyph-name="N" horiz-adv-x="763" d="M733 720V663L683 657Q665 655 660 647T654 617V0H585L220 551L195 599L202 548V104Q202 84 207 77T231 66L281 57V0H53V57L103 66Q121 69 126 76T132 104V617Q132 638 127 646T103 657L53 663V720H208L563
178L596 118L584 179V617Q584 638 579 646T556 657L505 663V720H733Z" />
<glyph unicode="O" glyph-name="O" horiz-adv-x="714" d="M196 -10T121 84T46 345Q46 520 127 625T368 730Q518 730 593 636T669 375Q669 200 588 95T346 -10Q196 -10 121 84ZM481 63T528 132T576 339Q576 657 343 657Q233 657 186 588T139 381Q139 63 371 63Q481
63 528 132Z" />
<glyph unicode="P" glyph-name="P" horiz-adv-x="562" d="M215 275V104Q215 84 221 76T245 66L316 57V0H53V57L103 66Q121 69 126 76T132 104V616Q132 636 127 643T103 654L53 663V720H312Q429 720 485 674T542 529Q542 453 509 395T419 306T289 275H215ZM452
650T306 650H215V343H301Q383 343 417 384T452 515Q452 650 306 650Z" />
<glyph unicode="Q" glyph-name="Q" horiz-adv-x="712" d="M194 -10T120 85T45 350Q45 461 80 547T189 681T372 730Q519 730 593 635T668 370Q668 197 586 94T340 -10Q194 -10 120 85ZM447 63T493 95T558 192T577 359Q577 503 516 580T346 657Q265 657 220 625T155
528T136 361Q136 217 197 140T366 63Q447 63 493 95ZM204 -82Q234 -68 265 -60T334 -51Q367 -51 399 -59T485 -85Q527 -99 554 -106T604 -114Q645 -114 684 -91L699 -142Q679 -160 647 -172T583 -184Q553 -184 523 -176T444 -151Q400 -135 370 -127T309 -118Q285
-118 268 -122T224 -135L204 -82Z" />
<glyph unicode="R" glyph-name="R" horiz-adv-x="633" d="M632 60T648 67L644 9Q619 -10 574 -10Q539 -10 511 8T457 65L333 262Q310 298 293 311T248 324H215V104Q215 84 221 77T245 66L305 57V0H53V57L103 66Q121 69 126 76T132 104V616Q132 636 127 643T103
654L53 663V720H313Q426 720 483 674T541 540Q541 455 490 404T357 343Q378 335 393 320T424 280L531 111Q563 60 612 60Q632 60 648 67ZM379 393T415 425T451 528Q451 587 412 618T297 650H215V393H307Q379 393 415 425Z" />
<glyph unicode="S" glyph-name="S" horiz-adv-x="553" d="M138 -10T45 35L57 197H124L139 84Q198 57 276 57Q314 57 348 73T404 119T425 187Q425 217 416 237T383 274T311 311L202 355Q133 383 96 426T58 535Q58 588 85 632T163 703T282 729Q343 729 387 722T480
699L467 547H400L385 641Q337 662 263 662Q206 662 174 636T142 560Q142 510 167 481T260 425L343 392Q397 371 431 350T487 293T509 202Q509 143 476 95T385 18T256 -10Q138 -10 45 35Z" />
<glyph unicode="T" glyph-name="T" horiz-adv-x="604" d="M597 720L591 547H530L524 621Q523 638 515 644T486 650H344V104Q344 84 349 77T373 66L429 57V0H176V57L232 66Q250 69 255 76T261 104V650H118Q98 650 90 644T81 621L74 547H13L7 720H597Z" />
<glyph unicode="U" glyph-name="U" horiz-adv-x="699" d="M230 -10T165 52T99 237V616Q99 636 94 643T70 654L20 663V720H261V663L211 654Q193 651 188 644T182 616V252Q182 157 228 113T365 69Q420 69 454 85T505 143T522 260V616Q522 636 517 643T493 654L443
663V720H679V663L630 654Q612 651 607 644T601 616V246Q601 127 533 59T343 -10Q230 -10 165 52Z" />
<glyph unicode="V" glyph-name="V" horiz-adv-x="656" d="M659 720V663L625 659Q604 657 595 649T577 616L381 1H301L87 616Q79 639 66 647T28 659L-5 663V720H249V664L186 656Q169 653 169 640Q169 633 174 616L315 203L345 106L372 203L499 616Q504 633 504
640Q504 653 487 656L420 664V720H659Z" />
<glyph unicode="W" glyph-name="W" horiz-adv-x="973" d="M980 720V663L945 658Q922 655 914 647T900 615L736 0H660L522 421L492 514L467 421L342 0H262L79 615Q72 638 61 645T25 658L-1 663V720H246V664L181 657Q172 656 167 652T162 640Q162 630 169 607L285
203L307 120L327 203L458 646H532L676 202L699 125L715 203L822 607Q823 613 826 624T829 640Q829 647 824 651T810 657L747 664V720H980Z" />
<glyph unicode="X" glyph-name="X" horiz-adv-x="670" d="M671 57V0H402V56L467 62Q476 63 482 68T488 80Q488 86 485 91T477 104L329 319L195 104Q190 97 187 91T184 78Q184 64 203 62L265 56V0H15V57L48 63Q71 67 86 77T115 109L284 373L111 618Q95 640 85 647T52
658L22 663V720H273V664L216 658Q200 657 200 642Q200 637 203 631T211 618L343 430L462 618Q464 621 469 628T474 643Q474 649 469 653T456 658L407 664V720H645V663L611 658Q585 654 572 646T545 618L388 376L581 99Q595 80 606 72T637 61L671 57Z" />
<glyph unicode="Y" glyph-name="Y" horiz-adv-x="633" d="M647 720V663L609 658Q589 655 581 648T559 616L361 254V104Q361 84 366 77T390 66L447 57V0H192V57L249 66Q267 69 272 76T278 104V254L79 616Q67 637 55 645T19 658L-9 663V720H246V664L196 658Q164
654 164 639Q164 632 172 616L327 331L480 616Q487 628 487 637Q487 651 453 657L406 664V720H647Z" />
<glyph unicode="Z" glyph-name="Z" horiz-adv-x="611" d="M579 0H48V74L461 651H174Q154 651 146 645T136 622L130 549H69L63 720H559V649L144 69H467Q487 69 495 75T505 98L511 177H573L579 0Z" />
<glyph unicode="[" glyph-name="bracketleft" horiz-adv-x="317" d="M292 -111L297 -170H96V780H297L292 722H169V-111H292Z" />
<glyph unicode="\" glyph-name="backslash" horiz-adv-x="360" d="M289 -131L45 833H100L345 -131H289Z" />
<glyph unicode="]" glyph-name="bracketright" horiz-adv-x="317" d="M227 780V-170H26L31 -111H154V722H31L26 780H227Z" />
<glyph unicode="^" glyph-name="asciicircum" horiz-adv-x="567" d="M456 339L281 645L110 339L55 369L246 720H320L512 369L456 339Z" />
<glyph unicode="_" glyph-name="underscore" horiz-adv-x="455" d="M0 -68H455V-122H0V-68Z" />
<glyph unicode="`" glyph-name="grave" horiz-adv-x="293" d="M199 559T183 576L57 714L116 765L255 576Q253 575 246 570T232 562T217 559Q199 559 183 576Z" />
<glyph unicode="a" glyph-name="a" horiz-adv-x="518" d="M493 54V0H351L343 79Q298 35 258 13T176 -10Q116 -10 81 25T45 120Q45 179 80 215T182 261L339 283V350Q339 390 313 410T237 430Q182 430 141 411L129 338H72L64 453Q165 490 251 490Q321 490 370 454T419
352V98Q419 77 423 70T441 61L493 54ZM130 94T148 76T197 58Q228 58 261 78T339 138V229L206 206Q169 200 150 180T130 127Q130 94 148 76Z" />
<glyph unicode="b" glyph-name="b" horiz-adv-x="540" d="M366 490T409 462T477 381T501 253Q501 177 473 118T391 24T261 -10Q218 -10 169 1T80 35V684Q80 704 75 712T55 721L0 727V780H160V424Q188 453 226 471T310 490Q366 490 409 462ZM358 57T386 102T414
244Q414 333 378 378T280 424Q245 424 214 406T160 360V96Q212 57 287 57Q358 57 386 102Z" />
<glyph unicode="c" glyph-name="c" horiz-adv-x="454" d="M150 -10T95 49T40 220Q40 302 68 363T149 457T270 490Q318 490 359 479T422 453L414 330H357L345 404Q305 424 246 424Q181 424 154 380T127 240Q127 148 166 103T270 57Q306 57 339 64T423 84L435 32Q340
-10 255 -10Q150 -10 95 49Z" />
<glyph unicode="d" glyph-name="d" horiz-adv-x="555" d="M535 54V0H392L384 66Q321 -10 228 -10Q141 -10 91 52T40 222Q40 297 70 358T153 455T271 490Q330 490 380 470V684Q380 705 375 712T355 721L296 727V780H460V98Q460 77 464 70T483 61L535 54ZM293 57T325
78T380 130V387Q323 424 247 424Q186 424 157 378T127 232Q127 148 161 103T255 57Q293 57 325 78Z" />
<glyph unicode="e" glyph-name="e" horiz-adv-x="483" d="M338 58T430 86L444 36Q408 18 354 4T245 -10Q143 -10 92 52T40 220Q40 342 97 416T263 490Q336 490 376 461T432 378T448 241L127 221Q129 140 166 99T273 58Q338 58 430 86ZM206 424T181 411T143 366T127
278L366 299Q366 359 340 391T250 424Q206 424 181 411Z" />
<glyph unicode="f" glyph-name="f" horiz-adv-x="332" d="M233 719T213 700T193 646V486L318 495V427H193V98Q193 77 197 69T217 60L288 54V0H39V54L90 61Q105 62 109 69T113 98V427H36V476L113 484V590Q113 687 164 738T304 790Q355 790 405 771L375 696Q313
719 271 719Q233 719 213 700Z" />
<glyph unicode="g" glyph-name="g" horiz-adv-x="495" d="M480 458Q445 434 401 432Q440 384 440 318Q440 262 413 218T337 150T229 125Q218 125 196 127L168 65Q168 49 186 46Q243 35 294 28L368 16Q420 8 445 -15T471 -81Q471 -126 441 -165T357 -227T235 -250Q169
-250 113 -234T27 -191L48 -68H104L105 -146Q127 -162 169 -172T262 -183Q324 -183 358 -161T392 -98Q392 -79 378 -69T332 -53L298 -48Q180 -29 158 -25Q123 -18 107 0T90 51L146 139Q94 158 66 201T38 307Q38 362 64 403T139 468T252 491Q346 491 385 494T480
512V458ZM305 184T330 215T356 310Q356 370 325 402T231 435Q167 435 145 406T122 308Q122 248 153 216T246 184Q305 184 330 215Z" />
<glyph unicode="h" glyph-name="h" horiz-adv-x="607" d="M582 54V0H427V320Q427 366 401 391T324 416Q281 416 245 395T189 338V98Q189 77 193 70T212 61L267 54V0H35V54L86 61Q101 62 105 69T109 98V683Q109 705 105 712T86 721L35 727V780H189V408Q221 447
264 468T355 490Q428 490 467 450T507 347V98Q507 77 511 70T530 61L582 54Z" />
<glyph unicode="i" glyph-name="i" horiz-adv-x="298" d="M112 596T100 609T88 652Q88 683 102 697T149 711Q180 711 191 698T203 651Q203 620 189 608T143 596Q112 596 100 609ZM43 54L94 61Q109 62 113 69T117 98V384Q117 406 113 413T94 422L43 428V480H197V98Q197
77 201 70T220 61L272 54V0H43V54Z" />
<glyph unicode="j" glyph-name="j" horiz-adv-x="256" d="M93 597T82 609T70 652Q70 683 84 697T130 711Q161 711 172 698T184 651Q184 620 170 609T124 597Q93 597 82 609ZM-32 -212Q28 -173 54 -146T88 -83T97 25V384Q97 406 93 413T74 422L22 428V480H177V0Q177
-74 165 -114T119 -183T13 -250L-32 -212Z" />
<glyph unicode="k" glyph-name="k" horiz-adv-x="525" d="M515 56T540 61L530 5Q498 -10 468 -10Q406 -10 357 53L187 272V98Q187 77 191 70T210 61L256 53V0H32V54L84 61Q98 62 102 69T107 98V684Q107 705 103 712T84 721L32 727V780H187V290L327 432Q354 459
378 469T442 480H469V422H453Q412 422 378 393Q363 382 297 313Q297 313 266 282L399 120Q429 84 451 70T501 56Q515 56 540 61Z" />
<glyph unicode="l" glyph-name="l" horiz-adv-x="288" d="M32 54L84 61Q98 62 102 69T107 98V686Q107 706 103 712T84 721L32 727V780H187V98Q187 77 191 70T210 61L261 54V0H32V54Z" />
<glyph unicode="m" glyph-name="m" horiz-adv-x="907" d="M882 54V0H727V322Q727 365 701 390T630 416Q591 416 557 394T502 337V313V98Q502 77 506 70T525 61L579 54V0H422V322Q422 366 396 391T325 416Q286 416 252 396T197 338V98Q197 77 201 70T220 61L275
54V0H43V54L94 61Q109 62 113 69T117 98V384Q117 406 113 413T94 422L43 428V480H185L193 403Q262 490 355 490Q406 490 442 467T493 399Q527 442 566 466T659 490Q728 490 767 449T807 343V98Q807 77 811 70T830 61L882 54Z" />
<glyph unicode="n" glyph-name="n" horiz-adv-x="615" d="M590 54V0H435V320Q435 366 409 391T332 416Q289 416 253 395T197 338V98Q197 77 201 70T220 61L275 54V0H43V54L94 61Q109 62 113 69T117 98V391Q117 408 112 415T92 423L43 428V480H185L194 406Q230
447 271 468T363 490Q436 490 475 450T515 347V98Q515 77 519 70T538 61L590 54Z" />
<glyph unicode="o" glyph-name="o" horiz-adv-x="543" d="M154 -10T97 54T40 224Q40 301 71 361T158 456T288 490Q388 490 445 427T503 260Q503 183 473 122T386 25T255 -10Q154 -10 97 54ZM358 57T387 100T416 240Q416 329 375 376T258 424Q185 424 156 380T127
240Q127 149 168 103T285 57Q358 57 387 100Z" />
<glyph unicode="p" glyph-name="p" horiz-adv-x="565" d="M429 490T477 426T525 248Q525 176 494 117T408 24T285 -10Q234 -10 184 10V-142Q184 -163 188 -170T207 -179L275 -186V-240H28V-186L82 -179Q96 -178 100 -171T104 -142V384Q104 406 100 413T82 422L30
428V480H174L182 415Q245 490 338 490Q429 490 477 426ZM381 57T409 104T438 248Q438 333 405 378T310 424Q272 424 238 403T184 348V92Q238 57 315 57Q381 57 409 104Z" />
<glyph unicode="q" glyph-name="q" horiz-adv-x="541" d="M536 -186V-240H290V-186L358 -179Q373 -178 377 -171T381 -142V45Q353 21 314 6T231 -10Q144 -10 92 52T40 225Q40 301 69 361T153 456T281 490Q339 490 392 468L461 480V-142Q461 -163 465 -170T484
-179L536 -186ZM295 57T327 73T381 114V388Q358 403 324 413T254 424Q185 424 156 380T127 241Q127 152 161 105T254 57Q295 57 327 73Z" />
<glyph unicode="r" glyph-name="r" horiz-adv-x="432" d="M394 490T428 471L420 345H362L351 408Q339 416 314 416Q275 416 242 381T197 297V98Q197 77 201 70T220 61L291 54V0H41V54L94 61Q109 62 113 69T117 98V384Q117 406 113 413T94 422L43 428V480H183L193
385Q215 429 258 459T348 490Q394 490 428 471Z" />
<glyph unicode="s" glyph-name="s" horiz-adv-x="430" d="M47 146H105L113 73Q161 52 217 52Q257 52 285 69T313 125Q313 148 295 164T240 196L170 224Q107 249 79 278T50 358Q50 422 102 456T227 490Q298 490 382 462L374 345H317L304 418Q255 433 209 433Q127
433 127 370Q127 343 146 326T208 291L270 267Q335 241 365 214T395 140Q395 94 370 60T302 8T212 -10Q160 -10 120 -1T38 25L47 146Z" />
<glyph unicode="t" glyph-name="t" horiz-adv-x="356" d="M296 52T341 61L332 9Q317 2 283 -4T213 -10Q150 -10 122 27T94 141V423H20V471L94 480V569L174 587V480L307 490V423H174V172Q174 127 181 102T209 64T270 52Q296 52 341 61Z" />
<glyph unicode="u" glyph-name="u" horiz-adv-x="587" d="M562 54V0H422L414 76Q336 -10 245 -10Q171 -10 131 27T90 133V384Q90 406 86 413T67 422L15 428V480H170V160Q170 65 263 65Q356 65 408 142V384Q408 406 404 413T385 422L330 428V480H488V98Q488 77
492 70T510 61L562 54Z" />
<glyph unicode="v" glyph-name="v" horiz-adv-x="504" d="M513 480V428L474 422Q454 419 445 395L299 0H212L55 399Q51 410 45 415T25 422L-12 428V480H208V428L155 421Q139 420 139 407Q139 400 145 384L239 133L261 62L287 134L371 384Q377 402 377 407Q377
420 357 423L312 428V480H513Z" />
<glyph unicode="w" glyph-name="w" horiz-adv-x="755" d="M763 480V428L724 422Q711 420 705 414T694 395L576 0H491L387 277L380 311L373 279L276 0H194L63 390Q57 408 51 414T30 422L-10 428V480H211V429L157 422Q140 419 140 406Q140 400 146 380L232 110L242
56L251 107L356 419H413L527 110L536 71L545 110L623 380Q628 397 628 406Q628 422 611 423L555 428V480H763Z" />
<glyph unicode="x" glyph-name="x" horiz-adv-x="531" d="M529 53V0H311V52L353 57Q365 58 365 69Q365 73 362 78T352 91L263 201L176 91Q161 72 161 67Q161 58 175 57L215 52V0H12V53L45 58Q63 61 74 68T100 94L223 245L97 394Q84 411 76 416T52 424L19 430V480H232V431L191
425Q181 424 181 416Q181 410 195 394L279 290L361 394Q363 397 369 404T375 416Q375 424 365 425L323 431V480H522V430L489 424Q469 420 459 415T438 394L319 246L454 86Q465 74 476 68T504 58L529 53Z" />
<glyph unicode="y" glyph-name="y" horiz-adv-x="518" d="M528 480V428L484 422Q465 419 455 395L257 -129Q214 -250 107 -250Q78 -250 59 -247T17 -237L7 -177Q21 -181 43 -183T79 -186Q161 -186 194 -99L222 -23L62 394Q57 408 50 414T31 422L-12 428V480H221V429L163
422Q156 421 152 417T147 407Q147 402 154 381L258 99L270 63L273 99L377 381Q383 399 383 407Q383 413 379 417T368 422L309 429V480H528Z" />
<glyph unicode="z" glyph-name="z" horiz-adv-x="483" d="M42 65L340 421H145Q122 421 115 417T106 398L99 333H45L38 480H432V417L132 61H345Q368 61 375 65T384 84L391 157H446L452 0H42V65Z" />
<glyph unicode="{" glyph-name="braceleft" horiz-adv-x="317" d="M230 -192Q176 -192 148 -159T119 -72Q119 -44 121 -8T124 42Q129 104 129 146Q129 199 111 232T50 272V316Q94 323 111 355T129 442Q129 484 124 546Q123 560 121 596T119 660Q119 713 147 746T230
780H297L292 732H260Q194 732 194 660Q194 623 199 570Q204 480 204 455Q204 396 178 350T114 294Q152 285 178 239T204 133Q204 108 199 18Q194 -35 194 -72Q194 -144 260 -144H292L297 -192H230Z" />
<glyph unicode="|" glyph-name="bar" horiz-adv-x="296" d="M116 790H180V-240H116V790Z" />
<glyph unicode="}" glyph-name="braceright" horiz-adv-x="317" d="M25 -144H57Q123 -144 123 -72Q123 -35 118 18Q113 108 113 133Q113 192 139 238T203 294Q165 303 139 349T113 455Q113 480 118 570Q123 623 123 660Q123 732 57 732H25L20 780H87Q140 780 169
747T198 660Q198 632 196 596T193 546Q188 484 188 442Q188 388 205 356T267 316V272Q224 265 206 232T188 146Q188 104 193 42Q194 28 196 -8T198 -72Q198 -125 169 -158T87 -192H20L25 -144Z" />
<glyph unicode="~" glyph-name="asciitilde" horiz-adv-x="570" d="M213 246T233 239T279 219Q310 204 330 197T371 190Q402 190 436 209T498 254L486 301Q454 283 429 273T380 262Q365 262 348 268T305 287Q275 302 253 310T208 318Q176 318 144 299T72 247L84
200L102 210Q131 227 153 236T195 246Q213 246 233 239Z" />
<glyph unicode="&#xa0;" glyph-name="uni00A0" horiz-adv-x="248" />
<glyph unicode="&#xa1;" glyph-name="exclamdown" horiz-adv-x="313" d="M188 485T200 472T213 427Q213 397 200 385T156 372Q126 372 113 386T100 431Q100 461 113 473T157 485Q188 485 200 472ZM186 303L196 -113L199 -240H114L117 -113L128 309L186 303Z" />
<glyph unicode="&#xa2;" glyph-name="cent" horiz-adv-x="481" d="M435 130T394 113T290 91L294 -38H222L226 92Q137 101 91 160T45 321Q45 423 93 491T227 576L222 708H294L290 580Q332 578 369 567T427 543L420 420H362L348 495Q314 514 248 514Q225 514 203
506T166 481Q132 443 132 336Q132 157 281 157Q315 157 341 162T408 178L428 184L440 132Q435 130 394 113Z" />
<glyph unicode="&#xa3;" glyph-name="sterling" horiz-adv-x="593" d="M536 4Q525 -1 498 -6T443 -11Q389 -11 319 1Q311 2 283 6T228 10Q190 10 158 4T83 -16L49 46Q102 58 126 89T151 171Q151 208 144 287H62V347H139Q133 433 133 453Q133 533 162 587T240 666T347
692Q393 692 427 681T493 649L453 568Q430 585 395 599T319 613Q220 613 220 502Q220 479 226 395L229 347H398L380 287H232Q234 233 234 205Q233 167 219 132T181 72Q220 83 254 83Q277 83 305 79T340 74Q398 64 426 64Q446 64 455 74T464 106V159H524L536 4Z"
/>
<glyph unicode="&#xa4;" glyph-name="currency" horiz-adv-x="533" d="M452 293T440 262T406 204L493 118L435 68L361 165Q312 137 254 137Q202 137 163 159L94 66L35 113L115 198Q93 223 82 254T70 319Q70 351 81 382T114 439L35 518L93 569L160 479Q208 508
268 508Q325 508 369 480L441 566L498 513L415 438Q452 387 452 325Q452 293 440 262ZM312 207T344 237T376 323Q376 378 344 408T262 438Q212 438 179 408T146 323Q146 269 179 238T262 207Q312 207 344 237Z" />
<glyph unicode="&#xa5;" glyph-name="yen" horiz-adv-x="638" d="M627 680V626L589 621Q570 618 563 612T539 579L367 291H511L502 237H359V185H511L502 131H359V100Q359 80 364 73T388 62L445 53V0H197V53L254 62Q272 65 277 72T283 100V131H131L140 185H283V237H131L140
291H275L99 579Q85 601 74 609T39 621L11 626V680H266V627L216 621Q184 617 184 602Q184 592 192 579L329 353L460 579Q467 591 467 600Q467 614 433 620L386 627V680H627Z" />
<glyph unicode="&#xa6;" glyph-name="brokenbar" horiz-adv-x="296" d="M116 790H180V410H116V790ZM116 140H180V-240H116V140Z" />
<glyph unicode="&#xa7;" glyph-name="section" horiz-adv-x="509" d="M411 113T429 85T447 18Q447 -35 419 -76T341 -139T229 -162Q180 -162 128 -149T40 -116L51 26H114L125 -65Q180 -96 238 -96Q295 -96 328 -71T362 1Q362 31 342 51T266 95L165 139Q109 163
82 198T55 283Q55 330 77 360T146 428Q62 478 62 569Q62 643 113 686T264 730Q339 730 431 707L420 570H359L347 648Q297 668 249 668Q147 668 147 582Q147 543 169 521T245 476L325 443Q377 421 406 403T452 356T469 283Q469 239 449 208T376 136Q411 113 429
85ZM302 174L318 167Q356 196 370 218T385 265Q385 300 363 320T285 364L198 402Q166 374 153 352T140 303Q140 272 160 250T230 205L302 174Z" />
<glyph unicode="&#xa8;" glyph-name="dieresis" horiz-adv-x="429" d="M93 600T83 612T72 650Q72 677 85 690T127 704Q155 704 165 692T176 649Q176 621 163 611T121 600Q93 600 83 612ZM274 600T264 612T253 650Q253 677 266 690T308 704Q337 704 347 692T358
649Q358 621 345 611T302 600Q274 600 264 612Z" />
<glyph unicode="&#xa9;" glyph-name="copyright" horiz-adv-x="810" d="M304 -10T219 39T85 174T35 360Q35 461 84 546T219 680T405 730Q506 730 591 681T725 546T775 360Q775 259 726 174T591 40T405 -10Q304 -10 219 39ZM490 43T563 86T679 202T722 360Q722
445 679 518T563 634T405 677Q320 677 247 634T131 518T88 360Q88 275 131 202T247 86T405 43Q490 43 563 86ZM312 153T267 203T222 350Q222 450 272 510T412 571Q451 571 485 562T538 539L532 435H482L471 496Q441 511 400 511Q375 511 356 504T325 484Q313 470
305 438T297 357Q297 287 327 250T419 212Q449 212 473 218T514 229T535 237L546 185Q509 171 477 162T401 153Q312 153 267 203Z" />
<glyph unicode="&#xaa;" glyph-name="ordfeminine" horiz-adv-x="365" d="M347 425V382H243L237 433Q208 404 180 390T122 375Q79 375 54 400T29 467Q29 509 54 535T127 568L233 582V626Q233 678 166 678Q146 678 134 675T103 666L94 617H50L43 700Q50 702 76
710T127 722T174 726Q229 726 264 701T299 628V453Q299 440 302 435T314 429L347 425ZM96 452T108 440T140 428Q182 428 233 479V539L145 524Q96 516 96 473Q96 452 108 440ZM39 320H343V275H39V320Z" />
<glyph unicode="&#xab;" glyph-name="guillemotleft" horiz-adv-x="464" d="M56 237L205 430Q211 423 219 415T231 401T235 386Q235 375 227 360L151 237L227 114Q235 101 235 87Q235 77 230 70T217 55T205 44L56 237ZM234 237L383 430Q389 423 397 415T409 401T413
386Q413 375 405 360L329 237L405 114Q413 101 413 87Q413 77 408 70T395 55T383 44L234 237Z" />
<glyph unicode="&#xac;" glyph-name="logicalnot" horiz-adv-x="527" d="M487 349V127H422V281H40V349H487Z" />
<glyph unicode="&#xad;" glyph-name="uni00AD" horiz-adv-x="365" d="M45 285H325L320 223H40L45 285Z" />
<glyph unicode="&#xae;" glyph-name="registered" horiz-adv-x="504" d="M307 762T352 736T423 664T449 564Q449 510 423 465T352 393T252 367Q197 367 152 393T81 464T55 564Q55 619 81 664T152 735T252 762Q307 762 352 736ZM298 397T336 419T397 480T420 564Q420
610 398 648T337 709T252 732Q206 732 168 710T108 649T85 564Q85 518 107 480T168 420T252 397Q298 397 336 419ZM329 485T334 481T346 477Q350 477 356 479L354 453Q344 449 334 449Q322 449 313 455T292 477L258 523Q250 534 244 538T231 543H225V487Q225 481
227 479T236 475L253 472V451H166V471L181 474Q191 475 191 487V643Q191 650 189 652T180 656L166 658V681H252Q286 681 306 667T326 621Q326 590 309 574T267 554Q281 548 297 527Q312 504 321 494Q329 485 334 481ZM289 575T289 617Q289 637 279 645T244 653H225V575H251Q289
575 289 617Z" />
<glyph unicode="&#xaf;" glyph-name="overscore" horiz-adv-x="387" d="M65 680H332L322 615H55L65 680Z" />
<glyph unicode="&#xb0;" glyph-name="degree" horiz-adv-x="318" d="M95 442T54 482T12 586Q12 649 53 689T159 730Q223 730 264 690T306 586Q306 523 265 483T159 442Q95 442 54 482ZM198 499T221 523T244 586Q244 625 221 649T159 673Q121 673 98 649T75 586Q75
547 98 523T159 499Q198 499 221 523Z" />
<glyph unicode="&#xb1;" glyph-name="plusminus" horiz-adv-x="508" d="M429 380V320H284V173H223V320H84V380H223V532H284V380H429ZM70 87H415V27H70V87Z" />
<glyph unicode="&#xb2;" glyph-name="uni00B2" horiz-adv-x="398" d="M358 377V310H40Q40 351 47 378T74 430T134 480Q186 513 213 534T255 579T271 633Q271 669 250 688T190 707Q157 707 126 695L114 626H63L55 735Q82 745 121 754T200 763Q274 763 314 730T354
637Q354 593 330 559T275 502T194 450Q157 428 141 413T122 377H358Z" />
<glyph unicode="&#xb3;" glyph-name="uni00B3" horiz-adv-x="381" d="M282 542T312 516T343 441Q343 403 321 371T261 320T175 301Q110 301 42 328L57 381Q127 361 171 361Q216 361 240 383T264 440Q264 505 173 511L116 515L113 568Q166 572 207 595T248 662Q248
685 230 699T181 713Q157 713 127 706L119 659H68L61 744Q129 763 192 763Q258 763 291 737T325 668Q325 629 298 599T227 553Q282 542 312 516Z" />
<glyph unicode="&#xb4;" glyph-name="acute" horiz-adv-x="285" d="M69 559T62 562T49 570T41 576L180 765L239 714L113 576Q97 559 79 559Q69 559 62 562Z" />
<glyph unicode="&#xb5;" glyph-name="uni00B5" horiz-adv-x="595" d="M555 55T571 62L565 4Q555 0 535 -5T496 -10Q466 -10 441 10T412 76Q384 42 341 16T244 -10Q180 -10 150 28Q153 -32 167 -104T195 -227L109 -250Q101 -212 96 -141T90 12L89 480H169V165Q169
113 193 89T267 65Q315 65 352 89T407 141V480H487V108Q487 79 498 67T534 55Q555 55 571 62Z" />
<glyph unicode="&#xb6;" glyph-name="paragraph" horiz-adv-x="521" d="M481 670L446 661Q428 656 423 650T417 623V109Q417 35 393 -10T306 -103L270 -65Q311 -31 330 -8T356 45T363 127V653L313 647V130Q313 70 296 37T233 -29L198 6Q225 27 237 43T254 82T258
148V327Q145 331 85 373T25 520Q25 720 234 720H481V670Z" />
<glyph unicode="&#xb7;" glyph-name="middot" horiz-adv-x="220" d="M74 314T62 327T50 373Q50 406 64 419T112 432Q145 432 157 419T170 373Q170 340 156 327T107 314Q74 314 62 327Z" />
<glyph unicode="&#xb8;" glyph-name="cedilla" horiz-adv-x="322" d="M231 -74T248 -91T265 -133Q265 -178 231 -204T155 -230Q113 -230 70 -210L83 -169Q120 -184 152 -184Q171 -184 184 -174T197 -140Q197 -123 186 -114T153 -101L115 -94L136 13L179 1L177
-62L200 -67Q231 -74 248 -91Z" />
<glyph unicode="&#xb9;" glyph-name="uni00B9" horiz-adv-x="320" d="M146 369T149 376T153 403V676L67 641L45 687L174 754H224V403Q224 384 228 377T244 368L299 362L300 310H61V362L133 368Q146 369 149 376Z" />
<glyph unicode="&#xba;" glyph-name="ordmasculine" horiz-adv-x="378" d="M103 375T63 420T23 540Q23 593 44 635T106 702T201 726Q275 726 315 681T355 563Q355 510 333 467T271 400T177 375Q103 375 63 420ZM246 427T265 456T285 549Q285 610 258 642T179 674Q132
674 113 645T93 552Q93 490 120 459T199 427Q246 427 265 456ZM40 320H334V275H40V320Z" />
<glyph unicode="&#xbb;" glyph-name="guillemotright" horiz-adv-x="464" d="M77 48T69 56T55 71T50 87Q50 99 58 114L135 237L58 360Q50 375 50 386Q50 394 54 401T67 415T81 430L230 237L81 44Q77 48 69 56ZM255 48T247 56T233 71T228 87Q228 99 236 114L313
237L236 360Q228 375 228 386Q228 394 232 401T245 415T259 430L408 237L259 44Q255 48 247 56Z" />
<glyph unicode="&#xbc;" glyph-name="onequarter" horiz-adv-x="776" d="M658 720L213 0L172 26L616 746L658 720ZM140 357T143 364T147 389V646L66 614L45 656L167 720H214V389Q214 371 217 364T232 356L284 350L285 301H60V350L128 356Q140 357 143 364ZM674
60T677 55T692 48L736 40V-6H524V40L590 48Q600 49 603 54T607 72V106H447L413 157L624 439L666 400L491 158H607V255L674 263V158H744L734 106H674V72Q674 60 677 55Z" />
<glyph unicode="&#xbd;" glyph-name="onehalf" horiz-adv-x="804" d="M636 720L192 0L151 26L595 746L636 720ZM140 357T143 364T147 389V646L66 613L45 656L167 719H213V389Q213 371 216 364T232 356L284 351L285 301H60V351L128 356Q140 357 143 364ZM762 63V0H463Q463
39 469 64T495 112T552 160Q601 192 626 212T666 254T681 304Q681 338 661 356T605 374Q573 374 544 362L533 297H485L477 400Q502 409 539 418T613 427Q683 427 720 396T758 308Q758 267 736 235T684 181T608 132Q573 111 558 97T540 63H762Z" />
<glyph unicode="&#xbe;" glyph-name="threequarters" horiz-adv-x="774" d="M657 720L213 0L172 26L616 746L657 720ZM318 390T297 360T240 313T160 295Q121 295 87 303T34 320L49 370Q54 369 87 360T156 351Q199 351 221 371T243 425Q243 486 158 492L104 496L101
546Q151 550 189 571T228 634Q228 657 212 669T165 682Q141 682 115 676L107 632H59L52 712Q75 719 109 724T176 730Q239 730 270 705T301 640Q301 603 276 575T209 532Q261 521 289 496T318 426Q318 390 297 360ZM672 59T675 55T690 48L734 40V-6H521V40L588 48Q598
50 601 54T605 72V106H445L411 157L622 439L664 400L489 158H605V255L672 263V158H741L732 106H672V72Q672 59 675 55Z" />
<glyph unicode="&#xbf;" glyph-name="questiondown" horiz-adv-x="441" d="M246 392T233 404T219 447Q219 478 231 491T275 505Q306 505 319 493T333 451Q333 420 320 406T276 392Q246 392 233 404ZM405 -197Q307 -229 225 -229Q123 -229 77 -186T30 -70Q30 -10
57 28T126 96Q141 106 181 131Q214 151 221 156Q238 168 243 182T248 226V317L313 323Q315 309 315 303Q323 227 323 201Q323 169 308 147T265 107L183 53Q151 31 132 4T113 -67Q113 -116 144 -143T237 -170Q262 -170 280 -166T319 -153L330 -70H393L405 -197Z"
/>
<glyph unicode="&#xc0;" glyph-name="Agrave" horiz-adv-x="685" d="M684 57V0H437V55L489 64Q515 69 515 88Q515 97 511 109L467 239H199L154 112Q150 98 150 90Q150 69 177 64L227 55V0H-4V57L31 64Q51 68 60 76T78 110L296 720H390L600 110Q608 86 617 77T648
64L684 57ZM444 306L348 589L335 639L322 589L222 306H444ZM363 753T355 756T333 769L189 867L232 931L406 780Q393 753 372 753Q363 753 355 756Z" />
<glyph unicode="&#xc1;" glyph-name="Aacute" horiz-adv-x="685" d="M684 57V0H437V55L489 64Q515 69 515 88Q515 97 511 109L467 239H199L154 112Q150 98 150 90Q150 69 177 64L227 55V0H-4V57L31 64Q51 68 60 76T78 110L296 720H390L600 110Q608 86 617 77T648
64L684 57ZM444 306L348 589L335 639L322 589L222 306H444ZM291 753T277 780L451 931L494 867L350 769Q337 760 329 757T311 753Q291 753 277 780Z" />
<glyph unicode="&#xc2;" glyph-name="Acircumflex" horiz-adv-x="685" d="M684 57V0H437V55L489 64Q515 69 515 88Q515 97 511 109L467 239H199L154 112Q150 98 150 90Q150 69 177 64L227 55V0H-4V57L31 64Q51 68 60 76T78 110L296 720H390L600 110Q608 86 617
77T648 64L684 57ZM444 306L348 589L335 639L322 589L222 306H444ZM456 746L343 853L229 746L191 778L305 913H380L494 778L456 746Z" />
<glyph unicode="&#xc3;" glyph-name="Atilde" horiz-adv-x="685" d="M684 57V0H437V55L489 64Q515 69 515 88Q515 97 511 109L467 239H199L154 112Q150 98 150 90Q150 69 177 64L227 55V0H-4V57L31 64Q51 68 60 76T78 110L296 720H390L600 110Q608 86 617 77T648
64L684 57ZM444 306L348 589L335 639L322 589L222 306H444ZM253 824T238 816T205 792L184 830Q211 858 232 873T279 889Q307 889 355 869Q376 860 389 856T416 852Q443 852 479 883L500 843Q477 818 456 802T408 786Q391 786 374 791T335 806Q315 815 300 819T270
824Q253 824 238 816Z" />
<glyph unicode="&#xc4;" glyph-name="Adieresis" horiz-adv-x="685" d="M684 57V0H437V55L489 64Q515 69 515 88Q515 97 511 109L467 239H199L154 112Q150 98 150 90Q150 69 177 64L227 55V0H-4V57L31 64Q51 68 60 76T78 110L296 720H390L600 110Q608 86 617 77T648
64L684 57ZM444 306L348 589L335 639L322 589L222 306H444ZM221 800T211 812T200 850Q200 877 213 890T255 904Q283 904 293 892T304 849Q304 821 291 811T249 800Q221 800 211 812ZM402 800T392 812T381 850Q381 877 394 890T436 904Q465 904 475 892T486 849Q486
821 473 811T430 800Q402 800 392 812Z" />
<glyph unicode="&#xc5;" glyph-name="Aring" horiz-adv-x="685" d="M684 57V0H437V55L489 64Q515 69 515 88Q515 97 511 109L467 239H199L154 112Q150 98 150 90Q150 69 177 64L227 55V0H-4V57L31 64Q51 68 60 76T78 110L296 720H390L600 110Q608 86 617 77T648
64L684 57ZM444 306L348 589L335 639L322 589L222 306H444ZM292 752T266 778T239 844Q239 888 268 918T345 948Q388 948 414 922T441 856Q441 812 412 782T335 752Q292 752 266 778ZM362 795T372 808T383 847Q383 905 336 905Q317 905 307 892T297 854Q297 824
309 810T343 795Q362 795 372 808Z" />
<glyph unicode="&#xc6;" glyph-name="AE" horiz-adv-x="899" d="M427 70T432 77T438 105V312H230L146 111Q141 99 141 90Q141 69 169 64L223 55V0H-12V57L21 64Q41 68 49 76T68 110L299 659L237 663V720H854L848 549H785L779 621Q778 638 770 644T741 650H521V378H742V312H521V70H745Q765
70 773 76T783 99L789 175H852L858 0H359V58L409 67Q427 70 432 77ZM438 378V609Q438 630 432 639T409 649L371 652L257 378H438Z" />
<glyph unicode="&#xc7;" glyph-name="Ccedilla" horiz-adv-x="612" d="M531 28T473 11T356 -9L354 -62L377 -67Q408 -74 425 -91T442 -133Q442 -178 408 -204T332 -230Q290 -230 247 -210L260 -169Q298 -184 329 -184Q348 -184 361 -174T374 -140Q374 -123 363
-114T330 -101L292 -94L309 -9Q181 -2 113 91T45 345Q45 464 82 551T192 684T367 730Q429 730 485 714T582 674L566 509H504L488 626Q424 657 348 657Q234 657 185 590T136 383Q136 221 194 143T359 64Q447 64 560 112L579 49Q531 28 473 11Z" />
<glyph unicode="&#xc8;" glyph-name="Egrave" horiz-adv-x="608" d="M567 0H53V58L103 67Q121 70 126 77T132 105V616Q132 637 127 645T103 656L53 662V720H563L557 549H495L489 621Q488 638 480 644T451 650H215V409H453V343H215V70H454Q474 70 482 76T492 99L498
175H561L567 0ZM341 763T333 766T311 779L167 877L210 941L384 790Q371 763 350 763Q341 763 333 766Z" />
<glyph unicode="&#xc9;" glyph-name="Eacute" horiz-adv-x="608" d="M567 0H53V58L103 67Q121 70 126 77T132 105V616Q132 637 127 645T103 656L53 662V720H563L557 549H495L489 621Q488 638 480 644T451 650H215V409H453V343H215V70H454Q474 70 482 76T492 99L498
175H561L567 0ZM269 763T255 790L429 941L472 877L328 779Q315 770 307 767T289 763Q269 763 255 790Z" />
<glyph unicode="&#xca;" glyph-name="Ecircumflex" horiz-adv-x="608" d="M567 0H53V58L103 67Q121 70 126 77T132 105V616Q132 637 127 645T103 656L53 662V720H563L557 549H495L489 621Q488 638 480 644T451 650H215V409H453V343H215V70H454Q474 70 482 76T492
99L498 175H561L567 0ZM434 756L321 863L207 756L169 788L283 923H358L472 788L434 756Z" />
<glyph unicode="&#xcb;" glyph-name="Edieresis" horiz-adv-x="608" d="M567 0H53V58L103 67Q121 70 126 77T132 105V616Q132 637 127 645T103 656L53 662V720H563L557 549H495L489 621Q488 638 480 644T451 650H215V409H453V343H215V70H454Q474 70 482 76T492
99L498 175H561L567 0ZM199 810T189 822T178 860Q178 887 191 900T233 914Q261 914 271 902T282 859Q282 831 269 821T227 810Q199 810 189 822ZM380 810T370 822T359 860Q359 887 372 900T414 914Q443 914 453 902T464 859Q464 831 451 821T408 810Q380 810 370
822Z" />
<glyph unicode="&#xcc;" glyph-name="Igrave" horiz-adv-x="348" d="M53 57L104 66Q122 69 127 76T133 104V616Q133 636 128 643T104 654L53 663V720H295V663L245 654Q227 651 222 644T216 616V104Q216 84 221 77T245 66L295 57V0H53V57ZM195 763T187 766T165
779L21 877L64 941L238 790Q225 763 204 763Q195 763 187 766Z" />
<glyph unicode="&#xcd;" glyph-name="Iacute" horiz-adv-x="348" d="M53 57L104 66Q122 69 127 76T133 104V616Q133 636 128 643T104 654L53 663V720H295V663L245 654Q227 651 222 644T216 616V104Q216 84 221 77T245 66L295 57V0H53V57ZM124 763T110 790L284
941L327 877L183 779Q170 770 162 767T144 763Q124 763 110 790Z" />
<glyph unicode="&#xce;" glyph-name="Icircumflex" horiz-adv-x="348" d="M53 57L104 66Q122 69 127 76T133 104V616Q133 636 128 643T104 654L53 663V720H295V663L245 654Q227 651 222 644T216 616V104Q216 84 221 77T245 66L295 57V0H53V57ZM288 756L175 863L61
756L23 788L137 923H212L326 788L288 756Z" />
<glyph unicode="&#xcf;" glyph-name="Idieresis" horiz-adv-x="348" d="M53 57L104 66Q122 69 127 76T133 104V616Q133 636 128 643T104 654L53 663V720H295V663L245 654Q227 651 222 644T216 616V104Q216 84 221 77T245 66L295 57V0H53V57ZM53 810T43 822T32
860Q32 887 45 900T87 914Q115 914 125 902T136 859Q136 831 123 821T81 810Q53 810 43 822ZM234 810T224 822T213 860Q213 887 226 900T268 914Q297 914 307 902T318 859Q318 831 305 821T262 810Q234 810 224 822Z" />
<glyph unicode="&#xd0;" glyph-name="Eth" horiz-adv-x="708" d="M503 720T580 638T657 381Q657 203 579 102T346 0H53V57L103 66Q121 69 126 77T132 106V341H68V401H132V617Q132 638 127 646T103 657L53 663V720H346Q503 720 580 638ZM455 70T509 137T564 356Q564
510 508 580T332 650H215V401H398V341H215V70H332Q455 70 509 137Z" />
<glyph unicode="&#xd1;" glyph-name="Ntilde" horiz-adv-x="763" d="M733 720V663L683 657Q665 655 660 647T654 617V0H585L220 551L195 599L202 548V104Q202 84 207 77T231 66L281 57V0H53V57L103 66Q121 69 126 76T132 104V617Q132 638 127 646T103 657L53 663V720H208L563
178L596 118L584 179V617Q584 638 579 646T556 657L505 663V720H733ZM295 834T280 826T247 802L226 840Q253 868 274 883T321 899Q349 899 397 879Q418 870 431 866T458 862Q485 862 521 893L542 853Q519 828 498 812T450 796Q433 796 416 801T377 816Q357 825
342 829T312 834Q295 834 280 826Z" />
<glyph unicode="&#xd2;" glyph-name="Ograve" horiz-adv-x="714" d="M196 -10T121 84T46 345Q46 520 127 625T368 730Q518 730 593 636T669 375Q669 200 588 95T346 -10Q196 -10 121 84ZM481 63T528 132T576 339Q576 657 343 657Q233 657 186 588T139 381Q139
63 371 63Q481 63 528 132ZM379 763T371 766T349 779L205 877L248 941L422 790Q409 763 388 763Q379 763 371 766Z" />
<glyph unicode="&#xd3;" glyph-name="Oacute" horiz-adv-x="714" d="M196 -10T121 84T46 345Q46 520 127 625T368 730Q518 730 593 636T669 375Q669 200 588 95T346 -10Q196 -10 121 84ZM481 63T528 132T576 339Q576 657 343 657Q233 657 186 588T139 381Q139
63 371 63Q481 63 528 132ZM308 763T294 790L468 941L511 877L367 779Q354 770 346 767T328 763Q308 763 294 790Z" />
<glyph unicode="&#xd4;" glyph-name="Ocircumflex" horiz-adv-x="714" d="M196 -10T121 84T46 345Q46 520 127 625T368 730Q518 730 593 636T669 375Q669 200 588 95T346 -10Q196 -10 121 84ZM481 63T528 132T576 339Q576 657 343 657Q233 657 186 588T139 381Q139
63 371 63Q481 63 528 132ZM472 756L359 863L245 756L207 788L321 923H396L510 788L472 756Z" />
<glyph unicode="&#xd5;" glyph-name="Otilde" horiz-adv-x="714" d="M196 -10T121 84T46 345Q46 520 127 625T368 730Q518 730 593 636T669 375Q669 200 588 95T346 -10Q196 -10 121 84ZM481 63T528 132T576 339Q576 657 343 657Q233 657 186 588T139 381Q139
63 371 63Q481 63 528 132ZM269 834T254 826T221 802L200 840Q227 868 248 883T295 899Q323 899 371 879Q392 870 405 866T432 862Q459 862 495 893L516 853Q493 828 472 812T424 796Q407 796 390 801T351 816Q331 825 316 829T286 834Q269 834 254 826Z" />
<glyph unicode="&#xd6;" glyph-name="Odieresis" horiz-adv-x="714" d="M196 -10T121 84T46 345Q46 520 127 625T368 730Q518 730 593 636T669 375Q669 200 588 95T346 -10Q196 -10 121 84ZM481 63T528 132T576 339Q576 657 343 657Q233 657 186 588T139 381Q139
63 371 63Q481 63 528 132ZM237 810T227 822T216 860Q216 887 229 900T271 914Q299 914 309 902T320 859Q320 831 307 821T265 810Q237 810 227 822ZM418 810T408 822T397 860Q397 887 410 900T452 914Q481 914 491 902T502 859Q502 831 489 821T446 810Q418 810
408 822Z" />
<glyph unicode="&#xd7;" glyph-name="multiply" horiz-adv-x="515" d="M302 237L419 114L374 69L259 193L145 69L101 113L217 237L90 364L134 409L259 281L382 409L425 364L302 237Z" />
<glyph unicode="&#xd8;" glyph-name="Oslash" horiz-adv-x="718" d="M669 547T669 375Q669 200 588 95T346 -10Q246 -10 178 34L126 -43L78 -16L135 68Q46 160 46 345Q46 520 127 625T368 730Q478 730 550 677L599 748L648 721L591 638Q669 547 669 375ZM139 230T191
150L498 601Q442 657 343 657Q233 657 186 588T139 381Q139 230 191 150ZM481 63T528 132T576 339Q576 476 533 553L229 108Q283 63 371 63Q481 63 528 132Z" />
<glyph unicode="&#xd9;" glyph-name="Ugrave" horiz-adv-x="699" d="M230 -10T165 52T99 237V616Q99 636 94 643T70 654L20 663V720H261V663L211 654Q193 651 188 644T182 616V252Q182 157 228 113T365 69Q420 69 454 85T505 143T522 260V616Q522 636 517 643T493
654L443 663V720H679V663L630 654Q612 651 607 644T601 616V246Q601 127 533 59T343 -10Q230 -10 165 52ZM373 763T365 766T343 779L199 877L242 941L416 790Q403 763 382 763Q373 763 365 766Z" />
<glyph unicode="&#xda;" glyph-name="Uacute" horiz-adv-x="699" d="M230 -10T165 52T99 237V616Q99 636 94 643T70 654L20 663V720H261V663L211 654Q193 651 188 644T182 616V252Q182 157 228 113T365 69Q420 69 454 85T505 143T522 260V616Q522 636 517 643T493
654L443 663V720H679V663L630 654Q612 651 607 644T601 616V246Q601 127 533 59T343 -10Q230 -10 165 52ZM302 763T288 790L462 941L505 877L361 779Q348 770 340 767T322 763Q302 763 288 790Z" />
<glyph unicode="&#xdb;" glyph-name="Ucircumflex" horiz-adv-x="699" d="M230 -10T165 52T99 237V616Q99 636 94 643T70 654L20 663V720H261V663L211 654Q193 651 188 644T182 616V252Q182 157 228 113T365 69Q420 69 454 85T505 143T522 260V616Q522 636 517
643T493 654L443 663V720H679V663L630 654Q612 651 607 644T601 616V246Q601 127 533 59T343 -10Q230 -10 165 52ZM466 756L353 863L239 756L201 788L315 923H390L504 788L466 756Z" />
<glyph unicode="&#xdc;" glyph-name="Udieresis" horiz-adv-x="699" d="M230 -10T165 52T99 237V616Q99 636 94 643T70 654L20 663V720H261V663L211 654Q193 651 188 644T182 616V252Q182 157 228 113T365 69Q420 69 454 85T505 143T522 260V616Q522 636 517 643T493
654L443 663V720H679V663L630 654Q612 651 607 644T601 616V246Q601 127 533 59T343 -10Q230 -10 165 52ZM231 810T221 822T210 860Q210 887 223 900T265 914Q293 914 303 902T314 859Q314 831 301 821T259 810Q231 810 221 822ZM412 810T402 822T391 860Q391 887
404 900T446 914Q475 914 485 902T496 859Q496 831 483 821T440 810Q412 810 402 822Z" />
<glyph unicode="&#xdd;" glyph-name="Yacute" horiz-adv-x="633" d="M647 720V663L609 658Q589 655 581 648T559 616L361 254V104Q361 84 366 77T390 66L447 57V0H192V57L249 66Q267 69 272 76T278 104V254L79 616Q67 637 55 645T19 658L-9 663V720H246V664L196
658Q164 654 164 639Q164 632 172 616L327 331L480 616Q487 628 487 637Q487 651 453 657L406 664V720H647ZM276 763T262 790L436 941L479 877L335 779Q322 770 314 767T296 763Q276 763 262 790Z" />
<glyph unicode="&#xde;" glyph-name="Thorn" horiz-adv-x="566" d="M215 145V103Q215 83 220 76T244 65L301 56V0H53V57L103 66Q121 69 126 76T132 104V616Q132 636 127 643T103 654L53 663V720H301V664L244 655Q226 652 221 645T215 617V580H311Q543 580 543
393Q543 320 509 264T416 176T288 145H215ZM215 510V214H302Q382 214 417 254T452 380Q452 446 416 478T307 510H215Z" />
<glyph unicode="&#xdf;" glyph-name="germandbls" horiz-adv-x="577" d="M514 255T537 221T560 139Q560 70 514 30T391 -10Q312 -10 245 16L253 136H310L318 64Q354 50 397 50Q435 50 457 71T479 129Q479 165 458 190T390 243Q346 270 323 304T300 386Q300 428
317 455T368 516Q399 546 414 570T430 628Q430 674 395 700T307 727Q249 727 222 697T194 602V0H39V54L91 61Q106 62 110 69T114 98V422H36L40 471L114 486V552Q114 669 171 729T330 790Q417 790 463 748T509 637Q509 593 491 565T438 501Q409 472 395 451T381
401Q381 377 391 359T417 328T468 288Q514 255 537 221Z" />
<glyph unicode="&#xe0;" glyph-name="agrave" horiz-adv-x="518" d="M493 54V0H351L343 79Q298 35 258 13T176 -10Q116 -10 81 25T45 120Q45 179 80 215T182 261L339 283V350Q339 390 313 410T237 430Q182 430 141 411L129 338H72L64 453Q165 490 251 490Q321
490 370 454T419 352V98Q419 77 423 70T441 61L493 54ZM130 94T148 76T197 58Q228 58 261 78T339 138V229L206 206Q169 200 150 180T130 127Q130 94 148 76ZM248 559T232 576L106 714L165 765L304 576Q302 575 295 570T281 562T266 559Q248 559 232 576Z" />
<glyph unicode="&#xe1;" glyph-name="aacute" horiz-adv-x="518" d="M493 54V0H351L343 79Q298 35 258 13T176 -10Q116 -10 81 25T45 120Q45 179 80 215T182 261L339 283V350Q339 390 313 410T237 430Q182 430 141 411L129 338H72L64 453Q165 490 251 490Q321
490 370 454T419 352V98Q419 77 423 70T441 61L493 54ZM130 94T148 76T197 58Q228 58 261 78T339 138V229L206 206Q169 200 150 180T130 127Q130 94 148 76ZM209 559T202 562T189 570T181 576L320 765L379 714L253 576Q237 559 219 559Q209 559 202 562Z" />
<glyph unicode="&#xe2;" glyph-name="acircumflex" horiz-adv-x="518" d="M493 54V0H351L343 79Q298 35 258 13T176 -10Q116 -10 81 25T45 120Q45 179 80 215T182 261L339 283V350Q339 390 313 410T237 430Q182 430 141 411L129 338H72L64 453Q165 490 251 490Q321
490 370 454T419 352V98Q419 77 423 70T441 61L493 54ZM130 94T148 76T197 58Q228 58 261 78T339 138V229L206 206Q169 200 150 180T130 127Q130 94 148 76ZM338 557L243 677L147 557L104 587L211 743H276L381 587L338 557Z" />
<glyph unicode="&#xe3;" glyph-name="atilde" horiz-adv-x="518" d="M493 54V0H351L343 79Q298 35 258 13T176 -10Q116 -10 81 25T45 120Q45 179 80 215T182 261L339 283V350Q339 390 313 410T237 430Q182 430 141 411L129 338H72L64 453Q165 490 251 490Q321
490 370 454T419 352V98Q419 77 423 70T441 61L493 54ZM130 94T148 76T197 58Q228 58 261 78T339 138V229L206 206Q169 200 150 180T130 127Q130 94 148 76ZM153 624T138 616T105 592L84 630Q111 658 132 673T179 689Q207 689 255 669Q276 660 289 656T316 652Q343
652 379 683L400 643Q377 618 356 602T308 586Q291 586 274 591T235 606Q215 615 200 619T170 624Q153 624 138 616Z" />
<glyph unicode="&#xe4;" glyph-name="adieresis" horiz-adv-x="518" d="M493 54V0H351L343 79Q298 35 258 13T176 -10Q116 -10 81 25T45 120Q45 179 80 215T182 261L339 283V350Q339 390 313 410T237 430Q182 430 141 411L129 338H72L64 453Q165 490 251 490Q321
490 370 454T419 352V98Q419 77 423 70T441 61L493 54ZM130 94T148 76T197 58Q228 58 261 78T339 138V229L206 206Q169 200 150 180T130 127Q130 94 148 76ZM121 600T111 612T100 650Q100 677 113 690T155 704Q183 704 193 692T204 649Q204 621 191 611T149 600Q121
600 111 612ZM302 600T292 612T281 650Q281 677 294 690T336 704Q365 704 375 692T386 649Q386 621 373 611T330 600Q302 600 292 612Z" />
<glyph unicode="&#xe5;" glyph-name="aring" horiz-adv-x="518" d="M493 54V0H351L343 79Q298 35 258 13T176 -10Q116 -10 81 25T45 120Q45 179 80 215T182 261L339 283V350Q339 390 313 410T237 430Q182 430 141 411L129 338H72L64 453Q165 490 251 490Q321 490
370 454T419 352V98Q419 77 423 70T441 61L493 54ZM130 94T148 76T197 58Q228 58 261 78T339 138V229L206 206Q169 200 150 180T130 127Q130 94 148 76ZM192 808T166 834T139 900Q139 944 168 974T245 1004Q288 1004 314 978T341 912Q341 868 312 838T235 808Q192
808 166 834ZM262 851T272 864T283 903Q283 961 236 961Q217 961 207 948T197 910Q197 880 209 866T243 851Q262 851 272 864Z" />
<glyph unicode="&#xe6;" glyph-name="ae" horiz-adv-x="774" d="M629 58T721 86L735 36Q700 18 645 4T536 -10Q418 -10 373 81Q272 -10 176 -10Q116 -10 81 25T45 120Q45 181 83 219T203 263L342 275V350Q342 389 315 409T237 430Q182 430 141 411L129 338H72L64
453Q165 490 247 490Q301 490 340 473T398 421Q426 454 466 472T554 490Q627 490 667 461T723 378T739 241L420 223Q421 141 459 100T564 58Q629 58 721 86ZM499 424T473 411T435 366T421 280L659 299Q659 359 633 391T545 424Q499 424 473 411ZM265 58T353 135Q345
166 342 220L218 207Q128 197 128 127Q128 94 146 76T195 58Q265 58 353 135Z" />
<glyph unicode="&#xe7;" glyph-name="ccedilla" horiz-adv-x="454" d="M332 -74T349 -91T366 -133Q366 -178 332 -204T256 -230Q214 -230 171 -210L184 -169Q222 -184 253 -184Q272 -184 285 -174T298 -140Q298 -123 287 -114T254 -101L216 -94L233 -9Q138 -3
89 55T40 220Q40 302 68 363T149 457T270 490Q318 490 359 479T422 453L414 330H357L345 404Q305 424 246 424Q181 424 154 380T127 240Q127 148 166 103T270 57Q306 57 339 64T423 84L435 32Q355 -4 280 -9L278 -62L301 -67Q332 -74 349 -91Z" />
<glyph unicode="&#xe8;" glyph-name="egrave" horiz-adv-x="483" d="M338 58T430 86L444 36Q408 18 354 4T245 -10Q143 -10 92 52T40 220Q40 342 97 416T263 490Q336 490 376 461T432 378T448 241L127 221Q129 140 166 99T273 58Q338 58 430 86ZM206 424T181 411T143
366T127 278L366 299Q366 359 340 391T250 424Q206 424 181 411ZM265 559T249 576L123 714L182 765L321 576Q319 575 312 570T298 562T283 559Q265 559 249 576Z" />
<glyph unicode="&#xe9;" glyph-name="eacute" horiz-adv-x="483" d="M338 58T430 86L444 36Q408 18 354 4T245 -10Q143 -10 92 52T40 220Q40 342 97 416T263 490Q336 490 376 461T432 378T448 241L127 221Q129 140 166 99T273 58Q338 58 430 86ZM206 424T181 411T143
366T127 278L366 299Q366 359 340 391T250 424Q206 424 181 411ZM226 559T219 562T206 570T198 576L337 765L396 714L270 576Q254 559 236 559Q226 559 219 562Z" />
<glyph unicode="&#xea;" glyph-name="ecircumflex" horiz-adv-x="483" d="M338 58T430 86L444 36Q408 18 354 4T245 -10Q143 -10 92 52T40 220Q40 342 97 416T263 490Q336 490 376 461T432 378T448 241L127 221Q129 140 166 99T273 58Q338 58 430 86ZM206 424T181
411T143 366T127 278L366 299Q366 359 340 391T250 424Q206 424 181 411ZM355 557L260 677L164 557L121 587L228 743H293L398 587L355 557Z" />
<glyph unicode="&#xeb;" glyph-name="edieresis" horiz-adv-x="483" d="M338 58T430 86L444 36Q408 18 354 4T245 -10Q143 -10 92 52T40 220Q40 342 97 416T263 490Q336 490 376 461T432 378T448 241L127 221Q129 140 166 99T273 58Q338 58 430 86ZM206 424T181
411T143 366T127 278L366 299Q366 359 340 391T250 424Q206 424 181 411ZM138 600T128 612T117 650Q117 677 130 690T172 704Q200 704 210 692T221 649Q221 621 208 611T166 600Q138 600 128 612ZM319 600T309 612T298 650Q298 677 311 690T353 704Q382 704 392
692T403 649Q403 621 390 611T347 600Q319 600 309 612Z" />
<glyph unicode="&#xec;" glyph-name="igrave" horiz-adv-x="305" d="M40 480V428L95 422Q110 421 114 414T118 384V98Q118 77 114 70T95 61L40 54V0H276V54L221 61Q206 62 202 69T198 98V480H40ZM389 559T373 576L247 714L306 765L445 576Q443 575 436 570T422
562T407 559Q389 559 373 576Z" />
<glyph unicode="&#xed;" glyph-name="iacute" horiz-adv-x="305" d="M40 480V428L95 422Q110 421 114 414T118 384V98Q118 77 114 70T95 61L40 54V0H276V54L221 61Q206 62 202 69T198 98V480H40ZM94 559T87 562T74 570T66 576L205 765L264 714L138 576Q122 559
104 559Q94 559 87 562Z" />
<glyph unicode="&#xee;" glyph-name="icircumflex" horiz-adv-x="305" d="M40 480V428L95 422Q110 421 114 414T118 384V98Q118 77 114 70T95 61L40 54V0H276V54L221 61Q206 62 202 69T198 98V480H40ZM479 557L384 677L288 557L245 587L352 743H417L522 587L479 557Z" />
<glyph unicode="&#xef;" glyph-name="idieresis" horiz-adv-x="305" d="M20 600T10 612T-1 650Q-1 677 12 690T54 704Q82 704 92 692T103 649Q103 621 90 611T48 600Q20 600 10 612ZM172 600T162 612T151 650Q151 677 164 690T206 704Q235 704 245 692T256 649Q256
621 243 611T200 600Q172 600 162 612ZM40 480V428L95 422Q110 421 114 414T118 384V98Q118 77 114 70T95 61L40 54V0H276V54L221 61Q206 62 202 69T198 98V480H40Z" />
<glyph unicode="&#xf0;" glyph-name="eth" horiz-adv-x="525" d="M408 606T448 503T488 290Q488 149 425 70T250 -10Q147 -10 94 57T40 229Q40 308 71 367T152 457T258 488Q344 488 384 446Q352 562 263 649L152 579L122 626L219 687Q183 715 138 741L171 792Q229
763 280 724L374 783L403 738L323 687Q408 606 448 503ZM339 57T372 102T405 231Q405 426 253 426Q186 426 157 383T127 252Q127 57 273 57Q339 57 372 102Z" />
<glyph unicode="&#xf1;" glyph-name="ntilde" horiz-adv-x="615" d="M590 54V0H435V320Q435 366 409 391T332 416Q289 416 253 395T197 338V98Q197 77 201 70T220 61L275 54V0H43V54L94 61Q109 62 113 69T117 98V391Q117 408 112 415T92 423L43 428V480H185L194
406Q230 447 271 468T363 490Q436 490 475 450T515 347V98Q515 77 519 70T538 61L590 54ZM228 624T213 616T180 592L159 630Q186 658 207 673T254 689Q282 689 330 669Q351 660 364 656T391 652Q418 652 454 683L475 643Q452 618 431 602T383 586Q366 586 349 591T310
606Q290 615 275 619T245 624Q228 624 213 616Z" />
<glyph unicode="&#xf2;" glyph-name="ograve" horiz-adv-x="543" d="M154 -10T97 54T40 224Q40 301 71 361T158 456T288 490Q388 490 445 427T503 260Q503 183 473 122T386 25T255 -10Q154 -10 97 54ZM358 57T387 100T416 240Q416 329 375 376T258 424Q185 424
156 380T127 240Q127 149 168 103T285 57Q358 57 387 100ZM278 559T262 576L136 714L195 765L334 576Q332 575 325 570T311 562T296 559Q278 559 262 576Z" />
<glyph unicode="&#xf3;" glyph-name="oacute" horiz-adv-x="543" d="M154 -10T97 54T40 224Q40 301 71 361T158 456T288 490Q388 490 445 427T503 260Q503 183 473 122T386 25T255 -10Q154 -10 97 54ZM358 57T387 100T416 240Q416 329 375 376T258 424Q185 424
156 380T127 240Q127 149 168 103T285 57Q358 57 387 100ZM239 559T232 562T219 570T211 576L350 765L409 714L283 576Q267 559 249 559Q239 559 232 562Z" />
<glyph unicode="&#xf4;" glyph-name="ocircumflex" horiz-adv-x="543" d="M154 -10T97 54T40 224Q40 301 71 361T158 456T288 490Q388 490 445 427T503 260Q503 183 473 122T386 25T255 -10Q154 -10 97 54ZM358 57T387 100T416 240Q416 329 375 376T258 424Q185
424 156 380T127 240Q127 149 168 103T285 57Q358 57 387 100ZM368 557L273 677L177 557L134 587L241 743H306L411 587L368 557Z" />
<glyph unicode="&#xf5;" glyph-name="otilde" horiz-adv-x="543" d="M154 -10T97 54T40 224Q40 301 71 361T158 456T288 490Q388 490 445 427T503 260Q503 183 473 122T386 25T255 -10Q154 -10 97 54ZM358 57T387 100T416 240Q416 329 375 376T258 424Q185 424
156 380T127 240Q127 149 168 103T285 57Q358 57 387 100ZM183 624T168 616T135 592L114 630Q141 658 162 673T209 689Q237 689 285 669Q306 660 319 656T346 652Q373 652 409 683L430 643Q407 618 386 602T338 586Q321 586 304 591T265 606Q245 615 230 619T200
624Q183 624 168 616Z" />
<glyph unicode="&#xf6;" glyph-name="odieresis" horiz-adv-x="543" d="M154 -10T97 54T40 224Q40 301 71 361T158 456T288 490Q388 490 445 427T503 260Q503 183 473 122T386 25T255 -10Q154 -10 97 54ZM358 57T387 100T416 240Q416 329 375 376T258 424Q185
424 156 380T127 240Q127 149 168 103T285 57Q358 57 387 100ZM151 600T141 612T130 650Q130 677 143 690T185 704Q213 704 223 692T234 649Q234 621 221 611T179 600Q151 600 141 612ZM332 600T322 612T311 650Q311 677 324 690T366 704Q395 704 405 692T416 649Q416
621 403 611T360 600Q332 600 322 612Z" />
<glyph unicode="&#xf7;" glyph-name="divide" d="M235 329T222 340T209 378Q210 405 222 418T262 432Q312 432 312 382Q312 329 260 329Q235 329 222 340ZM70 269H450V205H70V269ZM235 44T222 55T209 93Q210 120 222 133T262 147Q312 147 312 97Q312 44 260 44Q235
44 222 55Z" />
<glyph unicode="&#xf8;" glyph-name="oslash" horiz-adv-x="543" d="M471 400T487 357T503 260Q503 183 473 122T386 25T255 -10Q195 -10 148 15L107 -43L63 -16L106 45Q74 76 57 121T40 224Q40 301 71 361T158 456T288 490Q351 490 401 462L439 517L483 490L441
431Q471 400 487 357ZM127 162T157 117L354 396Q317 424 258 424Q185 424 156 380T127 240Q127 162 157 117ZM358 57T387 100T416 240Q416 312 389 357L194 80Q231 57 285 57Q358 57 387 100Z" />
<glyph unicode="&#xf9;" glyph-name="ugrave" horiz-adv-x="587" d="M562 54V0H422L414 76Q336 -10 245 -10Q171 -10 131 27T90 133V384Q90 406 86 413T67 422L15 428V480H170V160Q170 65 263 65Q356 65 408 142V384Q408 406 404 413T385 422L330 428V480H488V98Q488
77 492 70T510 61L562 54ZM275 559T259 576L133 714L192 765L331 576Q329 575 322 570T308 562T293 559Q275 559 259 576Z" />
<glyph unicode="&#xfa;" glyph-name="uacute" horiz-adv-x="587" d="M562 54V0H422L414 76Q336 -10 245 -10Q171 -10 131 27T90 133V384Q90 406 86 413T67 422L15 428V480H170V160Q170 65 263 65Q356 65 408 142V384Q408 406 404 413T385 422L330 428V480H488V98Q488
77 492 70T510 61L562 54ZM236 559T229 562T216 570T208 576L347 765L406 714L280 576Q264 559 246 559Q236 559 229 562Z" />
<glyph unicode="&#xfb;" glyph-name="ucircumflex" horiz-adv-x="587" d="M562 54V0H422L414 76Q336 -10 245 -10Q171 -10 131 27T90 133V384Q90 406 86 413T67 422L15 428V480H170V160Q170 65 263 65Q356 65 408 142V384Q408 406 404 413T385 422L330 428V480H488V98Q488
77 492 70T510 61L562 54ZM365 557L270 677L174 557L131 587L238 743H303L408 587L365 557Z" />
<glyph unicode="&#xfc;" glyph-name="udieresis" horiz-adv-x="587" d="M562 54V0H422L414 76Q336 -10 245 -10Q171 -10 131 27T90 133V384Q90 406 86 413T67 422L15 428V480H170V160Q170 65 263 65Q356 65 408 142V384Q408 406 404 413T385 422L330 428V480H488V98Q488
77 492 70T510 61L562 54ZM148 600T138 612T127 650Q127 677 140 690T182 704Q210 704 220 692T231 649Q231 621 218 611T176 600Q148 600 138 612ZM329 600T319 612T308 650Q308 677 321 690T363 704Q392 704 402 692T413 649Q413 621 400 611T357 600Q329 600
319 612Z" />
<glyph unicode="&#xfd;" glyph-name="yacute" horiz-adv-x="518" d="M528 480V428L484 422Q465 419 455 395L257 -129Q214 -250 107 -250Q78 -250 59 -247T17 -237L7 -177Q21 -181 43 -183T79 -186Q161 -186 194 -99L222 -23L62 394Q57 408 50 414T31 422L-12
428V480H221V429L163 422Q156 421 152 417T147 407Q147 402 154 381L258 99L270 63L273 99L377 381Q383 399 383 407Q383 413 379 417T368 422L309 429V480H528ZM232 559T225 562T212 570T204 576L343 765L402 714L276 576Q260 559 242 559Q232 559 225 562Z" />
<glyph unicode="&#xfe;" glyph-name="thorn" horiz-adv-x="540" d="M398 490T449 427T501 253Q501 177 473 118T390 24T260 -10Q206 -10 160 9V-142Q160 -164 164 -171T183 -179L255 -186V-240H0V-186L57 -179Q72 -178 76 -171T80 -142V690Q80 706 75 712T54 721L0
727V780H160V421Q188 452 227 471T313 490Q398 490 449 427ZM353 57T383 99T414 245Q414 334 379 379T284 424Q213 424 160 356V96Q213 57 287 57Q353 57 383 99Z" />
<glyph unicode="&#xff;" glyph-name="ydieresis" horiz-adv-x="518" d="M528 480V428L484 422Q465 419 455 395L257 -129Q214 -250 107 -250Q78 -250 59 -247T17 -237L7 -177Q21 -181 43 -183T79 -186Q161 -186 194 -99L222 -23L62 394Q57 408 50 414T31 422L-12
428V480H221V429L163 422Q156 421 152 417T147 407Q147 402 154 381L258 99L270 63L273 99L377 381Q383 399 383 407Q383 413 379 417T368 422L309 429V480H528ZM144 600T134 612T123 650Q123 677 136 690T178 704Q206 704 216 692T227 649Q227 621 214 611T172
600Q144 600 134 612ZM325 600T315 612T304 650Q304 677 317 690T359 704Q388 704 398 692T409 649Q409 621 396 611T353 600Q325 600 315 612Z" />
<glyph unicode="&#x2013;" glyph-name="endash" horiz-adv-x="505" d="M45 285H465L460 225H40L45 285Z" />
<glyph unicode="&#x2014;" glyph-name="emdash" horiz-adv-x="785" d="M45 285H745L740 225H40L45 285Z" />
<glyph unicode="&#x2018;" glyph-name="quoteleft" horiz-adv-x="211" d="M150 658T133 630T109 573Q130 563 144 548T158 519Q158 501 139 479T101 456Q88 456 71 465T42 490T30 524Q30 561 68 620T144 708L171 678Q150 658 133 630Z" />
<glyph unicode="&#x2019;" glyph-name="quoteright" horiz-adv-x="211" d="M123 707T140 698T169 673T181 640Q181 603 143 544T67 455L40 486Q61 506 78 534T102 591Q81 601 67 616T53 645Q53 663 72 685T110 707Q123 707 140 698Z" />
<glyph unicode="&#x201a;" glyph-name="quotesinglbase" horiz-adv-x="211" d="M123 33T140 24T169 -1T181 -34Q181 -71 143 -130T67 -219L40 -188Q61 -168 78 -140T102 -83Q81 -73 67 -58T53 -29Q53 -11 72 11T110 33Q123 33 140 24Z" />
<glyph unicode="&#x201c;" glyph-name="quotedblleft" horiz-adv-x="371" d="M21 561T59 620T135 708L163 678Q141 658 124 630T100 573Q121 563 135 548T150 519Q150 501 131 479T92 456Q79 456 62 465T33 490T21 524Q21 561 59 620ZM310 658T293 630T269 573Q290
563 304 548T318 519Q318 501 299 479T261 456Q248 456 231 465T202 490T190 524Q190 561 228 620T304 708L331 678Q310 658 293 630Z" />
<glyph unicode="&#x201d;" glyph-name="quotedblright" horiz-adv-x="380" d="M123 707T140 698T169 673T181 640Q181 603 143 544T67 455L40 486Q61 506 78 534T102 591Q81 601 67 616T53 645Q53 663 72 685T110 707Q123 707 140 698ZM292 707T309 698T338 673T350
640Q350 603 312 544T236 455L209 486Q230 506 247 534T271 591Q250 601 236 616T222 645Q222 663 241 685T279 707Q292 707 309 698Z" />
<glyph unicode="&#x201e;" glyph-name="quotedblbase" horiz-adv-x="380" d="M123 34T140 25T169 0T181 -33Q181 -70 143 -129T67 -218L40 -187Q61 -167 78 -139T102 -82Q81 -72 67 -57T53 -28Q53 -10 72 12T110 34Q123 34 140 25ZM292 34T309 25T338 0T350 -33Q350
-70 312 -129T236 -218L209 -187Q230 -167 247 -139T271 -82Q250 -72 236 -57T222 -28Q222 -10 241 12T279 34Q292 34 309 25Z" />
<glyph unicode="&#x2022;" glyph-name="bullet" horiz-adv-x="368" d="M125 242T100 265T75 347Q75 405 100 432T183 460Q242 460 267 436T293 355Q293 295 269 269T184 242Q125 242 100 265Z" />
<glyph unicode="&#x2039;" glyph-name="guilsinglleft" horiz-adv-x="236" d="M25 237L173 428Q194 411 200 403T206 387Q206 381 205 377T199 366L120 237L199 108Q203 102 204 98T206 87Q206 79 200 71T173 46L25 237Z" />
<glyph unicode="&#x203a;" glyph-name="guilsinglright" horiz-adv-x="236" d="M42 63T36 71T30 87Q30 93 31 97T37 108L117 237L37 366Q33 372 32 376T30 387Q30 395 36 403T63 428L211 237L63 46Q42 63 36 71Z" />
</font>
</defs>
</svg>
