<?xml version="1.0" standalone="no"?>
<!DOCTYPE svg PUBLIC "-//W3C//DTD SVG 1.1//EN" "http://www.w3.org/Graphics/SVG/1.1/DTD/svg11.dtd">
<svg xmlns="http://www.w3.org/2000/svg">
<defs >
<font id="LoversQuarrel" horiz-adv-x="409" ><font-face
    font-family="Lovers Quarrel"
    units-per-em="1000"
    panose-1="0 0 0 0 0 0 0 0 0 0"
    ascent="726"
    descent="-401"
    alphabetic="0" />
<glyph unicode=" " glyph-name="space" horiz-adv-x="184" />
<glyph unicode="!" glyph-name="exclam" horiz-adv-x="277" d="M139 103Q127 103 127 116Q127 119 129 125Q164 216 217 320T343 544Q345 546 348 546Q360 546 371 536Q395 521 389 513Q194 212 160 121Q152 103 139 103ZM93 -20Q61 -20 61 9Q61 40 93 40Q125
40 125 9Q125 -20 93 -20Z" />
<glyph unicode="&quot;" glyph-name="quotedbl" horiz-adv-x="212" d="M129 277L148 436Q152 467 182 467Q201 467 201 447Q201 430 174 363Q168 347 159 326L139 277H129ZM27 277L45 435Q46 447 56 457T79 467Q97 467 97 448Q97 430 71 363L56 325Q47 303 36 277H27Z" />
<glyph unicode="#" glyph-name="numbersign" horiz-adv-x="497" d="M30 0L122 153H17L37 184H141L197 278H83L103 310H216L308 464H345L251 310H345L437 464H473L381 310H479L461 278H361L306 184H413L394 153H287L194 0H159L250 153H158L65 0H30ZM176 184H269L325
278H233L176 184Z" />
<glyph unicode="$" glyph-name="dollar" horiz-adv-x="299" d="M14 -41L37 0Q-26 12 -45 35Q-44 40 -33 51H-27Q1 23 45 14L145 195Q105 245 105 280Q105 331 154 359Q196 383 249 383L268 418L289 422L267 381Q317 373 317 325Q317 307 307 294T280 281Q251 281
251 307Q251 339 281 339Q296 339 301 328Q296 361 259 368L181 227Q226 167 226 128Q226 68 168 31Q118 -1 55 -1L37 -37L14 -41ZM171 241L243 371H233Q201 371 175 351Q147 329 147 297Q147 281 171 241ZM63 12Q108 12 146 41Q184 71 184 116Q184 145 157 181L63
12Z" />
<glyph unicode="%" glyph-name="percent" horiz-adv-x="414" d="M-21 -56L-22 -53Q32 4 110 95T291 315Q227 260 185 260Q161 260 146 277Q115 254 90 254Q41 254 41 313Q41 391 112 456Q150 488 180 488Q231 488 231 439Q231 406 208 358Q197 335 185 318T159
288Q166 272 186 272Q216 272 275 317Q283 324 300 341L342 386Q390 440 396 443Q400 445 405 445Q413 445 413 441L3 -56H-21ZM101 269Q117 269 139 286Q129 300 129 316Q129 347 151 347Q171 347 171 327Q171 323 170 320Q186 342 199 377Q213 416 213 436Q213
466 189 466Q164 466 136 433Q113 406 101 378Q79 331 79 298Q79 269 101 269ZM236 -19Q186 -19 186 39Q186 117 257 182Q292 214 325 214Q376 214 376 163Q376 110 331 47Q285 -19 236 -19ZM247 -5Q273 -5 315 47Q330 66 343 102Q358 139 358 163Q358 193 333
193Q309 193 281 159Q259 134 246 105Q223 54 223 24Q223 -5 247 -5Z" />
<glyph unicode="&amp;" glyph-name="ampersand" horiz-adv-x="476" d="M149 -183Q146 -181 149 -178Q172 -154 194 -78Q204 -47 212 -12Q197 -13 181 -13Q173 -13 165 -13T149 -12Q93 -6 50 15Q-18 48 -18 110Q-18 164 42 228Q61 249 84 268T134 305Q107 322 87
351Q48 406 48 456Q48 498 74 524T138 551Q205 551 234 474Q252 431 257 372L312 402Q320 443 324 458Q335 493 347 507Q365 530 382 530Q403 530 409 502Q414 456 330 404Q326 388 323 354L319 304Q338 312 356 323Q412 358 426 408Q428 411 430 411Q436 411 434
406Q419 355 358 316Q338 304 318 296L316 266Q370 299 422 299Q512 299 512 227Q512 183 471 125Q407 34 299 6Q266 -223 151 -223Q119 -223 92 -204Q67 -186 64 -158Q64 -156 66 -154Q69 -155 70 -158Q84 -209 136 -209Q220 -209 262 -6Q242 -9 222 -11Q214 -46
203 -80Q177 -158 155 -183Q152 -186 149 -183ZM98 357Q119 329 146 312Q158 319 170 326L240 363Q234 427 217 469Q188 543 133 543Q103 543 82 519T60 458Q60 410 98 357ZM333 415Q349 425 371 451Q395 480 395 495Q395 505 387 507Q380 507 366 493Q349 473
333 415ZM259 320Q259 307 258 290Q278 292 298 297Q301 325 303 348T310 391Q289 381 257 363Q259 343 259 320ZM205 334Q183 320 162 304Q195 289 237 289Q240 289 243 289Q243 324 240 354Q224 345 205 334ZM204 3Q210 3 215 3Q227 59 233 122Q238 169 241 208Q204
180 192 148Q189 141 188 135T187 122Q187 107 195 98Q198 95 194 95Q190 95 187 98Q179 111 179 125Q179 137 185 152Q202 192 242 225Q243 255 243 278Q237 278 230 278Q186 278 151 295Q126 274 102 249Q30 177 30 115Q30 59 89 29Q113 16 141 10T204 3ZM294
260Q295 267 295 274T297 288Q278 282 258 280Q257 260 255 235Q273 248 294 260ZM299 19Q399 44 450 118Q486 169 486 206Q486 270 396 270Q353 270 314 249Q312 170 299 19ZM244 122Q239 61 226 4Q246 5 263 8Q270 42 277 100T292 240Q271 229 253 218Q250 176
244 122Z" />
<glyph unicode="&apos;" glyph-name="quotesingle" horiz-adv-x="145" d="M73 223Q71 223 71 225Q71 231 83 245Q111 277 133 317Q117 318 117 344Q117 377 155 377Q180 377 184 349Q187 328 152 284Q136 265 123 252T96 232Q79 223 73 223Z" />
<glyph unicode="(" glyph-name="parenleft" horiz-adv-x="353" d="M93 -89Q65 -89 49 1Q40 55 40 95Q40 249 121 368Q191 470 335 560Q375 585 391 585Q407 585 407 565Q283 514 184 382Q79 241 79 105Q79 -39 99 -67Q103 -72 103 -79Q103 -89 93 -89Z" />
<glyph unicode=")" glyph-name="parenright" horiz-adv-x="411" d="M23 -94Q7 -94 7 -75Q134 -23 232 113Q333 253 333 385Q333 531 313 557Q308 565 308 571Q308 581 319 581Q347 581 363 490Q373 437 373 397Q373 241 292 123Q221 19 79 -69Q39 -94 23 -94Z" />
<glyph unicode="*" glyph-name="asterisk" horiz-adv-x="287" d="M56 141Q39 141 39 154Q39 159 45 165L112 233L24 229Q11 229 11 247Q11 259 25 259H121Q110 285 101 305T83 343L81 350Q81 357 88 357Q98 357 106 343L145 267L223 345Q227 349 231 349Q237 349
237 341Q237 331 227 321L171 259H261Q271 259 271 253Q271 239 249 238L161 235L196 165Q197 164 197 161Q197 141 181 141Q173 141 157 178L149 197Q144 208 137 223L65 144Q60 141 56 141Z" />
<glyph unicode="+" glyph-name="plus" horiz-adv-x="305" d="M179 34Q167 34 169 45L192 135Q147 133 98 129Q91 129 91 143Q91 161 106 161H125Q136 161 152 160L180 159H199L222 256Q225 270 236 270Q244 270 241 259Q237 245 232 220T221 159H307Q319 159 319
149Q319 139 273 138Q259 137 245 137H217Q213 120 210 97L201 45Q199 34 179 34Z" />
<glyph unicode="," glyph-name="comma" horiz-adv-x="155" d="M18 -103Q15 -103 15 -101Q15 -97 45 -56L79 -9Q61 -6 61 19Q61 33 73 42T100 52Q128 52 128 20Q128 -1 96 -41Q64 -79 40 -93Q24 -103 18 -103Z" />
<glyph unicode="-" glyph-name="hyphen" horiz-adv-x="253" d="M44 112Q21 112 21 120Q21 134 60 148Q78 154 110 154Q139 154 213 145Q243 142 243 134Q243 126 213 125L145 120Q104 116 49 112H44Z" />
<glyph unicode="." glyph-name="period" horiz-adv-x="160" d="M93 -20Q61 -20 61 9Q61 40 93 40Q125 40 125 9Q125 -20 93 -20Z" />
<glyph unicode="/" glyph-name="slash" horiz-adv-x="365" d="M18 -27Q13 -27 13 -23Q13 -18 19 -13Q67 31 106 83Q144 134 189 185Q260 278 312 343T403 449Q442 490 471 508T525 527Q546 527 563 517Q573 511 573 503Q573 498 568 498Q565 498 556 503Q546 507
539 507Q498 507 397 397Q337 331 211 169Q154 96 109 49T29 -22Q21 -27 18 -27Z" />
<glyph unicode="0" glyph-name="zero" horiz-adv-x="547" d="M168 -29Q95 -29 51 8Q3 45 3 112Q3 135 9 159Q43 298 227 372Q315 408 379 408Q411 408 411 400Q411 393 399 392Q330 386 263 362Q188 335 143 296T69 204Q37 146 37 94Q37 -9 161 -9Q289 -9 423
112Q457 142 484 186Q513 236 513 276Q513 356 400 347Q290 336 200 260Q198 257 194 257Q184 257 184 264Q184 282 247 317Q330 364 404 365Q547 371 547 265Q547 194 484 124Q421 53 316 7Q237 -29 168 -29Z" />
<glyph unicode="1" glyph-name="one" horiz-adv-x="244" d="M47 -7Q36 -7 36 3Q36 5 38 11L112 166Q132 208 148 247T179 324Q145 303 117 277Q109 271 106 271Q103 271 103 275Q103 280 115 292L237 412Q240 413 245 413Q253 413 262 407T271 391V388Q229 333
170 225Q136 163 109 107T61 0Q60 -7 47 -7Z" />
<glyph unicode="2" glyph-name="two" horiz-adv-x="377" d="M280 -34Q275 -34 275 -27Q275 -23 282 -20Q301 -11 301 -1Q301 16 255 28Q219 37 195 37Q137 35 28 -5Q13 -11 5 -11Q-9 -11 -9 0Q-9 16 9 30T45 44Q111 65 201 126Q270 172 321 222Q398 297 398 350Q398
390 351 390Q300 390 235 346Q172 303 155 253Q152 244 146 244Q143 244 143 249Q143 252 144 255Q157 319 214 363Q272 407 343 407Q378 407 399 387T420 331Q420 247 297 171Q283 163 262 150L213 119Q137 69 123 55Q309 55 309 2Q309 -23 285 -33Q283 -34 280
-34Z" />
<glyph unicode="3" glyph-name="three" horiz-adv-x="377" d="M114 -39Q-1 -39 -1 25Q-1 43 13 57T53 76Q64 76 64 72Q64 69 53 67Q38 67 29 55Q18 44 18 30Q18 -18 114 -18Q183 -18 239 9Q302 39 302 85Q302 133 221 153Q175 165 136 163H131Q119 163 119 172Q119
185 142 183Q203 181 263 196Q338 214 373 248Q406 279 406 309Q406 344 367 368Q329 392 281 392Q211 392 153 365Q89 335 87 291Q85 276 79 276Q72 276 72 289Q72 354 147 386Q208 412 272 412Q342 412 389 384Q438 356 438 315Q438 280 402 246Q344 193 214
172Q347 166 347 87Q347 32 268 -5Q199 -39 114 -39Z" />
<glyph unicode="4" glyph-name="four" horiz-adv-x="368" d="M139 -35Q127 -35 127 -19Q127 -3 161 69L205 164Q204 165 196 165Q105 165 24 139Q9 139 9 153Q9 162 35 179Q141 249 218 305Q259 334 292 365T351 429Q371 429 371 391V376Q357 364 306 282Q253
197 253 189L261 187Q279 182 297 181Q321 175 321 165Q321 156 312 156V159Q312 156 309 156L304 157L287 160L266 163Q258 164 256 164Q251 164 247 163H237Q215 121 177 41L152 -12L146 -24Q143 -30 139 -35ZM217 192Q231 192 307 352Q272 326 222 288T103 195H178Q186
195 194 194L211 193Q216 193 217 192Z" />
<glyph unicode="5" glyph-name="five" horiz-adv-x="367" d="M107 -27Q64 -27 33 0T1 69Q1 78 11 101Q21 125 27 125Q36 125 36 115Q36 111 31 98T25 75Q25 -3 102 -3Q189 -3 251 92Q284 143 284 183Q284 220 268 234T212 249Q168 249 104 185L100 181Q95 178
89 178Q71 178 71 193Q71 197 73 200L77 208L85 220L109 253Q125 277 134 295T147 324Q132 331 132 341L152 357Q167 369 172 369H187L201 368Q227 368 277 374Q303 378 322 379T354 381Q378 381 401 376V361Q326 358 301 355Q239 349 204 335H199L193 333Q187
333 187 331Q167 309 141 259Q188 275 223 275Q324 275 324 191Q324 113 254 43Q184 -27 107 -27Z" />
<glyph unicode="6" glyph-name="six" horiz-adv-x="328" d="M107 -32Q63 -32 38 8Q18 43 18 89Q18 176 114 292Q206 402 291 435Q297 437 301 437Q307 437 307 434L306 432Q306 431 305 429Q304 423 291 413Q199 352 133 268Q51 165 51 75Q51 -11 113 -11Q160
-11 204 34Q243 73 259 123Q266 143 266 167Q266 228 215 228Q185 228 140 195Q127 188 123 188L121 189Q119 193 119 196Q119 212 155 232Q192 252 209 252Q251 252 277 224T303 153Q303 88 237 28Q172 -32 107 -32Z" />
<glyph unicode="7" glyph-name="seven" horiz-adv-x="331" d="M49 -26Q39 -26 32 -8T24 23Q24 41 36 59T63 96Q63 97 188 243Q289 362 289 377Q289 386 271 385Q202 381 135 354Q79 331 60 311Q58 309 57 309Q47 309 47 327Q47 339 56 353Q57 356 84 367Q198 408
272 408Q291 408 309 396T332 369Q336 350 273 284L176 185Q118 124 88 80Q47 18 53 -23Q51 -26 49 -26Z" />
<glyph unicode="8" glyph-name="eight" horiz-adv-x="344" d="M36 -29Q9 -28 -6 -10T-22 35Q-22 81 53 152Q64 162 83 178T130 216Q114 251 114 284Q114 343 159 375Q200 404 255 404Q320 404 345 367Q418 406 437 412Q439 413 442 413Q446 413 446 409Q446 401
439 397L354 351Q367 323 368 310V306Q368 291 360 291Q349 291 325 334Q313 330 244 278Q177 227 172 219Q200 166 200 133Q200 70 150 18Q100 -32 36 -29ZM164 238Q190 258 228 286T316 349Q299 384 249 384Q210 384 179 362Q146 336 146 298Q146 275 164 238ZM48
-11Q91 -11 129 31Q167 75 167 119Q167 145 139 195Q82 156 47 113Q10 64 10 23Q10 -11 48 -11Z" />
<glyph unicode="9" glyph-name="nine" horiz-adv-x="340" d="M137 -55Q129 -55 129 -43Q132 35 223 212Q138 147 75 147Q16 147 21 224Q25 291 116 363Q203 432 272 432Q343 432 343 377Q343 362 336 345Q329 324 319 320L315 323V321L313 324Q312 324 311 327Q311
327 311 328Q311 327 311 328Q311 328 311 329V328V328V327Q311 325 313 327Q314 330 316 343Q321 371 321 376Q321 413 273 413Q212 413 133 339Q56 265 56 204Q56 169 87 169Q136 169 207 223Q216 230 225 239T246 261Q283 304 289 304Q296 304 305 295T315 280Q315
277 261 192Q166 40 153 -27Q149 -55 137 -55Z" />
<glyph unicode=":" glyph-name="colon" horiz-adv-x="160" d="M160 117Q128 117 128 148Q128 179 160 179Q192 179 192 148Q192 117 160 117ZM99 -4Q67 -4 67 27Q67 57 99 57Q131 57 131 27Q131 -4 99 -4Z" />
<glyph unicode=";" glyph-name="semicolon" horiz-adv-x="155" d="M184 139Q152 139 152 169Q152 199 184 199Q216 199 216 169Q216 139 184 139ZM18 -103Q15 -103 15 -101Q15 -97 45 -56L79 -9Q61 -6 61 19Q61 33 73 42T100 52Q128 52 128 20Q128 -1 96 -41Q64
-79 40 -93Q24 -103 18 -103Z" />
<glyph unicode="&lt;" glyph-name="less" horiz-adv-x="219" d="M105 14L103 15Q102 15 100 16Q96 24 93 37L86 67L75 119Q214 205 217 205L221 203L222 198Q214 184 171 153L150 138Q136 128 114 113L113 23L110 16L105 14Z" />
<glyph unicode="=" glyph-name="equal" horiz-adv-x="305" d="M119 197Q109 196 108 196H109Q109 196 109 196T108 196Q98 197 98 215Q98 228 109 228H207Q273 228 273 215Q273 207 261 207Q229 207 165 201L119 197ZM165 135Q111 130 108 129H109Q109 129 109
129T108 129Q98 129 98 149Q98 161 109 161H207Q273 161 273 148Q273 141 261 141Q229 141 165 135Z" />
<glyph unicode="&gt;" glyph-name="greater" horiz-adv-x="219" d="M24 14Q21 14 19 15L18 18Q18 27 71 66L126 105L127 196L130 202L135 205L141 202Q147 188 165 100L29 15L24 14Z" />
<glyph unicode="?" glyph-name="question" horiz-adv-x="400" d="M119 109Q96 109 96 139Q96 178 139 228Q163 258 232 319Q263 346 293 375T344 431T364 481Q364 512 332 512Q254 512 169 457Q102 414 80 381Q75 375 67 375Q58 375 58 383Q58 391 65 401Q90 438
161 483Q249 541 325 541Q356 541 380 522T405 473Q405 429 361 379Q346 362 322 342T265 296Q251 286 228 267L171 220Q128 183 128 145V144Q128 135 136 135Q133 109 119 109ZM89 -20Q57 -20 57 9Q57 40 89 40Q121 40 121 9Q121 -20 89 -20Z" />
<glyph unicode="@" glyph-name="at" horiz-adv-x="576" d="M207 -107Q129 -107 80 -66Q28 -23 28 49Q28 76 34 101Q58 195 133 258Q159 279 194 299T275 338Q350 368 446 368Q524 368 579 345Q637 320 637 271Q637 244 617 212Q620 171 593 117Q580 95 564 73T526
31Q459 -30 375 -68Q284 -107 207 -107ZM199 -94Q274 -94 354 -54Q392 -35 426 -12T492 40Q556 98 582 168Q504 77 413 32Q376 15 355 15Q321 15 309 66Q306 80 304 90T302 108Q302 111 303 114Q295 100 268 65Q228 13 202 13Q165 13 165 58Q165 119 221 193Q281
271 342 271Q362 271 379 262T397 232Q397 209 378 206Q384 217 384 226Q384 248 359 248Q335 248 308 224Q239 167 207 87Q197 64 197 46Q197 33 205 33Q217 33 241 57Q249 65 267 89T315 154Q329 174 338 174Q346 174 346 146Q346 78 347 77Q355 33 378 33Q389
33 407 42Q520 102 587 186Q591 199 591 219Q591 297 492 297H481Q478 297 475 297T468 296Q464 296 460 296T452 295Q432 295 432 302Q432 310 478 310Q600 310 615 226Q626 246 626 263Q626 305 565 329Q508 349 433 349Q398 349 369 345T314 332Q157 276 89
144Q55 80 55 25Q55 -94 199 -94Z" />
<glyph unicode="A" glyph-name="A" horiz-adv-x="769" d="M118 -57Q112 -57 107 -57T95 -56Q56 -52 31 -29T6 31Q6 76 40 111Q70 142 116 157Q172 176 241 186Q216 237 216 299Q216 421 276 495Q328 559 399 559Q451 559 486 523T521 420Q521 354 480 267Q472
250 463 235T442 203H487Q492 208 502 221T527 254L608 364Q622 384 634 399T655 426L663 480Q665 502 665 506Q665 545 646 545Q637 545 625 536Q608 525 589 502Q572 482 569 475Q565 467 560 467Q556 467 556 472Q556 476 557 478Q576 521 623 550Q646 566 667
566Q703 566 703 519Q703 508 700 476L692 391Q687 333 682 289T675 212Q724 216 738 224Q743 228 747 228Q749 228 749 225Q749 219 740 213Q718 200 675 192Q675 181 675 171T674 150Q674 87 682 55Q697 -10 733 -10Q776 -10 809 65Q812 72 816 72Q822 72 819
61Q805 19 775 -6T712 -32Q650 -32 636 57Q633 73 632 92T631 136Q631 147 631 160T632 187Q622 186 591 186H507Q481 157 453 130T393 77Q397 77 400 77T408 76Q480 76 536 150Q537 153 541 151Q545 148 542 145Q482 66 405 66Q393 66 383 68Q279 -18 197 -43Q177
-50 157 -53T118 -57ZM255 188Q337 200 429 202Q453 237 470 272Q508 350 508 412Q508 471 476 508T393 546Q329 546 284 486Q231 418 231 299Q231 239 255 188ZM572 207Q599 207 634 209Q636 249 640 294T653 392Q649 385 640 370T613 332L525 208Q544 207 572
207ZM370 82L475 188Q457 189 432 188Q413 160 392 136T347 90Q360 85 370 82ZM337 96Q382 138 418 187Q352 183 266 167Q295 119 337 96ZM141 -32Q245 -32 361 73L338 82Q235 -7 134 -7Q105 -7 81 0Q78 2 78 4Q78 10 83 8Q107 2 131 2Q227 2 328 88Q283 113 253
165Q207 157 171 148T109 131Q19 100 19 43Q19 14 47 -6Q74 -26 113 -30Q127 -32 141 -32Z" />
<glyph unicode="B" glyph-name="B" horiz-adv-x="592" d="M-64 -91Q-96 -91 -116 -72T-137 -24Q-137 44 -33 91Q27 117 115 134Q125 158 138 195T169 283Q143 280 125 280Q21 280 21 352Q21 392 71 434Q142 493 267 512Q302 575 333 592Q337 594 338 591Q340 586
336 585Q310 571 277 513Q289 515 301 516T326 518Q369 581 408 581Q434 581 460 564Q483 549 483 539Q483 536 478 534Q474 534 470 540Q466 546 461 551Q442 564 425 564Q417 564 412 563Q394 558 368 519H375Q477 519 545 488Q616 457 616 401Q616 335 523 282Q486
260 451 248T383 232Q472 232 528 199Q580 168 580 121Q580 85 549 51Q515 13 456 -17Q385 -53 318 -53Q297 -53 277 -49Q252 -44 234 -21T216 30Q216 44 220 53Q210 40 196 20T165 -29Q163 -31 161 -31Q153 -31 142 -21T132 0Q136 46 162 132Q152 131 143 130T123
127Q108 85 95 56T70 8Q10 -91 -64 -91ZM233 222Q303 224 341 232Q453 256 519 306Q548 329 563 352T579 402Q579 446 521 476Q459 509 373 509H362Q322 445 274 330Q362 358 431 408Q435 412 440 412Q443 412 443 408Q443 400 434 395Q339 332 264 306Q253 278
246 257T233 222ZM187 309L207 313Q216 315 226 317Q250 377 273 424T318 506L293 502Q281 500 268 498Q227 424 187 309ZM112 300Q125 300 141 301T177 307Q218 422 258 495Q163 474 100 425Q40 378 40 341Q40 300 112 300ZM127 136Q137 138 146 139T165 141Q176
179 189 216T216 292L198 289Q189 287 179 285L127 136ZM297 -31Q328 -31 370 -16Q442 10 488 49Q536 89 536 128Q536 158 510 178T442 208T349 219Q292 219 227 205L208 144Q362 147 375 50Q376 46 372 45Q368 44 368 48Q353 138 206 135Q192 90 184 57T171 1Q175
5 213 65Q227 89 248 105Q261 115 270 115Q275 115 275 112Q275 111 273 109Q230 72 230 26Q230 -31 297 -31ZM-66 -81Q0 -81 59 15Q70 33 83 60T111 125Q28 109 -28 83Q-123 39 -123 -25Q-123 -49 -107 -65T-66 -81Z" />
<glyph unicode="C" glyph-name="C" horiz-adv-x="553" d="M229 -94Q175 -94 133 -58Q88 -19 76 47Q23 112 23 200Q23 296 84 384Q131 452 211 492Q295 533 377 533Q416 533 455 522Q503 509 534 478Q571 443 569 396Q575 394 581 391T589 382Q590 376 586 376L581
378Q580 379 577 380T568 384Q560 324 507 266Q455 209 388 183Q346 167 304 167Q255 167 224 190T193 249Q193 298 253 349Q293 381 358 399Q425 418 488 414Q488 447 464 465T397 484Q332 484 265 441Q187 391 137 301Q93 221 85 130Q110 63 169 25T309 -8Q316
-7 322 -7T336 -5L361 -1Q379 33 379 69Q379 119 346 137Q343 138 345 143Q346 146 350 144Q391 121 391 66Q391 34 375 3Q478 33 527 114Q551 152 558 152Q560 152 560 148Q560 134 541 106Q479 14 359 -24Q308 -94 229 -94ZM77 160Q89 242 128 312Q178 402 257
452Q324 494 392 494Q440 494 469 472T498 413Q526 411 549 404Q539 468 455 500Q423 513 376 513Q300 513 233 477Q151 431 105 341Q71 277 71 210Q71 184 77 160ZM314 182Q346 182 381 194Q446 216 498 273Q552 334 551 390Q539 394 526 395T496 398Q492 374
473 346Q410 251 286 255Q272 257 272 260Q272 264 283 264Q339 264 389 286T465 348Q481 373 486 398Q427 398 364 378Q300 358 267 329Q222 290 222 250Q222 220 247 201T314 182ZM226 -84Q293 -84 341 -29Q303 -38 265 -38Q161 -38 91 30Q106 -25 143 -54T226
-84Z" />
<glyph unicode="D" glyph-name="D" horiz-adv-x="724" d="M272 -171Q203 -171 170 -103Q148 -57 148 4Q148 27 151 51T159 104Q172 166 212 272Q167 260 133 260Q79 260 50 285T20 347Q20 424 118 474Q194 511 319 519Q336 560 341 588Q341 591 344 590Q346 589
348 584Q350 562 331 519Q357 521 383 519Q417 567 453 567Q479 567 505 550Q528 533 528 524Q528 520 523 520Q520 520 516 526Q512 532 506 536Q486 550 470 550Q445 550 420 517Q580 504 670 427Q747 361 747 270Q747 152 627 48Q562 -8 458 -28Q423 -97 373
-134T272 -171ZM339 447Q349 465 358 480T375 508H350Q338 508 325 507Q321 497 301 455Q319 454 339 447ZM118 281Q156 281 222 298Q238 337 254 374T287 448Q283 449 275 449Q220 453 178 415Q143 383 143 348Q143 340 144 337Q145 333 141 332Q137 331 136 337Q134
342 134 349Q134 388 171 421Q191 440 217 448T275 457H283Q287 457 291 456L293 461Q298 474 304 485T314 506Q201 495 131 454Q89 429 64 396T39 334Q39 281 118 281ZM475 9Q551 31 606 82Q705 173 705 273Q705 364 625 430Q546 495 413 506Q394 479 373 433Q405
417 432 387Q458 403 509 448Q512 451 514 451Q515 451 515 448Q515 442 511 438Q479 405 440 377Q505 295 505 168Q505 85 475 9ZM235 302L283 317Q309 385 335 437Q317 444 297 447Q265 381 235 302ZM333 336Q357 346 378 357T420 379Q397 405 368 422Q360 403
351 382T333 336ZM381 -6Q418 -6 457 4Q489 82 489 167Q489 292 428 369Q382 337 323 311Q247 98 237 1Q239 3 277 65Q292 90 311 105Q324 115 333 115Q338 115 338 112Q338 111 336 109Q291 70 291 40Q291 -6 381 -6ZM275 -154Q320 -154 364 -122T441 -31Q415
-34 393 -34Q280 -34 280 30Q280 42 284 53Q274 40 261 20T231 -29Q229 -31 227 -31Q219 -31 208 -21T198 0Q207 105 273 291Q267 289 261 287T249 283L226 275Q188 172 175 103Q164 48 164 6Q164 -73 197 -115Q225 -154 275 -154Z" />
<glyph unicode="E" glyph-name="E" horiz-adv-x="522" d="M288 -171Q237 -171 193 -133Q146 -92 126 -18Q35 28 35 140Q35 198 60 258Q55 257 51 256T42 253H40Q35 253 35 259Q35 282 55 286L75 290Q124 391 224 461Q327 534 436 534Q506 534 538 504Q564 536
581 549Q584 552 588 552Q594 552 594 548Q594 545 591 542Q567 523 546 496Q562 476 562 450Q562 436 558 427Q544 391 508 391Q486 391 486 413Q486 430 495 448T526 488Q505 511 441 511Q341 511 255 449Q179 394 125 299L169 303Q249 444 403 487Q407 488 408
484Q410 480 406 479Q269 441 190 304Q198 305 217 305T269 306H444Q455 306 455 300Q455 293 438 293Q306 293 176 278Q128 180 128 84Q128 50 132 22Q178 -21 254 -21Q331 -21 405 24Q395 74 353 122Q294 87 248 33Q243 28 242 28Q240 28 242 34Q244 41 245 42Q297
100 343 132Q286 189 220 191Q216 191 216 195Q216 199 220 199Q290 197 352 138Q416 180 466 180Q523 180 523 133Q523 100 488 63Q459 34 422 12L423 3V-6Q423 -82 381 -128Q344 -171 288 -171ZM513 401Q528 401 535 417Q538 425 540 432T542 446Q542 462 533
478Q509 440 506 414V411Q506 401 513 401ZM115 40Q113 62 113 88Q113 185 155 275L132 272Q126 270 120 270T109 268L106 261Q94 233 87 205T80 150Q80 86 115 40ZM418 32Q461 63 488 102Q504 124 504 143Q504 168 472 168Q452 168 424 157T363 127Q405 82 418
32ZM285 -161Q339 -161 373 -118T408 -6Q408 1 407 4Q324 -42 233 -42Q184 -42 142 -25Q161 -90 202 -128Q239 -161 285 -161Z" />
<glyph unicode="F" glyph-name="F" horiz-adv-x="534" d="M137 -147Q131 -147 131 -138Q131 -132 137 -130Q211 -106 300 -5Q381 88 445 211L428 210Q419 209 411 207Q374 126 300 47Q289 35 257 5L171 -74Q168 -77 167 -73Q166 -69 169 -66Q211 -27 238 0T279
42Q352 123 390 204Q299 188 216 148Q129 105 94 55Q94 54 93 54Q88 54 86 71Q86 74 86 77T85 82Q85 92 88 95Q121 146 216 184Q302 217 400 226Q432 307 432 386Q432 505 338 551Q296 542 252 521T170 471T106 407Q130 390 170 373Q218 353 285 344Q301 370 314
401T338 468Q340 473 343 473Q353 473 348 459Q330 394 303 342Q331 340 356 340Q360 340 360 336Q360 332 356 332Q327 332 299 334Q226 198 124 198Q81 198 53 225T25 298Q25 353 68 412L72 417Q43 444 43 473Q43 517 103 549Q164 581 240 581Q290 581 332 566Q360
570 386 570Q463 570 507 536Q557 498 557 430Q557 352 493 228Q529 225 554 218Q558 217 558 214Q558 200 543 205Q519 212 484 212Q417 89 322 -14Q221 -121 142 -146Q140 -147 137 -147ZM81 429Q163 530 310 562Q277 572 238 572Q170 572 115 543Q61 514 61
474Q61 452 81 429ZM420 228Q428 229 437 229H454Q520 362 520 442Q520 557 395 557Q376 557 357 554Q449 504 449 384Q449 303 420 228ZM127 221Q210 221 280 336Q206 344 161 363Q123 379 98 396Q58 341 58 292Q58 259 77 240T127 221Z" />
<glyph unicode="G" glyph-name="G" horiz-adv-x="572" d="M215 -324Q170 -324 170 -283Q170 -253 199 -204Q145 -198 111 -155Q73 -108 73 -31Q73 -17 74 -1T78 32Q47 72 47 146Q47 210 87 280Q25 321 25 390Q25 455 75 508Q124 560 195 562Q208 562 208 554Q208
549 201 549Q138 549 92 500Q46 453 46 394Q46 335 100 301Q123 338 154 371T224 435Q302 496 389 528Q446 548 497 548Q551 548 584 527T618 470Q618 415 540 348Q487 302 408 272Q324 240 253 240Q207 240 173 247Q126 166 102 86Q126 13 208 13Q279 13 363 76Q336
136 276 136Q262 136 249 133Q242 132 227 117Q212 102 212 88Q212 82 208 82Q204 81 204 87Q204 103 221 123Q236 139 248 141Q263 145 279 145Q343 145 374 84Q479 166 551 306Q562 326 567 316H571Q579 316 585 313T590 304Q582 238 566 171T525 34Q541 36 558
36Q573 36 573 30Q573 23 561 23Q541 23 520 20Q491 -65 457 -128Q409 -219 334 -274Q266 -324 215 -324ZM249 268Q387 268 509 354Q594 415 594 468Q594 498 566 516T492 534Q446 534 394 514Q315 483 241 420Q171 359 130 286Q151 278 176 274Q240 376 325 437Q420
505 521 505Q525 505 525 501Q525 497 521 497Q425 497 334 431Q252 372 188 272Q216 268 249 268ZM391 -10Q434 14 483 27Q501 85 516 144T545 267Q474 151 379 74Q394 36 391 -10ZM96 105Q120 179 161 250Q150 252 139 255T118 263Q92 205 92 155Q92 127 96 105ZM204
-196Q239 -139 282 -96T376 -20Q377 -15 377 -10T377 1Q377 36 367 65Q267 -13 183 -13Q122 -13 87 22Q83 -6 83 -31Q83 -109 119 -152Q152 -193 204 -196ZM225 -314Q264 -314 320 -265Q382 -212 420 -135Q449 -77 477 10Q432 -4 389 -31L388 -36Q381 -73 366 -103T327
-157Q283 -199 227 -204Q198 -257 198 -285Q198 -314 225 -314ZM232 -195Q279 -188 317 -150Q359 -108 372 -46V-42Q287 -101 232 -195Z" />
<glyph unicode="H" glyph-name="H" horiz-adv-x="833" d="M131 -45Q125 -45 120 -45T108 -44Q66 -39 39 -14T12 52Q12 136 112 170Q155 184 231 192T417 205L438 247Q430 246 421 245T404 243Q303 243 242 316Q191 377 191 456Q191 544 253 586Q288 609 329 609Q395
609 442 541Q456 549 472 549Q501 549 524 524T553 450Q556 430 556 409Q556 356 539 296Q594 334 620 391Q622 395 625 393Q629 392 627 387Q597 323 536 284Q529 264 522 245T505 207L659 211Q667 262 685 315T732 425Q799 558 861 558Q882 558 882 550Q882 546
868 548Q815 556 757 417Q708 303 695 213Q718 215 732 218T754 226Q759 230 763 230Q765 230 765 227Q765 221 758 216Q750 211 719 209Q693 207 692 195Q690 172 689 152T687 115Q687 14 737 14Q761 14 790 33T834 78Q841 90 845 90Q848 90 848 86Q848 75 843
70Q827 43 783 14Q744 -10 718 -10Q716 -10 713 -10T708 -9Q650 4 650 106Q650 123 651 141T655 182L656 191Q624 189 584 188T495 186Q437 98 327 26Q219 -45 131 -45ZM400 252Q411 252 421 253T441 256Q470 328 470 394Q470 461 440 517Q400 470 400 336Q400
329 395 329Q389 329 388 338Q384 370 384 398Q384 494 430 533Q385 600 323 600Q288 600 257 579Q205 545 205 463Q205 385 253 324Q307 252 400 252ZM454 258Q475 262 496 272Q522 355 522 423Q522 439 520 455Q512 533 470 533Q460 533 451 527Q484 471 484
399Q484 330 454 258ZM428 205Q438 206 449 206H471Q482 230 493 262Q482 258 472 255T450 249Q441 227 428 205ZM155 -20Q316 -20 463 188Q443 189 418 188Q369 109 297 60Q221 8 142 8Q127 8 111 10Q107 11 108 14Q108 18 112 18Q128 16 143 16Q219 16 290 65Q360
112 406 188Q215 179 107 143Q24 114 24 60Q24 27 56 6Q85 -14 124 -18Q140 -20 155 -20Z" />
<glyph unicode="I" glyph-name="I" horiz-adv-x="441" d="M11 -127Q-16 -127 -28 -109Q-30 -104 -27 -103Q-24 -100 -22 -103Q-10 -119 13 -119Q39 -119 67 -103Q102 -83 135 -46Q96 -28 96 -11Q96 -7 101 -7Q105 -8 117 -19T143 -36Q150 -28 156 -19L169 0Q28
-3 28 -47Q28 -69 58 -88Q65 -92 57 -94Q56 -94 55 -94T53 -95Q48 -95 42 -91Q1 -64 1 -40Q1 24 173 24Q180 24 183 23Q197 47 209 74T232 130Q228 130 224 130T215 129Q145 129 90 173Q20 229 7 332Q4 359 4 384Q4 481 54 542Q100 596 163 596Q250 596 288 504H321Q340
504 366 505Q385 526 396 526Q406 526 406 506L455 504Q473 503 476 502Q514 497 515 488Q516 483 514 481Q512 479 504 481Q499 482 494 482H453L402 483Q376 311 332 176Q383 213 393 266Q394 269 398 268Q401 266 400 262Q383 197 327 161Q295 70 261 18Q292
14 324 9T391 -5Q407 -9 420 -9Q432 -9 432 -4Q432 4 404 22Q401 24 403 26Q406 29 409 27Q444 13 444 -9Q444 -24 416 -24Q401 -24 385 -20Q317 -7 247 -2Q220 -35 196 -48Q190 -51 184 -53T169 -55Q159 -55 144 -50Q105 -93 67 -112Q37 -127 11 -127ZM235 140Q282
275 282 392Q282 444 272 480Q186 471 136 439Q91 409 91 371Q91 342 120 319T203 285L207 282Q207 271 193 276Q56 317 56 383Q56 414 85 439T162 480T265 502Q232 587 160 587Q103 587 63 535Q19 476 19 385Q19 359 23 331Q37 227 103 177Q161 133 235 140ZM254
143L271 147Q279 148 288 153Q302 195 313 241T335 338Q352 427 354 482Q323 483 295 482Q305 448 305 399Q305 279 254 143ZM229 21Q243 43 257 72T284 140L267 136Q263 135 259 134T249 132Q238 102 225 75T197 23Q213 23 229 21ZM155 -37Q185 -36 214 -1Q206
0 199 0H182L169 -19Q162 -29 155 -37Z" />
<glyph unicode="J" glyph-name="J" horiz-adv-x="421" d="M-33 -292Q-82 -292 -108 -265T-135 -194Q-135 -180 -133 -166T-124 -136Q-99 -65 -23 4Q97 112 281 152Q293 207 293 258Q293 355 248 415Q233 433 221 444Q137 403 137 343Q137 300 177 266Q216 233
272 228Q277 228 277 225Q277 213 261 216Q187 229 142 266Q102 299 102 341Q102 410 199 459Q176 472 148 472Q113 472 82 451Q21 411 21 323Q21 261 54 216Q88 167 148 165Q162 163 162 162Q162 158 154 158Q86 158 44 211Q8 257 8 321Q8 412 78 458Q113 481
154 481Q184 481 213 466Q225 471 238 476T265 485Q309 498 421 505Q444 525 453 525Q458 525 459 521Q459 516 461 506L509 504Q527 503 530 502Q568 497 569 488Q570 482 568 481Q567 480 558 481Q553 482 548 482H507L457 483Q440 343 378 168L422 171H429Q446
171 446 167Q446 161 428 160Q401 158 374 154Q265 -149 130 -234Q39 -292 -33 -292ZM294 155L315 159Q319 160 325 160T336 162Q367 254 385 333T410 481Q390 480 363 478T300 470Q264 460 236 450Q249 438 261 422Q307 361 307 263Q307 210 294 155ZM-40 -274Q26
-274 117 -212Q233 -132 331 147L290 139Q251 -10 155 -123Q53 -243 -55 -243Q-67 -243 -79 -241Q-82 -241 -82 -238Q-82 -233 -78 -233Q-66 -235 -54 -235Q49 -235 148 -119Q240 -9 277 135Q84 85 -21 -29Q-115 -129 -115 -204Q-115 -274 -40 -274Z" />
<glyph unicode="K" glyph-name="K" horiz-adv-x="655" d="M139 -54Q112 -54 89 -38Q65 -22 65 -11Q65 -7 70 -7Q73 -7 77 -13Q81 -19 87 -23Q107 -37 122 -37Q128 -37 136 -35Q187 -25 235 93Q255 141 271 198T302 323Q292 322 282 321T262 318Q236 200 199 116Q151
4 75 4Q43 4 22 27T0 89Q0 139 38 195Q69 241 143 282Q25 322 25 383Q25 431 95 465Q167 502 284 505L287 554Q289 557 291 557Q296 557 295 553L292 505H336Q354 526 365 526Q374 526 376 506Q393 504 393 495Q393 483 371 483Q366 445 359 407T343 331Q374 329
397 324Q442 415 482 461Q542 531 617 540Q621 541 624 541T631 541Q678 541 712 509T752 427Q754 413 751 412Q748 412 747 424Q743 467 707 493Q676 515 631 515Q590 515 553 493Q486 453 410 321Q468 305 500 271T532 196Q532 127 453 90Q508 20 538 0Q574 -24
598 -24Q636 -24 636 26Q636 71 608 111Q606 113 606 115Q606 117 608 117Q610 117 615 112Q648 74 648 29Q648 -3 629 -25T577 -47Q531 -47 480 -2Q463 13 446 32T413 77Q399 75 385 75Q345 75 313 95Q310 96 312 101Q313 104 318 102Q347 83 384 83Q396 83 408
85Q394 113 373 153L322 247Q255 0 166 -48Q152 -54 139 -54ZM155 289Q205 315 255 325Q271 403 281 483Q177 480 115 445Q61 413 61 371Q61 311 155 289ZM264 327Q272 329 284 330L303 331Q313 379 317 416T323 482Q315 483 306 483H289Q284 443 278 404T264 327ZM350
228L394 317Q381 319 368 321T341 324L334 293Q331 278 327 264L338 247Q340 243 343 238T350 228ZM83 20Q148 20 192 119Q210 161 225 210T253 316Q209 307 169 286L173 285Q176 283 176 282Q176 279 172 277T162 276L155 278Q85 239 52 190T19 96Q19 62 37 41T83
20ZM447 98Q518 134 518 198Q518 236 490 265Q460 299 405 314Q389 280 355 222Q362 212 371 200T392 172L447 98Z" />
<glyph unicode="L" glyph-name="L" horiz-adv-x="433" d="M521 -54Q423 -54 259 61Q208 -17 132 -17Q118 -17 102 -14Q50 -5 22 25T-6 89Q-6 118 15 138T74 158Q85 158 101 156Q139 148 210 113Q223 140 233 171Q167 168 130 193T92 263Q92 289 105 315Q70 368
70 432Q70 538 147 576Q165 585 183 585Q227 585 255 542Q288 492 288 403Q288 334 266 246Q283 246 301 251Q317 332 334 390T372 485Q427 585 480 585Q510 585 528 553T547 472Q547 412 520 357T441 256Q383 206 309 183Q299 150 289 125T269 80Q293 66 316 54T362
31Q424 3 472 -12T558 -28Q612 -28 626 13Q629 21 634 21Q638 21 635 12Q620 -27 576 -44Q552 -54 521 -54ZM253 246Q272 332 272 401Q272 490 244 536Q220 577 182 577Q144 577 116 540Q86 499 86 442Q86 387 114 331Q130 357 157 376Q161 378 164 378Q168 378
165 375Q133 349 122 315Q166 249 253 246ZM315 203Q406 228 466 314Q526 399 526 496Q526 547 505 558Q501 561 495 561Q476 561 449 524Q407 467 363 347Q358 333 351 313T335 264Q392 292 427 363Q427 366 430 366Q438 366 434 360Q396 283 332 253L323 226Q321
219 319 214T315 203ZM238 190Q242 201 245 213T251 238Q169 239 119 297Q115 249 153 218Q188 190 238 190ZM251 190Q270 191 290 196L299 242Q284 238 264 238Q261 225 258 213T251 190ZM253 90Q258 99 266 122Q274 144 285 179L265 175Q255 173 245 172Q238
152 232 137T219 108L253 90ZM114 -4H123Q204 -4 243 71L231 78Q226 79 221 82T208 89Q163 15 105 18Q101 18 100 22L104 26Q159 23 199 93Q174 104 155 111T123 121Q109 123 97 123Q63 123 45 107T26 67Q26 43 46 23Q67 1 105 -3L114 -4Z" />
<glyph unicode="M" glyph-name="M" horiz-adv-x="833" d="M217 -115Q147 -115 127 -68Q122 -69 117 -69H106Q22 -69 22 -23Q22 -4 36 -4Q41 -4 41 -8L39 -13Q36 -17 36 -21Q36 -42 69 -51Q93 -58 123 -55Q122 -52 122 -44Q122 -5 161 40Q213 100 320 124Q332 146
344 175Q356 202 368 229T391 283Q426 360 456 407Q429 494 366 531Q361 532 356 532H345Q276 532 203 478Q131 425 99 349Q94 336 90 324T83 298Q99 267 123 253T178 239Q217 239 250 263Q286 288 291 323Q291 327 295 327Q299 326 299 322Q295 286 255 257Q218
231 175 231Q146 231 122 242T81 277Q80 272 80 267T80 257Q80 218 97 192Q123 154 180 154Q223 154 265 184Q293 204 309 226Q313 233 315 229V228Q315 227 315 225T313 219Q300 191 258 163Q208 131 161 131Q103 131 73 168Q47 202 47 254Q47 287 58 323Q51 344
51 371Q51 478 151 538Q201 569 261 569Q307 569 350 549L355 546Q360 547 366 547H376Q478 547 526 486Q539 495 554 498Q560 499 560 494Q560 487 551 486Q541 484 532 477Q565 427 565 344Q565 251 524 125L555 117L568 140Q668 306 721 374Q845 533 935 533Q959
533 973 516T988 473Q988 456 984 456Q979 456 979 463Q979 507 933 507Q913 507 894 498Q819 464 715 327Q692 296 656 243T569 111Q655 76 655 10Q655 -10 648 -28Q648 -31 645 -31Q638 -31 640 -25Q647 -7 647 11Q647 74 565 105L563 102Q487 -16 462 -16Q455
-16 458 -10Q483 50 500 121L470 125Q425 -35 291 -98Q254 -115 217 -115ZM68 350Q101 423 179 479Q257 535 339 545Q303 561 261 561Q204 561 155 531Q67 479 67 373V361Q67 355 68 350ZM467 424Q482 445 492 457Q458 515 385 529Q440 492 467 424ZM502 130Q526
227 526 307Q526 389 501 440Q490 422 477 395Q491 344 491 284Q491 205 472 133L502 130ZM772 -51Q702 -51 702 47Q702 142 744 272Q799 440 879 434Q885 434 885 428Q883 422 875 422Q820 422 777 253Q744 123 744 54Q744 -34 789 -34Q828 -34 865 27Q869 33
873 33Q876 33 876 30Q876 25 874 22Q857 -11 829 -31T772 -51ZM371 132Q401 135 431 135Q438 135 445 135T460 134Q475 195 475 271Q475 326 465 370Q451 332 431 280L384 162Q378 146 371 132ZM217 -108Q249 -108 288 -91Q415 -31 457 125Q434 126 411 125T365
120Q278 -47 143 -66Q158 -108 217 -108ZM472 -3Q495 8 551 110L522 118Q511 84 499 54T472 -3ZM139 -53Q236 -34 313 110Q221 86 177 36Q134 -12 139 -53Z" />
<glyph unicode="N" glyph-name="N" horiz-adv-x="686" d="M62 -95Q33 -95 15 -78T-3 -32Q-3 2 22 34Q23 37 26 37Q28 37 28 34L20 13Q12 -8 12 -21Q12 -46 26 -64T66 -83Q175 -83 283 39Q238 63 238 112Q238 154 276 190Q338 249 416 265Q443 337 449 395Q412
513 319 530Q301 501 301 464Q301 421 327 383Q329 379 326 378Q321 375 320 379Q293 416 293 464Q293 500 310 531Q306 531 303 531T295 532Q241 532 187 493Q127 450 96 372Q77 325 77 278Q77 200 132 200Q185 200 235 280Q239 285 242 284Q243 281 242 275Q231
250 197 219Q156 181 125 180Q50 174 50 278Q50 337 75 386Q113 460 183 505Q252 551 324 549Q346 574 384 574Q458 574 505 464Q535 392 559 253Q570 248 581 242T603 228Q635 382 664 446Q713 554 796 554Q835 554 861 524Q878 504 886 475Q888 468 884 466Q879
464 878 471Q874 486 856 502Q833 522 806 522Q731 522 682 423Q650 358 616 218Q638 200 654 178Q687 133 687 85Q687 25 649 25Q615 25 586 99Q579 73 570 56Q604 -10 642 -10Q663 -10 689 10Q715 30 713 30Q715 29 715 28Q715 26 717 25Q718 24 717 23Q674 -23
628 -23Q584 -23 550 26Q542 21 532 21Q517 21 517 30Q517 32 527 34Q536 36 541 39Q501 124 479 260Q458 261 437 257Q390 134 304 39Q314 36 326 36Q362 36 394 65Q397 68 399 65Q402 62 399 59Q365 28 326 28Q310 28 298 32Q284 16 269 2T237 -25Q152 -95 62
-95ZM549 257Q525 378 489 457Q440 565 379 565Q376 565 373 565T367 564Q348 561 334 548Q445 536 481 407Q487 385 494 350T512 266Q531 263 549 257ZM441 269Q450 270 459 270T478 270L465 354Q458 313 441 269ZM563 71Q571 89 579 119Q572 140 567 165T556
219Q555 226 554 232T551 247Q535 254 514 257Q541 119 563 71ZM288 45Q364 135 411 252Q342 232 288 181Q252 146 252 107Q252 66 288 45ZM583 134Q586 147 590 168T601 220Q591 227 581 232T560 243L564 220Q569 195 573 174T583 134ZM650 33Q679 33 679 86Q679
130 648 173Q632 193 614 209Q607 177 590 112Q617 33 650 33Z" />
<glyph unicode="O" glyph-name="O" horiz-adv-x="534" d="M313 -60Q250 -60 197 -32Q41 -31 41 108Q41 137 50 172Q39 221 39 268Q39 352 125 420Q120 522 199 560Q224 573 252 573Q331 573 403 487Q470 474 513 426Q558 376 558 306Q558 221 507 142Q494 52 439
-4Q385 -60 313 -60ZM136 427Q227 493 353 493Q366 493 380 491Q312 563 246 563Q222 563 203 553Q133 519 136 427ZM186 1Q230 1 275 16T364 60Q452 117 496 200Q495 219 493 238T486 277Q464 392 393 476Q376 480 353 480Q221 480 138 398Q140 384 144 372T154
348Q243 434 335 434Q347 434 347 427Q347 421 334 421Q255 421 165 328Q209 266 272 266Q324 266 347 322Q347 325 350 325Q357 325 355 319Q330 258 273 258Q206 258 158 320Q95 251 71 176Q91 66 164 3Q169 2 175 2T186 1ZM509 231Q524 274 524 319Q524 433
418 469Q449 429 471 381T502 277L506 254Q507 248 507 242T509 231ZM66 222Q91 286 145 340Q135 359 129 389Q103 361 87 327Q64 280 66 222ZM143 6Q90 55 61 132Q60 128 60 124T60 114Q60 29 143 6ZM314 -52Q379 -52 425 -5T488 116Q437 53 365 13T217 -31Q260
-52 314 -52Z" />
<glyph unicode="P" glyph-name="P" horiz-adv-x="606" d="M113 -60Q61 -60 33 -33Q6 -9 6 31Q6 70 32 110Q32 125 35 140Q52 239 147 313Q136 330 136 349Q136 410 223 461Q327 520 488 519Q513 547 543 552Q550 553 550 548Q550 539 540 538Q525 535 509 518Q606
513 666 484Q730 453 730 401Q730 368 705 337T637 282T544 240Q537 161 461 128Q456 126 455 130Q454 134 457 135Q527 166 536 237Q471 217 400 213Q308 -60 113 -60ZM159 322Q249 388 368 390Q402 466 428 487Q431 489 434 486Q436 483 433 480Q409 462 379
390L398 389Q406 388 414 386Q447 469 479 509Q351 508 247 446Q154 392 154 341Q154 330 159 322ZM544 258Q685 312 693 396Q696 441 640 473Q584 505 502 508Q491 491 478 459T450 378Q462 374 475 366Q513 386 545 408Q549 412 554 412Q557 412 557 408Q557
401 547 395Q531 384 517 375T489 358Q543 320 544 258ZM224 301Q232 301 241 301T260 303Q280 305 299 308T338 316Q350 350 364 382Q256 379 168 314Q184 301 224 301ZM354 320Q376 325 394 332L411 379Q394 382 376 382L365 353Q359 337 354 320ZM442 350L467
362L448 370L442 350ZM405 226Q426 228 455 232Q498 241 537 255Q535 317 481 353Q470 346 459 341T436 330L418 269Q410 243 405 226ZM112 -46Q255 -46 347 199L386 309Q376 305 366 302T346 296L342 282Q340 275 338 268Q309 169 265 97Q202 -6 129 -6Q54 -6
36 69Q25 44 25 23Q25 -46 112 -46ZM127 2Q196 2 254 101Q294 168 323 270L330 292Q277 280 239 280Q183 280 156 304Q64 230 49 138L48 133Q118 215 254 229Q257 230 259 227Q260 224 259 221Q258 218 253 216Q109 193 46 90Q51 2 127 2Z" />
<glyph unicode="Q" glyph-name="Q" horiz-adv-x="535" d="M345 -56Q299 -56 253 -27Q225 -32 201 -32Q119 -32 78 8Q41 44 41 108Q41 150 57 197Q39 231 39 268Q39 360 141 431Q172 501 234 540Q289 577 347 577Q434 577 458 505Q465 486 464 465Q558 413 558
306Q558 202 485 113Q486 108 486 104T486 94Q486 53 468 18Q443 -30 389 -49Q369 -56 345 -56ZM161 444Q246 493 353 493Q408 493 456 469Q456 487 450 504Q427 569 347 569Q294 569 247 538Q192 503 161 444ZM233 6Q297 18 359 56T465 152Q451 188 418 214T349
241Q304 241 278 194Q278 192 276 192Q267 192 271 198Q299 250 349 250Q385 250 420 224T472 162Q524 235 524 319Q524 402 461 447Q453 413 428 389T369 364Q365 364 365 368Q365 372 369 372Q400 373 423 396T454 452Q411 480 353 480Q226 480 144 404Q137 384
133 364T127 320Q226 434 335 434Q348 434 348 428Q348 421 334 421Q285 421 227 381Q198 361 173 336T125 280L127 245Q139 94 233 6ZM66 222Q81 261 111 300Q112 343 123 382Q101 356 87 327Q65 284 65 236Q65 227 66 222ZM197 2H206Q210 2 215 3Q120 98 111
259Q61 180 61 116Q61 62 96 30T197 2ZM350 -48Q370 -48 387 -41Q433 -25 456 16Q477 53 475 101Q392 5 272 -24Q311 -48 350 -48ZM528 -309Q504 -309 482 -303Q411 -283 307 -191Q190 -86 144 -63Q123 -53 102 -53Q83 -53 67 -63Q38 -83 38 -121Q38 -181 102 -197Q114
-200 114 -205Q114 -209 106 -209L96 -207Q19 -181 19 -122Q19 -90 45 -67T111 -43Q131 -43 157 -51Q183 -59 212 -77T274 -121L388 -215Q458 -266 528 -284Q546 -289 560 -289Q605 -289 626 -259Q631 -254 634 -253Q637 -252 637 -255Q637 -257 634 -261Q599 -309
528 -309Z" />
<glyph unicode="R" glyph-name="R" horiz-adv-x="688" d="M656 -80Q612 -80 559 -36Q536 -16 513 13T470 81L402 213H400Q308 -60 113 -60Q61 -60 33 -33Q6 -9 6 32Q6 97 68 153Q138 217 254 229Q257 230 259 227Q260 224 259 221Q258 218 253 216Q152 199 85
137Q25 81 25 23Q25 -46 112 -46Q183 -46 243 15T347 199L386 308Q375 304 365 301T344 295Q339 269 332 244Q300 134 248 64Q177 -31 84 -27Q80 -26 80 -22Q80 -18 84 -19Q239 -27 316 245Q320 256 322 268T327 291Q275 280 239 280Q188 280 162 300T136 351Q70
375 60 432Q57 445 57 459Q57 515 97 551Q137 588 192 588Q234 588 270 566T326 501Q399 519 488 519Q513 547 543 552Q550 553 550 548Q550 539 540 538Q525 535 509 518Q606 513 666 484Q730 453 730 401Q730 336 636 280Q548 229 420 215L513 78Q540 38 566
11T618 -34Q654 -58 678 -58Q716 -58 716 -7Q716 36 687 77Q682 83 687 83Q690 83 695 78Q727 40 727 -5Q727 -37 708 -58T656 -80ZM137 361Q144 399 188 437Q236 476 317 499Q299 537 265 558T193 580Q142 580 107 546Q72 511 72 460Q72 447 75 434Q84 384 137
361ZM347 318Q359 321 371 324T394 332Q441 462 479 509Q403 507 333 485Q351 438 351 377Q351 350 347 318ZM411 227L431 229Q436 230 442 230T455 232Q570 256 633 305Q693 353 693 401Q693 443 640 473Q584 505 502 508Q477 472 442 350Q470 362 496 376T545
408Q549 412 554 412Q557 412 557 408Q557 401 547 395Q483 352 436 330L420 274Q416 262 413 252T407 233L411 227ZM226 300Q269 300 332 315Q338 354 338 389Q338 440 324 482Q286 468 250 447T188 402T156 354Q169 351 184 351Q225 351 256 380Q259 383 261
380Q264 377 261 374Q229 342 182 342Q166 342 154 346Q150 300 226 300Z" />
<glyph unicode="S" glyph-name="S" horiz-adv-x="520" d="M236 -178Q139 -178 132 -58Q23 -42 23 44Q23 98 64 137Q3 194 3 279Q3 360 64 427Q150 522 276 513Q335 559 416 559Q498 559 533 511Q547 526 559 536T582 554Q595 561 595 552Q595 549 590 546Q577
538 565 527T540 502Q550 485 550 464Q550 450 542 432Q526 398 490 398Q469 398 469 419Q469 424 471 432Q480 461 518 495Q498 545 421 545Q355 545 309 508Q389 488 416 427Q417 424 414 422Q410 421 409 423Q381 486 303 502Q272 475 272 441Q272 393 346 337Q390
363 424 363Q488 363 488 293Q488 263 471 227Q502 186 502 142Q502 76 437 23Q371 -31 269 -50Q202 -64 151 -60Q163 -164 248 -164Q286 -164 319 -140Q353 -116 358 -83Q358 -79 362 -79Q366 -80 366 -84Q360 -122 320 -150Q282 -178 236 -178ZM71 143Q127 190
217 209Q257 270 309 311Q296 321 287 328T270 342Q226 383 226 427Q226 470 268 506Q159 509 81 423Q19 355 19 272Q19 195 71 143ZM495 408Q508 408 518 424Q529 441 529 459Q529 469 524 484Q510 467 502 452T489 422Q489 421 489 420T488 416Q488 408 495 408ZM461
239Q475 272 475 297Q475 355 422 355Q393 355 353 332L389 306Q396 301 400 297T408 290Q442 262 461 239ZM217 90Q270 90 315 109T399 162Q418 178 434 197Q411 239 316 307Q265 266 228 212Q242 214 254 215T277 216Q284 216 290 216T301 215Q311 214 311 205Q311
199 304 200Q288 203 270 203Q258 203 246 202T219 198Q204 173 192 147T170 94L188 92Q196 91 203 91T217 90ZM158 96Q168 122 180 146T208 196Q125 178 84 131Q116 105 158 96ZM189 -43Q207 -43 226 -40T268 -32Q353 -12 401 34T450 135Q450 160 440 183Q433
175 426 169T411 155Q322 79 187 85Q178 85 168 87Q147 24 149 -39Q159 -40 169 -41T189 -43ZM131 -35Q132 26 155 89Q113 98 78 124Q53 93 53 54Q53 -13 131 -35Z" />
<glyph unicode="T" glyph-name="T" horiz-adv-x="464" d="M9 -128Q-3 -128 -15 -126Q-19 -126 -19 -122Q-18 -118 -14 -118Q-4 -120 9 -120Q69 -120 133 -76Q127 -77 121 -77H108Q59 -77 34 -54T8 6Q8 72 75 132Q150 198 270 212Q274 212 276 209V207Q276 199
269 199Q165 183 92 117Q26 57 26 -1Q26 -64 108 -64Q136 -64 158 -57Q243 15 299 137Q356 260 356 373Q356 438 335 488Q236 510 200 514Q193 515 186 515T173 515Q132 515 104 504Q94 477 94 441Q94 379 122 335Q126 334 130 334H139Q206 334 260 367Q306 394
318 425Q319 431 323 431Q331 431 327 419Q313 380 267 352Q212 317 139 317H135Q164 284 206 282Q209 282 209 280Q209 276 205 276Q156 279 123 318Q68 322 32 358Q-1 389 -1 432Q-1 470 27 499T110 538Q123 560 144 576Q172 598 214 598Q279 598 324 538Q336
523 343 507L498 468Q540 526 584 534Q590 535 590 530Q590 522 580 521Q551 517 522 464Q568 456 608 456Q704 456 763 506Q765 508 767 508Q769 508 769 504Q769 496 763 490Q710 443 608 443Q567 443 515 451Q498 416 463 321Q444 268 430 230T404 168Q308 -50
149 -74Q78 -128 9 -128ZM323 513Q277 589 208 589Q174 589 148 569Q132 559 121 540Q130 542 139 542T157 542Q180 542 204 539Q246 535 323 513ZM109 337Q82 382 82 438Q82 472 92 499Q38 473 38 421Q38 393 57 370T109 337ZM180 -49Q229 -27 275 30T361 181L424
328Q461 412 489 455Q464 459 431 466T353 484Q370 436 370 378Q370 268 316 147Q262 27 180 -49Z" />
<glyph unicode="U" glyph-name="U" horiz-adv-x="707" d="M303 -50Q243 -50 224 4Q143 2 89 55Q36 110 36 189Q36 261 83 334Q27 348 -5 375L-7 371Q-14 358 -16 346T-19 320Q-19 265 36 244Q39 242 39 240Q39 231 28 237Q-33 268 -40 311Q-41 317 -41 323T-42
335Q-42 367 -27 398Q-45 423 -45 454Q-45 502 -4 538Q36 574 88 574Q108 574 129 566Q132 565 132 562Q132 557 127 559Q110 566 89 566Q42 566 2 531Q-37 496 -37 452Q-37 428 -23 405Q11 465 89 506Q166 546 243 546Q308 546 346 514Q379 523 409 523Q439 523
465 509Q499 491 499 464Q499 437 465 409Q434 383 376 362Q365 320 304 198Q254 96 254 40V31Q254 26 255 21Q285 28 315 42Q365 68 393 110Q417 147 417 183Q417 211 401 221Q398 221 398 224Q398 231 404 227Q427 213 427 176Q427 137 403 98Q374 53 328 31Q294
13 258 7Q267 -30 306 -30Q383 -30 479 131Q517 196 558 295T645 529Q646 544 670 544Q706 544 702 519Q591 253 591 88Q591 -10 629 -10Q646 -10 663 7Q690 34 703 70Q703 73 707 73Q717 73 713 67Q698 22 672 -5T616 -33Q588 -33 569 -7T549 68Q548 100 551 143T562
241Q496 120 454 63Q371 -50 303 -50ZM88 341Q171 460 318 506Q291 530 245 530Q180 530 106 486Q30 443 -2 382Q28 355 88 341ZM378 372Q430 391 459 415Q490 440 490 465Q490 488 465 501T411 515Q384 515 354 506Q375 484 381 448Q383 441 383 434T383 419Q383
408 382 396T378 372ZM165 332Q244 332 335 359Q347 398 347 428Q347 435 347 441T345 453Q340 481 326 498Q192 451 110 337Q114 336 118 336T126 335L140 333Q146 332 152 332T165 332ZM221 16L220 20Q218 28 218 36T217 52Q217 111 262 202L312 305Q330 342
332 349Q243 325 162 325Q128 325 105 329Q51 251 51 176Q51 103 99 58Q147 13 221 16Z" />
<glyph unicode="V" glyph-name="V" horiz-adv-x="543" d="M252 -86Q249 -83 252 -80Q293 -30 319 60Q344 147 344 246Q344 268 343 288T339 328Q331 327 322 327H304Q230 327 170 356Q107 387 85 444Q28 375 28 294Q28 203 107 203Q140 203 174 229Q197 246 209
265Q213 269 213 269Q216 269 213 259Q202 235 169 211Q129 182 93 182Q2 182 2 290Q2 342 26 389Q45 427 79 461Q75 477 75 495Q75 538 100 566T163 594Q210 594 258 545H263Q408 546 421 358Q502 392 531 460Q539 477 539 492Q539 505 531 512Q528 513 530 517Q533
520 536 518Q547 507 547 485Q547 472 542 457Q511 383 422 348Q423 341 423 334T423 320Q423 244 401 157Q380 63 347 -3Q365 5 399 63L421 102Q426 112 432 121T443 140Q567 345 610 405Q748 594 838 594Q863 594 878 575T892 528Q890 517 887 517Q882 517 882
524Q882 567 836 567Q818 567 797 559Q722 525 599 351L438 102Q362 -16 337 -16Q330 -16 333 -10Q388 122 388 292V315Q388 326 387 337Q379 335 370 333T353 330Q355 310 356 290T358 249Q358 152 331 61Q303 -31 258 -85Q255 -88 252 -86ZM92 473Q164 537 247
545Q203 586 163 586Q131 586 110 562T89 500Q89 486 92 473ZM301 334Q318 334 338 336Q320 460 260 531Q255 532 250 532H238Q165 532 96 457Q116 397 175 364Q229 334 301 334ZM352 338L369 342Q378 344 386 346Q373 502 274 528Q334 456 352 338Z" />
<glyph unicode="W" glyph-name="W" horiz-adv-x="816" d="M73 -134Q22 -134 22 -83Q22 -43 60 10Q134 115 275 185Q291 256 291 320Q291 343 289 363Q278 473 199 473Q174 473 153 463Q149 461 148 465Q146 469 150 470Q174 481 200 481Q291 481 303 364Q305 352
305 340T305 314Q305 285 302 255T292 193Q313 203 334 211Q339 241 342 268T345 320Q345 375 331 417Q302 501 219 501Q139 501 78 435Q16 370 16 292Q16 207 89 207Q124 207 161 232Q194 253 217 287Q218 291 221 291Q223 289 223 288L221 282Q200 247 157 219Q110
189 75 189Q33 189 13 216T-7 285Q-7 330 13 375Q40 436 104 476Q169 517 235 517Q390 517 390 353Q390 297 372 224Q401 232 433 237T504 243Q501 306 515 372Q531 445 563 465Q573 470 579 470Q606 470 606 435Q606 387 547 286L548 271Q548 265 549 258T551
243Q655 237 717 194Q836 351 836 481Q836 560 757 585Q748 589 748 594Q748 600 754 598L766 596Q882 558 882 467Q882 366 730 184Q779 144 779 94Q779 64 755 42T700 19Q673 19 656 42Q654 46 657 47Q662 49 663 46Q676 27 701 27Q727 27 749 46T771 92Q771
138 722 175Q685 135 643 86T550 -24Q549 -28 545 -28Q538 -28 538 7Q538 42 525 109Q508 190 507 211Q469 153 410 78Q373 32 342 -1T285 -56Q266 -72 255 -72Q248 -72 248 -65L250 -55Q279 17 300 80T332 201Q321 197 311 193T290 184Q257 39 184 -62Q133 -134
73 -134ZM545 305Q591 396 591 439Q591 461 579 461Q566 461 556 436Q543 409 543 364Q543 337 545 305ZM267 -49Q276 -48 285 -39Q436 109 505 229V230Q427 228 369 212Q336 87 267 -49ZM555 0Q563 12 580 32T622 81L673 141Q696 168 709 184Q649 223 552 229Q554
207 557 187Q560 167 562 147Q564 129 565 113T567 81Q567 35 555 0ZM80 -123Q131 -123 178 -57Q239 27 273 176Q148 114 77 15Q39 -40 39 -79Q39 -123 80 -123Z" />
<glyph unicode="X" glyph-name="X" horiz-adv-x="577" d="M-61 -169Q-67 -169 -67 -160V-158Q-67 -148 -57 -132Q49 39 276 230V294Q276 319 275 332Q270 331 265 331T254 331Q224 331 194 337Q105 357 75 438Q43 403 23 356Q7 320 7 280Q7 192 91 192Q128 192
162 217Q184 232 199 252Q203 256 203 256Q207 256 203 247Q192 223 156 200Q115 172 75 172Q-21 172 -21 276Q-21 327 5 371Q31 418 70 455Q63 479 63 502Q63 541 83 564T134 587Q186 587 226 535Q242 537 256 537Q318 537 343 485Q359 452 362 370Q396 392 417
425Q435 453 435 477Q435 485 432 490Q431 494 434 496Q438 497 440 494Q445 482 445 469Q445 441 425 412Q403 379 363 358Q363 340 365 304L534 439L622 519Q694 585 708 587Q714 587 714 583Q715 555 567 443Q495 389 445 350T366 288V240Q367 132 372 93Q387
-8 433 -8Q459 -8 486 10Q519 32 563 86Q570 93 574 89Q575 88 575 85Q575 81 571 76Q552 54 533 35T495 -1Q467 -25 444 -38T404 -51Q361 -51 343 11Q328 57 325 144V253L288 222L289 187Q289 172 290 161L297 62Q299 26 301 18Q321 -77 379 -77Q413 -77 441 -52Q444
-49 447 -52Q450 -55 447 -58Q415 -87 379 -87Q328 -87 304 -39Q286 -5 280 64L277 161Q276 171 276 184V211Q65 27 -20 -129Q-41 -167 -59 -169H-61ZM77 461Q142 518 217 533Q182 575 143 575Q114 575 94 551T74 489Q74 474 77 461ZM252 339Q258 339 263 339T275
340Q271 456 229 518Q151 518 81 445Q108 364 196 345Q225 339 252 339ZM284 341Q303 344 323 350Q319 510 238 518Q275 459 284 341ZM288 240L324 270V299Q324 317 323 342Q302 336 285 333L288 240Z" />
<glyph unicode="Y" glyph-name="Y" horiz-adv-x="707" d="M164 -386Q73 -386 42 -331Q31 -311 31 -292Q31 -275 39 -254Q14 -214 14 -171Q14 -117 50 -79Q86 -42 134 -42Q170 -42 202 -66Q226 -82 238 -110L485 -16L497 32Q502 50 507 75T520 131Q529 173 538
202T555 249Q558 256 562 256Q568 256 564 246Q546 207 530 129L501 -9Q506 -7 511 -5T522 -1L541 7Q547 48 553 88T566 169Q599 338 660 449Q632 417 603 374T541 277L498 205Q477 169 455 134Q378 15 354 15Q347 15 350 22Q398 138 398 287Q398 312 396 336Q391
334 384 334L373 332H369Q370 323 370 313T371 291Q371 275 370 256T367 216Q358 115 327 21Q326 18 323 18Q318 18 320 23Q348 110 357 217Q359 238 360 257T361 292Q361 303 361 312T359 331Q343 329 325 329Q239 329 180 363Q127 393 100 431Q74 382 74 339Q74
268 136 268Q184 268 215 317Q217 317 217 312Q209 293 183 274Q154 252 124 252Q54 252 54 336Q54 392 91 444Q76 472 76 501Q76 538 101 563T166 589Q216 589 264 547Q378 552 416 432Q427 396 430 353Q526 385 530 449Q530 453 534 453Q538 452 538 448Q534
378 431 345Q434 265 413 174Q393 89 364 29Q382 37 416 95Q427 114 438 133T460 172Q484 215 508 257T557 343Q595 407 632 454T705 532Q712 537 719 537Q727 537 727 530Q727 525 722 517Q661 429 627 306Q616 265 607 219T593 120L584 27Q616 41 663 68Q676
75 679 75Q681 75 681 74Q681 67 659 54Q631 36 579 6Q530 -200 365 -315Q262 -386 164 -386ZM96 451Q157 533 247 545Q203 581 161 581Q127 581 105 559T82 503Q82 477 96 451ZM324 337H341Q350 337 358 338Q347 420 292 497Q284 507 277 516T261 533Q218 537
175 512T104 439Q129 400 184 370Q242 337 324 337ZM369 339L372 340L383 342Q390 342 395 344Q390 385 380 418Q351 508 283 528Q307 503 327 467Q361 409 369 339ZM152 -357Q195 -357 240 -345Q348 -316 427 -230Q512 -139 538 -11L496 -28Q473 -114 441 -164Q397
-232 327 -279Q254 -328 184 -328Q102 -328 53 -273Q47 -285 47 -297Q47 -309 54 -319Q77 -357 152 -357ZM183 -320Q248 -320 319 -272Q381 -229 426 -160Q457 -113 480 -35Q334 -93 246 -136Q249 -148 249 -162Q249 -199 230 -233Q229 -237 224 -235Q221 -234
223 -229Q238 -202 238 -172Q238 -155 234 -142Q157 -179 117 -207T58 -264Q105 -320 183 -320ZM44 -244Q63 -210 106 -181Q130 -164 159 -148T224 -116Q212 -94 193 -80Q161 -56 126 -56Q84 -56 52 -88Q21 -120 21 -168Q21 -206 44 -244Z" />
<glyph unicode="Z" glyph-name="Z" horiz-adv-x="546" d="M288 -112Q240 -112 215 -88T190 -29Q190 -15 195 3L151 18Q101 -25 53 -25Q29 -25 14 -14T-2 12Q-2 54 85 54Q111 54 142 48L198 120Q215 141 234 165T276 218L244 215Q224 189 206 169T170 133Q121 87
82 87Q30 87 30 150Q30 225 94 282Q170 351 300 351Q321 351 346 346Q425 427 453 440Q459 442 461 442Q465 442 463 440Q462 438 454 433Q430 420 355 345L384 336Q462 412 536 458L313 471Q275 472 256 473T236 475Q202 475 169 461Q125 443 122 409V404Q122
395 126 385L131 372Q129 366 126 366L124 367Q113 385 113 408Q113 443 145 475Q171 498 201 504Q218 508 243 508Q301 508 401 493L515 477Q556 471 556 471Q595 492 625 492Q648 492 648 481Q648 457 551 458Q491 413 411 324Q471 293 504 236T537 112Q537 38
494 -17Q531 -11 559 17T587 80Q587 97 579 115Q577 120 581 122Q585 123 586 121Q597 99 597 78Q597 32 552 -7Q511 -43 459 -52Q405 -96 320 -109Q303 -112 288 -112ZM76 95Q109 95 158 141Q172 155 189 172T225 211Q153 197 152 174Q151 170 153 166Q153 163
154 163T155 162L154 161Q148 161 142 170T136 189Q136 234 248 237Q262 254 285 280T339 340Q319 343 300 343Q177 343 101 271Q38 211 38 145Q38 95 76 95ZM292 237Q315 263 336 286T378 330L349 338Q335 324 314 299T263 238H273Q280 238 292 237ZM441 -21Q458
-21 474 -19Q522 38 522 117Q522 179 492 233T406 317L334 236Q401 233 439 224Q444 222 444 221Q442 219 439 219Q434 219 422 220T398 221T380 222H350Q335 222 320 221L258 144Q222 99 174 41L208 31Q229 63 265 83Q297 100 345 100Q390 100 399 78Q401 74 397
73Q393 71 392 75Q384 92 345 92Q297 92 269 76Q235 58 215 29Q315 -3 323 -4Q389 -21 441 -21ZM52 -10Q92 -10 124 25Q82 36 52 36Q5 36 5 17Q5 7 19 -1T52 -10ZM290 -103Q303 -103 319 -101Q388 -91 437 -54Q412 -55 383 -52T320 -39L277 -25Q263 -21 244 -14T202
1Q197 -14 197 -26Q197 -59 221 -81T290 -103Z" />
<glyph unicode="[" glyph-name="bracketleft" horiz-adv-x="585" d="M156 -17Q48 -17 48 19Q48 138 177 386Q307 633 405 701Q431 718 472 718Q573 718 573 697V694V690Q572 687 572 684Q568 683 558 683Q546 683 522 685T486 687Q442 687 431 680Q410 667 370
620Q291 525 196 351Q87 151 87 60Q87 4 164 4Q169 4 185 5T218 8T239 9Q268 9 268 -3Q268 -17 156 -17Z" />
<glyph unicode="\" glyph-name="backslash" horiz-adv-x="551" d="M497 -116V-96Q497 63 317 332Q249 432 173 526T10 709Q11 715 24 715Q47 715 72 695Q97 674 164 590Q227 510 282 430T387 267Q523 37 523 -84Q523 -116 497 -116Z" />
<glyph unicode="]" glyph-name="bracketright" horiz-adv-x="556" d="M93 -17Q48 -17 32 -15Q55 5 71 8H116Q213 8 259 63Q337 156 416 339Q499 534 499 643Q499 664 495 680Q481 689 455 689Q436 689 406 687Q367 686 356 684Q388 716 465 716Q507 716 513 714Q538
708 538 679Q538 533 454 334Q372 137 268 27Q226 -17 93 -17Z" />
<glyph unicode="^" glyph-name="asciicircum" horiz-adv-x="323" d="M260 244Q253 244 250 249L213 307L105 249Q101 245 91 245Q83 243 83 247L84 249L206 335Q214 336 219 336T229 337Q237 337 237 335L267 249Q268 246 265 244H260Z" />
<glyph unicode="_" glyph-name="underscore" horiz-adv-x="305" d="M315 -14L1 -12L0 0L2 2H313L315 0L316 -12L315 -14Z" />
<glyph unicode="`" glyph-name="grave" horiz-adv-x="245" d="M177 359Q173 359 171 360Q144 374 121 388T79 415Q73 421 73 432Q73 445 82 445Q87 445 97 437Q123 419 181 373Q185 370 185 366Q185 359 177 359Z" />
<glyph unicode="a" glyph-name="a" horiz-adv-x="269" d="M55 -4Q23 1 23 41Q23 102 79 176Q137 254 199 254Q220 254 237 245T255 215Q255 192 236 189Q242 199 242 209Q242 231 217 231Q193 231 165 207Q96 148 64 70Q54 46 54 30Q54 17 63 17Q73 17 98 40Q115
56 172 137Q187 158 196 158Q204 158 204 116V60Q213 16 235 16Q247 16 264 24T299 52L317 71Q320 72 324 67Q320 56 289 30Q250 -3 217 -3Q208 -3 199 0Q173 9 165 56Q163 69 162 78T160 93Q160 96 160 98Q154 86 125 48Q82 -8 55 -4Z" />
<glyph unicode="b" glyph-name="b" horiz-adv-x="259" d="M73 -7Q17 -7 17 36Q17 54 32 69Q41 0 87 4Q115 9 142 37T186 99Q211 150 211 196Q211 226 199 220Q153 198 120 145Q88 95 86 43Q84 35 81 35Q77 35 65 47Q54 59 52 59Q52 109 74 196Q99 306 140 383Q187
472 238 503Q244 507 265 511Q287 517 292 515Q326 508 338 480Q339 475 338 474Q336 472 333 474Q330 474 328 476Q306 495 273 494Q225 494 158 332Q97 190 92 124Q108 150 149 195Q167 215 179 227T198 245Q209 253 224 253Q253 253 253 216Q253 139 210 74Q187
40 148 17T73 -7Z" />
<glyph unicode="c" glyph-name="c" horiz-adv-x="199" d="M63 -17Q13 -17 13 49Q13 70 19 96Q31 143 63 192Q104 254 142 254Q161 254 178 239Q190 228 190 211Q190 207 189 205Q188 204 188 204T187 203Q184 203 180 210Q174 222 158 222Q130 222 97 169Q72 132
58 89Q48 65 48 41Q48 1 79 1Q132 1 201 78Q206 83 208 79V78Q208 74 202 66Q180 38 140 12Q94 -17 63 -17Z" />
<glyph unicode="d" glyph-name="d" horiz-adv-x="306" d="M228 -5Q219 -5 212 -2Q195 6 195 50Q195 87 205 136Q203 130 146 65Q82 -8 55 -4Q23 2 23 42Q23 103 78 176Q138 254 199 254Q218 254 238 245Q244 258 278 351Q311 449 340 449Q352 449 349 424Q335
398 315 348T258 226L256 222Q261 210 261 206Q261 199 256 199Q253 199 248 202Q228 145 228 80Q228 33 242 25Q248 23 254 23Q274 23 314 52Q349 78 350 77Q357 64 309 29Q263 -5 228 -5ZM63 17Q73 17 98 40Q116 57 138 85T186 152Q235 224 231 228Q225 234 216
234Q186 234 133 175Q85 121 64 70Q54 46 54 30Q54 17 63 17Z" />
<glyph unicode="e" glyph-name="e" horiz-adv-x="225" d="M87 -12Q57 -12 37 6T17 70Q17 82 19 96Q28 147 61 193Q102 249 146 249Q169 249 189 237T209 200Q209 173 187 144H207Q212 144 213 143Q213 137 176 130Q154 105 143 105Q141 105 141 107Q141 106 156
127Q143 127 122 126T70 120Q59 90 59 64Q59 31 77 16Q88 6 104 6Q107 6 110 6T116 7Q180 18 240 81Q245 88 248 83Q249 82 249 80Q249 76 243 70Q222 43 177 17Q127 -12 87 -12ZM80 141Q94 142 116 142L166 143Q177 165 180 178Q183 191 183 199Q183 220 167 220Q147
220 123 196Q109 182 98 169T80 141Z" />
<glyph unicode="f" glyph-name="f" horiz-adv-x="151" d="M85 -210Q64 -210 45 -195Q22 -175 19 -146Q18 -139 18 -132V-118Q18 -50 42 61Q51 106 60 142T80 207Q77 206 71 206Q58 206 51 212T44 224Q44 229 49 229Q57 229 69 231T86 233Q131 350 158 398Q221
511 286 511Q297 511 308 508Q332 500 332 476Q332 458 318 452Q320 460 320 465Q320 490 294 488Q249 487 187 382Q164 344 147 307T117 234H205Q213 234 213 231Q213 227 195 223Q147 211 110 211Q82 141 65 17Q55 -63 55 -101Q55 -170 78 -193Q83 -197 91 -201Q98
-206 98 -207Q98 -210 85 -210Z" />
<glyph unicode="g" glyph-name="g" horiz-adv-x="258" d="M-87 -400Q-160 -400 -204 -356Q-235 -325 -235 -287Q-235 -243 -196 -201Q-145 -145 -27 -78L171 34Q169 50 165 66T154 102Q155 97 118 48Q74 -8 47 -4Q15 1 15 41Q15 102 71 176Q131 254 192 254Q212
254 229 245T247 215Q247 192 228 189Q234 199 234 209Q234 231 209 231Q185 231 157 207Q89 149 57 70Q46 43 46 30Q46 17 55 17Q65 17 90 40Q107 56 164 137Q179 158 188 158Q196 158 196 140Q196 127 196 115T195 92Q195 70 197 50Q210 58 225 70T258 98Q268
107 272 107Q274 107 274 105Q274 98 260 84Q250 73 235 60T198 29Q202 -3 202 -34Q202 -205 105 -309Q21 -400 -87 -400ZM-111 -372Q-57 -372 -6 -350Q60 -325 107 -274Q181 -194 181 -67Q181 -47 180 -27T174 16Q-104 -148 -176 -226Q-214 -267 -214 -303Q-214
-324 -197 -343Q-168 -372 -111 -372Z" />
<glyph unicode="h" glyph-name="h" horiz-adv-x="242" d="M17 -3Q14 -3 14 0Q12 28 26 108Q33 148 39 175T51 217Q20 210 18 192Q16 180 11 180Q5 180 7 192Q8 220 58 235Q71 278 89 319T131 399Q185 487 245 533T369 580Q450 580 477 512Q484 495 484 475Q484
417 427 374Q342 308 86 227Q72 189 52 67L135 177Q137 189 149 203T170 218Q177 218 177 207Q177 205 177 202T176 196Q164 115 164 88Q164 24 187 24Q213 24 258 77L279 103Q282 106 284 97Q276 79 243 45Q198 -2 166 -2Q155 -2 148 2Q124 14 124 83Q124 101
125 117T129 147Q105 119 50 50Q48 27 37 12T17 -3ZM90 244Q160 264 261 311Q371 362 422 401Q472 440 472 481Q472 492 468 501Q448 551 372 551Q351 551 335 547Q229 528 167 425Q156 408 137 363Q118 317 90 244Z" />
<glyph unicode="i" glyph-name="i" horiz-adv-x="142" d="M105 265Q97 265 89 268T80 275Q80 277 81 278Q116 307 139 307Q145 307 145 303Q145 297 132 283Q119 269 111 266Q110 266 109 266T105 265ZM58 1Q26 1 26 57V69Q26 75 27 82Q29 95 33 114T44 159L60
216Q61 223 80 223Q103 223 103 212Q103 199 96 184Q88 163 78 162Q73 160 63 76Q61 62 61 54Q61 23 77 23Q89 23 109 40L170 91Q174 94 176 92Q179 91 177 86Q160 60 114 26Q80 1 58 1Z" />
<glyph unicode="j" glyph-name="j" horiz-adv-x="138" d="M123 265Q115 265 107 268T98 275Q98 277 99 278Q134 307 157 307Q164 307 164 303Q164 297 151 283Q138 269 129 266Q128 266 127 266T123 265ZM-91 -191Q-108 -191 -124 -185Q-140 -179 -136 -151Q-135
-141 -131 -141Q-129 -139 -125 -149T-113 -169T-93 -180Q-44 -180 -2 -91Q26 -27 52 86Q60 121 67 157L81 227Q82 231 91 231Q101 231 112 227Q122 223 120 220L117 202Q115 193 113 184Q105 157 92 154L78 82Q71 46 63 10Q43 -80 15 -125Q-26 -191 -91 -191Z"
/>
<glyph unicode="k" glyph-name="k" horiz-adv-x="207" d="M33 -3Q29 -3 17 9L3 22Q3 53 20 141Q30 189 40 233T63 317Q106 459 189 503Q211 515 233 515Q265 515 285 486L289 480Q290 475 289 474Q287 472 284 474Q281 474 279 476Q257 495 224 494Q160 493 103
338Q57 210 41 71Q46 90 54 108T72 144Q66 159 66 169Q66 181 71 181Q76 181 82 164V163Q96 186 110 205T141 240Q188 286 242 286Q270 286 279 270Q282 265 278 264Q274 261 271 266Q268 271 259 271Q226 271 169 220Q125 181 94 139Q117 97 162 56Q208 13 244
5Q246 5 246 4Q246 -3 208 -3Q194 -3 187 0L171 7Q165 9 163 10Q150 17 135 37Q105 75 82 122Q46 70 37 10V6Q37 -3 33 -3Z" />
<glyph unicode="l" glyph-name="l" horiz-adv-x="166" d="M78 -5Q28 -5 28 65Q28 94 37 138H34Q27 138 27 143Q27 151 45 171Q104 420 203 503Q225 521 249 521Q282 521 282 487Q282 413 211 319Q171 269 83 181Q60 103 60 57Q60 13 90 13Q113 13 145 31Q177 49
195 72Q202 81 206 81Q208 81 208 77Q208 66 202 59Q184 38 147 18Q104 -5 78 -5ZM86 203Q140 253 195 329Q265 426 267 479V482Q267 506 253 506Q236 506 214 478Q200 461 182 430T142 350Q122 306 108 270T86 203Z" />
<glyph unicode="m" glyph-name="m" horiz-adv-x="402" d="M18 -16Q10 -16 12 -7Q43 120 43 176V190Q43 196 42 201Q42 214 56 225T83 236Q94 236 94 228Q94 224 93 221Q85 203 75 128Q70 93 67 75Q63 56 62 54Q98 87 160 188Q181 222 196 222Q213 222 213 176Q213
119 205 73Q235 106 299 188Q303 202 315 216T336 231Q343 231 343 219Q343 212 342 207Q332 150 327 117Q322 84 322 74Q322 24 357 24Q376 24 399 40Q420 54 446 81Q453 88 459 95T471 109Q472 110 473 110Q477 110 478 103Q471 86 429 47Q374 -3 336 -3Q324
-3 316 1Q282 16 282 73Q282 104 292 157Q238 103 204 55Q203 31 182 12Q162 -6 151 -6Q147 -6 149 -4Q154 9 158 32T168 90Q178 158 178 187L110 99Q61 34 55 15Q45 -16 18 -16Z" />
<glyph unicode="n" glyph-name="n" horiz-adv-x="253" d="M207 -26Q155 -26 155 41Q155 77 170 131L186 188L116 108Q91 79 77 60T60 33Q48 1 23 1Q14 1 17 10L33 72Q41 101 44 125T47 169Q47 177 46 183T45 195Q45 208 58 219T84 230Q99 230 96 213Q93 196 90
179T83 144L67 71Q127 126 194 231Q198 238 213 238Q237 238 238 228Q240 219 230 192Q215 148 209 123Q194 60 194 23Q194 -13 210 -13Q228 -13 251 7Q272 25 271 25Q274 25 272 17Q271 9 262 0Q236 -26 207 -26Z" />
<glyph unicode="o" glyph-name="o" horiz-adv-x="235" d="M85 -12Q60 -12 44 11T28 70Q28 99 38 129Q75 241 129 246Q135 253 146 253Q166 253 185 235T207 197Q220 181 245 181Q253 181 269 183Q285 185 293 185Q297 185 295 180Q294 176 285 171Q267 162 240
160H228Q211 160 203 164Q208 126 167 55Q130 -12 85 -12ZM91 8Q117 8 147 55Q155 68 162 84T175 120Q185 154 183 169Q146 175 140 212Q113 204 88 143Q65 86 65 51Q65 8 91 8Z" />
<glyph unicode="p" glyph-name="p" horiz-adv-x="226" d="M23 -247Q20 -247 17 -247T8 -245Q-13 -242 -25 -219T-38 -165Q-38 -152 -36 -140Q-13 -35 81 228Q68 235 69 238Q74 256 92 261Q103 286 108 317V318Q108 328 96 344L93 347Q93 354 106 350Q126 344 136
334T144 315L135 283Q130 267 125 251Q185 213 196 141Q196 136 200 136Q206 136 223 147Q251 166 248 166Q253 166 249 159Q246 153 239 149L197 123Q192 17 117 -2Q113 -3 109 -3T101 -4Q79 -4 79 19Q79 44 103 73L119 87Q133 99 162 123Q162 145 146 178Q129
213 112 220Q109 222 59 68Q6 -94 -1 -149Q-7 -193 -7 -197Q-7 -233 19 -238Q29 -239 29 -244Q29 -247 23 -247ZM113 17Q141 17 156 60Q163 80 163 97Q163 100 163 103T162 109Q123 74 109 52Q101 38 101 29Q101 17 113 17Z" />
<glyph unicode="q" glyph-name="q" horiz-adv-x="232" d="M185 -223Q142 -219 119 -180Q101 -151 101 -114Q101 -24 149 97Q143 86 114 48Q71 -8 44 -4Q12 1 12 41Q12 102 68 176Q126 254 188 254Q208 254 226 245T244 215Q244 192 225 189Q231 199 231 209Q231
231 206 231Q182 231 154 207Q85 148 53 70Q43 46 43 30Q43 17 52 17Q62 17 87 40Q104 56 161 137Q175 157 186 157Q198 157 196 134Q131 -40 131 -128Q131 -187 160 -204Q168 -209 177 -209Q198 -209 207 -193Q210 -189 213 -187Q216 -186 216 -188V-189Q216 -190
216 -192T214 -198Q204 -225 185 -223Z" />
<glyph unicode="r" glyph-name="r" horiz-adv-x="165" d="M24 -2Q14 -2 15 8Q18 21 22 47T31 116Q33 135 35 150T38 179L41 216Q42 227 54 235T80 243Q98 243 93 228L79 176Q74 162 70 147T61 116Q86 159 121 197Q160 237 179 237Q203 237 213 210Q224 184 214
184Q212 184 207 192Q198 210 182 210Q142 210 83 121Q50 71 33 6Q31 -2 24 -2Z" />
<glyph unicode="s" glyph-name="s" horiz-adv-x="198" d="M17 -27Q-21 -27 -21 -11Q-21 8 11 10Q53 12 115 20Q123 33 123 43Q123 59 100 79Q45 127 45 171Q45 186 52 199Q86 257 136 257Q157 257 172 246T187 222Q187 218 186 215T182 211Q180 211 177 217Q175
234 158 234Q133 234 106 207Q80 179 80 154Q80 132 109 97Q138 63 138 46Q138 38 133 26Q146 32 165 43T212 70Q215 68 189 45L125 7Q117 -7 83 -17Q52 -27 17 -27Z" />
<glyph unicode="t" glyph-name="t" horiz-adv-x="167" d="M75 -5Q62 -5 53 -3T39 3Q27 12 27 37Q27 45 28 55T32 78Q36 102 58 164Q63 177 66 187T72 204L77 217Q55 217 3 208H2Q-2 208 -2 218Q-2 230 7 233Q14 236 84 241Q92 267 103 301T130 378Q131 384 138
384Q146 384 156 371T166 345Q166 341 165 339L116 241Q129 242 139 242T160 242Q217 242 218 233Q218 229 170 225Q157 224 147 224T129 221L110 218Q99 218 79 135Q61 61 61 47Q61 17 83 17Q100 17 150 44Q156 48 165 54T187 71Q207 88 212 88Q214 88 215 84Q215
70 163 34Q109 -5 75 -5Z" />
<glyph unicode="u" glyph-name="u" horiz-adv-x="281" d="M61 -4Q23 1 23 49Q23 123 96 232Q101 240 121 240Q152 240 152 230L151 228Q139 216 126 197T98 152Q74 109 61 71Q54 53 54 38Q54 18 67 18Q82 18 104 40Q112 48 184 151Q199 171 208 171Q215 171 215
154Q215 145 215 137T214 120Q214 17 255 17Q282 17 316 52L334 71Q337 73 340 67Q336 56 305 30Q266 -3 234 -3Q225 -3 216 0Q189 9 179 63Q172 103 173 113Q167 102 134 55Q87 -8 61 -4Z" />
<glyph unicode="v" glyph-name="v" horiz-adv-x="237" d="M53 -2Q19 -2 19 31Q19 57 38 114Q54 168 53 178Q48 198 39 201Q30 204 51 234Q54 239 68 239Q101 239 101 228Q101 211 82 136Q63 63 63 39Q63 21 75 21Q103 21 154 82Q211 151 215 191Q193 214 193 243Q193
270 210 270Q233 270 233 226Q233 206 231 196Q245 188 257 188Q271 188 280 197Q286 195 286 191Q286 180 273 176Q264 173 255 173Q240 173 228 182Q228 168 211 134Q201 115 190 99T165 69Q100 -2 53 -2Z" />
<glyph unicode="w" glyph-name="w" horiz-adv-x="407" d="M56 -16Q48 -16 40 -14Q19 -7 19 25Q19 60 45 126Q64 177 83 203Q96 224 122 224Q137 224 137 216Q137 213 134 209Q107 179 83 117Q60 54 60 23Q60 5 71 5Q89 5 122 45Q154 84 183 150Q185 153 185 156T185
164Q185 168 185 171T184 179Q186 199 216 199Q236 199 235 186Q226 97 226 74Q226 27 238 11Q245 1 258 1Q276 -1 295 20T326 73T339 136Q339 149 336 159Q314 190 314 202Q314 208 317 216T341 224Q358 224 363 212Q372 189 421 189Q438 189 459 192L461 188Q454
183 438 178T409 172Q405 171 400 171T390 173L363 176Q367 157 367 138Q367 110 352 70Q340 34 312 10T255 -14Q197 -14 190 80Q187 112 189 131Q121 -16 56 -16Z" />
<glyph unicode="x" glyph-name="x" horiz-adv-x="212" d="M8 -21Q-2 -20 -2 -6Q-1 21 40 59L106 109Q104 123 102 134T98 156Q89 202 80 207H78Q72 207 65 201Q57 193 54 193Q49 193 49 198Q49 209 74 222Q96 235 107 235Q115 235 117 230Q122 220 127 197Q132
174 137 136Q147 142 185 175Q228 212 242 235Q246 242 251 249L261 262H263Q266 262 266 254Q266 236 235 205L182 158Q141 122 140 122Q158 7 196 7Q208 7 219 14Q233 22 251 41L259 51Q263 55 267 60Q270 61 274 56Q270 44 243 19Q208 -14 175 -14Q166 -14 157
-11Q115 2 109 96L67 60Q20 16 11 -18Q11 -20 8 -21Z" />
<glyph unicode="y" glyph-name="y" horiz-adv-x="242" d="M-153 -353Q-240 -353 -264 -279Q-270 -263 -270 -247Q-270 -187 -208 -143Q-120 -83 141 -15Q151 6 163 73L181 166Q140 91 94 38Q90 27 79 13T58 -2Q51 -2 51 9Q51 16 52 21Q66 91 66 122Q66 167 45
167Q37 167 23 159Q18 156 16 156Q12 156 12 159Q12 166 21 171Q46 190 67 190Q76 190 83 186Q102 176 102 127Q102 92 95 65Q111 85 133 114T184 183Q188 216 211 216Q225 216 225 208Q225 180 207 101Q189 19 176 -7Q207 0 210 17Q212 28 218 28Q222 28 222 20Q222
-10 168 -25Q138 -109 87 -184Q29 -269 -32 -311T-153 -353ZM-151 -324Q-38 -324 36 -226Q69 -183 136 -31Q67 -47 -39 -90Q-150 -135 -202 -171Q-258 -209 -258 -251Q-258 -260 -255 -269Q-237 -324 -151 -324Z" />
<glyph unicode="z" glyph-name="z" horiz-adv-x="216" d="M193 -37Q189 -37 189 -34Q189 -30 198 -20T208 -5Q206 6 163 6Q112 6 80 4Q46 1 37 0T22 -2H15Q10 2 8 10V13Q8 17 10 21Q21 43 97 119L198 220Q160 223 150 223Q126 223 109 217T79 201L51 178Q48 178
48 183Q61 216 82 234Q93 236 106 238T133 240H157Q163 240 171 240T187 239L220 238H239Q258 238 255 227Q250 211 235 197T206 181Q76 72 49 21Q100 28 135 31T190 34Q231 34 231 13Q231 -2 215 -19Q200 -37 193 -37Z" />
<glyph unicode="{" glyph-name="braceleft" horiz-adv-x="369" d="M232 -134Q168 -134 140 -119Q98 -97 98 -39Q98 1 118 83Q138 165 138 205Q138 299 21 301L26 309Q111 318 143 346Q185 383 202 490Q220 611 243 650Q289 726 417 726Q421 726 423 724L415 721Q332
721 295 678Q267 647 252 574L227 448Q210 392 168 350Q121 303 66 305H62Q108 301 138 273T169 199Q169 178 165 148T150 77Q140 37 136 7T131 -44Q131 -91 158 -110Q176 -124 210 -125Q241 -126 244 -131Q242 -134 232 -134Z" />
<glyph unicode="|" glyph-name="bar" horiz-adv-x="250" d="M59 -117Q58 -117 58 -116Q58 -111 69 -66Q80 -22 98 68Q117 178 126 286T135 503Q135 591 129 638L127 650Q125 658 121 671Q116 693 116 704Q116 715 135 715Q181 715 181 617V601L180 592V586Q180
498 148 230Q112 -62 87 -97Q73 -117 59 -117Z" />
<glyph unicode="}" glyph-name="braceright" horiz-adv-x="485" d="M31 -131Q27 -131 25 -129Q29 -128 76 -123Q121 -118 146 -99Q184 -70 220 55Q257 185 300 226Q365 287 441 294Q396 297 366 318Q330 342 330 384Q330 429 359 516Q388 603 388 648Q388 694
356 705Q339 707 321 710T286 716L284 718L288 720Q289 721 291 722Q351 722 378 713Q424 697 424 648Q424 601 392 511Q361 424 361 376Q361 307 471 296L464 287Q338 286 293 177L230 -24Q177 -131 31 -131Z" />
<glyph unicode="~" glyph-name="asciitilde" horiz-adv-x="220" d="M199 235Q183 235 159 253Q135 271 119 271Q105 271 95 262Q83 252 78 249Q68 249 68 253Q68 260 91 275Q112 290 127 295Q130 296 137 296Q151 296 177 276Q203 256 218 259H219Q224 259 237
269Q250 279 255 279Q259 279 259 273Q255 259 235 247T199 235ZM179 -23Q132 -23 138 31Q139 44 145 63T163 110L187 164L177 162Q167 154 149 136L129 115L83 75Q53 48 50 36Q43 8 19 8Q11 8 13 17Q13 19 38 78Q60 129 60 151Q60 158 73 168T94 178Q100 178 99
169Q95 149 76 107Q59 69 55 62Q87 91 107 110T137 140Q161 162 199 202Q203 208 213 208Q232 208 233 198Q235 193 216 164Q195 130 185 101Q168 53 168 19Q168 -11 183 -11Q198 -11 218 6Q237 22 235 22Q236 22 236 19Q236 8 228 0Q205 -23 179 -23Z" />
<glyph unicode="&#xa0;" glyph-name="uni00A0" horiz-adv-x="184" />
<glyph unicode="&#xa1;" glyph-name="exclamdown" horiz-adv-x="279" d="M146 151Q158 151 158 138Q158 135 156 129Q121 38 68 -66T-58 -290Q-60 -292 -63 -292Q-75 -292 -86 -282Q-110 -267 -104 -259Q91 42 125 133Q133 151 146 151ZM192 274Q224 274 224 245Q224
214 192 214Q160 214 160 245Q160 274 192 274Z" />
<glyph unicode="&#xa2;" glyph-name="cent" horiz-adv-x="292" d="M75 -236Q73 -236 67 -234Q34 -223 34 -180Q34 -136 67 -57L110 40Q31 47 31 131Q31 209 85 285Q144 369 218 369H223L257 454Q277 502 296 535Q307 550 310 550Q313 550 313 540Q313 532 308
524Q306 519 300 505T284 465L247 364Q295 348 295 297Q295 238 245 238Q201 238 201 278Q201 323 242 323Q270 323 276 307Q280 347 243 347Q195 347 138 268Q84 195 84 124Q84 56 135 56Q206 56 287 218Q291 228 298 228Q302 228 302 223Q302 222 302 219T300
212Q229 45 130 40L89 -57Q54 -145 54 -186Q54 -215 72 -220Q82 -221 82 -228Q82 -236 75 -236Z" />
<glyph unicode="&#xa3;" glyph-name="sterling" horiz-adv-x="382" d="M470 486Q477 450 457 398Q450 377 440 360T418 329Q413 324 410 324Q407 324 406 328Q406 331 409 335Q472 425 460 487Q454 517 429 517Q397 517 365 476Q353 460 344 441T327 398Q323 383
319 363T310 318L297 236Q317 233 330 233Q340 233 349 236L361 241Q365 241 366 229Q368 223 366 221Q352 214 334 214Q325 214 315 215T293 218Q265 74 193 8Q216 -11 267 -37Q292 -50 311 -58T343 -70Q360 -76 378 -76Q411 -76 429 -59Q454 -40 446 1Q446 6
448 6Q451 6 452 -1L453 -3Q462 -84 375 -84Q360 -84 344 -82T308 -73Q296 -69 277 -62T232 -44Q180 -21 159 -8Q134 -26 106 -26Q81 -26 52 -11Q19 9 13 40Q7 66 22 81Q34 94 55 94Q82 94 116 72Q125 65 140 54T174 25Q185 41 195 65T214 120Q216 127 222 154T240
227Q233 228 228 228T216 229Q186 229 169 219Q167 218 166 217T165 216Q162 216 159 228Q158 233 160 235Q176 248 213 248Q226 248 244 245Q313 537 411 537Q431 537 447 525Q465 511 470 486ZM148 0Q134 11 120 22T90 43Q51 72 33 72Q12 72 17 46Q22 22 46 2Q66
-14 88 -17Q91 -18 94 -18T100 -18Q129 -18 148 0Z" />
<glyph unicode="&#xa4;" glyph-name="currency" horiz-adv-x="288" d="M57 51Q40 51 40 64Q40 69 46 75L85 115Q76 130 76 148Q76 168 93 188Q86 203 80 217T66 249L64 256Q64 263 71 263Q83 263 89 249L111 204Q126 214 140 214Q158 214 172 203L224 255Q228
259 232 259Q238 259 238 251Q238 243 228 231L188 186Q196 172 196 155Q196 134 180 115L197 75Q198 74 198 71Q198 51 182 51Q174 51 158 88L155 95Q142 89 130 89Q116 89 103 97L66 54Q62 51 57 51ZM135 110Q176 110 176 153Q176 195 135 195Q96 195 96 153Q96
110 135 110Z" />
<glyph unicode="&#xa5;" glyph-name="yen" horiz-adv-x="481" d="M485 365Q485 353 480 353Q475 353 475 357Q475 358 475 359T476 361Q476 363 476 363T477 365Q477 379 466 390Q456 401 441 401Q392 401 289 219H359Q360 219 360 217Q360 213 356 209Q352 205
348 205H281Q276 194 267 179T246 142H313Q315 142 315 140Q315 137 311 132Q306 127 303 127H237Q215 93 195 68T157 26Q102 -29 46 -29Q33 -29 33 -25Q33 -21 43 -21Q83 -21 135 36Q148 51 165 73T203 127H51Q49 127 49 129Q49 132 54 137Q59 142 61 142H213L216
147Q216 161 215 176T211 205H117Q115 205 115 206Q115 209 120 214Q124 219 127 219H209Q202 268 180 310Q150 367 112 367Q88 367 71 341Q56 319 56 293Q56 277 65 259Q73 238 73 242Q73 237 69 237Q67 237 65 239Q48 264 48 293Q48 324 65 348Q83 376 112 376Q152
376 185 337Q212 305 225 263Q237 226 240 185L253 205Q253 207 255 209T260 217Q265 225 272 236T288 262Q382 410 441 410Q460 410 472 397Q485 384 485 365Z" />
<glyph unicode="&#xa6;" glyph-name="brokenbar" horiz-adv-x="448" d="M308 297L264 302L347 692H395L308 297ZM155 -213L244 203L287 199L203 -213H155Z" />
<glyph unicode="&#xa7;" glyph-name="section" horiz-adv-x="609" d="M250 -109Q245 -108 235 -104Q185 -87 164 -51Q-6 -25 -6 126Q-6 200 37 264Q81 329 148 356Q192 375 243 375Q315 375 358 338Q409 392 440 440V452Q440 523 455 555Q447 589 447 608Q447
653 480 653Q511 653 511 610Q511 576 484 512L504 481Q519 456 548 413Q606 330 606 244Q606 156 560 89Q508 13 424 13Q405 13 389 17Q300 -54 199 -54Q188 -54 176 -52Q194 -82 234 -96Q241 -99 245 -99Q248 -99 255 -96Q262 -93 266 -93Q271 -93 271 -99Q271
-109 250 -109ZM479 521Q501 575 501 613Q501 640 484 640Q456 640 456 605Q456 572 479 521ZM458 474Q462 482 465 489T472 504Q464 523 460 540Q454 528 454 511Q454 493 458 474ZM400 26Q456 28 501 96Q540 156 545 218Q546 226 546 233V248Q546 319 526 377L513
408Q501 437 476 494Q470 475 461 459L488 344Q503 279 503 228Q503 114 400 26ZM358 42Q445 130 445 279Q445 311 443 351L440 424Q410 379 364 332Q395 301 395 251Q395 152 303 114Q312 67 358 42ZM158 -37Q151 -19 151 8Q151 57 177 126Q155 147 155 177Q155
188 161 205T176 223L179 221L171 205Q168 198 166 190T163 175Q163 151 181 133Q223 226 342 324Q301 362 239 362Q150 362 81 286Q12 211 12 121Q12 59 54 13Q95 -32 158 -37ZM240 109Q267 109 293 123Q291 131 291 139Q291 171 311 194Q312 195 314 195Q318
195 318 191L308 176Q300 162 300 139Q300 131 301 127Q376 173 376 248Q376 285 349 317Q236 221 189 126Q212 109 240 109ZM169 -37Q277 -37 353 36Q306 64 295 111Q269 102 245 102Q209 102 187 118Q160 59 160 12Q160 -16 169 -37Z" />
<glyph unicode="&#xa8;" glyph-name="dieresis" horiz-adv-x="206" d="M149 318Q123 318 123 342Q123 367 147 367Q172 367 172 342Q172 318 149 318ZM53 318Q28 318 28 342Q28 367 52 367Q77 367 77 342Q77 318 53 318Z" />
<glyph unicode="&#xa9;" glyph-name="copyright" horiz-adv-x="511" d="M228 -9Q126 -9 59 57Q-8 124 -8 224Q-8 342 79 428Q167 514 283 514Q384 514 451 447Q519 381 519 281Q519 162 432 77Q344 -9 228 -9ZM229 6Q340 6 421 87Q503 169 503 280Q503 374 439
437Q376 500 282 500Q171 500 89 419Q7 338 7 227Q7 132 70 69Q134 6 229 6ZM201 65Q144 65 113 96T81 185Q81 272 155 343Q126 367 126 396Q126 447 187 447Q229 447 247 428Q248 427 248 425Q248 423 247 423Q215 440 195 440Q137 440 137 392Q137 369 160 348Q230
414 337 414Q437 414 437 360Q437 328 383 310Q345 297 305 297Q229 297 177 328Q115 260 115 179Q115 135 136 105Q159 70 201 70Q282 70 333 148Q351 173 351 196Q351 239 307 239Q265 239 249 200Q248 196 246 196Q243 196 243 199L244 202Q254 245 309 245Q363
245 363 193Q363 140 307 101Q256 65 201 65ZM292 305Q331 305 370 316Q425 332 425 364Q425 407 342 407Q252 407 182 332Q230 305 292 305Z" />
<glyph unicode="&#xaa;" glyph-name="ordfeminine" horiz-adv-x="345" d="M48 390Q31 390 31 412Q31 432 44 451Q74 496 112 513Q130 521 141 521Q167 521 167 505Q167 502 161 500L156 498Q138 466 138 439Q138 403 166 403Q195 403 237 449Q244 456 246 452Q247
448 244 443Q192 391 156 391Q119 391 115 445Q78 390 48 390ZM64 412Q71 412 85 423Q108 442 116 464Q120 487 128 504Q92 505 63 451Q54 434 54 425Q54 412 64 412Z" />
<glyph unicode="&#xab;" glyph-name="guillemotleft" horiz-adv-x="416" d="M146 19L138 22Q133 34 129 52T119 93L103 165Q296 284 300 283L307 281V274Q302 265 285 250Q267 234 236 212L158 157L157 31L152 22L146 19ZM280 19L272 22Q268 30 263 47T253 91L237
165Q430 284 434 283L440 281V274Q435 264 417 249Q399 234 370 212L292 157L291 31L286 22L280 19Z" />
<glyph unicode="&#xac;" glyph-name="logicalnot" horiz-adv-x="746" d="M546 13Q523 13 528 33L566 211H84Q66 211 66 223Q66 232 75 244T93 256H618L571 33Q566 13 546 13Z" />
<glyph unicode="&#xad;" glyph-name="uni00AD" horiz-adv-x="253" d="M44 112Q21 112 21 120Q21 134 60 148Q78 154 110 154Q139 154 213 145Q243 142 243 134Q243 126 213 125L145 120Q104 116 49 112H44Z" />
<glyph unicode="&#xae;" glyph-name="registered" horiz-adv-x="511" d="M228 -9Q126 -9 59 57Q-8 124 -8 224Q-8 342 79 428Q167 514 283 514Q384 514 451 447Q519 381 519 281Q519 162 432 77Q344 -9 228 -9ZM229 6Q340 6 421 87Q503 169 503 280Q503 374 439
437Q376 500 282 500Q171 500 89 419Q7 338 7 227Q7 132 70 69Q134 6 229 6ZM84 92Q46 92 46 117Q46 144 70 144Q78 144 78 140Q78 137 76 137Q73 137 72 138H68Q54 138 54 121Q54 99 88 99Q145 99 192 165Q201 177 262 297Q304 376 355 414Q322 426 273 426Q145
426 97 345Q81 320 81 293Q81 228 143 228Q174 228 197 250T221 303Q221 352 176 352Q136 352 136 315Q136 302 151 302L154 305L156 303Q156 298 150 298Q131 298 131 315Q131 332 146 344T179 357Q232 357 232 305Q232 269 205 246T141 223Q108 223 86 243T64
295Q64 375 162 413Q210 432 278 432Q327 432 365 420Q399 441 431 441Q435 441 435 440L433 439Q394 436 371 417Q429 396 429 354Q429 313 389 288Q356 267 312 263Q318 247 321 214L327 160Q334 112 361 112Q385 112 412 144Q436 173 442 199H443L446 198L447
197Q437 166 410 136Q380 102 352 102Q305 102 301 180L296 261H285Q279 261 271 263Q243 193 215 159Q176 111 115 96Q102 92 84 92ZM309 270Q406 286 406 354Q406 392 363 411Q343 393 323 364T284 293Q302 285 309 270ZM274 269H295Q288 282 282 286L274 269Z"
/>
<glyph unicode="&#xaf;" glyph-name="overscore" horiz-adv-x="358" d="M193 303Q176 303 160 303T129 304Q126 306 126 309Q126 314 137 322H256Q261 322 261 319Q261 316 255 311T243 305Q231 304 219 304T193 303Z" />
<glyph unicode="&#xb0;" glyph-name="degree" horiz-adv-x="270" d="M134 328Q112 328 96 345T80 387Q80 403 90 418T115 443T144 453Q167 453 183 436T200 394Q200 369 179 349T134 328ZM139 349Q180 349 180 392Q180 434 139 434Q100 434 100 392Q100 349 139 349Z" />
<glyph unicode="&#xb1;" glyph-name="plusminus" horiz-adv-x="423" d="M254 92Q236 92 240 108L272 233L141 224Q131 224 131 243Q131 269 152 269H177Q190 269 206 268L257 267Q275 266 281 266L313 400Q317 419 332 419Q343 419 339 403Q334 386 328 352L311
266H378Q408 266 431 265Q447 265 447 252Q447 240 428 240Q414 240 384 239L306 235L284 108Q283 92 254 92ZM138 20Q122 19 122 47Q122 65 138 65Q161 65 232 62L322 59Q358 58 378 57Q397 57 397 42Q397 32 381 32Q240 32 138 20Z" />
<glyph unicode="&#xb2;" glyph-name="uni00B2" horiz-adv-x="330" d="M215 260Q211 260 211 266Q213 270 217 271Q231 279 231 286Q231 300 195 309Q168 315 149 315Q127 314 95 307T19 283Q10 279 1 279Q-9 279 -9 287Q-9 300 5 310T33 321Q81 338 153 385Q307
487 307 559Q307 590 271 590Q248 590 219 577Q138 543 118 484Q116 476 111 476Q108 476 110 485Q119 529 168 566Q218 604 264 604Q323 604 323 544Q323 479 228 419L163 379Q134 360 117 348L93 330Q237 330 237 289Q237 270 219 261Q218 260 215 260Z" />
<glyph unicode="&#xb3;" glyph-name="uni00B3" horiz-adv-x="330" d="M101 252Q47 252 35 281Q30 293 30 303Q30 335 67 342Q73 342 75 339Q75 337 67 332T51 319T42 302Q42 291 49 284Q61 268 96 268Q168 268 220 311Q251 336 251 358Q251 386 204 400Q188 404
172 406T140 408Q120 408 120 415Q120 423 166 427Q225 433 237 436Q331 460 331 516Q331 549 298 567Q272 583 235 583Q190 583 151 564Q102 542 97 503Q95 495 90 495Q83 495 85 504Q87 545 146 571Q194 592 243 592Q284 592 315 576Q355 557 355 521Q355 462
248 427L191 415Q276 416 276 359Q276 324 234 294Q175 252 101 252Z" />
<glyph unicode="&#xb4;" glyph-name="acute" horiz-adv-x="158" d="M35 244Q33 246 33 248V250L34 251L106 306Q118 315 130 315Q139 315 145 310T146 297Q142 289 91 266Q38 242 35 244Z" />
<glyph unicode="&#xb5;" glyph-name="uni00B5" horiz-adv-x="299" d="M-83 -243Q-103 -243 -115 -237Q-121 -235 -119 -233L59 117Q87 178 155 297H157Q162 293 172 293Q193 293 216 312L218 310Q205 297 173 239Q165 225 155 207T130 166Q76 74 76 30Q76 5 99
5Q152 5 242 166Q253 186 270 220T313 303H315Q326 296 338 296Q358 296 367 315L369 314L297 175Q234 50 234 20Q234 2 249 2Q283 2 325 62Q352 98 374 151H379L381 149Q310 -7 247 -7Q199 -7 199 46Q199 69 209 95Q146 -6 91 -6Q62 -6 48 20L-71 -240Q-73 -243
-83 -243Z" />
<glyph unicode="&#xb6;" glyph-name="paragraph" horiz-adv-x="372" d="M150 0L272 335Q171 335 171 413Q171 424 174 437T182 466Q215 556 305 591Q335 604 399 604H558L541 558H523L319 0H257L461 558H415L211 0H150Z" />
<glyph unicode="&#xb7;" glyph-name="middot" horiz-adv-x="467" d="M254 251Q227 251 209 269T191 314Q191 344 213 366T266 389Q292 389 310 371T329 326Q329 296 307 274T254 251Z" />
<glyph unicode="&#xb8;" glyph-name="cedilla" horiz-adv-x="350" d="M134 -227Q103 -227 80 -221T45 -200Q44 -198 42 -194T39 -187Q39 -182 48 -188Q57 -199 77 -205T120 -211Q160 -211 181 -192T202 -140Q202 -112 184 -100Q177 -95 169 -93T151 -91Q138 -91
127 -94T111 -99Q97 -105 93 -107T87 -110Q70 -110 70 -94Q70 -92 73 -89T90 -69L157 10Q162 10 166 4Q153 -13 138 -32T113 -66T102 -82Q111 -80 125 -76T147 -71Q151 -71 154 -71T162 -70Q209 -70 224 -92T240 -141Q240 -164 225 -184T185 -215T134 -227Z" />
<glyph unicode="&#xb9;" glyph-name="uni00B9" horiz-adv-x="202" d="M45 281Q36 281 36 288L38 295L97 419Q112 451 125 482T149 545Q127 534 100 507Q96 503 91 503Q89 503 89 505Q89 537 145 581Q192 616 202 616Q209 616 218 610T223 596Q206 573 186 541T143
466Q89 368 55 286Q53 281 45 281Z" />
<glyph unicode="&#xba;" glyph-name="ordmasculine" horiz-adv-x="252" d="M72 380Q42 380 42 417Q42 445 55 478Q54 482 54 486V494Q54 532 91 536Q101 548 110 548Q123 548 123 540Q123 538 121 536L118 535Q157 521 157 485Q157 454 141 428L140 427Q184 429
211 454Q212 457 215 457Q218 457 218 453Q218 451 213 446Q179 415 134 415Q105 380 72 380ZM126 427Q142 458 142 486Q142 525 112 527Q101 515 93 501T77 471Q85 433 126 427ZM82 393Q103 393 120 416Q86 420 68 445V444Q65 429 65 419Q65 393 82 393Z" />
<glyph unicode="&#xbb;" glyph-name="guillemotright" horiz-adv-x="416" d="M33 19L26 21L25 25Q25 37 99 91L175 146V271L180 280L187 283L196 280Q204 260 229 138L40 20L33 19ZM166 19L160 21V30Q174 50 230 90Q243 100 263 114L308 146Q310 163 308 187V244Q310
275 313 280L320 283L328 280Q331 277 363 138L174 20L166 19Z" />
<glyph unicode="&#xbc;" glyph-name="onequarter" horiz-adv-x="574" d="M136 301Q127 301 127 308L129 315Q149 357 177 418T241 565Q220 555 192 527Q188 523 183 523Q181 523 181 525Q181 557 237 601Q284 636 294 636Q301 636 309 630T315 616Q278 565 234
486Q181 391 147 306Q145 301 136 301ZM176 25Q172 25 168 29T162 39Q162 40 162 41T161 43Q161 78 190 136T275 273Q373 410 472 506L486 519Q491 524 493 525Q502 533 516 533Q529 533 529 530V529Q529 528 527 526Q407 413 329 319Q210 173 185 75Q180 56 178
26L176 25ZM365 -30Q355 -30 355 -17Q355 -3 383 57L421 138Q419 139 413 139Q337 139 268 116Q256 116 256 129Q256 136 277 151Q282 153 289 158L305 168Q342 193 373 215T431 257Q465 282 493 308T543 362Q560 362 560 329V317Q552 309 506 237Q462 166 462
159L468 157Q519 146 519 139Q519 131 511 131V133L509 131L489 135Q475 138 464 138H457Q454 137 448 137Q440 122 427 97T397 34L376 -10Q373 -17 370 -21L365 -30ZM431 162Q441 162 506 296Q477 274 434 241T334 163H381Q429 163 431 162Z" />
<glyph unicode="&#xbd;" glyph-name="onehalf" horiz-adv-x="574" d="M136 301Q127 301 127 308L129 315Q149 357 177 418T241 565Q220 555 192 527Q188 523 183 523Q181 523 181 525Q181 557 237 601Q284 636 294 636Q301 636 309 630T315 616Q278 565 234 486Q181
391 147 306Q145 301 136 301ZM176 25Q172 25 168 29T162 39Q162 40 162 41T161 43Q161 78 190 136T275 273Q373 410 472 506L486 519Q491 524 493 525Q502 533 516 533Q529 533 529 530V529Q529 528 527 526Q407 413 329 319Q210 173 185 75Q180 56 178 26L176
25ZM512 -24Q504 -27 504 -19Q504 -16 510 -14Q524 -6 524 1Q524 15 489 24Q467 30 450 30Q427 30 393 23T313 -2Q301 -6 295 -6Q283 -6 283 2Q283 14 298 25T326 36Q382 54 456 106Q532 159 568 204Q600 245 600 273Q600 305 564 305Q541 305 512 292Q431 258
411 199Q410 192 404 192Q402 192 403 199Q412 244 461 281Q511 319 558 319Q617 319 617 259Q617 195 522 135L495 118Q478 108 456 94Q402 60 386 44Q530 44 530 4Q530 -17 512 -24Z" />
<glyph unicode="&#xbe;" glyph-name="threequarters" horiz-adv-x="674" d="M101 252Q47 252 35 281Q30 293 30 303Q30 335 67 342Q73 342 75 339Q75 337 67 332T51 319T42 302Q42 291 49 284Q61 268 96 268Q168 268 220 311Q251 336 251 358Q251 386 204 400Q188
404 172 406T140 408Q120 408 120 415Q120 423 166 427Q225 433 237 436Q331 460 331 516Q331 549 298 567Q272 583 235 583Q190 583 151 564Q102 542 97 503Q95 495 90 495Q83 495 85 504Q87 545 146 571Q194 592 243 592Q284 592 315 576Q355 557 355 521Q355
462 248 427L191 415Q276 416 276 359Q276 324 234 294Q175 252 101 252ZM202 25Q198 25 194 29T188 39Q188 40 188 41T187 43Q187 78 216 136T301 273Q399 410 498 506L512 519Q517 524 519 525Q528 533 542 533Q555 533 555 530V529Q555 528 553 526Q433 413
355 319Q236 173 211 75Q206 56 204 26L202 25ZM417 -30Q407 -30 407 -17Q407 -3 435 57L473 138Q471 139 465 139Q389 139 320 116Q308 116 308 129Q308 136 329 151Q334 153 341 158L357 168Q394 193 425 215T483 257Q517 282 545 308T595 362Q612 362 612 329V317Q604
309 558 237Q514 166 514 159L520 157Q571 146 571 139Q571 131 563 131V133L561 131L541 135Q527 138 516 138H509Q506 137 500 137Q492 122 479 97T449 34L428 -10Q425 -17 422 -21L417 -30ZM483 162Q493 162 558 296Q529 274 486 241T386 163H433Q481 163 483
162Z" />
<glyph unicode="&#xbf;" glyph-name="questiondown" horiz-adv-x="400" d="M281 150Q304 150 304 120Q304 81 261 31Q237 1 168 -60Q137 -87 107 -116T56 -172T36 -222Q36 -253 68 -253Q146 -253 231 -198Q298 -155 320 -122Q325 -116 333 -116Q342 -116 342 -124Q342
-132 335 -142Q310 -179 239 -224Q151 -282 75 -282Q44 -282 20 -263T-5 -214Q-5 -170 39 -120Q54 -103 78 -83T135 -37Q149 -27 172 -8L229 39Q272 76 272 114V115Q272 124 264 124Q267 150 281 150ZM311 279Q343 279 343 250Q343 219 311 219Q279 219 279 250Q279
279 311 279Z" />
<glyph unicode="&#xc0;" glyph-name="Agrave" horiz-adv-x="769" d="M118 -57Q112 -57 107 -57T95 -56Q56 -52 31 -29T6 31Q6 76 40 111Q70 142 116 157Q172 176 241 186Q216 237 216 299Q216 421 276 495Q328 559 399 559Q451 559 486 523T521 420Q521 354 480
267Q472 250 463 235T442 203H487Q492 208 502 221T527 254L608 364Q622 384 634 399T655 426L663 480Q665 502 665 506Q665 545 646 545Q637 545 625 536Q608 525 589 502Q572 482 569 475Q565 467 560 467Q556 467 556 472Q556 476 557 478Q576 521 623 550Q646
566 667 566Q703 566 703 519Q703 508 700 476L692 391Q687 333 682 289T675 212Q724 216 738 224Q743 228 747 228Q749 228 749 225Q749 219 740 213Q718 200 675 192Q675 181 675 171T674 150Q674 87 682 55Q697 -10 733 -10Q776 -10 809 65Q812 72 816 72Q822
72 819 61Q805 19 775 -6T712 -32Q650 -32 636 57Q633 73 632 92T631 136Q631 147 631 160T632 187Q622 186 591 186H507Q481 157 453 130T393 77Q397 77 400 77T408 76Q480 76 536 150Q537 153 541 151Q545 148 542 145Q482 66 405 66Q393 66 383 68Q279 -18 197
-43Q177 -50 157 -53T118 -57ZM255 188Q337 200 429 202Q453 237 470 272Q508 350 508 412Q508 471 476 508T393 546Q329 546 284 486Q231 418 231 299Q231 239 255 188ZM572 207Q599 207 634 209Q636 249 640 294T653 392Q649 385 640 370T613 332L525 208Q544
207 572 207ZM370 82L475 188Q457 189 432 188Q413 160 392 136T347 90Q360 85 370 82ZM337 96Q382 138 418 187Q352 183 266 167Q295 119 337 96ZM141 -32Q245 -32 361 73L338 82Q235 -7 134 -7Q105 -7 81 0Q78 2 78 4Q78 10 83 8Q107 2 131 2Q227 2 328 88Q283
113 253 165Q207 157 171 148T109 131Q19 100 19 43Q19 14 47 -6Q74 -26 113 -30Q127 -32 141 -32ZM709 599Q707 597 653 621Q603 643 598 652Q596 654 596 659Q596 664 601 667T614 670Q626 670 638 661L710 606L711 605V603Q711 601 709 599Z" />
<glyph unicode="&#xc1;" glyph-name="Aacute" horiz-adv-x="769" d="M118 -57Q112 -57 107 -57T95 -56Q56 -52 31 -29T6 31Q6 76 40 111Q70 142 116 157Q172 176 241 186Q216 237 216 299Q216 421 276 495Q328 559 399 559Q451 559 486 523T521 420Q521 354 480
267Q472 250 463 235T442 203H487Q492 208 502 221T527 254L608 364Q622 384 634 399T655 426L663 480Q665 502 665 506Q665 545 646 545Q637 545 625 536Q608 525 589 502Q572 482 569 475Q565 467 560 467Q556 467 556 472Q556 476 557 478Q576 521 623 550Q646
566 667 566Q703 566 703 519Q703 508 700 476L692 391Q687 333 682 289T675 212Q724 216 738 224Q743 228 747 228Q749 228 749 225Q749 219 740 213Q718 200 675 192Q675 181 675 171T674 150Q674 87 682 55Q697 -10 733 -10Q776 -10 809 65Q812 72 816 72Q822
72 819 61Q805 19 775 -6T712 -32Q650 -32 636 57Q633 73 632 92T631 136Q631 147 631 160T632 187Q622 186 591 186H507Q481 157 453 130T393 77Q397 77 400 77T408 76Q480 76 536 150Q537 153 541 151Q545 148 542 145Q482 66 405 66Q393 66 383 68Q279 -18 197
-43Q177 -50 157 -53T118 -57ZM255 188Q337 200 429 202Q453 237 470 272Q508 350 508 412Q508 471 476 508T393 546Q329 546 284 486Q231 418 231 299Q231 239 255 188ZM572 207Q599 207 634 209Q636 249 640 294T653 392Q649 385 640 370T613 332L525 208Q544
207 572 207ZM370 82L475 188Q457 189 432 188Q413 160 392 136T347 90Q360 85 370 82ZM337 96Q382 138 418 187Q352 183 266 167Q295 119 337 96ZM141 -32Q245 -32 361 73L338 82Q235 -7 134 -7Q105 -7 81 0Q78 2 78 4Q78 10 83 8Q107 2 131 2Q227 2 328 88Q283
113 253 165Q207 157 171 148T109 131Q19 100 19 43Q19 14 47 -6Q74 -26 113 -30Q127 -32 141 -32ZM656 598Q654 600 654 602V604L655 605L727 660Q739 669 751 669Q760 669 766 664T767 651Q762 642 712 620Q660 596 656 598Z" />
<glyph unicode="&#xc2;" glyph-name="Acircumflex" horiz-adv-x="769" d="M118 -57Q112 -57 107 -57T95 -56Q56 -52 31 -29T6 31Q6 76 40 111Q70 142 116 157Q172 176 241 186Q216 237 216 299Q216 421 276 495Q328 559 399 559Q451 559 486 523T521 420Q521 354
480 267Q472 250 463 235T442 203H487Q492 208 502 221T527 254L608 364Q622 384 634 399T655 426L663 480Q665 502 665 506Q665 545 646 545Q637 545 625 536Q608 525 589 502Q572 482 569 475Q565 467 560 467Q556 467 556 472Q556 476 557 478Q576 521 623 550Q646
566 667 566Q703 566 703 519Q703 508 700 476L692 391Q687 333 682 289T675 212Q724 216 738 224Q743 228 747 228Q749 228 749 225Q749 219 740 213Q718 200 675 192Q675 181 675 171T674 150Q674 87 682 55Q697 -10 733 -10Q776 -10 809 65Q812 72 816 72Q822
72 819 61Q805 19 775 -6T712 -32Q650 -32 636 57Q633 73 632 92T631 136Q631 147 631 160T632 187Q622 186 591 186H507Q481 157 453 130T393 77Q397 77 400 77T408 76Q480 76 536 150Q537 153 541 151Q545 148 542 145Q482 66 405 66Q393 66 383 68Q279 -18 197
-43Q177 -50 157 -53T118 -57ZM255 188Q337 200 429 202Q453 237 470 272Q508 350 508 412Q508 471 476 508T393 546Q329 546 284 486Q231 418 231 299Q231 239 255 188ZM572 207Q599 207 634 209Q636 249 640 294T653 392Q649 385 640 370T613 332L525 208Q544
207 572 207ZM370 82L475 188Q457 189 432 188Q413 160 392 136T347 90Q360 85 370 82ZM337 96Q382 138 418 187Q352 183 266 167Q295 119 337 96ZM141 -32Q245 -32 361 73L338 82Q235 -7 134 -7Q105 -7 81 0Q78 2 78 4Q78 10 83 8Q107 2 131 2Q227 2 328 88Q283
113 253 165Q207 157 171 148T109 131Q19 100 19 43Q19 14 47 -6Q74 -26 113 -30Q127 -32 141 -32ZM758 602Q751 602 748 606L713 660L610 606Q606 603 597 603Q590 602 590 606L706 686Q713 687 718 687T727 688Q736 688 736 686L763 606Q764 603 762 602H758Z"
/>
<glyph unicode="&#xc3;" glyph-name="Atilde" horiz-adv-x="769" d="M118 -57Q112 -57 107 -57T95 -56Q56 -52 31 -29T6 31Q6 76 40 111Q70 142 116 157Q172 176 241 186Q216 237 216 299Q216 421 276 495Q328 559 399 559Q451 559 486 523T521 420Q521 354 480
267Q472 250 463 235T442 203H487Q492 208 502 221T527 254L608 364Q622 384 634 399T655 426L663 480Q665 502 665 506Q665 545 646 545Q637 545 625 536Q608 525 589 502Q572 482 569 475Q565 467 560 467Q556 467 556 472Q556 476 557 478Q576 521 623 550Q646
566 667 566Q703 566 703 519Q703 508 700 476L692 391Q687 333 682 289T675 212Q724 216 738 224Q743 228 747 228Q749 228 749 225Q749 219 740 213Q718 200 675 192Q675 181 675 171T674 150Q674 87 682 55Q697 -10 733 -10Q776 -10 809 65Q812 72 816 72Q822
72 819 61Q805 19 775 -6T712 -32Q650 -32 636 57Q633 73 632 92T631 136Q631 147 631 160T632 187Q622 186 591 186H507Q481 157 453 130T393 77Q397 77 400 77T408 76Q480 76 536 150Q537 153 541 151Q545 148 542 145Q482 66 405 66Q393 66 383 68Q279 -18 197
-43Q177 -50 157 -53T118 -57ZM255 188Q337 200 429 202Q453 237 470 272Q508 350 508 412Q508 471 476 508T393 546Q329 546 284 486Q231 418 231 299Q231 239 255 188ZM572 207Q599 207 634 209Q636 249 640 294T653 392Q649 385 640 370T613 332L525 208Q544
207 572 207ZM370 82L475 188Q457 189 432 188Q413 160 392 136T347 90Q360 85 370 82ZM337 96Q382 138 418 187Q352 183 266 167Q295 119 337 96ZM141 -32Q245 -32 361 73L338 82Q235 -7 134 -7Q105 -7 81 0Q78 2 78 4Q78 10 83 8Q107 2 131 2Q227 2 328 88Q283
113 253 165Q207 157 171 148T109 131Q19 100 19 43Q19 14 47 -6Q74 -26 113 -30Q127 -32 141 -32ZM711 601Q704 601 694 602T671 611Q649 623 635 623Q621 623 609 612Q598 602 593 602Q592 602 592 603Q592 610 600 617T625 637Q636 645 653 645Q666 645 690
636Q701 632 710 630T726 628Q743 628 758 645Q762 645 762 642Q762 632 731 607Q724 601 711 601Z" />
<glyph unicode="&#xc4;" glyph-name="Adieresis" horiz-adv-x="769" d="M118 -57Q112 -57 107 -57T95 -56Q56 -52 31 -29T6 31Q6 76 40 111Q70 142 116 157Q172 176 241 186Q216 237 216 299Q216 421 276 495Q328 559 399 559Q451 559 486 523T521 420Q521 354
480 267Q472 250 463 235T442 203H487Q492 208 502 221T527 254L608 364Q622 384 634 399T655 426L663 480Q665 502 665 506Q665 545 646 545Q637 545 625 536Q608 525 589 502Q572 482 569 475Q565 467 560 467Q556 467 556 472Q556 476 557 478Q576 521 623 550Q646
566 667 566Q703 566 703 519Q703 508 700 476L692 391Q687 333 682 289T675 212Q724 216 738 224Q743 228 747 228Q749 228 749 225Q749 219 740 213Q718 200 675 192Q675 181 675 171T674 150Q674 87 682 55Q697 -10 733 -10Q776 -10 809 65Q812 72 816 72Q822
72 819 61Q805 19 775 -6T712 -32Q650 -32 636 57Q633 73 632 92T631 136Q631 147 631 160T632 187Q622 186 591 186H507Q481 157 453 130T393 77Q397 77 400 77T408 76Q480 76 536 150Q537 153 541 151Q545 148 542 145Q482 66 405 66Q393 66 383 68Q279 -18 197
-43Q177 -50 157 -53T118 -57ZM255 188Q337 200 429 202Q453 237 470 272Q508 350 508 412Q508 471 476 508T393 546Q329 546 284 486Q231 418 231 299Q231 239 255 188ZM572 207Q599 207 634 209Q636 249 640 294T653 392Q649 385 640 370T613 332L525 208Q544
207 572 207ZM370 82L475 188Q457 189 432 188Q413 160 392 136T347 90Q360 85 370 82ZM337 96Q382 138 418 187Q352 183 266 167Q295 119 337 96ZM141 -32Q245 -32 361 73L338 82Q235 -7 134 -7Q105 -7 81 0Q78 2 78 4Q78 10 83 8Q107 2 131 2Q227 2 328 88Q283
113 253 165Q207 157 171 148T109 131Q19 100 19 43Q19 14 47 -6Q74 -26 113 -30Q127 -32 141 -32ZM719 597Q714 597 708 605T702 620Q702 626 708 632T725 648Q731 653 737 655T747 658Q757 658 752 650L740 619Q731 597 719 597ZM618 597Q613 597 607 605T601
620Q601 631 624 648Q640 658 648 657T651 650L639 618Q635 607 629 602T618 597Z" />
<glyph unicode="&#xc5;" glyph-name="Aring" horiz-adv-x="769" d="M118 -57Q112 -57 107 -57T95 -56Q56 -52 31 -29T6 31Q6 76 40 111Q70 142 116 157Q172 176 241 186Q216 237 216 299Q216 421 276 495Q328 559 399 559Q451 559 486 523T521 420Q521 354 480
267Q472 250 463 235T442 203H487Q492 208 502 221T527 254L608 364Q622 384 634 399T655 426L663 480Q665 502 665 506Q665 545 646 545Q637 545 625 536Q608 525 589 502Q572 482 569 475Q565 467 560 467Q556 467 556 472Q556 476 557 478Q576 521 623 550Q646
566 667 566Q703 566 703 519Q703 508 700 476L692 391Q687 333 682 289T675 212Q724 216 738 224Q743 228 747 228Q749 228 749 225Q749 219 740 213Q718 200 675 192Q675 181 675 171T674 150Q674 87 682 55Q697 -10 733 -10Q776 -10 809 65Q812 72 816 72Q822
72 819 61Q805 19 775 -6T712 -32Q650 -32 636 57Q633 73 632 92T631 136Q631 147 631 160T632 187Q622 186 591 186H507Q481 157 453 130T393 77Q397 77 400 77T408 76Q480 76 536 150Q537 153 541 151Q545 148 542 145Q482 66 405 66Q393 66 383 68Q279 -18 197
-43Q177 -50 157 -53T118 -57ZM255 188Q337 200 429 202Q453 237 470 272Q508 350 508 412Q508 471 476 508T393 546Q329 546 284 486Q231 418 231 299Q231 239 255 188ZM572 207Q599 207 634 209Q636 249 640 294T653 392Q649 385 640 370T613 332L525 208Q544
207 572 207ZM370 82L475 188Q457 189 432 188Q413 160 392 136T347 90Q360 85 370 82ZM337 96Q382 138 418 187Q352 183 266 167Q295 119 337 96ZM141 -32Q245 -32 361 73L338 82Q235 -7 134 -7Q105 -7 81 0Q78 2 78 4Q78 10 83 8Q107 2 131 2Q227 2 328 88Q283
113 253 165Q207 157 171 148T109 131Q19 100 19 43Q19 14 47 -6Q74 -26 113 -30Q127 -32 141 -32ZM681 595Q664 595 651 609T638 643Q638 660 654 677T689 695Q708 695 721 682T734 648Q734 628 717 612T681 595ZM685 612Q718 612 718 647Q718 680 685 680Q654
680 654 647Q654 612 685 612Z" />
<glyph unicode="&#xc6;" glyph-name="AE" horiz-adv-x="866" d="M-75 -83Q-104 -83 -104 -68Q-104 -62 -98 -53Q-97 -45 -90 -42Q-95 -55 -95 -61Q-95 -74 -72 -74Q-22 -74 51 -28Q7 -9 7 29Q7 55 29 80Q68 130 144 151Q152 153 163 155Q152 188 152 231Q152 289
169 333Q191 393 226 435Q272 489 325 489Q358 489 376 468T394 414Q394 379 377 345Q364 319 333 277T251 176Q247 172 244 168Q260 170 279 172Q309 202 340 237T405 314Q498 429 498 470Q498 491 476 491Q471 493 471 494Q471 499 478 499Q521 499 521 464Q521
443 503 407Q506 404 504 396Q495 358 483 306T458 189Q498 216 552 233Q559 235 631 250Q597 249 564 266Q528 286 528 314Q528 353 578 389Q620 419 673 432Q719 445 758 445Q791 445 817 433Q850 418 850 389Q850 370 834 355Q826 350 818 346T799 340Q788 338
788 343Q788 348 798 348Q810 349 817 359T825 385Q825 432 756 432Q736 432 715 429T672 417Q626 402 597 376Q581 361 572 346T562 313Q562 284 612 267Q658 250 713 253Q732 253 732 243Q732 231 710 231Q646 234 577 217Q499 197 459 159Q424 126 424 88Q424
40 473 15Q510 -6 564 -6Q584 -6 608 -2Q674 7 728 35Q801 72 806 124Q807 132 810 132Q813 132 813 124Q808 63 732 22Q675 -9 601 -18L575 -20Q562 -21 550 -21Q487 -21 443 2Q389 32 389 84Q389 126 426 163L425 166Q402 165 368 164T288 159L215 90Q247 63
299 63Q334 63 351 80L353 82Q356 80 356 78V77L355 76Q337 57 299 57Q245 57 209 85L179 57Q146 27 119 6T70 -28Q92 -40 132 -45Q138 -45 138 -47Q138 -50 132 -50Q110 -50 93 -46T61 -34Q-24 -83 -75 -83ZM164 225Q164 187 173 157Q197 162 233 167Q277 210
310 255T365 347Q383 386 383 417Q383 446 368 464T326 482Q277 482 235 429Q201 387 182 332Q164 282 164 225ZM304 174Q316 176 332 177L367 178Q413 178 429 180Q434 199 441 225T458 284L487 380Q452 323 403 271Q379 243 304 174ZM195 112Q200 105 205 100Q228
122 263 156Q244 153 227 149Q209 130 194 114L195 112ZM180 137Q183 130 187 124Q200 134 211 145Q195 142 180 137ZM60 -23Q80 -11 105 9T161 59L193 88Q196 91 199 94Q192 101 187 108Q128 50 101 50Q100 50 98 52Q98 56 99 56Q135 78 180 117Q175 125 171 134Q145
126 125 116Q33 69 33 20Q33 -4 60 -23Z" />
<glyph unicode="&#xc7;" glyph-name="Ccedilla" horiz-adv-x="553" d="M229 -94Q175 -94 133 -58Q88 -19 76 47Q23 112 23 200Q23 296 84 384Q131 452 211 492Q295 533 377 533Q416 533 455 522Q503 509 534 478Q571 443 569 396Q575 394 581 391T589 382Q590
376 586 376L581 378Q580 379 577 380T568 384Q560 324 507 266Q455 209 388 183Q346 167 304 167Q255 167 224 190T193 249Q193 298 253 349Q293 381 358 399Q425 418 488 414Q488 447 464 465T397 484Q332 484 265 441Q187 391 137 301Q93 221 85 130Q110 63
169 25T309 -8Q316 -7 322 -7T336 -5L361 -1Q379 33 379 69Q379 119 346 137Q343 138 345 143Q346 146 350 144Q391 121 391 66Q391 34 375 3Q478 33 527 114Q551 152 558 152Q560 152 560 148Q560 134 541 106Q479 14 359 -24Q308 -94 229 -94ZM77 160Q89 242
128 312Q178 402 257 452Q324 494 392 494Q440 494 469 472T498 413Q526 411 549 404Q539 468 455 500Q423 513 376 513Q300 513 233 477Q151 431 105 341Q71 277 71 210Q71 184 77 160ZM314 182Q346 182 381 194Q446 216 498 273Q552 334 551 390Q539 394 526
395T496 398Q492 374 473 346Q410 251 286 255Q272 257 272 260Q272 264 283 264Q339 264 389 286T465 348Q481 373 486 398Q427 398 364 378Q300 358 267 329Q222 290 222 250Q222 220 247 201T314 182ZM226 -84Q293 -84 341 -29Q303 -38 265 -38Q161 -38 91 30Q106
-25 143 -54T226 -84ZM227 -237Q205 -237 189 -233T164 -220Q163 -218 162 -215T160 -211Q160 -208 166 -212Q173 -219 187 -223T217 -227Q246 -227 261 -214T276 -181Q276 -163 263 -155Q258 -152 252 -151T239 -149Q230 -149 222 -151T211 -154Q201 -158 198
-159T194 -161Q182 -161 182 -151Q182 -150 184 -148T196 -135L244 -84Q247 -84 250 -87Q241 -98 230 -111T212 -133T205 -143Q211 -142 221 -140T237 -136Q239 -136 241 -136T247 -135Q281 -135 292 -149T303 -181Q303 -196 292 -209T264 -229T227 -237Z" />
<glyph unicode="&#xc8;" glyph-name="Egrave" horiz-adv-x="522" d="M288 -171Q237 -171 193 -133Q146 -92 126 -18Q35 28 35 140Q35 198 60 258Q55 257 51 256T42 253H40Q35 253 35 259Q35 282 55 286L75 290Q124 391 224 461Q327 534 436 534Q506 534 538 504Q564
536 581 549Q584 552 588 552Q594 552 594 548Q594 545 591 542Q567 523 546 496Q562 476 562 450Q562 436 558 427Q544 391 508 391Q486 391 486 413Q486 430 495 448T526 488Q505 511 441 511Q341 511 255 449Q179 394 125 299L169 303Q249 444 403 487Q407 488
408 484Q410 480 406 479Q269 441 190 304Q198 305 217 305T269 306H444Q455 306 455 300Q455 293 438 293Q306 293 176 278Q128 180 128 84Q128 50 132 22Q178 -21 254 -21Q331 -21 405 24Q395 74 353 122Q294 87 248 33Q243 28 242 28Q240 28 242 34Q244 41 245
42Q297 100 343 132Q286 189 220 191Q216 191 216 195Q216 199 220 199Q290 197 352 138Q416 180 466 180Q523 180 523 133Q523 100 488 63Q459 34 422 12L423 3V-6Q423 -82 381 -128Q344 -171 288 -171ZM513 401Q528 401 535 417Q538 425 540 432T542 446Q542
462 533 478Q509 440 506 414V411Q506 401 513 401ZM115 40Q113 62 113 88Q113 185 155 275L132 272Q126 270 120 270T109 268L106 261Q94 233 87 205T80 150Q80 86 115 40ZM418 32Q461 63 488 102Q504 124 504 143Q504 168 472 168Q452 168 424 157T363 127Q405
82 418 32ZM285 -161Q339 -161 373 -118T408 -6Q408 1 407 4Q324 -42 233 -42Q184 -42 142 -25Q161 -90 202 -128Q239 -161 285 -161ZM472 564Q470 562 416 586Q366 608 361 617Q359 619 359 624Q359 629 364 632T377 635Q389 635 401 626L473 571L474 570V568Q474
566 472 564Z" />
<glyph unicode="&#xc9;" glyph-name="Eacute" horiz-adv-x="522" d="M288 -171Q237 -171 193 -133Q146 -92 126 -18Q35 28 35 140Q35 198 60 258Q55 257 51 256T42 253H40Q35 253 35 259Q35 282 55 286L75 290Q124 391 224 461Q327 534 436 534Q506 534 538 504Q564
536 581 549Q584 552 588 552Q594 552 594 548Q594 545 591 542Q567 523 546 496Q562 476 562 450Q562 436 558 427Q544 391 508 391Q486 391 486 413Q486 430 495 448T526 488Q505 511 441 511Q341 511 255 449Q179 394 125 299L169 303Q249 444 403 487Q407 488
408 484Q410 480 406 479Q269 441 190 304Q198 305 217 305T269 306H444Q455 306 455 300Q455 293 438 293Q306 293 176 278Q128 180 128 84Q128 50 132 22Q178 -21 254 -21Q331 -21 405 24Q395 74 353 122Q294 87 248 33Q243 28 242 28Q240 28 242 34Q244 41 245
42Q297 100 343 132Q286 189 220 191Q216 191 216 195Q216 199 220 199Q290 197 352 138Q416 180 466 180Q523 180 523 133Q523 100 488 63Q459 34 422 12L423 3V-6Q423 -82 381 -128Q344 -171 288 -171ZM513 401Q528 401 535 417Q538 425 540 432T542 446Q542
462 533 478Q509 440 506 414V411Q506 401 513 401ZM115 40Q113 62 113 88Q113 185 155 275L132 272Q126 270 120 270T109 268L106 261Q94 233 87 205T80 150Q80 86 115 40ZM418 32Q461 63 488 102Q504 124 504 143Q504 168 472 168Q452 168 424 157T363 127Q405
82 418 32ZM285 -161Q339 -161 373 -118T408 -6Q408 1 407 4Q324 -42 233 -42Q184 -42 142 -25Q161 -90 202 -128Q239 -161 285 -161ZM419 563Q417 565 417 567V569L418 570L490 625Q502 634 514 634Q523 634 529 629T530 616Q525 607 475 585Q423 561 419 563Z"
/>
<glyph unicode="&#xca;" glyph-name="Ecircumflex" horiz-adv-x="522" d="M288 -171Q237 -171 193 -133Q146 -92 126 -18Q35 28 35 140Q35 198 60 258Q55 257 51 256T42 253H40Q35 253 35 259Q35 282 55 286L75 290Q124 391 224 461Q327 534 436 534Q506 534 538
504Q564 536 581 549Q584 552 588 552Q594 552 594 548Q594 545 591 542Q567 523 546 496Q562 476 562 450Q562 436 558 427Q544 391 508 391Q486 391 486 413Q486 430 495 448T526 488Q505 511 441 511Q341 511 255 449Q179 394 125 299L169 303Q249 444 403 487Q407
488 408 484Q410 480 406 479Q269 441 190 304Q198 305 217 305T269 306H444Q455 306 455 300Q455 293 438 293Q306 293 176 278Q128 180 128 84Q128 50 132 22Q178 -21 254 -21Q331 -21 405 24Q395 74 353 122Q294 87 248 33Q243 28 242 28Q240 28 242 34Q244
41 245 42Q297 100 343 132Q286 189 220 191Q216 191 216 195Q216 199 220 199Q290 197 352 138Q416 180 466 180Q523 180 523 133Q523 100 488 63Q459 34 422 12L423 3V-6Q423 -82 381 -128Q344 -171 288 -171ZM513 401Q528 401 535 417Q538 425 540 432T542 446Q542
462 533 478Q509 440 506 414V411Q506 401 513 401ZM115 40Q113 62 113 88Q113 185 155 275L132 272Q126 270 120 270T109 268L106 261Q94 233 87 205T80 150Q80 86 115 40ZM418 32Q461 63 488 102Q504 124 504 143Q504 168 472 168Q452 168 424 157T363 127Q405
82 418 32ZM285 -161Q339 -161 373 -118T408 -6Q408 1 407 4Q324 -42 233 -42Q184 -42 142 -25Q161 -90 202 -128Q239 -161 285 -161ZM521 567Q514 567 511 571L476 625L373 571Q369 568 360 568Q353 567 353 571L469 651Q476 652 481 652T490 653Q499 653 499
651L526 571Q527 568 525 567H521Z" />
<glyph unicode="&#xcb;" glyph-name="Edieresis" horiz-adv-x="522" d="M288 -171Q237 -171 193 -133Q146 -92 126 -18Q35 28 35 140Q35 198 60 258Q55 257 51 256T42 253H40Q35 253 35 259Q35 282 55 286L75 290Q124 391 224 461Q327 534 436 534Q506 534 538
504Q564 536 581 549Q584 552 588 552Q594 552 594 548Q594 545 591 542Q567 523 546 496Q562 476 562 450Q562 436 558 427Q544 391 508 391Q486 391 486 413Q486 430 495 448T526 488Q505 511 441 511Q341 511 255 449Q179 394 125 299L169 303Q249 444 403 487Q407
488 408 484Q410 480 406 479Q269 441 190 304Q198 305 217 305T269 306H444Q455 306 455 300Q455 293 438 293Q306 293 176 278Q128 180 128 84Q128 50 132 22Q178 -21 254 -21Q331 -21 405 24Q395 74 353 122Q294 87 248 33Q243 28 242 28Q240 28 242 34Q244
41 245 42Q297 100 343 132Q286 189 220 191Q216 191 216 195Q216 199 220 199Q290 197 352 138Q416 180 466 180Q523 180 523 133Q523 100 488 63Q459 34 422 12L423 3V-6Q423 -82 381 -128Q344 -171 288 -171ZM513 401Q528 401 535 417Q538 425 540 432T542 446Q542
462 533 478Q509 440 506 414V411Q506 401 513 401ZM115 40Q113 62 113 88Q113 185 155 275L132 272Q126 270 120 270T109 268L106 261Q94 233 87 205T80 150Q80 86 115 40ZM418 32Q461 63 488 102Q504 124 504 143Q504 168 472 168Q452 168 424 157T363 127Q405
82 418 32ZM285 -161Q339 -161 373 -118T408 -6Q408 1 407 4Q324 -42 233 -42Q184 -42 142 -25Q161 -90 202 -128Q239 -161 285 -161ZM482 562Q477 562 471 570T465 585Q465 591 471 597T488 613Q494 618 500 620T510 623Q520 623 515 615L503 584Q494 562 482
562ZM381 562Q376 562 370 570T364 585Q364 596 387 613Q403 623 411 622T414 615L402 583Q398 572 392 567T381 562Z" />
<glyph unicode="&#xcc;" glyph-name="Igrave" horiz-adv-x="441" d="M11 -127Q-16 -127 -28 -109Q-30 -104 -27 -103Q-24 -100 -22 -103Q-10 -119 13 -119Q39 -119 67 -103Q102 -83 135 -46Q96 -28 96 -11Q96 -7 101 -7Q105 -8 117 -19T143 -36Q150 -28 156 -19L169
0Q28 -3 28 -47Q28 -69 58 -88Q65 -92 57 -94Q56 -94 55 -94T53 -95Q48 -95 42 -91Q1 -64 1 -40Q1 24 173 24Q180 24 183 23Q197 47 209 74T232 130Q228 130 224 130T215 129Q145 129 90 173Q20 229 7 332Q4 359 4 384Q4 481 54 542Q100 596 163 596Q250 596 288
504H321Q340 504 366 505Q385 526 396 526Q406 526 406 506L455 504Q473 503 476 502Q514 497 515 488Q516 483 514 481Q512 479 504 481Q499 482 494 482H453L402 483Q376 311 332 176Q383 213 393 266Q394 269 398 268Q401 266 400 262Q383 197 327 161Q295 70
261 18Q292 14 324 9T391 -5Q407 -9 420 -9Q432 -9 432 -4Q432 4 404 22Q401 24 403 26Q406 29 409 27Q444 13 444 -9Q444 -24 416 -24Q401 -24 385 -20Q317 -7 247 -2Q220 -35 196 -48Q190 -51 184 -53T169 -55Q159 -55 144 -50Q105 -93 67 -112Q37 -127 11 -127ZM235
140Q282 275 282 392Q282 444 272 480Q186 471 136 439Q91 409 91 371Q91 342 120 319T203 285L207 282Q207 271 193 276Q56 317 56 383Q56 414 85 439T162 480T265 502Q232 587 160 587Q103 587 63 535Q19 476 19 385Q19 359 23 331Q37 227 103 177Q161 133 235
140ZM254 143L271 147Q279 148 288 153Q302 195 313 241T335 338Q352 427 354 482Q323 483 295 482Q305 448 305 399Q305 279 254 143ZM229 21Q243 43 257 72T284 140L267 136Q263 135 259 134T249 132Q238 102 225 75T197 23Q213 23 229 21ZM155 -37Q185 -36 214
-1Q206 0 199 0H182L169 -19Q162 -29 155 -37ZM428 559Q426 557 372 581Q322 603 317 612Q315 614 315 619Q315 624 320 627T333 630Q345 630 357 621L429 566L430 565V563Q430 561 428 559Z" />
<glyph unicode="&#xcd;" glyph-name="Iacute" horiz-adv-x="441" d="M11 -127Q-16 -127 -28 -109Q-30 -104 -27 -103Q-24 -100 -22 -103Q-10 -119 13 -119Q39 -119 67 -103Q102 -83 135 -46Q96 -28 96 -11Q96 -7 101 -7Q105 -8 117 -19T143 -36Q150 -28 156 -19L169
0Q28 -3 28 -47Q28 -69 58 -88Q65 -92 57 -94Q56 -94 55 -94T53 -95Q48 -95 42 -91Q1 -64 1 -40Q1 24 173 24Q180 24 183 23Q197 47 209 74T232 130Q228 130 224 130T215 129Q145 129 90 173Q20 229 7 332Q4 359 4 384Q4 481 54 542Q100 596 163 596Q250 596 288
504H321Q340 504 366 505Q385 526 396 526Q406 526 406 506L455 504Q473 503 476 502Q514 497 515 488Q516 483 514 481Q512 479 504 481Q499 482 494 482H453L402 483Q376 311 332 176Q383 213 393 266Q394 269 398 268Q401 266 400 262Q383 197 327 161Q295 70
261 18Q292 14 324 9T391 -5Q407 -9 420 -9Q432 -9 432 -4Q432 4 404 22Q401 24 403 26Q406 29 409 27Q444 13 444 -9Q444 -24 416 -24Q401 -24 385 -20Q317 -7 247 -2Q220 -35 196 -48Q190 -51 184 -53T169 -55Q159 -55 144 -50Q105 -93 67 -112Q37 -127 11 -127ZM235
140Q282 275 282 392Q282 444 272 480Q186 471 136 439Q91 409 91 371Q91 342 120 319T203 285L207 282Q207 271 193 276Q56 317 56 383Q56 414 85 439T162 480T265 502Q232 587 160 587Q103 587 63 535Q19 476 19 385Q19 359 23 331Q37 227 103 177Q161 133 235
140ZM254 143L271 147Q279 148 288 153Q302 195 313 241T335 338Q352 427 354 482Q323 483 295 482Q305 448 305 399Q305 279 254 143ZM229 21Q243 43 257 72T284 140L267 136Q263 135 259 134T249 132Q238 102 225 75T197 23Q213 23 229 21ZM155 -37Q185 -36 214
-1Q206 0 199 0H182L169 -19Q162 -29 155 -37ZM375 558Q373 560 373 562V564L374 565L446 620Q458 629 470 629Q479 629 485 624T486 611Q481 602 431 580Q379 556 375 558Z" />
<glyph unicode="&#xce;" glyph-name="Icircumflex" horiz-adv-x="441" d="M11 -127Q-16 -127 -28 -109Q-30 -104 -27 -103Q-24 -100 -22 -103Q-10 -119 13 -119Q39 -119 67 -103Q102 -83 135 -46Q96 -28 96 -11Q96 -7 101 -7Q105 -8 117 -19T143 -36Q150 -28 156
-19L169 0Q28 -3 28 -47Q28 -69 58 -88Q65 -92 57 -94Q56 -94 55 -94T53 -95Q48 -95 42 -91Q1 -64 1 -40Q1 24 173 24Q180 24 183 23Q197 47 209 74T232 130Q228 130 224 130T215 129Q145 129 90 173Q20 229 7 332Q4 359 4 384Q4 481 54 542Q100 596 163 596Q250
596 288 504H321Q340 504 366 505Q385 526 396 526Q406 526 406 506L455 504Q473 503 476 502Q514 497 515 488Q516 483 514 481Q512 479 504 481Q499 482 494 482H453L402 483Q376 311 332 176Q383 213 393 266Q394 269 398 268Q401 266 400 262Q383 197 327 161Q295
70 261 18Q292 14 324 9T391 -5Q407 -9 420 -9Q432 -9 432 -4Q432 4 404 22Q401 24 403 26Q406 29 409 27Q444 13 444 -9Q444 -24 416 -24Q401 -24 385 -20Q317 -7 247 -2Q220 -35 196 -48Q190 -51 184 -53T169 -55Q159 -55 144 -50Q105 -93 67 -112Q37 -127 11
-127ZM235 140Q282 275 282 392Q282 444 272 480Q186 471 136 439Q91 409 91 371Q91 342 120 319T203 285L207 282Q207 271 193 276Q56 317 56 383Q56 414 85 439T162 480T265 502Q232 587 160 587Q103 587 63 535Q19 476 19 385Q19 359 23 331Q37 227 103 177Q161
133 235 140ZM254 143L271 147Q279 148 288 153Q302 195 313 241T335 338Q352 427 354 482Q323 483 295 482Q305 448 305 399Q305 279 254 143ZM229 21Q243 43 257 72T284 140L267 136Q263 135 259 134T249 132Q238 102 225 75T197 23Q213 23 229 21ZM155 -37Q185
-36 214 -1Q206 0 199 0H182L169 -19Q162 -29 155 -37ZM477 562Q470 562 467 566L432 620L329 566Q325 563 316 563Q309 562 309 566L425 646Q432 647 437 647T446 648Q455 648 455 646L482 566Q483 563 481 562H477Z" />
<glyph unicode="&#xcf;" glyph-name="Idieresis" horiz-adv-x="441" d="M11 -127Q-16 -127 -28 -109Q-30 -104 -27 -103Q-24 -100 -22 -103Q-10 -119 13 -119Q39 -119 67 -103Q102 -83 135 -46Q96 -28 96 -11Q96 -7 101 -7Q105 -8 117 -19T143 -36Q150 -28 156
-19L169 0Q28 -3 28 -47Q28 -69 58 -88Q65 -92 57 -94Q56 -94 55 -94T53 -95Q48 -95 42 -91Q1 -64 1 -40Q1 24 173 24Q180 24 183 23Q197 47 209 74T232 130Q228 130 224 130T215 129Q145 129 90 173Q20 229 7 332Q4 359 4 384Q4 481 54 542Q100 596 163 596Q250
596 288 504H321Q340 504 366 505Q385 526 396 526Q406 526 406 506L455 504Q473 503 476 502Q514 497 515 488Q516 483 514 481Q512 479 504 481Q499 482 494 482H453L402 483Q376 311 332 176Q383 213 393 266Q394 269 398 268Q401 266 400 262Q383 197 327 161Q295
70 261 18Q292 14 324 9T391 -5Q407 -9 420 -9Q432 -9 432 -4Q432 4 404 22Q401 24 403 26Q406 29 409 27Q444 13 444 -9Q444 -24 416 -24Q401 -24 385 -20Q317 -7 247 -2Q220 -35 196 -48Q190 -51 184 -53T169 -55Q159 -55 144 -50Q105 -93 67 -112Q37 -127 11
-127ZM235 140Q282 275 282 392Q282 444 272 480Q186 471 136 439Q91 409 91 371Q91 342 120 319T203 285L207 282Q207 271 193 276Q56 317 56 383Q56 414 85 439T162 480T265 502Q232 587 160 587Q103 587 63 535Q19 476 19 385Q19 359 23 331Q37 227 103 177Q161
133 235 140ZM254 143L271 147Q279 148 288 153Q302 195 313 241T335 338Q352 427 354 482Q323 483 295 482Q305 448 305 399Q305 279 254 143ZM229 21Q243 43 257 72T284 140L267 136Q263 135 259 134T249 132Q238 102 225 75T197 23Q213 23 229 21ZM155 -37Q185
-36 214 -1Q206 0 199 0H182L169 -19Q162 -29 155 -37ZM438 557Q433 557 427 565T421 580Q421 586 427 592T444 608Q450 613 456 615T466 618Q476 618 471 610L459 579Q450 557 438 557ZM337 557Q332 557 326 565T320 580Q320 591 343 608Q359 618 367 617T370
610L358 578Q354 567 348 562T337 557Z" />
<glyph unicode="&#xd0;" glyph-name="Eth" horiz-adv-x="724" d="M272 -171Q203 -171 170 -103Q148 -57 148 4Q148 27 151 51T159 104Q172 166 212 272Q167 260 133 260Q79 260 50 285T20 347Q20 424 118 474Q194 511 319 519Q336 560 341 588Q341 591 344 590Q346
589 348 584Q350 562 331 519Q357 521 383 519Q417 567 453 567Q479 567 505 550Q528 533 528 524Q528 520 523 520Q520 520 516 526Q512 532 506 536Q486 550 470 550Q445 550 420 517Q580 504 670 427Q747 361 747 270Q747 152 627 48Q562 -8 458 -28Q423 -97
373 -134T272 -171ZM339 447Q349 465 358 480T375 508H350Q338 508 325 507Q321 497 301 455Q319 454 339 447ZM118 281Q156 281 222 298Q238 337 254 374T287 448Q283 449 275 449Q220 453 178 415Q143 383 143 348Q143 340 144 337Q145 333 141 332Q137 331 136
337Q134 342 134 349Q134 388 171 421Q191 440 217 448T275 457H283Q287 457 291 456L293 461Q298 474 304 485T314 506Q201 495 131 454Q89 429 64 396T39 334Q39 281 118 281ZM475 9Q551 31 606 82Q705 173 705 273Q705 364 625 430Q546 495 413 506Q394 479
373 433Q405 417 432 387Q458 403 509 448Q512 451 514 451Q515 451 515 448Q515 442 511 438Q479 405 440 377Q505 295 505 168Q505 85 475 9ZM235 302L283 317Q309 385 335 437Q317 444 297 447Q265 381 235 302ZM333 336Q357 346 378 357T420 379Q397 405 368
422Q360 403 351 382T333 336ZM381 -6Q418 -6 457 4Q489 82 489 167Q489 292 428 369Q382 337 323 311Q247 98 237 1Q239 3 277 65Q292 90 311 105Q324 115 333 115Q338 115 338 112Q338 111 336 109Q291 70 291 40Q291 -6 381 -6ZM275 -154Q320 -154 364 -122T441
-31Q415 -34 393 -34Q280 -34 280 30Q280 42 284 53Q274 40 261 20T231 -29Q229 -31 227 -31Q219 -31 208 -21T198 0Q207 105 273 291Q267 289 261 287T249 283L226 275Q188 172 175 103Q164 48 164 6Q164 -73 197 -115Q225 -154 275 -154ZM149 194Q126 194 126
202Q126 216 165 230Q183 236 215 236Q244 236 318 227Q348 224 348 216Q348 208 318 207L250 202Q209 198 154 194H149Z" />
<glyph unicode="&#xd1;" glyph-name="Ntilde" horiz-adv-x="686" d="M62 -95Q33 -95 15 -78T-3 -32Q-3 2 22 34Q23 37 26 37Q28 37 28 34L20 13Q12 -8 12 -21Q12 -46 26 -64T66 -83Q175 -83 283 39Q238 63 238 112Q238 154 276 190Q338 249 416 265Q443 337 449
395Q412 513 319 530Q301 501 301 464Q301 421 327 383Q329 379 326 378Q321 375 320 379Q293 416 293 464Q293 500 310 531Q306 531 303 531T295 532Q241 532 187 493Q127 450 96 372Q77 325 77 278Q77 200 132 200Q185 200 235 280Q239 285 242 284Q243 281 242
275Q231 250 197 219Q156 181 125 180Q50 174 50 278Q50 337 75 386Q113 460 183 505Q252 551 324 549Q346 574 384 574Q458 574 505 464Q535 392 559 253Q570 248 581 242T603 228Q635 382 664 446Q713 554 796 554Q835 554 861 524Q878 504 886 475Q888 468 884
466Q879 464 878 471Q874 486 856 502Q833 522 806 522Q731 522 682 423Q650 358 616 218Q638 200 654 178Q687 133 687 85Q687 25 649 25Q615 25 586 99Q579 73 570 56Q604 -10 642 -10Q663 -10 689 10Q715 30 713 30Q715 29 715 28Q715 26 717 25Q718 24 717
23Q674 -23 628 -23Q584 -23 550 26Q542 21 532 21Q517 21 517 30Q517 32 527 34Q536 36 541 39Q501 124 479 260Q458 261 437 257Q390 134 304 39Q314 36 326 36Q362 36 394 65Q397 68 399 65Q402 62 399 59Q365 28 326 28Q310 28 298 32Q284 16 269 2T237 -25Q152
-95 62 -95ZM549 257Q525 378 489 457Q440 565 379 565Q376 565 373 565T367 564Q348 561 334 548Q445 536 481 407Q487 385 494 350T512 266Q531 263 549 257ZM441 269Q450 270 459 270T478 270L465 354Q458 313 441 269ZM563 71Q571 89 579 119Q572 140 567 165T556
219Q555 226 554 232T551 247Q535 254 514 257Q541 119 563 71ZM288 45Q364 135 411 252Q342 232 288 181Q252 146 252 107Q252 66 288 45ZM583 134Q586 147 590 168T601 220Q591 227 581 232T560 243L564 220Q569 195 573 174T583 134ZM650 33Q679 33 679 86Q679
130 648 173Q632 193 614 209Q607 177 590 112Q617 33 650 33ZM606 579Q599 579 589 580T566 589Q544 601 530 601Q516 601 504 590Q493 580 488 580Q487 580 487 581Q487 588 495 595T520 615Q531 623 548 623Q561 623 585 614Q596 610 605 608T621 606Q638 606
653 623Q657 623 657 620Q657 610 626 585Q619 579 606 579Z" />
<glyph unicode="&#xd2;" glyph-name="Ograve" horiz-adv-x="534" d="M313 -60Q250 -60 197 -32Q41 -31 41 108Q41 137 50 172Q39 221 39 268Q39 352 125 420Q120 522 199 560Q224 573 252 573Q331 573 403 487Q470 474 513 426Q558 376 558 306Q558 221 507 142Q494
52 439 -4Q385 -60 313 -60ZM136 427Q227 493 353 493Q366 493 380 491Q312 563 246 563Q222 563 203 553Q133 519 136 427ZM186 1Q230 1 275 16T364 60Q452 117 496 200Q495 219 493 238T486 277Q464 392 393 476Q376 480 353 480Q221 480 138 398Q140 384 144
372T154 348Q243 434 335 434Q347 434 347 427Q347 421 334 421Q255 421 165 328Q209 266 272 266Q324 266 347 322Q347 325 350 325Q357 325 355 319Q330 258 273 258Q206 258 158 320Q95 251 71 176Q91 66 164 3Q169 2 175 2T186 1ZM509 231Q524 274 524 319Q524
433 418 469Q449 429 471 381T502 277L506 254Q507 248 507 242T509 231ZM66 222Q91 286 145 340Q135 359 129 389Q103 361 87 327Q64 280 66 222ZM143 6Q90 55 61 132Q60 128 60 124T60 114Q60 29 143 6ZM314 -52Q379 -52 425 -5T488 116Q437 53 365 13T217 -31Q260
-52 314 -52ZM457 572Q455 570 401 594Q351 616 346 625Q344 627 344 632Q344 637 349 640T362 643Q374 643 386 634L458 579L459 578V576Q459 574 457 572Z" />
<glyph unicode="&#xd3;" glyph-name="Oacute" horiz-adv-x="534" d="M313 -60Q250 -60 197 -32Q41 -31 41 108Q41 137 50 172Q39 221 39 268Q39 352 125 420Q120 522 199 560Q224 573 252 573Q331 573 403 487Q470 474 513 426Q558 376 558 306Q558 221 507 142Q494
52 439 -4Q385 -60 313 -60ZM136 427Q227 493 353 493Q366 493 380 491Q312 563 246 563Q222 563 203 553Q133 519 136 427ZM186 1Q230 1 275 16T364 60Q452 117 496 200Q495 219 493 238T486 277Q464 392 393 476Q376 480 353 480Q221 480 138 398Q140 384 144
372T154 348Q243 434 335 434Q347 434 347 427Q347 421 334 421Q255 421 165 328Q209 266 272 266Q324 266 347 322Q347 325 350 325Q357 325 355 319Q330 258 273 258Q206 258 158 320Q95 251 71 176Q91 66 164 3Q169 2 175 2T186 1ZM509 231Q524 274 524 319Q524
433 418 469Q449 429 471 381T502 277L506 254Q507 248 507 242T509 231ZM66 222Q91 286 145 340Q135 359 129 389Q103 361 87 327Q64 280 66 222ZM143 6Q90 55 61 132Q60 128 60 124T60 114Q60 29 143 6ZM314 -52Q379 -52 425 -5T488 116Q437 53 365 13T217 -31Q260
-52 314 -52ZM404 571Q402 573 402 575V577L403 578L475 633Q487 642 499 642Q508 642 514 637T515 624Q510 615 460 593Q408 569 404 571Z" />
<glyph unicode="&#xd4;" glyph-name="Ocircumflex" horiz-adv-x="534" d="M313 -60Q250 -60 197 -32Q41 -31 41 108Q41 137 50 172Q39 221 39 268Q39 352 125 420Q120 522 199 560Q224 573 252 573Q331 573 403 487Q470 474 513 426Q558 376 558 306Q558 221 507
142Q494 52 439 -4Q385 -60 313 -60ZM136 427Q227 493 353 493Q366 493 380 491Q312 563 246 563Q222 563 203 553Q133 519 136 427ZM186 1Q230 1 275 16T364 60Q452 117 496 200Q495 219 493 238T486 277Q464 392 393 476Q376 480 353 480Q221 480 138 398Q140
384 144 372T154 348Q243 434 335 434Q347 434 347 427Q347 421 334 421Q255 421 165 328Q209 266 272 266Q324 266 347 322Q347 325 350 325Q357 325 355 319Q330 258 273 258Q206 258 158 320Q95 251 71 176Q91 66 164 3Q169 2 175 2T186 1ZM509 231Q524 274
524 319Q524 433 418 469Q449 429 471 381T502 277L506 254Q507 248 507 242T509 231ZM66 222Q91 286 145 340Q135 359 129 389Q103 361 87 327Q64 280 66 222ZM143 6Q90 55 61 132Q60 128 60 124T60 114Q60 29 143 6ZM314 -52Q379 -52 425 -5T488 116Q437 53 365
13T217 -31Q260 -52 314 -52ZM506 575Q499 575 496 579L461 633L358 579Q354 576 345 576Q338 575 338 579L454 659Q461 660 466 660T475 661Q484 661 484 659L511 579Q512 576 510 575H506Z" />
<glyph unicode="&#xd5;" glyph-name="Otilde" horiz-adv-x="534" d="M313 -60Q250 -60 197 -32Q41 -31 41 108Q41 137 50 172Q39 221 39 268Q39 352 125 420Q120 522 199 560Q224 573 252 573Q331 573 403 487Q470 474 513 426Q558 376 558 306Q558 221 507 142Q494
52 439 -4Q385 -60 313 -60ZM136 427Q227 493 353 493Q366 493 380 491Q312 563 246 563Q222 563 203 553Q133 519 136 427ZM186 1Q230 1 275 16T364 60Q452 117 496 200Q495 219 493 238T486 277Q464 392 393 476Q376 480 353 480Q221 480 138 398Q140 384 144
372T154 348Q243 434 335 434Q347 434 347 427Q347 421 334 421Q255 421 165 328Q209 266 272 266Q324 266 347 322Q347 325 350 325Q357 325 355 319Q330 258 273 258Q206 258 158 320Q95 251 71 176Q91 66 164 3Q169 2 175 2T186 1ZM509 231Q524 274 524 319Q524
433 418 469Q449 429 471 381T502 277L506 254Q507 248 507 242T509 231ZM66 222Q91 286 145 340Q135 359 129 389Q103 361 87 327Q64 280 66 222ZM143 6Q90 55 61 132Q60 128 60 124T60 114Q60 29 143 6ZM314 -52Q379 -52 425 -5T488 116Q437 53 365 13T217 -31Q260
-52 314 -52ZM459 574Q452 574 442 575T419 584Q397 596 383 596Q369 596 357 585Q346 575 341 575Q340 575 340 576Q340 583 348 590T373 610Q384 618 401 618Q414 618 438 609Q449 605 458 603T474 601Q491 601 506 618Q510 618 510 615Q510 605 479 580Q472
574 459 574Z" />
<glyph unicode="&#xd6;" glyph-name="Odieresis" horiz-adv-x="534" d="M313 -60Q250 -60 197 -32Q41 -31 41 108Q41 137 50 172Q39 221 39 268Q39 352 125 420Q120 522 199 560Q224 573 252 573Q331 573 403 487Q470 474 513 426Q558 376 558 306Q558 221 507
142Q494 52 439 -4Q385 -60 313 -60ZM136 427Q227 493 353 493Q366 493 380 491Q312 563 246 563Q222 563 203 553Q133 519 136 427ZM186 1Q230 1 275 16T364 60Q452 117 496 200Q495 219 493 238T486 277Q464 392 393 476Q376 480 353 480Q221 480 138 398Q140
384 144 372T154 348Q243 434 335 434Q347 434 347 427Q347 421 334 421Q255 421 165 328Q209 266 272 266Q324 266 347 322Q347 325 350 325Q357 325 355 319Q330 258 273 258Q206 258 158 320Q95 251 71 176Q91 66 164 3Q169 2 175 2T186 1ZM509 231Q524 274
524 319Q524 433 418 469Q449 429 471 381T502 277L506 254Q507 248 507 242T509 231ZM66 222Q91 286 145 340Q135 359 129 389Q103 361 87 327Q64 280 66 222ZM143 6Q90 55 61 132Q60 128 60 124T60 114Q60 29 143 6ZM314 -52Q379 -52 425 -5T488 116Q437 53 365
13T217 -31Q260 -52 314 -52ZM467 570Q462 570 456 578T450 593Q450 599 456 605T473 621Q479 626 485 628T495 631Q505 631 500 623L488 592Q479 570 467 570ZM366 570Q361 570 355 578T349 593Q349 604 372 621Q388 631 396 630T399 623L387 591Q383 580 377
575T366 570Z" />
<glyph unicode="&#xd7;" glyph-name="multiply" horiz-adv-x="221" d="M151 12L113 90L44 17Q34 20 34 36L102 110L63 187Q67 201 80 206L119 127L187 201Q198 201 198 182L129 108L169 30Q164 16 151 12Z" />
<glyph unicode="&#xd8;" glyph-name="Oslash" horiz-adv-x="674" d="M235 -115Q231 -115 230 -111Q230 -105 234 -99Q245 -80 255 -60T273 -16Q249 -19 224 -19Q166 -19 132 1Q73 31 73 102Q73 112 74 122T78 144Q52 155 32 178T7 227Q6 234 6 240T5 254Q5 318
58 365Q76 382 100 396T154 423Q160 438 169 450Q220 530 315 530Q355 530 383 510T422 453L442 449Q452 447 461 445Q496 505 524 506Q538 506 552 496Q558 491 560 480Q559 478 559 476Q559 474 557 474Q555 474 548 479Q541 484 536 484Q517 482 489 435L509
427Q602 384 617 301Q620 286 620 270Q620 219 588 163Q539 80 434 29Q400 13 367 3T297 -13Q282 -46 268 -70T242 -110L239 -113Q237 -115 235 -115ZM168 428Q173 430 179 432T192 437Q273 460 344 460Q379 460 407 456Q386 525 317 525Q293 525 267 515Q206 494
171 434L169 431Q168 430 168 428ZM196 139Q269 139 324 185Q339 196 350 209T372 238Q385 268 395 295Q405 321 415 344Q417 355 418 366T419 389Q419 400 418 411T414 433L413 438Q387 441 362 441Q298 441 220 416Q184 407 153 390Q144 360 144 327Q144 315
145 303T149 278Q150 268 149 263Q166 282 186 296Q254 350 318 361Q324 362 325 359Q326 355 320 353Q263 341 203 286Q140 226 120 149Q159 139 196 139ZM431 382L443 408Q448 419 453 430Q447 432 441 433L427 436L428 434Q430 425 430 416Q430 406 431 396V382ZM307
6Q470 36 558 187Q587 242 587 288Q587 375 496 415L481 421Q465 393 449 359Q416 285 347 104Q325 48 307 6ZM84 161Q102 213 145 259Q139 263 137 278Q135 290 134 302T133 325Q133 358 140 385Q105 368 77 344Q24 300 24 249Q24 186 84 161ZM219 -2Q250 -2 282
2Q294 31 305 62Q316 92 330 121L355 188Q290 123 195 123Q175 123 156 126T115 134Q114 127 114 120T113 105Q113 98 113 92T115 79Q122 42 152 18Q180 -2 219 -2Z" />
<glyph unicode="&#xd9;" glyph-name="Ugrave" horiz-adv-x="707" d="M303 -50Q243 -50 224 4Q143 2 89 55Q36 110 36 189Q36 261 83 334Q27 348 -5 375L-7 371Q-14 358 -16 346T-19 320Q-19 265 36 244Q39 242 39 240Q39 231 28 237Q-33 268 -40 311Q-41 317 -41
323T-42 335Q-42 367 -27 398Q-45 423 -45 454Q-45 502 -4 538Q36 574 88 574Q108 574 129 566Q132 565 132 562Q132 557 127 559Q110 566 89 566Q42 566 2 531Q-37 496 -37 452Q-37 428 -23 405Q11 465 89 506Q166 546 243 546Q308 546 346 514Q379 523 409 523Q439
523 465 509Q499 491 499 464Q499 437 465 409Q434 383 376 362Q365 320 304 198Q254 96 254 40V31Q254 26 255 21Q285 28 315 42Q365 68 393 110Q417 147 417 183Q417 211 401 221Q398 221 398 224Q398 231 404 227Q427 213 427 176Q427 137 403 98Q374 53 328
31Q294 13 258 7Q267 -30 306 -30Q383 -30 479 131Q517 196 558 295T645 529Q646 544 670 544Q706 544 702 519Q591 253 591 88Q591 -10 629 -10Q646 -10 663 7Q690 34 703 70Q703 73 707 73Q717 73 713 67Q698 22 672 -5T616 -33Q588 -33 569 -7T549 68Q548 100
551 143T562 241Q496 120 454 63Q371 -50 303 -50ZM88 341Q171 460 318 506Q291 530 245 530Q180 530 106 486Q30 443 -2 382Q28 355 88 341ZM378 372Q430 391 459 415Q490 440 490 465Q490 488 465 501T411 515Q384 515 354 506Q375 484 381 448Q383 441 383 434T383
419Q383 408 382 396T378 372ZM165 332Q244 332 335 359Q347 398 347 428Q347 435 347 441T345 453Q340 481 326 498Q192 451 110 337Q114 336 118 336T126 335L140 333Q146 332 152 332T165 332ZM221 16L220 20Q218 28 218 36T217 52Q217 111 262 202L312 305Q330
342 332 349Q243 325 162 325Q128 325 105 329Q51 251 51 176Q51 103 99 58Q147 13 221 16ZM562 598Q560 596 506 620Q456 642 451 651Q449 653 449 658Q449 663 454 666T467 669Q479 669 491 660L563 605L564 604V602Q564 600 562 598Z" />
<glyph unicode="&#xda;" glyph-name="Uacute" horiz-adv-x="707" d="M303 -50Q243 -50 224 4Q143 2 89 55Q36 110 36 189Q36 261 83 334Q27 348 -5 375L-7 371Q-14 358 -16 346T-19 320Q-19 265 36 244Q39 242 39 240Q39 231 28 237Q-33 268 -40 311Q-41 317 -41
323T-42 335Q-42 367 -27 398Q-45 423 -45 454Q-45 502 -4 538Q36 574 88 574Q108 574 129 566Q132 565 132 562Q132 557 127 559Q110 566 89 566Q42 566 2 531Q-37 496 -37 452Q-37 428 -23 405Q11 465 89 506Q166 546 243 546Q308 546 346 514Q379 523 409 523Q439
523 465 509Q499 491 499 464Q499 437 465 409Q434 383 376 362Q365 320 304 198Q254 96 254 40V31Q254 26 255 21Q285 28 315 42Q365 68 393 110Q417 147 417 183Q417 211 401 221Q398 221 398 224Q398 231 404 227Q427 213 427 176Q427 137 403 98Q374 53 328
31Q294 13 258 7Q267 -30 306 -30Q383 -30 479 131Q517 196 558 295T645 529Q646 544 670 544Q706 544 702 519Q591 253 591 88Q591 -10 629 -10Q646 -10 663 7Q690 34 703 70Q703 73 707 73Q717 73 713 67Q698 22 672 -5T616 -33Q588 -33 569 -7T549 68Q548 100
551 143T562 241Q496 120 454 63Q371 -50 303 -50ZM88 341Q171 460 318 506Q291 530 245 530Q180 530 106 486Q30 443 -2 382Q28 355 88 341ZM378 372Q430 391 459 415Q490 440 490 465Q490 488 465 501T411 515Q384 515 354 506Q375 484 381 448Q383 441 383 434T383
419Q383 408 382 396T378 372ZM165 332Q244 332 335 359Q347 398 347 428Q347 435 347 441T345 453Q340 481 326 498Q192 451 110 337Q114 336 118 336T126 335L140 333Q146 332 152 332T165 332ZM221 16L220 20Q218 28 218 36T217 52Q217 111 262 202L312 305Q330
342 332 349Q243 325 162 325Q128 325 105 329Q51 251 51 176Q51 103 99 58Q147 13 221 16ZM509 597Q507 599 507 601V603L508 604L580 659Q592 668 604 668Q613 668 619 663T620 650Q615 641 565 619Q513 595 509 597Z" />
<glyph unicode="&#xdb;" glyph-name="Ucircumflex" horiz-adv-x="707" d="M303 -50Q243 -50 224 4Q143 2 89 55Q36 110 36 189Q36 261 83 334Q27 348 -5 375L-7 371Q-14 358 -16 346T-19 320Q-19 265 36 244Q39 242 39 240Q39 231 28 237Q-33 268 -40 311Q-41
317 -41 323T-42 335Q-42 367 -27 398Q-45 423 -45 454Q-45 502 -4 538Q36 574 88 574Q108 574 129 566Q132 565 132 562Q132 557 127 559Q110 566 89 566Q42 566 2 531Q-37 496 -37 452Q-37 428 -23 405Q11 465 89 506Q166 546 243 546Q308 546 346 514Q379 523
409 523Q439 523 465 509Q499 491 499 464Q499 437 465 409Q434 383 376 362Q365 320 304 198Q254 96 254 40V31Q254 26 255 21Q285 28 315 42Q365 68 393 110Q417 147 417 183Q417 211 401 221Q398 221 398 224Q398 231 404 227Q427 213 427 176Q427 137 403 98Q374
53 328 31Q294 13 258 7Q267 -30 306 -30Q383 -30 479 131Q517 196 558 295T645 529Q646 544 670 544Q706 544 702 519Q591 253 591 88Q591 -10 629 -10Q646 -10 663 7Q690 34 703 70Q703 73 707 73Q717 73 713 67Q698 22 672 -5T616 -33Q588 -33 569 -7T549 68Q548
100 551 143T562 241Q496 120 454 63Q371 -50 303 -50ZM88 341Q171 460 318 506Q291 530 245 530Q180 530 106 486Q30 443 -2 382Q28 355 88 341ZM378 372Q430 391 459 415Q490 440 490 465Q490 488 465 501T411 515Q384 515 354 506Q375 484 381 448Q383 441 383
434T383 419Q383 408 382 396T378 372ZM165 332Q244 332 335 359Q347 398 347 428Q347 435 347 441T345 453Q340 481 326 498Q192 451 110 337Q114 336 118 336T126 335L140 333Q146 332 152 332T165 332ZM221 16L220 20Q218 28 218 36T217 52Q217 111 262 202L312
305Q330 342 332 349Q243 325 162 325Q128 325 105 329Q51 251 51 176Q51 103 99 58Q147 13 221 16ZM611 601Q604 601 601 605L566 659L463 605Q459 602 450 602Q443 601 443 605L559 685Q566 686 571 686T580 687Q589 687 589 685L616 605Q617 602 615 601H611Z"
/>
<glyph unicode="&#xdc;" glyph-name="Udieresis" horiz-adv-x="707" d="M303 -50Q243 -50 224 4Q143 2 89 55Q36 110 36 189Q36 261 83 334Q27 348 -5 375L-7 371Q-14 358 -16 346T-19 320Q-19 265 36 244Q39 242 39 240Q39 231 28 237Q-33 268 -40 311Q-41 317
-41 323T-42 335Q-42 367 -27 398Q-45 423 -45 454Q-45 502 -4 538Q36 574 88 574Q108 574 129 566Q132 565 132 562Q132 557 127 559Q110 566 89 566Q42 566 2 531Q-37 496 -37 452Q-37 428 -23 405Q11 465 89 506Q166 546 243 546Q308 546 346 514Q379 523 409
523Q439 523 465 509Q499 491 499 464Q499 437 465 409Q434 383 376 362Q365 320 304 198Q254 96 254 40V31Q254 26 255 21Q285 28 315 42Q365 68 393 110Q417 147 417 183Q417 211 401 221Q398 221 398 224Q398 231 404 227Q427 213 427 176Q427 137 403 98Q374
53 328 31Q294 13 258 7Q267 -30 306 -30Q383 -30 479 131Q517 196 558 295T645 529Q646 544 670 544Q706 544 702 519Q591 253 591 88Q591 -10 629 -10Q646 -10 663 7Q690 34 703 70Q703 73 707 73Q717 73 713 67Q698 22 672 -5T616 -33Q588 -33 569 -7T549 68Q548
100 551 143T562 241Q496 120 454 63Q371 -50 303 -50ZM88 341Q171 460 318 506Q291 530 245 530Q180 530 106 486Q30 443 -2 382Q28 355 88 341ZM378 372Q430 391 459 415Q490 440 490 465Q490 488 465 501T411 515Q384 515 354 506Q375 484 381 448Q383 441 383
434T383 419Q383 408 382 396T378 372ZM165 332Q244 332 335 359Q347 398 347 428Q347 435 347 441T345 453Q340 481 326 498Q192 451 110 337Q114 336 118 336T126 335L140 333Q146 332 152 332T165 332ZM221 16L220 20Q218 28 218 36T217 52Q217 111 262 202L312
305Q330 342 332 349Q243 325 162 325Q128 325 105 329Q51 251 51 176Q51 103 99 58Q147 13 221 16ZM572 596Q567 596 561 604T555 619Q555 625 561 631T578 647Q584 652 590 654T600 657Q610 657 605 649L593 618Q584 596 572 596ZM471 596Q466 596 460 604T454
619Q454 630 477 647Q493 657 501 656T504 649L492 617Q488 606 482 601T471 596Z" />
<glyph unicode="&#xdd;" glyph-name="Yacute" horiz-adv-x="707" d="M164 -386Q73 -386 42 -331Q31 -311 31 -292Q31 -275 39 -254Q14 -214 14 -171Q14 -117 50 -79Q86 -42 134 -42Q170 -42 202 -66Q226 -82 238 -110L485 -16L497 32Q502 50 507 75T520 131Q529
173 538 202T555 249Q558 256 562 256Q568 256 564 246Q546 207 530 129L501 -9Q506 -7 511 -5T522 -1L541 7Q547 48 553 88T566 169Q599 338 660 449Q632 417 603 374T541 277L498 205Q477 169 455 134Q378 15 354 15Q347 15 350 22Q398 138 398 287Q398 312 396
336Q391 334 384 334L373 332H369Q370 323 370 313T371 291Q371 275 370 256T367 216Q358 115 327 21Q326 18 323 18Q318 18 320 23Q348 110 357 217Q359 238 360 257T361 292Q361 303 361 312T359 331Q343 329 325 329Q239 329 180 363Q127 393 100 431Q74 382
74 339Q74 268 136 268Q184 268 215 317Q217 317 217 312Q209 293 183 274Q154 252 124 252Q54 252 54 336Q54 392 91 444Q76 472 76 501Q76 538 101 563T166 589Q216 589 264 547Q378 552 416 432Q427 396 430 353Q526 385 530 449Q530 453 534 453Q538 452 538
448Q534 378 431 345Q434 265 413 174Q393 89 364 29Q382 37 416 95Q427 114 438 133T460 172Q484 215 508 257T557 343Q595 407 632 454T705 532Q712 537 719 537Q727 537 727 530Q727 525 722 517Q661 429 627 306Q616 265 607 219T593 120L584 27Q616 41 663
68Q676 75 679 75Q681 75 681 74Q681 67 659 54Q631 36 579 6Q530 -200 365 -315Q262 -386 164 -386ZM96 451Q157 533 247 545Q203 581 161 581Q127 581 105 559T82 503Q82 477 96 451ZM324 337H341Q350 337 358 338Q347 420 292 497Q284 507 277 516T261 533Q218
537 175 512T104 439Q129 400 184 370Q242 337 324 337ZM369 339L372 340L383 342Q390 342 395 344Q390 385 380 418Q351 508 283 528Q307 503 327 467Q361 409 369 339ZM152 -357Q195 -357 240 -345Q348 -316 427 -230Q512 -139 538 -11L496 -28Q473 -114 441
-164Q397 -232 327 -279Q254 -328 184 -328Q102 -328 53 -273Q47 -285 47 -297Q47 -309 54 -319Q77 -357 152 -357ZM183 -320Q248 -320 319 -272Q381 -229 426 -160Q457 -113 480 -35Q334 -93 246 -136Q249 -148 249 -162Q249 -199 230 -233Q229 -237 224 -235Q221
-234 223 -229Q238 -202 238 -172Q238 -155 234 -142Q157 -179 117 -207T58 -264Q105 -320 183 -320ZM44 -244Q63 -210 106 -181Q130 -164 159 -148T224 -116Q212 -94 193 -80Q161 -56 126 -56Q84 -56 52 -88Q21 -120 21 -168Q21 -206 44 -244ZM504 590Q502 592
502 594V596L503 597L575 652Q587 661 599 661Q608 661 614 656T615 643Q610 634 560 612Q508 588 504 590Z" />
<glyph unicode="&#xde;" glyph-name="Thorn" horiz-adv-x="383" d="M81 -247Q75 -247 61 -244Q33 -239 17 -206T0 -130Q0 -110 3 -94Q17 -25 60 112T171 457Q179 475 185 505T194 558Q195 573 178 596L174 600Q174 607 180 607Q183 607 191 605Q218 596 231 581T241
555L229 509Q226 497 223 486T216 464Q246 455 265 431T295 374T310 307Q310 300 316 300Q325 300 346 315Q365 329 373 335T379 342Q387 342 381 332Q379 328 376 325T367 318L312 281Q306 130 206 103Q194 100 185 100Q155 100 155 133Q155 169 187 210Q188 211
193 215T208 230Q217 238 237 255T276 289Q275 306 272 329T258 376Q247 401 232 416T206 436Q205 437 189 401T151 303T106 168Q83 91 72 40T57 -46T49 -107Q45 -138 43 -155T41 -175Q41 -226 76 -234Q89 -235 89 -242Q89 -247 81 -247ZM188 113Q231 113 253 181Q262
206 270 229T275 268V274Q244 246 219 216T182 169Q176 158 173 149T169 132Q169 113 188 113Z" />
<glyph unicode="&#xdf;" glyph-name="germandbls" horiz-adv-x="367" d="M-166 -251Q-194 -251 -211 -233Q-226 -218 -226 -194Q-226 -154 -209 -154Q-205 -154 -204 -176L-202 -200Q-198 -216 -191 -225T-172 -235Q-159 -235 -144 -226T-112 -202Q-91 -183 -61
-136T0 -22Q13 6 25 35T47 93Q55 115 63 139T76 174Q46 171 31 171Q17 171 17 176Q17 182 37 189Q57 195 91 201Q117 262 145 319T214 432Q237 460 261 469T309 479Q353 479 376 455T399 395Q399 373 390 348T360 297Q354 289 342 281T317 269T298 265Q288 263
271 261T241 244Q220 220 220 196Q220 178 231 161T260 123Q283 98 285 78T287 45Q287 43 286 40T283 31Q289 34 303 40T331 52T349 60Q361 65 361 65Q363 65 358 60T345 50L278 17Q272 7 248 0Q237 -4 218 -5T177 -7Q130 -7 130 5Q130 10 136 15T156 21Q159 21
162 21T170 19Q191 13 210 13Q239 13 270 27Q276 36 276 43Q276 49 269 69T249 101Q218 129 198 148T177 196Q177 218 194 238T235 272T280 286Q304 286 316 288T341 311Q358 338 366 362T374 407Q374 434 362 450T327 467Q311 467 292 457T249 422Q230 402 207
363T160 273T113 170T70 70T37 -11T18 -57Q5 -88 -11 -122T-49 -185T-99 -233T-166 -251Z" />
<glyph unicode="&#xe0;" glyph-name="agrave" horiz-adv-x="269" d="M55 -4Q23 1 23 41Q23 102 79 176Q137 254 199 254Q220 254 237 245T255 215Q255 192 236 189Q242 199 242 209Q242 231 217 231Q193 231 165 207Q96 148 64 70Q54 46 54 30Q54 17 63 17Q73
17 98 40Q115 56 172 137Q187 158 196 158Q204 158 204 116V60Q213 16 235 16Q247 16 264 24T299 52L317 71Q320 72 324 67Q320 56 289 30Q250 -3 217 -3Q208 -3 199 0Q173 9 165 56Q163 69 162 78T160 93Q160 96 160 98Q154 86 125 48Q82 -8 55 -4ZM231 569Q229
567 175 591Q125 613 120 622Q118 624 118 629Q118 634 123 637T136 640Q148 640 160 631L232 576L233 575V573Q233 571 231 569Z" />
<glyph unicode="&#xe1;" glyph-name="aacute" horiz-adv-x="269" d="M55 -4Q23 1 23 41Q23 102 79 176Q137 254 199 254Q220 254 237 245T255 215Q255 192 236 189Q242 199 242 209Q242 231 217 231Q193 231 165 207Q96 148 64 70Q54 46 54 30Q54 17 63 17Q73
17 98 40Q115 56 172 137Q187 158 196 158Q204 158 204 116V60Q213 16 235 16Q247 16 264 24T299 52L317 71Q320 72 324 67Q320 56 289 30Q250 -3 217 -3Q208 -3 199 0Q173 9 165 56Q163 69 162 78T160 93Q160 96 160 98Q154 86 125 48Q82 -8 55 -4ZM178 568Q176
570 176 572V574L177 575L249 630Q261 639 273 639Q282 639 288 634T289 621Q284 612 234 590Q182 566 178 568Z" />
<glyph unicode="&#xe2;" glyph-name="acircumflex" horiz-adv-x="269" d="M55 -4Q23 1 23 41Q23 102 79 176Q137 254 199 254Q220 254 237 245T255 215Q255 192 236 189Q242 199 242 209Q242 231 217 231Q193 231 165 207Q96 148 64 70Q54 46 54 30Q54 17 63 17Q73
17 98 40Q115 56 172 137Q187 158 196 158Q204 158 204 116V60Q213 16 235 16Q247 16 264 24T299 52L317 71Q320 72 324 67Q320 56 289 30Q250 -3 217 -3Q208 -3 199 0Q173 9 165 56Q163 69 162 78T160 93Q160 96 160 98Q154 86 125 48Q82 -8 55 -4ZM282 563Q275
563 272 567L237 621L134 567Q130 564 121 564Q114 563 114 567L230 647Q237 648 242 648T251 649Q260 649 260 647L287 567Q288 564 286 563H282Z" />
<glyph unicode="&#xe3;" glyph-name="atilde" horiz-adv-x="269" d="M55 -4Q23 1 23 41Q23 102 79 176Q137 254 199 254Q220 254 237 245T255 215Q255 192 236 189Q242 199 242 209Q242 231 217 231Q193 231 165 207Q96 148 64 70Q54 46 54 30Q54 17 63 17Q73
17 98 40Q115 56 172 137Q187 158 196 158Q204 158 204 116V60Q213 16 235 16Q247 16 264 24T299 52L317 71Q320 72 324 67Q320 56 289 30Q250 -3 217 -3Q208 -3 199 0Q173 9 165 56Q163 69 162 78T160 93Q160 96 160 98Q154 86 125 48Q82 -8 55 -4ZM233 571Q226
571 216 572T193 581Q171 593 157 593Q143 593 131 582Q120 572 115 572Q114 572 114 573Q114 580 122 587T147 607Q158 615 175 615Q188 615 212 606Q223 602 232 600T248 598Q265 598 280 615Q284 615 284 612Q284 602 253 577Q246 571 233 571Z" />
<glyph unicode="&#xe4;" glyph-name="adieresis" horiz-adv-x="269" d="M55 -4Q23 1 23 41Q23 102 79 176Q137 254 199 254Q220 254 237 245T255 215Q255 192 236 189Q242 199 242 209Q242 231 217 231Q193 231 165 207Q96 148 64 70Q54 46 54 30Q54 17 63 17Q73
17 98 40Q115 56 172 137Q187 158 196 158Q204 158 204 116V60Q213 16 235 16Q247 16 264 24T299 52L317 71Q320 72 324 67Q320 56 289 30Q250 -3 217 -3Q208 -3 199 0Q173 9 165 56Q163 69 162 78T160 93Q160 96 160 98Q154 86 125 48Q82 -8 55 -4ZM241 573Q236
573 230 581T224 596Q224 602 230 608T247 624Q253 629 259 631T269 634Q279 634 274 626L262 595Q253 573 241 573ZM140 573Q135 573 129 581T123 596Q123 607 146 624Q162 634 170 633T173 626L161 594Q157 583 151 578T140 573Z" />
<glyph unicode="&#xe5;" glyph-name="aring" horiz-adv-x="269" d="M55 -4Q23 1 23 41Q23 102 79 176Q137 254 199 254Q220 254 237 245T255 215Q255 192 236 189Q242 199 242 209Q242 231 217 231Q193 231 165 207Q96 148 64 70Q54 46 54 30Q54 17 63 17Q73 17
98 40Q115 56 172 137Q187 158 196 158Q204 158 204 116V60Q213 16 235 16Q247 16 264 24T299 52L317 71Q320 72 324 67Q320 56 289 30Q250 -3 217 -3Q208 -3 199 0Q173 9 165 56Q163 69 162 78T160 93Q160 96 160 98Q154 86 125 48Q82 -8 55 -4ZM203 307Q186 307
173 321T160 355Q160 372 176 389T211 407Q230 407 243 394T256 360Q256 340 239 324T203 307ZM207 324Q240 324 240 359Q240 392 207 392Q176 392 176 359Q176 324 207 324Z" />
<glyph unicode="&#xe6;" glyph-name="ae" horiz-adv-x="452" d="M234 -13Q148 -13 148 81Q148 90 149 95Q72 -1 24 -1Q-10 -1 -10 42Q-10 78 16 119Q75 212 151 246Q184 260 211 260Q225 260 238 255Q272 283 304 283Q349 283 349 238Q349 210 325 179Q285 127
202 106Q199 88 199 73Q199 10 256 10Q302 10 368 46Q429 79 464 117Q473 128 478 128Q482 128 482 119Q482 113 476 106Q440 62 364 24Q290 -13 234 -13ZM208 123Q280 147 307 193Q324 224 324 244Q324 260 313 260Q289 260 252 202Q222 158 208 123ZM54 43Q70
43 98 66Q144 105 161 147Q168 195 185 228Q109 229 53 121Q37 92 37 68Q37 43 54 43Z" />
<glyph unicode="&#xe7;" glyph-name="ccedilla" horiz-adv-x="199" d="M63 -17Q13 -17 13 49Q13 70 19 96Q31 143 63 192Q104 254 142 254Q161 254 178 239Q190 228 190 211Q190 207 189 205Q188 204 188 204T187 203Q184 203 180 210Q174 222 158 222Q130 222
97 169Q72 132 58 89Q48 65 48 41Q48 1 79 1Q132 1 201 78Q206 83 208 79V78Q208 74 202 66Q180 38 140 12Q94 -17 63 -17ZM307 103Q285 103 269 107T244 120Q243 122 242 125T240 129Q240 132 246 128Q253 121 267 117T297 113Q326 113 341 126T356 159Q356 177
343 185Q338 188 332 189T319 191Q310 191 302 189T291 186Q281 182 278 181T274 179Q262 179 262 189Q262 190 264 192T276 205L324 256Q327 256 330 253Q321 242 310 229T292 207T285 197Q291 198 301 200T317 204Q319 204 321 204T327 205Q361 205 372 191T383
159Q383 144 372 131T344 111T307 103Z" />
<glyph unicode="&#xe8;" glyph-name="egrave" horiz-adv-x="225" d="M87 -12Q57 -12 37 6T17 70Q17 82 19 96Q28 147 61 193Q102 249 146 249Q169 249 189 237T209 200Q209 173 187 144H207Q212 144 213 143Q213 137 176 130Q154 105 143 105Q141 105 141 107Q141
106 156 127Q143 127 122 126T70 120Q59 90 59 64Q59 31 77 16Q88 6 104 6Q107 6 110 6T116 7Q180 18 240 81Q245 88 248 83Q249 82 249 80Q249 76 243 70Q222 43 177 17Q127 -12 87 -12ZM80 141Q94 142 116 142L166 143Q177 165 180 178Q183 191 183 199Q183 220
167 220Q147 220 123 196Q109 182 98 169T80 141ZM186 564Q184 562 130 586Q80 608 75 617Q73 619 73 624Q73 629 78 632T91 635Q103 635 115 626L187 571L188 570V568Q188 566 186 564Z" />
<glyph unicode="&#xe9;" glyph-name="eacute" horiz-adv-x="225" d="M87 -12Q57 -12 37 6T17 70Q17 82 19 96Q28 147 61 193Q102 249 146 249Q169 249 189 237T209 200Q209 173 187 144H207Q212 144 213 143Q213 137 176 130Q154 105 143 105Q141 105 141 107Q141
106 156 127Q143 127 122 126T70 120Q59 90 59 64Q59 31 77 16Q88 6 104 6Q107 6 110 6T116 7Q180 18 240 81Q245 88 248 83Q249 82 249 80Q249 76 243 70Q222 43 177 17Q127 -12 87 -12ZM80 141Q94 142 116 142L166 143Q177 165 180 178Q183 191 183 199Q183 220
167 220Q147 220 123 196Q109 182 98 169T80 141ZM133 563Q131 565 131 567V569L132 570L204 625Q216 634 228 634Q237 634 243 629T244 616Q239 607 189 585Q137 561 133 563Z" />
<glyph unicode="&#xea;" glyph-name="ecircumflex" horiz-adv-x="225" d="M87 -12Q57 -12 37 6T17 70Q17 82 19 96Q28 147 61 193Q102 249 146 249Q169 249 189 237T209 200Q209 173 187 144H207Q212 144 213 143Q213 137 176 130Q154 105 143 105Q141 105 141
107Q141 106 156 127Q143 127 122 126T70 120Q59 90 59 64Q59 31 77 16Q88 6 104 6Q107 6 110 6T116 7Q180 18 240 81Q245 88 248 83Q249 82 249 80Q249 76 243 70Q222 43 177 17Q127 -12 87 -12ZM80 141Q94 142 116 142L166 143Q177 165 180 178Q183 191 183 199Q183
220 167 220Q147 220 123 196Q109 182 98 169T80 141ZM493 558Q486 558 483 562L448 616L345 562Q341 559 332 559Q325 558 325 562L441 642Q448 643 453 643T462 644Q471 644 471 642L498 562Q499 559 497 558H493Z" />
<glyph unicode="&#xeb;" glyph-name="edieresis" horiz-adv-x="225" d="M87 -12Q57 -12 37 6T17 70Q17 82 19 96Q28 147 61 193Q102 249 146 249Q169 249 189 237T209 200Q209 173 187 144H207Q212 144 213 143Q213 137 176 130Q154 105 143 105Q141 105 141 107Q141
106 156 127Q143 127 122 126T70 120Q59 90 59 64Q59 31 77 16Q88 6 104 6Q107 6 110 6T116 7Q180 18 240 81Q245 88 248 83Q249 82 249 80Q249 76 243 70Q222 43 177 17Q127 -12 87 -12ZM80 141Q94 142 116 142L166 143Q177 165 180 178Q183 191 183 199Q183 220
167 220Q147 220 123 196Q109 182 98 169T80 141ZM196 568Q191 568 185 576T179 591Q179 597 185 603T202 619Q208 624 214 626T224 629Q234 629 229 621L217 590Q208 568 196 568ZM95 568Q90 568 84 576T78 591Q78 602 101 619Q117 629 125 628T128 621L116 589Q112
578 106 573T95 568Z" />
<glyph unicode="&#xec;" glyph-name="igrave" horiz-adv-x="136" d="M62 1Q29 1 29 57V69Q29 75 30 82Q32 95 36 114T47 159L63 216Q64 223 83 223Q108 223 106 212Q106 199 99 184Q91 163 81 162Q78 160 66 76Q64 62 64 54Q64 23 80 23Q92 23 112 40Q139 61 173
91Q177 94 180 92Q181 90 180 86Q163 59 118 26Q84 1 62 1ZM371 538Q369 536 315 560Q265 582 260 591Q258 593 258 598Q258 603 263 606T276 609Q288 609 300 600L372 545L373 544V542Q373 540 371 538Z" />
<glyph unicode="&#xed;" glyph-name="iacute" horiz-adv-x="136" d="M62 1Q29 1 29 57V69Q29 75 30 82Q32 95 36 114T47 159L63 216Q64 223 83 223Q108 223 106 212Q106 199 99 184Q91 163 81 162Q78 160 66 76Q64 62 64 54Q64 23 80 23Q92 23 112 40Q139 61 173
91Q177 94 180 92Q181 90 180 86Q163 59 118 26Q84 1 62 1ZM318 537Q316 539 316 541V543L317 544L389 599Q401 608 413 608Q422 608 428 603T429 590Q424 581 374 559Q322 535 318 537Z" />
<glyph unicode="&#xee;" glyph-name="icircumflex" horiz-adv-x="136" d="M62 1Q29 1 29 57V69Q29 75 30 82Q32 95 36 114T47 159L63 216Q64 223 83 223Q108 223 106 212Q106 199 99 184Q91 163 81 162Q78 160 66 76Q64 62 64 54Q64 23 80 23Q92 23 112 40Q139
61 173 91Q177 94 180 92Q181 90 180 86Q163 59 118 26Q84 1 62 1ZM422 532Q415 532 412 536L377 590L274 536Q270 533 261 533Q254 532 254 536L370 616Q377 617 382 617T391 618Q400 618 400 616L427 536Q428 533 426 532H422Z" />
<glyph unicode="&#xef;" glyph-name="idieresis" horiz-adv-x="136" d="M62 1Q29 1 29 57V69Q29 75 30 82Q32 95 36 114T47 159L63 216Q64 223 83 223Q108 223 106 212Q106 199 99 184Q91 163 81 162Q78 160 66 76Q64 62 64 54Q64 23 80 23Q92 23 112 40Q139 61
173 91Q177 94 180 92Q181 90 180 86Q163 59 118 26Q84 1 62 1ZM381 542Q376 542 370 550T364 565Q364 571 370 577T387 593Q393 598 399 600T409 603Q419 603 414 595L402 564Q393 542 381 542ZM280 542Q275 542 269 550T263 565Q263 576 286 593Q302 603 310
602T313 595L301 563Q297 552 291 547T280 542Z" />
<glyph unicode="&#xf0;" glyph-name="eth" horiz-adv-x="245" d="M92 -3Q42 -3 42 73Q42 154 105 214Q153 260 195 260Q233 260 233 213Q233 193 224 164Q245 217 245 277Q245 312 238 344T218 407Q217 409 216 411Q206 405 195 399T169 387Q156 382 152 382Q146
382 146 388Q146 398 165 414Q177 424 199 433Q201 434 203 435Q171 482 124 482Q122 482 119 482T110 481Q106 480 103 480T96 479Q87 479 87 485Q87 502 132 502Q200 502 236 445Q245 448 255 451T276 458Q298 465 301 460V459Q301 454 283 445Q275 441 266 437T246
428Q273 376 273 304Q273 165 202 65Q152 -3 92 -3ZM94 2Q135 2 199 125Q210 145 215 165T221 204Q221 244 195 244Q165 244 131 195Q76 118 76 37Q76 2 94 2Z" />
<glyph unicode="&#xf1;" glyph-name="ntilde" horiz-adv-x="253" d="M207 -26Q155 -26 155 41Q155 77 170 131L186 188L116 108Q91 79 77 60T60 33Q48 1 23 1Q14 1 17 10L33 72Q41 101 44 125T47 169Q47 177 46 183T45 195Q45 208 58 219T84 230Q99 230 96 213Q93
196 90 179T83 144L67 71Q127 126 194 231Q198 238 213 238Q237 238 238 228Q240 219 230 192Q215 148 209 123Q194 60 194 23Q194 -13 210 -13Q228 -13 251 7Q272 25 271 25Q274 25 272 17Q271 9 262 0Q236 -26 207 -26ZM176 555Q169 555 159 556T136 565Q114
577 100 577Q86 577 74 566Q63 556 58 556Q57 556 57 557Q57 564 65 571T90 591Q101 599 118 599Q131 599 155 590Q166 586 175 584T191 582Q208 582 223 599Q227 599 227 596Q227 586 196 561Q189 555 176 555Z" />
<glyph unicode="&#xf2;" glyph-name="ograve" horiz-adv-x="235" d="M85 -12Q60 -12 44 11T28 70Q28 99 38 129Q75 241 129 246Q135 253 146 253Q166 253 185 235T207 197Q220 181 245 181Q253 181 269 183Q285 185 293 185Q297 185 295 180Q294 176 285 171Q267
162 240 160H228Q211 160 203 164Q208 126 167 55Q130 -12 85 -12ZM91 8Q117 8 147 55Q155 68 162 84T175 120Q185 154 183 169Q146 175 140 212Q113 204 88 143Q65 86 65 51Q65 8 91 8ZM178 568Q176 566 122 590Q72 612 67 621Q65 623 65 628Q65 633 70 636T83
639Q95 639 107 630L179 575L180 574V572Q180 570 178 568Z" />
<glyph unicode="&#xf3;" glyph-name="oacute" horiz-adv-x="235" d="M85 -12Q60 -12 44 11T28 70Q28 99 38 129Q75 241 129 246Q135 253 146 253Q166 253 185 235T207 197Q220 181 245 181Q253 181 269 183Q285 185 293 185Q297 185 295 180Q294 176 285 171Q267
162 240 160H228Q211 160 203 164Q208 126 167 55Q130 -12 85 -12ZM91 8Q117 8 147 55Q155 68 162 84T175 120Q185 154 183 169Q146 175 140 212Q113 204 88 143Q65 86 65 51Q65 8 91 8ZM125 567Q123 569 123 571V573L124 574L196 629Q208 638 220 638Q229 638
235 633T236 620Q231 611 181 589Q129 565 125 567Z" />
<glyph unicode="&#xf4;" glyph-name="ocircumflex" horiz-adv-x="235" d="M85 -12Q60 -12 44 11T28 70Q28 99 38 129Q75 241 129 246Q135 253 146 253Q166 253 185 235T207 197Q220 181 245 181Q253 181 269 183Q285 185 293 185Q297 185 295 180Q294 176 285
171Q267 162 240 160H228Q211 160 203 164Q208 126 167 55Q130 -12 85 -12ZM91 8Q117 8 147 55Q155 68 162 84T175 120Q185 154 183 169Q146 175 140 212Q113 204 88 143Q65 86 65 51Q65 8 91 8ZM485 562Q478 562 475 566L440 620L337 566Q333 563 324 563Q317
562 317 566L433 646Q440 647 445 647T454 648Q463 648 463 646L490 566Q491 563 489 562H485Z" />
<glyph unicode="&#xf5;" glyph-name="otilde" horiz-adv-x="235" d="M85 -12Q60 -12 44 11T28 70Q28 99 38 129Q75 241 129 246Q135 253 146 253Q166 253 185 235T207 197Q220 181 245 181Q253 181 269 183Q285 185 293 185Q297 185 295 180Q294 176 285 171Q267
162 240 160H228Q211 160 203 164Q208 126 167 55Q130 -12 85 -12ZM91 8Q117 8 147 55Q155 68 162 84T175 120Q185 154 183 169Q146 175 140 212Q113 204 88 143Q65 86 65 51Q65 8 91 8ZM180 570Q173 570 163 571T140 580Q118 592 104 592Q90 592 78 581Q67 571
62 571Q61 571 61 572Q61 579 69 586T94 606Q105 614 122 614Q135 614 159 605Q170 601 179 599T195 597Q212 597 227 614Q231 614 231 611Q231 601 200 576Q193 570 180 570Z" />
<glyph unicode="&#xf6;" glyph-name="odieresis" horiz-adv-x="235" d="M85 -12Q60 -12 44 11T28 70Q28 99 38 129Q75 241 129 246Q135 253 146 253Q166 253 185 235T207 197Q220 181 245 181Q253 181 269 183Q285 185 293 185Q297 185 295 180Q294 176 285 171Q267
162 240 160H228Q211 160 203 164Q208 126 167 55Q130 -12 85 -12ZM91 8Q117 8 147 55Q155 68 162 84T175 120Q185 154 183 169Q146 175 140 212Q113 204 88 143Q65 86 65 51Q65 8 91 8ZM188 572Q183 572 177 580T171 595Q171 601 177 607T194 623Q200 628 206
630T216 633Q226 633 221 625L209 594Q200 572 188 572ZM87 572Q82 572 76 580T70 595Q70 606 93 623Q109 633 117 632T120 625L108 593Q104 582 98 577T87 572Z" />
<glyph unicode="&#xf7;" glyph-name="divide" horiz-adv-x="283" d="M154 277Q122 277 122 308Q122 339 154 339Q186 339 186 308Q186 277 154 277ZM258 192L24 193V212L25 213L259 212V193L258 192ZM142 60Q110 60 110 91Q110 121 142 121Q174 121 174 91Q174
60 142 60Z" />
<glyph unicode="&#xf8;" glyph-name="oslash" horiz-adv-x="235" d="M13 -94Q10 -94 10 -91Q10 -86 13 -83Q26 -65 37 -45T59 -4Q45 6 37 25T28 70Q28 99 38 129Q75 241 129 246Q135 253 146 253Q164 253 182 238Q208 285 226 306Q243 327 258 327Q269 327 277
320Q281 316 281 309Q281 305 279 305Q277 305 273 309Q268 312 265 312Q245 312 196 228L194 225Q206 212 207 197Q220 181 245 181Q253 181 269 183Q285 185 293 185Q297 185 295 180Q294 176 285 171Q267 162 240 160H228Q211 160 203 164Q208 126 167 55Q130
-12 85 -12Q80 -12 72 -10Q56 -39 43 -58T18 -90Q14 -94 13 -94ZM71 20L96 67L127 130Q140 158 153 183Q143 193 140 212Q113 204 88 143Q65 86 65 51Q65 30 71 20ZM91 8Q117 8 147 55Q155 68 162 84T175 120Q185 154 183 169Q172 171 166 174L106 55Q95 32 82
9Q85 8 91 8Z" />
<glyph unicode="&#xf9;" glyph-name="ugrave" horiz-adv-x="281" d="M61 -4Q23 1 23 49Q23 123 96 232Q101 240 121 240Q152 240 152 230L151 228Q139 216 126 197T98 152Q74 109 61 71Q54 53 54 38Q54 18 67 18Q82 18 104 40Q112 48 184 151Q199 171 208 171Q215
171 215 154Q215 145 215 137T214 120Q214 17 255 17Q282 17 316 52L334 71Q337 73 340 67Q336 56 305 30Q266 -3 234 -3Q225 -3 216 0Q189 9 179 63Q172 103 173 113Q167 102 134 55Q87 -8 61 -4ZM226 555Q224 553 170 577Q120 599 115 608Q113 610 113 615Q113
620 118 623T131 626Q143 626 155 617L227 562L228 561V559Q228 557 226 555Z" />
<glyph unicode="&#xfa;" glyph-name="uacute" horiz-adv-x="281" d="M61 -4Q23 1 23 49Q23 123 96 232Q101 240 121 240Q152 240 152 230L151 228Q139 216 126 197T98 152Q74 109 61 71Q54 53 54 38Q54 18 67 18Q82 18 104 40Q112 48 184 151Q199 171 208 171Q215
171 215 154Q215 145 215 137T214 120Q214 17 255 17Q282 17 316 52L334 71Q337 73 340 67Q336 56 305 30Q266 -3 234 -3Q225 -3 216 0Q189 9 179 63Q172 103 173 113Q167 102 134 55Q87 -8 61 -4ZM173 554Q171 556 171 558V560L172 561L244 616Q256 625 268 625Q277
625 283 620T284 607Q279 598 229 576Q177 552 173 554Z" />
<glyph unicode="&#xfb;" glyph-name="ucircumflex" horiz-adv-x="281" d="M61 -4Q23 1 23 49Q23 123 96 232Q101 240 121 240Q152 240 152 230L151 228Q139 216 126 197T98 152Q74 109 61 71Q54 53 54 38Q54 18 67 18Q82 18 104 40Q112 48 184 151Q199 171 208
171Q215 171 215 154Q215 145 215 137T214 120Q214 17 255 17Q282 17 316 52L334 71Q337 73 340 67Q336 56 305 30Q266 -3 234 -3Q225 -3 216 0Q189 9 179 63Q172 103 173 113Q167 102 134 55Q87 -8 61 -4ZM277 549Q270 549 267 553L232 607L129 553Q125 550 116
550Q109 549 109 553L225 633Q232 634 237 634T246 635Q255 635 255 633L282 553Q283 550 281 549H277Z" />
<glyph unicode="&#xfc;" glyph-name="udieresis" horiz-adv-x="281" d="M61 -4Q23 1 23 49Q23 123 96 232Q101 240 121 240Q152 240 152 230L151 228Q139 216 126 197T98 152Q74 109 61 71Q54 53 54 38Q54 18 67 18Q82 18 104 40Q112 48 184 151Q199 171 208 171Q215
171 215 154Q215 145 215 137T214 120Q214 17 255 17Q282 17 316 52L334 71Q337 73 340 67Q336 56 305 30Q266 -3 234 -3Q225 -3 216 0Q189 9 179 63Q172 103 173 113Q167 102 134 55Q87 -8 61 -4ZM236 559Q231 559 225 567T219 582Q219 588 225 594T242 610Q248
615 254 617T264 620Q274 620 269 612L257 581Q248 559 236 559ZM135 559Q130 559 124 567T118 582Q118 593 141 610Q157 620 165 619T168 612L156 580Q152 569 146 564T135 559Z" />
<glyph unicode="&#xfd;" glyph-name="yacute" horiz-adv-x="242" d="M-153 -353Q-240 -353 -264 -279Q-270 -263 -270 -247Q-270 -187 -208 -143Q-120 -83 141 -15Q151 6 163 73L181 166Q140 91 94 38Q90 27 79 13T58 -2Q51 -2 51 9Q51 16 52 21Q66 91 66 122Q66
167 45 167Q37 167 23 159Q18 156 16 156Q12 156 12 159Q12 166 21 171Q46 190 67 190Q76 190 83 186Q102 176 102 127Q102 92 95 65Q111 85 133 114T184 183Q188 216 211 216Q225 216 225 208Q225 180 207 101Q189 19 176 -7Q207 0 210 17Q212 28 218 28Q222 28
222 20Q222 -10 168 -25Q138 -109 87 -184Q29 -269 -32 -311T-153 -353ZM-151 -324Q-38 -324 36 -226Q69 -183 136 -31Q67 -47 -39 -90Q-150 -135 -202 -171Q-258 -209 -258 -251Q-258 -260 -255 -269Q-237 -324 -151 -324ZM100 530Q98 532 98 534V536L99 537L171
592Q183 601 195 601Q204 601 210 596T211 583Q206 574 156 552Q104 528 100 530Z" />
<glyph unicode="&#xfe;" glyph-name="thorn" horiz-adv-x="226" d="M23 -247Q20 -247 17 -247T8 -245Q-13 -242 -25 -219T-38 -165Q-38 -158 -38 -152T-36 -140Q-13 -34 81 228Q68 235 69 238Q74 256 92 261Q112 319 124 354T142 408T151 437T155 455V458Q155
463 153 469T143 482L140 485Q140 490 145 490Q147 490 153 488Q173 481 183 471T191 453L182 421Q181 418 176 401T162 360T146 313T132 272T125 251Q185 213 196 141Q196 136 200 136Q206 136 223 147Q251 166 248 166Q253 166 249 159Q246 153 239 149L197 123Q193
18 117 -2Q113 -3 109 -3T102 -4Q79 -4 79 19Q79 45 103 73L119 87Q126 93 137 102T162 123Q162 146 146 178Q130 212 112 220Q108 222 59 68Q6 -94 -1 -149Q-7 -192 -7 -197Q-7 -233 19 -238Q29 -239 29 -244Q29 -247 23 -247ZM113 17Q141 17 156 60Q163 80 163
96Q163 105 162 109Q122 73 109 52Q101 38 101 29Q101 17 113 17Z" />
<glyph unicode="&#xff;" glyph-name="ydieresis" horiz-adv-x="242" d="M-153 -353Q-240 -353 -264 -279Q-270 -263 -270 -247Q-270 -187 -208 -143Q-120 -83 141 -15Q151 6 163 73L181 166Q140 91 94 38Q90 27 79 13T58 -2Q51 -2 51 9Q51 16 52 21Q66 91 66 122Q66
167 45 167Q37 167 23 159Q18 156 16 156Q12 156 12 159Q12 166 21 171Q46 190 67 190Q76 190 83 186Q102 176 102 127Q102 92 95 65Q111 85 133 114T184 183Q188 216 211 216Q225 216 225 208Q225 180 207 101Q189 19 176 -7Q207 0 210 17Q212 28 218 28Q222 28
222 20Q222 -10 168 -25Q138 -109 87 -184Q29 -269 -32 -311T-153 -353ZM-151 -324Q-38 -324 36 -226Q69 -183 136 -31Q67 -47 -39 -90Q-150 -135 -202 -171Q-258 -209 -258 -251Q-258 -260 -255 -269Q-237 -324 -151 -324ZM419 535Q414 535 408 543T402 558Q402
564 408 570T425 586Q431 591 437 593T447 596Q457 596 452 588L440 557Q431 535 419 535ZM318 535Q313 535 307 543T301 558Q301 569 324 586Q340 596 348 595T351 588L339 556Q335 545 329 540T318 535Z" />
<glyph unicode="&#x2013;" glyph-name="endash" horiz-adv-x="554" d="M68 155Q30 153 30 166Q30 187 83 205Q110 213 180 213Q286 213 388 201Q428 197 428 186Q428 175 388 174Q316 173 227 165Q179 161 140 159L68 155Z" />
<glyph unicode="&#x2014;" glyph-name="emdash" horiz-adv-x="681" d="M68 155Q30 153 30 166Q30 187 83 205Q110 213 247 213Q514 213 615 201Q656 196 656 186Q656 174 615 174Q500 172 364 167T68 155Z" />
<glyph unicode="&#x2018;" glyph-name="quoteleft" horiz-adv-x="259" d="M74 340Q46 340 40 378Q36 403 76 458Q85 470 96 485T122 517Q136 530 145 530Q151 530 151 523Q151 510 133 491Q101 457 95 425Q118 423 118 388Q118 368 104 354T74 340Z" />
<glyph unicode="&#x2019;" glyph-name="quoteright" horiz-adv-x="239" d="M154 334Q148 334 148 341Q148 353 166 373Q198 407 204 440Q182 441 182 476Q182 496 195 510T226 524Q254 524 260 486Q263 461 224 406Q205 381 178 348Q162 334 154 334Z" />
<glyph unicode="&#x201a;" glyph-name="quotesinglbase" horiz-adv-x="142" d="M73 -134Q71 -134 71 -132Q71 -126 83 -112Q111 -80 133 -40Q117 -39 117 -13Q117 20 155 20Q180 20 184 -8Q187 -29 152 -73Q136 -92 123 -105T96 -125Q79 -134 73 -134Z" />
<glyph unicode="&#x201c;" glyph-name="quotedblleft" horiz-adv-x="300" d="M84 340Q55 340 50 378Q46 403 86 458Q90 464 95 471T106 485L132 516Q149 530 155 530Q161 530 161 523Q161 511 143 491Q111 456 105 424Q127 423 127 387Q127 368 114 354T84 340ZM202
340Q174 340 169 378Q165 403 205 458Q209 464 214 471T225 485L251 516Q265 530 274 530Q280 530 280 523Q280 511 262 491Q230 456 224 424Q246 423 246 387Q246 368 233 354T202 340Z" />
<glyph unicode="&#x201d;" glyph-name="quotedblright" horiz-adv-x="340" d="M195 334Q189 334 189 341Q189 354 207 372Q239 407 244 439Q222 440 222 476Q222 496 236 510T266 524Q294 524 300 485Q304 461 264 406Q255 394 244 379T218 347Q205 334 195 334ZM76
334Q70 334 70 341Q70 354 88 372Q120 407 126 439Q104 440 104 476Q104 496 117 510T147 524Q175 524 181 485Q185 461 145 406Q137 394 125 379T99 347Q86 334 76 334Z" />
<glyph unicode="&#x201e;" glyph-name="quotedblbase" horiz-adv-x="226" d="M129 -81L148 78Q152 109 182 109Q201 109 201 89Q201 72 174 5Q168 -11 159 -32L139 -81H129ZM27 -81L45 77Q46 89 56 99T79 109Q97 109 97 90Q97 72 71 5L56 -33Q47 -55 36 -81H27Z" />
<glyph unicode="&#x2022;" glyph-name="bullet" horiz-adv-x="460" d="M229 164Q184 164 153 195T122 271Q122 316 153 347T229 378Q274 378 305 347T336 271Q336 226 305 195T229 164Z" />
<glyph unicode="&#x2039;" glyph-name="guilsinglleft" horiz-adv-x="336" d="M146 19L138 22Q133 34 129 52T119 93L103 165Q296 284 300 283L307 281V274Q302 265 285 250Q267 234 236 212L158 157L157 31L152 22L146 19Z" />
<glyph unicode="&#x203a;" glyph-name="guilsinglright" horiz-adv-x="275" d="M33 19L26 21L25 25Q25 37 99 91L175 146V271L180 280L187 283L196 280Q204 260 229 138L40 20L33 19Z" />
</font>
</defs>
</svg>
