<?xml version="1.0" standalone="no"?>
<!DOCTYPE svg PUBLIC "-//W3C//DTD SVG 1.1//EN" "http://www.w3.org/Graphics/SVG/1.1/DTD/svg11.dtd">
<svg xmlns="http://www.w3.org/2000/svg">
<defs >
<font id="Varta" horiz-adv-x="972" ><font-face
    font-family="Varta Light"
    units-per-em="2048"
    panose-1="0 0 0 0 0 0 0 0 0 0"
    ascent="1902"
    descent="-1068"
    alphabetic="0" />
<glyph unicode=" " horiz-adv-x="414" />
<glyph unicode="!" horiz-adv-x="583" d="M237 401L216 1187L212 1372H371L368 1187L346 401H237ZM292 -25Q245 -25 210 9T175 98Q175 154 210 188T292 223Q340 223 374 189T409 98Q409 44 375 10T292 -25Z" />
<glyph unicode="&quot;" horiz-adv-x="853" d="M201 880L170 1233L165 1414H333L329 1233L298 880H201ZM553 880L522 1233L517 1414H685L681 1233L650 880H553Z" />
<glyph unicode="#" horiz-adv-x="1013" d="M185 0L237 421H73V532H250L288 841H114V953H301L349 1331H453L405 953H682L731 1331H835L786 953H951V841H773L735 532H910V421H722L671 0H567L617 421H341L290 0H185ZM355 532H631L669 841H393L355 532Z" />
<glyph unicode="$" horiz-adv-x="1013" d="M456 -225V-23Q356 -13 264 24T108 121L182 231Q247 175 326 141T502 107Q617 107 676 166T735 323Q735 409 693 464T586 559T448 634T310 714T203 823T161 989Q161 1126 242 1216T456 1327V1532H573V1329Q671 1319 739
1284T862 1191L777 1095Q720 1150 666 1174T525 1199Q430 1199 373 1144T315 997Q315 921 356 872T463 788T602 718T741 636T848 518T890 335Q890 189 804 95T573 -19V-225H456Z" />
<glyph unicode="%" horiz-adv-x="1683" d="M415 -25L1157 1369H1265L522 -25H415ZM376 521Q239 521 156 632T73 947Q73 1150 156 1259T376 1369Q513 1369 596 1260T679 947Q679 744 596 633T376 521ZM376 621Q457 621 507 703T557 947Q557 1110 507 1190T376 1271Q294
1271 244 1191T194 947Q194 786 244 704T376 621ZM1308 -25Q1171 -25 1088 86T1005 401Q1005 604 1088 713T1308 823Q1444 823 1527 714T1611 401Q1611 197 1528 86T1308 -25ZM1308 75Q1389 75 1439 157T1489 401Q1489 563 1439 643T1308 724Q1227 724 1177 644T1126
401Q1126 240 1176 158T1308 75Z" />
<glyph unicode="&amp;" horiz-adv-x="1237" d="M473 -25Q354 -25 262 23T119 154T67 347Q67 439 105 508T205 632T335 735Q292 819 269 900T245 1055Q245 1144 282 1215T388 1327T548 1369Q671 1369 740 1297T810 1109Q810 1016 765 946T651 820T506 709Q571 602
662 500T850 318Q914 402 962 503T1042 723H1189Q1150 589 1092 467T955 239Q1024 191 1087 157T1208 106L1164 -25Q1094 -4 1017 35T858 132Q782 62 687 19T473 -25ZM491 102Q563 102 630 133T753 216Q654 304 561 410T397 628Q322 570 271 506T220 357Q220 242
299 172T491 102ZM447 810Q509 852 562 894T648 987T680 1104Q680 1164 648 1209T546 1255Q469 1255 425 1198T381 1057Q381 999 399 936T447 810Z" />
<glyph unicode="&apos;" horiz-adv-x="501" d="M201 880L170 1233L165 1414H333L329 1233L298 880H201Z" />
<glyph unicode="(" horiz-adv-x="613" d="M440 -360Q356 -223 296 -82T203 219T170 568Q170 758 202 918T295 1220T440 1499L538 1452Q419 1258 361 1037T303 568Q303 321 361 101T538 -313L440 -360Z" />
<glyph unicode=")" horiz-adv-x="613" d="M176 -360Q260 -223 320 -82T413 219T446 568Q446 758 414 918T321 1220T176 1499L78 1452Q197 1258 255 1037T313 568Q313 321 255 101T78 -313L176 -360Z" />
<glyph unicode="*" horiz-adv-x="850" d="M360 869L266 956L312 1049L143 1126L194 1240L290 1224L313 1415L435 1401L454 1302L638 1339L662 1217L576 1172L670 1002L563 940L490 1017L360 869Z" />
<glyph unicode="+" horiz-adv-x="1013" d="M443 215V616H70V736H443V1137H569V736H943V616H569V215H443Z" />
<glyph unicode="," horiz-adv-x="501" d="M136 -361L96 -272Q179 -233 228 -159T278 -1Q272 -2 267 -2T256 -3Q209 -3 174 26T139 110Q139 163 175 193T259 223Q323 223 359 173T396 32Q396 -97 326 -203T136 -361Z" />
<glyph unicode="-" horiz-adv-x="634" d="M84 452V574H552V452H84Z" />
<glyph unicode="." horiz-adv-x="501" d="M251 -25Q204 -25 169 9T134 98Q134 154 169 188T251 223Q299 223 333 189T368 98Q368 44 334 10T251 -25Z" />
<glyph unicode="/" horiz-adv-x="719" d="M20 -328L578 1454H695L138 -328H20Z" />
<glyph unicode="0" horiz-adv-x="1013" d="M506 -25Q307 -25 199 163T91 683Q91 1016 199 1192T506 1369Q705 1369 813 1193T921 683Q921 352 813 164T506 -25ZM506 102Q627 102 697 246T768 683Q768 976 698 1109T506 1243Q386 1243 316 1110T245 683Q245 391
315 247T506 102Z" />
<glyph unicode="1" horiz-adv-x="1013" d="M163 0V130H463V1161L226 1147V1253Q314 1269 380 1292T500 1348H621V130H892V0H163Z" />
<glyph unicode="2" horiz-adv-x="1013" d="M82 0V93Q381 392 541 605T701 979Q701 1094 639 1167T446 1241Q363 1241 292 1197T164 1086L73 1177Q153 1265 246 1317T465 1369Q647 1369 751 1266T855 988Q855 862 785 726T593 441T313 124Q366 129 423 132T531
136H920V0H82Z" />
<glyph unicode="3" horiz-adv-x="1013" d="M483 -25Q326 -25 223 32T54 160L135 264Q194 201 275 154T474 106Q595 106 671 173T748 357Q748 437 708 497T576 590T326 624V746Q467 746 549 785T666 886T702 1018Q702 1125 640 1183T471 1241Q388 1241 318 1206T189
1112L104 1212Q179 1282 271 1325T478 1369Q653 1369 757 1278T862 1029Q862 910 796 822T623 694V686Q742 660 825 574T908 353Q908 238 853 153T701 22T483 -25Z" />
<glyph unicode="4" horiz-adv-x="1013" d="M625 0V365H35V467L601 1348H774V492H954V365H774V0H625ZM202 492H625V923Q625 957 626 1003T630 1094T634 1174H626Q601 1128 574 1083T519 990L202 492Z" />
<glyph unicode="5" horiz-adv-x="1013" d="M477 -25Q320 -25 222 29T58 151L135 254Q194 196 269 151T463 106Q544 106 610 145T716 256T756 425Q756 564 681 651T471 738Q403 738 354 717T245 657L159 711L202 1348H848V1212H340L304 803Q351 829 400 843T510
858Q623 858 715 811T861 668T915 429Q915 285 853 184T690 29T477 -25Z" />
<glyph unicode="6" horiz-adv-x="1013" d="M547 -25Q419 -25 318 51T158 274T99 632Q99 900 169 1061T352 1296T595 1369Q699 1369 774 1335T903 1241L816 1142Q776 1190 719 1213T600 1237Q507 1237 429 1185T302 1008T250 668Q312 745 394 788T558 832Q728 832
828 724T929 400Q929 275 877 180T738 30T547 -25ZM547 101Q613 101 666 139T749 244T780 400Q780 545 719 628T533 711Q470 711 396 673T253 540Q266 340 341 221T547 101Z" />
<glyph unicode="7" horiz-adv-x="1013" d="M365 0Q375 249 415 456T537 848T747 1212H90V1348H927V1252Q810 1102 736 959T619 668T556 356T529 0H365Z" />
<glyph unicode="8" horiz-adv-x="1013" d="M510 -25Q388 -25 292 24T140 156T84 343Q84 428 119 499T210 625T329 711V719Q256 770 203 848T149 1030Q149 1130 195 1206T325 1326T518 1369Q689 1369 785 1271T882 1020Q882 951 854 887T783 772T701 690V681Q759
648 811 600T895 485T928 331Q928 234 879 153T736 24T510 -25ZM514 93Q641 93 709 163T777 335Q777 422 726 480T591 581T413 663Q331 610 279 529T227 356Q227 283 264 224T367 129T514 93ZM603 732Q671 792 708 865T745 1013Q745 1111 686 1181T516 1252Q413
1252 354 1190T295 1030Q295 950 337 895T450 802T603 732Z" />
<glyph unicode="9" horiz-adv-x="1013" d="M461 -25Q359 -25 284 9T147 107L229 206Q263 162 328 134T456 106Q550 106 617 160T723 338T763 670Q705 592 621 550T453 508Q283 508 183 624T82 941Q82 1065 136 1162T280 1314T472 1369Q605 1369 703 1300T856 1086T911
709Q911 452 854 290T696 52T461 -25ZM479 627Q542 627 616 664T759 797Q759 1012 684 1128T473 1245Q407 1245 352 1205T264 1097T231 941Q231 855 258 784T340 670T479 627Z" />
<glyph unicode=":" horiz-adv-x="501" d="M251 720Q204 720 169 754T134 843Q134 899 169 933T251 968Q299 968 333 934T368 843Q368 789 334 755T251 720ZM251 -25Q204 -25 169 9T134 98Q134 154 169 188T251 223Q299 223 333 189T368 98Q368 44 334 10T251 -25Z" />
<glyph unicode=";" horiz-adv-x="501" d="M382 -361L342 -272Q425 -233 474 -159T524 -1Q518 -2 513 -2T502 -3Q455 -3 420 26T385 110Q385 163 421 193T505 223Q569 223 605 173T642 32Q642 -97 572 -203T382 -361ZM251 723Q204 723 169 757T134 846Q134 902
169 936T251 971Q299 971 333 937T368 846Q368 792 334 758T251 723Z" />
<glyph unicode="&lt;" horiz-adv-x="1013" d="M943 273L70 615V745L943 1088V950L231 684V676L943 410V273Z" />
<glyph unicode="=" horiz-adv-x="1013" d="M70 834V954H943V834H70ZM70 398V518H943V398H70Z" />
<glyph unicode="&gt;" horiz-adv-x="1013" d="M70 273L943 615V745L70 1088V950L782 684V676L70 410V273Z" />
<glyph unicode="?" horiz-adv-x="863" d="M328 401Q313 501 337 574T406 706T497 817T578 930T611 1065Q611 1160 561 1212T405 1264Q332 1264 272 1234T164 1148L73 1236Q137 1309 225 1353T419 1397Q583 1397 674 1316T765 1074Q765 984 731 917T649 793T554
680T482 557T467 401H328ZM403 -25Q355 -25 321 9T287 98Q287 154 321 188T403 223Q452 223 486 189T521 98Q521 44 487 10T403 -25Z" />
<glyph unicode="@" horiz-adv-x="1725" d="M821 -265Q671 -265 541 -218T313 -77T160 152T104 466Q104 671 172 837T358 1123T629 1305T952 1369Q1159 1369 1308 1285T1539 1048T1621 695Q1621 517 1560 396T1406 214T1222 153Q1139 153 1081 192T1012 308H1008Q957
248 894 209T758 169Q655 169 585 242T514 456Q514 538 541 621T619 773T743 886T905 929Q959 929 1000 905T1071 830H1075L1097 912H1202L1123 506Q1061 261 1236 261Q1301 261 1363 312T1467 459T1509 689Q1509 856 1444 986T1252 1190T940 1265Q802 1265 673
1209T442 1049T279 798T219 472Q219 272 298 131T517 -85T833 -160Q928 -160 1012 -134T1166 -67L1209 -159Q1120 -213 1024 -239T821 -265ZM787 277Q832 277 880 307T981 400L1041 730Q1011 779 981 798T907 818Q824 818 765 763T673 627T641 466Q641 363 683
320T787 277Z" />
<glyph unicode="A" horiz-adv-x="1097" d="M1 0L459 1345H638L1096 0H927L794 418H297L164 0H1ZM337 546H754L686 758Q650 871 617 983T551 1213H542Q510 1095 477 983T407 758L337 546Z" />
<glyph unicode="B" horiz-adv-x="1191" d="M181 0V1345H581Q718 1345 819 1313T977 1210T1034 1020Q1034 918 980 835T799 724V716Q947 701 1029 619T1112 396Q1112 263 1049 175T873 44T610 0H181ZM341 127H585Q761 127 858 194T955 403Q955 531 861 590T586
649H341V127ZM341 768H549Q725 768 801 829T877 1007Q877 1121 799 1169T560 1218H341V768Z" />
<glyph unicode="C" horiz-adv-x="1157" d="M683 -25Q515 -25 384 56T177 294T101 672Q101 894 177 1049T388 1287T694 1369Q813 1369 908 1321T1062 1206L971 1105Q918 1162 849 1195T695 1229Q499 1229 383 1084T266 677Q266 414 379 265T687 116Q784 116 859
154T1001 266L1092 168Q1013 76 912 26T683 -25Z" />
<glyph unicode="D" horiz-adv-x="1249" d="M181 0V1345H523Q834 1345 989 1174T1144 679Q1144 356 987 178T524 0H181ZM341 131H505Q747 131 863 275T980 679Q980 939 867 1076T511 1214H341V131Z" />
<glyph unicode="E" horiz-adv-x="1064" d="M181 0V1345H949V1210H341V775H854V640H341V136H970V0H181Z" />
<glyph unicode="F" horiz-adv-x="996" d="M181 0V1345H950V1210H341V743H857V608H341V0H181Z" />
<glyph unicode="G" horiz-adv-x="1249" d="M701 -25Q526 -25 390 55T178 291T101 671Q101 899 180 1054T398 1289T718 1369Q855 1369 948 1320T1101 1210L1009 1108Q958 1162 890 1195T719 1229Q511 1229 389 1086T266 674Q266 411 383 264T718 116Q793 116 861
138T971 199V559H686V692H1116V131Q1051 66 944 21T701 -25Z" />
<glyph unicode="H" horiz-adv-x="1320" d="M181 0V1345H341V777H980V1345H1139V0H980V639H341V0H181Z" />
<glyph unicode="I" horiz-adv-x="521" d="M181 0V1345H341V0H181Z" />
<glyph unicode="J" horiz-adv-x="966" d="M427 -25Q179 -25 62 187L175 268Q223 188 282 152T415 116Q525 116 578 181T632 401V1345H791V385Q791 270 755 177T638 30T427 -25Z" />
<glyph unicode="K" horiz-adv-x="1169" d="M181 0V1345H341V659H345L918 1345H1100L677 834L1163 0H985L577 710L341 432V0H181Z" />
<glyph unicode="L" horiz-adv-x="978" d="M181 0V1345H341V136H932V0H181Z" />
<glyph unicode="M" horiz-adv-x="1473" d="M174 0L188 1345H373L636 614L734 335H742L838 614L1098 1345H1282L1297 0H1146L1144 761Q1144 849 1148 957T1158 1154H1150L1044 855L782 137H686L424 855L317 1154H309Q314 1066 317 958T321 761V0H174Z" />
<glyph unicode="N" horiz-adv-x="1311" d="M181 0V1345H345L845 485L991 208H999Q993 309 986 417T978 631V1345H1130V0H964L466 861L321 1137H312Q318 1036 325 932T332 722V0H181Z" />
<glyph unicode="O" horiz-adv-x="1346" d="M672 -25Q500 -25 372 58T172 299T101 676Q101 896 172 1050T371 1287T672 1369Q844 1369 972 1287T1172 1050T1244 676Q1244 456 1173 299T973 59T672 -25ZM672 116Q860 116 969 265T1079 676Q1079 936 970 1082T672
1229Q482 1229 374 1083T266 676Q266 415 374 266T672 116Z" />
<glyph unicode="P" horiz-adv-x="1163" d="M181 0V1345H594Q747 1345 856 1307T1022 1181T1080 947Q1080 737 951 632T596 526H341V0H181ZM341 657H574Q760 657 841 729T922 947Q922 1097 839 1156T573 1215H341V657Z" />
<glyph unicode="Q" horiz-adv-x="1346" d="M1023 -333Q910 -333 823 -299T677 -195T590 -19Q444 1 333 89T160 327T98 678Q98 897 169 1051T369 1287T669 1369Q842 1369 970 1287T1171 1051T1243 678Q1243 480 1183 332T1015 95T763 -17Q781 -92 821 -131T918
-184T1040 -198Q1084 -198 1121 -192T1186 -178L1218 -303Q1188 -313 1135 -323T1023 -333ZM669 116Q795 116 886 184T1026 378T1076 678Q1076 937 967 1083T669 1229Q482 1229 373 1083T264 678Q264 418 373 267T669 116Z" />
<glyph unicode="R" horiz-adv-x="1174" d="M181 0V1345H608Q743 1345 845 1311T1005 1195T1063 972Q1063 807 982 717T761 594L1101 0H918L596 575H341V0H181ZM341 705H582Q743 705 823 768T903 972Q903 1112 823 1163T583 1215H341V705Z" />
<glyph unicode="S" horiz-adv-x="1079" d="M550 -25Q407 -25 290 26T85 168L181 279Q254 203 350 160T553 116Q689 116 765 177T842 340Q842 411 811 454T726 528T609 586L415 672Q353 699 291 743T187 855T145 1023Q145 1125 200 1203T351 1325T567 1369Q687
1369 787 1326T957 1210L872 1106Q811 1165 736 1197T566 1229Q450 1229 378 1178T306 1032Q306 966 340 922T425 849T528 797L722 714Q800 681 864 635T966 521T1005 353Q1005 247 950 162T792 26T550 -25Z" />
<glyph unicode="T" horiz-adv-x="1084" d="M463 0V1210H52V1345H1032V1210H622V0H463Z" />
<glyph unicode="U" horiz-adv-x="1307" d="M653 -25Q520 -25 411 28T239 206T175 543V1345H335V541Q335 378 378 286T493 155T653 116Q744 116 818 154T936 285T980 541V1345H1133V543Q1133 329 1069 205T897 28T653 -25Z" />
<glyph unicode="V" horiz-adv-x="1036" d="M427 0L-4 1345H166L387 610Q423 490 452 387T519 164H527Q565 283 594 386T657 610L878 1345H1040L613 0H427Z" />
<glyph unicode="W" horiz-adv-x="1594" d="M330 0L42 1345H208L352 604Q374 496 394 388T434 169H442Q465 279 489 387T538 604L728 1345H875L1065 604Q1090 497 1114 388T1163 169H1172Q1192 279 1211 387T1249 604L1395 1345H1550L1267 0H1076L866 826Q850 904
833 978T801 1131H793Q777 1053 760 979T725 826L519 0H330Z" />
<glyph unicode="X" horiz-adv-x="1031" d="M27 0L420 695L52 1345H228L417 993Q443 947 466 903T522 800H531Q559 858 580 902T626 993L811 1345H979L613 687L1005 0H829L626 369Q600 419 572 472T510 586H502Q472 525 446 472T393 369L194 0H27Z" />
<glyph unicode="Y" horiz-adv-x="956" d="M397 0V524L-7 1345H164L342 960Q374 886 406 814T474 667H483Q517 742 552 814T618 960L797 1345H961L557 524V0H397Z" />
<glyph unicode="Z" horiz-adv-x="1093" d="M87 0V96L806 1210H152V1345H1004V1250L286 136H1010V0H87Z" />
<glyph unicode="[" horiz-adv-x="613" d="M194 -311V1450H554V1357H313V-220H554V-311H194Z" />
<glyph unicode="\" horiz-adv-x="719" d="M582 -328L26 1454H141L699 -328H582Z" />
<glyph unicode="]" horiz-adv-x="613" d="M421 -311V1450H61V1357H302V-220H61V-311H421Z" />
<glyph unicode="^" horiz-adv-x="1013" d="M125 584L435 1372H577L888 584H750L612 952L511 1224H502L400 952L264 584H125Z" />
<glyph unicode="_" horiz-adv-x="1024" d="M18 -255V-147H1009V-255H18Z" />
<glyph unicode="`" horiz-adv-x="1108" d="M563 1174L334 1460H499L684 1174H563Z" />
<glyph unicode="a" horiz-adv-x="1045" d="M420 -25Q290 -25 206 49T121 258Q121 421 268 513T736 627Q737 702 719 760T656 853T526 888Q437 888 359 860T222 791L159 901Q226 944 328 981T551 1018Q733 1018 813 910T893 613V0H763L749 120H745Q673 61 598 18T420
-25ZM462 102Q536 102 599 137T736 239V524Q562 513 462 477T319 388T276 268Q276 180 329 141T462 102Z" />
<glyph unicode="b" horiz-adv-x="1134" d="M605 -25Q534 -25 459 7T318 97H311L297 0H171V1461H328V1059L323 877Q392 938 473 978T642 1018Q841 1018 937 882T1034 511Q1034 338 976 219T820 37T605 -25ZM579 108Q709 108 790 214T871 510Q871 680 812 783T604
886Q537 886 469 850T328 746V215Q396 157 462 133T579 108Z" />
<glyph unicode="c" horiz-adv-x="932" d="M558 -25Q427 -25 322 35T157 211T96 497Q96 669 161 784T334 959T568 1018Q668 1018 739 984T861 901L782 799Q737 839 687 863T575 887Q484 887 412 840T299 705T258 497Q258 319 344 213T571 106Q643 106 701 133T804
202L875 98Q809 39 729 7T558 -25Z" />
<glyph unicode="d" horiz-adv-x="1134" d="M508 -25Q323 -25 211 108T98 496Q98 662 157 778T315 956T530 1018Q618 1018 681 988T812 903L805 1074V1461H962V0H832L819 119H813Q754 61 676 18T508 -25ZM542 108Q613 108 677 143T805 249V778Q739 837 679 861T556
886Q471 886 404 839T298 704T259 498Q259 313 331 211T542 108Z" />
<glyph unicode="e" horiz-adv-x="1012" d="M570 -25Q438 -25 330 36T159 213T95 496Q95 662 156 778T319 957T539 1019Q735 1019 834 896T934 553Q934 528 933 505T929 463H251Q259 295 350 199T589 102Q661 102 722 121T838 176L894 72Q831 32 752 4T570 -25ZM250
568H796Q796 730 731 811T543 893Q431 893 348 809T250 568Z" />
<glyph unicode="f" horiz-adv-x="590" d="M197 0V865H62V984L197 993V1162Q197 1314 267 1399T481 1485Q526 1485 568 1476T644 1452L609 1332Q581 1344 552 1350T495 1357Q354 1357 354 1161V993H567V865H354V0H197Z" />
<glyph unicode="g" horiz-adv-x="1028" d="M504 -461Q303 -461 199 -391T95 -192Q95 -126 133 -63T240 46V54Q203 78 178 116T153 214Q153 277 188 320T261 390V398Q212 438 172 505T132 666Q132 782 181 860T315 978T503 1018Q549 1018 582 1011T642 993H986V874H778Q816
843 840 791T865 662Q865 498 762 407T503 316Q422 316 351 352Q324 328 305 304T286 238Q286 190 323 159T463 127H672Q848 127 925 66T1003 -119Q1003 -210 944 -288T773 -413T504 -461ZM527 -349Q627 -349 699 -319T811 -242T850 -141Q850 -70 799 -35T645 0H467Q440
0 407 3T339 16Q283 -23 259 -73T234 -171Q234 -253 307 -301T527 -349ZM503 423Q591 423 655 486T720 666Q720 788 659 845T503 903Q408 903 347 845T285 666Q285 550 349 487T503 423Z" />
<glyph unicode="h" horiz-adv-x="1109" d="M171 0V1461H328V1059L323 852Q394 921 473 969T655 1018Q815 1018 886 921T957 633V0H801V612Q801 754 757 817T607 881Q529 881 467 842T328 724V0H171Z" />
<glyph unicode="i" horiz-adv-x="499" d="M171 0V993H328V0H171ZM252 1204Q205 1204 173 1232T140 1307Q140 1355 172 1384T252 1413Q298 1413 330 1384T363 1307Q363 1261 331 1233T252 1204Z" />
<glyph unicode="j" horiz-adv-x="501" d="M65 -447Q20 -447 -17 -440T-79 -422L-47 -302Q-28 -308 -4 -313T48 -319Q123 -319 147 -267T172 -125V993H330V-126Q330 -227 304 -299T219 -409T65 -447ZM253 1204Q206 1204 174 1232T141 1307Q141 1355 173 1384T253
1413Q298 1413 331 1384T364 1307Q364 1261 331 1233T253 1204Z" />
<glyph unicode="k" horiz-adv-x="1005" d="M171 0V1461H326V459H332L765 993H939L607 596L985 0H813L517 485L326 262V0H171Z" />
<glyph unicode="l" horiz-adv-x="517" d="M341 -25Q251 -25 211 30T171 190V1461H328V178Q328 140 341 123T374 106Q382 106 389 106T411 110L433 -9Q416 -16 395 -20T341 -25Z" />
<glyph unicode="m" horiz-adv-x="1693" d="M171 0V993H301L314 849H322Q386 920 464 969T631 1018Q749 1018 812 969T904 829Q983 915 1063 966T1233 1018Q1391 1018 1463 922T1535 634V0H1378V613Q1378 755 1334 818T1189 881Q1070 881 932 727V0H775V614Q775
756 731 818T584 881Q469 881 328 724V0H171Z" />
<glyph unicode="n" horiz-adv-x="1116" d="M171 0V993H301L314 849H322Q393 920 472 969T655 1018Q816 1018 886 922T957 634V0H801V613Q801 755 758 818T607 881Q529 881 467 842T328 724V0H171Z" />
<glyph unicode="o" horiz-adv-x="1108" d="M553 -25Q430 -25 326 36T160 213T97 496Q97 665 159 781T326 958T553 1018Q677 1018 781 958T949 782T1012 496Q1012 329 949 213T782 36T553 -25ZM553 106Q688 106 769 213T850 496Q850 674 769 780T553 887Q420 887
340 781T259 496Q259 320 339 213T553 106Z" />
<glyph unicode="p" horiz-adv-x="1134" d="M171 -423V993H301L314 878H322Q389 934 470 976T640 1018Q836 1018 935 882T1034 510Q1034 339 975 220T817 38T602 -25Q532 -25 463 5T324 91L328 -84V-423H171ZM577 108Q705 108 788 214T871 510Q871 680 810 783T601
886Q536 886 470 850T328 746V215Q398 157 461 133T577 108Z" />
<glyph unicode="q" horiz-adv-x="1122" d="M805 -423V-66L812 113Q751 57 676 16T509 -25Q319 -25 209 108T98 494Q98 659 158 776T316 955T531 1018Q620 1018 684 988T816 900H820L837 993H962V-423H805ZM544 108Q616 108 678 143T805 249V778Q739 837 681 861T557
886Q473 886 406 837T300 701T261 495Q261 311 333 210T544 108Z" />
<glyph unicode="r" horiz-adv-x="702" d="M171 0V993H301L314 813H322Q372 907 445 962T603 1018Q635 1018 659 1014T708 997L678 860Q653 868 633 872T582 876Q519 876 450 824T328 644V0H171Z" />
<glyph unicode="s" horiz-adv-x="854" d="M428 -25Q323 -25 228 15T62 113L141 219Q206 167 274 133T434 98Q536 98 586 144T636 258Q636 311 602 346T514 406T406 451Q335 477 267 512T153 601T107 740Q107 858 196 938T446 1018Q537 1018 616 987T752 910L676
809Q625 848 571 871T447 895Q350 895 305 854T259 752Q259 705 291 673T374 616T481 570Q554 544 624 510T741 419T788 266Q788 147 695 61T428 -25Z" />
<glyph unicode="t" horiz-adv-x="684" d="M478 -25Q320 -25 260 66T199 303V865H50V984L206 993L225 1274H358V993H629V865H358V299Q358 207 391 156T513 104Q539 104 571 113T627 131L658 12Q617 -2 570 -13T478 -25Z" />
<glyph unicode="u" horiz-adv-x="1109" d="M461 -25Q299 -25 228 72T157 360V993H315V382Q315 240 358 176T507 112Q590 112 649 153T782 285V993H939V0H809L796 157H789Q720 76 644 26T461 -25Z" />
<glyph unicode="v" horiz-adv-x="947" d="M385 0L25 993H188L380 421Q403 348 427 274T474 129H482Q504 200 528 274T574 421L767 993H922L568 0H385Z" />
<glyph unicode="w" horiz-adv-x="1461" d="M328 0L49 993H211L363 410Q379 339 394 272T423 135H431Q448 204 464 272T499 410L656 993H812L971 410Q990 339 1007 272T1042 135H1050Q1067 204 1081 271T1112 410L1262 993H1412L1143 0H950L803 546Q785 617 769
687T734 832H726Q710 757 693 686T656 543L512 0H328Z" />
<glyph unicode="x" horiz-adv-x="902" d="M29 0L355 519L53 993H224L361 770Q384 730 409 688T461 605H469Q491 646 514 688T560 770L685 993H850L548 503L874 0H703L553 236Q527 282 500 327T444 416H435Q409 373 384 328T334 236L193 0H29Z" />
<glyph unicode="y" horiz-adv-x="947" d="M180 -432Q147 -432 118 -426T65 -411L96 -284Q111 -290 132 -295T172 -300Q258 -300 314 -238T401 -79L425 -4L25 993H188L395 433Q418 368 443 295T494 154H502Q524 221 545 294T585 433L767 993H923L546 -88Q512 -183
464 -261T348 -386T180 -432Z" />
<glyph unicode="z" horiz-adv-x="863" d="M62 0V84L595 865H121V993H794V910L262 129H811V0H62Z" />
<glyph unicode="{" horiz-adv-x="613" d="M464 -311Q345 -311 287 -255T228 -40Q228 72 237 163T246 358Q246 419 211 468T70 520V620Q175 622 210 671T246 778Q246 875 237 974T228 1179Q228 1335 286 1392T464 1450H554V1357H496Q414 1357 385 1314T356 1169Q356
1079 362 984T368 795Q368 697 342 645T248 573V565Q315 547 341 494T368 344Q368 239 362 152T356 -31Q356 -131 385 -175T496 -220H554V-311H464Z" />
<glyph unicode="|" horiz-adv-x="490" d="M189 -512V1536H301V-512H189Z" />
<glyph unicode="}" horiz-adv-x="613" d="M149 -311Q268 -311 326 -255T385 -40Q385 72 376 163T367 358Q367 419 402 468T543 520V620Q438 622 403 671T367 778Q367 875 376 974T385 1179Q385 1335 327 1392T149 1450H59V1357H117Q199 1357 228 1314T257 1169Q257
1079 251 984T245 795Q245 697 271 645T365 573V565Q298 547 272 494T245 344Q245 239 251 152T257 -31Q257 -131 228 -175T117 -220H59V-311H149Z" />
<glyph unicode="~" horiz-adv-x="1013" d="M689 529Q628 529 579 555T488 616T405 677T321 703Q275 703 237 677T164 577L75 640Q123 741 189 782T324 823Q384 823 433 797T525 736T608 675T691 649Q738 649 777 678T849 774L937 709Q886 615 824 572T689 529Z" />
<glyph unicode="&#xa0;" horiz-adv-x="414" />
<glyph unicode="&#xa1;" horiz-adv-x="583" d="M346 592L367 -194L371 -379H212L215 -194L237 592H346ZM291 1018Q338 1018 373 984T408 895Q408 839 373 805T291 770Q243 770 209 804T174 895Q174 949 208 983T291 1018Z" />
<glyph unicode="&#xa2;" horiz-adv-x="1013" d="M535 -66V149Q354 169 240 294T126 635Q126 778 180 880T327 1043T535 1119V1337H636V1124Q726 1120 792 1085T904 1005L828 906Q786 943 739 966T636 993V278Q701 282 756 310T854 376L925 275Q865 221 792 187T636
147V-66H535ZM535 285V984Q420 958 351 867T282 635Q282 496 349 404T535 285Z" />
<glyph unicode="&#xa3;" horiz-adv-x="1013" d="M111 0V96Q217 154 272 253T328 469Q328 499 324 528T313 587H111V687L246 695H284Q264 761 246 827T227 959Q227 1134 330 1232T604 1331Q713 1331 789 1293T918 1189L825 1096Q785 1145 736 1172T615 1199Q502
1199 442 1132T382 955Q382 888 398 825T433 695H742V587H458Q464 558 467 529T470 467Q470 357 437 283T340 145V136H939V0H111Z" />
<glyph unicode="&#xa4;" horiz-adv-x="1013" d="M139 214L54 301L186 435Q151 484 132 544T112 674Q112 814 186 915L54 1051L139 1138L278 995Q375 1073 506 1073Q637 1073 734 995L873 1138L958 1051L824 915Q860 867 880 806T900 674Q900 604 880 544T825 435L958
301L873 214L734 355Q687 316 628 296T506 276Q376 276 278 355L139 214ZM506 393Q574 393 630 428T720 527T754 674Q754 757 721 820T631 919T506 955Q439 955 383 920T292 821T258 674Q258 591 292 528T382 429T506 393Z" />
<glyph unicode="&#xa5;" horiz-adv-x="1013" d="M426 0V326H94V420H426V555H94V647H386L50 1307H214L379 949Q410 882 440 814T503 674H512Q546 746 576 814T639 949L803 1307H964L624 647H920V555H584V420H920V326H584V0H426Z" />
<glyph unicode="&#xa6;" horiz-adv-x="490" d="M189 -512V440H301V-512H189ZM189 593V1536H301V593H189Z" />
<glyph unicode="&#xa7;" horiz-adv-x="1013" d="M482 -127Q374 -127 284 -89T131 16L228 102Q279 53 339 24T482 -5Q566 -5 613 38T661 141Q661 202 620 241T514 310T377 372T240 444T135 548T94 705Q94 796 144 861T271 970Q240 1002 223 1043T205 1138Q205 1207
239 1267T342 1364T511 1401Q606 1401 685 1367T822 1284L746 1182Q697 1223 641 1250T517 1277Q428 1277 389 1237T350 1144Q350 1087 391 1049T497 980T634 919T772 846T878 740T920 582Q920 484 872 423T745 317Q774 284 790 243T806 150Q806 70 764 8T649 -91T482
-127ZM652 392Q715 421 747 460T780 569Q780 641 740 688T635 768T498 831T362 898Q303 865 268 823T233 715Q233 646 273 601T379 522T516 460T652 392Z" />
<glyph unicode="&#xa8;" horiz-adv-x="1108" d="M380 1208Q339 1208 312 1235T284 1304Q284 1345 311 1372T380 1400Q421 1400 449 1373T477 1304Q477 1262 449 1235T380 1208ZM728 1208Q687 1208 660 1235T633 1304Q633 1345 660 1372T728 1400Q771 1400 798
1373T825 1304Q825 1262 798 1235T728 1208Z" />
<glyph unicode="&#xa9;" horiz-adv-x="1524" d="M765 -39Q628 -39 506 10T290 151T142 373T88 662Q88 823 142 950T290 1169T506 1308T765 1356Q901 1356 1023 1308T1239 1169T1386 951T1440 662Q1440 502 1387 373T1239 152T1023 10T765 -39ZM775 256Q672 256
588 304T454 444T404 662Q404 781 457 867T596 1000T781 1048Q867 1048 927 1015T1036 932L968 856Q926 897 884 919T787 941Q673 941 603 863T533 662Q533 524 600 444T780 364Q846 364 897 390T993 455L1052 373Q996 324 932 290T775 256ZM765 46Q923 46 1055
123T1267 339T1346 662Q1346 846 1267 983T1056 1197T765 1273Q606 1273 474 1197T262 984T183 662Q183 478 262 339T473 123T765 46Z" />
<glyph unicode="&#xaa;" horiz-adv-x="705" d="M279 516Q190 516 134 569T78 708Q78 816 176 874T487 951Q485 1019 459 1063T358 1108Q303 1108 247 1085T149 1037L104 1119Q154 1151 224 1179T375 1207Q497 1207 551 1136T606 935V532H510L497 609H488Q446 572
395 544T279 516ZM314 613Q396 613 487 698V875Q324 858 260 818T196 718Q196 664 228 639T314 613Z" />
<glyph unicode="&#xab;" horiz-adv-x="874" d="M371 137L91 457V577L371 895L441 837L198 516L441 192L371 137ZM694 137L414 457V577L694 895L764 837L521 516L764 192L694 137Z" />
<glyph unicode="&#xac;" horiz-adv-x="1013" d="M816 215V616H70V736H943V215H816Z" />
<glyph unicode="&#xad;" horiz-adv-x="634" d="M84 452V574H552V452H84Z" />
<glyph unicode="&#xae;" horiz-adv-x="860" d="M429 655Q324 655 237 705T98 847T46 1057Q46 1177 98 1267T237 1409T429 1460Q535 1460 622 1409T762 1268T814 1057Q814 938 762 847T623 706T429 655ZM429 728Q515 728 584 770T694 886T735 1057Q735 1154 695
1228T585 1346T429 1389Q343 1389 274 1346T165 1229T125 1057Q125 960 165 886T274 770T429 728ZM283 855V1271H437Q500 1271 548 1242T596 1139Q596 1102 575 1070T519 1025L614 855H522L449 1000H364V855H283ZM364 1064H418Q461 1064 485 1081T509 1134Q509
1166 490 1185T423 1204H364V1064Z" />
<glyph unicode="&#xaf;" horiz-adv-x="1108" d="M306 1232V1343H803V1232H306Z" />
<glyph unicode="&#xb0;" horiz-adv-x="672" d="M337 884Q270 884 213 915T120 1005T84 1142Q84 1222 119 1280T212 1371T337 1403Q405 1403 462 1371T555 1281T590 1142Q590 1064 555 1006T463 916T337 884ZM337 974Q405 974 448 1021T492 1142Q492 1217 449 1265T337
1313Q269 1313 226 1265T182 1142Q182 1069 225 1022T337 974Z" />
<glyph unicode="&#xb1;" horiz-adv-x="1013" d="M443 255V625H70V744H443V1137H569V744H943V625H569V255H443ZM70 0V120H943V0H70Z" />
<glyph unicode="&#xb2;" horiz-adv-x="750" d="M108 901V974Q234 1087 318 1170T446 1320T489 1449Q489 1529 447 1574T332 1620Q281 1620 237 1586T158 1502L84 1570Q129 1638 198 1681T348 1724Q466 1724 538 1659T611 1467Q611 1390 571 1319T463 1172T307
1007H653V901H108Z" />
<glyph unicode="&#xb3;" horiz-adv-x="750" d="M368 877Q272 877 196 921T74 1032L157 1097Q194 1041 246 1009T362 976Q430 976 478 1014T526 1123Q526 1194 459 1231T273 1268V1348Q379 1348 437 1390T496 1495Q496 1554 456 1589T347 1625Q302 1625 259 1598T182
1528L106 1593Q157 1653 220 1688T365 1724Q468 1724 543 1668T618 1510Q618 1438 578 1390T476 1313Q545 1296 597 1247T650 1115Q650 1042 612 989T510 906T368 877Z" />
<glyph unicode="&#xb4;" horiz-adv-x="1108" d="M409 1174L594 1460H759L530 1174H409Z" />
<glyph unicode="&#xb5;" horiz-adv-x="1122" d="M171 -410V993H328V384Q328 243 374 178T521 112Q600 112 661 153T795 285V993H952V0H822L808 157H803Q744 76 672 30T512 -17Q449 -17 402 1T319 74L328 -110V-410H171Z" />
<glyph unicode="&#xb6;" horiz-adv-x="1134" d="M599 469Q451 469 335 515T151 658T84 910Q84 1070 148 1165T323 1303T576 1345H648V469H599ZM776 -164V1345H937V-164H776Z" />
<glyph unicode="&#xb7;" horiz-adv-x="501" d="M251 536Q204 536 169 570T134 659Q134 715 169 749T251 784Q299 784 333 750T368 659Q368 605 334 571T251 536Z" />
<glyph unicode="&#xb8;" horiz-adv-x="1108" d="M415 -434L398 -354Q479 -343 530 -320T582 -254Q582 -214 547 -192T450 -153L532 6H637L583 -104Q633 -120 668 -153T704 -249Q704 -306 663 -345T556 -405T415 -434Z" />
<glyph unicode="&#xb9;" horiz-adv-x="750" d="M353 901V1537H181V1618Q247 1630 291 1650T376 1700H477V901H353Z" />
<glyph unicode="&#xba;" horiz-adv-x="746" d="M372 516Q288 516 218 557T105 675T62 861Q62 971 104 1048T217 1166T372 1207Q456 1207 526 1167T639 1049T682 861Q682 753 639 676T526 557T372 516ZM372 616Q458 616 508 684T558 861Q558 973 508 1040T372 1108Q285
1108 235 1041T184 861Q184 753 234 685T372 616Z" />
<glyph unicode="&#xbb;" horiz-adv-x="873" d="M179 137L459 457V577L179 895L109 837L352 516L109 192L179 137ZM503 137L783 457V577L503 895L433 837L676 516L433 192L503 137Z" />
<glyph unicode="&#xbc;" horiz-adv-x="1644" d="M338 546V1182H166V1263Q232 1275 276 1294T361 1345H462V546H338ZM419 -25L1084 1369H1194L528 -25H419ZM1345 0V216H981V280L1321 799H1457V306H1576V216H1457V0H1345ZM1113 306H1345V455L1354 677H1346L1242
510L1113 306Z" />
<glyph unicode="&#xbd;" horiz-adv-x="1652" d="M338 546V1182H166V1263Q232 1275 276 1294T361 1345H462V546H338ZM419 -25L1084 1369H1194L528 -25H419ZM1006 0V73Q1131 186 1216 269T1343 419T1386 548Q1386 628 1344 673T1230 719Q1179 719 1135 685T1056
601L982 669Q1026 737 1095 780T1246 823Q1364 823 1436 758T1508 565Q1508 488 1469 417T1361 271T1204 106H1550V0H1006Z" />
<glyph unicode="&#xbe;" horiz-adv-x="1704" d="M383 521Q287 521 211 566T89 678L172 741Q209 686 261 654T377 621Q445 621 493 659T541 767Q541 838 474 875T288 912V992Q394 992 452 1035T511 1140Q511 1199 471 1235T362 1271Q317 1271 274 1244T197 1172L121
1238Q172 1298 235 1333T380 1369Q483 1369 558 1313T633 1155Q633 1084 593 1035T491 958Q560 941 612 891T665 761Q665 687 627 633T525 550T383 521ZM479 -25L1144 1369H1254L588 -25H479ZM1405 0V216H1041V280L1381 799H1517V306H1636V216H1517V0H1405ZM1173
306H1405V455L1414 677H1406L1302 510L1173 306Z" />
<glyph unicode="&#xbf;" horiz-adv-x="863" d="M537 592Q552 492 528 419T459 287T368 176T287 63T254 -72Q254 -167 304 -219T460 -271Q533 -271 593 -241T701 -155L792 -243Q728 -316 640 -360T446 -404Q282 -404 191 -323T100 -81Q100 9 134 76T216 200T311
313T383 436T398 592H537ZM462 1018Q510 1018 544 984T578 895Q578 839 544 805T462 770Q413 770 379 804T344 895Q344 949 378 983T462 1018Z" />
<glyph unicode="&#xc0;" horiz-adv-x="1097" d="M1 0L459 1345H638L1096 0H927L794 418H297L164 0H1ZM337 546H754L686 758Q650 871 617 983T551 1213H542Q510 1095 477 983T407 758L337 546ZM494 1477L263 1705H447L628 1477H494Z" />
<glyph unicode="&#xc1;" horiz-adv-x="1097" d="M1 0L459 1345H638L1096 0H927L794 418H297L164 0H1ZM337 546H754L686 758Q650 871 617 983T551 1213H542Q510 1095 477 983T407 758L337 546ZM474 1477L656 1704H837L607 1477H474Z" />
<glyph unicode="&#xc2;" horiz-adv-x="1097" d="M1 0L459 1345H638L1096 0H927L794 418H297L164 0H1ZM337 546H754L686 758Q650 871 617 983T551 1213H542Q510 1095 477 983T407 758L337 546ZM274 1477L471 1705H626L823 1477H692L552 1617H544L405 1477H274Z" />
<glyph unicode="&#xc3;" horiz-adv-x="1097" d="M1 0L459 1345H638L1096 0H927L794 418H297L164 0H1ZM337 546H754L686 758Q650 871 617 983T551 1213H542Q510 1095 477 983T407 758L337 546ZM256 1458Q264 1549 308 1611T425 1674Q480 1674 520 1648T596 1594T669
1567Q699 1567 721 1595T752 1674H840Q832 1584 788 1521T671 1458Q617 1458 577 1485T501 1539T427 1566Q397 1566 375 1538T344 1458H256Z" />
<glyph unicode="&#xc4;" horiz-adv-x="1097" d="M1 0L459 1345H638L1096 0H927L794 418H297L164 0H1ZM337 546H754L686 758Q650 871 617 983T551 1213H542Q510 1095 477 983T407 758L337 546ZM723 1488Q682 1488 654 1515T626 1586Q626 1629 654 1655T723 1682Q767
1682 794 1656T821 1586Q821 1543 794 1516T723 1488ZM374 1488Q331 1488 304 1515T277 1586Q277 1629 304 1655T374 1682Q416 1682 444 1656T472 1586Q472 1543 444 1516T374 1488Z" />
<glyph unicode="&#xc5;" horiz-adv-x="1097" d="M1 0L459 1345H638L1096 0H927L794 418H297L164 0H1ZM337 546H754L686 758Q650 871 617 983T551 1213H542Q510 1095 477 983T407 758L337 546ZM549 1432Q467 1432 414 1480T361 1611Q361 1692 414 1740T549 1789Q629
1789 683 1741T737 1611Q737 1528 683 1480T549 1432ZM549 1504Q588 1504 617 1532T646 1611Q646 1659 617 1687T549 1716Q507 1716 479 1688T450 1611Q450 1560 478 1532T549 1504Z" />
<glyph unicode="&#xc6;" horiz-adv-x="1669" d="M16 0L727 1345H1556V1210H979V775H1459V640H979V136H1576V0H820V399H389L180 0H16ZM456 528H820V1217H812Q756 1108 699 996T584 774L456 528Z" />
<glyph unicode="&#xc7;" horiz-adv-x="1157" d="M683 -25Q515 -25 384 56T177 294T101 672Q101 894 177 1049T388 1287T694 1369Q813 1369 908 1321T1062 1206L971 1105Q918 1162 849 1195T695 1229Q499 1229 383 1084T266 677Q266 414 379 265T687 116Q784 116
859 154T1001 266L1092 168Q1013 76 912 26T683 -25ZM499 -434L482 -354Q564 -343 615 -320T666 -254Q666 -214 632 -192T535 -153L617 6H721L668 -104Q718 -120 753 -153T789 -249Q789 -306 748 -345T641 -405T499 -434Z" />
<glyph unicode="&#xc8;" horiz-adv-x="1064" d="M181 0V1345H949V1210H341V775H854V640H341V136H970V0H181ZM513 1477L282 1705H466L647 1477H513Z" />
<glyph unicode="&#xc9;" horiz-adv-x="1064" d="M181 0V1345H949V1210H341V775H854V640H341V136H970V0H181ZM493 1477L675 1704H856L626 1477H493Z" />
<glyph unicode="&#xca;" horiz-adv-x="1064" d="M181 0V1345H949V1210H341V775H854V640H341V136H970V0H181ZM293 1477L490 1705H645L842 1477H711L571 1617H563L424 1477H293Z" />
<glyph unicode="&#xcb;" horiz-adv-x="1064" d="M181 0V1345H949V1210H341V775H854V640H341V136H970V0H181ZM741 1488Q700 1488 672 1515T644 1586Q644 1629 672 1655T741 1682Q785 1682 812 1656T839 1586Q839 1543 812 1516T741 1488ZM392 1488Q349 1488 322
1515T295 1586Q295 1629 322 1655T392 1682Q434 1682 462 1656T490 1586Q490 1543 462 1516T392 1488Z" />
<glyph unicode="&#xcc;" horiz-adv-x="521" d="M181 0V1345H341V0H181ZM463 1477L232 1705H416L597 1477H463Z" />
<glyph unicode="&#xcd;" horiz-adv-x="521" d="M181 0V1345H341V0H181ZM187 1477L369 1704H550L320 1477H187Z" />
<glyph unicode="&#xce;" horiz-adv-x="521" d="M181 0V1345H341V0H181ZM243 1477L440 1705H595L792 1477H661L521 1617H513L374 1477H243Z" />
<glyph unicode="&#xcf;" horiz-adv-x="521" d="M181 0V1345H341V0H181ZM691 1488Q650 1488 622 1515T594 1586Q594 1629 622 1655T691 1682Q735 1682 762 1656T789 1586Q789 1543 762 1516T691 1488ZM342 1488Q299 1488 272 1515T245 1586Q245 1629 272 1655T342
1682Q384 1682 412 1656T440 1586Q440 1543 412 1516T342 1488Z" />
<glyph unicode="&#xd0;" horiz-adv-x="1288" d="M220 0V660H63V745L220 753V1345H553Q863 1345 1024 1171T1185 678Q1185 359 1025 180T560 0H220ZM380 131H541Q781 131 900 276T1020 678Q1020 933 901 1073T541 1214H380V753H694V660H380V131Z" />
<glyph unicode="&#xd1;" horiz-adv-x="1311" d="M181 0V1345H345L845 485L991 208H999Q993 309 986 417T978 631V1345H1130V0H964L466 861L321 1137H312Q318 1036 325 932T332 722V0H181ZM364 1458Q372 1549 416 1611T533 1674Q588 1674 628 1648T704 1594T777
1567Q807 1567 829 1595T860 1674H948Q940 1584 896 1521T779 1458Q725 1458 685 1485T609 1539T535 1566Q505 1566 483 1538T452 1458H364Z" />
<glyph unicode="&#xd2;" horiz-adv-x="1346" d="M672 -25Q500 -25 372 58T172 299T101 676Q101 896 172 1050T371 1287T672 1369Q844 1369 972 1287T1172 1050T1244 676Q1244 456 1173 299T973 59T672 -25ZM672 116Q860 116 969 265T1079 676Q1079 936 970 1082T672
1229Q482 1229 374 1083T266 676Q266 415 374 266T672 116ZM619 1477L388 1705H572L753 1477H619Z" />
<glyph unicode="&#xd3;" horiz-adv-x="1346" d="M672 -25Q500 -25 372 58T172 299T101 676Q101 896 172 1050T371 1287T672 1369Q844 1369 972 1287T1172 1050T1244 676Q1244 456 1173 299T973 59T672 -25ZM672 116Q860 116 969 265T1079 676Q1079 936 970 1082T672
1229Q482 1229 374 1083T266 676Q266 415 374 266T672 116ZM599 1477L781 1704H962L732 1477H599Z" />
<glyph unicode="&#xd4;" horiz-adv-x="1346" d="M672 -25Q500 -25 372 58T172 299T101 676Q101 896 172 1050T371 1287T672 1369Q844 1369 972 1287T1172 1050T1244 676Q1244 456 1173 299T973 59T672 -25ZM672 116Q860 116 969 265T1079 676Q1079 936 970 1082T672
1229Q482 1229 374 1083T266 676Q266 415 374 266T672 116ZM399 1477L596 1705H751L948 1477H817L677 1617H669L530 1477H399Z" />
<glyph unicode="&#xd5;" horiz-adv-x="1346" d="M672 -25Q500 -25 372 58T172 299T101 676Q101 896 172 1050T371 1287T672 1369Q844 1369 972 1287T1172 1050T1244 676Q1244 456 1173 299T973 59T672 -25ZM672 116Q860 116 969 265T1079 676Q1079 936 970 1082T672
1229Q482 1229 374 1083T266 676Q266 415 374 266T672 116ZM381 1458Q389 1549 433 1611T550 1674Q605 1674 645 1648T721 1594T794 1567Q824 1567 846 1595T877 1674H965Q957 1584 913 1521T796 1458Q742 1458 702 1485T626 1539T552 1566Q522 1566 500 1538T469
1458H381Z" />
<glyph unicode="&#xd6;" horiz-adv-x="1346" d="M672 -25Q500 -25 372 58T172 299T101 676Q101 896 172 1050T371 1287T672 1369Q844 1369 972 1287T1172 1050T1244 676Q1244 456 1173 299T973 59T672 -25ZM672 116Q860 116 969 265T1079 676Q1079 936 970 1082T672
1229Q482 1229 374 1083T266 676Q266 415 374 266T672 116ZM847 1488Q806 1488 778 1515T750 1586Q750 1629 778 1655T847 1682Q891 1682 918 1656T945 1586Q945 1543 918 1516T847 1488ZM498 1488Q455 1488 428 1515T401 1586Q401 1629 428 1655T498 1682Q540
1682 568 1656T596 1586Q596 1543 568 1516T498 1488Z" />
<glyph unicode="&#xd7;" horiz-adv-x="1013" d="M188 261L102 348L422 676L102 1002L188 1090L506 761L824 1090L909 1002L591 676L909 348L824 261L506 591L188 261Z" />
<glyph unicode="&#xd8;" horiz-adv-x="1346" d="M189 -59L98 10L239 195Q173 284 137 406T101 678Q101 893 174 1048T376 1286T674 1369Q888 1369 1036 1234L1165 1404L1256 1336L1112 1149Q1175 1061 1210 943T1245 678Q1245 463 1172 305T970 61T674 -25Q465
-25 316 108L189 -59ZM674 116Q796 116 887 185T1028 381T1079 678Q1079 879 1008 1013L410 230Q461 176 527 146T674 116ZM342 328L942 1112Q836 1229 674 1229Q551 1229 459 1162T317 972T266 678Q266 470 342 328Z" />
<glyph unicode="&#xd9;" horiz-adv-x="1307" d="M653 -25Q520 -25 411 28T239 206T175 543V1345H335V541Q335 378 378 286T493 155T653 116Q744 116 818 154T936 285T980 541V1345H1133V543Q1133 329 1069 205T897 28T653 -25ZM600 1477L369 1705H553L734 1477H600Z" />
<glyph unicode="&#xda;" horiz-adv-x="1307" d="M653 -25Q520 -25 411 28T239 206T175 543V1345H335V541Q335 378 378 286T493 155T653 116Q744 116 818 154T936 285T980 541V1345H1133V543Q1133 329 1069 205T897 28T653 -25ZM580 1477L762 1704H943L713 1477H580Z" />
<glyph unicode="&#xdb;" horiz-adv-x="1307" d="M653 -25Q520 -25 411 28T239 206T175 543V1345H335V541Q335 378 378 286T493 155T653 116Q744 116 818 154T936 285T980 541V1345H1133V543Q1133 329 1069 205T897 28T653 -25ZM380 1477L577 1705H732L929 1477H798L658
1617H650L511 1477H380Z" />
<glyph unicode="&#xdc;" horiz-adv-x="1307" d="M653 -25Q520 -25 411 28T239 206T175 543V1345H335V541Q335 378 378 286T493 155T653 116Q744 116 818 154T936 285T980 541V1345H1133V543Q1133 329 1069 205T897 28T653 -25ZM828 1488Q787 1488 759 1515T731
1586Q731 1629 759 1655T828 1682Q872 1682 899 1656T926 1586Q926 1543 899 1516T828 1488ZM479 1488Q436 1488 409 1515T382 1586Q382 1629 409 1655T479 1682Q521 1682 549 1656T577 1586Q577 1543 549 1516T479 1488Z" />
<glyph unicode="&#xdd;" horiz-adv-x="956" d="M397 0V524L-7 1345H164L342 960Q374 886 406 814T474 667H483Q517 742 552 814T618 960L797 1345H961L557 524V0H397ZM404 1477L586 1704H767L537 1477H404Z" />
<glyph unicode="&#xde;" horiz-adv-x="1188" d="M184 0V1345H343V1117H589Q738 1117 849 1080T1021 957T1083 724Q1083 584 1021 493T848 357T589 312H343V0H184ZM343 442H568Q748 442 836 509T924 724Q924 873 836 930T568 987H343V442Z" />
<glyph unicode="&#xdf;" horiz-adv-x="1169" d="M787 -25Q704 -25 633 2T499 77L563 187Q618 142 671 120T783 98Q870 98 915 150T961 268Q961 330 932 370T856 438T757 493T659 551T583 630T553 748Q553 819 581 869T645 964T709 1056T737 1169Q737 1249 693
1300T563 1352Q453 1352 391 1272T328 1029V0H171V1060Q171 1252 274 1366T565 1481Q670 1481 743 1441T853 1333T891 1186Q891 1109 863 1054T798 953T732 865T703 766Q703 716 732 682T808 623T907 571T1005 508T1080 416T1110 277Q1110 149 1023 62T787 -25Z"
/>
<glyph unicode="&#xe0;" horiz-adv-x="1045" d="M420 -25Q290 -25 206 49T121 258Q121 421 268 513T736 627Q737 702 719 760T656 853T526 888Q437 888 359 860T222 791L159 901Q226 944 328 981T551 1018Q733 1018 813 910T893 613V0H763L749 120H745Q673 61
598 18T420 -25ZM462 102Q536 102 599 137T736 239V524Q562 513 462 477T319 388T276 268Q276 180 329 141T462 102ZM478 1174L248 1460H414L599 1174H478Z" />
<glyph unicode="&#xe1;" horiz-adv-x="1045" d="M420 -25Q290 -25 206 49T121 258Q121 421 268 513T736 627Q737 702 719 760T656 853T526 888Q437 888 359 860T222 791L159 901Q226 944 328 981T551 1018Q733 1018 813 910T893 613V0H763L749 120H745Q673 61
598 18T420 -25ZM462 102Q536 102 599 137T736 239V524Q562 513 462 477T319 388T276 268Q276 180 329 141T462 102ZM422 1174L607 1460H773L544 1174H422Z" />
<glyph unicode="&#xe2;" horiz-adv-x="1045" d="M420 -25Q290 -25 206 49T121 258Q121 421 268 513T736 627Q737 702 719 760T656 853T526 888Q437 888 359 860T222 791L159 901Q226 944 328 981T551 1018Q733 1018 813 910T893 613V0H763L749 120H745Q673 61
598 18T420 -25ZM462 102Q536 102 599 137T736 239V524Q562 513 462 477T319 388T276 268Q276 180 329 141T462 102ZM520 1174L712 1460H844L1037 1174H922L782 1362H774L635 1174H520Z" />
<glyph unicode="&#xe3;" horiz-adv-x="1045" d="M420 -25Q290 -25 206 49T121 258Q121 421 268 513T736 627Q737 702 719 760T656 853T526 888Q437 888 359 860T222 791L159 901Q226 944 328 981T551 1018Q733 1018 813 910T893 613V0H763L749 120H745Q673 61
598 18T420 -25ZM462 102Q536 102 599 137T736 239V524Q562 513 462 477T319 388T276 268Q276 180 329 141T462 102ZM242 1187Q250 1275 290 1336T404 1398Q457 1398 497 1372T570 1319T638 1292Q695 1292 713 1398H803Q795 1310 756 1249T641 1187Q589 1187 550
1213T477 1266T408 1292Q350 1292 332 1187H242Z" />
<glyph unicode="&#xe4;" horiz-adv-x="1045" d="M420 -25Q290 -25 206 49T121 258Q121 421 268 513T736 627Q737 702 719 760T656 853T526 888Q437 888 359 860T222 791L159 901Q226 944 328 981T551 1018Q733 1018 813 910T893 613V0H763L749 120H745Q673 61
598 18T420 -25ZM462 102Q536 102 599 137T736 239V524Q562 513 462 477T319 388T276 268Q276 180 329 141T462 102ZM604 1123Q563 1123 536 1150T508 1219Q508 1260 535 1287T604 1315Q645 1315 673 1288T701 1219Q701 1177 673 1150T604 1123ZM952 1123Q911 1123
884 1150T857 1219Q857 1260 884 1287T952 1315Q995 1315 1022 1288T1049 1219Q1049 1177 1022 1150T952 1123Z" />
<glyph unicode="&#xe5;" horiz-adv-x="1045" d="M420 -25Q290 -25 206 49T121 258Q121 421 268 513T736 627Q737 702 719 760T656 853T526 888Q437 888 359 860T222 791L159 901Q226 944 328 981T551 1018Q733 1018 813 910T893 613V0H763L749 120H745Q673 61
598 18T420 -25ZM462 102Q536 102 599 137T736 239V524Q562 513 462 477T319 388T276 268Q276 180 329 141T462 102ZM778 1110Q697 1110 644 1161T591 1297Q591 1382 644 1433T778 1484Q860 1484 913 1433T967 1297Q967 1213 914 1162T778 1110ZM778 1182Q820 1182
849 1213T878 1297Q878 1349 849 1380T778 1412Q736 1412 708 1381T679 1297Q679 1245 707 1214T778 1182Z" />
<glyph unicode="&#xe6;" horiz-adv-x="1608" d="M413 -25Q289 -25 205 48T121 256Q121 419 268 508T727 625Q727 690 710 750T648 849T519 888Q437 888 362 859T228 790L165 900Q232 943 329 980T538 1018Q658 1018 725 960T823 802Q881 902 967 960T1165 1018Q1286
1018 1367 961T1489 799T1530 551Q1530 525 1529 502T1524 460H874Q877 354 919 274T1032 149T1189 104Q1262 104 1320 128T1433 188L1491 78Q1427 37 1350 6T1170 -25Q1045 -25 961 32T820 165Q719 73 614 24T413 -25ZM456 102Q527 102 611 143T766 261Q748 301
738 357T727 472L726 520Q482 493 379 430T276 267Q276 180 328 141T456 102ZM874 566H1391Q1391 725 1334 809T1161 893Q1046 893 967 804T874 566Z" />
<glyph unicode="&#xe7;" horiz-adv-x="932" d="M558 -25Q427 -25 322 35T157 211T96 497Q96 669 161 784T334 959T568 1018Q668 1018 739 984T861 901L782 799Q737 839 687 863T575 887Q484 887 412 840T299 705T258 497Q258 319 344 213T571 106Q643 106 701
133T804 202L875 98Q809 39 729 7T558 -25ZM329 -434L312 -354Q394 -343 445 -320T496 -254Q496 -214 462 -192T365 -153L447 6H551L498 -104Q548 -120 583 -153T619 -249Q619 -306 578 -345T471 -405T329 -434Z" />
<glyph unicode="&#xe8;" horiz-adv-x="1012" d="M570 -25Q438 -25 330 36T159 213T95 496Q95 662 156 778T319 957T539 1019Q735 1019 834 896T934 553Q934 528 933 505T929 463H251Q259 295 350 199T589 102Q661 102 722 121T838 176L894 72Q831 32 752 4T570
-25ZM250 568H796Q796 730 731 811T543 893Q431 893 348 809T250 568ZM492 1174L262 1460H428L613 1174H492Z" />
<glyph unicode="&#xe9;" horiz-adv-x="1012" d="M570 -25Q438 -25 330 36T159 213T95 496Q95 662 156 778T319 957T539 1019Q735 1019 834 896T934 553Q934 528 933 505T929 463H251Q259 295 350 199T589 102Q661 102 722 121T838 176L894 72Q831 32 752 4T570
-25ZM250 568H796Q796 730 731 811T543 893Q431 893 348 809T250 568ZM436 1174L621 1460H787L558 1174H436Z" />
<glyph unicode="&#xea;" horiz-adv-x="1012" d="M570 -25Q438 -25 330 36T159 213T95 496Q95 662 156 778T319 957T539 1019Q735 1019 834 896T934 553Q934 528 933 505T929 463H251Q259 295 350 199T589 102Q661 102 722 121T838 176L894 72Q831 32 752 4T570
-25ZM250 568H796Q796 730 731 811T543 893Q431 893 348 809T250 568ZM534 1174L726 1460H858L1051 1174H936L796 1362H788L649 1174H534Z" />
<glyph unicode="&#xeb;" horiz-adv-x="1012" d="M570 -25Q438 -25 330 36T159 213T95 496Q95 662 156 778T319 957T539 1019Q735 1019 834 896T934 553Q934 528 933 505T929 463H251Q259 295 350 199T589 102Q661 102 722 121T838 176L894 72Q831 32 752 4T570
-25ZM250 568H796Q796 730 731 811T543 893Q431 893 348 809T250 568ZM618 1123Q577 1123 550 1150T522 1219Q522 1260 549 1287T618 1315Q659 1315 687 1288T715 1219Q715 1177 687 1150T618 1123ZM966 1123Q925 1123 898 1150T871 1219Q871 1260 898 1287T966
1315Q1009 1315 1036 1288T1063 1219Q1063 1177 1036 1150T966 1123Z" />
<glyph unicode="&#xec;" horiz-adv-x="499" d="M171 0V993H328V0H171ZM461 1174L231 1460H397L582 1174H461Z" />
<glyph unicode="&#xed;" horiz-adv-x="499" d="M171 0V993H328V0H171ZM149 1174L334 1460H500L271 1174H149Z" />
<glyph unicode="&#xee;" horiz-adv-x="499" d="M171 0V993H328V0H171ZM-9 1174L183 1460H315L508 1174H393L253 1362H245L106 1174H-9Z" />
<glyph unicode="&#xef;" horiz-adv-x="499" d="M171 0V993H328V0H171ZM76 1123Q35 1123 8 1150T-20 1219Q-20 1260 7 1287T76 1315Q117 1315 145 1288T173 1219Q173 1177 145 1150T76 1123ZM424 1123Q383 1123 356 1150T329 1219Q329 1260 356 1287T424 1315Q467
1315 494 1288T521 1219Q521 1177 494 1150T424 1123Z" />
<glyph unicode="&#xf0;" horiz-adv-x="1113" d="M550 -25Q436 -25 336 33T173 199T111 455Q111 593 167 696T318 856T533 914Q613 914 685 881T810 777Q782 907 726 1004T590 1178L301 1028L255 1109L516 1242Q462 1284 405 1321T283 1394L356 1493Q431 1454 502
1408T639 1305L930 1456L976 1375L711 1240Q833 1116 911 943T989 525Q989 361 935 237T781 44T550 -25ZM554 106Q649 106 711 159T805 306T837 519Q837 550 836 578T832 634Q763 729 694 759T554 790Q460 790 395 746T295 626T260 455Q260 350 300 272T407 150T554
106Z" />
<glyph unicode="&#xf1;" horiz-adv-x="1116" d="M171 0V993H301L314 849H322Q393 920 472 969T655 1018Q816 1018 886 922T957 634V0H801V613Q801 755 758 818T607 881Q529 881 467 842T328 724V0H171ZM278 1187Q286 1275 326 1336T440 1398Q493 1398 533 1372T606
1319T674 1292Q731 1292 749 1398H839Q831 1310 792 1249T677 1187Q625 1187 586 1213T513 1266T444 1292Q386 1292 368 1187H278Z" />
<glyph unicode="&#xf2;" horiz-adv-x="1108" d="M553 -25Q430 -25 326 36T160 213T97 496Q97 665 159 781T326 958T553 1018Q677 1018 781 958T949 782T1012 496Q1012 329 949 213T782 36T553 -25ZM553 106Q688 106 769 213T850 496Q850 674 769 780T553 887Q420
887 340 781T259 496Q259 320 339 213T553 106ZM509 1174L279 1460H445L630 1174H509Z" />
<glyph unicode="&#xf3;" horiz-adv-x="1108" d="M553 -25Q430 -25 326 36T160 213T97 496Q97 665 159 781T326 958T553 1018Q677 1018 781 958T949 782T1012 496Q1012 329 949 213T782 36T553 -25ZM553 106Q688 106 769 213T850 496Q850 674 769 780T553 887Q420
887 340 781T259 496Q259 320 339 213T553 106ZM453 1174L638 1460H804L575 1174H453Z" />
<glyph unicode="&#xf4;" horiz-adv-x="1108" d="M553 -25Q430 -25 326 36T160 213T97 496Q97 665 159 781T326 958T553 1018Q677 1018 781 958T949 782T1012 496Q1012 329 949 213T782 36T553 -25ZM553 106Q688 106 769 213T850 496Q850 674 769 780T553 887Q420
887 340 781T259 496Q259 320 339 213T553 106ZM551 1174L743 1460H875L1068 1174H953L813 1362H805L666 1174H551Z" />
<glyph unicode="&#xf5;" horiz-adv-x="1108" d="M553 -25Q430 -25 326 36T160 213T97 496Q97 665 159 781T326 958T553 1018Q677 1018 781 958T949 782T1012 496Q1012 329 949 213T782 36T553 -25ZM553 106Q688 106 769 213T850 496Q850 674 769 780T553 887Q420
887 340 781T259 496Q259 320 339 213T553 106ZM274 1187Q282 1275 322 1336T436 1398Q489 1398 529 1372T602 1319T670 1292Q727 1292 745 1398H835Q827 1310 788 1249T673 1187Q621 1187 582 1213T509 1266T440 1292Q382 1292 364 1187H274Z" />
<glyph unicode="&#xf6;" horiz-adv-x="1108" d="M553 -25Q430 -25 326 36T160 213T97 496Q97 665 159 781T326 958T553 1018Q677 1018 781 958T949 782T1012 496Q1012 329 949 213T782 36T553 -25ZM553 106Q688 106 769 213T850 496Q850 674 769 780T553 887Q420
887 340 781T259 496Q259 320 339 213T553 106ZM380 1123Q339 1123 312 1150T284 1219Q284 1260 311 1287T380 1315Q421 1315 449 1288T477 1219Q477 1177 449 1150T380 1123ZM728 1123Q687 1123 660 1150T633 1219Q633 1260 660 1287T728 1315Q771 1315 798 1288T825
1219Q825 1177 798 1150T728 1123Z" />
<glyph unicode="&#xf7;" horiz-adv-x="1013" d="M70 616V736H943V616H70ZM506 201Q461 201 431 230T400 307Q400 353 430 382T506 412Q551 412 582 383T613 307Q613 260 582 231T506 201ZM506 938Q461 938 431 967T400 1044Q400 1090 430 1119T506 1149Q551 1149
582 1120T613 1044Q613 997 582 968T506 938Z" />
<glyph unicode="&#xf8;" horiz-adv-x="1108" d="M167 -47L94 10L206 144Q155 210 126 298T96 495Q96 661 160 778T328 956T554 1018Q717 1018 839 915L942 1040L1014 983L902 849Q953 783 982 694T1012 495Q1012 331 949 215T781 37T554 -25Q391 -25 269 79L167
-47ZM554 102Q642 102 710 151T817 287T857 489Q857 631 804 729L358 185Q439 102 554 102ZM303 264L751 807Q673 891 554 891Q467 891 399 842T291 706T251 502Q251 360 303 264Z" />
<glyph unicode="&#xf9;" horiz-adv-x="1109" d="M461 -25Q299 -25 228 72T157 360V993H315V382Q315 240 358 176T507 112Q590 112 649 153T782 285V993H939V0H809L796 157H789Q720 76 644 26T461 -25ZM500 1174L270 1460H436L621 1174H500Z" />
<glyph unicode="&#xfa;" horiz-adv-x="1109" d="M461 -25Q299 -25 228 72T157 360V993H315V382Q315 240 358 176T507 112Q590 112 649 153T782 285V993H939V0H809L796 157H789Q720 76 644 26T461 -25ZM444 1174L629 1460H795L566 1174H444Z" />
<glyph unicode="&#xfb;" horiz-adv-x="1109" d="M461 -25Q299 -25 228 72T157 360V993H315V382Q315 240 358 176T507 112Q590 112 649 153T782 285V993H939V0H809L796 157H789Q720 76 644 26T461 -25ZM542 1174L734 1460H866L1059 1174H944L804 1362H796L657 1174H542Z" />
<glyph unicode="&#xfc;" horiz-adv-x="1109" d="M461 -25Q299 -25 228 72T157 360V993H315V382Q315 240 358 176T507 112Q590 112 649 153T782 285V993H939V0H809L796 157H789Q720 76 644 26T461 -25ZM627 1123Q586 1123 559 1150T531 1219Q531 1260 558 1287T627
1315Q668 1315 696 1288T724 1219Q724 1177 696 1150T627 1123ZM975 1123Q934 1123 907 1150T880 1219Q880 1260 907 1287T975 1315Q1018 1315 1045 1288T1072 1219Q1072 1177 1045 1150T975 1123Z" />
<glyph unicode="&#xfd;" horiz-adv-x="947" d="M180 -432Q147 -432 118 -426T65 -411L96 -284Q111 -290 132 -295T172 -300Q258 -300 314 -238T401 -79L425 -4L25 993H188L395 433Q418 368 443 295T494 154H502Q524 221 545 294T585 433L767 993H923L546 -88Q512
-183 464 -261T348 -386T180 -432ZM373 1174L558 1460H724L495 1174H373Z" />
<glyph unicode="&#xfe;" horiz-adv-x="1134" d="M171 -423V1461H328V1059L326 887Q394 941 472 979T634 1018Q830 1018 932 881T1034 512Q1034 343 974 223T816 39T603 -25Q531 -25 463 4T326 87L328 -84V-423H171ZM578 108Q705 108 788 216T871 511Q871 678 809
782T602 886Q538 886 471 850T328 746V215Q398 157 463 133T578 108Z" />
<glyph unicode="&#xff;" horiz-adv-x="947" d="M180 -432Q147 -432 118 -426T65 -411L96 -284Q111 -290 132 -295T172 -300Q258 -300 314 -238T401 -79L425 -4L25 993H188L395 433Q418 368 443 295T494 154H502Q524 221 545 294T585 433L767 993H923L546 -88Q512
-183 464 -261T348 -386T180 -432ZM555 1123Q514 1123 487 1150T459 1219Q459 1260 486 1287T555 1315Q596 1315 624 1288T652 1219Q652 1177 624 1150T555 1123ZM903 1123Q862 1123 835 1150T808 1219Q808 1260 835 1287T903 1315Q946 1315 973 1288T1000 1219Q1000
1177 973 1150T903 1123Z" />
<glyph unicode="&#x2013;" horiz-adv-x="983" d="M84 459V570H899V459H84Z" />
<glyph unicode="&#x2014;" horiz-adv-x="1638" d="M84 459V570H1554V459H84Z" />
<glyph unicode="&#x2018;" horiz-adv-x="501" d="M241 868Q183 868 144 914T104 1046Q104 1170 164 1268T327 1427L376 1354Q300 1303 262 1233T223 1074Q228 1076 241 1076Q281 1076 313 1051T345 975Q345 925 316 897T241 868Z" />
<glyph unicode="&#x2019;" horiz-adv-x="501" d="M261 1430Q319 1430 358 1384T398 1252Q398 1128 338 1030T175 871L126 944Q202 995 240 1065T279 1224Q274 1222 261 1222Q221 1222 189 1247T157 1323Q157 1373 186 1401T261 1430Z" />
<glyph unicode="&#x201a;" horiz-adv-x="501" d="M261 242Q319 242 358 196T398 64Q398 -60 338 -158T175 -317L126 -244Q202 -193 240 -123T279 36Q274 34 261 34Q221 34 189 59T157 135Q157 185 186 213T261 242Z" />
<glyph unicode="&#x201c;" horiz-adv-x="853" d="M250 868Q192 868 153 914T113 1046Q113 1170 173 1268T336 1427L385 1354Q309 1303 271 1233T232 1074Q237 1076 250 1076Q290 1076 322 1051T354 975Q354 925 325 897T250 868ZM602 868Q544 868 505 914T465
1046Q465 1170 525 1268T688 1427L737 1354Q661 1303 623 1233T584 1074Q589 1076 602 1076Q642 1076 674 1051T706 975Q706 925 677 897T602 868Z" />
<glyph unicode="&#x201d;" horiz-adv-x="853" d="M262 1430Q320 1430 359 1384T399 1252Q399 1128 339 1030T176 871L127 944Q203 995 241 1065T280 1224Q275 1222 262 1222Q222 1222 190 1247T158 1323Q158 1373 187 1401T262 1430ZM612 1430Q670 1430 709 1384T749
1252Q749 1128 689 1030T526 871L477 944Q553 995 591 1065T630 1224Q625 1222 612 1222Q572 1222 540 1247T508 1323Q508 1373 537 1401T612 1430Z" />
<glyph unicode="&#x201e;" horiz-adv-x="853" d="M262 242Q320 242 359 196T399 64Q399 -60 339 -158T176 -317L127 -244Q203 -193 241 -123T280 36Q275 34 262 34Q222 34 190 59T158 135Q158 185 187 213T262 242ZM613 242Q671 242 710 196T750 64Q750 -60 690
-158T527 -317L478 -244Q554 -193 592 -123T631 36Q626 34 613 34Q573 34 541 59T509 135Q509 185 538 213T613 242Z" />
<glyph unicode="&#x2022;" horiz-adv-x="616" d="M308 296Q218 296 150 362T82 540Q82 649 150 716T308 783Q398 783 466 716T535 540Q535 429 467 363T308 296Z" />
<glyph unicode="&#x2039;" horiz-adv-x="552" d="M371 137L91 457V577L371 895L441 837L198 516L441 192L371 137Z" />
<glyph unicode="&#x203a;" horiz-adv-x="552" d="M179 137L459 457V577L179 895L109 837L352 516L109 192L179 137Z" />
</font>
</defs>
</svg>
