<?xml version="1.0" standalone="no"?>
<!DOCTYPE svg PUBLIC "-//W3C//DTD SVG 1.1//EN" "http://www.w3.org/Graphics/SVG/1.1/DTD/svg11.dtd">
<svg xmlns="http://www.w3.org/2000/svg">
<defs >
<font id="LavishlyYours" horiz-adv-x="543" ><font-face
    font-family="Lavishly Yours"
    units-per-em="1000"
    panose-1="0 0 0 0 0 0 0 0 0 0"
    ascent="1100"
    descent="-500"
    alphabetic="0" />
<glyph unicode=" " glyph-name="space" horiz-adv-x="155" />
<glyph unicode="!" glyph-name="exclam" horiz-adv-x="214" d="M119 149Q111 149 111 157Q111 185 126 242T172 385Q232 558 268 605Q279 623 300 623Q318 623 318 609Q318 602 312 593Q287 551 261 501T209 393Q179 329 160 277T131 185Q130 181 129 174T126
156Q125 149 119 149ZM71 -15Q64 -15 58 -3T51 17Q51 33 80 53Q108 70 125 70Q127 70 128 69V67Q128 62 119 44L108 20Q105 10 93 -2T71 -15Z" />
<glyph unicode="&quot;" glyph-name="quotedbl" horiz-adv-x="237" d="M160 383Q148 383 149 385Q154 407 155 442T157 509Q157 523 157 535T156 556V563Q156 569 158 574T170 580Q187 580 194 552Q196 545 194 525T187 480T178 429T168 385Q166 383 160 383ZM245
383Q233 383 234 385Q239 407 240 442T242 509Q242 523 242 535T241 556V563Q241 569 243 574T255 580Q272 580 279 552Q281 545 279 525T272 480T263 429T253 385Q251 383 245 383Z" />
<glyph unicode="#" glyph-name="numbersign" horiz-adv-x="458" d="M249 -19Q236 -19 236 -12Q250 16 265 46T297 110L203 106Q196 88 185 66T159 14Q152 2 131 2Q118 2 118 9L159 104L115 101Q109 101 94 110Q79 118 79 124Q79 125 81 125Q89 126 112 127T172
130Q174 132 177 134T184 141L207 185Q224 217 237 243T260 290Q176 286 176 285Q176 283 156 294Q142 303 140 309Q141 310 143 310Q158 312 190 313T271 315Q308 397 313 443Q314 462 321 462Q326 462 326 446Q326 413 291 316H318Q335 316 352 316T389 315Q400
343 407 360T418 387Q431 429 436 461Q438 479 443 479Q449 479 449 458Q449 419 413 314Q429 313 452 312T507 306Q513 305 513 302Q513 297 502 297Q482 297 459 297T406 295Q392 258 376 217T340 130Q358 129 384 127T445 120Q451 119 451 117Q451 112 439 112Q417
112 391 112T332 111Q322 86 312 66T294 27Q292 21 288 13T277 -7Q270 -19 249 -19ZM215 131Q227 132 239 132T261 132Q273 132 285 132T307 131Q329 176 347 217T381 295L282 291Q268 255 252 215T215 131Z" />
<glyph unicode="$" glyph-name="dollar" horiz-adv-x="483" d="M132 -224Q117 -224 112 -222T107 -215Q107 -180 118 -129T154 -8Q13 10 13 116Q13 181 62 221Q107 261 171 261Q205 261 206 256Q205 254 184 254Q126 254 86 225Q45 193 45 136Q45 87 77 50T157
2Q181 69 211 141T281 292Q247 317 229 342T210 394Q210 452 278 485Q306 499 336 504T397 508Q480 649 521 649Q527 649 527 644L424 502Q462 493 478 480T494 449Q494 404 413 404Q399 404 399 407Q399 411 413 411Q465 411 465 453Q465 466 455 475T418 492Q391
446 367 402T321 316Q359 291 380 276T409 253Q445 217 445 160Q445 73 354 27Q317 6 275 -3T182 -11Q167 -57 160 -89T148 -153L142 -220Q142 -224 132 -224ZM301 332Q324 377 347 418T392 499H379Q268 499 268 401Q268 361 301 332ZM185 -1H191Q243 -1 294 19Q382
56 382 158Q382 190 363 220T301 280Q267 200 238 131T185 -1Z" />
<glyph unicode="%" glyph-name="percent" horiz-adv-x="518" d="M9 -90Q-7 -90 -7 -71Q-7 -47 29 13Q50 47 80 87T151 176Q199 231 252 286T365 397Q382 414 408 437T471 490Q483 498 492 501Q482 525 401 525Q386 525 349 521T251 508Q267 498 267 470Q267 444
252 406Q242 385 230 364T200 321Q157 266 124 266Q95 266 95 305Q95 342 118 397Q157 489 178 489Q192 489 192 479Q192 478 182 459T150 401Q109 325 109 297Q109 277 124 277Q136 277 156 294Q172 308 185 328T211 373Q223 399 229 421T236 463Q236 507 204
519H230Q303 529 344 533T394 538Q408 538 422 536T452 530Q492 519 499 502Q500 503 501 503T502 503Q517 503 517 492Q517 488 513 485L409 395Q109 132 35 -27Q30 -37 26 -51T16 -83Q15 -90 9 -90ZM294 -32Q266 -32 266 3Q266 46 300 92Q286 123 286 153Q286
170 290 185T302 214Q324 245 353 245Q401 245 408 172Q438 172 438 165Q438 159 427 155T409 150Q410 147 410 144T410 138Q410 79 367 19H389Q379 14 373 14H369Q368 15 366 15Q368 15 341 -9Q312 -32 294 -32ZM307 100Q351 158 397 171Q384 231 358 231Q336
231 317 187Q304 160 304 124Q304 109 307 100ZM345 22Q362 38 380 82Q398 127 398 151Q381 149 348 122Q314 95 309 81Q324 26 345 22ZM296 -11Q317 -11 342 19Q320 20 303 75Q281 34 281 14Q281 -11 296 -11Z" />
<glyph unicode="&amp;" glyph-name="ampersand" horiz-adv-x="739" d="M202 -236Q169 -236 145 -221Q117 -202 117 -173Q117 -169 121 -169Q124 -169 125 -173Q132 -222 190 -222Q303 -222 391 19Q354 9 319 5T248 0Q180 0 128 20Q57 45 57 103Q57 162 134 239Q93
276 93 330Q93 409 179 462Q253 511 338 511Q405 511 405 498Q404 495 402 495Q392 495 373 499T342 503Q266 503 198 458Q122 406 122 335Q122 291 153 257Q189 290 233 320T331 380Q378 406 426 430T521 480Q529 503 535 519T546 544Q555 564 564 577T584 601Q598
617 611 624T635 631Q661 631 661 602Q661 553 544 484Q528 443 503 321Q586 378 665 378Q746 378 746 317Q746 266 677 186Q585 80 440 35Q356 -236 202 -236ZM550 497Q575 510 604 541Q642 577 642 594Q642 605 634 605Q624 605 604 586Q592 576 579 554T550
497ZM259 213Q332 213 471 301Q484 354 495 395T517 468Q493 456 458 437T376 392Q317 357 268 318T180 235Q198 225 217 219T259 213ZM443 50Q508 70 559 102T649 177Q709 245 709 289Q709 342 628 342Q596 342 564 334T500 309Q492 266 478 201T443 50ZM284 20Q311
20 339 23T395 34Q410 74 428 138T468 292Q345 193 252 193Q205 193 164 217Q119 160 119 116Q119 64 179 38Q223 20 284 20Z" />
<glyph unicode="&apos;" glyph-name="quotesingle" horiz-adv-x="152" d="M160 383Q148 383 149 385Q154 407 155 442T157 509Q157 523 157 535T156 556V563Q156 569 158 574T170 580Q187 580 194 552Q196 545 194 525T187 480T178 429T168 385Q166 383 160 383Z" />
<glyph unicode="(" glyph-name="parenleft" horiz-adv-x="370" d="M128 -60Q34 -60 34 85Q34 131 43 174Q63 263 106 336Q176 454 298 532Q362 572 427 592T558 613Q562 613 562 608Q562 603 558 603Q452 603 335 523Q283 487 241 445T166 353Q121 284 99 203Q87
160 87 100Q87 -40 168 -40Q172 -40 178 -39T187 -38Q193 -38 193 -43Q193 -50 164 -56Q154 -58 145 -59T128 -60Z" />
<glyph unicode=")" glyph-name="parenright" horiz-adv-x="370" d="M-55 -91Q-77 -91 -77 -85Q-77 -81 -61 -81Q-1 -81 86 -29Q191 35 267 167Q306 233 325 296T344 421Q344 556 241 590Q223 596 187 601Q182 603 182 605Q182 614 220 614Q305 614 351 562T397
422Q397 295 298 152Q207 17 89 -49Q16 -91 -55 -91Z" />
<glyph unicode="*" glyph-name="asterisk" horiz-adv-x="424" d="M282 289H280Q279 307 278 338T276 414V452L180 350L171 339Q171 339 169 339T164 338Q149 338 149 342Q149 347 178 378T266 467Q194 467 102 473Q101 474 101 475T100 476Q100 480 104 480Q125
480 164 480T259 482Q153 594 153 601Q153 604 156 604Q156 604 160 602L276 487Q277 524 278 565T284 653Q286 655 287 655Q291 655 291 651Q291 629 291 590T293 492Q401 597 410 597Q413 597 413 594Q413 593 411 591L378 557L307 483L407 486Q409 486 415 486T429
487Q436 488 441 488T451 489Q456 489 461 483T466 472V471Q447 469 413 468T330 466H300Q316 450 341 427T400 371L410 362Q412 360 412 355Q412 339 408 339Q399 339 294 447Q294 416 295 392T297 348Q297 346 297 340T298 325Q299 318 299 313T299 304Q299 300
293 295T282 289Z" />
<glyph unicode="+" glyph-name="plus" horiz-adv-x="386" d="M157 55Q152 55 154 60L167 107L197 213Q177 212 157 211T117 209Q99 208 90 208T82 207Q76 207 66 214T55 225L58 227Q79 229 115 230T201 232Q208 258 214 289T227 357Q228 360 241 366T259 373H261L259
362Q256 340 248 308T227 232Q279 231 316 230T375 223Q377 222 378 222T379 221Q379 217 368 217Q337 217 301 216T221 213Q201 150 187 111T161 57Q159 55 157 55Z" />
<glyph unicode="," glyph-name="comma" horiz-adv-x="149" d="M11 -118Q10 -118 10 -117Q10 -119 39 -69Q53 -44 60 -23T67 16Q67 21 64 30T61 44Q61 52 67 63T81 74Q92 74 105 56V57Q106 53 106 50T107 41Q107 27 100 8T79 -35Q29 -118 11 -118Z" />
<glyph unicode="-" glyph-name="hyphen" horiz-adv-x="311" d="M99 163Q96 163 98 163Q93 164 86 172T78 185L80 187Q130 193 175 193Q243 193 278 182Q281 181 281 179Q281 174 275 174Q222 174 153 168Q128 166 114 165T98 163H99Z" />
<glyph unicode="." glyph-name="period" horiz-adv-x="149" d="M51 -15Q44 -15 38 -4T31 16Q31 33 49 40Q53 47 76 59Q98 70 106 70Q107 70 108 69L109 68Q102 61 95 50T81 18Q71 -15 51 -15Z" />
<glyph unicode="/" glyph-name="slash" horiz-adv-x="525" d="M59 -171Q53 -171 49 -166T44 -156Q44 -145 47 -132T56 -98Q73 -27 108 70T211 292Q258 381 311 469T420 642Q434 664 454 695T506 768Q517 779 530 784T553 790Q558 790 562 788T567 782Q567 783
562 775Q487 675 423 577T300 379Q282 348 256 300T202 194T146 72T99 -54T70 -169Q68 -170 65 -170T59 -171Z" />
<glyph unicode="0" glyph-name="zero" horiz-adv-x="592" d="M217 -53Q137 -53 91 -8T44 117Q44 160 56 200Q39 237 39 283Q39 354 96 414Q203 527 382 527Q456 527 513 485Q574 442 585 369Q588 347 588 322Q588 207 515 107Q445 12 334 -29Q274 -53 217 -53ZM197
-12Q262 -12 338 23Q387 47 428 78T501 147Q538 192 557 238T576 334Q576 342 576 350T574 367Q565 430 505 469Q450 506 382 506Q287 506 211 465Q127 421 88 341Q69 304 69 260Q69 250 71 244Q85 270 106 298T158 356Q219 417 268 439T358 462Q378 462 378 457Q378
453 357 451Q290 451 198 353Q118 269 83 191Q91 178 100 169T121 153Q132 148 132 145Q132 142 126 142Q101 142 74 170Q67 148 64 135T60 115Q60 -12 197 -12Z" />
<glyph unicode="1" glyph-name="one" horiz-adv-x="366" d="M-45 -70Q-52 -70 -59 -59T-66 -41Q-64 -35 -64 -35Q-28 12 79 30Q86 65 123 137T228 318L281 404Q286 413 287 415Q272 408 253 396T213 365Q147 308 140 308Q133 308 133 310Q133 311 141 319Q198
367 305 468Q312 476 323 487T352 511Q360 514 364 514Q384 514 384 492Q384 477 375 468Q342 434 305 383T228 264Q137 116 124 36Q134 37 144 37T164 37Q188 37 228 31Q279 24 279 14Q279 7 270 7L239 12Q229 14 218 15T198 16Q159 16 121 10V7Q121 -21 137 -21Q143
-21 155 -17T172 -12Q173 -12 173 -13Q173 -15 146 -29Q119 -44 113 -44Q80 -44 78 -1Q6 -20 -40 -68Q-44 -70 -45 -70Z" />
<glyph unicode="2" glyph-name="two" horiz-adv-x="641" d="M495 -65Q453 -65 409 -57T318 -30L151 36Q79 6 40 6Q-4 6 -4 40Q-4 82 55 82Q92 82 148 63Q185 82 227 107T319 165Q332 174 351 187T394 218Q525 324 525 412Q525 442 500 460Q477 474 446 474Q412
474 378 465T309 436Q230 391 230 326Q230 321 232 312T234 298Q234 293 232 293Q224 293 218 313Q213 331 213 341Q213 407 302 451Q380 489 449 489Q501 489 535 467Q575 443 575 394Q575 301 423 188Q371 151 312 117T185 51Q242 31 284 19T352 -1Q395 -11 438
-16T526 -21Q589 -21 589 5Q589 42 544 69Q525 81 505 87T464 94H459Q458 93 455 93H450Q439 93 439 99Q439 105 447 105Q472 105 497 99T549 79Q610 49 610 5Q610 -27 567 -49Q532 -65 495 -65ZM40 18Q57 18 77 28Q85 33 94 37T112 47Q68 57 55 57Q15 57 15 34Q15
18 40 18Z" />
<glyph unicode="3" glyph-name="three" horiz-adv-x="646" d="M225 -56Q142 -56 80 -32Q33 -15 11 10T-11 60Q-11 97 30 125T144 154Q174 154 209 151T286 140Q307 137 307 130Q307 123 291 123Q285 123 282 124Q251 131 219 134T155 137Q93 137 59 114T24 60Q24
40 40 20T89 -18Q113 -30 141 -36T202 -43Q258 -43 319 -30T432 9T518 72T551 157Q551 220 465 248Q407 267 324 267Q310 267 310 281Q310 298 329 301Q340 303 357 305T396 311Q426 317 455 326T512 349Q592 386 592 427Q592 479 459 479Q411 479 366 467Q301
452 301 420Q301 413 297 413Q291 413 291 424Q291 460 362 482Q413 498 464 498Q518 498 561 481Q618 459 618 414Q618 322 440 289Q605 258 605 158Q605 104 570 64T477 -2T354 -42T225 -56Z" />
<glyph unicode="4" glyph-name="four" horiz-adv-x="683" d="M358 -102Q332 -102 320 -66Q309 -38 309 -8Q309 54 341 139Q235 157 140 184Q83 169 58 169Q18 169 18 196Q18 221 73 221Q105 221 157 209Q226 233 405 353Q586 475 634 529Q645 540 651 540Q669
540 669 520Q669 510 653 501L630 486Q599 462 565 425T493 339Q461 295 435 252T387 167Q468 158 529 158Q573 158 615 170Q675 187 675 218Q675 243 625 260Q576 275 576 279Q576 284 582 282H585Q700 275 700 202Q700 153 642 132Q601 116 543 116Q478 116 371
134Q335 50 335 -6Q335 -41 354 -66Q372 -94 372 -92Q372 -102 358 -102ZM354 171Q375 218 401 263T460 352Q348 270 181 202Q223 192 266 185T354 171ZM72 186Q88 186 119 195Q86 209 63 209Q32 209 32 195Q32 186 72 186Z" />
<glyph unicode="5" glyph-name="five" horiz-adv-x="703" d="M603 399Q541 399 421 443Q301 487 240 487Q196 487 196 474Q196 467 206 460T217 449Q217 442 211 442Q201 442 189 454T177 477Q177 509 243 509Q273 509 317 501T419 474Q477 458 521 449T597 440Q692
440 692 483Q692 525 645 541Q643 541 643 542Q643 547 656 547L668 543Q711 525 711 483Q711 450 687 427T630 400Q624 399 618 399T603 399ZM66 -84Q17 -84 -22 -70Q-75 -52 -75 -12Q-75 48 64 85Q116 99 163 106T253 113Q273 113 273 106Q273 101 253 101Q226
101 185 92T87 63Q-40 21 -40 -18Q-40 -23 -39 -25Q-17 -62 66 -62Q192 -62 306 -19Q431 31 509 116Q560 173 560 221Q560 286 459 286Q376 286 246 242Q220 234 217 234Q204 234 204 244Q204 253 223 276Q266 334 286 382L297 407Q306 423 328 423Q349 423 349
411Q349 401 262 260L360 290Q419 308 459 308Q611 308 611 209Q611 185 601 160T569 108Q490 10 340 -41Q276 -62 207 -73T66 -84Z" />
<glyph unicode="6" glyph-name="six" horiz-adv-x="530" d="M123 -172Q119 -172 107 -166Q46 -135 46 -74Q46 -56 52 -37Q10 -12 10 39Q10 164 197 314Q274 376 352 423T508 500Q513 502 516 502T523 502Q527 502 527 501Q527 497 509 488Q475 472 438 451T359
403Q250 333 169 248Q60 131 60 39Q60 17 67 2Q117 94 253 177Q326 223 398 223Q491 223 491 147Q491 81 409 23Q348 -20 266 -43Q235 -52 206 -56T149 -60Q128 -60 110 -58T75 -49Q72 -64 72 -78Q72 -116 99 -142Q126 -169 126 -170Q124 -172 123 -172ZM156 -43Q201
-43 253 -25Q286 -14 316 2T373 39Q443 93 443 147Q443 196 378 196Q293 196 204 127Q118 61 85 -21Q108 -43 156 -43Z" />
<glyph unicode="7" glyph-name="seven" horiz-adv-x="437" d="M89 -81Q51 -81 51 -32Q51 27 94 106Q120 156 161 206T261 306Q326 362 472 466Q427 460 400 457T363 453Q343 453 311 456Q230 464 175 468T90 472Q56 472 56 460Q56 450 83 432Q104 418 119 412Q130
407 130 403Q130 400 124 400Q106 400 68 423Q31 449 31 468Q31 493 70 503Q99 512 130 512Q145 512 168 510T225 502Q368 477 418 477Q493 477 529 511L542 495Q468 447 399 389T264 263Q97 87 97 -40Q97 -60 101 -60Q102 -60 105 -59T111 -57Q125 -57 125 -67Q125
-72 111 -76T89 -81Z" />
<glyph unicode="8" glyph-name="eight" horiz-adv-x="577" d="M73 -61Q-44 -61 -44 0Q-44 46 33 117Q33 117 91 165T266 311Q203 362 203 395Q203 455 306 492Q386 519 459 519Q487 519 511 516T555 506Q731 606 866 627Q873 628 877 628T886 629Q891 629 891
627Q891 623 866 616Q735 575 586 492Q620 470 620 435Q620 409 609 409Q598 409 598 420Q598 422 599 427T600 435Q600 464 562 478Q516 453 450 413T297 318Q411 215 411 127Q411 41 307 -13Q213 -61 73 -61ZM289 329Q413 422 522 487Q515 488 508 488T492 488Q429
488 353 463Q252 433 252 386Q252 363 289 329ZM75 -14Q207 -14 295 24Q389 66 389 135Q389 211 275 302L57 112Q-5 54 -5 22Q-5 -14 75 -14Z" />
<glyph unicode="9" glyph-name="nine" horiz-adv-x="533" d="M222 -143Q176 -143 176 -80Q176 25 358 271Q227 152 152 152Q109 152 77 180T44 252Q44 272 51 289Q93 408 250 480Q383 542 528 542Q552 542 574 540T616 533Q675 520 675 489Q675 478 659 456Q642
433 632 433Q632 433 632 433T631 435Q631 441 643 454Q657 470 657 481Q657 522 520 522Q390 522 271 465Q137 400 97 288Q93 276 91 265T89 241Q89 210 105 188T151 165Q242 165 413 355Q421 365 432 379T459 412Q473 426 486 426Q504 426 504 412Q504 403 425
295Q374 227 338 176T279 88Q200 -38 200 -91Q200 -117 212 -128L227 -141Q227 -143 222 -143Z" />
<glyph unicode=":" glyph-name="colon" horiz-adv-x="159" d="M116 138Q109 138 102 149T95 168Q95 185 113 192Q140 223 151 223Q156 223 156 215Q156 208 145 170Q135 138 116 138ZM41 -15Q34 -15 28 -4T21 16Q21 33 39 40Q43 47 66 59Q88 70 96 70Q97 70 98
69L99 68Q92 61 85 50T71 18Q61 -15 41 -15Z" />
<glyph unicode=";" glyph-name="semicolon" horiz-adv-x="159" d="M116 138Q109 138 102 149T95 168Q95 185 113 192Q140 223 151 223Q156 223 156 215Q156 208 145 170Q135 138 116 138ZM-1 -142Q-2 -142 -2 -141Q-2 -143 26 -94Q40 -68 47 -47T54 -9Q54 -4 51
5T48 20Q48 28 54 39T68 50Q79 50 92 31V32Q95 25 95 17Q95 -10 66 -60Q15 -142 -1 -142Z" />
<glyph unicode="&lt;" glyph-name="less" horiz-adv-x="311" d="M191 55L183 59Q164 92 81 166Q78 168 78 172Q80 183 141 256Q195 319 218 342Q227 353 237 353Q244 353 244 347Q241 332 126 198Q166 138 184 105T202 67Q200 54 191 55Z" />
<glyph unicode="=" glyph-name="equal" horiz-adv-x="339" d="M73 163Q69 163 62 172T54 185L55 187Q73 193 161 193Q263 193 290 182L293 180Q293 174 287 174Q251 174 180 168Q145 166 119 165T73 163ZM73 62Q69 62 62 71T54 85L55 87Q72 94 161 94Q265 94 290
82Q292 82 293 79Q293 74 287 74Q251 74 180 68Q110 62 73 62Z" />
<glyph unicode="&gt;" glyph-name="greater" horiz-adv-x="311" d="M85 55Q78 55 78 60Q81 76 196 210Q156 270 138 303T120 341Q122 354 131 353L139 349Q158 316 241 242Q244 241 244 236Q243 226 181 152Q154 121 135 99T104 65Q94 55 85 55Z" />
<glyph unicode="?" glyph-name="question" horiz-adv-x="515" d="M212 141H210Q189 159 189 183Q189 240 303 324L469 432Q581 504 581 586Q581 641 533 671Q493 698 436 698Q364 698 302 659Q241 618 215 554Q205 531 205 515Q205 484 243 484Q276 484 334 507Q345
512 351 514T357 517Q359 515 359 512Q359 509 357 507Q348 500 333 492T294 477Q274 470 257 467T225 464Q169 464 169 507Q169 526 181 553Q208 619 286 664Q360 707 436 707Q469 707 497 699T548 671Q599 634 599 569Q599 471 484 398L412 359Q206 246 206 185Q206
172 215 162T224 151Q224 141 212 141ZM161 -15Q154 -15 148 -4T141 16Q141 33 159 40Q163 47 186 59Q208 70 216 70Q217 70 218 69L219 68Q212 61 205 50T191 18Q181 -15 161 -15Z" />
<glyph unicode="@" glyph-name="at" horiz-adv-x="786" d="M330 -107Q256 -107 194 -80Q120 -49 93 11Q70 66 70 124Q70 275 218 389Q357 495 514 495Q607 495 662 447Q722 395 722 304Q722 297 722 291T720 276Q766 227 766 162Q766 112 722 62Q662 -12 544 -61Q489
-83 436 -95T330 -107ZM330 -92Q447 -92 557 -34Q618 -3 657 38T714 130Q720 148 720 167Q720 202 702 236Q676 157 618 75Q544 -29 482 -29Q454 -29 432 -5T403 50Q402 58 402 66T401 85Q401 104 403 127T413 178Q334 1 249 1Q198 1 198 68Q198 155 269 251Q337
346 418 383Q469 408 510 408Q560 408 560 366Q560 312 487 259Q451 171 451 72Q451 -9 490 -9Q529 -9 584 61Q604 87 620 112T650 166Q676 216 686 259Q663 289 620 309Q618 311 618 311Q618 319 634 319Q664 319 695 297Q697 306 698 314T699 330Q699 345 696
358Q670 465 538 465Q394 465 248 355Q93 238 93 99Q93 4 166 -48Q230 -92 330 -92ZM254 41Q335 41 408 217Q391 210 376 210Q370 210 370 215Q370 221 388 227L427 249Q430 273 454 306Q480 341 499 341Q508 341 508 329Q508 319 501 302Q521 331 521 357Q521
385 495 385Q432 385 328 260Q226 136 226 69Q226 41 254 41Z" />
<glyph unicode="A" glyph-name="A" horiz-adv-x="1073" d="M227 -87Q154 -87 95 -54Q25 -13 25 56Q25 94 52 131Q130 239 369 266Q390 268 414 269T465 271Q495 271 536 269T629 261Q637 276 644 291T659 320Q658 343 645 359T608 374Q614 409 649 409Q683 409
677 364Q727 492 729 594Q704 599 667 606T581 622Q535 630 499 634T436 639Q286 639 227 553Q204 519 204 483Q204 430 250 398Q290 372 347 372Q374 372 400 380T449 404Q501 441 501 494Q501 529 467 550Q439 571 402 571Q332 571 320 536L317 522Q315 517 311
511Q310 512 310 515Q310 548 341 567Q354 575 369 578T402 582Q446 582 475 559Q510 534 510 494Q510 434 457 396Q406 360 347 360Q280 360 233 396Q183 435 183 502Q183 541 204 577Q261 672 413 672Q439 672 476 667T561 651L729 611Q728 666 703 707Q700 715
700 720Q700 728 707 728Q717 728 727 709Q748 675 750 607Q785 600 815 595T871 588Q905 635 938 659Q980 690 1015 690Q1070 690 1070 647Q1070 579 924 575Q860 471 860 301Q860 288 860 275T862 249Q995 254 1032 322Q1036 330 1040 343T1048 375Q1050 381
1054 381Q1060 381 1060 373Q1060 357 1049 329Q1013 231 864 227Q875 143 907 84Q953 4 1025 4Q1064 4 1086 38Q1088 40 1113 104Q1115 107 1117 107Q1119 107 1119 101Q1119 60 1090 25Q1059 -9 1019 -9H1013Q1010 -8 1007 -8Q986 -8 983 -33Q979 -60 974 -60Q969
-60 964 -56Q836 32 816 227Q789 228 755 231T678 238Q531 -6 356 -64Q289 -87 227 -87ZM900 586Q912 604 923 615Q927 619 935 622T956 631Q970 636 978 639T992 642Q993 642 993 641Q993 641 993 641T991 640Q975 631 961 618T934 587Q1034 594 1034 641Q1034
671 997 671Q974 671 946 651T884 587Q888 587 892 587T900 586ZM677 258Q687 273 702 300T739 366Q757 402 788 454T862 576Q837 578 810 581T750 590Q749 550 740 504T712 407Q700 372 683 336T644 261L677 258ZM814 249Q813 258 813 268T813 288Q813 458 891
575Q887 575 883 575T875 576Q860 554 829 501T748 360Q730 326 716 301T690 257Q728 253 759 252T814 249ZM239 -72Q293 -72 354 -54Q522 0 666 239L634 243Q495 7 348 -13Q371 2 371 51V53Q386 83 404 83Q407 83 407 81Q407 29 399 18L374 0Q503 39 620 245Q506
257 441 257Q324 257 240 226Q175 202 132 161Q79 111 79 51Q79 -9 131 -44Q178 -72 239 -72Z" />
<glyph unicode="B" glyph-name="B" horiz-adv-x="872" d="M135 -150Q119 -150 105 -140T91 -112Q91 -86 105 -86Q107 -86 131 -105Q153 -125 177 -125Q251 -125 338 68L329 81L324 69Q324 68 322 66Q319 66 318 73Q319 75 319 78L324 89Q285 151 285 229Q285 240
299 254Q313 266 316 273Q319 279 322 298Q324 305 328 306Q329 306 329 269Q329 235 333 205T345 145Q370 212 379 266Q377 262 373 255T360 248Q357 248 357 251Q357 255 365 265T381 286Q382 297 382 307T383 329Q383 349 382 369T376 411Q364 465 333 502Q296
545 245 543H242Q275 540 275 506Q275 488 261 474Q249 519 213 519Q209 519 205 519T197 517V518Q195 559 249 559Q300 559 343 516Q382 478 393 422Q400 391 400 352Q400 328 397 302Q405 310 413 317T430 330Q491 511 545 609Q467 621 377 621Q52 621 52 511Q52
450 164 405L166 403Q166 400 156 399Q119 399 68 444Q17 489 17 529Q17 616 174 643Q223 651 275 655T384 660Q434 660 479 657T567 646Q645 765 730 765Q787 765 817 706Q818 704 818 694Q818 673 808 673Q807 673 779 710Q751 747 713 747Q639 747 579 644Q611
639 639 632T692 616Q819 571 819 505Q819 427 631 382Q678 378 715 365T782 331Q850 280 850 194Q850 116 792 52Q738 -7 657 -25Q618 -35 575 -35Q440 -35 358 47Q265 -150 135 -150ZM466 350Q496 364 615 394Q769 435 769 498Q769 543 672 580Q623 597 559 607Q542
570 519 506T466 350ZM554 -21Q653 -21 720 43Q788 107 788 206Q788 361 610 361Q530 361 461 332Q433 246 412 183T373 80Q433 -21 554 -21ZM357 113L358 116Q363 127 380 176T425 313Q417 308 410 303T395 290Q390 256 379 216T350 131Q352 127 353 123T357 113Z"
/>
<glyph unicode="C" glyph-name="C" horiz-adv-x="711" d="M298 -94Q294 -94 294 -90Q294 -62 297 -29Q177 -10 103 67Q65 108 45 160T25 276Q25 382 83 477Q112 525 150 561T236 622Q327 669 445 669Q471 669 498 667T553 659Q604 738 666 805L670 807Q671 807
671 805Q671 799 665 791Q633 753 608 719T565 656Q614 645 666 626Q672 636 679 645T693 663Q699 671 703 671Q708 671 708 666Q707 665 707 663Q682 626 667 573T645 451Q644 441 631 429T607 417Q601 417 601 443Q601 501 636 574Q628 585 605 597T544 623Q482
519 432 394Q440 382 452 382Q459 382 415 346Q392 284 373 218Q371 190 364 154T348 75L342 45Q337 24 328 20Q327 12 326 3T323 -15Q340 -19 357 -20T393 -21Q548 -21 616 123Q634 162 634 190Q634 208 624 212Q622 212 622 213Q622 222 650 222Q680 222 680
182Q680 83 574 20Q483 -36 379 -36Q349 -36 320 -33Q319 -40 318 -51T315 -77Q312 -94 298 -94ZM300 -9Q306 44 321 105T358 236V259Q358 325 340 379Q299 486 213 486Q208 486 203 486T193 484Q231 484 231 447Q231 431 222 422Q207 457 178 457Q168 457 155
452Q154 454 154 460Q154 501 214 501Q260 501 301 467Q338 436 354 392Q374 344 375 284Q380 301 386 318T400 351Q391 363 391 379Q391 388 402 404T422 421L424 412Q450 472 474 523T525 614L534 627Q468 651 408 651Q263 651 172 548Q80 449 80 302Q80 191
140 105Q201 22 300 -9Z" />
<glyph unicode="D" glyph-name="D" horiz-adv-x="909" d="M156 -115Q150 -115 139 -111T122 -106Q123 -106 118 -109L114 -107Q62 -81 37 -41T12 48Q12 94 43 123T121 152Q182 152 275 103L296 92Q312 137 326 192Q320 186 313 180T297 166Q276 178 276 201Q276
210 284 222T301 236Q310 204 328 202Q382 421 382 541Q382 575 379 603Q315 599 261 590T164 566Q44 527 44 461Q44 400 155 355Q155 355 157 353Q157 350 146 350Q114 350 61 392Q8 436 8 477Q8 562 163 606Q210 620 262 628T373 640Q352 743 285 743H271Q299
731 299 700Q299 671 280 662Q271 719 221 718Q237 754 284 754Q366 754 392 641Q405 642 418 642T444 642Q502 642 556 636Q634 729 714 729Q738 729 763 711Q788 696 788 672Q788 654 779 654Q776 654 753 683Q732 713 698 713Q666 713 637 692T584 632Q934 581
934 315Q934 179 825 80Q716 -20 581 -20Q485 -20 373 21Q331 -32 279 -61T165 -90H162Q125 -90 125 -60Q125 -36 139 -36Q141 -36 165 -54Q189 -72 212 -72Q271 -72 328 39L292 54L281 29Q278 22 275 22Q271 22 271 29Q271 30 282 58Q237 75 200 87T130 105Q119
107 110 108T92 109Q19 109 19 47Q19 -29 106 -86Q116 -93 128 -98T155 -111Q158 -111 159 -114Q159 -115 156 -115ZM341 68Q367 124 391 201T437 376Q453 442 476 499T531 602Q510 604 489 605T446 606Q436 606 424 606T398 604Q400 588 401 569T403 530Q403 442
387 375Q367 286 347 214T304 88L341 68ZM581 -8Q710 -8 798 82Q888 171 888 300Q888 553 566 598Q547 558 527 500T488 366L435 148Q428 120 417 95T389 46Q508 -8 581 -8Z" />
<glyph unicode="E" glyph-name="E" horiz-adv-x="747" d="M63 -163Q37 -163 20 -146T2 -102Q2 -75 20 -48Q70 26 157 54Q202 164 202 227Q202 293 150 293Q147 293 144 293T138 292Q152 284 152 267Q152 232 120 217Q121 221 121 225T122 233Q122 271 83 269Q108
303 152 303Q216 303 216 229Q216 218 215 204T209 175Q217 198 224 228T240 297L248 334H243Q156 334 100 296L98 299L133 327Q174 361 255 365Q271 441 286 498T315 594Q294 598 275 600T235 602Q189 602 144 588Q87 570 87 532Q87 517 98 500Q103 491 105 487T108
481Q108 466 58 447Q45 460 45 479Q45 539 122 595Q200 652 260 652Q292 652 336 642Q352 677 372 694Q376 698 382 702T396 713Q386 696 375 677T354 638Q437 619 500 609T605 598Q694 598 721 634Q731 647 736 647Q739 647 739 644Q739 641 736 635Q686 550 574
550Q508 550 406 574Q378 517 352 361Q442 350 490 345T544 339Q605 339 645 361Q649 361 649 358Q649 340 604 319Q572 303 528 303Q509 303 464 308T346 325Q317 156 266 111L216 66Q224 67 232 67T248 68Q281 68 313 60Q402 35 473 23T596 10Q698 10 734 52Q755
76 755 106Q755 123 746 134T737 147Q737 154 743 154Q762 154 762 113Q762 80 741 50Q684 -28 544 -28Q514 -28 453 -18T299 12Q274 17 251 19T205 22Q180 22 154 19Q144 -2 136 -20T117 -54Q105 -74 100 -74V-73Q100 -67 108 -52Q116 -35 125 -19T141 17Q83 5
48 -27T12 -94Q12 -150 85 -150Q90 -150 96 -150T102 -150Q102 -152 73 -158Q70 -159 68 -161T63 -163ZM310 365V366Q310 404 322 445T345 533Q353 544 364 555T387 578L334 590Q318 550 302 494T269 366H278Q285 366 293 366T310 365ZM173 59L206 65Q238 113 262
179T303 330Q282 333 262 333L239 233Q232 205 217 170T184 88L173 59Z" />
<glyph unicode="F" glyph-name="F" horiz-adv-x="686" d="M260 -53Q191 -53 130 -18Q64 23 42 84Q34 106 30 124T26 156Q26 188 49 188Q56 188 57 181Q62 162 66 149T73 128Q78 114 86 102T103 79Q150 26 229 26Q243 26 262 32Q283 38 286 38Q289 37 289 35Q289
17 213 17Q105 17 71 91Q131 -43 259 -43Q397 -43 476 78Q501 116 526 181T577 340Q567 341 553 342T521 347Q513 236 422 178Q428 187 428 200Q428 208 416 238Q416 245 421 259T432 275L434 273Q452 234 452 225Q452 221 451 221L437 197Q506 259 508 349Q435
361 392 361Q316 361 266 328L264 331L296 356Q337 390 422 390Q439 390 460 388T506 382Q502 410 493 432T469 474Q437 520 392 520Q386 520 377 517T362 514Q359 514 359 516Q359 532 396 532Q450 532 486 482Q515 439 521 381Q532 380 547 378T584 371Q601 435
616 480T644 554Q611 556 572 563T486 580L329 616Q282 625 244 630T174 635Q97 635 58 604Q27 579 27 548Q27 494 103 494Q106 494 106 493Q106 489 81 488Q79 488 77 487T72 485Q67 485 58 488Q19 501 19 542Q19 553 22 565T34 588Q91 673 215 673Q240 673 268
670T330 660Q385 646 467 628T661 587L674 609Q691 633 721 653Q754 672 781 672Q795 672 813 663T832 640Q832 629 823 629Q821 629 806 644Q793 660 776 660Q740 660 714 602L705 583Q718 582 730 582T753 582Q823 582 845 605Q863 626 863 652Q863 666 855 677T847
689Q847 694 853 694Q871 694 871 652Q871 550 702 551H694Q690 542 676 496T635 366H656Q682 366 703 371T743 385Q747 385 747 383Q747 367 707 348Q692 342 676 339T641 335Q637 335 633 335T625 336Q597 245 566 179T501 68Q405 -53 260 -53Z" />
<glyph unicode="G" glyph-name="G" horiz-adv-x="608" d="M140 -261Q65 -261 7 -226Q-54 -190 -77 -120Q-89 -81 -89 -53Q-89 -17 -57 -17Q-46 -17 -45 -23Q-44 -28 -43 -37T-41 -57Q-35 -117 2 -154Q6 -158 6 -161Q4 -163 3 -163Q-5 -163 -23 -142Q-44 -121 -48
-113Q6 -249 139 -249Q226 -249 306 -187Q400 -117 452 8Q480 72 523 243Q527 257 533 276T547 320Q534 322 522 324T499 327Q470 205 416 57Q335 -161 280 -161Q272 -161 269 -146Q261 -156 250 -164Q229 -152 229 -129Q229 -120 237 -107T254 -94Q255 -97 259
-100T270 -109Q285 -119 285 -129Q285 -131 283 -133Q286 -132 295 -125Q353 -80 418 104Q349 7 244 7Q148 7 91 76Q37 139 37 237Q37 374 124 486Q206 591 336 647Q435 688 524 688H534V716Q534 720 534 726T533 740V763Q533 776 538 779Q542 776 544 688Q646
682 692 623Q709 601 709 583Q709 574 703 561T686 548Q676 548 676 554Q676 555 679 560T682 571Q682 579 677 588T663 611Q619 664 544 673Q543 621 539 565T523 447Q520 428 516 408T507 364Q523 364 541 362T582 356Q611 372 634 372Q639 372 639 370Q638 368
633 365T617 349Q644 344 662 342T691 339Q727 339 743 355Q746 358 749 358Q752 358 752 354Q752 348 743 340Q706 301 659 301Q645 301 592 312Q577 281 560 221Q533 126 514 66T484 -20Q430 -142 320 -210Q238 -261 140 -261ZM272 33Q338 33 390 85Q442 139
442 203Q442 292 384 298Q397 288 397 272Q397 256 384 240T352 221Q358 235 358 247Q358 276 328 286L327 285L326 287Q322 287 319 288Q333 299 343 303Q357 314 364 321Q412 360 491 364Q509 450 520 527T533 675H514Q365 675 226 542Q89 410 89 261Q89 171
136 106Q188 33 272 33ZM455 221Q461 242 466 262T476 301L482 328H472Q420 328 379 312Q413 312 434 283Q452 258 455 221Z" />
<glyph unicode="H" glyph-name="H" horiz-adv-x="951" d="M216 -49Q137 -49 75 -10Q5 35 5 110Q5 152 31 190Q106 303 344 331Q389 337 441 337Q455 337 470 337T501 335Q530 427 544 494T562 610Q503 624 457 631T375 639Q219 639 163 547Q143 516 143 483Q143
430 189 398Q230 372 287 372Q343 372 388 404Q439 440 439 494Q439 527 408 549Q377 571 341 571Q275 571 261 540Q260 538 259 534T257 522Q255 512 251 511Q249 513 249 515Q249 547 280 567Q294 575 309 578T341 582Q384 582 416 558Q450 533 450 494Q450 436
395 396Q347 360 287 360Q218 360 173 396Q123 435 123 502Q123 539 141 573Q197 672 352 672Q387 672 439 662T563 628V647Q563 738 520 738H513Q529 731 529 712Q529 677 499 662Q500 666 500 675Q500 715 459 712Q482 747 519 747Q583 747 583 646Q583 640 583
634T582 622Q606 615 625 610T661 600Q666 612 673 620Q717 682 782 682Q795 682 813 674Q833 663 833 651Q833 639 823 639Q820 639 807 655Q794 670 776 670Q739 670 713 613L703 591Q717 589 730 588T754 586Q848 586 848 641Q848 653 841 662T833 676Q833 686
846 686Q876 686 876 647Q876 608 832 589Q799 574 756 574Q743 574 729 575T698 579L612 326Q683 319 734 316T817 313Q853 313 878 316Q895 396 912 457T949 562Q1005 687 1099 736Q1160 768 1231 768Q1311 768 1360 713L1362 709Q1362 707 1356 705T1350 697Q1350
694 1351 691V686Q1351 659 1342 659Q1340 659 1340 662Q1340 664 1342 671T1345 683Q1345 720 1295 741Q1255 755 1213 755Q1192 755 1171 750T1129 736Q1043 694 994 572Q978 532 962 471T930 327Q985 345 1007 385Q1018 402 1024 439Q1026 445 1030 445Q1036
445 1036 438Q1036 430 1033 419T1025 393Q1001 326 926 304Q917 258 911 226T899 174Q891 140 883 113T864 64Q851 35 820 13Q788 -10 759 -10Q744 -10 729 -3Q709 6 709 19Q709 29 718 29Q720 29 736 16Q749 3 765 3Q805 3 824 67Q832 93 842 139T865 251Q832
241 775 241Q747 241 699 244T584 255Q490 26 340 -27Q281 -49 216 -49ZM564 331L602 458Q615 499 627 532T653 587Q641 589 624 593T582 605Q578 545 555 461Q547 430 538 399T517 334L564 331ZM221 -35Q250 -35 278 -30T335 -15Q357 -7 376 5T412 30Q450 63 482
120T542 259L492 263Q446 147 407 81T335 0Q322 -5 314 -5Q308 -5 308 -3Q308 2 329 12Q398 47 476 264Q463 265 450 265T424 265Q318 265 269 234Q278 203 294 204Q297 198 257 164Q239 178 239 204Q239 225 266 246Q320 285 431 285Q444 285 457 285T484 284L496
319Q453 322 418 322Q398 322 380 321T345 318Q248 308 182 275T81 181Q59 143 59 101Q59 36 109 -1Q157 -35 221 -35ZM548 278Q551 286 554 295T559 313Q546 315 535 315T512 317L499 283L548 278ZM783 260Q810 260 831 262T868 268L874 295Q850 292 819 292Q786
292 733 296T605 308Q601 300 598 291T592 274Q659 267 707 264T783 260Z" />
<glyph unicode="I" glyph-name="I" horiz-adv-x="497" d="M59 -163Q50 -165 46 -162Q42 -158 49 -157Q74 -149 88 -121Q99 -98 114 -61T147 29H146Q145 28 144 28Q143 28 143 29Q133 30 122 30T101 31Q10 31 -38 -2L-40 0Q-10 29 7 45T32 65Q66 87 123 87Q132
87 141 87T160 85Q178 149 187 202T197 299Q197 399 140 397Q137 397 128 394Q147 388 147 363Q147 335 121 318Q122 338 114 352T87 366Q85 366 82 366T76 365Q89 385 107 397T151 409Q217 409 217 309Q217 293 215 273T209 230Q248 376 308 656Q283 662 258 662Q217
662 184 647Q143 627 143 591Q143 584 145 576T151 559L160 541Q160 525 121 505Q111 518 111 539Q111 591 167 652Q223 711 276 711Q294 711 319 705L338 792Q349 813 357 821Q368 832 386 835Q367 810 340 700L386 685Q397 694 434 703Q445 706 455 706Q450 700
446 691T436 671Q465 665 491 662T542 658Q610 658 630 694Q637 706 642 706Q644 704 644 703Q644 700 641 694Q605 610 517 610Q496 610 472 613T418 624Q405 587 388 513T346 326Q325 224 309 159T279 66Q323 59 357 55T416 50Q446 50 471 56T517 72Q520 72 520
70Q520 58 466 20Q431 -2 387 -2Q364 -2 232 19L192 0L190 2Q194 7 197 12T203 22L176 26Q128 -111 98 -137Q66 -162 59 -163ZM229 75Q297 235 352 563L365 640L327 651Q319 619 301 532T252 301Q242 255 228 200T193 81Q212 79 229 75Z" />
<glyph unicode="J" glyph-name="J" horiz-adv-x="684" d="M198 -233Q164 -233 130 -226T61 -205Q-10 -174 -52 -126Q-109 -57 -109 -30Q-109 -10 -76 -10Q-67 -10 -63 -16Q-59 -22 -53 -32T-36 -56Q54 -168 143 -168Q345 -168 470 127Q463 126 456 126T440 126Q358
126 306 169Q254 214 254 298Q254 409 342 506Q423 596 535 632Q519 691 493 729L502 700Q502 688 488 666Q474 643 470 643Q459 643 459 681V688Q485 725 485 745Q485 754 482 763Q525 723 546 636Q606 655 683 655Q691 655 701 655T723 654L733 670Q786 755 845
755Q858 755 872 747T887 727Q887 709 875 709Q872 709 860 724Q847 740 828 740Q782 740 751 653Q774 652 791 652T820 651Q958 651 958 724Q958 741 949 759T940 780Q940 783 943 783Q952 783 959 758Q966 738 966 725Q966 711 962 700Q936 624 828 624Q822 624
802 625T747 627H743L707 496Q679 394 657 317T617 187Q679 229 704 292Q711 307 711 319Q711 326 708 329T704 333Q704 341 715 341Q731 341 731 318Q731 308 725 294Q695 222 612 173L608 161Q588 100 565 53T521 -30Q393 -233 198 -233ZM497 146Q528 149 554
158Q571 214 597 299T660 496Q674 540 687 574T711 630Q645 636 626 636Q582 636 548 626Q556 592 560 556T564 482Q564 325 497 146ZM476 146H478Q494 185 507 225T530 307Q517 349 479 349Q473 349 465 346V351Q465 366 477 379T504 392Q537 392 536 337Q551
411 551 486Q551 524 548 558T537 623Q443 594 373 498Q339 450 321 402T303 303Q303 230 354 186Q402 146 476 146ZM193 -218Q350 -218 479 -12Q497 17 515 56T549 144Q535 140 520 136T490 130Q397 -103 239 -166Q203 -181 156 -181Q42 -181 -24 -113Q79 -218
193 -218Z" />
<glyph unicode="K" glyph-name="K" horiz-adv-x="927" d="M917 -100Q915 -100 913 -100T906 -98Q674 -11 602 204Q578 191 555 186T508 179Q439 40 351 -15Q290 -53 215 -53Q145 -53 84 -18Q19 22 -3 84Q-20 130 -20 156Q-20 188 3 188Q10 188 11 181Q29 111 58
79Q65 71 83 59T130 30Q140 26 140 23Q140 21 134 21Q109 21 74 44Q41 68 25 91Q85 -43 213 -43Q263 -43 306 -21Q405 25 479 180Q455 181 441 191Q369 14 265 -28Q274 -17 274 -9Q274 0 266 14T255 33Q258 44 271 60Q287 78 296 79L298 77Q303 55 305 43T308 26Q308
22 308 20T306 14L287 -9Q374 44 432 198Q422 208 422 217Q422 243 440 243Q443 243 447 240Q458 272 465 306T478 375Q464 415 429 415Q425 415 423 415T417 413V417Q417 432 428 445T455 458Q481 458 485 422Q489 448 490 473T492 520Q492 555 489 584T481 639Q453
643 423 644T360 646Q65 646 65 539Q65 477 178 432L180 430Q180 427 170 426Q133 426 82 471Q30 518 30 556Q30 685 373 685Q398 685 422 684T469 681Q454 729 422 759Q415 770 415 773Q415 781 423 781Q431 781 438 774Q473 743 493 678Q526 674 557 668T617
653Q623 679 629 696T640 721Q656 747 684 747Q699 747 699 734Q699 728 693 714Q682 687 672 656T651 590L594 400Q575 338 555 287T515 193H516Q550 193 596 224Q584 268 584 305Q584 335 591 352Q596 366 614 386Q632 411 644 411Q651 411 652 402Q630 373 630
327Q630 294 640 260Q657 275 678 296T721 342L924 604Q1070 773 1181 773Q1246 773 1270 723Q1278 705 1278 702Q1278 677 1265 677Q1257 677 1253 693Q1231 762 1172 762Q1105 762 1013 657L840 434Q785 362 737 312T648 232Q684 128 767 50Q856 -37 944 -37Q1024
-37 1024 36V43Q1023 46 1023 49Q1023 56 1025 56Q1035 56 1035 21Q1035 -50 952 -50H940Q919 -50 919 -65Q919 -70 921 -79T924 -94Q924 -100 917 -100ZM488 199Q514 257 538 338T587 526L607 614Q583 621 557 626T502 636Q511 588 511 535Q511 492 506 448T492
357Q485 325 476 293T456 229Q461 224 468 217T488 199Z" />
<glyph unicode="L" glyph-name="L" horiz-adv-x="941" d="M553 -134Q550 -134 549 -127Q549 -123 550 -114T554 -90Q559 -52 568 -13T588 69Q574 80 562 89T538 105Q450 -40 328 -40Q308 -40 288 -37T244 -26Q227 -20 227 -14Q227 -11 233 -11Q236 -11 244 -13Q283
-25 319 -25Q434 -25 509 126Q414 191 340 227Q280 256 216 256Q80 256 45 156Q38 136 38 115Q38 57 86 4Q130 -44 174 -53Q185 -55 185 -60Q185 -67 172 -67Q170 -67 167 -67T159 -66Q109 -57 67 -15Q21 34 21 98Q21 130 33 164Q57 229 116 264Q172 299 244 299Q301
299 356 276Q433 245 530 172Q535 182 541 197T556 234L570 266Q507 279 452 316Q359 379 359 472Q359 514 380 542T438 570Q463 570 483 555T503 516V513Q503 498 489 498Q469 498 468 518Q460 532 439 532Q435 532 432 532T425 530Q374 520 374 471Q374 386 457
327Q508 290 576 282Q697 573 802 656Q861 703 917 703Q967 703 999 666T1031 572Q1031 491 970 420Q849 276 669 261L648 207Q653 205 663 201T675 192Q676 189 629 151L628 152Q624 141 621 129T613 106Q685 48 742 10T841 -50Q876 -66 918 -66Q946 -66 970 -60T1015
-39Q1057 -12 1057 31Q1057 36 1055 45T1053 60Q1053 68 1058 68Q1070 68 1070 25Q1070 -26 1024 -59Q978 -92 909 -92Q845 -92 786 -61Q760 -48 714 -18T599 61Q583 8 573 -38T558 -126Q556 -134 553 -134ZM620 280Q631 281 642 282T663 284Q683 330 705 379T753
478Q835 635 865 637Q872 637 872 630Q872 626 868 623Q834 596 787 512T680 287Q845 320 947 448Q1004 519 1004 588Q1004 632 982 660T921 688Q872 688 815 639T705 482Q695 461 674 411T620 280ZM602 115L617 161Q611 167 609 173T606 183Q606 191 615 207T638
224H639Q643 232 646 241T654 261Q632 260 612 261Q598 227 585 199T561 147Q569 142 579 134T602 115Z" />
<glyph unicode="M" glyph-name="M" horiz-adv-x="1373" d="M181 -84Q113 -84 60 -50Q8 -12 8 45Q8 176 204 239Q242 251 275 257T336 266H341Q344 266 351 261Q349 255 336 254Q320 252 296 248T239 235Q168 214 120 172Q87 144 72 113T56 47Q56 21 65 0T96 -38Q134
-69 198 -69Q244 -69 296 -54Q423 -14 540 118Q572 154 615 216T713 366L761 444L727 506Q720 482 711 458T691 407Q631 271 532 152Q408 2 294 -13Q317 3 321 51V53Q339 83 357 83Q360 83 360 81Q359 68 356 53T346 18L320 0Q471 45 612 279Q612 300 599 315T566
330Q575 364 610 364Q638 364 635 331Q635 327 635 323T633 315Q663 371 684 423T716 525Q698 557 686 582T667 624Q623 634 585 639T515 644Q360 644 295 552Q271 520 271 479Q271 431 310 404Q329 390 353 384T405 377Q432 377 458 385T509 410Q568 449 568 504Q568
534 540 556Q511 576 475 576Q390 576 390 529Q390 520 393 510T403 489L380 457Q364 504 364 505Q366 513 368 519Q401 587 476 587Q519 587 548 565Q579 540 579 507Q579 445 516 402Q462 365 404 365Q337 365 294 402Q252 437 252 496Q252 540 276 579Q339 677
494 677Q557 677 660 650Q658 660 657 669T656 687Q657 704 708 719Q711 724 716 724Q719 724 722 723T725 717Q745 686 745 624Q784 614 815 606T868 593Q952 690 1016 690Q1029 690 1042 685Q1047 684 1053 678Q1067 668 1067 650Q1067 630 1055 618Q1026 574
940 574Q909 574 870 580Q855 561 838 537T801 483Q888 329 909 234Q1034 422 1188 582Q1360 758 1436 758Q1469 758 1469 743Q1469 734 1437 734Q1353 734 1182 557Q1027 397 913 216Q922 168 922 125Q922 115 922 106T921 89Q917 44 898 15Q873 -22 832 -22Q800
-22 800 8Q800 55 863 161Q854 272 768 432L723 360Q614 188 544 109Q428 -22 298 -64Q268 -74 239 -79T181 -84ZM939 586H950L994 602Q1031 618 1031 645Q1031 671 996 671Q948 671 880 591Q896 589 910 588T939 586ZM1250 -79Q1245 -79 1240 -75Q1115 12 1115
219Q1115 316 1140 400T1218 553Q1228 567 1237 577T1253 594Q1261 602 1287 612Q1313 622 1324 622V622H1325H1324Q1252 583 1207 468Q1191 425 1180 378T1165 280Q1164 267 1164 255T1163 230Q1163 141 1190 75Q1230 -15 1305 -15Q1371 -15 1401 84Q1403 89 1406
91Q1406 91 1408 85Q1405 41 1373 8Q1341 -26 1299 -27Q1297 -27 1294 -27T1287 -26Q1268 -27 1260 -53Q1254 -79 1250 -79ZM794 495Q827 544 859 582Q817 588 744 606V601L743 594Q758 561 794 495ZM835 0Q856 0 863 105V129Q828 59 825 22V18Q825 0 835 0Z" />
<glyph unicode="N" glyph-name="N" horiz-adv-x="980" d="M939 -61Q905 -61 868 -38Q796 7 731 148Q723 165 698 228T630 404Q570 179 522 100Q432 -53 266 -53Q195 -53 132 -19Q66 20 42 84Q34 106 30 124T26 156Q26 188 49 188Q56 188 57 181Q62 162 66 149T73
128Q78 114 86 102T103 79Q150 26 229 26Q243 26 262 32Q283 38 286 38Q289 37 289 35Q289 17 213 17Q105 17 71 91Q128 -37 252 -42Q255 -40 261 -38T278 -34Q324 -24 393 71Q417 106 438 140T477 211Q491 240 502 266T521 318Q518 341 502 355T465 366Q465 381
477 393T505 405Q537 405 535 364Q561 468 561 550V556Q488 679 393 679Q316 679 277 615Q261 588 252 555T243 481Q243 412 269 346Q300 276 350 237Q360 230 374 223T405 208Q414 204 414 199Q414 192 404 192Q400 192 398 193Q356 209 323 241T264 321Q219 410
219 503Q219 594 261 645Q306 703 392 703Q480 703 548 647Q539 682 519 708Q513 716 513 721Q513 729 521 729Q530 729 537 720Q566 688 577 622Q594 603 610 577T639 519Q698 680 772 680Q790 680 805 666T820 632Q820 622 816 622Q813 622 810 633Q803 671 773
671Q714 671 654 484L734 273Q760 204 784 152T831 62Q842 90 853 127T875 212L910 359Q957 558 1015 656T1135 754Q1173 754 1198 723Q1202 719 1202 713Q1202 706 1196 706Q1192 706 1190 712Q1179 745 1138 745Q1133 745 1128 745T1118 743Q1043 720 950 345Q938
296 928 259T910 195Q894 140 877 103T843 44Q900 -43 949 -43Q978 -43 1007 -20Q1035 3 1035 3Q1042 3 1042 -4Q1042 -8 1039 -13Q1001 -61 941 -61H939ZM275 -42Q388 -37 462 44Q491 76 515 122T559 230Q564 244 578 296T616 441Q606 465 598 485T581 521Q569
362 488 197Q396 9 275 -42Z" />
<glyph unicode="O" glyph-name="O" horiz-adv-x="831" d="M90 -193Q99 -186 105 -178T114 -159Q115 -155 115 -145T116 -117V-115Q121 -105 134 -92T157 -78Q160 -79 160 -81Q160 -144 150 -157L120 -178Q214 -149 306 -39Q213 -35 159 20T105 170Q105 221 125
279Q9 333 9 466Q9 557 68 623Q121 686 209 719Q257 737 310 746T422 756Q459 756 495 752T566 740Q562 764 555 787T539 835Q536 844 536 850Q536 861 544 861Q553 861 562 847Q584 811 589 733Q648 716 696 689T778 624Q856 540 856 416Q856 234 682 96Q520 -33
330 -39Q215 -184 90 -193ZM140 315Q197 443 312 528Q432 615 568 622Q569 635 569 648T570 673Q570 683 570 692T569 710Q527 723 486 729T402 736Q297 736 215 698Q52 622 52 476Q52 370 140 315ZM350 -13Q514 -4 654 127Q796 263 796 424Q796 608 643 681Q630
687 618 692T591 703V695Q591 679 590 661T587 622H592Q651 622 681 612T711 589Q711 583 698 583Q694 583 683 585T655 593Q620 604 585 605Q581 562 572 515T548 418Q514 291 465 184T350 -13ZM327 -14Q368 42 399 98T451 213Q450 239 433 259T390 277Q398 318
440 318Q474 318 474 278Q474 275 474 272T473 264Q487 307 500 349T528 433Q543 483 552 525T566 605Q452 600 340 506Q285 460 246 408T182 294Q218 281 261 281Q266 281 279 286T295 292L296 291Q296 288 288 280Q265 258 224 258Q211 258 198 259T171 263Q157
215 157 174Q157 108 186 59Q218 5 280 -9Q291 -11 302 -12T327 -14Z" />
<glyph unicode="P" glyph-name="P" horiz-adv-x="805" d="M162 -90Q125 -92 125 -60Q125 -36 139 -36Q141 -36 165 -54Q189 -72 212 -72Q307 -72 389 195L351 201Q301 43 252 -12Q247 -17 244 -17Q240 -17 240 -12Q240 -10 245 -3Q268 24 290 76T335 205Q263 225
230 266Q209 295 209 328Q209 369 248 412Q287 457 320 457Q326 457 327 454L326 453Q241 414 241 354Q241 324 261 295Q288 255 342 231Q350 261 358 291T373 353Q361 342 339 325Q320 337 320 362Q320 372 331 387T350 403Q359 370 375 366Q380 386 383 404T388
438Q395 483 398 522T402 595Q402 609 402 622T400 647Q350 626 319 614T277 598Q208 574 156 574Q114 574 85 598T55 663Q55 701 80 742Q85 749 89 749Q93 749 93 744Q93 744 79 718Q66 696 66 673Q66 614 140 614Q184 614 268 637L396 678Q376 781 306 781Q302
781 299 781T292 780Q319 768 319 737Q319 708 301 699Q292 760 242 755Q258 791 307 791Q390 791 414 683Q516 713 590 713Q595 713 599 713T608 712Q669 768 723 768Q747 768 772 750Q797 734 797 711Q797 693 787 693Q786 693 762 722Q740 751 706 751Q664 751
624 711Q737 704 809 651Q894 587 894 482Q894 424 860 365Q752 191 459 191H435Q375 -27 258 -72Q215 -88 165 -90H162ZM395 215Q406 250 416 290T437 376Q485 586 592 698Q557 697 514 686T419 655Q421 639 421 623T422 588Q422 550 418 505T404 410Q397 367
386 321T359 224L395 215ZM474 206Q581 206 668 244Q768 286 814 373Q844 427 844 484Q844 583 776 641Q713 695 613 698Q559 631 508 468Q504 456 487 391T439 208Q448 207 456 207T474 206Z" />
<glyph unicode="Q" glyph-name="Q" horiz-adv-x="777" d="M53 -257Q72 -244 77 -222Q79 -214 79 -181V-179Q84 -169 98 -155T120 -141Q123 -141 123 -144Q123 -207 114 -221L83 -241Q202 -205 313 -46Q251 -44 202 -34T117 -7Q99 2 83 13T52 41Q17 76 17 112Q17
149 60 149Q130 149 341 -2Q388 75 414 149Q414 175 396 196T354 214Q362 256 403 256Q437 256 437 215Q437 212 437 209T436 202L501 402Q534 518 534 610Q534 630 533 649T527 688Q499 694 469 694Q317 694 220 603Q123 513 123 361Q123 238 202 181Q198 189
195 197T189 214Q188 220 188 228T187 245Q187 292 199 370Q207 376 213 376Q229 376 240 341L226 286Q217 246 217 212Q217 201 218 190T221 168Q228 163 228 159Q228 156 223 154Q225 150 226 147T228 140H227Q222 140 215 152L204 155Q81 236 81 371Q81 517
205 619Q322 712 471 712Q485 712 497 711T523 708Q516 739 502 773Q499 781 499 786Q499 797 508 797Q517 797 525 783Q542 759 549 704Q666 680 742 596Q821 508 821 390Q821 296 771 198Q717 95 618 30Q570 -1 516 -19T403 -44Q599 -175 692 -175Q803 -175 803
-106Q803 -101 802 -92T800 -78Q800 -71 805 -71Q815 -71 815 -108Q815 -215 697 -215Q572 -215 330 -53Q198 -247 53 -257ZM382 -30Q589 -22 690 138Q762 251 762 370Q762 476 704 564Q676 608 638 637T552 681Q553 668 553 656T554 631Q554 570 544 501T512 354Q485
254 446 163T356 -12L382 -30ZM286 -27H296L163 71Q87 127 52 127Q31 127 31 109Q31 95 48 73Q99 6 216 -20Q236 -24 253 -26T286 -27Z" />
<glyph unicode="R" glyph-name="R" horiz-adv-x="855" d="M892 -180Q888 -180 880 -177Q622 -85 517 139Q510 153 505 168T495 196Q473 194 452 193T410 191H385Q325 -27 208 -72Q187 -80 164 -85T115 -90H112Q75 -90 75 -60Q75 -36 90 -36Q92 -36 116 -54Q140
-72 163 -72Q256 -72 341 195L302 201Q252 43 203 -12Q198 -17 194 -17Q191 -17 191 -12Q191 -8 195 -3Q218 24 241 76T286 205Q214 225 181 266Q160 295 160 328Q160 367 199 412Q238 457 270 457Q277 457 278 454Q277 454 276 453Q192 413 192 354Q192 324 212
295Q238 256 294 231Q302 261 309 291T323 353Q317 347 309 340T289 325Q271 337 271 362Q271 372 282 387T301 403Q310 370 326 366Q331 386 334 404T340 438Q346 483 349 522T353 595Q353 609 353 622T351 647Q301 626 270 614T228 598Q159 574 107 574Q66 574
36 598T5 663Q5 682 11 701T30 742Q35 749 40 749Q44 749 44 744Q44 744 30 718Q23 707 21 696T18 673Q18 614 90 614Q113 614 145 619T219 637L346 678Q328 781 258 781Q254 781 251 781T243 780Q270 768 270 737Q270 708 252 699Q243 759 192 755Q208 791 259
791Q340 791 365 683Q467 713 541 713Q545 713 549 713T558 712Q620 768 674 768Q698 768 723 750Q748 735 748 711Q748 693 739 693Q737 693 713 722Q691 751 658 751Q615 751 576 711Q688 704 760 651Q845 588 845 482Q845 423 810 365Q734 239 542 203Q562 147
600 94T695 -11Q811 -116 906 -116Q976 -116 976 -59Q976 -53 974 -42T971 -27Q971 -24 973 -24Q981 -24 984 -45Q986 -53 987 -59T989 -71Q989 -130 918 -130H911Q908 -129 904 -129Q887 -129 887 -141Q887 -147 892 -159T897 -175Q897 -180 892 -180ZM346 215Q357
250 367 290T388 376Q438 588 543 698Q509 697 466 686T370 655Q372 639 373 623T374 588Q374 550 370 505T355 410Q347 367 336 321T309 224L346 215ZM425 206Q442 206 458 207T491 210Q485 234 485 255Q485 263 487 273Q490 286 504 308Q519 331 530 331Q536
331 539 323Q528 301 528 275Q528 262 530 248T538 218Q699 251 765 373Q795 427 795 484Q795 583 726 641Q663 695 563 698Q511 632 460 468Q456 456 439 391T390 208Q399 207 408 207T425 206Z" />
<glyph unicode="S" glyph-name="S" horiz-adv-x="781" d="M627 516Q617 517 615 589Q619 609 631 641T665 718Q671 720 674 720Q692 720 692 683Q682 667 672 651T653 618Q626 566 627 516ZM346 -140Q193 -140 109 -67Q40 -5 40 91Q40 199 129 267Q209 329 312
330Q398 330 447 286Q490 246 490 188Q490 129 448 87Q400 41 326 41Q317 41 317 44Q317 50 326 51Q358 58 383 71T427 105Q461 142 461 191Q461 245 422 279Q382 316 316 316Q226 316 158 257Q84 195 84 99Q84 5 141 -52Q207 -122 339 -122Q468 -122 555 -45Q650
37 650 162Q650 253 580 335L471 447Q441 478 428 508T414 567Q414 629 462 666Q508 703 569 703Q593 703 617 696T641 679Q641 674 635 674Q632 674 611 683Q594 690 576 690Q531 690 496 657Q462 623 462 579Q462 529 509 479L611 384Q660 339 683 287T707 176Q707
42 592 -52Q484 -140 346 -140ZM587 188Q582 186 582 194Q575 243 542 294Q540 279 536 260Q517 257 502 273Q500 276 498 282T495 296V303Q495 314 498 318Q519 303 533 306Q510 339 480 366T415 416Q342 460 286 460Q226 460 203 410Q214 418 225 418Q237 418
248 411Q268 397 267 379Q254 385 239 385Q211 385 198 361Q187 378 187 390Q187 405 201 427Q230 475 291 475Q382 475 479 385Q529 341 560 295T591 198V195Q591 190 587 188Z" />
<glyph unicode="T" glyph-name="T" horiz-adv-x="650" d="M260 -53Q191 -53 130 -18Q64 23 42 84Q34 106 30 124T26 156Q26 188 49 188Q56 188 57 181Q62 162 66 149T73 128Q78 114 86 102T103 79Q150 26 229 26Q243 26 262 32Q283 38 286 38Q289 37 289 35Q289
17 213 17Q105 17 71 91Q131 -43 259 -43Q262 -43 266 -43T274 -42Q276 -41 281 -39T295 -35Q341 -21 404 76Q427 111 446 147T481 220Q506 276 520 330Q510 375 470 375Q463 375 461 374Q461 389 473 402T501 416Q528 416 530 376Q539 417 543 457T547 534Q547
542 547 551T546 568Q511 576 456 588T329 616Q282 625 244 630T174 635Q97 635 58 604Q27 579 27 548Q27 494 103 494Q106 494 106 493Q106 489 81 488Q79 488 77 487T72 485Q65 485 57 489Q19 502 19 542Q19 553 22 565T34 588Q91 673 215 673Q240 673 268 671T330
660L542 610Q533 675 497 719Q490 726 490 732Q490 740 499 740Q504 740 514 732Q552 693 564 605Q619 593 661 587L674 609Q682 622 694 632T721 653Q754 672 781 672Q795 672 813 663T832 640Q832 629 823 629Q821 629 806 644Q793 660 776 660Q741 660 714 602L705
583Q718 582 730 582T753 582Q823 582 845 605Q863 626 863 652Q863 666 855 677T847 689Q847 694 853 694Q871 694 871 652Q871 551 702 551H694L611 292Q557 132 488 52Q397 -53 260 -53ZM301 -40Q411 -24 481 85Q504 122 526 180T571 318Q596 410 614 469T644
554Q626 556 607 558T568 564V543Q568 468 551 388T499 221Q418 22 301 -40Z" />
<glyph unicode="U" glyph-name="U" horiz-adv-x="903" d="M393 -139Q388 -139 388 -121Q388 -116 388 -111T389 -100Q391 -86 393 -71T397 -43Q387 -46 377 -46Q312 -46 312 54Q312 99 326 159T372 293L477 538Q492 573 498 603T505 656Q505 726 439 726Q413 726
382 716Q294 689 216 622Q177 591 147 554T94 476Q69 430 57 389T44 312Q44 192 134 192Q157 192 187 203Q204 210 220 220T253 247Q261 258 269 267T287 287Q297 299 297 290V286Q297 282 294 276Q256 208 185 186Q168 182 152 179T121 176Q8 176 8 313Q8 406
68 496Q203 691 381 736Q398 740 413 741T443 743Q552 743 552 639Q552 617 547 589T530 529L426 283Q394 207 380 149T365 52Q365 -21 397 -21H401Q407 14 416 53T435 132Q442 156 451 184T470 244Q464 244 462 243L461 244Q459 251 483 281Q509 352 542 422T617
564Q712 729 779 763Q784 766 789 766Q802 766 802 756Q802 751 796 746L755 717Q724 692 688 641T610 513Q540 387 502 288Q520 277 525 258Q527 248 521 231T505 211Q495 227 485 236Q462 168 444 105T415 -18Q495 9 633 213Q764 406 788 508Q795 533 795 533Q799
544 817 544Q838 544 838 532Q838 531 830 507Q797 412 781 317T765 126Q765 -20 822 -20Q858 -20 904 40Q911 49 926 71T963 130Q968 137 972 137Q978 137 974 127Q886 -33 814 -33Q710 -33 710 118Q710 162 719 221T747 353Q539 14 412 -38Q405 -76 400 -120Q399
-139 393 -139Z" />
<glyph unicode="V" glyph-name="V" horiz-adv-x="612" d="M370 -120Q371 -117 371 -114T371 -109Q371 -94 344 -69L343 -68Q342 -62 341 -57T339 -47Q339 -34 346 -27Q348 -25 349 -27Q367 -42 383 -68L378 -96Q412 -33 412 60Q412 150 382 249Q369 259 352 259Q332
259 318 242Q310 253 310 262Q310 274 323 290Q334 301 343 301Q351 301 363 291L372 281Q353 332 331 374T282 450Q254 425 221 411T150 397Q86 397 43 431T-1 522Q-1 575 35 621Q102 706 234 706Q242 706 249 706T263 705Q294 704 333 694T421 666Q459 653 497
639T574 610Q636 588 668 588Q712 588 720 622Q720 624 720 625T721 627Q721 633 718 638T715 646Q715 653 722 653Q741 653 741 635Q741 633 741 630T740 624Q731 578 665 578Q646 578 621 582T565 596L410 645Q408 638 407 631T406 615Q406 559 463 422Q495 345
515 284T542 175Q663 364 809 522Q970 699 1037 699Q1064 699 1064 684Q1064 680 1058 677T1036 674Q961 674 801 498Q728 418 664 333T544 155Q547 128 547 100Q547 82 546 64T542 28Q528 -82 458 -82Q431 -82 431 -56Q431 -33 448 6T497 100Q497 192 455 309Q436
355 418 400T381 492Q343 585 349 626Q351 638 382 653Q310 671 252 671Q119 671 51 593Q17 555 17 509Q17 465 55 437Q74 424 98 417T153 409Q222 409 275 458Q269 464 263 470T250 483Q208 520 189 520Q170 520 144 492Q135 542 136 542Q142 574 169 595T227
616Q272 616 298 593T325 534Q325 497 293 460Q307 440 321 417T347 368Q419 218 419 60Q419 -53 370 -120ZM285 468Q308 497 308 529Q308 591 233 603Q202 607 179 589T156 541Q178 540 201 530T248 502Q267 487 285 468ZM462 -60Q479 -60 493 46L496 69Q478 35
468 8T456 -37Q455 -41 455 -47Q455 -60 462 -60Z" />
<glyph unicode="W" glyph-name="W" horiz-adv-x="1177" d="M560 -98Q553 -98 542 -78Q538 -68 534 -56T527 -27Q496 -46 471 -46Q408 -46 408 58Q408 102 421 161T466 293L572 538Q585 567 590 592T595 637Q595 726 491 726Q371 726 229 623Q82 516 55 399Q49
374 49 353Q49 260 145 260Q151 260 157 260T170 261Q207 266 250 295Q294 324 293 324Q298 324 298 321Q298 316 290 308Q260 275 223 260T140 244Q14 244 14 360Q14 383 20 408Q48 536 212 643Q364 743 502 743Q643 743 643 622Q643 601 639 578T624 529L521
283Q489 207 475 148T460 49Q460 -21 492 -21Q500 -21 507 -19T525 -12Q524 -1 524 10T523 32Q523 76 530 120T551 210Q546 218 546 229Q546 245 567 258Q608 375 646 457T721 586Q761 639 802 639Q822 639 835 626T845 603Q844 597 838 597Q832 599 832 603Q831
629 813 629Q779 629 737 575Q698 525 660 446T582 259Q597 235 625 237V236Q625 233 621 228T606 218Q597 211 588 205T570 193L562 198Q549 156 543 116T536 38Q536 27 536 17T538 -4Q623 51 745 238Q804 327 838 394T883 508Q892 544 926 544Q947 544 947 532L940
507Q855 259 855 126Q855 -10 914 -10Q944 -10 982 32T1063 160L1171 382Q1214 470 1254 537T1329 652Q1424 783 1495 783Q1539 783 1539 761Q1539 745 1501 745Q1395 745 1255 499Q1211 411 1167 324T1078 150Q981 -28 910 -28Q806 -28 806 118Q806 162 815 221T843
353Q754 208 678 115T540 -20Q545 -51 554 -72T561 -97L560 -98Z" />
<glyph unicode="X" glyph-name="X" horiz-adv-x="746" d="M47 -110Q41 -113 41 -105Q41 -98 44 -97Q115 -59 201 19T389 215Q382 274 373 341T354 486Q336 642 274 717Q191 714 122 607Q61 509 61 422Q61 346 100 289Q141 233 193 233Q229 233 260 260Q313 303
313 363Q313 367 313 370T311 378Q283 389 263 389Q253 389 248 383Q249 387 250 390T253 398Q261 417 261 433Q264 435 267 435T274 435Q288 435 301 425Q316 413 315 386Q319 381 319 360Q319 283 273 246Q229 211 181 211Q116 211 68 269Q22 330 22 413Q22 514
90 612Q126 662 168 692T259 734Q219 773 178 773Q168 773 161 769T148 765Q144 765 144 767Q144 771 149 774Q156 779 165 781T184 783Q233 783 278 738Q283 739 288 739T299 739Q375 739 425 669Q480 591 488 436Q490 400 497 337Q566 424 620 487T712 589Q890
776 984 783H990Q1006 783 1007 775Q1009 771 986 769Q903 761 726 572Q695 541 498 308Q499 261 504 217T520 133Q552 16 612 16Q697 16 734 140L745 192Q746 199 753 202H755Q760 202 760 194Q760 188 757 176T749 144Q742 114 728 88T696 41Q649 -12 594 -12Q524
-12 488 76Q472 112 464 158T454 263L405 204Q407 185 410 168T415 137Q448 -63 523 -83Q530 -84 530 -89Q530 -99 518 -97Q436 -75 403 120L392 189Q292 71 206 -3T47 -110ZM402 230Q416 247 428 262T451 292Q450 309 447 342T438 424Q413 693 297 715Q327 676
346 620T374 489Q378 448 385 384T402 230Z" />
<glyph unicode="Y" glyph-name="Y" horiz-adv-x="772" d="M359 -141Q271 -141 188 -90Q116 -44 76 20Q32 93 32 120Q32 140 49 140Q56 140 60 133Q92 58 142 14Q210 -49 294 -49Q323 -49 344 -37Q349 -33 351 -38Q352 -42 347 -46Q321 -60 282 -60Q265 -60 242
-57Q155 -44 104 27Q212 -125 345 -125Q472 -125 603 21Q661 86 776 330Q890 572 942 632Q993 692 1047 692Q1077 692 1095 667Q1099 662 1099 656Q1099 639 1086 639Q1081 639 1078 646Q1064 674 1043 674Q1004 674 964 609Q958 599 922 526T818 314Q706 84 630
-1Q505 -141 359 -141ZM620 105Q617 126 600 140L572 154Q567 160 563 172T559 192Q560 194 561 196T563 199Q586 188 616 164L620 134Q622 146 623 159T624 186Q624 283 571 377Q520 466 438 525Q347 503 316 428Q318 420 321 411T326 390Q327 346 300 236Q292
231 288 231Q270 231 261 268L285 332Q301 376 301 418Q301 444 295 468H296Q301 468 310 445Q342 511 403 547Q362 571 323 579T246 587H242Q228 587 228 596Q228 608 246 609Q251 610 256 610T265 610Q342 610 423 558Q445 568 462 569Q467 570 471 570T480 570Q547
570 599 521Q691 433 699 195Q699 190 685 183T663 176Q660 176 660 178Q657 368 581 464Q553 499 524 514T464 529H462Q500 498 531 459T585 376Q634 284 634 193Q634 149 620 105Z" />
<glyph unicode="Z" glyph-name="Z" horiz-adv-x="849" d="M103 -101Q73 -101 43 -61Q16 -27 16 7Q16 33 28 55Q81 141 205 141Q219 141 234 140T263 137Q292 172 322 213T384 300L367 290Q356 300 356 315Q356 321 357 325Q359 334 371 346T392 358Q393 334 402
325Q417 346 429 364T452 399Q475 434 499 479T552 579Q468 602 413 612T330 623Q306 623 283 620Q264 616 246 608T213 589Q177 566 179 534Q180 533 192 535T218 541T239 546Q256 551 272 553T302 557Q374 545 373 534Q357 537 341 537Q322 537 301 533T258 519L199
493Q165 505 165 514Q165 520 168 524L166 542Q171 597 219 629Q242 645 270 653T331 662Q400 662 573 618Q593 658 607 691T632 750Q636 763 652 763Q657 763 655 757Q648 722 590 614Q612 609 630 605T665 597Q761 694 843 694Q895 694 895 652Q895 626 870 601Q857
587 838 578T794 561Q766 554 736 552T673 551Q657 532 609 468T484 293Q444 233 346 110L354 106Q484 41 585 12T758 -18Q842 -18 842 37Q842 56 826 77Q811 100 811 98Q811 101 815 101Q831 101 843 70Q848 60 849 50T851 30Q851 -52 721 -52Q657 -52 564 -26T350
55Q340 60 331 63T311 71Q197 -48 105 -48Q70 -48 70 -41Q70 -36 77 -36Q82 -36 90 -37T102 -38Q190 -38 296 77Q283 82 270 86T246 93Q148 -23 118 -23Q111 -23 111 -18Q111 -12 117 -9Q157 11 231 97Q209 102 189 104T149 107Q26 107 26 17Q26 -25 60 -57Q94
-86 141 -98Q143 -98 145 -100Q145 -100 143 -100T136 -101Q131 -101 122 -100T109 -99Q106 -99 105 -100T103 -101ZM731 590Q747 590 765 592T802 598Q875 611 875 657Q875 678 850 678Q825 678 784 651Q763 637 745 623T710 591Q715 591 720 591T731 590ZM330
117Q353 146 384 190T453 294L531 421Q557 464 582 498T630 559Q617 562 602 566T569 574Q538 518 512 473T463 393Q420 324 374 260T279 134Q292 130 304 126T330 117Z" />
<glyph unicode="[" glyph-name="bracketleft" horiz-adv-x="440" d="M202 -17Q97 -17 97 19Q97 136 223 377Q350 618 445 684Q471 701 511 701Q609 701 609 680Q609 680 609 677T608 667Q605 666 602 666T594 666Q583 666 560 668T524 670Q481 670 471 663Q450
652 411 605Q372 559 330 494T241 342Q135 148 135 59Q135 4 210 4Q223 4 247 6T283 9Q311 9 311 -3Q311 -17 202 -17Z" />
<glyph unicode="\" glyph-name="backslash" horiz-adv-x="525" d="M475 -113V-94Q475 61 299 324Q233 422 159 514T0 692Q2 698 13 698Q37 698 60 678Q84 659 150 576Q212 498 266 420T368 261Q500 35 500 -82Q500 -113 475 -113Z" />
<glyph unicode="]" glyph-name="bracketright" horiz-adv-x="440" d="M91 -17Q69 -17 54 -17T31 -15Q54 5 69 8H113Q207 8 253 61Q330 154 406 331Q487 520 487 627Q487 648 483 663Q470 672 444 672Q434 672 423 672T396 670Q358 669 347 667Q379 699 454 699Q495
699 501 697Q525 691 525 663Q525 520 443 326Q362 133 261 26Q220 -17 91 -17Z" />
<glyph unicode="^" glyph-name="asciicircum" horiz-adv-x="371" d="M354 316Q333 318 281 350Q256 367 238 379T211 402Q114 320 100 320Q92 320 92 330Q92 340 152 388Q211 438 225 440L231 438Q267 397 353 333L358 323L354 316Z" />
<glyph unicode="_" glyph-name="underscore" horiz-adv-x="570" d="M-10 -100V-75H560V-100H-10Z" />
<glyph unicode="`" glyph-name="grave" horiz-adv-x="500" d="M263 345Q260 345 246 353T216 373T186 393T171 403Q153 417 150 423T147 433Q147 444 162 444Q173 444 180 443T194 434Q197 431 212 414T246 379T278 351L281 349Q280 346 274 345T263 345Z" />
<glyph unicode="a" glyph-name="a" horiz-adv-x="308" d="M47 -6Q6 -6 6 34Q6 72 61 140Q111 203 148 227T217 251Q255 251 255 229Q255 224 245 215T234 203Q215 172 215 77Q215 22 239 22Q261 22 290 48T344 106Q347 109 349 109Q353 109 353 104Q353 102 352
97T348 89Q307 34 278 15T220 -4Q175 -4 176 92Q157 58 121 28Q79 -6 47 -6ZM74 21Q91 21 110 35Q169 82 187 211Q184 211 183 212Q163 212 130 188Q102 169 85 147Q45 95 45 57Q45 21 74 21Z" />
<glyph unicode="b" glyph-name="b" horiz-adv-x="251" d="M86 -9Q34 -9 34 67Q34 146 91 285Q113 338 138 390T191 491Q201 508 216 531T253 582Q260 589 275 589Q301 589 301 578Q301 576 299 572Q283 553 264 524T220 455Q189 401 164 356T122 271Q91 202 76
148T60 55Q60 9 94 9Q111 9 128 27T164 76Q151 93 146 114T141 166Q141 224 172 224Q201 224 201 168Q201 113 186 78Q201 66 220 66Q237 66 255 77T287 106Q289 108 293 108Q296 108 296 102Q296 101 295 96T291 89Q278 71 258 62T218 52Q194 52 180 64Q133 -9
86 -9Z" />
<glyph unicode="c" glyph-name="c" horiz-adv-x="247" d="M114 -7Q77 -7 56 18T35 82Q35 129 81 186Q128 242 175 242Q211 242 211 215Q211 205 197 179Q184 152 178 152Q175 152 174 159Q174 163 176 172T179 185Q179 210 149 210Q116 210 92 168Q71 131 71 94Q71
20 133 20Q183 20 217 44T284 107Q289 112 293 112Q297 112 297 108Q297 104 294 99T287 89Q274 72 256 53T214 20Q186 4 161 -1T114 -7Z" />
<glyph unicode="d" glyph-name="d" horiz-adv-x="400" d="M59 -5Q15 -5 15 44Q15 103 96 166Q171 225 235 225Q238 225 242 224T250 223Q252 223 261 250L341 474Q348 493 358 520T383 582Q392 599 396 599Q419 599 419 579Q419 565 411 535T384 460L336 339Q319
295 307 256T285 182Q275 146 275 95Q275 15 313 15Q336 15 365 34T436 106Q438 108 442 113T448 118Q451 118 451 114Q451 108 448 102T440 89Q403 37 368 17T302 -4Q231 -4 229 133Q222 117 203 97T153 50Q89 -5 59 -5ZM84 30Q113 30 157 74Q174 91 187 107T214
142Q224 159 232 174T245 205Q241 206 236 206T224 207Q133 207 77 106Q60 78 60 55Q60 30 84 30Z" />
<glyph unicode="e" glyph-name="e" horiz-adv-x="262" d="M136 -8Q95 -8 66 15T36 87Q36 140 71 196Q89 225 115 242T161 260Q190 260 190 225Q190 195 150 152Q113 114 80 100Q79 96 79 92T78 82Q78 19 153 19Q196 19 233 45T299 106Q304 112 308 112Q312 112
312 108Q312 104 308 98T302 89Q286 67 269 50T222 17Q201 4 179 -2T136 -8ZM84 121Q97 128 109 137T134 160Q161 192 161 216Q161 231 152 231Q144 231 132 218T108 184Q89 145 84 121Z" />
<glyph unicode="f" glyph-name="f" horiz-adv-x="289" d="M22 -380Q-4 -380 -20 -356T-43 -297T-51 -232Q-51 -151 -26 -50T49 173Q66 213 84 261T124 364Q137 397 153 436T190 522Q193 527 198 527Q206 527 217 519T228 502L209 458L74 162Q80 169 88 169Q121
169 155 58Q163 49 180 44T213 38Q242 39 271 56T322 102Q324 104 327 107T332 110Q336 110 336 104Q336 101 334 96T329 89Q304 56 269 38T201 20Q188 20 180 21T165 24Q170 8 173 -12T176 -55Q176 -90 169 -130T148 -215Q136 -255 117 -293T73 -355T22 -380ZM28
-346Q48 -346 68 -324T106 -271T133 -211Q144 -176 149 -143T155 -76Q155 -46 150 -16T135 46Q69 85 66 143L61 128Q58 116 51 99T36 57Q-22 -114 -22 -221Q-22 -247 -17 -276T-1 -326T28 -346Z" />
<glyph unicode="g" glyph-name="g" horiz-adv-x="324" d="M-184 -448Q-327 -448 -327 -326Q-327 -126 207 9Q209 29 211 60T217 133L152 60Q131 37 111 27T71 16Q32 16 32 72Q32 130 99 183Q126 205 156 220T221 246Q221 261 245 261Q260 261 263 253Q338 253
338 210Q338 199 329 185T310 170Q307 170 307 173Q307 175 311 185T315 203Q315 228 280 228Q277 228 274 228T266 227Q266 220 265 200T261 146Q257 88 249 16Q302 25 327 25Q373 25 373 12Q373 6 364 6Q360 6 350 8T332 10Q290 10 245 -2Q209 -288 -11 -406Q-87
-448 -184 -448ZM94 51Q119 51 153 84Q167 97 178 111T199 139Q221 171 221 221Q141 200 105 156Q71 113 71 76Q71 51 94 51ZM-164 -425Q-82 -425 -16 -394Q169 -310 204 -9Q-300 -142 -300 -316Q-300 -425 -164 -425Z" />
<glyph unicode="h" glyph-name="h" horiz-adv-x="418" d="M55 -21Q43 -21 31 -12T18 10Q18 42 43 124Q81 249 139 357Q225 521 302 521Q349 521 349 443Q349 386 265 300L136 180Q129 173 121 164T101 141Q94 130 80 94Q68 58 68 44Q68 33 73 25Q75 27 84 34T110
56Q206 137 251 137Q260 137 266 122T280 78Q297 15 333 15Q365 15 418 65Q427 75 436 85T454 106Q459 114 464 114Q470 114 467 106Q466 102 463 97T458 89Q438 62 418 40Q393 16 368 2T320 -12Q299 -12 281 0T248 40Q220 94 206 94Q187 94 158 74T92 10L68 -18Q61
-21 55 -21ZM110 182Q143 205 177 236T247 306Q334 404 334 458Q334 490 309 490Q241 490 131 236Q110 190 110 182Z" />
<glyph unicode="i" glyph-name="i" horiz-adv-x="230" d="M128 304Q116 304 106 315T96 338Q96 366 127 366Q157 366 157 337Q157 304 128 304ZM115 -8Q81 -8 59 15T36 84Q36 139 66 196Q77 217 104 217Q120 217 120 207Q120 204 117 198Q82 131 82 83Q82 48 94
32T129 16Q164 16 199 42T267 107Q270 112 276 112Q280 112 280 108Q280 105 277 100T270 89Q257 72 239 54T197 20Q178 7 157 0T115 -8Z" />
<glyph unicode="j" glyph-name="j" horiz-adv-x="205" d="M170 290Q148 290 148 315Q148 349 170 349Q204 349 204 315Q204 307 191 299T170 290ZM-239 -501Q-295 -501 -323 -472T-352 -387Q-352 -256 -185 -116Q-42 5 97 48L108 134Q113 167 121 185T137 207Q152
207 189 221Q184 210 174 167T149 50H152Q164 50 182 38Q201 28 201 15Q201 7 194 7Q193 7 182 15T155 23Q147 23 144 22Q122 -73 91 -155T20 -305Q-93 -501 -239 -501ZM-239 -478Q-183 -478 -126 -431T-13 -287Q34 -206 60 -129T91 22Q68 19 18 -9T-110 -89Q-332
-236 -332 -388Q-332 -436 -305 -457T-239 -478Z" />
<glyph unicode="k" glyph-name="k" horiz-adv-x="419" d="M269 -20Q231 -20 199 2T153 76Q152 83 150 98T144 140Q114 113 71 46Q66 38 59 27T40 0Q36 -4 29 -4Q11 -4 11 16Q11 20 37 101Q211 636 231 656Q235 660 244 660Q276 660 276 637Q276 623 249 554Q226
496 202 439T154 325Q78 139 79 112L186 201Q221 230 252 243T306 257Q352 257 352 211Q352 187 331 167T279 134T222 121Q208 121 195 126Q195 76 218 41Q231 21 249 13T288 4Q308 4 329 11T367 28Q397 47 416 65T456 106Q461 111 464 111Q468 111 468 106Q468
103 465 98T460 89Q446 71 428 54T385 20Q359 1 329 -9T269 -20ZM210 144Q239 144 266 160T293 198Q293 221 266 221Q249 221 231 210T197 185T168 157Q184 144 210 144Z" />
<glyph unicode="l" glyph-name="l" horiz-adv-x="257" d="M137 -12Q36 -12 36 137Q36 283 132 454Q226 624 310 624Q340 624 350 583V570Q350 498 239 327Q192 253 151 198T73 105Q85 15 156 15Q199 15 229 39T293 106Q299 112 301 112Q304 112 304 107Q304 100
297 89Q254 34 216 11T137 -12ZM74 130Q128 183 215 340Q307 507 307 570Q307 598 291 598Q229 598 150 420Q113 332 94 260T74 130Z" />
<glyph unicode="m" glyph-name="m" horiz-adv-x="462" d="M186 -15Q177 -15 172 0V19Q172 143 140 143Q119 143 76 75Q64 57 53 39T30 3Q24 1 21 1Q11 1 11 16V19L23 59Q44 122 54 159T64 209Q64 213 63 214Q83 232 101 232Q110 232 108 227L90 126Q100 140 131
161Q147 172 158 177T177 182Q208 182 212 57Q223 77 241 107T285 176Q299 195 315 195Q330 195 333 176Q336 137 339 104T352 50T386 29Q416 29 445 51T499 106Q504 114 509 114Q512 114 512 106Q512 104 508 98T502 89Q485 64 463 41T415 3T365 -12Q328 -12 311
28T290 141Q269 122 245 73Q230 45 220 27T205 0Q195 -15 186 -15Z" />
<glyph unicode="n" glyph-name="n" horiz-adv-x="323" d="M32 -9Q25 -9 18 0T10 16V19L19 36Q27 59 35 91T50 166Q51 176 53 187T57 214Q62 234 88 234Q96 234 96 228Q96 226 94 214T88 181Q84 158 79 131T66 73L113 152Q148 211 172 211Q187 211 188 193Q191
151 192 110T203 42T238 15Q255 15 271 22T309 48T359 106Q360 108 363 111T370 114Q374 114 374 110Q374 106 370 99T363 89Q336 49 302 22T238 -5Q194 -5 174 39T145 166Q129 149 108 115T58 28Q56 23 52 17T43 0Q39 -9 32 -9Z" />
<glyph unicode="o" glyph-name="o" horiz-adv-x="245" d="M63 -18Q26 -18 26 36Q26 50 29 67T37 103Q47 138 67 182Q97 244 117 244Q136 244 148 223Q156 226 161 226Q189 226 189 184Q189 166 182 142T158 82Q183 59 207 59Q226 59 243 68T281 106Q283 108 287
108Q290 108 290 102Q290 96 285 89Q272 72 253 59T204 45Q175 45 152 65Q114 -18 63 -18ZM146 95Q154 113 158 132T162 173Q162 207 142 207Q123 207 123 170Q123 154 130 131T146 95ZM81 10Q95 10 116 37Q125 48 131 59T139 75Q124 92 113 111T100 150Q88 140
75 98Q62 56 62 37Q62 10 81 10Z" />
<glyph unicode="p" glyph-name="p" horiz-adv-x="370" d="M-90 -476Q-117 -476 -128 -436Q-129 -434 -129 -420Q-129 -346 -22 -172Q24 -95 64 -38T139 59Q139 154 115 154Q106 154 86 138T40 89Q32 79 26 79Q21 79 21 84Q21 85 24 90T36 106Q52 126 70 148T107
186T140 202Q170 202 176 176L180 128Q261 237 313 237Q367 237 367 189Q367 139 317 71Q265 0 216 0Q187 0 170 20Q173 -52 152 -131T86 -299Q-6 -476 -90 -476ZM219 21Q259 21 290 72Q318 119 318 160Q318 203 289 203Q254 203 180 98Q180 83 177 53Q191 21 219
21ZM-68 -450Q-6 -447 65 -265Q137 -91 132 26Q80 -28 -2 -188Q-45 -272 -65 -330T-86 -420Q-86 -450 -68 -450Z" />
<glyph unicode="q" glyph-name="q" horiz-adv-x="299" d="M60 -433Q15 -433 -3 -408T-21 -342Q-21 -306 -10 -263T19 -174T57 -88T96 -14Q80 -10 80 2Q80 8 87 8Q90 8 96 7T107 5Q118 21 125 35T138 60Q134 60 108 43Q85 27 67 27Q31 27 31 73Q31 119 71 165Q114
211 158 211Q205 211 212 193Q217 193 227 194T242 196Q260 196 260 186L211 110Q164 36 162 20Q169 15 181 15Q215 15 256 34T335 106Q338 110 341 110Q345 110 345 104Q345 101 343 97T339 89Q323 68 304 51T259 19Q231 2 203 -3T151 -9Q278 -69 278 -189Q278
-233 261 -276T213 -354T144 -411T60 -433ZM71 46Q102 46 142 92Q201 159 201 171Q201 186 177 186Q140 186 97 146Q53 108 53 72Q53 46 71 46ZM61 -405Q101 -405 136 -384T197 -327T239 -252T254 -173Q254 -141 237 -107T193 -48T132 -24Q102 -75 70 -133T17 -246T-5
-341Q-5 -371 10 -388T61 -405Z" />
<glyph unicode="r" glyph-name="r" horiz-adv-x="289" d="M196 -5Q160 -5 160 40Q160 64 178 100Q195 140 195 158Q195 171 186 178T162 191Q152 196 141 203T123 217Q116 202 92 165T40 89Q36 84 32 84Q28 84 28 91Q28 98 36 106Q44 116 59 138T89 187T112 234Q107
251 104 263T101 287Q101 308 113 325T144 342Q171 342 171 310Q171 275 144 237Q148 231 154 227T173 218Q180 215 186 214T198 213Q206 213 211 214T221 215Q227 215 235 209T244 189Q244 182 243 180Q242 178 238 164T222 123Q202 71 202 50Q202 22 221 22Q242
22 271 47T326 106Q329 109 331 109Q335 109 335 102Q335 95 330 89Q290 36 258 16T196 -5Z" />
<glyph unicode="s" glyph-name="s" horiz-adv-x="324" d="M131 -3Q121 -3 110 0Q80 7 43 40Q3 77 3 103Q3 125 20 125Q33 125 45 109Q80 137 111 173T168 254L190 292Q191 296 196 296Q206 296 216 284T227 261Q227 254 215 236Q202 220 202 202Q202 195 203 181T204
158Q204 66 174 22Q180 21 187 21T202 20Q242 20 267 27T314 54T360 106Q363 110 367 110Q371 110 371 104Q371 101 369 96T364 89Q328 40 291 20T192 0Q173 0 155 3Q145 -3 131 -3ZM132 34Q164 40 164 118Q164 138 163 158T157 201Q121 148 56 94Q86 53 132 34Z"
/>
<glyph unicode="t" glyph-name="t" horiz-adv-x="280" d="M160 -12Q102 -12 70 22T37 117Q37 167 55 215Q25 215 8 221Q-20 227 -20 242Q-20 248 -11 248Q-4 248 5 248T28 246Q42 245 52 245T68 244L103 326Q115 355 125 373T141 398Q156 414 181 414Q205 414
205 404L170 349Q151 319 137 292T111 241Q173 241 210 241T260 242H268Q280 242 280 239Q280 233 256 228Q213 223 175 220T103 217Q93 191 87 163T80 108Q80 69 98 40T162 11Q217 11 249 37T316 106Q321 112 325 112Q328 112 328 107Q328 100 320 89Q277 34 240
11T160 -12Z" />
<glyph unicode="u" glyph-name="u" horiz-adv-x="324" d="M239 -4Q211 -4 200 17T189 77Q189 82 189 87T190 98Q175 69 141 41Q104 8 76 8Q58 8 44 29Q33 49 33 69Q33 103 50 146Q68 200 96 200Q106 200 107 187Q68 120 68 80Q68 41 92 41Q143 41 203 151Q205
157 209 165T220 184Q223 193 247 193Q255 193 255 187L244 156Q236 134 233 114T230 77Q230 22 256 22Q276 22 305 47T360 106Q363 109 365 109Q369 109 369 102Q369 95 364 89Q324 36 294 16T239 -4Z" />
<glyph unicode="v" glyph-name="v" horiz-adv-x="359" d="M101 -2Q57 -2 57 67Q57 100 69 130Q69 130 62 118T40 89Q39 86 33 86Q31 86 30 89T29 94Q29 97 36 106Q58 135 74 157T109 198Q118 207 129 207Q142 207 142 196Q142 198 135 184T113 140Q85 78 85 46Q85
20 107 20Q128 20 150 39T189 88T215 145Q215 149 214 157T210 177Q207 195 207 208Q207 251 243 264Q251 267 255 267Q270 267 270 241Q270 198 244 148Q244 107 263 80T311 52Q331 52 352 65T395 106Q397 108 401 108Q404 108 404 102Q404 96 399 89Q386 71 361
54T306 36Q278 36 255 58T223 118Q219 103 207 82T175 40Q153 17 134 8T101 -2Z" />
<glyph unicode="w" glyph-name="w" horiz-adv-x="453" d="M72 -45Q21 -45 21 20Q21 60 42 117Q53 146 65 166T91 200Q106 215 121 215Q133 215 133 208Q133 205 131 203Q118 187 105 163T78 109Q49 42 49 8Q49 -24 73 -24Q125 -24 197 125Q201 135 205 145T217
169Q221 176 234 176Q250 176 252 162Q224 100 224 58Q224 40 230 29T248 18Q260 18 272 33T295 70T312 113T319 145Q319 151 318 163T317 181Q317 222 336 222Q354 222 354 188Q354 181 351 166T347 148Q348 128 354 107T374 70T414 55Q428 55 448 66T489 106Q491
108 495 108Q498 108 498 102Q498 96 493 89Q480 71 459 56T414 40Q375 40 357 62T328 118Q324 93 313 65T283 16T242 -5Q211 -5 201 18T190 71Q180 45 159 18T115 -27T72 -45Z" />
<glyph unicode="x" glyph-name="x" horiz-adv-x="314" d="M41 -17Q37 -17 37 -12Q37 -3 81 49Q106 78 120 94T136 116Q130 133 117 153Q99 180 89 180Q85 180 80 173T68 166Q61 166 61 173Q61 179 81 193Q103 207 109 207Q124 207 145 180Q161 158 169 139L254
197Q323 245 332 245Q336 245 336 241Q336 238 334 234Q313 220 293 206T252 177Q221 155 204 141T181 118Q229 29 258 29Q269 29 281 36T314 65Q324 75 333 85T350 106Q352 108 354 111T361 114Q367 114 364 106Q363 102 360 97T354 89Q315 39 286 20T230 0Q197
0 147 96Q143 92 129 77T90 34Q45 -17 41 -17Z" />
<glyph unicode="y" glyph-name="y" horiz-adv-x="307" d="M-180 -455Q-245 -455 -281 -422Q-321 -388 -321 -326Q-321 -126 213 9Q218 58 220 99T224 174Q217 153 208 134T189 98Q175 70 141 40Q101 8 76 8Q57 8 43 29Q32 48 32 69Q32 103 49 146Q67 200 95 200Q105
200 106 187Q67 124 67 71Q67 41 91 41Q134 41 182 123Q226 196 226 246Q226 261 250 261Q269 261 269 242Q269 206 266 150T255 16Q266 19 285 22T319 25Q357 25 357 14Q357 9 350 9Q347 9 337 9T316 10Q306 10 286 6T251 -2Q213 -290 0 -406Q-45 -430 -89 -442T-180
-455ZM-149 -426Q-60 -426 -5 -394Q177 -291 210 -9Q-294 -142 -294 -316Q-294 -426 -149 -426Z" />
<glyph unicode="z" glyph-name="z" horiz-adv-x="314" d="M25 -406Q-24 -406 -54 -377T-85 -298Q-85 -247 -57 -202T19 -123T123 -69T238 -49Q254 -49 267 -51T292 -57V-52Q292 -8 263 27Q237 63 192 63Q187 63 167 54Q148 44 142 44Q127 44 127 58Q127 61 140
73T181 105Q235 147 235 182Q235 223 191 223Q166 223 140 203T89 152T40 89Q37 86 33 86Q29 86 29 91Q29 97 36 106Q65 146 90 177T142 226T204 244Q243 244 261 226T279 178Q279 154 267 135T238 102T212 82Q268 72 298 33T328 -66Q376 -91 376 -101Q376 -105
372 -105Q359 -100 348 -96T329 -87Q329 -141 303 -197T232 -300T134 -377T25 -406ZM32 -388Q75 -388 118 -361T198 -291T258 -203Q290 -134 293 -77Q268 -65 231 -65Q186 -65 137 -83T45 -132T-24 -206T-51 -297Q-51 -335 -29 -361T32 -388Z" />
<glyph unicode="{" glyph-name="braceleft" horiz-adv-x="360" d="M267 -137Q203 -137 175 -121Q131 -98 131 -38Q131 -18 135 12T150 82Q170 162 170 200Q170 244 142 265T49 288L63 307Q147 316 177 343Q197 360 210 394T232 479Q241 539 251 578T273 637Q319
714 448 714Q451 714 450 712T455 704L447 697Q341 697 308 614Q298 570 288 526T268 436Q260 406 245 382T209 337Q177 305 138 296Q171 284 191 257T212 194Q212 174 208 144T193 74Q175 -4 175 -43Q175 -101 222 -113L285 -123Q288 -137 267 -137Z" />
<glyph unicode="|" glyph-name="bar" horiz-adv-x="245" d="M88 -114Q87 -114 87 -113Q87 -108 97 -65T126 66Q162 281 162 491Q162 577 156 622Q155 626 154 634T148 655Q143 675 143 687Q143 698 162 698Q207 698 207 602V586Q206 582 206 578T206 572Q206 528
198 441T174 224Q140 -58 115 -95Q101 -114 88 -114Z" />
<glyph unicode="}" glyph-name="braceright" horiz-adv-x="360" d="M-50 -134Q-59 -134 -67 -123Q-61 -121 -47 -119T-7 -114Q36 -109 58 -92Q93 -65 129 56Q165 184 209 225Q258 271 314 286Q236 304 236 375Q236 398 243 431T264 505Q293 590 293 632Q293 673
266 682Q249 684 231 687T196 693V703L203 710Q233 710 255 709T291 702Q340 684 340 632Q340 584 308 497Q278 410 278 367Q278 303 392 294L376 274Q254 274 212 171L150 -25Q96 -134 -50 -134Z" />
<glyph unicode="~" glyph-name="asciitilde" horiz-adv-x="379" d="M299 325Q274 325 226 342Q180 359 159 359Q137 359 113 332L102 344Q136 384 160 384Q170 384 186 380T224 367Q268 349 297 349Q313 349 347 376L356 366Q324 325 299 325Z" />
<glyph unicode="&#xa0;" glyph-name="uni00A0" horiz-adv-x="155" />
<glyph unicode="&#xa1;" glyph-name="exclamdown" horiz-adv-x="214" d="M178 399Q176 399 175 400V402Q175 407 183 425L195 450Q198 459 210 471T231 484Q239 484 245 473T252 453Q252 435 222 417Q197 399 178 399ZM3 -154Q-16 -154 -16 -140Q-16 -133 -10
-124Q16 -81 42 -32T94 76Q124 141 143 192T172 284Q173 289 174 296T177 313Q178 320 183 320Q191 320 191 312Q191 257 131 84Q71 -88 35 -136Q22 -154 3 -154Z" />
<glyph unicode="&#xa2;" glyph-name="cent" horiz-adv-x="344" d="M99 -54Q78 -54 78 -48Q78 -6 102 70Q54 81 54 145Q54 226 108 307Q168 400 244 391Q257 414 277 447T325 525Q346 552 366 552Q370 552 370 549Q369 548 369 547T368 544L336 497Q317 470 301
442T267 384Q302 369 302 326Q302 319 301 310T294 289Q284 262 272 262Q259 262 259 276Q259 275 261 280T267 295Q276 315 276 333Q276 361 260 371Q173 217 134 95Q142 91 157 91Q204 91 258 133Q305 168 333 215Q344 229 347 229Q348 228 348 227Q348 225 346
221T341 210Q308 158 247 117Q179 71 126 68Q120 46 116 26T109 -15L106 -51Q106 -54 99 -54ZM115 108Q137 169 167 235T234 372Q179 362 137 293Q117 262 108 231T98 170Q98 128 115 108Z" />
<glyph unicode="&#xa3;" glyph-name="sterling" horiz-adv-x="639" d="M167 205Q161 205 152 214T141 228L144 229Q153 232 172 233T213 235T252 236Q274 287 297 342T347 446T411 524T495 554Q540 554 560 525T581 457Q581 404 554 357Q550 353 546 353Q542 353
542 356Q542 360 545 364Q560 397 560 436Q560 474 545 503T500 533Q472 533 445 506T393 435T345 345Q331 317 318 290T290 236Q312 235 338 234T384 230T403 223Q403 222 400 218T389 213Q360 213 332 212T276 210Q245 154 211 108T136 33Q216 20 295 6T455 -9Q469
-9 492 -8T540 -1T582 16T599 48Q599 63 589 76T568 100T557 117Q557 119 558 119Q560 119 566 118T579 110Q591 100 601 84T611 53Q611 23 585 -1T521 -39T446 -54Q392 -54 336 -40T225 -9T117 21Q98 11 77 5T35 -1Q31 -1 21 1T10 9Q10 14 17 14T27 15Q71 15 106
38T169 95T217 165Q227 183 239 208Q222 207 204 206T167 205Z" />
<glyph unicode="&#xa4;" glyph-name="currency" horiz-adv-x="462" d="M414 302Q396 305 383 320Q370 332 355 348T319 385Q300 373 279 366T236 359Q213 359 195 369Q182 357 168 345T136 321Q128 315 117 309T89 303V309Q89 316 93 320Q104 328 114 337T136
356L171 388Q158 407 158 431Q158 457 171 484T206 534L159 593Q158 597 156 600T154 607Q154 613 170 624Q178 633 182 637T187 641Q190 641 191 637L197 630Q207 617 219 599T247 561Q273 579 287 584T328 588Q337 588 350 585T376 573Q398 593 419 612T460 650Q472
650 472 644Q472 634 464 619T443 585L398 546Q405 532 405 513Q405 487 392 462T356 414L431 316L432 312Q432 307 424 304T414 302ZM258 382Q285 382 309 398T350 440T366 497Q366 526 349 545T303 565Q278 565 254 549T213 507T197 450Q197 422 213 402T258
382Z" />
<glyph unicode="&#xa5;" glyph-name="yen" horiz-adv-x="531" d="M322 -164Q266 -164 238 -131T210 -40Q210 7 221 49T246 125Q233 124 220 124T193 123Q189 123 182 131T174 142L175 144Q183 146 209 147T257 150L273 183Q277 190 281 198T289 215Q266 214 242
213T193 211Q189 211 182 218T174 230L175 232Q182 234 201 235T241 236T275 237L282 267Q284 282 285 297T287 327Q287 368 278 404T251 462T203 485Q174 485 146 470T96 433T57 395Q55 394 53 392T46 390Q39 390 36 395V396Q36 401 39 406T45 415Q59 436 87 462T149
507T215 526Q265 526 288 481T311 371Q311 347 308 321T299 269Q298 261 297 253T291 237H301Q322 275 350 318T412 403T484 476Q516 502 556 517T629 533Q654 533 669 523T685 492Q685 487 681 485T677 488Q677 506 667 513T641 521Q621 521 594 511T541 485T493
448Q447 406 408 351T340 235Q362 234 382 232T410 227Q411 226 412 226T413 225Q413 220 407 220Q388 220 369 220T331 218Q315 185 303 150Q321 149 343 148T384 146T410 141Q413 141 413 138Q413 134 407 134Q379 134 352 132T296 128Q280 79 271 32T262 -59Q262
-98 276 -122T322 -147Q342 -147 342 -155Q342 -164 322 -164Z" />
<glyph unicode="&#xa6;" glyph-name="brokenbar" horiz-adv-x="236" d="M162 318Q150 318 150 328Q150 345 152 376T155 438T157 487Q157 578 148 626Q148 633 144 652T140 683Q140 696 157 696Q198 696 198 596Q198 476 194 411T182 328Q177 318 162 318ZM91
-115L87 -112L115 26Q123 63 129 99T139 173Q140 191 141 210T144 252Q147 260 159 260Q172 260 172 252Q172 239 166 194T146 71Q135 -6 127 -47T113 -96Q109 -103 103 -108T91 -115Z" />
<glyph unicode="&#xa7;" glyph-name="section" horiz-adv-x="591" d="M180 -174Q101 -174 49 -137Q-10 -95 -10 -20Q-10 52 37 105Q83 158 155 158Q192 158 192 151Q192 149 169 149Q104 149 64 110T23 5Q23 -63 67 -112Q112 -160 180 -160Q228 -160 285 -134Q398
-81 398 34Q398 101 346 149L250 222Q197 269 197 323Q197 410 300 449Q309 500 366 535Q416 564 473 564Q517 564 550 548Q595 531 595 492Q595 438 508 438Q495 438 495 442Q495 447 509 447Q532 447 548 461T564 497Q564 553 474 553Q418 553 378 522Q335 489
335 433Q335 378 388 337L489 263Q543 214 543 140Q543 25 428 -35Q399 -101 325 -140Q255 -174 180 -174ZM438 -7Q499 43 499 137Q499 203 444 252L346 327Q295 372 298 434Q234 400 234 331Q234 277 289 234L389 162Q443 113 443 38Q443 26 442 15T438 -7Z" />
<glyph unicode="&#xa8;" glyph-name="dieresis" horiz-adv-x="500" d="M281 344Q274 344 268 354T262 371Q262 381 272 390T298 406T324 413Q328 413 329 410V407Q322 396 316 389T308 373Q305 365 299 355T281 344ZM190 344Q183 344 177 354T171 371Q171 381
182 390T207 406T233 413Q237 413 238 410V407Q231 396 225 389T217 373Q214 365 208 355T190 344Z" />
<glyph unicode="&#xa9;" glyph-name="copyright" horiz-adv-x="623" d="M283 28Q235 28 193 49T124 108T97 197Q97 254 127 309T206 410T314 482T429 509Q478 509 519 488T585 428T610 339Q610 282 581 227T502 126T396 55T283 28ZM295 49Q345 49 394 73T484 138T549
229T574 331Q574 377 555 412T501 469T421 490Q366 490 313 463T217 391T151 291T133 180Q137 140 161 111T221 65T295 49ZM314 142Q277 142 256 168T235 231Q235 279 281 336Q327 391 375 391Q411 391 411 364Q411 354 397 328Q385 301 378 301Q375 301 374 308Q374
312 376 321T379 335Q379 359 350 359Q318 359 292 317Q271 281 271 243Q271 169 333 169Q412 169 476 250Q484 261 493 261Q497 261 497 258Q497 255 492 247Q464 206 414 177Q358 142 314 142Z" />
<glyph unicode="&#xaa;" glyph-name="ordfeminine" horiz-adv-x="235" d="M108 365Q84 365 84 389Q84 400 90 416T112 453Q141 491 166 505T210 519Q233 519 233 506Q233 503 227 498T221 491Q209 472 209 415Q209 399 213 393T224 386Q232 386 240 390T260 406Q268
414 274 420T284 432Q286 434 288 436T292 439Q295 439 295 434Q295 427 285 414Q265 389 247 378T212 367Q184 367 185 423Q180 414 172 404T152 385Q141 376 130 371T108 365ZM127 384Q137 384 147 393Q164 407 175 432T192 493Q192 496 188 496Q184 496 177
493T159 482Q137 466 124 445T110 405Q110 384 127 384Z" />
<glyph unicode="&#xab;" glyph-name="guillemotleft" horiz-adv-x="286" d="M267 -4L261 -1Q253 10 232 30T176 77Q174 79 174 81Q174 87 211 141Q227 164 238 180T257 204Q264 211 271 211Q276 211 276 207Q276 197 205 99Q275 11 275 5Q275 -4 267 -4ZM167 -4L162
-1Q154 10 133 30T76 77Q75 78 75 81Q75 89 112 141Q145 188 158 204Q164 211 171 211Q176 211 176 207Q176 197 107 99Q175 13 175 5Q175 -4 167 -4Z" />
<glyph unicode="&#xac;" glyph-name="logicalnot" horiz-adv-x="448" d="M383 6Q320 6 320 75Q320 88 326 109T341 152T357 189Q330 189 287 189T201 187T125 186T84 185Q71 185 67 191T62 202Q62 203 63 203Q83 205 116 207T187 210Q247 210 283 210T338 210T368
209T385 207Q397 207 397 200Q397 200 395 194Q386 178 376 155T360 110T353 75Q353 25 383 25Q401 25 401 18Q401 14 395 10T383 6Z" />
<glyph unicode="&#xad;" glyph-name="uni00AD" horiz-adv-x="311" d="M99 163Q96 163 98 163Q93 164 86 172T78 185L80 187Q130 193 175 193Q243 193 278 182Q281 181 281 179Q281 174 275 174Q222 174 153 168Q128 166 114 165T98 163H99Z" />
<glyph unicode="&#xae;" glyph-name="registered" horiz-adv-x="623" d="M253 28Q205 28 163 49T94 108T67 197Q67 254 97 309T176 410T284 482T399 509Q448 509 489 488T555 428T580 339Q580 282 551 227T472 126T366 55T253 28ZM420 118H432Q480 159 512 215T544
330Q544 376 525 412T471 469T391 490Q336 490 282 462T185 388Q193 390 201 394Q287 428 366 428Q412 428 448 414Q497 395 497 354Q497 306 428 277Q402 266 374 261T317 255Q336 188 362 153T420 118ZM265 49Q303 49 341 63T414 103Q408 103 400 105Q381 110
364 126T328 169Q300 212 287 258Q284 260 284 263T290 266Q317 266 349 272T409 291T455 321T473 361Q473 417 362 417Q326 417 266 398Q238 390 215 382T172 363Q169 362 166 361T161 358Q133 321 118 280T102 196Q102 159 117 131T159 83Q156 92 156 109Q156
153 234 265Q267 315 295 351T348 411L369 400Q368 399 361 389T338 358Q305 316 281 284T240 227Q178 137 170 85Q169 82 169 80T168 76Q214 49 265 49Z" />
<glyph unicode="&#xaf;" glyph-name="overscore" horiz-adv-x="500" d="M180 361Q173 361 169 370T164 386Q164 393 182 394T245 395Q282 395 309 391T336 381Q336 379 335 374T328 369Q307 369 288 368T248 365Q232 364 215 363T180 361Z" />
<glyph unicode="&#xb0;" glyph-name="degree" horiz-adv-x="285" d="M175 349Q139 349 113 375T87 437Q87 473 113 499T175 526Q211 526 237 500T263 437Q263 401 237 375T175 349ZM175 385Q196 385 211 401T227 437Q227 458 212 474T175 490Q154 490 139 474T123
437Q123 417 138 401T175 385Z" />
<glyph unicode="&#xb1;" glyph-name="plusminus" horiz-adv-x="328" d="M166 98Q163 98 163 110Q163 117 175 204Q168 204 157 204T126 202Q111 201 99 201T77 201Q66 201 66 216L70 219Q81 221 99 221T142 221H178Q179 233 181 251T185 291L189 319Q192 331 205
332L209 329Q208 315 205 288T195 221Q221 221 248 220T304 217Q307 216 307 213V210L300 206Q285 206 258 206T192 205Q189 181 184 156T172 101Q171 98 166 98ZM110 36Q106 36 102 42T97 53L98 54Q106 56 123 57T168 59Q224 59 240 51Q243 50 243 48Q243 44 237
44Q227 44 211 43T173 40Q152 38 137 37T110 36Z" />
<glyph unicode="&#xb2;" glyph-name="uni00B2" horiz-adv-x="393" d="M293 373Q269 373 249 377T201 392T121 423Q105 416 91 412T65 408Q39 408 39 427Q39 450 73 450Q92 450 119 441Q136 450 157 463T203 492Q209 496 218 502T240 518Q304 569 304 613Q304 642
268 642Q234 642 202 623Q183 613 173 601T162 573Q162 566 164 562T166 556Q166 551 161 551Q156 551 152 559T148 578Q148 611 194 634Q234 654 270 654Q300 654 318 641T337 604Q337 558 259 500Q208 463 143 432Q193 416 231 407T308 398Q324 398 330 401T336
410Q336 424 325 433T298 448T270 454Q262 454 262 459Q262 462 269 462Q299 462 326 447T354 410Q354 391 334 382T293 373ZM66 419Q71 419 76 420T85 422L100 430Q90 433 82 434T71 436Q53 436 53 426Q53 419 66 419Z" />
<glyph unicode="&#xb3;" glyph-name="uni00B3" horiz-adv-x="395" d="M155 376Q97 376 68 396T39 439Q39 456 58 470T114 484Q152 484 176 478T200 470Q200 466 192 466Q187 466 165 468T120 471Q95 471 82 460T69 435Q69 418 90 402T154 385Q177 385 204 391T257
410T298 441T314 484Q314 514 273 527Q246 537 204 537Q193 537 193 545Q193 555 206 557L239 562Q254 565 268 570T297 582Q335 598 335 619Q335 643 272 643Q257 643 239 640T208 631T194 615Q194 610 191 610Q186 610 186 618Q186 631 201 639T237 652T274 656Q303
656 329 646T355 612Q355 567 272 549Q348 533 348 484Q348 457 330 437T283 404T221 383T155 376Z" />
<glyph unicode="&#xb4;" glyph-name="acute" horiz-adv-x="500" d="M237 345Q233 343 227 345T221 351L224 353Q236 358 252 370T284 396T311 420T326 434Q334 441 341 442T359 444Q366 444 371 441T375 433Q374 429 369 423T343 403Q342 402 327 393T292 373T256
354T237 345Z" />
<glyph unicode="&#xb5;" glyph-name="uni03BC" horiz-adv-x="435" d="M350 -4Q322 -4 311 17T300 77Q300 82 300 87T301 98Q286 69 252 41Q215 8 187 8Q182 8 176 10Q173 -60 151 -137T86 -299Q-6 -476 -90 -476Q-117 -476 -128 -436Q-129 -434 -129 -420Q-129
-346 -22 -172Q24 -95 64 -38T139 59Q139 154 115 154Q106 154 86 138T40 89Q32 79 26 79Q21 79 21 84Q21 85 24 90T36 106Q52 126 70 148T107 186T140 202Q170 202 176 176Q178 162 179 147T180 114Q180 104 180 94T179 74Q179 41 203 41Q254 41 314 151Q316 157
320 165T331 184Q334 193 358 193Q366 193 366 187L355 156Q347 134 344 114T341 77Q341 22 367 22Q387 22 416 47T471 106Q474 109 476 109Q480 109 480 102Q480 95 475 89Q435 36 405 16T350 -4ZM-86 -420Q-86 -450 -68 -450Q-6 -447 65 -265Q137 -91 132 26Q80
-28 -2 -188Q-45 -272 -65 -330T-86 -420Z" />
<glyph unicode="&#xb6;" glyph-name="paragraph" horiz-adv-x="465" d="M37 -193Q10 -193 10 -180V-179Q10 -170 26 -170Q108 -170 168 -31Q184 7 201 69T238 217Q215 220 194 229T156 256Q107 302 107 389Q107 411 110 432T121 474Q153 565 231 609Q299 646 382
646Q418 646 437 655Q475 736 523 736Q544 736 544 721Q544 720 544 719T545 715Q544 703 532 703Q488 703 450 590Q440 559 427 506T398 376Q373 252 353 171T319 51Q250 -142 148 -138H142Q96 -193 37 -193ZM156 -120Q261 -106 325 183Q330 207 339 252T362 366Q370
410 376 441T387 491Q395 526 403 555T419 609L398 607Q356 558 317 406L251 122Q206 -45 156 -120Z" />
<glyph unicode="&#xb7;" glyph-name="middot" horiz-adv-x="256" d="M147 94Q140 94 134 105T127 125Q127 141 144 149Q150 156 172 168Q194 179 202 179Q203 179 204 178L205 177Q198 170 190 159T177 127Q167 94 147 94Z" />
<glyph unicode="&#xb8;" glyph-name="cedilla" horiz-adv-x="500" d="M155 -195Q139 -195 135 -193T130 -187Q130 -183 160 -178Q174 -176 191 -173T221 -159T234 -128Q234 -112 223 -101T200 -78T188 -51Q188 -44 191 -36T203 -19Q217 -3 242 5H245Q250 5 255
4T262 0Q245 -8 230 -22Q227 -26 225 -30T223 -39Q223 -51 235 -64T260 -91T272 -125Q272 -144 259 -157T227 -178T188 -191T155 -195Z" />
<glyph unicode="&#xb9;" glyph-name="uni00B9" horiz-adv-x="311" d="M53 360Q49 360 44 366T39 377Q39 379 40 380T41 381Q59 403 112 414Q120 449 186 557L213 599Q207 595 200 590T185 578Q171 566 160 558T146 549Q139 549 139 552Q139 552 143 558Q157 570
177 588T225 632Q228 636 234 641T249 654Q251 655 253 656T259 657Q272 657 272 643Q272 635 266 630Q234 597 193 528Q172 493 159 466T142 418H158Q172 418 190 415Q220 411 220 404Q220 399 211 399Q203 401 190 402T175 403Q165 403 157 403T141 401Q141 388
144 388Q147 388 154 391Q162 394 163 394Q167 394 167 391Q167 390 162 387T150 381Q136 374 133 374Q114 374 111 393Q79 384 60 362Q56 360 53 360Z" />
<glyph unicode="&#xba;" glyph-name="ordmasculine" horiz-adv-x="168" d="M109 363Q85 363 85 397Q85 414 91 438Q95 450 99 462T110 486Q127 524 141 524Q153 524 160 512Q163 513 167 513Q187 513 187 486Q187 466 170 427Q182 417 195 417Q218 417 244 450Q250
456 253 450Q255 448 255 445Q255 443 254 441T252 437Q227 404 196 404Q178 404 165 414Q140 363 109 363ZM159 439Q160 441 161 443T163 453Q166 468 166 479Q166 498 157 498Q147 498 147 477Q147 468 151 456Q155 443 159 439ZM120 383Q127 383 139 400Q148
412 153 423Q134 439 129 462Q125 456 121 443T114 416T111 398Q111 383 120 383Z" />
<glyph unicode="&#xbb;" glyph-name="guillemotright" horiz-adv-x="286" d="M175 -9Q170 -9 170 -5Q170 6 239 103Q171 189 171 198Q171 208 179 206L183 204Q192 192 213 173T269 126Q271 124 271 121Q271 114 234 61Q203 16 187 -1Q181 -9 175 -9ZM64 -9Q60
-9 60 -5Q60 6 129 103Q60 190 60 198Q60 208 68 206L74 204Q91 179 159 126Q161 124 161 121Q161 117 124 61Q108 39 97 23T78 -1Q70 -9 64 -9Z" />
<glyph unicode="&#xbc;" glyph-name="onequarter" horiz-adv-x="691" d="M53 360Q49 360 44 366T39 377Q39 379 40 380T41 381Q59 403 112 414Q120 449 186 557L213 599Q207 595 200 590T185 578Q171 566 160 558T146 549Q139 549 139 552Q139 552 143 558Q157
570 177 588T225 632Q228 636 234 641T249 654Q251 655 253 656T259 657Q272 657 272 643Q272 635 266 630Q234 597 193 528Q172 493 159 466T142 418H158Q172 418 190 415Q220 411 220 404Q220 399 211 399Q203 401 190 402T175 403Q165 403 157 403T141 401Q141
388 144 388Q147 388 154 391Q162 394 163 394Q167 394 167 391Q167 390 162 387T150 381Q136 374 133 374Q114 374 111 393Q79 384 60 362Q56 360 53 360ZM75 10Q71 10 66 13T61 24Q61 35 69 51T84 82Q99 108 126 146T186 224T246 297T291 348Q308 366 335 392T392
447T452 503T504 551T539 582Q558 596 577 596Q585 596 585 593Q585 591 582 588Q557 568 519 533T436 455T345 364T257 270T182 183T132 115Q109 78 95 50T75 10ZM477 14Q460 14 454 33Q449 46 449 62Q449 94 465 135Q439 140 415 145T368 158Q344 150 328 150Q303
150 303 165Q303 177 334 177Q352 177 376 171Q411 185 499 244Q543 274 571 295T612 331Q618 337 624 337Q637 337 637 327Q637 322 627 316L615 308Q602 298 585 280T548 235Q533 214 520 193T495 151Q515 149 531 148T563 146Q577 146 593 149T620 158T632 175Q632
189 609 195Q603 198 599 199Q592 201 587 203T582 206Q582 208 589 208H591Q652 205 652 167Q652 150 639 141T606 128T569 124Q553 124 533 126T487 131Q470 91 470 63Q470 45 478 34Q480 32 481 31T483 27Q489 23 489 20Q489 14 477 14ZM472 153Q481 173 492
193T517 232Q492 214 463 198T402 167Q413 164 430 161T472 153ZM334 161Q339 161 354 164Q342 169 329 169Q318 169 318 164Q318 162 321 162T334 161Z" />
<glyph unicode="&#xbd;" glyph-name="onehalf" horiz-adv-x="662" d="M53 360Q49 360 44 366T39 377Q39 379 40 380T41 381Q59 403 112 414Q120 449 186 557L213 599Q207 595 200 590T185 578Q171 566 160 558T146 549Q139 549 139 552Q139 552 143 558Q157 570
177 588T225 632Q228 636 234 641T249 654Q251 655 253 656T259 657Q272 657 272 643Q272 635 266 630Q234 597 193 528Q172 493 159 466T142 418H158Q172 418 190 415Q220 411 220 404Q220 399 211 399Q203 401 190 402T175 403Q165 403 157 403T141 401Q141 388
144 388Q147 388 154 391Q162 394 163 394Q167 394 167 391Q167 390 162 387T150 381Q136 374 133 374Q114 374 111 393Q79 384 60 362Q56 360 53 360ZM75 10Q71 10 66 13T61 24Q61 35 69 51T84 82Q99 108 126 146T186 224T246 297T291 348Q308 366 335 392T392
447T452 503T504 551T539 582Q558 596 577 596Q585 596 585 593Q585 591 582 588Q557 568 519 533T436 455T345 364T257 270T182 183T132 115Q109 78 95 50T75 10ZM562 20Q538 20 518 24T470 39T390 70Q374 63 360 59T334 55Q308 55 308 74Q308 97 342 97Q361 97
388 88Q405 97 426 110T472 139Q478 143 487 149T509 165Q573 216 573 260Q573 289 537 289Q503 289 471 270Q452 260 442 248T431 220Q431 213 433 209T435 203Q435 198 430 198Q425 198 421 206T417 225Q417 258 463 281Q503 301 539 301Q569 301 587 288T606
251Q606 205 528 147Q477 110 412 79Q462 63 500 54T577 45Q593 45 599 48T605 57Q605 71 594 80T567 95T539 101Q531 101 531 106Q531 109 538 109Q568 109 595 94T623 57Q623 38 603 29T562 20ZM335 66Q340 66 345 67T354 69L369 77Q359 80 351 81T340 83Q322
83 322 73Q322 66 335 66Z" />
<glyph unicode="&#xbe;" glyph-name="threequarters" horiz-adv-x="785" d="M155 376Q97 376 68 396T39 439Q39 456 58 470T114 484Q152 484 176 478T200 470Q200 466 192 466Q187 466 165 468T120 471Q95 471 82 460T69 435Q69 418 90 402T154 385Q177 385 204
391T257 410T298 441T314 484Q314 514 273 527Q246 537 204 537Q193 537 193 545Q193 555 206 557L239 562Q254 565 268 570T297 582Q335 598 335 619Q335 643 272 643Q257 643 239 640T208 631T194 615Q194 610 191 610Q186 610 186 618Q186 631 201 639T237 652T274
656Q303 656 329 646T355 612Q355 567 272 549Q348 533 348 484Q348 457 330 437T283 404T221 383T155 376ZM170 10Q166 10 161 13T156 24Q156 35 164 51T179 82Q194 108 221 146T281 224T341 297T386 348Q403 366 430 392T487 447T547 503T599 551T634 582Q653
596 672 596Q680 596 680 593Q680 591 677 588Q652 568 614 533T531 455T440 364T352 270T277 183T227 115Q204 78 190 50T170 10ZM571 14Q554 14 548 33Q543 46 543 62Q543 94 559 135Q533 140 509 145T462 158Q438 150 422 150Q397 150 397 165Q397 177 428 177Q446
177 470 171Q505 185 593 244Q637 274 665 295T706 331Q712 337 718 337Q731 337 731 327Q731 322 721 316L709 308Q696 298 679 280T642 235Q627 214 614 193T589 151Q609 149 625 148T657 146Q671 146 687 149T714 158T726 175Q726 189 703 195Q697 198 693 199Q686
201 681 203T676 206Q676 208 683 208H685Q746 205 746 167Q746 150 733 141T700 128T663 124Q647 124 627 126T581 131Q564 91 564 63Q564 45 572 34Q574 32 575 31T577 27Q583 23 583 20Q583 14 571 14ZM566 153Q575 173 586 193T611 232Q586 214 557 198T496
167Q507 164 524 161T566 153ZM428 161Q433 161 448 164Q436 169 423 169Q412 169 412 164Q412 162 415 162T428 161Z" />
<glyph unicode="&#xbf;" glyph-name="questiondown" horiz-adv-x="515" d="M407 400Q406 400 405 401L404 402Q411 410 419 420T432 453Q443 485 462 485Q470 485 476 474T482 455Q482 438 465 430Q462 426 455 422T437 412Q416 400 407 400ZM188 -237Q122 -237
75 -201Q25 -164 25 -99Q25 -1 139 72L211 111Q417 223 417 285Q417 299 408 309T399 319Q399 330 411 330Q411 330 411 330T413 329Q434 312 434 287Q434 230 320 146L154 38Q42 -34 42 -116Q42 -171 90 -201Q129 -227 188 -227Q223 -227 256 -218T321 -188Q351
-168 373 -143T408 -84Q418 -60 418 -45Q418 -14 380 -14Q363 -14 341 -19T289 -37L267 -47Q265 -45 265 -42Q265 -39 267 -37Q283 -21 329 -7Q349 0 367 3T398 6Q454 6 454 -37Q454 -54 442 -83Q417 -149 337 -194Q260 -237 188 -237Z" />
<glyph unicode="&#xc0;" glyph-name="Agrave" horiz-adv-x="1073" d="M227 -87Q154 -87 95 -54Q25 -13 25 56Q25 94 52 131Q130 239 369 266Q390 268 414 269T465 271Q495 271 536 269T629 261Q637 276 644 291T659 320Q658 343 645 359T608 374Q614 409 649 409Q683
409 677 364Q727 492 729 594Q704 599 667 606T581 622Q535 630 499 634T436 639Q286 639 227 553Q204 519 204 483Q204 430 250 398Q290 372 347 372Q374 372 400 380T449 404Q501 441 501 494Q501 529 467 550Q439 571 402 571Q332 571 320 536L317 522Q315 517
311 511Q310 512 310 515Q310 548 341 567Q354 575 369 578T402 582Q446 582 475 559Q510 534 510 494Q510 434 457 396Q406 360 347 360Q280 360 233 396Q183 435 183 502Q183 541 204 577Q261 672 413 672Q439 672 476 667T561 651L729 611Q728 666 703 707Q700
715 700 720Q700 728 707 728Q717 728 727 709Q748 675 750 607Q785 600 815 595T871 588Q905 635 938 659Q980 690 1015 690Q1070 690 1070 647Q1070 579 924 575Q860 471 860 301Q860 288 860 275T862 249Q995 254 1032 322Q1036 330 1040 343T1048 375Q1050
381 1054 381Q1060 381 1060 373Q1060 357 1049 329Q1013 231 864 227Q875 143 907 84Q953 4 1025 4Q1064 4 1086 38Q1088 40 1113 104Q1115 107 1117 107Q1119 107 1119 101Q1119 60 1090 25Q1059 -9 1019 -9H1013Q1010 -8 1007 -8Q986 -8 983 -33Q979 -60 974
-60Q969 -60 964 -56Q836 32 816 227Q789 228 755 231T678 238Q531 -6 356 -64Q289 -87 227 -87ZM900 586Q912 604 923 615Q927 619 935 622T956 631Q970 636 978 639T992 642Q993 642 993 641Q993 641 993 641T991 640Q975 631 961 618T934 587Q1034 594 1034
641Q1034 671 997 671Q974 671 946 651T884 587Q888 587 892 587T900 586ZM677 258Q687 273 702 300T739 366Q757 402 788 454T862 576Q837 578 810 581T750 590Q749 550 740 504T712 407Q700 372 683 336T644 261L677 258ZM814 249Q813 258 813 268T813 288Q813
458 891 575Q887 575 883 575T875 576Q860 554 829 501T748 360Q730 326 716 301T690 257Q728 253 759 252T814 249ZM239 -72Q293 -72 354 -54Q522 0 666 239L634 243Q495 7 348 -13Q371 2 371 51V53Q386 83 404 83Q407 83 407 81Q407 29 399 18L374 0Q503 39 620
245Q506 257 441 257Q324 257 240 226Q175 202 132 161Q79 111 79 51Q79 -9 131 -44Q178 -72 239 -72ZM887 771Q884 771 867 780T830 802T794 824T776 835Q754 850 751 858T747 872Q747 878 765 878Q773 878 782 877T795 872Q800 868 812 856T840 827T872 798T901
778Q905 777 905 775Q904 772 898 771T887 771Z" />
<glyph unicode="&#xc1;" glyph-name="Aacute" horiz-adv-x="1073" d="M227 -87Q154 -87 95 -54Q25 -13 25 56Q25 94 52 131Q130 239 369 266Q390 268 414 269T465 271Q495 271 536 269T629 261Q637 276 644 291T659 320Q658 343 645 359T608 374Q614 409 649 409Q683
409 677 364Q727 492 729 594Q704 599 667 606T581 622Q535 630 499 634T436 639Q286 639 227 553Q204 519 204 483Q204 430 250 398Q290 372 347 372Q374 372 400 380T449 404Q501 441 501 494Q501 529 467 550Q439 571 402 571Q332 571 320 536L317 522Q315 517
311 511Q310 512 310 515Q310 548 341 567Q354 575 369 578T402 582Q446 582 475 559Q510 534 510 494Q510 434 457 396Q406 360 347 360Q280 360 233 396Q183 435 183 502Q183 541 204 577Q261 672 413 672Q439 672 476 667T561 651L729 611Q728 666 703 707Q700
715 700 720Q700 728 707 728Q717 728 727 709Q748 675 750 607Q785 600 815 595T871 588Q905 635 938 659Q980 690 1015 690Q1070 690 1070 647Q1070 579 924 575Q860 471 860 301Q860 288 860 275T862 249Q995 254 1032 322Q1036 330 1040 343T1048 375Q1050
381 1054 381Q1060 381 1060 373Q1060 357 1049 329Q1013 231 864 227Q875 143 907 84Q953 4 1025 4Q1064 4 1086 38Q1088 40 1113 104Q1115 107 1117 107Q1119 107 1119 101Q1119 60 1090 25Q1059 -9 1019 -9H1013Q1010 -8 1007 -8Q986 -8 983 -33Q979 -60 974
-60Q969 -60 964 -56Q836 32 816 227Q789 228 755 231T678 238Q531 -6 356 -64Q289 -87 227 -87ZM900 586Q912 604 923 615Q927 619 935 622T956 631Q970 636 978 639T992 642Q993 642 993 641Q993 641 993 641T991 640Q975 631 961 618T934 587Q1034 594 1034
641Q1034 671 997 671Q974 671 946 651T884 587Q888 587 892 587T900 586ZM677 258Q687 273 702 300T739 366Q757 402 788 454T862 576Q837 578 810 581T750 590Q749 550 740 504T712 407Q700 372 683 336T644 261L677 258ZM814 249Q813 258 813 268T813 288Q813
458 891 575Q887 575 883 575T875 576Q860 554 829 501T748 360Q730 326 716 301T690 257Q728 253 759 252T814 249ZM239 -72Q293 -72 354 -54Q522 0 666 239L634 243Q495 7 348 -13Q371 2 371 51V53Q386 83 404 83Q407 83 407 81Q407 29 399 18L374 0Q503 39 620
245Q506 257 441 257Q324 257 240 226Q175 202 132 161Q79 111 79 51Q79 -9 131 -44Q178 -72 239 -72ZM854 770Q849 770 846 772T849 778Q863 784 882 797T921 827T956 855T979 872Q983 875 992 876T1009 878Q1027 878 1027 872Q1026 867 1020 859T988 835Q986
834 968 824T926 802T883 781T861 771Q859 770 854 770Z" />
<glyph unicode="&#xc2;" glyph-name="Acircumflex" horiz-adv-x="1073" d="M227 -87Q154 -87 95 -54Q25 -13 25 56Q25 94 52 131Q130 239 369 266Q390 268 414 269T465 271Q495 271 536 269T629 261Q637 276 644 291T659 320Q658 343 645 359T608 374Q614 409
649 409Q683 409 677 364Q727 492 729 594Q704 599 667 606T581 622Q535 630 499 634T436 639Q286 639 227 553Q204 519 204 483Q204 430 250 398Q290 372 347 372Q374 372 400 380T449 404Q501 441 501 494Q501 529 467 550Q439 571 402 571Q332 571 320 536L317
522Q315 517 311 511Q310 512 310 515Q310 548 341 567Q354 575 369 578T402 582Q446 582 475 559Q510 534 510 494Q510 434 457 396Q406 360 347 360Q280 360 233 396Q183 435 183 502Q183 541 204 577Q261 672 413 672Q439 672 476 667T561 651L729 611Q728 666
703 707Q700 715 700 720Q700 728 707 728Q717 728 727 709Q748 675 750 607Q785 600 815 595T871 588Q905 635 938 659Q980 690 1015 690Q1070 690 1070 647Q1070 579 924 575Q860 471 860 301Q860 288 860 275T862 249Q995 254 1032 322Q1036 330 1040 343T1048
375Q1050 381 1054 381Q1060 381 1060 373Q1060 357 1049 329Q1013 231 864 227Q875 143 907 84Q953 4 1025 4Q1064 4 1086 38Q1088 40 1113 104Q1115 107 1117 107Q1119 107 1119 101Q1119 60 1090 25Q1059 -9 1019 -9H1013Q1010 -8 1007 -8Q986 -8 983 -33Q979
-60 974 -60Q969 -60 964 -56Q836 32 816 227Q789 228 755 231T678 238Q531 -6 356 -64Q289 -87 227 -87ZM900 586Q912 604 923 615Q927 619 935 622T956 631Q970 636 978 639T992 642Q993 642 993 641Q993 641 993 641T991 640Q975 631 961 618T934 587Q1034 594
1034 641Q1034 671 997 671Q974 671 946 651T884 587Q888 587 892 587T900 586ZM677 258Q687 273 702 300T739 366Q757 402 788 454T862 576Q837 578 810 581T750 590Q749 550 740 504T712 407Q700 372 683 336T644 261L677 258ZM814 249Q813 258 813 268T813 288Q813
458 891 575Q887 575 883 575T875 576Q860 554 829 501T748 360Q730 326 716 301T690 257Q728 253 759 252T814 249ZM239 -72Q293 -72 354 -54Q522 0 666 239L634 243Q495 7 348 -13Q371 2 371 51V53Q386 83 404 83Q407 83 407 81Q407 29 399 18L374 0Q503 39 620
245Q506 257 441 257Q324 257 240 226Q175 202 132 161Q79 111 79 51Q79 -9 131 -44Q178 -72 239 -72ZM771 770Q767 770 765 773T768 780Q775 783 793 799T834 834T872 869T892 885Q897 888 909 888Q918 888 921 885Q923 884 932 869T954 834T977 798T989 780Q992
779 992 776Q991 772 987 771T978 772Q977 772 965 783T938 808T912 835T898 850Q894 846 876 834T835 808T796 783T776 772Q772 770 771 770Z" />
<glyph unicode="&#xc3;" glyph-name="Atilde" horiz-adv-x="1073" d="M227 -87Q154 -87 95 -54Q25 -13 25 56Q25 94 52 131Q130 239 369 266Q390 268 414 269T465 271Q495 271 536 269T629 261Q637 276 644 291T659 320Q658 343 645 359T608 374Q614 409 649 409Q683
409 677 364Q727 492 729 594Q704 599 667 606T581 622Q535 630 499 634T436 639Q286 639 227 553Q204 519 204 483Q204 430 250 398Q290 372 347 372Q374 372 400 380T449 404Q501 441 501 494Q501 529 467 550Q439 571 402 571Q332 571 320 536L317 522Q315 517
311 511Q310 512 310 515Q310 548 341 567Q354 575 369 578T402 582Q446 582 475 559Q510 534 510 494Q510 434 457 396Q406 360 347 360Q280 360 233 396Q183 435 183 502Q183 541 204 577Q261 672 413 672Q439 672 476 667T561 651L729 611Q728 666 703 707Q700
715 700 720Q700 728 707 728Q717 728 727 709Q748 675 750 607Q785 600 815 595T871 588Q905 635 938 659Q980 690 1015 690Q1070 690 1070 647Q1070 579 924 575Q860 471 860 301Q860 288 860 275T862 249Q995 254 1032 322Q1036 330 1040 343T1048 375Q1050
381 1054 381Q1060 381 1060 373Q1060 357 1049 329Q1013 231 864 227Q875 143 907 84Q953 4 1025 4Q1064 4 1086 38Q1088 40 1113 104Q1115 107 1117 107Q1119 107 1119 101Q1119 60 1090 25Q1059 -9 1019 -9H1013Q1010 -8 1007 -8Q986 -8 983 -33Q979 -60 974
-60Q969 -60 964 -56Q836 32 816 227Q789 228 755 231T678 238Q531 -6 356 -64Q289 -87 227 -87ZM900 586Q912 604 923 615Q927 619 935 622T956 631Q970 636 978 639T992 642Q993 642 993 641Q993 641 993 641T991 640Q975 631 961 618T934 587Q1034 594 1034
641Q1034 671 997 671Q974 671 946 651T884 587Q888 587 892 587T900 586ZM677 258Q687 273 702 300T739 366Q757 402 788 454T862 576Q837 578 810 581T750 590Q749 550 740 504T712 407Q700 372 683 336T644 261L677 258ZM814 249Q813 258 813 268T813 288Q813
458 891 575Q887 575 883 575T875 576Q860 554 829 501T748 360Q730 326 716 301T690 257Q728 253 759 252T814 249ZM239 -72Q293 -72 354 -54Q522 0 666 239L634 243Q495 7 348 -13Q371 2 371 51V53Q386 83 404 83Q407 83 407 81Q407 29 399 18L374 0Q503 39 620
245Q506 257 441 257Q324 257 240 226Q175 202 132 161Q79 111 79 51Q79 -9 131 -44Q178 -72 239 -72ZM912 770Q897 770 881 777T850 791T821 798Q803 798 790 789T771 771Q763 771 765 776Q773 800 792 815T834 830Q850 830 866 823T897 809T926 802Q943 802 957
811T975 829Q984 829 984 825Q975 800 955 785T912 770Z" />
<glyph unicode="&#xc4;" glyph-name="Adieresis" horiz-adv-x="1073" d="M227 -87Q154 -87 95 -54Q25 -13 25 56Q25 94 52 131Q130 239 369 266Q390 268 414 269T465 271Q495 271 536 269T629 261Q637 276 644 291T659 320Q658 343 645 359T608 374Q614 409 649
409Q683 409 677 364Q727 492 729 594Q704 599 667 606T581 622Q535 630 499 634T436 639Q286 639 227 553Q204 519 204 483Q204 430 250 398Q290 372 347 372Q374 372 400 380T449 404Q501 441 501 494Q501 529 467 550Q439 571 402 571Q332 571 320 536L317 522Q315
517 311 511Q310 512 310 515Q310 548 341 567Q354 575 369 578T402 582Q446 582 475 559Q510 534 510 494Q510 434 457 396Q406 360 347 360Q280 360 233 396Q183 435 183 502Q183 541 204 577Q261 672 413 672Q439 672 476 667T561 651L729 611Q728 666 703 707Q700
715 700 720Q700 728 707 728Q717 728 727 709Q748 675 750 607Q785 600 815 595T871 588Q905 635 938 659Q980 690 1015 690Q1070 690 1070 647Q1070 579 924 575Q860 471 860 301Q860 288 860 275T862 249Q995 254 1032 322Q1036 330 1040 343T1048 375Q1050
381 1054 381Q1060 381 1060 373Q1060 357 1049 329Q1013 231 864 227Q875 143 907 84Q953 4 1025 4Q1064 4 1086 38Q1088 40 1113 104Q1115 107 1117 107Q1119 107 1119 101Q1119 60 1090 25Q1059 -9 1019 -9H1013Q1010 -8 1007 -8Q986 -8 983 -33Q979 -60 974
-60Q969 -60 964 -56Q836 32 816 227Q789 228 755 231T678 238Q531 -6 356 -64Q289 -87 227 -87ZM900 586Q912 604 923 615Q927 619 935 622T956 631Q970 636 978 639T992 642Q993 642 993 641Q993 641 993 641T991 640Q975 631 961 618T934 587Q1034 594 1034
641Q1034 671 997 671Q974 671 946 651T884 587Q888 587 892 587T900 586ZM677 258Q687 273 702 300T739 366Q757 402 788 454T862 576Q837 578 810 581T750 590Q749 550 740 504T712 407Q700 372 683 336T644 261L677 258ZM814 249Q813 258 813 268T813 288Q813
458 891 575Q887 575 883 575T875 576Q860 554 829 501T748 360Q730 326 716 301T690 257Q728 253 759 252T814 249ZM239 -72Q293 -72 354 -54Q522 0 666 239L634 243Q495 7 348 -13Q371 2 371 51V53Q386 83 404 83Q407 83 407 81Q407 29 399 18L374 0Q503 39 620
245Q506 257 441 257Q324 257 240 226Q175 202 132 161Q79 111 79 51Q79 -9 131 -44Q178 -72 239 -72ZM923 770Q916 770 910 781T903 800Q903 811 917 821T947 839T971 846Q975 846 976 843V839Q968 827 962 819T953 802Q950 793 943 782T923 770ZM792 770Q785
770 779 781T772 800Q772 811 786 821T816 839T840 846Q844 846 845 843V839Q837 827 831 819T822 802Q819 793 812 782T792 770Z" />
<glyph unicode="&#xc5;" glyph-name="Aring" horiz-adv-x="1073" d="M227 -87Q154 -87 95 -54Q25 -13 25 56Q25 94 52 131Q130 239 369 266Q390 268 414 269T465 271Q495 271 536 269T629 261Q637 276 644 291T659 320Q658 343 645 359T608 374Q614 409 649 409Q683
409 677 364Q727 492 729 594Q704 599 667 606T581 622Q535 630 499 634T436 639Q286 639 227 553Q204 519 204 483Q204 430 250 398Q290 372 347 372Q374 372 400 380T449 404Q501 441 501 494Q501 529 467 550Q439 571 402 571Q332 571 320 536L317 522Q315 517
311 511Q310 512 310 515Q310 548 341 567Q354 575 369 578T402 582Q446 582 475 559Q510 534 510 494Q510 434 457 396Q406 360 347 360Q280 360 233 396Q183 435 183 502Q183 541 204 577Q261 672 413 672Q439 672 476 667T561 651L729 611Q728 666 703 707Q700
715 700 720Q700 728 707 728Q717 728 727 709Q748 675 750 607Q785 600 815 595T871 588Q905 635 938 659Q980 690 1015 690Q1070 690 1070 647Q1070 579 924 575Q860 471 860 301Q860 288 860 275T862 249Q995 254 1032 322Q1036 330 1040 343T1048 375Q1050
381 1054 381Q1060 381 1060 373Q1060 357 1049 329Q1013 231 864 227Q875 143 907 84Q953 4 1025 4Q1064 4 1086 38Q1088 40 1113 104Q1115 107 1117 107Q1119 107 1119 101Q1119 60 1090 25Q1059 -9 1019 -9H1013Q1010 -8 1007 -8Q986 -8 983 -33Q979 -60 974
-60Q969 -60 964 -56Q836 32 816 227Q789 228 755 231T678 238Q531 -6 356 -64Q289 -87 227 -87ZM900 586Q912 604 923 615Q927 619 935 622T956 631Q970 636 978 639T992 642Q993 642 993 641Q993 641 993 641T991 640Q975 631 961 618T934 587Q1034 594 1034
641Q1034 671 997 671Q974 671 946 651T884 587Q888 587 892 587T900 586ZM677 258Q687 273 702 300T739 366Q757 402 788 454T862 576Q837 578 810 581T750 590Q749 550 740 504T712 407Q700 372 683 336T644 261L677 258ZM814 249Q813 258 813 268T813 288Q813
458 891 575Q887 575 883 575T875 576Q860 554 829 501T748 360Q730 326 716 301T690 257Q728 253 759 252T814 249ZM239 -72Q293 -72 354 -54Q522 0 666 239L634 243Q495 7 348 -13Q371 2 371 51V53Q386 83 404 83Q407 83 407 81Q407 29 399 18L374 0Q503 39 620
245Q506 257 441 257Q324 257 240 226Q175 202 132 161Q79 111 79 51Q79 -9 131 -44Q178 -72 239 -72ZM874 770Q857 770 845 779T833 805Q833 816 839 834T854 866T871 881Q882 895 898 903T931 912Q951 912 962 896T974 862Q973 839 959 818T922 784T874 770ZM887
788Q905 788 918 800T940 828T948 860Q948 870 945 882T927 895Q918 895 911 891T895 882Q896 881 899 881T902 878Q902 875 898 871Q891 863 882 848T871 808Q871 801 874 795T887 788Z" />
<glyph unicode="&#xc6;" glyph-name="AE" horiz-adv-x="1300" d="M227 -87Q154 -87 95 -54Q25 -13 25 56Q25 94 52 131Q91 185 165 217T333 262T527 276Q554 276 581 275T636 272L659 320Q658 343 645 359T608 374Q614 409 649 409Q683 409 677 364Q703 429 716
486T729 594V604Q689 608 656 610T608 612Q561 612 517 598Q460 579 460 542Q460 526 470 509Q481 492 481 491Q481 475 430 457Q418 469 418 489Q418 549 495 605Q572 662 632 662Q646 662 670 660T724 653Q718 682 703 707Q700 715 700 720Q700 728 707 728Q717
728 727 709Q741 685 747 650Q782 645 822 639T903 627Q918 644 933 656T964 675Q967 676 972 676Q980 676 980 669Q980 663 972 659Q948 645 927 624Q997 614 1060 606T1157 598Q1246 598 1273 634Q1283 647 1288 647Q1291 647 1291 644Q1291 641 1288 635Q1239
550 1126 550Q1060 550 958 574Q942 541 929 482T899 325Q893 286 885 253Q910 252 933 251T977 250Q1056 250 1107 265T1181 322Q1184 330 1188 343T1196 375Q1198 381 1202 381Q1208 381 1208 373Q1208 365 1203 354T1197 329Q1197 281 1171 255T1101 219T1001
208Q971 208 940 210T875 216Q852 139 819 111L768 66Q776 67 784 67T800 68Q833 68 865 60Q954 35 1025 23T1148 10Q1251 10 1286 52Q1297 64 1302 78T1307 106Q1307 123 1298 134T1289 147Q1289 154 1296 154Q1314 154 1314 113Q1314 80 1293 50Q1236 -28 1097
-28Q1067 -28 1006 -18T851 12Q826 17 803 19T757 22Q732 22 706 19Q638 6 601 -25T564 -94Q564 -150 637 -150Q642 -150 648 -150T655 -150Q655 -152 625 -158Q623 -159 621 -161T616 -163Q590 -163 572 -146T554 -102Q554 -74 573 -48Q610 7 652 31T758 65Q800
129 829 221Q792 225 757 229T690 238Q635 143 580 83T470 -11T356 -64Q289 -87 227 -87ZM651 271L684 268Q698 291 718 329T762 413T813 505T870 589Q843 592 812 595T750 602Q750 554 739 503T712 407Q700 372 684 337T651 271ZM708 267Q744 264 776 262T839
256Q848 292 856 330Q868 392 875 428T887 487T898 533Q906 544 916 555T940 578Q923 582 892 586Q855 539 813 462T708 267ZM239 -72Q293 -72 354 -54Q522 0 666 239L634 243Q495 7 348 -13Q371 2 371 51V53Q386 83 404 83Q407 83 407 81Q407 29 399 18L374 0Q503
39 620 245Q506 257 441 257Q324 257 240 226Q175 202 132 161Q79 111 79 51Q79 -9 131 -44Q178 -72 239 -72Z" />
<glyph unicode="&#xc7;" glyph-name="Ccedilla" horiz-adv-x="711" d="M298 -94Q294 -94 294 -90Q294 -62 297 -29Q177 -10 103 67Q65 108 45 160T25 276Q25 382 83 477Q112 525 150 561T236 622Q327 669 445 669Q471 669 498 667T553 659Q604 738 666 805L670
807Q671 807 671 805Q671 799 665 791Q633 753 608 719T565 656Q614 645 666 626Q672 636 679 645T693 663Q699 671 703 671Q708 671 708 666Q707 665 707 663Q682 626 667 573T645 451Q644 441 631 429T607 417Q601 417 601 443Q601 501 636 574Q628 585 605 597T544
623Q482 519 432 394Q440 382 452 382Q459 382 415 346Q392 284 373 218Q371 190 364 154T348 75L342 45Q337 24 328 20Q327 12 326 3T323 -15Q340 -19 357 -20T393 -21Q548 -21 616 123Q634 162 634 190Q634 208 624 212Q622 212 622 213Q622 222 650 222Q680
222 680 182Q680 83 574 20Q483 -36 379 -36Q349 -36 320 -33Q319 -40 318 -51T315 -77Q312 -94 298 -94ZM300 -9Q306 44 321 105T358 236V259Q358 325 340 379Q299 486 213 486Q208 486 203 486T193 484Q231 484 231 447Q231 431 222 422Q207 457 178 457Q168
457 155 452Q154 454 154 460Q154 501 214 501Q260 501 301 467Q338 436 354 392Q374 344 375 284Q380 301 386 318T400 351Q391 363 391 379Q391 388 402 404T422 421L424 412Q450 472 474 523T525 614L534 627Q468 651 408 651Q263 651 172 548Q80 449 80 302Q80
191 140 105Q201 22 300 -9ZM406 51Q390 51 386 53T381 59Q381 63 411 68Q425 70 442 73T472 87T485 118Q485 134 474 145T451 168T439 195Q439 202 442 210T454 227Q468 243 493 251H496Q501 251 506 250T513 246Q496 238 481 224Q478 220 476 216T474 207Q474
195 486 182T511 155T523 121Q523 102 510 89T478 68T439 55T406 51Z" />
<glyph unicode="&#xc8;" glyph-name="Egrave" horiz-adv-x="747" d="M63 -163Q37 -163 20 -146T2 -102Q2 -75 20 -48Q70 26 157 54Q202 164 202 227Q202 293 150 293Q147 293 144 293T138 292Q152 284 152 267Q152 232 120 217Q121 221 121 225T122 233Q122 271
83 269Q108 303 152 303Q216 303 216 229Q216 218 215 204T209 175Q217 198 224 228T240 297L248 334H243Q156 334 100 296L98 299L133 327Q174 361 255 365Q271 441 286 498T315 594Q294 598 275 600T235 602Q189 602 144 588Q87 570 87 532Q87 517 98 500Q103
491 105 487T108 481Q108 466 58 447Q45 460 45 479Q45 539 122 595Q200 652 260 652Q292 652 336 642Q352 677 372 694Q376 698 382 702T396 713Q386 696 375 677T354 638Q437 619 500 609T605 598Q694 598 721 634Q731 647 736 647Q739 647 739 644Q739 641 736
635Q686 550 574 550Q508 550 406 574Q378 517 352 361Q442 350 490 345T544 339Q605 339 645 361Q649 361 649 358Q649 340 604 319Q572 303 528 303Q509 303 464 308T346 325Q317 156 266 111L216 66Q224 67 232 67T248 68Q281 68 313 60Q402 35 473 23T596 10Q698
10 734 52Q755 76 755 106Q755 123 746 134T737 147Q737 154 743 154Q762 154 762 113Q762 80 741 50Q684 -28 544 -28Q514 -28 453 -18T299 12Q274 17 251 19T205 22Q180 22 154 19Q144 -2 136 -20T117 -54Q105 -74 100 -74V-73Q100 -67 108 -52Q116 -35 125 -19T141
17Q83 5 48 -27T12 -94Q12 -150 85 -150Q90 -150 96 -150T102 -150Q102 -152 73 -158Q70 -159 68 -161T63 -163ZM310 365V366Q310 404 322 445T345 533Q353 544 364 555T387 578L334 590Q318 550 302 494T269 366H278Q285 366 293 366T310 365ZM173 59L206 65Q238
113 262 179T303 330Q282 333 262 333L239 233Q232 205 217 170T184 88L173 59ZM477 751Q474 751 457 760T420 782T384 804T366 815Q344 830 341 838T337 852Q337 858 355 858Q363 858 372 857T385 852Q390 848 402 836T430 807T462 778T491 758Q495 757 495 755Q494
752 488 751T477 751Z" />
<glyph unicode="&#xc9;" glyph-name="Eacute" horiz-adv-x="747" d="M63 -163Q37 -163 20 -146T2 -102Q2 -75 20 -48Q70 26 157 54Q202 164 202 227Q202 293 150 293Q147 293 144 293T138 292Q152 284 152 267Q152 232 120 217Q121 221 121 225T122 233Q122 271
83 269Q108 303 152 303Q216 303 216 229Q216 218 215 204T209 175Q217 198 224 228T240 297L248 334H243Q156 334 100 296L98 299L133 327Q174 361 255 365Q271 441 286 498T315 594Q294 598 275 600T235 602Q189 602 144 588Q87 570 87 532Q87 517 98 500Q103
491 105 487T108 481Q108 466 58 447Q45 460 45 479Q45 539 122 595Q200 652 260 652Q292 652 336 642Q352 677 372 694Q376 698 382 702T396 713Q386 696 375 677T354 638Q437 619 500 609T605 598Q694 598 721 634Q731 647 736 647Q739 647 739 644Q739 641 736
635Q686 550 574 550Q508 550 406 574Q378 517 352 361Q442 350 490 345T544 339Q605 339 645 361Q649 361 649 358Q649 340 604 319Q572 303 528 303Q509 303 464 308T346 325Q317 156 266 111L216 66Q224 67 232 67T248 68Q281 68 313 60Q402 35 473 23T596 10Q698
10 734 52Q755 76 755 106Q755 123 746 134T737 147Q737 154 743 154Q762 154 762 113Q762 80 741 50Q684 -28 544 -28Q514 -28 453 -18T299 12Q274 17 251 19T205 22Q180 22 154 19Q144 -2 136 -20T117 -54Q105 -74 100 -74V-73Q100 -67 108 -52Q116 -35 125 -19T141
17Q83 5 48 -27T12 -94Q12 -150 85 -150Q90 -150 96 -150T102 -150Q102 -152 73 -158Q70 -159 68 -161T63 -163ZM310 365V366Q310 404 322 445T345 533Q353 544 364 555T387 578L334 590Q318 550 302 494T269 366H278Q285 366 293 366T310 365ZM173 59L206 65Q238
113 262 179T303 330Q282 333 262 333L239 233Q232 205 217 170T184 88L173 59ZM444 750Q439 750 436 752T439 758Q453 764 472 777T511 807T546 835T569 852Q573 855 582 856T599 858Q617 858 617 852Q616 847 610 839T578 815Q576 814 558 804T516 782T473 761T451
751Q449 750 444 750Z" />
<glyph unicode="&#xca;" glyph-name="Ecircumflex" horiz-adv-x="747" d="M63 -163Q37 -163 20 -146T2 -102Q2 -75 20 -48Q70 26 157 54Q202 164 202 227Q202 293 150 293Q147 293 144 293T138 292Q152 284 152 267Q152 232 120 217Q121 221 121 225T122 233Q122
271 83 269Q108 303 152 303Q216 303 216 229Q216 218 215 204T209 175Q217 198 224 228T240 297L248 334H243Q156 334 100 296L98 299L133 327Q174 361 255 365Q271 441 286 498T315 594Q294 598 275 600T235 602Q189 602 144 588Q87 570 87 532Q87 517 98 500Q103
491 105 487T108 481Q108 466 58 447Q45 460 45 479Q45 539 122 595Q200 652 260 652Q292 652 336 642Q352 677 372 694Q376 698 382 702T396 713Q386 696 375 677T354 638Q437 619 500 609T605 598Q694 598 721 634Q731 647 736 647Q739 647 739 644Q739 641 736
635Q686 550 574 550Q508 550 406 574Q378 517 352 361Q442 350 490 345T544 339Q605 339 645 361Q649 361 649 358Q649 340 604 319Q572 303 528 303Q509 303 464 308T346 325Q317 156 266 111L216 66Q224 67 232 67T248 68Q281 68 313 60Q402 35 473 23T596 10Q698
10 734 52Q755 76 755 106Q755 123 746 134T737 147Q737 154 743 154Q762 154 762 113Q762 80 741 50Q684 -28 544 -28Q514 -28 453 -18T299 12Q274 17 251 19T205 22Q180 22 154 19Q144 -2 136 -20T117 -54Q105 -74 100 -74V-73Q100 -67 108 -52Q116 -35 125 -19T141
17Q83 5 48 -27T12 -94Q12 -150 85 -150Q90 -150 96 -150T102 -150Q102 -152 73 -158Q70 -159 68 -161T63 -163ZM310 365V366Q310 404 322 445T345 533Q353 544 364 555T387 578L334 590Q318 550 302 494T269 366H278Q285 366 293 366T310 365ZM173 59L206 65Q238
113 262 179T303 330Q282 333 262 333L239 233Q232 205 217 170T184 88L173 59ZM361 750Q357 750 355 753T358 760Q365 763 383 779T424 814T462 849T482 865Q487 868 499 868Q508 868 511 865Q513 864 522 849T544 814T567 778T579 760Q582 759 582 756Q581 752
577 751T568 752Q567 752 555 763T528 788T502 815T488 830Q484 826 466 814T425 788T386 763T366 752Q362 750 361 750Z" />
<glyph unicode="&#xcb;" glyph-name="Edieresis" horiz-adv-x="747" d="M63 -163Q37 -163 20 -146T2 -102Q2 -75 20 -48Q70 26 157 54Q202 164 202 227Q202 293 150 293Q147 293 144 293T138 292Q152 284 152 267Q152 232 120 217Q121 221 121 225T122 233Q122
271 83 269Q108 303 152 303Q216 303 216 229Q216 218 215 204T209 175Q217 198 224 228T240 297L248 334H243Q156 334 100 296L98 299L133 327Q174 361 255 365Q271 441 286 498T315 594Q294 598 275 600T235 602Q189 602 144 588Q87 570 87 532Q87 517 98 500Q103
491 105 487T108 481Q108 466 58 447Q45 460 45 479Q45 539 122 595Q200 652 260 652Q292 652 336 642Q352 677 372 694Q376 698 382 702T396 713Q386 696 375 677T354 638Q437 619 500 609T605 598Q694 598 721 634Q731 647 736 647Q739 647 739 644Q739 641 736
635Q686 550 574 550Q508 550 406 574Q378 517 352 361Q442 350 490 345T544 339Q605 339 645 361Q649 361 649 358Q649 340 604 319Q572 303 528 303Q509 303 464 308T346 325Q317 156 266 111L216 66Q224 67 232 67T248 68Q281 68 313 60Q402 35 473 23T596 10Q698
10 734 52Q755 76 755 106Q755 123 746 134T737 147Q737 154 743 154Q762 154 762 113Q762 80 741 50Q684 -28 544 -28Q514 -28 453 -18T299 12Q274 17 251 19T205 22Q180 22 154 19Q144 -2 136 -20T117 -54Q105 -74 100 -74V-73Q100 -67 108 -52Q116 -35 125 -19T141
17Q83 5 48 -27T12 -94Q12 -150 85 -150Q90 -150 96 -150T102 -150Q102 -152 73 -158Q70 -159 68 -161T63 -163ZM310 365V366Q310 404 322 445T345 533Q353 544 364 555T387 578L334 590Q318 550 302 494T269 366H278Q285 366 293 366T310 365ZM173 59L206 65Q238
113 262 179T303 330Q282 333 262 333L239 233Q232 205 217 170T184 88L173 59ZM513 750Q506 750 500 761T493 780Q493 791 507 801T537 819T561 826Q565 826 566 823V819Q558 807 552 799T543 782Q540 773 533 762T513 750ZM382 750Q375 750 369 761T362 780Q362
791 376 801T406 819T430 826Q434 826 435 823V819Q427 807 421 799T412 782Q409 773 402 762T382 750Z" />
<glyph unicode="&#xcc;" glyph-name="Igrave" horiz-adv-x="497" d="M59 -163Q50 -165 46 -162Q42 -158 49 -157Q74 -149 88 -121Q99 -98 114 -61T147 29H146Q145 28 144 28Q143 28 143 29Q133 30 122 30T101 31Q10 31 -38 -2L-40 0Q-10 29 7 45T32 65Q66 87 123
87Q132 87 141 87T160 85Q178 149 187 202T197 299Q197 399 140 397Q137 397 128 394Q147 388 147 363Q147 335 121 318Q122 338 114 352T87 366Q85 366 82 366T76 365Q89 385 107 397T151 409Q217 409 217 309Q217 293 215 273T209 230Q248 376 308 656Q283 662
258 662Q217 662 184 647Q143 627 143 591Q143 584 145 576T151 559L160 541Q160 525 121 505Q111 518 111 539Q111 591 167 652Q223 711 276 711Q294 711 319 705L338 792Q349 813 357 821Q368 832 386 835Q367 810 340 700L386 685Q397 694 434 703Q445 706 455
706Q450 700 446 691T436 671Q465 665 491 662T542 658Q610 658 630 694Q637 706 642 706Q644 704 644 703Q644 700 641 694Q605 610 517 610Q496 610 472 613T418 624Q405 587 388 513T346 326Q325 224 309 159T279 66Q323 59 357 55T416 50Q446 50 471 56T517
72Q520 72 520 70Q520 58 466 20Q431 -2 387 -2Q364 -2 232 19L192 0L190 2Q194 7 197 12T203 22L176 26Q128 -111 98 -137Q66 -162 59 -163ZM229 75Q297 235 352 563L365 640L327 651Q319 619 301 532T252 301Q242 255 228 200T193 81Q212 79 229 75ZM452 872Q449
872 432 881T395 903T359 925T341 936Q319 951 316 959T312 973Q312 979 330 979Q338 979 347 978T360 973Q365 969 377 957T405 928T437 899T466 879Q470 878 470 876Q469 873 463 872T452 872Z" />
<glyph unicode="&#xcd;" glyph-name="Iacute" horiz-adv-x="497" d="M59 -163Q50 -165 46 -162Q42 -158 49 -157Q74 -149 88 -121Q99 -98 114 -61T147 29H146Q145 28 144 28Q143 28 143 29Q133 30 122 30T101 31Q10 31 -38 -2L-40 0Q-10 29 7 45T32 65Q66 87 123
87Q132 87 141 87T160 85Q178 149 187 202T197 299Q197 399 140 397Q137 397 128 394Q147 388 147 363Q147 335 121 318Q122 338 114 352T87 366Q85 366 82 366T76 365Q89 385 107 397T151 409Q217 409 217 309Q217 293 215 273T209 230Q248 376 308 656Q283 662
258 662Q217 662 184 647Q143 627 143 591Q143 584 145 576T151 559L160 541Q160 525 121 505Q111 518 111 539Q111 591 167 652Q223 711 276 711Q294 711 319 705L338 792Q349 813 357 821Q368 832 386 835Q367 810 340 700L386 685Q397 694 434 703Q445 706 455
706Q450 700 446 691T436 671Q465 665 491 662T542 658Q610 658 630 694Q637 706 642 706Q644 704 644 703Q644 700 641 694Q605 610 517 610Q496 610 472 613T418 624Q405 587 388 513T346 326Q325 224 309 159T279 66Q323 59 357 55T416 50Q446 50 471 56T517
72Q520 72 520 70Q520 58 466 20Q431 -2 387 -2Q364 -2 232 19L192 0L190 2Q194 7 197 12T203 22L176 26Q128 -111 98 -137Q66 -162 59 -163ZM229 75Q297 235 352 563L365 640L327 651Q319 619 301 532T252 301Q242 255 228 200T193 81Q212 79 229 75ZM419 871Q414
871 411 873T414 879Q428 885 447 898T486 928T521 956T544 973Q548 976 557 977T574 979Q592 979 592 973Q591 968 585 960T553 936Q551 935 533 925T491 903T448 882T426 872Q424 871 419 871Z" />
<glyph unicode="&#xce;" glyph-name="Icircumflex" horiz-adv-x="497" d="M59 -163Q50 -165 46 -162Q42 -158 49 -157Q74 -149 88 -121Q99 -98 114 -61T147 29H146Q145 28 144 28Q143 28 143 29Q133 30 122 30T101 31Q10 31 -38 -2L-40 0Q-10 29 7 45T32 65Q66
87 123 87Q132 87 141 87T160 85Q178 149 187 202T197 299Q197 399 140 397Q137 397 128 394Q147 388 147 363Q147 335 121 318Q122 338 114 352T87 366Q85 366 82 366T76 365Q89 385 107 397T151 409Q217 409 217 309Q217 293 215 273T209 230Q248 376 308 656Q283
662 258 662Q217 662 184 647Q143 627 143 591Q143 584 145 576T151 559L160 541Q160 525 121 505Q111 518 111 539Q111 591 167 652Q223 711 276 711Q294 711 319 705L338 792Q349 813 357 821Q368 832 386 835Q367 810 340 700L386 685Q397 694 434 703Q445 706
455 706Q450 700 446 691T436 671Q465 665 491 662T542 658Q610 658 630 694Q637 706 642 706Q644 704 644 703Q644 700 641 694Q605 610 517 610Q496 610 472 613T418 624Q405 587 388 513T346 326Q325 224 309 159T279 66Q323 59 357 55T416 50Q446 50 471 56T517
72Q520 72 520 70Q520 58 466 20Q431 -2 387 -2Q364 -2 232 19L192 0L190 2Q194 7 197 12T203 22L176 26Q128 -111 98 -137Q66 -162 59 -163ZM229 75Q297 235 352 563L365 640L327 651Q319 619 301 532T252 301Q242 255 228 200T193 81Q212 79 229 75ZM336 871Q332
871 330 874T333 881Q340 884 358 900T399 935T437 970T457 986Q462 989 474 989Q483 989 486 986Q488 985 497 970T519 935T542 899T554 881Q557 880 557 877Q556 873 552 872T543 873Q542 873 530 884T503 909T477 936T463 951Q459 947 441 935T400 909T361 884T341
873Q337 871 336 871Z" />
<glyph unicode="&#xcf;" glyph-name="Idieresis" horiz-adv-x="497" d="M59 -163Q50 -165 46 -162Q42 -158 49 -157Q74 -149 88 -121Q99 -98 114 -61T147 29H146Q145 28 144 28Q143 28 143 29Q133 30 122 30T101 31Q10 31 -38 -2L-40 0Q-10 29 7 45T32 65Q66 87
123 87Q132 87 141 87T160 85Q178 149 187 202T197 299Q197 399 140 397Q137 397 128 394Q147 388 147 363Q147 335 121 318Q122 338 114 352T87 366Q85 366 82 366T76 365Q89 385 107 397T151 409Q217 409 217 309Q217 293 215 273T209 230Q248 376 308 656Q283
662 258 662Q217 662 184 647Q143 627 143 591Q143 584 145 576T151 559L160 541Q160 525 121 505Q111 518 111 539Q111 591 167 652Q223 711 276 711Q294 711 319 705L338 792Q349 813 357 821Q368 832 386 835Q367 810 340 700L386 685Q397 694 434 703Q445 706
455 706Q450 700 446 691T436 671Q465 665 491 662T542 658Q610 658 630 694Q637 706 642 706Q644 704 644 703Q644 700 641 694Q605 610 517 610Q496 610 472 613T418 624Q405 587 388 513T346 326Q325 224 309 159T279 66Q323 59 357 55T416 50Q446 50 471 56T517
72Q520 72 520 70Q520 58 466 20Q431 -2 387 -2Q364 -2 232 19L192 0L190 2Q194 7 197 12T203 22L176 26Q128 -111 98 -137Q66 -162 59 -163ZM229 75Q297 235 352 563L365 640L327 651Q319 619 301 532T252 301Q242 255 228 200T193 81Q212 79 229 75ZM488 871Q481
871 475 882T468 901Q468 912 482 922T512 940T536 947Q540 947 541 944V940Q533 928 527 920T518 903Q515 894 508 883T488 871ZM357 871Q350 871 344 882T337 901Q337 912 351 922T381 940T405 947Q409 947 410 944V940Q402 928 396 920T387 903Q384 894 377
883T357 871Z" />
<glyph unicode="&#xd0;" glyph-name="Eth" horiz-adv-x="909" d="M156 -115Q150 -115 139 -111T122 -106Q123 -106 118 -109L114 -107Q12 -50 12 48Q12 94 43 123T121 152Q184 152 275 103L296 92Q309 129 324 182Q290 181 273 181T252 179H254Q251 179 252 179Q244
180 233 188T221 201L224 203Q280 207 331 208Q344 261 356 320T375 436T382 541Q382 575 379 603Q315 599 261 590T164 566Q44 527 44 461Q44 400 155 355Q155 355 157 353Q157 350 146 350Q114 350 61 392Q8 436 8 477Q8 562 163 606Q210 620 262 628T373 640Q352
743 285 743H271Q299 731 299 700Q299 671 280 662Q271 719 221 718Q237 754 284 754Q366 754 392 641Q405 642 418 642T444 642Q502 642 556 636Q634 729 714 729Q738 729 763 711Q788 696 788 672Q788 654 779 654Q776 654 753 683Q732 713 698 713Q666 713 637
692T584 632Q934 581 934 315Q934 179 825 80Q716 -20 581 -20Q485 -20 373 21Q289 -86 165 -90H162Q125 -92 125 -60Q125 -36 139 -36Q141 -36 165 -54Q189 -72 212 -72Q271 -72 328 39L292 54L281 29Q278 22 275 22Q271 22 271 29Q271 30 282 58Q237 75 200 87T130
105Q119 107 110 108T92 109Q19 109 19 47Q19 -29 106 -86Q116 -93 128 -98T155 -111Q158 -111 159 -114Q159 -115 156 -115ZM387 364Q377 320 367 282T346 209Q360 209 374 209Q384 209 393 209Q404 246 415 288T437 376Q453 442 476 499T531 602Q510 604 489
605T446 606Q436 606 424 606T398 604Q400 588 401 569T403 530Q403 487 399 443T387 364ZM581 -8Q710 -8 798 82Q888 171 888 300Q888 553 566 598Q547 558 527 500T488 366L449 207Q504 205 537 198Q542 197 542 194Q542 189 533 189Q492 189 445 188L435 148Q427
120 416 95T389 46Q508 -8 581 -8ZM341 68Q364 117 386 185Q364 184 341 183H338Q330 157 322 134T304 88L341 68Z" />
<glyph unicode="&#xd1;" glyph-name="Ntilde" horiz-adv-x="980" d="M939 -61Q905 -61 868 -38Q796 7 731 148Q723 165 698 228T630 404Q570 179 522 100Q432 -53 266 -53Q195 -53 132 -19Q66 20 42 84Q34 106 30 124T26 156Q26 188 49 188Q56 188 57 181Q62 162
66 149T73 128Q78 114 86 102T103 79Q150 26 229 26Q243 26 262 32Q283 38 286 38Q289 37 289 35Q289 17 213 17Q105 17 71 91Q128 -37 252 -42Q255 -40 261 -38T278 -34Q324 -24 393 71Q417 106 438 140T477 211Q491 240 502 266T521 318Q518 341 502 355T465
366Q465 381 477 393T505 405Q537 405 535 364Q561 468 561 550V556Q488 679 393 679Q316 679 277 615Q261 588 252 555T243 481Q243 412 269 346Q300 276 350 237Q360 230 374 223T405 208Q414 204 414 199Q414 192 404 192Q400 192 398 193Q356 209 323 241T264
321Q219 410 219 503Q219 594 261 645Q306 703 392 703Q480 703 548 647Q539 682 519 708Q513 716 513 721Q513 729 521 729Q530 729 537 720Q566 688 577 622Q594 603 610 577T639 519Q698 680 772 680Q790 680 805 666T820 632Q820 622 816 622Q813 622 810 633Q803
671 773 671Q714 671 654 484L734 273Q760 204 784 152T831 62Q842 90 853 127T875 212L910 359Q957 558 1015 656T1135 754Q1173 754 1198 723Q1202 719 1202 713Q1202 706 1196 706Q1192 706 1190 712Q1179 745 1138 745Q1133 745 1128 745T1118 743Q1043 720
950 345Q938 296 928 259T910 195Q894 140 877 103T843 44Q900 -43 949 -43Q978 -43 1007 -20Q1035 3 1035 3Q1042 3 1042 -4Q1042 -8 1039 -13Q1001 -61 941 -61H939ZM275 -42Q388 -37 462 44Q491 76 515 122T559 230Q564 244 578 296T616 441Q606 465 598 485T581
521Q569 362 488 197Q396 9 275 -42ZM889 770Q874 770 858 777T827 791T798 798Q780 798 767 789T748 771Q740 771 742 776Q750 800 769 815T811 830Q827 830 843 823T874 809T903 802Q920 802 934 811T952 829Q961 829 961 825Q952 800 932 785T889 770Z" />
<glyph unicode="&#xd2;" glyph-name="Ograve" horiz-adv-x="831" d="M90 -193Q99 -186 105 -178T114 -159Q115 -155 115 -145T116 -117V-115Q121 -105 134 -92T157 -78Q160 -79 160 -81Q160 -144 150 -157L120 -178Q214 -149 306 -39Q213 -35 159 20T105 170Q105
221 125 279Q9 333 9 466Q9 557 68 623Q121 686 209 719Q257 737 310 746T422 756Q459 756 495 752T566 740Q562 764 555 787T539 835Q536 844 536 850Q536 861 544 861Q553 861 562 847Q584 811 589 733Q648 716 696 689T778 624Q856 540 856 416Q856 234 682
96Q520 -33 330 -39Q215 -184 90 -193ZM140 315Q197 443 312 528Q432 615 568 622Q569 635 569 648T570 673Q570 683 570 692T569 710Q527 723 486 729T402 736Q297 736 215 698Q52 622 52 476Q52 370 140 315ZM350 -13Q514 -4 654 127Q796 263 796 424Q796 608
643 681Q630 687 618 692T591 703V695Q591 679 590 661T587 622H592Q651 622 681 612T711 589Q711 583 698 583Q694 583 683 585T655 593Q620 604 585 605Q581 562 572 515T548 418Q514 291 465 184T350 -13ZM327 -14Q368 42 399 98T451 213Q450 239 433 259T390
277Q398 318 440 318Q474 318 474 278Q474 275 474 272T473 264Q487 307 500 349T528 433Q543 483 552 525T566 605Q452 600 340 506Q285 460 246 408T182 294Q218 281 261 281Q266 281 279 286T295 292L296 291Q296 288 288 280Q265 258 224 258Q211 258 198 259T171
263Q157 215 157 174Q157 108 186 59Q218 5 280 -9Q291 -11 302 -12T327 -14ZM549 901Q546 901 529 910T492 932T456 954T438 965Q416 980 413 988T409 1002Q409 1008 427 1008Q435 1008 444 1007T457 1002Q462 998 474 986T502 957T534 928T563 908Q567 907 567
905Q566 902 560 901T549 901Z" />
<glyph unicode="&#xd3;" glyph-name="Oacute" horiz-adv-x="831" d="M90 -193Q99 -186 105 -178T114 -159Q115 -155 115 -145T116 -117V-115Q121 -105 134 -92T157 -78Q160 -79 160 -81Q160 -144 150 -157L120 -178Q214 -149 306 -39Q213 -35 159 20T105 170Q105
221 125 279Q9 333 9 466Q9 557 68 623Q121 686 209 719Q257 737 310 746T422 756Q459 756 495 752T566 740Q562 764 555 787T539 835Q536 844 536 850Q536 861 544 861Q553 861 562 847Q584 811 589 733Q648 716 696 689T778 624Q856 540 856 416Q856 234 682
96Q520 -33 330 -39Q215 -184 90 -193ZM140 315Q197 443 312 528Q432 615 568 622Q569 635 569 648T570 673Q570 683 570 692T569 710Q527 723 486 729T402 736Q297 736 215 698Q52 622 52 476Q52 370 140 315ZM350 -13Q514 -4 654 127Q796 263 796 424Q796 608
643 681Q630 687 618 692T591 703V695Q591 679 590 661T587 622H592Q651 622 681 612T711 589Q711 583 698 583Q694 583 683 585T655 593Q620 604 585 605Q581 562 572 515T548 418Q514 291 465 184T350 -13ZM327 -14Q368 42 399 98T451 213Q450 239 433 259T390
277Q398 318 440 318Q474 318 474 278Q474 275 474 272T473 264Q487 307 500 349T528 433Q543 483 552 525T566 605Q452 600 340 506Q285 460 246 408T182 294Q218 281 261 281Q266 281 279 286T295 292L296 291Q296 288 288 280Q265 258 224 258Q211 258 198 259T171
263Q157 215 157 174Q157 108 186 59Q218 5 280 -9Q291 -11 302 -12T327 -14ZM516 900Q511 900 508 902T511 908Q525 914 544 927T583 957T618 985T641 1002Q645 1005 654 1006T671 1008Q689 1008 689 1002Q688 997 682 989T650 965Q648 964 630 954T588 932T545
911T523 901Q521 900 516 900Z" />
<glyph unicode="&#xd4;" glyph-name="Ocircumflex" horiz-adv-x="831" d="M90 -193Q99 -186 105 -178T114 -159Q115 -155 115 -145T116 -117V-115Q121 -105 134 -92T157 -78Q160 -79 160 -81Q160 -144 150 -157L120 -178Q214 -149 306 -39Q213 -35 159 20T105
170Q105 221 125 279Q9 333 9 466Q9 557 68 623Q121 686 209 719Q257 737 310 746T422 756Q459 756 495 752T566 740Q562 764 555 787T539 835Q536 844 536 850Q536 861 544 861Q553 861 562 847Q584 811 589 733Q648 716 696 689T778 624Q856 540 856 416Q856
234 682 96Q520 -33 330 -39Q215 -184 90 -193ZM140 315Q197 443 312 528Q432 615 568 622Q569 635 569 648T570 673Q570 683 570 692T569 710Q527 723 486 729T402 736Q297 736 215 698Q52 622 52 476Q52 370 140 315ZM350 -13Q514 -4 654 127Q796 263 796 424Q796
608 643 681Q630 687 618 692T591 703V695Q591 679 590 661T587 622H592Q651 622 681 612T711 589Q711 583 698 583Q694 583 683 585T655 593Q620 604 585 605Q581 562 572 515T548 418Q514 291 465 184T350 -13ZM327 -14Q368 42 399 98T451 213Q450 239 433 259T390
277Q398 318 440 318Q474 318 474 278Q474 275 474 272T473 264Q487 307 500 349T528 433Q543 483 552 525T566 605Q452 600 340 506Q285 460 246 408T182 294Q218 281 261 281Q266 281 279 286T295 292L296 291Q296 288 288 280Q265 258 224 258Q211 258 198 259T171
263Q157 215 157 174Q157 108 186 59Q218 5 280 -9Q291 -11 302 -12T327 -14ZM433 900Q429 900 427 903T430 910Q437 913 455 929T496 964T534 999T554 1015Q559 1018 571 1018Q580 1018 583 1015Q585 1014 594 999T616 964T639 928T651 910Q654 909 654 906Q653
902 649 901T640 902Q639 902 627 913T600 938T574 965T560 980Q556 976 538 964T497 938T458 913T438 902Q434 900 433 900Z" />
<glyph unicode="&#xd5;" glyph-name="Otilde" horiz-adv-x="831" d="M90 -193Q99 -186 105 -178T114 -159Q115 -155 115 -145T116 -117V-115Q121 -105 134 -92T157 -78Q160 -79 160 -81Q160 -144 150 -157L120 -178Q214 -149 306 -39Q213 -35 159 20T105 170Q105
221 125 279Q9 333 9 466Q9 557 68 623Q121 686 209 719Q257 737 310 746T422 756Q459 756 495 752T566 740Q562 764 555 787T539 835Q536 844 536 850Q536 861 544 861Q553 861 562 847Q584 811 589 733Q648 716 696 689T778 624Q856 540 856 416Q856 234 682
96Q520 -33 330 -39Q215 -184 90 -193ZM140 315Q197 443 312 528Q432 615 568 622Q569 635 569 648T570 673Q570 683 570 692T569 710Q527 723 486 729T402 736Q297 736 215 698Q52 622 52 476Q52 370 140 315ZM350 -13Q514 -4 654 127Q796 263 796 424Q796 608
643 681Q630 687 618 692T591 703V695Q591 679 590 661T587 622H592Q651 622 681 612T711 589Q711 583 698 583Q694 583 683 585T655 593Q620 604 585 605Q581 562 572 515T548 418Q514 291 465 184T350 -13ZM327 -14Q368 42 399 98T451 213Q450 239 433 259T390
277Q398 318 440 318Q474 318 474 278Q474 275 474 272T473 264Q487 307 500 349T528 433Q543 483 552 525T566 605Q452 600 340 506Q285 460 246 408T182 294Q218 281 261 281Q266 281 279 286T295 292L296 291Q296 288 288 280Q265 258 224 258Q211 258 198 259T171
263Q157 215 157 174Q157 108 186 59Q218 5 280 -9Q291 -11 302 -12T327 -14ZM574 900Q559 900 543 907T512 921T483 928Q465 928 452 919T433 901Q425 901 427 906Q435 930 454 945T496 960Q512 960 528 953T559 939T588 932Q605 932 619 941T637 959Q646 959
646 955Q637 930 617 915T574 900Z" />
<glyph unicode="&#xd6;" glyph-name="Odieresis" horiz-adv-x="831" d="M90 -193Q99 -186 105 -178T114 -159Q115 -155 115 -145T116 -117V-115Q121 -105 134 -92T157 -78Q160 -79 160 -81Q160 -144 150 -157L120 -178Q214 -149 306 -39Q213 -35 159 20T105 170Q105
221 125 279Q9 333 9 466Q9 557 68 623Q121 686 209 719Q257 737 310 746T422 756Q459 756 495 752T566 740Q562 764 555 787T539 835Q536 844 536 850Q536 861 544 861Q553 861 562 847Q584 811 589 733Q648 716 696 689T778 624Q856 540 856 416Q856 234 682
96Q520 -33 330 -39Q215 -184 90 -193ZM140 315Q197 443 312 528Q432 615 568 622Q569 635 569 648T570 673Q570 683 570 692T569 710Q527 723 486 729T402 736Q297 736 215 698Q52 622 52 476Q52 370 140 315ZM350 -13Q514 -4 654 127Q796 263 796 424Q796 608
643 681Q630 687 618 692T591 703V695Q591 679 590 661T587 622H592Q651 622 681 612T711 589Q711 583 698 583Q694 583 683 585T655 593Q620 604 585 605Q581 562 572 515T548 418Q514 291 465 184T350 -13ZM327 -14Q368 42 399 98T451 213Q450 239 433 259T390
277Q398 318 440 318Q474 318 474 278Q474 275 474 272T473 264Q487 307 500 349T528 433Q543 483 552 525T566 605Q452 600 340 506Q285 460 246 408T182 294Q218 281 261 281Q266 281 279 286T295 292L296 291Q296 288 288 280Q265 258 224 258Q211 258 198 259T171
263Q157 215 157 174Q157 108 186 59Q218 5 280 -9Q291 -11 302 -12T327 -14ZM585 900Q578 900 572 911T565 930Q565 941 579 951T609 969T633 976Q637 976 638 973V969Q630 957 624 949T615 932Q612 923 605 912T585 900ZM454 900Q447 900 441 911T434 930Q434
941 448 951T478 969T502 976Q506 976 507 973V969Q499 957 493 949T484 932Q481 923 474 912T454 900Z" />
<glyph unicode="&#xd7;" glyph-name="multiply" horiz-adv-x="390" d="M316 108Q287 123 193 206Q162 181 136 159T88 117Q80 109 79 114Q78 115 80 119Q107 152 180 219Q149 248 127 270T91 309L84 317L86 318Q89 322 101 325T116 326Q140 298 160 275T198 234Q233
266 259 287T302 320H304Q305 319 305 315Q305 308 302 299T295 287Q297 288 290 283T270 266Q255 256 241 244T211 221Q236 196 255 179T285 148L319 115Q321 114 321 112T319 109Q318 108 317 108T316 108Z" />
<glyph unicode="&#xd8;" glyph-name="Oslash" horiz-adv-x="831" d="M234 -168Q228 -168 224 -163T220 -153Q220 -143 223 -129T231 -95Q235 -80 239 -63T249 -28Q176 -9 141 41T105 170Q105 221 125 279Q9 333 9 466Q9 557 68 623Q121 686 209 719Q257 737 310
746T422 756Q479 756 535 746T642 714Q650 727 660 741T682 771Q693 782 706 787T729 793Q734 793 738 791T743 784Q743 783 742 783T738 778Q708 738 679 697Q739 667 778 624Q856 540 856 416Q856 234 682 96Q601 32 513 -3T330 -39Q303 -38 280 -34Q268 -69
260 -102T246 -166Q244 -167 240 -167T234 -168ZM52 476Q52 370 140 315Q197 443 312 528Q375 573 443 596T580 622Q587 633 595 645Q601 654 608 665T624 689Q572 712 517 724T402 736Q297 736 215 698Q52 622 52 476ZM326 -14Q416 -14 497 21T654 127Q796 263
796 424Q796 596 661 672Q643 646 626 621Q668 618 689 609T711 589Q711 583 698 583Q694 583 683 585T655 593Q634 599 614 602Q577 547 543 492T475 382Q453 344 420 281T351 142T288 -11Q306 -14 326 -14ZM186 59Q200 36 218 21T258 -2Q277 59 308 133T386 295Q428
374 475 451T570 605Q509 603 451 577T340 506Q285 460 246 408T182 294Q218 281 261 281Q266 281 279 286T295 292L296 291Q296 288 288 280Q265 258 224 258Q211 258 198 259T171 263Q157 215 157 174Q157 108 186 59Z" />
<glyph unicode="&#xd9;" glyph-name="Ugrave" horiz-adv-x="903" d="M393 -139Q388 -139 388 -121Q388 -116 388 -111T389 -100Q391 -86 393 -71T397 -43Q387 -46 377 -46Q312 -46 312 54Q312 99 326 159T372 293L477 538Q492 573 498 603T505 656Q505 726 439
726Q413 726 382 716Q294 689 216 622Q177 591 147 554T94 476Q69 430 57 389T44 312Q44 192 134 192Q157 192 187 203Q204 210 220 220T253 247Q261 258 269 267T287 287Q297 299 297 290V286Q297 282 294 276Q256 208 185 186Q168 182 152 179T121 176Q8 176
8 313Q8 406 68 496Q203 691 381 736Q398 740 413 741T443 743Q552 743 552 639Q552 617 547 589T530 529L426 283Q394 207 380 149T365 52Q365 -21 397 -21H401Q407 14 416 53T435 132Q442 156 451 184T470 244Q464 244 462 243L461 244Q459 251 483 281Q509 352
542 422T617 564Q712 729 779 763Q784 766 789 766Q802 766 802 756Q802 751 796 746L755 717Q724 692 688 641T610 513Q540 387 502 288Q520 277 525 258Q527 248 521 231T505 211Q495 227 485 236Q462 168 444 105T415 -18Q495 9 633 213Q764 406 788 508Q795
533 795 533Q799 544 817 544Q838 544 838 532Q838 531 830 507Q797 412 781 317T765 126Q765 -20 822 -20Q858 -20 904 40Q911 49 926 71T963 130Q968 137 972 137Q978 137 974 127Q886 -33 814 -33Q710 -33 710 118Q710 162 719 221T747 353Q539 14 412 -38Q405
-76 400 -120Q399 -139 393 -139ZM875 811Q872 811 855 820T818 842T782 864T764 875Q742 890 739 898T735 912Q735 918 753 918Q761 918 770 917T783 912Q788 908 800 896T828 867T860 838T889 818Q893 817 893 815Q892 812 886 811T875 811Z" />
<glyph unicode="&#xda;" glyph-name="Uacute" horiz-adv-x="903" d="M393 -139Q388 -139 388 -121Q388 -116 388 -111T389 -100Q391 -86 393 -71T397 -43Q387 -46 377 -46Q312 -46 312 54Q312 99 326 159T372 293L477 538Q492 573 498 603T505 656Q505 726 439
726Q413 726 382 716Q294 689 216 622Q177 591 147 554T94 476Q69 430 57 389T44 312Q44 192 134 192Q157 192 187 203Q204 210 220 220T253 247Q261 258 269 267T287 287Q297 299 297 290V286Q297 282 294 276Q256 208 185 186Q168 182 152 179T121 176Q8 176
8 313Q8 406 68 496Q203 691 381 736Q398 740 413 741T443 743Q552 743 552 639Q552 617 547 589T530 529L426 283Q394 207 380 149T365 52Q365 -21 397 -21H401Q407 14 416 53T435 132Q442 156 451 184T470 244Q464 244 462 243L461 244Q459 251 483 281Q509 352
542 422T617 564Q712 729 779 763Q784 766 789 766Q802 766 802 756Q802 751 796 746L755 717Q724 692 688 641T610 513Q540 387 502 288Q520 277 525 258Q527 248 521 231T505 211Q495 227 485 236Q462 168 444 105T415 -18Q495 9 633 213Q764 406 788 508Q795
533 795 533Q799 544 817 544Q838 544 838 532Q838 531 830 507Q797 412 781 317T765 126Q765 -20 822 -20Q858 -20 904 40Q911 49 926 71T963 130Q968 137 972 137Q978 137 974 127Q886 -33 814 -33Q710 -33 710 118Q710 162 719 221T747 353Q539 14 412 -38Q405
-76 400 -120Q399 -139 393 -139ZM842 810Q837 810 834 812T837 818Q851 824 870 837T909 867T944 895T967 912Q971 915 980 916T997 918Q1015 918 1015 912Q1014 907 1008 899T976 875Q974 874 956 864T914 842T871 821T849 811Q847 810 842 810Z" />
<glyph unicode="&#xdb;" glyph-name="Ucircumflex" horiz-adv-x="903" d="M393 -139Q388 -139 388 -121Q388 -116 388 -111T389 -100Q391 -86 393 -71T397 -43Q387 -46 377 -46Q312 -46 312 54Q312 99 326 159T372 293L477 538Q492 573 498 603T505 656Q505 726
439 726Q413 726 382 716Q294 689 216 622Q177 591 147 554T94 476Q69 430 57 389T44 312Q44 192 134 192Q157 192 187 203Q204 210 220 220T253 247Q261 258 269 267T287 287Q297 299 297 290V286Q297 282 294 276Q256 208 185 186Q168 182 152 179T121 176Q8
176 8 313Q8 406 68 496Q203 691 381 736Q398 740 413 741T443 743Q552 743 552 639Q552 617 547 589T530 529L426 283Q394 207 380 149T365 52Q365 -21 397 -21H401Q407 14 416 53T435 132Q442 156 451 184T470 244Q464 244 462 243L461 244Q459 251 483 281Q509
352 542 422T617 564Q712 729 779 763Q784 766 789 766Q802 766 802 756Q802 751 796 746L755 717Q724 692 688 641T610 513Q540 387 502 288Q520 277 525 258Q527 248 521 231T505 211Q495 227 485 236Q462 168 444 105T415 -18Q495 9 633 213Q764 406 788 508Q795
533 795 533Q799 544 817 544Q838 544 838 532Q838 531 830 507Q797 412 781 317T765 126Q765 -20 822 -20Q858 -20 904 40Q911 49 926 71T963 130Q968 137 972 137Q978 137 974 127Q886 -33 814 -33Q710 -33 710 118Q710 162 719 221T747 353Q539 14 412 -38Q405
-76 400 -120Q399 -139 393 -139ZM759 810Q755 810 753 813T756 820Q763 823 781 839T822 874T860 909T880 925Q885 928 897 928Q906 928 909 925Q911 924 920 909T942 874T965 838T977 820Q980 819 980 816Q979 812 975 811T966 812Q965 812 953 823T926 848T900
875T886 890Q882 886 864 874T823 848T784 823T764 812Q760 810 759 810Z" />
<glyph unicode="&#xdc;" glyph-name="Udieresis" horiz-adv-x="903" d="M393 -139Q388 -139 388 -121Q388 -116 388 -111T389 -100Q391 -86 393 -71T397 -43Q387 -46 377 -46Q312 -46 312 54Q312 99 326 159T372 293L477 538Q492 573 498 603T505 656Q505 726
439 726Q413 726 382 716Q294 689 216 622Q177 591 147 554T94 476Q69 430 57 389T44 312Q44 192 134 192Q157 192 187 203Q204 210 220 220T253 247Q261 258 269 267T287 287Q297 299 297 290V286Q297 282 294 276Q256 208 185 186Q168 182 152 179T121 176Q8
176 8 313Q8 406 68 496Q203 691 381 736Q398 740 413 741T443 743Q552 743 552 639Q552 617 547 589T530 529L426 283Q394 207 380 149T365 52Q365 -21 397 -21H401Q407 14 416 53T435 132Q442 156 451 184T470 244Q464 244 462 243L461 244Q459 251 483 281Q509
352 542 422T617 564Q712 729 779 763Q784 766 789 766Q802 766 802 756Q802 751 796 746L755 717Q724 692 688 641T610 513Q540 387 502 288Q520 277 525 258Q527 248 521 231T505 211Q495 227 485 236Q462 168 444 105T415 -18Q495 9 633 213Q764 406 788 508Q795
533 795 533Q799 544 817 544Q838 544 838 532Q838 531 830 507Q797 412 781 317T765 126Q765 -20 822 -20Q858 -20 904 40Q911 49 926 71T963 130Q968 137 972 137Q978 137 974 127Q886 -33 814 -33Q710 -33 710 118Q710 162 719 221T747 353Q539 14 412 -38Q405
-76 400 -120Q399 -139 393 -139ZM911 810Q904 810 898 821T891 840Q891 851 905 861T935 879T959 886Q963 886 964 883V879Q956 867 950 859T941 842Q938 833 931 822T911 810ZM780 810Q773 810 767 821T760 840Q760 851 774 861T804 879T828 886Q832 886 833
883V879Q825 867 819 859T810 842Q807 833 800 822T780 810Z" />
<glyph unicode="&#xdd;" glyph-name="Yacute" horiz-adv-x="772" d="M359 -141Q271 -141 188 -90Q116 -44 76 20Q32 93 32 120Q32 140 49 140Q56 140 60 133Q92 58 142 14Q210 -49 294 -49Q323 -49 344 -37Q349 -33 351 -38Q352 -42 347 -46Q321 -60 282 -60Q265
-60 242 -57Q155 -44 104 27Q212 -125 345 -125Q472 -125 603 21Q661 86 776 330Q890 572 942 632Q993 692 1047 692Q1077 692 1095 667Q1099 662 1099 656Q1099 639 1086 639Q1081 639 1078 646Q1064 674 1043 674Q1004 674 964 609Q958 599 922 526T818 314Q706
84 630 -1Q505 -141 359 -141ZM620 105Q617 126 600 140L572 154Q567 160 563 172T559 192Q560 194 561 196T563 199Q586 188 616 164L620 134Q622 146 623 159T624 186Q624 283 571 377Q520 466 438 525Q347 503 316 428Q318 420 321 411T326 390Q327 346 300
236Q292 231 288 231Q270 231 261 268L285 332Q301 376 301 418Q301 444 295 468H296Q301 468 310 445Q342 511 403 547Q362 571 323 579T246 587H242Q228 587 228 596Q228 608 246 609Q251 610 256 610T265 610Q342 610 423 558Q445 568 462 569Q467 570 471 570T480
570Q547 570 599 521Q691 433 699 195Q699 190 685 183T663 176Q660 176 660 178Q657 368 581 464Q553 499 524 514T464 529H462Q500 498 531 459T585 376Q634 284 634 193Q634 149 620 105ZM736 710Q731 710 728 712T731 718Q745 724 764 737T803 767T838 795T861
812Q865 815 874 816T891 818Q909 818 909 812Q908 807 902 799T870 775Q868 774 850 764T808 742T765 721T743 711Q741 710 736 710Z" />
<glyph unicode="&#xde;" glyph-name="Thorn" horiz-adv-x="689" d="M79 -159Q42 -159 42 -129Q42 -105 56 -105Q58 -105 82 -123Q104 -141 129 -141Q170 -141 217 -67T315 165Q240 174 197 206T153 290Q153 318 167 341T204 378T255 393Q261 393 261 390Q261 387
256 385Q233 379 211 356T188 300Q188 258 226 228T322 186Q332 215 341 247Q351 285 365 340T396 456T435 570Q394 561 357 545T283 513T205 485T117 474Q94 474 73 486T38 517T24 559Q24 583 33 598T52 620T64 628Q68 628 71 626T72 622Q64 612 52 601T40 565Q40
540 55 530T102 519Q150 519 207 536T325 572T445 597Q454 618 463 635Q487 682 517 720T583 781T662 804Q686 804 710 786Q736 771 736 747Q736 729 726 729Q724 729 701 758Q679 787 645 787Q614 787 588 765T540 710T504 639Q497 621 489 599Q559 598 619 578T715
516T752 414Q752 356 720 309T633 229T513 179T379 161Q372 161 365 161Q319 18 274 -51T175 -141Q153 -149 130 -154T82 -159H79ZM386 228Q379 204 372 181Q376 181 381 181Q440 181 497 196T601 241T675 313T703 410Q703 493 651 535T509 579Q495 579 482 578Q464
524 447 460T414 335T386 228Z" />
<glyph unicode="&#xdf;" glyph-name="germandbls" horiz-adv-x="509" d="M-123 -269Q-153 -269 -173 -248T-193 -198Q-193 -162 -180 -162Q-178 -162 -176 -172Q-168 -254 -129 -254Q-43 -254 29 -49Q33 -37 41 -11T60 48T79 112T94 165L44 159Q32 161 27 181H28Q48
184 65 185T100 187Q105 200 110 217T121 254Q204 503 312 503Q351 503 369 482T388 430Q388 419 386 406T378 380Q366 350 349 338T320 323Q317 319 316 313T315 298Q315 279 321 250T335 182Q339 166 340 151T341 122Q341 86 332 63T311 29Q318 28 325 28T340
27Q458 27 540 132Q543 137 549 137Q556 137 556 130Q556 125 552 120Q518 70 455 39Q391 7 330 7Q310 7 293 10Q283 4 268 4Q259 4 248 7Q232 11 217 19T193 36Q154 75 154 100Q154 122 172 122Q183 122 191 112T208 91Q222 71 234 61T269 41Q286 44 292 74T299
142Q298 162 293 189T282 238Q279 252 279 263Q279 291 290 311T317 335Q325 337 333 351T348 387Q361 420 361 445Q361 467 352 479T332 491Q277 491 197 323Q190 307 180 282T152 213T108 99T39 -80Q32 -99 20 -127T-12 -192Q-57 -269 -123 -269Z" />
<glyph unicode="&#xe0;" glyph-name="agrave" horiz-adv-x="308" d="M47 -6Q6 -6 6 34Q6 72 61 140Q111 203 148 227T217 251Q255 251 255 229Q255 224 245 215T234 203Q215 172 215 77Q215 22 239 22Q261 22 290 48T344 106Q347 109 349 109Q353 109 353 104Q353
102 352 97T348 89Q307 34 278 15T220 -4Q175 -4 176 92Q157 58 121 28Q79 -6 47 -6ZM74 21Q91 21 110 35Q169 82 187 211Q184 211 183 212Q163 212 130 188Q102 169 85 147Q45 95 45 57Q45 21 74 21ZM477 561Q474 561 460 569T430 589T400 609T385 619Q367 633
364 639T361 649Q361 660 376 660Q387 660 394 659T408 650Q411 647 426 630T460 595T492 567L495 565Q494 562 488 561T477 561Z" />
<glyph unicode="&#xe1;" glyph-name="aacute" horiz-adv-x="308" d="M47 -6Q6 -6 6 34Q6 72 61 140Q111 203 148 227T217 251Q255 251 255 229Q255 224 245 215T234 203Q215 172 215 77Q215 22 239 22Q261 22 290 48T344 106Q347 109 349 109Q353 109 353 104Q353
102 352 97T348 89Q307 34 278 15T220 -4Q175 -4 176 92Q157 58 121 28Q79 -6 47 -6ZM74 21Q91 21 110 35Q169 82 187 211Q184 211 183 212Q163 212 130 188Q102 169 85 147Q45 95 45 57Q45 21 74 21ZM451 561Q447 559 441 561T435 567L438 569Q450 574 466 586T498
612T525 636T540 650Q548 657 555 658T573 660Q580 660 585 657T589 649Q588 645 583 639T557 619Q556 618 541 609T506 589T470 570T451 561Z" />
<glyph unicode="&#xe2;" glyph-name="acircumflex" horiz-adv-x="308" d="M47 -6Q6 -6 6 34Q6 72 61 140Q111 203 148 227T217 251Q255 251 255 229Q255 224 245 215T234 203Q215 172 215 77Q215 22 239 22Q261 22 290 48T344 106Q347 109 349 109Q353 109 353
104Q353 102 352 97T348 89Q307 34 278 15T220 -4Q175 -4 176 92Q157 58 121 28Q79 -6 47 -6ZM74 21Q91 21 110 35Q169 82 187 211Q184 211 183 212Q163 212 130 188Q102 169 85 147Q45 95 45 57Q45 21 74 21ZM372 560Q368 560 366 564T367 571Q373 575 389 589T424
621T457 651T475 665Q477 666 479 667T489 668Q496 668 499 665Q500 664 508 650T526 619T544 587T553 571Q555 567 555 565Q555 560 548 560Q543 560 535 568Q527 576 509 596T479 629Q475 626 462 617T433 596T401 576T378 562Q374 560 372 560Z" />
<glyph unicode="&#xe3;" glyph-name="atilde" horiz-adv-x="308" d="M47 -6Q6 -6 6 34Q6 72 61 140Q111 203 148 227T217 251Q255 251 255 229Q255 224 245 215T234 203Q215 172 215 77Q215 22 239 22Q261 22 290 48T344 106Q347 109 349 109Q353 109 353 104Q353
102 352 97T348 89Q307 34 278 15T220 -4Q175 -4 176 92Q157 58 121 28Q79 -6 47 -6ZM74 21Q91 21 110 35Q169 82 187 211Q184 211 183 212Q163 212 130 188Q102 169 85 147Q45 95 45 57Q45 21 74 21ZM499 560Q480 560 459 572T421 585Q404 585 396 579T384 567T376
561Q371 561 373 568Q378 591 393 603T428 615Q441 615 455 609T483 596T507 589Q523 589 531 595T543 608T550 614Q556 614 556 607Q556 588 538 574T499 560Z" />
<glyph unicode="&#xe4;" glyph-name="adieresis" horiz-adv-x="308" d="M47 -6Q6 -6 6 34Q6 72 61 140Q111 203 148 227T217 251Q255 251 255 229Q255 224 245 215T234 203Q215 172 215 77Q215 22 239 22Q261 22 290 48T344 106Q347 109 349 109Q353 109 353 104Q353
102 352 97T348 89Q307 34 278 15T220 -4Q175 -4 176 92Q157 58 121 28Q79 -6 47 -6ZM74 21Q91 21 110 35Q169 82 187 211Q184 211 183 212Q163 212 130 188Q102 169 85 147Q45 95 45 57Q45 21 74 21ZM495 560Q488 560 482 570T476 587Q476 597 486 606T512 622T538
629Q542 629 543 626V623Q536 612 530 605T522 589Q519 581 513 571T495 560ZM404 560Q397 560 391 570T385 587Q385 597 396 606T421 622T447 629Q451 629 452 626V623Q445 612 439 605T431 589Q428 581 422 571T404 560Z" />
<glyph unicode="&#xe5;" glyph-name="aring" horiz-adv-x="308" d="M47 -6Q6 -6 6 34Q6 72 61 140Q111 203 148 227T217 251Q255 251 255 229Q255 224 245 215T234 203Q215 172 215 77Q215 22 239 22Q261 22 290 48T344 106Q347 109 349 109Q353 109 353 104Q353
102 352 97T348 89Q307 34 278 15T220 -4Q175 -4 176 92Q157 58 121 28Q79 -6 47 -6ZM74 21Q91 21 110 35Q169 82 187 211Q184 211 183 212Q163 212 130 188Q102 169 85 147Q45 95 45 57Q45 21 74 21ZM469 560Q455 560 444 568T432 592Q432 602 437 618T449 648T463
661Q473 673 487 681T516 689Q536 689 545 675T555 644Q555 623 543 604T511 573T469 560ZM480 578Q502 578 516 600T531 642Q531 651 528 661T513 672Q506 672 500 669T486 662Q487 661 489 661T492 658Q492 657 489 652Q483 645 475 632T466 595Q466 578 480
578Z" />
<glyph unicode="&#xe6;" glyph-name="ae" horiz-adv-x="396" d="M47 -6Q6 -6 6 34Q6 72 61 140Q111 203 148 227T217 251Q238 251 248 244Q270 260 295 260Q306 260 315 249T324 225Q324 197 284 152Q247 114 214 100Q213 96 213 92T212 82Q212 51 223 34T271
17Q295 17 328 29T389 65L445 112Q450 112 450 107Q450 106 448 100Q416 59 362 27Q304 -6 256 -6Q230 -6 211 -1T183 26T176 91Q166 77 151 59T121 28Q79 -6 47 -6ZM218 121Q231 128 243 137T267 160Q295 191 295 216Q295 221 291 228T276 236Q274 236 272 236T266
234Q260 231 253 221T234 187Q224 167 221 151T218 121ZM74 21Q91 21 110 35Q166 80 201 212Q200 212 192 212T183 212Q163 212 130 188Q102 169 85 147Q45 95 45 57Q45 21 74 21Z" />
<glyph unicode="&#xe7;" glyph-name="ccedilla" horiz-adv-x="247" d="M114 -7Q77 -7 56 18T35 82Q35 129 81 186Q128 242 175 242Q211 242 211 215Q211 205 197 179Q184 152 178 152Q175 152 174 159Q174 163 176 172T179 185Q179 210 149 210Q116 210 92 168Q71
131 71 94Q71 20 133 20Q183 20 217 44T284 107Q289 112 293 112Q297 112 297 108Q297 104 294 99T287 89Q274 72 256 53T214 20Q186 4 161 -1T114 -7ZM17 -195Q1 -195 -3 -193T-8 -187Q-8 -183 22 -178Q36 -176 53 -173T83 -159T96 -128Q96 -112 85 -101T62 -78T50
-51Q50 -44 53 -36T65 -19Q79 -3 104 5H107Q112 5 117 4T124 0Q107 -8 92 -22Q89 -26 87 -30T85 -39Q85 -51 97 -64T122 -91T134 -125Q134 -144 121 -157T89 -178T50 -191T17 -195Z" />
<glyph unicode="&#xe8;" glyph-name="egrave" horiz-adv-x="262" d="M136 -8Q95 -8 66 15T36 87Q36 140 71 196Q89 225 115 242T161 260Q190 260 190 225Q190 195 150 152Q113 114 80 100Q79 96 79 92T78 82Q78 19 153 19Q196 19 233 45T299 106Q304 112 308 112Q312
112 312 108Q312 104 308 98T302 89Q286 67 269 50T222 17Q201 4 179 -2T136 -8ZM84 121Q97 128 109 137T134 160Q161 192 161 216Q161 231 152 231Q144 231 132 218T108 184Q89 145 84 121ZM436 571Q433 571 419 579T389 599T359 619T344 629Q326 643 323 649T320
659Q320 670 335 670Q346 670 353 669T367 660Q370 657 385 640T419 605T451 577L454 575Q453 572 447 571T436 571Z" />
<glyph unicode="&#xe9;" glyph-name="eacute" horiz-adv-x="262" d="M136 -8Q95 -8 66 15T36 87Q36 140 71 196Q89 225 115 242T161 260Q190 260 190 225Q190 195 150 152Q113 114 80 100Q79 96 79 92T78 82Q78 19 153 19Q196 19 233 45T299 106Q304 112 308 112Q312
112 312 108Q312 104 308 98T302 89Q286 67 269 50T222 17Q201 4 179 -2T136 -8ZM84 121Q97 128 109 137T134 160Q161 192 161 216Q161 231 152 231Q144 231 132 218T108 184Q89 145 84 121ZM410 571Q406 569 400 571T394 577L397 579Q409 584 425 596T457 622T484
646T499 660Q507 667 514 668T532 670Q539 670 544 667T548 659Q547 655 542 649T516 629Q515 628 500 619T465 599T429 580T410 571Z" />
<glyph unicode="&#xea;" glyph-name="ecircumflex" horiz-adv-x="262" d="M136 -8Q95 -8 66 15T36 87Q36 140 71 196Q89 225 115 242T161 260Q190 260 190 225Q190 195 150 152Q113 114 80 100Q79 96 79 92T78 82Q78 19 153 19Q196 19 233 45T299 106Q304 112
308 112Q312 112 312 108Q312 104 308 98T302 89Q286 67 269 50T222 17Q201 4 179 -2T136 -8ZM84 121Q97 128 109 137T134 160Q161 192 161 216Q161 231 152 231Q144 231 132 218T108 184Q89 145 84 121ZM331 570Q327 570 325 574T326 581Q332 585 348 599T383
631T416 661T434 675Q436 676 438 677T448 678Q455 678 458 675Q459 674 467 660T485 629T503 597T512 581Q514 577 514 575Q514 570 507 570Q502 570 494 578Q486 586 468 606T438 639Q434 636 421 627T392 606T360 586T337 572Q333 570 331 570Z" />
<glyph unicode="&#xeb;" glyph-name="edieresis" horiz-adv-x="262" d="M136 -8Q95 -8 66 15T36 87Q36 140 71 196Q89 225 115 242T161 260Q190 260 190 225Q190 195 150 152Q113 114 80 100Q79 96 79 92T78 82Q78 19 153 19Q196 19 233 45T299 106Q304 112 308
112Q312 112 312 108Q312 104 308 98T302 89Q286 67 269 50T222 17Q201 4 179 -2T136 -8ZM84 121Q97 128 109 137T134 160Q161 192 161 216Q161 231 152 231Q144 231 132 218T108 184Q89 145 84 121ZM454 570Q447 570 441 580T435 597Q435 607 445 616T471 632T497
639Q501 639 502 636V633Q495 622 489 615T481 599Q478 591 472 581T454 570ZM363 570Q356 570 350 580T344 597Q344 607 355 616T380 632T406 639Q410 639 411 636V633Q404 622 398 615T390 599Q387 591 381 581T363 570Z" />
<glyph unicode="&#xec;" glyph-name="igrave" horiz-adv-x="230" d="M115 -8Q81 -8 59 15T36 84Q36 139 66 196Q77 217 104 217Q120 217 120 207Q120 204 117 198Q82 131 82 83Q82 48 94 32T129 16Q164 16 199 42T267 107Q270 112 276 112Q280 112 280 108Q280
105 277 100T270 89Q257 72 239 54T197 20Q178 7 157 0T115 -8ZM393 544Q390 544 376 552T346 572T316 592T301 602Q283 616 280 622T277 632Q277 643 292 643Q303 643 310 642T324 633Q327 630 342 613T376 578T408 550L411 548Q410 545 404 544T393 544Z" />
<glyph unicode="&#xed;" glyph-name="iacute" horiz-adv-x="230" d="M115 -8Q81 -8 59 15T36 84Q36 139 66 196Q77 217 104 217Q120 217 120 207Q120 204 117 198Q82 131 82 83Q82 48 94 32T129 16Q164 16 199 42T267 107Q270 112 276 112Q280 112 280 108Q280
105 277 100T270 89Q257 72 239 54T197 20Q178 7 157 0T115 -8ZM367 544Q363 542 357 544T351 550L354 552Q366 557 382 569T414 595T441 619T456 633Q464 640 471 641T489 643Q496 643 501 640T505 632Q504 628 499 622T473 602Q472 601 457 592T422 572T386 553T367
544Z" />
<glyph unicode="&#xee;" glyph-name="icircumflex" horiz-adv-x="230" d="M115 -8Q81 -8 59 15T36 84Q36 139 66 196Q77 217 104 217Q120 217 120 207Q120 204 117 198Q82 131 82 83Q82 48 94 32T129 16Q164 16 199 42T267 107Q270 112 276 112Q280 112 280 108Q280
105 277 100T270 89Q257 72 239 54T197 20Q178 7 157 0T115 -8ZM288 543Q284 543 282 547T283 554Q289 558 305 572T340 604T373 634T391 648Q393 649 395 650T405 651Q412 651 415 648Q416 647 424 633T442 602T460 570T469 554Q471 550 471 548Q471 543 464 543Q459
543 451 551Q443 559 425 579T395 612Q391 609 378 600T349 579T317 559T294 545Q290 543 288 543Z" />
<glyph unicode="&#xef;" glyph-name="idieresis" horiz-adv-x="230" d="M115 -8Q81 -8 59 15T36 84Q36 139 66 196Q77 217 104 217Q120 217 120 207Q120 204 117 198Q82 131 82 83Q82 48 94 32T129 16Q164 16 199 42T267 107Q270 112 276 112Q280 112 280 108Q280
105 277 100T270 89Q257 72 239 54T197 20Q178 7 157 0T115 -8ZM411 543Q404 543 398 553T392 570Q392 580 402 589T428 605T454 612Q458 612 459 609V606Q452 595 446 588T438 572Q435 564 429 554T411 543ZM320 543Q313 543 307 553T301 570Q301 580 312 589T337
605T363 612Q367 612 368 609V606Q361 595 355 588T347 572Q344 564 338 554T320 543Z" />
<glyph unicode="&#xf0;" glyph-name="eth" horiz-adv-x="303" d="M101 -18Q83 -18 71 1Q57 19 57 52Q57 80 68 110T99 166Q128 205 160 224T214 243Q232 243 232 226L229 218Q227 217 222 215T209 210Q163 198 115 140Q108 130 98 110T80 67T72 26Q72 13 78 5T97
-3Q140 -3 171 31T227 122Q240 152 250 191T268 273T275 350Q275 399 267 437L254 429Q218 410 202 400T188 390L184 389Q177 389 169 393T158 402L160 405Q186 420 211 434T261 462Q237 535 171 535Q157 535 140 527T109 507T87 482Q86 481 81 481Q78 481 78 488Q78
517 113 538Q127 546 142 551T175 556Q226 556 254 535T297 478Q330 494 355 503T399 517Q403 517 403 515V513Q403 510 398 507Q376 497 353 485T303 458Q311 431 313 402T315 344Q315 305 308 257T286 160T245 72T184 7T101 -18Z" />
<glyph unicode="&#xf1;" glyph-name="ntilde" horiz-adv-x="323" d="M32 -9Q25 -9 18 0T10 16V19L19 36Q27 59 35 91T50 166Q51 176 53 187T57 214Q62 234 88 234Q96 234 96 228Q96 226 94 214T88 181Q84 158 79 131T66 73L113 152Q148 211 172 211Q187 211 188
193Q191 151 192 110T203 42T238 15Q255 15 271 22T309 48T359 106Q360 108 363 111T370 114Q374 114 374 110Q374 106 370 99T363 89Q336 49 302 22T238 -5Q194 -5 174 39T145 166Q129 149 108 115T58 28Q56 23 52 17T43 0Q39 -9 32 -9ZM435 540Q416 540 395 552T357
565Q340 565 332 559T320 547T312 541Q307 541 309 548Q314 571 329 583T364 595Q377 595 391 589T419 576T443 569Q459 569 467 575T479 588T486 594Q492 594 492 587Q492 568 474 554T435 540Z" />
<glyph unicode="&#xf2;" glyph-name="ograve" horiz-adv-x="245" d="M63 -18Q26 -18 26 36Q26 50 29 67T37 103Q47 138 67 182Q97 244 117 244Q136 244 148 223Q156 226 161 226Q189 226 189 184Q189 166 182 142T158 82Q183 59 207 59Q226 59 243 68T281 106Q283
108 287 108Q290 108 290 102Q290 96 285 89Q272 72 253 59T204 45Q175 45 152 65Q114 -18 63 -18ZM146 95Q154 113 158 132T162 173Q162 207 142 207Q123 207 123 170Q123 154 130 131T146 95ZM81 10Q95 10 116 37Q125 48 131 59T139 75Q124 92 113 111T100 150Q88
140 75 98Q62 56 62 37Q62 10 81 10ZM423 552Q420 552 406 560T376 580T346 600T331 610Q313 624 310 630T307 640Q307 651 322 651Q333 651 340 650T354 641Q357 638 372 621T406 586T438 558L441 556Q440 553 434 552T423 552Z" />
<glyph unicode="&#xf3;" glyph-name="oacute" horiz-adv-x="245" d="M63 -18Q26 -18 26 36Q26 50 29 67T37 103Q47 138 67 182Q97 244 117 244Q136 244 148 223Q156 226 161 226Q189 226 189 184Q189 166 182 142T158 82Q183 59 207 59Q226 59 243 68T281 106Q283
108 287 108Q290 108 290 102Q290 96 285 89Q272 72 253 59T204 45Q175 45 152 65Q114 -18 63 -18ZM146 95Q154 113 158 132T162 173Q162 207 142 207Q123 207 123 170Q123 154 130 131T146 95ZM81 10Q95 10 116 37Q125 48 131 59T139 75Q124 92 113 111T100 150Q88
140 75 98Q62 56 62 37Q62 10 81 10ZM397 552Q393 550 387 552T381 558L384 560Q396 565 412 577T444 603T471 627T486 641Q494 648 501 649T519 651Q526 651 531 648T535 640Q534 636 529 630T503 610Q502 609 487 600T452 580T416 561T397 552Z" />
<glyph unicode="&#xf4;" glyph-name="ocircumflex" horiz-adv-x="245" d="M63 -18Q26 -18 26 36Q26 50 29 67T37 103Q47 138 67 182Q97 244 117 244Q136 244 148 223Q156 226 161 226Q189 226 189 184Q189 166 182 142T158 82Q183 59 207 59Q226 59 243 68T281
106Q283 108 287 108Q290 108 290 102Q290 96 285 89Q272 72 253 59T204 45Q175 45 152 65Q114 -18 63 -18ZM146 95Q154 113 158 132T162 173Q162 207 142 207Q123 207 123 170Q123 154 130 131T146 95ZM81 10Q95 10 116 37Q125 48 131 59T139 75Q124 92 113 111T100
150Q88 140 75 98Q62 56 62 37Q62 10 81 10ZM318 551Q314 551 312 555T313 562Q319 566 335 580T370 612T403 642T421 656Q423 657 425 658T435 659Q442 659 445 656Q446 655 454 641T472 610T490 578T499 562Q501 558 501 556Q501 551 494 551Q489 551 481 559Q473
567 455 587T425 620Q421 617 408 608T379 587T347 567T324 553Q320 551 318 551Z" />
<glyph unicode="&#xf5;" glyph-name="otilde" horiz-adv-x="245" d="M63 -18Q26 -18 26 36Q26 50 29 67T37 103Q47 138 67 182Q97 244 117 244Q136 244 148 223Q156 226 161 226Q189 226 189 184Q189 166 182 142T158 82Q183 59 207 59Q226 59 243 68T281 106Q283
108 287 108Q290 108 290 102Q290 96 285 89Q272 72 253 59T204 45Q175 45 152 65Q114 -18 63 -18ZM146 95Q154 113 158 132T162 173Q162 207 142 207Q123 207 123 170Q123 154 130 131T146 95ZM81 10Q95 10 116 37Q125 48 131 59T139 75Q124 92 113 111T100 150Q88
140 75 98Q62 56 62 37Q62 10 81 10ZM445 551Q426 551 405 563T367 576Q350 576 342 570T330 558T322 552Q317 552 319 559Q324 582 339 594T374 606Q387 606 401 600T429 587T453 580Q469 580 477 586T489 599T496 605Q502 605 502 598Q502 579 484 565T445 551Z"
/>
<glyph unicode="&#xf6;" glyph-name="odieresis" horiz-adv-x="245" d="M63 -18Q26 -18 26 36Q26 50 29 67T37 103Q47 138 67 182Q97 244 117 244Q136 244 148 223Q156 226 161 226Q189 226 189 184Q189 166 182 142T158 82Q183 59 207 59Q226 59 243 68T281 106Q283
108 287 108Q290 108 290 102Q290 96 285 89Q272 72 253 59T204 45Q175 45 152 65Q114 -18 63 -18ZM146 95Q154 113 158 132T162 173Q162 207 142 207Q123 207 123 170Q123 154 130 131T146 95ZM81 10Q95 10 116 37Q125 48 131 59T139 75Q124 92 113 111T100 150Q88
140 75 98Q62 56 62 37Q62 10 81 10ZM441 551Q434 551 428 561T422 578Q422 588 432 597T458 613T484 620Q488 620 489 617V614Q482 603 476 596T468 580Q465 572 459 562T441 551ZM350 551Q343 551 337 561T331 578Q331 588 342 597T367 613T393 620Q397 620 398
617V614Q391 603 385 596T377 580Q374 572 368 562T350 551Z" />
<glyph unicode="&#xf7;" glyph-name="divide" horiz-adv-x="386" d="M200 326Q200 342 218 342Q235 342 235 326Q235 308 218 308Q200 308 200 326ZM55 225L58 227Q79 229 115 230T201 232H227Q332 232 375 223Q377 222 378 222T379 221Q379 217 368 217Q337 217
301 215T221 213H197Q177 213 157 212T117 209Q99 208 90 208T82 207Q76 207 66 214T55 225ZM218 109Q199 109 199 126Q199 144 218 144Q236 144 236 126Q236 109 218 109Z" />
<glyph unicode="&#xf8;" glyph-name="oslash" horiz-adv-x="245" d="M10 -114Q9 -114 6 -110T3 -103Q3 -101 4 -96T8 -81Q18 -47 38 -8Q26 6 26 36Q26 50 29 67T37 103Q46 138 67 182Q96 244 117 244Q135 244 148 223Q156 226 161 226Q171 226 180 219L216 267Q225
279 237 293T265 327Q276 337 285 337Q290 337 290 335Q290 335 288 331Q260 300 235 269T186 207Q189 198 189 184Q189 148 162 85Q179 65 205 65Q244 65 291 121Q297 128 301 121Q303 119 303 116Q303 111 298 104Q259 50 206 50Q179 50 156 68Q111 -18 63 -18Q52
-18 44 -13Q37 -28 32 -42T22 -71Q19 -80 16 -90T11 -114H10ZM146 102Q148 104 151 108T157 128Q159 142 160 153T162 173Q162 207 142 207Q122 207 122 170Q122 163 123 154T129 133Q136 104 146 102ZM81 10Q93 10 116 39Q133 63 140 80Q105 111 99 150Q94 146
88 133T75 98Q62 56 62 37Q62 10 81 10Z" />
<glyph unicode="&#xf9;" glyph-name="ugrave" horiz-adv-x="324" d="M239 -4Q211 -4 200 17T189 77Q189 82 189 87T190 98Q175 69 141 41Q104 8 76 8Q58 8 44 29Q33 49 33 69Q33 103 50 146Q68 200 96 200Q106 200 107 187Q68 120 68 80Q68 41 92 41Q143 41 203
151Q205 157 209 165T220 184Q223 193 247 193Q255 193 255 187L244 156Q236 134 233 114T230 77Q230 22 256 22Q276 22 305 47T360 106Q363 109 365 109Q369 109 369 102Q369 95 364 89Q324 36 294 16T239 -4ZM448 517Q445 517 431 525T401 545T371 565T356 575Q338
589 335 595T332 605Q332 616 347 616Q358 616 365 615T379 606Q382 603 397 586T431 551T463 523L466 521Q465 518 459 517T448 517Z" />
<glyph unicode="&#xfa;" glyph-name="uacute" horiz-adv-x="324" d="M239 -4Q211 -4 200 17T189 77Q189 82 189 87T190 98Q175 69 141 41Q104 8 76 8Q58 8 44 29Q33 49 33 69Q33 103 50 146Q68 200 96 200Q106 200 107 187Q68 120 68 80Q68 41 92 41Q143 41 203
151Q205 157 209 165T220 184Q223 193 247 193Q255 193 255 187L244 156Q236 134 233 114T230 77Q230 22 256 22Q276 22 305 47T360 106Q363 109 365 109Q369 109 369 102Q369 95 364 89Q324 36 294 16T239 -4ZM422 517Q418 515 412 517T406 523L409 525Q421 530
437 542T469 568T496 592T511 606Q519 613 526 614T544 616Q551 616 556 613T560 605Q559 601 554 595T528 575Q527 574 512 565T477 545T441 526T422 517Z" />
<glyph unicode="&#xfb;" glyph-name="ucircumflex" horiz-adv-x="324" d="M239 -4Q211 -4 200 17T189 77Q189 82 189 87T190 98Q175 69 141 41Q104 8 76 8Q58 8 44 29Q33 49 33 69Q33 103 50 146Q68 200 96 200Q106 200 107 187Q68 120 68 80Q68 41 92 41Q143
41 203 151Q205 157 209 165T220 184Q223 193 247 193Q255 193 255 187L244 156Q236 134 233 114T230 77Q230 22 256 22Q276 22 305 47T360 106Q363 109 365 109Q369 109 369 102Q369 95 364 89Q324 36 294 16T239 -4ZM343 516Q339 516 337 520T338 527Q344 531
360 545T395 577T428 607T446 621Q448 622 450 623T460 624Q467 624 470 621Q471 620 479 606T497 575T515 543T524 527Q526 523 526 521Q526 516 519 516Q514 516 506 524Q498 532 480 552T450 585Q446 582 433 573T404 552T372 532T349 518Q345 516 343 516Z"
/>
<glyph unicode="&#xfc;" glyph-name="udieresis" horiz-adv-x="324" d="M239 -4Q211 -4 200 17T189 77Q189 82 189 87T190 98Q175 69 141 41Q104 8 76 8Q58 8 44 29Q33 49 33 69Q33 103 50 146Q68 200 96 200Q106 200 107 187Q68 120 68 80Q68 41 92 41Q143 41
203 151Q205 157 209 165T220 184Q223 193 247 193Q255 193 255 187L244 156Q236 134 233 114T230 77Q230 22 256 22Q276 22 305 47T360 106Q363 109 365 109Q369 109 369 102Q369 95 364 89Q324 36 294 16T239 -4ZM466 516Q459 516 453 526T447 543Q447 553 457
562T483 578T509 585Q513 585 514 582V579Q507 568 501 561T493 545Q490 537 484 527T466 516ZM375 516Q368 516 362 526T356 543Q356 553 367 562T392 578T418 585Q422 585 423 582V579Q416 568 410 561T402 545Q399 537 393 527T375 516Z" />
<glyph unicode="&#xfd;" glyph-name="yacute" horiz-adv-x="307" d="M-180 -455Q-245 -455 -281 -422Q-321 -388 -321 -326Q-321 -126 213 9Q218 58 220 99T224 174Q217 153 208 134T189 98Q175 70 141 40Q101 8 76 8Q57 8 43 29Q32 48 32 69Q32 103 49 146Q67
200 95 200Q105 200 106 187Q67 124 67 71Q67 41 91 41Q134 41 182 123Q226 196 226 246Q226 261 250 261Q269 261 269 242Q269 206 266 150T255 16Q266 19 285 22T319 25Q357 25 357 14Q357 9 350 9Q347 9 337 9T316 10Q306 10 286 6T251 -2Q213 -290 0 -406Q-45
-430 -89 -442T-180 -455ZM-149 -426Q-60 -426 -5 -394Q177 -291 210 -9Q-294 -142 -294 -316Q-294 -426 -149 -426ZM431 561Q427 559 421 561T415 567L418 569Q430 574 446 586T478 612T505 636T520 650Q528 657 535 658T553 660Q560 660 565 657T569 649Q568
645 563 639T537 619Q536 618 521 609T486 589T450 570T431 561Z" />
<glyph unicode="&#xfe;" glyph-name="thorn" horiz-adv-x="282" d="M128 0Q109 0 93 11T66 38Q22 -87 -20 -146T-113 -223Q-152 -237 -195 -237H-197Q-230 -237 -230 -214Q-230 -196 -219 -196Q-215 -196 -195 -210Q-184 -217 -174 -220T-153 -223Q-112 -223 -65
-151T34 75Q43 102 54 140T78 220T108 303T142 375Q174 429 217 466T317 504Q328 504 339 502T361 491Q383 479 383 462Q383 447 375 447Q374 447 352 469Q332 492 302 492Q276 492 253 475T211 432T179 378Q159 335 139 273T101 153Q141 206 170 221T225 237Q279
237 279 189Q279 139 229 71Q177 0 128 0ZM131 21Q171 21 202 72Q230 116 230 160Q230 203 201 203Q166 203 92 98Q89 91 87 85T85 70Q85 61 89 53Q104 21 131 21Z" />
<glyph unicode="&#xff;" glyph-name="ydieresis" horiz-adv-x="307" d="M-180 -455Q-245 -455 -281 -422Q-321 -388 -321 -326Q-321 -126 213 9Q218 58 220 99T224 174Q217 153 208 134T189 98Q175 70 141 40Q101 8 76 8Q57 8 43 29Q32 48 32 69Q32 103 49 146Q67
200 95 200Q105 200 106 187Q67 124 67 71Q67 41 91 41Q134 41 182 123Q226 196 226 246Q226 261 250 261Q269 261 269 242Q269 206 266 150T255 16Q266 19 285 22T319 25Q357 25 357 14Q357 9 350 9Q347 9 337 9T316 10Q306 10 286 6T251 -2Q213 -290 0 -406Q-45
-430 -89 -442T-180 -455ZM-149 -426Q-60 -426 -5 -394Q177 -291 210 -9Q-294 -142 -294 -316Q-294 -426 -149 -426ZM475 560Q468 560 462 570T456 587Q456 597 466 606T492 622T518 629Q522 629 523 626V623Q516 612 510 605T502 589Q499 581 493 571T475 560ZM384
560Q377 560 371 570T365 587Q365 597 376 606T401 622T427 629Q431 629 432 626V623Q425 612 419 605T411 589Q408 581 402 571T384 560Z" />
<glyph unicode="&#x2013;" glyph-name="endash" horiz-adv-x="356" d="M101 117Q101 115 90 122T78 134Q78 135 79 135Q99 137 128 138T197 140Q240 140 271 138T322 132Q326 131 326 129Q326 126 319 126Q288 126 251 125T169 121Q135 119 118 118T101 117Z" />
<glyph unicode="&#x2014;" glyph-name="emdash" horiz-adv-x="601" d="M106 117Q102 117 105 117Q98 118 89 126T78 141Q80 143 138 146Q165 147 197 148T266 149Q315 149 363 148T458 144Q496 144 563 138Q571 137 571 134Q571 130 558 130Q436 130 333 128T146
120Q109 118 105 117Q105 117 106 117Z" />
<glyph unicode="&#x2018;" glyph-name="quoteleft" horiz-adv-x="150" d="M150 381Q139 381 126 398Q125 401 125 405T124 413Q124 441 152 489Q203 572 219 572Q220 572 220 571Q220 573 192 524Q179 499 172 478T164 438Q164 433 167 424T170 410Q170 402 164
392T150 381Z" />
<glyph unicode="&#x2019;" glyph-name="quoteright" horiz-adv-x="150" d="M110 382H109Q109 382 109 382V382Q110 382 117 394T137 429Q165 479 165 515Q165 520 163 529T160 543Q160 551 165 562T179 573Q191 573 203 555Q205 547 205 541Q205 511 177 464Q126
382 110 382Z" />
<glyph unicode="&#x201a;" glyph-name="quotesinglbase" horiz-adv-x="149" d="M11 -118Q10 -118 10 -117Q10 -119 39 -69Q53 -44 60 -23T67 16Q67 21 64 30T61 44Q61 52 67 63T81 74Q92 74 105 56V57Q106 53 106 50T107 41Q107 27 100 8T79 -35Q29 -118 11 -118Z" />
<glyph unicode="&#x201c;" glyph-name="quotedblleft" horiz-adv-x="235" d="M235 381Q222 381 211 398Q210 401 210 405T209 413Q209 443 237 489Q288 572 304 572Q305 572 305 571Q305 573 277 524Q249 474 249 438Q249 433 252 424T255 410Q255 402 249 392T235
381ZM150 381Q139 381 126 398Q125 401 125 405T124 413Q124 441 152 489Q203 572 219 572Q220 572 220 571Q220 573 192 524Q179 499 172 478T164 438Q164 433 167 424T170 410Q170 402 164 392T150 381Z" />
<glyph unicode="&#x201d;" glyph-name="quotedblright" horiz-adv-x="235" d="M195 382H194Q194 382 194 382V382Q195 383 222 429Q250 479 250 515Q250 520 247 529T244 543Q244 551 250 562T264 573Q276 573 288 555Q290 547 290 541Q290 511 262 464Q211 382
195 382ZM110 382H109Q109 382 109 382V382Q110 382 117 394T137 429Q165 479 165 515Q165 520 163 529T160 543Q160 551 165 562T179 573Q191 573 203 555Q205 547 205 541Q205 511 177 464Q126 382 110 382Z" />
<glyph unicode="&#x201e;" glyph-name="quotedblbase" horiz-adv-x="234" d="M11 -118Q10 -118 10 -117Q10 -119 39 -69Q53 -44 60 -23T67 16Q67 21 64 30T61 44Q61 52 67 63T81 74Q92 74 105 56V58Q106 58 106 52T107 41Q107 27 100 8T79 -35Q29 -118 11 -118ZM96
-118Q95 -118 95 -117Q95 -119 124 -69Q138 -44 145 -23T152 16Q152 21 149 30T146 44Q146 52 152 63T166 74Q177 74 190 56V57Q191 53 191 50T192 41Q192 27 185 8T164 -35Q114 -118 96 -118Z" />
<glyph unicode="&#x2022;" glyph-name="bullet" horiz-adv-x="392" d="M229 -9Q175 -9 133 30Q94 72 94 125Q94 179 133 220Q174 259 229 259Q284 259 323 220Q363 180 363 125Q363 72 323 30Q282 -9 229 -9Z" />
<glyph unicode="&#x2039;" glyph-name="guilsinglleft" horiz-adv-x="207" d="M155 -4L150 -1Q143 10 125 30T77 77Q75 79 75 81Q76 84 87 99T121 141Q141 164 155 180T178 204Q185 211 192 211Q197 211 197 207Q196 198 110 99Q165 13 163 5Q162 -4 155 -4Z" />
<glyph unicode="&#x203a;" glyph-name="guilsinglright" horiz-adv-x="207" d="M70 -4Q65 -4 65 0Q66 5 88 32T152 108Q97 193 99 201Q100 211 107 211L112 208Q119 197 137 177T185 130Q187 128 187 126Q185 118 141 66Q121 44 107 28T84 2Q77 -4 70 -4Z" />
</font>
</defs>
</svg>
