<?xml version="1.0" standalone="no"?>
<!DOCTYPE svg PUBLIC "-//W3C//DTD SVG 1.1//EN" "http://www.w3.org/Graphics/SVG/1.1/DTD/svg11.dtd">
<svg xmlns="http://www.w3.org/2000/svg">
<defs >
<font id="EduNSWACTFoundation" horiz-adv-x="442" ><font-face
    font-family="Edu NSW ACT Foundation"
    units-per-em="1000"
    panose-1="0 0 0 0 0 0 0 0 0 0"
    ascent="1016"
    descent="-244"
    alphabetic="0" />
<glyph unicode=" " horiz-adv-x="278" />
<glyph unicode="!" horiz-adv-x="265" d="M106 208Q95 209 86 217T78 240L133 747Q135 760 146 766T169 772Q180 772 187 766T194 747L139 240Q138 223 128 215T106 208ZM88 -11Q69 -11 56 4T40 36Q39 53 50 67T81 81Q101 81 116 67T132 36Q134 18 121 4T88 -11Z" />
<glyph unicode="&quot;" horiz-adv-x="346" d="M128 594Q117 594 108 602T100 627L112 741Q114 757 124 764T145 772Q156 772 165 763T173 737L160 623Q159 609 149 602T128 594ZM258 594Q245 594 236 602T228 627L241 746Q243 759 252 765T272 772Q285 772 294
763T302 737L291 625Q290 608 280 601T258 594Z" />
<glyph unicode="#" horiz-adv-x="866" d="M235 0Q225 0 217 8T210 33L276 645Q278 660 287 667T309 675Q320 675 329 667T336 645L271 33Q268 16 258 8T235 0ZM542 0Q530 -1 522 8T514 33L580 645Q582 660 592 667T614 675Q625 674 633 667T640 645L575 33Q574
17 564 9T542 0ZM56 202Q55 212 62 220T86 228H733Q749 228 756 220T765 202Q766 192 759 184T737 175H89Q74 175 66 183T56 202ZM86 482Q85 492 92 501T115 510H762Q778 510 786 501T796 482Q796 472 789 464T765 456H119Q103 456 95 464T86 482Z" />
<glyph unicode="$" horiz-adv-x="586" d="M178 0H56Q39 0 31 9T21 29Q20 40 29 49T52 59H175Q231 59 277 65T357 86T410 122T429 177Q429 212 409 236T353 279T270 320Q220 343 175 367T102 424T74 499Q74 552 107 591T201 653T342 676H506Q523 676 531 667T541
647Q542 636 536 627T516 617H346Q278 617 230 601T157 560T132 505Q132 481 156 457T217 412T297 371Q351 347 394 323T462 265T488 182Q488 139 473 108T429 56T363 23T277 6T178 0ZM359 734L273 -64Q272 -79 263 -87T244 -95Q234 -95 226 -86T220 -61L305 739Q307
756 316 764T335 772Q346 772 353 763T359 734Z" />
<glyph unicode="%" horiz-adv-x="594" d="M107 0Q93 0 83 10T81 37L422 638Q436 665 456 665Q465 665 473 660T484 646T481 625L140 24Q127 0 107 0ZM374 -5Q357 -5 344 3T323 30T316 80Q316 126 329 164T353 223Q368 249 394 270T457 291Q502 291 525 271T548
211Q548 180 533 143T493 72T437 17T374 -5ZM384 48Q399 48 418 64T454 106T483 157T494 202Q494 222 486 230T455 238Q438 238 426 230T403 202Q389 173 379 145T368 89Q368 71 370 60T384 48ZM108 374Q90 374 77 382T57 409T50 459Q50 505 63 543T87 602Q102
628 128 649T191 670Q236 670 259 650T282 590Q282 559 267 522T227 451T171 396T108 374ZM118 426Q133 426 152 442T188 484T217 535T228 581Q228 601 219 609T188 617Q171 617 160 609T137 581Q123 552 113 524T102 468Q102 450 104 438T118 426Z" />
<glyph unicode="&amp;" horiz-adv-x="611" d="M223 -5Q167 -5 127 23T66 94T42 183Q40 236 65 284T134 374T227 446L252 461Q339 515 386 561T431 649Q430 674 410 692T346 710Q307 710 277 698T228 665T208 618Q207 602 215 580T235 535T261 490T282 455L513
65Q525 46 526 29T514 5Q500 -3 488 4T467 26L232 419Q219 441 198 474T160 546T147 618Q152 657 178 692T249 749T353 770Q389 770 420 757T472 719T494 661Q496 622 476 584T415 508T309 431L255 399Q217 376 183 342T127 268T107 185Q109 127 145 91T238 55Q289
55 327 78T400 147T473 257Q483 271 496 276T523 272Q537 263 536 249T525 221Q478 141 435 91T342 18T223 -5Z" />
<glyph unicode="&apos;" horiz-adv-x="215" d="M128 594Q116 594 107 602T99 627L112 746Q114 759 123 765T143 772Q155 772 164 763T172 737L160 619Q159 606 149 600T128 594Z" />
<glyph unicode="(" horiz-adv-x="419" d="M255 -353Q245 -358 233 -354T213 -336Q152 -228 115 -119T65 88T59 260Q64 309 84 370T139 498T219 630T320 752Q336 768 350 771T373 767Q379 761 377 750T361 721Q256 608 198 491T126 260Q113 133 139 -8T253 -310Q261
-325 261 -336T255 -353Z" />
<glyph unicode=")" horiz-adv-x="400" d="M5 -326Q0 -319 2 -308T15 -285Q134 -160 189 -33T258 221Q269 335 237 467T127 745Q117 765 117 777T125 794Q135 799 148 791T173 760Q215 687 245 609T294 455T320 313T322 198Q314 124 280 35T189 -148T50 -324Q40
-335 27 -335T5 -326Z" />
<glyph unicode="*" horiz-adv-x="359" d="M101 583Q95 591 98 602T115 623L270 722Q283 730 293 729T309 721Q314 713 312 702T295 682L140 582Q126 574 116 575T101 583ZM298 584Q292 577 281 577T259 584L125 684Q112 693 111 703T115 720Q120 727 129 728T151
720L286 619Q298 610 300 601T298 584ZM190 532Q182 534 177 541T172 564L190 740Q192 757 201 764T219 772Q227 772 232 765T236 740L219 564Q217 548 208 540T190 532Z" />
<glyph unicode="+" horiz-adv-x="440" d="M188 68Q177 68 168 77T160 103L188 369Q190 383 197 390T214 397Q225 397 233 388T241 361L214 102Q212 83 205 76T188 68ZM33 235Q32 245 40 253T64 261H334Q350 261 358 253T367 235Q368 225 361 217T337 208H68Q52
208 43 216T33 235Z" />
<glyph unicode="," horiz-adv-x="195" d="M44 -120Q30 -120 24 -111T19 -84L31 25Q33 42 41 50T64 59Q79 59 85 50T90 21L78 -84Q77 -102 68 -111T44 -120Z" />
<glyph unicode="-" horiz-adv-x="346" d="M33 236Q33 247 40 257T64 267H240Q256 267 264 258T273 239Q273 229 267 219T244 208H68Q53 208 43 218T33 236Z" />
<glyph unicode="." horiz-adv-x="195" d="M61 -7Q45 -7 31 8T17 39Q17 58 31 70T61 83Q78 83 91 71T105 39Q105 23 92 8T61 -7Z" />
<glyph unicode="/" horiz-adv-x="399" d="M53 -46Q44 -46 36 -42T25 -29T25 -10L295 745Q300 760 309 766T328 772Q337 772 345 767T356 754T355 732L86 -23Q82 -35 73 -40T53 -46Z" />
<glyph unicode="0" horiz-adv-x="529" d="M179 -5Q146 -5 120 11T75 56T46 125T36 211Q36 261 44 314T68 420T107 518T162 599T233 655T318 675Q365 675 398 656T453 605T484 535T494 457Q494 392 475 326T423 201T349 96T264 22T179 -5ZM175 56Q203 56 237 78T305
141T368 234T414 347T432 470Q432 535 406 574T326 614Q279 614 242 587T178 513T133 413T106 303T97 202Q97 129 122 93T175 56Z" />
<glyph unicode="1" horiz-adv-x="298" d="M112 0Q100 0 91 8T83 33L149 645Q151 661 160 668T182 675Q193 675 202 668T209 645L143 27Q142 12 133 6T112 0Z" />
<glyph unicode="2" horiz-adv-x="447" d="M12 0Q1 0 -6 7T-15 24T-10 42Q18 75 53 117T124 203T192 286T247 354T279 394Q299 419 317 448T347 505T359 556Q359 571 353 583T333 604Q308 617 271 617Q229 617 183 602T106 560Q84 542 70 542T49 550Q41 559 41
571T59 600Q97 632 154 654T267 677Q291 677 314 672T356 656Q391 637 407 610T424 550Q424 513 402 467T335 364Q323 348 300 320T247 257T186 185T128 115T81 58L27 0H12ZM12 0L33 59H331Q349 59 356 50T364 30Q365 19 359 10T335 0H12Z" />
<glyph unicode="3" horiz-adv-x="457" d="M132 -5Q98 -5 64 9T13 37Q-2 49 -3 59T1 78Q8 87 19 90T45 83Q63 71 83 64T129 56Q167 56 207 71T281 113T337 177T359 257Q359 284 350 308T319 347T260 362Q227 362 194 352T125 324V385L248 419Q304 419 341 397T398
338T418 254Q418 200 392 153T324 71T232 15T132 -5ZM125 324Q108 315 96 319T78 333Q73 342 74 355T88 375Q124 397 166 427T247 489T309 548T333 593Q333 605 319 612T280 620Q247 620 200 604T101 551Q90 544 78 546T58 558Q52 567 53 580T68 604Q122 644 174
659T270 675Q305 675 332 665T374 637T392 593Q394 565 372 533T312 467T226 396T125 324Z" />
<glyph unicode="4" horiz-adv-x="455" d="M44 189L94 646Q96 663 106 669T126 675Q137 675 146 667T153 642L105 190L76 160Q60 160 52 169T44 189ZM240 0Q229 1 220 10T214 37L248 343Q250 359 260 365T282 369Q293 368 301 359T308 335L273 31Q272 13 262 6T240
0ZM461 188Q461 177 454 169T432 160H76V214H428Q442 214 451 207T461 188Z" />
<glyph unicode="5" horiz-adv-x="443" d="M156 -4Q121 -4 92 6T43 33Q25 50 25 64Q25 76 32 83T50 90Q58 90 64 88T77 80Q91 67 110 62T152 56Q208 56 251 81T318 148T343 239Q343 277 326 304T278 346T202 361Q180 361 155 356T89 340V396Q108 404 138 412T194
421Q253 421 300 399T376 337T404 239Q404 192 386 149T334 71T255 16T156 -4ZM56 368L86 643Q89 675 124 675L145 644L113 368L89 340Q80 338 72 341T60 351T56 368ZM418 647Q418 637 411 629T386 621H124V675H385Q403 675 410 667T418 647Z" />
<glyph unicode="6" horiz-adv-x="467" d="M32 134Q29 194 40 254T76 373T137 489Q151 510 173 536T221 588T274 635T320 668Q334 675 343 675Q355 675 362 668T372 651Q372 635 355 621Q293 575 253 535T191 460Q154 401 130 348T96 243T90 134H32ZM179 0Q139
0 107 18T55 67T32 134L61 290Q79 327 108 356T177 402T268 419Q339 419 373 386T407 290Q407 243 388 192T337 98T264 27T179 0ZM173 59Q203 59 234 81T291 139T332 214T348 289Q348 324 332 342T271 360Q210 360 169 330T107 254T90 160Q94 110 119 85T173 59Z"
/>
<glyph unicode="7" horiz-adv-x="410" d="M261 0Q250 0 242 7T234 31L302 652Q303 662 311 668T329 675Q347 675 354 666T360 646L293 31Q292 15 282 8T261 0ZM7 649Q6 659 13 667T37 675H330L334 621H40Q24 621 16 629T7 649Z" />
<glyph unicode="8" horiz-adv-x="426" d="M189 53Q224 53 249 72T289 120T303 177Q303 197 290 220T256 266T215 311T177 348L159 366Q143 382 120 407T79 464T61 532Q61 570 76 597T118 641T175 667T240 675Q270 675 299 669T352 652T390 622T405 580Q405 551
387 521T339 462T274 405T204 352Q159 319 133 290T95 231T83 163Q83 136 97 111T135 69T189 53ZM185 -5Q151 -5 122 7T71 41T37 93T25 158Q25 203 36 242T78 318T166 398Q197 421 229 447T288 500T332 547T349 580Q349 591 333 598T292 610T236 615Q210 615 184
609T139 585T121 536Q121 509 133 487T163 447T195 415L230 380Q264 348 294 312T344 242T364 177Q364 137 351 104T314 46T257 8T185 -5Z" />
<glyph unicode="9" horiz-adv-x="421" d="M280 0Q270 0 261 7T253 29L321 675H358Q369 675 374 668T379 649L312 29Q311 15 302 8T280 0ZM51 372Q51 422 61 475T92 573T149 647T234 675H358L352 615H234Q201 615 178 592T139 533T117 458T110 384Q110 359 119
337T153 314Q170 314 194 331T242 378T285 449T307 536H316L303 384Q275 329 234 292T153 254Q135 254 117 260T84 279T60 316T51 372Z" />
<glyph unicode=":" horiz-adv-x="196" d="M61 -7Q45 -7 31 8T17 39Q17 58 31 70T61 83Q78 83 91 71T105 39Q105 23 92 8T61 -7ZM96 261Q80 261 66 276T52 308Q52 327 66 339T96 352Q114 352 127 340T140 308Q140 291 127 276T96 261Z" />
<glyph unicode=";" horiz-adv-x="196" d="M44 -120Q30 -120 24 -111T19 -84L31 25Q33 42 41 50T64 59Q79 59 85 50T90 21L78 -84Q77 -102 68 -111T44 -120ZM96 261Q80 261 66 276T52 308Q52 327 66 339T96 352Q114 352 127 340T140 308Q140 291 127 276T96 261Z" />
<glyph unicode="&lt;" horiz-adv-x="404" d="M78 210L44 254L303 396Q319 404 329 399T343 384Q348 374 345 364T324 345L78 210ZM268 75L49 209Q35 218 33 227T38 246Q43 255 52 258T76 252L297 118Q311 109 315 98T312 76Q305 67 294 67T268 75Z" />
<glyph unicode="=" horiz-adv-x="440" d="M346 295H76Q60 295 52 303T42 322Q41 332 48 340T72 348H342Q359 348 366 340T375 322Q377 312 370 304T346 295ZM327 115H57Q41 115 33 124T24 143Q23 153 30 161T53 169H323Q340 169 348 161T358 143Q358 132 351 124T327
115Z" />
<glyph unicode="&gt;" horiz-adv-x="404" d="M320 213L62 71Q46 62 36 68T20 83Q16 93 19 103T40 122L286 257L320 213ZM287 215L67 349Q54 358 50 369T52 391Q59 400 70 400T96 392L316 258Q330 249 331 240T327 221Q322 212 312 209T287 215Z" />
<glyph unicode="?" horiz-adv-x="499" d="M89 542Q79 544 75 556T72 587Q81 672 134 724T291 777Q345 778 389 752T456 682T474 580Q467 507 438 449T351 357T200 323V383Q262 383 302 402T366 452T401 519T416 589Q420 633 402 661T351 704T279 718Q229 718 198
697T151 642T131 575Q129 556 116 548T89 542ZM169 -7Q150 -7 137 7T124 38Q124 58 137 73T169 88Q189 88 204 73T219 38Q219 20 204 7T169 -7ZM185 207Q175 209 167 217T159 239L172 359Q173 369 181 376T200 383L233 360L220 240Q217 221 207 214T185 207Z" />
<glyph unicode="@" horiz-adv-x="781" d="M240 0Q211 0 191 20T168 86Q166 120 171 165T187 255T216 327Q237 361 265 380T327 407T393 415H519L514 355H397Q366 355 328 343T265 290Q252 267 243 229T229 153T227 91Q228 77 230 66T246 55Q257 55 275 66T318
104T377 176Q411 223 440 272T499 384H529Q507 314 478 244T409 120Q387 89 361 62T305 17T240 0ZM252 -140Q186 -140 140 -120T65 -61T25 30T17 147Q21 209 36 276T83 401T164 497Q196 521 243 536T345 558T453 565Q593 565 662 498T731 283Q730 229 709 178T655
87T589 24T531 0Q499 0 482 23T462 89Q461 107 461 129T465 173L491 415H526Q540 415 545 409T549 388L524 157Q520 114 520 86T533 57Q548 57 570 76T615 129T654 208T674 304Q678 371 651 416T574 483T454 506Q404 506 355 500T265 480T198 446Q165 420 143 382T108
301T87 218T77 146Q71 76 85 25T139 -53T244 -81Q276 -81 314 -72T390 -34Q407 -22 419 -19T440 -26Q451 -39 443 -58T403 -100Q375 -119 338 -129T252 -140Z" />
<glyph unicode="A" horiz-adv-x="504" d="M-15 0Q-28 4 -32 16T-27 48L285 744Q291 758 298 765T321 772Q338 772 344 764T352 743L316 693L26 29Q20 15 10 6T-15 0ZM162 391L184 442H374L384 391H162ZM435 0Q416 -1 409 9T400 33L307 696L352 743L460 40Q462
24 457 13T435 0Z" />
<glyph unicode="B" horiz-adv-x="575" d="M523 575Q519 546 509 519T476 469T410 428T298 398T124 381L128 424Q233 428 298 442T397 477T446 524T463 580Q468 621 435 655T328 707T137 718L144 772Q338 781 436 727T523 575ZM523 216Q516 149 459 101T301 26T65
0L70 55Q258 55 357 102T463 225Q469 277 428 313T305 366T105 371L108 423Q247 433 342 412T484 341T523 216ZM37 37L110 740Q112 757 120 764T144 772L170 735L96 34L65 0Q52 0 44 11T37 37Z" />
<glyph unicode="C" horiz-adv-x="567" d="M251 -5Q167 -5 117 43T52 183T63 404Q83 508 121 591T219 722T361 771Q408 771 441 762T497 737T537 707Q545 700 549 688T542 662Q530 649 516 652T493 662Q474 676 441 694T365 713Q297 713 249 672T170 560T122 397Q91
222 126 136T246 50Q294 50 331 69T395 118T437 177Q447 197 458 206T485 207Q500 199 500 186T487 149Q469 112 434 77T352 18T251 -5Z" />
<glyph unicode="D" horiz-adv-x="581" d="M536 404Q522 278 474 188T344 49T143 0H67L74 55H139Q294 55 376 146T478 409Q488 499 460 569T371 678T221 718H139L146 772H213Q325 772 401 726T513 598T536 404ZM37 32L112 740Q114 754 120 763T146 772L171 735L96
30L67 0Q51 0 43 9T37 32Z" />
<glyph unicode="E" horiz-adv-x="545" d="M37 32L112 740Q114 754 120 763T146 772L171 735L96 30L67 0Q51 0 43 9T37 32ZM472 29Q472 18 465 9T440 0H67L72 55H440Q457 55 464 48T472 29ZM486 416Q486 406 477 397T450 388H106L112 443H453Q470 443 478 435T486
416ZM548 745Q548 735 541 727T516 718H139L146 772H516Q533 772 540 764T548 745Z" />
<glyph unicode="F" horiz-adv-x="518" d="M67 0Q51 0 43 9T37 32L112 740Q114 754 120 763T146 772L171 735L96 30Q95 21 91 11T67 0ZM475 416Q475 406 468 397T442 388H107L114 443H442Q460 443 467 435T475 416ZM548 745Q548 735 541 727T516 718H140L146 772H516Q533
772 540 764T548 745Z" />
<glyph unicode="G" horiz-adv-x="613" d="M222 -5Q152 -5 109 48T52 194T61 405Q74 475 101 540T169 658T264 741T384 772Q425 772 460 760T523 728T565 688Q574 676 574 663T562 640Q552 631 541 632T519 644Q506 658 486 674T437 703T375 715Q326 715 284 689T208
617T152 515T119 397Q103 297 111 219T150 95T233 50Q273 50 306 75T368 145T427 252T488 388Q491 394 493 399T498 408T507 414T519 416V343Q488 250 455 184T385 76T308 15T222 -5ZM482 0Q465 1 461 12T457 43L493 384L519 416Q534 416 544 408T552 384L517 43Q515
25 509 12T482 0Z" />
<glyph unicode="H" horiz-adv-x="614" d="M67 0Q51 0 43 9T37 32L112 740Q114 754 122 763T146 772Q161 772 167 762T171 735L96 30Q95 21 91 11T67 0ZM109 388L115 443H506L500 388H109ZM466 0Q445 0 440 11T436 32L512 746Q513 755 519 763T542 772Q559 772
566 763T571 738L495 26Q494 18 489 9T466 0Z" />
<glyph unicode="I" horiz-adv-x="261" d="M90 0Q74 0 67 9T61 32L135 740Q137 754 144 763T170 772Q188 772 192 762T195 735L120 30Q119 21 115 11T90 0Z" />
<glyph unicode="J" horiz-adv-x="432" d="M-6 122Q4 132 16 130T38 114Q50 99 64 86T97 64T141 55Q180 55 208 73T253 133T278 244L329 745Q331 759 338 768T362 777Q380 777 385 767T388 740L337 244Q324 112 278 56T141 0Q109 0 82 10T34 37T-6 77Q-14 88 -15
100T-6 122Z" />
<glyph unicode="K" horiz-adv-x="535" d="M548 772Q559 772 566 765T573 746Q572 738 567 730T551 713L203 409L135 413L134 428L511 757Q530 774 548 772ZM469 0Q458 0 449 7T432 23L135 410L134 423L202 421L486 50Q493 41 495 34T495 20Q494 10 486 5T469 0ZM68
0Q52 0 45 12T38 38L113 740Q115 754 122 763T147 772Q164 772 169 762T172 735L97 37Q96 25 92 13T68 0Z" />
<glyph unicode="L" horiz-adv-x="486" d="M37 32L112 740Q114 754 121 763T146 772Q164 772 168 762T171 735L96 30L67 0Q51 0 43 9T37 32ZM455 31Q455 19 448 10T424 0H67L72 59H423Q439 59 447 52T455 31Z" />
<glyph unicode="M" horiz-adv-x="914" d="M384 23L140 674L146 772Q160 772 166 765T178 741L425 80L416 0Q403 0 395 7T384 23ZM67 0Q51 0 43 9T37 32L112 740Q115 772 146 772L170 727L96 33Q95 23 91 12T67 0ZM765 0Q749 0 743 11T737 32L804 676L847 772Q863
772 868 762T871 735L796 30Q795 21 790 11T765 0ZM443 21Q438 13 433 7T416 0L407 74L815 753Q821 763 827 767T847 772L841 687L443 21Z" />
<glyph unicode="N" horiz-adv-x="694" d="M516 21L141 706L145 772Q161 772 169 766T183 748L551 80L549 0Q537 0 529 5T516 21ZM67 0Q51 0 43 9T37 32L112 740Q114 754 120 763T145 772L170 727L96 33Q95 23 91 12T67 0ZM626 772Q643 772 648 762T651 735L576
30Q575 16 570 8T549 0L519 57L592 740Q594 754 601 763T626 772Z" />
<glyph unicode="O" horiz-adv-x="590" d="M208 -5Q171 -5 145 22T102 95T78 202T70 327Q70 406 86 485T135 629T219 733T342 772Q414 772 462 736T531 642T545 517Q538 450 520 378T472 237T403 114T314 27T208 -5ZM203 50Q250 50 291 80T365 161T423 271T464
393T485 505Q495 599 459 658T336 718Q282 718 244 684T181 592T144 466T129 328Q128 273 132 223T146 134T170 73T203 50Z" />
<glyph unicode="P" horiz-adv-x="517" d="M533 561Q528 512 505 477T442 416T350 377T236 356T105 349L109 403Q187 403 251 411T364 438T440 488T474 567Q479 615 442 651T330 706T143 718L146 772Q269 779 358 756T494 683T533 561ZM67 -5Q51 -5 43 7T37 32L112
740Q114 755 121 763T146 772L171 735L96 30Q95 21 91 8T67 -5Z" />
<glyph unicode="Q" horiz-adv-x="590" d="M448 -49Q439 -58 424 -55T397 -40L236 113Q221 127 218 140T223 164Q232 175 248 172T279 154L440 1Q452 -11 455 -26T448 -49ZM208 -5Q171 -5 145 22T102 95T78 202T70 327Q70 406 86 485T135 629T219 733T342 772Q396
772 436 752T503 695T540 613T545 517Q538 450 519 378T469 237T399 114T311 27T208 -5ZM203 50Q253 50 295 80T370 161T426 271T465 393T485 505Q492 568 478 616T429 691T336 718Q282 718 244 684T181 592T144 466T129 328Q128 273 132 223T146 134T170 73T203
50Z" />
<glyph unicode="R" horiz-adv-x="554" d="M523 577Q519 530 486 491T397 424T266 379T105 361L109 413Q206 414 284 437T410 498T463 583Q469 630 436 662T332 710T154 718L146 772Q273 778 359 759T487 694T523 577ZM434 0Q427 0 417 5T397 23L114 388L183 397L446
59Q457 45 459 35T460 18Q458 11 451 6T434 0ZM67 0Q51 0 44 12T38 39L112 740Q114 754 120 763T146 772L171 735L97 37Q96 24 92 12T67 0Z" />
<glyph unicode="S" horiz-adv-x="500" d="M182 -5Q121 -5 75 23T18 97Q14 111 17 123T33 140Q46 144 57 139T72 118Q80 90 112 70T201 50Q243 50 281 66T345 115T377 201Q382 260 348 305T234 396Q199 416 168 439T114 489T80 546T71 613Q76 657 104 694T183 754T311
777Q381 777 421 748T476 677Q482 661 480 649T465 632Q453 628 442 633T426 650Q415 682 387 702T314 722Q229 722 181 691T128 608Q125 575 142 547T195 492T279 438Q327 411 364 376T421 295T435 192Q430 142 409 105T355 44T278 7T182 -5Z" />
<glyph unicode="T" horiz-adv-x="438" d="M173 0Q157 0 152 13T147 44L221 741H280L207 40Q205 26 198 13T173 0ZM21 743Q21 754 27 763T51 772H448Q466 772 473 763T480 743Q480 732 475 723T451 713H55Q37 713 29 722T21 743Z" />
<glyph unicode="U" horiz-adv-x="605" d="M141 -5Q88 -5 61 48T46 217L105 737Q107 751 115 761T138 772Q152 772 159 761T165 735L106 214Q102 176 100 138T107 75T145 50Q160 50 187 68T248 120T318 205T388 318T448 457T489 620L503 618L492 447Q454 341 408
258T313 116T221 26T141 -5ZM456 -1Q444 -1 435 7T426 32L503 744Q504 755 510 763T532 772Q549 772 556 764T562 741L486 26Q485 13 476 6T456 -1Z" />
<glyph unicode="V" horiz-adv-x="533" d="M249 30Q244 17 239 9T216 0L198 46L255 203L470 743Q477 758 485 765T511 772Q525 772 532 762T531 734L249 30ZM182 33L74 741Q72 755 78 763T100 772Q120 772 126 763T133 744L216 201L235 44L216 0Q200 0 192 11T182 33Z" />
<glyph unicode="W" horiz-adv-x="937" d="M652 30Q647 17 641 9T618 0L621 81L668 223L874 743Q882 760 889 766T912 772Q925 772 934 763T935 734L652 30ZM182 33L74 741Q72 755 78 763T100 772Q120 772 126 763T133 744L210 225L227 75L215 0Q202 0 193 9T182
33ZM249 31Q246 21 240 11T215 0V77L265 225L467 744Q471 754 479 763T501 772V701L468 588L249 31ZM586 30L503 584L489 707L501 772Q523 772 529 763T537 744L614 228L628 77L618 0Q603 0 596 9T586 30Z" />
<glyph unicode="X" horiz-adv-x="520" d="M-1 7Q-10 13 -12 24T-7 45L238 417L246 418L466 757Q472 766 480 769T498 772T513 766Q521 760 522 749T516 723L277 358H270L44 15Q38 7 30 3T14 0T-1 7ZM434 4Q426 0 417 0T400 6T387 24L234 366L71 729Q64 746 66
756T80 771Q90 776 105 772T127 750L279 410L444 42Q451 29 447 19T434 4Z" />
<glyph unicode="Y" horiz-adv-x="580" d="M90 772Q107 779 117 769T132 748L317 345L278 286L76 728Q70 742 72 754T90 772ZM107 7Q98 13 97 24T102 45L518 754Q526 768 536 771T557 769Q571 762 574 750T569 723L152 14Q147 5 139 2T122 0T107 7Z" />
<glyph unicode="Z" horiz-adv-x="533" d="M8 46L484 756L505 772Q516 772 524 766T534 748T529 723L56 15L34 0Q21 0 13 7T3 25T8 46ZM460 30Q461 19 455 10T431 0H34L55 59H428Q445 59 452 50T460 30ZM77 743Q76 754 82 763T107 772H505L484 713H110Q93 713 86
722T77 743Z" />
<glyph unicode="[" horiz-adv-x="312" d="M173 734L61 -324Q60 -333 56 -344T32 -356Q14 -356 7 -347T0 -324L113 740Q115 754 123 763T150 772Q169 772 172 762T173 734ZM29 -356L32 -303H197Q214 -303 221 -311T229 -329Q230 -339 223 -347T201 -356H29ZM145
719L147 772H311Q328 772 336 764T345 745Q345 735 338 727T315 719H145Z" />
<glyph unicode="\" horiz-adv-x="399" d="M87 745L356 -10Q361 -21 358 -29T346 -41T328 -46Q318 -46 310 -41T296 -23L26 732Q22 745 25 753T37 767T53 772Q64 772 73 766T87 745Z" />
<glyph unicode="]" horiz-adv-x="312" d="M260 740L147 -324Q146 -338 139 -347T112 -356Q93 -356 90 -344T89 -308L200 731Q202 748 206 760T229 772Q247 772 254 763T260 740ZM112 -356H-49Q-65 -356 -73 -348T-83 -329Q-83 -319 -75 -311T-52 -303H116L112
-356ZM226 719H65Q49 719 41 727T31 745Q30 755 38 763T62 772H229L226 719Z" />
<glyph unicode="^" horiz-adv-x="488" d="M126 349Q112 338 101 340T82 350Q75 358 75 369T86 390L244 522Q256 533 269 532T290 522L400 391Q409 381 408 369T397 348Q389 341 377 341T355 352L239 491L289 486L126 349Z" />
<glyph unicode="_" horiz-adv-x="512" d="M378 -91H34Q19 -91 11 -83T1 -65Q0 -54 7 -46T31 -38H374Q391 -38 399 -46T409 -64Q410 -74 402 -82T378 -91Z" />
<glyph unicode="`" horiz-adv-x="295" d="M182 811L240 697Q252 672 236 664Q229 660 218 663T198 680L127 789Q118 802 119 811T128 827T145 833Q155 833 165 828T182 811Z" />
<glyph unicode="a" horiz-adv-x="397" d="M106 -5Q84 -5 62 7T26 52T12 144Q12 184 23 231T56 320T111 389T191 416H301L295 356H195Q163 356 140 334T101 279T79 211T71 150Q71 92 81 74T115 55Q133 55 158 75T215 142T277 266L266 134Q234 77 194 36T106 -5ZM266
0Q247 0 243 11T239 32L280 416H316Q324 416 330 406T336 384L298 37Q297 25 293 13T266 0Z" />
<glyph unicode="b" horiz-adv-x="394" d="M11 26L88 738Q90 756 100 764T122 772Q133 772 141 764T147 738L69 0H32Q22 0 16 8T11 26ZM336 271Q336 231 325 184T292 95T237 27T157 0H43L49 59H153Q185 59 208 81T247 136T269 204T277 265Q277 323 267 341T233
360Q216 360 190 338T132 268T69 141L82 273Q103 313 128 346T181 399T242 419Q265 419 286 407T322 363T336 271Z" />
<glyph unicode="c" horiz-adv-x="340" d="M114 -5Q90 -5 66 6T27 43T12 113Q12 163 22 216T53 314T110 388T195 416Q219 416 246 412T291 404Q304 401 307 391T304 367Q297 352 285 350T261 349Q250 351 231 353T195 356Q162 356 139 333T102 274T80 199T72 125Q71
100 80 78T114 55Q129 55 149 72T192 119T232 183Q237 193 250 192T270 188Q276 184 282 175T284 156Q263 114 235 77T177 18T114 -5Z" />
<glyph unicode="d" horiz-adv-x="404" d="M268 0Q256 0 247 8T239 32L315 747Q317 761 326 766T345 772Q357 772 366 764T374 741L298 26Q297 13 288 7T268 0ZM12 144Q12 184 23 231T56 320T111 389T191 416H305L299 356H195Q163 356 140 334T101 279T79 211T71
150Q71 92 81 74T115 55Q133 55 158 75T215 143T277 267L266 137Q245 99 220 67T167 15T106 -5Q84 -5 62 7T26 52T12 144Z" />
<glyph unicode="e" horiz-adv-x="358" d="M109 -5Q87 -5 65 6T28 46T15 127Q17 180 28 231T63 324T122 391T210 416Q256 416 288 397T317 341Q314 312 289 283T226 228T143 188T58 172L68 230Q97 230 129 243T190 276T237 312T257 337Q258 345 248 350T221 356Q178
356 150 335T106 279T83 201T75 116Q74 91 85 73T113 55Q135 55 156 69T194 103T220 134Q231 149 244 151T267 146Q277 139 275 124T255 83Q244 65 222 45T170 10T109 -5Z" />
<glyph unicode="f" horiz-adv-x="266" d="M78 0Q62 0 55 11T48 33L110 626Q116 679 135 711T183 757T240 772Q257 772 273 770T305 763Q313 760 320 751T321 726Q314 709 302 708T282 708Q273 711 264 712T244 713Q214 713 194 691T169 615L107 32Q106 22 100
11T78 0ZM-30 390Q-30 401 -24 408T0 416H232Q249 416 256 409T264 390Q264 379 259 371T235 362H4Q-14 362 -22 370T-30 390Z" />
<glyph unicode="g" horiz-adv-x="398" d="M12 144Q12 184 23 231T56 320T111 389T191 416H299L293 356H195Q163 356 140 334T101 279T79 211T71 150Q71 92 81 74T115 55Q133 55 159 80T217 157T280 286L267 147Q246 109 221 74T167 17T106 -5Q89 -5 73 1T42 24T20
70T12 144ZM-29 -285Q-20 -274 -9 -274T8 -277Q22 -283 40 -290T76 -297Q106 -297 131 -290T173 -266Q200 -240 210 -198T225 -113L280 416H307Q322 416 330 409T337 387L284 -113Q279 -157 271 -194T250 -261T214 -312Q192 -334 159 -345T81 -356Q49 -356 21 -347T-24
-326Q-34 -318 -35 -307T-29 -285Z" />
<glyph unicode="h" horiz-adv-x="404" d="M277 0Q258 0 254 11T251 37L277 278Q281 312 271 337T240 362Q215 362 190 344T137 279T72 152L81 283Q119 347 157 384T244 421Q278 421 299 400T330 345T336 278L309 37Q308 25 304 13T277 0ZM38 0Q27 0 18 7T11 27L87
740Q89 757 99 764T121 772Q133 772 140 765T146 740L70 27Q69 13 59 7T38 0Z" />
<glyph unicode="i" horiz-adv-x="189" d="M48 0Q36 0 28 8T20 33L57 384Q59 400 69 408T90 416Q101 416 109 407T116 380L80 33Q78 17 69 9T48 0ZM99 506Q83 506 71 519T58 548Q58 565 70 576T99 588Q115 588 126 577T138 548Q138 532 127 519T99 506Z" />
<glyph unicode="j" horiz-adv-x="204" d="M-235 -285Q-229 -278 -222 -276T-209 -274T-198 -277Q-185 -283 -166 -290T-131 -297Q-100 -297 -74 -291T-32 -268Q-18 -255 -10 -235T4 -193T13 -149T18 -112L70 391Q71 401 79 409T97 417Q113 417 122 411T129 388L77
-112Q74 -139 70 -167T58 -222T38 -272T7 -312Q-15 -334 -47 -345T-126 -356Q-158 -356 -186 -347T-230 -326Q-237 -321 -240 -314T-242 -300T-235 -285ZM115 506Q99 506 87 518T74 549Q74 566 86 577T115 588Q132 588 142 577T153 549Q153 531 143 519T115 506Z"
/>
<glyph unicode="k" horiz-adv-x="374" d="M37 0Q25 0 17 8T11 31L87 739Q89 754 96 763T116 772Q130 772 139 765T146 738L70 31Q69 14 60 7T37 0ZM283 -1Q271 -1 263 6T246 21L105 172Q98 180 97 190T100 210T110 221Q183 244 217 262T261 296T271 327Q271 338
263 350T238 362Q225 362 207 352T167 322T120 270T67 197L77 291Q109 338 140 366T199 408T246 421Q274 421 294 405T325 365T330 312Q327 297 312 274T259 225T149 178L153 208L302 50Q310 41 310 33T309 19Q308 9 300 4T283 -1Z" />
<glyph unicode="l" horiz-adv-x="206" d="M59 0Q47 0 37 8T29 32L105 747Q107 761 115 766T133 772Q146 772 156 764T164 741L88 26Q87 13 78 7T59 0Z" />
<glyph unicode="m" horiz-adv-x="612" d="M39 0Q20 0 16 11T12 36L49 384Q51 401 60 408T87 416Q102 416 106 408T108 384L70 36Q69 25 65 13T39 0ZM261 0Q242 0 238 11T235 36L261 278Q263 294 261 313T251 347T228 362Q203 362 179 339T128 267T63 135L74 279Q98
321 122 353T172 403T232 421Q267 421 287 400T316 345T321 278L293 36Q292 25 287 13T261 0ZM485 0Q466 0 462 11T459 36L485 278Q487 294 485 313T474 347T451 362Q414 362 378 310T286 135L297 279Q322 321 345 353T396 403T455 421Q490 421 510 400T539 345T544
278L517 36Q516 25 511 13T485 0Z" />
<glyph unicode="n" horiz-adv-x="397" d="M37 0Q18 0 13 11T10 37L49 384Q51 400 60 408T87 416Q102 416 106 408T108 384L68 37Q66 25 63 13T37 0ZM267 0Q248 0 244 11T241 37L270 278Q272 294 269 313T257 347T233 362Q196 362 158 310T63 135L75 268Q109 339
148 380T236 421Q271 421 293 400T324 345T329 278L299 37Q298 25 294 13T267 0Z" />
<glyph unicode="o" horiz-adv-x="373" d="M114 -5Q90 -5 66 6T27 43T12 113Q12 163 22 216T53 314T110 388T195 416Q237 416 268 401T316 358T329 295Q325 263 312 223T277 143T230 70T174 16T114 -5ZM114 55Q131 55 155 78T203 137T246 214T268 293Q272 324 253
340T195 356Q162 356 139 333T102 274T80 199T72 125Q71 100 80 78T114 55Z" />
<glyph unicode="p" horiz-adv-x="386" d="M2 -356Q-9 -356 -18 -349T-26 -328L51 388Q53 402 63 409T84 416Q96 416 104 409T110 388L33 -329Q32 -342 23 -349T2 -356ZM336 271Q336 202 315 140T254 39T157 0H39L45 59H153Q183 59 206 76T245 121T269 187T277
265Q277 323 267 342T233 362Q202 362 160 313T71 147L83 285Q105 323 129 353T182 401T242 419Q265 419 286 407T322 363T336 271Z" />
<glyph unicode="q" horiz-adv-x="399" d="M378 -221Q387 -225 392 -235T392 -259Q387 -275 374 -298T340 -338T291 -356Q248 -356 227 -322T214 -215L284 416H310Q330 416 334 406T337 388L273 -227Q269 -258 272 -278T293 -299Q307 -299 317 -283T341 -233Q346
-220 357 -218T378 -221ZM12 144Q12 184 23 231T56 320T111 389T191 416H289L283 356H195Q163 356 140 334T101 279T79 211T71 150Q71 92 81 74T115 55Q141 55 186 108T279 278L267 145Q246 107 221 73T167 17T106 -5Q84 -5 62 7T26 52T12 144Z" />
<glyph unicode="r" horiz-adv-x="337" d="M37 0Q25 0 17 8T10 32L46 384Q48 400 58 408T80 416Q91 416 99 407T106 380L69 32Q68 16 58 8T37 0ZM304 301Q294 295 281 298T266 311Q262 331 254 346T230 362Q193 362 155 310T61 135L72 266Q97 317 121 351T174 403T234
421Q270 421 292 398T322 341Q326 324 320 315T304 301Z" />
<glyph unicode="s" horiz-adv-x="352" d="M160 -5Q122 -5 87 11T33 40Q18 52 11 63T12 88Q21 102 32 104T57 96Q71 86 100 71T163 55Q185 55 201 64T222 95Q227 115 217 131T194 158Q178 171 158 182T113 209Q86 226 66 247T37 292T37 343Q48 384 82 400T165 417Q189
417 217 409T274 383Q291 372 298 356T298 328Q290 315 278 316T251 328Q235 339 212 349T157 359Q135 359 117 353T94 328Q89 310 102 294T150 257Q173 244 197 228T244 192Q261 178 274 152T280 87Q276 57 258 37T215 6T160 -5Z" />
<glyph unicode="t" horiz-adv-x="308" d="M108 0Q97 0 87 7T78 29L157 750Q159 762 167 768T185 775Q198 775 208 767T216 741L138 27Q136 13 128 7T108 0ZM-4 390Q-4 401 2 408T26 416H279Q297 416 304 409T311 390Q311 379 306 371T283 362H30Q12 362 4 370T-4 390Z" />
<glyph unicode="u" horiz-adv-x="404" d="M264 0Q249 0 245 8T241 32L279 384Q280 394 286 405T311 416Q330 416 334 405T337 381L301 32Q299 16 290 8T264 0ZM112 -5Q78 -5 56 14T24 67T19 138L48 384Q49 394 54 405T78 416Q98 416 102 405T105 381L78 138Q75
102 84 78T115 53Q140 53 165 74T221 143T287 273L277 143Q252 101 227 68T173 15T112 -5Z" />
<glyph unicode="v" horiz-adv-x="362" d="M87 -5Q62 -5 47 13T25 61T21 121L49 387Q51 401 60 408T83 416Q95 416 102 409T108 384L81 121Q79 101 80 86T86 64T97 56Q118 56 150 94T217 206T282 383Q286 400 295 408T320 416Q337 416 341 405T341 373Q301 228
256 146T167 29T87 -5Z" />
<glyph unicode="w" horiz-adv-x="598" d="M87 -5Q62 -5 46 13T24 61T21 121L49 384Q51 400 62 408T83 416Q95 416 102 407T108 380L81 121Q80 108 79 93T81 67T97 56Q114 56 135 76T180 136T231 238T284 383Q288 395 295 405T318 416L292 255Q239 116 190 56T87
-5ZM322 -5Q285 -5 270 31T263 121L283 257L318 416Q330 416 336 407T341 380L316 121Q315 108 314 93T317 67T333 56Q348 56 369 74T416 132T468 233T517 383Q522 399 530 407T555 416Q573 416 577 405T576 373Q543 259 510 185T443 70T380 12T322 -5Z" />
<glyph unicode="x" horiz-adv-x="340" d="M5 0Q-5 0 -16 8T-27 26Q-27 32 -24 38T-11 58L121 235L132 241L252 402Q258 410 265 413T278 416Q289 416 299 409T310 392Q310 380 296 361L165 188L154 182L33 21Q18 0 5 0ZM234 0Q227 0 221 5T206 25L119 184L20 367Q18
372 15 377T12 388Q12 399 22 407T43 416Q52 416 59 410T72 396L160 232L254 58Q258 51 262 43T266 29Q266 16 256 8T234 0Z" />
<glyph unicode="y" horiz-adv-x="407" d="M115 -5Q81 -5 59 14T28 67T23 138L50 381Q51 391 57 403T82 416Q100 417 105 406T108 381L82 138Q78 106 87 80T119 53Q144 53 169 76T223 149T289 280L278 139Q241 76 203 36T115 -5ZM-23 -285Q-17 -278 -11 -276T2
-273T14 -277Q26 -283 46 -290T89 -297Q129 -297 157 -284T204 -232T230 -112L283 391Q284 401 292 409T314 417Q326 417 335 411T342 388L290 -112Q281 -202 257 -255T193 -332T93 -356Q56 -356 28 -347T-18 -326Q-28 -318 -29 -307T-23 -285Z" />
<glyph unicode="z" horiz-adv-x="333" d="M-17 52L254 405L274 416Q286 416 294 409T304 390T297 367L24 13L6 0Q-5 0 -13 8T-23 29T-17 52ZM268 30Q268 19 263 10T240 0H6L48 59H236Q254 59 261 50T268 30ZM13 386Q13 397 19 406T43 416H274L233 356H46Q29 356
21 366T13 386Z" />
<glyph unicode="{" horiz-adv-x="416" d="M72 244Q74 258 84 266T110 285Q139 307 156 329T177 377Q181 399 178 434T172 511T169 589T184 653Q199 683 229 706T292 744T348 766Q368 773 387 767T409 747Q412 735 402 724T377 707Q337 697 297 682T239 634Q226
610 225 575T229 501T238 428T240 369Q234 330 218 300T153 234Q191 187 200 151T207 75Q206 51 196 18T173 -52T153 -124T149 -188Q154 -220 168 -240T203 -275T247 -307Q261 -315 265 -330T259 -354Q250 -363 236 -362T207 -349Q186 -333 160 -309T114 -254T88
-190Q84 -161 91 -124T109 -49T131 24T144 84Q147 134 102 192Q92 206 82 217T72 244Z" />
<glyph unicode="|" horiz-adv-x="216" d="M31 -356Q15 -356 7 -347T0 -324L120 798Q122 815 132 823T153 832Q165 832 173 823T179 794L61 -327Q60 -336 56 -346T31 -356Z" />
<glyph unicode="}" horiz-adv-x="409" d="M299 203Q299 189 288 181T261 162Q233 140 217 118T195 70Q192 53 193 23T197 -45T202 -120T201 -190T188 -244Q173 -273 143 -296T79 -334T23 -356Q3 -363 -16 -357T-38 -337Q-41 -325 -31 -313T-5 -297Q35 -287 75
-271T132 -223Q145 -199 145 -159T142 -73T134 13T133 77Q139 116 155 147T219 213Q182 260 173 296T165 372Q167 396 177 423T199 480T218 540T222 598Q218 630 204 650T169 685T124 716Q111 725 107 740T112 764Q121 773 135 772T164 759Q186 743 211 719T257
665T283 600Q288 571 281 540T263 477T241 417T228 362Q227 337 237 310T270 254Q281 240 291 229T299 203Z" />
<glyph unicode="~" horiz-adv-x="440" d="M253 188Q237 188 215 199T170 221T128 233Q108 233 95 225T69 210Q59 206 51 210T39 224T33 240Q32 250 40 255T63 267Q79 274 95 280T134 286Q153 286 175 275T220 252T259 241Q286 241 300 250T330 267Q340 272 348
268T361 255T367 240Q368 230 361 224T339 210Q320 203 301 196T253 188Z" />
<glyph unicode="&#xa0;" horiz-adv-x="278" />
<glyph unicode="&#xa1;" horiz-adv-x="233" d="M154 504L101 25Q100 12 90 6T68 0Q56 -1 48 5T40 25L94 504Q96 521 106 529T127 536Q139 535 147 527T154 504ZM154 695Q138 695 126 706T112 733Q111 748 122 760T150 772Q166 772 177 760T189 733Q190 719 181
707T154 695Z" />
<glyph unicode="&#xa2;" horiz-adv-x="340" d="M101 -187Q85 -187 77 -177T70 -154L163 538Q165 555 175 563T196 571Q207 571 216 562T222 533L131 -157Q130 -166 126 -176T101 -187ZM114 -5Q90 -5 66 6T27 43T12 113Q12 163 22 216T53 314T110 388T195 416Q219
416 246 412T291 404Q304 401 307 391T304 367Q297 352 285 350T261 349Q250 351 231 353T195 356Q162 356 139 333T102 274T80 199T72 125Q71 100 80 78T114 55Q129 55 149 72T192 119T232 183Q237 193 250 192T270 188Q276 184 282 175T284 156Q263 114 235 77T177
18T114 -5Z" />
<glyph unicode="&#xa3;" horiz-adv-x="518" d="M70 390Q70 401 76 408T100 416H353Q371 416 378 409T385 390Q385 379 380 371T356 362H103Q86 362 78 370T70 390ZM49 0Q34 0 27 6T21 22T31 45Q33 48 51 69T96 124T147 197T187 277Q198 307 199 345T194 415T178
459Q149 496 129 529T99 591T89 645Q89 678 106 705T157 751Q177 762 199 767T246 772Q302 772 359 750T454 695Q474 678 474 666T465 645Q458 637 444 637T407 655Q377 681 331 696T242 712Q225 712 209 709T181 699Q154 683 154 651Q154 617 179 573T232 489Q246
470 254 441T263 378T260 312T246 253Q228 205 199 159T139 73T83 0H49ZM53 0L75 59H372Q390 59 396 50T404 30Q405 19 399 10T375 0H53Z" />
<glyph unicode="&#xa5;" horiz-adv-x="580" d="M413 295H144Q128 295 119 303T109 322Q108 332 116 340T140 348H410Q426 348 434 340T443 322Q444 312 437 304T413 295ZM394 163H125Q109 163 100 171T91 190Q90 200 97 208T121 216H391Q407 216 415 208T425 190Q425
180 418 172T394 163ZM90 772Q107 779 117 769T132 748L317 345L278 286L76 728Q70 742 72 754T90 772ZM107 7Q98 13 97 24T102 45L518 754Q526 768 536 771T557 769Q571 762 574 750T569 723L152 14Q147 5 139 2T122 0T107 7Z" />
<glyph unicode="&#xa6;" horiz-adv-x="216" d="M113 160L61 -327Q60 -336 56 -346T31 -356Q15 -356 7 -347T0 -324L52 160Q53 176 64 184T87 192Q98 192 106 184T113 160ZM179 794L128 316Q127 301 117 293T95 284Q84 283 76 292T68 316L120 798Q122 815 132 823T153
832Q165 832 173 823T179 794Z" />
<glyph unicode="&#xa9;" horiz-adv-x="992" d="M479 -95Q383 -95 299 -59T151 41T51 188T15 368Q15 464 51 548T151 696T299 796T479 832Q575 832 658 796T806 696T906 548T942 368Q942 272 906 189T806 41T659 -59T479 -95ZM596 298Q575 256 547 220T487 161T423
138Q390 138 364 163T322 234T307 343Q307 379 319 425T356 514T418 585T506 613Q530 613 561 609T608 598Q621 594 624 585T621 561Q614 546 602 543T579 544Q571 547 558 549T531 553T506 554Q471 554 445 532T401 475T375 405T366 343Q366 314 372 280T391 221T423
197Q439 197 460 215T503 262T544 326Q549 336 562 335T582 330Q588 327 594 317T596 298ZM479 -36Q562 -36 635 -5T764 83T851 212T883 369Q883 452 852 525T764 653T635 740T479 772Q396 772 323 741T194 654T107 525T75 369Q75 285 106 212T193 83T322 -4T479
-36Z" />
<glyph unicode="&#xae;" horiz-adv-x="659" d="M289 485Q277 485 271 491T266 506L291 737Q292 745 296 748T308 752Q317 752 329 748T340 733L316 504Q315 497 309 491T289 485ZM416 485Q412 485 405 487T393 494L289 632L352 628L435 518Q439 514 438 507T435
497Q432 493 427 489T416 485ZM305 612L307 659Q334 659 355 660T390 665T404 678Q406 692 378 697T307 703L308 752Q356 752 388 745T437 721T451 677Q448 651 435 637T401 618T355 613T305 612ZM359 343Q302 343 253 364T166 423T107 510T86 617Q86 673 107 722T165
809T252 868T359 890Q416 890 465 869T552 810T611 723T632 617Q632 560 611 511T553 424T466 365T359 343ZM359 400Q419 400 467 429T545 508T574 617Q574 676 545 725T468 803T359 832Q299 832 250 803T172 725T143 617Q143 557 172 508T250 430T359 400Z" />
<glyph unicode="&#xb0;" horiz-adv-x="323" d="M156 514Q140 514 128 521T108 544T97 589Q95 631 104 665T122 718Q134 741 155 759T210 778Q251 778 272 760T296 707Q298 679 288 646T257 582T211 533T156 514ZM160 561Q174 561 190 575T220 612T242 658T249
699Q248 717 240 724T211 731Q196 731 186 724T168 699Q157 673 150 648T144 598Q145 582 147 572T160 561Z" />
<glyph unicode="&#xb1;" horiz-adv-x="404" d="M229 410L209 225Q208 211 200 204T183 197Q173 197 164 206T156 233L176 418Q178 432 185 439T202 446Q213 446 222 437T229 410ZM291 115H57Q41 115 33 124T24 143Q23 153 30 161T53 169H287Q304 169 312 161T322
143Q322 132 315 124T291 115ZM310 295H76Q60 295 52 303T42 322Q41 332 48 340T72 348H307Q323 348 331 340T340 322Q341 312 334 304T310 295Z" />
<glyph unicode="&#xb7;" horiz-adv-x="195" d="M77 164Q58 164 45 179T31 210Q30 228 41 241T71 254Q89 254 104 242T120 210Q121 193 108 179T77 164Z" />
<glyph unicode="&#xbf;" horiz-adv-x="535" d="M327 454L326 394Q268 394 230 377T168 333T133 276T117 218T110 175Q106 139 124 113T176 73T248 59Q299 59 330 80T376 134T396 201Q398 221 412 229T437 234Q447 231 452 220T455 189Q446 104 392 52T235 0Q181
0 137 25T69 92T50 179Q60 262 89 324T176 420T327 454ZM368 537L355 417Q354 407 346 401T328 394Q310 394 303 402T295 417L308 537Q310 557 320 564T343 569Q354 566 361 558T368 537ZM364 695Q347 695 335 707T321 735Q320 749 331 760T359 772Q374 772 385
761T398 735Q399 719 389 707T364 695Z" />
<glyph unicode="&#xd7;" horiz-adv-x="440" d="M371 345L75 80Q62 68 49 70T27 80Q20 88 19 99T27 120L324 386Q336 397 349 396T371 386Q380 379 381 368T371 345ZM102 381L342 121Q353 110 352 98T341 78Q334 71 322 71T299 82L57 346Q47 357 48 369T57 388Q65
396 77 396T102 381Z" />
<glyph unicode="&#xf7;" horiz-adv-x="440" d="M336 208H67Q51 208 43 216T33 234T39 253T63 261H333Q350 261 358 253T366 235T360 216T336 208ZM187 68Q171 68 160 80T147 107Q146 121 155 133T181 145Q196 145 209 134T225 107Q226 92 215 80T187 68ZM215 324Q199
324 188 337T175 364Q173 378 183 390T209 402Q224 402 237 391T252 364Q253 348 242 336T215 324Z" />
<glyph unicode="&#x2013;" horiz-adv-x="440" d="M337 208H68Q52 208 43 217T33 236Q32 246 40 253T64 261H334Q350 261 358 254T367 236Q368 226 361 217T337 208Z" />
<glyph unicode="&#x2014;" horiz-adv-x="562" d="M455 208H71Q55 208 45 217T33 236Q32 245 41 253T68 261H451Q470 261 479 253T489 236Q491 226 482 217T455 208Z" />
<glyph unicode="&#x2018;" horiz-adv-x="215" d="M128 594Q116 594 107 602T99 627L112 746Q114 759 123 765T143 772Q155 772 164 763T172 737L160 619Q159 606 149 600T128 594Z" />
<glyph unicode="&#x2019;" horiz-adv-x="215" d="M128 594Q116 594 107 602T99 627L112 746Q114 759 123 765T143 772Q155 772 164 763T172 737L160 619Q159 606 149 600T128 594Z" />
<glyph unicode="&#x201c;" horiz-adv-x="346" d="M128 594Q117 594 108 602T100 627L112 741Q114 757 124 764T145 772Q156 772 165 763T173 737L160 623Q159 609 149 602T128 594ZM258 594Q245 594 236 602T228 627L241 746Q243 759 252 765T272 772Q285 772
294 763T302 737L291 625Q290 608 280 601T258 594Z" />
<glyph unicode="&#x201d;" horiz-adv-x="346" d="M128 594Q117 594 108 602T100 627L112 741Q114 757 124 764T145 772Q156 772 165 763T173 737L160 623Q159 609 149 602T128 594ZM258 594Q245 594 236 602T228 627L241 746Q243 759 252 765T272 772Q285 772
294 763T302 737L291 625Q290 608 280 601T258 594Z" />
<glyph unicode="&#x2022;" horiz-adv-x="285" d="M147 330Q122 330 102 343T68 377T53 422Q52 446 62 466T91 498T135 511Q159 511 180 499T216 466T232 422Q234 398 223 377T191 343T147 330Z" />
</font>
</defs>
</svg>
