<?xml version="1.0" standalone="no"?>
<!DOCTYPE svg PUBLIC "-//W3C//DTD SVG 1.1//EN" "http://www.w3.org/Graphics/SVG/1.1/DTD/svg11.dtd">
<svg xmlns="http://www.w3.org/2000/svg">
<defs >
<font id="Finlandica" horiz-adv-x="507" ><font-face
    font-family="Finlandica"
    units-per-em="1000"
    panose-1="0 0 0 0 0 0 0 0 0 0"
    ascent="950"
    descent="-250"
    alphabetic="0" />
<glyph unicode=" " horiz-adv-x="260" />
<glyph unicode="!" horiz-adv-x="255" d="M98 210L85 700H170L157 210H98ZM85 0V95H170V0H85Z" />
<glyph unicode="&quot;" horiz-adv-x="370" d="M70 421V750H140V421H70ZM230 421V750H300V421H230Z" />
<glyph unicode="#" horiz-adv-x="730" d="M110 390V460H266L384 700H467L350 460H461L579 700H662L572 520L534 479Q528 472 531 466T545 460H680V390H110ZM68 0L158 180L196 221Q202 228 199 234T185 240H50V310H620V240H464L346 0H263L380 240H269L151 0H68Z" />
<glyph unicode="$" horiz-adv-x="530" d="M244 -150V35H314V-150H244ZM244 671V850H314V671H244ZM255 -10Q197 -10 143 8T52 58L82 128Q115 99 160 83T251 67Q322 67 358 103T394 196Q394 244 368 280T279 323L231 328Q175 334 135 357T74 419T53 513Q53 570 81
614T160 684T283 710Q327 710 373 698T459 660L434 590Q398 615 359 625T284 635Q212 635 174 603T135 518Q135 465 164 438T241 406L289 401Q380 391 427 337T475 201Q475 141 449 93T373 18T255 -10Z" />
<glyph unicode="%" horiz-adv-x="700" d="M104 0L374 456L500 700H599L328 243L203 0H104ZM182 360Q131 360 103 386T62 452T50 536Q50 579 62 618T102 683T182 709Q234 709 262 684T303 619T315 536Q315 490 303 450T262 385T182 360ZM182 434Q221 434 232 463T243
533Q243 576 232 605T182 635Q144 635 133 606T122 533Q122 489 133 462T182 434ZM517 -10Q466 -10 438 16T397 82T385 166Q385 209 397 248T437 313T517 339Q569 339 597 314T638 249T650 166Q650 120 638 80T597 15T517 -10ZM517 64Q556 64 567 93T578 163Q578
206 567 235T517 265Q479 265 468 236T457 163Q457 119 468 92T517 64Z" />
<glyph unicode="&amp;" horiz-adv-x="650" d="M335 -12Q286 -12 239 -2T154 32T93 95T70 191Q70 235 86 266T128 318T181 351Q145 366 114 406T82 510Q82 567 103 605T157 667T229 700T303 711Q350 711 383 706T444 687T503 652L476 583Q443 611 402 622T306 634Q239
634 201 602T163 510Q163 454 193 422T279 390H325V311H279Q218 311 185 279T152 191Q152 131 198 99T335 66Q376 66 410 71T463 90V311H392V389H620V311H546V42Q502 16 453 2T335 -12Z" />
<glyph unicode="&apos;" horiz-adv-x="210" d="M70 421V750H140V421H70Z" />
<glyph unicode="(" horiz-adv-x="421" d="M301 -145Q206 -119 160 -62T102 89Q96 154 93 220T90 350Q90 415 93 480T102 611Q113 704 159 761T301 845L331 773Q256 754 221 712T181 602Q177 526 175 465T172 350Q172 297 174 236T181 98Q186 30 221 -12T331 -73L301
-145Z" />
<glyph unicode=")" horiz-adv-x="421" d="M120 -145L90 -73Q165 -54 200 -12T240 98Q245 174 247 235T249 350Q249 403 247 464T240 602Q236 670 201 712T90 773L120 845Q215 819 262 762T319 611Q325 546 328 481T331 350Q331 286 328 220T319 89Q309 -4 262
-61T120 -145Z" />
<glyph unicode="*" horiz-adv-x="510" d="M166 368L121 397L218 534H50V581H218L121 718L166 748L233 650L244 616Q249 607 255 607T266 616L278 651L344 748L389 718L292 581H460V534H292L389 397L344 368L278 464L266 497Q262 505 256 505T244 497L232 464L166 368Z" />
<glyph unicode="+" horiz-adv-x="580" d="M255 110V315H50V385H255V590H325V385H530V315H325V110H255Z" />
<glyph unicode="," horiz-adv-x="275" d="M0 -191L9 -147Q68 -136 101 -98T137 0H80V100H185V14Q185 -43 163 -86T99 -156T0 -191Z" />
<glyph unicode="-" horiz-adv-x="330" d="M50 221V291H280V221H50Z" />
<glyph unicode="." horiz-adv-x="265" d="M90 0V100H175V0H90Z" />
<glyph unicode="/" horiz-adv-x="485" d="M30 0L372 700H455L115 0H30Z" />
<glyph unicode="0" horiz-adv-x="606" d="M303 -12Q249 -12 207 4T134 51Q113 73 96 106T70 198T60 350Q60 444 69 502T96 594T134 649Q164 680 206 696T303 712Q357 712 399 696T472 649Q494 628 510 594T536 502T546 350Q546 256 537 198T511 107T472 51Q442
20 400 4T303 -12ZM303 66Q377 66 415 106T458 214Q461 258 462 288T464 350Q464 382 463 412T458 486Q454 554 416 594T303 634Q229 634 191 594T148 486Q145 443 144 413T142 350Q142 319 143 289T148 214Q152 146 190 106T303 66ZM263 270V430H343V270H263Z"
/>
<glyph unicode="1" horiz-adv-x="463" d="M40 0V76H200V622H40V660L283 712V76H443V0H40Z" />
<glyph unicode="2" horiz-adv-x="510" d="M53 0V114Q53 197 91 254T212 344L268 366Q322 386 349 421T377 510Q377 554 358 581T307 620T238 633Q195 633 153 622T77 582L50 652Q97 687 144 698T240 710Q277 710 315 699T385 664T438 602T458 510Q458 427 416
376T307 299L249 276Q195 255 171 226T140 168T133 118V78H460V0H53Z" />
<glyph unicode="3" horiz-adv-x="513" d="M242 -9Q182 -9 133 9T40 67L69 136Q101 103 146 86T231 68Q309 68 345 100T381 191Q381 247 348 279T254 311H158V389H254Q310 389 340 421T370 510Q370 568 335 600T237 633Q199 633 156 622T81 583L54 652Q98 684 143
697T240 710Q274 710 310 700T379 666T431 605T451 510Q451 467 435 434T393 380T340 351Q370 343 398 322T444 267T463 191Q463 135 445 97T395 35T324 2T242 -9Z" />
<glyph unicode="4" horiz-adv-x="539" d="M387 0V199H40V241L250 700H340L142 273H387V500H469V0H387Z" />
<glyph unicode="5" horiz-adv-x="519" d="M231 -9Q172 -9 127 7T50 50L79 119Q107 90 151 78T233 65Q306 65 350 105T394 216Q394 284 352 321T242 358Q212 358 185 350T128 320L76 360V700H443V630H154V420Q154 411 160 408T174 409L206 425Q218 429 231 430T254
431Q317 431 366 405T445 329T474 211Q474 145 445 96T361 19T231 -9Z" />
<glyph unicode="6" horiz-adv-x="557" d="M279 -12Q211 -12 160 16T79 95T50 212Q50 249 59 282T88 356T143 452L294 700H394L204 419Q197 409 201 403T216 403L259 428Q270 430 279 431T298 432Q347 432 395 410T475 339T507 212Q507 146 478 96T398 17T279 -12ZM279
65Q345 65 386 106T427 212Q427 278 386 319T279 360Q213 360 172 319T130 212Q130 147 171 106T279 65Z" />
<glyph unicode="7" horiz-adv-x="540" d="M89 0L242 315H71V389H278L393 622H54V700H485V652L382 443L353 409Q346 401 349 395T362 389H494V315H320L167 0H89Z" />
<glyph unicode="8" horiz-adv-x="560" d="M282 -12Q209 -12 156 14T74 85T45 191Q45 240 69 279T133 340L167 345Q178 346 179 353T170 364Q124 387 98 429T71 521Q71 576 96 619T169 687T282 712Q348 712 395 687T468 619T494 519Q494 479 475 444T424 385L394
379Q384 378 384 371T394 359Q448 340 481 295T515 192Q515 132 487 86T406 14T282 -12ZM282 58Q354 58 395 93T436 192Q436 247 383 284T241 328Q184 318 154 281T123 191Q125 127 167 93T282 58ZM312 392Q362 399 389 433T416 519Q415 578 380 610T283 642Q222
642 186 611T149 521Q151 467 194 433T312 392Z" />
<glyph unicode="9" horiz-adv-x="557" d="M163 0L353 281Q360 291 356 297T341 297L298 272Q288 270 279 269T259 268Q210 268 162 290T82 362T50 488Q50 555 79 605T159 683T278 712Q346 712 397 684T478 605T507 488Q507 451 498 418T469 344T414 248L263 0H163ZM278
340Q344 340 385 381T427 488Q427 553 386 594T278 635Q212 635 171 594T130 488Q130 422 171 381T278 340Z" />
<glyph unicode=":" horiz-adv-x="265" d="M100 0V100H185V0H100ZM100 400V500H185V400H100Z" />
<glyph unicode=";" horiz-adv-x="275" d="M0 -191L9 -147Q68 -136 101 -98T137 0H80V100H185V14Q185 -43 163 -86T99 -156T0 -191ZM90 400V500H175V400H90Z" />
<glyph unicode="&lt;" horiz-adv-x="540" d="M490 128L50 317V400L490 592V512L137 368Q130 365 130 360T137 351L490 211V128Z" />
<glyph unicode="=" horiz-adv-x="540" d="M50 430V500H490V430H50ZM50 200V270H490V200H50Z" />
<glyph unicode="&gt;" horiz-adv-x="540" d="M50 128V211L403 351Q411 354 411 359T403 368L50 512V592L490 400V317L50 128Z" />
<glyph unicode="?" horiz-adv-x="494" d="M148 210Q144 224 141 239T138 269Q138 316 160 339T235 386L280 406Q309 419 331 442T353 518Q353 560 334 585T283 622T213 634Q177 634 153 629T108 614T65 590L40 660Q79 685 121 697T215 710Q275 710 325 687T404
620T434 511Q434 455 414 421T363 367T299 331L262 314Q237 302 223 288T208 242V210H148ZM136 0V90H221V0H136Z" />
<glyph unicode="@" horiz-adv-x="680" d="M358 -116Q295 -116 241 -97T146 -36T83 79T60 257Q60 367 93 448T189 573T344 618Q431 618 485 586T566 497T592 367V204L630 141L562 101L529 150Q523 159 515 152Q491 131 465 117T394 102Q323 102 281 141T239 243Q239
288 258 319T314 366T398 383H515Q512 429 495 464T441 519T344 540Q280 540 235 512T165 420T141 252Q141 145 168 81T244 -10T358 -38Q407 -38 447 -25T527 15L562 -47Q516 -81 466 -98T358 -116ZM398 171Q452 171 483 197T515 266V311Q515 330 497 325L442 313H404Q364
313 342 296T319 246Q319 213 340 192T398 171Z" />
<glyph unicode="A" horiz-adv-x="566" d="M30 0L227 700H347L546 0H461L303 574L295 627Q294 633 289 633T282 627L273 574L115 0H30ZM138 187L160 261H416L438 187H138ZM113 627V700H254V627H113Z" />
<glyph unicode="B" horiz-adv-x="563" d="M90 0V700H307Q398 700 448 651T499 510Q499 455 474 415T404 355Q454 337 483 293T513 190Q513 99 459 50T307 0H90ZM168 70H308Q369 70 402 102T435 190Q435 249 402 282T308 316H168V70ZM168 386H308Q362 386 391 419T421
510Q421 566 392 598T308 630H168V386Z" />
<glyph unicode="C" horiz-adv-x="503" d="M303 -12Q233 -12 182 13T102 88T66 214Q64 243 62 281T60 350Q60 382 62 419T66 486Q72 562 101 612T182 687T303 712Q346 712 387 697T463 651L438 581Q408 607 374 620T303 634Q231 634 192 594T147 476Q145 440 144
411T142 350Q142 319 143 290T147 224Q152 146 191 106T303 66Q340 66 374 79T438 119L463 49Q428 19 387 4T303 -12Z" />
<glyph unicode="D" horiz-adv-x="593" d="M90 0V700H272Q393 700 456 638T528 470Q530 443 531 411T533 350Q533 321 532 289T528 230Q520 124 457 62T272 0H90ZM170 72H272Q360 72 400 119T447 239Q450 273 450 297T451 350Q451 379 451 403T447 461Q441 534
401 581T272 627H170V72Z" />
<glyph unicode="E" horiz-adv-x="553" d="M90 0V700H493V622H168V389H476V311H168V78H493V0H90Z" />
<glyph unicode="F" horiz-adv-x="522" d="M90 0V700H482V622H173V389H456V311H173V0H90Z" />
<glyph unicode="G" horiz-adv-x="600" d="M315 -12Q204 -12 140 46T66 214Q64 243 62 281T60 350Q60 382 61 419T65 486Q76 602 142 657T319 712Q425 712 494 651L468 580Q434 609 400 621T319 634Q241 634 197 596T147 476Q145 440 144 411T142 350Q142 319 143
290T147 224Q152 151 194 109T315 66Q343 66 371 70T413 84V311H332V389H570V311H496V42Q459 16 417 2T315 -12Z" />
<glyph unicode="H" horiz-adv-x="620" d="M90 0V700H173V389H447V700H530V0H447V311H173V0H90Z" />
<glyph unicode="I" horiz-adv-x="423" d="M50 0V76H170V624H50V700H373V624H253V76H373V0H50Z" />
<glyph unicode="J" horiz-adv-x="447" d="M170 -12Q133 -12 88 3T10 50L35 121Q50 101 73 89T123 72T170 66Q218 66 246 89T275 154V622H115V700H357V154Q357 76 307 32T170 -12Z" />
<glyph unicode="K" horiz-adv-x="538" d="M90 0V700H172V388H247L416 700H506L315 356L508 0H418L247 313H172V0H90Z" />
<glyph unicode="L" horiz-adv-x="452" d="M90 0V700H173V78H422V0H90Z" />
<glyph unicode="M" horiz-adv-x="674" d="M90 0V700H160L326 386Q331 377 337 377T348 386L514 700H584V0H504V456L514 519Q515 526 511 528T501 522L362 265H312L173 522Q169 530 164 528T160 519L170 456V0H90Z" />
<glyph unicode="N" horiz-adv-x="623" d="M90 0V700H158L451 153Q455 146 460 148T464 158L453 225V700H533V0H453L174 517Q170 526 165 524T160 514L170 449V0H90Z" />
<glyph unicode="O" horiz-adv-x="606" d="M303 -12Q249 -12 207 4T134 51Q113 73 96 106T70 198T60 350Q60 444 69 502T96 594T134 649Q164 680 206 696T303 712Q357 712 399 696T472 649Q494 628 510 594T536 502T546 350Q546 256 537 198T511 107T472 51Q442
20 400 4T303 -12ZM303 66Q377 66 415 106T458 214Q461 258 462 288T464 350Q464 382 463 412T458 486Q454 554 416 594T303 634Q229 634 191 594T148 486Q145 443 144 413T142 350Q142 319 143 289T148 214Q152 146 190 106T303 66Z" />
<glyph unicode="P" horiz-adv-x="553" d="M90 0V700H330Q419 700 471 647T523 503Q523 414 471 363T330 311H170V0H90ZM170 384H320Q376 384 409 415T442 503Q442 562 409 596T320 630H170V384Z" />
<glyph unicode="Q" horiz-adv-x="606" d="M424 -118L366 -6Q352 -9 336 -10T303 -12Q249 -12 207 4T134 51Q113 73 96 106T70 198T60 350Q60 444 69 502T96 594T134 649Q164 680 206 696T303 712Q357 712 399 696T472 649Q494 628 510 594T536 502T546 350Q546
256 537 198T511 107T472 51Q464 43 455 37T436 24L495 -86L424 -118ZM303 66Q309 66 315 66T327 68Q336 70 337 76T333 90L303 121L252 223L322 256L402 94Q428 114 442 144T458 214Q461 258 462 288T464 350Q464 382 463 412T458 486Q454 554 416 594T303 634Q229
634 191 594T148 486Q145 443 144 413T142 350Q142 319 143 289T148 214Q151 169 168 136T220 84T303 66Z" />
<glyph unicode="R" horiz-adv-x="563" d="M90 0V700H318Q414 700 468 648T523 501Q523 431 488 384T392 320Q378 317 388 301L417 253L509 0H420L307 311H170V0H90ZM170 384H318Q375 384 408 414T441 501Q441 563 408 596T318 630H170V384Z" />
<glyph unicode="S" horiz-adv-x="503" d="M245 -10Q187 -10 133 8T42 58L72 128Q105 99 150 83T241 67Q312 67 348 103T384 196Q384 244 358 280T269 323L221 328Q165 334 125 357T64 419T43 513Q43 570 71 614T150 684T273 710Q317 710 363 698T449 660L424 590Q388
615 349 625T274 635Q202 635 164 603T125 518Q125 465 154 438T231 406L279 401Q370 391 417 337T465 201Q465 141 439 93T363 18T245 -10Z" />
<glyph unicode="T" horiz-adv-x="488" d="M202 0V622H30V700H458V622H285V0H202Z" />
<glyph unicode="U" horiz-adv-x="609" d="M304 -10Q239 -10 190 16T113 91T85 201V700H169L168 201Q168 141 205 104T304 66Q365 66 402 103T440 201V700H524L523 201Q523 139 496 91T419 17T304 -10Z" />
<glyph unicode="V" horiz-adv-x="536" d="M204 0L20 700H105L253 126L262 73Q263 67 268 67T275 73L283 126L431 700H516L331 0H204Z" />
<glyph unicode="W" horiz-adv-x="615" d="M135 0L25 700H98L179 199L181 148Q181 139 187 138T195 146L279 500H336L420 146Q422 137 428 138T434 148L436 199L518 700H590L480 0H397L318 309Q315 321 308 321T298 309L218 0H135Z" />
<glyph unicode="X" horiz-adv-x="522" d="M20 0L206 350L20 700H114L241 445L254 404Q256 399 261 399T268 404L281 445L408 700H502L316 350L502 0H408L281 255L268 296Q267 301 262 301T254 296L241 255L114 0H20Z" />
<glyph unicode="Y" horiz-adv-x="482" d="M201 0V330L0 700H94L221 445L234 404Q236 399 241 399T248 404L261 445L388 700H482L281 330V0H201Z" />
<glyph unicode="Z" d="M45 0V48L327 572L360 619Q364 624 363 627T356 630H128V547H55V700H462V652L185 136L152 89Q148 84 149 81T155 78H462V0H45Z" />
<glyph unicode="[" horiz-adv-x="364" d="M90 -140V833H274V763H167V-70H274V-140H90Z" />
<glyph unicode="\" horiz-adv-x="485" d="M370 0L30 700H113L455 0H370Z" />
<glyph unicode="]" horiz-adv-x="364" d="M90 -140V-70H197V763H90V833H274V-140H90Z" />
<glyph unicode="^" horiz-adv-x="470" d="M30 350L187 750H280L440 350H357L254 636L242 685Q239 693 234 693T226 685L216 636L114 350H30Z" />
<glyph unicode="_" horiz-adv-x="548" d="M87 -250V-180H461V-250H87Z" />
<glyph unicode="`" horiz-adv-x="285" d="M150 600L50 750H135L235 600H150Z" />
<glyph unicode="a" horiz-adv-x="491" d="M373 -12L340 37Q334 46 326 39Q302 18 276 4T205 -11Q134 -11 92 28T50 130Q50 175 69 206T125 253T209 270H326V342Q326 385 301 411T222 437Q183 437 152 426T89 389L64 459Q102 488 141 500T227 512Q316 512 359 466T403
351V96L446 32L373 -12ZM209 58Q263 58 294 84T326 153V198Q326 217 308 212L253 200H215Q175 200 153 183T130 133Q130 100 151 79T209 58Z" />
<glyph unicode="b" horiz-adv-x="527" d="M113 -12L40 32L83 95V750H163V465Q183 484 214 497T282 510Q369 510 413 463T467 339Q470 314 471 293T472 251Q472 231 471 210T467 162Q460 86 415 38T282 -10Q239 -10 211 4T164 33Q151 43 143 32L113 -12ZM273 58Q333
58 359 90T390 167Q394 208 394 250T390 333Q386 378 360 409T273 440Q221 440 192 417T163 352V148Q163 108 192 83T273 58Z" />
<glyph unicode="c" horiz-adv-x="441" d="M255 -14Q168 -14 119 35T61 160Q55 210 55 249Q55 270 56 291T61 338Q70 413 119 462T255 512Q299 512 331 501T396 468L372 403Q344 421 317 430T256 440Q201 440 171 409T137 333Q134 286 134 249T137 165Q141 122
171 90T256 58Q289 58 319 67T378 94L401 34Q363 9 330 -2T255 -14Z" />
<glyph unicode="d" horiz-adv-x="529" d="M245 -10Q158 -10 112 38T59 162Q57 188 56 209T55 251Q55 272 56 293T59 339Q66 415 112 462T245 510Q280 510 312 500T364 472V750H444V0H364V18Q364 27 358 29T343 27L293 -4Q281 -7 272 -8T245 -10ZM254 58Q307 58
335 83T364 148V352Q364 393 336 416T254 440Q194 440 168 409T137 333Q133 292 133 250T137 167Q141 122 167 90T254 58Z" />
<glyph unicode="e" horiz-adv-x="481" d="M259 -10Q198 -10 156 12T91 74T61 162Q58 186 57 207T55 249Q55 289 61 338Q69 412 117 461T250 510Q311 510 348 488T404 431T429 357T436 285L416 232L114 233V302H360Q360 336 352 367T319 419T250 440Q197 440 168
408T135 333Q133 308 132 265T136 166Q141 123 169 91T259 58Q297 58 331 70T394 104L418 43Q377 14 343 2T259 -10Z" />
<glyph unicode="f" horiz-adv-x="365" d="M132 0V430H30V500H132V582Q132 627 152 666T217 729T330 753Q377 753 415 739T480 700L446 640Q424 662 396 673T334 684Q276 684 243 658T209 585V500H340V430H209V0H132Z" />
<glyph unicode="g" horiz-adv-x="524" d="M243 -203Q211 -203 185 -199T135 -185T91 -160L110 -95Q126 -107 145 -115T189 -127T242 -131Q298 -131 331 -107T364 -40V18Q364 29 359 30T345 27L293 -3Q281 -7 272 -8T245 -10Q158 -10 112 38T59 162Q57 188 56 209T55
251Q55 272 56 293T59 339Q66 415 112 462T245 510Q280 510 312 500T364 472V500H444V-22Q444 -68 425 -109T361 -177T243 -203ZM254 58Q307 58 335 83T364 148V352Q364 393 336 416T254 440Q194 440 168 409T137 333Q133 292 133 250T137 167Q141 122 167 90T254
58Z" />
<glyph unicode="h" horiz-adv-x="537" d="M85 0V750H165V471Q185 487 218 499T293 512Q343 512 380 493T437 438T457 357V0H377V348Q377 390 351 415T275 440Q223 440 194 415T165 348V0H85Z" />
<glyph unicode="i" horiz-adv-x="285" d="M120 0V430H50V500H200V0H120ZM120 600V700H200V600H120Z" />
<glyph unicode="j" horiz-adv-x="286" d="M58 -222L30 -154Q71 -141 95 -102T120 5V430H50V500H201L200 5Q200 -43 190 -79T162 -143T118 -190T58 -222ZM120 600V700H200V600H120Z" />
<glyph unicode="k" horiz-adv-x="477" d="M85 0V750H167V309H224L353 500H443L294 285L447 0H357L234 239H167V0H85Z" />
<glyph unicode="l" horiz-adv-x="275" d="M199 0Q147 0 116 29T85 108V750H165V108Q165 91 174 81T199 70H240V0H199Z" />
<glyph unicode="m" horiz-adv-x="825" d="M85 0V500H165V460Q185 479 219 495T298 512Q341 512 374 497T428 456Q447 474 470 486T521 505T577 512Q633 512 670 493T726 438T745 357V0H665V348Q665 390 640 415T556 440Q500 440 478 415T455 348V0H375V348Q375
390 349 415T277 440Q216 440 191 415T165 348V0H85Z" />
<glyph unicode="n" horiz-adv-x="537" d="M85 0V500H165V471Q185 487 217 499T290 512Q342 512 379 493T437 438T457 357V0H377V348Q377 390 351 415T272 440Q221 440 193 415T165 348V0H85Z" />
<glyph unicode="o" horiz-adv-x="510" d="M255 -11Q168 -11 119 38T61 162Q55 210 55 249Q55 270 56 291T61 338Q70 413 119 462T255 511Q342 511 391 462T449 338Q455 289 455 249Q455 210 449 162Q440 88 391 39T255 -11ZM255 58Q310 58 339 90T372 165Q376
210 376 248T372 333Q368 377 339 408T255 440Q200 440 170 409T137 333Q134 287 134 249T138 165Q143 122 171 90T255 58Z" />
<glyph unicode="p" horiz-adv-x="529" d="M85 -200V500H165V472Q185 489 217 499T284 510Q371 510 417 463T470 339Q472 314 473 293T474 251Q474 231 473 210T470 162Q463 86 417 38T284 -10Q267 -10 258 -9T236 -5L186 27Q178 32 172 29T165 16V-200H85ZM275
58Q335 58 361 90T392 167Q395 208 395 250T392 333Q388 378 362 409T275 440Q223 440 194 417T165 352V148Q165 108 194 83T275 58Z" />
<glyph unicode="q" horiz-adv-x="529" d="M364 -200V17Q364 26 359 29T345 27L293 -5Q281 -7 272 -8T245 -10Q158 -10 112 38T59 162Q57 188 56 209T55 251Q55 272 56 293T59 339Q66 415 112 462T245 510Q280 510 312 500T364 472V500H444V-200H364ZM254 58Q307
58 335 83T364 148V352Q364 393 336 416T254 440Q194 440 168 409T137 333Q133 292 133 250T137 167Q141 122 167 90T254 58Z" />
<glyph unicode="r" horiz-adv-x="351" d="M90 0V386L35 468L108 512L146 455Q153 445 159 445T172 453Q199 480 239 496T330 512H341V430Q255 430 213 400T170 318V0H90Z" />
<glyph unicode="s" horiz-adv-x="452" d="M229 -12Q181 -12 137 3T55 44L82 112Q106 95 129 84T177 66T229 60Q282 60 309 83T336 146Q336 176 314 196T251 220L192 224Q134 228 95 260T55 357Q55 426 104 469T236 512Q278 512 318 502T392 468L366 403Q343 419
310 429T236 440Q185 440 158 420T131 360Q131 330 151 314T201 296L259 292Q333 287 372 248T412 146Q412 79 364 34T229 -12Z" />
<glyph unicode="t" horiz-adv-x="340" d="M211 0Q159 0 128 29T97 108V430H10V500H86Q95 500 100 506T111 536T126 613L129 630H177V500H300V430H177V108Q177 91 186 81T211 70H300V0H211Z" />
<glyph unicode="u" horiz-adv-x="527" d="M233 -12Q182 -12 146 7T90 61T70 143V500H150V152Q150 110 176 85T255 60Q306 60 334 85T362 152V500H442V0H362V18Q362 28 356 30T342 27L291 -5Q269 -12 233 -12Z" />
<glyph unicode="v" horiz-adv-x="470" d="M177 0L30 500H114L221 120L228 71Q230 63 234 63T240 71L248 120L357 500H440L290 0H177Z" />
<glyph unicode="w" horiz-adv-x="580" d="M119 3L40 500H112L160 199L163 146Q164 137 169 137T177 146L261 500H318L402 146Q404 136 409 136T416 146L419 199L469 500H540L460 3H382L300 329Q297 341 290 341T280 329L197 3H119Z" />
<glyph unicode="x" horiz-adv-x="472" d="M30 0L188 250L30 500H124L212 348L230 304Q232 299 237 299T244 304L262 348L348 500H442L286 250L442 0H348L262 152L244 196Q242 201 237 201T230 196L212 152L124 0H30Z" />
<glyph unicode="y" horiz-adv-x="469" d="M101 -220L72 -148Q124 -133 148 -99T187 -16L200 27L20 500H104L224 185L233 131Q235 123 240 123T247 131L259 185L356 500H439L262 -48Q242 -110 202 -154T101 -220Z" />
<glyph unicode="z" horiz-adv-x="445" d="M50 0V48L261 381L293 414Q303 424 299 427T290 430H50V500H395V452L184 119L152 86Q143 77 147 74T155 70H395V0H50Z" />
<glyph unicode="{" horiz-adv-x="477" d="M337 -139Q273 -139 235 -104T196 11V226Q198 262 177 284T119 308L90 309V383L119 384Q155 386 176 408T196 466V681Q196 761 234 796T337 831H387V764H337Q300 764 286 743T271 681V466Q271 425 264 405T244 366L202
354Q193 351 193 346Q193 341 202 338L244 326Q257 308 264 288T271 226V11Q271 -29 285 -50T337 -72H387V-139H337Z" />
<glyph unicode="|" horiz-adv-x="300" d="M110 -150V850H190V-150H110Z" />
<glyph unicode="}" horiz-adv-x="477" d="M90 -139V-72H140Q178 -72 192 -51T206 11V226Q206 267 213 287T233 326L275 338Q284 341 284 346Q284 351 275 354L233 366Q220 384 213 404T206 466V681Q206 721 192 742T140 764H90V831H140Q204 831 242 796T281 681V466Q280
430 301 408T358 384L387 383V309L358 308Q322 307 301 285T281 226V11Q281 -69 243 -104T140 -139H90Z" />
<glyph unicode="~" horiz-adv-x="600" d="M396 189Q358 189 333 197T289 217T250 236T203 245Q173 245 145 234T96 204L58 254Q93 284 130 298T208 312Q246 312 271 304T315 284T354 265T401 256Q431 256 459 267T508 297L545 247Q510 217 473 203T396 189Z" />
<glyph unicode="&#xa0;" horiz-adv-x="260" />
<glyph unicode="&#xa1;" horiz-adv-x="255" d="M157 290L170 -200H85L98 290H157ZM170 500V405H85V500H170Z" />
<glyph unicode="&#xa2;" horiz-adv-x="441" d="M188 -112V-4Q132 13 100 57T61 160Q55 210 55 249Q55 270 56 291T61 338Q68 397 100 441T188 502V612H268V512Q307 511 336 500T396 468L372 403Q344 421 317 430T256 440Q201 440 171 409T137 333Q134 286 134
249T137 165Q141 122 171 90T256 58Q289 58 319 67T378 94L401 34Q366 11 336 0T268 -14V-112H188Z" />
<glyph unicode="&#xa3;" horiz-adv-x="557" d="M60 0V70Q101 83 120 121T139 227V317H60V387H139V541Q139 586 159 625T224 688T337 712Q384 712 422 698T487 659L453 599Q431 621 403 632T341 643Q283 643 250 617T216 544V387H483V317H216V227Q216 182 208 147T183
92Q176 84 179 77T193 70H483V0H60Z" />
<glyph unicode="&#xa5;" horiz-adv-x="602" d="M261 0V200H85V270H261V330L207 430H85V500H169L60 700H154L281 445L294 404Q296 399 301 399T308 404L321 445L448 700H542L433 500H525V430H395L341 330V270H525V200H341V0H261Z" />
<glyph unicode="&#xa7;" horiz-adv-x="497" d="M244 -12Q196 -12 152 3T70 44L97 112Q121 95 144 84T192 66T244 60Q297 60 324 78T351 136Q351 166 329 186T266 210L207 214Q149 218 110 251T70 357Q70 392 83 420T119 467Q97 484 84 512T70 581Q70 650 119 693T251
736Q293 736 333 726T407 692L381 627Q358 643 325 653T251 664Q200 664 173 644T146 584Q146 547 166 530T216 510L274 506Q348 501 387 462T427 360Q427 290 374 249Q427 210 427 136Q427 69 379 29T244 -12ZM242 286Q294 286 322 301T351 360Q351 390 330 412T250
434Q194 434 170 414T146 360Q146 323 170 305T242 286Z" />
<glyph unicode="&#xa8;" horiz-adv-x="372" d="M221 600V700H302V600H221ZM50 600V700H131V600H50Z" />
<glyph unicode="&#xa9;" horiz-adv-x="966" d="M483 -66Q398 -66 323 -34T191 55T102 187T70 347Q70 433 102 507T191 639T323 728T483 760Q569 760 643 728T775 639T864 508T896 347Q896 262 864 187T775 55T644 -34T483 -66ZM483 82Q425 82 380 105T307 167T269
256Q265 281 263 302T261 345Q261 366 263 387T269 434Q278 484 306 523T380 585T483 608Q535 608 573 594T644 554L620 489Q592 511 559 523T484 536Q447 536 417 520T369 479T345 424Q338 380 338 345T345 266Q350 237 369 212T417 170T484 154Q525 154 563 168T626
200L649 140Q615 115 574 99T483 82ZM483 9Q553 9 614 35T722 107T795 215T822 347Q822 417 796 478T723 586T615 659T483 686Q413 686 352 660T245 587T172 479T145 347Q145 277 171 216T244 108T352 35T483 9Z" />
<glyph unicode="&#xaa;" horiz-adv-x="443" d="M330 360L303 400Q297 408 289 402Q269 385 246 373T187 361Q126 361 91 394T55 480Q55 537 92 568T192 599H288V656Q288 691 267 711T201 731Q168 731 143 722T89 692L65 756Q98 779 132 789T207 800Q284 800 322
761T360 662V451L393 397L330 360ZM193 424Q237 424 262 445T288 501V534Q288 549 272 546L226 536H196Q165 536 147 522T129 482Q129 457 147 441T193 424Z" />
<glyph unicode="&#xab;" horiz-adv-x="485" d="M346 52L230 196V256L346 401H435L320 258L285 233Q277 226 285 219L320 194L434 52H346ZM156 52L40 196V256L156 401H245L130 258L95 233Q87 226 95 219L130 194L244 52H156Z" />
<glyph unicode="&#xac;" horiz-adv-x="580" d="M440 110V315H70V385H510V110H440Z" />
<glyph unicode="&#xae;" horiz-adv-x="966" d="M483 -66Q398 -66 323 -34T191 55T102 187T70 347Q70 433 102 507T191 639T323 728T483 760Q569 760 643 728T775 639T864 508T896 347Q896 262 864 187T775 55T644 -34T483 -66ZM483 9Q553 9 614 35T722 107T795
215T822 347Q822 417 796 478T723 586T615 659T483 686Q413 686 352 660T245 587T172 479T145 347Q145 277 171 216T244 108T352 35T483 9ZM332 97V597H502Q577 597 621 557T665 458Q665 410 638 374T568 326Q559 323 566 313L586 279L665 97H583L494 310H408V97H332ZM408
381H492Q532 381 555 394T578 448Q578 492 555 508T492 524H408V381Z" />
<glyph unicode="&#xaf;" horiz-adv-x="350" d="M50 610V670H300V610H50Z" />
<glyph unicode="&#xb0;" horiz-adv-x="482" d="M242 415Q202 415 166 430T108 483T86 588Q86 656 109 693T168 745T242 760Q280 760 315 745T373 693T396 588Q396 520 374 483T316 430T242 415ZM240 480Q263 480 281 488T310 520T321 588Q321 632 311 655T282
686T240 695Q205 695 183 674T161 588Q161 544 172 521T201 489T240 480Z" />
<glyph unicode="&#xb1;" horiz-adv-x="620" d="M275 140V315H70V385H275V560H345V385H550V315H345V140H275ZM90 0V70H530V0H90Z" />
<glyph unicode="&#xb2;" horiz-adv-x="404" d="M51 350V432Q51 482 77 520T166 584L213 603Q247 617 264 634T282 678Q282 710 255 727T190 744Q161 744 131 738T73 715L50 775Q86 797 120 804T193 812Q230 812 267 799T329 757T354 681Q354 629 327 598T251 547L202
527Q167 513 150 497T129 465T124 439V420H354V350H51Z" />
<glyph unicode="&#xb3;" horiz-adv-x="405" d="M192 344Q146 344 110 355T40 393L65 456Q91 432 122 423T184 413Q234 413 257 431T281 481Q281 510 259 527T194 545H129V610H194Q233 610 253 627T273 676Q273 708 250 726T184 744Q160 744 129 738T73 715L50
775Q82 797 116 804T187 812Q222 812 259 799T321 758T346 681Q346 639 324 615T272 578Q310 565 332 539T355 475Q355 428 331 399T269 357T192 344Z" />
<glyph unicode="&#xb4;" horiz-adv-x="285" d="M50 600L150 750H235L135 600H50Z" />
<glyph unicode="&#xb5;" horiz-adv-x="537" d="M76 -165L75 500H155V152Q155 110 181 85T260 60Q311 60 339 85T367 152V500H447V0H367V18Q367 28 361 30T347 27L296 -5Q274 -12 238 -12Q214 -12 193 -8T155 5V-165H76Z" />
<glyph unicode="&#xb6;" horiz-adv-x="600" d="M209 -250V255Q157 255 111 274T37 343T8 478Q8 543 25 586T71 654T136 689T209 700H529V630H449V-250H369V630H289V-250H209Z" />
<glyph unicode="&#xb7;" horiz-adv-x="265" d="M90 205V305H175V205H90Z" />
<glyph unicode="&#xb8;" horiz-adv-x="310" d="M50 -250L67 -188Q126 -188 159 -175T192 -138Q192 -117 166 -111T85 -104L116 22L176 0L163 -51Q207 -56 233 -78T260 -135Q260 -172 231 -197T153 -236T50 -250Z" />
<glyph unicode="&#xb9;" horiz-adv-x="361" d="M44 350V416H155V734H40V775L232 813V416H341V350H44Z" />
<glyph unicode="&#xba;" horiz-adv-x="457" d="M229 354Q153 354 111 396T60 503Q57 524 56 541T55 577Q55 596 56 614T60 654Q68 719 110 760T229 802Q304 802 347 761T397 654Q399 635 400 616T402 577Q402 559 401 541T397 503Q389 440 347 397T229 354ZM229
420Q273 420 297 445T323 507Q326 545 327 577T324 648Q321 684 297 710T229 737Q184 737 160 711T132 648Q129 609 129 578T133 508Q137 471 160 446T229 420Z" />
<glyph unicode="&#xbb;" horiz-adv-x="485" d="M241 52L355 194L390 219Q398 226 390 233L355 258L240 401H329L445 256V196L329 52H241ZM51 52L165 194L200 219Q208 226 200 233L165 258L50 401H139L255 256V196L139 52H51Z" />
<glyph unicode="&#xbc;" horiz-adv-x="1014" d="M44 501V567H155V885H40V926L232 964V567H341V501H44ZM301 0L643 700H726L386 0H301ZM871 0V122H626V158L776 455H856L717 185H871V325H944V0H871Z" />
<glyph unicode="&#xbd;" horiz-adv-x="1050" d="M44 501V567H155V885H40V926L232 964V567H341V501H44ZM301 0L643 700H726L386 0H301ZM697 0V82Q697 132 723 170T812 234L859 253Q893 267 910 284T928 328Q928 360 901 377T836 394Q807 394 777 388T719 365L696
425Q732 447 766 454T839 462Q876 462 913 449T975 407T1000 331Q1000 279 973 248T897 197L848 177Q813 163 796 147T775 115T770 89V70H1000V0H697Z" />
<glyph unicode="&#xbe;" horiz-adv-x="1018" d="M192 495Q146 495 110 506T40 544L65 607Q91 583 122 574T184 564Q234 564 257 582T281 632Q281 661 259 678T194 696H129V761H194Q233 761 253 778T273 827Q273 859 250 877T184 895Q160 895 129 889T73 866L50
926Q82 948 116 955T187 963Q222 963 259 950T321 909T346 832Q346 790 324 766T272 729Q310 716 332 690T355 626Q355 579 331 550T269 508T192 495ZM305 0L647 700H730L390 0H305ZM875 0V122H630V158L780 455H860L721 185H875V325H948V0H875Z" />
<glyph unicode="&#xbf;" horiz-adv-x="494" d="M326 290Q331 276 333 261T336 231Q336 185 314 161T239 114L194 94Q166 81 144 58T121 -18Q121 -59 140 -85T192 -122T261 -134Q297 -134 321 -129T366 -114T409 -90L434 -160Q395 -185 353 -197T259 -210Q199 -210
150 -187T70 -120T40 -11Q40 45 60 79T111 133T175 169L212 186Q238 198 252 212T266 258V290H326ZM338 500V410H253V500H338Z" />
<glyph unicode="&#xc0;" horiz-adv-x="566" d="M30 0L227 700H347L546 0H461L303 574L295 627Q294 633 289 633T282 627L273 574L115 0H30ZM138 187L160 261H416L438 187H138ZM113 627V700H254V627H113ZM250 770L150 920H235L335 770H250Z" />
<glyph unicode="&#xc1;" horiz-adv-x="566" d="M30 0L227 700H347L546 0H461L303 574L295 627Q294 633 289 633T282 627L273 574L115 0H30ZM138 187L160 261H416L438 187H138ZM113 627V700H254V627H113ZM230 770L330 920H415L315 770H230Z" />
<glyph unicode="&#xc2;" horiz-adv-x="566" d="M30 0L227 700H347L546 0H461L303 574L295 627Q294 633 289 633T282 627L273 574L115 0H30ZM138 187L160 261H416L438 187H138ZM113 627V700H254V627H113ZM150 770L241 920H322L415 770H336L300 837L289 871Q287
879 283 879T277 871L266 837L229 770H150Z" />
<glyph unicode="&#xc3;" horiz-adv-x="566" d="M30 0L227 700H347L546 0H461L303 574L295 627Q294 633 289 633T282 627L273 574L115 0H30ZM138 187L160 261H416L438 187H138ZM113 627V700H254V627H113ZM150 762L132 816Q149 842 171 853T219 865Q252 865 272
856T309 836T348 826Q368 826 383 836T415 868L433 814Q416 788 394 777T346 765Q314 765 294 775T256 794T217 804Q198 804 183 794T150 762Z" />
<glyph unicode="&#xc4;" horiz-adv-x="566" d="M30 0L227 700H347L546 0H461L303 574L295 627Q294 633 289 633T282 627L273 574L115 0H30ZM138 187L160 261H416L438 187H138ZM113 627V700H254V627H113ZM328 770V870H409V770H328ZM157 770V870H238V770H157Z" />
<glyph unicode="&#xc5;" horiz-adv-x="566" d="M30 0L227 700H347L546 0H461L303 574L295 627Q294 633 289 633T282 627L273 574L115 0H30ZM138 187L160 261H416L438 187H138ZM113 627V700H254V627H113ZM284 741Q249 741 218 750T167 782T148 844Q148 884 168
906T219 937T284 946Q317 946 348 937T398 906T418 844Q418 804 399 782T348 750T284 741ZM282 792Q315 792 338 801T361 844Q361 876 338 885T282 895Q248 895 227 886T205 844Q205 811 228 802T282 792Z" />
<glyph unicode="&#xc6;" horiz-adv-x="849" d="M30 0L205 622H113V700H789V622H464V389H772V311H464V78H789V0H386V187H166L115 0H30ZM187 261H386V622H286L187 261Z" />
<glyph unicode="&#xc7;" horiz-adv-x="503" d="M303 -12Q233 -12 182 13T102 88T66 214Q64 243 62 281T60 350Q60 382 62 419T66 486Q72 562 101 612T182 687T303 712Q346 712 387 697T463 651L438 581Q408 607 374 620T303 634Q231 634 192 594T147 476Q145 440
144 411T142 350Q142 319 143 290T147 224Q152 146 191 106T303 66Q340 66 374 79T438 119L463 49Q428 19 387 4T303 -12ZM197 -250L214 -188Q273 -188 306 -175T339 -138Q339 -117 313 -111T232 -104L263 22L323 0L310 -51Q354 -56 380 -78T407 -135Q407 -172
378 -197T300 -236T197 -250Z" />
<glyph unicode="&#xc8;" horiz-adv-x="553" d="M90 0V700H493V622H168V389H476V311H168V78H493V0H90ZM264 770L164 920H249L349 770H264Z" />
<glyph unicode="&#xc9;" horiz-adv-x="553" d="M90 0V700H493V622H168V389H476V311H168V78H493V0H90ZM244 770L344 920H429L329 770H244Z" />
<glyph unicode="&#xca;" horiz-adv-x="553" d="M90 0V700H493V622H168V389H476V311H168V78H493V0H90ZM164 770L255 920H336L429 770H350L314 837L303 871Q301 879 297 879T291 871L280 837L243 770H164Z" />
<glyph unicode="&#xcb;" horiz-adv-x="553" d="M90 0V700H493V622H168V389H476V311H168V78H493V0H90ZM342 770V870H423V770H342ZM171 770V870H252V770H171Z" />
<glyph unicode="&#xcc;" horiz-adv-x="423" d="M50 0V76H170V624H50V700H373V624H253V76H373V0H50ZM179 770L79 920H164L264 770H179Z" />
<glyph unicode="&#xcd;" horiz-adv-x="423" d="M50 0V76H170V624H50V700H373V624H253V76H373V0H50ZM159 770L259 920H344L244 770H159Z" />
<glyph unicode="&#xce;" horiz-adv-x="423" d="M50 0V76H170V624H50V700H373V624H253V76H373V0H50ZM79 770L170 920H251L344 770H265L229 837L218 871Q216 879 212 879T206 871L195 837L158 770H79Z" />
<glyph unicode="&#xcf;" horiz-adv-x="423" d="M50 0V76H170V624H50V700H373V624H253V76H373V0H50ZM257 770V870H338V770H257ZM86 770V870H167V770H86Z" />
<glyph unicode="&#xd0;" horiz-adv-x="613" d="M0 315V384H291V315H0ZM110 0V700H292Q413 700 476 638T548 470Q550 443 551 411T553 350Q553 321 552 289T548 230Q540 124 477 62T292 0H110ZM190 72H292Q380 72 420 119T467 239Q470 273 470 297T471 350Q471
379 471 403T467 461Q461 534 421 581T292 627H190V72Z" />
<glyph unicode="&#xd1;" horiz-adv-x="623" d="M90 0V700H158L451 153Q455 146 460 148T464 158L453 225V700H533V0H453L174 517Q170 526 165 524T160 514L170 449V0H90ZM179 792L161 846Q178 872 200 883T248 895Q281 895 301 886T338 866T377 856Q397 856 412
866T444 898L462 844Q445 818 423 807T375 795Q343 795 323 805T285 824T246 834Q227 834 212 824T179 792Z" />
<glyph unicode="&#xd2;" horiz-adv-x="606" d="M303 -12Q249 -12 207 4T134 51Q113 73 96 106T70 198T60 350Q60 444 69 502T96 594T134 649Q164 680 206 696T303 712Q357 712 399 696T472 649Q494 628 510 594T536 502T546 350Q546 256 537 198T511 107T472 51Q442
20 400 4T303 -12ZM303 66Q377 66 415 106T458 214Q461 258 462 288T464 350Q464 382 463 412T458 486Q454 554 416 594T303 634Q229 634 191 594T148 486Q145 443 144 413T142 350Q142 319 143 289T148 214Q152 146 190 106T303 66ZM270 770L170 920H255L355 770H270Z"
/>
<glyph unicode="&#xd3;" horiz-adv-x="606" d="M303 -12Q249 -12 207 4T134 51Q113 73 96 106T70 198T60 350Q60 444 69 502T96 594T134 649Q164 680 206 696T303 712Q357 712 399 696T472 649Q494 628 510 594T536 502T546 350Q546 256 537 198T511 107T472 51Q442
20 400 4T303 -12ZM303 66Q377 66 415 106T458 214Q461 258 462 288T464 350Q464 382 463 412T458 486Q454 554 416 594T303 634Q229 634 191 594T148 486Q145 443 144 413T142 350Q142 319 143 289T148 214Q152 146 190 106T303 66ZM250 770L350 920H435L335 770H250Z"
/>
<glyph unicode="&#xd4;" horiz-adv-x="606" d="M303 -12Q249 -12 207 4T134 51Q113 73 96 106T70 198T60 350Q60 444 69 502T96 594T134 649Q164 680 206 696T303 712Q357 712 399 696T472 649Q494 628 510 594T536 502T546 350Q546 256 537 198T511 107T472 51Q442
20 400 4T303 -12ZM303 66Q377 66 415 106T458 214Q461 258 462 288T464 350Q464 382 463 412T458 486Q454 554 416 594T303 634Q229 634 191 594T148 486Q145 443 144 413T142 350Q142 319 143 289T148 214Q152 146 190 106T303 66ZM170 770L261 920H342L435 770H356L320
837L309 871Q307 879 303 879T297 871L286 837L249 770H170Z" />
<glyph unicode="&#xd5;" horiz-adv-x="606" d="M303 -12Q249 -12 207 4T134 51Q113 73 96 106T70 198T60 350Q60 444 69 502T96 594T134 649Q164 680 206 696T303 712Q357 712 399 696T472 649Q494 628 510 594T536 502T546 350Q546 256 537 198T511 107T472 51Q442
20 400 4T303 -12ZM303 66Q377 66 415 106T458 214Q461 258 462 288T464 350Q464 382 463 412T458 486Q454 554 416 594T303 634Q229 634 191 594T148 486Q145 443 144 413T142 350Q142 319 143 289T148 214Q152 146 190 106T303 66ZM170 762L152 816Q169 842 191
853T239 865Q272 865 292 856T329 836T368 826Q388 826 403 836T435 868L453 814Q436 788 414 777T366 765Q334 765 314 775T276 794T237 804Q218 804 203 794T170 762Z" />
<glyph unicode="&#xd6;" horiz-adv-x="606" d="M303 -12Q249 -12 207 4T134 51Q113 73 96 106T70 198T60 350Q60 444 69 502T96 594T134 649Q164 680 206 696T303 712Q357 712 399 696T472 649Q494 628 510 594T536 502T546 350Q546 256 537 198T511 107T472 51Q442
20 400 4T303 -12ZM303 66Q377 66 415 106T458 214Q461 258 462 288T464 350Q464 382 463 412T458 486Q454 554 416 594T303 634Q229 634 191 594T148 486Q145 443 144 413T142 350Q142 319 143 289T148 214Q152 146 190 106T303 66ZM348 770V870H429V770H348ZM177
770V870H258V770H177Z" />
<glyph unicode="&#xd7;" horiz-adv-x="528" d="M119 156L70 205L215 350L70 495L119 544L264 399L409 544L458 495L313 350L458 205L409 156L264 301L119 156Z" />
<glyph unicode="&#xd8;" horiz-adv-x="606" d="M303 -12Q249 -12 207 4T134 51Q113 73 96 106T70 198T60 350Q60 444 69 502T96 594T134 649Q164 680 206 696T303 712Q357 712 399 696T472 649Q494 628 510 594T536 502T546 350Q546 256 537 198T511 107T472 51Q442
20 400 4T303 -12ZM303 66Q377 66 415 106T458 214Q461 258 462 288T464 350Q464 382 463 412T458 486Q454 554 416 594T303 634Q229 634 191 594T148 486Q145 443 144 413T142 350Q142 319 143 289T148 214Q152 146 190 106T303 66ZM246 0L791 700H871L326 0H246Z"
/>
<glyph unicode="&#xd9;" horiz-adv-x="609" d="M304 -10Q239 -10 190 16T113 91T85 201V700H169L168 201Q168 141 205 104T304 66Q365 66 402 103T440 201V700H524L523 201Q523 139 496 91T419 17T304 -10ZM272 770L172 920H257L357 770H272Z" />
<glyph unicode="&#xda;" horiz-adv-x="609" d="M304 -10Q239 -10 190 16T113 91T85 201V700H169L168 201Q168 141 205 104T304 66Q365 66 402 103T440 201V700H524L523 201Q523 139 496 91T419 17T304 -10ZM252 770L352 920H437L337 770H252Z" />
<glyph unicode="&#xdb;" horiz-adv-x="609" d="M304 -10Q239 -10 190 16T113 91T85 201V700H169L168 201Q168 141 205 104T304 66Q365 66 402 103T440 201V700H524L523 201Q523 139 496 91T419 17T304 -10ZM172 770L263 920H344L437 770H358L322 837L311 871Q309
879 305 879T299 871L288 837L251 770H172Z" />
<glyph unicode="&#xdc;" horiz-adv-x="609" d="M304 -10Q239 -10 190 16T113 91T85 201V700H169L168 201Q168 141 205 104T304 66Q365 66 402 103T440 201V700H524L523 201Q523 139 496 91T419 17T304 -10ZM350 770V870H431V770H350ZM179 770V870H260V770H179Z" />
<glyph unicode="&#xdd;" horiz-adv-x="482" d="M201 0V330L0 700H94L221 445L234 404Q236 399 241 399T248 404L261 445L388 700H482L281 330V0H201ZM188 770L288 920H373L273 770H188Z" />
<glyph unicode="&#xde;" horiz-adv-x="553" d="M90 0V700H170V555H330Q419 555 471 501T523 357Q523 268 471 217T330 165H170V0H90ZM170 238H320Q376 238 409 269T442 357Q442 416 409 450T320 484H170V238Z" />
<glyph unicode="&#xdf;" horiz-adv-x="652" d="M429 -12Q381 -12 337 3T255 44L282 112Q306 95 329 84T377 66T429 60Q482 60 509 83T536 146Q536 176 514 196T451 220L396 224Q335 228 295 261T255 358Q255 413 287 449T380 504L414 514Q449 525 464 544T479
589Q479 612 464 633T417 669T332 684Q253 684 208 647T162 545V0H85V542Q85 597 110 645T191 723T333 753Q410 753 459 731T533 672T557 593Q557 546 527 507T440 449L401 436Q364 424 348 407T331 361Q331 331 351 315T405 296L459 292Q533 287 572 248T612 146Q612
79 564 34T429 -12Z" />
<glyph unicode="&#xe0;" horiz-adv-x="491" d="M373 -12L340 37Q334 46 326 39Q302 18 276 4T205 -11Q134 -11 92 28T50 130Q50 175 69 206T125 253T209 270H326V342Q326 385 301 411T222 437Q183 437 152 426T89 389L64 459Q102 488 141 500T227 512Q316 512
359 466T403 351V96L446 32L373 -12ZM209 58Q263 58 294 84T326 153V198Q326 217 308 212L253 200H215Q175 200 153 183T130 133Q130 100 151 79T209 58ZM210 600L110 750H195L295 600H210Z" />
<glyph unicode="&#xe1;" horiz-adv-x="491" d="M373 -12L340 37Q334 46 326 39Q302 18 276 4T205 -11Q134 -11 92 28T50 130Q50 175 69 206T125 253T209 270H326V342Q326 385 301 411T222 437Q183 437 152 426T89 389L64 459Q102 488 141 500T227 512Q316 512
359 466T403 351V96L446 32L373 -12ZM209 58Q263 58 294 84T326 153V198Q326 217 308 212L253 200H215Q175 200 153 183T130 133Q130 100 151 79T209 58ZM190 600L290 750H375L275 600H190Z" />
<glyph unicode="&#xe2;" horiz-adv-x="491" d="M373 -12L340 37Q334 46 326 39Q302 18 276 4T205 -11Q134 -11 92 28T50 130Q50 175 69 206T125 253T209 270H326V342Q326 385 301 411T222 437Q183 437 152 426T89 389L64 459Q102 488 141 500T227 512Q316 512
359 466T403 351V96L446 32L373 -12ZM209 58Q263 58 294 84T326 153V198Q326 217 308 212L253 200H215Q175 200 153 183T130 133Q130 100 151 79T209 58ZM110 600L201 750H282L375 600H296L260 667L249 701Q247 709 243 709T237 701L226 667L189 600H110Z" />
<glyph unicode="&#xe3;" horiz-adv-x="491" d="M373 -12L340 37Q334 46 326 39Q302 18 276 4T205 -11Q134 -11 92 28T50 130Q50 175 69 206T125 253T209 270H326V342Q326 385 301 411T222 437Q183 437 152 426T89 389L64 459Q102 488 141 500T227 512Q316 512
359 466T403 351V96L446 32L373 -12ZM209 58Q263 58 294 84T326 153V198Q326 217 308 212L253 200H215Q175 200 153 183T130 133Q130 100 151 79T209 58ZM110 592L92 646Q109 672 131 683T179 695Q212 695 232 686T269 666T308 656Q328 656 343 666T375 698L393
644Q376 618 354 607T306 595Q274 595 254 605T216 624T177 634Q158 634 143 624T110 592Z" />
<glyph unicode="&#xe4;" horiz-adv-x="491" d="M373 -12L340 37Q334 46 326 39Q302 18 276 4T205 -11Q134 -11 92 28T50 130Q50 175 69 206T125 253T209 270H326V342Q326 385 301 411T222 437Q183 437 152 426T89 389L64 459Q102 488 141 500T227 512Q316 512
359 466T403 351V96L446 32L373 -12ZM209 58Q263 58 294 84T326 153V198Q326 217 308 212L253 200H215Q175 200 153 183T130 133Q130 100 151 79T209 58ZM288 600V700H369V600H288ZM117 600V700H198V600H117Z" />
<glyph unicode="&#xe5;" horiz-adv-x="491" d="M373 -12L340 37Q334 46 326 39Q302 18 276 4T205 -11Q134 -11 92 28T50 130Q50 175 69 206T125 253T209 270H326V342Q326 385 301 411T222 437Q183 437 152 426T89 389L64 459Q102 488 141 500T227 512Q316 512
359 466T403 351V96L446 32L373 -12ZM209 58Q263 58 294 84T326 153V198Q326 217 308 212L253 200H215Q175 200 153 183T130 133Q130 100 151 79T209 58ZM244 571Q209 571 178 580T127 612T108 674Q108 714 128 736T179 767T244 776Q277 776 308 767T358 736T378
674Q378 634 359 612T308 580T244 571ZM242 622Q275 622 298 631T321 674Q321 706 298 715T242 725Q208 725 187 716T165 674Q165 641 188 632T242 622Z" />
<glyph unicode="&#xe6;" horiz-adv-x="753" d="M205 -11Q134 -11 92 28T50 130Q50 175 69 206T125 253T209 270H326V342Q326 385 301 411T222 437Q183 437 152 426T89 389L64 459Q102 488 141 500T227 512Q268 512 297 502T349 471L369 445Q377 435 384 445L404
471Q427 488 456 499T522 510Q583 510 620 488T676 431T701 357T708 285L688 232L404 233Q404 150 429 104T531 58Q569 58 603 70T666 104L690 43Q649 14 615 2T531 -10Q483 -10 447 4T386 43L374 64Q367 76 360 64L349 43Q315 13 278 1T205 -11ZM209 58Q263 58
294 84T326 153V198Q326 217 308 212L253 200H215Q175 200 153 183T130 133Q130 100 151 79T209 58ZM405 302H632Q632 336 624 367T591 419T522 440Q465 440 435 402T405 302Z" />
<glyph unicode="&#xe7;" horiz-adv-x="441" d="M255 -14Q168 -14 119 35T61 160Q55 210 55 249Q55 270 56 291T61 338Q70 413 119 462T255 512Q299 512 331 501T396 468L372 403Q344 421 317 430T256 440Q201 440 171 409T137 333Q134 286 134 249T137 165Q141
122 171 90T256 58Q289 58 319 67T378 94L401 34Q363 9 330 -2T255 -14ZM150 -250L167 -188Q226 -188 259 -175T292 -138Q292 -117 266 -111T185 -104L216 22L276 0L263 -51Q307 -56 333 -78T360 -135Q360 -172 331 -197T253 -236T150 -250Z" />
<glyph unicode="&#xe8;" horiz-adv-x="481" d="M259 -10Q198 -10 156 12T91 74T61 162Q58 186 57 207T55 249Q55 289 61 338Q69 412 117 461T250 510Q311 510 348 488T404 431T429 357T436 285L416 232L114 233V302H360Q360 336 352 367T319 419T250 440Q197 440
168 408T135 333Q133 308 132 265T136 166Q141 123 169 91T259 58Q297 58 331 70T394 104L418 43Q377 14 343 2T259 -10ZM216 600L116 750H201L301 600H216Z" />
<glyph unicode="&#xe9;" horiz-adv-x="481" d="M259 -10Q198 -10 156 12T91 74T61 162Q58 186 57 207T55 249Q55 289 61 338Q69 412 117 461T250 510Q311 510 348 488T404 431T429 357T436 285L416 232L114 233V302H360Q360 336 352 367T319 419T250 440Q197 440
168 408T135 333Q133 308 132 265T136 166Q141 123 169 91T259 58Q297 58 331 70T394 104L418 43Q377 14 343 2T259 -10ZM196 600L296 750H381L281 600H196Z" />
<glyph unicode="&#xea;" horiz-adv-x="481" d="M259 -10Q198 -10 156 12T91 74T61 162Q58 186 57 207T55 249Q55 289 61 338Q69 412 117 461T250 510Q311 510 348 488T404 431T429 357T436 285L416 232L114 233V302H360Q360 336 352 367T319 419T250 440Q197 440
168 408T135 333Q133 308 132 265T136 166Q141 123 169 91T259 58Q297 58 331 70T394 104L418 43Q377 14 343 2T259 -10ZM116 600L207 750H288L381 600H302L266 667L255 701Q253 709 249 709T243 701L232 667L195 600H116Z" />
<glyph unicode="&#xeb;" horiz-adv-x="481" d="M259 -10Q198 -10 156 12T91 74T61 162Q58 186 57 207T55 249Q55 289 61 338Q69 412 117 461T250 510Q311 510 348 488T404 431T429 357T436 285L416 232L114 233V302H360Q360 336 352 367T319 419T250 440Q197 440
168 408T135 333Q133 308 132 265T136 166Q141 123 169 91T259 58Q297 58 331 70T394 104L418 43Q377 14 343 2T259 -10ZM294 600V700H375V600H294ZM123 600V700H204V600H123Z" />
<glyph unicode="&#xec;" horiz-adv-x="285" d="M120 0V430H50V500H200V0H120ZM368 600L268 750H353L453 600H368Z" />
<glyph unicode="&#xed;" horiz-adv-x="285" d="M120 0V430H50V500H200V0H120ZM92 600L192 750H277L177 600H92Z" />
<glyph unicode="&#xee;" horiz-adv-x="290" d="M35 600L107 750H188L260 600H188L160 667L152 701Q151 709 148 709T143 701L134 667L107 600H35ZM120 0V430H50V500H200V0H120Z" />
<glyph unicode="&#xef;" horiz-adv-x="290" d="M180 600V700H261V600H180ZM30 600V700H111V600H30ZM120 0V430H50V500H200V0H120Z" />
<glyph unicode="&#xf0;" horiz-adv-x="557" d="M187 496L149 545L374 700L409 651L187 496ZM278 -12Q211 -12 160 16T79 95T50 212Q50 290 82 338T162 409T259 432Q269 432 278 431T298 428L341 403Q352 397 356 403T353 419L163 700H263L414 452Q448 396 468
356T498 283T507 212Q507 146 478 96T398 17T278 -12ZM278 65Q344 65 385 106T427 212Q427 278 386 319T278 360Q212 360 171 319T130 212Q130 147 171 106T278 65Z" />
<glyph unicode="&#xf1;" horiz-adv-x="537" d="M85 0V500H165V471Q185 487 217 499T290 512Q342 512 379 493T437 438T457 357V0H377V348Q377 390 351 415T272 440Q221 440 193 415T165 348V0H85ZM133 592L115 646Q132 672 154 683T202 695Q235 695 255 686T292
666T331 656Q351 656 366 666T398 698L416 644Q399 618 377 607T329 595Q297 595 277 605T239 624T200 634Q181 634 166 624T133 592Z" />
<glyph unicode="&#xf2;" horiz-adv-x="510" d="M255 -11Q168 -11 119 38T61 162Q55 210 55 249Q55 270 56 291T61 338Q70 413 119 462T255 511Q342 511 391 462T449 338Q455 289 455 249Q455 210 449 162Q440 88 391 39T255 -11ZM255 58Q310 58 339 90T372 165Q376
210 376 248T372 333Q368 377 339 408T255 440Q200 440 170 409T137 333Q134 287 134 249T138 165Q143 122 171 90T255 58ZM222 600L122 750H207L307 600H222Z" />
<glyph unicode="&#xf3;" horiz-adv-x="510" d="M255 -11Q168 -11 119 38T61 162Q55 210 55 249Q55 270 56 291T61 338Q70 413 119 462T255 511Q342 511 391 462T449 338Q455 289 455 249Q455 210 449 162Q440 88 391 39T255 -11ZM255 58Q310 58 339 90T372 165Q376
210 376 248T372 333Q368 377 339 408T255 440Q200 440 170 409T137 333Q134 287 134 249T138 165Q143 122 171 90T255 58ZM202 600L302 750H387L287 600H202Z" />
<glyph unicode="&#xf4;" horiz-adv-x="510" d="M255 -11Q168 -11 119 38T61 162Q55 210 55 249Q55 270 56 291T61 338Q70 413 119 462T255 511Q342 511 391 462T449 338Q455 289 455 249Q455 210 449 162Q440 88 391 39T255 -11ZM255 58Q310 58 339 90T372 165Q376
210 376 248T372 333Q368 377 339 408T255 440Q200 440 170 409T137 333Q134 287 134 249T138 165Q143 122 171 90T255 58ZM122 600L213 750H294L387 600H308L272 667L261 701Q259 709 255 709T249 701L238 667L201 600H122Z" />
<glyph unicode="&#xf5;" horiz-adv-x="510" d="M255 -11Q168 -11 119 38T61 162Q55 210 55 249Q55 270 56 291T61 338Q70 413 119 462T255 511Q342 511 391 462T449 338Q455 289 455 249Q455 210 449 162Q440 88 391 39T255 -11ZM255 58Q310 58 339 90T372 165Q376
210 376 248T372 333Q368 377 339 408T255 440Q200 440 170 409T137 333Q134 287 134 249T138 165Q143 122 171 90T255 58ZM122 592L104 646Q121 672 143 683T191 695Q224 695 244 686T281 666T320 656Q340 656 355 666T387 698L405 644Q388 618 366 607T318 595Q286
595 266 605T228 624T189 634Q170 634 155 624T122 592Z" />
<glyph unicode="&#xf6;" horiz-adv-x="510" d="M255 -11Q168 -11 119 38T61 162Q55 210 55 249Q55 270 56 291T61 338Q70 413 119 462T255 511Q342 511 391 462T449 338Q455 289 455 249Q455 210 449 162Q440 88 391 39T255 -11ZM255 58Q310 58 339 90T372 165Q376
210 376 248T372 333Q368 377 339 408T255 440Q200 440 170 409T137 333Q134 287 134 249T138 165Q143 122 171 90T255 58ZM300 600V700H381V600H300ZM129 600V700H210V600H129Z" />
<glyph unicode="&#xf7;" horiz-adv-x="580" d="M50 315V385H530V315H50ZM248 100V200H333V100H248ZM248 500V600H333V500H248Z" />
<glyph unicode="&#xf8;" horiz-adv-x="510" d="M255 -11Q168 -11 119 38T61 162Q55 210 55 249Q55 270 56 291T61 338Q70 413 119 462T255 511Q342 511 391 462T449 338Q455 289 455 249Q455 210 449 162Q440 88 391 39T255 -11ZM255 58Q310 58 339 90T372 165Q376
210 376 248T372 333Q368 377 339 408T255 440Q200 440 170 409T137 333Q134 287 134 249T138 165Q143 122 171 90T255 58ZM276 0L665 500H745L356 0H276Z" />
<glyph unicode="&#xf9;" horiz-adv-x="527" d="M233 -12Q182 -12 146 7T90 61T70 143V500H150V152Q150 110 176 85T255 60Q306 60 334 85T362 152V500H442V0H362V18Q362 28 356 30T342 27L291 -5Q269 -12 233 -12ZM231 600L131 750H216L316 600H231Z" />
<glyph unicode="&#xfa;" horiz-adv-x="527" d="M233 -12Q182 -12 146 7T90 61T70 143V500H150V152Q150 110 176 85T255 60Q306 60 334 85T362 152V500H442V0H362V18Q362 28 356 30T342 27L291 -5Q269 -12 233 -12ZM211 600L311 750H396L296 600H211Z" />
<glyph unicode="&#xfb;" horiz-adv-x="527" d="M233 -12Q182 -12 146 7T90 61T70 143V500H150V152Q150 110 176 85T255 60Q306 60 334 85T362 152V500H442V0H362V18Q362 28 356 30T342 27L291 -5Q269 -12 233 -12ZM131 600L222 750H303L396 600H317L281 667L270
701Q268 709 264 709T258 701L247 667L210 600H131Z" />
<glyph unicode="&#xfc;" horiz-adv-x="527" d="M233 -12Q182 -12 146 7T90 61T70 143V500H150V152Q150 110 176 85T255 60Q306 60 334 85T362 152V500H442V0H362V18Q362 28 356 30T342 27L291 -5Q269 -12 233 -12ZM309 600V700H390V600H309ZM138 600V700H219V600H138Z" />
<glyph unicode="&#xfd;" horiz-adv-x="469" d="M101 -220L72 -148Q124 -133 148 -99T187 -16L200 27L20 500H104L224 185L233 131Q235 123 240 123T247 131L259 185L356 500H439L262 -48Q242 -110 202 -154T101 -220ZM182 600L282 750H367L267 600H182Z" />
<glyph unicode="&#xfe;" horiz-adv-x="529" d="M85 -200V700H165V472Q185 489 217 499T284 510Q371 510 417 463T470 339Q472 314 473 293T474 251Q474 231 473 210T470 162Q463 86 417 38T284 -10Q267 -10 258 -9T236 -5L186 27Q178 32 172 29T165 16V-200H85ZM275
58Q335 58 361 90T392 167Q395 208 395 250T392 333Q388 378 362 409T275 440Q223 440 194 417T165 352V148Q165 108 194 83T275 58Z" />
<glyph unicode="&#xff;" horiz-adv-x="469" d="M101 -220L72 -148Q124 -133 148 -99T187 -16L200 27L20 500H104L224 185L233 131Q235 123 240 123T247 131L259 185L356 500H439L262 -48Q242 -110 202 -154T101 -220ZM280 600V700H361V600H280ZM109 600V700H190V600H109Z" />
<glyph unicode="&#x2013;" horiz-adv-x="540" d="M50 221V291H490V221H50Z" />
<glyph unicode="&#x2014;" horiz-adv-x="712" d="M50 221V291H662V221H50Z" />
<glyph unicode="&#x2018;" horiz-adv-x="185" d="M165 747L156 694Q116 679 93 645T68 560H125V460H20V526Q20 591 38 635T88 706T165 747Z" />
<glyph unicode="&#x2019;" horiz-adv-x="285" d="M70 463L79 516Q119 531 142 565T167 650H110V750H215V684Q215 619 197 575T147 504T70 463Z" />
<glyph unicode="&#x201a;" horiz-adv-x="275" d="M0 -191L9 -147Q68 -136 101 -98T137 0H80V100H185V14Q185 -43 163 -86T99 -156T0 -191Z" />
<glyph unicode="&#x201c;" horiz-adv-x="455" d="M215 747L206 694Q166 679 143 645T118 560H165V460H70V526Q70 591 88 635T138 706T215 747ZM385 747L376 694Q336 679 313 645T288 560H335V460H240V526Q240 591 258 635T308 706T385 747Z" />
<glyph unicode="&#x201d;" horiz-adv-x="455" d="M240 463L249 516Q289 531 312 565T337 650H290V750H385V684Q385 619 367 575T317 504T240 463ZM70 463L79 516Q119 531 142 565T167 650H120V750H215V684Q215 619 197 575T147 504T70 463Z" />
<glyph unicode="&#x201e;" horiz-adv-x="405" d="M170 -187L179 -134Q219 -119 242 -85T267 0H220V100H315V34Q315 -31 297 -75T247 -146T170 -187ZM0 -187L9 -134Q49 -119 72 -85T97 0H50V100H145V34Q145 -31 127 -75T77 -146T0 -187Z" />
<glyph unicode="&#x2022;" horiz-adv-x="352" d="M175 253Q140 253 122 267T97 304T90 355Q90 381 96 402T121 437T175 451Q211 451 229 438T255 402T262 353Q262 327 255 304T230 267T175 253Z" />
<glyph unicode="&#x2039;" horiz-adv-x="295" d="M156 52L40 196V256L156 401H245L130 258L95 233Q87 226 95 219L130 194L244 52H156Z" />
<glyph unicode="&#x203a;" horiz-adv-x="295" d="M51 52L165 194L200 219Q208 226 200 233L165 258L50 401H139L255 256V196L139 52H51Z" />
</font>
</defs>
</svg>
