<?xml version="1.0" standalone="no"?>
<!DOCTYPE svg PUBLIC "-//W3C//DTD SVG 1.1//EN" "http://www.w3.org/Graphics/SVG/1.1/DTD/svg11.dtd">
<svg xmlns="http://www.w3.org/2000/svg">
<defs >
<font id="Commissioner" horiz-adv-x="1075" ><font-face
    font-family="Commissioner Thin"
    units-per-em="2000"
    panose-1="0 0 0 0 0 0 0 0 0 0"
    ascent="2034"
    descent="-412"
    alphabetic="0" />
<glyph unicode=" " horiz-adv-x="383" />
<glyph unicode="!" horiz-adv-x="472" d="M170 495Q167 742 158 983T138 1465L338 1471Q328 1230 319 987T306 497L170 495ZM236 -22Q195 -22 166 -5T120 41T104 109Q104 168 140 203T236 238Q278 238 307 222T352 177T369 109Q369 51 334 15T236 -22Z" />
<glyph unicode="&quot;" horiz-adv-x="743" d="M118 873Q115 1028 106 1181T87 1484L274 1489Q264 1338 255 1184T243 875L118 873ZM457 873Q454 1028 445 1181T426 1484L613 1489Q603 1338 594 1184T582 875L457 873Z" />
<glyph unicode="#" horiz-adv-x="1366" d="M35 308V436Q129 436 217 436T381 436H872Q949 436 1036 436T1218 436V308Q1124 308 1037 308T872 308H381Q305 308 217 308T35 308ZM239 0Q260 102 279 199T324 423L415 880Q433 968 447 1039T475 1178T503 1317H637Q623
1247 610 1180T582 1041T549 879L457 423Q432 297 413 201T373 0H239ZM147 875V1003Q241 1003 329 1003T493 1003H985Q1062 1003 1149 1003T1331 1003V875Q1237 875 1150 875T985 875H493Q417 875 329 875T147 875ZM716 0Q737 102 756 199T800 423L892 879Q910
968 924 1039T951 1178T980 1317H1113Q1099 1247 1086 1180T1058 1041T1026 879L934 423Q909 297 890 201T849 0H716Z" />
<glyph unicode="$" horiz-adv-x="1124" d="M575 -21Q490 -21 404 -6T246 34T128 84L144 237Q208 202 277 177T420 138T570 124Q659 124 730 148T842 227T884 370Q884 442 840 488T714 568T517 638Q387 679 296 726T158 844T110 1021Q110 1128 159 1212T307 1345T552
1394Q613 1394 673 1386T786 1362T885 1329T962 1291L945 1135Q887 1174 822 1198T692 1234T570 1246Q492 1246 423 1223T312 1151T269 1022Q269 957 305 915T417 840T614 768Q777 715 871 661T1004 538T1044 370Q1044 259 995 171T842 31T575 -21ZM508 -274Q508
-185 508 -102T508 62T508 223T508 384V948Q508 1029 508 1109T508 1269T508 1434T508 1606H639Q639 1518 639 1434T639 1270T639 1109T639 948V384Q639 303 639 223T639 62T639 -102T639 -274H508Z" />
<glyph unicode="%" horiz-adv-x="1761" d="M391 0Q455 110 515 216T654 459L938 955Q992 1049 1037 1127T1123 1277T1208 1426H1363Q1319 1350 1278 1278T1192 1127T1093 955L808 459Q730 323 670 217T546 0H391ZM441 743Q333 743 249 786T117 909T69 1096Q69
1198 117 1278T249 1405T443 1452Q551 1452 635 1406T766 1279T814 1096Q814 989 767 910T635 787T441 743ZM441 860Q555 860 618 922T681 1095Q681 1165 653 1219T571 1304T443 1335Q331 1335 266 1269T201 1095Q201 985 266 923T441 860ZM1314 -22Q1206 -22 1122
21T990 144T942 331Q942 433 990 513T1122 640T1316 687Q1424 687 1508 641T1639 514T1687 331Q1687 224 1640 145T1508 22T1314 -22ZM1314 95Q1428 95 1491 157T1554 330Q1554 401 1526 455T1444 539T1316 570Q1204 570 1139 504T1074 330Q1074 220 1139 158T1314
95Z" />
<glyph unicode="&amp;" horiz-adv-x="1468" d="M1225 0Q1158 67 1090 136T955 272L493 738Q399 832 345 920T291 1118Q291 1222 338 1297T466 1412T644 1452Q741 1452 821 1415T948 1307T996 1137Q996 1053 966 991T884 885T774 808T657 752L582 856Q657 886 715
922T807 1010T841 1133Q841 1217 787 1269T651 1322Q563 1322 511 1265T458 1119Q458 1044 498 977T627 821L1079 363Q1169 273 1258 182T1436 0H1225ZM539 -20Q392 -20 294 32T147 173T98 369Q98 491 152 579T289 728T463 830L536 721Q456 685 394 637T297 527T261
385Q261 307 295 248T396 155T558 122Q626 122 686 146T801 219T911 345L1010 250L1017 218H991Q930 142 864 89T719 8T539 -20ZM1100 329L997 426Q1057 520 1112 608T1225 786L1365 698Q1299 605 1234 514T1100 329Z" />
<glyph unicode="&apos;" horiz-adv-x="404" d="M118 873Q115 1028 106 1181T87 1484L274 1489Q264 1338 255 1184T243 875L118 873Z" />
<glyph unicode="(" horiz-adv-x="770" d="M572 -242Q474 -171 391 -82T247 116T152 357T118 647Q118 807 152 939T247 1180T391 1377T572 1537L689 1481Q584 1396 493 1281T344 1010T287 647Q287 442 344 286T492 15T689 -186L572 -242Z" />
<glyph unicode=")" horiz-adv-x="770" d="M198 -242L81 -186Q186 -101 278 14T426 285T483 647Q483 853 427 1009T278 1280T81 1481L198 1537Q297 1466 379 1377T523 1179T618 938T652 647Q652 488 618 356T523 115T380 -82T198 -242Z" />
<glyph unicode="*" horiz-adv-x="946" d="M830 746Q736 811 643 874T454 1001Q354 1057 255 1112T55 1222L116 1325Q211 1262 304 1198T494 1069Q592 1015 692 960T892 850L830 746ZM116 746L55 850Q154 906 254 961T454 1070Q549 1135 642 1198T830 1325L892
1222Q792 1167 692 1112T494 1003Q400 939 306 875T116 746ZM412 581Q418 695 423 808T434 1037Q429 1150 424 1263T412 1491H534Q528 1377 523 1264T512 1037Q517 922 523 809T534 581H412Z" />
<glyph unicode="+" horiz-adv-x="1176" d="M513 119Q513 213 513 300T513 465V731Q513 808 513 895T513 1077H664Q664 983 664 896T664 731V465Q664 388 664 301T664 119H513ZM124 524V671Q218 671 306 671T470 671H707Q784 671 871 671T1053 671V524Q959 524
872 524T707 524H470Q394 524 306 524T124 524Z" />
<glyph unicode="," horiz-adv-x="460" d="M62 -314Q101 -258 123 -202T156 -85T166 47Q166 94 166 142T166 239L250 245Q305 241 330 204T355 112Q355 50 339 -11T293 -128T228 -230T153 -311L62 -314Z" />
<glyph unicode="-" horiz-adv-x="845" d="M124 521V669Q206 669 281 669T423 669Q489 669 565 669T722 669V521Q641 521 565 521T423 521Q357 521 282 521T124 521Z" />
<glyph unicode="." horiz-adv-x="472" d="M236 -22Q195 -22 166 -5T120 41T104 109Q104 168 140 203T236 238Q278 238 307 222T352 177T369 109Q369 51 334 15T236 -22Z" />
<glyph unicode="/" horiz-adv-x="890" d="M59 0Q106 112 150 216T254 456L465 952Q526 1094 572 1202T668 1426H832Q799 1349 768 1276T703 1124T627 948L417 456Q359 320 315 215T223 0H59Z" />
<glyph unicode="0" horiz-adv-x="1305" d="M658 -21Q516 -21 413 31T242 180T143 405T111 688Q111 901 171 1060T352 1308T652 1397Q789 1397 890 1346T1059 1201T1160 977T1194 689Q1194 472 1133 313T952 66T658 -21ZM654 128Q785 128 865 201T982 401T1019
689Q1019 859 980 984T860 1179T654 1248Q525 1248 444 1176T325 978T287 689Q287 526 324 399T441 200T654 128Z" />
<glyph unicode="1" horiz-adv-x="855" d="M105 976L64 1115Q187 1181 310 1246T558 1377L553 1218Q441 1157 330 1097T105 976ZM472 0Q472 111 472 213T472 438V868Q472 975 472 1082T472 1297L558 1377L641 1371Q641 1259 641 1140T641 895V438Q641 315 641 213T641
0H472Z" />
<glyph unicode="2" horiz-adv-x="1109" d="M97 0V122Q158 175 219 229T342 335Q487 461 589 570T747 782T802 986Q802 1116 731 1181T517 1247Q469 1247 419 1238T316 1212T212 1168T109 1108L91 1277Q136 1302 189 1324T301 1362T421 1387T545 1397Q683 1397
779 1350T926 1214T976 1005Q976 892 924 780T770 550T517 304L294 115L269 150H547Q661 150 775 150T1003 150V0H97Z" />
<glyph unicode="3" horiz-adv-x="1141" d="M553 -22Q489 -22 425 -14T301 10T187 45T89 89L106 251Q160 221 215 198T326 160T434 136T538 128Q711 128 788 198T865 377Q865 507 760 575T467 643Q434 643 403 643T339 643V785Q368 785 398 785T459 785Q586 785
665 818T781 907T819 1034Q819 1143 741 1195T541 1247Q494 1247 444 1238T342 1211T239 1167T138 1107L118 1272Q162 1298 214 1321T324 1361T442 1388T563 1398Q691 1398 788 1357T939 1241T993 1062Q993 976 957 910T861 800T729 739V722Q784 712 838 687T938
618T1011 512T1039 366Q1039 257 986 169T825 30T553 -22Z" />
<glyph unicode="4" horiz-adv-x="1200" d="M722 0Q722 96 722 181T722 381L727 412V862Q727 969 727 1075T727 1288L856 1328Q799 1246 745 1169T635 1014L396 675Q348 607 301 540T205 405L199 466H766H795Q847 466 911 466T1037 466T1148 466V316Q1100 316 1038
316T911 316T795 316H60V434Q103 494 154 566T257 713T355 850L531 1100Q579 1168 627 1236T723 1372H891Q891 1248 891 1129T891 890V381Q891 266 891 181T891 0H722Z" />
<glyph unicode="5" horiz-adv-x="1149" d="M548 -22Q484 -22 421 -14T299 10T186 46T89 89L106 251Q160 221 215 198T325 160T432 136T534 128Q706 128 789 210T873 441Q873 550 830 615T714 710T550 740Q472 740 401 721T250 647L174 654V868Q174 1003 174 1129T174
1372H965V1222Q845 1222 724 1222T482 1222H279L339 1280Q339 1187 339 1095T337 910V818H354Q411 849 477 866T617 884Q735 884 832 837T988 692T1047 447Q1047 307 991 202T823 37T548 -22Z" />
<glyph unicode="6" horiz-adv-x="1214" d="M635 -22Q466 -22 349 56T172 285T111 657Q111 838 147 976T253 1208T423 1349T654 1397Q707 1397 758 1390T856 1370T948 1340T1031 1300L1011 1140Q971 1167 928 1187T840 1220T751 1239T663 1246Q528 1246 443 1179T318
979T278 653Q278 478 318 362T437 187T629 128Q738 128 807 174T909 293T942 449Q942 531 910 598T811 705T637 745Q594 745 550 737T459 710T366 657T271 571Q254 603 249 627T249 676T270 732L299 730Q338 769 381 798T472 848T572 878T680 888Q813 888 909 834T1058
682T1111 458Q1111 334 1059 225T900 47T635 -22Z" />
<glyph unicode="7" horiz-adv-x="1056" d="M219 0Q281 136 343 271T466 539L657 955Q693 1031 728 1107T797 1260L831 1222H550Q426 1222 301 1222T50 1222V1371H977V1254Q921 1131 867 1012T756 767L629 488Q575 368 519 246T408 0H219Z" />
<glyph unicode="8" horiz-adv-x="1214" d="M608 -22Q436 -22 324 32T157 178T102 384Q102 497 147 570T259 684T385 738V755Q324 772 270 812T182 913T148 1056Q148 1159 204 1236T363 1355T608 1398Q748 1398 850 1356T1009 1236T1066 1056Q1066 975 1032 914T944
812T828 755V738Q889 725 955 685T1066 570T1112 384Q1112 270 1057 178T891 32T608 -22ZM608 130Q725 130 799 165T907 261T942 399Q942 489 898 548T778 637T606 667Q512 667 436 638T316 549T272 399Q272 322 306 261T415 165T608 130ZM608 803Q747 803 823
868T900 1035Q900 1140 820 1195T608 1250Q474 1250 395 1195T315 1035Q315 967 349 915T449 833T608 803Z" />
<glyph unicode="9" horiz-adv-x="1214" d="M560 -22Q507 -22 456 -15T357 6T265 37T182 76L202 236Q243 209 286 189T373 156T463 137T550 130Q686 130 771 197T895 397T935 723Q935 898 895 1014T776 1189T585 1247Q475 1247 406 1202T305 1083T272 927Q272 845
304 778T403 671T576 631Q619 631 663 639T754 666T848 719T942 805Q959 773 964 749T965 700T943 644L915 646Q875 608 832 578T741 528T641 498T533 488Q401 488 304 542T155 694T102 918Q102 1042 155 1151T313 1329T579 1397Q748 1397 864 1320T1042 1091T1103
719Q1103 537 1067 399T961 167T790 26T560 -22Z" />
<glyph unicode=":" horiz-adv-x="472" d="M236 756Q195 756 166 773T120 819T104 887Q104 946 140 981T236 1016Q278 1016 307 1000T352 955T369 887Q369 829 334 793T236 756ZM236 -22Q195 -22 166 -5T120 41T104 109Q104 168 140 203T236 238Q278 238 307 222T352
177T369 109Q369 51 334 15T236 -22Z" />
<glyph unicode=";" horiz-adv-x="472" d="M236 756Q195 756 166 773T120 819T104 887Q104 946 140 981T236 1016Q278 1016 307 1000T352 955T369 887Q369 829 334 793T236 756ZM75 -314Q114 -258 136 -202T169 -85T179 47Q179 94 179 142T179 239L263 245Q318
241 343 204T368 112Q368 50 352 -11T306 -128T241 -230T166 -311L75 -314Z" />
<glyph unicode="&lt;" horiz-adv-x="1136" d="M1013 146Q920 185 832 222T664 292L468 376Q392 408 304 445T124 521V671Q217 711 305 748T469 817L665 900Q743 933 831 970T1013 1047V889Q906 844 797 797T577 704L346 605V587L577 489Q686 443 796 396T1013 303V146Z" />
<glyph unicode="=" horiz-adv-x="1136" d="M129 300V448Q223 448 311 448T475 448H661Q738 448 826 448T1007 448V300Q914 300 826 300T661 300H475Q399 300 311 300T129 300ZM129 748V895Q223 895 311 895T475 895H661Q738 895 826 895T1007 895V748Q914 748
826 748T661 748H475Q399 748 311 748T129 748Z" />
<glyph unicode="&gt;" horiz-adv-x="1136" d="M124 146V303Q230 349 340 396T560 489L790 587V605L560 703Q450 750 340 797T124 889V1047Q217 1008 305 971T471 900L668 817Q744 785 832 748T1013 671V521Q920 482 832 445T668 376L471 292Q394 259 306 222T124 146Z" />
<glyph unicode="?" horiz-adv-x="856" d="M433 441Q316 441 252 495T187 640Q187 704 216 752T293 841T393 919Q443 956 488 995T563 1081T593 1189Q593 1270 537 1312T378 1354Q332 1354 285 1345T188 1319T89 1275L79 1424Q106 1436 141 1448T218 1472T307 1491T407
1498Q513 1498 591 1467T712 1373T755 1217Q755 1125 716 1057T618 938T501 845Q436 798 387 752T338 647Q338 584 378 560T473 535Q510 535 540 543T591 559L598 467Q580 460 554 455T496 445T433 441ZM394 -22Q354 -22 325 -5T279 41T262 109Q262 168 298 203T395
238Q436 238 465 222T511 177T527 109Q527 51 492 15T394 -22Z" />
<glyph unicode="@" horiz-adv-x="1765" d="M945 -263Q710 -263 538 -184T260 30T118 336T120 690Q156 862 233 986T420 1192T662 1312T938 1351Q1124 1351 1270 1284T1512 1099T1645 825T1648 494Q1629 394 1588 324T1496 210T1392 145T1293 124Q1216 124 1165
146T1085 203T1044 276H1030Q980 207 907 175T770 143Q652 143 581 208T486 380T487 608Q510 717 562 799T691 928T860 974Q917 974 965 958T1051 915T1116 852H1131L1156 954L1281 963Q1258 850 1233 728T1180 482L1172 442Q1150 333 1183 286T1285 239Q1328 239
1367 259T1439 315T1496 403T1533 517Q1564 669 1535 800T1426 1031T1222 1185T935 1240Q759 1240 616 1177T374 986T235 669Q200 508 229 360T348 97T588 -85T945 -152Q1024 -152 1116 -139T1307 -89T1511 16V-112Q1430 -165 1336 -198T1142 -247T945 -263ZM805
269Q867 269 925 303T1027 413L1097 745Q1059 789 1009 817T889 845Q780 845 714 771T624 586Q606 499 620 427T680 312T805 269Z" />
<glyph unicode="A" horiz-adv-x="1380" d="M59 0Q101 115 146 242T234 483L411 973Q458 1105 497 1211T575 1426H813Q852 1316 890 1210T975 972L1151 481Q1193 363 1237 239T1323 0H1135Q1092 125 1047 257T961 507L701 1263H684L422 514Q379 392 333 259T242
0H59ZM323 358L339 500H1061L1074 358H323Z" />
<glyph unicode="B" horiz-adv-x="1291" d="M629 0Q529 0 444 0T293 0T185 0Q185 119 185 229T185 471V950Q185 1083 185 1195T185 1426Q298 1426 432 1426T709 1426Q834 1426 921 1403T1064 1336T1145 1230T1171 1090Q1171 999 1138 931T1049 818T920 751V733Q994
719 1060 681T1167 573T1208 392Q1208 308 1180 237T1086 112T909 30T629 0ZM362 150H643Q779 150 862 181T983 269T1021 405Q1021 536 929 592T671 649H322V794H671Q781 794 850 830T952 924T984 1051Q984 1168 912 1222T696 1276H362Q362 1189 362 1103T362 914V505Q362
404 362 320T362 150Z" />
<glyph unicode="C" horiz-adv-x="1370" d="M831 -22Q662 -22 527 33T296 187T151 421T100 715Q100 931 189 1097T436 1358T804 1452Q875 1452 942 1442T1069 1415T1180 1378T1268 1337L1252 1163Q1174 1209 1101 1237T957 1279T819 1292Q665 1292 545 1222T357
1023T288 714Q288 595 323 490T429 305T604 180T848 134Q899 134 950 140T1051 161T1149 198T1245 254L1259 82Q1217 55 1167 35T1061 3T947 -16T831 -22Z" />
<glyph unicode="D" horiz-adv-x="1473" d="M185 0Q185 119 185 229T185 471V949Q185 1084 185 1195T185 1426Q275 1426 357 1426T520 1426T686 1426Q851 1426 979 1379T1194 1240T1327 1017T1373 719Q1373 568 1333 438T1206 209T977 55T632 0Q546 0 473 0T331
0T185 0ZM366 151H633Q837 151 958 225T1132 429T1185 722Q1185 847 1154 949T1058 1124T893 1236T655 1275H366Q366 1189 366 1104T366 916V506Q366 406 366 321T366 151Z" />
<glyph unicode="E" horiz-adv-x="1187" d="M185 0Q185 119 185 229T185 471V950Q185 1083 185 1195T185 1426H1071V1271Q971 1271 857 1271T586 1271H262L362 1400Q362 1280 362 1169T362 924V498Q362 367 362 257T362 27L272 155H602Q733 155 849 155T1073 155V0H185ZM323
647V798H600Q738 798 838 798T1031 798V647Q933 647 834 647T599 647H323Z" />
<glyph unicode="F" horiz-adv-x="1147" d="M185 0Q185 119 185 229T185 471V949Q185 1084 185 1195T185 1426H1054V1270Q954 1270 840 1270T570 1270H286L363 1400Q363 1280 363 1169T363 923V471Q363 339 363 229T363 0H185ZM320 638V789H583Q721 789 821 789T1014
789V638Q915 638 816 638T581 638H320Z" />
<glyph unicode="G" horiz-adv-x="1466" d="M860 -21Q674 -21 533 34T295 190T150 424T100 716Q100 931 188 1097T438 1358T819 1452Q894 1452 964 1442T1097 1415T1212 1377T1303 1337L1287 1163Q1204 1209 1126 1237T974 1279T830 1292Q711 1292 612 1253T439
1139T327 957T287 715Q287 593 321 487T427 301T610 177T873 132Q929 132 985 137T1095 155T1203 187T1306 234L1327 64Q1293 48 1243 33T1130 6T1000 -14T860 -21ZM1156 61Q1156 167 1156 246T1156 404Q1156 498 1156 570T1156 716H1327Q1327 642 1327 570T1327
404Q1327 325 1327 247T1327 64L1156 61Z" />
<glyph unicode="H" horiz-adv-x="1499" d="M1133 0Q1133 119 1133 229T1133 471V949Q1133 1084 1133 1195T1133 1426H1314Q1314 1307 1314 1196T1314 949V471Q1314 339 1314 229T1314 0H1133ZM185 0Q185 119 185 229T185 471V949Q185 1084 185 1195T185 1426H366Q366
1307 366 1196T366 949V471Q366 339 366 229T366 0H185ZM303 644V800H1202V644H303Z" />
<glyph unicode="I" horiz-adv-x="559" d="M188 0Q188 119 188 229T188 471V949Q188 1084 188 1195T188 1426H372Q372 1307 372 1196T372 949V471Q372 339 372 229T372 0H188Z" />
<glyph unicode="J" horiz-adv-x="582" d="M30 -316Q88 -251 129 -185T191 -42T213 136V547V949Q213 1084 213 1195T213 1426H395Q395 1307 395 1196T395 949V592Q395 467 395 349T395 119Q395 38 381 -27T341 -145T284 -239T216 -316H30Z" />
<glyph unicode="K" horiz-adv-x="1342" d="M1055 0Q960 103 877 193T714 370L443 663H345V812H442L677 1057Q760 1143 841 1228T1029 1426H1249Q1139 1313 1035 1205T826 988L562 713L559 793L852 470Q921 396 998 310T1151 143T1282 0H1055ZM185 0Q185 119 185
229T185 471V949Q185 1084 185 1195T185 1426H366Q366 1307 366 1196T366 949V471Q366 339 366 229T366 0H185Z" />
<glyph unicode="L" horiz-adv-x="1145" d="M185 0Q185 119 185 229T185 471V949Q185 1084 185 1195T185 1426H366Q366 1307 366 1196T366 949V499Q366 367 366 257T366 28L298 161H560Q674 161 761 161T923 161T1076 161V0H185Z" />
<glyph unicode="M" horiz-adv-x="1915" d="M134 0Q148 116 162 229T193 475L252 945Q268 1076 282 1189T312 1426H494Q556 1274 614 1133T729 851L955 297H969L1193 850Q1250 992 1307 1132T1425 1426H1607Q1622 1304 1635 1191T1666 946L1724 471Q1740 341 1754
230T1782 0H1609Q1586 190 1565 361T1526 680L1474 1106H1461L1280 647Q1214 480 1148 313T1025 0H902Q866 91 822 200T732 423T641 644L454 1106H441L389 681Q371 532 351 361T307 0H134Z" />
<glyph unicode="N" horiz-adv-x="1508" d="M185 0Q185 119 185 229T185 471V949Q185 1084 185 1195T185 1426H348Q476 1246 594 1079T827 750L1136 314H1151V949Q1151 1084 1151 1195T1151 1426H1323Q1323 1307 1323 1196T1323 949V471Q1323 339 1323 229T1323
0H1162Q1056 150 939 315T682 679L371 1118H357V471Q357 339 357 229T357 0H185Z" />
<glyph unicode="O" horiz-adv-x="1634" d="M824 -22Q643 -22 507 36T281 197T145 433T100 714Q100 922 184 1089T429 1354T818 1452Q992 1452 1125 1395T1350 1237T1487 1002T1533 715Q1533 504 1449 338T1206 75T824 -22ZM819 134Q956 134 1055 181T1218 311T1314
497T1345 715Q1345 837 1312 942T1212 1127T1047 1251T819 1296Q685 1296 586 1249T420 1121T321 935T288 715Q288 599 320 495T417 310T583 181T819 134Z" />
<glyph unicode="P" horiz-adv-x="1255" d="M185 0Q185 119 185 229T185 471V950Q185 1083 185 1195T185 1426Q266 1426 394 1426T689 1426Q852 1426 958 1383T1118 1250T1171 1018Q1171 887 1123 786T961 626T651 568Q601 568 544 568T433 568T339 568V718H617Q745
718 826 748T947 844T986 1017Q986 1105 958 1157T883 1234T782 1268T677 1276H275L363 1400Q363 1280 363 1169T363 924V471Q363 339 363 229T363 0H185Z" />
<glyph unicode="Q" horiz-adv-x="1634" d="M1291 -337Q1228 -284 1166 -233T1040 -129L879 5L978 109L1178 -46Q1243 -97 1308 -147T1453 -260L1291 -337ZM824 -22Q643 -22 507 36T281 197T145 433T100 714Q100 922 184 1089T429 1354T818 1452Q992 1452 1125
1395T1350 1237T1487 1002T1533 715Q1533 504 1449 338T1206 75T824 -22ZM819 134Q956 134 1055 181T1218 311T1314 497T1345 715Q1345 837 1312 942T1212 1127T1047 1251T819 1296Q685 1296 586 1249T420 1121T321 935T288 715Q288 599 320 495T417 310T583 181T819
134Z" />
<glyph unicode="R" horiz-adv-x="1340" d="M185 0Q185 119 185 229T185 471V950Q185 1083 185 1195T185 1426Q242 1426 316 1426T479 1426T667 1426Q830 1426 938 1388T1101 1264T1156 1040Q1156 923 1111 826T959 671T672 611L729 690L954 409Q1007 344 1066
270T1181 126T1281 0H1069Q998 90 933 174T803 338L547 668L658 579H331V728H602Q727 728 808 757T929 850T969 1022Q969 1111 941 1162T866 1238T765 1269T661 1276H241L362 1400Q362 1277 362 1166T362 924V471Q362 339 362 229T362 0H185Z" />
<glyph unicode="S" horiz-adv-x="1173" d="M599 -22Q510 -22 420 -6T253 35T129 85L146 256Q213 219 285 192T433 149T588 134Q677 134 748 158T861 236T903 377Q903 453 860 502T736 588T538 660Q402 703 306 753T160 876T109 1064Q109 1175 161 1263T318 1401T576
1452Q640 1452 702 1443T822 1419T926 1384T1006 1345L988 1173Q927 1214 859 1241T724 1282T600 1296Q519 1296 451 1272T342 1199T300 1071Q300 1003 335 958T445 878T640 804Q812 750 910 695T1050 566T1092 387Q1092 270 1041 178T880 32T599 -22Z" />
<glyph unicode="T" horiz-adv-x="1282" d="M551 0Q551 119 551 229T551 471V923Q551 1057 551 1168T551 1400L623 1265H454Q333 1265 240 1265T62 1265V1426H1220V1265Q1136 1265 1043 1265T828 1265H659L732 1400Q732 1280 732 1169T732 923V471Q732 339 732
229T732 0H551Z" />
<glyph unicode="U" horiz-adv-x="1461" d="M731 -22Q532 -22 408 46T225 239T166 530Q166 572 166 638T166 786T166 949Q166 1084 166 1195T166 1426H346Q346 1307 346 1196T346 949V548Q346 419 384 326T506 184T731 134Q872 134 955 183T1076 326T1113 550V949Q1113
1084 1113 1195T1113 1426H1293Q1293 1307 1293 1196T1293 949Q1293 867 1293 786T1293 637T1293 530Q1293 364 1234 240T1051 47T731 -22Z" />
<glyph unicode="V" horiz-adv-x="1373" d="M565 0Q527 107 484 228T403 452L243 899Q216 976 184 1065T118 1248T54 1426H255Q307 1273 367 1099T479 772L680 187H697L900 775Q953 931 1011 1099T1123 1426H1317Q1287 1340 1255 1249T1190 1068T1131 901L971 451Q934
347 892 228T811 0H565Z" />
<glyph unicode="W" horiz-adv-x="2040" d="M465 0Q435 106 400 227T335 451L207 897Q173 1016 132 1158T55 1426H255Q297 1273 342 1104T428 782L581 214H598L747 789Q773 888 801 997T858 1216T913 1426H1123Q1163 1273 1207 1108T1292 787L1444 214H1461L1616
790Q1656 939 1701 1108T1786 1426H1987Q1950 1299 1910 1159T1834 901L1704 451Q1673 344 1639 224T1573 0H1341Q1301 147 1257 310T1173 616L1021 1172H1003L854 616Q816 472 772 308T689 0H465Z" />
<glyph unicode="X" horiz-adv-x="1357" d="M73 0Q133 97 195 197T325 406L544 758V705L353 997Q286 1098 219 1201T72 1426H281Q344 1330 403 1238T516 1062L654 847H671L806 1064Q859 1147 916 1240T1032 1426H1236Q1165 1312 1100 1209T980 1019L775 692V750L987
438Q1065 324 1137 219T1286 0H1070Q1007 95 951 179T841 342L669 600H651L490 341Q439 258 388 176T278 0H73Z" />
<glyph unicode="Y" horiz-adv-x="1304" d="M568 557L257 1084Q207 1168 161 1246T55 1426H262Q317 1330 356 1261T430 1131T507 995L645 752H663L797 986Q842 1065 878 1129T955 1262T1049 1426H1252Q1201 1339 1151 1254T1051 1085L740 557H568ZM564 0Q564 119
564 229T564 471V708H745V471Q745 339 745 229T745 0H564Z" />
<glyph unicode="Z" horiz-adv-x="1343" d="M96 0V104Q152 178 222 270T364 455T496 626L1039 1335L1081 1271H674Q548 1271 407 1271T112 1271V1426H1231V1296Q1137 1175 1048 1058T868 824L295 79L268 155H640Q729 155 838 155T1052 155T1239 155V0H96Z" />
<glyph unicode="[" horiz-adv-x="745" d="M191 -234Q191 -115 191 -5T191 237V1056Q191 1190 191 1301T191 1533H711V1394Q647 1394 573 1394T397 1394H272L346 1506Q346 1387 346 1276T346 1030V265Q346 133 346 23T346 -206L281 -96H407Q491 -96 566 -96T712
-96V-234H191Z" />
<glyph unicode="\" horiz-adv-x="890" d="M668 0Q620 112 576 216T473 456L263 948Q222 1045 188 1124T123 1276T59 1426H223Q272 1311 318 1203T425 952L637 456Q695 320 739 216T832 0H668Z" />
<glyph unicode="]" horiz-adv-x="745" d="M34 -234V-96Q99 -96 173 -96T348 -96H472L399 -208Q399 -87 399 24T399 269V1034Q399 1166 399 1276T399 1505L464 1394H337Q254 1394 179 1394T32 1394V1533H553Q553 1414 553 1304T553 1062V243Q553 109 553 -2T553 -234H34Z" />
<glyph unicode="^" horiz-adv-x="1217" d="M937 758Q858 876 778 993T617 1228H600Q520 1113 440 997T281 764H121Q217 917 313 1068T505 1371H712Q808 1219 904 1066T1096 760L937 758Z" />
<glyph unicode="_" horiz-adv-x="804" d="M-20 -242V-104Q74 -104 162 -104T326 -104H478Q555 -104 642 -104T824 -104V-242Q730 -242 643 -242T478 -242H326Q250 -242 162 -242T-20 -242Z" />
<glyph unicode="`" horiz-adv-x="1200" d="M614 1154Q561 1220 508 1285T401 1418T292 1552L476 1556Q544 1457 612 1358T748 1156L614 1154Z" />
<glyph unicode="a" horiz-adv-x="1046" d="M404 -20Q315 -20 248 14T144 113T106 267Q106 348 135 403T211 494T315 548T429 578L740 632Q744 733 714 784T628 854T506 872Q472 872 433 867T351 852T259 825T158 786L149 937Q185 952 230 966T327 991T433 1009T542
1015Q653 1015 733 980T857 870T900 674Q900 628 900 557T900 422V293Q900 225 900 155T900 0H750L741 141H725Q694 101 647 64T539 4T404 -20ZM452 117Q505 117 558 139T657 204T736 314L737 528Q721 519 695 510T616 490T470 461Q413 451 369 429T300 368T274
274Q274 188 325 153T452 117Z" />
<glyph unicode="b" horiz-adv-x="1183" d="M658 -22Q589 -22 531 -4T425 49T338 133H322L308 0H172Q172 111 172 213T172 438V987Q172 1113 172 1232T172 1464L337 1484Q337 1363 337 1242T337 987V881H354Q382 918 426 948T529 997T655 1016Q791 1016 886 949T1032
764T1082 499Q1082 360 1036 242T895 51T658 -22ZM608 126Q715 126 782 179T881 316T913 498Q913 599 880 682T778 816T605 866Q553 866 503 851T411 805T337 729V288Q367 237 406 201T496 146T608 126Z" />
<glyph unicode="c" horiz-adv-x="989" d="M604 -20Q443 -20 331 48T159 233T100 497Q100 644 156 761T321 947T586 1015Q644 1015 700 1005T807 979T896 940L881 788Q825 820 776 837T684 861T605 868Q453 868 361 769T269 500Q269 394 309 309T431 174T634 124Q677
124 719 132T804 155T885 196L899 45Q866 27 822 13T724 -11T604 -20Z" />
<glyph unicode="d" horiz-adv-x="1155" d="M525 -22Q383 -22 289 50T148 241T101 499Q101 647 151 764T296 948T528 1016Q597 1016 654 998T756 949T829 881H846V987Q846 1113 846 1231T846 1464L1011 1484Q1011 1363 1011 1242T1011 987V438Q1011 315 1011 213T1011
0H867L859 136H843Q804 85 756 50T651 -3T525 -22ZM575 126Q637 126 687 145T776 201T846 288V729Q815 774 773 804T680 850T578 866Q473 866 405 816T304 683T270 498Q270 401 302 317T401 179T575 126Z" />
<glyph unicode="e" horiz-adv-x="1055" d="M620 -22Q442 -22 327 46T156 232T100 502Q100 652 155 768T313 949T559 1015Q685 1015 775 966T915 823T964 589Q964 552 963 523T956 463L811 536Q813 552 813 566T814 595Q814 736 744 809T561 883Q470 883 405 837T303
708T267 521V498Q267 382 307 298T428 169T636 123Q683 123 735 130T839 154T938 196L945 47Q907 26 857 11T747 -13T620 -22ZM169 463V581L855 587L956 549V463H169Z" />
<glyph unicode="f" horiz-adv-x="790" d="M237 0Q237 111 237 213T237 438V538Q237 599 237 666T237 807T237 958T237 1122Q237 1228 265 1299T344 1412T460 1472T599 1491Q635 1491 669 1488T731 1478T780 1464L765 1321Q733 1333 697 1339T620 1346Q503 1346
450 1290T396 1118Q396 1087 396 1049T396 992L402 955V438Q402 315 402 213T402 0H237ZM49 861V992H738V861Q638 861 543 861T352 861H284H49Z" />
<glyph unicode="g" horiz-adv-x="1084" d="M488 -406Q377 -406 303 -386T186 -332T125 -257T106 -172Q106 -105 139 -60T216 12T293 48V62Q276 67 252 83T209 130T190 206Q190 241 203 271T245 324T314 364V379Q291 387 255 409T183 468T121 561T96 691Q96 788
143 861T278 974T484 1015Q532 1015 567 1010T641 1000T734 994H1043V870Q944 870 850 870T661 870L708 948Q796 906 834 837T873 680Q873 582 833 515T720 406T550 342Q445 317 394 297T343 235Q343 206 364 190T430 167T551 160H594Q732 160 820 139T950 67T993
-66Q993 -152 948 -216T828 -323T665 -385T488 -406ZM502 -272Q612 -272 686 -242T798 -169T835 -91Q835 -53 813 -28T731 9T557 22H520Q456 21 396 1T298 -54T259 -137Q259 -163 271 -187T312 -231T387 -261T502 -272ZM473 459Q510 465 552 477T632 513T694 574T718
670Q718 742 681 787T590 853T484 875Q423 875 370 854T284 789T251 679Q251 613 283 567T366 494T473 459Z" />
<glyph unicode="h" horiz-adv-x="1146" d="M172 0Q172 111 172 213T172 438V987Q172 1113 172 1232T172 1464L337 1484Q337 1365 337 1243T337 987V827H355Q385 869 432 913T545 986T695 1016Q853 1016 926 925T999 661Q999 596 999 546T999 438Q999 320 999 216T999
0H834Q834 111 834 214T834 431V619Q834 738 792 799T638 860Q571 860 516 833T417 761T337 660V431Q337 314 337 213T337 0H172Z" />
<glyph unicode="i" horiz-adv-x="514" d="M174 0Q174 111 174 213T174 438V538Q174 627 174 702T174 848T174 992L340 998Q340 924 340 853T340 705T340 538V438Q340 315 340 213T340 0H174ZM254 1221Q200 1221 166 1251T132 1343Q132 1404 166 1434T256 1465Q311
1465 344 1434T377 1343Q377 1281 344 1251T254 1221Z" />
<glyph unicode="j" horiz-adv-x="510" d="M10 -390Q68 -327 104 -262T157 -119T174 61V438V538Q174 627 174 702T174 848T174 992L340 998Q340 924 340 853T340 705T340 538Q340 422 340 335T340 177T340 38Q340 -37 330 -100T299 -215T250 -309T187 -384L10 -390ZM254
1221Q200 1221 166 1251T132 1343Q132 1404 166 1434T256 1465Q311 1465 344 1434T377 1343Q377 1281 344 1251T254 1221Z" />
<glyph unicode="k" horiz-adv-x="1084" d="M830 0Q763 68 695 136T559 271L388 442H318V560H398L542 713Q608 782 675 852T807 992H1011Q925 905 840 818T671 644L502 472L496 552L692 350Q781 262 869 175T1045 0H830ZM172 0Q172 111 172 213T172 438V987Q172
1113 172 1232T172 1464L337 1484Q337 1365 337 1243T337 987V412Q337 300 337 203T337 0H172Z" />
<glyph unicode="l" horiz-adv-x="508" d="M172 0Q172 111 172 213T172 438V987Q172 1113 172 1232T172 1464L337 1484Q337 1363 337 1242T337 987V438Q337 315 337 213T337 0H172Z" />
<glyph unicode="m" horiz-adv-x="1745" d="M172 0Q172 111 172 213T172 438V538Q172 648 172 763T172 992L316 1002L321 820H339Q370 864 417 909T530 985T679 1016Q801 1016 866 956T952 782L962 776Q966 749 968 721T971 661Q971 596 971 546T971 438Q971 320
971 216T971 0H806Q806 111 806 214T806 431V619Q806 738 766 799T621 860Q557 860 506 833T413 760T337 660V431Q337 314 337 213T337 0H172ZM1432 0Q1432 111 1432 214T1432 431V619Q1432 738 1392 799T1247 860Q1184 860 1133 833T1039 761T963 660L939 816H957Q991
862 1040 908T1156 985T1306 1016Q1462 1016 1529 923T1597 661Q1597 596 1597 546T1597 438Q1597 320 1597 216T1597 0H1432Z" />
<glyph unicode="n" horiz-adv-x="1146" d="M172 0Q172 111 172 213T172 438V538Q172 648 172 763T172 992L316 1002L321 818H339Q371 863 421 909T539 985T695 1016Q853 1016 926 925T999 661Q999 596 999 546T999 438Q999 320 999 216T999 0H834Q834 111 834
214T834 431V619Q834 738 792 799T638 860Q571 860 516 833T417 761T337 660V431Q337 314 337 213T337 0H172Z" />
<glyph unicode="o" horiz-adv-x="1195" d="M601 -22Q478 -22 385 20T228 136T133 303T100 502Q100 651 160 766T332 949T598 1016Q717 1016 809 977T965 868T1062 705T1095 502Q1095 355 1035 236T865 48T601 -22ZM601 122Q710 122 782 176T890 317T926 502Q926
614 886 697T773 826T600 872Q492 872 418 823T307 690T269 502Q269 404 305 317T416 176T601 122Z" />
<glyph unicode="p" horiz-adv-x="1183" d="M172 -390Q172 -280 172 -175T172 54V538Q172 648 172 763T172 992L322 1002L326 873H343Q373 912 419 944T524 996T655 1016Q791 1016 886 949T1032 764T1082 499Q1082 360 1036 242T895 51T658 -22Q592 -22 536 -5T435
45T352 125H337V47Q337 -70 337 -171T337 -384L172 -390ZM608 126Q715 126 782 179T881 316T913 498Q913 599 880 682T778 816T605 866Q553 866 503 851T411 805T337 729V288Q367 237 406 201T496 146T608 126Z" />
<glyph unicode="q" horiz-adv-x="1169" d="M846 -390Q846 -280 846 -175T846 47V126H832Q794 79 748 46T647 -4T525 -22Q383 -22 289 50T148 241T101 499Q101 647 151 764T296 948T528 1016Q599 1016 658 997T764 945T840 873H857L861 992L1011 1002Q1011 884
1011 773T1011 538V54Q1011 -69 1011 -171T1011 -384L846 -390ZM575 126Q637 126 687 145T776 201T846 288V729Q815 774 773 804T680 850T578 866Q473 866 405 816T304 683T270 498Q270 401 302 317T401 179T575 126Z" />
<glyph unicode="r" horiz-adv-x="799" d="M172 0Q172 111 172 213T172 438V538Q172 648 172 763T172 992L316 1002L321 800H338Q379 891 432 937T541 1000T642 1016Q670 1016 698 1012T751 999L736 833Q703 839 677 843T615 847Q586 847 550 839T475 804T400 725T337
585V431Q337 314 337 213T337 0H172Z" />
<glyph unicode="s" horiz-adv-x="910" d="M452 -22Q390 -22 328 -12T210 14T114 52L127 207Q173 181 225 162T334 132T448 121Q503 121 549 133T623 179T651 277Q651 319 627 346T547 395T394 444Q315 466 253 498T156 584T120 725Q120 860 208 937T447 1015Q509
1015 567 1005T674 977T759 941L745 786Q697 816 646 835T548 863T465 872Q424 872 384 861T316 819T289 731Q289 690 308 662T374 612T504 566Q603 537 673 506T782 423T820 282Q820 195 782 127T663 18T452 -22Z" />
<glyph unicode="t" horiz-adv-x="820" d="M548 -22Q449 -22 380 12T276 117T240 298Q240 385 240 470T240 638T240 797T240 944Q240 1046 240 1133T240 1314L403 1350Q403 1276 403 1213T403 1086T403 944V337Q403 230 448 176T588 122Q625 122 669 134T747 174L761
29Q741 14 707 3T632 -15T548 -22ZM49 861V992H751V861Q651 861 550 861T352 861H284H49Z" />
<glyph unicode="u" horiz-adv-x="1117" d="M451 -22Q293 -22 220 69T147 333Q147 399 147 447T147 543Q147 632 147 706T147 850T147 992L312 999Q312 889 312 783T312 560V372Q312 254 355 193T508 131Q572 131 625 158T722 231T802 331V560Q802 677 802 780T802
992H967Q967 883 967 778T967 543V438Q967 315 967 213T967 0H823L817 175H799Q768 130 719 85T602 9T451 -22Z" />
<glyph unicode="v" horiz-adv-x="1026" d="M420 0Q385 93 350 189T280 375L214 551Q173 660 132 771T50 992L227 999Q271 873 312 749T397 499L506 181H523L632 500Q676 627 717 749T800 992H976Q935 883 894 771T812 549L746 371Q711 277 677 186T608 0H420Z" />
<glyph unicode="w" horiz-adv-x="1601" d="M374 0Q344 94 313 187T250 378L193 554Q157 664 122 772T50 992L224 999Q261 877 301 743T379 484L471 177H487L577 491Q613 616 649 740T722 992H882Q918 871 955 745T1028 495L1121 177H1137L1231 499Q1266 620 1304
751T1375 992H1551Q1516 883 1481 773T1410 554L1354 380Q1322 283 1291 188T1230 0H1035Q1000 115 963 238T891 473L804 762H787L701 470Q668 359 632 237T561 0H374Z" />
<glyph unicode="x" horiz-adv-x="1064" d="M58 0Q103 68 136 117T199 211T263 306L413 530L415 483L268 696Q233 746 203 790T139 882T62 992L249 999Q296 929 332 873T410 754L516 594H530L635 754Q675 817 711 871T790 992H980Q935 928 903 882T841 794T777
703L627 489L619 533L786 305Q839 232 888 165T1009 0H809Q764 65 728 117T647 234L526 410H512L402 242Q359 176 324 122T244 0H58Z" />
<glyph unicode="y" horiz-adv-x="1035" d="M268 -390Q308 -292 348 -192T428 6V-36Q390 66 352 171T277 375L211 555Q172 662 131 774T50 992L227 999Q270 870 311 747T395 496L500 177H518L633 497Q678 622 722 745T811 992H986Q954 912 925 838T860 673T775
459L665 180Q590 -10 538 -143T442 -384L268 -390Z" />
<glyph unicode="z" horiz-adv-x="994" d="M77 0V85Q162 196 243 302T396 503L714 920L738 860H519Q465 860 391 860T235 860T81 860V992H891V893Q852 843 801 776T695 638T590 502L274 89L256 132H498Q552 132 625 132T777 132T922 132V0H77Z" />
<glyph unicode="{" horiz-adv-x="809" d="M603 -234Q501 -234 429 -201T317 -105T277 50Q277 84 277 117T277 184T277 252T277 319T277 387Q277 458 251 502T182 566T91 586H25V712H91Q140 712 182 731T250 795T277 911Q277 945 277 978T277 1046T277 1113T277
1181T277 1249Q277 1385 364 1459T603 1533H775V1394Q728 1394 689 1394T623 1394Q529 1394 481 1351T432 1225V913Q432 835 413 787T357 709T270 658V641Q320 619 356 589T412 511T432 384V74Q432 -9 480 -52T623 -96Q649 -96 688 -96T778 -96V-234H603Z" />
<glyph unicode="|" horiz-adv-x="528" d="M190 -313Q190 -224 190 -141T190 23T190 184T190 345V909Q190 990 190 1070T190 1230T190 1395T190 1567H338Q338 1479 338 1395T338 1231T338 1070T338 909V345Q338 264 338 184T338 24T338 -140T338 -313H190Z" />
<glyph unicode="}" horiz-adv-x="809" d="M34 -234V-96Q81 -96 120 -96T185 -96Q280 -96 328 -53T377 74V386Q377 463 396 511T452 589T539 641V658Q489 680 453 710T397 788T377 915V1225Q377 1308 329 1351T185 1394Q160 1394 121 1394T31 1394V1533H206Q307
1533 380 1500T492 1403T531 1249Q531 1215 531 1181T531 1114T531 1047T531 980T531 912Q531 840 557 796T626 733T717 713H783V587H717Q669 587 627 568T558 504T531 388Q531 354 531 321T531 253T531 185T531 118T531 50Q531 -86 445 -160T206 -234H34Z" />
<glyph unicode="~" horiz-adv-x="1136" d="M793 442Q726 442 668 467T559 524T461 582T367 607Q311 607 274 574T234 473H124Q124 607 187 681T349 755Q416 755 473 730T581 673T679 615T774 590Q829 590 864 623T902 724H1013Q1013 590 951 516T793 442Z" />
<glyph unicode="&#xa0;" horiz-adv-x="383" />
<glyph unicode="&#xa1;" horiz-adv-x="472" d="M134 -395Q144 -155 153 89T166 578L302 581Q306 335 315 93T334 -389L134 -395ZM236 838Q195 838 166 855T120 901T104 969Q104 1028 140 1062T236 1097Q278 1097 307 1082T352 1037T369 969Q369 911 334 875T236 838Z" />
<glyph unicode="&#xa2;" horiz-adv-x="989" d="M500 -274Q500 -185 500 -102T500 62T500 223T500 384V591Q500 672 500 752T500 912T500 1077T500 1249H625Q625 1161 625 1077T625 913T625 752T625 591V384Q625 303 625 223T625 62T625 -102T625 -274H500ZM604
-20Q443 -20 331 48T159 233T100 497Q100 644 156 761T321 947T586 1015Q644 1015 700 1005T807 979T896 940L881 788Q825 820 776 837T684 861T605 868Q453 868 361 769T269 500Q269 394 309 309T431 174T634 124Q677 124 719 132T804 155T885 196L899 45Q866
27 822 13T724 -11T604 -20Z" />
<glyph unicode="&#xa3;" horiz-adv-x="1182" d="M128 0V99Q192 154 225 213T270 335T282 459Q282 571 282 682T282 904Q282 1152 403 1274T746 1397Q805 1397 862 1388T969 1361T1058 1322L1041 1168Q983 1199 933 1216T840 1239T759 1245Q608 1245 532 1160T456
895V499Q456 426 441 361T386 233T268 109L252 153H537Q665 153 763 153T945 153T1115 153V0H128ZM119 690V813Q214 813 301 813T466 813H533Q610 813 698 813T880 813V690Q786 690 698 690T533 690H466Q389 690 302 690T119 690Z" />
<glyph unicode="&#xa4;" horiz-adv-x="1246" d="M620 231Q530 231 454 258T323 339T237 469T206 641Q206 762 259 854T407 998T624 1050Q713 1050 789 1021T920 937T1006 807T1037 641Q1037 512 983 420T835 280T620 231ZM196 108L90 214Q156 281 218 343T334
459L440 353Q387 299 325 237T196 108ZM620 374Q732 374 808 439T885 641Q885 724 851 784T757 876T623 908Q549 908 489 877T394 785T358 641Q358 550 393 491T487 403T620 374ZM335 825Q282 880 220 942T91 1070L195 1174Q261 1108 323 1046T439 929L335 825ZM1051
109Q986 176 924 238T807 354L911 458Q965 404 1027 342T1155 213L1051 109ZM912 824L806 930Q860 985 922 1047T1050 1175L1156 1069Q1090 1003 1028 941T912 824Z" />
<glyph unicode="&#xa5;" horiz-adv-x="1248" d="M542 539L247 1043Q219 1091 194 1135T136 1234T55 1371H254Q305 1279 342 1214T412 1090T485 959L615 725H634L766 961Q806 1031 839 1090T910 1215T999 1371H1193Q1147 1292 1098 1208T1002 1044L708 539H542ZM539
0Q539 114 539 220T539 452V680H712V452Q712 326 712 220T712 0H539ZM160 283V394Q254 394 342 394T506 394H745Q822 394 909 394T1091 394V283Q997 283 910 283T745 283H506Q430 283 342 283T160 283ZM160 569V681Q254 681 342 681T506 681H745Q822 681 909 681T1091
681V569Q997 569 910 569T745 569H506Q430 569 342 569T160 569Z" />
<glyph unicode="&#xa6;" horiz-adv-x="528" d="M190 727V909Q190 990 190 1070T190 1230T190 1395T190 1567H338Q338 1479 338 1395T338 1231T338 1070T338 909V727H190ZM190 -313Q190 -224 190 -141T190 23T190 184T190 345V527H338V345Q338 264 338 184T338
24T338 -140T338 -313H190Z" />
<glyph unicode="&#xa7;" horiz-adv-x="1093" d="M492 -251Q417 -251 343 -239T202 -206T86 -158L101 -5Q156 -38 218 -61T347 -98T479 -111Q552 -111 612 -93T708 -29T744 96Q744 154 714 190T613 254T424 320Q327 350 253 391T138 493T96 645Q96 717 123 779T205
887T337 957L437 854Q394 846 355 822T291 757T266 655Q266 596 293 557T380 488T533 431Q653 396 738 357T868 256T913 92Q913 -4 870 -81T733 -205T492 -251ZM792 256L690 350Q761 369 804 423T848 561Q848 622 818 661T717 730T528 796Q436 822 361 862T242
965T198 1125Q198 1272 300 1362T579 1452Q650 1452 717 1440T842 1408T944 1362L931 1209Q870 1248 812 1271T701 1303T606 1312Q571 1312 530 1305T453 1277T393 1219T370 1122Q370 1068 397 1031T483 965T637 908Q756 873 841 833T971 731T1017 575Q1017 470
963 386T792 256Z" />
<glyph unicode="&#xa8;" horiz-adv-x="1200" d="M809 1207Q760 1207 730 1236T700 1323Q700 1380 730 1410T811 1440Q861 1440 890 1409T919 1323Q919 1265 890 1236T809 1207ZM385 1207Q336 1207 306 1236T276 1323Q276 1380 306 1410T387 1440Q437 1440 466
1409T495 1323Q495 1265 466 1236T385 1207Z" />
<glyph unicode="&#xa9;" horiz-adv-x="1635" d="M825 -22Q643 -22 508 34T282 189T146 416T100 688Q100 888 184 1048T430 1303T818 1397Q1050 1397 1210 1302T1452 1046T1535 689Q1535 485 1450 325T1206 71T825 -22ZM842 311Q725 311 643 361T517 496T474 688Q474
795 515 880T636 1016T829 1066Q871 1066 912 1059T991 1040T1056 1011L1044 889Q983 927 933 938T842 949Q740 949 674 883T608 691Q608 572 673 499T864 426Q912 426 957 439T1046 479L1058 358Q1034 346 1002 335T929 318T842 311ZM824 87Q1008 87 1142 161T1349
370T1422 689Q1422 870 1350 1005T1143 1214T819 1289Q632 1289 496 1214T287 1004T213 688Q213 507 285 372T493 162T824 87Z" />
<glyph unicode="&#xaa;" horiz-adv-x="791" d="M301 665Q194 665 137 724T80 872Q80 936 102 980T161 1053T238 1098T317 1122L561 1171Q564 1239 542 1275T478 1324T384 1337Q351 1337 311 1331T223 1311T121 1270L113 1394Q142 1406 176 1416T250 1434T331 1447T413
1452Q536 1452 608 1391T680 1192Q680 1160 680 1103T680 1002V913Q680 862 680 805T680 680H568L562 800H550Q526 763 488 733T402 684T301 665ZM347 775Q385 775 424 789T498 833T558 912V1095Q546 1088 527 1081T471 1064T369 1041Q328 1033 291 1017T230 973T206
898Q206 832 246 804T347 775Z" />
<glyph unicode="&#xab;" horiz-adv-x="1136" d="M894 -4Q800 123 707 249T519 502Q613 629 706 755T894 1009L1062 999Q971 877 881 755T699 509V492Q790 370 880 249T1062 5L894 -4ZM434 -4Q340 123 247 249T59 502Q153 629 246 755T434 1009L602 999Q511 877
421 755T239 509V492Q330 370 420 249T602 5L434 -4Z" />
<glyph unicode="&#xac;" horiz-adv-x="1136" d="M862 318Q862 412 862 500T862 664V826L982 723Q897 723 817 723T667 723H470Q394 723 306 723T124 723V871Q218 871 306 871T470 871H667Q744 871 831 871T1013 871V664Q1013 588 1013 500T1013 318H862Z" />
<glyph unicode="&#xad;" horiz-adv-x="845" d="M124 521V669Q206 669 281 669T423 669Q489 669 565 669T722 669V521Q641 521 565 521T423 521Q357 521 282 521T124 521Z" />
<glyph unicode="&#xae;" horiz-adv-x="1138" d="M574 510Q405 510 294 578T127 757T72 1000Q72 1138 129 1249T297 1426T569 1491Q731 1491 842 1425T1009 1248T1066 1001Q1066 860 1008 749T840 574T574 510ZM372 728Q372 776 372 820T372 916V1108Q372 1161
372 1205T372 1298L461 1285Q461 1238 461 1195T461 1100V916Q461 864 461 820T461 728H372ZM573 585Q704 585 796 637T936 783T985 1001Q985 1123 938 1216T797 1362T569 1415Q435 1415 342 1363T200 1216T151 1000Q151 910 178 834T258 702T390 616T573 585ZM717
728Q689 767 665 800T615 867L521 996L576 961H444V1028H546Q607 1028 644 1050T682 1133Q682 1176 663 1195T616 1218T568 1222H432L372 1298Q406 1298 456 1298T572 1298Q665 1298 719 1262T774 1140Q774 1070 731 1020T580 969L614 1007L700 893Q732 851 765
806T824 728H717Z" />
<glyph unicode="&#xaf;" horiz-adv-x="1200" d="M286 1252V1381Q357 1381 436 1381T600 1381Q686 1381 764 1381T914 1381V1252Q843 1252 765 1252T600 1252Q515 1252 436 1252T286 1252Z" />
<glyph unicode="&#xb0;" horiz-adv-x="957" d="M478 630Q360 630 269 677T127 810T75 1012Q75 1122 127 1209T270 1346T480 1397Q598 1397 688 1347T830 1209T882 1012Q882 896 831 810T688 677T478 630ZM478 757Q599 757 668 825T738 1011Q738 1086 707 1144T617
1237T480 1271Q360 1271 290 1198T219 1011Q219 932 250 876T340 788T478 757Z" />
<glyph unicode="&#xb1;" horiz-adv-x="1136" d="M124 0V148Q218 148 306 148T470 148H667Q744 148 831 148T1013 148V0Q919 0 832 0T667 0H470Q394 0 306 0T124 0ZM124 717V865Q218 865 306 865T470 865H667Q744 865 831 865T1013 865V717Q919 717 832 717T667
717H470Q394 717 306 717T124 717ZM493 323Q493 417 493 505T493 669V913Q493 990 493 1078T493 1259H644Q644 1166 644 1078T644 913V669Q644 593 644 505T644 323H493Z" />
<glyph unicode="&#xb2;" horiz-adv-x="804" d="M70 603V698Q112 732 154 767T240 837Q341 919 412 989T521 1124T559 1256Q559 1337 512 1379T365 1421Q321 1421 273 1410T176 1378T79 1327L65 1463Q97 1479 135 1493T215 1519T301 1536T391 1542Q491 1542 560
1510T666 1417T703 1274Q703 1200 668 1127T561 977T384 817L229 695L207 725H359Q449 725 540 725T720 725V603H70Z" />
<glyph unicode="&#xb3;" horiz-adv-x="828" d="M400 586Q355 586 309 591T220 607T138 630T68 660L82 787Q120 767 159 752T236 726T312 710T385 705Q505 705 556 750T607 865Q607 946 537 989T338 1032Q315 1032 292 1032T245 1032V1129Q267 1129 288 1129T332
1129Q458 1129 516 1174T575 1288Q575 1357 524 1390T386 1423Q340 1423 293 1412T197 1380T103 1330L90 1461Q121 1477 158 1491T235 1517T320 1535T408 1542Q501 1542 571 1514T679 1435T718 1314Q718 1228 664 1173T536 1100V1089Q586 1080 635 1052T717 974T750
850Q750 737 664 662T400 586Z" />
<glyph unicode="&#xb4;" horiz-adv-x="1200" d="M452 1154Q520 1254 588 1354T723 1552L908 1556Q853 1488 799 1421T692 1288T586 1156L452 1154Z" />
<glyph unicode="&#xb5;" horiz-adv-x="1149" d="M172 -390Q172 -280 172 -175T172 54V543Q172 632 172 706T172 850T172 992L337 999Q337 925 337 854T337 711T337 560V372Q337 254 379 193T533 131Q596 131 649 158T747 231T827 331V560Q827 677 827 780T827
992H992Q992 919 992 849T992 704T992 543V314Q992 245 992 168T992 0H849Q847 44 845 88T841 177H823Q794 132 748 86T639 9T498 -22Q418 -22 364 5T276 89H337V47Q337 -70 337 -171T337 -384L172 -390Z" />
<glyph unicode="&#xb6;" horiz-adv-x="1094" d="M443 599Q322 599 238 657T110 811T66 1019Q66 1137 113 1229T245 1373T443 1426H484V599H443ZM448 -350Q448 -173 448 -14T448 308V768Q448 930 448 1089T448 1426H563Q563 1249 563 1090T563 768V308Q563 146
563 -13T563 -350H448ZM741 -350Q741 -173 741 -14T741 308V768Q741 930 741 1089T741 1426H855Q855 1249 855 1090T855 768V308Q855 146 855 -13T855 -350H741ZM497 1317V1426H694Q770 1426 858 1426T1040 1426V1317Q946 1317 858 1317T694 1317H497Z" />
<glyph unicode="&#xb7;" horiz-adv-x="472" d="M236 509Q195 509 166 526T120 572T104 640Q104 699 140 734T236 769Q278 769 307 753T352 708T369 640Q369 582 334 546T236 509Z" />
<glyph unicode="&#xb8;" horiz-adv-x="1200" d="M550 -430Q529 -430 506 -428T463 -423T427 -414V-308Q441 -313 468 -317T529 -322Q599 -322 627 -299T655 -242Q655 -222 641 -203T590 -169T483 -146L561 37H657V0L607 -115Q679 -126 719 -149T775 -202T791 -266Q791
-311 767 -348T690 -408T550 -430Z" />
<glyph unicode="&#xb9;" horiz-adv-x="636" d="M80 1238L48 1349Q139 1395 227 1439T404 1526L400 1399Q329 1363 250 1323T80 1238ZM334 603Q334 677 334 745T334 897V1177Q334 1250 334 1321T334 1464L404 1526L471 1523Q471 1446 471 1366T471 1201V897Q471
814 471 746T471 603H334Z" />
<glyph unicode="&#xba;" horiz-adv-x="911" d="M458 664Q334 664 249 720T120 866T76 1063Q76 1175 122 1263T253 1401T456 1452Q576 1452 661 1401T790 1261T834 1063Q834 951 789 861T659 717T458 664ZM457 778Q539 778 593 818T673 924T700 1063Q700 1187 635
1262T457 1338Q377 1338 322 1301T239 1202T210 1063Q210 990 237 925T320 819T457 778Z" />
<glyph unicode="&#xbb;" horiz-adv-x="1136" d="M702 -4L534 6Q625 128 715 250T897 495V513Q806 635 716 756T534 1000L702 1009Q796 882 889 756T1077 502Q983 376 890 250T702 -4ZM243 -4L75 6Q166 128 256 250T437 495V513Q346 635 256 756T75 1000L243 1009Q337
882 430 756T617 502Q523 376 430 250T243 -4Z" />
<glyph unicode="&#xbc;" horiz-adv-x="1886" d="M80 1141L48 1252Q139 1298 227 1342T404 1429L400 1302Q329 1266 250 1226T80 1141ZM334 506Q334 580 334 648T334 800V1080Q334 1153 334 1224T334 1367L404 1429L471 1426Q471 1349 471 1269T471 1104V800Q471
717 471 649T471 506H334ZM454 0Q514 110 571 216T704 459L974 954Q1025 1048 1067 1126T1149 1277T1231 1426H1396Q1355 1350 1316 1278T1234 1127T1139 954L869 459Q795 322 738 216T620 0H454ZM1531 0Q1531 64 1531 120T1531 256L1543 279V572Q1543 642 1543
713T1543 855L1639 903Q1600 850 1562 799T1484 696L1316 471Q1281 424 1249 381T1182 292L1177 315H1568L1588 326Q1645 326 1718 326T1843 326V204Q1791 204 1718 204T1588 204H1066V298Q1093 333 1129 382T1204 482T1274 575L1397 739Q1431 784 1465 830T1533
920H1669Q1669 835 1669 755T1669 595V256Q1669 177 1669 121T1669 0H1531Z" />
<glyph unicode="&#xbd;" horiz-adv-x="2018" d="M80 1141L48 1252Q139 1298 227 1342T404 1429L400 1302Q329 1266 250 1226T80 1141ZM334 506Q334 580 334 648T334 800V1080Q334 1153 334 1224T334 1367L404 1429L471 1426Q471 1349 471 1269T471 1104V800Q471
717 471 649T471 506H334ZM454 0Q514 110 571 216T704 459L974 954Q1025 1048 1067 1126T1149 1277T1231 1426H1396Q1355 1350 1316 1278T1234 1127T1139 954L869 459Q795 322 738 216T620 0H454ZM1284 0V95Q1326 129 1368 164T1454 234Q1555 316 1626 386T1735
521T1773 653Q1773 734 1726 776T1579 818Q1535 818 1487 807T1390 775T1293 724L1279 860Q1311 876 1349 890T1429 916T1515 933T1605 939Q1705 939 1774 907T1880 814T1917 671Q1917 597 1882 524T1775 374T1598 214L1443 92L1421 122H1573Q1663 122 1754 122T1934
122V0H1284Z" />
<glyph unicode="&#xbe;" horiz-adv-x="1995" d="M400 489Q355 489 309 494T220 510T138 533T68 563L82 690Q120 670 159 655T236 629T312 613T385 608Q505 608 556 653T607 768Q607 849 537 892T338 935Q315 935 292 935T245 935V1032Q267 1032 288 1032T332 1032Q458
1032 516 1077T575 1191Q575 1260 524 1293T386 1326Q340 1326 293 1315T197 1283T103 1233L90 1364Q121 1380 158 1394T235 1420T320 1438T408 1445Q501 1445 571 1417T679 1338T718 1217Q718 1131 664 1076T536 1003V992Q586 983 635 955T717 877T750 753Q750
640 664 565T400 489ZM563 0Q623 110 680 216T813 459L1083 954Q1134 1048 1176 1126T1258 1277T1340 1426H1505Q1464 1350 1425 1278T1343 1127T1248 954L978 459Q904 322 847 216T729 0H563ZM1641 0Q1641 64 1641 120T1641 256L1653 279V572Q1653 642 1653 713T1653
855L1749 903Q1710 850 1672 799T1594 696L1426 471Q1391 424 1359 381T1292 292L1287 315H1678L1698 326Q1755 326 1828 326T1953 326V204Q1901 204 1828 204T1698 204H1176V298Q1203 333 1239 382T1314 482T1384 575L1507 739Q1541 784 1575 830T1643 920H1779Q1779
835 1779 755T1779 595V256Q1779 177 1779 121T1779 0H1641Z" />
<glyph unicode="&#xbf;" horiz-adv-x="796" d="M449 -422Q343 -422 265 -391T144 -297T101 -141Q101 -49 140 18T237 137T354 230Q419 278 468 324T517 428Q517 492 477 516T383 541Q347 541 317 534T265 517L258 609Q276 615 302 621T360 631T423 635Q540 635
604 581T668 436Q668 372 639 324T562 235T463 157Q413 120 367 81T292 -5T263 -113Q263 -193 319 -235T478 -278Q523 -278 571 -269T668 -243T767 -200L776 -349Q750 -360 715 -372T637 -396T548 -415T449 -422ZM461 838Q420 838 391 855T345 901T328 969Q328
1028 364 1062T461 1097Q502 1097 531 1082T577 1037T593 969Q593 911 558 875T461 838Z" />
<glyph unicode="&#xc0;" horiz-adv-x="1380" d="M59 0Q101 115 146 242T234 483L411 973Q458 1105 497 1211T575 1426H813Q852 1316 890 1210T975 972L1151 481Q1193 363 1237 239T1323 0H1135Q1092 125 1047 257T961 507L701 1263H684L422 514Q379 392 333 259T242
0H59ZM323 358L339 500H1061L1074 358H323ZM704 1573Q651 1633 598 1692T492 1812T382 1936L566 1938Q634 1848 702 1757T838 1576L704 1573Z" />
<glyph unicode="&#xc1;" horiz-adv-x="1380" d="M59 0Q101 115 146 242T234 483L411 973Q458 1105 497 1211T575 1426H813Q852 1316 890 1210T975 972L1151 481Q1193 363 1237 239T1323 0H1135Q1092 125 1047 257T961 507L701 1263H684L422 514Q379 392 333 259T242
0H59ZM323 358L339 500H1061L1074 358H323ZM542 1573Q611 1665 678 1755T813 1936L998 1938Q943 1876 890 1816T783 1695T676 1576L542 1573Z" />
<glyph unicode="&#xc2;" horiz-adv-x="1380" d="M59 0Q101 115 146 242T234 483L411 973Q458 1105 497 1211T575 1426H813Q852 1316 890 1210T975 972L1151 481Q1193 363 1237 239T1323 0H1135Q1092 125 1047 257T961 507L701 1263H684L422 514Q379 392 333 259T242
0H59ZM323 358L339 500H1061L1074 358H323ZM916 1571Q853 1646 791 1718T663 1867H711Q647 1792 586 1720T460 1575H326Q393 1664 461 1754T597 1936H778Q846 1845 914 1755T1050 1574L916 1571Z" />
<glyph unicode="&#xc3;" horiz-adv-x="1380" d="M59 0Q101 115 146 242T234 483L411 973Q458 1105 497 1211T575 1426H813Q852 1316 890 1210T975 972L1151 481Q1193 363 1237 239T1323 0H1135Q1092 125 1047 257T961 507L701 1263H684L422 514Q379 392 333 259T242
0H59ZM323 358L339 500H1061L1074 358H323ZM859 1568Q799 1568 756 1594T677 1654T611 1715T543 1741Q485 1741 462 1704T436 1599H335Q335 1729 386 1798T526 1868Q585 1868 628 1842T705 1782T771 1722T840 1696Q897 1696 919 1733T944 1838H1045Q1045 1707 995
1638T859 1568Z" />
<glyph unicode="&#xc4;" horiz-adv-x="1380" d="M59 0Q101 115 146 242T234 483L411 973Q458 1105 497 1211T575 1426H813Q852 1316 890 1210T975 972L1151 481Q1193 363 1237 239T1323 0H1135Q1092 125 1047 257T961 507L701 1263H684L422 514Q379 392 333 259T242
0H59ZM323 358L339 500H1061L1074 358H323ZM901 1626Q852 1626 822 1655T792 1742Q792 1799 822 1829T903 1859Q953 1859 982 1828T1011 1742Q1011 1685 982 1656T901 1626ZM477 1626Q428 1626 398 1655T368 1742Q368 1799 398 1829T479 1859Q529 1859 558 1828T587
1742Q587 1685 558 1656T477 1626Z" />
<glyph unicode="&#xc5;" horiz-adv-x="1380" d="M59 0Q101 115 146 242T234 483L411 973Q458 1105 497 1211T575 1426H813Q852 1316 890 1210T975 972L1151 481Q1193 363 1237 239T1323 0H1135Q1092 125 1047 257T961 507L701 1263H684L422 514Q379 392 333 259T242
0H59ZM323 358L339 500H1061L1074 358H323ZM688 1559Q621 1559 570 1583T490 1655T461 1769Q461 1863 524 1919T690 1976Q757 1976 808 1950T888 1877T917 1769Q917 1701 888 1655T808 1584T688 1559ZM688 1647Q745 1647 781 1677T818 1768Q818 1823 782 1856T690
1890Q633 1890 597 1857T560 1768Q560 1708 596 1678T688 1647Z" />
<glyph unicode="&#xc6;" horiz-adv-x="1941" d="M29 0Q92 115 160 241T291 483L559 976Q627 1103 685 1210T802 1426H1825V1271Q1758 1271 1686 1271T1530 1271T1341 1271H1061L1117 1400Q1117 1280 1117 1169T1117 924V498Q1117 367 1117 257T1117 27L1064 155H1356Q1443
155 1524 155T1680 155T1828 155V0H939Q939 119 939 229T939 471V950Q939 1083 939 1193T939 1410L1028 1276H902L494 514Q428 392 357 259T218 0H29ZM364 358L380 501H1007L1020 358H364ZM1077 647V798H1354Q1493 798 1592 798T1785 798V647Q1736 647 1688 647T1588
647T1479 647T1354 647H1077Z" />
<glyph unicode="&#xc7;" horiz-adv-x="1370" d="M831 -22Q662 -22 527 33T296 187T151 421T100 715Q100 931 189 1097T436 1358T804 1452Q875 1452 942 1442T1069 1415T1180 1378T1268 1337L1252 1163Q1174 1209 1101 1237T957 1279T819 1292Q665 1292 545 1222T357
1023T288 714Q288 595 323 490T429 305T604 180T848 134Q899 134 950 140T1051 161T1149 198T1245 254L1259 82Q1217 55 1167 35T1061 3T947 -16T831 -22ZM749 -430Q728 -430 705 -428T662 -423T626 -414V-308Q640 -313 667 -317T728 -322Q798 -322 826 -299T854
-242Q854 -222 840 -203T789 -169T682 -146L760 37H856V0L806 -115Q878 -126 918 -149T974 -202T990 -266Q990 -311 966 -348T889 -408T749 -430Z" />
<glyph unicode="&#xc8;" horiz-adv-x="1187" d="M185 0Q185 119 185 229T185 471V950Q185 1083 185 1195T185 1426H1071V1271Q971 1271 857 1271T586 1271H262L362 1400Q362 1280 362 1169T362 924V498Q362 367 362 257T362 27L272 155H602Q733 155 849 155T1073
155V0H185ZM323 647V798H600Q738 798 838 798T1031 798V647Q933 647 834 647T599 647H323ZM645 1573Q592 1633 539 1692T433 1812T323 1936L507 1938Q575 1848 643 1757T779 1576L645 1573Z" />
<glyph unicode="&#xc9;" horiz-adv-x="1187" d="M185 0Q185 119 185 229T185 471V950Q185 1083 185 1195T185 1426H1071V1271Q971 1271 857 1271T586 1271H262L362 1400Q362 1280 362 1169T362 924V498Q362 367 362 257T362 27L272 155H602Q733 155 849 155T1073
155V0H185ZM323 647V798H600Q738 798 838 798T1031 798V647Q933 647 834 647T599 647H323ZM483 1573Q552 1665 619 1755T754 1936L939 1938Q884 1876 831 1816T724 1695T617 1576L483 1573Z" />
<glyph unicode="&#xca;" horiz-adv-x="1187" d="M185 0Q185 119 185 229T185 471V950Q185 1083 185 1195T185 1426H1071V1271Q971 1271 857 1271T586 1271H262L362 1400Q362 1280 362 1169T362 924V498Q362 367 362 257T362 27L272 155H602Q733 155 849 155T1073
155V0H185ZM323 647V798H600Q738 798 838 798T1031 798V647Q933 647 834 647T599 647H323ZM857 1571Q794 1646 732 1718T604 1867H652Q588 1792 527 1720T401 1575H267Q334 1664 402 1754T538 1936H719Q787 1845 855 1755T991 1574L857 1571Z" />
<glyph unicode="&#xcb;" horiz-adv-x="1187" d="M185 0Q185 119 185 229T185 471V950Q185 1083 185 1195T185 1426H1071V1271Q971 1271 857 1271T586 1271H262L362 1400Q362 1280 362 1169T362 924V498Q362 367 362 257T362 27L272 155H602Q733 155 849 155T1073
155V0H185ZM323 647V798H600Q738 798 838 798T1031 798V647Q933 647 834 647T599 647H323ZM842 1626Q793 1626 763 1655T733 1742Q733 1799 763 1829T844 1859Q894 1859 923 1828T952 1742Q952 1685 923 1656T842 1626ZM418 1626Q369 1626 339 1655T309 1742Q309
1799 339 1829T420 1859Q470 1859 499 1828T528 1742Q528 1685 499 1656T418 1626Z" />
<glyph unicode="&#xcc;" horiz-adv-x="559" d="M188 0Q188 119 188 229T188 471V949Q188 1084 188 1195T188 1426H372Q372 1307 372 1196T372 949V471Q372 339 372 229T372 0H188ZM291 1573Q238 1633 185 1692T79 1812T-31 1936L153 1938Q221 1848 289 1757T425
1576L291 1573Z" />
<glyph unicode="&#xcd;" horiz-adv-x="559" d="M188 0Q188 119 188 229T188 471V949Q188 1084 188 1195T188 1426H372Q372 1307 372 1196T372 949V471Q372 339 372 229T372 0H188ZM129 1573Q198 1665 265 1755T400 1936L585 1938Q530 1876 477 1816T370 1695T263
1576L129 1573Z" />
<glyph unicode="&#xce;" horiz-adv-x="559" d="M188 0Q188 119 188 229T188 471V949Q188 1084 188 1195T188 1426H372Q372 1307 372 1196T372 949V471Q372 339 372 229T372 0H188ZM503 1571Q440 1646 378 1718T250 1867H298Q234 1792 173 1720T47 1575H-87Q-20
1664 48 1754T184 1936H365Q433 1845 501 1755T637 1574L503 1571Z" />
<glyph unicode="&#xcf;" horiz-adv-x="559" d="M188 0Q188 119 188 229T188 471V949Q188 1084 188 1195T188 1426H372Q372 1307 372 1196T372 949V471Q372 339 372 229T372 0H188ZM488 1626Q439 1626 409 1655T379 1742Q379 1799 409 1829T490 1859Q540 1859 569
1828T598 1742Q598 1685 569 1656T488 1626ZM64 1626Q15 1626 -15 1655T-45 1742Q-45 1799 -15 1829T66 1859Q116 1859 145 1828T174 1742Q174 1685 145 1656T64 1626Z" />
<glyph unicode="&#xd0;" horiz-adv-x="1473" d="M-23 632V764Q70 764 155 764T316 764H409Q484 764 570 764T748 764V632Q656 632 570 632T409 632H316Q241 632 156 632T-23 632ZM185 0Q185 119 185 229T185 471V949Q185 1084 185 1195T185 1426Q275 1426 357
1426T520 1426T686 1426Q851 1426 979 1379T1194 1240T1327 1017T1373 719Q1373 568 1333 438T1206 209T977 55T632 0Q546 0 473 0T331 0T185 0ZM366 151H633Q837 151 958 225T1132 429T1185 722Q1185 847 1154 949T1058 1124T893 1236T655 1275H366Q366 1189 366
1104T366 916V506Q366 406 366 321T366 151Z" />
<glyph unicode="&#xd1;" horiz-adv-x="1508" d="M185 0Q185 119 185 229T185 471V949Q185 1084 185 1195T185 1426H348Q476 1246 594 1079T827 750L1136 314H1151V949Q1151 1084 1151 1195T1151 1426H1323Q1323 1307 1323 1196T1323 949V471Q1323 339 1323 229T1323
0H1162Q1056 150 939 315T682 679L371 1118H357V471Q357 339 357 229T357 0H185ZM924 1568Q864 1568 821 1594T742 1654T676 1715T608 1741Q550 1741 527 1704T501 1599H400Q400 1729 451 1798T591 1868Q650 1868 693 1842T770 1782T836 1722T905 1696Q962 1696
984 1733T1009 1838H1110Q1110 1707 1060 1638T924 1568Z" />
<glyph unicode="&#xd2;" horiz-adv-x="1634" d="M824 -22Q643 -22 507 36T281 197T145 433T100 714Q100 922 184 1089T429 1354T818 1452Q992 1452 1125 1395T1350 1237T1487 1002T1533 715Q1533 504 1449 338T1206 75T824 -22ZM819 134Q956 134 1055 181T1218
311T1314 497T1345 715Q1345 837 1312 942T1212 1127T1047 1251T819 1296Q685 1296 586 1249T420 1121T321 935T288 715Q288 599 320 495T417 310T583 181T819 134ZM830 1573Q777 1633 724 1692T618 1812T508 1936L692 1938Q760 1848 828 1757T964 1576L830 1573Z"
/>
<glyph unicode="&#xd3;" horiz-adv-x="1634" d="M824 -22Q643 -22 507 36T281 197T145 433T100 714Q100 922 184 1089T429 1354T818 1452Q992 1452 1125 1395T1350 1237T1487 1002T1533 715Q1533 504 1449 338T1206 75T824 -22ZM819 134Q956 134 1055 181T1218
311T1314 497T1345 715Q1345 837 1312 942T1212 1127T1047 1251T819 1296Q685 1296 586 1249T420 1121T321 935T288 715Q288 599 320 495T417 310T583 181T819 134ZM668 1573Q737 1665 804 1755T939 1936L1124 1938Q1069 1876 1016 1816T909 1695T802 1576L668
1573Z" />
<glyph unicode="&#xd4;" horiz-adv-x="1634" d="M824 -22Q643 -22 507 36T281 197T145 433T100 714Q100 922 184 1089T429 1354T818 1452Q992 1452 1125 1395T1350 1237T1487 1002T1533 715Q1533 504 1449 338T1206 75T824 -22ZM819 134Q956 134 1055 181T1218
311T1314 497T1345 715Q1345 837 1312 942T1212 1127T1047 1251T819 1296Q685 1296 586 1249T420 1121T321 935T288 715Q288 599 320 495T417 310T583 181T819 134ZM1042 1571Q979 1646 917 1718T789 1867H837Q773 1792 712 1720T586 1575H452Q519 1664 587 1754T723
1936H904Q972 1845 1040 1755T1176 1574L1042 1571Z" />
<glyph unicode="&#xd5;" horiz-adv-x="1634" d="M824 -22Q643 -22 507 36T281 197T145 433T100 714Q100 922 184 1089T429 1354T818 1452Q992 1452 1125 1395T1350 1237T1487 1002T1533 715Q1533 504 1449 338T1206 75T824 -22ZM819 134Q956 134 1055 181T1218
311T1314 497T1345 715Q1345 837 1312 942T1212 1127T1047 1251T819 1296Q685 1296 586 1249T420 1121T321 935T288 715Q288 599 320 495T417 310T583 181T819 134ZM985 1568Q925 1568 882 1594T803 1654T737 1715T669 1741Q611 1741 588 1704T562 1599H461Q461
1729 512 1798T652 1868Q711 1868 754 1842T831 1782T897 1722T966 1696Q1023 1696 1045 1733T1070 1838H1171Q1171 1707 1121 1638T985 1568Z" />
<glyph unicode="&#xd6;" horiz-adv-x="1634" d="M824 -22Q643 -22 507 36T281 197T145 433T100 714Q100 922 184 1089T429 1354T818 1452Q992 1452 1125 1395T1350 1237T1487 1002T1533 715Q1533 504 1449 338T1206 75T824 -22ZM819 134Q956 134 1055 181T1218
311T1314 497T1345 715Q1345 837 1312 942T1212 1127T1047 1251T819 1296Q685 1296 586 1249T420 1121T321 935T288 715Q288 599 320 495T417 310T583 181T819 134ZM1027 1626Q978 1626 948 1655T918 1742Q918 1799 948 1829T1029 1859Q1079 1859 1108 1828T1137
1742Q1137 1685 1108 1656T1027 1626ZM603 1626Q554 1626 524 1655T494 1742Q494 1799 524 1829T605 1859Q655 1859 684 1828T713 1742Q713 1685 684 1656T603 1626Z" />
<glyph unicode="&#xd7;" horiz-adv-x="1132" d="M901 157Q835 224 772 287T655 403L370 688Q316 742 254 804T125 932L231 1038Q298 973 360 910T477 792L761 509Q816 454 878 392T1007 263L901 157ZM231 157L125 263Q170 307 212 349T295 432T371 509L656 793Q711
848 773 910T901 1038L1007 932Q941 867 879 805T761 687L477 403Q424 350 361 287T231 157Z" />
<glyph unicode="&#xd8;" horiz-adv-x="1634" d="M824 -22Q643 -22 507 36T281 197T145 433T100 714Q100 922 184 1089T429 1354T818 1452Q992 1452 1125 1395T1350 1237T1487 1002T1533 715Q1533 504 1449 338T1206 75T824 -22ZM819 134Q956 134 1055 181T1218
311T1314 497T1345 715Q1345 837 1312 942T1212 1127T1047 1251T819 1296Q685 1296 586 1249T420 1121T321 935T288 715Q288 599 320 495T417 310T583 181T819 134ZM263 -130L171 -52Q275 85 367 205T568 466L961 981Q1071 1125 1166 1249T1362 1505L1458 1432Q1356
1299 1262 1176T1058 910L661 391Q553 249 458 125T263 -130Z" />
<glyph unicode="&#xd9;" horiz-adv-x="1461" d="M731 -22Q532 -22 408 46T225 239T166 530Q166 572 166 638T166 786T166 949Q166 1084 166 1195T166 1426H346Q346 1307 346 1196T346 949V548Q346 419 384 326T506 184T731 134Q872 134 955 183T1076 326T1113
550V949Q1113 1084 1113 1195T1113 1426H1293Q1293 1307 1293 1196T1293 949Q1293 867 1293 786T1293 637T1293 530Q1293 364 1234 240T1051 47T731 -22ZM746 1573Q693 1633 640 1692T534 1812T424 1936L608 1938Q676 1848 744 1757T880 1576L746 1573Z" />
<glyph unicode="&#xda;" horiz-adv-x="1461" d="M731 -22Q532 -22 408 46T225 239T166 530Q166 572 166 638T166 786T166 949Q166 1084 166 1195T166 1426H346Q346 1307 346 1196T346 949V548Q346 419 384 326T506 184T731 134Q872 134 955 183T1076 326T1113
550V949Q1113 1084 1113 1195T1113 1426H1293Q1293 1307 1293 1196T1293 949Q1293 867 1293 786T1293 637T1293 530Q1293 364 1234 240T1051 47T731 -22ZM584 1573Q653 1665 720 1755T855 1936L1040 1938Q985 1876 932 1816T825 1695T718 1576L584 1573Z" />
<glyph unicode="&#xdb;" horiz-adv-x="1461" d="M731 -22Q532 -22 408 46T225 239T166 530Q166 572 166 638T166 786T166 949Q166 1084 166 1195T166 1426H346Q346 1307 346 1196T346 949V548Q346 419 384 326T506 184T731 134Q872 134 955 183T1076 326T1113
550V949Q1113 1084 1113 1195T1113 1426H1293Q1293 1307 1293 1196T1293 949Q1293 867 1293 786T1293 637T1293 530Q1293 364 1234 240T1051 47T731 -22ZM958 1571Q895 1646 833 1718T705 1867H753Q689 1792 628 1720T502 1575H368Q435 1664 503 1754T639 1936H820Q888
1845 956 1755T1092 1574L958 1571Z" />
<glyph unicode="&#xdc;" horiz-adv-x="1461" d="M731 -22Q532 -22 408 46T225 239T166 530Q166 572 166 638T166 786T166 949Q166 1084 166 1195T166 1426H346Q346 1307 346 1196T346 949V548Q346 419 384 326T506 184T731 134Q872 134 955 183T1076 326T1113
550V949Q1113 1084 1113 1195T1113 1426H1293Q1293 1307 1293 1196T1293 949Q1293 867 1293 786T1293 637T1293 530Q1293 364 1234 240T1051 47T731 -22ZM943 1626Q894 1626 864 1655T834 1742Q834 1799 864 1829T945 1859Q995 1859 1024 1828T1053 1742Q1053 1685
1024 1656T943 1626ZM519 1626Q470 1626 440 1655T410 1742Q410 1799 440 1829T521 1859Q571 1859 600 1828T629 1742Q629 1685 600 1656T519 1626Z" />
<glyph unicode="&#xdd;" horiz-adv-x="1304" d="M568 557L257 1084Q207 1168 161 1246T55 1426H262Q317 1330 356 1261T430 1131T507 995L645 752H663L797 986Q842 1065 878 1129T955 1262T1049 1426H1252Q1201 1339 1151 1254T1051 1085L740 557H568ZM564 0Q564
119 564 229T564 471V708H745V471Q745 339 745 229T745 0H564ZM506 1573Q575 1665 642 1755T777 1936L962 1938Q907 1876 854 1816T747 1695T640 1576L506 1573Z" />
<glyph unicode="&#xde;" horiz-adv-x="1254" d="M185 0Q185 119 185 229T185 471V950Q185 1083 185 1195T185 1426H363Q363 1307 363 1195T363 950V471Q363 339 363 229T363 0H185ZM651 314Q601 314 544 314T434 314T340 314V463H617Q745 463 826 493T947 590T986
762Q986 850 958 902T883 979T782 1013T677 1021H340V1171Q404 1171 491 1171T689 1171Q852 1171 958 1128T1118 995T1171 763Q1171 633 1123 532T961 372T651 314Z" />
<glyph unicode="&#xdf;" horiz-adv-x="1212" d="M688 -9Q658 -9 627 -6T570 1V129Q586 126 608 124T655 122Q795 122 868 203T942 417Q942 519 897 587T775 689T602 723V853Q672 853 733 884T832 972T869 1113Q869 1219 806 1282T633 1346Q509 1346 443 1269T376
1031V438Q376 315 376 213T376 0H211Q211 111 211 213T211 438V538Q211 661 211 784T211 1031Q211 1254 325 1372T637 1491Q755 1491 842 1449T979 1328T1028 1142Q1028 1052 998 989T921 886T827 825V808Q872 793 922 765T1015 690T1084 575T1111 413Q1111 225
999 108T688 -9ZM49 862V992H259V862H49Z" />
<glyph unicode="&#xe0;" horiz-adv-x="1037" d="M404 -20Q315 -20 248 14T144 113T106 267Q106 348 135 403T211 494T315 548T429 578L740 632Q744 733 714 784T628 854T506 872Q472 872 433 867T351 852T259 825T158 786L149 937Q185 952 230 966T327 991T433
1009T542 1015Q653 1015 733 980T857 870T900 674Q900 628 900 557T900 422V293Q900 225 900 155T900 0H750L741 141H725Q694 101 647 64T539 4T404 -20ZM452 117Q505 117 558 139T657 204T736 314L737 528Q721 519 695 510T616 490T470 461Q413 451 369 429T300
368T274 274Q274 188 325 153T452 117ZM800 1154Q747 1220 694 1285T587 1418T478 1552L662 1556Q730 1457 798 1358T934 1156L800 1154Z" />
<glyph unicode="&#xe1;" horiz-adv-x="1037" d="M404 -20Q315 -20 248 14T144 113T106 267Q106 348 135 403T211 494T315 548T429 578L740 632Q744 733 714 784T628 854T506 872Q472 872 433 867T351 852T259 825T158 786L149 937Q185 952 230 966T327 991T433
1009T542 1015Q653 1015 733 980T857 870T900 674Q900 628 900 557T900 422V293Q900 225 900 155T900 0H750L741 141H725Q694 101 647 64T539 4T404 -20ZM452 117Q505 117 558 139T657 204T736 314L737 528Q721 519 695 510T616 490T470 461Q413 451 369 429T300
368T274 274Q274 188 325 153T452 117ZM638 1154Q706 1254 774 1354T909 1552L1094 1556Q1039 1488 985 1421T878 1288T772 1156L638 1154Z" />
<glyph unicode="&#xe2;" horiz-adv-x="1037" d="M404 -20Q315 -20 248 14T144 113T106 267Q106 348 135 403T211 494T315 548T429 578L740 632Q744 733 714 784T628 854T506 872Q472 872 433 867T351 852T259 825T158 786L149 937Q185 952 230 966T327 991T433
1009T542 1015Q653 1015 733 980T857 870T900 674Q900 628 900 557T900 422V293Q900 225 900 155T900 0H750L741 141H725Q694 101 647 64T539 4T404 -20ZM452 117Q505 117 558 139T657 204T736 314L737 528Q721 519 695 510T616 490T470 461Q413 451 369 429T300
368T274 274Q274 188 325 153T452 117ZM1012 1152Q950 1234 888 1313T762 1475H806Q743 1393 682 1315T556 1156H422Q489 1254 557 1353T693 1552H874Q942 1453 1010 1354T1146 1154L1012 1152Z" />
<glyph unicode="&#xe3;" horiz-adv-x="1037" d="M404 -20Q315 -20 248 14T144 113T106 267Q106 348 135 403T211 494T315 548T429 578L740 632Q744 733 714 784T628 854T506 872Q472 872 433 867T351 852T259 825T158 786L149 937Q185 952 230 966T327 991T433
1009T542 1015Q653 1015 733 980T857 870T900 674Q900 628 900 557T900 422V293Q900 225 900 155T900 0H750L741 141H725Q694 101 647 64T539 4T404 -20ZM452 117Q505 117 558 139T657 204T736 314L737 528Q721 519 695 510T616 490T470 461Q413 451 369 429T300
368T274 274Q274 188 325 153T452 117ZM955 1149Q895 1149 852 1175T773 1235T707 1295T639 1321Q581 1321 558 1285T532 1180H431Q431 1310 482 1379T622 1449Q681 1449 724 1423T801 1363T867 1303T936 1277Q993 1277 1015 1314T1040 1419H1141Q1141 1288 1091
1219T955 1149Z" />
<glyph unicode="&#xe4;" horiz-adv-x="1037" d="M404 -20Q315 -20 248 14T144 113T106 267Q106 348 135 403T211 494T315 548T429 578L740 632Q744 733 714 784T628 854T506 872Q472 872 433 867T351 852T259 825T158 786L149 937Q185 952 230 966T327 991T433
1009T542 1015Q653 1015 733 980T857 870T900 674Q900 628 900 557T900 422V293Q900 225 900 155T900 0H750L741 141H725Q694 101 647 64T539 4T404 -20ZM452 117Q505 117 558 139T657 204T736 314L737 528Q721 519 695 510T616 490T470 461Q413 451 369 429T300
368T274 274Q274 188 325 153T452 117ZM997 1207Q948 1207 918 1236T888 1323Q888 1380 918 1410T999 1440Q1049 1440 1078 1409T1107 1323Q1107 1265 1078 1236T997 1207ZM573 1207Q524 1207 494 1236T464 1323Q464 1380 494 1410T575 1440Q625 1440 654 1409T683
1323Q683 1265 654 1236T573 1207Z" />
<glyph unicode="&#xe5;" horiz-adv-x="1037" d="M404 -20Q315 -20 248 14T144 113T106 267Q106 348 135 403T211 494T315 548T429 578L740 632Q744 733 714 784T628 854T506 872Q472 872 433 867T351 852T259 825T158 786L149 937Q185 952 230 966T327 991T433
1009T542 1015Q653 1015 733 980T857 870T900 674Q900 628 900 557T900 422V293Q900 225 900 155T900 0H750L741 141H725Q694 101 647 64T539 4T404 -20ZM452 117Q505 117 558 139T657 204T736 314L737 528Q721 519 695 510T616 490T470 461Q413 451 369 429T300
368T274 274Q274 188 325 153T452 117ZM784 1125Q717 1125 666 1149T586 1221T557 1335Q557 1429 620 1485T786 1542Q853 1542 904 1516T984 1443T1013 1335Q1013 1267 984 1221T904 1150T784 1125ZM784 1213Q841 1213 877 1243T914 1334Q914 1389 878 1422T786
1456Q729 1456 693 1423T656 1334Q656 1274 692 1244T784 1213Z" />
<glyph unicode="&#xe6;" horiz-adv-x="1630" d="M1216 -22Q1045 -22 937 46T777 232T725 502Q725 652 775 768T922 949T1157 1015Q1281 1015 1371 966T1510 823T1559 589Q1559 552 1558 523T1551 463L1406 536Q1408 552 1409 566T1410 595Q1410 736 1339 809T1157
883Q1066 883 1002 837T905 708T871 521V498Q871 324 957 224T1231 123Q1278 123 1330 130T1435 154T1533 196L1540 47Q1502 26 1452 11T1342 -13T1216 -22ZM430 117Q483 117 536 139T636 204T714 314L715 528Q699 519 673 510T594 490T448 461Q391 451 347 429T278
368T252 274Q252 188 304 153T430 117ZM393 -20Q298 -20 229 14T122 113T84 267Q84 348 113 403T189 494T293 548T407 578L719 632Q722 733 692 784T607 854T484 872Q450 872 411 867T329 852T238 825T137 786L127 937Q163 952 207 966T301 991T404 1009T509 1015Q670
1015 759 935T848 674L817 504L827 258Q777 162 709 101T561 10T393 -20ZM772 463V581L1450 587L1551 553V463H772Z" />
<glyph unicode="&#xe7;" horiz-adv-x="989" d="M604 -20Q443 -20 331 48T159 233T100 497Q100 644 156 761T321 947T586 1015Q644 1015 700 1005T807 979T896 940L881 788Q825 820 776 837T684 861T605 868Q453 868 361 769T269 500Q269 394 309 309T431 174T634
124Q677 124 719 132T804 155T885 196L899 45Q866 27 822 13T724 -11T604 -20ZM779 -430Q758 -430 735 -428T692 -423T656 -414V-308Q670 -313 697 -317T758 -322Q828 -322 856 -299T884 -242Q884 -222 870 -203T819 -169T712 -146L790 37H886V0L836 -115Q908 -126
948 -149T1004 -202T1020 -266Q1020 -311 996 -348T919 -408T779 -430Z" />
<glyph unicode="&#xe8;" horiz-adv-x="1055" d="M620 -22Q442 -22 327 46T156 232T100 502Q100 652 155 768T313 949T559 1015Q685 1015 775 966T915 823T964 589Q964 552 963 523T956 463L811 536Q813 552 813 566T814 595Q814 736 744 809T561 883Q470 883 405
837T303 708T267 521V498Q267 382 307 298T428 169T636 123Q683 123 735 130T839 154T938 196L945 47Q907 26 857 11T747 -13T620 -22ZM169 463V581L855 587L956 549V463H169ZM825 1154Q772 1220 719 1285T612 1418T503 1552L687 1556Q755 1457 823 1358T959 1156L825
1154Z" />
<glyph unicode="&#xe9;" horiz-adv-x="1055" d="M620 -22Q442 -22 327 46T156 232T100 502Q100 652 155 768T313 949T559 1015Q685 1015 775 966T915 823T964 589Q964 552 963 523T956 463L811 536Q813 552 813 566T814 595Q814 736 744 809T561 883Q470 883 405
837T303 708T267 521V498Q267 382 307 298T428 169T636 123Q683 123 735 130T839 154T938 196L945 47Q907 26 857 11T747 -13T620 -22ZM169 463V581L855 587L956 549V463H169ZM663 1154Q731 1254 799 1354T934 1552L1119 1556Q1064 1488 1010 1421T903 1288T797
1156L663 1154Z" />
<glyph unicode="&#xea;" horiz-adv-x="1055" d="M620 -22Q442 -22 327 46T156 232T100 502Q100 652 155 768T313 949T559 1015Q685 1015 775 966T915 823T964 589Q964 552 963 523T956 463L811 536Q813 552 813 566T814 595Q814 736 744 809T561 883Q470 883 405
837T303 708T267 521V498Q267 382 307 298T428 169T636 123Q683 123 735 130T839 154T938 196L945 47Q907 26 857 11T747 -13T620 -22ZM169 463V581L855 587L956 549V463H169ZM1037 1152Q975 1234 913 1313T787 1475H831Q768 1393 707 1315T581 1156H447Q514 1254
582 1353T718 1552H899Q967 1453 1035 1354T1171 1154L1037 1152Z" />
<glyph unicode="&#xeb;" horiz-adv-x="1055" d="M620 -22Q442 -22 327 46T156 232T100 502Q100 652 155 768T313 949T559 1015Q685 1015 775 966T915 823T964 589Q964 552 963 523T956 463L811 536Q813 552 813 566T814 595Q814 736 744 809T561 883Q470 883 405
837T303 708T267 521V498Q267 382 307 298T428 169T636 123Q683 123 735 130T839 154T938 196L945 47Q907 26 857 11T747 -13T620 -22ZM169 463V581L855 587L956 549V463H169ZM1022 1207Q973 1207 943 1236T913 1323Q913 1380 943 1410T1024 1440Q1074 1440 1103
1409T1132 1323Q1132 1265 1103 1236T1022 1207ZM598 1207Q549 1207 519 1236T489 1323Q489 1380 519 1410T600 1440Q650 1440 679 1409T708 1323Q708 1265 679 1236T598 1207Z" />
<glyph unicode="&#xec;" horiz-adv-x="514" d="M174 0Q174 111 174 213T174 438V538Q174 627 174 702T174 848T174 992L340 998Q340 924 340 853T340 705T340 538V438Q340 315 340 213T340 0H174ZM271 1154Q218 1220 165 1285T58 1418T-51 1552L133 1556Q201 1457
269 1358T405 1156L271 1154Z" />
<glyph unicode="&#xed;" horiz-adv-x="514" d="M174 0Q174 111 174 213T174 438V538Q174 627 174 702T174 848T174 992L340 998Q340 924 340 853T340 705T340 538V438Q340 315 340 213T340 0H174ZM109 1154Q177 1254 245 1354T380 1552L565 1556Q510 1488 456
1421T349 1288T243 1156L109 1154Z" />
<glyph unicode="&#xee;" horiz-adv-x="514" d="M174 0Q174 111 174 213T174 438V538Q174 627 174 702T174 848T174 992L340 998Q340 924 340 853T340 705T340 538V438Q340 315 340 213T340 0H174ZM450 1152Q408 1219 365 1285T279 1418T191 1552H336Q395 1453
454 1355T574 1154L450 1152ZM-64 1156Q-3 1256 55 1354T174 1552H318Q274 1485 232 1419T146 1288T60 1156H-64Z" />
<glyph unicode="&#xef;" horiz-adv-x="514" d="M174 0Q174 111 174 213T174 438V538Q174 627 174 702T174 848T174 992L340 998Q340 924 340 853T340 705T340 538V438Q340 315 340 213T340 0H174ZM431 1207Q384 1207 356 1236T327 1323Q327 1380 356 1410T433
1440Q482 1440 510 1409T538 1323Q538 1284 525 1259T489 1220T431 1207ZM80 1207Q32 1207 4 1236T-25 1323Q-25 1380 4 1410T82 1440Q130 1440 158 1409T186 1323Q186 1284 173 1259T137 1220T80 1207Z" />
<glyph unicode="&#xf0;" horiz-adv-x="1182" d="M596 -22Q434 -22 324 49T157 236T100 486Q100 622 154 730T306 901T533 964Q587 964 645 951T761 910T869 837L912 850Q935 802 940 748T926 646Q864 723 802 760T684 810T589 822Q482 822 411 774T304 647T268
480Q268 389 304 307T413 173T594 121Q755 121 833 251T912 618Q912 801 849 954T663 1235Q611 1292 547 1344T407 1444L544 1502Q616 1459 681 1408T804 1296Q933 1161 1007 993T1082 604Q1082 412 1029 272T867 55T596 -22ZM344 1093L309 1204Q397 1232 478 1257T628
1303L720 1332Q788 1353 868 1378T1038 1431L1073 1319Q986 1292 905 1267T755 1220L663 1192Q594 1170 513 1145T344 1093Z" />
<glyph unicode="&#xf1;" horiz-adv-x="1146" d="M172 0Q172 111 172 213T172 438V538Q172 648 172 763T172 992L316 1002L321 818H339Q371 863 421 909T539 985T695 1016Q853 1016 926 925T999 661Q999 596 999 546T999 438Q999 320 999 216T999 0H834Q834 111
834 214T834 431V619Q834 738 792 799T638 860Q571 860 516 833T417 761T337 660V431Q337 314 337 213T337 0H172ZM1012 1149Q952 1149 909 1175T830 1235T764 1295T696 1321Q638 1321 615 1285T589 1180H488Q488 1310 539 1379T679 1449Q738 1449 781 1423T858
1363T924 1303T993 1277Q1050 1277 1072 1314T1097 1419H1198Q1198 1288 1148 1219T1012 1149Z" />
<glyph unicode="&#xf2;" horiz-adv-x="1195" d="M601 -22Q478 -22 385 20T228 136T133 303T100 502Q100 651 160 766T332 949T598 1016Q717 1016 809 977T965 868T1062 705T1095 502Q1095 355 1035 236T865 48T601 -22ZM601 122Q710 122 782 176T890 317T926 502Q926
614 886 697T773 826T600 872Q492 872 418 823T307 690T269 502Q269 404 305 317T416 176T601 122ZM867 1154Q814 1220 761 1285T654 1418T545 1552L729 1556Q797 1457 865 1358T1001 1156L867 1154Z" />
<glyph unicode="&#xf3;" horiz-adv-x="1195" d="M601 -22Q478 -22 385 20T228 136T133 303T100 502Q100 651 160 766T332 949T598 1016Q717 1016 809 977T965 868T1062 705T1095 502Q1095 355 1035 236T865 48T601 -22ZM601 122Q710 122 782 176T890 317T926 502Q926
614 886 697T773 826T600 872Q492 872 418 823T307 690T269 502Q269 404 305 317T416 176T601 122ZM705 1154Q773 1254 841 1354T976 1552L1161 1556Q1106 1488 1052 1421T945 1288T839 1156L705 1154Z" />
<glyph unicode="&#xf4;" horiz-adv-x="1195" d="M601 -22Q478 -22 385 20T228 136T133 303T100 502Q100 651 160 766T332 949T598 1016Q717 1016 809 977T965 868T1062 705T1095 502Q1095 355 1035 236T865 48T601 -22ZM601 122Q710 122 782 176T890 317T926 502Q926
614 886 697T773 826T600 872Q492 872 418 823T307 690T269 502Q269 404 305 317T416 176T601 122ZM1079 1152Q1017 1234 955 1313T829 1475H873Q810 1393 749 1315T623 1156H489Q556 1254 624 1353T760 1552H941Q1009 1453 1077 1354T1213 1154L1079 1152Z" />
<glyph unicode="&#xf5;" horiz-adv-x="1195" d="M601 -22Q478 -22 385 20T228 136T133 303T100 502Q100 651 160 766T332 949T598 1016Q717 1016 809 977T965 868T1062 705T1095 502Q1095 355 1035 236T865 48T601 -22ZM601 122Q710 122 782 176T890 317T926 502Q926
614 886 697T773 826T600 872Q492 872 418 823T307 690T269 502Q269 404 305 317T416 176T601 122ZM1022 1149Q962 1149 919 1175T840 1235T774 1295T706 1321Q648 1321 625 1285T599 1180H498Q498 1310 549 1379T689 1449Q748 1449 791 1423T868 1363T934 1303T1003
1277Q1060 1277 1082 1314T1107 1419H1208Q1208 1288 1158 1219T1022 1149Z" />
<glyph unicode="&#xf6;" horiz-adv-x="1195" d="M601 -22Q478 -22 385 20T228 136T133 303T100 502Q100 651 160 766T332 949T598 1016Q717 1016 809 977T965 868T1062 705T1095 502Q1095 355 1035 236T865 48T601 -22ZM601 122Q710 122 782 176T890 317T926 502Q926
614 886 697T773 826T600 872Q492 872 418 823T307 690T269 502Q269 404 305 317T416 176T601 122ZM1064 1207Q1015 1207 985 1236T955 1323Q955 1380 985 1410T1066 1440Q1116 1440 1145 1409T1174 1323Q1174 1265 1145 1236T1064 1207ZM640 1207Q591 1207 561
1236T531 1323Q531 1380 561 1410T642 1440Q692 1440 721 1409T750 1323Q750 1265 721 1236T640 1207Z" />
<glyph unicode="&#xf7;" horiz-adv-x="1136" d="M124 524V671Q218 671 306 671T470 671H667Q744 671 831 671T1013 671V524Q919 524 832 524T667 524H470Q394 524 306 524T124 524ZM566 113Q511 113 478 146T444 233Q444 288 477 319T566 351Q623 351 655 320T688
233Q688 180 656 147T566 113ZM566 841Q511 841 478 874T444 961Q444 1016 477 1048T566 1080Q623 1080 655 1048T688 961Q688 908 656 875T566 841Z" />
<glyph unicode="&#xf8;" horiz-adv-x="1194" d="M601 -22Q478 -22 385 20T229 136T133 303T100 502Q100 651 160 766T332 948T599 1015Q717 1015 809 976T965 868T1062 705T1095 502Q1095 355 1035 236T865 48T601 -22ZM600 121Q710 121 782 175T890 317T926 502Q926
614 886 697T773 826T600 872Q492 872 418 823T306 689T268 502Q268 404 305 317T416 176T600 121ZM198 -129L113 -62Q191 39 259 128T406 320L694 697Q777 805 846 895T988 1082L1076 1018Q1001 921 930 828T778 630L488 251Q409 147 341 57T198 -129Z" />
<glyph unicode="&#xf9;" horiz-adv-x="1117" d="M451 -22Q293 -22 220 69T147 333Q147 399 147 447T147 543Q147 632 147 706T147 850T147 992L312 999Q312 889 312 783T312 560V372Q312 254 355 193T508 131Q572 131 625 158T722 231T802 331V560Q802 677 802
780T802 992H967Q967 883 967 778T967 543V438Q967 315 967 213T967 0H823L817 175H799Q768 130 719 85T602 9T451 -22ZM828 1154Q775 1220 722 1285T615 1418T506 1552L690 1556Q758 1457 826 1358T962 1156L828 1154Z" />
<glyph unicode="&#xfa;" horiz-adv-x="1117" d="M451 -22Q293 -22 220 69T147 333Q147 399 147 447T147 543Q147 632 147 706T147 850T147 992L312 999Q312 889 312 783T312 560V372Q312 254 355 193T508 131Q572 131 625 158T722 231T802 331V560Q802 677 802
780T802 992H967Q967 883 967 778T967 543V438Q967 315 967 213T967 0H823L817 175H799Q768 130 719 85T602 9T451 -22ZM666 1154Q734 1254 802 1354T937 1552L1122 1556Q1067 1488 1013 1421T906 1288T800 1156L666 1154Z" />
<glyph unicode="&#xfb;" horiz-adv-x="1117" d="M451 -22Q293 -22 220 69T147 333Q147 399 147 447T147 543Q147 632 147 706T147 850T147 992L312 999Q312 889 312 783T312 560V372Q312 254 355 193T508 131Q572 131 625 158T722 231T802 331V560Q802 677 802
780T802 992H967Q967 883 967 778T967 543V438Q967 315 967 213T967 0H823L817 175H799Q768 130 719 85T602 9T451 -22ZM1040 1152Q978 1234 916 1313T790 1475H834Q771 1393 710 1315T584 1156H450Q517 1254 585 1353T721 1552H902Q970 1453 1038 1354T1174 1154L1040
1152Z" />
<glyph unicode="&#xfc;" horiz-adv-x="1117" d="M451 -22Q293 -22 220 69T147 333Q147 399 147 447T147 543Q147 632 147 706T147 850T147 992L312 999Q312 889 312 783T312 560V372Q312 254 355 193T508 131Q572 131 625 158T722 231T802 331V560Q802 677 802
780T802 992H967Q967 883 967 778T967 543V438Q967 315 967 213T967 0H823L817 175H799Q768 130 719 85T602 9T451 -22ZM1025 1207Q976 1207 946 1236T916 1323Q916 1380 946 1410T1027 1440Q1077 1440 1106 1409T1135 1323Q1135 1265 1106 1236T1025 1207ZM601
1207Q552 1207 522 1236T492 1323Q492 1380 522 1410T603 1440Q653 1440 682 1409T711 1323Q711 1265 682 1236T601 1207Z" />
<glyph unicode="&#xfd;" horiz-adv-x="1035" d="M268 -390Q308 -292 348 -192T428 6V-36Q390 66 352 171T277 375L211 555Q172 662 131 774T50 992L227 999Q270 870 311 747T395 496L500 177H518L633 497Q678 622 722 745T811 992H986Q954 912 925 838T860 673T775
459L665 180Q590 -10 538 -143T442 -384L268 -390ZM626 1154Q694 1254 762 1354T897 1552L1082 1556Q1027 1488 973 1421T866 1288T760 1156L626 1154Z" />
<glyph unicode="&#xfe;" horiz-adv-x="1183" d="M172 -390Q172 -280 172 -175T172 54V987Q172 1113 172 1232T172 1464L337 1484Q337 1365 337 1243T337 987V877H355Q383 912 427 944T530 996T659 1016Q793 1016 887 949T1032 764T1082 499Q1082 360 1036 242T895
51T658 -22Q592 -22 536 -5T435 45T352 125H337V47Q337 -70 337 -171T337 -384L172 -390ZM608 126Q715 126 782 179T881 316T913 498Q913 599 880 682T778 816T605 866Q553 866 503 851T411 805T337 729V288Q367 237 406 201T496 146T608 126Z" />
<glyph unicode="&#xff;" horiz-adv-x="1035" d="M268 -390Q308 -292 348 -192T428 6V-36Q390 66 352 171T277 375L211 555Q172 662 131 774T50 992L227 999Q270 870 311 747T395 496L500 177H518L633 497Q678 622 722 745T811 992H986Q954 912 925 838T860 673T775
459L665 180Q590 -10 538 -143T442 -384L268 -390ZM985 1207Q936 1207 906 1236T876 1323Q876 1380 906 1410T987 1440Q1037 1440 1066 1409T1095 1323Q1095 1265 1066 1236T985 1207ZM561 1207Q512 1207 482 1236T452 1323Q452 1380 482 1410T563 1440Q613 1440
642 1409T671 1323Q671 1265 642 1236T561 1207Z" />
<glyph unicode="&#x2013;" horiz-adv-x="1178" d="M124 523V667Q218 667 306 667T470 667H708Q785 667 873 667T1055 667V523Q961 523 873 523T708 523H470Q394 523 306 523T124 523Z" />
<glyph unicode="&#x2014;" horiz-adv-x="1576" d="M124 523V667Q213 667 298 667T464 667T618 667H959Q1032 667 1112 667T1278 667T1453 667V523Q1364 523 1279 523T1113 523T959 523H618Q545 523 465 523T299 523T124 523Z" />
<glyph unicode="&#x2018;" horiz-adv-x="460" d="M210 939Q155 944 130 981T105 1072Q105 1134 121 1195T166 1312T231 1415T307 1495L398 1498Q359 1442 336 1386T304 1269T294 1137Q294 1091 294 1043T294 945L210 939Z" />
<glyph unicode="&#x2019;" horiz-adv-x="460" d="M62 931Q101 987 123 1043T156 1160T166 1292Q166 1339 166 1387T166 1484L250 1490Q305 1486 330 1449T355 1357Q355 1295 339 1234T293 1117T228 1015T153 934L62 931Z" />
<glyph unicode="&#x201a;" horiz-adv-x="460" d="M62 -314Q101 -258 123 -202T156 -85T166 47Q166 94 166 142T166 239L250 245Q305 241 330 204T355 112Q355 50 339 -11T293 -128T228 -230T153 -311L62 -314Z" />
<glyph unicode="&#x201c;" horiz-adv-x="811" d="M561 939Q506 944 481 981T456 1072Q456 1134 472 1195T517 1312T582 1415T658 1495L749 1498Q709 1442 687 1386T655 1269T645 1137Q645 1091 645 1043T645 945L561 939ZM210 939Q155 944 130 981T105 1072Q105
1134 121 1195T166 1312T231 1415T307 1495L398 1498Q359 1442 336 1386T304 1269T294 1137Q294 1091 294 1043T294 945L210 939Z" />
<glyph unicode="&#x201d;" horiz-adv-x="811" d="M413 931Q452 987 474 1043T507 1160T517 1292Q517 1339 517 1387T517 1484L601 1490Q656 1486 681 1449T706 1357Q706 1295 690 1234T644 1117T579 1015T504 934L413 931ZM62 931Q101 987 123 1043T156 1160T166
1292Q166 1339 166 1387T166 1484L250 1490Q305 1486 330 1449T355 1357Q355 1295 339 1234T293 1117T228 1015T153 934L62 931Z" />
<glyph unicode="&#x201e;" horiz-adv-x="811" d="M413 -314Q452 -258 474 -202T507 -85T517 47Q517 94 517 142T517 239L601 245Q656 241 681 204T706 112Q706 50 690 -11T644 -128T579 -230T504 -311L413 -314ZM62 -314Q101 -258 123 -202T156 -85T166 47Q166
94 166 142T166 239L250 245Q305 241 330 204T355 112Q355 50 339 -11T293 -128T228 -230T153 -311L62 -314Z" />
<glyph unicode="&#x2022;" horiz-adv-x="836" d="M417 343Q338 343 283 377T197 468T167 596Q167 667 197 723T283 811T418 844Q496 844 552 812T639 723T669 596Q669 525 639 468T553 377T417 343Z" />
<glyph unicode="&#x2039;" horiz-adv-x="676" d="M434 -4Q340 123 247 249T59 502Q153 629 246 755T434 1009L602 999Q511 877 421 755T239 509V492Q330 370 420 249T602 5L434 -4Z" />
<glyph unicode="&#x203a;" horiz-adv-x="676" d="M243 -4L75 6Q166 128 256 250T437 495V513Q346 635 256 756T75 1000L243 1009Q337 882 430 756T617 502Q523 376 430 250T243 -4Z" />
</font>
</defs>
</svg>
