<?xml version="1.0" standalone="no"?>
<!DOCTYPE svg PUBLIC "-//W3C//DTD SVG 1.1//EN" "http://www.w3.org/Graphics/SVG/1.1/DTD/svg11.dtd">
<svg xmlns="http://www.w3.org/2000/svg">
<defs >
<font id="Hubballi" horiz-adv-x="729" ><font-face
    font-family="Hubballi"
    units-per-em="1000"
    panose-1="0 0 0 0 0 0 0 0 0 0"
    ascent="765"
    descent="-191"
    alphabetic="0" />
<glyph unicode=" " glyph-name="space" horiz-adv-x="288" />
<glyph unicode="!" glyph-name="exclam" horiz-adv-x="327" d="M144 546Q144 556 152 563T170 570Q180 570 187 563T194 544L187 266Q187 256 180 249T161 242Q151 242 144 250T137 268L144 546ZM162 103Q182 103 195 88T208 49Q208 21 196 8T163 -5Q147 -5 132
8T117 49Q117 73 129 88T162 103Z" />
<glyph unicode="&quot;" glyph-name="quotedbl" horiz-adv-x="404" d="M281 388Q280 380 273 375T257 369Q247 369 240 376T232 394Q232 396 233 401T236 413L273 576Q275 584 282 589T297 595Q307 595 314 588T322 570Q322 569 321 563T318 550L281 388ZM122
388Q117 369 98 369Q97 369 96 369T92 370Q73 375 73 394Q73 396 75 404T77 413L114 576Q119 595 138 595Q148 595 155 588T163 570Q163 569 162 563T160 555L122 388Z" />
<glyph unicode="#" glyph-name="numbersign" horiz-adv-x="596" d="M305 0Q296 0 288 7T280 25Q280 28 282 34L326 155H179L128 16Q123 0 105 0Q96 0 88 7T80 25Q80 28 82 34L126 155H59Q49 155 42 162T34 180Q34 191 41 198T59 205H144L199 355H128Q118 355 111
362T103 380Q103 391 110 398T128 405H217L258 518Q263 534 281 534Q290 534 298 527T306 509Q306 506 304 500L269 405H417L458 518Q463 534 481 534Q491 534 498 527T506 509Q506 506 504 500L469 405H532Q543 405 550 398T557 380Q557 370 550 363T532 355H451L397
205H463Q474 205 481 198T488 180Q488 170 481 163T463 155H379L328 16Q323 0 305 0ZM251 355L197 205H344L399 355H251Z" />
<glyph unicode="$" glyph-name="dollar" horiz-adv-x="574" d="M284 -107Q274 -107 267 -100T259 -82V-8Q167 -4 83 36Q69 42 69 60Q69 71 77 77T95 84Q99 84 108 81T140 67Q163 57 195 51T259 42V260Q199 272 164 290T112 328T90 370T84 412Q84 442 103 471T161
520T259 541V608Q259 619 266 626T284 633Q295 633 302 626T309 608V540Q350 537 380 529T445 510Q453 507 457 500T462 485Q462 476 455 469T436 461Q432 461 417 466Q386 477 362 482T309 490V302Q385 286 426 261T484 204T501 138Q501 103 483 71T422 17T309
-9V-82Q309 -92 302 -99T284 -107ZM134 412Q134 382 160 356T259 312V491Q206 490 170 468T134 412ZM451 138Q451 178 417 205T309 250V42Q377 46 414 73T451 138Z" />
<glyph unicode="%" glyph-name="percent" horiz-adv-x="814" d="M203 542Q239 542 269 522T317 466T336 381Q336 313 301 267T203 220Q166 220 136 241T87 299T69 380Q69 454 107 498T203 542ZM289 12Q282 0 266 0Q257 0 250 7T242 26Q242 32 245 38L528 523Q536
535 551 535Q560 535 567 528T575 509Q575 503 572 497L289 12ZM203 492Q164 492 142 460T119 380Q119 352 129 327T159 286T203 270Q245 270 265 304T286 381Q286 427 263 459T203 492ZM612 312Q648 312 678 292T726 236T745 151Q745 83 710 37T612 -10Q575 -10
545 11T496 69T478 150Q478 224 516 268T612 312ZM612 262Q573 262 551 230T528 150Q528 122 538 97T568 56T612 40Q654 40 674 74T695 151Q695 197 672 229T612 262Z" />
<glyph unicode="&amp;" glyph-name="ampersand" horiz-adv-x="634" d="M417 94Q369 36 326 14T233 -8Q183 -8 146 11T88 63T67 135Q67 165 76 192T111 245T187 299Q160 328 145 356T130 417Q130 473 166 507T258 542Q315 542 352 507T389 421Q389 379 364 345T282
288L275 285L411 167L500 293Q508 304 520 304Q531 304 538 297T545 279Q545 272 540 265L448 134L551 44Q560 37 560 25Q560 15 553 8T535 0Q527 0 519 6L417 94ZM180 417Q180 390 195 368T234 322Q241 325 248 328T262 334Q339 366 339 421Q339 452 315 472T258
492Q225 492 203 472T180 417ZM233 42Q274 42 308 61T380 127L225 262Q164 231 141 202T117 135Q117 94 150 68T233 42Z" />
<glyph unicode="&apos;" glyph-name="quotesingle" horiz-adv-x="245" d="M122 388Q117 369 98 369Q88 369 81 376T73 394Q73 396 75 403T78 418L114 576Q119 595 138 595Q148 595 155 588T163 571Q163 569 162 564T159 550L122 388Z" />
<glyph unicode="(" glyph-name="parenleft" horiz-adv-x="335" d="M252 588Q216 549 187 497T140 385T122 261Q122 167 158 85T251 -57Q258 -64 258 -74Q258 -84 251 -91T233 -99Q223 -99 215 -91Q153 -26 113 65T72 261Q72 331 91 397T143 521T214 622Q222 630
234 630Q245 630 251 622T258 604Q258 596 252 588Z" />
<glyph unicode=")" glyph-name="parenright" horiz-adv-x="335" d="M213 261Q213 325 196 385T149 497T83 588Q77 596 77 604Q77 614 83 622T101 630Q113 630 121 622Q160 579 192 522T243 398T263 261Q263 157 223 66T120 -91Q112 -99 102 -99Q92 -99 85 -92T77
-74Q77 -64 84 -57Q140 2 176 84T213 261Z" />
<glyph unicode="*" glyph-name="asterisk" horiz-adv-x="431" d="M237 292Q237 283 231 277T215 270Q206 270 200 276T193 292V375L110 327Q106 324 100 324Q91 324 84 330T77 345Q77 359 88 365L172 414L88 463Q77 469 77 483Q77 491 83 497T100 504Q106 504
110 501L193 453V540Q193 549 199 555T215 562Q224 562 230 556T237 540V452L321 501Q326 504 331 504Q342 504 348 498T354 483Q354 469 343 463L259 414L343 365Q354 359 354 345Q354 338 348 331T331 324Q326 324 321 327L237 376V292Z" />
<glyph unicode="+" glyph-name="plus" horiz-adv-x="530" d="M265 77Q255 77 248 84T240 102V241H96Q86 241 79 248T71 266Q71 277 78 284T96 291H240V429Q240 440 247 447T265 454Q276 454 283 447T290 429V291H433Q444 291 451 284T458 266Q458 256 451 249T433
241H290V102Q290 92 283 85T265 77Z" />
<glyph unicode="," glyph-name="comma" horiz-adv-x="230" d="M134 87Q137 77 139 62T141 30Q141 -8 129 -45T94 -112Q87 -122 74 -122Q64 -122 57 -115T49 -97Q49 -89 54 -82Q71 -59 81 -30T91 30Q91 53 88 62T85 78Q85 89 92 96T109 104Q128 104 134 87Z" />
<glyph unicode="-" glyph-name="hyphen" horiz-adv-x="420" d="M311 245Q322 245 329 238T336 220Q336 210 329 203T311 195H109Q99 195 92 202T84 220Q84 231 91 238T109 245H311Z" />
<glyph unicode="." glyph-name="period" horiz-adv-x="225" d="M113 103Q133 103 146 88T159 49Q159 21 147 8T114 -5Q98 -5 83 8T68 49Q68 73 80 88T113 103Z" />
<glyph unicode="/" glyph-name="slash" horiz-adv-x="395" d="M93 -84Q88 -100 70 -100Q61 -100 54 -93T46 -74Q46 -70 57 -38L296 614Q301 630 319 630Q330 630 337 623T344 605Q344 601 335 577L93 -84Z" />
<glyph unicode="0" glyph-name="zero" horiz-adv-x="566" d="M284 543Q344 543 394 509T475 413T506 269Q506 192 480 129T404 29T284 -8Q220 -8 169 29T89 128T59 267Q59 350 88 412T168 508T284 543ZM284 493Q231 493 192 464T131 383T109 267Q109 208 131 157T192
74T284 42Q341 42 379 74T436 157T456 269Q456 333 434 383T372 463T284 493Z" />
<glyph unicode="1" glyph-name="one" horiz-adv-x="328" d="M205 0Q195 0 188 7T180 25V468L87 417Q81 414 75 414Q65 414 58 421T50 439Q50 453 63 461L193 532Q199 535 205 535Q216 535 223 528T230 510V25Q230 15 223 8T205 0Z" />
<glyph unicode="2" glyph-name="two" horiz-adv-x="508" d="M76 0Q66 0 59 7T51 25Q51 33 58 42L235 211Q285 259 314 291T357 349T370 405Q370 440 341 467T258 494Q186 494 120 454Q117 453 114 452T107 450Q98 450 90 456T82 475Q82 489 94 496Q171 544 258
544Q314 544 350 524T403 472T420 405Q420 372 407 341T362 271T269 175L138 50H428Q439 50 446 43T453 25Q453 15 446 8T428 0H76Z" />
<glyph unicode="3" glyph-name="three" horiz-adv-x="512" d="M255 -4Q206 -4 164 5T88 29Q73 36 73 52Q73 63 80 70T98 77Q103 77 122 69Q141 61 177 54T255 46Q326 46 364 76T402 157Q402 206 365 234T266 262Q243 262 221 260T181 252Q171 249 167 248T160
247Q150 247 142 254T134 271Q134 279 137 284T147 295L349 485H115Q105 485 98 492T90 510Q90 521 97 528T115 535H412Q423 535 430 528T437 510Q437 500 428 491L235 311Q243 312 250 312T266 312Q356 312 404 268T452 157Q452 113 432 76T368 18T255 -4Z" />
<glyph unicode="4" glyph-name="four" horiz-adv-x="531" d="M367 0Q357 0 350 7T342 25V124H61Q51 124 44 131T36 149Q36 159 42 165L341 527Q350 538 355 541T367 545Q378 545 385 538T392 520V174H475Q486 174 493 167T500 149Q500 139 493 132T475 124H392V25Q392
15 385 8T367 0ZM342 450L114 174H342V450Z" />
<glyph unicode="5" glyph-name="five" horiz-adv-x="521" d="M266 -4Q214 -4 167 6T85 33Q71 39 71 57Q71 66 78 73T96 81Q103 81 132 69Q159 59 192 53T266 46Q337 46 372 81T407 169Q407 219 370 249T270 280Q224 280 193 271T148 256Q137 252 132 251T123 249Q113
249 106 256T99 272L119 510Q120 521 127 528T144 535H401Q412 535 419 528T426 510Q426 500 419 493T401 485H167L152 311Q175 319 204 324T270 330Q360 330 408 284T457 169Q457 122 437 83T375 20T266 -4Z" />
<glyph unicode="6" glyph-name="six" horiz-adv-x="539" d="M477 173Q477 131 458 90T397 23T285 -4Q223 -4 175 23T98 108T70 251Q70 391 134 467T306 544Q333 544 353 541T396 529Q413 523 413 504Q413 495 405 488T389 480Q386 480 381 481T364 486Q355 489
339 491T306 494Q217 494 169 428T120 251Q120 245 120 239T121 228Q153 281 201 308T305 336Q382 336 429 291T477 173ZM285 46Q335 46 366 64T412 112T427 173Q427 224 393 255T305 286Q247 286 203 249T138 145Q158 96 195 71T285 46Z" />
<glyph unicode="7" glyph-name="seven" horiz-adv-x="466" d="M192 0Q182 0 175 7T167 25V80Q167 127 182 174T219 260Q228 276 246 302T285 360T329 424T368 485H61Q51 485 44 492T36 510Q36 521 43 528T61 535H411Q436 535 436 509Q436 503 433 497Q419 470
395 434T345 359T296 288T263 236Q244 202 231 162T217 80V25Q217 15 210 8T192 0Z" />
<glyph unicode="8" glyph-name="eight" horiz-adv-x="558" d="M280 -8Q207 -8 161 14T92 73T70 151Q70 197 92 233T159 289Q126 309 111 339T96 404Q96 464 142 503T280 542Q368 542 415 503T462 404Q462 370 447 340T397 289Q441 269 464 233T488 152Q488 110
469 74T404 15T280 -8ZM280 492Q221 492 184 470T146 404Q146 363 181 338T280 312Q342 312 377 337T412 404Q412 448 374 470T280 492ZM280 262Q208 262 164 233T120 151Q120 104 162 73T280 42Q361 42 399 73T438 152Q438 205 393 233T280 262Z" />
<glyph unicode="9" glyph-name="nine" horiz-adv-x="536" d="M233 -3Q206 -3 186 1T145 11Q126 16 126 34Q126 44 133 52T150 60Q152 60 158 59T174 55Q191 51 204 49T233 47Q327 47 371 106T416 270V277Q384 240 342 219T242 198Q155 198 109 243T62 369Q62 412
82 452T145 518T251 544Q314 544 362 513T438 421T466 270Q466 137 407 67T233 -3ZM242 248Q301 248 340 276T408 349Q393 417 353 455T251 494Q205 494 174 476T128 430T112 369Q112 311 146 280T242 248Z" />
<glyph unicode=":" glyph-name="colon" horiz-adv-x="251" d="M125 373Q145 373 158 358T171 319Q171 291 159 278T126 265Q110 265 95 278T80 319Q80 343 92 358T125 373ZM125 103Q145 103 158 88T171 49Q171 21 159 8T126 -5Q110 -5 95 8T80 49Q80 73 92 88T125 103Z" />
<glyph unicode=";" glyph-name="semicolon" horiz-adv-x="230" d="M113 373Q133 373 146 358T159 319Q159 291 147 278T114 265Q98 265 83 278T68 319Q68 343 80 358T113 373ZM134 87Q137 77 139 62T141 30Q141 -8 129 -45T94 -112Q87 -122 74 -122Q64 -122 57
-115T49 -97Q49 -89 54 -82Q71 -59 81 -30T91 30Q91 50 88 60T85 78Q85 89 92 96T109 104Q128 104 134 87Z" />
<glyph unicode="&lt;" glyph-name="less" horiz-adv-x="530" d="M421 94Q417 94 409 97T373 113L88 242Q81 245 77 251T73 265Q73 276 80 282T94 292L374 419Q407 434 414 434Q423 434 431 428T439 409Q439 402 436 396T424 386L157 266L430 142Q438 139 441 133T445
119Q445 108 437 101T421 94Z" />
<glyph unicode="=" glyph-name="equal" horiz-adv-x="530" d="M433 384Q444 384 451 377T458 359Q458 349 451 342T433 334H96Q86 334 79 341T71 359Q71 370 78 377T96 384H433ZM433 186Q444 186 451 179T458 161Q458 151 451 144T433 136H96Q86 136 79 143T71
161Q71 172 78 179T96 186H433Z" />
<glyph unicode="&gt;" glyph-name="greater" horiz-adv-x="515" d="M106 94Q98 94 90 101T82 119Q82 126 86 132T97 142L370 266L103 386Q96 389 92 395T88 409Q88 421 96 427T113 434Q120 434 153 419L433 292Q441 289 447 283T454 265Q454 258 451 252T439 242L154
113Q126 100 119 97T106 94Z" />
<glyph unicode="?" glyph-name="question" horiz-adv-x="371" d="M56 505Q85 524 116 534T194 544Q244 544 277 526T326 479T342 417Q342 373 314 340T241 284Q210 268 198 253T183 206Q182 196 175 189T157 182Q147 182 140 189T133 206Q133 230 138 250T162
289T219 328Q248 343 270 364T292 417Q292 449 266 471T194 494Q157 494 132 486T82 463Q79 462 76 461T69 459Q59 459 52 466T44 484Q44 498 56 505ZM163 103Q183 103 196 88T209 49Q209 21 197 8T164 -5Q148 -5 133 8T118 49Q118 73 130 88T163 103Z" />
<glyph unicode="@" glyph-name="at" horiz-adv-x="665" d="M339 -10Q253 -10 188 26T87 125T51 263Q51 320 72 371T131 461T222 522T336 545Q425 545 487 507T583 407T616 277Q616 202 583 166T504 130Q477 130 454 142T416 178Q393 154 367 143T313 131Q283 131
256 146T212 189T195 259Q195 306 214 339T264 389T331 407Q351 407 368 404T401 394Q408 407 422 407Q433 407 440 400T447 382V252Q447 221 463 201T504 180Q534 180 550 207T566 277Q566 334 539 384T460 464T336 495Q269 495 216 464T132 380T101 263Q101 200
131 150T215 70T339 40Q383 40 415 47T465 62Q478 67 483 69T492 71Q502 71 509 64T517 47Q517 30 502 23Q471 10 430 0T339 -10ZM313 181Q366 181 397 238V341Q383 349 367 353T331 357Q295 357 270 331T245 259Q245 223 265 202T313 181Z" />
<glyph unicode="A" glyph-name="A" horiz-adv-x="580" d="M505 0Q488 0 482 16Q472 43 458 76T428 145H146Q132 109 120 77T97 17Q94 9 87 5T72 0Q63 0 56 7T48 26Q48 29 49 34T58 57Q75 102 98 160T149 281T204 408T258 529Q265 544 282 544H286Q304 544 310
530Q337 472 367 405T427 273T480 151T519 57Q527 39 528 33T530 25Q530 15 523 8T505 0ZM407 195Q378 262 346 332T284 465Q256 401 226 332T167 195H407Z" />
<glyph unicode="B" glyph-name="B" horiz-adv-x="528" d="M123 0Q113 0 106 7T98 25V510Q98 521 105 528T123 535H262Q306 535 336 522T385 491Q402 474 412 449T422 399Q422 372 412 348T385 306Q382 303 379 300T370 293Q404 279 426 257Q470 213 470 152Q470
125 460 99T429 51Q407 29 371 15T278 0H123ZM271 310Q297 312 317 321T349 342Q372 363 372 399Q372 432 349 455Q336 469 315 477T262 485H148V310H271ZM148 260V50H278Q322 50 349 60T393 87Q420 114 420 152Q420 191 390 221Q351 260 281 260H148Z" />
<glyph unicode="C" glyph-name="C" horiz-adv-x="566" d="M458 468Q409 494 334 494Q274 494 224 465T142 385T111 264Q111 201 138 151T216 71T340 41Q376 41 407 48T464 68Q469 71 475 71Q486 71 493 64T500 46Q500 30 486 24Q456 8 419 0T340 -9Q252 -9 190
27T94 125T61 264Q61 348 99 411T199 509T334 544Q424 544 482 512Q495 504 495 490Q495 481 488 473T470 465Q464 465 458 468Z" />
<glyph unicode="D" glyph-name="D" horiz-adv-x="612" d="M123 0Q113 0 106 7T98 25V510Q98 521 105 528T123 535H299Q365 535 422 501T515 407T551 268Q551 193 520 133T432 36T299 0H123ZM148 485V50H299Q361 50 406 79T476 158T501 268Q501 331 473 380T399
457T299 485H148Z" />
<glyph unicode="E" glyph-name="E" horiz-adv-x="487" d="M123 0Q113 0 106 7T98 25V510Q98 520 104 527T120 535H400Q411 535 418 528T425 510Q425 500 418 493T400 485H148V311H357Q368 311 375 304T382 286Q382 276 375 269T357 261H148V50H402Q413 50 420
43T427 25Q427 15 420 8T402 0H123Z" />
<glyph unicode="F" glyph-name="F" horiz-adv-x="475" d="M123 0Q113 0 106 7T98 25V510Q98 521 105 528T123 535H408Q419 535 426 528T433 510Q433 500 426 493T408 485H148V292H357Q368 292 375 285T382 267Q382 257 375 250T357 242H148V25Q148 15 141 8T123 0Z" />
<glyph unicode="G" glyph-name="G" horiz-adv-x="618" d="M524 44Q487 21 441 6T332 -9Q246 -9 186 27T93 126T61 264Q61 348 96 411T194 509T335 544Q379 544 417 536T490 515Q506 509 506 492Q506 482 500 475T481 467Q478 467 472 469Q443 480 409 487T335
494Q270 494 220 465T140 385T111 264Q111 202 137 152T212 71T332 41Q381 41 418 51T487 79V224H348Q338 224 331 231T323 249Q323 260 330 267T348 274H501Q520 274 528 269T537 249V69Q537 52 524 44Z" />
<glyph unicode="H" glyph-name="H" horiz-adv-x="631" d="M508 0Q498 0 491 7T483 25V260H148V25Q148 15 141 8T123 0Q113 0 106 7T98 25V510Q98 521 105 528T123 535Q134 535 141 528T148 510V310H483V510Q483 521 490 528T508 535Q519 535 526 528T533 510V25Q533
15 526 8T508 0Z" />
<glyph unicode="I" glyph-name="I" horiz-adv-x="256" d="M153 25Q153 15 146 8T128 0Q118 0 111 7T103 25V510Q103 521 110 528T128 535Q139 535 146 528T153 510V25Z" />
<glyph unicode="J" glyph-name="J" horiz-adv-x="389" d="M95 52Q106 48 123 45T160 41Q209 41 231 74T253 167V510Q253 521 260 528T278 535Q289 535 296 528T303 510V167Q303 76 266 34T160 -9Q109 -9 61 12Q54 15 50 21T46 35Q46 46 53 53T71 60Q75 60 80 58T95 52Z" />
<glyph unicode="K" glyph-name="K" horiz-adv-x="557" d="M479 0Q468 0 460 9Q441 31 414 63T356 133T296 205T243 269Q213 241 188 219T148 182V25Q148 15 141 8T123 0Q113 0 106 7T98 25V510Q98 521 105 528T123 535Q134 535 141 528T148 510V249Q176 275 213
309T292 382T372 458T441 527Q449 535 459 535Q469 535 476 528T484 510Q484 502 477 493Q438 452 385 401T280 302Q303 275 332 239T393 166T451 96T498 41Q504 35 504 25Q504 16 497 8T479 0Z" />
<glyph unicode="L" glyph-name="L" horiz-adv-x="459" d="M123 0Q113 0 106 7T98 25V510Q98 521 105 528T123 535Q134 535 141 528T148 510V50H394Q405 50 412 43T419 25Q419 15 412 8T394 0H123Z" />
<glyph unicode="M" glyph-name="M" horiz-adv-x="820" d="M714 -2Q705 -2 698 4T689 20Q682 77 671 149T647 298T620 447Q587 380 553 308T487 165T431 34Q424 17 409 17Q391 17 385 31Q356 93 321 165T252 311T187 446Q179 393 171 334T155 217T141 108T130 20Q129
11 122 5T104 -2Q94 -2 87 5T80 24Q80 26 83 53Q87 86 94 143T110 267T129 402T148 523Q150 532 157 538T174 544Q186 544 192 536Q202 526 208 512Q236 456 269 387T339 244T407 104Q436 170 469 244T538 393T608 532Q616 545 631 545Q640 545 648 540T657 525Q669
466 680 400T702 272T718 166T728 103Q736 54 737 40T739 23Q739 13 732 6T714 -2Z" />
<glyph unicode="N" glyph-name="N" horiz-adv-x="635" d="M486 10Q452 56 408 113T316 229T226 345T148 444V25Q148 15 141 8T123 0Q113 0 106 7T98 25V510Q98 521 105 528T122 535Q142 535 149 525Q174 492 214 441T301 329T397 207T487 91V510Q487 521 494 528T512
535Q523 535 530 528T537 510V25Q537 15 530 8T513 0Q493 0 486 10Z" />
<glyph unicode="O" glyph-name="O" horiz-adv-x="640" d="M322 544Q393 544 451 509T544 412T579 267Q579 189 549 127T461 28T322 -9Q246 -9 187 27T95 126T61 264Q61 348 94 411T185 509T322 544ZM322 494Q259 494 212 465T138 384T111 264Q111 203 137 152T212
71T322 41Q388 41 434 71T505 152T529 267Q529 333 502 384T427 464T322 494Z" />
<glyph unicode="P" glyph-name="P" horiz-adv-x="510" d="M123 0Q113 0 106 7T98 25V510Q98 521 105 528T123 535H266Q325 535 369 512T437 448T462 356Q462 308 441 267T376 201T266 176H148V25Q148 15 141 8T123 0ZM148 485V226H266Q337 226 374 263T412 356Q412
414 371 449T266 485H148Z" />
<glyph unicode="Q" glyph-name="Q" horiz-adv-x="640" d="M512 -143Q427 -143 373 -104T299 -8Q229 -2 175 35T91 132T61 264Q61 348 94 411T185 509T322 544Q393 544 451 509T544 412T579 267Q579 194 553 135T475 37T352 -8Q371 -45 412 -69T512 -93Q523 -93
530 -100T537 -118Q537 -128 530 -135T512 -143ZM322 494Q259 494 212 465T138 384T111 264Q111 203 137 152T212 71T322 41Q388 41 434 71T505 152T529 267Q529 333 502 384T427 464T322 494Z" />
<glyph unicode="R" glyph-name="R" horiz-adv-x="541" d="M464 0Q453 0 445 9L282 199H148V25Q148 15 141 8T123 0Q113 0 106 7T98 25V510Q98 521 105 528T123 535H270Q329 535 371 513T437 454T461 367Q461 313 432 269T340 208L483 41Q489 35 489 25Q489 16
482 8T464 0ZM148 485V249H270Q339 249 375 283T411 367Q411 420 372 452T270 485H148Z" />
<glyph unicode="S" glyph-name="S" horiz-adv-x="525" d="M370 469Q346 479 318 485T243 491Q192 491 162 466T132 408Q132 376 160 350T269 305Q341 289 380 264T436 208T452 138Q452 101 434 68T374 13T263 -9Q165 -9 82 37Q69 45 69 59Q69 68 76 76T94 84Q100
84 106 81Q177 41 263 41Q331 41 366 69T402 138Q402 180 369 208T259 255Q188 273 150 296T97 348T82 412Q82 444 100 473T155 522T243 541Q298 541 331 533T402 509Q418 503 418 486Q418 476 411 469T393 461Q391 461 387 462T370 469Z" />
<glyph unicode="T" glyph-name="T" horiz-adv-x="546" d="M271 0Q261 0 254 7T246 25V485H59Q49 485 42 492T34 510Q34 521 41 528T59 535H487Q498 535 505 528T512 510Q512 500 505 493T487 485H296V25Q296 15 289 8T271 0Z" />
<glyph unicode="U" glyph-name="U" horiz-adv-x="616" d="M136 214Q136 131 183 86T306 41Q389 41 434 86T480 217V510Q480 521 487 528T505 535Q516 535 523 528T530 510V217Q530 108 472 50T306 -9Q209 -9 148 49T86 214V510Q86 521 93 528T111 535Q122 535
129 528T136 510V214Z" />
<glyph unicode="V" glyph-name="V" horiz-adv-x="585" d="M293 -10Q278 -10 268 9Q256 32 235 76T189 176T138 289T92 395T60 476Q56 487 53 497T50 511Q50 520 56 528T75 536Q83 536 90 532T99 519Q109 487 127 442T167 345T212 243T256 147T293 70Q313 111 340
168T394 289T446 412T486 518Q492 535 511 535Q521 535 528 528T535 509Q535 506 533 497T523 469Q510 435 490 386T445 281T395 171T349 73T315 3Q309 -10 293 -10Z" />
<glyph unicode="W" glyph-name="W" horiz-adv-x="897" d="M633 -10Q627 -10 620 -6T608 10Q596 34 576 82T534 190T489 312T449 425Q430 370 407 309T361 188T319 81T287 6Q280 -9 263 -9Q253 -9 247 -3T237 11Q227 33 210 77T173 177T134 289T100 393T76 469Q70
490 68 498T66 509Q66 519 73 526T91 534Q110 534 115 516Q126 477 144 420T183 299T226 178T263 79Q281 121 303 177T348 293T391 411T425 513Q430 531 449 531Q467 531 477 501Q490 461 509 405T551 289T594 173T632 77Q649 119 669 175T711 293T751 413T783
516Q788 534 807 534Q816 534 824 527T832 509Q832 505 827 488Q816 449 799 397T762 287T722 174T685 75T657 5Q650 -10 633 -10Z" />
<glyph unicode="X" glyph-name="X" horiz-adv-x="563" d="M479 0Q467 0 459 11Q437 43 388 103T282 233Q229 167 182 108T105 10Q98 0 85 0Q75 0 68 7T60 25Q60 33 65 40Q95 81 144 143T249 273Q200 334 154 392T77 496Q73 501 73 509Q73 520 80 527T97 535Q111
535 119 524Q148 481 191 426T281 312Q327 371 368 426T438 524Q444 535 459 535Q469 535 476 528T484 510Q484 501 480 496Q452 452 407 393T313 272Q353 224 389 179T455 97T499 39Q504 32 504 25Q504 15 497 8T479 0Z" />
<glyph unicode="Y" glyph-name="Y" horiz-adv-x="560" d="M282 0Q272 0 265 7T257 25V193Q240 215 212 255T154 341T96 429T53 497Q50 503 50 510Q50 519 56 526T74 534Q89 534 95 523Q109 500 132 464T183 386T237 307T283 242Q304 271 329 309T381 388T429 464T465
523Q471 534 486 534Q510 534 510 510Q510 503 507 497Q492 472 467 432T411 346T354 259T307 191V25Q307 15 300 8T282 0Z" />
<glyph unicode="Z" glyph-name="Z" horiz-adv-x="563" d="M89 0Q79 0 72 7T64 25Q64 32 67 38T72 47Q86 69 116 108T186 198T268 300T348 401T413 485H102Q92 485 85 492T77 510Q77 521 84 528T102 535H463Q473 535 480 528T487 509Q487 501 483 496Q466 471 433
428T359 334T276 230T197 130T136 50H474Q485 50 492 43T499 25Q499 15 492 8T474 0H89Z" />
<glyph unicode="[" glyph-name="bracketleft" horiz-adv-x="335" d="M98 -99Q88 -99 81 -92T73 -74V605Q73 616 80 623T98 630H233Q244 630 251 623T258 605Q258 595 251 588T233 580H123V-49H233Q244 -49 251 -56T258 -74Q258 -84 251 -91T233 -99H98Z" />
<glyph unicode="\" glyph-name="backslash" horiz-adv-x="395" d="M341 -27Q350 -51 350 -55Q350 -65 343 -72T325 -80Q307 -80 302 -64L63 588Q52 620 52 624Q52 636 59 643T76 650Q94 650 99 634L341 -27Z" />
<glyph unicode="]" glyph-name="bracketright" horiz-adv-x="335" d="M102 -91Q92 -91 85 -84T77 -66Q77 -56 84 -49T102 -41H212V588H102Q92 588 85 595T77 613Q77 624 84 631T102 638H237Q248 638 255 631T262 613V-66Q262 -76 255 -83T237 -91H102Z" />
<glyph unicode="^" glyph-name="asciicircum" horiz-adv-x="490" d="M390 226Q374 226 368 240Q341 293 310 352T246 473Q214 412 182 353T123 240Q117 226 101 226Q90 226 83 234T76 251Q76 258 79 262Q110 322 146 391T219 530Q226 543 241 543H250Q266 543
272 530Q310 461 345 392T412 262Q415 258 415 251Q415 242 408 234T390 226Z" />
<glyph unicode="_" glyph-name="underscore" horiz-adv-x="495" d="M455 -74Q466 -74 473 -81T480 -99Q480 -109 473 -116T455 -124H40Q30 -124 23 -117T15 -99Q15 -89 22 -82T40 -74H455Z" />
<glyph unicode="`" glyph-name="grave" horiz-adv-x="490" d="M230 611Q250 585 265 565T301 515Q304 511 304 504Q304 495 298 488T281 480Q268 480 261 490Q242 518 228 538T194 584Q189 591 189 597Q189 605 196 612T213 620Q223 620 230 611Z" />
<glyph unicode="a" glyph-name="a" horiz-adv-x="450" d="M368 9Q346 32 334 67Q300 35 260 18T172 0Q126 0 99 17T61 59T50 106Q50 130 58 152T85 192Q110 215 152 231T255 247Q287 247 323 244Q319 289 293 315T215 342Q195 342 174 339T142 331Q129 326 123
326Q113 326 105 333T97 350Q97 369 114 375Q131 380 159 386T215 392Q297 392 335 347T374 230V139Q374 105 381 83T404 43Q411 36 411 26Q411 16 404 9T386 1Q376 1 368 9ZM172 50Q215 50 254 69T324 129V194Q287 197 255 197Q160 197 121 158Q109 146 105 133T100
106Q100 86 117 68T172 50Z" />
<glyph unicode="b" glyph-name="b" horiz-adv-x="505" d="M268 0Q195 0 135 25Q134 15 127 8T110 1Q100 1 93 8T85 26V536Q85 547 92 554T110 561Q121 561 128 554T135 536V322Q203 392 281 392Q329 392 369 368T433 299T457 195Q457 135 433 91T366 24T268 0ZM268
50Q330 50 368 89T407 195Q407 260 371 301T281 342Q241 342 203 316T135 247V79Q165 65 198 58T268 50Z" />
<glyph unicode="c" glyph-name="c" horiz-adv-x="436" d="M330 331Q294 342 260 342Q184 342 142 299T99 187Q99 128 141 89T259 50Q287 50 308 54T341 63Q352 67 355 68T361 69Q371 69 378 62T386 44Q386 27 370 21Q348 12 321 6T259 0Q191 0 144 25T73 93T49
187Q49 246 74 292T146 365T260 392Q311 392 357 376Q374 370 374 351Q374 342 366 335T348 327Q345 327 330 331Z" />
<glyph unicode="d" glyph-name="d" horiz-adv-x="505" d="M395 0Q385 0 378 7T370 25V67Q341 36 305 18T224 0Q175 0 136 23T73 88T49 188Q49 248 74 294T144 366T245 392Q281 392 311 383T370 356V536Q370 547 377 554T395 561Q406 561 413 554T420 536V25Q420
15 413 8T395 0ZM224 50Q274 50 309 76T370 143V296Q342 318 313 330T245 342Q203 342 170 322T118 268T99 188Q99 127 134 89T224 50Z" />
<glyph unicode="e" glyph-name="e" horiz-adv-x="460" d="M262 0Q166 0 108 50T49 191Q49 252 75 297T144 367T241 392Q294 392 330 371T384 319T403 258Q403 222 381 196T296 170H100Q108 110 152 80T262 50Q287 50 307 54T339 62Q350 66 353 67T359 68Q369 68
376 61T384 43Q384 26 368 20Q347 12 319 6T262 0ZM241 342Q188 342 149 309T101 220H297Q354 220 354 258Q354 289 323 315T241 342Z" />
<glyph unicode="f" glyph-name="f" horiz-adv-x="318" d="M134 0Q124 0 117 7T109 25V342H46Q36 342 29 349T21 367Q21 378 28 385T46 392H109V440Q109 514 152 550T271 586Q282 586 288 579T295 561Q295 552 288 545T271 537Q210 537 185 511T159 440V392H272Q283
392 290 385T297 367Q297 357 290 350T272 342H159V25Q159 15 152 8T134 0Z" />
<glyph unicode="g" glyph-name="g" horiz-adv-x="503" d="M162 -181Q152 -181 145 -174T137 -156Q137 -146 144 -139T162 -131Q269 -131 318 -76T368 71V75Q335 44 296 28T216 12Q175 12 137 30T74 87T49 187Q49 250 78 296T153 367T250 392Q285 392 312 386T368
369Q370 380 377 386T393 392Q404 392 411 385T418 367V71Q418 -43 357 -112T162 -181ZM216 62Q259 62 299 84T368 150V314Q337 328 311 335T250 342Q212 342 177 323T121 269T99 187Q99 144 116 116T160 75T216 62Z" />
<glyph unicode="h" glyph-name="h" horiz-adv-x="497" d="M397 0Q387 0 380 7T372 25V225Q372 287 349 314T285 342Q243 342 205 320T135 265V25Q135 15 128 8T110 0Q100 0 93 7T85 25V536Q85 547 92 554T110 561Q121 561 128 554T135 536V331Q169 357 206 374T285
392Q323 392 354 377T403 326T422 225V25Q422 15 415 8T397 0Z" />
<glyph unicode="i" glyph-name="i" horiz-adv-x="232" d="M115 597Q132 597 144 584T156 547Q156 524 144 512T116 500Q98 500 86 512T73 547Q73 570 85 583T115 597ZM91 367Q91 378 98 385T116 392Q127 392 134 385T141 367V25Q141 15 134 8T116 0Q106 0 99 7T91
25V367Z" />
<glyph unicode="j" glyph-name="j" horiz-adv-x="232" d="M115 597Q132 597 144 584T156 547Q156 524 144 512T116 500Q98 500 86 512T73 547Q73 570 85 583T115 597ZM-3 -110Q43 -92 67 -56T91 44V367Q91 378 98 385T116 392Q127 392 134 385T141 367V44Q141
-12 127 -50T88 -111T35 -148Q14 -158 6 -158Q-4 -158 -11 -151T-19 -133Q-19 -116 -3 -110Z" />
<glyph unicode="k" glyph-name="k" horiz-adv-x="469" d="M395 0Q381 0 375 10L229 215L135 141V25Q135 15 128 8T110 0Q100 0 93 7T85 25V536Q85 547 92 554T110 561Q121 561 128 554T135 536V205L367 387Q374 392 381 392Q392 392 399 386T407 368Q407 354 397
347L268 246L415 40Q420 33 420 25Q420 15 413 8T395 0Z" />
<glyph unicode="l" glyph-name="l" horiz-adv-x="232" d="M91 536Q91 547 98 554T116 561Q127 561 134 554T141 536V25Q141 15 134 8T116 0Q106 0 99 7T91 25V536Z" />
<glyph unicode="m" glyph-name="m" horiz-adv-x="752" d="M652 0Q642 0 635 7T627 25V235Q627 294 604 318T543 342Q506 342 471 321T407 268V25Q407 15 400 8T382 0Q372 0 365 7T357 25V235Q357 294 334 318T273 342Q236 342 200 320T135 265V25Q135 15 128 8T110
0Q100 0 93 7T85 25V367Q85 378 92 385T110 392Q121 392 128 385T135 367V333Q167 359 202 375T273 392Q312 392 344 378T393 323Q427 354 465 373T543 392Q580 392 610 379T658 333T677 235V25Q677 15 670 8T652 0Z" />
<glyph unicode="n" glyph-name="n" horiz-adv-x="497" d="M397 0Q387 0 380 7T372 25V225Q372 287 349 314T285 342Q243 342 205 320T135 265V25Q135 15 128 8T110 0Q100 0 93 7T85 25V367Q85 378 92 385T110 392Q121 392 128 385T135 367V331Q169 358 206 375T285
392Q323 392 354 377T403 326T422 225V25Q422 15 415 8T397 0Z" />
<glyph unicode="o" glyph-name="o" horiz-adv-x="495" d="M247 396Q308 396 352 369T421 295T446 191Q446 136 422 92T353 22T247 -4Q187 -4 142 22T73 93T48 193Q48 249 72 295T141 368T247 396ZM247 346Q201 346 168 325T116 270T98 193Q98 131 138 89T247 46Q315
46 355 88T396 191Q396 234 378 269T327 325T247 346Z" />
<glyph unicode="p" glyph-name="p" horiz-adv-x="503" d="M135 -166Q135 -176 128 -183T110 -191Q100 -191 93 -184T85 -166V367Q85 378 92 385T110 392Q121 392 128 385T135 367V327Q167 358 202 375T277 392Q324 392 364 370T430 305T455 196Q455 140 431 96T364
26T265 0Q232 0 199 11T135 41V-166ZM265 50Q328 50 366 92T405 196Q405 266 367 304T277 342Q235 342 200 318T135 253V101Q164 79 197 65T265 50Z" />
<glyph unicode="q" glyph-name="q" horiz-adv-x="505" d="M395 -191Q385 -191 378 -184T370 -166V63Q337 31 299 16T222 0Q178 0 139 21T74 83T49 181Q49 247 77 294T151 367T251 392Q318 392 370 368Q371 379 378 385T395 392Q406 392 413 385T420 367V-166Q420
-176 413 -183T395 -191ZM222 50Q264 50 302 71T370 138V312Q344 326 315 334T251 342Q210 342 176 323T120 267T99 181Q99 141 116 112T162 66T222 50Z" />
<glyph unicode="r" glyph-name="r" horiz-adv-x="346" d="M110 0Q100 0 93 7T85 25V367Q85 378 92 385T110 392Q121 392 128 385T135 367V308Q174 349 218 370T303 391Q314 391 320 385T327 368Q327 345 305 342Q247 335 207 305T135 227V25Q135 15 128 8T110 0Z" />
<glyph unicode="s" glyph-name="s" horiz-adv-x="450" d="M315 334Q305 337 281 341T227 345Q178 345 151 328T124 286Q124 264 146 251T221 232L261 228Q312 223 341 205T382 163T394 111Q394 84 380 58T332 14T233 -4Q196 -4 157 3T83 26Q68 33 68 50Q68 59
76 66T94 74Q96 74 101 72T119 65Q138 58 169 52T233 46Q287 46 315 64T344 111Q344 137 324 155T257 178L217 182Q158 188 127 204T85 243T74 287Q74 312 87 336T134 378T227 395Q261 395 290 391T343 379Q351 378 356 371T361 355Q361 344 354 337T336 330Q330
330 315 334Z" />
<glyph unicode="t" glyph-name="t" horiz-adv-x="354" d="M279 0Q187 0 148 38T109 142V342H46Q36 342 29 349T21 367Q21 378 28 385T46 392H109V493Q109 504 116 511T134 518Q145 518 152 511T159 493V392H292Q303 392 310 385T317 367Q317 357 310 350T292 342H159V142Q159
50 279 50Q290 50 297 43T304 25Q304 15 297 8T279 0Z" />
<glyph unicode="u" glyph-name="u" horiz-adv-x="497" d="M387 0Q377 0 370 7T362 25V70Q329 39 290 20T212 0Q175 0 144 15T94 66T75 167V367Q75 378 82 385T100 392Q111 392 118 385T125 367V167Q125 106 148 78T212 50Q253 50 293 76T362 140V367Q362 378 369
385T387 392Q398 392 405 385T412 367V25Q412 15 405 8T387 0Z" />
<glyph unicode="v" glyph-name="v" horiz-adv-x="451" d="M229 -4Q215 -4 208 8Q168 73 131 148T63 297Q49 331 44 348T38 367Q38 377 45 384T63 392Q80 392 86 376Q124 277 160 202T230 68Q254 111 278 164T326 273T366 376Q371 392 389 392Q399 392 406 385T414
367Q414 358 393 305Q378 267 355 214T306 107T253 8Q246 -4 232 -4H229Z" />
<glyph unicode="w" glyph-name="w" horiz-adv-x="699" d="M499 -4Q484 -4 477 9Q447 65 415 136T350 291Q332 242 309 191T264 94T223 11Q216 -3 201 -3H199Q183 -3 176 11Q145 76 120 142T70 286Q58 324 53 343T48 366Q48 376 55 383T73 391Q92 391 97 373Q120
291 147 215T201 78Q222 120 244 169T287 268T322 363Q324 371 331 376T346 381H352Q360 381 367 377T377 364Q406 282 437 209T498 77Q525 140 554 219T603 372Q608 390 627 390Q638 390 645 383T652 365Q652 363 650 356T646 340Q621 252 587 164T524 11Q517
-4 501 -4H499Z" />
<glyph unicode="x" glyph-name="x" horiz-adv-x="447" d="M384 0Q373 0 365 9Q334 44 298 84T223 166Q181 120 144 78T82 9Q75 0 63 0Q53 0 46 7T38 25Q38 35 44 41Q68 69 107 112T189 203Q152 244 118 282T57 351Q51 357 51 366Q51 377 58 384T75 392Q88 392
95 383Q121 353 153 317T223 240Q258 279 289 316T344 383Q352 392 364 392Q375 392 382 384T389 367Q389 357 384 351Q360 320 326 282T256 203Q296 160 334 119T403 41Q409 35 409 25Q409 16 402 8T384 0Z" />
<glyph unicode="y" glyph-name="y" horiz-adv-x="450" d="M64 -174Q55 -174 47 -167T38 -150Q38 -135 51 -127Q93 -103 132 -70T208 24Q170 84 128 163T53 327Q45 350 43 357T40 369Q40 377 47 385T64 393Q72 393 79 389T89 376Q124 279 163 204T236 73Q260 116
283 167T327 271T362 374Q367 392 386 392Q397 392 404 385T411 367Q411 364 408 352T401 331Q387 287 364 231T315 117T261 13Q217 -62 171 -102T75 -171Q71 -174 64 -174Z" />
<glyph unicode="z" glyph-name="z" horiz-adv-x="444" d="M71 0Q61 0 54 7T46 25Q46 36 58 49L307 342H86Q76 342 69 349T61 367Q61 378 68 385T86 392H361Q371 392 378 385T386 366Q386 357 380 351L124 50H372Q383 50 390 43T397 25Q397 15 390 8T372 0H71Z" />
<glyph unicode="{" glyph-name="braceleft" horiz-adv-x="412" d="M290 -100Q230 -100 189 -81T128 -31T107 33Q107 57 117 77T140 114T164 150T174 191Q174 212 151 222T93 237Q85 239 79 246T72 262V268Q72 277 78 284T93 293Q127 298 150 308T174 339Q174 361
164 379T141 415T117 453T107 497Q107 530 127 560T189 610T290 630H310Q321 630 328 623T335 605Q335 595 328 588T310 580H290Q234 580 196 557T157 497Q157 473 167 453T190 416T214 380T224 339Q224 317 213 298T175 265Q201 251 212 232T224 191Q224 169 214
151T191 115T167 77T157 33Q157 -3 195 -26T290 -50H310Q321 -50 328 -57T335 -75Q335 -85 328 -92T310 -100H290Z" />
<glyph unicode="|" glyph-name="bar" horiz-adv-x="300" d="M175 -76Q175 -86 168 -93T150 -101Q140 -101 133 -94T125 -76V606Q125 617 132 624T150 631Q161 631 168 624T175 606V-76Z" />
<glyph unicode="}" glyph-name="braceright" horiz-adv-x="412" d="M102 -100Q92 -100 85 -93T77 -75Q77 -65 84 -58T102 -50H122Q178 -50 216 -27T255 33Q255 57 245 77T222 114T198 150T188 191Q188 213 199 232T237 265Q211 279 200 298T188 339Q188 361 198
379T221 415T245 453T255 497Q255 533 217 556T122 580H102Q92 580 85 587T77 605Q77 616 84 623T102 630H122Q183 630 223 611T284 561T305 497Q305 473 295 453T272 416T248 380T238 339Q238 318 261 308T319 293Q327 292 333 285T340 268V262Q340 253 334 246T319
237Q285 233 262 223T238 191Q238 169 248 151T271 115T295 77T305 33Q305 0 285 -30T224 -80T122 -100H102Z" />
<glyph unicode="~" glyph-name="asciitilde" horiz-adv-x="612" d="M91 221Q123 286 154 314T222 343Q254 343 279 326T328 277Q347 253 363 240T400 227Q431 227 450 255T493 333Q499 347 517 347Q526 347 533 340T541 323Q541 315 534 301Q501 236 471 207T400
177Q370 177 343 192T290 243Q272 267 257 280T222 293Q195 293 176 267T135 199Q129 185 113 185Q102 185 95 193T88 210Q88 217 91 221Z" />
<glyph unicode="&#xa0;" glyph-name="uni00A0" horiz-adv-x="288" />
<glyph unicode="&#xa1;" glyph-name="exclamdown" horiz-adv-x="327" d="M208 510Q208 487 195 472T162 456Q141 456 129 471T117 510Q117 538 132 551T163 564Q183 564 195 552T208 510ZM137 291Q137 302 144 309T161 317Q172 317 179 310T187 293L194 15Q194
5 187 -3T170 -11Q160 -11 152 -4T144 13L137 291Z" />
<glyph unicode="&#xa2;" glyph-name="cent" horiz-adv-x="433" d="M264 25Q264 15 257 8T239 0Q229 0 222 7T214 25V80Q132 92 91 141T49 257Q49 331 92 383T214 449V509Q214 520 221 527T239 534Q250 534 257 527T264 509V453Q287 452 311 449T356 438Q374 433
374 414Q374 405 367 397T349 389Q345 389 339 390T320 395Q296 403 264 403V127Q281 128 299 130T329 136Q341 140 348 142T360 145Q371 145 378 138T386 121Q386 114 382 107T369 96Q347 89 322 84T264 77V25ZM99 257Q99 210 129 176T214 131V398Q159 387 129
349T99 257Z" />
<glyph unicode="&#xa3;" glyph-name="sterling" horiz-adv-x="456" d="M56 0Q46 0 39 7T31 25Q31 33 35 38T49 52L126 122Q143 138 155 156T168 192Q168 206 160 225H62Q52 225 45 232T37 250Q37 261 44 268T62 275H125Q97 309 82 339T67 406Q67 441 84 472T133
524T214 544Q252 544 287 534T350 504Q362 497 362 483Q362 472 355 465T337 458Q333 458 330 459T324 462Q300 476 273 485T214 494Q168 494 143 467T117 406Q117 375 132 350T173 295Q177 291 181 286T188 275H361Q372 275 379 268T386 250Q386 240 379 233T361
225H213Q218 207 218 192Q218 166 202 138T160 86L120 50H370Q381 50 388 43T395 25Q395 15 388 8T370 0H56Z" />
<glyph unicode="&#xa4;" glyph-name="currency" horiz-adv-x="521" d="M444 1Q434 1 426 9L366 75Q322 45 260 45Q229 45 203 53T155 74L96 9Q88 1 76 1Q66 1 59 9T52 27Q52 36 58 43L117 108Q77 157 77 226Q77 296 117 347L64 405Q57 412 57 422Q57 433 65 440T82
447Q92 447 100 439L153 381Q175 396 202 404T260 413Q291 413 317 405T365 382L419 441Q427 449 438 449Q448 449 455 442T463 424Q463 415 457 407L403 347Q443 296 443 224Q443 155 403 107L462 43Q469 36 469 26Q469 16 461 9T444 1ZM260 363Q219 363 189 344T143
294T127 226Q127 171 163 133T260 95Q320 95 356 132T393 224Q393 281 358 322T260 363Z" />
<glyph unicode="&#xa5;" glyph-name="yen" horiz-adv-x="560" d="M288 0Q278 0 271 7T263 25V102H113Q103 102 96 109T88 127Q88 138 95 145T113 152H263V244H113Q103 244 96 251T88 269Q88 280 95 287T113 294H240Q216 321 185 357T123 430T73 496Q68 503 68
510Q68 520 75 527T93 535Q105 535 113 524Q130 500 153 471T202 412T251 356T291 312Q317 340 348 378T408 456T459 524Q467 535 479 535Q490 535 497 528T504 510Q504 503 499 496Q480 468 453 432T396 360T341 294H461Q472 294 479 287T486 269Q486 259 479
252T461 244H313V152H461Q472 152 479 145T486 127Q486 117 479 110T461 102H313V25Q313 15 306 8T288 0Z" />
<glyph unicode="&#xa6;" glyph-name="brokenbar" horiz-adv-x="300" d="M175 310Q175 300 168 293T150 285Q140 285 133 292T125 310V537Q125 548 132 555T150 562Q161 562 168 555T175 537V310ZM175 -76Q175 -86 168 -93T150 -101Q140 -101 133 -94T125 -76V151Q125
162 132 169T150 176Q161 176 168 169T175 151V-76Z" />
<glyph unicode="&#xa7;" glyph-name="section" horiz-adv-x="525" d="M253 -123Q155 -123 74 -86Q67 -83 63 -77T59 -63Q59 -52 66 -45T84 -38Q90 -38 103 -44Q134 -57 172 -65T253 -73Q318 -73 355 -52T392 3Q392 38 356 54T250 82Q189 93 153 109T100 144T77
184T72 223Q72 259 90 287T143 331Q102 353 92 379T82 430Q82 456 99 481T152 524T243 541Q297 541 330 535T401 516Q418 511 418 491Q418 483 411 475T392 467Q390 467 383 469T355 477Q333 484 306 487T243 491Q198 491 165 474T132 430Q132 404 161 383T268
347Q343 334 382 312T437 261T452 203Q452 172 435 144T375 99Q415 81 428 57T442 3Q442 -27 425 -56T366 -104T253 -123ZM263 132Q326 132 364 150T402 203Q402 238 367 260T255 298H233Q185 298 154 280T122 223Q122 195 150 171T258 132H263Z" />
<glyph unicode="&#xa8;" glyph-name="dieresis" horiz-adv-x="490" d="M328 497Q312 497 301 509T289 543Q289 566 301 578T328 591Q342 591 354 579T366 543Q366 520 354 509T328 497ZM150 497Q134 497 123 509T111 543Q111 566 123 578T150 591Q164 591 176
579T188 543Q188 520 176 509T150 497Z" />
<glyph unicode="&#xa9;" glyph-name="copyright" horiz-adv-x="653" d="M329 544Q406 544 468 509T567 411T604 267Q604 190 572 127T478 28T329 -9Q247 -9 184 27T85 126T49 264Q49 347 84 410T182 508T329 544ZM329 494Q260 494 209 465T128 384T99 264Q99 202
128 152T210 71T329 41Q400 41 450 71T527 152T554 267Q554 334 524 385T443 465T329 494ZM393 360Q383 365 368 369T335 373Q294 373 263 343T231 266Q231 222 259 192T338 162Q372 162 396 175Q402 178 408 178Q419 178 426 171T433 153Q433 138 420 131Q403
122 383 117T338 112Q264 112 223 156T181 266Q181 313 202 348T259 403T335 423Q360 423 381 418T417 404Q430 398 430 382Q430 373 423 365T405 357Q399 357 393 360Z" />
<glyph unicode="&#xaa;" glyph-name="ordfeminine" horiz-adv-x="444" d="M325 258Q316 258 309 265Q296 280 288 298Q265 279 239 269T179 258Q146 258 127 270T100 300T92 334Q92 354 99 369T117 395Q131 409 161 421T236 434Q256 434 278 431Q274 457 257 472T209
487Q194 487 182 485T165 481Q150 476 146 476Q138 476 131 482T124 498Q124 514 139 519Q152 523 171 527T209 531Q268 531 295 499T323 416V356Q323 334 327 320T341 295Q347 289 347 280Q347 271 340 265T325 258ZM179 302Q209 302 234 314T279 349V387Q257
390 236 390Q174 390 148 364Q136 352 136 334Q136 322 147 312T179 302ZM356 188Q365 188 371 182T378 166Q378 157 372 151T356 144H98Q89 144 83 150T76 166Q76 175 82 181T98 188H356Z" />
<glyph unicode="&#xab;" glyph-name="guillemotleft" horiz-adv-x="438" d="M182 16Q169 16 162 26L51 176Q46 183 46 191V196Q46 204 51 211L162 361Q169 371 182 371Q193 371 200 364T207 346Q207 338 202 331L100 194L202 56Q207 49 207 41Q207 31 200 24T182
16ZM352 16Q339 16 332 26L221 176Q216 183 216 191V196Q216 204 221 211L332 361Q339 371 352 371Q363 371 370 364T377 346Q377 338 372 331L270 194L372 56Q377 49 377 41Q377 31 370 24T352 16Z" />
<glyph unicode="&#xac;" glyph-name="logicalnot" horiz-adv-x="481" d="M372 119Q362 119 355 126T347 144V226H109Q99 226 92 233T84 251Q84 262 91 269T109 276H372Q383 276 390 269T397 251V144Q397 134 390 127T372 119Z" />
<glyph unicode="&#xad;" glyph-name="uni00AD" horiz-adv-x="490" />
<glyph unicode="&#xae;" glyph-name="registered" horiz-adv-x="560" d="M277 623Q345 623 395 595T474 517T503 405Q503 342 475 293T397 215T284 186Q217 186 168 216T91 297T63 408Q63 472 90 520T165 595T277 623ZM277 579Q201 579 154 532T107 408Q107 360
129 320T190 255T284 230Q334 230 373 253T436 315T459 405Q459 455 436 494T372 556T277 579ZM356 296Q347 296 339 304L294 357H247V318Q247 309 241 303T225 296Q216 296 210 302T203 318V494Q203 503 209 509T225 516H282Q322 516 344 495T367 438Q367 419
360 402T338 373L373 332Q378 325 378 318Q378 310 372 303T356 296ZM247 472V401H282Q302 401 312 411T323 438Q323 455 311 463T282 472H247Z" />
<glyph unicode="&#xaf;" glyph-name="overscore" horiz-adv-x="490" d="M146 517Q137 517 131 523T124 539Q124 548 130 554T146 561H347Q356 561 362 555T369 539Q369 530 363 524T347 517H146Z" />
<glyph unicode="&#xb0;" glyph-name="degree" horiz-adv-x="440" d="M219 540Q268 540 305 518T364 459T385 375Q385 331 364 295T306 238T220 216Q171 216 134 237T76 295T55 375Q55 420 75 457T133 517T219 540ZM219 490Q167 490 136 456T105 375Q105 329 137
298T220 266Q270 266 302 297T335 375Q335 424 303 457T219 490Z" />
<glyph unicode="&#xb1;" glyph-name="plusminus" horiz-adv-x="530" d="M265 186Q255 186 248 193T240 211V305H96Q86 305 79 312T71 330Q71 341 78 348T96 355H240V449Q240 460 247 467T265 474Q276 474 283 467T290 449V355H433Q444 355 451 348T458 330Q458
320 451 313T433 305H290V211Q290 201 283 194T265 186ZM433 109Q444 109 451 102T458 84Q458 74 451 67T433 59H96Q86 59 79 66T71 84Q71 95 78 102T96 109H433Z" />
<glyph unicode="&#xb2;" glyph-name="uni00B2" horiz-adv-x="355" d="M86 238Q77 238 71 244T64 260Q64 271 76 281L165 364Q202 399 218 417T234 457Q234 473 220 483T181 494Q162 494 147 489T116 473Q112 470 105 470Q97 470 90 475T82 491Q82 504 92 511Q114
525 135 531T181 538Q234 538 256 512T278 457Q278 439 271 422T247 385T195 332L141 282H275Q284 282 290 276T297 260Q297 251 291 245T275 238H86Z" />
<glyph unicode="&#xb3;" glyph-name="uni00B3" horiz-adv-x="382" d="M189 227Q160 227 135 232T90 244Q83 246 80 252T76 266Q76 274 82 280T99 287Q102 287 113 283Q124 279 144 275T189 271Q224 271 245 284T267 321Q267 345 247 357T196 369Q163 369 153 366T132
362Q124 362 118 368T112 383Q112 392 119 399L221 488H108Q99 488 93 494T86 510Q86 519 92 525T108 532H280Q289 532 295 526T302 510Q302 504 300 500T292 491L202 413Q256 412 283 386T311 321Q311 284 283 256T189 227Z" />
<glyph unicode="&#xb4;" glyph-name="acute" horiz-adv-x="490" d="M304 583Q282 561 263 538T224 490Q218 482 207 482Q197 482 191 489T184 505Q184 512 189 519Q207 543 229 566T271 614Q277 621 287 621Q296 621 303 614T310 598Q310 589 304 583Z" />
<glyph unicode="&#xb5;" glyph-name="uni00B5" horiz-adv-x="497" d="M387 0Q377 0 370 7T362 25V70Q329 39 290 20T212 0Q187 0 165 6T125 27V-135Q125 -145 118 -152T100 -160Q90 -160 83 -153T75 -135V367Q75 378 82 385T100 392Q111 392 118 385T125 367V167Q125
106 148 78T212 50Q253 50 293 76T362 140V367Q362 378 369 385T387 392Q398 392 405 385T412 367V25Q412 15 405 8T387 0Z" />
<glyph unicode="&#xb6;" glyph-name="paragraph" horiz-adv-x="556" d="M433 0Q423 0 416 7T408 25V485H326V25Q326 15 319 8T301 0Q291 0 284 7T276 25V176H245Q180 176 137 200T73 266T52 356Q52 408 76 448T143 511T245 535H433Q444 535 451 528T458 510V25Q458
15 451 8T433 0ZM276 226V485H245Q181 485 142 450T102 356Q102 302 138 264T245 226H276Z" />
<glyph unicode="&#xb7;" glyph-name="middot" horiz-adv-x="225" d="M113 274Q133 274 146 259T159 220Q159 192 147 179T114 166Q98 166 83 179T68 220Q68 244 80 259T113 274Z" />
<glyph unicode="&#xb8;" glyph-name="cedilla" horiz-adv-x="490" d="M301 -123Q287 -134 268 -153T231 -192T201 -223Q195 -229 185 -229Q177 -229 170 -223T163 -207Q163 -197 169 -191Q181 -179 200 -161T238 -123T271 -91Q277 -85 286 -85Q294 -85 301 -91T308
-107Q308 -117 301 -123Z" />
<glyph unicode="&#xb9;" glyph-name="uni00B9" horiz-adv-x="232" d="M139 237Q130 237 124 243T117 259V484L67 457Q63 454 57 454Q49 454 42 461T35 476Q35 489 47 495L129 539Q134 542 139 542Q147 542 154 535T161 520V259Q161 250 155 244T139 237Z" />
<glyph unicode="&#xba;" glyph-name="ordmasculine" horiz-adv-x="438" d="M219 531Q260 531 290 512T337 462T354 393Q354 336 318 298T219 259Q157 259 120 297T83 393Q83 431 99 462T146 512T219 531ZM219 487Q176 487 152 459T127 393Q127 354 152 329T219
303Q260 303 285 328T310 393Q310 431 286 459T219 487ZM347 188Q356 188 362 182T369 166Q369 157 363 151T347 144H98Q89 144 83 150T76 166Q76 175 82 181T98 188H347Z" />
<glyph unicode="&#xbb;" glyph-name="guillemotright" horiz-adv-x="438" d="M256 16Q246 16 239 23T231 41Q231 49 236 56L338 194L236 331Q231 338 231 346Q231 356 238 363T256 371Q269 371 276 361L387 211Q392 204 392 196V191Q392 183 387 176L276 26Q269
16 256 16ZM86 16Q76 16 69 23T61 41Q61 49 66 56L168 194L66 331Q61 338 61 346Q61 356 68 363T86 371Q99 371 106 361L217 211Q222 204 222 196V191Q222 183 217 176L106 26Q99 16 86 16Z" />
<glyph unicode="&#xbc;" glyph-name="onequarter" horiz-adv-x="714" d="M202 237Q193 237 187 243T180 259V484L130 457Q126 454 120 454Q112 454 105 461T98 476Q98 489 110 495L192 539Q197 542 202 542Q210 542 217 535T224 520V259Q224 250 218 244T202 237ZM228
14Q222 3 208 3Q200 3 194 10T187 26Q187 32 190 36L473 521Q479 532 493 532Q501 532 507 525T514 509Q514 504 511 499L228 14ZM555 4Q546 4 540 10T533 26V79H398Q387 79 381 86T375 101Q375 108 380 115L535 296Q539 301 544 304T555 308Q564 308 570 302T577
286V123H617Q626 123 632 117T639 101Q639 92 633 86T617 79H577V26Q577 17 571 11T555 4ZM533 226L445 123H533V226Z" />
<glyph unicode="&#xbd;" glyph-name="onehalf" horiz-adv-x="780" d="M202 237Q193 237 187 243T180 259V484L130 457Q126 454 120 454Q112 454 105 461T98 476Q98 489 110 495L192 539Q197 542 202 542Q210 542 217 535T224 520V259Q224 250 218 244T202 237ZM228
14Q222 3 208 3Q200 3 194 10T187 26Q187 32 190 36L473 521Q479 532 493 532Q501 532 507 526T514 509Q514 504 511 499L228 14ZM466 3Q457 3 451 9T444 25Q444 36 456 46L545 129Q582 164 598 182T614 222Q614 238 600 248T561 259Q542 259 527 254T496 238Q492
235 485 235Q476 235 469 240T462 256Q462 269 472 276Q494 290 515 296T561 303Q614 303 636 277T658 222Q658 204 651 187T627 150T575 97L521 47H655Q664 47 670 41T677 25Q677 16 671 10T655 3H466Z" />
<glyph unicode="&#xbe;" glyph-name="threequarters" horiz-adv-x="826" d="M322 14Q316 3 302 3Q295 3 288 10T281 26Q281 32 284 36L567 521Q573 532 587 532Q595 532 601 525T608 509Q608 504 605 499L322 14ZM217 227Q188 227 163 232T118 244Q111 246 108
252T104 266Q104 274 110 280T127 287Q130 287 141 283Q152 279 172 275T217 271Q252 271 273 284T295 321Q295 345 275 357T224 369Q191 369 181 366T160 362Q152 362 146 368T140 383Q140 392 147 399L249 488H136Q127 488 121 494T114 510Q114 519 120 525T136
532H308Q317 532 323 526T330 510Q330 504 328 500T320 491L230 413Q284 412 311 386T339 321Q339 284 311 256T217 227ZM649 4Q640 4 634 10T627 26V79H492Q481 79 475 86T469 101Q469 108 474 115L629 296Q633 301 638 304T649 308Q658 308 664 302T671 286V123H711Q720
123 726 117T733 101Q733 92 727 86T711 79H671V26Q671 17 665 11T649 4ZM627 226L539 123H627V226Z" />
<glyph unicode="&#xbf;" glyph-name="questiondown" horiz-adv-x="371" d="M218 452Q199 452 186 467T172 506Q172 535 185 547T217 560Q234 560 248 547T263 506Q263 482 251 467T218 452ZM325 50Q297 31 266 21T187 11Q137 11 104 29T55 76T39 138Q39 182 67
215T140 271Q172 288 184 303T198 349Q199 360 206 366T224 373Q234 373 241 366T248 349Q248 326 243 306T220 266T162 227Q133 212 111 191T89 138Q89 106 115 84T187 61Q225 61 250 69T299 92Q302 94 305 95T312 96Q323 96 330 89T337 71Q337 58 325 50Z" />
<glyph unicode="&#xc0;" glyph-name="Agrave" horiz-adv-x="580" d="M505 0Q488 0 482 16Q472 43 458 76T428 145H146Q132 109 120 77T97 17Q94 9 87 5T72 0Q63 0 56 7T48 26Q48 29 49 34T58 57Q75 102 98 160T149 281T204 408T258 529Q265 544 282 544H286Q304
544 310 530Q337 472 367 405T427 273T480 151T519 57Q527 39 528 33T530 25Q530 15 523 8T505 0ZM407 195Q378 262 346 332T284 465Q256 401 226 332T167 195H407ZM189 751Q208 742 230 727T273 695T308 668Q316 662 316 651Q316 642 309 635T293 628Q286 628
279 633Q266 643 246 658T205 687T166 712Q155 718 155 731Q155 739 161 746T178 754Q183 754 189 751Z" />
<glyph unicode="&#xc1;" glyph-name="Aacute" horiz-adv-x="580" d="M505 0Q488 0 482 16Q472 43 458 76T428 145H146Q132 109 120 77T97 17Q94 9 87 5T72 0Q63 0 56 7T48 26Q48 29 49 34T58 57Q75 102 98 160T149 281T204 408T258 529Q265 544 282 544H286Q304
544 310 530Q337 472 367 405T427 273T480 151T519 57Q527 39 528 33T530 25Q530 15 523 8T505 0ZM407 195Q378 262 346 332T284 465Q256 401 226 332T167 195H407ZM406 711Q372 691 339 670T285 633Q280 629 272 629Q262 629 256 636T250 652Q250 664 259 670Q282
685 316 706T384 750Q389 753 394 753Q405 753 411 746T417 731Q417 717 406 711Z" />
<glyph unicode="&#xc2;" glyph-name="Acircumflex" horiz-adv-x="580" d="M505 0Q488 0 482 16Q472 43 458 76T428 145H146Q132 109 120 77T97 17Q94 9 87 5T72 0Q63 0 56 7T48 26Q48 29 49 34T58 57Q75 102 98 160T149 281T204 408T258 529Q265 544 282 544H286Q304
544 310 530Q337 472 367 405T427 273T480 151T519 57Q527 39 528 33T530 25Q530 15 523 8T505 0ZM407 195Q378 262 346 332T284 465Q256 401 226 332T167 195H407ZM382 614Q376 614 369 619Q349 633 328 649T283 681Q260 665 238 649T196 619Q191 615 183 615Q161
615 161 636Q161 647 170 654Q191 671 216 688T266 724Q273 729 281 729H284Q292 729 299 724Q325 706 349 689T395 654Q404 647 404 636Q404 628 399 621T382 614Z" />
<glyph unicode="&#xc3;" glyph-name="Atilde" horiz-adv-x="580" d="M505 0Q488 0 482 16Q472 43 458 76T428 145H146Q132 109 120 77T97 17Q94 9 87 5T72 0Q63 0 56 7T48 26Q48 29 49 34T58 57Q75 102 98 160T149 281T204 408T258 529Q265 544 282 544H286Q304
544 310 530Q337 472 367 405T427 273T480 151T519 57Q527 39 528 33T530 25Q530 15 523 8T505 0ZM407 195Q378 262 346 332T284 465Q256 401 226 332T167 195H407ZM138 664Q182 719 223 719Q243 719 260 711T294 689Q308 678 319 672T340 666Q357 666 370 678T398
709Q404 718 415 718Q425 718 431 711T437 696Q437 690 432 683Q408 652 387 637T340 622Q323 622 307 629T271 651Q257 662 246 668T223 675Q210 675 198 664T172 636Q166 628 155 628Q146 628 140 634T133 650Q133 657 138 664Z" />
<glyph unicode="&#xc4;" glyph-name="Adieresis" horiz-adv-x="580" d="M505 0Q488 0 482 16Q472 43 458 76T428 145H146Q132 109 120 77T97 17Q94 9 87 5T72 0Q63 0 56 7T48 26Q48 29 49 34T58 57Q75 102 98 160T149 281T204 408T258 529Q265 544 282 544H286Q304
544 310 530Q337 472 367 405T427 273T480 151T519 57Q527 39 528 33T530 25Q530 15 523 8T505 0ZM407 195Q378 262 346 332T284 465Q256 401 226 332T167 195H407ZM378 712Q392 712 404 700T416 664Q416 639 404 628T378 616Q363 616 351 628T339 664Q339 687
351 699T378 712ZM185 712Q199 712 211 700T223 664Q223 639 211 628T185 616Q170 616 158 628T145 664Q145 686 157 699T185 712Z" />
<glyph unicode="&#xc5;" glyph-name="Aring" horiz-adv-x="580" d="M505 0Q488 0 482 16Q472 43 458 76T428 145H146Q132 109 120 77T97 17Q94 9 87 5T72 0Q63 0 56 7T48 26Q48 29 49 34T58 57Q80 115 111 190T178 348T247 505Q212 515 193 542T174 600Q174 624
186 647T223 685T280 700Q332 700 360 669T389 600Q389 570 372 544T321 507Q348 450 376 386T432 260T482 145T519 57Q527 39 528 33T530 25Q530 15 523 8T505 0ZM345 600Q345 623 327 639T280 656Q252 656 235 639T218 600Q218 579 235 562T280 544Q309 544 327
560T345 600ZM407 195Q378 262 346 332T284 465Q256 401 226 332T167 195H407Z" />
<glyph unicode="&#xc6;" glyph-name="AE" horiz-adv-x="755" d="M393 0Q383 0 376 7T368 25V145H151Q127 108 105 74T64 11Q58 0 43 0Q33 0 26 7T18 25Q18 34 22 39Q63 102 115 182T224 350T333 523Q341 535 356 535H670Q681 535 688 528T695 510Q695 500 688
493T670 485H418V311H627Q638 311 645 304T652 286Q652 276 645 269T627 261H418V50H672Q683 50 690 43T697 25Q697 15 690 8T672 0H393ZM368 485Q324 414 277 340T184 195H368V485Z" />
<glyph unicode="&#xc7;" glyph-name="Ccedilla" horiz-adv-x="566" d="M458 468Q409 494 334 494Q274 494 224 465T142 385T111 264Q111 201 138 151T216 71T340 41Q376 41 407 48T464 68Q469 71 475 71Q486 71 493 64T500 46Q500 30 486 24Q456 8 419 0T340 -9Q252
-9 190 27T94 125T61 264Q61 348 99 411T199 509T334 544Q424 544 482 512Q495 504 495 490Q495 481 488 473T470 465Q464 465 458 468ZM360 -132Q346 -143 327 -162T290 -201T260 -232Q254 -238 244 -238Q236 -238 229 -232T222 -216Q222 -206 228 -200Q240 -188
259 -170T297 -132T330 -100Q336 -94 345 -94Q353 -94 360 -100T367 -116Q367 -126 360 -132Z" />
<glyph unicode="&#xc8;" glyph-name="Egrave" horiz-adv-x="487" d="M123 0Q113 0 106 7T98 25V510Q98 520 104 527T120 535H400Q411 535 418 528T425 510Q425 500 418 493T400 485H148V311H357Q368 311 375 304T382 286Q382 276 375 269T357 261H148V50H402Q413
50 420 43T427 25Q427 15 420 8T402 0H123ZM166 748Q185 739 207 724T250 692T285 665Q293 659 293 648Q293 639 286 632T270 625Q263 625 256 630Q243 640 223 655T182 684T143 709Q132 715 132 728Q132 736 138 743T155 751Q160 751 166 748Z" />
<glyph unicode="&#xc9;" glyph-name="Eacute" horiz-adv-x="487" d="M123 0Q113 0 106 7T98 25V510Q98 520 104 527T120 535H400Q411 535 418 528T425 510Q425 500 418 493T400 485H148V311H357Q368 311 375 304T382 286Q382 276 375 269T357 261H148V50H402Q413
50 420 43T427 25Q427 15 420 8T402 0H123ZM383 708Q349 688 316 667T262 630Q257 626 249 626Q239 626 233 633T227 649Q227 661 236 667Q259 682 293 703T361 747Q366 750 371 750Q382 750 388 743T394 728Q394 714 383 708Z" />
<glyph unicode="&#xca;" glyph-name="Ecircumflex" horiz-adv-x="487" d="M123 0Q113 0 106 7T98 25V510Q98 520 104 527T120 535H400Q411 535 418 528T425 510Q425 500 418 493T400 485H148V311H357Q368 311 375 304T382 286Q382 276 375 269T357 261H148V50H402Q413
50 420 43T427 25Q427 15 420 8T402 0H123ZM359 633Q353 633 346 638Q326 652 305 668T260 700Q237 684 215 668T173 638Q168 634 160 634Q138 634 138 655Q138 666 147 673Q168 690 193 707T243 743Q250 748 258 748H261Q269 748 276 743Q302 725 326 708T372
673Q381 666 381 655Q381 647 376 640T359 633Z" />
<glyph unicode="&#xcb;" glyph-name="Edieresis" horiz-adv-x="487" d="M123 0Q113 0 106 7T98 25V510Q98 520 104 527T120 535H400Q411 535 418 528T425 510Q425 500 418 493T400 485H148V311H357Q368 311 375 304T382 286Q382 276 375 269T357 261H148V50H402Q413
50 420 43T427 25Q427 15 420 8T402 0H123ZM355 730Q369 730 381 718T393 682Q393 657 381 646T355 634Q340 634 328 646T316 682Q316 705 328 717T355 730ZM162 730Q176 730 188 718T200 682Q200 657 188 646T162 634Q147 634 135 646T122 682Q122 704 134 717T162
730Z" />
<glyph unicode="&#xcc;" glyph-name="Igrave" horiz-adv-x="256" d="M153 25Q153 15 146 8T128 0Q118 0 111 7T103 25V510Q103 521 110 528T128 535Q139 535 146 528T153 510V25ZM30 748Q49 739 71 724T114 692T149 665Q157 659 157 648Q157 639 150 632T134 625Q127
625 120 630Q107 640 87 655T46 684T7 709Q-4 715 -4 728Q-4 736 2 743T19 751Q24 751 30 748Z" />
<glyph unicode="&#xcd;" glyph-name="Iacute" horiz-adv-x="256" d="M153 25Q153 15 146 8T128 0Q118 0 111 7T103 25V510Q103 521 110 528T128 535Q139 535 146 528T153 510V25ZM247 708Q213 688 180 667T126 630Q121 626 113 626Q103 626 97 633T91 649Q91 661
100 667Q123 682 157 703T225 747Q230 750 235 750Q246 750 252 743T258 728Q258 714 247 708Z" />
<glyph unicode="&#xce;" glyph-name="Icircumflex" horiz-adv-x="256" d="M153 25Q153 15 146 8T128 0Q118 0 111 7T103 25V510Q103 521 110 528T128 535Q139 535 146 528T153 510V25ZM223 633Q217 633 210 638Q190 652 169 668T124 700Q101 684 79 668T37 638Q32
634 24 634Q2 634 2 655Q2 666 11 673Q32 690 57 707T107 743Q114 748 122 748H125Q133 748 140 743Q166 725 190 708T236 673Q245 666 245 655Q245 647 240 640T223 633Z" />
<glyph unicode="&#xcf;" glyph-name="Idieresis" horiz-adv-x="256" d="M153 25Q153 15 146 8T128 0Q118 0 111 7T103 25V510Q103 521 110 528T128 535Q139 535 146 528T153 510V25ZM219 730Q233 730 245 718T257 682Q257 657 245 646T219 634Q204 634 192 646T180
682Q180 705 192 717T219 730ZM26 730Q40 730 52 718T64 682Q64 657 52 646T26 634Q11 634 -1 646T-14 682Q-14 704 -2 717T26 730Z" />
<glyph unicode="&#xd0;" glyph-name="Eth" horiz-adv-x="627" d="M138 0Q128 0 121 7T113 25V247H64Q54 247 47 254T39 272Q39 283 46 290T64 297H113V510Q113 521 120 528T138 535H314Q380 535 437 501T530 407T566 268Q566 193 535 133T447 36T314 0H138ZM163
247V50H314Q376 50 421 79T491 158T516 268Q516 331 488 380T414 457T314 485H163V297H310Q321 297 328 290T335 272Q335 262 328 255T310 247H163Z" />
<glyph unicode="&#xd1;" glyph-name="Ntilde" horiz-adv-x="635" d="M486 10Q452 56 408 113T316 229T226 345T148 444V25Q148 15 141 8T123 0Q113 0 106 7T98 25V510Q98 521 105 528T122 535Q142 535 149 525Q174 492 214 441T301 329T397 207T487 91V510Q487
521 494 528T512 535Q523 535 530 528T537 510V25Q537 15 530 8T513 0Q493 0 486 10ZM174 662Q218 717 259 717Q279 717 296 709T330 687Q344 676 355 670T376 664Q393 664 406 676T434 707Q440 716 451 716Q461 716 467 709T473 694Q473 688 468 681Q444 650 423
635T376 620Q359 620 343 627T307 649Q293 660 282 666T259 673Q246 673 234 662T208 634Q202 626 191 626Q182 626 176 632T169 648Q169 655 174 662Z" />
<glyph unicode="&#xd2;" glyph-name="Ograve" horiz-adv-x="640" d="M322 544Q393 544 451 509T544 412T579 267Q579 189 549 127T461 28T322 -9Q246 -9 187 27T95 126T61 264Q61 348 94 411T185 509T322 544ZM322 494Q259 494 212 465T138 384T111 264Q111 203
137 152T212 71T322 41Q388 41 434 71T505 152T529 267Q529 333 502 384T427 464T322 494ZM224 750Q243 741 265 726T308 694T343 667Q351 661 351 650Q351 641 344 634T328 627Q321 627 314 632Q301 642 281 657T240 686T201 711Q190 717 190 730Q190 738 196
745T213 753Q218 753 224 750Z" />
<glyph unicode="&#xd3;" glyph-name="Oacute" horiz-adv-x="640" d="M322 544Q393 544 451 509T544 412T579 267Q579 189 549 127T461 28T322 -9Q246 -9 187 27T95 126T61 264Q61 348 94 411T185 509T322 544ZM322 494Q259 494 212 465T138 384T111 264Q111 203
137 152T212 71T322 41Q388 41 434 71T505 152T529 267Q529 333 502 384T427 464T322 494ZM441 710Q407 690 374 669T320 632Q315 628 307 628Q297 628 291 635T285 651Q285 663 294 669Q317 684 351 705T419 749Q424 752 429 752Q440 752 446 745T452 730Q452
716 441 710Z" />
<glyph unicode="&#xd4;" glyph-name="Ocircumflex" horiz-adv-x="640" d="M322 544Q393 544 451 509T544 412T579 267Q579 189 549 127T461 28T322 -9Q246 -9 187 27T95 126T61 264Q61 348 94 411T185 509T322 544ZM322 494Q259 494 212 465T138 384T111 264Q111
203 137 152T212 71T322 41Q388 41 434 71T505 152T529 267Q529 333 502 384T427 464T322 494ZM417 625Q411 625 404 630Q384 644 363 660T318 692Q295 676 273 660T231 630Q226 626 218 626Q196 626 196 647Q196 658 205 665Q226 682 251 699T301 735Q308 740
316 740H319Q327 740 334 735Q360 717 384 700T430 665Q439 658 439 647Q439 639 434 632T417 625Z" />
<glyph unicode="&#xd5;" glyph-name="Otilde" horiz-adv-x="640" d="M322 544Q393 544 451 509T544 412T579 267Q579 189 549 127T461 28T322 -9Q246 -9 187 27T95 126T61 264Q61 348 94 411T185 509T322 544ZM322 494Q259 494 212 465T138 384T111 264Q111 203
137 152T212 71T322 41Q388 41 434 71T505 152T529 267Q529 333 502 384T427 464T322 494ZM173 676Q217 731 258 731Q278 731 295 723T329 701Q343 690 354 684T375 678Q392 678 405 690T433 721Q439 730 450 730Q460 730 466 723T472 708Q472 702 467 695Q443
664 422 649T375 634Q358 634 342 641T306 663Q292 674 281 680T258 687Q245 687 233 676T207 648Q201 640 190 640Q181 640 175 646T168 662Q168 669 173 676Z" />
<glyph unicode="&#xd6;" glyph-name="Odieresis" horiz-adv-x="640" d="M322 544Q393 544 451 509T544 412T579 267Q579 189 549 127T461 28T322 -9Q246 -9 187 27T95 126T61 264Q61 348 94 411T185 509T322 544ZM322 494Q259 494 212 465T138 384T111 264Q111
203 137 152T212 71T322 41Q388 41 434 71T505 152T529 267Q529 333 502 384T427 464T322 494ZM413 732Q427 732 439 720T451 684Q451 659 439 648T413 636Q398 636 386 648T374 684Q374 707 386 719T413 732ZM220 732Q234 732 246 720T258 684Q258 659 246 648T220
636Q205 636 193 648T180 684Q180 706 192 719T220 732Z" />
<glyph unicode="&#xd7;" glyph-name="multiply" horiz-adv-x="530" d="M400 99Q390 99 383 106L255 229L127 106Q120 99 110 99Q100 99 93 106T85 124Q85 134 93 142L219 263L97 380Q89 388 89 398Q89 409 96 416T114 423Q124 423 131 416L255 297L379 417Q386
424 396 424Q407 424 414 417T421 399Q421 389 413 381L290 263L417 142Q425 134 425 124Q425 114 418 107T400 99Z" />
<glyph unicode="&#xd8;" glyph-name="Oslash" horiz-adv-x="640" d="M134 -10Q127 -19 115 -19Q106 -19 98 -12T90 6Q90 15 96 22L135 70Q100 107 81 156T61 264Q61 348 94 411T185 509T322 544Q410 544 477 491L506 526Q514 535 525 535Q535 535 542 528T550
510Q550 502 544 494L513 456Q544 420 561 372T579 267Q579 189 549 127T461 28T322 -9Q279 -9 242 3T172 37L134 -10ZM111 264Q111 171 167 109L446 452Q392 494 322 494Q259 494 212 465T138 384T111 264ZM322 41Q388 41 434 71T505 152T529 267Q529 311 517
349T481 416L204 76Q229 60 258 51T322 41Z" />
<glyph unicode="&#xd9;" glyph-name="Ugrave" horiz-adv-x="616" d="M136 214Q136 131 183 86T306 41Q389 41 434 86T480 217V510Q480 521 487 528T505 535Q516 535 523 528T530 510V217Q530 108 472 50T306 -9Q209 -9 148 49T86 214V510Q86 521 93 528T111 535Q122
535 129 528T136 510V214ZM211 716Q230 707 252 692T295 660T330 633Q338 627 338 616Q338 607 331 600T315 593Q308 593 301 598Q288 608 268 623T227 652T188 677Q177 683 177 696Q177 704 183 711T200 719Q205 719 211 716Z" />
<glyph unicode="&#xda;" glyph-name="Uacute" horiz-adv-x="616" d="M136 214Q136 131 183 86T306 41Q389 41 434 86T480 217V510Q480 521 487 528T505 535Q516 535 523 528T530 510V217Q530 108 472 50T306 -9Q209 -9 148 49T86 214V510Q86 521 93 528T111 535Q122
535 129 528T136 510V214ZM428 676Q394 656 361 635T307 598Q302 594 294 594Q284 594 278 601T272 617Q272 629 281 635Q304 650 338 671T406 715Q411 718 416 718Q427 718 433 711T439 696Q439 682 428 676Z" />
<glyph unicode="&#xdb;" glyph-name="Ucircumflex" horiz-adv-x="616" d="M136 214Q136 131 183 86T306 41Q389 41 434 86T480 217V510Q480 521 487 528T505 535Q516 535 523 528T530 510V217Q530 108 472 50T306 -9Q209 -9 148 49T86 214V510Q86 521 93 528T111
535Q122 535 129 528T136 510V214ZM404 601Q398 601 391 606Q371 620 350 636T305 668Q282 652 260 636T218 606Q213 602 205 602Q183 602 183 623Q183 634 192 641Q213 658 238 675T288 711Q295 716 303 716H306Q314 716 321 711Q347 693 371 676T417 641Q426
634 426 623Q426 615 421 608T404 601Z" />
<glyph unicode="&#xdc;" glyph-name="Udieresis" horiz-adv-x="616" d="M136 214Q136 131 183 86T306 41Q389 41 434 86T480 217V510Q480 521 487 528T505 535Q516 535 523 528T530 510V217Q530 108 472 50T306 -9Q209 -9 148 49T86 214V510Q86 521 93 528T111
535Q122 535 129 528T136 510V214ZM400 698Q414 698 426 686T438 650Q438 625 426 614T400 602Q385 602 373 614T361 650Q361 673 373 685T400 698ZM207 698Q221 698 233 686T245 650Q245 625 233 614T207 602Q192 602 180 614T167 650Q167 672 179 685T207 698Z"
/>
<glyph unicode="&#xdd;" glyph-name="Yacute" horiz-adv-x="560" d="M282 0Q272 0 265 7T257 25V193Q240 215 212 255T154 341T96 429T53 497Q50 503 50 510Q50 519 56 526T74 534Q89 534 95 523Q109 500 132 464T183 386T237 307T283 242Q304 271 329 309T381
388T429 464T465 523Q471 534 486 534Q510 534 510 510Q510 503 507 497Q492 472 467 432T411 346T354 259T307 191V25Q307 15 300 8T282 0ZM404 681Q370 661 337 640T283 603Q278 599 270 599Q260 599 254 606T248 622Q248 634 257 640Q280 655 314 676T382 720Q387
723 392 723Q403 723 409 716T415 701Q415 687 404 681Z" />
<glyph unicode="&#xde;" glyph-name="Thorn" horiz-adv-x="505" d="M123 0Q113 0 106 7T98 25V510Q98 521 105 528T123 535Q134 535 141 528T148 510V441H260Q319 441 362 419T429 358T453 269Q453 224 433 186T370 124T260 101H148V25Q148 15 141 8T123 0ZM148
391V151H260Q330 151 366 185T403 269Q403 324 363 357T260 391H148Z" />
<glyph unicode="&#xdf;" glyph-name="germandbls" horiz-adv-x="509" d="M322 -4Q299 -4 279 0T246 9Q230 15 230 32Q230 42 237 49T255 57Q259 57 270 53Q275 51 290 49T322 46Q365 46 389 67T413 125Q413 190 332 230L249 269Q235 275 235 293V295Q235 309 246
317Q284 343 304 362T331 402T339 446Q339 481 315 509T237 537Q188 537 165 508T141 436V25Q141 15 134 8T116 0Q106 0 99 7T91 25V436Q91 500 127 543T237 587Q290 587 323 567T373 515T389 446Q389 418 383 395T360 348T306 298L354 274Q413 246 438 208T463
125Q463 70 428 33T322 -4Z" />
<glyph unicode="&#xe0;" glyph-name="agrave" horiz-adv-x="450" d="M368 9Q346 32 334 67Q300 35 260 18T172 0Q126 0 99 17T61 59T50 106Q50 130 58 152T85 192Q110 215 152 231T255 247Q287 247 323 244Q319 289 293 315T215 342Q195 342 174 339T142 331Q129
326 123 326Q113 326 105 333T97 350Q97 369 114 375Q131 380 159 386T215 392Q297 392 335 347T374 230V139Q374 105 381 83T404 43Q411 36 411 26Q411 16 404 9T386 1Q376 1 368 9ZM172 50Q215 50 254 69T324 129V194Q287 197 255 197Q160 197 121 158Q109 146
105 133T100 106Q100 86 117 68T172 50ZM162 611Q182 585 197 565T233 515Q236 511 236 504Q236 495 230 488T213 480Q200 480 193 490Q174 518 160 538T126 584Q121 591 121 597Q121 605 128 612T145 620Q155 620 162 611Z" />
<glyph unicode="&#xe1;" glyph-name="aacute" horiz-adv-x="450" d="M368 9Q346 32 334 67Q300 35 260 18T172 0Q126 0 99 17T61 59T50 106Q50 130 58 152T85 192Q110 215 152 231T255 247Q287 247 323 244Q319 289 293 315T215 342Q195 342 174 339T142 331Q129
326 123 326Q113 326 105 333T97 350Q97 369 114 375Q131 380 159 386T215 392Q297 392 335 347T374 230V139Q374 105 381 83T404 43Q411 36 411 26Q411 16 404 9T386 1Q376 1 368 9ZM172 50Q215 50 254 69T324 129V194Q287 197 255 197Q160 197 121 158Q109 146
105 133T100 106Q100 86 117 68T172 50ZM309 583Q287 561 268 538T229 490Q223 482 212 482Q202 482 196 489T189 505Q189 512 194 519Q212 543 234 566T276 614Q282 621 292 621Q301 621 308 614T315 598Q315 589 309 583Z" />
<glyph unicode="&#xe2;" glyph-name="acircumflex" horiz-adv-x="450" d="M368 9Q346 32 334 67Q300 35 260 18T172 0Q126 0 99 17T61 59T50 106Q50 130 58 152T85 192Q110 215 152 231T255 247Q287 247 323 244Q319 289 293 315T215 342Q195 342 174 339T142
331Q129 326 123 326Q113 326 105 333T97 350Q97 369 114 375Q131 380 159 386T215 392Q297 392 335 347T374 230V139Q374 105 381 83T404 43Q411 36 411 26Q411 16 404 9T386 1Q376 1 368 9ZM172 50Q215 50 254 69T324 129V194Q287 197 255 197Q160 197 121 158Q109
146 105 133T100 106Q100 86 117 68T172 50ZM213 616H216Q227 616 237 606Q252 591 276 567T319 523Q325 517 325 507Q325 498 319 492T304 486Q294 486 287 493Q273 507 252 528T214 567Q197 550 177 530T141 493Q134 486 124 486Q116 486 110 491T103 507Q103
516 109 523Q129 545 151 568T192 607Q201 616 213 616Z" />
<glyph unicode="&#xe3;" glyph-name="atilde" horiz-adv-x="450" d="M368 9Q346 32 334 67Q300 35 260 18T172 0Q126 0 99 17T61 59T50 106Q50 130 58 152T85 192Q110 215 152 231T255 247Q287 247 323 244Q319 289 293 315T215 342Q195 342 174 339T142 331Q129
326 123 326Q113 326 105 333T97 350Q97 369 114 375Q131 380 159 386T215 392Q297 392 335 347T374 230V139Q374 105 381 83T404 43Q411 36 411 26Q411 16 404 9T386 1Q376 1 368 9ZM172 50Q215 50 254 69T324 129V194Q287 197 255 197Q160 197 121 158Q109 146
105 133T100 106Q100 86 117 68T172 50ZM86 534Q105 563 125 576T164 589Q181 589 194 582T229 561Q255 543 267 543Q276 543 286 552T308 577Q315 588 325 588Q334 588 340 582T347 566Q347 559 343 554Q321 526 305 513T268 499Q243 499 205 525Q191 535 183
539T166 544Q156 544 145 534T122 510Q115 500 104 500Q95 500 89 506T82 522Q82 528 86 534Z" />
<glyph unicode="&#xe4;" glyph-name="adieresis" horiz-adv-x="450" d="M368 9Q346 32 334 67Q300 35 260 18T172 0Q126 0 99 17T61 59T50 106Q50 130 58 152T85 192Q110 215 152 231T255 247Q287 247 323 244Q319 289 293 315T215 342Q195 342 174 339T142 331Q129
326 123 326Q113 326 105 333T97 350Q97 369 114 375Q131 380 159 386T215 392Q297 392 335 347T374 230V139Q374 105 381 83T404 43Q411 36 411 26Q411 16 404 9T386 1Q376 1 368 9ZM172 50Q215 50 254 69T324 129V194Q287 197 255 197Q160 197 121 158Q109 146
105 133T100 106Q100 86 117 68T172 50ZM300 497Q284 497 273 509T261 543Q261 566 273 578T300 591Q314 591 326 579T338 543Q338 520 326 509T300 497ZM122 497Q106 497 95 509T83 543Q83 566 95 578T122 591Q136 591 148 579T160 543Q160 520 148 509T122 497Z"
/>
<glyph unicode="&#xe5;" glyph-name="aring" horiz-adv-x="450" d="M368 9Q357 21 349 34T334 65Q268 0 172 0Q126 0 99 17T61 59T50 106Q50 130 58 151T85 192Q111 217 152 232T255 247Q287 247 323 244Q319 288 293 315T215 342Q195 342 174 339T142 331Q129
326 123 326Q113 326 105 333T97 350Q97 369 114 375Q120 377 127 379T144 383Q129 397 121 416T113 454Q113 478 125 501T162 539T219 554Q271 554 299 523T328 454Q328 408 292 378Q334 360 354 322T374 230V139Q374 105 381 83T404 43Q411 36 411 26Q411 16
404 9T386 1Q376 1 368 9ZM284 454Q284 477 266 493T219 510Q191 510 174 493T157 454Q157 433 174 416T219 398Q248 398 266 414T284 454ZM172 50Q220 50 256 69T324 129V194Q288 197 255 197Q160 197 121 156Q109 145 105 133T100 106Q100 86 117 68T172 50Z"
/>
<glyph unicode="&#xe6;" glyph-name="ae" horiz-adv-x="745" d="M547 0Q487 0 441 20T367 77Q324 43 275 22T172 0Q126 0 99 17T61 59T50 106Q50 130 58 151T85 192Q111 217 152 232T255 247Q290 247 330 244Q326 289 297 315T215 342Q198 342 181 340T151 333Q141
330 133 328T122 326Q112 326 105 333T97 350Q97 369 114 375Q131 380 159 386T215 392Q273 392 311 369T366 306Q392 347 434 369T527 392Q578 392 614 370T669 317T688 257Q688 220 666 195T581 170H385Q393 110 437 80T547 50Q572 50 592 54T624 62Q635 66 638
67T644 68Q654 68 661 61T669 43Q669 26 653 20Q632 12 604 6T547 0ZM527 342Q474 342 435 309T386 220H581Q638 220 638 257Q638 277 624 296T584 329T527 342ZM172 50Q220 50 263 71T344 124Q334 153 334 194Q315 196 294 196T255 197Q162 197 121 156Q109 144
105 132T100 106Q100 86 117 68T172 50Z" />
<glyph unicode="&#xe7;" glyph-name="ccedilla" horiz-adv-x="436" d="M330 331Q294 342 260 342Q184 342 142 299T99 187Q99 128 141 89T259 50Q287 50 308 54T341 63Q352 67 355 68T361 69Q371 69 378 62T386 44Q386 27 370 21Q348 12 321 6T259 0Q191 0 144
25T73 93T49 187Q49 246 74 292T146 365T260 392Q311 392 357 376Q374 370 374 351Q374 342 366 335T348 327Q345 327 330 331ZM279 -123Q265 -134 246 -153T209 -192T179 -223Q173 -229 163 -229Q155 -229 148 -223T141 -207Q141 -197 147 -191Q159 -179 178 -161T216
-123T249 -91Q255 -85 264 -85Q272 -85 279 -91T286 -107Q286 -117 279 -123Z" />
<glyph unicode="&#xe8;" glyph-name="egrave" horiz-adv-x="460" d="M262 0Q166 0 108 50T49 191Q49 252 75 297T144 367T241 392Q294 392 330 371T384 319T403 258Q403 222 381 196T296 170H100Q108 110 152 80T262 50Q287 50 307 54T339 62Q350 66 353 67T359
68Q369 68 376 61T384 43Q384 26 368 20Q347 12 319 6T262 0ZM241 342Q188 342 149 309T101 220H297Q354 220 354 258Q354 289 323 315T241 342ZM184 611Q204 585 219 565T255 515Q258 511 258 504Q258 495 252 488T235 480Q222 480 215 490Q196 518 182 538T148
584Q143 591 143 597Q143 605 150 612T167 620Q177 620 184 611Z" />
<glyph unicode="&#xe9;" glyph-name="eacute" horiz-adv-x="460" d="M262 0Q166 0 108 50T49 191Q49 252 75 297T144 367T241 392Q294 392 330 371T384 319T403 258Q403 222 381 196T296 170H100Q108 110 152 80T262 50Q287 50 307 54T339 62Q350 66 353 67T359
68Q369 68 376 61T384 43Q384 26 368 20Q347 12 319 6T262 0ZM241 342Q188 342 149 309T101 220H297Q354 220 354 258Q354 289 323 315T241 342ZM331 583Q309 561 290 538T251 490Q245 482 234 482Q224 482 218 489T211 505Q211 512 216 519Q234 543 256 566T298
614Q304 621 314 621Q323 621 330 614T337 598Q337 589 331 583Z" />
<glyph unicode="&#xea;" glyph-name="ecircumflex" horiz-adv-x="460" d="M262 0Q166 0 108 50T49 191Q49 252 75 297T144 367T241 392Q294 392 330 371T384 319T403 258Q403 222 381 196T296 170H100Q108 110 152 80T262 50Q287 50 307 54T339 62Q350 66 353
67T359 68Q369 68 376 61T384 43Q384 26 368 20Q347 12 319 6T262 0ZM241 342Q188 342 149 309T101 220H297Q354 220 354 258Q354 289 323 315T241 342ZM235 616H238Q249 616 259 606Q274 591 298 567T341 523Q347 517 347 507Q347 498 341 492T326 486Q316 486
309 493Q295 507 274 528T236 567Q219 550 199 530T163 493Q156 486 146 486Q138 486 132 491T125 507Q125 516 131 523Q151 545 173 568T214 607Q223 616 235 616Z" />
<glyph unicode="&#xeb;" glyph-name="edieresis" horiz-adv-x="460" d="M262 0Q166 0 108 50T49 191Q49 252 75 297T144 367T241 392Q294 392 330 371T384 319T403 258Q403 222 381 196T296 170H100Q108 110 152 80T262 50Q287 50 307 54T339 62Q350 66 353 67T359
68Q369 68 376 61T384 43Q384 26 368 20Q347 12 319 6T262 0ZM241 342Q188 342 149 309T101 220H297Q354 220 354 258Q354 289 323 315T241 342ZM322 497Q306 497 295 509T283 543Q283 566 295 578T322 591Q336 591 348 579T360 543Q360 520 348 509T322 497ZM144
497Q128 497 117 509T105 543Q105 566 117 578T144 591Q158 591 170 579T182 543Q182 520 170 509T144 497Z" />
<glyph unicode="&#xec;" glyph-name="igrave" horiz-adv-x="232" d="M91 367Q91 378 98 385T116 392Q127 392 134 385T141 367V25Q141 15 134 8T116 0Q106 0 99 7T91 25V367ZM64 611Q84 585 99 565T135 515Q138 511 138 504Q138 495 132 488T115 480Q102 480 95
490Q76 518 62 538T28 584Q23 591 23 597Q23 605 30 612T47 620Q57 620 64 611Z" />
<glyph unicode="&#xed;" glyph-name="iacute" horiz-adv-x="232" d="M91 367Q91 378 98 385T116 392Q127 392 134 385T141 367V25Q141 15 134 8T116 0Q106 0 99 7T91 25V367ZM211 583Q189 561 170 538T131 490Q125 482 114 482Q104 482 98 489T91 505Q91 512 96
519Q114 543 136 566T178 614Q184 621 194 621Q203 621 210 614T217 598Q217 589 211 583Z" />
<glyph unicode="&#xee;" glyph-name="icircumflex" horiz-adv-x="232" d="M91 367Q91 378 98 385T116 392Q127 392 134 385T141 367V25Q141 15 134 8T116 0Q106 0 99 7T91 25V367ZM115 616H118Q129 616 139 606Q154 591 178 567T221 523Q227 517 227 507Q227 498
221 492T206 486Q196 486 189 493Q175 507 154 528T116 567Q99 550 79 530T43 493Q36 486 26 486Q18 486 12 491T5 507Q5 516 11 523Q31 545 53 568T94 607Q103 616 115 616Z" />
<glyph unicode="&#xef;" glyph-name="idieresis" horiz-adv-x="232" d="M91 367Q91 378 98 385T116 392Q127 392 134 385T141 367V25Q141 15 134 8T116 0Q106 0 99 7T91 25V367ZM202 497Q186 497 175 509T163 543Q163 566 175 578T202 591Q216 591 228 579T240
543Q240 520 228 509T202 497ZM24 497Q8 497 -3 509T-15 543Q-15 566 -3 578T24 591Q38 591 50 579T62 543Q62 520 50 509T24 497Z" />
<glyph unicode="&#xf0;" glyph-name="eth" horiz-adv-x="484" d="M231 -4Q173 -4 132 20T68 84T46 172Q46 227 70 268T136 331T232 354Q266 354 298 346T356 323Q343 355 321 388T265 455L196 414Q192 411 185 411Q176 411 170 417T163 433Q163 446 174 452L232
487Q223 496 214 504T193 522Q184 530 184 541Q184 552 192 559T209 566Q219 566 225 560Q254 536 277 514L338 551Q343 554 349 554Q359 554 365 548T371 532Q371 519 360 513L308 482Q376 409 402 344T428 214Q428 108 375 52T231 -4ZM231 46Q301 46 339 90T378
214Q378 224 378 232T376 251Q357 270 317 287T232 304Q174 304 135 268T96 172Q96 120 132 83T231 46Z" />
<glyph unicode="&#xf1;" glyph-name="ntilde" horiz-adv-x="497" d="M397 0Q387 0 380 7T372 25V225Q372 287 349 314T285 342Q243 342 205 320T135 265V25Q135 15 128 8T110 0Q100 0 93 7T85 25V367Q85 378 92 385T110 392Q121 392 128 385T135 367V331Q169 358
206 375T285 392Q323 392 354 377T403 326T422 225V25Q422 15 415 8T397 0ZM124 534Q143 563 163 576T202 589Q219 589 232 582T267 561Q293 543 305 543Q314 543 324 552T346 577Q353 588 363 588Q372 588 378 582T385 566Q385 559 381 554Q359 526 343 513T306
499Q281 499 243 525Q229 535 221 539T204 544Q194 544 183 534T160 510Q153 500 142 500Q133 500 127 506T120 522Q120 528 124 534Z" />
<glyph unicode="&#xf2;" glyph-name="ograve" horiz-adv-x="495" d="M247 396Q308 396 352 369T421 295T446 191Q446 136 422 92T353 22T247 -4Q187 -4 142 22T73 93T48 193Q48 249 72 295T141 368T247 396ZM247 346Q201 346 168 325T116 270T98 193Q98 131 138
89T247 46Q315 46 355 88T396 191Q396 234 378 269T327 325T247 346ZM194 615Q214 589 229 569T265 519Q268 515 268 508Q268 499 262 492T245 484Q232 484 225 494Q206 522 192 542T158 588Q153 595 153 601Q153 609 160 616T177 624Q187 624 194 615Z" />
<glyph unicode="&#xf3;" glyph-name="oacute" horiz-adv-x="495" d="M247 396Q308 396 352 369T421 295T446 191Q446 136 422 92T353 22T247 -4Q187 -4 142 22T73 93T48 193Q48 249 72 295T141 368T247 396ZM247 346Q201 346 168 325T116 270T98 193Q98 131 138
89T247 46Q315 46 355 88T396 191Q396 234 378 269T327 325T247 346ZM341 587Q319 565 300 542T261 494Q255 486 244 486Q234 486 228 493T221 509Q221 516 226 523Q244 547 266 570T308 618Q314 625 324 625Q333 625 340 618T347 602Q347 593 341 587Z" />
<glyph unicode="&#xf4;" glyph-name="ocircumflex" horiz-adv-x="495" d="M247 396Q308 396 352 369T421 295T446 191Q446 136 422 92T353 22T247 -4Q187 -4 142 22T73 93T48 193Q48 249 72 295T141 368T247 396ZM247 346Q201 346 168 325T116 270T98 193Q98 131
138 89T247 46Q315 46 355 88T396 191Q396 234 378 269T327 325T247 346ZM245 620H248Q259 620 269 610Q284 595 308 571T351 527Q357 521 357 511Q357 502 351 496T336 490Q326 490 319 497Q305 511 284 532T246 571Q229 554 209 534T173 497Q166 490 156 490Q148
490 142 495T135 511Q135 520 141 527Q161 549 183 572T224 611Q233 620 245 620Z" />
<glyph unicode="&#xf5;" glyph-name="otilde" horiz-adv-x="495" d="M247 396Q308 396 352 369T421 295T446 191Q446 136 422 92T353 22T247 -4Q187 -4 142 22T73 93T48 193Q48 249 72 295T141 368T247 396ZM247 346Q201 346 168 325T116 270T98 193Q98 131 138
89T247 46Q315 46 355 88T396 191Q396 234 378 269T327 325T247 346ZM118 538Q137 567 157 580T196 593Q213 593 226 586T261 565Q287 547 299 547Q308 547 318 556T340 581Q347 592 357 592Q366 592 372 586T379 570Q379 563 375 558Q353 530 337 517T300 503Q275
503 237 529Q223 539 215 543T198 548Q188 548 177 538T154 514Q147 504 136 504Q127 504 121 510T114 526Q114 532 118 538Z" />
<glyph unicode="&#xf6;" glyph-name="odieresis" horiz-adv-x="495" d="M247 396Q308 396 352 369T421 295T446 191Q446 136 422 92T353 22T247 -4Q187 -4 142 22T73 93T48 193Q48 249 72 295T141 368T247 396ZM247 346Q201 346 168 325T116 270T98 193Q98 131
138 89T247 46Q315 46 355 88T396 191Q396 234 378 269T327 325T247 346ZM332 501Q316 501 305 513T293 547Q293 570 305 582T332 595Q346 595 358 583T370 547Q370 524 358 513T332 501ZM154 501Q138 501 127 513T115 547Q115 570 127 582T154 595Q168 595 180
583T192 547Q192 524 180 513T154 501Z" />
<glyph unicode="&#xf7;" glyph-name="divide" horiz-adv-x="530" d="M267 467Q286 467 297 454T309 418Q309 391 298 380T268 369Q252 369 239 381T225 418Q225 441 236 454T267 467ZM433 294Q444 294 451 287T458 269Q458 259 451 252T433 244H96Q86 244 79 251T71
269Q71 280 78 287T96 294H433ZM267 166Q286 166 297 153T309 117Q309 90 298 79T268 68Q252 68 239 80T225 117Q225 140 236 153T267 166Z" />
<glyph unicode="&#xf8;" glyph-name="oslash" horiz-adv-x="500" d="M250 -4Q213 -4 181 6T125 36L96 7Q89 0 78 0Q68 0 61 7T53 25Q53 36 60 43L89 72Q51 122 51 193Q51 249 75 295T144 368T250 396Q287 396 317 386T373 357L401 385Q408 392 419 392Q430 392
437 385T444 367Q444 356 437 349L408 320Q449 267 449 191Q449 136 425 92T356 22T250 -4ZM101 193Q101 169 107 148T125 108L336 320Q319 332 298 339T250 346Q204 346 171 325T119 270T101 193ZM250 46Q318 46 358 88T399 191Q399 245 372 284L161 72Q179 60
201 53T250 46Z" />
<glyph unicode="&#xf9;" glyph-name="ugrave" horiz-adv-x="497" d="M387 0Q377 0 370 7T362 25V70Q329 39 290 20T212 0Q175 0 144 15T94 66T75 167V367Q75 378 82 385T100 392Q111 392 118 385T125 367V167Q125 106 148 78T212 50Q253 50 293 76T362 140V367Q362
378 369 385T387 392Q398 392 405 385T412 367V25Q412 15 405 8T387 0ZM189 611Q209 585 224 565T260 515Q263 511 263 504Q263 495 257 488T240 480Q227 480 220 490Q201 518 187 538T153 584Q148 591 148 597Q148 605 155 612T172 620Q182 620 189 611Z" />
<glyph unicode="&#xfa;" glyph-name="uacute" horiz-adv-x="497" d="M387 0Q377 0 370 7T362 25V70Q329 39 290 20T212 0Q175 0 144 15T94 66T75 167V367Q75 378 82 385T100 392Q111 392 118 385T125 367V167Q125 106 148 78T212 50Q253 50 293 76T362 140V367Q362
378 369 385T387 392Q398 392 405 385T412 367V25Q412 15 405 8T387 0ZM336 583Q314 561 295 538T256 490Q250 482 239 482Q229 482 223 489T216 505Q216 512 221 519Q239 543 261 566T303 614Q309 621 319 621Q328 621 335 614T342 598Q342 589 336 583Z" />
<glyph unicode="&#xfb;" glyph-name="ucircumflex" horiz-adv-x="497" d="M387 0Q377 0 370 7T362 25V70Q329 39 290 20T212 0Q175 0 144 15T94 66T75 167V367Q75 378 82 385T100 392Q111 392 118 385T125 367V167Q125 106 148 78T212 50Q253 50 293 76T362 140V367Q362
378 369 385T387 392Q398 392 405 385T412 367V25Q412 15 405 8T387 0ZM240 616H243Q254 616 264 606Q279 591 303 567T346 523Q352 517 352 507Q352 498 346 492T331 486Q321 486 314 493Q300 507 279 528T241 567Q224 550 204 530T168 493Q161 486 151 486Q143
486 137 491T130 507Q130 516 136 523Q156 545 178 568T219 607Q228 616 240 616Z" />
<glyph unicode="&#xfc;" glyph-name="udieresis" horiz-adv-x="497" d="M387 0Q377 0 370 7T362 25V70Q329 39 290 20T212 0Q175 0 144 15T94 66T75 167V367Q75 378 82 385T100 392Q111 392 118 385T125 367V167Q125 106 148 78T212 50Q253 50 293 76T362 140V367Q362
378 369 385T387 392Q398 392 405 385T412 367V25Q412 15 405 8T387 0ZM327 497Q311 497 300 509T288 543Q288 566 300 578T327 591Q341 591 353 579T365 543Q365 520 353 509T327 497ZM149 497Q133 497 122 509T110 543Q110 566 122 578T149 591Q163 591 175 579T187
543Q187 520 175 509T149 497Z" />
<glyph unicode="&#xfd;" glyph-name="yacute" horiz-adv-x="450" d="M64 -174Q55 -174 47 -167T38 -150Q38 -135 51 -127Q93 -103 132 -70T208 24Q170 84 128 163T53 327Q45 350 43 357T40 369Q40 377 47 385T64 393Q72 393 79 389T89 376Q124 279 163 204T236
73Q260 116 283 167T327 271T362 374Q367 392 386 392Q397 392 404 385T411 367Q411 364 408 352T401 331Q387 287 364 231T315 117T261 13Q217 -62 171 -102T75 -171Q71 -174 64 -174ZM318 583Q296 561 277 538T238 490Q232 482 221 482Q211 482 205 489T198 505Q198
512 203 519Q221 543 243 566T285 614Q291 621 301 621Q310 621 317 614T324 598Q324 589 318 583Z" />
<glyph unicode="&#xfe;" glyph-name="thorn" horiz-adv-x="503" d="M135 -166Q135 -176 128 -183T110 -191Q100 -191 93 -184T85 -166V535Q85 546 92 553T110 560Q121 560 128 553T135 535V327Q167 358 202 375T277 392Q324 392 364 370T430 305T455 196Q455 140
431 96T364 26T265 0Q232 0 199 11T135 41V-166ZM265 50Q328 50 366 92T405 196Q405 266 367 304T277 342Q235 342 200 317T135 252V101Q164 79 197 65T265 50Z" />
<glyph unicode="&#xff;" glyph-name="ydieresis" horiz-adv-x="450" d="M64 -174Q55 -174 47 -167T38 -150Q38 -135 51 -127Q93 -103 132 -70T208 24Q170 84 128 163T53 327Q45 350 43 357T40 369Q40 377 47 385T64 393Q72 393 79 389T89 376Q124 279 163 204T236
73Q260 116 283 167T327 271T362 374Q367 392 386 392Q397 392 404 385T411 367Q411 364 408 352T401 331Q387 287 364 231T315 117T261 13Q217 -62 171 -102T75 -171Q71 -174 64 -174ZM309 497Q293 497 282 509T270 543Q270 566 282 578T309 591Q323 591 335 579T347
543Q347 520 335 509T309 497ZM131 497Q115 497 104 509T92 543Q92 566 104 578T131 591Q145 591 157 579T169 543Q169 520 157 509T131 497Z" />
<glyph unicode="&#x2013;" glyph-name="endash" horiz-adv-x="506" d="M397 245Q408 245 415 238T422 220Q422 210 415 203T397 195H109Q99 195 92 202T84 220Q84 231 91 238T109 245H397Z" />
<glyph unicode="&#x2014;" glyph-name="emdash" horiz-adv-x="763" d="M654 245Q665 245 672 238T679 220Q679 210 672 203T654 195H109Q99 195 92 202T84 220Q84 231 91 238T109 245H654Z" />
<glyph unicode="&#x2018;" glyph-name="quoteleft" horiz-adv-x="245" d="M136 379Q90 441 90 521Q90 538 92 553T97 578Q103 595 122 595Q131 595 138 588T146 569Q146 562 143 553T140 521Q140 458 176 409Q181 402 181 394Q181 384 174 377T156 369Q143 369 136 379Z" />
<glyph unicode="&#x2019;" glyph-name="quoteright" horiz-adv-x="245" d="M148 578Q151 568 153 553T155 521Q155 441 109 379Q102 369 89 369Q79 369 72 376T64 394Q64 402 69 409Q105 458 105 521Q105 547 102 554T99 569Q99 579 106 587T123 595Q142 595 148 578Z" />
<glyph unicode="&#x201a;" glyph-name="quotesinglbase" horiz-adv-x="245" d="M148 85Q151 75 153 60T155 28Q155 -52 109 -114Q102 -124 89 -124Q79 -124 72 -117T64 -99Q64 -91 69 -84Q105 -35 105 28Q105 50 102 59T99 76Q99 86 106 94T123 102Q142 102 148 85Z" />
<glyph unicode="&#x201c;" glyph-name="quotedblleft" horiz-adv-x="406" d="M297 379Q275 408 263 443T250 512Q250 550 257 575Q262 594 281 594Q290 594 298 587T306 569Q306 563 303 551T300 512Q300 457 337 409Q342 402 342 394Q342 384 335 377T317 369Q304
369 297 379ZM137 379Q115 408 103 443T90 512Q90 550 97 575Q102 594 121 594Q130 594 138 587T146 569Q146 563 143 550T140 512Q140 457 177 409Q182 402 182 394Q182 384 175 377T157 369Q144 369 137 379Z" />
<glyph unicode="&#x201d;" glyph-name="quotedblright" horiz-adv-x="406" d="M149 575Q156 550 156 512Q156 479 144 444T109 379Q102 369 89 369Q79 369 72 376T64 394Q64 402 69 409Q106 457 106 512Q106 538 103 550T100 569Q100 579 107 586T125 594Q144
594 149 575ZM309 575Q316 550 316 512Q316 479 304 444T269 379Q262 369 249 369Q239 369 232 376T224 394Q224 402 229 409Q266 457 266 512Q266 538 263 551T260 569Q260 579 267 586T285 594Q304 594 309 575Z" />
<glyph unicode="&#x201e;" glyph-name="quotedblbase" horiz-adv-x="406" d="M149 85Q156 60 156 22Q156 -11 144 -46T109 -111Q102 -121 89 -121Q79 -121 72 -114T64 -96Q64 -88 69 -81Q106 -33 106 22Q106 48 103 60T100 79Q100 89 107 96T125 104Q144 104 149
85ZM309 85Q316 60 316 22Q316 -11 304 -46T269 -111Q262 -121 249 -121Q239 -121 232 -114T224 -96Q224 -88 229 -81Q266 -33 266 22Q266 48 263 61T260 79Q260 89 267 96T285 104Q304 104 309 85Z" />
<glyph unicode="&#x2022;" glyph-name="bullet" horiz-adv-x="521" d="M260 367Q301 367 330 348T374 300T390 238Q390 204 374 175T328 129T260 111Q224 111 195 128T148 174T130 239Q130 271 146 300T192 348T260 367Z" />
<glyph unicode="&#x2039;" glyph-name="guilsinglleft" horiz-adv-x="268" d="M182 16Q169 16 162 26L51 176Q46 183 46 191V196Q46 204 51 211L162 361Q169 371 182 371Q193 371 200 364T207 346Q207 338 202 331L100 194L202 56Q207 49 207 41Q207 31 200 24T182 16Z" />
<glyph unicode="&#x203a;" glyph-name="guilsinglright" horiz-adv-x="268" d="M86 16Q76 16 69 23T61 41Q61 49 66 56L168 194L66 331Q61 338 61 346Q61 356 68 363T86 371Q99 371 106 361L217 211Q222 204 222 196V191Q222 183 217 176L106 26Q99 16 86 16Z" />
</font>
</defs>
</svg>
