<?xml version="1.0" standalone="no"?>
<!DOCTYPE svg PUBLIC "-//W3C//DTD SVG 1.1//EN" "http://www.w3.org/Graphics/SVG/1.1/DTD/svg11.dtd">
<svg xmlns="http://www.w3.org/2000/svg">
<defs >
<font id="Imprima" horiz-adv-x="492" ><font-face
    font-family="Imprima"
    units-per-em="1000"
    panose-1="0 0 0 0 0 0 0 0 0 0"
    ascent="919"
    descent="-239"
    alphabetic="0" />
<glyph unicode=" " glyph-name="space" horiz-adv-x="250" />
<glyph unicode="!" glyph-name="exclam" horiz-adv-x="270" d="M102 180L92 660H178L168 180H102ZM135 -14Q110 -14 95 1T80 41Q80 66 95 81T135 96Q160 96 175 81T190 41Q190 16 175 1T135 -14Z" />
<glyph unicode="&quot;" glyph-name="quotedbl" horiz-adv-x="303" d="M191 457L181 680H263L253 457H191ZM50 457L40 680H122L112 457H50Z" />
<glyph unicode="#" glyph-name="numbersign" horiz-adv-x="518" d="M63 -26L91 171H-14L-6 233H100L122 386H17L25 449H131L160 646H228L199 449H358L386 646H454L425 449H532L524 386H416L394 233H501L492 171H385L357 -26H290L318 171H159L131 -26H63ZM168 233H327L349
386H190L168 233Z" />
<glyph unicode="$" glyph-name="dollar" horiz-adv-x="518" d="M208 -85L213 -15Q167 -13 127 -3T61 27L94 87Q112 74 147 66T218 55L234 291L185 307Q135 323 105 366T75 465Q75 541 124 586T258 635L263 705H316L311 634Q345 630 378 618T438 589L406 527Q391
538 363 548T306 562L291 351L336 337Q393 318 424 277T456 176Q456 124 432 84T365 18T266 -14L261 -85H208ZM240 367L253 564Q204 559 177 534T149 468Q149 434 168 410T220 374L240 367ZM271 58Q321 67 351 97T381 172Q381 243 306 268L286 274L271 58Z" />
<glyph unicode="%" glyph-name="percent" horiz-adv-x="770" d="M215 -85L481 705H555L289 -85H215ZM153 224Q89 224 52 276T15 420Q15 512 52 564T153 616Q218 616 254 565T291 420Q291 327 255 276T153 224ZM153 289Q185 289 203 324T221 420Q221 482 203 516T153
551Q122 551 104 516T85 420Q85 359 103 324T153 289ZM617 4Q552 4 516 55T479 200Q479 293 515 344T617 396Q682 396 718 344T755 200Q755 109 719 57T617 4ZM617 69Q649 69 667 104T685 200Q685 261 667 296T617 331Q585 331 567 297T549 200Q549 139 567 104T617
69Z" />
<glyph unicode="&amp;" glyph-name="ampersand" horiz-adv-x="606" d="M251 -14Q150 -14 93 40T35 188Q35 242 64 286T145 353Q109 375 88 411T67 491Q67 572 120 618T267 664Q349 664 417 618L383 548Q358 568 327 580T267 592Q211 592 179 565T147 491Q147 442
193 410T312 378H606V310H493Q488 142 430 64T251 -14ZM251 58Q417 58 417 310H251Q193 310 154 276T115 188Q115 127 151 93T251 58Z" />
<glyph unicode="&apos;" glyph-name="quotesingle" horiz-adv-x="162" d="M50 457L40 680H122L112 457H50Z" />
<glyph unicode="(" glyph-name="parenleft" horiz-adv-x="246" d="M175 -93Q140 -46 114 19T74 159T60 310Q60 386 74 460T114 600T175 713L231 670Q212 643 195 602T166 510T146 409T138 310Q138 263 145 212T165 110T195 19T231 -50L175 -93Z" />
<glyph unicode=")" glyph-name="parenright" horiz-adv-x="246" d="M71 -93L15 -50Q34 -23 51 18T80 110T100 211T108 310Q108 357 101 408T81 510T51 601T15 670L71 713Q107 665 132 600T172 461T186 310Q186 234 172 159T132 19T71 -93Z" />
<glyph unicode="*" glyph-name="asterisk" horiz-adv-x="433" d="M176 563L191 695H242L257 563H176ZM306 340L217 438L283 486L257 563L388 590L403 540L283 486L349 370L306 340ZM151 486L30 541L46 590L176 563L151 486ZM127 340L85 371L151 486L217 438L127 340Z" />
<glyph unicode="+" glyph-name="plus" horiz-adv-x="518" d="M223 99V275H47V347H223V523H295V347H471V275H295V99H223Z" />
<glyph unicode="," glyph-name="comma" horiz-adv-x="210" d="M66 -136L33 -126L49 41Q54 96 108 96Q124 96 138 90T160 73L66 -136Z" />
<glyph unicode="-" glyph-name="hyphen" horiz-adv-x="408" d="M50 220V292H358V220H50Z" />
<glyph unicode="." glyph-name="period" horiz-adv-x="210" d="M105 -14Q80 -14 65 1T50 41Q50 66 65 81T105 96Q130 96 145 81T160 41Q160 16 145 1T105 -14Z" />
<glyph unicode="/" glyph-name="slash" horiz-adv-x="312" d="M-30 -92L269 772H342L42 -92H-30Z" />
<glyph unicode="0" glyph-name="zero" horiz-adv-x="518" d="M259 -16Q150 -16 90 70T29 310Q29 465 89 550T259 636Q366 636 427 549T489 310Q489 158 428 71T259 -16ZM259 57Q330 57 370 125T411 310Q411 427 371 495T259 563Q188 563 148 496T107 310Q107 191
147 124T259 57Z" />
<glyph unicode="1" glyph-name="one" horiz-adv-x="518" d="M112 0V72H240V539L103 500L85 570L240 620H320V72H432V0H112Z" />
<glyph unicode="2" glyph-name="two" horiz-adv-x="518" d="M52 0V63L272 312Q317 363 334 397T352 468Q352 513 319 539T227 565Q206 565 181 560T132 546T97 527L65 589Q97 611 141 623T227 636Q321 636 376 591T432 468Q432 423 410 375T337 271L161 72H438V0H52Z" />
<glyph unicode="3" glyph-name="three" horiz-adv-x="518" d="M218 -16Q167 -16 121 -5T46 27L79 87Q99 74 139 65T218 55Q283 55 324 88T365 174Q365 223 330 251T235 280H140V349H176Q254 349 302 382T351 468Q351 513 318 539T226 565Q205 565 180 560T131
546T96 527L64 589Q96 611 140 623T226 636Q320 636 373 591T427 465Q427 420 405 385T344 326Q391 307 416 268T441 176Q441 120 413 77T334 9T218 -16Z" />
<glyph unicode="4" glyph-name="four" horiz-adv-x="518" d="M332 0V142H33V183L211 620H296L130 214H332V450H410V214H463V142H410V0H332Z" />
<glyph unicode="5" glyph-name="five" horiz-adv-x="518" d="M226 -16Q175 -16 129 -5T54 27L87 87Q107 74 147 65T226 55Q291 55 332 88T373 174Q373 227 338 258T243 290H96L109 620H421V548H181L173 361H243Q341 361 395 313T449 176Q449 120 421 77T342 9T226 -16Z" />
<glyph unicode="6" glyph-name="six" horiz-adv-x="518" d="M270 -16Q203 -16 154 17T77 111T50 256Q50 372 82 457T172 589T310 636Q408 636 463 581L428 520Q386 565 309 565Q235 565 187 498T130 316Q165 345 204 361T283 378Q373 378 427 327T482 192Q482
129 456 83T382 10T270 -16ZM271 55Q330 55 367 90T404 184Q404 240 371 274T281 308Q192 308 129 229Q143 55 271 55Z" />
<glyph unicode="7" glyph-name="seven" horiz-adv-x="518" d="M137 0L368 548H58V620H466V579L224 0H137Z" />
<glyph unicode="8" glyph-name="eight" horiz-adv-x="518" d="M259 -16Q197 -16 148 7T71 70T43 163Q43 218 71 261T153 329Q66 379 66 464Q66 542 118 589T259 636Q348 636 400 590T452 464Q452 423 430 387T367 326Q475 276 475 163Q475 111 447 71T371 7T259
-16ZM291 350Q376 395 376 469Q376 513 344 539T259 565Q206 565 174 538T142 466Q142 423 175 397T291 350ZM259 55Q321 55 360 85T399 163Q399 202 382 224T338 260T279 281T220 300Q119 247 119 163Q119 116 158 86T259 55Z" />
<glyph unicode="9" glyph-name="nine" horiz-adv-x="518" d="M217 -16Q104 -16 40 39L81 100Q126 55 218 55Q289 55 334 120T388 295Q352 267 310 251T226 235Q170 235 127 259T60 327T36 426Q36 489 62 536T137 610T248 636Q353 636 410 560T468 344Q468 235
437 154T350 29T217 -16ZM226 305Q270 305 313 326T388 384Q381 471 345 518T248 565Q188 565 151 527T114 426Q114 372 145 339T226 305Z" />
<glyph unicode=":" glyph-name="colon" horiz-adv-x="260" d="M155 -14Q130 -14 115 1T100 41Q100 66 115 81T155 96Q180 96 195 81T210 41Q210 16 195 1T155 -14ZM155 346Q130 346 115 361T100 401Q100 426 115 441T155 456Q180 456 195 441T210 401Q210 376
195 361T155 346Z" />
<glyph unicode=";" glyph-name="semicolon" horiz-adv-x="260" d="M116 -136L83 -126L99 41Q104 96 158 96Q174 96 188 90T210 73L116 -136ZM155 346Q130 346 115 361T100 401Q100 426 115 441T155 456Q180 456 195 441T210 401Q210 376 195 361T155 346Z" />
<glyph unicode="&lt;" glyph-name="less" horiz-adv-x="518" d="M406 88L70 286V335L406 534L443 473L169 311L443 149L406 88Z" />
<glyph unicode="=" glyph-name="equal" horiz-adv-x="518" d="M47 365V437H471V365H47ZM47 185V257H471V185H47Z" />
<glyph unicode="&gt;" glyph-name="greater" horiz-adv-x="518" d="M112 88L75 149L349 311L75 473L112 534L448 335V286L112 88Z" />
<glyph unicode="?" glyph-name="question" horiz-adv-x="354" d="M105 180V247Q105 304 128 344T212 428Q250 455 264 476T278 525Q278 561 250 582T172 604Q135 604 100 591T42 552L0 608Q34 640 80 657T175 674Q256 674 305 634T354 525Q354 479 332 445T255
372Q212 342 194 313T175 247V180H105ZM140 -14Q115 -14 100 1T85 41Q85 66 100 81T140 96Q165 96 180 81T195 41Q195 16 180 1T140 -14Z" />
<glyph unicode="@" glyph-name="at" horiz-adv-x="806" d="M413 -93Q309 -93 232 -51T112 68T70 250Q70 354 112 431T231 550T413 593Q509 593 582 550T695 429T736 250Q736 193 716 150T660 83T576 58Q542 58 515 79T483 132H477Q464 99 436 79T376 58Q309 58
269 108T229 245Q229 304 252 348T316 418T411 444Q446 444 485 434T548 409V169Q548 146 557 133T584 119Q621 119 644 155T668 250Q668 333 636 396T546 495T413 531Q330 531 268 497T172 399T138 250Q138 165 172 102T268 4T413 -31Q511 -31 578 15L611 -35Q566
-65 519 -79T413 -93ZM387 118Q428 118 453 161T479 275V371Q445 385 412 385Q363 385 331 346T299 245Q299 185 322 152T387 118Z" />
<glyph unicode="A" glyph-name="A" horiz-adv-x="556" d="M0 0L229 680H327L556 0H473L407 200H149L83 0H0ZM172 272H383L278 592L172 272Z" />
<glyph unicode="B" glyph-name="B" horiz-adv-x="564" d="M90 0V680H340Q386 680 423 658T482 599T504 516Q504 468 480 430T416 371Q469 351 501 307T534 203Q534 147 507 101T434 27T331 0H90ZM170 406H325Q369 406 398 435T428 507Q428 549 399 578T325 608H170V406ZM170
72H329Q364 72 393 90T440 137T458 203Q458 239 441 269T394 316T329 334H170V72Z" />
<glyph unicode="C" glyph-name="C" horiz-adv-x="534" d="M336 -16Q201 -16 126 78T50 340Q50 508 125 602T336 696Q429 696 507 649L479 582Q414 623 336 623Q239 623 185 549T130 340Q130 207 184 132T336 57Q376 57 416 68T489 99L524 37Q438 -16 336 -16Z" />
<glyph unicode="D" glyph-name="D" horiz-adv-x="651" d="M90 0V680H333Q423 680 487 640T586 523T621 340Q621 234 587 158T488 41T333 0H90ZM170 72H333Q431 72 486 143T541 340Q541 466 486 537T333 608H170V72Z" />
<glyph unicode="E" glyph-name="E" horiz-adv-x="510" d="M78 0V680H448V608H158V376H395V304H158V72H468V0H78Z" />
<glyph unicode="F" glyph-name="F" horiz-adv-x="460" d="M90 0V680H450V608H170V376H397V304H170V0H90Z" />
<glyph unicode="G" glyph-name="G" horiz-adv-x="645" d="M339 -16Q203 -16 127 78T50 340Q50 508 126 602T339 696Q396 696 448 685T542 650L514 582Q475 602 429 612T336 623Q239 623 185 549T130 340Q130 206 184 132T336 57Q382 57 422 66T494 93V304H341V376H570V53Q460
-16 339 -16Z" />
<glyph unicode="H" glyph-name="H" horiz-adv-x="664" d="M90 0V680H170V377H494V680H574V0H494V303H170V0H90Z" />
<glyph unicode="I" glyph-name="I" horiz-adv-x="260" d="M90 0V680H170V0H90Z" />
<glyph unicode="J" glyph-name="J" horiz-adv-x="427" d="M182 -16Q73 -16 0 57L44 113Q73 86 106 71T171 56Q272 56 272 192V680H352V192Q352 97 306 41T182 -16Z" />
<glyph unicode="K" glyph-name="K" horiz-adv-x="551" d="M460 -16L361 246Q351 273 340 282T308 291H170V0H90V680H170V361H234L437 680H526L322 360Q367 356 394 333T441 260L536 8L460 -16Z" />
<glyph unicode="L" glyph-name="L" horiz-adv-x="447" d="M90 0V680H170V72H447V0H90Z" />
<glyph unicode="M" glyph-name="M" horiz-adv-x="815" d="M80 0L105 680H198L407 201L617 680H710L735 0H655L635 532L449 106H366L179 532L160 0H80Z" />
<glyph unicode="N" glyph-name="N" horiz-adv-x="680" d="M90 0V680H183L510 127V680H590V0H497L170 553V0H90Z" />
<glyph unicode="O" glyph-name="O" horiz-adv-x="674" d="M336 -16Q201 -16 126 78T50 340Q50 508 125 602T336 696Q426 696 490 654T589 532T624 340Q624 229 590 149T491 27T336 -16ZM336 57Q434 57 489 132T544 340Q544 473 489 548T336 623Q239 623 185 549T130
340Q130 207 184 132T336 57Z" />
<glyph unicode="P" glyph-name="P" horiz-adv-x="509" d="M90 0V680H301Q358 680 404 653T477 580T504 477Q504 421 477 375T404 301T301 274H170V0H90ZM170 347H298Q333 347 361 364T407 412T425 477Q425 513 408 542T362 589T298 607H170V347Z" />
<glyph unicode="Q" glyph-name="Q" horiz-adv-x="674" d="M427 -183Q365 -183 332 -140T298 -14Q180 -1 115 91T50 340Q50 508 125 602T336 696Q426 696 490 654T589 532T624 340Q624 185 558 92T374 -14Q374 -66 389 -89T435 -112Q463 -112 516 -89L546 -143Q484
-183 427 -183ZM336 57Q434 57 489 132T544 340Q544 473 489 548T336 623Q239 623 185 549T130 340Q130 207 184 132T336 57Z" />
<glyph unicode="R" glyph-name="R" horiz-adv-x="579" d="M469 -16L370 246Q361 271 351 280T323 291H170V0H90V680H323Q377 680 421 654T492 584T518 485Q518 426 487 379T405 308Q437 296 450 260L545 8L469 -16ZM170 361H319Q352 361 379 378T422 423T438 485Q438
519 422 546T379 590T319 607H170V361Z" />
<glyph unicode="S" glyph-name="S" horiz-adv-x="511" d="M257 -16Q196 -16 136 8T30 76L76 136Q108 101 157 80T258 59Q323 59 362 91T401 175Q401 216 383 241T333 282T266 310T193 335T125 369T76 423T57 509Q57 565 82 607T154 672T260 696Q312 696 362 684T447
649L407 585Q381 602 341 611T259 621Q206 621 172 591T137 514Q137 477 155 454T205 417T272 391T345 365T413 329T462 272T481 180Q481 89 421 37T257 -16Z" />
<glyph unicode="T" glyph-name="T" horiz-adv-x="470" d="M195 0V608H5V680H465V608H275V0H195Z" />
<glyph unicode="U" glyph-name="U" horiz-adv-x="653" d="M326 -16Q208 -16 142 55T75 253V680H155V248Q155 158 200 108T326 57Q407 57 452 107T498 248V680H578V253Q578 127 512 56T326 -16Z" />
<glyph unicode="V" glyph-name="V" horiz-adv-x="556" d="M229 0L0 680H83L278 88L473 680H556L327 0H229Z" />
<glyph unicode="W" glyph-name="W" horiz-adv-x="825" d="M175 0L0 680H83L223 120L373 680H455L596 120L745 680H825L642 0H549L411 533L268 0H175Z" />
<glyph unicode="X" glyph-name="X" horiz-adv-x="573" d="M10 0L240 352L25 680H118L285 424L453 680H546L331 353L563 0H471L286 281L102 0H10Z" />
<glyph unicode="Y" glyph-name="Y" horiz-adv-x="528" d="M224 0V235L0 680H88L264 314L440 680H528L304 235V0H224Z" />
<glyph unicode="Z" glyph-name="Z" horiz-adv-x="501" d="M15 0V68L369 608H40V680H481V639L110 72H486V0H15Z" />
<glyph unicode="[" glyph-name="bracketleft" horiz-adv-x="277" d="M90 -60V682H262V622H170V0H261V-60H90Z" />
<glyph unicode="\" glyph-name="backslash" horiz-adv-x="312" d="M269 -92L-30 772H42L342 -92H269Z" />
<glyph unicode="]" glyph-name="bracketright" horiz-adv-x="277" d="M16 -60V0H107V622H15V682H187V-60H16Z" />
<glyph unicode="^" glyph-name="asciicircum" horiz-adv-x="518" d="M97 283L36 320L235 656H284L482 320L421 283L259 557L97 283Z" />
<glyph unicode="_" glyph-name="underscore" horiz-adv-x="624" d="M50 -72V0H574V-72H50Z" />
<glyph unicode="`" glyph-name="grave" horiz-adv-x="210" d="M200 535L20 682Q37 735 70 735Q97 735 122 700L224 560L200 535Z" />
<glyph unicode="a" glyph-name="a" horiz-adv-x="564" d="M241 -14Q150 -14 98 54T45 241Q45 321 76 382T164 479T291 514Q337 514 386 498T474 456V100L484 0L418 -5L400 85Q374 38 333 12T241 -14ZM256 54Q320 54 359 116T398 282V421Q348 446 291 446Q242 446
204 420T143 348T121 241Q121 155 157 105T256 54Z" />
<glyph unicode="b" glyph-name="b" horiz-adv-x="554" d="M258 -14Q170 -14 123 40T75 196V700H151V418Q205 514 313 514Q402 514 453 446T504 259Q504 180 473 118T386 21T258 -14ZM258 54Q308 54 346 80T406 153T428 259Q428 347 396 396T304 446Q233 446 193
387T151 221V196Q151 129 179 92T258 54Z" />
<glyph unicode="c" glyph-name="c" horiz-adv-x="446" d="M262 -14Q197 -14 148 17T72 103T45 234Q45 320 74 382T156 479T281 514Q349 514 409 478L390 417Q337 446 283 446Q210 446 166 391T121 244Q121 155 159 105T265 54Q303 54 339 67T403 102L433 48Q359
-14 262 -14Z" />
<glyph unicode="d" glyph-name="d" horiz-adv-x="564" d="M241 -14Q150 -14 98 54T45 241Q45 321 76 382T164 479T291 514Q344 514 398 494V700H474V100L484 0L418 -5L400 85Q374 38 333 12T241 -14ZM256 54Q320 54 359 116T398 282V421Q348 446 291 446Q242 446
204 420T143 348T121 241Q121 155 157 105T256 54Z" />
<glyph unicode="e" glyph-name="e" horiz-adv-x="484" d="M252 -14Q157 -14 101 52T45 232Q45 315 76 378T164 478T293 514Q338 514 373 495T428 444T449 371Q449 320 417 281T326 219T193 196Q158 196 123 199Q131 132 165 93T255 54Q295 54 334 68T400 108L436
59Q360 -14 252 -14ZM195 262Q273 262 323 292T373 368Q373 402 350 424T290 446Q221 446 176 397T122 267Q142 264 160 263T195 262Z" />
<glyph unicode="f" glyph-name="f" horiz-adv-x="303" d="M105 -160V435H40V500H105V551Q105 630 138 672T234 714Q291 714 353 674L323 620Q270 643 242 643Q181 643 181 555V500H296V435H181V-160H105Z" />
<glyph unicode="g" glyph-name="g" horiz-adv-x="559" d="M228 -239Q182 -239 133 -223T45 -181L83 -122Q109 -142 149 -155T228 -168Q278 -168 316 -142T376 -70T398 35V83Q371 37 331 12T241 -14Q150 -14 98 54T45 241Q45 321 76 382T164 479T291 514Q337 514
386 498T474 456V34Q474 -45 443 -107T356 -204T228 -239ZM256 54Q318 54 358 114T398 274V421Q348 446 291 446Q242 446 204 420T143 348T121 241Q121 155 157 105T256 54Z" />
<glyph unicode="h" glyph-name="h" horiz-adv-x="574" d="M90 0V700H166V401Q195 453 239 483T335 514Q499 514 499 304V0H423V304Q423 446 322 446Q279 446 244 416T187 335T166 220V0H90Z" />
<glyph unicode="i" glyph-name="i" horiz-adv-x="256" d="M90 0V500H166V0H90ZM128 586Q101 586 86 601T70 644Q70 670 85 686T128 702Q154 702 170 686T186 644Q186 619 170 603T128 586Z" />
<glyph unicode="j" glyph-name="j" horiz-adv-x="256" d="M37 -239Q-20 -239 -82 -199L-52 -145Q0 -168 29 -168Q90 -168 90 -80V500H166V-76Q166 -155 133 -197T37 -239ZM128 586Q101 586 86 601T70 644Q70 670 85 686T128 702Q154 702 170 686T186 644Q186 619
170 603T128 586Z" />
<glyph unicode="k" glyph-name="k" horiz-adv-x="508" d="M90 0V700H166V421Q195 463 236 488T324 514Q392 514 429 481T467 385Q467 334 435 293T346 224L478 0H390L274 197Q249 190 222 186T166 178V0H90ZM166 245Q268 254 329 290T391 380Q391 411 373 428T322
446Q281 446 245 421T188 356T166 267V245Z" />
<glyph unicode="l" glyph-name="l" horiz-adv-x="263" d="M179 -14Q126 -14 101 16T75 110V700H151V110Q151 55 196 55Q223 55 253 75L283 21Q228 -14 179 -14Z" />
<glyph unicode="m" glyph-name="m" horiz-adv-x="872" d="M85 0V400L75 500L141 505L160 402Q189 454 230 484T320 514Q441 514 470 388Q498 446 542 480T638 514Q716 514 756 461T797 304V0H721V304Q721 446 626 446Q585 446 552 415T499 331T479 210V0H403V304Q403
446 308 446Q268 446 235 417T181 336T161 220V0H85Z" />
<glyph unicode="n" glyph-name="n" horiz-adv-x="569" d="M85 0V400L75 500L141 505L161 401Q190 453 234 483T330 514Q494 514 494 304V0H418V304Q418 446 317 446Q274 446 239 416T182 335T161 220V0H85Z" />
<glyph unicode="o" glyph-name="o" horiz-adv-x="541" d="M270 -14Q167 -14 109 56T50 250Q50 375 108 444T270 514Q374 514 432 444T491 250Q491 127 433 57T270 -14ZM270 54Q338 54 376 106T415 250Q415 342 377 394T270 446Q202 446 164 394T126 250Q126 158
164 106T270 54Z" />
<glyph unicode="p" glyph-name="p" horiz-adv-x="564" d="M85 -225V400L75 500L141 505L158 412Q185 460 225 487T318 514Q409 514 461 446T514 259Q514 180 483 118T396 21T268 -14Q242 -14 215 -9T161 5V-225H85ZM268 54Q318 54 356 80T416 153T438 259Q438
345 402 395T303 446Q262 446 230 419T179 342T161 225V82Q211 54 268 54Z" />
<glyph unicode="q" glyph-name="q" horiz-adv-x="569" d="M403 -225V78Q348 -15 241 -15Q153 -15 102 53T50 240Q50 320 81 381T169 478T296 513Q340 513 390 497T479 454V-225H403ZM241 53Q290 53 326 82T382 165T403 289V421Q357 445 296 445Q247 445 209 419T148
347T126 240Q126 154 157 104T241 53Z" />
<glyph unicode="r" glyph-name="r" horiz-adv-x="352" d="M85 0V400L75 500L141 505L161 384Q190 444 235 477T337 511L342 435Q255 428 208 359T161 164V0H85Z" />
<glyph unicode="s" glyph-name="s" horiz-adv-x="431" d="M216 -14Q167 -14 121 4T40 53L81 108Q106 84 143 70T216 55Q263 55 291 77T320 135Q320 166 296 186T214 222Q157 239 124 258T76 303T62 367Q62 432 107 473T226 514Q249 514 276 510T329 498T371 480L343
419Q323 430 289 437T226 445Q188 445 163 425T138 374Q138 346 159 329T236 296Q325 270 360 235T396 138Q396 69 347 28T216 -14Z" />
<glyph unicode="t" glyph-name="t" horiz-adv-x="331" d="M209 -14Q155 -14 130 15T105 109V435H29V500H105L129 650H181V500H298V435H181V109Q181 54 226 54Q260 54 300 83L328 32Q270 -14 209 -14Z" />
<glyph unicode="u" glyph-name="u" horiz-adv-x="569" d="M239 -14Q75 -14 75 196V500H151V196Q151 54 252 54Q296 54 331 85T387 170T408 290V500H484V100L494 0L428 -5L408 99Q379 47 336 17T239 -14Z" />
<glyph unicode="v" glyph-name="v" horiz-adv-x="472" d="M191 0L5 500H87L237 87L386 500H467L281 0H191Z" />
<glyph unicode="w" glyph-name="w" horiz-adv-x="706" d="M156 0L15 500H95L203 118L317 500H389L503 118L611 500H691L550 0H465L353 369L241 0H156Z" />
<glyph unicode="x" glyph-name="x" horiz-adv-x="435" d="M5 0L172 258L16 500H106L220 323L335 500H425L266 253L430 0H340L217 189L95 0H5Z" />
<glyph unicode="y" glyph-name="y" horiz-adv-x="475" d="M197 -239L132 -217L200 -26L5 500H87L238 82L387 500H467L197 -239Z" />
<glyph unicode="z" glyph-name="z" horiz-adv-x="420" d="M11 0L271 435H42V500H400L138 65H399V0H11Z" />
<glyph unicode="{" glyph-name="braceleft" horiz-adv-x="277" d="M170 -60Q133 -60 112 -39T90 20V239Q90 265 76 275T30 286V336Q62 336 76 347T90 383V602Q90 638 111 660T170 682H262V622H187Q170 622 170 605V372Q170 345 157 330T121 314V308Q144 308 157
293T170 250V17Q170 0 187 0H262V-60H170Z" />
<glyph unicode="|" glyph-name="bar" horiz-adv-x="272" d="M90 -76V756H182V-76H90Z" />
<glyph unicode="}" glyph-name="braceright" horiz-adv-x="277" d="M15 -60V0H90Q107 0 107 17V250Q107 277 120 292T156 308V314Q134 314 121 329T107 372V605Q107 622 90 622H15V682H107Q143 682 165 660T187 602V383Q187 358 201 347T247 336V286Q215 286 201
276T187 239V20Q187 -17 165 -38T107 -60H15Z" />
<glyph unicode="~" glyph-name="asciitilde" horiz-adv-x="518" d="M353 248Q325 248 301 259T253 286T208 313T165 325Q146 325 131 312T98 269L42 300Q69 351 98 374T165 398Q193 398 217 387T265 360T310 333T353 321Q372 321 387 334T420 377L476 346Q448
295 419 272T353 248Z" />
<glyph unicode="&#xa0;" glyph-name="uni00A0" horiz-adv-x="250" />
<glyph unicode="&#xa1;" glyph-name="exclamdown" horiz-adv-x="270" d="M135 403Q110 403 95 418T80 458Q80 483 95 498T135 513Q160 513 175 498T190 458Q190 433 175 418T135 403ZM92 -161L102 319H168L178 -161H92Z" />
<glyph unicode="&#xa2;" glyph-name="cent" horiz-adv-x="518" d="M238 -85L248 60Q169 74 122 139T75 304Q75 424 131 498T284 582L293 705H346L337 583Q364 580 389 571T439 548L419 484Q397 495 376 502T332 512L306 127Q383 130 439 181L476 129Q403 59 301
56L291 -85H238ZM253 133L279 509Q222 497 188 445T154 314Q154 241 180 194T253 133Z" />
<glyph unicode="&#xa3;" glyph-name="sterling" horiz-adv-x="518" d="M108 0V268H44V333H108V352Q108 491 164 563T326 636Q396 636 448 612L417 552Q376 571 318 571Q179 571 179 352V333H387V268H179V71H451V0H108Z" />
<glyph unicode="&#xa4;" glyph-name="currency" horiz-adv-x="518" d="M91 92L42 141L113 212Q87 253 87 310Q87 365 112 407L41 478L90 527L161 456Q181 468 206 475T259 482Q286 482 310 475T355 456L427 528L476 479L404 407Q417 387 424 363T431 310Q431 282
424 258T405 214L477 142L428 93L356 164Q315 138 259 138Q203 138 162 163L91 92ZM259 202Q307 202 337 231T367 310Q367 358 337 388T259 418Q210 418 181 389T151 310Q151 261 180 232T259 202Z" />
<glyph unicode="&#xa5;" glyph-name="yen" horiz-adv-x="518" d="M224 0V153H74V213H224V241L190 308H74V368H159L32 619H114L259 329L404 619H486L358 368H444V308H328L294 241V213H444V153H294V0H224Z" />
<glyph unicode="&#xa6;" glyph-name="brokenbar" horiz-adv-x="272" d="M90 418V700H182V418H90ZM90 -76V262H182V-76H90Z" />
<glyph unicode="&#xa7;" glyph-name="section" horiz-adv-x="412" d="M340 252L231 304Q198 320 164 335T99 372T51 427T32 512Q32 566 56 607T122 671T219 694Q307 694 374 647L342 589Q284 627 228 627Q174 627 143 596T112 512Q112 477 126 456T162 420T212
394T265 366T314 325T347 260L340 252ZM195 -134Q150 -134 106 -122T30 -87L62 -29Q89 -46 122 -56T186 -67Q240 -67 271 -36T302 48Q302 83 288 104T252 140T202 166T149 194T101 235T67 300L74 308L183 256Q216 240 250 225T315 188T363 133T382 48Q382 -5 358
-46T292 -111T195 -134Z" />
<glyph unicode="&#xa8;" glyph-name="dieresis" horiz-adv-x="370" d="M274 596Q252 596 239 609T226 644Q226 666 239 679T274 692Q295 692 308 679T322 644Q322 622 309 609T274 596ZM96 596Q74 596 61 609T48 644Q48 666 61 679T96 692Q117 692 130 679T144
644Q144 622 131 609T96 596Z" />
<glyph unicode="&#xa9;" glyph-name="copyright" horiz-adv-x="642" d="M321 243Q234 243 170 278T71 377T35 529Q35 616 70 680T170 779T321 815Q406 815 470 779T570 678T607 529Q607 444 571 380T470 279T321 243ZM321 291Q391 291 444 321T527 405T557 529Q557
600 527 653T444 737T321 767Q249 767 196 738T114 655T85 529Q85 457 114 404T196 321T321 291ZM326 352Q258 352 217 399T175 523Q175 610 218 661T336 713Q385 713 425 687L411 634Q373 660 336 660Q288 660 260 623T231 523Q231 470 257 438T326 405Q374 405
410 433L435 390Q384 352 326 352Z" />
<glyph unicode="&#xaa;" glyph-name="ordfeminine" horiz-adv-x="355" d="M153 452Q96 452 63 494T30 608Q30 657 49 694T103 752T182 774Q209 774 241 764T296 737V527L303 461L248 456L240 506Q209 452 153 452ZM162 507Q194 507 214 542T235 632V708Q210 720
182 720Q143 720 118 689T92 608Q92 561 110 534T162 507Z" />
<glyph unicode="&#xab;" glyph-name="guillemotleft" horiz-adv-x="377" d="M316 70L211 194Q189 219 189 242Q189 264 211 290L316 414L347 399L282 242L347 85L316 70ZM157 70L52 194Q30 219 30 242Q30 264 52 290L157 414L188 399L123 242L188 85L157 70Z" />
<glyph unicode="&#xac;" glyph-name="logicalnot" horiz-adv-x="518" d="M47 275V347H471V147H403V275H47Z" />
<glyph unicode="&#xae;" glyph-name="registered" horiz-adv-x="642" d="M321 243Q234 243 170 278T71 377T35 529Q35 616 70 680T170 779T321 815Q406 815 470 779T570 678T607 529Q607 444 571 380T470 279T321 243ZM321 291Q391 291 444 321T527 405T557 529Q557
600 527 653T444 737T321 767Q249 767 196 738T114 655T85 529Q85 457 114 404T196 321T321 291ZM411 349L359 485Q354 501 343 501H272V360H215V705H345Q388 705 418 675T448 602Q448 547 401 517Q407 511 414 497L463 367L411 349ZM272 550H343Q363 550 377 565T392
602Q392 624 378 639T343 654H272V550Z" />
<glyph unicode="&#xaf;" glyph-name="overscore" horiz-adv-x="417" d="M73 605V677H344V605H73Z" />
<glyph unicode="&#xb0;" glyph-name="degree" horiz-adv-x="252" d="M126 439Q73 439 42 470T10 555Q10 608 41 639T126 671Q178 671 210 639T242 555Q242 503 210 471T126 439ZM125 495Q152 495 168 511T185 555Q185 581 169 597T125 614Q98 614 82 598T66 555Q66
527 82 511T125 495Z" />
<glyph unicode="&#xb1;" glyph-name="plusminus" horiz-adv-x="518" d="M223 99V275H47V347H223V523H295V347H471V275H295V99H223ZM47 -48V24H471V-48H47Z" />
<glyph unicode="&#xb2;" glyph-name="uni00B2" horiz-adv-x="331" d="M34 244V291L163 438Q189 467 198 486T208 524Q208 547 191 559T144 572Q132 572 116 568T85 556T66 543L39 597Q91 630 144 630Q203 630 237 601T272 524Q272 469 215 405L125 301H276V244H34Z" />
<glyph unicode="&#xb3;" glyph-name="uni00B3" horiz-adv-x="331" d="M139 234Q109 234 80 242T28 264L54 315Q66 306 92 299T139 291Q173 291 194 308T216 353Q216 378 198 392T149 407H85V462H115Q156 462 182 479T208 524Q208 547 191 559T144 572Q101 572
66 543L39 597Q91 630 144 630Q202 630 235 601T269 522Q269 497 254 475T215 443Q241 434 259 409T278 354Q278 302 239 268T139 234Z" />
<glyph unicode="&#xb4;" glyph-name="acute" horiz-adv-x="210" d="M65 535L41 560L143 700Q168 735 195 735Q226 735 245 682L65 535Z" />
<glyph unicode="&#xb5;" glyph-name="uni00B5" horiz-adv-x="569" d="M75 -204V500H151V196Q151 54 252 54Q295 54 330 84T387 165T408 280V500H484V0L428 -5L408 99Q379 47 336 17T239 -14Q169 -14 136 31L128 -204H75Z" />
<glyph unicode="&#xb6;" glyph-name="paragraph" horiz-adv-x="469" d="M217 -225V316Q210 315 203 315T189 315Q137 315 94 340T26 409T0 504Q0 557 25 600T94 668T189 694Q242 694 285 669T353 600T379 504V-225H303V504H258V-225H217Z" />
<glyph unicode="&#xb7;" glyph-name="middot" horiz-adv-x="210" d="M105 232Q80 232 65 247T50 287Q50 312 65 327T105 342Q130 342 145 327T160 287Q160 262 145 247T105 232Z" />
<glyph unicode="&#xb8;" glyph-name="cedilla" horiz-adv-x="381" d="M177 -204Q155 -204 131 -196T95 -177L118 -136Q124 -142 141 -147T173 -153Q194 -153 206 -144T219 -118Q219 -88 163 -88H139L163 24H212L196 -50Q234 -50 257 -70T281 -122Q281 -160 253
-182T177 -204Z" />
<glyph unicode="&#xb9;" glyph-name="uni00B9" horiz-adv-x="331" d="M69 244V301H143V554L66 532L51 589L149 620H207V301H272V244H69Z" />
<glyph unicode="&#xba;" glyph-name="ordmasculine" horiz-adv-x="344" d="M171 452Q107 452 71 494T35 613Q35 689 71 731T171 774Q236 774 272 731T309 613Q309 538 273 495T171 452ZM171 507Q207 507 227 535T247 613Q247 664 227 692T171 720Q136 720 117
692T97 613Q97 563 116 535T171 507Z" />
<glyph unicode="&#xbb;" glyph-name="guillemotright" horiz-adv-x="377" d="M220 70L189 85L254 242L189 399L220 414L325 290Q347 264 347 242Q347 219 325 194L220 70ZM61 70L30 85L95 242L30 399L61 414L166 290Q188 264 188 242Q188 219 166 194L61 70Z" />
<glyph unicode="&#xbc;" glyph-name="onequarter" horiz-adv-x="780" d="M261 0L469 620H527L319 0H261ZM88 244V301H162V554L85 532L70 589L168 620H226V301H291V244H88ZM625 -4V78H452V111L559 372H626L529 136H625V273H688V136H719V78H688V-4H625Z" />
<glyph unicode="&#xbd;" glyph-name="onehalf" horiz-adv-x="780" d="M255 0L463 620H521L313 0H255ZM88 244V301H162V554L85 532L70 589L168 620H226V301H291V244H88ZM478 0V47L607 194Q633 223 642 242T652 280Q652 303 635 315T588 328Q576 328 560 324T529
312T510 299L483 353Q535 386 588 386Q647 386 681 357T716 280Q716 225 659 161L569 57H720V0H478Z" />
<glyph unicode="&#xbe;" glyph-name="threequarters" horiz-adv-x="780" d="M158 234Q128 234 99 242T47 264L73 315Q85 306 111 299T158 291Q192 291 213 308T235 353Q235 378 217 392T168 407H104V462H134Q175 462 201 479T227 524Q227 547 210 559T163 572Q120
572 85 543L58 597Q110 630 163 630Q221 630 254 601T288 522Q288 497 273 475T234 443Q260 434 278 409T297 354Q297 302 258 268T158 234ZM261 0L469 620H527L319 0H261ZM625 -4V78H452V111L559 372H626L529 136H625V273H688V136H719V78H688V-4H625Z" />
<glyph unicode="&#xbf;" glyph-name="questiondown" horiz-adv-x="354" d="M249 320V253Q249 196 226 156T142 72Q105 45 91 24T76 -25Q76 -61 104 -82T182 -104Q220 -104 254 -91T312 -52L354 -108Q320 -139 275 -156T179 -174Q98 -174 49 -133T0 -25Q0 22 22
55T99 128Q142 158 160 187T179 253V320H249ZM214 514Q240 514 254 500T269 459Q269 434 255 419T214 404Q189 404 174 419T159 459Q159 484 174 499T214 514Z" />
<glyph unicode="&#xc0;" glyph-name="Agrave" horiz-adv-x="556" d="M0 0L229 680H327L556 0H473L407 200H149L83 0H0ZM172 272H383L278 592L172 272ZM356 715L176 862Q193 915 226 915Q251 915 278 880L380 740L356 715Z" />
<glyph unicode="&#xc1;" glyph-name="Aacute" horiz-adv-x="556" d="M0 0L229 680H327L556 0H473L407 200H149L83 0H0ZM172 272H383L278 592L172 272ZM200 715L176 740L278 880Q303 915 330 915Q361 915 380 862L200 715Z" />
<glyph unicode="&#xc2;" glyph-name="Acircumflex" horiz-adv-x="556" d="M0 0L229 680H327L556 0H473L407 200H149L83 0H0ZM172 272H383L278 592L172 272ZM161 717L137 742L234 879Q245 894 254 900T278 907Q292 907 301 901T322 879L419 742L395 717L278 824L161 717Z" />
<glyph unicode="&#xc3;" glyph-name="Atilde" horiz-adv-x="556" d="M0 0L229 680H327L556 0H473L407 200H149L83 0H0ZM172 272H383L278 592L172 272ZM166 756L119 764Q137 872 206 872Q231 872 254 865T299 850T342 842Q382 842 389 886L436 878Q416 770 345
770Q321 770 299 777T255 792T213 800Q172 800 166 756Z" />
<glyph unicode="&#xc4;" glyph-name="Adieresis" horiz-adv-x="556" d="M0 0L229 680H327L556 0H473L407 200H149L83 0H0ZM172 272H383L278 592L172 272ZM367 776Q345 776 332 789T319 824Q319 846 332 859T367 872Q388 872 401 859T415 824Q415 802 402 789T367
776ZM189 776Q167 776 154 789T141 824Q141 846 154 859T189 872Q210 872 223 859T237 824Q237 802 224 789T189 776Z" />
<glyph unicode="&#xc5;" glyph-name="Aring" horiz-adv-x="556" d="M0 0L229 680H327L556 0H473L407 200H149L83 0H0ZM172 272H383L278 592L172 272ZM278 717Q232 717 205 744T177 818Q177 864 204 891T278 919Q323 919 351 891T379 818Q379 772 351 745T278 717ZM278
768Q300 768 314 782T328 818Q328 840 314 854T278 868Q255 868 242 855T228 818Q228 795 241 782T278 768Z" />
<glyph unicode="&#xc6;" glyph-name="AE" horiz-adv-x="759" d="M0 0L229 680H684V608H387L439 344H669V272H453L492 72H724V0H425L373 272H172L83 0H0ZM196 344H359L309 608H283L196 344Z" />
<glyph unicode="&#xc7;" glyph-name="Ccedilla" horiz-adv-x="534" d="M336 -16Q201 -16 126 78T50 340Q50 508 125 602T336 696Q429 696 507 649L479 582Q414 623 336 623Q239 623 185 549T130 340Q130 207 184 132T336 57Q376 57 416 68T489 99L524 37Q438 -16
336 -16ZM288 -204Q266 -204 242 -196T206 -177L229 -136Q235 -142 252 -147T284 -153Q305 -153 317 -144T330 -118Q330 -88 274 -88H250L274 24H323L307 -50Q345 -50 368 -70T392 -122Q392 -160 364 -182T288 -204Z" />
<glyph unicode="&#xc8;" glyph-name="Egrave" horiz-adv-x="510" d="M78 0V680H448V608H158V376H395V304H158V72H468V0H78ZM341 715L161 862Q178 915 211 915Q236 915 263 880L365 740L341 715Z" />
<glyph unicode="&#xc9;" glyph-name="Eacute" horiz-adv-x="510" d="M78 0V680H448V608H158V376H395V304H158V72H468V0H78ZM185 715L161 740L263 880Q288 915 315 915Q346 915 365 862L185 715Z" />
<glyph unicode="&#xca;" glyph-name="Ecircumflex" horiz-adv-x="510" d="M78 0V680H448V608H158V376H395V304H158V72H468V0H78ZM146 717L122 742L219 879Q230 894 239 900T263 907Q277 907 286 901T307 879L404 742L380 717L263 824L146 717Z" />
<glyph unicode="&#xcb;" glyph-name="Edieresis" horiz-adv-x="510" d="M78 0V680H448V608H158V376H395V304H158V72H468V0H78ZM352 776Q330 776 317 789T304 824Q304 846 317 859T352 872Q373 872 386 859T400 824Q400 802 387 789T352 776ZM174 776Q152 776 139
789T126 824Q126 846 139 859T174 872Q195 872 208 859T222 824Q222 802 209 789T174 776Z" />
<glyph unicode="&#xcc;" glyph-name="Igrave" horiz-adv-x="260" d="M90 0V680H170V0H90ZM208 715L28 862Q45 915 78 915Q103 915 130 880L232 740L208 715Z" />
<glyph unicode="&#xcd;" glyph-name="Iacute" horiz-adv-x="260" d="M90 0V680H170V0H90ZM308 715L284 740L386 880Q411 915 438 915Q469 915 488 862L308 715Z" />
<glyph unicode="&#xce;" glyph-name="Icircumflex" horiz-adv-x="260" d="M90 0V680H170V0H90ZM269 717L245 742L342 879Q353 894 362 900T386 907Q400 907 409 901T430 879L527 742L503 717L386 824L269 717Z" />
<glyph unicode="&#xcf;" glyph-name="Idieresis" horiz-adv-x="260" d="M90 0V680H170V0H90ZM475 776Q453 776 440 789T427 824Q427 846 440 859T475 872Q496 872 509 859T523 824Q523 802 510 789T475 776ZM297 776Q275 776 262 789T249 824Q249 846 262 859T297
872Q318 872 331 859T345 824Q345 802 332 789T297 776Z" />
<glyph unicode="&#xd0;" glyph-name="Eth" horiz-adv-x="651" d="M90 0V317H23V367H90V680H333Q423 680 487 640T586 523T621 340Q621 234 587 158T488 41T333 0H90ZM170 72H333Q431 72 486 143T541 340Q541 466 486 537T333 608H170V367H405V317H170V72Z" />
<glyph unicode="&#xd1;" glyph-name="Ntilde" horiz-adv-x="680" d="M90 0V680H183L510 127V680H590V0H497L170 553V0H90ZM228 756L181 764Q199 872 268 872Q293 872 316 865T361 850T404 842Q444 842 451 886L498 878Q478 770 407 770Q383 770 361 777T317 792T275
800Q234 800 228 756Z" />
<glyph unicode="&#xd2;" glyph-name="Ograve" horiz-adv-x="674" d="M336 -16Q201 -16 126 78T50 340Q50 508 125 602T336 696Q426 696 490 654T589 532T624 340Q624 229 590 149T491 27T336 -16ZM336 57Q434 57 489 132T544 340Q544 473 489 548T336 623Q239
623 185 549T130 340Q130 207 184 132T336 57ZM415 715L235 862Q252 915 285 915Q310 915 337 880L439 740L415 715Z" />
<glyph unicode="&#xd3;" glyph-name="Oacute" horiz-adv-x="674" d="M336 -16Q201 -16 126 78T50 340Q50 508 125 602T336 696Q426 696 490 654T589 532T624 340Q624 229 590 149T491 27T336 -16ZM336 57Q434 57 489 132T544 340Q544 473 489 548T336 623Q239
623 185 549T130 340Q130 207 184 132T336 57ZM259 715L235 740L337 880Q362 915 389 915Q420 915 439 862L259 715Z" />
<glyph unicode="&#xd4;" glyph-name="Ocircumflex" horiz-adv-x="674" d="M336 -16Q201 -16 126 78T50 340Q50 508 125 602T336 696Q426 696 490 654T589 532T624 340Q624 229 590 149T491 27T336 -16ZM336 57Q434 57 489 132T544 340Q544 473 489 548T336 623Q239
623 185 549T130 340Q130 207 184 132T336 57ZM220 717L196 742L293 879Q304 894 313 900T337 907Q351 907 360 901T381 879L478 742L454 717L337 824L220 717Z" />
<glyph unicode="&#xd5;" glyph-name="Otilde" horiz-adv-x="674" d="M336 -16Q201 -16 126 78T50 340Q50 508 125 602T336 696Q426 696 490 654T589 532T624 340Q624 229 590 149T491 27T336 -16ZM336 57Q434 57 489 132T544 340Q544 473 489 548T336 623Q239
623 185 549T130 340Q130 207 184 132T336 57ZM225 756L178 764Q196 872 265 872Q290 872 313 865T358 850T401 842Q441 842 448 886L495 878Q475 770 404 770Q380 770 358 777T314 792T272 800Q231 800 225 756Z" />
<glyph unicode="&#xd6;" glyph-name="Odieresis" horiz-adv-x="674" d="M336 -16Q201 -16 126 78T50 340Q50 508 125 602T336 696Q426 696 490 654T589 532T624 340Q624 229 590 149T491 27T336 -16ZM336 57Q434 57 489 132T544 340Q544 473 489 548T336 623Q239
623 185 549T130 340Q130 207 184 132T336 57ZM426 776Q404 776 391 789T378 824Q378 846 391 859T426 872Q447 872 460 859T474 824Q474 802 461 789T426 776ZM248 776Q226 776 213 789T200 824Q200 846 213 859T248 872Q269 872 282 859T296 824Q296 802 283
789T248 776Z" />
<glyph unicode="&#xd7;" glyph-name="multiply" horiz-adv-x="518" d="M113 114L62 165L208 311L62 457L113 508L259 362L405 508L456 457L310 311L456 165L405 114L259 260L113 114Z" />
<glyph unicode="&#xd8;" glyph-name="Oslash" horiz-adv-x="674" d="M151 -92L190 21Q123 62 87 143T50 340Q50 508 125 602T336 696Q381 696 420 685L450 772H523L483 658Q551 617 587 536T624 340Q624 229 590 149T491 27T336 -16Q292 -16 253 -5L223 -92H151ZM130
340Q130 168 216 97L396 615Q368 623 336 623Q239 623 185 549T130 340ZM336 57Q434 57 489 132T544 340Q544 424 522 485T457 582L278 65Q305 57 336 57Z" />
<glyph unicode="&#xd9;" glyph-name="Ugrave" horiz-adv-x="653" d="M326 -16Q208 -16 142 55T75 253V680H155V248Q155 158 200 108T326 57Q407 57 452 107T498 248V680H578V253Q578 127 512 56T326 -16ZM405 715L225 862Q242 915 275 915Q300 915 327 880L429
740L405 715Z" />
<glyph unicode="&#xda;" glyph-name="Uacute" horiz-adv-x="653" d="M326 -16Q208 -16 142 55T75 253V680H155V248Q155 158 200 108T326 57Q407 57 452 107T498 248V680H578V253Q578 127 512 56T326 -16ZM249 715L225 740L327 880Q352 915 379 915Q410 915 429
862L249 715Z" />
<glyph unicode="&#xdb;" glyph-name="Ucircumflex" horiz-adv-x="653" d="M326 -16Q208 -16 142 55T75 253V680H155V248Q155 158 200 108T326 57Q407 57 452 107T498 248V680H578V253Q578 127 512 56T326 -16ZM210 717L186 742L283 879Q294 894 303 900T327 907Q341
907 350 901T371 879L468 742L444 717L327 824L210 717Z" />
<glyph unicode="&#xdc;" glyph-name="Udieresis" horiz-adv-x="653" d="M326 -16Q208 -16 142 55T75 253V680H155V248Q155 158 200 108T326 57Q407 57 452 107T498 248V680H578V253Q578 127 512 56T326 -16ZM416 776Q394 776 381 789T368 824Q368 846 381 859T416
872Q437 872 450 859T464 824Q464 802 451 789T416 776ZM238 776Q216 776 203 789T190 824Q190 846 203 859T238 872Q259 872 272 859T286 824Q286 802 273 789T238 776Z" />
<glyph unicode="&#xdd;" glyph-name="Yacute" horiz-adv-x="528" d="M224 0V235L0 680H88L264 314L440 680H528L304 235V0H224ZM186 715L162 740L264 880Q289 915 316 915Q347 915 366 862L186 715Z" />
<glyph unicode="&#xde;" glyph-name="Thorn" horiz-adv-x="509" d="M90 0V680H170V543H301Q358 543 404 516T477 443T504 340Q504 284 477 238T404 164T301 137H170V0H90ZM170 210H298Q333 210 361 227T407 275T425 340Q425 376 408 405T362 452T298 470H170V210Z" />
<glyph unicode="&#xdf;" glyph-name="germandbls" horiz-adv-x="579" d="M105 -160V435H40V500H105V551Q105 627 156 673T292 719Q347 719 390 700T460 649T486 575Q486 537 474 511T444 465T407 431T377 399T365 362Q365 337 385 322T436 293T497 263T548 217T569
142Q569 71 521 29T389 -14Q340 -14 294 4T213 53L254 108Q279 84 316 70T389 55Q437 56 464 78T492 138Q492 164 478 180T440 207T390 229T341 255T303 293T288 351Q288 389 300 413T330 454T367 486T397 521T409 569Q409 604 375 628T292 652Q243 652 212 626T181
555V-160H105Z" />
<glyph unicode="&#xe0;" glyph-name="agrave" horiz-adv-x="564" d="M241 -14Q150 -14 98 54T45 241Q45 321 76 382T164 479T291 514Q337 514 386 498T474 456V100L484 0L418 -5L400 85Q374 38 333 12T241 -14ZM256 54Q320 54 359 116T398 282V421Q348 446 291
446Q242 446 204 420T143 348T121 241Q121 155 157 105T256 54ZM345 535L165 682Q182 735 215 735Q242 735 267 700L369 560L345 535Z" />
<glyph unicode="&#xe1;" glyph-name="aacute" horiz-adv-x="564" d="M241 -14Q150 -14 98 54T45 241Q45 321 76 382T164 479T291 514Q337 514 386 498T474 456V100L484 0L418 -5L400 85Q374 38 333 12T241 -14ZM256 54Q320 54 359 116T398 282V421Q348 446 291
446Q242 446 204 420T143 348T121 241Q121 155 157 105T256 54ZM228 535L204 560L306 700Q331 735 358 735Q389 735 408 682L228 535Z" />
<glyph unicode="&#xe2;" glyph-name="acircumflex" horiz-adv-x="564" d="M241 -14Q150 -14 98 54T45 241Q45 321 76 382T164 479T291 514Q337 514 386 498T474 456V100L484 0L418 -5L400 85Q374 38 333 12T241 -14ZM256 54Q320 54 359 116T398 282V421Q348 446
291 446Q242 446 204 420T143 348T121 241Q121 155 157 105T256 54ZM165 537L141 562L238 699Q249 714 258 720T282 727Q296 727 305 721T326 699L423 562L399 537L282 644L165 537Z" />
<glyph unicode="&#xe3;" glyph-name="atilde" horiz-adv-x="564" d="M241 -14Q150 -14 98 54T45 241Q45 321 76 382T164 479T291 514Q337 514 386 498T474 456V100L484 0L418 -5L400 85Q374 38 333 12T241 -14ZM256 54Q320 54 359 116T398 282V421Q348 446 291
446Q242 446 204 420T143 348T121 241Q121 155 157 105T256 54ZM170 576L123 584Q141 692 210 692Q235 692 258 685T303 670T346 662Q386 662 393 706L440 698Q420 590 349 590Q325 590 303 597T259 612T217 620Q176 620 170 576Z" />
<glyph unicode="&#xe4;" glyph-name="adieresis" horiz-adv-x="564" d="M241 -14Q150 -14 98 54T45 241Q45 321 76 382T164 479T291 514Q337 514 386 498T474 456V100L484 0L418 -5L400 85Q374 38 333 12T241 -14ZM256 54Q320 54 359 116T398 282V421Q348 446
291 446Q242 446 204 420T143 348T121 241Q121 155 157 105T256 54ZM371 596Q349 596 336 609T323 644Q323 666 336 679T371 692Q392 692 405 679T419 644Q419 622 406 609T371 596ZM193 596Q171 596 158 609T145 644Q145 666 158 679T193 692Q214 692 227 679T241
644Q241 622 228 609T193 596Z" />
<glyph unicode="&#xe5;" glyph-name="aring" horiz-adv-x="564" d="M241 -14Q150 -14 98 54T45 241Q45 321 76 382T164 479T291 514Q337 514 386 498T474 456V100L484 0L418 -5L400 85Q374 38 333 12T241 -14ZM256 54Q320 54 359 116T398 282V421Q348 446 291
446Q242 446 204 420T143 348T121 241Q121 155 157 105T256 54ZM282 537Q236 537 209 564T181 638Q181 684 208 711T282 739Q327 739 355 711T383 638Q383 592 355 565T282 537ZM282 588Q304 588 318 602T332 638Q332 660 318 674T282 688Q259 688 246 675T232
638Q232 615 245 602T282 588Z" />
<glyph unicode="&#xe6;" glyph-name="ae" horiz-adv-x="805" d="M192 -14Q122 -14 81 23T39 121Q39 270 220 286L350 298V347Q350 446 246 446Q218 446 179 433T108 398L73 453Q111 479 161 496T252 514Q370 514 408 437Q437 474 479 494T573 514Q762 514 762
263Q762 256 761 248T760 233H426Q430 151 469 103T575 54Q615 54 653 68T718 108L756 59Q717 22 674 4T574 -14Q506 -14 455 18T377 107Q349 54 300 20T192 -14ZM429 300H686Q682 445 572 445Q514 445 477 407T429 300ZM196 54Q239 54 274 76T329 137T350 222V233L223
221Q173 217 146 193T118 129Q118 97 140 76T196 54Z" />
<glyph unicode="&#xe7;" glyph-name="ccedilla" horiz-adv-x="446" d="M262 -14Q197 -14 148 17T72 103T45 234Q45 320 74 382T156 479T281 514Q349 514 409 478L390 417Q337 446 283 446Q210 446 166 391T121 244Q121 155 159 105T265 54Q303 54 339 67T403 102L433
48Q359 -14 262 -14ZM230 -204Q208 -204 184 -196T148 -177L171 -136Q177 -142 194 -147T226 -153Q247 -153 259 -144T272 -118Q272 -88 216 -88H192L216 24H265L249 -50Q287 -50 310 -70T334 -122Q334 -160 306 -182T230 -204Z" />
<glyph unicode="&#xe8;" glyph-name="egrave" horiz-adv-x="484" d="M252 -14Q157 -14 101 52T45 232Q45 315 76 378T164 478T293 514Q338 514 373 495T428 444T449 371Q449 320 417 281T326 219T193 196Q158 196 123 199Q131 132 165 93T255 54Q295 54 334 68T400
108L436 59Q360 -14 252 -14ZM195 262Q273 262 323 292T373 368Q373 402 350 424T290 446Q221 446 176 397T122 267Q142 264 160 263T195 262ZM332 535L152 682Q169 735 202 735Q229 735 254 700L356 560L332 535Z" />
<glyph unicode="&#xe9;" glyph-name="eacute" horiz-adv-x="484" d="M252 -14Q157 -14 101 52T45 232Q45 315 76 378T164 478T293 514Q338 514 373 495T428 444T449 371Q449 320 417 281T326 219T193 196Q158 196 123 199Q131 132 165 93T255 54Q295 54 334 68T400
108L436 59Q360 -14 252 -14ZM195 262Q273 262 323 292T373 368Q373 402 350 424T290 446Q221 446 176 397T122 267Q142 264 160 263T195 262ZM215 535L191 560L293 700Q318 735 345 735Q376 735 395 682L215 535Z" />
<glyph unicode="&#xea;" glyph-name="ecircumflex" horiz-adv-x="484" d="M252 -14Q157 -14 101 52T45 232Q45 315 76 378T164 478T293 514Q338 514 373 495T428 444T449 371Q449 320 417 281T326 219T193 196Q158 196 123 199Q131 132 165 93T255 54Q295 54 334
68T400 108L436 59Q360 -14 252 -14ZM195 262Q273 262 323 292T373 368Q373 402 350 424T290 446Q221 446 176 397T122 267Q142 264 160 263T195 262ZM152 537L128 562L225 699Q236 714 245 720T269 727Q283 727 292 721T313 699L410 562L386 537L269 644L152 537Z"
/>
<glyph unicode="&#xeb;" glyph-name="edieresis" horiz-adv-x="484" d="M252 -14Q157 -14 101 52T45 232Q45 315 76 378T164 478T293 514Q338 514 373 495T428 444T449 371Q449 320 417 281T326 219T193 196Q158 196 123 199Q131 132 165 93T255 54Q295 54 334
68T400 108L436 59Q360 -14 252 -14ZM195 262Q273 262 323 292T373 368Q373 402 350 424T290 446Q221 446 176 397T122 267Q142 264 160 263T195 262ZM358 596Q336 596 323 609T310 644Q310 666 323 679T358 692Q379 692 392 679T406 644Q406 622 393 609T358 596ZM180
596Q158 596 145 609T132 644Q132 666 145 679T180 692Q201 692 214 679T228 644Q228 622 215 609T180 596Z" />
<glyph unicode="&#xec;" glyph-name="igrave" horiz-adv-x="256" d="M90 0V500H166V0H90ZM447 535L267 682Q284 735 317 735Q344 735 369 700L471 560L447 535Z" />
<glyph unicode="&#xed;" glyph-name="iacute" horiz-adv-x="256" d="M90 0V500H166V0H90ZM74 535L50 560L152 700Q177 735 204 735Q235 735 254 682L74 535Z" />
<glyph unicode="&#xee;" glyph-name="icircumflex" horiz-adv-x="256" d="M90 0V500H166V0H90ZM267 537L243 562L340 699Q351 714 360 720T384 727Q398 727 407 721T428 699L525 562L501 537L384 644L267 537Z" />
<glyph unicode="&#xef;" glyph-name="idieresis" horiz-adv-x="256" d="M90 0V500H166V0H90ZM473 596Q451 596 438 609T425 644Q425 666 438 679T473 692Q494 692 507 679T521 644Q521 622 508 609T473 596ZM295 596Q273 596 260 609T247 644Q247 666 260 679T295
692Q316 692 329 679T343 644Q343 622 330 609T295 596Z" />
<glyph unicode="&#xf0;" glyph-name="eth" horiz-adv-x="541" d="M268 -14Q204 -14 157 15T83 99T57 225Q57 294 88 350T171 440T287 474Q316 474 342 468T389 450Q357 532 297 584L213 524L180 568L250 618Q189 654 111 662L119 722Q172 715 218 699T305 657L403
727L435 683L350 622Q416 564 452 480T489 291Q489 200 462 132T384 25T268 -14ZM268 52Q337 52 377 116T417 291Q417 311 415 331T410 370Q388 387 359 397T301 408Q253 408 215 383T155 316T133 220Q133 143 169 98T268 52Z" />
<glyph unicode="&#xf1;" glyph-name="ntilde" horiz-adv-x="569" d="M85 0V400L75 500L141 505L161 401Q190 453 234 483T330 514Q494 514 494 304V0H418V304Q418 446 317 446Q274 446 239 416T182 335T161 220V0H85ZM173 576L126 584Q144 692 213 692Q238 692
261 685T306 670T349 662Q389 662 396 706L443 698Q423 590 352 590Q328 590 306 597T262 612T220 620Q179 620 173 576Z" />
<glyph unicode="&#xf2;" glyph-name="ograve" horiz-adv-x="541" d="M270 -14Q167 -14 109 56T50 250Q50 375 108 444T270 514Q374 514 432 444T491 250Q491 127 433 57T270 -14ZM270 54Q338 54 376 106T415 250Q415 342 377 394T270 446Q202 446 164 394T126
250Q126 158 164 106T270 54ZM334 535L154 682Q171 735 204 735Q231 735 256 700L358 560L334 535Z" />
<glyph unicode="&#xf3;" glyph-name="oacute" horiz-adv-x="541" d="M270 -14Q167 -14 109 56T50 250Q50 375 108 444T270 514Q374 514 432 444T491 250Q491 127 433 57T270 -14ZM270 54Q338 54 376 106T415 250Q415 342 377 394T270 446Q202 446 164 394T126
250Q126 158 164 106T270 54ZM217 535L193 560L295 700Q320 735 347 735Q378 735 397 682L217 535Z" />
<glyph unicode="&#xf4;" glyph-name="ocircumflex" horiz-adv-x="541" d="M270 -14Q167 -14 109 56T50 250Q50 375 108 444T270 514Q374 514 432 444T491 250Q491 127 433 57T270 -14ZM270 54Q338 54 376 106T415 250Q415 342 377 394T270 446Q202 446 164 394T126
250Q126 158 164 106T270 54ZM154 537L130 562L227 699Q238 714 247 720T271 727Q285 727 294 721T315 699L412 562L388 537L271 644L154 537Z" />
<glyph unicode="&#xf5;" glyph-name="otilde" horiz-adv-x="541" d="M270 -14Q167 -14 109 56T50 250Q50 375 108 444T270 514Q374 514 432 444T491 250Q491 127 433 57T270 -14ZM270 54Q338 54 376 106T415 250Q415 342 377 394T270 446Q202 446 164 394T126
250Q126 158 164 106T270 54ZM159 576L112 584Q130 692 199 692Q224 692 247 685T292 670T335 662Q375 662 382 706L429 698Q409 590 338 590Q314 590 292 597T248 612T206 620Q165 620 159 576Z" />
<glyph unicode="&#xf6;" glyph-name="odieresis" horiz-adv-x="541" d="M270 -14Q167 -14 109 56T50 250Q50 375 108 444T270 514Q374 514 432 444T491 250Q491 127 433 57T270 -14ZM270 54Q338 54 376 106T415 250Q415 342 377 394T270 446Q202 446 164 394T126
250Q126 158 164 106T270 54ZM360 596Q338 596 325 609T312 644Q312 666 325 679T360 692Q381 692 394 679T408 644Q408 622 395 609T360 596ZM182 596Q160 596 147 609T134 644Q134 666 147 679T182 692Q203 692 216 679T230 644Q230 622 217 609T182 596Z" />
<glyph unicode="&#xf7;" glyph-name="divide" horiz-adv-x="518" d="M259 397Q234 397 219 412T203 453Q203 479 218 494T259 509Q285 509 300 494T315 453Q315 428 300 413T259 397ZM47 275V347H471V275H47ZM259 113Q234 113 219 128T203 169Q203 195 218 210T259
225Q285 225 300 210T315 169Q315 144 300 129T259 113Z" />
<glyph unicode="&#xf8;" glyph-name="oslash" horiz-adv-x="541" d="M270 -14Q167 -14 109 56T50 250Q50 375 108 444T270 514Q374 514 432 444T491 250Q491 127 433 57T270 -14ZM270 54Q338 54 376 106T415 250Q415 342 377 394T270 446Q202 446 164 394T126
250Q126 158 164 106T270 54ZM119 -94L358 598H417L177 -94H119Z" />
<glyph unicode="&#xf9;" glyph-name="ugrave" horiz-adv-x="569" d="M239 -14Q75 -14 75 196V500H151V196Q151 54 252 54Q296 54 331 85T387 170T408 290V500H484V100L494 0L428 -5L408 99Q379 47 336 17T239 -14ZM348 535L168 682Q185 735 218 735Q245 735 270
700L372 560L348 535Z" />
<glyph unicode="&#xfa;" glyph-name="uacute" horiz-adv-x="569" d="M239 -14Q75 -14 75 196V500H151V196Q151 54 252 54Q296 54 331 85T387 170T408 290V500H484V100L494 0L428 -5L408 99Q379 47 336 17T239 -14ZM231 535L207 560L309 700Q334 735 361 735Q392
735 411 682L231 535Z" />
<glyph unicode="&#xfb;" glyph-name="ucircumflex" horiz-adv-x="569" d="M239 -14Q75 -14 75 196V500H151V196Q151 54 252 54Q296 54 331 85T387 170T408 290V500H484V100L494 0L428 -5L408 99Q379 47 336 17T239 -14ZM168 537L144 562L241 699Q252 714 261 720T285
727Q299 727 308 721T329 699L426 562L402 537L285 644L168 537Z" />
<glyph unicode="&#xfc;" glyph-name="udieresis" horiz-adv-x="569" d="M239 -14Q75 -14 75 196V500H151V196Q151 54 252 54Q296 54 331 85T387 170T408 290V500H484V100L494 0L428 -5L408 99Q379 47 336 17T239 -14ZM374 596Q352 596 339 609T326 644Q326 666
339 679T374 692Q395 692 408 679T422 644Q422 622 409 609T374 596ZM196 596Q174 596 161 609T148 644Q148 666 161 679T196 692Q217 692 230 679T244 644Q244 622 231 609T196 596Z" />
<glyph unicode="&#xfd;" glyph-name="yacute" horiz-adv-x="475" d="M197 -239L132 -217L200 -26L5 500H87L238 82L387 500H467L197 -239ZM184 535L160 560L262 700Q287 735 314 735Q345 735 364 682L184 535Z" />
<glyph unicode="&#xfe;" glyph-name="thorn" horiz-adv-x="564" d="M85 -225V700H161V418Q215 514 323 514Q412 514 463 446T514 259Q514 180 483 118T396 21T268 -14Q243 -14 216 -9T161 6V-225H85ZM268 54Q318 54 356 80T416 153T438 259Q438 347 406 396T314
446Q243 446 202 387T161 221V78Q207 54 268 54Z" />
<glyph unicode="&#xff;" glyph-name="ydieresis" horiz-adv-x="475" d="M197 -239L132 -217L200 -26L5 500H87L238 82L387 500H467L197 -239ZM327 596Q305 596 292 609T279 644Q279 666 292 679T327 692Q348 692 361 679T375 644Q375 622 362 609T327 596ZM149
596Q127 596 114 609T101 644Q101 666 114 679T149 692Q170 692 183 679T197 644Q197 622 184 609T149 596Z" />
<glyph unicode="&#x2013;" glyph-name="endash" horiz-adv-x="624" d="M50 220V292H574V220H50Z" />
<glyph unicode="&#x2014;" glyph-name="emdash" horiz-adv-x="886" d="M50 220V292H836V220H50Z" />
<glyph unicode="&#x2018;" glyph-name="quoteleft" horiz-adv-x="165" d="M104 444Q60 444 40 455T20 491Q20 501 28 520T55 574L113 680L145 669L104 444Z" />
<glyph unicode="&#x2019;" glyph-name="quoteright" horiz-adv-x="165" d="M52 444L20 455L61 680Q105 680 125 669T145 633Q145 623 137 604T110 550L52 444Z" />
<glyph unicode="&#x201a;" glyph-name="quotesinglbase" horiz-adv-x="165" d="M52 -140L20 -129L61 96Q105 96 125 85T145 49Q145 39 137 20T110 -34L52 -140Z" />
<glyph unicode="&#x201c;" glyph-name="quotedblleft" horiz-adv-x="295" d="M234 444Q190 444 170 455T150 491Q150 501 158 520T185 574L243 680L275 669L234 444ZM104 444Q60 444 40 455T20 491Q20 501 28 520T55 574L113 680L145 669L104 444Z" />
<glyph unicode="&#x201d;" glyph-name="quotedblright" horiz-adv-x="295" d="M182 444L150 455L191 680Q235 680 255 669T275 633Q275 623 267 604T240 550L182 444ZM52 444L20 455L61 680Q105 680 125 669T145 633Q145 623 137 604T110 550L52 444Z" />
<glyph unicode="&#x201e;" glyph-name="quotedblbase" horiz-adv-x="295" d="M182 -140L150 -129L191 96Q235 96 255 85T275 49Q275 39 267 20T240 -34L182 -140ZM52 -140L20 -129L61 96Q105 96 125 85T145 49Q145 39 137 20T110 -34L52 -140Z" />
<glyph unicode="&#x2022;" glyph-name="bullet" horiz-adv-x="254" d="M127 190Q83 190 57 216T30 287Q30 331 56 357T127 384Q171 384 197 358T224 287Q224 243 198 217T127 190Z" />
<glyph unicode="&#x2039;" glyph-name="guilsinglleft" horiz-adv-x="218" d="M157 70L52 194Q30 219 30 242Q30 264 52 290L157 414L188 399L123 242L188 85L157 70Z" />
<glyph unicode="&#x203a;" glyph-name="guilsinglright" horiz-adv-x="218" d="M61 70L30 85L95 242L30 399L61 414L166 290Q188 264 188 242Q188 219 166 194L61 70Z" />
</font>
</defs>
</svg>
