<?xml version="1.0" standalone="no"?>
<!DOCTYPE svg PUBLIC "-//W3C//DTD SVG 1.1//EN" "http://www.w3.org/Graphics/SVG/1.1/DTD/svg11.dtd">
<svg xmlns="http://www.w3.org/2000/svg">
<defs >
<font id="Gaegu" horiz-adv-x="808" ><font-face
    font-family="Gaegu"
    units-per-em="1000"
    panose-1="0 0 0 0 0 0 0 0 0 0"
    ascent="760"
    descent="-240"
    alphabetic="0" />
<glyph unicode=" " horiz-adv-x="420" />
<glyph unicode="!" horiz-adv-x="445" d="M284 538Q285 533 285 529T286 521Q287 516 285 508T280 490L268 440Q266 438 264 429T260 410T257 391T256 382Q257 377 257 374T257 366Q257 362 257 358T256 350L252 330Q246 304 246 281Q246 270 247 265L243 226Q240
211 236 197T221 182Q208 182 200 190T188 209T183 234T181 256Q181 266 182 271Q181 285 181 296T180 318Q180 344 183 355Q182 360 182 365T181 375Q181 407 185 436T195 489T207 527T216 544Q225 553 249 553Q276 553 284 538ZM263 40Q263 24 249 15T222 6Q201
6 189 11T171 23T162 39T160 56Q160 74 173 93T207 112Q214 112 223 111T242 102T257 81T263 40Z" />
<glyph unicode="&quot;" horiz-adv-x="437" d="M315 667Q316 657 316 649T317 636Q317 622 314 597T308 540L306 522Q304 505 293 501T273 496Q265 496 262 499T258 509T254 526T248 550V557Q248 566 247 581T243 611T240 640T238 661Q238 676 249 683T275 690Q307
690 315 667ZM195 667Q196 657 196 649T197 636Q197 622 194 597T188 540L186 522Q184 505 173 501T153 496Q145 496 142 499T138 509T134 526T128 550V557Q128 566 127 581T123 611T120 640T118 661Q118 676 129 683T155 690Q187 690 195 667Z" />
<glyph unicode="#" horiz-adv-x="733" d="M621 181Q615 181 597 180T557 176T518 172T493 170L502 10Q495 -21 467 -21Q455 -21 449 -13T439 9T435 39T432 69V68Q431 77 430 89Q429 99 429 113T429 145Q429 151 429 156T430 164Q397 161 378 161Q360 161 356 163L286
156Q285 130 285 110T284 72Q284 56 284 45T286 28Q279 3 252 3Q244 3 237 5T225 16T218 43T215 94Q215 107 216 120T219 149Q214 150 208 150T195 150Q186 150 176 150T155 148Q149 148 137 148T112 150T90 158T80 178Q80 192 83 197T96 203T123 205T168 209Q178
210 191 211T222 213Q223 218 223 226T224 244Q224 263 222 269Q222 271 222 278T223 297L226 334Q212 334 195 331T154 327Q132 327 115 329T97 352Q97 367 104 374T126 385T166 392T227 401V433Q227 447 226 453T226 461Q226 466 226 480T229 510T238 538T259
550Q275 550 282 535T292 500T295 465T294 449Q294 440 294 431T293 410Q295 410 296 410T300 409Q306 409 313 410T330 413L364 419Q388 424 419 428Q418 440 418 451T417 473Q417 513 423 569Q426 593 450 593Q464 593 472 585T483 545Q484 533 485 526T487 515Q484
503 484 482Q484 473 484 463T486 440Q501 444 512 446T533 448Q541 448 545 447Q578 459 608 459Q633 459 633 432Q633 418 622 410T591 397T546 388T492 379Q489 373 489 357Q489 340 490 330T492 310T495 291T496 263Q496 255 496 247T495 230L538 235Q550 235
568 235T610 233Q631 231 631 209Q631 192 621 181ZM429 224L425 293Q427 297 427 322Q427 331 427 342T426 368L395 361Q372 356 364 356H357Q342 356 293 347Q293 328 293 318T293 303T291 293T289 280T287 257T285 216Q312 217 326 218T350 221T369 224T395
225Q403 225 411 225T429 224Z" />
<glyph unicode="$" horiz-adv-x="669" d="M297 487Q274 482 258 473T230 454T214 432T208 413Q208 385 228 364T295 329Q296 341 297 350T300 364Q295 384 295 425Q295 439 295 454T297 487ZM355 60Q394 65 417 71T453 89T470 118T474 163Q474 218 359 246Q360
232 360 221T360 201Q360 163 356 156Q357 148 357 140T358 121Q358 94 355 60ZM549 190V146Q546 86 505 49T374 -5Q369 -6 364 -6T354 -6Q354 -21 354 -37T352 -67T342 -90T321 -99Q308 -99 302 -91T292 -71T289 -41T288 -6Q206 -3 152 18L110 38Q87 49 74 61T60
87Q60 119 91 123Q115 115 131 110T157 99T175 87T190 74Q224 60 289 59Q291 86 293 114T296 167Q296 206 290 239L293 265Q268 271 251 276T221 286T198 296T176 310Q134 377 134 409Q134 431 141 447T160 476T188 501T222 526Q236 531 255 535T299 543Q300 583
303 609T328 635Q348 635 354 625T361 583Q361 575 361 567T360 550H376Q392 550 414 544T458 527T494 505T509 483Q509 455 475 455Q474 455 457 461T420 474T381 488T357 495Q358 408 358 363T358 311Q372 308 381 304Q534 250 549 190Z" />
<glyph unicode="%" horiz-adv-x="762" d="M672 152Q672 124 663 99T638 55T605 25T570 14Q525 14 470 45Q434 70 418 148Q436 244 494 272Q495 272 497 272T501 271Q507 271 520 272T547 274T573 276T586 277Q599 275 614 261T641 226T662 186T672 152ZM608 154Q598
208 548 219Q532 216 520 206T500 185T487 164T482 150Q482 125 512 88Q531 82 543 79T561 75H563Q609 97 609 139Q609 149 608 154ZM560 502Q550 474 536 454T502 412T460 360T408 285Q385 248 374 240Q373 234 365 218T346 185T327 155T318 141Q308 117 284 81Q255
13 218 0Q186 0 185 40Q186 54 228 122Q237 137 243 149T258 178T281 217T321 275Q339 301 345 310T355 327T368 346T398 391Q414 414 424 427T439 443Q442 449 451 464T472 496T500 526T529 539Q560 539 560 502ZM318 443Q318 386 282 332Q277 329 266 325T243
318T220 312T205 309Q185 309 165 317T128 340T101 372T90 410Q90 456 123 503Q148 521 195 542Q260 542 284 491Q307 478 318 443ZM260 411Q260 416 258 423T253 438T248 453T246 464Q232 474 212 474Q203 474 193 471T173 461T158 445T152 423Q152 415 157 405T171
387T189 374T210 368Q233 368 246 381T260 411Z" />
<glyph unicode="&amp;" horiz-adv-x="751" d="M649 55Q661 44 661 29Q661 14 653 6T633 -3Q605 0 573 17T499 81Q481 62 462 43T419 9T363 -17T291 -29Q252 -22 231 -18T206 -13Q182 -4 161 10T125 44T100 87T90 134Q90 153 101 183T134 245T188 306T262 355Q257
360 250 369T238 393L226 426Q223 433 223 452Q223 500 235 530T265 577T300 600T331 606Q341 606 361 600L402 588Q411 583 420 571T438 545T452 515T457 488Q457 462 453 442T439 405T410 372T362 335L449 227Q456 220 467 209T493 181Q520 213 533 231T555 263T571
291T593 332Q602 348 617 348Q629 348 638 338T647 314Q647 310 646 305T641 293T631 274T613 245Q599 223 592 210T583 192Q557 166 539 130L572 98Q605 65 649 55ZM392 484Q390 504 376 522T335 540Q324 540 315 534T300 517T291 493T287 466Q287 447 296 421T319
382Q392 413 392 474V484ZM452 122Q432 150 401 179L365 229Q357 236 343 255T305 305Q278 295 254 277T211 237T182 188T171 133Q171 88 199 63T276 38Q303 38 329 45T379 64T421 91T452 122Z" />
<glyph unicode="&apos;" horiz-adv-x="317" d="M195 667Q196 657 196 649T197 636Q197 622 194 597T188 540L186 522Q184 505 173 501T153 496Q145 496 142 499T138 509T134 526T128 550V557Q128 566 127 581T123 611T120 640T118 661Q118 676 129 683T155 690Q187
690 195 667Z" />
<glyph unicode="(" horiz-adv-x="440" d="M318 -56Q320 -62 320 -65Q320 -77 309 -86T285 -95Q277 -95 268 -89T250 -73T231 -53T216 -33Q180 13 177 55Q171 60 164 75T149 109T136 148T129 184L120 327Q125 361 136 410T167 508T214 596T280 650H285Q299 650
308 642T317 620Q317 612 311 602T296 580T277 556T257 530Q219 452 206 394T192 286Q192 284 192 264T196 216T206 155T226 94Q233 79 237 69T248 49T263 25T291 -11Q315 -43 318 -56Z" />
<glyph unicode=")" horiz-adv-x="440" d="M321 219Q317 192 306 144T274 45T225 -48T157 -104Q155 -104 154 -104T151 -105Q138 -105 129 -96T120 -74Q120 -65 127 -54T144 -29T165 -2T187 26Q207 67 219 97T239 154T249 206T252 260Q252 262 252 282T248 330T238
391T218 452Q211 467 207 477T196 497T181 521T154 556Q135 579 130 592T124 611Q124 623 134 632T156 641Q164 641 168 637Q267 560 273 491Q279 486 286 471T301 437T314 398T321 362Q320 348 320 333T320 300Q320 282 320 262T321 219Z" />
<glyph unicode="*" horiz-adv-x="551" d="M427 489Q430 484 430 479Q430 456 403 443Q392 444 356 469L307 490Q307 455 307 439T309 415T310 403T311 389Q311 377 302 372T282 366Q271 366 264 370T254 381T249 396T248 413Q248 423 251 435V488Q225 466 213
451T193 426T179 412T159 408Q136 408 136 432Q136 440 139 451L217 530Q199 545 138 562Q120 569 120 593Q120 621 143 621Q153 621 166 617T192 606T218 593T241 581Q241 644 229 670Q229 687 239 698T264 710Q281 710 295 690L293 590Q320 619 343 641T378 664Q400
664 409 631Q406 624 392 611T362 585T332 560T315 545Q328 541 356 528T427 489Z" />
<glyph unicode="+" horiz-adv-x="620" d="M505 267Q500 261 483 257T448 249T417 245T405 245Q404 245 391 244T358 243Q354 243 350 243T343 244Q343 211 343 182T342 132T331 98T305 85Q291 85 281 90T270 118Q270 131 271 149T277 192Q276 195 276 204Q276
222 277 235T279 249Q262 250 248 250T220 250Q173 250 148 247Q111 251 111 282Q111 310 139 310Q178 310 197 309T230 307Q241 307 253 307T278 309Q277 323 277 333T276 352Q276 371 279 376Q279 400 272 441Q277 473 307 473Q322 473 329 466T339 444T343 403T346
342V306Q356 307 370 308T404 311Q408 309 417 309Q430 309 442 310T463 312T478 315T482 315Q508 312 508 284Q508 274 505 267Z" />
<glyph unicode="," horiz-adv-x="349" d="M226 84Q229 78 229 65Q229 48 227 32T219 -1T200 -39T166 -86Q158 -89 152 -89Q139 -89 136 -75Q136 -72 140 -63T150 -44T160 -25T166 -12Q170 4 172 24Q170 23 164 23Q152 23 136 34T120 75Q124 82 128 89T139 104T153
115T176 120Q206 120 226 84Z" />
<glyph unicode="-" horiz-adv-x="620" d="M478 249Q467 246 455 246Q449 246 440 247T420 249T399 251T381 252Q381 251 363 252T307 254Q282 254 276 248Q257 247 230 245T166 241Q130 244 130 272Q130 282 132 290T145 303T179 311T245 315Q250 315 256 315T271
314Q311 314 379 317Q399 316 421 314T470 309Q489 294 489 275Q489 262 478 249Z" />
<glyph unicode="." horiz-adv-x="343" d="M223 30Q223 14 209 5T182 -4Q161 -4 149 1T131 13T122 29T120 46Q120 64 133 83T167 102Q174 102 183 101T202 92T217 71T223 30Z" />
<glyph unicode="/" horiz-adv-x="459" d="M419 586Q417 578 402 549T365 478T318 390T271 299L235 217Q224 194 218 181T206 164Q197 138 175 94T123 -17Q118 -28 112 -39T99 -59T85 -75T70 -81Q45 -81 40 -55Q46 8 124 139Q149 181 164 215T188 275Q205 300 216
323T235 367T249 404T262 435Q263 437 274 455T305 508L332 564Q343 586 357 602T385 619Q398 619 408 609T419 586Z" />
<glyph unicode="0" horiz-adv-x="573" d="M473 285Q471 262 463 234T445 177T421 123T396 83Q365 60 347 48T316 29T291 22T261 21Q235 21 206 33T152 67T109 118T87 181Q70 232 70 274Q70 327 92 371T171 462Q196 483 220 494T264 510T302 516T331 517Q368 517
393 506T435 469T460 397T473 285ZM394 220Q409 262 409 307Q409 332 403 359T387 407T361 443T327 457Q199 457 149 332Q139 308 139 276Q139 251 147 213L157 168Q204 85 261 85Q303 85 337 120T394 220Z" />
<glyph unicode="1" horiz-adv-x="407" d="M256 510V506Q256 497 252 471T242 416T232 362T227 331Q227 325 227 321T229 312Q225 305 225 276Q225 262 225 247T226 220Q226 209 226 202T224 190Q229 158 232 134T235 92Q235 72 225 57T185 41Q164 41 158 56L152
123Q154 129 154 140Q154 144 154 157T152 186T151 216T150 237Q150 272 156 283Q152 295 152 313Q152 319 154 333T158 362T162 390T164 408V412Q166 426 169 450T180 506Q189 536 220 536Q254 536 256 510Z" />
<glyph unicode="2" horiz-adv-x="522" d="M396 17Q381 18 374 18T362 19T353 19T341 19Q333 19 324 19T305 18Q280 18 244 30Q234 30 222 30T196 29Q185 31 165 34T117 41Q100 58 100 73Q100 87 107 102Q141 136 158 157T187 194T212 227T250 269Q254 273 261
283T276 305T294 330T309 350Q340 385 340 429Q340 450 330 463T290 476Q239 476 204 453T149 391Q139 371 134 361T124 346T116 341T105 340Q92 340 81 350T70 377Q70 387 78 405T99 442T125 476T149 495Q216 534 301 534Q331 534 351 525T384 501T401 466T406
422Q406 364 370 325Q359 313 350 300T333 275T319 252T308 238Q304 236 296 228T278 206T256 177T233 144Q194 112 186 95Q213 93 252 89Q268 83 284 83Q295 83 304 86Q309 86 315 86T328 85Q345 85 365 86T409 87Q418 87 425 75T432 48Q432 27 420 22T396 17Z"
/>
<glyph unicode="3" horiz-adv-x="531" d="M360 6Q345 -12 317 -27T255 -54T188 -73T129 -80Q102 -80 91 -73T80 -49Q80 -23 110 -20Q152 -16 172 -14T193 -12Q230 -4 262 15T317 58T353 105T367 142Q370 167 370 181Q370 225 349 245T288 265Q268 265 195 249Q170
256 170 290Q173 296 186 303T214 319T245 336T267 353Q310 399 310 435Q310 487 236 487Q226 487 219 487T202 483T181 473T151 450Q128 432 118 420T103 400T92 389T75 385Q45 385 45 421Q45 436 55 452T83 485T122 517T167 544Q182 549 199 551T238 553Q272
553 298 549T343 532T370 496T380 434Q380 421 376 405T357 365L332 324Q356 315 371 309T395 298T410 286T423 270Q446 238 446 193Q446 110 360 6Z" />
<glyph unicode="4" horiz-adv-x="554" d="M503 137Q496 135 487 134T466 133Q452 133 438 134T415 135Q408 135 403 135T395 134Q394 124 391 103T384 58T376 14T369 -16Q361 -23 343 -23Q316 -23 312 -10Q312 12 317 47T332 133Q311 130 296 129T271 128Q266
128 260 129T242 130T212 132T167 133Q159 133 144 136T112 143T82 153T62 163Q60 171 60 177Q60 195 62 204T71 227T94 270T134 358L219 489Q226 495 237 495Q265 495 265 471Q265 445 188 329L132 201Q139 186 158 186Q168 186 173 187T182 188T190 190T200 191Q211
191 223 190T251 186Q275 186 296 187T336 190Q337 206 338 229T344 282Q342 291 342 300T342 320Q342 340 345 361T349 408Q349 415 348 431T346 465T343 497T342 513Q348 529 362 529Q372 529 378 528T389 521T397 503T404 466Q406 449 407 436T409 412Q409 395
408 373T406 318Q407 313 407 308T407 294Q407 274 406 257T404 225Q403 209 402 195Q417 192 450 192H461Q485 192 499 188T514 163Q514 146 503 137Z" />
<glyph unicode="5" horiz-adv-x="491" d="M380 85Q372 68 363 54T339 24T302 -9T246 -51Q148 -105 120 -105Q108 -105 106 -98T104 -75Q104 -63 114 -54T140 -35T178 -15T222 8Q237 10 267 43L311 91Q334 129 334 159Q334 189 320 212T286 250T241 274T195 282Q183
282 171 280T145 277Q141 277 132 278T114 283T97 292T89 307Q89 325 93 352T103 407T113 455T118 481V531Q117 531 117 516Q117 537 124 542T147 548Q167 548 175 546T190 541T203 536T230 534Q235 534 237 534T243 535Q246 535 265 533T306 529T345 524T362 522Q381
518 381 493Q381 465 357 464Q344 466 324 467T275 468Q270 468 262 469T243 471T225 473T211 474Q197 474 190 469T179 454T174 431T169 401Q161 361 161 350Q161 345 162 344Q168 345 174 345T186 345Q208 345 234 341T287 325T338 292T380 235Q390 214 395 197T401
163Q401 134 380 85Z" />
<glyph unicode="6" horiz-adv-x="482" d="M140 246Q136 226 136 203Q136 146 158 113T225 80Q268 80 302 111Q313 135 325 157T338 196Q338 234 307 254T226 276Q213 276 140 246ZM399 212Q399 209 399 206T400 199Q400 185 398 174T391 150T375 120T347 76L310
53Q278 33 253 29T210 25Q186 25 162 37T117 71T83 125T70 198Q70 203 73 226T81 291Q85 307 97 330T124 380T158 433T194 481T227 516T254 531Q261 541 278 556T315 585T351 610T374 621Q402 612 402 591Q402 587 401 583T392 570T367 546T316 503Q308 498 297
490T273 470L234 433L197 383Q181 362 172 344T157 312Q167 316 181 319T209 326T235 330T257 332Q269 332 284 327T313 316T340 305T359 297Q365 294 371 285T383 264T393 239T399 212Z" />
<glyph unicode="7" horiz-adv-x="475" d="M369 387Q367 380 357 338T330 218Q313 144 290 96Q290 95 286 73T273 26T252 -21T223 -43Q208 -43 194 -32Q194 15 206 41Q207 48 214 71T235 132Q244 184 262 228Q262 234 266 252T275 291T284 327T288 345Q300 411
300 416Q270 427 201 432L143 425Q140 426 133 426Q125 426 108 423T82 419Q61 419 51 429T40 453Q40 467 45 474T60 485T83 488T110 488H142Q167 494 190 494Q195 494 200 494T210 493Q219 494 226 494T241 494Q255 494 259 493L293 483H297Q319 483 367 469Q374
463 374 445Q374 442 373 435T371 419T369 403T368 391Q368 389 368 389T369 387Z" />
<glyph unicode="8" horiz-adv-x="543" d="M454 124Q454 81 441 52T404 5T348 -20T276 -28Q270 -28 264 -28T251 -27L163 7Q132 19 114 33T86 64T73 97T70 132Q70 168 79 194T105 241T145 278T198 312Q178 330 167 345T150 373T143 394T141 406Q141 449 159 479T204
528T264 557T327 568Q369 564 398 534T428 454Q428 447 425 430T411 392T383 347T334 305Q375 287 399 262T435 211T450 162T454 124ZM349 493Q336 503 315 503Q297 503 280 498T249 482T227 458T218 426Q218 374 263 340Q274 340 324 372Q357 433 357 466Q357
482 349 493ZM374 189Q333 251 269 269Q264 268 254 264T226 252L186 231Q143 204 143 143Q143 132 144 121T148 95Q158 82 174 71T211 52T253 40T295 35Q387 46 387 116Q387 136 374 189Z" />
<glyph unicode="9" horiz-adv-x="514" d="M349 356Q348 460 288 460Q250 460 183 408Q181 405 174 396T158 376T143 353T136 336Q136 313 156 301T198 288Q222 288 259 298Q273 301 349 356ZM413 291Q411 244 397 196L375 126Q364 52 342 22Q339 5 329 -18T307
-62T284 -97T269 -112Q257 -112 247 -105T236 -87Q236 -82 243 -59T275 21Q279 27 285 42T296 74T306 104T312 121Q312 121 317 137T328 174T340 219T345 258Q345 261 345 264T344 271L345 286Q320 269 298 259T259 244T230 236T216 234Q204 234 189 234T157 237T123
251T93 282Q70 317 70 341Q70 350 75 362T87 386T100 408T108 424L153 464Q175 484 192 495T223 513T249 521T277 523Q334 523 369 488T411 386L413 291Z" />
<glyph unicode=":" horiz-adv-x="350" d="M226 420Q226 405 209 393T177 380Q150 380 122 429Q122 449 132 462T153 488Q162 487 174 486T197 479T217 459T226 420ZM228 104Q228 88 214 79T187 70Q166 70 154 75T135 88T127 104T125 121Q125 140 138 158T171 176Q178
176 188 175T207 166T222 144T228 104Z" />
<glyph unicode=";" horiz-adv-x="350" d="M226 420Q226 405 209 393T177 380Q150 380 123 429Q123 449 133 462T154 488Q162 487 174 486T198 479T218 460T226 420ZM226 149Q229 143 229 130Q229 113 227 97T219 64T200 26T166 -21Q158 -24 152 -24Q139 -24 136
-10Q136 -7 140 2T150 21T160 40T166 53Q170 69 172 89Q170 88 164 88Q152 88 136 99T120 140Q124 147 128 154T139 169T153 180T176 185Q206 185 226 149Z" />
<glyph unicode="&lt;" horiz-adv-x="450" d="M356 604Q357 602 357 598Q357 583 346 565T315 518T267 450T204 352Q171 296 165 276Q174 254 180 242T189 224T196 213T202 203T211 186T227 155Q249 107 256 104Q261 93 276 65T309 7T339 -43T351 -62V-67Q351 -80
342 -91T322 -102Q307 -102 292 -88T260 -48T224 16T179 99Q171 131 121 207Q107 227 100 247T93 288Q93 302 121 348L149 393Q149 394 158 408T178 439T198 469T207 483Q241 532 264 568T301 630Q313 634 323 634Q350 634 356 604Z" />
<glyph unicode="=" horiz-adv-x="620" d="M465 344Q454 341 442 341Q425 341 415 342T392 344T359 347T301 349Q279 349 273 343Q256 342 232 340T173 336Q137 339 137 367Q137 378 140 386T155 399T186 406T242 410Q247 410 252 410T265 409Q301 409 366 412Q386
411 408 409T457 404Q476 389 476 370Q476 357 465 344ZM466 153Q454 150 440 149T402 147T342 146T248 144Q192 141 168 141Q146 141 139 152T132 176Q132 186 135 192T149 201T183 206T246 209Q246 210 264 209T320 207Q345 207 351 213L456 216Q489 213 489
190Q489 171 466 153Z" />
<glyph unicode="&gt;" horiz-adv-x="450" d="M363 263Q363 248 338 202L312 156Q312 154 304 140T286 108T268 77T259 63Q238 28 217 -12T173 -99Q158 -104 149 -104Q137 -104 127 -96T116 -70Q116 -55 127 -33T158 22T202 96T255 194Q271 222 279 241T290 272Q279
294 273 305T262 323T255 334T249 344T239 360T222 389Q196 437 190 439Q185 450 168 476T133 527T100 572T87 589Q86 591 86 595Q86 609 94 619T114 630Q127 630 141 619T174 585T215 528T267 448Q278 415 331 343Q362 302 363 263Z" />
<glyph unicode="?" horiz-adv-x="544" d="M444 456Q438 432 431 412T414 373T388 338T349 307Q315 285 299 270T277 242T271 220T270 197Q263 172 233 172Q214 172 209 185T203 214Q203 242 221 277T284 338Q301 347 313 354T333 371T349 392T362 421Q370 440
373 446T376 456Q376 477 366 493T340 521T308 538T278 544Q261 544 247 541T218 528T190 500T161 452Q152 441 136 441Q102 441 100 476Q118 523 142 549T192 589T241 605T280 608Q326 608 355 595T401 561T428 513T444 456ZM278 20Q278 4 264 -5T237 -14Q216
-14 204 -9T186 3T177 19T175 36Q175 54 188 73T222 92Q229 92 238 91T257 82T272 61T278 20Z" />
<glyph unicode="@" horiz-adv-x="765" d="M665 286Q663 264 655 238T631 189T593 151T542 136Q516 136 498 151T473 199Q462 181 431 149L392 128Q364 114 344 114Q291 114 263 140T234 227Q234 264 246 296Q293 422 397 422Q405 422 425 419T465 406T502 378T518
330Q518 315 514 306L520 243Q529 198 551 198Q569 198 588 222T607 290Q607 328 572 421Q546 448 505 467T421 486Q387 486 351 475T282 443T224 396T189 338Q162 258 162 201Q162 160 179 131T226 83T297 55T388 46Q518 49 589 102Q592 103 598 103Q625 103 625
76Q625 68 620 60Q513 -14 383 -14Q368 -14 333 -10T243 5Q196 33 168 56T124 101T105 147T100 199Q100 263 123 324T190 434T295 512T433 542Q473 542 514 527T588 480T642 400T665 286ZM452 333Q430 358 396 358Q363 358 343 342T311 303T296 260T292 230Q292
212 297 201T311 184T330 176T350 174Q373 174 392 189T424 228T445 277T452 325V333Z" />
<glyph unicode="A" horiz-adv-x="536" d="M495 -15Q491 -28 470 -28Q450 -28 441 -19L406 80L394 128Q389 145 382 156T369 173L296 170Q243 168 199 158T138 137Q133 110 125 78T107 9Q101 -5 76 -5Q51 -5 51 11Q51 18 53 31T60 61T68 94T77 128Q76 132 76 136T76
144Q76 154 79 172T87 209T95 242T99 260L133 351Q136 366 145 389T164 436T183 481T196 513Q203 537 232 537Q255 537 263 520Q262 522 269 511T286 482T309 442T333 400T351 364T359 345Q362 340 369 325T385 293T401 260T413 240Q423 227 432 205T447 161T459
121T469 96Q469 89 473 75T483 46T493 17T497 -3Q497 -7 495 -15ZM342 232L320 297Q310 326 293 346Q284 366 271 392T239 449Q213 408 191 324Q168 277 153 210Q155 210 164 212T185 216T206 220T222 222Q229 222 237 220Q246 222 259 223T286 225T315 227T342
232Z" />
<glyph unicode="B" horiz-adv-x="573" d="M513 174V167Q513 134 486 95T393 19Q366 4 344 -5T300 -20T253 -33T196 -50Q185 -51 174 -52Q165 -53 156 -53T140 -53Q124 -53 116 -49T103 -36T98 -12T97 28Q97 41 99 51Q96 58 96 81Q96 118 97 144T101 189T104 222T106
249Q106 262 106 276T105 308L116 455Q115 463 111 477T103 504T94 526T90 535Q90 539 93 545T105 558T125 568T157 573H162Q213 597 261 597Q265 597 274 597T295 596T323 588T357 567L395 536L409 509Q419 490 419 470Q419 419 368 368Q378 365 394 358T427 342T457
326T473 316Q487 300 497 260T513 174ZM345 489Q344 493 338 502T322 519T297 533T266 540Q206 540 183 517Q181 509 181 499T180 475T178 442T173 398Q171 384 171 375T170 361Q170 354 172 352Q206 358 225 361T255 369T275 379T299 397Q348 422 348 465Q348
475 345 489ZM439 147Q445 162 445 180Q445 211 437 233T416 269T384 293T343 309Q311 318 297 318Q286 318 269 314T234 304T198 293T171 287Q172 279 172 271T172 253Q172 220 167 181T161 93Q161 79 162 65T163 40Q163 33 163 28T162 18Q167 17 173 17T185 16Q199
16 222 22T267 35T308 48T331 56Q346 62 363 73T396 97T423 123T439 147Z" />
<glyph unicode="C" horiz-adv-x="547" d="M487 131Q485 120 473 104T444 71T408 40T371 21Q318 -3 249 -3Q229 -3 214 -3T185 3T155 19T121 51Q100 73 88 94T70 135T62 173T60 206Q60 240 69 287T113 400Q141 452 142 454L203 492Q235 512 264 523T329 535Q347
535 369 533T417 527Q443 522 443 493Q443 466 410 462Q408 462 396 463T370 465T341 468T320 469Q294 469 263 453T184 394Q184 394 161 346Q150 323 145 309T140 286Q130 267 130 227Q130 144 160 104T248 64Q287 64 350 82Q394 109 425 161Q437 173 451 173Q465
173 476 162T487 136V131Z" />
<glyph unicode="D" horiz-adv-x="572" d="M512 311Q510 225 457 152Q441 134 423 111T382 58Q378 56 364 46T331 22T294 -1T264 -13Q221 -18 172 -40Q126 -40 119 -7Q120 -1 120 7T120 25Q120 75 110 142T100 291Q100 327 104 376T116 489Q128 517 166 517Q183
517 196 506Q250 525 301 525Q334 525 363 517T415 497T456 470T481 440Q512 351 512 311ZM442 336Q440 357 435 373T420 402T391 427T343 452Q322 462 293 462Q284 462 268 460T236 456T208 451T192 449Q185 449 182 450Q166 408 166 269Q166 257 166 233T169
177T177 109T193 35Q217 37 305 86Q317 92 339 111T385 161T425 232T442 322V336Z" />
<glyph unicode="E" horiz-adv-x="493" d="M439 45Q464 35 464 9Q464 -28 393 -28Q383 -28 371 -28T350 -27Q337 -27 328 -27T312 -28Q310 -27 286 -26T216 -20Q192 -22 179 -23T161 -24Q124 -24 108 -12Q103 23 100 54T97 115Q97 166 101 206T106 272Q106 306
102 318L107 423Q115 502 130 530Q134 534 155 539T201 548T243 556T257 560Q263 562 283 564T325 568T364 571T381 572H384Q392 572 399 562T407 537Q407 528 406 522T399 510T379 503T339 499Q294 497 278 492H272Q241 492 197 478Q192 473 188 459T182 428T178
394T176 367Q176 341 178 327T179 313Q211 314 236 319T282 324Q291 324 303 324T328 323T351 323T368 322Q378 322 382 313T387 291Q387 269 371 263T314 256Q266 256 254 253Q249 253 243 253T229 254Q218 254 206 254T179 252Q176 248 174 234T171 203T170 175T170
162V141Q170 106 167 51Q174 49 195 47T241 44T286 41T314 38Q315 38 329 39T369 42Q406 45 427 45H439Z" />
<glyph unicode="F" horiz-adv-x="499" d="M466 475Q468 469 468 462Q468 422 442 422Q439 422 427 425T401 432T373 439T350 443H341Q307 451 276 455T216 459Q209 459 203 459T190 458Q184 439 181 421T177 382V375Q176 364 176 351T175 324Q175 314 175 303T176
281L269 283Q270 283 282 284T311 286T344 289T372 290Q389 290 397 281T405 258Q405 243 397 236T373 226T333 223T275 219H256Q240 219 220 218T177 215V100Q176 92 176 86T176 73Q176 26 188 -2Q186 -35 158 -35Q138 -35 122 -13L109 43Q105 64 103 85T101 127Q101
143 101 161T102 200Q102 225 102 253T100 314Q103 460 133 519Q139 525 165 525Q169 525 180 524T205 522T230 520T248 519Q251 519 252 519T257 520Q273 520 339 505Q435 503 466 475Z" />
<glyph unicode="G" horiz-adv-x="622" d="M516 -56Q507 -71 487 -71Q471 -71 464 -66T453 -50T450 -27T449 3Q450 23 450 38T451 63V75Q379 15 332 10Q311 8 295 7T268 5Q256 4 247 3H248Q214 3 181 17T120 57T77 115T60 187Q60 206 64 237T76 300T93 360T110
404Q125 431 163 466Q213 495 293 531Q313 535 340 539T404 550Q467 545 494 530T522 489Q522 463 493 463Q479 463 461 469T422 477Q394 478 380 478T364 479Q299 467 260 443Q236 439 212 419T169 365T139 290T127 200Q127 152 146 121T223 70Q232 67 247 67Q281
67 304 70T345 82T380 103T418 136Q436 152 441 152Q444 152 445 151Q444 156 444 169Q444 175 444 181T445 195Q430 204 404 209T352 217T310 220T294 221Q278 236 278 253Q278 277 300 281H299Q299 283 318 279T370 275Q380 275 386 277Q399 276 416 272T450
263T481 251T502 239Q517 228 517 185Q517 158 509 137Q514 119 514 75Q514 46 515 32T515 16Q513 10 513 5Q513 -2 515 -18T518 -43Q518 -50 516 -56Z" />
<glyph unicode="H" horiz-adv-x="627" d="M519 95Q519 89 520 80T522 61T525 43T527 30Q527 -4 495 -4Q475 -4 464 10L456 80V88Q456 94 456 101T454 119L448 164Q451 182 451 198Q451 228 442 252Q433 250 402 246T323 241Q303 241 292 242T272 246T251 249T220
251H169Q167 221 166 197T164 154Q164 117 169 99Q171 68 173 46T177 8L180 -22V-28Q180 -47 154 -47Q142 -47 134 -42T120 -24T111 11T106 67Q101 90 101 120V134Q101 160 101 176T100 201Q100 211 100 228T101 263T104 299T112 326Q112 328 112 331T111 337Q111
361 113 379T118 413T124 447T129 487Q132 515 137 531T163 548Q172 548 183 542T194 525Q194 518 194 504T191 466T184 405T174 318Q182 312 197 310T227 307T253 306T265 306Q274 302 295 302Q355 302 355 303H353H364Q388 303 407 306T442 314Q443 319 443 323T443
333Q443 364 434 411V424Q434 456 428 485Q428 511 463 511Q483 511 491 493T500 443V430Q500 359 511 315Q511 289 513 252T519 167Q518 162 518 155T518 139Q518 130 518 119T519 95Z" />
<glyph unicode="I" horiz-adv-x="355" d="M232 10Q217 9 206 8T185 6T162 4T130 0Q124 2 121 2Q117 2 109 0T95 -3Q67 -3 67 24Q67 36 72 42T87 53T109 61T137 68V79Q137 111 143 162Q140 172 140 188Q140 224 142 246T145 270Q145 288 141 295V321Q141 340 140
361T137 402T134 435T133 456V461Q114 461 87 464Q73 484 73 498Q73 505 75 510T84 519T105 524T143 526Q160 526 173 524T196 519Q219 519 233 518T256 515T266 507T269 494Q269 475 249 458Q244 458 239 458T227 459Q221 459 214 459T199 458Q202 445 203 430T205
401T206 374T209 353L212 256Q211 232 211 214T211 182Q211 154 212 151L206 70Q212 70 222 70T241 66T257 57T264 38Q264 27 257 19T232 10Z" />
<glyph unicode="J" horiz-adv-x="359" d="M297 541Q309 532 309 519Q309 508 290 480L214 472Q215 466 217 449T221 411T226 365T231 321T234 286T236 269Q236 253 236 230T234 174Q226 128 211 93T172 33T115 -3T35 -16Q2 -16 -19 -7T-40 25Q-40 51 -10 56Q9
52 23 50T49 48Q82 48 113 74T154 144L160 215Q162 234 163 248T164 274Q164 277 164 280T164 292T162 318T160 367L147 460Q131 453 84 453Q64 453 53 461T39 492Q44 503 95 525Q117 526 200 540Q203 539 212 539Q215 539 225 540T246 542T267 544T280 545Q293
545 297 541Z" />
<glyph unicode="K" horiz-adv-x="539" d="M502 68Q502 66 502 65T503 63Q503 51 492 42T466 32Q463 32 460 32T452 36T436 50T407 79Q366 122 350 147Q344 150 330 160T302 183T276 205T261 220Q255 223 246 230T228 244T210 256T194 264Q189 261 182 257T164
245V220Q164 170 154 134Q154 126 155 112T156 82T158 55T159 36Q159 5 149 -4T119 -13Q107 -13 100 -11T90 3T87 38T85 103Q86 107 87 125T90 165T92 204T94 227Q92 237 92 246Q92 249 93 257T95 276T97 298T98 319Q98 323 98 326T97 332Q99 338 100 356T103 393T105
429T106 448Q107 461 107 481T111 521T124 553T151 567Q165 567 175 558T186 538Q173 485 172 433Q174 423 174 411Q174 394 172 373T166 324Q173 330 191 344T232 376T283 412T338 444Q356 453 377 463T424 485H427Q437 485 448 474T460 449Q460 439 450 431T423
415T386 398T344 378Q324 365 301 348T252 307L282 287Q304 269 321 248Q345 232 378 208T456 133Q498 91 502 68Z" />
<glyph unicode="L" horiz-adv-x="447" d="M375 99Q397 95 397 66Q397 47 391 41T371 34Q367 34 352 35T320 38T286 41T261 43Q254 43 249 43T238 42Q114 48 98 67Q93 81 91 99T89 140Q89 174 93 215T98 287Q98 295 98 301T96 312Q103 354 106 381T110 423V434Q110
443 111 461T116 496T131 527T159 541Q193 541 193 501Q189 488 185 466T176 409Q178 403 178 393Q178 387 176 370T172 334T168 297T166 274Q166 266 168 260Q163 214 161 187T158 149Q158 126 162 115Q216 106 244 106Q255 106 265 107T286 109Q306 109 328 107T375
99Z" />
<glyph unicode="M" horiz-adv-x="712" d="M633 10Q628 -10 599 -10Q580 -10 573 3Q567 35 563 71T556 149Q556 164 555 180T550 219T543 278T535 369L499 318Q484 297 467 280T433 245Q417 215 368 172Q366 172 366 172T363 171Q340 171 324 185T291 227T250 297T188
395Q188 394 186 381T181 348T175 305T169 258T163 216T159 187V171Q160 156 158 136T154 91L144 -12Q142 -32 112 -32Q91 -32 85 -23T79 12Q79 41 80 58T82 84T84 97T87 105T89 115T91 136Q92 168 92 180T93 200T96 216T102 252Q105 269 106 281T107 300V307Q108
327 110 347T115 391T122 443T135 508Q145 518 170 518Q183 518 190 514Q208 489 225 465T261 411T303 343T352 253L387 287Q414 314 422 332Q424 334 440 356T488 421L531 476Q538 480 547 480Q568 480 585 465Q603 391 603 353V343Q603 338 605 319T610 276T616
232T621 204Q621 176 624 144T632 74Q634 62 635 52T636 33Q636 19 633 10Z" />
<glyph unicode="N" horiz-adv-x="607" d="M516 220V206Q516 177 513 113Q513 109 513 106T514 99Q514 90 512 78T506 54T496 35T480 27Q462 27 448 41Q448 57 368 152L347 192Q341 203 332 214T314 237Q309 241 299 256T278 288T259 319T250 333Q226 357 177 429Q177
405 176 385T172 339T166 277T158 185V180Q158 172 155 155T147 121T138 90T134 74Q124 49 98 49Q74 49 70 79L92 216Q94 255 104 340Q106 349 107 372T111 422T117 472T124 507Q142 529 174 529Q187 524 210 490L243 440Q257 423 281 394T337 323Q373 275 398
235T443 162Q446 171 448 194T450 250Q450 264 450 274T448 289Q449 290 449 297Q449 300 448 312T444 340T440 368T438 386Q438 392 440 398Q438 424 435 455T427 525Q434 564 460 564Q484 564 496 539Q497 509 500 480T506 414T512 331T516 220Z" />
<glyph unicode="O" horiz-adv-x="567" d="M507 192Q494 142 434 76Q425 72 413 63T381 45T334 29T267 22Q192 22 140 62T61 188Q60 195 60 202T60 217Q60 283 73 331T109 414T160 472T218 509Q271 523 318 523Q354 523 388 505T448 453T490 371T509 264L507 192ZM438
190Q442 215 443 232T445 261Q445 303 433 340T404 404T367 448T330 464Q268 464 223 436T159 358Q130 277 130 226Q130 199 139 174T165 129T206 97T259 85Q302 85 331 93T381 115T415 148T438 190Z" />
<glyph unicode="P" horiz-adv-x="482" d="M436 346Q434 329 432 316T423 292T405 267T374 237Q356 220 341 212T309 199T272 188T223 171Q207 165 194 162T170 159H165Q165 127 166 106T169 69T172 39T174 6Q174 -3 174 -14T172 -34T162 -50T141 -56Q126 -56 119
-49T109 -31T106 -4T104 29V28Q103 41 102 60Q101 77 100 101T97 158V163Q97 168 96 178T95 200T93 221T92 236V234Q91 234 93 262T95 349Q95 368 94 383T90 411Q90 413 90 416T91 424Q91 430 91 437T90 454Q90 471 94 480T107 494T128 500T155 501H165Q218 515
253 515Q261 515 280 512T332 504Q359 492 378 481T410 454T429 412T436 346ZM364 328Q366 338 366 347T366 364Q366 401 350 419T288 451Q268 456 251 456Q253 456 239 455T208 450T175 441T160 426Q160 392 162 362T165 317Q164 315 164 225H172Q190 225 211
231T254 246Q342 266 364 328Z" />
<glyph unicode="Q" horiz-adv-x="587" d="M547 33Q546 14 535 0T512 -14Q496 -10 455 24L411 59Q398 50 380 39T338 14Q293 1 246 1Q217 1 197 6T161 23T129 54T93 100Q59 146 59 229Q59 270 67 309T88 382T118 444T156 492Q169 505 187 516T230 539Q283 553 331
553Q353 553 374 550Q407 536 434 509T480 445T511 365T522 277Q522 266 514 241T496 190T475 142T459 115Q467 107 478 97T504 74L547 33ZM452 264Q454 270 454 277T454 291Q454 326 444 362T419 427T383 475T341 494Q300 494 262 479T195 432T148 355T130 246Q130
158 160 118Q165 147 176 164T202 192T234 205T269 208Q315 208 348 192L409 153Q438 195 452 264ZM363 97Q351 112 316 135Q280 146 265 146Q258 146 250 144T235 134T224 116T219 87Q219 71 236 66T272 61Q292 61 314 66T363 97Z" />
<glyph unicode="R" horiz-adv-x="513" d="M474 24Q474 12 463 3T441 -7Q438 -7 436 -8T428 -6T412 10T382 51L330 126Q328 132 319 146T300 176T280 207T269 228Q265 228 253 227T227 224T200 221T180 219Q175 219 171 219T163 220Q159 165 157 138T155 113Q156
105 156 97T156 79Q156 53 154 26T146 -30Q138 -42 122 -42Q107 -42 96 -34T84 -5Q84 2 84 14T86 39T87 61T88 75V81Q89 89 91 145T98 316Q98 323 100 338T106 370T111 405T113 434Q113 441 113 447T111 461Q111 461 111 469T112 490T117 516T125 538Q131 540 137
541T151 542Q169 542 193 534Q214 536 230 536T259 536Q269 536 277 536T293 534T312 531T336 524L380 496Q415 470 428 442T441 369Q439 352 438 341T431 321T415 302T386 277Q370 263 358 256T336 245Q337 240 346 225T367 193T387 160T398 138Q415 131 444 81L474
24ZM371 358Q372 365 372 370T373 380Q373 386 371 397T359 420T334 447T289 473Q266 482 249 482Q243 482 235 481T217 477L182 471Q182 451 182 443T180 419T175 375T168 285Q180 281 198 281Q222 281 250 287T303 304T346 329T371 358Z" />
<glyph unicode="S" horiz-adv-x="513" d="M433 196Q432 166 431 149T429 120T424 101T414 79Q393 33 349 8T237 -17Q193 -17 167 -9T112 12L70 32Q47 43 34 55T20 81Q20 113 51 117Q75 109 91 104T117 93T135 81T150 68Q197 49 251 49Q259 49 271 52T297 59T321
70T338 83Q345 97 349 120T354 173Q354 200 338 219T298 251T248 273T200 291Q167 304 130 330Q88 397 88 429Q88 500 176 566Q264 596 290 596Q299 596 315 589T348 572T377 548T389 523Q389 495 355 495Q353 495 343 501T319 515T293 529T270 535Q249 535 230
525T195 500T171 468T162 435Q162 409 177 387T212 354Q216 352 232 347T270 332T318 310T367 281T408 243T433 196Z" />
<glyph unicode="T" horiz-adv-x="487" d="M448 437Q440 433 426 433Q421 433 408 434T381 438T356 441T344 443Q314 443 268 431L283 318Q288 271 290 236T293 177Q293 169 293 162T292 150Q293 136 293 123T293 99Q293 62 290 41T282 10T268 -3T248 -6Q233 -6
227 3T218 26T216 54T217 77Q217 97 220 113T223 143Q223 146 222 161T219 200T216 255T215 323Q212 375 196 421Q176 420 156 419T118 415T87 410T66 404Q30 404 30 435Q30 448 41 464L205 494L258 500Q282 503 305 503Q314 503 314 503T321 504T356 502T443 496Q457
488 457 467Q457 450 448 437Z" />
<glyph unicode="U" horiz-adv-x="578" d="M485 333Q481 277 476 236T462 162T437 106T397 59Q379 43 364 34T334 21T306 17T281 16Q250 16 227 22T185 45T150 87T117 152Q107 190 102 221T93 281T90 334T89 386Q89 401 88 421T89 461T100 494T128 508Q157 508
166 477Q164 464 163 443T162 391Q162 343 163 309T166 269Q167 253 171 231T182 187T195 148T205 126Q224 97 283 84Q352 100 380 146T408 279Q408 307 410 332T414 379L411 448V462Q411 494 416 509T449 525Q463 525 471 518T482 501T487 477T488 451Q488 445
487 433T486 408T484 383T483 364Q483 356 483 348T485 333Z" />
<glyph unicode="V" horiz-adv-x="543" d="M503 521Q502 500 497 470T483 407T466 346T448 299Q440 282 425 255T390 189L332 90Q301 39 280 24Q257 26 248 29T233 40Q190 92 168 161Q138 201 122 239T90 318Q44 420 40 474Q40 486 50 497T77 509Q91 509 103 485T127
429T146 366T161 321Q168 305 180 281T209 224Q218 201 231 174T264 116Q274 124 288 145T317 195T349 257T379 322T403 381T418 424Q424 449 430 477T447 537Q455 541 467 541Q492 541 503 521Z" />
<glyph unicode="W" horiz-adv-x="753" d="M731 501Q730 489 727 469T718 428T707 386T696 356Q690 330 676 295T643 223T603 149T562 84Q552 61 536 50T505 29Q502 31 493 48T472 89T449 136T431 177Q410 196 389 245L359 315Q358 312 354 300T345 269T333 230T320
189T308 155T300 133Q283 98 273 78T255 46T240 30T223 18Q212 24 198 43T171 87T149 134T139 171L73 337Q72 350 69 364T61 393T54 422T50 450Q50 472 60 482T84 493Q106 493 125 471V464Q125 455 127 432T133 386T139 347T142 334Q153 307 165 277T189 211Q196
181 222 124Q224 125 230 139T243 171T256 203T264 220Q266 232 271 249T283 282T294 310T300 326Q306 371 319 398Q318 401 318 408Q318 434 355 434Q367 434 374 424T387 401T397 374T405 352L431 296Q442 272 451 257T468 233Q476 214 489 190T519 136Q529 147
542 166T570 217T602 295T636 404Q662 498 675 520Q679 521 682 521T691 522Q719 522 731 501Z" />
<glyph unicode="X" horiz-adv-x="554" d="M503 37Q503 35 503 33T504 28Q504 11 495 0T472 -12Q462 -12 452 -3T432 21T409 55T382 96Q362 118 335 147T275 214Q227 143 192 113L135 37Q125 20 113 2T87 -39Q78 -43 64 -43Q40 -43 30 -34T20 -5Q22 1 32 16T52
48T72 76T82 90Q97 108 116 129T154 174T192 220T225 265Q214 274 204 284T179 308T145 339T98 379Q73 399 63 418Q76 458 104 458Q107 458 113 456L182 396Q184 392 191 385T207 370T224 355T235 341Q251 336 271 313Q282 327 294 341T321 369L371 428Q397 457
418 477T448 498Q460 498 472 488T484 466Q484 463 480 456T466 436T439 404T395 356Q393 355 381 341T356 311T330 281T317 266L377 199Q386 186 397 174T425 144T460 102T503 37Z" />
<glyph unicode="Y" horiz-adv-x="489" d="M479 499Q472 482 467 474T454 455T431 431T389 387Q368 365 354 350T327 323T299 298T264 267Q264 251 263 228T262 175Q262 167 263 155T265 129T268 104T269 86V80Q270 60 271 38T274 -8Q270 -27 243 -27Q229 -27 221
-18T209 6T204 42T202 84Q202 92 202 99T204 111Q198 192 198 235V251Q181 268 157 295T98 361Q93 373 82 388T60 417T39 443T30 461Q30 472 40 484T65 497Q84 497 102 471T147 402Q150 400 161 388T186 363T212 337T229 324Q232 325 243 334T267 354T293 375T310
388Q313 390 318 398T331 416T346 437T364 454L400 506Q421 536 440 546Q444 544 450 539T463 528T474 515T479 501V499Z" />
<glyph unicode="Z" horiz-adv-x="511" d="M439 32Q437 31 428 31Q425 31 407 33T364 37T317 41T284 43H266Q256 43 239 44T202 46T158 50T113 55Q102 55 91 58T69 68T51 82T40 99Q42 105 56 123T87 164T121 206T144 236Q171 264 193 290T236 341T279 393T328 450L264
454H253Q227 454 186 450T105 443Q86 450 86 478Q86 487 91 494T114 507T164 516T250 520Q284 520 322 516T405 500Q413 489 413 468Q413 445 399 437Q384 419 374 407T354 384T333 359T305 326T264 276T204 200Q198 189 189 178T167 152L140 120Q227 105 265 105H282Q292
105 313 104T355 102T395 99T417 98Q431 98 437 100Q461 95 461 70Q461 39 439 32Z" />
<glyph unicode="[" horiz-adv-x="520" d="M393 -70Q393 -87 385 -95T364 -105T339 -108T315 -107Q307 -107 301 -107T287 -107T270 -105T248 -100Q242 -99 238 -99T231 -98H229Q218 -96 207 -94T183 -87Q170 -68 170 -16Q170 1 171 18T173 64Q173 135 171 182T168
241Q168 277 168 314T167 389Q167 439 167 468T167 511T166 530T167 537T169 543T172 560Q179 608 196 628Q216 630 240 632T287 637T331 641T363 643Q386 643 386 615Q386 583 362 582H342Q257 582 244 571Q242 549 238 499T233 372Q233 332 236 259V235Q236 206
237 171T240 92V59Q240 -17 246 -33L298 -38Q305 -41 323 -41Q331 -41 339 -41T355 -40Q373 -40 383 -45T393 -70Z" />
<glyph unicode="\" horiz-adv-x="459" d="M419 -55Q414 -81 389 -81Q379 -81 370 -72T352 -47T336 -15T324 18Q307 49 296 70T276 108T263 137T253 164Q247 168 241 181T224 217L188 299Q145 387 100 472Q73 515 40 586Q41 598 51 608T74 619Q87 619 101 603T127
564L154 508Q174 473 185 455T197 435Q207 415 211 403T215 379Q219 375 227 360T245 326T261 293T271 275Q279 249 294 215T335 139Q413 8 419 -55Z" />
<glyph unicode="]" horiz-adv-x="520" d="M353 155Q353 105 353 76T353 33T353 14T353 7T351 1T348 -16Q341 -64 324 -84Q305 -86 281 -89T233 -94T189 -97T157 -99Q134 -99 134 -71Q134 -40 158 -38H178Q263 -38 276 -27Q278 -5 282 45T286 172Q286 192 286 220T284
285V317Q284 346 283 379T280 452V485Q280 560 274 577L222 582Q212 584 197 584Q189 584 181 584T164 583Q146 583 137 588T127 614Q127 631 135 639T156 649T181 652T205 651Q221 651 233 650T272 644Q284 641 288 641Q290 641 290 641T291 642Q302 640 313 638T337
631Q349 613 349 560Q349 543 348 526T347 479Q347 409 349 362T352 303Q352 267 353 230T353 155Z" />
<glyph unicode="^" horiz-adv-x="584" d="M462 503Q463 500 463 493Q463 479 452 470T426 461Q417 461 413 462T406 468T399 481T383 502Q366 520 359 528T348 541T338 552T321 573L288 613Q277 602 267 591T243 563T212 524T169 465Q165 461 157 461Q154 461
148 462T136 467T125 476T120 488Q120 503 134 523L165 564Q176 576 192 594T229 636L266 683Q274 687 285 687Q297 687 307 679T329 659T352 631T378 601Q395 583 406 572T425 550T442 529T462 503Z" />
<glyph unicode="_" horiz-adv-x="320" d="M347 -164Q336 -167 319 -167Q313 -167 299 -166T268 -164T238 -162T219 -161Q219 -162 198 -161T132 -159Q100 -159 94 -165L-4 -171Q-40 -168 -40 -140Q-40 -121 -19 -104Q-6 -101 83 -98Q88 -98 94 -98T109 -99Q149
-99 217 -96L342 -104Q360 -113 360 -134Q360 -151 347 -164Z" />
<glyph unicode="a" horiz-adv-x="466" d="M432 100Q446 91 446 78Q446 64 432 51T405 38Q374 49 352 79T321 144Q314 129 305 107T280 64T243 30T188 15Q171 15 143 21Q112 43 95 56T68 82T57 109T55 149Q55 170 61 195T80 247T110 298T152 344Q196 359 221 366T255
373Q275 396 297 396Q309 396 318 382T334 346T346 296T354 244Q357 239 359 233T363 216L369 188Q375 159 392 138T432 100ZM291 232Q289 241 284 262T271 316Q259 313 245 313T215 308T181 286T143 236Q119 192 119 143Q125 130 130 121T142 104T161 89T189 74Q204
77 214 81T233 93T248 115T265 149Q291 207 291 232Z" />
<glyph unicode="b" horiz-adv-x="463" d="M384 282Q408 235 408 197Q407 183 405 169T396 140L374 93L343 60Q309 28 279 18T229 7Q203 7 172 26Q163 10 143 10Q128 10 112 19Q113 33 113 50T114 89Q113 91 112 104T110 137T106 177T102 217T98 249T95 265L81
384Q76 427 68 458T60 503Q60 540 92 540Q112 540 123 525T140 465Q142 442 145 427T150 402V399Q150 396 151 378T154 341T157 306T159 292Q181 308 197 317T229 331T261 337T299 339L339 326Q369 311 384 282ZM336 162Q342 192 342 206Q342 213 338 225T326 249T306
269T278 278Q260 278 231 263T172 230Q177 186 181 106Q193 68 221 68Q238 68 271 82L311 117Q332 139 336 162Z" />
<glyph unicode="c" horiz-adv-x="427" d="M389 93Q369 52 330 31T231 9Q218 9 189 14T130 35T78 81T55 161Q55 205 68 245T113 323Q134 347 150 362T181 386T215 397T261 400Q291 400 308 397T334 388T345 375T348 358Q348 324 308 324Q309 324 303 325T288 329T269
333T251 335Q222 335 188 308T133 222Q127 205 125 192T122 169Q122 137 139 118T179 88T222 74T247 70Q264 70 280 79T310 98T331 118T340 127Q348 134 358 134Q371 134 380 122T389 98V93Z" />
<glyph unicode="d" horiz-adv-x="477" d="M397 499Q395 494 394 483T393 455Q393 412 394 386T395 354L392 337Q395 329 395 318Q395 315 394 307T392 288T390 266T389 248Q389 246 389 244T390 240Q385 217 379 160T366 31Q358 7 329 7Q311 7 307 12T297 32Q266
12 203 12Q169 12 142 24T96 56T66 103T55 163Q55 182 59 200T71 234T86 263T103 284Q123 305 161 323T243 341Q283 341 322 322V338Q322 359 323 382T327 432L323 500Q323 507 323 513T322 525Q322 551 328 564T356 578Q369 578 376 574T387 561T392 536T397 499ZM316
253Q291 277 240 277Q216 277 200 273T171 260T151 236T133 200Q126 182 126 161Q126 121 155 98T225 74Q263 74 297 102Q302 121 308 148T315 203Q315 209 315 216T314 230Q314 238 314 243T316 253Z" />
<glyph unicode="e" horiz-adv-x="478" d="M417 40Q385 8 342 -15T254 -38Q235 -38 167 -24Q149 -12 129 6T93 47T66 97T55 153V152Q56 161 57 173Q58 184 59 198T62 233Q82 265 103 296T167 351Q231 366 263 366Q278 366 289 365T311 358T332 343T358 319Q369
307 375 302T384 293T387 288T387 282Q387 246 380 224T352 188T295 164T202 140H196Q178 140 132 132Q168 26 247 26Q303 26 374 83Q381 89 392 89Q423 89 423 59Q423 49 417 40ZM321 264Q294 309 260 309Q245 309 228 305T196 294T167 277T144 254Q140 246 137
231T128 195Q155 200 187 202T249 210T299 228T321 264Z" />
<glyph unicode="f" horiz-adv-x="352" d="M305 327L250 323Q243 323 226 320T195 316Q196 298 198 271T203 216T209 164T214 127Q213 122 213 114T212 95Q212 66 215 18Q201 -3 176 -3Q153 -3 144 18Q144 27 144 38T145 64Q145 78 145 95T144 133V139Q144 153
141 173T133 219L126 310Q118 310 105 308T71 302Q68 302 66 302T60 303Q51 303 44 302T38 301Q15 306 15 333Q15 357 37 361Q38 361 39 361T43 360Q48 360 55 361T70 363T81 366T85 367Q92 369 101 370T123 372L115 472V478Q115 517 149 573Q159 579 168 584T191
593T223 602T272 610H277Q303 610 303 579Q303 555 280 547H274Q259 547 243 541L215 529Q198 521 193 508T185 479Q185 478 185 471T186 454T186 435T187 422V414Q187 406 188 397T192 377Q227 377 245 382T277 387Q292 387 306 382T321 356Q321 333 305 327Z"
/>
<glyph unicode="g" horiz-adv-x="504" d="M424 341Q427 327 427 306Q427 271 418 214Q419 210 419 198Q419 187 418 172T414 137Q415 132 415 127T415 114Q415 90 412 54T404 -30Q390 -143 311 -197Q252 -218 189 -218Q162 -218 127 -207L74 -186L25 -147Q11 -136
5 -130T-1 -116Q-1 -99 8 -88T32 -77Q43 -77 54 -83L111 -129Q150 -154 203 -156Q211 -156 241 -148L277 -139Q298 -127 316 -98T338 -35V-30Q337 -23 339 -11T343 21L350 90Q348 89 336 81T300 62T244 44T170 36Q159 36 143 47T95 86L71 130Q62 146 59 163T55
198Q55 224 77 251T131 300T200 336T270 350Q284 350 310 348T359 330Q359 333 360 338T365 348T374 356T392 360Q420 360 424 341ZM352 263Q339 275 321 279T287 288Q259 285 207 271Q128 226 128 184Q128 177 133 166T147 142T166 118T188 101Q229 101 288 125Q316
130 347 175Q349 195 350 214T352 250V263Z" />
<glyph unicode="h" horiz-adv-x="487" d="M407 32Q403 21 392 11T369 1Q356 1 349 11T339 38T335 76T334 118Q330 128 330 144Q330 151 330 159T331 174Q331 209 325 230T310 264T289 280T268 284Q250 284 232 277T198 261T172 243T158 228Q155 217 154 197T151
149T149 91T147 26Q144 7 116 7Q93 7 86 23T79 80Q79 90 79 94T81 108T85 139T90 208Q91 230 92 247T92 277Q92 288 92 295T91 307Q92 308 93 324T96 361T100 399T105 425Q105 430 105 434T104 443Q104 459 105 482T112 527T127 563T155 578Q184 578 185 547Q183
518 178 480T165 380Q160 365 160 325V307Q162 308 169 313T185 324T206 336T227 344Q250 348 275 348Q323 348 351 321T393 229Q394 205 395 190T398 157T402 110T407 32Z" />
<glyph unicode="i" horiz-adv-x="279" d="M199 456Q199 439 194 429T179 413T160 407T139 405Q125 415 116 427T106 452Q106 461 114 472T128 495L174 491Q199 485 199 456ZM165 311V307Q165 298 163 278T155 224Q156 219 156 210Q156 204 152 183T148 147Q148
144 148 141T149 136Q146 122 146 96Q146 85 146 73T148 46Q140 17 117 17Q97 17 90 38T82 95Q82 130 84 159T91 213T99 262T108 309Q118 324 136 324Q155 324 165 311Z" />
<glyph unicode="j" horiz-adv-x="276" d="M161 406Q146 386 113 380Q101 385 87 396T72 427Q72 444 83 459T110 474Q114 474 122 472T139 466T153 460T161 457L165 430V424Q165 414 161 406ZM186 116V105Q186 63 177 -36Q140 -205 4 -205Q-7 -205 -20 -204T-44
-199T-62 -189T-70 -171Q-70 -157 -61 -147T-39 -136Q-31 -136 -23 -138T-3 -141Q26 -141 50 -132T86 -91Q91 -75 96 -64T106 -45Q112 -13 115 9T120 46T122 70T123 85Q123 96 122 110T120 136T118 157T117 166Q105 218 102 262Q109 293 133 293Q157 293 170 274Q174
249 177 210T186 116Z" />
<glyph unicode="k" horiz-adv-x="428" d="M386 74Q387 71 387 63Q387 29 356 29Q344 29 332 42T306 76T273 121T228 169Q205 184 174 208L150 196Q150 190 149 180T147 160T144 139T143 122Q143 111 143 110T143 110T143 112Q143 112 144 103T146 72T149 6Q149
-18 114 -18Q91 -18 85 6T79 82Q79 124 82 157T85 215V244Q85 250 86 262T90 289T93 318T95 342V354Q95 357 98 381T106 439T120 506T138 560Q142 570 160 570Q193 570 193 545Q193 536 190 519T180 478Q173 443 170 418T167 378Q165 367 162 339T153 266Q164 273
177 284T210 311T257 344T325 382H330Q341 382 352 373T363 351Q363 343 360 338T347 326T319 310T272 283Q271 281 264 276T248 264T232 254T223 248Q235 243 241 239T257 225T285 196T342 140Q351 128 362 112T386 74Z" />
<glyph unicode="l" horiz-adv-x="272" d="M192 533Q191 522 188 506T181 474T174 442T168 418Q169 413 169 409T169 400Q169 392 167 379T162 352T157 326T155 306Q155 296 155 277T156 236T154 189T147 146Q148 134 148 122T150 97T159 67T181 33Q178 22 163
13T131 3Q110 3 97 26T83 113Q83 124 84 132T86 153Q86 178 80 213Q84 223 86 241T90 276T91 306T92 318Q92 319 94 334T100 370T105 412T108 447V455Q111 473 115 495T124 543Q133 558 154 558Q180 558 192 533Z" />
<glyph unicode="m" horiz-adv-x="729" d="M649 50Q649 29 617 29Q602 29 595 42T584 75T581 119T579 167Q574 185 567 229Q554 247 535 258T491 270Q482 270 471 268T448 262T425 253T407 242Q387 226 373 165Q374 160 374 146Q374 134 373 118T369 80V73Q369
70 369 56T367 27T356 -1T332 -14Q299 -14 299 11Q299 14 300 27T304 58T308 92T310 121Q310 142 307 159V178Q307 196 305 216T296 253T280 284T253 303Q251 304 220 307Q194 301 176 274L152 227Q149 208 148 193T145 165L142 119Q148 84 148 61Q148 41 143 29T116
16Q105 16 98 18T87 33T80 69T78 136Q78 170 82 203T95 288Q92 318 80 346Q80 359 89 369T115 379Q128 379 136 370T160 335Q180 355 194 364T225 375Q241 375 250 375T268 372T287 363T315 344Q333 331 352 271Q357 278 367 289T394 310T433 327T486 334Q518 334
541 328T581 310T610 280T634 238V230Q634 221 636 199T640 156T644 118T646 104Q646 103 646 98T647 85T648 69T649 56V50Z" />
<glyph unicode="n" horiz-adv-x="474" d="M394 106V98Q394 93 394 79T392 49T382 22T358 10Q329 10 323 33Q324 41 324 50T325 71Q325 90 324 114T320 167L312 215Q308 239 299 252T279 272T257 280T237 282Q207 282 186 265T151 196Q150 179 149 159T143 115Q145
79 149 23Q149 -8 114 -8Q100 -8 93 0T82 20T77 47T76 73Q76 84 77 95T80 118L89 221Q90 232 92 245T99 274Q96 296 81 326V330Q81 341 91 351T116 361Q130 361 139 352T162 320Q170 327 188 333T231 340Q285 340 324 317T374 235Q377 212 379 198T383 171T388
144T394 106Z" />
<glyph unicode="o" horiz-adv-x="422" d="M325 23Q306 10 224 -7L182 1Q174 4 154 16T112 51T74 109T57 192Q57 231 79 261T146 327Q170 333 193 333Q260 333 316 288Q364 222 364 143Q364 81 325 23ZM234 267Q219 274 202 274Q190 274 177 268T152 250T133 220T126
176Q126 156 131 136T148 99T178 72T221 61Q244 61 273 73Q298 104 298 147Q298 242 234 267Z" />
<glyph unicode="p" horiz-adv-x="465" d="M410 213V207Q409 192 407 177T397 148L376 106Q368 95 351 83T315 61T276 43T243 36H233Q229 36 221 35T202 31T183 27T167 25Q159 25 156 26L153 -42Q152 -48 153 -59T154 -90T152 -139T143 -209Q132 -217 117 -217Q102
-217 95 -209T85 -190T82 -168T82 -149Q82 -139 83 -131T84 -115T86 -97T87 -75Q87 -64 87 -53T86 -28Q86 0 87 21T91 58Q86 78 86 114Q86 143 87 166T93 204Q86 239 83 263T80 302Q80 319 88 327T117 336Q129 336 135 332T151 307Q200 337 266 337Q331 337 369
311T410 213ZM342 217Q342 268 285 276Q282 276 279 276T272 275Q264 275 255 275T234 277Q195 272 157 239Q158 226 158 211T159 178Q157 157 156 141T154 114Q154 97 156 92T167 87Q170 87 178 88T197 92T216 95T229 97Q264 99 286 113T320 146T337 185T342 217Z"
/>
<glyph unicode="q" horiz-adv-x="468" d="M388 -171Q381 -190 358 -190Q345 -190 337 -182Q326 -145 314 -42Q314 -30 314 -16T315 13Q315 28 315 44T314 80Q277 48 247 38T188 27Q159 27 135 38T88 73L68 115Q61 129 58 145T55 176Q55 196 62 218T80 261T107
296T140 319Q163 328 185 333T228 338Q257 338 279 334T315 325Q325 341 349 341Q370 341 375 329T380 294Q380 283 379 271T376 244Q379 220 379 195Q379 157 372 123Q376 101 378 40Q375 29 375 14Q375 5 375 -6T377 -28T378 -47T379 -60V-68Q380 -73 382 -83T385
-105T388 -130T389 -153Q389 -166 388 -171ZM315 212Q315 216 315 221T316 233Q316 238 317 244T316 256T308 266T287 272L252 278Q244 280 238 280T223 280Q175 280 149 251T122 174Q122 129 144 106T203 81Q252 95 284 122T316 190Q316 195 316 200T315 212Z"
/>
<glyph unicode="r" horiz-adv-x="382" d="M343 340Q355 332 355 312Q355 273 323 273Q308 273 293 280T264 287Q248 287 234 281T201 257L164 221V200Q164 185 164 167T162 127Q163 90 171 27Q168 -9 135 -9Q117 -9 110 0T99 26T96 62T94 103Q95 108 95 115T95
130V146L89 219Q88 224 88 228T88 236Q88 244 90 254Q80 290 80 307Q80 321 88 327T117 334Q131 334 139 325T159 301L203 333Q220 346 234 350T263 354Q284 354 307 349L343 340Z" />
<glyph unicode="s" horiz-adv-x="394" d="M334 109Q331 80 313 54L277 3Q268 -5 249 -10T211 -19T176 -25T159 -27Q149 -27 134 -24T103 -16T77 -9T65 -5H64Q53 -4 41 0T17 10T-2 23T-10 40Q-10 51 1 62T23 74Q124 34 184 34Q206 34 221 43T245 62L266 100Q266
113 259 126T239 149T210 168T177 179Q158 182 139 190T103 209T76 233T64 263Q63 263 62 301Q64 316 66 325T75 341T96 358T138 384Q146 385 167 386T226 392Q242 392 308 368Q318 359 318 341Q318 310 297 310Q296 310 295 310T292 311L256 323Q229 331 210 331Q182
331 166 328T141 321T130 311T126 302Q126 299 126 297T125 291Q125 252 157 243Q315 211 334 109Z" />
<glyph unicode="t" horiz-adv-x="347" d="M319 369Q327 363 327 346Q327 316 302 316H298Q298 316 284 315T251 311T217 307T197 302V292Q197 281 195 263T193 229Q193 224 193 219T195 209Q191 197 191 169Q192 131 193 113T199 85T216 71T251 56Q275 48 275
28Q275 15 266 6T241 -3Q234 -3 220 0T192 8T165 21T149 38Q137 64 130 88T123 140Q123 168 124 182T126 204T128 218T129 237Q129 245 129 253T128 270Q128 281 128 288T130 301Q103 299 50 285Q34 285 22 293T10 316Q10 320 13 327T23 340T44 351T78 356H84Q106
356 135 365Q135 366 135 373T136 390T137 409T138 422V427Q139 438 142 458T151 499T166 535T190 550Q217 550 223 526Q223 524 221 512T215 485T209 456T206 438Q206 436 205 427T204 407T202 385T201 369Q199 369 228 372Q233 372 237 372T246 373Q249 373 251
373T255 372Q264 373 272 373T287 374Q309 374 319 369Z" />
<glyph unicode="u" horiz-adv-x="489" d="M409 366Q410 355 410 345T411 324Q411 300 409 284T404 247T397 197T388 118Q388 115 388 113T387 107Q387 91 390 72L394 35Q394 9 361 9Q347 9 340 16T330 34T327 56T327 76Q327 86 328 91Q304 67 286 54T252 34T222
27T191 26Q137 26 109 56T80 145Q80 152 80 161T81 182Q80 186 80 195Q80 208 81 219T85 247T95 288T113 352Q124 363 138 363Q151 363 160 356T169 335Q169 330 166 314T158 279T151 242T147 213V208Q145 194 144 182T142 162Q142 131 154 109T202 86Q225 86 245
96T281 120T309 152T327 185Q329 204 334 230T347 292Q346 298 346 304T346 315Q346 327 347 339T352 361T363 377T382 384Q404 384 409 366Z" />
<glyph unicode="v" horiz-adv-x="452" d="M412 350Q411 342 406 330T391 297T367 248T334 178Q305 100 280 71Q276 60 268 48T249 24T225 6T197 -1Q161 -1 144 49Q131 63 121 83T102 122T89 155T82 172Q71 200 71 231V239Q60 273 55 297T50 338Q60 357 88 357Q98
357 104 352T113 338T119 314T126 281Q134 240 143 211T163 159T183 118T206 80Q220 95 229 106T243 127T253 147T260 171Q270 187 274 200T287 234T310 287T356 373Q363 383 376 383Q391 383 401 373T412 350Z" />
<glyph unicode="w" horiz-adv-x="648" d="M620 364Q619 358 615 343T606 310T596 277T590 252Q582 232 574 210T555 162Q555 159 548 142T532 102T513 60T498 31Q471 0 439 -8Q410 8 376 85Q370 99 358 132T329 220Q307 176 287 140T248 78T214 37T186 21Q173
29 156 52L126 92Q122 101 116 118T102 153T89 188T78 212Q75 219 70 235T61 270T53 305T50 330Q50 345 58 353T80 361Q105 361 116 344L125 295Q131 263 141 244Q169 143 193 113Q196 116 203 128T217 153T231 179T240 193Q252 203 267 235L285 273Q317 323 349
331Q351 329 356 318T366 294T376 269T385 254Q397 226 408 183T449 75Q465 100 471 117T482 149T491 184T507 233Q518 263 522 276T530 301T537 327T553 376Q568 398 586 398Q610 398 620 364Z" />
<glyph unicode="x" horiz-adv-x="468" d="M417 64Q420 58 420 52Q420 37 410 25T389 12Q378 12 339 48Q324 71 313 82T292 104T269 126T238 164L188 102Q174 79 165 64T148 36T132 11T112 -19Q105 -26 92 -26Q78 -26 68 -19T57 1Q57 6 61 14T72 32T84 52T93 71Q103
87 112 99T132 126T158 160T194 209Q183 216 176 222T159 238T134 259T92 290Q72 304 64 312T55 333Q55 367 87 367Q96 367 103 363L156 322Q160 316 172 306T198 285T222 268T234 259Q247 269 256 279T272 298T282 311T285 315Q305 344 317 356T341 369Q373 369
373 341Q373 326 351 298L308 244L280 214Q300 187 349 138L417 64Z" />
<glyph unicode="y" horiz-adv-x="473" d="M423 305Q422 285 418 270T407 238T390 204T369 158Q363 119 347 86T311 23T272 -35T243 -94Q227 -116 218 -132T201 -164T182 -194T150 -231Q144 -233 138 -233Q125 -233 114 -226T102 -207Q102 -201 106 -196L171 -99Q174
-90 183 -73T203 -36T224 3T237 35Q230 39 220 48T199 68T178 88T158 102Q140 127 130 136T108 156T83 185T41 250Q40 252 40 256Q40 269 49 281T73 293Q83 293 98 278T127 245T154 210T169 189Q175 183 187 169T215 140T244 112T268 95Q276 105 289 139T318 211Q329
239 342 267T358 319Q375 330 391 330Q419 330 423 305Z" />
<glyph unicode="z" horiz-adv-x="399" d="M332 -13H329Q324 -13 313 -12T288 -9T262 -6T243 -4Q228 -4 207 -2T165 2T130 7T111 9Q58 29 40 59Q44 76 75 119Q102 141 139 183Q177 214 205 242T251 297Q240 301 226 303T190 305Q188 305 176 304T149 301T119 298T93
297Q75 300 75 330Q75 342 76 348T86 357T117 364T178 372Q207 372 247 366T327 345Q330 328 330 316Q330 303 324 290T310 266T294 246T279 232Q274 224 265 214T245 193T225 176T209 166Q203 158 191 147T165 122T140 97T126 78Q143 70 174 66T238 59T296 56T326
55H332Q356 44 356 20Q356 -7 332 -13Z" />
<glyph unicode="{" horiz-adv-x="420" d="M332 585Q301 575 284 570T258 554T245 527T237 475Q234 466 234 449Q234 437 235 419T237 384Q237 343 227 319T196 270Q211 258 224 222T237 116Q237 103 236 90T235 63Q235 55 250 -12Q281 -46 325 -46Q347 -50 347
-75Q347 -105 320 -105Q294 -105 246 -83Q209 -77 192 -48T173 16L169 68Q170 73 170 96T171 160Q171 168 168 178T162 198Q158 209 153 221Q147 229 137 234T118 245T101 257T94 273Q94 281 98 286T110 295T129 305T155 320Q170 345 170 408Q170 493 172 495Q172
524 180 545L192 580Q213 603 248 620T323 637Q333 637 340 627T347 606Q347 589 332 585Z" />
<glyph unicode="|" horiz-adv-x="388" d="M230 306Q230 299 231 272T232 195Q232 163 228 156Q230 147 230 138T230 118Q230 96 228 72T224 24Q225 13 225 3T225 -17Q225 -29 225 -43T224 -70T214 -91T191 -99Q176 -99 169 -90T158 -65T155 -32T155 5Q155 38 159
82T164 167Q164 206 158 239Q159 242 160 260T162 299T165 340T168 364Q164 377 164 432Q164 448 164 472T164 523T167 575T175 620Q179 635 198 635Q221 635 227 623T233 580Q233 566 232 549T229 511Q229 507 230 463T231 356Q231 342 231 330T230 306Z" />
<glyph unicode="}" horiz-adv-x="420" d="M326 267Q326 252 310 245T265 220Q250 194 250 132Q250 47 248 45Q247 29 245 17T240 -5L228 -40Q206 -63 172 -80T97 -97Q87 -97 80 -88T73 -66Q73 -57 84 -49T110 -36T137 -27T153 -22Q162 -18 168 -7T178 21T183 55T185
90Q185 103 184 121T183 156Q183 197 193 221T224 270Q209 282 196 318T183 424Q183 436 184 449T185 477Q185 484 170 552Q139 586 95 586Q73 590 73 615Q73 645 100 645Q126 645 174 623Q210 617 227 588T247 524L251 472Q250 467 250 444T249 380Q249 372 251
361T258 341Q262 330 267 319Q272 312 282 307T301 296T318 284T326 267Z" />
<glyph unicode="~" horiz-adv-x="793" d="M672 325Q672 319 668 311T660 296T651 284T647 275Q618 246 597 228T559 199T529 186T502 182Q500 182 489 182T461 187T427 202T396 232Q367 273 346 284Q335 308 286 308Q252 308 225 283T168 207Q160 201 150 201Q120
201 120 233Q120 237 120 240T123 248T132 262T150 286Q168 308 178 320T194 337T204 345T215 352Q239 365 266 370Q303 367 326 362T365 347T398 319T438 275Q465 245 492 245Q508 245 525 253T560 276T591 309T616 346Q623 361 639 361Q653 361 662 350T672 325Z"
/>
<glyph unicode="&#x2018;" horiz-adv-x="820" d="M698 563L673 529Q658 523 644 523Q636 523 627 526T609 536T596 553T590 576Q590 591 593 607T604 642T628 682T669 728Q672 728 674 728T679 729Q696 729 698 714Q697 710 693 702T683 686T673 672T667 664Q656
644 652 619H657Q663 619 669 618T682 610T692 593T698 563Z" />
<glyph unicode="&#x2019;" horiz-adv-x="820" d="M226 659Q228 653 228 648Q228 633 225 617T214 583T190 543T149 496Q145 495 139 495Q121 495 120 510Q121 514 125 522T135 538T145 552T151 560Q161 579 166 605Q164 605 164 605T161 604Q147 604 136 613T120
661L145 695Q160 701 174 701Q209 701 226 659Z" />
<glyph unicode="&#x201c;" horiz-adv-x="820" d="M698 563L673 529Q658 523 644 523Q636 523 627 526T609 536T596 553T590 576Q590 591 593 607T604 642T628 682T669 728Q672 728 674 728T679 729Q696 729 698 714Q697 710 693 702T683 686T673 672T667 664Q656
644 652 619H657Q663 619 669 618T682 610T692 593T698 563ZM558 563L533 529Q518 523 504 523Q496 523 487 526T469 536T456 553T450 576Q450 591 453 607T464 642T488 682T529 728Q532 728 534 728T539 729Q556 729 558 714Q557 710 553 702T543 686T533 672T527
664Q516 644 512 619H517Q523 619 529 618T542 610T552 593T558 563Z" />
<glyph unicode="&#x201d;" horiz-adv-x="820" d="M366 659Q368 653 368 648Q368 633 365 617T354 583T330 543T289 496Q285 495 279 495Q261 495 260 510Q261 514 265 522T275 538T285 552T291 560Q301 579 306 605Q304 605 304 605T301 604Q287 604 276 613T260
661L285 695Q300 701 314 701Q349 701 366 659ZM226 659Q228 653 228 648Q228 633 225 617T214 583T190 543T149 496Q145 495 139 495Q121 495 120 510Q121 514 125 522T135 538T145 552T151 560Q161 579 166 605Q164 605 164 605T161 604Q147 604 136 613T120
661L145 695Q160 701 174 701Q209 701 226 659Z" />
</font>
</defs>
</svg>
