<?xml version="1.0" standalone="no"?>
<!DOCTYPE svg PUBLIC "-//W3C//DTD SVG 1.1//EN" "http://www.w3.org/Graphics/SVG/1.1/DTD/svg11.dtd">
<svg xmlns="http://www.w3.org/2000/svg">
<defs >
<font id="PoorStory" horiz-adv-x="820" ><font-face
    font-family="Poor Story"
    units-per-em="1024"
    panose-1="0 0 0 0 0 0 0 0 0 0"
    ascent="819"
    descent="-205"
    alphabetic="0" />
<glyph unicode=" " horiz-adv-x="260" />
<glyph unicode="!" horiz-adv-x="302" d="M226 17L172 -57L88 29L144 99L226 17ZM194 159H112V667H194V159Z" />
<glyph unicode="&quot;" horiz-adv-x="438" d="M298 493V701H368V497L298 493ZM90 493V697H160V493H90Z" />
<glyph unicode="#" horiz-adv-x="676" d="M40 443L44 503Q68 500 112 499T211 498L230 643L290 629L273 497Q315 497 359 497T446 498L464 675L526 667L509 499Q549 499 585 500T650 503V441Q621 438 583 437T502 434L482 233Q530 233 573 234T650 237V173Q617
171 572 169T475 167L452 -55L390 -47L412 166Q380 165 347 165T281 164Q267 164 255 164T229 165L200 -53L142 -57V-41L169 167Q129 167 96 169T40 175L44 237Q64 235 98 234T177 233L203 433Q152 433 110 435T40 443ZM439 433Q417 431 395 431T351 431Q328 431
307 431T264 432L238 233Q259 232 281 232T326 232Q349 232 372 232T419 233L439 433Z" />
<glyph unicode="$" horiz-adv-x="582" d="M554 589L516 539Q506 555 491 567T456 586T417 598T377 602Q358 602 340 599V299Q371 288 400 281T466 255Q499 235 515 206T531 144Q531 109 511 76T448 27Q432 21 410 21T364 19H340V-143L280 -147V22Q272 22 266 23T253
24L232 27Q181 31 129 49T34 91L56 149Q102 129 153 112T246 87L261 84Q265 83 269 83T280 82Q279 121 279 162T279 246Q241 261 211 280T159 323T127 378T115 450Q115 489 128 521T163 578T215 620T278 649V737L340 741V662Q346 662 352 662T364 663Q415 663 453
649T533 608Q538 603 543 598T554 589ZM278 581Q234 562 205 527T176 444Q177 396 204 367T264 325L279 319Q278 388 278 454T278 581ZM340 79Q367 79 389 81T428 91T454 112T464 147Q464 170 455 183T429 205T389 218T340 230V79Z" />
<glyph unicode="%" horiz-adv-x="626" d="M108 -21L114 -17L466 579L522 541L160 -59L108 -21ZM224 443L160 369L86 455L142 525L224 443ZM550 97L496 23L412 109L468 179L550 97Z" />
<glyph unicode="&amp;" horiz-adv-x="652" d="M502 327L564 331Q573 292 573 263Q573 221 562 170T529 73Q569 63 622 63L618 1Q583 3 554 8T496 21Q456 -34 403 -60T272 -87Q234 -87 201 -77T143 -45T103 12T88 97Q88 136 102 160T136 211L168 243Q131 289 112
340T92 448Q92 485 101 523T131 591T183 640T256 659Q298 659 327 649T375 620T402 577T411 524Q411 471 393 426T349 344T297 282T255 242Q300 197 354 161T462 98Q482 128 495 165T508 257Q508 289 502 327ZM215 288Q234 307 257 329T299 378T331 440T344 520Q344
555 326 575T262 596Q232 596 212 583T179 550T160 503T154 450Q154 403 169 365T215 288ZM422 48Q365 73 309 110T208 196Q156 144 156 93Q156 37 191 10T279 -18Q310 -18 341 -8T398 23L410 35L422 48Z" />
<glyph unicode="&apos;" horiz-adv-x="214" d="M72 485V727L132 731V489L72 485Z" />
<glyph unicode="(" horiz-adv-x="368" d="M318 735L346 677Q275 644 229 601T157 506T120 392T109 260Q109 193 121 138T162 40T237 -35T352 -85L348 -143Q280 -128 224 -97T128 -20T66 84T44 211Q43 226 43 240T42 269Q42 347 56 415T102 541T188 648T318 735Z" />
<glyph unicode=")" horiz-adv-x="364" d="M22 677L50 735Q129 695 182 645T268 535T313 404T327 254Q327 210 323 173T309 102T282 39T240 -19Q199 -64 143 -96T20 -143L16 -85Q84 -66 130 -35T204 40T245 139T257 262Q257 333 247 394T210 507T138 601T22 677Z" />
<glyph unicode="*" horiz-adv-x="652" d="M108 129L236 274H36L28 327H264L132 475L178 517L318 367L464 533L502 481L376 337H606L612 283H401L554 113L516 65L321 274L154 83L108 129Z" />
<glyph unicode="+" horiz-adv-x="588" d="M264 11V272H48L52 337H251V495L308 499V329H552L560 267H316V15L264 11Z" />
<glyph unicode="," horiz-adv-x="266" d="M138 177L220 97L98 -99L48 -61L136 79L92 127L138 177Z" />
<glyph unicode="-" horiz-adv-x="588" d="M556 273H40L44 327H560L556 273Z" />
<glyph unicode="." horiz-adv-x="204" d="M166 97L112 23L28 109L84 177L166 97Z" />
<glyph unicode="/" horiz-adv-x="458" d="M66 -101L14 -63L388 677L448 657L66 -101Z" />
<glyph unicode="0" horiz-adv-x="486" d="M20 307Q20 337 24 370T39 437T67 501T108 555T167 593T244 607Q308 607 352 577T422 502T460 405T472 307Q472 263 461 212T424 118T354 46T244 17Q178 17 135 46T67 118T31 212T20 307ZM84 307Q84 275 92 236T118 163T168
105T244 81Q290 81 321 104T371 162T398 236T406 307Q406 342 397 382T369 456T319 514T244 537Q198 537 168 514T119 457T92 382T84 307Z" />
<glyph unicode="1" horiz-adv-x="358" d="M64 531V593L198 619L244 589V5L194 1V551L64 531Z" />
<glyph unicode="2" horiz-adv-x="458" d="M196 69H410V13Q360 13 306 10T200 6Q176 6 153 7T108 11L96 53Q109 74 133 100T187 156T246 221T300 292T339 369T355 451Q355 475 349 502T329 553T290 591T229 606Q205 606 179 600T129 576T91 530T76 453Q76 413 92
377L34 359Q17 407 17 457Q17 510 34 549T80 615T147 655T228 669Q266 669 300 654T361 612T403 546T419 459Q419 416 406 374T371 294T325 220T274 156T228 105T196 69Z" />
<glyph unicode="3" horiz-adv-x="512" d="M226 325L216 379Q256 388 280 406T332 461Q338 468 341 479T344 504Q344 523 338 542T316 577T278 602T222 612Q198 612 174 605T131 583T101 544T89 487Q89 482 89 478T90 469L38 467Q35 488 35 508Q35 555 52 586T97
636T156 662T216 670Q275 670 311 652T368 610T394 559T401 514Q401 455 374 419T314 365Q351 360 384 344T444 303T485 243T501 167Q501 120 484 84T437 22T365 -17T273 -30Q195 -30 134 7T44 131L100 165Q100 156 108 142T126 114T148 86T166 67Q183 50 210 43T266
36Q344 36 390 71T436 170Q436 215 413 248T358 301Q328 319 298 322T226 325Z" />
<glyph unicode="4" horiz-adv-x="540" d="M338 -55V131H82L54 155L108 649L170 643L124 197H339V635H402V191H518V129H401V-55H338Z" />
<glyph unicode="5" horiz-adv-x="470" d="M70 -5L66 59Q87 53 119 53Q185 53 234 67T314 106T361 160T377 223Q377 274 337 305T222 336Q183 336 147 323T94 277L50 311V633L72 661Q121 660 162 659T244 657T326 656T418 655V591H108L112 369Q128 380 158 386T226
392Q248 392 271 390T316 381T356 366T388 343Q414 315 425 284T436 220Q436 162 412 119T345 46T248 3T132 -12Q115 -12 99 -11T70 -5Z" />
<glyph unicode="6" horiz-adv-x="440" d="M374 633V575H362Q298 575 246 548T157 479T100 385T80 284Q80 278 80 272T82 259Q88 283 104 301T143 331T193 350T248 357Q287 357 319 344T375 309T410 255T423 187Q423 149 408 115T366 54T303 13T224 -3Q162 -3 123
21T61 83T30 168T22 261Q22 331 43 398T105 518T204 603T338 635Q347 635 356 635T374 633ZM356 237Q342 266 312 279T247 293Q220 293 194 285T146 262T112 225T98 176Q98 157 105 138T126 102T163 76T218 66Q244 66 270 74T317 98T351 139T364 196Q364 221 356
237Z" />
<glyph unicode="7" horiz-adv-x="458" d="M108 385H46V617H400L428 575L380 -17H318L364 551H108V385Z" />
<glyph unicode="8" horiz-adv-x="506" d="M418 159Q416 180 398 201T355 240T299 268T244 279Q222 279 196 267T148 234T110 188T95 134Q95 113 102 96T128 66T177 46T254 39Q332 42 375 71T418 151V159ZM232 579Q199 578 176 569T139 547T118 517T111 484Q111
460 126 438T163 398T205 368T238 353Q261 362 282 375T320 403T347 438T357 478Q357 524 327 551T242 579H232ZM296 323Q333 317 367 302T427 265T468 213T484 149Q484 101 464 68T411 15T338 -14T256 -23Q218 -23 179 -17T107 7T53 56T32 138Q32 174 46 203T82
255T131 294T186 319Q158 326 134 343T91 382T61 432T50 485Q50 521 63 549T99 598T152 628T216 639Q256 639 292 630T355 602T399 553T416 483Q416 449 403 422T370 375T331 341T296 323Z" />
<glyph unicode="9" horiz-adv-x="472" d="M446 491V-19H370V327L328 297Q270 272 212 272Q177 272 142 282T79 315T34 371T17 452Q17 500 37 536T89 597T162 634T243 647Q281 647 315 637T377 608T423 559T446 491ZM314 361Q350 377 367 403T385 460Q385 491 373
515T341 555T296 579T243 587Q214 587 185 578T133 551T96 508T81 452Q81 419 93 397T125 361T166 341T210 335Q236 335 263 342T314 361Z" />
<glyph unicode=":" horiz-adv-x="264" d="M204 477L152 407L72 491L126 557L204 477ZM204 89L126 19L72 103L126 169L204 89Z" />
<glyph unicode=";" horiz-adv-x="264" d="M204 477L152 407L72 491L126 557L204 477ZM136 173L214 95L94 -97L48 -61L136 79L92 125L136 173Z" />
<glyph unicode="&lt;" horiz-adv-x="414" d="M330 681L366 635L88 313L394 -27L350 -73L30 277L22 331L330 681Z" />
<glyph unicode="=" horiz-adv-x="548" d="M494 431H60V487H496L494 431ZM508 77H52V145H508V77Z" />
<glyph unicode="&gt;" horiz-adv-x="404" d="M40 635L76 681L384 331L376 277L56 -73L12 -27L318 313L40 635Z" />
<glyph unicode="?" horiz-adv-x="470" d="M130 415L74 391Q63 415 56 449T48 517Q48 560 64 595T108 656T177 694T264 708Q294 708 326 698T384 664T428 603T445 510Q445 443 414 395T329 309Q284 277 271 254T257 213Q257 202 257 189T258 155L200 153Q200 165
200 177T199 201Q199 228 204 255T230 303Q260 333 281 351T318 381T344 403T364 425Q377 443 383 465T390 511Q390 539 381 563T354 606T309 634T245 645Q223 645 205 641T170 625T139 594T112 545Q107 536 107 516Q107 492 114 463T130 415ZM302 15L250 -55L170
29L224 95L302 15Z" />
<glyph unicode="@" horiz-adv-x="750" d="M537 131L499 299Q493 273 480 243T445 186T393 143T324 125Q258 125 221 166T183 286Q183 332 197 378T238 463T305 525T396 549Q427 549 450 536T490 503T515 460T529 419L589 171Q605 177 618 193T640 233T655 284T660
341Q660 382 655 419T635 489T594 551T525 607Q503 618 470 625T403 632Q349 632 306 617T229 577T171 519T132 451T109 381T101 317Q101 244 126 188T195 92T299 33T430 13Q454 13 478 15T527 21L533 -39Q518 -40 502 -40T470 -41Q387 -41 310 -25T173 32T77 144T41
323Q41 375 54 428T97 529T175 616T295 681Q320 689 345 693T397 697Q479 697 539 667T638 588T697 479T717 358Q717 320 708 275T682 191T637 126T574 99Q560 99 550 106T537 131ZM408 471Q394 474 383 474Q353 474 329 454T288 405T262 341T253 280Q253 239 272
215T327 190Q354 190 376 209T413 258T436 320T445 383Q445 412 436 436T408 471Z" />
<glyph unicode="A" horiz-adv-x="536" d="M184 317H338L252 543L184 317ZM90 -11L22 5L228 657H272L514 1L450 -17L356 255H168L90 -11Z" />
<glyph unicode="B" horiz-adv-x="540" d="M50 -19V613V653Q69 655 86 656T119 657Q186 657 227 643T291 607T320 564T328 525Q328 474 304 435T230 381Q380 381 451 330T523 192Q523 89 427 34T136 -22Q95 -22 50 -19ZM82 595L96 385Q171 392 217 426T264 517Q264
554 230 576T129 598Q107 598 82 595ZM98 319L114 53Q134 51 152 50T189 49Q245 49 294 58T379 87T435 133T456 195Q456 226 434 250T374 292T289 317T189 326Q166 326 143 324T98 319Z" />
<glyph unicode="C" horiz-adv-x="528" d="M446 553L402 525Q386 548 354 566T286 584Q244 584 209 564T147 505T105 414T90 297Q91 241 110 196T161 120T230 71T306 54Q356 54 396 76T468 149L508 91Q463 37 411 12T301 -13Q248 -13 198 11T109 78T47 183T23 320Q23
377 38 435T84 540T165 616T284 646Q336 646 381 625T446 553Z" />
<glyph unicode="D" horiz-adv-x="480" d="M88 -23L56 17Q50 167 48 310T40 603L70 639Q88 641 105 642T140 643Q210 643 268 625T369 568T434 468T458 322Q458 246 431 183T355 74T243 3T104 -23H88ZM102 577L122 43Q180 49 230 71T316 130T373 214T394 320Q394
381 380 429T334 510T252 560T132 578Q125 578 118 578T102 577Z" />
<glyph unicode="E" horiz-adv-x="504" d="M474 69V-1H94L58 47V575L98 633H420V575H128V351H440V297H124V69H474Z" />
<glyph unicode="F" horiz-adv-x="474" d="M100 645H432L428 579H122V349H442V283H118V-3H44V609L100 645Z" />
<glyph unicode="G" horiz-adv-x="648" d="M510 291Q507 257 504 217T497 133L484 -37L422 -31L436 157Q429 147 414 132T375 104T322 80T257 70Q209 70 168 89T96 142T49 223T31 328Q31 404 50 469T104 583T187 659T292 687Q326 687 355 679T408 657T447 625T470
589L416 561Q396 593 365 608T300 623Q258 623 222 603T159 545T117 455T101 339Q101 300 111 264T142 200T194 156T267 139Q299 139 328 152T381 186T418 234T436 291H264V355H618V291H510Z" />
<glyph unicode="H" horiz-adv-x="550" d="M412 369V639H470V1H426V309H130V1H48V637H142V369H412Z" />
<glyph unicode="I" horiz-adv-x="342" d="M302 21H64V77H142V577H30V631L250 645V587L178 581V81H302V21Z" />
<glyph unicode="J" horiz-adv-x="430" d="M232 575L104 549L100 615L374 673L390 607L300 581L374 353Q385 321 391 281T397 201Q397 159 388 120T357 50T298 1T204 -18Q161 -18 131 -4T80 37T47 100T30 179L96 189Q102 122 126 90T209 57Q277 57 303 94T330 207Q330
240 327 267T316 322T297 381T272 453L232 575Z" />
<glyph unicode="K" horiz-adv-x="462" d="M56 -15V647H124V385L378 645L422 593L168 345L452 39L404 1L126 295V-15H56Z" />
<glyph unicode="L" horiz-adv-x="520" d="M68 51V641H138V75H498V3H108L68 51Z" />
<glyph unicode="M" horiz-adv-x="624" d="M120 517V-1H42V629L138 643L292 243L472 631L548 625L596 -17H528L492 509L310 137L266 143L120 517Z" />
<glyph unicode="N" horiz-adv-x="540" d="M122 489V-3H44V617L114 627L418 87V651L508 641V15L396 -3L122 489Z" />
<glyph unicode="O" horiz-adv-x="514" d="M422 335Q413 385 398 429T362 505T312 557T249 576Q210 576 182 558T136 509T108 441T99 363Q99 316 109 262T140 163T193 87T270 57Q313 57 343 76T391 127T418 198T426 275Q426 290 425 305T422 335ZM488 343Q490 327
491 312T492 280Q492 227 479 175T440 80T374 12T280 -14Q231 -14 186 11T107 84T52 199T31 350Q31 405 44 457T84 550T152 616T249 641Q306 641 348 613T419 540T465 444T488 343Z" />
<glyph unicode="P" horiz-adv-x="468" d="M112 563L132 331Q169 331 214 334T300 351T367 389T395 458Q395 492 380 514T340 549T284 567T218 572Q188 572 160 570T112 563ZM134 269L158 -55L94 -59L46 587L78 625Q112 628 146 630T213 632Q265 632 309 625T387
599T439 545T458 455Q458 391 427 355T347 301T242 277T134 269Z" />
<glyph unicode="Q" horiz-adv-x="534" d="M470 -5L410 61Q381 26 344 6T262 -15Q210 -15 168 8T97 75T52 179T36 315Q36 376 50 435T94 541T166 616T266 645Q331 645 374 613T444 531T481 422T492 311Q492 260 481 211T448 120L516 45L470 -5ZM366 111L252 237L302
281L401 172Q413 205 418 241T424 311Q424 366 414 414T384 499T334 556T265 577Q227 577 197 557T145 502T113 423T101 330Q101 281 108 232T132 144T180 81T256 57Q291 57 318 71T366 111Z" />
<glyph unicode="R" horiz-adv-x="504" d="M118 275V-61H44V577L92 621Q115 624 138 626T185 628Q239 628 290 618T381 585T445 527T470 442Q470 397 454 366T411 315T350 284T280 269L438 17L386 -19L210 265Q186 265 163 266T118 275ZM122 335Q161 324 212 324Q245
324 279 329T340 348T385 385T402 442Q402 471 387 494T346 532T284 556T207 565Q188 565 169 563T130 557Q125 504 124 445T122 335Z" />
<glyph unicode="S" horiz-adv-x="442" d="M406 603L378 543Q373 549 359 556T326 570T283 580T238 585Q216 585 197 581T162 566T139 539T130 498Q130 466 154 435T230 385Q296 359 333 330T389 272T413 215T418 163Q415 80 365 34T217 -12Q177 -12 130 -4T26
23L48 93Q79 81 125 71T218 60Q245 60 269 65T311 81T339 112T350 159Q349 207 328 236T274 284T205 318T137 354T84 407T63 492Q63 535 76 565T112 613T167 640T236 649Q284 649 329 637T406 603Z" />
<glyph unicode="T" horiz-adv-x="572" d="M248 565H30V623H536V573H310L364 -3L300 -9L248 565Z" />
<glyph unicode="U" horiz-adv-x="526" d="M64 663L134 653Q129 633 124 600T115 527T108 440T105 348Q105 289 111 233T132 134T174 64T241 37Q301 37 337 73T394 167T422 297T429 441Q429 498 427 546T424 625L492 627Q493 590 494 551T495 471Q495 407 491 345T477
227T449 122T403 40T336 -15T245 -35Q182 -35 142 0T78 93T46 221T37 363Q37 408 39 451T46 534T54 606T64 663Z" />
<glyph unicode="V" horiz-adv-x="538" d="M186 79L462 661L520 627L210 -17L128 -7L28 647H96L186 79Z" />
<glyph unicode="W" horiz-adv-x="716" d="M170 9L40 639H116L208 125L308 599L396 593L496 149L626 659L694 653L528 -11H458L348 479L246 9H170Z" />
<glyph unicode="X" horiz-adv-x="520" d="M442 -19L271 241L120 -37L60 -5L229 305L24 617L74 661L265 373L420 657L478 619L308 308L492 31L442 -19Z" />
<glyph unicode="Y" horiz-adv-x="482" d="M258 -67L172 -61V283L18 643L78 677L228 357L406 643L460 613L258 281V-67Z" />
<glyph unicode="Z" horiz-adv-x="498" d="M118 69H472V11H36L30 59L330 569H38V631H414L434 603L118 69Z" />
<glyph unicode="[" horiz-adv-x="366" d="M70 711H304V657H102V-35H342V-107H88L46 -49V667L70 711Z" />
<glyph unicode="\" horiz-adv-x="716" d="M212 681L590 -65L530 -107L144 659L212 681Z" />
<glyph unicode="]" horiz-adv-x="328" d="M40 719H274L310 667V-49L256 -99H0V-43H224V649H40V719Z" />
<glyph unicode="^" horiz-adv-x="514" d="M244 693L82 399L18 435L204 771H266L504 463L452 419L244 693Z" />
<glyph unicode="_" horiz-adv-x="724" d="M680 -153H44L48 -89H684L680 -153Z" />
<glyph unicode="`" horiz-adv-x="186" d="M76 561L-10 737L60 751L146 575L76 561Z" />
<glyph unicode="a" horiz-adv-x="498" d="M396 295L460 23L400 1L364 171Q357 143 343 113T307 59T256 19T189 3Q123 3 89 45T54 163Q54 206 67 252T106 337T171 400T264 425Q295 425 318 412T358 378T383 336T396 295ZM274 353Q267 355 261 356T247 357Q216 357
192 339T151 292T126 231T117 170Q117 126 136 99T196 72Q224 72 248 90T289 137T315 198T325 261Q325 293 313 317T274 353Z" />
<glyph unicode="b" horiz-adv-x="412" d="M36 37V665H98L96 379Q141 404 198 404Q234 404 269 393T333 356T378 292T396 196Q396 157 386 119T351 51T287 3T189 -15Q161 -15 129 -11T60 5L36 37ZM100 291V75Q142 61 184 61Q213 61 239 68T285 92T317 133T329 194Q329
228 318 254T289 297T248 323T201 332Q174 332 148 322T100 291Z" />
<glyph unicode="c" horiz-adv-x="440" d="M376 365L358 301Q329 327 296 339T231 352Q204 352 180 343T137 314T109 267T98 203Q98 160 109 131T140 84T183 58T234 50Q257 51 279 59T320 83T350 120T364 169L420 141Q418 101 402 71T360 21T301 -9T233 -19Q196
-19 160 -6T96 35T51 103T34 201Q34 248 48 287T87 355T146 400T222 416Q257 416 295 404T376 365Z" />
<glyph unicode="d" horiz-adv-x="426" d="M386 681V37L360 5Q327 -5 298 -9T243 -13Q182 -13 141 6T73 56T36 125T24 202Q24 257 41 295T85 359T147 395T218 407Q277 407 324 381L322 683L386 681ZM320 293Q297 314 270 324T215 335Q191 335 169 327T129 302T102
261T91 203Q91 165 104 138T138 94T188 69T248 60Q288 60 320 75V293Z" />
<glyph unicode="e" horiz-adv-x="404" d="M36 205Q36 260 52 297T92 357T147 389T205 399Q245 399 277 388T331 350T366 279T378 171L100 144Q103 116 115 97T147 65T188 48T233 43Q271 43 306 54T358 81L376 33Q369 23 355 13T322 -4T280 -16T231 -21Q196 -21
161 -10T98 27T53 96T36 205ZM94 203L314 227Q314 276 288 305T204 335Q176 334 156 323T121 296T100 258T93 215Q93 207 94 203Z" />
<glyph unicode="f" horiz-adv-x="476" d="M434 281H207V17H148V284H26V355L143 353Q142 365 142 376T142 398Q142 446 145 479T155 535T168 572T184 597Q206 625 234 637T291 650Q321 650 350 638T402 605T442 554T462 491L412 457Q407 487 395 510T366 550T330
574T292 583Q273 583 257 575T230 543T213 473T206 351L434 347V281Z" />
<glyph unicode="g" horiz-adv-x="436" d="M91 153Q98 122 118 109T163 96Q190 96 220 109T277 143T320 193T338 251Q338 287 316 311T259 335Q232 334 202 322T147 288T104 240T87 180Q87 165 91 153ZM329 -189H21V-111H293L335 -75L331 103Q305 67 259 48T165
28Q103 28 63 67T22 183Q22 229 42 268T97 336T173 381T261 397Q309 397 347 374T399 299V-113L329 -189Z" />
<glyph unicode="h" horiz-adv-x="426" d="M306 321H116V-1L54 -7V623H114V385H320L366 363L406 -1L342 -5L306 321Z" />
<glyph unicode="i" horiz-adv-x="182" d="M62 -3V363H132V-7L62 -3ZM154 445L84 425L20 577L90 595L154 445Z" />
<glyph unicode="j" horiz-adv-x="330" d="M12 -105L34 -25L194 -67V367H266V-123L228 -157L12 -105ZM276 447L228 429L142 579L212 597L276 447Z" />
<glyph unicode="k" horiz-adv-x="462" d="M106 218L352 439L396 381L264 255L448 37L408 -19L212 206L130 128V-7L70 -15V647L106 659V218Z" />
<glyph unicode="l" horiz-adv-x="206" d="M46 53V657L112 661V79L178 63L172 -9L62 13L46 53Z" />
<glyph unicode="m" horiz-adv-x="564" d="M36 419L98 433L103 389H470L516 337V25L474 19V283L434 337H332V11H274V329H110L144 1L80 -7L36 419Z" />
<glyph unicode="n" horiz-adv-x="424" d="M310 325H116V5L66 -1V429L114 439V389L346 403L376 343L406 17L342 -1L310 325Z" />
<glyph unicode="o" horiz-adv-x="396" d="M204 351Q149 351 118 317T86 208Q86 179 94 151T117 99T153 62T200 47Q227 47 249 60T286 93T309 139T318 189Q318 277 287 314T204 351ZM198 419Q248 419 283 401T340 352T372 279T382 189Q380 135 365 96T324 30T268
-8T202 -21Q157 -21 124 -3T68 45T34 115T22 199Q22 246 34 286T69 356T124 402T198 419Z" />
<glyph unicode="p" horiz-adv-x="410" d="M392 237V216Q392 159 375 121T333 61T276 29T217 20Q185 20 158 28T116 47L124 -177L62 -183V361L68 407Q142 424 196 424Q289 424 338 378T392 237ZM106 337L110 139Q111 134 120 127T145 114T180 103T219 98Q238 98
257 104T292 127T318 170T328 237Q328 268 317 291T286 330T242 353T191 361Q168 361 146 355T106 337Z" />
<glyph unicode="q" horiz-adv-x="412" d="M24 235Q28 329 81 377T223 425Q252 425 282 420T348 405L378 357V-187L292 -181L300 43Q286 32 259 24T200 16Q170 16 139 25T82 58T40 118T23 212Q23 217 23 223T24 235ZM306 131L310 339Q292 351 271 357T229 363Q202
363 178 355T134 330T104 289T92 233Q92 189 102 161T130 117T168 94T213 87Q231 87 247 91T277 101T298 116T306 131Z" />
<glyph unicode="r" horiz-adv-x="378" d="M86 -23L52 417L114 425L128 231L342 375L370 319L138 151V-17L86 -23Z" />
<glyph unicode="s" horiz-adv-x="366" d="M318 381L304 321Q296 325 283 329T253 338T218 344T183 347Q153 347 132 338T110 306Q110 289 128 277T170 257T219 243T258 235Q288 226 306 212T335 181T350 146T354 111Q354 75 338 51T296 11T239 -12T176 -19Q128
-19 85 -6T16 29L40 97Q52 87 68 79T105 64T147 54T190 50Q226 50 254 64T288 113Q288 119 287 128T280 147T263 164T230 175Q189 181 155 191T95 216T56 252T41 303Q41 359 78 384T187 409Q225 409 260 401T318 381Z" />
<glyph unicode="t" horiz-adv-x="376" d="M118 21V324H16L22 397H132V601H200V393H364V321H193V61L344 89L354 21L154 -21L118 21Z" />
<glyph unicode="u" horiz-adv-x="386" d="M50 419L106 405Q97 354 92 307T86 219Q86 181 90 151T106 99T135 66T182 54Q201 54 218 64T250 99T274 162T286 261L290 403L346 399V5L296 -1L294 75Q281 29 247 6T168 -18Q131 -18 104 -2T60 44T34 114T25 204Q25 249
31 302T50 419Z" />
<glyph unicode="v" horiz-adv-x="434" d="M152 -9L32 409H102L192 87L348 417L412 403L222 -9H152Z" />
<glyph unicode="w" horiz-adv-x="594" d="M320 277L234 1L150 -7L16 397L74 417L190 83L292 397H358L430 95L522 403L582 391L460 -11H392L320 277Z" />
<glyph unicode="x" horiz-adv-x="410" d="M22 37L163 207L30 383L76 423L203 255L332 411L378 363L243 201L370 33L324 -7L203 153L66 -11L22 37Z" />
<glyph unicode="y" horiz-adv-x="384" d="M190 61L16 363L70 405L217 140L314 427L370 397L174 -179L120 -145L190 61Z" />
<glyph unicode="z" horiz-adv-x="404" d="M120 57H380L374 -11H68L30 45L268 353H60V407H342L360 361L120 57Z" />
<glyph unicode="{" horiz-adv-x="332" d="M184 747L204 679Q183 676 171 673T153 665T145 650T143 626Q143 591 150 561T166 501T182 437T190 363Q190 333 180 310T144 277H142Q174 250 185 221T196 160Q196 124 189 89T182 18Q182 -15 194 -49Q202 -70 218 -73T256
-77Q261 -77 272 -73T304 -69L312 -139Q290 -141 272 -144T234 -147Q196 -147 173 -131T137 -89T120 -33T115 25Q115 62 118 92T121 144Q121 164 118 180T107 209T84 235T46 259Q25 269 25 290Q25 301 33 313T60 325Q94 325 107 341T121 386Q121 402 114 424T98
476T82 542T75 622Q75 641 79 661T92 699T115 729T151 743Q158 745 166 745T184 747Z" />
<glyph unicode="|" horiz-adv-x="168" d="M56 -119V727L124 733V-111L56 -119Z" />
<glyph unicode="}" horiz-adv-x="346" d="M76 697L80 761Q96 759 116 746T155 717T189 684T210 659Q223 632 227 593T231 510Q231 467 227 427T222 359Q222 345 230 338T252 327T281 320T309 312T331 296T340 267Q340 241 324 224T288 193T249 167T228 141Q224
125 223 109T222 77Q222 50 224 23T226 -35Q226 -104 204 -137T127 -170Q100 -170 72 -164T22 -149L28 -79Q49 -88 80 -95T134 -103Q146 -103 151 -97T158 -81T160 -62T159 -43Q159 -14 156 17T153 78Q153 96 154 114T161 149T178 184T207 218Q221 231 234 238T254
253Q225 261 206 269T176 288T161 316T156 359Q156 388 157 422T159 489Q159 512 159 534T158 576T151 614T133 645Q122 657 108 669T76 697Z" />
<glyph unicode="~" horiz-adv-x="662" d="M92 191L22 187Q22 209 21 230T19 273Q19 393 126 445Q144 450 160 450Q208 450 247 423T317 359T368 286T401 233Q412 216 424 205T453 193Q474 193 498 217T544 274T580 341T596 395L664 389Q659 350 640 304T592 217T526
151T447 124Q427 124 411 132T381 152T357 178T338 203Q324 226 303 257T258 315T210 362T166 382Q146 382 132 372T108 346T94 312T89 278Q89 261 90 240T92 191Z" />
<glyph unicode="&#xa1;" horiz-adv-x="824" d="M334 593L388 667L472 581L416 511L334 593ZM366 451H448V-57H366V451Z" />
<glyph unicode="&#xa4;" horiz-adv-x="824" d="M200 327Q200 366 208 412T236 500L116 623L166 679L276 563Q302 591 337 609T424 627Q473 627 510 609T574 561L692 685L742 629L615 499Q635 457 643 412T652 327Q652 287 643 242T614 155L742 23L692 -33L571
95Q544 68 508 53T424 37Q376 37 341 52T281 94L166 -27L116 29L238 155Q217 195 209 241T200 327ZM264 327Q264 295 272 256T298 183T348 125T424 101Q470 101 501 124T551 182T578 256T586 327Q586 362 577 402T549 476T499 534T424 557Q378 557 348 534T299
477T272 402T264 327Z" />
<glyph unicode="&#xa7;" horiz-adv-x="824" d="M568 633L554 573Q546 577 533 581T503 590T468 596T433 599Q403 599 382 590T360 558Q360 538 378 527T421 509T472 497T515 485Q542 475 559 461T586 431T600 398T604 364Q604 316 578 289T514 247Q533 227 539
204T546 159Q546 123 530 99T488 59T431 36T368 29Q320 29 277 42T208 77L232 145Q244 135 260 127T297 112T339 102T382 98Q418 98 446 112T480 161Q480 167 479 176T472 195T455 212T422 223Q378 230 348 244T300 276T274 317T266 363Q266 389 281 419T334 476Q314
491 302 510T290 554Q290 611 328 636T437 661Q475 661 510 653T568 633ZM348 339Q373 323 404 313T462 302Q490 302 511 317T538 365Q538 371 537 380T530 399T513 416T480 427Q475 427 468 428T456 431Q410 431 377 414T343 360Q343 355 343 350T348 339Z" />
<glyph unicode="&#xa9;" horiz-adv-x="824" d="M562 493L516 465Q502 487 480 500T429 513Q396 513 369 498T321 454T289 385T278 293Q278 249 291 215T327 155T379 117T440 104Q475 104 508 122T568 181L612 125Q573 80 529 60T441 39Q396 39 354 59T281 115T230
201T211 311Q211 357 224 404T263 489T330 550T424 574Q467 574 505 555T562 493ZM332 -11Q388 -21 440 -21Q532 -21 592 10T687 90T737 197T752 309Q752 354 735 413T679 525T578 614T424 651Q353 651 292 628T184 560T112 452T86 308Q86 254 101 201T147 104T224
29T332 -11ZM332 -79Q255 -69 198 -33T101 57T43 176T23 307Q23 410 55 487T143 615T271 691T426 716Q499 716 556 696T657 642T730 566T778 478T805 388T814 308Q814 227 791 156T721 31T600 -54T427 -86Q404 -86 381 -85T332 -79Z" />
<glyph unicode="&#xab;" horiz-adv-x="824" d="M430 681L466 635L188 313L494 -27L450 -73L130 277L122 331L430 681ZM638 681L674 635L396 313L702 -27L658 -73L338 277L330 331L638 681Z" />
<glyph unicode="&#xaf;" horiz-adv-x="666" d="M0 707V769H646V707H0Z" />
<glyph unicode="&#xb0;" horiz-adv-x="824" d="M150 743Q172 743 192 734T228 710T253 674T262 631Q262 609 253 589T228 554T192 529T150 519Q129 519 110 528T75 553T51 589T42 631Q42 653 51 673T75 708T109 733T150 743ZM150 667Q118 667 118 631Q118 611
126 605T150 599Q168 599 177 605T186 631Q186 667 150 667Z" />
<glyph unicode="&#xb1;" horiz-adv-x="824" d="M272 111V372H56L60 437H259V595L316 599V429H560L568 367H324V115L272 111ZM568 23H52L56 77H572L568 23Z" />
<glyph unicode="&#xb2;" horiz-adv-x="824" d="M170 465H280V413Q248 413 215 410T149 407Q134 407 120 408T92 413L78 447Q93 465 118 490T168 544T211 606T229 672Q229 685 226 698T216 722T196 740T164 747Q137 747 114 731T91 673Q91 651 102 621L50 605Q37
632 37 664Q37 698 48 724T78 768T120 795T166 804Q189 804 210 795T249 768T276 728T287 675Q287 640 272 606T237 543T198 493T170 465Z" />
<glyph unicode="&#xb3;" horiz-adv-x="824" d="M154 579L142 621Q154 622 167 627T190 640T208 660T215 687Q215 696 213 707T204 727T186 742T157 749Q135 749 115 732T95 676Q95 668 96 663L46 655Q43 671 43 685Q43 716 53 738T80 773T117 793T158 800Q188
800 209 789T242 763T261 729T267 695Q267 680 262 665T250 638Q243 624 234 611Q248 609 264 600T293 575T314 539T323 493Q323 435 285 399T181 362Q139 362 104 385T42 471L100 503Q100 494 103 483T112 462T122 444T130 433Q150 417 184 417Q222 417 245 435T268
488Q268 515 258 532T232 560T196 575T154 579Z" />
<glyph unicode="&#xb6;" horiz-adv-x="824" d="M616 649L662 619L618 -37L558 -33L598 581L560 585L514 -29L450 -25L474 299Q424 301 371 309T274 339T202 396T174 488Q174 536 192 569T246 622T332 650T445 659Q484 659 527 657T616 649Z" />
<glyph unicode="&#xb7;" horiz-adv-x="824" d="M408 423Q422 423 435 418T460 402T478 380T485 354Q485 342 479 331T462 311T437 297T409 291Q391 291 378 297T357 312T344 331T340 351Q340 380 359 399T408 423Z" />
<glyph unicode="&#xb9;" horiz-adv-x="824" d="M48 715V771L142 791L174 767V401L130 395V727L48 715Z" />
<glyph unicode="&#xbb;" horiz-adv-x="824" d="M390 681L698 331L690 277L370 -73L326 -27L632 313L354 635L390 681ZM182 681L490 331L482 277L162 -73L118 -27L424 313L146 635L182 681Z" />
<glyph unicode="&#xbc;" horiz-adv-x="824" d="M30 691V751L144 773L184 747V293L134 289V707L30 691ZM166 -81L134 -43L488 697L548 677L166 -81ZM610 -197V-60H472L446 -39L488 325L548 317L514 3H612V313L672 317V-3H752V-65H668V-191L610 -197Z" />
<glyph unicode="&#xbd;" horiz-adv-x="824" d="M30 691V751L144 773L184 747V293L134 289V707L30 691ZM166 -81L134 -43L488 697L548 677L166 -81ZM600 -79H744V-135H516L504 -95Q520 -72 551 -41T614 27T668 105T692 190Q692 206 688 223T674 255T647 279T603
289Q590 289 573 285T541 269T516 237T506 187Q506 162 520 129L464 111Q451 144 451 181Q451 224 465 256T501 309T553 340T612 351Q639 351 664 341T710 312T742 264T754 201Q754 156 736 112T692 31T641 -36T600 -79Z" />
<glyph unicode="&#xbe;" horiz-adv-x="824" d="M254 -81L202 -43L576 697L636 677L254 -81ZM610 -197L636 -60H472L446 -39L488 325L548 317L514 3H612V313L672 317V-3H752V-65H668V-191L610 -197ZM172 529L162 579Q175 582 190 588T219 605T240 631T249 665Q249
678 246 692T234 718T211 737T174 745Q158 745 143 740T115 725T95 697T87 655Q87 650 87 646T88 637L36 633Q33 652 33 669Q33 706 46 731T80 771T125 794T171 801Q215 801 241 787T282 751T302 708T307 671Q307 652 301 635T287 603T271 580T258 567Q279 564
300 552T339 521T367 475T378 417Q378 379 365 350T328 301T273 270T203 259Q175 259 150 267T108 289Q93 301 71 329T36 391L94 425Q94 415 99 403T112 378T126 357T136 343Q149 332 167 327T205 321Q259 321 288 347T318 419Q318 452 305 473T270 507T223 524T172
529Z" />
<glyph unicode="&#xbf;" horiz-adv-x="824" d="M526 135L586 161Q596 132 604 97T612 30Q612 -15 595 -50T547 -110T477 -148T391 -161Q361 -161 330 -150T272 -115T229 -53T212 38Q212 105 244 153T329 240Q369 268 384 292T401 348Q401 357 401 368T400 395L462
399V362Q462 327 457 296T430 245Q398 215 376 197T339 166T315 144T296 123Q282 106 276 83T270 37Q270 -25 308 -60T417 -96Q454 -96 486 -75T546 5Q549 14 549 31Q549 55 543 85T526 135ZM354 533L408 607L492 521L436 451L354 533Z" />
<glyph unicode="&#xd7;" horiz-adv-x="824" d="M228 431L270 475L426 319L586 475L624 433L467 276L656 87L614 39L423 232L242 51L198 97L381 275L228 431Z" />
<glyph unicode="&#xf7;" horiz-adv-x="824" d="M170 319V385H648V311L170 319ZM472 577L418 503L334 589L390 659L472 577ZM472 113L390 39L334 125L390 195L472 113Z" />
<glyph unicode="&#x2018;" horiz-adv-x="260" d="M60 517V755H128V595H188V517H60Z" />
<glyph unicode="&#x2019;" horiz-adv-x="260" d="M172 773V535H104V695H44V773H172Z" />
<glyph unicode="&#x201c;" horiz-adv-x="420" d="M60 513V755H128V595H188V517L60 513ZM260 517V755H328V595H388V517H260Z" />
<glyph unicode="&#x201d;" horiz-adv-x="420" d="M173 777V535H105V695H45V773L173 777ZM377 773V535H309V695H249V773H377Z" />
</font>
</defs>
</svg>
