<?xml version="1.0" standalone="no"?>
<!DOCTYPE svg PUBLIC "-//W3C//DTD SVG 1.1//EN" "http://www.w3.org/Graphics/SVG/1.1/DTD/svg11.dtd">
<svg xmlns="http://www.w3.org/2000/svg">
<defs >
<font id="LibreBodoni" horiz-adv-x="524" ><font-face
    font-family="Libre Bodoni"
    units-per-em="1000"
    panose-1="2 7 5 3 7 6 0 0 0 3"
    ascent="924"
    descent="-326"
    alphabetic="0" />
<glyph unicode=" " horiz-adv-x="206" />
<glyph unicode="!" horiz-adv-x="254" d="M111 224Q111 326 103 396T83 514T63 599T54 671Q54 724 73 745T127 766Q157 766 178 747T200 669Q200 634 191 598T171 514T151 396T142 224H111ZM127 -12Q97 -12 76 9T54 61Q54 91 75 112T127 134Q157 134 178 113T200
61Q200 31 179 10T127 -12Z" />
<glyph unicode="&quot;" horiz-adv-x="395" d="M270 463Q270 525 263 562T246 623T229 665T221 704Q221 735 239 749T283 763Q308 763 326 749T345 704Q345 683 338 665T321 624T304 563T296 463H270ZM99 463Q99 525 92 562T75 623T58 665T50 704Q50 735 68 749T112
763Q137 763 155 749T174 704Q174 683 167 665T150 624T133 563T125 463H99Z" />
<glyph unicode="#" horiz-adv-x="546" d="M0 236V276H498V236H0ZM49 475V515H547V475H49ZM77 0L197 763H245L125 0H77ZM294 0L414 763H462L342 0H294Z" />
<glyph unicode="$" horiz-adv-x="556" d="M243 -13Q178 -13 128 6T51 59T23 135Q23 170 42 193T97 216Q126 216 141 202T157 162Q157 140 147 129T124 111T100 99T90 82Q90 69 108 54T162 28T245 17Q337 17 388 60T440 175Q440 210 428 232T393 268T334 293T253
316Q208 328 171 344T106 383T63 441T48 521Q48 592 81 639T168 709T285 733Q343 733 385 715T450 666T473 595Q473 561 457 542T414 522Q395 522 379 533T362 570Q362 589 370 598T389 612T408 624T416 642Q416 665 381 684T283 703Q236 703 197 689T134 645T110
566Q110 534 122 513T172 472T285 429Q330 414 369 398T437 359T482 302T499 217Q499 150 469 98T382 17T243 -13ZM193 -113V801H222V-113H193ZM305 -113V801H334V-113H305Z" />
<glyph unicode="%" horiz-adv-x="913" d="M206 0L636 753H695L265 0H206ZM226 351Q175 351 135 377T71 449T47 556Q47 617 70 663T134 736T226 762Q277 762 318 736T382 664T406 556Q406 495 383 449T318 377T226 351ZM226 372Q254 372 271 387T295 441T303 556Q303
632 296 672T271 727T226 742Q197 742 180 727T156 672T149 556Q149 481 156 442T180 387T226 372ZM686 -8Q635 -8 595 18T531 90T507 197Q507 258 530 304T594 377T686 403Q737 403 778 377T842 305T866 197Q866 136 843 90T778 18T686 -8ZM686 13Q714 13 731
28T755 82T763 197Q763 273 756 313T731 368T686 383Q657 383 640 368T616 313T609 197Q609 122 616 83T640 28T686 13Z" />
<glyph unicode="&amp;" horiz-adv-x="800" d="M535 0L239 465Q220 495 200 527T180 606Q180 649 201 685T266 744T375 767Q430 767 471 751T535 705T559 636Q559 611 545 581T493 521T382 466L354 491Q399 496 427 537T456 636Q456 685 434 711T371 737Q329 737
307 714T284 657Q284 631 297 606T326 556L689 0H535ZM271 -13Q191 -13 135 14T49 87T20 189Q20 253 54 303T143 391T263 457L284 430Q209 404 182 360T155 260Q155 213 169 172T208 101T265 53T335 36Q370 36 407 55T493 122L515 100Q454 35 395 11T271 -13ZM575
0V25H766V0H575ZM579 160L556 188Q585 222 606 268T638 366T649 464H683Q683 415 669 358T631 249T579 160ZM530 455V480H791V455H530Z" />
<glyph unicode="&apos;" horiz-adv-x="224" d="M99 463Q99 525 92 562T75 623T58 665T50 704Q50 735 68 749T112 763Q137 763 155 749T174 704Q174 683 167 665T150 624T133 563T125 463H99Z" />
<glyph unicode="(" horiz-adv-x="309" d="M282 -136Q210 -59 163 16T93 170T70 332Q70 415 92 492T162 646T284 804L309 788Q288 760 265 722T223 629T191 503T178 334Q178 210 198 122T248 -25T307 -123L282 -136Z" />
<glyph unicode=")" horiz-adv-x="309" d="M27 -136L2 -123Q32 -84 61 -25T111 122T131 334Q131 430 119 502T87 629T44 721T0 788L25 804Q99 723 146 647T216 493T239 332Q239 248 216 170T147 17T27 -136Z" />
<glyph unicode="*" horiz-adv-x="443" d="M221 336Q198 336 187 351T175 388Q175 407 181 425T195 465T206 520L203 522Q178 506 162 489T133 455T108 429T76 419Q52 419 41 434T30 465Q30 492 59 508Q78 519 96 522T136 529T187 547V551Q158 565 136 569T96 576T59
590Q30 606 30 633Q30 650 41 664T76 679Q95 679 108 669T133 643T161 610T203 576L206 578Q204 611 196 633T182 673T175 711Q175 734 186 748T221 763Q246 763 257 747T269 709Q269 690 263 673T249 633T238 578L241 576Q265 591 281 608T309 642T335 669T366
679Q391 679 402 663T413 631Q413 618 405 607T384 588Q368 579 350 576T309 568T258 551V547Q287 534 309 530T349 523T384 510Q397 503 405 492T413 467Q413 452 402 436T366 419Q348 419 335 429T310 455T281 489T241 522L238 520Q241 489 248 467T262 427T269
390Q269 368 258 352T221 336Z" />
<glyph unicode="+" horiz-adv-x="578" d="M267 74V612H311V74H267ZM40 321V365H538V321H40Z" />
<glyph unicode="," horiz-adv-x="232" d="M55 -165L49 -143Q102 -117 135 -77T168 4Q168 18 164 25T151 32Q141 32 137 24T124 6T94 -3Q66 -3 50 14T34 60Q34 91 53 108T106 125Q149 125 173 98T198 22Q198 -37 160 -87T55 -165Z" />
<glyph unicode="-" horiz-adv-x="395" d="M50 202V246H345V202H50Z" />
<glyph unicode="." horiz-adv-x="226" d="M113 -12Q83 -12 62 9T40 61Q40 91 61 112T113 134Q143 134 164 113T186 61Q186 31 165 10T113 -12Z" />
<glyph unicode="/" horiz-adv-x="190" d="M-20 0L190 753H249L39 0H-20Z" />
<glyph unicode="0" horiz-adv-x="663" d="M331 -12Q270 -12 219 16T129 96T69 214T47 360Q47 438 68 505T128 624T218 703T331 732Q392 732 444 704T534 624T594 506T616 360Q616 282 595 215T535 96T444 17T331 -12ZM331 18Q369 18 395 32T436 84T459 188T466
360Q466 464 459 531T437 635T395 687T331 702Q292 702 267 688T226 636T204 531T197 360Q197 255 203 189T225 85T266 33T331 18Z" />
<glyph unicode="1" horiz-adv-x="431" d="M11 0V25H161V691H11V716H280V25H420V0H11Z" />
<glyph unicode="2" horiz-adv-x="570" d="M35 0V77L250 277Q301 325 329 361T369 432T381 509Q381 592 346 639T242 687Q201 687 167 671T111 629T90 576Q90 565 93 561T103 557Q113 557 124 563T154 569Q179 569 194 555T210 512Q210 478 190 464T142 449Q112
449 93 464T64 503T54 555Q54 612 87 651T172 711T283 732Q325 732 366 721T441 686T495 628T515 543Q515 519 507 491T477 429T409 355L124 100V96H429Q453 96 466 102T484 130T490 200H515V0H35Z" />
<glyph unicode="3" horiz-adv-x="552" d="M238 -12Q175 -12 128 5T53 53T26 123Q26 156 44 175T91 195Q109 195 123 188T146 167T155 135Q155 119 149 110T134 95T120 84T113 67Q113 49 132 39T178 23T226 18Q296 18 333 65T371 200Q371 283 333 327T206 371L304
394Q366 387 412 360T485 291T511 200Q511 146 479 98T385 19T238 -12ZM128 371V401H304V371H128ZM245 390L187 401Q268 401 303 446T338 572Q338 623 326 651T290 690T233 702Q196 702 171 691T146 661Q146 650 154 643T170 627T178 598Q178 572 161 560T124 547Q99
547 82 565T64 609Q64 638 86 666T152 713T256 732Q323 732 370 709T443 649T468 570Q468 525 441 487T363 423T245 390Z" />
<glyph unicode="4" horiz-adv-x="595" d="M214 0V25H313V200H18V228L358 732H431V227H539V306H565V118H539V200H432V25H517V0H214ZM56 227H312V599H308L56 231V227Z" />
<glyph unicode="5" horiz-adv-x="551" d="M239 -12Q181 -12 134 5T60 52T32 123Q32 156 50 176T97 197Q124 197 142 182T161 141Q161 124 154 115T138 99T121 85T114 66Q114 51 129 40T167 24T218 18Q294 18 336 65T379 208Q379 311 333 358T214 406Q183 406 151
398T99 377L106 415Q113 419 131 424T176 433T237 437Q325 437 387 409T483 333T517 222Q517 155 480 102T379 19T239 -12ZM99 377L83 387L120 716H155L118 396L99 377ZM145 620L120 716H386Q419 716 433 722T458 748H483L447 620H145Z" />
<glyph unicode="6" horiz-adv-x="606" d="M310 -12Q237 -12 178 25T84 131T49 290Q49 385 87 467T190 613T339 712T514 752V723Q428 717 362 678T254 575T201 426L204 425Q231 449 262 461T334 474Q401 474 455 443T543 358T576 238Q576 184 554 138T495 59T410
7T310 -12ZM308 18Q355 18 381 35T419 99T431 231Q431 318 421 364T389 427T332 444Q286 444 252 423T197 368Q191 332 189 292T187 221Q187 138 198 94T237 34T308 18Z" />
<glyph unicode="7" horiz-adv-x="504" d="M269 -12Q234 -12 213 9T192 76Q192 94 197 115T217 174T261 276L420 620H170Q143 620 126 613T95 584T65 518H40L86 716H497V704L362 408Q329 336 318 287T307 197Q307 166 312 147T323 114T334 88T339 56Q339 22 320
5T269 -12Z" />
<glyph unicode="8" horiz-adv-x="613" d="M306 -12Q217 -12 159 15T71 88T42 190Q42 230 67 268T138 334T240 374V378H374V374Q431 362 475 334T545 268T571 190Q571 134 542 88T454 15T306 -12ZM306 18Q374 18 402 58T431 190Q431 273 403 317T306 361Q238 361
210 317T182 190Q182 98 210 58T306 18ZM307 386Q364 386 387 428T411 550Q411 632 388 667T307 702Q250 702 226 667T202 550Q202 471 226 429T307 386ZM307 371Q242 371 189 393T104 457T72 555Q72 604 98 644T177 708T307 732Q385 732 437 708T515 644T541 555Q541
499 510 458T425 394T307 371Z" />
<glyph unicode="9" horiz-adv-x="606" d="M106 -32V-3Q192 4 258 43T366 146T419 294L416 295Q389 271 358 259T286 246Q220 246 165 277T77 362T44 482Q44 536 66 582T125 661T210 713T310 732Q383 732 442 695T536 590T571 430Q571 335 533 253T430 107T281
8T106 -32ZM288 276Q334 276 368 297T423 352Q429 388 431 428T433 499Q433 582 422 626T384 686T312 702Q266 702 239 685T201 621T189 489Q189 403 199 357T232 293T288 276Z" />
<glyph unicode=":" horiz-adv-x="226" d="M113 285Q83 285 62 306T40 358Q40 388 61 409T113 431Q143 431 164 410T186 358Q186 328 165 307T113 285ZM113 -12Q83 -12 62 9T40 61Q40 91 61 112T113 134Q143 134 164 113T186 61Q186 31 165 10T113 -12Z" />
<glyph unicode=";" horiz-adv-x="280" d="M55 -165L49 -143Q102 -117 135 -77T168 4Q168 18 164 25T151 32Q141 32 137 24T124 6T94 -3Q66 -3 50 14T34 60Q34 91 53 108T106 125Q149 125 173 98T198 22Q198 -37 160 -87T55 -165ZM116 285Q86 285 65 306T43 358Q43
388 64 409T116 431Q146 431 167 410T189 358Q189 328 168 307T116 285Z" />
<glyph unicode="&lt;" horiz-adv-x="588" d="M528 82L60 316V373L528 139V82ZM60 319V373L528 607V553L60 319Z" />
<glyph unicode="=" horiz-adv-x="598" d="M50 402V450H548V402H50ZM50 235V283H548V235H50Z" />
<glyph unicode="&gt;" horiz-adv-x="588" d="M60 82V139L528 373V316L60 82ZM528 319L60 553V607L528 373V319Z" />
<glyph unicode="?" horiz-adv-x="414" d="M152 222Q145 251 144 273T143 307Q143 365 161 405T205 473T258 525T302 572T320 628Q320 664 303 688T257 726T197 739Q165 739 139 729T97 704T82 674Q82 661 90 655T109 644T128 629T136 598Q136 574 121 564T83 554Q58
554 41 572T24 627Q24 662 45 694T104 746T191 766Q249 766 291 742T358 674T382 567Q382 525 368 494T331 437T282 390T234 343T197 290T182 222H152ZM178 -12Q148 -12 127 9T105 61Q105 91 126 112T178 134Q208 134 229 113T251 61Q251 31 230 10T178 -12Z" />
<glyph unicode="@" horiz-adv-x="835" d="M395 -152Q305 -152 231 -114T114 2T70 199Q70 302 103 382T192 517T322 601T477 630Q576 630 644 591T749 485T785 335Q785 275 767 223T717 130T643 67T552 44Q513 44 492 60T471 112Q471 123 474 139T485 189L548 443H656L582
131Q579 121 579 114Q579 94 605 94Q639 94 672 124T729 207T752 331Q752 419 715 478T615 569T474 600Q398 600 331 571T212 489T132 362T103 199Q103 105 137 33T236 -81T395 -122Q432 -122 474 -113T559 -79T642 -7L660 -32Q596 -97 533 -124T395 -152ZM351
44Q320 44 291 60T244 109T225 194Q225 247 245 294T297 377T370 433T449 454Q481 454 499 439T530 390H536L516 309Q516 319 517 325T518 341Q518 372 504 396T465 420Q441 420 418 396T376 331T346 243T335 148Q335 110 343 95T371 80Q390 80 414 94T462 143T499
237L471 115H464Q450 90 422 67T351 44Z" />
<glyph unicode="A" horiz-adv-x="686" d="M478 15L294 565H290L283 594L331 766H361L612 15H478ZM-16 0V25H224V0H-16ZM179 236V261H503V236H179ZM358 0V25H701V0H358ZM70 15L331 766H361L300 594L103 15H70Z" />
<glyph unicode="B" horiz-adv-x="703" d="M-6 0V25H340Q387 25 420 39T472 94T490 209Q490 277 473 314T417 367T310 382L280 412Q384 412 466 390T595 321T643 204Q643 144 609 98T515 26T380 0H-6ZM104 15V754H238V15H104ZM207 382V412H340Q386 412 414 424T456
470T470 568Q470 636 456 670T413 717T340 729H-6V754H380Q446 754 499 731T583 666T615 572Q615 516 578 473T479 406T340 382H207Z" />
<glyph unicode="C" horiz-adv-x="687" d="M393 -12Q320 -12 257 19T146 105T73 230T46 377Q46 454 73 524T147 648T259 734T396 766Q443 766 484 751T564 704L603 754H628V528H603Q592 584 568 631T503 707T395 736Q352 736 318 721T258 666T220 556T206 377Q206
268 219 198T256 89T315 34T393 18Q462 18 506 44T575 114T612 212H637V0H612L578 46Q538 16 490 2T393 -12Z" />
<glyph unicode="D" horiz-adv-x="777" d="M11 0V25H346Q408 25 451 40T521 93T560 201T573 377Q573 484 561 553T521 660T450 714T345 729H11V754H377Q452 754 516 724T630 640T706 519T733 377Q733 303 706 235T630 114T516 31T376 0H11ZM121 15V754H255V15H121Z" />
<glyph unicode="E" horiz-adv-x="691" d="M8 0V25H446Q496 25 530 54T584 131T604 235H639V0H8ZM126 15V744H260V15H126ZM415 216Q414 272 400 304T353 349T257 363V388Q319 388 353 400T401 442T415 526H450V216H415ZM574 549Q573 598 554 638T501 704T416 729H8V754H609V549H574Z"
/>
<glyph unicode="F" horiz-adv-x="658" d="M587 509Q586 568 567 618T514 698T429 729H11V754H622V509H587ZM11 0V25H373V0H11ZM129 15V754H263V15H129ZM418 216Q417 272 403 304T356 349T260 363V388Q322 388 356 400T404 442T418 526H453V216H418Z" />
<glyph unicode="G" horiz-adv-x="737" d="M381 -12Q303 -12 241 20T136 106T69 229T45 370Q45 448 71 519T145 646T255 734T394 766Q441 766 481 751T558 704L602 754H627V528H602Q591 584 567 631T502 707T394 736Q352 736 318 720T258 664T219 551T205 365Q205
261 217 194T251 88T305 35T378 20Q443 20 479 51T516 140V283H665V259Q665 174 626 114T522 21T381 -12ZM393 268V293H723V268H393Z" />
<glyph unicode="H" horiz-adv-x="801" d="M13 0V25H123V729H13V754H367V729H257V400H545V729H435V754H789V729H679V25H789V0H435V25H545V375H257V25H367V0H13Z" />
<glyph unicode="I" horiz-adv-x="379" d="M123 15V754H257V15H123ZM13 0V25H367V0H13ZM13 729V754H367V729H13Z" />
<glyph unicode="J" horiz-adv-x="460" d="M91 -108Q36 -108 4 -78T-29 -5Q-29 32 -8 51T39 70Q66 70 84 52T102 7Q102 -14 93 -27T84 -55Q84 -65 91 -70T108 -75Q126 -75 141 -58T166 2T176 125V754H310V125Q310 78 292 36T243 -38T173 -89T91 -108ZM46 729V754H400V729H46Z"
/>
<glyph unicode="K" horiz-adv-x="729" d="M13 0V25H123V729H13V754H357V729H257V25H357V0H13ZM436 0V25H784V0H436ZM555 15L267 384L362 469L723 15H555ZM235 310V361L569 736H612L235 310ZM438 729V754H721V729H438Z" />
<glyph unicode="L" horiz-adv-x="662" d="M13 0V25H436Q486 25 520 54T574 131T594 235H629V0H13ZM131 15V754H265V15H131ZM13 729V754H386V729H13Z" />
<glyph unicode="M" horiz-adv-x="884" d="M379 -9L165 665H161V25H271V0H12V25H122V729H12V754H283L442 226H446L609 754H872V729H762V25H872V0H518V25H628V665H624L415 -9H379Z" />
<glyph unicode="N" horiz-adv-x="744" d="M602 -12L166 683H162V25H272V0H13V25H123V729H13V754H284L590 268H594V729H494V754H733V729H633V-12H602Z" />
<glyph unicode="O" horiz-adv-x="782" d="M391 -12Q318 -12 255 19T145 104T71 229T44 377Q44 455 70 525T144 649T255 735T391 766Q464 766 527 735T637 650T711 525T738 377Q738 299 712 229T638 105T527 19T391 -12ZM391 18Q442 18 477 34T535 91T568 201T578
378Q578 485 568 555T536 664T478 720T391 736Q340 736 305 720T247 664T214 554T204 377Q204 270 214 200T246 90T304 34T391 18Z" />
<glyph unicode="P" horiz-adv-x="684" d="M224 342V372H307Q375 372 417 386T478 441T497 558Q497 629 482 666T435 716T357 729H11V754H397Q469 754 526 728T618 657T652 552Q652 490 611 443T492 369T307 342H224ZM11 0V25H385V0H11ZM121 15V754H255V15H121Z" />
<glyph unicode="Q" horiz-adv-x="782" d="M391 -12Q318 -12 256 19T146 104T72 229T45 377Q45 455 71 525T145 649T255 735T391 766Q464 766 527 735T637 650T711 525T738 377Q738 299 712 229T638 105T527 19T391 -12ZM685 -256Q547 -256 466 -232T348 -150T312
7H473Q472 -7 471 -22T470 -49Q470 -122 495 -160T568 -212T685 -226V-256ZM391 18Q442 18 477 34T535 91T568 201T578 378Q578 485 568 555T535 664T477 720T390 736Q339 736 304 720T247 664T215 554T205 377Q205 270 215 200T247 90T304 34T391 18Z" />
<glyph unicode="R" horiz-adv-x="691" d="M226 387V417H309Q369 417 406 430T461 479T479 585Q479 646 466 676T427 718T359 729H13V754H399Q464 754 517 734T602 675T634 582Q634 524 595 480T484 412T309 387H226ZM13 0V25H387V0H13ZM123 15V754H257V15H123ZM634
0Q585 0 546 19T483 72T458 153L455 232Q452 311 414 349T317 387L393 398H430V394Q473 384 512 355T578 285T604 196V144Q604 75 619 50T673 25H711V0H634Z" />
<glyph unicode="S" horiz-adv-x="574" d="M283 -12Q229 -12 191 3T115 47L79 0H54V210H80Q92 162 117 119T184 47T291 19Q348 19 385 40T441 95T460 165Q460 197 447 221T407 262T346 293T267 316Q195 333 150 364T82 439T60 543Q60 616 92 665T176 740T287 766Q335
766 370 753T443 710L469 754H494V550L469 549Q445 644 398 690T283 736Q242 736 207 719T150 674T129 608Q129 577 142 557T179 522T235 498T307 477Q379 458 427 428T499 350T524 232Q524 119 462 54T283 -12Z" />
<glyph unicode="T" horiz-adv-x="705" d="M160 0V25H290V729H214Q167 727 134 696T83 615T64 509H29V754H677V509H642Q641 568 622 618T569 698T484 729H424V25H554V0H160Z" />
<glyph unicode="U" horiz-adv-x="737" d="M387 -12Q307 -12 248 10T156 79T123 195V729H6V754H352V729H257V196Q257 103 300 63T418 23Q498 23 545 66T592 196V729H487V754H730V729H625V196Q625 89 566 39T387 -12Z" />
<glyph unicode="V" horiz-adv-x="714" d="M343 -12L87 739H221L407 194H411L421 160L373 -12H343ZM343 -12L401 165L596 739H629L373 -12H343ZM-6 729V754H341V729H-6ZM475 729V754H719V729H475Z" />
<glyph unicode="W" horiz-adv-x="907" d="M303 -12L50 729H-26V754H673V729H616L533 499L636 192H640L827 729H724V754H932V729H860L603 -12H573L455 333L333 -12H303ZM368 192H372L439 381L320 729H184L368 192ZM517 545L581 729H454L517 545Z" />
<glyph unicode="X" horiz-adv-x="674" d="M-22 0V25H73L283 363L78 729H-7V754H337V729H228L376 462L544 729H425V754H674V729H578L393 431L618 25H696V0H354V25H473L300 333L110 25H240V0H-22Z" />
<glyph unicode="Y" horiz-adv-x="657" d="M151 0V25H271V343L47 729H-42V754H305V729H197L386 402H390L569 729H433V754H698V729H602L405 362V25H525V0H151Z" />
<glyph unicode="Z" horiz-adv-x="651" d="M28 7V32L446 725V731L608 737V719L193 29V18L28 7ZM28 0V25H415Q465 25 499 55T553 136T573 245H608V0H28ZM68 549V754H608V729H261Q212 729 177 704T123 639T103 549H68Z" />
<glyph unicode="[" horiz-adv-x="318" d="M82 -123V788H301V763H191V-98H301V-123H82Z" />
<glyph unicode="\" horiz-adv-x="149" d="M150 0L-60 753H-1L209 0H150Z" />
<glyph unicode="]" horiz-adv-x="318" d="M17 -123V-98H127V763H17V788H236V-123H17Z" />
<glyph unicode="^" horiz-adv-x="501" d="M10 173L225 645H274L491 173H437L249 581L64 173H10Z" />
<glyph unicode="_" horiz-adv-x="538" d="M0 -114V-70H538V-114H0Z" />
<glyph unicode="`" horiz-adv-x="248" d="M195 554L60 648Q29 670 20 684T10 712Q10 730 22 742T56 754Q72 754 87 746T120 714L238 554H195Z" />
<glyph unicode="a" horiz-adv-x="506" d="M163 -12Q109 -12 75 19T41 100Q41 148 73 182T166 234T308 253V375Q308 401 288 416T233 431Q203 431 184 421T165 395Q165 385 172 377T179 352Q179 331 164 318T124 304Q100 304 86 318T72 355Q72 385 96 409T161 448T253
462Q326 462 372 434T418 359V55Q418 45 424 39T440 32Q449 32 461 41T491 71L505 55Q458 -12 400 -12Q365 -12 343 7T312 62H308Q289 30 248 9T163 -12ZM223 43Q261 43 284 71T308 146V227Q233 227 195 200T157 119Q157 83 174 63T223 43Z" />
<glyph unicode="b" horiz-adv-x="570" d="M330 -12Q284 -12 249 8T197 58H173L193 210Q193 113 229 68T319 22Q347 22 364 38T388 98T396 224Q396 307 388 351T363 411T318 428Q264 428 229 383T193 240L173 392H197Q214 422 249 442T331 462Q381 462 425 433T496
350T524 225Q524 154 497 101T425 18T330 -12ZM4 0V25H193V0H4ZM83 15V738H193V15H83ZM4 729V754H193V729H4Z" />
<glyph unicode="c" horiz-adv-x="505" d="M281 -12Q233 -12 191 8T117 62T67 138T49 226Q49 270 67 312T117 388T193 442T289 462Q333 462 369 448T427 408T449 348Q449 319 432 302T389 285Q365 285 346 299T327 341Q327 358 333 367T345 383T351 403Q351 420
335 427T288 435Q249 435 225 418T190 356T179 224Q179 143 189 98T222 36T284 18Q339 18 375 48T439 149H467Q448 77 401 33T281 -12Z" />
<glyph unicode="d" horiz-adv-x="568" d="M242 -12Q192 -12 148 17T76 100T48 225Q48 296 75 349T147 432T241 462Q288 462 323 442T375 392H399L379 240Q379 338 344 383T254 428Q226 428 209 412T184 351T176 224Q176 142 183 98T208 38T253 22Q307 22 343 67T379
210L399 58H375Q359 28 324 8T242 -12ZM379 0V25H557V0H379ZM379 15V738H489V15H379ZM280 729V754H489V729H280Z" />
<glyph unicode="e" horiz-adv-x="505" d="M274 -12Q226 -12 184 7T109 60T59 136T41 225Q41 286 69 340T149 428T269 462Q323 462 366 438T435 369T460 268V262H133V287H344V344Q344 435 264 435Q231 435 211 416T181 350T171 225Q171 144 181 99T214 36T277 18Q330
18 369 45T435 139H463Q443 69 393 29T274 -12Z" />
<glyph unicode="f" horiz-adv-x="362" d="M116 0V478Q116 575 134 638T191 733T287 765Q338 765 367 743T397 685Q397 659 382 643T341 627Q319 627 305 640T291 674Q291 686 294 693T301 706T305 721Q305 738 282 738Q252 738 239 711T226 618V0H116ZM19 0V25H339V0H19ZM19
425V450H349V425H19Z" />
<glyph unicode="g" horiz-adv-x="518" d="M240 -326V-326Q184 -326 139 -307T69 -255T43 -181Q43 -144 63 -113T120 -63V-59Q83 -43 65 -16T47 52Q47 102 75 131T156 165Q119 187 95 223T71 301Q71 343 95 379T158 439T242 462Q280 462 313 446T371 402Q382 429
403 445T450 462Q474 462 489 449T504 414Q504 395 493 384T463 372Q445 372 439 381T428 400T411 409Q403 409 399 402T392 375Q403 358 408 340T414 301Q414 260 390 223T327 164T242 141H179Q139 141 113 125T87 82Q87 63 102 52T142 40H349Q392 40 419 27T459
-16T472 -90Q472 -161 443 -214T362 -296T240 -326ZM249 -296V-296Q297 -296 338 -273T405 -213T431 -132Q431 -99 415 -81T370 -62H159Q141 -75 128 -107T115 -172Q115 -226 153 -261T249 -296ZM241 168Q269 168 284 179T305 220T311 300Q311 351 305 379T284
418T241 430Q214 430 200 419T180 380T174 300Q174 248 179 220T199 180T241 168Z" />
<glyph unicode="h" horiz-adv-x="596" d="M396 15V353Q396 391 380 409T333 428Q299 428 271 401T226 328T209 222L189 367H213Q235 408 272 435T368 462Q429 462 467 431T506 353V15H396ZM20 0V25H274V0H20ZM320 0V25H574V0H320ZM99 15V738H209V15H99ZM20 729V754H209V729H20Z"
/>
<glyph unicode="i" horiz-adv-x="330" d="M114 15V425H224V15H114ZM35 0V25H304V0H35ZM25 416V441H224V416H25ZM167 854Q140 854 121 873T101 920Q101 947 120 966T167 986Q194 986 213 967T233 920Q233 893 214 874T167 854Z" />
<glyph unicode="j" horiz-adv-x="330" d="M47 -326V-326Q4 -326 -19 -306T-42 -256Q-42 -230 -26 -214T13 -198Q33 -198 48 -210T64 -242Q64 -249 63 -258T61 -274Q61 -284 67 -288T79 -293Q91 -293 102 -274T114 -197V425H25V450H224V-47Q224 -141 201 -203T137
-295T47 -326ZM167 854Q140 854 121 873T101 920Q101 947 120 966T167 986Q194 986 213 967T233 920Q233 893 214 874T167 854Z" />
<glyph unicode="k" horiz-adv-x="522" d="M386 15L208 249L300 306L529 15H386ZM12 0V25H256V0H12ZM318 0V25H564V0H318ZM91 15V738H201V15H91ZM251 249H208L391 433H434L251 249ZM12 729V754H201V729H12ZM285 425V450H517V425H285Z" />
<glyph unicode="l" horiz-adv-x="296" d="M92 15V738H202V15H92ZM13 0V25H282V0H13ZM13 729V754H202V729H13Z" />
<glyph unicode="m" horiz-adv-x="876" d="M676 15V353Q676 428 619 428Q587 428 560 401T517 328T501 222L481 367H505Q525 408 561 435T654 462Q712 462 749 431T786 353V15H676ZM27 0V25H281V0H27ZM106 15V434H216V15H106ZM315 0V25H569V0H315ZM27 425V450H216V425H27ZM391
15V353Q391 428 334 428Q302 428 275 401T232 328T216 222L196 367H220Q240 408 276 435T369 462Q427 462 464 431T501 353V15H391ZM600 0V25H854V0H600Z" />
<glyph unicode="n" horiz-adv-x="596" d="M398 15V353Q398 428 338 428Q305 428 278 401T234 328T217 222L197 367H221Q242 408 278 435T373 462Q432 462 470 431T508 353V15H398ZM28 0V25H282V0H28ZM107 15V434H217V15H107ZM322 0V25H576V0H322ZM28 425V450H217V425H28Z" />
<glyph unicode="o" horiz-adv-x="562" d="M281 -12Q232 -12 190 8T115 61T64 137T46 225Q46 270 64 312T114 388T189 442T281 462Q330 462 372 442T447 389T498 313T516 225Q516 180 498 138T448 62T373 8T281 -12ZM281 18Q319 18 342 35T375 96T386 225Q386 309
376 354T342 415T281 432Q243 432 220 416T187 354T176 225Q176 141 186 97T220 35T281 18Z" />
<glyph unicode="p" horiz-adv-x="578" d="M335 -12Q289 -12 254 8T202 58H178L198 210Q198 113 234 68T324 22Q352 22 369 38T393 98T401 224Q401 307 393 351T368 411T323 428Q269 428 234 383T198 240L178 392H202Q219 422 254 442T336 462Q386 462 430 433T501
350T529 225Q529 154 502 101T430 18T335 -12ZM19 -314V-289H298V-314H19ZM88 -299V434H198V-299H88ZM9 425V450H198V425H9Z" />
<glyph unicode="q" horiz-adv-x="578" d="M244 -12Q194 -12 150 17T78 100T50 225Q50 296 77 349T149 432T243 462Q290 462 325 442T377 392H401L381 240Q381 338 346 383T256 428Q228 428 211 412T186 351T178 224Q178 142 185 98T210 38T255 22Q309 22 345 67T381
210L401 58H377Q361 28 326 8T244 -12ZM291 -314V-289H570V-314H291ZM381 -299V442H491V-299H381ZM381 425V450H570V425H381Z" />
<glyph unicode="r" horiz-adv-x="432" d="M28 0V25H107V425H28V450H217V371H221Q246 425 278 443T339 462Q371 462 389 444T408 391Q408 360 390 346T348 331Q329 331 314 341T298 371Q298 377 299 381T301 391Q301 396 298 400T285 404Q272 404 256 384T229 329T217
252V25H307V0H28Z" />
<glyph unicode="s" horiz-adv-x="438" d="M239 -12Q198 -12 160 2T97 39L82 0H53V153H85L90 134Q104 80 140 52T238 24Q288 24 308 41T328 92Q328 125 301 140T218 168Q170 178 135 193T79 237T59 316Q59 387 100 424T217 462Q260 462 291 450T336 417L347 450H373V305H342L339
320Q328 376 301 401T219 426Q171 426 148 408T124 356Q124 340 133 328T166 305T235 285Q286 274 321 257T374 212T393 139Q393 70 351 29T239 -12Z" />
<glyph unicode="t" horiz-adv-x="354" d="M196 -13Q144 -13 119 8T93 71V424H12V449Q47 452 77 476T133 539T175 622H203V449H318V424H203V78Q203 33 240 33Q261 33 278 47T315 96L335 85Q310 30 278 9T196 -13Z" />
<glyph unicode="u" horiz-adv-x="570" d="M216 -12Q158 -12 122 19T85 97V435H195V100Q195 63 210 44T251 25Q282 25 308 52T351 125T368 228L388 78H364Q342 39 307 14T216 -12ZM368 0V25H557V0H368ZM7 425V450H195V425H7ZM368 16V435H478V16H368ZM286 425V450H478V425H286Z"
/>
<glyph unicode="v" horiz-adv-x="498" d="M-13 425V450H231V425H-13ZM327 425V450H506V425H327ZM241 -12L41 441L162 447L289 135H294L241 -12ZM241 -12L399 433H435L270 -12H241Z" />
<glyph unicode="w" horiz-adv-x="686" d="M204 -12L50 425H-12V450H230V425H173L261 156H265L369 450H407L513 156H517L606 425H532V450H713V425H641L490 -12H461L352 295H348L233 -12H204Z" />
<glyph unicode="x" horiz-adv-x="506" d="M340 15L33 440H166L477 15H340ZM-9 0V25H189V0H-9ZM67 18L217 226L235 202L103 18H67ZM274 0V25H522V0H274ZM-11 425V450H237V425H-11ZM269 228L248 249L380 432H416L269 228ZM309 425V450H497V425H309Z" />
<glyph unicode="y" horiz-adv-x="486" d="M76 -326Q51 -326 37 -316T18 -292T12 -266Q12 -242 26 -228T63 -213Q83 -213 94 -222T112 -241T129 -251Q137 -251 141 -244T149 -228L386 432H422L182 -216Q157 -283 130 -304T76 -326ZM238 15L41 440L162 446L285 159H291L238
15ZM-11 425V450H237V425H-11ZM309 425V450H497V425H309Z" />
<glyph unicode="z" horiz-adv-x="480" d="M49 15L46 35L314 440H408L422 415L161 15H49ZM46 0V35L54 25H268Q324 25 363 61T405 169L406 185H431V0H46ZM68 275V450H422V415L414 425H231Q188 425 158 405T111 350T93 275H68Z" />
<glyph unicode="{" horiz-adv-x="312" d="M319 -123Q254 -123 215 -116T155 -90T127 -34T120 59V201Q120 272 107 297T54 323V340Q93 340 106 366T120 462V605Q120 662 127 698T154 753T214 780T319 787V762Q284 762 264 751T237 711T229 632V459Q229 397 207
369T127 334V330Q185 323 207 295T229 204V32Q229 -18 236 -46T264 -86T319 -98V-123Z" />
<glyph unicode="|" horiz-adv-x="367" d="M154 -123V788H213V-123H154Z" />
<glyph unicode="}" horiz-adv-x="312" d="M-7 -123V-98Q29 -98 48 -87T75 -47T83 32V204Q83 266 105 294T185 330V334Q127 341 105 369T83 459V632Q83 683 76 711T49 750T-7 762V787Q58 787 97 780T157 754T185 698T192 605V462Q192 392 205 366T258 340V323Q219
323 206 298T192 201V59Q192 2 185 -34T158 -89T98 -116T-7 -123Z" />
<glyph unicode="~" horiz-adv-x="475" d="M50 221L10 248Q33 284 64 313T145 343Q179 343 210 328T273 298T334 282Q368 282 387 300T424 345L465 320Q441 286 413 258T338 230Q305 230 273 245T210 276T147 291Q110 291 90 271T50 221Z" />
<glyph unicode="&#xa0;" horiz-adv-x="206" />
<glyph unicode="&#xa1;" horiz-adv-x="254" d="M127 -326V-326Q92 -326 73 -305T54 -231Q54 -196 62 -160T82 -75T102 44T111 216H142Q142 114 151 45T171 -73T191 -158T200 -229Q200 -288 179 -307T127 -326ZM127 306Q97 306 76 327T54 379Q54 409 75 430T127
452Q157 452 178 431T200 379Q200 349 179 328T127 306Z" />
<glyph unicode="&#xa2;" horiz-adv-x="478" d="M259 136Q211 136 169 155T95 208T45 283T27 370Q27 414 45 455T95 530T171 583T267 603Q311 603 347 589T405 549T427 489Q427 460 410 443T367 426Q343 426 324 440T305 482Q305 499 311 508T323 524T329 544Q329
576 266 576Q227 576 203 560T168 499T157 368Q157 287 167 244T200 183T262 166Q317 166 353 196T417 297H445Q426 225 379 181T259 136ZM238 6V734H267V6H238Z" />
<glyph unicode="&#xa3;" horiz-adv-x="559" d="M102 -20Q62 -20 39 2T16 60Q16 103 46 123T114 144Q136 144 157 139T199 126Q201 133 201 140T201 154Q201 187 191 221T168 292T144 374T134 470Q134 543 158 602T230 697T350 733Q399 733 437 716T498 669T521
596Q521 564 506 542T458 519Q433 519 420 533T406 568Q406 586 415 596T435 612T455 624T464 643Q464 660 440 681T363 703Q300 703 273 667T246 571Q246 528 256 484T276 391T286 286Q286 195 250 111Q279 95 312 87T377 79Q433 79 468 107T507 204H531Q531 165
526 126T505 53T459 0T379 -20Q346 -20 312 -6T226 54Q211 25 177 3T102 -20ZM102 10Q131 10 156 32T191 78Q177 92 153 101T109 110Q87 110 70 97T53 58Q53 36 67 23T102 10ZM41 355V399H415V355H41Z" />
<glyph unicode="&#xa4;" horiz-adv-x="669" d="M334 135Q269 135 216 166T132 251T100 368Q100 432 131 485T216 570T334 602Q399 602 452 570T537 485T569 368Q569 304 538 251T453 167T334 135ZM122 135L100 152L194 262L211 235L122 135ZM194 474L100 584L122
601L212 500L194 474ZM334 200Q381 200 419 222T481 283T504 368Q504 415 481 453T420 514T334 537Q287 537 249 514T188 453T165 368Q165 322 187 284T248 223T334 200ZM547 135L458 235L475 262L569 152L547 135ZM475 474L457 500L547 601L569 584L475 474Z"
/>
<glyph unicode="&#xa5;" horiz-adv-x="760" d="M203 0V25H323V343L99 729H10V754H357V729H249L438 402H442L621 729H485V754H750V729H654L457 362V25H577V0H203ZM141 208V252H633V208H141ZM141 334V378H633V334H141Z" />
<glyph unicode="&#xa6;" horiz-adv-x="367" d="M154 417V787H213V417H154ZM154 -123V247H213V-123H154Z" />
<glyph unicode="&#xa7;" horiz-adv-x="499" d="M307 130L303 155Q340 155 366 172T393 220Q393 248 372 273T316 325T244 379T171 442T116 519T94 613Q94 678 133 722T254 766Q325 766 368 733T412 653Q412 619 395 603T354 587Q326 587 313 603T300 637Q300 655
309 666T329 685T339 702Q339 713 316 724T256 736Q202 736 173 715T144 658Q144 626 166 598T225 543T301 488T377 426T436 353T459 263Q459 202 421 166T307 130ZM239 -123Q164 -123 121 -88T77 -2Q77 31 94 46T135 61Q163 61 176 45T189 11Q189 -6 180 -17T160
-37T150 -55Q150 -67 171 -80T239 -93Q289 -93 322 -75T355 -26Q355 0 332 26T274 81T198 142T121 210T63 288T40 380Q40 441 78 477T192 513L196 488Q159 488 133 471T106 423Q106 395 127 370T183 318T255 263T328 200T383 125T405 32Q405 -34 364 -78T239 -123Z"
/>
<glyph unicode="&#xa8;" horiz-adv-x="320" d="M255 572Q233 572 217 588T200 627Q200 650 216 666T255 682Q278 682 294 666T310 627Q310 605 294 589T255 572ZM65 572Q43 572 27 588T10 627Q10 650 26 666T65 682Q88 682 104 666T120 627Q120 605 104 589T65 572Z" />
<glyph unicode="&#xa9;" horiz-adv-x="833" d="M413 -10Q336 -10 269 20T150 103T69 224T40 370Q40 448 68 517T148 640T268 724T414 754Q493 754 562 725T683 643T764 521T793 370Q793 291 764 222T682 101T560 19T413 -10ZM419 152Q354 152 302 184T220 270T190
384Q190 444 220 495T302 577T421 609Q453 609 481 602T535 575L558 604H572V471H553Q543 518 513 552T420 587Q386 587 359 571T315 509T299 374Q299 295 312 252T352 192T419 175Q484 175 515 207T558 285H578V160H563L543 187Q490 152 419 152ZM413 29Q485 29
547 56T655 131T728 240T754 371Q754 443 728 505T655 614T547 688T414 715Q345 715 285 688T178 613T105 503T79 371Q79 300 105 238T178 129T285 56T413 29Z" />
<glyph unicode="&#xaa;" horiz-adv-x="336" d="M95 458Q61 458 38 478T15 532Q15 576 59 605T191 634V712Q191 735 143 735Q121 735 110 728T98 711Q98 704 102 699T107 683Q107 668 96 660T71 651Q55 651 46 661T36 685Q36 715 68 739T157 764Q210 764 242 744T274
691V510Q274 503 279 500T289 497Q294 497 298 499T308 509L321 492Q290 458 251 458Q228 458 214 471T195 507H191Q178 485 151 472T95 458ZM140 505Q160 505 175 519T191 563V607Q142 607 122 592T101 550Q101 505 140 505Z" />
<glyph unicode="&#xab;" horiz-adv-x="555" d="M480 38L280 209V231L480 402L495 391L384 220L495 53L480 38ZM270 38L70 209V231L270 402L285 391L174 220L285 53L270 38Z" />
<glyph unicode="&#xac;" horiz-adv-x="538" d="M20 282V326H518V282H20ZM441 72V307H518V72H441Z" />
<glyph unicode="&#xad;" horiz-adv-x="395" d="M50 202V246H345V202H50Z" />
<glyph unicode="&#xae;" horiz-adv-x="537" d="M269 323Q205 323 153 355T71 440T40 555Q40 618 70 671T153 755T269 787Q332 787 383 756T466 673T497 555Q497 490 466 438T383 354T269 323ZM148 427V445H282V427H148ZM178 433V695H245V433H178ZM269 357Q323
357 367 384T438 456T464 555Q464 610 438 655T367 727T269 754Q215 754 171 727T100 654T74 554Q74 500 100 456T171 384T269 357ZM363 427Q335 427 315 441T293 481V509Q290 565 266 565L293 569L317 574V568Q335 563 351 543T367 497V483Q367 461 370 453T383
445H396V427H363ZM234 565V580H264Q283 580 292 590T301 633Q301 660 293 668T268 676H148V695H286Q320 695 344 679T369 633Q369 603 342 584T264 565H234Z" />
<glyph unicode="&#xaf;" horiz-adv-x="340" d="M10 637V703H330V637H10Z" />
<glyph unicode="&#xb0;" horiz-adv-x="363" d="M199 459Q159 459 125 477T71 529T50 610Q50 658 70 692T125 744T200 763Q245 763 278 742T330 686T348 608Q348 562 328 529T274 477T199 459ZM201 503Q245 503 270 533T296 611Q296 656 272 687T201 718Q155 718
129 689T103 612Q103 565 129 534T201 503Z" />
<glyph unicode="&#xb1;" horiz-adv-x="578" d="M267 164V702H311V164H267ZM40 43V87H538V43H40ZM40 411V455H538V411H40Z" />
<glyph unicode="&#xb2;" horiz-adv-x="350" d="M17 459V516L146 614Q191 648 205 675T220 735Q220 783 199 810T142 838Q112 838 90 822T68 788Q68 777 76 777Q81 777 86 780T104 784Q123 784 132 772T141 743Q141 718 126 707T92 695Q61 695 48 716T34 762Q34
796 55 818T110 851T180 862Q215 862 247 852T300 818T321 755Q321 725 305 697T247 643L89 548V544H271Q290 544 297 553T304 602H321V459H17Z" />
<glyph unicode="&#xb3;" horiz-adv-x="337" d="M141 451Q81 451 47 473T13 532Q13 555 26 573T64 591Q78 591 94 583T111 547Q111 527 102 518T84 503T74 490Q74 483 85 479T110 474T133 472Q171 472 189 497T208 568Q208 615 186 639T111 663L172 678Q233 676
275 651T317 572Q317 541 296 513T235 468T141 451ZM76 663V684H172V663H76ZM139 678L100 684Q153 684 175 708T197 777Q197 817 183 829T143 842Q128 842 114 839T99 826Q99 819 107 814T122 801T130 778Q130 758 114 749T81 739Q62 739 49 750T36 784Q36 813
65 837T161 862Q226 862 262 838T299 772Q299 734 262 709T139 678Z" />
<glyph unicode="&#xb4;" horiz-adv-x="248" d="M10 554L128 714Q145 737 160 745T192 754Q214 754 226 742T238 712Q238 699 229 685T188 648L53 554H10Z" />
<glyph unicode="&#xb5;" horiz-adv-x="570" d="M216 -12Q158 -12 122 19T85 97V435H195V100Q195 63 210 44T251 25Q282 25 308 52T351 125T368 228L388 78H364Q342 39 307 14T216 -12ZM100 -254Q74 -254 62 -237T49 -190Q49 -165 54 -141T65 -85T77 -9T85 101L113
28H109Q113 -37 123 -76T143 -139T153 -188Q153 -217 140 -235T100 -254ZM368 0V25H557V0H368ZM7 425V450H195V425H7ZM368 16V435H478V16H368ZM286 425V450H478V425H286Z" />
<glyph unicode="&#xb6;" horiz-adv-x="626" d="M261 -123V309Q186 314 135 345T56 427T29 535Q29 598 62 647T148 725T261 754H617V731H472V-123H422V731H311V-123H261Z" />
<glyph unicode="&#xb7;" horiz-adv-x="166" d="M83 177Q53 177 32 198T10 250Q10 280 31 301T83 323Q113 323 134 302T156 250Q156 220 135 199T83 177Z" />
<glyph unicode="&#xb8;" horiz-adv-x="227" d="M90 -226Q60 -226 39 -220T10 -209L21 -184Q29 -188 45 -191T77 -195Q105 -195 121 -183T137 -145Q137 -91 62 -90L96 10H126L102 -66H121Q164 -66 190 -84T217 -138Q217 -178 182 -202T90 -226Z" />
<glyph unicode="&#xb9;" horiz-adv-x="270" d="M4 459V476H91V836H4V854H184V476H266V459H4Z" />
<glyph unicode="&#xba;" horiz-adv-x="338" d="M168 457Q125 457 91 479T36 537T15 611Q15 650 35 685T90 742T168 764Q211 764 246 742T302 685T323 611Q323 572 302 537T246 480T168 457ZM168 487Q190 487 203 497T221 533T227 611Q227 662 222 688T203 725T168
735Q147 735 134 725T116 689T110 611Q110 560 115 534T134 497T168 487Z" />
<glyph unicode="&#xbb;" horiz-adv-x="555" d="M295 38L280 53L391 220L280 391L295 402L495 231V209L295 38ZM85 38L70 53L181 220L70 391L85 402L285 231V209L85 38Z" />
<glyph unicode="&#xbc;" horiz-adv-x="846" d="M4 359V376H91V736H4V754H184V376H266V359H4ZM160 0L590 753H649L219 0H160ZM584 0V17H644V110H477V129L677 403H737V129H807V172H825V65H807V110H736V17H791V0H584ZM505 129H644V320H640L505 133V129Z" />
<glyph unicode="&#xbd;" horiz-adv-x="829" d="M4 359V376H91V736H4V754H184V376H266V359H4ZM160 0L590 753H649L219 0H160ZM496 0V57L625 155Q670 189 684 216T699 276Q699 324 678 351T621 379Q591 379 569 363T547 329Q547 318 555 318Q560 318 565 321T583
325Q602 325 611 313T620 284Q620 259 605 248T571 236Q540 236 527 257T513 303Q513 337 534 359T589 392T659 403Q694 403 726 393T779 359T800 296Q800 266 784 238T726 184L568 89V85H750Q769 85 776 94T783 143H800V0H496Z" />
<glyph unicode="&#xbe;" horiz-adv-x="873" d="M141 351Q81 351 47 373T13 432Q13 455 26 473T64 491Q78 491 94 483T111 447Q111 427 102 418T84 403T74 390Q74 383 85 379T110 374T133 372Q171 372 189 397T208 468Q208 515 186 539T111 563L172 578Q233 576
275 551T317 472Q317 441 296 413T235 368T141 351ZM76 563V584H172V563H76ZM139 578L100 584Q153 584 175 608T197 677Q197 717 183 729T143 742Q128 742 114 739T99 726Q99 719 107 714T122 701T130 678Q130 658 114 649T81 639Q62 639 49 650T36 684Q36 713
65 737T161 762Q226 762 262 738T299 672Q299 634 262 609T139 578ZM187 0L617 753H676L246 0H187ZM611 0V17H671V110H504V129L704 403H764V129H834V172H852V65H834V110H763V17H818V0H611ZM532 129H671V320H667L532 133V129Z" />
<glyph unicode="&#xbf;" horiz-adv-x="414" d="M223 -314Q166 -314 123 -290T56 -221T32 -115Q32 -73 46 -42T83 15T132 62T180 109T217 162T232 230H262Q269 202 270 179T271 145Q271 87 253 47T209 -21T157 -73T112 -120T94 -176Q94 -211 111 -236T157 -274T217
-287Q250 -287 276 -277T317 -252T332 -222Q332 -209 324 -203T305 -192T286 -177T278 -146Q278 -122 293 -112T331 -102Q356 -102 373 -120T390 -175Q390 -210 369 -242T310 -294T223 -314ZM236 316Q206 316 185 337T163 389Q163 419 184 440T236 462Q266 462
287 441T309 389Q309 359 288 338T236 316Z" />
<glyph unicode="&#xc0;" horiz-adv-x="686" d="M478 15L294 565H290L283 594L331 766H361L612 15H478ZM-16 0V25H224V0H-16ZM179 236V261H503V236H179ZM358 0V25H701V0H358ZM70 15L331 766H361L300 594L103 15H70ZM434 842L259 878Q234 883 222 897T209 931Q209
951 220 962T253 974Q264 974 277 968T326 938L477 842H434Z" />
<glyph unicode="&#xc1;" horiz-adv-x="686" d="M478 15L294 565H290L283 594L331 766H361L612 15H478ZM-16 0V25H224V0H-16ZM179 236V261H503V236H179ZM358 0V25H701V0H358ZM70 15L331 766H361L300 594L103 15H70ZM209 842L360 938Q395 961 409 967T433 974Q454
974 465 963T477 931Q477 912 465 898T427 878L252 842H209Z" />
<glyph unicode="&#xc2;" horiz-adv-x="686" d="M478 15L294 565H290L283 594L331 766H361L612 15H478ZM-16 0V25H224V0H-16ZM179 236V261H503V236H179ZM358 0V25H701V0H358ZM70 15L331 766H361L300 594L103 15H70ZM181 842L312 974H374L505 842H462L343 903L224 842H181Z" />
<glyph unicode="&#xc3;" horiz-adv-x="686" d="M478 15L294 565H290L283 594L331 766H361L612 15H478ZM-16 0V25H224V0H-16ZM179 236V261H503V236H179ZM358 0V25H701V0H358ZM70 15L331 766H361L300 594L103 15H70ZM167 842Q172 873 187 901T227 948T285 967Q312
967 334 955T378 931T422 919Q451 919 465 936T485 970H519Q512 939 497 910T459 862T400 843Q372 843 350 855T308 879T263 891Q238 891 222 877T200 842H167Z" />
<glyph unicode="&#xc4;" horiz-adv-x="686" d="M478 15L294 565H290L283 594L331 766H361L612 15H478ZM-16 0V25H224V0H-16ZM179 236V261H503V236H179ZM358 0V25H701V0H358ZM70 15L331 766H361L300 594L103 15H70ZM444 827Q420 827 403 844T385 885Q385 909 402
926T444 943Q468 943 485 926T502 885Q502 861 485 844T444 827ZM242 827Q218 827 201 844T184 885Q184 909 201 926T242 943Q266 943 283 926T301 885Q301 861 284 844T242 827Z" />
<glyph unicode="&#xc5;" horiz-adv-x="686" d="M478 15L294 565H290L283 594L331 766H361L612 15H478ZM-16 0V25H224V0H-16ZM179 236V261H503V236H179ZM358 0V25H701V0H358ZM70 15L331 766H361L300 594L103 15H70ZM343 822Q313 822 291 844T269 897Q269 927 291
948T343 969Q373 969 394 949T416 897Q416 866 395 844T343 822ZM343 855Q360 855 371 868T383 897Q383 913 371 924T343 936Q327 936 315 925T302 897Q302 881 314 868T343 855Z" />
<glyph unicode="&#xc6;" horiz-adv-x="1047" d="M10 0V25H108L442 729H339V754H980V549H945Q944 598 925 638T872 704T787 729H631V388Q692 388 725 400T772 442T786 526H821V216H786Q785 272 772 303T725 349T631 363V25H817Q867 25 901 54T955 131T975 235H1010V0H379V25H497V236H238L138
25H254V0H10ZM250 261H497V729H473L250 261Z" />
<glyph unicode="&#xc7;" horiz-adv-x="687" d="M393 -12Q320 -12 257 19T146 105T73 230T46 377Q46 454 73 524T147 648T259 734T396 766Q443 766 484 751T564 704L603 754H628V528H603Q592 584 568 631T503 707T395 736Q352 736 318 721T258 666T220 556T206
377Q206 268 219 198T256 89T315 34T393 18Q462 18 506 44T575 114T612 212H637V0H612L578 46Q538 16 490 2T393 -12ZM369 -226Q339 -226 318 -220T289 -209L300 -184Q308 -188 324 -191T356 -195Q384 -195 400 -183T416 -145Q416 -91 341 -90L375 10H405L381 -66H400Q443
-66 469 -84T496 -138Q496 -178 461 -202T369 -226Z" />
<glyph unicode="&#xc8;" horiz-adv-x="691" d="M8 0V25H446Q496 25 530 54T584 131T604 235H639V0H8ZM126 15V744H260V15H126ZM415 216Q414 272 400 304T353 349T257 363V388Q319 388 353 400T401 442T415 526H450V216H415ZM574 549Q573 598 554 638T501 704T416
729H8V754H609V549H574ZM437 842L262 878Q237 883 225 897T212 931Q212 951 223 962T256 974Q267 974 280 968T329 938L480 842H437Z" />
<glyph unicode="&#xc9;" horiz-adv-x="691" d="M8 0V25H446Q496 25 530 54T584 131T604 235H639V0H8ZM126 15V744H260V15H126ZM415 216Q414 272 400 304T353 349T257 363V388Q319 388 353 400T401 442T415 526H450V216H415ZM574 549Q573 598 554 638T501 704T416
729H8V754H609V549H574ZM212 842L363 938Q398 961 412 967T436 974Q457 974 468 963T480 931Q480 912 468 898T430 878L255 842H212Z" />
<glyph unicode="&#xca;" horiz-adv-x="691" d="M8 0V25H446Q496 25 530 54T584 131T604 235H639V0H8ZM126 15V744H260V15H126ZM415 216Q414 272 400 304T353 349T257 363V388Q319 388 353 400T401 442T415 526H450V216H415ZM574 549Q573 598 554 638T501 704T416
729H8V754H609V549H574ZM184 842L315 974H377L508 842H465L346 903L227 842H184Z" />
<glyph unicode="&#xcb;" horiz-adv-x="691" d="M8 0V25H446Q496 25 530 54T584 131T604 235H639V0H8ZM126 15V744H260V15H126ZM415 216Q414 272 400 304T353 349T257 363V388Q319 388 353 400T401 442T415 526H450V216H415ZM574 549Q573 598 554 638T501 704T416
729H8V754H609V549H574ZM447 827Q423 827 406 844T388 885Q388 909 405 926T447 943Q471 943 488 926T505 885Q505 861 488 844T447 827ZM245 827Q221 827 204 844T187 885Q187 909 204 926T245 943Q269 943 286 926T304 885Q304 861 287 844T245 827Z" />
<glyph unicode="&#xcc;" horiz-adv-x="379" d="M123 15V754H257V15H123ZM13 0V25H367V0H13ZM13 729V754H367V729H13ZM281 842L106 878Q81 883 69 897T56 931Q56 951 67 962T100 974Q111 974 124 968T173 938L324 842H281Z" />
<glyph unicode="&#xcd;" horiz-adv-x="379" d="M123 15V754H257V15H123ZM13 0V25H367V0H13ZM13 729V754H367V729H13ZM56 842L207 938Q242 961 256 967T280 974Q301 974 312 963T324 931Q324 912 312 898T274 878L99 842H56Z" />
<glyph unicode="&#xce;" horiz-adv-x="379" d="M123 15V754H257V15H123ZM13 0V25H367V0H13ZM13 729V754H367V729H13ZM28 842L159 974H221L352 842H309L190 903L71 842H28Z" />
<glyph unicode="&#xcf;" horiz-adv-x="379" d="M123 15V754H257V15H123ZM13 0V25H367V0H13ZM13 729V754H367V729H13ZM291 827Q267 827 250 844T232 885Q232 909 249 926T291 943Q315 943 332 926T349 885Q349 861 332 844T291 827ZM89 827Q65 827 48 844T31 885Q31
909 48 926T89 943Q113 943 130 926T148 885Q148 861 131 844T89 827Z" />
<glyph unicode="&#xd0;" horiz-adv-x="777" d="M11 0V25H346Q408 25 451 40T521 93T560 201T573 377Q573 484 561 553T521 660T450 714T345 729H11V754H377Q452 754 516 724T630 640T706 519T733 377Q733 303 706 235T630 114T516 31T376 0H11ZM121 15V754H255V15H121ZM2
371V406H367V371H2Z" />
<glyph unicode="&#xd1;" horiz-adv-x="744" d="M602 -12L166 683H162V25H272V0H13V25H123V729H13V754H284L590 268H594V729H494V754H733V729H633V-12H602ZM196 842Q201 873 216 901T256 948T314 967Q341 967 363 955T407 931T451 919Q480 919 494 936T514 970H548Q541
939 526 910T488 862T429 843Q401 843 379 855T337 879T292 891Q267 891 251 877T229 842H196Z" />
<glyph unicode="&#xd2;" horiz-adv-x="782" d="M391 -12Q318 -12 255 19T145 104T71 229T44 377Q44 455 70 525T144 649T255 735T391 766Q464 766 527 735T637 650T711 525T738 377Q738 299 712 229T638 105T527 19T391 -12ZM391 18Q442 18 477 34T535 91T568
201T578 378Q578 485 568 555T536 664T478 720T391 736Q340 736 305 720T247 664T214 554T204 377Q204 270 214 200T246 90T304 34T391 18ZM482 842L307 878Q282 883 270 897T257 931Q257 951 268 962T301 974Q312 974 325 968T374 938L525 842H482Z" />
<glyph unicode="&#xd3;" horiz-adv-x="782" d="M391 -12Q318 -12 255 19T145 104T71 229T44 377Q44 455 70 525T144 649T255 735T391 766Q464 766 527 735T637 650T711 525T738 377Q738 299 712 229T638 105T527 19T391 -12ZM391 18Q442 18 477 34T535 91T568
201T578 378Q578 485 568 555T536 664T478 720T391 736Q340 736 305 720T247 664T214 554T204 377Q204 270 214 200T246 90T304 34T391 18ZM257 842L408 938Q443 961 457 967T481 974Q502 974 513 963T525 931Q525 912 513 898T475 878L300 842H257Z" />
<glyph unicode="&#xd4;" horiz-adv-x="782" d="M391 -12Q318 -12 255 19T145 104T71 229T44 377Q44 455 70 525T144 649T255 735T391 766Q464 766 527 735T637 650T711 525T738 377Q738 299 712 229T638 105T527 19T391 -12ZM391 18Q442 18 477 34T535 91T568
201T578 378Q578 485 568 555T536 664T478 720T391 736Q340 736 305 720T247 664T214 554T204 377Q204 270 214 200T246 90T304 34T391 18ZM229 842L360 974H422L553 842H510L391 903L272 842H229Z" />
<glyph unicode="&#xd5;" horiz-adv-x="782" d="M391 -12Q318 -12 255 19T145 104T71 229T44 377Q44 455 70 525T144 649T255 735T391 766Q464 766 527 735T637 650T711 525T738 377Q738 299 712 229T638 105T527 19T391 -12ZM391 18Q442 18 477 34T535 91T568
201T578 378Q578 485 568 555T536 664T478 720T391 736Q340 736 305 720T247 664T214 554T204 377Q204 270 214 200T246 90T304 34T391 18ZM215 842Q220 873 235 901T275 948T333 967Q360 967 382 955T426 931T470 919Q499 919 513 936T533 970H567Q560 939 545
910T507 862T448 843Q420 843 398 855T356 879T311 891Q286 891 270 877T248 842H215Z" />
<glyph unicode="&#xd6;" horiz-adv-x="782" d="M391 -12Q318 -12 255 19T145 104T71 229T44 377Q44 455 70 525T144 649T255 735T391 766Q464 766 527 735T637 650T711 525T738 377Q738 299 712 229T638 105T527 19T391 -12ZM391 18Q442 18 477 34T535 91T568
201T578 378Q578 485 568 555T536 664T478 720T391 736Q340 736 305 720T247 664T214 554T204 377Q204 270 214 200T246 90T304 34T391 18ZM492 827Q468 827 451 844T433 885Q433 909 450 926T492 943Q516 943 533 926T550 885Q550 861 533 844T492 827ZM290 827Q266
827 249 844T232 885Q232 909 249 926T290 943Q314 943 331 926T349 885Q349 861 332 844T290 827Z" />
<glyph unicode="&#xd7;" horiz-adv-x="578" d="M478 122L68 532L100 564L510 154L478 122ZM98 124L70 156L478 564L508 534L98 124Z" />
<glyph unicode="&#xd8;" horiz-adv-x="753" d="M376 -13Q303 -13 241 18T131 105T57 231T30 380Q30 456 56 525T130 647T240 732T376 763Q449 763 512 732T622 648T696 525T723 380Q723 302 697 232T623 106T512 19T376 -13ZM80 -53L635 804H673L118 -53H80ZM376
17Q427 17 463 32T521 88T553 198T563 378Q563 486 553 555T521 663T462 717T375 733Q324 733 289 718T232 664T200 556T190 380Q190 269 200 198T231 88T289 33T376 17Z" />
<glyph unicode="&#xd9;" horiz-adv-x="737" d="M387 -12Q307 -12 248 10T156 79T123 195V729H6V754H352V729H257V196Q257 103 300 63T418 23Q498 23 545 66T592 196V729H487V754H730V729H625V196Q625 89 566 39T387 -12ZM494 842L319 878Q294 883 282 897T269
931Q269 951 280 962T313 974Q324 974 337 968T386 938L537 842H494Z" />
<glyph unicode="&#xda;" horiz-adv-x="737" d="M387 -12Q307 -12 248 10T156 79T123 195V729H6V754H352V729H257V196Q257 103 300 63T418 23Q498 23 545 66T592 196V729H487V754H730V729H625V196Q625 89 566 39T387 -12ZM269 842L420 938Q455 961 469 967T493
974Q514 974 525 963T537 931Q537 912 525 898T487 878L312 842H269Z" />
<glyph unicode="&#xdb;" horiz-adv-x="737" d="M387 -12Q307 -12 248 10T156 79T123 195V729H6V754H352V729H257V196Q257 103 300 63T418 23Q498 23 545 66T592 196V729H487V754H730V729H625V196Q625 89 566 39T387 -12ZM241 842L372 974H434L565 842H522L403
903L284 842H241Z" />
<glyph unicode="&#xdc;" horiz-adv-x="737" d="M387 -12Q307 -12 248 10T156 79T123 195V729H6V754H352V729H257V196Q257 103 300 63T418 23Q498 23 545 66T592 196V729H487V754H730V729H625V196Q625 89 566 39T387 -12ZM504 827Q480 827 463 844T445 885Q445
909 462 926T504 943Q528 943 545 926T562 885Q562 861 545 844T504 827ZM302 827Q278 827 261 844T244 885Q244 909 261 926T302 943Q326 943 343 926T361 885Q361 861 344 844T302 827Z" />
<glyph unicode="&#xdd;" horiz-adv-x="657" d="M151 0V25H271V343L47 729H-42V754H305V729H197L386 402H390L569 729H433V754H698V729H602L405 362V25H525V0H151ZM195 842L346 938Q381 961 395 967T419 974Q440 974 451 963T463 931Q463 912 451 898T413 878L238
842H195Z" />
<glyph unicode="&#xde;" horiz-adv-x="680" d="M17 0V25H127V728H17V753H391V728H261V591H403Q475 591 532 565T624 494T658 389Q658 327 617 280T498 206T313 179H261V25H391V0H17ZM261 209H313Q381 209 423 223T484 278T503 395Q503 466 488 503T441 553T363
566H261V209Z" />
<glyph unicode="&#xdf;" horiz-adv-x="561" d="M339 -6Q293 -6 266 17T238 72Q238 96 252 110T291 125Q311 125 325 114T339 80Q339 63 332 56T318 46T311 35Q311 28 319 24T336 19Q350 19 364 35T387 95T397 216Q397 298 385 342T348 404T286 422H249V448H287Q328
448 349 479T371 599Q371 657 362 686T334 725T290 736Q238 736 220 705T202 615V0H7V25H92V550Q92 653 141 708T288 763Q375 763 428 720T481 596Q481 548 462 517T413 467T345 439V435Q394 431 435 405T501 331T526 218Q526 149 500 99T430 21T339 -6Z" />
<glyph unicode="&#xe0;" horiz-adv-x="506" d="M163 -12Q109 -12 75 19T41 100Q41 148 73 182T166 234T308 253V375Q308 401 288 416T233 431Q203 431 184 421T165 395Q165 385 172 377T179 352Q179 331 164 318T124 304Q100 304 86 318T72 355Q72 385 96 409T161
448T253 462Q326 462 372 434T418 359V55Q418 45 424 39T440 32Q449 32 461 41T491 71L505 55Q458 -12 400 -12Q365 -12 343 7T312 62H308Q289 30 248 9T163 -12ZM223 43Q261 43 284 71T308 146V227Q233 227 195 200T157 119Q157 83 174 63T223 43ZM261 524L126
618Q95 640 86 654T76 682Q76 700 88 712T122 724Q138 724 153 716T186 684L304 524H261Z" />
<glyph unicode="&#xe1;" horiz-adv-x="506" d="M163 -12Q109 -12 75 19T41 100Q41 148 73 182T166 234T308 253V375Q308 401 288 416T233 431Q203 431 184 421T165 395Q165 385 172 377T179 352Q179 331 164 318T124 304Q100 304 86 318T72 355Q72 385 96 409T161
448T253 462Q326 462 372 434T418 359V55Q418 45 424 39T440 32Q449 32 461 41T491 71L505 55Q458 -12 400 -12Q365 -12 343 7T312 62H308Q289 30 248 9T163 -12ZM223 43Q261 43 284 71T308 146V227Q233 227 195 200T157 119Q157 83 174 63T223 43ZM219 524L337
684Q354 707 369 715T401 724Q423 724 435 712T447 682Q447 669 438 655T397 618L262 524H219Z" />
<glyph unicode="&#xe2;" horiz-adv-x="506" d="M163 -12Q109 -12 75 19T41 100Q41 148 73 182T166 234T308 253V375Q308 401 288 416T233 431Q203 431 184 421T165 395Q165 385 172 377T179 352Q179 331 164 318T124 304Q100 304 86 318T72 355Q72 385 96 409T161
448T253 462Q326 462 372 434T418 359V55Q418 45 424 39T440 32Q449 32 461 41T491 71L505 55Q458 -12 400 -12Q365 -12 343 7T312 62H308Q289 30 248 9T163 -12ZM223 43Q261 43 284 71T308 146V227Q233 227 195 200T157 119Q157 83 174 63T223 43ZM91 524L222
724H284L415 524H372L253 630L134 524H91Z" />
<glyph unicode="&#xe3;" horiz-adv-x="506" d="M163 -12Q109 -12 75 19T41 100Q41 148 73 182T166 234T308 253V375Q308 401 288 416T233 431Q203 431 184 421T165 395Q165 385 172 377T179 352Q179 331 164 318T124 304Q100 304 86 318T72 355Q72 385 96 409T161
448T253 462Q326 462 372 434T418 359V55Q418 45 424 39T440 32Q449 32 461 41T491 71L505 55Q458 -12 400 -12Q365 -12 343 7T312 62H308Q289 30 248 9T163 -12ZM223 43Q261 43 284 71T308 146V227Q233 227 195 200T157 119Q157 83 174 63T223 43ZM333 558Q338
589 353 617T393 664T451 683Q478 683 500 671T544 647T588 635Q617 635 631 652T651 686H685Q678 655 663 626T625 578T566 559Q538 559 516 571T474 595T429 607Q404 607 388 593T366 558H333Z" />
<glyph unicode="&#xe4;" horiz-adv-x="506" d="M163 -12Q109 -12 75 19T41 100Q41 148 73 182T166 234T308 253V375Q308 401 288 416T233 431Q203 431 184 421T165 395Q165 385 172 377T179 352Q179 331 164 318T124 304Q100 304 86 318T72 355Q72 385 96 409T161
448T253 462Q326 462 372 434T418 359V55Q418 45 424 39T440 32Q449 32 461 41T491 71L505 55Q458 -12 400 -12Q365 -12 343 7T312 62H308Q289 30 248 9T163 -12ZM223 43Q261 43 284 71T308 146V227Q233 227 195 200T157 119Q157 83 174 63T223 43ZM348 572Q326
572 310 588T293 627Q293 650 309 666T348 682Q371 682 387 666T403 627Q403 605 387 589T348 572ZM158 572Q136 572 120 588T103 627Q103 650 119 666T158 682Q181 682 197 666T213 627Q213 605 197 589T158 572Z" />
<glyph unicode="&#xe5;" horiz-adv-x="506" d="M163 -12Q109 -12 75 19T41 100Q41 148 73 182T166 234T308 253V375Q308 401 288 416T233 431Q203 431 184 421T165 395Q165 385 172 377T179 352Q179 331 164 318T124 304Q100 304 86 318T72 355Q72 385 96 409T161
448T253 462Q326 462 372 434T418 359V55Q418 45 424 39T440 32Q449 32 461 41T491 71L505 55Q458 -12 400 -12Q365 -12 343 7T312 62H308Q289 30 248 9T163 -12ZM223 43Q261 43 284 71T308 146V227Q233 227 195 200T157 119Q157 83 174 63T223 43ZM253 540Q212
540 182 570T151 642Q151 683 181 713T253 743Q294 743 324 714T355 642Q355 600 325 570T253 540ZM253 586Q276 586 292 603T308 642Q308 664 292 680T253 696Q231 696 215 680T198 642Q198 620 214 603T253 586Z" />
<glyph unicode="&#xe6;" horiz-adv-x="755" d="M527 -12Q467 -12 419 21T343 110T314 228Q314 288 339 341T412 428T521 462Q574 462 616 438T684 369T710 268V262H383V287H594V344Q594 435 514 435Q481 435 461 416T431 351T421 225Q421 144 431 99T464 36T528
18Q581 18 620 46T685 139H713Q700 93 673 59T608 7T527 -12ZM226 43Q264 43 287 71T311 146V227Q236 227 198 200T160 119Q160 83 177 63T226 43ZM168 -12Q112 -12 78 19T44 99Q44 147 76 181T169 234T311 253V375Q311 401 291 416T236 431Q206 431 187 421T168
395Q168 385 175 377T182 352Q182 331 167 318T127 304Q103 304 89 318T75 355Q75 385 99 409T164 448T256 462Q329 462 375 434T421 359V55L343 109H339Q316 54 271 21T168 -12Z" />
<glyph unicode="&#xe7;" horiz-adv-x="505" d="M281 -12Q233 -12 191 8T117 62T67 138T49 226Q49 270 67 312T117 388T193 442T289 462Q333 462 369 448T427 408T449 348Q449 319 432 302T389 285Q365 285 346 299T327 341Q327 358 333 367T345 383T351 403Q351
420 335 427T288 435Q249 435 225 418T190 356T179 224Q179 143 189 98T222 36T284 18Q339 18 375 48T439 149H467Q448 77 401 33T281 -12ZM229 -226Q199 -226 178 -220T149 -209L160 -184Q168 -188 184 -191T216 -195Q244 -195 260 -183T276 -145Q276 -91 201
-90L235 10H265L241 -66H260Q303 -66 329 -84T356 -138Q356 -178 321 -202T229 -226Z" />
<glyph unicode="&#xe8;" horiz-adv-x="505" d="M274 -12Q226 -12 184 7T109 60T59 136T41 225Q41 286 69 340T149 428T269 462Q323 462 366 438T435 369T460 268V262H133V287H344V344Q344 435 264 435Q231 435 211 416T181 350T171 225Q171 144 181 99T214 36T277
18Q330 18 369 45T435 139H463Q443 69 393 29T274 -12ZM261 524L126 618Q95 640 86 654T76 682Q76 700 88 712T122 724Q138 724 153 716T186 684L304 524H261Z" />
<glyph unicode="&#xe9;" horiz-adv-x="505" d="M274 -12Q226 -12 184 7T109 60T59 136T41 225Q41 286 69 340T149 428T269 462Q323 462 366 438T435 369T460 268V262H133V287H344V344Q344 435 264 435Q231 435 211 416T181 350T171 225Q171 144 181 99T214 36T277
18Q330 18 369 45T435 139H463Q443 69 393 29T274 -12ZM219 524L337 684Q354 707 369 715T401 724Q423 724 435 712T447 682Q447 669 438 655T397 618L262 524H219Z" />
<glyph unicode="&#xea;" horiz-adv-x="505" d="M274 -12Q226 -12 184 7T109 60T59 136T41 225Q41 286 69 340T149 428T269 462Q323 462 366 438T435 369T460 268V262H133V287H344V344Q344 435 264 435Q231 435 211 416T181 350T171 225Q171 144 181 99T214 36T277
18Q330 18 369 45T435 139H463Q443 69 393 29T274 -12ZM91 524L222 724H284L415 524H372L253 630L134 524H91Z" />
<glyph unicode="&#xeb;" horiz-adv-x="505" d="M274 -12Q226 -12 184 7T109 60T59 136T41 225Q41 286 69 340T149 428T269 462Q323 462 366 438T435 369T460 268V262H133V287H344V344Q344 435 264 435Q231 435 211 416T181 350T171 225Q171 144 181 99T214 36T277
18Q330 18 369 45T435 139H463Q443 69 393 29T274 -12ZM348 572Q326 572 310 588T293 627Q293 650 309 666T348 682Q371 682 387 666T403 627Q403 605 387 589T348 572ZM158 572Q136 572 120 588T103 627Q103 650 119 666T158 682Q181 682 197 666T213 627Q213
605 197 589T158 572Z" />
<glyph unicode="&#xec;" horiz-adv-x="330" d="M114 15V425H224V15H114ZM35 0V25H304V0H35ZM25 416V441H224V416H25ZM429 524L294 618Q263 640 254 654T244 682Q244 700 256 712T290 724Q306 724 321 716T354 684L472 524H429Z" />
<glyph unicode="&#xed;" horiz-adv-x="330" d="M114 15V425H224V15H114ZM35 0V25H304V0H35ZM25 416V441H224V416H25ZM131 524L249 684Q266 707 281 715T313 724Q335 724 347 712T359 682Q359 669 350 655T309 618L174 524H131Z" />
<glyph unicode="&#xee;" horiz-adv-x="330" d="M114 15V425H224V15H114ZM35 0V25H304V0H35ZM25 416V441H224V416H25ZM259 524L390 724H452L583 524H540L421 630L302 524H259Z" />
<glyph unicode="&#xef;" horiz-adv-x="330" d="M114 15V425H224V15H114ZM35 0V25H304V0H35ZM25 416V441H224V416H25ZM260 572Q238 572 222 588T205 627Q205 650 221 666T260 682Q283 682 299 666T315 627Q315 605 299 589T260 572ZM70 572Q48 572 32 588T15 627Q15
650 31 666T70 682Q93 682 109 666T125 627Q125 605 109 589T70 572Z" />
<glyph unicode="&#xf0;" horiz-adv-x="579" d="M287 -13Q238 -13 192 4T108 52T49 126T27 219Q27 282 61 333T151 414T277 444Q309 444 337 437T389 415L392 416Q392 496 370 558T296 662T160 725L169 752Q241 739 308 701T428 604T513 468T544 297Q544 200 510
131T418 24T287 -13ZM290 17Q333 17 358 32T394 86T406 201Q406 234 404 277T396 358Q374 387 343 400T275 414Q239 414 217 398T183 338T172 212Q172 133 183 91T219 33T290 17ZM216 557L204 590L508 695L519 662L216 557Z" />
<glyph unicode="&#xf1;" horiz-adv-x="596" d="M398 15V353Q398 428 338 428Q305 428 278 401T234 328T217 222L197 367H221Q242 408 278 435T373 462Q432 462 470 431T508 353V15H398ZM28 0V25H282V0H28ZM107 15V434H217V15H107ZM322 0V25H576V0H322ZM28 425V450H217V425H28ZM122
558Q127 589 142 617T182 664T240 683Q267 683 289 671T333 647T377 635Q406 635 420 652T440 686H474Q467 655 452 626T414 578T355 559Q327 559 305 571T263 595T218 607Q193 607 177 593T155 558H122Z" />
<glyph unicode="&#xf2;" horiz-adv-x="562" d="M281 -12Q232 -12 190 8T115 61T64 137T46 225Q46 270 64 312T114 388T189 442T281 462Q330 462 372 442T447 389T498 313T516 225Q516 180 498 138T448 62T373 8T281 -12ZM281 18Q319 18 342 35T375 96T386 225Q386
309 376 354T342 415T281 432Q243 432 220 416T187 354T176 225Q176 141 186 97T220 35T281 18ZM289 524L154 618Q123 640 114 654T104 682Q104 700 116 712T150 724Q166 724 181 716T214 684L332 524H289Z" />
<glyph unicode="&#xf3;" horiz-adv-x="562" d="M281 -12Q232 -12 190 8T115 61T64 137T46 225Q46 270 64 312T114 388T189 442T281 462Q330 462 372 442T447 389T498 313T516 225Q516 180 498 138T448 62T373 8T281 -12ZM281 18Q319 18 342 35T375 96T386 225Q386
309 376 354T342 415T281 432Q243 432 220 416T187 354T176 225Q176 141 186 97T220 35T281 18ZM247 524L365 684Q382 707 397 715T429 724Q451 724 463 712T475 682Q475 669 466 655T425 618L290 524H247Z" />
<glyph unicode="&#xf4;" horiz-adv-x="562" d="M281 -12Q232 -12 190 8T115 61T64 137T46 225Q46 270 64 312T114 388T189 442T281 462Q330 462 372 442T447 389T498 313T516 225Q516 180 498 138T448 62T373 8T281 -12ZM281 18Q319 18 342 35T375 96T386 225Q386
309 376 354T342 415T281 432Q243 432 220 416T187 354T176 225Q176 141 186 97T220 35T281 18ZM119 524L250 724H312L443 524H400L281 630L162 524H119Z" />
<glyph unicode="&#xf5;" horiz-adv-x="562" d="M281 -12Q232 -12 190 8T115 61T64 137T46 225Q46 270 64 312T114 388T189 442T281 462Q330 462 372 442T447 389T498 313T516 225Q516 180 498 138T448 62T373 8T281 -12ZM281 18Q319 18 342 35T375 96T386 225Q386
309 376 354T342 415T281 432Q243 432 220 416T187 354T176 225Q176 141 186 97T220 35T281 18ZM361 558Q366 589 381 617T421 664T479 683Q506 683 528 671T572 647T616 635Q645 635 659 652T679 686H713Q706 655 691 626T653 578T594 559Q566 559 544 571T502
595T457 607Q432 607 416 593T394 558H361Z" />
<glyph unicode="&#xf6;" horiz-adv-x="562" d="M281 -12Q232 -12 190 8T115 61T64 137T46 225Q46 270 64 312T114 388T189 442T281 462Q330 462 372 442T447 389T498 313T516 225Q516 180 498 138T448 62T373 8T281 -12ZM281 18Q319 18 342 35T375 96T386 225Q386
309 376 354T342 415T281 432Q243 432 220 416T187 354T176 225Q176 141 186 97T220 35T281 18ZM376 572Q354 572 338 588T321 627Q321 650 337 666T376 682Q399 682 415 666T431 627Q431 605 415 589T376 572ZM186 572Q164 572 148 588T131 627Q131 650 147 666T186
682Q209 682 225 666T241 627Q241 605 225 589T186 572Z" />
<glyph unicode="&#xf7;" horiz-adv-x="578" d="M40 321V365H538V321H40ZM294 97Q270 97 253 114T235 156Q235 180 252 197T294 215Q318 215 335 198T353 156Q353 132 336 115T294 97ZM294 471Q270 471 253 488T235 530Q235 555 252 572T294 589Q318 589 335 572T353
530Q353 506 336 489T294 471Z" />
<glyph unicode="&#xf8;" horiz-adv-x="562" d="M79 -53L466 483H504L117 -53H79ZM281 -12Q232 -12 190 8T115 61T64 137T46 225Q46 270 64 312T114 388T189 442T281 462Q330 462 372 442T447 389T498 313T516 225Q516 180 498 138T448 62T373 8T281 -12ZM281 18Q319
18 342 35T375 96T386 225Q386 309 376 354T342 415T281 432Q243 432 220 416T187 354T176 225Q176 141 186 97T220 35T281 18Z" />
<glyph unicode="&#xf9;" horiz-adv-x="570" d="M216 -12Q158 -12 122 19T85 97V435H195V100Q195 63 210 44T251 25Q282 25 308 52T351 125T368 228L388 78H364Q342 39 307 14T216 -12ZM368 0V25H557V0H368ZM7 425V450H195V425H7ZM368 16V435H478V16H368ZM286 425V450H478V425H286ZM293
524L158 618Q127 640 118 654T108 682Q108 700 120 712T154 724Q170 724 185 716T218 684L336 524H293Z" />
<glyph unicode="&#xfa;" horiz-adv-x="570" d="M216 -12Q158 -12 122 19T85 97V435H195V100Q195 63 210 44T251 25Q282 25 308 52T351 125T368 228L388 78H364Q342 39 307 14T216 -12ZM368 0V25H557V0H368ZM7 425V450H195V425H7ZM368 16V435H478V16H368ZM286 425V450H478V425H286ZM251
524L369 684Q386 707 401 715T433 724Q455 724 467 712T479 682Q479 669 470 655T429 618L294 524H251Z" />
<glyph unicode="&#xfb;" horiz-adv-x="570" d="M216 -12Q158 -12 122 19T85 97V435H195V100Q195 63 210 44T251 25Q282 25 308 52T351 125T368 228L388 78H364Q342 39 307 14T216 -12ZM368 0V25H557V0H368ZM7 425V450H195V425H7ZM368 16V435H478V16H368ZM286 425V450H478V425H286ZM123
524L254 724H316L447 524H404L285 630L166 524H123Z" />
<glyph unicode="&#xfc;" horiz-adv-x="570" d="M216 -12Q158 -12 122 19T85 97V435H195V100Q195 63 210 44T251 25Q282 25 308 52T351 125T368 228L388 78H364Q342 39 307 14T216 -12ZM368 0V25H557V0H368ZM7 425V450H195V425H7ZM368 16V435H478V16H368ZM286 425V450H478V425H286ZM380
572Q358 572 342 588T325 627Q325 650 341 666T380 682Q403 682 419 666T435 627Q435 605 419 589T380 572ZM190 572Q168 572 152 588T135 627Q135 650 151 666T190 682Q213 682 229 666T245 627Q245 605 229 589T190 572Z" />
<glyph unicode="&#xfd;" horiz-adv-x="486" d="M76 -326Q51 -326 37 -316T18 -292T12 -266Q12 -242 26 -228T63 -213Q83 -213 94 -222T112 -241T129 -251Q137 -251 141 -244T149 -228L386 432H422L182 -216Q157 -283 130 -304T76 -326ZM238 15L41 440L162 446L285
159H291L238 15ZM-11 425V450H237V425H-11ZM309 425V450H497V425H309ZM229 524L347 684Q364 707 379 715T411 724Q433 724 445 712T457 682Q457 669 448 655T407 618L272 524H229Z" />
<glyph unicode="&#xfe;" horiz-adv-x="570" d="M15 -314V-289H83V729H4V754H193V392H197Q214 422 249 442T331 462Q381 462 425 433T496 350T524 225Q524 154 497 101T425 18T330 -12Q284 -12 249 8T197 58H193V-289H294V-314H15ZM319 22Q347 22 364 38T388 98T396
224Q396 307 388 351T363 411T318 428Q266 428 230 385T193 249V200Q193 108 230 65T319 22Z" />
<glyph unicode="&#xff;" horiz-adv-x="486" d="M76 -326Q51 -326 37 -316T18 -292T12 -266Q12 -242 26 -228T63 -213Q83 -213 94 -222T112 -241T129 -251Q137 -251 141 -244T149 -228L386 432H422L182 -216Q157 -283 130 -304T76 -326ZM238 15L41 440L162 446L285
159H291L238 15ZM-11 425V450H237V425H-11ZM309 425V450H497V425H309ZM358 572Q336 572 320 588T303 627Q303 650 319 666T358 682Q381 682 397 666T413 627Q413 605 397 589T358 572ZM168 572Q146 572 130 588T113 627Q113 650 129 666T168 682Q191 682 207 666T223
627Q223 605 207 589T168 572Z" />
<glyph unicode="&#x2013;" horiz-adv-x="538" d="M0 202V246H538V202H0Z" />
<glyph unicode="&#x2014;" horiz-adv-x="828" d="M0 202V246H828V202H0Z" />
<glyph unicode="&#x2018;" horiz-adv-x="249" d="M129 465Q82 465 55 498T27 580Q27 636 61 683T145 763L162 742Q113 707 86 665T59 590Q59 570 67 558T82 546Q88 546 92 554T102 573T120 592T153 600Q185 600 199 582T213 540Q213 509 191 487T129 465Z" />
<glyph unicode="&#x2019;" horiz-adv-x="253" d="M95 465L78 486Q128 521 154 563T181 638Q181 658 173 670T158 682Q152 682 148 674T138 655T120 636T87 628Q56 628 42 647T27 688Q27 719 49 741T111 763Q158 763 185 730T213 648Q213 592 179 545T95 465Z" />
<glyph unicode="&#x201a;" horiz-adv-x="253" d="M95 -153L78 -132Q128 -97 154 -55T181 20Q181 40 173 52T158 64Q152 64 148 56T138 37T120 18T87 10Q56 10 42 29T27 70Q27 101 49 123T111 145Q158 145 185 112T213 30Q213 -26 179 -73T95 -153Z" />
<glyph unicode="&#x201c;" horiz-adv-x="496" d="M375 465Q328 465 301 498T273 580Q273 636 307 683T391 763L408 742Q359 707 332 665T305 590Q305 570 313 558T328 546Q334 546 338 554T348 573T366 592T399 600Q431 600 445 582T459 540Q459 509 437 487T375
465ZM129 465Q82 465 55 498T27 580Q27 636 61 683T145 763L162 742Q113 707 86 665T59 590Q59 570 67 558T82 546Q88 546 92 554T102 573T120 592T153 600Q185 600 199 582T213 540Q213 509 191 487T129 465Z" />
<glyph unicode="&#x201d;" horiz-adv-x="500" d="M341 465L324 486Q374 521 400 563T427 638Q427 658 419 670T404 682Q398 682 394 674T384 655T366 636T333 628Q302 628 288 647T273 688Q273 719 295 741T357 763Q404 763 431 730T459 648Q459 592 425 545T341
465ZM95 465L78 486Q128 521 154 563T181 638Q181 658 173 670T158 682Q152 682 148 674T138 655T120 636T87 628Q56 628 42 647T27 688Q27 719 49 741T111 763Q158 763 185 730T213 648Q213 592 179 545T95 465Z" />
<glyph unicode="&#x201e;" horiz-adv-x="500" d="M341 -153L324 -132Q374 -97 400 -55T427 20Q427 40 419 52T404 64Q398 64 394 56T384 37T366 18T333 10Q302 10 288 29T273 70Q273 101 295 123T357 145Q404 145 431 112T459 30Q459 -26 425 -73T341 -153ZM95
-153L78 -132Q128 -97 154 -55T181 20Q181 40 173 52T158 64Q152 64 148 56T138 37T120 18T87 10Q56 10 42 29T27 70Q27 101 49 123T111 145Q158 145 185 112T213 30Q213 -26 179 -73T95 -153Z" />
<glyph unicode="&#x2022;" horiz-adv-x="410" d="M205 265Q153 265 122 299T90 380Q90 427 121 461T205 495Q258 495 289 461T320 380Q320 333 289 299T205 265Z" />
<glyph unicode="&#x2039;" horiz-adv-x="345" d="M270 38L70 209V231L270 402L285 391L174 220L285 53L270 38Z" />
<glyph unicode="&#x203a;" horiz-adv-x="345" d="M75 38L60 53L171 220L60 391L75 402L275 231V209L75 38Z" />
</font>
</defs>
</svg>
