<?xml version="1.0" standalone="no"?>
<!DOCTYPE svg PUBLIC "-//W3C//DTD SVG 1.1//EN" "http://www.w3.org/Graphics/SVG/1.1/DTD/svg11.dtd">
<svg xmlns="http://www.w3.org/2000/svg">
<defs >
<font id="Shalimar" horiz-adv-x="454" ><font-face
    font-family="Shalimar"
    units-per-em="1000"
    panose-1="0 0 0 0 0 0 0 0 0 0"
    ascent="800"
    descent="-420"
    alphabetic="0" />
<glyph unicode=" " glyph-name="space" horiz-adv-x="184" />
<glyph unicode="!" glyph-name="exclam" horiz-adv-x="223" d="M86 108Q81 108 77 115Q77 178 98 284L131 453Q120 462 120 477Q120 492 131 508T156 525Q170 525 170 495Q170 440 146 348L107 202Q101 180 95 129Q92 108 86 108ZM64 -26Q57 -24 48 -14T38 2Q38
13 50 24T74 33Q82 36 86 36Q94 36 94 28Q94 23 90 14T86 0Q86 -14 64 -26Z" />
<glyph unicode="&quot;" glyph-name="quotedbl" horiz-adv-x="223" d="M154 336Q150 336 149 340Q151 356 152 372T153 405Q153 419 152 440T146 490Q141 540 140 540Q141 551 151 559T173 568Q198 568 198 540Q198 524 195 496T184 428Q167 336 154 336ZM65 336Q61
336 60 340Q62 357 63 374T64 410Q64 437 58 491Q53 540 52 540Q53 551 63 559T85 568Q108 568 108 540Q108 524 105 496T95 428Q80 336 65 336ZM52 539Q52 540 52 539Q52 539 52 540V539V539ZM140 539Q140 540 140 539Q140 539 140 540V539V539Z" />
<glyph unicode="#" glyph-name="numbersign" horiz-adv-x="577" d="M217 69Q195 69 195 131Q195 158 199 189T211 258L18 192Q5 192 5 197Q5 204 22 215Q37 227 45 228Q74 238 116 251T215 282Q217 315 233 376L158 350Q104 331 87 331Q75 331 75 338Q75 358 165
380Q220 393 244 403L269 489Q287 548 306 564H320L276 419Q287 420 302 422T337 430L397 445L437 557Q472 646 490 646Q503 646 504 637L502 635Q480 598 433 459L487 469Q504 473 517 474T541 476Q557 476 557 471Q557 469 546 464Q494 446 426 428Q422 414 416
393T401 343Q411 345 431 350T484 366Q540 383 565 383Q578 383 578 379Q578 368 500 350Q438 335 397 313Q392 289 390 268T387 226Q387 156 421 132Q417 116 403 116Q398 116 392 119Q352 138 352 218Q352 262 362 301Q339 295 309 286T240 264Q227 211 227 160Q227
143 228 125T234 88L235 85Q235 69 217 69ZM248 292Q268 297 297 306T367 328Q370 344 376 367T393 420Q353 420 269 386Q259 356 248 292Z" />
<glyph unicode="$" glyph-name="dollar" horiz-adv-x="312" d="M71 -156Q14 -156 14 -54Q14 -40 15 -26T18 4Q16 3 11 3T1 2Q-15 2 -34 18Q-30 41 24 41Q32 85 42 129T66 216Q-24 288 -24 331Q-24 387 52 453Q81 479 112 500T177 536L214 634Q218 656 229 677Q245
715 268 715Q275 715 275 705Q271 695 256 657T215 552Q230 556 244 558T270 561Q322 561 322 518Q322 439 285 368Q263 329 251 329Q247 329 247 340Q247 345 248 352T251 368Q257 395 261 418T265 457Q265 525 216 525H205Q177 452 152 382T107 243Q187 178 187
149Q187 126 167 100Q145 72 115 51T47 13Q43 -12 40 -34T37 -73Q37 -136 72 -142Q81 -143 81 -150Q81 -156 71 -156ZM80 266Q100 326 121 387T168 511Q58 467 20 398Q15 386 15 360Q15 321 80 266ZM52 44Q74 44 108 72Q144 99 144 119Q144 153 92 196Q78 147 68
109T52 44Z" />
<glyph unicode="%" glyph-name="percent" horiz-adv-x="425" d="M99 56Q88 56 88 75Q88 131 156 229Q169 248 201 287T284 388Q352 470 352 488Q352 515 322 521Q305 525 236 525Q255 509 255 486Q255 444 207 415Q167 390 120 390Q71 390 71 435Q71 502 136 531Q139
530 139 526Q139 523 124 509Q95 482 95 438Q95 405 129 405Q158 405 192 428Q226 452 226 480Q226 502 209 515T169 528Q166 528 161 527T152 526Q144 526 144 532Q144 543 167 543Q173 543 184 542T202 541Q213 541 230 542T270 545Q293 547 310 548T338 550Q408
550 408 515Q408 485 260 313Q113 141 113 107Q113 103 115 95T118 82Q118 56 99 56ZM251 75Q201 75 201 119Q201 187 265 215Q269 214 269 211Q269 208 255 194Q226 167 226 124Q226 90 260 90Q288 90 323 113Q357 135 357 164Q357 185 340 198T300 212Q295 212
287 209T277 206Q271 206 271 213Q271 227 312 227Q342 227 362 214Q386 198 386 171Q386 129 338 100Q298 75 251 75Z" />
<glyph unicode="&amp;" glyph-name="ampersand" horiz-adv-x="650" d="M527 -48Q445 -48 377 143L235 97Q126 61 106 61Q60 61 60 120Q60 150 194 260Q328 371 328 389Q328 399 326 414T318 450Q313 471 311 486T308 512Q308 547 387 547Q461 547 461 514Q461
483 412 433Q364 384 364 382Q364 305 407 176Q451 184 533 209Q513 229 513 253Q513 281 528 281Q535 281 541 270Q562 232 596 219Q611 213 611 209Q611 200 577 200Q573 200 564 201T551 203Q537 203 412 151Q478 -12 547 -12Q578 -12 591 1Q602 12 612 43Q617
58 622 58Q626 58 626 51Q626 49 626 46T624 38Q591 -48 527 -48ZM357 408Q366 414 375 422T395 442Q417 468 417 486Q417 515 379 515Q364 515 355 511Q354 507 354 502T353 489Q353 475 355 449T357 408ZM156 102Q185 102 262 125L371 159Q364 193 355 242T334
356Q306 334 274 308T205 250Q104 161 104 139Q104 122 123 112Q139 102 156 102Z" />
<glyph unicode="&apos;" glyph-name="quotesingle" horiz-adv-x="137" d="M54 282L81 371Q91 402 95 423T100 456Q100 474 77 495Q83 523 106 523Q137 523 137 486Q137 456 107 373Q76 285 54 282Z" />
<glyph unicode="(" glyph-name="parenleft" horiz-adv-x="209" d="M118 0Q86 0 64 67Q45 121 45 161V178Q45 391 156 542Q179 572 198 593Q201 596 205 596Q206 596 206 594Q206 583 183 549Q97 424 88 299Q87 292 87 280T87 251Q87 73 152 44Q147 0 118 0Z" />
<glyph unicode=")" glyph-name="parenright" horiz-adv-x="270" d="M71 3Q67 3 67 6Q67 15 95 46L129 84Q214 187 214 357Q214 424 192 478Q165 546 115 569Q119 612 151 612Q203 612 230 526Q240 495 244 463T249 399Q249 383 248 368T245 336Q226 175 119 47Q115
43 109 35T93 15Q80 3 71 3Z" />
<glyph unicode="*" glyph-name="asterisk" horiz-adv-x="397" d="M184 217Q173 217 173 289Q173 306 174 323T177 357Q140 339 69 294Q59 285 52 285Q47 285 47 289Q47 295 58 306Q73 320 95 343T146 399L40 476Q34 478 34 480Q34 483 43 483Q77 483 176 437Q180
447 215 571Q216 578 219 578Q228 578 228 486Q228 472 228 460T226 439Q291 460 373 460Q376 460 376 458Q376 456 374 450Q325 437 230 402Q246 386 271 362T332 307Q334 303 334 301Q334 294 326 294Q317 294 271 319Q251 330 237 338T214 351Q212 329 210 312T203
282Q199 268 196 252T188 217H184Z" />
<glyph unicode="+" glyph-name="plus" horiz-adv-x="378" d="M144 -13Q139 -13 139 2Q139 18 143 29Q177 129 179 154H61Q58 156 58 160Q58 168 68 175T87 183L186 181Q203 237 225 298Q233 318 254 318Q262 318 262 312Q262 279 224 180H241Q249 181 255 181T267
181H311Q364 181 364 170Q364 160 308 157Q285 156 262 155T215 152Q205 118 182 59Q154 -13 144 -13Z" />
<glyph unicode="," glyph-name="comma" horiz-adv-x="181" d="M41 -113Q35 -113 35 -107Q36 -101 46 -83T66 -41T76 3Q76 12 71 15T61 23T56 37Q57 47 67 53T92 59Q103 59 108 52T113 34Q113 22 109 9T98 -19Q90 -36 76 -61T51 -106Q47 -113 41 -113Z" />
<glyph unicode="-" glyph-name="hyphen" horiz-adv-x="325" d="M79 191Q66 191 56 192T39 195Q39 226 81 226H121Q141 225 157 225T187 225L293 224Q293 221 294 221V219Q294 212 217 203Q118 191 79 191Z" />
<glyph unicode="." glyph-name="period" horiz-adv-x="181" d="M80 -5Q66 -5 66 20Q66 36 81 51T113 66Q118 66 118 64Q118 55 113 38T107 14Q107 -5 80 -5Z" />
<glyph unicode="/" glyph-name="slash" horiz-adv-x="605" d="M44 -124Q27 -124 27 -95Q27 -52 49 2Q69 53 148 169Q174 207 206 252T276 349Q533 699 562 699Q585 699 585 679Q585 671 576 660Q557 638 536 613T493 561Q391 437 308 327T159 121Q142 96 129 76T105
39Q54 -43 54 -80Q54 -93 61 -101T68 -109Q68 -114 59 -119T44 -124Z" />
<glyph unicode="0" glyph-name="zero" horiz-adv-x="640" d="M137 -16Q90 -16 63 14T36 91Q36 180 112 295Q144 345 181 386T259 462Q320 511 344 511Q352 511 352 508Q352 492 322 486Q247 439 162 319Q72 192 72 114Q72 28 181 28Q315 28 475 161Q527 203 552
241T577 314Q577 388 488 426Q419 456 334 456Q318 457 318 463Q318 475 397 475Q435 475 469 468T533 445Q608 408 608 338Q608 223 428 100Q261 -16 137 -16Z" />
<glyph unicode="1" glyph-name="one" horiz-adv-x="284" d="M168 -59Q152 -59 149 -47V-19Q149 29 167 174L187 338Q192 382 194 423T197 504Q47 331 41 331Q37 331 37 335Q37 342 47 352Q79 386 118 438Q141 469 157 491T185 528Q202 548 238 563Q238 477 220
304Q212 219 208 154T203 46Q203 33 206 8T209 -32Q209 -59 168 -59Z" />
<glyph unicode="2" glyph-name="two" horiz-adv-x="505" d="M6 -14Q-12 -14 -12 0Q-12 7 95 91Q158 141 207 184T292 263Q397 370 397 431Q397 486 328 486Q299 486 266 477T204 451T155 415L137 390Q129 380 121 380Q109 380 109 396Q109 403 113 408Q144 454
222 490Q299 527 358 527Q449 527 449 463Q449 383 305 248Q305 248 253 202T96 61Q224 94 386 94Q494 94 494 68Q494 56 476 56Q475 56 473 56T468 58Q446 61 418 63T356 65Q260 65 176 46T18 -12Q15 -13 12 -13T6 -14Z" />
<glyph unicode="3" glyph-name="three" horiz-adv-x="421" d="M90 -58Q17 -58 17 -30Q17 -24 23 -18Q31 -19 38 -19T54 -19Q158 -19 236 17Q338 63 338 155Q338 272 208 272Q187 272 143 263Q101 254 79 254Q67 254 67 260Q67 273 145 299Q200 317 236 330T289
352Q367 390 367 437Q367 505 250 505Q186 505 150 481Q128 467 121 467Q116 467 116 474Q116 509 164 524Q181 530 200 532T242 535Q291 535 349 520Q427 499 427 463Q427 431 364 383L274 316Q386 267 386 170Q386 97 272 17Q218 -20 173 -39T90 -58Z" />
<glyph unicode="4" glyph-name="four" horiz-adv-x="566" d="M368 -58Q301 -58 301 77Q301 101 303 124T308 170Q293 175 270 177T216 180Q167 180 123 175T40 157Q27 154 19 154Q0 154 0 161Q1 163 2 164T5 167L77 223Q155 285 224 348T354 474L359 534Q363 586
413 586Q426 586 426 569Q426 557 423 537T412 488L373 352Q362 309 356 276T350 216Q358 212 364 212Q414 212 454 223T528 254Q533 258 538 258Q541 258 541 254Q541 248 533 240Q483 191 390 181Q360 177 352 166T340 122Q337 100 337 73Q337 -26 384 -26Q409
-26 436 5Q464 36 461 36L464 31Q464 27 461 22Q426 -58 368 -58ZM89 209Q137 209 218 212H313L354 444L89 209Z" />
<glyph unicode="5" glyph-name="five" horiz-adv-x="474" d="M106 -11Q38 -11 38 6Q38 17 67 17Q75 17 91 16T115 14Q165 14 209 26T293 60Q386 114 386 205Q386 255 355 288T274 322Q219 322 178 281Q159 262 147 239T127 187Q118 154 97 154Q79 154 79 210Q79
251 91 332Q98 374 101 404T104 456H101Q83 456 83 474Q83 492 108 504Q114 554 137 554Q156 554 156 521Q156 506 151 500Q164 496 185 494T235 492Q285 492 382 498Q432 502 468 503T529 505Q536 505 536 499Q536 492 512 487L402 476Q329 470 266 466T151 460Q141
437 125 268Q139 285 160 299T210 324Q264 344 312 344Q431 344 431 241Q431 174 379 113Q333 57 268 28Q187 -11 106 -11Z" />
<glyph unicode="6" glyph-name="six" horiz-adv-x="566" d="M152 -10Q43 -10 43 112Q43 210 143 349Q187 411 233 458T329 539Q337 544 344 544Q374 544 374 526Q367 519 347 500T294 448Q67 219 67 103Q67 53 114 38Q120 115 226 188Q326 256 406 256Q509 256
509 205Q509 131 366 56Q239 -10 152 -10ZM175 16Q234 16 344 72Q466 135 466 182Q466 212 394 212Q242 212 166 97Q140 59 140 38Q140 16 175 16Z" />
<glyph unicode="7" glyph-name="seven" horiz-adv-x="458" d="M205 -54Q143 -54 143 91Q143 182 186 293Q231 409 295 464Q284 471 254 473T175 476Q162 476 142 476T95 474Q68 473 48 473T14 472Q8 472 8 474Q8 482 31 496Q48 504 87 509T190 516L318 520Q414
529 401 529Q450 529 450 506Q450 493 437 483T410 472H385Q370 472 360 470T344 466Q335 459 323 448T294 420Q182 302 182 137Q182 89 192 44T221 -42Q214 -54 205 -54Z" />
<glyph unicode="8" glyph-name="eight" horiz-adv-x="461" d="M161 -30Q46 -30 46 56Q46 158 180 224Q182 226 186 226Q190 226 190 223L136 180Q84 135 84 77Q84 -5 182 -5Q234 -5 294 22Q366 54 366 100Q366 159 241 215Q234 217 224 221T203 232Q172 253 110
298Q47 346 47 380Q47 435 187 498Q316 554 379 554Q407 554 430 541Q458 525 458 500Q458 480 436 480Q432 480 400 498Q368 517 341 517Q311 517 275 509T196 486Q92 448 92 400Q92 369 152 320Q201 283 240 268L364 365Q460 440 482 440Q487 440 487 437Q487
429 476 422L256 264L346 209Q410 169 410 130Q410 64 316 13Q236 -30 161 -30Z" />
<glyph unicode="9" glyph-name="nine" horiz-adv-x="518" d="M343 -104Q271 -104 271 -14Q271 21 284 71T323 187L407 384L252 277Q149 206 89 206Q37 206 37 257Q37 349 172 458Q272 540 362 540Q426 540 426 488Q426 474 415 474Q408 474 386 494Q367 515 340
515Q268 515 173 432Q79 350 79 278Q79 239 120 239Q152 239 201 264T316 341Q433 433 484 500Q502 524 511 524Q518 524 517 512Q486 465 454 402T389 258Q350 167 331 100T312 -10Q312 -80 362 -80Q394 -80 420 -54Q446 -28 449 -28Q452 -28 452 -34Q452 -55
397 -89Q384 -97 371 -100T343 -104Z" />
<glyph unicode=":" glyph-name="colon" horiz-adv-x="181" d="M129 257Q124 259 117 265T99 282Q104 309 138 313L148 298Q155 288 155 283Q155 268 129 257ZM93 0Q86 2 77 12T67 29Q67 39 79 49Q92 61 101 61T115 62Q123 62 123 54Q123 18 93 0Z" />
<glyph unicode=";" glyph-name="semicolon" horiz-adv-x="181" d="M95 257Q86 262 65 282Q70 309 104 313Q121 283 121 283Q121 268 95 257ZM36 -187Q37 -182 43 -161T62 -101Q80 -44 80 -18Q80 -13 80 -7T79 7Q73 11 60 25Q65 52 98 56L115 26Q115 -2 94 -61L61
-150Q49 -186 36 -187Z" />
<glyph unicode="&lt;" glyph-name="less" horiz-adv-x="318" d="M217 136L209 139Q175 186 88 250Q84 253 84 256Q84 266 137 342Q182 407 203 432Q212 443 223 443Q228 443 228 437Q228 419 130 283Q227 164 227 149Q227 135 217 136Z" />
<glyph unicode="=" glyph-name="equal" horiz-adv-x="369" d="M124 221Q66 221 48 227Q48 259 89 259Q112 259 146 258T226 254Q272 252 306 251T364 249V245Q365 244 365 243Q365 236 347 234L276 228Q232 224 194 223T124 221ZM113 128Q53 128 33 134Q33 165
75 165Q98 165 132 164T213 160Q259 158 293 157T351 156Q350 155 350 154Q350 153 351 152V150Q351 145 334 142Q329 141 311 139T264 135Q221 131 184 130T113 128Z" />
<glyph unicode="&gt;" glyph-name="greater" horiz-adv-x="318" d="M92 129Q84 129 84 134Q84 140 183 288Q86 407 86 422Q86 436 98 436L105 432Q134 391 226 321Q228 319 228 315Q228 302 176 228Q154 197 138 175T111 139Q101 129 92 129Z" />
<glyph unicode="?" glyph-name="question" horiz-adv-x="428" d="M134 188Q120 188 120 206Q120 228 187 274Q240 311 271 333T310 363Q376 422 376 469Q376 548 265 548Q215 548 158 530Q127 520 104 508T64 480Q72 465 73 450Q66 444 55 444Q32 444 32 463Q32
474 66 499Q80 510 91 517T111 528Q210 570 307 570Q414 570 414 489Q414 438 347 378Q333 365 302 343T223 286Q157 240 157 222Q157 215 172 198Q172 188 134 188ZM136 19Q109 31 109 48Q109 58 121 69T144 81H158Q166 81 166 74Q166 69 162 60T158 45Q158 32
136 19Z" />
<glyph unicode="@" glyph-name="at" horiz-adv-x="666" d="M277 -92Q177 -92 112 -31Q47 31 47 129Q47 215 104 290Q155 358 237 401H216Q210 400 206 400T198 400H167Q145 400 145 405Q145 423 300 423Q301 424 314 427Q350 437 384 441T451 446Q616 446 616
326Q616 296 602 260Q625 219 625 176Q625 66 503 -17Q392 -92 277 -92ZM587 277Q593 300 593 320Q593 426 452 426Q404 426 353 413Q499 379 587 277ZM255 -69Q361 -69 470 0Q592 77 592 177Q592 188 590 199T584 221Q573 192 558 162T522 103Q468 23 428 23Q393
23 374 78Q359 120 359 162Q262 15 217 15Q187 15 187 51Q187 103 255 195Q326 290 376 290Q391 290 401 278T411 250Q411 243 407 243Q408 243 400 250T377 257Q354 257 337 246Q292 218 256 168Q213 112 213 67Q213 43 229 43Q255 43 311 120Q334 153 349 179T372
226Q380 233 389 233Q394 233 395 229Q388 216 388 181Q388 140 397 105Q411 54 439 54Q471 54 521 131Q541 163 555 190T576 241Q495 372 295 396Q206 366 143 288Q78 205 78 115Q78 34 126 -17T255 -69Z" />
<glyph unicode="A" glyph-name="A" horiz-adv-x="558" d="M55 -76Q3 -76 3 -9Q3 72 82 202Q15 209 15 228Q15 246 55 246Q65 246 108 243Q284 506 390 565Q391 566 396 566Q422 566 422 517Q422 485 413 474Q412 470 412 463T411 446Q411 393 415 343T427 244L477
250Q493 252 505 253T528 255Q533 255 533 253Q533 247 485 238Q437 231 431 221Q445 112 477 61Q497 29 515 29Q521 29 530 33T540 38Q542 36 542 36Q542 36 512 -5Q500 -18 487 -18Q446 -18 420 89Q413 121 408 156T400 228Q276 216 202 210T105 203Q33 74 33
4Q33 -51 83 -51Q105 -51 138 -39V-41Q138 -48 102 -62Q66 -76 55 -76ZM281 239Q342 239 400 242Q395 265 390 298T379 377L365 515Q260 441 130 243Q171 241 208 240T281 239Z" />
<glyph unicode="B" glyph-name="B" horiz-adv-x="551" d="M161 -99Q123 -99 123 2Q123 37 129 106Q133 141 134 167T136 211Q123 204 115 204Q111 204 111 211Q111 237 148 258Q169 347 169 437Q169 450 169 462T168 486Q187 520 205 520Q218 520 218 495Q218
476 214 447T199 379Q181 303 181 264Q188 259 199 259Q250 259 353 329Q462 402 462 449Q462 524 240 524Q188 524 137 521T32 511Q49 562 80 562H123Q128 562 134 562T149 563H167Q494 563 494 466Q494 379 287 275Q312 271 349 264T436 245Q544 218 544 169Q544
123 418 37Q367 3 324 -22T243 -61Q239 -62 237 -62T232 -63Q221 -63 221 -52Q221 -39 248 -26L286 -11Q482 71 482 142Q482 191 390 218Q326 237 258 237Q200 237 175 224Q160 163 160 70Q160 -53 195 -67Q178 -99 161 -99Z" />
<glyph unicode="C" glyph-name="C" horiz-adv-x="625" d="M295 -56Q182 -56 104 16Q23 90 23 201Q23 362 159 471Q286 574 450 574Q507 574 542 548Q568 599 579 599Q582 599 582 596Q582 592 570 569Q566 562 562 555T554 539Q580 513 580 487Q580 478 575 476L545
512Q540 492 537 466T532 406Q532 399 531 387T527 355Q523 318 502 318Q486 318 486 359Q486 417 530 522Q498 539 451 539Q308 539 186 428Q60 314 60 173Q60 68 135 14Q199 -32 309 -32Q402 -32 515 36Q623 100 678 182Q682 189 687 189Q694 189 694 179Q694
176 691 173Q624 81 517 15Q399 -56 295 -56Z" />
<glyph unicode="D" glyph-name="D" horiz-adv-x="679" d="M194 -62Q119 -62 119 118Q119 307 174 530Q167 533 153 533Q74 533 21 494Q13 489 7 489Q-18 489 -18 509Q-18 533 41 553Q78 566 120 571Q135 565 135 559Q135 557 133 555Q143 557 158 558T196 560Q214
581 238 581Q248 581 248 573Q248 569 245 563Q369 560 511 503Q690 432 690 334Q690 238 581 136Q490 51 384 8Q333 -14 250 -26Q241 -27 223 -44Q207 -62 194 -62ZM209 -32Q216 -32 226 -13Q237 5 245 5Q255 5 263 -15Q335 6 396 34T508 97Q646 192 646 309Q646
405 478 474Q339 531 225 531Q211 499 199 448T175 325Q165 261 160 208T155 114Q155 -32 209 -32Z" />
<glyph unicode="E" glyph-name="E" horiz-adv-x="552" d="M89 517Q62 517 62 522Q62 534 84 547Q106 560 120 560Q146 560 184 559T273 553Q325 549 363 548T427 546Q493 546 547 555Q543 542 521 536Q451 517 272 517Q262 517 246 517T209 518Q189 519 174 519T147
519Q137 519 118 518T89 517ZM201 -32Q62 -32 62 126Q62 184 80 263Q74 263 62 264T43 265Q25 265 25 273Q25 285 50 298Q61 303 70 306T87 311Q94 355 97 398T100 481Q123 516 140 516Q151 516 151 497Q151 484 143 437T119 307L319 301Q328 301 341 301T374 303Q393
304 406 304T429 305Q431 305 431 304Q430 303 429 302T426 300Q396 286 365 280Q290 265 115 265Q110 239 107 216T104 170Q104 -3 278 -3Q379 -3 485 51L526 75Q554 91 562 91Q568 91 568 84Q568 55 522 36Q457 7 365 -12Q319 -22 278 -27T201 -32Z" />
<glyph unicode="F" glyph-name="F" horiz-adv-x="356" d="M123 -25Q77 -25 77 99Q77 130 80 170T90 260L89 259Q87 260 79 260Q25 260 21 264Q27 286 67 305L96 302Q107 370 112 424T119 519H113Q103 519 84 518T54 517Q28 517 26 522Q32 536 51 548T86 560Q99
560 113 560T143 559Q154 567 160 567Q168 567 169 558L393 546Q459 546 513 555Q507 540 486 536Q408 516 234 516Q218 516 201 516T167 517Q159 482 148 428T123 301H237Q245 301 255 301T279 302H308Q397 302 397 293Q397 276 306 270L117 262Q111 217 111 179Q111
134 120 89Q134 21 161 21Q167 21 176 26T187 31Q189 29 189 29Q189 23 174 11L153 -11Q139 -24 126 -25H123Z" />
<glyph unicode="G" glyph-name="G" horiz-adv-x="615" d="M291 -56Q178 -56 101 17Q23 91 23 201Q23 362 159 471Q286 574 450 574Q556 574 578 499Q579 496 579 493T580 487Q580 478 575 476L548 509Q515 539 451 539Q308 539 186 428Q60 314 60 173Q60 68 135
14Q199 -32 309 -32Q388 -32 454 -3Q533 33 547 101Q553 133 553 221Q553 231 564 241T586 251Q595 251 599 244Q592 216 589 171T585 64Q585 53 586 32T588 0Q588 -15 578 -15Q556 -15 545 30Q441 -56 291 -56Z" />
<glyph unicode="H" glyph-name="H" horiz-adv-x="608" d="M148 -32Q104 -32 104 89Q104 113 107 159Q109 182 110 200T111 230Q108 231 98 231Q88 231 72 230T38 228T11 226H0Q18 265 58 265Q66 265 83 264T108 262Q116 262 119 263Q121 296 126 340T139 441Q129
438 125 438Q119 438 115 445Q145 586 179 586Q196 586 196 552Q196 536 175 444Q163 392 157 346T150 262Q197 262 239 262T322 263L494 265Q499 348 501 397T504 461Q504 478 504 495T502 532Q522 567 540 567Q552 567 552 543Q552 531 549 506T541 440Q537 412
532 368T520 265Q570 265 570 256Q570 243 519 238V219Q519 164 531 105Q548 22 581 22Q587 22 596 26T607 31Q609 29 609 29Q609 26 605 22T595 11L574 -11Q569 -17 563 -21T550 -25H547Q490 -25 490 155Q490 175 490 195T492 236Q467 235 380 235T145 234Q140
206 138 176T135 114Q135 6 171 -15Q176 -18 176 -19Q176 -32 148 -32Z" />
<glyph unicode="I" glyph-name="I" horiz-adv-x="359" d="M168 -21Q161 -21 160 -14L156 0H37Q34 0 34 5Q34 29 88 29Q86 29 101 29T151 27Q150 32 150 42T149 69Q149 101 151 161T159 311Q163 400 171 495L51 491Q50 492 50 493Q50 499 57 509Q64 520 70 522Q76
524 176 524Q186 546 215 546Q219 546 219 543Q219 540 218 534T217 524H283Q290 524 299 524T322 525H349Q370 525 372 523Q372 517 347 507Q320 496 314 496H214Q187 330 187 169Q187 130 189 94T195 26H228Q245 26 254 26T263 25Q263 24 286 27T342 31H344Q346
31 346 30Q346 27 319 15Q306 9 297 6T284 2Q274 1 255 1T207 0Q204 -6 190 -13T168 -21Z" />
<glyph unicode="J" glyph-name="J" horiz-adv-x="370" d="M84 -152Q48 -152 3 -99Q-33 -57 -51 -12V-8Q-51 11 -42 8Q-11 -40 28 -76Q82 -127 120 -127Q260 -127 260 348Q260 400 259 445T253 528Q241 528 223 527T181 524Q133 521 109 521Q105 521 105 525Q105
534 114 544T132 557H258Q269 580 297 580Q301 580 301 576Q301 573 300 566T299 556Q311 557 351 558T462 560L465 561Q467 559 467 559Q467 554 441 543Q428 538 420 536T407 532Q388 532 361 532T298 530Q300 521 301 476Q304 418 304 361Q304 -152 84 -152Z"
/>
<glyph unicode="K" glyph-name="K" horiz-adv-x="525" d="M98 -25Q51 -25 51 97Q51 104 51 111T52 127H49Q40 127 40 140Q40 157 55 173Q59 364 76 441Q66 438 63 438Q57 438 54 445Q78 586 113 586Q131 586 131 550Q131 532 110 428Q102 385 95 327T81 192L179
274Q168 313 163 337T157 369Q157 375 162 375Q166 375 167 371Q171 357 177 336T193 286Q261 344 314 390T402 471L488 556Q495 563 505 563Q523 563 523 550Q523 544 514 538Q435 481 358 414T206 267Q232 188 277 120Q338 29 397 29Q456 29 482 115Q500 174
500 252Q500 288 497 295Q500 298 502 298Q509 298 514 283T519 258Q519 173 489 89Q450 -21 382 -21Q316 -21 254 83Q234 118 216 159T183 249Q152 227 86 152Q94 21 135 21Q141 21 151 26T162 31L164 29Q164 24 126 -12Q113 -25 98 -25Z" />
<glyph unicode="L" glyph-name="L" horiz-adv-x="524" d="M201 -32Q65 -32 65 122Q65 181 83 262Q97 325 105 365T110 422L109 428Q108 429 106 429Q104 429 100 428T93 427Q88 427 86 432Q91 453 97 473T111 513Q137 573 161 573Q175 573 175 549Q175 545 171
523T158 462L115 265Q110 240 107 217T104 170Q104 -3 278 -3Q379 -3 485 51L526 75Q554 91 562 91Q568 91 568 84Q568 57 522 36Q457 7 364 -12Q318 -22 277 -27T201 -32Z" />
<glyph unicode="M" glyph-name="M" horiz-adv-x="768" d="M709 0Q639 0 592 408Q564 346 535 291T477 189Q380 29 321 29Q253 29 211 208Q195 276 187 338T179 455Q179 539 208 544L213 462Q221 336 243 243Q282 83 351 83Q399 83 488 241Q559 367 587 451L580
516Q580 565 611 565Q637 565 637 515Q637 486 628 475V458Q628 412 632 363T644 262Q649 231 656 201T672 142Q702 47 737 47Q742 47 750 51T761 56L764 53Q764 48 734 13Q724 0 709 0ZM48 -24Q24 -24 24 43Q24 169 119 454Q123 465 130 486T149 537Q159 565 175
565Q183 565 184 555Q153 476 131 419T97 325Q51 186 51 87Q51 72 59 37Q63 21 65 10T67 -6Q67 -24 48 -24Z" />
<glyph unicode="N" glyph-name="N" horiz-adv-x="599" d="M98 -136Q25 -136 25 10Q25 59 37 120T67 248T102 377T129 492Q130 495 125 503T120 517Q120 530 136 549Q153 569 165 569Q169 569 170 566Q192 454 280 272Q384 57 457 57Q540 57 540 220Q540 381 451
541Q449 547 449 549Q449 571 475 571Q480 571 482 569L508 520Q527 483 544 483Q556 483 564 497Q565 498 567 498Q572 498 572 490Q572 477 560 467T535 457Q524 457 516 465Q536 440 550 353Q555 319 557 289T560 232Q560 159 537 95Q506 8 445 8Q344 8 219
295Q214 306 198 349T154 466Q137 409 123 368T96 292T76 223T64 145T59 41Q59 -104 115 -104Q121 -104 129 -99T140 -94Q143 -94 143 -98Q143 -110 127 -123T98 -136Z" />
<glyph unicode="O" glyph-name="O" horiz-adv-x="643" d="M199 -38Q26 -38 26 139Q26 260 104 369Q182 479 296 516Q300 515 300 510Q300 496 248 472Q180 441 122 333Q67 233 67 151Q67 0 229 0Q356 0 480 87Q616 181 616 303Q616 390 551 470Q482 554 397 554Q380
554 356 544Q332 535 330 535Q323 535 323 541Q323 558 359 565Q385 571 407 571Q508 571 583 495Q659 419 659 318Q659 165 501 58Q360 -38 199 -38Z" />
<glyph unicode="P" glyph-name="P" horiz-adv-x="487" d="M139 -24Q64 -24 64 120Q64 247 109 439L121 484Q129 497 144 509Q124 512 124 516Q124 559 195 559Q259 559 357 510Q468 455 468 400Q468 341 391 288Q365 269 333 254T262 226Q208 208 184 208Q144
208 144 220Q144 221 224 239Q313 259 342 273Q431 318 431 371Q431 427 330 477Q240 521 179 521Q163 521 155 507Q154 506 148 478Q100 262 100 158Q100 0 164 0Q176 0 192 8V4Q192 -8 171 -17Q156 -24 139 -24Z" />
<glyph unicode="Q" glyph-name="Q" horiz-adv-x="685" d="M587 -232Q516 -232 436 -128Q403 -84 333 39L276 21Q195 -5 146 -5Q-1 -5 -1 132Q-1 206 80 375Q167 556 227 556Q243 556 243 543Q243 529 226 515Q198 509 173 484Q119 431 77 336Q36 240 36 166Q36
27 180 27Q213 27 325 58Q324 63 320 75T308 107Q296 139 296 154Q296 188 306 188Q319 188 341 139Q341 139 348 124T369 77Q449 109 530 179Q627 264 627 333Q627 419 520 484Q426 542 333 542Q328 542 325 541H317Q297 541 297 546Q297 557 346 557Q444 557
547 503Q669 438 669 351Q669 217 375 56Q407 -18 465 -90Q538 -181 599 -181Q680 -181 704 -27L712 23Q714 26 715 26Q721 26 721 -4Q721 -75 688 -146Q647 -232 587 -232Z" />
<glyph unicode="R" glyph-name="R" horiz-adv-x="536" d="M364 -38Q280 -38 200 159Q194 180 179 219Q174 229 162 234Q153 239 153 257Q153 300 172 300Q178 300 182 296Q186 285 192 269T206 231V233Q206 238 213 239Q238 243 259 247T296 256Q347 271 392 299Q457
338 457 374Q457 417 392 456Q329 496 247 508Q193 517 92 517Q76 517 62 516T35 512Q38 537 57 544Q62 546 72 547T99 549Q110 550 123 550T153 550H170Q318 550 418 493Q493 450 493 395Q493 338 382 278Q282 224 220 224Q209 224 206 231Q292 12 380 12Q438
12 465 99Q483 158 483 234Q483 271 480 278Q482 281 484 281Q491 281 496 266T502 242Q502 156 472 72Q433 -38 364 -38ZM100 -45Q47 -45 53 55L54 70Q57 120 65 176T87 294Q114 419 114 464Q114 469 114 474T113 484Q128 510 141 510Q152 510 152 484V478Q152
465 147 433T130 348Q110 255 100 190T90 87Q90 3 125 -26Q118 -45 100 -45Z" />
<glyph unicode="S" glyph-name="S" horiz-adv-x="415" d="M45 -83Q21 -83 21 -66Q21 -41 67 -29Q69 -28 79 -27T110 -21Q200 -5 244 21Q317 66 317 105Q317 143 241 179Q217 190 182 206T100 244Q24 281 24 331Q24 398 162 471Q289 539 363 539Q427 539 427 503Q427
436 396 380Q379 348 368 348Q364 348 364 356Q364 375 374 408Q385 444 385 461Q385 507 328 507Q267 507 164 457Q51 401 51 347Q51 321 71 298T131 258L279 198Q359 165 359 126Q359 64 233 -4Q217 -12 172 -32T49 -83H45Z" />
<glyph unicode="T" glyph-name="T" horiz-adv-x="434" d="M279 -17Q214 -17 214 119Q214 147 217 184L232 407Q233 424 235 453T239 526Q230 526 209 525T154 522Q138 521 125 521T99 520Q91 520 84 520T69 521Q77 512 74 512Q54 512 30 519Q-3 528 -3 540Q-3
557 34 557H39L125 551Q170 548 211 548Q222 548 231 548T248 549Q279 566 282 566Q289 566 288 553Q324 553 396 559Q468 565 504 565Q516 565 516 558Q516 549 440 542Q399 538 359 535T280 526Q247 304 247 183Q247 16 311 16Q343 16 383 68Q385 66 385 63Q385
44 351 16Q319 -8 298 -14Q286 -17 279 -17Z" />
<glyph unicode="U" glyph-name="U" horiz-adv-x="516" d="M430 -11Q369 -11 369 136Q369 158 371 186T377 250Q389 357 389 364Q327 245 252 146Q139 0 64 0Q25 0 25 89Q25 167 57 275Q65 300 80 345T121 455Q105 442 90 442Q79 442 68 451T56 471Q56 476 60 476Q62
475 63 475T65 474Q74 461 84 461Q105 461 123 497Q127 505 133 517T148 546Q150 548 154 548Q181 548 181 527Q181 525 179 519Q135 440 101 335Q64 221 64 141Q64 48 100 48Q162 48 250 172Q279 213 305 257T356 351Q366 370 375 392T393 440Q394 452 396 470T401
512Q408 567 435 567Q459 567 459 544L449 499Q427 402 417 322T407 178Q407 36 469 36Q502 36 536 103Q539 103 540 96Q540 94 539 93Q521 57 495 28Q461 -11 430 -11Z" />
<glyph unicode="V" glyph-name="V" horiz-adv-x="403" d="M196 -35Q189 -35 188 -31Q180 -16 171 20T150 114Q143 153 136 192T121 270Q109 331 95 374T65 443L43 469Q32 482 32 501Q32 553 58 553Q61 553 65 551Q97 530 126 419Q141 356 168 205Q180 138 189
96T203 37L337 337Q447 574 500 574Q528 574 528 536Q528 519 522 519Q521 519 515 531T500 543Q490 543 472 522Q409 446 333 286Q302 219 276 154T228 27Q227 24 227 0Q227 -35 196 -35Z" />
<glyph unicode="W" glyph-name="W" horiz-adv-x="747" d="M107 -1Q74 -1 74 88Q74 116 75 158T79 255Q85 366 85 422Q68 402 52 402Q44 402 32 408T19 422Q19 425 24 425H27Q38 417 45 417Q66 417 75 462Q79 481 84 518Q87 523 98 523Q124 523 124 506Q124 504
122 500Q128 481 128 439Q128 414 126 378T120 291Q116 242 114 205T112 143Q112 53 138 53Q168 53 239 169Q248 184 278 238T360 384Q425 500 440 500Q445 500 446 487Q446 473 446 448T448 385Q457 56 571 56Q650 56 696 167Q731 254 731 346Q731 502 646 539Q644
540 633 542T602 549Q593 551 593 557Q593 565 607 571T630 578Q699 578 732 513Q758 463 758 387Q758 229 676 99Q618 8 548 8Q464 8 430 186Q420 236 415 287T410 393Q410 403 410 412T411 432L269 189Q158 -1 107 -1Z" />
<glyph unicode="X" glyph-name="X" horiz-adv-x="528" d="M-61 -199Q-69 -199 -69 -192Q-69 -137 -43 -80Q-35 -62 -20 -37T15 20Q32 47 103 136Q133 174 153 203T183 251Q183 258 107 411Q98 385 74 385Q52 385 52 393Q52 398 58 399Q61 398 66 398Q87 398 87
423Q87 442 74 472Q62 505 62 508Q62 522 87 522Q98 522 108 519Q125 480 152 422T214 286L324 428Q394 519 447 552Q452 555 455 555Q459 555 459 550L455 540Q446 522 441 512T433 499Q420 474 403 463Q394 462 371 451Q364 446 344 423T289 358Q222 276 220
268Q313 51 390 51Q449 51 476 137Q494 196 494 272Q494 309 490 317Q492 319 495 319Q502 319 507 304T513 280Q513 195 482 109Q441 -4 375 -4Q320 -4 264 82Q238 124 195 218Q14 37 -37 -123Q-41 -139 -52 -192Q-53 -199 -61 -199Z" />
<glyph unicode="Y" glyph-name="Y" horiz-adv-x="364" d="M161 -208Q112 -208 112 -139Q112 -57 228 172Q275 264 318 339T401 473Q412 490 419 500T430 513Q428 513 427 512Q408 506 402 506Q392 506 392 511Q392 521 408 525Q430 532 447 542T475 566Q488 582
506 582Q520 582 520 574Q520 572 515 565Q457 498 401 417T288 240Q148 1 148 -117Q148 -184 176 -184Q190 -184 221 -166Q253 -148 256 -148Q258 -148 258 -150Q258 -156 248 -165Q204 -208 161 -208ZM205 140Q206 145 206 150T206 161Q206 239 169 322Q131 409
73 456Q82 429 82 411Q82 372 43 372Q34 372 34 376Q34 379 38 382Q61 384 61 403Q61 421 34 458Q8 496 8 501Q8 526 35 526Q106 526 166 405Q216 305 220 219L222 179Q223 147 205 140Z" />
<glyph unicode="Z" glyph-name="Z" horiz-adv-x="610" d="M162 605Q162 604 161 607Q161 611 162 611V605ZM552 -43Q530 -43 500 -29Q492 -25 480 -19T451 -4Q335 54 219 54Q71 54 0 -11Q11 88 236 270Q199 266 173 264T131 262Q127 262 127 264Q127 271 145 284Q163
297 171 299Q189 299 215 299T275 301Q292 314 318 334T378 381Q459 447 459 470Q459 523 330 523Q317 523 297 522T248 519Q221 517 201 516T167 515H157Q158 516 158 489Q158 463 135 463Q115 463 115 480Q115 491 128 517Q135 531 138 541T142 556L147 586Q151
607 160 609Q160 609 161 607Q160 602 159 587Q158 570 158 557T157 534Q343 552 385 552Q534 552 534 501Q534 464 314 301Q405 301 405 286Q405 279 363 277L278 274Q37 93 37 38Q37 34 38 32Q121 90 247 90Q323 90 412 67Q505 43 564 2H568Q588 2 588 31Q588
39 587 50T581 74H584Q607 74 607 21Q607 -43 552 -43Z" />
<glyph unicode="[" glyph-name="bracketleft" horiz-adv-x="352" d="M113 -13Q31 -13 27 14Q26 18 26 36Q26 133 93 301Q164 481 231 533Q250 547 283 547Q368 547 372 532Q373 530 373 528T374 521H368Q366 520 363 520Q353 520 333 522T303 524Q277 524 267
519Q260 515 250 504T226 472Q174 398 122 274Q63 133 63 63Q63 4 129 4Q139 4 157 5T186 7Q208 7 208 -2Q208 -13 113 -13Z" />
<glyph unicode="\" glyph-name="backslash" horiz-adv-x="483" d="M480 -99Q476 -99 468 -95T460 -87Q460 -86 462 -84Q468 -79 468 -69Q468 -14 251 230L-25 528Q-35 538 -35 546Q-35 558 -18 558Q-1 558 171 363L297 219Q333 178 363 141T418 71Q491 -26 491
-83Q491 -99 480 -99Z" />
<glyph unicode="]" glyph-name="bracketright" horiz-adv-x="445" d="M119 -13Q34 -13 29 2Q29 4 29 6T27 13H39Q48 13 66 12T94 11Q127 11 134 15Q148 22 176 62Q202 100 228 149T280 260Q338 397 338 471Q338 531 273 531Q264 531 245 529T217 527Q193 527 193
537Q193 547 276 547H289Q368 547 374 520Q375 518 375 512T375 498Q375 401 308 233Q237 54 171 1Q154 -13 119 -13Z" />
<glyph unicode="^" glyph-name="asciicircum" horiz-adv-x="370" d="M93 598Q90 600 90 600Q90 609 141 654Q194 700 205 701Q217 696 266 653Q316 609 316 602Q316 598 312 598Q308 598 258 631L200 670Q110 598 93 598Z" />
<glyph unicode="_" glyph-name="underscore" horiz-adv-x="550" d="M280 -63Q258 -63 223 -63T149 -63T75 -61T17 -60T-10 -58Q-10 -27 32 -27H552Q560 -27 560 -32Q560 -38 550 -45T526 -54Q498 -55 463 -56T391 -59T326 -62T280 -63Z" />
<glyph unicode="`" glyph-name="grave" horiz-adv-x="136" d="M130 368Q123 368 73 410Q64 418 49 428T26 444Q25 447 24 449T22 455V457Q26 473 42 473Q45 473 48 470L95 416Q107 403 118 392T133 372Q133 368 130 368Z" />
<glyph unicode="a" glyph-name="a" horiz-adv-x="277" d="M30 19Q1 19 1 55Q1 102 50 172Q71 203 93 227T137 270Q166 294 190 294Q205 294 215 282T225 254Q225 247 221 247Q221 247 214 254T191 261Q168 261 151 250Q107 219 70 171Q27 115 27 70Q27 47 43 47Q69
47 125 124Q149 158 164 184T187 230Q194 237 203 237Q208 237 209 233Q202 220 202 186Q202 143 212 109Q227 56 255 56Q273 56 293 87L314 119Q315 118 315 117Q315 101 285 63Q255 26 239 26Q213 26 191 84Q174 132 174 165Q76 19 30 19Z" />
<glyph unicode="b" glyph-name="b" horiz-adv-x="249" d="M82 -27Q14 -27 14 10Q14 21 21 21L41 2Q38 23 38 48Q38 62 38 71T39 88Q50 239 56 332T62 461Q62 561 23 561Q14 561 5 558Q4 557 2 557Q-2 557 -2 562Q-2 569 33 581Q66 594 79 594Q102 594 102 553Q102
498 93 408Q86 341 80 264T68 101Q84 150 123 198Q169 256 211 256Q246 256 246 197Q246 113 206 49Q160 -27 82 -27ZM74 -10Q133 -10 175 52Q213 110 213 171Q213 224 189 224Q162 224 127 176Q74 102 74 40Q74 35 75 27T76 13Q76 -3 69 -10H74Z" />
<glyph unicode="c" glyph-name="c" horiz-adv-x="193" d="M80 -11Q16 -11 16 86Q16 134 30 176Q35 189 41 204T58 239Q83 288 95 288Q112 288 119 275Q121 281 128 281Q142 281 155 268T168 241Q168 226 156 212T129 197Q127 197 125 199Q146 232 146 248Q146
266 133 266Q99 266 64 171Q41 107 41 68Q41 5 90 5Q146 5 203 80Q222 105 224 106Q227 106 227 102Q227 101 225 95Q170 -11 80 -11Z" />
<glyph unicode="d" glyph-name="d" horiz-adv-x="264" d="M217 -52Q181 -52 181 39Q181 50 182 78T188 150Q171 115 120 58Q62 -8 36 -8Q7 -8 7 27Q7 75 56 145Q77 176 99 200T143 243Q172 268 198 268Q202 327 204 375T206 458Q206 561 166 561Q163 561 156 559T146
557Q141 557 141 562Q141 569 175 581Q208 594 221 594Q245 594 245 553Q245 534 239 461T220 257Q231 243 231 227Q231 220 227 220Q227 220 227 220V220Q229 220 218 230Q214 193 213 155T211 79Q211 -22 243 -22Q264 -22 287 13Q290 13 290 7Q290 -6 261 -29Q232
-52 217 -52ZM49 20Q78 20 130 95Q166 148 193 200L195 234Q171 233 157 223Q115 195 77 145Q33 86 33 44Q33 20 49 20Z" />
<glyph unicode="e" glyph-name="e" horiz-adv-x="193" d="M82 -11Q13 -11 13 93Q13 110 14 126T20 159Q8 167 8 172Q8 181 29 188Q39 218 58 256Q85 308 99 308Q115 308 123 294Q129 308 137 308Q165 308 165 274Q165 248 155 228Q162 220 162 213Q162 211 159
209L103 191Q87 186 75 178T52 161Q41 128 41 90Q41 6 93 6Q162 6 223 118Q226 123 228 123Q231 123 231 117Q231 112 228 106Q204 58 170 27Q127 -11 82 -11ZM64 196Q74 199 87 203T117 215Q122 219 130 240Q137 258 137 269Q137 282 127 282Q116 282 91 245Q65
209 64 196Z" />
<glyph unicode="f" glyph-name="f" horiz-adv-x="195" d="M1 -329Q-23 -329 -54 -307Q-85 -285 -85 -263Q-85 -255 -80 -255Q-80 -255 -54 -280Q-28 -306 -9 -306Q54 -306 64 -75Q65 -31 68 49T75 244Q43 240 23 239T-4 237Q-15 237 -15 241Q-15 254 1 261Q15
269 27 269Q34 269 35 266T39 262Q60 262 77 269L88 444Q92 520 127 586Q171 670 237 670Q272 670 302 636Q333 602 333 566Q333 559 330 557Q329 558 328 559T325 564Q289 644 228 644Q106 644 106 286V264Q117 265 127 265T145 265Q207 265 214 250Q209 245 206
244Q193 246 179 247T148 249Q139 249 128 249T104 248Q103 241 103 209T100 117Q99 49 98 5T95 -60Q93 -113 88 -156T76 -234Q56 -329 1 -329Z" />
<glyph unicode="g" glyph-name="g" horiz-adv-x="286" d="M94 -373Q60 -373 30 -340Q1 -306 1 -273Q1 -264 4 -263L8 -270Q29 -307 51 -326T104 -346Q218 -346 218 -50Q218 -38 215 24T205 199Q84 6 30 6Q-1 6 -1 44Q-1 103 72 200Q148 303 203 303Q219 303 230
290T241 260Q241 252 236 252Q236 252 228 259T203 266Q178 266 161 255Q115 224 74 170Q27 108 27 61Q27 35 44 35Q94 35 193 220L200 233Q211 244 220 244Q228 244 231 237Q237 222 243 100Q245 50 246 14T248 -46Q248 -79 247 -103T244 -142Q234 -220 202 -285Q159
-373 94 -373Z" />
<glyph unicode="h" glyph-name="h" horiz-adv-x="250" d="M13 -64Q12 -63 12 -62Q13 -57 15 -45T19 -14Q38 124 47 243T56 462Q56 561 17 561Q14 561 7 559T-3 557Q-8 557 -8 562Q-8 569 27 581Q60 594 73 594Q96 594 96 553Q96 523 94 487T88 410L61 109L150
226Q161 241 188 288Q202 311 231 311Q244 311 247 305Q246 304 245 303T240 301Q212 289 193 213Q177 153 177 108Q177 33 213 33Q225 33 241 52L258 71Q259 70 259 69Q259 56 235 27Q213 -1 200 -1Q152 -1 152 98Q152 185 156 200Q149 193 139 181T112 149Q49
71 44 -39Q22 -62 13 -64Z" />
<glyph unicode="i" glyph-name="i" horiz-adv-x="163" d="M67 386Q44 386 44 406Q44 425 65 434L99 449Q103 451 105 451Q112 451 112 442Q112 439 99 423Q86 407 84 399Q80 386 67 386ZM91 -15Q60 -15 60 54Q60 78 63 121Q66 166 66 189Q66 258 29 258Q25 258
18 256T7 254Q2 254 2 258Q2 266 36 276Q71 288 81 288Q96 288 96 244Q96 233 95 215T91 174Q89 151 88 134T87 105Q87 13 117 13Q140 13 167 45Q170 45 170 40Q170 27 138 6Q107 -15 91 -15Z" />
<glyph unicode="j" glyph-name="j" horiz-adv-x="162" d="M71 386Q48 386 48 406Q48 423 68 434L109 451Q116 451 116 441Q116 439 103 423Q90 406 89 399Q85 386 71 386ZM-35 -373Q-68 -373 -98 -340Q-128 -307 -128 -273Q-128 -264 -125 -263L-120 -270Q-84
-346 -25 -346Q82 -346 82 -64Q82 4 76 85L64 233Q49 242 49 257Q49 267 52 271Q66 292 83 292Q90 292 97 226Q118 39 118 -78Q118 -98 117 -114T114 -142Q107 -184 96 -220T71 -285Q28 -373 -35 -373Z" />
<glyph unicode="k" glyph-name="k" horiz-adv-x="290" d="M58 -48Q38 -28 38 61Q38 128 50 261Q62 395 62 461Q62 561 23 561Q14 561 5 558Q4 557 2 557Q-2 557 -2 562Q-2 569 33 581Q66 594 79 594Q102 594 102 553Q102 531 100 494T92 406Q68 162 68 98Q68 75
68 62T70 44Q79 62 112 119Q96 174 96 194Q96 226 136 251Q139 253 155 263T201 290Q202 294 212 305Q234 321 253 321Q271 321 271 296Q271 280 261 270L194 203Q175 184 160 166T134 131Q186 34 227 34Q250 34 274 61L298 89Q301 89 301 85Q301 68 263 33Q226
-1 208 -1Q175 -1 151 37L119 104Q88 32 88 -4Q88 -7 89 -12T90 -21Q90 -36 58 -48ZM126 146Q167 191 245 280Q123 221 123 167Q123 157 126 146Z" />
<glyph unicode="l" glyph-name="l" horiz-adv-x="145" d="M73 -52Q37 -52 37 38Q37 51 37 63T39 88Q50 229 56 322T62 461Q62 561 23 561Q14 561 5 558Q4 557 2 557Q-2 557 -2 562Q-2 569 33 581Q66 594 79 594Q102 594 102 553Q102 531 100 494T92 406Q68 162
68 97Q68 -22 100 -22Q108 -22 115 -17T129 -4L144 13Q147 13 147 7Q147 -6 117 -29Q88 -52 73 -52Z" />
<glyph unicode="m" glyph-name="m" horiz-adv-x="372" d="M36 -1Q28 -1 28 20Q28 36 31 52Q44 120 50 169T57 247Q57 274 50 282T15 290Q9 290 -1 288T-17 285Q-21 285 -21 287Q-21 290 6 303Q59 330 61 330Q86 330 86 279Q86 265 80 219T63 96L59 69L60 67Q153
233 180 233Q195 233 193 104Q200 113 220 141T276 215L315 252Q323 260 327 260Q329 260 329 257Q329 254 326 248Q302 196 302 108Q302 33 338 33Q352 33 382 71V68Q382 56 359 27Q337 -1 325 -1Q276 -1 276 104Q276 150 282 187Q248 171 201 95L187 67Q182 59
176 59Q162 59 160 104Q160 112 160 126T161 160Q160 177 154 183Q127 175 54 20Q44 -1 36 -1Z" />
<glyph unicode="n" glyph-name="n" horiz-adv-x="261" d="M16 -30Q14 -28 14 -27Q15 -20 17 -2T24 47Q32 107 36 152T40 227Q40 258 35 275Q31 279 19 279Q13 279 1 276T-16 273Q-21 273 -21 276Q-21 280 7 292Q55 318 55 319Q74 319 74 262Q74 237 65 186Q61
161 59 143T57 111V108Q66 124 80 145T114 193Q155 247 177 268Q181 272 197 279T220 286Q223 286 223 284Q199 238 193 215Q185 185 185 138Q185 56 220 56Q232 56 248 75Q250 79 254 83T264 95L265 91Q265 80 242 51Q220 23 207 23Q158 23 158 127Q158 156 159
182T165 231Q140 207 120 180T82 123Q41 50 45 -5Q40 -11 33 -17T16 -30Z" />
<glyph unicode="o" glyph-name="o" horiz-adv-x="182" d="M69 2Q22 2 22 96Q22 131 28 166T45 236Q54 264 76 284T127 305Q137 305 138 301Q136 297 133 299Q93 289 73 217Q66 191 63 163T59 105Q59 32 83 32Q116 32 134 104Q146 154 146 205Q146 238 135 255T124
270Q124 278 135 278Q165 278 165 203Q165 146 143 84Q115 2 69 2Z" />
<glyph unicode="p" glyph-name="p" horiz-adv-x="290" d="M4 -368Q2 -368 2 -366Q2 -361 9 -346L18 -326Q45 -230 45 14Q45 209 29 264Q26 267 26 270Q26 278 38 284T58 290Q77 265 77 118Q148 223 223 223Q273 223 273 181Q273 129 222 82Q170 35 119 35Q83 35
83 49Q83 61 104 68Q112 69 119 70T133 72Q244 92 244 158Q244 196 208 196Q133 196 98 113Q74 55 74 -35Q74 -242 43 -307Q38 -318 30 -333T8 -367Q6 -368 4 -368Z" />
<glyph unicode="q" glyph-name="q" horiz-adv-x="263" d="M202 -326Q139 -326 147 -207L148 -192Q149 -176 152 -142T159 -53Q161 -25 167 20T182 126L119 45Q72 -11 43 -11Q14 -11 14 26Q14 81 83 172Q152 265 203 265Q239 265 239 225Q239 218 234 218Q235 218
228 225T206 232Q181 232 164 220Q118 188 84 142Q41 87 41 41Q41 18 56 18Q83 18 139 95Q164 130 179 156T200 201Q208 209 216 209Q222 209 223 205Q216 172 209 127T195 24Q180 -108 180 -186Q180 -203 183 -220T191 -254Q205 -299 233 -299Q254 -299 286 -264Q289
-264 289 -269Q289 -285 254 -305Q220 -326 202 -326Z" />
<glyph unicode="r" glyph-name="r" horiz-adv-x="202" d="M16 -30Q14 -28 14 -27Q15 -20 17 -2T24 47Q32 107 36 152T40 227Q40 258 35 275Q31 279 19 279Q13 279 1 276T-16 273Q-21 273 -21 276Q-21 279 5 293Q59 319 55 319Q74 319 74 262Q74 237 65 186Q61
161 59 143T57 111V108Q116 207 177 268Q200 286 220 286Q223 286 223 284Q213 264 208 252T200 235Q192 215 187 180Q186 167 181 167Q164 167 164 215Q164 219 164 223T165 231Q140 207 120 180T82 123Q41 50 45 -5Q40 -11 33 -17T16 -30Z" />
<glyph unicode="s" glyph-name="s" horiz-adv-x="211" d="M85 -35Q38 -35 21 9Q17 18 17 24Q17 31 24 31Q28 31 30 26Q44 -18 81 -18Q121 -18 121 21Q121 43 86 96Q51 149 51 183Q51 228 93 274Q135 320 179 320Q212 320 212 290Q212 280 197 260Q183 240 175
240Q174 241 174 242Q174 243 182 255T190 274Q190 281 180 281Q148 281 113 249Q79 218 79 185Q79 155 116 106Q154 56 154 26Q154 -1 134 -18T85 -35Z" />
<glyph unicode="t" glyph-name="t" horiz-adv-x="200" d="M116 -22Q79 -22 79 75Q79 101 82 154T92 288Q22 279 10 279Q1 279 1 283Q1 294 18 303Q32 311 44 311Q49 311 49 310Q48 309 48 308T47 305H50Q62 305 93 308Q96 313 96 350Q96 447 76 447Q70 447 56
441T40 435L37 437Q38 438 39 439T42 441L75 472Q102 497 107 499Q129 499 129 435Q129 415 127 385T121 313Q135 314 146 314T165 315Q216 315 223 302Q219 296 214 296Q208 296 196 297T177 298Q169 298 155 297T120 293Q115 249 112 212T109 145Q109 9 143 9Q164
9 186 45Q190 45 190 38Q190 24 160 1Q131 -22 116 -22Z" />
<glyph unicode="u" glyph-name="u" horiz-adv-x="262" d="M33 4Q14 4 14 51Q14 72 19 106T34 189Q30 198 30 212Q30 263 74 277Q78 276 78 267Q78 260 62 203Q44 139 44 85Q44 43 60 43Q87 43 135 137Q176 217 186 260Q192 283 215 283Q227 283 227 274Q227 269
221 257T213 241Q198 174 198 112Q198 40 231 40Q249 40 276 79Q303 119 304 119Q308 119 308 114Q308 100 267 53Q227 8 212 8Q170 8 170 97Q170 108 172 130T178 187Q166 164 150 138T113 82Q58 4 33 4Z" />
<glyph unicode="v" glyph-name="v" horiz-adv-x="218" d="M67 -17Q60 -17 60 -8Q60 6 62 32T65 73Q65 141 35 211Q36 207 36 201Q36 198 33 195L30 199Q23 212 16 222T1 243Q1 251 8 261T23 271Q25 271 26 270Q55 259 75 181Q83 150 87 124T92 74Q104 122 155
220Q213 332 246 332Q266 332 266 296Q266 283 259 283L255 287Q251 290 246 290Q221 290 177 225Q146 181 126 135T95 41Q94 22 86 -8Q82 -17 67 -17Z" />
<glyph unicode="w" glyph-name="w" horiz-adv-x="412" d="M60 -23Q54 -23 52 -18Q54 -7 55 5T57 32Q57 57 52 94T37 180Q36 171 32 170L17 200Q10 215 7 223T4 232Q4 242 19 257Q34 273 44 273H48L84 70Q113 138 169 203Q199 237 205 237Q211 237 220 189Q250
39 286 39Q325 39 362 144Q381 194 381 233Q381 281 343 307Q338 310 338 314Q338 324 356 324Q401 324 401 264Q401 222 377 156Q357 96 330 54Q295 1 270 1Q249 1 232 43T192 169L184 199Q170 197 130 132Q90 67 90 49Q90 44 91 34T92 19Q92 -23 60 -23Z" />
<glyph unicode="x" glyph-name="x" horiz-adv-x="257" d="M-17 -42Q-20 -42 -20 -37Q-20 -24 87 125Q79 152 73 177T64 227L56 225L54 226Q51 240 51 251Q51 285 76 285Q87 285 91 267Q96 206 109 156L174 243Q178 249 185 259T203 283Q214 295 224 295Q230 295
230 290Q222 279 194 241T115 138Q149 26 206 26Q249 26 290 112Q291 116 294 116Q296 114 296 110Q296 107 294 101Q251 -11 188 -11Q131 -11 93 109Q31 28 4 -19Q-10 -42 -17 -42Z" />
<glyph unicode="y" glyph-name="y" horiz-adv-x="262" d="M65 -373Q32 -373 2 -340Q-28 -307 -28 -273Q-28 -264 -25 -263L-20 -270Q16 -346 75 -346Q189 -346 189 -59Q189 -49 186 11T176 184Q160 144 112 78Q57 -1 30 -1Q9 -1 9 47Q9 68 14 102T29 184Q24 199
24 211Q24 261 69 273Q73 270 73 263Q73 256 69 237T56 184Q39 118 39 81Q39 39 55 39Q76 39 121 115Q162 183 181 256Q187 279 210 279Q221 279 221 270Q221 266 218 257T210 238T204 226Q205 223 207 201Q219 99 219 -37Q219 -70 218 -96T214 -142Q204 -223 173
-286Q130 -373 65 -373Z" />
<glyph unicode="z" glyph-name="z" horiz-adv-x="258" d="M24 -7Q3 -5 3 8Q3 41 102 120Q92 119 86 119T74 118Q73 118 72 119Q72 125 79 132Q85 138 88 140T99 142T126 142Q212 213 212 235Q212 249 164 249Q146 249 108 240Q89 236 76 234T53 232Q48 232 48
238Q48 256 105 268Q125 272 143 274T178 276Q248 276 248 259Q248 219 146 142Q195 141 195 133Q195 129 169 127L123 124Q47 57 47 36Q47 27 63 27Q65 27 69 27T79 29Q120 36 149 39T197 43Q250 43 250 21Q250 10 215 -4Q187 16 135 16Q78 16 24 -7Z" />
<glyph unicode="{" glyph-name="braceleft" horiz-adv-x="309" d="M189 -33Q78 -33 78 55Q78 69 81 89T89 138Q101 194 101 222Q101 301 4 302L12 317Q72 323 97 342Q126 365 134 421L148 525Q162 587 197 612T302 638Q308 638 312 631L301 626Q216 626 193 557L169
419Q148 326 71 308Q134 286 134 217Q134 203 131 183T123 134Q118 106 116 86T113 51Q113 3 135 -7Q137 -8 152 -11T198 -20L207 -27Q197 -33 189 -33Z" />
<glyph unicode="|" glyph-name="bar" horiz-adv-x="175" d="M52 -82L51 -81V-74Q51 -63 52 -48T56 -13Q59 9 60 24T63 48Q64 61 64 78T64 119Q64 180 61 238T50 352Q46 381 42 404T33 446L24 469Q18 486 18 493Q18 501 31 501Q64 501 71 432Q73 413 75 383T79
311Q81 264 82 216T83 118Q83 -52 70 -68Q61 -81 52 -82Z" />
<glyph unicode="}" glyph-name="braceright" horiz-adv-x="374" d="M44 -23Q39 -23 33 -15Q45 -7 75 -6Q104 -5 119 4Q143 17 155 57L174 163Q186 231 213 259Q245 294 294 309Q219 327 219 402Q219 416 222 435T230 481Q235 507 238 527T241 560Q241 608 219
618Q203 621 188 624T157 631L149 637L159 644Q219 644 242 631Q277 613 277 559Q277 531 265 477Q253 423 253 395Q253 350 280 332Q299 319 350 314L340 300Q242 298 220 215L192 61Q161 -23 44 -23Z" />
<glyph unicode="~" glyph-name="asciitilde" horiz-adv-x="273" d="M206 619Q186 619 156 632Q123 646 106 646Q89 646 72 633Q55 620 51 620V622Q51 638 94 663Q113 674 130 674Q138 674 149 671T177 663Q210 652 225 652Q249 652 267 674Q273 674 273 670Q273
657 247 637Q222 619 206 619Z" />
<glyph unicode="&#xa0;" glyph-name="uni00A0" horiz-adv-x="184" />
<glyph unicode="&#xa1;" glyph-name="exclamdown" horiz-adv-x="222" d="M117 245Q108 245 108 253Q108 288 138 307Q145 305 155 295T165 279Q165 269 152 258T129 247Q125 246 122 246T117 245ZM47 -244Q32 -244 32 -214Q32 -158 56 -67L95 79Q100 96 107 153Q110
173 117 173Q122 173 125 166Q125 149 121 119T108 45Q103 19 94 -35T71 -172Q83 -181 83 -196Q83 -210 72 -227T47 -244Z" />
<glyph unicode="&#xa2;" glyph-name="cent" horiz-adv-x="304" d="M37 -57L99 79Q41 79 41 148Q41 242 108 363Q141 423 167 434Q177 439 192 447T228 465Q242 521 249 564T256 637Q256 671 277 671Q304 671 304 634Q304 600 262 468Q303 466 303 422Q303 368
273 368Q261 368 261 385Q261 393 265 407T269 430Q269 444 255 446Q224 352 195 269T137 112Q181 124 228 178L272 231Q277 229 277 224Q277 182 198 122Q161 94 126 83Q102 22 92 3Q62 -56 37 -57ZM111 108Q178 270 220 434Q193 417 176 400Q151 375 116 279Q82
186 82 144Q82 108 111 108Z" />
<glyph unicode="&#xa3;" glyph-name="sterling" horiz-adv-x="566" d="M196 -32Q65 -32 65 122Q65 180 83 261Q31 263 15 267Q15 299 91 298Q121 425 154 492Q213 611 298 611Q357 611 388 566Q415 527 415 465Q415 453 410 453Q405 453 405 465Q405 513 374 539T293
565Q188 565 122 297Q160 295 208 294T316 293Q315 292 315 291Q315 290 316 289T317 287Q317 281 299 279Q293 278 283 277T258 274Q211 268 175 265T114 261Q109 236 107 214T104 171Q104 -3 279 -3Q381 -3 487 52Q558 88 561 91Q568 91 568 84Q568 56 523 36Q460
8 364 -12Q267 -32 198 -32H196Z" />
<glyph unicode="&#xa4;" glyph-name="currency" horiz-adv-x="229" d="M92 399Q42 399 42 446Q42 463 48 484T65 524T90 546Q109 579 152 579Q178 579 194 561T210 515Q210 479 193 453T149 413T92 399ZM106 423Q126 423 141 437T166 471T176 512Q176 557 149
557Q135 557 113 541Q118 538 118 530Q118 523 115 514T102 493Q87 473 87 447Q87 423 106 423Z" />
<glyph unicode="&#xa5;" glyph-name="yen" horiz-adv-x="364" d="M161 -208Q111 -208 111 -139Q111 -63 215 148Q212 141 205 140L206 155Q190 154 177 154T150 154Q90 154 72 160Q72 192 113 192Q133 192 155 191T204 188Q200 226 189 266Q165 265 146 265T110
264Q60 264 52 268Q52 300 80 300Q87 300 99 300T129 298Q146 297 159 297T179 296Q140 403 72 456Q82 430 82 410Q82 372 43 372Q33 372 33 376Q33 380 38 382Q61 384 61 403Q61 421 35 458Q9 496 9 500Q9 526 35 526Q94 526 148 437Q187 373 208 296L292 294Q333
367 367 421T427 509L430 513H429Q426 513 418 510T405 506Q392 506 392 512Q392 520 408 524Q453 536 475 566Q487 582 507 582Q520 582 520 574Q520 572 515 565Q464 505 415 437T319 293L402 290Q412 291 431 290Q437 289 437 285Q437 278 420 275Q416 274 387
273T305 270Q292 248 280 227T257 185Q323 182 389 182Q388 182 388 181Q388 179 389 178V174Q389 164 340 161L242 157Q147 -25 147 -116Q147 -184 176 -184Q189 -184 220 -166Q252 -148 256 -148Q258 -148 258 -150Q258 -155 247 -166Q204 -208 161 -208ZM235
187L279 269L215 267Q217 253 219 233T222 187H235Z" />
<glyph unicode="&#xa6;" glyph-name="brokenbar" horiz-adv-x="175" d="M60 238Q59 267 56 295T50 352Q46 381 42 404T33 446L24 469Q18 486 18 493Q18 501 31 501Q64 501 71 432Q73 413 75 383T79 311L82 238H60ZM52 -82L51 -81V-74Q51 -63 52 -48T56 -13Q59
9 60 24T63 48Q64 61 64 78T64 119Q64 136 64 151T63 183H83V118Q83 -52 70 -68Q61 -81 52 -82Z" />
<glyph unicode="&#xa7;" glyph-name="section" horiz-adv-x="452" d="M24 -175Q-4 -175 -4 -157Q-4 -132 41 -119Q46 -118 56 -116T82 -112Q177 -97 219 -70Q291 -25 291 13Q291 52 215 88L74 153Q-2 190 -2 240Q-2 295 98 358Q115 420 244 488Q363 551 436 551Q499
551 499 515Q499 445 469 391Q451 359 441 359Q436 359 436 368Q436 384 447 420Q458 456 458 473Q458 519 402 519Q331 519 236 474Q127 422 127 361Q127 307 206 270Q231 260 267 245T353 209Q432 175 432 137Q432 80 332 22Q320 -39 201 -99Q192 -103 148 -122T24
-175ZM333 43Q389 82 389 116Q389 154 312 192L169 257Q93 294 96 343Q26 300 26 256Q26 203 102 169L245 110Q326 76 333 43Z" />
<glyph unicode="&#xa8;" glyph-name="dieresis" horiz-adv-x="168" d="M130 365Q116 365 116 390Q116 406 131 421T163 436Q168 436 168 434Q168 425 163 408T157 384Q157 365 130 365ZM14 365Q0 365 0 390Q0 406 15 421T47 436Q52 436 52 434Q52 425 47 408T41
384Q41 365 14 365Z" />
<glyph unicode="&#xa9;" glyph-name="copyright" horiz-adv-x="638" d="M217 29Q146 29 95 71Q41 116 41 185Q41 304 167 415Q289 522 410 522Q481 522 531 478Q581 434 581 364Q581 245 458 135Q339 29 217 29ZM231 50Q339 50 441 149Q543 250 543 356Q543 420
504 461T400 502Q285 502 181 399Q77 297 77 184Q77 124 125 86Q170 50 231 50ZM279 126Q215 126 215 223Q215 271 229 313Q234 326 240 341T257 376Q282 425 294 425Q311 425 318 412Q320 418 327 418Q341 418 354 405T367 378Q367 363 355 349T328 334Q326 334
324 336Q345 369 345 385Q345 403 332 403Q298 403 263 308Q240 244 240 205Q240 142 289 142Q345 142 402 217Q421 242 423 243Q426 243 426 239Q426 238 424 232Q369 126 279 126Z" />
<glyph unicode="&#xaa;" glyph-name="ordfeminine" horiz-adv-x="277" d="M30 305Q-1 305 -1 343Q-1 391 48 461Q89 521 136 560Q165 584 190 584Q205 584 216 572T227 542Q227 533 221 533L219 534Q211 547 191 547Q169 547 152 536Q130 521 110 502T72 458Q29
402 29 358Q29 337 43 337Q68 337 123 413Q147 447 162 473T185 519Q193 527 203 527Q209 527 211 522V520Q204 509 204 474Q204 429 214 398Q228 346 255 346Q272 346 291 376L313 408Q315 406 315 405H317Q317 389 287 350Q256 312 239 312Q212 312 189 371Q174
414 172 446Q77 305 30 305Z" />
<glyph unicode="&#xab;" glyph-name="guillemotleft" horiz-adv-x="429" d="M357 16L349 20Q324 53 292 79L228 130Q225 133 225 136Q225 146 278 223Q301 255 317 277T344 311Q355 322 363 322Q369 322 369 316Q369 303 270 163Q368 39 368 29Q368 14 357 16ZM217
16L209 20Q184 53 152 79L88 130Q85 133 85 136Q85 146 138 223Q163 258 179 280T203 311Q214 322 222 322Q229 322 229 316Q229 303 130 163Q227 41 227 29Q227 15 217 16Z" />
<glyph unicode="&#xac;" glyph-name="logicalnot" horiz-adv-x="537" d="M475 43Q466 43 464 51Q467 76 470 114T476 191T481 252Q435 248 374 242T250 231T132 221T45 213T11 210Q3 209 5 216T14 232T23 240L492 277H496Q505 277 512 274T517 261L480 46Q479 43 475 43Z" />
<glyph unicode="&#xad;" glyph-name="uni00AD" horiz-adv-x="285" d="M79 191Q66 191 56 192T39 195Q39 226 81 226H121Q132 226 144 226T181 226T253 224Q253 221 254 221V219Q254 215 235 213T177 203Q150 199 125 195T79 191Z" />
<glyph unicode="&#xae;" glyph-name="registered" horiz-adv-x="638" d="M217 29Q146 29 95 71Q41 116 41 185Q41 304 167 415Q289 522 410 522Q481 522 531 478Q581 434 581 364Q581 245 458 135Q339 29 217 29ZM408 123Q543 231 543 356Q543 420 504 461T400
502Q290 502 186 404Q276 439 355 439Q403 439 439 424Q489 404 489 363Q489 313 418 284Q391 273 363 268T304 261Q343 125 408 123ZM231 50Q309 50 389 108Q350 117 316 172Q288 216 274 264Q267 264 262 267Q274 270 280 276L289 273Q464 295 464 370Q464 427
351 427Q313 427 252 408Q194 392 156 372Q77 278 77 184Q77 124 125 86Q170 50 231 50ZM150 76Q139 76 139 112Q139 154 219 273Q286 372 336 421L358 410Q357 406 349 396T326 367Q292 326 267 293T225 233Q193 186 176 150T154 87Q152 76 150 76Z" />
<glyph unicode="&#xaf;" glyph-name="overscore" horiz-adv-x="184" d="M19 375Q0 375 0 388Q0 391 4 397T24 403L122 398Q138 397 151 395T164 388Q164 384 150 383T108 381Q85 380 61 378T23 375H19Z" />
<glyph unicode="&#xb0;" glyph-name="degree" horiz-adv-x="283" d="M151 320Q115 320 90 345T65 406Q65 442 90 467T151 492Q186 492 211 467T237 406Q237 371 212 346T151 320ZM151 342Q177 342 196 361T215 406Q215 432 196 451T151 470Q125 470 106 451T87
406Q87 380 106 361T151 342Z" />
<glyph unicode="&#xb1;" glyph-name="plusminus" horiz-adv-x="379" d="M179 90Q174 90 174 105Q174 121 178 132Q197 185 205 216T213 257L96 256Q93 259 93 263Q93 272 103 279T122 286L221 284L246 358L260 401Q268 421 289 421Q297 421 297 415Q297 382 259
283Q267 283 278 283T303 284Q317 285 328 285T347 285Q399 285 399 274Q399 265 343 260Q320 259 297 258T250 255Q243 227 217 162Q189 90 179 90ZM101 18Q97 19 95 19T90 19Q73 19 73 31Q73 42 82 52T103 63Q109 63 109 58Q109 56 109 54T107 50Q117 50 131
50T164 49Q183 48 197 48T221 48Q238 48 251 48T272 50V51H282Q285 51 289 51T301 49Q310 48 310 46Q310 40 262 32Q221 25 184 22T112 18H101Z" />
<glyph unicode="&#xb2;" glyph-name="uni00B2" horiz-adv-x="299" d="M20 300Q8 300 8 310Q8 312 24 326T68 362Q103 390 130 413T177 456Q233 514 233 547Q233 575 197 575Q174 575 147 564T104 537L94 524Q90 517 84 517Q75 517 75 528Q75 530 77 534V535Q93
559 138 582Q161 592 179 597T214 602Q266 602 266 565Q266 520 186 445L76 348Q144 364 229 364Q291 364 291 347Q291 339 279 339Q277 339 274 340Q262 342 247 343T213 344Q106 344 27 301H25Q23 300 20 300Z" />
<glyph unicode="&#xb3;" glyph-name="uni00B3" horiz-adv-x="246" d="M51 276Q8 276 8 294Q8 299 13 302H31Q60 302 85 307T130 321Q185 345 185 395Q185 458 115 458Q109 458 101 457T80 453Q68 450 60 449T44 448Q36 448 36 453Q36 461 80 476Q138 496 159 506Q201
525 201 550Q201 586 139 586Q106 586 85 573Q71 565 68 565Q63 565 63 571Q63 592 90 600Q100 604 111 605T134 606Q148 606 163 605T194 598Q238 586 238 565Q238 546 202 519L156 484Q215 457 215 404Q215 364 152 317Q91 276 51 276Z" />
<glyph unicode="&#xb4;" glyph-name="acute" horiz-adv-x="136" d="M26 368Q22 367 22 372Q27 381 37 392T60 416L107 470Q110 473 113 473Q129 473 133 457V455Q133 452 132 450T129 444Q121 438 106 428T82 410Q35 371 26 368Z" />
<glyph unicode="&#xb5;" glyph-name="uni00B5" horiz-adv-x="262" d="M-198 -374Q-231 -374 -255 -338Q-277 -307 -277 -272Q-277 -256 -270 -252Q-267 -264 -264 -276T-259 -301Q-246 -344 -214 -344Q-176 -344 -126 -291Q-87 -249 -64 -204Q-3 -87 20 113Q24
145 25 164T27 191Q27 194 26 199T25 208Q25 215 27 228T33 261Q35 272 49 272H65Q68 269 68 263Q68 257 52 199Q44 168 40 139T35 81Q35 38 51 38Q75 38 121 116Q164 188 181 256Q187 279 205 279Q216 279 216 270Q216 263 210 252T203 237Q191 189 191 118Q191
36 226 36Q245 36 270 75Q297 115 299 115Q303 115 303 110Q303 96 262 49Q222 4 207 4Q165 4 165 92Q165 105 167 127T173 182Q161 159 145 133T108 78Q53 0 29 0Q22 0 17 6Q8 -52 -7 -105T-42 -208Q-97 -341 -176 -370Q-185 -374 -198 -374Z" />
<glyph unicode="&#xb6;" glyph-name="paragraph" horiz-adv-x="487" d="M328 -77Q339 -45 347 7T362 121T372 247T375 368Q375 412 373 448T366 506L336 509L339 498Q343 480 344 449T346 380Q346 339 345 295T341 210T337 139T332 98Q308 -44 234 -32Q227 -30
220 -28T204 -20Q183 -6 186 4L187 8Q196 2 204 -1T221 -5Q251 -5 275 31T313 141Q316 160 319 192T322 250Q322 281 316 281Q311 280 306 280T295 280Q244 280 209 299T156 347T137 409Q137 439 154 467T205 513Q216 519 228 523T252 531Q254 532 255 532T259
533Q273 536 286 536Q292 536 298 536T311 537Q334 537 354 536T381 532Q405 527 411 512T417 473Q417 445 416 395T411 284T402 167T387 66Q376 9 368 -28T351 -74Q342 -82 334 -83T328 -77Z" />
<glyph unicode="&#xb7;" glyph-name="middot" horiz-adv-x="181" d="M80 191Q66 191 66 216Q66 232 81 247T113 262Q118 262 118 260Q118 251 113 234T107 210Q107 191 80 191Z" />
<glyph unicode="&#xb8;" glyph-name="cedilla" horiz-adv-x="129" d="M53 -157Q35 -157 14 -154Q8 -154 8 -145Q8 -140 14 -137Q34 -140 48 -140Q90 -140 90 -111Q90 -95 81 -89T63 -74T53 -46Q53 -26 62 -15T93 4Q102 7 104 2Q87 -7 80 -19T73 -40Q73 -53 85
-60T111 -78T124 -111Q124 -136 106 -146T53 -157Z" />
<glyph unicode="&#xb9;" glyph-name="uni00B9" horiz-adv-x="156" d="M92 276Q81 276 80 284V300Q80 313 82 339T90 406L101 496Q103 519 104 540T106 582Q73 544 49 517T23 490Q18 490 18 494Q18 499 24 505Q33 514 43 526T63 552Q66 557 69 560T75 568Q83 579
89 587T100 602Q110 613 130 621L133 620Q133 596 131 560T123 477Q114 383 114 335Q114 331 114 326T115 314Q116 308 116 302T117 292Q117 276 92 276Z" />
<glyph unicode="&#xba;" glyph-name="ordmasculine" horiz-adv-x="182" d="M69 302Q20 302 20 398Q20 465 43 539Q53 569 76 589T127 609Q139 609 140 603Q138 597 133 599Q94 588 75 518Q61 464 61 407Q61 336 83 336Q114 336 132 406Q144 456 144 507Q144 533
135 552T126 572H122Q122 582 135 582Q167 582 167 505Q167 476 162 446T145 385Q116 302 69 302Z" />
<glyph unicode="&#xbb;" glyph-name="guillemotright" horiz-adv-x="420" d="M247 9Q241 9 241 15Q241 30 340 168Q242 292 242 302Q242 317 253 315L261 311Q286 278 318 252L382 201Q385 200 385 195Q385 186 332 109Q309 75 293 53T266 20Q255 9 247 9ZM91
9Q85 9 85 15Q85 30 184 168Q86 292 86 302Q86 317 97 315L105 311Q130 278 162 252L226 201Q229 200 229 195Q229 186 176 109Q153 75 137 53T110 20Q99 9 91 9Z" />
<glyph unicode="&#xbc;" glyph-name="onequarter" horiz-adv-x="571" d="M111 276Q100 276 99 284V300Q99 313 101 339T109 406L120 496Q122 519 123 540T125 582Q92 544 68 517T42 490Q37 490 37 494Q37 499 43 505Q52 514 62 526T82 552Q85 557 88 560T94 568Q102
579 108 587T119 602Q129 613 149 621L152 620Q152 596 150 560T142 477Q133 383 133 335Q133 331 133 326T134 314Q135 308 135 302T136 292Q136 276 111 276ZM463 -2Q425 -2 425 74Q425 100 428 124Q410 129 380 129Q353 129 329 126T284 116Q280 115 277 115T271
115Q259 115 259 121Q260 125 263 126L302 156Q345 191 383 225T454 294L456 326Q459 356 488 356Q497 356 497 345Q497 338 496 327T490 300L468 225Q456 179 456 152Q457 151 461 151Q515 151 550 173Q553 176 557 176Q561 176 561 172Q561 168 556 163Q528 135
476 130Q460 128 456 123T450 99Q449 93 449 87T448 72Q448 20 472 20Q486 20 499 36Q504 42 507 46T518 49Q518 45 516 43Q497 -2 463 -2ZM394 151H431L453 271L315 149Q328 149 344 149T381 151Q388 151 394 151V151ZM518 50L519 49H518Q518 50 518 50ZM97 33Q90
40 90 55Q90 78 191 212Q220 253 249 290T309 365Q335 397 354 420T387 458Q422 494 445 494Q455 494 461 489Q471 482 466 475Q462 469 447 459L426 446Q411 435 394 419T357 381Q318 341 281 296T207 202Q193 183 183 169T165 144Q161 137 153 124T134 91Q124
74 117 61T102 39L98 34L97 33Z" />
<glyph unicode="&#xbd;" glyph-name="onehalf" horiz-adv-x="588" d="M315 -7Q303 -7 303 3Q303 5 319 19T363 55Q398 83 425 106T472 149Q528 207 528 240Q528 268 492 268Q469 268 442 257T399 230L389 217Q385 210 379 210Q370 210 370 221Q370 223 372 227V228Q388
252 433 275Q456 285 474 290T509 295Q561 295 561 258Q561 213 481 138L371 41Q439 57 524 57Q586 57 586 40Q586 32 574 32Q572 32 569 33Q557 35 542 36T508 37Q401 37 322 -6H320Q318 -7 315 -7ZM111 276Q100 276 99 284V300Q99 313 101 339T109 406L120 496Q122
519 123 540T125 582Q92 544 68 517T42 490Q37 490 37 494Q37 499 43 505Q52 514 62 526T82 552Q85 557 88 560T94 568Q102 579 108 587T119 602Q129 613 149 621L152 620Q152 596 150 560T142 477Q133 383 133 335Q133 331 133 326T134 314Q135 308 135 302T136
292Q136 276 111 276ZM136 33Q129 40 129 55Q129 78 230 212Q259 253 288 290T348 365Q374 397 393 420T426 458Q461 494 484 494Q494 494 500 489Q510 482 505 475Q501 469 486 459L465 446Q450 435 433 419T396 381Q357 341 320 296T246 202Q232 183 222 169T204
144Q200 137 192 124T173 91Q163 74 156 61T141 39L137 34L136 33Z" />
<glyph unicode="&#xbe;" glyph-name="threequarters" horiz-adv-x="537" d="M51 276Q8 276 8 294Q8 299 13 302H31Q60 302 85 307T130 321Q185 345 185 395Q185 458 115 458Q109 458 101 457T80 453Q68 450 60 449T44 448Q36 448 36 453Q36 461 80 476Q138 496
159 506Q201 525 201 550Q201 586 139 586Q106 586 85 573Q71 565 68 565Q63 565 63 571Q63 592 90 600Q100 604 111 605T134 606Q148 606 163 605T194 598Q238 586 238 565Q238 546 202 519L156 484Q215 457 215 404Q215 364 152 317Q91 276 51 276ZM429 -75Q391
-75 391 1Q391 27 394 51Q376 56 346 56Q319 56 295 53T250 43Q246 42 243 42T237 42Q225 42 225 48Q226 52 229 53L268 83Q311 118 349 152T420 221L422 253Q425 283 454 283Q463 283 463 272Q463 265 462 254T456 227L434 152Q422 106 422 79Q423 78 427 78Q481
78 516 100Q519 103 523 103Q527 103 527 99Q527 95 522 90Q494 62 442 57Q426 55 422 50T416 26Q415 20 415 14T414 -1Q414 -53 438 -53Q452 -53 465 -37Q470 -31 473 -27T484 -24Q484 -28 482 -30Q463 -75 429 -75ZM360 78H397L419 198L281 76Q294 76 310 76T347
78Q354 78 360 78V78ZM484 -23L485 -24H484Q484 -23 484 -23ZM98 33Q91 40 91 55Q91 78 192 212Q221 253 250 290T310 365Q336 397 355 420T388 458Q423 494 446 494Q456 494 462 489Q472 482 467 475Q463 469 448 459L427 446Q412 435 395 419T358 381Q319 341
282 296T208 202Q194 183 184 169T166 144Q162 137 154 124T135 91Q125 74 118 61T103 39L99 34L98 33Z" />
<glyph unicode="&#xbf;" glyph-name="questiondown" horiz-adv-x="385" d="M273 247Q264 247 264 254Q264 290 294 308Q301 306 311 297T321 280Q321 270 308 259T285 249Q281 248 278 248T273 247ZM95 -251Q-12 -251 -12 -171Q-12 -120 55 -60Q69 -47 100 -25T179
32Q246 78 246 98Q246 103 238 112T230 124Q230 131 266 131Q281 131 281 113Q281 92 215 45Q160 7 130 -15T92 -44Q26 -102 26 -150Q26 -229 137 -229Q189 -229 244 -211Q306 -192 338 -160Q330 -146 330 -131Q338 -125 347 -125Q370 -125 370 -144Q370 -155 336
-180Q305 -204 291 -209Q188 -251 95 -251Z" />
<glyph unicode="&#xc0;" glyph-name="Agrave" horiz-adv-x="558" d="M55 -76Q3 -76 3 -9Q3 72 82 202Q15 209 15 228Q15 246 55 246Q65 246 108 243Q284 506 390 565Q391 566 396 566Q422 566 422 517Q422 485 413 474Q412 470 412 463T411 446Q411 393 415 343T427
244L477 250Q493 252 505 253T528 255Q533 255 533 253Q533 247 485 238Q437 231 431 221Q445 112 477 61Q497 29 515 29Q521 29 530 33T540 38Q542 36 542 36Q542 36 512 -5Q500 -18 487 -18Q446 -18 420 89Q413 121 408 156T400 228Q276 216 202 210T105 203Q33
74 33 4Q33 -51 83 -51Q105 -51 138 -39V-41Q138 -48 102 -62Q66 -76 55 -76ZM281 239Q342 239 400 242Q395 265 390 298T379 377L365 515Q260 441 130 243Q171 241 208 240T281 239ZM427 613Q423 613 410 623T370 655Q345 675 327 687T301 706Q300 709 299 711T297
717V719Q301 735 317 735Q320 735 323 732L392 661Q405 648 415 637T430 617Q430 613 427 613Z" />
<glyph unicode="&#xc1;" glyph-name="Aacute" horiz-adv-x="558" d="M55 -76Q3 -76 3 -9Q3 72 82 202Q15 209 15 228Q15 246 55 246Q65 246 108 243Q284 506 390 565Q391 566 396 566Q422 566 422 517Q422 485 413 474Q412 470 412 463T411 446Q411 393 415 343T427
244L477 250Q493 252 505 253T528 255Q533 255 533 253Q533 247 485 238Q437 231 431 221Q445 112 477 61Q497 29 515 29Q521 29 530 33T540 38Q542 36 542 36Q542 36 512 -5Q500 -18 487 -18Q446 -18 420 89Q413 121 408 156T400 228Q276 216 202 210T105 203Q33
74 33 4Q33 -51 83 -51Q105 -51 138 -39V-41Q138 -48 102 -62Q66 -76 55 -76ZM281 239Q342 239 400 242Q395 265 390 298T379 377L365 515Q260 441 130 243Q171 241 208 240T281 239ZM363 613Q359 612 359 617Q364 626 374 637T397 661L466 732Q469 735 472 735Q488
735 492 719V717Q492 714 491 712T488 706Q480 700 463 688T419 655Q394 636 381 626T363 613Z" />
<glyph unicode="&#xc2;" glyph-name="Acircumflex" horiz-adv-x="558" d="M55 -76Q3 -76 3 -9Q3 72 82 202Q15 209 15 228Q15 246 55 246Q65 246 108 243Q284 506 390 565Q391 566 396 566Q422 566 422 517Q422 485 413 474Q412 470 412 463T411 446Q411 393 415
343T427 244L477 250Q493 252 505 253T528 255Q533 255 533 253Q533 247 485 238Q437 231 431 221Q445 112 477 61Q497 29 515 29Q521 29 530 33T540 38Q542 36 542 36Q542 36 512 -5Q500 -18 487 -18Q446 -18 420 89Q413 121 408 156T400 228Q276 216 202 210T105
203Q33 74 33 4Q33 -51 83 -51Q105 -51 138 -39V-41Q138 -48 102 -62Q66 -76 55 -76ZM281 239Q342 239 400 242Q395 265 390 298T379 377L365 515Q260 441 130 243Q171 241 208 240T281 239ZM303 605Q300 605 300 613Q300 617 311 626T337 648L400 704Q409 713
419 713Q429 713 436 704L485 648Q496 636 503 626T510 611Q510 603 504 605Q503 606 490 615T454 642Q441 653 432 662T415 678Q407 672 395 663T366 642Q338 624 326 617T307 606Q305 605 303 605Z" />
<glyph unicode="&#xc3;" glyph-name="Atilde" horiz-adv-x="558" d="M55 -76Q3 -76 3 -9Q3 72 82 202Q15 209 15 228Q15 246 55 246Q65 246 108 243Q284 506 390 565Q391 566 396 566Q422 566 422 517Q422 485 413 474Q412 470 412 463T411 446Q411 393 415 343T427
244L477 250Q493 252 505 253T528 255Q533 255 533 253Q533 247 485 238Q437 231 431 221Q445 112 477 61Q497 29 515 29Q521 29 530 33T540 38Q542 36 542 36Q542 36 512 -5Q500 -18 487 -18Q446 -18 420 89Q413 121 408 156T400 228Q276 216 202 210T105 203Q33
74 33 4Q33 -51 83 -51Q105 -51 138 -39V-41Q138 -48 102 -62Q66 -76 55 -76ZM281 239Q342 239 400 242Q395 265 390 298T379 377L365 515Q260 441 130 243Q171 241 208 240T281 239ZM308 619Q304 619 304 622T306 628Q313 648 331 660T374 672Q389 672 411 662T447
651Q460 651 468 656T484 672Q486 676 491 677T495 674Q490 647 473 634T435 621Q414 621 396 633T354 645Q338 645 324 632Q317 626 314 623T308 619Z" />
<glyph unicode="&#xc4;" glyph-name="Adieresis" horiz-adv-x="558" d="M55 -76Q3 -76 3 -9Q3 72 82 202Q15 209 15 228Q15 246 55 246Q65 246 108 243Q284 506 390 565Q391 566 396 566Q422 566 422 517Q422 485 413 474Q412 470 412 463T411 446Q411 393 415
343T427 244L477 250Q493 252 505 253T528 255Q533 255 533 253Q533 247 485 238Q437 231 431 221Q445 112 477 61Q497 29 515 29Q521 29 530 33T540 38Q542 36 542 36Q542 36 512 -5Q500 -18 487 -18Q446 -18 420 89Q413 121 408 156T400 228Q276 216 202 210T105
203Q33 74 33 4Q33 -51 83 -51Q105 -51 138 -39V-41Q138 -48 102 -62Q66 -76 55 -76ZM281 239Q342 239 400 242Q395 265 390 298T379 377L365 515Q260 441 130 243Q171 241 208 240T281 239ZM455 610Q441 610 441 635Q441 651 456 666T488 681Q493 681 493 679Q493
670 488 653T482 629Q482 610 455 610ZM339 610Q325 610 325 635Q325 651 340 666T372 681Q377 681 377 679Q377 670 372 653T366 629Q366 610 339 610Z" />
<glyph unicode="&#xc5;" glyph-name="Aring" horiz-adv-x="558" d="M55 -76Q3 -76 3 -9Q3 72 82 202Q15 209 15 228Q15 246 55 246Q65 246 108 243Q284 506 390 565Q391 566 396 566Q422 566 422 517Q422 485 413 474Q412 470 412 463T411 446Q411 393 415 343T427
244L477 250Q493 252 505 253T528 255Q533 255 533 253Q533 247 485 238Q437 231 431 221Q445 112 477 61Q497 29 515 29Q521 29 530 33T540 38Q542 36 542 36Q542 36 512 -5Q500 -18 487 -18Q446 -18 420 89Q413 121 408 156T400 228Q276 216 202 210T105 203Q33
74 33 4Q33 -51 83 -51Q105 -51 138 -39V-41Q138 -48 102 -62Q66 -76 55 -76ZM281 239Q342 239 400 242Q395 265 390 298T379 377L365 515Q260 441 130 243Q171 241 208 240T281 239ZM404 610Q378 610 366 624T354 657Q354 683 373 708T426 733Q452 733 464 719T476
685Q476 660 457 635T404 610ZM407 625Q426 625 437 645T448 685Q448 697 444 707T425 717Q405 717 395 697T384 658Q384 646 389 636T407 625Z" />
<glyph unicode="&#xc6;" glyph-name="AE" horiz-adv-x="911" d="M55 -77Q3 -77 3 -9Q3 72 82 202Q15 209 15 228Q15 246 54 246Q53 246 53 246T55 246H54Q49 246 108 243Q205 387 405 520L403 522Q406 544 435 555Q457 563 484 563Q489 563 493 560Q517 559 551
558T632 553Q724 547 769 547Q802 547 832 549T889 555Q885 542 863 536Q796 517 617 517Q589 517 560 517T500 519L493 491Q490 458 460 306Q477 306 501 306T560 304Q594 303 619 303T660 302Q669 302 682 302T715 303Q734 304 747 304T770 305Q771 305 772 304Q772
301 744 291Q717 280 707 279Q671 272 609 269T457 265Q452 239 449 216T446 171Q446 -3 620 -3Q721 -3 827 51Q901 89 903 91Q909 91 909 84Q909 56 864 36Q801 8 706 -12Q609 -32 540 -32H537Q404 -32 404 125Q404 147 406 172T414 225Q292 214 215 209T105 203Q33
74 33 4Q33 -51 82 -51Q105 -51 138 -39V-41Q138 -49 102 -63Q66 -77 55 -77ZM313 237Q342 237 368 237T417 239L422 263Q416 263 404 264T386 266Q367 266 367 273Q367 285 392 298Q415 309 429 310Q431 329 434 380T442 513Q213 372 130 242Q177 240 223 239T313
237Z" />
<glyph unicode="&#xc7;" glyph-name="Ccedilla" horiz-adv-x="625" d="M295 -56Q182 -56 104 16Q23 90 23 201Q23 362 159 471Q286 574 450 574Q507 574 542 548Q568 599 579 599Q582 599 582 596Q582 592 570 569Q566 562 562 555T554 539Q580 513 580 487Q580
478 575 476L545 512Q540 492 537 466T532 406Q532 399 531 387T527 355Q523 318 502 318Q486 318 486 359Q486 417 530 522Q498 539 451 539Q308 539 186 428Q60 314 60 173Q60 68 135 14Q199 -32 309 -32Q402 -32 515 36Q623 100 678 182Q682 189 687 189Q694
189 694 179Q694 176 691 173Q624 81 517 15Q399 -56 295 -56ZM210 -206Q192 -206 171 -203Q165 -203 165 -194Q165 -189 171 -186Q191 -189 205 -189Q247 -189 247 -160Q247 -144 238 -138T220 -123T210 -95Q210 -75 219 -64T250 -45Q259 -42 261 -47Q244 -56
237 -68T230 -89Q230 -102 242 -109T268 -127T281 -160Q281 -185 263 -195T210 -206Z" />
<glyph unicode="&#xc8;" glyph-name="Egrave" horiz-adv-x="552" d="M89 517Q62 517 62 522Q62 534 84 547Q106 560 120 560Q146 560 184 559T273 553Q325 549 363 548T427 546Q493 546 547 555Q543 542 521 536Q451 517 272 517Q262 517 246 517T209 518Q189
519 174 519T147 519Q137 519 118 518T89 517ZM201 -32Q62 -32 62 126Q62 184 80 263Q74 263 62 264T43 265Q25 265 25 273Q25 285 50 298Q61 303 70 306T87 311Q94 355 97 398T100 481Q123 516 140 516Q151 516 151 497Q151 484 143 437T119 307L319 301Q328 301
341 301T374 303Q393 304 406 304T429 305Q431 305 431 304Q430 303 429 302T426 300Q396 286 365 280Q290 265 115 265Q110 239 107 216T104 170Q104 -3 278 -3Q379 -3 485 51L526 75Q554 91 562 91Q568 91 568 84Q568 55 522 36Q457 7 365 -12Q319 -22 278 -27T201
-32ZM343 613Q339 613 326 623T286 655Q261 675 243 687T217 706Q216 709 215 711T213 717V719Q217 735 233 735Q236 735 239 732L308 661Q321 648 331 637T346 617Q346 613 343 613Z" />
<glyph unicode="&#xc9;" glyph-name="Eacute" horiz-adv-x="552" d="M89 517Q62 517 62 522Q62 534 84 547Q106 560 120 560Q146 560 184 559T273 553Q325 549 363 548T427 546Q493 546 547 555Q543 542 521 536Q451 517 272 517Q262 517 246 517T209 518Q189
519 174 519T147 519Q137 519 118 518T89 517ZM201 -32Q62 -32 62 126Q62 184 80 263Q74 263 62 264T43 265Q25 265 25 273Q25 285 50 298Q61 303 70 306T87 311Q94 355 97 398T100 481Q123 516 140 516Q151 516 151 497Q151 484 143 437T119 307L319 301Q328 301
341 301T374 303Q393 304 406 304T429 305Q431 305 431 304Q430 303 429 302T426 300Q396 286 365 280Q290 265 115 265Q110 239 107 216T104 170Q104 -3 278 -3Q379 -3 485 51L526 75Q554 91 562 91Q568 91 568 84Q568 55 522 36Q457 7 365 -12Q319 -22 278 -27T201
-32ZM279 613Q275 612 275 617Q280 626 290 637T313 661L382 732Q385 735 388 735Q404 735 408 719V717Q408 714 407 712T404 706Q396 700 379 688T335 655Q310 636 297 626T279 613Z" />
<glyph unicode="&#xca;" glyph-name="Ecircumflex" horiz-adv-x="552" d="M89 517Q62 517 62 522Q62 534 84 547Q106 560 120 560Q146 560 184 559T273 553Q325 549 363 548T427 546Q493 546 547 555Q543 542 521 536Q451 517 272 517Q262 517 246 517T209 518Q189
519 174 519T147 519Q137 519 118 518T89 517ZM201 -32Q62 -32 62 126Q62 184 80 263Q74 263 62 264T43 265Q25 265 25 273Q25 285 50 298Q61 303 70 306T87 311Q94 355 97 398T100 481Q123 516 140 516Q151 516 151 497Q151 484 143 437T119 307L319 301Q328 301
341 301T374 303Q393 304 406 304T429 305Q431 305 431 304Q430 303 429 302T426 300Q396 286 365 280Q290 265 115 265Q110 239 107 216T104 170Q104 -3 278 -3Q379 -3 485 51L526 75Q554 91 562 91Q568 91 568 84Q568 55 522 36Q457 7 365 -12Q319 -22 278 -27T201
-32ZM219 605Q216 605 216 613Q216 617 227 626T253 648L316 704Q325 713 335 713Q345 713 352 704L401 648Q412 636 419 626T426 611Q426 603 420 605Q419 606 406 615T370 642Q357 653 348 662T331 678Q323 672 311 663T282 642Q254 624 242 617T223 606Q221
605 219 605Z" />
<glyph unicode="&#xcb;" glyph-name="Edieresis" horiz-adv-x="552" d="M89 517Q62 517 62 522Q62 534 84 547Q106 560 120 560Q146 560 184 559T273 553Q325 549 363 548T427 546Q493 546 547 555Q543 542 521 536Q451 517 272 517Q262 517 246 517T209 518Q189
519 174 519T147 519Q137 519 118 518T89 517ZM201 -32Q62 -32 62 126Q62 184 80 263Q74 263 62 264T43 265Q25 265 25 273Q25 285 50 298Q61 303 70 306T87 311Q94 355 97 398T100 481Q123 516 140 516Q151 516 151 497Q151 484 143 437T119 307L319 301Q328 301
341 301T374 303Q393 304 406 304T429 305Q431 305 431 304Q430 303 429 302T426 300Q396 286 365 280Q290 265 115 265Q110 239 107 216T104 170Q104 -3 278 -3Q379 -3 485 51L526 75Q554 91 562 91Q568 91 568 84Q568 55 522 36Q457 7 365 -12Q319 -22 278 -27T201
-32ZM371 610Q357 610 357 635Q357 651 372 666T404 681Q409 681 409 679Q409 670 404 653T398 629Q398 610 371 610ZM255 610Q241 610 241 635Q241 651 256 666T288 681Q293 681 293 679Q293 670 288 653T282 629Q282 610 255 610Z" />
<glyph unicode="&#xcc;" glyph-name="Igrave" horiz-adv-x="359" d="M168 -21Q161 -21 160 -14L156 0H37Q34 0 34 5Q34 29 88 29Q86 29 101 29T151 27Q150 32 150 42T149 69Q149 101 151 161T159 311Q163 400 171 495L51 491Q50 492 50 493Q50 499 57 509Q64 520
70 522Q76 524 176 524Q186 546 215 546Q219 546 219 543Q219 540 218 534T217 524H283Q290 524 299 524T322 525H349Q370 525 372 523Q372 517 347 507Q320 496 314 496H214Q187 330 187 169Q187 130 189 94T195 26H228Q245 26 254 26T263 25Q263 24 286 27T342
31H344Q346 31 346 30Q346 27 319 15Q306 9 297 6T284 2Q274 1 255 1T207 0Q204 -6 190 -13T168 -21ZM237 599Q233 599 220 609T180 641Q155 661 137 673T111 692Q110 695 109 697T107 703V705Q111 721 127 721Q130 721 133 718L202 647Q215 634 225 623T240 603Q240
599 237 599Z" />
<glyph unicode="&#xcd;" glyph-name="Iacute" horiz-adv-x="359" d="M168 -21Q161 -21 160 -14L156 0H37Q34 0 34 5Q34 29 88 29Q86 29 101 29T151 27Q150 32 150 42T149 69Q149 101 151 161T159 311Q163 400 171 495L51 491Q50 492 50 493Q50 499 57 509Q64 520
70 522Q76 524 176 524Q186 546 215 546Q219 546 219 543Q219 540 218 534T217 524H283Q290 524 299 524T322 525H349Q370 525 372 523Q372 517 347 507Q320 496 314 496H214Q187 330 187 169Q187 130 189 94T195 26H228Q245 26 254 26T263 25Q263 24 286 27T342
31H344Q346 31 346 30Q346 27 319 15Q306 9 297 6T284 2Q274 1 255 1T207 0Q204 -6 190 -13T168 -21ZM173 599Q169 598 169 603Q174 612 184 623T207 647L276 718Q279 721 282 721Q298 721 302 705V703Q302 700 301 698T298 692Q290 686 273 674T229 641Q204 622
191 612T173 599Z" />
<glyph unicode="&#xce;" glyph-name="Icircumflex" horiz-adv-x="359" d="M168 -21Q161 -21 160 -14L156 0H37Q34 0 34 5Q34 29 88 29Q86 29 101 29T151 27Q150 32 150 42T149 69Q149 101 151 161T159 311Q163 400 171 495L51 491Q50 492 50 493Q50 499 57 509Q64
520 70 522Q76 524 176 524Q186 546 215 546Q219 546 219 543Q219 540 218 534T217 524H283Q290 524 299 524T322 525H349Q370 525 372 523Q372 517 347 507Q320 496 314 496H214Q187 330 187 169Q187 130 189 94T195 26H228Q245 26 254 26T263 25Q263 24 286 27T342
31H344Q346 31 346 30Q346 27 319 15Q306 9 297 6T284 2Q274 1 255 1T207 0Q204 -6 190 -13T168 -21ZM113 591Q110 591 110 599Q110 603 121 612T147 634L210 690Q219 699 229 699Q239 699 246 690L295 634Q306 622 313 612T320 597Q320 589 314 591Q313 592 300
601T264 628Q251 639 242 648T225 664Q217 658 205 649T176 628Q148 610 136 603T117 592Q115 591 113 591Z" />
<glyph unicode="&#xcf;" glyph-name="Idieresis" horiz-adv-x="359" d="M168 -21Q161 -21 160 -14L156 0H37Q34 0 34 5Q34 29 88 29Q86 29 101 29T151 27Q150 32 150 42T149 69Q149 101 151 161T159 311Q163 400 171 495L51 491Q50 492 50 493Q50 499 57 509Q64
520 70 522Q76 524 176 524Q186 546 215 546Q219 546 219 543Q219 540 218 534T217 524H283Q290 524 299 524T322 525H349Q370 525 372 523Q372 517 347 507Q320 496 314 496H214Q187 330 187 169Q187 130 189 94T195 26H228Q245 26 254 26T263 25Q263 24 286 27T342
31H344Q346 31 346 30Q346 27 319 15Q306 9 297 6T284 2Q274 1 255 1T207 0Q204 -6 190 -13T168 -21ZM265 596Q251 596 251 621Q251 637 266 652T298 667Q303 667 303 665Q303 656 298 639T292 615Q292 596 265 596ZM149 596Q135 596 135 621Q135 637 150 652T182
667Q187 667 187 665Q187 656 182 639T176 615Q176 596 149 596Z" />
<glyph unicode="&#xd0;" glyph-name="Eth" horiz-adv-x="679" d="M194 -62Q119 -62 119 118Q119 160 122 204Q85 201 65 201Q52 201 42 202T25 205Q25 236 67 236H107Q116 236 124 235Q136 374 174 530Q167 533 153 533Q74 533 21 494Q13 489 7 489Q-18 489 -18
509Q-18 533 41 553Q78 566 120 571Q135 565 135 559Q135 557 133 555Q143 557 158 558T196 560Q214 581 238 581Q248 581 248 573Q248 569 245 563Q369 560 511 503Q690 432 690 334Q690 238 581 136Q490 51 384 8Q333 -14 250 -26Q241 -27 223 -44Q207 -62 194
-62ZM209 -32Q216 -32 226 -13Q237 5 245 5Q255 5 263 -15Q335 6 396 34T508 97Q646 192 646 309Q646 405 478 474Q339 531 225 531Q211 499 199 448T175 325Q168 276 163 235Q166 235 173 235L279 234Q279 231 280 231V229Q280 222 203 213Q180 210 160 208Q155
155 155 114Q155 -32 209 -32Z" />
<glyph unicode="&#xd1;" glyph-name="Ntilde" horiz-adv-x="599" d="M98 -136Q25 -136 25 10Q25 59 37 120T67 248T102 377T129 492Q130 495 125 503T120 517Q120 530 136 549Q153 569 165 569Q169 569 170 566Q192 454 280 272Q384 57 457 57Q540 57 540 220Q540
381 451 541Q449 547 449 549Q449 571 475 571Q480 571 482 569L508 520Q527 483 544 483Q556 483 564 497Q565 498 567 498Q572 498 572 490Q572 477 560 467T535 457Q524 457 516 465Q536 440 550 353Q555 319 557 289T560 232Q560 159 537 95Q506 8 445 8Q344
8 219 295Q214 306 198 349T154 466Q137 409 123 368T96 292T76 223T64 145T59 41Q59 -104 115 -104Q121 -104 129 -99T140 -94Q143 -94 143 -98Q143 -110 127 -123T98 -136ZM260 619Q256 619 256 622T258 628Q265 648 283 660T326 672Q341 672 363 662T399 651Q412
651 420 656T436 672Q438 676 443 677T447 674Q442 647 425 634T387 621Q366 621 348 633T306 645Q290 645 276 632Q269 626 266 623T260 619Z" />
<glyph unicode="&#xd2;" glyph-name="Ograve" horiz-adv-x="643" d="M199 -38Q26 -38 26 139Q26 260 104 369Q182 479 296 516Q300 515 300 510Q300 496 248 472Q180 441 122 333Q67 233 67 151Q67 0 229 0Q356 0 480 87Q616 181 616 303Q616 390 551 470Q482
554 397 554Q380 554 356 544Q332 535 330 535Q323 535 323 541Q323 558 359 565Q385 571 407 571Q508 571 583 495Q659 419 659 318Q659 165 501 58Q360 -38 199 -38ZM437 624Q433 624 420 634T380 666Q355 686 337 698T311 717Q310 720 309 722T307 728V730Q311
746 327 746Q330 746 333 743L402 672Q415 659 425 648T440 628Q440 624 437 624Z" />
<glyph unicode="&#xd3;" glyph-name="Oacute" horiz-adv-x="643" d="M199 -38Q26 -38 26 139Q26 260 104 369Q182 479 296 516Q300 515 300 510Q300 496 248 472Q180 441 122 333Q67 233 67 151Q67 0 229 0Q356 0 480 87Q616 181 616 303Q616 390 551 470Q482
554 397 554Q380 554 356 544Q332 535 330 535Q323 535 323 541Q323 558 359 565Q385 571 407 571Q508 571 583 495Q659 419 659 318Q659 165 501 58Q360 -38 199 -38ZM373 624Q369 623 369 628Q374 637 384 648T407 672L476 743Q479 746 482 746Q498 746 502 730V728Q502
725 501 723T498 717Q490 711 473 699T429 666Q404 647 391 637T373 624Z" />
<glyph unicode="&#xd4;" glyph-name="Ocircumflex" horiz-adv-x="643" d="M199 -38Q26 -38 26 139Q26 260 104 369Q182 479 296 516Q300 515 300 510Q300 496 248 472Q180 441 122 333Q67 233 67 151Q67 0 229 0Q356 0 480 87Q616 181 616 303Q616 390 551 470Q482
554 397 554Q380 554 356 544Q332 535 330 535Q323 535 323 541Q323 558 359 565Q385 571 407 571Q508 571 583 495Q659 419 659 318Q659 165 501 58Q360 -38 199 -38ZM313 616Q310 616 310 624Q310 628 321 637T347 659L410 715Q419 724 429 724Q439 724 446 715L495
659Q506 647 513 637T520 622Q520 614 514 616Q513 617 500 626T464 653Q451 664 442 673T425 689Q417 683 405 674T376 653Q348 635 336 628T317 617Q315 616 313 616Z" />
<glyph unicode="&#xd5;" glyph-name="Otilde" horiz-adv-x="643" d="M199 -38Q26 -38 26 139Q26 260 104 369Q182 479 296 516Q300 515 300 510Q300 496 248 472Q180 441 122 333Q67 233 67 151Q67 0 229 0Q356 0 480 87Q616 181 616 303Q616 390 551 470Q482
554 397 554Q380 554 356 544Q332 535 330 535Q323 535 323 541Q323 558 359 565Q385 571 407 571Q508 571 583 495Q659 419 659 318Q659 165 501 58Q360 -38 199 -38ZM318 630Q314 630 314 633T316 639Q323 659 341 671T384 683Q399 683 421 673T457 662Q470 662
478 667T494 683Q496 687 501 688T505 685Q500 658 483 645T445 632Q424 632 406 644T364 656Q348 656 334 643Q327 637 324 634T318 630Z" />
<glyph unicode="&#xd6;" glyph-name="Odieresis" horiz-adv-x="643" d="M199 -38Q26 -38 26 139Q26 260 104 369Q182 479 296 516Q300 515 300 510Q300 496 248 472Q180 441 122 333Q67 233 67 151Q67 0 229 0Q356 0 480 87Q616 181 616 303Q616 390 551 470Q482
554 397 554Q380 554 356 544Q332 535 330 535Q323 535 323 541Q323 558 359 565Q385 571 407 571Q508 571 583 495Q659 419 659 318Q659 165 501 58Q360 -38 199 -38ZM465 621Q451 621 451 646Q451 662 466 677T498 692Q503 692 503 690Q503 681 498 664T492 640Q492
621 465 621ZM349 621Q335 621 335 646Q335 662 350 677T382 692Q387 692 387 690Q387 681 382 664T376 640Q376 621 349 621Z" />
<glyph unicode="&#xd7;" glyph-name="multiply" horiz-adv-x="365" d="M292 69Q286 69 276 73T251 91L173 169Q157 155 141 141T110 115Q93 100 86 94T74 84Q62 75 52 75Q43 75 43 82Q43 90 57 105T110 156Q112 158 115 161T122 167L150 193L56 287Q50 293 48
300T50 311Q56 318 73 308T133 256Q138 252 149 241Q156 235 162 229T174 218H178Q210 247 232 266T271 299Q296 321 312 321Q322 321 322 312Q322 293 295 271L202 192Q231 164 249 146T281 114Q305 90 305 80Q305 75 301 71Q299 69 292 69Z" />
<glyph unicode="&#xd8;" glyph-name="Oslash" horiz-adv-x="643" d="M199 -38Q26 -38 26 139Q26 260 104 369Q184 479 297 516Q300 513 300 510Q300 497 247 473Q179 441 121 333Q67 230 67 150Q67 76 111 38T230 0Q357 0 481 87Q617 181 617 303Q617 391 551
470Q482 553 397 553Q381 553 357 544Q333 535 330 535Q323 535 323 541Q323 556 359 565Q383 571 407 571Q508 571 583 495Q658 420 658 319Q658 164 501 58Q360 -38 199 -38Z" />
<glyph unicode="&#xd9;" glyph-name="Ugrave" horiz-adv-x="516" d="M430 -11Q369 -11 369 136Q369 158 371 186T377 250Q389 357 389 364Q327 245 252 146Q139 0 64 0Q25 0 25 89Q25 167 57 275Q65 300 80 345T121 455Q105 442 90 442Q79 442 68 451T56 471Q56
476 60 476Q62 475 63 475T65 474Q74 461 84 461Q105 461 123 497Q127 505 133 517T148 546Q150 548 154 548Q181 548 181 527Q181 525 179 519Q135 440 101 335Q64 221 64 141Q64 48 100 48Q162 48 250 172Q279 213 305 257T356 351Q366 370 375 392T393 440Q394
452 396 470T401 512Q408 567 435 567Q459 567 459 544L449 499Q427 402 417 322T407 178Q407 36 469 36Q502 36 536 103Q539 103 540 96Q540 94 539 93Q521 57 495 28Q461 -11 430 -11ZM338 613Q334 613 321 623T281 655Q256 675 238 687T212 706Q211 709 210
711T208 717V719Q212 735 228 735Q231 735 234 732L303 661Q316 648 326 637T341 617Q341 613 338 613Z" />
<glyph unicode="&#xda;" glyph-name="Uacute" horiz-adv-x="516" d="M430 -11Q369 -11 369 136Q369 158 371 186T377 250Q389 357 389 364Q327 245 252 146Q139 0 64 0Q25 0 25 89Q25 167 57 275Q65 300 80 345T121 455Q105 442 90 442Q79 442 68 451T56 471Q56
476 60 476Q62 475 63 475T65 474Q74 461 84 461Q105 461 123 497Q127 505 133 517T148 546Q150 548 154 548Q181 548 181 527Q181 525 179 519Q135 440 101 335Q64 221 64 141Q64 48 100 48Q162 48 250 172Q279 213 305 257T356 351Q366 370 375 392T393 440Q394
452 396 470T401 512Q408 567 435 567Q459 567 459 544L449 499Q427 402 417 322T407 178Q407 36 469 36Q502 36 536 103Q539 103 540 96Q540 94 539 93Q521 57 495 28Q461 -11 430 -11ZM274 613Q270 612 270 617Q275 626 285 637T308 661L377 732Q380 735 383
735Q399 735 403 719V717Q403 714 402 712T399 706Q391 700 374 688T330 655Q305 636 292 626T274 613Z" />
<glyph unicode="&#xdb;" glyph-name="Ucircumflex" horiz-adv-x="516" d="M430 -11Q369 -11 369 136Q369 158 371 186T377 250Q389 357 389 364Q327 245 252 146Q139 0 64 0Q25 0 25 89Q25 167 57 275Q65 300 80 345T121 455Q105 442 90 442Q79 442 68 451T56
471Q56 476 60 476Q62 475 63 475T65 474Q74 461 84 461Q105 461 123 497Q127 505 133 517T148 546Q150 548 154 548Q181 548 181 527Q181 525 179 519Q135 440 101 335Q64 221 64 141Q64 48 100 48Q162 48 250 172Q279 213 305 257T356 351Q366 370 375 392T393
440Q394 452 396 470T401 512Q408 567 435 567Q459 567 459 544L449 499Q427 402 417 322T407 178Q407 36 469 36Q502 36 536 103Q539 103 540 96Q540 94 539 93Q521 57 495 28Q461 -11 430 -11ZM214 605Q211 605 211 613Q211 617 222 626T248 648L311 704Q320
713 330 713Q340 713 347 704L396 648Q407 636 414 626T421 611Q421 603 415 605Q414 606 401 615T365 642Q352 653 343 662T326 678Q318 672 306 663T277 642Q249 624 237 617T218 606Q216 605 214 605Z" />
<glyph unicode="&#xdc;" glyph-name="Udieresis" horiz-adv-x="516" d="M430 -11Q369 -11 369 136Q369 158 371 186T377 250Q389 357 389 364Q327 245 252 146Q139 0 64 0Q25 0 25 89Q25 167 57 275Q65 300 80 345T121 455Q105 442 90 442Q79 442 68 451T56 471Q56
476 60 476Q62 475 63 475T65 474Q74 461 84 461Q105 461 123 497Q127 505 133 517T148 546Q150 548 154 548Q181 548 181 527Q181 525 179 519Q135 440 101 335Q64 221 64 141Q64 48 100 48Q162 48 250 172Q279 213 305 257T356 351Q366 370 375 392T393 440Q394
452 396 470T401 512Q408 567 435 567Q459 567 459 544L449 499Q427 402 417 322T407 178Q407 36 469 36Q502 36 536 103Q539 103 540 96Q540 94 539 93Q521 57 495 28Q461 -11 430 -11ZM366 610Q352 610 352 635Q352 651 367 666T399 681Q404 681 404 679Q404
670 399 653T393 629Q393 610 366 610ZM250 610Q236 610 236 635Q236 651 251 666T283 681Q288 681 288 679Q288 670 283 653T277 629Q277 610 250 610Z" />
<glyph unicode="&#xdd;" glyph-name="Yacute" horiz-adv-x="364" d="M161 -208Q112 -208 112 -139Q112 -57 228 172Q275 264 318 339T401 473Q412 490 419 500T430 513Q428 513 427 512Q408 506 402 506Q392 506 392 511Q392 521 408 525Q430 532 447 542T475
566Q488 582 506 582Q520 582 520 574Q520 572 515 565Q457 498 401 417T288 240Q148 1 148 -117Q148 -184 176 -184Q190 -184 221 -166Q253 -148 256 -148Q258 -148 258 -150Q258 -156 248 -165Q204 -208 161 -208ZM205 140Q206 145 206 150T206 161Q206 239 169
322Q131 409 73 456Q82 429 82 411Q82 372 43 372Q34 372 34 376Q34 379 38 382Q61 384 61 403Q61 421 34 458Q8 496 8 501Q8 526 35 526Q106 526 166 405Q216 305 220 219L222 179Q223 147 205 140ZM262 613Q258 612 258 617Q263 626 273 637T296 661L365 732Q368
735 371 735Q387 735 391 719V717Q391 714 390 712T387 706Q379 700 362 688T318 655Q293 636 280 626T262 613Z" />
<glyph unicode="&#xde;" glyph-name="Thorn" horiz-adv-x="290" d="M8 -367Q2 -365 2 -363Q2 -360 9 -345L18 -326Q27 -294 36 -147Q40 -79 42 -38T43 17L31 -48Q29 -49 26 -49Q15 -49 15 -26Q15 -12 29 24Q44 59 44 68L38 417Q36 473 21 473Q15 473 3 468T-15
462Q-18 462 -18 463Q-17 465 -8 473T19 495Q54 524 56 524Q73 524 74 449L77 262Q149 367 223 367Q296 367 296 266Q296 185 249 114Q197 35 119 35Q83 35 83 52Q83 68 112 68Q177 68 225 130Q269 189 269 255Q269 340 194 340Q169 340 125 299Q80 257 76 233Q76
222 76 203T74 156L70 8Q70 -238 38 -308Q33 -320 26 -335T8 -367Z" />
<glyph unicode="&#xdf;" glyph-name="germandbls" horiz-adv-x="370" d="M1 -329Q-23 -329 -54 -307Q-85 -285 -85 -263Q-85 -255 -80 -255Q-80 -255 -54 -280Q-28 -306 -9 -306Q54 -306 64 -75Q66 43 71 151T90 343T127 474Q171 558 237 558Q279 558 304 534T341
470T358 382Q358 378 354 372T343 365Q297 365 270 339T243 275Q243 256 250 237T274 197Q295 172 316 140T337 63Q337 29 322 9T287 -21T247 -31Q200 -31 183 13Q179 22 179 28Q179 35 186 35Q190 35 192 30Q206 -14 243 -14Q263 -14 283 8T304 63Q304 104 285
134T245 189Q217 224 217 264Q217 296 233 323T278 366T342 383Q340 394 337 418T322 469T289 513T228 532Q179 532 153 485T115 346T100 117Q99 49 98 5T95 -60Q93 -113 88 -156T76 -234Q56 -329 1 -329Z" />
<glyph unicode="&#xe0;" glyph-name="agrave" horiz-adv-x="277" d="M30 19Q1 19 1 55Q1 102 50 172Q71 203 93 227T137 270Q166 294 190 294Q205 294 215 282T225 254Q225 247 221 247Q221 247 214 254T191 261Q168 261 151 250Q107 219 70 171Q27 115 27 70Q27
47 43 47Q69 47 125 124Q149 158 164 184T187 230Q194 237 203 237Q208 237 209 233Q202 220 202 186Q202 143 212 109Q227 56 255 56Q273 56 293 87L314 119Q315 118 315 117Q315 101 285 63Q255 26 239 26Q213 26 191 84Q174 132 174 165Q76 19 30 19ZM210 603Q203
603 153 645Q144 653 129 663T106 679Q105 682 104 684T102 690V692Q106 708 122 708Q125 708 128 705L175 651Q187 638 198 627T213 607Q213 603 210 603Z" />
<glyph unicode="&#xe1;" glyph-name="aacute" horiz-adv-x="277" d="M30 19Q1 19 1 55Q1 102 50 172Q71 203 93 227T137 270Q166 294 190 294Q205 294 215 282T225 254Q225 247 221 247Q221 247 214 254T191 261Q168 261 151 250Q107 219 70 171Q27 115 27 70Q27
47 43 47Q69 47 125 124Q149 158 164 184T187 230Q194 237 203 237Q208 237 209 233Q202 220 202 186Q202 143 212 109Q227 56 255 56Q273 56 293 87L314 119Q315 118 315 117Q315 101 285 63Q255 26 239 26Q213 26 191 84Q174 132 174 165Q76 19 30 19ZM168 347Q164
346 164 351Q169 360 179 371T202 395L249 449Q252 452 255 452Q271 452 275 436V434Q275 431 274 429T271 423Q263 417 248 407T224 389Q177 350 168 347Z" />
<glyph unicode="&#xe2;" glyph-name="acircumflex" horiz-adv-x="277" d="M30 19Q1 19 1 55Q1 102 50 172Q71 203 93 227T137 270Q166 294 190 294Q205 294 215 282T225 254Q225 247 221 247Q221 247 214 254T191 261Q168 261 151 250Q107 219 70 171Q27 115 27
70Q27 47 43 47Q69 47 125 124Q149 158 164 184T187 230Q194 237 203 237Q208 237 209 233Q202 220 202 186Q202 143 212 109Q227 56 255 56Q273 56 293 87L314 119Q315 118 315 117Q315 101 285 63Q255 26 239 26Q213 26 191 84Q174 132 174 165Q76 19 30 19ZM110
598Q107 598 107 606Q107 610 117 620T142 643L183 680Q192 689 202 689Q212 689 219 680L245 645Q255 632 262 623T270 608Q270 600 264 602Q263 603 252 610T228 630L198 657Q190 651 182 645T158 628Q149 621 135 612T114 599Q112 598 110 598Z" />
<glyph unicode="&#xe3;" glyph-name="atilde" horiz-adv-x="277" d="M30 19Q1 19 1 55Q1 102 50 172Q71 203 93 227T137 270Q166 294 190 294Q205 294 215 282T225 254Q225 247 221 247Q221 247 214 254T191 261Q168 261 151 250Q107 219 70 171Q27 115 27 70Q27
47 43 47Q69 47 125 124Q149 158 164 184T187 230Q194 237 203 237Q208 237 209 233Q202 220 202 186Q202 143 212 109Q227 56 255 56Q273 56 293 87L314 119Q315 118 315 117Q315 101 285 63Q255 26 239 26Q213 26 191 84Q174 132 174 165Q76 19 30 19ZM101 605Q97
605 97 608T99 614Q106 634 122 646T162 658Q177 658 191 648T220 637Q233 637 241 642T257 658Q259 662 264 663T268 660Q263 633 246 620T208 607Q194 607 185 613T167 625T142 631Q133 631 129 628T117 618Q110 612 107 609T101 605Z" />
<glyph unicode="&#xe4;" glyph-name="adieresis" horiz-adv-x="277" d="M30 19Q1 19 1 55Q1 102 50 172Q71 203 93 227T137 270Q166 294 190 294Q205 294 215 282T225 254Q225 247 221 247Q221 247 214 254T191 261Q168 261 151 250Q107 219 70 171Q27 115 27
70Q27 47 43 47Q69 47 125 124Q149 158 164 184T187 230Q194 237 203 237Q208 237 209 233Q202 220 202 186Q202 143 212 109Q227 56 255 56Q273 56 293 87L314 119Q315 118 315 117Q315 101 285 63Q255 26 239 26Q213 26 191 84Q174 132 174 165Q76 19 30 19ZM238
600Q224 600 224 625Q224 641 239 656T271 671Q276 671 276 669Q276 660 271 643T265 619Q265 600 238 600ZM122 600Q108 600 108 625Q108 641 123 656T155 671Q160 671 160 669Q160 660 155 643T149 619Q149 600 122 600Z" />
<glyph unicode="&#xe5;" glyph-name="aring" horiz-adv-x="277" d="M30 19Q1 19 1 55Q1 102 50 172Q71 203 93 227T137 270Q166 294 190 294Q205 294 215 282T225 254Q225 247 221 247Q221 247 214 254T191 261Q168 261 151 250Q107 219 70 171Q27 115 27 70Q27
47 43 47Q69 47 125 124Q149 158 164 184T187 230Q194 237 203 237Q208 237 209 233Q202 220 202 186Q202 143 212 109Q227 56 255 56Q273 56 293 87L314 119Q315 118 315 117Q315 101 285 63Q255 26 239 26Q213 26 191 84Q174 132 174 165Q76 19 30 19ZM187 344Q161
344 149 356T137 388Q137 414 154 431T205 449Q231 449 243 435T255 401Q255 376 238 360T187 344ZM190 359Q209 359 218 370T227 401Q227 413 223 423T204 433Q184 433 176 420T167 389Q167 377 172 368T190 359Z" />
<glyph unicode="&#xe6;" glyph-name="ae" horiz-adv-x="370" d="M232 -11Q163 -11 163 92Q163 125 171 160H170Q74 20 31 20Q1 20 1 55Q1 106 69 198Q140 294 190 294Q210 294 219 276Q239 309 248 309Q266 309 273 294Q279 308 287 308Q315 308 315 273Q315 248
305 228L383 240Q385 239 386 238T388 236Q387 234 384 233T364 229Q340 224 322 217T290 200Q289 196 279 183Q251 143 230 143Q224 143 222 145L223 147Q236 160 255 191Q215 177 202 161Q191 148 191 85Q191 8 226 8Q260 8 302 79L344 150Q346 150 346 147Q346
143 343 135Q329 103 318 81T300 46Q266 -11 232 -11ZM215 196Q251 206 266 216Q271 220 279 240Q286 258 286 269Q286 282 277 282Q266 282 241 245Q215 207 215 196ZM43 47Q70 47 126 124Q173 191 187 230Q193 236 199 237L209 258Q203 261 192 261Q169 261 152
250Q107 220 71 172Q28 117 28 71Q28 47 43 47Z" />
<glyph unicode="&#xe7;" glyph-name="ccedilla" horiz-adv-x="193" d="M80 -11Q16 -11 16 86Q16 134 30 176Q35 189 41 204T58 239Q83 288 95 288Q112 288 119 275Q121 281 128 281Q142 281 155 268T168 241Q168 226 156 212T129 197Q127 197 125 199Q146 232
146 248Q146 266 133 266Q99 266 64 171Q41 107 41 68Q41 5 90 5Q146 5 203 80Q222 105 224 106Q227 106 227 102Q227 101 225 95Q170 -11 80 -11ZM64 94Q46 94 25 97Q19 97 19 106Q19 111 25 114Q45 111 59 111Q101 111 101 140Q101 156 92 162T74 177T64 205Q64
225 73 236T104 255Q113 258 115 253Q98 244 91 232T84 211Q84 198 96 191T122 173T135 140Q135 115 117 105T64 94Z" />
<glyph unicode="&#xe8;" glyph-name="egrave" horiz-adv-x="193" d="M82 -11Q13 -11 13 93Q13 110 14 126T20 159Q8 167 8 172Q8 181 29 188Q39 218 58 256Q85 308 99 308Q115 308 123 294Q129 308 137 308Q165 308 165 274Q165 248 155 228Q162 220 162 213Q162
211 159 209L103 191Q87 186 75 178T52 161Q41 128 41 90Q41 6 93 6Q162 6 223 118Q226 123 228 123Q231 123 231 117Q231 112 228 106Q204 58 170 27Q127 -11 82 -11ZM64 196Q74 199 87 203T117 215Q122 219 130 240Q137 258 137 269Q137 282 127 282Q116 282
91 245Q65 209 64 196ZM153 368Q146 368 96 410Q87 418 72 428T49 444Q48 447 47 449T45 455V457Q49 473 65 473Q68 473 71 470L118 416Q130 403 141 392T156 372Q156 368 153 368Z" />
<glyph unicode="&#xe9;" glyph-name="eacute" horiz-adv-x="193" d="M82 -11Q13 -11 13 93Q13 110 14 126T20 159Q8 167 8 172Q8 181 29 188Q39 218 58 256Q85 308 99 308Q115 308 123 294Q129 308 137 308Q165 308 165 274Q165 248 155 228Q162 220 162 213Q162
211 159 209L103 191Q87 186 75 178T52 161Q41 128 41 90Q41 6 93 6Q162 6 223 118Q226 123 228 123Q231 123 231 117Q231 112 228 106Q204 58 170 27Q127 -11 82 -11ZM64 196Q74 199 87 203T117 215Q122 219 130 240Q137 258 137 269Q137 282 127 282Q116 282
91 245Q65 209 64 196ZM111 368Q107 367 107 372Q112 381 122 392T145 416L192 470Q195 473 198 473Q214 473 218 457V455Q218 452 217 450T214 444Q206 438 191 428T167 410Q120 371 111 368Z" />
<glyph unicode="&#xea;" glyph-name="ecircumflex" horiz-adv-x="193" d="M82 -11Q13 -11 13 93Q13 110 14 126T20 159Q8 167 8 172Q8 181 29 188Q39 218 58 256Q85 308 99 308Q115 308 123 294Q129 308 137 308Q165 308 165 274Q165 248 155 228Q162 220 162
213Q162 211 159 209L103 191Q87 186 75 178T52 161Q41 128 41 90Q41 6 93 6Q162 6 223 118Q226 123 228 123Q231 123 231 117Q231 112 228 106Q204 58 170 27Q127 -11 82 -11ZM64 196Q74 199 87 203T117 215Q122 219 130 240Q137 258 137 269Q137 282 127 282Q116
282 91 245Q65 209 64 196ZM53 363Q50 363 50 371Q50 375 60 385T85 408L126 445Q135 454 145 454Q155 454 162 445L188 410Q198 397 205 388T213 373Q213 365 207 367Q206 368 195 375T171 395L141 422Q133 416 125 410T101 393Q92 386 78 377T57 364Q55 363 53
363Z" />
<glyph unicode="&#xeb;" glyph-name="edieresis" horiz-adv-x="193" d="M82 -11Q13 -11 13 93Q13 110 14 126T20 159Q8 167 8 172Q8 181 29 188Q39 218 58 256Q85 308 99 308Q115 308 123 294Q129 308 137 308Q165 308 165 274Q165 248 155 228Q162 220 162 213Q162
211 159 209L103 191Q87 186 75 178T52 161Q41 128 41 90Q41 6 93 6Q162 6 223 118Q226 123 228 123Q231 123 231 117Q231 112 228 106Q204 58 170 27Q127 -11 82 -11ZM64 196Q74 199 87 203T117 215Q122 219 130 240Q137 258 137 269Q137 282 127 282Q116 282
91 245Q65 209 64 196ZM181 365Q167 365 167 390Q167 406 182 421T214 436Q219 436 219 434Q219 425 214 408T208 384Q208 365 181 365ZM65 365Q51 365 51 390Q51 406 66 421T98 436Q103 436 103 434Q103 425 98 408T92 384Q92 365 65 365Z" />
<glyph unicode="&#xec;" glyph-name="igrave" horiz-adv-x="170" d="M78 -11Q43 -11 43 55Q43 68 44 87T50 133Q54 159 55 179T57 212Q57 298 14 298Q11 298 5 297T-5 295Q-10 295 -10 300Q-10 306 25 318Q58 329 68 329Q84 329 84 291Q84 275 82 250T76 192Q72
159 71 135T69 93Q69 13 104 13Q127 13 153 45Q156 45 156 40Q156 28 124 8Q93 -11 78 -11ZM348 376Q341 376 291 418Q282 426 267 436T244 452Q243 455 242 457T240 463V465Q244 481 260 481Q263 481 266 478L313 424Q325 411 336 400T351 380Q351 376 348 376Z"
/>
<glyph unicode="&#xed;" glyph-name="iacute" horiz-adv-x="170" d="M78 -11Q43 -11 43 55Q43 68 44 87T50 133Q54 159 55 179T57 212Q57 298 14 298Q11 298 5 297T-5 295Q-10 295 -10 300Q-10 306 25 318Q58 329 68 329Q84 329 84 291Q84 275 82 250T76 192Q72
159 71 135T69 93Q69 13 104 13Q127 13 153 45Q156 45 156 40Q156 28 124 8Q93 -11 78 -11ZM50 376Q46 375 46 380Q51 389 61 400T84 424L131 478Q134 481 137 481Q153 481 157 465V463Q157 460 156 458T153 452Q145 446 130 436T106 418Q59 379 50 376Z" />
<glyph unicode="&#xee;" glyph-name="icircumflex" horiz-adv-x="170" d="M78 -11Q43 -11 43 55Q43 68 44 87T50 133Q54 159 55 179T57 212Q57 298 14 298Q11 298 5 297T-5 295Q-10 295 -10 300Q-10 306 25 318Q58 329 68 329Q84 329 84 291Q84 275 82 250T76
192Q72 159 71 135T69 93Q69 13 104 13Q127 13 153 45Q156 45 156 40Q156 28 124 8Q93 -11 78 -11ZM248 371Q245 371 245 379Q245 383 255 393T280 416L321 453Q330 462 340 462Q350 462 357 453L383 418Q393 405 400 396T408 381Q408 373 402 375Q401 376 390
383T366 403L336 430Q328 424 320 418T296 401Q287 394 273 385T252 372Q250 371 248 371Z" />
<glyph unicode="&#xef;" glyph-name="idieresis" horiz-adv-x="170" d="M78 -11Q43 -11 43 55Q43 68 44 87T50 133Q54 159 55 179T57 212Q57 298 14 298Q11 298 5 297T-5 295Q-10 295 -10 300Q-10 306 25 318Q58 329 68 329Q84 329 84 291Q84 275 82 250T76 192Q72
159 71 135T69 93Q69 13 104 13Q127 13 153 45Q156 45 156 40Q156 28 124 8Q93 -11 78 -11ZM376 373Q362 373 362 398Q362 414 377 429T409 444Q414 444 414 442Q414 433 409 416T403 392Q403 373 376 373ZM260 373Q246 373 246 398Q246 414 261 429T293 444Q298
444 298 442Q298 433 293 416T287 392Q287 373 260 373Z" />
<glyph unicode="&#xf0;" glyph-name="eth" horiz-adv-x="217" d="M90 2Q30 2 30 116Q30 178 48 236Q57 265 82 285T137 305Q146 305 146 300Q146 297 138 295Q105 288 88 239Q65 168 65 109Q65 32 104 32Q128 32 148 73Q165 109 165 136Q165 294 124 381Q0 316
-15 316L-17 317Q-17 348 25 369L94 395L112 403Q75 469 28 469Q6 469 -29 443Q-35 443 -35 448Q-35 450 -33 452Q-1 485 40 485Q101 485 140 415L245 459Q249 459 249 457Q249 446 151 395Q165 364 173 329T185 253Q185 248 185 240T186 220L188 197Q188 135 167
78Q139 2 90 2Z" />
<glyph unicode="&#xf1;" glyph-name="ntilde" horiz-adv-x="261" d="M16 -30Q14 -28 14 -27Q15 -20 17 -2T24 47Q32 107 36 152T40 227Q40 258 35 275Q31 279 19 279Q13 279 1 276T-16 273Q-21 273 -21 276Q-21 280 7 292Q55 318 55 319Q74 319 74 262Q74 237
65 186Q61 161 59 143T57 111V108Q66 124 80 145T114 193Q155 247 177 268Q181 272 197 279T220 286Q223 286 223 284Q199 238 193 215Q185 185 185 138Q185 56 220 56Q232 56 248 75Q250 79 254 83T264 95L265 91Q265 80 242 51Q220 23 207 23Q158 23 158 127Q158
156 159 182T165 231Q140 207 120 180T82 123Q41 50 45 -5Q40 -11 33 -17T16 -30ZM126 597Q122 597 122 600T124 606Q131 626 147 638T187 650Q202 650 216 640T245 629Q258 629 266 634T282 650Q284 654 289 655T293 652Q288 625 271 612T233 599Q219 599 210
605T192 617T167 623Q158 623 154 620T142 610Q135 604 132 601T126 597Z" />
<glyph unicode="&#xf2;" glyph-name="ograve" horiz-adv-x="182" d="M69 2Q22 2 22 96Q22 131 28 166T45 236Q54 264 76 284T127 305Q137 305 138 301Q136 297 133 299Q93 289 73 217Q66 191 63 163T59 105Q59 32 83 32Q116 32 134 104Q146 154 146 205Q146 238
135 255T124 270Q124 278 135 278Q165 278 165 203Q165 146 143 84Q115 2 69 2ZM136 612Q129 612 79 654Q70 662 55 672T32 688Q31 691 30 693T28 699V701Q32 717 48 717Q51 717 54 714L101 660Q113 647 124 636T139 616Q139 612 136 612Z" />
<glyph unicode="&#xf3;" glyph-name="oacute" horiz-adv-x="182" d="M69 2Q22 2 22 96Q22 131 28 166T45 236Q54 264 76 284T127 305Q137 305 138 301Q136 297 133 299Q93 289 73 217Q66 191 63 163T59 105Q59 32 83 32Q116 32 134 104Q146 154 146 205Q146 238
135 255T124 270Q124 278 135 278Q165 278 165 203Q165 146 143 84Q115 2 69 2ZM94 612Q90 611 90 616Q95 625 105 636T128 660L175 714Q178 717 181 717Q197 717 201 701V699Q201 696 200 694T197 688Q189 682 174 672T150 654Q103 615 94 612Z" />
<glyph unicode="&#xf4;" glyph-name="ocircumflex" horiz-adv-x="182" d="M69 2Q22 2 22 96Q22 131 28 166T45 236Q54 264 76 284T127 305Q137 305 138 301Q136 297 133 299Q93 289 73 217Q66 191 63 163T59 105Q59 32 83 32Q116 32 134 104Q146 154 146 205Q146
238 135 255T124 270Q124 278 135 278Q165 278 165 203Q165 146 143 84Q115 2 69 2ZM36 607Q33 607 33 615Q33 619 43 629T68 652L109 689Q118 698 128 698Q138 698 145 689L171 654Q181 641 188 632T196 617Q196 609 190 611Q189 612 178 619T154 639L124 666Q116
660 108 654T84 637Q75 630 61 621T40 608Q38 607 36 607Z" />
<glyph unicode="&#xf5;" glyph-name="otilde" horiz-adv-x="182" d="M69 2Q22 2 22 96Q22 131 28 166T45 236Q54 264 76 284T127 305Q137 305 138 301Q136 297 133 299Q93 289 73 217Q66 191 63 163T59 105Q59 32 83 32Q116 32 134 104Q146 154 146 205Q146 238
135 255T124 270Q124 278 135 278Q165 278 165 203Q165 146 143 84Q115 2 69 2ZM27 614Q23 614 23 617T25 623Q32 643 48 655T88 667Q103 667 117 657T146 646Q159 646 167 651T183 667Q185 671 190 672T194 669Q189 642 172 629T134 616Q120 616 111 622T93 634T68
640Q59 640 55 637T43 627Q36 621 33 618T27 614Z" />
<glyph unicode="&#xf6;" glyph-name="odieresis" horiz-adv-x="182" d="M69 2Q22 2 22 96Q22 131 28 166T45 236Q54 264 76 284T127 305Q137 305 138 301Q136 297 133 299Q93 289 73 217Q66 191 63 163T59 105Q59 32 83 32Q116 32 134 104Q146 154 146 205Q146
238 135 255T124 270Q124 278 135 278Q165 278 165 203Q165 146 143 84Q115 2 69 2ZM164 609Q150 609 150 634Q150 650 165 665T197 680Q202 680 202 678Q202 669 197 652T191 628Q191 609 164 609ZM48 609Q34 609 34 634Q34 650 49 665T81 680Q86 680 86 678Q86
669 81 652T75 628Q75 609 48 609Z" />
<glyph unicode="&#xf7;" glyph-name="divide" horiz-adv-x="336" d="M188 215Q157 215 157 240Q157 261 185 261Q215 261 215 237Q215 215 188 215ZM148 148Q36 148 36 165Q36 183 54 183H239Q262 183 279 183T307 185V183Q307 173 238 159Q208 154 186 151T148
148ZM155 71Q124 71 124 97Q124 117 152 117Q182 117 182 93Q182 85 173 78T155 71Z" />
<glyph unicode="&#xf8;" glyph-name="oslash" horiz-adv-x="182" d="M69 2Q22 2 22 96Q22 131 28 166T45 236Q53 261 72 280T116 304Q124 341 129 341H132Q139 341 142 334Q143 330 142 323Q141 318 140 313T138 302V301Q138 300 137 300Q136 295 135 290T133
278H135Q165 278 165 203Q165 146 143 84Q122 24 92 8Q90 -5 90 -16T88 -35Q87 -41 87 -47T87 -58Q87 -85 93 -99Q95 -105 100 -108T104 -111Q105 -112 105 -113Q105 -120 98 -122H96Q91 -122 85 -110Q77 -89 74 -60Q73 -56 73 -51T73 -41Q73 -32 73 -22T75 2Q72
2 69 2ZM59 105Q59 40 78 33V33Q80 54 83 80T90 136Q97 186 102 224T113 289Q87 269 73 217Q66 191 63 163T59 105ZM146 205Q146 226 141 241T131 263Q106 135 94 34Q119 45 134 104Q146 154 146 205Z" />
<glyph unicode="&#xf9;" glyph-name="ugrave" horiz-adv-x="262" d="M33 4Q14 4 14 51Q14 72 19 106T34 189Q30 198 30 212Q30 263 74 277Q78 276 78 267Q78 260 62 203Q44 139 44 85Q44 43 60 43Q87 43 135 137Q176 217 186 260Q192 283 215 283Q227 283 227
274Q227 269 221 257T213 241Q198 174 198 112Q198 40 231 40Q249 40 276 79Q303 119 304 119Q308 119 308 114Q308 100 267 53Q227 8 212 8Q170 8 170 97Q170 108 172 130T178 187Q166 164 150 138T113 82Q58 4 33 4ZM164 589Q157 589 107 631Q98 639 83 649T60
665Q59 668 58 670T56 676V678Q60 694 76 694Q79 694 82 691L129 637Q141 624 152 613T167 593Q167 589 164 589Z" />
<glyph unicode="&#xfa;" glyph-name="uacute" horiz-adv-x="262" d="M33 4Q14 4 14 51Q14 72 19 106T34 189Q30 198 30 212Q30 263 74 277Q78 276 78 267Q78 260 62 203Q44 139 44 85Q44 43 60 43Q87 43 135 137Q176 217 186 260Q192 283 215 283Q227 283 227
274Q227 269 221 257T213 241Q198 174 198 112Q198 40 231 40Q249 40 276 79Q303 119 304 119Q308 119 308 114Q308 100 267 53Q227 8 212 8Q170 8 170 97Q170 108 172 130T178 187Q166 164 150 138T113 82Q58 4 33 4ZM122 589Q118 588 118 593Q123 602 133 613T156
637L203 691Q206 694 209 694Q225 694 229 678V676Q229 673 228 671T225 665Q217 659 202 649T178 631Q131 592 122 589Z" />
<glyph unicode="&#xfb;" glyph-name="ucircumflex" horiz-adv-x="262" d="M33 4Q14 4 14 51Q14 72 19 106T34 189Q30 198 30 212Q30 263 74 277Q78 276 78 267Q78 260 62 203Q44 139 44 85Q44 43 60 43Q87 43 135 137Q176 217 186 260Q192 283 215 283Q227 283
227 274Q227 269 221 257T213 241Q198 174 198 112Q198 40 231 40Q249 40 276 79Q303 119 304 119Q308 119 308 114Q308 100 267 53Q227 8 212 8Q170 8 170 97Q170 108 172 130T178 187Q166 164 150 138T113 82Q58 4 33 4ZM64 584Q61 584 61 592Q61 596 71 606T96
629L137 666Q146 675 156 675Q166 675 173 666L199 631Q209 618 216 609T224 594Q224 586 218 588Q217 589 206 596T182 616L152 643Q144 637 136 631T112 614Q103 607 89 598T68 585Q66 584 64 584Z" />
<glyph unicode="&#xfc;" glyph-name="udieresis" horiz-adv-x="262" d="M33 4Q14 4 14 51Q14 72 19 106T34 189Q30 198 30 212Q30 263 74 277Q78 276 78 267Q78 260 62 203Q44 139 44 85Q44 43 60 43Q87 43 135 137Q176 217 186 260Q192 283 215 283Q227 283 227
274Q227 269 221 257T213 241Q198 174 198 112Q198 40 231 40Q249 40 276 79Q303 119 304 119Q308 119 308 114Q308 100 267 53Q227 8 212 8Q170 8 170 97Q170 108 172 130T178 187Q166 164 150 138T113 82Q58 4 33 4ZM192 586Q178 586 178 611Q178 627 193 642T225
657Q230 657 230 655Q230 646 225 629T219 605Q219 586 192 586ZM76 586Q62 586 62 611Q62 627 77 642T109 657Q114 657 114 655Q114 646 109 629T103 605Q103 586 76 586Z" />
<glyph unicode="&#xfd;" glyph-name="yacute" horiz-adv-x="262" d="M65 -373Q32 -373 2 -340Q-28 -307 -28 -273Q-28 -264 -25 -263L-20 -270Q16 -346 75 -346Q189 -346 189 -59Q189 -49 186 11T176 184Q160 144 112 78Q57 -1 30 -1Q9 -1 9 47Q9 68 14 102T29
184Q24 199 24 211Q24 261 69 273Q73 270 73 263Q73 256 69 237T56 184Q39 118 39 81Q39 39 55 39Q76 39 121 115Q162 183 181 256Q187 279 210 279Q221 279 221 270Q221 266 218 257T210 238T204 226Q205 223 207 201Q219 99 219 -37Q219 -70 218 -96T214 -142Q204
-223 173 -286Q130 -373 65 -373ZM119 580Q115 579 115 584Q120 593 130 604T153 628L200 682Q203 685 206 685Q222 685 226 669V667Q226 664 225 662T222 656Q214 650 199 640T175 622Q128 583 119 580Z" />
<glyph unicode="&#xfe;" glyph-name="thorn" horiz-adv-x="290" d="M8 -367Q2 -365 2 -363Q2 -360 9 -345L18 -326Q27 -294 36 -146Q40 -79 42 -39T43 17L31 -48Q29 -49 26 -49Q15 -49 15 -26Q15 -12 29 24Q44 59 44 68L38 417Q36 473 21 473Q15 473 3 468T-15
462Q-18 462 -18 463Q-17 465 -8 473T19 495Q54 524 56 524Q73 524 74 449L77 118Q149 223 223 223Q273 223 273 181Q273 153 244 109Q245 110 294 127Q330 140 343 140Q344 140 346 138Q342 132 299 116Q271 106 252 98T221 82Q214 78 203 70T174 51Q146 35 119
35Q84 35 84 45Q84 62 104 68Q109 69 117 70T136 73Q243 93 243 151Q243 196 194 196Q170 196 124 155Q81 115 76 89Q70 55 70 8Q70 -238 38 -308Q33 -320 26 -335T8 -367Z" />
<glyph unicode="&#xff;" glyph-name="ydieresis" horiz-adv-x="262" d="M65 -373Q32 -373 2 -340Q-28 -307 -28 -273Q-28 -264 -25 -263L-20 -270Q16 -346 75 -346Q189 -346 189 -59Q189 -49 186 11T176 184Q160 144 112 78Q57 -1 30 -1Q9 -1 9 47Q9 68 14 102T29
184Q24 199 24 211Q24 261 69 273Q73 270 73 263Q73 256 69 237T56 184Q39 118 39 81Q39 39 55 39Q76 39 121 115Q162 183 181 256Q187 279 210 279Q221 279 221 270Q221 266 218 257T210 238T204 226Q205 223 207 201Q219 99 219 -37Q219 -70 218 -96T214 -142Q204
-223 173 -286Q130 -373 65 -373ZM189 577Q175 577 175 602Q175 618 190 633T222 648Q227 648 227 646Q227 637 222 620T216 596Q216 577 189 577ZM73 577Q59 577 59 602Q59 618 74 633T106 648Q111 648 111 646Q111 637 106 620T100 596Q100 577 73 577Z" />
<glyph unicode="&#x2013;" glyph-name="endash" horiz-adv-x="433" d="M101 190Q55 190 43 195Q43 226 71 226Q82 226 98 226T137 224Q159 223 175 223T203 222Q205 222 243 221T355 218Q365 218 382 218T423 216Q429 215 429 212Q429 207 411 202Q390 198 319
196L222 194Q176 192 146 191T101 190Z" />
<glyph unicode="&#x2014;" glyph-name="emdash" horiz-adv-x="617" d="M126 190Q56 190 39 195Q39 226 81 226Q98 226 122 226T178 224Q210 223 235 223T276 222Q279 222 296 222T344 221L562 217Q567 217 577 217T601 216Q610 215 610 212Q610 207 584 202Q577
201 554 200T491 198L126 190Z" />
<glyph unicode="&#x2018;" glyph-name="quoteleft" horiz-adv-x="137" d="M53 343Q22 343 22 381Q22 411 52 493Q83 581 105 584L78 496Q59 433 59 411Q59 393 81 371Q77 343 53 343Z" />
<glyph unicode="&#x2019;" glyph-name="quoteright" horiz-adv-x="137" d="M29 327Q33 341 39 363T56 416Q75 476 75 499Q75 517 53 539Q57 567 81 567Q112 567 112 530Q112 501 82 418Q50 329 29 327Z" />
<glyph unicode="&#x201a;" glyph-name="quotesinglbase" horiz-adv-x="165" d="M44 -238Q48 -224 54 -202T71 -149Q90 -89 90 -66Q90 -48 68 -26Q72 2 96 2Q127 2 127 -35Q127 -64 97 -147Q65 -236 44 -238Z" />
<glyph unicode="&#x201c;" glyph-name="quotedblleft" horiz-adv-x="230" d="M137 310Q107 310 107 347Q107 378 136 460Q167 548 190 551L162 462Q152 432 148 411T144 378Q144 360 166 338Q162 310 137 310ZM47 310Q17 310 17 347Q17 378 46 460Q77 548 100
551L72 462Q62 432 58 411T54 378Q54 360 76 338Q72 310 47 310Z" />
<glyph unicode="&#x201d;" glyph-name="quotedblright" horiz-adv-x="232" d="M130 311L157 400Q176 461 176 484Q176 502 154 524Q158 552 182 552Q213 552 213 515Q213 485 183 402Q152 314 130 311ZM40 311L67 400Q86 461 86 484Q86 502 64 524Q68 552 92 552Q123
552 123 515Q123 485 93 402Q62 314 40 311Z" />
<glyph unicode="&#x201e;" glyph-name="quotedblbase" horiz-adv-x="221" d="M122 -294L149 -205Q168 -144 168 -121Q168 -103 146 -81Q150 -53 174 -53Q205 -53 205 -90Q205 -120 175 -203Q144 -291 122 -294ZM32 -294L59 -205Q78 -144 78 -121Q78 -103 56 -81Q60
-53 84 -53Q115 -53 115 -90Q115 -120 85 -203Q54 -291 32 -294Z" />
<glyph unicode="&#x2022;" glyph-name="bullet" horiz-adv-x="537" d="M270 20Q180 20 117 83Q54 146 54 236Q54 326 117 389Q180 453 270 453Q361 453 424 390Q487 327 487 236Q487 146 423 83Q360 20 270 20Z" />
<glyph unicode="&#x2039;" glyph-name="guilsinglleft" horiz-adv-x="264" d="M193 -2L185 1Q151 48 64 112Q60 115 60 118Q60 128 113 204Q158 269 179 294Q188 305 199 305Q204 305 204 299Q204 281 106 145Q203 26 203 11Q203 -3 193 -2Z" />
<glyph unicode="&#x203a;" glyph-name="guilsinglright" horiz-adv-x="264" d="M68 0Q60 0 60 5Q60 11 159 159Q62 278 62 293Q62 307 74 307L81 303Q110 262 202 192Q204 190 204 186Q204 173 152 99Q130 68 114 46T87 10Q77 0 68 0Z" />
</font>
</defs>
</svg>
