<?xml version="1.0" standalone="no"?>
<!DOCTYPE svg PUBLIC "-//W3C//DTD SVG 1.1//EN" "http://www.w3.org/Graphics/SVG/1.1/DTD/svg11.dtd">
<svg xmlns="http://www.w3.org/2000/svg">
<defs >
<font id="Carlito" horiz-adv-x="1048" ><font-face
    font-family="Carlito"
    units-per-em="2048"
    panose-1="2 15 5 2 2 2 4 3 2 4"
    ascent="1950"
    descent="-550"
    alphabetic="0" />
<glyph unicode=" " horiz-adv-x="463" />
<glyph unicode="!" horiz-adv-x="667" d="M420 1383V831Q420 787 419 746T414 663T407 577T396 483H277Q272 533 268 577T260 663T254 746T252 831V1383H420ZM211 107Q211 132 220 154T246 194T285 220T334 230Q359 230 381 221T420 194T446 155T456 107Q456 81
447 59T421 21T382 -5T334 -14Q308 -14 286 -5T247 20T221 59T211 107Z" />
<glyph unicode="&quot;" horiz-adv-x="821" d="M330 1383V1103L313 954Q310 923 297 906T253 888Q227 888 213 905T195 954L178 1103V1383H330ZM693 1383V1103L676 954Q673 923 660 906T616 888Q590 888 576 905T558 954L541 1103V1383H693Z" />
<glyph unicode="#" horiz-adv-x="1020" d="M711 408L638 0H559Q533 0 517 21T506 75L566 408H361L302 67Q295 31 273 16T221 0H143L216 408H95Q68 408 56 424T50 480L58 536H233L287 848H88L101 921Q106 950 123 963T179 977H304L366 1321Q371 1350 392 1366T443
1383H522L449 977H655L728 1383H806Q834 1383 850 1365T862 1318L800 977H985L972 903Q967 874 949 861T893 848H783L728 536H876Q903 536 915 520T922 464L914 408H711ZM378 536H583L638 848H432L378 536Z" />
<glyph unicode="$" horiz-adv-x="1038" d="M443 -18Q342 -7 258 33T116 135L154 194Q164 209 176 216T206 224Q219 224 238 210T287 178T356 143T453 118L479 479Q421 494 364 514T262 569T190 653T162 781Q162 836 184 889T252 986T365 1057T524 1090L539 1294H640L625
1087Q709 1076 778 1044T895 964L855 899Q847 887 839 880T816 872Q804 872 788 882T748 907T692 935T615 955L591 615Q650 598 708 578T812 525T887 443T916 320Q916 252 890 193T814 89T697 15T545 -20L530 -228H428L443 -18ZM762 295Q762 329 748 353T709 396T651
427T579 452L555 117Q608 121 647 136T711 175T749 229T762 295ZM325 795Q325 764 337 741T372 700T425 669T491 644L514 957Q463 952 427 938T369 901T336 852T325 795Z" />
<glyph unicode="%" horiz-adv-x="1464" d="M659 1049Q659 968 635 905T570 797T475 729T362 706Q299 706 245 729T151 796T89 904T66 1049Q66 1132 88 1197T150 1306T244 1374T362 1397Q425 1397 479 1374T574 1307T636 1197T659 1049ZM522 1049Q522 1113 510
1157T476 1229T425 1269T362 1282Q329 1282 300 1270T250 1229T216 1157T204 1049Q204 987 216 944T249 873T300 834T362 822Q395 822 424 834T475 873T509 943T522 1049ZM1398 327Q1398 246 1374 182T1309 74T1214 6T1101 -17Q1038 -17 984 6T889 73T827 182T804
327Q804 410 826 474T889 583T983 651T1101 675Q1164 675 1218 652T1312 584T1375 475T1398 327ZM1261 327Q1261 390 1249 434T1214 506T1163 546T1101 559Q1068 559 1039 547T989 507T955 435T942 327Q942 264 954 221T988 150T1039 111T1101 99Q1134 99 1163
111T1214 150T1248 220T1261 327ZM310 52Q292 21 269 11T217 0H142L1129 1323Q1146 1352 1168 1367T1225 1383H1302L310 52Z" />
<glyph unicode="&amp;" horiz-adv-x="1397" d="M656 1399Q735 1399 799 1375T911 1309T985 1215T1016 1103L907 1081Q891 1078 878 1085T859 1111Q851 1136 836 1163T796 1212T737 1248T656 1263Q606 1263 566 1248T498 1205T455 1140T439 1060Q439 994 472 934T581
800L990 395Q1029 461 1051 532T1082 675Q1085 715 1122 715H1229Q1228 603 1193 496T1093 294L1391 0H1221Q1192 0 1175 7T1136 35L991 176Q898 88 776 37T508 -15Q429 -15 353 11T216 86T120 207T83 369Q83 436 106 496T171 608T269 700T393 769Q332 844 304
914T275 1059Q275 1129 301 1191T377 1299T497 1372T656 1399ZM538 127Q649 127 737 166T893 272L474 681Q368 627 315 551T262 383Q262 321 286 274T349 194T437 144T538 127Z" />
<glyph unicode="&apos;" horiz-adv-x="452" d="M302 1383V1103L285 954Q282 923 269 906T225 888Q199 888 185 905T167 954L150 1103V1383H302Z" />
<glyph unicode="(" horiz-adv-x="621" d="M303 607Q303 400 355 206T508 -165Q524 -194 516 -210T493 -236L415 -284Q343 -173 293 -64T211 155T165 377T150 607Q150 724 164 836T210 1058T292 1277T415 1497L493 1450Q508 1440 516 1424T508 1378Q408 1202 356
1008T303 607Z" />
<glyph unicode=")" horiz-adv-x="621" d="M318 607Q318 813 266 1007T113 1378Q105 1393 104 1404T105 1424T114 1439T128 1450L206 1498Q278 1386 328 1277T410 1058T456 836T471 607Q471 490 457 378T411 156T329 -63T206 -284L128 -236Q120 -232 114 -226T105
-211T103 -191T113 -165Q213 11 265 205T318 607Z" />
<glyph unicode="*" horiz-adv-x="1020" d="M465 832V1021Q465 1039 467 1055T477 1087Q467 1073 455 1064T426 1045L261 949L218 1023L383 1119Q400 1129 416 1134T450 1142Q418 1145 383 1166L217 1264L260 1338L426 1241Q460 1221 481 1190Q465 1223 465 1264V1454H552V1265Q552
1245 550 1229T540 1196Q560 1221 593 1241L758 1337L800 1263L636 1167Q619 1157 604 1151T571 1142Q588 1140 603 1135T636 1119L801 1022L759 948L593 1045Q576 1055 563 1065T538 1090Q552 1057 552 1022V832H465Z" />
<glyph unicode="+" horiz-adv-x="1020" d="M580 1126V714H972V581H580V168H436V581H46V714H436V1126H580Z" />
<glyph unicode="," horiz-adv-x="511" d="M140 120Q140 142 148 162T172 197T208 221T256 230Q286 230 308 219T346 190T368 146T376 91Q376 48 364 1T328 -92T270 -181T192 -262L162 -234Q149 -222 149 -206Q149 -194 163 -180Q172 -170 187 -152T217 -111T246
-60T265 0H254Q203 0 172 34T140 120Z" />
<glyph unicode="-" horiz-adv-x="627" d="M75 653H553V504H75V653Z" />
<glyph unicode="." horiz-adv-x="517" d="M381 107Q381 82 371 60T344 21T304 -6T256 -16Q231 -16 209 -6T171 20T144 59T134 107Q134 133 144 155T170 195T209 222T256 232Q281 232 303 222T343 195T371 156T381 107Z" />
<glyph unicode="/" horiz-adv-x="791" d="M159 -20Q145 -54 118 -70T62 -87H-12L634 1358Q659 1422 726 1422H800L159 -20Z" />
<glyph unicode="0" horiz-adv-x="1038" d="M985 657Q985 485 949 359T850 150T702 27T518 -14Q420 -14 335 26T188 149T89 358T53 657Q53 829 89 955T187 1165T335 1288T518 1329Q616 1329 701 1289T850 1165T949 956T985 657ZM811 657Q811 807 787 908T723 1072T629
1161T518 1188Q460 1188 408 1161T315 1072T250 909T226 657Q226 507 250 406T314 242T407 154T518 127Q576 127 629 153T722 242T787 405T811 657Z" />
<glyph unicode="1" horiz-adv-x="1038" d="M255 128H528V1015Q528 1054 531 1096L308 900Q284 880 262 886T230 906L177 979L560 1318H696V128H946V0H255V128Z" />
<glyph unicode="2" horiz-adv-x="1038" d="M539 1329Q622 1329 693 1304T816 1232T897 1117T927 962Q927 889 906 827T848 707T763 596T662 486L325 135Q363 146 401 152T475 158H892Q919 158 935 143T951 101V0H92V57Q92 74 99 93T123 129L530 549Q582 602 623
651T694 749T739 850T755 958Q755 1015 738 1058T690 1129T619 1172T530 1186Q483 1186 443 1172T372 1132T319 1071T287 993Q279 959 260 949T205 943L118 957Q130 1048 166 1117T258 1234T384 1305T539 1329Z" />
<glyph unicode="3" horiz-adv-x="1038" d="M555 1329Q638 1329 707 1305T826 1237T903 1131T931 993Q931 930 916 881T871 795T801 733T709 691Q834 657 897 578T960 378Q960 287 926 215T834 91T697 13T531 -14Q429 -14 357 11T234 83T150 191T95 327L167 358Q196
370 222 365T261 335Q273 309 290 274T338 206T414 151T529 128Q595 128 644 150T726 208T775 287T792 373Q792 425 779 469T730 545T631 595T467 613V734Q549 735 606 752T699 800T751 872T767 964Q767 1020 751 1061T705 1131T635 1172T546 1186Q498 1186 459
1172T388 1132T336 1071T303 993Q295 959 276 949T221 943L133 957Q146 1048 182 1117T273 1234T400 1305T555 1329Z" />
<glyph unicode="4" horiz-adv-x="1038" d="M1070 475H1260V380Q1260 365 1251 355T1223 344H1070V0H923V344H358Q338 344 325 354T308 382L291 466L913 1315H1070V475ZM923 1011Q923 1059 929 1116L470 475H923V1011Z" />
<glyph unicode="5" horiz-adv-x="1038" d="M877 1241Q877 1206 855 1183T779 1160H382L325 820Q375 831 419 836T506 841Q606 841 683 811T812 727T890 602T917 444Q917 339 882 255T784 110T636 18T453 -14Q396 -14 344 -3T246 28T162 72T93 125L144 196Q162
220 189 220Q207 220 229 206T284 175T359 143T462 129Q528 129 581 151T671 213T728 309T748 436Q748 497 731 546T679 630T592 684T471 703Q374 703 265 667L161 699L265 1314H877V1241Z" />
<glyph unicode="6" horiz-adv-x="1038" d="M437 866Q422 845 408 826T380 787Q423 816 475 832T587 848Q663 848 732 821T853 742T936 612T967 436Q967 341 935 259T844 115T704 20T523 -15Q424 -15 345 18T209 113T123 262T92 458Q92 549 129 651T247 871L569
1341Q582 1359 606 1371T663 1383H819L437 866ZM262 427Q262 361 279 307T329 213T410 152T520 130Q581 130 631 152T716 214T771 306T791 423Q791 491 772 545T719 636T636 694T528 714Q467 714 418 691T334 628T281 536T262 427Z" />
<glyph unicode="7" horiz-adv-x="1038" d="M972 1314V1240Q972 1208 965 1188T951 1153L426 59Q414 35 392 18T335 0H213L747 1079Q771 1126 801 1160H139Q122 1160 110 1172T98 1200V1314H972Z" />
<glyph unicode="8" horiz-adv-x="1038" d="M519 -15Q422 -15 342 12T204 91T114 216T82 379Q82 513 145 599T331 721Q229 761 178 842T126 1035Q126 1111 154 1177T234 1293T358 1371T519 1399Q607 1399 679 1371T803 1294T883 1178T912 1035Q912 923 860 842T706
721Q829 685 892 599T956 379Q956 289 924 216T835 92T697 13T519 -15ZM519 124Q579 124 626 143T707 196T757 277T774 382Q774 453 754 503T699 585T618 632T519 647Q466 647 420 632T339 585T284 503T263 382Q263 325 280 278T330 196T410 143T519 124ZM519 787Q579
787 621 807T690 862T728 940T740 1032Q740 1080 726 1122T685 1195T616 1245T519 1264Q464 1264 423 1246T354 1196T312 1122T298 1032Q298 985 310 941T348 862T416 808T519 787Z" />
<glyph unicode="9" horiz-adv-x="1038" d="M660 523Q679 549 695 572T727 618Q679 580 619 560T490 539Q418 539 353 564T239 637T160 755T131 916Q131 1002 162 1077T250 1209T385 1297T558 1329Q651 1329 726 1298T856 1211T939 1076T968 903Q968 846 958 796T928
696T881 599T819 500L510 39Q498 22 476 11T424 0H270L660 523ZM807 923Q807 984 789 1033T737 1118T657 1171T556 1190Q498 1190 451 1171T370 1117T318 1034T299 928Q299 803 365 735T546 667Q609 667 657 688T739 744T789 826T807 923Z" />
<glyph unicode=":" horiz-adv-x="548" d="M396 107Q396 82 386 60T359 21T319 -6T271 -16Q246 -16 224 -6T186 20T159 59T149 107Q149 133 159 155T185 195T224 222T271 232Q296 232 318 222T358 195T386 156T396 107ZM390 785Q390 760 380 738T353 699T313 672T265
662Q240 662 218 672T180 698T153 737T143 785Q143 811 153 833T179 873T218 900T265 910Q290 910 312 900T352 873T380 834T390 785Z" />
<glyph unicode=";" horiz-adv-x="548" d="M155 120Q155 142 163 162T187 197T223 221T271 230Q301 230 323 219T361 190T383 146T391 91Q391 48 379 1T343 -92T285 -181T207 -262L177 -234Q164 -222 164 -206Q164 -194 178 -180Q187 -170 202 -152T232 -111T261
-60T280 0H269Q218 0 187 34T155 120ZM396 785Q396 760 386 738T359 699T319 672T271 662Q246 662 224 672T186 698T159 737T149 785Q149 811 159 833T185 873T224 900T271 910Q296 910 318 900T358 873T386 834T396 785Z" />
<glyph unicode="&lt;" horiz-adv-x="1020" d="M93 685L840 1073V948Q840 932 833 920T805 897L377 680Q339 661 289 649Q338 639 377 619L806 401Q825 391 832 379T840 350V225L93 613V685Z" />
<glyph unicode="=" horiz-adv-x="1020" d="M94 554H925V422H94V554ZM94 879H925V746H94V879Z" />
<glyph unicode="&gt;" horiz-adv-x="1020" d="M927 613L181 225V350Q181 383 215 401L644 619Q681 638 731 649Q681 661 643 680L216 898Q197 908 189 920T181 948V1073L927 685V613Z" />
<glyph unicode="?" horiz-adv-x="949" d="M123 1260Q153 1288 189 1313T269 1357T362 1387T470 1399Q547 1399 612 1377T725 1314T800 1215T827 1085Q827 1011 805 958T750 865T678 796T604 740T545 689T516 631L498 483H378L365 643Q361 686 382 719T436 780T508
836T582 897T640 973T663 1075Q663 1117 647 1150T603 1206T536 1242T455 1255Q396 1255 355 1241T284 1210T237 1178T207 1164Q183 1164 169 1186L123 1260ZM295 107Q295 132 304 154T330 194T369 220T418 230Q443 230 465 221T504 194T530 155T540 107Q540 81
531 59T505 21T466 -5T418 -14Q392 -14 370 -5T331 20T305 59T295 107Z" />
<glyph unicode="@" horiz-adv-x="1831" d="M1248 179Q1174 179 1127 215T1065 326Q1009 249 944 216T803 182Q746 182 703 202T632 257T589 340T575 445Q575 500 589 556T630 664T699 761T795 840T918 893T1067 913Q1132 913 1181 903T1274 873L1184 525Q1165
452 1165 407T1180 335T1219 300T1274 290Q1320 290 1362 317T1436 393T1487 511T1506 664Q1506 797 1464 897T1347 1063T1171 1163T951 1197Q822 1197 710 1148T513 1012T381 807T333 549Q333 385 384 261T525 54T734 -72T992 -115Q1139 -115 1251 -84T1445 -3Q1465
9 1479 4T1501 -18L1526 -83Q1423 -151 1291 -191T992 -231Q824 -231 680 -178T431 -25T265 221T204 549Q204 654 230 751T305 934T421 1088T572 1208T751 1285T951 1313Q1085 1313 1208 1270T1425 1143T1576 939T1633 664Q1633 560 1604 471T1522 317T1400 216T1248
179ZM838 297Q867 297 897 306T955 340T1007 405T1047 508L1120 792Q1084 801 1039 801Q968 801 908 771T805 692T737 579T712 449Q712 380 743 339T838 297Z" />
<glyph unicode="A" horiz-adv-x="1185" d="M1178 0H1037Q1013 0 999 12T976 42L864 358H322L211 43Q205 26 189 13T149 0H8L501 1314H686L1178 0ZM368 488H818L632 1017Q622 1041 612 1073T593 1142Q583 1104 573 1072T554 1016L368 488Z" />
<glyph unicode="B" horiz-adv-x="1114" d="M144 0V1314H545Q661 1314 744 1291T881 1223T960 1115T985 971Q985 923 971 878T927 795T854 726T750 676Q887 649 956 574T1026 375Q1026 291 997 222T912 104T775 27T588 0H144ZM326 598V144H585Q654 144 703 161T784
210T830 284T845 379Q845 480 782 539T585 598H326ZM326 726H538Q605 726 655 742T738 788T787 858T804 949Q804 1064 742 1117T545 1171H326V726Z" />
<glyph unicode="C" horiz-adv-x="1092" d="M954 274Q968 274 980 262L1052 184Q981 90 877 38T628 -14Q500 -14 397 35T220 172T107 384T67 657Q67 806 109 929T227 1142T409 1280T643 1329Q770 1329 866 1284T1035 1162L975 1078Q969 1069 960 1063T937 1057Q920
1057 900 1075T846 1114T764 1154T642 1172Q556 1172 485 1137T362 1036T282 874T253 657Q253 535 283 439T365 277T487 176T639 141Q689 141 728 148T801 169T864 206T923 260Q939 274 954 274Z" />
<glyph unicode="D" horiz-adv-x="1260" d="M1192 657Q1192 509 1149 388T1027 181T838 47T593 0H139V1314H593Q727 1314 837 1267T1026 1133T1148 926T1192 657ZM1005 657Q1005 777 976 871T893 1032T763 1132T593 1167H322V147H593Q687 147 763 181T893 281T976
442T1005 657Z" />
<glyph unicode="E" horiz-adv-x="1000" d="M913 1314V1166H328V735H799V592H328V148H914L913 0H145V1314H913Z" />
<glyph unicode="F" horiz-adv-x="941" d="M882 1314V1166H321V711H798V563H321V0H138V1314H882Z" />
<glyph unicode="G" horiz-adv-x="1292" d="M1185 127Q1089 56 981 21T745 -14Q592 -14 469 35T258 172T124 384T77 657Q77 807 122 930T252 1142T457 1280T726 1329Q802 1329 866 1318T986 1285T1087 1232T1174 1163L1123 1081Q1111 1061 1091 1056T1048 1065Q1025
1078 998 1096T932 1131T842 1160T719 1172Q615 1172 531 1136T387 1033T295 871T263 657Q263 534 296 437T392 272T543 169T740 133Q824 133 890 152T1020 207V495H831Q813 495 802 505T791 530V633H1185V127V127Z" />
<glyph unicode="H" horiz-adv-x="1276" d="M1136 0H953V596H323V0H140V1314H323V729H953V1314H1136V0Z" />
<glyph unicode="I" horiz-adv-x="516" d="M349 0H167V1314H349V0Z" />
<glyph unicode="J" horiz-adv-x="653" d="M538 455Q538 345 516 258T450 111T341 18T191 -14Q152 -14 114 -9T34 10Q36 38 38 65T44 118Q46 133 55 143T84 153Q97 153 117 146T172 138Q262 138 309 212T356 451V1314H538V455Z" />
<glyph unicode="K" horiz-adv-x="1064" d="M306 740H358Q387 740 406 749T439 778L778 1272Q796 1295 815 1304T864 1314H1020L620 750Q588 707 553 689Q599 673 636 624L1049 0H889Q856 0 841 10T811 38L463 558Q447 581 429 590T373 600H306V0H124V1314H306V740Z" />
<glyph unicode="L" horiz-adv-x="861" d="M320 153H827V0H138V1314H320V153Z" />
<glyph unicode="M" horiz-adv-x="1751" d="M835 479Q848 456 858 432T879 383Q889 409 899 433T922 479L1386 1284Q1398 1305 1412 1309T1450 1314H1584V0H1423V959Q1423 979 1424 1003T1428 1053L959 229Q936 188 893 188H867Q824 188 801 229L321 1052Q327 1002
327 959V0H167V1314H301Q325 1314 338 1310T365 1283L835 479V479Z" />
<glyph unicode="N" horiz-adv-x="1322" d="M243 1314Q266 1314 278 1309T305 1283L1019 300Q1017 324 1016 347T1014 391V1314H1174V0H1082Q1061 0 1047 7T1018 32L304 1012Q306 989 307 968T308 928V0H148V1314H243V1314Z" />
<glyph unicode="O" horiz-adv-x="1356" d="M1284 657Q1284 509 1241 386T1118 174T927 36T679 -14Q544 -14 432 35T240 174T116 386T72 657Q72 804 116 927T240 1140T432 1279T679 1329Q815 1329 926 1280T1117 1141T1240 928T1284 657ZM1098 657Q1098 777 1069
872T985 1034T853 1136T679 1172Q583 1172 506 1137T373 1035T289 873T259 657Q259 537 288 442T373 280T505 178T679 143Q775 143 852 178T984 279T1068 441T1098 657Z" />
<glyph unicode="P" horiz-adv-x="1058" d="M329 490V0H147V1314H524Q644 1314 732 1285T879 1203T965 1075T994 906Q994 814 964 738T874 607T727 521T524 490H329ZM329 634H524Q594 634 648 654T738 710T793 796T812 906Q812 1032 741 1101T524 1171H329V634Z" />
<glyph unicode="Q" horiz-adv-x="1378" d="M1295 657Q1295 483 1236 346T1071 118L1411 -271H1260Q1227 -271 1201 -261T1153 -228L929 32Q820 -14 690 -14Q555 -14 443 35T251 174T127 386T83 657Q83 804 127 927T251 1140T443 1279T690 1329Q826 1329 937 1280T1128
1141T1251 928T1295 657ZM1109 657Q1109 777 1080 872T996 1034T864 1136T690 1172Q594 1172 517 1137T384 1035T300 873T270 657Q270 537 299 442T384 280T516 178T690 143Q786 143 863 178T995 279T1079 441T1109 657Z" />
<glyph unicode="R" horiz-adv-x="1112" d="M329 546V0H147V1314H507Q627 1314 714 1289T858 1216T942 1101T969 949Q969 880 949 820T890 712T795 630T668 577Q685 566 700 553T729 520L1082 0H920Q873 0 847 37L536 505Q521 527 504 536T451 546H329ZM329 679H500Q572
679 626 697T718 750T773 831T792 936Q792 1171 507 1171H329V679Z" />
<glyph unicode="S" horiz-adv-x="941" d="M797 1107Q782 1079 756 1079Q741 1079 721 1094T671 1128T600 1162T500 1178Q445 1178 404 1163T335 1120T293 1056T279 977Q279 922 304 886T371 825T466 780T574 741T682 696T776 632T843 537T869 400Q869 313 841
238T760 106T628 18T450 -14Q329 -14 228 32T55 158L108 244Q115 255 125 261T150 268Q169 268 192 248T251 203T335 158T454 137Q512 137 557 154T633 202T681 276T698 373Q698 432 673 470T606 533T511 576T403 613T295 656T201 721T134 820T108 967Q108 1036
134 1101T209 1217T331 1298T498 1329Q603 1329 690 1294T842 1192L797 1107Z" />
<glyph unicode="T" horiz-adv-x="998" d="M974 1314V1162H591V0H408V1162H24V1314H974Z" />
<glyph unicode="U" horiz-adv-x="1314" d="M657 144Q736 144 798 171T904 248T969 366T992 516V1314H1174V516Q1174 402 1138 305T1036 137T873 26T657 -15Q537 -15 442 25T279 137T176 305T140 516V1314H322V517Q322 435 344 367T410 249T515 172T657 144Z" />
<glyph unicode="V" horiz-adv-x="1162" d="M6 1314H153Q177 1314 192 1302T214 1272L539 351Q551 320 562 284T583 207Q591 247 601 283T624 351L948 1271Q954 1288 970 1301T1009 1314H1156L663 0H499L6 1314Z" />
<glyph unicode="W" horiz-adv-x="1822" d="M12 1314H165Q188 1314 204 1303T226 1272L481 365Q495 317 507 253Q513 284 520 312T535 366L828 1271Q833 1288 850 1301T890 1314H943Q967 1314 982 1303T1004 1272L1297 365Q1305 341 1312 314T1325 256Q1331 286
1337 314T1350 365L1604 1271Q1609 1288 1626 1301T1667 1314H1810L1411 0H1246L930 996Q925 1010 921 1026T911 1062Q907 1043 903 1027T893 996L575 0H411L12 1314Z" />
<glyph unicode="X" horiz-adv-x="1063" d="M407 674L27 1314H208Q228 1314 237 1307T254 1289L543 777Q550 794 559 807L825 1286Q833 1299 842 1306T866 1314H1040L658 684L1052 0H871Q851 0 840 11T821 34L524 570Q519 555 512 545L228 34Q220 21 209 11T181
0H11L407 674Z" />
<glyph unicode="Y" horiz-adv-x="998" d="M590 525V0H408V523L0 1314H160Q183 1314 197 1303T222 1272L447 765Q464 734 477 707T500 652Q510 679 522 706T552 764L775 1272Q783 1287 798 1300T836 1314H998L590 525Z" />
<glyph unicode="Z" horiz-adv-x="959" d="M910 1314V1247Q910 1215 891 1187L276 148H897V0H56V71Q56 86 61 99T74 124L688 1166H90V1314H910Z" />
<glyph unicode="[" horiz-adv-x="628" d="M160 -279V1480H518V1412Q518 1392 505 1379T470 1365H307V-164H470Q492 -164 505 -177T518 -211V-279H160Z" />
<glyph unicode="\" horiz-adv-x="791" d="M-17 1422H58Q90 1422 114 1406T151 1358L789 -87H717Q688 -87 661 -71T619 -20L-17 1422Z" />
<glyph unicode="]" horiz-adv-x="628" d="M110 1480H468V-279H110V-211Q110 -191 123 -178T159 -164H321V1365H159Q137 1365 124 1378T110 1412V1480Z" />
<glyph unicode="^" horiz-adv-x="1020" d="M944 671H816Q799 671 787 680T768 703L549 1130Q523 1178 509 1224Q501 1201 492 1179T471 1131L261 704Q254 690 242 681T210 671H76L451 1383H564L944 671Z" />
<glyph unicode="_" horiz-adv-x="1020" d="M1020 -158V-275H0V-158H1020Z" />
<glyph unicode="`" horiz-adv-x="596" d="M302 1399Q334 1399 350 1389T379 1356L522 1123H422Q402 1123 389 1129T362 1150L136 1399H302Z" />
<glyph unicode="a" horiz-adv-x="981" d="M777 0Q751 0 737 8T718 41L696 132Q658 97 622 70T545 23T459 -5T358 -15Q301 -15 252 0T165 48T106 129T84 244Q84 302 115 355T218 451T403 519T683 550V625Q683 739 635 796T493 854Q431 854 389 838T315 803T262
768T216 752Q198 752 185 761T164 784L132 840Q213 918 306 956T514 995Q596 995 660 969T767 893T832 776T855 625V0H777ZM411 108Q455 108 492 117T562 142T624 183T683 238V440Q566 435 484 421T351 382T276 326T253 253Q253 215 265 188T299 143T349 117T411
108Z" />
<glyph unicode="b" horiz-adv-x="1076" d="M144 0V1422H320V839Q380 910 457 951T634 993Q719 993 787 960T903 865T976 715T1002 514Q1002 395 973 298T890 132T759 24T586 -14Q490 -14 426 22T311 124L301 37Q297 0 258 0H144ZM575 854Q494 854 433 816T320
708V236Q366 173 421 148T542 122Q677 122 749 219T821 508Q821 686 757 770T575 854Z" />
<glyph unicode="c" horiz-adv-x="866" d="M769 802Q761 791 754 786T732 780Q717 780 701 792T661 818T603 845T518 857Q452 857 402 832T318 759T267 643T249 490Q249 402 267 334T320 218T402 147T510 122Q568 122 605 137T667 170T708 203T743 218Q763 218
775 201L826 137Q794 98 755 70T671 23T578 -5T479 -14Q393 -14 318 20T188 118T101 276T69 490Q69 599 98 691T182 851T319 955T507 993Q607 993 682 960T815 866L769 802Z" />
<glyph unicode="d" horiz-adv-x="1076" d="M827 0Q808 0 796 8T782 36L764 153Q702 78 623 32T440 -14Q357 -14 290 18T174 114T100 270T74 486Q74 594 102 687T185 849T316 956T492 995Q581 995 644 966T756 881V1422H932V0H827ZM497 127Q580 127 641 165T756
273V746Q709 809 654 834T532 860Q399 860 327 763T255 486Q255 391 271 323T319 212T395 148T497 127Z" />
<glyph unicode="e" horiz-adv-x="1019" d="M535 993Q623 993 698 964T828 879T914 742T945 556Q945 515 936 502T903 488H249Q251 396 274 328T337 214T434 147T559 124Q623 124 670 138T750 171T807 203T847 218Q858 218 866 214T880 201L930 137Q897 98 853
70T757 23T652 -5T544 -14Q442 -14 356 20T208 120T110 284T75 509Q75 611 106 699T197 853T342 956T535 993ZM538 865Q415 865 344 793T254 596H787Q787 655 770 704T721 789T643 845T538 865Z" />
<glyph unicode="f" horiz-adv-x="625" d="M170 0V831L71 844Q50 846 37 857T24 888V960H170V1053Q170 1137 192 1202T257 1312T359 1380T494 1404Q525 1404 554 1399T611 1385L606 1297Q604 1274 582 1272T523 1269Q481 1269 448 1258T390 1221T353 1153T340 1048V960H603V832H346V0H170Z"
/>
<glyph unicode="g" horiz-adv-x="964" d="M462 994Q523 994 576 980T672 940H928V875Q928 840 888 834L784 819Q815 755 815 679Q815 607 789 549T715 450T604 387T462 364Q398 364 344 379Q315 360 301 339T287 296Q287 261 314 244T385 219T485 209T599 203T714
188T814 154T885 87T912 -24Q912 -87 882 -146T796 -251T658 -324T473 -352Q370 -352 293 -331T165 -274T89 -191T64 -93Q64 -21 106 29T224 108Q183 127 159 160T135 248Q135 290 165 337T255 415Q186 456 147 523T107 679Q107 751 133 809T207 908T319 972T462
994ZM750 -53Q750 -18 732 4T681 38T607 56T518 65T423 70T329 79Q280 53 249 17T218 -71Q218 -104 233 -132T279 -180T360 -213T476 -225Q542 -225 593 -212T679 -177T732 -123T750 -53ZM462 480Q559 480 608 534T658 675Q658 764 609 816T462 869Q367 869 318
817T268 675Q268 632 280 597T317 535T378 495T462 480Z" />
<glyph unicode="h" horiz-adv-x="1076" d="M143 0V1422H319V849Q380 915 454 954T627 993Q707 993 767 967T869 892T930 775T951 623V0H775V623Q775 732 726 793T576 854Q501 854 437 818T319 719V0H143Z" />
<glyph unicode="i" horiz-adv-x="470" d="M323 978V0H147V978H323ZM357 1540Q357 1515 347 1493T320 1454T280 1427T232 1417Q207 1417 185 1427T147 1453T120 1492T110 1540Q110 1566 120 1588T146 1628T185 1655T232 1665Q257 1665 279 1655T319 1628T347 1589T357
1540Z" />
<glyph unicode="j" horiz-adv-x="490" d="M340 978V-71Q340 -130 324 -181T274 -269T186 -329T57 -351Q25 -351 -1 -347T-55 -332L-45 -238Q-44 -229 -41 -225T-30 -219T-10 -218T22 -219Q98 -219 131 -184T164 -71V978H340ZM376 1540Q376 1515 366 1493T339 1454T299
1427T251 1417Q226 1417 204 1427T166 1453T139 1492T129 1540Q129 1566 139 1588T165 1628T204 1655T251 1665Q276 1665 298 1655T338 1628T366 1589T376 1540Z" />
<glyph unicode="k" horiz-adv-x="931" d="M304 1422V586H344Q363 586 374 591T399 613L659 944Q673 960 688 969T726 978H886L579 593Q565 578 551 566T521 543Q538 532 551 517T579 484L906 0H748Q727 0 711 7T682 33L415 434Q401 454 389 460T349 467H304V0H128V1422H304Z"
/>
<glyph unicode="l" horiz-adv-x="470" d="M323 1422V0H147V1422H323Z" />
<glyph unicode="m" horiz-adv-x="1636" d="M147 0V978H251Q271 978 282 970T296 942L311 842Q339 875 369 902T435 950T510 982T595 993Q696 993 759 938T850 790Q871 844 905 882T982 945T1072 981T1170 993Q1330 993 1417 897T1505 623V0H1329V623Q1329 737
1277 795T1128 854Q1084 854 1045 840T977 796T930 723T912 623V0H736V623Q736 740 688 797T545 854Q481 854 425 821T323 728V0H147Z" />
<glyph unicode="n" horiz-adv-x="1076" d="M140 0V978H245Q264 978 276 970T290 942L305 838Q368 908 446 950T626 993Q706 993 766 967T868 892T930 775T951 623V0H775V623Q775 732 726 793T575 854Q500 854 435 819T316 720V0H140Z" />
<glyph unicode="o" horiz-adv-x="1080" d="M541 993Q648 993 734 958T880 857T972 698T1005 490Q1005 374 973 281T880 123T734 22T541 -14Q434 -14 348 21T201 122T108 281T75 490Q75 605 107 698T200 856T347 957T541 993ZM541 123Q612 123 665 147T753 219T806
334T824 489Q824 576 807 644T754 759T665 831T541 856Q469 856 416 831T327 759T274 644T256 489Q256 402 273 334T326 219T415 148T541 123Z" />
<glyph unicode="p" horiz-adv-x="1076" d="M141 -330V978H246Q265 978 277 970T291 942L308 828Q370 903 450 949T634 995Q718 995 786 963T902 867T976 711T1002 496Q1002 388 973 295T890 133T757 25T581 -14Q492 -14 429 16T317 100V-330H141ZM576 854Q494
854 432 816T317 708V236Q363 173 418 148T542 122Q676 122 748 219T821 496Q821 591 805 659T757 770T680 834T576 854Z" />
<glyph unicode="q" horiz-adv-x="1076" d="M935 978V-330H759V143Q698 71 620 29T442 -14Q358 -14 290 18T174 114T100 270T74 486Q74 594 103 687T186 849T318 956T494 995Q589 995 654 962T771 867L784 942Q791 978 830 978H935ZM499 127Q582 127 644 165T759
273V746Q714 807 658 833T534 860Q400 860 328 763T255 486Q255 391 271 323T319 212T396 148T499 127Z" />
<glyph unicode="r" horiz-adv-x="714" d="M131 0V978H232Q260 978 271 967T285 930L297 786Q342 883 408 939T567 995Q598 995 625 989T674 967L660 837Q657 812 632 812Q618 812 593 817T536 823Q491 823 457 810T395 770T346 705T307 618V0H131Z" />
<glyph unicode="s" horiz-adv-x="801" d="M679 816Q667 794 643 794Q628 794 611 805T569 828T511 852T431 863Q392 863 361 852T308 822T274 778T262 723Q262 685 282 660T335 617T410 585T497 555T583 520T659 471T712 401T732 300Q732 232 709 175T642 75T532
9T381 -15Q284 -15 205 18T70 104L111 170Q119 183 130 190T158 197Q176 197 194 184T237 154T299 124T389 110Q435 110 468 123T524 157T557 208T568 269Q568 309 548 335T494 380T419 413T332 442T245 477T169 527T116 602T95 709Q95 766 117 817T181 908T285
970T427 993Q518 993 592 963T718 879L679 816Z" />
<glyph unicode="t" horiz-adv-x="686" d="M417 -15Q304 -15 243 50T182 236V832H70Q55 832 45 842T34 871V941L188 961L229 1262Q231 1277 241 1286T268 1295H358V960H627V832H358V248Q358 188 385 158T457 128Q483 128 501 135T533 151T555 167T573 174Q582 174
587 170T598 157L650 73Q605 31 544 8T417 -15Z" />
<glyph unicode="u" horiz-adv-x="1076" d="M301 978V355Q301 245 350 185T501 124Q576 124 640 159T760 257V978H936V0H830Q812 0 800 8T786 36L770 140Q707 70 630 28T450 -15Q370 -15 310 11T208 86T146 203T125 355V978H301Z" />
<glyph unicode="v" horiz-adv-x="925" d="M542 0H383L19 978H164Q184 978 198 967T217 942L426 316Q439 281 448 248T465 181Q472 214 481 247T505 316L717 942Q723 957 736 967T767 978H906L542 0Z" />
<glyph unicode="w" horiz-adv-x="1464" d="M21 978H160Q180 978 194 967T212 941L387 317Q397 283 404 251T416 186Q424 218 434 250T455 318L649 946Q654 961 667 970T698 980H774Q794 980 806 971T824 946L1014 318Q1025 284 1034 251T1051 186Q1062 251 1082
318L1261 942Q1266 958 1279 968T1311 978H1443L1136 0H996Q971 0 961 33L756 692Q748 715 743 737T732 783Q727 760 722 737T709 691L501 33Q490 0 462 0H329L21 978Z" />
<glyph unicode="x" horiz-adv-x="887" d="M327 502L36 978H204Q224 978 233 971T251 952L455 597Q459 608 463 618T476 640L647 948Q656 962 666 970T690 978H851L559 511L864 0H695Q675 0 663 11T642 36L435 406Q427 383 417 367L230 36Q222 22 211 11T180 0H23L327
502Z" />
<glyph unicode="y" horiz-adv-x="927" d="M409 -288Q401 -308 388 -319T348 -330H217L385 58L11 978H163Q186 978 198 967T216 942L444 330Q452 309 459 288T472 246Q478 268 485 289T501 332L722 942Q728 957 742 967T773 978H913L409 -288Z" />
<glyph unicode="z" horiz-adv-x="809" d="M749 904Q749 885 743 868T726 836L263 137H734V0H60V73Q60 86 66 103T84 136L548 841H87V978H749V904Z" />
<glyph unicode="{" horiz-adv-x="644" d="M205 409Q205 471 172 509T74 548V653Q138 653 171 691T205 791Q205 840 198 887T181 982T164 1077T156 1175Q156 1242 176 1298T236 1394T336 1457T476 1480H528V1402Q528 1382 514 1374T489 1365H470Q395 1365 353 1317T310
1185Q310 1131 317 1081T332 983T347 889T354 794Q354 758 343 727T313 670T267 627T209 600Q240 591 267 574T313 531T343 474T354 407Q354 359 347 312T332 217T317 119T310 15Q310 -67 352 -115T470 -164H489Q500 -164 514 -172T528 -201V-279H476Q396 -279
337 -257T237 -194T176 -97T156 26Q156 76 163 124T180 219T197 313T205 409Z" />
<glyph unicode="|" horiz-adv-x="943" d="M403 1480H540V-337H403V1480Z" />
<glyph unicode="}" horiz-adv-x="644" d="M440 409Q440 361 447 314T464 219T480 124T488 26Q488 -41 468 -97T408 -193T308 -256T168 -279H116V-201Q116 -181 130 -173T155 -164H174Q249 -164 291 -116T334 15Q334 69 327 119T312 217T297 312T290 407Q290 443
301 474T331 530T377 573T436 600Q404 609 378 626T332 669T301 726T290 794Q290 842 297 888T312 983T327 1081T334 1185Q334 1268 292 1316T174 1365H155Q144 1365 130 1373T116 1402V1480H168Q248 1480 308 1458T408 1395T468 1298T488 1175Q488 1125 481 1077T464
982T448 888T440 791Q440 730 473 692T570 653V548Q506 548 473 510T440 409Z" />
<glyph unicode="~" horiz-adv-x="1020" d="M683 593Q746 593 780 633T816 742H958Q958 677 940 623T889 529T806 469T694 447Q643 447 594 463T500 497T413 532T337 548Q274 548 240 508T204 399H62Q62 464 80 518T131 611T214 671T326 693Q377 693 426 678T520
643T607 609T683 593Z" />
<glyph unicode="&#xa0;" horiz-adv-x="463" />
<glyph unicode="&#xa1;" horiz-adv-x="667" d="M252 -330V191Q252 234 254 275T259 359T267 445T277 539H396Q402 489 406 445T414 359T418 276T420 191V-330H252ZM211 872Q211 898 220 920T246 958T285 984T334 993Q359 993 381 984T420 959T446 920T456 872Q456
846 447 824T421 785T382 759T334 749Q308 749 286 758T247 785T221 824T211 872Z" />
<glyph unicode="&#xa2;" horiz-adv-x="1020" d="M488 -10Q408 0 341 38T224 141T146 292T118 489Q118 595 147 685T231 842T369 948T556 991L568 1163Q570 1182 583 1196T616 1210H682L667 985Q738 973 795 943T900 866L855 804Q847 794 840 789T818 784Q807 784
794 792T761 810T717 832T658 851L608 121Q661 125 696 140T756 172T798 201T830 214Q841 214 850 210T864 198L912 137Q856 68 775 32T599 -12L588 -179Q586 -198 573 -212T539 -227H474L488 -10ZM292 489Q292 337 346 246T498 129L547 856Q484 850 436 822T356
747T308 635T292 489Z" />
<glyph unicode="&#xa3;" horiz-adv-x="1038" d="M70 513Q70 538 86 556T131 574H217V687Q217 769 238 842T304 971T420 1060T593 1093Q717 1093 799 1032T924 865L873 825Q864 818 854 813T830 807Q817 807 806 817T784 844T758 878T724 912T674 938T605 949Q491
949 438 880T385 688V574H778V508Q778 490 764 476T727 461H385V341Q385 207 296 126Q326 133 356 137T419 141H963V0H78V110Q139 124 178 169T217 296V461H70V513Z" />
<glyph unicode="&#xa4;" horiz-adv-x="1020" d="M165 649Q165 703 180 752T224 843L77 990L166 1079L312 933Q354 962 404 978T510 995Q564 995 613 979T705 935L852 1082L940 993L794 846Q823 804 839 754T856 649Q856 594 841 545T796 454L943 308L854 219L708
365Q666 336 616 320T510 304Q456 304 407 319T316 362L169 215L80 305L227 451Q198 493 182 543T165 649ZM296 649Q296 605 313 566T359 498T427 451T510 434Q555 434 594 451T663 497T710 566T727 649Q727 694 710 733T664 802T595 848T510 865Q466 865 427 848T359
802T313 734T296 649Z" />
<glyph unicode="&#xa5;" horiz-adv-x="1038" d="M144 506H403L51 1074H186Q213 1074 233 1057T264 1021L474 656Q494 621 506 594T526 541Q532 568 543 595T575 656L782 1020Q794 1040 818 1057T875 1074H996L645 506H904V408H604V315H904V218H604V0H445V218H144V315H445V408H144V506Z"
/>
<glyph unicode="&#xa6;" horiz-adv-x="1020" d="M441 1480H579V713H441V1480ZM441 437H579V-330H441V437Z" />
<glyph unicode="&#xa7;" horiz-adv-x="1020" d="M829 1220Q817 1198 792 1198Q777 1198 758 1209T711 1232T645 1256T552 1267Q502 1267 463 1256T397 1224T356 1178T342 1121Q342 1085 366 1058T431 1007T523 964T628 921T733 872T825 812T890 733T915 630Q915
551 876 489T752 391Q802 356 833 309T864 195Q864 127 839 70T764 -30T643 -97T478 -121Q371 -121 285 -88T137 -1L178 65Q193 91 225 91Q243 91 263 78T312 48T385 19T493 5Q597 5 653 49T710 166Q710 209 685 240T618 296T523 341T414 383T305 429T211 488T144
566T118 673Q118 749 161 809T299 904Q249 940 218 990T186 1113Q186 1170 210 1221T280 1312T394 1374T549 1397Q649 1397 729 1367T868 1283L829 1220ZM274 700Q274 667 290 642T335 595T400 555T480 520T567 485T655 447Q712 472 736 508T760 590Q760 642 727
677T641 741T524 793T399 846Q331 817 303 782T274 700Z" />
<glyph unicode="&#xa8;" horiz-adv-x="804" d="M327 1244Q327 1221 318 1201T294 1166T258 1143T215 1134Q192 1134 172 1142T137 1166T114 1201T105 1244Q105 1267 113 1287T137 1322T172 1346T215 1355Q237 1355 257 1346T293 1322T318 1287T327 1244ZM697 1244Q697
1221 688 1201T664 1166T628 1143T585 1134Q562 1134 542 1142T507 1166T484 1201T475 1244Q475 1267 483 1287T507 1322T542 1346T585 1355Q607 1355 627 1346T663 1322T688 1287T697 1244Z" />
<glyph unicode="&#xa9;" horiz-adv-x="1709" d="M1100 458Q1107 461 1113 457T1125 448L1185 385Q1130 322 1050 287T858 251Q763 251 686 284T553 376T467 516T436 694Q436 791 469 872T561 1012T700 1103T876 1136Q928 1136 972 1128T1054 1103T1123 1065T1183
1016L1137 953Q1132 946 1125 941T1105 935Q1091 935 1077 946T1038 969T978 993T885 1004Q817 1004 763 983T672 921T614 823T593 694Q593 620 613 562T670 465T757 405T867 384Q917 384 950 392T1009 411T1055 435T1100 458ZM149 692Q149 789 174 879T245 1047T355
1190T498 1301T667 1372T854 1398Q951 1398 1041 1373T1210 1301T1353 1191T1464 1048T1535 879T1560 692Q1560 595 1535 505T1464 337T1354 194T1211 83T1042 12T854 -14Q757 -14 667 11T499 83T356 193T245 336T174 505T149 692ZM248 692Q248 563 295 450T424
254T616 123T854 75Q981 75 1092 123T1286 254T1416 450T1464 692Q1464 778 1443 857T1382 1006T1287 1131T1163 1228T1017 1290T854 1312Q769 1312 692 1290T547 1228T424 1132T330 1006T270 858T248 692Z" />
<glyph unicode="&#xaa;" horiz-adv-x="824" d="M599 811Q581 811 572 816T555 839L543 886Q520 865 498 850T452 824T401 808T341 802Q305 802 274 812T219 841T182 890T169 958Q169 991 187 1023T247 1081T360 1124T533 1143V1178Q533 1239 506 1267T424 1296Q388
1296 364 1288T321 1270T289 1252T259 1243Q246 1243 237 1250T222 1267L199 1307Q250 1355 309 1377T439 1400Q491 1400 531 1384T600 1338T643 1268T658 1178V811H599ZM380 892Q428 892 463 910T533 961V1062Q466 1060 420 1052T346 1032T305 1002T292 965Q292
925 317 909T380 892Z" />
<glyph unicode="&#xab;" horiz-adv-x="1049" d="M210 500V523L451 898L508 871Q531 860 535 841T526 798L374 546Q362 524 347 511Q361 498 374 477L525 225Q539 202 535 183T508 152L451 125L210 500ZM535 500V523L776 898L833 871Q856 860 860 841T851 798L699
546Q687 524 672 511Q686 498 699 477L850 225Q864 202 860 183T833 152L776 125L535 500Z" />
<glyph unicode="&#xac;" horiz-adv-x="1020" d="M93 714H925V304H775V581H93V714Z" />
<glyph unicode="&#xae;" horiz-adv-x="1038" d="M59 1102Q59 1167 83 1223T151 1322T251 1388T375 1413Q441 1413 498 1389T598 1322T665 1224T690 1102Q690 1037 666 981T599 882T499 815T375 790Q309 790 252 814T151 881T84 980T59 1102ZM120 1102Q120 1048
139 1001T193 919T275 863T376 843Q431 843 477 863T558 918T612 1001T632 1102Q632 1156 613 1204T559 1287T478 1342T376 1363Q322 1363 275 1343T194 1287T140 1204T120 1102ZM324 1065V925H250V1297H369Q450 1297 483 1268T517 1190Q517 1152 497 1124T438
1082Q445 1077 451 1072T462 1059L541 925H472Q461 925 456 929T445 941L381 1051Q376 1060 370 1062T353 1065H324ZM324 1122H368Q411 1122 429 1140T448 1185Q448 1211 429 1226T369 1242H324V1122Z" />
<glyph unicode="&#xaf;" horiz-adv-x="807" d="M126 1301H681V1187H126V1301Z" />
<glyph unicode="&#xb0;" horiz-adv-x="694" d="M31 1088Q31 1153 55 1210T122 1309T222 1375T346 1400Q412 1400 470 1376T570 1309T637 1210T662 1088Q662 1024 638 968T571 869T470 802T346 777Q280 777 223 801T123 868T56 967T31 1088ZM156 1087Q156 1047
170 1012T210 952T270 911T346 896Q386 896 421 911T481 951T521 1012T536 1087Q536 1127 522 1162T482 1224T421 1266T346 1281Q305 1281 271 1266T211 1225T171 1163T156 1087Z" />
<glyph unicode="&#xb1;" horiz-adv-x="1020" d="M580 1162V799H972V667H580V313H436V667H46V799H436V1162H580ZM46 210H972V77H46V210Z" />
<glyph unicode="&#xb2;" horiz-adv-x="688" d="M355 1580Q406 1580 447 1566T517 1525T562 1461T578 1379Q578 1340 566 1307T534 1244T487 1186T432 1128L278 971Q301 977 324 981T367 985H551Q571 985 582 974T594 944V868H100V910Q100 923 105 937T121 962L334
1173Q382 1221 415 1272T448 1375Q448 1424 420 1450T349 1476Q306 1476 280 1453T238 1390Q231 1372 218 1365T178 1363L108 1374Q115 1425 136 1464T189 1528T264 1567T355 1580Z" />
<glyph unicode="&#xb3;" horiz-adv-x="685" d="M360 1580Q409 1580 449 1566T518 1528T561 1470T577 1398Q577 1275 464 1231Q527 1213 559 1176T592 1078Q592 1025 572 984T518 916T441 874T350 860Q296 860 256 872T185 907T135 966T99 1047L154 1070Q175 1079
194 1075T221 1054Q225 1045 233 1030T255 1001T290 976T344 966Q373 966 395 975T433 1000T455 1034T463 1073Q463 1101 455 1122T429 1156T379 1176T303 1183V1268Q386 1269 420 1297T455 1376Q455 1424 427 1449T354 1474Q309 1474 282 1451T241 1391Q233 1371
222 1365T185 1363L119 1374Q126 1425 147 1464T200 1528T272 1567T360 1580Z" />
<glyph unicode="&#xb4;" horiz-adv-x="598" d="M473 1399L247 1150Q233 1135 220 1129T186 1123H81L224 1356Q237 1378 253 1388T301 1399H473Z" />
<glyph unicode="&#xb5;" horiz-adv-x="1126" d="M311 978V387Q311 278 358 214T502 150Q586 150 647 198T750 331V978H926V266Q926 191 961 157T1057 122H1114V51Q1114 28 1083 10T997 -9Q958 -9 922 2T857 38T806 98T774 186Q720 101 650 54T491 6Q424 6 375
27T290 88Q295 50 297 11T300 -63V-330H213Q175 -330 155 -311T135 -256V978H311Z" />
<glyph unicode="&#xb6;" horiz-adv-x="1200" d="M1169 1383V1234H977V-194H822V1234H588V-194H434V636Q342 636 269 665T143 746T63 865T35 1012Q35 1095 63 1163T143 1280T268 1356T434 1383H1169Z" />
<glyph unicode="&#xb7;" horiz-adv-x="517" d="M113 573Q113 604 124 630T155 677T201 708T258 720Q288 720 315 709T361 677T392 631T404 573Q404 543 393 517T362 471T315 440T258 428Q228 428 202 439T156 470T125 516T113 573Z" />
<glyph unicode="&#xb8;" horiz-adv-x="629" d="M201 -243Q207 -243 214 -246T233 -254T258 -261T294 -265Q334 -265 354 -249T375 -208Q375 -171 335 -157T220 -132L272 25H372L344 -72Q434 -90 473 -124T513 -210Q513 -241 498 -266T455 -308T388 -334T303 -344Q264
-344 228 -336T162 -314L179 -260Q185 -243 201 -243Z" />
<glyph unicode="&#xb9;" horiz-adv-x="504" d="M108 953H250V1373L254 1415L152 1332Q143 1325 135 1324T119 1323T105 1328T95 1337L56 1391L271 1575H378V953H502V869H108V953Z" />
<glyph unicode="&#xba;" horiz-adv-x="865" d="M433 1399Q501 1399 556 1378T650 1319T710 1225T732 1100Q732 1031 711 975T650 880T556 820T433 799Q365 799 310 820T215 880T155 975T133 1100Q133 1169 154 1224T215 1318T309 1378T433 1399ZM433 903Q514 903
554 953T594 1099Q594 1195 554 1245T433 1295Q350 1295 311 1245T271 1099Q271 1003 310 953T433 903Z" />
<glyph unicode="&#xbb;" horiz-adv-x="1049" d="M556 523V500L315 125L258 152Q235 163 231 182T240 225L392 476Q406 500 419 511Q406 523 393 546L241 798Q227 821 231 840T258 871L315 898L556 523ZM881 523V500L640 125L583 152Q560 163 556 182T565 225L717
476Q731 500 744 511Q731 523 718 546L566 798Q552 821 556 840T583 871L640 898L881 523Z" />
<glyph unicode="&#xbc;" horiz-adv-x="1303" d="M261 52Q243 21 220 11T168 0H93L1080 1323Q1097 1352 1119 1367T1176 1383H1253L261 52ZM1166 258H1270V194Q1270 184 1264 177T1245 169H1166V0H1059V169H766Q748 169 738 176T726 196L715 252L1044 704H1166V258ZM1059
488Q1059 506 1060 527T1065 572L835 258H1059V488ZM99 766H241V1186L245 1228L143 1145Q134 1138 126 1137T110 1136T96 1141T86 1150L47 1204L262 1388H369V766H493V682H99V766Z" />
<glyph unicode="&#xbd;" horiz-adv-x="1375" d="M252 52Q234 21 211 11T159 0H84L1071 1323Q1088 1352 1110 1367T1167 1383H1244L252 52ZM1051 712Q1102 712 1143 698T1213 657T1258 593T1274 511Q1274 472 1262 439T1230 376T1183 318T1128 260L974 103Q997
109 1020 113T1063 117H1247Q1267 117 1278 106T1290 76V0H796V42Q796 55 801 69T817 94L1030 305Q1078 353 1111 404T1144 507Q1144 556 1116 582T1045 608Q1002 608 976 585T934 522Q927 504 914 497T874 495L804 506Q811 557 832 596T885 660T960 699T1051 712ZM96
766H238V1186L242 1228L140 1145Q131 1138 123 1137T107 1136T93 1141T83 1150L44 1204L259 1388H366V766H490V682H96V766Z" />
<glyph unicode="&#xbe;" horiz-adv-x="1383" d="M321 52Q303 21 280 11T228 0H153L1140 1323Q1157 1352 1179 1367T1236 1383H1313L321 52ZM1237 258H1341V194Q1341 184 1335 177T1316 169H1237V0H1130V169H837Q819 169 809 176T797 196L786 252L1115 704H1237V258ZM1130
488Q1130 506 1131 527T1136 572L906 258H1130V488ZM360 1393Q409 1393 449 1379T518 1341T561 1283T577 1211Q577 1088 464 1044Q527 1026 559 989T592 891Q592 838 572 797T518 729T441 687T350 673Q296 673 256 685T185 720T135 779T99 860L154 883Q175 892
194 888T221 867Q225 858 233 843T255 814T290 789T344 779Q373 779 395 788T433 813T455 847T463 886Q463 914 455 935T429 969T379 989T303 996V1081Q386 1082 420 1110T455 1189Q455 1237 427 1262T354 1287Q309 1287 282 1264T241 1204Q233 1184 222 1178T185
1176L119 1187Q126 1238 147 1277T200 1341T272 1380T360 1393Z" />
<glyph unicode="&#xbf;" horiz-adv-x="949" d="M837 -204Q807 -232 771 -257T691 -302T598 -332T490 -343Q413 -343 348 -322T235 -261T160 -164T133 -35Q133 39 155 90T210 178T282 241T356 290T415 336T444 392L462 539H582L594 379Q597 333 577 302T523 245T451
197T377 145T320 77T297 -20Q297 -62 313 -95T357 -151T423 -187T505 -200Q563 -200 605 -186T676 -154T723 -123T753 -108Q777 -108 790 -130L837 -204ZM412 870Q412 895 421 917T447 957T486 983T535 993Q560 993 582 984T621 957T647 918T657 870Q657 844 648
822T622 784T583 758T535 749Q509 749 487 758T448 783T422 822T412 870Z" />
<glyph unicode="&#xc0;" horiz-adv-x="1185" d="M1178 0H1037Q1013 0 999 12T976 42L864 358H322L211 43Q205 26 189 13T149 0H8L501 1314H686L1178 0ZM368 488H818L632 1017Q622 1041 612 1073T593 1142Q583 1104 573 1072T554 1016L368 488ZM459 1710Q490 1710
507 1705T541 1678L760 1414H634Q613 1414 600 1416T573 1432L271 1710H459Z" />
<glyph unicode="&#xc1;" horiz-adv-x="1185" d="M1178 0H1037Q1013 0 999 12T976 42L864 358H322L211 43Q205 26 189 13T149 0H8L501 1314H686L1178 0ZM368 488H818L632 1017Q622 1041 612 1073T593 1142Q583 1104 573 1072T554 1016L368 488ZM943 1710L630 1433Q615
1420 602 1417T568 1414H442L662 1678Q671 1688 679 1694T696 1704T717 1709T745 1710H943Z" />
<glyph unicode="&#xc2;" horiz-adv-x="1185" d="M1178 0H1037Q1013 0 999 12T976 42L864 358H322L211 43Q205 26 189 13T149 0H8L501 1314H686L1178 0ZM368 488H818L632 1017Q622 1041 612 1073T593 1142Q583 1104 573 1072T554 1016L368 488ZM893 1671H765Q753
1671 737 1675T704 1699L593 1833Q587 1841 581 1850L569 1834L459 1699Q442 1679 426 1675T398 1671H275L505 1933H663L893 1671Z" />
<glyph unicode="&#xc3;" horiz-adv-x="1185" d="M1178 0H1037Q1013 0 999 12T976 42L864 358H322L211 43Q205 26 189 13T149 0H8L501 1314H686L1178 0ZM368 488H818L632 1017Q622 1041 612 1073T593 1142Q583 1104 573 1072T554 1016L368 488ZM712 1785Q734 1785
751 1793T779 1815T797 1846T803 1881H910Q910 1839 899 1801T865 1734T809 1687T733 1669Q689 1669 655 1685T591 1719T535 1754T482 1770Q460 1770 444 1762T416 1739T399 1708T393 1673H284Q284 1715 296 1753T330 1821T386 1869T462 1887Q506 1887 540 1871T604
1836T659 1801T712 1785Z" />
<glyph unicode="&#xc4;" horiz-adv-x="1185" d="M1178 0H1037Q1013 0 999 12T976 42L864 358H322L211 43Q205 26 189 13T149 0H8L501 1314H686L1178 0ZM368 488H818L632 1017Q622 1041 612 1073T593 1142Q583 1104 573 1072T554 1016L368 488ZM498 1531Q498 1508
489 1488T465 1453T429 1430T386 1421Q363 1421 343 1429T308 1453T285 1488T276 1531Q276 1554 284 1574T308 1609T343 1633T386 1642Q408 1642 428 1633T464 1609T489 1574T498 1531ZM902 1531Q902 1508 893 1488T869 1453T833 1430T790 1421Q767 1421 747 1429T712
1453T689 1488T680 1531Q680 1554 688 1574T712 1609T747 1633T790 1642Q812 1642 832 1633T868 1609T893 1574T902 1531Z" />
<glyph unicode="&#xc5;" horiz-adv-x="1185" d="M1178 0H1037Q1013 0 999 12T976 42L864 358H322L211 43Q205 26 189 13T149 0H8L501 1314H686L1178 0ZM368 488H818L632 1017Q622 1041 612 1073T593 1142Q583 1104 573 1072T554 1016L368 488ZM408 1561Q408 1599
423 1630T463 1685T521 1720T590 1733Q628 1733 661 1721T720 1685T761 1631T776 1561Q776 1523 761 1492T721 1439T662 1405T590 1392Q554 1392 521 1404T463 1439T423 1492T408 1561ZM495 1561Q495 1519 521 1492T593 1465Q635 1465 661 1492T688 1561Q688 1605
662 1631T593 1658Q548 1658 522 1632T495 1561Z" />
<glyph unicode="&#xc6;" horiz-adv-x="1563" d="M609 1314H1480V1166H865L914 735H1369V592H930L980 148H1480V0H826L785 358H330L187 42Q178 23 160 12T117 0H-21L609 1314ZM389 488H770L692 1173Q680 1136 668 1105T641 1045L389 488Z" />
<glyph unicode="&#xc7;" horiz-adv-x="1092" d="M506 -243Q512 -243 519 -246T538 -254T563 -261T599 -265Q639 -265 659 -249T680 -208Q680 -171 640 -157T525 -132L565 -10Q451 2 359 55T202 195T102 400T67 657Q67 806 109 929T227 1142T409 1280T643 1329Q770
1329 866 1284T1035 1162L975 1078Q969 1069 960 1063T937 1057Q920 1057 900 1075T846 1114T764 1154T642 1172Q556 1172 485 1137T362 1036T282 874T253 657Q253 535 283 439T365 277T487 176T639 141Q689 141 728 148T801 169T864 206T923 260Q939 274 954 274Q968
274 980 262L1052 184Q985 96 891 45T666 -13L649 -72Q739 -90 778 -124T818 -210Q818 -241 803 -266T760 -308T693 -334T608 -344Q569 -344 533 -336T467 -314L484 -260Q490 -243 506 -243Z" />
<glyph unicode="&#xc8;" horiz-adv-x="1000" d="M913 1314V1166H328V735H799V592H328V148H914L913 0H145V1314H913ZM424 1710Q455 1710 472 1705T506 1678L725 1414H599Q578 1414 565 1416T538 1432L236 1710H424Z" />
<glyph unicode="&#xc9;" horiz-adv-x="1000" d="M913 1314V1166H328V735H799V592H328V148H914L913 0H145V1314H913ZM883 1710L570 1433Q555 1420 542 1417T508 1414H382L602 1678Q611 1688 619 1694T636 1704T657 1709T685 1710H883Z" />
<glyph unicode="&#xca;" horiz-adv-x="1000" d="M913 1314V1166H328V735H799V592H328V148H914L913 0H145V1314H913ZM859 1670H731Q719 1670 703 1674T670 1698L559 1832Q553 1840 547 1849L535 1833L425 1698Q408 1678 392 1674T364 1670H241L471 1932H629L859 1670Z" />
<glyph unicode="&#xcb;" horiz-adv-x="1000" d="M913 1314V1166H328V735H799V592H328V148H914L913 0H145V1314H913ZM452 1531Q452 1508 443 1488T419 1453T383 1430T340 1421Q317 1421 297 1429T262 1453T239 1488T230 1531Q230 1554 238 1574T262 1609T297 1633T340
1642Q362 1642 382 1633T418 1609T443 1574T452 1531ZM856 1531Q856 1508 847 1488T823 1453T787 1430T744 1421Q721 1421 701 1429T666 1453T643 1488T634 1531Q634 1554 642 1574T666 1609T701 1633T744 1642Q766 1642 786 1633T822 1609T847 1574T856 1531Z"
/>
<glyph unicode="&#xcc;" horiz-adv-x="516" d="M349 0H167V1314H349V0ZM133 1710Q164 1710 181 1705T215 1678L434 1414H308Q287 1414 274 1416T247 1432L-55 1710H133Z" />
<glyph unicode="&#xcd;" horiz-adv-x="516" d="M349 0H167V1314H349V0ZM858 1966L545 1689Q530 1676 517 1673T483 1670H357L577 1934Q586 1944 594 1950T611 1960T632 1965T660 1966H858Z" />
<glyph unicode="&#xce;" horiz-adv-x="516" d="M349 0H167V1314H349V0ZM560 1415H432Q420 1415 404 1419T371 1443L260 1577Q254 1585 248 1594L236 1578L126 1443Q109 1423 93 1419T65 1415H-58L172 1677H330L560 1415Z" />
<glyph unicode="&#xcf;" horiz-adv-x="516" d="M349 0H167V1314H349V0ZM165 1531Q165 1508 156 1488T132 1453T96 1430T53 1421Q30 1421 10 1429T-25 1453T-48 1488T-57 1531Q-57 1554 -49 1574T-25 1609T10 1633T53 1642Q75 1642 95 1633T131 1609T156 1574T165
1531ZM569 1531Q569 1508 560 1488T536 1453T500 1430T457 1421Q434 1421 414 1429T379 1453T356 1488T347 1531Q347 1554 355 1574T379 1609T414 1633T457 1642Q479 1642 499 1633T535 1609T560 1574T569 1531Z" />
<glyph unicode="&#xd0;" horiz-adv-x="1279" d="M42 716H196V1314H635Q765 1314 871 1267T1054 1133T1173 926T1215 657Q1215 509 1173 388T1055 181T872 47T635 0H196V610H42V716ZM1028 657Q1028 777 1001 871T922 1032T798 1132T635 1167H380V716H605V610H380V147H635Q725
147 798 181T922 281T1000 442T1028 657Z" />
<glyph unicode="&#xd1;" horiz-adv-x="1322" d="M243 1314Q266 1314 278 1309T305 1283L1019 300Q1017 324 1016 347T1014 391V1314H1174V0H1082Q1061 0 1047 7T1018 32L304 1012Q306 989 307 968T308 928V0H148V1314H243V1314ZM806 1529Q828 1529 845 1537T873
1559T891 1590T897 1625H1004Q1004 1583 993 1545T959 1478T903 1431T827 1413Q783 1413 749 1429T685 1463T629 1498T576 1514Q554 1514 538 1506T510 1483T493 1452T487 1417H378Q378 1459 390 1497T424 1565T480 1613T556 1631Q600 1631 634 1615T698 1580T753
1545T806 1529Z" />
<glyph unicode="&#xd2;" horiz-adv-x="1356" d="M1284 657Q1284 509 1241 386T1118 174T927 36T679 -14Q544 -14 432 35T240 174T116 386T72 657Q72 804 116 927T240 1140T432 1279T679 1329Q815 1329 926 1280T1117 1141T1240 928T1284 657ZM1098 657Q1098 777
1069 872T985 1034T853 1136T679 1172Q583 1172 506 1137T373 1035T289 873T259 657Q259 537 288 442T373 280T505 178T679 143Q775 143 852 178T984 279T1068 441T1098 657ZM555 1710Q586 1710 603 1705T637 1678L856 1414H730Q709 1414 696 1416T669 1432L367
1710H555Z" />
<glyph unicode="&#xd3;" horiz-adv-x="1356" d="M1284 657Q1284 509 1241 386T1118 174T927 36T679 -14Q544 -14 432 35T240 174T116 386T72 657Q72 804 116 927T240 1140T432 1279T679 1329Q815 1329 926 1280T1117 1141T1240 928T1284 657ZM1098 657Q1098 777
1069 872T985 1034T853 1136T679 1172Q583 1172 506 1137T373 1035T289 873T259 657Q259 537 288 442T373 280T505 178T679 143Q775 143 852 178T984 279T1068 441T1098 657ZM1017 1710L704 1433Q689 1420 676 1417T642 1414H516L736 1678Q745 1688 753 1694T770
1704T791 1709T819 1710H1017Z" />
<glyph unicode="&#xd4;" horiz-adv-x="1356" d="M1284 657Q1284 509 1241 386T1118 174T927 36T679 -14Q544 -14 432 35T240 174T116 386T72 657Q72 804 116 927T240 1140T432 1279T679 1329Q815 1329 926 1280T1117 1141T1240 928T1284 657ZM1098 657Q1098 777
1069 872T985 1034T853 1136T679 1172Q583 1172 506 1137T373 1035T289 873T259 657Q259 537 288 442T373 280T505 178T679 143Q775 143 852 178T984 279T1068 441T1098 657ZM979 1415H851Q839 1415 823 1419T790 1443L679 1577Q673 1585 667 1594L655 1578L545
1443Q528 1423 512 1419T484 1415H361L591 1677H749L979 1415Z" />
<glyph unicode="&#xd5;" horiz-adv-x="1356" d="M1284 657Q1284 509 1241 386T1118 174T927 36T679 -14Q544 -14 432 35T240 174T116 386T72 657Q72 804 116 927T240 1140T432 1279T679 1329Q815 1329 926 1280T1117 1141T1240 928T1284 657ZM1098 657Q1098 777
1069 872T985 1034T853 1136T679 1172Q583 1172 506 1137T373 1035T289 873T259 657Q259 537 288 442T373 280T505 178T679 143Q775 143 852 178T984 279T1068 441T1098 657ZM798 1529Q820 1529 837 1537T865 1559T883 1590T889 1625H996Q996 1583 985 1545T951
1478T895 1431T819 1413Q775 1413 741 1429T677 1463T621 1498T568 1514Q546 1514 530 1506T502 1483T485 1452T479 1417H370Q370 1459 382 1497T416 1565T472 1613T548 1631Q592 1631 626 1615T690 1580T745 1545T798 1529Z" />
<glyph unicode="&#xd6;" horiz-adv-x="1356" d="M1284 657Q1284 509 1241 386T1118 174T927 36T679 -14Q544 -14 432 35T240 174T116 386T72 657Q72 804 116 927T240 1140T432 1279T679 1329Q815 1329 926 1280T1117 1141T1240 928T1284 657ZM1098 657Q1098 777
1069 872T985 1034T853 1136T679 1172Q583 1172 506 1137T373 1035T289 873T259 657Q259 537 288 442T373 280T505 178T679 143Q775 143 852 178T984 279T1068 441T1098 657ZM584 1531Q584 1508 575 1488T551 1453T515 1430T472 1421Q449 1421 429 1429T394 1453T371
1488T362 1531Q362 1554 370 1574T394 1609T429 1633T472 1642Q494 1642 514 1633T550 1609T575 1574T584 1531ZM988 1531Q988 1508 979 1488T955 1453T919 1430T876 1421Q853 1421 833 1429T798 1453T775 1488T766 1531Q766 1554 774 1574T798 1609T833 1633T876
1642Q898 1642 918 1633T954 1609T979 1574T988 1531Z" />
<glyph unicode="&#xd7;" horiz-adv-x="1020" d="M933 977L603 647L944 306L850 213L509 553L166 211L72 304L415 647L83 979L176 1074L508 741L839 1072L933 977Z" />
<glyph unicode="&#xd8;" horiz-adv-x="1359" d="M1287 657Q1287 509 1243 386T1120 174T928 36T680 -14Q590 -14 512 7T367 70L286 -49Q266 -77 238 -88T183 -100H111L274 140Q178 230 126 361T73 657Q73 804 117 927T241 1140T433 1279T680 1329Q777 1329 861
1304T1016 1230L1082 1327Q1091 1340 1098 1349T1114 1363T1133 1371T1159 1374H1253L1105 1156Q1192 1065 1239 939T1287 657ZM259 657Q259 537 288 443T371 282L924 1095Q874 1133 813 1152T680 1172Q584 1172 506 1137T374 1035T289 873T259 657ZM1100 657Q1100
766 1076 854T1005 1009L458 204Q553 143 680 143Q776 143 854 178T986 279T1070 441T1100 657Z" />
<glyph unicode="&#xd9;" horiz-adv-x="1314" d="M657 144Q736 144 798 171T904 248T969 366T992 516V1314H1174V516Q1174 402 1138 305T1036 137T873 26T657 -15Q537 -15 442 25T279 137T176 305T140 516V1314H322V517Q322 435 344 367T410 249T515 172T657 144ZM530
1710Q561 1710 578 1705T612 1678L831 1414H705Q684 1414 671 1416T644 1432L342 1710H530Z" />
<glyph unicode="&#xda;" horiz-adv-x="1314" d="M657 144Q736 144 798 171T904 248T969 366T992 516V1314H1174V516Q1174 402 1138 305T1036 137T873 26T657 -15Q537 -15 442 25T279 137T176 305T140 516V1314H322V517Q322 435 344 367T410 249T515 172T657 144ZM1000
1710L687 1433Q672 1420 659 1417T625 1414H499L719 1678Q728 1688 736 1694T753 1704T774 1709T802 1710H1000Z" />
<glyph unicode="&#xdb;" horiz-adv-x="1314" d="M657 144Q736 144 798 171T904 248T969 366T992 516V1314H1174V516Q1174 402 1138 305T1036 137T873 26T657 -15Q537 -15 442 25T279 137T176 305T140 516V1314H322V517Q322 435 344 367T410 249T515 172T657 144ZM957
1415H829Q817 1415 801 1419T768 1443L657 1577Q651 1585 645 1594L633 1578L523 1443Q506 1423 490 1419T462 1415H339L569 1677H727L957 1415Z" />
<glyph unicode="&#xdc;" horiz-adv-x="1314" d="M657 144Q736 144 798 171T904 248T969 366T992 516V1314H1174V516Q1174 402 1138 305T1036 137T873 26T657 -15Q537 -15 442 25T279 137T176 305T140 516V1314H322V517Q322 435 344 367T410 249T515 172T657 144ZM562
1531Q562 1508 553 1488T529 1453T493 1430T450 1421Q427 1421 407 1429T372 1453T349 1488T340 1531Q340 1554 348 1574T372 1609T407 1633T450 1642Q472 1642 492 1633T528 1609T553 1574T562 1531ZM966 1531Q966 1508 957 1488T933 1453T897 1430T854 1421Q831
1421 811 1429T776 1453T753 1488T744 1531Q744 1554 752 1574T776 1609T811 1633T854 1642Q876 1642 896 1633T932 1609T957 1574T966 1531Z" />
<glyph unicode="&#xdd;" horiz-adv-x="998" d="M590 525V0H408V523L0 1314H160Q183 1314 197 1303T222 1272L447 765Q464 734 477 707T500 652Q510 679 522 706T552 764L775 1272Q783 1287 798 1300T836 1314H998L590 525ZM839 1710L526 1433Q511 1420 498 1417T464
1414H338L558 1678Q567 1688 575 1694T592 1704T613 1709T641 1710H839Z" />
<glyph unicode="&#xde;" horiz-adv-x="1058" d="M330 249V0H148V1314H330V1073H526Q646 1073 735 1044T882 962T968 834T997 665Q997 573 967 497T877 366T729 280T526 249H330ZM330 393H526Q597 393 651 413T741 469T796 555T815 665Q815 790 744 860T526 930H330V393Z" />
<glyph unicode="&#xdf;" horiz-adv-x="1080" d="M580 1404Q676 1404 746 1375T861 1301T927 1203T949 1100Q949 1043 930 1001T883 928T821 872T759 825T711 778T692 722Q692 684 716 659T775 613T852 568T929 512T989 429T1013 304Q1013 229 987 170T914 70T806
7T672 -15Q585 -15 512 18T385 103L426 170Q434 183 444 190T472 197Q490 197 508 184T550 154T607 124T687 110Q724 110 754 122T805 157T837 210T848 276Q848 330 823 363T760 421T678 467T596 515T533 583T508 688Q508 740 528 777T578 845T643 902T709 956T759
1019T779 1100Q779 1131 768 1162T732 1218T668 1259T573 1275Q512 1275 463 1255T380 1194T326 1093T307 951V0H131V956Q131 1056 163 1139T253 1280T395 1371T580 1404Z" />
<glyph unicode="&#xe0;" horiz-adv-x="981" d="M777 0Q751 0 737 8T718 41L696 132Q658 97 622 70T545 23T459 -5T358 -15Q301 -15 252 0T165 48T106 129T84 244Q84 302 115 355T218 451T403 519T683 550V625Q683 739 635 796T493 854Q431 854 389 838T315 803T262
768T216 752Q198 752 185 761T164 784L132 840Q213 918 306 956T514 995Q596 995 660 969T767 893T832 776T855 625V0H777ZM411 108Q455 108 492 117T562 142T624 183T683 238V440Q566 435 484 421T351 382T276 326T253 253Q253 215 265 188T299 143T349 117T411
108ZM423 1399Q455 1399 471 1389T500 1356L643 1123H543Q523 1123 510 1129T483 1150L257 1399H423Z" />
<glyph unicode="&#xe1;" horiz-adv-x="981" d="M777 0Q751 0 737 8T718 41L696 132Q658 97 622 70T545 23T459 -5T358 -15Q301 -15 252 0T165 48T106 129T84 244Q84 302 115 355T218 451T403 519T683 550V625Q683 739 635 796T493 854Q431 854 389 838T315 803T262
768T216 752Q198 752 185 761T164 784L132 840Q213 918 306 956T514 995Q596 995 660 969T767 893T832 776T855 625V0H777ZM411 108Q455 108 492 117T562 142T624 183T683 238V440Q566 435 484 421T351 382T276 326T253 253Q253 215 265 188T299 143T349 117T411
108ZM737 1399L511 1150Q497 1135 484 1129T450 1123H345L488 1356Q501 1378 517 1388T565 1399H737Z" />
<glyph unicode="&#xe2;" horiz-adv-x="981" d="M777 0Q751 0 737 8T718 41L696 132Q658 97 622 70T545 23T459 -5T358 -15Q301 -15 252 0T165 48T106 129T84 244Q84 302 115 355T218 451T403 519T683 550V625Q683 739 635 796T493 854Q431 854 389 838T315 803T262
768T216 752Q198 752 185 761T164 784L132 840Q213 918 306 956T514 995Q596 995 660 969T767 893T832 776T855 625V0H777ZM411 108Q455 108 492 117T562 142T624 183T683 238V440Q566 435 484 421T351 382T276 326T253 253Q253 215 265 188T299 143T349 117T411
108ZM786 1128H668Q657 1128 646 1132T624 1147L506 1272Q501 1276 498 1281T489 1291Q481 1280 474 1273L355 1147Q337 1128 311 1128H189L406 1383H568L786 1128Z" />
<glyph unicode="&#xe3;" horiz-adv-x="981" d="M777 0Q751 0 737 8T718 41L696 132Q658 97 622 70T545 23T459 -5T358 -15Q301 -15 252 0T165 48T106 129T84 244Q84 302 115 355T218 451T403 519T683 550V625Q683 739 635 796T493 854Q431 854 389 838T315 803T262
768T216 752Q198 752 185 761T164 784L132 840Q213 918 306 956T514 995Q596 995 660 969T767 893T832 776T855 625V0H777ZM411 108Q455 108 492 117T562 142T624 183T683 238V440Q566 435 484 421T351 382T276 326T253 253Q253 215 265 188T299 143T349 117T411
108ZM597 1280Q639 1280 658 1300T690 1363H776Q776 1317 764 1279T729 1214T674 1171T603 1156Q570 1156 541 1169T485 1199T436 1230T390 1244Q348 1244 325 1221T294 1160H210Q210 1206 223 1244T259 1310T314 1353T384 1368Q418 1368 447 1354T503 1324T552
1294T597 1280Z" />
<glyph unicode="&#xe4;" horiz-adv-x="981" d="M777 0Q751 0 737 8T718 41L696 132Q658 97 622 70T545 23T459 -5T358 -15Q301 -15 252 0T165 48T106 129T84 244Q84 302 115 355T218 451T403 519T683 550V625Q683 739 635 796T493 854Q431 854 389 838T315 803T262
768T216 752Q198 752 185 761T164 784L132 840Q213 918 306 956T514 995Q596 995 660 969T767 893T832 776T855 625V0H777ZM411 108Q455 108 492 117T562 142T624 183T683 238V440Q566 435 484 421T351 382T276 326T253 253Q253 215 265 188T299 143T349 117T411
108ZM412 1244Q412 1221 403 1201T379 1166T343 1143T300 1134Q277 1134 257 1142T222 1166T199 1201T190 1244Q190 1267 198 1287T222 1322T257 1346T300 1355Q322 1355 342 1346T378 1322T403 1287T412 1244ZM782 1244Q782 1221 773 1201T749 1166T713 1143T670
1134Q647 1134 627 1142T592 1166T569 1201T560 1244Q560 1267 568 1287T592 1322T627 1346T670 1355Q692 1355 712 1346T748 1322T773 1287T782 1244Z" />
<glyph unicode="&#xe5;" horiz-adv-x="981" d="M777 0Q751 0 737 8T718 41L696 132Q658 97 622 70T545 23T459 -5T358 -15Q301 -15 252 0T165 48T106 129T84 244Q84 302 115 355T218 451T403 519T683 550V625Q683 739 635 796T493 854Q431 854 389 838T315 803T262
768T216 752Q198 752 185 761T164 784L132 840Q213 918 306 956T514 995Q596 995 660 969T767 893T832 776T855 625V0H777ZM411 108Q455 108 492 117T562 142T624 183T683 238V440Q566 435 484 421T351 382T276 326T253 253Q253 215 265 188T299 143T349 117T411
108ZM293 1269Q293 1309 308 1342T350 1400T412 1437T486 1451Q525 1451 560 1438T623 1400T665 1343T681 1269Q681 1230 666 1197T623 1141T561 1104T486 1091Q447 1091 412 1104T351 1140T309 1197T293 1269ZM391 1269Q391 1227 417 1200T488 1173Q530 1173 556
1200T583 1269Q583 1313 557 1339T488 1366Q443 1366 417 1340T391 1269Z" />
<glyph unicode="&#xe6;" horiz-adv-x="1583" d="M1131 993Q1210 993 1279 962T1399 873T1479 730T1508 537Q1508 496 1500 482T1467 468H857Q865 294 942 209T1144 124Q1211 124 1256 138T1330 169T1378 200T1412 214Q1426 214 1434 210T1449 197L1495 137Q1463
98 1421 70T1330 23T1230 -5T1128 -14Q1015 -14 922 40T775 206Q749 146 707 104T614 36T504 -3T389 -15Q321 -15 266 2T170 52T108 137T86 258Q86 316 117 372T220 472T407 545T691 578V625Q691 739 643 799T498 860Q435 860 392 843T317 806T263 769T217 752Q199
752 186 761T165 784L133 840Q215 918 303 956T501 995Q617 995 688 946T792 812Q844 896 929 944T1131 993ZM691 468Q572 463 489 446T354 403T279 342T255 267Q255 184 303 146T429 108Q484 108 532 125T615 178T670 265T691 389V468ZM1124 865Q1065 865 1019
845T939 788T885 697T859 577H1352Q1352 639 1337 692T1292 783T1220 843T1124 865Z" />
<glyph unicode="&#xe7;" horiz-adv-x="866" d="M381 -243Q387 -243 393 -246T410 -254T433 -261T465 -265Q501 -265 520 -249T539 -208Q539 -171 502 -157T395 -132L433 -11Q355 -3 289 34T173 136T97 289T69 490Q69 599 98 691T182 851T319 955T507 993Q607 993
682 960T815 866L769 802Q761 791 754 786T732 780Q717 780 701 792T661 818T603 845T518 857Q452 857 402 832T318 759T267 643T249 490Q249 402 267 334T320 218T402 147T510 122Q568 122 605 137T667 170T708 203T743 218Q763 218 775 201L826 137Q772 69 696
33T535 -11L518 -72Q603 -90 640 -124T677 -210Q677 -241 663 -266T621 -308T557 -334T475 -344Q438 -344 404 -336T341 -314L358 -260Q364 -243 381 -243Z" />
<glyph unicode="&#xe8;" horiz-adv-x="1019" d="M535 993Q623 993 698 964T828 879T914 742T945 556Q945 515 936 502T903 488H249Q251 396 274 328T337 214T434 147T559 124Q623 124 670 138T750 171T807 203T847 218Q858 218 866 214T880 201L930 137Q897 98
853 70T757 23T652 -5T544 -14Q442 -14 356 20T208 120T110 284T75 509Q75 611 106 699T197 853T342 956T535 993ZM538 865Q415 865 344 793T254 596H787Q787 655 770 704T721 789T643 845T538 865ZM472 1399Q504 1399 520 1389T549 1356L692 1123H592Q572 1123
559 1129T532 1150L306 1399H472Z" />
<glyph unicode="&#xe9;" horiz-adv-x="1019" d="M535 993Q623 993 698 964T828 879T914 742T945 556Q945 515 936 502T903 488H249Q251 396 274 328T337 214T434 147T559 124Q623 124 670 138T750 171T807 203T847 218Q858 218 866 214T880 201L930 137Q897 98
853 70T757 23T652 -5T544 -14Q442 -14 356 20T208 120T110 284T75 509Q75 611 106 699T197 853T342 956T535 993ZM538 865Q415 865 344 793T254 596H787Q787 655 770 704T721 789T643 845T538 865ZM785 1399L559 1150Q545 1135 532 1129T498 1123H393L536 1356Q549
1378 565 1388T613 1399H785Z" />
<glyph unicode="&#xea;" horiz-adv-x="1019" d="M535 993Q623 993 698 964T828 879T914 742T945 556Q945 515 936 502T903 488H249Q251 396 274 328T337 214T434 147T559 124Q623 124 670 138T750 171T807 203T847 218Q858 218 866 214T880 201L930 137Q897 98
853 70T757 23T652 -5T544 -14Q442 -14 356 20T208 120T110 284T75 509Q75 611 106 699T197 853T342 956T535 993ZM538 865Q415 865 344 793T254 596H787Q787 655 770 704T721 789T643 845T538 865ZM834 1128H716Q705 1128 694 1132T672 1147L554 1272Q549 1276
546 1281T537 1291Q529 1280 522 1273L403 1147Q385 1128 359 1128H237L454 1383H616L834 1128Z" />
<glyph unicode="&#xeb;" horiz-adv-x="1019" d="M535 993Q623 993 698 964T828 879T914 742T945 556Q945 515 936 502T903 488H249Q251 396 274 328T337 214T434 147T559 124Q623 124 670 138T750 171T807 203T847 218Q858 218 866 214T880 201L930 137Q897 98
853 70T757 23T652 -5T544 -14Q442 -14 356 20T208 120T110 284T75 509Q75 611 106 699T197 853T342 956T535 993ZM538 865Q415 865 344 793T254 596H787Q787 655 770 704T721 789T643 845T538 865ZM461 1244Q461 1221 452 1201T428 1166T392 1143T349 1134Q326
1134 306 1142T271 1166T248 1201T239 1244Q239 1267 247 1287T271 1322T306 1346T349 1355Q371 1355 391 1346T427 1322T452 1287T461 1244ZM831 1244Q831 1221 822 1201T798 1166T762 1143T719 1134Q696 1134 676 1142T641 1166T618 1201T609 1244Q609 1267 617
1287T641 1322T676 1346T719 1355Q741 1355 761 1346T797 1322T822 1287T831 1244Z" />
<glyph unicode="&#xec;" horiz-adv-x="470" d="M323 978V0H147V978H323ZM92 1399Q124 1399 140 1389T169 1356L312 1123H212Q192 1123 179 1129T152 1150L-74 1399H92Z" />
<glyph unicode="&#xed;" horiz-adv-x="470" d="M323 978V0H147V978H323ZM544 1399L318 1150Q304 1135 291 1129T257 1123H152L295 1356Q308 1378 324 1388T372 1399H544Z" />
<glyph unicode="&#xee;" horiz-adv-x="470" d="M323 978V0H147V978H323ZM533 1128H415Q404 1128 393 1132T371 1147L253 1272Q248 1276 245 1281T236 1291Q228 1280 221 1273L102 1147Q84 1128 58 1128H-64L153 1383H315L533 1128Z" />
<glyph unicode="&#xef;" horiz-adv-x="470" d="M323 978V0H147V978H323ZM193 1244Q193 1221 184 1201T160 1166T124 1143T81 1134Q58 1134 38 1142T3 1166T-20 1201T-29 1244Q-29 1267 -21 1287T3 1322T38 1346T81 1355Q103 1355 123 1346T159 1322T184 1287T193
1244ZM496 1244Q496 1221 487 1201T463 1166T427 1143T384 1134Q361 1134 341 1142T306 1166T283 1201T274 1244Q274 1267 282 1287T306 1322T341 1346T384 1355Q406 1355 426 1346T462 1322T487 1287T496 1244Z" />
<glyph unicode="&#xf0;" horiz-adv-x="1076" d="M402 1028Q391 1046 395 1062T416 1090L515 1157Q472 1177 424 1192T322 1222Q299 1227 286 1248T284 1305L305 1366Q398 1351 485 1322T650 1246L811 1363L846 1307Q857 1290 853 1274T832 1247L739 1184Q797 1137
844 1077T926 942T978 778T997 583Q997 445 967 335T878 147T730 29T525 -13Q430 -13 348 18T205 110T110 256T75 450Q75 540 105 621T191 763T327 859T507 895Q604 895 688 854T835 731Q815 861 760 951T613 1103L436 973L402 1028ZM529 123Q665 123 745 226T832
542Q817 584 792 623T731 692T648 741T541 759Q469 759 415 735T324 669T269 571T250 449Q250 371 272 310T332 208T421 145T529 123Z" />
<glyph unicode="&#xf1;" horiz-adv-x="1076" d="M140 0V978H245Q264 978 276 970T290 942L305 838Q368 908 446 950T626 993Q706 993 766 967T868 892T930 775T951 623V0H775V623Q775 732 726 793T575 854Q500 854 435 819T316 720V0H140ZM645 1280Q687 1280 706
1300T738 1363H824Q824 1317 812 1279T777 1214T722 1171T651 1156Q618 1156 589 1169T533 1199T484 1230T438 1244Q396 1244 373 1221T342 1160H258Q258 1206 271 1244T307 1310T362 1353T432 1368Q466 1368 495 1354T551 1324T600 1294T645 1280Z" />
<glyph unicode="&#xf2;" horiz-adv-x="1080" d="M541 993Q648 993 734 958T880 857T972 698T1005 490Q1005 374 973 281T880 123T734 22T541 -14Q434 -14 348 21T201 122T108 281T75 490Q75 605 107 698T200 856T347 957T541 993ZM541 123Q612 123 665 147T753
219T806 334T824 489Q824 576 807 644T754 759T665 831T541 856Q469 856 416 831T327 759T274 644T256 489Q256 402 273 334T326 219T415 148T541 123ZM478 1399Q510 1399 526 1389T555 1356L698 1123H598Q578 1123 565 1129T538 1150L312 1399H478Z" />
<glyph unicode="&#xf3;" horiz-adv-x="1080" d="M541 993Q648 993 734 958T880 857T972 698T1005 490Q1005 374 973 281T880 123T734 22T541 -14Q434 -14 348 21T201 122T108 281T75 490Q75 605 107 698T200 856T347 957T541 993ZM541 123Q612 123 665 147T753
219T806 334T824 489Q824 576 807 644T754 759T665 831T541 856Q469 856 416 831T327 759T274 644T256 489Q256 402 273 334T326 219T415 148T541 123ZM791 1399L565 1150Q551 1135 538 1129T504 1123H399L542 1356Q555 1378 571 1388T619 1399H791Z" />
<glyph unicode="&#xf4;" horiz-adv-x="1080" d="M541 993Q648 993 734 958T880 857T972 698T1005 490Q1005 374 973 281T880 123T734 22T541 -14Q434 -14 348 21T201 122T108 281T75 490Q75 605 107 698T200 856T347 957T541 993ZM541 123Q612 123 665 147T753
219T806 334T824 489Q824 576 807 644T754 759T665 831T541 856Q469 856 416 831T327 759T274 644T256 489Q256 402 273 334T326 219T415 148T541 123ZM841 1128H723Q712 1128 701 1132T679 1147L561 1272Q556 1276 553 1281T544 1291Q536 1280 529 1273L410 1147Q392
1128 366 1128H244L461 1383H623L841 1128Z" />
<glyph unicode="&#xf5;" horiz-adv-x="1080" d="M541 993Q648 993 734 958T880 857T972 698T1005 490Q1005 374 973 281T880 123T734 22T541 -14Q434 -14 348 21T201 122T108 281T75 490Q75 605 107 698T200 856T347 957T541 993ZM541 123Q612 123 665 147T753
219T806 334T824 489Q824 576 807 644T754 759T665 831T541 856Q469 856 416 831T327 759T274 644T256 489Q256 402 273 334T326 219T415 148T541 123ZM651 1280Q693 1280 712 1300T744 1363H830Q830 1317 818 1279T783 1214T728 1171T657 1156Q624 1156 595 1169T539
1199T490 1230T444 1244Q402 1244 379 1221T348 1160H264Q264 1206 277 1244T313 1310T368 1353T438 1368Q472 1368 501 1354T557 1324T606 1294T651 1280Z" />
<glyph unicode="&#xf6;" horiz-adv-x="1080" d="M541 993Q648 993 734 958T880 857T972 698T1005 490Q1005 374 973 281T880 123T734 22T541 -14Q434 -14 348 21T201 122T108 281T75 490Q75 605 107 698T200 856T347 957T541 993ZM541 123Q612 123 665 147T753
219T806 334T824 489Q824 576 807 644T754 759T665 831T541 856Q469 856 416 831T327 759T274 644T256 489Q256 402 273 334T326 219T415 148T541 123ZM467 1244Q467 1221 458 1201T434 1166T398 1143T355 1134Q332 1134 312 1142T277 1166T254 1201T245 1244Q245
1267 253 1287T277 1322T312 1346T355 1355Q377 1355 397 1346T433 1322T458 1287T467 1244ZM837 1244Q837 1221 828 1201T804 1166T768 1143T725 1134Q702 1134 682 1142T647 1166T624 1201T615 1244Q615 1267 623 1287T647 1322T682 1346T725 1355Q747 1355 767
1346T803 1322T828 1287T837 1244Z" />
<glyph unicode="&#xf7;" horiz-adv-x="1020" d="M46 714H972V581H46V714ZM386 990Q386 1015 395 1037T421 1077T460 1103T508 1113Q533 1113 555 1104T595 1077T621 1038T631 990Q631 964 622 942T595 904T556 878T508 869Q482 869 460 878T422 903T396 942T386
990ZM386 303Q386 328 395 350T421 390T460 416T508 426Q533 426 555 417T595 390T621 351T631 303Q631 277 622 255T595 217T556 191T508 182Q482 182 460 191T422 216T396 255T386 303Z" />
<glyph unicode="&#xf8;" horiz-adv-x="1084" d="M885 854Q945 788 977 697T1009 490Q1009 374 977 281T884 123T737 22T543 -14Q470 -14 408 2T292 49L241 -21Q220 -50 191 -62T132 -74H66L206 117Q143 183 109 277T75 490Q75 605 108 698T201 856T348 957T543
993Q618 993 682 976T801 924L866 1012Q885 1038 901 1049T950 1060H1037L885 854ZM245 489Q245 336 300 244L717 810Q647 862 543 862Q471 862 415 836T322 762T265 645T245 489ZM543 118Q615 118 670 143T762 217T819 333T838 489Q838 631 789 723L376 163Q443
118 543 118Z" />
<glyph unicode="&#xf9;" horiz-adv-x="1076" d="M301 978V355Q301 245 350 185T501 124Q576 124 640 159T760 257V978H936V0H830Q812 0 800 8T786 36L770 140Q707 70 630 28T450 -15Q370 -15 310 11T208 86T146 203T125 355V978H301ZM477 1399Q509 1399 525 1389T554
1356L697 1123H597Q577 1123 564 1129T537 1150L311 1399H477Z" />
<glyph unicode="&#xfa;" horiz-adv-x="1076" d="M301 978V355Q301 245 350 185T501 124Q576 124 640 159T760 257V978H936V0H830Q812 0 800 8T786 36L770 140Q707 70 630 28T450 -15Q370 -15 310 11T208 86T146 203T125 355V978H301ZM788 1399L562 1150Q548 1135
535 1129T501 1123H396L539 1356Q552 1378 568 1388T616 1399H788Z" />
<glyph unicode="&#xfb;" horiz-adv-x="1076" d="M301 978V355Q301 245 350 185T501 124Q576 124 640 159T760 257V978H936V0H830Q812 0 800 8T786 36L770 140Q707 70 630 28T450 -15Q370 -15 310 11T208 86T146 203T125 355V978H301ZM838 1128H720Q709 1128 698
1132T676 1147L558 1272Q553 1276 550 1281T541 1291Q533 1280 526 1273L407 1147Q389 1128 363 1128H241L458 1383H620L838 1128Z" />
<glyph unicode="&#xfc;" horiz-adv-x="1076" d="M301 978V355Q301 245 350 185T501 124Q576 124 640 159T760 257V978H936V0H830Q812 0 800 8T786 36L770 140Q707 70 630 28T450 -15Q370 -15 310 11T208 86T146 203T125 355V978H301ZM465 1244Q465 1221 456 1201T432
1166T396 1143T353 1134Q330 1134 310 1142T275 1166T252 1201T243 1244Q243 1267 251 1287T275 1322T310 1346T353 1355Q375 1355 395 1346T431 1322T456 1287T465 1244ZM835 1244Q835 1221 826 1201T802 1166T766 1143T723 1134Q700 1134 680 1142T645 1166T622
1201T613 1244Q613 1267 621 1287T645 1322T680 1346T723 1355Q745 1355 765 1346T801 1322T826 1287T835 1244Z" />
<glyph unicode="&#xfd;" horiz-adv-x="927" d="M409 -288Q401 -308 388 -319T348 -330H217L385 58L11 978H163Q186 978 198 967T216 942L444 330Q452 309 459 288T472 246Q478 268 485 289T501 332L722 942Q728 957 742 967T773 978H913L409 -288ZM740 1399L514
1150Q500 1135 487 1129T453 1123H348L491 1356Q504 1378 520 1388T568 1399H740Z" />
<glyph unicode="&#xfe;" horiz-adv-x="1076" d="M144 -330V1422H320V839Q380 910 458 951T636 993Q719 993 786 961T902 867T976 711T1002 496Q1002 388 973 295T890 133T759 25T583 -14Q493 -14 431 19T320 113V-330H144ZM578 854Q496 854 434 816T320 708V236Q366
173 421 148T544 122Q677 122 749 219T821 496Q821 591 805 659T757 770T681 834T578 854Z" />
<glyph unicode="&#xff;" horiz-adv-x="927" d="M409 -288Q401 -308 388 -319T348 -330H217L385 58L11 978H163Q186 978 198 967T216 942L444 330Q452 309 459 288T472 246Q478 268 485 289T501 332L722 942Q728 957 742 967T773 978H913L409 -288ZM417 1244Q417
1221 408 1201T384 1166T348 1143T305 1134Q282 1134 262 1142T227 1166T204 1201T195 1244Q195 1267 203 1287T227 1322T262 1346T305 1355Q327 1355 347 1346T383 1322T408 1287T417 1244ZM787 1244Q787 1221 778 1201T754 1166T718 1143T675 1134Q652 1134 632
1142T597 1166T574 1201T565 1244Q565 1267 573 1287T597 1322T632 1346T675 1355Q697 1355 717 1346T753 1322T778 1287T787 1244Z" />
<glyph unicode="&#x2013;" horiz-adv-x="1020" d="M144 634H876V506H144V634Z" />
<glyph unicode="&#x2014;" horiz-adv-x="1854" d="M175 634H1679V506H175V634Z" />
<glyph unicode="&#x2018;" horiz-adv-x="511" d="M234 916Q193 985 179 1061T175 1211T224 1354T323 1477L377 1443Q392 1434 390 1420T380 1397Q355 1367 337 1323T314 1229T319 1124T359 1019Q372 998 367 982T342 958L234 916Z" />
<glyph unicode="&#x2019;" horiz-adv-x="511" d="M307 1444Q348 1375 362 1299T366 1149T317 1006T219 883L165 917Q150 926 151 940T161 963Q186 993 204 1037T227 1131T222 1236T182 1341Q169 1362 174 1378T199 1401L307 1444Z" />
<glyph unicode="&#x201a;" horiz-adv-x="511" d="M307 254Q348 185 362 109T366 -41T317 -184T219 -307L165 -273Q150 -264 151 -250T161 -227Q186 -197 204 -153T227 -59T222 46T182 151Q169 172 174 188T199 211L307 254Z" />
<glyph unicode="&#x201c;" horiz-adv-x="857" d="M253 916Q212 985 198 1061T194 1211T243 1354T342 1477L396 1443Q411 1434 409 1420T399 1397Q374 1367 356 1323T333 1229T338 1124T378 1019Q391 998 386 982T361 958L253 916ZM580 916Q539 985 525 1061T521
1211T570 1354T669 1477L723 1443Q738 1434 736 1420T726 1397Q701 1367 683 1323T660 1229T665 1124T705 1019Q718 998 713 982T688 958L580 916Z" />
<glyph unicode="&#x201d;" horiz-adv-x="857" d="M325 1444Q366 1375 380 1299T384 1149T335 1006T237 883L183 917Q168 926 169 940T179 963Q204 993 222 1037T245 1131T240 1236T200 1341Q187 1362 192 1378T217 1401L325 1444ZM652 1444Q693 1375 707 1299T711
1149T662 1006T564 883L510 917Q495 926 496 940T506 963Q531 993 549 1037T572 1131T567 1236T527 1341Q514 1362 519 1378T544 1401L652 1444Z" />
<glyph unicode="&#x201e;" horiz-adv-x="857" d="M325 254Q366 185 380 109T384 -41T335 -184T237 -307L183 -273Q168 -264 169 -250T179 -227Q204 -197 222 -153T245 -59T240 46T200 151Q187 172 192 188T217 211L325 254ZM653 254Q694 185 708 109T712 -41T663
-184T565 -307L511 -273Q496 -264 497 -250T507 -227Q532 -197 550 -153T573 -59T568 46T528 151Q515 172 520 188T545 211L653 254Z" />
<glyph unicode="&#x2022;" horiz-adv-x="1020" d="M148 574Q148 649 176 715T254 831T368 908T508 937Q583 937 649 909T764 831T842 716T871 574Q871 500 843 434T765 319T649 242T508 213Q434 213 369 241T254 319T177 434T148 574Z" />
<glyph unicode="&#x2039;" horiz-adv-x="694" d="M174 500V523L415 898L472 871Q495 860 499 841T490 798L338 546Q326 524 311 511Q325 498 338 477L489 225Q503 202 499 183T472 152L415 125L174 500Z" />
<glyph unicode="&#x203a;" horiz-adv-x="694" d="M520 523V500L279 125L222 152Q199 163 195 182T204 225L356 476Q370 500 383 511Q370 523 357 546L205 798Q191 821 195 840T222 871L279 898L520 523Z" />
</font>
</defs>
</svg>
