<?xml version="1.0" standalone="no"?>
<!DOCTYPE svg PUBLIC "-//W3C//DTD SVG 1.1//EN" "http://www.w3.org/Graphics/SVG/1.1/DTD/svg11.dtd">
<svg xmlns="http://www.w3.org/2000/svg">
<defs >
<font id="BirthstoneBounce" horiz-adv-x="625" ><font-face
    font-family="Birthstone Bounce"
    units-per-em="1000"
    panose-1="0 0 0 0 0 0 0 0 0 0"
    ascent="950"
    descent="-410"
    alphabetic="0" />
<glyph unicode=" " glyph-name="space" horiz-adv-x="170" />
<glyph unicode="!" glyph-name="exclam" horiz-adv-x="223" d="M161 136Q157 136 157 147Q157 152 158 160T161 178Q165 199 179 237T212 320T251 404T289 467Q321 513 348 536T398 567T442 575Q418 550 387 510T323 420T261 321T211 225Q205 212 194 187T173
149Q164 136 161 136ZM105 -7Q94 -7 88 -2T78 12Q75 17 75 21Q75 27 78 32T86 41L101 52Q108 57 117 61L131 68Q136 70 144 75Q148 77 150 75T150 70Q141 55 138 37T128 6T105 -7Z" />
<glyph unicode="&quot;" glyph-name="quotedbl" horiz-adv-x="179" d="M31 449Q29 448 26 448T29 456Q36 465 49 486T78 531T104 577T120 609Q122 616 122 626Q122 635 120 638Q162 641 162 605Q162 601 161 596T158 584Q152 558 131 531T83 481T31 449ZM127 448Q123
448 128 456Q134 464 147 483T174 526T201 572T219 609Q222 615 222 624Q222 629 221 633T219 638Q261 641 261 605Q261 577 240 546T189 488T130 449Q129 449 129 449T127 448Z" />
<glyph unicode="#" glyph-name="numbersign" horiz-adv-x="540" d="M133 56Q130 56 130 61Q130 63 130 66T131 71Q133 83 142 105T162 149T178 184Q171 184 159 184T133 183Q111 183 94 186T76 200Q76 211 88 214T105 218H194L248 347Q234 347 221 346Q208 345
194 345Q184 345 167 348T149 362Q149 372 161 376T178 381Q199 381 221 380Q242 379 262 379Q264 384 272 404T290 448T308 489T320 507Q324 507 324 499Q324 492 322 484T320 475Q315 449 306 426T286 378L376 377H388Q388 378 394 391T408 423T426 462T443 494T452
507Q456 507 456 500Q456 493 454 486T452 476Q447 450 437 426T416 378Q439 378 462 380Q485 382 508 382Q510 382 517 381T524 375Q523 368 508 362T477 352T455 348H404L347 219H426Q432 219 441 218T450 212Q449 205 435 199T404 190T382 186L333 185Q332 181
324 161T305 117T283 74T265 56Q260 56 260 64Q260 72 262 74Q264 82 272 104T291 150T308 185H202Q201 181 193 161T173 117T151 74T133 56ZM320 219L375 347H272L217 219H320Z" />
<glyph unicode="$" glyph-name="dollar" horiz-adv-x="407" d="M77 27Q73 27 69 33T65 47Q65 55 70 63Q83 92 105 122Q79 140 64 159Q49 178 41 178Q48 201 70 201Q84 201 93 192T116 166Q137 141 155 128T201 115Q215 115 230 125T246 155Q246 177 227 197T183
237T138 282T119 338Q119 373 136 407T182 468T243 511T309 527Q318 539 333 559T362 598T379 622Q390 622 390 603Q390 587 374 558Q372 554 363 538T348 513Q358 503 364 485T371 449Q371 432 360 411T337 368T326 331Q315 331 304 339T293 360Q293 381 304 399T326
435T337 473L335 484Q333 492 318 492Q296 492 271 478T223 441T186 392T171 343Q171 317 192 295T238 256Q261 240 282 219T304 174Q304 148 286 130T242 103T189 93Q160 93 135 104Q121 87 106 65T83 31Q80 27 77 27Z" />
<glyph unicode="%" glyph-name="percent" horiz-adv-x="419" d="M79 100Q74 100 74 108Q74 123 95 164T153 262Q184 310 224 365T312 473Q308 472 305 472T297 471Q280 471 261 478T224 497Q225 493 225 484Q225 468 222 453Q214 424 197 397T157 354T109 337Q84
337 72 351T60 387Q60 415 77 449Q95 487 121 510T175 534Q188 534 198 530H199L201 529Q210 523 218 513Q233 505 253 500T293 494Q322 494 343 506V507H344Q349 507 357 496T366 476V474L365 472Q355 461 333 434Q311 406 284 371T226 296L168 220Q141 183 120
154T91 110Q85 100 79 100ZM113 356Q132 356 150 381T179 432Q183 446 186 460T190 485Q190 509 176 509Q161 509 147 496T121 462T103 421T96 383Q96 356 113 356ZM262 116Q237 118 226 131T215 167Q215 195 232 231Q249 268 275 291T331 314Q357 314 369 299T381
261Q381 255 380 248T377 234Q368 204 351 177T310 133T262 116ZM268 137Q287 137 305 162T334 213Q338 227 341 241T345 267Q345 291 331 291Q316 291 302 278T276 244T257 203T250 164Q250 137 268 137Z" />
<glyph unicode="&amp;" glyph-name="ampersand" horiz-adv-x="431" d="M165 -3Q108 -3 78 28T48 108Q48 177 89 222T186 292Q166 303 157 319T148 370Q148 401 166 431T214 485T280 523T355 538Q385 538 402 516T419 462Q419 433 404 403T377 343Q366 343 359
353T352 376Q352 398 361 416T381 450T391 488Q391 491 387 502Q382 512 364 512Q336 512 299 489T237 436Q217 412 205 387T192 342Q192 329 200 320T224 311Q243 311 264 310T299 301T314 275Q261 276 211 256T127 196T93 98Q93 72 108 49T149 26Q181 26 210
42T260 86T287 151L257 145Q248 143 239 141T219 139Q194 139 186 154T178 192Q189 185 216 185Q243 185 281 188Q291 189 313 192T356 197T384 199Q406 199 415 183T424 150Q419 157 394 160Q389 161 384 161T372 161Q353 161 326 158Q326 114 305 77T248 19T165
-3Z" />
<glyph unicode="&apos;" glyph-name="quotesingle" horiz-adv-x="80" d="M31 449Q29 448 26 448T29 456Q36 465 49 486T78 531T104 577T120 609Q122 616 122 626Q122 635 120 638Q162 641 162 605Q162 601 161 596T158 584Q152 558 131 531T83 481T31 449Z" />
<glyph unicode="(" glyph-name="parenleft" horiz-adv-x="303" d="M200 -46Q193 -46 184 -43Q127 -21 102 22T77 120Q77 131 78 142T81 166Q89 215 113 268T173 366T249 440T329 468Q346 468 345 464Q309 453 279 424T222 360Q187 312 159 251T119 122Q117 110
116 99T115 76Q115 34 133 6T194 -26Q211 -28 211 -37Q211 -46 200 -46Z" />
<glyph unicode=")" glyph-name="parenright" horiz-adv-x="320" d="M59 -46Q51 -46 47 -45Q42 -44 43 -42Q80 -31 110 -2T167 63Q201 111 230 172T269 301Q271 313 272 324T273 346Q273 388 255 417T195 449Q178 451 178 460Q178 468 189 468Q194 468 205 465Q261
445 286 401T311 301Q311 280 308 257Q300 208 276 155T215 57T139 -17T59 -46Z" />
<glyph unicode="*" glyph-name="asterisk" horiz-adv-x="317" d="M164 290Q158 290 157 299T155 313V320Q155 341 158 365L162 409Q156 403 140 388T108 359T81 345Q79 345 76 346T73 352Q73 357 77 364T85 375L145 432H133L113 431Q99 431 83 432T54 436T40 448Q40
454 49 458T64 462L150 466Q146 472 137 486T116 518T98 551T90 572Q91 572 91 577Q91 581 96 581Q101 581 107 575T116 565L172 488L184 576Q184 584 186 600T196 616Q201 616 203 604T205 579T206 569Q206 547 204 527L200 483Q202 485 213 495T238 519T264 542T282
552Q287 552 287 547Q287 535 275 519T246 487T220 462H305Q311 462 316 461T322 453Q322 445 308 441T274 435T238 433T217 432Q217 432 227 417T252 381T276 343T287 321Q287 316 283 316Q276 316 265 327T240 353T214 383T195 406Q194 401 192 383T185 344T175
306T164 290Z" />
<glyph unicode="+" glyph-name="plus" horiz-adv-x="381" d="M138 59Q131 59 129 67T129 82Q131 89 138 104T153 138T169 172T178 192Q173 192 155 192T115 195T78 201T65 213Q68 222 74 228T89 235Q117 235 145 236Q173 237 201 237Q219 278 238 319Q257 359
274 401Q279 401 280 395T282 381Q282 368 280 353T275 332Q267 308 256 280T235 237Q252 237 280 237T333 238T365 240L364 235Q362 228 357 222Q353 216 336 212T296 205T253 200T224 195Q223 194 216 180T198 145T176 106T154 73T138 59Z" />
<glyph unicode="," glyph-name="comma" horiz-adv-x="242" d="M44 -108Q42 -105 44 -103L77 -65Q94 -45 110 -23T137 22Q138 26 139 30T140 39Q140 47 137 51Q131 58 136 58Q146 58 156 51Q173 39 173 15Q173 3 169 -8Q161 -30 140 -46T100 -74Q92 -79 78 -88T61
-101Q49 -113 44 -108Z" />
<glyph unicode="-" glyph-name="hyphen" horiz-adv-x="351" d="M308 184Q304 189 280 195Q267 197 248 197Q239 197 229 197T206 195Q202 195 186 194T150 191T111 188T85 186Q61 186 54 198T47 229Q65 226 90 226Q131 226 180 230T268 232Q297 230 302 215T308 184Z" />
<glyph unicode="." glyph-name="period" horiz-adv-x="223" d="M110 -7Q99 -7 93 -2T82 12Q79 17 79 21Q79 27 82 32T90 41Q97 46 105 51T122 61L136 68Q141 70 149 75Q152 77 154 75T155 70Q146 56 142 38T132 6T110 -7Z" />
<glyph unicode="/" glyph-name="slash" horiz-adv-x="361" d="M71 -60Q63 -60 58 -49T52 -30Q52 5 77 73T147 226Q190 310 247 403T369 583Q369 584 371 584Q375 584 381 575T393 555T399 537Q399 535 397 531Q384 513 356 471Q328 429 293 374T220 256Q182 193
152 136Q121 78 101 32T81 -38L82 -45V-50Q82 -60 71 -60Z" />
<glyph unicode="0" glyph-name="zero" horiz-adv-x="443" d="M106 -4Q72 -4 59 21T46 82Q46 98 48 115T53 148Q60 186 75 229T114 311T172 371Q179 374 193 382T222 398T243 405Q247 405 247 402Q247 393 239 391L226 387Q208 377 187 344T145 268T108 182T86
107Q84 97 83 88T82 70Q82 29 110 29Q130 29 155 45T205 83T246 127Q266 151 291 190T340 274T381 362T405 434Q406 440 406 445T407 456Q407 496 376 496Q356 496 327 484T263 450Q250 443 229 428T187 397T150 369Q142 362 125 349T93 324T81 312Q77 312 77 317Q79
328 92 345T126 383T168 422T209 456Q224 468 252 482T314 508T376 519Q402 519 422 507T450 464Q452 456 453 448T455 430Q455 414 450 392Q442 351 421 306Q400 260 371 216T308 132Q273 92 238 62Q202 32 168 14T106 -4Z" />
<glyph unicode="1" glyph-name="one" horiz-adv-x="189" d="M52 -22Q40 -22 36 -7T31 30Q31 50 33 69T40 102Q49 139 65 178T100 257Q110 278 124 305T153 358T178 403Q177 402 168 393T147 372T126 350T115 341L116 346Q116 348 127 364T153 400T175 429Q183
440 198 459T226 494T246 510Q252 510 263 506T284 496T292 483Q292 479 291 478Q275 456 254 424Q233 391 210 352T164 271Q140 228 120 187Q100 145 85 108T63 42Q62 39 62 35T61 24Q61 15 61 6T58 -15Q55 -22 52 -22Z" />
<glyph unicode="2" glyph-name="two" horiz-adv-x="387" d="M13 -22Q3 -21 -6 -9T-17 9Q39 45 101 95T222 203Q280 260 331 322T416 443L422 461V463Q422 472 411 474Q406 474 402 473Q398 472 394 472Q372 465 334 448T257 410Q235 398 209 381T164 347T143 317Q140
309 145 308Q150 306 149 298Q149 296 146 295T141 294Q132 294 124 302T111 321T107 337Q110 353 132 372T183 409T242 442Q277 460 314 474Q385 501 437 501Q463 501 478 490T493 455Q491 452 491 450L490 445Q485 420 460 386Q434 351 397 312T315 232Q270 192
227 157Q183 122 146 95T86 56Q122 70 163 83T245 105T318 113Q337 111 349 105T360 78Q360 72 352 58T339 41Q336 41 336 47T334 59T321 65Q305 66 275 60T212 45T154 28Q112 14 78 2T19 -20L15 -21L13 -22Z" />
<glyph unicode="3" glyph-name="three" horiz-adv-x="432" d="M136 -28Q93 -28 68 2T42 80Q42 102 48 127Q52 140 57 148T70 157Q76 157 75 148T74 143Q72 135 68 126Q64 116 61 105Q58 93 58 83Q58 55 78 41T126 27Q150 27 183 37T239 63Q261 78 288 101T338
151T369 207Q371 215 371 219Q371 242 349 250T301 259Q272 259 250 255T204 240Q203 239 201 239Q194 239 190 248T184 268T176 286Q216 291 257 312T337 356Q348 361 371 375T414 407T438 439Q438 441 438 442T439 444Q439 453 425 458Q407 463 383 463Q369 463
356 463T338 461Q326 459 306 454T265 442T229 423T209 396Q207 391 209 386Q210 381 208 377Q208 371 201 371Q197 371 194 380T189 401T188 418L189 428Q197 457 226 472T287 494Q298 496 317 498T350 501T361 502Q387 502 413 497T456 479T474 442Q474 433 471
428Q463 400 439 375T385 329T331 298Q361 289 380 259T400 193Q400 180 397 168Q388 129 358 94T289 32T208 -12T136 -28Z" />
<glyph unicode="4" glyph-name="four" horiz-adv-x="394" d="M212 -50Q199 -50 194 -33T189 6Q189 27 192 46T197 74T200 72Q208 103 220 131T248 191Q243 193 240 193H234Q196 193 156 183T78 161Q75 161 63 157T38 149T25 144Q18 144 14 158T10 182Q10 201 40
236Q64 265 99 298T176 366Q217 399 255 428Q293 456 322 475T365 497L375 499Q379 500 383 500Q395 500 397 493Q396 491 395 491L391 489Q381 486 364 472T326 439T286 402T252 372Q205 333 159 292Q113 250 65 211Q109 224 155 232T246 240L272 239L409 507Q415
520 422 520Q430 520 435 507T444 478T445 456Q441 446 426 417T391 351T353 281T326 230Q338 228 356 220T389 200T400 173Q396 161 382 144T354 127Q351 127 351 134Q353 144 364 157T378 182Q379 188 367 191T340 195T319 196L311 195Q303 180 289 153T259 93T232
32T216 -14Q215 -17 215 -19T214 -24Q214 -30 218 -33Q223 -39 222 -45Q221 -47 217 -48T212 -50Z" />
<glyph unicode="5" glyph-name="five" horiz-adv-x="369" d="M57 -60Q40 -60 22 -51T-9 -27T-22 10Q-22 14 -22 17T-20 25Q-19 28 -15 40T-4 64T8 76V73L6 66Q5 63 5 59Q2 43 2 29Q2 -26 48 -26Q68 -26 93 -16T146 18Q165 34 190 59T241 117T285 183T313 249Q316
264 316 275Q316 298 305 308T276 318Q252 318 223 304T167 267T126 219Q122 219 116 234T112 258L163 363Q170 378 182 404T206 452T221 480Q223 485 226 489T234 494Q248 494 264 488T300 482Q340 482 373 483T442 496Q452 498 456 498H459Q461 498 461 496Q459
492 455 488L450 481Q416 446 372 431T293 416Q286 416 273 418T246 423T229 431L177 321Q221 344 267 344Q305 344 332 316T360 240Q360 236 360 231T359 221Q348 173 319 124T249 33T158 -34T57 -60Z" />
<glyph unicode="6" glyph-name="six" horiz-adv-x="390" d="M95 -22Q54 -22 33 3T12 74Q12 82 12 89T14 105Q18 139 38 183Q58 226 87 272T152 364Q187 408 224 443Q261 477 295 498T357 520Q366 520 378 513T398 495T406 473Q406 471 406 468T403 465Q397 468
396 475Q394 482 382 482Q367 482 346 471T305 443T269 412Q253 397 230 374Q185 327 133 259Q108 226 88 193Q64 155 49 119T34 54Q34 33 42 23T72 12Q88 12 112 24T161 54T207 90Q230 110 252 134T288 183T303 226Q303 239 297 244T280 250Q267 250 241 237T186
204T135 162T105 122Q105 120 103 115T98 109Q95 109 95 117L96 126Q100 154 117 180T160 228T213 262T265 275Q300 275 324 250T343 183Q337 144 310 107T245 41T167 -5T95 -22Z" />
<glyph unicode="7" glyph-name="seven" horiz-adv-x="343" d="M88 -40Q72 -40 65 -28T58 2Q58 16 61 29Q66 53 78 82T105 139T131 184Q153 222 182 262T242 340T302 406T354 452H343Q340 453 336 453T327 453Q307 453 279 448T220 435T162 414T119 387Q113 383
108 370T98 346T93 334Q82 334 85 355L93 405L98 423Q100 431 102 435Q132 453 174 468T258 494T332 504Q353 504 376 494T415 468T430 431L429 426Q368 384 313 331Q302 321 281 298T235 247T193 197Q168 166 147 135Q125 104 110 75T89 22Q88 19 88 14Q88 0 93
-12T99 -32Q97 -40 88 -40Z" />
<glyph unicode="8" glyph-name="eight" horiz-adv-x="397" d="M125 -17Q101 -17 75 -9T33 18T20 64Q25 98 53 129T117 188T182 243Q165 263 154 287T142 338Q142 342 142 346T143 354Q148 386 177 414T246 463T325 497T389 509Q403 509 420 503T439 483L455 514Q458
526 462 526Q466 526 467 515T467 496Q461 459 433 425T369 360Q348 342 322 322T270 282T229 249Q252 223 275 190T298 118Q298 76 272 46T207 0T125 -17ZM211 269Q226 283 248 300T292 334T329 364Q358 387 384 412T431 469Q429 469 426 471L422 472Q398 472
362 460T289 426T226 378T196 326Q195 323 195 320T195 314Q195 289 211 269ZM93 20Q110 20 128 23T156 31Q187 46 215 71T250 127Q253 140 245 163T224 204T201 223Q185 214 162 192T117 142T78 87T58 40Q56 29 66 25T93 20Z" />
<glyph unicode="9" glyph-name="nine" horiz-adv-x="349" d="M207 -42Q189 -42 182 -28T175 6Q175 17 177 29T182 53Q190 84 205 122T240 201T280 277T318 339Q299 319 272 294T214 246T156 208T106 193Q86 193 73 206T60 246Q60 254 61 262T65 280Q73 311 99
347T162 416T235 476T302 513Q310 515 314 515Q336 515 352 495T365 455Q362 447 356 439T342 428Q337 438 337 449T334 467T320 475Q307 475 286 461T242 427T200 387Q180 366 159 340T121 287T100 239Q99 235 99 232T98 225Q98 214 106 214Q116 214 137 225T181
253T222 284Q237 296 257 313T294 345T317 366Q325 376 337 391T360 417T379 429Q388 429 399 425T410 416Q409 412 397 390L323 255Q300 212 279 169Q258 126 241 87T217 19Q215 12 214 6T213 -6Q213 -26 227 -26L237 -24Q241 -24 241 -26Q240 -33 228 -37T207
-42Z" />
<glyph unicode=":" glyph-name="colon" horiz-adv-x="260" d="M209 173Q198 173 192 178T182 192Q179 197 179 201Q179 207 182 212T190 221Q202 231 221 241L235 248Q241 250 249 255Q251 257 253 255T254 250Q245 236 242 218T232 186T209 173ZM101 -7Q90 -7
84 -2T74 12Q71 17 71 21Q71 27 74 32T82 41L97 52Q104 57 113 61L127 68Q132 70 140 75Q143 77 145 75T146 70Q137 56 134 38T124 6T101 -7Z" />
<glyph unicode=";" glyph-name="semicolon" horiz-adv-x="281" d="M229 173Q221 175 216 180T207 192Q205 195 205 200Q205 207 208 212T215 221Q222 227 230 232L246 241L260 248L275 255Q277 257 279 255T280 250Q270 234 267 215T256 183T229 173ZM74 -108Q73
-105 75 -103L108 -65Q127 -46 142 -24T167 22Q170 30 170 40Q170 47 167 51Q163 58 167 58Q176 58 186 51Q204 38 204 14Q204 9 203 4T200 -8Q191 -36 159 -56T95 -93Q90 -95 88 -100Q86 -105 83 -107Q75 -111 74 -108Z" />
<glyph unicode="&lt;" glyph-name="less" horiz-adv-x="320" d="M211 77Q200 96 173 121T117 170T69 207Q68 208 68 210L67 212Q72 220 93 236T142 273T202 312T259 348T300 371Q305 373 312 375T325 378Q338 378 331 365Q331 364 312 350T265 316T210 275T163
240T144 226Q156 215 175 193T209 145T224 100Q224 84 211 77Z" />
<glyph unicode="=" glyph-name="equal" horiz-adv-x="397" d="M128 238Q121 238 119 239H117Q115 239 118 244Q123 250 132 261T150 282T167 292H169Q177 285 200 283T252 280Q267 280 296 281T351 284T385 288Q386 288 386 286Q383 282 375 271T363 258Q352 253
324 249T260 243T193 239T143 238H128ZM72 121Q52 121 50 122H48Q45 122 48 127Q53 133 62 144T81 165T97 174H99Q107 168 130 166T182 163Q199 163 227 164T281 167T316 171Q316 171 316 171V171Q315 171 315 169Q313 165 305 154T294 141Q282 136 253 132T190
126T123 122T72 121Z" />
<glyph unicode="&gt;" glyph-name="greater" horiz-adv-x="378" d="M86 88Q78 88 78 93Q78 97 81 101Q83 104 99 116T135 142T167 165Q184 176 205 191T244 219T269 240Q258 250 239 272T204 321T189 366Q189 381 201 388Q212 370 237 347T292 300T343 258Q345
256 345 253Q339 244 312 224T256 183Q221 159 182 135T112 95Q100 88 86 88Z" />
<glyph unicode="?" glyph-name="question" horiz-adv-x="311" d="M192 125Q183 125 176 132T167 150V161Q167 167 168 173Q177 212 224 263Q248 289 274 323T324 391Q347 428 353 453Q355 459 355 464T355 474Q355 496 345 509T313 523Q285 523 259 502T213 453T184
404Q178 390 175 390Q172 390 172 397Q172 405 176 416Q199 480 246 513T353 547Q394 547 410 530T427 484Q427 448 409 415T365 354T313 305L255 260Q226 237 205 201Q200 193 198 185L193 172Q192 169 192 166T192 161Q192 145 204 139Q207 137 207 134Q205 127
198 126Q196 125 192 125ZM127 -7Q116 -7 110 -2T99 12Q96 17 96 21Q96 27 99 32T107 41Q114 46 122 51T139 61L153 68Q158 70 166 75Q169 77 171 75T172 70Q163 56 159 38T149 6T127 -7Z" />
<glyph unicode="@" glyph-name="at" horiz-adv-x="568" d="M244 -2Q174 -2 139 33Q96 76 96 148Q96 187 110 234Q129 295 168 348Q206 400 260 435T379 470Q445 470 482 443Q512 420 526 388T540 318Q540 310 540 302T538 286Q531 238 510 197Q488 156 454 129T379
101Q356 101 346 113T336 145Q336 161 342 178T357 211Q342 189 323 166T281 128T237 112Q215 112 206 125T196 157Q196 178 205 203T227 251Q245 281 272 307T328 351T386 368Q401 368 417 364T443 347Q448 340 449 334T451 322Q451 306 443 306Q438 306 433 318Q423
345 400 345Q382 345 360 331T316 293Q290 267 270 236T240 179Q236 168 233 159T230 144Q230 131 241 131Q255 131 278 150Q294 163 314 182T351 222T376 255L388 275Q397 284 413 284Q422 284 427 281T430 270Q430 270 425 260T412 236T398 211T390 196Q383 180
377 163T371 133Q371 117 384 117Q413 117 437 142Q461 166 476 203T497 283Q498 291 498 299T499 314Q499 338 494 363Q485 400 461 424T395 449Q342 449 295 417Q248 385 213 337T159 234Q149 206 144 181T139 132Q139 83 162 51T240 18Q279 18 308 34T363 68Q357
40 326 19T244 -2Z" />
<glyph unicode="A" glyph-name="A" horiz-adv-x="707" d="M496 -228Q470 -228 448 -209Q435 -198 430 -181T425 -142Q425 -111 433 -75T451 -5T470 55Q477 76 489 109T514 175T536 230Q530 230 507 228T454 223T402 216T374 210Q358 195 336 171T291 122T247 78Q210
44 171 21T89 -3Q35 -3 9 32T-17 119Q-17 184 20 247Q40 282 72 321T143 395T225 451T307 473Q313 473 321 472T330 467L316 465Q288 461 255 441Q187 400 123 322Q91 284 67 244Q42 204 28 164T13 89Q13 55 29 40T68 24Q94 24 125 41Q166 65 192 89T241 139T292
194L253 186Q230 181 208 181Q179 181 165 190T151 211Q151 230 179 244Q199 252 221 256Q243 259 259 263Q261 263 261 262Q261 260 259 260Q251 259 241 253T230 244Q235 245 250 246T284 250T320 255T345 260Q390 303 435 364T522 490T595 609Q598 615 609 635T633
681T657 727T672 756Q675 762 677 762Q679 762 679 759T678 752Q628 635 566 512T421 266Q429 267 449 267T491 269T530 271T551 273Q567 311 585 362T620 468T646 572T654 657Q662 662 671 669Q679 676 688 676Q711 676 720 652T730 602Q730 577 721 542T699 469T670
395Q653 357 636 322T613 273Q640 273 670 267T720 247T741 208Q741 204 741 201T739 192Q736 182 732 182Q730 182 730 187Q730 189 731 191T732 197Q732 201 729 205Q720 217 697 222T645 227T595 228Q587 213 571 178T538 101T506 21T485 -40Q481 -53 474 -76T461
-125T455 -171Q455 -197 468 -200Q488 -204 509 -190T551 -154T593 -117Q603 -112 596 -121Q589 -126 581 -140T565 -168T554 -190Q545 -209 530 -218T496 -228Z" />
<glyph unicode="B" glyph-name="B" horiz-adv-x="865" d="M247 -190Q241 -190 238 -189Q228 -185 224 -168T219 -125Q219 -97 223 -66T233 -6T244 39Q231 46 215 62T192 94Q190 102 190 107Q190 112 192 118Q194 121 196 120T199 117Q202 103 213 92Q224 81 236
73T251 62Q257 83 280 130Q302 176 333 237T402 368L473 505Q507 572 536 630T581 727Q572 716 556 691T523 639T493 590Q465 545 438 498Q410 450 380 405T318 321Q285 281 248 252Q210 223 168 207T77 192Q43 194 24 223T4 285Q4 304 10 319Q20 342 41 368T88
416T135 450Q140 452 140 450Q140 447 137 444Q124 431 109 407T79 354T55 299Q47 273 47 253Q47 234 55 221T82 208Q121 208 165 238Q208 268 253 315T343 420Q387 478 427 535Q448 566 472 601T518 668T554 718Q570 738 578 748T603 758Q620 758 626 748T632
722Q632 706 627 687T615 654Q579 577 538 501T456 349Q414 273 376 196T308 39Q315 37 330 34T356 30Q373 77 390 120T428 213Q449 261 476 319T543 455Q559 487 580 527T628 605T685 667T753 691Q793 691 813 667T834 612Q834 601 831 589Q823 550 797 512T733
442T654 389Q748 375 806 334T865 235Q865 193 844 159Q823 124 788 98T705 52Q658 33 605 22Q568 14 529 10T452 5Q421 5 391 8Q383 -21 369 -58T333 -128T284 -179Q276 -183 267 -186T247 -190ZM423 27Q449 27 479 30Q568 38 646 72Q684 88 713 112Q742 135 759
164T777 230Q777 287 735 324T628 368Q624 364 613 349T597 328Q590 318 582 330T574 358Q574 374 583 384Q587 389 600 391T631 392L661 427Q685 456 710 489T752 558T770 634Q770 649 765 658T746 668Q725 668 701 649Q677 630 653 600T607 534Q584 498 565 464Q546
430 533 402T513 361Q460 236 433 148L396 28Q403 28 409 28T423 27ZM262 -168Q269 -168 279 -152T300 -112T321 -61T340 -15T351 13Q340 14 324 16T301 22Q297 16 290 -2T277 -40T268 -72Q265 -86 261 -110T257 -152Q257 -168 262 -168Z" />
<glyph unicode="C" glyph-name="C" horiz-adv-x="662" d="M258 -83Q169 -83 124 -28T78 115Q78 136 80 156Q91 257 141 348T268 511Q228 518 181 531T91 564T21 610T-6 672Q-6 692 8 704T42 721T82 727Q115 727 159 716T245 689T315 654Q319 651 324 647T329 636Q329
632 325 631T319 631Q267 658 201 673T76 688Q62 688 48 684T34 665Q34 653 42 642T59 622Q100 583 162 560T284 526Q356 589 438 626Q497 652 560 664T699 677Q724 675 753 669T804 647T825 603Q825 577 807 558T759 527T698 509Q668 502 634 499T567 494T514
492Q475 492 437 493T360 498Q294 440 244 365Q214 317 192 265T159 155Q155 137 154 119T152 82Q152 21 179 -19T268 -60Q304 -60 346 -44Q387 -29 428 -2T508 60Q546 95 575 134Q604 173 621 213T639 291Q639 313 628 321T597 329Q571 329 540 314Q509 298 477
273T415 215Q384 183 361 150Q337 116 323 85T309 29Q309 24 307 17T298 10Q292 10 291 16T290 25Q290 53 301 84T323 140Q343 177 371 216T436 288T513 342T597 363Q636 363 658 347T681 290Q681 215 643 148T545 29Q484 -22 409 -52T258 -83ZM420 517Q465 517
517 521T620 534T714 557Q725 560 737 564T759 574Q768 578 781 587T795 608Q795 621 779 626T741 633T707 634Q615 634 533 603T382 517H420Z" />
<glyph unicode="D" glyph-name="D" horiz-adv-x="950" d="M227 -129Q203 -129 203 -94Q203 -86 204 -77T207 -57Q213 -29 228 16T263 111T303 207T339 284Q352 310 369 348T405 430T439 516T465 594T476 651Q448 581 413 528T335 429Q314 407 285 379T223 323T158
279T101 261Q56 261 37 279T14 322V330Q14 341 19 344Q19 344 19 344T21 345Q25 345 25 336Q25 325 29 312T48 299Q62 299 94 307T165 338Q213 365 278 422T422 582Q441 607 456 638T484 693T514 724Q523 728 533 728Q549 728 558 716T568 677Q568 664 565 647Q562
631 549 598Q535 565 516 524T475 436Q452 389 430 345Q417 321 403 294T376 242T356 202Q346 182 331 150T301 84T275 26Q267 7 257 -17T238 -62T227 -89Q226 -92 226 -98Q226 -104 229 -104Q233 -104 238 -95Q241 -91 253 -65Q259 -50 271 -24T297 34T324 92Q347
143 375 199Q402 254 432 310T494 416Q542 491 582 547T659 640Q696 676 733 694T811 713Q868 713 910 680T976 590T999 460Q999 393 974 325Q949 257 907 194T807 76Q750 20 686 -20Q621 -61 553 -84T419 -108Q374 -108 344 -95Q313 -83 305 -75Q296 -66 296 -60Q296
-57 298 -57Q300 -57 308 -62Q319 -70 348 -73T407 -76Q458 -76 514 -51T625 14T726 101T803 193Q862 280 897 365T933 521Q933 562 922 597T885 654T814 676Q789 676 762 662T708 625T660 579T621 534Q535 419 454 295T317 31Q311 15 302 -11T281 -65T255 -110T227
-129Z" />
<glyph unicode="E" glyph-name="E" horiz-adv-x="696" d="M161 -94Q145 -94 130 -93T98 -90Q50 -82 19 -54T-12 21Q-12 29 -11 37T-8 55Q2 89 33 125T110 194T206 254T306 296Q244 296 213 322T181 388Q181 423 192 453T224 512Q161 520 114 533T43 561Q31 570
31 574Q31 577 36 577Q40 577 52 572Q84 556 132 546T240 531Q274 569 323 599T427 650T535 682T631 693Q656 693 686 686T737 664T759 622Q759 591 735 570T675 535T598 514T526 503Q500 501 473 500T419 498Q386 498 353 500T287 505Q258 478 237 447T216 382Q216
354 246 331T327 308Q352 308 380 315T420 322Q431 324 440 311T449 287Q449 276 439 276Q408 273 372 262Q299 240 223 193Q186 170 154 144Q121 117 96 88T55 30Q51 22 49 15T47 1Q47 -40 146 -40Q180 -40 225 -32T319 -10T411 23Q436 34 469 55T534 103T587
158T608 210Q608 229 583 229Q565 229 538 220T481 195T422 161T375 124Q366 116 358 116Q352 116 352 123Q352 128 355 133T365 145Q377 155 401 174T454 212T514 244T567 258Q597 258 619 244T641 192Q641 160 622 129T574 69T511 17T448 -21Q390 -51 315 -72T161
-94ZM316 528Q427 526 527 542Q548 545 580 551T644 568T697 591T719 621Q719 632 702 636T663 642T623 643Q565 643 510 627T415 590Q396 579 370 564T316 528Z" />
<glyph unicode="F" glyph-name="F" horiz-adv-x="619" d="M316 -174Q312 -174 308 -170Q282 -139 282 -73Q282 -55 284 -36T290 2Q301 63 331 135T399 282Q359 276 311 269T221 257T158 252Q145 253 139 260T133 275Q133 290 146 300Q161 308 181 311Q200 313
214 316Q216 317 216 316T214 315Q207 313 199 308T189 299Q238 305 298 311T420 321Q452 380 486 435T552 536Q583 581 609 613T650 659Q655 664 660 668L670 675Q625 675 567 667Q508 659 447 645T325 609Q264 588 217 561Q169 533 139 500T107 428Q107 417 111
404T138 384Q146 382 144 380T137 377Q127 377 108 381T70 395T38 418T24 453Q24 498 64 534Q101 568 157 593T281 635Q348 652 408 663Q441 668 473 672T532 679T570 683Q586 684 610 685T657 687T689 688H690Q706 697 718 701T740 705Q760 705 760 689Q760 679
752 665T724 634Q691 602 652 551T573 439T499 322H512Q536 322 562 319T606 305T624 273Q624 267 621 258Q616 247 614 249Q611 250 613 255Q616 261 613 269Q605 281 586 286T545 293T503 293L482 291Q447 230 415 165T359 38T321 -75Q310 -116 310 -142Q310
-159 316 -168Q318 -170 318 -172Q318 -174 316 -174Z" />
<glyph unicode="G" glyph-name="G" horiz-adv-x="644" d="M34 -363Q-3 -363 -21 -347T-40 -302Q-40 -277 -25 -244T23 -174Q58 -132 115 -87T238 -2Q303 37 370 67T494 109Q515 152 527 197T540 280Q540 316 526 335L514 310Q511 305 508 298T499 283Q478 246
447 204T376 125T289 65T186 42Q178 42 170 42T154 44Q94 51 66 88T38 176Q38 183 38 190T40 204Q48 271 82 340T165 471T268 576Q327 624 396 654T534 685Q543 685 552 685T570 683Q596 679 618 662T641 614Q641 603 636 588Q625 552 598 511T532 432Q516 416
484 391T414 342T340 303T279 290Q277 291 277 294Q277 297 279 297Q352 324 409 367T517 468Q524 476 535 492T559 526T579 559Q595 590 595 615Q595 627 591 637T576 654Q563 662 546 662Q513 662 470 640T383 586T306 523Q289 507 264 478Q239 449 213 413T161
335Q135 293 117 253Q104 224 97 197T89 146Q89 131 94 114Q104 86 123 74T165 62Q182 62 200 67T238 82Q263 94 291 112T344 148T381 179Q441 235 472 275T520 339Q517 342 511 344Q502 345 502 351Q502 358 512 361Q523 361 539 359T566 343Q589 317 589 259Q589
200 554 116Q580 116 603 110T641 89Q646 82 644 78T637 78Q632 83 620 85T593 87Q580 87 566 86T540 84Q492 -20 436 -95T323 -221Q266 -272 212 -302T114 -348Q68 -363 34 -363ZM26 -340Q65 -340 121 -306Q170 -276 222 -229T323 -128Q371 -75 411 -22T474 70Q427
57 370 32T255 -27T144 -97T55 -173Q16 -213 -1 -245T-19 -300Q-19 -340 26 -340Z" />
<glyph unicode="H" glyph-name="H" horiz-adv-x="873" d="M673 -59Q658 -59 649 -24Q634 -7 607 19T547 73T481 123Q456 125 438 135T420 164Q420 178 428 182T448 187Q456 187 464 186T482 185Q523 184 558 183T624 181Q644 181 662 181T699 183Q719 227 744
278T797 381Q818 421 846 467T905 558T965 639T1018 696Q1032 709 1056 727T1106 758T1147 769Q1151 768 1152 764T1149 761Q1141 762 1130 755T1108 737T1089 719Q1034 662 993 602T917 476T845 339Q827 303 810 264T775 187Q795 188 820 187T864 182T880 166Q877
156 866 158L849 161Q833 166 826 169T805 173Q801 173 797 173T787 171L766 168Q742 111 725 63T703 -12Q692 -59 673 -59ZM133 235Q90 233 73 257T55 306V314Q55 327 60 329Q61 329 63 329Q67 329 67 321Q67 310 70 297T90 283Q103 283 135 291T206 322Q254 349
319 406T463 566Q480 589 496 620T526 678T552 713Q562 718 568 718Q579 718 579 707Q579 694 563 682Q554 676 539 660T517 631Q488 561 451 497T371 388Q343 357 305 321T223 260T133 235ZM266 -288Q242 -288 220 -280T181 -231Q171 -207 171 -172Q171 -134 180
-93T204 -16T231 43Q251 79 275 117T324 191Q344 220 368 254T405 309L427 344Q443 370 462 402T501 471Q520 507 533 540Q541 559 545 575T549 604Q549 625 537 634Q532 637 532 639Q532 644 544 641Q561 636 567 623T574 594Q574 581 571 567T563 542Q547 487
496 390T374 162Q327 76 299 9T256 -107Q246 -142 240 -173T234 -224Q234 -262 250 -271Q262 -279 270 -281Q274 -282 274 -284Q274 -288 266 -288ZM643 7Q643 19 644 33T650 61Q653 74 662 97T684 152Q649 145 610 138T536 125Q553 110 573 89T611 46T643 7Z"
/>
<glyph unicode="I" glyph-name="I" horiz-adv-x="584" d="M416 -182Q416 -185 412 -185T406 -181Q393 -168 387 -138T379 -76T378 -21Q357 -26 330 -32T275 -45T226 -56T195 -62Q172 -64 144 -67T91 -70Q60 -70 48 -64Q38 -61 38 -46Q38 -32 46 -15T63 8Q77 17
94 14Q110 10 124 8Q130 6 149 4T194 0T242 -5T277 -8Q292 -9 321 -7T379 -2Q384 45 404 107Q424 168 452 234T515 366Q549 431 581 486Q612 541 638 580T678 635Q695 652 708 660Q677 658 639 649Q601 639 561 623T484 582Q446 558 417 528Q388 497 370 461T352
383Q352 373 355 360T374 339Q379 337 378 335T374 332Q361 332 342 340T307 367T292 414Q292 461 318 498Q343 535 382 562T468 609Q514 628 556 641Q590 651 623 658T669 666Q678 667 686 668T702 671L726 674Q733 674 736 670Q751 673 762 673Q792 673 792 653Q792
637 770 616Q756 603 737 578T696 519T653 452T614 388Q583 333 549 270T484 138T432 3L441 6L446 8Q458 11 466 12T480 13Q489 13 489 10Q489 8 479 3T446 -6L428 -9Q418 -46 412 -81T406 -148Q406 -171 414 -179L416 -182Z" />
<glyph unicode="J" glyph-name="J" horiz-adv-x="701" d="M47 -240Q10 -240 -14 -227T-49 -189Q-57 -174 -57 -149Q-57 -117 -40 -77T13 9Q55 61 123 114T271 213Q349 257 429 288T576 327Q598 377 610 433T622 535Q622 564 617 586T600 620Q550 615 498 602T401
567T324 513T284 438Q284 434 284 430T283 421Q283 413 286 404T301 389Q307 385 305 383T299 382Q286 385 267 397T233 429T224 478Q233 524 269 554T356 600T465 624T573 634Q568 637 568 642Q568 648 574 649Q582 654 595 654Q606 654 617 650T639 634Q647 634
654 634T670 633L688 631Q699 630 709 630T727 629Q742 629 752 627Q764 624 764 619Q764 612 742 615Q722 620 699 621T649 622Q671 585 671 523Q671 480 661 430T631 328Q662 324 690 313T733 282Q738 276 738 269Q738 259 730 269Q721 278 702 282T659 287T615
287Q562 156 498 65T369 -87Q303 -147 240 -180T125 -228Q82 -240 47 -240ZM32 -210Q53 -210 78 -202T133 -174Q212 -123 278 -64T398 57Q451 117 490 174T553 279Q496 267 428 242T292 181Q224 145 162 101T53 6Q9 -41 -11 -80T-31 -149Q-31 -177 -14 -193T32
-210Z" />
<glyph unicode="K" glyph-name="K" horiz-adv-x="654" d="M799 -226Q752 -226 715 -197Q678 -169 646 -118T584 -6T523 112T459 210Q410 149 369 87T290 -48Q273 -79 256 -103T224 -128Q201 -128 201 -93Q201 -86 202 -78T205 -59Q210 -33 224 10T258 102T296
195T331 269L339 284Q311 286 281 279T222 252Q210 245 210 250Q210 262 235 275Q249 282 272 290T325 299Q330 299 335 299T346 298Q362 330 381 375T419 468T449 556T463 619Q437 552 403 502T328 407Q308 386 280 359T219 306T157 263T101 246Q59 246 40 263T17
304V309Q17 323 23 326Q23 326 25 326Q29 326 29 317Q29 307 33 295T52 283Q65 283 95 290T163 319Q210 345 273 399T412 552Q432 578 445 607T471 658T500 689Q508 692 513 692Q532 692 542 669T553 616Q553 609 553 603T551 589Q548 570 532 533T491 449T443
359T401 281Q430 264 454 243Q468 261 481 280Q494 298 508 316Q552 375 608 442T730 574Q794 637 864 690T1005 773Q1020 779 1035 784T1065 793Q1068 794 1070 794T1074 795Q1079 795 1081 791Q1083 784 1079 785Q1064 789 1039 777T986 745T935 706Q913 688
886 663T835 617T802 585Q788 572 763 546T706 487T641 417T577 346T523 285Q509 269 497 255T473 225Q504 194 538 148T608 51T676 -44T739 -117Q768 -142 796 -164T848 -187Q864 -187 877 -174Q890 -161 896 -140T905 -96T913 -54Q914 -52 916 -52Q917 -52 917
-62Q917 -81 920 -97T923 -128Q923 -141 919 -154T900 -182Q878 -204 852 -215T799 -226ZM226 -104Q229 -104 235 -94Q239 -86 258 -55T299 10Q327 54 364 110T444 227Q432 240 420 250T394 267L359 199Q354 189 343 166T318 115T293 63T275 26Q267 9 256 -15T235
-60T224 -87Q223 -89 223 -91T223 -96Q223 -104 226 -104Z" />
<glyph unicode="L" glyph-name="L" horiz-adv-x="850" d="M5 -145Q-33 -145 -50 -125T-67 -82Q-67 -78 -67 -75T-66 -68Q-58 -33 -26 0T60 55T188 77Q207 77 227 75T266 68Q290 96 313 131T361 205H342Q333 205 323 206Q254 211 210 243T166 340Q166 349 167 358T170
377Q178 427 209 465T283 530T369 572T443 591H448Q453 591 453 588Q453 584 443 583Q414 578 378 561T307 515T245 450T210 366Q207 350 207 336Q207 283 242 258T337 224Q345 223 354 223H373L437 334Q470 392 505 447T580 553Q618 603 661 641Q703 679 750 701T851
723Q885 723 900 702T915 652Q915 647 915 641T913 629Q899 556 856 486T748 359Q683 302 602 263T432 210Q400 162 371 123T319 55Q349 46 378 36T436 14Q455 7 482 -6T537 -35T588 -60Q618 -74 647 -83T704 -93Q724 -93 742 -87Q759 -80 767 -46T775 30Q775 58
771 87T760 141Q759 144 761 144Q763 143 769 132Q788 95 807 65T827 -1Q827 -8 826 -16T822 -32Q815 -56 790 -75T745 -101Q718 -109 690 -109Q644 -109 593 -95T495 -62T415 -29Q389 -18 353 -8T278 11Q243 -24 196 -60T99 -120T5 -145ZM446 231Q517 247 590
286T726 380Q788 434 832 498T888 627Q889 630 889 633T889 640Q889 657 880 669T846 681Q825 681 798 664Q768 645 735 612T665 534Q628 489 591 439Q554 388 517 335T446 231ZM10 -124Q47 -124 86 -100T160 -42T224 22Q203 23 185 25Q130 27 81 16T-3 -17T-45
-69Q-46 -72 -46 -80Q-46 -95 -35 -109T10 -124Z" />
<glyph unicode="M" glyph-name="M" horiz-adv-x="1065" d="M1026 -215Q982 -215 957 -188T922 -120T911 -37Q911 -9 914 15Q918 52 929 96T956 184T986 267T1013 333Q1035 388 1054 436T1079 523Q1079 525 1079 527T1080 530Q1080 546 1068 546Q1052 546 1021
522T960 466Q912 418 869 363T792 250Q759 193 740 137T720 29Q688 29 675 47T662 92Q662 110 666 127Q673 162 688 202T713 264Q718 278 731 312T757 379Q771 420 787 467T818 563Q835 620 847 673T859 760Q859 781 854 794T836 808Q809 808 777 785T713 725T658
650Q608 570 575 499T515 354Q504 325 491 284T463 197T435 105T409 24Q390 -32 367 -81T312 -161T239 -192Q214 -192 204 -171T194 -117Q194 -94 198 -68T210 -17Q237 74 283 170T380 363Q400 403 425 451T477 549T525 645T561 727Q555 716 539 691T505 639T474
590Q446 545 418 498Q390 450 360 405T298 321Q265 281 228 252Q190 223 148 207T57 192Q23 194 4 223T-16 284Q-16 304 -9 319Q1 342 22 368T68 416T115 450Q120 452 120 450T117 444Q105 432 89 408T59 354T36 299Q28 273 28 252Q28 233 36 221T62 208Q101 208
145 238Q189 267 234 313T324 418Q368 475 408 532Q429 563 453 599T500 667T535 718Q542 729 554 743T583 758Q600 758 606 747T612 720Q612 704 607 686T596 654Q566 591 535 533T472 417Q440 359 409 301T348 178Q340 161 325 127T294 53T264 -20T247 -72Q243
-90 242 -104T240 -130Q240 -170 257 -170Q270 -170 289 -145T329 -69Q351 -15 366 25T394 101Q405 131 419 170T449 252T480 335T509 408Q541 485 579 560T665 704Q752 830 844 830Q885 830 908 808T932 747Q932 741 932 735T930 722Q922 676 905 619T865 501T817
382T769 275Q795 315 831 360T906 446T982 520T1048 568Q1070 581 1092 581Q1109 581 1123 573T1143 551Q1151 534 1151 510Q1151 485 1142 457T1119 397Q1107 372 1090 336T1055 262T1026 192Q1018 171 1007 135Q995 98 986 56T973 -30Q972 -39 972 -47T971 -64Q971
-76 972 -87T975 -109Q981 -145 1000 -167T1057 -190Q1071 -190 1086 -187T1113 -173Q1121 -169 1126 -169Q1130 -169 1130 -172Q1130 -177 1120 -184Q1103 -200 1079 -207T1026 -215Z" />
<glyph unicode="N" glyph-name="N" horiz-adv-x="791" d="M88 -207Q56 -207 33 -175Q23 -161 23 -138Q23 -113 33 -84T58 -24T90 32T118 76Q139 111 172 159T239 256T300 344Q347 415 386 485T444 622Q451 626 462 630T481 634Q496 628 498 615L512 616Q533 615
533 595Q533 589 531 582T526 566Q517 547 505 509T479 421T453 321T434 227Q427 189 423 150T418 76Q418 22 431 -15T480 -52Q502 -52 533 -24Q565 4 600 52T673 164Q709 227 740 296Q770 365 792 434T821 565Q822 577 823 593T824 626Q824 640 823 653T820 677Q811
718 783 718Q767 718 742 701Q734 695 734 700Q734 705 739 713Q751 721 767 731T802 741Q852 741 874 708T897 627Q897 572 877 500T825 348Q797 279 762 211T688 83Q661 42 626 7T552 -50T481 -72Q444 -72 425 -46Q404 -20 395 23T386 123Q386 147 387 172T392
224Q397 281 407 338T428 446Q413 423 388 389T335 318T285 252Q243 194 198 127T109 -18Q104 -27 94 -44T72 -82T54 -123T46 -156Q46 -168 54 -171Q61 -175 71 -175Q89 -175 111 -164T155 -140T197 -118Q198 -117 200 -117Q197 -117 184 -130T158 -159T140 -181Q117
-207 88 -207ZM117 346Q106 346 86 355T49 382T32 425Q32 452 42 475T72 518Q108 554 160 579T275 618Q336 632 391 640Q436 647 480 649T540 653H543Q554 653 554 649Q554 642 536 642Q517 642 496 642T451 638Q406 631 359 617T266 582Q220 561 184 534Q147 506
124 472T97 399Q96 396 96 388Q96 378 101 368T120 353Q125 349 123 347T117 346Z" />
<glyph unicode="O" glyph-name="O" horiz-adv-x="676" d="M210 -130Q153 -130 116 -105Q78 -80 57 -39T28 54Q26 69 25 85T24 117Q24 128 24 138T26 159Q30 213 44 263T78 352Q112 415 161 473T270 576Q328 621 390 647T512 674Q590 674 622 634T654 535Q654 509
649 481T635 424Q652 399 660 368T668 303Q668 274 663 246T647 194Q613 117 562 57T451 -45Q391 -87 329 -108T210 -130ZM239 -107Q284 -107 331 -88T424 -30Q469 9 511 69T590 212Q604 242 618 286T633 370Q633 389 629 402Q618 372 606 346T583 301Q532 216
493 165T418 82Q388 55 349 31T275 -14Q267 -19 272 -11Q277 -3 283 2Q336 42 387 98T483 221T561 359L563 366Q568 377 575 402T586 459L568 467Q555 473 540 473Q536 473 532 473T524 472L492 467Q483 465 489 473Q495 480 504 482Q507 482 512 482T523 483Q534
483 547 481T574 473L588 467Q590 481 591 495T592 524Q592 558 585 587T562 634T517 653Q456 653 402 624T300 547Q252 498 214 436T145 306Q115 239 102 182T88 78Q88 57 90 38T98 2Q114 -51 151 -79T239 -107Z" />
<glyph unicode="P" glyph-name="P" horiz-adv-x="843" d="M230 -184Q228 -184 225 -184T220 -183Q210 -179 206 -165T202 -129Q202 -120 202 -111T204 -91Q209 -36 230 27Q251 89 282 154T350 288Q387 356 424 422Q461 487 494 549T551 667Q552 669 554 675T552
681Q544 669 532 646T504 596T475 545T450 504Q395 418 338 339T205 206Q175 187 133 172T56 156Q22 156 4 178T-15 236Q-15 267 0 300Q11 325 40 360T109 429T194 485Q201 489 197 483Q192 477 187 473Q124 413 91 361T45 270Q32 234 32 209Q32 176 58 176Q76
176 101 188T151 216T191 244Q223 271 257 308Q290 344 322 384T384 466L441 546Q467 584 489 615T528 666Q536 677 546 687T572 697Q592 697 599 686T607 660Q607 640 597 622Q573 576 541 520Q508 463 473 402T403 276Q367 211 336 149Q305 87 283 30T250 -75Q242
-110 240 -136V-148Q240 -163 244 -163Q248 -163 258 -144Q268 -126 282 -95T314 -23L350 64Q369 109 389 155T428 244Q440 271 458 308T498 385T544 463T590 530Q656 619 715 666T849 721Q854 722 858 722T866 722Q926 722 964 683T1003 577Q1003 528 975 476T902
377T805 291Q744 249 676 220T543 185Q535 184 527 184T512 183Q496 183 482 186Q458 192 451 197Q442 202 442 205Q442 210 453 205Q463 200 485 200Q496 200 508 201T534 204Q573 208 616 229T702 281T780 342Q793 352 812 374T854 426T896 486T929 544Q954 594
954 627Q954 662 934 678T879 695Q850 695 821 686Q785 674 748 650T681 592Q614 516 558 434T459 262Q448 239 435 201Q428 179 418 148T396 85T375 28Q358 -19 340 -59Q322 -100 303 -131T264 -174Q258 -178 249 -181T230 -184Z" />
<glyph unicode="Q" glyph-name="Q" horiz-adv-x="752" d="M701 -302Q666 -301 625 -281T544 -231T468 -170T409 -118L369 -85Q301 -115 238 -115Q169 -115 116 -78T44 44Q12 40 -11 29T-43 0Q-50 -13 -57 -13Q-60 -13 -60 -9Q-60 8 -36 36T38 79Q37 87 37 95T36
112Q36 166 51 223T91 333T143 425Q173 470 215 513T307 592T411 652T519 681Q528 682 536 682T553 682Q621 682 655 656T689 565Q689 548 683 548Q678 548 678 563Q678 600 648 621T583 642Q513 642 450 610T331 529Q276 480 233 421T159 306Q127 249 109 194T85
87Q91 88 97 88T111 89Q137 89 166 83T230 63Q273 46 314 19T394 -41Q426 -22 460 7T526 79Q557 121 584 178T630 309Q638 343 644 380T651 451Q651 489 641 520T604 571T531 590Q506 590 480 583T434 568Q432 567 430 567Q427 567 427 570Q427 573 433 579T446
588Q457 592 483 598T538 605Q595 605 633 575T690 497T710 393Q710 331 685 265T617 136Q575 74 523 22T416 -62L439 -82Q456 -96 477 -118T522 -165T564 -208Q598 -241 633 -264T701 -286Q718 -286 732 -263T757 -202Q765 -170 770 -135T775 -69Q775 -66 777
-66Q779 -66 782 -81Q790 -114 798 -144T807 -203Q807 -235 791 -261Q777 -283 750 -293T701 -302ZM235 -89Q290 -89 344 -66Q309 -40 273 -18T207 16Q175 30 144 36T84 45Q90 -25 132 -57T235 -89Z" />
<glyph unicode="R" glyph-name="R" horiz-adv-x="848" d="M224 -157Q221 -157 213 -155Q201 -151 198 -126Q196 -121 196 -115T196 -102Q196 -94 196 -86T198 -70Q203 -19 223 39Q242 97 270 158T334 283L403 408Q437 469 468 527T522 636Q523 638 524 643T523
649Q520 644 507 622T478 571T448 518T427 484Q377 405 324 332T199 207Q180 193 154 183T102 166T55 160Q26 162 10 183T-6 235Q-6 263 8 294Q19 318 45 350T109 414T190 466Q193 468 193 468T192 465L183 455Q124 401 94 353T49 266Q37 230 37 210Q37 176 67
179Q82 180 106 191T152 217T185 241Q231 279 277 335T365 449Q388 481 413 517T461 586T499 635L518 656Q526 665 540 665Q559 665 566 654T574 629Q574 620 572 612T565 595Q543 552 513 500Q482 447 449 390T383 272Q349 211 321 154Q292 96 271 43T240 -55Q233
-88 232 -113Q231 -116 231 -122Q231 -138 236 -138Q240 -138 251 -117T275 -65T301 -7Q315 25 334 70T372 160T407 241Q423 276 447 327T499 429T557 519Q599 576 636 611T712 664T798 688Q802 689 806 689T814 689Q870 689 906 653T942 557Q943 511 921 468T861
387T776 321Q724 289 668 269T557 243Q571 222 585 197T612 148Q629 117 644 86T683 15Q697 -8 714 -33T749 -75T783 -92Q797 -92 807 -63Q815 -38 816 -10T818 36Q818 41 821 42T826 36Q828 25 837 5Q846 -15 846 -45Q846 -78 827 -97T781 -121Q775 -122 770 -122T758
-123Q713 -123 683 -97T628 -22T578 95Q561 143 542 181T505 240Q473 240 462 244Q459 246 457 248T457 256Q461 267 473 275T498 283Q522 283 544 256Q595 261 642 288T741 358Q782 393 814 429T874 521Q897 568 897 599Q897 631 879 647T828 663Q815 663 801
661T773 653Q739 642 705 620T643 567Q580 496 529 415T437 251Q427 229 415 194Q408 175 398 147T378 90T359 37Q343 -6 326 -43Q309 -80 291 -108T255 -147Q249 -151 241 -154T224 -157Z" />
<glyph unicode="S" glyph-name="S" horiz-adv-x="546" d="M318 -88Q306 -88 293 -87T266 -84Q214 -76 168 -50T86 17T29 103Q25 108 28 110T33 107Q41 92 54 77T83 47Q121 13 162 -5T256 -24Q322 -24 357 -5T393 47Q393 83 355 125Q336 145 312 175L263 235Q220
288 193 330T165 417Q165 441 174 467T206 524Q139 534 90 546T22 573Q10 580 5 586T-1 595Q-1 599 4 599Q13 599 29 589Q57 569 107 559T218 543L241 569Q273 606 319 632T416 674T518 699T609 707Q635 707 664 699T715 675T737 634Q737 630 736 625T733 615Q720
578 673 557T560 525Q485 513 400 513Q331 513 268 519Q240 491 227 460T213 395Q213 323 271 251Q299 218 328 188T388 126Q420 95 435 65T450 7Q450 -35 416 -61T318 -88ZM291 538Q343 538 399 542T510 555T608 578T681 613Q700 629 700 636Q700 646 661 652Q646
654 631 655T602 656Q540 656 487 641T392 603Q372 593 346 577T291 538Z" />
<glyph unicode="T" glyph-name="T" horiz-adv-x="677" d="M359 -151Q355 -151 350 -148Q322 -140 312 -111Q304 -85 304 -57Q304 -11 319 46Q331 94 348 141Q364 187 381 228T412 298Q441 359 471 416T528 522Q583 619 615 659Q577 666 537 670T452 675Q362 675
285 652T155 588Q122 563 107 540T92 497Q92 474 113 461T173 448Q252 448 318 470T448 532Q450 534 454 534Q457 534 457 532T453 526Q415 497 361 471T247 428T129 412Q122 412 115 412T101 413Q73 415 47 433T21 477Q21 519 47 553Q70 585 107 609T194 650Q243
666 295 676Q347 686 399 690T498 695Q574 695 642 685Q658 696 674 701T704 707Q718 707 727 702T736 686Q736 677 731 669Q765 662 804 652T881 633T949 619Q958 617 977 614T1020 607T1063 604Q1077 604 1086 606T1097 615Q1098 629 1086 644T1056 671T1022
682Q1019 682 1019 683Q1019 684 1022 685Q1027 686 1039 684T1064 678T1083 673Q1116 660 1116 632Q1116 617 1104 603Q1098 595 1091 588T1076 576Q1060 570 1042 568T1003 565Q955 565 900 576T792 604T700 635Q680 610 665 591T634 551T601 501Q563 441 525
374T454 235Q420 163 394 89T356 -57Q350 -91 350 -115Q350 -139 358 -147Q361 -151 359 -151Z" />
<glyph unicode="U" glyph-name="U" horiz-adv-x="868" d="M689 -278Q664 -278 642 -265Q623 -252 616 -229T608 -176Q608 -132 620 -84T644 -5Q657 32 678 86T722 202T767 322T805 425Q817 461 831 509T851 596Q833 545 804 487T739 371Q703 312 664 257T585 155Q558
123 522 88T446 22T366 -25Q350 -32 335 -35T308 -39Q278 -39 263 -21T247 28Q247 58 264 97Q273 115 293 152T339 235L444 427Q487 505 521 572T563 682Q551 662 535 634T502 576T472 526Q448 487 423 452T371 388Q342 357 304 321T223 260T133 235Q91 233 73
256T55 306V314Q55 327 60 329Q61 329 63 329Q67 329 67 321Q67 310 70 297T90 283Q103 283 135 291T206 322Q254 349 319 406T463 566Q482 592 497 621T527 675T555 708Q572 719 578 711Q591 704 596 689T601 653Q601 623 591 584T563 504T524 427Q505 391 481
349T434 265T392 191T365 141Q355 121 344 96T326 49T318 11Q318 -11 337 -11Q346 -11 365 -3Q391 9 421 33T481 88T537 149T580 202Q621 253 662 310T741 426Q777 484 805 540T850 646Q861 650 873 653T898 656Q915 656 925 649Q948 633 948 602Q948 586 936 548Q925
516 909 477T874 393L836 305Q825 282 813 255T791 203T774 162Q765 138 752 105T725 35T700 -34T683 -89Q680 -103 674 -127T662 -177T656 -224Q656 -255 675 -255Q697 -255 718 -237T762 -194T807 -153Q811 -149 812 -150T810 -156Q804 -162 795 -177T778 -207T766
-231Q756 -253 735 -265T689 -278Z" />
<glyph unicode="V" glyph-name="V" horiz-adv-x="604" d="M192 -126Q172 -126 160 -105T143 -57T138 -9Q138 43 154 106Q169 169 193 234T249 363Q280 426 311 480Q342 534 369 574T415 635Q422 643 430 648L446 658Q415 657 377 648Q298 630 221 585Q183 563
154 535Q125 506 107 473T89 401Q89 391 92 378T112 359Q117 356 115 354T110 352Q99 352 80 360T46 385T30 428Q30 472 56 507Q81 541 119 566T205 610Q251 628 293 640Q327 649 360 655T406 662Q428 665 450 667T499 668Q531 666 531 650Q531 637 508 616Q491
601 468 569Q445 537 419 495T365 406Q338 359 314 314Q290 269 271 231T241 169Q226 133 214 90T195 8T187 -52Q187 -97 201 -97Q210 -97 220 -76Q244 -31 284 29T376 158Q426 226 483 297T596 434Q723 585 846 669T1094 783Q1111 787 1125 788T1152 790Q1172
790 1184 787T1196 779Q1196 772 1163 772Q1128 772 1084 756Q1040 739 992 711T895 644Q845 606 798 564Q750 522 707 479T630 394Q571 323 513 252T404 118Q353 54 314 2T254 -82Q241 -103 227 -114T192 -126Z" />
<glyph unicode="W" glyph-name="W" horiz-adv-x="1195" d="M902 -158Q880 -158 862 -146Q832 -127 811 -86T777 13Q764 70 757 134Q752 180 750 226T748 315Q748 333 748 350T749 384Q712 322 669 264T585 155Q558 123 522 88T446 22T366 -25Q350 -32 335 -35T308
-39Q278 -39 263 -21T247 28Q247 58 264 97Q273 115 293 152T339 235L444 427Q463 461 484 500T523 577T553 646T563 697Q549 673 530 643T489 581Q464 544 433 498T368 406T305 328Q253 273 192 239T53 206Q17 208 -4 235T-25 292Q-25 309 -17 325Q-8 346 15 371T65
417T114 448Q119 451 119 449T115 443Q103 431 86 409T54 359T29 307Q22 285 22 263Q22 245 29 234T56 222Q96 222 143 250Q189 278 236 322T331 422Q377 477 419 530Q442 559 467 592T516 654T553 700Q559 706 565 714Q567 717 570 717Q573 717 578 712Q604 683
604 637Q604 592 583 539T532 430Q512 394 487 352T437 268T393 193T365 141Q355 121 344 96T326 49T318 11Q318 -11 337 -11Q346 -11 365 -3Q391 9 421 33T481 88T537 149T580 202Q624 257 669 317T752 440Q753 474 756 499T762 538Q766 555 777 563T801 571Q814
571 824 562T834 535Q834 532 834 529T833 523Q829 502 825 464T816 379T809 280T806 181Q806 169 806 158T807 135Q809 85 814 37T831 -50T861 -112T907 -135Q918 -135 928 -132Q956 -124 985 -93Q1045 -29 1089 91Q1111 150 1126 216Q1146 307 1146 399Q1146
421 1145 442T1141 484Q1137 509 1130 540T1108 598Q1091 628 1067 628Q1039 628 1007 590Q1001 583 1000 583Q999 583 999 585Q999 592 1003 601Q1005 608 1017 619T1043 641T1069 654Q1080 657 1089 658T1108 659Q1148 659 1170 637T1203 575T1213 487Q1213 474
1213 460T1211 432Q1206 385 1197 335T1175 237T1151 150T1130 87Q1108 32 1078 -18T1011 -104T933 -153Q925 -155 918 -156T902 -158Z" />
<glyph unicode="X" glyph-name="X" horiz-adv-x="765" d="M626 -125Q607 -125 592 -109T565 -70Q551 -45 541 -11T522 49Q511 85 499 133L473 232Q439 192 396 147T305 61T206 -5T104 -31Q58 -31 34 -9T9 46Q9 60 14 76T29 109Q43 132 75 154T136 187Q170 203
199 205Q205 205 208 203Q210 201 205 200Q182 199 158 182T111 142T75 101Q62 86 55 68T47 32Q47 17 54 7T76 -3Q105 -3 156 25T264 96Q318 137 371 184T463 274L416 465Q408 494 397 529T373 590Q365 550 353 515T324 446Q312 422 294 390T254 325T208 270T161
241Q151 239 142 238T125 236Q100 236 83 247T60 274Q51 291 57 295Q58 296 60 296Q63 296 66 290Q69 281 76 272T94 262Q102 262 132 276T196 325Q232 360 274 426T355 603L359 612Q352 623 342 627Q347 639 358 655T383 686T406 705Q418 710 425 710Q441 710
451 695Q458 685 464 656T478 585T492 498T505 409T517 333Q574 398 623 462T711 582Q749 638 776 683T816 756Q821 764 828 767Q828 767 830 767Q834 767 829 759Q796 690 763 630T694 512Q657 455 616 401T524 291Q529 269 536 232T553 153T572 76T588 22Q595
1 604 -27T625 -76T647 -97Q653 -97 659 -90Q678 -66 686 -33T699 36T714 107Q716 111 717 112T719 111Q719 106 718 100T716 87Q716 70 718 50T721 18Q724 -6 715 -33T689 -83T649 -118Q638 -125 626 -125Z" />
<glyph unicode="Y" glyph-name="Y" horiz-adv-x="868" d="M166 -413Q129 -413 105 -400T70 -362Q62 -344 62 -323Q62 -291 79 -251T132 -166Q174 -113 242 -60T390 39Q469 83 549 114T695 153Q713 195 725 244T744 342T751 432Q751 449 750 464T746 492L740 478L733
462Q703 408 668 355T599 259Q569 221 525 182T436 122Q414 111 396 111Q374 111 363 126T351 167Q351 190 362 221Q368 236 382 269T411 333Q427 371 445 413T478 494Q494 535 512 580T541 665T552 726L547 715L513 656Q503 639 494 623T474 590L429 515Q404 472
375 428T313 342Q280 299 243 266Q205 233 163 213T75 192Q30 192 7 217T-16 285Q-16 315 0 342T41 393T89 432L115 450Q120 452 120 450T117 444Q105 432 89 408T59 354T36 299Q28 273 28 252Q28 233 36 221T62 208Q101 208 145 238Q189 268 234 315T324 421Q369
479 409 536Q430 567 454 602T499 669T535 718Q544 730 551 737Q557 744 563 739Q600 711 600 658Q600 636 594 608T573 545Q564 523 549 491T515 423T479 354T449 296T434 262Q423 234 413 203T403 153Q403 133 417 133Q435 133 458 151T507 196T554 250T590 297Q611
325 636 358T683 423T718 483Q724 496 729 505T738 520Q735 526 732 529T726 536Q715 541 715 548Q715 556 723 562T743 568Q752 568 762 563T780 544Q789 531 793 504T797 441Q797 397 792 346T776 244T750 153Q781 150 808 139T851 107Q857 100 857 94Q857 85
850 94Q842 104 822 108T778 113T734 114Q680 -17 617 -108T488 -260Q422 -320 359 -353T244 -401Q201 -413 166 -413ZM149 -387Q169 -387 195 -378T252 -348Q331 -297 397 -238T517 -117Q570 -56 609 1T673 106Q615 94 547 69T412 7Q344 -29 281 -74T171 -168Q137
-205 118 -240Q91 -290 91 -325Q91 -341 97 -354Q105 -375 125 -383Q134 -387 149 -387Z" />
<glyph unicode="Z" glyph-name="Z" horiz-adv-x="805" d="M746 -86Q739 -86 732 -86T716 -84Q677 -80 626 -63T519 -23Q488 -11 451 5T378 37T317 64Q271 29 222 9T112 -12Q56 -12 33 5T9 59Q9 91 34 115T107 148Q118 150 129 151T153 152Q189 152 229 144T306
121Q354 169 400 223T489 328Q519 363 558 399T639 470T721 533T795 580Q778 582 764 585Q746 590 722 596T674 610T633 621Q604 628 575 632T513 637Q455 637 395 624T294 570Q274 551 265 533T255 499Q255 480 269 467T307 454Q345 454 390 469T481 511T561 569Q563
571 566 571Q571 571 575 567T574 558Q557 541 528 522T465 484T400 451T346 428Q324 421 306 418T272 414Q234 414 214 431T194 476Q194 497 207 522T246 572Q273 597 312 614T394 643T477 659T545 664Q585 664 622 661T691 653Q719 649 749 644T792 637Q806 635
824 633T860 630Q878 630 893 633T915 646Q921 640 921 631Q921 615 910 604Q899 592 876 586T826 578Q796 558 761 524T688 450Q668 427 641 397T586 336T538 284Q490 234 446 187Q402 139 358 98Q379 88 410 73T474 41T536 11Q585 -13 630 -32T707 -61Q730 -67
746 -67Q786 -67 798 -36T811 47Q810 79 805 112T791 171Q790 173 792 174Q794 174 799 164Q823 124 841 90T859 10Q859 -43 827 -64T746 -86ZM109 7Q147 7 186 28T267 84Q245 91 215 95T155 99Q131 99 106 92T63 72T43 44Q43 32 58 20Q72 7 109 7Z" />
<glyph unicode="[" glyph-name="bracketleft" horiz-adv-x="250" d="M12 -152Q-2 -152 -24 -151T-63 -143T-77 -121Q-75 -111 -73 -101T-66 -77Q-54 -38 -30 19Q-7 75 23 137T89 263Q124 326 157 380Q190 433 218 470T266 520Q276 526 298 528T334 531Q338 531
353 531T381 528T394 520L393 512Q388 511 383 511Q372 511 362 512Q352 513 341 513Q333 513 324 513T307 509Q290 493 264 455Q237 417 206 367T141 258Q107 199 78 143Q48 86 25 36T-8 -48Q-18 -82 -18 -103Q-18 -133 8 -133Q19 -133 30 -131Q40 -130 51 -130H52Q56
-130 61 -131T66 -139Q63 -145 53 -148T30 -151T12 -152Z" />
<glyph unicode="\" glyph-name="backslash" horiz-adv-x="378" d="M254 -71Q245 -71 249 -62L253 -50Q255 -43 256 -34T257 -13Q257 -7 257 0T256 16Q252 59 242 112T218 225Q203 284 189 336Q175 388 163 428T144 485V490Q146 495 153 505T169 525T182 535Q183
535 183 535Q182 534 183 534Q213 453 235 366T271 198Q288 98 288 27Q288 -16 280 -43Q278 -50 270 -60T254 -71Z" />
<glyph unicode="]" glyph-name="bracketright" horiz-adv-x="315" d="M-20 -154Q-23 -154 -37 -154T-64 -151T-78 -143L-77 -134Q-73 -133 -68 -133Q-57 -133 -47 -134Q-37 -136 -26 -136Q-18 -136 -9 -136T8 -132Q24 -116 51 -78Q78 -40 109 10T175 120Q208 178
237 235Q266 292 289 342T322 426Q333 464 333 481Q333 511 307 511Q296 511 285 509Q274 507 263 507H261Q257 507 253 508T248 516Q248 523 259 525T284 529T303 530Q316 530 338 529T377 520T392 498Q388 478 382 454Q370 415 346 359Q321 302 291 240T225 114Q190
51 157 -2Q124 -56 95 -94T48 -143Q38 -149 16 -151T-20 -154Z" />
<glyph unicode="^" glyph-name="asciicircum" horiz-adv-x="319" d="M262 382Q254 383 240 396T210 427T183 462T170 488Q168 486 152 470T114 434T77 399T57 384Q50 384 50 389Q50 392 53 398Q60 412 70 424Q73 428 90 443T130 478T171 513T199 532Q202 512 213
485T238 430T262 382Z" />
<glyph unicode="_" glyph-name="underscore" horiz-adv-x="456" d="M-12 -37Q-17 -37 -14 -32Q-13 -27 -8 -21T3 -14H462Q467 -14 467 -20Q465 -25 461 -29L453 -37H-12Z" />
<glyph unicode="`" glyph-name="grave" horiz-adv-x="131" d="M124 440Q122 441 111 447T88 461T70 473Q61 479 45 490T15 513T0 526Q0 530 7 536T28 542Q35 542 41 538T52 528Q59 522 72 509T100 481T128 454Q131 451 131 447Q131 438 124 440Z" />
<glyph unicode="a" glyph-name="a" horiz-adv-x="358" d="M236 -4Q196 -4 196 48Q196 66 202 88Q204 95 211 111T227 146T244 183T255 211Q234 179 209 148T154 95T92 74Q61 75 48 91T35 130Q35 157 47 189T74 246Q100 287 137 326T216 390T296 416Q316 416 335
410T373 388Q388 376 388 362Q388 348 376 348Q367 348 363 360Q350 394 321 394Q295 394 263 371T200 316Q165 281 138 239T97 163Q84 132 84 117Q84 98 99 98Q116 98 149 124Q171 141 197 168T246 223T282 265Q293 282 300 292Q304 298 313 301T332 304Q344 304
352 300T356 286Q352 277 339 252T309 194T278 133T256 88Q242 57 242 42Q242 29 252 29Q259 29 273 37Q295 48 317 68T359 112Q370 123 379 133T396 154Q399 157 401 157Q407 157 407 148Q407 143 403 139Q392 125 381 112T358 86Q347 73 336 61T312 37Q290 16
271 6T236 -4Z" />
<glyph unicode="b" glyph-name="b" horiz-adv-x="305" d="M80 -81Q39 -81 23 -57T7 3Q7 35 16 70T35 135Q48 172 70 221T116 314Q87 304 60 299T13 293Q-1 293 -10 296Q-25 299 -25 305Q-25 312 -6 309Q-2 308 1 308T9 308Q34 308 63 316T127 337Q181 435 246
523T387 681Q413 707 447 721T509 736Q531 736 546 726T564 692Q565 688 565 679Q565 657 554 632Q539 601 512 569T448 505Q429 489 410 474T369 444Q326 415 281 390T192 345Q171 307 153 269T121 196Q109 168 96 135T76 85Q67 64 61 37T54 -13Q54 -33 61 -47T86
-61Q102 -61 119 -47T152 -10T181 34Q194 56 205 82T225 134T234 175L235 188Q208 196 208 234Q208 257 217 274T239 291Q255 291 260 276T266 239Q266 214 261 186Q266 183 282 181T309 178Q344 178 368 200T415 251Q418 254 420 254Q426 254 426 243Q426 239
424 233Q401 199 373 179T308 158Q286 158 260 167L254 146L248 127Q239 103 222 69T183 0T134 -58T80 -81ZM197 367Q266 403 334 445T456 539T537 657Q543 672 543 683Q543 711 514 711Q494 711 465 694Q443 681 408 645T334 560T258 460T197 367Z" />
<glyph unicode="c" glyph-name="c" horiz-adv-x="299" d="M100 -30Q57 -30 39 -4T21 62Q21 91 28 125T47 192T70 246Q90 287 118 329T178 407T244 463T312 485Q341 485 355 465T370 417Q370 388 354 365Q321 317 306 317Q301 317 301 324Q301 331 309 352Q313
361 319 378T329 414T333 447Q330 448 324 448Q303 448 279 431T229 387T183 331T148 276Q137 256 124 228T100 168T82 110Q78 96 76 82T74 55Q74 33 82 18T112 3Q147 3 180 19T244 60T299 111Q320 132 336 154Q339 157 341 157Q347 157 347 148Q347 143 343 139L299
87Q278 62 245 35T174 -11T100 -30Z" />
<glyph unicode="d" glyph-name="d" horiz-adv-x="411" d="M196 -146Q178 -146 166 -134T153 -97Q153 -60 179 6T241 156Q221 123 193 86T131 22T63 -4Q32 -4 19 11T6 51Q6 66 12 89T28 134T45 168Q70 209 107 248T186 312T267 338Q292 338 318 326Q341 374 364
417T408 492Q441 548 468 578T522 621T578 638Q511 553 459 471T357 293Q359 287 359 284Q359 277 355 273T345 269Q334 249 318 215T284 141T249 58T221 -21Q206 -67 206 -86Q206 -96 212 -96Q225 -96 258 -60L305 -10L337 25L411 111Q421 122 431 134T450 157Q453
160 456 160Q462 160 462 153Q462 149 457 142Q447 128 435 113T411 85Q408 82 395 65T362 24T322 -27T285 -75T259 -110Q246 -127 229 -136T196 -146ZM70 20Q87 20 120 46Q141 62 167 90T218 145T253 188Q265 217 279 248T310 311Q302 315 292 315Q265 315 232
291T171 238Q136 202 109 161T67 85Q55 57 55 39Q55 20 70 20Z" />
<glyph unicode="e" glyph-name="e" horiz-adv-x="365" d="M71 -144Q32 -144 11 -113T-10 -23Q-10 -13 -10 -3T-8 18Q-2 67 22 125T98 249Q132 293 172 315T249 337Q275 337 295 327Q319 314 319 280Q319 255 301 225T240 166Q183 130 145 118T84 105Q76 94 68
71T55 22T47 -24Q47 -28 47 -32T46 -42Q46 -72 56 -93T94 -115Q118 -115 148 -98T207 -56T259 -9T291 25L365 111L405 157Q408 160 410 160Q416 160 416 152Q416 149 411 142Q401 128 389 113T365 85Q351 69 331 44T288 -8T244 -55Q206 -92 163 -118T71 -144ZM93
121Q107 122 128 132T172 156T214 184T246 209Q269 227 280 249T291 287Q291 298 286 306T269 314Q248 314 224 294T175 242T129 178T93 121Z" />
<glyph unicode="f" glyph-name="f" horiz-adv-x="257" d="M-22 -349Q-50 -349 -61 -328T-72 -275Q-72 -255 -69 -232T-59 -184Q-46 -128 -26 -73T19 36Q32 65 50 104T88 183T121 252H102Q91 252 91 258Q91 262 96 265T112 269H127Q139 295 163 339T218 437T278
540T332 630Q348 658 372 683T422 722T470 732Q446 697 409 642T331 522Q291 458 253 392T187 269H309Q314 269 314 264Q314 260 311 256T302 252H178L160 215Q167 195 169 168T172 110Q172 64 167 18T156 -60Q146 -113 130 -164T93 -257T43 -324T-22 -349ZM-12
-332Q6 -332 24 -311T59 -260T87 -199T107 -151Q118 -120 128 -75T144 22T151 119Q151 137 150 154T146 185Q127 146 103 93Q79 39 55 -18T11 -131Q-10 -187 -21 -231Q-26 -250 -29 -266T-32 -297Q-32 -312 -27 -321T-12 -332Z" />
<glyph unicode="g" glyph-name="g" horiz-adv-x="399" d="M-90 -471Q-121 -471 -144 -452T-167 -392Q-167 -344 -135 -288T-41 -175Q-7 -143 38 -108T131 -42T216 10Q245 74 272 138T319 262Q301 229 276 186T220 102T157 35T89 8Q52 8 37 31T22 88Q22 124 34
165T60 237Q79 279 108 319T171 393T240 447T308 467Q334 467 360 455T404 412T422 325Q422 308 418 299T410 289Q403 289 403 316Q403 341 395 367T371 410T331 429Q303 431 275 416T221 374T176 319Q154 287 136 254Q118 221 105 191T86 140Q75 105 75 82Q75
40 102 40Q124 40 156 72Q174 91 196 117T239 170T278 221T306 258Q309 264 317 274Q324 283 332 308Q338 329 349 329Q360 329 360 310Q358 293 350 263T330 194T305 116T280 44Q299 54 314 60L339 70Q341 70 341 70T343 71Q354 71 354 61Q354 55 347 54Q335 49
315 41T270 18Q244 -54 213 -123T152 -243Q98 -335 53 -385T-29 -455Q-58 -471 -90 -471ZM-96 -448Q-75 -448 -55 -434Q-32 -418 -6 -387T47 -317T96 -237T135 -164L202 -21Q166 -44 127 -71T50 -129Q17 -157 -17 -190T-81 -259T-127 -329T-145 -391Q-145 -418
-131 -433T-96 -448Z" />
<glyph unicode="h" glyph-name="h" horiz-adv-x="396" d="M160 -136Q131 -136 120 -121T109 -76Q109 -44 126 -4T166 76T208 146Q212 152 222 168T245 206T269 245T285 275Q299 303 299 316Q299 324 293 324Q278 324 231 283Q213 266 186 238T130 177T75 107T34
38Q28 25 21 20T6 14Q-11 14 -11 33Q-11 40 -8 47Q2 75 21 120T62 218T105 318T142 399Q121 393 104 389T74 385Q66 385 63 386Q52 389 52 392Q52 395 65 396Q80 396 102 401T150 416Q166 451 188 495Q210 539 238 584T299 672Q332 715 371 748Q410 781 454 801T547
822Q573 822 588 806T603 759Q603 731 585 700Q567 668 536 637T465 574Q424 543 380 515Q336 487 290 463T203 422Q169 354 138 285T82 152Q89 162 107 183T147 228T187 270Q207 289 232 309T282 343T326 357Q346 357 354 349T363 327Q363 306 350 278T322 226Q315
213 298 186T261 130T231 83Q216 61 200 33T171 -20T156 -60Q155 -66 155 -70T154 -80Q154 -104 172 -104Q181 -104 190 -100Q200 -97 218 -82T257 -46T295 -6T322 25L396 111Q401 117 406 122T417 134Q426 146 436 157Q439 160 442 160Q448 160 448 153Q448 149
443 142Q432 128 420 113T396 85Q388 75 372 54T336 9T300 -34Q280 -56 255 -80T205 -120T160 -136ZM215 444Q254 462 296 486Q337 509 377 535T453 591Q488 619 515 649Q543 679 558 707T573 763Q573 772 569 781T545 790Q514 790 482 774T420 731T363 675T318
619Q268 551 215 444Z" />
<glyph unicode="i" glyph-name="i" horiz-adv-x="203" d="M234 437Q208 437 208 462Q208 477 219 487T243 498Q256 498 263 489T269 467Q266 454 257 446T234 437ZM72 0Q20 0 20 65Q20 79 23 97Q27 118 38 147T64 206T91 257Q101 273 114 295T139 336T154 361Q160
374 178 381T210 389Q226 389 226 380Q226 374 222 369Q203 338 178 297T128 213T88 131T72 64Q72 49 77 40T98 31Q114 31 134 46T174 81T204 112L224 133Q229 138 233 143T241 154Q244 157 246 157Q252 157 252 148Q252 143 248 139Q237 125 226 112T203 86Q178
56 145 28T72 0Z" />
<glyph unicode="j" glyph-name="j" horiz-adv-x="193" d="M179 395Q167 395 161 402T154 421Q154 436 165 446T189 456Q214 456 214 431Q214 417 204 406T179 395ZM-273 -471Q-304 -471 -327 -452T-350 -392Q-349 -344 -317 -288T-224 -175Q-190 -143 -145 -108T-52
-42T33 10Q68 87 100 164T150 308Q152 319 157 324T166 329Q176 329 173 311Q170 285 159 240T131 144T97 44Q116 54 131 60L156 70Q158 70 159 70T161 71Q171 71 171 62Q171 55 164 54Q152 49 133 41T88 18Q61 -54 30 -123T-31 -243Q-85 -335 -129 -385T-212 -455Q-244
-471 -273 -471ZM-279 -448Q-258 -448 -238 -434Q-215 -418 -189 -387T-136 -317T-86 -237T-48 -164Q-32 -132 -15 -96T20 -21Q-16 -44 -55 -71T-133 -129Q-167 -157 -201 -191T-263 -260T-309 -328T-327 -391Q-327 -418 -313 -433T-279 -448Z" />
<glyph unicode="k" glyph-name="k" horiz-adv-x="334" d="M207 -3Q171 -3 152 24T133 85Q133 91 133 97T135 109Q140 130 157 148T184 167Q184 168 188 168Q213 168 240 181T289 214T321 250Q327 261 327 268Q327 281 310 281Q304 281 298 279T283 275Q260 267
231 249T176 201Q159 183 134 152T83 85T40 22Q35 13 27 9T11 4Q3 4 -3 8T-9 22Q-9 28 -6 35Q1 53 11 77T30 126T48 166Q61 197 77 231T114 307Q137 352 169 409T237 523T311 629T382 707Q414 735 438 741T481 749Q450 716 421 683T361 609Q313 544 267 475T186
333Q162 279 134 227T88 126Q108 150 134 182T189 246T247 301T304 330Q311 332 317 332T328 332Q354 332 365 321T376 293Q376 265 351 232Q334 211 305 194T243 166T186 154Q185 146 185 136T184 114Q184 83 190 56T218 28Q223 28 230 30T248 37Q270 48 292 68T334
112Q345 123 354 133T371 154Q373 157 375 157Q381 157 381 148Q381 143 377 139L333 86Q323 73 312 61T287 37Q245 -3 207 -3Z" />
<glyph unicode="l" glyph-name="l" horiz-adv-x="301" d="M16 -176Q-3 -176 -17 -160T-31 -110Q-31 -91 -27 -71Q-10 23 26 127T116 333Q53 312 12 312Q-7 312 -16 315T-25 323Q-25 329 -6 328Q-2 327 1 327T9 327Q33 327 63 334T127 355Q181 454 246 542T387
700Q413 723 440 736T491 750Q511 750 525 739T544 702Q545 698 545 693T546 683Q546 664 538 642Q513 579 437 515Q400 483 358 455Q316 427 270 402T181 359Q148 302 120 243T72 127Q51 69 39 16T26 -85Q26 -129 48 -129Q61 -129 81 -119Q112 -101 134 -82T179
-37Q190 -24 210 1T255 56T301 111Q321 135 341 157Q344 160 346 160Q352 160 352 152Q352 147 348 142Q337 128 325 113T301 85Q295 79 279 60T241 14T196 -40T154 -91T122 -126Q100 -147 75 -161T16 -176ZM197 386Q246 410 297 443T394 515T473 594T519 672Q523
684 523 696Q523 727 498 727Q482 727 465 713Q398 660 328 574T197 386Z" />
<glyph unicode="m" glyph-name="m" horiz-adv-x="579" d="M309 -176Q288 -176 275 -157T261 -110Q261 -103 262 -96T265 -82Q270 -62 280 -34T305 27T334 88T362 138Q367 145 378 163T401 203T422 241Q440 273 440 286Q440 303 405 274Q380 252 349 218T286 145T230
69Q225 60 216 51T190 42Q184 42 176 45T168 64Q168 83 184 113T223 180T270 253T309 322Q317 339 320 350T324 367Q324 374 319 374Q307 374 278 348Q258 330 234 304Q209 277 184 246T135 181Q111 147 90 116Q68 84 51 57T25 12Q18 -3 1 -3Q-7 -3 -13 4T-18 24Q10
77 27 120T59 205T101 298Q109 313 130 326T167 340Q183 340 183 330Q183 322 173 306Q161 287 143 254T107 186T76 123L102 161Q120 187 143 219T195 287Q223 321 251 348Q278 375 303 391T349 404Q371 400 379 388T387 359Q387 348 375 326T344 278T309 228T283
189Q276 177 262 155T234 111T218 84Q216 79 218 78T224 83Q234 99 252 124T291 177T333 228Q350 248 372 268T416 303T455 317Q476 317 483 307T490 282Q490 270 478 244T446 183Q439 170 425 142T395 82T368 26Q355 -1 342 -34T318 -97T306 -145V-148Q306 -155
314 -155Q314 -156 315 -156Q323 -156 336 -148Q347 -142 370 -119T421 -67T471 -13T505 25L552 80Q571 103 579 111L619 157Q622 160 624 160Q630 160 630 152Q630 147 626 142Q615 128 603 113T579 85Q578 84 563 65T525 18T479 -38T439 -88T419 -113Q399 -136
371 -156T309 -176Z" />
<glyph unicode="n" glyph-name="n" horiz-adv-x="368" d="M231 -1Q214 -1 207 12T200 43Q200 75 217 116T258 200T298 281T316 347Q316 360 312 368T298 376Q286 376 269 363Q250 350 226 320L189 274Q160 238 131 198T78 122T43 66Q34 50 22 50Q15 50 9 57T3
75Q3 82 6 91Q41 158 72 234T135 372Q144 389 165 401T202 414Q217 414 217 403Q217 397 208 380Q197 363 181 336T148 279T117 222T95 178Q106 193 125 223T179 293L211 331Q243 369 270 383T320 397Q338 397 351 388T364 357Q364 331 353 306T335 265Q328 249
315 221T289 161T267 101T258 58Q258 45 266 45Q276 45 292 55T325 79T351 100Q384 130 418 170Q423 176 426 176Q429 176 429 170Q429 167 427 162T421 151Q415 141 402 125T375 93Q354 70 329 49T272 11Q264 7 258 5T247 1Q243 0 239 0T231 -1Z" />
<glyph unicode="o" glyph-name="o" horiz-adv-x="333" d="M107 -4Q73 -4 51 25T28 99Q28 135 40 170Q52 204 72 235T119 293Q153 328 196 354T276 380Q304 380 319 367T335 334Q335 322 327 308Q353 305 378 305Q397 305 416 307T454 313H458Q466 313 466 309Q466
305 457 302Q447 298 424 294T376 288T331 285Q324 285 319 285T310 286L300 281Q312 264 312 234Q312 194 293 153T242 76T175 18T107 -4ZM116 20Q143 20 169 39T216 90T252 158T272 229Q273 235 273 240T273 251Q273 260 272 267T268 279Q266 279 265 280Q253
282 248 286T235 295Q231 300 231 307Q231 314 236 318T249 320Q274 315 303 311Q313 328 313 342Q313 366 277 366Q255 366 232 350T185 307T141 249T105 187Q95 167 88 138T80 82Q80 57 88 39T116 20Z" />
<glyph unicode="p" glyph-name="p" horiz-adv-x="304" d="M-140 -424Q-147 -424 -155 -404T-164 -354Q-164 -345 -163 -335T-160 -315Q-149 -268 -127 -208Q-106 -148 -78 -82T-17 53Q15 121 47 185Q79 248 108 303T161 397Q196 456 225 485T281 527T340 547Q311
518 278 474Q211 383 142 263Q108 203 77 144Q45 85 18 29T-30 -73L-37 -92L-46 -118Q-26 -74 -1 -24T53 75T108 166T156 238Q188 280 220 307T276 334Q304 334 315 318T326 277Q326 241 312 200T272 119T212 46T140 -7T60 -27Q39 -27 31 -10Q1 -66 -30 -132T-98
-283Q-108 -320 -117 -354T-132 -414Q-135 -424 -140 -424ZM60 -9Q93 -9 127 18T192 88T241 174Q247 188 253 208T265 250T270 285Q270 304 260 304Q243 304 222 283T177 229Q141 178 107 124T37 2Q43 -9 60 -9Z" />
<glyph unicode="q" glyph-name="q" horiz-adv-x="367" d="M106 -451Q78 -451 67 -430T56 -377Q56 -357 59 -334T69 -286Q82 -229 111 -160T174 -19Q192 20 216 67T262 159T298 234Q274 205 248 173T195 112T141 67T87 49Q55 50 42 66T29 105Q29 133 41 165T69
222Q94 263 131 302T210 366T291 392Q310 392 330 386T368 366Q390 403 405 414T439 425Q454 425 473 422Q453 397 437 374T405 323T365 259Q361 252 347 223T318 164Q299 124 276 74T228 -31H230Q252 -54 261 -94Q265 -110 266 -127T268 -162Q268 -190 264 -219T252
-277Q239 -325 218 -364Q196 -403 168 -427T106 -451ZM94 73Q112 73 144 99Q207 150 260 211T354 344Q342 370 318 370Q292 370 258 347T195 292Q160 256 133 215T91 139Q79 111 79 93Q79 73 94 73ZM116 -434Q137 -434 157 -409Q177 -385 193 -347T221 -263Q233
-217 238 -173Q239 -159 240 -146T241 -120Q241 -94 237 -74T224 -42Q193 -112 165 -182T119 -308Q111 -336 105 -361T99 -405Q99 -434 116 -434Z" />
<glyph unicode="r" glyph-name="r" horiz-adv-x="382" d="M95 -168Q64 -168 51 -153T37 -112Q37 -96 43 -74Q51 -40 70 -1T105 62Q117 80 129 99T154 138L203 216Q217 238 217 260Q217 284 198 297L184 306Q176 311 172 315L158 292L144 270Q123 241 96 206T44
139T2 88Q-1 85 -4 85Q-9 85 -11 90T-10 99Q29 143 65 189T132 287L144 307L156 328Q148 333 141 346T134 372Q134 389 148 392H149Q159 392 169 380Q179 366 178 329Q202 311 225 305T262 291T277 258Q277 254 277 249T275 239Q270 215 250 180T204 109T161 45Q143
16 123 -18T91 -84T82 -133Q85 -143 96 -143Q112 -143 135 -130Q166 -112 192 -92T246 -43Q261 -28 284 -2T334 55T382 111Q391 123 402 135L422 157Q425 160 427 160Q433 160 433 152Q433 149 428 142Q418 128 406 113T382 85Q356 55 325 18T262 -56T201 -118Q178
-138 153 -153T95 -168Z" />
<glyph unicode="s" glyph-name="s" horiz-adv-x="256" d="M-63 -159Q-100 -161 -122 -146T-144 -108Q-144 -94 -134 -79T-101 -50Q-59 -25 -6 -15T101 13L120 53Q132 79 144 120T165 206T177 280Q148 251 122 223T66 161T0 85Q-6 78 -9 78Q-12 78 -12 83Q-12 95
0 110L72 196Q89 216 109 237T150 280L175 306Q178 323 184 342T201 374T232 387Q252 387 259 376T263 354Q255 351 235 334T196 299Q197 290 197 280T197 257Q197 233 196 204T189 138Q181 85 167 40Q192 53 215 69T261 110Q269 119 277 128T293 147Q295 149 297
149Q300 149 302 144T302 135Q284 110 261 87Q240 66 214 49T159 16Q130 -58 76 -105T-63 -159ZM-85 -136Q-74 -136 -61 -133Q-26 -125 12 -98T86 -12Q42 -25 -1 -35Q-45 -45 -87 -69Q-120 -88 -120 -112Q-120 -136 -85 -136Z" />
<glyph unicode="t" glyph-name="t" horiz-adv-x="341" d="M33 -176Q14 -176 0 -160T-14 -110Q-14 -91 -10 -71Q-8 -61 -2 -32T12 27Q21 64 37 111T76 212Q93 254 111 291T147 363H9Q-2 363 -2 368Q-2 379 20 379H156Q181 424 208 464T268 539Q285 559 299 567T329
578T364 586Q318 530 284 481T219 379H367Q379 379 379 373Q379 370 374 367T357 363H210Q186 321 164 275T117 173Q96 127 80 75T53 -22T43 -85Q43 -131 68 -131Q80 -131 98 -119Q137 -95 168 -70T227 -16Q242 -2 262 20T304 65T341 106L358 125Q361 128 363 128Q369
128 369 120Q369 115 365 110Q360 102 354 95Q347 88 341 80Q298 27 246 -27T139 -126Q116 -144 91 -160T33 -176Z" />
<glyph unicode="u" glyph-name="u" horiz-adv-x="347" d="M219 -3Q199 -3 190 10T181 45Q181 71 191 107T217 182Q203 160 184 134T144 85T103 47T65 32Q37 32 27 51T16 95Q16 111 18 126T25 154Q43 205 72 261T135 370T206 460Q230 484 242 484Q248 484 248 477Q248
470 242 457T221 427Q210 414 191 380T150 302T109 215T76 140Q68 121 65 106T61 81Q61 57 77 57Q98 57 131 96Q139 106 154 126T186 171T220 219T246 257L269 299Q274 309 289 315T318 322Q327 322 327 313Q327 302 323 291T310 266Q295 242 281 209T257 145T243
96Q239 79 239 62Q239 58 239 54T241 47Q243 34 251 34Q255 34 261 37Q283 48 305 68T347 112Q357 123 366 133T383 154Q386 157 388 157Q394 157 394 149Q394 143 390 139L346 86Q335 73 323 61T300 37Q280 18 258 8T219 -3Z" />
<glyph unicode="v" glyph-name="v" horiz-adv-x="341" d="M45 -90Q17 -90 4 -73T-9 -26Q-9 8 5 53T42 146T93 237T150 309Q159 318 171 322T194 326Q204 326 210 323T217 313Q217 306 208 297Q200 289 186 269T154 222T120 170T93 123Q79 97 64 64T40 0T30 -51Q30
-73 44 -73Q76 -73 110 -47Q135 -27 162 11T216 97T263 197T296 297T308 383Q308 406 307 424T301 460Q306 463 311 463Q328 463 343 438T358 382Q358 318 336 251T279 122Q244 60 203 11T122 -65Q105 -76 86 -83T45 -90Z" />
<glyph unicode="w" glyph-name="w" horiz-adv-x="431" d="M189 -122Q177 -122 166 -116T148 -90Q142 -75 142 -55Q142 -29 150 1T167 59T180 110Q163 85 143 60T101 17T59 0Q31 0 21 18T10 61Q10 77 13 93T20 122Q36 166 57 207T101 292Q109 308 130 320T168 332Q184
332 184 322Q184 314 174 300Q168 290 156 270T128 223T100 171T77 124Q67 102 63 85T58 54Q58 27 76 27Q85 27 97 35T123 63Q128 69 139 84T162 117T185 151T201 176Q207 192 217 214T237 255T252 281Q265 297 283 297Q292 297 298 292T305 278Q305 270 298 260Q279
228 261 190T223 97Q217 80 208 54T190 0T176 -50T173 -83Q178 -97 194 -95Q210 -95 230 -72Q249 -49 269 -14T311 64Q331 107 349 148Q364 181 379 218T402 273Q427 330 456 380T515 462T573 494Q597 494 614 470Q634 442 641 414T657 348V343Q657 331 651 331Q645
331 641 343Q633 371 615 396T586 429Q567 448 550 448Q529 448 511 424T477 362T450 288Q442 263 427 223Q411 182 391 137T347 45Q322 -1 296 -38Q270 -75 243 -98T189 -122Z" />
<glyph unicode="x" glyph-name="x" horiz-adv-x="217" d="M-112 -37Q-117 -37 -115 -28T-100 -5Q-65 36 -29 80T44 169Q48 192 56 222T77 281T103 323Q87 318 65 304T25 290Q4 290 -8 307T-20 335Q-20 343 -14 343Q-10 343 -5 339Q5 333 21 331T56 328Q79 328
100 330T133 335Q136 336 138 336T142 336Q151 336 151 329Q151 326 149 322T144 311Q136 299 129 285T117 256Q107 229 103 201Q123 220 149 248Q174 276 200 308T253 373Q279 406 300 436Q321 465 335 487T354 519Q361 535 365 535Q369 535 369 524Q369 516 366
503T355 475Q305 381 236 309T99 175Q96 160 95 147T94 119Q94 33 120 33Q140 33 182 75Q191 83 200 92T218 112Q228 123 237 133T254 154Q257 157 259 157Q265 157 265 148Q265 143 261 139L239 112L217 86L194 61L171 37Q127 -6 95 -6Q38 -6 41 126L18 102L0
83Q-25 55 -47 29L-91 -22Q-106 -37 -112 -37Z" />
<glyph unicode="y" glyph-name="y" horiz-adv-x="337" d="M-66 -315Q-82 -315 -94 -303T-107 -264Q-107 -221 -81 -182T-13 -108T76 -47T167 -2Q182 29 202 77T244 177T282 278T303 357Q289 327 267 288T218 212T165 151T115 127Q83 127 71 147T59 195Q59 233
74 275T110 358T151 428Q136 424 118 424Q92 424 69 434T33 463Q25 477 25 482Q24 484 26 484Q26 484 33 479Q49 462 73 451T127 440Q135 440 144 441T163 444Q171 456 184 478Q196 499 214 515Q222 523 229 523Q235 523 238 517T242 500Q242 483 232 461T199 424Q167
378 143 326T108 212Q105 197 105 186Q105 153 126 153Q150 153 183 192Q194 205 215 237T260 308T303 387T329 454Q331 466 338 471T354 477Q362 477 368 473T374 462Q374 438 368 405Q361 371 350 332T325 251Q311 209 296 170Q281 130 266 96T240 36Q268 52
293 71T338 112Q349 123 358 133T375 154Q378 157 380 157Q386 157 386 148Q386 143 382 139Q360 110 337 86Q316 62 287 42T225 5Q202 -43 173 -98T107 -202T28 -283T-66 -315ZM-63 -292Q-52 -292 -38 -283T-7 -259Q7 -246 25 -227T58 -191T78 -165Q95 -139 114
-104T154 -27Q114 -45 73 -71T-3 -128T-59 -194T-81 -263Q-81 -292 -63 -292Z" />
<glyph unicode="z" glyph-name="z" horiz-adv-x="324" d="M-175 -356Q-210 -356 -224 -336T-236 -290Q-232 -252 -205 -219T-142 -159T-74 -115Q-26 -89 31 -66Q87 -44 144 -16Q159 26 159 58Q159 80 151 92T122 105Q112 105 95 100Q90 98 86 99T86 105Q113 128
142 156Q171 183 203 212Q229 235 249 255T291 297Q288 297 271 297T236 298Q188 298 158 276T102 221Q90 205 76 184T46 141T16 106Q12 102 8 102Q4 102 2 106T4 115Q32 148 53 187T95 262T141 318T204 337Q230 335 253 334T295 332Q315 332 332 333T365 336L220
203L168 156L130 121Q135 122 140 122T149 122Q181 122 200 106T219 57Q219 49 218 40T214 21L241 39Q268 57 292 77T328 112Q339 123 348 133T365 154Q367 157 369 157Q375 157 375 148Q375 143 371 139Q360 125 350 112T327 86Q321 78 298 58T248 20Q228 6 207
-5Q194 -45 174 -88T121 -173Q58 -255 -19 -305T-175 -356ZM-175 -333Q-133 -333 -87 -305T3 -232T80 -141Q114 -93 136 -40Q82 -64 27 -87Q-29 -110 -74 -136Q-101 -152 -133 -177T-189 -233T-213 -298Q-213 -311 -204 -322T-175 -333Z" />
<glyph unicode="{" glyph-name="braceleft" horiz-adv-x="339" d="M83 -8Q75 -33 71 -48T66 -72Q61 -72 58 -72Q43 -72 34 -66T24 -43Q24 -37 25 -30T29 -13Q42 30 66 74Q89 117 102 160Q105 171 105 179Q105 196 95 204T70 213L62 212L65 224Q110 237 135 260T184
335Q192 352 202 376T223 424T244 465Q261 494 286 516T353 550Q357 550 370 552T388 555H390Q398 555 396 549Q395 547 392 544T384 541Q343 533 320 503T280 431T239 342Q228 321 204 297T152 252T105 224Q124 224 140 211T157 178Q157 175 157 172T155 166Q141
121 119 79Q96 36 83 -8ZM65 -78Q65 -76 66 -72Q69 -72 73 -71Q81 -57 95 -27T125 40T155 108T179 157T189 166Q189 157 174 106T121 -58Q118 -65 102 -67T73 -71Q65 -85 65 -78Z" />
<glyph unicode="|" glyph-name="bar" horiz-adv-x="210" d="M12 -30Q4 -30 7 -13Q10 12 25 70T66 206Q91 283 125 371T202 544L205 547Q209 547 220 536T234 513Q234 510 233 508Q225 491 208 451Q191 410 170 358T125 247L82 137Q61 84 46 44T24 -15Q18 -30 12 -30Z" />
<glyph unicode="}" glyph-name="braceright" horiz-adv-x="315" d="M-13 -73Q-19 -73 -19 -69Q-19 -62 -7 -59Q35 -51 57 -22T97 49T138 140Q150 162 173 186T223 230T271 258Q253 258 237 271T220 304Q220 307 220 310T222 316Q236 361 258 404Q280 446 293 490Q306
532 306 540Q306 548 298 535T277 499T251 454T230 421T221 419Q221 428 229 456T255 539Q256 546 270 549T299 553T319 554Q333 554 343 548T353 524Q353 518 352 511T348 495Q335 452 312 409Q288 365 275 322Q274 316 273 311T271 301Q271 285 281 277T307 269H314L311
258Q267 246 242 222T192 147Q184 130 174 106T153 58T133 18Q115 -12 90 -34T24 -68Q20 -68 7 -70T-10 -73H-13Z" />
<glyph unicode="~" glyph-name="asciitilde" horiz-adv-x="286" d="M40 422Q34 421 33 423L32 425Q32 450 56 468T123 486Q144 486 171 480T223 468T266 461Q282 461 293 466T311 485Q317 485 317 478Q317 454 294 438T231 422Q203 422 184 430T147 447T105 455Q75
455 62 446T40 422Z" />
<glyph unicode="&#xa0;" glyph-name="uni00A0" horiz-adv-x="170" />
<glyph unicode="&#xa1;" glyph-name="exclamdown" horiz-adv-x="223" d="M215 265Q204 265 198 270T188 284Q186 287 186 293Q186 299 189 304T195 313L211 324Q218 329 227 333L241 340Q246 342 254 347Q257 349 259 347T260 342Q251 328 247 310T237 278T215
265ZM-111 -239Q-86 -213 -55 -172T9 -83T71 16T122 111Q128 124 140 149T160 188Q169 201 172 201Q176 201 176 190Q176 185 175 177T172 159Q168 137 154 99T121 17T82 -66T43 -131Q12 -173 -12 -195T-59 -227T-111 -239Z" />
<glyph unicode="&#xa2;" glyph-name="cent" horiz-adv-x="400" d="M72 18Q68 18 65 24T61 38Q61 47 65 54Q70 65 81 84T103 117Q81 128 71 153T61 207Q61 244 74 280T100 343Q124 387 157 425T229 487T303 515Q309 522 319 537T342 569T365 601T379 622Q390 622
390 603Q390 587 374 558L342 508Q363 504 373 490T383 458Q383 433 365 412Q332 371 316 371Q312 371 312 376Q312 385 320 401Q323 409 331 426T345 459T352 482Q345 487 332 487Q308 487 277 467T216 414T167 345Q150 317 134 276T111 200Q110 193 110 188T109
177Q109 133 144 133Q163 133 189 146Q210 156 236 173T284 207T320 237Q323 230 323 223Q323 205 307 187T270 151Q248 135 219 121T160 106Q155 106 150 106T139 108Q131 98 119 81T95 48T78 23Q76 18 72 18Z" />
<glyph unicode="&#xa3;" glyph-name="sterling" horiz-adv-x="649" d="M547 -35Q516 -35 483 -29T415 -12Q396 -6 372 2T323 20T280 36Q246 12 206 -1T117 -15Q66 -15 44 5T22 54Q22 81 44 104T109 127Q143 127 183 114T270 81Q289 100 305 120T337 163Q303 161
279 161Q252 161 246 174T239 205Q256 202 283 202Q322 202 365 205L374 218Q389 242 408 275Q426 308 447 343T492 414Q516 449 543 477Q569 505 598 522T658 541Q693 541 709 519T726 466Q726 438 713 408T675 354Q656 338 641 331T618 324Q610 324 610 329Q610
336 630 350Q671 382 685 417T700 481Q698 520 660 520Q643 520 624 507T588 473T556 432T533 398Q507 357 483 312Q459 266 433 221Q430 218 429 215L425 208L451 209Q453 209 458 209Q493 209 502 195T511 158Q507 164 482 170Q469 173 450 173Q431 173 405 170H401Q382
141 361 114T314 64Q348 50 382 38T453 16Q476 11 503 7T555 3Q578 3 597 7T625 20Q631 23 634 23Q642 23 633 9T601 -20T547 -35ZM121 5Q154 5 183 17T238 51Q199 65 164 74T99 84Q73 84 61 75T48 52Q48 35 68 20T121 5Z" />
<glyph unicode="&#xa4;" glyph-name="currency" horiz-adv-x="661" d="M498 32Q492 32 484 46Q463 69 445 91T411 133Q381 110 349 97T284 84Q250 84 225 97T183 135L130 94Q116 83 102 72T71 49Q56 34 49 34Q41 34 48 52T79 94Q95 108 116 126T166 167Q155 198
155 233Q155 263 162 292Q170 321 183 349T214 400L149 482Q149 507 151 524T164 542Q170 542 178 535Q192 522 211 496T250 439Q281 468 316 484T388 500Q423 500 450 486T494 447Q523 473 549 495T592 528Q606 536 611 536Q619 536 614 520T597 474L513 408Q518
395 519 382T521 354Q521 340 520 325T513 292Q504 255 486 223T444 164Q461 141 474 123T496 91Q508 69 508 51Q508 32 498 32ZM277 117Q313 117 346 141T409 203T458 285Q471 323 471 359Q471 402 453 431T399 460Q364 460 328 435T263 370T218 285Q203 248 203
212Q203 172 222 145T277 117Z" />
<glyph unicode="&#xa5;" glyph-name="yen" horiz-adv-x="294" d="M145 -11Q125 -6 114 14T103 55Q103 83 109 103T123 151Q111 150 100 150H79Q53 150 47 163T41 192Q56 189 82 189Q108 189 137 191L155 240Q141 238 128 238T105 237Q79 237 73 250T66 280Q74
278 85 277T109 276Q123 276 138 277T170 279L178 299L161 411Q155 455 140 485T111 529Q117 531 127 533T145 536Q169 536 183 521T203 481T213 429L229 312Q253 336 282 367T340 429T392 489T428 538Q452 538 452 514Q452 485 432 458T389 408Q382 401 362 383T317
344T272 306T246 283Q272 285 287 283Q316 281 321 266T327 235Q323 240 300 246Q293 247 286 247T267 248Q258 248 248 248T225 246H223Q218 233 212 221Q206 208 201 195L236 196Q251 196 262 195Q291 193 296 178T302 147Q298 153 274 159Q261 161 242 161Q233
161 223 161T200 159L186 157Q176 131 167 107T153 62Q148 43 145 30T142 6Q142 -3 145 -11Z" />
<glyph unicode="&#xa6;" glyph-name="brokenbar" horiz-adv-x="303" d="M132 322Q152 377 176 433T228 544Q228 543 230 547Q235 547 246 535T259 513Q259 510 258 508Q253 498 243 475T221 423T198 367T180 322H132ZM38 -30Q30 -30 32 -13Q35 15 53 83T102 240L148
241Q137 214 121 174T90 92T63 21T49 -15Q43 -30 38 -30Z" />
<glyph unicode="&#xa7;" glyph-name="section" horiz-adv-x="457" d="M224 -105Q194 -105 165 -89T108 -52T60 -14T25 4Q29 17 36 24T59 31Q78 31 91 19T125 -17Q153 -48 178 -64T241 -80Q265 -80 286 -66T308 -28Q308 -9 294 7T260 38T219 65Q184 86 157 118T129
195Q129 227 138 245T164 273T201 293Q197 301 196 309T195 328Q195 364 215 400T269 467T344 516T426 535Q464 535 485 507T506 437Q506 419 495 399T470 357T445 315T434 273Q419 273 410 286T400 316Q400 338 410 357T435 395T459 432T470 471Q470 479 463 490T438
501Q409 501 378 485T319 444T274 390T257 335Q257 306 280 286T331 249Q357 234 381 215T405 169Q405 133 379 105T320 61Q337 48 347 33T357 -2Q357 -37 339 -59T290 -93T224 -105ZM295 80L315 88Q332 96 349 110T367 146Q367 166 349 181T305 210T253 239T212
276Q174 241 174 207Q174 185 188 165T226 125Q242 113 260 102L295 80Z" />
<glyph unicode="&#xa8;" glyph-name="dieresis" horiz-adv-x="184" d="M145 440Q134 440 128 445T118 458Q116 461 116 467Q116 472 119 477T125 485Q140 498 155 505Q159 509 175 509Q187 509 183 500Q177 492 174 478T166 452T145 440ZM29 440Q18 440 12 445T2
458Q0 461 0 467Q0 472 3 477T9 485Q24 498 39 505Q43 509 59 509Q71 509 67 500Q61 492 58 478T50 452T29 440Z" />
<glyph unicode="&#xa9;" glyph-name="copyright" horiz-adv-x="572" d="M209 -6Q154 -6 115 19T56 87T35 184Q35 224 47 269Q63 325 94 375T169 464T263 525T365 547Q419 547 458 522T517 453T538 354Q538 313 526 269Q510 213 478 164T403 76T310 16T209 -6ZM214
25Q272 25 327 59T425 148T488 269Q495 291 498 312T501 354Q501 422 465 468T363 514Q320 514 278 494T198 440T132 362T89 269Q76 226 76 184Q76 116 112 71T214 25ZM249 138Q205 138 187 161T168 218Q168 253 184 290T227 359T287 410T356 430Q388 430 402 415T416
378Q416 374 416 370T414 360Q409 346 403 330T392 306L389 301L388 300Q371 300 371 321Q371 331 374 342T383 365Q389 378 389 390Q389 415 366 415Q334 415 306 394T255 341T220 272T207 207Q207 184 214 168T249 152Q282 152 312 179T359 249Q361 252 363 251Q371
246 371 232Q371 206 351 185T303 151T249 138Z" />
<glyph unicode="&#xaa;" glyph-name="ordfeminine" horiz-adv-x="336" d="M81 278Q57 279 48 291T38 322Q38 342 47 365T67 408Q86 438 114 467T173 516T234 535Q264 535 291 514Q302 504 302 495Q302 484 293 484Q287 484 283 493Q273 518 251 518Q232 518 209
502T161 460Q135 433 115 402T84 345Q75 323 75 311Q75 297 86 297Q98 297 123 316Q151 336 175 366T223 422L236 442Q242 451 260 451Q269 451 275 448T278 437Q278 437 272 425T257 397T241 366T232 347Q221 320 221 311Q221 304 228 304Q235 304 245 309Q261
317 277 332T309 365L324 382L337 397Q341 402 344 397Q345 396 345 393Q345 390 342 385L309 346L292 327Q283 317 274 309Q240 278 216 278Q186 278 186 316Q186 329 191 347Q195 362 202 381Q187 358 168 334T127 294T81 278Z" />
<glyph unicode="&#xab;" glyph-name="guillemotleft" horiz-adv-x="383" d="M296 108L288 110Q280 120 267 145T240 197T216 240Q220 243 234 255T265 281T293 304Q302 311 317 324T347 347T364 358L370 355L372 349Q368 336 349 314T306 270T269 235L303 119L301
110L296 108ZM173 101Q168 101 165 104Q144 133 127 168Q110 202 93 234Q98 238 112 249T141 274T169 298Q178 305 193 318T223 341T241 352L247 349L250 343Q247 334 234 319T204 286T170 253T145 229L179 113L178 105L173 101Z" />
<glyph unicode="&#xac;" glyph-name="logicalnot" horiz-adv-x="687" d="M502 12Q496 12 490 17T486 31L521 195H77Q72 195 66 197T60 206Q60 213 69 224T86 235H569L525 31Q523 12 502 12Z" />
<glyph unicode="&#xad;" glyph-name="uni00AD" horiz-adv-x="351" d="M308 184Q304 189 280 195Q267 197 248 197Q239 197 229 197T206 195Q202 195 186 194T150 191T111 188T85 186Q61 186 54 198T47 229Q65 226 90 226Q131 226 180 230T268 232Q297 230 302
215T308 184Z" />
<glyph unicode="&#xae;" glyph-name="registered" horiz-adv-x="572" d="M209 -6Q154 -6 115 19T56 87T35 184Q35 224 47 269Q63 325 94 375T169 464T263 525T365 547Q419 547 458 522T517 453T538 354Q538 313 526 269Q510 213 478 164T403 76T310 16T209 -6ZM214
25Q272 25 327 59T425 148T488 269Q495 291 498 312T501 354Q501 422 465 468T363 514Q320 514 278 494T198 440T132 362T89 269Q76 226 76 184Q76 116 112 71T214 25ZM300 134L299 135Q298 135 298 136Q291 151 277 172T248 214T224 243L202 201Q193 182 186 166T177
142Q177 139 173 139Q164 144 160 152T156 177Q156 191 163 205T179 232V231L185 240Q188 243 190 247L207 277L242 334Q259 362 270 386Q268 385 266 385H255Q230 385 230 399Q230 405 232 408Q232 410 235 410Q255 412 284 418L288 433Q288 435 291 435Q303 435
306 424Q323 429 339 432T371 435Q401 435 414 419T427 380Q427 359 413 334T374 287T323 252T269 239Q283 222 290 210T305 178Q309 168 309 152Q309 134 300 134ZM249 263Q271 266 298 277T350 306T391 344T407 386Q407 404 373 404Q360 404 346 401Q332 398
318 396L306 393Q302 379 290 355T265 308T243 272L241 274L249 263Z" />
<glyph unicode="&#xaf;" glyph-name="overscore" horiz-adv-x="173" d="M184 441Q178 444 166 445T139 446Q108 446 74 444T22 442Q2 442 1 456T0 482Q8 480 21 479T49 478Q80 478 110 480T163 482Q180 482 182 468T184 441Z" />
<glyph unicode="&#xb0;" glyph-name="degree" horiz-adv-x="326" d="M147 297Q122 297 108 314T94 358Q94 388 108 413T145 453T190 468Q215 468 230 451T245 408Q245 378 231 353T194 313T147 297ZM149 314Q166 314 182 333T210 380Q212 388 213 395T214 408Q214
426 208 437T190 448Q173 448 155 428T129 380Q123 364 123 350Q123 334 130 324T149 314Z" />
<glyph unicode="&#xb1;" glyph-name="plusminus" horiz-adv-x="461" d="M193 59Q186 59 185 67T184 82Q186 89 193 104T208 138T224 172T233 192Q228 192 210 192T171 195T134 201T121 213Q123 222 129 228T144 235Q172 235 200 236Q228 237 256 237Q274 278 294
319Q313 359 329 401Q334 401 335 395T337 381Q337 368 335 353T330 332Q322 308 311 280T291 237Q308 237 336 237T389 238T421 240L419 235Q417 228 412 222Q408 216 391 212T352 205T309 200T280 195Q279 194 272 180T254 146T231 106T209 73T193 59ZM314 -32Q310
-27 287 -21Q274 -18 253 -18Q244 -18 234 -18T212 -20Q203 -21 180 -23T132 -28T92 -30Q68 -30 61 -18T54 13Q72 10 97 10Q138 10 187 14T275 16Q302 14 308 0T314 -32Z" />
<glyph unicode="&#xb2;" glyph-name="uni00B2" horiz-adv-x="359" d="M268 184Q265 185 265 192Q265 193 265 193T266 195Q266 199 259 202Q249 206 227 206Q211 206 183 203T129 195T93 188L91 187H88Q83 189 78 198T73 213Q73 216 75 216Q91 222 107 232T138
253Q161 271 192 299T252 360T300 427T320 490Q320 512 303 512Q289 512 275 500T250 472T232 444Q217 419 201 413Q185 406 177 406Q174 406 174 409Q175 429 189 450T224 490T269 519T314 531Q335 531 347 521T360 486Q360 453 339 418T286 349T218 287T156 239L141
229Q159 234 183 238T229 242Q248 242 258 240Q269 236 277 228T284 207Q282 202 278 193T268 184Z" />
<glyph unicode="&#xb3;" glyph-name="uni00B3" horiz-adv-x="382" d="M160 186Q130 186 112 204T93 258Q93 284 106 301T151 320Q158 320 153 315Q143 307 134 287T124 254Q123 234 132 222T163 209Q191 209 216 225T257 267T273 318Q273 333 267 343T243 353Q236
353 227 351T201 340Q199 339 196 339Q189 339 185 346T178 362V366Q173 371 179 371Q209 372 243 388T303 429T328 487Q328 514 306 514Q284 514 266 494T238 457Q224 436 209 431Q194 425 187 425Q184 425 184 428Q185 452 206 476T257 516T312 532Q331 532 348
521T365 479Q365 453 347 433T305 397T261 374Q294 369 305 352T316 314Q316 277 292 249T231 203T160 186Z" />
<glyph unicode="&#xb4;" glyph-name="acute" horiz-adv-x="131" d="M6 440Q0 440 0 447Q0 451 3 454Q22 471 45 494T79 528Q84 533 90 537T103 542Q117 542 124 536T131 526Q131 524 117 513T87 491T61 473Q55 469 43 461T21 447T7 440H6Z" />
<glyph unicode="&#xb5;" glyph-name="uni03BC" horiz-adv-x="347" d="M-79 -257Q-87 -257 -84 -240Q-81 -192 -65 -128T-22 7Q3 77 35 148T99 279Q104 289 117 298T144 314T167 320Q183 320 183 309Q183 300 173 286Q151 252 125 209T79 124Q66 100 61 82T55 51Q55
28 71 28Q93 28 124 64Q137 79 161 112T211 184T258 252Q282 298 309 314T373 330Q363 324 349 304T320 260Q310 247 299 225T276 177T256 129T244 93Q238 71 238 56Q238 35 252 35Q254 35 257 36T264 37Q272 37 267 27T247 7T215 -3Q197 -3 189 8T181 39Q181 60
188 87T207 143Q187 112 162 79T109 24T56 1Q47 1 41 3T29 8Q20 -14 9 -42T-12 -98T-30 -144Q-41 -172 -52 -200T-67 -242Q-73 -257 -79 -257Z" />
<glyph unicode="&#xb6;" glyph-name="paragraph" horiz-adv-x="343" d="M97 -30Q89 -30 92 -13Q93 4 101 40T124 122T154 217T186 309H150Q99 309 72 332T45 391Q45 423 62 454T110 509T179 544Q224 556 266 556H441Q444 552 444 547Q444 539 437 530T417 516V514Q417
513 418 513Q418 510 417 508Q409 491 392 451Q382 427 368 391T338 317T310 247L266 137Q245 84 230 44T208 -15Q202 -30 197 -30Q191 -30 191 -18Q191 4 205 59T245 192Q269 264 301 347T371 513H319Q319 510 318 508Q310 491 293 451Q276 410 255 358T210 247L167
137Q146 84 131 44T109 -15Q103 -30 97 -30Z" />
<glyph unicode="&#xb7;" glyph-name="middot" horiz-adv-x="310" d="M195 188Q184 188 178 193T167 207Q164 212 164 216Q164 222 167 227T175 235Q182 241 190 246T207 256L221 262Q226 264 234 269Q237 271 239 269T240 264Q230 251 227 233T217 202T195 188Z" />
<glyph unicode="&#xb8;" glyph-name="cedilla" horiz-adv-x="153" d="M39 -193Q24 -193 13 -188T0 -169Q6 -170 15 -171T34 -172Q54 -172 74 -163T100 -125Q103 -110 97 -100T83 -79T75 -50Q75 -18 99 -4T155 10Q164 10 164 4Q142 0 129 -7T116 -36Q116 -50 122
-60T133 -80T139 -106Q139 -133 123 -152T83 -182T39 -193Z" />
<glyph unicode="&#xb9;" glyph-name="uni00B9" horiz-adv-x="339" d="M166 173Q158 173 155 181T152 202Q152 217 154 232T158 256Q169 297 192 341T239 426V425L246 437L253 449Q251 448 249 448T245 447Q240 447 235 450V453Q235 456 243 467T261 490T281 512T293
521Q300 521 315 514T331 500Q331 496 328 496Q307 464 281 421T235 343Q203 281 189 240Q175 198 175 179Q175 173 166 173Z" />
<glyph unicode="&#xba;" glyph-name="ordmasculine" horiz-adv-x="300" d="M125 280Q97 280 85 298T72 344Q72 380 88 413Q102 445 126 473T178 518T233 536Q262 536 275 517T289 469Q289 437 274 404Q263 379 239 350T184 301T125 280ZM141 295Q161 295 181 312T218
353T243 392Q268 439 268 477Q268 513 241 513Q225 513 206 499T170 463T141 416Q128 391 121 369T114 328Q114 295 141 295Z" />
<glyph unicode="&#xbb;" glyph-name="guillemotright" horiz-adv-x="397" d="M224 108L218 110L215 116Q218 125 231 140T261 173T294 205T320 231L286 347L287 355L292 359Q295 359 300 356Q321 327 338 293Q355 258 372 226Q367 222 353 211T324 186T297 163Q288
155 272 142T241 119T224 108ZM101 102L95 105L93 110Q97 123 116 145T159 189T196 225L162 341L164 349L169 352L177 350Q186 338 198 314T224 264T249 220Q245 217 231 205T200 179T173 157Q163 149 148 136T118 113T101 102Z" />
<glyph unicode="&#xbc;" glyph-name="onequarter" horiz-adv-x="713" d="M166 173Q158 173 155 181T152 202Q152 217 154 232T158 256Q169 297 192 341T239 426V425L246 437L253 449Q251 448 249 448T245 447Q240 447 235 450V453Q235 456 243 467T261 490T281
512T293 521Q300 521 315 514T331 500Q331 496 328 496Q307 464 281 421T235 343Q203 281 189 240Q175 198 175 179Q175 173 166 173ZM173 -94Q169 -94 169 -88Q169 -72 198 -9T276 142Q317 219 370 307T483 480Q483 479 485 483Q490 484 498 473T507 451Q507 446
506 445Q494 428 469 388Q443 347 411 295T344 184L278 74Q246 21 222 -20T188 -79Q179 -94 173 -94ZM516 -14Q508 -14 505 -5T501 16Q501 30 503 44T508 67Q512 82 517 96T530 127Q504 126 476 119T428 105L413 101Q409 99 405 108T397 127T393 139Q395 151 413
170T456 211T502 249Q522 265 549 284T601 318T637 339Q638 340 641 340Q645 340 649 337Q655 332 662 319T667 301Q664 292 652 270T626 222T602 179L586 153Q603 149 613 140T624 122Q624 118 620 120Q615 122 602 123L571 126Q544 74 534 42Q524 10 524 -7Q524
-14 516 -14ZM425 142Q451 149 476 154T530 159L539 158L545 157Q559 188 573 215Q584 238 596 262T617 301Q608 294 590 280T555 253T530 234L517 223L505 213Q486 198 468 183T425 142Z" />
<glyph unicode="&#xbd;" glyph-name="onehalf" horiz-adv-x="617" d="M166 173Q158 173 155 181T152 202Q152 217 154 232T158 256Q169 297 192 341T239 426V425L246 437L253 449Q251 448 249 448T245 447Q240 447 235 450V453Q235 456 243 467T261 490T281 512T293
521Q300 521 315 514T331 500Q331 496 328 496Q307 464 281 421T235 343Q203 281 189 240Q175 198 175 179Q175 173 166 173ZM173 -94Q169 -94 169 -88Q169 -72 198 -9T276 142Q317 219 370 307T483 480Q483 479 485 483Q490 484 498 473T507 451Q507 446 506 445Q494
428 469 388Q443 347 411 295T344 184L278 74Q246 21 222 -20T188 -79Q179 -94 173 -94ZM566 -14Q564 -12 564 -5V-4Q564 -2 564 1T558 5Q552 7 544 7T525 8Q506 8 479 5T428 -2T392 -9H390L386 -10Q380 -9 376 2T371 17Q371 19 373 19Q389 25 405 35T436 56Q459
74 490 102T550 163T598 229T618 292Q618 305 613 309T601 314Q587 314 573 302T548 274T530 246Q516 222 500 216T475 209Q473 209 473 212Q474 232 487 253T522 293T567 323T612 334Q633 334 645 324T658 291Q658 258 637 223T584 153T517 90T454 42L439 32Q457
37 481 41T528 45Q545 45 557 42Q568 39 576 31T582 9Q581 4 576 -5T566 -14Z" />
<glyph unicode="&#xbe;" glyph-name="threequarters" horiz-adv-x="645" d="M160 186Q130 186 112 204T93 258Q93 284 106 301T151 320Q158 320 153 315Q143 307 134 287T124 254Q123 234 132 222T163 209Q191 209 216 225T257 267T273 318Q273 333 267 343T243
353Q236 353 227 351T201 340Q199 339 196 339Q189 339 185 346T178 362V366Q173 371 179 371Q209 372 243 388T303 429T328 487Q328 514 306 514Q284 514 266 494T238 457Q224 436 209 431Q194 425 187 425Q184 425 184 428Q185 452 206 476T257 516T312 532Q331
532 348 521T365 479Q365 453 347 433T305 397T261 374Q294 369 305 352T316 314Q316 277 292 249T231 203T160 186ZM173 -94Q169 -94 169 -88Q169 -72 198 -9T276 142Q317 219 370 307T483 480Q483 479 485 483Q490 484 498 473T507 451Q507 446 506 445Q494 428
469 388Q443 347 411 295T344 184L278 74Q246 21 222 -20T188 -79Q179 -94 173 -94ZM516 -14Q508 -14 505 -5T501 16Q501 30 503 44T508 67Q512 82 517 96T530 127Q504 126 476 119T428 105L413 101Q409 99 405 108T397 127T393 139Q395 151 413 170T456 211T502
249Q522 265 549 284T601 318T637 339Q638 340 641 340Q645 340 649 337Q655 332 662 319T667 301Q664 292 652 270T626 222T602 179L586 153Q603 149 613 140T624 122Q624 118 620 120Q615 122 602 123L571 126Q544 74 534 42Q524 10 524 -7Q524 -14 516 -14ZM425
142Q451 149 476 154T530 159L539 158L545 157Q559 188 573 215Q584 238 596 262T617 301Q608 294 590 280T555 253T530 234L517 223L505 213Q486 198 468 183T425 142Z" />
<glyph unicode="&#xbf;" glyph-name="questiondown" horiz-adv-x="408" d="M271 218Q280 218 287 211T296 193V182Q296 176 295 170Q286 131 238 80Q214 54 188 21T138 -47Q114 -84 108 -109Q107 -115 107 -120T106 -130Q106 -152 117 -165T149 -179Q177 -179
203 -158T250 -109T279 -60Q284 -46 288 -46Q291 -46 291 -53Q291 -62 287 -72Q264 -136 217 -169T108 -203Q68 -203 51 -186T34 -140Q34 -104 52 -71T96 -10T149 38L207 84Q236 106 257 142Q263 150 265 158L270 171Q270 174 270 177T271 182Q271 198 258 204Q255
206 255 209Q257 216 265 217Q267 218 271 218ZM336 350Q347 350 353 345T364 331Q367 327 367 322Q367 316 364 311T356 302Q349 297 341 292T324 282L310 276Q305 273 297 268Q294 266 292 268T291 273Q300 288 304 306T314 337T336 350Z" />
<glyph unicode="&#xc0;" glyph-name="Agrave" horiz-adv-x="707" d="M496 -228Q470 -228 448 -209Q435 -198 430 -181T425 -142Q425 -111 433 -75T451 -5T470 55Q477 76 489 109T514 175T536 230Q530 230 507 228T454 223T402 216T374 210Q358 195 336 171T291
122T247 78Q210 44 171 21T89 -3Q35 -3 9 32T-17 119Q-17 184 20 247Q40 282 72 321T143 395T225 451T307 473Q313 473 321 472T330 467L316 465Q288 461 255 441Q187 400 123 322Q91 284 67 244Q42 204 28 164T13 89Q13 55 29 40T68 24Q94 24 125 41Q166 65 192
89T241 139T292 194L253 186Q230 181 208 181Q179 181 165 190T151 211Q151 230 179 244Q199 252 221 256Q243 259 259 263Q261 263 261 262Q261 260 259 260Q251 259 241 253T230 244Q235 245 250 246T284 250T320 255T345 260Q390 303 435 364T522 490T595 609Q598
615 609 635T633 681T657 727T672 756Q675 762 677 762Q679 762 679 759T678 752Q628 635 566 512T421 266Q429 267 449 267T491 269T530 271T551 273Q567 311 585 362T620 468T646 572T654 657Q662 662 671 669Q679 676 688 676Q711 676 720 652T730 602Q730 577
721 542T699 469T670 395Q653 357 636 322T613 273Q640 273 670 267T720 247T741 208Q741 204 741 201T739 192Q736 182 732 182Q730 182 730 187Q730 189 731 191T732 197Q732 201 729 205Q720 217 697 222T645 227T595 228Q587 213 571 178T538 101T506 21T485
-40Q481 -53 474 -76T461 -125T455 -171Q455 -197 468 -200Q488 -204 509 -190T551 -154T593 -117Q603 -112 596 -121Q589 -126 581 -140T565 -168T554 -190Q545 -209 530 -218T496 -228ZM759 790Q757 790 745 794T720 803T700 811Q683 819 662 829T624 847T606
857Q605 860 611 867T630 878H634Q640 878 646 876T657 869Q665 864 684 852T724 827T760 805Q762 804 763 802T765 799V797Q765 790 759 790Z" />
<glyph unicode="&#xc1;" glyph-name="Aacute" horiz-adv-x="707" d="M496 -228Q470 -228 448 -209Q435 -198 430 -181T425 -142Q425 -111 433 -75T451 -5T470 55Q477 76 489 109T514 175T536 230Q530 230 507 228T454 223T402 216T374 210Q358 195 336 171T291
122T247 78Q210 44 171 21T89 -3Q35 -3 9 32T-17 119Q-17 184 20 247Q40 282 72 321T143 395T225 451T307 473Q313 473 321 472T330 467L316 465Q288 461 255 441Q187 400 123 322Q91 284 67 244Q42 204 28 164T13 89Q13 55 29 40T68 24Q94 24 125 41Q166 65 192
89T241 139T292 194L253 186Q230 181 208 181Q179 181 165 190T151 211Q151 230 179 244Q199 252 221 256Q243 259 259 263Q261 263 261 262Q261 260 259 260Q251 259 241 253T230 244Q235 245 250 246T284 250T320 255T345 260Q390 303 435 364T522 490T595 609Q598
615 609 635T633 681T657 727T672 756Q675 762 677 762Q679 762 679 759T678 752Q628 635 566 512T421 266Q429 267 449 267T491 269T530 271T551 273Q567 311 585 362T620 468T646 572T654 657Q662 662 671 669Q679 676 688 676Q711 676 720 652T730 602Q730 577
721 542T699 469T670 395Q653 357 636 322T613 273Q640 273 670 267T720 247T741 208Q741 204 741 201T739 192Q736 182 732 182Q730 182 730 187Q730 189 731 191T732 197Q732 201 729 205Q720 217 697 222T645 227T595 228Q587 213 571 178T538 101T506 21T485
-40Q481 -53 474 -76T461 -125T455 -171Q455 -197 468 -200Q488 -204 509 -190T551 -154T593 -117Q603 -112 596 -121Q589 -126 581 -140T565 -168T554 -190Q545 -209 530 -218T496 -228ZM681 790Q673 790 675 799Q676 800 677 802T680 805Q695 814 716 827T756
852T783 869Q789 874 796 877T810 878Q824 875 829 868T834 857Q833 855 817 847T779 829T740 811Q734 808 721 803T696 794T681 790Z" />
<glyph unicode="&#xc2;" glyph-name="Acircumflex" horiz-adv-x="707" d="M496 -228Q470 -228 448 -209Q435 -198 430 -181T425 -142Q425 -111 433 -75T451 -5T470 55Q477 76 489 109T514 175T536 230Q530 230 507 228T454 223T402 216T374 210Q358 195 336 171T291
122T247 78Q210 44 171 21T89 -3Q35 -3 9 32T-17 119Q-17 184 20 247Q40 282 72 321T143 395T225 451T307 473Q313 473 321 472T330 467L316 465Q288 461 255 441Q187 400 123 322Q91 284 67 244Q42 204 28 164T13 89Q13 55 29 40T68 24Q94 24 125 41Q166 65 192
89T241 139T292 194L253 186Q230 181 208 181Q179 181 165 190T151 211Q151 230 179 244Q199 252 221 256Q243 259 259 263Q261 263 261 262Q261 260 259 260Q251 259 241 253T230 244Q235 245 250 246T284 250T320 255T345 260Q390 303 435 364T522 490T595 609Q598
615 609 635T633 681T657 727T672 756Q675 762 677 762Q679 762 679 759T678 752Q628 635 566 512T421 266Q429 267 449 267T491 269T530 271T551 273Q567 311 585 362T620 468T646 572T654 657Q662 662 671 669Q679 676 688 676Q711 676 720 652T730 602Q730 577
721 542T699 469T670 395Q653 357 636 322T613 273Q640 273 670 267T720 247T741 208Q741 204 741 201T739 192Q736 182 732 182Q730 182 730 187Q730 189 731 191T732 197Q732 201 729 205Q720 217 697 222T645 227T595 228Q587 213 571 178T538 101T506 21T485
-40Q481 -53 474 -76T461 -125T455 -171Q455 -197 468 -200Q488 -204 509 -190T551 -154T593 -117Q603 -112 596 -121Q589 -126 581 -140T565 -168T554 -190Q545 -209 530 -218T496 -228ZM628 788Q622 786 622 793Q622 797 627 802Q649 819 678 837T720 864Q731
871 739 875T755 880Q762 880 768 876T779 866Q790 856 813 838T852 802Q855 799 855 796Q855 793 852 791T847 788Q846 788 831 795T799 811Q783 819 771 827T748 842Q738 836 725 829T693 813Q681 808 661 800T628 788Z" />
<glyph unicode="&#xc3;" glyph-name="Atilde" horiz-adv-x="707" d="M496 -228Q470 -228 448 -209Q435 -198 430 -181T425 -142Q425 -111 433 -75T451 -5T470 55Q477 76 489 109T514 175T536 230Q530 230 507 228T454 223T402 216T374 210Q358 195 336 171T291
122T247 78Q210 44 171 21T89 -3Q35 -3 9 32T-17 119Q-17 184 20 247Q40 282 72 321T143 395T225 451T307 473Q313 473 321 472T330 467L316 465Q288 461 255 441Q187 400 123 322Q91 284 67 244Q42 204 28 164T13 89Q13 55 29 40T68 24Q94 24 125 41Q166 65 192
89T241 139T292 194L253 186Q230 181 208 181Q179 181 165 190T151 211Q151 230 179 244Q199 252 221 256Q243 259 259 263Q261 263 261 262Q261 260 259 260Q251 259 241 253T230 244Q235 245 250 246T284 250T320 255T345 260Q390 303 435 364T522 490T595 609Q598
615 609 635T633 681T657 727T672 756Q675 762 677 762Q679 762 679 759T678 752Q628 635 566 512T421 266Q429 267 449 267T491 269T530 271T551 273Q567 311 585 362T620 468T646 572T654 657Q662 662 671 669Q679 676 688 676Q711 676 720 652T730 602Q730 577
721 542T699 469T670 395Q653 357 636 322T613 273Q640 273 670 267T720 247T741 208Q741 204 741 201T739 192Q736 182 732 182Q730 182 730 187Q730 189 731 191T732 197Q732 201 729 205Q720 217 697 222T645 227T595 228Q587 213 571 178T538 101T506 21T485
-40Q481 -53 474 -76T461 -125T455 -171Q455 -197 468 -200Q488 -204 509 -190T551 -154T593 -117Q603 -112 596 -121Q589 -126 581 -140T565 -168T554 -190Q545 -209 530 -218T496 -228ZM783 788Q761 788 747 796T720 813T690 821Q673 821 663 809T645 789Q638
786 638 791Q638 805 648 819T673 844T704 854Q733 854 756 841T804 828Q815 828 821 834T837 853Q839 853 841 852T844 842Q844 827 833 815T808 796T783 788Z" />
<glyph unicode="&#xc4;" glyph-name="Adieresis" horiz-adv-x="707" d="M496 -228Q470 -228 448 -209Q435 -198 430 -181T425 -142Q425 -111 433 -75T451 -5T470 55Q477 76 489 109T514 175T536 230Q530 230 507 228T454 223T402 216T374 210Q358 195 336 171T291
122T247 78Q210 44 171 21T89 -3Q35 -3 9 32T-17 119Q-17 184 20 247Q40 282 72 321T143 395T225 451T307 473Q313 473 321 472T330 467L316 465Q288 461 255 441Q187 400 123 322Q91 284 67 244Q42 204 28 164T13 89Q13 55 29 40T68 24Q94 24 125 41Q166 65 192
89T241 139T292 194L253 186Q230 181 208 181Q179 181 165 190T151 211Q151 230 179 244Q199 252 221 256Q243 259 259 263Q261 263 261 262Q261 260 259 260Q251 259 241 253T230 244Q235 245 250 246T284 250T320 255T345 260Q390 303 435 364T522 490T595 609Q598
615 609 635T633 681T657 727T672 756Q675 762 677 762Q679 762 679 759T678 752Q628 635 566 512T421 266Q429 267 449 267T491 269T530 271T551 273Q567 311 585 362T620 468T646 572T654 657Q662 662 671 669Q679 676 688 676Q711 676 720 652T730 602Q730 577
721 542T699 469T670 395Q653 357 636 322T613 273Q640 273 670 267T720 247T741 208Q741 204 741 201T739 192Q736 182 732 182Q730 182 730 187Q730 189 731 191T732 197Q732 201 729 205Q720 217 697 222T645 227T595 228Q587 213 571 178T538 101T506 21T485
-40Q481 -53 474 -76T461 -125T455 -171Q455 -197 468 -200Q488 -204 509 -190T551 -154T593 -117Q603 -112 596 -121Q589 -126 581 -140T565 -168T554 -190Q545 -209 530 -218T496 -228ZM802 790Q791 790 785 795T775 808Q773 811 773 817Q773 822 776 827T782
835Q797 848 812 855Q816 859 832 859Q844 859 840 850Q834 842 831 828T823 802T802 790ZM686 790Q675 790 669 795T659 808Q657 811 657 817Q657 822 660 827T666 835Q681 848 696 855Q700 859 716 859Q728 859 724 850Q718 842 715 828T707 802T686 790Z" />
<glyph unicode="&#xc5;" glyph-name="Aring" horiz-adv-x="707" d="M496 -228Q470 -228 448 -209Q435 -198 430 -181T425 -142Q425 -111 433 -75T451 -5T470 55Q477 76 489 109T514 175T536 230Q530 230 507 228T454 223T402 216T374 210Q358 195 336 171T291
122T247 78Q210 44 171 21T89 -3Q35 -3 9 32T-17 119Q-17 184 20 247Q40 282 72 321T143 395T225 451T307 473Q313 473 321 472T330 467L316 465Q288 461 255 441Q187 400 123 322Q91 284 67 244Q42 204 28 164T13 89Q13 55 29 40T68 24Q94 24 125 41Q166 65 192
89T241 139T292 194L253 186Q230 181 208 181Q179 181 165 190T151 211Q151 230 179 244Q199 252 221 256Q243 259 259 263Q261 263 261 262Q261 260 259 260Q251 259 241 253T230 244Q235 245 250 246T284 250T320 255T345 260Q390 303 435 364T522 490T595 609Q598
615 609 635T633 681T657 727T672 756Q675 762 677 762Q679 762 679 759T678 752Q628 635 566 512T421 266Q429 267 449 267T491 269T530 271T551 273Q567 311 585 362T620 468T646 572T654 657Q662 662 671 669Q679 676 688 676Q711 676 720 652T730 602Q730 577
721 542T699 469T670 395Q653 357 636 322T613 273Q640 273 670 267T720 247T741 208Q741 204 741 201T739 192Q736 182 732 182Q730 182 730 187Q730 189 731 191T732 197Q732 201 729 205Q720 217 697 222T645 227T595 228Q587 213 571 178T538 101T506 21T485
-40Q481 -53 474 -76T461 -125T455 -171Q455 -197 468 -200Q488 -204 509 -190T551 -154T593 -117Q603 -112 596 -121Q589 -126 581 -140T565 -168T554 -190Q545 -209 530 -218T496 -228ZM735 791Q712 791 698 805T684 842Q684 871 707 892T762 914Q786 914 800
901T815 866Q815 836 790 814T735 791ZM738 811Q757 811 770 829T784 868Q784 893 762 893Q742 893 729 876T715 842Q715 828 721 820T738 811Z" />
<glyph unicode="&#xc6;" glyph-name="AE" horiz-adv-x="1155" d="M496 -228Q470 -228 448 -209Q435 -198 430 -181T425 -142Q425 -111 433 -75T451 -5T470 55Q470 60 473 63Q480 84 491 115T515 177T536 230Q530 230 507 228T454 223T402 216T374 210Q358 195
336 171T291 122T247 78Q210 44 171 21T89 -3Q35 -3 9 32T-17 119Q-17 184 20 247Q40 282 72 321T143 395T225 451T307 473Q313 473 321 472T330 467L316 465Q288 461 255 441Q187 400 123 322Q91 284 67 244Q42 204 28 164T13 89Q13 55 29 40T68 24Q94 24 125
41Q166 65 192 89T241 139T292 194L253 186Q230 181 208 181Q179 181 165 190T151 211Q151 230 179 244Q199 252 221 256Q243 259 259 263Q261 263 261 262Q261 260 259 260Q251 259 241 253T230 244Q235 245 250 246T284 250T320 255T345 260Q390 303 435 364T522
490T595 609Q598 615 609 635T633 681T657 727T672 756Q675 762 677 762Q679 762 679 759T678 752Q628 635 566 512T421 266Q429 267 449 267T491 269T530 271T551 273Q567 311 585 362T620 468T646 572T654 657Q662 662 671 669Q679 676 688 676Q711 676 720 652T730
602Q730 595 730 589T728 576L714 526L719 531Q755 567 804 597T907 648T1013 681T1110 693Q1135 693 1164 686T1215 664T1237 622Q1237 591 1213 570T1153 535T1076 514T1004 503Q978 501 951 500T897 498Q864 498 831 500T766 505Q736 477 716 445T695 381Q695
361 710 345T751 318T805 308Q830 308 858 315T898 322Q909 324 918 311T928 287Q928 276 918 276Q871 272 814 250T701 192T601 115T534 30Q530 22 528 15T526 1Q526 -40 624 -40Q658 -40 703 -32T797 -10T889 23Q913 34 946 55T1012 103T1065 158T1087 210Q1087
229 1061 229Q1043 229 1016 220T959 195T900 161T853 124Q844 115 837 115Q831 115 831 122Q831 133 843 145Q855 155 879 174T932 212T992 244T1045 258Q1075 258 1097 244T1119 192Q1119 160 1100 129T1052 69T989 17T927 -21Q869 -51 794 -72T640 -94Q624 -94
608 -93T576 -90Q547 -85 524 -73T485 -40Q481 -53 474 -77T461 -126T455 -172Q455 -197 468 -200Q488 -204 509 -190T551 -154T593 -117Q603 -112 596 -121Q589 -126 581 -140T565 -168T554 -190Q545 -209 530 -218T496 -228ZM795 528Q849 527 902 530T1005 542Q1026
545 1058 551T1122 568T1175 591T1197 621Q1197 632 1180 636T1141 642T1101 643Q1043 643 988 627T894 590Q874 579 848 564T795 528ZM574 184Q618 219 673 249T784 296Q729 296 698 317T660 373Q639 322 618 277T574 184Z" />
<glyph unicode="&#xc7;" glyph-name="Ccedilla" horiz-adv-x="662" d="M258 -83Q169 -83 124 -28T78 115Q78 136 80 156Q91 257 141 348T268 511Q228 518 181 531T91 564T21 610T-6 672Q-6 692 8 704T42 721T82 727Q115 727 159 716T245 689T315 654Q319 651 324
647T329 636Q329 632 325 631T319 631Q267 658 201 673T76 688Q62 688 48 684T34 665Q34 653 42 642T59 622Q100 583 162 560T284 526Q356 589 438 626Q497 652 560 664T699 677Q724 675 753 669T804 647T825 603Q825 577 807 558T759 527T698 509Q668 502 634
499T567 494T514 492Q475 492 437 493T360 498Q294 440 244 365Q214 317 192 265T159 155Q155 137 154 119T152 82Q152 21 179 -19T268 -60Q304 -60 346 -44Q387 -29 428 -2T508 60Q546 95 575 134Q604 173 621 213T639 291Q639 313 628 321T597 329Q571 329 540
314Q509 298 477 273T415 215Q384 183 361 150Q337 116 323 85T309 29Q309 24 307 17T298 10Q292 10 291 16T290 25Q290 53 301 84T323 140Q343 177 371 216T436 288T513 342T597 363Q636 363 658 347T681 290Q681 215 643 148T545 29Q484 -22 409 -52T258 -83ZM420
517Q465 517 517 521T620 534T714 557Q725 560 737 564T759 574Q768 578 781 587T795 608Q795 621 779 626T741 633T707 634Q615 634 533 603T382 517H420ZM183 -273Q168 -273 157 -268T144 -249Q150 -250 159 -251T178 -252Q198 -252 218 -243T244 -205Q247 -190
241 -180T227 -159T219 -130Q219 -98 243 -84T299 -70Q308 -70 308 -76Q286 -80 273 -87T260 -116Q260 -130 266 -140T277 -160T283 -186Q283 -213 267 -232T227 -262T183 -273Z" />
<glyph unicode="&#xc8;" glyph-name="Egrave" horiz-adv-x="696" d="M161 -94Q145 -94 130 -93T98 -90Q50 -82 19 -54T-12 21Q-12 29 -11 37T-8 55Q2 89 33 125T110 194T206 254T306 296Q244 296 213 322T181 388Q181 423 192 453T224 512Q161 520 114 533T43
561Q31 570 31 574Q31 577 36 577Q40 577 52 572Q84 556 132 546T240 531Q274 569 323 599T427 650T535 682T631 693Q656 693 686 686T737 664T759 622Q759 591 735 570T675 535T598 514T526 503Q500 501 473 500T419 498Q386 498 353 500T287 505Q258 478 237
447T216 382Q216 354 246 331T327 308Q352 308 380 315T420 322Q431 324 440 311T449 287Q449 276 439 276Q408 273 372 262Q299 240 223 193Q186 170 154 144Q121 117 96 88T55 30Q51 22 49 15T47 1Q47 -40 146 -40Q180 -40 225 -32T319 -10T411 23Q436 34 469
55T534 103T587 158T608 210Q608 229 583 229Q565 229 538 220T481 195T422 161T375 124Q366 116 358 116Q352 116 352 123Q352 128 355 133T365 145Q377 155 401 174T454 212T514 244T567 258Q597 258 619 244T641 192Q641 160 622 129T574 69T511 17T448 -21Q390
-51 315 -72T161 -94ZM316 528Q427 526 527 542Q548 545 580 551T644 568T697 591T719 621Q719 632 702 636T663 642T623 643Q565 643 510 627T415 590Q396 579 370 564T316 528ZM636 750Q634 750 622 754T597 763T577 771Q560 779 539 789T501 807T483 817Q482
820 488 827T507 838H511Q517 838 523 836T534 829Q542 824 561 812T601 787T637 765Q639 764 640 762T642 759V757Q642 750 636 750Z" />
<glyph unicode="&#xc9;" glyph-name="Eacute" horiz-adv-x="696" d="M161 -94Q145 -94 130 -93T98 -90Q50 -82 19 -54T-12 21Q-12 29 -11 37T-8 55Q2 89 33 125T110 194T206 254T306 296Q244 296 213 322T181 388Q181 423 192 453T224 512Q161 520 114 533T43
561Q31 570 31 574Q31 577 36 577Q40 577 52 572Q84 556 132 546T240 531Q274 569 323 599T427 650T535 682T631 693Q656 693 686 686T737 664T759 622Q759 591 735 570T675 535T598 514T526 503Q500 501 473 500T419 498Q386 498 353 500T287 505Q258 478 237
447T216 382Q216 354 246 331T327 308Q352 308 380 315T420 322Q431 324 440 311T449 287Q449 276 439 276Q408 273 372 262Q299 240 223 193Q186 170 154 144Q121 117 96 88T55 30Q51 22 49 15T47 1Q47 -40 146 -40Q180 -40 225 -32T319 -10T411 23Q436 34 469
55T534 103T587 158T608 210Q608 229 583 229Q565 229 538 220T481 195T422 161T375 124Q366 116 358 116Q352 116 352 123Q352 128 355 133T365 145Q377 155 401 174T454 212T514 244T567 258Q597 258 619 244T641 192Q641 160 622 129T574 69T511 17T448 -21Q390
-51 315 -72T161 -94ZM316 528Q427 526 527 542Q548 545 580 551T644 568T697 591T719 621Q719 632 702 636T663 642T623 643Q565 643 510 627T415 590Q396 579 370 564T316 528ZM558 750Q550 750 552 759Q553 760 554 762T557 765Q572 774 593 787T633 812T660
829Q666 834 673 837T687 838Q701 835 706 828T711 817Q710 815 694 807T656 789T617 771Q611 768 598 763T573 754T558 750Z" />
<glyph unicode="&#xca;" glyph-name="Ecircumflex" horiz-adv-x="696" d="M161 -94Q145 -94 130 -93T98 -90Q50 -82 19 -54T-12 21Q-12 29 -11 37T-8 55Q2 89 33 125T110 194T206 254T306 296Q244 296 213 322T181 388Q181 423 192 453T224 512Q161 520 114 533T43
561Q31 570 31 574Q31 577 36 577Q40 577 52 572Q84 556 132 546T240 531Q274 569 323 599T427 650T535 682T631 693Q656 693 686 686T737 664T759 622Q759 591 735 570T675 535T598 514T526 503Q500 501 473 500T419 498Q386 498 353 500T287 505Q258 478 237
447T216 382Q216 354 246 331T327 308Q352 308 380 315T420 322Q431 324 440 311T449 287Q449 276 439 276Q408 273 372 262Q299 240 223 193Q186 170 154 144Q121 117 96 88T55 30Q51 22 49 15T47 1Q47 -40 146 -40Q180 -40 225 -32T319 -10T411 23Q436 34 469
55T534 103T587 158T608 210Q608 229 583 229Q565 229 538 220T481 195T422 161T375 124Q366 116 358 116Q352 116 352 123Q352 128 355 133T365 145Q377 155 401 174T454 212T514 244T567 258Q597 258 619 244T641 192Q641 160 622 129T574 69T511 17T448 -21Q390
-51 315 -72T161 -94ZM316 528Q427 526 527 542Q548 545 580 551T644 568T697 591T719 621Q719 632 702 636T663 642T623 643Q565 643 510 627T415 590Q396 579 370 564T316 528ZM505 748Q499 746 499 753Q499 757 504 762Q526 779 555 797T597 824Q608 831 616
835T632 840Q639 840 645 836T656 826Q667 816 690 798T729 762Q732 759 732 756Q732 753 729 751T724 748Q723 748 708 755T676 771Q660 779 648 787T625 802Q615 796 602 789T570 773Q558 768 538 760T505 748Z" />
<glyph unicode="&#xcb;" glyph-name="Edieresis" horiz-adv-x="696" d="M161 -94Q145 -94 130 -93T98 -90Q50 -82 19 -54T-12 21Q-12 29 -11 37T-8 55Q2 89 33 125T110 194T206 254T306 296Q244 296 213 322T181 388Q181 423 192 453T224 512Q161 520 114 533T43
561Q31 570 31 574Q31 577 36 577Q40 577 52 572Q84 556 132 546T240 531Q274 569 323 599T427 650T535 682T631 693Q656 693 686 686T737 664T759 622Q759 591 735 570T675 535T598 514T526 503Q500 501 473 500T419 498Q386 498 353 500T287 505Q258 478 237
447T216 382Q216 354 246 331T327 308Q352 308 380 315T420 322Q431 324 440 311T449 287Q449 276 439 276Q408 273 372 262Q299 240 223 193Q186 170 154 144Q121 117 96 88T55 30Q51 22 49 15T47 1Q47 -40 146 -40Q180 -40 225 -32T319 -10T411 23Q436 34 469
55T534 103T587 158T608 210Q608 229 583 229Q565 229 538 220T481 195T422 161T375 124Q366 116 358 116Q352 116 352 123Q352 128 355 133T365 145Q377 155 401 174T454 212T514 244T567 258Q597 258 619 244T641 192Q641 160 622 129T574 69T511 17T448 -21Q390
-51 315 -72T161 -94ZM316 528Q427 526 527 542Q548 545 580 551T644 568T697 591T719 621Q719 632 702 636T663 642T623 643Q565 643 510 627T415 590Q396 579 370 564T316 528ZM679 750Q668 750 662 755T652 768Q650 771 650 777Q650 782 653 787T659 795Q674
808 689 815Q693 819 709 819Q721 819 717 810Q711 802 708 788T700 762T679 750ZM563 750Q552 750 546 755T536 768Q534 771 534 777Q534 782 537 787T543 795Q558 808 573 815Q577 819 593 819Q605 819 601 810Q595 802 592 788T584 762T563 750Z" />
<glyph unicode="&#xcc;" glyph-name="Igrave" horiz-adv-x="584" d="M416 -182Q416 -185 412 -185T406 -181Q393 -168 387 -138T379 -76T378 -21Q357 -26 330 -32T275 -45T226 -56T195 -62Q172 -64 144 -67T91 -70Q60 -70 48 -64Q38 -61 38 -46Q38 -32 46 -15T63
8Q77 17 94 14Q110 10 124 8Q130 6 149 4T194 0T242 -5T277 -8Q292 -9 321 -7T379 -2Q384 45 404 107Q424 168 452 234T515 366Q549 431 581 486Q612 541 638 580T678 635Q695 652 708 660Q677 658 639 649Q601 639 561 623T484 582Q446 558 417 528Q388 497 370
461T352 383Q352 373 355 360T374 339Q379 337 378 335T374 332Q361 332 342 340T307 367T292 414Q292 461 318 498Q343 535 382 562T468 609Q514 628 556 641Q590 651 623 658T669 666Q678 667 686 668T702 671L726 674Q733 674 736 670Q751 673 762 673Q792 673
792 653Q792 637 770 616Q756 603 737 578T696 519T653 452T614 388Q583 333 549 270T484 138T432 3L441 6L446 8Q458 11 466 12T480 13Q489 13 489 10Q489 8 479 3T446 -6L428 -9Q418 -46 412 -81T406 -148Q406 -171 414 -179L416 -182ZM778 722Q776 722 764 726T739
735T719 743Q702 751 681 761T643 779T625 789Q624 792 630 799T649 810H653Q659 810 665 808T676 801Q684 796 703 784T743 759T779 737Q781 736 782 734T784 731V729Q784 722 778 722Z" />
<glyph unicode="&#xcd;" glyph-name="Iacute" horiz-adv-x="584" d="M416 -182Q416 -185 412 -185T406 -181Q393 -168 387 -138T379 -76T378 -21Q357 -26 330 -32T275 -45T226 -56T195 -62Q172 -64 144 -67T91 -70Q60 -70 48 -64Q38 -61 38 -46Q38 -32 46 -15T63
8Q77 17 94 14Q110 10 124 8Q130 6 149 4T194 0T242 -5T277 -8Q292 -9 321 -7T379 -2Q384 45 404 107Q424 168 452 234T515 366Q549 431 581 486Q612 541 638 580T678 635Q695 652 708 660Q677 658 639 649Q601 639 561 623T484 582Q446 558 417 528Q388 497 370
461T352 383Q352 373 355 360T374 339Q379 337 378 335T374 332Q361 332 342 340T307 367T292 414Q292 461 318 498Q343 535 382 562T468 609Q514 628 556 641Q590 651 623 658T669 666Q678 667 686 668T702 671L726 674Q733 674 736 670Q751 673 762 673Q792 673
792 653Q792 637 770 616Q756 603 737 578T696 519T653 452T614 388Q583 333 549 270T484 138T432 3L441 6L446 8Q458 11 466 12T480 13Q489 13 489 10Q489 8 479 3T446 -6L428 -9Q418 -46 412 -81T406 -148Q406 -171 414 -179L416 -182ZM700 722Q692 722 694 731Q695
732 696 734T699 737Q714 746 735 759T775 784T802 801Q808 806 815 809T829 810Q843 807 848 800T853 789Q852 787 836 779T798 761T759 743Q753 740 740 735T715 726T700 722Z" />
<glyph unicode="&#xce;" glyph-name="Icircumflex" horiz-adv-x="584" d="M416 -182Q416 -185 412 -185T406 -181Q393 -168 387 -138T379 -76T378 -21Q357 -26 330 -32T275 -45T226 -56T195 -62Q172 -64 144 -67T91 -70Q60 -70 48 -64Q38 -61 38 -46Q38 -32 46
-15T63 8Q77 17 94 14Q110 10 124 8Q130 6 149 4T194 0T242 -5T277 -8Q292 -9 321 -7T379 -2Q384 45 404 107Q424 168 452 234T515 366Q549 431 581 486Q612 541 638 580T678 635Q695 652 708 660Q677 658 639 649Q601 639 561 623T484 582Q446 558 417 528Q388
497 370 461T352 383Q352 373 355 360T374 339Q379 337 378 335T374 332Q361 332 342 340T307 367T292 414Q292 461 318 498Q343 535 382 562T468 609Q514 628 556 641Q590 651 623 658T669 666Q678 667 686 668T702 671L726 674Q733 674 736 670Q751 673 762 673Q792
673 792 653Q792 637 770 616Q756 603 737 578T696 519T653 452T614 388Q583 333 549 270T484 138T432 3L441 6L446 8Q458 11 466 12T480 13Q489 13 489 10Q489 8 479 3T446 -6L428 -9Q418 -46 412 -81T406 -148Q406 -171 414 -179L416 -182ZM647 720Q641 718 641
725Q641 729 646 734Q668 751 697 769T739 796Q750 803 758 807T774 812Q781 812 787 808T798 798Q809 788 832 770T871 734Q874 731 874 728Q874 725 871 723T866 720Q865 720 850 727T818 743Q802 751 790 759T767 774Q757 768 744 761T712 745Q700 740 680 732T647
720Z" />
<glyph unicode="&#xcf;" glyph-name="Idieresis" horiz-adv-x="584" d="M416 -182Q416 -185 412 -185T406 -181Q393 -168 387 -138T379 -76T378 -21Q357 -26 330 -32T275 -45T226 -56T195 -62Q172 -64 144 -67T91 -70Q60 -70 48 -64Q38 -61 38 -46Q38 -32 46 -15T63
8Q77 17 94 14Q110 10 124 8Q130 6 149 4T194 0T242 -5T277 -8Q292 -9 321 -7T379 -2Q384 45 404 107Q424 168 452 234T515 366Q549 431 581 486Q612 541 638 580T678 635Q695 652 708 660Q677 658 639 649Q601 639 561 623T484 582Q446 558 417 528Q388 497 370
461T352 383Q352 373 355 360T374 339Q379 337 378 335T374 332Q361 332 342 340T307 367T292 414Q292 461 318 498Q343 535 382 562T468 609Q514 628 556 641Q590 651 623 658T669 666Q678 667 686 668T702 671L726 674Q733 674 736 670Q751 673 762 673Q792 673
792 653Q792 637 770 616Q756 603 737 578T696 519T653 452T614 388Q583 333 549 270T484 138T432 3L441 6L446 8Q458 11 466 12T480 13Q489 13 489 10Q489 8 479 3T446 -6L428 -9Q418 -46 412 -81T406 -148Q406 -171 414 -179L416 -182ZM821 722Q810 722 804 727T794
740Q792 743 792 749Q792 754 795 759T801 767Q816 780 831 787Q835 791 851 791Q863 791 859 782Q853 774 850 760T842 734T821 722ZM705 722Q694 722 688 727T678 740Q676 743 676 749Q676 754 679 759T685 767Q700 780 715 787Q719 791 735 791Q747 791 743
782Q737 774 734 760T726 734T705 722Z" />
<glyph unicode="&#xd0;" glyph-name="Eth" horiz-adv-x="950" d="M227 -129Q203 -129 203 -94Q203 -86 204 -77T207 -57Q215 -22 233 31T275 140Q247 138 224 138Q195 138 187 153T179 186Q199 183 229 183Q259 183 293 185Q305 213 316 238T339 284Q352 310 369
348T405 430T439 516T465 594T476 651Q448 581 413 528T335 429Q314 407 285 379T223 323T158 279T101 261Q56 261 37 279T14 322V330Q14 341 19 344Q19 344 19 344T21 345Q25 345 25 336Q25 325 29 312T48 299Q62 299 94 307T165 338Q213 365 278 422T422 582Q441
607 456 638T484 693T514 724Q523 728 533 728Q549 728 558 716T568 677Q568 664 565 647Q562 631 549 598Q535 565 516 524T475 436Q452 389 430 345Q417 321 403 294T376 242T356 202L350 189Q355 190 360 190H369Q398 247 430 305T494 416Q542 491 582 547T659
640Q696 676 733 694T811 713Q868 713 910 680T976 590T999 460Q999 393 974 325Q949 257 907 194T807 76Q750 20 686 -20Q621 -61 553 -84T419 -108Q374 -108 344 -95Q313 -83 305 -75Q296 -66 296 -60Q296 -57 298 -57Q300 -57 308 -62Q319 -70 348 -73T407 -76Q458
-76 514 -51T625 14T726 101T803 193Q862 280 897 365T933 521Q933 562 922 597T885 654T814 676Q789 676 762 662T708 625T660 579T621 534Q560 453 502 368T393 191Q399 192 405 192T416 192Q447 192 460 184T476 162T480 135Q475 141 449 148Q435 151 411 151Q403
151 393 151T371 149Q357 120 343 91T317 31Q311 15 302 -11T281 -65T255 -110T227 -129ZM229 -104Q233 -104 238 -95Q241 -89 251 -66T274 -17Q288 15 307 57T348 147L329 145Q312 109 294 70T262 -4Q250 -31 240 -56T227 -89Q226 -92 226 -98Q226 -104 229 -104Z"
/>
<glyph unicode="&#xd1;" glyph-name="Ntilde" horiz-adv-x="791" d="M88 -207Q56 -207 33 -175Q23 -161 23 -138Q23 -113 33 -84T58 -24T90 32T118 76Q139 111 172 159T239 256T300 344Q347 415 386 485T444 622Q451 626 462 630T481 634Q496 628 498 615L512
616Q533 615 533 595Q533 589 531 582T526 566Q517 547 505 509T479 421T453 321T434 227Q427 189 423 150T418 76Q418 22 431 -15T480 -52Q502 -52 533 -24Q565 4 600 52T673 164Q709 227 740 296Q770 365 792 434T821 565Q822 577 823 593T824 626Q824 640 823
653T820 677Q811 718 783 718Q767 718 742 701Q734 695 734 700Q734 705 739 713Q751 721 767 731T802 741Q852 741 874 708T897 627Q897 572 877 500T825 348Q797 279 762 211T688 83Q661 42 626 7T552 -50T481 -72Q444 -72 425 -46Q404 -20 395 23T386 123Q386
147 387 172T392 224Q397 281 407 338T428 446Q413 423 388 389T335 318T285 252Q243 194 198 127T109 -18Q104 -27 94 -44T72 -82T54 -123T46 -156Q46 -168 54 -171Q61 -175 71 -175Q89 -175 111 -164T155 -140T197 -118Q198 -117 200 -117Q197 -117 184 -130T158
-159T140 -181Q117 -207 88 -207ZM117 346Q106 346 86 355T49 382T32 425Q32 452 42 475T72 518Q108 554 160 579T275 618Q336 632 391 640Q436 647 480 649T540 653H543Q554 653 554 649Q554 642 536 642Q517 642 496 642T451 638Q406 631 359 617T266 582Q220
561 184 534Q147 506 124 472T97 399Q96 396 96 388Q96 378 101 368T120 353Q125 349 123 347T117 346ZM672 748Q650 748 636 756T609 773T579 781Q562 781 552 769T534 749Q527 746 527 751Q527 765 537 779T562 804T593 814Q622 814 645 801T693 788Q704 788
710 794T726 813Q728 813 730 812T733 802Q733 787 722 775T697 756T672 748Z" />
<glyph unicode="&#xd2;" glyph-name="Ograve" horiz-adv-x="676" d="M210 -130Q153 -130 116 -105Q78 -80 57 -39T28 54Q26 69 25 85T24 117Q24 128 24 138T26 159Q30 213 44 263T78 352Q112 415 161 473T270 576Q328 621 390 647T512 674Q590 674 622 634T654
535Q654 509 649 481T635 424Q652 399 660 368T668 303Q668 274 663 246T647 194Q613 117 562 57T451 -45Q391 -87 329 -108T210 -130ZM239 -107Q284 -107 331 -88T424 -30Q469 9 511 69T590 212Q604 242 618 286T633 370Q633 389 629 402Q618 372 606 346T583
301Q532 216 493 165T418 82Q388 55 349 31T275 -14Q267 -19 272 -11Q277 -3 283 2Q336 42 387 98T483 221T561 359L563 366Q568 377 575 402T586 459L568 467Q555 473 540 473Q536 473 532 473T524 472L492 467Q483 465 489 473Q495 480 504 482Q507 482 512 482T523
483Q534 483 547 481T574 473L588 467Q590 481 591 495T592 524Q592 558 585 587T562 634T517 653Q456 653 402 624T300 547Q252 498 214 436T145 306Q115 239 102 182T88 78Q88 57 90 38T98 2Q114 -51 151 -79T239 -107ZM572 724Q570 724 558 728T533 737T513
745Q496 753 475 763T437 781T419 791Q418 794 424 801T443 812H447Q453 812 459 810T470 803Q478 798 497 786T537 761T573 739Q575 738 576 736T578 733V731Q578 724 572 724Z" />
<glyph unicode="&#xd3;" glyph-name="Oacute" horiz-adv-x="676" d="M210 -130Q153 -130 116 -105Q78 -80 57 -39T28 54Q26 69 25 85T24 117Q24 128 24 138T26 159Q30 213 44 263T78 352Q112 415 161 473T270 576Q328 621 390 647T512 674Q590 674 622 634T654
535Q654 509 649 481T635 424Q652 399 660 368T668 303Q668 274 663 246T647 194Q613 117 562 57T451 -45Q391 -87 329 -108T210 -130ZM239 -107Q284 -107 331 -88T424 -30Q469 9 511 69T590 212Q604 242 618 286T633 370Q633 389 629 402Q618 372 606 346T583
301Q532 216 493 165T418 82Q388 55 349 31T275 -14Q267 -19 272 -11Q277 -3 283 2Q336 42 387 98T483 221T561 359L563 366Q568 377 575 402T586 459L568 467Q555 473 540 473Q536 473 532 473T524 472L492 467Q483 465 489 473Q495 480 504 482Q507 482 512 482T523
483Q534 483 547 481T574 473L588 467Q590 481 591 495T592 524Q592 558 585 587T562 634T517 653Q456 653 402 624T300 547Q252 498 214 436T145 306Q115 239 102 182T88 78Q88 57 90 38T98 2Q114 -51 151 -79T239 -107ZM494 724Q486 724 488 733Q489 734 490
736T493 739Q508 748 529 761T569 786T596 803Q602 808 609 811T623 812Q637 809 642 802T647 791Q646 789 630 781T592 763T553 745Q547 742 534 737T509 728T494 724Z" />
<glyph unicode="&#xd4;" glyph-name="Ocircumflex" horiz-adv-x="676" d="M210 -130Q153 -130 116 -105Q78 -80 57 -39T28 54Q26 69 25 85T24 117Q24 128 24 138T26 159Q30 213 44 263T78 352Q112 415 161 473T270 576Q328 621 390 647T512 674Q590 674 622 634T654
535Q654 509 649 481T635 424Q652 399 660 368T668 303Q668 274 663 246T647 194Q613 117 562 57T451 -45Q391 -87 329 -108T210 -130ZM239 -107Q284 -107 331 -88T424 -30Q469 9 511 69T590 212Q604 242 618 286T633 370Q633 389 629 402Q618 372 606 346T583
301Q532 216 493 165T418 82Q388 55 349 31T275 -14Q267 -19 272 -11Q277 -3 283 2Q336 42 387 98T483 221T561 359L563 366Q568 377 575 402T586 459L568 467Q555 473 540 473Q536 473 532 473T524 472L492 467Q483 465 489 473Q495 480 504 482Q507 482 512 482T523
483Q534 483 547 481T574 473L588 467Q590 481 591 495T592 524Q592 558 585 587T562 634T517 653Q456 653 402 624T300 547Q252 498 214 436T145 306Q115 239 102 182T88 78Q88 57 90 38T98 2Q114 -51 151 -79T239 -107ZM441 722Q435 720 435 727Q435 731 440
736Q462 753 491 771T533 798Q544 805 552 809T568 814Q575 814 581 810T592 800Q603 790 626 772T665 736Q668 733 668 730Q668 727 665 725T660 722Q659 722 644 729T612 745Q596 753 584 761T561 776Q551 770 538 763T506 747Q494 742 474 734T441 722Z" />
<glyph unicode="&#xd5;" glyph-name="Otilde" horiz-adv-x="676" d="M210 -130Q153 -130 116 -105Q78 -80 57 -39T28 54Q26 69 25 85T24 117Q24 128 24 138T26 159Q30 213 44 263T78 352Q112 415 161 473T270 576Q328 621 390 647T512 674Q590 674 622 634T654
535Q654 509 649 481T635 424Q652 399 660 368T668 303Q668 274 663 246T647 194Q613 117 562 57T451 -45Q391 -87 329 -108T210 -130ZM239 -107Q284 -107 331 -88T424 -30Q469 9 511 69T590 212Q604 242 618 286T633 370Q633 389 629 402Q618 372 606 346T583
301Q532 216 493 165T418 82Q388 55 349 31T275 -14Q267 -19 272 -11Q277 -3 283 2Q336 42 387 98T483 221T561 359L563 366Q568 377 575 402T586 459L568 467Q555 473 540 473Q536 473 532 473T524 472L492 467Q483 465 489 473Q495 480 504 482Q507 482 512 482T523
483Q534 483 547 481T574 473L588 467Q590 481 591 495T592 524Q592 558 585 587T562 634T517 653Q456 653 402 624T300 547Q252 498 214 436T145 306Q115 239 102 182T88 78Q88 57 90 38T98 2Q114 -51 151 -79T239 -107ZM596 722Q574 722 560 730T533 747T503
755Q486 755 476 743T458 723Q451 720 451 725Q451 739 461 753T486 778T517 788Q546 788 569 775T617 762Q628 762 634 768T650 787Q652 787 654 786T657 776Q657 761 646 749T621 730T596 722Z" />
<glyph unicode="&#xd6;" glyph-name="Odieresis" horiz-adv-x="676" d="M210 -130Q153 -130 116 -105Q78 -80 57 -39T28 54Q26 69 25 85T24 117Q24 128 24 138T26 159Q30 213 44 263T78 352Q112 415 161 473T270 576Q328 621 390 647T512 674Q590 674 622 634T654
535Q654 509 649 481T635 424Q652 399 660 368T668 303Q668 274 663 246T647 194Q613 117 562 57T451 -45Q391 -87 329 -108T210 -130ZM239 -107Q284 -107 331 -88T424 -30Q469 9 511 69T590 212Q604 242 618 286T633 370Q633 389 629 402Q618 372 606 346T583
301Q532 216 493 165T418 82Q388 55 349 31T275 -14Q267 -19 272 -11Q277 -3 283 2Q336 42 387 98T483 221T561 359L563 366Q568 377 575 402T586 459L568 467Q555 473 540 473Q536 473 532 473T524 472L492 467Q483 465 489 473Q495 480 504 482Q507 482 512 482T523
483Q534 483 547 481T574 473L588 467Q590 481 591 495T592 524Q592 558 585 587T562 634T517 653Q456 653 402 624T300 547Q252 498 214 436T145 306Q115 239 102 182T88 78Q88 57 90 38T98 2Q114 -51 151 -79T239 -107ZM615 724Q604 724 598 729T588 742Q586
745 586 751Q586 756 589 761T595 769Q610 782 625 789Q629 793 645 793Q657 793 653 784Q647 776 644 762T636 736T615 724ZM499 724Q488 724 482 729T472 742Q470 745 470 751Q470 756 473 761T479 769Q494 782 509 789Q513 793 529 793Q541 793 537 784Q531
776 528 762T520 736T499 724Z" />
<glyph unicode="&#xd7;" glyph-name="multiply" horiz-adv-x="401" d="M104 83Q99 83 103 94T122 121Q140 137 169 160T238 216L216 250L198 278Q189 292 185 300Q179 311 179 319Q179 331 188 337T213 344Q228 344 236 327T252 287T272 245Q294 262 318 284T365
325T404 355Q412 360 416 360Q421 360 418 350T407 321L285 224Q296 203 313 174T356 105V104Q356 99 351 97T340 94Q332 94 325 97T317 105Q303 118 286 140T248 195L191 149Q159 123 117 92Q108 83 104 83Z" />
<glyph unicode="&#xd8;" glyph-name="Oslash" horiz-adv-x="676" d="M124 -175Q115 -174 112 -156T111 -126Q120 -74 165 23T280 239Q349 358 436 487T615 733Q615 734 617 734Q621 733 626 719T634 686T635 658Q635 655 632 649Q613 624 571 567Q530 509 477
433T367 270Q310 183 262 103Q214 22 180 -44T140 -144L139 -155L138 -162Q136 -177 124 -175ZM210 -130Q153 -130 116 -105Q78 -80 57 -39T28 54Q26 69 25 85T24 117Q24 128 24 138T26 159Q30 213 44 263T78 352Q112 415 161 473T270 576Q328 621 390 647T512
674Q590 674 622 634T654 535Q654 509 649 481T635 424Q652 399 660 368T668 303Q668 274 663 246T647 194Q613 117 562 57T451 -45Q391 -87 329 -108T210 -130ZM239 -107Q284 -107 331 -88T424 -30Q469 9 511 69T590 212Q604 242 618 286T633 370Q633 389 629
402Q618 372 606 346T583 301Q532 216 493 165T418 82Q388 55 349 31T275 -14Q267 -19 272 -11Q277 -3 283 2Q336 42 387 98T483 221T561 359L563 366Q568 377 575 402T586 459L568 467Q555 473 540 473Q536 473 532 473T524 472L492 467Q483 465 489 473Q495 480
504 482Q507 482 512 482T523 483Q534 483 547 481T574 473L588 467Q590 481 591 495T592 524Q592 558 585 587T562 634T517 653Q456 653 402 624T300 547Q252 498 214 436T145 306Q115 239 102 182T88 78Q88 57 90 38T98 2Q114 -51 151 -79T239 -107Z" />
<glyph unicode="&#xd9;" glyph-name="Ugrave" horiz-adv-x="868" d="M689 -278Q664 -278 642 -265Q623 -252 616 -229T608 -176Q608 -132 620 -84T644 -5Q657 32 678 86T722 202T767 322T805 425Q817 461 831 509T851 596Q833 545 804 487T739 371Q703 312 664
257T585 155Q558 123 522 88T446 22T366 -25Q350 -32 335 -35T308 -39Q278 -39 263 -21T247 28Q247 58 264 97Q273 115 293 152T339 235L444 427Q487 505 521 572T563 682Q551 662 535 634T502 576T472 526Q448 487 423 452T371 388Q342 357 304 321T223 260T133
235Q91 233 73 256T55 306V314Q55 327 60 329Q61 329 63 329Q67 329 67 321Q67 310 70 297T90 283Q103 283 135 291T206 322Q254 349 319 406T463 566Q482 592 497 621T527 675T555 708Q572 719 578 711Q591 704 596 689T601 653Q601 623 591 584T563 504T524 427Q505
391 481 349T434 265T392 191T365 141Q355 121 344 96T326 49T318 11Q318 -11 337 -11Q346 -11 365 -3Q391 9 421 33T481 88T537 149T580 202Q621 253 662 310T741 426Q777 484 805 540T850 646Q861 650 873 653T898 656Q915 656 925 649Q948 633 948 602Q948 586
936 548Q925 516 909 477T874 393L836 305Q825 282 813 255T791 203T774 162Q765 138 752 105T725 35T700 -34T683 -89Q680 -103 674 -127T662 -177T656 -224Q656 -255 675 -255Q697 -255 718 -237T762 -194T807 -153Q811 -149 812 -150T810 -156Q804 -162 795
-177T778 -207T766 -231Q756 -253 735 -265T689 -278ZM774 750Q772 750 760 754T735 763T715 771Q698 779 677 789T639 807T621 817Q620 820 626 827T645 838H649Q655 838 661 836T672 829Q680 824 699 812T739 787T775 765Q777 764 778 762T780 759V757Q780 750
774 750Z" />
<glyph unicode="&#xda;" glyph-name="Uacute" horiz-adv-x="868" d="M689 -278Q664 -278 642 -265Q623 -252 616 -229T608 -176Q608 -132 620 -84T644 -5Q657 32 678 86T722 202T767 322T805 425Q817 461 831 509T851 596Q833 545 804 487T739 371Q703 312 664
257T585 155Q558 123 522 88T446 22T366 -25Q350 -32 335 -35T308 -39Q278 -39 263 -21T247 28Q247 58 264 97Q273 115 293 152T339 235L444 427Q487 505 521 572T563 682Q551 662 535 634T502 576T472 526Q448 487 423 452T371 388Q342 357 304 321T223 260T133
235Q91 233 73 256T55 306V314Q55 327 60 329Q61 329 63 329Q67 329 67 321Q67 310 70 297T90 283Q103 283 135 291T206 322Q254 349 319 406T463 566Q482 592 497 621T527 675T555 708Q572 719 578 711Q591 704 596 689T601 653Q601 623 591 584T563 504T524 427Q505
391 481 349T434 265T392 191T365 141Q355 121 344 96T326 49T318 11Q318 -11 337 -11Q346 -11 365 -3Q391 9 421 33T481 88T537 149T580 202Q621 253 662 310T741 426Q777 484 805 540T850 646Q861 650 873 653T898 656Q915 656 925 649Q948 633 948 602Q948 586
936 548Q925 516 909 477T874 393L836 305Q825 282 813 255T791 203T774 162Q765 138 752 105T725 35T700 -34T683 -89Q680 -103 674 -127T662 -177T656 -224Q656 -255 675 -255Q697 -255 718 -237T762 -194T807 -153Q811 -149 812 -150T810 -156Q804 -162 795
-177T778 -207T766 -231Q756 -253 735 -265T689 -278ZM696 750Q688 750 690 759Q691 760 692 762T695 765Q710 774 731 787T771 812T798 829Q804 834 811 837T825 838Q839 835 844 828T849 817Q848 815 832 807T794 789T755 771Q749 768 736 763T711 754T696 750Z"
/>
<glyph unicode="&#xdb;" glyph-name="Ucircumflex" horiz-adv-x="868" d="M689 -278Q664 -278 642 -265Q623 -252 616 -229T608 -176Q608 -132 620 -84T644 -5Q657 32 678 86T722 202T767 322T805 425Q817 461 831 509T851 596Q833 545 804 487T739 371Q703 312
664 257T585 155Q558 123 522 88T446 22T366 -25Q350 -32 335 -35T308 -39Q278 -39 263 -21T247 28Q247 58 264 97Q273 115 293 152T339 235L444 427Q487 505 521 572T563 682Q551 662 535 634T502 576T472 526Q448 487 423 452T371 388Q342 357 304 321T223 260T133
235Q91 233 73 256T55 306V314Q55 327 60 329Q61 329 63 329Q67 329 67 321Q67 310 70 297T90 283Q103 283 135 291T206 322Q254 349 319 406T463 566Q482 592 497 621T527 675T555 708Q572 719 578 711Q591 704 596 689T601 653Q601 623 591 584T563 504T524 427Q505
391 481 349T434 265T392 191T365 141Q355 121 344 96T326 49T318 11Q318 -11 337 -11Q346 -11 365 -3Q391 9 421 33T481 88T537 149T580 202Q621 253 662 310T741 426Q777 484 805 540T850 646Q861 650 873 653T898 656Q915 656 925 649Q948 633 948 602Q948 586
936 548Q925 516 909 477T874 393L836 305Q825 282 813 255T791 203T774 162Q765 138 752 105T725 35T700 -34T683 -89Q680 -103 674 -127T662 -177T656 -224Q656 -255 675 -255Q697 -255 718 -237T762 -194T807 -153Q811 -149 812 -150T810 -156Q804 -162 795
-177T778 -207T766 -231Q756 -253 735 -265T689 -278ZM643 748Q637 746 637 753Q637 757 642 762Q664 779 693 797T735 824Q746 831 754 835T770 840Q777 840 783 836T794 826Q805 816 828 798T867 762Q870 759 870 756Q870 753 867 751T862 748Q861 748 846 755T814
771Q798 779 786 787T763 802Q753 796 740 789T708 773Q696 768 676 760T643 748Z" />
<glyph unicode="&#xdc;" glyph-name="Udieresis" horiz-adv-x="868" d="M689 -278Q664 -278 642 -265Q623 -252 616 -229T608 -176Q608 -132 620 -84T644 -5Q657 32 678 86T722 202T767 322T805 425Q817 461 831 509T851 596Q833 545 804 487T739 371Q703 312
664 257T585 155Q558 123 522 88T446 22T366 -25Q350 -32 335 -35T308 -39Q278 -39 263 -21T247 28Q247 58 264 97Q273 115 293 152T339 235L444 427Q487 505 521 572T563 682Q551 662 535 634T502 576T472 526Q448 487 423 452T371 388Q342 357 304 321T223 260T133
235Q91 233 73 256T55 306V314Q55 327 60 329Q61 329 63 329Q67 329 67 321Q67 310 70 297T90 283Q103 283 135 291T206 322Q254 349 319 406T463 566Q482 592 497 621T527 675T555 708Q572 719 578 711Q591 704 596 689T601 653Q601 623 591 584T563 504T524 427Q505
391 481 349T434 265T392 191T365 141Q355 121 344 96T326 49T318 11Q318 -11 337 -11Q346 -11 365 -3Q391 9 421 33T481 88T537 149T580 202Q621 253 662 310T741 426Q777 484 805 540T850 646Q861 650 873 653T898 656Q915 656 925 649Q948 633 948 602Q948 586
936 548Q925 516 909 477T874 393L836 305Q825 282 813 255T791 203T774 162Q765 138 752 105T725 35T700 -34T683 -89Q680 -103 674 -127T662 -177T656 -224Q656 -255 675 -255Q697 -255 718 -237T762 -194T807 -153Q811 -149 812 -150T810 -156Q804 -162 795
-177T778 -207T766 -231Q756 -253 735 -265T689 -278ZM817 750Q806 750 800 755T790 768Q788 771 788 777Q788 782 791 787T797 795Q812 808 827 815Q831 819 847 819Q859 819 855 810Q849 802 846 788T838 762T817 750ZM701 750Q690 750 684 755T674 768Q672 771
672 777Q672 782 675 787T681 795Q696 808 711 815Q715 819 731 819Q743 819 739 810Q733 802 730 788T722 762T701 750Z" />
<glyph unicode="&#xdd;" glyph-name="Yacute" horiz-adv-x="868" d="M166 -413Q129 -413 105 -400T70 -362Q62 -344 62 -323Q62 -291 79 -251T132 -166Q174 -113 242 -60T390 39Q469 83 549 114T695 153Q713 195 725 244T744 342T751 432Q751 449 750 464T746
492L740 478L733 462Q703 408 668 355T599 259Q569 221 525 182T436 122Q414 111 396 111Q374 111 363 126T351 167Q351 190 362 221Q368 236 382 269T411 333Q427 371 445 413T478 494Q494 535 512 580T541 665T552 726L547 715L513 656Q503 639 494 623T474 590L429
515Q404 472 375 428T313 342Q280 299 243 266Q205 233 163 213T75 192Q30 192 7 217T-16 285Q-16 315 0 342T41 393T89 432L115 450Q120 452 120 450T117 444Q105 432 89 408T59 354T36 299Q28 273 28 252Q28 233 36 221T62 208Q101 208 145 238Q189 268 234 315T324
421Q369 479 409 536Q430 567 454 602T499 669T535 718Q544 730 551 737Q557 744 563 739Q600 711 600 658Q600 636 594 608T573 545Q564 523 549 491T515 423T479 354T449 296T434 262Q423 234 413 203T403 153Q403 133 417 133Q435 133 458 151T507 196T554 250T590
297Q611 325 636 358T683 423T718 483Q724 496 729 505T738 520Q735 526 732 529T726 536Q715 541 715 548Q715 556 723 562T743 568Q752 568 762 563T780 544Q789 531 793 504T797 441Q797 397 792 346T776 244T750 153Q781 150 808 139T851 107Q857 100 857 94Q857
85 850 94Q842 104 822 108T778 113T734 114Q680 -17 617 -108T488 -260Q422 -320 359 -353T244 -401Q201 -413 166 -413ZM149 -387Q169 -387 195 -378T252 -348Q331 -297 397 -238T517 -117Q570 -56 609 1T673 106Q615 94 547 69T412 7Q344 -29 281 -74T171 -168Q137
-205 118 -240Q91 -290 91 -325Q91 -341 97 -354Q105 -375 125 -383Q134 -387 149 -387ZM672 732Q664 732 666 741Q667 742 668 744T671 747Q686 756 707 769T747 794T774 811Q780 816 787 819T801 820Q815 817 820 810T825 799Q824 797 808 789T770 771T731 753Q725
750 712 745T687 736T672 732Z" />
<glyph unicode="&#xde;" glyph-name="Thorn" horiz-adv-x="489" d="M19 -132Q4 -132 7 -115Q10 -90 25 -34T67 102Q93 181 128 277T206 476Q199 475 192 475T180 474Q176 473 171 473T161 473Q109 473 109 504Q109 511 114 523Q143 526 173 532T235 545L279 645Q290
671 302 696T325 747Q325 747 326 748T330 751Q335 751 345 741T364 719T374 697Q374 691 372 688L351 639L319 566Q360 575 388 579T442 584Q510 584 539 547T569 456Q569 418 550 376Q531 334 499 292T425 213Q404 194 381 179T334 151Q303 135 271 126T206 116Q188
116 172 119T139 128L47 -109Q38 -132 19 -132ZM154 168Q173 170 192 174T233 185Q276 199 317 221T399 272Q435 298 466 331T516 400T536 472Q536 495 515 508T446 522Q414 522 371 514T291 497Q258 422 223 337T154 168Z" />
<glyph unicode="&#xdf;" glyph-name="germandbls" horiz-adv-x="402" d="M-116 -178Q-144 -178 -168 -160T-192 -113Q-192 -103 -188 -89T-172 -62T-135 -50Q-145 -65 -151 -82T-158 -111Q-158 -127 -149 -145T-113 -163Q-84 -163 -57 -128T2 -19Q18 17 39 74T86
197T137 325T186 435Q213 488 249 525T340 563Q369 563 392 546T416 493Q416 460 389 435T315 392Q279 379 279 357Q279 352 281 349Q307 306 320 264T334 167Q334 133 327 98T305 28Q334 48 361 71T402 111Q413 122 422 132T439 154Q442 157 444 157Q450 157 450
148Q450 143 446 139Q425 114 403 86T355 37Q344 28 327 14T293 -9Q265 -23 241 -23Q204 -23 162 8Q144 20 130 44Q123 56 123 71Q123 86 134 86Q139 86 146 78T160 56Q170 36 179 22T211 7Q231 7 244 26T266 75T279 135T283 188Q283 242 276 275T261 328T253 360Q253
369 258 375Q265 383 282 397T320 429T356 466T375 505Q375 507 375 509T376 514Q376 526 369 534T338 542Q304 542 277 504T222 401Q203 356 180 294T133 164T82 34T29 -74Q2 -118 -33 -148T-116 -178Z" />
<glyph unicode="&#xe0;" glyph-name="agrave" horiz-adv-x="358" d="M236 -4Q196 -4 196 48Q196 66 202 88Q204 95 211 111T227 146T244 183T255 211Q234 179 209 148T154 95T92 74Q61 75 48 91T35 130Q35 157 47 189T74 246Q100 287 137 326T216 390T296 416Q316
416 335 410T373 388Q388 376 388 362Q388 348 376 348Q367 348 363 360Q350 394 321 394Q295 394 263 371T200 316Q165 281 138 239T97 163Q84 132 84 117Q84 98 99 98Q116 98 149 124Q171 141 197 168T246 223T282 265Q293 282 300 292Q304 298 313 301T332 304Q344
304 352 300T356 286Q352 277 339 252T309 194T278 133T256 88Q242 57 242 42Q242 29 252 29Q259 29 273 37Q295 48 317 68T359 112Q370 123 379 133T396 154Q399 157 401 157Q407 157 407 148Q407 143 403 139Q392 125 381 112T358 86Q347 73 336 61T312 37Q290
16 271 6T236 -4ZM346 466Q344 467 333 473T310 487T292 499Q283 505 267 516T237 539T222 552Q222 556 229 562T250 568Q257 568 263 564T274 554Q281 548 294 535T322 507T350 480Q353 477 353 473Q353 464 346 466Z" />
<glyph unicode="&#xe1;" glyph-name="aacute" horiz-adv-x="358" d="M236 -4Q196 -4 196 48Q196 66 202 88Q204 95 211 111T227 146T244 183T255 211Q234 179 209 148T154 95T92 74Q61 75 48 91T35 130Q35 157 47 189T74 246Q100 287 137 326T216 390T296 416Q316
416 335 410T373 388Q388 376 388 362Q388 348 376 348Q367 348 363 360Q350 394 321 394Q295 394 263 371T200 316Q165 281 138 239T97 163Q84 132 84 117Q84 98 99 98Q116 98 149 124Q171 141 197 168T246 223T282 265Q293 282 300 292Q304 298 313 301T332 304Q344
304 352 300T356 286Q352 277 339 252T309 194T278 133T256 88Q242 57 242 42Q242 29 252 29Q259 29 273 37Q295 48 317 68T359 112Q370 123 379 133T396 154Q399 157 401 157Q407 157 407 148Q407 143 403 139Q392 125 381 112T358 86Q347 73 336 61T312 37Q290
16 271 6T236 -4ZM297 466Q291 466 291 473Q291 477 294 480Q313 497 336 520T370 554Q375 559 381 563T394 568Q408 568 415 562T422 552Q422 550 408 539T378 517T352 499Q346 495 334 487T312 473T298 466H297Z" />
<glyph unicode="&#xe2;" glyph-name="acircumflex" horiz-adv-x="358" d="M236 -4Q196 -4 196 48Q196 66 202 88Q204 95 211 111T227 146T244 183T255 211Q234 179 209 148T154 95T92 74Q61 75 48 91T35 130Q35 157 47 189T74 246Q100 287 137 326T216 390T296
416Q316 416 335 410T373 388Q388 376 388 362Q388 348 376 348Q367 348 363 360Q350 394 321 394Q295 394 263 371T200 316Q165 281 138 239T97 163Q84 132 84 117Q84 98 99 98Q116 98 149 124Q171 141 197 168T246 223T282 265Q293 282 300 292Q304 298 313 301T332
304Q344 304 352 300T356 286Q352 277 339 252T309 194T278 133T256 88Q242 57 242 42Q242 29 252 29Q259 29 273 37Q295 48 317 68T359 112Q370 123 379 133T396 154Q399 157 401 157Q407 157 407 148Q407 143 403 139Q392 125 381 112T358 86Q347 73 336 61T312
37Q290 16 271 6T236 -4ZM234 464Q232 463 230 465T228 469Q228 473 233 478Q248 489 265 504T298 532T322 552Q336 566 351 566Q358 566 364 562T375 552Q383 542 403 519T438 478Q441 475 441 472Q441 468 438 466T432 464Q429 464 420 470T400 484T384 497Q377
502 366 510T344 528Q331 519 317 511T294 497Q288 492 275 485T249 471T234 464Z" />
<glyph unicode="&#xe3;" glyph-name="atilde" horiz-adv-x="358" d="M236 -4Q196 -4 196 48Q196 66 202 88Q204 95 211 111T227 146T244 183T255 211Q234 179 209 148T154 95T92 74Q61 75 48 91T35 130Q35 157 47 189T74 246Q100 287 137 326T216 390T296 416Q316
416 335 410T373 388Q388 376 388 362Q388 348 376 348Q367 348 363 360Q350 394 321 394Q295 394 263 371T200 316Q165 281 138 239T97 163Q84 132 84 117Q84 98 99 98Q116 98 149 124Q171 141 197 168T246 223T282 265Q293 282 300 292Q304 298 313 301T332 304Q344
304 352 300T356 286Q352 277 339 252T309 194T278 133T256 88Q242 57 242 42Q242 29 252 29Q259 29 273 37Q295 48 317 68T359 112Q370 123 379 133T396 154Q399 157 401 157Q407 157 407 148Q407 143 403 139Q392 125 381 112T358 86Q347 73 336 61T312 37Q290
16 271 6T236 -4ZM373 467Q353 467 340 474T316 489T289 497Q273 497 264 486T248 468Q241 465 241 470Q241 482 250 495T273 518T301 527Q327 527 348 515T392 503Q402 503 408 508T422 526Q424 526 426 525T429 516Q429 503 419 492T396 474T373 467Z" />
<glyph unicode="&#xe4;" glyph-name="adieresis" horiz-adv-x="358" d="M236 -4Q196 -4 196 48Q196 66 202 88Q204 95 211 111T227 146T244 183T255 211Q234 179 209 148T154 95T92 74Q61 75 48 91T35 130Q35 157 47 189T74 246Q100 287 137 326T216 390T296 416Q316
416 335 410T373 388Q388 376 388 362Q388 348 376 348Q367 348 363 360Q350 394 321 394Q295 394 263 371T200 316Q165 281 138 239T97 163Q84 132 84 117Q84 98 99 98Q116 98 149 124Q171 141 197 168T246 223T282 265Q293 282 300 292Q304 298 313 301T332 304Q344
304 352 300T356 286Q352 277 339 252T309 194T278 133T256 88Q242 57 242 42Q242 29 252 29Q259 29 273 37Q295 48 317 68T359 112Q370 123 379 133T396 154Q399 157 401 157Q407 157 407 148Q407 143 403 139Q392 125 381 112T358 86Q347 73 336 61T312 37Q290
16 271 6T236 -4ZM398 466Q387 466 381 471T371 484Q369 487 369 493Q369 498 372 503T378 511Q393 524 408 531Q412 535 428 535Q440 535 436 526Q430 518 427 504T419 478T398 466ZM282 466Q271 466 265 471T255 484Q253 487 253 493Q253 498 256 503T262 511Q277
524 292 531Q296 535 312 535Q324 535 320 526Q314 518 311 504T303 478T282 466Z" />
<glyph unicode="&#xe5;" glyph-name="aring" horiz-adv-x="358" d="M236 -4Q196 -4 196 48Q196 66 202 88Q204 95 211 111T227 146T244 183T255 211Q234 179 209 148T154 95T92 74Q61 75 48 91T35 130Q35 157 47 189T74 246Q100 287 137 326T216 390T296 416Q316
416 335 410T373 388Q388 376 388 362Q388 348 376 348Q367 348 363 360Q350 394 321 394Q295 394 263 371T200 316Q165 281 138 239T97 163Q84 132 84 117Q84 98 99 98Q116 98 149 124Q171 141 197 168T246 223T282 265Q293 282 300 292Q304 298 313 301T332 304Q344
304 352 300T356 286Q352 277 339 252T309 194T278 133T256 88Q242 57 242 42Q242 29 252 29Q259 29 273 37Q295 48 317 68T359 112Q370 123 379 133T396 154Q399 157 401 157Q407 157 407 148Q407 143 403 139Q392 125 381 112T358 86Q347 73 336 61T312 37Q290
16 271 6T236 -4ZM331 467Q303 467 287 481T270 518Q270 540 283 556T317 581T358 590Q382 590 401 577T421 542Q421 518 407 501T372 476T331 467ZM334 487Q353 487 366 505T380 544Q380 569 358 569Q338 569 325 552T311 518Q311 504 317 496T334 487Z" />
<glyph unicode="&#xe6;" glyph-name="ae" horiz-adv-x="580" d="M405 -15Q374 -15 353 0T326 42L320 37Q300 21 281 9T244 -3Q226 -3 215 8T204 45Q204 63 210 88Q212 99 216 110T225 133Q205 101 180 70T125 17T64 -4Q31 -4 18 12T5 51Q5 81 19 115T45 168Q72
211 109 250T187 313T267 338Q287 338 306 332T343 310Q352 303 355 297T359 285Q359 270 346 270Q337 270 333 282Q320 316 291 316Q266 316 234 293T171 238Q137 202 109 161T67 85Q60 70 58 59T55 39Q55 21 70 21Q87 21 120 46Q144 65 169 92T217 145T252 187Q257
195 261 202T270 214Q274 219 283 222T303 225Q315 225 323 221T326 207Q326 206 315 187T290 140T264 88Q258 74 254 62T250 42Q250 29 260 29Q267 29 281 37Q297 45 306 50T323 56V64Q323 95 334 128T357 182Q380 224 412 259T479 315T543 337Q570 337 589 322T609
282Q609 272 604 259T588 232Q548 181 501 152T391 108Q387 96 383 84T377 61Q376 57 376 53T376 44Q376 23 385 14T408 5Q430 5 455 16T502 43T535 67Q546 77 557 87T580 111Q590 122 599 132T616 154Q619 157 621 157Q627 157 627 148Q627 143 623 139Q605 117
587 96T550 54Q528 31 490 8T405 -15ZM397 122Q423 132 457 154T523 205T576 269Q584 283 584 290Q584 302 570 302Q554 302 526 283T469 233T421 169Q415 159 409 147T397 122Z" />
<glyph unicode="&#xe7;" glyph-name="ccedilla" horiz-adv-x="299" d="M100 -30Q57 -30 39 -4T21 62Q21 91 28 125T47 192T70 246Q90 287 118 329T178 407T244 463T312 485Q341 485 355 465T370 417Q370 388 354 365Q321 317 306 317Q301 317 301 324Q301 331
309 352Q313 361 319 378T329 414T333 447Q330 448 324 448Q303 448 279 431T229 387T183 331T148 276Q137 256 124 228T100 168T82 110Q78 96 76 82T74 55Q74 33 82 18T112 3Q147 3 180 19T244 60T299 111Q320 132 336 154Q339 157 341 157Q347 157 347 148Q347
143 343 139L299 87Q278 62 245 35T174 -11T100 -30ZM267 35Q252 35 241 40T228 59Q234 58 243 57T262 56Q282 56 302 65T328 103Q331 118 325 128T311 149T303 178Q303 210 327 224T383 238Q392 238 392 232Q370 228 357 221T344 192Q344 178 350 168T361 148T367
122Q367 95 351 76T311 46T267 35Z" />
<glyph unicode="&#xe8;" glyph-name="egrave" horiz-adv-x="365" d="M71 -144Q32 -144 11 -113T-10 -23Q-10 -13 -10 -3T-8 18Q-2 67 22 125T98 249Q132 293 172 315T249 337Q275 337 295 327Q319 314 319 280Q319 255 301 225T240 166Q183 130 145 118T84 105Q76
94 68 71T55 22T47 -24Q47 -28 47 -32T46 -42Q46 -72 56 -93T94 -115Q118 -115 148 -98T207 -56T259 -9T291 25L365 111L405 157Q408 160 410 160Q416 160 416 152Q416 149 411 142Q401 128 389 113T365 85Q351 69 331 44T288 -8T244 -55Q206 -92 163 -118T71 -144ZM93
121Q107 122 128 132T172 156T214 184T246 209Q269 227 280 249T291 287Q291 298 286 306T269 314Q248 314 224 294T175 242T129 178T93 121ZM272 387Q270 388 259 394T236 408T218 420Q209 426 193 437T163 460T148 473Q148 477 155 483T176 489Q183 489 189 485T200
475Q207 469 220 456T248 428T276 401Q279 398 279 394Q279 385 272 387Z" />
<glyph unicode="&#xe9;" glyph-name="eacute" horiz-adv-x="365" d="M71 -144Q32 -144 11 -113T-10 -23Q-10 -13 -10 -3T-8 18Q-2 67 22 125T98 249Q132 293 172 315T249 337Q275 337 295 327Q319 314 319 280Q319 255 301 225T240 166Q183 130 145 118T84 105Q76
94 68 71T55 22T47 -24Q47 -28 47 -32T46 -42Q46 -72 56 -93T94 -115Q118 -115 148 -98T207 -56T259 -9T291 25L365 111L405 157Q408 160 410 160Q416 160 416 152Q416 149 411 142Q401 128 389 113T365 85Q351 69 331 44T288 -8T244 -55Q206 -92 163 -118T71 -144ZM93
121Q107 122 128 132T172 156T214 184T246 209Q269 227 280 249T291 287Q291 298 286 306T269 314Q248 314 224 294T175 242T129 178T93 121ZM223 387Q217 387 217 394Q217 398 220 401Q239 418 262 441T296 475Q301 480 307 484T320 489Q334 489 341 483T348 473Q348
471 334 460T304 438T278 420Q272 416 260 408T238 394T224 387H223Z" />
<glyph unicode="&#xea;" glyph-name="ecircumflex" horiz-adv-x="365" d="M71 -144Q32 -144 11 -113T-10 -23Q-10 -13 -10 -3T-8 18Q-2 67 22 125T98 249Q132 293 172 315T249 337Q275 337 295 327Q319 314 319 280Q319 255 301 225T240 166Q183 130 145 118T84
105Q76 94 68 71T55 22T47 -24Q47 -28 47 -32T46 -42Q46 -72 56 -93T94 -115Q118 -115 148 -98T207 -56T259 -9T291 25L365 111L405 157Q408 160 410 160Q416 160 416 152Q416 149 411 142Q401 128 389 113T365 85Q351 69 331 44T288 -8T244 -55Q206 -92 163 -118T71
-144ZM93 121Q107 122 128 132T172 156T214 184T246 209Q269 227 280 249T291 287Q291 298 286 306T269 314Q248 314 224 294T175 242T129 178T93 121ZM160 385Q158 384 156 386T154 390Q154 394 159 399Q174 410 191 425T224 453T248 473Q262 487 277 487Q284
487 290 483T301 473Q309 463 329 440T364 399Q367 396 367 393Q367 389 364 387T358 385Q355 385 346 391T326 405T310 418Q303 423 292 431T270 449Q257 440 243 432T220 418Q214 413 201 406T175 392T160 385Z" />
<glyph unicode="&#xeb;" glyph-name="edieresis" horiz-adv-x="365" d="M71 -144Q32 -144 11 -113T-10 -23Q-10 -13 -10 -3T-8 18Q-2 67 22 125T98 249Q132 293 172 315T249 337Q275 337 295 327Q319 314 319 280Q319 255 301 225T240 166Q183 130 145 118T84
105Q76 94 68 71T55 22T47 -24Q47 -28 47 -32T46 -42Q46 -72 56 -93T94 -115Q118 -115 148 -98T207 -56T259 -9T291 25L365 111L405 157Q408 160 410 160Q416 160 416 152Q416 149 411 142Q401 128 389 113T365 85Q351 69 331 44T288 -8T244 -55Q206 -92 163 -118T71
-144ZM93 121Q107 122 128 132T172 156T214 184T246 209Q269 227 280 249T291 287Q291 298 286 306T269 314Q248 314 224 294T175 242T129 178T93 121ZM324 387Q313 387 307 392T297 405Q295 408 295 414Q295 419 298 424T304 432Q319 445 334 452Q338 456 354
456Q366 456 362 447Q356 439 353 425T345 399T324 387ZM208 387Q197 387 191 392T181 405Q179 408 179 414Q179 419 182 424T188 432Q203 445 218 452Q222 456 238 456Q250 456 246 447Q240 439 237 425T229 399T208 387Z" />
<glyph unicode="&#xec;" glyph-name="igrave" horiz-adv-x="207" d="M76 0Q24 0 24 64Q24 79 27 97Q31 118 42 147T68 206T95 257Q105 273 118 295T143 336T158 361Q165 374 183 381T214 389Q230 389 230 380Q230 374 226 369Q207 338 182 297T132 213T92 131T76
64Q76 49 81 40T102 31Q118 31 138 46T178 81T208 112L228 133Q233 138 237 143T245 154Q248 157 250 157Q256 157 256 148Q256 143 252 139Q241 125 230 112T207 86Q182 56 149 28T76 0ZM247 695Q245 696 234 702T211 716T193 728Q184 734 168 745T138 768T123
781Q123 785 130 791T151 797Q158 797 164 793T175 783Q182 777 195 764T223 736T251 709Q254 706 254 702Q254 693 247 695Z" />
<glyph unicode="&#xed;" glyph-name="iacute" horiz-adv-x="207" d="M76 0Q24 0 24 64Q24 79 27 97Q31 118 42 147T68 206T95 257Q105 273 118 295T143 336T158 361Q165 374 183 381T214 389Q230 389 230 380Q230 374 226 369Q207 338 182 297T132 213T92 131T76
64Q76 49 81 40T102 31Q118 31 138 46T178 81T208 112L228 133Q233 138 237 143T245 154Q248 157 250 157Q256 157 256 148Q256 143 252 139Q241 125 230 112T207 86Q182 56 149 28T76 0ZM198 439Q192 439 192 446Q192 450 195 453Q214 470 237 493T271 527Q276
532 282 536T295 541Q309 541 316 535T323 525Q323 523 309 512T279 490T253 472Q247 468 235 460T213 446T199 439H198Z" />
<glyph unicode="&#xee;" glyph-name="icircumflex" horiz-adv-x="207" d="M76 0Q24 0 24 64Q24 79 27 97Q31 118 42 147T68 206T95 257Q105 273 118 295T143 336T158 361Q165 374 183 381T214 389Q230 389 230 380Q230 374 226 369Q207 338 182 297T132 213T92
131T76 64Q76 49 81 40T102 31Q118 31 138 46T178 81T208 112L228 133Q233 138 237 143T245 154Q248 157 250 157Q256 157 256 148Q256 143 252 139Q241 125 230 112T207 86Q182 56 149 28T76 0ZM135 437Q133 436 131 438T129 442Q129 446 134 451Q149 462 166
477T199 505T223 525Q237 539 252 539Q259 539 265 535T276 525Q284 515 304 492T339 451Q342 448 342 445Q342 441 339 439T333 437Q330 437 321 443T301 457T285 470Q278 475 267 483T245 501Q232 492 218 484T195 470Q189 465 176 458T150 444T135 437Z" />
<glyph unicode="&#xef;" glyph-name="idieresis" horiz-adv-x="207" d="M76 0Q24 0 24 64Q24 79 27 97Q31 118 42 147T68 206T95 257Q105 273 118 295T143 336T158 361Q165 374 183 381T214 389Q230 389 230 380Q230 374 226 369Q207 338 182 297T132 213T92 131T76
64Q76 49 81 40T102 31Q118 31 138 46T178 81T208 112L228 133Q233 138 237 143T245 154Q248 157 250 157Q256 157 256 148Q256 143 252 139Q241 125 230 112T207 86Q182 56 149 28T76 0ZM299 439Q288 439 282 444T272 457Q270 460 270 466Q270 471 273 476T279
484Q294 497 309 504Q313 508 329 508Q341 508 337 499Q331 491 328 477T320 451T299 439ZM183 439Q172 439 166 444T156 457Q154 460 154 466Q154 471 157 476T163 484Q178 497 193 504Q197 508 213 508Q225 508 221 499Q215 491 212 477T204 451T183 439Z" />
<glyph unicode="&#xf0;" glyph-name="eth" horiz-adv-x="303" d="M97 -8Q56 -8 39 21T21 88Q21 123 32 158Q58 241 110 286T222 331Q241 331 253 323T269 303Q270 335 264 372T241 440Q228 430 213 420T186 404Q176 398 169 398Q159 398 154 406T144 424Q157 428
179 441T224 469Q209 486 190 497T144 508Q136 508 129 507T113 505Q104 505 104 511Q104 520 114 523T135 528T153 529Q185 529 210 518T253 490Q267 498 278 505T297 515Q309 520 314 520Q326 520 333 511T344 490Q340 492 336 492Q327 492 312 486T274 465Q294
435 303 397T313 320Q313 269 300 212T259 105T192 24T97 -8ZM99 14Q120 14 142 32T184 80T219 144T244 212T253 270Q253 290 247 301T226 313Q196 313 169 286T121 217T87 133T75 58Q75 39 80 27T99 14Z" />
<glyph unicode="&#xf1;" glyph-name="ntilde" horiz-adv-x="368" d="M231 -1Q214 -1 207 12T200 43Q200 75 217 116T258 200T298 281T316 347Q316 360 312 368T298 376Q286 376 269 363Q250 350 226 320L189 274Q160 238 131 198T78 122T43 66Q34 50 22 50Q15
50 9 57T3 75Q3 82 6 91Q41 158 72 234T135 372Q144 389 165 401T202 414Q217 414 217 403Q217 397 208 380Q197 363 181 336T148 279T117 222T95 178Q106 193 125 223T179 293L211 331Q243 369 270 383T320 397Q338 397 351 388T364 357Q364 331 353 306T335 265Q328
249 315 221T289 161T267 101T258 58Q258 45 266 45Q276 45 292 55T325 79T351 100Q384 130 418 170Q423 176 426 176Q429 176 429 170Q429 167 427 162T421 151Q415 141 402 125T375 93Q354 70 329 49T272 11Q264 7 258 5T247 1Q243 0 239 0T231 -1ZM370 448Q350
448 337 455T313 470T286 478Q270 478 261 467T245 449Q238 446 238 451Q238 463 247 476T270 499T298 508Q324 508 345 496T389 484Q399 484 405 489T419 507Q421 507 423 506T426 497Q426 484 416 473T393 455T370 448Z" />
<glyph unicode="&#xf2;" glyph-name="ograve" horiz-adv-x="333" d="M107 -4Q73 -4 51 25T28 99Q28 135 40 170Q52 204 72 235T119 293Q153 328 196 354T276 380Q304 380 319 367T335 334Q335 322 327 308Q353 305 378 305Q397 305 416 307T454 313H458Q466 313
466 309Q466 305 457 302Q447 298 424 294T376 288T331 285Q324 285 319 285T310 286L300 281Q312 264 312 234Q312 194 293 153T242 76T175 18T107 -4ZM116 20Q143 20 169 39T216 90T252 158T272 229Q273 235 273 240T273 251Q273 260 272 267T268 279Q266 279
265 280Q253 282 248 286T235 295Q231 300 231 307Q231 314 236 318T249 320Q274 315 303 311Q313 328 313 342Q313 366 277 366Q255 366 232 350T185 307T141 249T105 187Q95 167 88 138T80 82Q80 57 88 39T116 20ZM311 429Q309 430 298 436T275 450T257 462Q248
468 232 479T202 502T187 515Q187 519 194 525T215 531Q222 531 228 527T239 517Q246 511 259 498T287 470T315 443Q318 440 318 436Q318 427 311 429Z" />
<glyph unicode="&#xf3;" glyph-name="oacute" horiz-adv-x="333" d="M107 -4Q73 -4 51 25T28 99Q28 135 40 170Q52 204 72 235T119 293Q153 328 196 354T276 380Q304 380 319 367T335 334Q335 322 327 308Q353 305 378 305Q397 305 416 307T454 313H458Q466 313
466 309Q466 305 457 302Q447 298 424 294T376 288T331 285Q324 285 319 285T310 286L300 281Q312 264 312 234Q312 194 293 153T242 76T175 18T107 -4ZM116 20Q143 20 169 39T216 90T252 158T272 229Q273 235 273 240T273 251Q273 260 272 267T268 279Q266 279
265 280Q253 282 248 286T235 295Q231 300 231 307Q231 314 236 318T249 320Q274 315 303 311Q313 328 313 342Q313 366 277 366Q255 366 232 350T185 307T141 249T105 187Q95 167 88 138T80 82Q80 57 88 39T116 20ZM262 429Q256 429 256 436Q256 440 259 443Q278
460 301 483T335 517Q340 522 346 526T359 531Q373 531 380 525T387 515Q387 513 373 502T343 480T317 462Q311 458 299 450T277 436T263 429H262Z" />
<glyph unicode="&#xf4;" glyph-name="ocircumflex" horiz-adv-x="333" d="M107 -4Q73 -4 51 25T28 99Q28 135 40 170Q52 204 72 235T119 293Q153 328 196 354T276 380Q304 380 319 367T335 334Q335 322 327 308Q353 305 378 305Q397 305 416 307T454 313H458Q466
313 466 309Q466 305 457 302Q447 298 424 294T376 288T331 285Q324 285 319 285T310 286L300 281Q312 264 312 234Q312 194 293 153T242 76T175 18T107 -4ZM116 20Q143 20 169 39T216 90T252 158T272 229Q273 235 273 240T273 251Q273 260 272 267T268 279Q266
279 265 280Q253 282 248 286T235 295Q231 300 231 307Q231 314 236 318T249 320Q274 315 303 311Q313 328 313 342Q313 366 277 366Q255 366 232 350T185 307T141 249T105 187Q95 167 88 138T80 82Q80 57 88 39T116 20ZM199 427Q197 426 195 428T193 432Q193 436
198 441Q213 452 230 467T263 495T287 515Q301 529 316 529Q323 529 329 525T340 515Q348 505 368 482T403 441Q406 438 406 435Q406 431 403 429T397 427Q394 427 385 433T365 447T349 460Q342 465 331 473T309 491Q296 482 282 474T259 460Q253 455 240 448T214
434T199 427Z" />
<glyph unicode="&#xf5;" glyph-name="otilde" horiz-adv-x="333" d="M107 -4Q73 -4 51 25T28 99Q28 135 40 170Q52 204 72 235T119 293Q153 328 196 354T276 380Q304 380 319 367T335 334Q335 322 327 308Q353 305 378 305Q397 305 416 307T454 313H458Q466 313
466 309Q466 305 457 302Q447 298 424 294T376 288T331 285Q324 285 319 285T310 286L300 281Q312 264 312 234Q312 194 293 153T242 76T175 18T107 -4ZM116 20Q143 20 169 39T216 90T252 158T272 229Q273 235 273 240T273 251Q273 260 272 267T268 279Q266 279
265 280Q253 282 248 286T235 295Q231 300 231 307Q231 314 236 318T249 320Q274 315 303 311Q313 328 313 342Q313 366 277 366Q255 366 232 350T185 307T141 249T105 187Q95 167 88 138T80 82Q80 57 88 39T116 20ZM338 430Q318 430 305 437T281 452T254 460Q238
460 229 449T213 431Q206 428 206 433Q206 445 215 458T238 481T266 490Q292 490 313 478T357 466Q367 466 373 471T387 489Q389 489 391 488T394 479Q394 466 384 455T361 437T338 430Z" />
<glyph unicode="&#xf6;" glyph-name="odieresis" horiz-adv-x="333" d="M107 -4Q73 -4 51 25T28 99Q28 135 40 170Q52 204 72 235T119 293Q153 328 196 354T276 380Q304 380 319 367T335 334Q335 322 327 308Q353 305 378 305Q397 305 416 307T454 313H458Q466
313 466 309Q466 305 457 302Q447 298 424 294T376 288T331 285Q324 285 319 285T310 286L300 281Q312 264 312 234Q312 194 293 153T242 76T175 18T107 -4ZM116 20Q143 20 169 39T216 90T252 158T272 229Q273 235 273 240T273 251Q273 260 272 267T268 279Q266
279 265 280Q253 282 248 286T235 295Q231 300 231 307Q231 314 236 318T249 320Q274 315 303 311Q313 328 313 342Q313 366 277 366Q255 366 232 350T185 307T141 249T105 187Q95 167 88 138T80 82Q80 57 88 39T116 20ZM363 429Q352 429 346 434T336 447Q334 450
334 456Q334 461 337 466T343 474Q358 487 373 494Q377 498 393 498Q405 498 401 489Q395 481 392 467T384 441T363 429ZM247 429Q236 429 230 434T220 447Q218 450 218 456Q218 461 221 466T227 474Q242 487 257 494Q261 498 277 498Q289 498 285 489Q279 481
276 467T268 441T247 429Z" />
<glyph unicode="&#xf7;" glyph-name="divide" horiz-adv-x="363" d="M252 235Q241 235 235 240T225 254Q223 257 223 262Q223 269 226 274T233 283Q245 293 264 303Q272 308 278 310Q284 312 292 317Q295 319 297 317T297 312Q288 297 285 279T275 248T252 235ZM310
133Q306 138 283 144Q276 145 269 145T250 146Q241 146 231 146T208 144Q199 144 174 142T124 137T88 135Q62 135 56 148T49 178Q67 175 92 175Q134 175 183 179T270 181Q299 179 304 164T310 133ZM101 -7Q90 -7 84 -2T74 12Q71 17 71 21Q71 27 74 32T82 41L97
52Q104 57 113 61L127 68Q132 70 140 75Q143 77 145 75T146 70Q137 56 134 38T124 6T101 -7Z" />
<glyph unicode="&#xf8;" glyph-name="oslash" horiz-adv-x="333" d="M51 -118Q47 -117 47 -107T48 -89Q55 -57 79 2T137 134Q172 207 214 287T300 439Q300 440 301 440Q302 439 303 431T305 412T304 395Q303 393 302 389Q293 374 273 338Q253 303 228 256T174
155Q146 102 122 52Q98 3 81 -37T59 -99L58 -105L57 -110Q56 -119 51 -118ZM107 -4Q73 -4 51 25T28 99Q28 135 40 170Q52 204 72 235T119 293Q153 328 196 354T276 380Q304 380 319 367T335 334Q335 322 327 308Q353 305 378 305Q397 305 416 307T454 313H458Q466
313 466 309Q466 305 457 302Q447 298 424 294T376 288T331 285Q324 285 319 285T310 286L300 281Q312 264 312 234Q312 194 293 153T242 76T175 18T107 -4ZM116 20Q143 20 169 39T216 90T252 158T272 229Q273 235 273 240T273 251Q273 260 272 267T268 279Q266
279 265 280Q253 282 248 286T235 295Q231 300 231 307Q231 314 236 318T249 320Q274 315 303 311Q313 328 313 342Q313 366 277 366Q255 366 232 350T185 307T141 249T105 187Q95 167 88 138T80 82Q80 57 88 39T116 20Z" />
<glyph unicode="&#xf9;" glyph-name="ugrave" horiz-adv-x="347" d="M219 -3Q199 -3 190 10T181 45Q181 71 191 107T217 182Q203 160 184 134T144 85T103 47T65 32Q37 32 27 51T16 95Q16 111 18 126T25 154Q43 205 72 261T135 370T206 460Q230 484 242 484Q248
484 248 477Q248 470 242 457T221 427Q210 414 191 380T150 302T109 215T76 140Q68 121 65 106T61 81Q61 57 77 57Q98 57 131 96Q139 106 154 126T186 171T220 219T246 257L269 299Q274 309 289 315T318 322Q327 322 327 313Q327 302 323 291T310 266Q295 242 281
209T257 145T243 96Q239 79 239 62Q239 58 239 54T241 47Q243 34 251 34Q255 34 261 37Q283 48 305 68T347 112Q357 123 366 133T383 154Q386 157 388 157Q394 157 394 149Q394 143 390 139L346 86Q335 73 323 61T300 37Q280 18 258 8T219 -3ZM317 510Q315 511
304 517T281 531T263 543Q254 549 238 560T208 583T193 596Q193 600 200 606T221 612Q228 612 234 608T245 598Q252 592 265 579T293 551T321 524Q324 521 324 517Q324 508 317 510Z" />
<glyph unicode="&#xfa;" glyph-name="uacute" horiz-adv-x="347" d="M219 -3Q199 -3 190 10T181 45Q181 71 191 107T217 182Q203 160 184 134T144 85T103 47T65 32Q37 32 27 51T16 95Q16 111 18 126T25 154Q43 205 72 261T135 370T206 460Q230 484 242 484Q248
484 248 477Q248 470 242 457T221 427Q210 414 191 380T150 302T109 215T76 140Q68 121 65 106T61 81Q61 57 77 57Q98 57 131 96Q139 106 154 126T186 171T220 219T246 257L269 299Q274 309 289 315T318 322Q327 322 327 313Q327 302 323 291T310 266Q295 242 281
209T257 145T243 96Q239 79 239 62Q239 58 239 54T241 47Q243 34 251 34Q255 34 261 37Q283 48 305 68T347 112Q357 123 366 133T383 154Q386 157 388 157Q394 157 394 149Q394 143 390 139L346 86Q335 73 323 61T300 37Q280 18 258 8T219 -3ZM268 510Q262 510
262 517Q262 521 265 524Q284 541 307 564T341 598Q346 603 352 607T365 612Q379 612 386 606T393 596Q393 594 379 583T349 561T323 543Q317 539 305 531T283 517T269 510H268Z" />
<glyph unicode="&#xfb;" glyph-name="ucircumflex" horiz-adv-x="347" d="M219 -3Q199 -3 190 10T181 45Q181 71 191 107T217 182Q203 160 184 134T144 85T103 47T65 32Q37 32 27 51T16 95Q16 111 18 126T25 154Q43 205 72 261T135 370T206 460Q230 484 242 484Q248
484 248 477Q248 470 242 457T221 427Q210 414 191 380T150 302T109 215T76 140Q68 121 65 106T61 81Q61 57 77 57Q98 57 131 96Q139 106 154 126T186 171T220 219T246 257L269 299Q274 309 289 315T318 322Q327 322 327 313Q327 302 323 291T310 266Q295 242 281
209T257 145T243 96Q239 79 239 62Q239 58 239 54T241 47Q243 34 251 34Q255 34 261 37Q283 48 305 68T347 112Q357 123 366 133T383 154Q386 157 388 157Q394 157 394 149Q394 143 390 139L346 86Q335 73 323 61T300 37Q280 18 258 8T219 -3ZM205 508Q203 507
201 509T199 513Q199 517 204 522Q219 533 236 548T269 576T293 596Q307 610 322 610Q329 610 335 606T346 596Q354 586 374 563T409 522Q412 519 412 516Q412 512 409 510T403 508Q400 508 391 514T371 528T355 541Q348 546 337 554T315 572Q302 563 288 555T265
541Q259 536 246 529T220 515T205 508Z" />
<glyph unicode="&#xfc;" glyph-name="udieresis" horiz-adv-x="347" d="M219 -3Q199 -3 190 10T181 45Q181 71 191 107T217 182Q203 160 184 134T144 85T103 47T65 32Q37 32 27 51T16 95Q16 111 18 126T25 154Q43 205 72 261T135 370T206 460Q230 484 242 484Q248
484 248 477Q248 470 242 457T221 427Q210 414 191 380T150 302T109 215T76 140Q68 121 65 106T61 81Q61 57 77 57Q98 57 131 96Q139 106 154 126T186 171T220 219T246 257L269 299Q274 309 289 315T318 322Q327 322 327 313Q327 302 323 291T310 266Q295 242 281
209T257 145T243 96Q239 79 239 62Q239 58 239 54T241 47Q243 34 251 34Q255 34 261 37Q283 48 305 68T347 112Q357 123 366 133T383 154Q386 157 388 157Q394 157 394 149Q394 143 390 139L346 86Q335 73 323 61T300 37Q280 18 258 8T219 -3ZM369 510Q358 510
352 515T342 528Q340 531 340 537Q340 542 343 547T349 555Q364 568 379 575Q383 579 399 579Q411 579 407 570Q401 562 398 548T390 522T369 510ZM253 510Q242 510 236 515T226 528Q224 531 224 537Q224 542 227 547T233 555Q248 568 263 575Q267 579 283 579Q295
579 291 570Q285 562 282 548T274 522T253 510Z" />
<glyph unicode="&#xfd;" glyph-name="yacute" horiz-adv-x="337" d="M-66 -315Q-82 -315 -94 -303T-107 -264Q-107 -221 -81 -182T-13 -108T76 -47T167 -2Q182 29 202 77T244 177T282 278T303 357Q289 327 267 288T218 212T165 151T115 127Q83 127 71 147T59 195Q59
233 74 275T110 358T151 428Q136 424 118 424Q92 424 69 434T33 463Q25 477 25 482Q24 484 26 484Q26 484 33 479Q49 462 73 451T127 440Q135 440 144 441T163 444Q171 456 184 478Q196 499 214 515Q222 523 229 523Q235 523 238 517T242 500Q242 483 232 461T199
424Q167 378 143 326T108 212Q105 197 105 186Q105 153 126 153Q150 153 183 192Q194 205 215 237T260 308T303 387T329 454Q331 466 338 471T354 477Q362 477 368 473T374 462Q374 438 368 405Q361 371 350 332T325 251Q311 209 296 170Q281 130 266 96T240 36Q268
52 293 71T338 112Q349 123 358 133T375 154Q378 157 380 157Q386 157 386 148Q386 143 382 139Q360 110 337 86Q316 62 287 42T225 5Q202 -43 173 -98T107 -202T28 -283T-66 -315ZM-63 -292Q-52 -292 -38 -283T-7 -259Q7 -246 25 -227T58 -191T78 -165Q95 -139
114 -104T154 -27Q114 -45 73 -71T-3 -128T-59 -194T-81 -263Q-81 -292 -63 -292ZM277 562Q271 562 271 569Q271 573 274 576Q293 593 316 616T350 650Q355 655 361 659T374 664Q388 664 395 658T402 648Q402 646 388 635T358 613T332 595Q326 591 314 583T292
569T278 562H277Z" />
<glyph unicode="&#xfe;" glyph-name="thorn" horiz-adv-x="299" d="M-29 -132Q-35 -132 -35 -121Q-35 -110 -26 -73T1 19T40 140T89 278T144 417T202 544Q202 544 205 547Q209 547 220 536T234 513Q234 510 233 508Q226 495 212 462T179 382Q208 389 228 392T265
395Q311 395 330 371T349 311Q349 280 328 242T273 170T196 113T110 91Q89 91 65 99Q35 23 13 -37T-17 -117Q-23 -132 -29 -132ZM76 124Q112 126 155 144T237 190T301 253T327 321Q327 354 269 354Q247 354 217 349T161 337Q141 288 119 233T76 124Z" />
<glyph unicode="&#xff;" glyph-name="ydieresis" horiz-adv-x="337" d="M-66 -315Q-82 -315 -94 -303T-107 -264Q-107 -221 -81 -182T-13 -108T76 -47T167 -2Q182 29 202 77T244 177T282 278T303 357Q289 327 267 288T218 212T165 151T115 127Q83 127 71 147T59
195Q59 233 74 275T110 358T151 428Q136 424 118 424Q92 424 69 434T33 463Q25 477 25 482Q24 484 26 484Q26 484 33 479Q49 462 73 451T127 440Q135 440 144 441T163 444Q171 456 184 478Q196 499 214 515Q222 523 229 523Q235 523 238 517T242 500Q242 483 232
461T199 424Q167 378 143 326T108 212Q105 197 105 186Q105 153 126 153Q150 153 183 192Q194 205 215 237T260 308T303 387T329 454Q331 466 338 471T354 477Q362 477 368 473T374 462Q374 438 368 405Q361 371 350 332T325 251Q311 209 296 170Q281 130 266 96T240
36Q268 52 293 71T338 112Q349 123 358 133T375 154Q378 157 380 157Q386 157 386 148Q386 143 382 139Q360 110 337 86Q316 62 287 42T225 5Q202 -43 173 -98T107 -202T28 -283T-66 -315ZM-63 -292Q-52 -292 -38 -283T-7 -259Q7 -246 25 -227T58 -191T78 -165Q95
-139 114 -104T154 -27Q114 -45 73 -71T-3 -128T-59 -194T-81 -263Q-81 -292 -63 -292ZM378 562Q367 562 361 567T351 580Q349 583 349 589Q349 594 352 599T358 607Q373 620 388 627Q392 631 408 631Q420 631 416 622Q410 614 407 600T399 574T378 562ZM262 562Q251
562 245 567T235 580Q233 583 233 589Q233 594 236 599T242 607Q257 620 272 627Q276 631 292 631Q304 631 300 622Q294 614 291 600T283 574T262 562Z" />
<glyph unicode="&#x2013;" glyph-name="endash" horiz-adv-x="423" d="M402 184Q399 189 380 191T333 195T279 196Q267 196 257 196T237 195Q184 192 149 189Q113 186 85 186Q61 186 54 198T47 229Q56 228 73 227T111 226Q161 226 207 229Q232 230 264 231T323
232T362 232Q391 230 396 215T402 184Z" />
<glyph unicode="&#x2014;" glyph-name="emdash" horiz-adv-x="580" d="M558 184Q544 192 510 194T436 196Q399 196 365 195T307 193Q282 192 247 191T177 189T117 187T85 186Q61 186 54 198T47 229Q59 227 96 227Q105 226 115 226T135 226Q167 226 205 226T284
229L388 231Q426 232 465 232T518 232Q547 230 552 215T558 184Z" />
<glyph unicode="&#x2018;" glyph-name="quoteleft" horiz-adv-x="192" d="M168 448Q154 448 145 456T136 480Q136 491 140 502Q148 528 169 555T216 604T268 637Q269 638 272 637T269 631Q237 608 218 577T187 514Q198 501 198 483Q198 470 191 459T168 448Z" />
<glyph unicode="&#x2019;" glyph-name="quoteright" horiz-adv-x="200" d="M141 449Q139 448 136 449T139 456Q171 478 191 509T222 572Q211 585 211 603Q211 617 218 627T241 638Q255 638 264 630T273 606Q273 579 252 547T201 488T141 449Z" />
<glyph unicode="&#x201a;" glyph-name="quotesinglbase" horiz-adv-x="300" d="M106 -39Q103 -39 107 -31Q111 -23 122 -2T147 45T174 94T197 128Q211 146 225 146Q242 146 242 126Q242 112 229 93Q206 59 174 24T110 -37Q109 -39 106 -39Z" />
<glyph unicode="&#x201c;" glyph-name="quotedblleft" horiz-adv-x="303" d="M275 448Q261 448 252 456T243 480Q243 491 247 502Q255 528 276 555T323 604T375 637Q377 638 380 637T377 631Q345 608 325 577T294 514Q305 501 305 483Q305 470 298 459T275 448ZM168
448Q154 448 145 456T136 480Q136 491 140 502Q148 528 169 555T216 604T268 637Q269 638 272 637T269 631Q237 608 218 577T187 514Q198 501 198 483Q198 470 191 459T168 448Z" />
<glyph unicode="&#x201d;" glyph-name="quotedblright" horiz-adv-x="302" d="M141 449Q139 448 136 449T139 456Q171 478 191 509T222 572Q211 585 211 603Q211 617 218 627T241 638Q255 638 264 630T273 606Q273 579 252 547T201 488T141 449ZM242 449Q241 448
237 449T241 456Q273 478 292 509T323 572Q312 585 312 603Q312 617 319 627T342 638Q356 638 365 630T374 606Q374 579 353 547T302 488T242 449Z" />
<glyph unicode="&#x201e;" glyph-name="quotedblbase" horiz-adv-x="412" d="M218 -39Q215 -39 219 -31Q223 -23 234 -2T259 45T286 94T309 128Q323 146 337 146Q354 146 354 125Q354 111 342 93Q319 59 287 24T223 -37Q221 -39 218 -39ZM106 -39Q103 -39 107
-31Q111 -23 122 -2T147 45T174 94T197 128Q211 146 225 146Q242 146 242 126Q242 112 229 93Q206 59 174 24T110 -37Q109 -39 106 -39Z" />
<glyph unicode="&#x2022;" glyph-name="bullet" horiz-adv-x="436" d="M182 63Q127 63 95 100T67 196Q73 241 100 280T167 342T253 366Q303 366 336 333T370 250Q370 206 346 165T284 97T201 64Q196 63 192 63T182 63Z" />
<glyph unicode="&#x2039;" glyph-name="guilsinglleft" horiz-adv-x="320" d="M224 72Q213 91 186 116T126 165T69 207Q68 208 68 210L67 212Q73 221 95 238T147 274T205 311T253 337Q258 339 265 341T279 344Q292 344 285 331Q285 330 271 320T236 294T194 263T159
238T144 226Q153 217 168 201T198 166T224 127T235 93Q235 79 224 72Z" />
<glyph unicode="&#x203a;" glyph-name="guilsinglright" horiz-adv-x="330" d="M86 83Q78 83 78 88Q78 92 81 96Q82 97 96 107T130 133T170 163T205 188T222 201Q216 206 204 218T179 245T157 274Q146 289 138 304T130 333Q130 347 141 354Q154 333 181 309T241
262T297 219L298 214Q292 204 270 188T218 152T161 116T112 90Q100 83 86 83Z" />
</font>
</defs>
</svg>
