<?xml version="1.0" standalone="no"?>
<!DOCTYPE svg PUBLIC "-//W3C//DTD SVG 1.1//EN" "http://www.w3.org/Graphics/SVG/1.1/DTD/svg11.dtd">
<svg xmlns="http://www.w3.org/2000/svg">
<defs >
<font id="Gabarito" horiz-adv-x="506" ><font-face
    font-family="Gabarito"
    units-per-em="1000"
    panose-1="0 0 0 0 0 0 0 0 0 0"
    ascent="940"
    descent="-260"
    alphabetic="0" />
<glyph unicode=" " horiz-adv-x="260" />
<glyph unicode="!" horiz-adv-x="291" d="M81 709H209L199 373L187 217H103L91 372L81 709ZM145 -6Q113 -6 91 16T68 71Q68 103 90 126T145 149Q177 149 200 126T223 71Q223 39 200 17T145 -6Z" />
<glyph unicode="&quot;" horiz-adv-x="300" d="M58 398L30 547V681H126V398H58ZM206 398L178 547V681H274V398H206Z" />
<glyph unicode="#" horiz-adv-x="655" d="M233 690H319L190 -10H104L233 690ZM617 507V431H88V507H617ZM567 250V174H38V250H567ZM448 690H534L405 -10H319L448 690Z" />
<glyph unicode="$" horiz-adv-x="526" d="M218 607V757H298V607H218ZM488 186Q488 132 459 88T379 17T261 -10Q194 -10 136 20T38 136L121 183Q153 131 190 109T271 86Q324 86 356 113T388 179Q388 201 378 223T338 264T248 295Q177 310 136 336T77 396T59 469Q59
522 84 564T154 630T263 655Q334 655 386 627T476 541L392 487Q358 531 326 544T259 558Q209 558 183 534T157 476Q157 455 168 435T210 399T296 368Q396 344 442 301T488 186ZM218 -113V37H298V-113H218Z" />
<glyph unicode="%" horiz-adv-x="720" d="M119 -10L56 38L601 664L664 616L119 -10ZM179 363Q138 363 103 383T47 437T26 513Q26 556 47 590T103 644T179 664Q221 664 256 644T311 589T332 513Q332 471 311 437T255 383T179 363ZM179 442Q208 442 228 462T248
513Q248 545 228 565T179 586Q149 586 130 566T111 513Q111 482 130 462T179 442ZM541 -10Q500 -10 465 10T409 64T388 140Q388 183 409 217T465 271T541 291Q583 291 618 271T673 217T694 140Q694 98 673 64T617 10T541 -10ZM541 69Q570 69 590 89T610 140Q610
172 590 192T541 213Q511 213 492 193T473 140Q473 109 492 89T541 69Z" />
<glyph unicode="&amp;" horiz-adv-x="645" d="M624 322H295Q234 322 200 291T166 205Q166 152 199 121T294 89Q362 89 393 129T424 252V342H524V242Q524 164 502 115T445 39T371 1T299 -10Q224 -10 172 19T92 97T64 205Q64 259 95 303T183 374T313 401L294 346Q206
346 154 394T101 520Q101 566 123 609T188 680T293 709Q320 709 350 704T412 681T472 631L405 570Q383 592 357 601T304 610Q254 610 229 582T203 519Q203 475 235 446T334 416H624V322Z" />
<glyph unicode="&apos;" horiz-adv-x="152" d="M58 398L30 547V681H126V398H58Z" />
<glyph unicode="(" horiz-adv-x="351" d="M168 322Q168 191 214 91T342 -93L271 -156Q213 -102 167 -32T95 126T68 322Q68 430 94 518T167 676T271 800L342 737Q260 654 214 554T168 322Z" />
<glyph unicode=")" horiz-adv-x="351" d="M182 322Q182 453 136 553T8 737L79 800Q137 747 183 677T255 518T282 322Q282 214 256 126T183 -32T79 -156L8 -93Q90 -10 136 90T182 322Z" />
<glyph unicode="*" horiz-adv-x="455" d="M171 374L98 417L179 528L43 513V598L180 583L98 694L171 736L227 610L282 736L356 694L274 583L412 598V513L274 528L356 417L282 374L227 501L171 374Z" />
<glyph unicode="+" horiz-adv-x="670" d="M284 100V580H374V100H284ZM100 290V380H571V290H100Z" />
<glyph unicode="," horiz-adv-x="271" d="M216 62Q216 9 182 -48T78 -153L47 -124Q79 -94 96 -55T114 8Q114 55 93 80T47 118Q58 135 69 144T96 158T129 163Q152 163 172 151T204 116T216 62Z" />
<glyph unicode="-" horiz-adv-x="368" d="M334 242H34V336H334V242Z" />
<glyph unicode="." horiz-adv-x="269" d="M134 -5Q113 -5 95 6T66 35T55 74Q55 96 66 113T95 142T134 153Q156 153 174 142T203 114T214 74Q214 53 203 35T174 6T134 -5Z" />
<glyph unicode="/" horiz-adv-x="455" d="M83 -70L4 -33L372 722L451 685L83 -70Z" />
<glyph unicode="0" horiz-adv-x="540" d="M270 -10Q199 -10 147 32T66 152T38 340Q38 448 66 526T146 647T270 690Q342 690 394 648T474 527T502 340Q502 231 474 153T394 32T270 -10ZM270 86Q316 86 344 119T387 211T401 340Q401 404 387 462T345 557T270 594Q223
594 194 557T151 462T138 340Q138 269 151 211T193 120T270 86Z" />
<glyph unicode="1" horiz-adv-x="347" d="M162 576L199 561Q192 542 173 524T121 494T38 482V578Q81 578 112 590T163 626T194 681H262V0H162V576Z" />
<glyph unicode="2" horiz-adv-x="496" d="M445 506Q445 466 433 427T395 347T332 262L140 35L137 94H458V0H51V82L237 299Q278 347 302 380T336 441T346 497Q346 544 318 569T253 594Q216 594 181 573T108 496L34 548Q64 597 96 628T167 675T250 690Q310 690 354
666T421 601T445 506Z" />
<glyph unicode="3" horiz-adv-x="497" d="M250 -10Q177 -10 126 15T30 92L94 158Q129 121 163 104T240 86Q303 86 334 117T366 197Q366 245 344 271T284 309T203 320Q191 320 178 320T155 318V406Q172 405 178 405T196 405Q264 405 301 432T339 506Q339 547 313
570T240 594Q200 594 169 578T106 525L42 586Q92 643 139 666T250 690Q307 690 349 668T415 606T438 512Q438 430 378 381T216 331V392Q286 392 343 370T433 304T467 193Q467 139 442 93T368 18T250 -10Z" />
<glyph unicode="4" horiz-adv-x="552" d="M430 429V0H328V228L307 263L374 429H430ZM38 169V231L222 681H324L138 214L116 265H526V169H38Z" />
<glyph unicode="5" horiz-adv-x="519" d="M136 280L66 298V681H443V585H122L161 617V316L108 354Q137 399 178 422T280 445Q336 445 383 417T460 338T489 218Q489 143 458 92T377 16T266 -10Q186 -10 132 20T43 101L116 158Q143 121 179 104T252 87Q317 87 352
123T387 218Q387 275 350 309T259 343Q224 343 193 329T136 280Z" />
<glyph unicode="6" horiz-adv-x="536" d="M30 321Q30 435 64 518T160 645T308 690Q360 690 405 674T491 625L437 550Q409 573 376 584T309 596Q261 596 221 566T158 472T134 308H115Q137 364 189 396T307 429Q377 429 423 400T492 323T515 217Q515 150 488 99T410
19T285 -10Q203 -10 146 24T60 131T30 321ZM148 207Q148 152 184 118T278 84Q340 84 375 118T411 207Q411 263 376 298T278 333Q220 333 184 298T148 207Z" />
<glyph unicode="7" horiz-adv-x="477" d="M67 0L385 651L441 585H26V681H464V596L182 0H67Z" />
<glyph unicode="8" horiz-adv-x="532" d="M266 -10Q195 -10 146 16T72 85T47 180Q47 235 70 274T133 337T224 372V323Q179 334 144 359T89 421T69 505Q69 561 93 602T162 667T268 690Q327 690 371 667T439 603T463 505Q463 463 447 428T401 368T332 330L331 367Q377
355 411 330T465 268T485 180Q485 129 460 86T386 16T266 -10ZM266 88Q319 88 351 118T384 197Q384 249 352 280T266 311Q213 311 181 280T148 197Q148 148 180 118T266 88ZM266 405Q310 405 339 432T368 501Q368 540 339 566T266 592Q223 592 194 566T164 501Q164
460 193 433T266 405Z" />
<glyph unicode="9" horiz-adv-x="535" d="M515 359Q515 245 481 163T385 35T237 -10Q185 -10 140 6T54 55L108 130Q137 108 169 96T236 84Q285 84 324 114T387 208T411 372H430Q408 316 356 284T238 251Q169 251 123 280T53 357T30 463Q30 530 57 581T135 661T260
690Q343 690 399 656T485 549T515 359ZM397 473Q397 528 362 562T267 596Q206 596 170 562T134 473Q134 417 170 382T267 347Q326 347 361 382T397 473Z" />
<glyph unicode=":" horiz-adv-x="269" d="M134 -5Q113 -5 95 6T66 35T55 74Q55 96 66 113T95 142T134 153Q156 153 174 142T203 114T214 74Q214 53 203 35T174 6T134 -5ZM134 330Q113 330 95 341T66 370T55 409Q55 431 66 448T95 477T134 488Q156 488 174 477T203
449T214 409Q214 388 203 370T174 341T134 330Z" />
<glyph unicode=";" horiz-adv-x="271" d="M131 330Q110 330 92 341T63 370T52 409Q52 431 63 448T92 477T131 488Q153 488 171 477T200 449T211 409Q211 388 200 370T171 341T131 330ZM216 62Q216 9 182 -48T78 -153L47 -124Q79 -94 96 -55T114 8Q114 55 93 80T47
118Q58 135 69 144T96 158T129 163Q152 163 172 151T204 116T216 62Z" />
<glyph unicode="&lt;" horiz-adv-x="670" d="M493 42L132 266V322L493 546L539 473L223 278V310L539 115L493 42Z" />
<glyph unicode="=" horiz-adv-x="670" d="M123 343V423H548V343H123ZM123 157V237H548V157H123Z" />
<glyph unicode="&gt;" horiz-adv-x="670" d="M171 42L132 108L448 303V278L132 473L171 539L539 315V266L171 42Z" />
<glyph unicode="?" horiz-adv-x="538" d="M234 196L182 282L248 323Q298 354 328 380T373 434T388 498Q388 553 351 586T262 620Q223 620 184 604T109 549L96 535L34 602L45 614Q85 658 139 687T269 717Q332 717 382 688T462 609T491 495Q491 456 478 416T426
334T316 247L234 196ZM260 -8Q228 -8 206 14T183 69Q183 101 205 124T260 147Q292 147 315 124T338 69Q338 37 315 15T260 -8Z" />
<glyph unicode="@" horiz-adv-x="841" d="M349 154Q313 154 284 173T237 225T220 301Q220 366 246 418T316 502T413 533Q454 533 480 512T520 457T534 387Q534 343 521 302T484 227T425 174T349 154ZM444 -49Q359 -49 287 -22T162 56T80 176T51 331Q51 418 81
490T165 615T288 697T435 726Q512 726 576 699T689 625T763 518T790 392Q790 323 771 276T723 200T660 158T600 145Q542 145 507 176T472 269Q472 274 472 280T474 293L498 431L544 529H605L568 352Q566 341 562 317T558 275Q558 253 572 239T606 225Q628 225 649
241T684 293T699 392Q699 456 667 511T575 601T436 636Q351 636 285 597T180 489T142 333Q142 249 180 184T286 81T438 43Q511 43 561 62T654 112L702 37Q654 -2 587 -25T444 -49ZM371 228Q406 228 430 252T466 312T479 388Q479 418 465 438T423 459Q389 459 365
436T328 375T315 299Q315 269 329 249T371 228Z" />
<glyph unicode="A" horiz-adv-x="662" d="M148 253H515V159H148V253ZM20 0L263 681H399L642 0H540L322 611H340L122 0H20Z" />
<glyph unicode="B" horiz-adv-x="600" d="M85 0V681H311Q380 681 427 662T500 602T525 499Q525 447 499 407T431 345T339 323L346 375Q407 375 452 354T524 291T550 191Q550 98 493 49T328 0H85ZM185 618V70L145 96H331Q387 96 417 125T448 201Q448 253 419 280T333
307H145V399H314Q367 399 395 422T423 491Q423 532 395 558T314 585H149L185 618Z" />
<glyph unicode="C" horiz-adv-x="710" d="M374 -10Q271 -10 194 35T73 160T30 340Q30 416 56 480T128 591T237 664T374 690Q490 690 564 643T685 515L587 486Q541 549 489 571T374 594Q305 594 251 561T164 471T132 340Q132 267 164 210T250 119T374 86Q436 86
488 108T587 194L685 165Q638 85 564 38T374 -10Z" />
<glyph unicode="D" horiz-adv-x="679" d="M85 0V681H309Q407 681 484 640T605 523T649 339Q649 230 605 155T483 40T308 0H85ZM185 72L155 94H303Q370 94 424 120T512 201T545 339Q545 420 513 475T426 559T304 587H148L185 623V72Z" />
<glyph unicode="E" horiz-adv-x="554" d="M165 295V389H440V295H165ZM162 587L185 619V79L157 95H499V0H85V681H499V587H162Z" />
<glyph unicode="F" horiz-adv-x="519" d="M165 295V389H430V295H165ZM185 0H85V681H489V587H162L185 619V0Z" />
<glyph unicode="G" horiz-adv-x="728" d="M374 -10Q271 -10 194 35T73 160T30 340Q30 416 56 480T128 591T237 664T374 690Q490 690 564 643T685 515L587 486Q541 549 489 571T374 594Q305 594 251 561T164 471T132 340Q132 267 164 210T250 119T374 86Q440 86
494 115T581 196T613 312L628 254H368V348H702Q705 338 706 325T708 300Q708 236 683 180T613 81T507 14T374 -10Z" />
<glyph unicode="H" horiz-adv-x="698" d="M513 0V681H613V0H513ZM85 0V681H185V0H85ZM151 286V380H543V286H151Z" />
<glyph unicode="I" horiz-adv-x="270" d="M185 0H85V681H185V0Z" />
<glyph unicode="J" horiz-adv-x="530" d="M248 79Q297 79 322 108T348 189V681H450V189Q450 128 425 82T355 11T249 -15Q188 -15 143 8T72 76T47 186V227H149V192Q149 133 175 106T248 79Z" />
<glyph unicode="K" horiz-adv-x="611" d="M85 0V681H185V0H85ZM471 0L148 334V345L475 681H600L239 310L249 369L606 0H471Z" />
<glyph unicode="L" horiz-adv-x="504" d="M479 0H85V681H185V80L173 94H479V0Z" />
<glyph unicode="M" horiz-adv-x="877" d="M36 0L161 681H250L437 184H440L627 681H716L841 0H736L681 324Q669 394 661 462T651 600H676Q658 517 639 454T594 324L477 11H400L283 324Q258 392 239 454T201 600H226Q224 531 216 463T196 324L141 0H36Z" />
<glyph unicode="N" horiz-adv-x="739" d="M569 0L129 571L185 587V0H85V681H170L595 130H554V681H654V0H569Z" />
<glyph unicode="O" horiz-adv-x="765" d="M30 340Q30 416 56 480T131 591T243 664T384 690Q459 690 523 664T634 591T708 480T735 340Q735 265 709 201T635 90T523 16T384 -10Q308 -10 244 16T131 89T57 201T30 340ZM132 340Q132 267 165 210T255 119T384 86Q456
86 512 119T600 209T633 340Q633 414 601 471T512 561T384 594Q312 594 255 561T165 471T132 340Z" />
<glyph unicode="P" horiz-adv-x="588" d="M167 314H308Q374 314 414 350T454 450Q454 518 415 552T309 587H167L185 610V0H85V681H326Q396 681 448 650T529 567T558 450Q558 386 529 334T448 251T325 220H167V314Z" />
<glyph unicode="Q" horiz-adv-x="765" d="M599 -40L408 283H513L704 -40H599ZM30 340Q30 416 56 480T131 591T243 664T384 690Q459 690 523 664T634 591T708 480T735 340Q735 265 709 201T635 90T523 16T384 -10Q308 -10 244 16T131 89T57 201T30 340ZM132 340Q132
267 165 210T255 119T384 86Q456 86 512 119T600 209T633 340Q633 414 601 471T512 561T384 594Q312 594 255 561T165 471T132 340Z" />
<glyph unicode="R" horiz-adv-x="620" d="M85 0V681H335Q405 681 457 652T539 572T568 460Q568 398 539 348T458 269T335 240H167V334H318Q384 334 424 367T464 460Q464 523 424 555T318 587H166L185 610V0H85ZM465 0L306 283H416L575 0H465Z" />
<glyph unicode="S" horiz-adv-x="555" d="M295 -15Q242 -15 193 1T102 53T33 153L116 200Q151 137 193 109T298 81Q359 81 390 108T422 182Q422 210 409 231T361 270T265 303Q187 323 144 352T83 420T66 504Q66 560 92 601T167 666T283 690Q363 690 415 660T503
576L419 522Q388 560 355 576T283 593Q225 593 195 570T164 504Q164 467 192 440T304 393Q388 372 435 344T502 276T522 181Q522 126 494 82T415 12T295 -15Z" />
<glyph unicode="T" horiz-adv-x="556" d="M223 0V606H323V0H223ZM10 587V681H546V587H10Z" />
<glyph unicode="U" horiz-adv-x="688" d="M344 -10Q267 -10 208 20T114 109T80 256V681H180V271Q180 183 222 135T344 86Q424 86 466 134T508 271V681H608V256Q608 169 574 110T481 20T344 -10Z" />
<glyph unicode="V" horiz-adv-x="642" d="M253 0L10 681H112L330 70H312L530 681H632L389 0H253Z" />
<glyph unicode="W" horiz-adv-x="966" d="M644 0L457 607L434 681H532L723 50L679 60L845 681H946L761 0H644ZM205 0L20 681H121L287 60L243 50L434 681H532L509 607L322 0H205Z" />
<glyph unicode="X" horiz-adv-x="641" d="M139 681L336 395H314L512 681H631L376 326L357 374L631 0H512L295 305H341L129 0H10L279 374L274 326L20 681H139Z" />
<glyph unicode="Y" horiz-adv-x="553" d="M307 288H243L441 681H553L311 223L326 309V0H226V309L240 223L0 681H111L307 288Z" />
<glyph unicode="Z" horiz-adv-x="557" d="M415 615V587H58V681H512V595L149 64L146 94H517V0H50V87L415 615Z" />
<glyph unicode="[" horiz-adv-x="312" d="M159 701V789H292V701H159ZM180 -137H80V789H180V-137ZM158 -137V-49H292V-137H158Z" />
<glyph unicode="\" horiz-adv-x="455" d="M372 -70L4 685L83 722L451 -33L372 -70Z" />
<glyph unicode="]" horiz-adv-x="302" d="M143 701H10V789H143V701ZM122 -137V789H222V-137H122ZM144 -137H10V-49H144V-137Z" />
<glyph unicode="^" horiz-adv-x="670" d="M537 368L486 312L335 441L184 312L133 368L335 546L537 368Z" />
<glyph unicode="_" horiz-adv-x="544" d="M527 -80H17V0H527V-80Z" />
<glyph unicode="`" horiz-adv-x="540" d="M314 557L161 698L212 749L364 609L314 557Z" />
<glyph unicode="a" horiz-adv-x="492" d="M216 -14Q159 -14 118 6T56 63T34 153Q34 201 56 238T119 298T216 320Q286 320 328 289T388 202H332V327Q332 358 311 384T237 410Q209 410 176 404T106 381L76 458Q117 478 161 488T247 498Q310 498 351 475T412 414T432
327V0H360L335 89L388 104Q370 45 324 16T216 -14ZM234 75Q278 75 305 95T332 153Q332 191 305 211T234 231Q190 231 163 211T136 153Q136 116 163 96T234 75Z" />
<glyph unicode="b" horiz-adv-x="570" d="M311 -10Q245 -10 196 22T120 111T92 245Q92 321 119 378T196 466T311 498Q379 498 429 467T508 378T536 245Q536 169 508 112T430 22T311 -10ZM64 0V681H164V376H154V98H164L140 0H64ZM296 76Q358 76 396 122T434 245Q434
320 396 366T296 412Q235 412 197 366T159 244Q159 168 197 122T296 76Z" />
<glyph unicode="c" horiz-adv-x="509" d="M279 -10Q204 -10 149 22T64 112T34 244Q34 319 64 376T149 465T279 498Q350 498 408 460T492 357L397 317Q381 359 349 380T276 402Q216 402 176 361T136 244Q136 169 176 128T276 86Q317 86 349 107T397 171L492 131Q465
67 408 29T279 -10Z" />
<glyph unicode="d" horiz-adv-x="570" d="M259 -10Q192 -10 141 22T62 111T34 245Q34 321 62 378T141 466T259 498Q325 498 374 467T450 378T478 245Q478 169 451 112T374 22T259 -10ZM274 76Q336 76 373 122T411 244Q411 320 374 366T274 412Q212 412 174 366T136
245Q136 169 174 123T274 76ZM430 0L406 98H416V376H406V681H506V0H430Z" />
<glyph unicode="e" horiz-adv-x="543" d="M273 -10Q202 -10 148 21T64 110T34 243Q34 320 64 377T148 466T273 498Q345 498 399 466T483 377T513 243Q513 236 513 229T511 215H129V301H439L411 243Q411 319 377 368T273 417Q211 417 174 378T137 274V222Q137 155
173 116T273 76Q332 76 364 101T420 163L495 116Q461 53 408 22T273 -10Z" />
<glyph unicode="f" horiz-adv-x="314" d="M101 0V536Q101 589 118 623T166 673T240 690Q260 690 276 687T305 680V587Q294 589 284 590T259 592Q237 592 219 578T201 528V0H101ZM295 396H26V488H295V396Z" />
<glyph unicode="g" horiz-adv-x="575" d="M279 -198Q237 -198 200 -187T132 -149T77 -80L70 -67L149 -24Q175 -67 204 -88T279 -110Q340 -110 375 -72T411 45V149H421V390H411L435 488H511V61Q511 -25 481 -83T398 -169T279 -198ZM267 30Q199 30 148 59T68 140T39
263Q39 334 67 386T147 468T267 498Q332 498 380 469T456 387T483 263Q483 193 456 141T381 59T267 30ZM279 116Q341 116 378 156T416 264Q416 331 379 371T279 412Q217 412 179 371T141 263Q141 197 179 157T279 116Z" />
<glyph unicode="h" horiz-adv-x="551" d="M64 0V681H164V0H64ZM391 0V312Q391 364 368 382T312 400Q280 400 247 387T188 352T148 303L136 399Q164 431 197 453T267 486T343 498Q395 498 425 481T469 434T487 367T491 291V0H391Z" />
<glyph unicode="i" horiz-adv-x="232" d="M166 0H66V488H166V0ZM51 638Q51 667 68 685T116 704Q145 704 163 686T181 638Q181 610 163 592T116 573Q86 573 69 591T51 638Z" />
<glyph unicode="j" horiz-adv-x="236" d="M60 -194Q35 -194 20 -190T0 -183V-99Q5 -100 13 -102T31 -104Q51 -104 61 -91T71 -56V488H171V-53Q171 -91 160 -123T124 -175T60 -194ZM56 638Q56 667 73 685T121 704Q150 704 168 686T186 638Q186 610 168 592T121
573Q91 573 74 591T56 638Z" />
<glyph unicode="k" horiz-adv-x="460" d="M138 246V260L350 488H468L230 227L221 293L470 0H350L138 246ZM64 681H162V0H64V681Z" />
<glyph unicode="l" horiz-adv-x="247" d="M153 -5Q127 -5 107 7T76 44T64 103V681H162V138Q162 107 177 96T213 85V5Q200 0 185 -2T153 -5Z" />
<glyph unicode="m" horiz-adv-x="848" d="M64 0V488H140L161 402L136 399Q163 431 193 453T257 486T328 498Q380 498 410 481T454 434T472 367T476 291V0H376V312Q376 364 353 382T297 400Q251 400 209 372T148 303V359H164V0H64ZM688 0V312Q688 364 665 382T609
400Q563 400 521 372T460 303L448 399Q475 431 505 453T569 486T640 498Q692 498 722 481T766 434T784 367T788 291V0H688Z" />
<glyph unicode="n" horiz-adv-x="551" d="M343 498Q395 498 425 481T469 434T487 367T491 291V0H391V312Q391 364 368 382T312 400Q280 400 247 387T188 352T148 303V359H164V0H64V488H140L161 402L136 399Q164 431 197 453T267 486T343 498Z" />
<glyph unicode="o" horiz-adv-x="569" d="M284 -10Q210 -10 154 21T66 110T35 243Q35 320 66 377T153 466T284 498Q359 498 415 466T502 377T534 243Q534 167 503 110T415 22T284 -10ZM284 86Q351 86 391 129T432 243Q432 314 392 358T284 402Q218 402 178 359T137
244Q137 173 177 130T284 86Z" />
<glyph unicode="p" horiz-adv-x="570" d="M311 -10Q245 -10 196 21T120 110T92 243Q92 320 119 377T196 466T311 498Q379 498 429 466T508 377T536 243Q536 167 508 110T430 22T311 -10ZM64 -190V488H140L164 390H154V112H164V-190H64ZM296 76Q358 76 396 122T434
243Q434 319 396 365T296 412Q235 412 197 366T159 244Q159 168 197 122T296 76Z" />
<glyph unicode="q" horiz-adv-x="570" d="M259 -10Q192 -10 141 21T62 110T34 243Q34 320 62 377T141 466T259 498Q325 498 374 466T450 377T478 243Q478 167 451 110T374 22T259 -10ZM274 76Q336 76 373 122T411 244Q411 320 374 366T274 412Q212 412 174 366T136
243Q136 168 174 122T274 76ZM406 -190V112H416V390H406L430 488H506V-190H406Z" />
<glyph unicode="r" horiz-adv-x="345" d="M140 488L164 356V0H64V488H140ZM149 315L125 326V399L134 410Q144 428 165 448T216 483T275 498Q290 498 303 496T324 489V399H293Q225 399 194 379T149 315Z" />
<glyph unicode="s" horiz-adv-x="432" d="M220 -10Q169 -10 120 14T38 96L114 146Q142 109 167 93T232 76Q264 76 281 92T299 133Q299 149 291 161T261 183T201 204Q129 223 90 254T51 352Q51 392 71 425T129 478T219 498Q281 498 325 473T394 412L317 355Q303
373 276 390T208 408Q183 408 162 394T141 355Q141 330 160 315T232 287Q320 266 357 233T394 144Q394 96 370 62T306 9T220 -10Z" />
<glyph unicode="t" horiz-adv-x="359" d="M244 -9Q180 -9 143 28T105 145V482V488L124 598H205V143Q205 115 219 101T256 87Q273 87 286 89T309 94V1Q296 -3 281 -6T244 -9ZM30 396V488H309V396H30Z" />
<glyph unicode="u" horiz-adv-x="551" d="M218 -10Q163 -10 131 7T84 54T65 121T60 197V488H160V176Q160 124 183 106T239 88Q272 88 304 101T363 136T403 185V129H387V488H487V0H411L390 86L415 89Q389 58 357 36T290 2T218 -10Z" />
<glyph unicode="v" horiz-adv-x="507" d="M490 488L306 0H211L17 488H128L264 109H251L381 488H490Z" />
<glyph unicode="w" horiz-adv-x="729" d="M167 0L13 488H113L214 129H205L319 488H410L524 129H515L616 488H716L562 0H477L356 381H373L252 0H167Z" />
<glyph unicode="x" horiz-adv-x="489" d="M351 0L226 193H262L138 0H17L201 269V219L17 488H138L262 295H227L351 488H472L288 219V269L472 0H351Z" />
<glyph unicode="y" horiz-adv-x="502" d="M208 62L15 488H120L291 111L208 62ZM80 -190L388 488H493L185 -190H80Z" />
<glyph unicode="z" horiz-adv-x="453" d="M415 92V0H38V78L320 439L353 396H44V488H411V410L128 49L67 92H415Z" />
<glyph unicode="{" horiz-adv-x="312" d="M114 343Q146 343 177 326T228 279T249 215Q249 186 234 158T199 103T164 50T149 -1Q149 -35 171 -48T221 -62H262V-146Q252 -148 238 -148T210 -149Q174 -149 145 -139T94 -111T62 -69T50 -15Q50 16 65 44T101 100T136
153T152 206Q152 228 137 247T90 280L52 296V356L90 372Q121 385 136 404T152 446Q152 473 137 499T101 552T66 607T50 667Q50 696 61 720T94 763T144 791T210 801Q224 801 238 801T262 798V714H221Q193 714 171 701T149 653Q149 628 164 603T199 550T234 495T249
437Q249 402 229 373T177 327T114 309V343Z" />
<glyph unicode="|" horiz-adv-x="264" d="M179 -120H85V820H179V-120Z" />
<glyph unicode="}" horiz-adv-x="312" d="M198 343V309Q166 309 135 326T84 373T63 437Q63 466 78 494T113 550T148 602T163 653Q163 687 142 700T91 714H50V798Q60 800 74 800T102 801Q138 801 167 791T218 763T250 721T262 667Q262 636 247 608T211 552T176
499T160 446Q160 424 175 405T222 372L260 356V296L222 280Q191 267 176 248T160 206Q160 179 175 153T211 100T246 45T262 -15Q262 -44 251 -68T218 -111T168 -139T102 -149Q88 -149 74 -149T50 -146V-62H91Q120 -62 141 -49T163 -1Q163 24 148 50T113 103T78
158T63 215Q63 250 83 279T135 325T198 343Z" />
<glyph unicode="~" horiz-adv-x="670" d="M139 203L66 244Q85 277 108 304T163 347T239 363Q274 363 299 353T345 330T386 306T432 296Q467 296 489 317T532 373L605 332Q577 283 538 248T432 213Q398 213 373 223T326 246T285 270T239 280Q205 280 183 259T139 203Z" />
<glyph unicode="&#xa0;" horiz-adv-x="260" />
<glyph unicode="&#xa1;" horiz-adv-x="291" d="M210 -176H82L92 160L104 316H188L200 161L210 -176ZM146 539Q178 539 200 517T223 462Q223 430 201 407T146 384Q114 384 91 407T68 462Q68 494 91 516T146 539Z" />
<glyph unicode="&#xa2;" horiz-adv-x="534" d="M234 566V706H334V566H234ZM234 0V140H334V0H234ZM286 93Q212 93 158 127T76 218T47 347Q47 418 78 475T163 567T286 601Q367 601 425 569T517 459L434 418Q418 448 400 469T357 503T290 515Q222 515 186 470T149
348Q149 272 186 226T291 179Q349 179 379 206T434 276L517 235Q484 160 426 127T286 93Z" />
<glyph unicode="&#xa3;" horiz-adv-x="495" d="M78 483Q78 532 101 572T168 636T274 660Q330 660 378 635T465 553L394 493Q367 533 338 548T274 564Q234 564 206 539T177 469Q177 442 189 410T216 344T244 277T256 215Q256 171 240 134T198 71T145 37L144 96H469V0H68L47
62L87 88Q125 110 141 147T158 219Q158 254 146 283T118 341T90 404T78 483ZM387 248H43V338H387V248Z" />
<glyph unicode="&#xa4;" horiz-adv-x="600" d="M300 123Q245 123 198 150T123 225T94 330Q94 388 122 435T198 509T300 537Q358 537 404 510T478 435T506 330Q506 272 479 225T405 151T300 123ZM115 83L47 151L153 257L221 189L115 83ZM153 403L47 509L115 577L221
471L153 403ZM300 219Q348 219 379 250T410 330Q410 378 379 409T300 441Q252 441 221 410T190 330Q190 282 221 251T300 219ZM485 83L379 189L447 257L553 151L485 83ZM447 403L379 471L485 577L553 509L447 403Z" />
<glyph unicode="&#xa5;" horiz-adv-x="520" d="M210 0V108H39V198H210V262H39V352H165L13 650H110L260 345L410 650H507L355 352H482V262H310V198H482V108H310V0H210Z" />
<glyph unicode="&#xa6;" horiz-adv-x="264" d="M179 414H85V820H179V414ZM179 -120H85V286H179V-120Z" />
<glyph unicode="&#xa7;" horiz-adv-x="508" d="M250 454L237 400Q206 400 185 379T163 320Q163 302 172 283T209 247T287 216Q376 194 421 156T466 53Q466 1 439 -40T364 -105T256 -129Q187 -129 130 -96T38 19L117 66Q149 9 183 -14T266 -37Q310 -37 338 -14T366
44Q366 64 355 82T315 116T228 145Q134 167 99 209T63 304Q63 348 85 382T149 435T250 454ZM265 138L289 205Q324 205 346 228T369 289Q369 309 360 326T322 360T237 389Q143 411 105 457T67 562Q67 611 90 650T157 712T259 735Q331 735 379 709T463 631L383 577Q352
618 322 630T257 643Q217 643 192 623T166 567Q166 536 192 508T296 460Q355 445 393 422T451 367T470 290Q470 247 444 213T372 158T265 138Z" />
<glyph unicode="&#xa8;" horiz-adv-x="540" d="M110 631Q110 660 127 678T175 697Q204 697 222 679T240 631Q240 603 222 585T175 566Q145 566 128 584T110 631ZM300 631Q300 660 317 678T365 697Q394 697 412 679T430 631Q430 603 412 585T365 566Q335 566 318
584T300 631Z" />
<glyph unicode="&#xa9;" horiz-adv-x="670" d="M335 214Q277 214 226 236T137 297T77 386T55 494Q55 553 77 604T137 693T226 754T335 776Q392 776 443 754T532 694T593 604T615 494Q615 437 594 387T534 297T444 236T335 214ZM335 285Q392 285 438 312T512 387T540
494Q540 554 513 601T439 676T335 704Q278 704 232 677T157 602T129 494Q129 435 157 388T231 313T335 285ZM340 352Q282 352 243 390T203 492Q203 554 241 592T340 631Q380 631 411 615T462 563L400 529Q387 550 371 556T340 563Q312 563 296 544T279 492Q279
459 295 440T340 421Q355 421 371 427T400 455L462 421Q443 385 412 369T340 352Z" />
<glyph unicode="&#xaa;" horiz-adv-x="380" d="M172 302Q134 302 103 319T53 364T34 429Q34 468 53 496T105 539T175 555Q218 555 243 541T280 507T296 474T300 459L260 468V561Q260 584 243 602T189 620Q168 620 143 615T89 597L65 659Q101 675 131 683T204 691Q272
691 307 651T342 540V313H281L265 387L311 435Q311 402 292 372T242 322T172 302ZM188 373Q219 373 239 389T260 429Q260 452 240 468T188 485Q157 485 137 469T117 429Q117 405 137 389T188 373Z" />
<glyph unicode="&#xab;" horiz-adv-x="526" d="M184 91L43 289L185 488H287L147 288L287 91H184ZM385 91L244 289L386 488H488L348 288L488 91H385Z" />
<glyph unicode="&#xac;" horiz-adv-x="670" d="M563 90H473V350H563V90ZM563 260H108V350H563V260Z" />
<glyph unicode="&#xae;" horiz-adv-x="670" d="M282 436V499H335Q384 499 384 537Q384 575 335 575H278L301 599V362H234V638H331Q387 638 420 613T453 537Q453 488 420 462T331 436H282ZM448 362H376L314 472H388L448 362ZM335 776Q277 776 227 754T138 694T77
604T55 494Q55 437 76 387T136 297T226 236T335 214Q393 214 444 236T533 297T593 386T615 494Q615 553 593 604T533 693T443 754T335 776ZM335 285Q278 285 232 312T157 387T129 494Q129 554 157 601T231 676T335 704Q392 704 438 677T512 602T540 494Q540 435
513 388T439 313T335 285Z" />
<glyph unicode="&#xaf;" horiz-adv-x="540" d="M405 584H134V654H405V584Z" />
<glyph unicode="&#xb0;" horiz-adv-x="413" d="M206 346Q158 346 118 369T54 432T30 519Q30 568 54 607T118 670T206 693Q254 693 294 670T358 608T383 519Q383 470 359 431T295 369T206 346ZM206 429Q243 429 267 454T292 519Q292 559 268 583T206 608Q170 608
145 584T120 519Q120 479 145 454T206 429Z" />
<glyph unicode="&#xb1;" horiz-adv-x="670" d="M100 370V460H571V370H100ZM100 20V110H571V20H100ZM284 200V640H374V200H284Z" />
<glyph unicode="&#xb2;" horiz-adv-x="341" d="M306 657Q306 628 288 597T231 524L151 439L140 458H311V373H29V426L145 544Q179 579 199 605T219 654Q219 676 204 687T171 698Q152 698 134 689T94 651L26 697Q52 735 85 757T171 779Q208 779 238 764T287 721T306 657Z" />
<glyph unicode="&#xb3;" horiz-adv-x="325" d="M156 364Q112 364 76 382T19 435L74 491Q89 473 101 463T126 449T158 444Q181 444 198 455T216 488Q216 505 201 522T139 539Q129 539 117 539T96 537V605Q113 604 118 604T135 603Q164 603 181 618T199 658Q199
677 184 688T145 700Q125 700 105 688T67 652L13 708Q45 746 77 762T154 779Q211 779 247 750T284 674Q284 621 249 592T146 563L167 600Q206 600 238 587T289 550T308 497Q308 459 288 429T234 381T156 364Z" />
<glyph unicode="&#xb4;" horiz-adv-x="540" d="M226 557L176 609L328 749L379 698L226 557Z" />
<glyph unicode="&#xb5;" horiz-adv-x="551" d="M60 488H160V176Q160 124 183 106T239 88Q272 88 304 101T363 136T403 185V129H387V488H487V0H411L390 86L415 89Q389 58 357 36T290 2T218 -10Q163 -10 131 7T84 54T65 121T60 197V488ZM60 227L160 248V-190H60V227Z" />
<glyph unicode="&#xb6;" horiz-adv-x="680" d="M338 654V193H303Q236 193 181 226T93 317T60 446Q60 531 97 590T195 679T330 710H650V654L569 614H304L338 654ZM471 86V666H571V99Q571 24 546 -30T472 -113T348 -142Q310 -142 271 -129T197 -83T133 6L129 14L209
55Q244 -9 275 -29T346 -50Q398 -50 434 -16T471 86Z" />
<glyph unicode="&#xb7;" horiz-adv-x="269" d="M134 200Q113 200 95 211T66 240T55 279Q55 301 66 318T95 347T134 358Q156 358 174 347T203 319T214 279Q214 258 203 240T174 211T134 200Z" />
<glyph unicode="&#xb8;" horiz-adv-x="540" d="M266 -203Q233 -203 207 -195T161 -174L188 -126Q201 -134 219 -140T258 -147Q284 -147 296 -138T308 -115Q308 -103 297 -96T254 -88H206L225 0H287L274 -69L255 -38Q315 -38 342 -58T370 -114Q370 -156 343 -179T266
-203Z" />
<glyph unicode="&#xb9;" horiz-adv-x="232" d="M104 691L135 682Q126 656 93 641T9 625V711Q45 711 71 718T114 739T136 771H194V373H104V691Z" />
<glyph unicode="&#xba;" horiz-adv-x="451" d="M225 301Q168 301 125 325T58 394T34 495Q34 552 58 595T125 664T225 689Q282 689 325 664T393 596T417 495Q417 438 393 394T326 326T225 301ZM225 384Q270 384 296 415T323 495Q323 545 297 575T225 606Q180 606
154 576T128 495Q128 446 154 415T225 384Z" />
<glyph unicode="&#xbb;" horiz-adv-x="526" d="M38 91L178 288L38 488H140L282 289L141 91H38ZM239 91L379 288L239 488H341L483 289L342 91H239Z" />
<glyph unicode="&#xbc;" horiz-adv-x="818" d="M104 857L135 848Q126 822 93 807T9 791V877Q45 877 71 884T114 905T136 937H194V539H104V857ZM133 -42L73 0L567 700L630 662L133 -42ZM748 274V0H659V138L660 165L683 274H748ZM470 86V123L562 398H650L555 113L545
171H801V86H470Z" />
<glyph unicode="&#xbd;" horiz-adv-x="812" d="M104 857L135 848Q126 822 93 807T9 791V877Q45 877 71 884T114 905T136 937H194V539H104V857ZM133 -42L73 0L567 700L630 662L133 -42ZM777 284Q777 255 759 224T702 151L622 66L611 85H782V0H500V53L616 171Q650
206 670 232T690 281Q690 303 675 314T642 325Q623 325 605 316T565 278L497 324Q523 362 556 384T642 406Q679 406 709 391T758 348T777 284Z" />
<glyph unicode="&#xbe;" horiz-adv-x="911" d="M156 530Q112 530 76 548T19 601L74 657Q89 639 101 629T126 615T158 610Q181 610 198 621T216 654Q216 671 201 688T139 705Q129 705 117 705T96 703V771Q113 770 118 770T135 769Q164 769 181 784T199 824Q199
843 184 854T145 866Q125 866 105 854T67 818L13 874Q45 912 77 928T154 945Q211 945 247 916T284 840Q284 787 249 758T146 729L167 766Q206 766 238 753T289 716T308 663Q308 625 288 595T234 547T156 530ZM226 -42L166 0L660 700L723 662L226 -42ZM841 274V0H752V138L753
165L776 274H841ZM563 86V123L655 398H743L648 113L638 171H894V86H563Z" />
<glyph unicode="&#xbf;" horiz-adv-x="487" d="M304 335L356 249L290 208Q241 178 210 152T165 97T150 33Q150 -22 187 -55T276 -89Q302 -89 328 -82T380 -59T429 -18L442 -4L504 -71L493 -83Q453 -126 399 -156T269 -186Q206 -186 156 -157T77 -77T47 36Q47 75
61 115T112 197T222 284L304 335ZM278 539Q310 539 332 517T355 462Q355 430 333 407T278 384Q246 384 223 407T200 462Q200 494 223 516T278 539Z" />
<glyph unicode="&#xc0;" horiz-adv-x="662" d="M148 253H515V159H148V253ZM20 0L263 681H399L642 0H540L322 611H340L122 0H20ZM335 750L182 891L233 942L385 802L335 750Z" />
<glyph unicode="&#xc1;" horiz-adv-x="662" d="M148 253H515V159H148V253ZM20 0L263 681H399L642 0H540L322 611H340L122 0H20ZM321 750L271 802L423 942L474 891L321 750Z" />
<glyph unicode="&#xc2;" horiz-adv-x="662" d="M148 253H515V159H148V253ZM20 0L263 681H399L642 0H540L322 611H340L122 0H20ZM238 751L187 802L329 942L472 802L421 751L298 876L362 875L238 751Z" />
<glyph unicode="&#xc3;" horiz-adv-x="662" d="M148 253H515V159H148V253ZM20 0L263 681H399L642 0H540L322 611H340L122 0H20ZM396 768Q359 768 319 796Q302 808 291 813T268 819Q238 819 218 774L151 807Q171 849 198 872T264 895Q288 895 309 888T354 863Q366
855 376 850T397 844Q414 844 423 855T444 895L511 862Q495 819 468 794T396 768Z" />
<glyph unicode="&#xc4;" horiz-adv-x="662" d="M148 253H515V159H148V253ZM20 0L263 681H399L642 0H540L322 611H340L122 0H20ZM171 824Q171 853 188 871T236 890Q265 890 283 872T301 824Q301 796 283 778T236 759Q206 759 189 777T171 824ZM361 824Q361 853
378 871T426 890Q455 890 473 872T491 824Q491 796 473 778T426 759Q396 759 379 777T361 824Z" />
<glyph unicode="&#xc5;" horiz-adv-x="662" d="M148 253H515V159H148V253ZM20 0L263 681H399L642 0H540L322 611H340L122 0H20ZM331 752Q302 752 278 765T239 802T224 855Q224 885 238 909T277 946T331 960Q361 960 385 947T423 909T438 855Q438 826 424 803T385
766T331 752ZM330 817Q347 817 358 828T369 855Q369 872 358 883T330 894Q314 894 303 883T292 855Q292 839 303 828T330 817Z" />
<glyph unicode="&#xc6;" horiz-adv-x="833" d="M422 0L360 681H757V587H437L467 619L516 78L494 94H778V0H422ZM131 173V267H458V173H131ZM20 0L291 681H398L119 0H20ZM462 289V383H716V289H462Z" />
<glyph unicode="&#xc7;" horiz-adv-x="710" d="M374 -10Q271 -10 194 35T73 160T30 340Q30 416 56 480T128 591T237 664T374 690Q490 690 564 643T685 515L587 486Q541 549 489 571T374 594Q305 594 251 561T164 471T132 340Q132 267 164 210T250 119T374 86Q436
86 488 108T587 194L685 165Q638 85 564 38T374 -10ZM371 -203Q338 -203 312 -195T266 -174L293 -126Q306 -134 324 -140T363 -147Q389 -147 401 -138T413 -115Q413 -103 402 -96T359 -88H311L330 0H392L379 -69L360 -38Q420 -38 447 -58T475 -114Q475 -156 448
-179T371 -203Z" />
<glyph unicode="&#xc8;" horiz-adv-x="554" d="M165 295V389H440V295H165ZM162 587L185 619V79L157 95H499V0H85V681H499V587H162ZM296 750L143 891L194 942L346 802L296 750Z" />
<glyph unicode="&#xc9;" horiz-adv-x="554" d="M165 295V389H440V295H165ZM162 587L185 619V79L157 95H499V0H85V681H499V587H162ZM282 750L232 802L384 942L435 891L282 750Z" />
<glyph unicode="&#xca;" horiz-adv-x="554" d="M165 295V389H440V295H165ZM162 587L185 619V79L157 95H499V0H85V681H499V587H162ZM199 751L148 802L290 942L433 802L382 751L259 876L323 875L199 751Z" />
<glyph unicode="&#xcb;" horiz-adv-x="554" d="M165 295V389H440V295H165ZM162 587L185 619V79L157 95H499V0H85V681H499V587H162ZM132 824Q132 853 149 871T197 890Q226 890 244 872T262 824Q262 796 244 778T197 759Q167 759 150 777T132 824ZM322 824Q322 853
339 871T387 890Q416 890 434 872T452 824Q452 796 434 778T387 759Q357 759 340 777T322 824Z" />
<glyph unicode="&#xcc;" horiz-adv-x="270" d="M185 0H85V681H185V0ZM139 750L-14 891L37 942L189 802L139 750Z" />
<glyph unicode="&#xcd;" horiz-adv-x="270" d="M185 0H85V681H185V0ZM125 750L75 802L227 942L278 891L125 750Z" />
<glyph unicode="&#xce;" horiz-adv-x="270" d="M185 0H85V681H185V0ZM64 751L5 800L133 943L261 800L202 751L103 868H163L64 751Z" />
<glyph unicode="&#xcf;" horiz-adv-x="270" d="M185 0H85V681H185V0ZM207 759Q177 759 160 777T142 824Q142 853 159 871T207 890Q236 890 254 872T272 824Q272 796 254 778T207 759ZM63 759Q33 759 16 777T-2 824Q-2 853 15 871T63 890Q92 890 110 872T128 824Q128
796 110 778T63 759Z" />
<glyph unicode="&#xd0;" horiz-adv-x="721" d="M106 0V681H330Q428 681 505 640T626 523T670 339Q670 230 626 155T504 40T329 0H106ZM26 294V386H361V294H26ZM206 72L176 94H324Q391 94 445 120T533 201T566 339Q566 420 534 475T447 559T325 587H169L206 623V72Z" />
<glyph unicode="&#xd1;" horiz-adv-x="739" d="M569 0L129 571L185 587V0H85V681H170L595 130H554V681H654V0H569ZM437 768Q400 768 360 796Q343 808 332 813T309 819Q279 819 259 774L192 807Q212 849 239 872T305 895Q329 895 350 888T395 863Q407 855 417 850T438
844Q455 844 464 855T485 895L552 862Q536 819 509 794T437 768Z" />
<glyph unicode="&#xd2;" horiz-adv-x="765" d="M30 340Q30 416 56 480T131 591T243 664T384 690Q459 690 523 664T634 591T708 480T735 340Q735 265 709 201T635 90T523 16T384 -10Q308 -10 244 16T131 89T57 201T30 340ZM132 340Q132 267 165 210T255 119T384
86Q456 86 512 119T600 209T633 340Q633 414 601 471T512 561T384 594Q312 594 255 561T165 471T132 340ZM386 750L233 891L284 942L436 802L386 750Z" />
<glyph unicode="&#xd3;" horiz-adv-x="765" d="M30 340Q30 416 56 480T131 591T243 664T384 690Q459 690 523 664T634 591T708 480T735 340Q735 265 709 201T635 90T523 16T384 -10Q308 -10 244 16T131 89T57 201T30 340ZM132 340Q132 267 165 210T255 119T384
86Q456 86 512 119T600 209T633 340Q633 414 601 471T512 561T384 594Q312 594 255 561T165 471T132 340ZM372 750L322 802L474 942L525 891L372 750Z" />
<glyph unicode="&#xd4;" horiz-adv-x="765" d="M30 340Q30 416 56 480T131 591T243 664T384 690Q459 690 523 664T634 591T708 480T735 340Q735 265 709 201T635 90T523 16T384 -10Q308 -10 244 16T131 89T57 201T30 340ZM132 340Q132 267 165 210T255 119T384
86Q456 86 512 119T600 209T633 340Q633 414 601 471T512 561T384 594Q312 594 255 561T165 471T132 340ZM289 751L238 802L380 942L523 802L472 751L349 876L413 875L289 751Z" />
<glyph unicode="&#xd5;" horiz-adv-x="765" d="M30 340Q30 416 56 480T131 591T243 664T384 690Q459 690 523 664T634 591T708 480T735 340Q735 265 709 201T635 90T523 16T384 -10Q308 -10 244 16T131 89T57 201T30 340ZM132 340Q132 267 165 210T255 119T384
86Q456 86 512 119T600 209T633 340Q633 414 601 471T512 561T384 594Q312 594 255 561T165 471T132 340ZM447 768Q410 768 370 796Q353 808 342 813T319 819Q289 819 269 774L202 807Q222 849 249 872T315 895Q339 895 360 888T405 863Q417 855 427 850T448 844Q465
844 474 855T495 895L562 862Q546 819 519 794T447 768Z" />
<glyph unicode="&#xd6;" horiz-adv-x="765" d="M30 340Q30 416 56 480T131 591T243 664T384 690Q459 690 523 664T634 591T708 480T735 340Q735 265 709 201T635 90T523 16T384 -10Q308 -10 244 16T131 89T57 201T30 340ZM132 340Q132 267 165 210T255 119T384
86Q456 86 512 119T600 209T633 340Q633 414 601 471T512 561T384 594Q312 594 255 561T165 471T132 340ZM222 824Q222 853 239 871T287 890Q316 890 334 872T352 824Q352 796 334 778T287 759Q257 759 240 777T222 824ZM412 824Q412 853 429 871T477 890Q506 890
524 872T542 824Q542 796 524 778T477 759Q447 759 430 777T412 824Z" />
<glyph unicode="&#xd7;" horiz-adv-x="670" d="M552 185L491 124L119 496L180 557L552 185ZM119 185L491 557L552 496L180 124L119 185Z" />
<glyph unicode="&#xd8;" horiz-adv-x="765" d="M696 672L125 -43L55 8L628 724L696 672ZM30 340Q30 416 56 480T131 591T243 664T384 690Q459 690 523 664T634 591T708 480T735 340Q735 265 709 201T635 90T523 16T384 -10Q308 -10 244 16T131 89T57 201T30 340ZM132
340Q132 267 165 210T255 119T384 86Q456 86 512 119T600 209T633 340Q633 414 601 471T512 561T384 594Q312 594 255 561T165 471T132 340Z" />
<glyph unicode="&#xd9;" horiz-adv-x="688" d="M344 -10Q267 -10 208 20T114 109T80 256V681H180V271Q180 183 222 135T344 86Q424 86 466 134T508 271V681H608V256Q608 169 574 110T481 20T344 -10ZM348 750L195 891L246 942L398 802L348 750Z" />
<glyph unicode="&#xda;" horiz-adv-x="688" d="M344 -10Q267 -10 208 20T114 109T80 256V681H180V271Q180 183 222 135T344 86Q424 86 466 134T508 271V681H608V256Q608 169 574 110T481 20T344 -10ZM334 750L284 802L436 942L487 891L334 750Z" />
<glyph unicode="&#xdb;" horiz-adv-x="688" d="M344 -10Q267 -10 208 20T114 109T80 256V681H180V271Q180 183 222 135T344 86Q424 86 466 134T508 271V681H608V256Q608 169 574 110T481 20T344 -10ZM251 751L200 802L342 942L485 802L434 751L311 876L375 875L251 751Z" />
<glyph unicode="&#xdc;" horiz-adv-x="688" d="M344 -10Q267 -10 208 20T114 109T80 256V681H180V271Q180 183 222 135T344 86Q424 86 466 134T508 271V681H608V256Q608 169 574 110T481 20T344 -10ZM184 824Q184 853 201 871T249 890Q278 890 296 872T314 824Q314
796 296 778T249 759Q219 759 202 777T184 824ZM374 824Q374 853 391 871T439 890Q468 890 486 872T504 824Q504 796 486 778T439 759Q409 759 392 777T374 824Z" />
<glyph unicode="&#xdd;" horiz-adv-x="553" d="M307 288H243L441 681H553L311 223L326 309V0H226V309L240 223L0 681H111L307 288ZM266 750L216 802L368 942L419 891L266 750Z" />
<glyph unicode="&#xde;" horiz-adv-x="588" d="M85 0V681H185V0H85ZM167 110V204H308Q374 204 414 240T454 340Q454 408 414 442T308 476H166V570H325Q395 570 447 539T529 456T558 340Q558 276 529 224T448 141T325 110H167Z" />
<glyph unicode="&#xdf;" horiz-adv-x="551" d="M367 -15Q319 -15 273 8T195 85L267 141Q287 104 310 88T367 71Q395 71 412 85T429 124Q429 144 412 166T342 226Q302 255 280 284T257 348Q257 387 274 411T318 458Q336 474 350 490T364 528Q364 556 341 575T274
594Q225 594 195 562T164 468V0H64V468Q64 533 89 583T161 661T275 690Q334 690 377 668T444 609T468 529Q468 481 446 454T399 406Q382 392 370 378T358 346Q358 330 371 316T418 277Q470 241 495 204T521 122Q521 61 478 23T367 -15Z" />
<glyph unicode="&#xe0;" horiz-adv-x="492" d="M216 -14Q159 -14 118 6T56 63T34 153Q34 201 56 238T119 298T216 320Q286 320 328 289T388 202H332V327Q332 358 311 384T237 410Q209 410 176 404T106 381L76 458Q117 478 161 488T247 498Q310 498 351 475T412
414T432 327V0H360L335 89L388 104Q370 45 324 16T216 -14ZM234 75Q278 75 305 95T332 153Q332 191 305 211T234 231Q190 231 163 211T136 153Q136 116 163 96T234 75ZM503 557L350 698L401 749L553 609L503 557Z" />
<glyph unicode="&#xe1;" horiz-adv-x="492" d="M216 -14Q159 -14 118 6T56 63T34 153Q34 201 56 238T119 298T216 320Q286 320 328 289T388 202H332V327Q332 358 311 384T237 410Q209 410 176 404T106 381L76 458Q117 478 161 488T247 498Q310 498 351 475T412
414T432 327V0H360L335 89L388 104Q370 45 324 16T216 -14ZM234 75Q278 75 305 95T332 153Q332 191 305 211T234 231Q190 231 163 211T136 153Q136 116 163 96T234 75ZM233 557L183 609L335 749L386 698L233 557Z" />
<glyph unicode="&#xe2;" horiz-adv-x="492" d="M216 -14Q159 -14 118 6T56 63T34 153Q34 201 56 238T119 298T216 320Q286 320 328 289T388 202H332V327Q332 358 311 384T237 410Q209 410 176 404T106 381L76 458Q117 478 161 488T247 498Q310 498 351 475T412
414T432 327V0H360L335 89L388 104Q370 45 324 16T216 -14ZM234 75Q278 75 305 95T332 153Q332 191 305 211T234 231Q190 231 163 211T136 153Q136 116 163 96T234 75ZM406 558L355 609L497 749L640 609L589 558L466 683L530 682L406 558Z" />
<glyph unicode="&#xe3;" horiz-adv-x="492" d="M216 -14Q159 -14 118 6T56 63T34 153Q34 201 56 238T119 298T216 320Q286 320 328 289T388 202H332V327Q332 358 311 384T237 410Q209 410 176 404T106 381L76 458Q117 478 161 488T247 498Q310 498 351 475T412
414T432 327V0H360L335 89L388 104Q370 45 324 16T216 -14ZM234 75Q278 75 305 95T332 153Q332 191 305 211T234 231Q190 231 163 211T136 153Q136 116 163 96T234 75ZM564 575Q527 575 487 603Q470 615 459 620T436 626Q406 626 386 581L319 614Q339 656 366 679T432
702Q456 702 477 695T522 670Q534 662 544 657T565 651Q582 651 591 662T612 702L679 669Q663 626 636 601T564 575Z" />
<glyph unicode="&#xe4;" horiz-adv-x="492" d="M216 -14Q159 -14 118 6T56 63T34 153Q34 201 56 238T119 298T216 320Q286 320 328 289T388 202H332V327Q332 358 311 384T237 410Q209 410 176 404T106 381L76 458Q117 478 161 488T247 498Q310 498 351 475T412
414T432 327V0H360L335 89L388 104Q370 45 324 16T216 -14ZM234 75Q278 75 305 95T332 153Q332 191 305 211T234 231Q190 231 163 211T136 153Q136 116 163 96T234 75ZM339 631Q339 660 356 678T404 697Q433 697 451 679T469 631Q469 603 451 585T404 566Q374 566
357 584T339 631ZM529 631Q529 660 546 678T594 697Q623 697 641 679T659 631Q659 603 641 585T594 566Q564 566 547 584T529 631Z" />
<glyph unicode="&#xe5;" horiz-adv-x="492" d="M216 -14Q159 -14 118 6T56 63T34 153Q34 201 56 238T119 298T216 320Q286 320 328 289T388 202H332V327Q332 358 311 384T237 410Q209 410 176 404T106 381L76 458Q117 478 161 488T247 498Q310 498 351 475T412
414T432 327V0H360L335 89L388 104Q370 45 324 16T216 -14ZM234 75Q278 75 305 95T332 153Q332 191 305 211T234 231Q190 231 163 211T136 153Q136 116 163 96T234 75ZM499 559Q470 559 446 572T407 609T392 662Q392 692 406 716T445 753T499 767Q529 767 553 754T591
716T606 662Q606 633 592 610T553 573T499 559ZM498 624Q515 624 526 635T537 662Q537 679 526 690T498 701Q482 701 471 690T460 662Q460 646 471 635T498 624Z" />
<glyph unicode="&#xe6;" horiz-adv-x="769" d="M216 -14Q130 -14 82 30T34 153Q34 201 56 238T119 298T216 320Q280 320 318 289T373 202H327V327Q327 358 306 384T232 410Q204 410 171 404T101 381L71 458Q112 478 156 488T242 498Q303 498 343 475T402 414T422
327V89H330L393 104Q375 45 328 16T216 -14ZM234 75Q278 75 305 95T332 153Q332 191 305 211T234 231Q190 231 163 211T136 153Q136 116 163 96T234 75ZM546 -10Q478 -10 428 21T352 110T325 243Q325 320 351 377T426 466T537 498Q603 498 648 471T716 391T739
263Q739 250 739 238T737 215H415V291H665L637 273Q641 342 614 379T537 417Q485 417 454 381T423 274V222Q423 155 454 116T546 76Q590 76 617 97T661 163L736 116Q713 53 662 22T546 -10Z" />
<glyph unicode="&#xe7;" horiz-adv-x="509" d="M279 -10Q204 -10 149 22T64 112T34 244Q34 319 64 376T149 465T279 498Q350 498 408 460T492 357L397 317Q381 359 349 380T276 402Q216 402 176 361T136 244Q136 169 176 128T276 86Q317 86 349 107T397 171L492
131Q465 67 408 29T279 -10ZM270 -203Q237 -203 211 -195T165 -174L192 -126Q205 -134 223 -140T262 -147Q288 -147 300 -138T312 -115Q312 -103 301 -96T258 -88H210L229 0H291L278 -69L259 -38Q319 -38 346 -58T374 -114Q374 -156 347 -179T270 -203Z" />
<glyph unicode="&#xe8;" horiz-adv-x="543" d="M273 -10Q202 -10 148 21T64 110T34 243Q34 320 64 377T148 466T273 498Q345 498 399 466T483 377T513 243Q513 236 513 229T511 215H129V301H439L411 243Q411 319 377 368T273 417Q211 417 174 378T137 274V222Q137
155 173 116T273 76Q332 76 364 101T420 163L495 116Q461 53 408 22T273 -10ZM534 557L381 698L432 749L584 609L534 557Z" />
<glyph unicode="&#xe9;" horiz-adv-x="543" d="M273 -10Q202 -10 148 21T64 110T34 243Q34 320 64 377T148 466T273 498Q345 498 399 466T483 377T513 243Q513 236 513 229T511 215H129V301H439L411 243Q411 319 377 368T273 417Q211 417 174 378T137 274V222Q137
155 173 116T273 76Q332 76 364 101T420 163L495 116Q461 53 408 22T273 -10ZM264 557L214 609L366 749L417 698L264 557Z" />
<glyph unicode="&#xea;" horiz-adv-x="543" d="M273 -10Q202 -10 148 21T64 110T34 243Q34 320 64 377T148 466T273 498Q345 498 399 466T483 377T513 243Q513 236 513 229T511 215H129V301H439L411 243Q411 319 377 368T273 417Q211 417 174 378T137 274V222Q137
155 173 116T273 76Q332 76 364 101T420 163L495 116Q461 53 408 22T273 -10ZM181 558L130 609L272 749L415 609L364 558L241 683L305 682L181 558Z" />
<glyph unicode="&#xeb;" horiz-adv-x="543" d="M273 -10Q202 -10 148 21T64 110T34 243Q34 320 64 377T148 466T273 498Q345 498 399 466T483 377T513 243Q513 236 513 229T511 215H129V301H439L411 243Q411 319 377 368T273 417Q211 417 174 378T137 274V222Q137
155 173 116T273 76Q332 76 364 101T420 163L495 116Q461 53 408 22T273 -10ZM114 631Q114 660 131 678T179 697Q208 697 226 679T244 631Q244 603 226 585T179 566Q149 566 132 584T114 631ZM304 631Q304 660 321 678T369 697Q398 697 416 679T434 631Q434 603
416 585T369 566Q339 566 322 584T304 631Z" />
<glyph unicode="&#xec;" horiz-adv-x="232" d="M166 0H66V488H166V0ZM120 557L-33 698L18 749L170 609L120 557Z" />
<glyph unicode="&#xed;" horiz-adv-x="232" d="M166 0H66V488H166V0ZM362 557L312 609L464 749L515 698L362 557Z" />
<glyph unicode="&#xee;" horiz-adv-x="232" d="M166 0H66V488H166V0ZM45 558L-14 607L114 750L242 607L183 558L84 675H144L45 558Z" />
<glyph unicode="&#xef;" horiz-adv-x="232" d="M166 0H66V488H166V0ZM188 566Q158 566 141 584T123 631Q123 660 140 678T188 697Q217 697 235 679T253 631Q253 603 235 585T188 566ZM44 566Q14 566 -3 584T-21 631Q-21 660 -4 678T44 697Q73 697 91 679T109 631Q109
603 91 585T44 566Z" />
<glyph unicode="&#xf0;" horiz-adv-x="553" d="M274 -10Q206 -10 154 20T72 103T43 222Q43 293 72 345T150 425T259 454Q319 454 361 426T422 351H423Q413 410 376 465T273 563T111 629L146 710L171 703Q239 684 293 654T389 584T458 494T500 389T514 270Q514
182 485 119T401 23T274 -10ZM279 84Q337 84 375 123T413 222Q413 282 375 321T279 360Q221 360 183 321T145 222Q145 162 183 123T279 84ZM218 479L173 536L265 608L296 640L389 713L432 655L353 593L311 553L218 479Z" />
<glyph unicode="&#xf1;" horiz-adv-x="551" d="M343 498Q395 498 425 481T469 434T487 367T491 291V0H391V312Q391 364 368 382T312 400Q280 400 247 387T188 352T148 303V359H164V0H64V488H140L161 402L136 399Q164 431 197 453T267 486T343 498ZM342 575Q305
575 265 603Q248 615 237 620T214 626Q184 626 164 581L97 614Q117 656 144 679T210 702Q234 702 255 695T300 670Q312 662 322 657T343 651Q360 651 369 662T390 702L457 669Q441 626 414 601T342 575Z" />
<glyph unicode="&#xf2;" horiz-adv-x="569" d="M284 -10Q210 -10 154 21T66 110T35 243Q35 320 66 377T153 466T284 498Q359 498 415 466T502 377T534 243Q534 167 503 110T415 22T284 -10ZM284 86Q351 86 391 129T432 243Q432 314 392 358T284 402Q218 402 178
359T137 244Q137 173 177 130T284 86ZM544 557L391 698L442 749L594 609L544 557Z" />
<glyph unicode="&#xf3;" horiz-adv-x="569" d="M284 -10Q210 -10 154 21T66 110T35 243Q35 320 66 377T153 466T284 498Q359 498 415 466T502 377T534 243Q534 167 503 110T415 22T284 -10ZM284 86Q351 86 391 129T432 243Q432 314 392 358T284 402Q218 402 178
359T137 244Q137 173 177 130T284 86ZM274 557L224 609L376 749L427 698L274 557Z" />
<glyph unicode="&#xf4;" horiz-adv-x="569" d="M284 -10Q210 -10 154 21T66 110T35 243Q35 320 66 377T153 466T284 498Q359 498 415 466T502 377T534 243Q534 167 503 110T415 22T284 -10ZM284 86Q351 86 391 129T432 243Q432 314 392 358T284 402Q218 402 178
359T137 244Q137 173 177 130T284 86ZM191 558L140 609L282 749L425 609L374 558L251 683L315 682L191 558Z" />
<glyph unicode="&#xf5;" horiz-adv-x="569" d="M284 -10Q210 -10 154 21T66 110T35 243Q35 320 66 377T153 466T284 498Q359 498 415 466T502 377T534 243Q534 167 503 110T415 22T284 -10ZM284 86Q351 86 391 129T432 243Q432 314 392 358T284 402Q218 402 178
359T137 244Q137 173 177 130T284 86ZM349 575Q312 575 272 603Q255 615 244 620T221 626Q191 626 171 581L104 614Q124 656 151 679T217 702Q241 702 262 695T307 670Q319 662 329 657T350 651Q367 651 376 662T397 702L464 669Q448 626 421 601T349 575Z" />
<glyph unicode="&#xf6;" horiz-adv-x="569" d="M284 -10Q210 -10 154 21T66 110T35 243Q35 320 66 377T153 466T284 498Q359 498 415 466T502 377T534 243Q534 167 503 110T415 22T284 -10ZM284 86Q351 86 391 129T432 243Q432 314 392 358T284 402Q218 402 178
359T137 244Q137 173 177 130T284 86ZM124 631Q124 660 141 678T189 697Q218 697 236 679T254 631Q254 603 236 585T189 566Q159 566 142 584T124 631ZM314 631Q314 660 331 678T379 697Q408 697 426 679T444 631Q444 603 426 585T379 566Q349 566 332 584T314
631Z" />
<glyph unicode="&#xf7;" horiz-adv-x="670" d="M333 85Q302 85 281 107T260 158Q260 187 281 208T333 230Q364 230 385 209T406 158Q406 129 385 107T333 85ZM333 451Q302 451 281 473T260 524Q260 553 281 574T333 596Q364 596 385 575T406 524Q406 495 385 473T333
451ZM580 296H91V386H580V296Z" />
<glyph unicode="&#xf8;" horiz-adv-x="593" d="M296 -10Q222 -10 166 21T78 110T47 243Q47 320 78 377T165 466T296 498Q371 498 427 466T514 377T546 243Q546 167 515 110T427 22T296 -10ZM296 81Q365 81 407 125T449 243Q449 317 407 362T296 407Q228 407 186
363T144 244Q144 171 186 126T296 81ZM131 -28L67 18L463 529L525 482L131 -28Z" />
<glyph unicode="&#xf9;" horiz-adv-x="551" d="M218 -10Q163 -10 131 7T84 54T65 121T60 197V488H160V176Q160 124 183 106T239 88Q272 88 304 101T363 136T403 185V129H387V488H487V0H411L390 86L415 89Q389 58 357 36T290 2T218 -10ZM534 557L381 698L432 749L584
609L534 557Z" />
<glyph unicode="&#xfa;" horiz-adv-x="551" d="M218 -10Q163 -10 131 7T84 54T65 121T60 197V488H160V176Q160 124 183 106T239 88Q272 88 304 101T363 136T403 185V129H387V488H487V0H411L390 86L415 89Q389 58 357 36T290 2T218 -10ZM264 557L214 609L366 749L417
698L264 557Z" />
<glyph unicode="&#xfb;" horiz-adv-x="551" d="M218 -10Q163 -10 131 7T84 54T65 121T60 197V488H160V176Q160 124 183 106T239 88Q272 88 304 101T363 136T403 185V129H387V488H487V0H411L390 86L415 89Q389 58 357 36T290 2T218 -10ZM181 558L130 609L272 749L415
609L364 558L241 683L305 682L181 558Z" />
<glyph unicode="&#xfc;" horiz-adv-x="551" d="M218 -10Q163 -10 131 7T84 54T65 121T60 197V488H160V176Q160 124 183 106T239 88Q272 88 304 101T363 136T403 185V129H387V488H487V0H411L390 86L415 89Q389 58 357 36T290 2T218 -10ZM114 631Q114 660 131 678T179
697Q208 697 226 679T244 631Q244 603 226 585T179 566Q149 566 132 584T114 631ZM304 631Q304 660 321 678T369 697Q398 697 416 679T434 631Q434 603 416 585T369 566Q339 566 322 584T304 631Z" />
<glyph unicode="&#xfd;" horiz-adv-x="502" d="M208 62L15 488H120L291 111L208 62ZM80 -190L388 488H493L185 -190H80ZM244 557L194 609L346 749L397 698L244 557Z" />
<glyph unicode="&#xfe;" horiz-adv-x="570" d="M311 -10Q245 -10 196 21T120 110T92 243Q92 320 119 377T196 466T311 498Q379 498 429 466T508 377T536 243Q536 167 508 110T430 22T311 -10ZM64 -190V681H164V390H154V112H164V-190H64ZM296 76Q358 76 396 122T434
243Q434 319 396 365T296 412Q235 412 197 366T159 244Q159 168 197 122T296 76Z" />
<glyph unicode="&#xff;" horiz-adv-x="502" d="M208 62L15 488H120L291 111L208 62ZM80 -190L388 488H493L185 -190H80ZM350 631Q350 660 367 678T415 697Q444 697 462 679T480 631Q480 603 462 585T415 566Q385 566 368 584T350 631ZM540 631Q540 660 557 678T605
697Q634 697 652 679T670 631Q670 603 652 585T605 566Q575 566 558 584T540 631Z" />
<glyph unicode="&#x2013;" horiz-adv-x="568" d="M547 242H21V334H547V242Z" />
<glyph unicode="&#x2014;" horiz-adv-x="994" d="M975 242H19V334H975V242Z" />
<glyph unicode="&#x2018;" horiz-adv-x="183" d="M103 415Q82 415 64 426T33 459T21 507Q21 540 35 574T78 642T148 705L174 678Q146 646 130 611T113 543Q113 509 131 489T172 454Q163 432 142 424T103 415Z" />
<glyph unicode="&#x2019;" horiz-adv-x="183" d="M35 406L9 433Q37 465 53 501T70 568Q70 602 52 622T11 657Q20 679 41 687T80 696Q101 696 120 685T150 653T162 604Q162 555 130 503T35 406Z" />
<glyph unicode="&#x201a;" horiz-adv-x="183" d="M39 -169L13 -142Q41 -110 57 -74T74 -7Q74 27 56 47T15 82Q24 104 45 112T84 121Q105 121 124 110T154 78T166 29Q166 -20 134 -72T39 -169Z" />
<glyph unicode="&#x201c;" horiz-adv-x="382" d="M103 415Q82 415 64 426T33 459T21 507Q21 540 35 574T78 642T148 705L174 678Q146 646 130 611T113 543Q113 509 131 489T172 454Q163 432 142 424T103 415ZM302 415Q281 415 263 426T232 459T220 507Q220 540
234 574T277 642T347 705L373 678Q345 646 329 611T312 543Q312 509 330 489T371 454Q362 432 341 424T302 415Z" />
<glyph unicode="&#x201d;" horiz-adv-x="382" d="M35 406L9 433Q37 465 53 501T70 568Q70 602 52 622T11 657Q20 679 41 687T80 696Q101 696 120 685T150 653T162 604Q162 555 130 503T35 406ZM234 406L208 433Q236 465 252 501T269 568Q269 602 251 622T210 657Q219
679 240 687T279 696Q300 696 319 685T349 653T361 604Q361 555 329 503T234 406Z" />
<glyph unicode="&#x201e;" horiz-adv-x="382" d="M39 -168L13 -141Q41 -109 57 -73T74 -6Q74 28 56 48T15 83Q24 105 45 113T84 122Q105 122 124 111T154 79T166 30Q166 -19 134 -71T39 -168ZM238 -168L212 -141Q240 -109 256 -73T273 -6Q273 28 255 48T214 83Q223
105 244 113T283 122Q304 122 323 111T353 79T365 30Q365 -19 333 -71T238 -168Z" />
<glyph unicode="&#x2022;" horiz-adv-x="384" d="M192 155Q158 155 130 172T85 217T68 280Q68 314 85 342T130 388T192 405Q226 405 254 388T299 343T316 280Q316 246 299 218T254 172T192 155Z" />
<glyph unicode="&#x2039;" horiz-adv-x="325" d="M184 91L43 289L185 488H287L147 288L287 91H184Z" />
<glyph unicode="&#x203a;" horiz-adv-x="325" d="M38 91L178 288L38 488H140L282 289L141 91H38Z" />
</font>
</defs>
</svg>
