<?xml version="1.0" standalone="no"?>
<!DOCTYPE svg PUBLIC "-//W3C//DTD SVG 1.1//EN" "http://www.w3.org/Graphics/SVG/1.1/DTD/svg11.dtd">
<svg xmlns="http://www.w3.org/2000/svg">
<defs >
<font id="Italianno" horiz-adv-x="419" ><font-face
    font-family="Italianno"
    units-per-em="1000"
    panose-1="0 0 0 0 0 0 0 0 0 0"
    ascent="800"
    descent="-450"
    alphabetic="0" />
<glyph unicode=" " glyph-name="space" horiz-adv-x="169" />
<glyph unicode="!" glyph-name="exclam" horiz-adv-x="295" d="M168 127Q171 134 182 163T209 233T243 321T277 411T307 487Q312 500 317 516T326 540Q339 543 362 550T405 574H406Q409 574 412 566T413 556Q409 553 400 539T383 510T373 492Q343 434 314 375T259
266T216 181T195 138Q192 132 180 127T168 127ZM138 -6Q127 -6 117 1T101 16Q100 18 108 24T127 37T139 42Q147 38 155 34T172 30H176Q181 30 181 27Q181 24 174 17Q165 10 156 2T138 -6Z" />
<glyph unicode="&quot;" glyph-name="quotedbl" horiz-adv-x="168" d="M216 428Q207 428 212 439Q225 472 233 507T249 573Q249 579 259 587T284 601T308 610T316 608Q305 572 281 527T236 445Q227 428 216 428ZM111 428Q102 428 107 439Q120 472 128 507T144
573Q144 579 154 587T178 601T202 610T211 608Q199 572 175 527T131 445Q122 428 111 428Z" />
<glyph unicode="#" glyph-name="numbersign" horiz-adv-x="579" d="M74 40Q61 40 62 46Q70 66 91 105T140 194Q102 193 67 193T13 190Q10 190 16 199T33 218T48 226Q57 225 89 224T157 222Q171 245 185 268T215 314Q175 314 137 314T78 311Q75 311 81 320T97 338T112
347Q123 346 159 345T234 343Q268 394 300 436T354 500Q356 502 366 500T385 494T393 490Q371 469 341 430T277 342H320Q336 342 361 342T415 343Q449 394 481 436T535 500Q537 502 547 500T567 494T575 490Q553 469 523 430T459 343Q499 344 531 344T575 345Q578
345 572 336T556 318T540 309Q531 310 502 311T438 313Q423 291 408 268T379 223Q423 223 460 223T510 225Q513 225 507 216T491 198T475 189Q465 190 432 190T360 192Q331 146 307 107T269 45Q266 40 255 40Q251 40 247 41T244 46Q252 69 273 108T321 193Q299
194 281 194T253 194H179Q150 148 126 108T87 45Q84 40 74 40ZM197 222H339Q353 245 367 268T396 314Q371 314 350 314T318 315H258Q242 292 227 269T197 222Z" />
<glyph unicode="$" glyph-name="dollar" horiz-adv-x="313" d="M91 -49Q97 -29 107 0T130 64Q96 69 73 89T50 147Q50 170 58 191T89 225Q90 226 93 226Q97 226 98 224T98 219Q91 210 86 197Q82 185 82 171Q82 150 91 133Q107 101 139 88Q153 127 170 170T204 256Q188
275 176 299T164 348Q164 367 171 385T198 423Q215 440 237 450T283 461H285Q292 476 297 488T306 511Q308 516 319 519T329 518Q327 513 321 498T306 460Q328 458 343 448T359 409Q359 393 354 375T341 343Q337 335 328 331T321 337Q323 345 324 355T326 376Q326
391 322 402Q313 424 295 431Q285 404 273 371T248 302Q257 292 265 283T280 265Q307 229 307 192Q307 155 286 126T232 80T162 62Q141 3 130 -34Q130 -35 120 -39T101 -47T91 -49ZM230 322Q242 354 253 382T275 436Q250 438 228 420T205 373Q205 370 205 367T206
361Q208 352 214 343T230 322ZM168 81Q175 81 181 81T195 83Q219 88 239 110T259 164Q259 181 251 199T223 236Q209 196 195 156T168 81Z" />
<glyph unicode="%" glyph-name="percent" horiz-adv-x="632" d="M85 -34Q78 -34 73 -32T72 -25Q109 21 160 82T272 210T395 341T518 460T628 550Q590 544 555 542T487 539Q453 539 424 542T369 550Q391 543 391 518Q391 499 381 477T363 444Q354 428 335 404T293
356T243 314Q210 291 182 291Q157 291 148 305T138 339Q138 357 143 375T154 405Q159 416 165 427T179 449Q182 455 194 470T221 504T250 536T272 549Q277 549 283 547T288 538Q288 533 273 514T238 469T198 415Q196 411 187 395T169 360T161 324Q161 302 184 302Q194
302 205 308T224 321Q252 343 279 377T325 450T343 517Q343 534 336 547T310 567Q315 572 322 575T337 577Q368 568 401 565T469 562Q488 562 506 562T542 564Q584 566 635 575T722 595Q733 594 733 585Q733 573 719 557T690 538Q647 509 595 465T486 367T373 257T266
147T173 48T104 -28Q100 -34 85 -34ZM420 -10Q395 -10 386 4T376 38Q376 56 381 74T392 104Q397 115 403 126T417 148Q420 154 432 169T459 203T488 235T510 248Q515 248 521 246T527 237Q527 232 512 213T477 168T437 114Q434 110 425 94T408 59T399 23Q399 1
422 1Q432 1 443 7T462 20Q490 41 517 76T563 149T581 216Q581 233 574 246T549 266Q543 268 543 270Q543 276 549 276Q565 276 583 270T615 250T629 218Q629 199 621 180T601 142Q592 126 573 103T531 55T482 13Q466 3 450 -3T420 -10Z" />
<glyph unicode="&amp;" glyph-name="ampersand" horiz-adv-x="608" d="M652 -111Q623 -111 593 -91T529 -24Q516 -5 502 19T473 68Q457 52 440 38T399 8Q358 -18 320 -29T248 -41Q213 -41 185 -29T138 3Q111 33 111 73Q111 110 130 141T176 195Q217 231 266 256T361
309L362 310Q351 345 351 377Q351 386 352 395T355 414Q363 450 386 466T434 483Q457 483 473 470T490 434Q490 413 474 391T437 350T396 318Q404 299 418 269T449 206H583Q597 206 611 206T633 213Q635 215 637 214T637 209L619 182Q616 175 607 175Q604 175 600
175T590 176Q578 178 565 179T537 182Q533 164 524 143T504 105Q522 74 540 46T573 -3Q603 -41 629 -57T677 -73Q711 -73 738 -48T788 7Q791 11 794 11Q799 11 799 5Q799 -1 795 -5Q760 -54 725 -82T652 -111ZM392 329Q421 349 444 374T475 426Q476 429 476 432T476
437Q476 454 465 462T440 471Q424 471 408 459T384 417Q383 411 383 405T382 393Q382 374 385 357T392 329ZM287 8Q342 8 388 26Q409 34 428 50T464 85Q455 102 441 129T411 189Q391 188 365 182T321 162T304 122Q304 115 307 105T312 91L304 85Q297 98 286 117T273
145Q272 154 273 167T287 190Q300 201 323 204T371 208Q379 208 387 208T402 207Q393 229 384 252T365 298L356 292Q317 268 275 239T203 174Q190 158 181 135T171 89Q171 76 175 63T190 38Q207 22 232 15T287 8ZM493 124Q502 138 510 154T523 184Q507 186 491
187T458 189Q469 170 477 153T493 124Z" />
<glyph unicode="&apos;" glyph-name="quotesingle" horiz-adv-x="106" d="M111 428Q102 428 107 439Q120 472 128 507T144 573Q144 579 154 587T178 601T202 610T211 608Q199 572 175 527T131 445Q122 428 111 428Z" />
<glyph unicode="(" glyph-name="parenleft" horiz-adv-x="268" d="M163 -54Q112 -54 81 -19T49 83Q49 148 68 212T118 332Q154 395 212 452T342 554T484 624Q512 634 539 640T595 649Q600 650 603 642T602 633Q533 621 463 588T330 503T218 388T141 250T112 99Q112
73 121 42T151 -11T210 -29Q215 -28 219 -27T228 -25H229Q235 -25 235 -29Q235 -40 218 -45Q188 -54 163 -54Z" />
<glyph unicode=")" glyph-name="parenright" horiz-adv-x="507" d="M-35 -45Q-39 -46 -42 -38T-42 -29Q27 -18 97 15T230 100T343 215T420 353T449 505Q449 532 440 563T410 615T351 633Q346 632 342 631T332 629H331Q326 629 326 633Q326 637 330 642T343 649Q372
658 397 658Q449 658 480 622T511 517Q511 453 493 390T442 272Q407 209 348 152T219 50T76 -20Q49 -30 21 -36T-35 -45Z" />
<glyph unicode="*" glyph-name="asterisk" horiz-adv-x="507" d="M254 234H192L262 399L259 401L86 303L70 354L254 420V422L111 489L158 540L271 441L275 443L306 609H368L297 443L300 441L474 541L490 490L306 422L305 420L449 354L401 303L288 401L284 399L254 234Z" />
<glyph unicode="+" glyph-name="plus" horiz-adv-x="326" d="M170 41Q187 73 206 118T241 197Q206 197 163 197T86 193Q83 193 89 202T106 221T121 229Q133 227 156 226T206 225T252 225Q264 255 277 289T294 339Q296 344 310 350T338 359T350 359Q345 348 335
326T312 277T288 225Q317 225 349 225T409 227T448 228Q451 228 445 219T429 201T413 192Q403 193 379 194T327 196T276 197L275 193Q267 174 256 148T237 98T225 62Q224 57 210 51T182 41T170 41Z" />
<glyph unicode="," glyph-name="comma" horiz-adv-x="129" d="M36 -80Q37 -78 37 -76T44 -69Q61 -54 70 -35T80 -6Q80 5 74 14T55 27L59 38Q64 39 73 43T86 51Q91 54 95 58T101 63Q122 60 122 37Q122 33 122 30T120 21Q113 -16 95 -38T49 -80Q34 -90 36 -80Z" />
<glyph unicode="-" glyph-name="hyphen" horiz-adv-x="249" d="M220 144Q208 145 195 146T161 148Q138 148 119 148T76 145Q74 145 78 152T88 166T98 172Q109 170 126 170T163 168Q189 168 209 169T242 171Q244 171 240 164T230 151T220 144Z" />
<glyph unicode="." glyph-name="period" horiz-adv-x="149" d="M70 -6Q60 -6 50 1T33 16Q32 18 41 24T60 37T72 42Q80 38 88 34T105 30H109Q114 30 114 27Q114 24 107 17Q98 10 89 2T70 -6Z" />
<glyph unicode="/" glyph-name="slash" horiz-adv-x="377" d="M19 -32Q10 -32 4 -31T0 -25Q44 37 99 109T212 257T325 400T427 524T502 610Q504 612 513 612T533 613Q547 613 560 613T571 610Q549 587 508 540T414 430T307 301T199 171T106 56T43 -26Q41 -29 34
-30T19 -32Z" />
<glyph unicode="0" glyph-name="zero" horiz-adv-x="368" d="M153 -8Q104 -8 84 23T64 100Q64 145 79 195T120 290T173 361Q190 376 209 391T245 421Q259 432 281 437T319 442Q364 442 383 410T403 330Q403 287 390 238T353 146T300 75Q284 60 267 49T233 20Q217
5 193 -1T153 -8ZM194 26Q228 26 259 57T316 146Q333 186 343 226T354 300Q354 335 342 361T304 398Q289 404 274 404Q237 404 206 370T152 282Q135 243 125 204T115 129Q115 96 125 71T160 34Q175 26 194 26Z" />
<glyph unicode="1" glyph-name="one" horiz-adv-x="243" d="M125 6Q125 6 101 5T8 -2L17 11Q20 10 30 10Q47 10 71 17T107 44Q112 53 119 73T135 118T151 163T162 198L196 303Q210 349 210 363Q210 371 208 373T201 378Q196 381 183 373T156 354Q146 347 137 339T123
329Q126 340 127 344T131 356Q145 365 164 376T208 402Q220 410 243 424T283 449Q288 453 292 453Q295 453 295 449Q295 444 292 438Q273 401 257 356T221 246L206 197Q198 172 189 142T172 85T163 44Q161 28 175 21T206 12T230 10L219 -2Q214 0 197 1T160 4T125
6Z" />
<glyph unicode="2" glyph-name="two" horiz-adv-x="331" d="M21 -5Q44 15 87 53T181 141Q200 159 226 183T278 236T324 291T352 343Q356 354 356 366Q356 389 339 404T288 420Q272 420 254 416T223 404Q213 397 202 382T186 352Q184 345 181 330T178 312L157 301Q161
313 166 335T175 379T180 406Q180 414 186 419T198 426Q208 430 231 433T274 438L296 439Q343 441 369 429Q389 420 397 405T406 369Q406 350 400 332Q394 312 382 294T354 259Q325 228 281 192T191 120T111 59Q93 45 93 40Q93 38 96 38T104 36Q119 35 137 34T174
33Q205 33 233 36T276 48Q286 54 298 66T322 91T336 112L345 109Q344 107 336 96T320 69T305 42Q296 23 284 12T250 0Q234 0 208 1T158 3Q149 3 141 3T127 2Q127 2 101 1T21 -5Z" />
<glyph unicode="3" glyph-name="three" horiz-adv-x="314" d="M135 -9Q112 -9 85 -6T43 6Q39 8 35 13T35 26Q38 32 43 47T53 79T61 107L83 116Q81 113 77 99T70 77Q69 74 69 71T69 65Q69 37 82 26Q90 18 105 14T136 10Q179 10 209 28T259 75T288 133Q294 153 294
167Q294 197 274 210T223 227T162 231Q167 237 171 242T175 247Q182 249 185 249T193 250Q215 255 244 264T299 292T335 343Q339 354 339 366Q339 389 322 404T271 420Q255 420 237 416T207 404Q196 397 185 382T169 352Q167 345 164 330T161 312L140 301Q144 313
149 335T158 379T163 406Q163 414 169 419T181 426Q191 430 214 433T257 438L279 439Q326 441 352 429Q371 420 379 406T387 375Q387 368 386 362T383 350Q373 317 343 292T267 251Q253 247 253 244Q253 242 259 241T271 239Q294 237 312 228T339 199Q343 190 343
176Q343 157 336 134T318 92T299 61Q274 30 235 11T135 -9Z" />
<glyph unicode="4" glyph-name="four" horiz-adv-x="403" d="M237 6Q237 6 213 5T121 -2L130 11Q133 10 142 10Q159 10 183 17T219 44Q225 55 234 79T252 129H195Q195 129 155 128T61 123H54Q46 123 46 125Q46 128 57 135Q74 146 98 172T143 220L260 343Q289 374
305 395T333 420Q350 425 371 436T402 447Q410 447 405 438Q386 401 370 356T333 246L318 197Q313 181 307 164Q324 166 337 168T358 175Q369 181 383 193T408 218T423 238L433 235Q432 233 424 222T406 196T391 169Q381 150 369 139T334 127Q326 127 317 127T297
128Q290 102 284 79T275 44Q273 28 287 21T318 12T343 10L331 -2Q326 0 309 1T272 4T237 6ZM221 160Q232 160 242 160T262 161Q266 172 269 181T274 198L308 303Q316 325 320 343T325 372Q325 380 322 383Q314 378 296 360T253 316T205 265T160 216T128 181Q121
174 121 169Q121 165 133 163Q150 162 173 161T221 160Z" />
<glyph unicode="5" glyph-name="five" horiz-adv-x="331" d="M135 -9Q112 -9 85 -6T43 6Q39 8 35 13T35 26Q38 32 43 47T53 79T61 107L83 116Q81 113 77 99T70 77Q69 74 69 71T69 65Q69 37 82 26Q90 18 105 14T136 10Q175 10 205 27T257 72T287 130Q295 154 295
175Q295 200 282 216Q272 228 256 234T220 240Q198 240 173 237T126 225Q123 224 121 224T117 223Q115 223 115 224Q115 226 118 230T125 243Q136 265 146 289T164 333T176 361Q179 368 184 381T194 408T201 425Q205 435 213 435H419Q427 435 423 424T410 399T397
375Q397 375 393 366T384 344T374 322L360 325Q369 339 376 354T383 370Q388 378 388 384Q388 390 381 394T355 399Q346 399 323 399T275 399T240 397Q221 395 214 383Q205 366 192 338T166 284T148 247Q165 256 193 261T239 266Q350 266 350 189Q350 167 341 138Q319
65 263 28T135 -9Z" />
<glyph unicode="6" glyph-name="six" horiz-adv-x="336" d="M159 -4Q104 -4 83 25T62 96Q62 124 69 154T86 213Q107 270 142 323T228 411T344 446Q362 446 378 444T408 434Q412 433 415 429T415 418Q411 410 403 386T391 346L373 338Q375 341 379 353T385 372Q386
375 386 378T386 384Q386 406 376 416Q369 423 359 425T336 428Q301 428 268 407T208 355T167 292Q159 276 152 258T140 223Q156 235 172 243T201 259Q212 266 232 269T268 272Q317 272 338 246T359 183Q359 146 340 108T288 47Q274 38 260 31T230 13Q217 4 195
0T159 -4ZM194 22Q217 22 239 33Q276 53 291 89T307 158Q307 173 304 186Q299 212 281 228T235 244Q216 244 195 235Q152 216 132 172Q123 153 118 135T112 98Q112 73 124 54T164 26Q177 22 194 22Z" />
<glyph unicode="7" glyph-name="seven" horiz-adv-x="310" d="M109 0Q103 2 97 2T86 2Q72 2 62 1T50 2Q51 8 73 35T129 102T202 188T275 274T332 344T356 383V385Q356 395 339 397Q329 398 305 398T256 399T223 399Q195 399 184 392T167 374Q167 374 158 359T145
329L127 326Q132 335 138 346T149 366T154 375Q160 385 165 399T178 424T193 435Q196 435 219 435T275 435T342 434T401 433Q409 433 419 435T436 438T436 431Q422 415 393 381T328 304T254 213T184 123T132 48T109 0Z" />
<glyph unicode="8" glyph-name="eight" horiz-adv-x="351" d="M130 -9Q96 -9 68 6T40 55Q40 68 44 80Q54 112 76 137T127 181T182 216Q160 231 147 248T134 290Q134 298 136 307T141 327Q152 362 178 389T237 433T302 449Q337 449 359 435T381 388Q381 381 380
374T376 357Q368 333 348 311T304 271T256 239Q280 221 297 202T315 152Q315 137 309 117Q297 78 269 50T204 7T130 -9ZM242 249Q261 261 282 279T322 319T346 361Q350 372 350 384Q350 407 335 420T296 433Q261 433 233 411T194 352Q190 340 190 326Q190 299 206
281T242 249ZM133 10Q171 10 203 32T248 93Q251 102 252 110T253 125Q253 154 237 172T197 206Q162 184 131 155T87 88Q84 80 83 72T82 57Q82 36 94 23T133 10Z" />
<glyph unicode="9" glyph-name="nine" horiz-adv-x="336" d="M115 -4Q97 -4 81 -2T51 8Q48 10 45 14T45 25Q49 33 57 57T69 96L87 104Q85 102 81 90T75 70Q74 67 74 64T74 58Q74 37 84 27Q92 20 102 18T124 15Q160 15 192 36T251 88T293 151Q301 168 308 185T320
219Q304 208 288 200T259 184Q248 177 227 174T191 171Q142 171 121 197T100 259Q100 296 120 334T172 395Q186 405 200 412T229 429Q243 438 264 442T301 446Q356 446 377 418T398 347Q398 320 391 290T373 230Q358 188 334 147T278 71T205 17T115 -4ZM227 200Q259
200 286 220T328 270Q337 289 342 308T348 344Q348 369 336 388T296 416Q279 421 265 421Q236 421 210 403T167 350Q158 331 153 312T147 276Q147 251 160 231T203 203Q215 200 227 200Z" />
<glyph unicode=":" glyph-name="colon" horiz-adv-x="154" d="M167 246Q157 246 147 253T131 267Q130 269 139 275T158 288T169 294Q177 290 185 286T202 282H206Q211 282 211 279Q211 276 204 269Q195 262 186 254T167 246ZM95 -5Q84 -4 75 3T59 17Q58 19 66
25T85 38T97 44Q105 40 113 36T130 32H133Q139 32 139 29Q139 25 132 19Q123 11 113 3T95 -5Z" />
<glyph unicode=";" glyph-name="semicolon" horiz-adv-x="154" d="M181 246Q170 246 160 253T144 267Q143 269 152 275T171 288T183 294Q191 290 199 286T216 282H220Q225 282 225 279Q225 276 218 269Q209 262 199 254T181 246ZM51 -108Q46 -112 42 -114T37 -116L39
-108Q40 -106 40 -104T47 -97Q64 -83 76 -65T93 -24Q95 -12 88 -2T68 11L72 22Q77 23 86 27T99 35Q103 38 107 42T114 47Q125 46 130 39T135 20Q135 16 135 13T133 5Q125 -32 103 -60T51 -108Z" />
<glyph unicode="&lt;" glyph-name="less" horiz-adv-x="293" d="M237 52Q238 62 234 69T224 82Q199 117 161 149T88 200L93 217Q154 250 212 288T326 369Q326 357 320 346Q311 335 289 318T241 282T191 248T155 225Q149 221 153 217Q172 204 194 187T235 150Q239
146 249 136T267 114T276 92Q276 86 272 82Q271 80 258 69T243 52H237Z" />
<glyph unicode="=" glyph-name="equal" horiz-adv-x="344" d="M347 245Q328 247 295 248T231 250Q195 250 158 250T86 246Q83 246 89 255T106 273T121 282Q138 279 171 279T233 277Q274 277 317 278T382 281Q385 281 379 272T363 254T347 245ZM322 124Q303 126
270 127T206 129Q170 129 133 129T61 125Q58 125 64 134T81 153T96 161Q113 159 146 158T208 157Q249 157 292 158T357 160Q360 160 354 151T338 133T322 124Z" />
<glyph unicode="&gt;" glyph-name="greater" horiz-adv-x="293" d="M80 52Q80 57 73 68T63 82Q59 91 73 105T105 132T130 150Q156 169 186 186T240 217Q246 221 241 225Q232 232 216 247T180 281T147 317T128 346V350Q128 355 129 360T132 369Q170 327 212 289T300
217L298 200Q270 188 237 169T171 128T112 82Q105 76 97 69T86 52H80Z" />
<glyph unicode="?" glyph-name="question" horiz-adv-x="434" d="M180 115Q155 142 155 180Q155 206 172 231T210 272L376 404Q396 421 406 441T416 480Q416 499 407 515T378 539Q363 546 339 546Q318 546 297 540T259 523Q250 517 239 501T218 465T204 429Q204
420 194 415T184 420Q188 435 192 455T199 494T202 522Q202 533 210 540T224 550Q236 556 265 561T317 568L345 570Q353 571 359 571T373 571Q424 571 452 552T480 490Q480 485 480 479T478 465Q471 425 448 399T392 356T326 322T261 286T210 236Q197 215 189 196T181
160Q181 141 191 130L180 115ZM138 -6Q127 -6 117 1T101 16Q100 18 108 24T127 37T139 42Q147 38 155 34T172 30H176Q181 30 181 27Q181 24 174 17Q165 10 156 2T138 -6Z" />
<glyph unicode="@" glyph-name="at" horiz-adv-x="707" d="M313 -113Q267 -113 223 -103T142 -69T85 -7T64 86Q65 166 98 229T186 338T312 406T456 430Q508 430 558 420T647 387T708 329T727 243Q722 164 676 115T556 42T398 19Q374 19 374 39Q374 52 381 70T397
106T413 135Q396 116 378 99T339 65Q320 49 298 35T249 21Q239 21 235 27T231 42V50Q236 89 256 130T306 209T365 270Q382 282 401 289T440 296L555 295Q560 295 560 291Q560 283 551 283Q540 283 530 271T515 251Q508 239 494 214T464 159T437 103T426 61Q426
52 435 47T460 42Q486 42 521 54T590 93T647 158T670 251Q670 308 641 342T564 391T465 407Q400 407 339 383T227 316T148 215T117 86Q117 32 143 -9T213 -74T313 -98Q390 -98 458 -73T578 8Q589 19 597 19Q606 19 606 6Q606 0 602 -8T590 -24Q529 -79 464 -96T313
-113ZM290 54Q302 54 323 71T370 116T417 172T453 226T468 264Q468 275 461 279T444 283Q428 283 410 271T381 248Q369 237 353 214T320 162T292 108T281 66Q281 54 290 54Z" />
<glyph unicode="A" glyph-name="A" horiz-adv-x="768" d="M87 -25Q56 -25 37 -7T21 47Q22 60 27 74T40 103Q46 117 52 117Q57 117 53 109Q40 82 40 61Q40 39 55 28T96 17Q145 17 204 48T326 129T447 233Q408 235 374 237T314 239Q292 239 261 235T213 214Q206
207 201 194T195 166Q195 162 195 159T197 151Q193 153 183 154T169 167Q168 170 168 177Q168 193 180 203T209 222T240 236Q273 250 308 259T379 268Q420 268 481 265Q528 311 568 352T633 420Q668 457 707 483T788 521H733Q698 521 657 518T580 505T520 475Q505
462 498 446T490 415Q490 396 501 389Q502 389 502 389T502 388Q502 385 495 382T485 380Q475 387 468 408T462 443Q467 474 489 493T545 524T616 539T688 544T747 545H856Q858 545 857 544Q882 555 909 566T957 577Q962 577 967 574T973 568Q973 563 953 563Q943
563 933 560T905 538Q891 524 870 493T824 421T774 333T726 241T686 158Q684 152 675 131T658 84T650 38Q650 11 669 11Q678 11 687 15Q700 20 714 30T741 53Q767 78 785 101T807 130Q810 135 814 135Q818 135 818 130Q818 127 815 122Q808 112 789 88T745 38T690
0Q681 -4 671 -6T651 -9Q631 -9 615 5T598 51Q598 80 609 113T631 168Q651 211 678 264T735 370T790 466T831 530Q815 530 788 518T731 485T674 437Q643 405 603 359T515 263Q538 262 561 262T607 261Q623 261 642 264T679 276Q679 276 674 266T656 245T622 232Q603
231 584 231T546 230Q530 230 515 230T484 231Q438 183 388 138T287 55T186 -3T87 -25Z" />
<glyph unicode="B" glyph-name="B" horiz-adv-x="562" d="M11 -19Q4 -19 0 -16T0 -10Q22 -6 38 6T64 38Q85 73 105 108T144 180L240 357Q263 398 280 436T308 491Q315 504 332 514T367 531Q361 531 355 531T342 532Q311 532 275 529T204 518T143 499T108 470Q104
461 101 452T98 434Q98 411 114 401Q115 401 115 399Q115 397 112 395T105 394Q96 399 83 418T67 451Q64 463 64 473Q64 499 81 513T124 534T177 542T226 544Q258 544 302 544T383 545Q392 545 403 545T426 546Q453 546 482 543T535 530T572 499Q585 477 585 451Q585
426 575 401T551 358Q542 347 530 336T503 315Q488 305 471 297T429 283Q428 283 428 280T429 277Q434 276 446 275T469 271Q504 264 527 242T551 181Q551 138 529 102T471 41T398 1Q350 -17 288 -17Q251 -17 211 -10T138 14Q131 18 124 20T109 23Q95 23 79 15Q69
11 53 0T17 -18Q15 -19 11 -19ZM256 -3Q282 -3 308 2T355 16Q392 30 423 55T473 116T493 196Q493 225 478 240T440 262T392 268Q373 268 356 266T325 261Q297 256 275 250Q271 252 276 257T289 270T303 281Q305 283 311 287T322 292Q371 292 409 298T476 327T522
401Q531 427 531 452Q531 481 517 502T472 528Q468 529 463 529T453 529Q434 529 412 524T378 505Q353 472 330 431T286 347T246 267Q223 222 199 176T152 83Q146 71 146 60Q146 40 171 21Q188 8 210 3T256 -3Z" />
<glyph unicode="C" glyph-name="C" horiz-adv-x="527" d="M248 -29Q195 -29 147 -14T68 38T38 135Q38 200 63 262T130 377T224 470Q270 505 330 527T451 549Q476 549 498 546T543 531Q563 522 575 509T587 478Q587 476 587 473T586 468Q582 452 568 432T545 389Q544
385 534 383T526 384Q534 397 538 416T543 454Q543 468 541 480T532 502Q522 520 501 527T456 534Q433 534 410 529T370 518Q312 497 259 452Q212 411 176 357T118 246T97 137Q97 84 120 53T180 9T260 -4Q298 -4 335 4T404 24Q457 44 499 73T579 148Q584 153 586
153Q589 153 589 149Q589 141 581 130Q547 84 504 53T412 2Q379 -11 336 -20T248 -29Z" />
<glyph unicode="D" glyph-name="D" horiz-adv-x="626" d="M10 -19Q8 -19 3 -18T-2 -13Q-2 -12 -1 -11T0 -10Q7 -8 7 -8T6 -8T13 -7Q30 -1 42 10T64 38Q111 116 154 196T240 357Q252 378 263 400T285 444Q290 456 295 468T308 491Q316 505 333 515T367 531H343Q323
531 289 529T216 520T149 502T108 470Q98 452 98 435Q98 415 107 408T116 399Q116 397 113 395T108 393Q102 393 93 405T77 431T67 451Q64 462 64 473Q64 500 82 514T128 535T182 542T228 544Q278 544 328 546T427 549Q474 549 519 543T602 517T661 463T684 371Q684
319 665 265T616 167Q494 -16 274 -16Q240 -16 205 -9T138 14Q131 18 124 20T108 23Q91 23 74 13T41 -8T10 -19ZM262 -2Q337 -2 402 27T516 108T593 229Q606 261 614 296T623 365Q623 443 576 485T451 528Q432 528 412 524T378 505Q365 489 354 470T331 433Q308
393 288 351T246 267Q213 204 181 140Q174 126 167 112T152 83Q150 78 148 73T146 60Q146 47 154 38T171 21Q190 7 215 3T262 -2Z" />
<glyph unicode="E" glyph-name="E" horiz-adv-x="478" d="M234 -12Q202 -12 169 -11T104 -5Q33 1 33 41Q33 61 49 89Q87 158 127 226T206 364Q218 386 237 419T275 482Q284 496 301 510T336 529Q315 528 283 526T217 519T157 502T119 470Q115 461 112 452T109
434Q109 411 125 401Q126 401 126 399Q126 397 123 395T116 394Q107 399 94 418T78 451Q75 463 75 473Q75 499 92 513T135 534T188 542T236 544Q289 544 342 545T447 547Q470 547 492 547T537 545Q562 544 571 535T581 513Q581 497 571 477T551 439Q547 431 538
428T531 433Q536 453 536 473Q536 491 530 505T505 526Q488 531 452 531Q439 531 426 531T398 529Q358 526 344 508Q311 462 281 409T222 307Q221 305 221 302Q221 296 230 296Q265 296 305 295T377 295Q384 296 398 297T428 301T452 308Q457 311 458 311Q464 311
459 300T441 277T412 265Q363 265 330 267T255 269Q245 269 234 269T210 268Q200 267 196 260Q186 242 179 227T160 192Q152 177 141 154T120 106T111 63Q111 32 140 21T211 8Q269 8 325 19T431 58T518 133Q520 135 521 135Q524 135 525 130T524 121Q493 83 464
48T406 3Q385 -3 338 -7T234 -12Z" />
<glyph unicode="F" glyph-name="F" horiz-adv-x="582" d="M141 -38Q110 -38 82 -21T40 33Q35 46 34 61T32 90V103Q32 110 33 116T41 122Q43 122 43 120Q43 114 43 108T42 96Q42 49 65 25T124 0Q159 0 192 20T253 72Q269 89 289 123T332 201T378 291T422 381T460
458Q476 489 503 507T549 532Q542 532 520 531T472 529T432 527Q394 525 355 518T286 499T243 468Q234 455 234 438Q234 404 264 389Q266 387 266 387Q266 384 261 382T251 380Q243 385 232 396T211 421T198 443Q193 458 193 467Q193 491 211 506T258 530T320 542T384
547T437 548Q488 548 528 548T603 549Q638 549 670 548T739 545Q765 544 774 535T784 513Q784 496 773 476T753 439Q749 431 740 428T733 433Q735 442 737 452T739 473Q739 491 732 505T708 526Q698 530 684 531T654 533Q624 533 594 527T547 508Q526 492 505 456T464
379T430 307Q429 305 429 301Q429 296 438 296Q452 296 477 296T531 296T579 295Q601 295 614 293T627 279Q627 275 622 263Q615 247 607 236T593 212Q592 208 584 205T578 206Q582 215 586 228T591 252Q591 268 577 268H421Q412 268 407 260Q378 202 345 136T267
23Q242 -4 209 -21T141 -38Z" />
<glyph unicode="G" glyph-name="G" horiz-adv-x="576" d="M178 -348Q140 -348 100 -332T42 -279Q35 -266 34 -252T32 -223V-212Q32 -204 34 -198T44 -191Q46 -191 46 -193Q46 -199 45 -205T44 -218Q44 -264 73 -288T147 -312Q210 -312 263 -281T359 -196Q401 -144
427 -95T474 6T515 111Q489 72 443 40T344 -12T240 -32Q187 -32 141 -14T66 42T38 135Q38 200 63 262T130 377T224 470Q270 505 330 527T451 549Q476 549 498 546T543 531Q563 522 575 509T587 478Q587 476 587 473T586 468Q582 452 568 432T545 389Q544 385 534
383T526 384Q534 397 538 416T543 454Q543 468 541 480T532 502Q522 520 501 527T456 534Q433 534 410 529T370 518Q312 497 259 452Q212 411 176 357T118 246T97 137Q97 84 117 51T172 3T245 -13Q326 -13 387 24T492 123T558 254H455Q443 254 422 253T379 246T342
228T327 195Q327 188 329 181T332 169L323 163Q316 176 307 190T296 214Q295 222 297 235T310 258Q322 269 344 272T391 276Q413 276 433 275T465 273H655L644 261Q630 261 613 257T585 238Q563 210 552 175T528 101Q508 30 489 -38T439 -168T347 -282Q315 -309
267 -328T178 -348Z" />
<glyph unicode="H" glyph-name="H" horiz-adv-x="770" d="M114 -20Q83 -20 55 -2T13 51Q8 64 7 79T5 108V121Q5 128 6 134T14 140Q16 140 16 138Q16 132 16 126T15 114Q15 67 38 43T97 19Q132 19 165 39T226 90Q249 115 271 155T318 241Q286 240 251 239T187 232Q178
231 182 237T197 252T220 268T241 276Q258 275 283 275T334 273Q356 313 376 354T415 432Q425 452 441 472T478 509T521 529Q468 527 412 526T304 511Q281 505 263 495T237 470Q229 455 229 437Q229 412 243 401Q244 400 244 399Q244 397 241 395T234 394Q225 399
212 418T196 451Q193 463 193 473Q193 499 210 513T253 534T306 542T354 544H465Q503 544 531 544T576 548Q578 548 579 548T581 549Q587 549 587 545Q587 541 584 538T578 534Q547 531 520 507T471 445Q465 434 449 404T414 338T379 271Q398 270 410 270T425 269H572Q581
269 605 272T643 281Q670 333 698 384T750 475T789 534Q806 541 827 551T870 569T909 577Q914 577 919 574T925 568Q925 563 905 563Q895 563 884 560T856 538Q842 524 820 491T771 413T719 319T669 224T630 140T609 82Q608 75 607 67T605 50Q605 34 613 22T643
10Q659 10 675 16T705 29Q741 49 770 83T817 142Q820 146 821 146Q824 146 824 139Q824 133 821 128Q802 101 771 66T699 7Q667 -10 626 -10Q595 -10 573 12T550 67Q550 83 556 99Q565 122 585 165T632 260Q622 251 609 244T584 238Q553 241 514 241T412 242H364Q336
185 306 131T244 41Q219 14 184 -3T114 -20Z" />
<glyph unicode="I" glyph-name="I" horiz-adv-x="365" d="M120 -10Q89 -10 61 7T19 61Q14 74 12 88T10 117Q10 131 15 131Q21 131 21 123Q21 76 44 52T103 28Q138 28 171 48T232 99Q277 149 309 200T367 306T421 420Q435 450 455 476T501 519H471Q456 519 430
517T376 508T331 485T315 442Q316 434 321 421T327 404L317 396Q311 407 302 421T286 450T277 471Q276 481 278 497T294 525Q309 538 335 542T390 546Q417 546 442 544T483 542L643 543L630 528Q620 528 602 527T563 521Q539 517 508 495T455 435L446 420Q431 386
412 339T370 240T318 140T256 55Q231 28 193 9T120 -10Z" />
<glyph unicode="J" glyph-name="J" horiz-adv-x="203" d="M-113 -167Q-144 -167 -172 -149T-214 -95Q-219 -82 -220 -68T-222 -39Q-222 -25 -217 -25Q-212 -25 -212 -33Q-212 -80 -189 -104T-129 -128Q-94 -128 -62 -108T-1 -57Q46 -6 84 59T154 195Q162 212 177
249T210 331T245 412Q260 446 270 466T299 500T353 528Q337 527 323 526T301 524Q263 523 225 519T157 505T114 475Q105 462 105 445Q105 428 114 412T137 389Q139 387 139 386Q139 384 135 382T125 380Q117 385 105 396T84 421T71 443Q67 455 67 467Q67 491 84
506T130 529T190 540T253 544T306 545H414Q416 545 416 544Q416 541 410 536T401 530Q373 529 352 509T315 464T289 417Q283 405 271 379T244 319T215 252T189 195Q163 135 141 84T91 -13T24 -101Q-1 -128 -39 -147T-113 -167Z" />
<glyph unicode="K" glyph-name="K" horiz-adv-x="560" d="M6 -21Q2 -21 0 -19T-1 -16Q22 2 37 20T69 66L83 90Q103 124 128 168T178 257T225 340T260 401T273 425Q300 472 332 496T390 528Q317 527 260 517T183 470Q179 463 178 455T176 438Q176 412 190 401Q191
400 191 399Q191 397 188 395T181 394Q172 399 159 418T143 451Q140 463 140 473Q140 500 159 515T205 536T262 543T310 544H350Q370 544 393 544T433 548H437Q443 548 446 544T449 536Q449 528 442 528Q438 528 436 528T429 529Q383 529 337 449Q337 449 327 432T301
387T268 330T238 276Q211 226 181 168T118 46Q111 34 106 19T91 3Q87 3 81 4T68 5Q51 5 38 -1T10 -20Q9 -21 6 -21ZM442 -11Q417 -11 391 5T338 57Q306 100 284 140T249 211T228 254Q284 306 343 347T462 425Q502 449 548 478T641 528Q674 542 705 542Q719 542
733 540T760 532Q770 529 783 520T794 498Q794 494 790 494Q785 494 781 500T769 512T744 518Q722 518 696 509T649 492Q609 475 565 455T482 413Q447 394 408 369T333 319T267 272Q273 257 287 227T324 160T378 84Q401 56 423 44T466 31Q493 31 516 46T561 86T602
135Q607 141 609 141Q613 141 613 136Q613 130 608 124Q564 63 524 26T442 -11Z" />
<glyph unicode="L" glyph-name="L" horiz-adv-x="547" d="M8 -7Q7 -8 6 -8Q3 -8 3 1Q3 7 6 13T20 21Q48 23 73 40T117 80T144 125L236 355Q255 402 279 446T342 518T440 546Q463 546 486 541T526 523T542 489Q542 486 542 483T541 477Q538 461 524 445T501 405Q500
398 492 398Q485 398 489 407Q497 419 501 435T506 469Q506 495 494 515T453 535Q427 535 400 520T353 468L168 127Q142 79 121 59T85 33H326Q374 33 415 36T465 51Q475 65 475 81Q475 106 448 118Q445 120 445 122Q445 124 447 126T454 126Q463 122 475 109T499
80T513 55Q516 46 516 37Q516 -4 445 -4Q389 -4 325 0T199 9T81 16Q60 18 40 11T8 -7Z" />
<glyph unicode="M" glyph-name="M" horiz-adv-x="830" d="M116 -10Q85 -10 57 7T15 61Q10 74 8 88T6 117Q6 131 11 131Q17 131 17 123Q17 76 40 52T99 28Q134 28 166 48T227 99Q273 149 305 200T363 306T417 420Q434 456 459 483T521 520L522 521H467Q432 521
393 518T323 505T277 475Q268 462 268 445Q268 428 277 412T300 389Q302 387 302 386Q302 384 298 382T288 380Q280 385 268 396T247 421T234 443Q230 455 230 467Q230 491 247 506T293 529T353 540T416 544T469 545H577Q579 545 579 544Q579 541 573 536T564 530Q539
525 527 504T516 435Q516 435 516 413T518 356T520 281T522 204T524 142V136L871 502Q904 537 936 561T1004 583Q1005 583 1005 583T1006 582Q1006 579 1002 575T993 570Q967 571 946 550T907 500Q898 485 880 453T840 376T794 283T752 187T720 102T708 39Q708
11 727 11Q735 11 744 15Q757 20 773 30T802 53Q828 78 848 104T872 135Q875 139 877 139Q881 139 881 133Q881 127 877 122Q869 112 850 88T806 38T751 0Q742 -4 732 -6T712 -9Q690 -9 673 4T655 50Q655 81 669 120T702 197T733 261Q746 288 766 330T812 415L524
111Q523 103 517 96T498 83Q491 80 479 67T463 49Q463 48 460 48Q457 48 454 50T452 53Q478 86 479 144L480 168Q482 210 483 256T484 343T485 409T485 435Q485 459 492 477T509 508Q492 495 476 477T449 437Q434 406 415 357T372 253T318 146T252 55Q227 28 189
9T116 -10Z" />
<glyph unicode="N" glyph-name="N" horiz-adv-x="721" d="M577 -30Q574 -30 572 -28T570 -25Q577 -16 581 -6T590 16Q577 86 556 162T510 314T463 460Q456 455 449 436T438 408Q425 374 408 329T369 235T321 140T262 55Q247 36 221 22T167 -1T116 -10Q85 -10 57
7T14 61Q10 74 8 88T6 117Q6 131 11 131Q16 131 16 123Q16 76 42 45T104 14Q139 14 174 31T237 78Q282 128 313 184T368 300T417 420Q432 458 459 486T522 521H467Q432 521 393 518T322 505T276 475Q268 463 268 446Q268 428 277 412T300 389Q302 387 302 387Q302
384 298 382T288 380Q280 385 268 396T247 421T234 443Q230 455 230 467Q230 491 247 506T293 529T353 540T416 544T468 545H589Q594 546 590 538T579 523T568 515Q558 516 538 512T509 501Q512 463 523 412T551 305T586 192T625 86Q641 124 661 179T703 296T750
416T799 521T848 589Q860 600 877 606T909 613Q923 613 933 607T942 586L941 550Q941 549 936 548T932 548Q933 561 922 566T904 572Q883 573 860 546T811 475T762 379T717 274T678 177T650 108Q640 87 640 67Q640 64 640 61T641 55Q641 51 642 46T645 36Q645 35
645 34T646 31Q646 23 638 17Q628 10 616 5Q609 2 597 -10T581 -28Q579 -30 577 -30Z" />
<glyph unicode="O" glyph-name="O" horiz-adv-x="594" d="M232 -12Q192 -12 152 -6T80 18T27 66T7 146Q7 187 23 240T73 348T155 450T270 525T418 554Q538 554 593 516T648 396Q648 317 616 244T526 113T393 22T232 -12ZM224 3Q285 3 340 26T441 90T520 183T572
292T591 405Q591 467 552 503T420 539Q367 539 315 513T217 442T136 345T80 238T60 137Q60 74 97 39T224 3Z" />
<glyph unicode="P" glyph-name="P" horiz-adv-x="541" d="M14 -19Q7 -19 3 -16T3 -10Q25 -6 41 6T67 38Q88 73 108 108T148 180Q171 224 195 268T243 357Q266 398 284 436T311 491Q318 504 335 514T370 531Q364 531 358 531T345 532Q314 532 278 529T207 518T146
499T111 470Q107 461 104 452T101 434Q101 411 117 401Q118 401 118 399Q118 397 115 395T109 394Q99 399 87 418T70 451Q67 463 67 473Q67 499 84 513T127 534T180 542T229 544Q261 544 305 544T386 545Q395 545 406 545T429 546Q456 546 485 543T538 530T575
499Q595 468 595 433Q595 394 573 360T516 299T447 259Q414 246 374 241T301 236Q291 236 282 236T265 238Q263 238 263 240Q263 244 271 251T284 258Q292 257 300 257T317 257Q355 257 398 267T477 305T533 389Q538 401 539 413T541 438Q541 472 524 498T475 528Q471
529 466 529T456 529Q437 529 415 524T381 505Q356 472 333 431T289 347T249 267Q244 257 230 232T199 174T167 109T144 52T139 18Q140 17 140 15Q140 12 137 12Q129 12 121 16T102 20Q92 20 82 15Q72 11 56 0T20 -18Q18 -19 14 -19Z" />
<glyph unicode="Q" glyph-name="Q" horiz-adv-x="599" d="M494 -269Q470 -269 449 -259T413 -225Q397 -199 378 -167T339 -103T306 -45T285 -9Q260 -12 232 -12Q192 -12 152 -6T80 18T27 66T7 146Q7 187 23 240T73 348T155 450T270 525T418 554Q538 554 593 516T648
396Q648 329 624 265T557 148T455 56T328 0Q335 -15 350 -40T385 -94T423 -150T458 -199Q473 -220 492 -228T530 -237Q559 -237 586 -224T633 -196T661 -172Q664 -169 666 -169Q669 -169 670 -172T669 -180Q655 -196 627 -217T563 -253T494 -269ZM224 3Q285 3 340
26T441 90T520 183T572 292T591 405Q591 467 552 503T420 539Q367 539 315 513T217 442T136 345T80 238T60 137Q60 74 97 39T224 3Z" />
<glyph unicode="R" glyph-name="R" horiz-adv-x="602" d="M472 -23Q447 -23 422 -8T370 42Q338 86 316 126T281 196T260 239Q260 239 265 245T277 258T290 265Q337 265 374 266T441 278T494 315T533 389Q538 401 539 413T541 438Q541 472 524 498T475 528Q471
529 466 529T456 529Q437 529 415 524T381 505Q356 472 333 431T289 347T249 267Q244 257 230 232T199 174T167 109T144 52T139 18Q140 17 140 15Q140 12 137 12Q129 12 121 16T102 20Q92 20 82 15Q72 11 56 0T20 -18Q18 -19 14 -19Q7 -19 3 -16T3 -10Q25 -6 41
6T67 38Q88 73 108 108T148 180Q171 224 195 268T243 357Q266 398 284 436T311 491Q318 504 335 514T370 531Q364 531 358 531T345 532Q314 532 278 529T207 518T146 499T111 470Q107 461 104 452T101 434Q101 411 117 401Q118 401 118 399Q118 397 115 395T109
394Q99 399 87 418T70 451Q67 463 67 473Q67 499 84 513T127 534T180 542T229 544Q261 544 305 544T386 545Q395 545 406 545T429 546Q456 546 485 543T538 530T575 499Q592 471 592 435Q592 380 563 343Q553 330 541 318T513 295Q487 277 451 265T377 246T306
238Q319 210 345 163T410 69Q430 44 451 34T492 24Q524 24 552 43T604 87T642 132Q645 137 647 137Q650 137 650 131Q650 123 644 115Q598 52 556 15T472 -23Z" />
<glyph unicode="S" glyph-name="S" horiz-adv-x="451" d="M221 -34Q186 -34 148 -24T80 11T40 75Q39 80 39 86T38 98Q38 129 52 158T86 202H87Q89 202 92 198T92 191Q82 181 78 169T73 142Q73 123 79 104T96 70Q121 35 165 15T253 -6Q312 -6 344 29T377 115Q377
146 365 177Q349 220 323 261T274 343Q255 379 255 416Q255 455 279 491Q303 523 342 542T423 562Q451 562 477 552T524 519Q530 510 530 496Q530 476 522 465Q513 452 502 431T489 402Q487 401 480 399T470 399Q474 407 481 428T488 466Q488 477 488 490T474 514Q462
525 443 533T397 541Q342 541 313 509T284 439Q284 420 292 401Q307 365 334 333T387 268T429 195Q439 169 439 142Q439 103 420 71T368 16T297 -21T221 -34Z" />
<glyph unicode="T" glyph-name="T" horiz-adv-x="432" d="M148 -39Q117 -39 89 -22T47 32Q42 45 40 60T38 88V97Q38 105 39 113T48 121Q50 121 50 119Q50 113 50 107T49 94Q49 47 72 23T131 -1Q166 -1 199 19T260 70Q288 101 313 147T360 244T401 346T438 435Q448
458 475 474T528 497Q521 498 515 498T502 500L361 514Q345 516 319 517T264 518Q225 518 184 514T110 498T62 465Q54 453 54 437Q54 421 63 407T86 385Q88 383 88 382Q88 379 84 377T74 377Q65 382 53 394T32 419T18 442Q12 459 12 472Q12 496 28 511T71 535T128
547T187 551Q198 551 208 551T227 550Q259 548 294 546T365 541L524 528Q540 527 572 525T639 522Q676 522 707 526T748 543Q750 547 754 545T756 540Q753 528 748 522Q743 512 735 500T709 484Q705 483 698 483T683 482Q660 482 628 485T564 493Q534 488 512 465T474
413T446 357Q424 312 410 275T374 192Q353 146 330 102T274 21Q249 -6 216 -22T148 -39Z" />
<glyph unicode="U" glyph-name="U" horiz-adv-x="611" d="M146 -26Q114 -26 102 -15T89 13Q89 24 92 35T100 59Q113 91 127 122T158 183Q174 214 196 257T239 347T275 440T290 519H202Q187 519 161 517T107 508T61 485T45 442Q46 434 51 421T58 404L47 396Q41
407 32 421T16 450T8 471Q8 473 8 476T7 482Q7 493 11 504T25 525Q40 538 66 542T121 546Q148 546 173 544T214 542Q214 542 237 542T295 542T371 543T444 543L431 528Q413 528 394 523T360 500Q339 473 313 429T260 332T210 226T172 127T152 48Q151 30 160 22T186
14Q207 14 227 25Q267 45 307 81T383 160T444 238Q484 295 521 362T586 488Q593 500 598 515T614 531Q618 531 624 530T637 529Q668 529 694 554Q695 555 699 555Q703 555 705 554T706 550Q684 532 669 514T636 468Q615 436 589 394T535 306T486 215T452 133Q446
114 442 95T438 60Q438 36 448 21T484 6Q489 6 493 6T503 8Q522 11 546 29T593 70Q615 90 630 108T664 149Q666 145 666 141Q665 134 662 127T653 115Q646 106 632 90T601 55Q589 43 565 24T514 -11T462 -26Q425 -26 411 -7T397 41Q397 76 411 118T439 194Q418
169 395 147T349 101Q325 78 301 55T250 12Q226 -4 200 -15T146 -26Z" />
<glyph unicode="V" glyph-name="V" horiz-adv-x="538" d="M277 -49Q269 -49 264 -47T260 -36Q260 -33 263 -27T267 -18Q272 -4 276 10T284 38Q298 93 310 147T329 257Q333 289 339 343T345 449Q345 469 344 486T339 518Q306 518 273 518T208 519Q193 519 167 517T113
508T67 485T51 442Q52 434 57 421T64 404L53 396Q47 407 38 421T22 450T14 471Q13 481 15 497T31 525Q46 538 72 542T127 546Q154 546 179 544T220 542Q220 542 243 542T301 542T377 543T450 543L429 517H359Q374 489 378 439T383 343Q383 324 383 307T382 277Q380
230 369 164T341 39Q382 97 441 177T578 343T750 508Q769 524 800 544T866 578T932 593Q961 593 972 583T984 557Q984 538 973 515T955 477Q954 474 946 473T939 476Q941 484 943 495T946 519Q946 535 940 548T917 563Q914 564 911 564T905 564Q876 564 843 545T765
490Q681 423 606 343T461 174Q425 129 391 83T328 -13Q326 -17 325 -22T321 -31Q319 -33 309 -37T290 -45T277 -49Z" />
<glyph unicode="W" glyph-name="W" horiz-adv-x="892" d="M277 -49Q269 -49 264 -47T260 -36Q260 -33 263 -27T267 -18Q272 -4 276 10T284 38Q298 93 310 147T329 257Q331 271 332 289T333 329Q333 377 323 431T284 519H208Q193 519 167 517T113 508T67 485T51
442Q52 434 57 421T64 404L53 396Q47 407 38 421T22 450T14 471Q13 481 15 497T31 525Q46 538 72 542T127 546Q154 546 179 544T220 542Q220 542 243 542T301 542T377 543T450 543L429 517Q399 517 370 517T310 518Q342 497 357 463T378 392T383 323Q383 310 383
298T382 277Q380 230 369 164T341 39Q374 85 415 148T509 282T624 419Q649 445 677 472T737 517T806 535Q838 535 855 525L849 514Q845 515 842 515T833 516Q805 516 774 499T725 465Q694 434 677 392T653 302T641 206T634 114T621 39Q662 97 722 177T861 343T1032
508Q1051 524 1081 544T1146 578T1212 593Q1241 593 1252 583T1264 557Q1264 538 1253 515T1235 477Q1234 474 1226 473T1219 476Q1221 484 1223 495T1226 519Q1226 535 1220 548T1197 563Q1194 564 1191 564T1185 564Q1157 564 1124 545T1048 490Q964 423 887
343T741 174Q705 129 671 83T608 -13Q606 -17 605 -22T601 -31Q599 -33 589 -37T570 -45T557 -49Q549 -49 544 -47T540 -36Q540 -33 543 -27T547 -18Q552 -4 556 10T564 38Q576 82 581 131T592 229T610 325T647 408Q627 396 590 350T500 237Q482 215 460 183T416
115T373 46T338 -13Q336 -17 335 -22T331 -31Q329 -33 317 -37T292 -45T277 -49Z" />
<glyph unicode="X" glyph-name="X" horiz-adv-x="542" d="M-59 -59Q-82 -59 -96 -46T-111 -5Q-111 8 -106 25T-93 60Q-86 76 -82 76Q-78 76 -80 68Q-92 40 -92 21Q-92 -15 -53 -15Q-48 -15 -43 -15T-33 -13Q14 -3 68 35T179 130T293 246Q289 264 287 281T282 312Q278
341 276 371T273 430Q273 459 276 482T289 518Q269 519 249 519T208 519Q193 519 167 517T113 508T67 485T51 442Q52 434 57 421T64 404L53 396Q47 407 38 421T22 450T14 471Q13 481 15 497T31 525Q46 538 72 542T127 546Q154 546 179 544T220 542Q220 542 243
542T301 542T377 543T450 543L429 517Q398 517 366 517T302 518Q301 511 301 505T301 490Q301 454 306 416T318 344T330 287Q356 314 392 349T468 422T548 491T623 542Q643 553 663 559T705 566Q709 566 713 566T721 565Q746 561 755 551T764 526Q764 507 754 486T736
449Q735 446 728 445T722 448Q724 456 726 467T728 489Q728 508 720 522T686 536Q660 536 631 520Q600 505 560 474T477 405T398 332T337 272Q336 271 336 270T334 266Q337 254 346 226T368 163T395 97T422 47Q436 27 457 27Q479 27 502 46T547 90T585 137Q590
143 592 143Q594 143 594 138Q594 134 592 127T584 113Q561 85 534 58T478 13T423 -5Q390 -5 369 25Q346 57 328 113T298 225Q240 163 184 103T71 -1T-40 -57Q-45 -58 -49 -58T-59 -59Z" />
<glyph unicode="Y" glyph-name="Y" horiz-adv-x="452" d="M117 -39Q86 -39 58 -22T16 32Q11 45 10 60T8 89Q8 103 13 103Q18 103 18 94Q18 48 41 24T101 -1Q145 -1 183 23T254 82T311 154Q299 147 291 147Q280 147 281 155Q281 157 282 160T285 166Q288 174 290
183T296 200Q304 232 312 280T320 377Q320 419 312 457T283 519H259Q244 519 218 517T164 508T119 485T103 442Q104 434 109 421T115 404L105 396Q99 407 90 421T74 450T65 471Q64 481 66 497T82 525Q97 538 123 542T178 546Q205 546 230 544T271 542Q271 542 317
542T431 543L410 517Q382 517 365 517T334 518T301 519Q336 495 349 451T363 357Q363 314 356 273T341 202Q388 267 431 336T527 466Q544 485 567 509T619 553T677 572Q691 572 701 566T718 545Q723 533 723 523Q723 507 717 494T708 474Q707 470 703 470T700 474Q702
479 702 484T702 493Q702 511 693 526T664 541Q636 541 602 513T539 452Q487 392 450 338T379 229T308 107Q287 70 260 37T198 -18T117 -39Z" />
<glyph unicode="Z" glyph-name="Z" horiz-adv-x="453" d="M640 -254Q600 -254 561 -231T486 -173T419 -100T364 -36Q333 0 306 30T250 80T184 99Q153 99 123 87T69 52T37 -1Q34 -13 31 -24T21 -44Q14 -54 1 -54Q-9 -54 -18 -46T-28 -25Q-28 -13 -21 -2Q6 41 56
95T171 209T302 325T429 432T533 517Q486 518 439 518T344 519Q329 519 303 517T249 508T204 485T188 442Q189 434 194 421T200 404L190 396Q184 407 175 421T159 450T151 471Q151 473 151 476T150 482Q150 493 154 504T168 525Q184 539 214 543T277 547Q302 547
324 546T361 545H594Q595 545 595 542Q595 539 593 533T589 525Q463 434 341 326T106 96Q136 112 162 119T213 126Q255 126 291 106T363 48T438 -37Q478 -84 519 -125T599 -192T664 -217Q697 -217 712 -201T727 -161Q727 -131 707 -99Q700 -88 693 -79T680 -65Q679
-63 685 -59T693 -55Q704 -62 714 -70T732 -89Q743 -102 747 -117T752 -146Q752 -174 737 -198T696 -238T640 -254Z" />
<glyph unicode="[" glyph-name="bracketleft" horiz-adv-x="362" d="M9 -104Q56 -3 107 111T210 339T312 553L369 590Q386 593 402 594T435 595Q463 595 493 594T561 592L514 556Q484 563 460 564T415 564Q403 563 389 555T367 534Q346 496 317 440T256 320T193
193T134 74T89 -20T63 -72Q84 -73 114 -73T179 -74Q212 -74 245 -73T303 -69L249 -100Q221 -103 183 -103T105 -104H9Z" />
<glyph unicode="\" glyph-name="backslash" horiz-adv-x="498" d="M494 -33Q481 -33 476 -28Q453 1 419 47T342 150T253 270T162 392T75 505T1 596Q0 598 14 602T45 609T63 610Q91 577 128 527T207 416T294 292T379 168T453 58T509 -25Q509 -26 509 -26T510 -27Q510
-30 505 -31T494 -33Z" />
<glyph unicode="]" glyph-name="bracketright" horiz-adv-x="397" d="M71 -107Q43 -107 13 -106T-55 -104L-7 -68Q23 -75 47 -76T92 -76Q103 -75 118 -67T140 -46Q162 -7 190 48T251 168T314 295T372 414T418 508T443 560Q423 560 392 560T328 561Q294 561 262
560T204 557L257 588Q285 591 323 591T401 592H497Q450 491 399 377T296 149T194 -65L137 -102Q121 -105 105 -106T71 -107Z" />
<glyph unicode="^" glyph-name="asciicircum" horiz-adv-x="313" d="M309 249Q300 249 284 257T249 277T215 299T194 317Q189 314 174 304T140 281T108 261T90 252Q88 252 86 255T85 260Q85 264 102 277T142 306T184 334T209 347L214 345Q235 322 260 302T310
262L314 255L309 249Z" />
<glyph unicode="_" glyph-name="underscore" horiz-adv-x="846" />
<glyph unicode="`" glyph-name="grave" horiz-adv-x="223" d="M184 335Q178 336 159 346T116 370T74 396T53 413Q52 415 51 422T49 435Q49 444 52 444Q57 444 68 436T90 418T106 405Q123 390 143 373T183 342Q183 342 184 339T184 335Z" />
<glyph unicode="a" glyph-name="a" horiz-adv-x="294" d="M170 -3Q160 -3 153 1T146 16Q146 30 153 48T169 83T185 112Q150 75 112 42Q93 26 70 12T21 -2Q11 -2 7 4T3 20Q3 25 4 27Q9 66 29 108T78 187T137 247Q171 273 212 273H327Q332 273 332 269Q332 261 323
261Q313 261 303 249T288 228Q281 217 266 191T236 135T209 78T198 40Q198 26 212 26Q227 26 246 40T284 74T320 115T347 148Q353 142 347 132T335 115Q315 89 289 62T233 16T170 -3ZM62 32Q74 32 95 49T142 93T189 149T225 203T240 241Q240 252 234 256T217 260Q201
260 183 249T153 226Q141 215 125 192T92 140T65 86T54 44Q54 32 62 32Z" />
<glyph unicode="b" glyph-name="b" horiz-adv-x="269" d="M76 -9Q63 -9 45 -5T27 18Q27 25 30 34T36 50Q46 76 57 103T80 158Q67 143 56 131T39 112Q36 108 34 108Q32 108 32 113Q32 121 37 128Q51 146 69 166T104 208Q146 296 198 378T315 525Q335 544 360 564T413
598T470 612Q485 612 497 604T511 579V550Q511 546 505 546Q502 546 502 548Q502 564 488 569T460 575Q405 575 361 547T283 473T222 373T174 266T133 172Q133 172 133 170T134 168Q135 168 150 183T189 220T239 256T287 272Q298 272 301 265T304 248V239Q299 202
279 159T227 78T157 15T76 -9ZM92 8Q108 8 126 20T155 43Q167 54 184 77T217 129T244 183T255 225Q255 230 253 234T246 238Q237 238 223 227T192 201T162 171T142 149Q131 137 114 114T84 68T70 28Q70 8 92 8Z" />
<glyph unicode="c" glyph-name="c" horiz-adv-x="238" d="M76 -8Q39 -8 24 6T9 42Q9 71 28 106T64 166Q81 189 102 209T149 245Q165 255 192 266T239 278Q262 278 271 268T280 242Q280 230 276 218T267 194Q264 188 258 186T252 187Q252 192 253 196T254 205Q254
224 246 242T220 261Q202 261 181 249T152 227Q126 200 102 160T66 84Q59 63 59 48Q59 31 68 24T90 17Q100 17 111 20T136 27Q166 37 196 58T252 104T290 147Q292 145 292 141Q292 136 288 130T282 119Q261 91 227 62T154 12T76 -8Z" />
<glyph unicode="d" glyph-name="d" horiz-adv-x="294" d="M170 -3Q160 -3 153 1T146 16Q146 30 153 48T169 83T185 112Q150 75 112 42Q93 26 70 12T21 -2Q11 -2 7 4T3 20Q3 25 4 27Q9 66 29 108T78 187T137 247Q160 264 181 268T227 273H260Q276 300 293 333T328
400T361 458Q402 528 451 570T562 612Q575 612 586 605T596 582L594 546Q594 545 592 544T589 542Q588 542 586 544Q583 562 568 571T531 581Q524 581 516 580T499 576Q471 566 446 536T392 455Q382 436 366 406T333 340T300 272T273 216Q268 204 256 180T231 127T208
74T198 40Q198 26 210 26Q222 26 242 40T283 76T322 118T347 148Q350 145 350 141Q350 134 345 127T335 115Q317 91 291 64T233 17T170 -3ZM62 32Q74 32 95 49T142 93T189 149T225 203T240 241Q240 252 234 256T217 260Q201 260 183 249T153 226Q141 215 125 192T92
140T65 86T54 44Q54 32 62 32Z" />
<glyph unicode="e" glyph-name="e" horiz-adv-x="249" d="M91 -8Q50 -8 34 8T18 47Q18 76 33 109T63 165Q79 189 106 215T165 259T227 277Q253 277 263 265T273 235Q273 204 255 184T209 152T157 131Q142 127 122 123T84 119Q77 101 73 84T69 53Q69 36 77 25T106
14Q114 14 125 16T149 22Q179 32 208 54T261 101T299 144Q302 141 302 137Q302 132 295 121Q275 93 243 63T172 13T91 -8ZM92 139Q105 138 121 139T154 146Q195 158 213 184T232 232Q232 244 227 252T211 260Q182 260 159 239T119 189T92 139Z" />
<glyph unicode="f" glyph-name="f" horiz-adv-x="182" d="M-198 -226Q-237 -226 -263 -214T-299 -176Q-300 -173 -300 -170T-301 -163Q-301 -148 -294 -130T-279 -90Q-276 -84 -272 -84Q-265 -84 -268 -94Q-275 -109 -275 -126Q-275 -161 -245 -182T-175 -204Q-145
-204 -117 -190Q-70 -166 -40 -124T13 -39Q48 28 73 101T128 247H105Q100 247 94 246T83 244L81 245Q83 256 100 264T128 273H140Q155 309 175 352T220 438T272 518T332 575Q383 611 445 611Q457 611 468 604T479 581L476 545Q476 543 473 542T469 543Q465 563
448 572T407 582Q370 582 340 558T274 469Q261 444 246 410T215 340T186 273H258Q265 273 272 273T287 275Q287 271 282 268T272 262Q247 249 225 248T175 247Q153 192 134 143T91 46Q72 4 44 -43T-20 -132T-100 -200T-198 -226Z" />
<glyph unicode="g" glyph-name="g" horiz-adv-x="265" d="M-145 -350Q-183 -350 -218 -333T-271 -279Q-278 -266 -280 -252T-282 -223V-213Q-282 -205 -280 -198T-269 -191Q-267 -191 -267 -193Q-267 -199 -268 -205T-269 -218Q-269 -264 -240 -288T-166 -312Q-148
-312 -129 -308T-94 -297Q-30 -270 17 -219T100 -104T163 27T215 155Q194 121 169 95T113 42Q94 26 72 12T23 -2Q13 -2 9 4T5 20V27Q10 66 30 108T80 187T139 247Q173 273 214 273H329Q334 273 334 269Q334 261 325 261Q314 261 304 252T289 235Q279 219 263 186T228
111T190 25T155 -57Q131 -114 101 -168T29 -266T-70 -335Q-104 -350 -145 -350ZM64 32Q76 32 97 49T143 93T190 149T226 203T241 241Q241 252 235 256T218 260Q202 260 184 249T155 226Q143 215 127 192T94 140T66 86T55 44Q55 32 64 32Z" />
<glyph unicode="h" glyph-name="h" horiz-adv-x="294" d="M182 -6Q167 -6 156 0T144 22Q144 31 148 42Q157 65 172 98T204 162T229 214Q235 226 235 231Q235 240 225 235T203 221T185 207Q159 183 131 151T79 83T42 12Q41 6 29 2T7 -2Q-9 -2 -5 8Q18 60 42 123T98
252Q121 302 149 355T213 456T290 542Q327 574 371 594T468 615Q491 615 508 606T527 572V563Q527 549 524 535Q523 531 516 531Q513 531 514 532Q518 558 501 569T456 580Q407 580 366 562T290 514Q236 467 196 394T127 245Q113 208 100 171T74 102Q119 162 160
205T233 266Q258 280 278 280Q297 280 297 264Q297 250 283 228Q276 217 262 191T232 135T205 78T194 40Q194 24 208 24Q216 24 226 29T242 38Q269 58 295 87T339 138Q340 139 340 135Q340 131 339 124T332 111Q321 96 310 83T287 56Q268 34 242 14T182 -6Z" />
<glyph unicode="i" glyph-name="i" horiz-adv-x="192" d="M242 382Q228 382 222 391Q218 396 218 404Q218 420 233 430Q244 436 253 436Q268 436 274 427Q278 422 278 414Q278 398 262 388Q253 382 242 382ZM68 -3Q58 -3 52 1T45 16Q45 30 52 49T69 87T84 118Q91
132 101 154T121 197T135 226Q121 211 102 189T65 145T39 112Q36 108 34 108Q32 108 32 113Q32 121 37 128Q56 152 79 182T122 237T146 271Q157 273 178 277T208 288Q211 291 214 291Q216 291 216 288T214 280Q208 273 193 246T162 187T131 128Q117 101 107 76T97
40Q97 26 111 26Q124 26 144 42T186 80T223 122Q228 128 235 136T245 147Q247 145 247 140Q246 133 242 127T234 115Q213 89 188 62T133 16T68 -3Z" />
<glyph unicode="j" glyph-name="j" horiz-adv-x="135" d="M195 382Q181 382 175 391Q171 396 171 404Q171 420 187 430Q196 436 207 436Q221 436 227 427Q231 422 231 414Q231 398 215 388Q206 382 195 382ZM-283 -350Q-321 -350 -356 -333T-409 -279Q-415 -266
-417 -252T-419 -223V-212Q-419 -204 -417 -198T-407 -191Q-404 -191 -404 -193Q-404 -199 -405 -205T-407 -218Q-407 -264 -378 -288T-304 -312Q-286 -312 -267 -308T-231 -297Q-168 -270 -122 -221T-40 -109T23 17Q47 73 63 122T88 203T101 238Q117 254 143 264T184
275Q196 275 196 269Q196 261 187 261Q176 261 167 256T153 242Q144 229 128 195T92 117T53 27T18 -57Q-6 -114 -36 -168T-109 -266T-208 -335Q-242 -350 -283 -350Z" />
<glyph unicode="k" glyph-name="k" horiz-adv-x="324" d="M213 -5Q188 -5 175 12Q167 24 159 48T145 98T135 140Q107 104 86 68T57 12Q55 6 44 2T21 -2Q5 -2 9 8Q40 77 68 141T127 270T199 405Q227 456 266 503T351 581T442 612Q457 612 470 604T483 579V550Q483
546 477 546Q474 546 474 548Q474 564 460 569T433 575Q398 575 362 561Q322 545 295 513T245 445Q215 399 186 338T133 214T89 102Q100 116 111 130T132 156Q132 158 132 160T131 164Q131 171 134 176T142 188Q149 198 155 203T168 218L171 201Q215 246 248 266Q271
280 293 280Q315 280 315 263Q315 249 301 228Q296 221 295 218T291 212Q290 211 287 212T284 215Q284 227 276 230T258 234Q239 234 218 221T174 184Q179 159 185 130T200 75T215 38Q220 30 229 28T244 25Q258 25 276 39T314 74T350 115T376 147Q380 142 378 137Q377
131 373 125T364 113Q344 88 321 63T272 17Q261 8 245 2T213 -5Z" />
<glyph unicode="l" glyph-name="l" horiz-adv-x="214" d="M100 -2Q70 -2 59 12T48 48Q48 76 60 108T81 158Q68 144 56 131T39 112Q36 108 34 108Q32 108 32 113Q32 121 37 128Q51 146 69 166T104 208Q124 245 148 294T199 396T251 493T297 565Q314 572 329 583T360
603T393 613Q404 613 409 607T417 593Q418 590 418 582Q418 559 403 526T367 462T331 410Q291 354 249 309T174 233T125 188Q118 175 109 154T92 109T85 65Q85 48 93 37T120 25Q123 25 126 25T133 26Q150 29 170 45T210 82T246 122Q253 130 259 137T267 148Q274
141 267 131T254 113Q247 104 234 89T204 55Q185 36 157 17T100 -2ZM142 228Q173 254 220 302T314 420Q319 428 330 447T354 490T376 538T385 579Q385 595 376 595Q365 595 347 576Q326 554 300 512T244 417T189 315T142 228Z" />
<glyph unicode="m" glyph-name="m" horiz-adv-x="470" d="M40 -15Q36 -15 40 -6Q45 3 49 14T59 38Q69 62 81 92T104 150T123 199T135 226Q121 211 102 189T65 145T39 112Q36 108 34 108Q32 108 32 113Q32 121 37 128Q56 152 79 182T122 237T146 271Q157 273 178
277T208 288Q211 291 214 291Q216 291 216 288T214 280Q208 273 194 248T163 191T132 135Q148 154 163 171T185 195Q197 207 218 225T262 258T302 275Q306 276 309 276T315 276Q334 276 334 262Q334 256 331 248T323 232Q317 220 303 195T278 148L325 195Q337 207
358 225T402 258T442 275Q446 276 449 276T455 276Q477 276 477 260Q477 248 464 228Q457 217 442 191T412 135T385 78T374 40Q374 26 388 26Q401 26 421 41T463 79T501 121Q508 129 514 137T522 147Q524 145 524 140Q524 133 520 127T511 115Q492 90 468 63T414
18T352 -4Q342 -5 332 0T322 16Q322 30 329 49T346 87T361 118Q379 153 394 184T415 228Q418 234 418 238Q418 245 407 239T381 221T352 198T335 182Q318 165 295 136T251 76T223 17Q213 8 204 8Q197 8 193 13T188 25Q188 45 200 72T221 118Q239 153 254 184T275
228Q278 234 278 238Q278 245 267 239T241 221T212 198T195 182Q171 157 151 131T116 75Q108 57 99 35T84 -2Q71 -3 58 -9T40 -15Z" />
<glyph unicode="n" glyph-name="n" horiz-adv-x="330" d="M40 -15Q36 -15 40 -6Q45 3 49 14T59 38Q69 62 81 92T104 150T123 199T135 226Q121 211 102 189T65 145T39 112Q36 108 34 108Q32 108 32 113Q32 121 37 128Q56 152 79 182T122 237T146 271Q157 273 178
277T208 288Q211 291 214 291Q216 291 216 288T214 280Q208 273 194 248T163 191T132 135Q144 151 158 166T185 195Q197 207 218 225T262 258T302 275Q306 276 309 276T315 276Q337 276 337 260Q337 248 324 228Q317 217 303 192T274 137T249 82T238 44Q238 30
252 30Q269 30 289 47T334 90T382 147Q384 145 384 140Q384 133 380 127T371 115Q361 102 345 83T311 45T280 15Q270 8 254 0T222 -8Q204 -8 197 1T190 25Q190 41 196 59T209 93T221 118Q239 153 254 184T275 228Q278 234 278 238Q278 245 267 239T241 221T212
198T195 182Q158 143 131 96T84 -2Q71 -3 58 -9T40 -15Z" />
<glyph unicode="o" glyph-name="o" horiz-adv-x="265" d="M50 -2Q34 -2 22 4T9 33Q9 68 27 103T64 166Q81 189 102 209T149 245Q165 255 192 266T239 278Q255 278 267 270T279 239Q279 205 262 170T225 107Q216 95 207 85T187 63Q224 63 255 84T309 137L311 139Q314
139 314 133Q314 126 310 120Q290 92 260 71T192 49Q188 49 184 49T176 50Q120 -2 50 -2ZM76 15Q90 15 106 25T132 44Q149 61 163 80T189 120Q203 144 217 177T231 239Q231 262 215 262Q202 262 184 251T156 231Q122 196 99 155Q86 132 71 101T56 44Q56 40 56 37T58
29Q62 15 76 15Z" />
<glyph unicode="p" glyph-name="p" horiz-adv-x="255" d="M-283 -350Q-321 -350 -356 -333T-409 -279Q-415 -266 -417 -252T-419 -223V-212Q-419 -204 -417 -198T-407 -191Q-404 -191 -404 -193Q-404 -199 -405 -205T-407 -218Q-407 -264 -378 -288T-304 -312Q-286
-312 -267 -308T-231 -297Q-168 -270 -121 -221T-39 -110T23 17Q52 88 78 157T138 294Q169 356 204 387T274 418Q283 418 291 413T299 397L297 369Q297 366 293 366Q293 366 293 366T292 367Q292 379 284 383T267 388Q233 388 207 365T160 304T126 227T103 152Q110
158 128 177T172 218T223 256T271 272Q284 272 286 261T287 239Q282 202 262 159T211 78T141 15T60 -9Q55 -9 47 -9T36 -6Q15 -69 -18 -135T-97 -254T-208 -335Q-242 -350 -283 -350ZM75 8Q90 8 109 20T139 43Q151 54 167 77T200 129T228 183T239 225Q239 230 237
234T230 238Q221 238 206 227T175 201T144 171T124 149Q114 137 97 114T67 68T54 28Q54 8 75 8Z" />
<glyph unicode="q" glyph-name="q" horiz-adv-x="279" d="M-1 -342Q-8 -342 -8 -335Q-7 -328 6 -295T41 -213T85 -110T131 -8T168 74T187 112Q170 94 151 77T113 42Q94 26 72 12T23 -2Q13 -2 9 4T5 20V27Q10 66 30 108T80 187T139 247Q171 273 214 273H329Q334
273 334 269Q334 261 325 261Q314 261 304 249T289 228Q264 189 235 137T178 26T125 -88T84 -188Q107 -151 138 -107T203 -17T271 71T331 147Q333 143 333 141Q333 131 323 118Q289 73 249 19T169 -92T99 -205T52 -311Q51 -315 41 -322T19 -336T-1 -342ZM64 32Q76
32 97 49T143 93T190 149T226 203T241 241Q241 252 235 256T218 260Q202 260 184 249T155 226Q143 215 127 192T94 140T66 86T55 44Q55 32 64 32Z" />
<glyph unicode="r" glyph-name="r" horiz-adv-x="272" d="M40 -14Q36 -14 40 -6Q45 3 49 14T59 38Q69 62 81 92T104 150T123 199T135 226Q121 211 102 189T65 145T39 112Q36 108 34 108Q32 108 32 113Q32 121 37 128Q56 152 79 182T122 237T146 271Q157 273 178
277T208 288Q211 291 214 291Q216 291 216 288T214 280Q208 274 197 254T171 208T144 158Q154 173 170 193T207 233T247 266T286 279Q299 279 308 274T322 254Q325 247 325 238Q325 221 317 206T304 182Q303 179 297 177T292 178Q293 183 293 188T294 199Q294 216
288 230T264 244Q248 244 225 224T179 178Q150 144 133 114T105 54Q99 38 93 23T84 -2Q71 -3 58 -8T40 -14Z" />
<glyph unicode="s" glyph-name="s" horiz-adv-x="232" d="M94 -16Q76 -16 56 -11T21 5T0 37Q-1 40 -1 46Q-1 60 5 77T22 101Q26 103 28 101T29 97Q28 94 26 90T23 80Q20 54 34 34Q40 26 48 19T65 7Q72 3 82 2T102 0Q118 0 133 4T155 17Q168 33 168 53Q168 68 160
85T135 121Q124 133 114 147T101 177Q100 180 100 183T99 189Q86 170 73 154T49 125Q45 119 42 119Q40 119 40 123Q40 132 48 142Q56 151 66 164T82 186Q99 211 107 225T126 252Q137 265 153 273T188 281Q209 281 226 275T245 242Q245 230 241 218T231 194Q228
188 223 186T217 187Q217 191 218 196T219 205Q219 222 213 235Q208 249 198 255T177 262Q161 262 146 250T131 217Q131 215 131 212T132 207Q136 191 156 171T187 136Q206 110 206 83Q206 56 191 34T150 -2T94 -16Z" />
<glyph unicode="t" glyph-name="t" horiz-adv-x="198" d="M74 -3Q64 -3 57 1T50 16Q50 30 57 49T74 87T89 118Q94 127 102 146T120 187T136 224T143 239Q134 229 120 211T89 174T59 137T39 112Q36 108 34 108Q32 108 32 113Q32 121 37 128Q49 143 66 164T100 208T131
247Q123 247 111 246T88 244T77 242Q72 242 78 250T94 266T109 274Q110 274 125 274T147 273Q167 300 186 335T225 412Q233 413 252 423T283 445Q288 450 291 450Q297 450 291 442Q284 434 267 409T229 348T189 273H270Q281 273 281 270Q281 266 266 262Q249 257
231 256T197 252T174 239Q168 232 157 209T134 157T112 98T101 48V44Q101 36 106 31T116 26Q129 26 149 42T192 80T230 122Q237 130 242 137T249 146Q251 142 251 140Q251 134 248 127T240 115Q221 90 194 63T137 16T74 -3Z" />
<glyph unicode="u" glyph-name="u" horiz-adv-x="393" d="M90 -3Q80 -3 73 1T66 16Q66 30 73 49T90 87T105 118Q117 141 128 164T147 203Q155 218 155 223Q155 231 144 223T122 207Q100 186 76 158T39 112Q36 108 34 108Q32 108 32 113Q32 121 37 128Q51 148 70
172T109 218Q128 238 148 257T199 276Q220 276 220 260Q220 246 208 228Q201 217 186 191T156 135T129 78T118 40Q118 26 132 26Q143 26 159 37T192 65Q223 95 248 130T292 199T322 253Q324 257 326 262T335 269Q341 270 361 270T398 278H400Q403 278 403 275Q403
267 390 263Q378 259 363 239T332 191T305 132T287 77T284 40Q288 26 298 26Q311 26 334 42T383 80T424 122Q431 130 437 138T445 148Q446 147 447 145T448 140Q447 133 443 127T434 115Q415 90 389 63T332 16T269 -3Q259 -3 247 2T234 24Q234 37 241 59T256 104T271
138Q258 119 240 96T202 54Q177 30 149 14T90 -3Z" />
<glyph unicode="v" glyph-name="v" horiz-adv-x="294" d="M116 -6Q102 -6 92 4T82 39Q82 61 85 91T96 152T112 208Q95 183 74 157T39 112Q36 108 34 108Q32 108 32 113Q32 121 37 128Q58 157 84 194T130 261Q141 263 156 267T179 278Q184 281 185 281Q188 281
188 278T185 270Q176 257 166 230T145 170T128 106T121 52Q121 36 126 30T139 23Q150 23 165 34T192 57Q206 72 223 97T256 150T280 201Q286 217 288 228T290 247Q290 259 287 264T282 270Q276 272 276 275Q276 277 280 278T288 278Q301 274 314 267T327 238Q327
233 326 227T322 212Q316 196 298 167T255 106T207 48T165 11Q153 4 140 -1T116 -6Z" />
<glyph unicode="w" glyph-name="w" horiz-adv-x="500" d="M116 -6Q102 -6 92 4T82 39Q82 61 85 91T96 152T112 208Q95 183 74 157T39 112Q36 108 34 108Q32 108 32 113Q32 121 37 128Q58 157 84 194T130 261Q141 263 156 267T179 278Q184 281 185 281Q188 281
188 278T185 270Q176 257 165 230T144 169T128 103T121 50Q121 34 126 28T139 22Q153 22 168 35T199 67T227 104T245 132Q265 164 283 201T315 261Q326 263 341 267T365 278Q368 281 370 281Q373 281 373 278T371 270Q362 257 352 230T333 171T317 107T311 53Q311
23 333 23Q348 23 366 34T397 57Q431 92 454 126T493 204Q499 219 501 230T503 252Q503 266 499 274T489 284Q484 286 484 289Q484 291 489 293T500 295Q516 291 527 281T539 250Q539 234 532 216Q518 179 492 140T432 66T363 11Q350 4 336 -1T309 -6Q293 -6 282
4T270 39Q270 65 275 101T290 171Q283 160 277 148T262 122Q237 86 211 54T165 11Q153 4 140 -1T116 -6Z" />
<glyph unicode="x" glyph-name="x" horiz-adv-x="299" d="M194 -6Q184 -6 174 -1Q161 5 149 23T129 61T118 94Q90 70 70 47T24 -2Q21 -5 9 -5Q2 -5 -5 -3T-12 3Q-12 8 -6 12Q29 40 55 60T115 109Q114 114 111 131T105 168T99 203T97 222Q99 234 110 243T135 258T161
264Q175 264 175 257Q175 253 167 253Q154 253 151 242T147 224Q146 218 146 212T145 200Q145 185 147 170T152 141Q157 145 172 157T207 185T247 217T281 244T298 257Q310 265 327 265T358 264Q361 264 361 258Q361 249 357 249Q343 248 329 243T306 233Q283 223
256 204T202 164T156 126Q158 117 164 95T181 53Q193 27 210 27Q224 27 237 43T259 79T272 114Q274 120 277 120Q284 120 282 109Q277 86 265 59T235 13T194 -6Z" />
<glyph unicode="y" glyph-name="y" horiz-adv-x="344" d="M-69 -350Q-107 -350 -142 -333T-195 -279Q-201 -266 -203 -252T-205 -223V-212Q-205 -204 -203 -198T-193 -191Q-191 -191 -191 -193Q-191 -199 -192 -205T-193 -218Q-193 -264 -164 -288T-90 -312Q-72
-312 -53 -308T-17 -297Q46 -270 92 -221T174 -109T237 17Q253 55 265 91T288 156Q278 142 262 122T230 84T202 54Q177 30 149 14T90 -3Q80 -3 73 1T66 16Q66 30 73 49T90 87T105 118Q117 141 128 164T147 203Q155 218 155 223Q155 231 144 223T122 207Q100 186
76 158T39 112Q36 108 34 108Q32 108 32 113Q32 121 37 128Q51 148 70 172T109 218Q128 238 148 257T199 276Q220 276 220 260Q220 246 208 228Q201 217 186 191T156 135T129 78T118 40Q118 26 132 26Q143 26 159 37T192 65Q221 93 245 127T288 192Q291 197 298
210T314 235T328 249Q333 251 348 260T378 272Q392 275 399 275Q410 275 410 269Q410 261 401 261Q390 261 381 256T367 242Q358 229 342 195T306 117T267 27T232 -57Q208 -114 177 -168T105 -266T6 -335Q-28 -350 -69 -350Z" />
<glyph unicode="z" glyph-name="z" horiz-adv-x="234" d="M305 -127Q290 -127 275 -119T238 -87T175 -19Q153 7 134 27T86 47Q64 47 43 34T16 -2Q15 -8 13 -13T8 -23Q5 -28 -2 -28Q-7 -28 -11 -24T-16 -13Q-16 -10 -12 -2Q-7 7 7 22T38 56T70 89T94 112Q135 147
170 179T248 246Q235 246 212 245T164 242T119 236T95 225Q88 216 81 216Q77 216 77 219Q77 222 82 227Q91 237 96 246T106 265Q117 264 128 264T151 263Q181 263 212 264T271 266Q280 266 285 254T292 234Q258 209 216 180T134 118Q115 104 91 82T49 45Q77 59
101 59Q133 59 158 38T214 -12Q244 -42 274 -64T325 -86Q332 -85 339 -83T351 -77Q359 -70 359 -61Q359 -50 350 -39T334 -23Q333 -22 333 -21Q333 -18 337 -16T345 -16Q358 -23 366 -36T374 -65Q374 -81 364 -95Q355 -108 339 -117T305 -127Z" />
<glyph unicode="{" glyph-name="braceleft" horiz-adv-x="354" d="M225 -101Q207 -101 183 -100T137 -93T101 -75T90 -40Q95 -2 112 31T146 99T167 170Q172 202 144 213T78 228L91 241Q153 242 190 266T253 342Q260 356 265 371T277 401Q291 437 316 470T380 527T474
560Q479 560 486 560T502 561Q512 561 520 560T530 557Q532 554 534 550T537 544Q518 548 491 546Q453 543 427 530T381 484Q363 452 348 414T314 340T265 282Q221 246 162 232Q189 226 209 210T226 162Q222 126 206 93T175 28T154 -41Q151 -69 164 -76T200 -85Q203
-85 207 -85T217 -86Q224 -86 231 -86T243 -84Q240 -91 235 -96T225 -101Z" />
<glyph unicode="|" glyph-name="bar" horiz-adv-x="364" d="M64 0Q70 17 87 59T128 160T178 282T228 405T271 510T298 577H345Q341 571 327 540T293 459T249 353T202 237T158 128T124 44T106 0H64Z" />
<glyph unicode="}" glyph-name="braceright" horiz-adv-x="411" d="M-3 -103Q-12 -103 -19 -102T-28 -99Q-33 -93 -35 -86Q-16 -90 12 -88Q50 -85 76 -72T121 -26Q140 6 155 44T189 118T237 177Q258 193 285 206T340 226Q313 232 293 248T276 296Q281 333 296
365T328 430T348 499Q351 528 338 534T302 543Q299 543 295 543T286 544Q279 544 272 544T259 542Q263 549 268 554T277 560Q295 560 319 559T365 551T401 533T412 498Q408 461 391 427T356 360T335 289Q331 256 358 245T425 230L412 217Q350 216 313 193T250 116Q243
102 237 87T225 57Q211 22 186 -11T123 -69T28 -101Q16 -103 -3 -103Z" />
<glyph unicode="~" glyph-name="asciitilde" horiz-adv-x="277" d="M244 319Q222 319 203 326T165 339T126 346Q113 346 103 340T83 325L75 335Q85 343 101 354T130 366Q148 366 165 359T202 345T245 338Q261 338 269 344T291 359L297 352Q290 345 273 332T244 319Z" />
<glyph unicode="&#xa0;" glyph-name="uni00A0" horiz-adv-x="169" />
<glyph unicode="&#xa1;" glyph-name="exclamdown" horiz-adv-x="245" d="M236 414Q229 419 221 423T203 426H199Q194 426 194 429Q194 432 201 439Q210 447 219 454T238 462Q249 462 259 455T275 440Q276 439 267 433T248 420T236 414ZM-31 -118Q-34 -118 -37
-110T-38 -100Q-33 -97 -24 -83T-7 -54T2 -36Q32 22 62 81T117 191T160 276T181 318Q184 325 196 330T207 329Q204 322 193 293T166 223T133 135T98 45T69 -31Q64 -44 58 -60T49 -84Q36 -87 13 -94T-30 -118H-31Z" />
<glyph unicode="&#xa2;" glyph-name="cent" horiz-adv-x="375" d="M112 -49Q119 -28 130 3T154 71Q150 71 146 72T138 74Q96 84 75 115T54 189Q54 237 82 291T167 389Q192 408 228 421T298 439Q307 462 314 480T327 511Q329 516 340 519T350 518Q348 511 340 491T320
440Q336 440 349 438T377 429Q391 422 399 413T404 389Q402 379 393 367T378 340Q377 337 371 336T366 337Q375 352 375 376Q375 397 368 408Q361 420 347 424T315 427Q299 383 278 326T236 209T195 95Q230 94 264 108T328 147T377 201Q378 203 380 203Q384 203
385 197T385 189Q352 136 299 103T185 68Q175 37 166 11T152 -34Q152 -35 142 -39T122 -47T112 -49ZM165 100Q185 153 207 210T251 323T292 424Q280 421 271 418Q235 404 204 378Q160 339 134 286T108 186Q108 155 121 132T162 101L165 100Z" />
<glyph unicode="&#xa3;" glyph-name="sterling" horiz-adv-x="621" d="M467 -34Q407 -32 340 -26T208 -12T84 0Q62 2 40 -5T5 -22Q4 -22 4 -22T3 -23Q0 -23 0 -15Q0 -8 4 -1T20 7Q50 8 78 25T128 66T161 113L224 240Q199 240 175 240T130 237Q128 237 133 245T147
261T161 268Q171 267 192 266T236 265L280 351Q304 399 333 444T404 518T506 547Q530 547 555 542T599 523T617 487Q617 479 614 470Q610 454 593 438T565 396Q562 389 555 389Q547 389 553 398Q576 429 576 473Q576 498 564 516T523 535Q496 535 467 520T414 468L283
264Q307 264 336 264T392 266T430 267Q433 267 427 259T413 243T399 235Q388 236 366 237T319 239T276 240H268L186 114Q154 64 129 44T89 18Q89 18 110 18T164 16T230 14T288 12Q316 11 345 10T402 9Q435 9 460 12T493 24Q507 43 507 58Q507 81 482 95Q480 96
480 99Q480 101 482 103T488 103Q497 99 509 84T531 53T544 27Q546 23 546 19T546 11Q546 -36 467 -34Z" />
<glyph unicode="&#xa4;" glyph-name="currency" horiz-adv-x="426" d="M91 97Q91 96 91 96T90 96Q89 96 88 103T87 121Q87 138 89 155T97 177Q105 182 128 200T181 243Q153 287 153 339Q153 393 180 433Q152 456 129 474T97 500Q93 502 91 517T88 548Q88 562 89
572T92 581Q121 553 152 527T214 473Q237 493 267 505T331 517Q365 517 395 505T449 471Q490 507 524 538T570 581Q572 583 573 573T575 549Q575 533 573 518T565 500Q555 493 533 475T481 434Q509 390 509 339Q509 285 481 243Q510 219 533 201T565 177Q571 173
573 155T576 119Q576 108 575 101T572 97L449 206Q426 185 396 173T331 161Q297 161 267 173T212 206L91 97ZM333 208Q369 208 398 225T444 272T462 337Q462 373 445 402T398 448T333 466Q298 466 269 449T222 402T204 337Q204 302 221 273T268 226T333 208Z" />
<glyph unicode="&#xa5;" glyph-name="yen" horiz-adv-x="452" d="M117 -39Q86 -39 58 -22T16 32Q11 45 10 60T8 89Q8 103 13 103Q18 103 18 94Q18 48 41 24T101 -1Q143 -1 179 20T247 75T303 142Q277 142 244 142T186 139Q184 139 189 146T201 160T212 166Q221
165 242 164T284 163Q284 165 285 166L296 200Q304 232 312 280T320 377Q320 419 312 457T283 519H259Q244 519 218 517T164 508T119 485T103 442Q104 434 109 421T115 404L105 396Q99 407 90 421T74 450T65 471Q64 481 66 497T82 525Q97 538 123 542T178 546Q205
546 230 544T271 542Q271 542 317 542T431 543L410 517Q382 517 365 517T334 518T301 519Q336 495 349 451T363 357Q363 314 356 273T341 202Q388 267 431 336T527 466Q544 485 567 509T619 553T677 572Q691 572 701 566T718 545Q723 533 723 523Q723 507 717 494T708
474Q707 470 703 470T700 474Q702 479 702 484T702 493Q702 511 693 526T664 541Q636 541 602 513T539 452Q495 400 461 354T398 261T339 162Q368 162 398 163T442 165Q444 165 439 158T427 145T416 138L328 142L308 107Q287 70 260 37T198 -18T117 -39Z" />
<glyph unicode="&#xa6;" glyph-name="brokenbar" horiz-adv-x="373" d="M205 349Q237 426 262 489T298 577H345Q341 571 327 539T292 457T247 349H205ZM64 0Q70 15 84 51T118 137T161 242L204 244L106 0H64Z" />
<glyph unicode="&#xa7;" glyph-name="section" horiz-adv-x="542" d="M191 -164Q156 -164 118 -154T50 -119T10 -55Q9 -50 9 -44T8 -33Q8 -2 22 27T56 72H57Q59 72 62 68T62 60Q52 50 48 38T43 11Q43 -8 49 -27T66 -61Q91 -96 135 -116T223 -137Q282 -137 314
-102T347 -15Q347 16 335 47Q319 89 293 130T244 212Q225 248 225 285Q225 326 249 360Q275 395 317 414Q317 434 322 453T341 491Q365 523 404 542T485 562Q513 562 539 552T585 519Q591 510 591 496Q591 476 583 465Q575 452 564 431T551 402Q549 401 542 399T532
399Q536 407 542 428T549 466Q549 477 549 490T536 514Q524 525 505 533T459 541Q404 541 375 509T346 439Q346 420 354 401Q369 365 398 338T457 283T507 217Q524 184 524 150Q524 102 493 62T418 -3Q416 -4 413 -5T408 -7Q402 -53 368 -88T286 -144T191 -164ZM410
14Q411 16 416 19Q440 35 452 60T465 115Q465 152 445 192Q432 220 412 244T371 292T336 343Q321 372 318 401Q287 388 271 363T254 308Q254 289 262 270Q277 234 304 202T357 137T399 65Q404 52 406 39T410 14Z" />
<glyph unicode="&#xa8;" glyph-name="dieresis" horiz-adv-x="249" d="M229 369Q219 369 209 376T192 391Q191 393 200 399T219 412T231 417Q239 413 247 409T264 405H268Q273 405 273 402Q273 399 266 392Q257 385 248 377T229 369ZM113 369Q103 369 93 376T76
391Q75 393 84 399T103 412T115 417Q123 413 131 409T148 405H152Q157 405 157 402Q157 399 150 392Q141 385 132 377T113 369Z" />
<glyph unicode="&#xa9;" glyph-name="copyright" horiz-adv-x="715" d="M311 -4Q304 -4 296 -4T280 -3Q237 0 195 10T117 41T61 97T40 185Q40 225 54 273T96 369T168 457T271 521T405 545Q413 545 420 545T436 544Q558 535 617 493T680 370Q680 365 680 360T681
349Q681 277 653 214T575 101T457 24T311 -4ZM294 12Q365 12 425 42T529 123T597 236T622 363Q622 433 581 477T438 529Q434 529 430 529T422 530Q371 530 323 508T233 447T161 362T113 266T95 171Q95 104 135 62T271 13Q277 12 283 12T294 12ZM301 79Q290 79 279
80T255 84Q213 94 192 125T171 199Q171 247 199 301T285 399Q314 421 356 435T436 450Q452 450 466 448T494 439Q508 432 516 423T521 399Q519 389 510 377T496 350Q495 347 489 346T484 347Q493 362 493 386Q493 407 486 418Q479 429 467 433T439 437Q426 437
412 435T388 428Q371 421 354 412T322 388Q277 349 252 296T226 197Q226 166 239 143T280 111Q300 105 319 105Q370 105 418 137T495 211Q496 213 498 213Q501 213 503 207T503 199Q469 145 416 112T301 79Z" />
<glyph unicode="&#xaa;" glyph-name="ordfeminine" horiz-adv-x="294" d="M170 300Q160 300 153 304T146 319Q146 333 153 351T169 386T185 415Q150 378 112 345Q93 329 70 315T21 301Q11 301 7 307T3 323Q3 328 4 330Q9 369 29 411T78 490T137 550Q171 576 212
576H327Q332 576 332 572Q332 564 323 564Q313 564 303 552T288 531Q281 520 266 494T236 438T209 381T198 343Q198 329 212 329Q227 329 246 343T284 377T320 418T347 451Q353 445 347 435T335 418Q315 392 289 365T233 319T170 300ZM62 335Q74 335 95 352T142
396T189 452T225 506T240 544Q240 555 234 559T217 563Q201 563 183 552T153 529Q141 518 125 495T92 443T65 389T54 347Q54 335 62 335Z" />
<glyph unicode="&#xab;" glyph-name="guillemotleft" horiz-adv-x="355" d="M331 115Q329 104 320 104L314 107Q297 135 275 153T226 192Q224 196 225 197Q226 202 242 221T281 263T322 306T348 332Q356 340 366 340Q371 340 371 336Q370 333 356 317T323 279T288
241T267 218Q271 212 281 198T304 166T324 134T331 115ZM212 116Q212 104 201 104L195 107Q179 135 156 153T107 192Q106 194 106 197Q107 202 123 221T162 263T203 306T229 332Q239 340 247 340Q252 340 252 336Q251 333 237 317T205 279T170 241T148 218Q152
212 162 198T184 167T204 136T212 116Z" />
<glyph unicode="&#xac;" glyph-name="logicalnot" horiz-adv-x="414" d="M375 245Q362 223 350 194T332 150L290 151Q295 164 307 185T331 226Q322 226 303 226T259 227Q226 227 188 227T116 226T61 223L73 246H132Q162 246 197 246T267 246T328 246T368 248L375 245Z" />
<glyph unicode="&#xad;" glyph-name="uni00AD" horiz-adv-x="249" d="M220 144Q208 145 195 146T161 148Q138 148 119 148T76 145Q74 145 78 152T88 166T98 172Q109 170 126 170T163 168Q189 168 209 169T242 171Q244 171 240 164T230 151T220 144Z" />
<glyph unicode="&#xae;" glyph-name="registered" horiz-adv-x="707" d="M311 -4Q304 -4 296 -4T280 -3Q237 0 195 10T117 41T61 97T40 185Q40 225 54 273T96 369T168 457T271 521T405 545Q413 545 420 545T436 544Q558 535 617 493T680 370Q680 365 680 360T681
349Q681 277 653 213T575 101T457 24T311 -4ZM95 171Q95 118 117 83H118Q133 86 144 95T162 117Q192 165 219 216Q236 247 252 277T285 339Q302 368 314 392T330 427Q335 439 335 444Q335 451 330 455Q325 455 316 458T307 465Q307 467 312 468T332 470Q347 471
365 471T394 471Q401 471 408 471T424 472Q453 472 483 466T526 438Q532 429 534 418T537 394Q537 377 532 360T517 330Q491 295 444 278T355 258Q364 238 382 206T428 140Q440 125 453 119T479 112Q506 112 530 133T567 176Q598 222 611 276T621 383Q617 445 575
483T438 529Q434 529 430 529T422 530Q371 530 323 508T233 447T161 362T113 266T95 171ZM295 12Q363 12 420 40T521 114Q504 101 485 92T447 83Q431 83 415 91T383 120Q349 165 331 204T306 257Q306 257 313 266T326 275Q349 275 380 284T438 315T479 375Q484
392 484 404Q484 424 474 439T445 456Q441 457 437 457T428 457Q418 457 408 454T390 443Q364 409 341 362T298 277Q293 268 280 244T251 190T227 136T221 103Q221 102 221 102T222 101Q222 99 218 99Q213 99 208 101T194 104Q189 104 181 101Q174 97 159 90T129
78Q124 76 121 78Q141 50 177 34T271 13Q277 12 283 12T295 12Z" />
<glyph unicode="&#xaf;" glyph-name="overscore" horiz-adv-x="250" d="M125 379Q121 379 116 386T111 397L112 399Q120 401 136 402T170 403T195 404Q205 404 223 403T258 400T283 395Q284 394 285 394T286 393Q284 388 279 388Q241 388 202 384T125 379Z" />
<glyph unicode="&#xb0;" glyph-name="degree" horiz-adv-x="212" d="M156 275Q128 275 110 292T91 334Q91 366 118 390T180 414Q209 414 227 397T246 355Q246 334 233 316T200 286T156 275ZM161 304Q181 304 197 318T214 351Q214 365 203 375T175 386Q156 386
139 372T122 339Q122 325 133 315T161 304Z" />
<glyph unicode="&#xb1;" glyph-name="plusminus" horiz-adv-x="371" d="M176 112Q193 144 212 189T247 268Q212 268 169 268T92 264Q89 264 95 273T112 292T127 300Q139 298 162 297T212 296T258 296Q270 326 283 360T300 410Q302 415 316 421T344 430T356 430Q351
419 341 397T318 348T294 296Q323 296 355 296T415 298T454 299Q457 299 451 290T435 272T419 263Q409 264 385 265T333 267T282 268L281 264Q273 245 262 219T243 169T231 133Q230 128 216 122T188 112T176 112ZM331 8Q319 9 294 10T240 12T191 13Q156 13 109
13T27 9Q24 9 30 17T46 34T61 42Q73 40 97 39T147 38T193 37Q220 37 254 38T320 40T365 41Q368 41 361 33T345 16T331 8Z" />
<glyph unicode="&#xb2;" glyph-name="two.superior" horiz-adv-x="220" d="M-6 286Q9 300 43 329T112 393L120 401Q138 418 161 440T203 487T227 530Q230 538 230 545Q230 559 219 568T188 578Q163 578 145 568Q138 564 131 554T120 534Q119 529 117 519T116 506L92
494Q95 503 99 520T106 552T110 572Q110 579 115 583T124 589Q131 591 147 594T178 597L192 598Q227 600 244 591Q259 585 265 573T272 547Q272 533 267 520Q263 506 255 493T235 469Q210 442 171 411T96 353Q79 341 68 331Q58 324 58 323T61 321Q72 321 84 320T109
319Q130 319 148 321T177 329Q187 334 200 350T218 375L232 370Q231 369 220 352T202 321Q195 306 186 298T160 290Q150 290 132 291T98 292Q92 292 87 292T77 291Q77 291 54 290T-6 286Z" />
<glyph unicode="&#xb3;" glyph-name="three.superior" horiz-adv-x="220" d="M96 284Q80 284 60 286T29 295Q25 297 22 301T22 312Q25 318 31 337T41 370L58 377Q57 370 55 359T52 336Q52 321 59 314Q71 304 94 304Q137 304 162 329T196 385Q199 399 199 408Q199
427 185 435T149 445T105 448L120 466L133 468Q148 472 167 478T204 497T228 529Q231 537 231 544Q231 558 220 568T188 578Q163 578 146 568Q139 564 132 554T121 534Q120 529 118 519T116 506L92 494Q95 503 99 520T106 552T110 572Q110 579 115 583T125 589Q131
591 148 594T178 597L193 598Q227 600 244 591Q258 586 263 575T269 550Q269 523 252 504Q230 477 186 462Q185 461 188 461Q216 459 228 443T240 404Q240 370 218 337Q202 315 170 300T96 284Z" />
<glyph unicode="&#xb4;" glyph-name="acute" horiz-adv-x="129" d="M27 335Q26 335 27 338T28 342Q47 356 67 373T105 405Q109 409 120 418T143 435T159 444Q162 444 162 435Q162 429 161 422T158 413Q155 409 137 397T96 371T53 347T27 335Z" />
<glyph unicode="&#xb5;" glyph-name="uni03BC" horiz-adv-x="251" d="M-75 -387Q-112 -387 -138 -363T-164 -306Q-164 -302 -164 -299T-163 -291L-162 -289Q-156 -259 -136 -221T-87 -141T-32 -63T14 2Q47 51 77 102T118 208Q114 200 102 184T75 148T45 113T23
89Q22 89 22 89T20 88Q17 88 17 92Q17 92 17 92T18 93Q21 99 34 114T53 136Q73 161 90 186T120 239Q123 246 129 253T144 260Q151 260 153 255T155 241Q155 231 153 223Q148 192 132 158T96 90T61 25Q102 51 132 78T194 139L201 146Q204 154 209 168T222 197T235
217Q241 222 252 222Q256 222 262 221T268 214Q266 201 260 192T244 172Q231 144 222 116T207 59Q206 55 206 52T205 44Q205 35 209 29T226 22Q237 22 248 28T267 41T276 48Q278 48 278 44Q278 43 278 43T277 42Q265 29 245 17T207 5Q189 5 184 15T178 39Q178 45
178 51T180 62Q183 79 187 95T196 128Q166 88 127 59T45 3Q16 -42 -18 -96T-80 -205T-116 -309Q-117 -315 -117 -321T-118 -333Q-118 -350 -110 -364T-79 -378Q-61 -378 -37 -370T3 -352Q-7 -366 -32 -376T-75 -387Z" />
<glyph unicode="&#xb6;" glyph-name="paragraph" horiz-adv-x="494" d="M-158 -274Q-162 -274 -177 -272T-192 -261Q-193 -255 -183 -254T-170 -253Q-119 -253 -71 -223T21 -144T102 -39T168 69T214 158Q176 161 140 175T80 217T57 288Q57 313 65 336T87 378Q124
433 184 464T314 510T451 524Q470 524 488 525T524 530Q547 556 579 578T648 600Q656 600 665 599T675 587V585Q675 577 670 574T657 571Q631 571 608 555T566 517T535 476Q517 448 496 404T456 316T423 240Q403 195 373 134T304 10T218 -107T115 -194T-3 -225H-11Q-43
-248 -80 -261T-158 -274ZM8 -211Q47 -208 84 -184T154 -124T216 -46T267 36T303 106Q351 204 398 300T495 492L467 491Q431 466 398 418T333 306T268 172T196 31T111 -101T8 -211Z" />
<glyph unicode="&#xb7;" glyph-name="middot" horiz-adv-x="590" d="M304 175Q250 175 215 207T180 286Q180 327 204 362T267 418T350 439Q405 439 440 407T475 327Q475 286 451 252T387 196T304 175Z" />
<glyph unicode="&#xb8;" glyph-name="cedilla" horiz-adv-x="190" d="M-17 -215Q-23 -215 -23 -209Q-23 -205 -20 -203T-14 -201Q-9 -200 5 -200T37 -196T68 -181T86 -148Q88 -136 80 -123T62 -95T53 -65Q53 -40 72 -20T120 1H140Q119 -4 104 -19T88 -52Q88 -67
98 -80T117 -106T123 -139Q118 -166 94 -182T39 -207T-17 -215Z" />
<glyph unicode="&#xb9;" glyph-name="one.superior" horiz-adv-x="170" d="M87 294Q87 294 67 293T-1 288L11 305Q13 305 15 305T20 304Q32 304 48 308T71 325Q75 332 82 353T97 396T108 431V430L132 502Q142 535 142 543Q142 550 137 550Q133 550 126 545T110
534L98 524L82 513L83 525Q85 530 86 533T88 540L109 552L141 572Q150 578 165 587T193 604Q200 608 204 608Q208 608 208 604Q208 599 204 592Q192 567 181 537T156 461L146 427Q137 401 128 369T116 323Q115 314 125 310T149 306T167 305L153 288Q146 290 124
291T87 294Z" />
<glyph unicode="&#xba;" glyph-name="ordmasculine" horiz-adv-x="265" d="M50 305Q34 305 22 311T9 340Q9 375 27 410T64 473Q81 496 102 516T149 552Q165 562 192 573T239 585Q255 585 267 577T279 546Q279 512 262 477T225 414Q216 402 207 392T187 370Q224
370 255 391T309 444L311 446Q314 446 314 440Q314 433 310 427Q290 399 260 378T192 356Q188 356 184 356T176 357Q120 305 50 305ZM76 322Q90 322 106 332T132 351Q149 368 163 387T189 427Q203 451 217 484T231 546Q231 569 215 569Q202 569 184 558T156 538Q122
503 99 462Q86 439 71 408T56 351Q56 347 56 344T58 336Q62 322 76 322Z" />
<glyph unicode="&#xbb;" glyph-name="guillemotright" horiz-adv-x="355" d="M227 99Q220 99 222 104Q222 107 236 123T269 160T304 198T326 222Q322 228 312 242T289 274T269 305T261 325Q263 335 272 335L278 332Q295 304 318 286T366 247Q368 245 368 242Q367
237 351 218T312 176T270 133T244 107Q240 104 236 102T227 99ZM95 99Q88 99 90 104Q90 107 104 123T137 160T172 198T194 222Q190 228 180 242T157 274T137 305T129 325Q131 335 140 335L146 332Q163 304 186 286T234 247Q236 245 236 242Q235 237 219 218T180
176T138 133T112 107Q108 104 104 102T95 99Z" />
<glyph unicode="&#xbc;" glyph-name="onequarter" horiz-adv-x="985" d="M262 -32Q253 -32 247 -31T243 -25Q287 37 342 109T455 257T568 400T670 524T745 610Q747 612 756 612T776 613Q790 613 803 613T814 610Q792 587 751 540T657 430T550 301T442 171T349
56T286 -26Q284 -29 277 -30T262 -32Z" />
<glyph unicode="&#xbd;" glyph-name="onehalf" horiz-adv-x="657" d="M-17 -32Q-24 -32 -29 -31T-31 -25Q26 37 95 109T238 257T381 400T507 524T600 610Q602 612 608 612T622 613Q632 613 640 613T647 610Q624 590 584 552T492 464T384 358T270 245T162 136T70
42T5 -26Q2 -29 -4 -30T-17 -32ZM126 294Q126 294 106 293T38 288L50 305Q52 305 54 305T59 304Q71 304 87 308T110 325Q114 332 121 353T136 396T147 431V430L171 502Q181 535 181 543Q181 550 176 550Q172 550 165 545T149 534L137 524L121 513L122 525Q124 530
125 533T127 540L148 552L180 572Q189 578 204 587T232 604Q239 608 243 608Q247 608 247 604Q247 599 243 592Q231 567 220 537T195 461L185 427Q176 401 167 369T155 323Q154 314 164 310T188 306T206 305L192 288Q185 290 163 291T126 294ZM327 -4Q342 10 376
39T445 103L453 111Q471 128 494 150T536 197T560 240Q563 248 563 255Q563 269 552 278T521 288Q496 288 478 278Q471 274 464 264T453 244Q452 239 450 229T449 216L425 204Q428 213 432 230T439 262T443 282Q443 289 448 293T457 299Q464 301 480 304T511 307L525
308Q560 310 577 301Q592 295 598 283T605 257Q605 243 600 230Q596 216 588 203T568 179Q543 152 504 121T429 63Q412 51 401 41Q391 34 391 33T394 31Q405 31 417 30T442 29Q463 29 481 31T510 39Q520 44 533 60T551 85L565 80Q564 79 553 62T535 31Q528 16 519
8T493 0Q483 0 465 1T431 2Q425 2 420 2T410 1Q410 1 387 0T327 -4Z" />
<glyph unicode="&#xbe;" glyph-name="threequarters" horiz-adv-x="698" d="M31 -32Q24 -32 19 -31T17 -25Q74 37 143 109T286 257T429 400T555 524T648 610Q650 612 656 612T670 613Q680 613 688 613T695 610Q672 590 632 552T540 464T432 358T318 245T210 136T118
42T53 -26Q50 -29 44 -30T31 -32ZM96 284Q80 284 60 286T29 295Q25 297 22 301T22 312Q25 318 31 337T41 370L58 377Q57 370 55 359T52 336Q52 321 59 314Q71 304 94 304Q137 304 162 329T196 385Q199 399 199 408Q199 427 185 435T149 445T105 448L120 466L133
468Q148 472 167 478T204 497T228 529Q231 537 231 544Q231 558 220 568T188 578Q163 578 146 568Q139 564 132 554T121 534Q120 529 118 519T116 506L92 494Q95 503 99 520T106 552T110 572Q110 579 115 583T125 589Q131 591 148 594T178 597L193 598Q227 600
244 591Q258 586 263 575T269 550Q269 523 252 504Q230 477 186 462Q185 461 188 461Q216 459 228 443T240 404Q240 370 218 337Q202 315 170 300T96 284ZM493 4Q493 4 473 3T406 -2L419 15Q421 15 423 15T427 14Q438 14 454 18T478 35Q481 40 487 55T499 88H465Q465
88 438 88T372 85Q359 85 359 89Q359 93 367 99Q375 104 387 115T411 140L426 157L506 241Q514 249 521 256T533 270Q551 293 558 295Q571 299 580 304Q590 309 598 312T610 315Q614 315 614 312Q614 310 611 302Q600 280 589 249T563 171L546 120Q556 121 563
122T572 125Q584 131 599 147T619 171L629 168L631 162Q630 161 619 145T602 118Q594 102 584 94T554 87H536Q532 70 529 56T523 33Q522 24 533 20T557 16T575 15L559 -2Q553 0 531 1T493 4ZM482 117Q489 117 495 117T507 118L510 123Q512 128 514 135T515 140L538
212Q544 229 548 243T551 262Q541 254 520 233T477 186T437 143L421 125Q416 120 422 119Q433 118 449 118T482 117Z" />
<glyph unicode="&#xbf;" glyph-name="questiondown" horiz-adv-x="446" d="M350 414Q343 419 335 423T317 426H313Q308 426 308 429Q308 432 315 439Q324 447 333 454T351 462Q362 462 372 455T388 440Q390 439 381 433T362 420T350 414ZM119 -115Q67 -115 38
-96T8 -34Q8 -21 11 -8Q18 32 41 57T97 100T163 134T229 170T279 220Q293 242 300 261T308 296Q308 315 298 326L309 342Q334 314 334 276Q334 250 317 226T279 184L113 52Q93 36 83 16T73 -24Q73 -43 82 -59T111 -83Q126 -90 150 -90Q171 -90 192 -84T230 -67Q240
-60 251 -44T271 -9T285 27Q285 36 296 41T305 36Q302 22 298 2T290 -37T287 -66Q287 -76 279 -83T265 -94Q253 -99 224 -104T172 -112L144 -114Q137 -115 131 -115T119 -115Z" />
<glyph unicode="&#xc0;" glyph-name="Agrave" horiz-adv-x="768" d="M87 -25Q56 -25 37 -7T21 47Q22 60 27 74T40 103Q46 117 52 117Q57 117 53 109Q40 82 40 61Q40 39 55 28T96 17Q145 17 204 48T326 129T447 233Q408 235 374 237T314 239Q292 239 261 235T213
214Q206 207 201 194T195 166Q195 162 195 159T197 151Q193 153 183 154T169 167Q168 170 168 177Q168 193 180 203T209 222T240 236Q273 250 308 259T379 268Q420 268 481 265Q528 311 568 352T633 420Q668 457 707 483T788 521H733Q698 521 657 518T580 505T520
475Q505 462 498 446T490 415Q490 396 501 389Q502 389 502 389T502 388Q502 385 495 382T485 380Q475 387 468 408T462 443Q467 474 489 493T545 524T616 539T688 544T747 545H856Q858 545 857 544Q882 555 909 566T957 577Q962 577 967 574T973 568Q973 563 953
563Q943 563 933 560T905 538Q891 524 870 493T824 421T774 333T726 241T686 158Q684 152 675 131T658 84T650 38Q650 11 669 11Q678 11 687 15Q700 20 714 30T741 53Q767 78 785 101T807 130Q810 135 814 135Q818 135 818 130Q818 127 815 122Q808 112 789 88T745
38T690 0Q681 -4 671 -6T651 -9Q631 -9 615 5T598 51Q598 80 609 113T631 168Q651 211 678 264T735 370T790 466T831 530Q815 530 788 518T731 485T674 437Q643 405 603 359T515 263Q538 262 561 262T607 261Q623 261 642 264T679 276Q679 276 674 266T656 245T622
232Q603 231 584 231T546 230Q530 230 515 230T484 231Q438 183 388 138T287 55T186 -3T87 -25ZM903 647Q884 653 858 662T807 681T770 698Q767 700 764 706T760 719Q760 728 765 728Q770 728 782 722T813 706Q840 692 861 681T906 657Q907 655 906 652T903 647Z"
/>
<glyph unicode="&#xc1;" glyph-name="Aacute" horiz-adv-x="768" d="M87 -25Q56 -25 37 -7T21 47Q22 60 27 74T40 103Q46 117 52 117Q57 117 53 109Q40 82 40 61Q40 39 55 28T96 17Q145 17 204 48T326 129T447 233Q408 235 374 237T314 239Q292 239 261 235T213
214Q206 207 201 194T195 166Q195 162 195 159T197 151Q193 153 183 154T169 167Q168 170 168 177Q168 193 180 203T209 222T240 236Q273 250 308 259T379 268Q420 268 481 265Q528 311 568 352T633 420Q668 457 707 483T788 521H733Q698 521 657 518T580 505T520
475Q505 462 498 446T490 415Q490 396 501 389Q502 389 502 389T502 388Q502 385 495 382T485 380Q475 387 468 408T462 443Q467 474 489 493T545 524T616 539T688 544T747 545H856Q858 545 857 544Q882 555 909 566T957 577Q962 577 967 574T973 568Q973 563 953
563Q943 563 933 560T905 538Q891 524 870 493T824 421T774 333T726 241T686 158Q684 152 675 131T658 84T650 38Q650 11 669 11Q678 11 687 15Q700 20 714 30T741 53Q767 78 785 101T807 130Q810 135 814 135Q818 135 818 130Q818 127 815 122Q808 112 789 88T745
38T690 0Q681 -4 671 -6T651 -9Q631 -9 615 5T598 51Q598 80 609 113T631 168Q651 211 678 264T735 370T790 466T831 530Q815 530 788 518T731 485T674 437Q643 405 603 359T515 263Q538 262 561 262T607 261Q623 261 642 264T679 276Q679 276 674 266T656 245T622
232Q603 231 584 231T546 230Q530 230 515 230T484 231Q438 183 388 138T287 55T186 -3T87 -25ZM797 647Q791 649 793 656Q816 668 839 680T895 710Q906 716 919 723T936 729Q938 728 940 726T941 719Q939 702 931 698Q919 691 895 682T843 663T797 647Z" />
<glyph unicode="&#xc2;" glyph-name="Acircumflex" horiz-adv-x="768" d="M87 -25Q56 -25 37 -7T21 47Q22 60 27 74T40 103Q46 117 52 117Q57 117 53 109Q40 82 40 61Q40 39 55 28T96 17Q145 17 204 48T326 129T447 233Q408 235 374 237T314 239Q292 239 261 235T213
214Q206 207 201 194T195 166Q195 162 195 159T197 151Q193 153 183 154T169 167Q168 170 168 177Q168 193 180 203T209 222T240 236Q273 250 308 259T379 268Q420 268 481 265Q528 311 568 352T633 420Q668 457 707 483T788 521H733Q698 521 657 518T580 505T520
475Q505 462 498 446T490 415Q490 396 501 389Q502 389 502 389T502 388Q502 385 495 382T485 380Q475 387 468 408T462 443Q467 474 489 493T545 524T616 539T688 544T747 545H856Q858 545 857 544Q882 555 909 566T957 577Q962 577 967 574T973 568Q973 563 953
563Q943 563 933 560T905 538Q891 524 870 493T824 421T774 333T726 241T686 158Q684 152 675 131T658 84T650 38Q650 11 669 11Q678 11 687 15Q700 20 714 30T741 53Q767 78 785 101T807 130Q810 135 814 135Q818 135 818 130Q818 127 815 122Q808 112 789 88T745
38T690 0Q681 -4 671 -6T651 -9Q631 -9 615 5T598 51Q598 80 609 113T631 168Q651 211 678 264T735 370T790 466T831 530Q815 530 788 518T731 485T674 437Q643 405 603 359T515 263Q538 262 561 262T607 261Q623 261 642 264T679 276Q679 276 674 266T656 245T622
232Q603 231 584 231T546 230Q530 230 515 230T484 231Q438 183 388 138T287 55T186 -3T87 -25ZM940 643Q930 638 910 655Q899 665 884 681T863 702Q858 710 851 705Q846 701 830 690T796 667T770 651Q758 645 750 649Q779 669 808 690T863 733H875Q885 717 903
697T943 663Q947 661 951 658T961 655V652Q958 651 950 648T940 643Z" />
<glyph unicode="&#xc3;" glyph-name="Atilde" horiz-adv-x="768" d="M87 -25Q56 -25 37 -7T21 47Q22 60 27 74T40 103Q46 117 52 117Q57 117 53 109Q40 82 40 61Q40 39 55 28T96 17Q145 17 204 48T326 129T447 233Q408 235 374 237T314 239Q292 239 261 235T213
214Q206 207 201 194T195 166Q195 162 195 159T197 151Q193 153 183 154T169 167Q168 170 168 177Q168 193 180 203T209 222T240 236Q273 250 308 259T379 268Q420 268 481 265Q528 311 568 352T633 420Q668 457 707 483T788 521H733Q698 521 657 518T580 505T520
475Q505 462 498 446T490 415Q490 396 501 389Q502 389 502 389T502 388Q502 385 495 382T485 380Q475 387 468 408T462 443Q467 474 489 493T545 524T616 539T688 544T747 545H856Q858 545 857 544Q882 555 909 566T957 577Q962 577 967 574T973 568Q973 563 953
563Q943 563 933 560T905 538Q891 524 870 493T824 421T774 333T726 241T686 158Q684 152 675 131T658 84T650 38Q650 11 669 11Q678 11 687 15Q700 20 714 30T741 53Q767 78 785 101T807 130Q810 135 814 135Q818 135 818 130Q818 127 815 122Q808 112 789 88T745
38T690 0Q681 -4 671 -6T651 -9Q631 -9 615 5T598 51Q598 80 609 113T631 168Q651 211 678 264T735 370T790 466T831 530Q815 530 788 518T731 485T674 437Q643 405 603 359T515 263Q538 262 561 262T607 261Q623 261 642 264T679 276Q679 276 674 266T656 245T622
232Q603 231 584 231T546 230Q530 230 515 230T484 231Q438 183 388 138T287 55T186 -3T87 -25ZM885 641Q869 641 843 654Q817 668 804 668Q789 668 776 655Q763 642 759 642Q758 643 758 644Q758 658 793 685Q806 695 823 695Q835 695 862 684Q886 674 901 674Q920
674 935 695Q940 695 940 691Q940 676 907 649Q897 641 885 641Z" />
<glyph unicode="&#xc4;" glyph-name="Adieresis" horiz-adv-x="768" d="M87 -25Q56 -25 37 -7T21 47Q22 60 27 74T40 103Q46 117 52 117Q57 117 53 109Q40 82 40 61Q40 39 55 28T96 17Q145 17 204 48T326 129T447 233Q408 235 374 237T314 239Q292 239 261 235T213
214Q206 207 201 194T195 166Q195 162 195 159T197 151Q193 153 183 154T169 167Q168 170 168 177Q168 193 180 203T209 222T240 236Q273 250 308 259T379 268Q420 268 481 265Q528 311 568 352T633 420Q668 457 707 483T788 521H733Q698 521 657 518T580 505T520
475Q505 462 498 446T490 415Q490 396 501 389Q502 389 502 389T502 388Q502 385 495 382T485 380Q475 387 468 408T462 443Q467 474 489 493T545 524T616 539T688 544T747 545H856Q858 545 857 544Q882 555 909 566T957 577Q962 577 967 574T973 568Q973 563 953
563Q943 563 933 560T905 538Q891 524 870 493T824 421T774 333T726 241T686 158Q684 152 675 131T658 84T650 38Q650 11 669 11Q678 11 687 15Q700 20 714 30T741 53Q767 78 785 101T807 130Q810 135 814 135Q818 135 818 130Q818 127 815 122Q808 112 789 88T745
38T690 0Q681 -4 671 -6T651 -9Q631 -9 615 5T598 51Q598 80 609 113T631 168Q651 211 678 264T735 370T790 466T831 530Q815 530 788 518T731 485T674 437Q643 405 603 359T515 263Q538 262 561 262T607 261Q623 261 642 264T679 276Q679 276 674 266T656 245T622
232Q603 231 584 231T546 230Q530 230 515 230T484 231Q438 183 388 138T287 55T186 -3T87 -25ZM788 651Q768 651 751 673Q751 676 763 684T780 695Q788 699 790 699Q795 696 804 693T822 688T831 684Q830 680 825 674Q797 651 788 651ZM904 651Q884 651 867 673Q867
676 879 684T896 695Q904 699 906 699Q911 696 920 693T938 688T947 684Q946 680 941 674Q913 651 904 651Z" />
<glyph unicode="&#xc5;" glyph-name="Aring" horiz-adv-x="768" d="M87 -25Q56 -25 37 -7T21 47Q22 60 27 74T40 103Q46 117 52 117Q57 117 53 109Q40 82 40 61Q40 39 55 28T96 17Q145 17 204 48T326 129T447 233Q408 235 374 237T314 239Q292 239 261 235T213
214Q206 207 201 194T195 166Q195 162 195 159T197 151Q193 153 183 154T169 167Q168 170 168 177Q168 193 180 203T209 222T240 236Q273 250 308 259T379 268Q420 268 481 265Q528 311 568 352T633 420Q668 457 707 483T788 521H733Q698 521 657 518T580 505T520
475Q505 462 498 446T490 415Q490 396 501 389Q502 389 502 389T502 388Q502 385 495 382T485 380Q475 387 468 408T462 443Q467 474 489 493T545 524T616 539T688 544T747 545H856Q858 545 857 544Q882 555 909 566T957 577Q962 577 967 574T973 568Q973 563 953
563Q943 563 933 560T905 538Q891 524 870 493T824 421T774 333T726 241T686 158Q684 152 675 131T658 84T650 38Q650 11 669 11Q678 11 687 15Q700 20 714 30T741 53Q767 78 785 101T807 130Q810 135 814 135Q818 135 818 130Q818 127 815 122Q808 112 789 88T745
38T690 0Q681 -4 671 -6T651 -9Q631 -9 615 5T598 51Q598 80 609 113T631 168Q651 211 678 264T735 370T790 466T831 530Q815 530 788 518T731 485T674 437Q643 405 603 359T515 263Q538 262 561 262T607 261Q623 261 642 264T679 276Q679 276 674 266T656 245T622
232Q603 231 584 231T546 230Q530 230 515 230T484 231Q438 183 388 138T287 55T186 -3T87 -25ZM846 637Q816 637 816 662Q816 669 822 682T837 708T859 724Q867 735 880 742T906 750Q922 750 929 741T937 718Q937 698 923 680T889 649T846 637ZM858 652Q879 652
896 671T916 708Q916 710 916 712T917 716Q917 724 914 729T902 735Q895 735 889 732T876 725L884 721Q875 705 863 696T847 667V664Q847 652 858 652Z" />
<glyph unicode="&#xc6;" glyph-name="AE" horiz-adv-x="1079" d="M87 -25Q56 -25 37 -7T21 47Q22 60 27 74T40 103Q46 117 52 117Q57 117 53 109Q40 82 40 61Q40 39 55 28T96 17Q145 17 204 48T326 129T447 233Q408 235 374 237T314 239Q292 239 261 235T213 214Q206
207 201 194T195 166Q195 162 195 159T197 151Q193 153 183 154T169 167Q168 170 168 177Q168 193 180 203T209 222T240 236Q273 250 308 259T379 268Q420 268 481 265Q528 311 568 352T633 420Q668 457 707 483T788 521H733Q698 521 657 518T580 505T520 475Q505
462 498 446T490 415Q490 396 501 389Q502 389 502 389T502 388Q502 385 495 382T485 380Q475 387 468 408T462 443Q467 474 489 493T545 524T616 539T688 544T747 545H860Q884 556 911 566T957 577Q965 577 971 572T968 564Q954 562 944 562T913 546Q940 546 960
547T1002 548Q1028 548 1074 545Q1099 544 1108 535T1118 513Q1118 497 1108 477T1088 439Q1084 431 1075 428T1068 433Q1073 453 1073 473Q1073 491 1067 505T1042 526Q1025 531 989 531Q976 531 963 531T935 529Q895 526 881 508Q848 462 818 409T759 307Q758
305 758 302Q758 296 767 296Q802 296 842 295T914 295Q921 296 935 297T965 301T989 308Q994 311 995 311Q1001 311 996 300T978 277T949 265Q900 265 867 267T792 269Q782 269 771 269T747 268Q737 267 733 260Q723 242 716 227T697 192Q689 177 678 154T657
106T648 63Q648 32 677 21T748 8Q806 8 862 19T968 58T1055 133Q1057 135 1058 135Q1061 135 1062 130T1061 121Q1030 83 1001 48T943 3Q922 -3 875 -7T771 -12Q739 -12 706 -11T641 -5Q570 1 570 41Q570 61 586 89L634 175Q655 218 682 270T737 374T791 467T831
530Q815 530 788 518T731 485T674 437Q643 405 603 359T515 263Q538 262 561 262T607 261Q623 261 642 264T679 276Q679 276 674 266T656 245T622 232Q603 231 584 231T546 230Q530 230 515 230T484 231Q438 183 388 138T287 55T186 -3T87 -25Z" />
<glyph unicode="&#xc7;" glyph-name="Ccedilla" horiz-adv-x="527" d="M73 -233Q67 -233 67 -225Q67 -222 70 -221T76 -219Q81 -219 95 -219T127 -215T158 -200T176 -166Q178 -154 170 -141T152 -113T143 -83Q143 -65 154 -49T182 -23Q122 -12 80 25T38 135Q38
200 63 262T130 377T224 470Q270 505 330 527T451 549Q476 549 498 546T543 531Q563 522 575 509T587 478Q587 476 587 473T586 468Q582 452 568 432T545 389Q544 385 534 383T526 384Q534 397 538 416T543 454Q543 468 541 480T532 502Q522 520 501 527T456 534Q433
534 410 529T370 518Q312 497 259 452Q212 411 176 357T118 246T97 137Q97 84 120 53T180 9T260 -4Q298 -4 335 4T404 24Q457 44 499 73T579 148Q584 153 586 153Q589 153 589 149Q589 141 581 130Q547 84 504 53T412 2Q379 -11 336 -20T248 -29Q227 -29 207 -27Q194
-35 186 -46T178 -70Q178 -85 188 -98T207 -124T213 -157Q208 -184 184 -200T129 -225T73 -233Z" />
<glyph unicode="&#xc8;" glyph-name="Egrave" horiz-adv-x="478" d="M234 -12Q202 -12 169 -11T104 -5Q33 1 33 41Q33 61 49 89Q87 158 127 226T206 364Q218 386 237 419T275 482Q284 496 301 510T336 529Q315 528 283 526T217 519T157 502T119 470Q115 461 112
452T109 434Q109 411 125 401Q126 401 126 399Q126 397 123 395T116 394Q107 399 94 418T78 451Q75 463 75 473Q75 499 92 513T135 534T188 542T236 544Q289 544 342 545T447 547Q470 547 492 547T537 545Q562 544 571 535T581 513Q581 497 571 477T551 439Q547
431 538 428T531 433Q536 453 536 473Q536 491 530 505T505 526Q488 531 452 531Q439 531 426 531T398 529Q358 526 344 508Q311 462 281 409T222 307Q221 305 221 302Q221 296 230 296Q265 296 305 295T377 295Q384 296 398 297T428 301T452 308Q457 311 458 311Q464
311 459 300T441 277T412 265Q363 265 330 267T255 269Q245 269 234 269T210 268Q200 267 196 260Q186 242 179 227T160 192Q152 177 141 154T120 106T111 63Q111 32 140 21T211 8Q269 8 325 19T431 58T518 133Q520 135 521 135Q524 135 525 130T524 121Q493 83
464 48T406 3Q385 -3 338 -7T234 -12ZM492 614Q473 620 447 629T396 648T359 665Q356 667 353 673T349 686Q349 695 354 695Q359 695 371 689T402 673Q429 659 450 648T495 624Q496 622 495 619T492 614Z" />
<glyph unicode="&#xc9;" glyph-name="Eacute" horiz-adv-x="478" d="M234 -12Q202 -12 169 -11T104 -5Q33 1 33 41Q33 61 49 89Q87 158 127 226T206 364Q218 386 237 419T275 482Q284 496 301 510T336 529Q315 528 283 526T217 519T157 502T119 470Q115 461 112
452T109 434Q109 411 125 401Q126 401 126 399Q126 397 123 395T116 394Q107 399 94 418T78 451Q75 463 75 473Q75 499 92 513T135 534T188 542T236 544Q289 544 342 545T447 547Q470 547 492 547T537 545Q562 544 571 535T581 513Q581 497 571 477T551 439Q547
431 538 428T531 433Q536 453 536 473Q536 491 530 505T505 526Q488 531 452 531Q439 531 426 531T398 529Q358 526 344 508Q311 462 281 409T222 307Q221 305 221 302Q221 296 230 296Q265 296 305 295T377 295Q384 296 398 297T428 301T452 308Q457 311 458 311Q464
311 459 300T441 277T412 265Q363 265 330 267T255 269Q245 269 234 269T210 268Q200 267 196 260Q186 242 179 227T160 192Q152 177 141 154T120 106T111 63Q111 32 140 21T211 8Q269 8 325 19T431 58T518 133Q520 135 521 135Q524 135 525 130T524 121Q493 83
464 48T406 3Q385 -3 338 -7T234 -12ZM386 614Q380 616 382 623Q405 635 428 647T484 677Q495 683 508 690T525 696Q527 695 529 693T530 686Q528 669 520 665Q508 658 484 649T432 630T386 614Z" />
<glyph unicode="&#xca;" glyph-name="Ecircumflex" horiz-adv-x="478" d="M234 -12Q202 -12 169 -11T104 -5Q33 1 33 41Q33 61 49 89Q87 158 127 226T206 364Q218 386 237 419T275 482Q284 496 301 510T336 529Q315 528 283 526T217 519T157 502T119 470Q115 461
112 452T109 434Q109 411 125 401Q126 401 126 399Q126 397 123 395T116 394Q107 399 94 418T78 451Q75 463 75 473Q75 499 92 513T135 534T188 542T236 544Q289 544 342 545T447 547Q470 547 492 547T537 545Q562 544 571 535T581 513Q581 497 571 477T551 439Q547
431 538 428T531 433Q536 453 536 473Q536 491 530 505T505 526Q488 531 452 531Q439 531 426 531T398 529Q358 526 344 508Q311 462 281 409T222 307Q221 305 221 302Q221 296 230 296Q265 296 305 295T377 295Q384 296 398 297T428 301T452 308Q457 311 458 311Q464
311 459 300T441 277T412 265Q363 265 330 267T255 269Q245 269 234 269T210 268Q200 267 196 260Q186 242 179 227T160 192Q152 177 141 154T120 106T111 63Q111 32 140 21T211 8Q269 8 325 19T431 58T518 133Q520 135 521 135Q524 135 525 130T524 121Q493 83
464 48T406 3Q385 -3 338 -7T234 -12ZM529 610Q519 605 499 622Q488 632 473 648T452 669Q447 677 440 672Q435 668 419 657T385 634T359 618Q347 612 339 616Q368 636 397 657T452 700H464Q474 684 492 664T532 630Q536 628 540 625T550 622V619Q547 618 539 615T529
610Z" />
<glyph unicode="&#xcb;" glyph-name="Edieresis" horiz-adv-x="478" d="M234 -12Q202 -12 169 -11T104 -5Q33 1 33 41Q33 61 49 89Q87 158 127 226T206 364Q218 386 237 419T275 482Q284 496 301 510T336 529Q315 528 283 526T217 519T157 502T119 470Q115 461
112 452T109 434Q109 411 125 401Q126 401 126 399Q126 397 123 395T116 394Q107 399 94 418T78 451Q75 463 75 473Q75 499 92 513T135 534T188 542T236 544Q289 544 342 545T447 547Q470 547 492 547T537 545Q562 544 571 535T581 513Q581 497 571 477T551 439Q547
431 538 428T531 433Q536 453 536 473Q536 491 530 505T505 526Q488 531 452 531Q439 531 426 531T398 529Q358 526 344 508Q311 462 281 409T222 307Q221 305 221 302Q221 296 230 296Q265 296 305 295T377 295Q384 296 398 297T428 301T452 308Q457 311 458 311Q464
311 459 300T441 277T412 265Q363 265 330 267T255 269Q245 269 234 269T210 268Q200 267 196 260Q186 242 179 227T160 192Q152 177 141 154T120 106T111 63Q111 32 140 21T211 8Q269 8 325 19T431 58T518 133Q520 135 521 135Q524 135 525 130T524 121Q493 83
464 48T406 3Q385 -3 338 -7T234 -12ZM377 618Q357 618 340 640Q340 643 352 651T369 662Q377 666 379 666Q384 663 393 660T411 655T420 651Q419 647 414 641Q386 618 377 618ZM493 618Q473 618 456 640Q456 643 468 651T485 662Q493 666 495 666Q500 663 509
660T527 655T536 651Q535 647 530 641Q502 618 493 618Z" />
<glyph unicode="&#xcc;" glyph-name="Igrave" horiz-adv-x="365" d="M120 -10Q89 -10 61 7T19 61Q14 74 12 88T10 117Q10 131 15 131Q21 131 21 123Q21 76 44 52T103 28Q138 28 171 48T232 99Q277 149 309 200T367 306T421 420Q435 450 455 476T501 519H471Q456
519 430 517T376 508T331 485T315 442Q316 434 321 421T327 404L317 396Q311 407 302 421T286 450T277 471Q276 481 278 497T294 525Q309 538 335 542T390 546Q417 546 442 544T483 542L643 543L630 528Q620 528 602 527T563 521Q539 517 508 495T455 435L446 420Q431
386 412 339T370 240T318 140T256 55Q231 28 193 9T120 -10ZM537 612Q518 618 492 627T441 646T404 663Q401 665 398 671T394 684Q394 693 399 693Q404 693 416 687T447 671Q474 657 495 646T540 622Q541 620 540 617T537 612Z" />
<glyph unicode="&#xcd;" glyph-name="Iacute" horiz-adv-x="365" d="M120 -10Q89 -10 61 7T19 61Q14 74 12 88T10 117Q10 131 15 131Q21 131 21 123Q21 76 44 52T103 28Q138 28 171 48T232 99Q277 149 309 200T367 306T421 420Q435 450 455 476T501 519H471Q456
519 430 517T376 508T331 485T315 442Q316 434 321 421T327 404L317 396Q311 407 302 421T286 450T277 471Q276 481 278 497T294 525Q309 538 335 542T390 546Q417 546 442 544T483 542L643 543L630 528Q620 528 602 527T563 521Q539 517 508 495T455 435L446 420Q431
386 412 339T370 240T318 140T256 55Q231 28 193 9T120 -10ZM431 612Q425 614 427 621Q450 633 473 645T529 675Q540 681 553 688T570 694Q572 693 574 691T575 684Q573 667 565 663Q553 656 529 647T477 628T431 612Z" />
<glyph unicode="&#xce;" glyph-name="Icircumflex" horiz-adv-x="365" d="M120 -10Q89 -10 61 7T19 61Q14 74 12 88T10 117Q10 131 15 131Q21 131 21 123Q21 76 44 52T103 28Q138 28 171 48T232 99Q277 149 309 200T367 306T421 420Q435 450 455 476T501 519H471Q456
519 430 517T376 508T331 485T315 442Q316 434 321 421T327 404L317 396Q311 407 302 421T286 450T277 471Q276 481 278 497T294 525Q309 538 335 542T390 546Q417 546 442 544T483 542L643 543L630 528Q620 528 602 527T563 521Q539 517 508 495T455 435L446 420Q431
386 412 339T370 240T318 140T256 55Q231 28 193 9T120 -10ZM574 608Q564 603 544 620Q533 630 518 646T497 667Q492 675 485 670Q480 666 464 655T430 632T404 616Q392 610 384 614Q413 634 442 655T497 698H509Q519 682 537 662T577 628Q581 626 585 623T595
620V617Q592 616 584 613T574 608Z" />
<glyph unicode="&#xcf;" glyph-name="Idieresis" horiz-adv-x="365" d="M120 -10Q89 -10 61 7T19 61Q14 74 12 88T10 117Q10 131 15 131Q21 131 21 123Q21 76 44 52T103 28Q138 28 171 48T232 99Q277 149 309 200T367 306T421 420Q435 450 455 476T501 519H471Q456
519 430 517T376 508T331 485T315 442Q316 434 321 421T327 404L317 396Q311 407 302 421T286 450T277 471Q276 481 278 497T294 525Q309 538 335 542T390 546Q417 546 442 544T483 542L643 543L630 528Q620 528 602 527T563 521Q539 517 508 495T455 435L446 420Q431
386 412 339T370 240T318 140T256 55Q231 28 193 9T120 -10ZM422 616Q402 616 385 638Q385 641 397 649T414 660Q422 664 424 664Q429 661 438 658T456 653T465 649Q464 645 459 639Q431 616 422 616ZM538 616Q518 616 501 638Q501 641 513 649T530 660Q538 664
540 664Q545 661 554 658T572 653T581 649Q580 645 575 639Q547 616 538 616Z" />
<glyph unicode="&#xd0;" glyph-name="Eth" horiz-adv-x="626" d="M10 -19Q8 -19 3 -18T-2 -13Q-2 -12 -1 -11T0 -10Q7 -8 7 -8T6 -8T13 -7Q30 -1 42 10T64 38Q93 87 121 137T176 238Q157 237 139 237T101 234Q99 234 104 242T118 259T131 267Q141 265 156 264T189
262L240 357Q252 378 263 400T285 444Q290 456 295 468T308 491Q316 505 333 515T367 531H343Q323 531 289 529T216 520T149 502T108 470Q98 452 98 435Q98 415 107 408T116 399Q116 397 113 395T108 393Q102 393 93 405T77 431T67 451Q64 462 64 473Q64 500 82
514T128 535T182 542T228 544Q278 544 328 546T427 549Q474 549 519 543T602 517T661 463T684 371Q684 319 665 265T616 167Q494 -16 274 -16Q240 -16 205 -9T138 14Q131 18 124 20T108 23Q91 23 74 13T41 -8T10 -19ZM262 -2Q337 -2 402 27T516 108T593 229Q606
261 614 296T623 365Q623 443 576 485T451 528Q432 528 412 524T378 505Q365 489 354 470T331 433Q308 393 288 351T246 267L243 262Q268 262 287 263T321 266Q324 266 319 258T305 241T292 233Q279 234 264 235T230 238L181 140Q174 126 167 112T152 83Q150 78
148 73T146 60Q146 47 154 38T171 21Q190 7 215 3T262 -2Z" />
<glyph unicode="&#xd1;" glyph-name="Ntilde" horiz-adv-x="721" d="M577 -30Q574 -30 572 -28T570 -25Q577 -16 581 -6T590 16Q577 86 556 162T510 314T463 460Q456 455 449 436T438 408Q425 374 408 329T369 235T321 140T262 55Q247 36 221 22T167 -1T116 -10Q85
-10 57 7T14 61Q10 74 8 88T6 117Q6 131 11 131Q16 131 16 123Q16 76 42 45T104 14Q139 14 174 31T237 78Q282 128 313 184T368 300T417 420Q432 458 459 486T522 521H467Q432 521 393 518T322 505T276 475Q268 463 268 446Q268 428 277 412T300 389Q302 387 302
387Q302 384 298 382T288 380Q280 385 268 396T247 421T234 443Q230 455 230 467Q230 491 247 506T293 529T353 540T416 544T468 545H589Q594 546 590 538T579 523T568 515Q558 516 538 512T509 501Q512 463 523 412T551 305T586 192T625 86Q641 124 661 179T703
296T750 416T799 521T848 589Q860 600 877 606T909 613Q923 613 933 607T942 586L941 550Q941 549 936 548T932 548Q933 561 922 566T904 572Q883 573 860 546T811 475T762 379T717 274T678 177T650 108Q640 87 640 67Q640 64 640 61T641 55Q641 51 642 46T645
36Q645 35 645 34T646 31Q646 23 638 17Q628 10 616 5Q609 2 597 -10T581 -28Q579 -30 577 -30ZM723 624Q707 624 681 637Q655 651 642 651Q627 651 614 638Q601 625 597 625Q596 626 596 627Q596 641 631 668Q644 678 661 678Q673 678 700 667Q724 657 739 657Q758
657 773 678Q778 678 778 674Q778 659 745 632Q735 624 723 624Z" />
<glyph unicode="&#xd2;" glyph-name="Ograve" horiz-adv-x="594" d="M232 -12Q192 -12 152 -6T80 18T27 66T7 146Q7 187 23 240T73 348T155 450T270 525T418 554Q538 554 593 516T648 396Q648 317 616 244T526 113T393 22T232 -12ZM224 3Q285 3 340 26T441 90T520
183T572 292T591 405Q591 467 552 503T420 539Q367 539 315 513T217 442T136 345T80 238T60 137Q60 74 97 39T224 3ZM526 630Q507 636 481 645T430 664T393 681Q390 683 387 689T383 702Q383 711 388 711Q393 711 405 705T436 689Q463 675 484 664T529 640Q530
638 529 635T526 630Z" />
<glyph unicode="&#xd3;" glyph-name="Oacute" horiz-adv-x="594" d="M232 -12Q192 -12 152 -6T80 18T27 66T7 146Q7 187 23 240T73 348T155 450T270 525T418 554Q538 554 593 516T648 396Q648 317 616 244T526 113T393 22T232 -12ZM224 3Q285 3 340 26T441 90T520
183T572 292T591 405Q591 467 552 503T420 539Q367 539 315 513T217 442T136 345T80 238T60 137Q60 74 97 39T224 3ZM420 630Q414 632 416 639Q439 651 462 663T518 693Q529 699 542 706T559 712Q561 711 563 709T564 702Q562 685 554 681Q542 674 518 665T466
646T420 630Z" />
<glyph unicode="&#xd4;" glyph-name="Ocircumflex" horiz-adv-x="594" d="M232 -12Q192 -12 152 -6T80 18T27 66T7 146Q7 187 23 240T73 348T155 450T270 525T418 554Q538 554 593 516T648 396Q648 317 616 244T526 113T393 22T232 -12ZM224 3Q285 3 340 26T441
90T520 183T572 292T591 405Q591 467 552 503T420 539Q367 539 315 513T217 442T136 345T80 238T60 137Q60 74 97 39T224 3ZM563 626Q553 621 533 638Q522 648 507 664T486 685Q481 693 474 688Q469 684 453 673T419 650T393 634Q381 628 373 632Q402 652 431 673T486
716H498Q508 700 526 680T566 646Q570 644 574 641T584 638V635Q581 634 573 631T563 626Z" />
<glyph unicode="&#xd5;" glyph-name="Otilde" horiz-adv-x="594" d="M232 -12Q192 -12 152 -6T80 18T27 66T7 146Q7 187 23 240T73 348T155 450T270 525T418 554Q538 554 593 516T648 396Q648 317 616 244T526 113T393 22T232 -12ZM224 3Q285 3 340 26T441 90T520
183T572 292T591 405Q591 467 552 503T420 539Q367 539 315 513T217 442T136 345T80 238T60 137Q60 74 97 39T224 3ZM508 624Q492 624 466 637Q440 651 427 651Q412 651 399 638Q386 625 382 625Q381 626 381 627Q381 641 416 668Q429 678 446 678Q458 678 485
667Q509 657 524 657Q543 657 558 678Q563 678 563 674Q563 659 530 632Q520 624 508 624Z" />
<glyph unicode="&#xd6;" glyph-name="Odieresis" horiz-adv-x="594" d="M232 -12Q192 -12 152 -6T80 18T27 66T7 146Q7 187 23 240T73 348T155 450T270 525T418 554Q538 554 593 516T648 396Q648 317 616 244T526 113T393 22T232 -12ZM224 3Q285 3 340 26T441
90T520 183T572 292T591 405Q591 467 552 503T420 539Q367 539 315 513T217 442T136 345T80 238T60 137Q60 74 97 39T224 3ZM411 634Q391 634 374 656Q374 659 386 667T403 678Q411 682 413 682Q418 679 427 676T445 671T454 667Q453 663 448 657Q420 634 411 634ZM527
634Q507 634 490 656Q490 659 502 667T519 678Q527 682 529 682Q534 679 543 676T561 671T570 667Q569 663 564 657Q536 634 527 634Z" />
<glyph unicode="&#xd7;" glyph-name="multiply" horiz-adv-x="426" d="M57 97Q56 95 56 100T55 113Q55 124 56 136T61 150Q68 154 91 173T143 215T193 256Q180 267 161 282T121 314T84 344T61 362Q58 364 57 373T55 393Q55 402 56 409T58 415Q96 379 137 346T215
275Q230 287 253 307T301 350T345 390T372 415Q374 416 374 410T375 394Q375 384 374 374T369 362Q362 357 346 344T309 315T270 283T237 256Q258 239 286 216T338 173T369 150Q373 147 374 135T376 112Q376 94 373 97Q363 107 343 124T299 163T253 204T215 237Q199
224 177 204T131 163T88 124T57 97Z" />
<glyph unicode="&#xd8;" glyph-name="Oslash" horiz-adv-x="594" d="M17 -34Q10 -34 6 -33T5 -28Q30 0 60 31Q36 49 22 77T7 146Q7 187 23 240T73 348T155 450T270 525T418 554Q506 554 559 533Q581 554 598 569Q601 572 619 572Q628 572 636 572T642 569Q622
552 587 519Q648 481 648 396Q648 317 616 244T526 113T393 22T232 -12Q193 -12 154 -6T82 17Q55 -10 39 -28Q36 -31 30 -32T17 -34ZM60 137Q60 86 83 55Q138 114 199 177T322 302T438 418T537 514Q496 539 420 539Q367 539 315 513T217 442T136 345T80 238T60
137ZM224 3Q285 3 340 26T441 90T520 183T572 292T591 405Q591 462 561 494Q513 449 453 389T328 265T204 142T100 36Q120 20 150 12T224 3Z" />
<glyph unicode="&#xd9;" glyph-name="Ugrave" horiz-adv-x="611" d="M146 -26Q114 -26 102 -15T89 13Q89 24 92 35T100 59Q113 91 127 122T158 183Q174 214 196 257T239 347T275 440T290 519H202Q187 519 161 517T107 508T61 485T45 442Q46 434 51 421T58 404L47
396Q41 407 32 421T16 450T8 471Q8 473 8 476T7 482Q7 493 11 504T25 525Q40 538 66 542T121 546Q148 546 173 544T214 542Q214 542 237 542T295 542T371 543T444 543L431 528Q413 528 394 523T360 500Q339 473 313 429T260 332T210 226T172 127T152 48Q151 30
160 22T186 14Q207 14 227 25Q267 45 307 81T383 160T444 238Q484 295 521 362T586 488Q593 500 598 515T614 531Q618 531 624 530T637 529Q668 529 694 554Q695 555 699 555Q703 555 705 554T706 550Q684 532 669 514T636 468Q615 436 589 394T535 306T486 215T452
133Q446 114 442 95T438 60Q438 36 448 21T484 6Q489 6 493 6T503 8Q522 11 546 29T593 70Q615 90 630 108T664 149Q666 145 666 141Q665 134 662 127T653 115Q646 106 632 90T601 55Q589 43 565 24T514 -11T462 -26Q425 -26 411 -7T397 41Q397 76 411 118T439
194Q418 169 395 147T349 101Q325 78 301 55T250 12Q226 -4 200 -15T146 -26ZM557 613Q538 619 512 628T461 647T424 664Q421 666 418 672T414 685Q414 694 419 694Q424 694 436 688T467 672Q494 658 515 647T560 623Q561 621 560 618T557 613Z" />
<glyph unicode="&#xda;" glyph-name="Uacute" horiz-adv-x="611" d="M146 -26Q114 -26 102 -15T89 13Q89 24 92 35T100 59Q113 91 127 122T158 183Q174 214 196 257T239 347T275 440T290 519H202Q187 519 161 517T107 508T61 485T45 442Q46 434 51 421T58 404L47
396Q41 407 32 421T16 450T8 471Q8 473 8 476T7 482Q7 493 11 504T25 525Q40 538 66 542T121 546Q148 546 173 544T214 542Q214 542 237 542T295 542T371 543T444 543L431 528Q413 528 394 523T360 500Q339 473 313 429T260 332T210 226T172 127T152 48Q151 30
160 22T186 14Q207 14 227 25Q267 45 307 81T383 160T444 238Q484 295 521 362T586 488Q593 500 598 515T614 531Q618 531 624 530T637 529Q668 529 694 554Q695 555 699 555Q703 555 705 554T706 550Q684 532 669 514T636 468Q615 436 589 394T535 306T486 215T452
133Q446 114 442 95T438 60Q438 36 448 21T484 6Q489 6 493 6T503 8Q522 11 546 29T593 70Q615 90 630 108T664 149Q666 145 666 141Q665 134 662 127T653 115Q646 106 632 90T601 55Q589 43 565 24T514 -11T462 -26Q425 -26 411 -7T397 41Q397 76 411 118T439
194Q418 169 395 147T349 101Q325 78 301 55T250 12Q226 -4 200 -15T146 -26ZM451 613Q445 615 447 622Q470 634 493 646T549 676Q560 682 573 689T590 695Q592 694 594 692T595 685Q593 668 585 664Q573 657 549 648T497 629T451 613Z" />
<glyph unicode="&#xdb;" glyph-name="Ucircumflex" horiz-adv-x="611" d="M146 -26Q114 -26 102 -15T89 13Q89 24 92 35T100 59Q113 91 127 122T158 183Q174 214 196 257T239 347T275 440T290 519H202Q187 519 161 517T107 508T61 485T45 442Q46 434 51 421T58
404L47 396Q41 407 32 421T16 450T8 471Q8 473 8 476T7 482Q7 493 11 504T25 525Q40 538 66 542T121 546Q148 546 173 544T214 542Q214 542 237 542T295 542T371 543T444 543L431 528Q413 528 394 523T360 500Q339 473 313 429T260 332T210 226T172 127T152 48Q151
30 160 22T186 14Q207 14 227 25Q267 45 307 81T383 160T444 238Q484 295 521 362T586 488Q593 500 598 515T614 531Q618 531 624 530T637 529Q668 529 694 554Q695 555 699 555Q703 555 705 554T706 550Q684 532 669 514T636 468Q615 436 589 394T535 306T486
215T452 133Q446 114 442 95T438 60Q438 36 448 21T484 6Q489 6 493 6T503 8Q522 11 546 29T593 70Q615 90 630 108T664 149Q666 145 666 141Q665 134 662 127T653 115Q646 106 632 90T601 55Q589 43 565 24T514 -11T462 -26Q425 -26 411 -7T397 41Q397 76 411
118T439 194Q418 169 395 147T349 101Q325 78 301 55T250 12Q226 -4 200 -15T146 -26ZM594 609Q584 604 564 621Q553 631 538 647T517 668Q512 676 505 671Q500 667 484 656T450 633T424 617Q412 611 404 615Q433 635 462 656T517 699H529Q539 683 557 663T597
629Q601 627 605 624T615 621V618Q612 617 604 614T594 609Z" />
<glyph unicode="&#xdc;" glyph-name="Udieresis" horiz-adv-x="611" d="M146 -26Q114 -26 102 -15T89 13Q89 24 92 35T100 59Q113 91 127 122T158 183Q174 214 196 257T239 347T275 440T290 519H202Q187 519 161 517T107 508T61 485T45 442Q46 434 51 421T58 404L47
396Q41 407 32 421T16 450T8 471Q8 473 8 476T7 482Q7 493 11 504T25 525Q40 538 66 542T121 546Q148 546 173 544T214 542Q214 542 237 542T295 542T371 543T444 543L431 528Q413 528 394 523T360 500Q339 473 313 429T260 332T210 226T172 127T152 48Q151 30
160 22T186 14Q207 14 227 25Q267 45 307 81T383 160T444 238Q484 295 521 362T586 488Q593 500 598 515T614 531Q618 531 624 530T637 529Q668 529 694 554Q695 555 699 555Q703 555 705 554T706 550Q684 532 669 514T636 468Q615 436 589 394T535 306T486 215T452
133Q446 114 442 95T438 60Q438 36 448 21T484 6Q489 6 493 6T503 8Q522 11 546 29T593 70Q615 90 630 108T664 149Q666 145 666 141Q665 134 662 127T653 115Q646 106 632 90T601 55Q589 43 565 24T514 -11T462 -26Q425 -26 411 -7T397 41Q397 76 411 118T439
194Q418 169 395 147T349 101Q325 78 301 55T250 12Q226 -4 200 -15T146 -26ZM442 617Q422 617 405 639Q405 642 417 650T434 661Q442 665 444 665Q449 662 458 659T476 654T485 650Q484 646 479 640Q451 617 442 617ZM558 617Q538 617 521 639Q521 642 533 650T550
661Q558 665 560 665Q565 662 574 659T592 654T601 650Q600 646 595 640Q567 617 558 617Z" />
<glyph unicode="&#xdd;" glyph-name="Yacute" horiz-adv-x="452" d="M117 -39Q86 -39 58 -22T16 32Q11 45 10 60T8 89Q8 103 13 103Q18 103 18 94Q18 48 41 24T101 -1Q145 -1 183 23T254 82T311 154Q299 147 291 147Q280 147 281 155Q281 157 282 160T285 166Q288
174 290 183T296 200Q304 232 312 280T320 377Q320 419 312 457T283 519H259Q244 519 218 517T164 508T119 485T103 442Q104 434 109 421T115 404L105 396Q99 407 90 421T74 450T65 471Q64 481 66 497T82 525Q97 538 123 542T178 546Q205 546 230 544T271 542Q271
542 317 542T431 543L410 517Q382 517 365 517T334 518T301 519Q336 495 349 451T363 357Q363 314 356 273T341 202Q388 267 431 336T527 466Q544 485 567 509T619 553T677 572Q691 572 701 566T718 545Q723 533 723 523Q723 507 717 494T708 474Q707 470 703 470T700
474Q702 479 702 484T702 493Q702 511 693 526T664 541Q636 541 602 513T539 452Q487 392 450 338T379 229T308 107Q287 70 260 37T198 -18T117 -39ZM440 623Q434 625 436 632Q459 644 482 656T538 686Q549 692 562 699T579 705Q581 704 583 702T584 695Q582 678
574 674Q562 667 538 658T486 639T440 623Z" />
<glyph unicode="&#xde;" glyph-name="Thorn" horiz-adv-x="541" d="M-43 -140Q-50 -140 -54 -137T-54 -131Q-32 -127 -16 -115T10 -83Q31 -48 51 -13T91 59Q114 103 138 147T186 236Q195 252 212 284T251 356T295 436T336 510T368 562T381 576Q399 583 421 593T465
610T505 618Q510 618 515 616T520 610Q520 604 500 604Q490 604 479 601T449 579Q432 563 402 521T337 424Q366 424 402 423T470 413T518 378Q538 347 538 312Q538 273 516 239T459 178T390 138Q353 123 308 118T223 113Q207 113 194 113T169 115Q147 73 127 32T93
-42T80 -93Q80 -97 82 -103Q83 -104 83 -106Q83 -109 80 -109Q72 -109 64 -105T45 -101Q35 -101 25 -106Q15 -110 -1 -121T-37 -139Q-39 -140 -43 -140ZM216 134Q247 134 286 140T363 160T432 201T476 268Q481 280 482 292T484 317Q484 351 467 377T418 407Q414
408 409 408T397 408Q378 408 357 403T324 384Q311 366 289 328T243 246T197 165L181 136Q189 135 197 135T216 134Z" />
<glyph unicode="&#xdf;" glyph-name="germandbls" horiz-adv-x="461" d="M-198 -226Q-237 -226 -263 -214T-299 -176Q-300 -173 -300 -170T-301 -163Q-301 -148 -294 -130T-279 -90Q-276 -84 -272 -84Q-265 -84 -268 -94Q-275 -109 -275 -126Q-275 -160 -245 -180T-177
-200Q-162 -200 -147 -197T-117 -186Q-70 -162 -40 -122T13 -39Q48 28 73 101T128 247H105Q100 247 94 246T83 244L81 245Q83 256 100 264T128 273H140Q157 316 183 369T241 473T310 556Q337 580 370 595T444 611Q506 611 543 577T581 493Q581 470 572 446T542
398Q517 370 480 353T399 331Q374 327 364 319T354 299Q354 283 369 263T402 225T431 192Q459 154 459 118Q459 78 432 46T365 -5T282 -24Q245 -24 214 -6T170 54Q168 62 168 68Q168 88 177 110T200 144Q201 145 204 145Q208 145 210 142T210 137Q205 129 202 114Q202
110 202 107T201 101Q201 67 217 45T260 11T313 0Q357 0 382 24T408 94Q408 132 391 160T354 212T320 261Q314 273 314 283Q314 303 331 317T370 338Q414 348 453 366T516 416Q545 454 545 500Q545 538 521 567T447 596Q413 596 384 581T330 543Q300 515 273 469T222
368T175 254T132 142T91 46Q72 4 44 -43T-20 -132T-100 -200T-198 -226Z" />
<glyph unicode="&#xe0;" glyph-name="agrave" horiz-adv-x="294" d="M170 -3Q160 -3 153 1T146 16Q146 30 153 48T169 83T185 112Q150 75 112 42Q93 26 70 12T21 -2Q11 -2 7 4T3 20Q3 25 4 27Q9 66 29 108T78 187T137 247Q171 273 212 273H327Q332 273 332 269Q332
261 323 261Q313 261 303 249T288 228Q281 217 266 191T236 135T209 78T198 40Q198 26 212 26Q227 26 246 40T284 74T320 115T347 148Q353 142 347 132T335 115Q315 89 289 62T233 16T170 -3ZM62 32Q74 32 95 49T142 93T189 149T225 203T240 241Q240 252 234 256T217
260Q201 260 183 249T153 226Q141 215 125 192T92 140T65 86T54 44Q54 32 62 32ZM285 331Q265 342 238 357T189 386T158 410Q157 412 156 419T154 432Q154 441 157 441Q162 441 168 437T189 420Q216 397 241 377T287 340Q288 338 287 335T285 331Z" />
<glyph unicode="&#xe1;" glyph-name="aacute" horiz-adv-x="294" d="M170 -3Q160 -3 153 1T146 16Q146 30 153 48T169 83T185 112Q150 75 112 42Q93 26 70 12T21 -2Q11 -2 7 4T3 20Q3 25 4 27Q9 66 29 108T78 187T137 247Q171 273 212 273H327Q332 273 332 269Q332
261 323 261Q313 261 303 249T288 228Q281 217 266 191T236 135T209 78T198 40Q198 26 212 26Q227 26 246 40T284 74T320 115T347 148Q353 142 347 132T335 115Q315 89 289 62T233 16T170 -3ZM62 32Q74 32 95 49T142 93T189 149T225 203T240 241Q240 252 234 256T217
260Q201 260 183 249T153 226Q141 215 125 192T92 140T65 86T54 44Q54 32 62 32ZM192 330Q191 330 190 333T190 339Q210 355 235 375T288 419Q302 432 309 436T320 440Q323 440 323 431Q323 425 322 418T319 409Q311 400 289 386T239 356T192 330Z" />
<glyph unicode="&#xe2;" glyph-name="acircumflex" horiz-adv-x="294" d="M170 -3Q160 -3 153 1T146 16Q146 30 153 48T169 83T185 112Q150 75 112 42Q93 26 70 12T21 -2Q11 -2 7 4T3 20Q3 25 4 27Q9 66 29 108T78 187T137 247Q171 273 212 273H327Q332 273 332
269Q332 261 323 261Q313 261 303 249T288 228Q281 217 266 191T236 135T209 78T198 40Q198 26 212 26Q227 26 246 40T284 74T320 115T347 148Q353 142 347 132T335 115Q315 89 289 62T233 16T170 -3ZM62 32Q74 32 95 49T142 93T189 149T225 203T240 241Q240 252
234 256T217 260Q201 260 183 249T153 226Q141 215 125 192T92 140T65 86T54 44Q54 32 62 32ZM325 339Q315 334 295 351Q284 361 269 377T248 398Q243 406 236 401Q231 397 215 386T181 363T155 347Q143 341 135 345Q164 365 193 386T248 429H260Q270 413 288 393T328
359Q332 357 336 354T346 351V348Q343 347 335 344T325 339Z" />
<glyph unicode="&#xe3;" glyph-name="atilde" horiz-adv-x="294" d="M170 -3Q160 -3 153 1T146 16Q146 30 153 48T169 83T185 112Q150 75 112 42Q93 26 70 12T21 -2Q11 -2 7 4T3 20Q3 25 4 27Q9 66 29 108T78 187T137 247Q171 273 212 273H327Q332 273 332 269Q332
261 323 261Q313 261 303 249T288 228Q281 217 266 191T236 135T209 78T198 40Q198 26 212 26Q227 26 246 40T284 74T320 115T347 148Q353 142 347 132T335 115Q315 89 289 62T233 16T170 -3ZM62 32Q74 32 95 49T142 93T189 149T225 203T240 241Q240 252 234 256T217
260Q201 260 183 249T153 226Q141 215 125 192T92 140T65 86T54 44Q54 32 62 32ZM275 337Q259 337 233 350Q207 364 194 364Q179 364 166 351Q153 338 149 338Q148 339 148 340Q148 354 183 381Q196 391 213 391Q225 391 252 380Q276 370 291 370Q310 370 325 391Q330
391 330 387Q330 372 297 345Q287 337 275 337Z" />
<glyph unicode="&#xe4;" glyph-name="adieresis" horiz-adv-x="294" d="M170 -3Q160 -3 153 1T146 16Q146 30 153 48T169 83T185 112Q150 75 112 42Q93 26 70 12T21 -2Q11 -2 7 4T3 20Q3 25 4 27Q9 66 29 108T78 187T137 247Q171 273 212 273H327Q332 273 332
269Q332 261 323 261Q313 261 303 249T288 228Q281 217 266 191T236 135T209 78T198 40Q198 26 212 26Q227 26 246 40T284 74T320 115T347 148Q353 142 347 132T335 115Q315 89 289 62T233 16T170 -3ZM62 32Q74 32 95 49T142 93T189 149T225 203T240 241Q240 252
234 256T217 260Q201 260 183 249T153 226Q141 215 125 192T92 140T65 86T54 44Q54 32 62 32ZM185 347Q164 347 148 369Q148 372 160 380T177 391Q184 395 187 395Q192 392 201 389T219 383T228 380Q227 376 222 370Q193 347 185 347ZM301 347Q280 347 264 369Q264
372 276 380T293 391Q300 395 303 395Q308 392 317 389T335 383T344 380Q343 376 338 370Q309 347 301 347Z" />
<glyph unicode="&#xe5;" glyph-name="aring" horiz-adv-x="294" d="M170 -3Q160 -3 153 1T146 16Q146 30 153 48T169 83T185 112Q150 75 112 42Q93 26 70 12T21 -2Q11 -2 7 4T3 20Q3 25 4 27Q9 66 29 108T78 187T137 247Q171 273 212 273H327Q332 273 332 269Q332
261 323 261Q313 261 303 249T288 228Q281 217 266 191T236 135T209 78T198 40Q198 26 212 26Q227 26 246 40T284 74T320 115T347 148Q353 142 347 132T335 115Q315 89 289 62T233 16T170 -3ZM62 32Q74 32 95 49T142 93T189 149T225 203T240 241Q240 252 234 256T217
260Q201 260 183 249T153 226Q141 215 125 192T92 140T65 86T54 44Q54 32 62 32ZM236 333Q206 333 206 358Q206 365 212 378T227 404T249 420Q257 431 270 438T296 446Q312 446 319 437T327 414Q327 394 313 376T279 345T236 333ZM248 348Q269 348 286 367T306
404Q306 406 306 408T307 412Q307 420 304 425T292 431Q285 431 279 428T266 421L274 417Q265 401 253 392T237 363V360Q237 348 248 348Z" />
<glyph unicode="&#xe6;" glyph-name="ae" horiz-adv-x="397" d="M239 -8Q197 -8 181 8T165 47Q165 61 169 76T180 107Q164 90 147 74T112 42Q93 26 70 12T21 -2Q11 -2 7 4T3 20Q3 25 4 27Q9 66 29 108T78 187T137 247Q154 260 173 266T212 273L317 278H322Q338
278 332 268Q343 272 354 274T375 277Q401 277 411 265T421 235Q421 204 403 184T357 152T305 131Q290 127 270 123T232 119Q225 101 221 84T217 53Q217 36 225 25T254 14Q262 14 273 16T297 22Q327 32 356 54T409 101T447 144Q450 141 450 137Q450 132 443 121Q423
93 391 63T320 13T239 -8ZM62 32Q74 32 95 49T142 93T189 149T225 203T240 241Q240 252 234 256T217 260Q201 260 183 249T153 226Q141 215 125 192T92 140T65 86T54 44Q54 32 62 32ZM240 139Q253 138 269 139T302 146Q343 158 361 184T380 232Q380 244 375 252T359
260Q330 260 307 239T267 189T240 139Z" />
<glyph unicode="&#xe7;" glyph-name="ccedilla" horiz-adv-x="238" d="M76 -8Q39 -8 24 6T9 42Q9 71 28 106T64 166Q81 189 102 209T149 245Q165 255 192 266T239 278Q262 278 271 268T280 242Q280 230 276 218T267 194Q264 188 258 186T252 187Q252 192 253 196T254
205Q254 224 246 242T220 261Q202 261 181 249T152 227Q126 200 102 160T66 84Q59 63 59 48Q59 31 68 24T90 17Q100 17 111 20T136 27Q166 37 196 58T252 104T290 147Q292 145 292 141Q292 136 288 130T282 119Q261 91 227 62T154 12T76 -8ZM184 -181Q177 -181
177 -176Q177 -173 181 -171T187 -169Q192 -168 208 -168T242 -165T275 -153T295 -125Q297 -114 288 -103T269 -80T259 -55Q259 -34 280 -17T332 1H353Q331 -3 314 -16T297 -44Q297 -56 308 -67T328 -89T335 -117Q330 -140 304 -153T244 -174T184 -181Z" />
<glyph unicode="&#xe8;" glyph-name="egrave" horiz-adv-x="249" d="M91 -8Q50 -8 34 8T18 47Q18 76 33 109T63 165Q79 189 106 215T165 259T227 277Q253 277 263 265T273 235Q273 204 255 184T209 152T157 131Q142 127 122 123T84 119Q77 101 73 84T69 53Q69
36 77 25T106 14Q114 14 125 16T149 22Q179 32 208 54T261 101T299 144Q302 141 302 137Q302 132 295 121Q275 93 243 63T172 13T91 -8ZM92 139Q105 138 121 139T154 146Q195 158 213 184T232 232Q232 244 227 252T211 260Q182 260 159 239T119 189T92 139ZM270
331Q250 342 223 357T174 386T143 410Q142 412 141 419T139 432Q139 441 142 441Q147 441 153 437T174 420Q201 397 226 377T272 340Q273 338 272 335T270 331Z" />
<glyph unicode="&#xe9;" glyph-name="eacute" horiz-adv-x="249" d="M91 -8Q50 -8 34 8T18 47Q18 76 33 109T63 165Q79 189 106 215T165 259T227 277Q253 277 263 265T273 235Q273 204 255 184T209 152T157 131Q142 127 122 123T84 119Q77 101 73 84T69 53Q69
36 77 25T106 14Q114 14 125 16T149 22Q179 32 208 54T261 101T299 144Q302 141 302 137Q302 132 295 121Q275 93 243 63T172 13T91 -8ZM92 139Q105 138 121 139T154 146Q195 158 213 184T232 232Q232 244 227 252T211 260Q182 260 159 239T119 189T92 139ZM177
330Q176 330 175 333T175 339Q195 355 220 375T273 419Q287 432 294 436T305 440Q308 440 308 431Q308 425 307 418T304 409Q296 400 274 386T224 356T177 330Z" />
<glyph unicode="&#xea;" glyph-name="ecircumflex" horiz-adv-x="249" d="M91 -8Q50 -8 34 8T18 47Q18 76 33 109T63 165Q79 189 106 215T165 259T227 277Q253 277 263 265T273 235Q273 204 255 184T209 152T157 131Q142 127 122 123T84 119Q77 101 73 84T69 53Q69
36 77 25T106 14Q114 14 125 16T149 22Q179 32 208 54T261 101T299 144Q302 141 302 137Q302 132 295 121Q275 93 243 63T172 13T91 -8ZM92 139Q105 138 121 139T154 146Q195 158 213 184T232 232Q232 244 227 252T211 260Q182 260 159 239T119 189T92 139ZM310
339Q300 334 280 351Q269 361 254 377T233 398Q228 406 221 401Q216 397 200 386T166 363T140 347Q128 341 120 345Q149 365 178 386T233 429H245Q255 413 273 393T313 359Q317 357 321 354T331 351V348Q328 347 320 344T310 339Z" />
<glyph unicode="&#xeb;" glyph-name="edieresis" horiz-adv-x="249" d="M91 -8Q50 -8 34 8T18 47Q18 76 33 109T63 165Q79 189 106 215T165 259T227 277Q253 277 263 265T273 235Q273 204 255 184T209 152T157 131Q142 127 122 123T84 119Q77 101 73 84T69 53Q69
36 77 25T106 14Q114 14 125 16T149 22Q179 32 208 54T261 101T299 144Q302 141 302 137Q302 132 295 121Q275 93 243 63T172 13T91 -8ZM92 139Q105 138 121 139T154 146Q195 158 213 184T232 232Q232 244 227 252T211 260Q182 260 159 239T119 189T92 139ZM170
347Q149 347 133 369Q133 372 145 380T162 391Q169 395 172 395Q177 392 186 389T204 383T213 380Q212 376 207 370Q178 347 170 347ZM286 347Q265 347 249 369Q249 372 261 380T278 391Q285 395 288 395Q293 392 302 389T320 383T329 380Q328 376 323 370Q294
347 286 347Z" />
<glyph unicode="&#xec;" glyph-name="igrave" horiz-adv-x="192" d="M68 -3Q58 -3 52 1T45 16Q45 30 52 49T69 87T84 118Q91 132 101 154T121 197T135 226Q121 211 102 189T65 145T39 112Q36 108 34 108Q32 108 32 113Q32 121 37 128Q56 152 79 182T122 237T146
271Q157 273 178 277T208 288Q211 291 214 291Q216 291 216 288T214 280Q208 273 193 246T162 187T131 128Q117 101 107 76T97 40Q97 26 111 26Q124 26 144 42T186 80T223 122Q228 128 235 136T245 147Q247 145 247 140Q246 133 242 127T234 115Q213 89 188 62T133
16T68 -3ZM228 331Q208 342 181 357T132 386T101 410Q100 412 99 419T97 432Q97 441 100 441Q105 441 111 437T132 420Q159 397 184 377T230 340Q231 338 230 335T228 331Z" />
<glyph unicode="&#xed;" glyph-name="iacute" horiz-adv-x="192" d="M68 -3Q58 -3 52 1T45 16Q45 30 52 49T69 87T84 118Q91 132 101 154T121 197T135 226Q121 211 102 189T65 145T39 112Q36 108 34 108Q32 108 32 113Q32 121 37 128Q56 152 79 182T122 237T146
271Q157 273 178 277T208 288Q211 291 214 291Q216 291 216 288T214 280Q208 273 193 246T162 187T131 128Q117 101 107 76T97 40Q97 26 111 26Q124 26 144 42T186 80T223 122Q228 128 235 136T245 147Q247 145 247 140Q246 133 242 127T234 115Q213 89 188 62T133
16T68 -3ZM135 330Q134 330 133 333T133 339Q153 355 178 375T231 419Q245 432 252 436T263 440Q266 440 266 431Q266 425 265 418T262 409Q254 400 232 386T182 356T135 330Z" />
<glyph unicode="&#xee;" glyph-name="icircumflex" horiz-adv-x="192" d="M68 -3Q58 -3 52 1T45 16Q45 30 52 49T69 87T84 118Q91 132 101 154T121 197T135 226Q121 211 102 189T65 145T39 112Q36 108 34 108Q32 108 32 113Q32 121 37 128Q56 152 79 182T122 237T146
271Q157 273 178 277T208 288Q211 291 214 291Q216 291 216 288T214 280Q208 273 193 246T162 187T131 128Q117 101 107 76T97 40Q97 26 111 26Q124 26 144 42T186 80T223 122Q228 128 235 136T245 147Q247 145 247 140Q246 133 242 127T234 115Q213 89 188 62T133
16T68 -3ZM268 339Q258 334 238 351Q227 361 212 377T191 398Q186 406 179 401Q174 397 158 386T124 363T98 347Q86 341 78 345Q107 365 136 386T191 429H203Q213 413 231 393T271 359Q275 357 279 354T289 351V348Q286 347 278 344T268 339Z" />
<glyph unicode="&#xef;" glyph-name="idieresis" horiz-adv-x="192" d="M68 -3Q58 -3 52 1T45 16Q45 30 52 49T69 87T84 118Q91 132 101 154T121 197T135 226Q121 211 102 189T65 145T39 112Q36 108 34 108Q32 108 32 113Q32 121 37 128Q56 152 79 182T122 237T146
271Q157 273 178 277T208 288Q211 291 214 291Q216 291 216 288T214 280Q208 273 193 246T162 187T131 128Q117 101 107 76T97 40Q97 26 111 26Q124 26 144 42T186 80T223 122Q228 128 235 136T245 147Q247 145 247 140Q246 133 242 127T234 115Q213 89 188 62T133
16T68 -3ZM128 347Q107 347 91 369Q91 372 103 380T120 391Q127 395 130 395Q135 392 144 389T162 383T171 380Q170 376 165 370Q136 347 128 347ZM244 347Q223 347 207 369Q207 372 219 380T236 391Q243 395 246 395Q251 392 260 389T278 383T287 380Q286 376
281 370Q252 347 244 347Z" />
<glyph unicode="&#xf0;" glyph-name="eth" horiz-adv-x="330" d="M35 -2Q25 -2 14 4T3 20Q3 25 4 27Q9 66 29 108T78 187T137 247Q160 264 181 268T227 273H260Q272 300 279 337T286 411Q286 435 283 456Q264 446 246 436T208 411Q206 410 207 420T211 441T219
455Q230 458 246 465T278 481Q271 511 257 533T219 565Q209 569 209 574Q209 581 228 586Q231 587 237 587Q254 587 279 570T317 500Q340 513 357 524T388 542Q391 544 390 534T385 513T377 500Q365 494 352 489T322 476Q324 462 325 446T327 410Q327 312 282 217T140
46Q112 25 85 12T35 -2ZM62 32Q74 32 96 46T145 83T196 133T235 188T251 239Q251 250 245 254T228 258Q200 258 170 236T113 179T70 108T54 44Q54 32 62 32Z" />
<glyph unicode="&#xf1;" glyph-name="ntilde" horiz-adv-x="330" d="M40 -15Q36 -15 40 -6Q45 3 49 14T59 38Q69 62 81 92T104 150T123 199T135 226Q121 211 102 189T65 145T39 112Q36 108 34 108Q32 108 32 113Q32 121 37 128Q56 152 79 182T122 237T146 271Q157
273 178 277T208 288Q211 291 214 291Q216 291 216 288T214 280Q208 273 194 248T163 191T132 135Q144 151 158 166T185 195Q197 207 218 225T262 258T302 275Q306 276 309 276T315 276Q337 276 337 260Q337 248 324 228Q317 217 303 192T274 137T249 82T238 44Q238
30 252 30Q269 30 289 47T334 90T382 147Q384 145 384 140Q384 133 380 127T371 115Q361 102 345 83T311 45T280 15Q270 8 254 0T222 -8Q204 -8 197 1T190 25Q190 41 196 59T209 93T221 118Q239 153 254 184T275 228Q278 234 278 238Q278 245 267 239T241 221T212
198T195 182Q158 143 131 96T84 -2Q71 -3 58 -9T40 -15ZM295 337Q279 337 253 350Q227 364 214 364Q199 364 186 351Q173 338 169 338Q168 339 168 340Q168 354 203 381Q216 391 233 391Q245 391 272 380Q296 370 311 370Q330 370 345 391Q350 391 350 387Q350
372 317 345Q307 337 295 337Z" />
<glyph unicode="&#xf2;" glyph-name="ograve" horiz-adv-x="265" d="M50 -2Q34 -2 22 4T9 33Q9 68 27 103T64 166Q81 189 102 209T149 245Q165 255 192 266T239 278Q255 278 267 270T279 239Q279 205 262 170T225 107Q216 95 207 85T187 63Q224 63 255 84T309
137L311 139Q314 139 314 133Q314 126 310 120Q290 92 260 71T192 49Q188 49 184 49T176 50Q120 -2 50 -2ZM76 15Q90 15 106 25T132 44Q149 61 163 80T189 120Q203 144 217 177T231 239Q231 262 215 262Q202 262 184 251T156 231Q122 196 99 155Q86 132 71 101T56
44Q56 40 56 37T58 29Q62 15 76 15ZM280 331Q260 342 233 357T184 386T153 410Q152 412 151 419T149 432Q149 441 152 441Q157 441 163 437T184 420Q211 397 236 377T282 340Q283 338 282 335T280 331Z" />
<glyph unicode="&#xf3;" glyph-name="oacute" horiz-adv-x="265" d="M50 -2Q34 -2 22 4T9 33Q9 68 27 103T64 166Q81 189 102 209T149 245Q165 255 192 266T239 278Q255 278 267 270T279 239Q279 205 262 170T225 107Q216 95 207 85T187 63Q224 63 255 84T309
137L311 139Q314 139 314 133Q314 126 310 120Q290 92 260 71T192 49Q188 49 184 49T176 50Q120 -2 50 -2ZM76 15Q90 15 106 25T132 44Q149 61 163 80T189 120Q203 144 217 177T231 239Q231 262 215 262Q202 262 184 251T156 231Q122 196 99 155Q86 132 71 101T56
44Q56 40 56 37T58 29Q62 15 76 15ZM187 330Q186 330 185 333T185 339Q205 355 230 375T283 419Q297 432 304 436T315 440Q318 440 318 431Q318 425 317 418T314 409Q306 400 284 386T234 356T187 330Z" />
<glyph unicode="&#xf4;" glyph-name="ocircumflex" horiz-adv-x="265" d="M50 -2Q34 -2 22 4T9 33Q9 68 27 103T64 166Q81 189 102 209T149 245Q165 255 192 266T239 278Q255 278 267 270T279 239Q279 205 262 170T225 107Q216 95 207 85T187 63Q224 63 255 84T309
137L311 139Q314 139 314 133Q314 126 310 120Q290 92 260 71T192 49Q188 49 184 49T176 50Q120 -2 50 -2ZM76 15Q90 15 106 25T132 44Q149 61 163 80T189 120Q203 144 217 177T231 239Q231 262 215 262Q202 262 184 251T156 231Q122 196 99 155Q86 132 71 101T56
44Q56 40 56 37T58 29Q62 15 76 15ZM320 339Q310 334 290 351Q279 361 264 377T243 398Q238 406 231 401Q226 397 210 386T176 363T150 347Q138 341 130 345Q159 365 188 386T243 429H255Q265 413 283 393T323 359Q327 357 331 354T341 351V348Q338 347 330 344T320
339Z" />
<glyph unicode="&#xf5;" glyph-name="otilde" horiz-adv-x="265" d="M50 -2Q34 -2 22 4T9 33Q9 68 27 103T64 166Q81 189 102 209T149 245Q165 255 192 266T239 278Q255 278 267 270T279 239Q279 205 262 170T225 107Q216 95 207 85T187 63Q224 63 255 84T309
137L311 139Q314 139 314 133Q314 126 310 120Q290 92 260 71T192 49Q188 49 184 49T176 50Q120 -2 50 -2ZM76 15Q90 15 106 25T132 44Q149 61 163 80T189 120Q203 144 217 177T231 239Q231 262 215 262Q202 262 184 251T156 231Q122 196 99 155Q86 132 71 101T56
44Q56 40 56 37T58 29Q62 15 76 15ZM270 337Q254 337 228 350Q202 364 189 364Q174 364 161 351Q148 338 144 338Q143 339 143 340Q143 354 178 381Q191 391 208 391Q220 391 247 380Q271 370 286 370Q305 370 320 391Q325 391 325 387Q325 372 292 345Q282 337
270 337Z" />
<glyph unicode="&#xf6;" glyph-name="odieresis" horiz-adv-x="265" d="M50 -2Q34 -2 22 4T9 33Q9 68 27 103T64 166Q81 189 102 209T149 245Q165 255 192 266T239 278Q255 278 267 270T279 239Q279 205 262 170T225 107Q216 95 207 85T187 63Q224 63 255 84T309
137L311 139Q314 139 314 133Q314 126 310 120Q290 92 260 71T192 49Q188 49 184 49T176 50Q120 -2 50 -2ZM76 15Q90 15 106 25T132 44Q149 61 163 80T189 120Q203 144 217 177T231 239Q231 262 215 262Q202 262 184 251T156 231Q122 196 99 155Q86 132 71 101T56
44Q56 40 56 37T58 29Q62 15 76 15ZM180 347Q159 347 143 369Q143 372 155 380T172 391Q179 395 182 395Q187 392 196 389T214 383T223 380Q222 376 217 370Q188 347 180 347ZM296 347Q275 347 259 369Q259 372 271 380T288 391Q295 395 298 395Q303 392 312 389T330
383T339 380Q338 376 333 370Q304 347 296 347Z" />
<glyph unicode="&#xf7;" glyph-name="divide" horiz-adv-x="280" d="M213 266Q203 266 193 273T177 287Q176 289 185 295T204 308T215 314Q223 310 231 306T248 302H252Q257 302 257 299Q257 296 250 289Q241 282 232 274T213 266ZM302 139Q290 140 266 141T215
143T168 144Q135 144 91 144T13 140Q10 140 16 148T31 164T45 172Q56 170 79 169T127 168T171 167Q197 167 230 167T292 169T334 170Q337 170 331 162T316 147T302 139ZM141 15Q130 16 121 23T105 37Q104 39 113 45T132 58T143 64Q151 60 159 56T176 52H179Q185
52 185 49Q185 45 178 39Q169 31 159 23T141 15Z" />
<glyph unicode="&#xf8;" glyph-name="oslash" horiz-adv-x="265" d="M35 -23Q41 -13 47 -2Q31 -2 20 5T9 33Q9 68 27 103T64 166Q81 189 102 209T149 245Q161 252 180 261T218 275Q230 293 238 304Q240 306 251 306Q257 306 262 306T266 304Q259 295 247 277Q260
276 269 267T279 239Q279 205 262 170T225 107Q216 95 207 85T187 63Q224 63 255 84T309 137L311 139Q314 139 314 133Q314 126 310 120Q290 92 260 71T192 49Q188 49 184 49T176 50Q126 4 65 -1Q57 -14 52 -23Q51 -27 43 -27T35 -23ZM58 29Q58 29 58 28T61 22Q85
63 111 106T163 190T209 261Q195 259 180 249T156 231Q122 196 99 155Q86 132 71 101T56 44Q56 40 56 37T58 29ZM76 15Q90 15 106 25T132 44Q149 61 163 80T189 120Q203 144 217 177T231 239Q231 247 229 252Q207 218 179 175T123 90T75 15H76Z" />
<glyph unicode="&#xf9;" glyph-name="ugrave" horiz-adv-x="393" d="M90 -3Q80 -3 73 1T66 16Q66 30 73 49T90 87T105 118Q117 141 128 164T147 203Q155 218 155 223Q155 231 144 223T122 207Q100 186 76 158T39 112Q36 108 34 108Q32 108 32 113Q32 121 37 128Q51
148 70 172T109 218Q128 238 148 257T199 276Q220 276 220 260Q220 246 208 228Q201 217 186 191T156 135T129 78T118 40Q118 26 132 26Q143 26 159 37T192 65Q223 95 248 130T292 199T322 253Q324 257 326 262T335 269Q341 270 361 270T398 278H400Q403 278 403
275Q403 267 390 263Q378 259 363 239T332 191T305 132T287 77T284 40Q288 26 298 26Q311 26 334 42T383 80T424 122Q431 130 437 138T445 148Q446 147 447 145T448 140Q447 133 443 127T434 115Q415 90 389 63T332 16T269 -3Q259 -3 247 2T234 24Q234 37 241 59T256
104T271 138Q258 119 240 96T202 54Q177 30 149 14T90 -3ZM344 331Q324 342 297 357T248 386T217 410Q216 412 215 419T213 432Q213 441 216 441Q221 441 227 437T248 420Q275 397 300 377T346 340Q347 338 346 335T344 331Z" />
<glyph unicode="&#xfa;" glyph-name="uacute" horiz-adv-x="393" d="M90 -3Q80 -3 73 1T66 16Q66 30 73 49T90 87T105 118Q117 141 128 164T147 203Q155 218 155 223Q155 231 144 223T122 207Q100 186 76 158T39 112Q36 108 34 108Q32 108 32 113Q32 121 37 128Q51
148 70 172T109 218Q128 238 148 257T199 276Q220 276 220 260Q220 246 208 228Q201 217 186 191T156 135T129 78T118 40Q118 26 132 26Q143 26 159 37T192 65Q223 95 248 130T292 199T322 253Q324 257 326 262T335 269Q341 270 361 270T398 278H400Q403 278 403
275Q403 267 390 263Q378 259 363 239T332 191T305 132T287 77T284 40Q288 26 298 26Q311 26 334 42T383 80T424 122Q431 130 437 138T445 148Q446 147 447 145T448 140Q447 133 443 127T434 115Q415 90 389 63T332 16T269 -3Q259 -3 247 2T234 24Q234 37 241 59T256
104T271 138Q258 119 240 96T202 54Q177 30 149 14T90 -3ZM251 330Q250 330 249 333T249 339Q269 355 294 375T347 419Q361 432 368 436T379 440Q382 440 382 431Q382 425 381 418T378 409Q370 400 348 386T298 356T251 330Z" />
<glyph unicode="&#xfb;" glyph-name="ucircumflex" horiz-adv-x="393" d="M90 -3Q80 -3 73 1T66 16Q66 30 73 49T90 87T105 118Q117 141 128 164T147 203Q155 218 155 223Q155 231 144 223T122 207Q100 186 76 158T39 112Q36 108 34 108Q32 108 32 113Q32 121
37 128Q51 148 70 172T109 218Q128 238 148 257T199 276Q220 276 220 260Q220 246 208 228Q201 217 186 191T156 135T129 78T118 40Q118 26 132 26Q143 26 159 37T192 65Q223 95 248 130T292 199T322 253Q324 257 326 262T335 269Q341 270 361 270T398 278H400Q403
278 403 275Q403 267 390 263Q378 259 363 239T332 191T305 132T287 77T284 40Q288 26 298 26Q311 26 334 42T383 80T424 122Q431 130 437 138T445 148Q446 147 447 145T448 140Q447 133 443 127T434 115Q415 90 389 63T332 16T269 -3Q259 -3 247 2T234 24Q234
37 241 59T256 104T271 138Q258 119 240 96T202 54Q177 30 149 14T90 -3ZM384 339Q374 334 354 351Q343 361 328 377T307 398Q302 406 295 401Q290 397 274 386T240 363T214 347Q202 341 194 345Q223 365 252 386T307 429H319Q329 413 347 393T387 359Q391 357
395 354T405 351V348Q402 347 394 344T384 339Z" />
<glyph unicode="&#xfc;" glyph-name="udieresis" horiz-adv-x="393" d="M90 -3Q80 -3 73 1T66 16Q66 30 73 49T90 87T105 118Q117 141 128 164T147 203Q155 218 155 223Q155 231 144 223T122 207Q100 186 76 158T39 112Q36 108 34 108Q32 108 32 113Q32 121 37
128Q51 148 70 172T109 218Q128 238 148 257T199 276Q220 276 220 260Q220 246 208 228Q201 217 186 191T156 135T129 78T118 40Q118 26 132 26Q143 26 159 37T192 65Q223 95 248 130T292 199T322 253Q324 257 326 262T335 269Q341 270 361 270T398 278H400Q403
278 403 275Q403 267 390 263Q378 259 363 239T332 191T305 132T287 77T284 40Q288 26 298 26Q311 26 334 42T383 80T424 122Q431 130 437 138T445 148Q446 147 447 145T448 140Q447 133 443 127T434 115Q415 90 389 63T332 16T269 -3Q259 -3 247 2T234 24Q234
37 241 59T256 104T271 138Q258 119 240 96T202 54Q177 30 149 14T90 -3ZM244 347Q223 347 207 369Q207 372 219 380T236 391Q243 395 246 395Q251 392 260 389T278 383T287 380Q286 376 281 370Q252 347 244 347ZM360 347Q339 347 323 369Q323 372 335 380T352
391Q359 395 362 395Q367 392 376 389T394 383T403 380Q402 376 397 370Q368 347 360 347Z" />
<glyph unicode="&#xfd;" glyph-name="yacute" horiz-adv-x="344" d="M-69 -350Q-107 -350 -142 -333T-195 -279Q-201 -266 -203 -252T-205 -223V-212Q-205 -204 -203 -198T-193 -191Q-191 -191 -191 -193Q-191 -199 -192 -205T-193 -218Q-193 -264 -164 -288T-90
-312Q-72 -312 -53 -308T-17 -297Q46 -270 92 -221T174 -109T237 17Q253 55 265 91T288 156Q278 142 262 122T230 84T202 54Q177 30 149 14T90 -3Q80 -3 73 1T66 16Q66 30 73 49T90 87T105 118Q117 141 128 164T147 203Q155 218 155 223Q155 231 144 223T122 207Q100
186 76 158T39 112Q36 108 34 108Q32 108 32 113Q32 121 37 128Q51 148 70 172T109 218Q128 238 148 257T199 276Q220 276 220 260Q220 246 208 228Q201 217 186 191T156 135T129 78T118 40Q118 26 132 26Q143 26 159 37T192 65Q221 93 245 127T288 192Q291 197
298 210T314 235T328 249Q333 251 348 260T378 272Q392 275 399 275Q410 275 410 269Q410 261 401 261Q390 261 381 256T367 242Q358 229 342 195T306 117T267 27T232 -57Q208 -114 177 -168T105 -266T6 -335Q-28 -350 -69 -350ZM254 330Q253 330 252 333T252 339Q272
355 297 375T350 419Q364 432 371 436T382 440Q385 440 385 431Q385 425 384 418T381 409Q373 400 351 386T301 356T254 330Z" />
<glyph unicode="&#xfe;" glyph-name="thorn" horiz-adv-x="364" d="M-192 -331Q-208 -331 -208 -324Q-208 -319 -204 -315Q-190 -299 -170 -266T-126 -189T-78 -101T-34 -14T0 55Q24 106 51 161T105 270T158 366Q196 430 241 489T335 582Q345 590 368 594T410
598Q432 598 432 594Q432 588 399 580Q369 572 336 542T269 466T204 369T147 266T101 172Q101 172 101 170T102 168Q103 168 118 183T157 220T207 256T255 272Q266 272 269 265T272 248V239Q267 202 247 159T195 78T125 15T44 -9Q32 -9 18 -6Q5 -34 -13 -72T-52
-154T-97 -238T-145 -313Q-151 -321 -165 -326T-192 -331ZM60 8Q76 8 94 20T123 43Q135 54 152 77T185 129T212 183T223 225Q223 230 221 234T214 238Q205 238 191 227T160 201T130 171T110 149Q99 137 82 114T52 68T38 28Q38 8 60 8Z" />
<glyph unicode="&#xff;" glyph-name="ydieresis" horiz-adv-x="344" d="M-69 -350Q-107 -350 -142 -333T-195 -279Q-201 -266 -203 -252T-205 -223V-212Q-205 -204 -203 -198T-193 -191Q-191 -191 -191 -193Q-191 -199 -192 -205T-193 -218Q-193 -264 -164 -288T-90
-312Q-72 -312 -53 -308T-17 -297Q46 -270 92 -221T174 -109T237 17Q253 55 265 91T288 156Q278 142 262 122T230 84T202 54Q177 30 149 14T90 -3Q80 -3 73 1T66 16Q66 30 73 49T90 87T105 118Q117 141 128 164T147 203Q155 218 155 223Q155 231 144 223T122 207Q100
186 76 158T39 112Q36 108 34 108Q32 108 32 113Q32 121 37 128Q51 148 70 172T109 218Q128 238 148 257T199 276Q220 276 220 260Q220 246 208 228Q201 217 186 191T156 135T129 78T118 40Q118 26 132 26Q143 26 159 37T192 65Q221 93 245 127T288 192Q291 197
298 210T314 235T328 249Q333 251 348 260T378 272Q392 275 399 275Q410 275 410 269Q410 261 401 261Q390 261 381 256T367 242Q358 229 342 195T306 117T267 27T232 -57Q208 -114 177 -168T105 -266T6 -335Q-28 -350 -69 -350ZM247 347Q226 347 210 369Q210 372
222 380T239 391Q246 395 249 395Q254 392 263 389T281 383T290 380Q289 376 284 370Q255 347 247 347ZM363 347Q342 347 326 369Q326 372 338 380T355 391Q362 395 365 395Q370 392 379 389T397 383T406 380Q405 376 400 370Q371 347 363 347Z" />
<glyph unicode="&#x2013;" glyph-name="endash" horiz-adv-x="335" d="M310 144Q301 145 282 145T241 147T204 148Q178 148 142 148T80 145Q78 145 83 152T95 166T106 172Q115 171 133 170T171 169T206 168Q227 168 253 168T302 170T336 171Q338 171 333 164T321
151T310 144Z" />
<glyph unicode="&#x2014;" glyph-name="emdash" horiz-adv-x="512" d="M493 142Q486 142 459 142T398 144T335 145T294 146Q281 146 251 146T185 146T119 145T75 143Q73 143 78 150T90 164T101 170Q107 169 133 168T193 167T256 166T296 166Q311 166 344 166T414
167T481 168T519 169Q522 169 517 162T505 149T493 142Z" />
<glyph unicode="&#x2018;" glyph-name="quoteleft" horiz-adv-x="168" d="M93 450Q72 453 72 476Q72 480 72 484T74 492Q82 529 105 557T156 605Q161 609 165 611T170 613L168 605Q167 602 167 601T160 594Q144 580 132 561T114 521Q112 509 119 499T139 486L135
475Q130 474 122 469T108 461Q104 458 100 454T93 450Z" />
<glyph unicode="&#x2019;" glyph-name="quoteright" horiz-adv-x="168" d="M185 458Q179 454 175 452T170 450L172 458Q173 461 173 463T180 469Q197 483 209 502T226 542Q228 555 221 565T201 577L205 588Q210 590 219 594T232 602Q236 605 240 609T247 613Q268
610 268 587Q268 583 268 580T266 571Q258 535 236 507T185 458Z" />
<glyph unicode="&#x201a;" glyph-name="quotesinglbase" horiz-adv-x="195" d="M92 -65Q83 -65 88 -54Q101 -21 109 14T125 80Q125 86 135 94T159 108T183 117T192 115Q180 79 156 34T112 -48Q103 -65 92 -65Z" />
<glyph unicode="&#x201c;" glyph-name="quotedblleft" horiz-adv-x="295" d="M220 449Q209 451 204 458T199 476Q199 480 199 483T201 491Q209 528 232 556T283 604Q288 608 292 610T297 612L295 604Q294 602 294 600T287 593Q271 579 259 561T241 520Q239 508
246 498T266 485L262 474Q257 473 249 469T235 461Q231 458 227 454T220 449ZM117 449Q96 452 96 475Q96 479 96 483T98 491Q106 528 128 556T179 604Q185 608 189 610T194 612L192 604Q191 602 191 600T184 593Q168 579 156 561T138 520Q136 508 143 498T163 485L159
474Q154 473 145 469T132 461Q128 458 124 454T117 449Z" />
<glyph unicode="&#x201d;" glyph-name="quotedblright" horiz-adv-x="168" d="M288 458Q282 454 278 452T273 450L275 458Q276 461 276 463T283 469Q300 483 312 502T329 542Q332 555 325 565T304 577L308 588Q313 590 322 594T335 602Q340 605 344 609T350 613Q371
610 371 587Q371 583 371 580T369 571Q362 535 339 507T288 458ZM185 458Q179 454 175 452T170 450L172 458Q173 461 173 463T180 469Q197 483 209 502T226 542Q228 555 221 565T201 577L205 588Q210 590 219 594T232 602Q236 605 240 609T247 613Q268 610 268
587Q268 583 268 580T266 571Q258 535 236 507T185 458Z" />
<glyph unicode="&#x201e;" glyph-name="quotedblbase" horiz-adv-x="316" d="M92 -65Q83 -65 88 -54Q101 -21 109 14T125 80Q125 86 135 94T159 108T183 117T192 115Q180 79 156 34T112 -48Q103 -65 92 -65ZM193 -65Q184 -65 189 -54Q202 -21 210 14T226 80Q226
86 236 94T260 108T284 117T293 115Q281 79 257 34T213 -48Q204 -65 193 -65Z" />
<glyph unicode="&#x2022;" glyph-name="bullet" horiz-adv-x="475" d="M223 97Q172 97 132 118T69 175T46 255Q46 299 66 338T120 407T197 455T288 472Q339 472 378 451T441 395T464 314Q464 270 444 231T390 162T313 114T223 97Z" />
<glyph unicode="&#x2039;" glyph-name="guilsinglleft" horiz-adv-x="293" d="M169 -11Q170 0 167 8T161 23Q145 62 121 98T73 156L77 175Q116 213 153 256T227 346Q227 340 226 333T223 320Q217 308 203 289T172 248T139 209T116 184Q112 179 116 175Q128 161
142 141T168 99Q172 92 183 72T194 34Q194 26 192 23Q191 21 183 8T173 -11H169Z" />
<glyph unicode="&#x203a;" glyph-name="guilsinglright" horiz-adv-x="293" d="M73 -11Q73 -5 69 8T62 23Q60 33 69 49T89 79T105 99Q122 121 141 141T176 175Q180 179 176 184Q171 192 160 209T137 247T116 288T104 320V327Q104 332 104 337T106 346Q131 299
157 256T215 175L213 156Q186 135 153 99T94 23Q89 16 84 8T77 -11H73Z" />
</font>
</defs>
</svg>
