<?xml version="1.0" standalone="no"?>
<!DOCTYPE svg PUBLIC "-//W3C//DTD SVG 1.1//EN" "http://www.w3.org/Graphics/SVG/1.1/DTD/svg11.dtd">
<svg xmlns="http://www.w3.org/2000/svg">
<defs >
<font id="Paprika" horiz-adv-x="576" ><font-face
    font-family="Paprika"
    units-per-em="1000"
    panose-1="0 0 0 0 0 0 0 0 0 0"
    ascent="1145"
    descent="-274"
    alphabetic="0" />
<glyph unicode=" " glyph-name="space" horiz-adv-x="333" />
<glyph unicode="!" glyph-name="exclam" horiz-adv-x="388" d="M188 242Q174 242 164 251T153 283Q153 291 157 328T167 418T180 530T191 642T195 729Q195 765 192 799T173 864Q184 874 206 880T243 887Q278 887 296 864T315 781Q315 751 307 700T286 588T262
466T242 355T233 277Q233 267 236 258Q224 248 213 245T188 242ZM156 -14Q122 -14 108 -1T93 41Q93 53 95 69T101 106Q145 133 181 133Q208 133 227 122T247 83Q247 56 235 14Q191 -14 156 -14Z" />
<glyph unicode="&quot;" glyph-name="quotedbl" horiz-adv-x="396" d="M330 633Q311 633 298 646T284 693Q284 734 294 772T304 835Q304 849 302 862T295 887Q305 895 323 902T369 910Q385 910 393 900T401 863Q401 845 393 816T377 755T369 703Q369 673 381 647Q368
639 356 636T330 633ZM161 633Q142 633 129 646T115 693Q115 734 124 772T134 835Q134 849 133 862T126 887Q136 895 154 902T200 910Q216 910 224 900T232 863Q232 845 224 816T208 755T200 703Q200 687 202 674T212 647Q199 639 187 636T161 633Z" />
<glyph unicode="#" glyph-name="numbersign" horiz-adv-x="817" d="M255 -6Q218 -6 194 21T170 121Q170 144 173 177T183 250Q164 249 139 245T99 230Q91 243 86 260T80 300Q80 323 95 334T134 346Q145 346 161 346T199 344L229 524H223Q206 524 177 520T132 504Q124
517 119 534T113 574Q113 597 128 608T167 620Q179 620 198 620T242 618Q247 655 249 689T252 752Q252 782 248 810T229 863Q240 873 263 879T301 886Q333 886 349 865T365 790Q365 759 359 714T342 614Q398 612 449 611T529 609H541Q546 648 549 684T552 752Q552
782 548 810T529 863Q540 873 563 879T601 886Q633 886 649 865T665 790Q665 759 659 714T642 614Q677 617 707 621T752 633Q761 620 764 607T767 580Q767 554 744 537T664 520H625Q617 476 609 430T594 339Q632 342 667 347T719 359Q728 346 731 333T734 306Q734
280 711 263T631 246H583Q581 223 580 201T579 158Q579 122 586 90T621 31Q611 9 591 2T555 -6Q518 -6 494 21T470 121Q470 144 473 176T483 247Q433 247 380 248T283 249Q281 225 280 202T279 158Q279 122 286 90T321 31Q311 9 291 2T255 -6ZM497 335L528 521Q479
521 425 522T325 523Q317 479 309 433T295 341Q354 339 410 337T497 335Z" />
<glyph unicode="$" glyph-name="dollar" horiz-adv-x="660" d="M254 -105Q244 -105 233 -98T220 -69Q243 -46 257 -15Q208 -10 165 6T94 51T67 123Q67 155 82 179T119 227Q137 150 178 107T277 53Q288 121 294 211T305 401Q292 412 278 423T248 447Q198 488 164
535T129 654Q129 750 184 808T330 883Q339 941 357 963T403 986Q414 986 427 980T445 963Q433 946 426 928T413 889Q455 888 490 876T548 840T570 780Q570 752 555 730T525 695Q510 732 478 763T399 808Q392 753 387 669T376 492Q393 479 411 464T451 430Q487 400
513 370T553 302T568 211Q568 153 539 105T459 25T338 -14Q325 -65 303 -85T254 -105ZM311 544Q314 621 316 691T323 812Q281 805 252 773T222 684Q222 653 230 632T257 592T311 544ZM350 51Q380 56 407 70T451 112T469 180Q469 232 445 269T369 349Q365 257 360
178T350 51Z" />
<glyph unicode="%" glyph-name="percent" horiz-adv-x="901" d="M295 -26Q273 -26 260 -15T246 23Q246 52 264 106Q277 142 304 200T365 329T436 472T502 612T550 729Q561 760 569 789T578 845Q578 850 578 854T577 864Q591 874 606 880T637 887Q682 887 682 845Q682
834 679 818T668 781Q655 744 628 687T564 559T492 415T423 272T371 147Q363 122 357 99T351 55Q351 30 362 10Q336 -12 322 -19T295 -26ZM194 381Q147 381 115 408T66 483T49 588Q49 639 61 691T99 788T161 859T250 886Q297 886 329 858T378 783T395 678Q395 627
383 575T345 478T283 408T194 381ZM217 442Q247 442 267 466T298 528T314 601T319 662Q319 743 295 784T227 826Q197 826 178 802T147 742T130 670T125 608Q125 525 149 484T217 442ZM651 -31Q604 -31 572 -4T523 71T506 176Q506 227 518 279T556 376T618 447T707
474Q754 474 786 446T835 371T852 266Q852 215 840 163T802 66T740 -4T651 -31ZM674 30Q704 30 724 54T755 116T771 189T776 250Q776 331 752 372T684 414Q654 414 635 390T604 330T587 258T582 196Q582 113 606 72T674 30Z" />
<glyph unicode="&amp;" glyph-name="ampersand" horiz-adv-x="777" d="M339 -19Q270 -19 222 3T146 60T104 136T91 215Q91 302 149 374T311 484Q248 505 211 537T158 608T142 689Q142 740 169 785T252 859T395 887Q475 887 520 867T585 820T604 769Q604 741 587
725T529 692Q522 725 507 756T464 807T389 827Q343 827 311 806T263 753T247 691Q247 655 259 619T308 557T416 522Q438 520 446 516T455 494Q455 484 453 475T448 459Q361 444 307 406T227 319T202 221Q202 177 220 139T273 78T354 55Q411 55 456 81T527 152T554
255Q554 285 547 314Q502 301 459 286T383 250T334 200Q330 214 328 231T325 260Q325 295 350 318T415 358T504 388T600 417T687 453T748 506Q757 473 757 451Q757 411 722 386T635 342Q639 322 641 303T643 266Q643 197 617 144T547 54T449 0T339 -19Z" />
<glyph unicode="&apos;" glyph-name="quotesingle" horiz-adv-x="228" d="M161 633Q142 633 129 646T115 693Q115 734 125 772T135 835Q135 849 133 862T126 887Q136 895 154 902T200 910Q216 910 224 900T232 863Q232 845 224 816T208 755T200 703Q200 673 212
647Q199 639 187 636T161 633Z" />
<glyph unicode="(" glyph-name="parenleft" horiz-adv-x="407" d="M322 -127Q271 -127 230 -92T159 3T114 141T98 305Q98 403 119 495T177 665T257 803T350 895T442 928Q474 928 487 876Q410 848 355 791T264 659T212 505T195 351Q195 233 222 145T299 5T422 -53Q404
-98 380 -112T322 -127Z" />
<glyph unicode=")" glyph-name="parenright" horiz-adv-x="407" d="M-35 -128Q-67 -128 -80 -76Q-3 -47 52 10T143 141T195 295T212 449Q212 567 186 655T108 795T-15 853Q3 898 27 912T85 927Q136 927 177 892T248 797T293 659T309 495Q309 397 288 305T230 135T150
-3T57 -95T-35 -128Z" />
<glyph unicode="*" glyph-name="asterisk" horiz-adv-x="480" d="M240 447Q224 447 216 456T208 490Q208 519 218 553T236 624Q219 616 196 604T152 577T116 545Q104 550 90 560T64 585T53 615Q53 630 72 642T120 664T173 679T210 689Q184 707 149 727T81 753Q81
764 84 786T96 826T121 845Q144 845 168 826T214 783T253 743Q254 755 254 768T255 794Q255 818 253 841T244 887Q253 895 272 903T318 911Q334 911 342 903T350 868Q350 838 340 804T321 734Q348 746 385 767T442 813Q454 809 469 798T494 773T505 743Q505 728
486 716T438 695T385 679T348 669Q364 657 386 644T432 619T477 605Q477 594 474 572T462 532T437 513Q415 513 391 532T344 575T304 614Q303 601 303 586T302 553Q302 531 304 510T314 471Q305 463 286 455T240 447Z" />
<glyph unicode="+" glyph-name="plus" horiz-adv-x="544" d="M278 205Q250 205 233 226T216 303Q216 345 222 388Q206 389 193 389T174 389Q160 389 140 388T100 382T68 372Q61 383 55 400T49 437Q49 457 65 469T109 482Q126 482 161 480T236 476Q240 501 243
522T246 560Q246 581 244 601T232 640Q241 648 258 653T287 658Q311 658 324 643T337 586Q337 567 333 537T324 472H342Q359 472 388 474T446 481T486 493Q496 482 498 468T501 442Q501 420 475 403T383 386H312Q310 367 309 350T307 319Q307 294 313 275T336 235Q320
217 305 211T278 205Z" />
<glyph unicode="," glyph-name="comma" horiz-adv-x="319" d="M59 -137Q45 -137 35 -131T25 -109Q25 -104 25 -100T26 -88Q30 -89 33 -89T41 -89Q81 -89 103 -57T125 16Q125 39 117 60T92 96Q116 115 138 124T186 133Q240 133 240 61Q240 26 226 -9T186 -73T128
-119T59 -137Z" />
<glyph unicode="-" glyph-name="hyphen" horiz-adv-x="351" d="M62 329Q53 341 46 362T38 402Q38 425 57 434T101 444Q119 444 146 442T202 436T250 433Q297 433 329 455Q338 443 341 430T344 403Q344 377 321 360T239 343Q215 343 193 345T151 347Q132 347 105
343T62 329Z" />
<glyph unicode="." glyph-name="period" horiz-adv-x="295" d="M133 -14Q99 -14 85 -1T71 41Q71 53 73 69T79 106Q121 133 159 133Q185 133 205 122T225 83Q225 70 222 53T212 14Q168 -14 133 -14Z" />
<glyph unicode="/" glyph-name="slash" horiz-adv-x="388" d="M38 -128Q25 -128 9 -123T-24 -101Q2 -70 20 -38T50 29Q72 93 92 176T132 349T168 525T201 683T233 798Q263 883 295 915T360 947Q374 947 393 938T413 903Q370 880 348 838T312 753Q289 683 269 598T231
423T197 249T166 97T136 -14Q114 -78 90 -103T38 -128Z" />
<glyph unicode="0" glyph-name="zero" horiz-adv-x="659" d="M278 -16Q196 -16 140 33T55 165T26 350Q26 424 40 500T82 645T152 769T252 855T381 887Q463 887 519 837T604 704T633 517Q633 443 619 368T577 224T507 101T407 16T278 -16ZM320 61Q369 61 404 93T463
175T501 284T521 396T527 487Q527 647 478 728T338 810Q290 810 256 779T197 699T159 592T139 480T132 388Q132 224 181 143T320 61Z" />
<glyph unicode="1" glyph-name="one" horiz-adv-x="581" d="M319 -7Q284 -7 263 21T241 125Q241 170 251 242T276 403T301 585T312 769Q269 704 235 673T178 632T147 622Q134 622 121 626T95 644T66 690Q95 698 118 709T167 742T232 799Q253 818 269 838T305 873T358
887Q392 887 409 864T427 782Q427 745 419 689T400 566T378 428T358 290T350 166Q350 127 356 92T388 29Q369 7 350 0T319 -7Z" />
<glyph unicode="2" glyph-name="two" horiz-adv-x="669" d="M82 -16Q63 -16 49 -6T27 22Q48 46 87 89T175 188T273 307T365 436T432 563T458 675Q458 712 441 744T392 797T310 817Q240 817 205 774T160 663Q122 678 106 693T89 733Q89 770 112 805T187 863T322
887Q412 887 468 862T550 793T576 692Q576 635 553 574T489 450T398 323T293 199T189 83Q232 95 275 102T355 112T412 116Q458 116 492 111T544 85T563 21Q563 14 563 5T562 -13Q531 -1 499 6T423 16T312 19Q249 19 207 16T118 2Q100 -16 82 -16Z" />
<glyph unicode="3" glyph-name="three" horiz-adv-x="679" d="M221 -16Q165 -16 121 4T52 57T26 123Q26 141 42 158T95 189Q107 132 142 95T246 58Q311 58 355 89T423 167T446 263Q446 302 430 337T378 397T282 428Q257 421 229 416T170 409Q169 414 169 428T169
446Q169 475 177 482T212 492Q291 501 339 529T410 597T433 675Q433 712 418 744T373 797T299 817Q253 817 225 800T181 754T154 692Q117 707 103 722T88 763Q88 786 109 815T179 865T312 887Q397 887 449 862T525 793T550 692Q550 639 511 579T393 473Q479 454
521 404T564 280Q564 238 546 187T487 90T381 14T221 -16Z" />
<glyph unicode="4" glyph-name="four" horiz-adv-x="595" d="M413 -6Q378 -6 358 15T337 93Q337 117 340 142T347 192Q304 195 259 195Q200 195 144 190T43 174Q26 157 8 157Q-29 157 -47 194Q-9 236 33 292T114 414T185 548T236 683T255 808Q255 832 246 851Q272
873 293 880T328 887Q350 887 363 874T376 820Q376 772 354 704T294 556T206 395T100 242Q169 260 240 269T364 279Q369 300 371 319T374 352Q374 374 371 394T357 433Q368 441 388 446T424 452Q454 452 470 436T486 378Q486 359 482 330T471 268Q500 260 517 243T534
194Q534 186 534 177T532 159Q519 165 499 170T456 180Q453 160 451 142T449 109Q449 84 456 64T485 24Q466 6 446 0T413 -6Z" />
<glyph unicode="5" glyph-name="five" horiz-adv-x="679" d="M226 -16Q170 -16 126 4T57 57T31 123Q31 141 47 158T100 189Q112 132 147 95T250 58Q315 58 359 89T427 167T451 263Q451 289 443 317T415 372T357 414T262 430Q198 430 157 419T106 407Q93 407 93
422Q93 429 98 458T110 532T122 628T127 731Q127 767 124 801T106 866Q117 876 137 882T173 889Q193 889 208 881T231 853Q248 852 267 852T311 852Q378 852 422 855T498 865T561 884Q562 876 562 867T563 850Q563 807 545 787T492 761T411 755Q386 755 340 760T242
777Q241 729 228 652T200 487Q222 489 242 490T281 491Q364 491 419 473T507 425T554 357T569 280Q569 238 551 187T492 90T386 14T226 -16Z" />
<glyph unicode="6" glyph-name="six" horiz-adv-x="685" d="M285 -16Q205 -16 150 31T67 157T39 336Q39 411 55 489T104 638T183 765T293 854T432 887Q494 887 530 868T567 805Q567 788 555 770T529 740Q500 779 466 789T383 800Q331 800 292 769T225 689T180
582T154 472T146 382Q146 221 181 141T301 61Q355 61 391 91T445 168T464 263Q464 357 425 397T327 437Q294 437 268 429T225 413T204 405Q199 405 194 408T189 421Q189 433 192 446T202 472Q279 505 355 505Q418 505 469 481T552 406T583 280Q583 238 567 187T516
90T424 14T285 -16Z" />
<glyph unicode="7" glyph-name="seven" horiz-adv-x="589" d="M188 -16Q166 -16 153 -3T140 51Q140 103 155 173T197 324T259 488T337 648T425 789Q381 777 336 770T253 759T195 755Q149 755 115 760T62 786T43 850Q43 858 43 867T45 884Q76 872 108 865T184 855T295
852Q357 852 400 855T488 868Q496 877 505 882T525 887Q544 887 558 877T580 849Q525 794 477 717T388 552T320 375T276 206T260 63Q260 39 270 20Q244 -2 223 -9T188 -16Z" />
<glyph unicode="8" glyph-name="eight" horiz-adv-x="688" d="M287 -16Q197 -16 141 13T59 90T33 189Q33 266 82 332T235 434Q197 463 165 496T114 570T95 660Q95 729 129 780T227 859T378 887Q456 887 504 861T575 795T597 711Q597 650 572 605T511 531T444 483Q431
485 417 494T402 514Q402 520 415 531T447 562T478 614T492 692Q492 723 477 750T432 795T354 812Q313 812 279 795T224 747T204 673Q204 626 231 589T300 520T390 457T480 390T550 311T577 209Q577 144 541 93T440 13T287 -16ZM292 59Q329 59 369 74T438 122T466
202Q466 242 439 274T368 338T277 402Q241 373 209 339T157 269T137 194Q137 156 156 126T211 77T292 59Z" />
<glyph unicode="9" glyph-name="nine" horiz-adv-x="655" d="M179 -16Q118 -16 81 3T44 65Q44 82 55 101T82 130Q111 92 145 81T228 70Q280 70 319 101T385 181T430 288T456 398T464 488Q464 650 430 730T310 810Q257 810 220 780T165 703T146 608Q146 545 164
507T214 451T284 434Q317 434 343 442T386 458T407 466Q412 466 416 463T421 450Q421 423 409 399Q332 365 256 365Q194 365 142 390T59 465T28 591Q28 633 44 683T95 780T187 857T326 887Q406 887 461 840T544 714T572 534Q572 459 556 382T507 233T428 106T318
17T179 -16Z" />
<glyph unicode=":" glyph-name="colon" horiz-adv-x="295" d="M158 502Q124 502 110 515T96 557Q96 569 98 585T104 622Q146 649 184 649Q210 649 230 638T250 599Q250 586 247 569T237 530Q193 502 158 502ZM133 -14Q99 -14 85 -1T71 41Q71 53 73 69T79 106Q121
133 159 133Q185 133 205 122T225 83Q225 70 222 53T212 14Q168 -14 133 -14Z" />
<glyph unicode=";" glyph-name="semicolon" horiz-adv-x="295" d="M158 502Q124 502 110 515T96 557Q96 569 98 585T104 622Q146 649 184 649Q210 649 230 638T250 599Q250 586 247 569T237 530Q193 502 158 502ZM40 -137Q26 -137 16 -131T6 -109Q6 -104 6 -100T7
-88Q11 -89 14 -89T22 -89Q62 -89 84 -57T106 16Q106 39 98 60T73 96Q97 115 119 124T167 133Q221 133 221 61Q221 26 207 -9T167 -73T109 -119T40 -137Z" />
<glyph unicode="&lt;" glyph-name="less" horiz-adv-x="544" d="M402 210Q384 210 362 224Q332 244 290 275T200 339T108 397T25 428Q25 466 52 490T113 530Q157 550 203 568T292 605T365 641T411 679Q426 669 443 651T460 610Q460 581 422 562Q394 549 348 534T253
501T162 463Q202 436 243 407T325 353T399 311T458 292Q457 277 452 258T435 224T402 210Z" />
<glyph unicode="=" glyph-name="equal" horiz-adv-x="544" d="M68 494Q61 505 55 522T49 560Q49 580 65 592T109 604Q124 604 155 603T223 599T292 596T342 594Q359 594 388 596T446 603T486 615Q496 604 498 591T501 564Q501 542 475 525T383 508Q370 508 340
508T276 509T214 510T174 511Q160 511 140 510T100 504T68 494ZM68 250Q61 261 55 278T49 315Q49 335 65 347T109 360Q124 360 155 359T223 355T292 352T342 350Q359 350 388 352T446 359T486 371Q496 360 498 346T501 320Q501 298 475 281T383 264Q370 264 340
264T276 265T214 266T174 267Q160 267 140 266T100 260T68 250Z" />
<glyph unicode="&gt;" glyph-name="greater" horiz-adv-x="544" d="M142 210Q122 210 110 224T93 257T86 292Q110 294 144 310T219 352T300 407T382 463Q342 483 292 500T196 533T122 562Q84 581 84 610Q84 632 101 650T133 679Q147 660 178 642T252 605T340 569T431
530Q464 515 491 491T519 428Q482 422 437 397T344 340T255 276T182 224Q160 210 142 210Z" />
<glyph unicode="?" glyph-name="question" horiz-adv-x="496" d="M215 237Q199 237 189 245T171 267Q189 290 214 326T265 408T315 500T352 593T367 675Q367 712 353 744T312 797T245 817Q178 817 151 771T124 647Q87 664 65 688T43 743Q43 787 71 819T147 869T251
887Q360 887 422 836T484 692Q484 645 463 590T408 477T336 367T265 273Q253 257 241 247T215 237ZM188 -14Q154 -14 140 -1T125 41Q125 53 127 69T133 106Q177 133 213 133Q240 133 259 122T279 83Q279 56 267 14Q223 -14 188 -14Z" />
<glyph unicode="@" glyph-name="at" horiz-adv-x="1116" d="M504 -101Q290 -101 182 13T73 354Q73 470 113 573T226 757T397 883T613 929Q820 929 931 820T1042 510Q1042 441 1025 374T975 251T893 163T783 130Q714 130 681 160T638 242T628 364Q603 304 572 258T511
185T454 158Q400 158 365 209T329 350Q329 421 347 482T398 589T472 661T561 687Q620 687 662 645Q673 680 706 680Q732 680 754 654Q745 630 738 583T726 481T721 373Q721 330 724 290T741 224T788 198Q830 198 864 231T919 327T940 479Q940 669 855 765T591 861Q496
861 420 821T289 710T205 549T176 358Q176 163 257 65T504 -33Q590 -33 666 -6T809 63Q822 46 830 27T839 -12Q839 -30 809 -46T728 -74T620 -94T504 -101ZM479 250Q495 250 515 271T557 329T598 410T632 501T651 587Q605 622 564 622Q525 622 495 590T447 500T430
368Q430 313 443 282T479 250Z" />
<glyph unicode="A" glyph-name="A" horiz-adv-x="657" d="M51 -7Q30 -7 18 4T5 43Q5 71 22 125Q34 161 59 217T118 342T184 480T246 616T292 731Q302 760 309 788T317 841Q317 854 314 866Q324 873 343 881T378 889Q424 889 448 871T490 793Q501 756 509 699T523
571T536 426T554 282T581 156Q592 117 613 87T667 29Q657 7 637 0T604 -7Q573 -7 550 2T510 38T476 115Q469 140 463 176T451 255H158Q141 216 124 170T107 77Q107 64 109 52T119 29Q105 7 85 0T51 -7ZM188 323H444Q437 394 430 469T412 615T386 737Q365 686 331
618T260 473T188 323Z" />
<glyph unicode="B" glyph-name="B" horiz-adv-x="663" d="M283 -11Q183 -11 141 19T98 116Q98 152 105 213T124 348T147 499T166 645T174 765Q174 786 170 815T159 864Q207 873 259 880T361 887Q446 887 501 863T584 798T612 711Q612 648 567 585T432 479Q626
449 626 290Q626 256 614 216T577 136T512 63T415 9T283 -11ZM242 482Q336 488 394 518T480 591T507 678Q507 718 492 752T442 807T350 829Q335 829 320 827T287 822Q287 785 280 731T263 613T242 482ZM310 59Q377 59 423 90T494 169T519 267Q519 311 500 350T437
414T320 441Q300 437 279 433T234 427Q223 353 215 283T207 160Q207 135 209 117T215 84Q232 73 255 66T310 59Z" />
<glyph unicode="C" glyph-name="C" horiz-adv-x="608" d="M365 -21Q263 -21 200 27T108 156T78 336Q78 411 93 489T140 638T217 765T325 854T463 887Q528 887 573 864T618 793Q618 752 601 730T567 693Q544 745 509 777T411 810Q356 810 317 778T253 695T213 586T192
473T186 382Q186 223 237 136T393 49Q449 49 492 84T559 186Q572 172 578 154T584 117Q584 83 553 51T472 -1T365 -21Z" />
<glyph unicode="D" glyph-name="D" horiz-adv-x="730" d="M283 -11Q183 -11 141 19T98 116Q98 158 105 218T124 349T147 491T166 631T174 750Q174 771 170 803T159 854Q278 880 373 880Q471 880 542 851T652 751T691 559Q691 444 663 342T581 160T452 35T283 -11ZM312
59Q373 59 419 88T497 165T548 273T577 392T586 505Q586 626 565 694T495 790T364 819Q346 819 327 818T288 812Q288 776 280 717T260 586T236 437T215 289T207 160Q207 135 209 117T215 85Q233 74 256 67T312 59Z" />
<glyph unicode="E" glyph-name="E" horiz-adv-x="602" d="M424 -10Q402 -10 368 -7T295 1T222 11Q207 1 193 -3T168 -8Q136 -8 116 14T96 89Q96 144 110 230T141 412Q129 413 117 413T90 413Q95 448 105 461T152 478Q163 549 171 617T180 741Q180 762 176 791T165
839Q188 858 232 862T321 867Q360 867 401 866T483 865Q533 865 575 868T643 884Q640 839 626 816T588 784T528 776Q472 776 412 782T293 798Q293 764 287 714T272 603T251 479Q302 480 351 482T441 492T507 512Q503 458 485 434T437 404T369 398Q338 398 307 401T239
407Q226 325 217 248T208 112Q208 105 208 98T209 83Q240 82 275 81T347 79Q425 79 491 84T585 105Q581 50 562 26T508 -4T424 -10Z" />
<glyph unicode="F" glyph-name="F" horiz-adv-x="570" d="M184 -7Q149 -7 128 21T106 125Q106 155 111 200T124 301T142 412Q130 413 117 413T90 413Q95 448 105 461T153 478Q164 551 172 620T180 741Q180 762 176 791T165 839Q188 858 232 862T319 867Q356 867
394 866T470 865Q517 865 556 868T619 884Q616 839 602 816T563 784T504 776Q453 776 399 782T293 798Q292 743 279 658T250 479Q301 480 350 482T440 492T507 512Q503 458 485 434T437 404T369 398Q338 398 307 401T238 407Q228 341 221 279T214 166Q214 127 221
92T253 29Q234 7 215 0T184 -7Z" />
<glyph unicode="G" glyph-name="G" horiz-adv-x="689" d="M319 -21Q240 -21 187 27T106 156T78 336Q78 411 93 489T140 638T217 765T325 854T463 887Q528 887 573 864T618 793Q618 752 601 730T567 693Q544 745 509 777T411 810Q356 810 317 778T253 695T213 586T192
473T186 382Q186 223 231 136T350 49Q400 49 445 75T521 144Q526 203 536 258T547 349Q547 372 544 394T532 435Q542 443 560 448T590 454Q617 454 631 438T645 377Q645 354 640 320T628 247T616 172T611 109Q611 84 617 64T641 24Q625 6 609 0T581 -6Q556 -6 540
10T519 70Q482 31 431 5T319 -21Z" />
<glyph unicode="H" glyph-name="H" horiz-adv-x="782" d="M176 -7Q141 -7 120 21T98 125Q98 161 105 217T123 342T144 480T162 616T169 731Q169 767 166 801T148 866Q159 876 180 882T215 889Q249 889 266 866T284 783Q284 750 278 700T261 591T240 468H567Q578
541 586 610T594 731Q594 767 591 801T573 866Q584 876 604 882T640 889Q674 889 691 866T708 783Q708 746 700 690T681 567T659 428T639 290T631 166Q631 127 638 92T669 29Q651 7 632 0T600 -7Q565 -7 544 21T522 125Q522 169 532 241T556 395H229Q219 333 213
274T207 166Q207 127 213 92T245 29Q226 7 207 0T176 -7Z" />
<glyph unicode="I" glyph-name="I" horiz-adv-x="332" d="M176 -7Q141 -7 120 21T98 125Q98 161 105 217T123 342T144 480T162 616T169 731Q169 767 166 801T148 866Q159 876 180 882T215 889Q249 889 266 866T284 783Q284 746 276 690T257 567T235 428T215 290T207
166Q207 127 213 92T245 29Q226 7 207 0T176 -7Z" />
<glyph unicode="J" glyph-name="J" horiz-adv-x="336" d="M-92 -229Q-117 -229 -145 -221T-192 -191T-212 -130Q-212 -101 -200 -81T-176 -51Q-161 -94 -138 -121T-64 -149Q-24 -149 7 -116T62 -26T103 105T132 262T149 429T159 590T162 731Q162 767 159 801T141
866Q152 876 172 882T208 889Q241 889 258 866T276 783Q276 702 271 609T255 417T224 226T177 50T110 -95T21 -193T-92 -229Z" />
<glyph unicode="K" glyph-name="K" horiz-adv-x="632" d="M553 -10Q534 -10 511 1T458 57Q447 73 427 111T382 200T331 304T283 403Q267 388 252 374T222 346Q215 297 211 251T207 166Q207 127 213 92T245 29Q226 7 207 0T176 -7Q141 -7 120 21T98 125Q98 161
105 217T123 342T144 480T162 616T169 731Q169 767 166 801T148 866Q159 876 180 882T215 889Q249 889 266 866T284 783Q284 748 277 694T258 574T236 440Q307 511 366 581T470 711T540 816T571 879Q612 879 636 866T661 833Q661 824 635 789T564 702T465 590T354
472Q371 439 393 394T440 300T486 212T523 151Q543 123 570 101T632 74Q627 39 612 21T580 -4T553 -10Z" />
<glyph unicode="L" glyph-name="L" horiz-adv-x="562" d="M410 -10Q389 -10 356 -7T286 1T214 11Q198 0 184 -4T158 -8Q126 -8 106 14T86 89Q86 131 94 191T115 320T140 463T160 604T169 731Q169 767 166 801T148 866Q159 876 180 882T215 889Q249 889 266 866T284
783Q284 742 276 680T255 544T229 392T208 242T199 112Q199 105 199 98T200 82Q257 79 329 79Q378 79 424 81T507 89T562 105Q558 50 540 26T489 -4T410 -10Z" />
<glyph unicode="M" glyph-name="M" horiz-adv-x="886" d="M171 -7Q140 -7 119 21T98 125Q98 161 105 217T123 342T144 480T162 616T169 731Q169 767 166 801T148 866Q158 876 175 882T213 889Q261 888 296 864T353 766Q372 706 385 639T416 496T460 330Q478 379
505 438T563 560T619 681T661 786T678 861Q689 871 713 880T770 889Q803 889 820 866T838 783Q838 746 830 690T811 567T789 428T769 290T761 166Q761 127 768 92T799 29Q780 7 762 0T730 -7Q695 -7 674 21T652 125Q652 161 659 218T677 343T698 482T716 620T724
740Q692 675 658 607T596 476T552 365Q542 336 535 308T527 254Q527 248 527 242T529 230Q522 221 502 214T460 207Q432 207 413 217T378 261T345 362Q331 419 321 463T303 545T284 624T260 716Q254 662 242 592T218 446T196 298T187 166Q187 127 194 92T226 29Q218
7 201 0T171 -7Z" />
<glyph unicode="N" glyph-name="N" horiz-adv-x="769" d="M171 -7Q140 -7 119 21T98 125Q98 161 105 217T123 342T144 480T162 616T169 731Q169 767 166 801T148 866Q153 875 172 882T213 889Q256 889 283 870T340 793Q358 758 377 703T417 582T460 444T506 305T558
180Q563 234 574 306T597 455T617 604T626 731Q626 767 623 801T605 866Q614 876 633 882T665 889Q693 889 707 866T721 783Q721 746 713 690T694 567T672 428T652 290T644 166Q644 127 652 92T685 29Q677 8 659 1T621 -7Q592 -7 568 3T521 39T473 115Q456 149
437 202T396 321T353 455T307 589T259 707Q252 652 241 583T217 440T196 295T187 166Q187 127 194 92T226 29Q218 7 201 0T171 -7Z" />
<glyph unicode="O" glyph-name="O" horiz-adv-x="782" d="M344 -21Q258 -21 199 27T109 156T78 336Q78 411 93 489T140 638T219 766T330 856T472 889Q559 889 618 841T707 712T738 531Q738 456 722 378T675 229T596 102T486 12T344 -21ZM405 57Q460 57 498 89T562
172T603 282T624 395T630 487Q630 647 571 728T411 810Q356 810 318 778T254 695T213 585T192 472T186 380Q186 220 245 139T405 57Z" />
<glyph unicode="P" glyph-name="P" horiz-adv-x="575" d="M176 -7Q141 -7 120 21T98 125Q98 161 105 221T124 354T147 502T166 646T174 765Q174 786 170 815T159 864Q212 874 268 881T377 889Q444 889 500 872T590 810T624 684Q624 617 597 565T526 471T427 401T319
351T218 319Q213 276 210 237T207 166Q207 127 213 92T245 29Q226 7 207 0T176 -7ZM227 387Q282 399 334 420T428 475T494 554T519 663Q519 724 498 760T440 812T355 828Q323 828 287 822Q287 776 277 705T253 552T227 387Z" />
<glyph unicode="Q" glyph-name="Q" horiz-adv-x="772" d="M667 -205Q632 -205 597 -188T526 -142T453 -81T375 -19Q366 -20 357 -20T339 -21Q252 -21 193 27T104 156T73 336Q73 411 88 489T135 638T214 766T325 856T467 889Q554 889 613 841T702 712T733 531Q733
451 715 368T661 211T572 80T446 -2Q517 -41 588 -72T730 -104Q741 -104 752 -103T773 -100Q773 -144 745 -174T667 -205ZM400 57Q455 57 493 89T557 172T598 282T619 395T625 487Q625 647 566 728T406 810Q351 810 313 778T249 695T208 585T187 472T181 380Q181
220 240 139T400 57Z" />
<glyph unicode="R" glyph-name="R" horiz-adv-x="654" d="M558 -10Q539 -10 516 1T463 57Q452 74 434 108T394 186T350 278T306 367Q284 360 263 354T221 343Q207 240 207 166Q207 127 213 92T245 29Q226 7 207 0T176 -7Q141 -7 120 21T98 125Q98 161 105 221T124
354T147 502T166 646T174 765Q174 786 170 815T159 864Q212 874 269 881T382 889Q451 889 509 872T603 813T638 692Q638 621 603 566T513 471T394 401Q425 341 451 285T505 184T565 109T637 74Q632 39 617 21T585 -4T558 -10ZM231 412Q286 423 339 443T437 495T507
570T533 672Q533 729 510 763T447 813T358 828Q323 828 287 822Q287 778 278 712T256 568T231 412Z" />
<glyph unicode="S" glyph-name="S" horiz-adv-x="563" d="M262 -17Q207 -17 154 -2T67 44T32 123Q32 155 47 179T83 227Q106 136 159 93T288 49Q322 49 355 62T411 104T434 180Q434 218 421 248T380 306T312 367T213 447Q163 488 129 535T94 654Q94 730 129 782T225
861T365 889Q409 889 448 878T511 842T535 780Q535 752 520 730T490 695Q478 726 453 753T394 797T315 815Q264 815 226 782T187 684Q187 649 197 627T232 581T301 524T416 430Q452 400 478 370T518 302T533 211Q533 148 499 96T403 14T262 -17Z" />
<glyph unicode="T" glyph-name="T" horiz-adv-x="537" d="M275 -7Q241 -7 220 21T198 125Q198 161 205 218T223 345T245 487T263 625T271 741Q271 751 271 763T270 789Q215 789 177 786T107 776T43 757Q48 825 72 847T141 869Q149 869 175 869T240 868T320 867T402
866T471 866T513 865Q551 865 584 868T637 884Q634 839 623 816T591 784T540 776Q519 776 476 781T385 788Q384 745 376 686T356 558T333 419T314 284T306 166Q306 127 313 92T345 29Q326 7 307 0T275 -7Z" />
<glyph unicode="U" glyph-name="U" horiz-adv-x="742" d="M223 -16Q173 -16 146 8T108 72T98 153Q98 189 105 242T122 359T141 489T158 618T165 731Q165 767 162 801T144 866Q155 876 175 882T211 889Q245 889 262 866T280 783Q280 746 272 690T253 564T230 423T210
283T202 158Q202 124 213 102T252 80Q276 80 312 105T388 171T468 264T537 367Q547 431 556 497T573 623T580 731Q580 767 577 801T559 866Q570 876 590 882T625 889Q659 889 676 866T694 783Q694 746 686 690T667 567T645 428T625 290T617 166Q617 127 624 92T655
29Q636 7 618 0T586 -7Q551 -7 530 21T508 125Q508 169 519 243Q486 192 447 145T368 62T290 5T223 -16Z" />
<glyph unicode="V" glyph-name="V" horiz-adv-x="642" d="M307 -7Q265 -7 242 11T201 88Q190 125 182 183T168 311T155 455T137 599T110 725Q99 764 78 794T24 853Q34 872 55 880T90 889Q119 889 142 880T184 844T218 766Q229 730 236 673T250 545T264 403T282
263T307 146Q331 203 366 273T439 420T510 568T563 702T584 804Q584 818 582 830T572 853Q586 874 606 881T640 889Q660 889 673 878T686 838Q686 807 669 758T625 648T564 520T497 383T436 250T391 132T374 40Q374 33 374 27T376 16Q369 6 349 0T307 -7Z" />
<glyph unicode="W" glyph-name="W" horiz-adv-x="948" d="M283 -7Q239 -7 215 11T174 88Q164 125 159 183T149 311T141 455T128 599T106 725Q96 764 76 794T24 853Q35 872 56 880T92 889Q121 889 143 880T183 844T215 766Q225 731 230 675T240 552T248 413T260
276T280 158Q300 209 327 269T383 395T439 524T487 645Q480 683 468 717T435 763Q448 784 472 798T522 812Q542 812 557 802T580 766Q589 731 594 676T604 552T612 413T624 277T644 159Q667 217 698 286T763 430T825 574T872 704T890 804Q890 818 888 830T878 853Q892
874 912 881T946 889Q967 889 979 878T992 838Q992 807 977 758T936 648T881 520T821 383T765 250T725 132T709 40Q709 27 712 16Q702 6 682 0T648 -7Q618 -7 598 0T564 28T539 88Q528 128 523 193T514 336T504 493Q476 429 448 364T396 238T359 127T345 40Q345
33 345 27T347 16Q338 6 320 0T283 -7Z" />
<glyph unicode="X" glyph-name="X" horiz-adv-x="638" d="M86 -13Q66 -13 54 -1T41 43Q41 59 58 94T104 178T172 282T251 392Q212 474 182 552T134 689T116 777Q116 813 132 834T200 871Q205 820 223 755T270 617T333 472Q364 513 395 561T454 656T497 742T514
803Q514 815 512 823T505 838Q519 855 539 862T572 869Q593 869 605 857T618 812Q618 794 597 752T539 652T457 531T365 409Q411 321 460 245T555 117T638 51Q625 -13 570 -13Q539 -13 503 14T430 89T355 198T284 326Q248 275 217 221T165 122T145 53Q145 41 147
33T154 18Q139 1 120 -6T86 -13Z" />
<glyph unicode="Y" glyph-name="Y" horiz-adv-x="552" d="M280 -7Q246 -7 226 20T205 118Q205 149 211 198T228 309Q214 380 198 452T162 591T122 710T77 792T27 823Q40 861 66 875T111 889Q137 889 162 866T208 785Q215 764 226 724T251 632T278 526T302 419Q332
480 363 533T422 633T467 721T484 800Q484 814 482 826T474 849Q489 870 511 877T546 885Q566 885 578 874T591 837Q591 818 577 783T538 702T484 606T425 507T370 414Q349 379 340 357T326 306Q321 264 318 226T314 155Q314 119 321 87T350 29Q331 7 312 0T280
-7Z" />
<glyph unicode="Z" glyph-name="Z" horiz-adv-x="571" d="M549 -23Q519 -11 487 -2T410 13T299 19Q239 19 195 14T107 -1Q87 -21 64 -21Q45 -21 32 -11T10 17Q27 54 56 112T122 240T198 384T276 528T345 655T397 749Q343 739 298 736T238 732Q160 732 125 752T89
809Q89 829 94 847T113 884Q150 862 206 844T345 825Q377 825 403 826T452 830Q487 866 525 866Q536 866 554 862T586 842T601 789Q573 785 539 751T466 662T386 536T304 387T224 230T150 78Q233 101 299 108T399 116Q446 116 480 110T532 82T551 12Q551 4 551
-5T549 -23Z" />
<glyph unicode="[" glyph-name="bracketleft" horiz-adv-x="392" d="M172 -126Q142 -126 113 -122T66 -101T47 -49Q47 -14 54 50T74 197T99 368T124 544T143 704T151 825Q151 846 147 875T136 923Q159 942 203 946T292 951Q342 951 384 954T452 970Q452 929 437
905T399 871T348 861Q326 861 304 867T264 882Q264 848 257 785T237 638T212 462T186 276T167 98T159 -53Q172 -53 195 -50T245 -40T296 -26T335 -11Q335 -50 332 -68T310 -100Q298 -109 274 -115T222 -123T172 -126Z" />
<glyph unicode="\" glyph-name="backslash" horiz-adv-x="388" d="M351 -128Q323 -128 300 -103T253 -14Q238 28 223 96T192 249T159 423T121 598T77 753Q63 796 42 838T-24 903Q-23 929 -4 938T29 947Q61 947 93 915T156 798Q171 754 187 683T221 526T257 349T296
176T339 29Q351 -6 369 -38T413 -101Q397 -117 381 -122T351 -128Z" />
<glyph unicode="]" glyph-name="bracketright" horiz-adv-x="392" d="M151 -124Q85 -124 48 -118T-8 -98Q-26 -84 -29 -66T-33 -9Q-18 -16 10 -23T70 -37T127 -47Q142 -8 152 53T169 189T182 346T191 509T201 663T212 792T228 882Q208 873 184 867T136 861Q101
861 76 879T51 942Q51 953 56 970Q76 958 117 955T208 951Q252 951 296 947T360 923Q330 879 309 716T278 295Q275 213 268 138T246 3T209 -90T151 -124Z" />
<glyph unicode="^" glyph-name="asciicircum" horiz-adv-x="544" d="M437 419Q411 419 383 441T335 522Q322 561 306 634T260 812Q224 730 197 673T154 575T138 499Q138 470 149 451Q137 436 118 429T86 422Q65 422 53 433T40 473Q40 493 54 527T90 604T136 691T183
775T219 846T233 891Q233 894 233 897T232 904Q265 916 288 916Q311 916 323 905T339 873Q367 755 393 668T449 534T519 485Q506 447 481 433T437 419Z" />
<glyph unicode="_" glyph-name="underscore" horiz-adv-x="452" d="M19 -100Q12 -89 6 -72T0 -35Q0 -15 16 -3T60 10Q75 10 106 9T174 5T243 2T293 0Q310 0 339 2T397 9T437 21Q447 10 449 -4T452 -30Q452 -52 426 -69T334 -86Q321 -86 291 -86T227 -85T165 -84T125
-83Q111 -83 91 -84T51 -90T19 -100Z" />
<glyph unicode="`" glyph-name="grave" horiz-adv-x="309" d="M390 740Q383 740 361 749T309 775T248 810T189 849Q166 866 159 873T152 890Q152 899 164 908T209 918Q219 918 230 917T256 913Q265 898 281 880T330 836T417 768Q401 740 390 740Z" />
<glyph unicode="a" glyph-name="a" horiz-adv-x="687" d="M215 -14Q147 -14 108 53T68 237Q68 331 90 412T153 555T246 650T361 684Q446 684 502 617Q510 648 522 661T557 674Q588 674 611 648Q602 624 594 582T580 487T571 378T567 269Q567 179 577 126T613 30Q584
-7 545 -7Q503 -7 481 47T459 204Q459 219 460 240T464 284T467 323Q433 227 389 151T299 30T215 -14ZM249 92Q272 92 301 122T361 204T420 317T468 443T494 563Q426 615 365 615Q309 615 266 570T198 446T173 262Q173 183 193 138T249 92Z" />
<glyph unicode="b" glyph-name="b" horiz-adv-x="682" d="M344 -14Q298 -14 261 5T198 53Q192 19 180 6T147 -8Q117 -8 91 18Q98 59 106 121T123 258T140 408T154 552T165 673T169 751Q169 817 166 852T148 915Q159 925 180 931T216 937Q250 937 267 914T284 832Q284
808 279 762T266 659T249 542T231 431T218 346Q248 445 289 521T373 640T453 684Q494 684 531 655T591 563T614 398Q614 326 598 253T549 120T465 23T344 -14ZM336 54Q392 54 431 96T490 209T510 367Q510 423 502 471T474 548T425 578Q403 578 375 548T319 466T266
353T225 227T205 106Q242 79 275 67T336 54Z" />
<glyph unicode="c" glyph-name="c" horiz-adv-x="532" d="M312 -17Q227 -17 173 20T94 120T68 259Q68 317 82 376T124 491T191 589T281 658T393 684Q452 684 492 666T532 603Q532 568 517 545T487 511Q465 554 434 581T346 609Q303 609 274 586T225 525T195 444T180
361T176 294Q176 177 216 117T331 57Q425 57 469 158Q480 147 485 132T490 102Q490 71 473 49T428 12T370 -10T312 -17Z" />
<glyph unicode="d" glyph-name="d" horiz-adv-x="694" d="M215 -14Q176 -14 143 11T89 92T68 237Q68 297 79 360T114 481T172 584T254 657T361 684Q408 684 443 665T502 617Q504 637 505 663T506 718Q506 758 504 797T497 868T484 915Q495 925 515 931T551 937Q586
937 603 913T621 826Q621 779 613 718T593 584T574 435T565 280Q565 195 574 137T612 30Q597 11 580 2T544 -7Q500 -7 480 49T459 206Q459 240 461 268T467 323Q432 224 388 148T298 29T215 -14ZM249 92Q271 92 300 122T361 203T420 316T468 442T494 563Q458 590
426 602T365 615Q320 615 284 587T224 511T186 398T173 262Q173 215 181 177T206 115T249 92Z" />
<glyph unicode="e" glyph-name="e" horiz-adv-x="583" d="M312 -17Q227 -17 173 20T94 120T68 259Q68 317 82 376T124 491T191 589T281 658T393 684Q473 684 511 644T549 548Q549 504 528 458T465 371T364 306T230 281Q203 281 176 284Q178 172 218 115T331 57Q381
57 419 81T481 158Q493 147 499 132T505 102Q505 71 486 49T438 12T375 -10T312 -17ZM223 345Q296 345 345 371T419 436T444 515Q444 554 420 581T346 609Q301 609 271 584T221 518T192 432T178 348Q202 345 223 345Z" />
<glyph unicode="f" glyph-name="f" horiz-adv-x="363" d="M161 -223Q126 -223 105 -195T83 -91Q83 -57 87 -1T99 124T116 268T134 414T152 546Q123 545 93 540T39 520Q39 555 45 579T78 617T165 630Q178 695 202 755T262 863T341 939T439 967Q580 967 580 877Q580
826 534 794Q522 845 496 869T425 893Q387 893 356 868T302 786T262 630Q323 630 360 635T423 659Q418 612 403 589T352 557T249 547Q241 489 231 411T212 249T198 87T192 -50Q192 -89 199 -124T230 -187Q212 -209 193 -216T161 -223Z" />
<glyph unicode="g" glyph-name="g" horiz-adv-x="676" d="M279 -254Q254 -254 226 -250T173 -236T133 -208T117 -161Q117 -131 129 -111T153 -81Q179 -124 221 -152T318 -180Q368 -180 396 -151T439 -62T458 94T467 322Q432 223 388 148T298 29T215 -14Q176 -14
143 11T89 92T68 237Q68 297 79 360T114 481T172 584T254 657T361 684Q408 684 443 665T502 617Q510 650 523 662T557 674Q574 674 593 669T626 653Q616 635 604 610T581 556Q577 519 574 466T568 337T566 151Q566 27 531 -64T431 -204T279 -254ZM249 92Q271 92
300 122T361 203T420 316T468 442T494 563Q458 590 426 602T365 615Q320 615 284 587T224 511T186 398T173 262Q173 215 181 177T206 115T249 92Z" />
<glyph unicode="h" glyph-name="h" horiz-adv-x="664" d="M147 -7Q107 -7 95 21T83 93Q83 149 95 228T124 399T152 589T165 780Q165 816 162 850T144 915Q155 925 175 931T210 937Q244 937 261 914T279 832Q279 786 271 725T250 596T226 459T206 330Q232 390 260
452T321 565T387 648T458 680Q506 680 531 655T565 589T574 507Q574 433 563 364T551 220Q551 191 554 154T567 84T595 29Q577 10 560 2T525 -7Q484 -7 463 43T442 187Q442 251 450 311T467 420T475 501Q475 537 464 555T421 574Q400 574 375 549T324 480T275 385T233
278T203 177T192 95Q192 64 197 40T209 7Q191 0 176 -3T147 -7Z" />
<glyph unicode="i" glyph-name="i" horiz-adv-x="332" d="M271 841Q271 830 269 815T260 780Q223 757 191 757Q161 757 149 768T137 804Q137 815 139 829T144 861Q181 884 213 884Q236 884 253 874T271 841ZM176 -7Q141 -7 120 21T98 125Q98 184 108 247T129 378T140
521Q140 553 137 587T119 650Q130 661 151 667T186 673Q212 673 232 656T253 597Q253 572 246 522T230 410T214 283T207 166Q207 127 213 92T245 29Q226 7 207 0T176 -7Z" />
<glyph unicode="j" glyph-name="j" horiz-adv-x="328" d="M256 841Q256 830 254 815T245 780Q208 757 176 757Q146 757 134 768T122 804Q122 815 124 829T129 861Q166 884 198 884Q221 884 238 874T256 841ZM-62 -263Q-100 -263 -131 -249T-182 -212T-201 -161Q-201
-131 -189 -111T-165 -81Q-145 -124 -113 -152T-39 -180Q31 -180 66 -96T113 145T125 521Q125 553 122 590T104 650Q112 659 134 666T170 673Q196 673 217 656T238 597Q238 491 233 379T215 163T180 -23Q157 -112 117 -164T30 -240T-62 -263Z" />
<glyph unicode="k" glyph-name="k" horiz-adv-x="600" d="M511 -10Q491 -10 464 6T407 60Q378 95 339 163T252 310L207 270Q205 242 204 216T202 166Q202 127 209 92T240 29Q221 7 202 0T171 -7Q136 -7 115 21T93 125Q93 161 100 218T118 345T139 490T157 640T165
780Q165 816 162 850T144 915Q155 925 175 931T210 937Q244 937 261 914T279 832Q279 800 273 749T257 634T237 502T218 366Q284 429 337 489T423 596T463 668Q504 668 528 655T553 622Q553 611 522 575T439 486T324 376Q361 314 396 257T464 160Q489 130 519 107T585
78Q584 41 570 22T539 -3T511 -10Z" />
<glyph unicode="l" glyph-name="l" horiz-adv-x="332" d="M176 -7Q141 -7 120 21T98 125Q98 161 105 218T123 345T144 490T162 640T169 780Q169 816 166 850T148 915Q159 925 180 931T215 937Q249 937 266 914T284 832Q284 795 276 734T257 599T235 446T215 295T207
166Q207 127 213 92T245 29Q226 7 207 0T176 -7Z" />
<glyph unicode="m" glyph-name="m" horiz-adv-x="982" d="M150 -7Q110 -7 98 21T86 93Q86 146 95 214T114 359T124 516Q124 552 121 586T103 650Q114 661 134 667T169 673Q203 673 220 650T238 568Q238 517 229 453T209 330Q233 390 260 452T317 565T380 648T447
680Q493 680 516 655T548 589T557 507Q557 473 556 448T553 396T544 330Q567 392 594 454T651 567T714 649T782 680Q828 680 851 655T883 589T892 507Q892 433 881 364T869 220Q869 191 872 154T885 84T913 29Q896 10 879 2T844 -7Q803 -7 782 43T761 187Q761 251
769 311T785 420T793 501Q793 537 783 555T743 574Q723 574 700 549T653 480T607 385T568 278T540 177T530 95Q530 64 535 40T547 7Q528 0 513 -3T485 -7Q445 -7 433 21T421 93Q421 146 430 210T449 348T458 501Q458 537 448 555T409 574Q389 574 366 549T319 480T272
385T233 278T205 177T195 95Q195 64 200 40T212 7Q193 0 178 -3T150 -7Z" />
<glyph unicode="n" glyph-name="n" horiz-adv-x="667" d="M150 -7Q110 -7 98 21T86 93Q86 146 95 214T114 359T124 516Q124 552 121 586T103 650Q114 661 134 667T169 673Q203 673 220 650T238 568Q238 517 229 453T209 330Q235 390 263 452T324 565T390 648T460
680Q577 680 577 507Q577 433 566 364T554 220Q554 191 557 154T570 84T598 29Q580 10 563 2T528 -7Q487 -7 466 43T445 187Q445 251 453 311T470 422T478 507Q478 539 466 556T432 574Q409 574 382 549T329 480T278 385T236 278T206 177T195 95Q195 64 200 40T212
7Q193 0 178 -3T150 -7Z" />
<glyph unicode="o" glyph-name="o" horiz-adv-x="678" d="M286 -17Q214 -17 166 20T93 120T68 259Q68 317 82 376T124 491T191 589T281 658T393 684Q465 684 513 647T586 548T610 408Q610 350 596 291T555 176T488 78T398 9T286 -17ZM335 57Q376 57 405 80T453
142T482 223T497 306T502 373Q502 490 459 549T341 609Q301 609 273 586T226 525T196 444T181 361T176 294Q176 177 219 117T335 57Z" />
<glyph unicode="p" glyph-name="p" horiz-adv-x="689" d="M157 -271Q120 -271 96 -239T72 -118Q72 -72 80 -7T98 141T117 318T125 516Q125 552 122 586T104 650Q115 661 135 667T170 673Q204 673 221 650T239 568Q239 530 236 498T227 426T210 330Q275 497 339
590T459 684Q501 684 538 655T598 563T621 398Q621 326 605 253T556 120T472 23T351 -14Q309 -14 261 1T183 41Q181 16 180 -9T178 -61Q178 -109 185 -155T225 -235Q207 -257 189 -264T157 -271ZM343 54Q399 54 438 96T497 209T517 367Q517 423 509 471T481 548T432
578Q408 578 374 540T303 435T236 279T190 91Q224 72 262 63T343 54Z" />
<glyph unicode="q" glyph-name="q" horiz-adv-x="663" d="M473 -274Q439 -274 422 -251T404 -169Q404 -135 410 -80T427 42T448 182T467 323Q432 224 388 148T298 29T215 -14Q176 -14 143 11T89 92T68 237Q68 297 79 360T114 481T172 584T254 657T361 684Q408
684 443 665T502 617Q510 650 523 662T557 674Q574 674 586 667T611 645Q604 621 595 571T575 454T555 310T537 156T524 8T519 -117Q519 -153 522 -187T540 -251Q529 -261 508 -267T473 -274ZM249 92Q271 92 300 122T361 203T420 316T468 442T494 563Q458 590 426
602T365 615Q320 615 284 587T224 511T186 398T173 262Q173 215 181 177T206 115T249 92Z" />
<glyph unicode="r" glyph-name="r" horiz-adv-x="482" d="M176 -7Q141 -7 120 21T98 125Q98 184 108 247T129 378T140 521Q140 553 137 587T119 650Q130 661 151 667T186 673Q212 673 232 656T253 597Q253 568 244 506T224 371Q262 472 306 542T390 648T457 684Q476
684 487 671T502 641T507 610Q507 598 505 584T501 560Q486 563 473 563Q432 563 393 534T320 459T261 359T221 257T207 174Q207 129 213 93T245 29Q226 7 207 0T176 -7Z" />
<glyph unicode="s" glyph-name="s" horiz-adv-x="516" d="M229 -13Q179 -13 137 0T68 39T42 106Q42 134 56 155T90 195Q103 144 128 113T185 67T248 52Q292 52 324 75T356 139Q356 177 336 205T277 265T181 342Q144 371 121 409T98 503Q98 590 160 637T330 684Q389
684 427 664T465 591Q465 565 449 544T419 511Q402 554 371 584T283 614Q240 614 216 592T191 538Q191 514 199 495T227 456T283 406T372 333Q410 302 431 266T452 179Q452 94 395 41T229 -13Z" />
<glyph unicode="t" glyph-name="t" horiz-adv-x="409" d="M244 -15Q212 -15 184 -2T137 40T119 120Q119 153 124 203T138 312T155 432T171 547Q140 547 103 542T39 520Q39 555 46 579T83 617T180 630Q180 641 181 652T182 676Q182 713 179 747T161 811Q172 821
192 827T228 834Q261 834 279 811T297 729Q297 715 294 690T285 630Q340 631 382 637T448 659Q443 614 425 591T369 559T271 548Q261 484 250 410T232 262T225 123Q225 88 240 73T276 58Q301 58 328 78T371 130Q389 108 389 83Q389 59 373 37T324 0T244 -15Z" />
<glyph unicode="u" glyph-name="u" horiz-adv-x="677" d="M209 -16Q161 -16 135 8T100 72T90 153Q90 212 99 268T118 385T127 521Q127 553 124 587T106 650Q117 661 137 667T173 673Q199 673 219 656T240 597Q240 572 233 521T217 405T200 276T193 158Q193 124
204 102T241 80Q262 80 287 106T339 177T390 274T433 383T464 487T475 569Q475 616 460 650Q472 661 492 667T527 673Q553 673 574 656T595 597Q595 544 586 486T567 372T557 269Q557 189 566 133T604 30Q588 11 571 2T536 -7Q493 -7 472 48T450 204Q450 239 454
273T462 335Q436 274 407 213T346 99T280 16T209 -16Z" />
<glyph unicode="v" glyph-name="v" horiz-adv-x="563" d="M271 -10Q248 -10 237 1T220 33Q203 104 184 182T143 335T98 470T50 567T2 604Q15 642 40 656T84 670Q110 670 137 647T186 567Q194 547 207 497T236 381T270 243T302 110Q328 172 350 239T388 370T412
490T421 582Q421 611 410 630Q424 652 446 659T481 667Q502 667 514 656T527 616Q527 596 518 552T491 449T450 322T399 187T343 62Q334 43 331 34T326 15Q326 12 326 9T327 2Q294 -10 271 -10Z" />
<glyph unicode="w" glyph-name="w" horiz-adv-x="871" d="M271 -10Q248 -10 237 1T220 33Q203 104 184 182T143 335T98 470T50 567T2 604Q15 642 40 656T84 670Q110 670 137 647T186 567Q192 551 202 513T225 426T250 324T273 224T290 144T297 99Q330 183 364
278T414 466Q402 496 388 520T354 555Q365 575 387 589T434 604Q453 604 471 593T499 558Q505 542 515 505T537 420T560 320T582 222T598 143T605 99Q632 162 655 232T694 371T720 494T729 582Q729 596 727 608T717 630Q731 652 753 659T789 667Q809 667 821 656T834
616Q834 596 825 552T798 448T758 321T708 186T651 62Q641 43 638 34T634 15Q634 12 634 9T635 2Q601 -10 579 -10Q555 -10 544 1T527 33Q505 127 491 183T469 274T453 335Q430 264 402 193T343 62Q334 43 331 34T326 15Q326 12 326 9T327 2Q294 -10 271 -10Z"
/>
<glyph unicode="x" glyph-name="x" horiz-adv-x="557" d="M464 -10Q433 -10 396 24T319 113T243 234Q233 220 217 197T185 146T158 93T147 48Q147 31 155 18Q140 4 125 -2T97 -9Q76 -9 61 -1T45 35Q45 57 68 98T128 192T210 296Q177 361 151 421T109 527T93 589Q93
624 114 639T183 670Q189 612 217 535T285 379Q298 395 319 424T363 489T400 556T415 609Q415 626 407 640Q422 654 437 660T465 667Q486 667 501 659T517 622Q517 603 500 570T455 496T390 409T316 320Q353 254 393 197T471 101T540 51Q535 26 519 8T464 -10Z"
/>
<glyph unicode="y" glyph-name="y" horiz-adv-x="563" d="M55 -254Q23 -254 -9 -247T-62 -220T-83 -161Q-83 -131 -72 -111T-51 -81Q-38 -124 -11 -147T68 -170Q126 -170 177 -117T271 22Q240 22 227 34T209 66Q192 137 174 212T135 357T94 482T49 570T2 604Q15
642 40 656T84 670Q110 670 137 647T186 567Q193 550 203 511T226 421T253 311T280 197T303 94Q331 163 353 234T390 371T413 491T421 582Q421 611 410 630Q424 652 446 659T481 667Q502 667 514 656T527 616Q527 603 519 559T496 451T457 310T403 154T336 2T255
-128T161 -220T55 -254Z" />
<glyph unicode="z" glyph-name="z" horiz-adv-x="523" d="M476 -18Q449 -7 421 1T355 14T258 19Q218 19 184 17T119 9Q109 -4 93 -10T63 -16Q47 -16 36 -8T18 13Q34 45 62 98T126 215T198 344T267 465T322 558Q282 553 250 551T208 548Q141 548 111 565T80 614Q80
632 83 644T100 680Q132 663 183 647T306 630Q325 630 341 630T371 632Q393 658 411 665T448 673Q457 673 473 670T503 653T519 606Q494 604 461 571T388 482T309 358T229 218T157 81Q219 95 269 100T345 105Q386 105 415 100T461 75T477 13Q477 6 477 -2T476 -18Z"
/>
<glyph unicode="{" glyph-name="braceleft" horiz-adv-x="392" d="M172 -126Q142 -126 116 -122T73 -101T56 -49Q56 -13 65 29T87 118T108 210T118 302Q118 323 113 347T94 396Q79 391 70 391Q62 391 56 400T46 422Q104 463 134 531T165 696Q165 746 158 787T150
869Q150 902 182 926T292 951Q342 951 384 954T452 970Q452 929 437 905T399 871T348 861Q326 861 304 867T264 882Q261 788 255 704T230 555T174 449Q168 443 161 437T145 424Q170 401 185 364T200 291Q200 239 194 199T180 122T165 44T159 -53Q172 -53 195 -50T245
-40T296 -26T335 -11Q335 -50 332 -68T310 -100Q298 -109 274 -115T222 -123T172 -126Z" />
<glyph unicode="|" glyph-name="bar" horiz-adv-x="346" d="M172 -128Q140 -128 119 -96T98 21Q98 65 107 136T129 293T156 470T178 643T187 789Q187 824 184 857T167 919Q177 931 197 939T230 947Q258 947 272 922T287 833Q287 791 278 722T254 569T226 395T203
220T193 65Q193 22 200 -16T230 -85Q221 -111 204 -119T172 -128Z" />
<glyph unicode="}" glyph-name="braceright" horiz-adv-x="392" d="M89 -126Q53 -126 19 -122T-38 -104T-60 -67Q-60 -56 -57 -43T-50 -11Q-37 -18 -15 -25T34 -39T82 -49T118 -53Q129 3 130 44T132 122T134 199T149 291Q157 326 179 363T230 425Q223 430 218
436T207 449Q188 475 180 510T172 591Q172 652 183 726T209 882Q189 873 167 867T121 861Q87 861 61 878T34 940Q34 954 37 970Q60 958 101 955T193 951Q263 951 291 931T320 882Q320 868 311 840T288 773T266 689T256 596Q256 481 331 422Q325 409 316 400T299
391Q289 391 275 397Q235 347 229 296T222 197Q222 154 224 112T227 30Q227 -25 218 -56T190 -103T146 -122T89 -126Z" />
<glyph unicode="~" glyph-name="asciitilde" horiz-adv-x="544" d="M125 345Q105 345 89 351T73 380Q73 410 88 439T130 487T190 506Q224 506 247 495T287 470T320 445T359 434Q379 434 396 451T420 507Q440 507 456 501T472 472Q472 442 457 413T415 365T355
346Q321 346 298 357T258 382T225 407T186 418Q166 418 149 401T125 345Z" />
<glyph unicode="&#xa0;" glyph-name="uni00A0" horiz-adv-x="333" />
<glyph unicode="&#xa1;" glyph-name="exclamdown" horiz-adv-x="388" d="M207 536Q180 536 161 547T141 586Q141 613 153 655Q197 683 232 683Q267 683 281 670T295 628Q295 616 293 600T287 563Q244 536 207 536ZM145 -218Q110 -218 92 -195T73 -112Q73 -82 81
-31T102 81T126 203T146 314T155 392Q155 402 152 411Q164 421 175 424T200 427Q214 427 224 418T235 386Q235 378 231 341T221 251T208 139T197 28T193 -60Q193 -96 196 -130T215 -195Q204 -205 182 -211T145 -218Z" />
<glyph unicode="&#xa2;" glyph-name="cent" horiz-adv-x="532" d="M239 -105Q229 -105 218 -98T205 -69Q234 -42 246 -6T265 68L269 95Q199 105 155 143T89 239T68 367Q68 428 84 491T130 611T205 712T306 776Q308 810 310 837T315 881Q324 940 342 963T388 986Q399
986 412 980T430 963Q409 934 401 900T387 829Q386 821 385 812T382 791Q384 791 387 791T393 792Q452 792 492 774T532 711Q532 677 517 654T487 619Q468 657 442 683T375 716Q370 657 366 586T359 441T352 295T344 165Q385 169 416 193T469 266Q480 255 485 240T490
210Q490 174 467 150T408 111T339 93Q338 73 336 56T332 27Q320 -48 296 -76T239 -105ZM277 175Q282 232 285 300T291 440T296 581T302 710Q263 695 239 657T200 571T181 478T176 402Q176 309 202 252T277 175Z" />
<glyph unicode="&#xa3;" glyph-name="sterling" horiz-adv-x="669" d="M117 -16Q98 -16 84 -6T62 21Q134 94 158 162T182 299Q182 322 182 346T180 394Q161 393 135 389T95 376Q88 388 82 403T76 437Q76 457 92 467T132 478Q139 478 150 478T176 476Q175 499 175
522T175 571Q175 664 202 735T283 846T412 887Q491 887 535 865T597 809T615 746Q615 714 598 694T537 663Q534 730 504 773T403 817Q334 817 308 763T282 584Q282 555 281 527T278 469Q297 468 312 468T337 467Q352 467 378 469T429 476T465 488Q474 477 477 466T480
442Q480 420 457 406T374 391Q362 391 334 391T275 392V352Q275 308 272 263T257 173T214 79Q258 92 304 100T388 112T447 116Q494 116 528 111T580 85T599 21Q599 13 599 4T597 -14Q567 -2 535 5T458 15T347 19Q285 19 242 16T153 1Q145 -6 137 -11T117 -16Z"
/>
<glyph unicode="&#xa4;" glyph-name="currency" horiz-adv-x="626" d="M508 153Q485 153 455 177T389 245Q367 230 340 222T280 213Q252 213 230 221T190 242Q162 220 145 200T118 154Q93 156 72 175T50 212Q50 233 72 256T141 315Q132 345 132 382Q132 423 144
466T181 546Q150 590 126 613T70 649Q72 674 91 695T128 717Q151 717 177 690T243 609Q266 624 293 632T352 641Q406 641 442 611Q471 636 487 659T506 716Q523 716 541 711T573 693T586 658Q586 635 561 604T490 536Q495 521 497 505T500 471Q500 431 488 388T452
309Q480 274 504 255T566 233Q566 216 561 198T543 166T508 153ZM303 284Q332 284 351 302T383 348T401 402T407 447Q407 569 328 569Q300 569 280 551T248 505T230 451T224 406Q224 284 303 284Z" />
<glyph unicode="&#xa5;" glyph-name="yen" horiz-adv-x="552" d="M280 -7Q246 -7 226 20T205 118Q205 130 206 146T209 181Q197 182 188 182T173 182Q160 182 140 180T100 175T69 164Q61 175 55 190T48 225Q48 245 66 255T109 265Q124 265 155 264T220 260L228
309L214 377Q206 378 200 378T189 378Q176 378 156 376T116 371T85 360Q77 371 71 386T64 421Q64 441 82 451T125 461Q136 461 155 460T196 459Q180 530 161 595T121 712T76 793T27 823Q40 861 66 875T111 889Q137 889 162 866T208 785Q215 764 226 724T251 632T278
526T302 419Q332 480 363 533T422 633T467 721T484 800Q484 814 482 826T474 849Q489 870 511 877T546 885Q566 885 578 874T591 837Q591 815 573 773T524 676T460 563T393 453Q421 455 450 460T492 472Q502 461 505 450T509 426Q509 411 496 400T449 382T348 375Q335
348 329 319T320 255Q345 255 376 257T436 264T476 276Q486 265 489 254T493 230Q493 208 467 193T376 178Q367 178 351 178T314 179Q314 125 321 90T350 29Q331 7 312 0T280 -7Z" />
<glyph unicode="&#xa6;" glyph-name="brokenbar" horiz-adv-x="346" d="M248 533Q234 533 216 536T185 552T172 590Q172 607 179 657T187 789Q187 824 184 857T167 919Q177 931 197 939T230 947Q258 947 272 924T287 845Q287 764 274 690T248 533ZM172 -128Q140
-128 119 -96T98 21Q98 38 101 71T109 145T119 229T131 307Q160 307 176 296T200 273T207 264Q204 237 201 199T196 125T193 65Q193 22 200 -16T230 -85Q221 -111 204 -119T172 -128Z" />
<glyph unicode="&#xa7;" glyph-name="section" horiz-adv-x="563" d="M475 210L211 447Q182 473 156 500T114 561T97 637Q97 718 135 774T238 859T385 889Q448 889 489 857T530 773Q530 732 517 708T488 673T463 654Q463 732 427 773T329 815Q273 815 233 777T192
665Q192 625 205 600T237 558T275 524L402 410Q433 382 448 357T469 298T475 210ZM200 -274Q146 -274 96 -260T13 -216T-20 -140Q-20 -106 -2 -80T39 -30Q54 -121 104 -164T230 -208Q266 -208 302 -194T362 -148T386 -64Q386 -22 368 20T312 96L185 210Q154 238
139 263T118 322T112 410L376 173Q408 145 433 117T473 55T488 -25Q488 -93 452 -150T351 -240T200 -274Z" />
<glyph unicode="&#xa8;" glyph-name="dieresis" horiz-adv-x="378" d="M293 757Q263 757 251 768T239 804Q239 815 241 829T246 861Q284 884 315 884Q338 884 355 874T373 841Q373 830 371 815T362 780Q325 757 293 757ZM59 757Q29 757 17 768T5 804Q5 815 6 829T12
861Q49 884 81 884Q104 884 121 874T139 841Q139 830 136 815T128 780Q91 757 59 757Z" />
<glyph unicode="&#xa9;" glyph-name="copyright" horiz-adv-x="780" d="M326 210Q241 210 183 251T96 359T67 507Q67 567 82 631T128 754T205 860T313 934T454 962Q540 962 597 921T684 812T713 664Q713 604 698 540T652 418T575 312T467 238T326 210ZM357 267Q418
267 464 294T542 364T595 457T625 553T635 630Q635 767 583 835T421 904Q361 904 315 877T237 807T185 714T155 618T145 541Q145 405 195 336T357 267ZM379 356Q326 356 293 381T245 447T230 540Q230 588 242 637T279 729T341 796T428 822Q463 822 487 809T512
770Q512 748 501 735T479 713Q467 740 449 757T402 774Q369 774 348 751T315 692T299 622T294 564Q294 486 318 444T393 402Q419 402 440 420T474 475Q495 451 495 430Q495 412 479 395T436 367T379 356Z" />
<glyph unicode="&#xaa;" glyph-name="ordfeminine" horiz-adv-x="474" d="M161 456Q118 456 93 497T68 609Q68 684 91 744T155 840T246 876Q291 876 326 843Q335 870 360 870Q381 870 399 851Q392 832 386 795T377 713T373 627Q373 575 379 544T400 487Q379 460
354 460Q326 460 312 495T298 607H293Q263 540 227 498T161 456ZM180 529Q196 529 217 555T259 622T296 710T317 797Q278 825 248 825Q217 825 193 800T155 729T141 623Q141 579 151 554T180 529Z" />
<glyph unicode="&#xab;" glyph-name="guillemotleft" horiz-adv-x="513" d="M376 104Q341 104 325 119T305 159T301 213T299 270T284 321T240 354Q272 365 287 387T309 437T320 495T333 549T359 589T412 604Q425 604 445 600T475 588Q447 574 433 550T412 498T398
442T379 391T342 354Q365 341 374 318T385 267T389 211T402 158T439 120Q430 113 410 109T376 104ZM176 104Q141 104 125 119T105 159T101 213T99 270T84 321T40 354Q72 365 87 387T109 437T120 495T133 549T159 589T212 604Q225 604 245 600T275 588Q247 574 233
550T212 498T198 442T179 391T142 354Q165 341 174 318T185 267T189 211T202 158T239 120Q230 113 210 109T176 104Z" />
<glyph unicode="&#xac;" glyph-name="logicalnot" horiz-adv-x="544" d="M457 182Q429 182 412 203T395 280Q395 331 412 387Q405 386 398 386T383 386Q370 386 340 386T276 387T214 388T174 389Q160 389 140 388T100 382T68 372Q61 383 55 400T49 437Q49 457
65 469T109 482Q124 482 155 481T223 477T292 474T342 472Q359 472 388 474T446 481T486 493Q496 482 498 468T501 442Q501 427 497 410T490 366T486 296Q486 271 492 252T515 212Q499 194 484 188T457 182Z" />
<glyph unicode="&#xad;" glyph-name="uni00AD" horiz-adv-x="306" d="M280 329Q271 341 264 362T256 402Q256 425 275 434T319 444Q337 444 364 442T420 436T468 433Q515 433 547 455Q556 443 559 430T562 403Q562 377 539 360T457 343Q433 343 411 345T369 347Q350
347 323 343T280 329Z" />
<glyph unicode="&#xae;" glyph-name="registered" horiz-adv-x="780" d="M326 210Q241 210 183 251T96 359T67 507Q67 567 82 631T128 754T205 860T313 934T454 962Q540 962 597 921T684 812T713 664Q713 604 698 540T652 418T575 312T467 238T326 210ZM357 267Q418
267 464 294T542 364T595 457T625 553T635 630Q635 767 583 835T421 904Q361 904 315 877T237 807T185 714T155 618T145 541Q145 405 195 336T357 267ZM478 355Q467 355 454 361T425 390Q416 404 396 445T347 544Q339 541 330 539T313 534Q305 483 305 448Q305
429 309 412T326 379Q314 366 303 361T285 356Q265 356 253 371T241 428Q241 468 250 522T269 635T279 749Q279 760 277 776T271 803Q299 808 330 812T389 816Q425 816 455 808T504 777T522 713Q522 660 485 624T401 565Q421 522 437 491T466 443Q475 430 490 420T522
407Q518 374 502 365T478 355ZM319 578Q354 586 386 601T439 642T460 703Q460 744 436 760T376 777Q369 777 362 777T346 775Q345 750 339 705T319 578Z" />
<glyph unicode="&#xaf;" glyph-name="overscore" horiz-adv-x="400" d="M85 766Q78 776 71 794T64 829Q64 849 81 857T120 865Q137 865 164 863T219 858T265 855Q286 855 303 860T336 874Q344 864 347 853T350 829Q350 807 330 792T256 777Q234 777 209 779T166
781Q149 781 124 778T85 766Z" />
<glyph unicode="&#xb0;" glyph-name="degree" horiz-adv-x="391" d="M201 592Q189 592 166 598T119 621T77 671T60 756Q60 825 88 874T161 948T251 974Q262 974 285 968T332 945T374 896T391 812Q391 742 363 693T291 618T201 592ZM215 648Q239 648 255 666T281
711T294 767T298 817Q298 919 231 919Q207 919 191 901T166 856T153 800T149 749Q149 648 215 648Z" />
<glyph unicode="&#xb1;" glyph-name="plusminus" horiz-adv-x="544" d="M278 205Q250 205 233 226T216 303Q216 345 222 388Q206 389 193 389T174 389Q160 389 140 388T100 382T68 372Q61 383 55 400T49 437Q49 457 65 469T109 482Q126 482 161 480T236 476Q240
501 243 522T246 560Q246 581 244 601T232 640Q241 648 258 653T287 658Q311 658 324 643T337 586Q337 567 333 537T324 472H342Q359 472 388 474T446 481T486 493Q496 482 498 468T501 442Q501 420 475 403T383 386H312Q310 367 309 350T307 319Q307 294 313 275T336
235Q320 217 305 211T278 205ZM68 -28Q61 -17 55 0T49 37Q49 57 65 69T109 82Q124 82 155 81T223 77T292 74T342 72Q359 72 388 74T446 81T486 93Q496 82 498 68T501 42Q501 20 475 3T383 -14Q370 -14 340 -14T276 -13T214 -12T174 -11Q160 -11 140 -12T100 -18T68
-28Z" />
<glyph unicode="&#xb2;" glyph-name="uni00B2" horiz-adv-x="397" d="M326 435Q296 447 267 451T184 456Q153 456 130 455T85 448Q80 444 75 441T61 437Q47 437 37 446T20 469Q53 506 93 551T169 645T229 739T253 819Q253 845 236 865T183 885Q150 885 133 861T110
799Q80 810 68 821T55 850Q55 872 68 893T112 928T190 942Q267 942 301 910T335 827Q335 779 306 726T234 619T146 516Q175 522 200 525T238 528Q279 528 304 518T329 467Q329 458 326 435Z" />
<glyph unicode="&#xb3;" glyph-name="uni00B3" horiz-adv-x="403" d="M135 437Q86 437 54 464T21 522Q21 535 33 547T75 571Q82 539 99 518T149 496Q181 496 202 511T235 550T247 597Q247 625 229 648T168 676Q155 673 137 671T98 666V691Q98 712 104 717T129
725Q185 733 212 762T240 819Q240 845 224 865T177 885Q144 885 128 864T105 816Q76 827 65 838T54 866Q54 880 66 897T106 928T184 942Q258 942 290 910T322 827Q322 800 304 770T251 714Q330 687 330 606Q330 582 320 553T286 498T226 454T135 437Z" />
<glyph unicode="&#xb4;" glyph-name="acute" horiz-adv-x="309" d="M144 740Q131 740 117 768Q172 809 203 835T252 880T277 913Q291 916 302 917T324 918Q357 918 369 909T381 890Q381 880 374 873T344 849Q317 830 286 811T225 775T174 750T144 740Z" />
<glyph unicode="&#xb5;" glyph-name="uni00B5" horiz-adv-x="677" d="M159 -271Q122 -271 98 -239T74 -118Q74 -81 79 -25T93 100T108 242T121 387T127 521Q127 553 124 587T106 650Q117 661 137 667T173 673Q199 673 219 656T240 597Q240 584 237 552T227 477T215
386T202 295T193 219T189 175Q189 80 241 80Q262 80 287 106T339 177T390 274T433 383T464 487T475 569Q475 616 460 650Q472 661 492 667T527 673Q553 673 574 656T595 597Q595 544 586 486T567 372T557 269Q557 189 566 133T604 30Q588 11 571 2T536 -7Q493 -7
472 48T450 204Q450 239 454 273T462 335Q436 274 407 213T346 99T280 16T209 -16Q198 -16 190 -12T176 -1Q175 -16 175 -31T175 -61Q175 -109 185 -155T227 -235Q209 -257 191 -264T159 -271Z" />
<glyph unicode="&#xb6;" glyph-name="paragraph" horiz-adv-x="567" d="M226 -204Q204 -204 185 -192T165 -158Q207 -144 225 -107T251 -31Q260 13 268 78T285 219T301 371Q291 370 282 370T263 369Q185 369 135 399T60 478T35 581Q35 635 58 689T125 789T234
862T381 890Q411 890 440 885T489 864Q466 835 456 801T438 730Q430 690 422 626T404 486Q437 509 460 537T492 588Q523 576 535 564T547 531Q547 518 529 493T477 441T394 394Q387 322 380 251T365 116T352 4T341 -72Q329 -134 307 -162T263 -197T226 -204ZM280
439Q287 439 293 439T307 441Q314 511 319 571T328 674T336 733Q348 801 377 833Q298 828 245 794T166 709T140 602Q140 561 155 524T201 463T280 439Z" />
<glyph unicode="&#xb7;" glyph-name="middot" horiz-adv-x="295" d="M133 318Q99 318 85 331T71 373Q71 385 73 401T79 438Q121 465 159 465Q185 465 205 454T225 415Q225 402 222 385T212 346Q168 318 133 318Z" />
<glyph unicode="&#xb8;" glyph-name="cedilla" horiz-adv-x="500" d="M174 -272Q134 -272 110 -255T86 -216Q86 -203 97 -191T137 -172Q139 -194 152 -208T185 -223Q214 -223 229 -202T244 -158Q244 -119 204 -113L152 -105Q144 -103 142 -102T139 -97Q139 -96
144 -82T158 -46T176 -3T191 34H240L202 -69Q267 -76 294 -95T321 -152Q321 -177 308 -205T262 -252T174 -272Z" />
<glyph unicode="&#xb9;" glyph-name="uni00B9" horiz-adv-x="349" d="M187 442Q165 442 151 459T136 523Q136 548 141 588T154 675T168 765T175 839Q144 800 123 791T95 781Q82 781 69 789T38 833Q76 842 99 860T138 897T170 929T209 942Q232 942 243 928T255
876Q255 852 249 810T235 720T220 625T214 545Q214 526 218 507T238 471Q223 454 210 448T187 442Z" />
<glyph unicode="&#xba;" glyph-name="ordmasculine" horiz-adv-x="465" d="M202 454Q158 454 128 476T83 537T68 621Q68 664 81 709T120 792T182 853T264 876Q308 876 337 854T382 794T397 709Q397 666 384 621T345 538T284 477T202 454ZM230 509Q258 509 276
529T304 579T319 639T323 688Q323 754 299 787T234 821Q207 821 189 801T161 751T147 692T143 642Q143 577 166 543T230 509Z" />
<glyph unicode="&#xbb;" glyph-name="guillemotright" horiz-adv-x="513" d="M301 104Q288 104 268 108T238 120Q266 134 280 158T301 210T315 266T334 317T371 354Q348 367 339 390T328 441T324 497T311 550T274 588Q283 596 303 600T337 604Q372 604 388 589T408
549T412 495T414 438T430 387T473 354Q442 343 426 321T404 271T393 213T380 159T354 119T301 104ZM101 104Q88 104 68 108T38 120Q66 134 80 158T101 210T115 266T134 317T171 354Q148 367 139 390T128 441T124 497T111 550T74 588Q83 596 103 600T137 604Q172
604 188 589T208 549T212 495T214 438T230 387T273 354Q242 343 226 321T204 271T193 213T180 159T154 119T101 104Z" />
<glyph unicode="&#xbc;" glyph-name="onequarter" horiz-adv-x="901" d="M278 -26Q256 -26 243 -15T229 23Q229 52 247 106Q260 142 287 200T348 329T419 472T485 612T533 729Q544 760 552 789T561 845Q561 850 561 854T560 864Q574 874 589 880T620 887Q665 887
665 845Q665 834 662 818T651 781Q638 744 611 687T547 559T475 415T406 272T354 147Q346 122 340 99T334 55Q334 30 345 10Q319 -12 305 -19T278 -26ZM223 386Q201 386 187 403T172 467Q172 492 177 532T190 619T204 709T211 783Q180 744 159 735T131 725Q118
725 105 733T74 777Q112 786 135 804T174 841T206 873T245 886Q268 886 279 872T291 820Q291 796 285 754T271 664T256 569T250 489Q250 470 254 451T274 415Q259 398 246 392T223 386ZM754 -25Q732 -25 718 -12T704 38Q704 60 707 82H671Q641 82 612 80T561 73Q550
62 537 62Q523 62 513 71T495 94Q521 123 550 163T604 248T644 339T660 422Q660 428 658 434T653 448Q672 464 686 469T708 474Q725 474 734 466T744 429Q744 396 726 346T677 240T609 133Q639 140 668 143T720 147Q723 164 723 178Q723 201 712 224Q721 230 736
235T760 240Q781 240 792 230T804 191Q804 181 802 168T797 139Q828 127 828 92Q828 88 828 76T827 59Q814 64 804 67T785 73Q784 65 784 59T783 46Q783 35 788 25T807 1Q791 -15 777 -20T754 -25Z" />
<glyph unicode="&#xbd;" glyph-name="onehalf" horiz-adv-x="901" d="M278 -26Q256 -26 243 -15T229 23Q229 52 247 106Q260 142 287 200T348 329T419 472T485 612T533 729Q544 760 552 789T561 845Q561 850 561 854T560 864Q574 874 589 880T620 887Q665 887
665 845Q665 834 662 818T651 781Q638 744 611 687T547 559T475 415T406 272T354 147Q346 122 340 99T334 55Q334 30 345 10Q319 -12 305 -19T278 -26ZM223 386Q201 386 187 403T172 467Q172 492 177 532T190 619T204 709T211 783Q180 744 159 735T131 725Q118
725 105 733T74 777Q112 786 135 804T174 841T206 873T245 886Q268 886 279 872T291 820Q291 796 285 754T271 664T256 569T250 489Q250 470 254 451T274 415Q259 398 246 392T223 386ZM842 -33Q812 -21 783 -17T700 -12Q669 -12 646 -13T601 -20Q596 -24 591 -27T577
-31Q563 -31 553 -22T536 1Q569 38 609 83T685 177T745 271T769 351Q769 377 752 397T699 417Q666 417 649 393T626 331Q596 342 584 353T571 382Q571 404 584 425T628 460T706 474Q783 474 817 442T851 359Q851 311 822 258T750 151T662 48Q691 54 716 57T754
60Q795 60 820 50T845 -1Q845 -10 842 -33Z" />
<glyph unicode="&#xbe;" glyph-name="threequarters" horiz-adv-x="901" d="M312 -26Q290 -26 277 -15T263 23Q263 52 281 106Q294 142 321 200T382 329T453 472T519 612T567 729Q578 760 586 789T595 845Q595 850 595 854T594 864Q608 874 623 880T654 887Q699
887 699 845Q699 834 696 818T685 781Q672 744 645 687T581 559T509 415T440 272T388 147Q380 122 374 99T368 55Q368 30 379 10Q353 -12 339 -19T312 -26ZM171 381Q122 381 90 408T57 466Q57 479 69 491T111 515Q118 483 135 462T185 440Q217 440 238 455T271
493T283 541Q283 569 265 592T204 620Q191 617 173 615T134 610V635Q134 656 140 661T165 669Q221 677 248 706T276 763Q276 789 260 809T213 829Q180 829 164 808T141 760Q112 771 101 782T90 810Q90 824 102 841T142 872T220 886Q294 886 326 854T358 771Q358
744 340 714T287 658Q366 631 366 550Q366 526 356 497T322 442T262 398T171 381ZM754 -25Q732 -25 718 -12T704 38Q704 60 707 82H671Q641 82 612 80T561 73Q550 62 537 62Q523 62 513 71T495 94Q521 123 550 163T604 248T644 339T660 422Q660 428 658 434T653
448Q672 464 686 469T708 474Q725 474 734 466T744 429Q744 396 726 346T677 240T609 133Q639 140 668 143T720 147Q723 164 723 178Q723 201 712 224Q721 230 736 235T760 240Q781 240 792 230T804 191Q804 181 802 168T797 139Q828 127 828 92Q828 88 828 76T827
59Q814 64 804 67T785 73Q784 65 784 59T783 46Q783 35 788 25T807 1Q791 -15 777 -20T754 -25Z" />
<glyph unicode="&#xbf;" glyph-name="questiondown" horiz-adv-x="457" d="M282 537Q255 537 236 548T216 587Q216 614 228 656Q272 684 307 684Q342 684 356 671T370 629Q370 617 368 601T362 564Q319 537 282 537ZM244 -217Q135 -217 73 -166T11 -22Q11 25 32
80T87 193T159 303T230 397Q242 413 254 423T280 433Q296 433 306 425T324 403Q306 380 281 344T230 262T180 170T143 77T128 -5Q128 -42 142 -74T183 -127T250 -147Q317 -147 344 -101T371 23Q409 7 430 -18T452 -73Q452 -117 424 -149T348 -199T244 -217Z" />
<glyph unicode="&#xc0;" glyph-name="Agrave" horiz-adv-x="657" d="M51 -7Q30 -7 18 4T5 43Q5 71 22 125Q34 161 59 217T118 342T184 480T246 616T292 731Q302 760 309 788T317 841Q317 854 314 866Q324 873 343 881T378 889Q424 889 448 871T490 793Q501 756
509 699T523 571T536 426T554 282T581 156Q592 117 613 87T667 29Q657 7 637 0T604 -7Q573 -7 550 2T510 38T476 115Q469 140 463 176T451 255H158Q141 216 124 170T107 77Q107 64 109 52T119 29Q105 7 85 0T51 -7ZM188 323H444Q437 394 430 469T412 615T386 737Q365
686 331 618T260 473T188 323ZM521 911Q514 911 492 920T440 946T379 981T320 1020Q297 1037 290 1044T283 1061Q283 1070 295 1079T340 1089Q350 1089 361 1088T387 1084Q396 1069 412 1051T461 1007T548 939Q532 911 521 911Z" />
<glyph unicode="&#xc1;" glyph-name="Aacute" horiz-adv-x="657" d="M51 -7Q30 -7 18 4T5 43Q5 71 22 125Q34 161 59 217T118 342T184 480T246 616T292 731Q302 760 309 788T317 841Q317 854 314 866Q324 873 343 881T378 889Q424 889 448 871T490 793Q501 756
509 699T523 571T536 426T554 282T581 156Q592 117 613 87T667 29Q657 7 637 0T604 -7Q573 -7 550 2T510 38T476 115Q469 140 463 176T451 255H158Q141 216 124 170T107 77Q107 64 109 52T119 29Q105 7 85 0T51 -7ZM188 323H444Q437 394 430 469T412 615T386 737Q365
686 331 618T260 473T188 323ZM311 911Q298 911 284 939Q339 980 370 1006T419 1051T444 1084Q458 1087 469 1088T491 1089Q524 1089 536 1080T548 1061Q548 1051 541 1044T511 1020Q484 1001 453 982T392 946T341 921T311 911Z" />
<glyph unicode="&#xc2;" glyph-name="Acircumflex" horiz-adv-x="657" d="M51 -7Q30 -7 18 4T5 43Q5 71 22 125Q34 161 59 217T118 342T184 480T246 616T292 731Q302 760 309 788T317 841Q317 854 314 866Q324 873 343 881T378 889Q424 889 448 871T490 793Q501
756 509 699T523 571T536 426T554 282T581 156Q592 117 613 87T667 29Q657 7 637 0T604 -7Q573 -7 550 2T510 38T476 115Q469 140 463 176T451 255H158Q141 216 124 170T107 77Q107 64 109 52T119 29Q105 7 85 0T51 -7ZM188 323H444Q437 394 430 469T412 615T386
737Q365 686 331 618T260 473T188 323ZM240 911Q229 911 213 939Q268 980 296 1006T337 1051T359 1084Q376 1089 402 1089Q417 1089 431 1087T453 1078Q460 1068 487 1027T562 939Q548 911 535 911Q521 911 487 935T399 1002Q367 980 334 959T275 925T240 911Z"
/>
<glyph unicode="&#xc3;" glyph-name="Atilde" horiz-adv-x="657" d="M51 -7Q30 -7 18 4T5 43Q5 71 22 125Q34 161 59 217T118 342T184 480T246 616T292 731Q302 760 309 788T317 841Q317 854 314 866Q324 873 343 881T378 889Q424 889 448 871T490 793Q501 756
509 699T523 571T536 426T554 282T581 156Q592 117 613 87T667 29Q657 7 637 0T604 -7Q573 -7 550 2T510 38T476 115Q469 140 463 176T451 255H158Q141 216 124 170T107 77Q107 64 109 52T119 29Q105 7 85 0T51 -7ZM188 323H444Q437 394 430 469T412 615T386 737Q365
686 331 618T260 473T188 323ZM291 926Q275 926 261 932T247 958Q247 986 260 1012T295 1055T346 1073Q375 1073 394 1063T427 1040T456 1017T489 1007Q506 1007 520 1023T540 1074Q557 1074 570 1068T584 1042Q584 1015 571 989T536 945T485 927Q457 927 438 937T404
960T375 983T342 993Q326 993 311 977T291 926Z" />
<glyph unicode="&#xc4;" glyph-name="Adieresis" horiz-adv-x="657" d="M51 -7Q30 -7 18 4T5 43Q5 71 22 125Q34 161 59 217T118 342T184 480T246 616T292 731Q302 760 309 788T317 841Q317 854 314 866Q324 873 343 881T378 889Q424 889 448 871T490 793Q501
756 509 699T523 571T536 426T554 282T581 156Q592 117 613 87T667 29Q657 7 637 0T604 -7Q573 -7 550 2T510 38T476 115Q469 140 463 176T451 255H158Q141 216 124 170T107 77Q107 64 109 52T119 29Q105 7 85 0T51 -7ZM188 323H444Q437 394 430 469T412 615T386
737Q365 686 331 618T260 473T188 323ZM520 928Q490 928 478 939T466 975Q466 986 468 1000T473 1032Q511 1055 542 1055Q565 1055 582 1045T600 1012Q600 1001 598 986T589 951Q552 928 520 928ZM286 928Q256 928 244 939T232 975Q232 986 233 1000T239 1032Q276
1055 308 1055Q331 1055 348 1045T366 1012Q366 1001 363 986T355 951Q318 928 286 928Z" />
<glyph unicode="&#xc5;" glyph-name="Aring" horiz-adv-x="657" d="M51 -7Q30 -7 18 4T5 43Q5 71 22 125Q34 161 59 217T118 342T184 480T246 616T292 731Q302 760 309 788T317 841Q317 854 314 866Q321 871 333 877T359 886Q330 898 312 926T294 993Q294 1041
315 1075T368 1127T434 1145Q442 1145 459 1141T494 1125T524 1091T537 1032Q537 978 507 936T426 882Q448 874 463 854T490 793Q501 756 509 699T523 571T536 426T554 282T581 156Q592 117 613 87T667 29Q657 7 637 0T604 -7Q573 -7 550 2T510 38T476 115Q469
140 463 176T451 255H158Q141 216 124 170T107 77Q107 64 109 52T119 29Q105 7 85 0T51 -7ZM409 926Q430 926 441 945T456 990T461 1034Q461 1099 419 1099Q399 1099 388 1080T372 1035T367 990Q367 926 409 926ZM188 323H444Q437 394 430 469T412 615T386 737Q365
686 331 618T260 473T188 323Z" />
<glyph unicode="&#xc6;" glyph-name="AE" horiz-adv-x="874" d="M696 -10Q674 -10 640 -7T568 1T495 11Q479 1 465 -3T440 -8Q408 -8 388 14T368 89Q368 136 378 205T402 353H182Q130 267 93 191T56 64Q56 44 63 29Q47 7 26 0T-8 -7Q-27 -7 -38 4T-49 49Q-49 85
-29 133T24 239T97 356T177 478T252 596T308 702Q321 732 332 767T344 836Q376 857 427 862T530 867Q583 867 638 866T755 865Q805 865 847 868T915 884Q912 839 898 816T860 784T800 776Q744 776 684 782T565 798Q565 759 558 700T538 569T514 422Q603 425 672
436T779 466Q775 412 757 388T709 359T641 353H503Q493 286 487 224T480 112Q480 105 480 98T482 83Q512 82 547 81T619 79Q697 79 763 84T857 105Q853 50 834 26T780 -4T696 -10ZM224 421H414Q429 507 440 590T452 741Q452 786 443 810Q438 780 417 738T365 644T298
536T224 421Z" />
<glyph unicode="&#xc7;" glyph-name="Ccedilla" horiz-adv-x="608" d="M365 -21Q263 -21 200 27T108 156T78 336Q78 411 93 489T140 638T217 765T325 854T463 887Q528 887 573 864T618 793Q618 752 601 730T567 693Q544 745 509 777T411 810Q356 810 317 778T253
695T213 586T192 473T186 382Q186 223 237 136T393 49Q449 49 492 84T559 186Q572 172 578 154T584 117Q584 83 553 51T472 -1T365 -21ZM304 -272Q264 -272 240 -255T216 -216Q216 -203 227 -191T267 -172Q269 -194 282 -208T315 -223Q344 -223 359 -202T374 -158Q374
-119 334 -113L282 -105Q274 -103 272 -102T269 -97Q269 -96 274 -82T288 -46T306 -3T321 34H370L332 -69Q397 -76 424 -95T451 -152Q451 -177 438 -205T392 -252T304 -272Z" />
<glyph unicode="&#xc8;" glyph-name="Egrave" horiz-adv-x="602" d="M424 -10Q402 -10 368 -7T295 1T222 11Q207 1 193 -3T168 -8Q136 -8 116 14T96 89Q96 144 110 230T141 412Q129 413 117 413T90 413Q95 448 105 461T152 478Q163 549 171 617T180 741Q180 762
176 791T165 839Q188 858 232 862T321 867Q360 867 401 866T483 865Q533 865 575 868T643 884Q640 839 626 816T588 784T528 776Q472 776 412 782T293 798Q293 764 287 714T272 603T251 479Q302 480 351 482T441 492T507 512Q503 458 485 434T437 404T369 398Q338
398 307 401T239 407Q226 325 217 248T208 112Q208 105 208 98T209 83Q240 82 275 81T347 79Q425 79 491 84T585 105Q581 50 562 26T508 -4T424 -10ZM517 911Q510 911 488 920T436 946T375 981T316 1020Q293 1037 286 1044T279 1061Q279 1070 291 1079T336 1089Q346
1089 357 1088T383 1084Q392 1069 408 1051T457 1007T544 939Q528 911 517 911Z" />
<glyph unicode="&#xc9;" glyph-name="Eacute" horiz-adv-x="602" d="M424 -10Q402 -10 368 -7T295 1T222 11Q207 1 193 -3T168 -8Q136 -8 116 14T96 89Q96 144 110 230T141 412Q129 413 117 413T90 413Q95 448 105 461T152 478Q163 549 171 617T180 741Q180 762
176 791T165 839Q188 858 232 862T321 867Q360 867 401 866T483 865Q533 865 575 868T643 884Q640 839 626 816T588 784T528 776Q472 776 412 782T293 798Q293 764 287 714T272 603T251 479Q302 480 351 482T441 492T507 512Q503 458 485 434T437 404T369 398Q338
398 307 401T239 407Q226 325 217 248T208 112Q208 105 208 98T209 83Q240 82 275 81T347 79Q425 79 491 84T585 105Q581 50 562 26T508 -4T424 -10ZM307 911Q294 911 280 939Q335 980 366 1006T415 1051T440 1084Q454 1087 465 1088T487 1089Q520 1089 532 1080T544
1061Q544 1051 537 1044T507 1020Q480 1001 449 982T388 946T337 921T307 911Z" />
<glyph unicode="&#xca;" glyph-name="Ecircumflex" horiz-adv-x="602" d="M424 -10Q402 -10 368 -7T295 1T222 11Q207 1 193 -3T168 -8Q136 -8 116 14T96 89Q96 144 110 230T141 412Q129 413 117 413T90 413Q95 448 105 461T152 478Q163 549 171 617T180 741Q180
762 176 791T165 839Q188 858 232 862T321 867Q360 867 401 866T483 865Q533 865 575 868T643 884Q640 839 626 816T588 784T528 776Q472 776 412 782T293 798Q293 764 287 714T272 603T251 479Q302 480 351 482T441 492T507 512Q503 458 485 434T437 404T369 398Q338
398 307 401T239 407Q226 325 217 248T208 112Q208 105 208 98T209 83Q240 82 275 81T347 79Q425 79 491 84T585 105Q581 50 562 26T508 -4T424 -10ZM236 911Q225 911 209 939Q264 980 292 1006T333 1051T355 1084Q372 1089 398 1089Q413 1089 427 1087T449 1078Q456
1068 483 1027T558 939Q544 911 531 911Q517 911 483 935T395 1002Q363 980 330 959T271 925T236 911Z" />
<glyph unicode="&#xcb;" glyph-name="Edieresis" horiz-adv-x="602" d="M424 -10Q402 -10 368 -7T295 1T222 11Q207 1 193 -3T168 -8Q136 -8 116 14T96 89Q96 144 110 230T141 412Q129 413 117 413T90 413Q95 448 105 461T152 478Q163 549 171 617T180 741Q180
762 176 791T165 839Q188 858 232 862T321 867Q360 867 401 866T483 865Q533 865 575 868T643 884Q640 839 626 816T588 784T528 776Q472 776 412 782T293 798Q293 764 287 714T272 603T251 479Q302 480 351 482T441 492T507 512Q503 458 485 434T437 404T369 398Q338
398 307 401T239 407Q226 325 217 248T208 112Q208 105 208 98T209 83Q240 82 275 81T347 79Q425 79 491 84T585 105Q581 50 562 26T508 -4T424 -10ZM516 928Q486 928 474 939T462 975Q462 986 464 1000T469 1032Q507 1055 538 1055Q561 1055 578 1045T596 1012Q596
1001 594 986T585 951Q548 928 516 928ZM282 928Q252 928 240 939T228 975Q228 986 229 1000T235 1032Q272 1055 304 1055Q327 1055 344 1045T362 1012Q362 1001 359 986T351 951Q314 928 282 928Z" />
<glyph unicode="&#xcc;" glyph-name="Igrave" horiz-adv-x="332" d="M176 -7Q141 -7 120 21T98 125Q98 161 105 217T123 342T144 480T162 616T169 731Q169 767 166 801T148 866Q159 876 180 882T215 889Q249 889 266 866T284 783Q284 746 276 690T257 567T235
428T215 290T207 166Q207 127 213 92T245 29Q226 7 207 0T176 -7ZM582 911Q575 911 553 920T501 946T440 981T381 1020Q358 1037 351 1044T344 1061Q344 1070 356 1079T401 1089Q411 1089 422 1088T448 1084Q457 1069 473 1051T522 1007T609 939Q593 911 582 911Z"
/>
<glyph unicode="&#xcd;" glyph-name="Iacute" horiz-adv-x="332" d="M176 -7Q141 -7 120 21T98 125Q98 161 105 217T123 342T144 480T162 616T169 731Q169 767 166 801T148 866Q159 876 180 882T215 889Q249 889 266 866T284 783Q284 746 276 690T257 567T235
428T215 290T207 166Q207 127 213 92T245 29Q226 7 207 0T176 -7ZM372 911Q359 911 345 939Q400 980 431 1006T480 1051T505 1084Q519 1087 530 1088T552 1089Q585 1089 597 1080T609 1061Q609 1051 602 1044T572 1020Q545 1001 514 982T453 946T402 921T372 911Z"
/>
<glyph unicode="&#xce;" glyph-name="Icircumflex" horiz-adv-x="332" d="M176 -7Q141 -7 120 21T98 125Q98 161 105 217T123 342T144 480T162 616T169 731Q169 767 166 801T148 866Q159 876 180 882T215 889Q249 889 266 866T284 783Q284 746 276 690T257 567T235
428T215 290T207 166Q207 127 213 92T245 29Q226 7 207 0T176 -7ZM301 911Q290 911 274 939Q329 980 357 1006T398 1051T420 1084Q437 1089 463 1089Q478 1089 492 1087T514 1078Q521 1068 548 1027T623 939Q609 911 596 911Q582 911 548 935T460 1002Q428 980
395 959T336 925T301 911Z" />
<glyph unicode="&#xcf;" glyph-name="Idieresis" horiz-adv-x="332" d="M176 -7Q141 -7 120 21T98 125Q98 161 105 217T123 342T144 480T162 616T169 731Q169 767 166 801T148 866Q159 876 180 882T215 889Q249 889 266 866T284 783Q284 746 276 690T257 567T235
428T215 290T207 166Q207 127 213 92T245 29Q226 7 207 0T176 -7ZM325 928Q295 928 283 939T271 975Q271 986 273 1000T278 1032Q316 1055 347 1055Q370 1055 387 1045T405 1012Q405 1001 403 986T394 951Q357 928 325 928ZM91 928Q61 928 49 939T37 975Q37 986
38 1000T44 1032Q81 1055 113 1055Q136 1055 153 1045T171 1012Q171 1001 168 986T160 951Q123 928 91 928Z" />
<glyph unicode="&#xd0;" glyph-name="Eth" horiz-adv-x="730" d="M283 -11Q183 -11 141 19T98 116Q98 165 108 238T132 393Q113 391 94 387T63 376Q56 388 50 403T44 437Q44 457 60 467T100 478Q107 478 118 478T145 476Q157 552 165 623T174 750Q174 771 170
803T159 854Q278 880 373 880Q471 880 542 851T652 751T691 559Q691 444 663 342T581 160T452 35T283 -11ZM312 59Q373 59 419 88T497 165T548 273T577 392T586 505Q586 626 565 694T495 790T364 819Q346 819 327 818T288 812Q288 779 281 725T263 606T241 470Q261
469 278 468T305 467Q320 467 346 469T397 476T433 488Q442 477 445 466T448 442Q448 420 425 406T342 391Q329 391 296 391T229 393Q220 329 214 269T207 160Q207 135 209 117T215 85Q233 74 256 67T312 59Z" />
<glyph unicode="&#xd1;" glyph-name="Ntilde" horiz-adv-x="769" d="M171 -7Q140 -7 119 21T98 125Q98 161 105 217T123 342T144 480T162 616T169 731Q169 767 166 801T148 866Q153 875 172 882T213 889Q256 889 283 870T340 793Q358 758 377 703T417 582T460
444T506 305T558 180Q563 234 574 306T597 455T617 604T626 731Q626 767 623 801T605 866Q614 876 633 882T665 889Q693 889 707 866T721 783Q721 746 713 690T694 567T672 428T652 290T644 166Q644 127 652 92T685 29Q677 8 659 1T621 -7Q592 -7 568 3T521 39T473
115Q456 149 437 202T396 321T353 455T307 589T259 707Q252 652 241 583T217 440T196 295T187 166Q187 127 194 92T226 29Q218 7 201 0T171 -7ZM346 926Q330 926 316 932T302 958Q302 986 315 1012T350 1055T401 1073Q430 1073 449 1063T482 1040T511 1017T544
1007Q561 1007 575 1023T595 1074Q612 1074 625 1068T639 1042Q639 1015 626 989T591 945T540 927Q512 927 493 937T459 960T430 983T397 993Q381 993 366 977T346 926Z" />
<glyph unicode="&#xd2;" glyph-name="Ograve" horiz-adv-x="782" d="M344 -21Q258 -21 199 27T109 156T78 336Q78 411 93 489T140 638T219 766T330 856T472 889Q559 889 618 841T707 712T738 531Q738 456 722 378T675 229T596 102T486 12T344 -21ZM405 57Q460
57 498 89T562 172T603 282T624 395T630 487Q630 647 571 728T411 810Q356 810 318 778T254 695T213 585T192 472T186 380Q186 220 245 139T405 57ZM578 911Q571 911 549 920T497 946T436 981T377 1020Q354 1037 347 1044T340 1061Q340 1070 352 1079T397 1089Q407
1089 418 1088T444 1084Q453 1069 469 1051T518 1007T605 939Q589 911 578 911Z" />
<glyph unicode="&#xd3;" glyph-name="Oacute" horiz-adv-x="782" d="M344 -21Q258 -21 199 27T109 156T78 336Q78 411 93 489T140 638T219 766T330 856T472 889Q559 889 618 841T707 712T738 531Q738 456 722 378T675 229T596 102T486 12T344 -21ZM405 57Q460
57 498 89T562 172T603 282T624 395T630 487Q630 647 571 728T411 810Q356 810 318 778T254 695T213 585T192 472T186 380Q186 220 245 139T405 57ZM368 911Q355 911 341 939Q396 980 427 1006T476 1051T501 1084Q515 1087 526 1088T548 1089Q581 1089 593 1080T605
1061Q605 1051 598 1044T568 1020Q541 1001 510 982T449 946T398 921T368 911Z" />
<glyph unicode="&#xd4;" glyph-name="Ocircumflex" horiz-adv-x="782" d="M344 -21Q258 -21 199 27T109 156T78 336Q78 411 93 489T140 638T219 766T330 856T472 889Q559 889 618 841T707 712T738 531Q738 456 722 378T675 229T596 102T486 12T344 -21ZM405 57Q460
57 498 89T562 172T603 282T624 395T630 487Q630 647 571 728T411 810Q356 810 318 778T254 695T213 585T192 472T186 380Q186 220 245 139T405 57ZM297 911Q286 911 270 939Q325 980 353 1006T394 1051T416 1084Q433 1089 459 1089Q474 1089 488 1087T510 1078Q517
1068 544 1027T619 939Q605 911 592 911Q578 911 544 935T456 1002Q424 980 391 959T332 925T297 911Z" />
<glyph unicode="&#xd5;" glyph-name="Otilde" horiz-adv-x="782" d="M344 -21Q258 -21 199 27T109 156T78 336Q78 411 93 489T140 638T219 766T330 856T472 889Q559 889 618 841T707 712T738 531Q738 456 722 378T675 229T596 102T486 12T344 -21ZM405 57Q460
57 498 89T562 172T603 282T624 395T630 487Q630 647 571 728T411 810Q356 810 318 778T254 695T213 585T192 472T186 380Q186 220 245 139T405 57ZM348 926Q332 926 318 932T304 958Q304 986 317 1012T352 1055T403 1073Q432 1073 451 1063T484 1040T513 1017T546
1007Q563 1007 577 1023T597 1074Q614 1074 627 1068T641 1042Q641 1015 628 989T593 945T542 927Q514 927 495 937T461 960T432 983T399 993Q383 993 368 977T348 926Z" />
<glyph unicode="&#xd6;" glyph-name="Odieresis" horiz-adv-x="782" d="M344 -21Q258 -21 199 27T109 156T78 336Q78 411 93 489T140 638T219 766T330 856T472 889Q559 889 618 841T707 712T738 531Q738 456 722 378T675 229T596 102T486 12T344 -21ZM405 57Q460
57 498 89T562 172T603 282T624 395T630 487Q630 647 571 728T411 810Q356 810 318 778T254 695T213 585T192 472T186 380Q186 220 245 139T405 57ZM577 928Q547 928 535 939T523 975Q523 986 525 1000T530 1032Q568 1055 599 1055Q622 1055 639 1045T657 1012Q657
1001 655 986T646 951Q609 928 577 928ZM343 928Q313 928 301 939T289 975Q289 986 290 1000T296 1032Q333 1055 365 1055Q388 1055 405 1045T423 1012Q423 1001 420 986T412 951Q375 928 343 928Z" />
<glyph unicode="&#xd7;" glyph-name="multiply" horiz-adv-x="544" d="M149 222Q136 224 120 232T91 253T78 282Q78 306 101 329Q127 355 156 381T216 435Q179 483 144 521T76 570Q78 595 97 616T134 637Q153 637 177 617T229 566T284 498Q328 539 360 576T402
645Q425 644 443 627T461 591Q461 574 448 551T405 497L336 430Q355 405 371 385T398 353Q416 335 434 326T478 314Q478 297 473 279T455 247T420 234Q386 234 347 273T268 364Q223 321 190 284T149 222Z" />
<glyph unicode="&#xd8;" glyph-name="Oslash" horiz-adv-x="782" d="M252 -128Q239 -128 223 -123T190 -101Q229 -55 251 -3Q195 20 156 69T98 188T78 336Q78 411 93 489T140 638T219 766T330 856T472 889Q476 889 480 889T489 888Q509 920 530 933T574 947Q588
947 607 938T627 903Q613 896 601 886T580 864Q632 838 667 789T720 673T738 531Q738 456 723 379T676 230T597 103T488 13T347 -21Q325 -81 302 -104T252 -128ZM285 96Q305 163 322 241T357 401T389 559T420 700T450 806Q440 808 431 809T411 810Q356 810 318
778T254 695T213 585T192 472T186 380Q186 275 212 204T285 96ZM405 57Q460 57 498 89T562 172T603 282T624 395T630 487Q630 591 605 662T532 770Q505 689 482 593T440 399T404 213T371 59Q379 58 387 58T405 57Z" />
<glyph unicode="&#xd9;" glyph-name="Ugrave" horiz-adv-x="742" d="M223 -16Q173 -16 146 8T108 72T98 153Q98 189 105 242T122 359T141 489T158 618T165 731Q165 767 162 801T144 866Q155 876 175 882T211 889Q245 889 262 866T280 783Q280 746 272 690T253
564T230 423T210 283T202 158Q202 124 213 102T252 80Q276 80 312 105T388 171T468 264T537 367Q547 431 556 497T573 623T580 731Q580 767 577 801T559 866Q570 876 590 882T625 889Q659 889 676 866T694 783Q694 746 686 690T667 567T645 428T625 290T617 166Q617
127 624 92T655 29Q636 7 618 0T586 -7Q551 -7 530 21T508 125Q508 169 519 243Q486 192 447 145T368 62T290 5T223 -16ZM552 911Q545 911 523 920T471 946T410 981T351 1020Q328 1037 321 1044T314 1061Q314 1070 326 1079T371 1089Q381 1089 392 1088T418 1084Q427
1069 443 1051T492 1007T579 939Q563 911 552 911Z" />
<glyph unicode="&#xda;" glyph-name="Uacute" horiz-adv-x="742" d="M223 -16Q173 -16 146 8T108 72T98 153Q98 189 105 242T122 359T141 489T158 618T165 731Q165 767 162 801T144 866Q155 876 175 882T211 889Q245 889 262 866T280 783Q280 746 272 690T253
564T230 423T210 283T202 158Q202 124 213 102T252 80Q276 80 312 105T388 171T468 264T537 367Q547 431 556 497T573 623T580 731Q580 767 577 801T559 866Q570 876 590 882T625 889Q659 889 676 866T694 783Q694 746 686 690T667 567T645 428T625 290T617 166Q617
127 624 92T655 29Q636 7 618 0T586 -7Q551 -7 530 21T508 125Q508 169 519 243Q486 192 447 145T368 62T290 5T223 -16ZM342 911Q329 911 315 939Q370 980 401 1006T450 1051T475 1084Q489 1087 500 1088T522 1089Q555 1089 567 1080T579 1061Q579 1051 572 1044T542
1020Q515 1001 484 982T423 946T372 921T342 911Z" />
<glyph unicode="&#xdb;" glyph-name="Ucircumflex" horiz-adv-x="742" d="M223 -16Q173 -16 146 8T108 72T98 153Q98 189 105 242T122 359T141 489T158 618T165 731Q165 767 162 801T144 866Q155 876 175 882T211 889Q245 889 262 866T280 783Q280 746 272 690T253
564T230 423T210 283T202 158Q202 124 213 102T252 80Q276 80 312 105T388 171T468 264T537 367Q547 431 556 497T573 623T580 731Q580 767 577 801T559 866Q570 876 590 882T625 889Q659 889 676 866T694 783Q694 746 686 690T667 567T645 428T625 290T617 166Q617
127 624 92T655 29Q636 7 618 0T586 -7Q551 -7 530 21T508 125Q508 169 519 243Q486 192 447 145T368 62T290 5T223 -16ZM271 911Q260 911 244 939Q299 980 327 1006T368 1051T390 1084Q407 1089 433 1089Q448 1089 462 1087T484 1078Q491 1068 518 1027T593 939Q579
911 566 911Q552 911 518 935T430 1002Q398 980 365 959T306 925T271 911Z" />
<glyph unicode="&#xdc;" glyph-name="Udieresis" horiz-adv-x="742" d="M223 -16Q173 -16 146 8T108 72T98 153Q98 189 105 242T122 359T141 489T158 618T165 731Q165 767 162 801T144 866Q155 876 175 882T211 889Q245 889 262 866T280 783Q280 746 272 690T253
564T230 423T210 283T202 158Q202 124 213 102T252 80Q276 80 312 105T388 171T468 264T537 367Q547 431 556 497T573 623T580 731Q580 767 577 801T559 866Q570 876 590 882T625 889Q659 889 676 866T694 783Q694 746 686 690T667 567T645 428T625 290T617 166Q617
127 624 92T655 29Q636 7 618 0T586 -7Q551 -7 530 21T508 125Q508 169 519 243Q486 192 447 145T368 62T290 5T223 -16ZM551 928Q521 928 509 939T497 975Q497 986 499 1000T504 1032Q542 1055 573 1055Q596 1055 613 1045T631 1012Q631 1001 629 986T620 951Q583
928 551 928ZM317 928Q287 928 275 939T263 975Q263 986 264 1000T270 1032Q307 1055 339 1055Q362 1055 379 1045T397 1012Q397 1001 394 986T386 951Q349 928 317 928Z" />
<glyph unicode="&#xdd;" glyph-name="Yacute" horiz-adv-x="552" d="M280 -7Q246 -7 226 20T205 118Q205 149 211 198T228 309Q214 380 198 452T162 591T122 710T77 792T27 823Q40 861 66 875T111 889Q137 889 162 866T208 785Q215 764 226 724T251 632T278 526T302
419Q332 480 363 533T422 633T467 721T484 800Q484 814 482 826T474 849Q489 870 511 877T546 885Q566 885 578 874T591 837Q591 818 577 783T538 702T484 606T425 507T370 414Q349 379 340 357T326 306Q321 264 318 226T314 155Q314 119 321 87T350 29Q331 7 312
0T280 -7ZM243 911Q230 911 216 939Q271 980 302 1006T351 1051T376 1084Q390 1087 401 1088T423 1089Q456 1089 468 1080T480 1061Q480 1051 473 1044T443 1020Q416 1001 385 982T324 946T273 921T243 911Z" />
<glyph unicode="&#xde;" glyph-name="Thorn" horiz-adv-x="615" d="M176 -7Q141 -7 120 21T98 125Q98 161 105 217T123 342T144 480T162 616T169 731Q169 767 166 801T148 866Q159 876 180 882T215 889Q249 889 266 866T284 783Q284 776 284 768T283 751Q305 753
326 754T369 756Q436 756 492 739T581 677T615 551Q615 484 588 431T516 336T417 266T308 216T207 185V166Q207 127 213 92T245 29Q226 7 207 0T176 -7ZM211 252Q267 263 320 284T416 339T484 420T510 530Q510 615 465 657T336 699Q322 699 307 698T276 694Q268
634 255 558T230 403T211 252Z" />
<glyph unicode="&#xdf;" glyph-name="germandbls" horiz-adv-x="688" d="M161 -223Q126 -223 105 -195T83 -91Q83 -57 87 -1T99 124T116 268T134 414T152 546Q123 545 93 540T39 520Q39 555 45 579T78 617T164 630Q177 695 200 755T259 863T342 939T452 967Q521
967 565 944T631 881T653 794Q653 746 631 695T567 600T463 526Q557 504 605 443T654 280Q654 230 636 178T582 82T489 11T355 -16Q297 -16 257 4T195 56Q192 -2 192 -50Q192 -89 199 -124T230 -187Q212 -209 193 -216T161 -223ZM363 58Q419 58 457 89T516 167T536
263Q536 321 519 370T463 453T361 494Q334 490 307 488Q306 493 306 499T306 510Q306 539 313 546T349 556Q397 561 434 583T497 637T536 707T549 778Q549 825 523 859T440 893Q383 893 348 862T293 768T260 616Q254 575 245 504T225 348T205 176Q214 181 225 184T253
189Q253 132 278 95T363 58Z" />
<glyph unicode="&#xe0;" glyph-name="agrave" horiz-adv-x="687" d="M215 -14Q147 -14 108 53T68 237Q68 331 90 412T153 555T246 650T361 684Q446 684 502 617Q510 648 522 661T557 674Q588 674 611 648Q602 624 594 582T580 487T571 378T567 269Q567 179 577
126T613 30Q584 -7 545 -7Q503 -7 481 47T459 204Q459 219 460 240T464 284T467 323Q433 227 389 151T299 30T215 -14ZM249 92Q272 92 301 122T361 204T420 317T468 443T494 563Q426 615 365 615Q309 615 266 570T198 446T173 262Q173 183 193 138T249 92ZM501
740Q494 740 472 749T420 775T359 810T300 849Q277 866 270 873T263 890Q263 899 275 908T320 918Q330 918 341 917T367 913Q376 898 392 880T441 836T528 768Q512 740 501 740Z" />
<glyph unicode="&#xe1;" glyph-name="aacute" horiz-adv-x="687" d="M215 -14Q147 -14 108 53T68 237Q68 331 90 412T153 555T246 650T361 684Q446 684 502 617Q510 648 522 661T557 674Q588 674 611 648Q602 624 594 582T580 487T571 378T567 269Q567 179 577
126T613 30Q584 -7 545 -7Q503 -7 481 47T459 204Q459 219 460 240T464 284T467 323Q433 227 389 151T299 30T215 -14ZM249 92Q272 92 301 122T361 204T420 317T468 443T494 563Q426 615 365 615Q309 615 266 570T198 446T173 262Q173 183 193 138T249 92ZM291
740Q278 740 264 768Q319 809 350 835T399 880T424 913Q438 916 449 917T471 918Q504 918 516 909T528 890Q528 880 521 873T491 849Q464 830 433 811T372 775T321 750T291 740Z" />
<glyph unicode="&#xe2;" glyph-name="acircumflex" horiz-adv-x="687" d="M215 -14Q147 -14 108 53T68 237Q68 331 90 412T153 555T246 650T361 684Q446 684 502 617Q510 648 522 661T557 674Q588 674 611 648Q602 624 594 582T580 487T571 378T567 269Q567 179
577 126T613 30Q584 -7 545 -7Q503 -7 481 47T459 204Q459 219 460 240T464 284T467 323Q433 227 389 151T299 30T215 -14ZM249 92Q272 92 301 122T361 204T420 317T468 443T494 563Q426 615 365 615Q309 615 266 570T198 446T173 262Q173 183 193 138T249 92ZM248
740Q237 740 221 768Q276 809 304 835T345 880T367 913Q384 918 410 918Q425 918 439 916T461 907Q468 897 495 856T570 768Q556 740 543 740Q529 740 495 764T407 831Q375 809 342 788T283 754T248 740Z" />
<glyph unicode="&#xe3;" glyph-name="atilde" horiz-adv-x="687" d="M215 -14Q147 -14 108 53T68 237Q68 331 90 412T153 555T246 650T361 684Q446 684 502 617Q510 648 522 661T557 674Q588 674 611 648Q602 624 594 582T580 487T571 378T567 269Q567 179 577
126T613 30Q584 -7 545 -7Q503 -7 481 47T459 204Q459 219 460 240T464 284T467 323Q433 227 389 151T299 30T215 -14ZM249 92Q272 92 301 122T361 204T420 317T468 443T494 563Q426 615 365 615Q309 615 266 570T198 446T173 262Q173 183 193 138T249 92ZM271
755Q255 755 241 761T227 787Q227 815 240 841T275 884T326 902Q355 902 374 892T407 869T436 846T469 836Q486 836 500 852T520 903Q537 903 550 897T564 871Q564 844 551 818T516 774T465 756Q437 756 418 766T384 789T355 812T322 822Q306 822 291 806T271 755Z"
/>
<glyph unicode="&#xe4;" glyph-name="adieresis" horiz-adv-x="687" d="M215 -14Q147 -14 108 53T68 237Q68 331 90 412T153 555T246 650T361 684Q446 684 502 617Q510 648 522 661T557 674Q588 674 611 648Q602 624 594 582T580 487T571 378T567 269Q567 179
577 126T613 30Q584 -7 545 -7Q503 -7 481 47T459 204Q459 219 460 240T464 284T467 323Q433 227 389 151T299 30T215 -14ZM249 92Q272 92 301 122T361 204T420 317T468 443T494 563Q426 615 365 615Q309 615 266 570T198 446T173 262Q173 183 193 138T249 92ZM500
757Q470 757 458 768T446 804Q446 815 448 829T453 861Q491 884 522 884Q545 884 562 874T580 841Q580 830 578 815T569 780Q532 757 500 757ZM266 757Q236 757 224 768T212 804Q212 815 213 829T219 861Q256 884 288 884Q311 884 328 874T346 841Q346 830 343
815T335 780Q298 757 266 757Z" />
<glyph unicode="&#xe5;" glyph-name="aring" horiz-adv-x="687" d="M215 -14Q147 -14 108 53T68 237Q68 331 90 412T153 555T246 650T361 684Q446 684 502 617Q510 648 522 661T557 674Q588 674 611 648Q602 624 594 582T580 487T571 378T567 269Q567 179 577
126T613 30Q584 -7 545 -7Q503 -7 481 47T459 204Q459 219 460 240T464 284T467 323Q433 227 389 151T299 30T215 -14ZM249 92Q272 92 301 122T361 204T420 317T468 443T494 563Q426 615 365 615Q309 615 266 570T198 446T173 262Q173 183 193 138T249 92ZM378
728Q369 728 352 732T317 747T287 779T274 833Q274 878 295 909T348 957T414 974Q422 974 439 970T474 955T504 924T517 869Q517 825 496 793T444 745T378 728ZM389 775Q410 775 421 792T436 832T441 871Q441 928 399 928Q379 928 368 911T352 871T347 832Q347
775 389 775Z" />
<glyph unicode="&#xe6;" glyph-name="ae" horiz-adv-x="929" d="M657 -17Q583 -17 533 12T454 91T417 205Q385 140 350 91T280 14T215 -14Q147 -14 108 53T68 237Q68 331 90 412T153 555T246 650T361 684Q401 684 447 665T541 594Q580 635 630 659T738 684Q819
684 857 644T895 548Q895 504 873 458T810 371T710 306T576 281Q563 281 549 282T521 285Q523 173 563 115T676 57Q727 57 765 81T827 158Q839 147 845 132T851 102Q851 71 832 49T783 12T720 -10T657 -17ZM249 92Q272 92 300 121T358 199T417 308Q423 373 446
436T507 552Q468 587 431 601T365 615Q309 615 266 570T198 446T173 262Q173 183 193 138T249 92ZM569 345Q642 345 691 371T765 436T790 515Q790 554 766 581T691 609Q646 609 616 584T567 518T538 432T524 348Q548 345 569 345Z" />
<glyph unicode="&#xe7;" glyph-name="ccedilla" horiz-adv-x="532" d="M312 -17Q227 -17 173 20T94 120T68 259Q68 317 82 376T124 491T191 589T281 658T393 684Q452 684 492 666T532 603Q532 568 517 545T487 511Q465 554 434 581T346 609Q303 609 274 586T225
525T195 444T180 361T176 294Q176 177 216 117T331 57Q425 57 469 158Q480 147 485 132T490 102Q490 71 473 49T428 12T370 -10T312 -17ZM247 -272Q207 -272 183 -255T159 -216Q159 -203 170 -191T210 -172Q212 -194 225 -208T258 -223Q287 -223 302 -202T317 -158Q317
-119 277 -113L225 -105Q217 -103 215 -102T212 -97Q212 -96 217 -82T231 -46T249 -3T264 34H313L275 -69Q340 -76 367 -95T394 -152Q394 -177 381 -205T335 -252T247 -272Z" />
<glyph unicode="&#xe8;" glyph-name="egrave" horiz-adv-x="583" d="M312 -17Q227 -17 173 20T94 120T68 259Q68 317 82 376T124 491T191 589T281 658T393 684Q473 684 511 644T549 548Q549 504 528 458T465 371T364 306T230 281Q203 281 176 284Q178 172 218
115T331 57Q381 57 419 81T481 158Q493 147 499 132T505 102Q505 71 486 49T438 12T375 -10T312 -17ZM223 345Q296 345 345 371T419 436T444 515Q444 554 420 581T346 609Q301 609 271 584T221 518T192 432T178 348Q202 345 223 345ZM497 740Q490 740 468 749T416
775T355 810T296 849Q273 866 266 873T259 890Q259 899 271 908T316 918Q326 918 337 917T363 913Q372 898 388 880T437 836T524 768Q508 740 497 740Z" />
<glyph unicode="&#xe9;" glyph-name="eacute" horiz-adv-x="583" d="M312 -17Q227 -17 173 20T94 120T68 259Q68 317 82 376T124 491T191 589T281 658T393 684Q473 684 511 644T549 548Q549 504 528 458T465 371T364 306T230 281Q203 281 176 284Q178 172 218
115T331 57Q381 57 419 81T481 158Q493 147 499 132T505 102Q505 71 486 49T438 12T375 -10T312 -17ZM223 345Q296 345 345 371T419 436T444 515Q444 554 420 581T346 609Q301 609 271 584T221 518T192 432T178 348Q202 345 223 345ZM287 740Q274 740 260 768Q315
809 346 835T395 880T420 913Q434 916 445 917T467 918Q500 918 512 909T524 890Q524 880 517 873T487 849Q460 830 429 811T368 775T317 750T287 740Z" />
<glyph unicode="&#xea;" glyph-name="ecircumflex" horiz-adv-x="583" d="M312 -17Q227 -17 173 20T94 120T68 259Q68 317 82 376T124 491T191 589T281 658T393 684Q473 684 511 644T549 548Q549 504 528 458T465 371T364 306T230 281Q203 281 176 284Q178 172
218 115T331 57Q381 57 419 81T481 158Q493 147 499 132T505 102Q505 71 486 49T438 12T375 -10T312 -17ZM223 345Q296 345 345 371T419 436T444 515Q444 554 420 581T346 609Q301 609 271 584T221 518T192 432T178 348Q202 345 223 345ZM244 740Q233 740 217 768Q272
809 300 835T341 880T363 913Q380 918 406 918Q421 918 435 916T457 907Q464 897 491 856T566 768Q552 740 539 740Q525 740 491 764T403 831Q371 809 338 788T279 754T244 740Z" />
<glyph unicode="&#xeb;" glyph-name="edieresis" horiz-adv-x="583" d="M312 -17Q227 -17 173 20T94 120T68 259Q68 317 82 376T124 491T191 589T281 658T393 684Q473 684 511 644T549 548Q549 504 528 458T465 371T364 306T230 281Q203 281 176 284Q178 172 218
115T331 57Q381 57 419 81T481 158Q493 147 499 132T505 102Q505 71 486 49T438 12T375 -10T312 -17ZM223 345Q296 345 345 371T419 436T444 515Q444 554 420 581T346 609Q301 609 271 584T221 518T192 432T178 348Q202 345 223 345ZM496 757Q466 757 454 768T442
804Q442 815 444 829T449 861Q487 884 518 884Q541 884 558 874T576 841Q576 830 574 815T565 780Q528 757 496 757ZM262 757Q232 757 220 768T208 804Q208 815 209 829T215 861Q252 884 284 884Q307 884 324 874T342 841Q342 830 339 815T331 780Q294 757 262
757Z" />
<glyph unicode="&#xec;" glyph-name="igrave" horiz-adv-x="332" d="M176 -7Q141 -7 120 21T98 125Q98 184 108 247T129 378T140 521Q140 553 137 587T119 650Q130 661 151 667T186 673Q212 673 232 656T253 597Q253 572 246 522T230 410T214 283T207 166Q207
127 213 92T245 29Q226 7 207 0T176 -7ZM542 740Q535 740 513 749T461 775T400 810T341 849Q318 866 311 873T304 890Q304 899 316 908T361 918Q371 918 382 917T408 913Q417 898 433 880T482 836T569 768Q553 740 542 740Z" />
<glyph unicode="&#xed;" glyph-name="iacute" horiz-adv-x="332" d="M176 -7Q141 -7 120 21T98 125Q98 184 108 247T129 378T140 521Q140 553 137 587T119 650Q130 661 151 667T186 673Q212 673 232 656T253 597Q253 572 246 522T230 410T214 283T207 166Q207
127 213 92T245 29Q226 7 207 0T176 -7ZM372 740Q359 740 345 768Q400 809 431 835T480 880T505 913Q519 916 530 917T552 918Q585 918 597 909T609 890Q609 880 602 873T572 849Q545 830 514 811T453 775T402 750T372 740Z" />
<glyph unicode="&#xee;" glyph-name="icircumflex" horiz-adv-x="332" d="M176 -7Q141 -7 120 21T98 125Q98 184 108 247T129 378T140 521Q140 553 137 587T119 650Q130 661 151 667T186 673Q212 673 232 656T253 597Q253 572 246 522T230 410T214 283T207 166Q207
127 213 92T245 29Q226 7 207 0T176 -7ZM289 740Q278 740 262 768Q317 809 345 835T386 880T408 913Q425 918 451 918Q466 918 480 916T502 907Q509 897 536 856T611 768Q597 740 584 740Q570 740 536 764T448 831Q416 809 383 788T324 754T289 740Z" />
<glyph unicode="&#xef;" glyph-name="idieresis" horiz-adv-x="332" d="M176 -7Q141 -7 120 21T98 125Q98 184 108 247T129 378T140 521Q140 553 137 587T119 650Q130 661 151 667T186 673Q212 673 232 656T253 597Q253 572 246 522T230 410T214 283T207 166Q207
127 213 92T245 29Q226 7 207 0T176 -7ZM325 757Q295 757 283 768T271 804Q271 815 273 829T278 861Q316 884 347 884Q370 884 387 874T405 841Q405 830 403 815T394 780Q357 757 325 757ZM91 757Q61 757 49 768T37 804Q37 815 38 829T44 861Q81 884 113 884Q136
884 153 874T171 841Q171 830 168 815T160 780Q123 757 91 757Z" />
<glyph unicode="&#xf0;" glyph-name="eth" horiz-adv-x="655" d="M286 -17Q214 -17 166 17T93 110T68 240Q68 307 88 373T147 495T238 584T356 618Q396 618 434 602T502 544L512 547Q505 619 489 673T450 767Q420 752 393 734T351 693Q337 701 320 717T303 754Q303
777 333 794T403 828Q377 854 349 865T293 877Q219 877 169 811Q155 822 143 840T131 876Q131 920 168 939T266 958Q327 958 377 931T468 856Q487 866 511 881T555 911T581 939Q599 931 610 916T621 886Q621 870 600 849T512 794Q556 719 579 623T602 429Q602 343
583 263T526 120T428 20T286 -17ZM335 57Q376 57 405 78T453 134T482 208T497 284T502 345Q502 452 459 506T341 561Q301 561 273 540T226 484T196 410T181 335T176 273Q176 167 219 112T335 57Z" />
<glyph unicode="&#xf1;" glyph-name="ntilde" horiz-adv-x="667" d="M150 -7Q110 -7 98 21T86 93Q86 146 95 214T114 359T124 516Q124 552 121 586T103 650Q114 661 134 667T169 673Q203 673 220 650T238 568Q238 517 229 453T209 330Q235 390 263 452T324 565T390
648T460 680Q577 680 577 507Q577 433 566 364T554 220Q554 191 557 154T570 84T598 29Q580 10 563 2T528 -7Q487 -7 466 43T445 187Q445 251 453 311T470 422T478 507Q478 539 466 556T432 574Q409 574 382 549T329 480T278 385T236 278T206 177T195 95Q195 64
200 40T212 7Q193 0 178 -3T150 -7ZM248 755Q232 755 218 761T204 787Q204 815 217 841T252 884T303 902Q332 902 351 892T384 869T413 846T446 836Q463 836 477 852T497 903Q514 903 527 897T541 871Q541 844 528 818T493 774T442 756Q414 756 395 766T361 789T332
812T299 822Q283 822 268 806T248 755Z" />
<glyph unicode="&#xf2;" glyph-name="ograve" horiz-adv-x="678" d="M286 -17Q214 -17 166 20T93 120T68 259Q68 317 82 376T124 491T191 589T281 658T393 684Q465 684 513 647T586 548T610 408Q610 350 596 291T555 176T488 78T398 9T286 -17ZM335 57Q376 57
405 80T453 142T482 223T497 306T502 373Q502 490 459 549T341 609Q301 609 273 586T226 525T196 444T181 361T176 294Q176 177 219 117T335 57ZM504 740Q497 740 475 749T423 775T362 810T303 849Q280 866 273 873T266 890Q266 899 278 908T323 918Q333 918 344
917T370 913Q379 898 395 880T444 836T531 768Q515 740 504 740Z" />
<glyph unicode="&#xf3;" glyph-name="oacute" horiz-adv-x="678" d="M286 -17Q214 -17 166 20T93 120T68 259Q68 317 82 376T124 491T191 589T281 658T393 684Q465 684 513 647T586 548T610 408Q610 350 596 291T555 176T488 78T398 9T286 -17ZM335 57Q376 57
405 80T453 142T482 223T497 306T502 373Q502 490 459 549T341 609Q301 609 273 586T226 525T196 444T181 361T176 294Q176 177 219 117T335 57ZM294 740Q281 740 267 768Q322 809 353 835T402 880T427 913Q441 916 452 917T474 918Q507 918 519 909T531 890Q531
880 524 873T494 849Q467 830 436 811T375 775T324 750T294 740Z" />
<glyph unicode="&#xf4;" glyph-name="ocircumflex" horiz-adv-x="678" d="M286 -17Q214 -17 166 20T93 120T68 259Q68 317 82 376T124 491T191 589T281 658T393 684Q465 684 513 647T586 548T610 408Q610 350 596 291T555 176T488 78T398 9T286 -17ZM335 57Q376
57 405 80T453 142T482 223T497 306T502 373Q502 490 459 549T341 609Q301 609 273 586T226 525T196 444T181 361T176 294Q176 177 219 117T335 57ZM251 740Q240 740 224 768Q279 809 307 835T348 880T370 913Q387 918 413 918Q428 918 442 916T464 907Q471 897
498 856T573 768Q559 740 546 740Q532 740 498 764T410 831Q378 809 345 788T286 754T251 740Z" />
<glyph unicode="&#xf5;" glyph-name="otilde" horiz-adv-x="678" d="M286 -17Q214 -17 166 20T93 120T68 259Q68 317 82 376T124 491T191 589T281 658T393 684Q465 684 513 647T586 548T610 408Q610 350 596 291T555 176T488 78T398 9T286 -17ZM335 57Q376 57
405 80T453 142T482 223T497 306T502 373Q502 490 459 549T341 609Q301 609 273 586T226 525T196 444T181 361T176 294Q176 177 219 117T335 57ZM274 755Q258 755 244 761T230 787Q230 815 243 841T278 884T329 902Q358 902 377 892T410 869T439 846T472 836Q489
836 503 852T523 903Q540 903 553 897T567 871Q567 844 554 818T519 774T468 756Q440 756 421 766T387 789T358 812T325 822Q309 822 294 806T274 755Z" />
<glyph unicode="&#xf6;" glyph-name="odieresis" horiz-adv-x="678" d="M286 -17Q214 -17 166 20T93 120T68 259Q68 317 82 376T124 491T191 589T281 658T393 684Q465 684 513 647T586 548T610 408Q610 350 596 291T555 176T488 78T398 9T286 -17ZM335 57Q376
57 405 80T453 142T482 223T497 306T502 373Q502 490 459 549T341 609Q301 609 273 586T226 525T196 444T181 361T176 294Q176 177 219 117T335 57ZM503 757Q473 757 461 768T449 804Q449 815 451 829T456 861Q494 884 525 884Q548 884 565 874T583 841Q583 830
581 815T572 780Q535 757 503 757ZM269 757Q239 757 227 768T215 804Q215 815 216 829T222 861Q259 884 291 884Q314 884 331 874T349 841Q349 830 346 815T338 780Q301 757 269 757Z" />
<glyph unicode="&#xf7;" glyph-name="divide" horiz-adv-x="544" d="M285 574Q251 574 237 587T223 629Q223 641 225 657T231 694Q273 721 311 721Q337 721 357 710T377 671Q377 658 374 641T364 602Q320 574 285 574ZM68 372Q61 383 55 400T49 437Q49 457 65
469T109 482Q124 482 155 481T223 477T292 474T342 472Q359 472 388 474T446 481T486 493Q496 482 498 468T501 442Q501 420 475 403T383 386Q370 386 340 386T276 387T214 388T174 389Q160 389 140 388T100 382T68 372ZM237 141Q203 141 189 154T175 196Q175 208
177 224T183 261Q225 288 263 288Q289 288 309 277T329 238Q329 225 326 208T316 169Q272 141 237 141Z" />
<glyph unicode="&#xf8;" glyph-name="oslash" horiz-adv-x="678" d="M203 -150Q192 -150 177 -146T147 -126Q167 -102 177 -85T194 -49T215 -5Q142 20 105 92T68 259Q68 329 89 402T150 537T248 639T379 683Q406 760 435 788T493 817Q505 817 522 809T541 778Q509
761 491 733T460 673Q534 649 572 576T610 408Q610 338 589 265T528 130T431 28T301 -16Q283 -70 267 -99T235 -139T203 -150ZM243 89Q260 151 275 220T304 359T331 493T357 608Q353 608 349 608T341 609Q301 609 273 586T226 525T196 444T181 361T176 294Q176
220 193 169T243 89ZM319 57Q365 57 396 80T449 142T481 223T497 306T502 373Q502 449 484 501T430 580Q408 498 389 404T352 220T319 57Z" />
<glyph unicode="&#xf9;" glyph-name="ugrave" horiz-adv-x="677" d="M209 -16Q161 -16 135 8T100 72T90 153Q90 212 99 268T118 385T127 521Q127 553 124 587T106 650Q117 661 137 667T173 673Q199 673 219 656T240 597Q240 572 233 521T217 405T200 276T193 158Q193
124 204 102T241 80Q262 80 287 106T339 177T390 274T433 383T464 487T475 569Q475 616 460 650Q472 661 492 667T527 673Q553 673 574 656T595 597Q595 544 586 486T567 372T557 269Q557 189 566 133T604 30Q588 11 571 2T536 -7Q493 -7 472 48T450 204Q450 239
454 273T462 335Q436 274 407 213T346 99T280 16T209 -16ZM494 740Q487 740 465 749T413 775T352 810T293 849Q270 866 263 873T256 890Q256 899 268 908T313 918Q323 918 334 917T360 913Q369 898 385 880T434 836T521 768Q505 740 494 740Z" />
<glyph unicode="&#xfa;" glyph-name="uacute" horiz-adv-x="677" d="M209 -16Q161 -16 135 8T100 72T90 153Q90 212 99 268T118 385T127 521Q127 553 124 587T106 650Q117 661 137 667T173 673Q199 673 219 656T240 597Q240 572 233 521T217 405T200 276T193 158Q193
124 204 102T241 80Q262 80 287 106T339 177T390 274T433 383T464 487T475 569Q475 616 460 650Q472 661 492 667T527 673Q553 673 574 656T595 597Q595 544 586 486T567 372T557 269Q557 189 566 133T604 30Q588 11 571 2T536 -7Q493 -7 472 48T450 204Q450 239
454 273T462 335Q436 274 407 213T346 99T280 16T209 -16ZM284 740Q271 740 257 768Q312 809 343 835T392 880T417 913Q431 916 442 917T464 918Q497 918 509 909T521 890Q521 880 514 873T484 849Q457 830 426 811T365 775T314 750T284 740Z" />
<glyph unicode="&#xfb;" glyph-name="ucircumflex" horiz-adv-x="677" d="M209 -16Q161 -16 135 8T100 72T90 153Q90 212 99 268T118 385T127 521Q127 553 124 587T106 650Q117 661 137 667T173 673Q199 673 219 656T240 597Q240 572 233 521T217 405T200 276T193
158Q193 124 204 102T241 80Q262 80 287 106T339 177T390 274T433 383T464 487T475 569Q475 616 460 650Q472 661 492 667T527 673Q553 673 574 656T595 597Q595 544 586 486T567 372T557 269Q557 189 566 133T604 30Q588 11 571 2T536 -7Q493 -7 472 48T450 204Q450
239 454 273T462 335Q436 274 407 213T346 99T280 16T209 -16ZM241 740Q230 740 214 768Q269 809 297 835T338 880T360 913Q377 918 403 918Q418 918 432 916T454 907Q461 897 488 856T563 768Q549 740 536 740Q522 740 488 764T400 831Q368 809 335 788T276 754T241
740Z" />
<glyph unicode="&#xfc;" glyph-name="udieresis" horiz-adv-x="677" d="M209 -16Q161 -16 135 8T100 72T90 153Q90 212 99 268T118 385T127 521Q127 553 124 587T106 650Q117 661 137 667T173 673Q199 673 219 656T240 597Q240 572 233 521T217 405T200 276T193
158Q193 124 204 102T241 80Q262 80 287 106T339 177T390 274T433 383T464 487T475 569Q475 616 460 650Q472 661 492 667T527 673Q553 673 574 656T595 597Q595 544 586 486T567 372T557 269Q557 189 566 133T604 30Q588 11 571 2T536 -7Q493 -7 472 48T450 204Q450
239 454 273T462 335Q436 274 407 213T346 99T280 16T209 -16ZM493 757Q463 757 451 768T439 804Q439 815 441 829T446 861Q484 884 515 884Q538 884 555 874T573 841Q573 830 571 815T562 780Q525 757 493 757ZM259 757Q229 757 217 768T205 804Q205 815 206 829T212
861Q249 884 281 884Q304 884 321 874T339 841Q339 830 336 815T328 780Q291 757 259 757Z" />
<glyph unicode="&#xfd;" glyph-name="yacute" horiz-adv-x="563" d="M55 -254Q23 -254 -9 -247T-62 -220T-83 -161Q-83 -131 -72 -111T-51 -81Q-38 -124 -11 -147T68 -170Q126 -170 177 -117T271 22Q240 22 227 34T209 66Q192 137 174 212T135 357T94 482T49 570T2
604Q15 642 40 656T84 670Q110 670 137 647T186 567Q193 550 203 511T226 421T253 311T280 197T303 94Q331 163 353 234T390 371T413 491T421 582Q421 611 410 630Q424 652 446 659T481 667Q502 667 514 656T527 616Q527 603 519 559T496 451T457 310T403 154T336
2T255 -128T161 -220T55 -254ZM217 740Q204 740 190 768Q245 809 276 835T325 880T350 913Q364 916 375 917T397 918Q430 918 442 909T454 890Q454 880 447 873T417 849Q390 830 359 811T298 775T247 750T217 740Z" />
<glyph unicode="&#xfe;" glyph-name="thorn" horiz-adv-x="715" d="M184 -271Q147 -271 123 -239T98 -118Q98 6 111 123T143 351T174 570T188 780Q188 816 185 850T167 915Q178 925 199 931T234 937Q268 937 285 914T303 832Q303 809 298 764T285 660T268 540T251
424T236 330Q302 497 366 590T486 684Q527 684 564 655T624 563T647 398Q647 326 631 253T582 120T498 23T377 -14Q335 -14 287 1T209 41Q207 16 206 -9T204 -61Q204 -109 211 -155T251 -235Q234 -257 215 -264T184 -271ZM369 54Q425 54 464 96T523 209T543 367Q543
423 535 471T508 548T458 578Q434 578 400 540T329 435T262 279T216 91Q250 72 288 63T369 54Z" />
<glyph unicode="&#xff;" glyph-name="ydieresis" horiz-adv-x="563" d="M55 -254Q23 -254 -9 -247T-62 -220T-83 -161Q-83 -131 -72 -111T-51 -81Q-38 -124 -11 -147T68 -170Q126 -170 177 -117T271 22Q240 22 227 34T209 66Q192 137 174 212T135 357T94 482T49
570T2 604Q15 642 40 656T84 670Q110 670 137 647T186 567Q193 550 203 511T226 421T253 311T280 197T303 94Q331 163 353 234T390 371T413 491T421 582Q421 611 410 630Q424 652 446 659T481 667Q502 667 514 656T527 616Q527 603 519 559T496 451T457 310T403
154T336 2T255 -128T161 -220T55 -254ZM426 757Q396 757 384 768T372 804Q372 815 374 829T379 861Q417 884 448 884Q471 884 488 874T506 841Q506 830 504 815T495 780Q458 757 426 757ZM192 757Q162 757 150 768T138 804Q138 815 139 829T145 861Q182 884 214
884Q237 884 254 874T272 841Q272 830 269 815T261 780Q224 757 192 757Z" />
<glyph unicode="&#x2013;" glyph-name="endash" horiz-adv-x="769" d="M22 368Q13 381 7 398T0 438Q0 461 18 472T64 484Q87 484 128 483T221 481T325 477T420 474T489 473Q512 473 549 474T626 479T700 486T752 497Q763 484 766 471T770 444Q770 418 743 401T648
384Q626 384 585 384T491 385T383 386T276 387T187 387T130 388Q116 388 95 386T54 380T22 368Z" />
<glyph unicode="&#x2014;" glyph-name="emdash" horiz-adv-x="886" d="M22 368Q13 381 7 398T0 438Q0 461 18 472T64 484Q92 484 145 483T265 481T397 477T518 474T606 473Q629 473 666 474T743 479T817 486T869 497Q880 484 883 471T887 444Q887 418 860 401T766
384Q739 384 688 384T572 385T440 386T310 387T200 387T130 388Q116 388 95 386T54 380T22 368Z" />
<glyph unicode="&#x2018;" glyph-name="quoteleft" horiz-adv-x="269" d="M152 625Q98 625 98 697Q98 732 112 767T152 831T210 877T279 895Q293 895 303 890T313 867Q313 863 313 858T312 846Q308 847 305 847T297 847Q257 847 235 815T213 742Q213 720 221 698T246
662Q222 643 200 634T152 625Z" />
<glyph unicode="&#x2019;" glyph-name="quoteright" horiz-adv-x="269" d="M107 625Q93 625 83 631T73 653Q73 658 73 662T74 674Q78 673 81 673T89 673Q129 673 151 705T173 778Q173 801 165 822T140 858Q164 877 186 886T234 895Q288 895 288 823Q288 788 274
753T234 689T176 643T107 625Z" />
<glyph unicode="&#x201a;" glyph-name="quotesinglbase" horiz-adv-x="319" d="M59 -137Q45 -137 35 -131T25 -109Q25 -104 25 -100T26 -88Q30 -89 33 -89T41 -89Q81 -89 103 -57T125 16Q125 39 117 60T92 96Q116 115 138 124T186 133Q240 133 240 61Q240 26 226
-9T186 -73T128 -119T59 -137Z" />
<glyph unicode="&#x201c;" glyph-name="quotedblleft" horiz-adv-x="489" d="M372 625Q318 625 318 697Q318 732 332 767T372 831T430 877T499 895Q513 895 523 890T533 867Q533 863 533 858T532 846Q528 847 525 847T517 847Q477 847 455 815T433 742Q433 720
441 698T466 662Q442 643 420 634T372 625ZM152 625Q98 625 98 697Q98 732 112 767T152 831T210 877T279 895Q293 895 303 890T313 867Q313 863 313 858T312 846Q308 847 305 847T297 847Q257 847 235 815T213 742Q213 720 221 698T246 662Q222 643 200 634T152
625Z" />
<glyph unicode="&#x201d;" glyph-name="quotedblright" horiz-adv-x="489" d="M327 625Q313 625 303 631T293 653Q293 658 293 662T294 674Q298 673 301 673T309 673Q349 673 371 705T393 778Q393 801 385 822T360 858Q384 877 406 886T454 895Q508 895 508 823Q508
788 494 753T454 689T396 643T327 625ZM107 625Q93 625 83 631T73 653Q73 658 73 662T74 674Q78 673 81 673T89 673Q129 673 151 705T173 778Q173 801 165 822T140 858Q164 877 186 886T234 895Q288 895 288 823Q288 788 274 753T234 689T176 643T107 625Z" />
<glyph unicode="&#x201e;" glyph-name="quotedblbase" horiz-adv-x="539" d="M279 -137Q265 -137 255 -131T245 -109Q245 -104 245 -100T246 -88Q250 -89 253 -89T261 -89Q301 -89 323 -57T345 16Q345 39 337 60T312 96Q336 115 358 124T406 133Q460 133 460 61Q460
26 446 -9T406 -73T348 -119T279 -137ZM59 -137Q45 -137 35 -131T25 -109Q25 -104 25 -100T26 -88Q30 -89 33 -89T41 -89Q81 -89 103 -57T125 16Q125 39 117 60T92 96Q116 115 138 124T186 133Q240 133 240 61Q240 26 226 -9T186 -73T128 -119T59 -137Z" />
<glyph unicode="&#x2022;" glyph-name="bullet" horiz-adv-x="359" d="M159 286Q110 286 91 305T72 364Q72 381 75 404T83 457Q142 495 196 495Q234 495 262 479T290 424Q290 406 286 381T271 326Q211 286 159 286Z" />
<glyph unicode="&#x2039;" glyph-name="guilsinglleft" horiz-adv-x="313" d="M176 104Q141 104 125 119T105 159T101 213T99 270T84 321T40 354Q72 365 87 387T109 437T120 495T133 549T159 589T212 604Q225 604 245 600T275 588Q247 574 233 550T212 498T198
442T179 391T142 354Q165 341 174 318T185 267T189 211T202 158T239 120Q230 113 210 109T176 104Z" />
<glyph unicode="&#x203a;" glyph-name="guilsinglright" horiz-adv-x="313" d="M101 104Q88 104 68 108T38 120Q66 134 80 158T101 210T115 266T134 317T171 354Q148 367 139 390T128 441T124 497T111 550T74 588Q83 596 103 600T137 604Q172 604 188 589T208
549T212 495T214 438T230 387T273 354Q242 343 226 321T204 271T193 213T180 159T154 119T101 104Z" />
</font>
</defs>
</svg>
