<?xml version="1.0" standalone="no"?>
<!DOCTYPE svg PUBLIC "-//W3C//DTD SVG 1.1//EN" "http://www.w3.org/Graphics/SVG/1.1/DTD/svg11.dtd">
<svg xmlns="http://www.w3.org/2000/svg">
<defs >
<font id="Goldman" horiz-adv-x="652" ><font-face
    font-family="Goldman"
    units-per-em="1000"
    panose-1="0 0 0 0 0 0 0 0 0 0"
    ascent="900"
    descent="-300"
    alphabetic="0" />
<glyph unicode=" " glyph-name="space" horiz-adv-x="220" />
<glyph unicode="!" glyph-name="exclam" horiz-adv-x="333" d="M131 210Q123 257 114 309T98 410T85 494T80 539Q80 568 85 583T120 598H213Q240 598 246 584T253 539Q253 528 249 494T237 411T220 310T203 210H131ZM166 0Q129 0 112 15T95 65Q95 101 111 115T166
130Q204 130 221 116T238 65Q238 31 221 16T166 0Z" />
<glyph unicode="&quot;" glyph-name="quotedbl" horiz-adv-x="350" d="M100 500Q90 500 81 517T65 562T52 619T43 675T40 716Q40 744 51 757T100 770Q138 770 150 757T162 716Q162 702 159 676T150 620T137 563T120 518T100 500ZM260 500Q250 500 241 517T225
562T212 619T203 675T200 716Q200 744 211 757T260 770Q298 770 310 757T322 716Q322 702 319 676T310 620T297 563T280 518T260 500Z" />
<glyph unicode="#" glyph-name="numbersign" horiz-adv-x="873" d="M132 0L174 130H80V226H206L253 371H130V467H284L307 537L319 588H449L409 467H567L590 537L602 588H732L692 467H793V371H661L614 226H743V130H582L557 52L545 0H415L457 130H299L274 52L262
0H132ZM331 226H489L536 371H378L331 226Z" />
<glyph unicode="$" glyph-name="dollar" horiz-adv-x="696" d="M253 249Q152 249 106 287T60 409V425Q60 469 76 506T133 565T243 588H299V650H399V588H465Q533 588 575 581T617 566L597 482Q577 484 519 487T373 491L315 493H271Q225 493 209 475T192 428V411Q192
378 210 362T272 345H434Q498 345 543 332T612 285T636 183V167Q636 92 598 46T464 0H399V-60H299V0H192Q124 0 92 6T60 20L100 107Q114 105 171 101T327 97L383 96H425Q468 96 486 111T504 164V184Q504 219 490 234T425 249H253Z" />
<glyph unicode="%" glyph-name="percent" horiz-adv-x="896" d="M221 0L533 537L545 588H676L364 49L352 0H221ZM152 309Q108 309 89 321T65 353T60 397V500Q60 520 64 540T87 574T152 588H261Q305 588 324 575T348 541T353 500V397Q353 373 349 353T325 321T261
309H152ZM172 386H241Q252 386 256 392T261 406V492Q261 499 257 505T241 512H172Q160 512 156 506T152 492V406Q151 399 155 393T172 386ZM635 0Q591 0 572 12T548 44T543 88V191Q543 211 547 231T570 265T635 279H744Q788 279 807 266T831 232T836 191V88Q836
64 832 44T808 12T744 0H635ZM655 77H724Q735 77 739 83T744 97V183Q744 190 740 196T724 203H655Q643 203 639 197T635 183V97Q634 90 638 84T655 77Z" />
<glyph unicode="&amp;" glyph-name="ampersand" horiz-adv-x="804" d="M699 -10Q647 -10 612 6T542 51Q524 39 500 28T434 9T327 1H243Q181 1 146 21T95 77T80 161V195Q80 273 111 315T200 370Q189 384 179 407T168 465V479Q168 503 181 528T226 571T311 589H415Q465
589 492 578T530 548T544 511T547 477V440Q547 423 538 416T512 408H427V457Q427 474 419 483T391 493H342Q320 493 311 484T301 457Q301 429 313 413T356 373Q392 348 427 323T494 269Q510 255 529 237T564 202T585 180L595 187V365L736 355V271Q736 250 731 234T708
201Q692 185 676 169T644 137Q679 103 718 88T784 73L772 1Q764 -3 745 -6T699 -10ZM277 110H402Q443 110 459 117T478 126Q453 150 418 185T339 256Q301 287 267 287Q241 287 225 270T208 222V180Q208 143 224 127T277 110Z" />
<glyph unicode="&apos;" glyph-name="quotesingle" horiz-adv-x="202" d="M100 500Q90 500 81 517T65 562T52 619T43 675T40 716Q40 744 51 757T100 770Q138 770 150 757T162 716Q162 702 159 676T150 620T137 563T120 518T100 500Z" />
<glyph unicode="(" glyph-name="parenleft" horiz-adv-x="294" d="M217 -80L234 -30Q207 -4 185 34T150 136T136 303Q136 380 144 432T167 519T198 576T234 617L217 667Q158 667 118 639T52 560T16 444T4 303Q4 231 15 163T52 39T117 -48T217 -80Z" />
<glyph unicode=")" glyph-name="parenright" horiz-adv-x="310" d="M57 -80L40 -30Q67 -4 89 34T124 136T138 303Q138 380 130 432T107 519T76 576T40 617L57 667Q116 667 156 639T222 560T258 444T270 303Q270 231 259 163T222 39T157 -48T57 -80Z" />
<glyph unicode="*" glyph-name="asterisk" horiz-adv-x="540" d="M203 270L123 328L144 373L254 444L124 436L80 460L110 554L160 548L259 466L212 586L222 635H320L330 586L283 466L380 546L429 552L460 458L416 434L292 442L396 376L417 331L338 273L301 307L271
426L239 304L203 270Z" />
<glyph unicode="+" glyph-name="plus" horiz-adv-x="641" d="M271 50V240H80V340H271V530H371V340H561V240H371V50H271Z" />
<glyph unicode="," glyph-name="comma" horiz-adv-x="298" d="M86 -138Q65 -144 62 -133T65 -109Q71 -101 81 -83T102 -43T115 3Q89 7 77 22T65 68Q65 103 81 117T136 132Q177 132 197 115T218 57Q218 28 206 -4T173 -64T130 -112T86 -138Z" />
<glyph unicode="-" glyph-name="hyphen" horiz-adv-x="480" d="M80 220V336H400V220H80Z" />
<glyph unicode="." glyph-name="period" horiz-adv-x="303" d="M151 0Q114 0 97 15T80 65Q80 101 96 115T151 130Q189 130 206 116T223 65Q223 31 206 16T151 0Z" />
<glyph unicode="/" glyph-name="slash" horiz-adv-x="442" d="M20 -80L279 582L291 633H422L163 -31L151 -80H20Z" />
<glyph unicode="0" glyph-name="zero" horiz-adv-x="756" d="M263 0Q193 0 153 20T97 80T80 179V410Q80 468 96 507T152 567T263 588H494Q564 588 603 568T659 508T676 410V179Q676 91 637 46T494 0H263ZM292 96H466Q503 96 523 115T544 167V422Q544 451 523 471T466
492H292Q256 492 234 473T212 422V167Q212 133 233 115T292 96Z" />
<glyph unicode="1" glyph-name="one" horiz-adv-x="359" d="M147 0V492L27 483L20 568L279 598V0H147Z" />
<glyph unicode="2" glyph-name="two" horiz-adv-x="636" d="M40 0V97Q57 108 91 130T168 179T255 234T336 288T396 331Q428 356 440 379T453 426V446Q453 471 433 487T367 503H337Q279 503 221 499T118 491T50 483L40 574Q68 579 117 585T230 595T364 599H392Q455
599 493 585T551 547T579 497T586 443V422Q586 369 552 320T440 227Q356 181 299 150T216 104V96H616V0H40Z" />
<glyph unicode="3" glyph-name="three" horiz-adv-x="691" d="M232 0Q157 0 117 6T61 19T40 30L79 107Q85 106 103 104T158 101T260 98T421 96Q458 96 477 106T502 132T509 167V191Q509 217 495 234T440 252H156V340H389Q436 340 457 358T478 405V436Q478 464
462 483T400 502H372Q320 502 263 499T156 491T75 482L65 573Q84 576 133 582T251 593T400 598H428Q489 598 525 584T579 546T604 495T610 441V424Q610 379 589 354T550 317Q594 304 617 272T641 193V169Q641 140 634 110T604 55T540 15T429 0H232Z" />
<glyph unicode="4" glyph-name="four" horiz-adv-x="758" d="M432 0V108H40V206L379 588H564V204H698V108H564V0H432ZM203 204H432V466H422L204 214L203 204Z" />
<glyph unicode="5" glyph-name="five" horiz-adv-x="693" d="M234 0Q167 0 127 6T68 19T40 30L79 107Q101 105 184 101T433 96Q477 96 494 115T511 167V205Q511 234 495 255T432 276H150L70 266V588H522Q572 588 593 584T614 576L594 492H202V355Q215 357 254
360T362 363H441Q553 363 598 323T643 202V179Q643 148 638 117T616 59T562 16T461 0H234Z" />
<glyph unicode="6" glyph-name="six" horiz-adv-x="724" d="M262 0Q195 0 158 19T104 67T84 126T80 178V409Q80 429 83 459T103 518T156 568T262 588H447Q525 588 565 582T620 569T640 558L622 482Q609 484 524 488T290 492Q243 492 228 470T212 421V356Q224 358
267 361T393 364H492Q564 364 603 346T658 292T674 202V178Q674 148 670 117T648 59T595 17T493 0H262ZM290 96H464Q497 96 513 106T536 133T542 167V215Q542 242 529 259T473 276H212V166Q212 137 229 117T290 96Z" />
<glyph unicode="7" glyph-name="seven" horiz-adv-x="617" d="M137 0L165 60L453 482V492H20V588H597V491L286 0H137Z" />
<glyph unicode="8" glyph-name="eight" horiz-adv-x="696" d="M233 0Q137 0 94 40T50 169V180Q50 227 68 264T135 319Q107 333 94 362T80 429V440Q80 479 96 513T152 567T263 588H434Q504 588 543 568T599 513T616 440V429Q616 392 603 364T560 319Q608 301 627
264T646 180V169Q646 81 603 41T464 0H233ZM292 348H406Q445 348 464 364T484 417V422Q484 459 469 475T406 492H292Q246 492 229 477T212 422V417Q212 380 230 364T292 348ZM262 96H436Q473 96 493 113T514 167V190Q514 222 493 241T436 260H262Q226 260 204 243T182
190V167Q182 130 203 113T262 96Z" />
<glyph unicode="9" glyph-name="nine" horiz-adv-x="724" d="M235 0Q150 0 112 9T63 30L102 107Q118 105 155 102T259 98T434 96Q466 96 482 107T505 134T512 167V232Q503 231 464 228T341 224H232Q131 224 91 266T50 396V410Q50 440 54 471T76 529T130 571T231
588H462Q530 588 567 569T620 521T640 462T644 410V179Q644 159 641 129T621 70T568 20T462 0H235ZM261 312H512V422Q512 450 494 471T434 492H261Q215 492 199 469T182 422V384Q182 350 197 331T261 312Z" />
<glyph unicode=":" glyph-name="colon" horiz-adv-x="303" d="M151 330Q114 330 97 345T80 395Q80 431 96 445T151 460Q189 460 206 446T223 395Q223 361 206 346T151 330ZM151 0Q114 0 97 15T80 65Q80 101 96 115T151 130Q189 130 206 116T223 65Q223 31 206 16T151 0Z" />
<glyph unicode=";" glyph-name="semicolon" horiz-adv-x="318" d="M151 330Q114 330 97 345T80 395Q80 431 96 445T151 460Q189 460 206 446T223 395Q223 361 206 346T151 330ZM86 -138Q65 -144 62 -133T65 -109Q71 -101 81 -83T102 -43T115 3Q89 7 77 22T65 68Q65
103 81 117T136 132Q177 132 197 115T218 57Q218 28 206 -4T173 -64T130 -112T86 -138Z" />
<glyph unicode="&lt;" glyph-name="less" horiz-adv-x="640" d="M560 120V230L216 350L560 467V580L80 410V290L560 120Z" />
<glyph unicode="=" glyph-name="equal" horiz-adv-x="560" d="M559 319L80 320V421L559 420V319ZM559 395L80 396V497L559 496V395Z" />
<glyph unicode="&gt;" glyph-name="greater" horiz-adv-x="640" d="M80 120V230L424 350L80 467V580L560 410V290L80 120Z" />
<glyph unicode="?" glyph-name="question" horiz-adv-x="626" d="M205 210Q202 218 199 232T195 264Q195 304 219 324T295 344H357Q389 344 401 359T414 405V451Q413 477 400 489T355 501H270Q209 501 166 494T100 481L80 568Q103 582 152 590T280 598H373Q464
598 505 557T546 454V391Q546 327 508 292T404 257H329Q303 257 293 246T279 210H205ZM243 0Q206 0 189 15T172 65Q172 101 188 115T243 130Q281 130 298 116T315 65Q315 31 298 16T243 0Z" />
<glyph unicode="@" glyph-name="at" horiz-adv-x="939" d="M272 -100Q203 -100 161 -77T100 -16T80 68V420Q80 474 99 516T161 583T272 608H682Q768 608 813 563T859 440V183Q859 121 821 90T717 59H699Q645 59 617 83T589 149Q582 123 566 102T519 69T435 56H358Q315
56 293 78T270 135V352Q270 389 292 410T358 432Q381 432 417 431T492 427T562 422L623 452H663V196Q663 171 676 158T710 145H720Q746 145 757 158T768 196V428Q769 455 761 477T729 514T660 528H279Q235 528 211 514T179 478T170 428V80Q170 54 178 31T211 -6T279
-20H719L689 -90Q686 -93 673 -96T637 -100H272ZM422 145H452Q501 145 521 168T542 234V340H422Q404 340 398 334T391 310V176Q391 159 399 152T422 145Z" />
<glyph unicode="A" glyph-name="A" horiz-adv-x="782" d="M0 0L293 588H490L782 0H628L569 127H211L146 0H0ZM247 225H532L395 498H385L247 225Z" />
<glyph unicode="B" glyph-name="B" horiz-adv-x="796" d="M80 0V589H515Q609 589 652 552T695 461V431Q695 390 678 364T640 326Q684 312 710 278T736 187V169Q736 139 729 109T703 55T648 15T555 0H80ZM212 353H494Q529 352 546 370T563 417V427Q563 450 547
471T487 493H212V353ZM212 96H527Q565 96 584 115T604 167V185Q604 216 581 235T505 255H212V96Z" />
<glyph unicode="C" glyph-name="C" horiz-adv-x="755" d="M253 0Q182 0 142 20T86 80T70 179V402Q70 498 113 543T253 589H554Q623 589 659 582T696 566L676 483Q659 486 576 489T333 493H282Q202 493 202 422V167Q202 133 219 115T282 96H323Q489 96 580 99T694
107L735 41Q735 36 719 26T658 8T531 0H253Z" />
<glyph unicode="D" glyph-name="D" horiz-adv-x="806" d="M90 0V508L80 588H544Q625 588 668 568T729 509T746 410V179Q746 119 730 80T670 20T544 0H90ZM222 96H536Q613 96 614 167V422Q614 451 597 471T536 492H222V96Z" />
<glyph unicode="E" glyph-name="E" horiz-adv-x="766" d="M80 0V588H702V492H212V354H586V255H212V96H706L746 11Q746 7 719 4T626 0H80Z" />
<glyph unicode="F" glyph-name="F" horiz-adv-x="724" d="M90 0V508L80 588H704V492H222V346H596V247H222V0H90Z" />
<glyph unicode="G" glyph-name="G" horiz-adv-x="795" d="M253 0Q182 0 142 20T86 80T70 179V402Q70 498 113 543T253 589H554Q623 589 659 582T696 566L676 483Q659 486 576 489T333 493H282Q202 493 202 422V167Q202 133 219 115T282 96H323Q419 96 485 97T594
100V236L534 235L403 225V323H725V42L735 21Q735 13 693 7T551 0H253Z" />
<glyph unicode="H" glyph-name="H" horiz-adv-x="816" d="M80 0V588H212V344H604V588H736V0H604V248H212V0H80Z" />
<glyph unicode="I" glyph-name="I" horiz-adv-x="292" d="M80 0V588H212V0H80Z" />
<glyph unicode="J" glyph-name="J" horiz-adv-x="662" d="M272 0Q200 0 141 3T46 16T10 41L60 118Q89 105 140 101T277 96H373Q420 96 435 118T450 167V508L442 588H582V179Q582 129 570 88T519 24T401 0H272Z" />
<glyph unicode="K" glyph-name="K" horiz-adv-x="798" d="M707 -10Q658 -10 622 10T551 64Q513 104 459 156Q434 182 408 199T350 225T269 234H222V0H90V508L80 588H222V332H278Q298 332 311 337T335 353Q363 381 399 423T469 509T529 588H691L650 528Q622 499
590 465T527 399T471 342T434 306Q461 297 483 283T539 242Q564 222 587 201T642 151Q677 119 708 104T760 85T788 81L768 0Q765 -3 750 -6T707 -10Z" />
<glyph unicode="L" glyph-name="L" horiz-adv-x="686" d="M80 0L90 80V588H222V96H636L676 11Q676 7 649 4T556 0H80Z" />
<glyph unicode="M" glyph-name="M" horiz-adv-x="907" d="M90 0V508L80 588H232L458 188L692 588H827V0H695V373H684L645 286L519 60H398L272 286L232 373H222V0H90Z" />
<glyph unicode="N" glyph-name="N" horiz-adv-x="826" d="M90 0V508L80 588H224L564 232L603 178H614V588H746V0H619L271 362L232 409H222V0H90Z" />
<glyph unicode="O" glyph-name="O" horiz-adv-x="797" d="M253 0Q183 0 143 20T87 80T70 179V410Q70 468 86 507T142 567T253 588H545Q615 588 654 568T710 508T727 410V179Q727 91 688 46T545 0H253ZM282 96H517Q554 96 574 115T595 167V422Q595 451 574 471T517
492H282Q246 492 224 473T202 422V167Q202 133 223 115T282 96Z" />
<glyph unicode="P" glyph-name="P" horiz-adv-x="765" d="M90 0V508L80 589H523Q587 589 623 572T677 528T700 469T705 410V351Q705 328 698 300T672 245T617 201T523 183H421Q358 183 304 186T222 191V0H90ZM222 279H494Q539 279 556 301T573 354V417Q573 449
556 471T495 493H222V279Z" />
<glyph unicode="Q" glyph-name="Q" horiz-adv-x="806" d="M253 0Q183 0 143 20T87 80T70 179V410Q70 468 86 507T142 567T253 588H545Q615 588 654 568T710 508T727 410V279Q727 204 709 160T643 84Q614 65 544 38Q586 31 622 24T686 11Q719 5 753 1T814 -6T846
-10L824 -96Q820 -97 803 -100T757 -104Q714 -104 677 -96T594 -73Q554 -60 521 -47T451 -24T368 -7T253 0ZM282 96H406Q473 96 514 111T575 166T595 277V422Q595 451 574 471T517 492H282Q246 492 224 473T202 422V167Q202 133 223 115T282 96Z" />
<glyph unicode="R" glyph-name="R" horiz-adv-x="828" d="M719 -10Q679 -10 641 2T553 64L481 136Q437 181 385 202T253 223H222V0H90V508L80 589H523Q587 589 623 572T677 528T700 469T705 410V391Q705 369 699 342T676 289T628 245T545 224Q558 217 578 203T619
171T659 140T687 120Q723 99 751 91T797 82T818 81L798 0Q789 -3 768 -6T719 -10ZM372 314Q410 314 440 315T494 319Q538 324 555 343T573 394V417Q573 449 556 471T495 493H222V319Q266 316 303 315T372 314Z" />
<glyph unicode="S" glyph-name="S" horiz-adv-x="756" d="M192 0Q124 0 92 6T60 20L100 107Q123 103 214 100T466 96H485Q528 96 546 111T564 164V184Q564 219 550 234T485 249H253Q152 249 106 286T60 409V425Q60 469 76 506T133 565T243 588H515Q583 588 625
581T667 566L647 482Q621 485 529 488T282 492L271 493Q225 493 209 475T192 428V411Q192 378 210 362T272 345H494Q558 345 603 332T672 285T696 183V167Q696 92 658 46T524 0H192Z" />
<glyph unicode="T" glyph-name="T" horiz-adv-x="694" d="M281 0L280 493H20V589H674V493H413V0H281Z" />
<glyph unicode="U" glyph-name="U" horiz-adv-x="766" d="M228 -10Q137 -10 101 39T65 169V588H197V165Q197 118 220 102T277 86H489Q521 86 545 102T569 165V588H701V169Q701 115 686 75T636 13T539 -10H228Z" />
<glyph unicode="V" glyph-name="V" horiz-adv-x="736" d="M289 0L10 587H150L338 182L365 110H374L400 182L590 587H726L710 527L449 0H289Z" />
<glyph unicode="W" glyph-name="W" horiz-adv-x="1111" d="M225 0L10 587H150L291 203L314 106H324L337 174L470 587H640L779 174L797 106H807L830 203L961 587H1101L1091 527L885 0H715L579 393L559 457H549L530 393L395 0H225Z" />
<glyph unicode="X" glyph-name="X" horiz-adv-x="738" d="M10 0L48 60L270 294L10 588H170L363 367H374L568 588H728L689 529L468 294L728 0H568L374 223H363L170 0H10Z" />
<glyph unicode="Y" glyph-name="Y" horiz-adv-x="738" d="M301 0V244L10 588H170L318 401L364 339H374L420 401L568 588H728L689 528L433 240V0H301Z" />
<glyph unicode="Z" glyph-name="Z" horiz-adv-x="732" d="M50 0V97L494 492H50V588H671V492L218 96H666L706 11Q706 7 679 4T586 0H50Z" />
<glyph unicode="[" glyph-name="bracketleft" horiz-adv-x="373" d="M283 -100L293 -30H172V618H293L283 688H40V-100H283Z" />
<glyph unicode="\" glyph-name="backslash" horiz-adv-x="382" d="M362 -80L103 582L91 633H-40L219 -31L231 -80H362Z" />
<glyph unicode="]" glyph-name="bracketright" horiz-adv-x="413" d="M90 -100L80 -30H201V618H80L90 688H333V-100H90Z" />
<glyph unicode="^" glyph-name="asciicircum" horiz-adv-x="402" d="M53 370Q40 370 40 384Q40 391 52 416T83 475T120 537T150 582Q161 596 171 599T194 603H214Q225 603 236 600T257 582Q271 563 288 533T323 472T351 416T362 384Q362 371 349 371Q333 371 322
384Q317 390 298 412T253 465T204 521Q181 495 155 466T107 413T80 384Q66 370 53 370Z" />
<glyph unicode="_" glyph-name="underscore" horiz-adv-x="640" d="M80 -80V0H560V-80H80Z" />
<glyph unicode="`" glyph-name="grave" horiz-adv-x="230" d="M180 518Q180 531 171 554T149 601T130 637Q121 651 108 658T70 666H59Q20 666 20 637Q20 622 38 599T82 555T130 519Q146 509 163 504T180 518Z" />
<glyph unicode="a" glyph-name="a" horiz-adv-x="651" d="M189 0Q113 0 79 35T45 133Q45 198 80 233T189 268H240Q315 268 375 264T474 256V322Q474 331 472 340T460 356T426 362H376Q267 362 194 359T95 352L84 428Q84 442 160 445T414 448H464Q514 448 541 434T579
399T593 357T596 320V0H514L475 20Q433 13 374 7T239 0H189ZM215 86H444Q466 86 470 90T474 115V192H215Q188 192 178 179T167 138Q167 110 179 98T215 86Z" />
<glyph unicode="b" glyph-name="b" horiz-adv-x="650" d="M60 0V634H182V436Q225 441 283 444T417 448H468Q518 448 545 435T583 402T597 360T600 320V128Q600 113 598 92T584 49T545 14T468 0H417Q334 0 272 4T169 14L142 0H60ZM213 86H430Q478 86 478 126V322Q479
344 469 353T430 362H380Q316 362 267 360T182 354V117Q182 96 186 91T213 86Z" />
<glyph unicode="c" glyph-name="c" horiz-adv-x="590" d="M182 0Q132 0 105 13T67 46T53 88T50 128V320Q50 335 52 356T66 399T105 434T182 448H321Q446 448 498 442T551 428L531 352Q503 354 460 356T368 360T271 362H220Q172 362 172 322V126Q171 86 220 86H271Q325
86 376 87T471 91T540 96L580 31Q580 0 383 0H182Z" />
<glyph unicode="d" glyph-name="d" horiz-adv-x="660" d="M182 0Q132 0 105 13T67 46T53 88T50 128V320Q50 335 52 356T66 399T105 434T182 448H233Q325 448 381 445T468 437V634H590V0H508L469 20Q427 13 368 7T232 0H182ZM220 86H437Q458 86 463 91T468 116V355Q434
357 382 359T271 362H220Q172 362 172 322V126Q172 86 220 86Z" />
<glyph unicode="e" glyph-name="e" horiz-adv-x="620" d="M182 0Q132 0 105 13T67 46T53 88T50 128V320Q50 335 52 356T66 399T105 434T182 448H397Q463 448 500 436T553 395T569 320V172H394Q304 172 248 176T172 181V126Q171 86 220 86H271Q325 86 376 87T471
91T540 96L580 31Q580 0 383 0H182ZM172 258H447V322Q447 342 443 350T416 360T341 362H220Q172 362 172 322V258Z" />
<glyph unicode="f" glyph-name="f" horiz-adv-x="479" d="M82 0V362H20V447H82V536Q82 570 95 599T140 646T224 664H274Q394 664 446 653T499 634L469 558Q452 565 408 571T302 578H252Q227 578 216 569T204 538V447H412V362H204V0H82Z" />
<glyph unicode="g" glyph-name="g" horiz-adv-x="651" d="M389 -176Q279 -176 210 -174T104 -168T54 -158T40 -145L70 -70Q86 -75 126 -82T230 -90H401Q438 -90 453 -79T469 -40V20Q426 12 368 6T233 0H183Q133 0 106 13T68 46T54 88T51 128V320Q51 335 53 356T67
399T106 434T183 448H234Q339 448 397 444T483 435L509 448H591V-48Q591 -66 586 -88T564 -130T518 -163T439 -176H389ZM221 86H438Q461 86 465 90T469 116V355Q435 357 383 359T272 362H221Q173 362 173 322V126Q172 86 221 86Z" />
<glyph unicode="h" glyph-name="h" horiz-adv-x="655" d="M60 0V648H182V428Q224 436 283 442T418 448H468Q518 448 545 434T583 399T597 357T600 320V0H478V322Q478 362 430 362H212Q193 362 188 359T182 340V0H60Z" />
<glyph unicode="i" glyph-name="i" horiz-adv-x="263" d="M131 511Q94 511 77 526T60 576Q60 612 76 626T131 641Q169 641 186 627T203 576Q203 542 186 527T131 511ZM70 0V448H192V0H70Z" />
<glyph unicode="j" glyph-name="j" horiz-adv-x="275" d="M143 511Q106 511 89 526T72 577Q72 612 88 626T143 641Q181 641 198 627T215 577Q215 542 198 527T143 511ZM39 -176Q10 -176 -17 -172T-62 -160T-80 -146L-60 -86Q-48 -89 -26 -92T22 -96Q49 -96 65
-83T82 -30V448H204V-30Q204 -85 184 -117T129 -162T52 -176H39Z" />
<glyph unicode="k" glyph-name="k" horiz-adv-x="618" d="M539 -10Q497 -10 468 0T405 43Q402 46 389 59T361 88T332 117T315 134Q290 159 268 173T212 187Q190 187 186 183T182 156V0H60V633H182V273H214Q232 273 246 287Q255 296 280 323T336 384T394 447H541L525
416Q502 392 475 366T423 315T376 272T344 247Q374 231 398 211T450 165T517 107Q552 79 582 75T618 70L600 0Q590 -3 573 -6T539 -10Z" />
<glyph unicode="l" glyph-name="l" horiz-adv-x="252" d="M70 0V554L60 634H192V0H70Z" />
<glyph unicode="m" glyph-name="m" horiz-adv-x="913" d="M60 0V448H142L167 436Q196 441 238 444T338 448H388Q417 448 444 441T484 419Q510 432 556 440T676 448H726Q776 448 803 434T841 399T855 357T858 320V0H736V322Q736 362 688 362H548Q532 362 526 358T520
340V0H398V322Q398 362 350 362H212Q193 362 188 359T182 340V0H60Z" />
<glyph unicode="n" glyph-name="n" horiz-adv-x="655" d="M60 0V448H142L182 428Q224 436 283 442T418 448H468Q518 448 545 434T583 399T597 357T600 320V0H478V322Q478 362 430 362H212Q193 362 188 359T182 340V0H60Z" />
<glyph unicode="o" glyph-name="o" horiz-adv-x="640" d="M182 0Q115 0 83 27T50 115V320Q50 335 52 356T66 399T105 434T182 448H458Q508 448 535 434T573 399T587 357T590 320V128Q590 110 588 88T573 46T534 13T458 0H182ZM220 86H420Q469 86 469 126V322Q469
362 420 362H220Q172 362 172 322V126Q172 86 220 86Z" />
<glyph unicode="p" glyph-name="p" horiz-adv-x="650" d="M60 -186V448H142L167 435Q212 440 274 444T417 448H468Q518 448 545 435T583 402T597 360T600 320V128Q600 113 598 92T584 49T545 14T468 0H417Q341 0 282 4T182 12V-186H60ZM213 86H430Q449 86 463
96T478 126V322Q479 344 468 353T430 362H380Q316 362 267 360T182 354V117Q182 95 186 91T213 86Z" />
<glyph unicode="q" glyph-name="q" horiz-adv-x="650" d="M468 -186V20Q425 12 367 6T232 0H182Q132 0 105 13T67 46T53 88T50 128V320Q50 335 52 356T66 399T105 434T182 448H233Q339 448 397 444T483 435L508 448H590V-186H468ZM220 86H437Q459 86 463 90T468
116V355Q434 357 382 359T271 362H220Q191 362 182 352T172 322V126Q171 106 181 96T220 86Z" />
<glyph unicode="r" glyph-name="r" horiz-adv-x="501" d="M60 0V448H142L180 428Q206 442 236 450T312 458Q385 458 430 442T491 418L456 331Q444 337 417 346T352 364T271 372H260Q212 372 198 353T182 290V0H60Z" />
<glyph unicode="s" glyph-name="s" horiz-adv-x="638" d="M173 0Q106 0 78 7T50 21L80 96Q109 93 186 90T378 86H428Q453 86 459 99T466 136Q466 159 459 173T428 187H182Q112 187 81 213T50 293V333Q50 347 53 366T68 404T107 435T182 448H458Q518 448 543 441T568
427L558 352Q529 355 451 358T260 362H210Q185 362 179 349T172 317Q172 298 178 286T210 273H456Q524 273 556 245T588 174V115Q588 97 586 77T571 40T532 11T456 0H173Z" />
<glyph unicode="t" glyph-name="t" horiz-adv-x="452" d="M234 0Q158 0 130 32T102 128V362H20V448H62Q81 448 89 454T102 478L122 585H224V448H432V362H224V127Q224 102 236 94T272 86H413L423 10Q402 7 359 4T265 0H234Z" />
<glyph unicode="u" glyph-name="u" horiz-adv-x="640" d="M192 0Q143 0 116 13T77 46T63 88T60 128V448H182V126Q181 104 196 95T230 86H428Q450 86 454 90T458 116V448H580V0H498L460 20Q420 12 366 6T243 0H192Z" />
<glyph unicode="v" glyph-name="v" horiz-adv-x="590" d="M216 0L10 448H150L265 172L291 100H301L327 172L444 448H580L564 387L376 0H216Z" />
<glyph unicode="w" glyph-name="w" horiz-adv-x="861" d="M171 0L10 448H150L231 194L257 105H267L282 184L351 448H511L584 184L598 105H608L635 196L711 448H851L835 387L691 0H531L448 275L438 322H428L416 275L331 0H171Z" />
<glyph unicode="x" glyph-name="x" horiz-adv-x="580" d="M10 0L30 40L203 225L10 448H162L284 293H294L418 448H570L554 416L371 225L570 0H417L294 150H284L162 0H10Z" />
<glyph unicode="y" glyph-name="y" horiz-adv-x="591" d="M102 -196Q54 -196 14 -185T-40 -165L-10 -75Q7 -82 38 -91T110 -101H121Q167 -101 202 -74T257 0H207L11 448H151L266 172L292 100H302L328 172L445 448H581L565 387Q546 348 522 298T471 193T421 89T377
0Q348 -60 314 -104T235 -172T129 -196H102Z" />
<glyph unicode="z" glyph-name="z" horiz-adv-x="609" d="M40 0V60L363 361H60V448H550V388L218 86H559L589 11Q589 7 559 4T458 0H40Z" />
<glyph unicode="{" glyph-name="braceleft" horiz-adv-x="359" d="M308 -100L319 -30Q272 -30 256 -11T239 50V193Q239 272 178 304Q239 331 239 416V538Q239 582 258 600T319 618L308 688H247Q179 688 145 649T111 540V405Q111 368 93 351T40 334V274Q72 274
91 255T111 204V48Q111 -28 144 -64T247 -100H308Z" />
<glyph unicode="|" glyph-name="bar" horiz-adv-x="256" d="M80 -120V588H176V-120H80Z" />
<glyph unicode="}" glyph-name="braceright" horiz-adv-x="359" d="M51 -100L40 -30Q87 -30 103 -11T120 50V193Q120 272 181 304Q120 331 120 416V538Q120 582 101 600T40 618L51 688H112Q180 688 214 649T248 540V405Q248 368 266 351T319 334V274Q287 274 268
255T248 204V48Q248 -28 215 -64T112 -100H51Z" />
<glyph unicode="~" glyph-name="asciitilde" horiz-adv-x="402" d="M271 160Q243 160 223 170T186 195T155 219T120 230Q95 230 86 213T71 180Q67 168 57 164T39 165T30 189Q30 233 55 266T130 300Q158 300 177 290T212 265T244 241T282 230Q305 230 316 247T331
280Q335 293 344 297T363 296T372 271Q372 244 362 219T329 177T271 160Z" />
<glyph unicode="&#xa0;" glyph-name="uni00A0" horiz-adv-x="220" />
<glyph unicode="&#xa1;" glyph-name="exclamdown" horiz-adv-x="333" d="M167 328Q129 328 112 342T95 393Q95 428 112 443T167 458Q205 458 221 443T238 393Q238 357 222 343T167 328ZM120 -140Q93 -140 87 -126T80 -81Q80 -70 85 -36T97 47T113 149T130 248H202Q210
201 219 149T235 48T248 -35T253 -81Q253 -110 248 -125T213 -140H120Z" />
<glyph unicode="&#xa2;" glyph-name="cent" horiz-adv-x="603" d="M300 -60V0H182Q112 0 81 29T50 128V320Q50 380 78 414T182 448H300V510H380V447Q442 446 475 443T525 436T551 428L531 352Q510 354 469 356T380 360V88Q431 90 474 92T540 96L593 18Q568 8 516
4T380 0V-60H300ZM220 86H300V362H220Q172 362 172 322V126Q172 86 220 86Z" />
<glyph unicode="&#xa3;" glyph-name="sterling" horiz-adv-x="679" d="M84 0L134 96V246H60V342H134V402Q134 498 177 543T317 589H345Q434 589 481 582T528 566L508 483Q495 486 465 489T397 493H346Q266 493 266 422V342H410V246H266V167Q266 142 263 123T256
96H307Q436 96 515 99T618 107L659 21Q659 13 617 7T475 0H84Z" />
<glyph unicode="&#xa4;" glyph-name="currency" horiz-adv-x="679" d="M133 70L80 123L133 167Q119 189 113 219T106 286V292Q106 329 112 358T133 410L80 454L133 507L180 450Q222 470 289 470H391Q457 470 499 450L546 507L599 454L546 410Q560 388 566 359T573
292V286Q573 249 567 219T546 167L599 123L546 70L499 127Q457 107 391 107H289Q222 107 180 127L133 70ZM318 203H363Q400 203 420 222T441 274V304Q441 333 420 353T363 374H318Q282 374 260 355T238 304V274Q238 240 259 222T318 203Z" />
<glyph unicode="&#xa5;" glyph-name="yen" horiz-adv-x="758" d="M311 0V146H107V242H311V243L257 307H107V403H176L20 588H180L328 400L374 338H384L430 400L578 588H738L699 528L588 403H648V307H503L446 242H648V146H443V0H311Z" />
<glyph unicode="&#xa6;" glyph-name="brokenbar" horiz-adv-x="256" d="M80 300V588H176V300H80ZM80 -80V219H176V-80H80Z" />
<glyph unicode="&#xa7;" glyph-name="section" horiz-adv-x="569" d="M487 231L177 336Q129 353 106 377T83 460Q83 493 93 522T133 569T215 588H318Q386 588 428 581T470 566L450 482Q438 485 401 488T303 492H253Q232 492 224 484T215 462Q215 441 227 432T263
416Q285 410 317 401T383 381T441 362Q487 347 487 298V231ZM215 -80Q147 -80 115 -74T83 -60L123 27Q141 23 180 20T269 16H319Q357 16 357 48Q357 71 347 84T309 106Q296 110 263 120T191 142T121 166Q102 173 91 185T80 216V291Q119 278 165 263T257 232T338
205T393 187Q436 173 456 153T483 106T489 48Q489 20 481 -9T444 -59T357 -80H215Z" />
<glyph unicode="&#xa8;" glyph-name="dieresis" horiz-adv-x="413" d="M275 541Q244 541 230 553T216 595Q216 624 229 636T275 648Q306 648 320 636T334 595Q334 567 320 554T275 541ZM117 541Q86 541 72 553T58 595Q58 624 71 636T117 648Q148 648 162 636T176
595Q176 567 162 554T117 541Z" />
<glyph unicode="&#xa9;" glyph-name="copyright" horiz-adv-x="814" d="M329 157Q299 157 283 165T259 185T251 210T249 235V351Q249 360 250 373T259 399T283 420T329 429H414Q489 429 521 425T553 416L541 370Q524 372 498 373T442 375T383 376H352Q323 376
323 352V233Q323 209 352 209H383Q416 209 447 210T504 212T546 215L571 176Q571 157 451 157H329ZM242 0Q181 0 146 19T95 71T80 148V428Q80 508 115 548T242 588H568Q663 588 698 548T734 428V148Q734 81 695 41T568 0H242ZM242 60H568Q633 60 654 85T675 148V428Q675
475 654 501T568 528H242Q180 528 160 503T140 428V148Q140 108 160 84T242 60Z" />
<glyph unicode="&#xaa;" glyph-name="ordfeminine" horiz-adv-x="375" d="M117 330Q79 330 62 348T45 397Q45 429 62 446T117 464H142Q180 464 210 462T259 458V491Q259 496 258 500T252 508T235 511H210Q156 511 120 510T70 506L64 544Q64 551 102 552T229 554H254Q279
554 292 547T312 530T319 509T320 490V330H279L260 340Q239 337 210 334T142 330H117ZM130 373H244Q255 373 257 375T259 388V426H130Q116 426 111 420T106 399Q106 385 112 379T130 373Z" />
<glyph unicode="&#xab;" glyph-name="guillemotleft" horiz-adv-x="738" d="M388 0L216 241L388 480H252L80 241L252 0H388ZM658 0L486 241L658 480H522L350 241L522 0H658Z" />
<glyph unicode="&#xac;" glyph-name="logicalnot" horiz-adv-x="600" d="M474 250V350H30V446H570V250H474Z" />
<glyph unicode="&#xad;" glyph-name="uni00AD" horiz-adv-x="480" d="M80 220V336H400V220H80Z" />
<glyph unicode="&#xae;" glyph-name="registered" horiz-adv-x="487" d="M314 402Q305 402 297 404T277 418L261 434Q251 444 240 449T210 454H203V404H174V517L172 535H270Q284 535 292 531T304 521T309 508T311 495V491Q311 486 310 480T304 468T293 458T275
454Q278 452 282 449T291 442T300 435T307 431Q315 426 321 424T331 422T336 422L331 404Q329 403 325 403T314 402ZM237 474Q245 474 251 474T264 475Q274 476 277 480T281 492V497Q281 504 278 509T264 514H203V475Q213 474 221 474T237 474ZM161 324Q131 324
113 333T88 360T80 398V538Q80 578 98 598T161 618H324Q372 618 389 598T407 538V398Q407 365 388 345T324 324H161ZM161 354H324Q357 354 367 366T378 398V538Q378 562 368 575T324 588H161Q130 588 120 576T110 538V398Q110 378 120 366T161 354Z" />
<glyph unicode="&#xaf;" glyph-name="overscore" horiz-adv-x="332" d="M70 540Q50 540 40 546T30 573V579Q30 599 39 604T70 610H262Q282 610 292 605T302 579V573Q302 553 291 547T262 540H70Z" />
<glyph unicode="&#xb0;" glyph-name="degree" horiz-adv-x="460" d="M230 470Q189 470 155 490T101 545T80 620Q80 662 100 696T155 750T230 770Q272 770 306 750T360 696T380 620Q380 579 360 545T306 491T230 470ZM230 550Q259 550 279 571T300 620Q300 649
280 669T230 690Q202 690 181 670T160 620Q160 592 181 571T230 550Z" />
<glyph unicode="&#xb1;" glyph-name="plusminus" horiz-adv-x="641" d="M271 130V320H80V420H271V610H371V420H561V320H371V130H271ZM559 -21L80 -20V81L559 80V-21Z" />
<glyph unicode="&#xb2;" glyph-name="uni00B2" horiz-adv-x="348" d="M40 232V281Q49 286 66 297T104 321T148 349T188 376T218 398Q234 410 240 422T247 445V455Q247 468 237 476T204 484H189Q160 484 131 482T79 478T45 474L40 519Q54 522 78 525T135 530T202
532H216Q248 532 267 525T296 506T309 481T313 454V443Q313 417 296 392T240 346Q198 323 170 307T128 284V280H328V232H40Z" />
<glyph unicode="&#xb3;" glyph-name="uni00B3" horiz-adv-x="390" d="M136 232Q99 232 79 235T51 242T40 247L60 286Q63 285 72 284T99 283T150 281T231 280Q249 280 258 285T271 298T275 316V328Q275 341 268 349T240 358H98V402H215Q238 402 248 411T259 435V450Q259
464 251 473T220 483H206Q180 483 152 482T98 478T58 473L53 519Q62 520 86 523T145 528T220 531H234Q265 531 283 524T310 505T322 480T325 453V444Q325 422 315 410T295 391Q317 384 329 368T341 329V317Q341 302 337 287T322 260T290 240T235 232H136Z" />
<glyph unicode="&#xb4;" glyph-name="acute" horiz-adv-x="230" d="M-60 518Q-60 531 -51 554T-29 601T-10 637Q-1 651 12 658T50 666H61Q100 666 100 637Q100 622 82 599T38 555T-10 519Q-26 509 -43 504T-60 518Z" />
<glyph unicode="&#xb5;" glyph-name="uni00B5" horiz-adv-x="620" d="M192 0Q152 0 124 10Q139 -30 149 -64T159 -131Q159 -162 149 -176T109 -191Q82 -191 72 -172T61 -120V97Q60 105 60 113T60 128V448H182V126Q181 104 196 95T230 86H428Q450 86 454 90T458
116V448H580V0H498L460 20Q420 12 366 6T243 0H192Z" />
<glyph unicode="&#xb6;" glyph-name="paragraph" horiz-adv-x="686" d="M195 -80V302Q140 302 110 328T80 420V470Q80 525 107 556T195 588H606L586 492V-80H454V492H327V-80H195Z" />
<glyph unicode="&#xb7;" glyph-name="middot" horiz-adv-x="303" d="M151 220Q114 220 97 235T80 285Q80 321 96 335T151 350Q189 350 206 336T223 285Q223 251 206 236T151 220Z" />
<glyph unicode="&#xb8;" glyph-name="cedilla" horiz-adv-x="222" d="M116 -220Q73 -220 45 -203T5 -167Q0 -159 0 -150Q0 -142 6 -137T22 -135Q41 -140 61 -145T108 -150Q157 -150 157 -119Q157 -97 128 -91T60 -85Q66 -67 78 -43T102 0Q114 18 129 18Q144 18
141 0Q138 -15 136 -27T131 -50Q175 -54 198 -75T222 -135Q222 -171 194 -195T116 -220Z" />
<glyph unicode="&#xb9;" glyph-name="uni00B9" horiz-adv-x="229" d="M84 232V478L24 474L20 516L150 531V232H84Z" />
<glyph unicode="&#xba;" glyph-name="ordmasculine" horiz-adv-x="370" d="M116 330Q83 330 67 343T50 388V490Q50 498 51 508T58 529T78 547T116 554H254Q279 554 292 547T312 530T319 509T320 490V394Q320 385 319 374T312 353T293 337T254 330H116ZM135 373H235Q260
373 260 393V491Q260 511 235 511H135Q111 511 111 491V393Q111 373 135 373Z" />
<glyph unicode="&#xbb;" glyph-name="guillemotright" horiz-adv-x="738" d="M350 0L522 241L350 480H486L658 241L486 0H350ZM80 0L252 241L80 480H216L388 241L216 0H80Z" />
<glyph unicode="&#xbc;" glyph-name="onequarter" horiz-adv-x="893" d="M84 285V531L24 527L20 569L150 584V285H84ZM119 -80L536 588H609L191 -80H119ZM956 0V54H760V103L930 294H1022V102H1089V54H1022V0H956ZM842 102H956V233H951L842 107V102Z" />
<glyph unicode="&#xbd;" glyph-name="onehalf" horiz-adv-x="817" d="M84 285V531L24 527L20 569L150 584V285H84ZM119 -80L536 588H609L191 -80H119ZM519 0V49Q528 54 545 65T583 89T627 117T667 144T697 166Q713 178 719 190T726 213V223Q726 236 716 244T683
252H668Q639 252 610 250T558 246T524 242L519 287Q533 290 557 293T614 298T681 300H695Q727 300 746 293T775 274T788 249T792 222V211Q792 185 775 160T719 114Q677 91 649 75T607 52V48H807V0H519Z" />
<glyph unicode="&#xbe;" glyph-name="threequarters" horiz-adv-x="1010" d="M116 290Q79 290 59 293T31 300T20 305L40 344Q43 343 52 342T79 341T130 339T211 338Q229 338 238 343T251 356T255 374V386Q255 399 248 407T220 416H78V460H195Q218 460 228 469T239
493V508Q239 522 231 531T200 541H186Q160 541 132 540T78 536T38 531L33 577Q42 578 66 581T125 586T200 589H214Q245 589 263 582T290 563T302 538T305 511V502Q305 480 295 468T275 449Q297 442 309 426T321 387V375Q321 360 317 345T302 318T270 298T215 290H116ZM236
-80L653 588H726L308 -80H236ZM1073 0V54H877V103L1047 294H1139V102H1206V54H1139V0H1073ZM959 102H1073V233H1068L959 107V102Z" />
<glyph unicode="&#xbf;" glyph-name="questiondown" horiz-adv-x="627" d="M384 328Q346 328 329 342T312 393Q312 428 329 443T384 458Q422 458 438 443T455 393Q455 357 439 343T384 328ZM254 -140Q163 -140 122 -99T80 4V67Q80 132 118 166T223 201H298Q324
201 334 212T348 248H422Q425 241 428 226T432 194Q432 154 409 134T332 114H270Q238 114 226 100T213 53V7Q213 -19 226 -31T272 -43H357Q419 -43 461 -36T527 -23L547 -110Q524 -124 475 -132T347 -140H254Z" />
<glyph unicode="&#xc0;" glyph-name="Agrave" horiz-adv-x="782" d="M0 0L293 588H490L782 0H628L569 127H211L146 0H0ZM247 225H532L395 498H385L247 225ZM457 658Q457 671 448 694T426 741T407 777Q398 791 385 798T347 806H336Q297 806 297 777Q297 762 315
739T359 695T407 659Q423 649 440 644T457 658Z" />
<glyph unicode="&#xc1;" glyph-name="Aacute" horiz-adv-x="782" d="M0 0L293 588H490L782 0H628L569 127H211L146 0H0ZM247 225H532L395 498H385L247 225ZM357 658Q357 671 366 694T388 741T407 777Q416 791 429 798T467 806H478Q517 806 517 777Q517 762 499
739T455 695T407 659Q391 649 374 644T357 658Z" />
<glyph unicode="&#xc2;" glyph-name="Acircumflex" horiz-adv-x="782" d="M0 0L293 588H490L782 0H628L569 127H211L146 0H0ZM247 225H532L395 498H385L247 225ZM248 666Q248 675 263 695T296 735T325 764Q338 776 349 781T377 786H407Q425 786 437 779T457 763Q468
752 485 732T515 692T529 666Q529 655 514 654T479 666L392 724L298 666Q248 635 248 666Z" />
<glyph unicode="&#xc3;" glyph-name="Atilde" horiz-adv-x="782" d="M0 0L293 588H490L782 0H628L569 127H211L146 0H0ZM247 225H532L395 498H385L247 225ZM462 640Q434 640 414 650T377 675T346 699T311 710Q286 710 277 693T262 660Q258 648 248 644T230 645T221
669Q221 713 246 746T321 780Q349 780 368 770T403 745T435 721T473 710Q496 710 507 727T522 760Q526 773 535 777T554 776T563 751Q563 724 553 699T520 657T462 640Z" />
<glyph unicode="&#xc4;" glyph-name="Adieresis" horiz-adv-x="782" d="M0 0L293 588H490L782 0H628L569 127H211L146 0H0ZM247 225H532L395 498H385L247 225ZM471 651Q440 651 426 663T412 705Q412 734 425 746T471 758Q502 758 516 746T530 705Q530 677 516
664T471 651ZM313 651Q282 651 268 663T254 705Q254 734 267 746T313 758Q344 758 358 746T372 705Q372 677 358 664T313 651Z" />
<glyph unicode="&#xc5;" glyph-name="Aring" horiz-adv-x="782" d="M0 0L293 588H490L782 0H628L569 127H211L146 0H0ZM247 225H532L395 498H385L247 225ZM368 650Q324 650 302 662T273 694T266 738V749Q266 769 272 789T300 823T368 837H415Q459 837 481 824T510
790T517 749V738Q517 714 510 694T481 662T415 650H368ZM367 716H415Q426 716 430 722T435 736V750Q435 757 431 763T415 770H367Q355 770 351 764T347 750V736Q346 729 350 723T367 716Z" />
<glyph unicode="&#xc6;" glyph-name="AE" horiz-adv-x="1196" d="M10 0L282 588H1132V492H642V354H1016V255H642V96H1136L1176 11Q1176 7 1149 4T1056 0H510V137H218L156 0H10ZM252 225H510V508H374L252 225Z" />
<glyph unicode="&#xc7;" glyph-name="Ccedilla" horiz-adv-x="755" d="M253 0Q182 0 142 20T86 80T70 179V402Q70 498 113 543T253 589H554Q623 589 659 582T696 566L676 483Q659 486 576 489T333 493H282Q202 493 202 422V167Q202 133 219 115T282 96H323Q489
96 580 99T694 107L735 41Q735 36 719 26T658 8T531 0H253ZM418 -220Q375 -220 347 -203T307 -167Q302 -159 302 -150Q302 -142 308 -137T324 -135Q343 -140 363 -145T410 -150Q459 -150 459 -119Q459 -97 430 -91T362 -85Q368 -67 380 -43T404 0Q416 18 431 18Q446
18 443 0Q440 -15 438 -27T433 -50Q477 -54 500 -75T524 -135Q524 -171 496 -195T418 -220Z" />
<glyph unicode="&#xc8;" glyph-name="Egrave" horiz-adv-x="766" d="M80 0V588H702V492H212V354H586V255H212V96H706L746 11Q746 7 719 4T626 0H80ZM468 658Q468 671 459 694T437 741T418 777Q409 791 396 798T358 806H347Q308 806 308 777Q308 762 326 739T370
695T418 659Q434 649 451 644T468 658Z" />
<glyph unicode="&#xc9;" glyph-name="Eacute" horiz-adv-x="766" d="M80 0V588H702V492H212V354H586V255H212V96H706L746 11Q746 7 719 4T626 0H80ZM368 658Q368 671 377 694T399 741T418 777Q427 791 440 798T478 806H489Q528 806 528 777Q528 762 510 739T466
695T418 659Q402 649 385 644T368 658Z" />
<glyph unicode="&#xca;" glyph-name="Ecircumflex" horiz-adv-x="766" d="M80 0V588H702V492H212V354H586V255H212V96H706L746 11Q746 7 719 4T626 0H80ZM259 666Q259 675 274 695T307 735T336 764Q349 776 360 781T388 786H418Q436 786 448 779T468 763Q479 752
496 732T526 692T540 666Q540 655 525 654T490 666L403 724L309 666Q259 635 259 666Z" />
<glyph unicode="&#xcb;" glyph-name="Edieresis" horiz-adv-x="766" d="M80 0V588H702V492H212V354H586V255H212V96H706L746 11Q746 7 719 4T626 0H80ZM482 651Q451 651 437 663T423 705Q423 734 436 746T482 758Q513 758 527 746T541 705Q541 677 527 664T482
651ZM324 651Q293 651 279 663T265 705Q265 734 278 746T324 758Q355 758 369 746T383 705Q383 677 369 664T324 651Z" />
<glyph unicode="&#xcc;" glyph-name="Igrave" horiz-adv-x="292" d="M80 0V588H212V0H80ZM211 658Q211 671 202 694T180 741T161 777Q152 791 139 798T101 806H90Q51 806 51 777Q51 762 69 739T113 695T161 659Q177 649 194 644T211 658Z" />
<glyph unicode="&#xcd;" glyph-name="Iacute" horiz-adv-x="292" d="M80 0V588H212V0H80ZM111 658Q111 671 120 694T142 741T161 777Q170 791 183 798T221 806H232Q271 806 271 777Q271 762 253 739T209 695T161 659Q145 649 128 644T111 658Z" />
<glyph unicode="&#xce;" glyph-name="Icircumflex" horiz-adv-x="292" d="M80 0V588H212V0H80ZM2 666Q2 675 17 695T50 735T79 764Q92 776 103 781T131 786H161Q179 786 191 779T211 763Q222 752 239 732T269 692T283 666Q283 655 268 654T233 666L146 724L52
666Q2 635 2 666Z" />
<glyph unicode="&#xcf;" glyph-name="Idieresis" horiz-adv-x="292" d="M80 0V588H212V0H80ZM225 651Q194 651 180 663T166 705Q166 734 179 746T225 758Q256 758 270 746T284 705Q284 677 270 664T225 651ZM67 651Q36 651 22 663T8 705Q8 734 21 746T67 758Q98
758 112 746T126 705Q126 677 112 664T67 651Z" />
<glyph unicode="&#xd0;" glyph-name="Eth" horiz-adv-x="806" d="M90 0V508L80 588H544Q625 588 668 568T729 509T746 410V179Q746 119 730 80T670 20T544 0H90ZM222 96H536Q613 96 614 167V422Q614 451 597 471T536 492H222V96ZM-2 256V331H410V256H-2Z" />
<glyph unicode="&#xd1;" glyph-name="Ntilde" horiz-adv-x="826" d="M90 0V508L80 588H224L564 232L603 178H614V588H746V0H619L271 362L232 409H222V0H90ZM483 640Q455 640 435 650T398 675T367 699T332 710Q307 710 298 693T283 660Q279 648 269 644T251 645T242
669Q242 713 267 746T342 780Q370 780 389 770T424 745T456 721T494 710Q517 710 528 727T543 760Q547 773 556 777T575 776T584 751Q584 724 574 699T541 657T483 640Z" />
<glyph unicode="&#xd2;" glyph-name="Ograve" horiz-adv-x="797" d="M253 0Q183 0 143 20T87 80T70 179V410Q70 468 86 507T142 567T253 588H545Q615 588 654 568T710 508T727 410V179Q727 91 688 46T545 0H253ZM282 96H517Q554 96 574 115T595 167V422Q595 451
574 471T517 492H282Q246 492 224 473T202 422V167Q202 133 223 115T282 96ZM464 658Q464 671 455 694T433 741T414 777Q405 791 392 798T354 806H343Q304 806 304 777Q304 762 322 739T366 695T414 659Q430 649 447 644T464 658Z" />
<glyph unicode="&#xd3;" glyph-name="Oacute" horiz-adv-x="797" d="M253 0Q183 0 143 20T87 80T70 179V410Q70 468 86 507T142 567T253 588H545Q615 588 654 568T710 508T727 410V179Q727 91 688 46T545 0H253ZM282 96H517Q554 96 574 115T595 167V422Q595 451
574 471T517 492H282Q246 492 224 473T202 422V167Q202 133 223 115T282 96ZM364 658Q364 671 373 694T395 741T414 777Q423 791 436 798T474 806H485Q524 806 524 777Q524 762 506 739T462 695T414 659Q398 649 381 644T364 658Z" />
<glyph unicode="&#xd4;" glyph-name="Ocircumflex" horiz-adv-x="797" d="M253 0Q183 0 143 20T87 80T70 179V410Q70 468 86 507T142 567T253 588H545Q615 588 654 568T710 508T727 410V179Q727 91 688 46T545 0H253ZM282 96H517Q554 96 574 115T595 167V422Q595
451 574 471T517 492H282Q246 492 224 473T202 422V167Q202 133 223 115T282 96ZM255 666Q255 675 270 695T303 735T332 764Q345 776 356 781T384 786H414Q432 786 444 779T464 763Q475 752 492 732T522 692T536 666Q536 655 521 654T486 666L399 724L305 666Q255
635 255 666Z" />
<glyph unicode="&#xd5;" glyph-name="Otilde" horiz-adv-x="797" d="M253 0Q183 0 143 20T87 80T70 179V410Q70 468 86 507T142 567T253 588H545Q615 588 654 568T710 508T727 410V179Q727 91 688 46T545 0H253ZM282 96H517Q554 96 574 115T595 167V422Q595 451
574 471T517 492H282Q246 492 224 473T202 422V167Q202 133 223 115T282 96ZM469 640Q441 640 421 650T384 675T353 699T318 710Q293 710 284 693T269 660Q265 648 255 644T237 645T228 669Q228 713 253 746T328 780Q356 780 375 770T410 745T442 721T480 710Q503
710 514 727T529 760Q533 773 542 777T561 776T570 751Q570 724 560 699T527 657T469 640Z" />
<glyph unicode="&#xd6;" glyph-name="Odieresis" horiz-adv-x="797" d="M253 0Q183 0 143 20T87 80T70 179V410Q70 468 86 507T142 567T253 588H545Q615 588 654 568T710 508T727 410V179Q727 91 688 46T545 0H253ZM282 96H517Q554 96 574 115T595 167V422Q595
451 574 471T517 492H282Q246 492 224 473T202 422V167Q202 133 223 115T282 96ZM478 651Q447 651 433 663T419 705Q419 734 432 746T478 758Q509 758 523 746T537 705Q537 677 523 664T478 651ZM320 651Q289 651 275 663T261 705Q261 734 274 746T320 758Q351
758 365 746T379 705Q379 677 365 664T320 651Z" />
<glyph unicode="&#xd7;" glyph-name="multiply" horiz-adv-x="627" d="M151 40L80 111L243 274L80 437L151 507L314 345L476 507L547 436L385 274L547 111L477 40L314 203L151 40Z" />
<glyph unicode="&#xd8;" glyph-name="Oslash" horiz-adv-x="797" d="M253 0Q183 0 143 20T87 80T70 179V410Q70 468 86 507T142 567T253 588H545Q615 588 654 568T710 508T727 410V179Q727 91 688 46T545 0H253ZM282 96H517Q554 96 574 115T595 167V422Q595 451
574 471T517 492H282Q246 492 224 473T202 422V167Q202 133 223 115T282 96ZM146 -45L563 623H653L235 -45H146Z" />
<glyph unicode="&#xd9;" glyph-name="Ugrave" horiz-adv-x="766" d="M228 -10Q137 -10 101 39T65 169V588H197V165Q197 118 220 102T277 86H489Q521 86 545 102T569 165V588H701V169Q701 115 686 75T636 13T539 -10H228ZM450 648Q450 661 441 684T419 731T400
767Q391 781 378 788T340 796H329Q290 796 290 767Q290 752 308 729T352 685T400 649Q416 639 433 634T450 648Z" />
<glyph unicode="&#xda;" glyph-name="Uacute" horiz-adv-x="766" d="M228 -10Q137 -10 101 39T65 169V588H197V165Q197 118 220 102T277 86H489Q521 86 545 102T569 165V588H701V169Q701 115 686 75T636 13T539 -10H228ZM350 648Q350 661 359 684T381 731T400
767Q409 781 422 788T460 796H471Q510 796 510 767Q510 752 492 729T448 685T400 649Q384 639 367 634T350 648Z" />
<glyph unicode="&#xdb;" glyph-name="Ucircumflex" horiz-adv-x="766" d="M228 -10Q137 -10 101 39T65 169V588H197V165Q197 118 220 102T277 86H489Q521 86 545 102T569 165V588H701V169Q701 115 686 75T636 13T539 -10H228ZM241 656Q241 665 256 685T289 725T318
754Q331 766 342 771T370 776H400Q418 776 430 769T450 753Q461 742 478 722T508 682T522 656Q522 645 507 644T472 656L385 714L291 656Q241 625 241 656Z" />
<glyph unicode="&#xdc;" glyph-name="Udieresis" horiz-adv-x="766" d="M228 -10Q137 -10 101 39T65 169V588H197V165Q197 118 220 102T277 86H489Q521 86 545 102T569 165V588H701V169Q701 115 686 75T636 13T539 -10H228ZM464 641Q433 641 419 653T405 695Q405
724 418 736T464 748Q495 748 509 736T523 695Q523 667 509 654T464 641ZM306 641Q275 641 261 653T247 695Q247 724 260 736T306 748Q337 748 351 736T365 695Q365 667 351 654T306 641Z" />
<glyph unicode="&#xdd;" glyph-name="Yacute" horiz-adv-x="738" d="M301 0V244L10 588H170L318 401L364 339H374L420 401L568 588H728L689 528L433 240V0H301ZM334 658Q334 671 343 694T365 741T384 777Q393 791 406 798T444 806H455Q494 806 494 777Q494 762
476 739T432 695T384 659Q368 649 351 644T334 658Z" />
<glyph unicode="&#xde;" glyph-name="Thorn" horiz-adv-x="765" d="M90 0V549L80 629H222V509H573Q623 509 650 495T688 460T702 418T705 381V271Q705 253 703 231T688 189T649 156T573 143H421Q358 143 304 146T222 151V0H90ZM222 239H525Q543 239 558 249T573
279V373Q573 393 558 403T525 413H222V239Z" />
<glyph unicode="&#xdf;" glyph-name="germandbls" horiz-adv-x="691" d="M90 0V358H40V448H90V540Q90 558 94 581T113 625T158 661T243 675H373Q438 675 470 657T514 612T525 557V554Q525 516 504 485T461 423Q421 367 421 349Q421 323 459 323H509Q583 323 612
293T641 214V115Q641 97 639 77T624 40T585 11T509 0H413Q346 0 318 7T290 21L320 96Q343 93 382 90T461 86H481Q506 86 512 97T519 131V191Q519 227 481 227H421Q367 227 338 251T309 320V325Q309 361 323 389T356 448Q377 483 390 504T403 549Q403 589 355 589H250Q225
589 219 572T212 544V0H90Z" />
<glyph unicode="&#xe0;" glyph-name="agrave" horiz-adv-x="651" d="M189 0Q113 0 79 35T45 133Q45 198 80 233T189 268H240Q315 268 375 264T474 256V322Q474 331 472 340T460 356T426 362H376Q267 362 194 359T95 352L84 428Q84 442 160 445T414 448H464Q514
448 541 434T579 399T593 357T596 320V0H514L475 20Q433 13 374 7T239 0H189ZM215 86H444Q466 86 470 90T474 115V192H215Q188 192 178 179T167 138Q167 110 179 98T215 86ZM411 518Q411 531 402 554T380 601T361 637Q352 651 339 658T301 666H290Q251 666 251
637Q251 622 269 599T313 555T361 519Q377 509 394 504T411 518Z" />
<glyph unicode="&#xe1;" glyph-name="aacute" horiz-adv-x="651" d="M189 0Q113 0 79 35T45 133Q45 198 80 233T189 268H240Q315 268 375 264T474 256V322Q474 331 472 340T460 356T426 362H376Q267 362 194 359T95 352L84 428Q84 442 160 445T414 448H464Q514
448 541 434T579 399T593 357T596 320V0H514L475 20Q433 13 374 7T239 0H189ZM215 86H444Q466 86 470 90T474 115V192H215Q188 192 178 179T167 138Q167 110 179 98T215 86ZM311 518Q311 531 320 554T342 601T361 637Q370 651 383 658T421 666H432Q471 666 471
637Q471 622 453 599T409 555T361 519Q345 509 328 504T311 518Z" />
<glyph unicode="&#xe2;" glyph-name="acircumflex" horiz-adv-x="651" d="M189 0Q113 0 79 35T45 133Q45 198 80 233T189 268H240Q315 268 375 264T474 256V322Q474 331 472 340T460 356T426 362H376Q267 362 194 359T95 352L84 428Q84 442 160 445T414 448H464Q514
448 541 434T579 399T593 357T596 320V0H514L475 20Q433 13 374 7T239 0H189ZM215 86H444Q466 86 470 90T474 115V192H215Q188 192 178 179T167 138Q167 110 179 98T215 86ZM202 526Q202 535 217 555T250 595T279 624Q292 636 303 641T331 646H361Q379 646 391
639T411 623Q422 612 439 592T469 552T483 526Q483 515 468 514T433 526L346 584L252 526Q202 495 202 526Z" />
<glyph unicode="&#xe3;" glyph-name="atilde" horiz-adv-x="651" d="M189 0Q113 0 79 35T45 133Q45 198 80 233T189 268H240Q315 268 375 264T474 256V322Q474 331 472 340T460 356T426 362H376Q267 362 194 359T95 352L84 428Q84 442 160 445T414 448H464Q514
448 541 434T579 399T593 357T596 320V0H514L475 20Q433 13 374 7T239 0H189ZM215 86H444Q466 86 470 90T474 115V192H215Q188 192 178 179T167 138Q167 110 179 98T215 86ZM416 500Q388 500 368 510T331 535T300 559T265 570Q240 570 231 553T216 520Q212 508
202 504T184 505T175 529Q175 573 200 606T275 640Q303 640 322 630T357 605T389 581T427 570Q450 570 461 587T476 620Q480 633 489 637T508 636T517 611Q517 584 507 559T474 517T416 500Z" />
<glyph unicode="&#xe4;" glyph-name="adieresis" horiz-adv-x="651" d="M189 0Q113 0 79 35T45 133Q45 198 80 233T189 268H240Q315 268 375 264T474 256V322Q474 331 472 340T460 356T426 362H376Q267 362 194 359T95 352L84 428Q84 442 160 445T414 448H464Q514
448 541 434T579 399T593 357T596 320V0H514L475 20Q433 13 374 7T239 0H189ZM215 86H444Q466 86 470 90T474 115V192H215Q188 192 178 179T167 138Q167 110 179 98T215 86ZM425 511Q394 511 380 523T366 565Q366 594 379 606T425 618Q456 618 470 606T484 565Q484
537 470 524T425 511ZM267 511Q236 511 222 523T208 565Q208 594 221 606T267 618Q298 618 312 606T326 565Q326 537 312 524T267 511Z" />
<glyph unicode="&#xe5;" glyph-name="aring" horiz-adv-x="651" d="M189 0Q113 0 79 35T45 133Q45 198 80 233T189 268H240Q315 268 375 264T474 256V322Q474 331 472 340T460 356T426 362H376Q267 362 194 359T95 352L84 428Q84 442 160 445T414 448H464Q514
448 541 434T579 399T593 357T596 320V0H514L475 20Q433 13 374 7T239 0H189ZM215 86H444Q466 86 470 90T474 115V192H215Q188 192 178 179T167 138Q167 110 179 98T215 86ZM322 510Q278 510 256 522T227 554T220 598V609Q220 629 226 649T254 683T322 697H369Q413
697 435 684T464 650T471 609V598Q471 574 464 554T435 522T369 510H322ZM321 576H369Q380 576 384 582T389 596V610Q389 617 385 623T369 630H321Q309 630 305 624T301 610V596Q300 589 304 583T321 576Z" />
<glyph unicode="&#xe6;" glyph-name="ae" horiz-adv-x="1044" d="M189 0Q113 0 79 35T45 133Q45 198 80 233T189 268H240Q290 268 338 266T423 257T474 235V272Q474 315 440 338T326 362H306Q234 362 178 359T95 352L83 431Q100 438 151 443T294 448H326Q377 448
420 438T496 407Q509 424 535 436T606 448H821Q887 448 924 436T977 395T993 320V172H818Q728 172 672 176T596 181V126Q595 86 644 86H695Q749 86 800 87T895 91T964 96L1004 31Q1004 0 807 0H606Q569 0 545 7T506 28Q457 13 388 7T239 0H189ZM596 258H871V322Q871
342 867 350T840 360T765 362H644Q596 362 596 322V258ZM214 86H413Q442 86 457 90T473 115V132Q473 158 445 175T342 192H214Q187 192 177 179T166 138Q166 110 178 98T214 86Z" />
<glyph unicode="&#xe7;" glyph-name="ccedilla" horiz-adv-x="590" d="M182 0Q132 0 105 13T67 46T53 88T50 128V320Q50 335 52 356T66 399T105 434T182 448H321Q446 448 498 442T551 428L531 352Q503 354 460 356T368 360T271 362H220Q172 362 172 322V126Q171
86 220 86H271Q325 86 376 87T471 91T540 96L580 31Q580 0 383 0H182ZM295 -220Q252 -220 224 -203T184 -167Q179 -159 179 -150Q179 -142 185 -137T201 -135Q220 -140 240 -145T287 -150Q336 -150 336 -119Q336 -97 307 -91T239 -85Q245 -67 257 -43T281 0Q293
18 308 18Q323 18 320 0Q317 -15 315 -27T310 -50Q354 -54 377 -75T401 -135Q401 -171 373 -195T295 -220Z" />
<glyph unicode="&#xe8;" glyph-name="egrave" horiz-adv-x="620" d="M182 0Q132 0 105 13T67 46T53 88T50 128V320Q50 335 52 356T66 399T105 434T182 448H397Q463 448 500 436T553 395T569 320V172H394Q304 172 248 176T172 181V126Q171 86 220 86H271Q325 86
376 87T471 91T540 96L580 31Q580 0 383 0H182ZM172 258H447V322Q447 342 443 350T416 360T341 362H220Q172 362 172 322V258ZM380 518Q380 531 371 554T349 601T330 637Q321 651 308 658T270 666H259Q220 666 220 637Q220 622 238 599T282 555T330 519Q346 509
363 504T380 518Z" />
<glyph unicode="&#xe9;" glyph-name="eacute" horiz-adv-x="620" d="M182 0Q132 0 105 13T67 46T53 88T50 128V320Q50 335 52 356T66 399T105 434T182 448H397Q463 448 500 436T553 395T569 320V172H394Q304 172 248 176T172 181V126Q171 86 220 86H271Q325 86
376 87T471 91T540 96L580 31Q580 0 383 0H182ZM172 258H447V322Q447 342 443 350T416 360T341 362H220Q172 362 172 322V258ZM280 518Q280 531 289 554T311 601T330 637Q339 651 352 658T390 666H401Q440 666 440 637Q440 622 422 599T378 555T330 519Q314 509
297 504T280 518Z" />
<glyph unicode="&#xea;" glyph-name="ecircumflex" horiz-adv-x="620" d="M182 0Q132 0 105 13T67 46T53 88T50 128V320Q50 335 52 356T66 399T105 434T182 448H397Q463 448 500 436T553 395T569 320V172H394Q304 172 248 176T172 181V126Q171 86 220 86H271Q325
86 376 87T471 91T540 96L580 31Q580 0 383 0H182ZM172 258H447V322Q447 342 443 350T416 360T341 362H220Q172 362 172 322V258ZM171 526Q171 535 186 555T219 595T248 624Q261 636 272 641T300 646H330Q348 646 360 639T380 623Q391 612 408 592T438 552T452
526Q452 515 437 514T402 526L315 584L221 526Q171 495 171 526Z" />
<glyph unicode="&#xeb;" glyph-name="edieresis" horiz-adv-x="620" d="M182 0Q132 0 105 13T67 46T53 88T50 128V320Q50 335 52 356T66 399T105 434T182 448H397Q463 448 500 436T553 395T569 320V172H394Q304 172 248 176T172 181V126Q171 86 220 86H271Q325
86 376 87T471 91T540 96L580 31Q580 0 383 0H182ZM172 258H447V322Q447 342 443 350T416 360T341 362H220Q172 362 172 322V258ZM394 511Q363 511 349 523T335 565Q335 594 348 606T394 618Q425 618 439 606T453 565Q453 537 439 524T394 511ZM236 511Q205 511
191 523T177 565Q177 594 190 606T236 618Q267 618 281 606T295 565Q295 537 281 524T236 511Z" />
<glyph unicode="&#xec;" glyph-name="igrave" horiz-adv-x="242" d="M60 0V448H182V0H60ZM186 518Q186 531 177 554T155 601T136 637Q127 651 114 658T76 666H65Q26 666 26 637Q26 622 44 599T88 555T136 519Q152 509 169 504T186 518Z" />
<glyph unicode="&#xed;" glyph-name="iacute" horiz-adv-x="242" d="M60 0V448H182V0H60ZM86 518Q86 531 95 554T117 601T136 637Q145 651 158 658T196 666H207Q246 666 246 637Q246 622 228 599T184 555T136 519Q120 509 103 504T86 518Z" />
<glyph unicode="&#xee;" glyph-name="icircumflex" horiz-adv-x="242" d="M60 0V448H182V0H60ZM-23 526Q-23 535 -8 555T25 595T54 624Q67 636 78 641T106 646H136Q154 646 166 639T186 623Q197 612 214 592T244 552T258 526Q258 515 243 514T208 526L121 584L27
526Q-23 495 -23 526Z" />
<glyph unicode="&#xef;" glyph-name="idieresis" horiz-adv-x="242" d="M60 0V448H182V0H60ZM200 511Q169 511 155 523T141 565Q141 594 154 606T200 618Q231 618 245 606T259 565Q259 537 245 524T200 511ZM42 511Q11 511 -3 523T-17 565Q-17 594 -4 606T42 618Q73
618 87 606T101 565Q101 537 87 524T42 511Z" />
<glyph unicode="&#xf0;" glyph-name="eth" horiz-adv-x="640" d="M203 0Q151 0 120 14T74 51T55 100T50 149V290Q50 312 57 339T81 391T131 432T214 448H225Q269 448 297 444T355 430L360 439L238 557L177 495L122 549L182 610L119 671L203 756L265 694L329 757L384
703L319 639Q353 606 384 575T433 525Q491 467 525 417T575 317T590 212V191Q589 138 568 95T504 26T392 0H203ZM220 86H377Q420 86 444 110T468 176V214Q468 262 454 295T399 345T282 362H241Q208 362 190 343T172 292V136Q171 86 220 86Z" />
<glyph unicode="&#xf1;" glyph-name="ntilde" horiz-adv-x="655" d="M60 0V448H142L182 428Q224 436 283 442T418 448H468Q518 448 545 434T583 399T597 357T600 320V0H478V322Q478 362 430 362H212Q193 362 188 359T182 340V0H60ZM400 500Q372 500 352 510T315
535T284 559T249 570Q224 570 215 553T200 520Q196 508 186 504T168 505T159 529Q159 573 184 606T259 640Q287 640 306 630T341 605T373 581T411 570Q434 570 445 587T460 620Q464 633 473 637T492 636T501 611Q501 584 491 559T458 517T400 500Z" />
<glyph unicode="&#xf2;" glyph-name="ograve" horiz-adv-x="640" d="M182 0Q115 0 83 27T50 115V320Q50 335 52 356T66 399T105 434T182 448H458Q508 448 535 434T573 399T587 357T590 320V128Q590 110 588 88T573 46T534 13T458 0H182ZM220 86H420Q469 86 469
126V322Q469 362 420 362H220Q172 362 172 322V126Q172 86 220 86ZM385 518Q385 531 376 554T354 601T335 637Q326 651 313 658T275 666H264Q225 666 225 637Q225 622 243 599T287 555T335 519Q351 509 368 504T385 518Z" />
<glyph unicode="&#xf3;" glyph-name="oacute" horiz-adv-x="640" d="M182 0Q115 0 83 27T50 115V320Q50 335 52 356T66 399T105 434T182 448H458Q508 448 535 434T573 399T587 357T590 320V128Q590 110 588 88T573 46T534 13T458 0H182ZM220 86H420Q469 86 469
126V322Q469 362 420 362H220Q172 362 172 322V126Q172 86 220 86ZM285 518Q285 531 294 554T316 601T335 637Q344 651 357 658T395 666H406Q445 666 445 637Q445 622 427 599T383 555T335 519Q319 509 302 504T285 518Z" />
<glyph unicode="&#xf4;" glyph-name="ocircumflex" horiz-adv-x="640" d="M182 0Q115 0 83 27T50 115V320Q50 335 52 356T66 399T105 434T182 448H458Q508 448 535 434T573 399T587 357T590 320V128Q590 110 588 88T573 46T534 13T458 0H182ZM220 86H420Q469 86
469 126V322Q469 362 420 362H220Q172 362 172 322V126Q172 86 220 86ZM176 526Q176 535 191 555T224 595T253 624Q266 636 277 641T305 646H335Q353 646 365 639T385 623Q396 612 413 592T443 552T457 526Q457 515 442 514T407 526L320 584L226 526Q176 495 176
526Z" />
<glyph unicode="&#xf5;" glyph-name="otilde" horiz-adv-x="640" d="M182 0Q115 0 83 27T50 115V320Q50 335 52 356T66 399T105 434T182 448H458Q508 448 535 434T573 399T587 357T590 320V128Q590 110 588 88T573 46T534 13T458 0H182ZM220 86H420Q469 86 469
126V322Q469 362 420 362H220Q172 362 172 322V126Q172 86 220 86ZM390 500Q362 500 342 510T305 535T274 559T239 570Q214 570 205 553T190 520Q186 508 176 504T158 505T149 529Q149 573 174 606T249 640Q277 640 296 630T331 605T363 581T401 570Q424 570 435
587T450 620Q454 633 463 637T482 636T491 611Q491 584 481 559T448 517T390 500Z" />
<glyph unicode="&#xf6;" glyph-name="odieresis" horiz-adv-x="640" d="M182 0Q115 0 83 27T50 115V320Q50 335 52 356T66 399T105 434T182 448H458Q508 448 535 434T573 399T587 357T590 320V128Q590 110 588 88T573 46T534 13T458 0H182ZM220 86H420Q469 86
469 126V322Q469 362 420 362H220Q172 362 172 322V126Q172 86 220 86ZM399 511Q368 511 354 523T340 565Q340 594 353 606T399 618Q430 618 444 606T458 565Q458 537 444 524T399 511ZM241 511Q210 511 196 523T182 565Q182 594 195 606T241 618Q272 618 286 606T300
565Q300 537 286 524T241 511Z" />
<glyph unicode="&#xf7;" glyph-name="divide" horiz-adv-x="639" d="M559 229L80 230V331L559 330V229ZM320 40Q283 40 266 55T249 105Q249 141 265 155T320 170Q358 170 375 156T392 105Q392 71 375 56T320 40ZM320 390Q283 390 266 405T249 455Q249 491 265
505T320 520Q358 520 375 506T392 455Q392 421 375 406T320 390Z" />
<glyph unicode="&#xf8;" glyph-name="oslash" horiz-adv-x="640" d="M182 0Q115 0 83 27T50 115V320Q50 335 52 356T66 399T105 434T182 448H458Q508 448 535 434T573 399T587 357T590 320V128Q590 110 588 88T573 46T534 13T458 0H182ZM220 86H420Q469 86 469
126V322Q469 362 420 362H220Q172 362 172 322V126Q172 86 220 86ZM62 -121L479 547H569L151 -121H62Z" />
<glyph unicode="&#xf9;" glyph-name="ugrave" horiz-adv-x="640" d="M192 0Q143 0 116 13T77 46T63 88T60 128V448H182V126Q181 104 196 95T230 86H428Q450 86 454 90T458 116V448H580V0H498L460 20Q420 12 366 6T243 0H192ZM385 518Q385 531 376 554T354 601T335
637Q326 651 313 658T275 666H264Q225 666 225 637Q225 622 243 599T287 555T335 519Q351 509 368 504T385 518Z" />
<glyph unicode="&#xfa;" glyph-name="uacute" horiz-adv-x="640" d="M192 0Q143 0 116 13T77 46T63 88T60 128V448H182V126Q181 104 196 95T230 86H428Q450 86 454 90T458 116V448H580V0H498L460 20Q420 12 366 6T243 0H192ZM285 518Q285 531 294 554T316 601T335
637Q344 651 357 658T395 666H406Q445 666 445 637Q445 622 427 599T383 555T335 519Q319 509 302 504T285 518Z" />
<glyph unicode="&#xfb;" glyph-name="ucircumflex" horiz-adv-x="640" d="M192 0Q143 0 116 13T77 46T63 88T60 128V448H182V126Q181 104 196 95T230 86H428Q450 86 454 90T458 116V448H580V0H498L460 20Q420 12 366 6T243 0H192ZM176 526Q176 535 191 555T224
595T253 624Q266 636 277 641T305 646H335Q353 646 365 639T385 623Q396 612 413 592T443 552T457 526Q457 515 442 514T407 526L320 584L226 526Q176 495 176 526Z" />
<glyph unicode="&#xfc;" glyph-name="udieresis" horiz-adv-x="640" d="M192 0Q143 0 116 13T77 46T63 88T60 128V448H182V126Q181 104 196 95T230 86H428Q450 86 454 90T458 116V448H580V0H498L460 20Q420 12 366 6T243 0H192ZM399 511Q368 511 354 523T340 565Q340
594 353 606T399 618Q430 618 444 606T458 565Q458 537 444 524T399 511ZM241 511Q210 511 196 523T182 565Q182 594 195 606T241 618Q272 618 286 606T300 565Q300 537 286 524T241 511Z" />
<glyph unicode="&#xfd;" glyph-name="yacute" horiz-adv-x="591" d="M102 -196Q54 -196 14 -185T-40 -165L-10 -75Q7 -82 38 -91T110 -101H121Q167 -101 202 -74T257 0H207L11 448H151L266 172L292 100H302L328 172L445 448H581L565 387Q546 348 522 298T471 193T421
89T377 0Q348 -60 314 -104T235 -172T129 -196H102ZM256 518Q256 531 265 554T287 601T306 637Q315 651 328 658T366 666H377Q416 666 416 637Q416 622 398 599T354 555T306 519Q290 509 273 504T256 518Z" />
<glyph unicode="&#xfe;" glyph-name="thorn" horiz-adv-x="680" d="M80 -244V756H202V435Q247 440 302 444T437 448H488Q538 448 565 435T603 402T617 360T620 320V128Q620 113 618 92T604 49T565 14T488 0H437Q361 0 302 4T202 12V-244H80ZM233 86H450Q469 86
483 96T498 126V322Q499 344 488 353T450 362H400Q336 362 287 360T202 354V117Q202 95 206 91T233 86Z" />
<glyph unicode="&#xff;" glyph-name="ydieresis" horiz-adv-x="591" d="M102 -196Q54 -196 14 -185T-40 -165L-10 -75Q7 -82 38 -91T110 -101H121Q167 -101 202 -74T257 0H207L11 448H151L266 172L292 100H302L328 172L445 448H581L565 387Q546 348 522 298T471
193T421 89T377 0Q348 -60 314 -104T235 -172T129 -196H102ZM370 511Q339 511 325 523T311 565Q311 594 324 606T370 618Q401 618 415 606T429 565Q429 537 415 524T370 511ZM212 511Q181 511 167 523T153 565Q153 594 166 606T212 618Q243 618 257 606T271 565Q271
537 257 524T212 511Z" />
<glyph unicode="&#x2013;" glyph-name="endash" horiz-adv-x="700" d="M80 220V336H620V220H80Z" />
<glyph unicode="&#x2014;" glyph-name="emdash" horiz-adv-x="960" d="M80 220V336H880V220H80Z" />
<glyph unicode="&#x2018;" glyph-name="quoteleft" horiz-adv-x="278" d="M252 789Q273 795 276 784T273 760Q267 752 257 734T236 694T223 648Q249 644 261 629T273 583Q273 548 257 534T202 519Q161 519 141 536T120 594Q120 623 132 655T165 715T208 763T252 789Z" />
<glyph unicode="&#x2019;" glyph-name="quoteright" horiz-adv-x="278" d="M66 502Q45 496 42 507T45 531Q51 539 61 557T82 597T95 643Q69 647 57 662T45 708Q45 743 61 757T116 772Q157 772 177 755T198 697Q198 668 186 636T153 576T110 528T66 502Z" />
<glyph unicode="&#x201a;" glyph-name="quotesinglbase" horiz-adv-x="318" d="M86 -138Q65 -144 62 -133T65 -109Q71 -101 81 -83T102 -43T115 3Q89 7 77 22T65 68Q65 103 81 117T136 132Q177 132 197 115T218 57Q218 28 206 -4T173 -64T130 -112T86 -138Z" />
<glyph unicode="&#x201c;" glyph-name="quotedblleft" horiz-adv-x="468" d="M146 789Q167 795 170 784T167 760Q161 752 151 734T130 694T117 648Q143 644 155 629T167 583Q167 548 151 534T96 519Q55 519 35 536T14 594Q14 623 26 655T59 715T102 763T146 789ZM212
789Q233 795 236 784T233 760Q227 752 217 734T196 694T183 648Q209 644 221 629T233 583Q233 548 217 534T162 519Q121 519 101 536T80 594Q80 623 92 655T125 715T168 763T212 789Z" />
<glyph unicode="&#x201d;" glyph-name="quotedblright" horiz-adv-x="468" d="M282 502Q261 496 258 507T261 531Q267 539 277 557T298 597T311 643Q285 647 273 662T261 708Q261 743 277 757T332 772Q373 772 393 755T414 697Q414 668 402 636T369 576T326 528T282
502ZM216 502Q195 496 192 507T195 531Q201 539 211 557T232 597T245 643Q219 647 207 662T195 708Q195 743 211 757T266 772Q307 772 327 755T348 697Q348 668 336 636T303 576T260 528T216 502Z" />
<glyph unicode="&#x201e;" glyph-name="quotedblbase" horiz-adv-x="508" d="M276 -138Q255 -144 252 -133T255 -109Q261 -101 271 -83T292 -43T305 3Q279 7 267 22T255 68Q255 103 271 117T326 132Q367 132 387 115T408 57Q408 28 396 -4T363 -64T320 -112T276
-138ZM86 -138Q65 -144 62 -133T65 -109Q71 -101 81 -83T102 -43T115 3Q89 7 77 22T65 68Q65 103 81 117T136 132Q177 132 197 115T218 57Q218 28 206 -4T173 -64T130 -112T86 -138Z" />
<glyph unicode="&#x2022;" glyph-name="bullet" horiz-adv-x="375" d="M187 190Q131 190 106 212T80 288Q80 342 105 363T187 385Q244 385 269 364T295 288Q295 237 270 214T187 190Z" />
<glyph unicode="&#x2039;" glyph-name="guilsinglleft" horiz-adv-x="468" d="M388 0L216 241L388 480H252L80 241L252 0H388Z" />
<glyph unicode="&#x203a;" glyph-name="guilsinglright" horiz-adv-x="468" d="M80 0L252 241L80 480H216L388 241L216 0H80Z" />
</font>
</defs>
</svg>
