<?xml version="1.0" standalone="no"?>
<!DOCTYPE svg PUBLIC "-//W3C//DTD SVG 1.1//EN" "http://www.w3.org/Graphics/SVG/1.1/DTD/svg11.dtd">
<svg xmlns="http://www.w3.org/2000/svg">
<defs >
<font id="Gelasio" horiz-adv-x="1202" ><font-face
    font-family="Gelasio"
    units-per-em="2048"
    panose-1="0 0 0 0 0 0 0 0 0 0"
    ascent="1900"
    descent="-700"
    alphabetic="0" />
<glyph unicode=" " glyph-name="space" horiz-adv-x="494" />
<glyph unicode="!" glyph-name="exclam" horiz-adv-x="678" d="M299 432Q266 868 237 1103T208 1389Q208 1448 246 1488T339 1528Q394 1528 432 1488T470 1389Q470 1339 435 1104T379 432H299ZM339 -20Q280 -20 240 23T199 122Q199 178 239 217T339 257Q398 257
439 218T480 122Q480 66 439 23T339 -20Z" />
<glyph unicode="&quot;" glyph-name="quotedbl" horiz-adv-x="843" d="M154 967Q156 1037 156 1125T156 1299T157 1451T163 1542Q172 1601 206 1641T296 1681Q351 1681 372 1641T385 1542Q381 1517 362 1452T315 1300T261 1125T212 967H154ZM563 967Q565 1037
565 1125T565 1299T566 1451T572 1542Q581 1601 615 1641T705 1681Q760 1681 781 1641T794 1542Q790 1517 771 1452T724 1300T670 1125T621 967H563Z" />
<glyph unicode="#" glyph-name="numbersign" horiz-adv-x="1317" d="M233 0L308 400H99V526H332L402 900H148V1026H426L500 1419H647L573 1026H863L937 1419H1084L1010 1026H1218V900H986L915 526H1148V400H891L815 0H670L745 400H454L378 0H233ZM478 526H769L839
900H549L478 526Z" />
<glyph unicode="$" glyph-name="dollar" horiz-adv-x="1249" d="M601 -245V-26Q516 -16 467 7T390 41Q361 52 342 67T306 82Q292 82 276 65Q238 24 210 24Q172 24 175 72Q177 92 177 113T177 154Q177 221 172 290T161 408T156 460Q156 486 169 498T199 510Q214
510 228 500T246 468Q251 443 263 402T316 274Q352 198 413 151T540 81T658 59Q748 59 818 118T888 311Q888 369 847 415T739 500T594 576Q502 620 414 677T269 814T211 1005Q211 1120 271 1194T422 1307T601 1350V1548H707V1345Q763 1336 802 1322T860 1303Q875
1300 886 1300Q909 1300 918 1309T942 1327Q953 1334 966 1334Q983 1334 996 1323T1009 1296Q1009 1284 1012 1237T1020 1130T1034 1014Q1035 1007 1035 996Q1035 966 1022 954T992 942Q979 942 967 949T953 965Q926 1126 840 1199T645 1272Q542 1272 476 1223T409
1049Q409 991 453 941T567 848T715 765Q808 718 894 660T1036 527T1092 352Q1092 169 984 74T707 -29V-245H601Z" />
<glyph unicode="%" glyph-name="percent" horiz-adv-x="1674" d="M438 711Q287 711 198 809T109 1076Q109 1248 200 1348T442 1449Q597 1449 688 1349T779 1076Q779 908 686 810T438 711ZM361 0L1153 1419H1300L506 0H361ZM440 788Q534 788 571 859T609 1076Q609
1225 570 1298T437 1372Q343 1372 306 1299T268 1076Q268 931 307 860T440 788ZM1224 -29Q1073 -29 984 69T895 336Q895 508 986 608T1228 709Q1383 709 1474 609T1565 336Q1565 168 1472 70T1224 -29ZM1226 48Q1320 48 1357 119T1395 336Q1395 485 1356 558T1223
632Q1129 632 1092 559T1054 336Q1054 191 1093 120T1226 48Z" />
<glyph unicode="&amp;" glyph-name="ampersand" horiz-adv-x="1455" d="M537 -29Q396 -29 292 23T130 164T72 365Q72 505 153 602T389 758Q324 839 274 929T224 1109Q224 1198 262 1275T381 1400T590 1448Q749 1448 835 1379T921 1198Q921 1106 895 1044T799 925T600
793L963 383Q979 418 1001 476T1046 595T1082 703T1097 760Q1097 782 1075 794T1025 811T977 818Q958 820 952 829T946 855Q946 870 954 883T980 896H1373Q1390 896 1398 883T1407 855Q1407 818 1374 818Q1271 818 1222 741Q1182 668 1134 556T1024 315L1160 162Q1190
132 1244 108T1345 78Q1366 76 1373 70T1381 41Q1381 26 1373 13T1347 0H1053L923 148Q853 67 760 19T537 -29ZM550 850Q628 902 672 943T734 1039T752 1192Q752 1226 735 1269T681 1346T583 1379Q516 1379 464 1323T411 1188Q411 1082 444 1006T550 850ZM545 67Q624
67 702 99T860 219L440 705Q372 662 339 605T296 486T286 365Q286 291 313 223T397 111T545 67Z" />
<glyph unicode="&apos;" glyph-name="quotesingle" horiz-adv-x="441" d="M136 967Q138 1037 138 1125T138 1299T139 1451T145 1542Q154 1601 188 1641T278 1681Q333 1681 354 1641T367 1542Q363 1517 344 1452T297 1300T243 1125T194 967H136Z" />
<glyph unicode="(" glyph-name="parenleft" horiz-adv-x="768" d="M678 -340Q613 -340 535 -311T379 -215T237 -41T134 225T95 596Q95 809 134 966T237 1232T378 1407T534 1502T678 1532V1449Q647 1449 600 1433T500 1368T403 1225T329 978T300 596Q300 368 328
215T402 -33T500 -175T599 -240T678 -257V-340Z" />
<glyph unicode=")" glyph-name="parenright" horiz-adv-x="768" d="M90 -340V-257Q121 -257 168 -241T268 -176T365 -33T439 214T468 596Q468 824 440 977T366 1225T268 1367T169 1432T90 1449V1532Q155 1532 233 1503T389 1407T531 1233T634 967T673 596Q673
383 634 226T531 -40T390 -215T234 -310T90 -340Z" />
<glyph unicode="*" glyph-name="asterisk" horiz-adv-x="967" d="M287 722Q250 722 221 749T191 819Q191 858 217 892Q225 902 256 931T325 992Q354 1018 385 1044T432 1087Q411 1090 372 1090T288 1091T208 1093T157 1100Q122 1112 98 1137T74 1198Q74 1247 105
1272T174 1298Q198 1298 218 1290Q236 1283 280 1254T373 1194T451 1148Q436 1245 409 1318T381 1434Q381 1483 408 1516T485 1549Q533 1549 561 1516T589 1434Q589 1383 562 1314T517 1148Q537 1159 567 1178T636 1223Q693 1258 720 1274T761 1294T794 1298Q831
1298 862 1272T893 1195Q893 1161 870 1136T809 1100Q787 1094 732 1093T621 1091T537 1087Q561 1062 601 1031T681 965T749 892T777 819Q777 781 750 752T681 722Q655 722 630 737T588 776Q581 786 568 821T538 902T508 988T484 1049Q475 1028 461 988T431 902T402
822T380 776Q342 722 287 722Z" />
<glyph unicode="+" glyph-name="plus" horiz-adv-x="1317" d="M576 75V501H173V647H576V1062H742V647H1144V501H742V75H576Z" />
<glyph unicode="," glyph-name="comma" horiz-adv-x="552" d="M183 -360Q167 -360 153 -351T139 -325Q139 -307 162 -281Q203 -236 222 -173T241 -63Q241 -25 233 -7Q196 1 159 28T121 120Q121 187 160 222T254 257Q321 257 366 207T412 52Q412 -41 374 -125T288
-270T210 -352Q199 -360 183 -360Z" />
<glyph unicode="-" glyph-name="hyphen" horiz-adv-x="766" d="M106 496V622H660V496H106Z" />
<glyph unicode="." glyph-name="period" horiz-adv-x="552" d="M136 122Q136 178 176 217T276 257Q335 257 376 218T417 122Q417 66 376 23T276 -20Q217 -20 177 23T136 122Z" />
<glyph unicode="/" glyph-name="slash" horiz-adv-x="960" d="M174 -440L649 1600H786L309 -440H174Z" />
<glyph unicode="0" glyph-name="zero" horiz-adv-x="1257" d="M627 -29Q398 -29 271 135T144 582Q144 774 203 913T371 1129T634 1205Q864 1205 989 1037T1114 582Q1114 300 986 136T627 -29ZM630 66Q787 66 842 193T897 582Q897 848 840 979T626 1110Q469 1110
414 979T359 582Q359 321 416 194T630 66Z" />
<glyph unicode="1" glyph-name="one" horiz-adv-x="880" d="M196 0Q179 0 171 15T162 41Q162 74 195 78Q227 81 268 87T339 107T370 142L371 1018Q328 994 284 977T196 960Q169 960 160 987T150 1025Q150 1069 186 1072Q217 1074 267 1088T372 1127T473 1189H568L567
150Q567 124 596 110T667 88T749 78Q770 77 777 71T785 41Q785 30 777 15T751 0H196Z" />
<glyph unicode="2" glyph-name="two" horiz-adv-x="1144" d="M123 0V34Q126 62 143 85Q260 164 369 256T566 447T704 649T755 850Q755 901 735 961T664 1065T517 1109Q443 1109 408 1091T358 1049T329 1002Q321 963 314 921T302 849Q297 818 281 796T235 774Q217
774 188 783T136 818T113 891Q113 921 126 960Q146 1020 205 1076T352 1168T542 1205Q742 1205 853 1114T964 851Q964 756 910 660T769 474T585 304T399 165H1033L1023 0H123Z" />
<glyph unicode="3" glyph-name="three" horiz-adv-x="1130" d="M534 -394Q468 -394 392 -376T247 -319T135 -218T91 -68Q91 0 132 45T220 90Q249 90 281 73T314 6L267 -166Q287 -211 345 -255T519 -299Q662 -299 754 -211T847 46Q847 151 809 218T713 323T594
376T486 391H423Q419 391 417 412T414 448Q414 462 415 483T423 505H486Q524 505 572 524T666 582T742 680T772 821Q772 859 764 908T733 1003T667 1079T552 1109Q475 1109 439 1091T387 1049T358 1002Q350 963 343 921T331 849Q326 818 310 796T264 774Q246 774
216 783T161 818T137 892Q137 958 175 1015T277 1114T416 1181T567 1205Q756 1205 868 1108T981 840Q981 763 949 698T866 582T758 500T652 456Q742 455 832 418T983 294T1044 63Q1044 -74 978 -177T797 -337T534 -394Z" />
<glyph unicode="4" glyph-name="four" horiz-adv-x="1157" d="M717 -328V0H90Q79 0 68 22T57 73Q57 93 62 109T75 135L609 1170Q613 1179 628 1191T670 1203Q717 1203 759 1170T801 1095L241 164H717V546L880 556V164H1114L1104 0H880V-328H717Z" />
<glyph unicode="5" glyph-name="five" horiz-adv-x="1082" d="M470 -392Q404 -392 333 -372T201 -315T102 -227T64 -111Q64 -57 87 -20T141 37T195 57Q234 57 270 47T313 0L273 -230Q308 -269 366 -283T495 -298Q576 -298 630 -257T717 -148T764 3T779 170Q779
347 705 431T522 516Q444 516 356 485T221 380L153 413L185 1189H952L942 1020H333L289 543Q342 580 418 603T554 627Q766 627 882 505T999 187Q999 11 930 -119T741 -321T470 -392Z" />
<glyph unicode="6" glyph-name="six" horiz-adv-x="1159" d="M583 -29Q468 -29 378 17T225 142T129 319T96 522Q96 640 125 768T216 1019T376 1248T613 1427T935 1529L936 1437Q785 1401 679 1334T504 1178T396 992T336 798Q379 846 448 889T636 933Q788 933 882
872T1019 706T1063 472Q1063 334 1007 220T844 39T583 -29ZM579 66Q684 66 742 115T823 256T846 472Q846 625 790 720T610 815Q514 815 438 771T317 670Q311 614 310 564T308 472Q308 285 365 176T579 66Z" />
<glyph unicode="7" glyph-name="seven" horiz-adv-x="1029" d="M218 -349L835 1028H339Q293 1028 260 997T204 921T169 839T155 785Q153 766 139 759T108 752Q97 752 82 760T67 786L102 1190L939 1189L992 1122L440 -350L218 -349Z" />
<glyph unicode="8" glyph-name="eight" horiz-adv-x="1221" d="M616 -30Q456 -30 350 25T192 172T139 373Q139 470 182 543T289 667T416 742Q329 808 269 894T209 1102Q209 1184 258 1263T400 1396T626 1449Q771 1449 859 1400T989 1270T1030 1091Q1030 1013 995
949T907 836T797 756Q874 711 939 656T1043 528T1083 358Q1083 252 1033 164T879 23T616 -30ZM713 803Q767 836 805 903T844 1102Q844 1168 823 1225T753 1318T623 1354Q514 1354 460 1288T406 1107Q406 1050 434 1005T529 912T713 803ZM619 65Q747 65 816 131T886
314Q886 401 842 457T733 552T604 625Q576 639 549 655T494 688Q423 652 376 570T328 362Q328 320 342 270T388 172T477 95T619 65Z" />
<glyph unicode="9" glyph-name="nine" horiz-adv-x="1159" d="M224 -353L223 -261Q375 -225 480 -158T655 -2T764 184T823 378Q780 330 711 287T523 243Q372 243 278 304T140 471T96 704Q96 843 152 956T315 1137T576 1205Q691 1205 781 1159T934 1034T1030 857T1063
654Q1063 536 1034 408T943 157T783 -72T546 -251T224 -353ZM549 361Q645 361 721 406T842 506Q848 562 849 612T851 704Q851 892 795 1001T580 1110Q476 1110 418 1061T336 920T313 704Q313 551 369 456T549 361Z" />
<glyph unicode=":" glyph-name="colon" horiz-adv-x="640" d="M207 122Q207 178 247 217T347 257Q406 257 447 218T488 122Q488 66 447 23T347 -20Q288 -20 248 23T207 122ZM207 860Q207 916 247 955T347 995Q406 995 447 956T488 860Q488 804 447 761T347 718Q288
718 248 761T207 860Z" />
<glyph unicode=";" glyph-name="semicolon" horiz-adv-x="640" d="M177 860Q177 916 217 955T317 995Q376 995 417 956T458 860Q458 804 417 761T317 718Q258 718 218 761T177 860ZM225 -360Q209 -360 195 -351T181 -325Q181 -307 204 -281Q245 -236 264 -173T283
-63Q283 -25 275 -7Q238 1 201 28T163 120Q163 187 202 222T296 257Q363 257 408 207T454 52Q454 -41 416 -125T330 -270T252 -352Q241 -360 225 -360Z" />
<glyph unicode="&lt;" glyph-name="less" horiz-adv-x="1317" d="M1088 20L170 495V614L1088 1091V945L318 554L1088 164V20Z" />
<glyph unicode="=" glyph-name="equal" horiz-adv-x="1317" d="M193 740V886H1124V740H193ZM193 222V368H1124V222H193Z" />
<glyph unicode="&gt;" glyph-name="greater" horiz-adv-x="1317" d="M210 20V164L980 554L210 945V1091L1128 614V495L210 20Z" />
<glyph unicode="?" glyph-name="question" horiz-adv-x="980" d="M397 377V489Q397 580 429 645T508 763T601 869T680 986T712 1141Q712 1204 694 1274T625 1393T480 1443Q412 1443 369 1419T305 1371T284 1347L244 1117Q239 1095 224 1087T177 1079Q146 1079
109 1107T71 1199Q71 1238 89 1284Q111 1343 164 1399T300 1491T496 1528Q649 1528 740 1470T872 1322T913 1141Q913 1059 872 992T771 863T651 742T550 613T509 460V377H397ZM459 -20Q400 -20 360 23T319 122Q319 178 359 217T459 257Q518 257 559 218T600 122Q600
66 559 23T459 -20Z" />
<glyph unicode="@" glyph-name="at" horiz-adv-x="1902" d="M936 -338Q811 -338 676 -302T422 -186T226 26T138 351Q137 368 137 384T136 417Q136 655 219 837T440 1145T747 1334T1087 1398Q1204 1398 1320 1367T1535 1267T1695 1089T1766 822Q1767 811 1767 800T1767
778Q1767 610 1708 482T1558 267T1373 136T1207 92Q1116 92 1074 146T1027 259Q1010 218 971 182T885 123T799 100Q740 100 683 129T586 221T541 389Q540 397 540 406T540 423Q540 525 570 627T659 815T802 951T992 1003Q1050 1003 1089 976T1150 911T1171 838L1210
977H1402L1188 369Q1184 357 1178 334T1172 284Q1172 259 1188 240T1252 221Q1297 221 1363 258T1493 367T1601 541T1645 772Q1644 781 1644 789T1644 807Q1638 929 1587 1019T1455 1170T1275 1260T1073 1290Q895 1290 746 1222T488 1033T318 753T257 412Q256 399
256 385T258 357Q266 208 319 104T452 -67T622 -171T798 -222T945 -237Q1074 -237 1171 -206T1332 -134T1429 -62T1461 -30L1525 -92Q1480 -145 1404 -202T1212 -298T936 -338ZM821 231Q861 231 901 266T973 345T1013 416L1116 726Q1116 731 1116 735T1117 744Q1117
771 1108 801T1075 853T1002 874Q946 874 902 837T824 742T769 618T737 495T729 403Q732 336 748 284T821 231Z" />
<glyph unicode="A" glyph-name="A" horiz-adv-x="1374" d="M7 0Q-9 0 -18 15T-27 51Q-27 74 -20 80T9 88Q34 91 63 91T119 106T162 165L620 1441H780L1225 165Q1241 121 1267 107T1322 92T1376 88Q1397 86 1404 80T1412 51Q1412 40 1404 20T1378 0H877Q860 0 852
20T843 51Q843 84 876 88Q937 91 975 93T1013 118Q1013 125 1010 132L889 494H409L287 132Q285 127 285 120Q285 95 327 94T431 88Q464 84 464 51Q464 40 456 20T430 0H7ZM659 1187L440 580H861L659 1187Z" />
<glyph unicode="B" glyph-name="B" horiz-adv-x="1339" d="M100 0Q83 0 75 20T66 51Q66 84 99 88Q139 91 179 97T246 117T274 152L275 1234Q275 1277 245 1296T172 1322T93 1331Q72 1333 65 1339T57 1368Q57 1379 65 1399T91 1419H697Q818 1419 926 1391T1103
1294T1172 1100Q1172 1006 1131 940T1025 832T883 776Q945 769 1010 749T1132 688T1222 581T1257 416Q1257 307 1211 228T1089 99T923 24T742 0H100ZM478 814H646Q724 814 794 839T910 924T955 1085Q955 1222 871 1278T660 1334H478V814ZM666 102Q718 102 781 113T902
156T997 252T1035 421Q1035 535 992 596T882 683T744 713T619 718H478V139Q478 139 484 130T529 111T666 102Z" />
<glyph unicode="C" glyph-name="C" horiz-adv-x="1315" d="M752 -30Q632 -30 511 6T288 127T126 353T65 706Q65 904 127 1045T290 1276T506 1407T731 1449Q864 1449 952 1434T1097 1398T1189 1361L1211 1048Q1213 1031 1195 1020T1165 1008Q1162 1008 1160 1008T1154
1007Q1123 1007 1119 1036Q1096 1120 1049 1192T923 1309T729 1353Q665 1353 594 1333T462 1248T361 1055T322 706Q322 498 365 371T476 178T617 88T751 65Q865 65 938 108T1054 224T1112 383Q1118 416 1149 416Q1161 416 1185 408T1210 382L1178 108Q1177 94 1122
61T972 -1T752 -30Z" />
<glyph unicode="D" glyph-name="D" horiz-adv-x="1534" d="M140 0Q123 0 115 20T106 51Q106 84 139 88Q187 92 235 105T284 152V1234Q284 1277 259 1296T198 1321T132 1331Q111 1333 104 1339T96 1368Q96 1379 104 1399T130 1419H726Q930 1418 1070 1361T1295
1207T1418 989T1456 738Q1456 543 1394 403T1230 174T1010 43T778 0H140ZM496 168Q496 154 512 139T572 112T704 101Q795 101 885 120T1048 202T1166 392T1210 734Q1210 920 1163 1035T1040 1213T872 1299T694 1322H497L496 168Z" />
<glyph unicode="E" glyph-name="E" horiz-adv-x="1338" d="M105 51Q105 84 138 88Q186 92 235 105T284 152V1234Q284 1277 259 1296T198 1321T132 1331Q111 1333 104 1339T96 1368Q96 1379 104 1399T130 1419L1110 1420L1145 1095Q1147 1078 1133 1070T1108 1061Q1092
1061 1074 1066T1044 1094Q1004 1169 979 1219T923 1295T838 1321L498 1320V778L732 779Q758 783 780 817T816 890T833 950Q835 970 849 976T879 982Q890 982 905 974T920 948V505Q920 488 905 480T879 471Q863 471 848 478T830 504Q829 526 815 568T777 647T726
683L498 682V197Q498 142 526 123T587 101L872 102Q962 102 1029 162T1132 374Q1137 393 1160 400T1200 407Q1219 407 1233 399T1249 373L1199 1L139 0Q122 0 114 20T105 51Z" />
<glyph unicode="F" glyph-name="F" horiz-adv-x="1227" d="M139 0Q122 0 114 20T105 51Q105 84 138 88Q178 91 218 97T285 117T313 152L314 1234Q314 1277 284 1296T211 1322T132 1331Q111 1333 104 1339T96 1368Q96 1379 104 1399T130 1419L1154 1418L1191 1070Q1191
1053 1176 1045T1150 1036Q1134 1036 1122 1043T1107 1069Q1105 1084 1088 1124T1042 1209T977 1287T899 1320H520V741H784Q810 745 830 780T864 855T879 916Q881 936 898 942T931 949Q942 949 957 941T972 915V472Q972 455 957 447T931 438Q915 438 898 445T879
471Q877 493 864 537T828 618T778 655H520V197Q520 154 558 131T648 98T742 88Q759 88 768 81T778 51Q778 40 770 20T744 0H139Z" />
<glyph unicode="G" glyph-name="G" horiz-adv-x="1485" d="M754 -30Q652 -30 536 7T317 130T149 357T84 706Q84 912 150 1054T322 1284T550 1410T783 1449Q977 1449 1082 1417T1241 1361L1263 1051Q1265 1034 1252 1023T1227 1011Q1224 1011 1222 1011T1216 1010Q1183
1010 1179 1039Q1156 1123 1106 1194T976 1308T781 1353Q735 1353 677 1339T558 1285T447 1174T365 987T333 706Q333 523 381 400T503 203T656 97T800 65Q956 65 1014 108T1072 199V456Q1072 499 1044 518T974 544T893 553Q872 555 865 561T857 590Q857 601 865
621T891 641H1406Q1423 641 1431 621T1440 590Q1440 556 1407 553Q1363 549 1319 536T1275 489L1282 123Q1266 101 1203 65T1028 -1T754 -30Z" />
<glyph unicode="H" glyph-name="H" horiz-adv-x="1669" d="M139 0Q122 0 114 20T105 51Q105 85 138 88Q186 92 229 105T273 152L274 1234Q274 1277 251 1296T196 1321T132 1331Q111 1333 104 1339T96 1368Q96 1379 104 1399T130 1419H622Q639 1419 647 1399T656
1368Q656 1334 623 1331Q575 1327 527 1314T478 1267V796H1193V1234Q1193 1277 1168 1296T1107 1321T1041 1331Q1020 1333 1013 1339T1005 1368Q1005 1379 1013 1399T1039 1419H1541Q1558 1419 1566 1399T1575 1368Q1575 1334 1542 1331Q1494 1327 1446 1314T1397
1267L1396 185Q1396 142 1421 123T1482 98T1548 88Q1569 86 1576 80T1584 51Q1584 40 1576 20T1550 0H1048Q1031 0 1023 20T1014 51Q1014 85 1047 88Q1095 92 1143 105T1192 152V688H477V185Q477 142 502 123T563 98T629 88Q650 86 657 80T665 51Q665 40 657 20T631
0H139Z" />
<glyph unicode="I" glyph-name="I" horiz-adv-x="798" d="M151 0Q134 0 126 20T117 51Q117 85 150 88Q198 92 246 105T295 152L296 1234Q296 1277 271 1296T210 1321T144 1331Q123 1333 116 1339T108 1368Q108 1379 116 1399T142 1419H647Q664 1419 672 1399T681
1368Q681 1334 648 1331Q600 1327 552 1314T503 1267L502 185Q502 142 527 123T588 98T654 88Q675 86 682 80T690 51Q690 40 682 20T656 0H151Z" />
<glyph unicode="J" glyph-name="J" horiz-adv-x="1060" d="M404 -30Q337 -30 266 -5T128 76Q81 122 63 175T44 278Q44 367 87 419T201 471Q232 471 253 461T275 439L231 113Q261 90 302 75T395 59Q500 59 562 140T624 406L625 1234Q625 1299 587 1313T493 1331Q472
1333 465 1339T457 1368Q457 1379 465 1399T491 1419H956Q973 1419 981 1399T990 1368Q990 1334 957 1331Q913 1327 872 1314T831 1267V439Q831 292 787 200T674 58T534 -11T404 -30Z" />
<glyph unicode="K" glyph-name="K" horiz-adv-x="1422" d="M139 0Q122 0 114 20T105 51Q105 84 138 88Q186 92 234 105T283 152L284 1234Q284 1277 259 1296T198 1321T132 1331Q111 1333 104 1339T96 1368Q96 1379 104 1399T130 1419H625Q642 1419 650 1399T659
1368Q659 1335 626 1331Q578 1327 535 1314T491 1267L490 185Q490 142 513 123T569 98T632 88Q653 86 660 80T668 51Q668 40 660 20T634 0H139ZM1113 0Q1096 0 1069 16T1006 83Q967 138 921 214T825 373T723 528T623 648T531 701L995 1276Q1003 1285 1003 1293Q1003
1307 982 1314T934 1324T889 1330Q870 1332 864 1341T858 1367Q858 1378 866 1398T892 1419H1343Q1360 1419 1368 1399T1377 1367Q1377 1330 1344 1330Q1293 1330 1240 1311T1147 1263L754 799Q801 768 859 698T978 540T1098 367T1201 222Q1238 173 1294 133T1387
89Q1408 87 1415 71T1423 32Q1423 21 1415 11T1389 0H1113Z" />
<glyph unicode="L" glyph-name="L" horiz-adv-x="1236" d="M139 0Q122 0 114 20T105 51Q105 84 138 88Q186 92 229 105T273 152L274 1234Q274 1277 251 1296T196 1321T132 1331Q111 1333 104 1339T96 1368Q96 1379 104 1399T130 1419H643Q660 1419 668 1399T677
1368Q677 1331 644 1331Q611 1331 572 1323T506 1295T478 1237L477 177Q477 128 511 115T582 101H867Q914 101 957 155T1037 289T1097 440Q1108 473 1145 473Q1189 473 1185 439L1136 0H139Z" />
<glyph unicode="M" glyph-name="M" horiz-adv-x="1899" d="M124 0Q107 0 99 20T90 51Q90 84 123 88Q163 91 203 97T270 122T298 184V1234Q298 1277 268 1296T196 1322T117 1331Q96 1333 89 1339T81 1368Q81 1379 89 1398T115 1419H612L969 366H981L1276 1246Q1296
1306 1309 1345T1329 1419H1773Q1790 1419 1798 1399T1807 1368Q1807 1335 1774 1331Q1726 1327 1678 1314T1629 1267L1628 185Q1628 142 1654 123T1716 98T1783 88Q1804 86 1811 80T1819 51Q1819 40 1811 20T1785 0H1272Q1255 0 1247 20T1238 51Q1238 84 1271
88Q1303 91 1338 97T1399 117T1424 152L1425 1281H1388L959 0H908L432 1281H395V185Q395 142 428 123T506 97T587 88Q608 86 615 80T623 51Q623 40 615 20T589 0H124Z" />
<glyph unicode="N" glyph-name="N" horiz-adv-x="1571" d="M96 0Q79 0 71 20T62 51Q62 84 95 88Q127 91 163 98T224 122T250 172V1234Q250 1277 223 1296T158 1321T89 1331Q68 1333 61 1339T53 1368Q53 1379 61 1399T87 1419H425L1202 313H1214V1234Q1214 1277
1182 1296T1107 1321T1034 1331Q1013 1333 1006 1339T998 1368Q998 1379 1006 1399T1032 1419H1487Q1504 1419 1512 1399T1521 1368Q1521 1335 1488 1331Q1458 1328 1417 1322T1344 1296T1313 1234V113Q1313 94 1315 82T1319 40Q1322 -2 1301 -16T1259 -30Q1223
-30 1205 -8L366 1154H349V185Q349 142 379 123T449 98T519 88Q540 86 547 80T555 51Q555 40 547 20T521 0H96Z" />
<glyph unicode="O" glyph-name="O" horiz-adv-x="1524" d="M759 -29Q601 -29 478 29T269 189T139 427T94 716Q94 921 175 1087T407 1351T769 1449Q980 1449 1127 1351T1352 1087T1430 716Q1430 562 1385 427T1253 190T1042 29T759 -29ZM763 65Q929 65 1019 143T1144
367T1180 714Q1180 915 1144 1059T1015 1279T758 1356Q592 1356 502 1280T377 1059T342 714Q342 513 378 368T506 144T763 65Z" />
<glyph unicode="P" glyph-name="P" horiz-adv-x="1249" d="M139 0Q122 0 114 20T105 51Q105 84 138 88Q186 92 234 105T283 152L284 1234Q284 1277 259 1296T198 1321T132 1331Q111 1333 104 1339T96 1368Q96 1379 104 1399T130 1419H353Q452 1419 527 1425T705
1431Q823 1431 931 1391T1110 1258T1180 1010Q1180 876 1114 774T931 613T664 555H490V185Q490 142 524 123T606 97T692 88Q713 86 720 80T728 51Q728 40 720 20T694 0H139ZM490 641H661Q689 641 737 658T834 714T918 821T952 989Q952 1127 904 1204T782 1311T628
1342H491L490 641Z" />
<glyph unicode="Q" glyph-name="Q" horiz-adv-x="1524" d="M914 -13Q929 -89 973 -160T1108 -278T1351 -324V-393Q1331 -402 1284 -414T1169 -426Q1097 -426 1018 -413T866 -358T739 -237T662 -23Q481 1 355 105T161 368T94 716Q94 921 175 1087T407 1351T769
1449Q980 1449 1127 1351T1352 1087T1430 716Q1430 538 1369 386T1193 128T914 -13ZM342 714Q342 513 378 368T506 144T763 65Q929 65 1019 143T1144 367T1180 714Q1180 915 1144 1059T1015 1279T758 1356Q592 1356 502 1280T377 1059T342 714Z" />
<glyph unicode="R" glyph-name="R" horiz-adv-x="1437" d="M130 0Q113 0 105 20T96 51Q96 84 129 88Q177 92 225 105T274 152L275 1234Q275 1277 252 1296T197 1321T133 1331Q112 1333 105 1339T97 1368Q97 1379 105 1399T131 1419Q191 1419 234 1419T317 1420Q401
1420 450 1422T546 1426T670 1428Q811 1427 926 1391T1108 1272T1176 1050Q1176 745 854 658Q953 648 1009 603T1098 491T1159 350T1230 206Q1264 141 1304 117T1381 89Q1417 85 1417 46Q1417 35 1409 18T1383 0H1116Q1072 0 1041 45T983 161T930 312T867 463T780
580T655 625H477V185Q477 142 505 123T573 97T649 88Q670 86 677 80T685 51Q685 40 677 20T651 0H130ZM478 711H646Q729 711 800 737T915 830T959 1019Q959 1141 915 1209T795 1304T623 1332H479L478 711Z" />
<glyph unicode="S" glyph-name="S" horiz-adv-x="1149" d="M626 -30Q511 -30 450 -1T354 45Q326 60 308 71T273 82Q256 82 242 65Q224 43 205 34T171 24Q152 24 141 37T130 72Q132 92 132 113T132 155Q132 254 121 338T110 469Q110 495 125 507T159 520Q202 520
212 478Q218 453 232 407T287 274Q323 198 378 151T495 81T609 59Q670 59 727 78T821 149T859 299Q859 373 814 431T696 538T543 626Q451 673 364 730T219 869T158 1069Q155 1172 193 1244T293 1362T429 1428T572 1449Q691 1449 754 1424T837 1398Q861 1398 870
1407T894 1425Q905 1432 921 1432Q941 1432 958 1421T976 1394Q976 1303 989 1222T1002 1084Q1002 1053 986 1041T950 1028Q935 1028 922 1035T906 1051Q878 1212 789 1291T589 1370Q485 1370 418 1317T351 1129Q351 1065 397 1011T516 908T666 815Q731 777 800
735T930 640T1027 521T1065 371Q1065 241 1006 152T848 16T626 -30Z" />
<glyph unicode="T" glyph-name="T" horiz-adv-x="1267" d="M326 0Q309 0 301 20T292 51Q292 84 325 88Q372 91 419 98T498 125T530 182L531 1320H277Q234 1320 206 1280T162 1184T138 1075T128 999Q124 966 91 966Q80 966 60 974T40 1000Q42 1049 45 1119T54 1258T64
1373T75 1419H1193Q1199 1419 1204 1373T1214 1259T1222 1120T1227 1000Q1227 983 1207 975T1176 966Q1143 966 1139 999Q1137 1023 1130 1075T1106 1183T1062 1280T991 1320H738L737 185Q737 142 770 123T851 97T939 88Q960 86 967 80T975 51Q975 40 967 20T941
0H326Z" />
<glyph unicode="U" glyph-name="U" horiz-adv-x="1549" d="M1296 1230L1294 516Q1293 245 1157 108T781 -29Q600 -29 483 40T308 232T251 516L252 1234Q252 1277 229 1296T174 1322T110 1331Q89 1333 82 1339T74 1368Q74 1379 82 1399T108 1419H616Q633 1419 641
1399T650 1368Q650 1334 617 1331Q565 1327 515 1314T464 1267L463 524Q463 290 542 178T785 65Q943 65 1029 122T1149 281T1183 514V1244Q1183 1278 1151 1295T1077 1320T1007 1331Q986 1333 979 1339T971 1368Q971 1379 979 1399T1005 1419H1470Q1487 1419 1495
1399T1504 1368Q1504 1332 1471 1331Q1394 1327 1345 1303T1296 1230Z" />
<glyph unicode="V" glyph-name="V" horiz-adv-x="1365" d="M644 -18L159 1254Q143 1298 114 1312T54 1328T-2 1331Q-23 1333 -30 1339T-38 1368Q-38 1379 -29 1399T-4 1419H521Q538 1419 546 1399T555 1368Q555 1335 522 1331Q461 1328 421 1326T381 1300Q381
1295 384 1287L750 232L1097 1257Q1099 1265 1099 1268Q1099 1298 1050 1312T939 1331Q906 1335 906 1368Q906 1379 914 1399T940 1419H1395Q1412 1419 1420 1399T1429 1368Q1429 1346 1422 1340T1393 1331Q1369 1329 1338 1328T1278 1313T1232 1254L767 -18H644Z"
/>
<glyph unicode="W" glyph-name="W" horiz-adv-x="1998" d="M552 -18L183 1254Q167 1298 141 1312T86 1328T32 1331Q11 1333 4 1339T-4 1368Q-4 1379 5 1399T30 1419H545Q562 1419 570 1399T579 1368Q579 1335 546 1331Q484 1327 435 1326T386 1298Q386 1295 388
1287L664 286L1001 1399H1109L1464 282L1733 1287Q1734 1290 1734 1295Q1734 1315 1708 1321T1641 1328T1558 1331Q1525 1335 1525 1368Q1525 1379 1533 1399T1559 1419H2004Q2021 1419 2029 1399T2038 1368Q2038 1346 2031 1340T2002 1331Q1978 1329 1948 1329T1891
1314T1851 1254L1478 -18H1355L1001 1046L675 -18H552Z" />
<glyph unicode="X" glyph-name="X" horiz-adv-x="1455" d="M47 0Q31 0 22 20T13 51Q13 74 20 80T49 88Q74 91 110 94T185 112T250 165L599 686L240 1254Q202 1313 154 1320T69 1331Q48 1333 41 1339T33 1368Q33 1379 42 1399T67 1419H592Q609 1419 617 1399T626
1368Q626 1335 593 1331Q541 1328 496 1325T450 1301Q450 1295 455 1287L724 859L978 1257Q985 1267 985 1278Q985 1300 951 1314T860 1331Q827 1335 827 1368Q827 1379 835 1399T861 1419H1316Q1333 1419 1341 1399T1350 1368Q1350 1346 1343 1340T1314 1331Q1290
1329 1253 1326T1179 1307T1113 1254L770 766L1156 165Q1182 125 1214 111T1278 94T1334 88Q1355 86 1362 80T1370 51Q1370 40 1362 20T1336 0H779Q762 0 754 20T745 51Q745 84 778 88Q838 91 889 94T941 119Q941 124 936 132L651 605L385 162Q376 149 376 137Q376
94 483 88Q516 84 516 51Q516 40 508 20T482 0H47Z" />
<glyph unicode="Y" glyph-name="Y" horiz-adv-x="1260" d="M360 0Q343 0 335 20T326 51Q326 83 369 88Q403 91 441 92T506 105T534 152V534L143 1254Q109 1316 69 1326T-8 1341Q-29 1343 -36 1349T-44 1378Q-44 1389 -35 1404T-10 1419H512Q529 1419 537 1404T546
1378Q546 1345 513 1341Q454 1338 408 1332T361 1302Q361 1295 365 1287L678 655L1001 1287Q1005 1295 1005 1303Q1002 1325 957 1331T853 1341Q820 1345 820 1378Q820 1389 828 1404T854 1419H1269Q1286 1419 1294 1404T1303 1378Q1303 1356 1296 1350T1267 1341Q1230
1337 1190 1327T1116 1254L741 567V165Q741 122 770 108T839 93T913 88Q934 86 946 80T959 51Q959 40 951 20T925 0H360Z" />
<glyph unicode="Z" glyph-name="Z" horiz-adv-x="1232" d="M89 0Q65 0 65 24V40Q65 50 72 66T107 123L812 1201L904 1336H399Q366 1336 331 1295T265 1196T214 1088T192 1019Q188 986 155 986Q144 986 134 994T124 1020L153 1378Q171 1418 200 1419H1142Q1166
1419 1166 1395V1368Q1166 1357 1156 1340L442 248L331 83H835Q861 83 894 113T962 190T1025 287T1072 376T1093 430Q1097 463 1130 463Q1141 463 1157 455T1171 429L1121 41Q1103 1 1074 0H89Z" />
<glyph unicode="[" glyph-name="bracketleft" horiz-adv-x="768" d="M170 -327V1535L612 1536V1439H359V-231H612V-328L170 -327Z" />
<glyph unicode="\" glyph-name="backslash" horiz-adv-x="960" d="M661 -540H526L49 1500H186L661 -540Z" />
<glyph unicode="]" glyph-name="bracketright" horiz-adv-x="768" d="M156 -328V-231H409V1439H156V1536L595 1535V-327L156 -328Z" />
<glyph unicode="^" glyph-name="asciicircum" horiz-adv-x="1317" d="M123 300L598 1428H717L1194 300H1048L657 1270L277 300H123Z" />
<glyph unicode="_" glyph-name="underscore" horiz-adv-x="1317" d="M-25 -296V-190H1342V-296H-25Z" />
<glyph unicode="`" glyph-name="grave" horiz-adv-x="1024" d="M748 1101Q595 1238 493 1301T367 1386Q351 1401 340 1422T328 1467Q328 1504 357 1534Q389 1567 429 1567Q454 1567 476 1557T514 1531Q537 1509 609 1405T804 1159L748 1101Z" />
<glyph unicode="a" glyph-name="a" horiz-adv-x="1032" d="M97 243Q97 342 149 406T288 509T477 568T680 599V753Q680 790 662 829T599 896T474 924Q431 924 410 919T376 907L256 665Q200 665 155 690T109 781Q109 841 159 894T301 980T518 1014Q631 1014 700
986T806 911T856 807T869 689V201Q869 162 880 128T907 94Q921 94 931 95T960 102Q977 107 988 91T1000 59Q1000 48 994 43Q968 24 916 3T802 -19Q750 -19 724 3T698 99V119Q633 51 558 15T377 -21Q317 -21 252 5T142 89T97 243ZM306 248Q306 185 344 138T449 90Q532
90 590 118T679 176V528Q571 512 487 487T355 407T306 248Z" />
<glyph unicode="b" glyph-name="b" horiz-adv-x="1147" d="M190 -32Q169 -32 162 -21T155 12V1339Q155 1401 127 1424T61 1452T-4 1464Q-14 1469 -21 1477T-28 1504Q-28 1516 -22 1532T-4 1549Q96 1555 182 1556T311 1558Q319 1558 329 1550T341 1518V1104L331
875Q382 937 466 975T625 1013Q779 1013 873 939T1011 746T1055 492Q1055 358 1007 239T858 45T603 -30Q511 -30 432 -8T311 74Q286 34 250 1T190 -32ZM566 65Q674 65 733 122T816 275T840 492Q840 612 816 708T731 861T562 918Q504 918 439 885T341 808V170Q397
65 566 65Z" />
<glyph unicode="c" glyph-name="c" horiz-adv-x="930" d="M512 -29Q293 -29 181 114T69 500Q69 662 131 777T301 953T541 1014Q627 1014 707 989T834 887Q857 849 867 816T877 757Q877 712 855 687T806 662Q777 662 758 669T724 710L640 897Q640 897 620 907T556
918Q435 918 360 822T284 490Q284 334 328 244T435 114T550 75Q626 75 689 109T784 208Q787 214 790 221T803 224L853 201Q864 196 864 188Q864 184 862 180T858 173Q814 85 727 28T512 -29Z" />
<glyph unicode="d" glyph-name="d" horiz-adv-x="1176" d="M525 -29Q368 -29 273 45T135 238T92 492Q92 627 140 746T288 939T547 1014Q629 1014 701 997T819 934L809 1104V1339Q809 1386 788 1409T735 1442T672 1455T620 1464Q610 1469 603 1477T596 1504Q596
1516 602 1532T620 1549Q687 1553 755 1555T880 1557T965 1558Q973 1558 983 1550T995 1518V175Q995 111 1032 97T1107 78Q1128 76 1135 70T1143 41Q1143 30 1135 15T1109 0H885Q829 0 819 25T809 97Q757 40 677 6T525 -29ZM588 66Q646 66 711 99T809 176V814Q753
919 584 919Q473 919 413 863T329 711T306 492Q306 373 330 276T415 123T588 66Z" />
<glyph unicode="e" glyph-name="e" horiz-adv-x="990" d="M532 -29Q303 -29 186 110T69 500Q69 667 132 781T298 955T520 1014Q646 1014 725 971T848 850T910 669Q917 631 919 589T922 503H284Q285 345 326 251T429 116T558 75Q634 75 697 109T792 208Q795 214
798 220T811 224L861 201Q872 197 872 189Q872 185 870 181T866 173Q822 85 741 28T532 -29ZM286 589L700 595Q700 769 648 843T519 918Q448 918 398 895T320 802T286 589Z" />
<glyph unicode="f" glyph-name="f" horiz-adv-x="666" d="M97 0Q80 0 72 15T63 41Q63 74 96 78Q133 83 168 96T203 142V907H80Q68 908 62 918T56 941Q56 974 80 984L202 994L203 1142Q204 1270 251 1367T379 1518T558 1573Q654 1573 702 1534T750 1441Q750 1401
731 1372T686 1326T642 1309Q634 1309 631 1312L522 1475Q513 1475 492 1471T447 1442T406 1355T389 1174V994H599Q611 993 617 983T623 960Q623 917 599 907H389V175Q389 132 418 113T487 88T560 78Q581 76 588 70T596 41Q596 30 588 15T562 0H97Z" />
<glyph unicode="g" glyph-name="g" horiz-adv-x="1043" d="M503 -480Q370 -480 270 -439T113 -326T57 -168Q57 -77 110 -31T221 32Q116 78 116 204Q116 267 160 327T261 404Q191 451 160 528T128 680Q128 773 171 849T296 969T491 1014Q574 1014 639 989T750 920Q776
965 818 993T913 1022Q979 1022 1014 978T1049 868Q1049 820 1025 793T973 766L868 931Q846 926 831 914T791 872Q847 790 847 680Q847 589 804 512T679 389T485 343Q433 343 393 347T326 365Q289 352 273 326T257 271Q257 218 296 189T395 160H621Q727 160 800
137T912 50T950 -131Q950 -216 900 -296T751 -428T503 -480ZM489 439Q557 439 594 472T645 560T659 682Q659 783 623 852T485 921Q382 921 348 852T314 682Q314 616 329 561T382 472T489 439ZM523 -383Q563 -383 613 -374T711 -340T788 -272T819 -162Q819 -81 758
-50T612 -19H434Q373 -19 343 -13T289 0Q272 -21 256 -56T239 -149Q239 -231 280 -283T386 -359T523 -383Z" />
<glyph unicode="h" glyph-name="h" horiz-adv-x="1192" d="M74 0Q57 0 49 15T40 41Q40 74 73 78Q110 83 149 96T189 142V1339Q189 1401 163 1424T102 1452T40 1464Q30 1469 23 1477T16 1504Q16 1516 22 1532T40 1549Q140 1555 221 1556T345 1558Q353 1558 363
1550T375 1518V1104L365 845Q383 863 438 903T574 979T749 1014Q814 1014 869 996T957 924T990 766V175Q990 127 1014 108T1070 86T1127 78Q1144 76 1152 70T1160 41Q1160 30 1152 15T1126 0H699Q682 0 674 15T665 41Q665 57 671 67T696 78Q728 80 765 97T802 142V795Q802
812 795 836T760 878T673 896Q611 896 553 876T449 826T375 771V175Q375 111 412 97T487 78Q508 76 515 70T523 41Q523 30 515 15T489 0H74Z" />
<glyph unicode="i" glyph-name="i" horiz-adv-x="600" d="M104 0Q87 0 79 15T70 41Q70 74 103 78Q140 83 179 96T218 142L219 778Q219 840 193 863T132 891T70 903Q60 908 53 916T46 943Q46 955 52 970T70 987Q170 993 251 995T375 997Q383 997 393 989T405 957V175Q405
132 425 113T474 87T527 78Q548 76 555 70T563 41Q563 30 555 15T529 0H104ZM309 1173Q254 1173 221 1213T188 1312Q188 1371 221 1411T309 1451Q364 1451 397 1411T430 1312Q430 1254 397 1214T309 1173Z" />
<glyph unicode="j" glyph-name="j" horiz-adv-x="598" d="M117 -449Q21 -449 -15 -406T-51 -310Q-51 -254 -12 -227T56 -199Q86 -199 99 -235T152 -347Q202 -344 217 -262T232 -16L233 778Q233 840 205 863T139 891T74 903Q64 908 57 916T50 943Q50 955 56 970T74
987Q174 993 260 995T389 997Q397 997 407 989T419 957L418 16Q418 -109 391 -215T297 -385T117 -449ZM302 1173Q247 1173 214 1213T181 1312Q181 1371 214 1411T302 1451Q357 1451 390 1411T423 1312Q423 1254 390 1214T302 1173Z" />
<glyph unicode="k" glyph-name="k" horiz-adv-x="1097" d="M64 0Q47 0 39 15T30 41Q30 74 63 78Q100 82 139 95T179 142V1339Q179 1401 153 1424T92 1452T30 1464Q20 1469 13 1477T6 1504Q6 1516 12 1532T30 1549Q130 1555 211 1556T335 1558Q343 1558 353 1550T365
1518V469L725 842Q740 853 740 863Q740 884 694 894T609 906Q590 908 584 920T578 949Q578 960 586 977T612 994H1019Q1036 994 1044 977T1053 949Q1053 931 1045 919T1020 906Q971 906 921 877T833 819L654 626Q674 591 707 532T783 401T871 261T961 137Q983 110
1006 94T1054 78Q1087 78 1087 41Q1087 30 1079 15T1053 0H789Q749 69 698 159T597 338T513 492L365 342V175Q365 111 402 97T477 78Q498 76 505 70T513 41Q513 30 505 15T479 0H64Z" />
<glyph unicode="l" glyph-name="l" horiz-adv-x="586" d="M73 0Q57 0 47 12T36 41Q36 74 69 78Q106 82 146 95T186 142L187 1339Q187 1401 158 1424T91 1452T26 1464Q16 1469 9 1477T2 1504Q2 1516 8 1532T26 1549Q126 1555 212 1556T341 1558Q349 1558 359 1550T371
1518V175Q371 132 391 113T440 87T493 78Q529 74 529 44Q529 26 519 13T490 0H73Z" />
<glyph unicode="m" glyph-name="m" horiz-adv-x="1804" d="M105 0Q88 0 80 15T71 41Q71 74 104 78Q141 83 180 96T220 142V778Q220 840 193 863T131 891T71 903Q61 908 54 916T47 943Q47 955 53 971T71 988Q168 994 246 995T366 997Q374 997 384 989T396 957V845Q414
863 464 903T591 979T764 1014Q811 1014 859 1001T947 953T1001 850Q1021 872 1072 911T1199 982T1372 1014Q1439 1014 1493 996T1581 924T1614 766V175Q1614 127 1638 108T1694 86T1751 78Q1768 76 1776 70T1784 41Q1784 30 1776 15T1750 0H1323Q1306 0 1298 15T1289
41Q1289 57 1295 67T1320 78Q1352 80 1389 97T1426 142V795Q1426 812 1419 836T1384 878T1297 896Q1203 896 1129 853T1010 771V175Q1010 127 1031 108T1082 86T1137 78Q1154 76 1162 70T1170 41Q1170 30 1162 15T1136 0H719Q702 0 694 15T685 41Q685 57 691 67T716
78Q748 80 785 97T822 142V795Q822 812 815 836T780 878T693 896Q599 896 523 853T406 771V175Q406 111 443 97T518 78Q539 76 546 70T554 41Q554 30 546 15T520 0H105Z" />
<glyph unicode="n" glyph-name="n" horiz-adv-x="1210" d="M103 0Q86 0 78 15T69 41Q69 74 102 78Q139 83 178 96T218 142V778Q218 840 191 863T129 891T69 903Q59 908 52 916T45 943Q45 955 51 971T69 988Q166 994 244 995T364 997Q372 997 382 989T394 957V845Q412
863 467 903T604 979T779 1014Q844 1014 898 996T986 924T1019 766V175Q1019 127 1043 108T1099 86T1156 78Q1173 76 1181 70T1189 41Q1189 30 1181 15T1155 0H728Q711 0 703 15T694 41Q694 57 700 67T725 78Q757 80 794 97T831 142V795Q831 812 824 836T789 878T702
896Q640 896 582 876T478 826T404 771V175Q404 111 441 97T516 78Q537 76 544 70T552 41Q552 30 544 15T518 0H103Z" />
<glyph unicode="o" glyph-name="o" horiz-adv-x="1104" d="M77 492Q77 636 134 754T299 943T557 1014Q707 1014 812 944T972 755T1027 492Q1027 348 971 230T807 42T550 -29Q400 -29 295 41T133 230T77 492ZM292 492Q292 291 347 179T553 66Q704 66 757 178T810
492Q810 693 755 805T549 918Q398 918 345 805T292 492Z" />
<glyph unicode="p" glyph-name="p" horiz-adv-x="1170" d="M60 -426Q44 -426 35 -411T26 -385Q26 -362 33 -356T62 -348Q87 -345 115 -339T163 -314T184 -251V778Q184 840 157 863T95 891T35 903Q25 908 18 916T11 943Q11 955 17 971T35 988Q132 994 215 995T340
997Q348 997 358 989T370 957V894Q423 949 500 981T647 1014Q805 1014 899 940T1036 746T1078 492Q1078 358 1031 239T883 45T625 -30Q546 -30 477 -14T360 43L370 -29V-284Q370 -306 397 -319T465 -338T546 -348Q579 -352 579 -385Q579 -396 571 -411T545 -426H60ZM588
65Q700 65 759 122T841 275T864 492Q864 612 841 708T757 861T584 918Q529 918 467 888T370 817V158Q429 65 588 65Z" />
<glyph unicode="q" glyph-name="q" horiz-adv-x="1146" d="M652 -444Q635 -444 627 -429T618 -403Q618 -370 651 -366Q707 -362 757 -349T807 -302V-29L817 106Q765 45 682 8T525 -30Q368 -30 273 44T135 237T92 491Q92 626 140 745T288 939T547 1014Q636 1014
713 993T833 918Q852 935 871 950T915 978Q926 984 937 990T959 996Q993 996 993 963V-269Q993 -312 1012 -331T1060 -357T1115 -366Q1136 -368 1143 -374T1151 -403Q1151 -414 1143 -429T1117 -444H652ZM588 65Q645 65 709 97T807 172V817Q751 918 584 918Q473
918 413 861T329 708T306 491Q306 371 330 275T415 122T588 65Z" />
<glyph unicode="r" glyph-name="r" horiz-adv-x="839" d="M119 0Q102 0 94 15T85 41Q85 74 118 78Q159 82 196 95T234 142V778Q234 840 208 863T147 891T85 903Q75 908 68 916T61 943Q61 955 67 970T85 986Q185 992 261 997T380 1003Q388 1003 398 995T410 963V818Q457
891 516 952T666 1014Q730 1014 762 993T805 940T816 873Q816 835 793 811T739 774T688 762L593 882Q548 882 497 832T420 716V175Q420 132 448 113T517 87T592 78Q613 76 620 70T628 41Q628 30 620 15T594 0H119Z" />
<glyph unicode="s" glyph-name="s" horiz-adv-x="885" d="M439 -28Q357 -28 313 -13T241 10Q199 23 181 23Q162 23 153 17T122 10Q82 10 82 44Q82 87 79 139T72 240T68 316Q68 339 78 349T102 359Q129 359 135 337Q141 315 151 283T199 178Q238 107 304 82T426
57Q513 57 573 94T633 201Q633 262 593 299T491 365T368 425Q301 459 243 499T148 599T111 749Q111 838 163 897T292 985T440 1014Q535 1014 579 995T649 975Q671 975 674 986T684 1008Q696 1029 716 1029Q729 1029 739 1020T749 994Q749 985 748 948T746 865Q746
818 749 788T752 743Q752 722 744 714T724 706Q699 706 694 722Q677 762 651 810T576 893T444 928Q362 928 319 892T276 795Q276 727 347 681T514 588Q592 551 660 511T771 416T814 283Q814 144 716 58T439 -28Z" />
<glyph unicode="t" glyph-name="t" horiz-adv-x="707" d="M424 -30Q289 -30 229 30T169 223V907H54Q42 908 36 918T30 941Q30 984 58 984Q122 991 163 1018T232 1106T283 1268Q286 1283 297 1287T326 1291Q346 1291 350 1286T355 1267V994H650Q662 993 668 983T674
960Q674 939 666 923T646 907H355V296Q355 211 372 167T415 106T466 89Q535 89 575 102T653 141Q663 148 673 134T690 102T689 78Q668 60 626 35T531 -10T424 -30Z" />
<glyph unicode="u" glyph-name="u" horiz-adv-x="1178" d="M489 -27Q417 -27 352 -5T245 82T203 270V819Q203 862 184 881T137 907T85 916Q64 918 57 924T49 953Q49 964 58 979T83 994H354Q391 994 391 958V261Q391 237 398 202T433 140T520 113Q621 113 683 140T795
220V819Q795 862 771 881T712 906T643 916Q622 918 615 924T607 953Q607 964 616 979T641 994H944Q981 994 981 958V210Q981 137 993 113T1022 88Q1036 88 1046 90T1069 96Q1086 101 1097 85T1109 53Q1109 42 1103 37Q1093 26 1043 1T911 -25Q862 -25 833 11T795
131Q778 99 731 62T620 -1T489 -27Z" />
<glyph unicode="v" glyph-name="v" horiz-adv-x="1017" d="M473 -9L124 829Q94 879 67 895T2 916Q-19 918 -26 924T-34 953Q-34 964 -25 979T0 994H405Q422 994 430 979T439 953Q439 920 406 916Q369 912 335 904T300 862L565 250L808 862Q808 884 787 894T736
909T682 916Q649 920 649 953Q649 964 657 979T683 994H1018Q1035 994 1043 979T1052 953Q1052 931 1045 925T1016 916Q979 912 952 896T894 829L547 -9H473Z" />
<glyph unicode="w" glyph-name="w" horiz-adv-x="1510" d="M414 -9L108 829Q78 879 51 895T-14 916Q-35 918 -42 924T-50 953Q-50 964 -41 979T-16 994H389Q406 994 414 979T423 953Q423 920 390 916Q353 912 319 904T284 862L499 275L729 976H825L1080 278L1281
862Q1281 884 1260 894T1209 909T1155 916Q1122 920 1122 953Q1122 964 1130 979T1156 994H1481Q1498 994 1506 979T1515 953Q1515 931 1508 925T1479 916Q1442 912 1420 896T1367 829L1070 -9H996L731 711L488 -9H414Z" />
<glyph unicode="x" glyph-name="x" horiz-adv-x="1034" d="M49 0Q32 0 24 15T15 41Q15 78 48 78Q99 78 131 107T190 165L428 479L195 829Q158 874 127 892T58 916Q42 918 34 924T25 953Q25 964 33 979T59 994H446Q463 994 471 979T480 953Q480 937 475 928T449
916Q425 913 403 911T380 892Q380 885 393 862L544 592L707 848Q717 863 717 873Q717 895 687 904T631 916Q612 918 606 927T600 953Q600 964 608 979T634 994H957Q974 994 982 979T991 953Q991 916 958 916Q907 916 874 889T811 829L605 534L856 165Q894 120 917
102T977 78Q994 76 1002 70T1010 41Q1010 30 1002 15T976 0H605Q588 0 580 15T571 41Q571 57 576 66T602 78Q625 80 648 85T671 107Q671 118 658 132L484 408L294 146Q286 132 286 122Q286 98 315 90T370 78Q390 76 395 67T401 41Q401 30 393 15T367 0H49Z" />
<glyph unicode="y" glyph-name="y" horiz-adv-x="1008" d="M246 -449Q175 -449 123 -414T70 -326Q70 -258 102 -231T156 -204L280 -326Q306 -321 335 -296T400 -207T477 -28L139 829Q109 879 82 895T17 916Q-4 918 -11 924T-19 953Q-19 964 -11 979T14 994H427Q444
994 452 979T461 953Q461 920 428 916Q391 912 357 904T322 862L566 199L786 862Q786 895 747 903T670 916Q637 920 637 953Q637 964 645 979T671 994H1006Q1023 994 1031 979T1040 953Q1040 931 1033 925T1004 916Q967 912 945 896T892 829L589 -9Q568 -67 538
-142T467 -287T372 -403T246 -449Z" />
<glyph unicode="z" glyph-name="z" horiz-adv-x="909" d="M71 0Q59 0 47 9T34 40Q34 57 45 76T76 123L552 821L622 911H289Q256 911 229 880T182 806T150 722T136 664Q132 631 99 631Q88 631 78 639T68 665L88 953Q88 971 104 982T135 994H813Q825 994 836 983T847
957Q847 936 838 919T821 891L344 193L256 83H613Q646 83 675 115T728 193T765 280T781 340Q785 373 818 373Q829 373 840 365T849 339L829 41Q829 22 813 12T782 0H71Z" />
<glyph unicode="{" glyph-name="braceleft" horiz-adv-x="881" d="M688 -328Q618 -328 542 -300T414 -206T361 -29V358Q361 413 328 456T245 524T142 549H72V659H142Q195 659 245 684T328 752T361 850V1237Q361 1348 413 1413T542 1507T688 1536H821V1449H708Q654
1449 622 1423T576 1357T562 1280V883Q562 802 515 742T392 647T230 609V604Q311 596 387 559T513 463T562 325V-72Q562 -110 576 -149T622 -214T708 -241H821V-328H688Z" />
<glyph unicode="|" glyph-name="bar" horiz-adv-x="768" d="M312 -367V1535H457V-367H312Z" />
<glyph unicode="}" glyph-name="braceright" horiz-adv-x="881" d="M193 -328H60V-241H173Q227 -241 259 -215T305 -149T319 -72V325Q319 403 368 462T494 559T651 604V609Q565 613 489 647T366 741T319 883V1280Q319 1318 305 1357T259 1422T173 1449H60V1536H193Q263
1536 339 1508T467 1414T520 1237V850Q520 796 553 753T636 684T739 659H809V549H739Q687 549 637 524T553 456T520 358V-29Q520 -140 468 -205T339 -299T193 -328Z" />
<glyph unicode="~" glyph-name="asciitilde" horiz-adv-x="1317" d="M856 425Q771 425 710 458T578 521Q540 540 508 548T448 556Q388 556 351 528T290 468T246 428Q242 427 235 427Q219 427 208 439T196 468Q196 479 202 488Q224 525 247 562T301 630Q374 705
472 705Q554 705 613 672T740 609Q778 590 810 582T870 574Q930 574 967 602T1028 662T1072 702Q1076 703 1083 703Q1099 703 1110 691T1122 662Q1122 654 1116 642Q1099 608 1078 577T1027 510Q996 475 950 450T856 425Z" />
<glyph unicode="&#xa1;" glyph-name="exclamdown" horiz-adv-x="678" d="M330 1449Q389 1449 430 1406T471 1307Q471 1251 430 1212T330 1172Q271 1172 231 1211T190 1307Q190 1363 230 1406T330 1449ZM290 997H370Q391 561 426 326T461 40Q461 -18 423 -58T330
-99Q275 -99 237 -59T199 40Q199 90 228 325T290 997Z" />
<glyph unicode="&#xa2;" glyph-name="cent" horiz-adv-x="1137" d="M518 -228V-25Q331 -3 236 136T141 500Q141 720 248 848T518 1006V1225H624V1014Q707 1013 784 987T906 887Q929 849 939 816T949 757Q949 712 927 687T878 662Q849 662 830 669T796 710L712
897Q712 897 692 907T628 918Q547 918 486 879T391 746T356 490Q356 334 397 244T498 114T610 75Q686 75 748 109T844 208Q847 214 850 220T863 224L913 201Q924 197 924 189Q924 185 922 181T918 173Q879 91 807 37T624 -27V-228H518Z" />
<glyph unicode="&#xa3;" glyph-name="sterling" horiz-adv-x="1274" d="M821 -16Q709 -16 628 4T490 51T391 98T318 118H305Q298 102 278 74T226 23T150 0Q122 0 87 16T52 92Q52 133 83 158T156 198T236 221T284 236Q304 280 311 347T318 473V679H119Q107 680
101 690T95 713Q95 756 119 766H318V871Q318 1040 364 1170T518 1374T808 1448Q923 1448 996 1405T1103 1308T1138 1218Q1138 1192 1115 1162T1059 1110T999 1089Q976 1089 966 1106L813 1356H774Q693 1356 638 1311T553 1159T524 873V766H808Q820 765 826 755T832
732Q832 689 808 679H525V603Q525 455 487 347T403 193Q469 174 512 151T604 110T732 88Q864 82 931 138T1008 268L950 418Q951 432 981 455T1055 479Q1126 479 1166 417T1206 275Q1206 182 1151 117T1008 18T821 -16Z" />
<glyph unicode="&#xa4;" glyph-name="currency" horiz-adv-x="1170" d="M225 97L100 213L261 377Q200 466 200 575Q200 683 261 772L100 936L225 1053L388 887Q479 939 588 939Q642 939 691 926T783 889L945 1053L1070 936L910 773Q970 683 970 575Q970 520 954
470T909 377L1070 213L945 97L783 262Q740 238 690 225T584 211Q476 211 387 261L225 97ZM586 364Q663 364 720 416T777 575Q777 682 719 734T583 786Q506 786 449 734T392 575Q392 469 450 417T586 364Z" />
<glyph unicode="&#xa5;" glyph-name="yen" horiz-adv-x="1259" d="M386 0Q369 0 361 10T352 31Q352 64 385 68Q419 71 457 77T523 100T551 152V300H163Q151 301 145 321T139 354Q139 397 163 407H551V634H164Q152 635 146 655T140 688Q140 731 164 741H534L158
1254Q124 1316 77 1331T-8 1351Q-29 1353 -36 1359T-44 1388Q-44 1399 -35 1409T-10 1419H485Q502 1419 510 1409T519 1388Q519 1355 486 1351Q424 1348 386 1338T348 1304Q348 1297 353 1287L675 798L1001 1287Q1006 1297 1006 1304Q1006 1327 969 1337T873 1351Q840
1355 840 1388Q840 1399 848 1409T874 1419H1269Q1286 1419 1294 1409T1303 1388Q1303 1366 1296 1360T1267 1351Q1230 1347 1190 1332T1116 1254L754 741H1093Q1105 740 1111 730T1117 707Q1117 688 1111 664T1093 634H731V407H1092Q1104 406 1110 396T1116 373Q1116
354 1110 330T1092 300H731V165Q731 122 756 103T819 77T889 68Q910 66 917 60T925 31Q925 20 917 10T891 0H386Z" />
<glyph unicode="&#xa6;" glyph-name="brokenbar" horiz-adv-x="768" d="M312 765V1535H457V765H312ZM312 -369V401H457V-369H312Z" />
<glyph unicode="&#xa7;" glyph-name="section" horiz-adv-x="1024" d="M457 -452Q378 -452 327 -420T252 -342T228 -262Q228 -208 268 -175T342 -141L474 -376Q554 -371 604 -305T654 -154Q654 -91 622 -47T530 40T392 144T218 300Q168 351 138 413T108 550Q108
639 150 734T281 912Q249 960 231 1009T213 1111Q213 1212 262 1287T395 1404T584 1446Q664 1446 718 1414T801 1337T829 1256Q829 1221 807 1199T756 1166T703 1156L582 1371Q526 1368 478 1336T400 1253T370 1146Q370 1084 402 1041T492 955T630 851T806 694Q856
644 886 581T916 444Q916 355 874 260T743 82Q775 34 793 -15T811 -120Q811 -219 765 -293T638 -410T457 -452ZM693 145Q709 182 725 228T741 304Q741 357 719 406T665 498T609 568Q572 608 523 658T424 758T336 849Q320 812 304 766T288 690Q288 637 309 588T360
497T415 426Q452 387 503 337T605 236T693 145Z" />
<glyph unicode="&#xa8;" glyph-name="dieresis" horiz-adv-x="1024" d="M179 1384Q179 1443 207 1480T290 1518Q345 1518 373 1481T401 1384Q401 1326 373 1288T290 1250Q235 1250 207 1288T179 1384ZM604 1384Q604 1443 632 1480T715 1518Q770 1518 798 1481T826
1384Q826 1326 798 1288T715 1250Q660 1250 632 1288T604 1384Z" />
<glyph unicode="&#xa9;" glyph-name="copyright" horiz-adv-x="1929" d="M964 -281Q779 -281 617 -212T332 -19T140 266T70 613Q70 798 139 960T332 1246T617 1438T964 1508Q1149 1508 1311 1439T1597 1246T1789 961T1859 613Q1859 428 1790 266T1597 -19T1312
-211T964 -281ZM964 -201Q1131 -201 1276 -137T1533 39T1706 299T1769 613Q1769 780 1707 927T1533 1187T1277 1364T964 1428Q798 1428 652 1364T396 1187T223 927T160 613Q160 447 222 300T395 40T652 -137T964 -201ZM1003 122Q540 122 540 622Q540 789 602 896T772
1054T1012 1105Q1050 1105 1103 1096T1208 1059T1295 979Q1322 938 1333 904T1344 844Q1344 805 1325 784T1281 763Q1229 763 1207 792T1170 855Q1154 888 1147 921T1121 976Q1121 976 1096 994T1027 1013Q946 1013 877 981T766 862T723 612Q723 491 749 414T818
292T909 231T999 213Q1054 213 1108 228T1205 287T1265 414Q1266 420 1268 427T1279 435L1351 436Q1364 436 1365 428T1367 412Q1363 308 1310 244T1175 151T1003 122Z" />
<glyph unicode="&#xaa;" glyph-name="ordfeminine" horiz-adv-x="1024" d="M389 614Q346 614 294 639T204 715T166 842Q166 918 213 971T334 1058T488 1108T634 1124V1239Q634 1377 477 1377Q436 1377 409 1365T372 1341L287 1180Q237 1180 207 1201T176 1256Q176
1304 208 1340T290 1400T397 1436T502 1448Q648 1448 721 1389T795 1239V791Q795 751 805 725T840 699Q862 699 884 705Q898 709 906 700T914 679Q914 675 913 669T910 660Q901 651 849 633T724 614Q682 614 666 636T649 682T647 716Q597 665 526 640T389 614ZM459
710Q531 710 569 734T633 778L634 1056Q561 1056 494 1037T384 973T341 853Q341 824 350 791T385 734T459 710Z" />
<glyph unicode="&#xab;" glyph-name="guillemotleft" horiz-adv-x="1190" d="M570 1041V895L325 554L570 214V70L117 495V614L570 1041ZM1076 1041V895L811 554L1076 214V70L603 495V614L1076 1041Z" />
<glyph unicode="&#xac;" glyph-name="logicalnot" horiz-adv-x="1317" d="M982 125V496H190V622H1128V125H982Z" />
<glyph unicode="&#xad;" glyph-name="uni00AD" horiz-adv-x="0" />
<glyph unicode="&#xae;" glyph-name="registered" horiz-adv-x="1929" d="M964 -281Q779 -281 617 -212T332 -19T140 266T70 613Q70 798 139 960T332 1246T617 1438T964 1508Q1149 1508 1311 1439T1597 1246T1789 961T1859 613Q1859 428 1790 266T1597 -19T1312
-211T964 -281ZM964 -201Q1131 -201 1276 -137T1533 39T1706 299T1769 613Q1769 780 1707 927T1533 1187T1277 1364T964 1428Q798 1428 652 1364T396 1187T223 927T160 613Q160 447 222 300T395 40T652 -137T964 -201ZM585 136Q574 136 569 148T563 167Q563 177
567 188T584 201Q616 203 644 212T673 243V981Q673 1023 642 1032T580 1044Q567 1046 562 1050T557 1069Q557 1089 579 1089H986Q1079 1089 1154 1067T1273 992T1318 847Q1318 744 1247 691T1071 608Q1139 602 1177 568T1239 483T1282 378T1330 278Q1352 235 1376
220T1426 201Q1459 197 1459 167Q1459 160 1454 148T1437 136H1294Q1240 136 1207 167T1155 247T1120 352T1087 456T1041 537T963 568H829V264Q829 222 867 213T941 201Q965 198 965 167Q965 160 960 148T943 136H585ZM829 645H931Q985 645 1038 657T1126 708T1161
827Q1161 907 1131 946T1050 999T936 1012H829V645Z" />
<glyph unicode="&#xaf;" glyph-name="overscore" horiz-adv-x="1317" d="M-5 1242V1383H582V1242H-5Z" />
<glyph unicode="&#xb0;" glyph-name="degree" horiz-adv-x="859" d="M90 1113Q90 1264 186 1357T433 1450Q585 1450 677 1357T770 1113Q770 962 676 868T429 774Q278 774 184 868T90 1113ZM232 1113Q232 998 287 941T431 884Q520 884 574 941T628 1113Q628 1228
573 1284T428 1340Q339 1340 286 1284T232 1113Z" />
<glyph unicode="&#xb1;" glyph-name="plusminus" horiz-adv-x="1317" d="M215 0V126H587V496H195V622H587V1032H733V622H1122V496H733V126H1102V0H215Z" />
<glyph unicode="&#xb2;" glyph-name="uni00B2" horiz-adv-x="1024" d="M149 757V779Q151 802 165 816Q293 898 404 1004T585 1230T654 1466Q654 1517 641 1564T593 1643T490 1674Q413 1674 382 1647T345 1600L310 1485Q303 1463 291 1446T249 1428Q218 1428 181
1447T144 1516Q144 1544 158 1576Q184 1638 279 1688T502 1739Q673 1739 765 1669T858 1466Q858 1365 794 1259T626 1059T401 900H872L865 757H149Z" />
<glyph unicode="&#xb3;" glyph-name="uni00B3" horiz-adv-x="1024" d="M467 732Q393 732 318 757T193 832T143 956Q143 1012 178 1045T246 1078Q279 1078 303 1060T323 1018Q319 997 308 957T285 881Q291 871 309 851T363 815T459 798Q561 798 620 853T679 1018Q679
1112 638 1154T540 1207T434 1218H380Q370 1218 370 1256Q370 1296 380 1296H429Q471 1296 518 1317T600 1382T634 1488Q634 1522 622 1565T577 1641T476 1673Q415 1673 391 1653T348 1598Q340 1570 335 1542T322 1490Q306 1435 261 1435Q233 1435 200 1456T166
1525Q166 1532 168 1546Q176 1601 223 1644T341 1713T496 1739Q647 1739 739 1678T832 1500Q832 1430 793 1381T695 1302T579 1261Q656 1261 725 1240T839 1169T883 1033Q883 897 770 815T467 732Z" />
<glyph unicode="&#xb4;" glyph-name="acute" horiz-adv-x="1024" d="M342 1094L286 1152Q409 1294 481 1398T576 1524Q592 1539 614 1549T661 1560Q679 1560 698 1553T733 1527Q761 1496 761 1461Q761 1437 750 1416T723 1379Q700 1356 598 1294T342 1094Z" />
<glyph unicode="&#xb5;" glyph-name="uni00B5" horiz-adv-x="1186" d="M952 986V208Q952 146 978 123T1039 95T1101 83Q1112 79 1118 71T1125 43Q1125 31 1119 21T1101 9Q1001 3 920 2T796 0Q788 0 778 7T766 39V131Q752 99 714 62T626 -1T522 -27Q460 -27 426
-11T367 37T313 111Q330 -39 342 -155T354 -307Q354 -365 326 -405T243 -446Q188 -446 160 -406T132 -307Q132 -273 140 -171T157 71T166 358V986H354V301Q354 283 360 252T385 189T445 135T553 113Q628 113 678 160T766 260V986H952Z" />
<glyph unicode="&#xb6;" glyph-name="paragraph" horiz-adv-x="1024" d="M208 -287Q191 -287 183 -267T174 -236Q174 -213 181 -207T210 -199Q242 -196 277 -190T337 -165T362 -102V576Q214 617 127 728T40 1000Q40 1156 103 1248T268 1381T482 1421L945 1419Q962
1419 970 1399T979 1368Q979 1346 972 1340T943 1331Q897 1328 859 1314T821 1234V-135Q821 -168 870 -181T967 -199Q1000 -203 1000 -236Q1000 -247 992 -267T966 -287H684V1302H504V-287H208Z" />
<glyph unicode="&#xb7;" glyph-name="middot" horiz-adv-x="572" d="M146 727Q146 783 186 822T286 862Q345 862 386 823T427 727Q427 671 386 628T286 585Q227 585 187 628T146 727Z" />
<glyph unicode="&#xb8;" glyph-name="cedilla" horiz-adv-x="478" d="M203 -488Q139 -488 92 -473T18 -439Q6 -431 13 -417Q21 -401 30 -384T45 -356Q51 -343 67 -349Q84 -355 113 -364T189 -374Q239 -374 272 -349T306 -281Q306 -244 268 -214T150 -182L183 18H300L264
-121Q364 -131 418 -179T473 -292Q473 -363 408 -425T203 -488Z" />
<glyph unicode="&#xb9;" glyph-name="uni00B9" horiz-adv-x="1024" d="M209 757Q196 757 190 766T184 783Q184 800 189 813T210 827Q230 829 266 832T340 840T404 852T430 871L439 1589Q384 1547 319 1514T190 1480Q175 1480 158 1510T141 1565Q142 1581 149 1594T176
1608Q205 1610 266 1620T395 1654T506 1725H631L622 892Q622 871 649 859T715 840T790 831T845 827Q872 826 872 802Q872 757 844 757H209Z" />
<glyph unicode="&#xba;" glyph-name="ordmasculine" horiz-adv-x="1024" d="M511 612Q388 612 301 668T168 820T122 1031Q122 1147 169 1242T304 1393T516 1450Q639 1450 725 1394T857 1242T902 1031Q902 916 856 821T722 669T511 612ZM512 698Q624 698 671 785T718
1031Q718 1189 669 1276T510 1363Q398 1363 351 1276T304 1031Q304 873 352 786T512 698Z" />
<glyph unicode="&#xbb;" glyph-name="guillemotright" horiz-adv-x="1190" d="M134 1041L607 614V495L134 70V214L399 554L134 895V1041ZM640 70V216L885 557L640 897V1041L1093 616V497L640 70Z" />
<glyph unicode="&#xbc;" glyph-name="onequarter" horiz-adv-x="2150" d="M155 504Q142 504 136 513T130 530Q130 547 135 560T156 574Q176 576 212 579T286 587T350 599T376 618L385 1336Q330 1294 265 1261T136 1227Q121 1227 104 1257T87 1312Q88 1328 95 1341T122
1355Q151 1357 212 1367T341 1401T452 1472H577L568 639Q568 618 595 606T661 587T736 578T791 574Q818 573 818 549Q818 504 790 504H155ZM668 0L1337 1419H1474L803 0H668ZM1677 0V210H1177Q1170 210 1163 224T1156 255Q1156 279 1167 298L1491 953Q1499 965
1521 973T1562 982Q1598 982 1632 963T1689 919T1712 873L1306 309H1677V568L1862 583V309H2066L2057 210H1862V0H1677Z" />
<glyph unicode="&#xbd;" glyph-name="onehalf" horiz-adv-x="2150" d="M155 504Q142 504 136 513T130 530Q130 547 135 560T156 574Q176 576 212 579T286 587T350 599T376 618L385 1336Q330 1294 265 1261T136 1227Q121 1227 104 1257T87 1312Q88 1328 95 1341T122
1355Q151 1357 212 1367T341 1401T452 1472H577L568 639Q568 618 595 606T661 587T736 578T791 574Q818 573 818 549Q818 504 790 504H155ZM668 0L1337 1419H1474L803 0H668ZM1255 0V22Q1257 45 1271 59Q1399 141 1510 247T1691 473T1760 709Q1760 760 1747 807T1699
886T1596 917Q1519 917 1488 890T1451 843L1416 728Q1409 706 1397 689T1355 671Q1324 671 1287 690T1250 759Q1250 787 1264 819Q1290 881 1385 931T1608 982Q1779 982 1871 912T1964 709Q1964 608 1900 502T1732 302T1507 143H1978L1971 0H1255Z" />
<glyph unicode="&#xbe;" glyph-name="threequarters" horiz-adv-x="2150" d="M504 479Q430 479 355 504T230 579T180 703Q180 759 215 792T283 825Q316 825 340 807T360 765Q356 744 345 704T322 628Q328 618 346 598T400 562T496 545Q598 545 657 600T716 765Q716
859 675 901T577 954T471 965H417Q407 965 407 1003Q407 1043 417 1043H466Q508 1043 555 1064T637 1129T671 1235Q671 1269 659 1312T614 1388T513 1420Q452 1420 428 1400T385 1345Q377 1317 372 1289T359 1237Q343 1182 298 1182Q270 1182 237 1203T203 1272Q203
1279 205 1293Q213 1348 260 1391T378 1460T533 1486Q684 1486 776 1425T869 1247Q869 1177 830 1128T732 1049T616 1008Q693 1008 762 987T876 916T920 780Q920 644 807 562T504 479ZM719 0L1388 1419H1525L854 0H719ZM1785 0V210H1285Q1278 210 1271 224T1264
255Q1264 279 1275 298L1599 953Q1607 965 1629 973T1670 982Q1706 982 1740 963T1797 919T1820 873L1414 309H1785V568L1970 583V309H2174L2165 210H1970V0H1785Z" />
<glyph unicode="&#xbf;" glyph-name="questiondown" horiz-adv-x="980" d="M532 1450Q591 1450 631 1407T672 1308Q672 1252 632 1213T532 1173Q473 1173 432 1212T391 1308Q391 1364 432 1407T532 1450ZM594 1053V941Q594 850 562 785T484 667T390 561T311 444T279
289Q279 227 297 157T366 37T511 -13Q580 -13 623 11T686 59T707 83L747 313Q752 336 767 343T814 351Q845 351 882 324T920 231Q920 192 902 146Q880 87 827 31T691 -61T495 -98Q343 -98 251 -40T119 108T78 289Q78 371 119 438T220 567T340 688T441 817T482 970V1053H594Z"
/>
<glyph unicode="&#xc0;" glyph-name="Agrave" horiz-adv-x="1374" d="M7 0Q-9 0 -18 15T-27 51Q-27 74 -20 80T9 88Q34 91 63 91T119 106T162 165L620 1441H780L1225 165Q1241 121 1267 107T1322 92T1376 88Q1397 86 1404 80T1412 51Q1412 40 1404 20T1378 0H877Q860
0 852 20T843 51Q843 84 876 88Q937 91 975 93T1013 118Q1013 125 1010 132L889 494H409L287 132Q285 127 285 120Q285 95 327 94T431 88Q464 84 464 51Q464 40 456 20T430 0H7ZM659 1187L440 580H861L659 1187ZM864 1526Q711 1663 609 1726T483 1811Q467 1826
456 1847T444 1892Q444 1929 473 1959Q505 1992 545 1992Q570 1992 592 1982T630 1956Q653 1934 725 1830T920 1584L864 1526Z" />
<glyph unicode="&#xc1;" glyph-name="Aacute" horiz-adv-x="1374" d="M7 0Q-9 0 -18 15T-27 51Q-27 74 -20 80T9 88Q34 91 63 91T119 106T162 165L620 1441H780L1225 165Q1241 121 1267 107T1322 92T1376 88Q1397 86 1404 80T1412 51Q1412 40 1404 20T1378 0H877Q860
0 852 20T843 51Q843 84 876 88Q937 91 975 93T1013 118Q1013 125 1010 132L889 494H409L287 132Q285 127 285 120Q285 95 327 94T431 88Q464 84 464 51Q464 40 456 20T430 0H7ZM659 1187L440 580H861L659 1187ZM586 1526L530 1584Q653 1726 725 1830T820 1956Q836
1971 858 1981T905 1992Q945 1992 977 1959Q1005 1928 1005 1893Q1005 1869 994 1848T967 1811Q944 1789 842 1726T586 1526Z" />
<glyph unicode="&#xc2;" glyph-name="Acircumflex" horiz-adv-x="1374" d="M7 0Q-9 0 -18 15T-27 51Q-27 74 -20 80T9 88Q34 91 63 91T119 106T162 165L620 1441H780L1225 165Q1241 121 1267 107T1322 92T1376 88Q1397 86 1404 80T1412 51Q1412 40 1404 20T1378
0H877Q860 0 852 20T843 51Q843 84 876 88Q937 91 975 93T1013 118Q1013 125 1010 132L889 494H409L287 132Q285 127 285 120Q285 95 327 94T431 88Q464 84 464 51Q464 40 456 20T430 0H7ZM659 1187L440 580H861L659 1187ZM342 1545L587 1893Q604 1914 625 1929T682
1944Q719 1944 740 1927T777 1884L1022 1545H909L682 1766L460 1545H342Z" />
<glyph unicode="&#xc3;" glyph-name="Atilde" horiz-adv-x="1374" d="M7 0Q-9 0 -18 15T-27 51Q-27 74 -20 80T9 88Q34 91 63 91T119 106T162 165L620 1441H780L1225 165Q1241 121 1267 107T1322 92T1376 88Q1397 86 1404 80T1412 51Q1412 40 1404 20T1378 0H877Q860
0 852 20T843 51Q843 84 876 88Q937 91 975 93T1013 118Q1013 125 1010 132L889 494H409L287 132Q285 127 285 120Q285 95 327 94T431 88Q464 84 464 51Q464 40 456 20T430 0H7ZM659 1187L440 580H861L659 1187ZM801 1533Q741 1533 695 1564T606 1625T512 1656Q481
1656 459 1634T421 1589T394 1566Q378 1566 363 1584T348 1624Q348 1651 376 1692T452 1766T559 1799Q615 1799 661 1769T751 1707T848 1676Q879 1676 901 1698T940 1743T966 1766Q982 1766 998 1748T1015 1708Q1015 1682 986 1640T909 1566T801 1533Z" />
<glyph unicode="&#xc4;" glyph-name="Adieresis" horiz-adv-x="1374" d="M7 0Q-9 0 -18 15T-27 51Q-27 74 -20 80T9 88Q34 91 63 91T119 106T162 165L620 1441H780L1225 165Q1241 121 1267 107T1322 92T1376 88Q1397 86 1404 80T1412 51Q1412 40 1404 20T1378
0H877Q860 0 852 20T843 51Q843 84 876 88Q937 91 975 93T1013 118Q1013 125 1010 132L889 494H409L287 132Q285 127 285 120Q285 95 327 94T431 88Q464 84 464 51Q464 40 456 20T430 0H7ZM659 1187L440 580H861L659 1187ZM894 1605Q839 1605 811 1643T783 1739Q783
1798 811 1835T894 1873Q949 1873 977 1836T1005 1739Q1005 1681 977 1643T894 1605ZM470 1605Q415 1605 387 1643T359 1739Q359 1798 387 1835T470 1873Q525 1873 553 1836T581 1739Q581 1681 553 1643T470 1605Z" />
<glyph unicode="&#xc5;" glyph-name="Aring" horiz-adv-x="1374" d="M7 0Q-9 0 -18 15T-27 51Q-27 74 -20 80T9 88Q34 91 63 91T119 106T162 165L620 1441H780L1225 165Q1241 121 1267 107T1322 92T1376 88Q1397 86 1404 80T1412 51Q1412 40 1404 20T1378 0H877Q860
0 852 20T843 51Q843 84 876 88Q937 91 975 93T1013 118Q1013 125 1010 132L889 494H409L287 132Q285 127 285 120Q285 95 327 94T431 88Q464 84 464 51Q464 40 456 20T430 0H7ZM659 1187L440 580H861L659 1187ZM682 1407Q565 1407 483 1477T400 1665Q400 1784
482 1853T682 1922Q798 1922 881 1852T964 1662Q964 1544 881 1476T682 1407ZM682 1512Q768 1512 804 1558T841 1666Q841 1728 805 1773T682 1818Q597 1818 561 1772T524 1664Q524 1602 560 1557T682 1512Z" />
<glyph unicode="&#xc6;" glyph-name="AE" horiz-adv-x="1988" d="M-63 0Q-79 0 -88 20T-97 51Q-97 71 -90 78T-61 88Q-36 91 -7 92T50 109T100 165L686 1318Q624 1321 560 1324T453 1331Q435 1333 426 1342T417 1378Q417 1395 427 1407T451 1419L1732 1418L1767
1054Q1767 1037 1752 1029T1726 1020Q1710 1020 1696 1027T1679 1053Q1677 1071 1660 1114T1615 1204T1550 1286T1473 1320H1079L1078 743H1338Q1364 747 1384 782T1418 857T1433 918Q1435 938 1454 944T1490 951Q1501 951 1516 943T1531 917V474Q1531 457 1516
449T1490 440Q1474 440 1455 447T1433 473Q1431 495 1418 539T1382 620T1332 657H1078V197Q1078 142 1106 122T1167 101H1543Q1578 101 1616 141T1687 238T1743 345T1767 413Q1769 433 1783 439T1814 446Q1825 446 1840 438T1855 412L1812 1L717 0Q700 0 692 20T683
51Q683 84 716 88Q748 91 784 97T845 117T871 152V657H475L234 142Q229 132 229 124Q229 105 275 98T388 88Q425 87 425 51Q425 32 415 16T391 0H-63ZM520 743H872V1311Q863 1312 833 1312T794 1313L520 743Z" />
<glyph unicode="&#xc7;" glyph-name="Ccedilla" horiz-adv-x="1315" d="M752 -30Q632 -30 511 6T288 127T126 353T65 706Q65 904 127 1045T290 1276T506 1407T731 1449Q864 1449 952 1434T1097 1398T1189 1361L1211 1048Q1213 1031 1195 1020T1165 1008Q1162 1008
1160 1008T1154 1007Q1123 1007 1119 1036Q1096 1120 1049 1192T923 1309T729 1353Q665 1353 594 1333T462 1248T361 1055T322 706Q322 498 365 371T476 178T617 88T751 65Q865 65 938 108T1054 224T1112 383Q1118 416 1149 416Q1161 416 1185 408T1210 382L1178
108Q1177 94 1122 61T972 -1T752 -30ZM699 -488Q635 -488 588 -473T514 -439Q502 -431 509 -417Q517 -401 526 -384T541 -356Q547 -343 563 -349Q580 -355 609 -364T685 -374Q735 -374 768 -349T802 -281Q802 -244 764 -214T646 -182L679 18H796L760 -121Q860 -131
914 -179T969 -292Q969 -363 904 -425T699 -488Z" />
<glyph unicode="&#xc8;" glyph-name="Egrave" horiz-adv-x="1338" d="M105 51Q105 84 138 88Q186 92 235 105T284 152V1234Q284 1277 259 1296T198 1321T132 1331Q111 1333 104 1339T96 1368Q96 1379 104 1399T130 1419L1110 1420L1145 1095Q1147 1078 1133 1070T1108
1061Q1092 1061 1074 1066T1044 1094Q1004 1169 979 1219T923 1295T838 1321L498 1320V778L732 779Q758 783 780 817T816 890T833 950Q835 970 849 976T879 982Q890 982 905 974T920 948V505Q920 488 905 480T879 471Q863 471 848 478T830 504Q829 526 815 568T777
647T726 683L498 682V197Q498 142 526 123T587 101L872 102Q962 102 1029 162T1132 374Q1137 393 1160 400T1200 407Q1219 407 1233 399T1249 373L1199 1L139 0Q122 0 114 20T105 51ZM856 1526Q703 1663 601 1726T475 1811Q459 1826 448 1847T436 1892Q436 1929
465 1959Q497 1992 537 1992Q562 1992 584 1982T622 1956Q645 1934 717 1830T912 1584L856 1526Z" />
<glyph unicode="&#xc9;" glyph-name="Eacute" horiz-adv-x="1338" d="M105 51Q105 84 138 88Q186 92 235 105T284 152V1234Q284 1277 259 1296T198 1321T132 1331Q111 1333 104 1339T96 1368Q96 1379 104 1399T130 1419L1110 1420L1145 1095Q1147 1078 1133 1070T1108
1061Q1092 1061 1074 1066T1044 1094Q1004 1169 979 1219T923 1295T838 1321L498 1320V778L732 779Q758 783 780 817T816 890T833 950Q835 970 849 976T879 982Q890 982 905 974T920 948V505Q920 488 905 480T879 471Q863 471 848 478T830 504Q829 526 815 568T777
647T726 683L498 682V197Q498 142 526 123T587 101L872 102Q962 102 1029 162T1132 374Q1137 393 1160 400T1200 407Q1219 407 1233 399T1249 373L1199 1L139 0Q122 0 114 20T105 51ZM578 1526L522 1584Q645 1726 717 1830T812 1956Q828 1971 850 1981T897 1992Q937
1992 969 1959Q997 1928 997 1893Q997 1869 986 1848T959 1811Q936 1789 834 1726T578 1526Z" />
<glyph unicode="&#xca;" glyph-name="Ecircumflex" horiz-adv-x="1338" d="M105 51Q105 84 138 88Q186 92 235 105T284 152V1234Q284 1277 259 1296T198 1321T132 1331Q111 1333 104 1339T96 1368Q96 1379 104 1399T130 1419L1110 1420L1145 1095Q1147 1078 1133
1070T1108 1061Q1092 1061 1074 1066T1044 1094Q1004 1169 979 1219T923 1295T838 1321L498 1320V778L732 779Q758 783 780 817T816 890T833 950Q835 970 849 976T879 982Q890 982 905 974T920 948V505Q920 488 905 480T879 471Q863 471 848 478T830 504Q829 526
815 568T777 647T726 683L498 682V197Q498 142 526 123T587 101L872 102Q962 102 1029 162T1132 374Q1137 393 1160 400T1200 407Q1219 407 1233 399T1249 373L1199 1L139 0Q122 0 114 20T105 51ZM334 1545L579 1893Q596 1914 617 1929T674 1944Q711 1944 732 1927T769
1884L1014 1545H901L674 1766L452 1545H334Z" />
<glyph unicode="&#xcb;" glyph-name="Edieresis" horiz-adv-x="1338" d="M105 51Q105 84 138 88Q186 92 235 105T284 152V1234Q284 1277 259 1296T198 1321T132 1331Q111 1333 104 1339T96 1368Q96 1379 104 1399T130 1419L1110 1420L1145 1095Q1147 1078 1133
1070T1108 1061Q1092 1061 1074 1066T1044 1094Q1004 1169 979 1219T923 1295T838 1321L498 1320V778L732 779Q758 783 780 817T816 890T833 950Q835 970 849 976T879 982Q890 982 905 974T920 948V505Q920 488 905 480T879 471Q863 471 848 478T830 504Q829 526
815 568T777 647T726 683L498 682V197Q498 142 526 123T587 101L872 102Q962 102 1029 162T1132 374Q1137 393 1160 400T1200 407Q1219 407 1233 399T1249 373L1199 1L139 0Q122 0 114 20T105 51ZM886 1605Q831 1605 803 1643T775 1739Q775 1798 803 1835T886 1873Q941
1873 969 1836T997 1739Q997 1681 969 1643T886 1605ZM462 1605Q407 1605 379 1643T351 1739Q351 1798 379 1835T462 1873Q517 1873 545 1836T573 1739Q573 1681 545 1643T462 1605Z" />
<glyph unicode="&#xcc;" glyph-name="Igrave" horiz-adv-x="798" d="M151 0Q134 0 126 20T117 51Q117 85 150 88Q198 92 246 105T295 152L296 1234Q296 1277 271 1296T210 1321T144 1331Q123 1333 116 1339T108 1368Q108 1379 116 1399T142 1419H647Q664 1419
672 1399T681 1368Q681 1334 648 1331Q600 1327 552 1314T503 1267L502 185Q502 142 527 123T588 98T654 88Q675 86 682 80T690 51Q690 40 682 20T656 0H151ZM579 1526Q426 1663 324 1726T198 1811Q182 1826 171 1847T159 1892Q159 1929 188 1959Q220 1992 260
1992Q285 1992 307 1982T345 1956Q368 1934 440 1830T635 1584L579 1526Z" />
<glyph unicode="&#xcd;" glyph-name="Iacute" horiz-adv-x="798" d="M151 0Q134 0 126 20T117 51Q117 85 150 88Q198 92 246 105T295 152L296 1234Q296 1277 271 1296T210 1321T144 1331Q123 1333 116 1339T108 1368Q108 1379 116 1399T142 1419H647Q664 1419
672 1399T681 1368Q681 1334 648 1331Q600 1327 552 1314T503 1267L502 185Q502 142 527 123T588 98T654 88Q675 86 682 80T690 51Q690 40 682 20T656 0H151ZM301 1526L245 1584Q368 1726 440 1830T535 1956Q551 1971 573 1981T620 1992Q660 1992 692 1959Q720
1928 720 1893Q720 1869 709 1848T682 1811Q659 1789 557 1726T301 1526Z" />
<glyph unicode="&#xce;" glyph-name="Icircumflex" horiz-adv-x="798" d="M151 0Q134 0 126 20T117 51Q117 85 150 88Q198 92 246 105T295 152L296 1234Q296 1277 271 1296T210 1321T144 1331Q123 1333 116 1339T108 1368Q108 1379 116 1399T142 1419H647Q664
1419 672 1399T681 1368Q681 1334 648 1331Q600 1327 552 1314T503 1267L502 185Q502 142 527 123T588 98T654 88Q675 86 682 80T690 51Q690 40 682 20T656 0H151ZM57 1545L302 1893Q319 1914 340 1929T397 1944Q434 1944 455 1927T492 1884L737 1545H624L397 1766L175
1545H57Z" />
<glyph unicode="&#xcf;" glyph-name="Idieresis" horiz-adv-x="798" d="M151 0Q134 0 126 20T117 51Q117 85 150 88Q198 92 246 105T295 152L296 1234Q296 1277 271 1296T210 1321T144 1331Q123 1333 116 1339T108 1368Q108 1379 116 1399T142 1419H647Q664 1419
672 1399T681 1368Q681 1334 648 1331Q600 1327 552 1314T503 1267L502 185Q502 142 527 123T588 98T654 88Q675 86 682 80T690 51Q690 40 682 20T656 0H151ZM609 1605Q554 1605 526 1643T498 1739Q498 1798 526 1835T609 1873Q664 1873 692 1836T720 1739Q720
1681 692 1643T609 1605ZM185 1605Q130 1605 102 1643T74 1739Q74 1798 102 1835T185 1873Q240 1873 268 1836T296 1739Q296 1681 268 1643T185 1605Z" />
<glyph unicode="&#xd0;" glyph-name="Eth" horiz-adv-x="1534" d="M139 0Q122 0 114 20T105 51Q105 84 138 88Q186 92 234 105T283 152V694H148Q136 695 130 705T124 728Q124 771 148 781H283V1234Q283 1277 258 1296T197 1321T131 1331Q110 1333 103 1339T95
1368Q95 1379 103 1399T129 1419H725Q929 1418 1069 1361T1294 1207T1417 989T1455 738Q1455 543 1393 403T1229 174T1009 43T777 0H139ZM495 168Q495 154 511 139T571 112T703 101Q794 101 884 120T1047 202T1165 392T1209 734Q1209 920 1162 1035T1039 1213T871
1299T693 1322H496V781H787Q799 780 805 770T811 747Q811 704 787 694H495V168Z" />
<glyph unicode="&#xd1;" glyph-name="Ntilde" horiz-adv-x="1571" d="M96 0Q79 0 71 20T62 51Q62 84 95 88Q127 91 163 98T224 122T250 172V1234Q250 1277 223 1296T158 1321T89 1331Q68 1333 61 1339T53 1368Q53 1379 61 1399T87 1419H425L1202 313H1214V1234Q1214
1277 1182 1296T1107 1321T1034 1331Q1013 1333 1006 1339T998 1368Q998 1379 1006 1399T1032 1419H1487Q1504 1419 1512 1399T1521 1368Q1521 1335 1488 1331Q1458 1328 1417 1322T1344 1296T1313 1234V113Q1313 94 1315 82T1319 40Q1322 -2 1301 -16T1259 -30Q1223
-30 1205 -8L366 1154H349V185Q349 142 379 123T449 98T519 88Q540 86 547 80T555 51Q555 40 547 20T521 0H96ZM926 1533Q866 1533 820 1564T731 1625T637 1656Q606 1656 584 1634T546 1589T519 1566Q503 1566 488 1584T473 1624Q473 1651 501 1692T577 1766T684
1799Q740 1799 786 1769T876 1707T973 1676Q1004 1676 1026 1698T1065 1743T1091 1766Q1107 1766 1123 1748T1140 1708Q1140 1682 1111 1640T1034 1566T926 1533Z" />
<glyph unicode="&#xd2;" glyph-name="Ograve" horiz-adv-x="1524" d="M759 -29Q601 -29 478 29T269 189T139 427T94 716Q94 921 175 1087T407 1351T769 1449Q980 1449 1127 1351T1352 1087T1430 716Q1430 562 1385 427T1253 190T1042 29T759 -29ZM763 65Q929 65
1019 143T1144 367T1180 714Q1180 915 1144 1059T1015 1279T758 1356Q592 1356 502 1280T377 1059T342 714Q342 513 378 368T506 144T763 65ZM930 1526Q777 1663 675 1726T549 1811Q533 1826 522 1847T510 1892Q510 1929 539 1959Q571 1992 611 1992Q636 1992 658
1982T696 1956Q719 1934 791 1830T986 1584L930 1526Z" />
<glyph unicode="&#xd3;" glyph-name="Oacute" horiz-adv-x="1524" d="M759 -29Q601 -29 478 29T269 189T139 427T94 716Q94 921 175 1087T407 1351T769 1449Q980 1449 1127 1351T1352 1087T1430 716Q1430 562 1385 427T1253 190T1042 29T759 -29ZM763 65Q929 65
1019 143T1144 367T1180 714Q1180 915 1144 1059T1015 1279T758 1356Q592 1356 502 1280T377 1059T342 714Q342 513 378 368T506 144T763 65ZM652 1526L596 1584Q719 1726 791 1830T886 1956Q902 1971 924 1981T971 1992Q1011 1992 1043 1959Q1071 1928 1071 1893Q1071
1869 1060 1848T1033 1811Q1010 1789 908 1726T652 1526Z" />
<glyph unicode="&#xd4;" glyph-name="Ocircumflex" horiz-adv-x="1524" d="M759 -29Q601 -29 478 29T269 189T139 427T94 716Q94 921 175 1087T407 1351T769 1449Q980 1449 1127 1351T1352 1087T1430 716Q1430 562 1385 427T1253 190T1042 29T759 -29ZM763 65Q929
65 1019 143T1144 367T1180 714Q1180 915 1144 1059T1015 1279T758 1356Q592 1356 502 1280T377 1059T342 714Q342 513 378 368T506 144T763 65ZM408 1545L653 1893Q670 1914 691 1929T748 1944Q785 1944 806 1927T843 1884L1088 1545H975L748 1766L526 1545H408Z"
/>
<glyph unicode="&#xd5;" glyph-name="Otilde" horiz-adv-x="1524" d="M759 -29Q601 -29 478 29T269 189T139 427T94 716Q94 921 175 1087T407 1351T769 1449Q980 1449 1127 1351T1352 1087T1430 716Q1430 562 1385 427T1253 190T1042 29T759 -29ZM763 65Q929 65
1019 143T1144 367T1180 714Q1180 915 1144 1059T1015 1279T758 1356Q592 1356 502 1280T377 1059T342 714Q342 513 378 368T506 144T763 65ZM867 1533Q807 1533 761 1564T672 1625T578 1656Q547 1656 525 1634T487 1589T460 1566Q444 1566 429 1584T414 1624Q414
1651 442 1692T518 1766T625 1799Q681 1799 727 1769T817 1707T914 1676Q945 1676 967 1698T1006 1743T1032 1766Q1048 1766 1064 1748T1081 1708Q1081 1682 1052 1640T975 1566T867 1533Z" />
<glyph unicode="&#xd6;" glyph-name="Odieresis" horiz-adv-x="1524" d="M759 -29Q601 -29 478 29T269 189T139 427T94 716Q94 921 175 1087T407 1351T769 1449Q980 1449 1127 1351T1352 1087T1430 716Q1430 562 1385 427T1253 190T1042 29T759 -29ZM763 65Q929
65 1019 143T1144 367T1180 714Q1180 915 1144 1059T1015 1279T758 1356Q592 1356 502 1280T377 1059T342 714Q342 513 378 368T506 144T763 65ZM960 1605Q905 1605 877 1643T849 1739Q849 1798 877 1835T960 1873Q1015 1873 1043 1836T1071 1739Q1071 1681 1043
1643T960 1605ZM536 1605Q481 1605 453 1643T425 1739Q425 1798 453 1835T536 1873Q591 1873 619 1836T647 1739Q647 1681 619 1643T536 1605Z" />
<glyph unicode="&#xd7;" glyph-name="multiply" horiz-adv-x="1317" d="M297 103L195 208L555 573L195 939L297 1045L659 678L1020 1045L1122 939L762 573L1122 208L1020 103L659 469L297 103Z" />
<glyph unicode="&#xd8;" glyph-name="Oslash" horiz-adv-x="1524" d="M759 -29Q681 -29 611 -14T480 28L383 -164Q377 -171 366 -171Q348 -171 334 -162Q298 -139 301 -114L396 75Q250 173 172 342T94 716Q94 921 175 1087T407 1351T769 1449Q851 1449 924 1433T1060
1388L1154 1575Q1160 1584 1174 1584Q1186 1584 1196 1578Q1212 1569 1225 1553T1237 1525L1143 1340Q1283 1244 1356 1080T1430 716Q1430 562 1385 427T1253 190T1042 29T759 -29ZM342 714Q342 542 367 411T457 195L1007 1284Q913 1356 758 1356Q592 1356 502
1280T377 1059T342 714ZM763 65Q929 65 1019 143T1144 367T1180 714Q1180 876 1157 1001T1078 1210L530 127Q621 65 763 65Z" />
<glyph unicode="&#xd9;" glyph-name="Ugrave" horiz-adv-x="1549" d="M1296 1230L1294 516Q1293 245 1157 108T781 -29Q600 -29 483 40T308 232T251 516L252 1234Q252 1277 229 1296T174 1322T110 1331Q89 1333 82 1339T74 1368Q74 1379 82 1399T108 1419H616Q633
1419 641 1399T650 1368Q650 1334 617 1331Q565 1327 515 1314T464 1267L463 524Q463 290 542 178T785 65Q943 65 1029 122T1149 281T1183 514V1244Q1183 1278 1151 1295T1077 1320T1007 1331Q986 1333 979 1339T971 1368Q971 1379 979 1399T1005 1419H1470Q1487
1419 1495 1399T1504 1368Q1504 1332 1471 1331Q1394 1327 1345 1303T1296 1230ZM995 1526Q842 1663 740 1726T614 1811Q598 1826 587 1847T575 1892Q575 1929 604 1959Q636 1992 676 1992Q701 1992 723 1982T761 1956Q784 1934 856 1830T1051 1584L995 1526Z"
/>
<glyph unicode="&#xda;" glyph-name="Uacute" horiz-adv-x="1549" d="M1296 1230L1294 516Q1293 245 1157 108T781 -29Q600 -29 483 40T308 232T251 516L252 1234Q252 1277 229 1296T174 1322T110 1331Q89 1333 82 1339T74 1368Q74 1379 82 1399T108 1419H616Q633
1419 641 1399T650 1368Q650 1334 617 1331Q565 1327 515 1314T464 1267L463 524Q463 290 542 178T785 65Q943 65 1029 122T1149 281T1183 514V1244Q1183 1278 1151 1295T1077 1320T1007 1331Q986 1333 979 1339T971 1368Q971 1379 979 1399T1005 1419H1470Q1487
1419 1495 1399T1504 1368Q1504 1332 1471 1331Q1394 1327 1345 1303T1296 1230ZM717 1526L661 1584Q784 1726 856 1830T951 1956Q967 1971 989 1981T1036 1992Q1076 1992 1108 1959Q1136 1928 1136 1893Q1136 1869 1125 1848T1098 1811Q1075 1789 973 1726T717
1526Z" />
<glyph unicode="&#xdb;" glyph-name="Ucircumflex" horiz-adv-x="1549" d="M1296 1230L1294 516Q1293 245 1157 108T781 -29Q600 -29 483 40T308 232T251 516L252 1234Q252 1277 229 1296T174 1322T110 1331Q89 1333 82 1339T74 1368Q74 1379 82 1399T108 1419H616Q633
1419 641 1399T650 1368Q650 1334 617 1331Q565 1327 515 1314T464 1267L463 524Q463 290 542 178T785 65Q943 65 1029 122T1149 281T1183 514V1244Q1183 1278 1151 1295T1077 1320T1007 1331Q986 1333 979 1339T971 1368Q971 1379 979 1399T1005 1419H1470Q1487
1419 1495 1399T1504 1368Q1504 1332 1471 1331Q1394 1327 1345 1303T1296 1230ZM473 1545L718 1893Q735 1914 756 1929T813 1944Q850 1944 871 1927T908 1884L1153 1545H1040L813 1766L591 1545H473Z" />
<glyph unicode="&#xdc;" glyph-name="Udieresis" horiz-adv-x="1549" d="M1296 1230L1294 516Q1293 245 1157 108T781 -29Q600 -29 483 40T308 232T251 516L252 1234Q252 1277 229 1296T174 1322T110 1331Q89 1333 82 1339T74 1368Q74 1379 82 1399T108 1419H616Q633
1419 641 1399T650 1368Q650 1334 617 1331Q565 1327 515 1314T464 1267L463 524Q463 290 542 178T785 65Q943 65 1029 122T1149 281T1183 514V1244Q1183 1278 1151 1295T1077 1320T1007 1331Q986 1333 979 1339T971 1368Q971 1379 979 1399T1005 1419H1470Q1487
1419 1495 1399T1504 1368Q1504 1332 1471 1331Q1394 1327 1345 1303T1296 1230ZM1025 1605Q970 1605 942 1643T914 1739Q914 1798 942 1835T1025 1873Q1080 1873 1108 1836T1136 1739Q1136 1681 1108 1643T1025 1605ZM601 1605Q546 1605 518 1643T490 1739Q490
1798 518 1835T601 1873Q656 1873 684 1836T712 1739Q712 1681 684 1643T601 1605Z" />
<glyph unicode="&#xdd;" glyph-name="Yacute" horiz-adv-x="1260" d="M360 0Q343 0 335 20T326 51Q326 83 369 88Q403 91 441 92T506 105T534 152V534L143 1254Q109 1316 69 1326T-8 1341Q-29 1343 -36 1349T-44 1378Q-44 1389 -35 1404T-10 1419H512Q529 1419
537 1404T546 1378Q546 1345 513 1341Q454 1338 408 1332T361 1302Q361 1295 365 1287L678 655L1001 1287Q1005 1295 1005 1303Q1002 1325 957 1331T853 1341Q820 1345 820 1378Q820 1389 828 1404T854 1419H1269Q1286 1419 1294 1404T1303 1378Q1303 1356 1296
1350T1267 1341Q1230 1337 1190 1327T1116 1254L741 567V165Q741 122 770 108T839 93T913 88Q934 86 946 80T959 51Q959 40 951 20T925 0H360ZM548 1526L492 1584Q615 1726 687 1830T782 1956Q798 1971 820 1981T867 1992Q907 1992 939 1959Q967 1928 967 1893Q967
1869 956 1848T929 1811Q906 1789 804 1726T548 1526Z" />
<glyph unicode="&#xde;" glyph-name="Thorn" horiz-adv-x="1258" d="M139 0Q122 0 114 20T105 51Q105 84 138 88Q186 92 234 105T283 152L284 1234Q284 1277 259 1296T198 1322T132 1331Q111 1333 104 1339T96 1368Q96 1379 104 1399T130 1419H635Q652 1419 660
1399T669 1368Q669 1335 636 1331Q588 1327 540 1314T491 1267V1153L740 1155Q858 1155 961 1118T1128 994T1192 754Q1192 623 1131 523T960 366T699 309H490V185Q490 142 528 123T614 97T692 88Q713 86 720 80T728 51Q728 40 720 20T694 0H139ZM490 395H696Q724
395 769 411T861 466T939 570T971 733Q971 867 927 941T813 1046T663 1076H491L490 395Z" />
<glyph unicode="&#xdf;" glyph-name="germandbls" horiz-adv-x="1123" d="M52 0Q35 0 27 20T18 51Q18 84 51 88Q88 93 117 106T147 152V1061Q147 1189 200 1302T355 1487T605 1559Q689 1559 764 1532T887 1448T935 1296Q935 1222 910 1179T847 1109T773 1060T710
1009T684 928Q684 897 720 858T811 768T919 656T1009 516T1046 344Q1046 242 1007 157T894 22T720 -29Q574 -29 511 30T447 156Q447 198 481 230T576 263L643 89Q643 89 660 72T714 55Q747 55 780 76T835 149T857 294Q857 375 824 435T740 546T640 645T557 749T523
878Q523 934 545 972T601 1039T666 1101T721 1177T744 1288Q744 1375 697 1424T576 1474Q541 1474 499 1465T419 1419T357 1305T333 1093V0H52Z" />
<glyph unicode="&#xe0;" glyph-name="agrave" horiz-adv-x="1032" d="M97 243Q97 342 149 406T288 509T477 568T680 599V753Q680 790 662 829T599 896T474 924Q431 924 410 919T376 907L256 665Q200 665 155 690T109 781Q109 841 159 894T301 980T518 1014Q631
1014 700 986T806 911T856 807T869 689V201Q869 162 880 128T907 94Q921 94 931 95T960 102Q977 107 988 91T1000 59Q1000 48 994 43Q968 24 916 3T802 -19Q750 -19 724 3T698 99V119Q633 51 558 15T377 -21Q317 -21 252 5T142 89T97 243ZM306 248Q306 185 344
138T449 90Q532 90 590 118T679 176V528Q571 512 487 487T355 407T306 248ZM850 1096Q697 1233 595 1296T469 1381Q453 1396 442 1417T430 1462Q430 1499 459 1529Q491 1562 531 1562Q556 1562 578 1552T616 1526Q639 1504 711 1400T906 1154L850 1096Z" />
<glyph unicode="&#xe1;" glyph-name="aacute" horiz-adv-x="1032" d="M97 243Q97 342 149 406T288 509T477 568T680 599V753Q680 790 662 829T599 896T474 924Q431 924 410 919T376 907L256 665Q200 665 155 690T109 781Q109 841 159 894T301 980T518 1014Q631
1014 700 986T806 911T856 807T869 689V201Q869 162 880 128T907 94Q921 94 931 95T960 102Q977 107 988 91T1000 59Q1000 48 994 43Q968 24 916 3T802 -19Q750 -19 724 3T698 99V119Q633 51 558 15T377 -21Q317 -21 252 5T142 89T97 243ZM306 248Q306 185 344
138T449 90Q532 90 590 118T679 176V528Q571 512 487 487T355 407T306 248ZM395 1094L339 1152Q462 1294 534 1398T629 1524Q645 1539 667 1549T714 1560Q732 1560 751 1553T786 1527Q814 1496 814 1461Q814 1437 803 1416T776 1379Q753 1356 651 1294T395 1094Z"
/>
<glyph unicode="&#xe2;" glyph-name="acircumflex" horiz-adv-x="1032" d="M97 243Q97 342 149 406T288 509T477 568T680 599V753Q680 790 662 829T599 896T474 924Q431 924 410 919T376 907L256 665Q200 665 155 690T109 781Q109 841 159 894T301 980T518 1014Q631
1014 700 986T806 911T856 807T869 689V201Q869 162 880 128T907 94Q921 94 931 95T960 102Q977 107 988 91T1000 59Q1000 48 994 43Q968 24 916 3T802 -19Q750 -19 724 3T698 99V119Q633 51 558 15T377 -21Q317 -21 252 5T142 89T97 243ZM306 248Q306 185 344
138T449 90Q532 90 590 118T679 176V528Q571 512 487 487T355 407T306 248ZM413 1110L658 1498Q675 1519 696 1534T753 1549Q790 1549 811 1532T848 1489L1093 1110H980L753 1371L531 1110H413Z" />
<glyph unicode="&#xe3;" glyph-name="atilde" horiz-adv-x="1032" d="M97 243Q97 342 149 406T288 509T477 568T680 599V753Q680 790 662 829T599 896T474 924Q431 924 410 919T376 907L256 665Q200 665 155 690T109 781Q109 841 159 894T301 980T518 1014Q631
1014 700 986T806 911T856 807T869 689V201Q869 162 880 128T907 94Q921 94 931 95T960 102Q977 107 988 91T1000 59Q1000 48 994 43Q968 24 916 3T802 -19Q750 -19 724 3T698 99V119Q633 51 558 15T377 -21Q317 -21 252 5T142 89T97 243ZM306 248Q306 185 344
138T449 90Q532 90 590 118T679 176V528Q571 512 487 487T355 407T306 248ZM598 1117Q559 1117 526 1137T463 1183T406 1230T350 1250Q319 1250 296 1226T257 1178T230 1153Q214 1153 199 1172T183 1216Q183 1245 212 1289T289 1369T398 1405Q430 1405 460 1385T521
1339T582 1292T646 1272Q678 1272 701 1296T740 1345T766 1369Q783 1369 799 1350T816 1306Q816 1278 787 1233T708 1153T598 1117Z" />
<glyph unicode="&#xe4;" glyph-name="adieresis" horiz-adv-x="1032" d="M97 243Q97 342 149 406T288 509T477 568T680 599V753Q680 790 662 829T599 896T474 924Q431 924 410 919T376 907L256 665Q200 665 155 690T109 781Q109 841 159 894T301 980T518 1014Q631
1014 700 986T806 911T856 807T869 689V201Q869 162 880 128T907 94Q921 94 931 95T960 102Q977 107 988 91T1000 59Q1000 48 994 43Q968 24 916 3T802 -19Q750 -19 724 3T698 99V119Q633 51 558 15T377 -21Q317 -21 252 5T142 89T97 243ZM306 248Q306 185 344
138T449 90Q532 90 590 118T679 176V528Q571 512 487 487T355 407T306 248ZM709 1182Q654 1182 626 1220T598 1316Q598 1375 626 1412T709 1450Q764 1450 792 1413T820 1316Q820 1258 792 1220T709 1182ZM285 1182Q230 1182 202 1220T174 1316Q174 1375 202 1412T285
1450Q340 1450 368 1413T396 1316Q396 1258 368 1220T285 1182Z" />
<glyph unicode="&#xe5;" glyph-name="aring" horiz-adv-x="1032" d="M97 243Q97 342 149 406T288 509T477 568T680 599V753Q680 790 662 829T599 896T474 924Q431 924 410 919T376 907L256 665Q200 665 155 690T109 781Q109 841 159 894T301 980T518 1014Q631
1014 700 986T806 911T856 807T869 689V201Q869 162 880 128T907 94Q921 94 931 95T960 102Q977 107 988 91T1000 59Q1000 48 994 43Q968 24 916 3T802 -19Q750 -19 724 3T698 99V119Q633 51 558 15T377 -21Q317 -21 252 5T142 89T97 243ZM306 248Q306 185 344
138T449 90Q532 90 590 118T679 176V528Q571 512 487 487T355 407T306 248ZM497 1122Q380 1122 298 1192T215 1380Q215 1499 297 1568T497 1637Q613 1637 696 1567T779 1377Q779 1259 696 1191T497 1122ZM497 1227Q583 1227 619 1273T656 1381Q656 1443 620 1488T497
1533Q412 1533 376 1487T339 1379Q339 1317 375 1272T497 1227Z" />
<glyph unicode="&#xe6;" glyph-name="ae" horiz-adv-x="1509" d="M374 -24Q318 -24 254 2T146 88T101 243Q101 337 148 400T275 503T448 565T637 599V758Q637 835 593 879T472 924Q429 924 388 919T346 913L220 665Q160 665 129 697T97 781Q97 847 160 899T322
982T523 1013Q607 1013 669 984T769 904Q888 1014 1051 1014Q1186 1014 1267 965T1388 829T1436 627Q1438 597 1439 566T1441 503H821Q822 345 861 251T959 116T1079 75Q1155 75 1218 109T1313 208Q1316 214 1319 220T1332 224L1382 201Q1393 197 1393 189Q1393
185 1391 181T1387 173Q1343 85 1262 28T1053 -29Q824 -29 712 126Q651 51 568 14T374 -24ZM823 589L1219 595Q1219 769 1173 843T1050 918Q985 918 936 895T858 802T823 589ZM446 90Q512 90 558 105T636 141L637 523Q555 512 480 485T358 403T311 252Q311 194
345 142T446 90Z" />
<glyph unicode="&#xe7;" glyph-name="ccedilla" horiz-adv-x="930" d="M512 -29Q293 -29 181 114T69 500Q69 662 131 777T301 953T541 1014Q627 1014 707 989T834 887Q857 849 867 816T877 757Q877 712 855 687T806 662Q777 662 758 669T724 710L640 897Q640 897
620 907T556 918Q435 918 360 822T284 490Q284 334 328 244T435 114T550 75Q626 75 689 109T784 208Q787 214 790 221T803 224L853 201Q864 196 864 188Q864 184 862 180T858 173Q814 85 727 28T512 -29ZM455 -488Q391 -488 344 -473T270 -439Q258 -431 265 -417Q273
-401 282 -384T297 -356Q303 -343 319 -349Q336 -355 365 -364T441 -374Q491 -374 524 -349T558 -281Q558 -244 520 -214T402 -182L435 18H552L516 -121Q616 -131 670 -179T725 -292Q725 -363 660 -425T455 -488Z" />
<glyph unicode="&#xe8;" glyph-name="egrave" horiz-adv-x="990" d="M532 -29Q303 -29 186 110T69 500Q69 667 132 781T298 955T520 1014Q646 1014 725 971T848 850T910 669Q917 631 919 589T922 503H284Q285 345 326 251T429 116T558 75Q634 75 697 109T792 208Q795
214 798 220T811 224L861 201Q872 197 872 189Q872 185 870 181T866 173Q822 85 741 28T532 -29ZM286 589L700 595Q700 769 648 843T519 918Q448 918 398 895T320 802T286 589ZM873 1096Q720 1233 618 1296T492 1381Q476 1396 465 1417T453 1462Q453 1499 482 1529Q514
1562 554 1562Q579 1562 601 1552T639 1526Q662 1504 734 1400T929 1154L873 1096Z" />
<glyph unicode="&#xe9;" glyph-name="eacute" horiz-adv-x="990" d="M532 -29Q303 -29 186 110T69 500Q69 667 132 781T298 955T520 1014Q646 1014 725 971T848 850T910 669Q917 631 919 589T922 503H284Q285 345 326 251T429 116T558 75Q634 75 697 109T792 208Q795
214 798 220T811 224L861 201Q872 197 872 189Q872 185 870 181T866 173Q822 85 741 28T532 -29ZM286 589L700 595Q700 769 648 843T519 918Q448 918 398 895T320 802T286 589ZM418 1094L362 1152Q485 1294 557 1398T652 1524Q668 1539 690 1549T737 1560Q755 1560
774 1553T809 1527Q837 1496 837 1461Q837 1437 826 1416T799 1379Q776 1356 674 1294T418 1094Z" />
<glyph unicode="&#xea;" glyph-name="ecircumflex" horiz-adv-x="990" d="M532 -29Q303 -29 186 110T69 500Q69 667 132 781T298 955T520 1014Q646 1014 725 971T848 850T910 669Q917 631 919 589T922 503H284Q285 345 326 251T429 116T558 75Q634 75 697 109T792
208Q795 214 798 220T811 224L861 201Q872 197 872 189Q872 185 870 181T866 173Q822 85 741 28T532 -29ZM286 589L700 595Q700 769 648 843T519 918Q448 918 398 895T320 802T286 589ZM436 1110L681 1498Q698 1519 719 1534T776 1549Q813 1549 834 1532T871 1489L1116
1110H1003L776 1371L554 1110H436Z" />
<glyph unicode="&#xeb;" glyph-name="edieresis" horiz-adv-x="990" d="M532 -29Q303 -29 186 110T69 500Q69 667 132 781T298 955T520 1014Q646 1014 725 971T848 850T910 669Q917 631 919 589T922 503H284Q285 345 326 251T429 116T558 75Q634 75 697 109T792
208Q795 214 798 220T811 224L861 201Q872 197 872 189Q872 185 870 181T866 173Q822 85 741 28T532 -29ZM286 589L700 595Q700 769 648 843T519 918Q448 918 398 895T320 802T286 589ZM732 1182Q677 1182 649 1220T621 1316Q621 1375 649 1412T732 1450Q787 1450
815 1413T843 1316Q843 1258 815 1220T732 1182ZM308 1182Q253 1182 225 1220T197 1316Q197 1375 225 1412T308 1450Q363 1450 391 1413T419 1316Q419 1258 391 1220T308 1182Z" />
<glyph unicode="&#xec;" glyph-name="igrave" horiz-adv-x="600" d="M104 0Q87 0 79 15T70 41Q70 74 103 78Q140 83 179 96T218 142L219 778Q219 840 193 863T132 891T70 903Q60 908 53 916T46 943Q46 955 52 970T70 987Q170 993 251 995T375 997Q383 997 393
989T405 957V175Q405 132 425 113T474 87T527 78Q548 76 555 70T563 41Q563 30 555 15T529 0H104ZM406 1096Q253 1233 151 1296T25 1381Q9 1396 -2 1417T-14 1462Q-14 1499 15 1529Q47 1562 87 1562Q112 1562 134 1552T172 1526Q195 1504 267 1400T462 1154L406
1096Z" />
<glyph unicode="&#xed;" glyph-name="iacute" horiz-adv-x="600" d="M104 0Q87 0 79 15T70 41Q70 74 103 78Q140 83 179 96T218 142L219 778Q219 840 193 863T132 891T70 903Q60 908 53 916T46 943Q46 955 52 970T70 987Q170 993 251 995T375 997Q383 997 393
989T405 957V175Q405 132 425 113T474 87T527 78Q548 76 555 70T563 41Q563 30 555 15T529 0H104ZM463 1094L407 1152Q530 1294 602 1398T697 1524Q713 1539 735 1549T782 1560Q800 1560 819 1553T854 1527Q882 1496 882 1461Q882 1437 871 1416T844 1379Q821 1356
719 1294T463 1094Z" />
<glyph unicode="&#xee;" glyph-name="icircumflex" horiz-adv-x="600" d="M104 0Q87 0 79 15T70 41Q70 74 103 78Q140 83 179 96T218 142L219 778Q219 840 193 863T132 891T70 903Q60 908 53 916T46 943Q46 955 52 970T70 987Q170 993 251 995T375 997Q383 997
393 989T405 957V175Q405 132 425 113T474 87T527 78Q548 76 555 70T563 41Q563 30 555 15T529 0H104ZM-31 1110L214 1498Q231 1519 252 1534T309 1549Q346 1549 367 1532T404 1489L649 1110H536L309 1371L87 1110H-31Z" />
<glyph unicode="&#xef;" glyph-name="idieresis" horiz-adv-x="600" d="M104 0Q87 0 79 15T70 41Q70 74 103 78Q140 83 179 96T218 142L219 778Q219 840 193 863T132 891T70 903Q60 908 53 916T46 943Q46 955 52 970T70 987Q170 993 251 995T375 997Q383 997 393
989T405 957V175Q405 132 425 113T474 87T527 78Q548 76 555 70T563 41Q563 30 555 15T529 0H104ZM521 1182Q466 1182 438 1220T410 1316Q410 1375 438 1412T521 1450Q576 1450 604 1413T632 1316Q632 1258 604 1220T521 1182ZM97 1182Q42 1182 14 1220T-14 1316Q-14
1375 14 1412T97 1450Q152 1450 180 1413T208 1316Q208 1258 180 1220T97 1182Z" />
<glyph unicode="&#xf0;" glyph-name="eth" horiz-adv-x="1089" d="M70 460Q70 606 124 724T280 911T521 980Q559 980 608 969T702 938T771 889Q754 976 712 1061T615 1219T509 1344L309 1184Q301 1178 291 1186T275 1204Q262 1228 262 1247Q262 1255 265 1261L441
1401Q392 1435 336 1458T213 1491Q206 1492 202 1505T198 1535Q198 1550 201 1562Q212 1602 230 1602Q319 1595 404 1563T558 1489L738 1630Q743 1634 749 1634Q761 1634 770 1618Q785 1591 785 1565Q785 1559 783 1553L633 1438Q758 1324 839 1181T961 889T1001
611Q1001 439 952 296T801 66T538 -20Q397 -20 292 41T129 211T70 460ZM281 462Q281 279 349 177T535 75Q619 75 669 116T743 228T774 392T782 585V590Q782 692 762 756T689 851T534 880Q441 879 386 816T306 657T281 462Z" />
<glyph unicode="&#xf1;" glyph-name="ntilde" horiz-adv-x="1210" d="M103 0Q86 0 78 15T69 41Q69 74 102 78Q139 83 178 96T218 142V778Q218 840 191 863T129 891T69 903Q59 908 52 916T45 943Q45 955 51 971T69 988Q166 994 244 995T364 997Q372 997 382 989T394
957V845Q412 863 467 903T604 979T779 1014Q844 1014 898 996T986 924T1019 766V175Q1019 127 1043 108T1099 86T1156 78Q1173 76 1181 70T1189 41Q1189 30 1181 15T1155 0H728Q711 0 703 15T694 41Q694 57 700 67T725 78Q757 80 794 97T831 142V795Q831 812 824
836T789 878T702 896Q640 896 582 876T478 826T404 771V175Q404 111 441 97T516 78Q537 76 544 70T552 41Q552 30 544 15T518 0H103ZM723 1117Q684 1117 651 1137T588 1183T531 1230T475 1250Q444 1250 421 1226T382 1178T355 1153Q339 1153 324 1172T308 1216Q308
1245 337 1289T414 1369T523 1405Q555 1405 585 1385T646 1339T707 1292T771 1272Q803 1272 826 1296T865 1345T891 1369Q908 1369 924 1350T941 1306Q941 1278 912 1233T833 1153T723 1117Z" />
<glyph unicode="&#xf2;" glyph-name="ograve" horiz-adv-x="1104" d="M77 492Q77 636 134 754T299 943T557 1014Q707 1014 812 944T972 755T1027 492Q1027 348 971 230T807 42T550 -29Q400 -29 295 41T133 230T77 492ZM292 492Q292 291 347 179T553 66Q704 66
757 178T810 492Q810 693 755 805T549 918Q398 918 345 805T292 492ZM898 1096Q745 1233 643 1296T517 1381Q501 1396 490 1417T478 1462Q478 1499 507 1529Q539 1562 579 1562Q604 1562 626 1552T664 1526Q687 1504 759 1400T954 1154L898 1096Z" />
<glyph unicode="&#xf3;" glyph-name="oacute" horiz-adv-x="1104" d="M77 492Q77 636 134 754T299 943T557 1014Q707 1014 812 944T972 755T1027 492Q1027 348 971 230T807 42T550 -29Q400 -29 295 41T133 230T77 492ZM292 492Q292 291 347 179T553 66Q704 66
757 178T810 492Q810 693 755 805T549 918Q398 918 345 805T292 492ZM443 1094L387 1152Q510 1294 582 1398T677 1524Q693 1539 715 1549T762 1560Q780 1560 799 1553T834 1527Q862 1496 862 1461Q862 1437 851 1416T824 1379Q801 1356 699 1294T443 1094Z" />
<glyph unicode="&#xf4;" glyph-name="ocircumflex" horiz-adv-x="1104" d="M77 492Q77 636 134 754T299 943T557 1014Q707 1014 812 944T972 755T1027 492Q1027 348 971 230T807 42T550 -29Q400 -29 295 41T133 230T77 492ZM292 492Q292 291 347 179T553 66Q704
66 757 178T810 492Q810 693 755 805T549 918Q398 918 345 805T292 492ZM205 1110L450 1498Q467 1519 488 1534T545 1549Q582 1549 603 1532T640 1489L885 1110H772L545 1371L323 1110H205Z" />
<glyph unicode="&#xf5;" glyph-name="otilde" horiz-adv-x="1104" d="M77 492Q77 636 134 754T299 943T557 1014Q707 1014 812 944T972 755T1027 492Q1027 348 971 230T807 42T550 -29Q400 -29 295 41T133 230T77 492ZM292 492Q292 291 347 179T553 66Q704 66
757 178T810 492Q810 693 755 805T549 918Q398 918 345 805T292 492ZM646 1117Q607 1117 574 1137T511 1183T454 1230T398 1250Q367 1250 344 1226T305 1178T278 1153Q262 1153 247 1172T231 1216Q231 1245 260 1289T337 1369T446 1405Q478 1405 508 1385T569 1339T630
1292T694 1272Q726 1272 749 1296T788 1345T814 1369Q831 1369 847 1350T864 1306Q864 1278 835 1233T756 1153T646 1117Z" />
<glyph unicode="&#xf6;" glyph-name="odieresis" horiz-adv-x="1104" d="M77 492Q77 636 134 754T299 943T557 1014Q707 1014 812 944T972 755T1027 492Q1027 348 971 230T807 42T550 -29Q400 -29 295 41T133 230T77 492ZM292 492Q292 291 347 179T553 66Q704
66 757 178T810 492Q810 693 755 805T549 918Q398 918 345 805T292 492ZM757 1182Q702 1182 674 1220T646 1316Q646 1375 674 1412T757 1450Q812 1450 840 1413T868 1316Q868 1258 840 1220T757 1182ZM333 1182Q278 1182 250 1220T222 1316Q222 1375 250 1412T333
1450Q388 1450 416 1413T444 1316Q444 1258 416 1220T333 1182Z" />
<glyph unicode="&#xf7;" glyph-name="divide" horiz-adv-x="1317" d="M580 959Q580 1015 620 1054T720 1094Q779 1094 820 1055T861 959Q861 903 820 860T720 817Q661 817 621 860T580 959ZM261 496V622H1188V496H261ZM580 166Q580 222 620 261T720 301Q779 301
820 262T861 166Q861 110 820 67T720 24Q661 24 621 67T580 166Z" />
<glyph unicode="&#xf8;" glyph-name="oslash" horiz-adv-x="1104" d="M77 492Q77 636 134 754T299 943T557 1014Q707 1014 812 944T972 755T1027 492Q1027 348 971 230T807 42T550 -29Q400 -29 295 41T133 230T77 492ZM292 492Q292 291 347 179T553 66Q704 66
757 178T810 492Q810 693 755 805T549 918Q398 918 345 805T292 492ZM813 1109Q819 1118 833 1118Q845 1118 855 1112Q871 1103 884 1087T896 1059L266 -122Q260 -129 249 -129Q231 -129 217 -120Q181 -97 184 -72L813 1109Z" />
<glyph unicode="&#xf9;" glyph-name="ugrave" horiz-adv-x="1178" d="M489 -27Q417 -27 352 -5T245 82T203 270V819Q203 862 184 881T137 907T85 916Q64 918 57 924T49 953Q49 964 58 979T83 994H354Q391 994 391 958V261Q391 237 398 202T433 140T520 113Q621
113 683 140T795 220V819Q795 862 771 881T712 906T643 916Q622 918 615 924T607 953Q607 964 616 979T641 994H944Q981 994 981 958V210Q981 137 993 113T1022 88Q1036 88 1046 90T1069 96Q1086 101 1097 85T1109 53Q1109 42 1103 37Q1093 26 1043 1T911 -25Q862
-25 833 11T795 131Q778 99 731 62T620 -1T489 -27ZM934 1096Q781 1233 679 1296T553 1381Q537 1396 526 1417T514 1462Q514 1499 543 1529Q575 1562 615 1562Q640 1562 662 1552T700 1526Q723 1504 795 1400T990 1154L934 1096Z" />
<glyph unicode="&#xfa;" glyph-name="uacute" horiz-adv-x="1178" d="M489 -27Q417 -27 352 -5T245 82T203 270V819Q203 862 184 881T137 907T85 916Q64 918 57 924T49 953Q49 964 58 979T83 994H354Q391 994 391 958V261Q391 237 398 202T433 140T520 113Q621
113 683 140T795 220V819Q795 862 771 881T712 906T643 916Q622 918 615 924T607 953Q607 964 616 979T641 994H944Q981 994 981 958V210Q981 137 993 113T1022 88Q1036 88 1046 90T1069 96Q1086 101 1097 85T1109 53Q1109 42 1103 37Q1093 26 1043 1T911 -25Q862
-25 833 11T795 131Q778 99 731 62T620 -1T489 -27ZM479 1094L423 1152Q546 1294 618 1398T713 1524Q729 1539 751 1549T798 1560Q816 1560 835 1553T870 1527Q898 1496 898 1461Q898 1437 887 1416T860 1379Q837 1356 735 1294T479 1094Z" />
<glyph unicode="&#xfb;" glyph-name="ucircumflex" horiz-adv-x="1178" d="M489 -27Q417 -27 352 -5T245 82T203 270V819Q203 862 184 881T137 907T85 916Q64 918 57 924T49 953Q49 964 58 979T83 994H354Q391 994 391 958V261Q391 237 398 202T433 140T520 113Q621
113 683 140T795 220V819Q795 862 771 881T712 906T643 916Q622 918 615 924T607 953Q607 964 616 979T641 994H944Q981 994 981 958V210Q981 137 993 113T1022 88Q1036 88 1046 90T1069 96Q1086 101 1097 85T1109 53Q1109 42 1103 37Q1093 26 1043 1T911 -25Q862
-25 833 11T795 131Q778 99 731 62T620 -1T489 -27ZM241 1110L486 1498Q503 1519 524 1534T581 1549Q618 1549 639 1532T676 1489L921 1110H808L581 1371L359 1110H241Z" />
<glyph unicode="&#xfc;" glyph-name="udieresis" horiz-adv-x="1178" d="M489 -27Q417 -27 352 -5T245 82T203 270V819Q203 862 184 881T137 907T85 916Q64 918 57 924T49 953Q49 964 58 979T83 994H354Q391 994 391 958V261Q391 237 398 202T433 140T520 113Q621
113 683 140T795 220V819Q795 862 771 881T712 906T643 916Q622 918 615 924T607 953Q607 964 616 979T641 994H944Q981 994 981 958V210Q981 137 993 113T1022 88Q1036 88 1046 90T1069 96Q1086 101 1097 85T1109 53Q1109 42 1103 37Q1093 26 1043 1T911 -25Q862
-25 833 11T795 131Q778 99 731 62T620 -1T489 -27ZM793 1182Q738 1182 710 1220T682 1316Q682 1375 710 1412T793 1450Q848 1450 876 1413T904 1316Q904 1258 876 1220T793 1182ZM369 1182Q314 1182 286 1220T258 1316Q258 1375 286 1412T369 1450Q424 1450 452
1413T480 1316Q480 1258 452 1220T369 1182Z" />
<glyph unicode="&#xfd;" glyph-name="yacute" horiz-adv-x="1008" d="M246 -449Q175 -449 123 -414T70 -326Q70 -258 102 -231T156 -204L280 -326Q306 -321 335 -296T400 -207T477 -28L139 829Q109 879 82 895T17 916Q-4 918 -11 924T-19 953Q-19 964 -11 979T14
994H427Q444 994 452 979T461 953Q461 920 428 916Q391 912 357 904T322 862L566 199L786 862Q786 895 747 903T670 916Q637 920 637 953Q637 964 645 979T671 994H1006Q1023 994 1031 979T1040 953Q1040 931 1033 925T1004 916Q967 912 945 896T892 829L589 -9Q568
-67 538 -142T467 -287T372 -403T246 -449ZM407 1094L351 1152Q474 1294 546 1398T641 1524Q657 1539 679 1549T726 1560Q744 1560 763 1553T798 1527Q826 1496 826 1461Q826 1437 815 1416T788 1379Q765 1356 663 1294T407 1094Z" />
<glyph unicode="&#xfe;" glyph-name="thorn" horiz-adv-x="1145" d="M31 -444Q15 -444 6 -429T-3 -403Q-3 -380 4 -374T33 -366Q58 -363 86 -357T134 -332T155 -269V1339Q155 1401 127 1424T61 1452T-4 1464Q-14 1469 -21 1477T-28 1504Q-28 1516 -22 1532T-4
1549Q96 1555 182 1556T311 1558Q319 1558 329 1550T341 1518V1104L331 875Q382 937 466 975T625 1013Q779 1013 873 939T1010 746T1053 492Q1053 358 1005 239T858 45T603 -30Q525 -30 456 -15T341 41V-302Q341 -335 394 -348T507 -366Q540 -370 540 -403Q540
-414 532 -429T506 -444H31ZM566 65Q674 65 733 122T815 275T839 492Q839 612 815 708T730 861T562 918Q504 918 439 885T341 808V170Q397 65 566 65Z" />
<glyph unicode="&#xff;" glyph-name="ydieresis" horiz-adv-x="1008" d="M246 -449Q175 -449 123 -414T70 -326Q70 -258 102 -231T156 -204L280 -326Q306 -321 335 -296T400 -207T477 -28L139 829Q109 879 82 895T17 916Q-4 918 -11 924T-19 953Q-19 964 -11 979T14
994H427Q444 994 452 979T461 953Q461 920 428 916Q391 912 357 904T322 862L566 199L786 862Q786 895 747 903T670 916Q637 920 637 953Q637 964 645 979T671 994H1006Q1023 994 1031 979T1040 953Q1040 931 1033 925T1004 916Q967 912 945 896T892 829L589 -9Q568
-67 538 -142T467 -287T372 -403T246 -449ZM721 1182Q666 1182 638 1220T610 1316Q610 1375 638 1412T721 1450Q776 1450 804 1413T832 1316Q832 1258 804 1220T721 1182ZM297 1182Q242 1182 214 1220T186 1316Q186 1375 214 1412T297 1450Q352 1450 380 1413T408
1316Q408 1258 380 1220T297 1182Z" />
<glyph unicode="&#x2013;" glyph-name="endash" horiz-adv-x="1317" d="M106 496V622H1211V496H106Z" />
<glyph unicode="&#x2014;" glyph-name="emdash" horiz-adv-x="1755" d="M106 496V622H1649V496H106Z" />
<glyph unicode="&#x2018;" glyph-name="quoteleft" horiz-adv-x="464" d="M310 1681Q323 1688 339 1688Q357 1688 371 1678T385 1651Q385 1635 376 1621Q318 1557 295 1478T271 1354Q271 1341 272 1336Q273 1330 303 1319T364 1279T394 1190Q394 1132 352 1092T249
1052Q214 1052 176 1068T113 1126T87 1243Q87 1309 112 1378T174 1510T249 1618T310 1681Z" />
<glyph unicode="&#x2019;" glyph-name="quoteright" horiz-adv-x="464" d="M176 1052Q163 1045 147 1045Q129 1045 115 1055T101 1082Q101 1098 110 1112Q169 1176 192 1256T215 1379Q215 1392 214 1397Q213 1403 183 1414T122 1454T92 1543Q92 1602 134 1641T237
1681Q273 1681 310 1665T373 1607T399 1490Q399 1424 374 1355T312 1223T237 1115T176 1052Z" />
<glyph unicode="&#x201a;" glyph-name="quotesinglbase" horiz-adv-x="464" d="M165 -328Q152 -335 136 -335Q118 -335 104 -325T90 -298Q90 -282 99 -268Q158 -204 181 -124T204 -1Q204 12 203 17Q202 23 172 34T111 74T81 163Q81 222 123 261T226 301Q262 301
299 285T362 227T388 110Q388 44 363 -25T301 -157T226 -265T165 -328Z" />
<glyph unicode="&#x201c;" glyph-name="quotedblleft" horiz-adv-x="840" d="M303 1677Q316 1684 332 1684Q350 1684 364 1674T378 1647Q378 1631 369 1617Q311 1553 288 1474T264 1350Q264 1337 265 1332Q266 1326 296 1315T357 1275T387 1186Q387 1128 345 1088T242
1048Q207 1048 169 1064T106 1122T80 1239Q80 1305 105 1374T167 1506T242 1614T303 1677ZM678 1677Q691 1684 707 1684Q725 1684 739 1674T753 1647Q753 1631 744 1617Q686 1553 663 1474T639 1350Q639 1337 640 1332Q641 1326 671 1315T732 1275T762 1186Q762
1128 720 1088T617 1048Q582 1048 544 1064T481 1122T455 1239Q455 1305 480 1374T542 1506T617 1614T678 1677Z" />
<glyph unicode="&#x201d;" glyph-name="quotedblright" horiz-adv-x="840" d="M430 1052Q417 1045 401 1045Q383 1045 369 1055T355 1082Q355 1098 364 1112Q423 1176 446 1256T469 1379Q469 1392 468 1397Q467 1403 437 1414T376 1454T346 1543Q346 1602 388
1641T491 1681Q527 1681 564 1665T627 1607T653 1490Q653 1424 628 1355T566 1223T491 1115T430 1052ZM554 1052Q541 1045 525 1045Q507 1045 493 1055T479 1082Q479 1098 488 1112Q547 1176 570 1256T593 1379Q593 1392 592 1397Q591 1403 561 1414T500 1454T470
1543Q470 1602 512 1641T615 1681Q651 1681 688 1665T751 1607T777 1490Q777 1424 752 1355T690 1223T615 1115T554 1052Z" />
<glyph unicode="&#x201e;" glyph-name="quotedblbase" horiz-adv-x="840" d="M148 -328Q135 -335 119 -335Q101 -335 87 -325T73 -298Q73 -282 82 -268Q141 -204 164 -124T187 -1Q187 12 186 17Q185 23 155 34T94 74T64 163Q64 222 106 261T209 301Q245 301 282
285T345 227T371 110Q371 44 346 -25T284 -157T209 -265T148 -328ZM579 -328Q566 -335 550 -335Q532 -335 518 -325T504 -298Q504 -282 513 -268Q572 -204 595 -124T618 -1Q618 12 617 17Q616 23 586 34T525 74T495 163Q495 222 537 261T640 301Q676 301 713 285T776
227T802 110Q802 44 777 -25T715 -157T640 -265T579 -328Z" />
<glyph unicode="&#x2022;" glyph-name="bullet" horiz-adv-x="804" d="M145 601Q145 723 217 794T401 866Q513 866 585 795T658 601Q658 480 586 408T401 336Q289 336 217 408T145 601Z" />
<glyph unicode="&#x2039;" glyph-name="guilsinglleft" horiz-adv-x="850" d="M648 1041V895L383 554L648 214V70L175 495V614L648 1041Z" />
<glyph unicode="&#x203a;" glyph-name="guilsinglright" horiz-adv-x="850" d="M202 1041L675 614V495L202 70V214L467 554L202 895V1041Z" />
</font>
</defs>
</svg>
