<?xml version="1.0" standalone="no"?>
<!DOCTYPE svg PUBLIC "-//W3C//DTD SVG 1.1//EN" "http://www.w3.org/Graphics/SVG/1.1/DTD/svg11.dtd">
<svg xmlns="http://www.w3.org/2000/svg">
<defs >
<font id="Alkalami" horiz-adv-x="504" ><font-face
    font-family="Alkalami"
    units-per-em="1000"
    panose-1="0 0 0 0 0 0 0 0 0 0"
    ascent="1035"
    descent="-857"
    alphabetic="0" />
<glyph unicode=" " glyph-name="space" horiz-adv-x="200" />
<glyph unicode="!" glyph-name="exclam" horiz-adv-x="263" d="M68 743Q109 737 142 728T203 701Q192 597 183 511T167 343T158 171H98Q93 261 86 342T65 513T30 711L68 743ZM128 119Q143 119 156 117T185 111Q188 96 189 83T191 55Q191 29 185 0Q170 -2 157 -5T128
-8Q116 -8 103 -5T74 0Q72 14 70 27T67 55Q67 70 69 83T74 111Q90 115 103 117T128 119Z" />
<glyph unicode="&quot;" glyph-name="quotedbl" horiz-adv-x="465" d="M95 477Q85 559 80 620T71 741Q98 753 128 753Q148 753 167 749T201 738Q194 686 182 622T139 472L95 477ZM262 477Q252 559 247 620T238 741Q265 753 295 753Q315 753 334 749T368 738Q361
686 349 622T306 472L262 477Z" />
<glyph unicode="#" glyph-name="numbersign" horiz-adv-x="738" d="M428 584L189 -138H93L331 584H428ZM648 584L409 -138H313L552 584H648ZM672 165V85H13V165H672ZM725 359V280H65V359H725Z" />
<glyph unicode="$" glyph-name="dollar" horiz-adv-x="602" d="M288 -65H225Q228 24 229 125T230 330T229 536T225 726H288Q285 637 284 536T283 331T284 125T288 -65ZM378 -65H315Q318 24 319 125T320 330T319 536T315 726H378Q375 637 374 536T373 331T374 125T378
-65ZM307 673Q363 673 422 661T523 627Q512 578 504 542T488 466H422L412 575Q397 595 367 605T304 616Q264 616 232 594T200 530Q200 497 225 475T289 434T373 395T458 348T523 279T548 177Q548 111 510 70T412 9T283 -10Q221 -10 160 5T55 47Q65 92 73 127T89
212H156L170 82Q193 66 220 57T278 48Q326 48 363 71T400 149Q400 191 376 217T313 261T233 296T152 336T89 395T65 488Q65 550 98 591T186 652T307 673Z" />
<glyph unicode="%" glyph-name="percent" horiz-adv-x="770" d="M192 671Q261 671 307 629T353 508Q353 429 307 387T192 345Q122 345 76 387T30 508Q30 587 76 629T192 671ZM192 626Q166 626 149 597T131 508Q131 450 148 420T192 390Q218 390 235 420T252 508Q252
567 235 596T192 626ZM653 683L213 -18H123L562 683H653ZM589 320Q658 320 704 278T750 157Q750 78 704 36T589 -6Q519 -6 473 36T427 157Q427 236 473 278T589 320ZM589 275Q563 275 546 246T528 157Q528 99 545 69T589 39Q615 39 632 69T649 157Q649 216 632
245T589 275Z" />
<glyph unicode="&amp;" glyph-name="ampersand" horiz-adv-x="759" d="M595 104Q620 115 647 129T695 153L709 118Q664 80 629 47T554 -24Q519 -9 467 35T354 145T225 288Q196 322 166 357T114 429T93 507Q93 550 116 585T185 642T294 664Q332 664 382 655T483
620Q476 585 467 544T448 465H395L372 574Q347 597 321 605T265 613Q245 600 238 576T230 532Q230 497 251 465T309 394T394 300Q447 241 496 188T595 104ZM250 363Q214 334 197 295T180 214Q180 174 195 139T240 83T311 61Q363 61 402 85T467 150T507 239T520
335Q520 375 511 409L623 398Q601 254 546 165T417 34T259 -8Q188 -8 139 19T65 89T40 181Q40 224 60 265T123 338T229 387L250 363ZM739 340Q654 349 567 357T397 366L413 420H727L739 340Z" />
<glyph unicode="&apos;" glyph-name="quotesingle" horiz-adv-x="298" d="M95 477Q85 559 80 620T71 741Q98 753 128 753Q148 753 167 749T201 738Q194 686 182 622T139 472L95 477Z" />
<glyph unicode="(" glyph-name="parenleft" horiz-adv-x="354" d="M293 804L319 774Q266 735 231 670T179 525T161 364Q161 283 178 206T229 65T315 -41L289 -78Q200 -31 140 38T50 192T20 364Q20 452 50 536T141 691T293 804Z" />
<glyph unicode=")" glyph-name="parenright" horiz-adv-x="354" d="M61 804Q152 761 212 691T303 537T334 364Q334 276 304 192T215 39T65 -78L39 -41Q91 1 125 65T176 206T193 364Q193 446 176 525T123 669T35 774L61 804Z" />
<glyph unicode="*" glyph-name="asterisk" horiz-adv-x="420" d="M46 482L73 521Q95 521 122 513T175 497Q153 511 128 524T86 553L93 598L140 607Q155 591 168 566T195 518Q189 544 181 570T172 618L211 647L248 618Q248 597 240 571T225 519Q239 542 251 566T279
605L327 598L332 552Q318 537 294 525T246 498Q272 504 298 512T345 521L374 482L345 445Q324 445 298 453T246 468Q269 455 293 442T332 414L325 366L279 361Q264 375 252 400T225 447Q231 422 239 395T248 346L211 319L172 346Q172 368 180 395T196 448Q182 426
169 401T140 359L95 366L86 413Q102 428 127 441T175 469Q150 462 123 454T73 445L46 482Z" />
<glyph unicode="+" glyph-name="plus" horiz-adv-x="571" d="M536 372V289Q461 291 374 291T198 292T35 289V372Q110 371 198 371T373 370T536 372ZM327 80H244Q246 155 246 243T247 418T244 581H327Q326 506 326 419T325 243T327 80Z" />
<glyph unicode="," glyph-name="comma" horiz-adv-x="244" d="M-13 -158Q33 -122 58 -95T96 -47T114 -8Q104 -7 91 -4T69 1Q61 35 61 63Q61 95 69 121Q83 126 96 129T128 133Q163 133 191 122Q201 94 201 62Q201 27 188 -12T136 -97T19 -202L-13 -158Z" />
<glyph unicode="-" glyph-name="hyphen" horiz-adv-x="348" d="M300 310V227H48V310H300Z" />
<glyph unicode="." glyph-name="period" horiz-adv-x="255" d="M123 133Q137 133 152 130T183 122Q192 92 192 62Q192 33 183 1Q167 -3 152 -6T123 -10Q107 -10 93 -7T62 1Q53 33 53 62Q53 92 62 122Q78 127 92 130T123 133Z" />
<glyph unicode="/" glyph-name="slash" horiz-adv-x="438" d="M412 763L111 -138H26L326 763H412Z" />
<glyph unicode="0" glyph-name="zero" horiz-adv-x="565" d="M283 625Q398 625 468 543T538 303Q538 204 506 135T417 30T283 -6Q206 -6 149 30T59 135T27 303Q27 460 97 542T283 625ZM277 572Q251 572 225 546T182 461T164 303Q164 210 182 154T229 72T290 47Q316
47 341 72T384 153T401 303Q401 402 384 461T338 546T277 572Z" />
<glyph unicode="1" glyph-name="one" horiz-adv-x="565" d="M366 630Q365 563 365 517T364 439T363 378T362 319Q362 274 362 236T364 158T366 70L488 45L472 0Q444 2 394 2T293 3Q265 3 229 3T158 2T102 0L86 45L213 70Q215 117 215 154T216 226T217 305Q217
344 217 370T216 423T213 490L95 487L77 537Q134 545 197 566T312 630H366Z" />
<glyph unicode="2" glyph-name="two" horiz-adv-x="565" d="M51 459Q100 539 166 584T310 629Q356 629 398 613T468 561T496 470Q496 440 488 413T459 354T398 281T295 184T139 47L154 106Q174 105 195 105T240 105Q275 105 318 106T407 109T491 114L507 0Q453
2 398 3T279 4Q231 4 196 4T131 3T69 0L51 41Q140 132 199 192T293 294T342 364T357 424Q357 470 327 498T247 527Q203 527 164 505T74 427L51 459ZM422 105Q434 135 442 161T461 215H514Q510 174 508 131T506 45Q506 34 506 23T507 0L422 105Z" />
<glyph unicode="3" glyph-name="three" horiz-adv-x="565" d="M267 -8Q221 -8 165 10T55 80L74 124Q115 90 160 73T247 55Q301 55 337 87T374 174Q374 215 352 243T293 285T215 300L198 346Q234 384 258 410T301 461T339 515Q321 516 303 516T258 517Q231 517
210 517T159 514Q149 492 141 468T122 417H73Q77 465 77 521T78 620Q122 619 170 618T263 617Q316 617 362 618T460 620L470 547Q434 511 397 477T329 409Q394 395 433 365T491 295T509 212Q509 158 481 108T398 25T267 -8Z" />
<glyph unicode="4" glyph-name="four" horiz-adv-x="565" d="M435 628Q434 534 434 450T434 279Q434 232 434 193T434 111T436 10H292Q295 66 295 109T296 203Q296 255 295 303T294 416Q249 348 219 306T160 228Q186 223 234 222T330 220Q375 220 402 220T450
221T489 223T537 228V146Q497 148 457 149T370 150T261 150Q225 150 198 150T137 149T50 146L27 198Q115 296 207 402T381 628H435ZM435 70L532 45L515 0Q496 1 474 1T419 2T333 3Q311 3 281 3T220 2T167 0L150 45L295 70H435Z" />
<glyph unicode="5" glyph-name="five" horiz-adv-x="565" d="M77 321Q85 368 90 422T98 529T102 620Q146 619 181 619T266 618Q284 618 311 618T368 618T424 619T465 620L461 497Q431 506 387 511T297 519T217 521T172 522Q165 499 161 475T155 423Q174 426 191
427T237 428Q319 428 376 397T464 317T494 215Q494 140 455 91T350 17T207 -8Q139 -8 70 10L78 64Q137 46 195 46Q243 46 282 59T344 101T368 172Q368 205 350 233T295 279T204 297Q170 297 147 294T107 286L77 321Z" />
<glyph unicode="6" glyph-name="six" horiz-adv-x="565" d="M172 347Q195 368 232 384T311 400Q380 400 425 372T492 300T515 206Q515 154 490 106T414 26T289 -6Q211 -6 158 27T78 115T51 232Q51 326 99 409T237 551T452 633L469 595Q328 556 262 466T196 248Q196
148 226 98T293 47Q321 47 339 66T366 117T375 183Q375 221 365 256T334 313T284 336Q255 336 234 326T201 304T184 284L172 347Z" />
<glyph unicode="7" glyph-name="seven" horiz-adv-x="565" d="M145 510Q134 483 126 458T109 408H60Q63 467 64 524T66 620Q112 619 167 618T265 617Q333 617 380 618T476 620L504 575Q443 473 407 386T354 226T330 96T319 0H172Q192 116 249 246T401 510Q347
513 307 514T230 514T145 510Z" />
<glyph unicode="8" glyph-name="eight" horiz-adv-x="565" d="M473 486Q473 462 456 432T404 375T314 334L267 366Q310 383 331 403T359 443T366 478Q366 527 337 552T272 577Q243 577 223 557T202 505Q202 477 224 456T281 415T356 376T430 329T488 267T510 181Q510
124 481 82T401 17T280 -6Q202 -6 152 18T79 81T55 163Q55 196 73 232T131 299T236 347L269 325Q222 296 204 252T186 167Q186 127 201 101T241 62T291 48Q325 48 351 71T378 141Q378 178 356 204T299 251T225 291T151 334T94 389T72 464Q72 513 98 550T171 608T281
629Q348 629 390 609T453 556T473 486Z" />
<glyph unicode="9" glyph-name="nine" horiz-adv-x="565" d="M395 276Q372 255 333 239T252 223Q184 223 139 251T71 323T48 417Q48 469 73 517T148 597T274 629Q353 629 406 596T488 508T516 391Q516 297 471 214T338 72T125 -10L108 28Q249 67 310 157T371 375Q371
442 356 486T318 553T270 576Q243 576 225 557T197 506T188 440Q188 403 198 368T229 310T279 287Q308 287 330 297T366 319T383 339L395 276Z" />
<glyph unicode=":" glyph-name="colon" horiz-adv-x="257" d="M123 140Q137 140 152 137T183 129Q192 99 192 69Q192 40 183 8Q167 4 152 1T123 -3Q107 -3 93 0T62 8Q53 40 53 69Q53 99 62 129Q78 134 92 137T123 140ZM123 439Q137 439 152 436T183 428Q192 398
192 368Q192 339 183 307Q167 303 152 300T123 296Q107 296 93 299T62 307Q53 339 53 368Q53 398 62 428Q78 433 92 436T123 439Z" />
<glyph unicode=";" glyph-name="semicolon" horiz-adv-x="304" d="M-13 -158Q33 -122 58 -95T96 -47T114 -8Q104 -7 91 -4T69 1Q61 35 61 63Q61 95 69 121Q83 126 96 129T128 133Q163 133 191 122Q201 94 201 62Q201 27 188 -12T136 -97T19 -202L-13 -158ZM132
413Q146 413 161 410T192 402Q201 372 201 342Q201 313 192 281Q176 277 161 274T132 270Q116 270 102 273T71 281Q62 313 62 342Q62 372 71 402Q87 407 101 410T132 413Z" />
<glyph unicode="&lt;" glyph-name="less" horiz-adv-x="571" d="M35 370L530 600V520L67 298V371L530 149V69L35 300V370Z" />
<glyph unicode="=" glyph-name="equal" horiz-adv-x="571" d="M536 301V218Q461 220 374 220T198 221T35 218V301Q110 300 198 300T373 299T536 301ZM536 471V388Q461 390 374 390T198 391T35 388V471Q110 470 198 470T373 469T536 471Z" />
<glyph unicode="&gt;" glyph-name="greater" horiz-adv-x="571" d="M530 370V300L35 69V149L498 371V298L35 520V600L530 370Z" />
<glyph unicode="?" glyph-name="question" horiz-adv-x="458" d="M188 721Q264 721 313 690T388 608T413 502Q413 447 388 395T311 309T183 272Q181 250 180 227T177 171H115Q112 210 108 242T99 312T86 398Q95 397 106 397T142 397Q226 397 260 436T294 533Q294
571 284 601T256 656Q250 657 245 657T233 657Q196 657 167 648T111 625L91 520H41Q34 564 25 604T5 687Q40 702 86 711T188 721ZM147 117Q162 117 175 115T204 109Q207 94 208 81T210 53Q210 27 204 -2Q189 -4 176 -7T147 -10Q135 -10 122 -7T93 -2Q91 12 89 25T86
53Q86 68 88 81T93 109Q109 113 122 115T147 117Z" />
<glyph unicode="@" glyph-name="at" horiz-adv-x="740" d="M365 -134Q302 -134 242 -114T132 -52T54 49T25 187Q25 276 54 342T134 452T247 519T375 541Q460 541 523 514T629 442T693 342T715 231Q715 177 695 128T633 43T527 -8Q481 -5 454 15T415 63T403 115Q403
127 408 156T422 223T439 299T455 368T465 414Q496 414 531 400T587 374Q567 327 552 277T527 184T518 115Q518 95 521 76T539 42Q595 57 628 103T662 222Q662 312 623 373T518 464T369 495Q315 495 264 478T173 423T108 327T84 187Q84 117 109 66T175 -20T268
-71T372 -88Q432 -88 494 -72T615 -19L633 -53Q569 -96 500 -115T365 -134ZM271 -4Q228 -4 200 20T158 84T144 169Q144 213 156 258T193 340T254 399T337 422Q367 422 392 409T432 377L418 321Q404 338 387 355T350 372Q324 357 305 322T276 243T266 161Q266 124
276 98T309 72Q336 72 361 105T408 193T442 312L444 176Q431 134 407 93T349 24T271 -4Z" />
<glyph unicode="A" glyph-name="A" horiz-adv-x="715" d="M384 664Q443 499 510 346T635 59L713 38L700 0Q669 2 631 2T561 3Q543 3 514 3T455 2T408 0L394 38L472 59Q442 136 397 246T299 481L384 664ZM384 664Q377 646 371 631T357 595T342 538Q323 486 300
422T252 291T207 164T176 59L250 38L237 0Q173 3 119 3Q69 3 15 0L2 38L76 59Q95 94 120 147T174 266T232 401T287 538T333 664H384ZM477 225V147Q434 152 396 153T325 154Q291 154 259 153T187 147V224Q226 219 258 217T325 215Q357 215 395 217T477 225Z" />
<glyph unicode="B" glyph-name="B" horiz-adv-x="644" d="M33 0L20 38L108 59Q110 145 111 223T113 379Q113 441 112 493T108 597L20 621L30 660Q62 658 99 657T182 656Q227 656 274 658T362 660Q429 660 469 638T528 580T546 504Q546 458 519 420T443 360T331
337Q335 337 324 337T297 336T270 335Q262 335 248 335T220 337T202 341V390Q233 385 255 383T301 380Q319 380 324 380T332 380T348 382Q375 398 388 427T401 489Q401 532 379 566T308 601Q293 601 282 599T259 592Q259 523 259 467T258 377T257 344Q257 284 257
242T257 169T257 113T259 62L256 43Q252 39 251 32T245 18T224 7T178 3Q133 4 99 3T33 0ZM347 -1Q312 -1 276 1T178 3Q176 3 185 10T208 29T232 52T247 70Q279 60 302 57T348 53Q406 67 430 103T455 180Q455 215 439 247T389 301T305 322Q294 322 267 320T200 313L205
359Q237 363 272 365T336 367Q416 367 476 349T570 290T604 183Q604 132 577 91T493 24T347 -1Z" />
<glyph unicode="C" glyph-name="C" horiz-adv-x="651" d="M578 156L616 106Q553 48 494 22T358 -5Q263 -5 191 38T80 158T40 335Q40 398 60 458T120 566T221 642T365 671Q428 671 490 658T607 618Q597 575 588 530T570 440H512L492 556Q453 585 401 596T292 608Q231
575 206 508T181 358Q181 269 208 205T282 106T388 71Q443 71 484 92T578 156Z" />
<glyph unicode="D" glyph-name="D" horiz-adv-x="728" d="M181 656Q222 656 261 658T361 660Q420 660 476 640T578 580T651 479T678 334Q678 246 649 183T573 79T471 19T364 -1Q315 -1 275 1T184 3L258 76Q300 63 339 59T410 55Q449 80 474 121T511 212T523 315Q523
370 511 422T474 516T414 582T333 607Q310 607 293 604T258 596Q257 539 257 477T257 356Q257 283 257 212T259 73L300 30L289 1Q272 2 258 2T228 2T184 3Q134 4 99 3T33 0L20 38L108 58Q110 153 112 225T114 356Q114 424 113 486T109 597L21 621L33 660Q63 659
84 658T127 657T181 656Z" />
<glyph unicode="E" glyph-name="E" horiz-adv-x="602" d="M416 371V287Q393 291 377 293T343 297T293 299Q269 299 242 298T181 292V366Q216 363 241 362T291 360Q322 360 341 361T376 365T416 371ZM445 454Q444 424 443 395T441 333Q441 300 442 263T445 204H390L357
308V351L390 454H445ZM567 0Q479 3 188 3Q153 3 120 3T32 0L20 38L108 59Q110 140 111 218T113 376Q113 439 112 492T108 597L20 621L33 660Q83 658 123 657T192 656Q221 656 262 656T348 656T435 657T509 658T557 660Q554 597 552 549T549 462H485L467 567Q442
580 407 586T333 592Q315 592 297 591T259 587Q258 497 258 417T257 263Q257 217 257 169T259 69Q276 67 294 66T330 64Q370 64 408 70T471 89L494 210H558Q558 164 560 108T567 0Z" />
<glyph unicode="F" glyph-name="F" horiz-adv-x="579" d="M418 371V287Q396 291 379 293T342 297T290 299Q266 299 242 298T183 292V366Q217 363 241 362T290 360Q322 360 342 361T379 365T418 371ZM447 454Q446 424 445 392T443 328Q443 297 444 265T447 204H392L359
308V351L392 454H447ZM25 38L110 59Q112 130 113 199T115 335Q115 403 114 471T110 597L20 621L33 660Q59 659 79 658T123 657T182 656Q212 656 262 656T369 656T477 658T559 660Q557 608 555 559T551 462H487L469 568Q434 583 383 589T261 587Q261 522 261 468T260
376T259 325Q259 259 259 215T259 136T261 68L382 37L369 0Q336 1 310 1T255 2T182 3Q142 3 109 3T38 0L25 38Z" />
<glyph unicode="G" glyph-name="G" horiz-adv-x="738" d="M481 93Q483 122 484 144T485 189Q485 211 484 232T480 274L391 301L402 338Q436 336 476 335T560 334Q598 334 633 335T705 338L718 301L630 274Q629 250 628 226T628 175Q628 145 630 113T634 42Q576
24 517 9T377 -7Q287 -7 224 21T121 97T64 204T45 327Q45 393 65 454T126 565T231 642T384 671Q447 671 505 661T624 622Q614 576 605 531T589 439H522L502 571Q454 591 412 599T312 607Q257 567 231 500T205 345Q205 291 215 239T247 145T302 78T382 53Q412 53
435 63T481 93Z" />
<glyph unicode="H" glyph-name="H" horiz-adv-x="773" d="M335 660L346 621L258 597Q257 491 257 420T256 325Q256 260 256 214T256 132T258 59L346 38L335 0Q281 3 183 3Q137 3 101 2T33 0L20 38L108 59Q110 144 111 214T112 359Q112 411 111 469T108 597L20
621L32 660Q64 658 103 657T188 655Q228 655 268 657T335 660ZM552 368V296Q465 302 378 302Q338 302 299 301T222 297V367Q260 365 299 364T378 362Q465 362 552 368ZM742 660L753 621L665 597Q665 521 665 460T664 344T663 234Q663 194 663 151T665 59L753 38L742
0Q688 3 592 3Q546 3 509 2T440 0L427 38L515 59Q517 144 518 213T520 354Q520 407 519 466T515 597L427 621L439 660Q470 658 510 657T596 655Q636 655 675 657T742 660Z" />
<glyph unicode="I" glyph-name="I" horiz-adv-x="393" d="M350 660L363 621L272 597Q272 512 272 447T271 325T271 204T272 59L363 38L350 0Q296 3 198 3Q152 3 113 2T43 0L30 38L122 59Q124 140 125 203T127 323T126 446T122 597L30 621L43 660Q82 658 119 657T202
656Q243 656 283 657T350 660Z" />
<glyph unicode="J" glyph-name="J" horiz-adv-x="396" d="M276 177Q275 130 267 88T234 5T164 -82T39 -182L5 -139Q52 -93 78 -50T116 47T130 175Q135 312 131 422T125 595L29 621L39 660Q62 659 84 658T135 657T204 656Q263 656 295 657T354 660L366 621L277
595Q277 540 277 480T278 346T276 177Z" />
<glyph unicode="K" glyph-name="K" horiz-adv-x="740" d="M33 0L20 38L108 59Q110 115 111 156T112 234T113 312Q113 368 112 440T108 595L20 621L32 660Q64 658 103 657T188 656Q231 656 266 657T336 660L347 621L258 595Q258 529 258 483T257 397T257 312Q257
263 257 196T258 59L347 38L336 0Q282 3 184 3Q138 3 101 2T33 0ZM701 0Q641 3 588 3Q554 3 520 2T468 1Q441 48 418 86T373 160T326 235T267 324Q286 338 310 352T355 378T383 399Q424 334 460 278T533 169T614 59L715 38L701 0ZM353 313L267 324Q329 379 370
422T442 508T505 600L424 621L436 660Q471 658 501 658T565 657Q633 657 685 660L697 621L610 600Q540 526 478 457T353 313Z" />
<glyph unicode="L" glyph-name="L" horiz-adv-x="604" d="M20 621L33 660Q69 658 103 657T184 656Q227 656 273 657T361 660L375 621L261 598Q260 515 260 448T260 313Q260 261 260 194T261 69Q323 62 376 66T473 89L496 210H560Q560 164 562 107T569 0Q447 2
352 2T188 3Q137 3 101 2T33 0L21 38L110 59Q112 138 113 196T115 303Q115 371 115 443T110 597L20 621Z" />
<glyph unicode="M" glyph-name="M" horiz-adv-x="965" d="M685 660L756 599Q711 514 676 440T609 296T547 151T484 -9H430L439 97Q507 220 565 359T685 660ZM204 589Q199 539 196 474T192 337T191 194T194 59L301 38L287 0Q250 2 220 2T151 3Q104 3 73 3T15 0L2
38L102 59Q110 145 115 237T123 421T126 591L27 619L43 660Q75 659 102 658T164 657Q194 657 223 658T275 660Q308 586 337 522T395 398T456 278T528 149L484 -9H430Q393 72 365 131T313 238T267 329T222 419T169 525L204 589ZM913 660L929 619L836 591Q839 523
841 469T845 369T849 276T853 178T860 59L953 38L937 0Q911 2 878 2T786 3Q732 3 698 2T633 0L619 38L712 59Q710 167 707 255T699 428T688 608L685 660Q707 659 734 658T789 657Q821 657 854 658T913 660Z" />
<glyph unicode="N" glyph-name="N" horiz-adv-x="774" d="M266 660Q320 577 377 503T493 354T615 199L599 -10H589Q527 80 474 151T371 282T274 402T175 530Q180 567 196 592T233 633T266 660ZM266 660L199 568Q199 546 199 489T199 359Q199 297 202 227T212 59L313
38L299 0Q272 2 234 2T163 3Q133 3 99 2T33 0L20 38L121 59Q126 140 128 214T131 361Q131 420 130 477T126 594L22 621L34 660Q96 657 156 657Q180 657 213 658T266 660ZM740 660L754 621L666 600Q660 494 658 404T655 225Q655 169 656 112T658 -10H595L583 33Q586
84 587 127T589 223Q589 306 586 401T574 600L487 621L499 660Q530 659 558 658T617 656Q649 656 681 657T740 660Z" />
<glyph unicode="O" glyph-name="O" horiz-adv-x="715" d="M357 670Q434 670 493 642T592 567T654 460T675 337Q675 268 656 206T599 95T501 18T361 -10Q281 -10 221 18T120 95T60 206T40 338Q40 428 74 503T179 624T357 670ZM537 296Q537 358 523 415T482 516T420
587T338 613Q282 613 247 579T195 489T178 370Q178 308 192 250T234 146T298 74T379 47Q436 47 470 82T521 175T537 296Z" />
<glyph unicode="P" glyph-name="P" horiz-adv-x="619" d="M359 660Q471 660 525 609T579 473Q579 409 548 361T458 285T318 258Q300 258 274 261T219 270V333Q252 326 275 322T317 317Q331 317 343 318T366 322Q398 343 413 380T429 460Q429 496 418 528T385 581T331
602Q311 602 294 600T264 595Q264 567 264 523T264 430T264 341T264 278Q264 244 264 224T264 190T264 162T264 125T264 64L374 38L360 0Q308 3 189 3Q140 3 103 2T35 0L20 38L113 59Q115 104 116 160T117 272T118 366Q118 418 118 454T116 523T113 596L24 622L35
660Q66 659 89 658T135 657T188 656Q219 656 244 657T295 659T359 660Z" />
<glyph unicode="Q" glyph-name="Q" horiz-adv-x="714" d="M660 -20L699 -48Q656 -139 605 -182T502 -226Q472 -226 439 -213T373 -179T309 -139T249 -105T196 -91Q143 -91 93 -124L68 -86Q109 -57 151 -39T233 -20Q270 -20 314 -33T403 -63T489 -94T561 -107Q589
-92 612 -71T660 -20ZM357 670Q434 670 493 642T592 567T654 460T675 337Q675 268 656 206T599 95T501 18T361 -10Q281 -10 221 18T120 95T60 206T40 338Q40 428 74 503T179 624T357 670ZM537 296Q537 358 523 415T482 516T420 587T338 613Q282 613 247 579T195
489T178 370Q178 308 192 250T234 146T298 74T379 47Q436 47 470 82T521 175T537 296Z" />
<glyph unicode="R" glyph-name="R" horiz-adv-x="695" d="M364 660Q439 660 486 637T557 575T580 490Q580 456 567 419T524 351T448 300T335 280Q301 280 274 282T214 291V354Q246 347 272 343T322 338Q334 338 345 339T370 343Q393 361 409 392T425 483Q425 543
395 574T320 605Q292 605 259 596Q259 540 259 492T259 399Q259 313 259 234T259 59L347 38L333 0Q307 2 274 2T179 3Q133 3 100 2T35 0L20 38L108 59Q111 127 112 192T113 316Q113 394 112 464T108 596L20 622L31 660Q52 659 80 658T137 657T183 656Q214 656 237
657T288 659T364 660ZM410 327Q425 301 455 256T525 158T603 59L693 38L677 0Q659 2 627 2T568 2Q543 2 508 2T453 0Q432 38 406 83T354 172T307 252T274 305Q283 315 303 319T347 325T389 327T410 327Z" />
<glyph unicode="S" glyph-name="S" horiz-adv-x="589" d="M300 673Q355 673 412 661T510 627Q500 578 492 542T476 466H412L402 575Q388 595 359 605T297 616Q258 616 227 594T196 530Q196 497 220 475T283 434T365 395T446 348T509 279T534 177Q534 111 497 70T402
9T277 -10Q216 -10 157 5T55 47Q66 92 73 127T88 212H153L167 82Q190 66 216 57T272 48Q319 48 354 71T390 149Q390 191 367 217T306 261T228 296T149 336T89 395T65 488Q65 550 97 591T183 652T300 673Z" />
<glyph unicode="T" glyph-name="T" horiz-adv-x="670" d="M407 600Q406 501 406 425T406 279Q406 228 406 177T407 64L513 38L500 0Q474 2 428 2T333 3Q287 3 241 2T163 0L149 38L257 64Q259 138 260 199T262 324Q262 383 261 450T257 600H407ZM635 660Q628 599
626 544T624 441H559L533 586Q516 588 495 588T453 589Q422 589 391 587T335 580Q309 585 276 586T210 588Q191 588 173 588T139 586L113 441H48Q47 488 44 542T35 660Q69 659 118 658T225 657T342 656Q402 656 458 656T560 658T635 660Z" />
<glyph unicode="U" glyph-name="U" horiz-adv-x="788" d="M754 660L768 621L680 600Q673 488 669 391T659 219Q655 156 631 113T569 44T486 6T396 -6Q323 -6 263 14T166 79T119 203Q114 250 113 313T112 448T110 595L20 621L32 660Q63 659 104 658T185 656Q234
656 273 657T338 660L350 621L261 595Q258 517 258 443Q258 368 260 309T265 218Q272 142 310 102T419 62Q493 62 536 99T589 219Q591 241 592 277T593 356Q593 409 592 473T585 600L495 621L509 660Q539 658 571 657T629 656Q661 656 698 657T754 660Z" />
<glyph unicode="V" glyph-name="V" horiz-adv-x="708" d="M341 -9Q277 164 212 312T85 601L7 621L20 660Q51 659 89 658T159 657Q177 657 206 657T264 658T311 660L325 621L248 601Q280 502 321 399T421 179Q423 171 419 150T406 102T388 50T365 8T341 -9ZM341
-9Q348 9 351 23T359 56T371 112Q399 175 429 258T486 430T530 601L455 621L468 660Q533 657 586 657Q612 657 636 658T688 660L701 621L630 601Q589 506 548 402T468 193T395 -9H341Z" />
<glyph unicode="W" glyph-name="W" horiz-adv-x="1000" d="M325 660L339 621L254 600Q272 531 288 476T320 373T354 275T396 166L352 -9H299Q270 85 245 163T196 311T148 451T95 600L7 621L21 660Q56 657 87 657T167 656Q215 656 252 657T325 660ZM557 660L538
494Q504 404 474 326T414 167T352 -9L324 92Q363 192 392 280T448 460T501 660H557ZM557 660Q584 577 606 515T649 399T693 291T745 166L690 26L658 -8Q627 77 603 141T558 258T516 362T469 473L501 660H557ZM980 660L993 621L907 600Q881 530 859 464T814 326T767
174T711 -8H658L683 125Q722 227 757 351T809 600L716 621L730 660Q764 659 797 658T864 656Q899 656 926 657T980 660Z" />
<glyph unicode="X" glyph-name="X" horiz-adv-x="697" d="M328 660L342 621L281 605Q312 543 360 455T470 264T599 59L677 38L662 0Q632 1 600 2T531 3Q482 3 441 3T374 0L357 38L424 59Q377 148 324 241T215 426T105 603L24 621L38 660Q68 658 110 658T184 657Q205
657 231 657T284 659T328 660ZM362 304Q312 231 274 170T210 59L292 38L278 0Q246 2 215 2T144 3Q112 3 87 3T34 0L20 38L104 59Q154 121 210 196T323 358L362 304ZM339 368Q394 446 429 507T479 602L403 621L417 660Q449 659 475 658T539 657Q566 657 590 658T642
660L656 621L582 600Q535 541 485 471T376 311L339 368Z" />
<glyph unicode="Y" glyph-name="Y" horiz-adv-x="671" d="M313 660L328 621L262 605Q277 572 298 521T349 409T413 287L292 198Q270 247 245 302T194 412T143 517T97 603L20 621L33 660Q64 659 94 658T163 657Q216 657 251 658T313 660ZM413 297Q412 244 412 205T412
131T414 59L515 38L502 0Q476 2 437 2T339 3Q278 3 245 2T182 0L169 38L271 59Q273 98 273 129T274 194T271 275L413 297ZM636 660L651 621L571 600Q552 568 528 520T478 417T428 307T386 205L346 279Q364 312 383 354T419 442T451 529T476 602L393 621L407 660Q438
659 464 658T524 657Q558 657 584 658T636 660Z" />
<glyph unicode="Z" glyph-name="Z" horiz-adv-x="588" d="M77 0Q54 20 40 46Q90 123 137 200T225 349T298 482T349 588Q335 590 322 590T296 590Q264 590 234 587T180 575Q164 547 152 522T128 462H67Q71 511 73 561T76 660Q138 659 193 659T300 658Q352 658 402
658T506 660Q514 649 522 635T535 608Q434 447 359 315T230 67Q242 66 254 66T279 65Q316 65 351 69T412 82Q430 105 449 140T484 206L548 186Q535 137 526 90T508 0Q459 2 401 2T283 2Q224 2 170 2T77 0Z" />
<glyph unicode="[" glyph-name="bracketleft" horiz-adv-x="372" d="M317 20V-30H35L59 20H317ZM317 763V715H59L35 763H317ZM35 763L180 742Q176 648 174 554T172 366Q172 272 174 178T180 -11L35 -30Q40 70 42 169T45 367Q45 466 43 565T35 763Z" />
<glyph unicode="\" glyph-name="backslash" horiz-adv-x="278" d="M304 -138H218L-82 763H3L304 -138Z" />
<glyph unicode="]" glyph-name="bracketright" horiz-adv-x="345" d="M28 714V764H310L286 714H28ZM28 -29V19H286L310 -29H28ZM310 -29L165 -8Q169 86 171 180T173 368Q173 463 171 557T165 745L310 764Q305 664 303 565T300 367Q300 268 302 169T310 -29Z" />
<glyph unicode="^" glyph-name="asciicircum" horiz-adv-x="551" d="M299 671Q348 583 399 494T506 316H419L253 589H307L133 316H45Q104 405 159 494T267 671H299Z" />
<glyph unicode="_" glyph-name="underscore" horiz-adv-x="560" d="M512 46V-31H48V46H512Z" />
<glyph unicode="`" glyph-name="grave" horiz-adv-x="149" d="M50 715Q59 711 69 705T88 696Q103 642 124 589T174 483L131 456Q83 509 48 554T-20 649Q-7 669 12 686T50 715Z" />
<glyph unicode="a" glyph-name="a" horiz-adv-x="494" d="M274 436Q327 436 366 404T405 305Q405 262 404 233T401 182T399 135Q399 107 402 96T422 84Q436 84 464 97L482 53Q446 28 413 12T343 -5Q312 -5 289 19T266 97Q266 146 270 193T275 278Q275 309 266
328T236 354Q190 352 148 337T62 299L36 342Q93 384 151 410T274 436ZM345 279L285 196Q263 191 246 186T215 178Q181 171 168 161T155 124Q155 103 166 91T196 79Q219 79 254 100T315 155L334 114Q318 94 289 65T218 14T128 -9Q103 -9 80 4T41 45T25 112Q25 154
50 177T120 214T217 236Q253 242 284 251T345 279Z" />
<glyph unicode="b" glyph-name="b" horiz-adv-x="576" d="M244 745Q243 717 243 688T243 629Q243 577 243 535T244 452T245 358Q245 337 245 299T245 217T245 137T246 82L224 63Q213 50 197 34T163 0H101Q103 26 104 68T106 160T107 261T108 357T109 434Q109 493
106 548T96 671L16 684L7 727Q24 728 53 729T118 732T186 738T244 745ZM383 436Q438 436 475 406T531 327T551 224Q551 167 530 115T465 29T357 -5Q302 -5 261 26T189 105L215 147Q231 115 258 90T331 65Q358 65 377 85T406 139T416 208Q416 244 406 278T376 337T326
365Q295 360 270 319T245 204L216 291Q226 330 247 363T303 416T383 436Z" />
<glyph unicode="c" glyph-name="c" horiz-adv-x="433" d="M425 69Q391 38 345 16T238 -6Q166 -6 118 26T45 108T21 213Q21 269 46 320T121 403T250 436Q292 436 332 427T410 394Q396 342 390 309T378 245H328L313 336Q288 357 256 369T192 379Q171 354 160 320T148
250Q148 196 167 157T217 97T286 75Q311 75 339 85T398 118L425 69Z" />
<glyph unicode="d" glyph-name="d" horiz-adv-x="542" d="M466 747Q466 683 466 607T465 434Q465 353 465 278T465 145T467 58L542 37L527 0Q501 2 476 2T415 2Q388 2 370 2T338 0Q337 20 335 37T330 74Q331 119 331 164T332 251Q332 280 332 308T331 366Q331
412 330 466T326 574T319 672L238 685L229 728Q246 728 276 730T341 734T410 740T466 747ZM205 436Q260 436 302 407T363 325L332 240Q332 275 318 303T282 350T242 373Q202 361 180 318T157 219Q157 143 186 106T252 69Q287 69 318 107T362 207L393 162Q366 89
320 41T205 -7Q160 -7 118 18T48 94T21 221Q21 292 49 340T119 412T205 436Z" />
<glyph unicode="e" glyph-name="e" horiz-adv-x="440" d="M233 437Q283 437 325 415T393 349T419 237Q397 233 361 230T282 226T196 224Q164 224 141 225T110 227V275Q121 275 143 275T194 276T248 279T293 284Q292 305 282 326T250 363T196 378Q176 359 164 326T152
248Q152 158 189 116T282 73Q338 73 400 113L422 67Q379 28 330 11T233 -6Q177 -6 129 18T51 92T21 214Q21 288 51 337T130 412T233 437Z" />
<glyph unicode="f" glyph-name="f" horiz-adv-x="346" d="M109 455Q114 560 148 624T233 717T336 746Q426 746 462 700Q460 663 450 636T423 583H369Q353 635 332 660T284 689Q262 664 250 616T238 487Q238 451 238 401T238 292T240 176T242 68L346 37L331 0Q314
1 286 1T228 2T174 3Q144 2 104 2T32 0L15 37L102 58Q104 125 104 183T104 305T109 455ZM30 420H344L356 340Q271 349 184 357T14 366L30 420Z" />
<glyph unicode="g" glyph-name="g" horiz-adv-x="492" d="M140 183L188 171Q165 131 165 111Q165 84 194 78T263 70Q294 68 327 64T388 46T434 4T452 -75Q452 -124 426 -167T344 -238T205 -265Q141 -265 98 -246T33 -196T11 -130Q11 -86 44 -45T146 20L165 9Q145
-15 136 -39T126 -86Q126 -131 162 -162T264 -193Q306 -193 339 -174T372 -110Q372 -78 335 -62T203 -45Q138 -45 96 -20T54 63Q85 103 103 129T140 183ZM193 389Q173 375 166 346T158 293Q158 267 170 239T203 192T252 173Q269 181 279 208T290 269Q290 295 276
322T240 369T193 389ZM220 431Q289 431 331 410T394 354T414 280Q414 238 392 203T326 146T216 124Q158 124 117 144T53 199T31 274Q31 316 52 351T116 409T220 431ZM513 423Q513 398 512 369T511 325Q462 346 426 357T354 372L307 410Q339 414 381 417T459 421T513
423Z" />
<glyph unicode="h" glyph-name="h" horiz-adv-x="617" d="M232 745Q232 644 232 555T232 398T230 291L233 58L307 37L293 0Q260 2 228 2T155 3Q116 3 82 2T19 0L2 37L89 58Q92 123 93 201T95 358Q95 447 93 524T84 673L6 686L-5 727Q45 728 106 733T232 745ZM400
435Q462 435 498 392T539 281Q541 263 540 225T539 141T538 58L612 37L597 0Q543 3 467 3Q429 3 398 2T341 0L327 37L400 58Q402 92 403 115T404 162T404 218Q403 288 380 314T309 340Q265 311 248 271T231 193L195 237Q202 294 230 339T303 409T400 435Z" />
<glyph unicode="i" glyph-name="i" horiz-adv-x="305" d="M230 435Q229 377 228 324T226 228Q226 191 227 143T230 58L310 37L293 0Q267 2 241 2T161 3Q112 3 85 2T26 0L10 37L95 58Q97 108 97 145T97 226Q97 249 97 267T95 307T91 365L20 378L5 416Q28 417 64
419T144 425T230 435ZM155 509Q123 509 100 533T77 592Q77 625 100 649T155 673Q187 673 210 649T233 592Q233 557 210 533T155 509Z" />
<glyph unicode="j" glyph-name="j" horiz-adv-x="285" d="M230 433Q229 380 228 326T227 228Q227 210 227 179T227 113T228 43T228 -15Q228 -56 214 -95T161 -178T44 -273L7 -235Q42 -198 57 -171T83 -110Q96 -63 97 -1T97 149Q97 171 96 209T92 289T86 367L17
378L5 420Q22 420 50 421T112 423T176 427T230 433ZM155 509Q123 509 100 533T77 592Q77 622 100 647T155 673Q187 673 210 649T233 592Q233 557 210 533T155 509Z" />
<glyph unicode="k" glyph-name="k" horiz-adv-x="599" d="M232 745Q232 720 232 665T232 540T231 398T230 264L235 58L303 37L288 0Q251 2 222 2T157 3Q117 3 85 3T19 0L2 37L88 58Q94 171 94 293Q94 405 92 501T84 673L4 686L-5 727Q12 728 42 730T107 734T175
739T232 745ZM240 219Q266 245 287 264T328 307T371 363L288 384L300 421Q331 420 360 419T426 418Q491 418 543 421L557 384L474 364Q436 331 412 309T367 267T318 219L353 272Q384 221 404 187T446 124T497 58L574 37L564 0Q536 2 512 2T458 2Q430 2 406 2T357
0Q328 52 302 105T240 219Z" />
<glyph unicode="l" glyph-name="l" horiz-adv-x="319" d="M232 745Q231 575 231 399T235 58L314 37L295 0Q277 1 262 1T225 2T166 3Q133 3 112 3T73 2T35 0L16 37L95 58Q97 165 97 277T97 492T91 672L5 686L-5 725Q18 727 57 729T142 735T232 745Z" />
<glyph unicode="m" glyph-name="m" horiz-adv-x="925" d="M398 435Q459 435 495 392T536 278Q538 260 537 223T536 141T535 58L609 37L595 0Q568 2 535 2T465 3Q431 3 400 2T343 0L329 37L403 58Q404 92 405 114T406 159T406 214Q405 287 382 313T311 340Q267
311 250 269T234 190L197 232Q204 290 231 335T301 408T398 435ZM234 438Q234 405 234 384T234 341T233 286L235 58L308 37L295 0Q262 2 230 2T163 3Q128 3 101 2T43 0L27 37L102 58Q103 97 104 121T105 166T106 211Q106 241 106 262T103 307T98 366L24 378L12
420Q62 422 115 425T234 438ZM701 435Q763 435 799 392T840 278Q841 260 840 223T839 141T839 58L913 37L898 0Q871 2 838 2T768 3Q734 3 704 2T647 0L633 37L706 58Q708 92 708 114T709 159T710 214Q709 287 686 313T614 340Q571 311 554 269T536 190L500 232Q507
290 534 335T605 408T701 435Z" />
<glyph unicode="n" glyph-name="n" horiz-adv-x="623" d="M404 435Q461 435 497 392T538 281Q539 263 538 225T537 141T536 58L611 37L595 0Q569 2 536 2T471 3Q432 3 401 2T344 0L331 37L404 58Q405 92 406 115T407 162T407 218Q406 279 385 307T323 344Q279
315 259 273T240 193L203 237Q210 294 237 339T308 409T404 435ZM241 440Q241 407 241 387T241 346T238 291L242 58L315 37L302 0Q268 2 238 2T172 3Q133 3 105 2T47 0L31 37L106 58Q106 90 108 133T111 216Q111 245 111 264T108 305T102 362L24 381L12 419Q71
422 123 427T241 440Z" />
<glyph unicode="o" glyph-name="o" d="M257 434Q331 434 380 403T454 322T479 214Q479 155 454 104T379 21T254 -10Q179 -10 128 21T51 105T25 216Q25 274 50 323T127 403T257 434ZM165 237Q165 187 176 142T211 69T266 41Q304 41 322 82T341 186Q341 236 330
280T296 353T240 382Q202 382 184 341T165 237Z" />
<glyph unicode="p" glyph-name="p" horiz-adv-x="582" d="M239 435Q241 399 243 370T247 321Q246 289 246 258T246 192Q246 158 246 123T247 44T249 -58T251 -197L351 -221L337 -260Q311 -258 271 -257T187 -256Q138 -256 107 -257T47 -260L32 -221L111 -201Q113
-181 113 -145T114 -68T115 9T115 63Q115 109 115 151T113 243T107 363L23 378L12 419Q29 420 58 421T120 423T184 428T239 435ZM385 436Q442 436 480 406T538 327T557 224Q557 167 535 115T469 29T358 -5Q303 -5 262 26T190 105L211 147Q226 115 259 90T332 65Q362
65 382 85T412 139T422 208Q422 244 412 278T381 337T327 365Q313 362 294 341T260 289T246 224L218 291Q227 339 252 371T313 419T385 436Z" />
<glyph unicode="q" glyph-name="q" horiz-adv-x="530" d="M463 434Q461 322 460 221T458 24Q458 -37 459 -87T461 -201L540 -221L527 -260Q501 -258 471 -257T389 -256Q369 -256 341 -256T284 -258T235 -260L223 -221L321 -198Q322 -94 323 5T325 205Q325 250
325 291T323 367Q341 383 352 392T374 410T402 434H463ZM205 436Q260 436 297 407T357 325L326 240Q326 275 313 303T281 350T242 373Q202 361 180 318T157 219Q157 143 186 106T252 69Q287 69 318 107T362 207L393 162Q366 89 320 41T205 -7Q160 -7 118 18T48
94T21 221Q21 292 49 340T119 412T205 436Z" />
<glyph unicode="r" glyph-name="r" horiz-adv-x="482" d="M228 434Q229 411 231 380T235 324T237 289L244 62L343 37L328 0Q311 1 283 1T225 2T171 3Q140 3 104 2T38 0L23 37L104 58Q104 103 104 138T104 216Q104 239 104 258T102 302T98 363L30 374L16 416Q39
417 77 419T157 425T228 434ZM362 436Q390 436 414 426T460 392Q454 362 449 340T438 297T422 244H366Q359 281 346 308T309 346Q284 330 262 287T239 171L200 229Q208 285 231 332T287 407T362 436Z" />
<glyph unicode="s" glyph-name="s" horiz-adv-x="387" d="M26 26Q34 64 39 89T49 145H99L115 67Q128 56 146 50T182 44Q207 44 226 56T246 93Q246 114 231 127T191 151T140 172T89 199T50 239T34 300Q34 351 59 380T124 423T210 436Q245 436 283 428T352 405Q344
370 338 343T326 290L274 291L261 359Q243 383 202 383Q180 383 162 373T143 340Q143 318 159 305T200 281T255 260T309 231T351 188T367 120Q367 72 341 44T272 3T179 -10Q141 -10 102 -2T26 26Z" />
<glyph unicode="t" glyph-name="t" horiz-adv-x="346" d="M200 552Q198 517 197 471T196 375T195 280T196 202T198 156Q200 119 211 104T246 89Q263 89 282 95T332 120L352 80Q327 59 299 38T237 4T162 -10Q139 -10 117 -1T82 32T68 96Q68 95 68 114T69 164T71
231T72 297T73 347T74 365Q73 376 62 384T35 398T8 409T-5 420Q19 424 36 428T73 437Q95 466 112 491T153 552Q162 552 176 552T200 552ZM338 421V348L-5 368V420L338 421Z" />
<glyph unicode="u" glyph-name="u" horiz-adv-x="611" d="M230 -17Q167 -17 132 26T91 151Q89 186 89 237T90 367L19 378L7 419Q65 419 121 423T227 434Q225 388 223 350T220 272T223 180Q226 122 250 100T297 78Q321 83 342 110T376 177T389 256L415 171Q409
122 384 79T320 10T230 -17ZM397 0Q396 30 394 64T390 145L384 366L312 378L300 419Q359 419 414 423T519 434Q519 434 519 411T518 354T516 287T515 230T514 207Q515 173 517 143T524 58L599 37L580 0Q554 2 532 2T474 2Q459 2 435 1T397 0Z" />
<glyph unicode="v" glyph-name="v" horiz-adv-x="579" d="M286 419L303 381L227 359Q243 322 254 296T276 245T303 191T343 118Q345 108 336 88T314 45T287 7T265 -9Q238 46 216 91T173 177T129 262T77 359L10 381L20 419Q50 418 78 417T145 416Q187 416 223 417T286
419ZM563 419L579 381L504 359Q466 288 440 230T389 114T336 -9H265Q307 77 345 165T415 359L338 381L353 419Q385 418 409 417T460 416Q494 416 515 417T563 419Z" />
<glyph unicode="w" glyph-name="w" horiz-adv-x="794" d="M292 419L307 381L236 360Q248 323 257 295T277 241T299 186T329 117Q329 107 319 87T295 44T268 7T246 -9Q217 65 192 124T142 240T86 360L10 381L26 419Q56 418 86 417T150 416Q238 416 292 419ZM391
424L445 423L436 317Q401 238 368 155T305 -9H246Q267 38 288 94T328 210T364 324T391 424ZM445 423Q471 354 491 303T530 204T574 98Q574 88 564 70T539 34T510 4T486 -9Q463 53 446 99T410 186T366 275L445 423ZM767 419L784 381L702 360Q672 293 646 234T595
116T544 -9H486Q521 71 557 166T615 360L535 381L550 419Q612 416 663 416Q697 416 718 417T767 419Z" />
<glyph unicode="x" glyph-name="x" horiz-adv-x="530" d="M258 419L275 381L229 362Q266 307 299 260T372 166T461 60L530 38L517 0Q487 2 462 2T402 3Q353 3 322 3T264 0L247 38L300 57Q269 96 244 130T194 198T141 271T76 359L0 381L12 419Q42 418 77 417T144
416Q204 416 258 419ZM282 192Q248 154 221 117T177 60L239 38L224 0Q193 2 172 2T119 3Q85 3 64 3T16 0L0 38L87 60Q105 78 131 109T186 177T245 247L282 192ZM242 227Q275 265 302 303T345 359L283 381L298 419Q323 418 341 417T390 416Q424 416 445 417T493
419L509 381L433 359Q413 336 387 304T334 237T279 172L242 227Z" />
<glyph unicode="y" glyph-name="y" horiz-adv-x="586" d="M571 421L586 383L509 364Q442 219 379 81T275 -190L367 -221L351 -260Q327 -258 292 -257T221 -256Q197 -256 167 -256T109 -258T66 -260L50 -220L167 -188Q195 -148 229 -84T300 56T367 212T421 364L343
383L357 421Q388 420 412 420T463 419Q490 419 517 419T571 421ZM284 420L302 382L230 362Q242 325 252 297T272 244T297 187T333 113Q335 103 328 80T310 31T286 -13T265 -31Q237 31 214 80T170 173T126 263T76 362L0 382L14 420Q44 419 74 418T144 417Q186 417
222 418T284 420Z" />
<glyph unicode="z" glyph-name="z" horiz-adv-x="420" d="M39 0Q30 8 25 17T16 37Q59 94 100 154T177 269T236 360Q231 361 225 361T213 361Q187 361 159 358T116 348Q99 318 82 272H27Q31 308 33 350T36 420Q71 418 100 418T157 417H217Q254 417 293 418T380
420Q386 413 392 402T402 382Q376 348 343 301T279 205T224 117T192 58Q197 57 203 57T216 56Q236 56 262 60T310 75Q324 92 334 111T356 152L410 139Q403 108 396 72T385 0Q350 2 302 2T203 2Q154 2 110 2T39 0Z" />
<glyph unicode="{" glyph-name="braceleft" horiz-adv-x="265" d="M20 381Q45 389 61 405T77 446Q77 492 68 528T50 596T40 654Q40 693 76 730T208 813Q220 799 230 778Q198 759 186 738T173 692Q173 665 182 635T201 572T211 500Q211 469 190 445T142 402T96
369Q115 355 142 337T190 294T211 238Q211 201 202 167T183 103T173 46Q173 22 185 1T230 -40Q220 -61 208 -75Q113 -28 77 8T40 84Q40 112 49 142T68 209T77 292Q77 317 61 333T20 357V381Z" />
<glyph unicode="|" glyph-name="bar" horiz-adv-x="261" d="M186 763Q182 651 181 539T180 313Q180 200 182 88T186 -138H75Q77 -25 79 87T81 313Q81 426 81 538T75 763H186Z" />
<glyph unicode="}" glyph-name="braceright" horiz-adv-x="265" d="M245 381V357Q220 349 204 333T188 292Q188 246 197 210T216 143T225 84Q225 45 189 9T57 -75Q45 -61 35 -40Q67 -20 79 1T92 46Q92 73 83 103T64 167T54 238Q54 270 75 294T123 336T169 369Q150
384 123 402T75 444T54 500Q54 538 63 571T82 635T92 692Q92 716 80 737T35 778Q45 799 57 813Q152 767 188 730T225 654Q225 627 216 596T198 529T188 446Q188 421 204 405T245 381Z" />
<glyph unicode="~" glyph-name="asciitilde" horiz-adv-x="620" d="M421 206Q381 206 349 220T289 253T230 286T162 301Q147 296 127 281T88 250T56 221L24 241Q45 271 72 306T133 365T205 390Q245 390 275 377T331 348T383 318T443 305Q472 313 508 334T567 375L595
355Q571 315 542 281T483 227T421 206Z" />
<glyph unicode="&#xa0;" glyph-name="uni00A0" horiz-adv-x="200" />
<glyph unicode="&#xa1;" glyph-name="exclamdown" horiz-adv-x="263" d="M165 -22Q125 -16 92 -6T30 20Q42 125 51 211T66 379T75 550H135Q140 461 147 379T168 209T203 10L165 -22ZM105 602Q90 602 77 604T48 610Q45 625 44 638T42 666Q42 693 48 721Q63 723
76 726T105 729Q117 729 130 726T159 721Q161 707 163 694T166 666Q166 651 164 638T159 610Q143 606 130 604T105 602Z" />
<glyph unicode="&#xa2;" glyph-name="cent" horiz-adv-x="433" d="M275 -90H212Q215 -1 216 71T217 210T216 350T212 511H275Q272 422 271 350T270 211T271 71T275 -90ZM425 69Q391 38 345 16T238 -6Q166 -6 118 26T45 108T21 213Q21 269 46 320T121 403T250 436Q292
436 332 427T410 394Q396 342 390 309T378 245H328L313 336Q288 357 256 369T192 379Q171 354 160 320T148 250Q148 196 167 157T217 97T286 75Q311 75 339 85T398 118L425 69Z" />
<glyph unicode="&#xa3;" glyph-name="sterling" horiz-adv-x="639" d="M589 0H84L71 38L160 60Q182 80 192 108T202 171Q202 203 192 238T167 311T142 387T131 464Q131 530 163 576T248 647T364 671Q411 671 459 661T552 615Q550 578 540 541T513 478H459Q443
545 405 580T299 619Q283 591 277 565T270 513Q270 473 281 435T306 357T332 278T343 194Q343 154 311 124T239 74Q264 71 296 68T363 64Q399 64 433 69T492 89L516 210H580Q582 105 589 0ZM53 303V366Q111 364 157 363T249 361Q293 361 340 362T444 366V303Q387
306 340 307T249 308Q204 308 158 307T53 303Z" />
<glyph unicode="&#xa4;" glyph-name="currency" horiz-adv-x="521" d="M260 162Q205 162 168 185T113 245T94 322Q94 362 112 398T168 458T262 481Q316 481 351 458T404 399T422 323Q422 283 404 246T350 186T260 162ZM259 237Q302 237 323 263T345 321Q345 353
323 379T256 406Q213 406 192 381T170 323Q170 291 192 264T259 237ZM412 531Q426 515 440 500T471 471Q432 440 399 400L341 457Q360 475 377 493T412 531ZM50 169Q70 186 88 204T124 241L181 182Q141 149 110 110Q96 127 82 141T50 169ZM471 169Q455 156 441
142T412 110Q396 130 379 148T341 182L399 241Q431 203 471 169ZM110 531Q127 511 144 493T181 457L124 400Q107 420 89 437T50 471Q82 499 110 531Z" />
<glyph unicode="&#xa5;" glyph-name="yen" horiz-adv-x="600" d="M554 256V193Q478 197 411 198T277 198T133 193V256Q210 253 277 252T411 251T554 256ZM554 346V283Q478 287 411 288T277 288T133 283V346Q210 343 277 342T411 341T554 346ZM313 660L328 621L262
605Q277 572 298 521T349 409T413 287L292 198Q270 247 245 302T194 412T143 517T97 603L20 621L33 660Q64 659 94 658T163 657Q216 657 251 658T313 660ZM413 297Q412 244 412 205T412 131T414 59L515 38L502 0Q476 2 437 2T339 3Q278 3 245 2T182 0L169 38L271
59Q273 98 273 129T274 194T271 275L413 297ZM636 660L651 621L571 600Q552 568 528 520T478 417T428 307T386 205L346 279Q364 312 383 354T419 442T451 529T476 602L393 621L407 660Q438 659 464 658T524 657Q558 657 584 658T636 660Z" />
<glyph unicode="&#xa6;" glyph-name="brokenbar" horiz-adv-x="413" d="M248 430H165Q169 586 165 741H248Q244 586 248 430ZM248 -100H165Q169 56 165 211H248Q244 56 248 -100Z" />
<glyph unicode="&#xa7;" glyph-name="section" horiz-adv-x="557" d="M249 310Q221 304 201 284T180 232Q180 200 203 179T263 141T341 106T418 64T478 4T502 -85Q502 -147 467 -186T376 -244T257 -263Q208 -263 153 -249T57 -208Q68 -165 75 -132T89 -51H151L164
-175Q198 -198 233 -204T297 -202T345 -169T364 -111Q364 -76 342 -55T284 -19T210 11T135 47T78 103T55 192Q55 269 105 312T230 365L249 310ZM285 69Q318 76 341 98T364 162Q364 202 342 227T284 269T210 302T135 340T78 396T55 485Q55 544 86 583T168 641T279
661Q331 661 385 649T479 617Q469 571 462 536T446 464H385L376 567Q363 586 335 596T276 606Q239 606 210 586T180 525Q180 493 203 472T263 433T341 396T418 351T478 286T502 188Q502 136 477 100T410 43T317 14L285 69Z" />
<glyph unicode="&#xa8;" glyph-name="dieresis" horiz-adv-x="306" d="M67 476Q41 476 23 495T4 543Q4 570 22 589T67 608Q93 608 111 589T130 543Q130 515 112 496T67 476ZM239 476Q213 476 195 495T176 543Q176 570 194 589T239 608Q264 608 283 589T302 543Q302
515 283 496T239 476Z" />
<glyph unicode="&#xa9;" glyph-name="copyright" horiz-adv-x="786" d="M395 15Q457 15 512 39T610 107T677 206T702 327Q702 389 678 444T611 542T513 609T395 634Q331 634 275 610T175 543T108 445T83 327Q83 263 108 207T176 107T276 40T395 15ZM394 -33Q319
-33 254 -5T140 72T63 186T35 326Q35 400 63 464T140 578T254 655T394 683Q468 683 532 655T646 578T723 465T751 326Q751 251 723 186T646 72T533 -5T394 -33ZM521 227L549 191Q513 155 476 136T388 117Q319 117 273 147T203 226T179 327Q179 384 202 433T272
512T383 543Q435 543 473 532T547 501Q537 457 532 433T522 378H481L468 451Q442 472 409 485T345 498Q320 469 308 434T295 339Q295 261 323 216T404 171Q440 171 465 185T521 227Z" />
<glyph unicode="&#xaa;" glyph-name="ordfeminine" horiz-adv-x="372" d="M25 316Q72 315 127 315T236 314T338 316V274Q291 275 237 275T127 276T25 274V316ZM206 680Q245 680 274 656T304 582Q304 533 302 507T299 454Q299 433 302 425T317 416Q327 416 348
426L362 393Q335 374 310 362T257 349Q234 349 217 367T200 426Q200 462 203 497T206 562Q206 609 177 619Q142 617 111 606T47 577L27 610Q70 641 114 660T206 680ZM259 562L214 500Q197 496 184 493T161 487Q135 481 126 473T116 446Q116 412 147 412Q164 412
190 428T236 469L251 439Q239 424 217 402T164 363T96 346Q68 346 44 368T19 437Q19 468 38 486T90 513T163 530Q190 535 213 542T259 562Z" />
<glyph unicode="&#xab;" glyph-name="guillemotleft" horiz-adv-x="574" d="M490 457L529 423Q490 372 454 318T391 211Q419 159 455 105T529 0L490 -35Q430 22 368 79T258 187V235Q305 285 367 343T490 457ZM287 457L326 423Q287 372 251 318T188 211Q216 159
252 105T326 0L287 -35Q227 22 165 79T55 187V235Q102 285 164 343T287 457Z" />
<glyph unicode="&#xac;" glyph-name="logicalnot" horiz-adv-x="571" d="M536 471L533 388Q458 390 371 390T197 391T35 388V471Q110 470 198 470T373 469T536 471ZM453 465L536 471Q535 415 535 377T534 306T534 235T536 140H453Q454 196 454 233T455 302T455
371T453 465Z" />
<glyph unicode="&#xad;" glyph-name="uni00AD" horiz-adv-x="348" d="M300 310V227H48V310H300Z" />
<glyph unicode="&#xae;" glyph-name="registered" horiz-adv-x="786" d="M395 15Q457 15 512 39T610 107T677 206T702 327Q702 389 678 444T611 542T513 609T395 634Q331 634 275 610T175 543T108 445T83 327Q83 263 108 207T176 107T276 40T395 15ZM394 -33Q319
-33 254 -5T140 72T63 186T35 326Q35 400 63 464T140 578T254 655T394 683Q468 683 532 655T646 578T723 465T751 326Q751 251 723 186T646 72T533 -5T394 -33ZM209 139L199 168L258 183Q260 221 260 257T261 336Q261 373 261 407T258 482L199 498L206 528Q231
525 251 525T313 524Q344 524 362 525T396 527T432 528Q498 528 530 494T563 419Q563 389 546 360T496 313T414 294Q397 294 388 294T371 296T348 300V344Q368 340 379 338T400 335Q405 335 410 335T420 336Q439 347 448 367T457 411Q457 440 443 463T402 486Q392
486 382 484T362 477Q361 441 361 406T360 330Q360 290 360 254T362 183L421 168L410 139Q391 140 373 140T314 141Q276 141 254 141T209 139ZM464 139Q436 195 413 235T366 313Q378 313 399 316T438 321T460 324Q480 294 501 262T558 183L618 168L608 139Q595
140 578 140T541 140Q525 140 503 140T464 139Z" />
<glyph unicode="&#xaf;" glyph-name="overscore" horiz-adv-x="263" d="M-10 578Q56 575 131 575T273 578V497Q207 499 132 499T-10 497V578Z" />
<glyph unicode="&#xb0;" glyph-name="degree" horiz-adv-x="314" d="M140 487Q169 487 189 508T210 558Q210 587 190 607T140 628Q111 628 90 608T69 558Q69 529 90 508T140 487ZM140 428Q104 428 75 445T28 492T10 558Q10 594 27 623T74 669T140 687Q176 687
205 670T251 623T269 558Q269 522 252 493T205 446T140 428Z" />
<glyph unicode="&#xb1;" glyph-name="plusminus" horiz-adv-x="571" d="M536 454V371Q461 373 374 373T198 374T35 371V454Q110 453 198 453T373 452T536 454ZM327 195H244Q248 416 244 636H327Q323 416 327 195ZM536 152V69Q461 71 374 71T198 72T35 69V152Q110
151 198 151T373 150T536 152Z" />
<glyph unicode="&#xb2;" glyph-name="twosuperior" horiz-adv-x="356" d="M20 563Q57 605 98 636T198 668Q251 668 288 638T325 550Q325 506 292 464T207 380T94 298L124 329Q166 330 197 331T261 335T336 345Q335 323 335 297T333 251Q293 253 249 253T168 254Q151
254 112 254T37 251L22 283Q114 366 163 422T212 530Q212 565 187 582T123 587T40 522L20 563Z" />
<glyph unicode="&#xb3;" glyph-name="threesuperior" horiz-adv-x="372" d="M170 247Q133 247 96 257T25 290L34 333Q66 315 93 308T148 301Q189 301 211 324T234 378Q234 405 213 430T147 464L138 485Q155 502 176 526T216 576Q202 577 189 577T162 577Q146 577
130 577T97 575Q90 561 85 549T74 517H34Q35 536 35 558T36 602Q36 619 36 634T34 660Q67 659 102 659T172 659Q207 659 242 659T310 660L327 610Q302 586 287 571T261 546T237 522Q290 507 314 469T339 391Q339 354 320 321T262 268T170 247Z" />
<glyph unicode="&#xb4;" glyph-name="acute" horiz-adv-x="124" d="M104 715Q124 703 142 686T174 649Q143 600 107 555T23 456L-20 483Q9 536 30 589T66 696Q74 699 84 705T104 715Z" />
<glyph unicode="&#xb5;" glyph-name="uni00B5" horiz-adv-x="641" d="M207 434Q206 410 203 372T198 291T196 209Q196 199 196 190T197 171Q199 125 213 92T262 59Q278 66 295 85T324 133T337 191L385 188Q379 135 358 89T299 14T203 -15Q161 -15 131 10T85 74T67
151Q66 162 66 181T66 223Q66 242 66 263T66 306Q66 339 66 372T64 434H207ZM117 182Q114 143 114 110Q114 19 131 -34T174 -116T228 -158Q218 -188 174 -203T75 -218Q69 -167 67 -104T65 17Q65 72 66 116T67 182H117ZM475 434Q473 396 470 349T464 261T461 195Q461
137 471 109T506 81Q520 81 539 89T584 114L611 75Q509 -16 437 -16Q391 -16 364 25T337 151Q337 205 337 246T335 331T330 434H475Z" />
<glyph unicode="&#xb6;" glyph-name="paragraph" horiz-adv-x="595" d="M281 -60Q283 -26 283 17T285 107T286 194T286 266Q220 266 164 285T74 349T40 468Q40 524 65 566T144 633T287 657Q315 657 347 657T411 656Q441 656 464 656T510 658T564 660L575 622L486
596Q485 556 484 524T482 455T481 366Q481 342 481 301T481 208T482 106T484 11T486 -60H405Q405 -57 405 -20T404 76T404 205T403 344T403 472T403 565T403 600H365Q365 600 365 565T365 472T365 345T364 205T364 76T363 -20T362 -60H281Z" />
<glyph unicode="&#xb7;" glyph-name="middot" horiz-adv-x="179" d="M90 391Q103 391 116 388T142 381Q146 368 148 355T151 329Q151 316 149 303T142 277Q129 273 116 270T90 267Q77 267 64 270T37 277Q29 304 29 329Q29 354 37 381Q51 385 64 388T90 391Z" />
<glyph unicode="&#xb8;" glyph-name="cedilla" horiz-adv-x="162" d="M49 3H101L88 -52Q129 -61 154 -83T180 -134Q180 -165 147 -199T23 -284L-5 -243Q30 -220 52 -203T84 -167Q82 -155 67 -144T9 -126L49 3Z" />
<glyph unicode="&#xb9;" glyph-name="onesuperior" horiz-adv-x="342" d="M238 670Q237 608 237 555T236 457Q236 424 236 383T238 304L322 282L311 251Q288 252 258 252T186 253Q166 253 140 253T90 252T49 251L38 282L130 304Q131 332 131 372T131 452Q131 470
131 494T129 540T127 573L38 572L20 613Q73 618 111 629T193 670H238Z" />
<glyph unicode="&#xba;" glyph-name="ordmasculine" horiz-adv-x="377" d="M25 316Q72 315 127 315T236 314T338 316V274Q291 275 237 275T127 276T25 274V316ZM193 684Q248 684 285 661T340 600T359 519Q359 474 340 436T284 374T191 351Q134 351 96 374T39 436T19
520Q19 564 38 601T95 661T193 684ZM124 536Q124 498 132 465T158 410T200 389Q228 389 242 420T256 498Q256 535 247 568T221 623T180 645Q151 645 138 614T124 536Z" />
<glyph unicode="&#xbb;" glyph-name="guillemotright" horiz-adv-x="584" d="M84 457Q145 401 207 343T316 235V187Q269 137 207 80T84 -35L45 0Q83 50 119 104T183 211Q156 263 120 317T45 423L84 457ZM297 457Q358 401 420 343T529 235V187Q482 137 420 80T297
-35L258 0Q296 50 332 104T396 211Q369 263 333 317T258 423L297 457Z" />
<glyph unicode="&#xbc;" glyph-name="onequarter" horiz-adv-x="865" d="M258 670Q257 608 257 555T256 457Q256 424 256 383T258 304L342 282L331 251Q308 252 278 252T206 253Q186 253 160 253T110 252T69 251L58 282L150 304Q151 332 151 372T151 452Q151 470
151 494T149 540T147 573L58 572L40 613Q93 618 131 629T213 670H258ZM760 417Q759 314 759 241T760 111T764 -2H655Q656 18 657 56T658 138T659 223T660 287Q635 249 619 224T589 181T563 142Q577 141 611 140T680 138Q717 138 749 138T823 142V87Q780 89 739
89T648 90Q615 90 593 90T546 90T478 87V138Q543 210 601 274T723 417H760ZM142 -48L691 693H773L223 -48H142Z" />
<glyph unicode="&#xbd;" glyph-name="onehalf" horiz-adv-x="901" d="M774 693L224 -48H143L692 693H774ZM253 670Q252 608 252 555T251 457Q251 424 251 383T253 304L337 282L326 251Q303 252 273 252T201 253Q181 253 155 253T105 252T64 251L53 282L145 304Q146
332 146 372T146 452Q146 470 146 494T144 540T142 573L53 572L35 613Q88 618 126 629T208 670H253ZM550 312Q587 354 628 385T728 417Q781 417 818 387T855 299Q855 254 822 212T737 129T624 47L654 78Q696 79 727 80T791 84T866 94Q865 72 865 46T863 0Q823 2
779 2T698 3Q681 3 642 3T567 0L552 32Q644 115 693 171T742 279Q742 314 717 331T653 336T570 271L550 312Z" />
<glyph unicode="&#xbe;" glyph-name="threequarters" horiz-adv-x="840" d="M180 247Q143 247 106 257T35 290L44 333Q76 315 103 308T158 301Q199 301 221 324T244 378Q244 405 223 430T157 464L148 485Q165 502 186 526T226 576Q212 577 199 577T172 577Q156
577 140 577T107 575Q100 561 95 549T84 517H44Q45 536 45 558T46 602Q46 619 46 634T44 660Q77 659 112 659T182 659Q217 659 252 659T320 660L337 610Q312 586 297 571T271 546T247 522Q300 507 324 469T349 391Q349 354 330 321T272 268T180 247ZM719 417Q718
314 718 241T719 111T723 -2H614Q615 18 616 56T617 138T618 223T619 287Q594 249 578 224T548 181T522 142Q536 141 570 140T639 138Q676 138 708 138T782 142V87Q739 89 698 89T607 90Q574 90 552 90T505 90T437 87V138Q502 210 560 274T682 417H719ZM110 -48L659
693H741L191 -48H110Z" />
<glyph unicode="&#xbf;" glyph-name="questiondown" horiz-adv-x="473" d="M270 -8Q195 -8 145 23T70 105T45 211Q45 267 70 318T147 404T275 441Q277 464 278 486T281 542H343Q347 504 350 471T359 402T372 315Q363 316 352 316T316 316Q232 316 198 277T164
180Q164 143 174 113T202 57Q208 56 213 56T225 56Q263 56 292 65T347 88L367 193H417Q424 150 433 110T453 26Q418 11 372 2T270 -8ZM311 596Q296 596 283 598T254 604Q251 619 250 632T248 660Q248 687 254 715Q269 717 282 720T311 723Q323 723 336 720T365
715Q367 701 369 688T372 660Q372 645 370 632T365 604Q349 600 336 598T311 596Z" />
<glyph unicode="&#xc0;" glyph-name="Agrave" horiz-adv-x="715" d="M384 664Q443 499 510 346T635 59L713 38L700 0Q669 2 631 2T561 3Q543 3 514 3T455 2T408 0L394 38L472 59Q442 136 397 246T299 481L384 664ZM384 664Q377 646 371 631T357 595T342 538Q323
486 300 422T252 291T207 164T176 59L250 38L237 0Q173 3 119 3Q69 3 15 0L2 38L76 59Q95 94 120 147T174 266T232 401T287 538T333 664H384ZM477 225V147Q434 152 396 153T325 154Q291 154 259 153T187 147V224Q226 219 258 217T325 215Q357 215 395 217T477 225ZM298
946Q307 942 317 936T336 927Q351 873 372 820T422 714L379 687Q331 740 296 785T228 880Q241 900 260 917T298 946Z" />
<glyph unicode="&#xc1;" glyph-name="Aacute" horiz-adv-x="715" d="M384 664Q443 499 510 346T635 59L713 38L700 0Q669 2 631 2T561 3Q543 3 514 3T455 2T408 0L394 38L472 59Q442 136 397 246T299 481L384 664ZM384 664Q377 646 371 631T357 595T342 538Q323
486 300 422T252 291T207 164T176 59L250 38L237 0Q173 3 119 3Q69 3 15 0L2 38L76 59Q95 94 120 147T174 266T232 401T287 538T333 664H384ZM477 225V147Q434 152 396 153T325 154Q291 154 259 153T187 147V224Q226 219 258 217T325 215Q357 215 395 217T477 225ZM413
946Q433 934 451 917T483 880Q452 831 416 786T332 687L289 714Q318 767 339 820T375 927Q383 930 393 936T413 946Z" />
<glyph unicode="&#xc2;" glyph-name="Acircumflex" horiz-adv-x="715" d="M384 664Q443 499 510 346T635 59L713 38L700 0Q669 2 631 2T561 3Q543 3 514 3T455 2T408 0L394 38L472 59Q442 136 397 246T299 481L384 664ZM384 664Q377 646 371 631T357 595T342 538Q323
486 300 422T252 291T207 164T176 59L250 38L237 0Q173 3 119 3Q69 3 15 0L2 38L76 59Q95 94 120 147T174 266T232 401T287 538T333 664H384ZM477 225V147Q434 152 396 153T325 154Q291 154 259 153T187 147V224Q226 219 258 217T325 215Q357 215 395 217T477 225ZM376
901Q410 866 444 829T519 744L488 708Q443 737 406 760T330 799Q301 780 277 760T220 710L184 746Q219 783 260 825T335 901H376Z" />
<glyph unicode="&#xc3;" glyph-name="Atilde" horiz-adv-x="715" d="M384 664Q443 499 510 346T635 59L713 38L700 0Q669 2 631 2T561 3Q543 3 514 3T455 2T408 0L394 38L472 59Q442 136 397 246T299 481L384 664ZM384 664Q377 646 371 631T357 595T342 538Q323
486 300 422T252 291T207 164T176 59L250 38L237 0Q173 3 119 3Q69 3 15 0L2 38L76 59Q95 94 120 147T174 266T232 401T287 538T333 664H384ZM477 225V147Q434 152 396 153T325 154Q291 154 259 153T187 147V224Q226 219 258 217T325 215Q357 215 395 217T477 225ZM193
722L157 742Q172 772 196 802T247 851T299 871Q328 871 351 858T399 830T453 816Q468 824 489 840T525 876L558 856Q545 826 521 796T470 747T417 727Q388 727 364 741T316 768T266 782Q250 774 229 757T193 722Z" />
<glyph unicode="&#xc4;" glyph-name="Adieresis" horiz-adv-x="715" d="M384 664Q443 499 510 346T635 59L713 38L700 0Q669 2 631 2T561 3Q543 3 514 3T455 2T408 0L394 38L472 59Q442 136 397 246T299 481L384 664ZM384 664Q377 646 371 631T357 595T342 538Q323
486 300 422T252 291T207 164T176 59L250 38L237 0Q173 3 119 3Q69 3 15 0L2 38L76 59Q95 94 120 147T174 266T232 401T287 538T333 664H384ZM477 225V147Q434 152 396 153T325 154Q291 154 259 153T187 147V224Q226 219 258 217T325 215Q357 215 395 217T477 225ZM272
707Q246 707 228 726T209 774Q209 801 227 820T272 839Q298 839 316 820T335 774Q335 746 317 727T272 707ZM444 707Q418 707 400 726T381 774Q381 801 399 820T444 839Q469 839 488 820T507 774Q507 746 488 727T444 707Z" />
<glyph unicode="&#xc5;" glyph-name="Aring" horiz-adv-x="715" d="M384 664Q443 499 510 346T635 59L713 38L700 0Q669 2 631 2T561 3Q543 3 514 3T455 2T408 0L394 38L472 59Q442 136 397 246T299 481L384 664ZM384 664Q377 646 371 631T357 595T342 538Q323
486 300 422T252 291T207 164T176 59L250 38L237 0Q173 3 119 3Q69 3 15 0L2 38L76 59Q95 94 120 147T174 266T232 401T287 538T333 664H384ZM477 225V147Q434 152 396 153T325 154Q291 154 259 153T187 147V224Q226 219 258 217T325 215Q357 215 395 217T477 225ZM358
771Q378 771 391 785T405 819Q405 839 392 852T358 866Q338 866 324 853T310 819Q310 799 324 785T358 771ZM358 709Q312 709 280 741T248 819Q248 864 280 896T358 928Q403 928 435 896T467 819Q467 773 435 741T358 709Z" />
<glyph unicode="&#xc6;" glyph-name="AE" horiz-adv-x="916" d="M469 596Q401 476 345 383T245 212T167 59L241 38L228 0Q164 3 110 3Q84 3 60 3T8 0L-5 38L67 59Q95 94 131 148T206 266T283 397T354 524T412 630L469 596ZM448 225V147Q411 152 378 153T317 154Q288
154 260 153T198 147V224Q232 219 260 217T317 215Q345 215 378 217T448 225ZM727 371V287Q704 291 688 293T654 297T604 299Q580 299 553 298T492 292V366Q527 363 552 362T602 360Q633 360 652 361T687 365T727 371ZM756 454Q755 424 754 395T752 333Q752 300
753 263T756 204H701L668 308V351L701 454H756ZM878 0Q790 3 499 3Q464 3 431 3T342 0L330 38L419 59Q421 140 422 218T424 376Q424 439 423 492T419 597L323 621L336 660Q386 658 430 657T503 656Q532 656 573 656T659 656T746 657T820 658T868 660Q865 597 863
549T860 462H796L778 567Q753 580 718 586T644 592Q626 592 608 591T570 587Q569 497 569 417T568 263Q568 217 568 169T570 69Q587 67 605 66T641 64Q681 64 719 70T782 89L805 210H869Q869 164 871 108T878 0Z" />
<glyph unicode="&#xc7;" glyph-name="Ccedilla" horiz-adv-x="651" d="M578 156L616 106Q553 48 494 22T358 -5Q263 -5 191 38T80 158T40 335Q40 398 60 458T120 566T221 642T365 671Q428 671 490 658T607 618Q597 575 588 530T570 440H512L492 556Q453 585 401
596T292 608Q231 575 206 508T181 358Q181 269 208 205T282 106T388 71Q443 71 484 92T578 156ZM334 3H386L373 -52Q414 -61 439 -83T465 -134Q465 -165 432 -199T308 -284L280 -243Q315 -220 337 -203T369 -167Q367 -155 352 -144T294 -126L334 3Z" />
<glyph unicode="&#xc8;" glyph-name="Egrave" horiz-adv-x="602" d="M416 371V287Q393 291 377 293T343 297T293 299Q269 299 242 298T181 292V366Q216 363 241 362T291 360Q322 360 341 361T376 365T416 371ZM445 454Q444 424 443 395T441 333Q441 300 442 263T445
204H390L357 308V351L390 454H445ZM567 0Q479 3 188 3Q153 3 120 3T32 0L20 38L108 59Q110 140 111 218T113 376Q113 439 112 492T108 597L20 621L33 660Q83 658 123 657T192 656Q221 656 262 656T348 656T435 657T509 658T557 660Q554 597 552 549T549 462H485L467
567Q442 580 407 586T333 592Q315 592 297 591T259 587Q258 497 258 417T257 263Q257 217 257 169T259 69Q276 67 294 66T330 64Q370 64 408 70T471 89L494 210H558Q558 164 560 108T567 0ZM263 945Q272 941 282 935T301 926Q316 872 337 819T387 713L344 686Q296
739 261 784T193 879Q206 899 225 916T263 945Z" />
<glyph unicode="&#xc9;" glyph-name="Eacute" horiz-adv-x="602" d="M416 371V287Q393 291 377 293T343 297T293 299Q269 299 242 298T181 292V366Q216 363 241 362T291 360Q322 360 341 361T376 365T416 371ZM445 454Q444 424 443 395T441 333Q441 300 442 263T445
204H390L357 308V351L390 454H445ZM567 0Q479 3 188 3Q153 3 120 3T32 0L20 38L108 59Q110 140 111 218T113 376Q113 439 112 492T108 597L20 621L33 660Q83 658 123 657T192 656Q221 656 262 656T348 656T435 657T509 658T557 660Q554 597 552 549T549 462H485L467
567Q442 580 407 586T333 592Q315 592 297 591T259 587Q258 497 258 417T257 263Q257 217 257 169T259 69Q276 67 294 66T330 64Q370 64 408 70T471 89L494 210H558Q558 164 560 108T567 0ZM378 945Q398 933 416 916T448 879Q417 830 381 785T297 686L254 713Q283
766 304 819T340 926Q348 929 358 935T378 945Z" />
<glyph unicode="&#xca;" glyph-name="Ecircumflex" horiz-adv-x="602" d="M416 371V287Q393 291 377 293T343 297T293 299Q269 299 242 298T181 292V366Q216 363 241 362T291 360Q322 360 341 361T376 365T416 371ZM445 454Q444 424 443 395T441 333Q441 300 442
263T445 204H390L357 308V351L390 454H445ZM567 0Q479 3 188 3Q153 3 120 3T32 0L20 38L108 59Q110 140 111 218T113 376Q113 439 112 492T108 597L20 621L33 660Q83 658 123 657T192 656Q221 656 262 656T348 656T435 657T509 658T557 660Q554 597 552 549T549
462H485L467 567Q442 580 407 586T333 592Q315 592 297 591T259 587Q258 497 258 417T257 263Q257 217 257 169T259 69Q276 67 294 66T330 64Q370 64 408 70T471 89L494 210H558Q558 164 560 108T567 0ZM341 900Q375 865 409 828T484 743L453 707Q408 736 371 759T295
798Q266 779 242 759T185 709L149 745Q184 782 225 824T300 900H341Z" />
<glyph unicode="&#xcb;" glyph-name="Edieresis" horiz-adv-x="602" d="M416 371V287Q393 291 377 293T343 297T293 299Q269 299 242 298T181 292V366Q216 363 241 362T291 360Q322 360 341 361T376 365T416 371ZM445 454Q444 424 443 395T441 333Q441 300 442
263T445 204H390L357 308V351L390 454H445ZM567 0Q479 3 188 3Q153 3 120 3T32 0L20 38L108 59Q110 140 111 218T113 376Q113 439 112 492T108 597L20 621L33 660Q83 658 123 657T192 656Q221 656 262 656T348 656T435 657T509 658T557 660Q554 597 552 549T549
462H485L467 567Q442 580 407 586T333 592Q315 592 297 591T259 587Q258 497 258 417T257 263Q257 217 257 169T259 69Q276 67 294 66T330 64Q370 64 408 70T471 89L494 210H558Q558 164 560 108T567 0ZM237 706Q211 706 193 725T174 773Q174 800 192 819T237 838Q263
838 281 819T300 773Q300 745 282 726T237 706ZM409 706Q383 706 365 725T346 773Q346 800 364 819T409 838Q434 838 453 819T472 773Q472 745 453 726T409 706Z" />
<glyph unicode="&#xcc;" glyph-name="Igrave" horiz-adv-x="393" d="M350 660L363 621L272 597Q272 512 272 447T271 325T271 204T272 59L363 38L350 0Q296 3 198 3Q152 3 113 2T43 0L30 38L122 59Q124 140 125 203T127 323T126 446T122 597L30 621L43 660Q82
658 119 657T202 656Q243 656 283 657T350 660ZM139 945Q148 941 158 935T177 926Q192 872 213 819T263 713L220 686Q172 739 137 784T69 879Q82 899 101 916T139 945Z" />
<glyph unicode="&#xcd;" glyph-name="Iacute" horiz-adv-x="393" d="M350 660L363 621L272 597Q272 512 272 447T271 325T271 204T272 59L363 38L350 0Q296 3 198 3Q152 3 113 2T43 0L30 38L122 59Q124 140 125 203T127 323T126 446T122 597L30 621L43 660Q82
658 119 657T202 656Q243 656 283 657T350 660ZM254 945Q274 933 292 916T324 879Q293 830 257 785T173 686L130 713Q159 766 180 819T216 926Q224 929 234 935T254 945Z" />
<glyph unicode="&#xce;" glyph-name="Icircumflex" horiz-adv-x="393" d="M350 660L363 621L272 597Q272 512 272 447T271 325T271 204T272 59L363 38L350 0Q296 3 198 3Q152 3 113 2T43 0L30 38L122 59Q124 140 125 203T127 323T126 446T122 597L30 621L43 660Q82
658 119 657T202 656Q243 656 283 657T350 660ZM217 900Q251 865 285 828T360 743L329 707Q284 736 247 759T171 798Q142 779 118 759T61 709L25 745Q60 782 101 824T176 900H217Z" />
<glyph unicode="&#xcf;" glyph-name="Idieresis" horiz-adv-x="393" d="M350 660L363 621L272 597Q272 512 272 447T271 325T271 204T272 59L363 38L350 0Q296 3 198 3Q152 3 113 2T43 0L30 38L122 59Q124 140 125 203T127 323T126 446T122 597L30 621L43 660Q82
658 119 657T202 656Q243 656 283 657T350 660ZM113 706Q87 706 69 725T50 773Q50 800 68 819T113 838Q139 838 157 819T176 773Q176 745 158 726T113 706ZM285 706Q259 706 241 725T222 773Q222 800 240 819T285 838Q310 838 329 819T348 773Q348 745 329 726T285
706Z" />
<glyph unicode="&#xd0;" glyph-name="Eth" horiz-adv-x="728" d="M16 365Q49 364 95 363T192 362T289 363T369 365V294Q336 295 290 295T193 296T96 296T16 294V365ZM181 656Q222 656 261 658T361 660Q420 660 476 640T578 580T651 479T678 334Q678 246 649 183T573
79T471 19T364 -1Q315 -1 275 1T184 3L258 76Q300 63 339 59T410 55Q449 80 474 121T511 212T523 315Q523 370 511 422T474 516T414 582T333 607Q310 607 293 604T258 596Q257 539 257 477T257 356Q257 283 257 212T259 73L300 30L289 1Q272 2 258 2T228 2T184
3Q134 4 99 3T33 0L20 38L108 58Q110 153 112 225T114 356Q114 424 113 486T109 597L21 621L33 660Q63 659 84 658T127 657T181 656Z" />
<glyph unicode="&#xd1;" glyph-name="Ntilde" horiz-adv-x="774" d="M266 660Q320 577 377 503T493 354T615 199L599 -10H589Q527 80 474 151T371 282T274 402T175 530Q180 567 196 592T233 633T266 660ZM266 660L199 568Q199 546 199 489T199 359Q199 297 202
227T212 59L313 38L299 0Q272 2 234 2T163 3Q133 3 99 2T33 0L20 38L121 59Q126 140 128 214T131 361Q131 420 130 477T126 594L22 621L34 660Q96 657 156 657Q180 657 213 658T266 660ZM740 660L754 621L666 600Q660 494 658 404T655 225Q655 169 656 112T658
-10H595L583 33Q586 84 587 127T589 223Q589 306 586 401T574 600L487 621L499 660Q530 659 558 658T617 656Q649 656 681 657T740 660ZM217 721L181 741Q196 771 220 801T271 850T323 870Q352 870 375 857T423 829T477 815Q492 823 513 839T549 875L582 855Q569
825 545 795T494 746T441 726Q412 726 388 740T340 767T290 781Q274 773 253 756T217 721Z" />
<glyph unicode="&#xd2;" glyph-name="Ograve" horiz-adv-x="715" d="M357 670Q434 670 493 642T592 567T654 460T675 337Q675 268 656 206T599 95T501 18T361 -10Q281 -10 221 18T120 95T60 206T40 338Q40 428 74 503T179 624T357 670ZM537 296Q537 358 523 415T482
516T420 587T338 613Q282 613 247 579T195 489T178 370Q178 308 192 250T234 146T298 74T379 47Q436 47 470 82T521 175T537 296ZM298 945Q307 941 317 935T336 926Q351 872 372 819T422 713L379 686Q331 739 296 784T228 879Q241 899 260 916T298 945Z" />
<glyph unicode="&#xd3;" glyph-name="Oacute" horiz-adv-x="715" d="M357 670Q434 670 493 642T592 567T654 460T675 337Q675 268 656 206T599 95T501 18T361 -10Q281 -10 221 18T120 95T60 206T40 338Q40 428 74 503T179 624T357 670ZM537 296Q537 358 523 415T482
516T420 587T338 613Q282 613 247 579T195 489T178 370Q178 308 192 250T234 146T298 74T379 47Q436 47 470 82T521 175T537 296ZM413 945Q433 933 451 916T483 879Q452 830 416 785T332 686L289 713Q318 766 339 819T375 926Q383 929 393 935T413 945Z" />
<glyph unicode="&#xd4;" glyph-name="Ocircumflex" horiz-adv-x="715" d="M357 670Q434 670 493 642T592 567T654 460T675 337Q675 268 656 206T599 95T501 18T361 -10Q281 -10 221 18T120 95T60 206T40 338Q40 428 74 503T179 624T357 670ZM537 296Q537 358 523
415T482 516T420 587T338 613Q282 613 247 579T195 489T178 370Q178 308 192 250T234 146T298 74T379 47Q436 47 470 82T521 175T537 296ZM376 900Q410 865 444 828T519 743L488 707Q443 736 406 759T330 798Q301 779 277 759T220 709L184 745Q219 782 260 824T335
900H376Z" />
<glyph unicode="&#xd5;" glyph-name="Otilde" horiz-adv-x="715" d="M357 670Q434 670 493 642T592 567T654 460T675 337Q675 268 656 206T599 95T501 18T361 -10Q281 -10 221 18T120 95T60 206T40 338Q40 428 74 503T179 624T357 670ZM537 296Q537 358 523 415T482
516T420 587T338 613Q282 613 247 579T195 489T178 370Q178 308 192 250T234 146T298 74T379 47Q436 47 470 82T521 175T537 296ZM193 721L157 741Q172 771 196 801T247 850T299 870Q328 870 351 857T399 829T453 815Q468 823 489 839T525 875L558 855Q545 825
521 795T470 746T417 726Q388 726 364 740T316 767T266 781Q250 773 229 756T193 721Z" />
<glyph unicode="&#xd6;" glyph-name="Odieresis" horiz-adv-x="715" d="M357 670Q434 670 493 642T592 567T654 460T675 337Q675 268 656 206T599 95T501 18T361 -10Q281 -10 221 18T120 95T60 206T40 338Q40 428 74 503T179 624T357 670ZM537 296Q537 358 523
415T482 516T420 587T338 613Q282 613 247 579T195 489T178 370Q178 308 192 250T234 146T298 74T379 47Q436 47 470 82T521 175T537 296ZM272 706Q246 706 228 725T209 773Q209 800 227 819T272 838Q298 838 316 819T335 773Q335 745 317 726T272 706ZM444 706Q418
706 400 725T381 773Q381 800 399 819T444 838Q469 838 488 819T507 773Q507 745 488 726T444 706Z" />
<glyph unicode="&#xd7;" glyph-name="multiply" horiz-adv-x="571" d="M518 138L459 79Q400 141 330 212T188 353T55 483L114 542Q174 481 244 410T385 268T518 138ZM114 79L55 138Q117 198 188 268T329 409T459 542L518 483Q457 424 386 354T244 212T114 79Z" />
<glyph unicode="&#xd8;" glyph-name="Oslash" horiz-adv-x="715" d="M78 4L547 708L616 667L146 -37L78 4ZM357 670Q434 670 493 642T592 567T654 460T675 337Q675 268 656 206T599 95T501 18T361 -10Q281 -10 221 18T120 95T60 206T40 338Q40 428 74 503T179
624T357 670ZM537 296Q537 358 523 415T482 516T420 587T338 613Q282 613 247 579T195 489T178 370Q178 308 192 250T234 146T298 74T379 47Q436 47 470 82T521 175T537 296Z" />
<glyph unicode="&#xd9;" glyph-name="Ugrave" horiz-adv-x="788" d="M754 660L768 621L680 600Q673 488 669 391T659 219Q655 156 631 113T569 44T486 6T396 -6Q323 -6 263 14T166 79T119 203Q114 250 113 313T112 448T110 595L20 621L32 660Q63 659 104 658T185
656Q234 656 273 657T338 660L350 621L261 595Q258 517 258 443Q258 368 260 309T265 218Q272 142 310 102T419 62Q493 62 536 99T589 219Q591 241 592 277T593 356Q593 409 592 473T585 600L495 621L509 660Q539 658 571 657T629 656Q661 656 698 657T754 660ZM344
945Q353 941 363 935T382 926Q397 872 418 819T468 713L425 686Q377 739 342 784T274 879Q287 899 306 916T344 945Z" />
<glyph unicode="&#xda;" glyph-name="Uacute" horiz-adv-x="788" d="M754 660L768 621L680 600Q673 488 669 391T659 219Q655 156 631 113T569 44T486 6T396 -6Q323 -6 263 14T166 79T119 203Q114 250 113 313T112 448T110 595L20 621L32 660Q63 659 104 658T185
656Q234 656 273 657T338 660L350 621L261 595Q258 517 258 443Q258 368 260 309T265 218Q272 142 310 102T419 62Q493 62 536 99T589 219Q591 241 592 277T593 356Q593 409 592 473T585 600L495 621L509 660Q539 658 571 657T629 656Q661 656 698 657T754 660ZM459
945Q479 933 497 916T529 879Q498 830 462 785T378 686L335 713Q364 766 385 819T421 926Q429 929 439 935T459 945Z" />
<glyph unicode="&#xdb;" glyph-name="Ucircumflex" horiz-adv-x="788" d="M754 660L768 621L680 600Q673 488 669 391T659 219Q655 156 631 113T569 44T486 6T396 -6Q323 -6 263 14T166 79T119 203Q114 250 113 313T112 448T110 595L20 621L32 660Q63 659 104
658T185 656Q234 656 273 657T338 660L350 621L261 595Q258 517 258 443Q258 368 260 309T265 218Q272 142 310 102T419 62Q493 62 536 99T589 219Q591 241 592 277T593 356Q593 409 592 473T585 600L495 621L509 660Q539 658 571 657T629 656Q661 656 698 657T754
660ZM422 900Q456 865 490 828T565 743L534 707Q489 736 452 759T376 798Q347 779 323 759T266 709L230 745Q265 782 306 824T381 900H422Z" />
<glyph unicode="&#xdc;" glyph-name="Udieresis" horiz-adv-x="788" d="M754 660L768 621L680 600Q673 488 669 391T659 219Q655 156 631 113T569 44T486 6T396 -6Q323 -6 263 14T166 79T119 203Q114 250 113 313T112 448T110 595L20 621L32 660Q63 659 104 658T185
656Q234 656 273 657T338 660L350 621L261 595Q258 517 258 443Q258 368 260 309T265 218Q272 142 310 102T419 62Q493 62 536 99T589 219Q591 241 592 277T593 356Q593 409 592 473T585 600L495 621L509 660Q539 658 571 657T629 656Q661 656 698 657T754 660ZM318
706Q292 706 274 725T255 773Q255 800 273 819T318 838Q344 838 362 819T381 773Q381 745 363 726T318 706ZM490 706Q464 706 446 725T427 773Q427 800 445 819T490 838Q515 838 534 819T553 773Q553 745 534 726T490 706Z" />
<glyph unicode="&#xdd;" glyph-name="Yacute" horiz-adv-x="671" d="M313 660L328 621L262 605Q277 572 298 521T349 409T413 287L292 198Q270 247 245 302T194 412T143 517T97 603L20 621L33 660Q64 659 94 658T163 657Q216 657 251 658T313 660ZM413 297Q412
244 412 205T412 131T414 59L515 38L502 0Q476 2 437 2T339 3Q278 3 245 2T182 0L169 38L271 59Q273 98 273 129T274 194T271 275L413 297ZM636 660L651 621L571 600Q552 568 528 520T478 417T428 307T386 205L346 279Q364 312 383 354T419 442T451 529T476 602L393
621L407 660Q438 659 464 658T524 657Q558 657 584 658T636 660ZM421 945Q441 933 459 916T491 879Q460 830 424 785T340 686L297 713Q326 766 347 819T383 926Q391 929 401 935T421 945Z" />
<glyph unicode="&#xde;" glyph-name="Thorn" horiz-adv-x="629" d="M340 660L353 621L262 597Q262 512 262 447T261 325T261 204T262 59L353 38L340 0Q286 3 188 3Q142 3 103 2T33 0L20 38L112 59Q114 140 115 203T117 323T116 446T112 597L20 621L33 660Q72 658
109 657T192 656Q233 656 273 657T340 660ZM198 525Q229 530 254 532T305 536T369 537Q439 537 488 512T563 443T589 343Q589 279 558 231T468 155T328 128Q310 128 284 131T229 140V203Q259 193 298 189T376 192Q408 213 423 250T439 330Q439 418 389 453T244
472L198 525Z" />
<glyph unicode="&#xdf;" glyph-name="germandbls" horiz-adv-x="637" d="M46 0L30 37L106 58Q108 63 109 71T111 101T112 165T113 278T114 457Q114 534 148 598T241 700T378 739Q451 739 494 716T556 657T575 581Q575 537 560 507T522 456T476 420T438 392T422
361Q422 334 443 317T495 285T558 250T611 200T632 120Q632 75 605 46T534 3T441 -11Q361 -11 296 20Q304 58 307 94T314 160H366L379 67Q392 57 409 51T443 45Q468 45 487 58T506 97Q506 127 486 145T435 178T375 208T325 248T304 312Q304 346 317 366T350 401T390
434T423 481T437 562Q437 589 426 616T390 662T323 681Q301 665 283 639T254 569T243 452Q243 414 243 363T244 259T244 161T245 89Q245 52 243 35T235 0Q229 0 204 0T146 0T86 0T46 0Z" />
<glyph unicode="&#xe0;" glyph-name="agrave" horiz-adv-x="494" d="M274 436Q327 436 366 404T405 305Q405 262 404 233T401 182T399 135Q399 107 402 96T422 84Q436 84 464 97L482 53Q446 28 413 12T343 -5Q312 -5 289 19T266 97Q266 146 270 193T275 278Q275
309 266 328T236 354Q190 352 148 337T62 299L36 342Q93 384 151 410T274 436ZM345 279L285 196Q263 191 246 186T215 178Q181 171 168 161T155 124Q155 103 166 91T196 79Q219 79 254 100T315 155L334 114Q318 94 289 65T218 14T128 -9Q103 -9 80 4T41 45T25 112Q25
154 50 177T120 214T217 236Q253 242 284 251T345 279ZM181 719Q190 715 200 709T219 700Q234 646 255 593T305 487L262 460Q214 513 179 558T111 653Q124 673 143 690T181 719Z" />
<glyph unicode="&#xe1;" glyph-name="aacute" horiz-adv-x="494" d="M274 436Q327 436 366 404T405 305Q405 262 404 233T401 182T399 135Q399 107 402 96T422 84Q436 84 464 97L482 53Q446 28 413 12T343 -5Q312 -5 289 19T266 97Q266 146 270 193T275 278Q275
309 266 328T236 354Q190 352 148 337T62 299L36 342Q93 384 151 410T274 436ZM345 279L285 196Q263 191 246 186T215 178Q181 171 168 161T155 124Q155 103 166 91T196 79Q219 79 254 100T315 155L334 114Q318 94 289 65T218 14T128 -9Q103 -9 80 4T41 45T25 112Q25
154 50 177T120 214T217 236Q253 242 284 251T345 279ZM296 719Q316 707 334 690T366 653Q335 604 299 559T215 460L172 487Q201 540 222 593T258 700Q266 703 276 709T296 719Z" />
<glyph unicode="&#xe2;" glyph-name="acircumflex" horiz-adv-x="494" d="M274 436Q327 436 366 404T405 305Q405 262 404 233T401 182T399 135Q399 107 402 96T422 84Q436 84 464 97L482 53Q446 28 413 12T343 -5Q312 -5 289 19T266 97Q266 146 270 193T275 278Q275
309 266 328T236 354Q190 352 148 337T62 299L36 342Q93 384 151 410T274 436ZM345 279L285 196Q263 191 246 186T215 178Q181 171 168 161T155 124Q155 103 166 91T196 79Q219 79 254 100T315 155L334 114Q318 94 289 65T218 14T128 -9Q103 -9 80 4T41 45T25 112Q25
154 50 177T120 214T217 236Q253 242 284 251T345 279ZM259 674Q293 639 327 602T402 517L371 481Q326 510 289 533T213 572Q184 553 160 533T103 483L67 519Q102 556 143 598T218 674H259Z" />
<glyph unicode="&#xe3;" glyph-name="atilde" horiz-adv-x="494" d="M274 436Q327 436 366 404T405 305Q405 262 404 233T401 182T399 135Q399 107 402 96T422 84Q436 84 464 97L482 53Q446 28 413 12T343 -5Q312 -5 289 19T266 97Q266 146 270 193T275 278Q275
309 266 328T236 354Q190 352 148 337T62 299L36 342Q93 384 151 410T274 436ZM345 279L285 196Q263 191 246 186T215 178Q181 171 168 161T155 124Q155 103 166 91T196 79Q219 79 254 100T315 155L334 114Q318 94 289 65T218 14T128 -9Q103 -9 80 4T41 45T25 112Q25
154 50 177T120 214T217 236Q253 242 284 251T345 279ZM76 495L40 515Q55 545 79 575T130 624T182 644Q211 644 234 631T282 603T336 589Q351 597 372 613T408 649L441 629Q428 599 404 569T353 520T300 500Q271 500 247 514T199 541T149 555Q133 547 112 530T76
495Z" />
<glyph unicode="&#xe4;" glyph-name="adieresis" horiz-adv-x="494" d="M274 436Q327 436 366 404T405 305Q405 262 404 233T401 182T399 135Q399 107 402 96T422 84Q436 84 464 97L482 53Q446 28 413 12T343 -5Q312 -5 289 19T266 97Q266 146 270 193T275 278Q275
309 266 328T236 354Q190 352 148 337T62 299L36 342Q93 384 151 410T274 436ZM345 279L285 196Q263 191 246 186T215 178Q181 171 168 161T155 124Q155 103 166 91T196 79Q219 79 254 100T315 155L334 114Q318 94 289 65T218 14T128 -9Q103 -9 80 4T41 45T25 112Q25
154 50 177T120 214T217 236Q253 242 284 251T345 279ZM155 480Q129 480 111 499T92 547Q92 574 110 593T155 612Q181 612 199 593T218 547Q218 519 200 500T155 480ZM327 480Q301 480 283 499T264 547Q264 574 282 593T327 612Q352 612 371 593T390 547Q390 519
371 500T327 480Z" />
<glyph unicode="&#xe5;" glyph-name="aring" horiz-adv-x="494" d="M274 436Q327 436 366 404T405 305Q405 262 404 233T401 182T399 135Q399 107 402 96T422 84Q436 84 464 97L482 53Q446 28 413 12T343 -5Q312 -5 289 19T266 97Q266 146 270 193T275 278Q275
309 266 328T236 354Q190 352 148 337T62 299L36 342Q93 384 151 410T274 436ZM345 279L285 196Q263 191 246 186T215 178Q181 171 168 161T155 124Q155 103 166 91T196 79Q219 79 254 100T315 155L334 114Q318 94 289 65T218 14T128 -9Q103 -9 80 4T41 45T25 112Q25
154 50 177T120 214T217 236Q253 242 284 251T345 279ZM241 544Q261 544 274 558T288 592Q288 612 275 625T241 639Q221 639 207 626T193 592Q193 572 207 558T241 544ZM241 482Q195 482 163 514T131 592Q131 637 163 669T241 701Q286 701 318 669T350 592Q350
546 318 514T241 482Z" />
<glyph unicode="&#xe6;" glyph-name="ae" horiz-adv-x="692" d="M345 279L285 196Q263 191 246 186T215 178Q181 171 168 161T155 124Q155 103 166 91T196 79Q219 79 254 100T315 155L344 114Q332 99 311 78T261 38T199 5T128 -9Q103 -9 80 4T41 45T25 112Q25
154 50 177T120 214T217 236Q253 242 284 251T345 279ZM671 237Q649 233 613 230T534 226T448 224Q416 224 393 225T362 227V275Q373 275 395 275T446 276T500 279T545 284Q544 305 534 326T502 363T448 378Q428 359 416 326T404 248Q404 158 441 116T534 73Q590
73 652 113L674 67Q631 28 582 11T485 -6Q429 -6 381 18T303 92T273 214Q273 288 303 337T382 412T485 437Q535 437 577 415T645 349T671 237ZM273 224Q274 238 274 252T275 278Q275 309 266 328T236 354Q190 352 148 337T62 299L36 342Q93 384 151 410T274 436Q327
436 366 404T405 305Q405 274 405 251T402 207L273 224Z" />
<glyph unicode="&#xe7;" glyph-name="ccedilla" horiz-adv-x="433" d="M425 69Q391 38 345 16T238 -6Q166 -6 118 26T45 108T21 213Q21 269 46 320T121 403T250 436Q292 436 332 427T410 394Q396 342 390 309T378 245H328L313 336Q288 357 256 369T192 379Q171
354 160 320T148 250Q148 196 167 157T217 97T286 75Q311 75 339 85T398 118L425 69ZM203 3H255L242 -52Q283 -61 308 -83T334 -134Q334 -165 301 -199T177 -284L149 -243Q184 -220 206 -203T238 -167Q236 -155 221 -144T163 -126L203 3Z" />
<glyph unicode="&#xe8;" glyph-name="egrave" horiz-adv-x="440" d="M233 437Q283 437 325 415T393 349T419 237Q397 233 361 230T282 226T196 224Q164 224 141 225T110 227V275Q121 275 143 275T194 276T248 279T293 284Q292 305 282 326T250 363T196 378Q176
359 164 326T152 248Q152 158 189 116T282 73Q338 73 400 113L422 67Q379 28 330 11T233 -6Q177 -6 129 18T51 92T21 214Q21 288 51 337T130 412T233 437ZM169 719Q178 715 188 709T207 700Q222 646 243 593T293 487L250 460Q202 513 167 558T99 653Q112 673 131
690T169 719Z" />
<glyph unicode="&#xe9;" glyph-name="eacute" horiz-adv-x="440" d="M233 437Q283 437 325 415T393 349T419 237Q397 233 361 230T282 226T196 224Q164 224 141 225T110 227V275Q121 275 143 275T194 276T248 279T293 284Q292 305 282 326T250 363T196 378Q176
359 164 326T152 248Q152 158 189 116T282 73Q338 73 400 113L422 67Q379 28 330 11T233 -6Q177 -6 129 18T51 92T21 214Q21 288 51 337T130 412T233 437ZM284 719Q304 707 322 690T354 653Q323 604 287 559T203 460L160 487Q189 540 210 593T246 700Q254 703 264
709T284 719Z" />
<glyph unicode="&#xea;" glyph-name="ecircumflex" horiz-adv-x="440" d="M233 437Q283 437 325 415T393 349T419 237Q397 233 361 230T282 226T196 224Q164 224 141 225T110 227V275Q121 275 143 275T194 276T248 279T293 284Q292 305 282 326T250 363T196 378Q176
359 164 326T152 248Q152 158 189 116T282 73Q338 73 400 113L422 67Q379 28 330 11T233 -6Q177 -6 129 18T51 92T21 214Q21 288 51 337T130 412T233 437ZM247 674Q281 639 315 602T390 517L359 481Q314 510 277 533T201 572Q172 553 148 533T91 483L55 519Q90
556 131 598T206 674H247Z" />
<glyph unicode="&#xeb;" glyph-name="edieresis" horiz-adv-x="440" d="M233 437Q283 437 325 415T393 349T419 237Q397 233 361 230T282 226T196 224Q164 224 141 225T110 227V275Q121 275 143 275T194 276T248 279T293 284Q292 305 282 326T250 363T196 378Q176
359 164 326T152 248Q152 158 189 116T282 73Q338 73 400 113L422 67Q379 28 330 11T233 -6Q177 -6 129 18T51 92T21 214Q21 288 51 337T130 412T233 437ZM143 480Q117 480 99 499T80 547Q80 574 98 593T143 612Q169 612 187 593T206 547Q206 519 188 500T143 480ZM315
480Q289 480 271 499T252 547Q252 574 270 593T315 612Q340 612 359 593T378 547Q378 519 359 500T315 480Z" />
<glyph unicode="&#xec;" glyph-name="igrave" horiz-adv-x="336" d="M240 445Q237 331 237 228Q237 191 238 143T240 58L320 37L304 0Q286 1 269 1T230 2T171 3Q122 3 95 2T37 0L21 37L100 58Q102 108 103 145T103 226Q103 249 103 268T101 310T97 368L30 381L16
426Q51 428 113 432T240 445ZM109 719Q118 715 128 709T147 700Q162 646 183 593T233 487L190 460Q142 513 107 558T39 653Q52 673 71 690T109 719Z" />
<glyph unicode="&#xed;" glyph-name="iacute" horiz-adv-x="336" d="M240 445Q237 331 237 228Q237 191 238 143T240 58L320 37L304 0Q286 1 269 1T230 2T171 3Q122 3 95 2T37 0L21 37L100 58Q102 108 103 145T103 226Q103 249 103 268T101 310T97 368L30 381L16
426Q51 428 113 432T240 445ZM224 719Q244 707 262 690T294 653Q263 604 227 559T143 460L100 487Q129 540 150 593T186 700Q194 703 204 709T224 719Z" />
<glyph unicode="&#xee;" glyph-name="icircumflex" horiz-adv-x="336" d="M240 445Q237 331 237 228Q237 191 238 143T240 58L320 37L304 0Q286 1 269 1T230 2T171 3Q122 3 95 2T37 0L21 37L100 58Q102 108 103 145T103 226Q103 249 103 268T101 310T97 368L30
381L16 426Q51 428 113 432T240 445ZM443 674Q477 639 511 602T586 517L555 481Q510 510 473 533T397 572Q368 553 344 533T287 483L251 519Q286 556 327 598T402 674H443Z" />
<glyph unicode="&#xef;" glyph-name="idieresis" horiz-adv-x="336" d="M240 445Q237 331 237 228Q237 191 238 143T240 58L320 37L304 0Q286 1 269 1T230 2T171 3Q122 3 95 2T37 0L21 37L100 58Q102 108 103 145T103 226Q103 249 103 268T101 310T97 368L30 381L16
426Q51 428 113 432T240 445ZM83 480Q57 480 39 499T20 547Q20 574 38 593T83 612Q109 612 127 593T146 547Q146 519 128 500T83 480ZM255 480Q229 480 211 499T192 547Q192 574 210 593T255 612Q280 612 299 593T318 547Q318 519 299 500T255 480Z" />
<glyph unicode="&#xf0;" glyph-name="eth" horiz-adv-x="503" d="M336 336Q335 409 296 488T191 655L98 641L79 681Q102 685 141 695T223 717T295 740Q325 697 357 647T416 539T461 412T478 265Q478 197 458 148T405 65T337 15T267 -5Q205 -10 149 15T57 92T21
221Q21 275 39 315T88 382T155 422T227 435Q262 435 292 418T343 373T370 311L338 237Q338 272 321 302T281 351T238 375Q198 363 178 320T157 227Q157 183 164 141T193 72T252 45Q287 45 306 74T333 167T336 336ZM121 564Q154 568 200 575T296 591T391 609T469
625L481 555Q448 550 403 543T307 526T212 509T134 494L121 564Z" />
<glyph unicode="&#xf1;" glyph-name="ntilde" horiz-adv-x="623" d="M404 435Q461 435 497 392T538 281Q539 263 538 225T537 141T536 58L611 37L595 0Q569 2 536 2T471 3Q432 3 401 2T344 0L331 37L404 58Q405 92 406 115T407 162T407 218Q406 279 385 307T323
344Q279 315 259 273T240 193L203 237Q210 294 237 339T308 409T404 435ZM241 440Q241 407 241 387T241 346T238 291L242 58L315 37L302 0Q268 2 238 2T172 3Q133 3 105 2T47 0L31 37L106 58Q106 90 108 133T111 216Q111 245 111 264T108 305T102 362L24 381L12
419Q71 422 123 427T241 440ZM147 495L111 515Q126 545 150 575T201 624T253 644Q282 644 305 631T353 603T407 589Q422 597 443 613T479 649L512 629Q499 599 475 569T424 520T371 500Q342 500 318 514T270 541T220 555Q204 547 183 530T147 495Z" />
<glyph unicode="&#xf2;" glyph-name="ograve" d="M257 434Q331 434 380 403T454 322T479 214Q479 155 454 104T379 21T254 -10Q179 -10 128 21T51 105T25 216Q25 274 50 323T127 403T257 434ZM165 237Q165 187 176 142T211 69T266 41Q304 41 322 82T341 186Q341
236 330 280T296 353T240 382Q202 382 184 341T165 237ZM193 719Q202 715 212 709T231 700Q246 646 267 593T317 487L274 460Q226 513 191 558T123 653Q136 673 155 690T193 719Z" />
<glyph unicode="&#xf3;" glyph-name="oacute" d="M257 434Q331 434 380 403T454 322T479 214Q479 155 454 104T379 21T254 -10Q179 -10 128 21T51 105T25 216Q25 274 50 323T127 403T257 434ZM165 237Q165 187 176 142T211 69T266 41Q304 41 322 82T341 186Q341
236 330 280T296 353T240 382Q202 382 184 341T165 237ZM308 719Q328 707 346 690T378 653Q347 604 311 559T227 460L184 487Q213 540 234 593T270 700Q278 703 288 709T308 719Z" />
<glyph unicode="&#xf4;" glyph-name="ocircumflex" d="M257 434Q331 434 380 403T454 322T479 214Q479 155 454 104T379 21T254 -10Q179 -10 128 21T51 105T25 216Q25 274 50 323T127 403T257 434ZM165 237Q165 187 176 142T211 69T266 41Q304 41 322 82T341 186Q341
236 330 280T296 353T240 382Q202 382 184 341T165 237ZM271 674Q305 639 339 602T414 517L383 481Q338 510 301 533T225 572Q196 553 172 533T115 483L79 519Q114 556 155 598T230 674H271Z" />
<glyph unicode="&#xf5;" glyph-name="otilde" d="M257 434Q331 434 380 403T454 322T479 214Q479 155 454 104T379 21T254 -10Q179 -10 128 21T51 105T25 216Q25 274 50 323T127 403T257 434ZM165 237Q165 187 176 142T211 69T266 41Q304 41 322 82T341 186Q341
236 330 280T296 353T240 382Q202 382 184 341T165 237ZM88 495L52 515Q67 545 91 575T142 624T194 644Q223 644 246 631T294 603T348 589Q363 597 384 613T420 649L453 629Q440 599 416 569T365 520T312 500Q283 500 259 514T211 541T161 555Q145 547 124 530T88
495Z" />
<glyph unicode="&#xf6;" glyph-name="odieresis" d="M257 434Q331 434 380 403T454 322T479 214Q479 155 454 104T379 21T254 -10Q179 -10 128 21T51 105T25 216Q25 274 50 323T127 403T257 434ZM165 237Q165 187 176 142T211 69T266 41Q304 41 322 82T341 186Q341
236 330 280T296 353T240 382Q202 382 184 341T165 237ZM167 480Q141 480 123 499T104 547Q104 574 122 593T167 612Q193 612 211 593T230 547Q230 519 212 500T167 480ZM339 480Q313 480 295 499T276 547Q276 574 294 593T339 612Q364 612 383 593T402 547Q402
519 383 500T339 480Z" />
<glyph unicode="&#xf7;" glyph-name="divide" horiz-adv-x="571" d="M536 372V289Q461 292 374 292T198 293T35 289V372Q110 370 198 369T373 369T536 372ZM286 441Q262 441 245 458T228 499Q228 522 245 539T286 556Q309 556 326 539T343 499Q343 475 326 458T286
441ZM286 105Q262 105 245 122T228 163Q228 186 245 203T286 220Q309 220 326 203T343 163Q343 139 326 122T286 105Z" />
<glyph unicode="&#xf8;" glyph-name="oslash" horiz-adv-x="492" d="M382 493L195 -67H110L297 493H382ZM257 434Q331 434 380 403T454 322T479 214Q479 155 454 104T379 21T254 -10Q179 -10 128 21T51 105T25 216Q25 274 50 323T127 403T257 434ZM165 237Q165
187 176 142T211 69T266 41Q304 41 322 82T341 186Q341 236 330 280T296 353T240 382Q202 382 184 341T165 237Z" />
<glyph unicode="&#xf9;" glyph-name="ugrave" horiz-adv-x="611" d="M230 -17Q167 -17 132 26T91 151Q89 186 89 237T90 367L19 378L7 419Q65 419 121 423T227 434Q225 388 223 350T220 272T223 180Q226 122 250 100T297 78Q321 83 342 110T376 177T389 256L415
171Q409 122 384 79T320 10T230 -17ZM397 0Q396 30 394 64T390 145L384 366L312 378L300 419Q359 419 414 423T519 434Q519 434 519 411T518 354T516 287T515 230T514 207Q515 173 517 143T524 58L599 37L580 0Q554 2 532 2T474 2Q459 2 435 1T397 0ZM242 719Q251
715 261 709T280 700Q295 646 316 593T366 487L323 460Q275 513 240 558T172 653Q185 673 204 690T242 719Z" />
<glyph unicode="&#xfa;" glyph-name="uacute" horiz-adv-x="611" d="M230 -17Q167 -17 132 26T91 151Q89 186 89 237T90 367L19 378L7 419Q65 419 121 423T227 434Q225 388 223 350T220 272T223 180Q226 122 250 100T297 78Q321 83 342 110T376 177T389 256L415
171Q409 122 384 79T320 10T230 -17ZM397 0Q396 30 394 64T390 145L384 366L312 378L300 419Q359 419 414 423T519 434Q519 434 519 411T518 354T516 287T515 230T514 207Q515 173 517 143T524 58L599 37L580 0Q554 2 532 2T474 2Q459 2 435 1T397 0ZM357 719Q377
707 395 690T427 653Q396 604 360 559T276 460L233 487Q262 540 283 593T319 700Q327 703 337 709T357 719Z" />
<glyph unicode="&#xfb;" glyph-name="ucircumflex" horiz-adv-x="611" d="M230 -17Q167 -17 132 26T91 151Q89 186 89 237T90 367L19 378L7 419Q65 419 121 423T227 434Q225 388 223 350T220 272T223 180Q226 122 250 100T297 78Q321 83 342 110T376 177T389 256L415
171Q409 122 384 79T320 10T230 -17ZM397 0Q396 30 394 64T390 145L384 366L312 378L300 419Q359 419 414 423T519 434Q519 434 519 411T518 354T516 287T515 230T514 207Q515 173 517 143T524 58L599 37L580 0Q554 2 532 2T474 2Q459 2 435 1T397 0ZM320 674Q354
639 388 602T463 517L432 481Q387 510 350 533T274 572Q245 553 221 533T164 483L128 519Q163 556 204 598T279 674H320Z" />
<glyph unicode="&#xfc;" glyph-name="udieresis" horiz-adv-x="611" d="M230 -17Q167 -17 132 26T91 151Q89 186 89 237T90 367L19 378L7 419Q65 419 121 423T227 434Q225 388 223 350T220 272T223 180Q226 122 250 100T297 78Q321 83 342 110T376 177T389 256L415
171Q409 122 384 79T320 10T230 -17ZM397 0Q396 30 394 64T390 145L384 366L312 378L300 419Q359 419 414 423T519 434Q519 434 519 411T518 354T516 287T515 230T514 207Q515 173 517 143T524 58L599 37L580 0Q554 2 532 2T474 2Q459 2 435 1T397 0ZM216 480Q190
480 172 499T153 547Q153 574 171 593T216 612Q242 612 260 593T279 547Q279 519 261 500T216 480ZM388 480Q362 480 344 499T325 547Q325 574 343 593T388 612Q413 612 432 593T451 547Q451 519 432 500T388 480Z" />
<glyph unicode="&#xfd;" glyph-name="yacute" horiz-adv-x="586" d="M571 421L586 383L509 364Q442 219 379 81T275 -190L367 -221L351 -260Q327 -258 292 -257T221 -256Q197 -256 167 -256T109 -258T66 -260L50 -220L167 -188Q195 -148 229 -84T300 56T367 212T421
364L343 383L357 421Q388 420 412 420T463 419Q490 419 517 419T571 421ZM284 420L302 382L230 362Q242 325 252 297T272 244T297 187T333 113Q335 103 328 80T310 31T286 -13T265 -31Q237 31 214 80T170 173T126 263T76 362L0 382L14 420Q44 419 74 418T144 417Q186
417 222 418T284 420ZM373 715Q393 703 411 686T443 649Q412 600 376 555T292 456L249 483Q278 536 299 589T335 696Q343 699 353 705T373 715Z" />
<glyph unicode="&#xfe;" glyph-name="thorn" horiz-adv-x="600" d="M269 745Q268 671 267 610T266 489T265 358T264 192Q264 153 264 103T266 -18T269 -197L369 -221L355 -260Q329 -258 289 -257T205 -256Q156 -256 125 -257T65 -260L50 -221L129 -201Q130 -125
131 -73T132 20T133 101T133 193Q133 238 133 298T132 424T130 553T125 669L41 684L30 725Q47 726 77 727T143 731T212 737T269 745ZM403 436Q460 436 498 406T556 327T575 224Q575 167 553 115T487 29T376 -5Q321 -5 280 26T208 105L229 147Q244 115 277 90T350
65Q380 65 400 85T430 139T440 208Q440 244 430 278T399 337T345 365Q331 362 312 345T278 298T264 224L236 291Q245 339 270 371T331 419T403 436Z" />
<glyph unicode="&#xff;" glyph-name="ydieresis" horiz-adv-x="586" d="M571 421L586 383L509 364Q442 219 379 81T275 -190L367 -221L351 -260Q327 -258 292 -257T221 -256Q197 -256 167 -256T109 -258T66 -260L50 -220L167 -188Q195 -148 229 -84T300 56T367
212T421 364L343 383L357 421Q388 420 412 420T463 419Q490 419 517 419T571 421ZM284 420L302 382L230 362Q242 325 252 297T272 244T297 187T333 113Q335 103 328 80T310 31T286 -13T265 -31Q237 31 214 80T170 173T126 263T76 362L0 382L14 420Q44 419 74 418T144
417Q186 417 222 418T284 420ZM232 476Q206 476 188 495T169 543Q169 570 187 589T232 608Q258 608 276 589T295 543Q295 515 277 496T232 476ZM404 476Q378 476 360 495T341 543Q341 570 359 589T404 608Q429 608 448 589T467 543Q467 515 448 496T404 476Z" />
<glyph unicode="&#x2013;" glyph-name="endash" horiz-adv-x="507" d="M459 310V227H48V310H459Z" />
<glyph unicode="&#x2014;" glyph-name="emdash" horiz-adv-x="786" d="M738 310V227H48V310H738Z" />
<glyph unicode="&#x2018;" glyph-name="quoteleft" horiz-adv-x="254" d="M264 758Q219 722 193 695T155 648T137 608Q148 607 161 604T182 599Q190 565 190 537Q190 505 182 479Q169 474 155 471T123 467Q88 467 60 478Q50 506 50 538Q50 573 63 612T115 698T232
802L264 758Z" />
<glyph unicode="&#x2019;" glyph-name="quoteright" horiz-adv-x="254" d="M-10 511Q36 547 61 574T99 622T117 661Q107 662 94 665T72 670Q64 704 64 732Q64 764 72 790Q86 795 99 798T131 802Q166 802 194 791Q204 763 204 731Q204 696 191 657T139 572T22 467L-10
511Z" />
<glyph unicode="&#x201a;" glyph-name="quotesinglbase" horiz-adv-x="249" d="M-13 93Q33 129 58 156T96 204T114 243Q104 244 91 247T69 252Q61 286 61 314Q61 346 69 372Q83 377 96 380T128 384Q163 384 191 373Q201 345 201 313Q201 278 188 239T136 154T19
49L-13 93Z" />
<glyph unicode="&#x201c;" glyph-name="quotedblleft" horiz-adv-x="436" d="M264 758Q219 722 193 695T155 648T137 608Q148 607 161 604T182 599Q190 565 190 537Q190 505 182 479Q169 474 155 471T123 467Q88 467 60 478Q50 506 50 538Q50 573 63 612T115 698T232
802L264 758ZM446 757Q401 721 375 694T337 647T319 607Q330 606 343 603T364 598Q372 564 372 536Q372 504 364 478Q351 473 337 470T305 466Q270 466 242 477Q232 505 232 537Q232 572 245 611T297 697T414 801L446 757Z" />
<glyph unicode="&#x201d;" glyph-name="quotedblright" horiz-adv-x="436" d="M172 510Q218 546 243 573T281 621T299 660Q289 661 276 664T254 669Q246 703 246 731Q246 763 254 789Q268 794 281 797T313 801Q348 801 376 790Q386 762 386 730Q386 695 373 656T321
571T204 466L172 510ZM-10 511Q36 547 61 574T99 622T117 661Q107 662 94 665T72 670Q64 704 64 732Q64 764 72 790Q86 795 99 798T131 802Q166 802 194 791Q204 763 204 731Q204 696 191 657T139 572T22 467L-10 511Z" />
<glyph unicode="&#x201e;" glyph-name="quotedblbase" horiz-adv-x="446" d="M170 -158Q216 -122 241 -95T279 -47T297 -8Q287 -7 274 -4T252 1Q244 35 244 63Q244 95 252 121Q266 126 279 129T311 133Q346 133 374 122Q384 94 384 62Q384 27 371 -12T319 -97T202
-202L170 -158ZM-13 -158Q33 -122 58 -95T96 -47T114 -8Q104 -7 91 -4T69 1Q61 35 61 63Q61 95 69 121Q83 126 96 129T128 133Q163 133 191 122Q201 94 201 62Q201 27 188 -12T136 -97T19 -202L-13 -158Z" />
<glyph unicode="&#x2022;" glyph-name="bullet" horiz-adv-x="354" d="M177 371Q200 371 223 367T272 355Q278 330 283 306T289 259Q289 236 284 212T272 163Q221 146 177 146Q152 146 129 150T79 163Q65 213 65 259Q65 304 79 355Q105 363 128 367T177 371Z" />
<glyph unicode="&#x2039;" glyph-name="guilsinglleft" horiz-adv-x="371" d="M287 457L326 423Q287 372 251 318T188 211Q216 159 252 105T326 0L287 -35Q227 22 165 79T55 187V235Q102 285 164 343T287 457Z" />
<glyph unicode="&#x203a;" glyph-name="guilsinglright" horiz-adv-x="371" d="M84 457Q145 401 207 343T316 235V187Q269 137 207 80T84 -35L45 0Q83 50 119 104T183 211Q156 263 120 317T45 423L84 457Z" />
</font>
</defs>
</svg>
