<?xml version="1.0" standalone="no"?>
<!DOCTYPE svg PUBLIC "-//W3C//DTD SVG 1.1//EN" "http://www.w3.org/Graphics/SVG/1.1/DTD/svg11.dtd">
<svg xmlns="http://www.w3.org/2000/svg">
<defs >
<font id="DelaGothicOne" horiz-adv-x="970" ><font-face
    font-family="Dela Gothic One"
    units-per-em="1000"
    panose-1="0 0 5 0 0 0 0 0 0 0"
    ascent="1160"
    descent="-288"
    alphabetic="0" />
<glyph unicode=" " glyph-name="space" horiz-adv-x="200" />
<glyph unicode="!" glyph-name="exclam" horiz-adv-x="309" d="M279 780Q279 713 274 523Q272 493 272 479Q252 338 247 233H62Q57 338 37 479L36 523Q30 677 30 780H279ZM270 -20H38V158H270V-20Z" />
<glyph unicode="&quot;" glyph-name="quotedbl" horiz-adv-x="501" d="M210 433H30V780H210V433ZM471 433H290V780H471V433Z" />
<glyph unicode="#" glyph-name="numbersign" horiz-adv-x="924" d="M894 664L841 461H768L733 325H804L751 122H680L643 -20H417L454 122H344L307 -20H81L118 122H30L83 325H170L205 461H120L173 664H258L288 780H514L484 664H595L625 780H851L821 664H894ZM396
325H507L542 461H431L396 325Z" />
<glyph unicode="$" glyph-name="dollar" horiz-adv-x="887" d="M847 135T778 73T569 -4V-68H332V-2Q165 19 40 86Q73 137 94 181T136 283Q203 242 293 219T461 196Q540 196 572 210T605 242Q605 303 427 303Q232 303 144 345T56 483Q56 594 130 657T332 739V792H569V735Q716
712 835 647Q818 607 804 567T778 489L767 456Q718 497 620 524T446 552Q355 552 324 540T292 503Q292 479 335 465T461 450Q663 450 755 402T847 253Q847 135 778 73Z" />
<glyph unicode="%" glyph-name="percent" horiz-adv-x="889" d="M736 358T783 335T854 270T879 179Q879 128 855 87T783 23T670 -1Q603 -1 556 22T484 87T459 179Q459 209 468 236L291 -1H60L371 415Q315 367 221 367Q154 367 107 390T35 455T10 547Q10 597 34
638T106 702T221 726Q287 726 334 703T405 638T430 547Q430 507 415 474L598 718H828L531 320Q585 358 670 358Q736 358 783 335ZM242 493T259 510T277 548Q277 569 260 584T221 599Q198 599 181 584T163 548Q163 526 180 510T221 493Q242 493 259 510ZM691 125T708
142T726 180Q726 201 709 216T670 231Q647 231 630 216T612 180Q612 158 629 142T670 125Q691 125 708 142Z" />
<glyph unicode="&amp;" glyph-name="ampersand" horiz-adv-x="771" d="M697 169T761 145Q717 113 683 78T606 -5Q569 24 542 48Q451 -3 320 -3Q228 -3 158 22T49 92T10 198Q10 251 38 295T125 376Q88 415 71 450T53 526Q53 579 90 625T189 698T321 726Q391 726
452 698T549 621T586 516Q586 450 537 402Q574 399 645 399Q677 332 677 265Q677 225 665 189Q697 169 761 145ZM304 561T289 550T274 521Q274 508 282 498T316 464Q351 481 363 495T375 523Q375 537 362 549T326 561Q304 561 289 550ZM500 315T476 357Q455 345
427 332Q446 317 498 279Q500 315 476 357ZM343 171T367 175Q317 212 258 260Q238 249 230 239T222 218Q222 195 241 183T312 171Q343 171 367 175Z" />
<glyph unicode="&apos;" glyph-name="quotesingle" horiz-adv-x="294" d="M264 433H30V780H264V433Z" />
<glyph unicode="(" glyph-name="parenleft" horiz-adv-x="358" d="M327 798Q294 719 275 608T255 380Q255 263 274 152T328 -42L143 -53Q80 67 55 163T30 380Q30 503 55 598T144 809L327 798Z" />
<glyph unicode=")" glyph-name="parenright" horiz-adv-x="358" d="M214 809Q277 694 302 599T328 380Q328 259 303 163T215 -53L30 -42Q64 41 83 152T103 380Q103 496 84 607T31 798L214 809Z" />
<glyph unicode="*" glyph-name="asterisk" horiz-adv-x="479" d="M380 740L449 620L355 579L449 538L380 418L297 479L309 377H170L182 479L99 418L30 538L124 579L30 620L99 740L182 679L170 781H309L297 679L380 740Z" />
<glyph unicode="+" glyph-name="plus" horiz-adv-x="572" d="M384 438H562V243H384V64H189V243H10V438H189V617H384V438Z" />
<glyph unicode="," glyph-name="comma" horiz-adv-x="272" d="M181 203T211 169T242 73Q242 23 225 -32T176 -121H91Q133 -64 144 -9Q92 -9 61 22T30 97Q30 141 61 172T136 203Q181 203 211 169Z" />
<glyph unicode="-" glyph-name="hyphen" horiz-adv-x="490" d="M460 243H30V438H460V243Z" />
<glyph unicode="." glyph-name="period" horiz-adv-x="272" d="M92 -10T61 21T30 97Q30 141 61 172T136 203Q179 203 210 172T242 97Q242 53 211 22T136 -10Q92 -10 61 21Z" />
<glyph unicode="/" glyph-name="slash" horiz-adv-x="499" d="M278 -20H30L221 717H469L278 -20Z" />
<glyph unicode="0" glyph-name="zero" horiz-adv-x="917" d="M244 -10T142 89T40 364Q40 539 142 637T459 736Q673 736 775 638T877 364Q877 188 775 89T459 -10Q244 -10 142 89ZM552 165T594 221T636 364Q636 449 594 505T460 562Q365 562 323 506T280 364Q280
279 322 222T460 165Q552 165 594 221Z" />
<glyph unicode="1" glyph-name="one" horiz-adv-x="588" d="M442 185Q532 187 575 189V0H46V189Q154 185 209 185V530Q173 451 62 428Q59 546 40 643Q120 654 151 670T200 707T224 734V736H442V185Z" />
<glyph unicode="2" glyph-name="two" horiz-adv-x="835" d="M616 193T795 215Q778 163 769 105T760 0H45L44 21Q44 119 101 191T262 324Q292 342 356 370Q439 406 484 433T529 488Q529 522 501 542T414 562Q349 562 316 529T282 445Q282 429 285 412Q159 428 40
434Q40 519 84 587T218 696T438 736Q557 736 636 704T753 622T791 520Q791 460 765 417T689 341T556 268Q544 262 517 255T483 245Q412 224 370 210T291 175Q616 193 795 215Z" />
<glyph unicode="3" glyph-name="three" horiz-adv-x="881" d="M634 375T669 375Q730 375 768 355T824 303T841 237Q841 158 789 103T648 19T450 -10Q134 -10 41 210L97 224Q159 239 202 252T279 283Q299 233 336 212T440 190Q510 190 554 206T598 254Q598 271
581 280T527 292T423 296H347V471H393Q469 471 517 477T565 506Q565 531 540 546T460 562Q390 562 347 533T279 449Q172 492 51 510Q99 618 198 677T455 736Q557 736 638 710T766 636T813 531Q813 497 797 471T734 419T598 368Q634 375 669 375Z" />
<glyph unicode="4" glyph-name="four" horiz-adv-x="924" d="M884 315V127H748V0H509Q513 42 515 127H40V329Q273 508 456 726H748V315H884ZM520 528Q451 457 401 410T288 315H517L520 528Z" />
<glyph unicode="5" glyph-name="five" horiz-adv-x="884" d="M612 511T689 480T805 395T844 275Q844 125 740 58T460 -10Q313 -10 202 39T40 206Q95 214 160 232T279 269Q300 226 338 207T440 187Q508 187 552 209T597 270Q597 310 558 337T439 364Q387 364 344
346T282 293H51Q75 396 93 515T116 726H818V532Q707 539 609 540T333 542L323 486Q399 511 498 511Q612 511 689 480Z" />
<glyph unicode="6" glyph-name="six" horiz-adv-x="856" d="M611 496T676 464T778 376T816 258Q816 176 764 115T623 22T424 -10Q312 -10 225 34T89 158T40 338Q40 539 151 637T452 736Q682 736 815 620Q755 556 705 479Q665 509 593 527T463 546Q376 546 317
503T245 378Q244 373 244 364Q292 434 370 465T532 496Q611 496 676 464ZM472 180T505 190T557 219T576 259Q576 292 535 315T434 339Q375 339 334 316T292 259Q292 238 311 220T363 191T434 180Q472 180 505 190Z" />
<glyph unicode="7" glyph-name="seven" horiz-adv-x="777" d="M40 727H764V598Q568 301 461 0H191Q300 271 478 539Q201 539 40 529V727Z" />
<glyph unicode="8" glyph-name="eight" horiz-adv-x="876" d="M744 376T775 347T821 284T836 219Q836 101 732 46T439 -10Q250 -10 145 45T40 219Q40 267 74 317T171 392Q116 418 89 449T61 534Q61 596 104 644T232 720T439 747Q559 747 644 720T772 645T815 534Q815
480 787 449T700 392Q744 376 775 347ZM499 451T537 471T576 524Q576 557 537 576T441 596Q383 596 344 577T305 524Q305 490 344 471T441 451Q499 451 537 471ZM499 171T537 191T576 244Q576 277 537 296T441 316Q383 316 344 297T305 244Q305 210 344 191T441
171Q499 171 537 191Z" />
<glyph unicode="9" glyph-name="nine" horiz-adv-x="856" d="M544 736T631 692T767 568T816 388Q816 187 705 89T404 -10Q174 -10 41 106Q101 170 151 247Q190 215 262 198T393 180Q480 180 539 223T611 348Q612 353 612 362Q564 292 485 260T324 227Q244 227
179 256T77 335T40 449Q40 540 91 605T232 703T432 736Q544 736 631 692ZM460 384T492 395T544 426T564 467Q564 501 523 525T422 549Q363 549 322 525T280 467Q280 432 321 408T422 384Q460 384 492 395Z" />
<glyph unicode=":" glyph-name="colon" horiz-adv-x="272" d="M92 388T61 419T30 495Q30 539 61 570T136 601Q179 601 210 570T242 495Q242 451 211 420T136 388Q92 388 61 419ZM92 88T61 119T30 195Q30 239 61 270T136 301Q179 301 210 270T242 195Q242 151 211
120T136 88Q92 88 61 119Z" />
<glyph unicode=";" glyph-name="semicolon" horiz-adv-x="272" d="M92 388T61 419T30 495Q30 539 61 570T136 601Q179 601 210 570T242 495Q242 451 211 420T136 388Q92 388 61 419ZM242 196V195V188Q240 139 221 70T186 -23H83Q94 18 105 93Q72 103 51 131T30
195Q30 239 61 270T136 301Q178 301 209 271T242 198V196Z" />
<glyph unicode="&lt;" glyph-name="less" horiz-adv-x="547" d="M10 491L537 681V480L187 363L537 245V44L10 234V491Z" />
<glyph unicode="=" glyph-name="equal" horiz-adv-x="617" d="M607 381H10V546H607V381ZM607 179H10V344H607V179Z" />
<glyph unicode="&gt;" glyph-name="greater" horiz-adv-x="547" d="M10 480V681L537 491V234L10 44V245L360 363L10 480Z" />
<glyph unicode="?" glyph-name="question" horiz-adv-x="764" d="M479 792T559 760T687 671T734 540Q734 480 705 437T631 367L578 337Q535 313 521 304Q498 290 489 273T480 233H251Q251 309 287 360T408 450Q446 467 463 487T481 534Q481 563 454 584T384 605Q327
605 296 577T264 498Q264 478 270 452Q190 475 31 475Q30 484 30 500Q30 584 74 650T199 754T384 792Q479 792 559 760ZM481 -20H249V158H481V-20Z" />
<glyph unicode="@" glyph-name="at" horiz-adv-x="862" d="M551 656T647 608T797 476T852 285Q852 207 822 145T738 48T618 12Q573 12 540 30T489 81T472 151Q432 117 376 117Q308 117 260 156T212 265Q212 320 240 361T320 425T437 448Q503 448 550 434Q561 464
563 469L566 468Q508 496 431 496Q356 496 298 465T208 380T175 263Q175 168 231 115T383 62Q435 62 490 78Q477 46 477 -75Q441 -79 399 -79Q282 -79 194 -39T58 79T10 263Q10 380 64 469T214 607T431 656Q551 656 647 608ZM615 165T619 161T632 156Q645 156 659
169T684 212T694 285Q694 325 678 358Q615 197 615 172Q615 165 619 161ZM374 254T389 243T426 231Q456 231 472 242T495 278Q499 290 499 303Q499 321 489 330T460 339Q426 339 400 321T374 276Q374 254 389 243Z" />
<glyph unicode="A" glyph-name="A" horiz-adv-x="943" d="M671 0Q652 57 620 143H301L251 0H0L280 726H648L930 0H671ZM563 299Q525 404 485 509L461 574Q426 483 358 299H563Z" />
<glyph unicode="B" glyph-name="B" horiz-adv-x="894" d="M854 361T854 216Q854 148 823 101T712 27T490 0H40Q48 194 48 363Q48 532 40 726H275V725H488Q612 725 683 705T784 645T814 546Q814 485 772 438T626 361Q854 361 854 216ZM275 543V450H467Q529 450
553 461T578 501Q578 524 553 533T467 543H275ZM467 183Q519 183 546 187T586 203T598 235Q598 261 570 272T467 284H275V183H467Z" />
<glyph unicode="C" glyph-name="C" horiz-adv-x="943" d="M254 -10T147 86T40 360Q40 539 147 643T480 747Q796 747 903 530Q813 499 692 437Q663 493 601 520T473 547Q377 547 330 497T283 372Q283 292 333 242T488 191Q571 191 620 218T692 306Q774 262 902
207Q852 86 735 38T480 -10Q254 -10 147 86Z" />
<glyph unicode="D" glyph-name="D" horiz-adv-x="893" d="M548 737T657 692T809 566T853 368Q853 257 803 174T653 46T407 0Q318 0 226 0T40 1Q48 198 48 368Q48 540 40 727Q159 737 360 737Q548 737 657 692ZM435 199Q528 199 559 244T590 368Q590 444 558 491T435
538Q338 538 290 532V199H435Z" />
<glyph unicode="E" glyph-name="E" horiz-adv-x="867" d="M276 183Q656 185 827 194Q820 153 819 110T817 0H40Q48 194 48 363Q48 532 40 726H817V545H276V449Q324 448 418 448Q577 448 747 454V282Q577 288 418 288Q324 288 276 287V183Z" />
<glyph unicode="F" glyph-name="F" horiz-adv-x="860" d="M820 539H276V434Q327 433 429 433Q605 433 787 439V243Q605 250 403 250Q319 250 276 249V0H40Q48 194 48 363Q48 532 40 726H820V539Z" />
<glyph unicode="G" glyph-name="G" horiz-adv-x="919" d="M452 414H879V0H703L682 177Q652 82 575 36T387 -10Q286 -10 208 35T85 164T40 360Q40 539 147 643T480 747Q609 747 707 705T875 575Q830 552 699 483L674 469Q635 508 583 527T473 547Q377 547 330 497T283
372Q283 292 333 243T488 194Q533 194 575 207T647 252H452V414Z" />
<glyph unicode="H" glyph-name="H" horiz-adv-x="918" d="M878 726Q871 557 871 363Q871 169 878 0H643V272H275V0H40Q48 194 48 363Q48 532 40 726H275V454H643V726H878Z" />
<glyph unicode="I" glyph-name="I" horiz-adv-x="661" d="M621 527Q502 533 445 534V192Q503 193 621 199V0H40V199Q155 193 215 192V534Q155 533 40 527V726H621V527Z" />
<glyph unicode="J" glyph-name="J" horiz-adv-x="884" d="M844 727V374Q844 187 748 89T442 -10Q322 -10 221 25T40 116Q59 178 71 235T89 360Q192 277 279 245T445 213Q527 213 562 250T598 377V453Q598 615 589 727H844Z" />
<glyph unicode="K" glyph-name="K" horiz-adv-x="916" d="M562 0Q515 85 406 260L289 144V0H40Q48 194 48 363Q48 532 40 726H289V433Q473 615 551 726H875L560 414Q630 316 717 201T876 0H562Z" />
<glyph unicode="L" glyph-name="L" horiz-adv-x="804" d="M284 202Q574 204 764 212Q751 161 748 114T745 0H40Q48 194 48 363Q48 532 40 726H284V202Z" />
<glyph unicode="M" glyph-name="M" horiz-adv-x="1093" d="M975 726L1053 0H794L778 518L678 0H416L314 514L299 0H40L118 726H458L545 253L621 726H975Z" />
<glyph unicode="N" glyph-name="N" horiz-adv-x="919" d="M879 725Q872 556 872 363Q872 169 879 0H521L279 546L297 0H40Q48 194 48 363Q48 531 40 725H408L651 164L634 725H879Z" />
<glyph unicode="O" glyph-name="O" horiz-adv-x="971" d="M256 -10T148 89T40 369Q40 547 147 647T485 747Q716 747 823 647T931 369Q931 188 824 89T485 -10Q256 -10 148 89ZM596 194T645 236T694 369Q694 457 645 500T485 543Q375 543 326 500T277 369Q277 280
326 237T485 194Q596 194 645 236Z" />
<glyph unicode="P" glyph-name="P" horiz-adv-x="889" d="M494 725Q693 725 771 655T849 456Q849 368 818 307T709 211T494 176H286V0H40Q48 194 48 363Q48 532 40 726H286V725H494ZM424 369Q507 369 548 375T606 399T623 449Q623 482 608 498T551 521T424 527H286V369H424Z"
/>
<glyph unicode="Q" glyph-name="Q" horiz-adv-x="971" d="M931 57T628 2Q683 -24 755 -48Q688 -105 579 -200Q467 -114 388 -5Q209 16 125 113T40 369Q40 547 147 647T485 747Q716 747 823 647T931 369Q931 57 628 2ZM596 194T645 236T694 369Q694 457 645 500T485
543Q375 543 326 500T277 369Q277 280 326 237T485 194Q596 194 645 236Z" />
<glyph unicode="R" glyph-name="R" horiz-adv-x="883" d="M843 397T801 337T655 250Q667 234 672 225L834 0H562Q518 82 423 232H276V0H40Q48 194 48 363Q48 532 40 726H276V725H481Q683 725 763 660T843 484Q843 397 801 337ZM276 533V419H411Q496 419 539 424T600
442T617 477Q617 499 601 511T541 528T411 533H276Z" />
<glyph unicode="S" glyph-name="S" horiz-adv-x="924" d="M74 137T96 181T140 283Q211 242 305 219T480 196Q563 196 597 210T631 242Q631 303 445 303Q241 303 149 345T57 483Q57 618 169 682T460 746Q564 746 673 720T871 647Q842 581 810 486Q804 466 800 456Q749
497 646 524T464 552Q369 552 336 540T303 503Q303 479 348 465T480 450Q692 450 788 402T884 253Q884 113 782 52T473 -10Q362 -10 247 14T40 86Q74 137 96 181Z" />
<glyph unicode="T" glyph-name="T" horiz-adv-x="939" d="M899 516Q742 521 594 522V0H344V522Q195 521 40 516V726H899V516Z" />
<glyph unicode="U" glyph-name="U" horiz-adv-x="920" d="M632 727H880V329Q878 182 780 86T448 -10Q212 -10 125 81T40 322V727H288V338Q288 294 294 267T336 215T451 191Q537 191 577 215T624 270T632 347V727Z" />
<glyph unicode="V" glyph-name="V" horiz-adv-x="903" d="M890 726L824 573Q737 370 687 248T595 0H296Q255 124 206 245T73 557Q59 589 0 726H278Q308 629 367 477Q419 343 451 245Q472 314 501 392T537 488Q595 641 622 726H890Z" />
<glyph unicode="W" glyph-name="W" horiz-adv-x="1096" d="M760 273L812 726H1056L922 0H615L547 405L468 0H174L40 726H284L335 279L415 726H682L760 273Z" />
<glyph unicode="X" glyph-name="X" horiz-adv-x="880" d="M575 372L867 0H578L434 196L289 0H0L292 372L10 726H299L434 546L568 726H857L575 372Z" />
<glyph unicode="Y" glyph-name="Y" horiz-adv-x="943" d="M930 726L911 697Q804 531 728 404T600 169V0H339V186Q302 261 252 340T110 559Q38 665 0 726H280Q310 665 378 545Q446 423 471 373Q506 446 565 552Q634 676 658 726H930Z" />
<glyph unicode="Z" glyph-name="Z" horiz-adv-x="865" d="M429 198T666 205Q696 206 736 208T825 211Q818 164 817 117T815 0H48V223Q103 254 168 299T336 419Q432 489 475 519Q396 518 158 508Q76 504 48 503Q48 577 47 627T40 726H815V502Q762 467 619 366Q459
252 372 197Q429 198 666 205Z" />
<glyph unicode="[" glyph-name="bracketleft" horiz-adv-x="360" d="M266 647V109H330V-52H30V808H330V647H266Z" />
<glyph unicode="\" glyph-name="backslash" horiz-adv-x="499" d="M278 717L469 -20H221L30 717H278Z" />
<glyph unicode="]" glyph-name="bracketright" horiz-adv-x="360" d="M30 647V808H330V-52H30V109H94V647H30Z" />
<glyph unicode="^" glyph-name="asciicircum" horiz-adv-x="615" d="M433 725L605 363H402L307 579L211 363H10L181 725H433Z" />
<glyph unicode="_" glyph-name="underscore" horiz-adv-x="530" d="M500 -19H30V185H500V-19Z" />
<glyph unicode="`" glyph-name="grave" horiz-adv-x="600" d="M259 703L177 858H362L386 703H259Z" />
<glyph unicode="a" glyph-name="a" horiz-adv-x="741" d="M681 166Q681 132 689 118T721 98L717 4Q685 -1 662 -3T599 -5Q513 -5 485 33T457 132V157Q428 75 373 35T231 -5Q131 -5 81 35T30 154Q30 219 73 256T206 307Q130 361 54 401Q114 477 191 516T378 556Q532
556 606 490T681 285V166ZM348 380T309 363T239 312Q299 319 389 319Q426 319 441 328T456 351Q456 363 441 371T399 380Q348 380 309 363ZM350 158T395 179T457 236V262Q433 250 404 244T334 231L298 225Q242 214 242 187Q242 158 294 158Q350 158 395 179Z" />
<glyph unicode="b" glyph-name="b" horiz-adv-x="744" d="M541 556T593 516T675 409T704 267Q704 191 675 128T594 27T477 -10Q401 -10 345 22T261 125L232 0H40Q46 188 46 389Q46 592 40 778H266L263 655Q258 525 258 423Q285 491 340 523T474 556Q541 556 593
516ZM420 158T448 190T476 273Q476 319 446 347T370 376Q347 376 322 366T279 332T261 273Q261 211 289 185T372 158Q420 158 448 190Z" />
<glyph unicode="c" glyph-name="c" horiz-adv-x="707" d="M245 222T275 191T366 160Q399 160 425 172T473 210Q558 177 672 153Q639 76 561 33T357 -10Q190 -10 110 68T30 273Q30 400 110 478T357 556Q482 556 560 513T672 393Q583 374 473 336Q451 361 425 373T366
386Q306 386 276 355T243 273Q245 222 275 191Z" />
<glyph unicode="d" glyph-name="d" horiz-adv-x="734" d="M688 592T688 389Q688 188 694 0H468L471 120Q442 53 387 22T257 -10Q192 -10 140 27T59 127T30 267Q30 342 59 408T140 515T260 556Q338 556 393 524T476 423Q476 480 472 606Q468 728 468 778H694Q688
592 688 389ZM411 158T442 185T473 273Q473 326 442 351T364 376Q319 376 289 348T258 273Q258 222 286 190T362 158Q411 158 442 185Z" />
<glyph unicode="e" glyph-name="e" horiz-adv-x="725" d="M569 250H243Q251 206 282 179T372 151Q414 151 451 167T510 214Q577 181 688 143Q657 73 576 32T363 -10Q193 -10 112 68T30 275Q30 400 111 478T363 556Q465 556 540 522T655 428T695 289Q695 263 693
250H569ZM327 405T295 386T250 334H486Q474 366 447 385T377 405Q327 405 295 386Z" />
<glyph unicode="f" glyph-name="f" horiz-adv-x="470" d="M259 587T259 579Q259 563 272 554T310 544H442V367Q359 374 310 375Q311 189 318 0H81Q82 118 82 372Q61 371 10 367V544H81V563Q81 641 113 696T201 779T331 807Q390 807 450 790Q430 717 410 607L404
577Q382 596 356 605T307 615Q289 615 277 609T261 592Q259 587 259 579Z" />
<glyph unicode="g" glyph-name="g" horiz-adv-x="744" d="M512 546H704Q699 382 699 80Q699 -39 652 -115T526 -225T352 -260Q257 -260 182 -233T68 -159L113 -6Q167 -37 215 -50T315 -64Q485 -64 485 80Q485 101 486 110Q486 116 486 126T486 152Q435 10 270
10Q203 10 151 46T69 143T40 279Q40 355 69 418T150 519T267 556Q436 556 487 437L512 546ZM397 170T422 180T465 214T483 273Q483 335 455 361T372 388Q324 388 296 356T268 273Q268 227 298 199T374 170Q397 170 422 180Z" />
<glyph unicode="h" glyph-name="h" horiz-adv-x="695" d="M430 0Q436 147 436 271Q436 315 415 341T360 367Q325 367 301 333T276 240L275 242Q275 79 279 0H40Q48 144 48 390Q48 636 40 780H278L279 472L278 419Q302 489 349 522T457 556Q517 556 561 530T627
458T650 357V213Q650 80 655 0H430Z" />
<glyph unicode="i" glyph-name="i" horiz-adv-x="348" d="M111 605T81 636T50 717Q50 766 80 798T174 830Q234 830 266 798T298 717Q298 667 267 636T174 605Q111 605 81 636ZM58 0Q65 161 65 266Q65 391 57 546H297Q289 397 289 266Q289 156 296 0H58Z" />
<glyph unicode="j" glyph-name="j" horiz-adv-x="323" d="M96 605T66 636T35 717Q35 766 65 798T159 830Q219 830 251 798T283 717Q283 667 252 636T159 605Q96 605 66 636ZM282 546Q276 446 276 314L277 184Q278 144 278 65Q278 -90 209 -156T7 -222Q-24 -222
-57 -219V-188Q-57 -128 -70 -71L-51 -72Q-1 -72 23 -49T49 30Q51 120 51 173Q51 366 42 546H282Z" />
<glyph unicode="k" glyph-name="k" horiz-adv-x="746" d="M746 547L498 321Q625 141 735 0H470L419 82Q369 165 353 190L270 114V0H40Q48 190 48 385Q48 581 40 778H270V354Q367 453 453 547H746Z" />
<glyph unicode="l" glyph-name="l" horiz-adv-x="316" d="M274 340T274 216Q274 67 276 0H40L41 113Q43 299 43 400Q43 496 41 672L40 780H276Q274 638 274 548Q274 448 275 400Q274 340 274 216Z" />
<glyph unicode="m" glyph-name="m" horiz-adv-x="1098" d="M815 0Q823 131 823 271Q823 316 801 341T741 367Q707 367 683 337T658 250V251Q658 74 663 0H438Q444 147 444 271Q444 315 423 341T368 367Q333 367 310 338T282 257Q280 181 280 149Q280 81 284 0H45Q53
144 53 272Q53 400 45 546Q111 543 146 543Q183 543 247 546L277 398Q300 479 350 517T465 556Q543 556 592 513T654 401Q677 472 731 514T854 556Q944 556 995 496T1046 330V164Q1046 51 1048 0H815Z" />
<glyph unicode="n" glyph-name="n" horiz-adv-x="695" d="M430 0Q436 147 436 271Q436 315 415 341T360 367Q327 367 304 338T277 257Q275 181 275 149Q275 81 279 0H40Q48 144 48 272Q48 400 40 546Q106 543 141 543Q178 543 242 546L271 399Q294 479 343 517T457
556Q517 556 561 530T627 458T650 357V213Q650 80 655 0H430Z" />
<glyph unicode="o" glyph-name="o" horiz-adv-x="736" d="M191 -10T111 68T30 275Q30 400 110 478T362 556Q477 556 554 519T669 418T706 275Q706 146 621 68T362 -10Q191 -10 111 68ZM431 160T463 191T495 274Q495 323 463 354T366 386Q301 386 271 355T241 274Q241
222 271 191T366 160Q431 160 463 191Z" />
<glyph unicode="p" glyph-name="p" horiz-adv-x="734" d="M542 556T594 519T675 419T704 279Q704 204 675 138T594 31T474 -10Q396 -10 341 22T258 123Q258 66 262 -60Q266 -182 266 -232H40Q46 -46 46 157Q46 360 40 546H232L261 421Q289 491 345 523T477 556Q542
556 594 519ZM415 170T445 198T476 273Q476 324 448 356T372 388Q317 388 289 362T261 273Q261 238 279 215T322 181T370 170Q415 170 445 198Z" />
<glyph unicode="q" glyph-name="q" horiz-adv-x="734" d="M688 360T688 157Q688 -46 694 -232H468Q468 -182 472 -60Q476 66 476 123Q449 55 394 23T260 -10Q193 -10 141 30T59 137T30 279Q30 355 59 418T140 519T257 556Q333 556 389 524T473 421L502 546H694Q688
360 688 157ZM387 170T412 180T455 214T473 273Q473 335 445 361T362 388Q314 388 286 356T258 273Q258 227 288 199T364 170Q387 170 412 180Z" />
<glyph unicode="r" glyph-name="r" horiz-adv-x="577" d="M272 398Q314 549 481 549Q510 549 537 545L505 321Q433 348 387 348Q330 348 303 314T276 223V224L275 158Q275 87 279 0H40Q48 144 48 272Q48 400 40 546Q106 543 141 543Q178 543 242 546L272 398Z" />
<glyph unicode="s" glyph-name="s" horiz-adv-x="709" d="M279 -10T193 13T30 85L135 228Q181 195 246 177T358 158Q403 158 427 170T452 203Q452 219 440 228T407 237Q394 237 378 236T351 234Q299 228 244 228Q155 228 100 261T44 371Q44 459 127 507T371 556Q450
556 530 534T673 466L558 350Q501 380 452 392T352 405Q317 405 292 391T267 359Q267 345 277 337T305 329Q322 329 352 332Q425 337 461 337Q565 337 622 302T679 195Q679 87 595 39T363 -10Q279 -10 193 13Z" />
<glyph unicode="t" glyph-name="t" horiz-adv-x="513" d="M493 367Q401 373 325 376L324 270Q324 216 347 186T431 155Q454 155 475 159Q471 122 471 84Q471 66 473 2Q429 -6 399 -8T321 -10Q204 -10 156 46T107 204L108 373Q61 371 10 367V544Q62 544 98 577T141
656H413Q362 586 300 544H493V367Z" />
<glyph unicode="u" glyph-name="u" horiz-adv-x="695" d="M648 420T648 274Q648 127 655 0Q591 3 554 3Q519 3 453 0L424 147Q401 67 352 29T238 -10Q178 -10 134 16T68 88T45 189V333Q45 466 40 546H265Q259 399 259 255Q259 211 280 185T335 159Q366 159 389
186T418 262V285Q420 363 420 393Q420 462 416 546H655Q648 420 648 274Z" />
<glyph unicode="v" glyph-name="v" horiz-adv-x="698" d="M698 546Q590 255 506 0H193Q103 273 0 546H235L351 134L466 546H698Z" />
<glyph unicode="w" glyph-name="w" horiz-adv-x="880" d="M595 154L681 546H880L769 0H502L439 255L368 0H111L0 546H199L284 155L342 546H539L595 154Z" />
<glyph unicode="x" glyph-name="x" horiz-adv-x="683" d="M473 280L683 0H435Q416 38 365 111L342 144Q336 135 329 125T314 103Q294 75 277 48T248 0H0L210 280L8 546H255Q269 518 309 459L342 409L370 452Q412 515 428 546H675L473 280Z" />
<glyph unicode="y" glyph-name="y" horiz-adv-x="698" d="M698 546L675 488Q580 235 476 0Q422 -120 320 -192T64 -262Q45 -179 33 -133T0 -39Q55 -52 103 -52Q181 -52 227 -19Q191 88 142 211T0 546H237Q249 496 270 430T312 303Q318 284 331 246T353 181L379
260Q454 477 468 546H698Z" />
<glyph unicode="z" glyph-name="z" horiz-adv-x="671" d="M403 170T484 174Q584 178 631 179Q623 126 623 0H46V168Q89 192 139 227T268 319Q310 351 338 370Q270 369 154 363Q75 359 46 358Q46 490 40 546H623V378Q561 337 478 277Q357 191 321 168Q403 170 484 174Z" />
<glyph unicode="{" glyph-name="braceleft" horiz-adv-x="352" d="M322 702Q299 702 290 696T280 671Q280 650 294 599Q306 556 306 519Q306 424 231 373Q306 322 306 227Q306 191 294 147Q280 96 280 75Q280 57 289 51T322 44V-57Q258 -57 199 -37T103 26T65
130Q65 154 73 186Q82 219 82 250Q82 283 70 302T30 322V424Q57 424 70 443T83 496Q83 523 73 560Q64 592 64 618Q64 679 102 720T199 782T322 803V702Z" />
<glyph unicode="|" glyph-name="bar" horiz-adv-x="250" d="M240 0H10V726H240V0Z" />
<glyph unicode="}" glyph-name="braceright" horiz-adv-x="352" d="M269 523T269 496Q269 463 282 444T322 424V322Q295 322 283 303T270 250Q270 219 279 186Q287 154 287 130Q287 68 250 26T153 -36T30 -57V44Q53 44 62 50T72 75Q72 96 58 147Q46 191 46 227Q46
322 121 373Q46 424 46 519Q46 556 58 599Q72 650 72 671Q72 689 63 695T30 702V803Q94 803 153 783T250 721T288 618Q288 592 279 560Q269 523 269 496Z" />
<glyph unicode="~" glyph-name="asciitilde" horiz-adv-x="800" d="M790 437Q790 362 762 302T677 207T541 172Q443 172 368 235Q350 250 327 279Q308 301 297 311T268 321Q247 321 237 305T230 265H10Q10 331 39 392T124 491T258 530Q310 530 357 512T443 459Q452
451 475 424Q495 401 506 391T531 381Q552 381 561 394T570 437H790Z" />
<glyph unicode="&#xa0;" glyph-name="uni00A0" horiz-adv-x="200" />
<glyph unicode="&#xa1;" glyph-name="exclamdown" horiz-adv-x="309" d="M39 621H271V443H39V621ZM273 78Q279 -76 279 -179H30Q30 -112 35 78Q37 108 37 122Q57 263 62 368H247Q252 263 272 122L273 78Z" />
<glyph unicode="&#xa2;" glyph-name="cent" horiz-adv-x="883" d="M604 211Q665 237 692 306Q774 262 902 207Q864 115 785 66T604 0V-68H367V-3Q199 20 120 113T40 360Q40 515 120 614T367 739V792H604V737Q818 701 903 530Q813 499 692 437Q667 488 604 519V211ZM283
320T304 280T367 217V524Q324 501 304 461T283 371Q283 320 304 280Z" />
<glyph unicode="&#xa3;" glyph-name="sterling" horiz-adv-x="744" d="M734 260H297Q290 225 277 190H734V0H10V190Q45 190 65 209T88 260H10V445H47Q46 454 46 471Q46 551 91 613T219 711T412 747Q553 747 717 687Q682 628 664 587T638 494Q513 553 414 553Q351
553 315 528T279 461Q279 451 280 445H734V260Z" />
<glyph unicode="&#xa4;" glyph-name="currency" horiz-adv-x="834" d="M762 289T718 212L814 116L681 -17L585 79Q508 35 417 35Q326 35 249 79L153 -17L20 116L116 212Q72 289 72 380Q72 471 116 548L20 644L153 777L249 681Q326 725 417 725Q508 725 585 681L681
777L814 644L718 548Q762 471 762 380Q762 289 718 212ZM247 334T270 295T332 233T417 210Q463 210 502 233T564 295T587 380Q587 426 564 465T502 527T417 550Q371 550 332 527T270 465T247 380Q247 334 270 295Z" />
<glyph unicode="&#xa5;" glyph-name="yen" horiz-adv-x="950" d="M930 726L875 640Q802 525 757 452H838V288H661Q659 284 647 262H838V99H600V0H339V99H122V262H298L283 288H122V452H181L124 538Q41 661 0 726H280Q310 665 378 545Q446 423 471 373Q506 446 565
552Q634 676 658 726H930Z" />
<glyph unicode="&#xa6;" glyph-name="brokenbar" horiz-adv-x="250" d="M240 402H10V726H240V402ZM10 302H240V0H10V302Z" />
<glyph unicode="&#xa7;" glyph-name="section" horiz-adv-x="588" d="M578 240T578 168Q578 82 508 36T282 -10Q175 -10 10 32L19 59Q34 105 42 134T56 205Q123 178 197 165T337 151Q354 151 363 154T372 164Q372 169 363 173T339 179Q234 186 171 196T63 240T18
339Q18 387 66 435Q10 476 10 548Q10 634 80 680T306 726Q413 726 578 684Q575 675 573 668T568 654Q551 603 544 578T532 512Q465 539 391 552T251 566Q234 566 225 563T216 553Q216 548 225 544T249 538Q354 531 417 520T525 476T570 377Q570 329 522 281Q578
240 578 168ZM291 341Q357 333 390 328Q391 329 391 332Q394 362 346 369L301 375Q225 384 197 389V384Q196 369 206 360T242 347L291 341Z" />
<glyph unicode="&#xa8;" glyph-name="dieresis" horiz-adv-x="600" d="M193 627T174 646T155 692Q155 718 174 737T220 756Q246 756 265 737T284 692Q284 665 265 646T220 627Q193 627 174 646ZM354 627T335 646T316 692Q316 718 335 737T381 756Q407 756 426
737T445 692Q445 665 426 646T381 627Q354 627 335 646Z" />
<glyph unicode="&#xa9;" glyph-name="copyright" horiz-adv-x="868" d="M307 -10T212 31T63 155T10 355Q10 472 63 554T211 677T434 719Q643 719 750 627T858 355Q858 238 805 156T657 32T434 -10Q307 -10 212 31ZM558 139T621 194T685 355Q685 462 622 516T434
570Q310 570 247 516T183 355Q183 249 246 194T434 139Q558 139 621 194ZM324 158T267 208T209 353Q209 447 266 497T431 548Q511 548 567 519T649 436Q576 422 509 376Q490 421 431 421Q357 421 354 353Q357 285 431 285Q490 285 509 330Q579 284 649 270Q624
215 568 187T431 158Q324 158 267 208Z" />
<glyph unicode="&#xaa;" glyph-name="ordfeminine" horiz-adv-x="741" d="M681 166Q681 132 689 118T721 98L717 4Q685 -1 662 -3T599 -5Q513 -5 485 33T457 132V157Q428 75 373 35T231 -5Q131 -5 81 35T30 154Q30 219 73 256T206 307Q130 361 54 401Q114 477
191 516T378 556Q532 556 606 490T681 285V166ZM348 380T309 363T239 312Q299 319 389 319Q426 319 441 328T456 351Q456 363 441 371T399 380Q348 380 309 363ZM350 158T395 179T457 236V262Q433 250 404 244T334 231L298 225Q242 214 242 187Q242 158 294 158Q350
158 395 179Z" />
<glyph unicode="&#xab;" glyph-name="guillemotleft" horiz-adv-x="791" d="M249 732H471L271 380L471 28H249L50 380L249 732ZM539 732H761L561 380L761 28H539L340 380L539 732Z" />
<glyph unicode="&#xac;" glyph-name="logicalnot" horiz-adv-x="550" d="M10 104V300H540V0H329V104H10Z" />
<glyph unicode="&#xad;" glyph-name="uni00AD" horiz-adv-x="490" d="M460 243H30V438H460V243Z" />
<glyph unicode="&#xae;" glyph-name="registered" horiz-adv-x="461" d="M300 726T350 700T425 629T451 529Q451 473 426 428T350 356T231 330Q161 330 111 356T36 427T10 529Q10 584 35 629T111 700T231 726Q300 726 350 700ZM360 491T360 529Q360 578 326 611T231
644Q174 644 140 615H263Q307 615 326 597T346 553Q346 521 320 504Q332 493 336 487T341 467V463Q360 491 360 529ZM101 571T101 529Q101 485 127 454Q129 504 129 528Q129 554 127 602Q101 571 101 529ZM203 533H248Q271 533 271 546Q271 553 266 556T248 559H203V533ZM141
440Q177 412 231 412Q285 412 320 440H264L265 458Q265 470 259 474T230 478H203V440H141Z" />
<glyph unicode="&#xaf;" glyph-name="overscore" horiz-adv-x="600" d="M170 689V780H430V689H170Z" />
<glyph unicode="&#xb0;" glyph-name="degree" horiz-adv-x="420" d="M147 367T102 390T34 455T10 547Q10 597 33 638T102 702T210 726Q273 726 318 703T386 638T410 547Q410 496 387 455T318 391T210 367Q147 367 102 390ZM237 482T256 499T276 548Q276 579 257
594T210 610Q181 610 163 595T144 548Q144 516 163 499T210 482Q237 482 256 499Z" />
<glyph unicode="&#xb1;" glyph-name="plusminus" horiz-adv-x="721" d="M464 683V570H691V383H464V279H257V383H30V570H257V683H464ZM691 57H30V244H691V57Z" />
<glyph unicode="&#xb2;" glyph-name="uni00B2" horiz-adv-x="628" d="M461 483T598 501Q585 462 578 419T571 339H34Q28 419 72 476T197 583Q211 592 235 602T267 617Q333 647 365 666T398 706Q398 732 376 747T308 762Q261 761 236 737T211 674Q211 661 214 649Q126
660 30 665Q30 729 63 780T164 862T329 892Q419 892 479 868T567 806T595 730Q595 685 575 653T518 595T418 541Q407 535 359 522Q263 495 219 471Q461 483 598 501Z" />
<glyph unicode="&#xb3;" glyph-name="uni00B3" horiz-adv-x="662" d="M483 620T503 620Q569 620 600 589T632 516Q632 457 593 415T487 352T338 330Q100 330 31 496L77 508Q129 521 157 530T210 551Q225 513 253 497T331 481Q384 481 417 493T450 529Q450 548
421 554T318 561H261V692H295Q352 692 388 697T425 718Q425 737 406 749T346 761Q246 761 210 676Q133 707 38 721Q113 891 342 891Q419 891 480 871T576 816T611 737Q611 711 599 692T552 653T450 615Q483 620 503 620Z" />
<glyph unicode="&#xb4;" glyph-name="acute" horiz-adv-x="600" d="M328 613H201L225 768H410L328 613Z" />
<glyph unicode="&#xb5;" glyph-name="uni00B5" horiz-adv-x="695" d="M648 420T648 274Q648 127 655 0Q591 3 560 3Q530 3 464 0L445 94Q430 45 396 18T327 -10Q311 -10 293 -6T260 5Q261 -133 265 -221H40Q40 -202 41 -193Q45 27 45 189V333Q45 466 40 546H265Q260
439 260 357V265Q260 212 281 186T335 159Q366 159 389 186T418 262V285Q420 363 420 393Q420 462 416 546H655Q648 420 648 274Z" />
<glyph unicode="&#xb6;" glyph-name="paragraph" horiz-adv-x="548" d="M10 657T44 691T128 726H312V0H128V489Q79 489 45 524T10 608Q10 657 44 691ZM354 0V726H538V0H354Z" />
<glyph unicode="&#xb7;" glyph-name="middot" horiz-adv-x="290" d="M97 195T64 229T30 312Q30 359 63 393T145 427Q192 427 226 393T260 312Q260 264 226 230T145 195Q97 195 64 229Z" />
<glyph unicode="&#xb8;" glyph-name="cedilla" horiz-adv-x="600" d="M336 15Q372 3 395 -22T419 -86Q419 -141 374 -174T239 -207Q215 -207 186 -204V-120Q235 -122 258 -114T282 -80Q282 -64 260 -54T195 -44L240 81H360L336 15Z" />
<glyph unicode="&#xb9;" glyph-name="uni00B9" horiz-adv-x="462" d="M332 478L432 481V339H35V481Q96 478 157 478V737Q131 679 47 661Q43 756 30 822Q90 830 113 842T150 870T168 891V892H332V478Z" />
<glyph unicode="&#xba;" glyph-name="ordmasculine" horiz-adv-x="736" d="M191 -10T111 68T30 275Q30 400 110 478T362 556Q477 556 554 519T669 418T706 275Q706 146 621 68T362 -10Q191 -10 111 68ZM431 160T463 191T495 274Q495 323 463 354T366 386Q301 386
271 355T241 274Q241 222 271 191T366 160Q431 160 463 191Z" />
<glyph unicode="&#xbb;" glyph-name="guillemotright" horiz-adv-x="751" d="M10 732H232L431 380L232 28H10L210 380L10 732ZM300 732H522L721 380L522 28H300L500 380L300 732Z" />
<glyph unicode="&#xbc;" glyph-name="onequarter" horiz-adv-x="1376" d="M733 717H901L410 -20H242L365 164H35V306Q96 303 157 303V562Q131 504 47 486Q43 581 30 647Q90 655 113 667T150 695T168 716V717H332V303L432 306V265L733 717ZM1346 215V73H1243V-22H1064Q1067
13 1067 49Q1068 57 1068 73H711V225Q884 358 1024 524H1243V215H1346ZM1072 375Q1017 318 981 284T898 215H1070L1072 375Z" />
<glyph unicode="&#xbd;" glyph-name="onehalf" horiz-adv-x="1309" d="M733 717H901L410 -20H242L365 164H35V306Q96 303 157 303V562Q131 504 47 486Q43 581 30 647Q90 655 113 667T150 695T168 716V717H332V303L432 306V265L733 717ZM1142 123T1279 141Q1266
102 1259 59T1252 -21H715Q709 59 753 116T878 223Q892 232 916 242T948 257Q1014 287 1046 306T1079 346Q1079 372 1057 387T989 402Q942 401 917 377T892 314Q892 301 895 289Q807 300 711 305Q711 369 744 420T845 502T1010 532Q1100 532 1160 508T1248 446T1276
370Q1276 325 1256 293T1199 235T1099 181Q1088 175 1040 162Q944 135 900 111Q1142 123 1279 141Z" />
<glyph unicode="&#xbe;" glyph-name="threequarters" horiz-adv-x="1576" d="M442 -20L933 717H1101L610 -20H442ZM632 282T593 240T487 177T338 155Q100 155 31 321L77 333Q129 346 157 355T210 376Q225 338 253 322T331 306Q384 306 417 318T450 354Q450 373
421 379T318 386H261V517H295Q352 517 388 522T425 543Q425 562 406 574T346 586Q246 586 210 501Q133 532 38 546Q113 716 342 716Q419 716 480 696T576 641T611 562Q611 536 599 517T552 478T450 440Q483 445 503 445Q569 445 600 414T632 341Q632 282 593 240ZM1546
215V73H1443V-22H1264Q1267 13 1267 49Q1268 57 1268 73H911V225Q1084 358 1224 524H1443V215H1546ZM1272 375Q1217 318 1181 284T1098 215H1270L1272 375Z" />
<glyph unicode="&#xbf;" glyph-name="questiondown" horiz-adv-x="764" d="M283 633H515V455H283V633ZM285 -179T205 -147T77 -58T30 73Q30 133 59 176T133 246L186 276Q229 300 243 309Q266 323 275 340T284 380H513Q513 304 477 253T356 163Q318 146 301 126T283
79Q283 50 310 29T380 8Q437 8 468 36T500 115Q500 136 494 161Q574 138 733 138Q734 129 734 113Q734 29 690 -37T565 -141T380 -179Q285 -179 205 -147Z" />
<glyph unicode="&#xc0;" glyph-name="Agrave" horiz-adv-x="943" d="M671 0Q652 57 620 143H301L251 0H0L280 726H648L930 0H671ZM563 299Q525 404 485 509L461 574Q426 483 358 299H563ZM416 767L334 922H519L543 767H416Z" />
<glyph unicode="&#xc1;" glyph-name="Aacute" horiz-adv-x="943" d="M671 0Q652 57 620 143H301L251 0H0L280 726H648L930 0H671ZM563 299Q525 404 485 509L461 574Q426 483 358 299H563ZM519 765H392L416 920H601L519 765Z" />
<glyph unicode="&#xc2;" glyph-name="Acircumflex" horiz-adv-x="943" d="M671 0Q652 57 620 143H301L251 0H0L280 726H648L930 0H671ZM563 299Q525 404 485 509L461 574Q426 483 358 299H563ZM554 911L639 766H508L461 852L414 766H284L369 911H554Z" />
<glyph unicode="&#xc3;" glyph-name="Atilde" horiz-adv-x="943" d="M671 0Q652 57 620 143H301L251 0H0L280 726H648L930 0H671ZM563 299Q525 404 485 509L461 574Q426 483 358 299H563ZM638 876Q638 823 609 790T526 756Q485 756 448 785Q439 793 429 805Q421
815 415 819T402 824Q393 824 388 817T385 798H286Q286 845 316 881T398 918Q444 918 481 886L496 870Q511 851 521 851Q531 851 535 856T539 876H638Z" />
<glyph unicode="&#xc4;" glyph-name="Adieresis" horiz-adv-x="943" d="M671 0Q652 57 620 143H301L251 0H0L280 726H648L930 0H671ZM563 299Q525 404 485 509L461 574Q426 483 358 299H563ZM355 766T336 785T317 831Q317 857 336 876T382 895Q408 895 427 876T446
831Q446 804 427 785T382 766Q355 766 336 785ZM516 766T497 785T478 831Q478 857 497 876T543 895Q569 895 588 876T607 831Q607 804 588 785T543 766Q516 766 497 785Z" />
<glyph unicode="&#xc5;" glyph-name="Aring" horiz-adv-x="943" d="M671 0Q652 57 620 143H301L251 0H0L280 726H648L930 0H671ZM563 299Q525 404 485 509L461 574Q426 483 358 299H563ZM413 746T378 781T343 865Q343 914 378 949T462 984Q511 984 546 949T581
865Q581 816 546 781T462 746Q413 746 378 781ZM479 822T492 835T505 865Q505 882 492 895T462 908Q445 908 432 895T419 865Q419 848 432 835T462 822Q479 822 492 835Z" />
<glyph unicode="&#xc6;" glyph-name="AE" horiz-adv-x="1105" d="M706 183Q953 185 1065 194Q1060 153 1059 102T1058 0H484Q486 41 488 123H305L251 0H0L340 726H1058V545H706V451H788Q900 451 1013 454V282Q900 285 788 285H706V183ZM374 279H490L491 386Q491
437 489 539L374 279Z" />
<glyph unicode="&#xc7;" glyph-name="Ccedilla" horiz-adv-x="943" d="M571 191T620 218T692 306Q774 262 902 207Q855 94 749 45T514 -9L505 -33Q541 -45 564 -70T588 -134Q588 -189 543 -222T408 -255Q383 -255 355 -252V-168Q404 -170 427 -162T451 -128Q451
-112 429 -102T364 -92L395 -6Q40 28 40 360Q40 539 147 643T480 747Q796 747 903 530Q813 499 692 437Q663 493 601 520T473 547Q377 547 330 497T283 372Q283 292 333 242T488 191Q571 191 620 218Z" />
<glyph unicode="&#xc8;" glyph-name="Egrave" horiz-adv-x="867" d="M276 183Q656 185 827 194Q820 153 819 110T817 0H40Q48 194 48 363Q48 532 40 726H817V545H276V449Q324 448 418 448Q577 448 747 454V282Q577 288 418 288Q324 288 276 287V183ZM388 767L306
922H491L515 767H388Z" />
<glyph unicode="&#xc9;" glyph-name="Eacute" horiz-adv-x="867" d="M276 183Q656 185 827 194Q820 153 819 110T817 0H40Q48 194 48 363Q48 532 40 726H817V545H276V449Q324 448 418 448Q577 448 747 454V282Q577 288 418 288Q324 288 276 287V183ZM491 765H364L388
920H573L491 765Z" />
<glyph unicode="&#xca;" glyph-name="Ecircumflex" horiz-adv-x="867" d="M276 183Q656 185 827 194Q820 153 819 110T817 0H40Q48 194 48 363Q48 532 40 726H817V545H276V449Q324 448 418 448Q577 448 747 454V282Q577 288 418 288Q324 288 276 287V183ZM526
911L611 766H480L433 852L386 766H256L341 911H526Z" />
<glyph unicode="&#xcb;" glyph-name="Edieresis" horiz-adv-x="867" d="M276 183Q656 185 827 194Q820 153 819 110T817 0H40Q48 194 48 363Q48 532 40 726H817V545H276V449Q324 448 418 448Q577 448 747 454V282Q577 288 418 288Q324 288 276 287V183ZM327 766T308
785T289 831Q289 857 308 876T354 895Q380 895 399 876T418 831Q418 804 399 785T354 766Q327 766 308 785ZM488 766T469 785T450 831Q450 857 469 876T515 895Q541 895 560 876T579 831Q579 804 560 785T515 766Q488 766 469 785Z" />
<glyph unicode="&#xcc;" glyph-name="Igrave" horiz-adv-x="661" d="M621 527Q502 533 445 534V192Q503 193 621 199V0H40V199Q155 193 215 192V534Q155 533 40 527V726H621V527ZM285 772L203 927H388L412 772H285Z" />
<glyph unicode="&#xcd;" glyph-name="Iacute" horiz-adv-x="661" d="M621 527Q502 533 445 534V192Q503 193 621 199V0H40V199Q155 193 215 192V534Q155 533 40 527V726H621V527ZM388 770H261L285 925H470L388 770Z" />
<glyph unicode="&#xce;" glyph-name="Icircumflex" horiz-adv-x="661" d="M621 527Q502 533 445 534V192Q503 193 621 199V0H40V199Q155 193 215 192V534Q155 533 40 527V726H621V527ZM423 916L508 771H377L330 857L283 771H153L238 916H423Z" />
<glyph unicode="&#xcf;" glyph-name="Idieresis" horiz-adv-x="661" d="M621 527Q502 533 445 534V192Q503 193 621 199V0H40V199Q155 193 215 192V534Q155 533 40 527V726H621V527ZM224 771T205 790T186 836Q186 862 205 881T251 900Q277 900 296 881T315 836Q315
809 296 790T251 771Q224 771 205 790ZM385 771T366 790T347 836Q347 862 366 881T412 900Q438 900 457 881T476 836Q476 809 457 790T412 771Q385 771 366 790Z" />
<glyph unicode="&#xd0;" glyph-name="Eth" horiz-adv-x="893" d="M548 737T657 692T809 566T853 368Q853 257 803 174T653 46T407 0Q318 0 226 0T40 1Q45 130 47 291H-87V447H47Q45 604 40 727Q159 737 360 737Q548 737 657 692ZM435 199Q528 199 559 244T590
368Q590 444 558 491T435 538Q338 538 290 532V447H431V291H290V199H435Z" />
<glyph unicode="&#xd1;" glyph-name="Ntilde" horiz-adv-x="919" d="M879 725Q872 556 872 363Q872 169 879 0H521L279 546L297 0H40Q48 194 48 363Q48 531 40 725H408L651 164L634 725H879ZM636 872Q636 819 607 786T524 752Q483 752 446 781Q437 789 427 801Q419
811 413 815T400 820Q391 820 386 813T383 794H284Q284 841 314 877T396 914Q442 914 479 882L494 866Q509 847 519 847Q529 847 533 852T537 872H636Z" />
<glyph unicode="&#xd2;" glyph-name="Ograve" horiz-adv-x="971" d="M256 -10T148 89T40 369Q40 547 147 647T485 747Q716 747 823 647T931 369Q931 188 824 89T485 -10Q256 -10 148 89ZM596 194T645 236T694 369Q694 457 645 500T485 543Q375 543 326 500T277
369Q277 280 326 237T485 194Q596 194 645 236ZM439 788L357 943H542L566 788H439Z" />
<glyph unicode="&#xd3;" glyph-name="Oacute" horiz-adv-x="971" d="M256 -10T148 89T40 369Q40 547 147 647T485 747Q716 747 823 647T931 369Q931 188 824 89T485 -10Q256 -10 148 89ZM596 194T645 236T694 369Q694 457 645 500T485 543Q375 543 326 500T277
369Q277 280 326 237T485 194Q596 194 645 236ZM542 786H415L439 941H624L542 786Z" />
<glyph unicode="&#xd4;" glyph-name="Ocircumflex" horiz-adv-x="971" d="M256 -10T148 89T40 369Q40 547 147 647T485 747Q716 747 823 647T931 369Q931 188 824 89T485 -10Q256 -10 148 89ZM596 194T645 236T694 369Q694 457 645 500T485 543Q375 543 326 500T277
369Q277 280 326 237T485 194Q596 194 645 236ZM577 932L662 787H531L484 873L437 787H307L392 932H577Z" />
<glyph unicode="&#xd5;" glyph-name="Otilde" horiz-adv-x="971" d="M256 -10T148 89T40 369Q40 547 147 647T485 747Q716 747 823 647T931 369Q931 188 824 89T485 -10Q256 -10 148 89ZM596 194T645 236T694 369Q694 457 645 500T485 543Q375 543 326 500T277
369Q277 280 326 237T485 194Q596 194 645 236ZM661 897Q661 844 632 811T549 777Q508 777 471 806Q462 814 452 826Q444 836 438 840T425 845Q416 845 411 838T408 819H309Q309 866 339 902T421 939Q467 939 504 907L519 891Q534 872 544 872Q554 872 558 877T562
897H661Z" />
<glyph unicode="&#xd6;" glyph-name="Odieresis" horiz-adv-x="971" d="M256 -10T148 89T40 369Q40 547 147 647T485 747Q716 747 823 647T931 369Q931 188 824 89T485 -10Q256 -10 148 89ZM596 194T645 236T694 369Q694 457 645 500T485 543Q375 543 326 500T277
369Q277 280 326 237T485 194Q596 194 645 236ZM378 787T359 806T340 852Q340 878 359 897T405 916Q431 916 450 897T469 852Q469 825 450 806T405 787Q378 787 359 806ZM539 787T520 806T501 852Q501 878 520 897T566 916Q592 916 611 897T630 852Q630 825 611
806T566 787Q539 787 520 806Z" />
<glyph unicode="&#xd7;" glyph-name="multiply" horiz-adv-x="565" d="M413 605L555 467L424 340L554 214L412 76L282 213L152 76L10 214L140 340L10 467L152 605L282 467L413 605Z" />
<glyph unicode="&#xd8;" glyph-name="Oslash" horiz-adv-x="979" d="M939 667L869 596Q931 508 931 369Q931 188 824 89T485 -10Q373 -10 292 14L258 -20L40 70L106 136Q40 227 40 369Q40 547 147 647T485 747Q601 747 685 721L721 757L939 667ZM277 342T282 314L508
542Q501 543 485 543Q375 543 326 500T277 369Q277 342 282 314ZM694 396T690 416L470 194H485Q596 194 645 236T694 369Q694 396 690 416Z" />
<glyph unicode="&#xd9;" glyph-name="Ugrave" horiz-adv-x="920" d="M632 727H880V329Q878 182 780 86T448 -10Q212 -10 125 81T40 322V727H288V338Q288 294 294 267T336 215T451 191Q537 191 577 215T624 270T632 347V727ZM414 768L332 923H517L541 768H414Z" />
<glyph unicode="&#xda;" glyph-name="Uacute" horiz-adv-x="920" d="M632 727H880V329Q878 182 780 86T448 -10Q212 -10 125 81T40 322V727H288V338Q288 294 294 267T336 215T451 191Q537 191 577 215T624 270T632 347V727ZM517 766H390L414 921H599L517 766Z" />
<glyph unicode="&#xdb;" glyph-name="Ucircumflex" horiz-adv-x="920" d="M632 727H880V329Q878 182 780 86T448 -10Q212 -10 125 81T40 322V727H288V338Q288 294 294 267T336 215T451 191Q537 191 577 215T624 270T632 347V727ZM552 912L637 767H506L459 853L412
767H282L367 912H552Z" />
<glyph unicode="&#xdc;" glyph-name="Udieresis" horiz-adv-x="920" d="M632 727H880V329Q878 182 780 86T448 -10Q212 -10 125 81T40 322V727H288V338Q288 294 294 267T336 215T451 191Q537 191 577 215T624 270T632 347V727ZM353 767T334 786T315 832Q315 858
334 877T380 896Q406 896 425 877T444 832Q444 805 425 786T380 767Q353 767 334 786ZM514 767T495 786T476 832Q476 858 495 877T541 896Q567 896 586 877T605 832Q605 805 586 786T541 767Q514 767 495 786Z" />
<glyph unicode="&#xdd;" glyph-name="Yacute" horiz-adv-x="943" d="M930 726L911 697Q804 531 728 404T600 169V0H339V186Q302 261 252 340T110 559Q38 665 0 726H280Q310 665 378 545Q446 423 471 373Q506 446 565 552Q634 676 658 726H930ZM529 765H402L426
920H611L529 765Z" />
<glyph unicode="&#xde;" glyph-name="Thorn" horiz-adv-x="789" d="M418 655Q604 655 676 585T749 386Q749 298 720 237T618 141T418 106H270V0H40Q47 169 47 363Q47 557 40 726H270V655H418ZM352 299Q430 299 469 305T523 328T538 379Q538 412 524 428T470 451T352
457H270V299H352Z" />
<glyph unicode="&#xdf;" glyph-name="germandbls" horiz-adv-x="842" d="M694 390T748 341T802 210Q802 151 764 101T650 21T469 -9Q401 -9 335 2L316 210Q417 184 478 184Q526 184 548 197T571 234Q571 257 542 273T452 290Q399 290 332 276V451Q420 451 460
464T501 506Q501 531 476 546T393 562Q347 562 311 533T275 449V0H50Q57 139 57 297L56 388Q55 410 55 448Q55 544 104 609T233 705T405 736Q502 736 582 710T709 641T756 546Q756 511 743 485T689 435T572 395Q694 390 748 341Z" />
<glyph unicode="&#xe0;" glyph-name="agrave" horiz-adv-x="741" d="M681 166Q681 132 689 118T721 98L717 4Q685 -1 662 -3T599 -5Q513 -5 485 33T457 132V157Q428 75 373 35T231 -5Q131 -5 81 35T30 154Q30 219 73 256T206 307Q130 361 54 401Q114 477 191 516T378
556Q532 556 606 490T681 285V166ZM348 380T309 363T239 312Q299 319 389 319Q426 319 441 328T456 351Q456 363 441 371T399 380Q348 380 309 363ZM350 158T395 179T457 236V262Q433 250 404 244T334 231L298 225Q242 214 242 187Q242 158 294 158Q350 158 395
179ZM332 597L250 752H435L459 597H332Z" />
<glyph unicode="&#xe1;" glyph-name="aacute" horiz-adv-x="741" d="M681 166Q681 132 689 118T721 98L717 4Q685 -1 662 -3T599 -5Q513 -5 485 33T457 132V157Q428 75 373 35T231 -5Q131 -5 81 35T30 154Q30 219 73 256T206 307Q130 361 54 401Q114 477 191 516T378
556Q532 556 606 490T681 285V166ZM348 380T309 363T239 312Q299 319 389 319Q426 319 441 328T456 351Q456 363 441 371T399 380Q348 380 309 363ZM350 158T395 179T457 236V262Q433 250 404 244T334 231L298 225Q242 214 242 187Q242 158 294 158Q350 158 395
179ZM410 586H283L307 741H492L410 586Z" />
<glyph unicode="&#xe2;" glyph-name="acircumflex" horiz-adv-x="741" d="M681 166Q681 132 689 118T721 98L717 4Q685 -1 662 -3T599 -5Q513 -5 485 33T457 132V157Q428 75 373 35T231 -5Q131 -5 81 35T30 154Q30 219 73 256T206 307Q130 361 54 401Q114 477
191 516T378 556Q532 556 606 490T681 285V166ZM348 380T309 363T239 312Q299 319 389 319Q426 319 441 328T456 351Q456 363 441 371T399 380Q348 380 309 363ZM350 158T395 179T457 236V262Q433 250 404 244T334 231L298 225Q242 214 242 187Q242 158 294 158Q350
158 395 179ZM470 741L555 596H424L377 682L330 596H200L285 741H470Z" />
<glyph unicode="&#xe3;" glyph-name="atilde" horiz-adv-x="741" d="M681 166Q681 132 689 118T721 98L717 4Q685 -1 662 -3T599 -5Q513 -5 485 33T457 132V157Q428 75 373 35T231 -5Q131 -5 81 35T30 154Q30 219 73 256T206 307Q130 361 54 401Q114 477 191 516T378
556Q532 556 606 490T681 285V166ZM348 380T309 363T239 312Q299 319 389 319Q426 319 441 328T456 351Q456 363 441 371T399 380Q348 380 309 363ZM350 158T395 179T457 236V262Q433 250 404 244T334 231L298 225Q242 214 242 187Q242 158 294 158Q350 158 395
179ZM554 706Q554 653 525 620T442 586Q401 586 364 615Q355 623 345 635Q337 645 331 649T318 654Q309 654 304 647T301 628H202Q202 675 232 711T314 748Q360 748 397 716L412 700Q427 681 437 681Q447 681 451 686T455 706H554Z" />
<glyph unicode="&#xe4;" glyph-name="adieresis" horiz-adv-x="741" d="M681 166Q681 132 689 118T721 98L717 4Q685 -1 662 -3T599 -5Q513 -5 485 33T457 132V157Q428 75 373 35T231 -5Q131 -5 81 35T30 154Q30 219 73 256T206 307Q130 361 54 401Q114 477 191
516T378 556Q532 556 606 490T681 285V166ZM348 380T309 363T239 312Q299 319 389 319Q426 319 441 328T456 351Q456 363 441 371T399 380Q348 380 309 363ZM350 158T395 179T457 236V262Q433 250 404 244T334 231L298 225Q242 214 242 187Q242 158 294 158Q350
158 395 179ZM271 596T252 615T233 661Q233 687 252 706T298 725Q324 725 343 706T362 661Q362 634 343 615T298 596Q271 596 252 615ZM432 596T413 615T394 661Q394 687 413 706T459 725Q485 725 504 706T523 661Q523 634 504 615T459 596Q432 596 413 615Z" />
<glyph unicode="&#xe5;" glyph-name="aring" horiz-adv-x="741" d="M681 166Q681 132 689 118T721 98L717 4Q685 -1 662 -3T599 -5Q513 -5 485 33T457 132V157Q428 75 373 35T231 -5Q131 -5 81 35T30 154Q30 219 73 256T206 307Q130 361 54 401Q114 477 191 516T378
556Q532 556 606 490T681 285V166ZM348 380T309 363T239 312Q299 319 389 319Q426 319 441 328T456 351Q456 363 441 371T399 380Q348 380 309 363ZM350 158T395 179T457 236V262Q433 250 404 244T334 231L298 225Q242 214 242 187Q242 158 294 158Q350 158 395
179ZM329 576T294 611T259 695Q259 744 294 779T378 814Q427 814 462 779T497 695Q497 646 462 611T378 576Q329 576 294 611ZM395 652T408 665T421 695Q421 712 408 725T378 738Q361 738 348 725T335 695Q335 678 348 665T378 652Q395 652 408 665Z" />
<glyph unicode="&#xe6;" glyph-name="ae" horiz-adv-x="1125" d="M972 250H653Q661 206 692 179T782 151Q864 151 910 214Q977 181 1088 143Q1057 74 977 32T773 -10Q576 -10 508 104Q449 49 379 22T231 -5Q131 -5 81 35T30 154Q30 219 76 255T217 306Q142 360
64 401Q187 556 351 556Q488 556 549 479Q590 515 648 535T773 556Q870 556 943 520T1055 421T1095 285Q1095 262 1093 250H972ZM737 405T705 386T660 334H886Q875 366 850 385T787 405Q737 405 705 386ZM348 380T313 362T248 310Q314 318 399 319Q441 320 453
328T466 351Q466 363 442 371T385 380Q348 380 313 362ZM362 158T407 181T469 240L468 262Q442 249 410 242T334 229L308 225Q271 219 257 210T242 187Q242 158 304 158Q362 158 407 181Z" />
<glyph unicode="&#xe7;" glyph-name="ccedilla" horiz-adv-x="707" d="M399 160T425 172T473 210Q558 177 672 153Q642 83 574 41T399 -9L390 -34Q426 -46 449 -71T473 -135Q473 -190 428 -223T293 -256Q269 -256 240 -253V-169Q289 -171 312 -163T336 -129Q336
-113 314 -103T249 -93L281 -5Q153 13 92 87T30 273Q30 400 110 478T357 556Q482 556 560 513T672 393Q583 374 473 336Q451 361 425 373T366 386Q306 386 276 355T243 273Q245 222 275 191T366 160Q399 160 425 172Z" />
<glyph unicode="&#xe8;" glyph-name="egrave" horiz-adv-x="725" d="M569 250H243Q251 206 282 179T372 151Q414 151 451 167T510 214Q577 181 688 143Q657 73 576 32T363 -10Q193 -10 112 68T30 275Q30 400 111 478T363 556Q465 556 540 522T655 428T695 289Q695
263 693 250H569ZM327 405T295 386T250 334H486Q474 366 447 385T377 405Q327 405 295 386ZM317 597L235 752H420L444 597H317Z" />
<glyph unicode="&#xe9;" glyph-name="eacute" horiz-adv-x="725" d="M569 250H243Q251 206 282 179T372 151Q414 151 451 167T510 214Q577 181 688 143Q657 73 576 32T363 -10Q193 -10 112 68T30 275Q30 400 111 478T363 556Q465 556 540 522T655 428T695 289Q695
263 693 250H569ZM327 405T295 386T250 334H486Q474 366 447 385T377 405Q327 405 295 386ZM420 595H293L317 750H502L420 595Z" />
<glyph unicode="&#xea;" glyph-name="ecircumflex" horiz-adv-x="725" d="M569 250H243Q251 206 282 179T372 151Q414 151 451 167T510 214Q577 181 688 143Q657 73 576 32T363 -10Q193 -10 112 68T30 275Q30 400 111 478T363 556Q465 556 540 522T655 428T695
289Q695 263 693 250H569ZM327 405T295 386T250 334H486Q474 366 447 385T377 405Q327 405 295 386ZM455 741L540 596H409L362 682L315 596H185L270 741H455Z" />
<glyph unicode="&#xeb;" glyph-name="edieresis" horiz-adv-x="725" d="M569 250H243Q251 206 282 179T372 151Q414 151 451 167T510 214Q577 181 688 143Q657 73 576 32T363 -10Q193 -10 112 68T30 275Q30 400 111 478T363 556Q465 556 540 522T655 428T695 289Q695
263 693 250H569ZM327 405T295 386T250 334H486Q474 366 447 385T377 405Q327 405 295 386ZM256 596T237 615T218 661Q218 687 237 706T283 725Q309 725 328 706T347 661Q347 634 328 615T283 596Q256 596 237 615ZM417 596T398 615T379 661Q379 687 398 706T444
725Q470 725 489 706T508 661Q508 634 489 615T444 596Q417 596 398 615Z" />
<glyph unicode="&#xec;" glyph-name="igrave" horiz-adv-x="340" d="M51 0Q58 161 58 266Q58 391 50 546H290Q282 397 282 266Q282 156 289 0H51ZM124 587L42 742H227L251 587H124Z" />
<glyph unicode="&#xed;" glyph-name="iacute" horiz-adv-x="340" d="M51 0Q58 161 58 266Q58 391 50 546H290Q282 397 282 266Q282 156 289 0H51ZM202 576H75L99 731H284L202 576Z" />
<glyph unicode="&#xee;" glyph-name="icircumflex" horiz-adv-x="340" d="M51 0Q58 161 58 266Q58 391 50 546H290Q282 397 282 266Q282 156 289 0H51ZM262 731L347 586H216L169 672L122 586H-8L77 731H262Z" />
<glyph unicode="&#xef;" glyph-name="idieresis" horiz-adv-x="340" d="M51 0Q58 161 58 266Q58 391 50 546H290Q282 397 282 266Q282 156 289 0H51ZM63 586T44 605T25 651Q25 677 44 696T90 715Q116 715 135 696T154 651Q154 624 135 605T90 586Q63 586 44 605ZM224
586T205 605T186 651Q186 677 205 696T251 715Q277 715 296 696T315 651Q315 624 296 605T251 586Q224 586 205 605Z" />
<glyph unicode="&#xf0;" glyph-name="eth" horiz-adv-x="600" d="M415 692Q532 641 591 550T650 338Q650 237 612 158T506 35T350 -10Q264 -10 195 22T85 115T45 258Q45 322 75 376T162 463T293 496Q361 496 420 468Q388 511 324 543L305 511H93L145 597L88 606L129
749Q179 748 232 741L256 780H469L415 692ZM398 148T430 180T463 259Q463 305 431 338T353 371Q307 371 275 338T242 259Q242 213 274 181T353 148Q398 148 430 180Z" />
<glyph unicode="&#xf1;" glyph-name="ntilde" horiz-adv-x="695" d="M430 0Q436 147 436 271Q436 315 415 341T360 367Q327 367 304 338T277 257Q275 181 275 149Q275 81 279 0H40Q48 144 48 272Q48 400 40 546Q106 543 141 543Q178 543 242 546L271 399Q294 479
343 517T457 556Q517 556 561 530T627 458T650 357V213Q650 80 655 0H430ZM534 703Q534 650 505 617T422 583Q381 583 344 612Q335 620 325 632Q317 642 311 646T298 651Q289 651 284 644T281 625H182Q182 672 212 708T294 745Q340 745 377 713L392 697Q407 678
417 678Q427 678 431 683T435 703H534Z" />
<glyph unicode="&#xf2;" glyph-name="ograve" horiz-adv-x="736" d="M191 -10T111 68T30 275Q30 400 110 478T362 556Q477 556 554 519T669 418T706 275Q706 146 621 68T362 -10Q191 -10 111 68ZM431 160T463 191T495 274Q495 323 463 354T366 386Q301 386 271
355T241 274Q241 222 271 191T366 160Q431 160 463 191ZM316 597L234 752H419L443 597H316Z" />
<glyph unicode="&#xf3;" glyph-name="oacute" horiz-adv-x="736" d="M191 -10T111 68T30 275Q30 400 110 478T362 556Q477 556 554 519T669 418T706 275Q706 146 621 68T362 -10Q191 -10 111 68ZM431 160T463 191T495 274Q495 323 463 354T366 386Q301 386 271
355T241 274Q241 222 271 191T366 160Q431 160 463 191ZM419 595H292L316 750H501L419 595Z" />
<glyph unicode="&#xf4;" glyph-name="ocircumflex" horiz-adv-x="736" d="M191 -10T111 68T30 275Q30 400 110 478T362 556Q477 556 554 519T669 418T706 275Q706 146 621 68T362 -10Q191 -10 111 68ZM431 160T463 191T495 274Q495 323 463 354T366 386Q301 386
271 355T241 274Q241 222 271 191T366 160Q431 160 463 191ZM454 741L539 596H408L361 682L314 596H184L269 741H454Z" />
<glyph unicode="&#xf5;" glyph-name="otilde" horiz-adv-x="736" d="M191 -10T111 68T30 275Q30 400 110 478T362 556Q477 556 554 519T669 418T706 275Q706 146 621 68T362 -10Q191 -10 111 68ZM431 160T463 191T495 274Q495 323 463 354T366 386Q301 386 271
355T241 274Q241 222 271 191T366 160Q431 160 463 191ZM538 706Q538 653 509 620T426 586Q385 586 348 615Q339 623 329 635Q321 645 315 649T302 654Q293 654 288 647T285 628H186Q186 675 216 711T298 748Q344 748 381 716L396 700Q411 681 421 681Q431 681
435 686T439 706H538Z" />
<glyph unicode="&#xf6;" glyph-name="odieresis" horiz-adv-x="736" d="M191 -10T111 68T30 275Q30 400 110 478T362 556Q477 556 554 519T669 418T706 275Q706 146 621 68T362 -10Q191 -10 111 68ZM431 160T463 191T495 274Q495 323 463 354T366 386Q301 386
271 355T241 274Q241 222 271 191T366 160Q431 160 463 191ZM255 596T236 615T217 661Q217 687 236 706T282 725Q308 725 327 706T346 661Q346 634 327 615T282 596Q255 596 236 615ZM416 596T397 615T378 661Q378 687 397 706T443 725Q469 725 488 706T507 661Q507
634 488 615T443 596Q416 596 397 615Z" />
<glyph unicode="&#xf7;" glyph-name="divide" horiz-adv-x="521" d="M224 471T197 498T170 562Q170 600 197 626T261 653Q299 653 325 627T352 562Q352 525 326 498T261 471Q224 471 197 498ZM511 243H10V438H511V243ZM224 28T197 55T170 119Q170 157 197 183T261
210Q298 210 325 183T352 119Q352 82 326 55T261 28Q224 28 197 55Z" />
<glyph unicode="&#xf8;" glyph-name="oslash" horiz-adv-x="736" d="M647 449Q706 378 706 275Q706 146 621 68T362 -10Q285 -10 225 7L199 -20L40 46L86 94Q30 164 30 275Q30 400 110 478T362 556Q444 556 509 536L537 566L696 500L647 449ZM226 258T229 243L378
400H366Q293 400 260 365T226 274Q226 258 229 243ZM439 146T474 181T510 274Q510 288 507 303L358 146H366Q439 146 474 181Z" />
<glyph unicode="&#xf9;" glyph-name="ugrave" horiz-adv-x="695" d="M648 420T648 274Q648 127 655 0Q591 3 554 3Q519 3 453 0L424 147Q401 67 352 29T238 -10Q178 -10 134 16T68 88T45 189V333Q45 466 40 546H265Q259 399 259 255Q259 211 280 185T335 159Q366
159 389 186T418 262V285Q420 363 420 393Q420 462 416 546H655Q648 420 648 274ZM302 587L220 742H405L429 587H302Z" />
<glyph unicode="&#xfa;" glyph-name="uacute" horiz-adv-x="695" d="M648 420T648 274Q648 127 655 0Q591 3 554 3Q519 3 453 0L424 147Q401 67 352 29T238 -10Q178 -10 134 16T68 88T45 189V333Q45 466 40 546H265Q259 399 259 255Q259 211 280 185T335 159Q366
159 389 186T418 262V285Q420 363 420 393Q420 462 416 546H655Q648 420 648 274ZM405 585H278L302 740H487L405 585Z" />
<glyph unicode="&#xfb;" glyph-name="ucircumflex" horiz-adv-x="695" d="M648 420T648 274Q648 127 655 0Q591 3 554 3Q519 3 453 0L424 147Q401 67 352 29T238 -10Q178 -10 134 16T68 88T45 189V333Q45 466 40 546H265Q259 399 259 255Q259 211 280 185T335
159Q366 159 389 186T418 262V285Q420 363 420 393Q420 462 416 546H655Q648 420 648 274ZM440 731L525 586H394L347 672L300 586H170L255 731H440Z" />
<glyph unicode="&#xfc;" glyph-name="udieresis" horiz-adv-x="695" d="M648 420T648 274Q648 127 655 0Q591 3 554 3Q519 3 453 0L424 147Q401 67 352 29T238 -10Q178 -10 134 16T68 88T45 189V333Q45 466 40 546H265Q259 399 259 255Q259 211 280 185T335 159Q366
159 389 186T418 262V285Q420 363 420 393Q420 462 416 546H655Q648 420 648 274ZM241 586T222 605T203 651Q203 677 222 696T268 715Q294 715 313 696T332 651Q332 624 313 605T268 586Q241 586 222 605ZM402 586T383 605T364 651Q364 677 383 696T429 715Q455
715 474 696T493 651Q493 624 474 605T429 586Q402 586 383 605Z" />
<glyph unicode="&#xfd;" glyph-name="yacute" horiz-adv-x="698" d="M698 546L675 488Q580 235 476 0Q422 -120 320 -192T64 -262Q45 -179 33 -133T0 -39Q55 -52 103 -52Q181 -52 227 -19Q191 88 142 211T0 546H237Q249 496 270 430T312 303Q318 284 331 246T353
181L379 260Q454 477 468 546H698ZM416 585H289L313 740H498L416 585Z" />
<glyph unicode="&#xfe;" glyph-name="thorn" horiz-adv-x="744" d="M541 556T593 516T675 409T704 267Q704 191 675 128T594 27T477 -10Q317 -10 261 125L260 119Q260 62 264 -62Q268 -184 268 -232H42Q47 -75 49 137Q47 577 40 778H266Q266 728 262 604Q258 494
258 443L261 431Q289 495 343 525T474 556Q541 556 593 516ZM420 158T448 190T476 273Q476 319 446 347T370 376Q347 376 322 366T279 332T261 273Q261 211 289 185T372 158Q420 158 448 190Z" />
<glyph unicode="&#xff;" glyph-name="ydieresis" horiz-adv-x="698" d="M698 546L675 488Q580 235 476 0Q422 -120 320 -192T64 -262Q45 -179 33 -133T0 -39Q55 -52 103 -52Q181 -52 227 -19Q191 88 142 211T0 546H237Q249 496 270 430T312 303Q318 284 331 246T353
181L379 260Q454 477 468 546H698ZM252 586T233 605T214 651Q214 677 233 696T279 715Q305 715 324 696T343 651Q343 624 324 605T279 586Q252 586 233 605ZM413 586T394 605T375 651Q375 677 394 696T440 715Q466 715 485 696T504 651Q504 624 485 605T440 586Q413
586 394 605Z" />
<glyph unicode="&#x2013;" glyph-name="endash" horiz-adv-x="575" d="M545 243H30V438H545V243Z" />
<glyph unicode="&#x2014;" glyph-name="emdash" horiz-adv-x="711" d="M681 243H30V438H681V243Z" />
<glyph unicode="&#x2018;" glyph-name="quoteleft" horiz-adv-x="304" d="M40 375Q40 465 78 527T179 620Q226 573 259 550Q160 523 136 451H274V251H40V375Z" />
<glyph unicode="&#x2019;" glyph-name="quoteright" horiz-adv-x="294" d="M264 656Q264 566 226 504T125 411Q78 458 45 481Q144 508 168 580H30V780H264V656Z" />
<glyph unicode="&#x201a;" glyph-name="quotesinglbase" horiz-adv-x="272" d="M181 203T211 169T242 73Q242 23 225 -32T176 -121H91Q133 -64 144 -9Q92 -9 61 22T30 97Q30 141 61 172T136 203Q181 203 211 169Z" />
<glyph unicode="&#x201c;" glyph-name="quotedblleft" horiz-adv-x="490" d="M31 378Q31 464 60 529T151 620Q174 597 191 583T230 557Q179 538 156 512T125 451H226V251H32L31 378ZM261 378Q261 464 290 529T381 620Q404 597 421 583T460 557Q409 538 386 512T355
451H446V251H262L261 378Z" />
<glyph unicode="&#x201d;" glyph-name="quotedblright" horiz-adv-x="489" d="M229 653Q229 567 200 502T109 411Q86 434 69 448T30 474Q81 493 104 519T135 580H44V780H228L229 653ZM459 653Q459 567 430 502T339 411Q316 434 299 448T260 474Q311 493 334 519T365
580H264V780H458L459 653Z" />
<glyph unicode="&#x201e;" glyph-name="quotedblbase" horiz-adv-x="513" d="M181 203T211 169T242 73Q242 23 225 -32T176 -121H91Q133 -64 144 -9Q92 -9 61 22T30 97Q30 141 61 172T136 203Q181 203 211 169ZM422 203T452 169T483 73Q483 23 466 -32T417 -121H332Q374
-64 385 -9Q333 -9 302 22T271 97Q271 141 302 172T377 203Q422 203 452 169Z" />
<glyph unicode="&#x2022;" glyph-name="bullet" horiz-adv-x="382" d="M147 171T110 193T52 252T30 334Q30 377 51 414T110 473T191 495Q234 495 271 473T330 414T352 334Q352 290 330 253T271 193T191 171Q147 171 110 193Z" />
<glyph unicode="&#x2039;" glyph-name="guilsinglleft" horiz-adv-x="481" d="M229 732H451L251 380L451 28H229L30 380L229 732Z" />
<glyph unicode="&#x203a;" glyph-name="guilsinglright" horiz-adv-x="481" d="M30 732H252L451 380L252 28H30L230 380L30 732Z" />
</font>
</defs>
</svg>
