<?xml version="1.0" standalone="no"?>
<!DOCTYPE svg PUBLIC "-//W3C//DTD SVG 1.1//EN" "http://www.w3.org/Graphics/SVG/1.1/DTD/svg11.dtd">
<svg xmlns="http://www.w3.org/2000/svg">
<defs >
<font id="ZCOOLQingKeHuangYou" horiz-adv-x="760" ><font-face
    font-family="ZCOOL QingKe HuangYou"
    units-per-em="1000"
    panose-1="0 0 5 0 0 0 0 0 0 0"
    ascent="880"
    descent="-120"
    alphabetic="0" />
<glyph unicode=" " glyph-name="space" horiz-adv-x="180" />
<glyph unicode="!" glyph-name="exclam" horiz-adv-x="196" d="M53 804T93 804H103Q143 804 143 764V93Q143 53 103 53H93Q53 53 53 93V764Q53 804 93 804ZM40 -65T40 -48Q40 -31 57 -14L64 -7Q81 10 98 10Q115 10 132 -7L139 -14Q156 -31 156 -48Q156 -65 139
-82L132 -89Q115 -106 98 -106Q81 -106 64 -89L57 -82Q40 -65 40 -48Z" />
<glyph unicode="&quot;" glyph-name="quotedbl" horiz-adv-x="217" d="M70 762T79 751T86 720L77 624Q76 606 70 596T54 586Q35 586 30 624L20 720Q18 740 26 751T53 762Q70 762 79 751ZM182 762T190 751T197 720L186 624Q184 606 178 596T164 586Q147 586 142
624L132 720Q130 740 138 751T165 762Q182 762 190 751Z" />
<glyph unicode="#" glyph-name="numbersign" horiz-adv-x="591" d="M519 806T529 798T539 774Q539 767 538 763L522 670Q521 666 521 659Q521 643 531 635T558 627H561Q601 627 601 587V572Q601 532 561 532H534Q497 532 491 496L440 211Q439 207 439 200Q439
184 449 176T476 168H498Q538 168 538 128V113Q538 73 498 73H452Q415 73 409 37L391 -63Q385 -99 348 -99H324Q307 -99 297 -91T287 -67Q287 -60 288 -56L303 30Q304 34 304 41Q304 57 294 65T267 73H227Q190 73 184 37L166 -63Q160 -99 123 -99H99Q82 -99 72
-91T62 -67Q62 -60 63 -56L78 30Q79 36 79 45Q79 73 58 73Q30 73 30 113V128Q30 147 40 157T67 168Q103 168 109 204L160 489Q161 493 161 500Q161 516 151 524T124 532H106Q66 532 66 572V587Q66 627 106 627H148Q185 627 191 663L210 770Q216 806 253 806H277Q294
806 304 798T314 774Q314 767 313 763L297 670Q296 666 296 659Q296 643 306 635T333 627H373Q410 627 416 663L435 770Q441 806 478 806H502Q519 806 529 798ZM214 207T214 200Q214 184 224 176T251 168H291Q328 168 334 204L385 489Q386 493 386 500Q386 516
376 524T349 532H309Q272 532 266 496L215 211Q214 207 214 200Z" />
<glyph unicode="$" glyph-name="dollar" horiz-adv-x="496" d="M297 -103T257 -103H243Q203 -103 203 -63V-49Q203 -9 163 -9H152Q123 -9 103 11L70 44Q50 64 50 93V191Q50 231 90 231H101Q141 231 141 191V122Q141 82 172 82Q203 82 203 122V266Q203 306 163
306H152Q122 306 102 326L70 358Q50 378 50 407V624Q50 653 70 674L102 706Q122 726 151 726H163Q203 726 203 766V768Q203 808 243 808H257Q297 808 297 768V766Q297 747 307 737T336 726H345Q374 726 394 705L426 673Q446 653 446 624V516Q446 476 406 476H395Q355
476 355 516V595Q355 614 348 624T326 635Q312 635 305 625T297 595V436Q297 417 307 407T336 396H345Q374 396 394 376L426 344Q446 324 446 295V93Q446 64 426 43L394 11Q374 -9 345 -9H337Q297 -9 297 -49V-63Q297 -103 257 -103ZM141 396T172 396Q203 396 203
436V595Q203 635 172 635Q141 635 141 595V436Q141 396 172 396ZM340 82T347 92T355 122V266Q355 285 348 295T326 306Q312 306 305 296T297 266V122Q297 82 326 82Q340 82 347 92Z" />
<glyph unicode="%" glyph-name="percent" horiz-adv-x="513" d="M387 807T387 776Q387 768 386 763L291 357Q290 353 290 344Q290 313 326 313H423Q463 313 463 273V57Q463 30 444 8L427 -12Q406 -34 377 -34H300Q260 -34 260 6V33Q260 46 251 57T232 69Q224 69
223 61L194 -65Q186 -100 150 -100H147Q111 -100 111 -68Q111 -60 112 -56L204 353Q205 357 205 365Q205 397 169 397H60Q20 397 20 437V705Q20 745 60 745H182Q222 745 222 705V620Q222 611 228 605T244 599Q251 599 257 603T264 615L300 772Q308 807 344 807H352Q387
807 387 776ZM135 476T143 486T151 516V629Q151 648 143 658T121 669Q90 669 90 629V516Q90 476 121 476Q135 476 143 486ZM376 45T383 55T391 85V194Q391 213 384 223T362 234Q348 234 341 224T333 194V85Q333 45 362 45Q376 45 383 55Z" />
<glyph unicode="&amp;" glyph-name="ampersand" horiz-adv-x="489" d="M459 -12T454 -20T440 -28Q427 -28 415 -8L406 7Q394 28 378 28Q360 28 353 0L335 -65Q326 -99 291 -99H90Q50 -99 50 -59V166Q50 194 64 216L144 346Q152 360 152 372Q152 387 140 402L68
490Q50 513 50 540V768Q50 808 90 808H333Q373 808 373 768V545Q373 518 356 495L284 405Q273 391 273 376Q273 363 282 349L305 313Q318 294 332 294Q351 294 358 322L367 356Q376 390 411 390H416Q433 390 442 382T452 359Q452 350 450 345L409 201Q406 191 406
182Q406 166 418 146L444 107Q459 84 459 57V2Q459 -12 454 -20ZM285 549T285 575V683Q285 723 245 723H175Q135 723 135 683V579Q135 552 152 529L186 486Q199 470 214 470Q230 470 242 488L269 526Q285 549 285 575ZM135 -28T175 -28H221Q257 -28 266 6L299 121Q302
132 302 140Q302 157 291 174L240 254Q228 273 212 273Q197 273 185 252L147 181Q135 158 135 132V12Q135 -28 175 -28Z" />
<glyph unicode="&apos;" glyph-name="quotesingle" horiz-adv-x="107" d="M72 762T80 751T87 720L76 630Q71 593 55 593Q37 593 32 630L20 720Q18 740 26 751T54 762Q72 762 80 751Z" />
<glyph unicode="(" glyph-name="parenleft" horiz-adv-x="306" d="M266 -58T266 -68Q266 -81 257 -88T231 -96H211Q178 -96 165 -65L109 68Q101 86 96 115L62 330Q60 350 60 355Q60 362 62 380L96 596Q101 625 109 643L165 776Q178 807 211 807H231Q248 807 257
800T266 779Q266 769 262 760L205 636Q195 614 191 588L161 380Q159 362 159 355Q159 348 161 330L191 123Q195 97 205 75L262 -49Q266 -58 266 -68Z" />
<glyph unicode=")" glyph-name="parenright" horiz-adv-x="307" d="M247 370T247 354Q247 338 245 329L214 113Q210 89 200 66L142 -67Q129 -98 96 -98H76Q60 -98 51 -91T41 -70Q41 -60 45 -51L102 73Q112 96 115 121L144 330Q146 348 146 354Q146 360 144 378L115
586Q112 611 102 634L45 758Q40 770 40 777Q40 790 50 797T76 805H96Q129 805 142 774L200 641Q210 618 214 594L245 379Q247 370 247 354Z" />
<glyph unicode="*" glyph-name="asterisk" horiz-adv-x="414" d="M394 326T394 305Q394 295 388 283Q376 262 358 262Q346 262 333 272L280 312Q264 323 254 323Q243 323 238 313T234 286L242 216Q244 196 235 185T207 174Q187 174 178 185T171 216L180 286Q182
304 177 313T159 323Q149 323 133 312L80 272Q67 262 55 262Q38 262 26 283Q20 295 20 305Q20 326 44 336L105 363Q129 374 129 390Q129 407 105 417L46 443Q21 454 21 476Q21 487 27 497Q38 518 55 518Q67 518 81 507L133 467Q149 456 159 456Q171 456 176 465T180
493L171 565Q169 585 178 596T207 607Q226 607 235 596T242 565L234 493Q232 476 237 466T254 456Q264 456 280 467L333 508Q346 518 358 518Q376 518 388 497Q394 485 394 475Q394 454 370 443L309 417Q285 407 285 390Q285 374 309 363L370 336Q394 326 394 305Z"
/>
<glyph unicode="+" glyph-name="plus" horiz-adv-x="638" d="M598 344T558 344H411Q371 344 371 304V138Q371 98 331 98H305Q265 98 265 138V304Q265 344 225 344H80Q40 344 40 384V404Q40 444 80 444H225Q265 444 265 484V652Q265 692 305 692H331Q371 692 371
652V484Q371 444 411 444H558Q598 444 598 404V384Q598 344 558 344Z" />
<glyph unicode="," glyph-name="comma" horiz-adv-x="198" d="M158 119T158 79V20Q158 -6 147 -29L128 -70Q115 -100 82 -100Q64 -100 64 -81Q64 -71 72 -53Q81 -35 81 -23Q81 -6 67 -6Q54 -6 47 4T40 34V79Q40 119 80 119H118Q158 119 158 79Z" />
<glyph unicode="-" glyph-name="hyphen" horiz-adv-x="325" d="M295 289T255 289H70Q30 289 30 329V344Q30 384 70 384H255Q295 384 295 344V329Q295 289 255 289Z" />
<glyph unicode="." glyph-name="period" horiz-adv-x="181" d="M141 -100T101 -100H80Q40 -100 40 -60V-15Q40 25 80 25H101Q141 25 141 -15V-60Q141 -100 101 -100Z" />
<glyph unicode="/" glyph-name="slash" horiz-adv-x="332" d="M292 806T302 798T312 774Q312 767 311 763L164 -63Q158 -99 121 -99H97Q80 -99 70 -91T60 -67Q60 -60 61 -56L208 770Q214 806 251 806H275Q292 806 302 798Z" />
<glyph unicode="0" glyph-name="zero" horiz-adv-x="508" d="M122 711T152 711H357Q386 711 406 690L438 658Q458 638 458 609V91Q458 76 453 65T437 42L405 10Q385 -10 356 -10H151Q122 -10 102 10L70 42Q50 62 50 91V610Q50 639 70 659L102 691Q122 711 152
711ZM367 80T367 120V580Q367 620 327 620H181Q141 620 141 580V120Q141 80 181 80H327Q367 80 367 120Z" />
<glyph unicode="1" glyph-name="one" horiz-adv-x="264" d="M185 103T193 93T215 82Q229 82 236 72T244 42V31Q244 -9 204 -9H60Q20 -9 20 31V42Q20 82 57 82Q94 82 94 122V581Q94 621 57 621Q20 621 20 661V672Q20 712 60 712H84Q113 712 133 692L165 660Q185
640 185 611V122Q185 103 193 93Z" />
<glyph unicode="2" glyph-name="two" horiz-adv-x="507" d="M50 711T90 711H356Q385 711 405 690L437 658Q457 638 457 609V404Q457 375 437 354L405 322Q385 302 356 302H181Q141 302 141 262V122Q141 82 181 82H417Q457 82 457 42V31Q457 -9 417 -9H150Q135
-9 124 -5T101 10L72 35Q50 56 50 85V293Q50 308 55 319T71 342L102 373Q122 393 151 393H327Q367 393 367 433V580Q367 620 327 620H90Q50 620 50 660V671Q50 711 90 711Z" />
<glyph unicode="3" glyph-name="three" horiz-adv-x="498" d="M448 639T448 610V423Q448 394 428 373Q416 361 416 348Q416 336 426 326L428 324Q448 304 448 274V92Q448 63 428 43L396 11Q376 -9 347 -9H80Q40 -9 40 31V41Q40 81 80 81H318Q358 81 358 121V263Q358
303 318 303H89Q49 303 49 343V354Q49 394 89 394H318Q358 394 358 434V580Q358 620 318 620H80Q40 620 40 660V671Q40 711 80 711H347Q376 711 396 691L428 659Q448 639 448 610Z" />
<glyph unicode="4" glyph-name="four" horiz-adv-x="499" d="M358 711T398 711H409Q449 711 449 671V31Q449 -9 409 -9H398Q358 -9 358 31V189Q358 229 318 229H142Q113 229 93 249L60 282Q40 302 40 331V671Q40 711 80 711H91Q131 711 131 671V360Q131 320 171
320H318Q358 320 358 360V671Q358 711 398 711Z" />
<glyph unicode="5" glyph-name="five" horiz-adv-x="508" d="M458 622T418 622H181Q141 622 141 582V442Q141 402 181 402H356Q386 402 406 382L438 350Q458 330 458 301V92Q458 77 453 66T437 43L405 11Q385 -9 356 -9H90Q50 -9 50 31V42Q50 82 90 82H327Q367
82 367 122V271Q367 311 327 311H152Q122 311 102 331L71 361Q60 372 55 383T50 410V612Q50 627 55 638T71 661L103 693Q123 713 152 713H418Q458 713 458 673V662Q458 622 418 622Z" />
<glyph unicode="6" glyph-name="six" horiz-adv-x="508" d="M458 622T418 622H180Q140 622 140 582V478Q140 438 180 438H356Q386 438 406 418L438 386Q458 366 458 337V92Q458 77 453 66T437 43L405 11Q385 -9 356 -9H151Q122 -9 102 11L70 43Q50 63 50 92V612Q50
641 70 661L102 693Q122 713 151 713H418Q458 713 458 673V662Q458 622 418 622ZM367 347T327 347H180Q140 347 140 307V122Q140 82 180 82H327Q367 82 367 122V307Q367 347 327 347Z" />
<glyph unicode="7" glyph-name="seven" horiz-adv-x="384" d="M-30 622T-30 662V673Q-30 713 10 713H232Q262 713 282 693L314 661Q334 641 334 612V32Q334 -8 294 -8H283Q243 -8 243 32V582Q243 622 203 622H10Q-30 622 -30 662Z" />
<glyph unicode="8" glyph-name="eight" horiz-adv-x="509" d="M122 712T152 712H358Q387 712 407 691L439 659Q459 639 459 610V441Q459 412 439 391Q427 379 427 366Q427 354 437 344L439 342Q459 322 459 292V92Q459 77 454 66T438 43L406 11Q386 -9 357 -9H151Q122
-9 102 11L70 43Q50 63 50 92V292Q50 307 55 318T71 341Q84 354 84 367Q84 378 73 389L70 392Q50 412 50 441V611Q50 640 70 660L102 692Q122 712 152 712ZM368 412T368 452V581Q368 621 328 621H181Q141 621 141 581V452Q141 412 181 412H328Q368 412 368 452ZM368
81T368 121V281Q368 321 328 321H181Q141 321 141 281V121Q141 81 181 81H328Q368 81 368 121Z" />
<glyph unicode="9" glyph-name="nine" horiz-adv-x="508" d="M394 710T413 688L439 659Q458 637 458 610V395Q458 366 438 346Q426 334 426 321Q426 308 436 298L438 296Q458 276 458 246V92Q458 77 453 66T437 43L405 11Q385 -9 356 -9H90Q50 -9 50 31V41Q50
81 90 81H327Q367 81 367 121V235Q367 275 327 275H152Q123 275 103 295L70 328Q50 348 50 377V610Q50 625 55 636T71 659L102 690Q122 710 152 710H364Q394 710 413 688ZM367 366T367 406V580Q367 620 327 620H181Q141 620 141 580V406Q141 366 181 366H327Q367
366 367 406Z" />
<glyph unicode=":" glyph-name="colon" horiz-adv-x="181" d="M141 142T101 142H80Q40 142 40 182V227Q40 267 80 267H101Q141 267 141 227V182Q141 142 101 142ZM141 509T101 509H80Q40 509 40 549V594Q40 634 80 634H101Q141 634 141 594V549Q141 509 101 509Z" />
<glyph unicode=";" glyph-name="semicolon" horiz-adv-x="238" d="M170 509T130 509H109Q69 509 69 549V594Q69 634 109 634H130Q170 634 170 594V549Q170 509 130 509ZM178 269T178 229V170Q178 144 167 121L148 80Q135 50 102 50Q84 50 84 69Q84 79 92 97Q101
115 101 127Q101 144 87 144Q74 144 67 154T60 184V229Q60 269 100 269H138Q178 269 178 229Z" />
<glyph unicode="&lt;" glyph-name="less" horiz-adv-x="556" d="M516 -9T516 -23Q516 -37 502 -51L492 -62Q478 -76 464 -76Q449 -76 435 -61L53 355Q40 370 40 383Q40 398 55 411L434 768Q447 781 461 781Q476 781 490 766L501 754Q514 741 514 726Q514 710 500
697L199 411Q185 397 185 383Q185 370 197 355L504 5Q516 -9 516 -23Z" />
<glyph unicode="=" glyph-name="equal" horiz-adv-x="638" d="M598 494T558 494H80Q40 494 40 534V554Q40 594 80 594H558Q598 594 598 554V534Q598 494 558 494ZM598 218T558 218H80Q40 218 40 258V278Q40 318 80 318H558Q598 318 598 278V258Q598 218 558 218Z" />
<glyph unicode="&gt;" glyph-name="greater" horiz-adv-x="557" d="M40 708T40 722Q40 738 53 751L66 765Q79 779 95 779Q110 779 123 765L504 349Q517 334 517 321Q517 307 502 293L124 -64Q111 -77 97 -77Q82 -77 67 -62L56 -50Q43 -37 43 -22Q43 -6 57 7L358
293Q373 307 373 322Q373 336 361 349L52 694Q40 708 40 722Z" />
<glyph unicode="?" glyph-name="question" horiz-adv-x="343" d="M333 510T319 488L213 316Q199 294 199 266V207Q199 167 159 167H148Q129 167 119 178T108 208V294Q108 322 122 344L231 521Q245 543 245 571V679Q245 719 205 719H122Q82 719 82 679V579Q82 539
42 539H30Q-10 539 -10 579V768Q-10 808 30 808H293Q333 808 333 768V538Q333 510 319 488ZM139 106T153 106Q169 106 182 91L195 78Q208 65 208 50Q208 35 194 21L182 9Q168 -5 154 -5Q140 -5 126 9L112 23Q99 36 99 51Q99 66 112 79L125 92Q139 106 153 106Z"
/>
<glyph unicode="@" glyph-name="at" horiz-adv-x="681" d="M484 534T484 494V260Q484 234 495 220Q505 207 523 207Q540 207 540 247V575Q540 615 500 615H181Q141 615 141 575V120Q141 80 181 80H591Q631 80 631 40V29Q631 -11 591 -11H152Q123 -11 103 9L70
42Q50 62 50 91V604Q50 633 70 654L102 686Q122 706 151 706H529Q558 706 578 686L611 653Q631 633 631 604V218Q631 189 611 169L578 136Q558 116 529 116H502Q473 116 453 136L447 142Q427 162 398 162H302Q273 162 253 183L221 215Q201 235 201 264V433Q201
462 221 482L253 514Q273 534 302 534H444Q484 534 484 494ZM393 444T353 444H332Q292 444 292 404V293Q292 253 332 253H353Q393 253 393 293V404Q393 444 353 444Z" />
<glyph unicode="A" glyph-name="A" horiz-adv-x="531" d="M417 -9T409 27L384 147Q376 183 341 183H190Q155 183 147 147L122 27Q114 -9 79 -9H67Q49 -9 40 0T30 24Q30 31 31 35L158 673Q166 709 201 709H327Q362 709 370 673L500 35Q501 31 501 23Q501 -9 464
-9H452Q417 -9 409 27ZM242 618T234 582L181 317Q180 313 180 306Q180 291 189 282T217 273H313Q350 273 350 305Q350 313 349 317L294 582Q286 618 264 618Q242 618 234 582Z" />
<glyph unicode="B" glyph-name="B" horiz-adv-x="495" d="M445 392T425 371Q413 359 413 346Q413 334 423 324L425 322Q445 302 445 272V93Q445 64 425 43L393 11Q373 -9 344 -9H90Q50 -9 50 31V669Q50 709 90 709H344Q373 709 393 688L425 656Q445 636 445 607V421Q445
392 425 371ZM141 618T141 578V432Q141 392 181 392H314Q354 392 354 432L355 578Q355 618 315 618H181Q141 618 141 578ZM355 301T315 301H181Q141 301 141 261V122Q141 82 181 82H315Q355 82 355 122V261Q355 301 315 301Z" />
<glyph unicode="C" glyph-name="C" horiz-adv-x="496" d="M355 431T355 471V579Q355 619 315 619H181Q141 619 141 579V122Q141 82 181 82H315Q355 82 355 122V220Q355 260 395 260H406Q446 260 446 220V93Q446 64 426 44L393 11Q373 -9 344 -9H152Q123 -9 103
11L70 44Q50 64 50 93V608Q50 637 70 657L103 690Q123 710 152 710H344Q373 710 393 690L426 657Q446 637 446 608V471Q446 431 406 431H395Q355 431 355 471Z" />
<glyph unicode="D" glyph-name="D" horiz-adv-x="496" d="M446 64T426 43L394 11Q374 -9 345 -9H90Q50 -9 50 31V669Q50 709 90 709H345Q374 709 394 688L426 656Q446 636 446 607V93Q446 64 426 43ZM141 82T181 82H315Q355 82 355 122V578Q355 618 315 618H181Q141
618 141 578V122Q141 82 181 82Z" />
<glyph unicode="E" glyph-name="E" horiz-adv-x="485" d="M445 84T445 44V33Q445 -7 405 -7H151Q122 -7 102 14L70 46Q50 66 50 95V671Q50 711 90 711H405Q445 711 445 671V660Q445 620 405 620H180Q140 620 140 580V446Q140 406 180 406H405Q445 406 445 366V355Q445
315 405 315H180Q140 315 140 275V124Q140 84 180 84H405Q445 84 445 44Z" />
<glyph unicode="F" glyph-name="F" horiz-adv-x="485" d="M50 709T90 709H405Q445 709 445 669V658Q445 618 405 618H181Q141 618 141 578V408Q141 368 181 368H405Q445 368 445 328V317Q445 277 405 277H181Q141 277 141 237V31Q141 -9 101 -9H90Q50 -9 50 31V669Q50
709 90 709Z" />
<glyph unicode="G" glyph-name="G" horiz-adv-x="496" d="M356 440T356 480V578Q356 618 316 618H181Q141 618 141 578V122Q141 82 181 82H316Q356 82 356 122V228Q356 268 316 268H292Q252 268 252 308V319Q252 359 292 359H406Q446 359 446 319V93Q446 64 426
43L394 11Q374 -9 345 -9H152Q122 -9 102 11L70 43Q50 63 50 92V607Q50 636 70 656L103 689Q123 709 152 709H345Q374 709 394 688L426 656Q446 636 446 607V480Q446 440 406 440H396Q356 440 356 480Z" />
<glyph unicode="H" glyph-name="H" horiz-adv-x="496" d="M355 711T395 711H406Q446 711 446 671V31Q446 -9 406 -9H395Q355 -9 355 31V292Q355 332 315 332H181Q141 332 141 292V31Q141 -9 101 -9H90Q50 -9 50 31V671Q50 711 90 711H101Q141 711 141 671V463Q141
423 181 423H315Q355 423 355 463V671Q355 711 395 711Z" />
<glyph unicode="I" glyph-name="I" horiz-adv-x="272" d="M20 61T29 71T55 82Q72 82 81 92T90 122V579Q90 598 81 608T55 619Q38 619 29 629T20 659V670Q20 710 60 710H212Q252 710 252 670V659Q252 619 217 619Q200 619 191 609T181 579V122Q181 103 190 93T217
82Q234 82 243 72T252 42V31Q252 -9 212 -9H60Q20 -9 20 31V42Q20 61 29 71Z" />
<glyph unicode="J" glyph-name="J" horiz-adv-x="411" d="M361 709T361 669V93Q361 64 341 44L308 11Q288 -9 259 -9H152Q123 -9 103 11L70 44Q50 64 50 93V275Q50 315 90 315H101Q141 315 141 275V122Q141 82 181 82H230Q270 82 270 122V579Q270 619 230 619H154Q114
619 114 659V669Q114 709 154 709H321Q361 709 361 669Z" />
<glyph unicode="K" glyph-name="K" horiz-adv-x="486" d="M446 -9T406 -9H395Q355 -9 355 31V90Q355 106 350 117T332 139L190 256Q178 267 165 267Q154 267 148 258T141 233V31Q141 -9 101 -9H90Q50 -9 50 31V671Q50 711 90 711H101Q141 711 141 671V453Q141
437 147 428T163 418Q175 418 190 433L335 580Q355 601 355 630V671Q355 711 395 711H406Q446 711 446 671V593Q446 564 426 543L258 372Q245 359 245 344Q245 328 261 315L423 183Q436 173 441 162T446 134V31Q446 -9 406 -9Z" />
<glyph unicode="L" glyph-name="L" horiz-adv-x="485" d="M445 82T445 42V31Q445 -9 405 -9H151Q122 -9 102 12L70 44Q50 64 50 93V670Q50 710 90 710H101Q141 710 141 670V122Q141 82 181 82H405Q445 82 445 42Z" />
<glyph unicode="M" glyph-name="M" horiz-adv-x="617" d="M367 54T333 54H294Q258 54 248 87L185 287Q181 298 175 304T161 310Q152 310 146 302T140 280V32Q140 -8 100 -8H90Q50 -8 50 32V669Q50 709 90 709H105Q140 709 150 676L286 241Q290 227 297 220T311
213Q319 213 326 220T337 242L465 675Q476 709 510 709H527Q567 709 567 669V32Q567 -8 527 -8H517Q477 -8 477 32V269Q477 283 471 290T456 298Q440 298 433 276L378 88Q367 54 333 54Z" />
<glyph unicode="N" glyph-name="N" horiz-adv-x="505" d="M141 -9T101 -9H90Q50 -9 50 31V670Q50 710 90 710H110Q143 710 156 680L317 309Q322 298 329 292T344 285Q353 285 358 293T364 318V670Q364 710 404 710H415Q455 710 455 670V31Q455 -9 415 -9H404Q371
-9 358 21L188 410Q178 434 162 434Q153 434 147 425T141 400V31Q141 -9 101 -9Z" />
<glyph unicode="O" glyph-name="O" horiz-adv-x="496" d="M446 64T426 43L394 11Q374 -9 345 -9H152Q123 -9 103 11L70 44Q50 64 50 93V609Q50 638 70 659L102 691Q122 711 151 711H345Q374 711 394 690L426 658Q446 638 446 609V93Q446 64 426 43ZM355 82T355
122V580Q355 620 315 620H181Q141 620 141 580V122Q141 82 181 82H315Q355 82 355 122Z" />
<glyph unicode="P" glyph-name="P" horiz-adv-x="486" d="M446 635T446 606V338Q446 309 426 288L394 256Q374 236 345 236H181Q141 236 141 196V30Q141 -10 101 -10H90Q50 -10 50 30V668Q50 708 90 708H345Q374 708 394 688L426 656Q446 635 446 606ZM356 617T316
617H182Q142 617 142 577V367Q142 327 182 327H315Q355 327 355 367L356 577Q356 617 316 617Z" />
<glyph unicode="Q" glyph-name="Q" horiz-adv-x="494" d="M444 -8T444 -48V-59Q444 -99 404 -99H290Q260 -99 240 -79L208 -47Q188 -27 188 2Q188 17 180 25T155 33H151Q122 33 102 53L70 85Q50 105 50 134V608Q50 637 70 658L102 690Q122 710 151 710H343Q372
710 392 689L424 657Q444 637 444 608V134Q444 105 424 85L392 53Q372 33 343 33H319Q300 33 290 28T279 12Q279 2 289 -3T319 -9L404 -8Q444 -8 444 -48ZM354 123T354 163V579Q354 619 314 619H180Q140 619 140 579V163Q140 123 180 123H314Q354 123 354 163Z"
/>
<glyph unicode="R" glyph-name="R" horiz-adv-x="485" d="M445 82T445 42V31Q445 -9 405 -9H369Q340 -9 320 11L287 44Q267 64 267 93V215Q267 255 227 255H181Q141 255 141 215V32Q141 -8 101 -8H90Q50 -8 50 32V669Q50 709 90 709H343Q372 709 392 689L425 656Q445
636 445 607V356Q445 341 440 330T424 307L392 275Q372 255 365 255Q358 255 358 215V122Q358 82 398 82H405Q445 82 445 42ZM354 618T314 618H181Q141 618 141 578V385Q141 345 181 345H314Q354 345 354 385V578Q354 618 314 618Z" />
<glyph unicode="S" glyph-name="S" horiz-adv-x="496" d="M355 476T355 516V595Q355 635 315 635H181Q141 635 141 595V436Q141 396 181 396H345Q374 396 394 376L426 344Q446 324 446 295V93Q446 64 426 43L394 11Q374 -9 345 -9H152Q123 -9 103 11L70 44Q50
64 50 93V191Q50 231 90 231H101Q141 231 141 191V122Q141 82 181 82H315Q355 82 355 122V266Q355 306 315 306H152Q122 306 102 326L70 358Q50 378 50 407V624Q50 653 70 674L102 706Q122 726 151 726H345Q374 726 394 705L426 673Q446 653 446 624V516Q446 476
406 476H395Q355 476 355 516Z" />
<glyph unicode="T" glyph-name="T" horiz-adv-x="376" d="M-10 710T30 710H346Q386 710 386 670V659Q386 619 346 619H274Q234 619 234 579V32Q234 -8 194 -8H183Q143 -8 143 32V579Q143 619 103 619H30Q-10 619 -10 659V670Q-10 710 30 710Z" />
<glyph unicode="U" glyph-name="U" horiz-adv-x="496" d="M355 711T395 711H406Q446 711 446 671V94Q446 65 426 44L394 12Q374 -8 345 -8H152Q123 -8 103 12L70 45Q50 65 50 94V671Q50 711 90 711H101Q141 711 141 671V123Q141 83 181 83H315Q355 83 355 123V671Q355
711 395 711Z" />
<glyph unicode="V" glyph-name="V" horiz-adv-x="471" d="M84 710T92 675L223 117Q231 82 237 82Q243 82 251 117L379 675Q387 710 423 710H435Q471 710 471 678Q471 670 470 666L318 26Q310 -9 274 -9H201Q166 -9 157 26L2 666Q0 676 0 679Q0 693 10 701T37 710H48Q84
710 92 675Z" />
<glyph unicode="W" glyph-name="W" horiz-adv-x="577" d="M490 -9T451 -9H437Q403 -9 391 23L315 232Q306 259 289 259Q274 259 263 232L188 23Q176 -9 142 -9H126Q87 -9 84 29L20 668Q18 688 28 699T58 710H69Q106 710 111 672L149 325Q150 310 156 302T172 293Q179
293 186 300T198 319L236 422Q248 454 282 454H295Q329 454 341 422L379 321Q384 309 391 302T405 295Q414 295 420 303T428 327L466 672Q471 710 508 710H519Q539 710 549 699T557 668L493 29Q490 -9 451 -9Z" />
<glyph unicode="X" glyph-name="X" horiz-adv-x="514" d="M474 -9T434 -9H392Q359 -9 346 22L282 174Q272 199 255 199Q238 199 228 174L165 22Q158 6 147 -1T119 -9H80Q40 -9 40 31V42Q40 61 47 71T68 82Q95 82 108 113L196 325Q202 340 202 352Q202 366 196
379L108 592Q95 623 68 623Q40 623 40 663V674Q40 714 80 714H119Q136 714 147 707T165 683L228 530Q239 505 255 505Q271 505 282 530L346 683Q359 714 392 714H434Q474 714 474 674V663Q474 644 467 634T445 623Q416 623 403 592L314 379Q308 366 308 352Q308
340 314 325L403 113Q416 82 445 82Q459 82 466 72T474 42V31Q474 -9 434 -9Z" />
<glyph unicode="Y" glyph-name="Y" horiz-adv-x="429" d="M62 709T78 681L193 482Q209 454 215 454Q222 454 237 482L350 681Q365 709 398 709H404Q420 709 429 702T439 683Q439 672 432 661L274 386Q261 363 261 336V30Q261 -10 221 -10H210Q170 -10 170 30V336Q170
363 157 386L-3 661Q-10 672 -10 684Q-10 695 -1 702T24 709H30Q62 709 78 681Z" />
<glyph unicode="Z" glyph-name="Z" horiz-adv-x="497" d="M447 -9T407 -9H90Q50 -9 50 31V81Q50 109 64 131L327 574Q334 587 334 597Q334 608 325 615T300 622H90Q50 622 50 662V673Q50 713 90 713H407Q447 713 447 673V620Q447 592 433 570L172 130Q165 117
165 107Q165 96 174 89T199 82H407Q447 82 447 42V31Q447 -9 407 -9Z" />
<glyph unicode="[" glyph-name="bracketleft" horiz-adv-x="285" d="M275 -99T235 -99H90Q50 -99 50 -59V758Q50 798 90 798H235Q275 798 275 758V738Q275 698 235 698H190Q150 698 150 658V43Q150 3 190 3H235Q275 3 275 -37V-59Q275 -99 235 -99Z" />
<glyph unicode="\" glyph-name="backslash" horiz-adv-x="310" d="M119 810T125 773L249 -59L250 -68Q250 -84 240 -93T212 -102H187Q151 -102 145 -65L21 767L20 776Q20 792 30 801T58 810H83Q119 810 125 773Z" />
<glyph unicode="]" glyph-name="bracketright" horiz-adv-x="285" d="M10 3T50 3H95Q135 3 135 43V669Q135 709 95 709H50Q10 709 10 749V769Q10 809 50 809H195Q235 809 235 769V-59Q235 -99 195 -99H50Q10 -99 10 -59V-37Q10 3 50 3Z" />
<glyph unicode="^" glyph-name="asciicircum" horiz-adv-x="531" d="M491 372T491 359Q491 336 460 336H437Q405 336 389 363L292 523Q280 543 265 543Q249 543 237 522L143 363Q127 336 95 336H75Q59 336 50 343T40 361Q40 370 48 384L236 683Q248 703 264 703Q280
703 292 683L483 384Q491 372 491 359Z" />
<glyph unicode="_" glyph-name="underscore" horiz-adv-x="510" d="M480 82T470 72T440 62H70Q51 62 41 72T30 100Q30 137 70 137H440Q480 137 480 100Q480 82 470 72Z" />
<glyph unicode="`" glyph-name="grave" horiz-adv-x="132" d="M132 719T132 711Q132 699 124 692T101 685H88Q54 685 41 715L5 791Q0 800 0 811Q0 823 9 830T33 838H49Q82 838 95 807L127 732Q132 719 132 711Z" />
<glyph unicode="a" glyph-name="a" horiz-adv-x="438" d="M123 -8T103 12L70 45Q50 65 50 94V210Q50 225 55 236T71 259L103 291Q123 311 152 311H247Q287 311 287 351V354Q287 394 247 394H93Q53 394 53 434V445Q53 485 93 485H276Q305 485 325 465L358 432Q378
412 378 383V32Q378 -8 338 -8H152Q123 -8 103 12ZM287 229T247 229H181Q141 229 141 189V114Q141 74 181 74H247Q287 74 287 114V189Q287 229 247 229Z" />
<glyph unicode="b" glyph-name="b" horiz-adv-x="425" d="M375 412T375 383V95Q375 66 355 46L322 13Q302 -7 273 -7H90Q50 -7 50 33V671Q50 711 90 711H101Q141 711 141 671V525Q141 485 181 485H273Q302 485 322 465L355 432Q375 412 375 383ZM141 394T141 354V124Q141
84 181 84H244Q284 84 284 124V354Q284 394 244 394H181Q141 394 141 354Z" />
<glyph unicode="c" glyph-name="c" horiz-adv-x="405" d="M123 485T152 485H335Q375 485 375 445V434Q375 394 335 394H181Q141 394 141 354V123Q141 83 181 83H335Q375 83 375 43V32Q375 -8 335 -8H152Q123 -8 103 12L70 45Q50 65 50 94V383Q50 412 70 432L103
465Q123 485 152 485Z" />
<glyph unicode="d" glyph-name="d" horiz-adv-x="425" d="M122 485T152 485H244Q284 485 284 525V669Q284 709 324 709H335Q375 709 375 669V31Q375 -9 335 -9H152Q123 -9 103 11L70 44Q50 64 50 93V384Q50 413 70 433L102 465Q122 485 152 485ZM141 82T181 82H244Q284
82 284 122V354Q284 394 244 394H181Q141 394 141 354V122Q141 82 181 82Z" />
<glyph unicode="e" glyph-name="e" horiz-adv-x="425" d="M375 177T335 177H181Q141 177 141 137V123Q141 83 181 83H335Q375 83 375 43V32Q375 -8 335 -8H151Q122 -8 102 13L70 45Q50 65 50 94V384Q50 413 70 433L102 465Q122 485 151 485H274Q303 485 323 465L355
433Q375 413 375 384V217Q375 177 335 177ZM141 257T181 257H244Q284 257 284 297V355Q284 395 244 395H181Q141 395 141 355V297Q141 257 181 257Z" />
<glyph unicode="f" glyph-name="f" horiz-adv-x="303" d="M30 464T39 474T66 485Q83 485 92 495T102 525V608Q102 637 122 658L154 690Q174 710 203 710H243Q283 710 283 670V659Q283 619 243 619H232Q192 619 192 579V525Q192 485 232 485H243Q283 485 283 445V434Q283
394 243 394H232Q192 394 192 354V32Q192 -8 152 -8H142Q102 -8 102 32V354Q102 373 93 383T66 394Q49 394 40 404T30 434V445Q30 464 39 474Z" />
<glyph unicode="g" glyph-name="g" horiz-adv-x="436" d="M285 -8T285 32V55Q285 95 245 95H152Q122 95 102 115L70 147Q50 167 50 196V383Q50 412 70 432L103 465Q123 485 152 485H336Q376 485 376 445V3Q376 -12 371 -23T355 -46L323 -78Q303 -98 274 -98H99Q59
-98 59 -58V-48Q59 -8 99 -8H245Q285 -8 285 32ZM141 186T181 186H245Q285 186 285 226V354Q285 394 245 394H181Q141 394 141 354V226Q141 186 181 186Z" />
<glyph unicode="h" glyph-name="h" horiz-adv-x="435" d="M50 -10T50 30V667Q50 707 90 707H101Q141 707 141 667V525Q141 485 181 485H273Q302 485 322 465L355 432Q375 412 375 383V30Q375 -10 335 -10H324Q284 -10 284 30V354Q284 394 244 394H181Q141 394
141 354V30Q141 -10 101 -10H90Q50 -10 50 30Z" />
<glyph unicode="i" glyph-name="i" horiz-adv-x="212" d="M90 632T106 632Q122 632 137 617Q152 602 152 586Q152 570 137 555Q122 540 106 540Q90 540 75 555Q60 570 60 586Q60 602 75 617Q90 632 106 632ZM61 485T101 485H111Q151 485 151 445V31Q151 -9 111
-9H101Q61 -9 61 31V445Q61 485 101 485Z" />
<glyph unicode="j" glyph-name="j" horiz-adv-x="210" d="M88 631T104 631Q120 631 135 616Q150 601 150 585Q150 569 135 554Q120 539 104 539Q88 539 73 554Q58 569 58 585Q58 601 73 616Q88 631 104 631ZM41 -6T50 4T59 34V445Q59 485 99 485H110Q150 485 150
445V5Q150 -24 130 -44L97 -77Q77 -97 48 -97H30Q-10 -97 -10 -57V-46Q-10 -6 24 -6Q41 -6 50 4Z" />
<glyph unicode="k" glyph-name="k" horiz-adv-x="363" d="M177 151T162 151Q153 151 147 142T141 116V31Q141 -9 101 -9H90Q50 -9 50 31V679Q50 719 90 719H101Q141 719 141 679V397Q141 381 146 372T161 363Q175 363 190 382L250 459Q270 485 298 485H313Q329
485 338 478T347 460Q347 450 339 437L242 293Q233 280 233 265Q233 251 240 238L347 39Q353 27 353 17Q353 5 344 -2T320 -9H299Q266 -9 251 19L189 129Q177 151 162 151Z" />
<glyph unicode="l" glyph-name="l" horiz-adv-x="190" d="M50 710T90 710H100Q140 710 140 670V31Q140 -9 100 -9H90Q50 -9 50 31V670Q50 710 90 710Z" />
<glyph unicode="m" glyph-name="m" horiz-adv-x="592" d="M150 -8T110 -8H100Q60 -8 60 32V383Q60 413 80 433L112 465Q132 485 161 485H224Q239 485 250 480T273 464Q286 451 299 451Q310 451 321 462L323 464Q334 475 345 480T372 485H431Q446 485 457 480T480
464L512 432Q532 412 532 383V32Q532 -8 492 -8H482Q442 -8 442 32V354Q442 394 402 394H383Q343 394 343 354V32Q343 -8 303 -8H293Q253 -8 253 32V354Q253 394 213 394H190Q150 394 150 354V32Q150 -8 110 -8Z" />
<glyph unicode="n" glyph-name="n" horiz-adv-x="447" d="M151 -10T111 -10H100Q60 -10 60 30V383Q60 412 80 432L113 465Q133 485 162 485H286Q315 485 335 464L367 432Q387 412 387 383V30Q387 -10 347 -10H337Q297 -10 297 30V354Q297 394 257 394H191Q151
394 151 354V30Q151 -10 111 -10Z" />
<glyph unicode="o" glyph-name="o" horiz-adv-x="427" d="M377 412T377 383V93Q377 64 357 43L325 11Q305 -9 276 -9H152Q123 -9 103 11L70 44Q50 64 50 93V383Q50 412 70 432L103 465Q123 485 152 485H276Q305 485 325 465L357 433Q377 412 377 383ZM286 394T246
394H181Q141 394 141 354V122Q141 82 181 82H246Q286 82 286 122V354Q286 394 246 394Z" />
<glyph unicode="p" glyph-name="p" horiz-adv-x="435" d="M60 -102T60 -62V445Q60 485 100 485H284Q313 485 333 465L365 433Q385 413 385 384V197Q385 168 365 147L333 115Q313 95 284 95H191Q151 95 151 55V-62Q151 -102 111 -102H100Q60 -102 60 -62ZM151 395T151
355V226Q151 186 191 186H255Q295 186 295 226V355Q295 395 255 395H191Q151 395 151 355Z" />
<glyph unicode="q" glyph-name="q" horiz-adv-x="435" d="M284 -98T284 -58V39Q284 79 244 79H151Q122 79 102 100L70 132Q50 152 50 181V384Q50 413 70 433L102 465Q122 485 151 485H335Q375 485 375 445V-58Q375 -98 335 -98H324Q284 -98 284 -58ZM140 395T140
355V210Q140 170 180 170H244Q284 170 284 210V355Q284 395 244 395H180Q140 395 140 355Z" />
<glyph unicode="r" glyph-name="r" horiz-adv-x="230" d="M151 -8T111 -8H100Q60 -8 60 32V383Q60 412 80 432L113 465Q133 485 162 485H180Q220 485 220 445V434Q220 394 186 394Q169 394 160 384T151 354V32Q151 -8 111 -8Z" />
<glyph unicode="s" glyph-name="s" horiz-adv-x="426" d="M306 342T296 349T285 369Q285 381 275 388T245 395H181Q141 395 141 355V314Q141 274 181 274H274Q303 274 323 254L356 221Q376 201 376 172V93Q376 64 356 44L323 11Q303 -9 274 -9H152Q123 -9 103
11L70 44Q50 64 50 93V94Q50 134 90 134H101Q120 134 130 127T141 108Q141 96 151 89T181 82H245Q285 82 285 122V152Q285 192 245 192H151Q136 192 125 196T102 211L72 237Q60 247 55 258T50 286V384Q50 399 55 410T71 433L103 465Q123 485 152 485H274Q304 485
324 465L356 433Q376 413 376 384V382Q376 342 336 342H325Q306 342 296 349Z" />
<glyph unicode="t" glyph-name="t" horiz-adv-x="340" d="M320 82T320 42V31Q320 -9 280 -9H211Q182 -9 162 11L129 44Q109 64 109 93V355Q109 374 99 384T70 395Q30 395 30 435V445Q30 464 40 474T70 485Q89 485 99 495T109 525V561Q109 601 149 601H160Q200
601 200 561V525Q200 485 240 485H280Q320 485 320 445V435Q320 395 280 395H240Q200 395 200 355V122Q200 82 240 82H280Q320 82 320 42Z" />
<glyph unicode="u" glyph-name="u" horiz-adv-x="446" d="M295 485T335 485H346Q386 485 386 445V93Q386 64 366 43L334 11Q314 -9 285 -9H162Q133 -9 113 11L80 44Q60 64 60 93V445Q60 485 100 485H111Q151 485 151 445V122Q151 82 191 82H255Q295 82 295 122V445Q295
485 335 485Z" />
<glyph unicode="v" glyph-name="v" horiz-adv-x="372" d="M116 485T122 448L175 119Q181 82 187 82Q193 82 199 119L250 448Q256 485 293 485H305Q322 485 332 477T342 453Q342 446 341 442L267 27Q261 -9 223 -9H152Q114 -9 108 27L31 442Q30 446 30 453Q30 469
40 477T67 485H79Q116 485 122 448Z" />
<glyph unicode="w" glyph-name="w" horiz-adv-x="604" d="M349 408T356 372L407 115Q415 79 416 79H417L483 449Q489 485 526 485H537Q555 485 564 476T574 452Q574 445 573 441L491 25Q483 -11 448 -11H385Q348 -11 342 26L316 197Q312 225 304 225Q297 225 292
198L266 26Q260 -11 223 -11H159Q124 -11 116 25L31 441Q30 445 30 453Q30 485 67 485H78Q116 485 122 449L182 115Q185 99 187 90T191 79H193L248 372Q254 408 292 408H313Q349 408 356 372Z" />
<glyph unicode="x" glyph-name="x" horiz-adv-x="357" d="M10 450T10 459Q10 471 18 478T41 485H55Q88 485 102 456L150 356Q161 333 177 333Q193 333 205 356L256 456Q271 485 303 485H313Q347 485 347 460Q347 450 341 438L247 257Q239 241 239 229Q239 219
246 203L332 28Q338 16 338 6Q338 -6 330 -12T308 -19H294Q261 -19 247 10L201 103Q190 126 174 126Q158 126 146 103L98 10Q84 -19 51 -19H46Q30 -19 21 -12T11 7Q11 16 17 28L105 201Q113 217 113 229Q113 241 106 255L16 438Q10 450 10 459Z" />
<glyph unicode="y" glyph-name="y" horiz-adv-x="416" d="M275 242T275 282V445Q275 485 315 485H326Q366 485 366 445V3Q366 -26 346 -46L313 -79Q293 -99 264 -99H89Q49 -99 49 -59V-48Q49 -8 89 -8H235Q275 -8 275 32V111Q275 151 235 151H142Q113 151 93 171L60
204Q40 224 40 253V445Q40 485 80 485H91Q131 485 131 445V282Q131 242 171 242H235Q275 242 275 282Z" />
<glyph unicode="z" glyph-name="z" horiz-adv-x="384" d="M353 0T313 0H70Q30 0 30 40V67Q30 97 44 117L210 346Q219 358 219 368Q219 380 210 387T183 394H70Q30 394 30 434V445Q30 485 70 485H314Q354 485 354 445V412Q354 382 340 362L181 139Q173 128 173
117Q173 106 183 99T209 91H313Q353 91 353 51V40Q353 0 313 0Z" />
<glyph unicode="{" glyph-name="braceleft" horiz-adv-x="271" d="M261 -53T261 -67Q261 -76 255 -81T235 -87H212Q182 -87 163 -64L102 10Q84 33 84 60V271Q84 299 62 320L55 326Q40 340 40 355Q40 370 54 382L62 389Q84 410 84 438V650Q84 678 102 700L163 775Q182
798 212 798H226Q242 798 251 792T261 774Q261 763 250 749L199 685Q182 662 182 635V425Q182 396 162 376Q151 365 151 354Q151 345 161 333L162 332Q182 312 182 282V75Q182 48 199 25L249 -38Q261 -53 261 -67Z" />
<glyph unicode="|" glyph-name="bar" horiz-adv-x="194" d="M144 -103T104 -103H90Q50 -103 50 -63V768Q50 808 90 808H104Q144 808 144 768V-63Q144 -103 104 -103Z" />
<glyph unicode="}" glyph-name="braceright" horiz-adv-x="273" d="M234 368T234 355Q234 341 220 329L214 324Q192 303 192 275V51Q192 36 188 25T174 2L108 -74Q90 -96 59 -96H46Q30 -96 21 -90T11 -72Q11 -61 22 -47L72 16Q89 39 89 66V285Q89 315 112 334Q123
343 123 354Q123 364 112 373Q99 383 94 394T89 422V641Q89 670 72 691L21 758Q10 772 10 786Q10 795 17 801T37 807H59Q89 807 108 784L174 708Q184 696 188 685T192 659V435Q192 406 213 386L220 380Q234 368 234 355Z" />
<glyph unicode="~" glyph-name="asciitilde" horiz-adv-x="429" d="M399 376T372 358L322 327Q309 318 294 318Q281 318 266 327L160 398Q146 408 131 408Q119 408 104 399L78 382Q66 374 55 374Q44 374 37 382T30 407V432Q30 463 56 480L107 512Q120 521 134
521Q149 521 162 511L269 437Q282 427 296 427Q311 427 325 437L350 455Q365 465 375 465Q386 465 392 456T399 431V406Q399 376 372 358Z" />
<glyph unicode="&#xa0;" glyph-name="uni00A0" horiz-adv-x="180" />
<glyph unicode="&#xa2;" glyph-name="cent" horiz-adv-x="405" d="M327 390Q287 390 287 350V123Q287 83 327 83H335Q375 83 375 43V32Q375 -8 335 -8H327Q287 -8 287 -48V-63Q287 -103 247 -103H233Q193 -103 193 -63V-48Q193 -8 153 -8H152Q123 -8 103 12L70
45Q50 65 50 94V379Q50 408 70 428L103 461Q123 481 152 481H153Q193 481 193 521V536Q193 576 233 576H247Q287 576 287 536V521Q287 481 327 481H335Q375 481 375 441V430Q375 390 335 390H327ZM193 83T193 123V350Q193 390 181 390Q141 390 141 350V123Q141
83 181 83H187Q193 83 193 123Z" />
<glyph unicode="&#xa3;" glyph-name="sterling" horiz-adv-x="303" d="M283 -20T243 -20H70Q30 -20 30 20V31Q30 50 39 60T66 71Q83 71 92 81T102 111V354Q102 373 93 383T66 394Q49 394 40 404T30 434V445Q30 464 39 474T66 485Q83 485 92 495T102 525V610Q102
639 122 660L154 692Q174 712 203 712H243Q283 712 283 672V661Q283 621 243 621H233Q193 621 193 581V525Q193 485 233 485H243Q283 485 283 445V434Q283 394 243 394H233Q193 394 193 354V111Q193 71 233 71H243Q283 71 283 31V20Q283 -20 243 -20Z" />
<glyph unicode="&#xa4;" glyph-name="currency" horiz-adv-x="586" d="M521 169T506 169Q492 169 478 183L441 220Q413 248 411 246L409 244H207Q179 244 176 247L173 249L107 183Q94 170 79 170Q64 170 51 184L43 192Q30 205 30 219Q30 234 44 248L81 285Q109
313 107 315L105 317V562Q105 591 107 593L109 595L43 662Q30 675 30 690Q30 705 43 718L51 726Q65 740 79 740Q93 740 107 726L145 688Q157 676 165 669T175 662L177 664H380Q409 664 411 662L413 660L478 725Q491 738 506 738Q521 738 534 724L542 716Q555 703
555 689Q555 674 541 660L506 625Q477 596 479 593L481 591V346Q481 317 479 315L477 313L542 248Q556 234 556 220Q556 206 542 192L534 184Q521 169 506 169ZM390 573T350 573H236Q196 573 196 533V375Q196 335 236 335H350Q390 335 390 375V533Q390 573 350
573Z" />
<glyph unicode="&#xa5;" glyph-name="yen" horiz-adv-x="490" d="M450 194T410 194H330Q290 194 290 154V-58Q290 -98 250 -98H235Q195 -98 195 -58V154Q195 194 155 194H80Q40 194 40 234V235Q40 275 80 275H155Q195 275 195 315V386Q195 426 155 426H80Q40 426
40 466V470Q40 510 80 510H110Q127 510 136 517T145 537Q145 547 141 556L59 762Q55 771 55 781Q55 794 64 801T89 808H104Q138 808 150 777L223 593Q234 567 250 567Q258 567 265 574T276 593L346 776Q358 808 392 808H400Q417 808 426 800T436 779Q436 770 432
762L353 556Q349 548 349 539Q349 526 358 518T385 510H410Q450 510 450 470V466Q450 426 410 426H330Q290 426 290 386V315Q290 275 330 275H410Q450 275 450 235V234Q450 194 410 194Z" />
<glyph unicode="&#xa6;" glyph-name="brokenbar" horiz-adv-x="194" d="M144 397T104 397H90Q50 397 50 437V768Q50 808 90 808H104Q144 808 144 768V437Q144 397 104 397ZM144 -103T104 -103H90Q50 -103 50 -63V288Q50 328 90 328H104Q144 328 144 288V-63Q144
-103 104 -103Z" />
<glyph unicode="&#xa8;" glyph-name="dieresis" horiz-adv-x="243" d="M90 680T76 665T40 649Q17 649 4 664T-10 699Q-10 719 4 733T40 748Q62 748 76 733T90 699Q90 680 76 665ZM253 680T239 665T203 649Q181 649 168 664T154 699Q154 719 168 733T203 748Q225
748 239 733T253 699Q253 680 239 665Z" />
<glyph unicode="&#xa9;" glyph-name="copyright" horiz-adv-x="610" d="M382 671T447 633T551 529T590 386Q590 308 552 243T448 140T305 102Q228 102 163 140T59 243T20 386Q20 463 58 528T162 632T305 671Q382 671 447 633ZM244 610T193 580T111 499T81 386Q81
325 111 274T192 193T305 163Q366 163 417 193T499 274T529 386Q529 447 499 498T418 580T305 610Q244 610 193 580ZM393 402T383 409T372 429Q372 441 362 448T332 455H278Q238 455 238 415V354Q238 314 278 314H332Q351 314 361 321T372 340Q372 352 382 359T412
366H422Q441 366 451 357T462 331V325Q462 296 442 275L410 243Q390 223 361 223H249Q220 223 200 243L167 276Q147 296 147 325V444Q147 473 167 493L200 526Q220 546 249 546H361Q390 546 410 525L442 493Q462 473 462 444V442Q462 402 422 402H412Q393 402 383
409Z" />
<glyph unicode="&#xac;" glyph-name="logicalnot" horiz-adv-x="600" d="M426 390T386 390H123Q83 390 83 430V439Q83 479 123 479H476Q516 479 516 439L517 221Q517 181 477 181H467Q427 181 427 221L426 350Q426 390 386 390Z" />
<glyph unicode="&#xaf;" glyph-name="overscore" horiz-adv-x="337" d="M0 804T10 813T40 822H297Q316 822 326 813T337 787Q337 770 327 761T297 752H40Q0 752 0 787Q0 804 10 813Z" />
<glyph unicode="&#xb0;" glyph-name="degree" horiz-adv-x="231" d="M150 767T179 750T224 705T241 642Q241 589 205 553T115 516Q81 516 53 532T7 578T-10 642Q-10 675 7 704T53 750T115 767Q150 767 179 750ZM88 705T70 687T52 642Q52 615 70 596T115 577Q142
577 161 596T180 642Q180 669 161 687T115 705Q88 705 70 687Z" />
<glyph unicode="&#xb1;" glyph-name="plusminus" horiz-adv-x="604" d="M357 264T317 264H295Q255 264 255 304V390Q255 430 215 430H80Q40 430 40 470V492Q40 532 80 532H215Q255 532 255 572V666Q255 706 295 706H317Q357 706 357 666V572Q357 532 397 532H524Q564
532 564 492V470Q564 430 524 430H397Q357 430 357 390V304Q357 264 317 264ZM564 115T524 115H80Q40 115 40 155V178Q40 218 80 218H524Q564 218 564 178V155Q564 115 524 115Z" />
<glyph unicode="&#xd7;" glyph-name="multiply" horiz-adv-x="505" d="M428 176T414 176Q400 176 386 190L282 294Q268 308 254 308Q241 308 225 294L108 176Q95 163 80 163Q65 163 51 176L33 195Q20 208 20 223Q20 238 33 251L150 369Q164 382 164 397Q164 412
150 425L48 528Q34 542 34 556Q34 570 48 584L62 598Q75 612 90 612Q106 612 119 598L221 496Q235 482 249 482Q264 482 278 496L396 615Q412 629 425 629Q439 629 453 615L471 596Q485 583 485 568Q485 553 471 540L353 421Q339 407 339 393Q339 380 353 364L457
260Q471 246 471 232Q471 218 457 204L442 190Q428 176 414 176Z" />
<glyph unicode="&#xf7;" glyph-name="divide" horiz-adv-x="638" d="M232 551T258 580Q287 606 319 606Q355 606 381 580Q407 554 407 518Q407 482 381 456Q356 431 319 431Q283 431 258 456Q232 482 232 518Q232 551 258 580ZM598 294T558 294H80Q40 294 40 334V354Q40
394 80 394H558Q598 394 598 354V334Q598 294 558 294ZM232 199T258 228Q287 254 319 254Q355 254 381 228Q407 202 407 166Q407 130 381 104Q356 79 319 79Q283 79 258 104Q232 130 232 166Q232 199 258 228Z" />
<glyph unicode="&#x2013;" glyph-name="endash" horiz-adv-x="495" d="M465 289T425 289H70Q30 289 30 329V344Q30 384 70 384H425Q465 384 465 344V329Q465 289 425 289Z" />
<glyph unicode="&#x2014;" glyph-name="emdash" horiz-adv-x="747" d="M717 289T677 289H70Q30 289 30 329V344Q30 384 70 384H677Q717 384 717 344V329Q717 289 677 289Z" />
<glyph unicode="&#x2018;" glyph-name="quoteleft" horiz-adv-x="765" d="M679 800T688 792T698 769Q698 760 696 755L660 635Q650 602 615 602H603Q586 602 577 610T567 632Q567 642 569 647L605 767Q616 800 650 800H662Q679 800 688 792Z" />
<glyph unicode="&#x2019;" glyph-name="quoteright" horiz-adv-x="765" d="M179 800T188 792T197 770Q197 760 195 755L160 636Q149 602 115 602H103Q86 602 77 610T67 632Q67 642 69 647L105 767Q116 800 150 800H162Q179 800 188 792Z" />
<glyph unicode="&#x201a;" glyph-name="quotesinglbase" horiz-adv-x="172" d="M132 -7T125 -31L107 -87Q97 -120 64 -120Q54 -120 48 -113T42 -95Q42 -85 46 -74L55 -49Q63 -27 63 -15Q63 -10 61 -7T56 -3Q40 -3 40 37V55Q40 95 80 95H92Q132 95 132 55V18Q132
-7 125 -31Z" />
<glyph unicode="&#x201c;" glyph-name="quotedblleft" horiz-adv-x="765" d="M597 800T606 792T615 770Q615 760 613 755L578 636Q567 602 533 602H521Q504 602 495 610T485 632Q485 642 487 647L523 767Q534 800 568 800H580Q597 800 606 792ZM740 800T749 792T759
769Q759 760 757 755L721 635Q711 602 676 602H664Q647 602 638 610T628 632Q628 642 630 647L666 767Q676 800 711 800H723Q740 800 749 792Z" />
<glyph unicode="&#x201d;" glyph-name="quotedblright" horiz-adv-x="765" d="M118 800T127 792T137 769Q137 760 135 755L99 635Q88 602 54 602H42Q25 602 16 610T6 632Q6 642 8 647L44 767Q54 800 89 800H101Q118 800 127 792ZM261 800T270 792T280 769Q280
760 278 755L242 635Q232 602 197 602H186Q169 602 160 610T150 633Q150 642 152 647L187 766Q198 800 232 800H244Q261 800 270 792Z" />
<glyph unicode="&#x201e;" glyph-name="quotedblbase" horiz-adv-x="387" d="M91 -187T75 -187Q66 -187 56 -179Q45 -170 45 -158Q45 -146 58 -131L66 -122Q84 -102 90 -86Q97 -68 93 -68H89L71 -61Q40 -48 40 -14V43Q40 73 65 92L76 100Q92 111 104 111Q118 111
132 100L143 92Q156 82 161 71T167 44V-32Q167 -56 158 -81L146 -112Q138 -136 120 -155L106 -170Q91 -187 75 -187ZM271 -187T255 -187Q246 -187 236 -179Q225 -170 225 -158Q225 -146 238 -131L246 -122Q264 -102 270 -86Q277 -68 273 -68H269L251 -61Q220 -48
220 -14V43Q220 73 245 92L256 100Q272 111 284 111Q298 111 312 100L323 92Q336 82 341 71T347 44V-32Q347 -56 338 -81L326 -112Q318 -136 300 -155L286 -170Q271 -187 255 -187Z" />
<glyph unicode="&#x2022;" glyph-name="bullet" horiz-adv-x="241" d="M134 337T121 337Q110 337 93 347L86 352Q60 369 60 398Q60 426 85 444L93 450Q108 460 120 460Q133 460 149 449L156 444Q181 426 181 398Q181 370 156 352L149 347Q134 337 121 337Z" />
</font>
</defs>
</svg>
