<?xml version="1.0" standalone="no"?>
<!DOCTYPE svg PUBLIC "-//W3C//DTD SVG 1.1//EN" "http://www.w3.org/Graphics/SVG/1.1/DTD/svg11.dtd">
<svg xmlns="http://www.w3.org/2000/svg">
<defs >
<font id="YsabeauInfant" horiz-adv-x="528" ><font-face
    font-family="Ysabeau Infant"
    units-per-em="1000"
    panose-1="0 0 0 0 0 0 0 0 0 0"
    ascent="1054"
    descent="-289"
    alphabetic="0" />
<glyph unicode=" " horiz-adv-x="246" />
<glyph unicode="!" horiz-adv-x="280" d="M113 227L99 658H180L167 227H113ZM140 -5Q117 -5 103 9T88 45Q88 68 102 82T140 96Q163 96 177 82T191 45Q191 23 177 9T140 -5Z" />
<glyph unicode="&quot;" horiz-adv-x="445" d="M111 344L97 658H167L152 344H111ZM293 344L279 658H349L334 344H293Z" />
<glyph unicode="#" horiz-adv-x="627" d="M362 -41L306 -26L476 574L531 558L362 -41ZM42 119V169H538V119H42ZM151 -62L95 -47L266 553L321 537L151 -62ZM88 344V394H584V344H88Z" />
<glyph unicode="$" horiz-adv-x="521" d="M254 -10Q192 -10 139 9T51 60L93 120Q127 85 173 65T267 45Q330 45 366 76T402 159Q402 195 385 220T339 264T276 299T207 331T145 370T99 422T81 496Q81 551 107 589T180 647T284 667Q328 667 374 655T456 618L420 561Q390
585 351 599T272 613Q230 613 203 598T162 559T148 507Q148 476 165 453T211 412T274 378T343 344T405 302T451 245T469 166Q469 108 441 69T364 10T254 -10ZM248 -110V766H305V-110H248Z" />
<glyph unicode="%" horiz-adv-x="672" d="M115 -6L80 23L557 616L590 587L115 -6ZM176 343Q135 343 104 361T54 409T36 479Q36 517 54 547T103 594T175 612Q216 612 247 595T296 547T314 477Q314 439 297 409T248 361T176 343ZM176 387Q214 387 239 412T264 476Q264
516 239 542T175 568Q137 568 112 543T86 479Q86 439 111 413T176 387ZM496 265Q537 265 568 247T618 199T636 129Q636 91 618 61T569 14T497 -4Q456 -4 425 13T376 62T358 131Q358 170 375 200T424 247T496 265ZM496 221Q459 221 434 196T408 132Q408 92 433 66T497
40Q535 40 560 65T586 129Q586 169 561 195T496 221Z" />
<glyph unicode="&amp;" horiz-adv-x="688" d="M261 -6Q205 -6 163 13T97 68T73 155Q73 207 96 245T157 314T236 371T315 423T375 478T399 544Q399 579 377 598T315 617Q263 617 235 586T206 510Q206 484 217 458T249 401T301 329Q338 282 383 238T477 157T577
93T676 50L655 -5Q603 11 549 39T441 106T339 193T249 293Q196 360 168 411T140 509Q140 553 162 589T225 646T323 668Q346 668 370 663T416 646T452 611T466 552Q466 507 443 472T382 408T304 353T225 299T164 240T141 164Q141 111 178 81T277 50Q333 50 382 74T470
141T529 242T551 367H610Q610 290 583 223T508 104T397 23T261 -6Z" />
<glyph unicode="&apos;" horiz-adv-x="263" d="M111 344L97 658H167L152 344H111Z" />
<glyph unicode="(" horiz-adv-x="382" d="M316 -223Q240 -185 183 -115T94 48T62 243Q62 347 93 439T182 603T316 711L339 676Q273 635 227 571T157 424T133 243Q133 146 157 64T227 -82T339 -188L316 -223Z" />
<glyph unicode=")" horiz-adv-x="382" d="M66 -223L45 -192Q111 -149 157 -85T227 62T252 243Q252 342 228 425T157 573T45 680L66 711Q143 673 200 602T288 439T319 243Q319 140 288 48T200 -115T66 -223Z" />
<glyph unicode="*" horiz-adv-x="472" d="M290 332L234 503L116 376L66 422L209 528L53 599L81 662L225 559L245 728L313 721L260 553L428 586L443 519L264 518L348 367L290 332Z" />
<glyph unicode="+" horiz-adv-x="550" d="M44 204V256H506V204H44ZM301 0H249V459H301V0Z" />
<glyph unicode="," horiz-adv-x="279" d="M112 -184L81 -166Q104 -136 115 -99T127 -25Q127 13 117 42T87 87L147 118Q174 96 185 66T197 1Q197 -35 187 -69T158 -133T112 -184Z" />
<glyph unicode="-" horiz-adv-x="373" d="M34 200V260H339V200H34Z" />
<glyph unicode="." horiz-adv-x="255" d="M128 -5Q105 -5 91 9T76 45Q76 68 90 82T128 96Q151 96 164 82T178 45Q178 23 165 9T128 -5Z" />
<glyph unicode="/" horiz-adv-x="387" d="M92 -222L37 -209L291 711L345 697L92 -222Z" />
<glyph unicode="0" horiz-adv-x="543" d="M268 -6Q202 -6 154 35T80 150T53 324Q53 426 81 502T159 621T276 664Q341 664 389 623T463 508T490 335Q490 232 462 156T384 37T268 -6ZM275 52Q319 52 350 86T398 180T415 322Q415 408 397 471T346 570T268 606Q226
606 194 572T145 478T128 337Q128 251 146 187T198 88T275 52Z" />
<glyph unicode="1" horiz-adv-x="433" d="M229 0V600L281 602L81 470L50 523L262 658H298V0H229Z" />
<glyph unicode="2" horiz-adv-x="497" d="M50 37Q122 108 180 169T279 285T342 388T364 482Q364 538 333 572T246 606Q205 606 168 581T107 493L55 516Q89 598 143 631T260 664Q316 664 354 642T412 581T432 494Q432 427 394 354T286 201T121 32L129 60H460V0H62L50 37Z" />
<glyph unicode="3" horiz-adv-x="525" d="M403 180Q403 244 356 282T205 320V363Q265 363 303 381T359 429T378 497Q378 549 346 579T257 610Q211 610 171 585T110 505L60 522Q79 571 110 602T182 648T268 664Q322 664 362 645T426 590T449 504Q449 455 424 416T349
355T220 332V361Q305 361 361 339T446 278T474 185Q474 141 456 106T407 46T336 8T253 -5Q211 -5 171 8T96 52T42 132L97 164Q120 105 164 79T263 52Q328 52 365 86T403 180Z" />
<glyph unicode="4" horiz-adv-x="549" d="M405 658L408 0H344V609L379 610L81 195L59 226H523V170H46L23 210L348 663L405 658Z" />
<glyph unicode="5" horiz-adv-x="497" d="M89 340L115 655L426 661V598H131L173 628L151 370L89 340ZM88 111Q116 83 152 69T228 55Q297 55 337 96T378 203Q378 275 333 315T207 355Q192 355 170 353T126 348T89 340L107 394Q129 400 163 403T229 407Q332 407
389 355T446 209Q446 145 420 97T346 21T234 -6Q181 -6 137 13T56 67L88 111Z" />
<glyph unicode="6" horiz-adv-x="527" d="M305 370Q364 370 402 346T459 282T478 193Q478 135 452 90T379 20T270 -6Q203 -6 156 25T83 112T58 244Q58 311 76 371T128 482T208 571T312 634T433 666L445 610Q378 602 321 573T220 497T153 387T129 252Q129 192 147
146T198 73T280 47Q337 47 372 82T407 180Q407 220 393 250T349 299T276 318Q230 318 182 295T104 230L88 262Q112 293 144 317T217 355T305 370Z" />
<glyph unicode="7" horiz-adv-x="513" d="M199 0H124L403 617L438 596H56L62 658H483L199 0Z" />
<glyph unicode="8" horiz-adv-x="531" d="M264 -6Q208 -6 163 14T93 70T67 154Q67 219 109 269T228 357L259 330Q198 299 167 259T135 168Q135 110 175 78T275 45Q318 45 347 60T390 103T405 160Q405 198 388 224T342 271T280 309T212 344T149 383T103 434T86
504Q86 551 109 587T175 643T276 664Q356 664 404 626T453 524Q453 466 412 420T303 339L270 366Q305 384 331 405T372 452T388 509Q388 555 355 584T267 614Q215 614 184 587T152 513Q152 480 169 457T215 415T278 380T346 345T409 304T455 249T473 173Q473 121
447 81T374 17T264 -6Z" />
<glyph unicode="9" horiz-adv-x="527" d="M222 288Q164 288 126 312T68 376T49 465Q49 524 75 568T148 638T257 664Q325 664 372 633T444 546T469 414Q469 347 451 287T399 176T319 87T216 24T94 -8L82 48Q135 54 182 74T269 126T338 201T382 296T398 406Q398
467 380 513T329 585T247 611Q190 611 155 576T120 478Q120 439 134 408T178 359T251 340Q298 340 345 363T423 428L439 396Q415 366 383 342T310 303T222 288Z" />
<glyph unicode=":" horiz-adv-x="255" d="M128 -5Q105 -5 91 9T76 45Q76 68 90 82T128 96Q151 96 164 82T178 45Q178 23 165 9T128 -5ZM128 284Q105 284 91 298T76 334Q76 357 90 371T128 385Q151 385 164 371T178 334Q178 312 165 298T128 284Z" />
<glyph unicode=";" horiz-adv-x="282" d="M114 -184L83 -166Q106 -136 118 -99T130 -25Q130 13 120 42T90 87L150 118Q177 96 188 66T199 1Q199 -35 189 -69T160 -133T114 -184ZM141 279Q118 279 104 293T89 329Q89 352 103 366T141 380Q163 380 177 366T191 329Q191
307 177 293T141 279Z" />
<glyph unicode="&lt;" horiz-adv-x="537" d="M473 14L55 209V252L473 447V390L91 218V243L473 70V14Z" />
<glyph unicode="=" horiz-adv-x="550" d="M44 370V422H506V370H44ZM44 294V346H506V294H44Z" />
<glyph unicode="&gt;" horiz-adv-x="537" d="M482 252V209L63 14V70L446 243V218L63 390V447L482 252Z" />
<glyph unicode="?" horiz-adv-x="365" d="M141 222Q135 243 131 271T126 319Q126 350 140 370T176 404T218 431T254 463T269 507Q269 532 250 552T192 584T91 594V661Q165 661 218 641T301 585T331 500Q331 461 316 438T279 399T235 370T197 339T182 294Q182 281
184 264T191 230L141 222ZM184 -5Q161 -5 147 9T132 45Q132 68 146 81T184 95Q207 95 221 82T235 45Q235 23 221 9T184 -5Z" />
<glyph unicode="@" horiz-adv-x="878" d="M368 29Q313 29 282 65T251 164Q251 212 268 255T315 332T383 385T464 405Q547 405 597 318L552 281Q536 322 512 342T454 363Q415 363 384 338T334 270T316 177Q316 134 335 107T396 80Q418 80 442 89T490 119T532 178L546
174Q532 124 504 92T441 45T368 29ZM466 603Q544 603 608 579T720 511T793 408T819 276Q819 222 804 177T761 99T698 47T620 29Q591 29 566 45T528 94T525 180L549 325L576 406H620L580 173Q572 127 586 104T636 80Q668 80 691 98T730 146T754 208T762 272Q762
356 725 418T621 514T467 549Q390 549 326 522T215 448T143 336T117 194Q117 103 156 32T272 -81T458 -123Q507 -123 559 -114T660 -85L680 -130Q626 -152 571 -164T455 -177Q365 -177 292 -149T167 -71T87 47T59 195Q59 281 89 355T173 485T302 572T466 603Z"
/>
<glyph unicode="A" horiz-adv-x="681" d="M559 0L324 617H352L118 0H43L314 658H377L638 0H559ZM162 226L183 285H479L511 226H162Z" />
<glyph unicode="B" horiz-adv-x="584" d="M292 322L303 364Q372 364 424 342T505 281T534 186Q534 131 505 90T423 24T296 0H109V658H292Q354 658 398 639T466 585T491 500Q491 463 476 431T434 374T371 336T292 322ZM155 369H299Q354 369 388 401T423 487Q423
538 390 571T280 604H179V54H307Q381 54 421 90T461 186Q461 247 418 282T287 317H155V369Z" />
<glyph unicode="C" horiz-adv-x="653" d="M395 -9Q295 -9 219 32T100 148T57 322Q57 400 83 463T156 572T267 642T406 667Q461 667 512 653T608 612L573 547Q530 579 486 595T390 612Q313 612 256 577T168 480T136 334Q136 247 171 182T267 81T401 45Q457 45 503
64T586 116L618 58Q568 25 513 8T395 -9Z" />
<glyph unicode="D" horiz-adv-x="739" d="M109 0V658H313Q396 658 464 636T581 572T656 471T682 339Q682 276 661 215T595 106T479 29T311 0H109ZM183 54H317Q395 54 449 76T538 136T588 223T604 327Q604 403 572 465T472 565T302 603H183V54Z" />
<glyph unicode="E" horiz-adv-x="579" d="M524 0H109V658H493V599H181V59H524V0ZM134 305V362H455V305H134Z" />
<glyph unicode="F" horiz-adv-x="541" d="M109 0V658H495V599H183V0H109ZM134 282V341H457V282H134Z" />
<glyph unicode="G" horiz-adv-x="721" d="M419 -9Q310 -9 229 32T102 148T57 321Q57 396 83 459T159 569T275 641T423 667Q483 667 540 651T641 601L608 535Q562 577 511 594T408 612Q324 612 264 576T170 477T136 332Q136 247 173 183T277 82T431 45Q479 45 525
56T612 92L575 46V250H426V305H644V46Q612 28 575 16T498 -3T419 -9Z" />
<glyph unicode="H" horiz-adv-x="766" d="M583 0V658H657V0H583ZM109 0V658H183V0H109ZM134 304V364H633V304H134Z" />
<glyph unicode="I" horiz-adv-x="309" d="M116 0V658H193V0H116Z" />
<glyph unicode="J" horiz-adv-x="317" d="M131 47V658H205V47Q205 -11 192 -53T153 -124T93 -173T16 -204L-3 -161Q40 -145 70 -120T115 -55T131 47Z" />
<glyph unicode="K" horiz-adv-x="615" d="M497 0L169 336L465 658H558L231 325L237 361L606 0H497ZM109 0V658H181V0H109Z" />
<glyph unicode="L" horiz-adv-x="549" d="M109 0V658H183V0H109ZM134 0V59H525V0H134Z" />
<glyph unicode="M" horiz-adv-x="915" d="M747 0L719 624L753 636L478 56H433L168 607L169 658H221L477 130H454L704 658H782L821 0H747ZM94 0L137 658H191L162 0H94Z" />
<glyph unicode="N" horiz-adv-x="773" d="M109 0V658H166L176 0H109ZM633 0H602L134 609L135 658H184L631 81L633 0ZM664 658V0H606L597 658H664Z" />
<glyph unicode="O" horiz-adv-x="791" d="M390 -9Q294 -9 219 34T100 153T57 326Q57 402 83 465T157 573T267 642T402 667Q498 667 573 624T691 506T734 332Q734 256 708 193T634 85T525 16T390 -9ZM403 45Q478 45 535 80T623 177T655 321Q655 409 620 474T525
576T388 613Q315 613 259 578T170 481T138 337Q138 250 173 184T268 82T403 45Z" />
<glyph unicode="P" horiz-adv-x="583" d="M264 233Q248 233 217 235T155 243V298Q190 294 219 292T272 290Q334 290 375 309T438 364T459 449Q459 524 410 563T278 602H182V0H109V658H290Q363 658 417 636T503 570T534 465Q534 417 515 375T461 301T376 251T264 233Z" />
<glyph unicode="Q" horiz-adv-x="791" d="M390 -9Q294 -9 219 34T100 153T57 326Q57 402 83 465T157 573T267 642T402 667Q498 667 573 624T691 506T734 332Q734 256 708 193T634 85T525 16T390 -9ZM403 45Q478 45 535 80T623 177T655 321Q655 409 620 474T525
576T388 613Q315 613 259 578T170 481T138 337Q138 250 173 184T268 82T403 45ZM452 28Q482 -13 516 -42T586 -87T663 -103Q676 -103 694 -100T732 -87L753 -133Q722 -149 694 -153T648 -158Q575 -158 511 -118T394 0L452 28Z" />
<glyph unicode="R" horiz-adv-x="676" d="M109 0V658H287Q355 658 404 638T481 581T508 492Q508 450 489 412T436 345T361 298T271 281H137V335H280Q321 335 355 355T411 408T433 480Q433 537 394 570T281 603H181V0H109ZM611 -9Q571 -9 540 3T479 44T415 121L288
301L347 322L485 147Q517 107 542 85T589 53T635 44Q644 44 657 45T683 50L698 7Q673 -2 652 -5T611 -9Z" />
<glyph unicode="S" horiz-adv-x="522" d="M397 159Q397 195 380 220T335 263T272 297T204 330T142 368T96 418T79 490Q79 545 105 584T177 645T282 667Q324 667 368 657T446 625L419 559Q389 584 349 598T269 612Q228 612 201 597T160 559T147 507Q147 476 164
454T210 414T273 382T341 349T403 308T449 253T467 177Q467 118 439 76T363 12T252 -10Q190 -10 137 8T48 58L85 119Q121 85 169 66T266 47Q328 47 362 77T397 159Z" />
<glyph unicode="T" horiz-adv-x="628" d="M276 0V658H352V0H276ZM27 599V658H601V599H27Z" />
<glyph unicode="U" horiz-adv-x="730" d="M362 -9Q282 -9 222 24T128 117T94 259V658H168V274Q168 205 193 155T265 78T375 51Q437 51 481 76T550 149T574 257V658H639V273Q639 188 605 125T508 26T362 -9Z" />
<glyph unicode="V" horiz-adv-x="685" d="M304 0L42 658H126L373 18H327L569 658H643L375 0H304Z" />
<glyph unicode="W" horiz-adv-x="989" d="M674 0L465 658H537L740 18H696L872 658H943L747 0H674ZM242 0L47 658H125L305 18H263L460 658H519L315 0H242Z" />
<glyph unicode="X" horiz-adv-x="631" d="M34 0L275 330L45 658H136L322 386L505 658H588L358 338L600 0H509L310 282L118 0H34Z" />
<glyph unicode="Y" horiz-adv-x="632" d="M293 248L27 658H118L342 292L293 248ZM278 0V293H353V0H278ZM340 251L299 292L526 658H605L340 251Z" />
<glyph unicode="Z" horiz-adv-x="614" d="M57 0L55 49L508 652L539 602L72 599V658H561L562 610L109 6L80 56L573 59V0H57Z" />
<glyph unicode="[" horiz-adv-x="352" d="M99 -222V711H162V-222H99ZM99 -222V-172H319V-222H99ZM99 661V711H319V661H99Z" />
<glyph unicode="\" horiz-adv-x="387" d="M296 -222L42 697L96 711L351 -209L296 -222Z" />
<glyph unicode="]" horiz-adv-x="351" d="M253 -222H192V711H253V-222ZM253 -222H32V-174H253V-222ZM253 663H32V711H253V663Z" />
<glyph unicode="^" horiz-adv-x="428" d="M83 420L37 458L214 665L391 458L345 420L214 582L83 420Z" />
<glyph unicode="_" horiz-adv-x="550" d="M44 -124V-72H506V-124H44Z" />
<glyph unicode="`" horiz-adv-x="263" d="M167 509L38 706H115L218 509H167Z" />
<glyph unicode="a" horiz-adv-x="529" d="M234 -6Q176 -6 133 20T66 93T42 197Q42 261 70 312T147 392T255 421Q291 421 320 410T373 376T410 319L391 288Q371 329 339 350T264 371Q221 371 187 350T134 292T115 204Q115 158 131 122T178 64T250 43Q287 43 324
62T389 130L417 113Q395 73 368 47T307 7T234 -6ZM395 -6L384 87V322L395 408L452 420V6L395 -6Z" />
<glyph unicode="b" horiz-adv-x="527" d="M249 -6Q199 -6 153 7T83 45L150 81Q170 61 202 51T269 40Q316 40 348 61T396 119T412 201Q412 253 395 290T348 348T277 368Q240 368 200 345T133 272L109 304Q132 339 161 365T226 405T302 420Q341 420 374 407T432
367T471 305T485 221Q485 161 459 109T380 26T249 -6ZM83 45V705L150 717V81L83 45Z" />
<glyph unicode="c" horiz-adv-x="437" d="M252 -8Q191 -8 144 18T70 92T42 201Q42 265 71 315T150 394T263 423Q306 423 340 409T401 371L372 318Q347 344 318 358T255 372Q212 372 180 350T132 291T115 208Q115 159 135 122T190 65T270 45Q301 45 331 57T385
93L408 54Q385 32 359 18T306 -2T252 -8Z" />
<glyph unicode="d" horiz-adv-x="530" d="M234 -6Q177 -6 134 20T67 93T43 197Q43 261 71 312T147 392T255 421Q289 421 318 410T372 378T410 326L391 296Q371 334 338 352T265 371Q221 371 188 350T135 292T116 204Q116 158 132 122T179 64T250 43Q287 43 324
62T389 130L417 113Q395 73 368 47T307 7T234 -6ZM396 -6L385 87V704L452 717V6L396 -6Z" />
<glyph unicode="e" horiz-adv-x="456" d="M247 -9Q188 -9 143 15T73 85T47 193Q47 262 75 313T152 393T262 422Q336 422 373 380T410 265Q410 257 410 248T408 230H349V265Q349 319 327 346T258 374Q214 374 181 353T130 293T112 202Q112 130 153 88T260 45Q294
45 325 57T385 96L410 59Q383 34 356 19T301 -2T247 -9ZM85 230L94 273H399V230H85Z" />
<glyph unicode="f" horiz-adv-x="349" d="M114 0V428Q114 522 143 584T224 679T345 711Q376 711 404 703T456 679L427 628Q406 643 380 652T324 662Q278 662 250 641T208 587T188 517T182 446V0H114ZM29 358L34 403L347 407L342 357L29 358Z" />
<glyph unicode="g" horiz-adv-x="529" d="M240 -289Q206 -289 173 -280T110 -252T55 -204L100 -155Q134 -197 177 -217T259 -238Q293 -238 321 -222T366 -169T384 -74V329L395 409L452 420V-72Q452 -147 421 -195T342 -266T240 -289ZM233 -7Q175 -7 132 19T66
92T42 198Q42 262 70 312T147 392T254 421Q291 421 321 409T373 373T410 314L391 291Q371 331 338 351T264 372Q221 372 187 351T134 292T115 205Q115 158 131 121T178 62T250 40Q287 40 324 59T390 127L415 112Q393 72 366 46T306 7T233 -7Z" />
<glyph unicode="h" horiz-adv-x="535" d="M386 0V240Q386 301 359 334T282 368Q256 368 228 358T174 325T131 268L107 291Q130 336 163 364T235 406T310 420Q374 420 414 379T454 263V0H386ZM84 0V704L151 717V0H84Z" />
<glyph unicode="i" horiz-adv-x="260" d="M96 0V409L164 420V0H96ZM130 536Q109 536 96 549T82 583Q82 604 95 617T130 630Q152 630 165 617T178 583Q178 562 165 549T130 536Z" />
<glyph unicode="j" horiz-adv-x="260" d="M96 -11V409L164 420V-11Q164 -128 127 -196T13 -289L-3 -256Q47 -231 71 -172T96 -11ZM130 536Q109 536 96 549T82 583Q82 604 95 617T130 630Q152 630 165 617T178 583Q178 562 165 549T130 536Z" />
<glyph unicode="k" horiz-adv-x="451" d="M350 0L158 201H140V220L339 414H429V412L183 201L191 248L446 2V0H350ZM83 0V705L150 717V0H83Z" />
<glyph unicode="l" horiz-adv-x="271" d="M171 -4Q126 -4 107 16T88 84V705L156 716V97Q156 69 166 55T201 41Q209 41 218 42T238 47L249 14Q230 7 212 2T171 -4Z" />
<glyph unicode="m" horiz-adv-x="795" d="M649 0V246Q649 304 626 336T556 368Q520 368 481 344T416 268L392 291Q414 335 445 363T512 406T584 420Q644 420 681 379T718 263V0H649ZM365 0V246Q365 304 341 336T271 368Q246 368 220 358T170 325T128 268L105 291Q127
335 158 363T227 406T299 420Q360 420 397 379T434 263V0H365ZM78 0V408L134 420L146 323V0H78Z" />
<glyph unicode="n" horiz-adv-x="530" d="M384 0V240Q384 301 357 334T280 368Q254 368 226 358T172 325T128 268L105 291Q128 336 161 364T233 406T307 420Q351 420 383 402T434 348T452 263V0H384ZM78 0V408L134 420L146 321V0H78Z" />
<glyph unicode="o" horiz-adv-x="519" d="M253 -8Q192 -8 145 19T70 93T42 202Q42 266 71 316T152 394T267 423Q328 423 375 396T450 322T478 213Q478 149 449 99T369 21T253 -8ZM262 40Q307 40 339 62T388 123T405 206Q405 258 386 295T333 353T258 374Q214 374
182 353T132 294T115 210Q115 158 134 120T187 61T262 40Z" />
<glyph unicode="p" d="M272 -6Q221 -6 181 17T119 88L137 116Q158 80 190 62T264 43Q308 43 341 64T394 122T413 210Q413 255 397 291T351 348T278 369Q242 369 204 350T139 282L111 302Q145 361 190 390T295 419Q353 419 396 393T462 322T486 217Q486 154 458
104T382 24T272 -6ZM78 -289V408L133 420L145 328V-278L78 -289Z" />
<glyph unicode="q" horiz-adv-x="523" d="M276 420Q310 420 343 417T403 407T445 390L377 351Q359 362 326 367T264 372Q213 372 180 351T129 293T112 209Q112 159 130 123T179 66T250 46Q294 46 332 71T395 140L419 114Q397 80 368 53T304 10T228 -5Q190 -5 156
9T96 49T54 112T39 196Q39 256 66 307T145 389T276 420ZM445 390V-278L377 -289V351L445 390Z" />
<glyph unicode="r" horiz-adv-x="373" d="M78 0V409L134 420L146 315V0H78ZM134 260L117 285Q150 348 192 383T287 419Q308 419 327 414T360 397L331 340Q320 349 303 354T267 359Q228 359 196 334T134 260Z" />
<glyph unicode="s" horiz-adv-x="378" d="M182 -9Q152 -9 125 -4T75 11T37 31L57 87Q81 65 116 52T185 38Q226 38 249 58T273 107Q273 132 258 147T218 173T166 192T115 215T74 250T58 306Q58 345 78 371T130 410T202 423Q232 423 263 416T318 393L298 340Q279
359 250 368T198 378Q161 378 141 361T120 319Q120 296 136 281T176 257T228 237T280 214T321 178T337 120Q337 94 327 71T296 29T247 1T182 -9Z" />
<glyph unicode="t" horiz-adv-x="380" d="M234 -7Q198 -7 169 8T124 51T108 120V394L131 502L177 511V131Q177 88 197 66T252 44Q274 44 296 52T339 77L359 44Q331 18 299 6T234 -7ZM337 357L24 358L29 403L340 407L337 357Z" />
<glyph unicode="u" horiz-adv-x="522" d="M219 -5Q157 -5 118 36T78 151V408L146 420V173Q146 114 172 80T247 46Q273 46 300 56T351 89T392 147L417 124Q395 80 363 52T293 9T219 -5ZM387 -6L375 96V408L444 420V6L387 -6Z" />
<glyph unicode="v" horiz-adv-x="452" d="M195 0L26 414H102L251 21L216 20L357 414H427L256 0H195Z" />
<glyph unicode="w" horiz-adv-x="727" d="M173 0L26 414H100L219 45H199L335 414H397L541 45L522 44L630 414H702L555 0H493L351 358H368L234 0H173Z" />
<glyph unicode="x" horiz-adv-x="446" d="M21 0L188 213L35 414H120L230 258L341 414H416L262 216L425 0H340L220 172L98 0H21Z" />
<glyph unicode="y" horiz-adv-x="527" d="M245 -289Q213 -289 182 -281T124 -254T75 -209L120 -159Q151 -199 189 -218T264 -238Q295 -238 322 -223T365 -174T382 -83V409L450 420V-81Q450 -153 420 -199T342 -267T245 -289ZM220 -5Q158 -5 118 36T78 151V408L146
420V173Q146 114 173 80T248 46Q275 46 302 56T354 89T395 147L420 124Q398 80 366 52T296 9T220 -5Z" />
<glyph unicode="z" horiz-adv-x="423" d="M35 26L312 388L348 365L53 361L56 407H380L386 386L108 17L75 43L393 47L390 0H42L35 26Z" />
<glyph unicode="{" horiz-adv-x="409" d="M376 -222Q263 -222 205 -168T146 -10V106Q146 164 118 193T33 223V266Q89 266 117 295T146 383V499Q146 603 204 657T376 711V664Q294 664 253 622T211 499V383Q211 317 181 279T79 231V258Q151 248 181 210T211 104V-10Q211
-90 252 -132T376 -175V-222Z" />
<glyph unicode="|" horiz-adv-x="389" d="M166 -222V711H223V-222H166Z" />
<glyph unicode="}" horiz-adv-x="409" d="M32 -222V-179Q117 -179 159 -134T201 -4V104Q201 171 230 208T330 257V232Q260 242 231 279T201 383V493Q201 578 159 623T32 668V711Q146 711 204 656T262 493V383Q262 325 291 296T376 266V223Q320 223 291 194T262
106V-4Q262 -111 204 -166T32 -222Z" />
<glyph unicode="~" horiz-adv-x="550" d="M376 161Q342 161 315 174T265 204T219 234T169 247Q140 247 120 227T89 167L44 177Q53 215 71 242T115 284T174 299Q207 299 234 286T284 256T330 225T381 212Q410 212 431 232T461 292L506 283Q498 244 480 217T435
176T376 161Z" />
<glyph unicode="&#xa0;" horiz-adv-x="246" />
<glyph unicode="&#xa1;" horiz-adv-x="269" d="M155 236L169 -195H88L101 236H155ZM128 468Q151 468 165 455T180 418Q180 396 166 382T128 367Q106 367 92 381T77 418Q77 441 91 454T128 468Z" />
<glyph unicode="&#xa2;" horiz-adv-x="494" d="M297 -6Q224 -6 168 25T81 109T50 228Q50 297 82 352T171 440T300 472Q346 472 386 458T459 418L416 371Q392 396 361 409T294 422Q244 422 204 399T141 333T118 234Q118 179 141 137T206 72T305 48Q343 48 374 59T427
91L461 46Q429 21 388 8T297 -6ZM257 -100V566H309V-100H257Z" />
<glyph unicode="&#xa3;" horiz-adv-x="588" d="M128 53L163 441Q173 547 230 607T381 667Q426 667 458 654T518 618L478 563Q457 587 428 600T368 614Q328 614 300 593T256 534T234 441L198 53H128ZM83 -19L36 -5Q48 27 66 50T110 86T167 99Q197 99 229 92T295
75T361 58T425 51Q460 51 484 67T521 110L554 91Q538 46 504 16T419 -14Q387 -14 355 -6T292 14T229 33T168 42Q137 42 116 27T83 -19ZM62 299L67 350L432 356L426 299H62Z" />
<glyph unicode="&#xa4;" horiz-adv-x="560" d="M282 160Q231 160 192 182T129 242T106 330Q106 378 128 416T190 476T281 498Q332 498 371 476T433 415T456 328Q456 279 434 241T372 182T282 160ZM71 96L35 131L161 250L195 214L71 96ZM162 408L35 528L71 562L195
445L162 408ZM282 213Q314 213 340 227T380 268T395 328Q395 361 380 387T339 429T281 445Q248 445 222 430T181 389T166 330Q166 296 181 270T223 228T282 213ZM489 96L364 214L400 249L525 131L489 96ZM402 411L367 447L489 562L525 528L402 411Z" />
<glyph unicode="&#xa5;" horiz-adv-x="632" d="M292 273L27 658H110L339 303L292 273ZM282 0V315H352V0H282ZM90 119V167H542V119H90ZM90 247V294H542V247H90ZM339 270L295 303L519 658H605L339 270Z" />
<glyph unicode="&#xa6;" horiz-adv-x="389" d="M166 311V711H224V311H166ZM166 -289V111H224V-289H166Z" />
<glyph unicode="&#xa7;" horiz-adv-x="503" d="M351 -78L331 -45Q368 -6 379 32T390 97Q390 145 372 184T324 259T263 326T201 390T154 456T135 529Q135 569 153 597T203 642T272 658Q307 658 339 644T397 598L368 551Q345 580 318 594T264 608Q234 608 213 590T192
539Q192 509 210 480T259 421T321 359T384 290T433 210T452 116Q452 65 428 18T351 -78ZM231 -195Q196 -195 164 -181T105 -136L135 -88Q157 -118 184 -132T238 -146Q269 -146 290 -127T311 -76Q311 -46 292 -18T243 41T181 103T118 173T70 252T51 346Q51 398 74
445T151 541L171 508Q134 469 123 431T112 365Q112 317 130 278T178 203T239 136T301 73T349 7T367 -66Q367 -106 349 -135T300 -179T231 -195Z" />
<glyph unicode="&#xa8;" horiz-adv-x="342" d="M76 518Q56 518 43 530T30 562Q30 582 43 594T76 607Q96 607 108 595T121 562Q121 542 109 530T76 518ZM267 518Q247 518 234 530T221 562Q221 582 234 594T267 607Q287 607 299 595T312 562Q312 542 300 530T267 518Z" />
<glyph unicode="&#xa9;" horiz-adv-x="772" d="M385 -94Q314 -94 252 -69T143 2T71 106T45 233Q45 301 70 361T142 466T251 538T386 564Q459 564 521 538T629 466T701 360T727 233Q727 165 701 106T629 2T520 -68T385 -94ZM386 -46Q447 -46 499 -25T591 35T653
125T675 234Q675 292 653 343T592 432T500 493T386 515Q324 515 272 493T180 433T119 343T97 234Q97 175 119 124T180 35T272 -24T386 -46ZM390 57Q340 57 301 79T239 141T216 231Q216 282 240 322T306 386T400 410Q436 410 465 399T519 366L486 329Q466 348 443
358T393 369Q357 369 330 351T289 303T275 237Q275 196 291 165T336 117T400 100Q456 100 497 139L524 112Q495 82 460 70T390 57Z" />
<glyph unicode="&#xaa;" horiz-adv-x="406" d="M323 303Q289 303 271 325T253 393L256 554Q257 590 243 606T202 622Q185 622 165 613T129 586T110 541L55 547Q59 581 83 607T142 649T215 665Q261 665 284 638T307 561L305 383Q303 344 332 344Q341 344 351 349T369
365L394 341Q384 324 365 314T323 303ZM131 303Q94 303 71 324T47 380Q47 399 56 416T85 447T143 471L284 514L288 479L158 437Q126 425 115 413T104 386Q104 368 117 357T151 346Q177 346 210 364T285 410L286 380Q246 344 209 324T131 303Z" />
<glyph unicode="&#xab;" horiz-adv-x="533" d="M235 33L41 211L235 389L272 360L129 206V216L272 63L235 33ZM443 33L249 211L443 389L480 360L337 206V216L480 63L443 33Z" />
<glyph unicode="&#xac;" horiz-adv-x="550" d="M44 274V326H506V274H44ZM506 85H454V301H506V85Z" />
<glyph unicode="&#xae;" horiz-adv-x="562" d="M280 226Q212 226 157 258T69 345T37 468Q37 537 69 592T156 679T280 711Q350 711 405 679T492 592T525 468Q525 399 493 345T405 258T280 226ZM281 263Q339 263 386 290T459 364T486 468Q486 526 459 572T386 646T281
674Q224 674 177 647T103 573T75 468Q75 411 102 365T176 291T281 263ZM193 337V600H278Q322 600 346 582T371 529Q371 494 343 471T267 447H195V475H267Q298 475 317 490T336 529Q336 550 321 561T278 572H228V337H193ZM353 337L271 462L303 464L395 337H353Z"
/>
<glyph unicode="&#xaf;" horiz-adv-x="363" d="M49 519V569H314V519H49Z" />
<glyph unicode="&#xb0;" horiz-adv-x="349" d="M176 388Q135 388 103 406T52 455T33 526Q33 566 51 596T102 645T175 663Q216 663 248 645T299 595T317 524Q317 485 299 454T249 406T176 388ZM176 435Q214 435 238 460T262 524Q262 564 238 589T175 615Q138 615
113 590T88 526Q88 487 112 461T176 435Z" />
<glyph unicode="&#xb1;" horiz-adv-x="550" d="M44 0V52H506V0H44ZM44 303V355H506V303H44ZM301 99H249V558H301V99Z" />
<glyph unicode="&#xb2;" horiz-adv-x="333" d="M37 444Q91 488 135 523T206 591T233 657Q233 685 215 701T170 717Q138 717 116 696T93 641H43Q43 679 60 706T106 747T172 762Q224 762 254 733T285 659Q285 618 259 583T188 510T83 426L101 452H302V406H49L37 444Z" />
<glyph unicode="&#xb3;" horiz-adv-x="312" d="M138 573V594Q181 594 213 583T265 552T284 502Q284 476 268 453T223 414T153 399Q108 399 74 418T23 470L60 494Q74 470 98 457T153 444Q186 444 210 459T235 503Q235 532 205 547T108 562V601Q164 601 192 618T221
664Q221 691 200 704T151 717Q118 717 96 701T65 661L26 680Q40 716 73 739T158 762Q214 762 242 736T270 673Q270 643 252 621T204 586T138 573Z" />
<glyph unicode="&#xb4;" horiz-adv-x="268" d="M306 509L408 706H486L357 509H306Z" />
<glyph unicode="&#xb5;" horiz-adv-x="543" d="M92 -289Q81 -114 80 60T78 409L146 420V174Q146 114 173 80T251 46Q276 46 303 56T355 87T392 144L411 128Q393 84 366 54T306 10T239 -5Q204 -5 174 11T127 64L138 74Q138 -11 144 -100T163 -278L92 -289ZM443
-5Q419 -5 403 5T379 34T370 80V409L438 420V91Q438 68 446 56T471 44Q482 44 494 51T515 71L530 43Q518 21 495 8T443 -5Z" />
<glyph unicode="&#xb6;" horiz-adv-x="652" d="M306 -213L288 -169Q341 -152 376 -125T427 -53T444 62V148H337Q251 148 187 180T88 272T52 411Q52 486 91 541T200 627T363 658H626V599H518V62Q518 -2 504 -48T463 -127T396 -179T306 -213Z" />
<glyph unicode="&#xb7;" horiz-adv-x="255" d="M128 165Q105 165 91 179T76 215Q76 238 90 252T128 266Q151 266 164 252T178 215Q178 193 165 179T128 165Z" />
<glyph unicode="&#xb8;" horiz-adv-x="249" d="M92 0H142L111 -85L75 -75Q85 -71 98 -69T126 -67Q175 -67 205 -91T235 -153Q235 -194 200 -218T113 -243Q84 -243 62 -235T20 -210L35 -181Q49 -191 67 -197T105 -204Q136 -204 153 -188T170 -152Q170 -131 151
-116T95 -101Q88 -101 76 -102T53 -105L92 0Z" />
<glyph unicode="&#xb9;" horiz-adv-x="295" d="M167 406V713L203 719L55 619L28 661L184 756H219V406H167Z" />
<glyph unicode="&#xba;" horiz-adv-x="430" d="M210 302Q160 302 121 325T59 388T36 479Q36 533 60 574T126 640T221 664Q271 664 310 641T372 579T394 489Q394 435 370 393T305 327T210 302ZM218 345Q254 345 279 364T319 414T333 483Q333 525 318 556T275 604T214
622Q178 622 152 604T112 555T97 486Q97 443 113 412T156 363T218 345Z" />
<glyph unicode="&#xbb;" horiz-adv-x="533" d="M296 391L491 211L296 31L260 54L412 216V206L260 367L296 391ZM88 391L283 211L88 31L52 54L204 216V206L52 367L88 391Z" />
<glyph unicode="&#xbc;" horiz-adv-x="751" d="M167 309V616L203 622L55 522L28 564L184 659H219V309H167ZM242 -7L201 11L503 666L542 646L242 -7ZM449 115L618 349H675V0H631V332H654L497 112L473 126H732V85H463L449 115Z" />
<glyph unicode="&#xbd;" horiz-adv-x="766" d="M167 309V616L203 622L55 522L28 564L184 659H219V309H167ZM242 -7L201 11L503 666L542 646L242 -7ZM469 38Q523 82 567 117T638 185T665 251Q665 279 647 295T602 311Q570 311 548 290T525 235H475Q475 273 492
300T538 341T604 356Q656 356 686 327T717 253Q717 212 691 177T620 104T515 20L533 46H734V0H481L469 38Z" />
<glyph unicode="&#xbe;" horiz-adv-x="768" d="M138 476V497Q181 497 213 486T265 455T284 405Q284 379 268 356T223 317T153 302Q108 302 74 321T23 373L60 397Q74 373 98 360T153 347Q186 347 210 362T235 406Q235 435 205 450T108 465V504Q164 504 192 521T221
567Q221 594 200 607T151 620Q118 620 96 604T65 564L26 583Q40 619 73 642T158 665Q214 665 242 639T270 576Q270 546 252 524T204 489T138 476ZM259 -7L218 11L520 666L559 646L259 -7ZM466 115L635 349H692V0H648V332H671L514 112L490 126H749V85H480L466 115Z"
/>
<glyph unicode="&#xbf;" horiz-adv-x="365" d="M223 241Q230 220 234 192T239 144Q239 111 225 91T190 57T147 31T111 3T96 -41Q96 -67 115 -87T173 -120T273 -129V-198Q200 -198 147 -178T64 -122T34 -37Q34 3 49 27T86 66T131 95T168 124T183 169Q183 181 181
198T174 233L223 241ZM184 468Q207 468 221 455T235 418Q235 396 221 382T184 367Q161 367 147 381T133 418Q133 441 147 454T184 468Z" />
<glyph unicode="&#xc0;" horiz-adv-x="681" d="M559 0L324 617H352L118 0H43L314 658H377L638 0H559ZM162 226L183 285H479L511 226H162ZM329 735L221 907H303L384 735H329Z" />
<glyph unicode="&#xc1;" horiz-adv-x="681" d="M559 0L324 617H352L118 0H43L314 658H377L638 0H559ZM162 226L183 285H479L511 226H162ZM303 735L384 907H466L358 735H303Z" />
<glyph unicode="&#xc2;" horiz-adv-x="681" d="M559 0L324 617H352L118 0H43L314 658H377L638 0H559ZM162 226L183 285H479L511 226H162ZM442 735L331 864L318 907H367L497 735H442ZM189 735L318 907H367L355 865L243 735H189Z" />
<glyph unicode="&#xc3;" horiz-adv-x="681" d="M559 0L324 617H352L118 0H43L314 658H377L638 0H559ZM162 226L183 285H479L511 226H162ZM213 721L176 731Q185 758 201 779T238 811T281 823Q299 823 321 819T367 810T410 805Q433 805 451 819T478 858L516 849Q502
804 473 778T409 751Q388 751 366 755T322 764T281 769Q259 769 241 757T213 721Z" />
<glyph unicode="&#xc4;" horiz-adv-x="681" d="M559 0L324 617H352L118 0H43L314 658H377L638 0H559ZM162 226L183 285H479L511 226H162ZM247 740Q227 740 215 752T202 784Q202 804 214 816T247 829Q267 829 280 817T293 784Q293 765 280 753T247 740ZM439 740Q419
740 406 752T393 784Q393 804 406 816T439 829Q459 829 471 817T484 784Q484 765 472 753T439 740Z" />
<glyph unicode="&#xc5;" horiz-adv-x="681" d="M559 0L324 617H352L118 0H43L314 658H377L638 0H559ZM162 226L183 285H479L511 226H162ZM343 693Q297 693 266 719T235 785Q235 824 266 849T345 874Q391 874 421 849T451 783Q451 744 421 719T343 693ZM344 732Q365
732 378 746T392 783Q392 806 379 820T343 835Q322 835 309 822T295 785Q295 762 309 747T344 732Z" />
<glyph unicode="&#xc6;" horiz-adv-x="868" d="M-2 0L396 658H458L83 0H-2ZM182 222L214 281H467V222H182ZM467 304V362H753V304H467ZM432 0V658H791V599H499V59H821V0H432Z" />
<glyph unicode="&#xc7;" horiz-adv-x="653" d="M395 -9Q295 -9 219 32T100 148T57 322Q57 400 83 463T156 572T267 642T406 667Q461 667 512 653T608 612L573 547Q530 579 486 595T390 612Q313 612 256 577T168 480T136 334Q136 247 171 182T267 81T401 45Q457
45 503 64T586 116L618 58Q568 25 513 8T395 -9ZM362 0H412L378 -93L342 -82Q351 -77 364 -75T392 -72Q441 -72 474 -98T508 -170Q508 -214 472 -241T378 -268Q348 -268 324 -260T279 -236L298 -195Q313 -207 333 -214T375 -221Q408 -221 424 -205T441 -169Q441
-146 420 -131T361 -115Q353 -115 342 -116T320 -120L362 0Z" />
<glyph unicode="&#xc8;" horiz-adv-x="579" d="M524 0H109V658H493V599H181V59H524V0ZM134 305V362H455V305H134ZM300 735L192 907H274L355 735H300Z" />
<glyph unicode="&#xc9;" horiz-adv-x="579" d="M524 0H109V658H493V599H181V59H524V0ZM134 305V362H455V305H134ZM275 735L356 907H438L330 735H275Z" />
<glyph unicode="&#xca;" horiz-adv-x="579" d="M524 0H109V658H493V599H181V59H524V0ZM134 305V362H455V305H134ZM414 735L303 864L290 907H339L469 735H414ZM161 735L290 907H339L327 865L215 735H161Z" />
<glyph unicode="&#xcb;" horiz-adv-x="579" d="M524 0H109V658H493V599H181V59H524V0ZM134 305V362H455V305H134ZM218 740Q198 740 186 752T173 784Q173 804 185 816T218 829Q238 829 251 817T264 784Q264 765 251 753T218 740ZM410 740Q390 740 377 752T364 784Q364
804 377 816T410 829Q430 829 442 817T455 784Q455 765 443 753T410 740Z" />
<glyph unicode="&#xcc;" horiz-adv-x="309" d="M116 0V658H193V0H116ZM373 735L265 907H347L428 735H373Z" />
<glyph unicode="&#xcd;" horiz-adv-x="309" d="M116 0V658H193V0H116ZM111 735L192 907H274L166 735H111Z" />
<glyph unicode="&#xce;" horiz-adv-x="309" d="M116 0V658H193V0H116ZM506 735L395 864L382 907H431L561 735H506ZM253 735L382 907H431L419 865L307 735H253Z" />
<glyph unicode="&#xcf;" horiz-adv-x="309" d="M116 0V658H193V0H116ZM311 740Q291 740 279 752T266 784Q266 804 278 816T311 829Q331 829 344 817T357 784Q357 765 344 753T311 740ZM503 740Q483 740 470 752T457 784Q457 804 470 816T503 829Q523 829 535 817T548
784Q548 765 536 753T503 740Z" />
<glyph unicode="&#xd0;" horiz-adv-x="744" d="M115 0V658H318Q428 658 511 620T641 510T688 339Q688 274 666 214T599 105T483 29T316 0H115ZM26 301V356H386V301H26ZM188 54H322Q400 54 455 76T544 136T594 224T610 327Q610 405 577 467T477 566T307 603H188V54Z" />
<glyph unicode="&#xd1;" horiz-adv-x="769" d="M109 0V658H166L176 0H109ZM633 0H602L134 609L135 658H184L631 81L633 0ZM664 658V0H606L597 658H664ZM254 721L217 731Q226 758 242 779T279 811T322 823Q340 823 362 819T408 810T451 805Q474 805 492 819T519
858L557 849Q543 804 514 778T450 751Q429 751 407 755T363 764T322 769Q300 769 282 757T254 721Z" />
<glyph unicode="&#xd2;" horiz-adv-x="791" d="M390 -9Q294 -9 219 34T100 153T57 326Q57 402 83 465T157 573T267 642T402 667Q498 667 573 624T691 506T734 332Q734 256 708 193T634 85T525 16T390 -9ZM403 45Q478 45 535 80T623 177T655 321Q655 409 620 474T525
576T388 613Q315 613 259 578T170 481T138 337Q138 250 173 184T268 82T403 45ZM384 735L276 907H358L439 735H384Z" />
<glyph unicode="&#xd3;" horiz-adv-x="791" d="M390 -9Q294 -9 219 34T100 153T57 326Q57 402 83 465T157 573T267 642T402 667Q498 667 573 624T691 506T734 332Q734 256 708 193T634 85T525 16T390 -9ZM403 45Q478 45 535 80T623 177T655 321Q655 409 620 474T525
576T388 613Q315 613 259 578T170 481T138 337Q138 250 173 184T268 82T403 45ZM359 735L440 907H522L414 735H359Z" />
<glyph unicode="&#xd4;" horiz-adv-x="791" d="M390 -9Q294 -9 219 34T100 153T57 326Q57 402 83 465T157 573T267 642T402 667Q498 667 573 624T691 506T734 332Q734 256 708 193T634 85T525 16T390 -9ZM403 45Q478 45 535 80T623 177T655 321Q655 409 620 474T525
576T388 613Q315 613 259 578T170 481T138 337Q138 250 173 184T268 82T403 45ZM498 735L387 864L374 907H423L553 735H498ZM245 735L374 907H423L411 865L299 735H245Z" />
<glyph unicode="&#xd5;" horiz-adv-x="791" d="M390 -9Q294 -9 219 34T100 153T57 326Q57 402 83 465T157 573T267 642T402 667Q498 667 573 624T691 506T734 332Q734 256 708 193T634 85T525 16T390 -9ZM403 45Q478 45 535 80T623 177T655 321Q655 409 620 474T525
576T388 613Q315 613 259 578T170 481T138 337Q138 250 173 184T268 82T403 45ZM269 721L232 731Q241 758 257 779T294 811T337 823Q355 823 377 819T423 810T466 805Q489 805 507 819T534 858L572 849Q558 804 529 778T465 751Q444 751 422 755T378 764T337 769Q315
769 297 757T269 721Z" />
<glyph unicode="&#xd6;" horiz-adv-x="791" d="M390 -9Q294 -9 219 34T100 153T57 326Q57 402 83 465T157 573T267 642T402 667Q498 667 573 624T691 506T734 332Q734 256 708 193T634 85T525 16T390 -9ZM403 45Q478 45 535 80T623 177T655 321Q655 409 620 474T525
576T388 613Q315 613 259 578T170 481T138 337Q138 250 173 184T268 82T403 45ZM302 740Q282 740 270 752T257 784Q257 804 269 816T302 829Q322 829 335 817T348 784Q348 765 335 753T302 740ZM494 740Q474 740 461 752T448 784Q448 804 461 816T494 829Q514 829
526 817T539 784Q539 765 527 753T494 740Z" />
<glyph unicode="&#xd7;" horiz-adv-x="510" d="M400 48L74 375L110 411L436 85L400 48ZM111 49L74 85L399 410L435 374L111 49Z" />
<glyph unicode="&#xd8;" horiz-adv-x="790" d="M389 -9Q317 -9 256 16T150 87T81 193T57 325Q57 399 83 461T156 570T266 641T400 667Q473 667 534 642T639 571T709 464T734 332Q734 259 708 197T634 88T524 17T389 -9ZM401 44Q476 44 534 79T625 176T658 319Q658
405 624 471T529 575T389 613Q313 613 255 578T165 481T132 338Q132 252 166 186T261 82T401 44ZM115 -48L73 -12L668 696L711 658L115 -48Z" />
<glyph unicode="&#xd9;" horiz-adv-x="735" d="M362 -9Q282 -9 222 24T128 117T94 259V658H168V274Q168 205 193 155T265 78T375 51Q437 51 481 76T550 149T574 257V658H639V273Q639 188 605 125T508 26T362 -9ZM359 735L251 907H333L414 735H359Z" />
<glyph unicode="&#xda;" horiz-adv-x="730" d="M362 -9Q282 -9 222 24T128 117T94 259V658H168V274Q168 205 193 155T265 78T375 51Q437 51 481 76T550 149T574 257V658H639V273Q639 188 605 125T508 26T362 -9ZM333 735L414 907H496L388 735H333Z" />
<glyph unicode="&#xdb;" horiz-adv-x="730" d="M362 -9Q282 -9 222 24T128 117T94 259V658H168V274Q168 205 193 155T265 78T375 51Q437 51 481 76T550 149T574 257V658H639V273Q639 188 605 125T508 26T362 -9ZM472 735L361 864L348 907H397L527 735H472ZM219
735L348 907H397L385 865L273 735H219Z" />
<glyph unicode="&#xdc;" horiz-adv-x="730" d="M362 -9Q282 -9 222 24T128 117T94 259V658H168V274Q168 205 193 155T265 78T375 51Q437 51 481 76T550 149T574 257V658H639V273Q639 188 605 125T508 26T362 -9ZM277 740Q257 740 245 752T232 784Q232 804 244
816T277 829Q297 829 310 817T323 784Q323 765 310 753T277 740ZM469 740Q449 740 436 752T423 784Q423 804 436 816T469 829Q489 829 501 817T514 784Q514 765 502 753T469 740Z" />
<glyph unicode="&#xdd;" horiz-adv-x="632" d="M293 248L27 658H118L342 292L293 248ZM278 0V293H353V0H278ZM340 251L299 292L526 658H605L340 251ZM276 735L357 907H439L331 735H276Z" />
<glyph unicode="&#xde;" horiz-adv-x="609" d="M109 0V658H182V543H332Q403 543 455 520T537 453T567 349Q567 287 533 235T440 153T306 123H155V181H317Q370 181 410 201T473 257T496 336Q496 405 448 445T321 485H182V0H109Z" />
<glyph unicode="&#xdf;" horiz-adv-x="540" d="M353 -8Q331 -8 300 -2T237 25L264 79Q281 65 304 54T354 43Q395 43 414 69T434 130Q434 162 420 185T384 228T341 266T306 305T291 353Q291 380 305 402T337 445T369 493T383 554Q383 600 356 630T281 660Q215 660
182 609T148 458V0H79V459Q79 533 105 590T180 679T296 711Q344 711 379 693T432 642T451 568Q451 531 437 504T405 454T373 412T359 368Q359 346 373 328T408 293T450 254T485 206T499 140Q499 112 491 86T464 38T419 5T353 -8Z" />
<glyph unicode="&#xe0;" horiz-adv-x="529" d="M234 -6Q176 -6 133 20T66 93T42 197Q42 261 70 312T147 392T255 421Q291 421 320 410T373 376T410 319L391 288Q371 329 339 350T264 371Q221 371 187 350T134 292T115 204Q115 158 131 122T178 64T250 43Q287 43
324 62T389 130L417 113Q395 73 368 47T307 7T234 -6ZM395 -6L384 87V322L395 408L452 420V6L395 -6ZM261 509L132 706H209L312 509H261Z" />
<glyph unicode="&#xe1;" horiz-adv-x="529" d="M234 -6Q176 -6 133 20T66 93T42 197Q42 261 70 312T147 392T255 421Q291 421 320 410T373 376T410 319L391 288Q371 329 339 350T264 371Q221 371 187 350T134 292T115 204Q115 158 131 122T178 64T250 43Q287 43
324 62T389 130L417 113Q395 73 368 47T307 7T234 -6ZM395 -6L384 87V322L395 408L452 420V6L395 -6ZM225 509L327 706H405L276 509H225Z" />
<glyph unicode="&#xe2;" horiz-adv-x="529" d="M234 -6Q176 -6 133 20T66 93T42 197Q42 261 70 312T147 392T255 421Q291 421 320 410T373 376T410 319L391 288Q371 329 339 350T264 371Q221 371 187 350T134 292T115 204Q115 158 131 122T178 64T250 43Q287 43
324 62T389 130L417 113Q395 73 368 47T307 7T234 -6ZM395 -6L384 87V322L395 408L452 420V6L395 -6ZM351 509L256 666L243 706H292L402 509H351ZM134 509L243 706H292L280 667L185 509H134Z" />
<glyph unicode="&#xe3;" horiz-adv-x="529" d="M234 -6Q176 -6 133 20T66 93T42 197Q42 261 70 312T147 392T255 421Q291 421 320 410T373 376T410 319L391 288Q371 329 339 350T264 371Q221 371 187 350T134 292T115 204Q115 158 131 122T178 64T250 43Q287 43
324 62T389 130L417 113Q395 73 368 47T307 7T234 -6ZM395 -6L384 87V322L395 408L452 420V6L395 -6ZM156 485L119 495Q131 536 159 561T218 587Q234 587 252 583T288 575T323 570Q344 570 360 584T385 623L422 613Q411 570 384 543T323 515Q304 515 287 519T252
528T218 533Q197 533 181 521T156 485Z" />
<glyph unicode="&#xe4;" horiz-adv-x="529" d="M234 -6Q176 -6 133 20T66 93T42 197Q42 261 70 312T147 392T255 421Q291 421 320 410T373 376T410 319L391 288Q371 329 339 350T264 371Q221 371 187 350T134 292T115 204Q115 158 131 122T178 64T250 43Q287 43
324 62T389 130L417 113Q395 73 368 47T307 7T234 -6ZM395 -6L384 87V322L395 408L452 420V6L395 -6ZM172 518Q152 518 139 530T126 562Q126 582 139 594T172 607Q192 607 204 595T217 562Q217 542 205 530T172 518ZM363 518Q343 518 330 530T317 562Q317 582 330
594T363 607Q383 607 395 595T408 562Q408 542 396 530T363 518Z" />
<glyph unicode="&#xe5;" horiz-adv-x="529" d="M234 -6Q176 -6 133 20T66 93T42 197Q42 261 70 312T147 392T255 421Q291 421 320 410T373 376T410 319L391 288Q371 329 339 350T264 371Q221 371 187 350T134 292T115 204Q115 158 131 122T178 64T250 43Q287 43
324 62T389 130L417 113Q395 73 368 47T307 7T234 -6ZM395 -6L384 87V322L395 408L452 420V6L395 -6ZM268 487Q239 487 216 499T179 533T166 582Q166 609 179 630T216 663T269 675Q299 675 322 663T358 629T371 580Q371 554 358 533T321 499T268 487ZM269 524Q290
524 304 540T318 580Q318 606 304 622T269 638Q247 638 233 623T219 582Q219 557 233 541T269 524Z" />
<glyph unicode="&#xe6;" horiz-adv-x="726" d="M215 -5Q161 -5 121 18T59 84T37 187Q37 254 65 306T143 389T263 420Q297 420 323 413T371 391T416 356L381 320Q361 345 333 357T270 370Q220 370 184 348T127 287T107 198Q107 126 143 87T238 48Q269 48 299 63T353
117L386 100Q366 68 342 44T286 8T215 -5ZM522 -5Q433 -5 378 48T323 195Q323 261 351 311T428 391T538 420Q611 420 647 380T684 272Q684 263 684 254T682 235H624V270Q624 319 602 344T535 370Q491 370 458 349T406 289T387 202Q387 131 427 90T533 48Q566 48
597 60T658 97L690 63Q663 38 635 23T579 2T522 -5ZM365 235L373 281H673V235H365Z" />
<glyph unicode="&#xe7;" horiz-adv-x="437" d="M252 -8Q191 -8 144 18T70 92T42 201Q42 265 71 315T150 394T263 423Q306 423 340 409T401 371L372 318Q347 344 318 358T255 372Q212 372 180 350T132 291T115 208Q115 159 135 122T190 65T270 45Q301 45 331 57T385
93L408 54Q385 32 359 18T306 -2T252 -8ZM216 0H266L235 -85L199 -75Q209 -71 222 -69T250 -67Q299 -67 329 -91T359 -153Q359 -194 324 -218T237 -243Q208 -243 186 -235T144 -210L159 -181Q173 -191 191 -197T229 -204Q260 -204 277 -188T294 -152Q294 -131 275
-116T219 -101Q212 -101 200 -102T177 -105L216 0Z" />
<glyph unicode="&#xe8;" horiz-adv-x="456" d="M247 -9Q188 -9 143 15T73 85T47 193Q47 262 75 313T152 393T262 422Q336 422 373 380T410 265Q410 257 410 248T408 230H349V265Q349 319 327 346T258 374Q214 374 181 353T130 293T112 202Q112 130 153 88T260
45Q294 45 325 57T385 96L410 59Q383 34 356 19T301 -2T247 -9ZM85 230L94 273H399V230H85ZM242 509L113 706H190L293 509H242Z" />
<glyph unicode="&#xe9;" horiz-adv-x="456" d="M247 -9Q188 -9 143 15T73 85T47 193Q47 262 75 313T152 393T262 422Q336 422 373 380T410 265Q410 257 410 248T408 230H349V265Q349 319 327 346T258 374Q214 374 181 353T130 293T112 202Q112 130 153 88T260
45Q294 45 325 57T385 96L410 59Q383 34 356 19T301 -2T247 -9ZM85 230L94 273H399V230H85ZM206 509L308 706H386L257 509H206Z" />
<glyph unicode="&#xea;" horiz-adv-x="456" d="M247 -9Q188 -9 143 15T73 85T47 193Q47 262 75 313T152 393T262 422Q336 422 373 380T410 265Q410 257 410 248T408 230H349V265Q349 319 327 346T258 374Q214 374 181 353T130 293T112 202Q112 130 153 88T260
45Q294 45 325 57T385 96L410 59Q383 34 356 19T301 -2T247 -9ZM85 230L94 273H399V230H85ZM332 509L237 666L224 706H273L383 509H332ZM115 509L224 706H273L261 667L166 509H115Z" />
<glyph unicode="&#xeb;" horiz-adv-x="456" d="M247 -9Q188 -9 143 15T73 85T47 193Q47 262 75 313T152 393T262 422Q336 422 373 380T410 265Q410 257 410 248T408 230H349V265Q349 319 327 346T258 374Q214 374 181 353T130 293T112 202Q112 130 153 88T260
45Q294 45 325 57T385 96L410 59Q383 34 356 19T301 -2T247 -9ZM85 230L94 273H399V230H85ZM153 518Q133 518 120 530T107 562Q107 582 120 594T153 607Q173 607 185 595T198 562Q198 542 186 530T153 518ZM344 518Q324 518 311 530T298 562Q298 582 311 594T344
607Q364 607 376 595T389 562Q389 542 377 530T344 518Z" />
<glyph unicode="&#xec;" horiz-adv-x="260" d="M96 0V409L164 420V0H96ZM388 509L260 706H337L440 509H388Z" />
<glyph unicode="&#xed;" horiz-adv-x="260" d="M96 0V409L164 420V0H96ZM87 509L189 706H267L138 509H87Z" />
<glyph unicode="&#xee;" horiz-adv-x="260" d="M96 0V409L164 420V0H96ZM469 509L374 666L361 706H410L520 509H469ZM252 509L361 706H410L398 667L303 509H252Z" />
<glyph unicode="&#xef;" horiz-adv-x="260" d="M96 0V409L164 420V0H96ZM306 518Q286 518 273 530T260 562Q260 582 273 594T306 607Q326 607 338 595T351 562Q351 542 339 530T306 518ZM467 518Q447 518 434 530T421 562Q421 582 434 594T467 607Q487 607 499
595T512 562Q512 542 500 530T467 518Z" />
<glyph unicode="&#xf0;" horiz-adv-x="511" d="M254 -7Q193 -7 145 20T70 94T42 202Q42 264 70 311T146 386T255 414Q306 414 347 394T417 337L399 304Q372 336 339 352T265 369Q218 369 185 348T133 290T115 208Q115 159 134 122T187 64T264 44Q332 44 367 96T402
236Q402 323 366 407T259 561T87 678L106 718Q190 685 257 633T371 517T444 384T469 245Q469 169 443 113T369 25T254 -7ZM98 471L72 513L415 711L440 669L98 471Z" />
<glyph unicode="&#xf1;" horiz-adv-x="530" d="M384 0V240Q384 301 357 334T280 368Q254 368 226 358T172 325T128 268L105 291Q128 336 161 364T233 406T307 420Q351 420 383 402T434 348T452 263V0H384ZM78 0V408L134 420L146 321V0H78ZM150 485L113 495Q125
536 153 561T212 587Q228 587 246 583T282 575T317 570Q338 570 354 584T379 623L416 613Q405 570 378 543T317 515Q298 515 281 519T246 528T212 533Q191 533 175 521T150 485Z" />
<glyph unicode="&#xf2;" horiz-adv-x="519" d="M253 -8Q192 -8 145 19T70 93T42 202Q42 266 71 316T152 394T267 423Q328 423 375 396T450 322T478 213Q478 149 449 99T369 21T253 -8ZM262 40Q307 40 339 62T388 123T405 206Q405 258 386 295T333 353T258 374Q214
374 182 353T132 294T115 210Q115 158 134 120T187 61T262 40ZM259 509L130 706H207L310 509H259Z" />
<glyph unicode="&#xf3;" horiz-adv-x="519" d="M253 -8Q192 -8 145 19T70 93T42 202Q42 266 71 316T152 394T267 423Q328 423 375 396T450 322T478 213Q478 149 449 99T369 21T253 -8ZM262 40Q307 40 339 62T388 123T405 206Q405 258 386 295T333 353T258 374Q214
374 182 353T132 294T115 210Q115 158 134 120T187 61T262 40ZM222 509L324 706H402L273 509H222Z" />
<glyph unicode="&#xf4;" horiz-adv-x="519" d="M253 -8Q192 -8 145 19T70 93T42 202Q42 266 71 316T152 394T267 423Q328 423 375 396T450 322T478 213Q478 149 449 99T369 21T253 -8ZM262 40Q307 40 339 62T388 123T405 206Q405 258 386 295T333 353T258 374Q214
374 182 353T132 294T115 210Q115 158 134 120T187 61T262 40ZM349 509L254 666L241 706H290L400 509H349ZM132 509L241 706H290L278 667L183 509H132Z" />
<glyph unicode="&#xf5;" horiz-adv-x="519" d="M253 -8Q192 -8 145 19T70 93T42 202Q42 266 71 316T152 394T267 423Q328 423 375 396T450 322T478 213Q478 149 449 99T369 21T253 -8ZM262 40Q307 40 339 62T388 123T405 206Q405 258 386 295T333 353T258 374Q214
374 182 353T132 294T115 210Q115 158 134 120T187 61T262 40ZM154 485L117 495Q129 536 157 561T216 587Q232 587 250 583T286 575T321 570Q342 570 358 584T383 623L420 613Q409 570 382 543T321 515Q302 515 285 519T250 528T216 533Q195 533 179 521T154 485Z"
/>
<glyph unicode="&#xf6;" horiz-adv-x="519" d="M253 -8Q192 -8 145 19T70 93T42 202Q42 266 71 316T152 394T267 423Q328 423 375 396T450 322T478 213Q478 149 449 99T369 21T253 -8ZM262 40Q307 40 339 62T388 123T405 206Q405 258 386 295T333 353T258 374Q214
374 182 353T132 294T115 210Q115 158 134 120T187 61T262 40ZM170 518Q150 518 137 530T124 562Q124 582 137 594T170 607Q190 607 202 595T215 562Q215 542 203 530T170 518ZM361 518Q341 518 328 530T315 562Q315 582 328 594T361 607Q381 607 393 595T406 562Q406
542 394 530T361 518Z" />
<glyph unicode="&#xf7;" horiz-adv-x="550" d="M44 204V256H506V204H44ZM276 386Q257 386 245 397T233 428Q233 447 245 458T276 470Q294 470 305 459T317 428Q317 409 306 398T276 386ZM276 -9Q257 -9 245 3T233 33Q233 52 245 64T276 76Q294 76 305 64T317 33Q317
15 306 3T276 -9Z" />
<glyph unicode="&#xf8;" horiz-adv-x="519" d="M253 -8Q192 -8 145 19T70 93T42 202Q42 266 71 315T152 394T267 423Q328 423 375 396T450 321T478 213Q478 149 449 99T369 21T253 -8ZM262 39Q309 39 342 62T393 123T410 206Q410 258 391 295T337 354T258 375Q212
375 179 353T127 294T109 210Q109 158 129 120T184 61T262 39ZM77 -39L39 -7L445 449L484 417L77 -39Z" />
<glyph unicode="&#xf9;" horiz-adv-x="521" d="M219 -5Q157 -5 118 36T78 151V408L146 420V173Q146 114 172 80T247 46Q273 46 300 56T351 89T392 147L417 124Q395 80 363 52T293 9T219 -5ZM387 -6L375 96V408L444 420V6L387 -6ZM260 509L131 706H208L311 509H260Z" />
<glyph unicode="&#xfa;" horiz-adv-x="521" d="M219 -5Q157 -5 118 36T78 151V408L146 420V173Q146 114 172 80T247 46Q273 46 300 56T351 89T392 147L417 124Q395 80 363 52T293 9T219 -5ZM387 -6L375 96V408L444 420V6L387 -6ZM224 509L326 706H404L275 509H224Z" />
<glyph unicode="&#xfb;" horiz-adv-x="521" d="M219 -5Q157 -5 118 36T78 151V408L146 420V173Q146 114 172 80T247 46Q273 46 300 56T351 89T392 147L417 124Q395 80 363 52T293 9T219 -5ZM387 -6L375 96V408L444 420V6L387 -6ZM350 509L255 666L242 706H291L401
509H350ZM133 509L242 706H291L279 667L184 509H133Z" />
<glyph unicode="&#xfc;" horiz-adv-x="521" d="M219 -5Q157 -5 118 36T78 151V408L146 420V173Q146 114 172 80T247 46Q273 46 300 56T351 89T392 147L417 124Q395 80 363 52T293 9T219 -5ZM387 -6L375 96V408L444 420V6L387 -6ZM171 518Q151 518 138 530T125
562Q125 582 138 594T171 607Q191 607 203 595T216 562Q216 542 204 530T171 518ZM362 518Q342 518 329 530T316 562Q316 582 329 594T362 607Q382 607 394 595T407 562Q407 542 395 530T362 518Z" />
<glyph unicode="&#xfd;" d="M245 -289Q213 -289 182 -281T124 -254T75 -209L120 -159Q151 -199 189 -218T264 -238Q295 -238 322 -223T365 -174T382 -83V409L450 420V-81Q450 -153 420 -199T342 -267T245 -289ZM220 -5Q158 -5 118 36T78 151V408L146 420V173Q146
114 173 80T248 46Q275 46 302 56T354 89T395 147L420 124Q398 80 366 52T296 9T220 -5ZM220 509L322 706H400L271 509H220Z" />
<glyph unicode="&#xfe;" horiz-adv-x="529" d="M273 -6Q222 -6 182 17T120 88L138 118Q159 82 191 64T265 45Q309 45 342 66T395 124T414 212Q414 257 398 293T352 350T279 371Q243 371 205 352T140 284L112 302Q146 361 191 390T296 419Q354 419 397 393T463
322T487 217Q487 154 459 104T383 24T273 -6ZM79 -289V705L146 717V-277L79 -289Z" />
<glyph unicode="&#xff;" d="M245 -289Q213 -289 182 -281T124 -254T75 -209L120 -159Q151 -199 189 -218T264 -238Q295 -238 322 -223T365 -174T382 -83V409L450 420V-81Q450 -153 420 -199T342 -267T245 -289ZM220 -5Q158 -5 118 36T78 151V408L146 420V173Q146
114 173 80T248 46Q275 46 302 56T354 89T395 147L420 124Q398 80 366 52T296 9T220 -5ZM168 518Q148 518 135 530T122 562Q122 582 135 594T168 607Q188 607 200 595T213 562Q213 542 201 530T168 518ZM359 518Q339 518 326 530T313 562Q313 582 326 594T359 607Q379
607 391 595T404 562Q404 542 392 530T359 518Z" />
<glyph unicode="&#x2013;" horiz-adv-x="550" d="M44 204V256H506V204H44Z" />
<glyph unicode="&#x2014;" horiz-adv-x="895" d="M44 204V256H851V204H44Z" />
<glyph unicode="&#x2018;" horiz-adv-x="252" d="M152 658L183 640Q160 610 148 573T136 499Q136 462 146 433T177 387L116 356Q90 378 79 408T67 473Q67 509 77 543T106 608T152 658Z" />
<glyph unicode="&#x2019;" horiz-adv-x="252" d="M100 357L69 375Q92 405 103 442T115 516Q115 554 105 583T75 628L135 659Q162 637 173 607T185 542Q185 506 175 472T146 408T100 357Z" />
<glyph unicode="&#x201a;" horiz-adv-x="252" d="M356 -184L325 -166Q348 -136 359 -99T371 -25Q371 13 361 42T331 87L391 118Q418 96 429 66T441 1Q441 -35 431 -69T402 -133T356 -184Z" />
<glyph unicode="&#x201c;" horiz-adv-x="430" d="M152 659L183 640Q160 611 148 574T136 499Q136 463 146 433T177 387L116 357Q90 378 79 408T67 474Q67 509 77 543T106 608T152 659ZM330 659L360 640Q337 611 326 574T314 499Q314 463 324 433T354 387L294 357Q267
378 256 408T245 474Q245 509 255 543T284 608T330 659Z" />
<glyph unicode="&#x201d;" horiz-adv-x="430" d="M278 357L247 375Q270 405 281 442T293 516Q293 554 283 583T253 628L313 659Q340 637 351 607T363 542Q363 506 353 472T324 408T278 357ZM100 357L69 375Q92 405 103 442T115 516Q115 554 105 583T75 628L135
659Q162 637 173 607T185 542Q185 506 175 472T146 408T100 357Z" />
<glyph unicode="&#x201e;" horiz-adv-x="430" d="M278 -184L247 -166Q270 -136 281 -99T293 -25Q293 13 283 42T253 87L313 118Q340 96 351 66T363 1Q363 -35 353 -69T324 -133T278 -184ZM356 -184L325 -166Q348 -136 359 -99T371 -25Q371 13 361 42T331 87L391
118Q418 96 429 66T441 1Q441 -35 431 -69T402 -133T356 -184Z" />
<glyph unicode="&#x2022;" horiz-adv-x="421" d="M212 177Q169 177 134 196T79 251T58 329Q58 371 78 405T134 460T212 481Q255 481 289 461T343 406T363 329Q363 286 343 251T289 197T212 177Z" />
<glyph unicode="&#x2039;" horiz-adv-x="324" d="M235 33L41 211L235 389L272 360L129 206V216L272 63L235 33Z" />
<glyph unicode="&#x203a;" horiz-adv-x="324" d="M88 391L283 211L88 31L52 54L204 216V206L52 367L88 391Z" />
</font>
</defs>
</svg>
