<?xml version="1.0" standalone="no"?>
<!DOCTYPE svg PUBLIC "-//W3C//DTD SVG 1.1//EN" "http://www.w3.org/Graphics/SVG/1.1/DTD/svg11.dtd">
<svg xmlns="http://www.w3.org/2000/svg">
<defs >
<font id="Diphylleia" horiz-adv-x="938" ><font-face
    font-family="Diphylleia"
    units-per-em="1000"
    panose-1="0 0 0 0 0 0 0 0 0 0"
    ascent="1160"
    descent="-288"
    alphabetic="0" />
<glyph unicode=" " glyph-name="space" horiz-adv-x="320" />
<glyph unicode="!" glyph-name="exclam" horiz-adv-x="246" d="M79 699Q96 714 123 714T166 699Q177 689 172 673T162 615Q160 592 158 546T153 444T148 331T145 231T142 165Q142 157 133 154T114 154T104 165Q104 186 103 230T100 331T96 443T91 546T85 615Q80
656 75 672T79 699ZM75 60Q73 69 84 72T111 72T143 58T163 30Q169 12 155 -4T124 -22Q117 -24 101 -21T85 -2Q86 6 84 23T75 60Z" />
<glyph unicode="&quot;" glyph-name="quotedbl" horiz-adv-x="300" d="M84 744Q110 744 124 732Q132 725 128 714T120 688Q116 666 110 613T101 499Q101 494 95 492T84 489Q79 489 73 491T67 499Q64 560 59 613T49 688Q47 703 42 714T44 732Q58 744 84 744ZM174
732Q188 744 214 744Q240 744 254 732Q262 725 258 714T250 688Q246 666 240 613T231 499Q231 494 225 492T214 489Q209 489 203 491T197 499Q194 560 189 613T179 688Q177 703 172 714T174 732Z" />
<glyph unicode="#" glyph-name="numbersign" horiz-adv-x="600" d="M275 698L228 475H417L456 657Q459 671 474 684T521 698L474 475H628Q628 456 612 444T578 431H465L420 218H575Q575 199 559 187T524 174H410L370 -15Q367 -31 355 -45T304 -60L353 174H164L124
-15Q121 -31 109 -45T58 -60L99 132Q100 136 104 146T119 165T152 174H-46Q-46 186 -34 202T-2 218H116L151 383Q154 398 163 414T206 431H7Q7 444 19 459T51 475H171L210 657Q213 671 228 684T275 698ZM173 218H363L408 431H218L173 218Z" />
<glyph unicode="$" glyph-name="dollar" horiz-adv-x="550" d="M275 -86Q274 -106 259 -115T226 -120L231 -15Q168 -7 124 20T56 86T33 162Q33 186 50 199T95 214Q127 216 129 196Q131 186 125 181T116 163Q114 140 126 112T166 60T234 27L248 317Q209 337 171
361T108 422T82 513Q82 553 105 589T169 650T267 681L271 759Q272 779 288 788T320 793L314 683Q373 680 413 656T474 600T495 539Q495 499 444 494Q425 493 416 499T407 514Q407 526 413 533T419 549Q420 562 409 582T375 621T312 643L299 375L304 372Q339 355
373 337T435 297T481 243T498 168Q498 121 471 80T395 12T279 -17L275 -86ZM152 523Q152 478 180 451T253 398L265 642Q225 636 200 616T164 571T152 523ZM281 23Q329 25 360 46T408 98T425 164Q426 196 408 219T360 260T295 295L281 23Z" />
<glyph unicode="%" glyph-name="percent" horiz-adv-x="855" d="M146 0L632 700Q640 711 653 712T680 710T698 697L212 -3Q205 -13 191 -14T165 -12T146 0ZM44 491Q45 538 66 572T120 624T192 643Q230 643 262 625T315 572T334 491Q333 444 312 410T258 358T186
340Q148 340 115 358T63 410T44 491ZM195 607Q158 609 131 579T101 495Q99 443 122 411T183 376Q220 375 247 406T278 489Q281 541 257 573T195 607ZM504 211Q505 258 526 292T580 344T652 363Q690 363 723 345T775 292T794 211Q793 164 772 130T718 78T646 60Q608
60 576 78T523 130T504 211ZM561 215Q559 163 582 131T643 96Q680 95 707 126T738 209Q741 261 717 293T655 327Q618 329 591 299T561 215Z" />
<glyph unicode="&amp;" glyph-name="ampersand" horiz-adv-x="710" d="M296 -8Q222 -8 168 18T85 86T56 176Q56 219 77 253T130 313T193 354Q166 397 149 441T131 527Q131 580 154 616T218 672T307 692Q360 692 397 671T455 614T474 534Q473 480 435 437T330 374Q323
381 323 392T336 411Q377 434 393 468T410 542Q411 588 385 624T307 660Q258 660 226 625T195 529Q196 481 221 427T289 319T383 216T490 127Q512 155 524 189T535 257Q534 281 525 303T495 338Q500 349 513 352T543 348Q570 336 583 307T597 249Q597 211 579 173T531
100Q573 72 607 63Q618 60 631 66T656 72Q666 72 674 58T688 28T692 5Q689 -9 666 -5Q641 0 596 16T496 67Q458 35 407 14T296 -8ZM126 177Q128 141 149 108T208 54T302 33Q394 33 458 92Q422 117 378 153T289 235T210 331Q190 317 170 294T137 241T126 177Z" />
<glyph unicode="&apos;" glyph-name="quotesingle" horiz-adv-x="180" d="M89 744Q115 744 129 732Q137 725 133 714T125 688Q121 666 115 613T106 499Q106 494 100 492T89 489Q84 489 78 491T72 499Q69 560 64 613T54 688Q52 703 47 714T49 732Q63 744 89 744Z" />
<glyph unicode="(" glyph-name="parenleft" horiz-adv-x="450" d="M384 -142Q392 -151 390 -162T378 -178Q308 -111 256 -31T174 136T144 309Q144 396 173 482T255 649T378 796Q388 792 390 781T384 760Q318 680 283 599T235 443T222 309Q222 250 235 176T283
20T384 -142Z" />
<glyph unicode=")" glyph-name="parenright" horiz-adv-x="450" d="M66 -142Q133 -61 167 20T215 175T228 309Q228 368 215 442T168 598T66 760Q59 769 60 780T72 796Q142 730 194 650T276 483T306 309Q306 223 277 136T195 -31T72 -178Q62 -174 61 -163T66 -142Z" />
<glyph unicode="*" glyph-name="asterisk" horiz-adv-x="460" d="M309 414Q302 419 304 423T304 441Q301 455 282 490T232 557Q201 526 182 491T159 441Q158 428 160 424T154 414Q144 410 130 411T109 417Q101 422 104 435Q112 469 143 506Q158 526 178 544T214
570Q188 582 161 588T112 596T81 596Q68 595 65 591T55 593Q48 601 45 614T44 635Q45 643 61 646Q93 652 141 634Q161 628 183 617T219 595Q217 639 212 675T205 727Q203 739 199 747T200 761Q210 771 232 771Q254 771 264 761Q270 756 266 748T260 727Q258 711
253 675T245 596Q259 607 281 617T322 634Q370 652 402 646Q418 643 419 635Q422 628 419 615T408 593Q401 587 398 591T382 596Q373 598 352 596T303 588T249 570Q265 562 285 544T320 506Q351 469 359 435Q362 421 354 416Q348 411 334 411T309 414Z" />
<glyph unicode="+" glyph-name="plus" horiz-adv-x="600" d="M36 334Q35 357 40 370T74 383H273V620Q296 621 309 616T322 582V383H559Q560 361 555 348T521 334H322V97Q300 96 287 101T273 135V334H36Z" />
<glyph unicode="," glyph-name="comma" horiz-adv-x="265" d="M84 45Q81 59 96 71T133 90T170 89Q185 83 186 63Q189 17 173 -29T124 -113T40 -177Q32 -181 25 -175T18 -161Q79 -120 99 -74T112 11Q111 20 99 27T84 45Z" />
<glyph unicode="-" glyph-name="hyphen" horiz-adv-x="410" d="M99 342H361V332Q361 314 349 302T308 290H48V303Q48 324 62 333T99 342Z" />
<glyph unicode="." glyph-name="period" horiz-adv-x="289" d="M100 77Q97 87 109 90T140 90T174 74T196 41Q202 18 190 0T153 -24Q140 -26 123 -21T107 1Q108 12 108 32T100 77Z" />
<glyph unicode="/" glyph-name="slash" horiz-adv-x="340" d="M268 741Q272 755 289 766T335 771L94 -102Q90 -117 77 -130T24 -141L268 741Z" />
<glyph unicode="0" glyph-name="zero" horiz-adv-x="660" d="M325 -15Q234 -15 174 32T84 159T56 341Q57 438 90 518T188 646T343 694Q426 694 484 648T572 525T600 351Q599 276 580 210T527 94T442 14T325 -15ZM134 340Q133 248 154 177T218 66T325 25Q387 25
429 68T495 185T521 351Q524 436 502 506T439 617T343 659Q297 659 259 633T194 561T151 459T134 340Z" />
<glyph unicode="1" glyph-name="one" horiz-adv-x="470" d="M277 116Q276 80 287 64T324 42T392 32Q402 31 410 27T417 6Q417 1 415 0T410 -1Q241 6 78 -1Q71 -1 71 6Q71 22 78 26T96 32Q139 37 164 42T201 63T214 116L228 606Q212 609 179 601T117 583Q110 581
103 588T94 607Q117 619 150 633T214 660T258 678Q272 684 282 678T292 658L277 116Z" />
<glyph unicode="2" glyph-name="two" horiz-adv-x="570" d="M473 0L44 2Q36 13 38 27T51 48Q86 70 132 108T227 193T317 294T384 402T412 507Q414 555 393 585T338 631T272 646Q235 646 203 631T148 587T119 521Q105 519 91 533T83 565Q94 592 120 622T189 674T286
695Q337 695 382 675T456 614T487 515Q489 466 463 412T395 303T304 200T207 114T126 55L354 56Q388 56 410 59T446 72T472 105T497 167Q498 170 507 168T516 154Q515 119 509 85T494 22Q488 0 473 0Z" />
<glyph unicode="3" glyph-name="three" horiz-adv-x="560" d="M90 575Q106 615 139 643T215 686T303 701Q351 701 387 683T444 636T466 573Q468 533 451 501T406 444T350 405T299 385L305 380Q355 381 399 360T472 302T501 215Q502 167 482 125T427 50T345 0T246
-19Q176 -19 120 10T41 92Q34 109 49 120T89 132Q106 133 115 128T125 114Q125 102 124 97T129 79Q146 50 180 36T256 23Q304 24 340 48T398 112T419 201Q419 265 384 302T285 346Q264 348 244 345T200 336Q192 335 178 340T162 370Q228 380 282 406T368 470T398
552Q397 577 384 601T344 640T273 654Q243 653 212 641T158 602T129 531Q120 530 109 536T92 552T90 575Z" />
<glyph unicode="4" glyph-name="four" horiz-adv-x="591" d="M42 159Q30 159 32 172L34 188Q36 200 39 209T51 230Q142 343 232 466T413 707Q424 709 442 707T472 700T479 688L98 213H351L371 477Q372 491 392 501T430 507L410 213H475Q489 213 503 216T529 235Q535
242 543 239T550 227L545 177Q544 166 540 163T528 159H406L397 25Q396 9 381 -3T335 -10L347 159H42Z" />
<glyph unicode="5" glyph-name="five" horiz-adv-x="560" d="M35 99Q32 104 32 109Q32 122 48 130T86 139Q102 139 110 134T119 121Q119 115 119 111T118 103Q118 96 123 86Q141 55 177 42T246 28Q292 28 330 53T393 124T417 230Q417 284 393 323T329 382T242
403Q203 403 163 388T85 339Q67 339 67 354Q67 358 68 360L167 660Q171 671 176 676T191 682L408 684Q429 684 443 687T465 705Q469 712 477 712Q489 712 489 700V698L480 644Q477 628 464 628L208 626L141 415Q168 432 199 440T261 448Q320 448 374 422T464 347T499
233Q499 187 480 143T428 64T349 8T251 -13Q177 -13 121 17T35 99Z" />
<glyph unicode="6" glyph-name="six" horiz-adv-x="560" d="M468 719Q476 720 484 710T491 686Q397 671 328 629T212 524T145 387T126 233Q128 173 150 124T208 46T289 17Q340 18 374 45T427 116T446 206Q447 252 429 289T383 351T325 380Q289 386 265 379T218
357Q208 350 198 357T186 374Q206 393 244 408T329 421Q377 420 421 397T492 327T517 207Q515 140 483 89T399 8T288 -22Q227 -22 183 3T109 69T66 158T52 255Q51 349 83 429T171 572T304 672T468 719Z" />
<glyph unicode="7" glyph-name="seven" horiz-adv-x="505" d="M127 67Q139 103 165 159T226 280T297 410T367 530T423 620H126Q103 620 90 607T69 580Q61 566 49 569T39 584L56 654Q59 667 65 672T86 677L492 676Q496 676 498 668T494 649Q469 612 439 560T376
449T313 328T258 209T216 106Q209 87 205 60T205 10Q200 -4 180 -8T141 -10T120 3Q116 16 118 30T127 67Z" />
<glyph unicode="8" glyph-name="eight" horiz-adv-x="560" d="M250 -17Q186 -15 144 5T77 55T43 115T34 166Q34 190 46 225T93 300T199 372Q174 389 149 413T107 469T90 538Q90 584 109 616T160 668T229 697T300 707Q331 707 365 698T428 670T476 621T492 550Q490
505 466 471T409 412T344 374Q409 344 444 310T492 241T503 168Q502 139 485 106T437 45T359 -1T250 -17ZM159 555Q158 512 190 470T304 391Q366 420 397 456T430 545Q430 576 415 605T371 653T298 672Q232 673 196 638T159 555ZM100 181Q98 142 117 106T176 47T272
23Q304 23 340 35T402 78T431 163Q433 203 413 234T361 287T294 326T232 355Q175 327 139 284T100 181Z" />
<glyph unicode="9" glyph-name="nine" horiz-adv-x="560" d="M109 -33Q94 -34 85 -25T79 -2Q177 13 246 56T358 163T420 306T436 471Q434 529 413 573T357 642T277 667Q229 667 194 640T140 569T121 476Q121 425 138 383T188 315T266 288Q321 287 363 318Q374
326 380 323T389 313Q372 284 336 266T252 248Q205 248 158 272T79 347T49 475Q50 544 83 594T166 674T268 705Q331 708 376 685T451 622T495 534T510 438Q511 341 481 259T396 114T268 13T109 -33Z" />
<glyph unicode=":" glyph-name="colon" horiz-adv-x="295" d="M104 477Q101 487 112 490T141 489T174 474T196 442Q202 421 190 403T155 380Q143 378 128 382T114 404Q115 415 113 434T104 477ZM104 118Q101 128 112 131T141 130T174 115T196 83Q202 62 190 44T155
21Q143 19 128 23T114 45Q115 56 113 75T104 118Z" />
<glyph unicode=";" glyph-name="semicolon" horiz-adv-x="250" d="M74 477Q71 487 82 490T111 489T144 474T166 442Q172 421 160 403T125 380Q113 378 98 382T84 404Q85 415 83 434T74 477ZM68 55Q64 69 78 82T113 104T151 107Q166 102 169 82Q176 38 162 -10T118
-98T41 -160Q33 -164 26 -159T18 -146Q54 -124 74 -94T101 -33T100 23Q97 33 85 39T68 55Z" />
<glyph unicode="&lt;" glyph-name="less" horiz-adv-x="550" d="M490 60Q482 47 462 38T422 41L62 284Q55 289 55 303T62 321L422 564Q442 578 462 568T490 545L158 321Q145 312 136 307T121 302Q127 302 136 298T158 284L490 60Z" />
<glyph unicode="=" glyph-name="equal" horiz-adv-x="600" d="M36 414Q35 437 40 450T74 463H559Q560 441 555 428T521 414H36ZM36 194Q35 217 40 230T74 243H559Q560 221 555 208T521 194H36Z" />
<glyph unicode="&gt;" glyph-name="greater" horiz-adv-x="550" d="M123 41Q103 28 83 37T55 60L387 284Q414 303 423 302Q417 302 408 307T387 321L55 545Q63 558 83 568T123 564L483 321Q490 317 490 303T483 284L123 41Z" />
<glyph unicode="?" glyph-name="question" horiz-adv-x="439" d="M338 536Q339 571 327 601T289 649T220 668Q177 668 147 641T105 570Q103 562 107 556T107 540Q104 532 95 531T76 532Q57 538 47 552T42 585Q54 625 81 652T145 694T221 709Q279 709 321 684T386
620T409 538Q409 489 389 453T339 391T280 341T233 294Q213 267 207 248T202 213T204 175Q205 158 191 150T160 149Q156 164 154 186T160 237T192 301Q212 329 236 354T283 406T321 464T338 536ZM145 60Q143 69 154 72T181 72T213 58T233 30Q239 12 225 -4T194
-22Q187 -24 171 -21T155 -2Q156 6 154 23T145 60Z" />
<glyph unicode="@" glyph-name="at" horiz-adv-x="900" d="M46 197Q44 276 71 350T147 487T262 594T404 657T562 663Q666 646 732 599T828 485T853 345Q850 296 829 246T769 153T677 85T554 59Q527 59 518 73T512 108L534 210Q524 186 506 159T463 108T412 69T358
53Q326 53 298 72T256 129T252 224Q260 268 286 314T349 399T431 462T521 487Q571 488 603 473T643 445L574 137Q573 131 572 123T574 108T594 101Q647 101 688 132T756 217T785 338Q789 413 760 475T679 577T559 625Q490 633 425 615T303 557T204 463T138 340T114
198Q114 125 141 72T213 -15T313 -66T425 -83Q461 -83 497 -75T564 -56T609 -37Q620 -31 625 -41T623 -57Q596 -75 557 -90T473 -115T384 -123Q330 -122 272 -105T164 -49T81 49T46 197ZM316 223Q306 173 322 140T378 107Q402 107 429 123T482 167T525 226T550
289L575 404Q576 409 576 413T571 424Q564 435 550 442T511 450Q475 450 443 428T384 370T340 295T316 223Z" />
<glyph unicode="A" glyph-name="A" horiz-adv-x="670" d="M4 9Q3 14 5 19T13 25Q32 30 49 38T80 77L357 676Q391 684 403 648L598 76Q607 50 621 41T657 25Q670 20 666 9Q665 4 661 3T652 1H467Q463 1 458 2T451 9Q450 14 452 19T460 25Q492 33 512 42T525 76L472
231H204L138 89Q127 64 136 53T167 36T211 23Q221 20 217 9Q216 4 211 3T200 1H20Q16 1 11 2T4 9ZM222 270H459L359 566L222 270Z" />
<glyph unicode="B" glyph-name="B" horiz-adv-x="598" d="M12 12Q10 18 13 24T23 31Q55 37 79 52T104 89L131 604Q132 616 120 625T93 641T65 650Q52 653 55 665Q57 672 63 673T73 674H323Q399 674 445 649T513 587T531 509Q529 468 507 438T455 389T402 362V358Q425
355 452 344T503 312T542 263T556 194Q554 141 526 98T440 29T288 3H28Q16 3 12 12ZM168 633Q185 631 191 621T198 599T198 579L187 371L171 45H291Q350 45 386 57T443 90T471 135T480 184Q482 216 470 246T424 298T327 330Q308 333 287 333T254 333Q240 333 229
341T218 371Q262 368 306 371Q343 374 378 390T438 437T464 509Q467 546 449 573T397 617T321 633H168Z" />
<glyph unicode="C" glyph-name="C" horiz-adv-x="624" d="M598 527Q600 515 593 500T572 472T543 457Q532 456 526 461T518 473Q516 484 519 493T519 512Q502 571 460 600T365 630Q317 630 272 611T189 552T130 454T108 317Q108 254 133 195T208 94T325 45Q394
38 449 64T542 145Q552 158 568 158Q583 158 593 144Q567 96 532 66T460 21T388 0T328 -6Q246 -5 179 35T73 148T34 316Q34 391 59 457T130 573T235 651T364 680Q408 680 450 667T527 627Q553 608 573 578T598 527Z" />
<glyph unicode="D" glyph-name="D" horiz-adv-x="683" d="M26 3Q22 3 18 4T12 12Q10 17 12 23T23 31Q55 36 79 51T104 89L131 604Q132 616 120 625T93 641T65 650Q52 653 55 665Q57 672 63 673T73 674H328Q431 674 504 630T616 510T648 340Q643 233 598 158T474
43T292 3H26ZM171 47H295Q336 47 382 62T471 112T542 201T576 336Q581 414 555 482T471 591T325 633H168Q187 632 193 622T199 599T198 579L171 47Z" />
<glyph unicode="E" glyph-name="E" horiz-adv-x="548" d="M474 1L23 3Q14 3 11 12Q11 15 12 19T18 25Q23 27 28 28T37 30Q52 34 72 47T94 80L121 589Q122 615 99 630T53 651Q40 655 46 666Q48 671 53 672T63 673L505 675Q530 675 529 649L523 532Q522 518 511
518T497 527Q489 573 478 595T441 625T358 633H159Q184 629 186 612T188 580L177 362H299Q336 362 356 372T390 406Q395 414 405 413T415 396L409 284Q408 268 398 268T384 276Q373 299 354 311T300 323H175L161 47H328Q384 47 412 53T454 81T478 150Q480 159 491
158T502 142L496 29Q495 13 490 7T474 1Z" />
<glyph unicode="F" glyph-name="F" horiz-adv-x="570" d="M26 3Q17 3 13 10Q10 15 12 22T24 31Q55 36 79 49T104 93L131 602Q132 615 120 625T93 641T65 650Q51 653 55 665Q57 672 63 673T73 674H529Q542 674 547 669T552 647L546 544Q546 542 545 537T539 528Q533
526 528 528T521 534Q512 578 500 599T464 626T394 633H171Q188 629 194 619T199 597L186 357H322Q354 357 374 366T406 400Q412 411 423 407Q429 405 430 400T431 391L425 284Q425 280 424 275T417 268Q406 264 400 275Q379 318 318 318H184L172 93Q171 61 195
49T247 31Q255 30 258 24T259 11Q256 3 242 3H26Z" />
<glyph unicode="G" glyph-name="G" horiz-adv-x="705" d="M35 316Q35 391 62 457T136 573T245 651T375 680Q426 680 478 665T570 616T625 530Q631 508 613 488T570 462Q547 459 544 476Q542 487 544 496T545 515Q535 574 486 603T372 630Q326 628 280 608T195
550T133 453T109 317Q109 263 127 212T179 121T259 56T360 32Q421 32 466 51T538 97T572 152Q575 180 577 205T583 249Q590 282 604 292T631 309Q620 309 600 310T554 311Q532 311 509 310T467 303Q451 299 445 292T435 279Q429 269 420 271Q411 273 412 283L417
332Q419 350 435 350H664Q676 350 676 339Q676 335 673 329Q664 315 658 298T648 259Q646 239 645 201T638 115T615 21Q597 -31 555 -80T453 -163T316 -207Q312 -201 312 -194Q312 -187 316 -180T334 -169Q429 -135 484 -78T560 56Q537 34 503 21T432 1T363 -6Q266
-6 192 34T77 147T35 316Z" />
<glyph unicode="H" glyph-name="H" horiz-adv-x="748" d="M45 0Q41 0 37 1T30 7Q27 12 30 19T42 28Q72 33 96 48T121 86L148 585Q150 610 128 625T75 646Q67 648 65 655T66 667Q68 671 72 672T81 674H293Q297 674 302 673T308 667Q311 661 308 655T295 646Q266
641 243 626T217 584L204 357H564L576 589Q577 611 556 626T504 646Q496 648 494 654T495 667Q497 671 501 672T510 674H720Q732 674 735 666Q738 660 734 654T722 646Q693 641 670 626T645 588L617 86Q616 64 638 49T690 28Q698 27 701 21T700 7Q697 3 693 2T685
0H474Q462 0 459 8Q456 14 459 20T471 28Q501 33 524 48T549 86L562 318H202L189 86Q188 64 210 49T262 28Q270 27 273 21T272 7Q268 0 257 0H45Z" />
<glyph unicode="I" glyph-name="I" horiz-adv-x="332" d="M130 96L155 578Q157 608 136 624T84 646Q76 648 74 654T75 667Q77 671 81 672T90 674H300Q305 674 309 673T315 667Q318 661 314 655T302 646Q273 641 250 625T224 577L198 96Q196 66 217 50T269 28Q277
27 280 21T279 7Q277 3 273 2T264 0H54Q43 0 39 8Q36 13 39 20T51 28Q81 33 104 49T130 96Z" />
<glyph unicode="J" glyph-name="J" horiz-adv-x="323" d="M117 52L146 576Q148 602 138 615T110 634T72 644Q65 646 62 652T63 665Q67 672 77 672H292Q296 672 300 671T306 664Q308 658 305 652T293 644Q274 641 257 635T228 616T214 576L187 74Q180 -62 140 -120T13
-180Q-12 -180 -39 -170T-87 -141T-115 -93Q-119 -75 -102 -61T-60 -45Q-49 -44 -41 -47T-31 -58Q-29 -65 -32 -71T-37 -84Q-35 -109 -16 -127T32 -143Q63 -140 80 -113T106 -43T117 52Z" />
<glyph unicode="K" glyph-name="K" horiz-adv-x="664" d="M27 0Q17 0 13 7Q9 13 12 20T24 28Q54 33 78 49T103 96L129 579Q131 608 110 624T57 646Q49 648 47 654T48 667Q50 671 54 672T63 674H273Q285 674 289 665Q291 659 287 654T275 646Q246 641 223 625T198
578L171 96Q169 66 190 50T242 28Q250 27 254 20T253 7Q250 3 246 2T237 0H27ZM243 335Q237 352 237 365T249 389L476 611Q490 625 473 635T427 649Q413 651 415 662T430 673H618Q633 673 632 662T619 649Q598 646 581 638T545 611L304 378Q316 322 349 274T412
192Q441 160 481 126T566 65T656 28Q661 14 649 4T619 -2Q553 13 485 50T361 145Q318 191 289 242T243 335Z" />
<glyph unicode="L" glyph-name="L" horiz-adv-x="620" d="M160 570Q162 600 140 616T88 638Q80 640 77 646T77 659Q84 666 94 666H304Q308 666 312 665T317 659Q321 653 318 647T306 638Q275 633 253 617T228 570L200 47H371Q413 47 437 50T476 62T500 92T520
148Q523 159 534 158T545 142L539 25Q538 1 517 1L54 3Q41 3 41 15T50 29Q66 32 85 38T118 55T133 80L160 570Z" />
<glyph unicode="M" glyph-name="M" horiz-adv-x="840" d="M611 1Q607 1 602 2T595 10Q593 15 595 21T604 29Q635 36 652 47T669 95L665 579L416 87Q389 78 378 107L187 581L140 97Q136 59 156 47T205 29Q213 28 214 22T213 10Q211 6 206 5T197 3H24Q13 3 9 10Q7
15 9 21T18 29Q44 35 66 46T92 97L137 600Q139 619 122 630T77 650Q67 653 69 663Q71 669 75 671T83 673H179Q214 673 224 662T241 633L417 195L639 634Q649 653 659 663T694 673H793Q797 673 802 672T808 665Q812 654 799 649Q776 642 755 629T733 590L737 95Q737
61 757 49T800 29Q815 24 810 10Q807 1 795 1H611Z" />
<glyph unicode="N" glyph-name="N" horiz-adv-x="732" d="M152 87Q151 61 170 46T213 26Q227 24 226 14T211 3H36Q20 3 21 14T32 26Q58 30 77 45T97 87L122 588Q124 614 106 627T60 650Q51 653 52 663T69 673H171Q201 673 217 657T250 614L566 126L602 593Q604
619 587 631T543 650Q530 653 532 663T546 673H720Q735 673 735 663T724 650Q701 644 680 632T656 593L617 10Q616 0 605 -1Q584 -2 574 1T557 14T541 37L177 598L152 87Z" />
<glyph unicode="O" glyph-name="O" horiz-adv-x="709" d="M34 316Q34 391 60 457T132 573T239 651T373 680Q439 680 496 655T594 585T657 476T674 337Q671 265 644 203T570 94T465 21T337 -6Q250 -6 182 34T74 147T34 316ZM600 347Q600 426 572 490T491 593T363
632Q304 632 257 607T176 539T126 441T108 326Q108 274 122 224T165 133T239 68T345 43Q404 43 451 68T532 136T582 234T600 347Z" />
<glyph unicode="P" glyph-name="P" horiz-adv-x="589" d="M240 303Q221 305 215 316T208 339L286 338Q378 337 427 375T480 483Q483 531 459 565T392 619T291 638H162Q183 638 190 626T197 601T198 584L171 81Q170 50 191 39T234 24Q244 23 244 12T228 1H43Q30
1 29 11T39 24Q64 30 83 40T103 81L130 581Q131 603 116 615T80 634T44 646Q34 649 35 661T54 674H293Q389 674 447 647T532 576T555 483Q553 434 525 392T443 326T309 302L240 303Z" />
<glyph unicode="Q" glyph-name="Q" horiz-adv-x="702" d="M34 316Q34 391 60 457T132 573T239 651T373 680Q439 680 496 655T594 585T657 476T674 337Q671 260 640 194T556 81T438 11Q464 -11 515 -40T639 -97T803 -140T1001 -154Q1105 -151 1170 -129T1268 -72Q1276
-75 1276 -84T1270 -100Q1240 -133 1190 -154T1079 -186T960 -198Q791 -203 634 -153T326 -6Q242 -3 176 38T72 150T34 316ZM600 347Q600 426 572 490T491 593T363 632Q304 632 257 607T176 539T126 441T108 326Q108 274 122 224T165 133T239 68T345 43Q404 43
451 68T532 136T582 234T600 347Z" />
<glyph unicode="R" glyph-name="R" horiz-adv-x="703" d="M399 130Q373 159 349 194T308 268T290 342Q398 348 443 388T489 496Q491 558 448 594T319 630H183Q200 628 205 616T211 592T210 576L184 80Q183 49 202 39T244 24Q249 23 251 18T252 8Q250 3 245 2T235
1H56Q52 1 47 2T39 8Q38 13 40 18T48 24Q74 31 93 40T114 80L140 573Q141 595 127 609T92 631T55 643Q45 646 46 658T65 671H321Q417 671 470 646T545 581T564 499Q563 450 535 414T464 354T371 320Q377 286 398 248T452 172Q496 121 554 80T672 23Q677 9 666 -2T635
-9Q556 11 498 49T399 130Z" />
<glyph unicode="S" glyph-name="S" horiz-adv-x="550" d="M162 523Q162 485 182 460T236 414T314 372Q349 355 383 337T445 297T491 243T508 168Q508 120 480 78T401 10T280 -17Q205 -17 152 10T71 79T43 162Q43 186 60 199T105 214Q137 216 139 196Q141 186 135
181T126 163Q124 137 140 104T192 47T281 23Q333 23 366 43T417 96T435 164Q436 202 410 228T345 274T263 315Q224 335 185 359T119 421T92 513Q92 557 119 595T196 658T312 683Q375 683 418 660T483 603T505 539Q505 499 454 494Q435 493 426 499T417 514Q417
526 423 533T429 549Q430 563 418 585T379 626T307 644Q255 644 223 625T177 577T162 523Z" />
<glyph unicode="T" glyph-name="T" horiz-adv-x="640" d="M184 0Q171 0 170 13T182 28Q208 31 227 38T258 63T272 116L299 626H180Q152 626 134 624T104 613T81 583T56 524Q50 510 37 514Q29 517 29 528L38 641Q40 654 42 659T49 667Q53 669 62 669T98 670T185
671H569Q598 671 608 670T623 666Q629 663 629 645V529Q629 526 628 522T621 515Q616 513 611 514T604 521Q592 559 582 580T559 611T524 623T468 626H368L341 116Q339 81 349 63T378 38T422 28Q436 26 434 13T419 0H184Z" />
<glyph unicode="U" glyph-name="U" horiz-adv-x="750" d="M144 593Q146 618 129 628T86 646Q80 648 78 653T78 663Q81 668 85 669T93 670H273Q277 670 282 669T289 663Q291 658 288 654T280 647Q258 641 236 629T212 592Q205 492 199 397T193 213Q193 151 218
111T284 51T371 32Q417 32 458 49T527 107T562 212Q571 301 574 397T579 593Q580 618 563 629T520 647Q514 649 513 654T513 663Q515 668 519 669T527 670H709Q713 670 717 669T724 663Q726 658 723 654T714 647Q692 642 670 630T647 593Q643 497 639 404T629 224Q625
156 602 111T542 40T461 2T369 -10Q306 -10 250 15T159 95T126 234Q129 326 134 412T144 593Z" />
<glyph unicode="V" glyph-name="V" horiz-adv-x="700" d="M295 -3L83 598Q73 626 61 634T27 647Q17 649 17 660T31 671H224Q238 671 237 660T227 647Q213 645 193 642T158 632T147 611L329 96L552 596Q561 615 550 625T519 640T480 645Q467 646 467 658T480 671H672Q685
671 685 661T673 647Q645 640 632 632T604 595L363 56Q354 35 347 21T329 1T295 -3Z" />
<glyph unicode="W" glyph-name="W" horiz-adv-x="973" d="M28 645Q17 647 18 659T32 672H236Q248 672 248 659T238 645Q224 644 205 640T172 626T164 596L288 124L469 637Q477 662 485 670T516 673L658 123L832 594Q840 615 828 625T795 639T757 645Q744 647 746
659T759 672H948Q959 672 960 660T950 646Q935 643 917 637T888 602L667 4Q645 -6 632 4T613 34L483 535L296 2Q276 -5 262 4T242 34L93 602Q86 629 71 635T28 645Z" />
<glyph unicode="X" glyph-name="X" horiz-adv-x="694" d="M24 2Q11 2 10 14T19 30Q26 32 40 34T71 42T101 64L336 346L144 614Q135 627 119 634T89 644T70 648Q59 651 60 661T73 672H272Q286 672 285 661T276 648Q270 647 255 645T229 636T227 616L381 401L559
614Q568 625 560 632T538 643T518 648Q508 650 508 661T522 672H684Q700 672 699 661T690 648Q681 647 661 642T625 618L410 360L613 77Q636 45 657 39T693 29Q705 27 704 14T690 1H490Q476 1 476 13T484 28Q494 30 509 34T535 47T536 66L365 306L161 62Q152 51
155 45T168 35T186 29Q197 27 196 15T180 2H24Z" />
<glyph unicode="Y" glyph-name="Y" horiz-adv-x="622" d="M218 1Q202 1 202 13T211 28Q228 32 245 36T275 51T289 81L300 275L101 588Q85 613 76 624T55 642Q44 646 31 649Q22 651 22 662T37 673H235Q251 673 250 661T237 648Q221 648 202 645T171 634T167 613L347
324L552 612Q560 623 551 630T524 641T489 648Q476 650 476 661T493 673H659Q673 673 673 662T661 648Q656 647 651 646T640 642Q627 635 618 624T591 588L367 269L357 81Q356 61 368 51T397 37T429 28Q440 25 439 13T419 1H218Z" />
<glyph unicode="Z" glyph-name="Z" horiz-adv-x="605" d="M32 32L449 586Q465 607 485 616T530 625H246Q194 625 167 618T125 589T97 524Q93 513 82 514T71 528L77 648Q79 666 100 666L561 664Q575 664 578 657T573 637L127 45H382Q434 45 461 52T502 81T530 146Q533
156 545 155T556 138L550 32Q549 16 544 10T528 4L43 6Q32 6 28 13T32 32Z" />
<glyph unicode="[" glyph-name="bracketleft" horiz-adv-x="360" d="M188 721V-83Q188 -99 182 -110T164 -127V-129H295Q320 -129 332 -140T343 -169H131V807H343Q344 789 332 778T295 767H164V765Q175 760 181 749T188 721Z" />
<glyph unicode="\" glyph-name="backslash" horiz-adv-x="340" d="M83 741L327 -141Q288 -144 275 -131T257 -102L16 771Q44 777 61 766T83 741Z" />
<glyph unicode="]" glyph-name="bracketright" horiz-adv-x="360" d="M173 721Q173 738 180 749T197 765V767H66Q41 767 29 778T18 807H230V-169H18Q17 -151 29 -140T66 -129H197V-127Q187 -122 180 -111T173 -83V721Z" />
<glyph unicode="^" glyph-name="asciicircum" horiz-adv-x="400" d="M202 640Q201 633 199 626T189 604L75 400Q62 408 53 427T52 462L173 678Q178 687 190 689T214 690T230 678L347 461Q356 445 347 427T323 400L214 604Q207 618 205 625T202 640Z" />
<glyph unicode="_" glyph-name="underscore" horiz-adv-x="500" d="M78 -46H466Q466 -94 417 -94H33Q33 -65 46 -56T78 -46Z" />
<glyph unicode="`" glyph-name="grave" horiz-adv-x="450" d="M180 728Q203 728 221 716Q233 709 248 665T301 534Q303 529 299 527T289 524Q275 522 269 531Q214 618 178 662T145 715Q148 722 158 725T180 728Z" />
<glyph unicode="a" glyph-name="a" horiz-adv-x="542" d="M201 -11Q159 -11 121 12T59 81T35 189Q35 245 55 298T112 395T195 464T298 490Q354 490 391 472T444 437L432 79Q431 67 435 57T456 46Q466 46 481 55T509 80Q514 87 521 85T527 73Q521 42 494 16T429
-11Q399 -11 384 8T370 52L374 156Q363 118 339 79T280 15T201 -11ZM108 188Q108 151 120 117T156 60T214 38Q245 38 273 60T323 117T360 194T376 273L380 362Q381 378 380 388T373 406Q362 424 339 437T287 450Q245 450 212 425T155 360T120 275T108 188Z" />
<glyph unicode="b" glyph-name="b" horiz-adv-x="550" d="M87 -11L110 624Q109 624 109 624T107 625Q105 625 102 624T91 619Q76 610 61 610Q42 610 25 627Q42 638 66 654T111 685T140 701Q143 702 146 702T152 703Q173 703 173 682L159 302Q186 397 239 441T348
486Q410 486 448 449T501 353T508 229Q502 172 476 123T410 39T325 -7Q307 -11 282 -11T232 -3T188 24Q180 32 178 42T185 63Q212 36 251 29T328 43Q367 66 397 110T436 215Q444 271 435 320T399 401T331 432Q287 432 243 391T173 257Q167 234 164 216T158 175T154
117L150 46Q149 16 136 1T87 -11Z" />
<glyph unicode="c" glyph-name="c" horiz-adv-x="484" d="M267 35Q317 36 353 62T411 122Q421 140 445 131Q444 120 433 97T399 50T341 8T258 -11Q190 -12 139 18T61 101T35 216Q37 282 60 334T121 422T203 476T291 495Q348 495 384 476T437 432T454 392Q454 379
445 366T422 345T399 337T385 350Q384 356 386 363T388 374Q381 411 355 432T292 455Q246 457 205 427T138 345T109 229Q107 180 126 135T181 63T267 35Z" />
<glyph unicode="d" glyph-name="d" horiz-adv-x="554" d="M210 -7Q171 -7 131 16T63 84T35 197Q35 248 52 300T103 397T183 468T289 494Q319 493 338 483T367 462Q375 453 377 444T365 426Q354 441 334 448T293 455Q244 455 209 429T152 364T119 282T108 206Q108
160 121 123T160 63T223 40Q258 40 288 59T341 110T379 175T394 239L408 633Q407 634 404 634T390 628Q350 607 324 636Q340 647 364 663T409 694T438 710Q452 715 462 710T471 692L449 79Q448 67 452 57T473 46Q483 46 499 55T527 80Q532 87 539 85T544 73Q538
42 511 16T446 -11Q416 -11 401 8T387 52L390 133Q376 100 350 68T289 15T210 -7Z" />
<glyph unicode="e" glyph-name="e" horiz-adv-x="494" d="M258 41Q298 38 329 51T383 84T415 120Q420 129 431 131T451 125Q448 115 436 94T401 49T341 10T256 -7Q192 -7 141 22T62 103T35 223Q37 287 62 338T126 424T212 478T304 497Q347 497 374 484T418 451T440
414T447 383Q447 344 423 311T358 254T267 218T165 205Q147 205 141 215T138 235Q175 235 216 246T295 276T355 320T379 371Q379 409 356 432T294 457Q243 458 203 427T138 346T110 236Q108 185 124 142T175 72T258 41Z" />
<glyph unicode="f" glyph-name="f" horiz-adv-x="396" d="M23 -214Q-12 -215 -44 -202T-88 -163Q-95 -146 -82 -132T-43 -115Q-34 -114 -26 -116T-15 -126Q-13 -133 -15 -140T-18 -152Q-16 -164 -5 -174T25 -184Q54 -184 72 -166T100 -117T114 -52T120 18T122
80L130 435Q108 434 97 433T74 428Q59 423 56 416Q52 410 45 411T38 422L41 463Q42 468 44 471T54 474H131Q139 607 186 666T307 726Q347 726 379 706T416 660Q418 646 406 635T378 619T355 621Q350 626 350 634T353 649Q349 663 335 675T300 688Q269 689 249 671T219
624T203 560T197 494L196 474H311Q326 474 324 463L321 422Q320 413 313 412T303 416Q302 419 298 422T284 429Q271 433 255 434T195 435L182 27Q180 -35 166 -89T119 -178T23 -214Z" />
<glyph unicode="g" glyph-name="g" horiz-adv-x="485" d="M426 92Q423 2 402 -69T333 -180T202 -221Q154 -221 117 -207T58 -172T31 -134Q27 -120 37 -107T69 -87Q82 -83 93 -83T109 -92Q114 -99 113 -108T108 -126Q109 -132 119 -146T152 -171T207 -183Q252 -183
282 -161T329 -101T355 -20T365 65L369 174Q362 145 348 114T312 55T260 10T192 -8Q149 -8 113 16T54 84T32 189Q32 241 50 294T101 391T181 463T283 490Q345 490 384 472T438 437L426 92ZM96 188Q96 127 122 83T202 39Q237 39 266 60T318 117T354 192T369 271L375
388Q368 412 343 430T278 449Q232 449 198 423T142 356T108 271T96 188Z" />
<glyph unicode="h" glyph-name="h" horiz-adv-x="575" d="M91 1L111 635Q109 636 105 636T93 630Q53 608 25 638Q42 649 66 665T113 695T142 712Q156 717 165 712T174 693L161 305Q174 355 207 397T283 466T368 491Q396 491 420 481T460 445T472 372L456 82Q455
70 459 60T480 49Q490 49 505 58T533 83Q538 90 545 88T551 76Q545 45 518 19T453 -8Q423 -8 408 11T394 55L411 374Q413 398 399 415T343 434Q324 434 294 421T234 380T182 306T158 197L153 46Q152 12 138 5T91 1Z" />
<glyph unicode="i" glyph-name="i" horiz-adv-x="281" d="M79 666Q76 676 88 680T119 682T156 669T182 641Q190 622 176 603T143 578Q134 575 117 578T97 598Q97 606 93 625T79 666ZM95 51L116 407Q115 408 112 408T98 402Q58 381 32 410Q48 421 72 437T117 468T146
484Q160 489 170 484T179 466L157 78Q156 66 160 56T181 45Q191 45 206 54T234 79Q239 86 246 84T252 72Q246 41 219 15T154 -12Q124 -12 109 7T95 51Z" />
<glyph unicode="j" glyph-name="j" horiz-adv-x="274" d="M66 666Q63 676 75 680T106 682T143 669T169 641Q177 622 163 603T130 578Q121 575 104 578T84 598Q84 606 80 625T66 666ZM106 50L119 410Q118 411 114 411T100 405Q60 384 34 413Q50 424 75 440T124
471T154 487Q165 491 174 487T182 468L169 78Q167 17 158 -30T129 -111Q107 -149 72 -169T-12 -188Q-43 -187 -72 -174T-112 -136Q-119 -119 -107 -108T-73 -92Q-62 -90 -53 -91T-41 -101Q-39 -108 -42 -114T-44 -125Q-39 -138 -25 -145T7 -153Q48 -152 68 -122T96
-46T106 50Z" />
<glyph unicode="k" glyph-name="k" horiz-adv-x="513" d="M25 638Q42 649 66 665T113 696T142 712Q156 717 165 712T174 693L151 55Q150 16 137 9T91 3L111 635Q109 636 105 636T93 630Q53 608 25 638ZM420 -4Q398 -4 377 7T334 37Q315 53 293 80T250 139T212
204T184 264Q210 279 244 300T311 349Q364 391 383 430Q385 440 381 448T380 470Q382 480 393 484T419 487Q439 486 454 476T468 451Q466 429 447 405T399 357T339 313T280 280T237 261Q244 244 260 220T297 169T342 120T384 82Q397 72 413 65T445 60Q456 62 469
70T492 92Q498 100 506 96T512 81Q508 66 495 46T463 11T420 -4Z" />
<glyph unicode="l" glyph-name="l" horiz-adv-x="256" d="M78 48L109 629Q108 630 105 630T91 624Q51 603 25 632Q41 643 65 659T110 690T139 706Q153 711 163 706T172 688L140 75Q139 63 143 53T164 42Q174 42 190 51T218 76Q223 83 230 80T236 67Q229 34 202
10T137 -15Q107 -15 92 4T78 48Z" />
<glyph unicode="m" glyph-name="m" horiz-adv-x="826" d="M368 2L382 345Q384 390 367 411T321 433Q278 433 237 401T172 310Q161 281 158 253T152 182L145 54Q144 20 133 10T84 3L104 400Q100 404 86 395Q46 373 18 403Q35 414 59 430T104 461T133 477Q147 482
156 477T165 458L158 343Q169 375 197 409T265 466T346 490Q371 490 396 477T435 429T444 332Q454 369 481 405T547 465T632 490Q670 490 701 460T730 369L718 91Q717 79 721 69T742 58Q752 58 768 67T796 92Q801 99 808 97T813 85Q807 54 780 28T715 1Q685 1 670
20T656 64L669 363Q671 395 655 414T607 433Q564 433 522 401T457 310Q446 281 442 253T435 182L428 54Q427 20 416 10T368 2Z" />
<glyph unicode="n" glyph-name="n" horiz-adv-x="557" d="M87 3L105 399Q100 404 85 394Q46 373 18 402Q35 413 59 429T104 460T133 476Q147 481 156 476T165 457L157 316Q175 360 205 399T275 462T363 487Q385 487 410 477T452 440T466 365L449 85Q448 69 452
58T473 46Q484 46 497 56T517 80Q521 87 528 85T534 73Q528 44 505 19T446 -6Q416 -6 401 13T387 57L404 365Q406 394 388 412T338 431Q289 432 243 391T166 262Q161 247 158 228T153 186L148 59Q147 25 135 12T87 3Z" />
<glyph unicode="o" glyph-name="o" horiz-adv-x="540" d="M248 -7Q189 -7 141 24T66 113T46 244Q53 318 86 374T173 461T290 493Q349 493 397 462T473 374T494 244Q488 170 454 113T366 25T248 -7ZM115 244Q113 186 130 138T181 61T260 32Q305 32 341 60T399 137T424
244Q427 302 409 349T358 425T280 454Q235 454 199 426T140 350T115 244Z" />
<glyph unicode="p" glyph-name="p" horiz-adv-x="529" d="M148 -114L146 -162Q145 -191 133 -205T81 -216L101 294Q70 244 52 186Q46 186 39 193T37 221Q47 259 64 294T103 360L107 457Q107 482 127 493T167 494L165 426Q205 461 249 478T333 490Q390 484 427
447T480 354T488 233Q482 176 456 127T392 43T310 -3Q282 -10 246 -8T186 12Q175 20 176 29T180 42Q206 25 242 25T313 47Q350 70 378 114T416 219Q424 275 414 322T379 399T316 436Q280 443 240 426T163 372L148 -114Z" />
<glyph unicode="q" glyph-name="q" horiz-adv-x="500" d="M35 193Q35 244 52 296T103 393T184 464T290 490Q352 490 391 472T445 437L424 -148Q424 -166 422 -181T407 -207T360 -217L375 174Q368 144 352 112T313 53T262 8T203 -11Q163 -12 124 11T60 80T35 193ZM285
449Q240 449 207 424T152 359T119 277T108 202Q108 156 120 119T155 59T212 36Q242 36 271 58T323 115T360 192T377 271L382 367Q384 390 370 410Q359 426 338 437T285 449Z" />
<glyph unicode="r" glyph-name="r" horiz-adv-x="387" d="M18 419Q35 430 59 446T104 477T133 493Q147 498 158 493T168 474L156 234Q170 310 201 365T270 452T335 493Q347 497 354 494T370 481Q386 463 387 440T368 414Q361 413 355 415T343 420Q318 422 286
398T224 326T173 207T147 45Q146 19 132 8T84 1L104 416Q102 417 98 417T86 411Q46 390 18 419Z" />
<glyph unicode="s" glyph-name="s" horiz-adv-x="454" d="M136 381Q136 354 152 337T197 305T257 274Q291 257 327 238T387 190T409 117Q408 78 382 47T315 -2T223 -19Q162 -18 121 5T59 60T35 121Q33 154 76 160Q108 165 117 150Q122 143 118 134T108 114Q110
93 123 72T161 35T225 19Q277 18 310 45T344 111Q345 141 326 159T276 192T215 223Q185 239 153 257T98 304T76 375Q77 413 101 441T166 486T257 500Q307 498 338 480T386 438T403 400Q404 392 400 379T372 354Q359 348 348 349T335 361Q334 368 336 375T343 390Q345
397 336 414T306 446T250 462Q197 464 167 440T136 381Z" />
<glyph unicode="t" glyph-name="t" horiz-adv-x="342" d="M94 104L108 437Q86 436 75 435T53 430Q38 425 35 418Q31 412 24 414T17 426L21 465Q23 476 36 476H110L114 571Q115 595 128 609T177 622L171 476H290Q304 476 302 465L298 426Q297 416 291 414T280 418Q277
425 262 430Q249 435 232 436T169 437L155 120Q154 83 168 67T206 48Q230 47 252 57T292 84Q298 90 306 85T311 70Q298 38 263 15T188 -8Q169 -8 146 2T108 36T94 104Z" />
<glyph unicode="u" glyph-name="u" horiz-adv-x="570" d="M192 -11Q168 -11 142 0T100 38T86 113L103 408Q102 409 98 409T84 403Q44 382 18 411Q35 422 59 438T104 469T132 485Q146 490 156 485T166 466L147 114Q146 86 164 66T217 45Q261 44 308 85T384 214Q389
231 393 258T398 307L405 433Q407 465 420 479T468 489L452 79Q451 67 455 57T476 46Q486 46 502 55T530 80Q535 87 542 85T547 73Q541 42 514 16T449 -11Q419 -11 404 8T390 52L393 160Q377 114 347 75T277 13T192 -11Z" />
<glyph unicode="v" glyph-name="v" horiz-adv-x="483" d="M228 2Q218 -6 207 -4T194 9Q171 117 145 215T80 397Q78 397 75 396T65 386Q57 377 43 372T10 376Q21 391 36 412T65 450T85 474Q96 485 108 482T124 468Q158 384 188 278T240 65Q279 98 311 146T364 248T393
347T391 421Q387 424 380 425T365 430Q358 435 358 443T365 460Q375 474 392 481T426 488T446 470Q452 446 453 413T449 351Q441 280 406 214T324 94T228 2Z" />
<glyph unicode="w" glyph-name="w" horiz-adv-x="738" d="M238 64Q266 92 293 139T337 243T356 355T333 453Q339 468 355 476T387 484T407 469Q440 376 471 279T527 69Q559 106 586 154T630 254T653 348T646 419Q640 422 634 423T620 429Q613 434 613 443T621
460Q631 473 647 481T680 490T701 476Q711 453 713 420T712 357Q705 284 675 218T603 97T519 3Q509 -6 498 -4T484 9Q465 95 445 178T397 328Q397 257 371 195T305 82T227 -2Q216 -12 206 -10T194 3Q179 84 162 149T124 275T79 400Q75 401 72 395T59 382Q52 375
40 374T10 382Q20 395 35 413T65 448T85 469Q96 478 106 477T121 464Q146 399 166 338T205 211T238 64Z" />
<glyph unicode="x" glyph-name="x" horiz-adv-x="540" d="M85 -11Q59 -16 36 5Q25 16 20 29T25 52Q33 60 49 58T77 53Q84 52 91 54T106 60Q138 78 174 112T252 196L104 410Q96 411 84 397Q77 387 61 383T26 392Q38 406 52 423T80 456T100 478Q119 497 132 477L291
242Q332 296 355 346T386 434Q385 438 380 439T369 444Q362 449 363 458T373 476Q385 488 403 493T435 495T449 475Q449 439 430 389T381 289T320 199L407 70Q412 62 420 56T438 50Q454 50 465 61T480 94Q485 96 493 90T502 71Q501 34 477 13T429 -10Q395 -12 369
26L282 153Q223 86 170 41T85 -11Z" />
<glyph unicode="y" glyph-name="y" horiz-adv-x="518" d="M394 308Q408 374 396 416Q392 419 383 420T366 425Q359 430 360 440T368 458Q378 470 397 478T432 486T453 470Q459 450 460 418T461 351T456 283Q446 207 428 133T372 -15Q330 -97 274 -152T147 -212Q105
-215 68 -197T19 -148Q14 -134 20 -122T43 -101Q60 -92 76 -93T96 -105Q98 -111 97 -118T94 -131Q96 -148 112 -160T157 -171Q187 -169 214 -149T265 -98T307 -35Q336 16 356 71T383 163L379 166Q368 139 346 106T297 42T248 -6Q240 -13 229 -11T216 -2L82 397Q80
397 77 396T67 386Q59 377 45 372T12 376Q23 391 39 412T70 450T91 474Q102 485 112 482T127 467L258 53Q290 86 317 129T365 218T394 308Z" />
<glyph unicode="z" glyph-name="z" horiz-adv-x="486" d="M42 7Q36 16 38 28T50 48Q109 91 164 150T266 280T342 431Q285 427 232 433T137 432Q116 428 102 412T77 360Q70 359 62 364T54 381Q56 401 65 426T94 469T144 486Q198 485 263 483T407 487Q412 488 414
481T413 467Q392 409 361 350T295 238T224 141T156 72Q210 79 247 76T313 69T368 68Q391 70 409 92T431 145Q454 147 456 128Q457 99 446 72T413 27T363 12Q314 16 264 22T160 27T42 7Z" />
<glyph unicode="{" glyph-name="braceleft" horiz-adv-x="365" d="M345 -182Q317 -177 286 -162T227 -121T182 -63T164 11Q164 55 170 108T184 202Q191 245 178 262T140 286T82 301Q52 309 52 322Q52 336 82 343Q116 351 141 358T178 383T184 442Q178 483 170
527T164 615T186 702Q202 735 229 759T285 798T335 816Q339 811 339 807T330 798Q296 782 279 754T247 691Q229 644 225 603T223 522T231 443Q234 416 224 385T186 340Q174 334 164 332T146 328Q134 326 127 326T120 321Q120 317 127 317T146 315Q154 314 164 312T186
304Q215 292 224 260T231 201Q227 161 223 122T222 41T244 -47Q275 -128 334 -151Q347 -156 348 -166T345 -182Z" />
<glyph unicode="|" glyph-name="bar" horiz-adv-x="270" d="M156 -112Q156 -123 143 -130Q137 -134 129 -134T115 -132V737Q115 748 128 755Q134 759 142 759T156 757V-112Z" />
<glyph unicode="}" glyph-name="braceright" horiz-adv-x="365" d="M25 -182Q21 -177 22 -167T36 -151Q95 -128 126 -47Q144 0 147 41T148 121T139 201Q136 228 146 260T184 304Q196 309 206 311T224 315Q236 317 243 317T250 321Q250 325 243 325T224 328Q217
330 207 332T184 340Q156 354 146 385T139 443Q144 483 147 522T146 602T123 691Q110 726 92 754T40 798Q32 803 32 807T35 816Q57 814 85 800T141 760T184 702Q205 660 206 616T200 527T186 442Q180 402 192 384T229 358T288 343Q318 336 318 322Q318 309 288
301Q257 293 231 287T192 263T186 202Q193 162 199 109T206 11Q206 -29 189 -62T144 -121T85 -161T25 -182Z" />
<glyph unicode="~" glyph-name="asciitilde" horiz-adv-x="640" d="M187 365Q158 365 133 348T86 298Q82 291 71 291T56 302Q84 348 119 383T202 418Q236 418 268 403T333 368T395 333T455 318Q484 318 508 334T554 383Q559 391 570 390T586 381Q558 335 523 300T440
264Q409 264 377 279T312 314T248 349T187 365Z" />
<glyph unicode="&#xa0;" glyph-name="uni00A0" horiz-adv-x="320" />
<glyph unicode="&#xa1;" glyph-name="exclamdown" horiz-adv-x="246" d="M75 411Q81 431 83 448T85 473Q85 488 101 491T124 493Q141 492 155 476T163 441Q158 424 143 414T112 400T84 399T75 411ZM79 -218Q68 -209 74 -192T85 -134Q88 -111 90 -66T95 34T99 143T102
241T104 306Q104 315 113 317T132 318T142 306Q143 285 144 242T148 144T152 34T157 -66T162 -134Q166 -175 171 -191T166 -218Q150 -233 123 -233T79 -218Z" />
<glyph unicode="&#xa2;" glyph-name="cent" horiz-adv-x="510" d="M286 -1Q285 -21 270 -30T237 -35L241 95Q181 101 136 132T67 212T45 321Q48 399 79 456T159 549T259 596L261 662Q262 682 278 691T310 696L307 600Q362 599 396 580T447 536T464 497Q464 484
455 471T432 450T409 442T395 455Q394 461 396 468T398 479Q391 515 366 536T305 560L291 141Q335 146 368 170T421 227Q432 245 457 236Q456 226 446 205T415 160T363 118T289 95L286 -1ZM112 336Q110 290 126 249T172 180T243 143L257 554Q219 542 187 510T134
434T112 336Z" />
<glyph unicode="&#xa3;" glyph-name="sterling" horiz-adv-x="520" d="M118 519Q119 565 139 607T200 676T305 703Q371 703 418 670T479 582Q483 567 475 554T443 532Q427 527 418 530T406 543Q405 552 407 558T409 569Q403 619 375 641T311 664Q253 664 215 625T177
517Q177 484 186 447T206 371L432 370Q439 353 430 338T408 322H220Q230 289 236 258T243 200Q243 165 217 130T124 74V68H447L459 110Q466 133 476 138T501 139L488 48Q486 32 478 21T450 10H36Q34 28 41 49T73 81Q137 104 160 137T184 213Q184 240 177 267T160
322H37Q30 339 39 355T61 371H143Q133 403 125 439T118 519Z" />
<glyph unicode="&#xa4;" glyph-name="currency" horiz-adv-x="500" d="M251 117Q245 132 250 143T266 157Q314 176 338 202T371 257T380 310Q380 341 368 375T328 432T251 456Q207 456 179 433T137 377T123 309Q123 262 149 217T228 154Q218 135 186 143Q161 149
139 164Q123 140 111 121T93 91Q86 80 84 71T72 60Q58 59 39 74Q22 90 20 104Q19 114 28 117T47 129Q56 137 72 152T110 188Q87 211 73 242T59 307Q59 341 71 374T109 432Q89 453 73 468T47 491Q38 499 29 502T20 516Q22 530 39 546Q56 560 72 560Q81 560 83 550T93
529Q98 519 110 500T139 457Q161 471 189 478T253 486Q289 486 317 478T368 456Q385 480 397 499T414 529Q421 540 423 550T435 560Q443 560 451 556T468 546Q476 539 481 532T487 516Q488 506 479 503T460 491Q451 484 435 468T398 432Q423 407 434 376T445 318Q445
279 432 248T395 193Q416 171 433 155T460 131Q469 123 477 119T485 106Q484 92 468 76Q452 61 434 61Q425 62 423 72T414 93Q409 103 396 123T366 168Q342 151 313 139T251 117Z" />
<glyph unicode="&#xa5;" glyph-name="yen" horiz-adv-x="659" d="M92 151Q91 171 99 183T130 195H281L285 269H92Q91 288 99 300T130 313H261L85 588Q69 613 60 624T39 642Q28 646 15 649Q6 651 6 662T21 673H219Q235 673 234 661T221 648Q205 648 186 645T155
634T151 613L331 324L536 612Q544 623 535 630T508 641T473 648Q460 650 460 661T477 673H643Q657 673 657 662T645 648Q640 647 635 646T624 642Q611 635 602 624T575 588L381 313H534Q535 294 527 282T496 269H350L346 195H534Q535 176 527 164T496 151H344L340
81Q339 61 351 51T380 37T413 28Q424 25 423 13T403 1H204Q188 1 188 13T197 28Q214 32 231 36T260 51T274 81L278 151H92Z" />
<glyph unicode="&#xa6;" glyph-name="brokenbar" horiz-adv-x="600" d="M285 378V747Q285 758 298 765Q304 769 312 769T326 767V398Q326 387 313 380Q307 376 299 376T285 378ZM326 -122Q326 -133 313 -140Q307 -144 299 -144T285 -142V227Q285 238 298 245Q304
249 312 249T326 247V-122Z" />
<glyph unicode="&#xa7;" glyph-name="section" horiz-adv-x="600" d="M105 18Q101 34 110 47T141 66Q155 70 166 68T178 57Q180 48 177 42T175 31Q182 -9 216 -34T293 -59Q337 -59 363 -41T400 1T411 40Q411 96 354 132Q323 152 286 167T211 199T143 239Q106 268
93 304T87 377T116 444T169 489Q147 509 135 533T121 586Q120 629 144 663T214 719T321 740Q360 740 396 725T459 685T494 629Q498 616 488 601T459 579Q443 573 435 576T424 589Q423 598 424 605T425 616Q418 657 384 681T307 706Q262 706 237 688T200 646T189
607Q189 551 246 515Q277 496 314 481T389 449T457 408Q495 379 507 343T513 270T484 203T431 158Q453 139 465 114T479 61Q480 19 456 -16T389 -72T288 -93Q244 -93 206 -78T141 -38T105 18ZM140 372Q140 347 151 324T185 286Q216 265 256 249T338 214T413 172Q442
195 451 221T460 275Q460 300 449 323T415 361Q384 382 344 399T262 433T187 475Q159 452 150 427T140 372Z" />
<glyph unicode="&#xa8;" glyph-name="dieresis" horiz-adv-x="450" d="M260 655Q256 664 266 669T294 673T328 662T353 634Q361 614 352 596T321 569Q310 565 294 567T276 586Q275 597 272 615T260 655ZM92 655Q88 664 98 669T127 673T161 662T186 634Q194 614
185 596T153 569Q143 565 127 567T109 586Q108 597 105 615T92 655Z" />
<glyph unicode="&#xa9;" glyph-name="copyright" horiz-adv-x="890" d="M445 6Q368 6 301 31T184 102T105 212T76 352Q76 429 104 492T183 603T301 675T445 701Q522 701 589 676T706 603T785 493T814 352Q814 276 786 213T707 103T589 31T445 6ZM136 352Q136 288
158 232T222 132T320 63T445 38Q513 38 569 62T667 130T731 231T754 352Q754 416 732 473T668 575T570 644T445 669Q377 669 321 644T223 574T159 473T136 352ZM265 361Q265 408 287 453T351 530T455 562Q495 563 525 548T572 510T593 469Q596 453 584 440T558
424T541 432Q540 440 541 444T543 455Q543 484 520 505T458 527Q414 527 385 503T341 442T325 364Q325 322 337 284T379 221T455 194Q496 193 523 213T561 252Q567 263 576 263T595 256Q580 210 542 182T452 155Q395 156 353 183T288 258T265 361Z" />
<glyph unicode="&#xaa;" glyph-name="ordfeminine" horiz-adv-x="374" d="M147 382Q119 382 94 397T53 442T37 513Q37 562 60 607T123 682T210 711Q248 711 273 698T308 676L300 443Q300 436 302 431T312 425Q318 425 327 429T344 444Q349 451 356 449T362 438Q358
417 339 400T294 382Q274 382 264 395T254 425L256 473Q242 440 214 411T147 382ZM91 513Q91 478 107 449T156 420Q182 420 205 443T242 501T258 568L260 626Q260 635 260 641T257 653Q250 664 236 671T203 679Q168 679 143 652T105 587T91 513ZM60 336H331V309Q331
300 322 300H48V327Q48 333 52 334T60 336Z" />
<glyph unicode="&#xab;" glyph-name="guillemotleft" horiz-adv-x="440" d="M170 434Q176 442 194 449T238 448L116 285Q106 270 91 265T50 255V254Q74 250 88 245T110 224L202 52Q175 44 159 50T138 66L37 255L170 434ZM197 255L330 434Q337 442 355 449T398
448L276 285Q265 271 250 265T210 255V254Q234 250 248 245T270 224L362 52Q335 44 319 50T298 66L197 255Z" />
<glyph unicode="&#xac;" glyph-name="logicalnot" horiz-adv-x="550" d="M85 424H512V170Q494 169 480 179T465 212V399Q462 389 451 382T427 375H32Q32 424 85 424Z" />
<glyph unicode="&#xae;" glyph-name="registered" horiz-adv-x="460" d="M231 350Q172 350 123 375T46 446T17 551Q17 610 45 655T123 725T231 751Q291 751 339 726T416 655T445 551Q445 492 417 447T340 376T231 350ZM58 551Q59 502 80 463T141 399T231 374Q282
374 321 398T382 462T404 551Q404 599 382 639T321 703T231 727Q180 727 141 703T81 639T58 551ZM134 450Q134 455 137 456Q145 458 156 461T167 471L168 631Q168 642 158 647T139 654Q136 655 136 659T141 663H223Q273 663 291 646T309 607Q310 584 293 570T255
550Q260 536 267 523T284 501Q295 490 310 477T347 456Q348 452 345 448T336 445Q316 450 295 461T257 489Q247 500 235 520T219 557Q274 562 272 606Q272 627 258 638T223 650H190Q200 649 201 642T202 633L203 471Q203 464 214 461T233 456Q236 454 235 450Q234
448 230 448H140Q136 448 134 450Z" />
<glyph unicode="&#xaf;" glyph-name="overscore" horiz-adv-x="450" d="M128 732H361V713Q361 700 352 691T316 681H89V698Q89 711 97 721T128 732Z" />
<glyph unicode="&#xb0;" glyph-name="degree" horiz-adv-x="284" d="M142 510Q103 510 77 536T50 602Q49 640 76 666T142 693Q181 693 208 667T234 602Q233 563 207 537T142 510ZM87 602Q87 578 102 562T142 545Q167 545 182 561T197 602Q198 625 183 641T142
658Q117 658 102 643T87 602Z" />
<glyph unicode="&#xb1;" glyph-name="plusminus" horiz-adv-x="700" d="M86 334Q85 357 90 370T124 383H323V600Q346 601 359 596T372 562V383H609Q610 361 605 348T571 334H372V117Q350 116 337 121T323 155V334H86ZM88 8Q87 31 92 44T126 57H611Q612 35 607
22T573 8H88Z" />
<glyph unicode="&#xb4;" glyph-name="acute" horiz-adv-x="450" d="M266 728Q277 728 287 725T301 715Q306 707 270 663T178 531Q172 522 157 524Q152 525 148 527T145 534Q183 621 198 665T225 716Q243 728 266 728Z" />
<glyph unicode="&#xb5;" glyph-name="uni00B5" horiz-adv-x="577" d="M105 188L103 469Q117 483 133 486T162 484T173 466Q171 420 165 368T156 265T158 168Q161 141 169 113T198 65T253 45Q294 44 323 68T370 131T397 212T406 288L408 469Q422 483 439 486T468
484T478 466Q473 426 468 374T459 268T455 165T459 82Q461 70 465 60T482 49Q496 48 508 58T532 84Q539 85 545 80T549 65Q542 36 517 13T456 -11Q428 -11 414 8T399 52L400 120Q375 45 335 17T254 -10Q224 -9 202 4T166 37T144 74Q144 32 150 -20T165 -120T183
-202Q186 -213 169 -218T130 -221T93 -205L105 188Z" />
<glyph unicode="&#xb6;" glyph-name="paragraph" horiz-adv-x="600" d="M517 -80Q517 -100 497 -109T459 -114V685Q459 705 480 714T517 719V-80ZM87 526Q87 588 126 632T236 698T401 714V-80Q401 -100 381 -109T343 -114V337Q266 341 208 365T119 430T87 526Z" />
<glyph unicode="&#xb7;" glyph-name="middot" horiz-adv-x="400" d="M155 348Q152 358 163 361T192 360T225 345T247 313Q253 292 241 274T206 251Q194 249 179 253T165 275Q166 286 164 305T155 348Z" />
<glyph unicode="&#xb8;" glyph-name="cedilla" horiz-adv-x="450" d="M206 9Q207 14 219 15T242 15T251 9L230 -39Q227 -45 236 -47Q285 -55 306 -76T327 -127Q327 -172 296 -197T219 -222Q196 -222 175 -215T141 -198Q137 -195 141 -183T152 -174Q166 -181 180
-185T211 -189Q234 -189 254 -174T275 -129Q275 -105 256 -90T198 -73Q187 -73 189 -62L206 9Z" />
<glyph unicode="&#xba;" glyph-name="ordmasculine" horiz-adv-x="372" d="M171 383Q133 383 102 403T53 461T38 548Q43 597 65 633T122 690T199 711Q238 711 270 691T320 634T334 548Q330 499 307 462T249 404T171 383ZM89 548Q87 491 112 453T180 414Q221 414
251 452T282 548Q285 604 260 642T192 681Q165 681 142 663T104 615T89 548ZM60 336H331V309Q331 300 322 300H48V327Q48 333 52 334T60 336Z" />
<glyph unicode="&#xbb;" glyph-name="guillemotright" horiz-adv-x="440" d="M302 434L405 255L270 66Q263 57 246 51T202 52L324 224Q336 239 351 244T392 254V255Q367 259 353 264T330 285L238 448Q265 456 281 449T302 434ZM42 52L164 224Q176 239 191 244T232
254V255Q207 259 194 265T170 285L78 448Q105 456 121 449T142 434L245 255L110 66Q103 57 86 51T42 52Z" />
<glyph unicode="&#xbc;" glyph-name="onequarter" horiz-adv-x="900" d="M251 5L534 679Q539 691 555 701T600 703L319 38Q316 30 310 21T291 7T251 5ZM74 226Q72 226 69 227T65 235Q65 248 72 252T86 257Q115 260 131 263T155 277T162 310L169 637Q159 637 140
632T101 622Q94 618 87 626T81 645Q96 653 119 663T163 682T193 694Q205 699 215 694T223 676L212 310Q211 276 227 269T286 257Q293 256 301 253T307 235Q309 228 305 227T299 226Q184 232 74 226ZM489 125Q476 125 478 139L479 150Q480 168 491 181Q553 258 615
342T738 506Q747 508 761 507T786 500T789 486L538 169H694L708 337Q709 351 726 359T758 361L743 169H783Q803 169 815 184Q823 192 831 189T838 176L834 142Q833 125 818 125H741L734 39Q733 27 721 16T682 12L691 125H489Z" />
<glyph unicode="&#xbd;" glyph-name="onehalf" horiz-adv-x="900" d="M251 5L534 679Q539 691 555 701T600 703L319 38Q316 30 310 21T291 7T251 5ZM64 226Q62 226 59 227T55 235Q55 248 62 252T76 257Q105 260 121 263T145 277T152 310L159 637Q149 637 130 632T91
622Q84 618 77 626T71 645Q86 653 109 663T153 682T183 694Q195 699 205 694T213 676L202 310Q201 276 217 269T276 257Q283 256 291 253T297 235Q299 228 295 227T289 226Q174 232 64 226ZM795 27L502 28Q493 36 496 49T506 68Q536 87 576 121T656 198T721 287T749
374Q750 421 721 442T659 464Q622 464 594 442T559 381Q547 375 536 387T531 416Q538 434 555 455T601 492T668 508Q703 508 734 493T787 450T809 380Q810 340 786 296T723 208T645 130T573 74H724Q750 74 763 77T786 96T807 144Q809 151 819 149T828 135Q826 112
823 89T814 46Q810 27 795 27Z" />
<glyph unicode="&#xbe;" glyph-name="threequarters" horiz-adv-x="900" d="M251 5L534 679Q539 691 555 701T600 703L319 38Q316 30 310 21T291 7T251 5ZM149 223Q103 223 65 243T11 297Q7 312 19 321T47 330Q60 331 68 326T76 314Q76 301 76 299T78 294Q87 276
108 268T155 260Q199 261 227 292T255 370Q255 449 174 458Q161 460 149 458T120 452Q114 451 101 456T89 484Q132 489 167 505T222 545T242 596Q241 619 224 639T166 657Q137 656 110 638T78 577Q72 575 62 579T46 593T43 613Q59 652 99 674T185 697Q233 697 263
671T295 610Q296 579 281 555T244 514T201 489Q249 484 283 454T318 379Q319 336 296 301T234 244T149 223ZM682 12L691 125H489Q476 125 478 139L479 150Q480 168 491 181Q553 258 615 342T738 506Q747 508 761 507T786 500T789 486L538 169H694L708 337Q709 351
726 359T758 361L743 169H783Q803 169 815 184Q823 192 831 189T838 176L834 142Q833 125 818 125H741L734 39Q733 27 721 16T682 12Z" />
<glyph unicode="&#xbf;" glyph-name="questiondown" horiz-adv-x="438" d="M215 441Q209 459 223 475T254 493Q262 495 277 492T293 473Q292 466 294 449T303 411Q305 402 294 399T267 399T235 413T215 441ZM110 -65Q109 -99 121 -129T159 -178T228 -197Q272 -197
302 -170T343 -99Q345 -91 341 -85T341 -69Q344 -61 353 -60T372 -61Q391 -67 401 -81T406 -114Q395 -153 367 -181T303 -223T227 -238Q170 -238 128 -213T62 -149T39 -67Q39 -17 59 18T109 80T168 130T215 177Q236 205 241 223T246 259T244 296Q243 313 257 321T288
322Q293 307 294 285T289 234T256 170Q237 142 213 117T165 65T127 7T110 -65Z" />
<glyph unicode="&#xc0;" glyph-name="Agrave" horiz-adv-x="670" d="M4 9Q3 14 5 19T13 25Q32 30 49 38T80 77L357 676Q391 684 403 648L598 76Q607 50 621 41T657 25Q670 20 666 9Q665 4 661 3T652 1H467Q463 1 458 2T451 9Q450 14 452 19T460 25Q492 33 512
42T525 76L472 231H204L138 89Q127 64 136 53T167 36T211 23Q221 20 217 9Q216 4 211 3T200 1H20Q16 1 11 2T4 9ZM222 270H459L359 566L222 270ZM292 925Q315 925 333 913Q344 906 359 862T413 731Q415 726 411 724T401 721Q386 719 380 728Q325 815 289 859T257
912Q260 919 270 922T292 925Z" />
<glyph unicode="&#xc1;" glyph-name="Aacute" horiz-adv-x="670" d="M4 9Q3 14 5 19T13 25Q32 30 49 38T80 77L357 676Q391 684 403 648L598 76Q607 50 621 41T657 25Q670 20 666 9Q665 4 661 3T652 1H467Q463 1 458 2T451 9Q450 14 452 19T460 25Q492 33 512
42T525 76L472 231H204L138 89Q127 64 136 53T167 36T211 23Q221 20 217 9Q216 4 211 3T200 1H20Q16 1 11 2T4 9ZM222 270H459L359 566L222 270ZM469 924Q480 924 490 921T504 911Q509 903 473 859T381 727Q375 718 360 720Q355 721 351 723T348 730Q386 817 401
861T428 912Q446 924 469 924Z" />
<glyph unicode="&#xc2;" glyph-name="Acircumflex" horiz-adv-x="670" d="M4 9Q3 14 5 19T13 25Q32 30 49 38T80 77L357 676Q391 684 403 648L598 76Q607 50 621 41T657 25Q670 20 666 9Q665 4 661 3T652 1H467Q463 1 458 2T451 9Q450 14 452 19T460 25Q492 33
512 42T525 76L472 231H204L138 89Q127 64 136 53T167 36T211 23Q221 20 217 9Q216 4 211 3T200 1H20Q16 1 11 2T4 9ZM222 270H459L359 566L222 270ZM375 812L237 720Q231 722 226 731T226 746L351 865Q354 868 364 869T385 869T399 865L524 746Q530 741 524 732T512
720L375 812Z" />
<glyph unicode="&#xc3;" glyph-name="Atilde" horiz-adv-x="670" d="M4 9Q3 14 5 19T13 25Q32 30 49 38T80 77L357 676Q391 684 403 648L598 76Q607 50 621 41T657 25Q670 20 666 9Q665 4 661 3T652 1H467Q463 1 458 2T451 9Q450 14 452 19T460 25Q492 33 512
42T525 76L472 231H204L138 89Q127 64 136 53T167 36T211 23Q221 20 217 9Q216 4 211 3T200 1H20Q16 1 11 2T4 9ZM222 270H459L359 566L222 270ZM302 788Q283 788 267 776T236 729Q232 719 218 720T207 733Q219 781 246 808T305 835Q333 835 352 825T388 801T420
778T458 767Q475 767 487 780T513 824Q518 835 531 834T543 822Q534 776 514 748T454 720Q427 720 408 730T374 754T343 777T302 788Z" />
<glyph unicode="&#xc4;" glyph-name="Adieresis" horiz-adv-x="670" d="M4 9Q3 14 5 19T13 25Q32 30 49 38T80 77L357 676Q391 684 403 648L598 76Q607 50 621 41T657 25Q670 20 666 9Q665 4 661 3T652 1H467Q463 1 458 2T451 9Q450 14 452 19T460 25Q492 33 512
42T525 76L472 231H204L138 89Q127 64 136 53T167 36T211 23Q221 20 217 9Q216 4 211 3T200 1H20Q16 1 11 2T4 9ZM222 270H459L359 566L222 270ZM411 811Q407 820 417 825T445 829T479 818T504 790Q512 770 503 752T472 725Q461 721 445 723T427 742Q426 753 423
771T411 811ZM243 811Q239 820 249 825T278 829T312 818T337 790Q345 770 336 752T304 725Q294 721 278 723T260 742Q259 753 256 771T243 811Z" />
<glyph unicode="&#xc5;" glyph-name="Aring" horiz-adv-x="670" d="M4 9Q3 14 5 19T13 25Q32 30 49 38T80 77L357 676Q391 684 403 648L598 76Q607 50 621 41T657 25Q670 20 666 9Q665 4 661 3T652 1H467Q463 1 458 2T451 9Q450 14 452 19T460 25Q492 33 512 42T525
76L472 231H204L138 89Q127 64 136 53T167 36T211 23Q221 20 217 9Q216 4 211 3T200 1H20Q16 1 11 2T4 9ZM222 270H459L359 566L222 270ZM370 720Q333 720 309 744T285 805Q285 847 312 874T380 902Q416 902 440 879T464 817Q464 776 437 748T370 720ZM325 807Q325
787 337 773T372 759Q398 759 411 776T424 815Q424 835 413 849T378 863Q353 863 339 846T325 807Z" />
<glyph unicode="&#xc6;" glyph-name="AE" horiz-adv-x="923" d="M563 47H730Q786 47 814 53T856 81T880 150Q882 159 893 158T904 142L898 29Q897 13 892 7T876 1L425 3Q417 3 413 12Q412 15 414 20T420 27Q436 32 454 37T484 53T496 80L489 231H244L142 89Q126
67 135 55T166 37T211 25Q216 24 217 19T217 9Q215 4 210 3T200 1H20Q14 1 10 2T4 9Q3 14 5 19T13 25Q33 30 47 40T80 77L456 625Q446 636 432 641T405 651Q392 655 398 666Q400 671 405 672T415 673L857 675Q882 675 881 649L875 532Q874 518 863 518T849 527Q841
573 830 595T793 625T710 633H511Q536 629 537 612T540 580L549 362H671Q708 362 728 372T762 406Q767 414 777 413T787 396L781 284Q780 268 770 268T756 276Q745 299 726 311T672 323H551L563 47ZM272 270H487L476 555L272 270Z" />
<glyph unicode="&#xc7;" glyph-name="Ccedilla" horiz-adv-x="639" d="M598 527Q600 515 593 500T572 472T543 457Q532 456 526 461T518 473Q516 484 519 493T519 512Q502 571 460 600T365 630Q317 630 272 611T189 552T130 454T108 317Q108 254 133 195T208 94T325
45Q394 38 449 64T542 145Q552 158 568 158Q583 158 593 144Q567 96 532 66T460 21T388 0T328 -6Q304 -6 281 -2L265 -39Q262 -45 271 -47Q319 -55 340 -76T360 -127Q359 -172 328 -197T251 -222Q228 -222 207 -215T173 -198Q169 -195 173 -183T184 -174Q198 -181
212 -185T243 -189Q266 -189 286 -174T308 -129Q309 -105 290 -90T232 -73Q221 -73 223 -62L242 7Q181 26 134 69T61 175T34 316Q34 391 59 457T130 573T235 651T364 680Q408 680 450 667T527 627Q553 608 573 578T598 527Z" />
<glyph unicode="&#xc8;" glyph-name="Egrave" horiz-adv-x="548" d="M474 1L23 3Q14 3 11 12Q11 15 12 19T18 25Q23 27 28 28T37 30Q52 34 72 47T94 80L121 589Q122 615 99 630T53 651Q40 655 46 666Q48 671 53 672T63 673L505 675Q530 675 529 649L523 532Q522
518 511 518T497 527Q489 573 478 595T441 625T358 633H159Q184 629 186 612T188 580L177 362H299Q336 362 356 372T390 406Q395 414 405 413T415 396L409 284Q408 268 398 268T384 276Q373 299 354 311T300 323H175L161 47H328Q384 47 412 53T454 81T478 150Q480
159 491 158T502 142L496 29Q495 13 490 7T474 1ZM231 925Q254 925 272 913Q283 906 298 862T352 731Q354 726 350 724T340 721Q325 719 319 728Q264 815 228 859T196 912Q199 919 209 922T231 925Z" />
<glyph unicode="&#xc9;" glyph-name="Eacute" horiz-adv-x="548" d="M474 1L23 3Q14 3 11 12Q11 15 12 19T18 25Q23 27 28 28T37 30Q52 34 72 47T94 80L121 589Q122 615 99 630T53 651Q40 655 46 666Q48 671 53 672T63 673L505 675Q530 675 529 649L523 532Q522
518 511 518T497 527Q489 573 478 595T441 625T358 633H159Q184 629 186 612T188 580L177 362H299Q336 362 356 372T390 406Q395 414 405 413T415 396L409 284Q408 268 398 268T384 276Q373 299 354 311T300 323H175L161 47H328Q384 47 412 53T454 81T478 150Q480
159 491 158T502 142L496 29Q495 13 490 7T474 1ZM408 924Q419 924 429 921T443 911Q448 903 412 859T320 727Q314 718 299 720Q294 721 290 723T287 730Q325 817 340 861T367 912Q385 924 408 924Z" />
<glyph unicode="&#xca;" glyph-name="Ecircumflex" horiz-adv-x="548" d="M474 1L23 3Q14 3 11 12Q11 15 12 19T18 25Q23 27 28 28T37 30Q52 34 72 47T94 80L121 589Q122 615 99 630T53 651Q40 655 46 666Q48 671 53 672T63 673L505 675Q530 675 529 649L523 532Q522
518 511 518T497 527Q489 573 478 595T441 625T358 633H159Q184 629 186 612T188 580L177 362H299Q336 362 356 372T390 406Q395 414 405 413T415 396L409 284Q408 268 398 268T384 276Q373 299 354 311T300 323H175L161 47H328Q384 47 412 53T454 81T478 150Q480
159 491 158T502 142L496 29Q495 13 490 7T474 1ZM314 812L176 720Q170 722 165 731T165 746L290 865Q293 868 303 869T324 869T338 865L463 746Q469 741 463 732T451 720L314 812Z" />
<glyph unicode="&#xcb;" glyph-name="Edieresis" horiz-adv-x="548" d="M474 1L23 3Q14 3 11 12Q11 15 12 19T18 25Q23 27 28 28T37 30Q52 34 72 47T94 80L121 589Q122 615 99 630T53 651Q40 655 46 666Q48 671 53 672T63 673L505 675Q530 675 529 649L523 532Q522
518 511 518T497 527Q489 573 478 595T441 625T358 633H159Q184 629 186 612T188 580L177 362H299Q336 362 356 372T390 406Q395 414 405 413T415 396L409 284Q408 268 398 268T384 276Q373 299 354 311T300 323H175L161 47H328Q384 47 412 53T454 81T478 150Q480
159 491 158T502 142L496 29Q495 13 490 7T474 1ZM350 811Q346 820 356 825T384 829T418 818T443 790Q451 770 442 752T411 725Q400 721 384 723T366 742Q365 753 362 771T350 811ZM182 811Q178 820 188 825T217 829T251 818T276 790Q284 770 275 752T243 725Q233
721 217 723T199 742Q198 753 195 771T182 811Z" />
<glyph unicode="&#xcc;" glyph-name="Igrave" horiz-adv-x="332" d="M130 96L155 578Q157 608 136 624T84 646Q76 648 74 654T75 667Q77 671 81 672T90 674H300Q305 674 309 673T315 667Q318 661 314 655T302 646Q273 641 250 625T224 577L198 96Q196 66 217 50T269
28Q277 27 280 21T279 7Q277 3 273 2T264 0H54Q43 0 39 8Q36 13 39 20T51 28Q81 33 104 49T130 96ZM110 925Q133 925 151 913Q162 906 177 862T231 731Q233 726 229 724T219 721Q204 719 198 728Q143 815 107 859T75 912Q78 919 88 922T110 925Z" />
<glyph unicode="&#xcd;" glyph-name="Iacute" horiz-adv-x="332" d="M130 96L155 578Q157 608 136 624T84 646Q76 648 74 654T75 667Q77 671 81 672T90 674H300Q305 674 309 673T315 667Q318 661 314 655T302 646Q273 641 250 625T224 577L198 96Q196 66 217 50T269
28Q277 27 280 21T279 7Q277 3 273 2T264 0H54Q43 0 39 8Q36 13 39 20T51 28Q81 33 104 49T130 96ZM287 924Q298 924 308 921T322 911Q327 903 291 859T199 727Q193 718 178 720Q173 721 169 723T166 730Q204 817 219 861T246 912Q264 924 287 924Z" />
<glyph unicode="&#xce;" glyph-name="Icircumflex" horiz-adv-x="332" d="M130 96L155 578Q157 608 136 624T84 646Q76 648 74 654T75 667Q77 671 81 672T90 674H300Q305 674 309 673T315 667Q318 661 314 655T302 646Q273 641 250 625T224 577L198 96Q196 66
217 50T269 28Q277 27 280 21T279 7Q277 3 273 2T264 0H54Q43 0 39 8Q36 13 39 20T51 28Q81 33 104 49T130 96ZM193 812L55 720Q49 722 44 731T44 746L169 865Q172 868 182 869T203 869T217 865L342 746Q348 741 342 732T330 720L193 812Z" />
<glyph unicode="&#xcf;" glyph-name="Idieresis" horiz-adv-x="332" d="M130 96L155 578Q157 608 136 624T84 646Q76 648 74 654T75 667Q77 671 81 672T90 674H300Q305 674 309 673T315 667Q318 661 314 655T302 646Q273 641 250 625T224 577L198 96Q196 66 217
50T269 28Q277 27 280 21T279 7Q277 3 273 2T264 0H54Q43 0 39 8Q36 13 39 20T51 28Q81 33 104 49T130 96ZM229 811Q225 820 235 825T263 829T297 818T322 790Q330 770 321 752T290 725Q279 721 263 723T245 742Q244 753 241 771T229 811ZM61 811Q57 820 67 825T96
829T130 818T155 790Q163 770 154 752T122 725Q112 721 96 723T78 742Q77 753 74 771T61 811Z" />
<glyph unicode="&#xd0;" glyph-name="Eth" horiz-adv-x="683" d="M26 3Q22 3 18 4T12 12Q10 17 12 23T23 31Q55 36 79 51T104 89L116 312H48V334Q48 345 54 351T76 358H118L131 604Q132 616 120 625T93 641T65 650Q52 653 55 665Q57 672 63 673T73 674H328Q431
674 504 630T616 510T648 340Q643 233 598 158T474 43T292 3H26ZM171 47H295Q336 47 382 62T471 112T542 201T576 336Q581 414 555 482T471 591T325 633H168Q187 632 193 622T199 599T198 579L187 358H371V336Q371 312 343 312H184L171 47Z" />
<glyph unicode="&#xd1;" glyph-name="Ntilde" horiz-adv-x="732" d="M152 87Q151 61 170 46T213 26Q227 24 226 14T211 3H36Q20 3 21 14T32 26Q58 30 77 45T97 87L122 588Q124 614 106 627T60 650Q51 653 52 663T69 673H171Q201 673 217 657T250 614L566 126L602
593Q604 619 587 631T543 650Q530 653 532 663T546 673H720Q735 673 735 663T724 650Q701 644 680 632T656 593L617 10Q616 0 605 -1Q584 -2 574 1T557 14T541 37L177 598L152 87ZM328 788Q309 788 293 776T262 729Q258 719 244 720T233 733Q245 781 272 808T331
835Q359 835 378 825T414 801T446 778T484 767Q501 767 513 780T539 824Q544 835 557 834T569 822Q560 776 540 748T480 720Q453 720 434 730T400 754T369 777T328 788Z" />
<glyph unicode="&#xd2;" glyph-name="Ograve" horiz-adv-x="709" d="M34 316Q34 391 60 457T132 573T239 651T373 680Q439 680 496 655T594 585T657 476T674 337Q671 265 644 203T570 94T465 21T337 -6Q250 -6 182 34T74 147T34 316ZM600 347Q600 426 572 490T491
593T363 632Q304 632 257 607T176 539T126 441T108 326Q108 274 122 224T165 133T239 68T345 43Q404 43 451 68T532 136T582 234T600 347ZM287 925Q310 925 328 913Q339 906 354 862T408 731Q410 726 406 724T396 721Q381 719 375 728Q320 815 284 859T252 912Q255
919 265 922T287 925Z" />
<glyph unicode="&#xd3;" glyph-name="Oacute" horiz-adv-x="709" d="M34 316Q34 391 60 457T132 573T239 651T373 680Q439 680 496 655T594 585T657 476T674 337Q671 265 644 203T570 94T465 21T337 -6Q250 -6 182 34T74 147T34 316ZM600 347Q600 426 572 490T491
593T363 632Q304 632 257 607T176 539T126 441T108 326Q108 274 122 224T165 133T239 68T345 43Q404 43 451 68T532 136T582 234T600 347ZM464 924Q475 924 485 921T499 911Q504 903 468 859T376 727Q370 718 355 720Q350 721 346 723T343 730Q381 817 396 861T423
912Q441 924 464 924Z" />
<glyph unicode="&#xd4;" glyph-name="Ocircumflex" horiz-adv-x="709" d="M34 316Q34 391 60 457T132 573T239 651T373 680Q439 680 496 655T594 585T657 476T674 337Q671 265 644 203T570 94T465 21T337 -6Q250 -6 182 34T74 147T34 316ZM600 347Q600 426 572
490T491 593T363 632Q304 632 257 607T176 539T126 441T108 326Q108 274 122 224T165 133T239 68T345 43Q404 43 451 68T532 136T582 234T600 347ZM370 812L232 720Q226 722 221 731T221 746L346 865Q349 868 359 869T380 869T394 865L519 746Q525 741 519 732T507
720L370 812Z" />
<glyph unicode="&#xd5;" glyph-name="Otilde" horiz-adv-x="709" d="M34 316Q34 391 60 457T132 573T239 651T373 680Q439 680 496 655T594 585T657 476T674 337Q671 265 644 203T570 94T465 21T337 -6Q250 -6 182 34T74 147T34 316ZM600 347Q600 426 572 490T491
593T363 632Q304 632 257 607T176 539T126 441T108 326Q108 274 122 224T165 133T239 68T345 43Q404 43 451 68T532 136T582 234T600 347ZM297 788Q278 788 262 776T231 729Q227 719 213 720T202 733Q214 781 241 808T300 835Q328 835 347 825T383 801T415 778T453
767Q470 767 482 780T508 824Q513 835 526 834T538 822Q529 776 509 748T449 720Q422 720 403 730T369 754T338 777T297 788Z" />
<glyph unicode="&#xd6;" glyph-name="Odieresis" horiz-adv-x="709" d="M34 316Q34 391 60 457T132 573T239 651T373 680Q439 680 496 655T594 585T657 476T674 337Q671 265 644 203T570 94T465 21T337 -6Q250 -6 182 34T74 147T34 316ZM600 347Q600 426 572 490T491
593T363 632Q304 632 257 607T176 539T126 441T108 326Q108 274 122 224T165 133T239 68T345 43Q404 43 451 68T532 136T582 234T600 347ZM406 811Q402 820 412 825T440 829T474 818T499 790Q507 770 498 752T467 725Q456 721 440 723T422 742Q421 753 418 771T406
811ZM238 811Q234 820 244 825T273 829T307 818T332 790Q340 770 331 752T299 725Q289 721 273 723T255 742Q254 753 251 771T238 811Z" />
<glyph unicode="&#xd7;" glyph-name="multiply" horiz-adv-x="600" d="M94 526Q110 543 122 548T156 534L297 393L464 561Q481 545 486 533T472 499L331 359L499 191Q483 175 471 169T437 183L297 324L129 156Q113 172 107 184T121 218L262 359L94 526Z" />
<glyph unicode="&#xd8;" glyph-name="Oslash" horiz-adv-x="709" d="M34 316Q34 391 60 457T132 573T239 651T373 680Q456 680 524 641L548 678Q562 701 577 711T623 708L563 615Q618 570 648 499T674 337Q671 265 644 203T570 94T465 21T337 -6Q254 -6 186 32L149
-26Q141 -39 126 -50T78 -49L148 58Q95 100 65 166T34 316ZM108 326Q108 267 126 210T182 112L492 592Q466 611 434 621T363 632Q304 632 257 607T176 539T126 441T108 326ZM600 347Q600 410 582 465T528 560L218 81Q243 63 275 53T345 43Q404 43 451 68T532 136T582
234T600 347Z" />
<glyph unicode="&#xd9;" glyph-name="Ugrave" horiz-adv-x="750" d="M144 593Q146 618 129 628T86 646Q80 648 78 653T78 663Q81 668 85 669T93 670H273Q277 670 282 669T289 663Q291 658 288 654T280 647Q258 641 236 629T212 592Q205 492 199 397T193 213Q193
151 218 111T284 51T371 32Q417 32 458 49T527 107T562 212Q571 301 574 397T579 593Q580 618 563 629T520 647Q514 649 513 654T513 663Q515 668 519 669T527 670H709Q713 670 717 669T724 663Q726 658 723 654T714 647Q692 642 670 630T647 593Q643 497 639 404T629
224Q625 156 602 111T542 40T461 2T369 -10Q306 -10 250 15T159 95T126 234Q129 326 134 412T144 593ZM322 925Q345 925 363 913Q374 906 389 862T443 731Q445 726 441 724T431 721Q416 719 410 728Q355 815 319 859T287 912Q290 919 300 922T322 925Z" />
<glyph unicode="&#xda;" glyph-name="Uacute" horiz-adv-x="750" d="M144 593Q146 618 129 628T86 646Q80 648 78 653T78 663Q81 668 85 669T93 670H273Q277 670 282 669T289 663Q291 658 288 654T280 647Q258 641 236 629T212 592Q205 492 199 397T193 213Q193
151 218 111T284 51T371 32Q417 32 458 49T527 107T562 212Q571 301 574 397T579 593Q580 618 563 629T520 647Q514 649 513 654T513 663Q515 668 519 669T527 670H709Q713 670 717 669T724 663Q726 658 723 654T714 647Q692 642 670 630T647 593Q643 497 639 404T629
224Q625 156 602 111T542 40T461 2T369 -10Q306 -10 250 15T159 95T126 234Q129 326 134 412T144 593ZM499 924Q510 924 520 921T534 911Q539 903 503 859T411 727Q405 718 390 720Q385 721 381 723T378 730Q416 817 431 861T458 912Q476 924 499 924Z" />
<glyph unicode="&#xdb;" glyph-name="Ucircumflex" horiz-adv-x="750" d="M144 593Q146 618 129 628T86 646Q80 648 78 653T78 663Q81 668 85 669T93 670H273Q277 670 282 669T289 663Q291 658 288 654T280 647Q258 641 236 629T212 592Q205 492 199 397T193 213Q193
151 218 111T284 51T371 32Q417 32 458 49T527 107T562 212Q571 301 574 397T579 593Q580 618 563 629T520 647Q514 649 513 654T513 663Q515 668 519 669T527 670H709Q713 670 717 669T724 663Q726 658 723 654T714 647Q692 642 670 630T647 593Q643 497 639 404T629
224Q625 156 602 111T542 40T461 2T369 -10Q306 -10 250 15T159 95T126 234Q129 326 134 412T144 593ZM405 812L267 720Q261 722 256 731T256 746L381 865Q384 868 394 869T415 869T429 865L554 746Q560 741 554 732T542 720L405 812Z" />
<glyph unicode="&#xdc;" glyph-name="Udieresis" horiz-adv-x="750" d="M144 593Q146 618 129 628T86 646Q80 648 78 653T78 663Q81 668 85 669T93 670H273Q277 670 282 669T289 663Q291 658 288 654T280 647Q258 641 236 629T212 592Q205 492 199 397T193 213Q193
151 218 111T284 51T371 32Q417 32 458 49T527 107T562 212Q571 301 574 397T579 593Q580 618 563 629T520 647Q514 649 513 654T513 663Q515 668 519 669T527 670H709Q713 670 717 669T724 663Q726 658 723 654T714 647Q692 642 670 630T647 593Q643 497 639 404T629
224Q625 156 602 111T542 40T461 2T369 -10Q306 -10 250 15T159 95T126 234Q129 326 134 412T144 593ZM441 811Q437 820 447 825T475 829T509 818T534 790Q542 770 533 752T502 725Q491 721 475 723T457 742Q456 753 453 771T441 811ZM273 811Q269 820 279 825T308
829T342 818T367 790Q375 770 366 752T334 725Q324 721 308 723T290 742Q289 753 286 771T273 811Z" />
<glyph unicode="&#xdd;" glyph-name="Yacute" horiz-adv-x="622" d="M218 1Q202 1 202 13T211 28Q228 32 245 36T275 51T289 81L300 275L101 588Q85 613 76 624T55 642Q44 646 31 649Q22 651 22 662T37 673H235Q251 673 250 661T237 648Q221 648 202 645T171 634T167
613L347 324L552 612Q560 623 551 630T524 641T489 648Q476 650 476 661T493 673H659Q673 673 673 662T661 648Q656 647 651 646T640 642Q627 635 618 624T591 588L367 269L357 81Q356 61 368 51T397 37T429 28Q440 25 439 13T419 1H218ZM455 924Q466 924 476 921T490
911Q495 903 459 859T367 727Q361 718 346 720Q341 721 337 723T334 730Q372 817 387 861T414 912Q432 924 455 924Z" />
<glyph unicode="&#xde;" glyph-name="Thorn" horiz-adv-x="589" d="M106 119L136 593Q138 625 118 635T74 650Q64 652 64 662T80 673H265Q279 673 279 663T269 650Q244 644 225 635T204 593L202 558H291Q387 558 445 531T529 461T552 368Q550 324 522 285T441
221T307 197L238 198Q219 200 213 211T206 234L284 233Q376 232 425 269T478 372Q480 416 457 449T390 502T289 522L160 523Q182 523 189 511T196 485T196 468L174 119L171 81Q169 50 190 39T234 24Q244 23 244 12T228 1H43Q30 1 29 11T39 24Q64 30 82 40T103 81L106
119Z" />
<glyph unicode="&#xdf;" glyph-name="germandbls" horiz-adv-x="610" d="M502 129Q505 179 488 216T441 279T380 321Q361 331 346 334T313 339Q304 340 294 349T292 378Q351 377 385 401T435 463T453 536Q457 587 430 624T348 659Q293 658 252 615T206 489L180
35Q179 18 171 11T152 3H42Q38 3 33 5T26 12Q24 18 27 24T38 31Q70 37 94 52T120 89L136 402Q134 404 128 404Q124 404 120 402T108 398Q100 395 90 393T68 395Q59 398 51 403T36 419Q54 427 84 438T140 458L141 479Q144 547 172 596T247 673T355 702Q412 703 450
680T506 619T521 541Q518 495 496 459T442 399T382 368V364Q476 339 527 282T577 153Q576 96 547 58T475 3T387 -13Q343 -10 308 7T253 52T231 115Q231 136 252 139Q261 141 275 139T300 131Q313 125 312 117T308 100T307 82Q315 57 339 43T395 27Q446 26 473 57T502
129Z" />
<glyph unicode="&#xe0;" glyph-name="agrave" horiz-adv-x="542" d="M201 -11Q159 -11 121 12T59 81T35 189Q35 245 55 298T112 395T195 464T298 490Q354 490 391 472T444 437L432 79Q431 67 435 57T456 46Q466 46 481 55T509 80Q514 87 521 85T527 73Q521 42
494 16T429 -11Q399 -11 384 8T370 52L374 156Q363 118 339 79T280 15T201 -11ZM108 188Q108 151 120 117T156 60T214 38Q245 38 273 60T323 117T360 194T376 273L380 362Q381 378 380 388T373 406Q362 424 339 437T287 450Q245 450 212 425T155 360T120 275T108
188ZM464 741Q487 741 505 729Q516 722 531 678T585 547Q587 542 583 540T573 537Q558 535 552 544Q497 631 461 675T429 728Q432 735 442 738T464 741Z" />
<glyph unicode="&#xe1;" glyph-name="aacute" horiz-adv-x="542" d="M201 -11Q159 -11 121 12T59 81T35 189Q35 245 55 298T112 395T195 464T298 490Q354 490 391 472T444 437L432 79Q431 67 435 57T456 46Q466 46 481 55T509 80Q514 87 521 85T527 73Q521 42
494 16T429 -11Q399 -11 384 8T370 52L374 156Q363 118 339 79T280 15T201 -11ZM108 188Q108 151 120 117T156 60T214 38Q245 38 273 60T323 117T360 194T376 273L380 362Q381 378 380 388T373 406Q362 424 339 437T287 450Q245 450 212 425T155 360T120 275T108
188ZM385 740Q396 740 406 737T420 727Q425 719 389 675T297 543Q291 534 276 536Q271 537 267 539T264 546Q302 633 317 677T344 728Q362 740 385 740Z" />
<glyph unicode="&#xe2;" glyph-name="acircumflex" horiz-adv-x="542" d="M201 -11Q159 -11 121 12T59 81T35 189Q35 245 55 298T112 395T195 464T298 490Q354 490 391 472T444 437L432 79Q431 67 435 57T456 46Q466 46 481 55T509 80Q514 87 521 85T527 73Q521
42 494 16T429 -11Q399 -11 384 8T370 52L374 156Q363 118 339 79T280 15T201 -11ZM108 188Q108 151 120 117T156 60T214 38Q245 38 273 60T323 117T360 194T376 273L380 362Q381 378 380 388T373 406Q362 424 339 437T287 450Q245 450 212 425T155 360T120 275T108
188ZM291 628L153 536Q147 538 142 547T142 562L267 681Q270 684 280 685T301 685T315 681L440 562Q446 557 440 548T428 536L291 628Z" />
<glyph unicode="&#xe3;" glyph-name="atilde" horiz-adv-x="542" d="M201 -11Q159 -11 121 12T59 81T35 189Q35 245 55 298T112 395T195 464T298 490Q354 490 391 472T444 437L432 79Q431 67 435 57T456 46Q466 46 481 55T509 80Q514 87 521 85T527 73Q521 42
494 16T429 -11Q399 -11 384 8T370 52L374 156Q363 118 339 79T280 15T201 -11ZM108 188Q108 151 120 117T156 60T214 38Q245 38 273 60T323 117T360 194T376 273L380 362Q381 378 380 388T373 406Q362 424 339 437T287 450Q245 450 212 425T155 360T120 275T108
188ZM474 604Q455 604 439 592T408 545Q404 535 390 536T379 549Q391 597 418 624T477 651Q505 651 524 641T560 617T592 594T630 583Q647 583 659 596T685 640Q690 651 703 650T715 638Q706 592 686 564T626 536Q599 536 580 546T546 570T515 593T474 604Z" />
<glyph unicode="&#xe4;" glyph-name="adieresis" horiz-adv-x="542" d="M201 -11Q159 -11 121 12T59 81T35 189Q35 245 55 298T112 395T195 464T298 490Q354 490 391 472T444 437L432 79Q431 67 435 57T456 46Q466 46 481 55T509 80Q514 87 521 85T527 73Q521
42 494 16T429 -11Q399 -11 384 8T370 52L374 156Q363 118 339 79T280 15T201 -11ZM108 188Q108 151 120 117T156 60T214 38Q245 38 273 60T323 117T360 194T376 273L380 362Q381 378 380 388T373 406Q362 424 339 437T287 450Q245 450 212 425T155 360T120 275T108
188ZM327 627Q323 636 333 641T361 645T395 634T420 606Q428 586 419 568T388 541Q377 537 361 539T343 558Q342 569 339 587T327 627ZM159 627Q155 636 165 641T194 645T228 634T253 606Q261 586 252 568T220 541Q210 537 194 539T176 558Q175 569 172 587T159
627Z" />
<glyph unicode="&#xe5;" glyph-name="aring" horiz-adv-x="542" d="M201 -11Q159 -11 121 12T59 81T35 189Q35 245 55 298T112 395T195 464T298 490Q354 490 391 472T444 437L432 79Q431 67 435 57T456 46Q466 46 481 55T509 80Q514 87 521 85T527 73Q521 42 494
16T429 -11Q399 -11 384 8T370 52L374 156Q363 118 339 79T280 15T201 -11ZM108 188Q108 151 120 117T156 60T214 38Q245 38 273 60T323 117T360 194T376 273L380 362Q381 378 380 388T373 406Q362 424 339 437T287 450Q245 450 212 425T155 360T120 275T108 188ZM542
536Q505 536 481 560T457 621Q457 663 484 690T552 718Q588 718 612 695T636 633Q636 592 609 564T542 536ZM497 623Q497 603 509 589T544 575Q570 575 583 592T596 631Q596 651 585 665T550 679Q525 679 511 662T497 623Z" />
<glyph unicode="&#xe6;" glyph-name="ae" horiz-adv-x="790" d="M344 223Q344 235 345 246T349 268Q314 262 282 254T208 231Q153 211 126 179T100 112Q101 78 124 56T194 33Q226 33 252 47T297 79T324 109Q330 110 336 103T340 88Q335 68 313 44T255 2T178 -16Q141
-16 107 -2T52 40T30 109Q30 158 56 190T125 244T213 276Q251 286 285 292T350 304L351 318Q354 354 344 384T307 433T234 452Q193 453 159 432T118 376Q118 372 120 365T121 352Q117 338 101 341T71 357T56 387Q57 403 77 427T136 470T229 492Q290 495 336 472T401
390Q439 442 494 470T605 497Q648 497 675 484T719 451T741 414T748 383Q748 344 724 311T660 254T570 218T468 205Q450 205 444 215T441 235Q478 235 519 246T597 276T657 320T680 371Q680 409 657 432T595 457Q544 458 504 427T439 346T411 236Q409 185 427 142T482
71T569 41Q606 40 637 53T692 86T726 122Q732 131 742 132T760 125Q757 113 745 91T709 47T650 9T565 -7Q501 -7 450 22T371 103T344 223Z" />
<glyph unicode="&#xe7;" glyph-name="ccedilla" horiz-adv-x="470" d="M277 35Q327 36 363 62T421 122Q431 140 455 131Q454 120 443 97T409 50T351 8T268 -11Q252 -11 236 -10T206 -4L191 -39Q188 -45 197 -47Q246 -55 267 -76T288 -127Q288 -172 257 -197T180
-222Q157 -222 136 -215T102 -198Q98 -195 102 -183T113 -174Q127 -181 141 -185T172 -189Q195 -189 215 -174T236 -129Q236 -105 217 -90T159 -73Q146 -73 150 -62L167 9Q109 36 76 91T45 216Q47 282 70 334T131 422T213 476T301 495Q358 495 394 476T447 432T464
392Q464 379 455 366T432 345T409 337T395 350Q394 356 396 363T398 374Q391 411 365 432T302 455Q256 457 215 427T148 345T119 229Q117 180 136 135T191 63T277 35Z" />
<glyph unicode="&#xe8;" glyph-name="egrave" horiz-adv-x="494" d="M258 41Q298 38 329 51T383 84T415 120Q420 129 431 131T451 125Q448 115 436 94T401 49T341 10T256 -7Q192 -7 141 22T62 103T35 223Q37 287 62 338T126 424T212 478T304 497Q347 497 374 484T418
451T440 414T447 383Q447 344 423 311T358 254T267 218T165 205Q147 205 141 215T138 235Q175 235 216 246T295 276T355 320T379 371Q379 409 356 432T294 457Q243 458 203 427T138 346T110 236Q108 185 124 142T175 72T258 41ZM450 741Q473 741 491 729Q502 722
517 678T571 547Q573 542 569 540T559 537Q544 535 538 544Q483 631 447 675T415 728Q418 735 428 738T450 741Z" />
<glyph unicode="&#xe9;" glyph-name="eacute" horiz-adv-x="494" d="M258 41Q298 38 329 51T383 84T415 120Q420 129 431 131T451 125Q448 115 436 94T401 49T341 10T256 -7Q192 -7 141 22T62 103T35 223Q37 287 62 338T126 424T212 478T304 497Q347 497 374 484T418
451T440 414T447 383Q447 344 423 311T358 254T267 218T165 205Q147 205 141 215T138 235Q175 235 216 246T295 276T355 320T379 371Q379 409 356 432T294 457Q243 458 203 427T138 346T110 236Q108 185 124 142T175 72T258 41ZM371 740Q382 740 392 737T406 727Q411
719 375 675T283 543Q277 534 262 536Q257 537 253 539T250 546Q288 633 303 677T330 728Q348 740 371 740Z" />
<glyph unicode="&#xea;" glyph-name="ecircumflex" horiz-adv-x="494" d="M258 41Q298 38 329 51T383 84T415 120Q420 129 431 131T451 125Q448 115 436 94T401 49T341 10T256 -7Q192 -7 141 22T62 103T35 223Q37 287 62 338T126 424T212 478T304 497Q347 497
374 484T418 451T440 414T447 383Q447 344 423 311T358 254T267 218T165 205Q147 205 141 215T138 235Q175 235 216 246T295 276T355 320T379 371Q379 409 356 432T294 457Q243 458 203 427T138 346T110 236Q108 185 124 142T175 72T258 41ZM533 628L395 536Q389
538 384 547T384 562L509 681Q512 684 522 685T543 685T557 681L682 562Q688 557 682 548T670 536L533 628Z" />
<glyph unicode="&#xeb;" glyph-name="edieresis" horiz-adv-x="494" d="M258 41Q298 38 329 51T383 84T415 120Q420 129 431 131T451 125Q448 115 436 94T401 49T341 10T256 -7Q192 -7 141 22T62 103T35 223Q37 287 62 338T126 424T212 478T304 497Q347 497 374
484T418 451T440 414T447 383Q447 344 423 311T358 254T267 218T165 205Q147 205 141 215T138 235Q175 235 216 246T295 276T355 320T379 371Q379 409 356 432T294 457Q243 458 203 427T138 346T110 236Q108 185 124 142T175 72T258 41ZM569 627Q565 636 575 641T603
645T637 634T662 606Q670 586 661 568T630 541Q619 537 603 539T585 558Q584 569 581 587T569 627ZM401 627Q397 636 407 641T436 645T470 634T495 606Q503 586 494 568T462 541Q452 537 436 539T418 558Q417 569 414 587T401 627Z" />
<glyph unicode="&#xec;" glyph-name="igrave" horiz-adv-x="281" d="M95 51L116 407Q115 408 112 408T98 402Q58 381 32 410Q48 421 72 437T117 468T146 484Q160 489 170 484T179 466L157 78Q156 66 160 56T181 45Q191 45 206 54T234 79Q239 86 246 84T252 72Q246
41 219 15T154 -12Q124 -12 109 7T95 51ZM68 741Q91 741 109 729Q120 722 135 678T189 547Q191 542 187 540T177 537Q162 535 156 544Q101 631 65 675T33 728Q36 735 46 738T68 741Z" />
<glyph unicode="&#xed;" glyph-name="iacute" horiz-adv-x="281" d="M95 51L116 407Q115 408 112 408T98 402Q58 381 32 410Q48 421 72 437T117 468T146 484Q160 489 170 484T179 466L157 78Q156 66 160 56T181 45Q191 45 206 54T234 79Q239 86 246 84T252 72Q246
41 219 15T154 -12Q124 -12 109 7T95 51ZM245 740Q256 740 266 737T280 727Q285 719 249 675T157 543Q151 534 136 536Q131 537 127 539T124 546Q162 633 177 677T204 728Q222 740 245 740Z" />
<glyph unicode="&#xee;" glyph-name="icircumflex" horiz-adv-x="281" d="M95 51L116 407Q115 408 112 408T98 402Q58 381 32 410Q48 421 72 437T117 468T146 484Q160 489 170 484T179 466L157 78Q156 66 160 56T181 45Q191 45 206 54T234 79Q239 86 246 84T252
72Q246 41 219 15T154 -12Q124 -12 109 7T95 51ZM151 628L46 538Q37 537 31 545T29 560L127 681Q130 685 140 686T162 686T175 681L273 560Q278 554 272 546T255 538L151 628Z" />
<glyph unicode="&#xef;" glyph-name="idieresis" horiz-adv-x="281" d="M95 51L116 407Q115 408 112 408T98 402Q58 381 32 410Q48 421 72 437T117 468T146 484Q160 489 170 484T179 466L157 78Q156 66 160 56T181 45Q191 45 206 54T234 79Q239 86 246 84T252
72Q246 41 219 15T154 -12Q124 -12 109 7T95 51ZM187 627Q183 636 193 641T221 645T255 634T280 606Q288 586 279 568T248 541Q237 537 221 539T203 558Q202 569 199 587T187 627ZM19 627Q15 636 25 641T54 645T88 634T113 606Q121 586 112 568T80 541Q70 537 54
539T36 558Q35 569 32 587T19 627Z" />
<glyph unicode="&#xf0;" glyph-name="eth" horiz-adv-x="500" d="M259 -22Q205 -22 156 9T75 96T44 227Q45 291 70 333T135 397T213 423Q245 426 275 418T330 398T368 372Q366 363 356 357T335 358Q313 372 283 380T217 380Q196 375 173 358T132 305T115 206Q115
161 132 118T182 47T261 18Q304 18 338 46T392 124T414 233Q418 327 388 414T295 566L105 484L98 500Q90 519 99 527T130 546L257 600Q211 636 158 656Q125 668 96 672T44 675H40Q37 692 48 705Q54 713 62 716T78 718Q210 704 310 623L424 672L430 653Q436 635
425 626T396 609L348 589Q410 526 445 441T480 255Q480 207 468 159T429 69T361 3T259 -22Z" />
<glyph unicode="&#xf1;" glyph-name="ntilde" horiz-adv-x="557" d="M87 3L105 399Q100 404 85 394Q46 373 18 402Q35 413 59 429T104 460T133 476Q147 481 156 476T165 457L157 316Q175 360 205 399T275 462T363 487Q385 487 410 477T452 440T466 365L449 85Q448
69 452 58T473 46Q484 46 497 56T517 80Q521 87 528 85T534 73Q528 44 505 19T446 -6Q416 -6 401 13T387 57L404 365Q406 394 388 412T338 431Q289 432 243 391T166 262Q161 247 158 228T153 186L148 59Q147 25 135 12T87 3ZM482 604Q463 604 447 592T416 545Q412
535 398 536T387 549Q399 597 426 624T485 651Q513 651 532 641T568 617T600 594T638 583Q655 583 667 596T693 640Q698 651 711 650T723 638Q714 592 694 564T634 536Q607 536 588 546T554 570T523 593T482 604Z" />
<glyph unicode="&#xf2;" glyph-name="ograve" horiz-adv-x="540" d="M248 -7Q189 -7 141 24T66 113T46 244Q53 318 86 374T173 461T290 493Q349 493 397 462T473 374T494 244Q488 170 454 113T366 25T248 -7ZM115 244Q113 186 130 138T181 61T260 32Q305 32 341
60T399 137T424 244Q427 302 409 349T358 425T280 454Q235 454 199 426T140 350T115 244ZM463 741Q486 741 504 729Q515 722 530 678T584 547Q586 542 582 540T572 537Q557 535 551 544Q496 631 460 675T428 728Q431 735 441 738T463 741Z" />
<glyph unicode="&#xf3;" glyph-name="oacute" horiz-adv-x="540" d="M248 -7Q189 -7 141 24T66 113T46 244Q53 318 86 374T173 461T290 493Q349 493 397 462T473 374T494 244Q488 170 454 113T366 25T248 -7ZM115 244Q113 186 130 138T181 61T260 32Q305 32 341
60T399 137T424 244Q427 302 409 349T358 425T280 454Q235 454 199 426T140 350T115 244ZM384 740Q395 740 405 737T419 727Q424 719 388 675T296 543Q290 534 275 536Q270 537 266 539T263 546Q301 633 316 677T343 728Q361 740 384 740Z" />
<glyph unicode="&#xf4;" glyph-name="ocircumflex" horiz-adv-x="540" d="M248 -7Q189 -7 141 24T66 113T46 244Q53 318 86 374T173 461T290 493Q349 493 397 462T473 374T494 244Q488 170 454 113T366 25T248 -7ZM115 244Q113 186 130 138T181 61T260 32Q305
32 341 60T399 137T424 244Q427 302 409 349T358 425T280 454Q235 454 199 426T140 350T115 244ZM290 628L152 536Q146 538 141 547T141 562L266 681Q269 684 279 685T300 685T314 681L439 562Q445 557 439 548T427 536L290 628Z" />
<glyph unicode="&#xf5;" glyph-name="otilde" horiz-adv-x="540" d="M248 -7Q189 -7 141 24T66 113T46 244Q53 318 86 374T173 461T290 493Q349 493 397 462T473 374T494 244Q488 170 454 113T366 25T248 -7ZM115 244Q113 186 130 138T181 61T260 32Q305 32 341
60T399 137T424 244Q427 302 409 349T358 425T280 454Q235 454 199 426T140 350T115 244ZM473 604Q454 604 438 592T407 545Q403 535 389 536T378 549Q390 597 417 624T476 651Q504 651 523 641T559 617T591 594T629 583Q646 583 658 596T684 640Q689 651 702 650T714
638Q705 592 685 564T625 536Q598 536 579 546T545 570T514 593T473 604Z" />
<glyph unicode="&#xf6;" glyph-name="odieresis" horiz-adv-x="540" d="M248 -7Q189 -7 141 24T66 113T46 244Q53 318 86 374T173 461T290 493Q349 493 397 462T473 374T494 244Q488 170 454 113T366 25T248 -7ZM115 244Q113 186 130 138T181 61T260 32Q305 32
341 60T399 137T424 244Q427 302 409 349T358 425T280 454Q235 454 199 426T140 350T115 244ZM326 627Q322 636 332 641T360 645T394 634T419 606Q427 586 418 568T387 541Q376 537 360 539T342 558Q341 569 338 587T326 627ZM158 627Q154 636 164 641T193 645T227
634T252 606Q260 586 251 568T219 541Q209 537 193 539T175 558Q174 569 171 587T158 627Z" />
<glyph unicode="&#xf7;" glyph-name="divide" horiz-adv-x="600" d="M253 570Q251 579 262 582T289 582T321 567T341 537Q346 516 335 500T301 478Q290 477 275 481T260 501Q261 512 260 530T253 570ZM36 334Q35 357 40 370T74 383H559Q560 361 555 348T521 334H36ZM253
215Q251 224 262 227T289 227T321 212T341 182Q346 161 335 145T301 123Q290 121 275 125T260 146Q261 156 260 174T253 215Z" />
<glyph unicode="&#xf8;" glyph-name="oslash" horiz-adv-x="540" d="M248 -7Q201 -7 160 14L139 -18Q131 -31 116 -42T68 -41L120 40Q82 73 61 125T46 244Q53 318 86 374T173 461T290 493Q346 493 394 463L409 486Q423 509 438 519T484 516L431 434Q464 401 481
353T494 244Q488 170 454 113T366 25T248 -7ZM115 244Q113 199 123 160T154 91L365 419Q329 454 280 454Q235 454 199 426T140 350T115 244ZM424 244Q427 321 395 379L187 56Q220 32 260 32Q305 32 341 60T399 137T424 244Z" />
<glyph unicode="&#xf9;" glyph-name="ugrave" horiz-adv-x="570" d="M192 -11Q168 -11 142 0T100 38T86 113L103 408Q102 409 98 409T84 403Q44 382 18 411Q35 422 59 438T104 469T132 485Q146 490 156 485T166 466L147 114Q146 86 164 66T217 45Q261 44 308 85T384
214Q389 231 393 258T398 307L405 433Q407 465 420 479T468 489L452 79Q451 67 455 57T476 46Q486 46 502 55T530 80Q535 87 542 85T547 73Q541 42 514 16T449 -11Q419 -11 404 8T390 52L393 160Q377 114 347 75T277 13T192 -11ZM468 741Q491 741 509 729Q520 722
535 678T589 547Q591 542 587 540T577 537Q562 535 556 544Q501 631 465 675T433 728Q436 735 446 738T468 741Z" />
<glyph unicode="&#xfa;" glyph-name="uacute" horiz-adv-x="570" d="M192 -11Q168 -11 142 0T100 38T86 113L103 408Q102 409 98 409T84 403Q44 382 18 411Q35 422 59 438T104 469T132 485Q146 490 156 485T166 466L147 114Q146 86 164 66T217 45Q261 44 308 85T384
214Q389 231 393 258T398 307L405 433Q407 465 420 479T468 489L452 79Q451 67 455 57T476 46Q486 46 502 55T530 80Q535 87 542 85T547 73Q541 42 514 16T449 -11Q419 -11 404 8T390 52L393 160Q377 114 347 75T277 13T192 -11ZM389 740Q400 740 410 737T424 727Q429
719 393 675T301 543Q295 534 280 536Q275 537 271 539T268 546Q306 633 321 677T348 728Q366 740 389 740Z" />
<glyph unicode="&#xfb;" glyph-name="ucircumflex" horiz-adv-x="570" d="M192 -11Q168 -11 142 0T100 38T86 113L103 408Q102 409 98 409T84 403Q44 382 18 411Q35 422 59 438T104 469T132 485Q146 490 156 485T166 466L147 114Q146 86 164 66T217 45Q261 44
308 85T384 214Q389 231 393 258T398 307L405 433Q407 465 420 479T468 489L452 79Q451 67 455 57T476 46Q486 46 502 55T530 80Q535 87 542 85T547 73Q541 42 514 16T449 -11Q419 -11 404 8T390 52L393 160Q377 114 347 75T277 13T192 -11ZM295 628L157 536Q151
538 146 547T146 562L271 681Q274 684 284 685T305 685T319 681L444 562Q450 557 444 548T432 536L295 628Z" />
<glyph unicode="&#xfc;" glyph-name="udieresis" horiz-adv-x="570" d="M192 -11Q168 -11 142 0T100 38T86 113L103 408Q102 409 98 409T84 403Q44 382 18 411Q35 422 59 438T104 469T132 485Q146 490 156 485T166 466L147 114Q146 86 164 66T217 45Q261 44 308
85T384 214Q389 231 393 258T398 307L405 433Q407 465 420 479T468 489L452 79Q451 67 455 57T476 46Q486 46 502 55T530 80Q535 87 542 85T547 73Q541 42 514 16T449 -11Q419 -11 404 8T390 52L393 160Q377 114 347 75T277 13T192 -11ZM331 627Q327 636 337 641T365
645T399 634T424 606Q432 586 423 568T392 541Q381 537 365 539T347 558Q346 569 343 587T331 627ZM163 627Q159 636 169 641T198 645T232 634T257 606Q265 586 256 568T224 541Q214 537 198 539T180 558Q179 569 176 587T163 627Z" />
<glyph unicode="&#xfd;" glyph-name="yacute" horiz-adv-x="518" d="M394 308Q408 374 396 416Q392 419 383 420T366 425Q359 430 360 440T368 458Q378 470 397 478T432 486T453 470Q459 450 460 418T461 351T456 283Q446 207 428 133T372 -15Q330 -97 274 -152T147
-212Q105 -215 68 -197T19 -148Q14 -134 20 -122T43 -101Q60 -92 76 -93T96 -105Q98 -111 97 -118T94 -131Q96 -148 112 -160T157 -171Q187 -169 214 -149T265 -98T307 -35Q336 16 356 71T383 163L379 166Q368 139 346 106T297 42T248 -6Q240 -13 229 -11T216 -2L82
397Q80 397 77 396T67 386Q59 377 45 372T12 376Q23 391 39 412T70 450T91 474Q102 485 112 482T127 467L258 53Q290 86 317 129T365 218T394 308ZM353 740Q364 740 374 737T388 727Q393 719 357 675T265 543Q259 534 244 536Q239 537 235 539T232 546Q270 633
285 677T312 728Q330 740 353 740Z" />
<glyph unicode="&#xfe;" glyph-name="thorn" horiz-adv-x="529" d="M146 -162Q145 -191 133 -205T82 -216L101 301Q70 251 52 193Q46 193 39 200T37 228Q47 266 64 301T103 367L113 633Q112 634 109 634T95 628Q55 607 29 636Q45 647 69 663T114 694T143 710Q157
715 167 710T176 692L167 429Q206 466 249 484T333 497Q390 491 427 454T480 361T488 240Q482 183 456 133T392 48T310 1Q282 -6 246 -4T186 16Q175 24 176 33T180 46Q206 29 242 29T313 51Q350 74 378 119T416 226Q424 282 414 329T379 406T316 443Q281 450 241
435T165 381L146 -162Z" />
<glyph unicode="&#xff;" glyph-name="ydieresis" horiz-adv-x="518" d="M394 308Q408 374 396 416Q392 419 383 420T366 425Q359 430 360 440T368 458Q378 470 397 478T432 486T453 470Q459 450 460 418T461 351T456 283Q446 207 428 133T372 -15Q330 -97 274
-152T147 -212Q105 -215 68 -197T19 -148Q14 -134 20 -122T43 -101Q60 -92 76 -93T96 -105Q98 -111 97 -118T94 -131Q96 -148 112 -160T157 -171Q187 -169 214 -149T265 -98T307 -35Q336 16 356 71T383 163L379 166Q368 139 346 106T297 42T248 -6Q240 -13 229
-11T216 -2L82 397Q80 397 77 396T67 386Q59 377 45 372T12 376Q23 391 39 412T70 450T91 474Q102 485 112 482T127 467L258 53Q290 86 317 129T365 218T394 308ZM551 627Q547 636 557 641T585 645T619 634T644 606Q652 586 643 568T612 541Q601 537 585 539T567
558Q566 569 563 587T551 627ZM383 627Q379 636 389 641T418 645T452 634T477 606Q485 586 476 568T444 541Q434 537 418 539T400 558Q399 569 396 587T383 627Z" />
<glyph unicode="&#x2013;" glyph-name="endash" horiz-adv-x="640" d="M99 344H591V334Q591 316 579 304T538 291H48V304Q48 322 62 333T99 344Z" />
<glyph unicode="&#x2014;" glyph-name="emdash" horiz-adv-x="818" d="M99 345H771V335Q771 317 759 305T718 292H48V305Q48 327 62 336T99 345Z" />
<glyph unicode="&#x2018;" glyph-name="quoteleft" horiz-adv-x="202" d="M148 511Q155 499 143 484T111 460T76 453Q62 454 56 474Q44 516 50 562T80 649T143 717Q151 722 158 718T167 706Q137 681 122 650T105 590T113 537Q118 528 131 525T148 511Z" />
<glyph unicode="&#x2019;" glyph-name="quoteright" horiz-adv-x="240" d="M84 654Q79 667 92 680T126 700T162 703Q176 700 179 680Q187 638 176 593T138 509T67 449Q60 445 53 449T45 462Q94 494 111 541T116 625Q113 634 101 639T84 654Z" />
<glyph unicode="&#x201a;" glyph-name="quotesinglbase" horiz-adv-x="265" d="M84 45Q81 59 96 71T133 90T170 89Q185 83 186 63Q189 17 173 -29T124 -113T40 -177Q32 -181 25 -175T18 -161Q79 -120 99 -74T112 11Q111 20 99 27T84 45Z" />
<glyph unicode="&#x201c;" glyph-name="quotedblleft" horiz-adv-x="348" d="M294 511Q301 499 289 484T257 460T222 453Q208 454 202 474Q190 516 196 562T226 649T289 717Q297 722 304 718T313 706Q283 681 268 650T251 590T259 537Q264 528 277 525T294 511ZM55
475Q44 516 50 562T79 649T143 716Q151 721 158 717T166 705Q121 668 109 620T112 536Q117 528 130 524T147 511Q154 498 142 484T111 460T76 453Q60 456 55 475Z" />
<glyph unicode="&#x201d;" glyph-name="quotedblright" horiz-adv-x="368" d="M183 462Q232 494 249 541T254 625Q251 634 239 639T222 654Q217 667 230 680T264 700T300 704Q314 700 317 680Q325 638 314 593T276 509T205 449Q198 445 191 449T183 462ZM74 648Q69
662 82 675T116 696T152 700Q166 696 169 676Q177 634 166 589T128 505T57 444Q50 440 43 444T35 457Q85 489 101 536T106 620Q103 628 91 633T74 648Z" />
<glyph unicode="&#x201e;" glyph-name="quotedblbase" horiz-adv-x="443" d="M84 45Q81 59 96 71T133 90T170 89Q185 83 186 63Q189 17 173 -29T124 -113T40 -177Q32 -181 25 -175T18 -161Q79 -120 99 -74T112 11Q111 20 99 27T84 45ZM262 45Q259 59 274 71T311
90T348 89Q363 83 364 63Q367 17 351 -29T302 -113T218 -177Q210 -181 203 -175T196 -161Q257 -120 277 -74T290 11Q289 20 277 27T262 45Z" />
<glyph unicode="&#x2022;" glyph-name="bullet" horiz-adv-x="400" d="M130 371Q126 385 143 389T185 389T234 366T265 319Q274 288 257 262T205 229Q194 227 179 228T154 238T145 264Q146 279 143 307T130 371Z" />
<glyph unicode="&#x2039;" glyph-name="guilsinglleft" horiz-adv-x="330" d="M210 434Q216 442 234 449T277 448L156 285Q145 270 130 265T89 255V254Q114 250 128 245T151 224L243 52Q216 44 200 50T178 66L76 255L210 434Z" />
<glyph unicode="&#x203a;" glyph-name="guilsinglright" horiz-adv-x="330" d="M152 434L255 255L120 66Q113 57 96 51T52 52L174 224Q186 239 201 244T242 254V255Q217 259 203 264T180 285L88 448Q115 456 131 449T152 434Z" />
</font>
</defs>
</svg>
