<?xml version="1.0" standalone="no"?>
<!DOCTYPE svg PUBLIC "-//W3C//DTD SVG 1.1//EN" "http://www.w3.org/Graphics/SVG/1.1/DTD/svg11.dtd">
<svg xmlns="http://www.w3.org/2000/svg">
<defs >
<font id="VarelaRound" horiz-adv-x="589" ><font-face
    font-family="Varela Round"
    units-per-em="1000"
    panose-1="0 0 0 0 0 0 0 0 0 0"
    ascent="918"
    descent="-286"
    alphabetic="0" />
<glyph unicode=" " glyph-name="space" horiz-adv-x="260" />
<glyph unicode="!" glyph-name="exclam" horiz-adv-x="281" d="M141 193Q125 193 117 201T107 222L89 552V651Q89 673 104 688T141 703Q163 703 177 688T192 651V552L174 222Q173 209 165 201T141 193ZM141 -4Q117 -4 100 13T82 56Q82 80 99 97T141 115Q166 115
183 98T201 56Q201 31 184 14T141 -4Z" />
<glyph unicode="&quot;" glyph-name="quotedbl" horiz-adv-x="411" d="M300 492Q288 492 281 499T271 517Q267 539 261 570T252 635T249 697Q250 718 265 732T300 747Q320 747 335 733T351 697Q351 669 348 636T339 571T329 517Q327 507 320 500T300 492ZM111
492Q99 492 92 499T82 517Q78 539 73 570T64 635T60 697Q60 718 75 732T111 747Q131 747 146 733T162 697Q162 669 159 636T150 571T140 517Q138 507 131 500T111 492Z" />
<glyph unicode="#" glyph-name="numbersign" horiz-adv-x="612" d="M159 -5Q146 -5 135 5T124 30Q124 31 124 34T127 51T134 96T148 182H71Q57 182 47 192T36 217Q36 231 46 241T71 252H159L183 404H106Q92 404 82 414T71 439Q71 453 81 463T106 474H194L219 632Q221
643 230 651T254 660Q270 660 279 650T289 625Q289 624 289 620T286 603T279 559T265 474H392L417 632Q419 643 428 651T452 660Q468 660 477 650T487 625Q487 624 487 620T484 603T477 559T463 474H540Q554 474 564 464T575 439Q575 425 565 415T540 404H452L428
252H505Q519 252 529 242T540 217Q540 203 530 193T505 182H417L392 24Q390 13 381 4T357 -5Q344 -5 333 5T322 30Q322 31 322 34T325 51T332 96T346 182H219L194 24Q192 13 183 4T159 -5ZM230 252H357L381 404H254L230 252Z" />
<glyph unicode="$" glyph-name="dollar" horiz-adv-x="616" d="M311 -110Q298 -110 290 -102T281 -80V-9Q218 -5 168 8T79 38Q68 43 60 54T51 79Q51 96 62 108T92 121Q102 121 111 117Q141 104 183 92T281 77V307Q240 318 201 332T129 368T77 422T58 503Q58 554
83 598T158 671T281 706V777Q281 790 289 799T311 808Q325 808 333 799T342 777V708Q393 706 436 697T516 675Q527 671 535 662T544 635Q544 620 534 607T504 593Q500 593 496 594T488 597Q456 608 420 615T342 624V386Q384 376 425 363T499 328T553 272T573 185Q573
132 545 90T464 21T342 -9V-80Q342 -93 334 -101T311 -110ZM149 510Q149 478 166 458T214 424T281 401V621Q223 613 186 585T149 510ZM483 191Q483 220 464 238T413 269T342 292V77Q403 82 443 107T483 191Z" />
<glyph unicode="%" glyph-name="percent" horiz-adv-x="814" d="M204 357Q151 357 115 381T61 445T43 536Q43 586 61 626T115 691T204 715Q257 715 293 691T347 627T365 536Q365 486 347 446T293 381T204 357ZM204 -10Q191 -10 181 -1T171 23Q171 32 176 40L583
691Q593 707 611 707Q626 707 635 699T645 677Q645 666 638 655L234 8Q230 1 222 -4T204 -10ZM204 422Q248 422 271 455T295 536Q295 584 272 617T204 650Q160 650 137 617T113 536Q113 488 136 455T204 422ZM610 -18Q557 -18 521 6T467 70T449 161Q449 211 467
251T521 316T610 340Q663 340 699 316T753 252T771 161Q771 111 753 71T699 6T610 -18ZM610 47Q654 47 677 80T701 161Q701 209 678 242T610 275Q566 275 543 242T519 161Q519 113 542 80T610 47Z" />
<glyph unicode="&amp;" glyph-name="ampersand" horiz-adv-x="732" d="M316 -10Q228 -10 174 21T96 99T71 196Q71 248 91 286T138 350T184 388Q158 420 141 453T123 533Q123 580 145 620T210 684T310 708Q348 708 382 695T443 664Q450 660 455 652T461 634Q461
621 451 610T426 599Q418 599 408 604Q389 615 366 622T314 630Q262 630 235 602T207 538Q207 508 217 486T249 441T307 383L516 186Q527 203 535 218T549 247Q554 258 564 265T588 272Q606 272 618 261T630 231Q630 221 625 211Q605 168 577 129L644 65Q652 58
656 51T660 33Q660 17 650 5T619 -8Q601 -8 588 4L521 68Q481 34 429 12T316 -10ZM308 67Q357 67 395 83T462 123L239 332Q221 320 202 301T170 255T157 193Q157 156 177 128T231 83T308 67Z" />
<glyph unicode="&apos;" glyph-name="quotesingle" horiz-adv-x="222" d="M111 492Q99 492 92 499T82 517Q78 539 73 570T64 635T60 697Q60 718 75 732T111 747Q131 747 146 733T162 697Q162 669 159 636T150 571T140 517Q138 507 131 500T111 492Z" />
<glyph unicode="(" glyph-name="parenleft" horiz-adv-x="312" d="M225 -154Q212 -154 206 -149T192 -136Q120 -50 86 66T51 307Q51 432 85 548T192 750Q199 758 205 763T225 768Q241 768 253 757T265 729Q265 718 259 707Q207 621 175 520T142 307Q142 196 174
95T259 -93Q265 -103 265 -115Q265 -132 253 -143T225 -154Z" />
<glyph unicode=")" glyph-name="parenright" horiz-adv-x="312" d="M88 -154Q72 -154 60 -143T48 -115Q48 -103 54 -93Q106 -7 138 94T171 307Q171 418 139 519T54 707Q48 718 48 729Q48 746 60 757T88 768Q101 768 107 763T121 750Q193 665 227 549T262 307Q262
182 228 66T121 -136Q114 -144 108 -149T88 -154Z" />
<glyph unicode="*" glyph-name="asterisk" horiz-adv-x="417" d="M208 384Q197 384 188 392T178 413Q178 414 178 419T182 446T194 519Q154 487 137 473T116 456T110 452Q99 446 88 450T70 464Q65 474 67 486T80 504Q81 505 86 507T111 517T180 543Q132 562 112
570T86 580T80 582Q69 589 67 601T70 623Q76 633 87 637T110 634Q111 634 115 631T137 614T194 567Q186 618 183 640T179 667T178 673Q178 686 187 694T208 702Q219 702 228 694T238 673Q238 672 238 667T234 640T222 567Q262 600 279 613T301 630T306 634Q317
641 328 637T346 623Q351 613 349 601T336 582Q335 582 330 580T305 570T236 543Q284 525 304 517T330 507T336 504Q347 498 349 486T346 464Q340 454 329 450T306 452Q305 453 301 456T280 473T222 519Q230 468 233 446T237 419T238 413Q238 400 229 392T208 384Z"
/>
<glyph unicode="+" glyph-name="plus" horiz-adv-x="562" d="M281 104Q265 104 254 115T242 143V307H78Q62 307 51 318T40 345Q40 362 51 373T78 384H242V548Q242 565 253 576T281 587Q298 587 309 576T320 548V384H483Q500 384 511 373T522 345Q522 329 511 318T483
307H320V143Q320 127 309 116T281 104Z" />
<glyph unicode="," glyph-name="comma" horiz-adv-x="260" d="M92 -151Q79 -151 71 -142T63 -121Q63 -105 78 -96Q100 -83 114 -64T129 -3H125Q102 -3 86 13T69 53V59Q69 82 85 98T125 115H135Q158 115 174 99T191 59V0Q191 -60 165 -94T109 -146Q107 -147 102
-149T92 -151Z" />
<glyph unicode="-" glyph-name="hyphen" horiz-adv-x="408" d="M109 240Q92 240 81 251T69 280Q69 297 80 309T109 321H298Q315 321 327 309T339 280Q339 263 327 252T298 240H109Z" />
<glyph unicode="." glyph-name="period" horiz-adv-x="260" d="M125 -3Q102 -3 86 13T69 53V59Q69 82 85 98T125 115H135Q158 115 174 99T191 59V53Q191 30 175 14T135 -3H125Z" />
<glyph unicode="/" glyph-name="slash" horiz-adv-x="443" d="M89 -95Q71 -95 60 -83T48 -54Q48 -50 49 -46T51 -39L316 736Q320 748 330 756T355 764Q373 764 384 752T396 723Q396 719 395 715T393 708L128 -67Q124 -79 114 -87T89 -95Z" />
<glyph unicode="0" glyph-name="zero" horiz-adv-x="628" d="M314 -10Q224 -10 164 35T73 161T43 349Q43 456 73 537T163 663T314 708Q404 708 464 663T554 537T585 349Q585 242 555 161T464 35T314 -10ZM314 74Q403 74 448 148T494 349Q494 475 449 549T314 623Q226
623 180 549T134 349Q134 222 180 148T314 74Z" />
<glyph unicode="1" glyph-name="one" horiz-adv-x="628" d="M177 0Q159 0 147 12T135 42Q135 60 147 72T177 85H296V592L194 542Q189 540 184 538T171 536Q152 536 140 548T128 579Q128 607 154 620L290 691Q304 698 318 698H339Q359 698 373 684T387 650V85H486Q504
85 516 73T529 42Q529 24 517 12T486 0H177Z" />
<glyph unicode="2" glyph-name="two" horiz-adv-x="628" d="M118 0Q95 0 80 14T65 52Q65 105 94 147T168 225T265 293T361 356T436 422T465 498Q465 551 430 586T307 622Q256 622 213 612T136 586Q135 585 129 583T117 581Q101 581 90 592T79 620Q79 645 101 657Q143
678 198 693T323 708Q387 708 439 683T522 612T553 505Q553 454 528 411T463 331T375 262T283 200T204 143T156 85H504Q522 85 534 73T547 42Q547 24 535 12T504 0H118Z" />
<glyph unicode="3" glyph-name="three" horiz-adv-x="628" d="M294 -10Q227 -10 175 2T85 30Q74 35 67 44T59 68Q59 84 70 97T99 110Q108 110 118 106Q148 94 188 86T277 77Q321 77 363 86T434 120T462 188Q462 225 441 253T372 298T241 314H225Q208 314 196 326T183
356Q183 373 195 385T225 398H231Q329 398 383 428T437 519Q437 566 398 594T279 623Q232 623 194 614T124 590Q120 589 116 588T106 586Q91 586 80 596T69 623Q69 646 89 657Q124 676 174 692T287 708Q403 708 465 661T528 528Q528 478 510 445T464 392T407 361Q428
356 453 345T501 314T538 261T553 183Q553 119 519 77T426 12T294 -10Z" />
<glyph unicode="4" glyph-name="four" horiz-adv-x="628" d="M433 -5Q414 -5 401 8T388 40V176H83Q59 176 42 192T25 233V242Q25 263 37 278L351 679Q359 690 372 696T401 703H421Q447 703 463 686T479 645V257H555Q572 257 584 245T596 216Q596 199 584 188T555
176H479V40Q479 21 466 8T433 -5ZM122 257H388V600L122 257Z" />
<glyph unicode="5" glyph-name="five" horiz-adv-x="628" d="M297 -10Q227 -10 175 7T84 48Q77 53 71 60T64 84Q64 101 75 114T104 127Q115 127 125 122Q157 105 197 93T285 80Q344 80 388 93T456 136T480 221Q480 283 439 319T325 355Q274 355 235 341T171 312Q164
308 156 304T136 300Q108 300 89 315T70 358Q70 370 72 382L117 648Q120 671 134 684T170 698H491Q509 698 521 686T534 655Q534 637 522 625T491 613H201L169 401Q200 418 241 430T338 442Q414 442 465 413T544 332T571 216Q571 152 542 101T453 20T297 -10Z"
/>
<glyph unicode="6" glyph-name="six" horiz-adv-x="628" d="M333 -10Q259 -10 210 13T130 76T85 163T64 258T59 348Q59 407 73 469T121 586T211 674T349 708Q411 708 453 695T526 665Q547 655 547 629Q547 613 536 601T506 588Q497 588 489 591Q464 603 431 611T356
620Q292 620 252 594T189 526T157 442T146 364Q171 396 220 424T351 452Q419 452 470 423T551 342T580 217Q580 154 550 103T465 21T333 -10ZM334 75Q382 75 416 95T470 148T489 219Q489 285 452 327T340 369Q281 369 243 350T184 305T151 259Q158 211 177 169T234
101T334 75Z" />
<glyph unicode="7" glyph-name="seven" horiz-adv-x="628" d="M230 -5Q211 -5 198 8T185 40Q185 52 191 64L466 611H103Q85 611 73 623T60 654Q60 672 72 685T103 698H511Q535 698 551 683T567 645Q567 623 557 601L273 20Q260 -5 230 -5Z" />
<glyph unicode="8" glyph-name="eight" horiz-adv-x="628" d="M314 -10Q239 -10 188 7T106 54T61 117T47 185Q47 262 88 307T196 374Q150 390 115 427T80 526Q80 555 92 587T131 646T203 691T314 708Q380 708 424 691T496 647T536 587T548 526Q548 465 514 428T432
374Q499 352 540 307T581 185Q581 152 567 118T522 54T440 8T314 -10ZM314 412Q369 412 400 429T444 472T457 520Q457 564 422 596T314 628Q241 628 206 596T171 520Q171 497 184 472T228 430T314 412ZM314 70Q381 70 419 92T474 143T490 195Q490 240 465 270T400
315T314 330Q268 330 228 315T163 270T138 195Q138 173 154 144T208 92T314 70Z" />
<glyph unicode="9" glyph-name="nine" horiz-adv-x="628" d="M279 -10Q217 -10 175 3T102 33Q81 44 81 69Q81 85 92 97T122 110Q132 110 139 107Q165 95 198 87T272 78Q337 78 377 104T439 172T471 256T482 334Q457 303 409 275T277 246Q209 246 158 275T77 357T48
481Q48 544 78 595T163 677T295 708Q369 708 418 685T498 622T543 535T564 440T569 350Q569 292 555 229T507 112T418 24T279 -10ZM288 329Q347 329 385 348T445 394T477 439Q470 488 451 529T395 597T294 623Q246 623 212 603T158 551T139 479Q139 413 176 371T288
329Z" />
<glyph unicode=":" glyph-name="colon" horiz-adv-x="260" d="M125 395Q102 395 86 411T69 451V457Q69 480 85 496T125 513H135Q158 513 174 497T191 457V451Q191 428 175 412T135 395H125ZM125 -3Q102 -3 86 13T69 53V59Q69 82 85 98T125 115H135Q158 115 174
99T191 59V53Q191 30 175 14T135 -3H125Z" />
<glyph unicode=";" glyph-name="semicolon" horiz-adv-x="260" d="M125 395Q102 395 86 411T69 451V457Q69 480 85 496T125 513H135Q158 513 174 497T191 457V451Q191 428 175 412T135 395H125ZM92 -151Q79 -151 71 -142T63 -121Q63 -105 78 -96Q100 -83 114 -64T129
-3H125Q102 -3 86 13T69 53V59Q69 82 85 98T125 115H135Q158 115 174 99T191 59V0Q191 -60 165 -94T109 -146Q107 -147 102 -149T92 -151Z" />
<glyph unicode="&lt;" glyph-name="less" horiz-adv-x="580" d="M486 58Q478 58 470 61L71 240Q35 256 35 292V300Q35 336 71 352L470 531Q478 534 486 534Q503 534 514 523T526 494Q526 468 499 456L139 296L499 136Q526 124 526 98Q526 81 515 70T486 58Z" />
<glyph unicode="=" glyph-name="equal" horiz-adv-x="712" d="M112 404Q96 404 85 415T73 443Q73 460 84 471T112 482H600Q617 482 628 471T639 443Q639 427 628 416T600 404H112ZM112 180Q96 180 85 191T73 219Q73 236 84 247T112 258H600Q617 258 628 247T639
219Q639 203 628 192T600 180H112Z" />
<glyph unicode="&gt;" glyph-name="greater" horiz-adv-x="580" d="M94 58Q78 58 66 69T54 98Q54 124 81 136L441 296L81 456Q54 468 54 494Q54 511 66 522T94 534Q103 534 110 531L509 352Q545 336 545 300V292Q545 256 509 240L110 61Q103 58 94 58Z" />
<glyph unicode="?" glyph-name="question" horiz-adv-x="497" d="M221 186Q202 186 190 197T177 225Q177 276 195 311T242 372T297 419T343 462T362 514Q362 565 329 594T219 623Q185 623 151 615T91 590Q79 582 66 582Q50 582 38 594T26 622Q26 636 33 645T51
660Q93 686 135 697T227 708Q329 708 390 657T452 519Q452 471 433 439T387 384T331 338T284 290T265 225Q265 209 252 198T221 186ZM219 -4Q195 -4 178 13T160 56Q160 80 177 97T219 115Q244 115 261 98T279 56Q279 31 262 14T219 -4Z" />
<glyph unicode="@" glyph-name="at" horiz-adv-x="898" d="M400 -83Q320 -83 255 -55T144 21T74 132T49 262Q49 348 82 425T174 561T309 654T473 688Q550 688 619 663T741 592T824 483T854 342Q854 298 844 255T812 175T755 117T668 95Q614 95 588 119T556 169Q524
130 481 112T391 94Q309 94 265 144T221 270Q221 348 255 402T344 485T458 513Q504 513 535 497T586 462L589 479Q591 493 602 501T626 510Q641 510 651 500T662 473Q662 472 662 470T661 462L628 272Q626 260 624 243T621 207Q621 182 632 162T671 142Q734 142
767 197T800 342Q800 414 772 469T696 561T591 616T473 635Q397 635 330 606T212 525T131 406T101 262Q101 208 120 156T178 62T271 -6T400 -31Q468 -31 515 -18T609 15Q615 17 620 17Q631 17 638 11T645 -7Q645 -23 631 -30Q589 -51 532 -67T400 -83ZM413 163Q445
163 475 174T527 216T559 303L575 396Q558 414 531 428T462 442Q420 442 383 424T322 369T298 280Q298 219 332 191T413 163Z" />
<glyph unicode="A" glyph-name="A" horiz-adv-x="746" d="M95 -5Q74 -5 62 8T50 40Q50 48 55 60L310 662Q317 678 331 690T368 703H378Q401 703 415 691T436 662L691 60Q696 48 696 40Q696 21 684 8T651 -5Q620 -5 608 23L543 179H203L138 23Q126 -5 95 -5ZM238
262H508L373 587L238 262Z" />
<glyph unicode="B" glyph-name="B" horiz-adv-x="693" d="M142 0Q123 0 110 13T97 45V652Q97 671 110 684T142 698H378Q488 698 545 648T602 517Q602 455 572 418T504 363Q540 352 571 330T622 275T641 196Q641 138 616 94T534 25T384 0H142ZM188 396H354Q417
396 452 411T501 452T515 510Q515 557 477 585T371 613H188V396ZM188 85H375Q444 85 482 99T537 140T553 200Q553 259 508 286T376 314H188V85Z" />
<glyph unicode="C" glyph-name="C" horiz-adv-x="695" d="M405 -10Q306 -10 227 33T101 157T55 349Q55 461 101 541T226 664T405 708Q479 708 533 690T633 646Q643 641 648 633T655 610Q656 594 645 582T615 570Q605 570 597 574Q557 595 515 608T414 621Q326
621 266 585T176 488T146 349Q146 272 176 211T266 113T414 77Q473 77 515 90T597 124Q605 128 615 128Q634 128 645 116T655 88Q654 74 649 66T633 52Q587 26 533 8T405 -10Z" />
<glyph unicode="D" glyph-name="D" horiz-adv-x="751" d="M142 0Q123 0 110 13T97 45V652Q97 671 110 684T142 698H343Q433 698 499 668T609 587T674 474T696 349Q696 286 675 224T609 112T499 31T343 0H142ZM188 85H332Q416 85 477 118T572 211T606 349Q606 427
573 486T478 579T332 613H188V85Z" />
<glyph unicode="E" glyph-name="E" horiz-adv-x="638" d="M142 0Q123 0 110 13T97 45V652Q97 671 110 684T142 698H543Q561 698 573 686T586 655Q586 637 574 625T543 613H188V392H507Q525 392 537 380T550 349Q550 331 538 319T507 307H188V85H543Q561 85 573
73T586 42Q586 24 574 12T543 0H142Z" />
<glyph unicode="F" glyph-name="F" horiz-adv-x="608" d="M142 -5Q123 -5 110 8T97 40V652Q97 671 110 684T142 698H531Q549 698 561 686T574 655Q574 637 562 625T531 613H188V392H496Q514 392 526 380T539 349Q539 331 527 319T496 307H188V40Q188 21 175 8T142 -5Z" />
<glyph unicode="G" glyph-name="G" horiz-adv-x="757" d="M406 -10Q301 -10 222 36T99 162T55 348Q55 429 82 495T156 609T267 682T403 708Q488 708 546 687T652 636Q659 632 665 623T672 600Q672 584 661 572T630 559Q619 559 609 564Q565 590 518 605T413 620Q338
620 278 589T182 497T146 348Q146 271 178 210T271 112T418 76Q471 76 515 88T593 120V301H428Q411 301 399 313T387 342Q387 359 399 371T428 383H625Q645 383 659 369T673 335V108Q673 87 663 71T635 46Q586 21 529 6T406 -10Z" />
<glyph unicode="H" glyph-name="H" horiz-adv-x="755" d="M142 -5Q123 -5 110 8T97 40V657Q97 676 110 689T142 703Q161 703 174 690T188 657V391H567V657Q567 676 580 689T612 703Q631 703 644 690T658 657V40Q658 21 645 8T612 -5Q593 -5 580 8T567 40V306H188V40Q188
21 175 8T142 -5Z" />
<glyph unicode="I" glyph-name="I" horiz-adv-x="285" d="M142 -5Q123 -5 110 8T97 40V657Q97 676 110 689T142 703Q161 703 174 690T188 657V40Q188 21 175 8T142 -5Z" />
<glyph unicode="J" glyph-name="J" horiz-adv-x="466" d="M168 -10Q130 -10 97 -1T35 24Q26 29 20 38T13 61Q13 77 23 89T51 102Q61 102 69 98Q89 88 112 82T162 76Q192 76 219 87T265 129T283 224V657Q283 676 296 689T328 703Q347 703 360 690T374 657V230Q374
158 357 112T310 39T243 1T168 -10Z" />
<glyph unicode="K" glyph-name="K" horiz-adv-x="670" d="M142 -5Q123 -5 110 8T97 40V657Q97 676 110 689T142 703Q161 703 174 690T188 657V339L530 687Q535 693 544 698T564 703Q582 703 595 691T606 660Q604 641 595 632L364 402L629 68Q640 54 640 39Q641
21 628 8T596 -5Q573 -5 560 13L302 342L188 227V40Q188 21 175 8T142 -5Z" />
<glyph unicode="L" glyph-name="L" horiz-adv-x="576" d="M160 0Q134 0 116 18T97 63V657Q97 676 110 689T142 703Q161 703 174 690T188 657V91H515Q534 91 547 78T561 45Q561 26 548 13T515 0H160Z" />
<glyph unicode="M" glyph-name="M" horiz-adv-x="966" d="M142 -5Q123 -5 110 8T97 40V637Q97 664 116 683T162 703H195Q215 703 232 691T256 661L483 95L710 661Q718 679 734 691T771 703H804Q831 703 850 684T869 637V40Q869 21 856 8T824 -5Q805 -5 792 8T778
40V608L547 37Q539 18 522 7T483 -5Q461 -5 444 6T419 37L188 608V40Q188 21 175 8T142 -5Z" />
<glyph unicode="N" glyph-name="N" horiz-adv-x="803" d="M142 -5Q123 -5 110 8T97 40V637Q97 664 116 683T162 703H175Q192 703 206 695T230 673L615 117V657Q615 676 628 689T660 703Q679 703 692 690T706 657V60Q706 33 687 14T640 -5H628Q612 -5 598 2T575
22L188 581V40Q188 21 175 8T142 -5Z" />
<glyph unicode="O" glyph-name="O" horiz-adv-x="812" d="M406 -10Q299 -10 221 36T100 163T55 349Q57 454 100 535T221 662T406 708Q513 708 591 662T712 535T757 349Q755 244 712 163T591 36T406 -10ZM406 75Q489 75 547 111T635 210T666 349Q666 426 636 488T547
586T406 623Q323 623 265 587T177 488T146 349Q146 272 176 210T265 112T406 75Z" />
<glyph unicode="P" glyph-name="P" horiz-adv-x="672" d="M142 -5Q123 -5 110 8T97 40V652Q97 671 110 684T142 698H370Q446 698 497 679T579 627T623 555T637 476Q637 436 624 397T580 326T498 274T370 254H188V40Q188 21 175 8T142 -5ZM188 340H361Q436 340
476 360T531 412T546 476Q546 509 531 540T476 591T361 612H188V340Z" />
<glyph unicode="Q" glyph-name="Q" horiz-adv-x="812" d="M607 -152Q588 -152 575 -136L466 -6Q452 -8 437 -9T406 -10Q299 -10 221 36T100 163T55 349Q57 454 100 535T221 662T406 708Q513 708 591 662T712 535T757 349Q755 232 701 145T550 17L638 -80Q650 -92
650 -109Q651 -126 638 -139T607 -152ZM406 75Q489 75 547 111T635 210T666 349Q666 426 636 488T547 586T406 623Q323 623 265 587T177 488T146 349Q146 272 176 210T265 112T406 75Z" />
<glyph unicode="R" glyph-name="R" horiz-adv-x="712" d="M142 -5Q123 -5 110 8T97 40V652Q97 671 110 684T142 698H375Q470 698 530 671T618 599T647 495Q647 437 615 387T516 314Q558 303 583 275T620 210T637 141T641 86V40Q641 21 628 8T596 -5Q575 -5 563
7T550 40V70Q550 95 547 129T529 196T484 250T395 272H188V40Q188 21 175 8T142 -5ZM188 358H369Q453 358 504 391T556 488Q556 525 539 553T480 596T364 612H188V358Z" />
<glyph unicode="S" glyph-name="S" horiz-adv-x="616" d="M317 -10Q242 -10 183 4T79 38Q68 43 60 54T51 79Q51 96 62 108T92 121Q102 121 111 117Q145 102 194 89T308 76Q358 76 397 86T460 122T483 191Q483 223 460 242T399 275T316 299T225 323T142 359T81
415T58 503Q58 559 87 605T175 680T317 708Q376 708 426 699T516 675Q527 671 535 662T544 635Q544 620 534 607T504 593Q500 593 496 594T488 597Q454 609 414 616T327 624Q251 624 200 595T149 510Q149 473 172 451T233 416T316 393T406 369T489 335T550 278T573
185Q573 129 542 85T453 15T317 -10Z" />
<glyph unicode="T" glyph-name="T" horiz-adv-x="609" d="M304 -5Q285 -5 272 8T259 40V613H55Q37 613 25 625T13 655Q13 673 25 685T55 698H553Q571 698 583 686T596 655Q596 637 584 625T553 613H350V40Q350 21 337 8T304 -5Z" />
<glyph unicode="U" glyph-name="U" horiz-adv-x="758" d="M379 -10Q329 -10 278 6T185 55T118 140T92 262V657Q92 676 105 689T137 703Q156 703 169 690T183 657V259Q183 197 211 156T285 94T379 73Q428 73 473 93T546 155T575 259V657Q575 676 588 689T620 703Q639
703 652 690T666 657V262Q666 192 641 141T573 56T480 6T379 -10Z" />
<glyph unicode="V" glyph-name="V" horiz-adv-x="694" d="M336 -5Q295 -5 274 41L27 640Q24 648 24 657Q24 677 36 690T69 703Q99 703 112 672L347 86L582 672Q595 703 625 703Q646 703 658 690T670 657Q670 648 667 640L420 41Q399 -5 358 -5H336Z" />
<glyph unicode="W" glyph-name="W" horiz-adv-x="1011" d="M286 -5Q267 -5 251 6T227 40L31 642Q28 653 28 659Q27 678 40 690T72 703Q89 703 101 693T117 667L285 115L454 665Q459 682 473 692T506 703Q524 703 538 693T558 665L727 115L895 667Q900 683 912
693T940 703Q960 703 973 691T984 659Q984 653 981 642L785 40Q777 17 761 6T726 -5Q706 -5 690 8T667 40L506 550L345 40Q339 21 323 8T286 -5Z" />
<glyph unicode="X" glyph-name="X" horiz-adv-x="671" d="M86 -5Q69 -5 57 7T44 37Q44 53 53 65L284 349L55 631Q46 643 46 659Q46 678 58 690T90 703Q114 703 127 685L338 417L549 687Q560 703 582 703Q600 703 613 691T626 660Q626 646 618 635L387 350L618
66Q627 56 627 40Q627 22 615 9T582 -5Q560 -5 546 14L332 283L121 13Q106 -5 86 -5Z" />
<glyph unicode="Y" glyph-name="Y" horiz-adv-x="639" d="M320 -5Q301 -5 288 8T274 40V295L35 630Q27 643 27 657Q27 676 39 689T71 703Q96 703 111 680L320 376L529 680Q544 703 569 703Q589 703 601 690T613 657Q613 643 605 630L365 295V40Q365 21 352 8T320 -5Z" />
<glyph unicode="Z" glyph-name="Z" horiz-adv-x="638" d="M105 0Q81 0 64 17T47 58Q47 80 59 95L477 611H92Q74 611 62 623T49 654Q49 672 61 685T92 698H526Q555 698 571 680T587 636Q587 614 571 596L158 85H550Q568 85 580 73T593 42Q593 24 581 12T550 0H105Z" />
<glyph unicode="[" glyph-name="bracketleft" horiz-adv-x="322" d="M131 -132Q113 -132 100 -119T87 -88V688Q87 706 100 719T131 732H258Q273 732 283 722T294 696Q294 681 284 671T258 660H166V-61H258Q273 -61 283 -71T294 -96Q294 -110 284 -121T258 -132H131Z" />
<glyph unicode="\" glyph-name="backslash" horiz-adv-x="443" d="M354 -95Q339 -95 329 -87T315 -67L50 708Q49 710 48 714T47 723Q47 740 58 752T88 764Q103 764 113 756T127 736L392 -39Q393 -41 394 -45T395 -54Q395 -71 384 -83T354 -95Z" />
<glyph unicode="]" glyph-name="bracketright" horiz-adv-x="322" d="M64 -132Q49 -132 39 -121T28 -96Q28 -82 38 -72T64 -61H156V660H64Q49 660 39 670T28 696Q28 711 38 721T64 732H191Q209 732 222 719T235 688V-88Q235 -106 222 -119T191 -132H64Z" />
<glyph unicode="^" glyph-name="asciicircum" horiz-adv-x="524" d="M118 415Q102 415 92 426T82 451Q82 456 84 460T88 469L193 668Q201 682 212 692T242 702H280Q300 702 311 692T329 668L434 469Q436 465 438 461T440 451Q440 437 430 426T404 415Q387 415
378 426Q377 427 375 431T362 453T327 509T261 616Q219 549 196 511T162 455T148 432T144 426Q135 415 118 415Z" />
<glyph unicode="_" glyph-name="underscore" horiz-adv-x="663" d="M85 -147Q72 -147 62 -137T52 -114Q52 -100 62 -91T85 -81H578Q592 -81 601 -90T611 -114Q611 -127 602 -137T578 -147H85Z" />
<glyph unicode="`" glyph-name="grave" horiz-adv-x="246" d="M200 567Q187 567 178 578L109 660Q99 671 99 685Q99 702 109 712T136 722Q149 722 157 717T169 703L220 613Q222 611 224 606T227 594Q227 582 220 575T200 567Z" />
<glyph unicode="a" glyph-name="a" horiz-adv-x="562" d="M209 -10Q166 -10 129 8T69 59T46 140Q46 211 102 256T276 302H397V310Q397 377 364 405T263 434Q221 434 190 427T130 410Q122 408 117 408Q102 408 91 419T80 446Q80 473 106 484Q141 499 183 509T279
520Q352 520 398 491T466 417T488 323V40Q488 21 475 8T442 -5Q423 -5 410 8T397 40V66Q370 38 325 14T209 -10ZM243 70Q290 70 331 93T397 145V229H288Q218 229 178 211T137 150Q137 118 159 94T243 70Z" />
<glyph unicode="b" glyph-name="b" horiz-adv-x="631" d="M341 -10Q289 -10 247 10T170 66V40Q170 21 157 8T124 -5Q105 -5 92 8T79 40V689Q79 709 92 722T124 735Q144 735 157 722T170 689V444Q205 480 247 500T341 520Q402 520 457 489T547 399T583 255Q583
170 548 111T457 21T341 -10ZM328 75Q399 75 445 121T492 255Q492 344 446 389T328 435Q279 435 239 414T170 360V150Q199 118 239 97T328 75Z" />
<glyph unicode="c" glyph-name="c" horiz-adv-x="533" d="M315 -10Q244 -10 183 21T85 112T48 255Q48 339 85 398T183 488T315 520Q374 520 413 505T478 472Q498 459 498 437Q498 423 487 410T460 397Q449 397 438 403Q412 417 387 426T323 435Q236 435 188 385T139
255Q139 175 187 125T323 75Q362 75 387 84T438 107Q449 113 460 113Q476 113 487 100T498 73Q498 51 478 38Q453 22 414 6T315 -10Z" />
<glyph unicode="d" glyph-name="d" horiz-adv-x="631" d="M290 -10Q230 -10 175 21T84 111T48 255Q48 340 83 399T174 489T290 520Q343 520 385 500T461 444V689Q461 709 474 722T507 735Q526 735 539 722T552 689V40Q552 21 539 8T507 -5Q488 -5 475 8T461 40V66Q427
30 385 10T290 -10ZM303 75Q352 75 392 96T461 150V360Q432 392 392 413T303 435Q232 435 186 390T139 255Q139 167 185 121T303 75Z" />
<glyph unicode="e" glyph-name="e" horiz-adv-x="566" d="M307 -10Q185 -10 117 59T48 255Q48 323 73 383T151 482T287 520Q364 520 417 485T497 392T525 268Q525 249 513 236T479 223H140Q148 156 191 116T315 75Q360 75 391 83T450 106Q458 110 468 110Q484
110 496 99T508 71Q508 59 501 50T482 34Q449 15 411 3T307 -10ZM140 297H435Q432 349 409 381T352 428T287 443Q255 443 222 428T166 381T140 297Z" />
<glyph unicode="f" glyph-name="f" horiz-adv-x="382" d="M162 -5Q143 -5 130 8T117 40V432H58Q42 432 31 443T19 471Q19 488 30 499T58 510H117V568Q117 631 139 669T197 723T267 740Q292 740 314 735T354 720Q363 716 370 707T377 685Q377 671 367 659T340 647Q328
647 316 650T290 653Q253 653 231 636T208 565V510H333Q350 510 361 499T372 471Q372 455 361 444T333 432H208V40Q208 21 195 8T162 -5Z" />
<glyph unicode="g" glyph-name="g" horiz-adv-x="631" d="M317 -240Q256 -240 197 -224T103 -188Q96 -183 91 -175T85 -153Q85 -138 96 -125T125 -112Q130 -112 134 -113T143 -116Q175 -132 216 -143T308 -154Q461 -154 461 9V76Q430 43 388 22T290 0Q248 0 206
16T128 64T70 145T48 260Q48 326 70 375T127 456T205 504T290 520Q346 520 388 499T461 444V469Q461 488 474 501T506 515Q525 515 538 502T552 469V22Q552 -104 491 -172T317 -240ZM309 83Q361 83 397 106T461 157V363Q433 392 397 414T309 437Q262 437 223 418T162
360T139 260Q139 200 161 161T223 102T309 83Z" />
<glyph unicode="h" glyph-name="h" horiz-adv-x="609" d="M124 -5Q105 -5 92 8T79 40V689Q79 709 92 722T124 735Q143 735 156 722T170 689V428Q202 463 245 491T356 520Q413 520 453 494T514 423T535 324V40Q535 21 522 8T489 -5Q470 -5 457 8T444 40V314Q444
371 419 403T334 436Q280 436 240 407T170 340V40Q170 21 157 8T124 -5Z" />
<glyph unicode="i" glyph-name="i" horiz-adv-x="249" d="M122 614Q101 614 86 629T71 665V669Q71 690 86 705T122 720H128Q149 720 164 705T179 669V665Q179 644 164 629T128 614H122ZM124 -5Q105 -5 92 8T79 40V469Q79 489 92 502T124 515Q144 515 157 502T170
469V40Q170 21 157 8T124 -5Z" />
<glyph unicode="j" glyph-name="j" horiz-adv-x="254" d="M127 614Q106 614 91 629T76 665V669Q76 690 91 705T127 720H133Q154 720 169 705T184 669V665Q184 644 169 629T133 614H127ZM44 -240Q8 -240 -19 -231Q-45 -223 -45 -195Q-45 -180 -34 -169T-7 -157Q0
-157 7 -158T23 -160Q49 -160 66 -151T84 -101V468Q84 488 97 501T129 514Q149 514 162 501T175 468V-103Q175 -161 146 -200T44 -240Z" />
<glyph unicode="k" glyph-name="k" horiz-adv-x="545" d="M124 -5Q105 -5 92 8T79 40V689Q79 708 92 721T124 735Q143 735 156 722T170 689V280L408 500Q414 505 421 509T438 513Q464 513 473 499T482 469Q482 463 479 455T465 435L321 306L502 66Q512 53 512
39Q512 19 499 7T466 -5Q445 -5 429 14L257 248L170 169V40Q170 21 157 8T124 -5Z" />
<glyph unicode="l" glyph-name="l" horiz-adv-x="249" d="M124 -5Q105 -5 92 8T79 40V689Q79 709 92 722T124 735Q144 735 157 722T170 689V40Q170 21 157 8T124 -5Z" />
<glyph unicode="m" glyph-name="m" horiz-adv-x="918" d="M124 -5Q105 -5 92 8T79 40V469Q79 488 92 501T124 515Q143 515 156 502T170 469V428Q184 448 205 469T260 505T340 520Q400 520 438 488T493 417Q505 436 527 460T585 502T677 520Q736 520 773 491T827
417T844 328V40Q844 21 831 8T798 -5Q779 -5 766 8T753 40V310Q753 373 731 404T651 436Q613 436 586 422T540 385T507 340V40Q507 21 494 8T461 -5Q442 -5 429 8T416 40V310Q416 373 394 404T314 436Q276 436 249 422T203 385T170 340V40Q170 21 157 8T124 -5Z"
/>
<glyph unicode="n" glyph-name="n" horiz-adv-x="609" d="M124 -5Q105 -5 92 8T79 40V469Q79 489 92 502T124 515Q143 515 156 502T170 469V428Q202 463 245 491T356 520Q413 520 453 494T514 423T535 324V40Q535 21 522 8T489 -5Q470 -5 457 8T444 40V314Q444
371 419 403T334 436Q280 436 240 407T170 340V40Q170 21 157 8T124 -5Z" />
<glyph unicode="o" glyph-name="o" horiz-adv-x="608" d="M304 -10Q227 -10 169 23T80 116T48 255Q48 334 79 393T169 486T304 520Q381 520 438 487T528 394T560 255Q560 176 528 117T439 24T304 -10ZM304 73Q342 73 380 91T443 149T469 256Q469 322 444 362T380
419T304 437Q266 437 228 420T164 362T139 256Q139 190 164 150T227 91T304 73Z" />
<glyph unicode="p" glyph-name="p" horiz-adv-x="631" d="M124 -235Q105 -235 92 -222T79 -189V470Q79 489 92 502T124 515Q144 515 157 502T170 470V444Q205 480 247 500T341 520Q402 520 457 489T547 399T583 255Q583 170 548 111T457 21T341 -10Q289 -10 247
10T170 66V-189Q170 -208 157 -221T124 -235ZM328 75Q399 75 445 121T492 255Q492 344 446 389T328 435Q279 435 239 414T170 360V150Q199 118 239 97T328 75Z" />
<glyph unicode="q" glyph-name="q" horiz-adv-x="631" d="M507 -235Q488 -235 475 -222T461 -189V66Q427 30 385 10T290 -10Q230 -10 175 21T84 111T48 255Q48 340 83 399T174 489T290 520Q343 520 385 500T461 444V470Q461 489 474 502T507 515Q526 515 539 502T552
470V-189Q552 -208 539 -221T507 -235ZM303 75Q352 75 392 96T461 150V360Q432 392 392 413T303 435Q232 435 186 390T139 255Q139 167 185 121T303 75Z" />
<glyph unicode="r" glyph-name="r" horiz-adv-x="383" d="M124 -5Q105 -5 92 8T79 40V469Q79 488 92 501T124 515Q143 515 156 502T170 469V426Q197 462 236 491T327 520H332Q351 520 363 507T376 475Q376 456 363 444T330 432H325Q276 432 236 408T170 344V40Q170
21 157 8T124 -5Z" />
<glyph unicode="s" glyph-name="s" horiz-adv-x="480" d="M244 -10Q189 -10 145 2T62 35Q45 47 45 68Q45 83 56 95T84 108Q93 108 102 104Q129 92 161 83T238 74Q296 74 322 92T349 145Q349 167 328 179T272 199T199 217T127 243T71 288T49 362Q49 430 98 475T244
520Q285 520 321 513T389 495Q403 491 410 480T418 457Q418 441 407 429T378 417Q374 417 371 417T365 419Q341 427 313 432T251 437Q196 437 166 417T136 367Q136 341 157 327T213 305T286 287T359 262T415 216T437 138Q437 77 389 34T244 -10Z" />
<glyph unicode="t" glyph-name="t" horiz-adv-x="382" d="M255 -10Q237 -10 213 -7T165 9T125 49T109 122V432H38Q19 432 19 451Q19 461 28 468L164 601Q166 603 170 606T181 610Q189 610 194 604T200 590V510H313Q330 510 341 499T352 471Q352 455 341 444T313
432H200V130Q200 101 211 88T237 73T265 70Q289 70 300 74T325 79Q339 79 350 69T361 43Q361 20 338 8Q320 0 300 -5T255 -10Z" />
<glyph unicode="u" glyph-name="u" horiz-adv-x="609" d="M253 -10Q196 -10 156 16T95 88T74 186V470Q74 489 87 502T120 515Q139 515 152 502T165 470V196Q165 139 191 107T275 74Q329 74 369 103T439 170V470Q439 489 452 502T485 515Q504 515 517 502T530 470V41Q530
22 517 9T485 -5Q466 -5 453 8T439 41V82Q408 48 364 19T253 -10Z" />
<glyph unicode="v" glyph-name="v" horiz-adv-x="530" d="M260 -5Q241 -5 227 6T205 32L31 448Q26 460 26 469Q26 488 39 501T71 515Q85 515 96 508T112 489L265 101L418 489Q423 500 434 507T459 515Q478 515 491 502T504 469Q504 460 499 448L325 32Q318 17
304 6T270 -5H260Z" />
<glyph unicode="w" glyph-name="w" horiz-adv-x="792" d="M231 -5Q211 -5 195 7T173 37L31 453Q28 462 28 470Q28 489 41 502T73 515Q87 515 98 508T114 488L231 103L347 479Q352 495 365 505T396 515Q413 515 427 505T445 479L561 103L678 488Q682 501 694 508T719
515Q738 515 751 502T764 470Q764 462 761 453L619 37Q613 20 597 8T561 -5Q541 -5 525 7T502 38L396 369L290 38Q283 20 267 8T231 -5Z" />
<glyph unicode="x" glyph-name="x" horiz-adv-x="541" d="M94 -5Q75 -5 63 7T51 41Q51 56 61 69L216 252L61 441Q50 455 50 470Q50 491 63 503T95 515Q119 515 131 498L271 325L410 498Q422 515 445 515Q465 515 478 503T491 472Q491 457 481 444L323 258L479
70Q485 63 487 55T490 41Q490 24 479 10T444 -5Q422 -5 409 13L267 183L133 15Q118 -5 94 -5Z" />
<glyph unicode="y" glyph-name="y" horiz-adv-x="537" d="M193 -235Q175 -235 163 -222T150 -191Q150 -182 153 -175L218 -8L30 450Q29 454 28 459T26 469Q26 488 39 501T71 515Q85 515 96 507T113 487L267 105L424 485Q430 499 440 507T466 515Q485 515 498 502T511
469Q511 460 508 452L235 -204Q229 -217 219 -226T193 -235Z" />
<glyph unicode="z" glyph-name="z" horiz-adv-x="498" d="M103 0Q77 0 59 13T40 53Q40 76 56 94L344 425H91Q73 425 61 437T49 467Q49 485 61 497T91 510H394Q420 510 436 495T452 453Q452 430 438 413L158 85H415Q433 85 445 73T458 42Q458 24 446 12T415 0H103Z" />
<glyph unicode="{" glyph-name="braceleft" horiz-adv-x="344" d="M269 -145Q229 -145 198 -136T148 -100T129 -25V186Q129 203 125 218T101 247T37 267Q20 270 12 281T3 307Q3 322 11 333T37 347Q82 355 101 367T124 396T129 428V639Q129 688 147 714T197 749T269
759H281Q295 759 305 749T316 724Q316 710 306 700T281 689H266Q238 689 226 682T210 666T207 647V425Q207 380 184 352T117 307Q161 291 184 263T207 189V-33Q207 -41 210 -51T225 -68T266 -75H281Q295 -75 305 -85T316 -110Q316 -124 306 -134T281 -145H269Z"
/>
<glyph unicode="|" glyph-name="bar" horiz-adv-x="253" d="M126 -196Q109 -196 98 -185T86 -156V700Q86 717 97 729T126 741Q143 741 155 729T167 700V-156Q167 -173 155 -184T126 -196Z" />
<glyph unicode="}" glyph-name="braceright" horiz-adv-x="344" d="M63 -145Q49 -145 39 -135T28 -110Q28 -96 38 -86T63 -75H78Q107 -75 119 -68T134 -51T137 -33V189Q137 234 160 262T227 307Q184 323 161 351T137 425V647Q137 656 134 665T119 682T78 689H63Q49
689 39 699T28 724Q28 738 38 748T63 759H75Q115 759 146 750T196 714T215 639V428Q215 412 219 396T243 368T307 347Q324 344 332 333T341 307Q341 292 333 281T307 267Q263 260 244 247T220 219T215 186V-25Q215 -74 197 -100T147 -135T75 -145H63Z" />
<glyph unicode="~" glyph-name="asciitilde" horiz-adv-x="638" d="M440 206Q400 206 367 217T305 244T249 270T194 282Q164 282 148 267T124 228Q119 209 100 209Q90 209 82 217T74 235Q74 267 91 297T138 347T201 367Q241 367 274 356T337 329T393 303T448 291Q474
291 485 298T502 319T519 351Q522 357 528 361T543 366Q553 366 561 359T567 335Q555 270 521 238T440 206Z" />
<glyph unicode="&#xa0;" glyph-name="uni00A0" horiz-adv-x="260" />
<glyph unicode="&#xa1;" glyph-name="exclamdown" horiz-adv-x="259" d="M130 395Q106 395 89 412T71 454Q71 479 88 496T130 514Q155 514 172 497T190 454Q190 430 173 413T130 395ZM130 -193Q108 -193 93 -178T78 -141V-42L96 288Q97 301 105 309T130 317Q146
317 154 309T163 288L181 -42V-141Q181 -163 167 -178T130 -193Z" />
<glyph unicode="&#xa2;" glyph-name="cent" horiz-adv-x="551" d="M183 -123Q171 -123 163 -115T155 -95Q155 -88 158 -82L191 15Q127 44 86 105T44 255Q44 339 81 398T179 488T311 520Q325 520 338 519T363 516L392 601Q399 620 419 620Q432 620 439 611T447
591Q447 587 445 581L418 501Q435 495 449 488T474 472Q494 459 494 437Q494 423 483 410T456 397Q445 397 434 403L391 423L273 79Q284 77 295 76T319 75Q358 75 383 84T434 107Q445 113 456 113Q472 113 483 100T494 73Q494 51 474 38Q449 22 410 6T311 -10Q294
-10 278 -8T245 -2L210 -105Q204 -123 183 -123ZM220 98L335 434Q331 435 327 435T319 435Q232 435 184 385T135 255Q135 201 157 161T220 98Z" />
<glyph unicode="&#xa3;" glyph-name="sterling" horiz-adv-x="604" d="M75 292Q60 292 50 302T39 328Q39 343 49 354T75 365H154Q143 397 134 430T125 502Q125 567 156 613T241 683T368 708Q411 708 446 700T512 679Q525 674 533 664T542 639Q542 622 531 610T500
597Q496 597 490 598T481 601Q456 609 430 614T372 620Q310 620 276 603T229 560T216 506Q216 471 226 436T247 365H414Q429 365 440 354T451 328Q451 312 441 302T414 292H263Q265 276 265 261Q265 215 252 179T223 118Q229 118 235 118T248 119Q287 119 318 109T379
89T445 78Q463 78 478 81T508 89Q510 90 515 91T524 93Q541 93 553 82T565 53Q565 30 542 17Q519 4 492 -3T436 -10Q405 -10 382 -3T337 12T293 28T237 35Q204 35 177 25T129 1Q118 -7 106 -7Q91 -7 80 3T69 28Q69 47 83 59Q105 80 126 110T161 177T175 255Q175
273 172 292H75Z" />
<glyph unicode="&#xa4;" glyph-name="currency" horiz-adv-x="668" d="M103 81Q87 81 77 92T66 118Q66 133 77 144L142 209Q121 239 109 274T97 349Q97 388 109 423T142 489L77 554Q66 565 66 580Q66 595 76 606T103 617Q111 617 117 614T129 606L195 541Q224
562 259 574T334 586Q373 586 408 574T473 541L539 606Q545 611 551 614T565 617Q582 617 592 606T602 580Q602 565 591 554L526 489Q547 459 559 424T571 349Q571 310 559 275T526 209L591 144Q602 133 602 118Q602 103 592 92T565 81Q557 81 551 84T539 92L473
157Q444 136 409 124T334 112Q295 112 260 124T195 157L129 92Q123 87 117 84T103 81ZM334 193Q377 193 412 214T469 270T490 349Q490 392 469 427T413 484T334 505Q291 505 256 484T199 428T178 349Q178 306 199 271T255 214T334 193Z" />
<glyph unicode="&#xa5;" glyph-name="yen" horiz-adv-x="658" d="M329 -6Q311 -6 298 7T284 39V151H143Q127 151 117 161T106 188Q106 204 116 215T143 226H284V290H143Q127 290 117 300T106 327Q106 343 116 354T143 365H241L73 639Q65 652 65 665Q65 686 79
699T113 712Q130 712 139 704T156 684L329 381L502 684Q509 696 519 704T545 712Q565 712 579 699T593 665Q593 652 585 639L417 365H515Q531 365 541 354T552 327Q552 311 542 301T515 290H374V226H515Q531 226 541 215T552 188Q552 172 542 162T515 151H374V39Q374
20 361 7T329 -6Z" />
<glyph unicode="&#xa6;" glyph-name="brokenbar" horiz-adv-x="253" d="M126 364Q109 364 98 375T86 404V700Q86 717 97 729T126 741Q143 741 155 729T167 700V404Q167 387 155 376T126 364ZM126 -196Q109 -196 98 -185T86 -156V140Q86 157 97 169T126 181Q143
181 155 169T167 140V-156Q167 -173 155 -184T126 -196Z" />
<glyph unicode="&#xa7;" glyph-name="section" horiz-adv-x="529" d="M252 -103Q197 -103 149 -92T63 -58Q56 -53 52 -44T47 -25Q47 -8 58 3T86 15Q91 15 97 13T107 9Q134 -4 168 -11T246 -19Q359 -19 359 51Q359 76 337 92T281 122T208 150T135 185T79 236T57
313Q57 369 87 397T155 439Q127 459 109 488T91 560Q91 621 139 664T284 708Q368 708 434 681Q445 677 453 667T461 642Q461 626 449 614T420 602Q413 602 405 605Q381 614 353 619T290 624Q177 624 177 554Q177 530 199 513T255 483T328 455T401 420T457 369T479
292Q479 237 449 208T380 165Q409 146 427 117T445 45Q445 -16 397 -59T252 -103ZM320 198Q352 206 373 226T395 286Q395 320 368 339T299 374T215 407Q184 400 163 380T141 319Q141 286 168 266T237 231T320 198Z" />
<glyph unicode="&#xa8;" glyph-name="dieresis" horiz-adv-x="400" d="M284 575Q263 575 248 590T233 626Q233 647 248 662T284 677Q305 677 320 662T335 626Q335 605 320 590T284 575ZM116 575Q95 575 80 590T65 626Q65 647 80 662T116 677Q137 677 152 662T167
626Q167 605 152 590T116 575Z" />
<glyph unicode="&#xa9;" glyph-name="copyright" horiz-adv-x="819" d="M410 -9Q336 -9 271 19T157 96T79 210T51 349Q51 423 79 488T156 602T271 679T410 707Q484 707 549 679T663 602T741 488T769 349Q769 275 741 210T664 96T549 19T410 -9ZM409 43Q473 43
528 67T626 133T693 230T717 349Q717 412 693 467T627 565T529 631T409 655Q346 655 291 631T193 565T127 468T103 349Q103 286 127 231T193 133T290 67T409 43ZM416 146Q359 146 316 171T248 242T223 349Q223 411 247 456T315 527T416 552Q475 552 518 524T585
447Q588 441 588 434Q588 421 579 412T556 402Q549 402 541 406T525 424Q509 453 483 472T416 491Q374 491 346 471T304 419T290 349Q290 312 304 280T346 227T416 207Q456 207 482 226T525 274Q533 288 541 292T556 296Q570 296 579 287T588 264Q588 257 585 251Q561
202 518 174T416 146Z" />
<glyph unicode="&#xaa;" glyph-name="ordfeminine" horiz-adv-x="485" d="M197 339Q151 339 116 367T81 446Q81 496 120 524T242 553H318V555Q318 601 297 620T233 640Q206 640 184 636T142 624Q136 622 132 622Q119 622 110 631T100 654Q100 664 106 672T123
684Q149 694 179 701T244 708Q295 708 327 688T374 636T390 569V378Q390 363 380 353T354 342Q339 342 329 352T318 378V387Q302 369 273 354T197 339ZM220 404Q249 404 275 418T318 451V499H250Q205 499 179 489T153 452Q153 433 167 419T220 404ZM94 229Q83 229
75 237T66 257Q66 268 74 276T94 285H377Q388 285 396 277T405 257Q405 246 397 238T377 229H94Z" />
<glyph unicode="&#xab;" glyph-name="guillemotleft" horiz-adv-x="585" d="M472 20Q453 20 444 31L280 212Q273 220 268 231T262 255Q262 267 267 278T280 298L444 479Q453 490 472 490Q489 490 500 479T511 451Q511 436 502 425L342 255L502 85Q511 75 511 59Q511
42 500 31T472 20ZM264 20Q245 20 236 31L72 212Q65 220 60 231T54 255Q54 267 59 278T72 298L236 479Q245 490 264 490Q281 490 292 479T303 451Q303 436 294 425L134 255L294 85Q303 75 303 59Q303 42 292 31T264 20Z" />
<glyph unicode="&#xac;" glyph-name="logicalnot" horiz-adv-x="579" d="M458 168Q442 168 432 178T421 205V311H109Q94 311 84 321T73 347Q73 362 83 372T109 383H454Q471 383 483 371T496 341V205Q496 189 485 179T458 168Z" />
<glyph unicode="&#xad;" glyph-name="uni00AD" horiz-adv-x="408" d="M109 240Q92 240 81 251T69 280Q69 297 80 309T109 321H298Q315 321 327 309T339 280Q339 263 327 252T298 240H109Z" />
<glyph unicode="&#xae;" glyph-name="registered" horiz-adv-x="819" d="M410 -10Q336 -10 271 18T157 95T79 210T51 349Q51 423 79 488T156 602T271 680T410 708Q484 708 549 680T663 603T741 488T769 349Q769 275 741 210T664 96T549 18T410 -10ZM409 42Q473
42 528 66T626 132T693 230T717 350Q717 413 693 468T627 566T529 632T409 656Q346 656 291 632T193 566T127 469T103 350Q103 286 127 231T193 133T290 66T409 42ZM294 145Q280 145 271 154T261 178V502Q261 521 274 534T306 548H426Q509 548 546 514T583 428Q583
390 561 366T509 331Q533 323 555 294T578 206V179Q578 165 568 155T544 145Q530 145 520 155T510 179V197Q510 214 507 238T489 280T437 299H328V178Q328 164 318 155T294 145ZM328 358H423Q464 358 490 375T517 426Q517 455 497 472T421 490H328V358Z" />
<glyph unicode="&#xaf;" glyph-name="overscore" horiz-adv-x="312" d="M83 588Q70 588 62 596T53 618Q53 631 61 639T83 648H317Q330 648 338 640T347 618Q347 605 339 597T317 588H83Z" />
<glyph unicode="&#xb0;" glyph-name="degree" horiz-adv-x="378" d="M189 434Q152 434 121 452T71 502T52 571Q52 609 70 640T120 689T189 708Q227 708 258 690T307 640T326 571Q326 534 308 503T258 453T189 434ZM189 486Q224 486 249 511T274 571Q274 606 249
631T189 656Q154 656 129 631T104 571Q104 536 129 511T189 486Z" />
<glyph unicode="&#xb1;" glyph-name="plusminus" horiz-adv-x="606" d="M303 145Q287 145 276 156T264 184V342H100Q84 342 73 353T62 380Q62 397 73 408T100 419H264V577Q264 594 275 605T303 616Q320 616 331 605T342 577V419H505Q522 419 533 408T544 380Q544
364 533 353T505 342H342V184Q342 168 331 157T303 145ZM100 0Q84 0 73 11T62 38Q62 55 73 66T100 77H505Q522 77 533 66T544 38Q544 22 533 11T505 0H100Z" />
<glyph unicode="&#xb2;" glyph-name="uni00B2" horiz-adv-x="370" d="M77 310Q60 310 49 322T38 350Q38 384 60 410T116 459T182 501T237 543T260 588Q260 613 243 630T182 648Q151 648 128 642T87 626Q81 623 74 623Q62 623 54 630T46 651Q46 668 60 676Q83 690
116 699T190 709Q249 709 286 676T323 592Q323 558 305 531T258 481T199 439T143 402T107 369H297Q310 369 318 361T327 339Q327 326 319 318T297 310H77Z" />
<glyph unicode="&#xb3;" glyph-name="uni00B3" horiz-adv-x="370" d="M176 304Q98 304 53 329Q46 333 41 340T36 356Q36 368 45 376T65 385Q68 385 70 385T76 383Q93 378 116 372T167 366Q206 366 232 378T259 418Q259 480 147 480H136Q123 480 115 488T106 510Q106
523 114 531T136 540H141Q184 540 215 552T246 598Q246 627 221 637T168 648Q140 648 119 643T82 629Q76 626 69 626Q59 626 50 633T41 653Q41 669 60 679Q84 692 112 700T172 709Q245 709 276 678T308 603Q308 563 288 542T246 513Q273 505 297 483T322 416Q322
388 308 362T262 320T176 304Z" />
<glyph unicode="&#xb4;" glyph-name="acute" horiz-adv-x="240" d="M200 567Q188 567 181 574T173 594Q173 600 176 605T180 613L231 703Q236 711 243 716T264 722Q281 722 291 712T301 685Q301 671 291 660L222 578Q213 567 200 567Z" />
<glyph unicode="&#xb5;" glyph-name="uni00B5" horiz-adv-x="604" d="M129 -218Q110 -218 97 -205T84 -173V470Q84 489 97 502T130 515Q149 515 162 502T175 470V196Q175 139 201 107T285 74Q339 74 379 103T449 170V470Q449 489 462 502T495 515Q514 515 527
502T540 470V41Q540 22 527 9T495 -5Q476 -5 463 8T449 41V82Q428 59 403 38T346 4T268 -10Q239 -10 216 -2T175 17V-173Q175 -192 162 -205T129 -218Z" />
<glyph unicode="&#xb6;" glyph-name="paragraph" horiz-adv-x="732" d="M371 -224Q355 -224 344 -212T332 -184V184H296Q225 184 167 218T74 311T39 441Q39 512 73 570T166 663T296 698H648Q665 698 676 687T688 658Q688 642 677 631T648 619H602V-184Q602 -200
591 -212T562 -224Q546 -224 535 -212T523 -184V619H411V-184Q411 -200 400 -212T371 -224Z" />
<glyph unicode="&#xb7;" glyph-name="middot" horiz-adv-x="260" d="M125 226Q102 226 86 242T69 282V288Q69 311 85 327T125 344H135Q158 344 174 328T191 288V282Q191 259 175 243T135 226H125Z" />
<glyph unicode="&#xb8;" glyph-name="cedilla" horiz-adv-x="307" d="M187 -221Q171 -221 147 -216T97 -195Q93 -193 90 -188T86 -178Q86 -170 90 -164T105 -158Q108 -158 111 -159T115 -161Q132 -170 146 -174T174 -178Q198 -178 214 -168T231 -132Q231 -117
221 -109T195 -101Q185 -101 175 -103T151 -112Q150 -113 147 -114T141 -115Q134 -115 129 -111T123 -99Q123 -94 124 -91T127 -85L191 17H233L187 -63Q203 -59 221 -59Q255 -59 276 -78T298 -129Q298 -175 269 -198T187 -221Z" />
<glyph unicode="&#xb9;" glyph-name="uni00B9" horiz-adv-x="370" d="M108 310Q95 310 87 318T79 339Q79 352 87 360T108 369H168V634L123 612Q119 611 116 610T108 608Q96 608 87 616T78 638Q78 657 97 666L169 703Q179 708 189 708Q209 708 220 696T232 665V369H282Q295
369 303 361T312 339Q312 326 304 318T282 310H108Z" />
<glyph unicode="&#xba;" glyph-name="ordmasculine" horiz-adv-x="514" d="M257 339Q176 339 128 390T79 524Q79 607 127 657T257 708Q338 708 386 658T435 524Q435 442 387 391T257 339ZM257 403Q281 403 305 415T346 454T363 525Q363 569 347 595T306 633T257
645Q233 645 209 633T168 595T151 525Q151 481 167 454T208 415T257 403ZM98 229Q87 229 79 237T70 257Q70 268 78 276T98 285H416Q427 285 435 277T444 257Q444 246 436 238T416 229H98Z" />
<glyph unicode="&#xbb;" glyph-name="guillemotright" horiz-adv-x="585" d="M321 20Q305 20 294 31T282 59Q282 75 291 85L451 255L291 425Q282 436 282 451Q282 468 293 479T321 490Q340 490 349 479L513 298Q521 290 526 279T531 255Q531 243 526 232T513 212L349
31Q340 20 321 20ZM113 20Q97 20 86 31T74 59Q74 75 83 85L243 255L83 425Q74 436 74 451Q74 468 85 479T113 490Q132 490 141 479L305 298Q313 290 318 279T323 255Q323 243 318 232T305 212L141 31Q132 20 113 20Z" />
<glyph unicode="&#xbc;" glyph-name="onequarter" horiz-adv-x="891" d="M108 310Q95 310 87 318T79 339Q79 352 87 360T108 369H168V634L123 612Q119 611 116 610T108 608Q96 608 87 616T78 638Q78 657 97 666L169 703Q179 708 189 708Q209 708 220 696T232 665V369H282Q295
369 303 361T312 339Q312 326 304 318T282 310H108ZM259 -24Q246 -24 236 -15T225 10Q225 18 230 28L644 710Q649 718 656 721T672 724Q686 724 696 715T706 690Q706 682 701 672L287 -10Q283 -17 275 -20T259 -24ZM769 -5Q756 -5 747 4T737 27V96H581Q564 96 552
108T539 138Q539 153 550 167L715 378Q722 386 730 392T751 399H759Q777 399 789 387T801 357V155H837Q850 155 858 147T867 125Q867 112 859 104T837 96H801V27Q801 14 792 5T769 -5ZM610 155H737V320L610 155Z" />
<glyph unicode="&#xbd;" glyph-name="onehalf" horiz-adv-x="931" d="M108 310Q95 310 87 318T79 339Q79 352 87 360T108 369H168V634L123 612Q119 611 116 610T108 608Q96 608 87 616T78 638Q78 657 97 666L169 703Q179 708 189 708Q209 708 220 696T232 665V369H282Q295
369 303 361T312 339Q312 326 304 318T282 310H108ZM259 -24Q246 -24 236 -15T225 10Q225 18 230 28L644 710Q649 718 656 721T672 724Q686 724 696 715T706 690Q706 682 701 672L287 -10Q283 -17 275 -20T259 -24ZM638 0Q621 0 610 12T599 40Q599 74 621 100T677
149T743 191T798 233T821 278Q821 303 804 320T743 338Q712 338 689 332T648 316Q642 313 635 313Q623 313 615 320T607 341Q607 358 621 366Q644 380 677 389T751 399Q810 399 847 366T884 282Q884 248 866 221T819 171T760 129T704 92T668 59H858Q871 59 879
51T888 29Q888 16 880 8T858 0H638Z" />
<glyph unicode="&#xbe;" glyph-name="threequarters" horiz-adv-x="891" d="M176 304Q98 304 53 329Q46 333 41 340T36 356Q36 368 45 376T65 385Q68 385 70 385T76 383Q93 378 116 372T167 366Q206 366 232 378T259 418Q259 480 147 480H136Q123 480 115 488T106
510Q106 523 114 531T136 540H141Q184 540 215 552T246 598Q246 627 221 637T168 648Q140 648 119 643T82 629Q76 626 69 626Q59 626 50 633T41 653Q41 669 60 679Q84 692 112 700T172 709Q245 709 276 678T308 603Q308 563 288 542T246 513Q273 505 297 483T322
416Q322 388 308 362T262 320T176 304ZM259 -24Q246 -24 236 -15T225 10Q225 18 230 28L644 710Q649 718 656 721T672 724Q686 724 696 715T706 690Q706 682 701 672L287 -10Q283 -17 275 -20T259 -24ZM769 -5Q756 -5 747 4T737 27V96H581Q564 96 552 108T539 138Q539
153 550 167L715 378Q722 386 730 392T751 399H759Q777 399 789 387T801 357V155H837Q850 155 858 147T867 125Q867 112 859 104T837 96H801V27Q801 14 792 5T769 -5ZM610 155H737V320L610 155Z" />
<glyph unicode="&#xbf;" glyph-name="questiondown" horiz-adv-x="488" d="M273 395Q248 395 231 412T213 454Q213 479 230 496T273 514Q297 514 314 497T332 454Q332 430 315 413T273 395ZM265 -198Q163 -198 102 -147T40 -9Q40 39 59 71T106 126T161 172T208
220T227 285Q227 302 240 313T271 324Q290 324 302 313T315 285Q315 234 297 199T251 138T195 91T149 48T130 -4Q130 -55 163 -84T273 -113Q307 -113 341 -105T401 -80Q413 -72 426 -72Q443 -72 454 -83T466 -112Q466 -126 459 -135T441 -150Q399 -176 357 -187T265
-198Z" />
<glyph unicode="&#xc0;" glyph-name="Agrave" horiz-adv-x="746" d="M95 -5Q74 -5 62 8T50 40Q50 48 55 60L310 662Q317 678 331 690T368 703H378Q401 703 415 691T436 662L691 60Q696 48 696 40Q696 21 684 8T651 -5Q620 -5 608 23L543 179H203L138 23Q126 -5
95 -5ZM238 262H508L373 587L238 262ZM373 739Q360 739 351 750L282 832Q272 843 272 857Q272 874 282 884T309 894Q322 894 330 889T342 875L393 785Q395 783 397 778T400 766Q400 754 393 747T373 739Z" />
<glyph unicode="&#xc1;" glyph-name="Aacute" horiz-adv-x="746" d="M95 -5Q74 -5 62 8T50 40Q50 48 55 60L310 662Q317 678 331 690T368 703H378Q401 703 415 691T436 662L691 60Q696 48 696 40Q696 21 684 8T651 -5Q620 -5 608 23L543 179H203L138 23Q126 -5
95 -5ZM238 262H508L373 587L238 262ZM373 739Q361 739 354 746T346 766Q346 772 349 777T353 785L404 875Q409 883 416 888T437 894Q454 894 464 884T474 857Q474 843 464 832L395 750Q386 739 373 739Z" />
<glyph unicode="&#xc2;" glyph-name="Acircumflex" horiz-adv-x="746" d="M95 -5Q74 -5 62 8T50 40Q50 48 55 60L310 662Q317 678 331 690T368 703H378Q401 703 415 691T436 662L691 60Q696 48 696 40Q696 21 684 8T651 -5Q620 -5 608 23L543 179H203L138 23Q126
-5 95 -5ZM238 262H508L373 587L238 262ZM268 738Q255 738 246 747T238 768Q238 779 246 787L314 857Q322 865 331 871T354 877H392Q406 877 415 871T432 857L500 787Q508 779 508 768Q509 757 500 748T478 738Q467 738 460 745L373 819L286 745Q279 738 268 738Z"
/>
<glyph unicode="&#xc3;" glyph-name="Atilde" horiz-adv-x="746" d="M95 -5Q74 -5 62 8T50 40Q50 48 55 60L310 662Q317 678 331 690T368 703H378Q401 703 415 691T436 662L691 60Q696 48 696 40Q696 21 684 8T651 -5Q620 -5 608 23L543 179H203L138 23Q126 -5
95 -5ZM238 262H508L373 587L238 262ZM235 743Q226 743 219 749T212 766Q212 786 222 808T251 845T296 861Q325 861 350 850T399 826T450 814Q466 814 474 821T487 841Q490 849 495 855T512 862Q523 862 528 856T535 840Q535 819 525 797T495 760T451 745Q421 745
396 757T347 781T297 793Q282 793 273 784T258 761Q256 754 251 749T235 743Z" />
<glyph unicode="&#xc4;" glyph-name="Adieresis" horiz-adv-x="746" d="M95 -5Q74 -5 62 8T50 40Q50 48 55 60L310 662Q317 678 331 690T368 703H378Q401 703 415 691T436 662L691 60Q696 48 696 40Q696 21 684 8T651 -5Q620 -5 608 23L543 179H203L138 23Q126
-5 95 -5ZM238 262H508L373 587L238 262ZM457 747Q436 747 421 762T406 798Q406 819 421 834T457 849Q478 849 493 834T508 798Q508 777 493 762T457 747ZM289 747Q268 747 253 762T238 798Q238 819 253 834T289 849Q310 849 325 834T340 798Q340 777 325 762T289
747Z" />
<glyph unicode="&#xc5;" glyph-name="Aring" horiz-adv-x="746" d="M95 -5Q74 -5 62 8T50 40Q50 48 55 60L310 662Q317 678 331 690T368 703H378Q401 703 415 691T436 662L691 60Q696 48 696 40Q696 21 684 8T651 -5Q620 -5 608 23L543 179H203L138 23Q126 -5
95 -5ZM238 262H508L373 587L238 262ZM373 723Q334 723 307 750T279 817Q279 856 306 883T373 911Q412 911 439 884T467 817Q467 778 440 751T373 723ZM373 768Q393 768 407 782T422 817Q422 837 408 851T373 866Q353 866 339 852T324 817Q324 797 338 783T373
768Z" />
<glyph unicode="&#xc6;" glyph-name="AE" horiz-adv-x="1040" d="M48 -5Q29 -5 16 8T2 40Q2 48 5 54T12 68L411 673Q428 698 457 698H945Q963 698 975 686T988 655Q988 637 976 625T945 613H590V392H909Q927 392 939 380T952 349Q952 331 940 319T909 307H590V85H945Q963
85 975 73T988 42Q988 24 976 12T945 0H544Q525 0 512 13T499 45V179H191L89 21Q82 11 72 3T48 -5ZM245 262H499V613H474L245 262Z" />
<glyph unicode="&#xc7;" glyph-name="Ccedilla" horiz-adv-x="695" d="M405 -10Q306 -10 227 33T101 157T55 349Q55 461 101 541T226 664T405 708Q479 708 533 690T633 646Q643 641 648 633T655 610Q656 594 645 582T615 570Q605 570 597 574Q557 595 515 608T414
621Q326 621 266 585T176 488T146 349Q146 272 176 211T266 113T414 77Q473 77 515 90T597 124Q605 128 615 128Q634 128 645 116T655 88Q654 74 649 66T633 52Q587 26 533 8T405 -10ZM382 -221Q366 -221 342 -216T292 -195Q288 -193 285 -188T281 -178Q281 -170
285 -164T300 -158Q303 -158 306 -159T310 -161Q327 -170 341 -174T369 -178Q393 -178 409 -168T426 -132Q426 -117 416 -109T390 -101Q380 -101 370 -103T346 -112Q345 -113 342 -114T336 -115Q329 -115 324 -111T318 -99Q318 -94 319 -91T322 -85L386 17H428L382
-63Q398 -59 416 -59Q450 -59 471 -78T493 -129Q493 -175 464 -198T382 -221Z" />
<glyph unicode="&#xc8;" glyph-name="Egrave" horiz-adv-x="638" d="M142 0Q123 0 110 13T97 45V652Q97 671 110 684T142 698H543Q561 698 573 686T586 655Q586 637 574 625T543 613H188V392H507Q525 392 537 380T550 349Q550 331 538 319T507 307H188V85H543Q561
85 573 73T586 42Q586 24 574 12T543 0H142ZM342 739Q329 739 320 750L251 832Q241 843 241 857Q241 874 251 884T278 894Q291 894 299 889T311 875L362 785Q364 783 366 778T369 766Q369 754 362 747T342 739Z" />
<glyph unicode="&#xc9;" glyph-name="Eacute" horiz-adv-x="638" d="M142 0Q123 0 110 13T97 45V652Q97 671 110 684T142 698H543Q561 698 573 686T586 655Q586 637 574 625T543 613H188V392H507Q525 392 537 380T550 349Q550 331 538 319T507 307H188V85H543Q561
85 573 73T586 42Q586 24 574 12T543 0H142ZM342 739Q330 739 323 746T315 766Q315 772 318 777T322 785L373 875Q378 883 385 888T406 894Q423 894 433 884T443 857Q443 843 433 832L364 750Q355 739 342 739Z" />
<glyph unicode="&#xca;" glyph-name="Ecircumflex" horiz-adv-x="638" d="M142 0Q123 0 110 13T97 45V652Q97 671 110 684T142 698H543Q561 698 573 686T586 655Q586 637 574 625T543 613H188V392H507Q525 392 537 380T550 349Q550 331 538 319T507 307H188V85H543Q561
85 573 73T586 42Q586 24 574 12T543 0H142ZM237 738Q224 738 215 747T207 768Q207 779 215 787L283 857Q291 865 300 871T323 877H361Q375 877 384 871T401 857L469 787Q477 779 477 768Q478 757 469 748T447 738Q436 738 429 745L342 819L255 745Q248 738 237
738Z" />
<glyph unicode="&#xcb;" glyph-name="Edieresis" horiz-adv-x="638" d="M142 0Q123 0 110 13T97 45V652Q97 671 110 684T142 698H543Q561 698 573 686T586 655Q586 637 574 625T543 613H188V392H507Q525 392 537 380T550 349Q550 331 538 319T507 307H188V85H543Q561
85 573 73T586 42Q586 24 574 12T543 0H142ZM426 747Q405 747 390 762T375 798Q375 819 390 834T426 849Q447 849 462 834T477 798Q477 777 462 762T426 747ZM258 747Q237 747 222 762T207 798Q207 819 222 834T258 849Q279 849 294 834T309 798Q309 777 294 762T258
747Z" />
<glyph unicode="&#xcc;" glyph-name="Igrave" horiz-adv-x="285" d="M142 -5Q123 -5 110 8T97 40V657Q97 676 110 689T142 703Q161 703 174 690T188 657V40Q188 21 175 8T142 -5ZM399 739Q386 739 377 750L308 832Q298 843 298 857Q298 874 308 884T335 894Q348
894 356 889T368 875L419 785Q421 783 423 778T426 766Q426 754 419 747T399 739Z" />
<glyph unicode="&#xcd;" glyph-name="Iacute" horiz-adv-x="285" d="M142 -5Q123 -5 110 8T97 40V657Q97 676 110 689T142 703Q161 703 174 690T188 657V40Q188 21 175 8T142 -5ZM399 739Q387 739 380 746T372 766Q372 772 375 777T379 785L430 875Q435 883 442
888T463 894Q480 894 490 884T500 857Q500 843 490 832L421 750Q412 739 399 739Z" />
<glyph unicode="&#xce;" glyph-name="Icircumflex" horiz-adv-x="285" d="M142 -5Q123 -5 110 8T97 40V657Q97 676 110 689T142 703Q161 703 174 690T188 657V40Q188 21 175 8T142 -5ZM294 738Q281 738 272 747T264 768Q264 779 272 787L340 857Q348 865 357 871T380
877H418Q432 877 441 871T458 857L526 787Q534 779 534 768Q535 757 526 748T504 738Q493 738 486 745L399 819L312 745Q305 738 294 738Z" />
<glyph unicode="&#xcf;" glyph-name="Idieresis" horiz-adv-x="285" d="M142 -5Q123 -5 110 8T97 40V657Q97 676 110 689T142 703Q161 703 174 690T188 657V40Q188 21 175 8T142 -5ZM483 747Q462 747 447 762T432 798Q432 819 447 834T483 849Q504 849 519 834T534
798Q534 777 519 762T483 747ZM315 747Q294 747 279 762T264 798Q264 819 279 834T315 849Q336 849 351 834T366 798Q366 777 351 762T315 747Z" />
<glyph unicode="&#xd0;" glyph-name="Eth" horiz-adv-x="756" d="M147 0Q128 0 115 13T102 45V315H48Q34 315 25 324T15 348Q15 362 24 372T48 382H102V652Q102 671 115 684T147 698H348Q438 698 504 668T614 587T679 474T701 349Q701 286 680 224T614 112T504
31T348 0H147ZM193 85H337Q421 85 482 118T577 211T611 349Q611 427 578 486T483 579T337 613H193V382H310Q324 382 334 372T344 348Q344 334 334 325T310 315H193V85Z" />
<glyph unicode="&#xd1;" glyph-name="Ntilde" horiz-adv-x="803" d="M142 -5Q123 -5 110 8T97 40V637Q97 664 116 683T162 703H175Q192 703 206 695T230 673L615 117V657Q615 676 628 689T660 703Q679 703 692 690T706 657V60Q706 33 687 14T640 -5H628Q612 -5
598 2T575 22L188 581V40Q188 21 175 8T142 -5ZM264 743Q255 743 248 749T241 766Q241 786 251 808T280 845T325 861Q354 861 379 850T428 826T479 814Q495 814 503 821T516 841Q519 849 524 855T541 862Q552 862 557 856T564 840Q564 819 554 797T524 760T480
745Q450 745 425 757T376 781T326 793Q311 793 302 784T287 761Q285 754 280 749T264 743Z" />
<glyph unicode="&#xd2;" glyph-name="Ograve" horiz-adv-x="812" d="M406 -10Q299 -10 221 36T100 163T55 349Q57 454 100 535T221 662T406 708Q513 708 591 662T712 535T757 349Q755 244 712 163T591 36T406 -10ZM406 75Q489 75 547 111T635 210T666 349Q666
426 636 488T547 586T406 623Q323 623 265 587T177 488T146 349Q146 272 176 210T265 112T406 75ZM406 739Q393 739 384 750L315 832Q305 843 305 857Q305 874 315 884T342 894Q355 894 363 889T375 875L426 785Q428 783 430 778T433 766Q433 754 426 747T406 739Z"
/>
<glyph unicode="&#xd3;" glyph-name="Oacute" horiz-adv-x="812" d="M406 -10Q299 -10 221 36T100 163T55 349Q57 454 100 535T221 662T406 708Q513 708 591 662T712 535T757 349Q755 244 712 163T591 36T406 -10ZM406 75Q489 75 547 111T635 210T666 349Q666
426 636 488T547 586T406 623Q323 623 265 587T177 488T146 349Q146 272 176 210T265 112T406 75ZM406 739Q394 739 387 746T379 766Q379 772 382 777T386 785L437 875Q442 883 449 888T470 894Q487 894 497 884T507 857Q507 843 497 832L428 750Q419 739 406 739Z"
/>
<glyph unicode="&#xd4;" glyph-name="Ocircumflex" horiz-adv-x="812" d="M406 -10Q299 -10 221 36T100 163T55 349Q57 454 100 535T221 662T406 708Q513 708 591 662T712 535T757 349Q755 244 712 163T591 36T406 -10ZM406 75Q489 75 547 111T635 210T666 349Q666
426 636 488T547 586T406 623Q323 623 265 587T177 488T146 349Q146 272 176 210T265 112T406 75ZM301 738Q288 738 279 747T271 768Q271 779 279 787L347 857Q355 865 364 871T387 877H425Q439 877 448 871T465 857L533 787Q541 779 541 768Q542 757 533 748T511
738Q500 738 493 745L406 819L319 745Q312 738 301 738Z" />
<glyph unicode="&#xd5;" glyph-name="Otilde" horiz-adv-x="812" d="M406 -10Q299 -10 221 36T100 163T55 349Q57 454 100 535T221 662T406 708Q513 708 591 662T712 535T757 349Q755 244 712 163T591 36T406 -10ZM406 75Q489 75 547 111T635 210T666 349Q666
426 636 488T547 586T406 623Q323 623 265 587T177 488T146 349Q146 272 176 210T265 112T406 75ZM268 743Q259 743 252 749T245 766Q245 786 255 808T284 845T329 861Q358 861 383 850T432 826T483 814Q499 814 507 821T520 841Q523 849 528 855T545 862Q556 862
561 856T568 840Q568 819 558 797T528 760T484 745Q454 745 429 757T380 781T330 793Q315 793 306 784T291 761Q289 754 284 749T268 743Z" />
<glyph unicode="&#xd6;" glyph-name="Odieresis" horiz-adv-x="812" d="M406 -10Q299 -10 221 36T100 163T55 349Q57 454 100 535T221 662T406 708Q513 708 591 662T712 535T757 349Q755 244 712 163T591 36T406 -10ZM406 75Q489 75 547 111T635 210T666 349Q666
426 636 488T547 586T406 623Q323 623 265 587T177 488T146 349Q146 272 176 210T265 112T406 75ZM490 747Q469 747 454 762T439 798Q439 819 454 834T490 849Q511 849 526 834T541 798Q541 777 526 762T490 747ZM322 747Q301 747 286 762T271 798Q271 819 286
834T322 849Q343 849 358 834T373 798Q373 777 358 762T322 747Z" />
<glyph unicode="&#xd7;" glyph-name="multiply" horiz-adv-x="563" d="M97 36Q81 36 70 47T59 74Q59 89 71 101L228 258L71 415Q59 427 59 442Q59 457 70 468T97 480Q112 480 124 468L281 311L438 468Q450 480 465 480Q482 480 492 469T503 442Q503 427 491 415L334
258L491 101Q503 89 503 74Q503 59 493 48T465 36Q450 36 438 48L281 205L124 48Q112 36 97 36Z" />
<glyph unicode="&#xd8;" glyph-name="Oslash" horiz-adv-x="812" d="M158 -30Q147 -30 140 -23T133 -6Q133 2 139 11L178 66Q120 114 89 187T55 349Q57 454 100 535T221 662T406 708Q460 708 507 695T594 659L634 717Q641 727 655 727Q666 727 673 720T680 703Q680
695 674 686L635 630Q692 582 723 510T757 349Q755 244 712 163T591 36T406 -10Q352 -10 305 2T219 37L179 -20Q172 -30 158 -30ZM229 139L543 588Q515 605 481 614T406 623Q323 623 265 587T177 488T146 349Q146 285 167 231T229 139ZM406 75Q489 75 547 111T635
210T666 349Q666 412 645 466T584 558L269 109Q328 75 406 75Z" />
<glyph unicode="&#xd9;" glyph-name="Ugrave" horiz-adv-x="758" d="M379 -10Q329 -10 278 6T185 55T118 140T92 262V657Q92 676 105 689T137 703Q156 703 169 690T183 657V259Q183 197 211 156T285 94T379 73Q428 73 473 93T546 155T575 259V657Q575 676 588
689T620 703Q639 703 652 690T666 657V262Q666 192 641 141T573 56T480 6T379 -10ZM379 739Q366 739 357 750L288 832Q278 843 278 857Q278 874 288 884T315 894Q328 894 336 889T348 875L399 785Q401 783 403 778T406 766Q406 754 399 747T379 739Z" />
<glyph unicode="&#xda;" glyph-name="Uacute" horiz-adv-x="758" d="M379 -10Q329 -10 278 6T185 55T118 140T92 262V657Q92 676 105 689T137 703Q156 703 169 690T183 657V259Q183 197 211 156T285 94T379 73Q428 73 473 93T546 155T575 259V657Q575 676 588
689T620 703Q639 703 652 690T666 657V262Q666 192 641 141T573 56T480 6T379 -10ZM379 739Q367 739 360 746T352 766Q352 772 355 777T359 785L410 875Q415 883 422 888T443 894Q460 894 470 884T480 857Q480 843 470 832L401 750Q392 739 379 739Z" />
<glyph unicode="&#xdb;" glyph-name="Ucircumflex" horiz-adv-x="758" d="M379 -10Q329 -10 278 6T185 55T118 140T92 262V657Q92 676 105 689T137 703Q156 703 169 690T183 657V259Q183 197 211 156T285 94T379 73Q428 73 473 93T546 155T575 259V657Q575 676
588 689T620 703Q639 703 652 690T666 657V262Q666 192 641 141T573 56T480 6T379 -10ZM274 738Q261 738 252 747T244 768Q244 779 252 787L320 857Q328 865 337 871T360 877H398Q412 877 421 871T438 857L506 787Q514 779 514 768Q515 757 506 748T484 738Q473
738 466 745L379 819L292 745Q285 738 274 738Z" />
<glyph unicode="&#xdc;" glyph-name="Udieresis" horiz-adv-x="758" d="M379 -10Q329 -10 278 6T185 55T118 140T92 262V657Q92 676 105 689T137 703Q156 703 169 690T183 657V259Q183 197 211 156T285 94T379 73Q428 73 473 93T546 155T575 259V657Q575 676 588
689T620 703Q639 703 652 690T666 657V262Q666 192 641 141T573 56T480 6T379 -10ZM463 747Q442 747 427 762T412 798Q412 819 427 834T463 849Q484 849 499 834T514 798Q514 777 499 762T463 747ZM295 747Q274 747 259 762T244 798Q244 819 259 834T295 849Q316
849 331 834T346 798Q346 777 331 762T295 747Z" />
<glyph unicode="&#xdd;" glyph-name="Yacute" horiz-adv-x="639" d="M320 -5Q301 -5 288 8T274 40V295L35 630Q27 643 27 657Q27 676 39 689T71 703Q96 703 111 680L320 376L529 680Q544 703 569 703Q589 703 601 690T613 657Q613 643 605 630L365 295V40Q365
21 352 8T320 -5ZM320 739Q308 739 301 746T293 766Q293 772 296 777T300 785L351 875Q356 883 363 888T384 894Q401 894 411 884T421 857Q421 843 411 832L342 750Q333 739 320 739Z" />
<glyph unicode="&#xde;" glyph-name="Thorn" horiz-adv-x="672" d="M142 -5Q123 -5 110 8T97 40V657Q97 676 110 689T142 703Q161 703 174 690T188 657V586H370Q446 586 497 567T579 515T623 443T637 364Q637 324 624 285T580 214T498 162T370 142H188V40Q188
21 175 8T142 -5ZM188 228H361Q436 228 476 248T531 300T546 364Q546 397 531 428T476 479T361 500H188V228Z" />
<glyph unicode="&#xdf;" glyph-name="germandbls" horiz-adv-x="608" d="M373 -10Q340 -10 312 -5T262 7Q249 12 240 21T230 45Q230 62 241 73T269 84Q277 84 284 81Q314 71 358 71Q377 71 404 80T451 113T472 185Q472 244 423 276T300 309Q282 309 272 319T262
346Q262 361 273 371T300 383Q362 390 397 422T433 502Q433 558 399 590T304 623Q272 623 241 611T190 567T170 475V41Q170 22 157 9T124 -4Q105 -4 92 9T79 41V486Q79 558 108 607T188 682T305 708Q343 708 382 697T453 661T504 600T524 512Q524 461 508 429T466
379T414 352Q445 345 479 326T538 270T563 174Q563 112 536 71T465 10T373 -10Z" />
<glyph unicode="&#xe0;" glyph-name="agrave" horiz-adv-x="562" d="M209 -10Q166 -10 129 8T69 59T46 140Q46 211 102 256T276 302H397V310Q397 377 364 405T263 434Q221 434 190 427T130 410Q122 408 117 408Q102 408 91 419T80 446Q80 473 106 484Q141 499
183 509T279 520Q352 520 398 491T466 417T488 323V40Q488 21 475 8T442 -5Q423 -5 410 8T397 40V66Q370 38 325 14T209 -10ZM243 70Q290 70 331 93T397 145V229H288Q218 229 178 211T137 150Q137 118 159 94T243 70ZM279 567Q266 567 257 578L188 660Q178 671
178 685Q178 702 188 712T215 722Q228 722 236 717T248 703L299 613Q301 611 303 606T306 594Q306 582 299 575T279 567Z" />
<glyph unicode="&#xe1;" glyph-name="aacute" horiz-adv-x="562" d="M209 -10Q166 -10 129 8T69 59T46 140Q46 211 102 256T276 302H397V310Q397 377 364 405T263 434Q221 434 190 427T130 410Q122 408 117 408Q102 408 91 419T80 446Q80 473 106 484Q141 499
183 509T279 520Q352 520 398 491T466 417T488 323V40Q488 21 475 8T442 -5Q423 -5 410 8T397 40V66Q370 38 325 14T209 -10ZM243 70Q290 70 331 93T397 145V229H288Q218 229 178 211T137 150Q137 118 159 94T243 70ZM279 567Q267 567 260 574T252 594Q252 600
255 605T259 613L310 703Q315 711 322 716T343 722Q360 722 370 712T380 685Q380 671 370 660L301 578Q292 567 279 567Z" />
<glyph unicode="&#xe2;" glyph-name="acircumflex" horiz-adv-x="562" d="M209 -10Q166 -10 129 8T69 59T46 140Q46 211 102 256T276 302H397V310Q397 377 364 405T263 434Q221 434 190 427T130 410Q122 408 117 408Q102 408 91 419T80 446Q80 473 106 484Q141
499 183 509T279 520Q352 520 398 491T466 417T488 323V40Q488 21 475 8T442 -5Q423 -5 410 8T397 40V66Q370 38 325 14T209 -10ZM243 70Q290 70 331 93T397 145V229H288Q218 229 178 211T137 150Q137 118 159 94T243 70ZM174 566Q161 566 152 575T144 596Q144
607 152 615L220 685Q228 693 237 699T260 705H298Q312 705 321 699T338 685L406 615Q414 607 414 596Q415 585 406 576T384 566Q373 566 366 573L279 647L192 573Q185 566 174 566Z" />
<glyph unicode="&#xe3;" glyph-name="atilde" horiz-adv-x="562" d="M209 -10Q166 -10 129 8T69 59T46 140Q46 211 102 256T276 302H397V310Q397 377 364 405T263 434Q221 434 190 427T130 410Q122 408 117 408Q102 408 91 419T80 446Q80 473 106 484Q141 499
183 509T279 520Q352 520 398 491T466 417T488 323V40Q488 21 475 8T442 -5Q423 -5 410 8T397 40V66Q370 38 325 14T209 -10ZM243 70Q290 70 331 93T397 145V229H288Q218 229 178 211T137 150Q137 118 159 94T243 70ZM141 571Q132 571 125 577T118 594Q118 614
128 636T157 673T202 689Q231 689 256 678T305 654T356 642Q372 642 380 649T393 669Q396 677 401 683T418 690Q429 690 434 684T441 668Q441 647 431 625T401 588T357 573Q327 573 302 585T253 609T203 621Q188 621 179 612T164 589Q162 582 157 577T141 571Z"
/>
<glyph unicode="&#xe4;" glyph-name="adieresis" horiz-adv-x="562" d="M209 -10Q166 -10 129 8T69 59T46 140Q46 211 102 256T276 302H397V310Q397 377 364 405T263 434Q221 434 190 427T130 410Q122 408 117 408Q102 408 91 419T80 446Q80 473 106 484Q141 499
183 509T279 520Q352 520 398 491T466 417T488 323V40Q488 21 475 8T442 -5Q423 -5 410 8T397 40V66Q370 38 325 14T209 -10ZM243 70Q290 70 331 93T397 145V229H288Q218 229 178 211T137 150Q137 118 159 94T243 70ZM363 575Q342 575 327 590T312 626Q312 647
327 662T363 677Q384 677 399 662T414 626Q414 605 399 590T363 575ZM195 575Q174 575 159 590T144 626Q144 647 159 662T195 677Q216 677 231 662T246 626Q246 605 231 590T195 575Z" />
<glyph unicode="&#xe5;" glyph-name="aring" horiz-adv-x="562" d="M209 -10Q166 -10 129 8T69 59T46 140Q46 211 102 256T276 302H397V310Q397 377 364 405T263 434Q221 434 190 427T130 410Q122 408 117 408Q102 408 91 419T80 446Q80 473 106 484Q141 499 183
509T279 520Q352 520 398 491T466 417T488 323V40Q488 21 475 8T442 -5Q423 -5 410 8T397 40V66Q370 38 325 14T209 -10ZM243 70Q290 70 331 93T397 145V229H288Q218 229 178 211T137 150Q137 118 159 94T243 70ZM279 551Q240 551 213 578T185 645Q185 684 212
711T279 739Q318 739 345 712T373 645Q373 606 346 579T279 551ZM279 596Q299 596 313 610T328 645Q328 665 314 679T279 694Q259 694 245 680T230 645Q230 625 244 611T279 596Z" />
<glyph unicode="&#xe6;" glyph-name="ae" horiz-adv-x="911" d="M242 -10Q189 -10 145 8T73 59T46 140Q46 211 102 255T276 299H397V310Q397 377 364 405T263 434Q221 434 190 427T130 410Q122 408 117 408Q102 408 91 419T80 446Q80 473 106 484Q141 499 183
509T279 520Q344 520 386 497T450 436Q479 474 523 497T631 520Q706 520 759 488T841 398T870 269Q870 253 859 240T826 226H482Q490 159 531 117T659 75Q704 75 735 83T794 106Q802 110 812 110Q828 110 840 99T852 71Q852 59 845 50T826 34Q793 15 755 3T651
-10Q583 -10 532 12T448 77Q425 41 390 22T315 -3T242 -10ZM482 299H780Q777 351 754 382T697 428T631 443Q599 443 566 429T509 383T482 299ZM260 70Q291 70 322 78T375 107T397 169V226H288Q218 226 178 210T137 150Q137 118 168 94T260 70Z" />
<glyph unicode="&#xe7;" glyph-name="ccedilla" horiz-adv-x="533" d="M315 -10Q244 -10 183 21T85 112T48 255Q48 339 85 398T183 488T315 520Q374 520 413 505T478 472Q498 459 498 437Q498 423 487 410T460 397Q449 397 438 403Q412 417 387 426T323 435Q236
435 188 385T139 255Q139 175 187 125T323 75Q362 75 387 84T438 107Q449 113 460 113Q476 113 487 100T498 73Q498 51 478 38Q453 22 414 6T315 -10ZM285 -221Q269 -221 245 -216T195 -195Q191 -193 188 -188T184 -178Q184 -170 188 -164T203 -158Q206 -158 209
-159T213 -161Q230 -170 244 -174T272 -178Q296 -178 312 -168T329 -132Q329 -117 319 -109T293 -101Q283 -101 273 -103T249 -112Q248 -113 245 -114T239 -115Q232 -115 227 -111T221 -99Q221 -94 222 -91T225 -85L289 17H331L285 -63Q301 -59 319 -59Q353 -59
374 -78T396 -129Q396 -175 367 -198T285 -221Z" />
<glyph unicode="&#xe8;" glyph-name="egrave" horiz-adv-x="566" d="M307 -10Q185 -10 117 59T48 255Q48 323 73 383T151 482T287 520Q364 520 417 485T497 392T525 268Q525 249 513 236T479 223H140Q148 156 191 116T315 75Q360 75 391 83T450 106Q458 110 468
110Q484 110 496 99T508 71Q508 59 501 50T482 34Q449 15 411 3T307 -10ZM140 297H435Q432 349 409 381T352 428T287 443Q255 443 222 428T166 381T140 297ZM285 567Q272 567 263 578L194 660Q184 671 184 685Q184 702 194 712T221 722Q234 722 242 717T254 703L305
613Q307 611 309 606T312 594Q312 582 305 575T285 567Z" />
<glyph unicode="&#xe9;" glyph-name="eacute" horiz-adv-x="566" d="M307 -10Q185 -10 117 59T48 255Q48 323 73 383T151 482T287 520Q364 520 417 485T497 392T525 268Q525 249 513 236T479 223H140Q148 156 191 116T315 75Q360 75 391 83T450 106Q458 110 468
110Q484 110 496 99T508 71Q508 59 501 50T482 34Q449 15 411 3T307 -10ZM140 297H435Q432 349 409 381T352 428T287 443Q255 443 222 428T166 381T140 297ZM285 567Q273 567 266 574T258 594Q258 600 261 605T265 613L316 703Q321 711 328 716T349 722Q366 722
376 712T386 685Q386 671 376 660L307 578Q298 567 285 567Z" />
<glyph unicode="&#xea;" glyph-name="ecircumflex" horiz-adv-x="566" d="M307 -10Q185 -10 117 59T48 255Q48 323 73 383T151 482T287 520Q364 520 417 485T497 392T525 268Q525 249 513 236T479 223H140Q148 156 191 116T315 75Q360 75 391 83T450 106Q458 110
468 110Q484 110 496 99T508 71Q508 59 501 50T482 34Q449 15 411 3T307 -10ZM140 297H435Q432 349 409 381T352 428T287 443Q255 443 222 428T166 381T140 297ZM180 566Q167 566 158 575T150 596Q150 607 158 615L226 685Q234 693 243 699T266 705H304Q318 705
327 699T344 685L412 615Q420 607 420 596Q421 585 412 576T390 566Q379 566 372 573L285 647L198 573Q191 566 180 566Z" />
<glyph unicode="&#xeb;" glyph-name="edieresis" horiz-adv-x="566" d="M307 -10Q185 -10 117 59T48 255Q48 323 73 383T151 482T287 520Q364 520 417 485T497 392T525 268Q525 249 513 236T479 223H140Q148 156 191 116T315 75Q360 75 391 83T450 106Q458 110
468 110Q484 110 496 99T508 71Q508 59 501 50T482 34Q449 15 411 3T307 -10ZM140 297H435Q432 349 409 381T352 428T287 443Q255 443 222 428T166 381T140 297ZM369 575Q348 575 333 590T318 626Q318 647 333 662T369 677Q390 677 405 662T420 626Q420 605 405
590T369 575ZM201 575Q180 575 165 590T150 626Q150 647 165 662T201 677Q222 677 237 662T252 626Q252 605 237 590T201 575Z" />
<glyph unicode="&#xec;" glyph-name="igrave" horiz-adv-x="249" d="M124 -5Q105 -5 92 8T79 40V469Q79 489 92 502T124 515Q144 515 157 502T170 469V40Q170 21 157 8T124 -5ZM381 567Q368 567 359 578L290 660Q280 671 280 685Q280 702 290 712T317 722Q330
722 338 717T350 703L401 613Q403 611 405 606T408 594Q408 582 401 575T381 567Z" />
<glyph unicode="&#xed;" glyph-name="iacute" horiz-adv-x="249" d="M124 -5Q105 -5 92 8T79 40V469Q79 489 92 502T124 515Q144 515 157 502T170 469V40Q170 21 157 8T124 -5ZM381 567Q369 567 362 574T354 594Q354 600 357 605T361 613L412 703Q417 711 424
716T445 722Q462 722 472 712T482 685Q482 671 472 660L403 578Q394 567 381 567Z" />
<glyph unicode="&#xee;" glyph-name="icircumflex" horiz-adv-x="249" d="M124 -5Q105 -5 92 8T79 40V469Q79 489 92 502T124 515Q144 515 157 502T170 469V40Q170 21 157 8T124 -5ZM276 566Q263 566 254 575T246 596Q246 607 254 615L322 685Q330 693 339 699T362
705H400Q414 705 423 699T440 685L508 615Q516 607 516 596Q517 585 508 576T486 566Q475 566 468 573L381 647L294 573Q287 566 276 566Z" />
<glyph unicode="&#xef;" glyph-name="idieresis" horiz-adv-x="249" d="M124 -5Q105 -5 92 8T79 40V469Q79 489 92 502T124 515Q144 515 157 502T170 469V40Q170 21 157 8T124 -5ZM465 575Q444 575 429 590T414 626Q414 647 429 662T465 677Q486 677 501 662T516
626Q516 605 501 590T465 575ZM297 575Q276 575 261 590T246 626Q246 647 261 662T297 677Q318 677 333 662T348 626Q348 605 333 590T297 575Z" />
<glyph unicode="&#xf0;" glyph-name="eth" horiz-adv-x="593" d="M296 -10Q221 -10 166 22T79 113T48 248Q48 315 75 373T155 468T282 505Q316 505 344 497T395 477Q373 509 346 539T288 594L204 545Q200 543 196 541T187 539Q177 539 170 546T162 564Q162 579
177 587L245 627Q226 640 208 652T169 675Q160 680 155 690T149 710Q149 728 161 740T191 752Q203 752 213 746Q234 733 262 715T321 671L389 712Q397 717 404 717Q415 717 422 710T429 692Q429 678 417 670L361 637Q408 595 450 541T518 419T545 274Q545 197 520
133T441 29T296 -10ZM296 70Q333 70 370 88T432 146T457 252Q457 317 432 356T370 413T296 431Q259 431 222 414T161 357T136 252Q136 186 160 146T222 88T296 70Z" />
<glyph unicode="&#xf1;" glyph-name="ntilde" horiz-adv-x="609" d="M124 -5Q105 -5 92 8T79 40V469Q79 489 92 502T124 515Q143 515 156 502T170 469V428Q202 463 245 491T356 520Q413 520 453 494T514 423T535 324V40Q535 21 522 8T489 -5Q470 -5 457 8T444
40V314Q444 371 419 403T334 436Q280 436 240 407T170 340V40Q170 21 157 8T124 -5ZM167 571Q158 571 151 577T144 594Q144 614 154 636T183 673T228 689Q257 689 282 678T331 654T382 642Q398 642 406 649T419 669Q422 677 427 683T444 690Q455 690 460 684T467
668Q467 647 457 625T427 588T383 573Q353 573 328 585T279 609T229 621Q214 621 205 612T190 589Q188 582 183 577T167 571Z" />
<glyph unicode="&#xf2;" glyph-name="ograve" horiz-adv-x="608" d="M304 -10Q227 -10 169 23T80 116T48 255Q48 334 79 393T169 486T304 520Q381 520 438 487T528 394T560 255Q560 176 528 117T439 24T304 -10ZM304 73Q342 73 380 91T443 149T469 256Q469 322
444 362T380 419T304 437Q266 437 228 420T164 362T139 256Q139 190 164 150T227 91T304 73ZM304 567Q291 567 282 578L213 660Q203 671 203 685Q203 702 213 712T240 722Q253 722 261 717T273 703L324 613Q326 611 328 606T331 594Q331 582 324 575T304 567Z"
/>
<glyph unicode="&#xf3;" glyph-name="oacute" horiz-adv-x="608" d="M304 -10Q227 -10 169 23T80 116T48 255Q48 334 79 393T169 486T304 520Q381 520 438 487T528 394T560 255Q560 176 528 117T439 24T304 -10ZM304 73Q342 73 380 91T443 149T469 256Q469 322
444 362T380 419T304 437Q266 437 228 420T164 362T139 256Q139 190 164 150T227 91T304 73ZM304 567Q292 567 285 574T277 594Q277 600 280 605T284 613L335 703Q340 711 347 716T368 722Q385 722 395 712T405 685Q405 671 395 660L326 578Q317 567 304 567Z"
/>
<glyph unicode="&#xf4;" glyph-name="ocircumflex" horiz-adv-x="608" d="M304 -10Q227 -10 169 23T80 116T48 255Q48 334 79 393T169 486T304 520Q381 520 438 487T528 394T560 255Q560 176 528 117T439 24T304 -10ZM304 73Q342 73 380 91T443 149T469 256Q469
322 444 362T380 419T304 437Q266 437 228 420T164 362T139 256Q139 190 164 150T227 91T304 73ZM199 566Q186 566 177 575T169 596Q169 607 177 615L245 685Q253 693 262 699T285 705H323Q337 705 346 699T363 685L431 615Q439 607 439 596Q440 585 431 576T409
566Q398 566 391 573L304 647L217 573Q210 566 199 566Z" />
<glyph unicode="&#xf5;" glyph-name="otilde" horiz-adv-x="608" d="M304 -10Q227 -10 169 23T80 116T48 255Q48 334 79 393T169 486T304 520Q381 520 438 487T528 394T560 255Q560 176 528 117T439 24T304 -10ZM304 73Q342 73 380 91T443 149T469 256Q469 322
444 362T380 419T304 437Q266 437 228 420T164 362T139 256Q139 190 164 150T227 91T304 73ZM166 571Q157 571 150 577T143 594Q143 614 153 636T182 673T227 689Q256 689 281 678T330 654T381 642Q397 642 405 649T418 669Q421 677 426 683T443 690Q454 690 459
684T466 668Q466 647 456 625T426 588T382 573Q352 573 327 585T278 609T228 621Q213 621 204 612T189 589Q187 582 182 577T166 571Z" />
<glyph unicode="&#xf6;" glyph-name="odieresis" horiz-adv-x="608" d="M304 -10Q227 -10 169 23T80 116T48 255Q48 334 79 393T169 486T304 520Q381 520 438 487T528 394T560 255Q560 176 528 117T439 24T304 -10ZM304 73Q342 73 380 91T443 149T469 256Q469
322 444 362T380 419T304 437Q266 437 228 420T164 362T139 256Q139 190 164 150T227 91T304 73ZM388 575Q367 575 352 590T337 626Q337 647 352 662T388 677Q409 677 424 662T439 626Q439 605 424 590T388 575ZM220 575Q199 575 184 590T169 626Q169 647 184 662T220
677Q241 677 256 662T271 626Q271 605 256 590T220 575Z" />
<glyph unicode="&#xf7;" glyph-name="divide" horiz-adv-x="712" d="M356 465Q335 465 320 480T305 516Q305 537 320 552T356 567Q377 567 392 552T407 516Q407 495 392 480T356 465ZM113 291Q96 291 85 302T73 331Q73 348 84 360T113 372H598Q615 372 627 360T639
331Q639 314 627 303T598 291H113ZM356 95Q335 95 320 110T305 146Q305 167 320 182T356 197Q377 197 392 182T407 146Q407 125 392 110T356 95Z" />
<glyph unicode="&#xf8;" glyph-name="oslash" horiz-adv-x="608" d="M120 -31Q109 -31 102 -24T95 -7Q95 1 101 10L130 51Q91 86 70 138T48 255Q48 334 79 393T169 486T304 520Q342 520 375 512T436 488L465 529Q472 539 486 539Q497 539 504 532T511 515Q511
507 505 498L477 458Q517 424 538 372T560 255Q560 176 528 117T439 24T304 -10Q229 -10 171 22L141 -21Q134 -31 120 -31ZM182 125L386 416Q347 437 304 437Q266 437 228 420T164 362T139 256Q139 212 151 180T182 125ZM304 73Q342 73 380 91T443 149T469 256Q469
300 457 331T426 385L222 94Q242 83 262 78T304 73Z" />
<glyph unicode="&#xf9;" glyph-name="ugrave" horiz-adv-x="609" d="M253 -10Q196 -10 156 16T95 88T74 186V470Q74 489 87 502T120 515Q139 515 152 502T165 470V196Q165 139 191 107T275 74Q329 74 369 103T439 170V470Q439 489 452 502T485 515Q504 515 517
502T530 470V41Q530 22 517 9T485 -5Q466 -5 453 8T439 41V82Q408 48 364 19T253 -10ZM305 567Q292 567 283 578L214 660Q204 671 204 685Q204 702 214 712T241 722Q254 722 262 717T274 703L325 613Q327 611 329 606T332 594Q332 582 325 575T305 567Z" />
<glyph unicode="&#xfa;" glyph-name="uacute" horiz-adv-x="609" d="M253 -10Q196 -10 156 16T95 88T74 186V470Q74 489 87 502T120 515Q139 515 152 502T165 470V196Q165 139 191 107T275 74Q329 74 369 103T439 170V470Q439 489 452 502T485 515Q504 515 517
502T530 470V41Q530 22 517 9T485 -5Q466 -5 453 8T439 41V82Q408 48 364 19T253 -10ZM305 567Q293 567 286 574T278 594Q278 600 281 605T285 613L336 703Q341 711 348 716T369 722Q386 722 396 712T406 685Q406 671 396 660L327 578Q318 567 305 567Z" />
<glyph unicode="&#xfb;" glyph-name="ucircumflex" horiz-adv-x="609" d="M253 -10Q196 -10 156 16T95 88T74 186V470Q74 489 87 502T120 515Q139 515 152 502T165 470V196Q165 139 191 107T275 74Q329 74 369 103T439 170V470Q439 489 452 502T485 515Q504 515
517 502T530 470V41Q530 22 517 9T485 -5Q466 -5 453 8T439 41V82Q408 48 364 19T253 -10ZM200 566Q187 566 178 575T170 596Q170 607 178 615L246 685Q254 693 263 699T286 705H324Q338 705 347 699T364 685L432 615Q440 607 440 596Q441 585 432 576T410 566Q399
566 392 573L305 647L218 573Q211 566 200 566Z" />
<glyph unicode="&#xfc;" glyph-name="udieresis" horiz-adv-x="609" d="M253 -10Q196 -10 156 16T95 88T74 186V470Q74 489 87 502T120 515Q139 515 152 502T165 470V196Q165 139 191 107T275 74Q329 74 369 103T439 170V470Q439 489 452 502T485 515Q504 515
517 502T530 470V41Q530 22 517 9T485 -5Q466 -5 453 8T439 41V82Q408 48 364 19T253 -10ZM389 575Q368 575 353 590T338 626Q338 647 353 662T389 677Q410 677 425 662T440 626Q440 605 425 590T389 575ZM221 575Q200 575 185 590T170 626Q170 647 185 662T221
677Q242 677 257 662T272 626Q272 605 257 590T221 575Z" />
<glyph unicode="&#xfd;" glyph-name="yacute" horiz-adv-x="537" d="M193 -235Q175 -235 163 -222T150 -191Q150 -182 153 -175L218 -8L30 450Q29 454 28 459T26 469Q26 488 39 501T71 515Q85 515 96 507T113 487L267 105L424 485Q430 499 440 507T466 515Q485
515 498 502T511 469Q511 460 508 452L235 -204Q229 -217 219 -226T193 -235ZM269 567Q257 567 250 574T242 594Q242 600 245 605T249 613L300 703Q305 711 312 716T333 722Q350 722 360 712T370 685Q370 671 360 660L291 578Q282 567 269 567Z" />
<glyph unicode="&#xfe;" glyph-name="thorn" horiz-adv-x="631" d="M124 -235Q105 -235 92 -222T79 -189V689Q79 709 92 722T124 735Q144 735 157 722T170 689V444Q205 480 247 500T341 520Q402 520 457 489T547 399T583 255Q583 170 548 111T457 21T341 -10Q289
-10 247 10T170 66V-189Q170 -208 157 -221T124 -235ZM328 75Q399 75 445 121T492 255Q492 344 446 389T328 435Q279 435 239 414T170 360V150Q199 118 239 97T328 75Z" />
<glyph unicode="&#xff;" glyph-name="ydieresis" horiz-adv-x="537" d="M193 -235Q175 -235 163 -222T150 -191Q150 -182 153 -175L218 -8L30 450Q29 454 28 459T26 469Q26 488 39 501T71 515Q85 515 96 507T113 487L267 105L424 485Q430 499 440 507T466 515Q485
515 498 502T511 469Q511 460 508 452L235 -204Q229 -217 219 -226T193 -235ZM353 575Q332 575 317 590T302 626Q302 647 317 662T353 677Q374 677 389 662T404 626Q404 605 389 590T353 575ZM185 575Q164 575 149 590T134 626Q134 647 149 662T185 677Q206 677
221 662T236 626Q236 605 221 590T185 575Z" />
<glyph unicode="&#x2013;" glyph-name="endash" horiz-adv-x="684" d="M109 240Q92 240 81 251T69 280Q69 297 80 309T109 321H574Q591 321 603 309T615 280Q615 263 603 252T574 240H109Z" />
<glyph unicode="&#x2014;" glyph-name="emdash" horiz-adv-x="891" d="M109 240Q92 240 81 251T69 280Q69 297 80 309T109 321H781Q798 321 810 309T822 280Q822 263 810 252T781 240H109Z" />
<glyph unicode="&#x2018;" glyph-name="quoteleft" horiz-adv-x="255" d="M122 477Q99 477 83 493T66 533V592Q66 652 92 686T148 738Q150 740 155 741T165 743Q178 743 186 734T194 713Q194 697 179 688Q157 675 143 656T128 595H132Q155 595 171 579T188 539V533Q188
510 172 494T132 477H122Z" />
<glyph unicode="&#x2019;" glyph-name="quoteright" horiz-adv-x="238" d="M92 477Q79 477 71 486T63 507Q63 523 78 532Q100 545 114 564T129 625H125Q102 625 86 641T69 681V687Q69 710 85 726T125 743H135Q158 743 174 727T191 687V628Q191 568 165 534T109
482Q107 481 102 479T92 477Z" />
<glyph unicode="&#x201a;" glyph-name="quotesinglbase" horiz-adv-x="260" d="M92 -151Q79 -151 71 -142T63 -121Q63 -105 78 -96Q100 -83 114 -64T129 -3H125Q102 -3 86 13T69 53V59Q69 82 85 98T125 115H135Q158 115 174 99T191 59V0Q191 -60 165 -94T109 -146Q107
-147 102 -149T92 -151Z" />
<glyph unicode="&#x201c;" glyph-name="quotedblleft" horiz-adv-x="437" d="M303 477Q280 477 264 493T247 533V592Q247 652 273 686T329 738Q331 740 336 741T346 743Q359 743 367 734T375 713Q375 697 360 688Q338 675 324 656T309 595H313Q336 595 352 579T369
539V533Q369 510 353 494T313 477H303ZM122 477Q99 477 83 493T66 533V592Q66 652 92 686T148 738Q150 740 155 741T165 743Q178 743 186 734T194 713Q194 697 179 688Q157 675 143 656T128 595H132Q155 595 171 579T188 539V533Q188 510 172 494T132 477H122Z"
/>
<glyph unicode="&#x201d;" glyph-name="quotedblright" horiz-adv-x="420" d="M273 477Q260 477 252 486T244 507Q244 523 259 532Q281 545 295 564T310 625H306Q283 625 267 641T250 681V687Q250 710 266 726T306 743H316Q339 743 355 727T372 687V628Q372 568
346 534T290 482Q288 481 283 479T273 477ZM92 477Q79 477 71 486T63 507Q63 523 78 532Q100 545 114 564T129 625H125Q102 625 86 641T69 681V687Q69 710 85 726T125 743H135Q158 743 174 727T191 687V628Q191 568 165 534T109 482Q107 481 102 479T92 477Z" />
<glyph unicode="&#x201e;" glyph-name="quotedblbase" horiz-adv-x="441" d="M273 -151Q260 -151 252 -142T244 -121Q244 -105 259 -96Q281 -83 295 -64T310 -3H306Q283 -3 267 13T250 53V59Q250 82 266 98T306 115H316Q339 115 355 99T372 59V0Q372 -60 346 -94T290
-146Q288 -147 283 -149T273 -151ZM92 -151Q79 -151 71 -142T63 -121Q63 -105 78 -96Q100 -83 114 -64T129 -3H125Q102 -3 86 13T69 53V59Q69 82 85 98T125 115H135Q158 115 174 99T191 59V0Q191 -60 165 -94T109 -146Q107 -147 102 -149T92 -151Z" />
<glyph unicode="&#x2022;" glyph-name="bullet" horiz-adv-x="377" d="M189 260Q152 260 122 278T74 326T56 393Q56 430 74 460T122 508T189 526Q226 526 255 508T303 460T321 393Q321 356 303 326T256 278T189 260Z" />
<glyph unicode="&#x2039;" glyph-name="guilsinglleft" horiz-adv-x="377" d="M264 20Q245 20 236 31L72 212Q65 220 60 231T54 255Q54 267 59 278T72 298L236 479Q245 490 264 490Q281 490 292 479T303 451Q303 436 294 425L134 255L294 85Q303 75 303 59Q303
42 292 31T264 20Z" />
<glyph unicode="&#x203a;" glyph-name="guilsinglright" horiz-adv-x="377" d="M113 20Q97 20 86 31T74 59Q74 75 83 85L243 255L83 425Q74 436 74 451Q74 468 85 479T113 490Q132 490 141 479L305 298Q313 290 318 279T323 255Q323 243 318 232T305 212L141 31Q132
20 113 20Z" />
</font>
</defs>
</svg>
