<?xml version="1.0" standalone="no"?>
<!DOCTYPE svg PUBLIC "-//W3C//DTD SVG 1.1//EN" "http://www.w3.org/Graphics/SVG/1.1/DTD/svg11.dtd">
<svg xmlns="http://www.w3.org/2000/svg">
<defs >
<font id="SecularOne" horiz-adv-x="579" ><font-face
    font-family="Secular One"
    units-per-em="1000"
    panose-1="0 0 0 0 0 0 0 0 0 0"
    ascent="1022"
    descent="-433"
    alphabetic="0" />
<glyph unicode=" " glyph-name="space" horiz-adv-x="200" />
<glyph unicode="!" glyph-name="exclam" horiz-adv-x="391" d="M136 235L100 716L291 736L254 235H136ZM199 -25Q161 -25 134 2T106 68Q106 106 133 134T199 162Q237 162 264 134T292 68Q292 30 265 3T199 -25Z" />
<glyph unicode="&quot;" glyph-name="quotedbl" horiz-adv-x="608" d="M356 319L332 406Q352 431 368 456T393 505L335 592Q335 615 347 637T382 673T435 688Q477 688 507 658T538 580Q538 548 521 506T464 415T356 319ZM94 319L70 406Q90 431 106 456T131 505L73
592Q73 615 85 637T120 673T173 688Q215 688 245 658T276 580Q276 548 259 506T202 415T94 319Z" />
<glyph unicode="#" glyph-name="numbersign" horiz-adv-x="693" d="M152 -7L175 124H76V214H191L210 326H76V415H227L248 533L340 540L318 415H426L447 533L539 540L518 415H616V326H501L482 214H616V124H465L444 0L351 -7L374 124H266L244 0L152 -7ZM283 214H390L409
326H301L283 214Z" />
<glyph unicode="$" glyph-name="dollar" horiz-adv-x="581" d="M221 -99L146 -88L170 -3Q108 9 65 35L77 169Q138 131 203 117L246 273Q215 285 183 300T125 336T82 391T66 473Q66 568 131 623T312 679Q323 679 335 679T358 677L379 751L455 740L433 662Q464 654
492 643L470 511Q454 520 436 528T400 541L357 387Q396 372 432 350T492 290T516 192Q516 95 451 41T266 -13H245L221 -99ZM286 415L325 556H310Q263 556 237 538T211 488Q211 459 232 444T286 415ZM279 111Q320 114 345 133T371 183Q371 206 356 220T317 245L279
111Z" />
<glyph unicode="%" glyph-name="percent" horiz-adv-x="786" d="M201 -10L134 -1L585 671L652 663L201 -10ZM205 399Q166 399 135 417T84 465T65 534Q65 573 84 603T134 652T205 670Q244 670 275 652T325 604T344 534Q344 496 326 466T276 417T205 399ZM205 467Q233
467 250 487T267 534Q267 560 250 581T205 602Q177 602 160 581T142 534Q142 508 159 488T205 467ZM582 -9Q544 -9 513 9T463 58T444 127Q444 165 462 196T512 245T582 263Q621 263 652 245T702 196T721 127Q721 89 703 58T653 9T582 -9ZM581 60Q610 60 627 80T644
127Q644 153 627 174T581 195Q553 195 536 174T519 127Q519 101 536 81T581 60Z" />
<glyph unicode="&amp;" glyph-name="ampersand" horiz-adv-x="684" d="M551 -22L473 60Q432 25 375 5T256 -15Q161 -15 103 32T45 161Q45 211 65 248T115 314T177 364Q138 411 125 445T112 513Q112 568 136 605T202 662T294 682Q368 682 410 643T452 538Q452 481
422 438T349 358Q371 336 398 309T459 246Q474 297 478 371L606 387Q607 251 554 151L659 40L551 -22ZM276 438Q298 456 315 480T332 530Q332 553 318 564T287 576Q268 576 251 563T234 520Q234 505 242 487T276 438ZM274 99Q308 99 339 111T392 143Q349 186 314
220T251 283Q210 255 193 229T176 176Q176 135 206 117T274 99Z" />
<glyph unicode="&apos;" glyph-name="quotesingle" horiz-adv-x="346" d="M94 319L70 406Q90 431 106 456T131 505L73 592Q73 615 85 637T120 673T173 688Q215 688 245 658T276 580Q276 548 259 506T202 415T94 319Z" />
<glyph unicode="(" glyph-name="parenleft" horiz-adv-x="399" d="M358 -184Q225 -107 150 13T75 288Q75 443 150 564T358 761L382 713Q324 651 287 588T233 453T215 289Q215 198 232 126T287 -10T383 -136L358 -184Z" />
<glyph unicode=")" glyph-name="parenright" horiz-adv-x="400" d="M41 -184L16 -136Q75 -73 112 -10T166 125T184 289Q184 380 167 452T112 588T17 713L41 761Q174 686 249 565T324 288Q324 134 250 14T41 -184Z" />
<glyph unicode="*" glyph-name="asterisk" horiz-adv-x="570" d="M302 234L260 381L146 274L68 374L192 465L62 540L131 648L252 559L281 709L402 675L353 529L502 548L508 420H361L420 280L302 234Z" />
<glyph unicode="+" glyph-name="plus" horiz-adv-x="650" d="M289 6V213H80L90 288H289V486L364 496V288H570L560 213H364V16L289 6Z" />
<glyph unicode="," glyph-name="comma" horiz-adv-x="346" d="M84 -196L60 -109Q80 -84 96 -59T121 -10L63 77Q63 100 75 122T110 158T163 173Q205 173 235 143T266 65Q266 33 249 -9T192 -100T84 -196Z" />
<glyph unicode="-" glyph-name="hyphen" horiz-adv-x="541" d="M65 243L75 358H475L465 243H65Z" />
<glyph unicode="." glyph-name="period" horiz-adv-x="336" d="M168 -34Q126 -34 96 -4T65 69Q65 112 95 142T168 173Q211 173 241 143T271 69Q271 27 241 -3T168 -34Z" />
<glyph unicode="/" glyph-name="slash" horiz-adv-x="507" d="M133 -10L20 0L374 730L487 720L133 -10Z" />
<glyph unicode="0" glyph-name="zero" horiz-adv-x="586" d="M293 -15Q172 -15 106 74T40 333Q40 503 106 591T293 680Q414 680 480 591T546 332Q546 163 480 74T293 -15ZM293 111Q345 111 374 168T403 331Q403 436 374 495T293 555Q241 555 212 498T183 335Q183
230 212 171T293 111Z" />
<glyph unicode="1" glyph-name="one" horiz-adv-x="438" d="M40 0L50 121H165V485L48 532V581L228 671H305V121H416L406 0H40Z" />
<glyph unicode="2" glyph-name="two" horiz-adv-x="517" d="M48 0V105Q145 208 205 276T293 392T321 476Q321 510 301 530T247 550Q215 550 186 531T131 475L28 548Q75 617 135 649T262 681Q320 681 366 659T438 595T465 494Q465 439 439 384T362 268T233 129H466L455
0H48Z" />
<glyph unicode="3" glyph-name="three" horiz-adv-x="486" d="M109 -15Q58 -15 4 -6L22 118Q48 114 74 111T122 108Q203 108 250 142T298 231Q298 266 279 286T222 306Q197 306 167 296L147 392Q177 402 206 420T254 463T274 511Q274 533 258 546T213 560Q185
560 155 545T99 501L15 593Q56 634 110 657T225 681Q281 681 322 661T387 607T410 530Q410 496 395 462T345 396Q392 374 416 333T441 238Q441 167 400 110T284 19T109 -15Z" />
<glyph unicode="4" glyph-name="four" horiz-adv-x="574" d="M326 0V150H35L25 253L325 666H457V262H534L524 150H457V0H326ZM170 262H326V492L170 262Z" />
<glyph unicode="5" glyph-name="five" horiz-adv-x="491" d="M115 -15Q64 -15 10 -6L28 118Q54 114 80 111T128 108Q208 108 255 145T303 240Q303 325 211 325Q165 325 123 305L67 346L86 666H426L418 548H202L196 435Q206 437 217 438T240 439Q332 439 389 387T446
243Q446 169 405 111T289 19T115 -15Z" />
<glyph unicode="6" glyph-name="six" horiz-adv-x="542" d="M263 -16Q197 -16 148 12T72 106T45 282Q45 399 77 489T174 630T342 681Q362 681 387 679T438 670L433 554Q411 557 391 559T351 561Q284 561 244 527T190 406Q225 418 256 423T314 429Q403 429 450
375T497 224Q497 109 433 47T263 -16ZM277 101Q315 101 338 128T361 213Q361 259 344 287T285 316Q245 316 182 291Q181 278 181 266T180 242Q180 180 204 141T277 101Z" />
<glyph unicode="7" glyph-name="seven" horiz-adv-x="473" d="M226 -20L79 10L301 547H26L36 666H438V560L226 -20Z" />
<glyph unicode="8" glyph-name="eight" horiz-adv-x="561" d="M273 -15Q163 -15 103 37T43 182Q43 238 66 284T133 361Q69 420 69 502Q69 561 98 600T177 660T285 681Q342 681 389 662T464 605T492 513Q492 467 472 427T417 354Q458 328 487 289T516 186Q516 96
452 41T273 -15ZM322 403Q340 420 350 444T360 491Q360 531 334 548T278 565Q250 565 228 551T205 506Q205 469 240 447T322 403ZM283 102Q330 102 355 121T380 175Q380 209 358 230T300 267T225 302Q199 278 187 250T175 194Q175 151 203 127T283 102Z" />
<glyph unicode="9" glyph-name="nine" horiz-adv-x="542" d="M200 -16Q180 -16 155 -14T104 -5L109 111Q132 108 152 106T191 104Q259 104 299 139T352 259Q317 247 286 242T228 236Q140 236 93 290T45 441Q45 557 109 619T279 681Q346 681 394 653T470 559T497
383Q497 267 465 177T368 35T200 -16ZM257 349Q297 349 360 374Q361 388 361 400T362 423Q362 485 338 524T265 564Q228 564 205 537T181 452Q181 406 198 378T257 349Z" />
<glyph unicode=":" glyph-name="colon" horiz-adv-x="386" d="M193 339Q150 339 120 369T90 442Q90 484 120 514T193 544Q235 544 265 514T296 442Q296 400 266 370T193 339ZM193 -24Q150 -24 120 6T90 79Q90 121 120 151T193 181Q235 181 265 151T296 79Q296
37 266 7T193 -24Z" />
<glyph unicode=";" glyph-name="semicolon" horiz-adv-x="410" d="M197 339Q154 339 124 369T94 442Q94 484 124 514T197 544Q239 544 269 514T300 442Q300 400 270 370T197 339ZM114 -196L90 -109Q110 -84 126 -59T151 -10L93 77Q93 100 105 122T140 158T193
173Q235 173 265 143T296 65Q296 33 279 -9T222 -100T114 -196Z" />
<glyph unicode="&lt;" glyph-name="less" horiz-adv-x="650" d="M588 -37L53 190L62 313L588 537V381L239 252L597 116L588 -37Z" />
<glyph unicode="=" glyph-name="equal" horiz-adv-x="650" d="M80 310L90 385H570L560 310H80ZM80 140L90 215H570L560 140H80Z" />
<glyph unicode="&gt;" glyph-name="greater" horiz-adv-x="650" d="M62 -37L53 116L411 252L62 381V537L588 313L597 190L62 -37Z" />
<glyph unicode="?" glyph-name="question" horiz-adv-x="511" d="M167 231Q162 263 161 278T159 304Q159 347 171 370T206 417Q235 447 260 468T301 511T317 559Q317 586 300 602T252 619Q224 619 196 601T159 535Q124 543 91 552T25 571Q37 616 68 653T148 713T257
735Q314 735 358 715T427 658T452 569Q452 530 438 498T401 440T353 387Q321 354 303 336T278 306T270 278L268 240L167 231ZM217 -25Q179 -25 151 3T123 70Q123 108 150 136T217 164Q256 164 283 136T311 69Q311 31 284 3T217 -25Z" />
<glyph unicode="@" glyph-name="at" horiz-adv-x="823" d="M398 -69Q297 -69 221 -27T103 90T60 262Q60 343 89 412T169 534T291 615T444 645Q538 645 610 607T722 501T763 341Q763 244 715 188T578 125Q567 124 554 124T524 123Q507 123 488 123T455 125L461
167H457Q438 144 410 131T353 118Q316 118 293 137T260 188T250 254Q250 292 261 328T294 393Q317 423 352 441T438 460Q488 460 560 439L531 191Q545 190 559 191T586 193Q635 199 660 232T685 333Q685 409 655 463T569 547T440 576Q352 576 284 536T177 426T138
269Q138 189 171 129T265 35T412 1Q449 1 488 8T567 31L558 -47Q527 -57 482 -63T398 -69ZM377 189Q399 189 420 205T459 250L475 382Q455 391 429 391Q395 391 374 372T342 322T332 260Q332 189 377 189Z" />
<glyph unicode="A" glyph-name="A" horiz-adv-x="679" d="M7 0L251 666H425L672 0H522L468 152H206L155 0H7ZM248 276H425L335 531L248 276Z" />
<glyph unicode="B" glyph-name="B" horiz-adv-x="569" d="M70 0V666H293Q391 666 447 620T503 493Q503 402 424 353Q529 311 529 205Q529 144 499 98T416 26T295 0H70ZM209 395H259Q309 395 336 418T364 482Q364 556 272 556H209V395ZM209 111H273Q327 111 357
136T388 203Q388 241 363 262T287 283H209V111Z" />
<glyph unicode="C" glyph-name="C" horiz-adv-x="594" d="M381 -13Q222 -13 132 73T41 316Q41 425 83 505T203 631T384 676Q427 676 467 668T544 646L517 517Q484 532 451 540T385 548Q293 548 241 488T188 330Q188 229 244 173T399 117Q429 117 461 122T525 138L547
15Q474 -13 381 -13Z" />
<glyph unicode="D" glyph-name="D" horiz-adv-x="685" d="M175 -1Q148 -1 122 -1T69 0V666Q101 667 133 667T196 667Q228 667 260 667T323 666Q422 665 494 627T605 518T645 351Q645 246 600 168T472 46T280 0Q254 -1 228 -1T175 -1ZM214 126H279Q380 126 438
185T496 347Q496 440 447 490T304 540H214V126Z" />
<glyph unicode="E" glyph-name="E" horiz-adv-x="530" d="M70 0V666H475V540H213V407H430V285H213V126H475V0H70Z" />
<glyph unicode="F" glyph-name="F" horiz-adv-x="517" d="M70 0V666H477V540H215V388H432V263H215V0H70Z" />
<glyph unicode="G" glyph-name="G" horiz-adv-x="688" d="M403 -15Q291 -15 211 24T88 137T45 314Q45 423 90 504T218 630T409 675Q471 675 526 661T625 621L590 501Q551 525 504 538T409 552Q343 552 293 524T215 444T187 324Q187 224 247 167T413 109Q455 109
491 115V253H407V370H624V24Q521 -15 403 -15Z" />
<glyph unicode="H" glyph-name="H" horiz-adv-x="716" d="M70 0V666H216V408H499V666H646V0H499V284H216V0H70Z" />
<glyph unicode="I" glyph-name="I" horiz-adv-x="301" d="M78 0V666H223V0H78Z" />
<glyph unicode="J" glyph-name="J" horiz-adv-x="338" d="M93 -15Q68 -15 41 -10T-13 6L25 127Q38 120 51 116T78 111Q101 111 114 125T128 173V666H268V161Q268 80 221 33T93 -15Z" />
<glyph unicode="K" glyph-name="K" horiz-adv-x="615" d="M70 0V666H215V408L432 666H605L331 350L591 0H415L215 269V0H70Z" />
<glyph unicode="L" glyph-name="L" horiz-adv-x="485" d="M70 0V666H215V126H455V0H70Z" />
<glyph unicode="M" glyph-name="M" horiz-adv-x="911" d="M393 -18L216 470L174 0H45L108 666H288L458 188L623 666H803L864 0H734L688 468L512 -7L393 -18Z" />
<glyph unicode="N" glyph-name="N" horiz-adv-x="719" d="M70 0V666H240L516 199V666H649V0H481L203 470V0H70Z" />
<glyph unicode="O" glyph-name="O" horiz-adv-x="741" d="M371 -13Q272 -13 198 30T82 150T40 330Q40 434 81 511T197 631T371 674Q470 674 544 632T660 513T701 334Q701 230 660 152T545 31T371 -13ZM371 114Q454 114 503 173T552 330Q552 395 530 444T466 520T371
546Q317 547 277 520T213 444T190 330Q190 265 212 217T276 141T371 114Z" />
<glyph unicode="P" glyph-name="P" horiz-adv-x="547" d="M70 0V666Q92 667 120 667T180 667Q211 667 240 667T291 666Q393 664 452 612T512 464Q512 396 482 345T398 266T274 238H209V0H70ZM209 356H268Q317 356 344 384T372 460Q372 548 275 548H209V356Z" />
<glyph unicode="Q" glyph-name="Q" horiz-adv-x="746" d="M689 -103L479 1Q430 -14 371 -14Q272 -14 198 29T82 149T40 329Q40 433 81 510T197 630T371 673Q470 673 544 631T660 512T701 333Q701 256 678 192T611 82L704 34L689 -103ZM369 113L378 204L481 150Q515
178 533 224T552 329Q552 395 530 444T466 520T371 546Q317 547 277 520T213 443T190 329Q190 265 212 217T274 141T369 113Z" />
<glyph unicode="R" glyph-name="R" horiz-adv-x="560" d="M66 0V666Q89 667 118 667T178 667Q209 667 239 667T291 666Q409 662 463 609T517 472Q517 399 480 348T375 279Q398 261 420 231T479 141Q498 112 510 90T535 48T562 0H394L281 210Q262 245 247 252T205
260V0H66ZM205 371H267Q319 371 348 397T377 467Q377 549 275 549H205V371Z" />
<glyph unicode="S" glyph-name="S" horiz-adv-x="541" d="M246 -13Q187 -13 135 0T45 35L57 169Q102 141 151 126T243 110Q291 110 321 130T351 183Q351 207 336 220T297 244T244 266Q211 280 177 295T113 331T65 387T46 473Q46 568 111 623T292 679Q381 679 472
643L450 511Q413 532 371 544T290 556Q243 556 217 538T191 488Q191 459 212 444T267 414Q300 400 339 386T414 349T473 289T496 192Q496 95 431 41T246 -13Z" />
<glyph unicode="T" glyph-name="T" horiz-adv-x="568" d="M212 0V540H30V666H538V540H358V0H212Z" />
<glyph unicode="U" glyph-name="U" horiz-adv-x="696" d="M348 -13Q265 -13 202 22T105 120T70 267V666H216V278Q216 204 251 161T348 117Q409 117 445 161T481 278V666H626V267Q626 183 592 120T495 22T348 -13Z" />
<glyph unicode="V" glyph-name="V" horiz-adv-x="644" d="M235 0L10 666H170L328 158L485 666H634L410 0H235Z" />
<glyph unicode="W" glyph-name="W" horiz-adv-x="1022" d="M201 0L30 666H184L300 187L419 662L606 676L732 173L849 666H992L812 0H637L508 527L374 0H201Z" />
<glyph unicode="X" glyph-name="X" horiz-adv-x="673" d="M6 0L243 342L23 666H195L340 452L485 666H645L426 350L667 0H490L329 235L173 0H6Z" />
<glyph unicode="Y" glyph-name="Y" horiz-adv-x="607" d="M228 0V277L5 666H168L303 403L437 666H597L373 277V0H228Z" />
<glyph unicode="Z" glyph-name="Z" horiz-adv-x="590" d="M45 0V109L363 540H54V666H540V552L224 126H540V0H45Z" />
<glyph unicode="[" glyph-name="bracketleft" horiz-adv-x="324" d="M75 -182V740H289L279 636H185V-78H289L279 -182H75Z" />
<glyph unicode="\" glyph-name="backslash" horiz-adv-x="488" d="M356 0L-2 675H132L489 0H356Z" />
<glyph unicode="]" glyph-name="bracketright" horiz-adv-x="324" d="M35 -182L45 -78H139V636H35L45 740H249V-182H35Z" />
<glyph unicode="^" glyph-name="asciicircum" horiz-adv-x="674" d="M55 284L278 681H407L619 284H468L341 579L203 284H55Z" />
<glyph unicode="_" glyph-name="underscore" horiz-adv-x="585" d="M11 -110V0H574V-110H11Z" />
<glyph unicode="`" glyph-name="grave" horiz-adv-x="600" d="M284 580Q254 580 233 601T211 656Q211 692 234 722T293 774T371 807L389 768Q350 737 328 702L354 649Q354 623 335 602T284 580Z" />
<glyph unicode="a" glyph-name="a" horiz-adv-x="557" d="M214 -15Q135 -15 88 52T40 238Q40 380 112 454T319 529Q395 529 497 505V0H363L366 82H362Q310 -15 214 -15ZM244 108Q277 108 307 143T361 229V397Q345 402 328 404T297 406Q176 406 176 244Q176 181
194 145T244 108Z" />
<glyph unicode="b" glyph-name="b" horiz-adv-x="577" d="M254 -15Q214 -15 165 -9T65 9V730H204V465Q263 529 349 529Q438 529 487 463T537 277Q537 135 464 60T254 -15ZM269 108Q396 108 396 269Q396 334 375 370T314 406Q249 406 204 318V117Q220 113 237 111T269
108Z" />
<glyph unicode="c" glyph-name="c" horiz-adv-x="480" d="M305 -15Q177 -15 107 53T36 245Q36 330 69 394T162 493T301 529Q339 529 379 521T441 501L414 382Q391 393 363 399T312 406Q251 406 213 364T175 253Q175 183 214 145T323 107Q370 107 424 125L445 11Q411
-2 377 -8T305 -15Z" />
<glyph unicode="d" glyph-name="d" horiz-adv-x="577" d="M226 -15Q140 -15 90 51T40 237Q40 379 113 454T323 529Q337 529 349 529T374 527V730H513V0H376L379 67H375Q322 -15 226 -15ZM258 108Q290 108 320 135T374 214V397Q340 406 309 406Q246 406 214 365T181
245Q181 181 201 145T258 108Z" />
<glyph unicode="e" glyph-name="e" horiz-adv-x="563" d="M308 -15Q184 -15 112 57T40 257Q40 341 71 402T158 496T291 529Q403 529 463 457T523 249Q523 240 523 232T522 215H182Q202 107 325 107Q363 107 402 116T472 142L495 29Q412 -15 308 -15ZM181 321H388Q385
364 358 389T286 415Q243 415 216 390T181 321Z" />
<glyph unicode="f" glyph-name="f" horiz-adv-x="452" d="M46 0V121H137V394H46V515H137V578Q137 653 185 698T313 744Q369 744 437 716L388 605Q354 622 327 622Q278 622 278 571V515H398V394H278V121H398V0H46Z" />
<glyph unicode="g" glyph-name="g" horiz-adv-x="577" d="M232 -227Q196 -227 151 -222T58 -204L85 -80Q126 -92 166 -100T245 -108Q297 -108 324 -92T363 -40T376 51H373Q316 -15 227 -15Q139 -15 90 51T40 236Q40 379 114 454T324 529Q365 529 413 523T512 505Q513
428 513 350T514 195Q514 160 514 125T513 55Q511 -87 442 -157T232 -227ZM264 108Q296 108 323 131T373 196V397Q340 406 309 406Q245 406 213 365T181 246Q181 181 202 145T264 108Z" />
<glyph unicode="h" glyph-name="h" horiz-adv-x="606" d="M65 0V730H206V440Q238 487 278 508T369 529Q452 529 499 480T546 342V0H405V320Q405 361 385 383T331 405Q293 405 260 379T206 312V0H65Z" />
<glyph unicode="i" glyph-name="i" horiz-adv-x="398" d="M125 600V730H286V600H125ZM47 0V121H143V394H47V515H284V121H370V0H47Z" />
<glyph unicode="j" glyph-name="j" horiz-adv-x="303" d="M81 600V730H242V600H81ZM57 -233Q6 -233 -43 -213L-6 -96Q18 -107 40 -107Q91 -107 91 -45V515H232V-56Q232 -138 185 -185T57 -233Z" />
<glyph unicode="k" glyph-name="k" horiz-adv-x="545" d="M392 -15L206 224V0H65V731H206V327L367 515H534L328 284L545 6L392 -15Z" />
<glyph unicode="l" glyph-name="l" horiz-adv-x="393" d="M42 0V121H133V610H47V730H274V121H365V0H42Z" />
<glyph unicode="m" glyph-name="m" horiz-adv-x="943" d="M65 0V515H203V435Q264 529 368 529Q427 529 468 501T529 423Q564 478 607 503T707 529Q790 529 836 480T883 342V0H742V320Q742 361 723 383T670 405Q628 405 594 371T542 284V0H401V320Q401 360 381
382T328 405Q292 405 259 378T206 300V0H65Z" />
<glyph unicode="n" glyph-name="n" horiz-adv-x="612" d="M65 0V515H203V426Q235 480 277 504T375 529Q458 529 505 480T552 342V0H411V320Q411 361 391 383T337 405Q296 405 261 375T206 299V0H65Z" />
<glyph unicode="o" glyph-name="o" horiz-adv-x="604" d="M303 -15Q224 -15 165 19T73 114T40 257Q40 339 73 400T165 495T302 529Q381 529 439 496T531 402T564 260Q564 178 532 116T440 20T303 -15ZM302 107Q356 107 388 148T421 258Q421 326 389 366T302 407Q248
407 216 367T183 258Q183 190 215 149T302 107Z" />
<glyph unicode="p" glyph-name="p" horiz-adv-x="577" d="M65 -218V515H202L199 448H203Q256 530 352 530Q438 530 488 464T538 278Q538 136 465 61T255 -14Q242 -14 230 -14T204 -12V-218H65ZM269 109Q332 109 364 150T397 270Q397 335 377 371T320 407Q289 407
259 380T204 301V118Q239 109 269 109Z" />
<glyph unicode="q" glyph-name="q" horiz-adv-x="577" d="M373 -218V51Q316 -15 227 -15Q139 -15 90 51T40 236Q40 379 113 454T324 529Q362 529 411 523T512 506V-218H373ZM264 108Q296 108 323 131T373 196V397Q340 406 309 406Q245 406 213 365T181 246Q181
181 202 145T264 108Z" />
<glyph unicode="r" glyph-name="r" horiz-adv-x="399" d="M68 0V515H209V431H217Q243 477 271 503T346 530Q364 530 376 526L361 374Q350 377 340 379T319 381Q282 381 260 360T209 302V0H68Z" />
<glyph unicode="s" glyph-name="s" horiz-adv-x="469" d="M214 -15Q165 -15 120 -5T42 22L55 142Q89 121 130 108T207 95Q239 95 263 107T287 144Q287 168 262 179T183 210Q163 218 139 228T92 254T56 297T42 364Q42 418 69 454T145 510T253 529Q294 529 333 521T409
500L390 381Q361 398 325 408T256 419Q225 419 205 409T184 376Q184 358 198 348T236 330T289 310Q318 299 350 282T406 234T429 149Q429 92 401 56T324 2T214 -15Z" />
<glyph unicode="t" glyph-name="t" horiz-adv-x="421" d="M254 -15Q182 -15 143 21T103 125V394H23V515H103V625Q175 637 243 643V515H373V394H243V151Q243 108 291 108Q319 108 355 121L386 15Q322 -15 254 -15Z" />
<glyph unicode="u" glyph-name="u" horiz-adv-x="599" d="M236 -14Q154 -14 107 36T60 173V515H201V196Q201 155 221 133T275 110Q310 110 341 132T393 191V515H534V0H393V68Q367 33 330 10T236 -14Z" />
<glyph unicode="v" glyph-name="v" horiz-adv-x="547" d="M187 0L5 513L159 527L273 156L382 515H533L352 0H187Z" />
<glyph unicode="w" glyph-name="w" horiz-adv-x="850" d="M157 0L7 515H151L243 174L342 512L501 525L608 164L702 515H836L679 0H525L419 374L308 0H157Z" />
<glyph unicode="x" glyph-name="x" horiz-adv-x="545" d="M382 -8L271 158L168 0H8L198 266L26 515L182 523L279 377L369 515H523L353 273L538 0L382 -8Z" />
<glyph unicode="y" glyph-name="y" horiz-adv-x="542" d="M138 -224Q113 -224 90 -218T42 -202L63 -86Q101 -105 127 -105Q160 -105 175 -82T207 -15L6 513L152 525L275 156L389 515H528Q506 448 480 373T427 223T373 80T324 -41T284 -125Q257 -173 223 -198T138 -224Z" />
<glyph unicode="z" glyph-name="z" horiz-adv-x="503" d="M38 1V93L285 394H55V515H457V423L211 121H457V1H38Z" />
<glyph unicode="{" glyph-name="braceleft" horiz-adv-x="378" d="M278 -172L153 -162V87Q153 164 129 194T45 223V355Q104 353 128 383T153 491V740L278 750V525Q278 476 275 441T262 379T230 332T170 289Q208 267 230 246T262 198T275 137T278 53V-172Z" />
<glyph unicode="|" glyph-name="bar" horiz-adv-x="490" d="M200 -223V725L290 735V-213L200 -223Z" />
<glyph unicode="}" glyph-name="braceright" horiz-adv-x="378" d="M100 -172V53Q100 102 103 137T116 198T148 245T208 289Q170 311 148 332T116 379T103 440T100 525V750L225 740V491Q225 414 250 384T333 355V223Q275 225 250 195T225 87V-162L100 -172Z" />
<glyph unicode="~" glyph-name="asciitilde" horiz-adv-x="650" d="M76 208L81 287Q121 310 153 319T216 329Q255 329 294 318T372 295T444 284Q495 284 574 327L569 249Q534 227 502 218T439 208Q398 208 359 219T282 242T208 254Q177 254 148 243T76 208Z" />
<glyph unicode="&#xa0;" glyph-name="uni00A0" horiz-adv-x="200" />
<glyph unicode="&#xa1;" glyph-name="exclamdown" horiz-adv-x="392" d="M193 364Q155 364 128 392T100 458Q100 496 128 523T193 551Q231 551 258 524T286 458Q286 420 259 392T193 364ZM101 -210L138 291H256L292 -190L101 -210Z" />
<glyph unicode="&#xa2;" glyph-name="cent" horiz-adv-x="531" d="M221 -209L135 -199L184 5Q113 32 75 93T36 245Q36 330 69 394T162 493T301 529H310L358 730L445 720L396 517Q410 513 421 510T441 501L414 382Q404 387 392 391T367 399L298 108Q304 107 310
107T323 107Q370 107 424 125L445 11Q411 -2 377 -8T305 -15Q295 -15 286 -15T268 -13L221 -209ZM217 142L279 403Q232 392 204 352T175 253Q175 181 217 142Z" />
<glyph unicode="&#xa3;" glyph-name="sterling" horiz-adv-x="596" d="M118 0V316H30V431H118V545Q118 610 144 654T216 721T319 744Q362 744 410 732T508 693L465 579Q392 618 338 618Q301 618 280 596T259 527V431H432V316H259V121H516V0H118Z" />
<glyph unicode="&#xa4;" glyph-name="currency" horiz-adv-x="705" d="M349 -17Q295 -17 249 -2T165 40L121 -4L56 46L108 98Q83 134 69 179T55 277Q55 333 71 380T115 464L63 516L113 581L174 520Q247 571 349 571Q454 571 528 517L585 573L650 523L587 460Q614
423 628 377T643 277Q643 175 592 101L638 55L589 -10L536 43Q499 15 452 -1T349 -17ZM349 63Q410 63 456 90T529 166T555 277Q555 340 529 388T457 464T349 491Q288 491 242 464T169 389T143 277Q143 214 169 166T241 91T349 63Z" />
<glyph unicode="&#xa5;" glyph-name="yen" horiz-adv-x="612" d="M233 0V153H105L115 218H233V273H105L115 338H198L10 666H173L308 403L442 666H602L413 338H515L505 273H378V218H515L505 153H378V0H233Z" />
<glyph unicode="&#xa6;" glyph-name="brokenbar" horiz-adv-x="490" d="M200 393V725L290 735V403L200 393ZM200 -223V109L290 119V-213L200 -223Z" />
<glyph unicode="&#xa7;" glyph-name="section" horiz-adv-x="583" d="M264 -232Q221 -232 179 -223T99 -199L117 -71Q147 -90 184 -101T253 -113Q286 -113 306 -101T327 -63Q327 -38 308 -15T259 31T196 82T133 141T84 214T65 306Q65 352 84 389T145 460Q123 491
113 518T103 576Q103 631 131 669T209 728T321 748Q364 748 405 739T485 716L467 588Q437 607 400 618T331 629Q298 629 278 617T257 579Q257 555 276 532T324 486T387 435T450 376T499 303T518 211Q518 165 499 128T438 55Q460 26 470 -1T481 -61Q481 -114 453
-152T376 -211T264 -232ZM352 135Q361 146 366 159T372 192Q372 229 351 258T298 315T230 377Q220 365 215 350T210 319Q210 284 230 256T283 199T352 135Z" />
<glyph unicode="&#xa8;" glyph-name="dieresis" horiz-adv-x="600" d="M414 586Q383 586 360 609T336 665Q336 698 361 721T417 744Q449 744 472 721T495 665Q495 632 472 609T414 586ZM183 586Q151 586 128 609T105 665Q105 698 129 721T186 744Q218 744 241
721T264 665Q264 632 240 609T183 586Z" />
<glyph unicode="&#xa9;" glyph-name="copyright" horiz-adv-x="804" d="M402 -26Q297 -26 217 19T91 145T45 331Q45 437 90 517T216 642T402 688Q508 688 588 643T713 517T759 331Q759 226 714 146T588 20T402 -26ZM402 44Q484 44 546 80T643 182T678 331Q678
416 643 480T546 581T402 618Q321 618 259 582T161 481T126 331Q126 247 161 182T258 81T402 44ZM415 136Q323 136 271 185T219 324Q219 417 273 473T415 529Q464 529 507 512L491 439Q452 456 416 456Q364 456 334 422T303 331Q303 273 335 241T425 208Q458 208
496 219L508 151Q466 136 415 136Z" />
<glyph unicode="&#xaa;" glyph-name="ordfeminine" horiz-adv-x="451" d="M179 381Q129 381 101 421T72 532Q72 617 114 662T236 708Q260 708 287 705T347 694V390H266L268 425H266Q251 404 228 393T179 381ZM201 455Q238 455 265 510V629Q243 634 227 634Q154
634 154 538Q154 499 166 477T201 455ZM65 272V321H386V272H65Z" />
<glyph unicode="&#xab;" glyph-name="guillemotleft" horiz-adv-x="729" d="M572 17L350 277L564 538L657 469L531 277L664 81L572 17ZM302 17L80 277L294 538L387 469L261 277L394 81L302 17Z" />
<glyph unicode="&#xac;" glyph-name="logicalnot" horiz-adv-x="650" d="M495 154V319H80L90 394H570V164L495 154Z" />
<glyph unicode="&#xae;" glyph-name="registered" horiz-adv-x="804" d="M402 -26Q297 -26 217 19T91 145T45 331Q45 437 90 517T216 642T402 688Q508 688 588 643T713 517T759 331Q759 226 714 146T588 20T402 -26ZM402 44Q484 44 546 80T643 182T678 331Q678
416 643 480T546 581T402 618Q321 618 259 582T161 481T126 331Q126 247 161 182T258 81T402 44ZM282 145V525Q295 526 311 526T345 526Q363 526 380 526T410 525Q475 523 507 494T539 414Q539 375 519 345T459 305Q475 294 485 278T518 225Q533 200 540 188T550
171T555 161T564 145H469L405 265Q395 285 386 289T361 293V145H282ZM361 357H397Q426 357 442 371T459 411Q459 458 401 458H361V357Z" />
<glyph unicode="&#xaf;" glyph-name="overscore" horiz-adv-x="600" d="M133 598V687H467V598H133Z" />
<glyph unicode="&#xb0;" glyph-name="degree" horiz-adv-x="410" d="M205 496Q150 496 115 531T80 621Q80 677 115 711T205 746Q261 746 295 712T330 621Q330 566 296 531T205 496ZM205 559Q231 559 248 576T265 621Q265 649 248 666T205 684Q179 684 162 667T145
621Q145 593 162 576T205 559Z" />
<glyph unicode="&#xb1;" glyph-name="plusminus" horiz-adv-x="650" d="M289 146V303H90L100 378H289V526L364 536V378H560L550 303H364V156L289 146ZM90 0L100 75H560L550 0H90Z" />
<glyph unicode="&#xb2;" glyph-name="uni00B2" horiz-adv-x="403" d="M91 356V414Q145 471 178 509T227 573T243 619Q243 638 232 648T201 659Q168 659 136 618L80 661Q106 699 139 716T210 734Q258 734 290 707T323 631Q323 585 291 539T194 428H323L316 356H91Z" />
<glyph unicode="&#xb3;" glyph-name="uni00B3" horiz-adv-x="387" d="M122 347Q109 347 94 348T64 352L74 421Q89 419 103 418T130 416Q175 416 201 434T227 484Q227 526 185 526Q172 526 155 520L144 573Q169 581 191 600T214 640Q214 667 180 667Q147 667 117
634L70 685Q93 708 123 721T187 734Q234 734 262 710T290 650Q290 631 282 612T254 576Q280 563 293 540T307 488Q307 448 284 416T220 366T122 347Z" />
<glyph unicode="&#xb4;" glyph-name="acute" horiz-adv-x="600" d="M229 580L211 619Q250 650 272 685L246 738Q246 764 265 785T316 807Q346 807 367 786T389 731Q389 695 366 665T307 613T229 580Z" />
<glyph unicode="&#xb5;" glyph-name="uni00B5" horiz-adv-x="609" d="M221 -219H80V515H221V196Q221 155 241 133T295 110Q330 110 361 132T413 191V515H554V0H413V68Q387 33 350 10T256 -14Q238 -14 221 -11V-219Z" />
<glyph unicode="&#xb6;" glyph-name="paragraph" horiz-adv-x="628" d="M209 -124V374Q163 378 126 403T67 466T45 551Q45 600 69 640T134 705T225 730H568V625H510V-124H402V625H316V-124H209Z" />
<glyph unicode="&#xb7;" glyph-name="middot" horiz-adv-x="306" d="M152 186Q112 186 84 214T55 283Q55 323 83 351T152 379Q192 379 220 351T249 283Q249 243 221 215T152 186Z" />
<glyph unicode="&#xb8;" glyph-name="cedilla" horiz-adv-x="600" d="M305 -243Q269 -243 234 -231T176 -198L206 -155Q227 -169 250 -178T292 -187Q308 -187 318 -180T328 -156Q328 -136 304 -131T253 -126L232 -112L278 22L350 17L318 -56Q365 -63 394 -87T424
-151Q424 -192 388 -217T305 -243Z" />
<glyph unicode="&#xb9;" glyph-name="uni00B9" horiz-adv-x="382" d="M91 356L96 424H155V626L100 653V680L189 730H230V424H292L287 356H91Z" />
<glyph unicode="&#xba;" glyph-name="ordmasculine" horiz-adv-x="451" d="M225 381Q154 381 111 426T67 545Q67 618 110 663T224 708Q295 708 338 664T381 546Q381 473 338 427T225 381ZM224 454Q256 454 276 479T296 545Q296 586 276 610T224 635Q192 635 172
611T152 545Q152 504 172 479T224 454ZM65 272V321H386V272H65Z" />
<glyph unicode="&#xbb;" glyph-name="guillemotright" horiz-adv-x="729" d="M427 17L335 81L468 277L342 469L435 538L649 277L427 17ZM157 17L65 81L198 277L72 469L165 538L379 277L157 17Z" />
<glyph unicode="&#xbc;" glyph-name="onequarter" horiz-adv-x="890" d="M258 -10L191 -1L642 671L710 663L258 -10ZM92 294L97 362H156V564L101 591V618L190 668H231V362H293L288 294H92ZM683 0V86H522L516 143L683 373H756V148H800L793 86H756V0H683ZM597 148H683V276L597
148Z" />
<glyph unicode="&#xbd;" glyph-name="onehalf" horiz-adv-x="914" d="M257 -10L190 -1L641 671L709 663L257 -10ZM91 294L96 362H155V564L100 591V618L189 668H230V362H292L287 294H91ZM592 0V58Q646 115 679 153T728 217T744 263Q744 282 733 292T702 303Q669
303 637 262L581 305Q607 343 640 360T711 378Q759 378 791 351T824 275Q824 229 792 183T695 72H824L817 0H592Z" />
<glyph unicode="&#xbe;" glyph-name="threequarters" horiz-adv-x="908" d="M149 287Q136 287 121 288T91 292L101 361Q116 359 130 358T157 356Q202 356 228 374T254 424Q254 466 212 466Q199 466 182 460L171 513Q196 521 218 540T241 580Q241 607 207 607Q174
607 144 574L97 625Q120 648 150 661T214 674Q261 674 289 650T317 590Q317 571 309 552T281 516Q307 503 320 480T334 428Q334 388 311 356T247 306T149 287ZM276 -10L209 -1L660 671L728 663L276 -10ZM701 0V86H540L534 143L701 373H774V148H818L811 86H774V0H701ZM615
148H701V276L615 148Z" />
<glyph unicode="&#xbf;" glyph-name="questiondown" horiz-adv-x="517" d="M295 357Q256 357 229 385T201 452Q201 490 228 518T295 546Q333 546 361 518T389 451Q389 413 362 385T295 357ZM255 -214Q198 -214 154 -194T85 -136T60 -48Q60 -8 74 23T111 82T159
134Q192 167 209 185T234 215T242 243L244 281L345 290Q350 259 351 243T353 217Q353 174 341 151T306 104Q278 74 253 53T211 10T195 -38Q195 -65 212 -81T260 -98Q289 -98 316 -79T353 -14Q388 -21 421 -30T487 -50Q475 -95 444 -132T364 -191T255 -214Z" />
<glyph unicode="&#xc0;" glyph-name="Agrave" horiz-adv-x="679" d="M7 0L251 666H425L672 0H522L468 152H206L155 0H7ZM248 276H425L335 531L248 276ZM343 731Q313 731 292 752T270 807Q270 843 293 873T352 925T430 958L448 919Q409 888 387 853L413 800Q413
774 394 753T343 731Z" />
<glyph unicode="&#xc1;" glyph-name="Aacute" horiz-adv-x="679" d="M7 0L251 666H425L672 0H522L468 152H206L155 0H7ZM248 276H425L335 531L248 276ZM327 731L309 770Q348 801 370 836L344 889Q344 915 363 936T414 958Q444 958 465 937T487 882Q487 846 464
816T405 764T327 731Z" />
<glyph unicode="&#xc2;" glyph-name="Acircumflex" horiz-adv-x="679" d="M7 0L251 666H425L672 0H522L468 152H206L155 0H7ZM248 276H425L335 531L248 276ZM216 731L172 800L340 932L508 800L464 731L340 798L216 731Z" />
<glyph unicode="&#xc3;" glyph-name="Atilde" horiz-adv-x="679" d="M7 0L251 666H425L672 0H522L468 152H206L155 0H7ZM248 276H425L335 531L248 276ZM416 732Q380 732 352 747T300 779T254 795Q238 795 225 782T198 734L144 775Q161 840 194 869T268 898Q304
898 332 882T384 851T430 835Q446 835 459 848T486 896L540 855Q524 791 491 762T416 732Z" />
<glyph unicode="&#xc4;" glyph-name="Adieresis" horiz-adv-x="679" d="M7 0L251 666H425L672 0H522L468 152H206L155 0H7ZM248 276H425L335 531L248 276ZM454 737Q423 737 400 760T376 816Q376 849 401 872T457 895Q489 895 512 872T535 816Q535 783 512 760T454
737ZM223 737Q191 737 168 760T145 816Q145 849 169 872T226 895Q258 895 281 872T304 816Q304 783 280 760T223 737Z" />
<glyph unicode="&#xc5;" glyph-name="Aring" horiz-adv-x="679" d="M7 0L251 666H425L672 0H522L468 152H206L155 0H7ZM248 276H425L335 531L248 276ZM340 725Q304 725 275 741T229 786T211 850Q211 886 228 914T275 958T340 975Q376 975 405 959T451 914T469
850Q469 815 452 787T405 742T340 725ZM340 796Q363 796 376 812T390 850Q390 871 377 887T340 904Q318 904 304 888T290 850Q290 829 304 813T340 796Z" />
<glyph unicode="&#xc6;" glyph-name="AE" horiz-adv-x="893" d="M0 0L328 666H838V540H576V407H793V285H576V126H838V0H433V152H222L148 0H0ZM283 276H433V548H415L283 276Z" />
<glyph unicode="&#xc7;" glyph-name="Ccedilla" horiz-adv-x="594" d="M381 -13Q222 -13 132 73T41 316Q41 425 83 505T203 631T384 676Q427 676 467 668T544 646L517 517Q484 532 451 540T385 548Q293 548 241 488T188 330Q188 229 244 173T399 117Q429 117 461
122T525 138L547 15Q474 -13 381 -13ZM343 -243Q307 -243 272 -231T214 -198L244 -155Q265 -169 288 -178T330 -187Q346 -187 356 -180T366 -156Q366 -136 342 -131T291 -126L270 -112L316 22L388 17L356 -56Q403 -63 432 -87T462 -151Q462 -192 426 -217T343 -243Z"
/>
<glyph unicode="&#xc8;" glyph-name="Egrave" horiz-adv-x="530" d="M70 0V666H475V540H213V407H430V285H213V126H475V0H70ZM278 731Q248 731 227 752T205 807Q205 843 228 873T287 925T365 958L383 919Q344 888 322 853L348 800Q348 774 329 753T278 731Z" />
<glyph unicode="&#xc9;" glyph-name="Eacute" horiz-adv-x="530" d="M70 0V666H475V540H213V407H430V285H213V126H475V0H70ZM262 731L244 770Q283 801 305 836L279 889Q279 915 298 936T349 958Q379 958 400 937T422 882Q422 846 399 816T340 764T262 731Z" />
<glyph unicode="&#xca;" glyph-name="Ecircumflex" horiz-adv-x="530" d="M70 0V666H475V540H213V407H430V285H213V126H475V0H70ZM151 731L107 800L275 932L443 800L399 731L275 798L151 731Z" />
<glyph unicode="&#xcb;" glyph-name="Edieresis" horiz-adv-x="530" d="M70 0V666H475V540H213V407H430V285H213V126H475V0H70ZM389 737Q358 737 335 760T311 816Q311 849 336 872T392 895Q424 895 447 872T470 816Q470 783 447 760T389 737ZM158 737Q126 737
103 760T80 816Q80 849 104 872T161 895Q193 895 216 872T239 816Q239 783 215 760T158 737Z" />
<glyph unicode="&#xcc;" glyph-name="Igrave" horiz-adv-x="301" d="M78 0V666H223V0H78ZM154 731Q124 731 103 752T81 807Q81 843 104 873T163 925T241 958L259 919Q220 888 198 853L224 800Q224 774 205 753T154 731Z" />
<glyph unicode="&#xcd;" glyph-name="Iacute" horiz-adv-x="301" d="M78 0V666H223V0H78ZM138 731L120 770Q159 801 181 836L155 889Q155 915 174 936T225 958Q255 958 276 937T298 882Q298 846 275 816T216 764T138 731Z" />
<glyph unicode="&#xce;" glyph-name="Icircumflex" horiz-adv-x="301" d="M78 0V666H223V0H78ZM27 731L-17 800L151 932L319 800L275 731L151 798L27 731Z" />
<glyph unicode="&#xcf;" glyph-name="Idieresis" horiz-adv-x="301" d="M78 0V666H223V0H78ZM265 737Q234 737 211 760T187 816Q187 849 212 872T268 895Q300 895 323 872T346 816Q346 783 323 760T265 737ZM34 737Q2 737 -21 760T-44 816Q-44 849 -20 872T37
895Q69 895 92 872T115 816Q115 783 91 760T34 737Z" />
<glyph unicode="&#xd0;" glyph-name="Eth" horiz-adv-x="685" d="M175 -1Q148 -1 122 -1T69 0V282H-23L-13 367H69V666Q101 667 133 667T196 667Q228 667 260 667T323 666Q422 665 494 627T605 518T645 351Q645 246 600 168T472 46T280 0Q254 -1 228 -1T175 -1ZM214
126H279Q380 126 438 185T496 347Q496 440 447 490T304 540H214V367H345L335 282H214V126Z" />
<glyph unicode="&#xd1;" glyph-name="Ntilde" horiz-adv-x="719" d="M70 0V666H240L516 199V666H649V0H481L203 470V0H70ZM436 732Q400 732 372 747T320 779T274 795Q258 795 245 782T218 734L164 775Q181 840 214 869T288 898Q324 898 352 882T404 851T450 835Q466
835 479 848T506 896L560 855Q544 791 511 762T436 732Z" />
<glyph unicode="&#xd2;" glyph-name="Ograve" horiz-adv-x="741" d="M371 -13Q272 -13 198 30T82 150T40 330Q40 434 81 511T197 631T371 674Q470 674 544 632T660 513T701 334Q701 230 660 152T545 31T371 -13ZM371 114Q454 114 503 173T552 330Q552 395 530
444T466 520T371 546Q317 547 277 520T213 444T190 330Q190 265 212 217T276 141T371 114ZM374 731Q344 731 323 752T301 807Q301 843 324 873T383 925T461 958L479 919Q440 888 418 853L444 800Q444 774 425 753T374 731Z" />
<glyph unicode="&#xd3;" glyph-name="Oacute" horiz-adv-x="741" d="M371 -13Q272 -13 198 30T82 150T40 330Q40 434 81 511T197 631T371 674Q470 674 544 632T660 513T701 334Q701 230 660 152T545 31T371 -13ZM371 114Q454 114 503 173T552 330Q552 395 530
444T466 520T371 546Q317 547 277 520T213 444T190 330Q190 265 212 217T276 141T371 114ZM358 731L340 770Q379 801 401 836L375 889Q375 915 394 936T445 958Q475 958 496 937T518 882Q518 846 495 816T436 764T358 731Z" />
<glyph unicode="&#xd4;" glyph-name="Ocircumflex" horiz-adv-x="741" d="M371 -13Q272 -13 198 30T82 150T40 330Q40 434 81 511T197 631T371 674Q470 674 544 632T660 513T701 334Q701 230 660 152T545 31T371 -13ZM371 114Q454 114 503 173T552 330Q552 395
530 444T466 520T371 546Q317 547 277 520T213 444T190 330Q190 265 212 217T276 141T371 114ZM247 731L203 800L371 932L539 800L495 731L371 798L247 731Z" />
<glyph unicode="&#xd5;" glyph-name="Otilde" horiz-adv-x="741" d="M371 -13Q272 -13 198 30T82 150T40 330Q40 434 81 511T197 631T371 674Q470 674 544 632T660 513T701 334Q701 230 660 152T545 31T371 -13ZM371 114Q454 114 503 173T552 330Q552 395 530
444T466 520T371 546Q317 547 277 520T213 444T190 330Q190 265 212 217T276 141T371 114ZM447 732Q411 732 383 747T331 779T285 795Q269 795 256 782T229 734L175 775Q192 840 225 869T299 898Q335 898 363 882T415 851T461 835Q477 835 490 848T517 896L571
855Q555 791 522 762T447 732Z" />
<glyph unicode="&#xd6;" glyph-name="Odieresis" horiz-adv-x="741" d="M371 -13Q272 -13 198 30T82 150T40 330Q40 434 81 511T197 631T371 674Q470 674 544 632T660 513T701 334Q701 230 660 152T545 31T371 -13ZM371 114Q454 114 503 173T552 330Q552 395 530
444T466 520T371 546Q317 547 277 520T213 444T190 330Q190 265 212 217T276 141T371 114ZM485 737Q454 737 431 760T407 816Q407 849 432 872T488 895Q520 895 543 872T566 816Q566 783 543 760T485 737ZM254 737Q222 737 199 760T176 816Q176 849 200 872T257
895Q289 895 312 872T335 816Q335 783 311 760T254 737Z" />
<glyph unicode="&#xd7;" glyph-name="multiply" horiz-adv-x="650" d="M470 51L325 197L185 57L125 103L272 250L131 390L177 450L325 303L465 443L525 397L378 250L516 111L470 51Z" />
<glyph unicode="&#xd8;" glyph-name="Oslash" horiz-adv-x="741" d="M70 -36L41 89L90 136Q66 176 53 225T40 330Q40 434 81 511T197 631T371 674Q432 674 484 657T578 609L672 700L701 575L651 527Q675 487 688 439T701 334Q701 230 660 152T545 31T371 -13Q309
-13 257 4T162 54L70 -36ZM190 330Q190 284 202 245L477 511Q432 547 371 546Q317 547 277 520T213 444T190 330ZM371 114Q454 114 503 173T552 330Q552 378 539 418L263 151Q308 114 371 114Z" />
<glyph unicode="&#xd9;" glyph-name="Ugrave" horiz-adv-x="696" d="M348 -13Q265 -13 202 22T105 120T70 267V666H216V278Q216 204 251 161T348 117Q409 117 445 161T481 278V666H626V267Q626 183 592 120T495 22T348 -13ZM351 731Q321 731 300 752T278 807Q278
843 301 873T360 925T438 958L456 919Q417 888 395 853L421 800Q421 774 402 753T351 731Z" />
<glyph unicode="&#xda;" glyph-name="Uacute" horiz-adv-x="696" d="M348 -13Q265 -13 202 22T105 120T70 267V666H216V278Q216 204 251 161T348 117Q409 117 445 161T481 278V666H626V267Q626 183 592 120T495 22T348 -13ZM335 731L317 770Q356 801 378 836L352
889Q352 915 371 936T422 958Q452 958 473 937T495 882Q495 846 472 816T413 764T335 731Z" />
<glyph unicode="&#xdb;" glyph-name="Ucircumflex" horiz-adv-x="696" d="M348 -13Q265 -13 202 22T105 120T70 267V666H216V278Q216 204 251 161T348 117Q409 117 445 161T481 278V666H626V267Q626 183 592 120T495 22T348 -13ZM224 731L180 800L348 932L516
800L472 731L348 798L224 731Z" />
<glyph unicode="&#xdc;" glyph-name="Udieresis" horiz-adv-x="696" d="M348 -13Q265 -13 202 22T105 120T70 267V666H216V278Q216 204 251 161T348 117Q409 117 445 161T481 278V666H626V267Q626 183 592 120T495 22T348 -13ZM462 737Q431 737 408 760T384 816Q384
849 409 872T465 895Q497 895 520 872T543 816Q543 783 520 760T462 737ZM231 737Q199 737 176 760T153 816Q153 849 177 872T234 895Q266 895 289 872T312 816Q312 783 288 760T231 737Z" />
<glyph unicode="&#xdd;" glyph-name="Yacute" horiz-adv-x="607" d="M228 0V277L5 666H168L303 403L437 666H597L373 277V0H228ZM288 731L270 770Q309 801 331 836L305 889Q305 915 324 936T375 958Q405 958 426 937T448 882Q448 846 425 816T366 764T288 731Z" />
<glyph unicode="&#xde;" glyph-name="Thorn" horiz-adv-x="557" d="M70 0V666H209V542H286Q393 542 452 489T512 341Q512 273 482 223T396 145T268 114L209 112V0H70ZM209 232H253Q308 232 340 260T372 336Q372 425 267 425H209V232Z" />
<glyph unicode="&#xdf;" glyph-name="germandbls" horiz-adv-x="580" d="M65 -218V500Q65 575 93 630T174 716T299 746Q356 746 401 727T473 670T500 581Q500 538 484 507T447 454T409 416T393 385Q393 371 409 357T450 326T498 286T538 230T555 152Q555 77 507
32T381 -13Q352 -13 321 -6T256 14L305 123Q337 106 366 106Q389 106 401 117T413 147Q413 168 399 184T365 216T323 250T288 293T274 353Q274 386 286 415T316 471T345 522T358 570Q358 594 343 610T295 627Q255 627 231 599T206 522V-218H65Z" />
<glyph unicode="&#xe0;" glyph-name="agrave" horiz-adv-x="557" d="M214 -15Q135 -15 88 52T40 238Q40 380 112 454T319 529Q395 529 497 505V0H363L366 82H362Q310 -15 214 -15ZM244 108Q277 108 307 143T361 229V397Q345 402 328 404T297 406Q176 406 176 244Q176
181 194 145T244 108ZM308 580Q278 580 257 601T235 656Q235 692 258 722T317 774T395 807L413 768Q374 737 352 702L378 649Q378 623 359 602T308 580Z" />
<glyph unicode="&#xe1;" glyph-name="aacute" horiz-adv-x="557" d="M214 -15Q135 -15 88 52T40 238Q40 380 112 454T319 529Q395 529 497 505V0H363L366 82H362Q310 -15 214 -15ZM244 108Q277 108 307 143T361 229V397Q345 402 328 404T297 406Q176 406 176 244Q176
181 194 145T244 108ZM292 580L274 619Q313 650 335 685L309 738Q309 764 328 785T379 807Q409 807 430 786T452 731Q452 695 429 665T370 613T292 580Z" />
<glyph unicode="&#xe2;" glyph-name="acircumflex" horiz-adv-x="557" d="M214 -15Q135 -15 88 52T40 238Q40 380 112 454T319 529Q395 529 497 505V0H363L366 82H362Q310 -15 214 -15ZM244 108Q277 108 307 143T361 229V397Q345 402 328 404T297 406Q176 406
176 244Q176 181 194 145T244 108ZM181 580L137 649L305 781L473 649L429 580L305 647L181 580Z" />
<glyph unicode="&#xe3;" glyph-name="atilde" horiz-adv-x="557" d="M214 -15Q135 -15 88 52T40 238Q40 380 112 454T319 529Q395 529 497 505V0H363L366 82H362Q310 -15 214 -15ZM244 108Q277 108 307 143T361 229V397Q345 402 328 404T297 406Q176 406 176 244Q176
181 194 145T244 108ZM381 581Q345 581 317 596T265 628T219 644Q203 644 190 631T163 583L109 624Q126 689 159 718T233 747Q269 747 297 731T349 700T395 684Q411 684 424 697T451 745L505 704Q489 640 456 611T381 581Z" />
<glyph unicode="&#xe4;" glyph-name="adieresis" horiz-adv-x="557" d="M214 -15Q135 -15 88 52T40 238Q40 380 112 454T319 529Q395 529 497 505V0H363L366 82H362Q310 -15 214 -15ZM244 108Q277 108 307 143T361 229V397Q345 402 328 404T297 406Q176 406 176
244Q176 181 194 145T244 108ZM419 586Q388 586 365 609T341 665Q341 698 366 721T422 744Q454 744 477 721T500 665Q500 632 477 609T419 586ZM188 586Q156 586 133 609T110 665Q110 698 134 721T191 744Q223 744 246 721T269 665Q269 632 245 609T188 586Z" />
<glyph unicode="&#xe5;" glyph-name="aring" horiz-adv-x="557" d="M214 -15Q135 -15 88 52T40 238Q40 380 112 454T319 529Q395 529 497 505V0H363L366 82H362Q310 -15 214 -15ZM244 108Q277 108 307 143T361 229V397Q345 402 328 404T297 406Q176 406 176 244Q176
181 194 145T244 108ZM305 574Q269 574 240 590T194 635T176 699Q176 735 193 763T240 807T305 824Q341 824 370 808T416 763T434 699Q434 664 417 636T370 591T305 574ZM305 645Q328 645 341 661T355 699Q355 720 342 736T305 753Q283 753 269 737T255 699Q255
678 269 662T305 645Z" />
<glyph unicode="&#xe6;" glyph-name="ae" horiz-adv-x="857" d="M217 -15Q134 -15 87 52T40 236Q40 378 110 453T313 529Q348 529 389 524T479 509Q527 529 585 529Q697 529 757 457T817 249Q817 240 817 232T816 215H476Q496 107 619 107Q657 107 696 116T766
142L789 29Q706 -15 602 -15Q451 -15 381 87H377Q355 38 312 12T217 -15ZM475 321H682Q679 364 652 389T580 415Q537 415 510 390T475 321ZM254 108Q303 108 344 170Q334 207 334 257Q334 297 341 332T362 397Q347 402 329 404T297 406Q237 406 207 365T176 246Q176
182 196 145T254 108Z" />
<glyph unicode="&#xe7;" glyph-name="ccedilla" horiz-adv-x="480" d="M305 -15Q177 -15 107 53T36 245Q36 330 69 394T162 493T301 529Q339 529 379 521T441 501L414 382Q391 393 363 399T312 406Q251 406 213 364T175 253Q175 183 214 145T323 107Q370 107 424
125L445 11Q411 -2 377 -8T305 -15ZM300 -243Q264 -243 229 -231T171 -198L201 -155Q222 -169 245 -178T287 -187Q303 -187 313 -180T323 -156Q323 -136 299 -131T248 -126L227 -112L273 22L345 17L313 -56Q360 -63 389 -87T419 -151Q419 -192 383 -217T300 -243Z"
/>
<glyph unicode="&#xe8;" glyph-name="egrave" horiz-adv-x="563" d="M308 -15Q184 -15 112 57T40 257Q40 341 71 402T158 496T291 529Q403 529 463 457T523 249Q523 240 523 232T522 215H182Q202 107 325 107Q363 107 402 116T472 142L495 29Q412 -15 308 -15ZM181
321H388Q385 364 358 389T286 415Q243 415 216 390T181 321ZM294 580Q264 580 243 601T221 656Q221 692 244 722T303 774T381 807L399 768Q360 737 338 702L364 649Q364 623 345 602T294 580Z" />
<glyph unicode="&#xe9;" glyph-name="eacute" horiz-adv-x="563" d="M308 -15Q184 -15 112 57T40 257Q40 341 71 402T158 496T291 529Q403 529 463 457T523 249Q523 240 523 232T522 215H182Q202 107 325 107Q363 107 402 116T472 142L495 29Q412 -15 308 -15ZM181
321H388Q385 364 358 389T286 415Q243 415 216 390T181 321ZM278 580L260 619Q299 650 321 685L295 738Q295 764 314 785T365 807Q395 807 416 786T438 731Q438 695 415 665T356 613T278 580Z" />
<glyph unicode="&#xea;" glyph-name="ecircumflex" horiz-adv-x="563" d="M308 -15Q184 -15 112 57T40 257Q40 341 71 402T158 496T291 529Q403 529 463 457T523 249Q523 240 523 232T522 215H182Q202 107 325 107Q363 107 402 116T472 142L495 29Q412 -15 308
-15ZM181 321H388Q385 364 358 389T286 415Q243 415 216 390T181 321ZM167 580L123 649L291 781L459 649L415 580L291 647L167 580Z" />
<glyph unicode="&#xeb;" glyph-name="edieresis" horiz-adv-x="563" d="M308 -15Q184 -15 112 57T40 257Q40 341 71 402T158 496T291 529Q403 529 463 457T523 249Q523 240 523 232T522 215H182Q202 107 325 107Q363 107 402 116T472 142L495 29Q412 -15 308 -15ZM181
321H388Q385 364 358 389T286 415Q243 415 216 390T181 321ZM405 586Q374 586 351 609T327 665Q327 698 352 721T408 744Q440 744 463 721T486 665Q486 632 463 609T405 586ZM174 586Q142 586 119 609T96 665Q96 698 120 721T177 744Q209 744 232 721T255 665Q255
632 231 609T174 586Z" />
<glyph unicode="&#xec;" glyph-name="igrave" horiz-adv-x="398" d="M47 0V121H143V394H47V515H284V121H370V0H47ZM202 580Q172 580 151 601T129 656Q129 692 152 722T211 774T289 807L307 768Q268 737 246 702L272 649Q272 623 253 602T202 580Z" />
<glyph unicode="&#xed;" glyph-name="iacute" horiz-adv-x="398" d="M47 0V121H143V394H47V515H284V121H370V0H47ZM186 580L168 619Q207 650 229 685L203 738Q203 764 222 785T273 807Q303 807 324 786T346 731Q346 695 323 665T264 613T186 580Z" />
<glyph unicode="&#xee;" glyph-name="icircumflex" horiz-adv-x="398" d="M47 0V121H143V394H47V515H284V121H370V0H47ZM75 580L31 649L199 781L367 649L323 580L199 647L75 580Z" />
<glyph unicode="&#xef;" glyph-name="idieresis" horiz-adv-x="398" d="M47 0V121H143V394H47V515H284V121H370V0H47ZM313 586Q282 586 259 609T235 665Q235 698 260 721T316 744Q348 744 371 721T394 665Q394 632 371 609T313 586ZM82 586Q50 586 27 609T4 665Q4
698 28 721T85 744Q117 744 140 721T163 665Q163 632 139 609T82 586Z" />
<glyph unicode="&#xf0;" glyph-name="eth" horiz-adv-x="586" d="M294 -15Q219 -15 163 19T76 114T45 257Q45 339 76 400T162 495T291 529Q339 529 377 512Q361 533 342 553T301 594L183 553L170 625L239 649Q221 664 202 679T161 712L308 751Q342 724 371 695L488
735L501 663L423 636Q479 565 510 481T541 298Q541 208 514 137T432 26T294 -15ZM292 106Q342 106 372 147T402 258Q402 326 372 367T292 408Q242 408 212 367T182 258Q182 189 212 148T292 106Z" />
<glyph unicode="&#xf1;" glyph-name="ntilde" horiz-adv-x="612" d="M65 0V515H203V426Q235 480 277 504T375 529Q458 529 505 480T552 342V0H411V320Q411 361 391 383T337 405Q296 405 261 375T206 299V0H65ZM382 581Q346 581 318 596T266 628T220 644Q204 644
191 631T164 583L110 624Q127 689 160 718T234 747Q270 747 298 731T350 700T396 684Q412 684 425 697T452 745L506 704Q490 640 457 611T382 581Z" />
<glyph unicode="&#xf2;" glyph-name="ograve" horiz-adv-x="604" d="M303 -15Q224 -15 165 19T73 114T40 257Q40 339 73 400T165 495T302 529Q381 529 439 496T531 402T564 260Q564 178 532 116T440 20T303 -15ZM302 107Q356 107 388 148T421 258Q421 326 389
366T302 407Q248 407 216 367T183 258Q183 190 215 149T302 107ZM305 580Q275 580 254 601T232 656Q232 692 255 722T314 774T392 807L410 768Q371 737 349 702L375 649Q375 623 356 602T305 580Z" />
<glyph unicode="&#xf3;" glyph-name="oacute" horiz-adv-x="604" d="M303 -15Q224 -15 165 19T73 114T40 257Q40 339 73 400T165 495T302 529Q381 529 439 496T531 402T564 260Q564 178 532 116T440 20T303 -15ZM302 107Q356 107 388 148T421 258Q421 326 389
366T302 407Q248 407 216 367T183 258Q183 190 215 149T302 107ZM289 580L271 619Q310 650 332 685L306 738Q306 764 325 785T376 807Q406 807 427 786T449 731Q449 695 426 665T367 613T289 580Z" />
<glyph unicode="&#xf4;" glyph-name="ocircumflex" horiz-adv-x="604" d="M303 -15Q224 -15 165 19T73 114T40 257Q40 339 73 400T165 495T302 529Q381 529 439 496T531 402T564 260Q564 178 532 116T440 20T303 -15ZM302 107Q356 107 388 148T421 258Q421 326
389 366T302 407Q248 407 216 367T183 258Q183 190 215 149T302 107ZM178 580L134 649L302 781L470 649L426 580L302 647L178 580Z" />
<glyph unicode="&#xf5;" glyph-name="otilde" horiz-adv-x="604" d="M303 -15Q224 -15 165 19T73 114T40 257Q40 339 73 400T165 495T302 529Q381 529 439 496T531 402T564 260Q564 178 532 116T440 20T303 -15ZM302 107Q356 107 388 148T421 258Q421 326 389
366T302 407Q248 407 216 367T183 258Q183 190 215 149T302 107ZM378 581Q342 581 314 596T262 628T216 644Q200 644 187 631T160 583L106 624Q123 689 156 718T230 747Q266 747 294 731T346 700T392 684Q408 684 421 697T448 745L502 704Q486 640 453 611T378
581Z" />
<glyph unicode="&#xf6;" glyph-name="odieresis" horiz-adv-x="604" d="M303 -15Q224 -15 165 19T73 114T40 257Q40 339 73 400T165 495T302 529Q381 529 439 496T531 402T564 260Q564 178 532 116T440 20T303 -15ZM302 107Q356 107 388 148T421 258Q421 326 389
366T302 407Q248 407 216 367T183 258Q183 190 215 149T302 107ZM416 586Q385 586 362 609T338 665Q338 698 363 721T419 744Q451 744 474 721T497 665Q497 632 474 609T416 586ZM185 586Q153 586 130 609T107 665Q107 698 131 721T188 744Q220 744 243 721T266
665Q266 632 242 609T185 586Z" />
<glyph unicode="&#xf7;" glyph-name="divide" horiz-adv-x="650" d="M323 360Q289 360 264 385T238 446Q238 481 263 506T323 531Q358 531 383 506T408 446Q408 411 383 386T323 360ZM80 213L90 288H570L560 213H80ZM323 -34Q289 -34 264 -9T238 51Q238 86 263
111T323 137Q358 137 383 112T408 51Q408 17 383 -8T323 -34Z" />
<glyph unicode="&#xf8;" glyph-name="oslash" horiz-adv-x="607" d="M74 -41L50 67L82 99Q40 166 40 257Q40 339 73 400T165 495T302 529Q394 529 460 482L534 557L558 449L524 414Q564 349 564 260Q564 178 532 116T440 20T303 -15Q211 -15 145 31L74 -41ZM183
258Q183 231 189 207L366 387Q339 407 302 407Q248 407 216 367T183 258ZM302 107Q356 107 388 148T421 258Q421 283 416 305L239 126Q266 107 302 107Z" />
<glyph unicode="&#xf9;" glyph-name="ugrave" horiz-adv-x="599" d="M236 -14Q154 -14 107 36T60 173V515H201V196Q201 155 221 133T275 110Q310 110 341 132T393 191V515H534V0H393V68Q367 33 330 10T236 -14ZM303 580Q273 580 252 601T230 656Q230 692 253 722T312
774T390 807L408 768Q369 737 347 702L373 649Q373 623 354 602T303 580Z" />
<glyph unicode="&#xfa;" glyph-name="uacute" horiz-adv-x="599" d="M236 -14Q154 -14 107 36T60 173V515H201V196Q201 155 221 133T275 110Q310 110 341 132T393 191V515H534V0H393V68Q367 33 330 10T236 -14ZM287 580L269 619Q308 650 330 685L304 738Q304 764
323 785T374 807Q404 807 425 786T447 731Q447 695 424 665T365 613T287 580Z" />
<glyph unicode="&#xfb;" glyph-name="ucircumflex" horiz-adv-x="599" d="M236 -14Q154 -14 107 36T60 173V515H201V196Q201 155 221 133T275 110Q310 110 341 132T393 191V515H534V0H393V68Q367 33 330 10T236 -14ZM176 580L132 649L300 781L468 649L424 580L300
647L176 580Z" />
<glyph unicode="&#xfc;" glyph-name="udieresis" horiz-adv-x="599" d="M236 -14Q154 -14 107 36T60 173V515H201V196Q201 155 221 133T275 110Q310 110 341 132T393 191V515H534V0H393V68Q367 33 330 10T236 -14ZM414 586Q383 586 360 609T336 665Q336 698 361
721T417 744Q449 744 472 721T495 665Q495 632 472 609T414 586ZM183 586Q151 586 128 609T105 665Q105 698 129 721T186 744Q218 744 241 721T264 665Q264 632 240 609T183 586Z" />
<glyph unicode="&#xfd;" glyph-name="yacute" horiz-adv-x="542" d="M138 -224Q113 -224 90 -218T42 -202L63 -86Q101 -105 127 -105Q160 -105 175 -82T207 -15L6 513L152 525L275 156L389 515H528Q506 448 480 373T427 223T373 80T324 -41T284 -125Q257 -173
223 -198T138 -224ZM258 580L240 619Q279 650 301 685L275 738Q275 764 294 785T345 807Q375 807 396 786T418 731Q418 695 395 665T336 613T258 580Z" />
<glyph unicode="&#xfe;" glyph-name="thorn" horiz-adv-x="578" d="M65 -218V730H201V448H203Q256 530 352 530Q438 530 488 464T538 278Q538 136 465 61T255 -14Q242 -14 230 -14T204 -12V-218H65ZM269 109Q332 109 364 150T397 270Q397 335 377 371T320 407Q289
407 259 380T204 301V118Q239 109 269 109Z" />
<glyph unicode="&#xff;" glyph-name="ydieresis" horiz-adv-x="542" d="M138 -224Q113 -224 90 -218T42 -202L63 -86Q101 -105 127 -105Q160 -105 175 -82T207 -15L6 513L152 525L275 156L389 515H528Q506 448 480 373T427 223T373 80T324 -41T284 -125Q257 -173
223 -198T138 -224ZM385 586Q354 586 331 609T307 665Q307 698 332 721T388 744Q420 744 443 721T466 665Q466 632 443 609T385 586ZM154 586Q122 586 99 609T76 665Q76 698 100 721T157 744Q189 744 212 721T235 665Q235 632 211 609T154 586Z" />
<glyph unicode="&#x2013;" glyph-name="endash" horiz-adv-x="696" d="M43 243L53 358H653L643 243H43Z" />
<glyph unicode="&#x2014;" glyph-name="emdash" horiz-adv-x="962" d="M76 243L86 358H886L876 243H76Z" />
<glyph unicode="&#x2018;" glyph-name="quoteleft" horiz-adv-x="316" d="M158 319Q116 319 86 349T55 427Q55 459 72 501T129 592T237 688L261 601Q242 576 226 551T200 502L258 415Q258 393 246 371T211 334T158 319Z" />
<glyph unicode="&#x2019;" glyph-name="quoteright" horiz-adv-x="306" d="M69 319L45 406Q65 431 81 456T106 505L48 592Q48 615 60 637T95 673T148 688Q190 688 220 658T251 580Q251 548 234 506T177 415T69 319Z" />
<glyph unicode="&#x201a;" glyph-name="quotesinglbase" horiz-adv-x="306" d="M69 -162L45 -75Q65 -50 81 -25T106 24L48 111Q48 134 60 156T95 192T148 207Q190 207 220 177T251 99Q251 67 234 25T177 -66T69 -162Z" />
<glyph unicode="&#x201c;" glyph-name="quotedblleft" horiz-adv-x="578" d="M420 319Q378 319 348 349T317 427Q317 459 334 501T391 592T499 688L523 601Q504 576 488 551T462 502L520 415Q520 393 508 371T473 334T420 319ZM158 319Q116 319 86 349T55 427Q55
459 72 501T129 592T237 688L261 601Q242 576 226 551T200 502L258 415Q258 393 246 371T211 334T158 319Z" />
<glyph unicode="&#x201d;" glyph-name="quotedblright" horiz-adv-x="578" d="M341 319L317 406Q337 431 353 456T378 505L320 592Q320 615 332 637T367 673T420 688Q462 688 492 658T523 580Q523 548 506 506T449 415T341 319ZM79 319L55 406Q75 431 91 456T116
505L58 592Q58 615 70 637T105 673T158 688Q200 688 230 658T261 580Q261 548 244 506T187 415T79 319Z" />
<glyph unicode="&#x201e;" glyph-name="quotedblbase" horiz-adv-x="568" d="M341 -162L317 -75Q337 -50 353 -25T378 24L320 111Q320 134 332 156T367 192T420 207Q462 207 492 177T523 99Q523 67 506 25T449 -66T341 -162ZM79 -162L55 -75Q75 -50 91 -25T116
24L58 111Q58 134 70 156T105 192T158 207Q200 207 230 177T261 99Q261 67 244 25T187 -66T79 -162Z" />
<glyph unicode="&#x2022;" glyph-name="bullet" horiz-adv-x="463" d="M231 145Q194 145 164 163T115 212T97 279Q97 316 115 346T164 394T231 412Q267 412 297 394T346 346T364 279Q364 243 346 213T298 164T231 145Z" />
<glyph unicode="&#x2039;" glyph-name="guilsinglleft" horiz-adv-x="459" d="M302 17L80 277L294 538L387 469L261 277L394 81L302 17Z" />
<glyph unicode="&#x203a;" glyph-name="guilsinglright" horiz-adv-x="459" d="M157 17L65 81L198 277L72 469L165 538L379 277L157 17Z" />
</font>
</defs>
</svg>
