<?xml version="1.0" standalone="no"?>
<!DOCTYPE svg PUBLIC "-//W3C//DTD SVG 1.1//EN" "http://www.w3.org/Graphics/SVG/1.1/DTD/svg11.dtd">
<svg xmlns="http://www.w3.org/2000/svg">
<defs >
<font id="FuzzyBubbles" horiz-adv-x="597" ><font-face
    font-family="Fuzzy Bubbles"
    units-per-em="1000"
    panose-1="0 0 0 0 0 0 0 0 0 0"
    ascent="900"
    descent="-350"
    alphabetic="0" />
<glyph unicode=" " glyph-name="space" horiz-adv-x="391" />
<glyph unicode="!" glyph-name="exclam" horiz-adv-x="452" d="M262 181Q247 181 239 199Q236 207 235 216T234 236Q234 246 234 256T235 273Q235 303 235 329T236 379Q236 395 236 410T234 440Q230 483 228 538T224 636Q223 669 230 696T267 740Q278 746 285
746Q300 746 307 731T318 691T321 641Q321 613 319 588T316 551Q312 502 309 453T302 353Q300 319 300 276T287 201Q279 181 262 181ZM244 -1Q221 -1 210 14T198 48Q198 73 214 95T260 117Q283 117 294 103T305 68Q305 43 289 21T244 -1Z" />
<glyph unicode="&quot;" glyph-name="quotedbl" horiz-adv-x="460" d="M247 607Q228 607 228 625Q228 629 232 636Q235 641 239 646T248 657Q254 664 267 678T293 706T308 723Q322 739 334 762Q340 772 345 782T358 802Q382 840 406 840Q417 840 424 833T431 810Q431
792 417 766T381 713T334 661T285 622T247 607ZM64 607Q45 607 45 625Q45 629 49 636Q52 641 56 646T64 657Q71 664 84 678T109 706T125 723Q133 731 139 741T151 762Q156 772 162 782T175 802Q199 840 223 840Q233 840 240 833T248 810Q248 792 234 766T198 713T151
661T102 622T64 607Z" />
<glyph unicode="#" glyph-name="numbersign" horiz-adv-x="792" d="M223 50Q188 50 188 102Q188 125 193 150T198 205L180 222H61Q54 222 47 230T40 254Q40 276 61 279T106 285L169 288Q211 293 221 313Q221 313 224 319T228 332Q230 340 234 360T244 403T254
447T261 477V493L243 511H212Q188 511 162 513T116 525T97 552Q97 584 145 584Q169 584 189 582T234 579H276Q291 598 297 615T305 648Q307 664 308 680T311 711Q315 743 323 755T350 767Q365 767 370 760T375 725Q375 694 368 661T360 590L377 575Q410 570 431
569T481 568H527Q543 576 548 590T554 611Q556 620 559 639T567 679Q571 703 574 721T580 746Q584 766 592 774T617 783Q633 783 643 774T654 746V743L627 622V568Q649 568 660 568T681 569Q689 569 698 569T717 567Q735 563 741 557T748 542Q748 533 741 525T732
517H608Q608 517 605 510T599 493T595 480Q595 478 593 475T591 471Q589 454 585 431T576 385L568 345Q565 326 565 322V274Q565 274 574 272T596 268T615 265L653 262Q673 261 686 256Q699 252 705 246T711 227Q711 213 704 211T685 208Q657 208 633 212T580 217Q570
217 559 211T544 195V197Q542 189 539 172T531 134T523 96T517 71Q513 50 486 50Q455 50 455 82Q455 111 462 139T470 196Q470 202 466 214T439 227H302Q293 227 283 216T270 181Q269 169 268 153T264 120Q260 95 254 73T223 50ZM487 280L528 461V480Q528 484 528
487T527 492Q526 495 524 500T517 510Q514 513 507 515T486 517H366Q349 517 339 498T324 466Q321 458 317 444T310 418T307 400Q307 400 305 385T298 352T291 325V307L314 286Q352 282 378 281T433 280H487Z" />
<glyph unicode="$" glyph-name="dollar" horiz-adv-x="584" d="M283 0Q209 0 156 23T74 88T45 182Q45 201 52 210T78 220Q82 220 94 217T112 205Q123 174 140 143T189 90T272 68Q321 68 360 78T421 112T444 176Q444 205 426 226T384 260Q320 292 271 314T189 358T138
408T120 484Q120 555 180 593T338 631Q361 631 392 626T454 611T505 584T525 543Q525 530 514 520T488 509Q466 509 452 517T420 535Q401 547 377 557T314 568Q285 568 258 558T214 531T196 490Q196 460 214 439T257 401Q269 394 283 387T312 373Q326 366 341 360T372
346Q414 328 448 306T504 252T525 176Q525 120 490 81T400 21T283 0ZM183 -128Q171 -130 161 -115Q160 -112 158 -107T154 -96Q152 -86 155 -76Q162 -50 175 -2T205 111T241 248T279 396T317 541T350 671T376 772Q385 808 394 810Q400 811 406 801Q416 785 419
769Q421 755 418 740Q401 663 379 573T332 389T283 205T238 35T202 -102Q197 -125 183 -128Z" />
<glyph unicode="%" glyph-name="percent" horiz-adv-x="691" d="M125 418Q85 426 68 458T50 536Q50 581 70 617T127 674T211 695Q244 695 270 678T311 633T326 573Q326 526 305 491T247 437T165 418H125ZM198 24Q183 24 165 30T146 46Q146 62 152 74Q154 82 157
88T163 103Q169 114 184 140T217 196T250 252T273 288Q278 296 293 316T328 364T368 420T406 471T432 505Q437 510 450 525T479 559Q497 581 515 602T547 637Q554 646 564 653Q570 659 574 659Q584 659 597 656T620 645T630 627Q630 616 629 615Q628 612 626 609T621
603Q614 596 597 580T561 546T526 512T503 489Q500 487 496 482L488 472Q480 464 474 456L311 226Q311 226 306 217T299 200L300 203Q298 198 291 180T274 140T256 100T246 76L235 54Q234 49 231 45T226 36Q221 31 215 28T198 24ZM173 478Q208 478 233 503T259
564Q259 588 243 606T201 625Q178 625 157 614T121 584T107 539Q107 511 126 495T173 478ZM514 10Q456 10 421 43T386 133Q386 177 405 212T457 268T533 289Q588 289 625 252T662 156V123Q646 73 606 42T514 10ZM516 75Q546 75 571 98T596 154Q595 185 578 201T530
219Q494 219 471 194T448 136Q448 107 469 91T516 75Z" />
<glyph unicode="&amp;" glyph-name="ampersand" horiz-adv-x="723" d="M272 -10Q208 -10 152 11T64 83L52 108Q50 114 48 119T45 126V220Q45 246 61 271T100 319T138 356Q147 362 174 384Q186 393 198 402T212 414Q215 416 217 418T221 422Q230 430 232 436T235
455Q235 479 232 502T229 550Q229 598 247 641T298 711T378 738Q428 738 460 705T493 618Q493 571 472 539T418 477Q407 467 395 457T371 437Q351 426 351 403Q351 396 361 375T388 328T423 277T459 236T489 219H508L571 352Q579 366 600 366Q617 366 624 359T631
335Q631 315 622 296T602 259Q589 236 579 212T568 162Q568 146 575 135T593 115Q603 108 613 102T634 89Q656 77 667 66T679 37Q679 17 675 11H663Q641 11 623 20T587 43Q577 51 568 57T550 70Q540 75 529 79T504 84H486Q435 39 383 15T272 -10ZM348 481Q367 497
387 517T422 563T436 618Q436 630 431 645T414 673T378 685Q351 685 334 663T307 613T298 565Q298 561 298 550T298 528Q300 508 310 495T335 481H348ZM262 58Q309 58 355 79T433 143Q425 164 416 177T398 199Q391 208 383 216T369 232Q368 235 365 240T356 252Q351
259 345 267T332 285Q320 302 310 316T297 334L298 330Q294 339 284 347T274 356Q258 358 237 345T194 310T154 263T124 215T113 178Q113 135 137 109T196 70T262 58Z" />
<glyph unicode="&apos;" glyph-name="quotesingle" horiz-adv-x="228" d="M49 607Q30 607 30 625Q30 629 34 636Q37 641 41 646T50 657Q56 664 69 678T95 706T110 723Q118 731 124 741T136 761Q141 771 147 781T160 801Q185 840 208 840Q219 840 226 833T233 809Q233
791 219 766T183 713T136 661T87 622T49 607Z" />
<glyph unicode="(" glyph-name="parenleft" horiz-adv-x="476" d="M373 -35Q351 -35 333 -26T296 -5Q290 0 284 4T270 14Q176 79 123 173T70 375Q70 462 101 544T191 695T330 808Q358 824 378 832T423 841Q446 841 453 835T461 821Q461 800 427 783Q419 778 410
774T392 766Q385 762 377 758T360 749Q294 708 245 647T168 515T141 370Q141 309 163 246T229 137Q238 129 253 115T281 89T298 74Q306 68 314 63T331 52Q339 48 348 43T364 33Q395 12 395 -9Q395 -22 395 -27T389 -35H373Z" />
<glyph unicode=")" glyph-name="parenright" horiz-adv-x="466" d="M43 -54Q27 -54 21 -49T15 -33Q15 -15 40 0Q47 5 55 8T70 15Q78 20 87 23T103 31Q181 73 227 140T293 285T313 438Q313 506 295 570T232 689Q225 697 214 707T191 727Q178 738 164 749T135 771Q112
790 92 804T71 826Q71 843 76 847T103 852Q119 852 136 845T172 824Q279 751 337 657T396 438Q396 353 367 271T285 119T156 -1Q142 -10 123 -22T82 -44T43 -54Z" />
<glyph unicode="*" glyph-name="asterisk" horiz-adv-x="505" d="M225 295Q215 295 215 302V439Q185 439 172 434T149 423Q141 416 134 409T119 394Q109 383 98 373T73 362Q59 362 50 372T40 395Q40 409 44 415T63 431Q72 437 94 451T140 480T177 504V521Q177
528 169 537T142 554Q134 556 123 559T99 567Q83 574 67 582T51 608Q51 619 54 622T68 625Q83 625 95 622T121 613Q135 606 150 599T188 581Q206 581 213 590T220 614Q220 631 218 648T215 684Q215 701 224 712T253 723Q267 723 273 716T282 688Q283 684 283 680T283
670Q283 663 283 657T282 645Q281 633 281 621T280 594L302 570Q337 587 372 603T433 619Q461 619 461 586Q461 579 455 572T430 557Q412 550 391 545T346 532V510Q346 492 358 481T383 461Q387 460 390 458T398 453Q428 434 428 417Q428 399 419 389T396 379Q384
379 375 384T356 400Q351 405 346 411T336 424Q331 431 322 439T293 465L270 436V308Q270 300 259 299T242 297Q239 297 235 296T225 295Z" />
<glyph unicode="+" glyph-name="plus" horiz-adv-x="545" d="M283 144Q274 144 260 146T246 161V325L218 339H192Q164 339 136 336T78 333H43Q37 335 34 341T30 367Q30 381 40 392T63 403H235Q235 453 233 488T230 556V585Q232 592 242 598T263 604Q299 604 299
551V403Q352 403 394 406T473 409Q493 409 501 402T510 383Q510 367 503 359T495 350H305V155Q305 150 296 147T283 144Z" />
<glyph unicode="," glyph-name="comma" horiz-adv-x="292" d="M39 -113Q20 -113 20 -95Q20 -91 24 -84Q27 -79 31 -74T40 -63Q46 -56 59 -42T85 -14T100 3Q108 11 114 21T126 42Q131 52 137 62T150 82Q175 121 198 121Q209 121 216 114T223 90Q223 72 209 46T173
-7T126 -59T77 -98T39 -113Z" />
<glyph unicode="-" glyph-name="hyphen" horiz-adv-x="458" d="M98 222Q82 222 76 228T70 248Q70 279 86 281Q135 286 170 288T234 292T293 295T360 297Q370 297 379 285T388 254Q388 248 383 238T371 229Q323 231 260 227T98 222Z" />
<glyph unicode="." glyph-name="period" horiz-adv-x="292" d="M191 -1Q168 -1 157 14T145 48Q145 73 161 95T207 117Q230 117 241 103T253 68Q253 43 237 21T191 -1Z" />
<glyph unicode="/" glyph-name="slash" horiz-adv-x="738" d="M75 -45Q56 -45 44 -27Q42 -23 40 -17T37 -4Q37 7 44 17Q63 44 98 94T178 212T275 355T379 510T481 662T572 798T642 903Q667 941 682 941Q692 941 699 929Q711 910 711 891Q711 875 702 860Q652 779
591 685T463 493T332 300T211 123T114 -21Q98 -45 75 -45Z" />
<glyph unicode="0" glyph-name="zero" horiz-adv-x="767" d="M359 5Q293 5 232 31T125 106T59 221Q55 239 55 266T54 310Q54 430 102 514T237 643T444 688Q494 688 545 674T621 624Q665 563 688 501T712 367Q712 260 669 179T546 51T359 5ZM376 73Q417 73 461
92T545 143T609 218T634 305V428Q634 428 631 438T624 459T616 473Q615 475 612 482T606 496L589 530Q584 541 572 548T545 561L526 567Q522 569 521 570T517 573L495 591Q491 595 486 598T475 606Q463 613 450 616T417 620Q357 620 305 596T213 530T151 436T128
326Q128 277 147 232T199 150T278 94T376 73Z" />
<glyph unicode="1" glyph-name="one" horiz-adv-x="446" d="M67 10Q57 10 51 15T45 42Q45 54 55 61T90 73Q102 75 113 76T134 79Q154 82 163 91T173 108L201 482V530Q177 530 168 529T154 525Q150 524 146 522T137 517Q129 513 123 511T111 509Q98 509 89 517T79
535Q79 560 107 585Q113 591 120 596T136 608Q144 613 151 619T165 630Q173 636 180 643T194 656Q200 662 206 668T218 679Q238 698 262 698Q266 698 271 698T280 699Q286 699 290 697T295 687V621L256 284V110Q297 110 322 115T373 120Q392 120 399 114T406 94Q406
76 398 68T370 58Q357 56 329 52T264 41T192 28T126 17T82 10H67Z" />
<glyph unicode="2" glyph-name="two" horiz-adv-x="579" d="M91 35Q68 35 61 42T54 71Q54 124 85 173T160 261Q169 267 191 283T239 319T286 353T316 375Q354 404 382 442T411 534Q411 563 397 588T359 629T303 645Q252 645 220 626T163 587Q158 582 152 578T141
568Q128 557 114 549T81 540Q76 540 71 546T65 567Q65 598 90 624T155 671T235 702T308 713Q361 713 402 688T468 621T492 529Q492 473 460 422T382 335L190 192L116 119H184Q232 119 278 127T373 135Q382 135 394 135T420 134Q434 134 448 133T475 129Q529 118
529 87Q529 71 521 64T492 56Q459 56 427 61T357 67H311L116 35H91Z" />
<glyph unicode="3" glyph-name="three" horiz-adv-x="594" d="M249 10Q228 10 194 16T126 34T68 64T45 109Q45 118 54 126T78 135Q86 135 101 129L134 112Q152 102 176 93T228 83Q262 83 301 91T377 116T436 162T459 230Q459 272 435 300T372 345T293 370T220
381Q212 388 212 407Q212 417 220 424T249 437Q260 440 271 442T292 446Q303 448 313 450T333 456Q356 465 381 482T425 523T443 571Q443 608 424 631T375 664T319 675Q282 675 254 662T205 635Q195 628 186 622T167 610Q151 601 136 601Q120 601 112 608T104 622Q104
646 121 665T167 699T226 723T285 738T330 743Q380 743 421 723T488 667T513 586Q513 540 493 505T438 432V403Q487 364 513 326T540 235Q540 183 514 142T446 71T352 26T249 10Z" />
<glyph unicode="4" glyph-name="four" horiz-adv-x="594" d="M416 -15Q398 -15 389 -6T374 23Q371 33 370 44T368 67V111Q368 146 371 182T374 260L355 278H324Q284 278 244 276T164 273H93Q61 287 48 304T35 357Q35 380 39 405T54 446L151 652Q163 676 190 676Q201
676 212 666T223 640Q223 634 223 632T221 627Q219 623 216 617T208 601Q195 572 178 543T147 485Q131 454 121 419T110 330H206Q209 330 231 331T277 335T314 341H311Q318 342 336 348T371 361T389 375L443 678Q446 695 453 701T475 708Q495 708 504 701T513 682Q513
675 511 667T505 649Q501 638 497 626T491 601Q489 589 486 562T478 502T471 441T465 401V394Q465 379 474 371T489 360Q495 357 503 355T518 349Q545 339 545 320Q545 297 525 288T462 278L449 252L437 -3Q437 -5 432 -10T416 -15Z" />
<glyph unicode="5" glyph-name="five" horiz-adv-x="589" d="M195 -30Q179 -30 159 -30T124 -22T109 6V21Q109 28 110 34T117 43Q137 43 153 43T184 42Q201 42 218 43T254 49Q293 57 331 80T401 136T452 208T471 289Q471 331 449 353T394 385T330 394Q292 394
256 385T184 354Q172 347 156 335T124 314T92 305Q76 305 63 317T50 341Q50 354 54 370T65 405Q69 415 72 424T78 443Q85 461 88 480Q90 490 92 513T97 565T102 619T105 656Q115 677 138 685T191 696T243 698Q235 698 245 698T278 700T326 701T377 702T416 703H422Q440
703 460 703T497 698Q513 694 521 686T529 661Q529 648 517 643T488 636T460 635H233Q226 635 212 632Q208 631 204 631T191 630L173 612Q173 604 173 600T171 591Q171 587 171 583T169 576Q166 566 161 543T150 498T141 466V430Q179 430 203 434T247 444Q264 449
282 453T319 457Q382 457 431 441T507 390T535 295Q535 232 507 174T430 70T321 -3T195 -30Z" />
<glyph unicode="6" glyph-name="six" horiz-adv-x="629" d="M296 15Q218 15 163 52T79 151T50 287Q50 404 101 499T241 676Q263 696 280 707T317 718Q350 718 350 686Q350 680 343 673T331 662Q328 659 325 656T318 650Q293 627 268 603T219 553Q197 528 178 499T141
429Q141 424 140 421T136 412Q134 405 132 398T130 387V355Q155 355 170 361T196 376L212 389Q216 393 220 395Q264 418 301 431T387 445Q439 445 484 422T557 358T585 266Q585 213 560 168T492 88T398 34T296 15ZM300 83Q354 83 400 106T476 171T505 266Q505 322
475 354T387 387Q334 387 293 363T216 304Q205 294 195 283T174 260Q174 260 172 260T165 258Q160 257 153 257T125 257V230Q125 194 142 167T187 121T244 93T300 83Z" />
<glyph unicode="7" glyph-name="seven" horiz-adv-x="559" d="M186 -40Q165 -40 157 -25T148 17Q148 58 158 92T184 167Q211 235 237 293T296 410T369 536V573Q311 573 270 568T186 563Q171 563 148 564T101 570T61 586T45 616Q45 629 55 637T78 646Q92 646 106
644T135 639Q152 636 168 633T201 630H241L479 673H493Q525 673 525 641Q525 636 525 632T526 625Q465 549 416 471T322 305Q301 265 280 211T246 112V113Q244 106 240 89T232 53Q228 36 225 20T219 -1Q210 -40 186 -40Z" />
<glyph unicode="8" glyph-name="eight" horiz-adv-x="673" d="M299 -25Q257 -25 213 -13T132 22T73 80T50 158Q50 227 98 273T225 354V373Q225 375 224 380T214 393Q212 395 209 398T201 404L166 438Q147 460 133 485T119 535Q119 565 138 595T189 651T257 692T326
708H465Q484 708 499 694T517 659V631Q528 605 537 590L553 567Q558 559 562 548T566 514Q566 477 550 448T501 387V356Q554 323 589 289T624 205Q624 146 596 103T520 31T415 -11T299 -25ZM364 404Q388 404 418 418T470 457T492 514Q492 549 475 577T428 623T364
640Q340 640 311 633T255 613T211 578T193 530Q193 501 211 478T257 438T314 413T364 404ZM321 43Q348 43 386 52T462 78T525 122T550 184Q550 220 529 245T476 285T412 308T358 315Q338 315 309 308T247 287T187 256T142 215T124 169Q124 135 144 111T195 72T260
50T321 43Z" />
<glyph unicode="9" glyph-name="nine" horiz-adv-x="599" d="M260 10Q238 10 228 17T217 42Q217 56 230 72T269 107Q281 116 293 124T317 141Q328 149 339 157T357 175Q368 189 382 205T409 241Q423 261 433 286T443 351Q416 351 405 349T386 344Q381 342 376
339T365 334Q338 324 312 319T260 314Q163 314 104 365T45 508Q45 584 80 628T177 693T313 713Q387 713 440 678T521 583T550 451Q550 379 521 307T445 171T342 57Q324 41 304 26T260 10ZM297 377Q300 377 315 381T348 391T375 399Q389 404 400 413T420 433Q428
442 435 451T448 468L455 475L459 478Q467 484 468 491T470 508Q470 543 451 569T403 613T342 641T282 650Q240 650 202 632T139 580T114 503Q114 461 135 433T190 391T260 377H297Z" />
<glyph unicode=":" glyph-name="colon" horiz-adv-x="213" d="M111 396Q86 396 70 407T54 440Q54 457 69 468T104 479Q128 479 140 471T153 434Q153 413 144 405T111 396ZM119 63Q88 63 75 71T62 105Q62 126 72 135T111 144Q131 144 142 134T153 100V68Q153 67
150 65T144 63H119Z" />
<glyph unicode=";" glyph-name="semicolon" horiz-adv-x="292" d="M242 399Q224 399 213 409T202 441Q202 458 213 468T238 479Q255 479 263 471T272 436Q272 415 266 407T242 399ZM38 -113Q20 -113 20 -97Q20 -94 24 -87Q27 -82 31 -78T39 -68Q45 -62 58 -49T82
-24T97 -10Q104 -2 110 7T121 25Q126 33 132 42T144 60Q169 95 190 95Q200 95 207 88T214 67Q214 51 201 28T166 -19T121 -65T75 -99T38 -113Z" />
<glyph unicode="&lt;" glyph-name="less" horiz-adv-x="475" d="M294 110Q276 110 256 122Q248 129 232 142T197 171T162 200T140 219Q134 225 129 230T118 239Q108 248 102 255Q96 262 93 269T89 286Q89 307 116 331L281 480Q298 496 328 496H343Q347 491 347
484T346 468Q346 451 330 432T282 390Q268 379 253 369T224 348Q211 338 196 326T163 291Q189 263 210 245T250 211Q268 197 286 183T321 152Q323 148 325 142T328 131Q328 125 320 118T294 110Z" />
<glyph unicode="=" glyph-name="equal" horiz-adv-x="467" d="M113 461Q97 461 91 466T85 486Q85 517 101 519Q150 524 185 526T249 530T308 533T375 535Q385 535 394 523T403 492Q403 486 398 476T386 467Q379 467 372 467T358 468Q314 468 256 465T113 461ZM113
241Q97 241 91 247T85 266Q85 297 101 299Q150 304 185 306T249 310T308 313T375 315Q385 315 394 303T403 272Q403 266 398 257T386 247Q379 247 372 247T358 248Q314 248 256 245T113 241Z" />
<glyph unicode="&gt;" glyph-name="greater" horiz-adv-x="475" d="M183 110Q166 110 158 117T149 131Q149 136 151 142T156 152Q173 168 191 182T227 211Q247 227 267 245T314 291Q296 314 282 326T253 348Q239 359 224 369T194 390Q164 413 148 432T131 468Q131
473 131 476T130 484Q130 492 134 496H149Q177 496 196 480L361 331Q387 307 387 286Q387 269 375 255Q372 251 368 248T359 239Q354 235 348 230T337 219Q330 213 315 200T280 172T245 143T221 122Q200 110 183 110Z" />
<glyph unicode="?" glyph-name="question" horiz-adv-x="457" d="M137 203Q118 203 113 215T107 244Q107 292 124 323T170 377T229 419T288 461T333 517T351 599Q351 652 319 689T234 726Q204 726 182 715T143 688T109 662T71 650Q56 650 51 657T46 680Q46 714
65 737T114 775T177 795T239 802Q298 802 340 773T404 697T427 594Q427 529 400 472T315 375Q288 357 261 342T214 299Q201 284 194 262T175 221T137 203ZM125 -1Q102 -1 91 14T79 48Q79 73 95 95T141 117Q164 117 175 103T186 68Q186 43 170 21T125 -1Z" />
<glyph unicode="@" glyph-name="at" horiz-adv-x="961" d="M493 -72Q425 -72 360 -53T240 3T146 95T90 222Q85 245 83 267T80 312Q80 398 114 474T209 607T349 697T517 730Q588 730 654 705T774 635T859 530T891 401Q891 372 885 342T865 281Q841 226 792 191T686
155Q659 155 633 164T581 195Q574 201 567 207T555 212Q543 210 533 195T508 170Q487 157 464 149T415 140Q382 140 353 156T305 200T278 259Q275 274 275 290Q275 340 300 385T364 466T447 520Q486 537 531 537Q577 537 617 517Q631 510 644 498T657 470Q657 453
648 443T624 432Q618 432 610 435Q589 443 571 454T528 465Q506 465 486 458T448 439Q411 416 382 377T353 292Q353 261 371 236T419 210Q434 210 452 219Q471 228 486 241T512 271Q521 287 523 299T526 330Q528 351 539 362T571 371Q583 370 588 360T596 338T601
316Q606 293 613 274T642 238Q669 218 695 218Q722 218 744 237T781 286T804 347T813 404Q813 461 790 506T725 585T633 636Q579 655 522 655Q473 655 425 642T332 603Q275 572 235 524T175 420T154 306Q154 232 189 164T301 51Q386 1 482 1Q566 1 646 40Q660 48
679 57T716 66Q724 66 731 63Q742 60 747 50T753 29Q753 14 745 3Q726 -22 690 -34T623 -54Q560 -72 493 -72Z" />
<glyph unicode="A" glyph-name="A" horiz-adv-x="718" d="M146 10Q136 10 127 16T114 29V57Q114 78 120 99T131 141Q133 149 134 159T135 194H79Q72 195 65 196T53 198Q46 201 41 207T35 231Q35 251 44 258T75 269Q86 271 98 272T122 275Q134 277 147 281T171
294Q176 298 182 305T189 312Q191 314 193 318T198 330Q200 334 202 339T205 350Q208 358 210 365T216 377Q223 390 237 418T267 480T297 541T317 578Q327 595 337 612T361 644Q389 678 410 678Q429 678 443 669T469 642Q481 624 489 605T507 565Q559 452 599 330T664
87V73Q664 56 654 44T637 31Q613 31 602 48T583 99Q579 116 577 132T571 164Q567 178 559 194T542 221H431Q415 221 395 221T353 222Q331 222 308 220T265 209Q239 199 226 178T206 132T194 82Q189 55 182 33T146 10ZM404 294Q460 294 482 295T511 305Q514 313
514 323Q514 337 510 354T499 386Q495 396 487 416T469 462T450 510T436 546Q434 553 428 560T412 568Q404 568 396 558Q387 546 372 517T338 453T305 386T283 335Q277 322 277 314Q277 301 287 298T309 294H404Z" />
<glyph unicode="B" glyph-name="B" horiz-adv-x="693" d="M279 -5Q217 -5 181 12T144 61Q123 64 115 77T106 110T104 147V167Q111 222 117 269T124 372Q124 416 124 448T119 523Q122 543 96 553Q92 555 86 556T73 561Q63 565 57 571T50 593Q50 617 74 636T135
668T213 691T291 704T347 708Q397 708 439 690T507 636T533 551Q533 506 516 472T459 420Q517 412 558 393T621 334T644 226Q644 147 596 96T464 20T279 -5ZM268 73Q307 73 350 76T434 94T511 142Q536 165 553 186T570 246Q570 277 552 298T508 332T453 352Q443
355 432 356T409 357Q379 357 351 352T303 347Q291 347 284 352Q278 358 278 365Q278 382 282 393T299 415Q311 423 324 430Q332 435 340 438T356 446Q383 458 406 473T444 509T459 561Q459 588 440 604T394 628T347 635Q323 635 294 631T237 615T193 578V530Q193
478 195 427T198 326V278Q198 270 197 251T195 211T193 183Q193 176 191 167T185 147Q182 134 180 121T177 91Q190 78 215 76T268 73Z" />
<glyph unicode="C" glyph-name="C" horiz-adv-x="678" d="M342 -25Q258 -25 192 12T88 116T50 268Q50 322 66 380T113 493T186 592T281 662T391 688Q436 688 478 671T548 620T576 541Q576 519 568 512T550 505Q534 505 524 517T505 551Q497 567 485 582T453 609T401
620Q337 620 287 589T201 509T148 403T130 295Q130 256 142 213T179 133T240 72T326 48Q383 48 423 62T493 98T550 144Q570 163 593 163Q608 163 618 154T629 127Q629 115 613 96Q606 87 597 80T579 64Q528 21 469 -2T342 -25Z" />
<glyph unicode="D" glyph-name="D" horiz-adv-x="762" d="M308 -15Q291 -15 263 -14T210 -6T177 21Q177 37 178 79T179 179T181 305T182 436Q182 468 176 500T160 558T134 590Q122 584 111 582T88 579Q72 579 61 586T50 609Q50 636 71 653T123 679T185 692T235
698Q249 698 273 699T317 702T339 703Q410 701 476 678T596 614T681 514T713 383Q713 305 679 234T587 106T457 18T308 -15ZM302 69Q361 69 421 96T532 169T614 273T645 394Q645 447 617 490T541 563T435 610T314 626Q307 626 299 626T282 625Q243 623 234 594Q251
516 256 444T261 294Q261 251 259 207T256 116V86Q267 76 278 73T302 69Z" />
<glyph unicode="E" glyph-name="E" horiz-adv-x="574" d="M272 10Q198 10 156 36T98 113T81 241Q81 276 84 316Q45 331 45 353Q45 372 57 380T86 394T114 406Q116 418 120 442T128 494T137 543T142 570Q131 576 113 577T80 585T66 610Q66 630 77 639T113 653Q177
664 236 671T359 678Q373 678 397 678T445 675T487 661T504 631Q504 620 498 612T483 604H333Q329 604 311 604T272 601T237 593Q222 587 213 556T200 483T196 399Q209 400 235 401T289 404T337 405H377Q400 405 408 395T417 368Q417 334 379 331L210 320Q182 319
173 311T160 279Q158 260 158 250T157 232Q158 225 158 220T158 210Q158 187 162 162T180 116T226 89H277Q327 89 383 97T483 115Q485 116 488 116T492 116Q506 116 510 106T515 84Q515 39 424 21Q392 14 351 12T272 10Z" />
<glyph unicode="F" glyph-name="F" horiz-adv-x="550" d="M133 22Q114 22 108 52Q101 58 95 86T86 155T82 240Q82 255 82 269T84 298Q45 313 45 335Q45 354 52 362T71 376T93 388Q95 400 99 428T109 491T121 556T133 603Q137 622 156 641T217 673T332 687H376Q410
687 441 684T494 672T515 640Q515 629 509 621T494 613H344Q341 613 325 612T287 607T246 599T216 586Q203 576 194 543T180 466T175 381Q184 382 206 383T256 385T307 386T346 387H386Q409 387 417 377T426 350Q426 316 388 313L210 302Q182 301 173 295T160 279Q160
243 166 193T179 76Q172 51 159 37T133 22Z" />
<glyph unicode="G" glyph-name="G" horiz-adv-x="663" d="M321 -35Q228 -35 168 7T79 120T50 280Q50 350 74 420T142 549T249 642T386 678Q414 678 447 668T512 639T563 597T583 547Q583 539 574 530T551 521Q544 521 538 523T526 530Q518 536 513 541L498 557Q482
575 456 590T386 605Q323 605 274 573T190 491T137 385T119 280Q119 220 139 166T204 78T321 44Q375 44 424 71T504 143T535 243Q534 247 521 249T463 253Q453 254 443 254T422 254Q401 254 380 254T337 253Q301 253 301 295Q301 307 311 317T344 332H406Q440 332
475 330T541 319T590 286T609 221Q609 168 584 122T516 40T423 -15T321 -35Z" />
<glyph unicode="H" glyph-name="H" horiz-adv-x="752" d="M150 -9Q135 -9 128 -1T120 18T118 31V84Q118 127 126 171T133 268Q133 277 127 288T108 300Q89 300 70 304T50 331Q50 353 65 363T112 378Q133 385 139 404T145 436V625Q145 640 145 657T153 686T182
698Q198 698 211 687T224 661Q224 633 223 597T221 524T220 457Q220 428 221 410T227 389Q237 386 263 385T323 384T382 383Q438 383 472 383T524 383T552 384T567 384Q567 390 569 411T574 457T578 498Q583 533 587 568T593 617Q602 682 640 682Q652 682 665 677T673
639Q667 598 661 566T651 504T646 436V389Q675 386 687 373T699 346Q699 323 688 314T662 303T640 297V127Q640 113 639 92T630 54T604 38Q586 38 578 46T564 67Q558 83 557 103T556 141Q556 173 558 205T561 268Q561 288 558 296T544 305Q529 305 497 306T429
307T361 309T318 310H293Q262 310 246 307T224 293T213 260Q212 230 211 197T207 130Q205 92 202 60T188 10T150 -9Z" />
<glyph unicode="I" glyph-name="I" horiz-adv-x="386" d="M79 5Q61 5 56 9T50 31Q50 49 57 55T74 66Q83 70 91 74T106 85Q124 101 124 128Q124 142 124 164T123 213Q123 254 123 298T126 382T131 443Q134 469 136 495T142 548V581Q132 592 125 597T112 607L93
619Q86 623 83 627T79 642Q79 662 101 662Q118 662 132 660T160 657H171Q176 657 196 659T238 665Q258 668 276 670T298 673H304Q320 673 326 668T332 647Q332 631 327 626T311 619Q303 617 294 615T277 611Q267 608 257 602T236 582Q229 544 223 507T211 431Q199
328 199 221Q199 202 199 188T201 158T205 117Q211 96 241 90Q248 89 256 88T274 84Q289 81 296 76T303 57Q303 47 296 41T269 29Q260 27 250 26T230 24L192 21Q189 20 184 20T172 18Q166 17 159 16T143 12Q130 10 118 8T101 5H79Z" />
<glyph unicode="J" glyph-name="J" horiz-adv-x="614" d="M227 15Q190 15 157 32T97 79T55 143T40 215Q40 267 72 267Q83 267 92 261T106 237Q110 220 118 195T141 146T177 105T227 88Q256 88 276 109T309 159T328 210Q354 302 363 402T372 593Q372 607 366 616T345
625H275Q268 625 261 634T254 657Q254 676 259 682T270 688H275Q288 688 315 688T378 687T448 685T513 684T556 683Q567 680 571 676T575 663Q575 638 558 629T514 620Q502 620 490 621T465 624Q446 624 446 604Q446 589 446 557T444 489T443 422T441 379Q439 338
433 289T414 192T378 103T318 39T227 15Z" />
<glyph unicode="K" glyph-name="K" horiz-adv-x="619" d="M73 30Q63 40 61 53T59 88Q59 117 65 147T79 209Q87 242 95 274T108 340V420Q108 468 106 515T103 610V651Q105 665 111 669T134 674Q152 674 162 661T176 628T181 588T182 553Q182 545 183 522T184 471T186
415T187 369Q187 342 201 342Q211 342 223 357Q226 360 237 370T261 392T282 409Q289 415 303 430T333 463T362 496T381 517Q389 526 398 538T415 563Q423 576 432 590T451 617Q466 639 482 656T516 674Q531 674 542 663T553 637Q553 608 534 576T488 513T436 457Q430
451 411 435T368 400T324 363T294 338Q284 331 284 326Q284 321 294 315L324 298Q331 294 347 283T381 259T416 235T438 219Q462 202 491 178T542 126T564 66Q564 57 558 52T532 46Q523 46 509 54T480 75Q475 78 463 88T436 112L408 137Q401 144 395 148T387 154Q377
160 354 180T305 219Q278 238 259 250T229 270L205 290Q203 292 199 296T190 300Q187 300 184 296T177 279Q172 260 167 229T158 169T151 130Q147 113 142 94T128 59Q120 45 110 38T86 30H73Z" />
<glyph unicode="L" glyph-name="L" horiz-adv-x="525" d="M96 25Q77 25 70 31T59 53V98Q59 181 66 264T79 432T86 601Q86 624 98 639T129 654Q150 654 156 642T163 613T162 580Q162 469 151 356T140 115Q169 119 212 124T297 134T366 141H397Q408 141 425 141T459
139T488 128T500 104Q500 79 485 72T449 65Q441 65 433 65T417 66Q357 66 274 57T111 25H96Z" />
<glyph unicode="M" glyph-name="M" horiz-adv-x="812" d="M86 5Q66 5 60 18T53 49T54 84Q54 185 74 283T121 478Q123 484 128 500T139 536T150 571T158 593Q169 627 184 642T227 658Q252 658 269 641T298 599T317 552Q334 500 352 447T386 341Q394 315 408 315Q426
315 442 358Q450 380 461 411T485 475T506 534T520 571Q536 612 555 637T611 663Q638 663 655 645T683 600T701 548Q728 446 742 341T757 132V93Q753 80 746 77T721 73Q696 73 685 106Q679 124 677 143T673 181Q663 283 656 344T643 440T633 492T625 527Q622 545
608 545Q593 545 584 527Q578 509 567 475T541 403T516 334T501 291Q496 278 487 256T466 211T438 174T405 158Q389 158 376 171T355 203T341 233L258 478Q257 483 254 492T245 510T226 519Q215 519 209 509T199 486T195 465Q193 455 189 440T181 407Q177 392 175
379T170 358Q169 351 166 333T159 295Q151 243 145 194T132 86Q131 69 127 50T114 18T86 5Z" />
<glyph unicode="N" glyph-name="N" horiz-adv-x="703" d="M86 5Q61 5 58 23T54 63V79L56 93Q57 99 59 107T62 122Q64 137 66 150T70 171Q72 186 75 219T82 290T88 361T91 405Q91 411 92 435T94 489T96 543T97 573Q97 588 99 606T110 639T139 653Q153 653 168 636T191
607Q195 600 198 595T205 584Q237 532 274 475T347 360Q364 332 390 295T444 221T493 158Q511 135 523 135Q534 135 540 162Q554 234 563 324T572 500Q572 537 570 570T564 632Q562 649 573 658T601 668Q620 668 627 663T638 646Q644 619 646 580T648 506Q648 369
639 266T604 105T527 47Q499 47 472 66T422 114T380 169Q324 253 289 308T232 397T199 446T183 468T171 473Q171 457 170 424T165 346T158 256T149 169T139 99Q136 84 131 62T116 22T86 5Z" />
<glyph unicode="O" glyph-name="O" horiz-adv-x="698" d="M326 0Q264 0 214 26T127 97T70 198T50 315Q50 446 111 530T292 663Q324 675 362 686T431 698Q461 698 485 690T526 664Q537 652 541 640T545 615Q553 608 562 595T580 569Q617 518 630 465T644 347Q644
279 621 217T556 106T455 29T326 0ZM336 73Q395 73 438 100T509 171T550 265T564 362Q564 383 558 415T540 481T508 546T463 595T405 614Q342 614 291 589T204 521T148 425T129 315Q129 272 141 229T178 151T242 95T336 73Z" />
<glyph unicode="P" glyph-name="P" horiz-adv-x="644" d="M178 -10Q154 -10 142 8T125 52T120 103T119 141V252Q119 327 127 407T135 577Q83 577 67 586T50 625Q50 642 68 655T118 672Q127 675 152 678T210 683T271 687T318 689Q417 689 480 673T573 617T604 509Q604
460 579 416T510 336T413 279T303 252Q293 251 282 251T258 250Q228 250 199 253Q199 198 201 159T204 84V53Q204 36 201 19Q197 2 192 -4T178 -10ZM321 336Q344 336 379 351T449 392T507 449T531 510Q531 551 510 570T459 597T397 609Q381 612 362 613T322 614Q273
614 243 609Q236 608 229 603T220 585Q215 548 211 503T204 415T199 336H321Z" />
<glyph unicode="Q" glyph-name="Q" horiz-adv-x="757" d="M343 0Q278 0 225 26T133 97T74 198T53 315Q53 446 117 530T308 663Q341 675 381 686T454 698Q486 698 512 690T554 664Q566 652 570 640T574 615Q582 608 592 595T611 569Q650 518 664 465T678 347Q678
279 654 217T585 106T479 29T343 0ZM354 73Q416 73 461 100T536 171T580 265T594 362Q594 383 588 415T568 481T535 546T488 595T427 614Q360 614 307 589T215 521T156 425T136 315Q136 272 148 229T187 151T255 95T354 73ZM458 196Q441 207 440 217T448 241Q471
273 489 263Q542 233 580 211T648 170T710 130T781 85Q791 78 791 60T778 22Q774 16 762 10T743 10Q695 46 627 86T458 196Z" />
<glyph unicode="R" glyph-name="R" horiz-adv-x="663" d="M141 0Q124 0 118 7T105 32Q103 36 103 38Q102 52 102 67T102 96Q102 188 112 279T122 461Q122 487 122 512T116 563L114 573L104 576Q82 583 68 592T53 619Q53 630 75 644T138 667Q176 675 216 676T278
678Q331 678 386 669T489 640T570 585T613 498Q616 485 616 469Q616 417 590 385T521 331T428 290L401 280L428 256Q439 246 451 236T475 213L520 164Q540 142 559 116T578 64Q578 21 535 21Q521 21 518 24Q518 24 518 24T516 25Q515 27 511 31Q508 34 504 38T497
47Q474 88 446 119T371 191Q358 203 336 217T293 247Q271 264 259 279T247 305Q247 312 255 311T282 318Q301 326 325 332T374 346Q399 354 424 362T471 384Q492 398 515 421T539 473Q539 504 521 527T476 565T425 587Q396 595 357 598T285 601H222Q210 601 210
588L183 107Q182 100 182 91T182 71Q180 52 176 34Q167 0 141 0Z" />
<glyph unicode="S" glyph-name="S" horiz-adv-x="584" d="M283 0Q209 0 156 25T74 95T45 195Q45 216 52 226T78 236Q82 236 94 233T112 220Q123 187 140 153T189 96T272 73Q321 73 360 84T421 121T444 189Q444 221 426 243T384 279Q320 314 271 338T189 384T138
438T120 520Q120 596 180 637T338 678Q361 678 392 673T454 656T505 627T525 583Q525 569 514 558T488 547Q466 547 452 555T420 575Q401 588 377 599T314 610Q285 610 258 600T214 570T196 526Q196 494 214 471T257 431Q269 424 283 417T312 401Q326 394 341 387T372
372Q414 352 448 328T504 271T525 189Q525 129 490 87T400 22T283 0Z" />
<glyph unicode="T" glyph-name="T" horiz-adv-x="678" d="M279 20Q266 20 256 28T246 55Q246 59 246 62T248 70Q266 158 275 240T287 406T290 584Q238 584 205 583T141 579Q131 578 120 578T98 577Q91 577 85 577T74 579Q55 583 48 591T40 615Q40 641 62 647T114
658Q134 661 178 663T274 668T377 673T459 678Q480 678 510 677T569 668T619 645T639 599Q639 586 630 575T608 563Q604 563 601 565T593 569Q585 573 577 577T560 583Q526 592 487 593T385 595Q369 595 369 576Q369 538 368 487T365 378T358 266T347 163T333 85Q327
59 313 38Q306 28 296 24T279 20Z" />
<glyph unicode="U" glyph-name="U" horiz-adv-x="688" d="M202 50Q162 50 134 78T87 155T61 261T52 377Q52 469 69 537Q71 546 75 565T86 605T100 644T114 665Q122 670 130 672T145 675Q155 675 164 669Q170 665 173 660T176 644Q176 635 173 620Q168 595 161
564T147 500Q141 467 138 431T135 359Q135 299 144 247T171 162T218 129Q228 129 247 137T284 157T312 175Q367 221 404 266T468 364T515 481T560 629Q568 646 585 646Q597 646 607 637T615 611Q611 556 608 505T605 403Q605 354 608 306T618 208Q623 175 625 159T627
137T628 124Q628 108 618 98T592 87Q570 87 559 104T543 154Q541 165 538 192T531 257T528 330Q484 246 363 125Q331 91 292 71T202 50Z" />
<glyph unicode="V" glyph-name="V" horiz-adv-x="653" d="M300 50Q273 50 253 72T220 125T199 178Q181 231 162 293T124 420T84 541T45 640V651Q45 667 52 672T82 678Q108 678 120 670T142 634L206 429Q234 339 251 287T279 210T300 178T325 171Q343 171 370 207T427
310T486 465T539 660Q542 674 553 684T578 694Q593 694 598 683T604 657T604 630Q604 598 590 546T552 429T496 298T431 171Q417 147 399 119T356 71T300 50Z" />
<glyph unicode="W" glyph-name="W" horiz-adv-x="891" d="M179 40Q149 40 129 58T97 106T78 169T69 234T64 285Q62 309 61 331T60 382T59 456T59 574Q59 595 62 619T76 661T111 679Q120 679 128 674T137 645Q137 627 136 588T135 500Q135 445 136 386T140 278T149
208Q151 202 155 190T163 166T169 151Q178 135 186 135Q192 135 196 140T204 151Q210 163 226 196T263 272T305 359T342 435T366 477Q384 505 396 518T436 531Q462 531 473 518T492 482L583 216Q593 196 600 192T612 188Q622 188 630 198T641 216Q682 316 708 409T762
609Q768 632 779 647T811 663Q829 663 838 654T846 631Q843 615 838 595T831 567L732 225Q726 206 716 180T691 127T657 84T613 67Q583 67 566 84T537 132Q515 191 490 257T446 399Q444 408 440 416T429 425Q422 425 415 411Q384 349 358 292T300 165Q289 139 273
110T235 61T179 40Z" />
<glyph unicode="X" glyph-name="X" horiz-adv-x="673" d="M549 40Q514 40 482 65T422 122Q387 166 365 201T328 256T303 277Q293 277 284 267T268 251Q262 245 247 225Q240 216 231 205T213 182Q194 159 179 140T161 118Q146 99 121 83T76 67Q65 67 60 72T54 97Q54
116 62 133T87 169Q95 178 110 195T144 231T178 267T202 293Q210 304 223 322T236 356Q236 363 233 369Q198 419 161 479T83 602Q74 616 74 632Q74 650 84 664T107 678Q120 678 132 662Q190 576 222 527T270 456T291 427T301 421Q335 445 365 472T429 533T511 611Q528
626 550 644T593 663Q601 663 608 659Q626 648 626 636Q626 624 614 612T585 585Q528 532 480 484T401 399T363 345Q364 329 379 303T414 253T444 215Q482 171 523 137T587 85Q598 77 598 69Q598 56 579 48T549 40Z" />
<glyph unicode="Y" glyph-name="Y" horiz-adv-x="589" d="M260 -5Q246 -5 234 11T217 49V100Q217 151 227 202T238 304V324Q199 363 170 398T118 472T76 559Q66 585 56 614T45 671Q45 688 55 698T78 708Q111 708 128 668Q133 658 136 647T142 625Q145 612 147
601T154 581Q158 571 168 550T192 502T222 453T256 414T287 399Q322 399 359 452Q373 472 387 498T416 551Q434 583 450 613T485 662T523 682Q538 682 544 672T551 647Q551 630 545 609T527 568Q516 549 503 530T478 494Q440 442 408 402T335 324Q328 295 318 246T300
126Q297 93 295 63T285 14T260 -5Z" />
<glyph unicode="Z" glyph-name="Z" horiz-adv-x="629" d="M157 69Q110 69 80 89T50 132Q50 169 69 202T119 267Q132 280 160 306T226 366T302 435T372 502T423 554T441 579Q427 579 385 577T287 568T176 546Q149 538 127 538Q115 538 107 542T99 557Q99 574 113
588T145 609Q164 616 186 620T237 631Q259 636 295 640T371 646T449 648Q475 648 497 647T533 643Q575 633 575 606Q575 578 555 560T507 516Q471 487 428 451T341 377T257 303T191 238T154 190L142 166Q142 165 142 164T141 161Q141 143 165 143H190Q233 143 274
150T356 163T441 170Q479 170 500 160T521 122Q521 96 497 96Q488 96 479 96T460 97Q414 97 363 90T260 76T157 69Z" />
<glyph unicode="[" glyph-name="bracketleft" horiz-adv-x="331" d="M83 11Q70 11 65 23T60 56Q60 82 64 121T68 205V226Q68 240 69 270T73 338T78 407T80 455Q88 483 89 501T91 548Q91 577 89 596T87 629Q87 645 93 651T120 657Q125 657 145 659T188 665Q208
668 226 670T248 673H254Q269 673 275 668T281 647Q281 631 276 626T261 619Q253 617 244 615T227 611Q217 608 207 602T185 582Q148 403 148 221Q148 202 148 188T150 158T155 117Q160 96 190 90Q198 89 206 88T223 84Q239 81 245 76T252 57Q252 47 245 41T219
29Q209 27 199 26T179 24L141 21Q138 20 133 20T122 18Q109 17 92 12Q89 11 83 11Z" />
<glyph unicode="\" glyph-name="backslash" horiz-adv-x="783" d="M694 -45Q671 -45 655 -21Q615 40 559 122T438 299T307 492T179 685T67 860Q58 875 58 891Q58 910 70 929Q78 941 87 941Q102 941 127 903Q155 860 196 798T287 663T389 511T493 356T590 212T671
95T725 17Q732 7 732 -4Q732 -11 730 -17T725 -27Q713 -45 694 -45Z" />
<glyph unicode="]" glyph-name="bracketright" horiz-adv-x="331" d="M78 12Q62 12 56 18T50 38Q50 55 55 59T71 66Q79 68 87 70T104 74Q115 78 125 84T146 104Q183 282 183 464Q183 484 183 498T181 528T176 568Q171 589 141 595L108 601Q92 605 86 610T79 628Q79
639 86 645T112 656Q122 658 132 659T152 661L190 664Q196 665 210 667Q216 669 223 670T239 673Q242 674 248 674Q262 674 266 662T271 630Q271 603 267 565T263 480V459Q263 446 262 415T258 347T253 278T251 230Q243 203 242 185T240 138Q240 109 242 89T244
56Q244 40 238 34T211 28Q206 28 187 26T144 20Q123 17 106 15T83 12H78Z" />
<glyph unicode="^" glyph-name="asciicircum" horiz-adv-x="475" d="M59 500Q49 500 45 503V518Q45 548 61 565L210 730Q234 757 255 757Q265 757 272 754T286 744Q293 738 302 728Q307 723 311 718T322 706Q328 700 341 684T369 650T398 615T419 590Q431 571
431 552Q431 536 424 527T410 518Q406 518 400 521T389 525Q373 542 359 560T330 596Q314 616 297 636T250 683Q228 665 216 651T193 622Q183 609 173 594T151 564Q129 533 110 517T73 500H59Z" />
<glyph unicode="_" glyph-name="underscore" horiz-adv-x="832" d="M32 -142Q0 -142 0 -116Q0 -100 6 -92T20 -84H793Q803 -84 812 -91T821 -117Q821 -123 816 -132T804 -142H32Z" />
<glyph unicode="`" glyph-name="grave" horiz-adv-x="195" d="M181 618Q168 618 152 630T128 650L107 664Q100 669 92 674T76 685Q60 695 43 704T23 716L12 726Q7 731 4 733Q0 738 0 743Q0 751 13 761T38 771Q47 771 53 769Q57 767 70 759T96 741T114 727Q119
723 125 718T139 707Q149 700 162 689T185 664T196 639Q196 618 181 618Z" />
<glyph unicode="a" glyph-name="a" horiz-adv-x="609" d="M232 -10Q187 -10 149 10T84 64T50 140V193Q50 250 71 308T129 415T218 493T330 523Q368 523 403 510T467 480Q473 522 482 538T513 554Q530 554 537 544T544 507Q544 447 542 390T539 272Q539 224 544
173T550 75Q550 60 550 45T546 21T523 11Q499 11 488 33T472 88T464 148Q454 121 431 95T384 51T348 25T347 26Q325 10 293 0T232 -10ZM222 53Q267 53 306 79T374 146T420 232T437 315Q437 334 433 358T416 406T384 444T330 459Q287 459 248 432T179 362T131 274T114
193Q114 166 123 133T156 77T222 53Z" />
<glyph unicode="b" glyph-name="b" horiz-adv-x="634" d="M267 10Q231 10 199 20T145 42Q130 24 115 20T86 15Q59 15 59 57Q59 79 60 94T69 136Q86 253 95 377T105 624Q105 687 102 748Q102 758 109 760T123 762Q146 762 157 757T171 730V675Q171 608 169 542T166
397Q166 387 167 378T174 369Q178 369 185 375T203 397Q247 448 302 482T437 517Q463 517 491 511T545 486T585 431T601 334Q601 264 575 205T503 102T397 34T267 10ZM267 77Q314 77 361 99T447 158T511 240T535 334Q535 362 522 388T484 431T427 449Q395 449 358
429T285 377T220 307T173 230T155 161Q155 138 167 122T199 96T236 82T267 77Z" />
<glyph unicode="c" glyph-name="c" horiz-adv-x="579" d="M270 15Q200 15 152 49T79 140T54 266Q54 342 88 405T182 506T318 545Q339 545 367 542T421 530T464 504T481 459Q481 448 472 440T443 432Q427 432 414 440T388 456Q370 468 351 477T308 487Q264 487
231 465T176 407T143 332T132 259Q132 194 157 156T225 101T318 84Q366 84 405 101T486 137Q500 144 509 144Q521 144 525 135T529 111Q529 85 508 68T455 40T387 24T319 17T270 15Z" />
<glyph unicode="d" glyph-name="d" horiz-adv-x="649" d="M172 -15Q102 3 66 59T30 183Q30 247 58 306T135 413T244 488T372 516Q411 516 433 514T483 501Q484 516 488 543T497 600T505 655Q508 677 511 699T522 743Q538 787 568 787Q591 787 591 752Q591 747
591 741T589 726Q573 605 566 487T558 250Q558 200 561 152T568 52Q570 25 559 10T533 -6Q513 -6 506 19Q496 51 490 85T482 143Q445 102 402 66T313 8T217 -15H172ZM211 47Q259 47 306 71T394 135T458 220T482 308Q482 346 471 378T438 429T386 449Q330 449 280
427T190 367T128 280T105 178V133Q115 95 141 71T211 47Z" />
<glyph unicode="e" glyph-name="e" horiz-adv-x="554" d="M321 -15Q245 -15 184 7T86 78T50 204Q50 265 70 323T129 428T220 502T338 530Q383 530 419 513T478 465T500 391Q500 345 481 304T428 230T354 180T267 161Q228 161 194 167T131 188Q131 150 149 124T195
81T253 57T310 49Q331 49 352 51T398 54Q435 54 435 22Q435 -3 400 -10Q381 -14 361 -14T321 -15ZM267 241Q302 241 340 255T404 299T431 375Q431 416 406 441T338 467Q300 467 264 450T197 403T149 336T131 260Q154 248 189 245T267 241Z" />
<glyph unicode="f" glyph-name="f" horiz-adv-x="445" d="M186 -40Q173 -40 161 -28T149 1V398H121Q109 398 97 396T72 393Q35 393 35 428Q35 442 55 450T106 464T168 475Q169 554 192 618T261 719T376 757Q388 757 409 756T452 749T489 734T505 705Q505 689 494
679T473 668Q462 668 452 671T428 678Q414 683 400 686T370 689Q333 689 309 670T270 620T249 553T243 481H382Q389 481 398 471T408 449Q408 430 389 426T352 419Q345 419 329 417T292 412T256 407T232 405Q230 378 228 335T224 238T221 128T219 19Q219 0 214
-20T186 -40Z" />
<glyph unicode="g" glyph-name="g" horiz-adv-x="584" d="M294 -282Q259 -282 226 -272T171 -241T142 -188Q140 -177 149 -170T175 -163Q184 -163 191 -167T205 -176Q208 -179 211 -181T217 -186Q230 -196 248 -208T293 -220Q334 -220 362 -197T408 -137T436 -61T449
8Q453 44 456 89T459 168Q459 198 456 211Q434 181 409 154T362 107T330 78Q312 63 288 47T237 20T185 9Q148 9 116 27T65 76T45 145Q45 214 73 282T150 406T265 496T406 530Q438 530 463 516T488 478Q488 468 480 456T460 444Q455 444 449 447Q437 454 422 458T390
463Q373 463 355 457Q306 444 264 415T189 344T138 256T120 161Q120 121 131 97T180 72Q204 72 229 87T277 123T314 161Q335 185 358 214T402 270T437 319T456 347Q465 358 471 360T488 363Q506 363 514 352T525 324T530 294V218Q530 177 528 125T520 16T498 -93T457
-189T391 -257T294 -282Z" />
<glyph unicode="h" glyph-name="h" horiz-adv-x="619" d="M96 5Q59 5 59 51Q59 115 67 180T75 308Q75 379 73 451T67 586T61 689Q61 695 61 700T60 711Q60 731 67 744T96 757Q117 757 127 736T141 686T145 639Q145 604 144 556T143 457Q143 400 144 347T147 259T154
219Q183 251 204 278T244 330Q255 345 269 363T299 396Q328 427 360 445T433 464Q483 464 514 427T552 337L584 113V83Q584 64 582 45T557 26Q525 26 519 42T512 80Q512 170 501 232T484 322Q477 358 462 377T428 397Q400 397 377 378T342 342Q307 298 271 246T201
141T137 43Q131 34 121 20T96 5Z" />
<glyph unicode="i" glyph-name="i" horiz-adv-x="262" d="M166 654Q133 654 114 669T94 710Q94 733 116 745T172 758Q206 758 225 743T244 700Q244 678 223 666T166 654ZM114 15Q100 15 93 33T83 79T80 137Q80 151 80 165T81 193Q81 197 84 219T91 272T99 331T107
378Q110 391 114 412T128 451T159 469Q182 469 191 461T201 434Q201 429 201 424T199 413Q194 381 187 334T174 235T170 137Q171 126 172 112T174 83Q174 57 163 36T114 15Z" />
<glyph unicode="j" glyph-name="j" horiz-adv-x="360" d="M241 635Q174 635 174 676Q174 705 196 721T256 737Q311 737 311 691Q311 664 292 650T241 635ZM0 -243Q-31 -243 -58 -226T-103 -185T-120 -140Q-120 -130 -117 -115T-97 -99Q-86 -99 -76 -105T-59 -127Q-49
-150 -35 -163T10 -176Q27 -176 46 -170T76 -155Q140 -97 165 -2T196 205Q198 230 198 256T198 307Q198 344 197 378T196 445Q196 470 205 477T228 485Q239 485 246 481T256 455Q262 411 264 366T266 268Q266 228 263 175T251 64T225 -48T178 -147T105 -217T0 -243Z"
/>
<glyph unicode="k" glyph-name="k" horiz-adv-x="604" d="M91 -10Q77 -10 68 0T59 22V41L97 427V668Q97 685 98 708T107 749T139 767Q162 767 171 740Q176 725 176 708T177 673Q177 607 172 533T167 375Q206 387 245 400T314 424T358 440Q370 446 387 455T424
472Q443 480 459 485T488 491Q502 491 511 481T520 454Q520 438 502 430T469 416Q461 412 429 399T355 370T270 337T199 311Q202 308 223 293T278 256T348 209T420 162T480 124T513 103Q524 95 535 88T556 71Q574 56 574 42Q574 25 565 16T547 6Q519 6 482 34Q463
47 446 61T415 85Q406 91 384 106T330 141T266 182T203 224T152 258L123 20Q120 6 111 -2T91 -10Z" />
<glyph unicode="l" glyph-name="l" horiz-adv-x="261" d="M141 -5Q122 -5 112 10T98 47T94 91T93 126Q93 134 93 144T92 164Q92 214 95 285T103 436T116 592T133 727Q141 756 154 769T181 782Q193 782 202 771T212 740Q212 736 212 733T211 726Q186 605 179 473T172
219Q172 169 173 131T175 51Q175 29 166 12T141 -5Z" />
<glyph unicode="m" glyph-name="m" horiz-adv-x="832" d="M116 10Q100 10 90 19T80 43Q80 78 82 112T85 181V252Q85 281 84 310T80 376Q77 404 68 434T59 487Q59 530 85 530Q115 530 130 472T160 304Q162 291 165 286T171 280Q177 280 182 287T191 300Q199 315
209 335T228 369Q236 383 245 396T265 422Q285 447 308 461T358 476Q382 476 395 463T418 429Q424 417 428 406T437 383Q442 372 450 348T470 307L500 350Q518 376 535 401T575 449Q596 471 619 484T667 498Q701 498 724 470T759 401T772 321L778 90Q779 74 771
53T740 31Q727 31 718 41T709 63V262Q709 282 706 308T697 360T679 401T651 418Q624 418 602 393T562 325T524 231Q505 166 492 144T463 122Q450 122 442 128T428 144Q421 156 417 172T410 202L391 290Q387 308 383 334T369 379T340 399Q327 399 313 384T284 345T257
298T237 255T227 231Q225 225 215 200T192 144T169 86T155 51Q145 28 137 19T116 10Z" />
<glyph unicode="n" glyph-name="n" horiz-adv-x="674" d="M112 20Q97 20 90 27T80 47Q75 64 75 83V122Q75 154 77 177T79 229Q79 239 79 250T77 275Q73 324 66 378T59 476V515Q65 529 70 532T86 535Q110 535 120 517T133 474T138 431Q139 424 141 401T147 350T152
295T155 255Q171 288 193 323T237 390T278 440Q304 469 339 485T410 502Q451 502 482 479T535 419T573 340T597 257Q610 204 616 164T628 73Q628 51 619 38T597 25Q578 25 570 33T559 61Q552 99 546 147T528 244T496 335Q488 354 476 374T447 408T405 422Q372 422
339 393T275 318T220 220T178 120Q173 104 166 85T150 48Q143 34 135 27T112 20Z" />
<glyph unicode="o" glyph-name="o" horiz-adv-x="678" d="M321 0Q249 0 187 31T88 119T50 251Q50 302 71 346T127 430T198 508Q215 525 237 532T284 540Q353 540 414 526T522 479T597 396T624 272Q624 212 599 162T530 76T432 20T321 0ZM299 74Q345 74 390 87T473
126T532 193T555 288Q555 338 534 373T477 431T401 465T321 476Q305 476 286 474T248 454Q226 433 204 412T162 364Q143 339 131 308T119 241Q119 183 143 146T209 92T299 74Z" />
<glyph unicode="p" glyph-name="p" horiz-adv-x="619" d="M101 -282Q84 -282 79 -265T74 -226Q74 -218 74 -210T75 -194Q75 -92 84 1T97 183Q98 206 99 240T100 305T100 350Q81 350 70 364T59 391Q59 401 68 417T97 441Q99 446 99 451T99 464Q99 486 96 513T90
554Q89 560 102 567T128 574Q146 574 153 562T162 532T167 496Q212 514 240 523T293 535T353 538Q418 538 471 517T557 455T589 351Q589 292 565 233T498 126T400 48T284 19Q268 19 253 22T222 28Q216 29 210 29T199 30H166Q166 7 166 -34T165 -121T160 -207Q158
-238 142 -260T101 -282ZM279 86Q329 86 372 109T449 172T501 256T520 346Q520 394 496 422T436 463T359 476Q339 476 317 475T275 464Q231 445 208 423T176 369Q172 355 171 340T170 309Q170 293 171 275T172 237V154Q172 131 190 116T233 93T279 86Z" />
<glyph unicode="q" glyph-name="q" horiz-adv-x="604" d="M463 -362Q460 -362 457 -362T449 -361Q416 -354 399 -333T376 -284T370 -228Q370 -178 377 -111T398 27T430 160Q397 112 350 79T254 29T170 12Q129 12 98 34T48 92T30 168Q30 237 60 299T143 410T261
487T400 515Q446 515 481 494T529 437Q531 431 533 423T535 406Q535 395 531 384T515 365Q531 352 538 339T545 302Q545 268 536 229T515 153T497 85Q488 47 477 -4T457 -107T448 -197Q448 -221 452 -237T467 -260Q484 -270 493 -287T503 -322Q503 -338 493 -350T463
-362ZM174 79Q207 79 239 96T301 140T357 197Q378 220 396 241T437 288Q455 310 470 332T486 378Q486 390 482 399Q471 428 449 443T410 458Q356 458 302 435T201 372T127 282T99 178Q99 158 105 135T127 96T174 79Z" />
<glyph unicode="r" glyph-name="r" horiz-adv-x="405" d="M87 -10Q76 -10 71 0T63 23T59 45V124Q59 184 64 247T70 370Q70 399 67 428T59 477Q58 482 58 486T57 494Q57 507 65 511T92 515Q115 515 126 495T142 449T153 401Q182 436 216 452T273 480Q295 491 317
497T368 504Q396 504 420 489T445 455Q445 434 432 424T402 414Q397 414 393 415T383 418Q376 421 368 423T351 425Q320 425 291 414T242 391Q207 372 188 349T155 305Q148 267 146 231T143 175Q142 154 141 131T138 85Q136 61 132 39T118 4T87 -10Z" />
<glyph unicode="s" glyph-name="s" horiz-adv-x="503" d="M249 -15Q222 -15 186 -12T116 1T59 33T36 92Q36 140 74 140Q87 140 94 131L103 119Q106 115 108 111T115 101Q129 80 155 62T233 44Q263 44 299 53T360 84T386 140Q386 169 368 186T328 213Q318 218 306
223T279 232Q266 236 253 240T226 248Q190 260 161 275T114 315T96 376Q96 422 126 453T203 499T298 515Q316 515 340 512T387 501T425 479T441 440Q441 428 437 420T423 411Q417 411 413 413Q369 433 340 442T288 451Q275 451 255 448T214 437T181 416T167 381Q167
343 225 318Q246 310 272 302T326 283Q362 270 392 252T439 209T457 145Q457 88 428 53T352 1T249 -15Z" />
<glyph unicode="t" glyph-name="t" horiz-adv-x="485" d="M221 -20Q196 -20 184 -4T169 36T165 83Q165 94 165 104T166 121Q166 193 169 266T172 427Q135 427 111 424T63 421Q47 421 41 427T35 447Q35 463 39 470T51 480L149 500Q171 505 180 520T194 549Q196
557 196 564T198 581Q198 589 198 596T199 611Q201 643 209 658T243 673Q266 673 270 655T275 621Q275 610 274 588T271 543T269 511H429Q438 511 447 499T456 468Q456 462 451 453T439 443Q429 443 402 443T343 441T287 439T260 436Q255 376 253 321T250 213Q250
179 251 148T254 85Q254 80 255 70T256 48Q256 25 250 3T221 -20Z" />
<glyph unicode="u" glyph-name="u" horiz-adv-x="653" d="M193 10Q142 10 113 38T72 112T59 209Q59 244 60 265T64 310T75 373Q79 393 83 413T94 453Q102 476 111 485T128 495Q147 495 156 485T166 458Q166 436 160 417T150 381Q143 336 138 310T131 262T128 209Q128
194 130 173T140 132T161 99T198 85Q222 85 243 102T274 131Q342 217 395 299T500 478Q507 489 511 492T523 495Q546 495 555 487T564 460Q564 448 561 431Q546 356 546 282Q546 232 555 189T584 118Q599 99 599 85Q599 68 590 58T566 48Q528 48 506 108Q499 129
491 161T475 227T466 282Q453 261 443 241T416 197Q405 181 390 161T358 118Q323 75 281 43T193 10Z" />
<glyph unicode="v" glyph-name="v" horiz-adv-x="532" d="M273 30Q241 30 216 49T170 100Q160 116 152 133T135 169Q115 217 96 270T63 371T50 455Q50 462 50 471T49 490Q49 506 53 518T72 530Q98 530 108 510T130 430Q134 411 141 382T159 319T179 254T197 199T208
169Q219 144 235 128T262 111Q277 111 291 126T316 159T331 188Q336 199 346 224T369 280T395 344T418 401T433 440Q446 460 456 470T485 481Q498 481 507 476T516 456Q516 453 516 450T514 444Q508 420 497 382T471 313L362 98Q347 69 324 50T273 30Z" />
<glyph unicode="w" glyph-name="w" horiz-adv-x="822" d="M221 -5Q192 -5 170 13T131 61T103 125T85 192T75 246Q74 258 71 279T66 324T61 365T59 387V419Q59 438 60 456T70 487T100 500Q114 500 120 495T127 484Q127 436 133 380T149 270T171 170T197 97Q205
83 215 83Q224 83 235 97Q235 97 240 110T253 140T262 165Q264 171 271 194T288 246T305 298T315 327Q326 358 349 383T400 409Q431 409 455 367T514 240Q520 226 531 203T554 160T578 136Q583 141 591 163T610 214T631 275T649 330T660 363L675 404Q680 418 690
439T715 478T746 495Q757 495 764 487T772 468V459Q772 453 772 449T768 439Q757 407 742 358T709 256T670 155T625 79T573 49Q551 49 525 79T469 162Q464 172 450 200T422 261T400 318L322 104Q313 80 298 55T263 12T221 -5Z" />
<glyph unicode="x" glyph-name="x" horiz-adv-x="574" d="M439 -10Q424 -10 415 -3T394 22L320 143Q316 150 305 165T284 194T270 211Q258 201 241 181T206 139L175 101Q170 96 164 90T152 76Q138 61 128 49T103 26Q91 17 77 17Q66 17 58 24T50 48Q50 74 71 102T125
162Q141 177 156 191T182 218Q193 231 203 242T230 273Q227 279 213 299T182 345T151 390T131 416Q115 435 97 459T78 509Q78 520 87 525T110 530Q121 530 136 517T163 489Q174 475 192 452T227 407T250 377Q254 374 261 363T276 343T283 333Q325 377 367 420T452
506Q466 520 473 522T489 525Q515 525 515 498Q515 487 513 480T503 464Q457 414 424 380T369 320T331 273Q334 261 350 234T386 174T424 115T449 75Q469 41 469 18Q469 -10 439 -10Z" />
<glyph unicode="y" glyph-name="y" horiz-adv-x="579" d="M195 -262Q192 -262 186 -254T180 -230Q180 -216 183 -202T193 -174Q200 -159 207 -144T221 -114Q227 -99 235 -76T252 -30T265 11T271 30V56Q209 56 168 79T103 140T68 224T54 319T50 410Q50 430 51 449T56
487Q61 510 68 517T83 525Q106 525 115 508T125 457Q125 434 122 414T119 369V359Q119 350 122 325T130 273T136 234Q141 212 151 188T179 146T227 129Q266 129 296 157T352 231T399 327Q407 344 414 361T428 394Q436 410 443 424T458 451Q474 477 487 488T514
499Q527 499 533 492T540 468Q540 437 530 407T503 347Q486 316 467 286T434 226Q426 208 413 178T385 115T360 57T347 26Q346 21 339 4T324 -38T306 -86T291 -128T282 -151Q276 -169 265 -195T238 -241T195 -262Z" />
<glyph unicode="z" glyph-name="z" horiz-adv-x="502" d="M125 -5Q110 -5 91 -3T58 7T41 33Q41 51 42 64T59 96Q86 130 123 170T199 251T276 328T342 389Q356 403 356 414Q356 432 320 432H263Q235 432 217 432T182 430T143 426Q139 425 135 425T127 425Q118 425
112 429T106 448Q106 471 126 476T164 485Q181 487 206 488T262 489Q291 489 322 488T380 481Q415 474 433 460T452 420Q452 399 434 379T391 339T344 296Q320 273 285 238T216 168T162 105Q155 95 151 89T147 77Q147 70 162 70Q224 70 279 76T380 87Q385 88 390
88T399 88Q421 88 436 81T452 54Q452 33 435 24T394 11T352 6Q343 6 315 4T250 0T179 -3T125 -5Z" />
<glyph unicode="{" glyph-name="braceleft" horiz-adv-x="365" d="M244 13Q223 13 202 28T164 69T138 122T131 176Q132 183 135 202T142 244T145 284Q145 307 138 310Q126 315 114 318T90 329Q60 348 60 366Q60 379 70 390T95 409T120 423T134 432Q143 444 143
472T144 536T154 606T188 666T265 698Q285 700 295 686T305 652Q305 637 298 624T273 608Q235 604 226 581T216 520Q215 483 213 445T191 376Q205 361 210 341T216 296Q216 260 209 222T203 155Q203 147 212 135T232 113T244 103Q262 103 271 89T280 58Q280 42
271 28T244 13Z" />
<glyph unicode="|" glyph-name="bar" horiz-adv-x="386" d="M183 19Q171 19 162 30T152 64V108Q152 127 155 145T159 183Q160 203 160 223T162 261Q164 276 165 288T168 317Q170 394 171 483T172 652Q172 675 182 686T203 697Q215 697 224 686T234 652Q234 572
233 482T229 313Q229 294 227 280T223 249Q219 212 220 175T213 101V64Q213 42 204 31T183 19Z" />
<glyph unicode="}" glyph-name="braceright" horiz-adv-x="365" d="M100 13Q81 11 71 25T60 58Q60 74 68 87T93 103Q131 108 140 131T150 191Q151 228 153 266T175 335Q161 349 156 370T150 414Q150 450 157 488T163 556Q163 564 154 576T134 598T121 608Q103
608 94 622T85 653Q85 670 94 684T121 698Q143 698 164 683T202 642T228 589T234 535Q234 528 231 509T224 468T221 427Q221 404 228 401Q239 397 251 393T275 382Q292 372 298 363T305 344Q305 332 295 321T270 302T245 288T231 279Q222 267 222 239T221 175T211
105T177 45T100 13Z" />
<glyph unicode="~" glyph-name="asciitilde" horiz-adv-x="673" d="M134 313Q119 313 111 322T103 336Q103 339 104 341T106 347Q107 350 108 353T110 359Q123 372 136 385T163 409Q177 420 192 426T224 432Q243 432 259 424T295 402Q317 387 339 376T390 365Q407
365 420 374T446 393Q454 399 462 405T480 411Q495 411 500 406T506 396Q506 371 489 353T446 324T395 313Q385 313 371 313T345 316Q335 322 324 331T300 349Q287 358 270 366T235 375Q212 375 197 364T167 337Q163 333 158 328T148 318Q140 313 134 313Z" />
<glyph unicode="&#xa0;" glyph-name="uni00A0" horiz-adv-x="391" />
<glyph unicode="&#xa1;" glyph-name="exclamdown" horiz-adv-x="404" d="M218 441Q195 441 184 456T172 490Q172 515 188 537T234 559Q257 559 268 545T279 510Q279 485 263 463T218 441ZM192 -188Q171 -188 164 -156T157 -86Q157 -57 159 -31T162 7Q165 57 168
106T176 205Q178 240 178 282T190 357Q198 377 216 377Q231 377 238 359Q241 352 242 342T243 322Q243 312 243 303T242 285V196Q242 175 242 156T244 118Q248 75 250 20T254 -78Q256 -111 248 -138T211 -182Q201 -188 192 -188Z" />
<glyph unicode="&#xa2;" glyph-name="cent" horiz-adv-x="599" d="M335 -10Q316 -10 305 17Q300 32 298 48T293 80Q293 87 292 102T289 133T287 159L271 175Q210 189 156 214T69 280T35 384Q35 435 58 481T119 567T207 635T309 684Q313 697 319 722T331 771T339
803L348 832Q353 847 359 856Q369 876 389 876Q406 876 416 867T426 846V838L393 729V712L412 695Q441 695 470 691T518 672T538 628Q538 615 534 611T527 607Q514 607 502 610T476 617Q461 621 446 624T415 628Q369 628 317 612T219 565T144 491T115 394Q115 345
141 312T207 261T292 243Q380 243 450 295Q457 300 462 305T474 316Q479 321 483 325T493 333Q501 340 509 343T527 347Q546 347 553 340T560 322Q560 312 557 305T542 282Q520 251 487 232T413 196L396 191Q394 190 392 189T388 187Q381 185 369 179T357 173V150Q357
119 362 89T367 31V-2Q364 -9 354 -9T335 -10Z" />
<glyph unicode="&#xa3;" glyph-name="sterling" horiz-adv-x="634" d="M65 -13Q51 -13 46 -8T40 10Q40 31 73 45Q91 53 111 58T151 70L168 87Q168 87 169 101T171 137T173 179T174 212Q174 240 174 255T173 279T171 300T167 332H49Q44 332 44 340Q44 344 44 348T45
355Q45 379 76 388Q84 390 92 390T111 392Q122 392 139 392T176 391Q179 402 182 422T188 454Q208 517 247 571T343 659T470 693Q514 693 551 681T611 644T634 580V559Q627 552 609 552Q602 552 598 554T591 558Q590 560 589 562T585 568Q583 572 581 575T576 583Q565
602 544 617T475 632Q380 632 330 573T257 392Q273 392 277 392T285 390Q290 389 295 388T302 387Q312 387 334 385T381 381T418 378Q436 372 443 364T451 341Q451 331 446 327T421 322Q387 322 355 327T292 332H263Q247 323 243 309T238 288V99H303L477 128H500Q529
128 539 121T550 95Q550 83 542 77T512 66Q491 63 470 63T435 62L392 57Q368 53 336 47T269 34T207 21T164 10Q148 6 136 2T111 -6Q100 -9 89 -11T65 -13Z" />
<glyph unicode="&#xa4;" glyph-name="currency" horiz-adv-x="483" d="M86 291Q77 291 68 301Q54 315 54 329Q54 340 61 348Q75 365 88 380T114 410Q101 426 94 447T86 496Q86 552 119 592Q101 612 84 630T49 665Q42 671 42 685Q42 702 49 707Q63 721 83 721Q105
721 118 708Q136 689 152 671T183 637Q214 649 251 649Q253 649 256 649T264 648Q291 646 315 635Q330 652 346 670T382 708Q395 721 417 721Q437 721 451 707Q458 702 458 685Q458 671 451 665Q433 647 414 628T374 585Q399 548 399 496Q399 453 380 418Q393 402
408 385T439 348Q446 340 446 329Q446 315 432 301Q423 291 414 291Q400 291 377 315Q364 328 352 341T329 366Q298 348 258 348Q237 348 215 352T172 366Q160 354 148 341T123 315Q100 291 86 291ZM259 415Q296 415 314 438T333 499Q333 540 310 559T249 582Q200
582 176 559T151 496Q151 457 180 436T259 415Z" />
<glyph unicode="&#xa5;" glyph-name="yen" horiz-adv-x="589" d="M260 -5Q246 -5 234 11T217 49V100Q217 151 227 202T238 304V324Q199 363 170 398T118 472T76 559Q66 585 56 614T45 671Q45 688 55 698T78 708Q111 708 128 668Q133 658 136 647T142 625Q145 612
147 601T154 581Q158 571 168 550T192 502T222 453T256 414T287 399Q322 399 359 452Q373 472 387 498T416 551Q434 583 450 613T485 662T523 682Q538 682 544 672T551 647Q551 630 545 609T527 568Q516 549 503 530T478 494Q440 442 408 402T335 324Q328 295 318
246T300 126Q297 93 295 63T285 14T260 -5ZM136 374Q120 374 114 380T108 400Q108 431 124 433Q173 438 208 440T272 444T331 447T398 449Q408 449 417 437T426 406Q426 400 421 390T409 381Q361 383 298 379T136 374ZM136 266Q120 266 114 272T108 292Q108 323
124 325Q173 330 208 332T272 336T331 339T398 341Q408 341 417 329T426 298Q426 292 421 282T409 273Q361 275 298 271T136 266Z" />
<glyph unicode="&#xa6;" glyph-name="brokenbar" horiz-adv-x="386" d="M170 426Q172 482 172 540T172 652Q172 675 182 686T203 697Q215 697 224 686T234 652Q234 600 234 542T232 427L170 426ZM183 19Q171 19 162 30T152 64V108Q152 127 155 145T159 183Q160
203 160 223T162 261Q164 276 165 288T168 317V320L229 319V313Q229 294 227 280T223 249Q219 212 220 175T213 101V64Q213 42 204 31T183 19Z" />
<glyph unicode="&#xa7;" glyph-name="section" horiz-adv-x="503" d="M225 -133Q198 -133 162 -130T92 -117T35 -85T12 -26Q12 22 50 22Q63 22 70 13L79 1Q82 -3 84 -7T91 -17Q105 -38 131 -56T209 -74Q239 -74 275 -65T336 -34T362 22Q362 51 344 68T304 95Q294
100 282 105T255 114Q242 118 229 122T202 130Q166 142 137 157T90 197T72 258Q72 302 100 332T172 379Q138 395 117 420T96 486Q96 532 126 563T203 609T298 625Q316 625 340 622T387 611T425 589T441 550Q441 538 437 530T423 521Q417 521 413 523Q369 543 340
552T288 561Q275 561 255 558T214 547T181 526T167 491Q167 453 225 428Q246 420 272 412T326 393Q362 380 392 362T439 319T457 255Q457 200 436 171T376 129Q402 112 417 87T433 27Q433 -30 404 -65T328 -116T225 -133ZM302 165H303Q336 174 361 195T386 250Q386
272 375 287T348 312Q295 333 264 333Q251 333 231 330T190 319T157 298T143 263Q143 225 201 200Q222 192 248 184T302 165Z" />
<glyph unicode="&#xa8;" glyph-name="dieresis" horiz-adv-x="300" d="M238 620Q215 620 204 634T193 667Q193 690 209 711T256 732Q279 732 289 718T300 686Q300 663 284 642T238 620ZM45 620Q22 620 11 634T0 667Q0 690 16 711T63 732Q86 732 96 718T107 686Q107
663 91 642T45 620Z" />
<glyph unicode="&#xa9;" glyph-name="copyright" horiz-adv-x="787" d="M366 134Q277 134 205 173T92 282T50 440Q50 516 78 579T156 689T274 761T418 787Q467 787 516 773T609 731T684 665T728 578Q732 555 732 530T733 482Q733 406 704 343T625 232T508 160T366
134ZM371 181Q458 181 528 221T640 332T681 492Q681 549 658 594T597 671T510 718T412 735Q349 735 294 712T197 648T131 553T107 434Q107 356 142 300T238 212T371 181ZM354 302Q351 304 348 304T341 306Q298 329 274 358T249 434Q249 481 271 517T332 575T418
597Q432 597 447 595T474 586T486 561Q486 553 482 548T474 541Q461 547 445 551T423 556H418Q383 556 354 538T308 491T291 429Q291 396 307 378T346 352T392 345Q415 345 433 355T468 378Q482 389 493 395T517 402Q519 402 523 399T528 387Q528 371 512 351T473
317T434 302H354Z" />
<glyph unicode="&#xaa;" glyph-name="ordfeminine" horiz-adv-x="486" d="M190 285Q125 285 88 327T50 440Q50 484 66 528T111 611T179 672T266 695Q295 695 322 685T371 662Q376 694 383 706T407 719Q423 719 428 711T434 683Q434 637 433 593T431 502Q431 465
435 426T439 351Q439 333 438 317T414 301Q396 302 387 319T375 360T369 407Q361 386 343 367T307 333T280 312T279 313Q262 300 237 293T190 285ZM203 339Q235 339 262 359T311 409T344 474T356 537Q356 557 350 582T328 627T280 646Q249 646 221 625T172 573T138
507T125 445Q125 425 132 400T156 357T203 339Z" />
<glyph unicode="&#xab;" glyph-name="guillemotleft" horiz-adv-x="671" d="M304 110Q287 110 266 122Q258 129 242 142T207 171T173 200T150 219Q145 225 139 230T128 239Q124 244 120 247T112 255Q100 269 100 286Q100 307 126 331L291 480Q310 496 338 496H353Q357
492 357 484Q357 480 357 477T356 468Q356 451 340 432T293 390Q278 379 263 369T234 348Q221 338 206 326T173 291Q199 263 220 245T260 211Q278 197 296 183T331 152Q333 148 335 142T338 131Q338 125 330 118T304 110ZM518 110Q501 110 480 122Q472 129 456
142T421 171T387 200T364 219Q359 225 353 230T342 239Q338 244 334 247T326 255Q314 269 314 286Q314 307 340 331L505 480Q524 496 552 496H567Q571 492 571 484Q571 480 571 477T570 468Q570 451 554 432T507 390Q492 379 477 369T448 348Q435 338 420 326T387
291Q413 263 434 245T474 211Q492 197 510 183T545 152Q547 148 549 142T552 131Q552 125 544 118T518 110Z" />
<glyph unicode="&#xac;" glyph-name="logicalnot" horiz-adv-x="820" d="M694 165Q678 165 672 177T661 199V304Q661 307 664 324T671 365T680 412T688 448Q688 450 688 451T689 454Q646 454 581 453T442 451T296 449T163 447T68 446Q52 446 46 452T40 472Q40
502 56 505Q142 517 235 521T414 526Q520 526 606 523T736 519H739Q769 519 774 509T780 475V446Q780 444 776 431T767 404Q762 388 758 374T753 356L754 271Q754 264 755 254T756 232Q756 208 745 187T694 165Z" />
<glyph unicode="&#xad;" glyph-name="uni00AD" horiz-adv-x="377" d="M113 222Q97 222 91 228T85 248Q85 279 101 281Q150 286 179 288T228 292T261 295T295 297Q305 298 314 286T323 254Q323 248 318 238T306 229Q299 231 279 229T219 225T113 222Z" />
<glyph unicode="&#xae;" glyph-name="registered" horiz-adv-x="787" d="M366 139Q299 139 242 162T141 228T74 327T50 450Q50 528 80 591T163 699T284 768T428 792Q471 792 520 774T615 725T691 653T728 569Q731 541 732 520T733 472Q733 400 702 339T619 234T501
164T366 139ZM381 180Q443 180 496 204T590 272T653 370T676 487Q676 560 640 617T542 707T407 740Q343 740 289 717T193 651T130 554T107 434Q107 375 130 328T191 248T279 198T381 180ZM296 307Q284 307 280 312T276 339Q276 367 279 394T282 450V455Q282 463
279 492T276 545Q252 545 240 547T223 553V566Q223 587 248 601T309 624T380 636T434 640Q460 640 485 628T527 596T544 550Q544 519 523 491T465 434V418Q465 405 472 396T484 382Q490 377 497 372T512 360Q522 353 531 346T539 327Q536 319 532 316T523 312Q507
312 491 320T457 343Q448 351 440 359T423 374Q414 382 405 390T383 408Q377 408 376 413T374 418H355Q345 418 336 410T325 382Q324 374 324 365T322 344Q320 323 314 315T296 307ZM401 450Q421 450 442 460T477 489T492 534Q492 559 474 573T433 592T392 598Q383
598 368 594T341 582T328 561V555Q328 550 329 532T332 493T334 455Q351 455 358 455T370 453Q378 452 384 451T392 450H401Z" />
<glyph unicode="&#xaf;" glyph-name="overscore" horiz-adv-x="293" d="M128 617Q95 617 68 618T21 624Q13 626 7 633T0 650Q0 660 9 668T43 678Q57 679 78 679T128 678Q187 678 257 681Q277 682 285 675T293 657Q293 645 284 635T261 622Q227 620 193 619T128 617Z" />
<glyph unicode="&#xb0;" glyph-name="degree" horiz-adv-x="436" d="M201 480Q136 480 95 516T54 617Q54 664 77 701T140 760T228 782Q269 782 305 764T363 713T386 639Q386 588 360 553T291 499T201 480ZM201 519Q233 519 262 534T311 576T330 639Q330 672 314
692T273 722T222 732Q192 732 165 717T121 676T104 617Q104 573 131 546T201 519Z" />
<glyph unicode="&#xb1;" glyph-name="plusminus" horiz-adv-x="545" d="M283 164Q274 164 260 166T246 181V345L218 359H192Q164 359 136 356T78 353H43Q37 355 34 361T30 387Q30 401 40 412T63 423H235Q235 473 233 508T230 576V605Q232 612 242 618T263 624Q299
624 299 571V423Q352 423 394 426T473 429Q493 429 501 422T510 403Q510 387 503 379T495 370H305V175Q305 170 296 167T283 164ZM128 51Q112 51 106 57T100 77Q100 108 116 110Q165 115 200 117T264 121T323 124T390 126Q400 126 409 114T418 83Q418 77 413 67T401
58Q353 60 290 56T128 51Z" />
<glyph unicode="&#xb2;" glyph-name="uni00B2" horiz-adv-x="365" d="M63 306Q47 306 41 311T35 333Q35 392 101 450Q108 455 127 469T164 496Q169 500 173 503T181 509Q186 513 189 515T194 519Q250 559 250 610Q250 636 232 654T190 672Q161 672 142 662T109
639Q103 633 100 631Q100 630 97 628Q97 627 97 627T96 627Q77 609 57 609Q50 609 46 615T42 630Q42 650 58 667T98 696T148 716T193 723Q242 723 275 690T308 607Q308 576 290 543T240 487L125 402L89 366H118Q129 366 140 367T161 370Q164 370 167 370T174 371Q188
373 202 374T232 376Q237 376 244 376T260 375Q278 375 294 372Q330 365 330 342Q330 319 303 319Q283 319 265 322Q261 322 258 322T251 323Q244 324 237 324T222 325H195L78 306H63Z" />
<glyph unicode="&#xb3;" glyph-name="uni00B3" horiz-adv-x="366" d="M158 300Q146 300 126 303T86 314T52 332T38 359Q38 367 44 372T61 378Q68 378 75 375Q75 375 79 373Q81 371 85 371L94 365Q105 360 117 355T146 349Q172 349 202 357T253 382T274 428Q274
458 251 475T197 499T142 509H140Q133 515 133 527Q133 541 157 548Q166 551 174 551Q176 551 178 551T183 553Q194 555 204 558Q224 566 244 583T265 620Q265 649 243 661T198 674Q178 674 163 667T135 651Q134 651 134 651T132 650Q131 650 130 649Q126 646 122
643T113 637Q109 636 104 635T94 633Q84 633 78 637T71 648Q71 666 87 679T125 702T170 715T204 720Q250 720 281 693T313 628Q313 602 302 582T270 539V527Q298 505 313 483T328 431Q328 391 302 362T237 316T158 300Z" />
<glyph unicode="&#xb4;" glyph-name="acute" horiz-adv-x="195" d="M15 620Q1 620 1 640Q1 652 11 665T34 689T57 708Q64 714 71 719T83 729Q88 733 101 742T127 760T143 770Q148 772 150 772T157 772Q170 772 183 763T197 745Q197 741 191 735L185 728Q183 725
180 723T174 718Q170 714 153 706T120 686L89 666Q72 654 69 651Q62 645 45 633T15 620Z" />
<glyph unicode="&#xb5;" glyph-name="uni00B5" horiz-adv-x="653" d="M584 118Q599 99 599 85Q599 68 590 58T566 48Q528 48 506 108Q499 129 491 161T475 227T466 282Q453 261 443 241T416 197Q405 181 390 161T358 118Q323 75 281 43T193 10Q147 10 117 35Q114
-3 110 -37T98 -99Q91 -126 78 -151T42 -192T-14 -205Q-18 -205 -21 -204T-28 -202Q-44 -197 -51 -188T-58 -166Q-58 -149 -43 -129T-4 -103Q18 -97 32 -48Q40 -20 44 21T51 109T55 198T58 271L60 272Q62 292 65 314T75 373Q79 393 83 413T94 453Q102 476 111 485T128
495Q147 495 156 485T166 458Q166 436 160 417T150 381Q143 336 138 310T131 262T128 209Q128 194 130 173T140 132T161 99T198 85Q222 85 243 102T274 131Q342 217 395 299T500 478Q507 489 511 492T523 495Q546 495 555 487T564 460Q564 448 561 431Q546 356
546 282Q546 232 555 189T584 118Z" />
<glyph unicode="&#xb6;" glyph-name="paragraph" horiz-adv-x="644" d="M343 -126Q330 -126 320 -111T310 -73Q310 -50 311 -29T314 14Q316 33 317 53T319 98Q322 173 322 254L321 255Q267 263 216 285T125 341T60 418T36 509Q36 577 66 616T159 671T321 688Q338
688 367 687T429 683T486 677T521 671Q553 667 570 655T588 625Q588 596 573 587T504 578L503 577Q503 530 505 486T512 400Q514 362 516 325T519 252V141Q519 128 519 104T514 53T497 9T461 -9Q454 -9 449 -3T439 19Q436 36 436 53V84Q436 100 436 116T438 149Q439
172 440 197T441 253Q441 341 436 426T420 585Q417 606 396 610L371 613L373 604Q381 541 385 460T392 294T395 138Q395 96 395 61T392 2Q391 -11 390 -32T385 -75T371 -111T343 -126ZM321 335Q320 404 314 472T297 606Q297 609 296 610V614L295 615Q281 614 267
613T242 610Q212 605 181 598T128 571T107 510Q107 479 131 448T190 392T260 351T318 335H321Z" />
<glyph unicode="&#xb7;" glyph-name="middot" horiz-adv-x="308" d="M146 251Q123 251 112 266T100 300Q100 325 116 347T162 369Q185 369 196 355T208 320Q208 295 192 273T146 251Z" />
<glyph unicode="&#xb8;" glyph-name="cedilla" horiz-adv-x="277" d="M187 -225Q183 -225 171 -226T146 -227Q129 -227 121 -224Q111 -220 107 -213T102 -198Q102 -183 112 -176T135 -169Q140 -169 150 -171T184 -174Q235 -174 235 -135Q235 -116 220 -105T175
-94Q162 -94 152 -87T142 -67Q142 -62 144 -54Q156 -14 161 8Q163 19 172 25T190 31Q202 31 212 22T222 -4Q222 -6 222 -9T221 -14Q220 -20 220 -31T218 -47Q299 -47 299 -138Q299 -186 269 -205T187 -225Z" />
<glyph unicode="&#xb9;" glyph-name="uni00B9" horiz-adv-x="348" d="M73 318Q67 318 64 323T60 345Q60 359 87 364L113 367Q125 369 130 374T137 385Q141 441 145 489T150 557Q153 601 153 614T154 634Q139 634 134 634T125 631Q123 630 121 629T115 626Q105
621 100 621Q92 621 86 626T80 637Q80 652 97 667Q101 671 105 674T115 681Q120 684 124 687T132 694Q142 701 149 710L164 723Q170 729 182 732T201 735H205Q210 735 215 734T222 726Q223 723 223 720T224 713Q224 707 223 701T221 689Q218 659 214 621T206 548T201
489Q200 461 199 437T198 386Q223 386 238 389T268 392Q279 392 283 388T288 376Q288 350 266 347Q256 346 231 342T176 333T119 324T82 318H73Z" />
<glyph unicode="&#xba;" glyph-name="ordmasculine" horiz-adv-x="522" d="M249 274Q193 274 146 298T69 365T40 467Q40 507 56 540T99 605T154 665Q167 678 184 683T220 689Q291 689 350 669T446 603T482 483Q482 421 448 374T361 301T249 274ZM234 341Q278 341
320 357T390 408T418 495Q418 543 392 572T327 616T250 630Q238 630 224 628T197 614Q181 599 165 584T135 550Q122 531 113 509T104 461Q104 398 142 370T234 341Z" />
<glyph unicode="&#xbb;" glyph-name="guillemotright" horiz-adv-x="690" d="M386 112Q369 112 361 119T352 133Q352 138 354 144T359 154Q376 170 394 184T430 213Q450 229 470 247T517 293Q499 316 485 328T456 350Q442 361 427 371T397 392Q367 415 351 434T334
470Q334 475 334 478T333 486Q333 494 337 498H352Q380 498 399 482L564 333Q590 309 590 288Q590 271 578 257Q575 253 571 250T562 241Q557 237 551 232T540 221Q533 215 518 202T483 174T448 145T424 124Q403 112 386 112ZM409 110Q392 110 384 117T375 131Q375
136 377 142T382 152Q399 168 417 182T453 211Q473 227 493 245T540 291Q522 314 508 326T479 348Q465 359 450 369T420 390Q390 413 374 432T357 468Q357 473 357 476T356 484Q356 492 360 496H375Q403 496 422 480L587 331Q613 307 613 286Q613 269 601 255Q598
251 594 248T585 239Q580 235 574 230T563 219Q556 213 541 200T506 172T471 143T447 122Q426 110 409 110Z" />
<glyph unicode="&#xbc;" glyph-name="onequarter" horiz-adv-x="867" d="M160 -30Q148 -30 140 -18Q138 -16 137 -12T135 -3Q135 5 140 11Q152 29 175 63T228 142T291 238T359 342T426 444T485 535T531 606Q548 631 557 631Q564 631 569 623Q576 610 576 598Q576
587 571 577Q538 522 498 459T414 330T328 201T249 83T186 -14Q175 -30 160 -30ZM58 318Q52 318 49 323T45 345Q45 359 72 364L98 367Q110 369 115 374T122 385Q126 441 130 489T135 557Q138 601 138 614T139 634Q124 634 119 634T110 631Q108 630 106 629T100
626Q90 621 85 621Q77 621 71 626T65 637Q65 652 82 667Q86 671 90 674T100 681Q105 684 109 687T117 694Q127 701 134 710L149 723Q155 729 167 732T186 735H190Q195 735 200 734T207 726Q208 723 208 720T209 713Q209 707 208 701T206 689Q203 659 199 621T191
548T186 489Q185 461 184 437T183 386Q208 386 223 389T253 392Q264 392 268 388T273 376Q273 350 251 347Q241 346 216 342T161 333T104 324T67 318H58ZM724 -50Q709 -50 701 -26Q698 -12 698 1V28Q698 38 698 47T699 67Q700 78 700 89T701 113Q701 121 692 122H673Q662
122 650 122T626 121Q614 120 602 120T577 119H535Q515 121 507 129T497 149T495 169Q495 183 499 201T509 230L539 291Q546 307 553 322T568 353Q575 369 599 369Q607 369 613 362T619 345Q619 340 616 333T609 320Q605 312 604 309L583 266L574 246Q564 227 556
201T549 168Q583 168 607 170T649 173Q654 174 659 174T668 175Q710 179 713 189Q714 194 716 210T722 248Q724 259 726 271T730 296Q733 311 736 329T743 368Q746 388 772 388Q783 388 791 385T799 375Q799 362 794 349Q792 342 788 324T782 297L780 283Q779 278
778 261T770 197Q770 183 775 181Q779 179 786 179Q791 178 795 178T803 175Q818 170 818 153Q818 136 806 129T767 122Q760 118 760 108Q759 70 758 37T754 -20Q753 -38 747 -44T724 -50Z" />
<glyph unicode="&#xbd;" glyph-name="onehalf" horiz-adv-x="847" d="M156 -30Q144 -30 136 -18Q134 -16 133 -12T131 -3Q131 5 136 11Q148 29 171 63T224 142T287 238T355 342T422 444T481 535T527 606Q544 631 553 631Q560 631 565 623Q572 610 572 598Q572
587 567 577Q534 522 494 459T410 330T324 201T245 83T182 -14Q171 -30 156 -30ZM58 318Q52 318 49 323T45 345Q45 359 72 364L98 367Q110 369 115 374T122 385Q126 441 130 489T135 557Q138 601 138 614T139 634Q124 634 119 634T110 631Q108 630 106 629T100
626Q90 621 85 621Q77 621 71 626T65 637Q65 652 82 667Q86 671 90 674T100 681Q105 684 109 687T117 694Q127 701 134 710L149 723Q155 729 167 732T186 735H190Q195 735 200 734T207 726Q208 723 208 720T209 713Q209 707 208 701T206 689Q203 659 199 621T191
548T186 489Q185 461 184 437T183 386Q208 386 223 389T253 392Q264 392 268 388T273 376Q273 350 251 347Q241 346 216 342T161 333T104 324T67 318H58ZM530 -7Q514 -7 508 -2T502 20Q502 79 568 137Q575 142 594 156T631 183Q636 187 640 190T648 196Q653 200
656 202T661 206Q717 246 717 297Q717 323 699 341T657 359Q628 359 609 349T576 326Q570 320 567 318Q567 317 564 315Q564 314 564 314T563 314Q544 296 524 296Q517 296 513 302T509 317Q509 337 525 354T565 383T615 403T660 410Q709 410 742 377T775 294Q775
263 757 230T707 174L592 89L556 53H585Q596 53 607 54T628 57Q631 57 634 57T641 58Q655 60 669 61T699 63Q704 63 711 63T727 62Q745 62 761 59Q797 52 797 29Q797 6 770 6Q750 6 732 9Q728 9 725 9T718 10Q711 11 704 11T689 12H662L545 -7H530Z" />
<glyph unicode="&#xbe;" glyph-name="threequarters" horiz-adv-x="920" d="M238 -30Q226 -30 218 -18Q216 -16 215 -12T213 -3Q213 5 218 11Q230 29 253 63T306 142T369 238T437 342T504 444T563 535T609 606Q626 631 635 631Q642 631 647 623Q654 610 654 598Q654
587 649 577Q616 522 576 459T492 330T406 201T327 83T264 -14Q253 -30 238 -30ZM777 -58Q762 -58 754 -34Q751 -20 751 -7V20Q751 30 751 39T752 59Q753 70 753 81T754 105Q754 113 745 114H726Q715 114 703 114T679 113Q667 112 655 112T630 111H588Q568 113
560 121T550 141T548 161Q548 175 552 193T562 222L592 283Q599 299 606 314T621 345Q628 361 652 361Q660 361 666 354T672 337Q672 332 669 325T662 312Q658 304 657 301L636 258L627 238Q617 219 609 193T602 160Q636 160 660 162T702 165Q707 166 712 166T721
167Q763 171 766 181Q767 186 769 202T775 240Q777 251 779 263T783 288Q786 303 789 321T796 360Q799 380 825 380Q836 380 844 377T852 367Q852 354 847 341Q845 334 841 316T835 289L833 275Q832 270 831 253T823 189Q823 175 828 173Q832 171 839 171Q844 170
848 170T856 167Q871 162 871 145Q871 128 859 121T820 114Q813 110 813 100Q812 62 811 29T807 -28Q806 -46 800 -52T777 -58ZM165 275Q153 275 133 278T93 289T59 307T45 334Q45 342 51 347T68 353Q75 353 82 350Q82 350 86 348Q88 346 92 346L101 340Q112 335
124 330T153 324Q179 324 209 332T260 357T281 403Q281 433 258 450T204 474T149 484H147Q140 490 140 502Q140 516 164 523Q173 526 181 526Q183 526 185 526T190 528Q201 530 211 533Q231 541 251 558T272 595Q272 624 250 636T205 649Q185 649 170 642T142 626Q141
626 141 626T139 625Q138 625 137 624Q133 621 129 618T120 612Q116 611 111 610T101 608Q91 608 85 612T78 623Q78 641 94 654T132 677T177 690T211 695Q257 695 288 668T320 603Q320 577 309 557T277 514V502Q305 480 320 458T335 406Q335 366 309 337T244 291T165
275Z" />
<glyph unicode="&#xbf;" glyph-name="questiondown" horiz-adv-x="475" d="M327 422Q304 422 293 437T282 471Q282 495 298 517T345 539Q368 539 379 525T390 491Q390 466 374 444T327 422ZM230 -263Q172 -263 130 -235T65 -159T42 -55Q42 10 69 67T154 163Q180
182 208 197T255 240Q265 251 271 267T284 298T302 324T332 335Q351 335 356 323T362 294Q362 246 345 215T299 161T240 119T181 77T136 22T118 -61Q118 -113 150 -150T235 -188Q265 -188 287 -177T326 -150T360 -123T398 -111Q413 -111 418 -118T423 -141Q423
-175 404 -198T355 -236T292 -257T230 -263Z" />
<glyph unicode="&#xc0;" glyph-name="Agrave" horiz-adv-x="718" d="M146 10Q136 10 127 16T114 29V57Q114 78 120 99T131 141Q133 149 134 159T135 194H79Q72 195 65 196T53 198Q46 201 41 207T35 231Q35 251 44 258T75 269Q86 271 98 272T122 275Q134 277 147
281T171 294Q176 298 182 305T189 312Q191 314 193 318T198 330Q200 334 202 339T205 350Q208 358 210 365T216 377Q223 390 237 418T267 480T297 541T317 578Q327 595 337 612T361 644Q389 678 410 678Q429 678 443 669T469 642Q481 624 489 605T507 565Q559 452
599 330T664 87V73Q664 56 654 44T637 31Q613 31 602 48T583 99Q579 116 577 132T571 164Q567 178 559 194T542 221H431Q415 221 395 221T353 222Q331 222 308 220T265 209Q239 199 226 178T206 132T194 82Q189 55 182 33T146 10ZM404 294Q460 294 482 295T511
305Q514 313 514 323Q514 337 510 354T499 386Q495 396 487 416T469 462T450 510T436 546Q434 553 428 560T412 568Q404 568 396 558Q387 546 372 517T338 453T305 386T283 335Q277 322 277 314Q277 301 287 298T309 294H404ZM504 771Q491 771 475 780T451 795Q449
797 443 799T428 806Q421 810 413 814T395 822Q373 830 354 837T331 847L318 855Q316 857 314 858T310 861Q306 866 304 870Q303 878 314 890T338 903Q344 904 346 904T353 903Q357 902 373 895T405 881T426 869Q432 865 439 862T454 853Q465 847 480 838T507 817T520
794V788Q520 771 504 771Z" />
<glyph unicode="&#xc1;" glyph-name="Aacute" horiz-adv-x="718" d="M146 10Q136 10 127 16T114 29V57Q114 78 120 99T131 141Q133 149 134 159T135 194H79Q72 195 65 196T53 198Q46 201 41 207T35 231Q35 251 44 258T75 269Q86 271 98 272T122 275Q134 277 147
281T171 294Q176 298 182 305T189 312Q191 314 193 318T198 330Q200 334 202 339T205 350Q208 358 210 365T216 377Q223 390 237 418T267 480T297 541T317 578Q327 595 337 612T361 644Q389 678 410 678Q429 678 443 669T469 642Q481 624 489 605T507 565Q559 452
599 330T664 87V73Q664 56 654 44T637 31Q613 31 602 48T583 99Q579 116 577 132T571 164Q567 178 559 194T542 221H431Q415 221 395 221T353 222Q331 222 308 220T265 209Q239 199 226 178T206 132T194 82Q189 55 182 33T146 10ZM404 294Q460 294 482 295T511
305Q514 313 514 323Q514 337 510 354T499 386Q495 396 487 416T469 462T450 510T436 546Q434 553 428 560T412 568Q404 568 396 558Q387 546 372 517T338 453T305 386T283 335Q277 322 277 314Q277 301 287 298T309 294H404ZM359 770Q351 770 347 775T343 793Q345
805 357 816T384 836T409 852Q417 857 424 860T437 868Q442 872 458 879T490 894T510 902Q513 903 516 903Q520 903 525 902Q537 901 548 889T559 869Q558 865 553 860Q551 859 550 858T545 854L532 846Q528 844 510 837T468 821Q458 818 450 814T435 805Q427 801
421 799T412 794Q405 789 389 780T359 770Z" />
<glyph unicode="&#xc2;" glyph-name="Acircumflex" horiz-adv-x="718" d="M146 10Q136 10 127 16T114 29V57Q114 78 120 99T131 141Q133 149 134 159T135 194H79Q72 195 65 196T53 198Q46 201 41 207T35 231Q35 251 44 258T75 269Q86 271 98 272T122 275Q134 277
147 281T171 294Q176 298 182 305T189 312Q191 314 193 318T198 330Q200 334 202 339T205 350Q208 358 210 365T216 377Q223 390 237 418T267 480T297 541T317 578Q327 595 337 612T361 644Q389 678 410 678Q429 678 443 669T469 642Q481 624 489 605T507 565Q559
452 599 330T664 87V73Q664 56 654 44T637 31Q613 31 602 48T583 99Q579 116 577 132T571 164Q567 178 559 194T542 221H431Q415 221 395 221T353 222Q331 222 308 220T265 209Q239 199 226 178T206 132T194 82Q189 55 182 33T146 10ZM404 294Q460 294 482 295T511
305Q514 313 514 323Q514 337 510 354T499 386Q495 396 487 416T469 462T450 510T436 546Q434 553 428 560T412 568Q404 568 396 558Q387 546 372 517T338 453T305 386T283 335Q277 322 277 314Q277 301 287 298T309 294H404ZM273 751Q258 751 258 775Q258 787
272 806T308 845T352 883T389 908Q397 914 414 914Q429 914 439 908Q458 897 480 880T523 843T557 805T571 775Q571 754 553 754Q543 754 532 760T515 770Q508 776 493 788T462 813T432 836T412 848Q404 845 385 831T347 801T319 777Q312 770 298 761T273 751Z"
/>
<glyph unicode="&#xc3;" glyph-name="Atilde" horiz-adv-x="718" d="M146 10Q136 10 127 16T114 29V57Q114 78 120 99T131 141Q133 149 134 159T135 194H79Q72 195 65 196T53 198Q46 201 41 207T35 231Q35 251 44 258T75 269Q86 271 98 272T122 275Q134 277 147
281T171 294Q176 298 182 305T189 312Q191 314 193 318T198 330Q200 334 202 339T205 350Q208 358 210 365T216 377Q223 390 237 418T267 480T297 541T317 578Q327 595 337 612T361 644Q389 678 410 678Q429 678 443 669T469 642Q481 624 489 605T507 565Q559 452
599 330T664 87V73Q664 56 654 44T637 31Q613 31 602 48T583 99Q579 116 577 132T571 164Q567 178 559 194T542 221H431Q415 221 395 221T353 222Q331 222 308 220T265 209Q239 199 226 178T206 132T194 82Q189 55 182 33T146 10ZM404 294Q460 294 482 295T511
305Q514 313 514 323Q514 337 510 354T499 386Q495 396 487 416T469 462T450 510T436 546Q434 553 428 560T412 568Q404 568 396 558Q387 546 372 517T338 453T305 386T283 335Q277 322 277 314Q277 301 287 298T309 294H404ZM284 765Q269 765 263 774T257 793Q257
802 263 816T279 844T298 866Q311 877 323 883T351 889Q375 889 398 875T442 847T480 833Q495 833 503 840T521 858Q527 864 534 870T550 876Q559 876 565 871T572 853Q572 838 561 819T531 785T487 770Q455 770 437 778T407 796T384 815T355 823Q339 823 331 814T312
789Q308 785 305 780T296 770Q288 765 284 765Z" />
<glyph unicode="&#xc4;" glyph-name="Adieresis" horiz-adv-x="718" d="M146 10Q136 10 127 16T114 29V57Q114 78 120 99T131 141Q133 149 134 159T135 194H79Q72 195 65 196T53 198Q46 201 41 207T35 231Q35 251 44 258T75 269Q86 271 98 272T122 275Q134 277
147 281T171 294Q176 298 182 305T189 312Q191 314 193 318T198 330Q200 334 202 339T205 350Q208 358 210 365T216 377Q223 390 237 418T267 480T297 541T317 578Q327 595 337 612T361 644Q389 678 410 678Q429 678 443 669T469 642Q481 624 489 605T507 565Q559
452 599 330T664 87V73Q664 56 654 44T637 31Q613 31 602 48T583 99Q579 116 577 132T571 164Q567 178 559 194T542 221H431Q415 221 395 221T353 222Q331 222 308 220T265 209Q239 199 226 178T206 132T194 82Q189 55 182 33T146 10ZM404 294Q460 294 482 295T511
305Q514 313 514 323Q514 337 510 354T499 386Q495 396 487 416T469 462T450 510T436 546Q434 553 428 560T412 568Q404 568 396 558Q387 546 372 517T338 453T305 386T283 335Q277 322 277 314Q277 301 287 298T309 294H404ZM520 770Q497 770 486 784T475 817Q475
840 491 861T538 882Q561 882 571 868T582 836Q582 813 566 792T520 770ZM327 770Q304 770 293 784T282 817Q282 840 298 861T345 882Q368 882 378 868T389 836Q389 813 373 792T327 770Z" />
<glyph unicode="&#xc5;" glyph-name="Aring" horiz-adv-x="718" d="M146 10Q136 10 127 16T114 29V57Q114 78 120 99T131 141Q133 149 134 159T135 194H79Q72 195 65 196T53 198Q46 201 41 207T35 231Q35 251 44 258T75 269Q86 271 98 272T122 275Q134 277 147
281T171 294Q176 298 182 305T189 312Q191 314 193 318T198 330Q200 334 202 339T205 350Q208 358 210 365T216 377Q223 390 237 418T267 480T297 541T317 578Q327 595 337 612T361 644Q389 678 410 678Q429 678 443 669T469 642Q481 624 489 605T507 565Q559 452
599 330T664 87V73Q664 56 654 44T637 31Q613 31 602 48T583 99Q579 116 577 132T571 164Q567 178 559 194T542 221H431Q415 221 395 221T353 222Q331 222 308 220T265 209Q239 199 226 178T206 132T194 82Q189 55 182 33T146 10ZM404 294Q460 294 482 295T511
305Q514 313 514 323Q514 337 510 354T499 386Q495 396 487 416T469 462T450 510T436 546Q434 553 428 560T412 568Q404 568 396 558Q387 546 372 517T338 453T305 386T283 335Q277 322 277 314Q277 301 287 298T309 294H404ZM413 764Q393 764 368 774T324 807T306
867Q306 914 339 943T421 973Q464 973 494 944T524 867Q524 828 498 796T413 764ZM418 823Q443 823 453 836T464 871Q464 892 452 903T418 914Q391 914 378 902T365 867Q365 846 380 835T418 823Z" />
<glyph unicode="&#xc6;" glyph-name="AE" horiz-adv-x="961" d="M146 10Q136 10 127 16T114 29V57Q114 78 120 99T131 141Q133 149 134 159T135 194H79Q72 195 65 196T53 198Q46 201 41 207T35 231Q35 251 44 258T75 269Q86 271 98 272T122 275Q134 277 147 281T171
294Q176 298 182 305T189 312Q191 314 193 318T198 330Q200 334 202 339T205 350Q208 358 210 365T216 377Q223 390 237 418T267 480T297 541T317 578Q327 595 337 612T361 644Q389 678 410 678Q415 678 421 678T435 679Q451 679 467 673T495 641Q497 637 500 633T505
625Q506 628 506 630T506 634V639Q506 644 508 647T523 653Q587 664 646 671T769 678Q783 678 807 678T855 675T897 661T914 631Q914 620 908 613T893 604L649 602Q620 602 605 586T586 544T581 487Q581 465 582 442T583 399Q633 399 676 402T747 405H787Q827 392
827 358Q827 334 789 331L620 320Q601 319 594 310T585 288T582 264Q581 256 581 248T581 232Q582 225 582 220T582 210Q582 187 582 162T594 116T636 89H687Q714 89 741 93T794 102Q820 107 844 111T893 115Q913 115 919 111T925 84Q925 39 834 21Q813 17 791
15T749 11Q729 10 712 10T682 10Q624 10 589 20T534 53T508 118T501 221H431Q415 221 395 221T353 222Q341 222 326 223T296 224Q283 224 272 223T251 218Q225 208 219 186T204 129Q201 116 197 96T187 56T170 23T146 10ZM368 297Q395 297 425 298T499 302V344Q499
392 497 440T483 540Q476 572 464 584T437 597Q423 597 410 587Q385 555 363 518T324 445T295 383T278 342V332Q278 297 305 297H368Z" />
<glyph unicode="&#xc7;" glyph-name="Ccedilla" horiz-adv-x="678" d="M342 -25Q258 -25 192 12T88 116T50 268Q50 322 66 380T113 493T186 592T281 662T391 688Q436 688 478 671T548 620T576 541Q576 519 568 512T550 505Q534 505 524 517T505 551Q497 567 485
582T453 609T401 620Q337 620 287 589T201 509T148 403T130 295Q130 256 142 213T179 133T240 72T326 48Q383 48 423 62T493 98T550 144Q570 163 593 163Q608 163 618 154T629 127Q629 115 613 96Q606 87 597 80T579 64Q528 21 469 -2T342 -25ZM297 16Q293 16 281
15T256 14Q239 14 231 17Q221 21 217 28T212 43Q212 58 222 65T245 72Q250 72 260 70T294 67Q345 67 345 106Q345 125 330 136T285 147Q272 147 262 154T252 174Q252 179 254 187Q266 227 271 249Q273 260 282 266T300 272Q312 272 322 263T332 237Q332 235 332
232T331 227Q330 221 330 210T328 194Q409 194 409 103Q409 55 379 36T297 16Z" />
<glyph unicode="&#xc8;" glyph-name="Egrave" horiz-adv-x="574" d="M272 10Q198 10 156 36T98 113T81 241Q81 276 84 316Q45 331 45 353Q45 372 57 380T86 394T114 406Q116 418 120 442T128 494T137 543T142 570Q131 576 113 577T80 585T66 610Q66 630 77 639T113
653Q177 664 236 671T359 678Q373 678 397 678T445 675T487 661T504 631Q504 620 498 612T483 604H333Q329 604 311 604T272 601T237 593Q222 587 213 556T200 483T196 399Q209 400 235 401T289 404T337 405H377Q400 405 408 395T417 368Q417 334 379 331L210 320Q182
319 173 311T160 279Q158 260 158 250T157 232Q158 225 158 220T158 210Q158 187 162 162T180 116T226 89H277Q327 89 383 97T483 115Q485 116 488 116T492 116Q506 116 510 106T515 84Q515 39 424 21Q392 14 351 12T272 10ZM376 771Q363 771 347 780T323 795Q321
797 315 799T300 806Q293 810 285 814T267 822Q245 830 226 837T203 847L190 855Q188 857 186 858T182 861Q178 866 176 870Q175 878 186 890T210 903Q216 904 218 904T225 903Q229 902 245 895T277 881T298 869Q304 865 311 862T326 853Q337 847 352 838T379 817T392
794V788Q392 771 376 771Z" />
<glyph unicode="&#xc9;" glyph-name="Eacute" horiz-adv-x="574" d="M272 10Q198 10 156 36T98 113T81 241Q81 276 84 316Q45 331 45 353Q45 372 57 380T86 394T114 406Q116 418 120 442T128 494T137 543T142 570Q131 576 113 577T80 585T66 610Q66 630 77 639T113
653Q177 664 236 671T359 678Q373 678 397 678T445 675T487 661T504 631Q504 620 498 612T483 604H333Q329 604 311 604T272 601T237 593Q222 587 213 556T200 483T196 399Q209 400 235 401T289 404T337 405H377Q400 405 408 395T417 368Q417 334 379 331L210 320Q182
319 173 311T160 279Q158 260 158 250T157 232Q158 225 158 220T158 210Q158 187 162 162T180 116T226 89H277Q327 89 383 97T483 115Q485 116 488 116T492 116Q506 116 510 106T515 84Q515 39 424 21Q392 14 351 12T272 10ZM231 770Q223 770 219 775T215 793Q217
805 229 816T256 836T281 852Q289 857 296 860T309 868Q314 872 330 879T362 894T382 902Q385 903 388 903Q392 903 397 902Q409 901 420 889T431 869Q430 865 425 860Q423 859 422 858T417 854L404 846Q400 844 382 837T340 821Q330 818 322 814T307 805Q299 801
293 799T284 794Q277 789 261 780T231 770Z" />
<glyph unicode="&#xca;" glyph-name="Ecircumflex" horiz-adv-x="574" d="M272 10Q198 10 156 36T98 113T81 241Q81 276 84 316Q45 331 45 353Q45 372 57 380T86 394T114 406Q116 418 120 442T128 494T137 543T142 570Q131 576 113 577T80 585T66 610Q66 630 77
639T113 653Q177 664 236 671T359 678Q373 678 397 678T445 675T487 661T504 631Q504 620 498 612T483 604H333Q329 604 311 604T272 601T237 593Q222 587 213 556T200 483T196 399Q209 400 235 401T289 404T337 405H377Q400 405 408 395T417 368Q417 334 379 331L210
320Q182 319 173 311T160 279Q158 260 158 250T157 232Q158 225 158 220T158 210Q158 187 162 162T180 116T226 89H277Q327 89 383 97T483 115Q485 116 488 116T492 116Q506 116 510 106T515 84Q515 39 424 21Q392 14 351 12T272 10ZM145 751Q130 751 130 775Q130
787 144 806T180 845T224 883T261 908Q269 914 286 914Q301 914 311 908Q330 897 352 880T395 843T429 805T443 775Q443 754 425 754Q415 754 404 760T387 770Q380 776 365 788T334 813T304 836T284 848Q276 845 257 831T219 801T191 777Q184 770 170 761T145 751Z"
/>
<glyph unicode="&#xcb;" glyph-name="Edieresis" horiz-adv-x="574" d="M272 10Q198 10 156 36T98 113T81 241Q81 276 84 316Q45 331 45 353Q45 372 57 380T86 394T114 406Q116 418 120 442T128 494T137 543T142 570Q131 576 113 577T80 585T66 610Q66 630 77
639T113 653Q177 664 236 671T359 678Q373 678 397 678T445 675T487 661T504 631Q504 620 498 612T483 604H333Q329 604 311 604T272 601T237 593Q222 587 213 556T200 483T196 399Q209 400 235 401T289 404T337 405H377Q400 405 408 395T417 368Q417 334 379 331L210
320Q182 319 173 311T160 279Q158 260 158 250T157 232Q158 225 158 220T158 210Q158 187 162 162T180 116T226 89H277Q327 89 383 97T483 115Q485 116 488 116T492 116Q506 116 510 106T515 84Q515 39 424 21Q392 14 351 12T272 10ZM392 770Q369 770 358 784T347
817Q347 840 363 861T410 882Q433 882 443 868T454 836Q454 813 438 792T392 770ZM199 770Q176 770 165 784T154 817Q154 840 170 861T217 882Q240 882 250 868T261 836Q261 813 245 792T199 770Z" />
<glyph unicode="&#xcc;" glyph-name="Igrave" horiz-adv-x="386" d="M79 5Q61 5 56 9T50 31Q50 49 57 55T74 66Q83 70 91 74T106 85Q124 101 124 128Q124 142 124 164T123 213Q123 254 123 298T126 382T131 443Q134 469 136 495T142 548V581Q132 592 125 597T112
607L93 619Q86 623 83 627T79 642Q79 662 101 662Q118 662 132 660T160 657H171Q176 657 196 659T238 665Q258 668 276 670T298 673H304Q320 673 326 668T332 647Q332 631 327 626T311 619Q303 617 294 615T277 611Q267 608 257 602T236 582Q229 544 223 507T211
431Q199 328 199 221Q199 202 199 188T201 158T205 117Q211 96 241 90Q248 89 256 88T274 84Q289 81 296 76T303 57Q303 47 296 41T269 29Q260 27 250 26T230 24L192 21Q189 20 184 20T172 18Q166 17 159 16T143 12Q130 10 118 8T101 5H79ZM282 771Q269 771 253
780T229 795Q227 797 221 799T206 806Q199 810 191 814T173 822Q151 830 132 837T109 847L96 855Q94 857 92 858T88 861Q84 866 82 870Q81 878 92 890T116 903Q122 904 124 904T131 903Q135 902 151 895T183 881T204 869Q210 865 217 862T232 853Q243 847 258 838T285
817T298 794V788Q298 771 282 771Z" />
<glyph unicode="&#xcd;" glyph-name="Iacute" horiz-adv-x="386" d="M79 5Q61 5 56 9T50 31Q50 49 57 55T74 66Q83 70 91 74T106 85Q124 101 124 128Q124 142 124 164T123 213Q123 254 123 298T126 382T131 443Q134 469 136 495T142 548V581Q132 592 125 597T112
607L93 619Q86 623 83 627T79 642Q79 662 101 662Q118 662 132 660T160 657H171Q176 657 196 659T238 665Q258 668 276 670T298 673H304Q320 673 326 668T332 647Q332 631 327 626T311 619Q303 617 294 615T277 611Q267 608 257 602T236 582Q229 544 223 507T211
431Q199 328 199 221Q199 202 199 188T201 158T205 117Q211 96 241 90Q248 89 256 88T274 84Q289 81 296 76T303 57Q303 47 296 41T269 29Q260 27 250 26T230 24L192 21Q189 20 184 20T172 18Q166 17 159 16T143 12Q130 10 118 8T101 5H79ZM137 770Q129 770 125
775T121 793Q123 805 135 816T162 836T187 852Q195 857 202 860T215 868Q220 872 236 879T268 894T288 902Q291 903 294 903Q298 903 303 902Q315 901 326 889T337 869Q336 865 331 860Q329 859 328 858T323 854L310 846Q306 844 288 837T246 821Q236 818 228 814T213
805Q205 801 199 799T190 794Q183 789 167 780T137 770Z" />
<glyph unicode="&#xce;" glyph-name="Icircumflex" horiz-adv-x="386" d="M79 5Q61 5 56 9T50 31Q50 49 57 55T74 66Q83 70 91 74T106 85Q124 101 124 128Q124 142 124 164T123 213Q123 254 123 298T126 382T131 443Q134 469 136 495T142 548V581Q132 592 125
597T112 607L93 619Q86 623 83 627T79 642Q79 662 101 662Q118 662 132 660T160 657H171Q176 657 196 659T238 665Q258 668 276 670T298 673H304Q320 673 326 668T332 647Q332 631 327 626T311 619Q303 617 294 615T277 611Q267 608 257 602T236 582Q229 544 223
507T211 431Q199 328 199 221Q199 202 199 188T201 158T205 117Q211 96 241 90Q248 89 256 88T274 84Q289 81 296 76T303 57Q303 47 296 41T269 29Q260 27 250 26T230 24L192 21Q189 20 184 20T172 18Q166 17 159 16T143 12Q130 10 118 8T101 5H79ZM51 751Q36 751
36 775Q36 787 50 806T86 845T130 883T167 908Q175 914 192 914Q207 914 217 908Q236 897 258 880T301 843T335 805T349 775Q349 754 331 754Q321 754 310 760T293 770Q286 776 271 788T240 813T210 836T190 848Q182 845 163 831T125 801T97 777Q90 770 76 761T51
751Z" />
<glyph unicode="&#xcf;" glyph-name="Idieresis" horiz-adv-x="386" d="M79 5Q61 5 56 9T50 31Q50 49 57 55T74 66Q83 70 91 74T106 85Q124 101 124 128Q124 142 124 164T123 213Q123 254 123 298T126 382T131 443Q134 469 136 495T142 548V581Q132 592 125 597T112
607L93 619Q86 623 83 627T79 642Q79 662 101 662Q118 662 132 660T160 657H171Q176 657 196 659T238 665Q258 668 276 670T298 673H304Q320 673 326 668T332 647Q332 631 327 626T311 619Q303 617 294 615T277 611Q267 608 257 602T236 582Q229 544 223 507T211
431Q199 328 199 221Q199 202 199 188T201 158T205 117Q211 96 241 90Q248 89 256 88T274 84Q289 81 296 76T303 57Q303 47 296 41T269 29Q260 27 250 26T230 24L192 21Q189 20 184 20T172 18Q166 17 159 16T143 12Q130 10 118 8T101 5H79ZM298 770Q275 770 264
784T253 817Q253 840 269 861T316 882Q339 882 349 868T360 836Q360 813 344 792T298 770ZM105 770Q82 770 71 784T60 817Q60 840 76 861T123 882Q146 882 156 868T167 836Q167 813 151 792T105 770Z" />
<glyph unicode="&#xd0;" glyph-name="Eth" horiz-adv-x="762" d="M308 -15Q291 -15 263 -14T210 -6T177 21Q177 37 178 79T179 179T181 305T182 436Q182 468 176 500T160 558T134 590Q122 584 111 582T88 579Q72 579 61 586T50 609Q50 636 71 653T123 679T185
692T235 698Q249 698 273 699T317 702T339 703Q410 701 476 678T596 614T681 514T713 383Q713 305 679 234T587 106T457 18T308 -15ZM302 69Q361 69 421 96T532 169T614 273T645 394Q645 447 617 490T541 563T435 610T314 626Q307 626 299 626T282 625Q243 623
234 594Q251 516 256 444T261 294Q261 251 259 207T256 116V86Q267 76 278 73T302 69ZM98 222Q82 222 76 228T70 248Q70 279 86 281Q135 286 170 288T234 292T293 295T360 297Q370 297 379 285T388 254Q388 248 383 238T371 229Q323 231 260 227T98 222Z" />
<glyph unicode="&#xd1;" glyph-name="Ntilde" horiz-adv-x="703" d="M86 5Q61 5 58 23T54 63V79L56 93Q57 99 59 107T62 122Q64 137 66 150T70 171Q72 186 75 219T82 290T88 361T91 405Q91 411 92 435T94 489T96 543T97 573Q97 588 99 606T110 639T139 653Q153
653 168 636T191 607Q195 600 198 595T205 584Q237 532 274 475T347 360Q364 332 390 295T444 221T493 158Q511 135 523 135Q534 135 540 162Q554 234 563 324T572 500Q572 537 570 570T564 632Q562 649 573 658T601 668Q620 668 627 663T638 646Q644 619 646 580T648
506Q648 369 639 266T604 105T527 47Q499 47 472 66T422 114T380 169Q324 253 289 308T232 397T199 446T183 468T171 473Q171 457 170 424T165 346T158 256T149 169T139 99Q136 84 131 62T116 22T86 5ZM245 765Q230 765 224 774T218 793Q218 802 224 816T240 844T259
866Q272 877 284 883T312 889Q336 889 359 875T403 847T441 833Q456 833 464 840T482 858Q488 864 495 870T511 876Q520 876 526 871T533 853Q533 838 522 819T492 785T448 770Q416 770 398 778T368 796T345 815T316 823Q300 823 292 814T273 789Q269 785 266 780T257
770Q249 765 245 765Z" />
<glyph unicode="&#xd2;" glyph-name="Ograve" horiz-adv-x="698" d="M326 0Q264 0 214 26T127 97T70 198T50 315Q50 446 111 530T292 663Q324 675 362 686T431 698Q461 698 485 690T526 664Q537 652 541 640T545 615Q553 608 562 595T580 569Q617 518 630 465T644
347Q644 279 621 217T556 106T455 29T326 0ZM336 73Q395 73 438 100T509 171T550 265T564 362Q564 383 558 415T540 481T508 546T463 595T405 614Q342 614 291 589T204 521T148 425T129 315Q129 272 141 229T178 151T242 95T336 73ZM470 771Q457 771 441 780T417
795Q415 797 409 799T394 806Q387 810 379 814T361 822Q339 830 320 837T297 847L284 855Q282 857 280 858T276 861Q272 866 270 870Q269 878 280 890T304 903Q310 904 312 904T319 903Q323 902 339 895T371 881T392 869Q398 865 405 862T420 853Q431 847 446 838T473
817T486 794V788Q486 771 470 771Z" />
<glyph unicode="&#xd3;" glyph-name="Oacute" horiz-adv-x="698" d="M326 0Q264 0 214 26T127 97T70 198T50 315Q50 446 111 530T292 663Q324 675 362 686T431 698Q461 698 485 690T526 664Q537 652 541 640T545 615Q553 608 562 595T580 569Q617 518 630 465T644
347Q644 279 621 217T556 106T455 29T326 0ZM336 73Q395 73 438 100T509 171T550 265T564 362Q564 383 558 415T540 481T508 546T463 595T405 614Q342 614 291 589T204 521T148 425T129 315Q129 272 141 229T178 151T242 95T336 73ZM325 770Q317 770 313 775T309
793Q311 805 323 816T350 836T375 852Q383 857 390 860T403 868Q408 872 424 879T456 894T476 902Q479 903 482 903Q486 903 491 902Q503 901 514 889T525 869Q524 865 519 860Q517 859 516 858T511 854L498 846Q494 844 476 837T434 821Q424 818 416 814T401 805Q393
801 387 799T378 794Q371 789 355 780T325 770Z" />
<glyph unicode="&#xd4;" glyph-name="Ocircumflex" horiz-adv-x="698" d="M326 0Q264 0 214 26T127 97T70 198T50 315Q50 446 111 530T292 663Q324 675 362 686T431 698Q461 698 485 690T526 664Q537 652 541 640T545 615Q553 608 562 595T580 569Q617 518 630
465T644 347Q644 279 621 217T556 106T455 29T326 0ZM336 73Q395 73 438 100T509 171T550 265T564 362Q564 383 558 415T540 481T508 546T463 595T405 614Q342 614 291 589T204 521T148 425T129 315Q129 272 141 229T178 151T242 95T336 73ZM239 751Q224 751 224
775Q224 787 238 806T274 845T318 883T355 908Q363 914 380 914Q395 914 405 908Q424 897 446 880T489 843T523 805T537 775Q537 754 519 754Q509 754 498 760T481 770Q474 776 459 788T428 813T398 836T378 848Q370 845 351 831T313 801T285 777Q278 770 264 761T239
751Z" />
<glyph unicode="&#xd5;" glyph-name="Otilde" horiz-adv-x="698" d="M326 0Q264 0 214 26T127 97T70 198T50 315Q50 446 111 530T292 663Q324 675 362 686T431 698Q461 698 485 690T526 664Q537 652 541 640T545 615Q553 608 562 595T580 569Q617 518 630 465T644
347Q644 279 621 217T556 106T455 29T326 0ZM336 73Q395 73 438 100T509 171T550 265T564 362Q564 383 558 415T540 481T508 546T463 595T405 614Q342 614 291 589T204 521T148 425T129 315Q129 272 141 229T178 151T242 95T336 73ZM250 765Q235 765 229 774T223
793Q223 802 229 816T245 844T264 866Q277 877 289 883T317 889Q341 889 364 875T408 847T446 833Q461 833 469 840T487 858Q493 864 500 870T516 876Q525 876 531 871T538 853Q538 838 527 819T497 785T453 770Q421 770 403 778T373 796T350 815T321 823Q305 823
297 814T278 789Q274 785 271 780T262 770Q254 765 250 765Z" />
<glyph unicode="&#xd6;" glyph-name="Odieresis" horiz-adv-x="698" d="M326 0Q264 0 214 26T127 97T70 198T50 315Q50 446 111 530T292 663Q324 675 362 686T431 698Q461 698 485 690T526 664Q537 652 541 640T545 615Q553 608 562 595T580 569Q617 518 630 465T644
347Q644 279 621 217T556 106T455 29T326 0ZM336 73Q395 73 438 100T509 171T550 265T564 362Q564 383 558 415T540 481T508 546T463 595T405 614Q342 614 291 589T204 521T148 425T129 315Q129 272 141 229T178 151T242 95T336 73ZM486 770Q463 770 452 784T441
817Q441 840 457 861T504 882Q527 882 537 868T548 836Q548 813 532 792T486 770ZM293 770Q270 770 259 784T248 817Q248 840 264 861T311 882Q334 882 344 868T355 836Q355 813 339 792T293 770Z" />
<glyph unicode="&#xd7;" glyph-name="multiply" horiz-adv-x="738" d="M199 135Q179 114 167 112T144 121Q119 147 137 169Q192 234 233 280T308 365T378 441T458 528Q470 540 491 541T527 527Q532 522 533 508T526 485Q466 426 393 343T199 135ZM489 135Q369
259 296 342T162 485Q153 493 154 507T161 527Q176 543 197 542T230 528Q274 479 309 441T379 365T455 281T551 169Q569 147 544 121Q533 109 521 111T489 135Z" />
<glyph unicode="&#xd8;" glyph-name="Oslash" horiz-adv-x="698" d="M72 -45Q55 -45 44 -30Q42 -27 40 -22T37 -11Q37 -2 44 6Q62 28 94 70T168 168T257 287T353 416T448 542T532 655T597 743Q620 774 634 774Q642 774 649 764Q660 748 660 733Q660 719 652 707Q606
640 549 562T431 402T310 242T198 95T108 -25Q94 -45 72 -45ZM326 0Q264 0 214 26T127 97T70 198T50 315Q50 446 111 530T292 663Q324 675 362 686T431 698Q461 698 485 690T526 664Q537 652 541 640T545 615Q553 608 562 595T580 569Q617 518 630 465T644 347Q644
279 621 217T556 106T455 29T326 0ZM336 73Q395 73 438 100T509 171T550 265T564 362Q564 383 558 415T540 481T508 546T463 595T405 614Q342 614 291 589T204 521T148 425T129 315Q129 272 141 229T178 151T242 95T336 73Z" />
<glyph unicode="&#xd9;" glyph-name="Ugrave" horiz-adv-x="688" d="M202 50Q162 50 134 78T87 155T61 261T52 377Q52 469 69 537Q71 546 75 565T86 605T100 644T114 665Q122 670 130 672T145 675Q155 675 164 669Q170 665 173 660T176 644Q176 635 173 620Q168
595 161 564T147 500Q141 467 138 431T135 359Q135 299 144 247T171 162T218 129Q228 129 247 137T284 157T312 175Q367 221 404 266T468 364T515 481T560 629Q568 646 585 646Q597 646 607 637T615 611Q611 556 608 505T605 403Q605 354 608 306T618 208Q623 175
625 159T627 137T628 124Q628 108 618 98T592 87Q570 87 559 104T543 154Q541 165 538 192T531 257T528 330Q484 246 363 125Q331 91 292 71T202 50ZM458 771Q445 771 429 780T405 795Q403 797 397 799T382 806Q375 810 367 814T349 822Q327 830 308 837T285 847L272
855Q270 857 268 858T264 861Q260 866 258 870Q257 878 268 890T292 903Q298 904 300 904T307 903Q311 902 327 895T359 881T380 869Q386 865 393 862T408 853Q419 847 434 838T461 817T474 794V788Q474 771 458 771Z" />
<glyph unicode="&#xda;" glyph-name="Uacute" horiz-adv-x="688" d="M202 50Q162 50 134 78T87 155T61 261T52 377Q52 469 69 537Q71 546 75 565T86 605T100 644T114 665Q122 670 130 672T145 675Q155 675 164 669Q170 665 173 660T176 644Q176 635 173 620Q168
595 161 564T147 500Q141 467 138 431T135 359Q135 299 144 247T171 162T218 129Q228 129 247 137T284 157T312 175Q367 221 404 266T468 364T515 481T560 629Q568 646 585 646Q597 646 607 637T615 611Q611 556 608 505T605 403Q605 354 608 306T618 208Q623 175
625 159T627 137T628 124Q628 108 618 98T592 87Q570 87 559 104T543 154Q541 165 538 192T531 257T528 330Q484 246 363 125Q331 91 292 71T202 50ZM313 770Q305 770 301 775T297 793Q299 805 311 816T338 836T363 852Q371 857 378 860T391 868Q396 872 412 879T444
894T464 902Q467 903 470 903Q474 903 479 902Q491 901 502 889T513 869Q512 865 507 860Q505 859 504 858T499 854L486 846Q482 844 464 837T422 821Q412 818 404 814T389 805Q381 801 375 799T366 794Q359 789 343 780T313 770Z" />
<glyph unicode="&#xdb;" glyph-name="Ucircumflex" horiz-adv-x="688" d="M202 50Q162 50 134 78T87 155T61 261T52 377Q52 469 69 537Q71 546 75 565T86 605T100 644T114 665Q122 670 130 672T145 675Q155 675 164 669Q170 665 173 660T176 644Q176 635 173 620Q168
595 161 564T147 500Q141 467 138 431T135 359Q135 299 144 247T171 162T218 129Q228 129 247 137T284 157T312 175Q367 221 404 266T468 364T515 481T560 629Q568 646 585 646Q597 646 607 637T615 611Q611 556 608 505T605 403Q605 354 608 306T618 208Q623 175
625 159T627 137T628 124Q628 108 618 98T592 87Q570 87 559 104T543 154Q541 165 538 192T531 257T528 330Q484 246 363 125Q331 91 292 71T202 50ZM227 751Q212 751 212 775Q212 787 226 806T262 845T306 883T343 908Q351 914 368 914Q383 914 393 908Q412 897
434 880T477 843T511 805T525 775Q525 754 507 754Q497 754 486 760T469 770Q462 776 447 788T416 813T386 836T366 848Q358 845 339 831T301 801T273 777Q266 770 252 761T227 751Z" />
<glyph unicode="&#xdc;" glyph-name="Udieresis" horiz-adv-x="688" d="M202 50Q162 50 134 78T87 155T61 261T52 377Q52 469 69 537Q71 546 75 565T86 605T100 644T114 665Q122 670 130 672T145 675Q155 675 164 669Q170 665 173 660T176 644Q176 635 173 620Q168
595 161 564T147 500Q141 467 138 431T135 359Q135 299 144 247T171 162T218 129Q228 129 247 137T284 157T312 175Q367 221 404 266T468 364T515 481T560 629Q568 646 585 646Q597 646 607 637T615 611Q611 556 608 505T605 403Q605 354 608 306T618 208Q623 175
625 159T627 137T628 124Q628 108 618 98T592 87Q570 87 559 104T543 154Q541 165 538 192T531 257T528 330Q484 246 363 125Q331 91 292 71T202 50ZM474 770Q451 770 440 784T429 817Q429 840 445 861T492 882Q515 882 525 868T536 836Q536 813 520 792T474 770ZM281
770Q258 770 247 784T236 817Q236 840 252 861T299 882Q322 882 332 868T343 836Q343 813 327 792T281 770Z" />
<glyph unicode="&#xdd;" glyph-name="Yacute" horiz-adv-x="589" d="M260 -5Q246 -5 234 11T217 49V100Q217 151 227 202T238 304V324Q199 363 170 398T118 472T76 559Q66 585 56 614T45 671Q45 688 55 698T78 708Q111 708 128 668Q133 658 136 647T142 625Q145
612 147 601T154 581Q158 571 168 550T192 502T222 453T256 414T287 399Q322 399 359 452Q373 472 387 498T416 551Q434 583 450 613T485 662T523 682Q538 682 544 672T551 647Q551 630 545 609T527 568Q516 549 503 530T478 494Q440 442 408 402T335 324Q328 295
318 246T300 126Q297 93 295 63T285 14T260 -5ZM239 770Q231 770 227 775T223 793Q225 805 237 816T264 836T289 852Q297 857 304 860T317 868Q322 872 338 879T370 894T390 902Q393 903 396 903Q400 903 405 902Q417 901 428 889T439 869Q438 865 433 860Q431
859 430 858T425 854L412 846Q408 844 390 837T348 821Q338 818 330 814T315 805Q307 801 301 799T292 794Q285 789 269 780T239 770Z" />
<glyph unicode="&#xde;" glyph-name="Thorn" horiz-adv-x="644" d="M178 -10Q154 -10 142 8T125 52T120 103T119 141V252Q119 327 127 407T135 577Q83 577 67 586T50 625Q50 642 66 655T114 672L137 676Q140 676 140 695T141 740T142 786T144 810Q154 832 165
841T188 850Q202 850 211 838T220 809Q220 808 220 792T219 755T218 716Q218 702 218 693T220 684Q245 686 265 688T297 693H300Q402 693 469 671T570 612T604 530Q604 479 580 434T515 354T424 294T321 258Q301 254 268 254T199 253Q199 198 201 159T204 84V53Q204
36 201 19Q197 2 192 -4T178 -10ZM321 336Q344 336 376 351T440 392T493 449T514 510Q514 537 501 555T469 584T430 600T397 609Q371 614 345 616T296 619Q237 619 212 609Q214 578 207 506T199 336H321Z" />
<glyph unicode="&#xdf;" glyph-name="germandbls" horiz-adv-x="703" d="M186 -40Q173 -40 161 -28T149 1V91Q149 153 151 212T154 335Q154 427 164 504T200 638T269 726T376 757Q414 757 452 750T522 718T571 642Q577 623 577 596Q577 567 570 537T548 486T514
466Q501 466 481 465T440 457T407 436T393 395Q393 357 451 332Q472 324 498 316T552 297Q606 277 644 240T683 145Q683 88 654 53T578 1T475 -15Q439 -15 403 -11T343 10T318 61Q318 94 334 94Q345 94 354 87T375 69T406 52T459 44Q489 44 525 53T586 84T612 140Q612
179 594 198T554 227Q544 232 532 237T505 246Q492 250 479 254T452 262Q416 274 387 289T340 329T322 390Q322 439 347 467T411 510T495 529Q497 545 499 562T499 593Q496 625 484 645T446 677T370 689Q327 690 298 654T251 559T224 427T213 284V148Q213 114 216
81T219 19Q219 0 214 -20T186 -40Z" />
<glyph unicode="&#xe0;" glyph-name="agrave" horiz-adv-x="609" d="M232 -10Q187 -10 149 10T84 64T50 140V193Q50 250 71 308T129 415T218 493T330 523Q368 523 403 510T467 480Q473 522 482 538T513 554Q530 554 537 544T544 507Q544 447 542 390T539 272Q539
224 544 173T550 75Q550 60 550 45T546 21T523 11Q499 11 488 33T472 88T464 148Q454 121 431 95T384 51T348 25T347 26Q325 10 293 0T232 -10ZM222 53Q267 53 306 79T374 146T420 232T437 315Q437 334 433 358T416 406T384 444T330 459Q287 459 248 432T179 362T131
274T114 193Q114 166 123 133T156 77T222 53ZM421 618Q408 618 392 630T368 650L347 664Q340 669 332 674T316 685Q300 695 283 704T263 716L252 726Q247 731 244 733Q240 738 240 743Q240 751 253 761T278 771Q287 771 293 769Q297 767 310 759T336 741T354 727Q359
723 365 718T379 707Q389 700 402 689T425 664T436 639Q436 618 421 618Z" />
<glyph unicode="&#xe1;" glyph-name="aacute" horiz-adv-x="609" d="M232 -10Q187 -10 149 10T84 64T50 140V193Q50 250 71 308T129 415T218 493T330 523Q368 523 403 510T467 480Q473 522 482 538T513 554Q530 554 537 544T544 507Q544 447 542 390T539 272Q539
224 544 173T550 75Q550 60 550 45T546 21T523 11Q499 11 488 33T472 88T464 148Q454 121 431 95T384 51T348 25T347 26Q325 10 293 0T232 -10ZM222 53Q267 53 306 79T374 146T420 232T437 315Q437 334 433 358T416 406T384 444T330 459Q287 459 248 432T179 362T131
274T114 193Q114 166 123 133T156 77T222 53ZM274 620Q260 620 260 640Q260 652 270 665T293 689T316 708Q323 714 330 719T342 729Q347 733 360 742T386 760T402 770Q407 772 409 772T416 772Q429 772 442 763T456 745Q456 741 450 735L444 728Q442 725 439 723T433
718Q429 714 412 706T379 686L348 666Q331 654 328 651Q321 645 304 633T274 620Z" />
<glyph unicode="&#xe2;" glyph-name="acircumflex" horiz-adv-x="609" d="M232 -10Q187 -10 149 10T84 64T50 140V193Q50 250 71 308T129 415T218 493T330 523Q368 523 403 510T467 480Q473 522 482 538T513 554Q530 554 537 544T544 507Q544 447 542 390T539
272Q539 224 544 173T550 75Q550 60 550 45T546 21T523 11Q499 11 488 33T472 88T464 148Q454 121 431 95T384 51T348 25T347 26Q325 10 293 0T232 -10ZM222 53Q267 53 306 79T374 146T420 232T437 315Q437 334 433 358T416 406T384 444T330 459Q287 459 248 432T179
362T131 274T114 193Q114 166 123 133T156 77T222 53ZM206 601Q191 601 191 625Q191 637 204 656T236 695T276 733T312 758Q320 764 337 764Q352 764 362 758Q387 743 415 718T464 667T484 625Q484 604 466 604Q456 604 445 610T428 620Q418 628 399 645T361 679T335
698Q327 695 311 681T278 651T252 627Q245 620 231 611T206 601Z" />
<glyph unicode="&#xe3;" glyph-name="atilde" horiz-adv-x="609" d="M232 -10Q187 -10 149 10T84 64T50 140V193Q50 250 71 308T129 415T218 493T330 523Q368 523 403 510T467 480Q473 522 482 538T513 554Q530 554 537 544T544 507Q544 447 542 390T539 272Q539
224 544 173T550 75Q550 60 550 45T546 21T523 11Q499 11 488 33T472 88T464 148Q454 121 431 95T384 51T348 25T347 26Q325 10 293 0T232 -10ZM222 53Q267 53 306 79T374 146T420 232T437 315Q437 334 433 358T416 406T384 444T330 459Q287 459 248 432T179 362T131
274T114 193Q114 166 123 133T156 77T222 53ZM217 615Q202 615 196 624T190 643Q190 652 196 666T212 694T231 716Q244 727 256 733T284 739Q308 739 326 725T360 697T393 683Q408 683 416 690T434 708Q440 714 447 720T463 726Q472 726 478 721T485 703Q485 688
474 669T444 635T400 620Q372 620 357 628T334 646T316 665T288 673Q272 673 264 664T245 639Q241 635 238 630T229 620Q221 615 217 615Z" />
<glyph unicode="&#xe4;" glyph-name="adieresis" horiz-adv-x="609" d="M232 -10Q187 -10 149 10T84 64T50 140V193Q50 250 71 308T129 415T218 493T330 523Q368 523 403 510T467 480Q473 522 482 538T513 554Q530 554 537 544T544 507Q544 447 542 390T539 272Q539
224 544 173T550 75Q550 60 550 45T546 21T523 11Q499 11 488 33T472 88T464 148Q454 121 431 95T384 51T348 25T347 26Q325 10 293 0T232 -10ZM222 53Q267 53 306 79T374 146T420 232T437 315Q437 334 433 358T416 406T384 444T330 459Q287 459 248 432T179 362T131
274T114 193Q114 166 123 133T156 77T222 53ZM443 620Q420 620 409 634T398 667Q398 690 414 711T461 732Q484 732 494 718T505 686Q505 663 489 642T443 620ZM250 620Q227 620 216 634T205 667Q205 690 221 711T268 732Q291 732 301 718T312 686Q312 663 296 642T250
620Z" />
<glyph unicode="&#xe5;" glyph-name="aring" horiz-adv-x="609" d="M232 -10Q187 -10 149 10T84 64T50 140V193Q50 250 71 308T129 415T218 493T330 523Q368 523 403 510T467 480Q473 522 482 538T513 554Q530 554 537 544T544 507Q544 447 542 390T539 272Q539
224 544 173T550 75Q550 60 550 45T546 21T523 11Q499 11 488 33T472 88T464 148Q454 121 431 95T384 51T348 25T347 26Q325 10 293 0T232 -10ZM222 53Q267 53 306 79T374 146T420 232T437 315Q437 334 433 358T416 406T384 444T330 459Q287 459 248 432T179 362T131
274T114 193Q114 166 123 133T156 77T222 53ZM336 614Q316 614 291 624T247 657T229 717Q229 764 262 793T344 823Q387 823 417 794T447 717Q447 678 421 646T336 614ZM341 673Q366 673 376 686T387 721Q387 742 375 753T341 764Q314 764 301 752T288 717Q288 696
303 685T341 673Z" />
<glyph unicode="&#xe6;" glyph-name="ae" horiz-adv-x="975" d="M232 -10Q187 -10 149 10T84 64T50 140V193Q50 250 71 308T129 415T218 493T330 523Q368 523 403 510T467 480Q473 522 482 538T513 554Q530 554 537 544T544 507Q544 447 542 390T539 272Q539 224
544 173T550 75Q550 60 550 45T546 21T523 11Q499 11 488 33T472 88T464 148Q454 121 431 95T384 51T348 25T347 26Q325 10 293 0T232 -10ZM222 53Q267 53 306 79T374 146T420 232T437 315Q437 334 433 358T416 406T384 444T330 459Q287 459 248 432T179 362T131
274T114 193Q114 166 123 133T156 77T222 53ZM742 -15Q666 -15 605 7T507 78T471 204Q471 265 491 323T550 428T641 502T759 530Q804 530 840 513T899 465T921 391Q921 345 902 304T849 230T775 180T688 161Q649 161 615 167T552 188Q552 150 570 124T616 81T674
57T731 49Q752 49 773 51T819 54Q856 54 856 22Q856 -3 821 -10Q802 -14 782 -14T742 -15ZM688 241Q723 241 761 255T825 299T852 375Q852 416 827 441T759 467Q721 467 685 450T618 403T570 336T552 260Q575 248 610 245T688 241Z" />
<glyph unicode="&#xe7;" glyph-name="ccedilla" horiz-adv-x="579" d="M270 15Q200 15 152 49T79 140T54 266Q54 342 88 405T182 506T318 545Q339 545 367 542T421 530T464 504T481 459Q481 448 472 440T443 432Q427 432 414 440T388 456Q370 468 351 477T308
487Q264 487 231 465T176 407T143 332T132 259Q132 194 157 156T225 101T318 84Q366 84 405 101T486 137Q500 144 509 144Q521 144 525 135T529 111Q529 85 508 68T455 40T387 24T319 17T270 15ZM293 -225Q289 -225 277 -226T252 -227Q235 -227 227 -224Q217 -220
213 -213T208 -198Q208 -183 218 -176T241 -169Q246 -169 256 -171T290 -174Q341 -174 341 -135Q341 -116 326 -105T281 -94Q268 -94 258 -87T248 -67Q248 -62 250 -54Q262 -14 267 8Q269 19 278 25T296 31Q308 31 318 22T328 -4Q328 -6 328 -9T327 -14Q326 -20
326 -31T324 -47Q405 -47 405 -138Q405 -186 375 -205T293 -225Z" />
<glyph unicode="&#xe8;" glyph-name="egrave" horiz-adv-x="554" d="M321 -15Q245 -15 184 7T86 78T50 204Q50 265 70 323T129 428T220 502T338 530Q383 530 419 513T478 465T500 391Q500 345 481 304T428 230T354 180T267 161Q228 161 194 167T131 188Q131 150
149 124T195 81T253 57T310 49Q331 49 352 51T398 54Q435 54 435 22Q435 -3 400 -10Q381 -14 361 -14T321 -15ZM267 241Q302 241 340 255T404 299T431 375Q431 416 406 441T338 467Q300 467 264 450T197 403T149 336T131 260Q154 248 189 245T267 241ZM409 618Q396
618 380 630T356 650L335 664Q328 669 320 674T304 685Q288 695 271 704T251 716L240 726Q235 731 232 733Q228 738 228 743Q228 751 241 761T266 771Q275 771 281 769Q285 767 298 759T324 741T342 727Q347 723 353 718T367 707Q377 700 390 689T413 664T424 639Q424
618 409 618Z" />
<glyph unicode="&#xe9;" glyph-name="eacute" horiz-adv-x="554" d="M321 -15Q245 -15 184 7T86 78T50 204Q50 265 70 323T129 428T220 502T338 530Q383 530 419 513T478 465T500 391Q500 345 481 304T428 230T354 180T267 161Q228 161 194 167T131 188Q131 150
149 124T195 81T253 57T310 49Q331 49 352 51T398 54Q435 54 435 22Q435 -3 400 -10Q381 -14 361 -14T321 -15ZM267 241Q302 241 340 255T404 299T431 375Q431 416 406 441T338 467Q300 467 264 450T197 403T149 336T131 260Q154 248 189 245T267 241ZM262 620Q248
620 248 640Q248 652 258 665T281 689T304 708Q311 714 318 719T330 729Q335 733 348 742T374 760T390 770Q395 772 397 772T404 772Q417 772 430 763T444 745Q444 741 438 735L432 728Q430 725 427 723T421 718Q417 714 400 706T367 686L336 666Q319 654 316 651Q309
645 292 633T262 620Z" />
<glyph unicode="&#xea;" glyph-name="ecircumflex" horiz-adv-x="554" d="M321 -15Q245 -15 184 7T86 78T50 204Q50 265 70 323T129 428T220 502T338 530Q383 530 419 513T478 465T500 391Q500 345 481 304T428 230T354 180T267 161Q228 161 194 167T131 188Q131
150 149 124T195 81T253 57T310 49Q331 49 352 51T398 54Q435 54 435 22Q435 -3 400 -10Q381 -14 361 -14T321 -15ZM267 241Q302 241 340 255T404 299T431 375Q431 416 406 441T338 467Q300 467 264 450T197 403T149 336T131 260Q154 248 189 245T267 241ZM194
601Q179 601 179 625Q179 637 192 656T224 695T264 733T300 758Q308 764 325 764Q340 764 350 758Q375 743 403 718T452 667T472 625Q472 604 454 604Q444 604 433 610T416 620Q406 628 387 645T349 679T323 698Q315 695 299 681T266 651T240 627Q233 620 219 611T194
601Z" />
<glyph unicode="&#xeb;" glyph-name="edieresis" horiz-adv-x="554" d="M321 -15Q245 -15 184 7T86 78T50 204Q50 265 70 323T129 428T220 502T338 530Q383 530 419 513T478 465T500 391Q500 345 481 304T428 230T354 180T267 161Q228 161 194 167T131 188Q131
150 149 124T195 81T253 57T310 49Q331 49 352 51T398 54Q435 54 435 22Q435 -3 400 -10Q381 -14 361 -14T321 -15ZM267 241Q302 241 340 255T404 299T431 375Q431 416 406 441T338 467Q300 467 264 450T197 403T149 336T131 260Q154 248 189 245T267 241ZM431
620Q408 620 397 634T386 667Q386 690 402 711T449 732Q472 732 482 718T493 686Q493 663 477 642T431 620ZM238 620Q215 620 204 634T193 667Q193 690 209 711T256 732Q279 732 289 718T300 686Q300 663 284 642T238 620Z" />
<glyph unicode="&#xec;" glyph-name="igrave" horiz-adv-x="262" d="M91 15Q77 15 70 33T60 79T57 137Q57 151 57 165T58 193Q58 197 61 219T68 272T76 331T84 378Q87 391 91 412T105 451T136 469Q159 469 168 461T178 434Q178 429 178 424T176 413Q171 381 164
334T151 235T147 137Q148 126 149 112T151 83Q151 57 140 36T91 15ZM226 823Q213 823 197 835T173 855L152 869Q145 874 137 879T121 890Q105 900 88 909T68 921L57 931Q52 936 49 938Q45 943 45 948Q45 956 58 966T83 976Q92 976 98 974Q102 972 115 964T141 946T159
932Q164 928 170 923T184 912Q194 905 207 894T230 869T241 844Q241 823 226 823Z" />
<glyph unicode="&#xed;" glyph-name="iacute" horiz-adv-x="262" d="M91 15Q77 15 70 33T60 79T57 137Q57 151 57 165T58 193Q58 197 61 219T68 272T76 331T84 378Q87 391 91 412T105 451T136 469Q159 469 168 461T178 434Q178 429 178 424T176 413Q171 381 164
334T151 235T147 137Q148 126 149 112T151 83Q151 57 140 36T91 15ZM79 825Q65 825 65 845Q65 857 75 870T98 894T121 913Q128 919 135 924T147 934Q152 938 165 947T191 965T207 975Q212 977 214 977T221 977Q234 977 247 968T261 950Q261 946 255 940L249 933Q247
930 244 928T238 923Q234 919 217 911T184 891L153 871Q136 859 133 856Q126 850 109 838T79 825Z" />
<glyph unicode="&#xee;" glyph-name="icircumflex" horiz-adv-x="262" d="M91 15Q77 15 70 33T60 79T57 137Q57 151 57 165T58 193Q58 197 61 219T68 272T76 331T84 378Q87 391 91 412T105 451T136 469Q159 469 168 461T178 434Q178 429 178 424T176 413Q171 381
164 334T151 235T147 137Q148 126 149 112T151 83Q151 57 140 36T91 15ZM267 806Q252 806 252 830Q252 842 265 861T297 900T337 938T373 963Q381 969 398 969Q413 969 423 963Q448 948 476 923T525 872T545 830Q545 809 527 809Q517 809 506 815T489 825Q479 833
460 850T422 884T396 903Q388 900 372 886T339 856T313 832Q306 825 292 816T267 806Z" />
<glyph unicode="&#xef;" glyph-name="idieresis" horiz-adv-x="262" d="M91 15Q77 15 70 33T60 79T57 137Q57 151 57 165T58 193Q58 197 61 219T68 272T76 331T84 378Q87 391 91 412T105 451T136 469Q159 469 168 461T178 434Q178 429 178 424T176 413Q171 381
164 334T151 235T147 137Q148 126 149 112T151 83Q151 57 140 36T91 15ZM248 825Q225 825 214 839T203 872Q203 895 219 916T266 937Q289 937 299 923T310 891Q310 868 294 847T248 825ZM55 825Q32 825 21 839T10 872Q10 895 26 916T73 937Q96 937 106 923T117
891Q117 868 101 847T55 825Z" />
<glyph unicode="&#xf0;" glyph-name="eth" horiz-adv-x="674" d="M321 0Q249 0 187 31T88 119T50 251Q50 302 71 346T127 430T198 508Q215 525 237 532T284 540Q357 540 422 524T534 471Q523 520 504 568T455 660Q433 646 408 631T353 598Q339 590 331 592T316
607Q300 634 313 643Q344 666 368 682T413 712Q407 719 400 725Q392 733 384 740T365 754Q346 766 323 766Q296 766 281 756T257 731Q246 712 232 712Q220 712 212 725T204 755Q204 770 211 783Q219 800 236 812T276 828Q288 830 299 831T321 832Q372 832 412 812T484
758Q497 766 511 775T542 794Q551 799 565 793T588 771Q591 766 591 755T586 741Q571 733 556 724T523 704Q551 657 570 601T601 484T619 367Q620 360 620 355T621 344Q621 340 621 336T619 329Q621 316 622 302T624 272Q624 212 599 162T530 76T432 20T321 0ZM299
74Q345 74 390 87T473 126T532 193T555 288Q555 338 534 373T477 431T401 465T321 476Q305 476 286 474T248 454Q226 433 204 412T162 364Q143 339 131 308T119 241Q119 183 143 146T209 92T299 74Z" />
<glyph unicode="&#xf1;" glyph-name="ntilde" horiz-adv-x="674" d="M112 20Q97 20 90 27T80 47Q75 64 75 83V122Q75 154 77 177T79 229Q79 239 79 250T77 275Q73 324 66 378T59 476V515Q65 529 70 532T86 535Q110 535 120 517T133 474T138 431Q139 424 141 401T147
350T152 295T155 255Q171 288 193 323T237 390T278 440Q304 469 339 485T410 502Q451 502 482 479T535 419T573 340T597 257Q610 204 616 164T628 73Q628 51 619 38T597 25Q578 25 570 33T559 61Q552 99 546 147T528 244T496 335Q488 354 476 374T447 408T405 422Q372
422 339 393T275 318T220 220T178 120Q173 104 166 85T150 48Q143 34 135 27T112 20ZM295 615Q280 615 274 624T268 643Q268 652 274 666T290 694T309 716Q322 727 334 733T362 739Q386 739 404 725T438 697T471 683Q486 683 494 690T512 708Q518 714 525 720T541
726Q550 726 556 721T563 703Q563 688 552 669T522 635T478 620Q450 620 435 628T412 646T394 665T366 673Q350 673 342 664T323 639Q319 635 316 630T307 620Q299 615 295 615Z" />
<glyph unicode="&#xf2;" glyph-name="ograve" horiz-adv-x="678" d="M321 0Q249 0 187 31T88 119T50 251Q50 302 71 346T127 430T198 508Q215 525 237 532T284 540Q353 540 414 526T522 479T597 396T624 272Q624 212 599 162T530 76T432 20T321 0ZM299 74Q345
74 390 87T473 126T532 193T555 288Q555 338 534 373T477 431T401 465T321 476Q305 476 286 474T248 454Q226 433 204 412T162 364Q143 339 131 308T119 241Q119 183 143 146T209 92T299 74ZM408 618Q395 618 379 630T355 650L334 664Q327 669 319 674T303 685Q287
695 270 704T250 716L239 726Q234 731 231 733Q227 738 227 743Q227 751 240 761T265 771Q274 771 280 769Q284 767 297 759T323 741T341 727Q346 723 352 718T366 707Q376 700 389 689T412 664T423 639Q423 618 408 618Z" />
<glyph unicode="&#xf3;" glyph-name="oacute" horiz-adv-x="678" d="M321 0Q249 0 187 31T88 119T50 251Q50 302 71 346T127 430T198 508Q215 525 237 532T284 540Q353 540 414 526T522 479T597 396T624 272Q624 212 599 162T530 76T432 20T321 0ZM299 74Q345
74 390 87T473 126T532 193T555 288Q555 338 534 373T477 431T401 465T321 476Q305 476 286 474T248 454Q226 433 204 412T162 364Q143 339 131 308T119 241Q119 183 143 146T209 92T299 74ZM261 620Q247 620 247 640Q247 652 257 665T280 689T303 708Q310 714
317 719T329 729Q334 733 347 742T373 760T389 770Q394 772 396 772T403 772Q416 772 429 763T443 745Q443 741 437 735L431 728Q429 725 426 723T420 718Q416 714 399 706T366 686L335 666Q318 654 315 651Q308 645 291 633T261 620Z" />
<glyph unicode="&#xf4;" glyph-name="ocircumflex" horiz-adv-x="678" d="M321 0Q249 0 187 31T88 119T50 251Q50 302 71 346T127 430T198 508Q215 525 237 532T284 540Q353 540 414 526T522 479T597 396T624 272Q624 212 599 162T530 76T432 20T321 0ZM299 74Q345
74 390 87T473 126T532 193T555 288Q555 338 534 373T477 431T401 465T321 476Q305 476 286 474T248 454Q226 433 204 412T162 364Q143 339 131 308T119 241Q119 183 143 146T209 92T299 74ZM193 601Q178 601 178 625Q178 637 191 656T223 695T263 733T299 758Q307
764 324 764Q339 764 349 758Q374 743 402 718T451 667T471 625Q471 604 453 604Q443 604 432 610T415 620Q405 628 386 645T348 679T322 698Q314 695 298 681T265 651T239 627Q232 620 218 611T193 601Z" />
<glyph unicode="&#xf5;" glyph-name="otilde" horiz-adv-x="678" d="M321 0Q249 0 187 31T88 119T50 251Q50 302 71 346T127 430T198 508Q215 525 237 532T284 540Q353 540 414 526T522 479T597 396T624 272Q624 212 599 162T530 76T432 20T321 0ZM299 74Q345
74 390 87T473 126T532 193T555 288Q555 338 534 373T477 431T401 465T321 476Q305 476 286 474T248 454Q226 433 204 412T162 364Q143 339 131 308T119 241Q119 183 143 146T209 92T299 74ZM204 615Q189 615 183 624T177 643Q177 652 183 666T199 694T218 716Q231
727 243 733T271 739Q295 739 313 725T347 697T380 683Q395 683 403 690T421 708Q427 714 434 720T450 726Q459 726 465 721T472 703Q472 688 461 669T431 635T387 620Q359 620 344 628T321 646T303 665T275 673Q259 673 251 664T232 639Q228 635 225 630T216 620Q208
615 204 615Z" />
<glyph unicode="&#xf6;" glyph-name="odieresis" horiz-adv-x="678" d="M321 0Q249 0 187 31T88 119T50 251Q50 302 71 346T127 430T198 508Q215 525 237 532T284 540Q353 540 414 526T522 479T597 396T624 272Q624 212 599 162T530 76T432 20T321 0ZM299 74Q345
74 390 87T473 126T532 193T555 288Q555 338 534 373T477 431T401 465T321 476Q305 476 286 474T248 454Q226 433 204 412T162 364Q143 339 131 308T119 241Q119 183 143 146T209 92T299 74ZM430 620Q407 620 396 634T385 667Q385 690 401 711T448 732Q471 732
481 718T492 686Q492 663 476 642T430 620ZM237 620Q214 620 203 634T192 667Q192 690 208 711T255 732Q278 732 288 718T299 686Q299 663 283 642T237 620Z" />
<glyph unicode="&#xf7;" glyph-name="divide" horiz-adv-x="457" d="M239 467Q216 467 205 482T194 516Q194 540 210 562T256 584Q279 584 290 570T302 535Q302 511 286 489T239 467ZM113 331Q97 331 91 337T85 357Q85 388 101 390Q150 395 185 397T249 401T308
404T375 406Q385 406 394 394T403 363Q403 357 398 347T386 338Q338 340 275 336T113 331ZM239 142Q216 142 205 157T194 191Q194 215 210 237T256 259Q279 259 290 245T302 210Q302 186 286 164T239 142Z" />
<glyph unicode="&#xf8;" glyph-name="oslash" horiz-adv-x="678" d="M70 -139Q53 -139 43 -124Q41 -120 39 -115T37 -103Q37 -94 43 -85Q59 -62 89 -18T159 85T242 210T331 345T419 478T497 597T558 689Q580 722 592 722Q600 722 607 712Q617 695 617 678Q617
664 610 651Q567 581 514 499T403 330T291 162T187 7T103 -118Q89 -139 70 -139ZM321 0Q249 0 187 31T88 119T50 251Q50 302 71 346T127 430T198 508Q215 525 237 532T284 540Q353 540 414 526T522 479T597 396T624 272Q624 212 599 162T530 76T432 20T321 0ZM299
74Q345 74 390 87T473 126T532 193T555 288Q555 338 534 373T477 431T401 465T321 476Q305 476 286 474T248 454Q226 433 204 412T162 364Q143 339 131 308T119 241Q119 183 143 146T209 92T299 74Z" />
<glyph unicode="&#xf9;" glyph-name="ugrave" horiz-adv-x="653" d="M193 10Q142 10 113 38T72 112T59 209Q59 244 60 265T64 310T75 373Q79 393 83 413T94 453Q102 476 111 485T128 495Q147 495 156 485T166 458Q166 436 160 417T150 381Q143 336 138 310T131
262T128 209Q128 194 130 173T140 132T161 99T198 85Q222 85 243 102T274 131Q342 217 395 299T500 478Q507 489 511 492T523 495Q546 495 555 487T564 460Q564 448 561 431Q546 356 546 282Q546 232 555 189T584 118Q599 99 599 85Q599 68 590 58T566 48Q528 48
506 108Q499 129 491 161T475 227T466 282Q453 261 443 241T416 197Q405 181 390 161T358 118Q323 75 281 43T193 10ZM410 618Q397 618 381 630T357 650L336 664Q329 669 321 674T305 685Q289 695 272 704T252 716L241 726Q236 731 233 733Q229 738 229 743Q229
751 242 761T267 771Q276 771 282 769Q286 767 299 759T325 741T343 727Q348 723 354 718T368 707Q378 700 391 689T414 664T425 639Q425 618 410 618Z" />
<glyph unicode="&#xfa;" glyph-name="uacute" horiz-adv-x="653" d="M193 10Q142 10 113 38T72 112T59 209Q59 244 60 265T64 310T75 373Q79 393 83 413T94 453Q102 476 111 485T128 495Q147 495 156 485T166 458Q166 436 160 417T150 381Q143 336 138 310T131
262T128 209Q128 194 130 173T140 132T161 99T198 85Q222 85 243 102T274 131Q342 217 395 299T500 478Q507 489 511 492T523 495Q546 495 555 487T564 460Q564 448 561 431Q546 356 546 282Q546 232 555 189T584 118Q599 99 599 85Q599 68 590 58T566 48Q528 48
506 108Q499 129 491 161T475 227T466 282Q453 261 443 241T416 197Q405 181 390 161T358 118Q323 75 281 43T193 10ZM263 620Q249 620 249 640Q249 652 259 665T282 689T305 708Q312 714 319 719T331 729Q336 733 349 742T375 760T391 770Q396 772 398 772T405
772Q418 772 431 763T445 745Q445 741 439 735L433 728Q431 725 428 723T422 718Q418 714 401 706T368 686L337 666Q320 654 317 651Q310 645 293 633T263 620Z" />
<glyph unicode="&#xfb;" glyph-name="ucircumflex" horiz-adv-x="653" d="M193 10Q142 10 113 38T72 112T59 209Q59 244 60 265T64 310T75 373Q79 393 83 413T94 453Q102 476 111 485T128 495Q147 495 156 485T166 458Q166 436 160 417T150 381Q143 336 138 310T131
262T128 209Q128 194 130 173T140 132T161 99T198 85Q222 85 243 102T274 131Q342 217 395 299T500 478Q507 489 511 492T523 495Q546 495 555 487T564 460Q564 448 561 431Q546 356 546 282Q546 232 555 189T584 118Q599 99 599 85Q599 68 590 58T566 48Q528 48
506 108Q499 129 491 161T475 227T466 282Q453 261 443 241T416 197Q405 181 390 161T358 118Q323 75 281 43T193 10ZM195 601Q180 601 180 625Q180 637 193 656T225 695T265 733T301 758Q309 764 326 764Q341 764 351 758Q376 743 404 718T453 667T473 625Q473
604 455 604Q445 604 434 610T417 620Q407 628 388 645T350 679T324 698Q316 695 300 681T267 651T241 627Q234 620 220 611T195 601Z" />
<glyph unicode="&#xfc;" glyph-name="udieresis" horiz-adv-x="653" d="M193 10Q142 10 113 38T72 112T59 209Q59 244 60 265T64 310T75 373Q79 393 83 413T94 453Q102 476 111 485T128 495Q147 495 156 485T166 458Q166 436 160 417T150 381Q143 336 138 310T131
262T128 209Q128 194 130 173T140 132T161 99T198 85Q222 85 243 102T274 131Q342 217 395 299T500 478Q507 489 511 492T523 495Q546 495 555 487T564 460Q564 448 561 431Q546 356 546 282Q546 232 555 189T584 118Q599 99 599 85Q599 68 590 58T566 48Q528 48
506 108Q499 129 491 161T475 227T466 282Q453 261 443 241T416 197Q405 181 390 161T358 118Q323 75 281 43T193 10ZM432 620Q409 620 398 634T387 667Q387 690 403 711T450 732Q473 732 483 718T494 686Q494 663 478 642T432 620ZM239 620Q216 620 205 634T194
667Q194 690 210 711T257 732Q280 732 290 718T301 686Q301 663 285 642T239 620Z" />
<glyph unicode="&#xfd;" glyph-name="yacute" horiz-adv-x="579" d="M195 -262Q192 -262 186 -254T180 -230Q180 -216 183 -202T193 -174Q200 -159 207 -144T221 -114Q227 -99 235 -76T252 -30T265 11T271 30V56Q209 56 168 79T103 140T68 224T54 319T50 410Q50
430 51 449T56 487Q61 510 68 517T83 525Q106 525 115 508T125 457Q125 434 122 414T119 369V359Q119 350 122 325T130 273T136 234Q141 212 151 188T179 146T227 129Q266 129 296 157T352 231T399 327Q407 344 414 361T428 394Q436 410 443 424T458 451Q474 477
487 488T514 499Q527 499 533 492T540 468Q540 437 530 407T503 347Q486 316 467 286T434 226Q426 208 413 178T385 115T360 57T347 26Q346 21 339 4T324 -38T306 -86T291 -128T282 -151Q276 -169 265 -195T238 -241T195 -262ZM226 620Q212 620 212 640Q212 652
222 665T245 689T268 708Q275 714 282 719T294 729Q299 733 312 742T338 760T354 770Q359 772 361 772T368 772Q381 772 394 763T408 745Q408 741 402 735L396 728Q394 725 391 723T385 718Q381 714 364 706T331 686L300 666Q283 654 280 651Q273 645 256 633T226
620Z" />
<glyph unicode="&#xfe;" glyph-name="thorn" horiz-adv-x="619" d="M101 -282Q93 -282 88 -278T75 -261V-194Q75 -120 83 -47T97 100L102 195V367Q93 367 80 370T66 392Q66 415 76 426T114 445L129 745Q135 776 146 789T170 803Q187 803 200 782T211 732Q202 674
195 619T183 509Q189 507 194 507Q209 507 228 515T267 530T306 538H353Q418 538 471 517T557 455T589 351Q589 292 565 233T498 126T400 48T284 19Q268 19 253 22T222 28Q211 30 199 30T166 30Q166 12 165 -14T161 -69T157 -119T155 -152Q155 -153 155 -156T154
-162Q153 -166 153 -172T150 -183Q149 -194 147 -205T145 -223Q143 -234 139 -248T126 -272T101 -282ZM279 86Q329 86 372 109T449 172T501 256T520 346Q520 394 496 422T436 463T359 476Q339 476 317 475T275 464Q231 445 208 423T176 369Q174 362 173 354T171
337Q171 332 171 327T170 317V309Q170 293 171 275T172 237V154Q172 131 190 116T233 93T279 86Z" />
<glyph unicode="&#xff;" glyph-name="ydieresis" horiz-adv-x="579" d="M195 -262Q192 -262 186 -254T180 -230Q180 -216 183 -202T193 -174Q200 -159 207 -144T221 -114Q227 -99 235 -76T252 -30T265 11T271 30V56Q209 56 168 79T103 140T68 224T54 319T50 410Q50
430 51 449T56 487Q61 510 68 517T83 525Q106 525 115 508T125 457Q125 434 122 414T119 369V359Q119 350 122 325T130 273T136 234Q141 212 151 188T179 146T227 129Q266 129 296 157T352 231T399 327Q407 344 414 361T428 394Q436 410 443 424T458 451Q474 477
487 488T514 499Q527 499 533 492T540 468Q540 437 530 407T503 347Q486 316 467 286T434 226Q426 208 413 178T385 115T360 57T347 26Q346 21 339 4T324 -38T306 -86T291 -128T282 -151Q276 -169 265 -195T238 -241T195 -262ZM395 620Q372 620 361 634T350 667Q350
690 366 711T413 732Q436 732 446 718T457 686Q457 663 441 642T395 620ZM202 620Q179 620 168 634T157 667Q157 690 173 711T220 732Q243 732 253 718T264 686Q264 663 248 642T202 620Z" />
<glyph unicode="&#x2013;" glyph-name="endash" horiz-adv-x="642" d="M113 222Q97 222 91 228T85 248Q85 278 101 281Q187 293 250 297T359 301Q418 301 459 299T542 297Q552 297 561 285T570 254Q570 248 565 238T553 229Q547 229 539 229T519 230Q485 230 434
229T324 226T211 223T113 222Z" />
<glyph unicode="&#x2014;" glyph-name="emdash" horiz-adv-x="971" d="M113 222Q97 222 91 228T85 248Q85 278 101 281Q187 293 292 297T498 301Q583 301 658 300T790 297T874 297Q884 297 893 285T902 254Q902 248 897 238T885 229Q879 229 867 229T836 230Q797
230 737 230T604 228T458 226T316 224T195 223T113 222Z" />
<glyph unicode="&#x2018;" glyph-name="quoteleft" horiz-adv-x="241" d="M89 522Q79 522 70 531T60 559Q60 580 73 608T107 663T148 708T185 726Q201 726 205 710Q205 705 203 700L193 682Q189 677 180 664T163 639T153 624Q148 617 144 608T137 591Q134 583
131 574T124 556Q109 522 89 522Z" />
<glyph unicode="&#x2019;" glyph-name="quoteright" horiz-adv-x="240" d="M56 522Q40 522 36 538Q35 541 38 547Q40 552 42 556T47 566Q52 572 61 584T78 609T88 624Q93 631 96 639T103 657Q106 665 109 674T117 692Q132 726 152 726Q160 726 168 720T179 699Q180
696 180 689Q180 668 167 640T134 585T93 540T56 522Z" />
<glyph unicode="&#x201a;" glyph-name="quotesinglbase" horiz-adv-x="292" d="M-9 -338Q-25 -338 -29 -322Q-30 -319 -27 -313Q-25 -308 -23 -304T-18 -294Q-13 -288 -4 -276T13 -251T23 -236Q28 -229 31 -221T38 -203Q41 -195 44 -186T52 -168Q67 -134 87 -134Q95
-134 103 -140T114 -161Q115 -164 115 -171Q115 -192 102 -220T69 -275T28 -320T-9 -338Z" />
<glyph unicode="&#x201c;" glyph-name="quotedblleft" horiz-adv-x="383" d="M231 522Q221 522 212 531T203 559Q203 580 216 608T249 663T290 708T327 726Q343 726 347 710V708Q347 707 347 705T345 700Q344 696 341 692T336 682Q332 677 323 664T305 639T295
624Q291 617 287 608T280 591Q277 583 274 574T266 556Q251 522 231 522ZM88 522Q78 522 69 531T60 559Q60 580 73 608T106 663T147 708T184 726Q200 726 204 710V708Q204 707 204 705T202 700Q201 696 198 692T193 682Q189 677 180 664T162 639T152 624Q148 617
144 608T137 591Q134 583 131 574T123 556Q108 522 88 522Z" />
<glyph unicode="&#x201d;" glyph-name="quotedblright" horiz-adv-x="384" d="M200 522Q184 522 180 538Q179 542 181 547Q183 552 186 556T191 566Q196 572 205 584T222 609T232 624Q237 631 240 639T247 657Q250 665 253 674T260 692Q276 726 296 726Q304 726
312 720T323 699Q324 696 324 689Q324 668 311 640T278 585T237 540T200 522ZM57 522Q41 522 37 538Q36 542 38 547Q40 552 43 556T48 566Q53 572 62 584T79 609T89 624Q94 631 97 639T104 657Q107 665 110 674T117 692Q133 726 153 726Q161 726 169 720T180 699Q181
696 181 689Q181 668 168 640T135 585T94 540T57 522Z" />
<glyph unicode="&#x201e;" glyph-name="quotedblbase" horiz-adv-x="292" d="M31 -338Q15 -338 11 -322Q10 -319 13 -313Q15 -308 17 -304T22 -294Q27 -288 36 -276T53 -251T63 -236Q68 -229 71 -221T78 -203Q81 -195 84 -186T92 -168Q107 -134 127 -134Q135 -134
143 -140T154 -161Q155 -164 155 -171Q155 -192 142 -220T109 -275T68 -320T31 -338ZM-99 -338Q-115 -338 -119 -322Q-120 -319 -117 -313Q-115 -308 -113 -304T-108 -294Q-103 -288 -94 -276T-77 -251T-67 -236Q-62 -229 -59 -221T-52 -203Q-49 -195 -46 -186T-38
-168Q-23 -134 -3 -134Q5 -134 13 -140T24 -161Q25 -164 25 -171Q25 -192 12 -220T-21 -275T-62 -320T-99 -338Z" />
<glyph unicode="&#x2022;" glyph-name="bullet" horiz-adv-x="282" d="M133 272Q99 272 75 293T50 351Q50 387 75 408T140 430Q178 430 200 409T223 345Q223 311 200 292T133 272Z" />
<glyph unicode="&#x2039;" glyph-name="guilsinglleft" horiz-adv-x="457" d="M304 110Q287 110 266 122Q258 129 242 142T207 171T173 200T150 219Q145 225 139 230T128 239Q124 244 120 247T112 255Q100 269 100 286Q100 307 126 331L291 480Q310 496 338 496H353Q357
492 357 484Q357 480 357 477T356 468Q356 451 340 432T293 390Q278 379 263 369T234 348Q221 338 206 326T173 291Q199 263 220 245T260 211Q278 197 296 183T331 152Q333 148 335 142T338 131Q338 125 330 118T304 110Z" />
<glyph unicode="&#x203a;" glyph-name="guilsinglright" horiz-adv-x="457" d="M409 110Q392 110 384 117T375 131Q375 136 377 142T382 152Q399 168 417 182T453 211Q473 227 493 245T540 291Q522 314 508 326T479 348Q465 359 450 369T420 390Q390 413 374 432T357
468Q357 473 357 476T356 484Q356 492 360 496H375Q403 496 422 480L587 331Q613 307 613 286Q613 269 601 255Q598 251 594 248T585 239Q580 235 574 230T563 219Q556 213 541 200T506 172T471 143T447 122Q426 110 409 110Z" />
</font>
</defs>
</svg>
