<?xml version="1.0" standalone="no"?>
<!DOCTYPE svg PUBLIC "-//W3C//DTD SVG 1.1//EN" "http://www.w3.org/Graphics/SVG/1.1/DTD/svg11.dtd">
<svg xmlns="http://www.w3.org/2000/svg">
<defs >
<font id="TurretRoad" horiz-adv-x="561" ><font-face
    font-family="Turret Road"
    units-per-em="1000"
    panose-1="0 0 5 0 0 0 0 0 0 0"
    ascent="850"
    descent="-243"
    alphabetic="0" />
<glyph unicode=" " glyph-name="space" horiz-adv-x="400" />
<glyph unicode="!" glyph-name="exclam" horiz-adv-x="153" d="M50 700H103V188H50V700ZM50 86H103V0H50V86Z" />
<glyph unicode="&quot;" glyph-name="quotedbl" horiz-adv-x="273" d="M50 478V700H106V478H50ZM167 478V700H223V478H167Z" />
<glyph unicode="#" glyph-name="numbersign" horiz-adv-x="787" d="M554 241L516 -5L428 -71L397 -29L468 24L500 241H253L217 -5L127 -71L96 -29L167 24L200 241H50V294H208L231 445H50V498H238L274 734L362 800L394 758L323 705L293 498H539L574 734L663 800L695
758L623 705L592 498H737V445H584L562 294H737V241H554ZM285 445L262 294H507L531 445H285Z" />
<glyph unicode="$" glyph-name="dollar" horiz-adv-x="670" d="M480 1H362V-67H308V1H188L40 129V218H93V152L208 55H308V323H147L40 414V573L190 699H308V768H362V699H482L630 573V494H577V548L462 647H362V377H523L630 288V128L480 1ZM308 647H210L93 548V438L165
377H308V647ZM577 263L504 323H362V55H460L577 153V263Z" />
<glyph unicode="%" glyph-name="percent" horiz-adv-x="880" d="M520 697L414 -13L326 -79L294 -37L365 16L471 726L560 792L591 750L520 697ZM264 412H115L50 461V649L115 698H264L330 649V461L264 412ZM277 622L247 644H133L102 622V488L133 466H247L277 488V622ZM551
241L615 290H764L830 241V54L764 5H615L551 54V241ZM634 58H747L777 80V215L747 237H634L602 215V80L634 58Z" />
<glyph unicode="&amp;" glyph-name="ampersand" horiz-adv-x="672" d="M50 81V250L215 361L99 483V622L195 700H382L488 622V480L298 352L555 96L569 108V244H622V78L527 0H137L50 81ZM435 509V595L366 647H214L152 596V505L260 392L435 509ZM506 54L515 62L251
321L103 223V104L159 54H506Z" />
<glyph unicode="&apos;" glyph-name="quotesingle" horiz-adv-x="156" d="M50 478V700H106V478H50Z" />
<glyph unicode="(" glyph-name="parenleft" horiz-adv-x="206" d="M61 629L154 699L183 655L113 605V-56L183 -107L153 -150L61 -80V629Z" />
<glyph unicode=")" glyph-name="parenright" horiz-adv-x="207" d="M65 -150L35 -107L106 -56V605L35 655L65 699L157 629V-80L65 -150Z" />
<glyph unicode="*" glyph-name="asterisk" horiz-adv-x="457" d="M291 494L374 414L336 376L256 459V343H202V459L122 376L83 414L166 494H50V548H166L83 628L122 666L202 583V700H256V583L336 666L374 628L291 548H407V494H291Z" />
<glyph unicode="+" glyph-name="plus" horiz-adv-x="562" d="M308 271V56H255V271H40V324H255V538H308V324H522V271H308Z" />
<glyph unicode="," glyph-name="comma" horiz-adv-x="182" d="M73 -102L35 -65L81 -13V127H132V-35L73 -102Z" />
<glyph unicode="-" glyph-name="hyphen" horiz-adv-x="404" d="M354 266H50V317H353L354 266Z" />
<glyph unicode="." glyph-name="period" horiz-adv-x="151" d="M50 1V73H101V1H50Z" />
<glyph unicode="/" glyph-name="slash" horiz-adv-x="385" d="M272 705L162 -5L71 -71L40 -29L113 25L223 735L314 801L345 758L272 705Z" />
<glyph unicode="0" glyph-name="zero" horiz-adv-x="644" d="M508 0H135L40 125V572L136 700H507L604 572V125L508 0ZM551 554L481 647H161L92 554V145L162 54H481L551 145V554Z" />
<glyph unicode="1" glyph-name="one" horiz-adv-x="332" d="M235 0V647H167L94 596V543H40V622L149 701H289V0H235Z" />
<glyph unicode="2" glyph-name="two" horiz-adv-x="647" d="M516 331L131 122V54H594V0H78V156L480 371L554 480V555L486 648H153L83 555L40 587L126 701H511L607 573V462L516 331Z" />
<glyph unicode="3" glyph-name="three" horiz-adv-x="559" d="M423 0H146L40 78V163H94V106L164 54H404L465 105V264L352 349L465 438V598L403 649H165L94 598V540H40V624L146 702H423L519 623V411L440 350L519 291V78L423 0Z" />
<glyph unicode="4" glyph-name="four" horiz-adv-x="527" d="M308 236V0H256V236H40V633L125 700L158 659L95 607V289H256V405H308V289H497V236H308Z" />
<glyph unicode="5" glyph-name="five" horiz-adv-x="648" d="M511 0H126L40 112L83 146L152 54H484L554 145V222L482 325L77 420V701H578V648H130V463L515 373L608 238V125L511 0Z" />
<glyph unicode="6" glyph-name="six" d="M425 1H43V622L138 700H415L521 623V541H469V596L398 647H157L95 596V389H425L521 311V78L425 1ZM469 287L405 336H95V55H405L469 104V287Z" />
<glyph unicode="7" glyph-name="seven" horiz-adv-x="577" d="M366 -2H308L484 474V554L416 647H154L84 554L40 586L128 700H441L537 572V465L366 -2Z" />
<glyph unicode="8" glyph-name="eight" horiz-adv-x="559" d="M422 -2H137L40 76V291L120 350L40 411V621L137 701H422L519 621V411L440 350L519 291V76L422 -2ZM464 597L404 647H156L94 597V438L173 377H386L464 438V597ZM464 264L387 323H173L94 264V103L156
52H404L464 103V264Z" />
<glyph unicode="9" glyph-name="nine" horiz-adv-x="562" d="M423 -1H146L40 78V159H94V103L165 53H403L465 103V311H136L40 389V621L136 700H519V78L423 -1ZM465 647H156L94 596V414L156 363H465V647Z" />
<glyph unicode=":" glyph-name="colon" horiz-adv-x="131" d="M40 368V441H91V368H40ZM40 51V123H91V51H40Z" />
<glyph unicode=";" glyph-name="semicolon" horiz-adv-x="195" d="M94 101V201H145V101H94ZM68 -149L35 -107L94 -54V3H145V-81L68 -149Z" />
<glyph unicode="&lt;" glyph-name="less" horiz-adv-x="448" d="M40 325L355 548H408V521L98 302L408 83V57H355L40 278V325Z" />
<glyph unicode="=" glyph-name="equal" horiz-adv-x="562" d="M40 346V401H522V346H40ZM40 197V252H522V197H40Z" />
<glyph unicode="&gt;" glyph-name="greater" horiz-adv-x="448" d="M94 57H40V83L350 302L40 521V548H94L408 325V278L94 57Z" />
<glyph unicode="?" glyph-name="question" horiz-adv-x="694" d="M549 325H380V185H326V378H521L591 479V556L522 648H162L93 556L50 588L136 700H549L644 575V463L549 325ZM326 0V85H380V0H326Z" />
<glyph unicode="@" glyph-name="at" horiz-adv-x="835" d="M50 126V574L146 700H689L785 574V126L689 0H535V189L493 157H286L209 222V461L286 525H496L535 482V526H590V54H663L731 145V555L663 647H173L104 555V145L173 54H370V0H146L50 126ZM486 210L535 248V415L483
472H306L262 436V247L306 210H486Z" />
<glyph unicode="A" glyph-name="A" horiz-adv-x="633" d="M540 0V247H92V0H40V342L267 700H350L593 341V0H540ZM539 326L321 646H297L93 327V300L539 299V326Z" />
<glyph unicode="B" glyph-name="B" horiz-adv-x="639" d="M550 0H50V700H550L599 583V485L502 349L599 215V118L550 0ZM546 573L514 647H103V375H456L546 502V573ZM546 198L456 321H103V54H514L546 127V198Z" />
<glyph unicode="C" glyph-name="C" horiz-adv-x="689" d="M606 554L536 647H171L102 554V146L171 54H535L605 147L648 114L561 0H144L48 127V573L144 700H562L649 586L606 554Z" />
<glyph unicode="D" glyph-name="D" horiz-adv-x="685" d="M549 0H50V700H549L645 574V126L549 0ZM591 555L522 647H103V54H522L591 145V555Z" />
<glyph unicode="E" glyph-name="E" horiz-adv-x="528" d="M149 0L50 127V573L149 700H488V647H176L105 554V375H413V321H105V146L176 54H488V0H149Z" />
<glyph unicode="F" glyph-name="F" horiz-adv-x="504" d="M164 647L94 555V381H384V327H94V0H40V574L137 700H474V647H164Z" />
<glyph unicode="G" glyph-name="G" horiz-adv-x="691" d="M554 0H137L40 127V573L137 700H554L640 586L598 554L527 647H163L93 554V146L163 54H527L597 146V237H453V292H651V127L554 0Z" />
<glyph unicode="H" glyph-name="H" horiz-adv-x="602" d="M499 0V325H103V0H50V700H103V379H499V700H552V0H499Z" />
<glyph unicode="I" glyph-name="I" horiz-adv-x="153" d="M50 0V700H103V0H50Z" />
<glyph unicode="J" glyph-name="J" horiz-adv-x="416" d="M268 0H30V54H241L312 145V700H366V126L268 0Z" />
<glyph unicode="K" glyph-name="K" horiz-adv-x="542" d="M431 1L195 324L104 325V0H50V700H104V378H195L431 700H502V647H459L242 351L459 54H502V1H431Z" />
<glyph unicode="L" glyph-name="L" horiz-adv-x="458" d="M148 0L50 126V700H104V145L175 54H428V0H148Z" />
<glyph unicode="M" glyph-name="M" horiz-adv-x="1024" d="M921 0V555L852 647H662L539 36H485L362 647H171L103 555V0H50V574L145 700H405L512 169L618 700H879L974 574V0H921Z" />
<glyph unicode="N" glyph-name="N" horiz-adv-x="686" d="M484 0L321 646H172L102 554V1H50V573L145 699H362L525 54H584V700H636V0H484Z" />
<glyph unicode="O" glyph-name="O" horiz-adv-x="708" d="M563 0H147L50 126V574L147 700H563L658 574V126L563 0ZM605 555L536 647H173L103 555V145L173 54H536L605 145V555Z" />
<glyph unicode="P" glyph-name="P" horiz-adv-x="625" d="M471 321H103V0H50V700H536L585 583V485L471 321ZM532 573L501 647H103V375H442L532 502V573Z" />
<glyph unicode="Q" glyph-name="Q" horiz-adv-x="706" d="M561 0H397V-100L308 -167L276 -124L345 -72V0H147L50 126V573L147 699H561L656 573V126L561 0ZM603 554L535 645H172L103 554V145L172 53H535L603 145V554Z" />
<glyph unicode="R" glyph-name="R" horiz-adv-x="626" d="M471 323H427L570 0H510L370 323H102V0H50V700H536L586 585V486L471 323ZM533 574L501 647H103V376H444L533 503V574Z" />
<glyph unicode="S" glyph-name="S" horiz-adv-x="669" d="M479 0H187L40 127V215H93V151L207 54H459L576 151V253L504 314H146L40 404V574L190 700H482L629 574V491H576V550L461 647H209L93 550V430L165 368H522L629 278V126L479 0Z" />
<glyph unicode="T" glyph-name="T" horiz-adv-x="629" d="M409 647L340 555V0H287V555L217 647H40V700H243L313 609L383 700H589V647H409Z" />
<glyph unicode="U" glyph-name="U" horiz-adv-x="676" d="M531 0H145L50 125V700H103V144L173 54H503L574 144V700H626V125L531 0Z" />
<glyph unicode="V" glyph-name="V" horiz-adv-x="635" d="M313 54H338L542 375V700H595V359L367 0H284L40 361V700H93V378L313 54Z" />
<glyph unicode="W" glyph-name="W" horiz-adv-x="1004" d="M876 0H608L502 531L395 0H128L40 350V700H93V356L169 54H352L474 664H529L652 54H835L911 356V700H964V350L876 0Z" />
<glyph unicode="X" glyph-name="X" horiz-adv-x="665" d="M553 0L332 305L112 0H40V54H85L299 350L85 647H40V700H112L332 396L553 700H625V647H581L366 350L581 54H625V0H553Z" />
<glyph unicode="Y" glyph-name="Y" horiz-adv-x="636" d="M308 305L339 297L543 618V700H596V602L367 244H353V0H253V51H300V244H284L40 605V700H93V621L308 305Z" />
<glyph unicode="Z" glyph-name="Z" horiz-adv-x="610" d="M93 92V54H565V0H40V113L517 612V647H46V700H570V591L93 92Z" />
<glyph unicode="[" glyph-name="bracketleft" horiz-adv-x="232" d="M50 -127V699H192V646H101V-73H192V-127H50Z" />
<glyph unicode="\" glyph-name="backslash" horiz-adv-x="385" d="M314 -73L223 -7L113 703L40 756L71 799L162 733L272 23L345 -31L314 -73Z" />
<glyph unicode="]" glyph-name="bracketright" horiz-adv-x="232" d="M40 -73H131V646H40V699H182V-127H40V-73Z" />
<glyph unicode="^" glyph-name="asciicircum" horiz-adv-x="401" d="M296 502L202 640L107 502H40L179 700H227L361 502H296Z" />
<glyph unicode="_" glyph-name="underscore" horiz-adv-x="576" d="M526 -119H50V-78L526 -77V-119Z" />
<glyph unicode="`" glyph-name="grave" horiz-adv-x="600" d="M50 617V700H97V633L136 583L98 554L50 617Z" />
<glyph unicode="a" glyph-name="a" horiz-adv-x="565" d="M463 1V42L407 0H136L40 80V399L136 477H408L463 421V477H515V1H463ZM463 346L390 425H155L94 374V104L155 54H393L463 108V346Z" />
<glyph unicode="b" glyph-name="b" horiz-adv-x="567" d="M431 0H162L104 41V0H50V700H104V422L158 478H431L527 400V78L431 0ZM475 375L413 425H177L104 349V107L173 54H413L475 104V375Z" />
<glyph unicode="c" glyph-name="c" horiz-adv-x="578" d="M432 -2H157L50 76V400L157 478H432L528 399V317H474V374L414 424H173L104 372V104L173 52H414L474 103V159H528V78L432 -2Z" />
<glyph unicode="d" glyph-name="d" horiz-adv-x="566" d="M462 0V42L406 0H136L40 78V401L136 478H408L462 423V697H516V0H462ZM462 349L391 426H155L94 376V103L155 54H393L462 107V349Z" />
<glyph unicode="e" glyph-name="e" horiz-adv-x="556" d="M94 226V106L163 54H402L465 107L501 65L420 0H146L40 78V400L145 477H420L516 399V226H94ZM462 374L402 425H163L94 372V277H462V374Z" />
<glyph unicode="f" glyph-name="f" horiz-adv-x="373" d="M213 425V0H159V425H33V478H159V575L257 700H343V648H284L213 556V478H343V425H213Z" />
<glyph unicode="g" glyph-name="g" horiz-adv-x="566" d="M410 -222H180L99 -157L133 -117L198 -170H393L462 -118V41L405 0H136L40 78V400L136 477H405L462 436V478H516V-145L410 -222ZM462 373L393 425H155L94 375V104L155 54H393L462 104V373Z" />
<glyph unicode="h" glyph-name="h" horiz-adv-x="537" d="M443 0V374L374 426H176L103 349V1H50V699H103V423L156 478H392L497 401V0H443Z" />
<glyph unicode="i" glyph-name="i" horiz-adv-x="151" d="M50 551V612H101V551H50ZM50 0V478H100V0H50Z" />
<glyph unicode="j" glyph-name="j" horiz-adv-x="194" d="M73 551V619H123V551H73ZM31 -234L1 -192L74 -143V478H125V-167L31 -234Z" />
<glyph unicode="k" glyph-name="k" horiz-adv-x="465" d="M50 0V698H103V255L373 432V480H425V404L175 240L425 72V0H373V44L127 207L103 189V0H50Z" />
<glyph unicode="l" glyph-name="l" horiz-adv-x="295" d="M152 0L50 125V700H104V144L178 54H255V0H152Z" />
<glyph unicode="m" glyph-name="m" horiz-adv-x="782" d="M689 0V333L621 424H475L418 137H365L307 424H162L94 333V0H40V350L136 478H347L391 256L435 478H647L742 350V0H689Z" />
<glyph unicode="n" glyph-name="n" horiz-adv-x="538" d="M444 0V372L374 425H174L104 372V1H50V477H104V432L162 477H392L498 400V0H444Z" />
<glyph unicode="o" glyph-name="o" horiz-adv-x="548" d="M403 -2H146L40 76V400L146 477H403L508 400V76L403 -2ZM454 373L384 425H164L94 373V104L164 52H384L454 104V373Z" />
<glyph unicode="p" glyph-name="p" horiz-adv-x="565" d="M430 0H162L102 44V-222H50V477H102V417L167 478H430L525 400V78L430 0ZM473 374L411 425H183L102 347V104L172 54H411L473 104V374Z" />
<glyph unicode="q" glyph-name="q" horiz-adv-x="565" d="M463 -222V44L403 0H135L40 78V400L135 478H397L463 417V477H515V-222H463ZM463 347L382 425H155L92 374V104L155 54H393L463 104V347Z" />
<glyph unicode="r" glyph-name="r" horiz-adv-x="431" d="M359 396L321 424H173L104 373V0H50V478H104V431L163 478H339L391 439L359 396Z" />
<glyph unicode="s" glyph-name="s" horiz-adv-x="503" d="M370 0H48V50H352L412 101V156L351 212H129L40 292V397L129 476H438V426H148L91 376V313L148 262H371L463 179V77L370 0Z" />
<glyph unicode="t" glyph-name="t" horiz-adv-x="390" d="M220 426V0H166V426H40V478H166V699H220V478H350V426H220Z" />
<glyph unicode="u" glyph-name="u" horiz-adv-x="537" d="M434 0V44L375 0H146L40 78V477H94V108L163 54H364L434 108V477H487V0H434Z" />
<glyph unicode="v" glyph-name="v" horiz-adv-x="523" d="M307 0H230L40 215V478H94V236L253 54H282L430 233V478H483V214L307 0Z" />
<glyph unicode="w" glyph-name="w" horiz-adv-x="781" d="M618 0H437L391 224L344 0H163L40 190V478H94V205L191 54H306L365 341H418L475 54H590L689 205V478H741V190L618 0Z" />
<glyph unicode="x" glyph-name="x" horiz-adv-x="501" d="M250 193L112 0H40V54H85L218 237L85 424H40V477H112L250 283L390 477H461V424H416L283 237L416 54H461V0H390L250 193Z" />
<glyph unicode="y" glyph-name="y" horiz-adv-x="523" d="M159 -172L118 -137L234 2L40 221V478H94V241L253 60H282L430 237V478H483V219L159 -172Z" />
<glyph unicode="z" glyph-name="z" horiz-adv-x="533" d="M119 54H488V0H40V57L437 388L440 424H46V478H493V366L119 54Z" />
<glyph unicode="{" glyph-name="braceleft" horiz-adv-x="277" d="M208 -148L122 -81V165L50 274L122 384V630L208 697L242 655L176 605V369L114 274L176 180V-56L242 -107L208 -148Z" />
<glyph unicode="|" glyph-name="bar" horiz-adv-x="151" d="M50 700H101V0H51L50 700Z" />
<glyph unicode="}" glyph-name="braceright" horiz-adv-x="277" d="M101 -56V180L164 274L101 369V605L35 655L70 697L155 630V384L227 274L155 165V-81L70 -148L35 -107L101 -56Z" />
<glyph unicode="~" glyph-name="asciitilde" horiz-adv-x="569" d="M450 272H142L79 206L40 243L119 324H429L492 389L529 355L450 272Z" />
<glyph unicode="&#xa0;" glyph-name="uni00A0" horiz-adv-x="400" />
<glyph unicode="&#xa1;" glyph-name="exclamdown" horiz-adv-x="153" d="M103 478V392H50V478H103ZM103 290V-222H50V290H103Z" />
<glyph unicode="&#xa2;" glyph-name="cent" horiz-adv-x="556" d="M420 0H305V-69H252V0H146L40 78V396L146 475H252V542H305V475H420L516 396V317H462V371L402 422H305V53H402L462 104V157H516V79L420 0ZM252 422H163L94 370V105L163 53H252V422Z" />
<glyph unicode="&#xa3;" glyph-name="sterling" horiz-adv-x="459" d="M51 0L164 293V418H40V471H164V574L262 699H407V647H289L218 555V471H347V418H218V283L128 50H417V0H51Z" />
<glyph unicode="&#xa4;" glyph-name="currency" horiz-adv-x="603" d="M524 4L463 69L429 44H172L140 69L79 5L40 41L96 101L66 123V444L96 465L40 525L79 562L140 497L172 523H429L464 497L524 561L563 525L507 465L535 444V123L507 101L563 40L524 4ZM482 417L413
469H190L121 417V149L190 98H413L482 149V417Z" />
<glyph unicode="&#xa5;" glyph-name="yen" horiz-adv-x="634" d="M364 270H479V216H353V167H479V114H353V0H300V114H175V167H300V216H175V270H286L40 632V699H93V648L326 309L541 646V699H594V631L364 270Z" />
<glyph unicode="&#xa6;" glyph-name="brokenbar" horiz-adv-x="153" d="M50 703H103V424H50V703ZM50 277H103V1H50V277Z" />
<glyph unicode="&#xa7;" glyph-name="section" horiz-adv-x="407" d="M299 33H108L40 87V141H94V114L128 87H280L313 114V204L270 237H109L40 292V435L85 469L40 502V645L109 700H299L367 645V591H313V619L280 647H128L94 619V528L135 496H293L367 441V297L323
264L367 231V87L299 33ZM313 413L276 441H135L94 409V318L128 291H273L313 323V413Z" />
<glyph unicode="&#xa8;" glyph-name="dieresis" horiz-adv-x="600" d="M50 707H129V660H50V707ZM202 660V707H281V660H202Z" />
<glyph unicode="&#xa9;" glyph-name="copyright" horiz-adv-x="709" d="M563 0H147L50 126V574L147 700H563L659 574V126L563 0ZM605 555L536 647H173L103 555V145L173 54H536L605 145V555ZM455 177H260L182 235V464L260 522H455L526 464V406H475V439L437 471H278L233
439V260L278 228H437L475 260V293H526V236L455 177Z" />
<glyph unicode="&#xaa;" glyph-name="ordfeminine" horiz-adv-x="366" d="M316 700V430H273V451L247 430H109L50 473V657L109 700H247L273 679V700H316ZM272 625L234 653H132L98 627V504L132 478H234L272 506V625Z" />
<glyph unicode="&#xab;" glyph-name="guillemotleft" horiz-adv-x="578" d="M301 471L329 425L133 299L329 170L301 125L50 285V313L301 471ZM510 471L538 425L342 299L538 170L510 125L260 285V313L510 471Z" />
<glyph unicode="&#xac;" glyph-name="logicalnot" horiz-adv-x="522" d="M349 136V188H418V272H40V325H472V136H349Z" />
<glyph unicode="&#xad;" glyph-name="uni00AD" horiz-adv-x="600" d="M354 266H50V317H353L354 266Z" />
<glyph unicode="&#xae;" glyph-name="registered" horiz-adv-x="553" d="M50 279V603L123 700H430L503 603V279L430 182H123L50 279ZM403 235L449 296V586L403 647H151L104 586V296L151 235H403ZM184 559H232V538L271 559H344L387 527L359 488L328 511H280L232
487V324H184V559Z" />
<glyph unicode="&#xaf;" glyph-name="overscore" horiz-adv-x="600" d="M50 700H335V661H50V700Z" />
<glyph unicode="&#xb0;" glyph-name="degree" horiz-adv-x="371" d="M263 377H109L40 428V622L109 673H263L331 622V428L263 377ZM281 597L248 623H123L90 597V453L123 427H248L281 453V597Z" />
<glyph unicode="&#xb1;" glyph-name="plusminus" horiz-adv-x="562" d="M308 284V211H255V284H40V337H255V552H308V337H522V284H308ZM40 92V147H522V92H40Z" />
<glyph unicode="&#xb2;" glyph-name="uni00B2" horiz-adv-x="446" d="M358 475L94 331V295H413V250H51V359L330 510L379 582V627L334 689H107L58 624L24 650L85 733H354L422 643V567L358 475Z" />
<glyph unicode="&#xb3;" glyph-name="uni00B3" horiz-adv-x="386" d="M293 250H100L25 305V370H68V329L114 295H278L318 328V430L237 491L318 555V657L277 690H115L68 657V615H25V679L100 734H293L361 678V532L310 491L361 453V305L293 250Z" />
<glyph unicode="&#xb4;" glyph-name="acute" horiz-adv-x="600" d="M50 583L89 633V700H136V617L89 554L50 583Z" />
<glyph unicode="&#xb5;" glyph-name="uni00B5" horiz-adv-x="537" d="M487 477V0H434V44L375 0H146L94 38V-69H40V477H94V108L163 54H364L434 108V477H487Z" />
<glyph unicode="&#xb6;" glyph-name="paragraph" horiz-adv-x="566" d="M351 375H154L40 485V583L89 700H404V0H351V375ZM463 700H516V0H463V700ZM351 425V654H126L92 571V502L173 425H351Z" />
<glyph unicode="&#xb7;" glyph-name="middot" horiz-adv-x="151" d="M50 265V345H101V265H50Z" />
<glyph unicode="&#xb8;" glyph-name="cedilla" horiz-adv-x="600" d="M97 -225L50 -152V-115H96V-138L122 -180L178 -181L211 -137V-99L148 -40L165 22L210 12L201 -27L257 -79V-153L199 -226L97 -225Z" />
<glyph unicode="&#xb9;" glyph-name="uni00B9" horiz-adv-x="253" d="M171 250V689H128L80 655V617H37V678L113 733H214V250H171Z" />
<glyph unicode="&#xba;" glyph-name="ordmasculine" horiz-adv-x="355" d="M257 430H109L50 473V657L109 700H257L315 657V473L257 430ZM271 630L236 657H130L95 630V501L130 474H236L271 501V630Z" />
<glyph unicode="&#xbb;" glyph-name="guillemotright" horiz-adv-x="578" d="M319 285L68 125L40 170L236 299L40 425L68 471L319 313V285ZM528 285L278 125L250 170L446 299L250 425L278 471L528 313V285Z" />
<glyph unicode="&#xbc;" glyph-name="onequarter" horiz-adv-x="983" d="M171 250V689H128L80 655V617H37V678L113 733H214V250H171ZM230 -28L305 25L582 734L671 797L699 759L625 706L346 -3L258 -66L230 -28ZM834 159V0H792V159H644V436L706 485L732 451L688
414V203H792V283H834V203H965V159H834Z" />
<glyph unicode="&#xbd;" glyph-name="onehalf" horiz-adv-x="1065" d="M171 250V689H128L80 655V617H37V678L113 733H214V250H171ZM230 -28L305 25L582 734L671 797L699 759L625 706L346 -3L258 -66L230 -28ZM977 225L713 81V45H1032V0H670V109L949 260L998 332V377L953
439H726L677 374L643 400L704 483H973L1041 393V317L977 225Z" />
<glyph unicode="&#xbe;" glyph-name="threequarters" horiz-adv-x="1066" d="M293 250H100L25 305V370H68V329L114 295H278L318 328V430L237 491L318 555V657L277 690H115L68 657V615H25V679L100 734H293L361 678V532L310 491L361 453V305L293 250ZM313 -28L388
25L665 734L754 797L782 759L708 706L429 -3L341 -66L313 -28ZM917 159V0H875V159H727V436L789 485L815 451L771 414V203H875V283H917V203H1048V159H917Z" />
<glyph unicode="&#xbf;" glyph-name="questiondown" horiz-adv-x="694" d="M380 481H326V565H380V481ZM644 -10L549 -135H136L50 -23L93 9L162 -82H522L591 9V86L521 188H326V381H380V240H549L644 102V-10Z" />
<glyph unicode="&#xc0;" glyph-name="Agrave" horiz-adv-x="633" d="M540 0V247H92V0H40V342L267 700H350L593 341V0H540ZM539 326L321 646H297L93 327V300L539 299V326ZM274 839V922H321V855L360 805L322 776L274 839Z" />
<glyph unicode="&#xc1;" glyph-name="Aacute" horiz-adv-x="633" d="M540 0V247H92V0H40V342L267 700H350L593 341V0H540ZM539 326L321 646H297L93 327V300L539 299V326ZM274 805L313 855V922H360V839L313 776L274 805Z" />
<glyph unicode="&#xc2;" glyph-name="Acircumflex" horiz-adv-x="633" d="M540 0V247H92V0H40V342L267 700H350L593 341V0H540ZM539 326L321 646H297L93 327V300L539 299V326ZM296 922H342L445 793H392L319 883L245 793H190L296 922Z" />
<glyph unicode="&#xc3;" glyph-name="Atilde" horiz-adv-x="633" d="M540 0V247H92V0H40V342L267 700H350L593 341V0H540ZM539 326L321 646H297L93 327V300L539 299V326ZM157 790L211 843H401L442 883L476 853L420 797H230L190 756L157 790Z" />
<glyph unicode="&#xc4;" glyph-name="Adieresis" horiz-adv-x="633" d="M540 0V247H92V0H40V342L267 700H350L593 341V0H540ZM539 326L321 646H297L93 327V300L539 299V326ZM201 846H280V799H201V846ZM353 799V846H432V799H353Z" />
<glyph unicode="&#xc5;" glyph-name="Aring" horiz-adv-x="633" d="M540 0V247H92V0H40V342L267 700H350L593 341V0H540ZM539 326L321 646H297L93 327V300L539 299V326ZM242 796V897L276 922H357L391 897V796L357 771H276L242 796ZM341 807L355 817V876L341 886H292L278
876V817L292 807H341Z" />
<glyph unicode="&#xc6;" glyph-name="AE" horiz-adv-x="1022" d="M40 342L267 700H350L539 421V573L638 700H977V647H665L594 554V375H902V321H594V146L665 54H977V0H638L539 127V247H92V0H40V342ZM538 299L533 335L360 588L297 646L137 397L93 300L538 299Z" />
<glyph unicode="&#xc7;" glyph-name="Ccedilla" horiz-adv-x="689" d="M605 147L648 114L561 0H403L397 -27L453 -79V-153L395 -226L293 -225L246 -152V-115H292V-138L318 -180L374 -181L407 -137V-99L344 -40L355 0H144L48 127V573L144 700H562L649 586L606 554L536
647H171L102 554V146L171 54H535L605 147Z" />
<glyph unicode="&#xc8;" glyph-name="Egrave" horiz-adv-x="528" d="M149 0L50 127V573L149 700H488V647H176L105 554V375H413V321H105V146L176 54H488V0H149ZM226 839V922H273V855L312 805L274 776L226 839Z" />
<glyph unicode="&#xc9;" glyph-name="Eacute" horiz-adv-x="528" d="M149 0L50 127V573L149 700H488V647H176L105 554V375H413V321H105V146L176 54H488V0H149ZM226 805L265 855V922H312V839L265 776L226 805Z" />
<glyph unicode="&#xca;" glyph-name="Ecircumflex" horiz-adv-x="528" d="M149 0L50 127V573L149 700H488V647H176L105 554V375H413V321H105V146L176 54H488V0H149ZM248 922H294L397 793H344L271 883L197 793H142L248 922Z" />
<glyph unicode="&#xcb;" glyph-name="Edieresis" horiz-adv-x="528" d="M149 0L50 127V573L149 700H488V647H176L105 554V375H413V321H105V146L176 54H488V0H149ZM153 846H232V799H153V846ZM305 799V846H384V799H305Z" />
<glyph unicode="&#xcc;" glyph-name="Igrave" horiz-adv-x="153" d="M50 0V700H103V0H50ZM33 839V922H80V855L119 805L81 776L33 839Z" />
<glyph unicode="&#xcd;" glyph-name="Iacute" horiz-adv-x="153" d="M50 0V700H103V0H50ZM33 805L72 855V922H119V839L72 776L33 805Z" />
<glyph unicode="&#xce;" glyph-name="Icircumflex" horiz-adv-x="345" d="M151 0V700H204V0H151ZM156 922H202L305 793H252L179 883L105 793H50L156 922Z" />
<glyph unicode="&#xcf;" glyph-name="Idieresis" horiz-adv-x="331" d="M140 0V700H193V0H140ZM50 847H129V800H50V847ZM202 800V847H281V800H202Z" />
<glyph unicode="&#xd0;" glyph-name="Eth" horiz-adv-x="788" d="M748 574V126L652 0H153V345H50V389H153V700H652L748 574ZM694 555L625 647H207V389H543V345H207V54H625L694 145V555Z" />
<glyph unicode="&#xd1;" glyph-name="Ntilde" horiz-adv-x="686" d="M484 0L321 646H172L102 554V1H50V573L145 699H362L525 54H584V700H636V0H484ZM188 790L242 843H432L473 883L507 853L451 797H261L221 756L188 790Z" />
<glyph unicode="&#xd2;" glyph-name="Ograve" horiz-adv-x="708" d="M563 0H147L50 126V574L147 700H563L658 574V126L563 0ZM605 555L536 647H173L103 555V145L173 54H536L605 145V555ZM311 839V922H358V855L397 805L359 776L311 839Z" />
<glyph unicode="&#xd3;" glyph-name="Oacute" horiz-adv-x="708" d="M563 0H147L50 126V574L147 700H563L658 574V126L563 0ZM605 555L536 647H173L103 555V145L173 54H536L605 145V555ZM311 805L350 855V922H397V839L350 776L311 805Z" />
<glyph unicode="&#xd4;" glyph-name="Ocircumflex" horiz-adv-x="708" d="M563 0H147L50 126V574L147 700H563L658 574V126L563 0ZM605 555L536 647H173L103 555V145L173 54H536L605 145V555ZM333 922H379L482 793H429L356 883L282 793H227L333 922Z" />
<glyph unicode="&#xd5;" glyph-name="Otilde" horiz-adv-x="708" d="M563 0H147L50 126V574L147 700H563L658 574V126L563 0ZM605 555L536 647H173L103 555V145L173 54H536L605 145V555ZM194 790L248 843H438L479 883L513 853L457 797H267L227 756L194 790Z" />
<glyph unicode="&#xd6;" glyph-name="Odieresis" horiz-adv-x="708" d="M563 0H147L50 126V574L147 700H563L658 574V126L563 0ZM605 555L536 647H173L103 555V145L173 54H536L605 145V555ZM238 846H317V799H238V846ZM390 799V846H469V799H390Z" />
<glyph unicode="&#xd7;" glyph-name="multiply" horiz-adv-x="462" d="M384 108L231 260L78 108L40 146L194 299L40 451L78 489L231 337L384 489L422 452L269 299L422 146L384 108Z" />
<glyph unicode="&#xd8;" glyph-name="Oslash" horiz-adv-x="708" d="M658 574V126L563 0H204L196 -16L108 -79L80 -41L144 5L50 126V574L147 700H503L511 715L600 778L628 740L566 696L658 574ZM103 145L173 54H175L476 647H173L103 555V145ZM605 555L536 647H534L232
54H536L605 145V555Z" />
<glyph unicode="&#xd9;" glyph-name="Ugrave" horiz-adv-x="676" d="M531 0H145L50 125V700H103V144L173 54H503L574 144V700H626V125L531 0ZM295 839V922H342V855L381 805L343 776L295 839Z" />
<glyph unicode="&#xda;" glyph-name="Uacute" horiz-adv-x="676" d="M531 0H145L50 125V700H103V144L173 54H503L574 144V700H626V125L531 0ZM295 805L334 855V922H381V839L334 776L295 805Z" />
<glyph unicode="&#xdb;" glyph-name="Ucircumflex" horiz-adv-x="676" d="M531 0H145L50 125V700H103V144L173 54H503L574 144V700H626V125L531 0ZM317 922H363L466 793H413L340 883L266 793H211L317 922Z" />
<glyph unicode="&#xdc;" glyph-name="Udieresis" horiz-adv-x="676" d="M531 0H145L50 125V700H103V144L173 54H503L574 144V700H626V125L531 0ZM222 846H301V799H222V846ZM374 799V846H453V799H374Z" />
<glyph unicode="&#xdd;" glyph-name="Yacute" horiz-adv-x="636" d="M308 305L339 297L543 618V700H596V602L367 244H353V0H253V51H300V244H284L40 605V700H93V621L308 305ZM275 805L314 855V922H361V839L314 776L275 805Z" />
<glyph unicode="&#xde;" glyph-name="Thorn" horiz-adv-x="625" d="M50 770H103V604H536L585 487V389L471 226H103V-4H50V770ZM442 279L532 406V477L501 551H103V279H442Z" />
<glyph unicode="&#xdf;" glyph-name="germandbls" horiz-adv-x="639" d="M50 700H550L599 583V485L502 349L599 215V118L550 0H210V54H514L546 127V198L456 321H103V0H50V700ZM456 375L546 502V573L514 647H103V375H456Z" />
<glyph unicode="&#xe0;" glyph-name="agrave" horiz-adv-x="565" d="M463 1V42L407 0H136L40 80V399L136 477H408L463 421V477H515V1H463ZM463 346L390 425H155L94 374V104L155 54H393L463 108V346ZM240 627V710H287V643L326 593L288 564L240 627Z" />
<glyph unicode="&#xe1;" glyph-name="aacute" horiz-adv-x="565" d="M463 1V42L407 0H136L40 80V399L136 477H408L463 421V477H515V1H463ZM463 346L390 425H155L94 374V104L155 54H393L463 108V346ZM240 593L279 643V710H326V627L279 564L240 593Z" />
<glyph unicode="&#xe2;" glyph-name="acircumflex" horiz-adv-x="565" d="M463 1V42L407 0H136L40 80V399L136 477H408L463 421V477H515V1H463ZM463 346L390 425H155L94 374V104L155 54H393L463 108V346ZM262 710H308L411 581H358L285 671L211 581H156L262 710Z" />
<glyph unicode="&#xe3;" glyph-name="atilde" horiz-adv-x="565" d="M463 1V42L407 0H136L40 80V399L136 477H408L463 421V477H515V1H463ZM463 346L390 425H155L94 374V104L155 54H393L463 108V346ZM123 577L177 630H367L408 670L442 640L386 584H196L156 543L123 577Z" />
<glyph unicode="&#xe4;" glyph-name="adieresis" horiz-adv-x="565" d="M463 1V42L407 0H136L40 80V399L136 477H408L463 421V477H515V1H463ZM463 346L390 425H155L94 374V104L155 54H393L463 108V346ZM167 633H246V586H167V633ZM319 586V633H398V586H319Z" />
<glyph unicode="&#xe5;" glyph-name="aring" horiz-adv-x="565" d="M463 1V42L407 0H136L40 80V399L136 477H408L463 421V477H515V1H463ZM463 346L390 425H155L94 374V104L155 54H393L463 108V346ZM208 584V685L242 710H323L357 685V584L323 559H242L208 584ZM307
595L321 605V664L307 674H258L244 664V605L258 595H307Z" />
<glyph unicode="&#xe6;" glyph-name="ae" horiz-adv-x="984" d="M522 226V106L591 54H830L893 107L929 65L848 0H574L515 43V1H463V42L407 0H136L40 80V399L136 477H408L463 421V477H515V434L573 477H848L944 399V226H522ZM463 346L390 425H155L94 374V104L155
54H393L463 108V346ZM522 277H890V374L830 425H591L522 372V277Z" />
<glyph unicode="&#xe7;" glyph-name="ccedilla" horiz-adv-x="578" d="M474 317V374L414 424H173L104 372V104L173 52H414L474 103V159H528V78L432 -2H343L337 -27L393 -79V-153L335 -226L233 -225L186 -152V-115H232V-138L258 -180L314 -181L347 -137V-99L284
-40L294 -2H157L50 76V400L157 478H432L528 399V317H474Z" />
<glyph unicode="&#xe8;" glyph-name="egrave" horiz-adv-x="556" d="M94 226V106L163 54H402L465 107L501 65L420 0H146L40 78V400L145 477H420L516 399V226H94ZM462 374L402 425H163L94 372V277H462V374ZM235 620V703H282V636L321 586L283 557L235 620Z" />
<glyph unicode="&#xe9;" glyph-name="eacute" horiz-adv-x="556" d="M94 226V106L163 54H402L465 107L501 65L420 0H146L40 78V400L145 477H420L516 399V226H94ZM462 374L402 425H163L94 372V277H462V374ZM235 586L274 636V703H321V620L274 557L235 586Z" />
<glyph unicode="&#xea;" glyph-name="ecircumflex" horiz-adv-x="556" d="M94 226V106L163 54H402L465 107L501 65L420 0H146L40 78V400L145 477H420L516 399V226H94ZM462 374L402 425H163L94 372V277H462V374ZM257 703H303L406 574H353L280 664L206 574H151L257 703Z" />
<glyph unicode="&#xeb;" glyph-name="edieresis" horiz-adv-x="556" d="M94 226V106L163 54H402L465 107L501 65L420 0H146L40 78V400L145 477H420L516 399V226H94ZM462 374L402 425H163L94 372V277H462V374ZM162 626H241V579H162V626ZM314 579V626H393V579H314Z" />
<glyph unicode="&#xec;" glyph-name="igrave" horiz-adv-x="150" d="M50 0V478H100V0H50ZM31 617V700H78V633L117 583L79 554L31 617Z" />
<glyph unicode="&#xed;" glyph-name="iacute" horiz-adv-x="150" d="M50 0V478H100V0H50ZM31 583L70 633V700H117V617L70 554L31 583Z" />
<glyph unicode="&#xee;" glyph-name="icircumflex" horiz-adv-x="355" d="M153 0V478H203V0H153ZM156 700H202L305 571H252L179 661L105 571H50L156 700Z" />
<glyph unicode="&#xef;" glyph-name="idieresis" horiz-adv-x="331" d="M142 0V478H192V0H142ZM50 623H129V576H50V623ZM202 576V623H281V576H202Z" />
<glyph unicode="&#xf0;" glyph-name="eth" horiz-adv-x="623" d="M516 614V0H136L40 78V326L136 403H462L463 582L408 549L383 591L442 627L395 664L431 702L489 656L547 691L573 649L516 614ZM462 351H155L94 301V103L155 54H462V351Z" />
<glyph unicode="&#xf1;" glyph-name="ntilde" horiz-adv-x="538" d="M444 0V372L374 425H174L104 372V1H50V477H104V432L162 477H392L498 400V0H444ZM109 567L163 620H353L394 660L428 630L372 574H182L142 533L109 567Z" />
<glyph unicode="&#xf2;" glyph-name="ograve" horiz-adv-x="548" d="M403 -2H146L40 76V400L146 477H403L508 400V76L403 -2ZM454 373L384 425H164L94 373V104L164 52H384L454 104V373ZM231 617V700H278V633L317 583L279 554L231 617Z" />
<glyph unicode="&#xf3;" glyph-name="oacute" horiz-adv-x="548" d="M403 -2H146L40 76V400L146 477H403L508 400V76L403 -2ZM454 373L384 425H164L94 373V104L164 52H384L454 104V373ZM231 583L270 633V700H317V617L270 554L231 583Z" />
<glyph unicode="&#xf4;" glyph-name="ocircumflex" horiz-adv-x="548" d="M403 -2H146L40 76V400L146 477H403L508 400V76L403 -2ZM454 373L384 425H164L94 373V104L164 52H384L454 104V373ZM253 700H299L402 571H349L276 661L202 571H147L253 700Z" />
<glyph unicode="&#xf5;" glyph-name="otilde" horiz-adv-x="548" d="M403 -2H146L40 76V400L146 477H403L508 400V76L403 -2ZM454 373L384 425H164L94 373V104L164 52H384L454 104V373ZM114 567L168 620H358L399 660L433 630L377 574H187L147 533L114 567Z" />
<glyph unicode="&#xf6;" glyph-name="odieresis" horiz-adv-x="548" d="M403 -2H146L40 76V400L146 477H403L508 400V76L403 -2ZM454 373L384 425H164L94 373V104L164 52H384L454 104V373ZM158 623H237V576H158V623ZM310 576V623H389V576H310Z" />
<glyph unicode="&#xf7;" glyph-name="divide" horiz-adv-x="562" d="M240 433H322V379H240V433ZM40 328H522V274H40V328ZM240 223H322V169H240V223Z" />
<glyph unicode="&#xf8;" glyph-name="oslash" horiz-adv-x="548" d="M508 400V76L403 -2H181L168 -27L80 -90L52 -52L126 1L130 10L40 76V400L146 477H366L377 499L466 562L494 524L421 472L418 466L508 400ZM155 59L340 425H164L94 373V104L155 59ZM454 373L394
418L208 52H384L454 104V373Z" />
<glyph unicode="&#xf9;" glyph-name="ugrave" horiz-adv-x="537" d="M434 0V44L375 0H146L40 78V477H94V108L163 54H364L434 108V477H487V0H434ZM226 617V700H273V633L312 583L274 554L226 617Z" />
<glyph unicode="&#xfa;" glyph-name="uacute" horiz-adv-x="537" d="M434 0V44L375 0H146L40 78V477H94V108L163 54H364L434 108V477H487V0H434ZM226 583L265 633V700H312V617L265 554L226 583Z" />
<glyph unicode="&#xfb;" glyph-name="ucircumflex" horiz-adv-x="537" d="M434 0V44L375 0H146L40 78V477H94V108L163 54H364L434 108V477H487V0H434ZM248 700H294L397 571H344L271 661L197 571H142L248 700Z" />
<glyph unicode="&#xfc;" glyph-name="udieresis" horiz-adv-x="537" d="M434 0V44L375 0H146L40 78V477H94V108L163 54H364L434 108V477H487V0H434ZM153 623H232V576H153V623ZM305 576V623H384V576H305Z" />
<glyph unicode="&#xfd;" glyph-name="yacute" horiz-adv-x="523" d="M159 -172L118 -137L234 2L40 221V478H94V241L253 60H282L430 237V478H483V219L159 -172ZM219 583L258 633V700H305V617L258 554L219 583Z" />
<glyph unicode="&#xfe;" glyph-name="thorn" horiz-adv-x="565" d="M430 52H157L102 91V-124H50V700H102V474L162 530H430L525 452V130L430 52ZM473 426L411 477H183L102 399V156L172 106H411L473 156V426Z" />
<glyph unicode="&#xff;" glyph-name="ydieresis" horiz-adv-x="523" d="M159 -172L118 -137L234 2L40 221V478H94V241L253 60H282L430 237V478H483V219L159 -172ZM146 623H225V576H146V623ZM298 576V623H377V576H298Z" />
<glyph unicode="&#x2013;" glyph-name="endash" horiz-adv-x="584" d="M534 266H50V317H534V266Z" />
<glyph unicode="&#x2014;" glyph-name="emdash" horiz-adv-x="849" d="M799 266H50V317H799V266Z" />
<glyph unicode="&#x2018;" glyph-name="quoteleft" horiz-adv-x="167" d="M80 503L35 531L64 576V700H117V557L80 503Z" />
<glyph unicode="&#x2019;" glyph-name="quoteright" horiz-adv-x="167" d="M50 699H103V576L132 531L86 503L50 557V699Z" />
<glyph unicode="&#x201a;" glyph-name="quotesinglbase" horiz-adv-x="182" d="M97 -83L52 -55L81 -10V114H134V-29L97 -83Z" />
<glyph unicode="&#x201c;" glyph-name="quotedblleft" horiz-adv-x="279" d="M192 506L147 534L176 579V703H229V560L192 506ZM80 506L35 534L64 579V703H117V560L80 506Z" />
<glyph unicode="&#x201d;" glyph-name="quotedblright" horiz-adv-x="279" d="M50 703H103V579L132 534L86 507L50 561V703ZM162 703H214V579L244 534L198 507L162 561V703Z" />
<glyph unicode="&#x201e;" glyph-name="quotedblbase" horiz-adv-x="271" d="M336 -83L291 -55L320 -10V114H373V-29L336 -83ZM187 -83L142 -55L171 -10V114H224V-29L187 -83Z" />
<glyph unicode="&#x2022;" glyph-name="bullet" horiz-adv-x="276" d="M195 215H81L50 240V370L81 396H195L226 370V240L195 215Z" />
<glyph unicode="&#x2039;" glyph-name="guilsinglleft" horiz-adv-x="369" d="M301 471L329 425L133 299L329 170L301 125L50 285V313L301 471Z" />
<glyph unicode="&#x203a;" glyph-name="guilsinglright" horiz-adv-x="385" d="M335 285L84 125L56 170L252 299L56 425L84 471L335 313V285Z" />
</font>
</defs>
</svg>
