<?xml version="1.0" standalone="no"?>
<!DOCTYPE svg PUBLIC "-//W3C//DTD SVG 1.1//EN" "http://www.w3.org/Graphics/SVG/1.1/DTD/svg11.dtd">
<svg xmlns="http://www.w3.org/2000/svg">
<defs >
<font id="YuseiMagic" horiz-adv-x="980" ><font-face
    font-family="Yusei Magic"
    units-per-em="1000"
    panose-1="2 0 6 0 0 0 0 0 0 0"
    ascent="1160"
    descent="-288"
    alphabetic="0" />
<glyph unicode=" " glyph-name="space" horiz-adv-x="380" />
<glyph unicode="!" glyph-name="exclam" horiz-adv-x="308" d="M218 262Q218 248 208 238T184 228H124Q110 228 100 238T90 262V726Q90 740 100 750T124 760H184Q198 760 208 750T218 726V262ZM218 32Q218 18 208 8T184 -2H124Q110 -2 100 8T90 32V54Q90 68 100
78T124 88H184Q198 88 208 78T218 54V32Z" />
<glyph unicode="&quot;" glyph-name="quotedbl" horiz-adv-x="500" d="M3 730Q3 744 13 754T37 764H103Q117 764 127 754T137 730V684Q137 673 131 665L101 571Q94 549 75 549Q41 549 41 573L52 650H37Q23 650 13 660T3 684V730ZM153 730Q153 744 163 754T187
764H253Q267 764 277 754T287 730V684Q287 673 281 665L251 571Q244 549 225 549Q191 549 191 573L202 650H187Q173 650 163 660T153 684V730Z" />
<glyph unicode="#" glyph-name="numbersign" horiz-adv-x="691" d="M227 23Q221 -6 189 -3L131 3Q103 6 103 31Q103 37 104 41L138 192H113Q80 192 80 222Q80 252 113 252H152L218 542H172Q139 542 139 572Q139 602 172 602H231L262 737Q268 766 300 763L358 757Q386
754 386 729Q386 723 385 719L358 602H442L473 737Q479 766 511 763L569 757Q597 754 597 729Q597 723 596 719L569 602H578Q611 602 611 572Q611 542 578 542H556L490 252H519Q552 252 552 222Q552 192 519 192H476L438 23Q432 -6 400 -3L342 3Q314 6 314 31Q314
37 315 41L349 192H265L227 23ZM279 252H363L429 542H345L279 252Z" />
<glyph unicode="$" glyph-name="dollar" horiz-adv-x="573" d="M23 238Q22 253 32 262T57 272H117Q131 272 140 263T150 241Q155 182 177 142T238 85V381Q169 413 130 440T75 500T58 585Q58 616 77 649T137 708T238 742V744Q238 777 271 777H299Q332 777 332 744V741Q374
733 415 714T498 668Q518 657 518 638Q518 622 502 615L478 604Q474 602 471 601T464 600Q453 600 443 608Q407 636 381 654T332 681V414Q425 371 484 319T543 201Q543 154 516 116T442 54T332 22V-22Q332 -55 299 -55H271Q238 -55 238 -22V23Q145 36 89 93T23
238ZM176 587Q176 551 189 521T238 463V682Q210 670 193 645T176 587ZM418 200Q418 231 397 260T332 322V80Q374 91 396 122T418 200Z" />
<glyph unicode="%" glyph-name="percent" horiz-adv-x="500" d="M119 330Q91 330 67 358T29 435T15 543Q15 603 29 651T67 728T119 756Q148 756 171 728T209 652T224 543Q224 483 210 435T172 359T119 330ZM149 52Q139 27 111 27H97Q68 27 68 50Q68 58 72 66L333
668Q343 693 371 693H385Q414 693 414 670Q414 662 410 654L149 52ZM119 425Q127 425 134 461T141 543Q141 590 134 626T119 662Q112 662 105 626T98 543Q98 497 105 461T119 425ZM381 20Q353 20 329 48T291 125T276 233Q276 293 290 341T329 418T381 446Q410 446
433 418T471 342T485 233Q485 173 471 125T434 49T381 20ZM381 115Q389 115 396 151T403 233Q403 280 396 316T381 352Q373 352 366 316T359 233Q359 187 366 151T381 115Z" />
<glyph unicode="&amp;" glyph-name="ampersand" horiz-adv-x="500" d="M333 362Q341 385 366 385H425Q442 385 455 381T463 359Q452 322 432 280T386 196Q409 155 431 116T473 43Q476 37 476 31Q476 18 464 9T438 0H396Q386 0 376 2T360 16Q349 35 338 55T315
96Q276 49 236 19T162 -11Q91 -11 58 23T24 119Q24 177 52 255T132 423Q109 465 94 492T75 525Q62 546 57 568T51 611Q51 654 72 690T132 748T221 771Q299 771 336 747T373 676Q373 637 350 583T281 458Q270 441 260 423Q273 399 287 374T317 320Q327 344 333 362ZM185
555Q190 547 199 532Q226 578 238 614T251 672Q251 709 221 709Q211 709 201 691T184 647T177 596Q177 584 179 574T185 555ZM148 85Q148 51 162 51Q167 51 181 72T216 126T257 199Q243 225 229 250T201 299Q176 234 162 176T148 85Z" />
<glyph unicode="&apos;" glyph-name="quotesingle" horiz-adv-x="312" d="M74 730Q74 744 84 754T108 764H174Q188 764 198 754T208 730V684Q208 673 202 665L172 571Q165 549 146 549Q112 549 112 573L123 650H108Q94 650 84 660T74 684V730Z" />
<glyph unicode="(" glyph-name="parenleft" horiz-adv-x="500" d="M427 -2Q431 -11 431 -20Q431 -39 408 -45L359 -57Q351 -59 348 -59Q327 -59 316 -37Q196 200 196 355Q196 510 316 747Q327 769 348 769Q351 769 359 767L408 755Q431 749 431 730Q431 721 427
712Q378 612 351 520T324 355Q324 283 351 191T427 -2Z" />
<glyph unicode=")" glyph-name="parenright" horiz-adv-x="500" d="M79 -2Q75 -11 75 -20Q75 -39 98 -45L147 -57Q155 -59 158 -59Q179 -59 190 -37Q310 200 310 355Q310 510 190 747Q179 769 158 769Q155 769 147 767L98 755Q75 749 75 730Q75 721 79 712Q128
612 155 520T182 355Q182 283 155 191T79 -2Z" />
<glyph unicode="*" glyph-name="asterisk" horiz-adv-x="423" d="M118 537Q111 533 103 533Q92 533 84 540L80 544Q64 557 64 575Q64 595 85 607L134 635L85 664Q60 678 60 700Q60 711 69 718L85 731Q94 738 103 738Q111 738 119 733L167 705V726Q167 740 174
750T191 760H233Q243 760 250 750T257 726V706L305 733Q312 737 320 737Q331 737 339 730L343 726Q359 713 359 695Q359 675 338 663L289 635L338 606Q363 592 363 570Q363 560 354 552L338 539Q329 532 320 532Q312 532 304 537L257 564V544Q257 530 250 520T233
510H191Q181 510 174 520T167 544V565L118 537Z" />
<glyph unicode="+" glyph-name="plus" horiz-adv-x="500" d="M298 117Q298 96 282 96H220Q204 96 204 117V306H85Q64 306 64 327V343Q64 364 85 364H204V543Q204 564 220 564H282Q298 564 298 543V364H416Q437 364 437 343V327Q437 306 416 306H298V117Z" />
<glyph unicode="," glyph-name="comma" horiz-adv-x="308" d="M74 80Q74 94 84 104T108 114H174Q188 114 198 104T208 80V34Q208 23 202 15L172 -79Q165 -101 146 -101Q112 -101 112 -77L123 0H108Q94 0 84 10T74 34V80Z" />
<glyph unicode="-" glyph-name="hyphen" horiz-adv-x="500" d="M64 291Q64 305 74 315T98 325H402Q416 325 426 315T436 291Q436 278 426 269T402 259H98Q84 259 74 267T64 291Z" />
<glyph unicode="." glyph-name="period" horiz-adv-x="284" d="M69 80Q69 94 79 104T103 114H169Q183 114 193 104T203 80V34Q203 20 193 10T169 0H103Q89 0 79 10T69 34V80Z" />
<glyph unicode="/" glyph-name="slash" horiz-adv-x="529" d="M200 19Q190 -9 160 -5L106 4Q80 9 80 31Q80 34 80 37T82 44L329 741Q339 769 369 765L423 756Q449 751 449 729Q449 726 449 723T447 716L200 19Z" />
<glyph unicode="0" glyph-name="zero" horiz-adv-x="594" d="M311 770Q436 770 500 675T564 401Q564 202 497 96T298 -10Q169 -10 100 96T30 393Q30 577 101 673T311 770ZM311 710Q241 710 200 627T158 393Q158 293 177 216T229 94T298 50Q337 50 368 94T417 217T436
401Q436 494 420 563T375 671T311 710Z" />
<glyph unicode="1" glyph-name="one" horiz-adv-x="397" d="M277 34Q277 20 267 10T243 0H183Q169 0 159 10T149 34V535Q145 533 140 533Q134 533 131 534L88 545Q75 548 68 557T60 578Q60 586 65 598L147 749Q157 768 177 765L248 756Q261 755 269 746T277 724V34Z" />
<glyph unicode="2" glyph-name="two" horiz-adv-x="546" d="M444 60Q477 60 477 30Q477 0 444 0H84Q56 0 56 18Q56 29 68 41Q165 145 237 244T348 428T388 567Q388 605 374 638T335 691T284 711Q229 711 196 647T158 460Q156 426 124 426H62Q28 426 30 460Q42
771 284 771Q347 771 399 743T484 669T516 567Q516 513 480 435T377 261T216 60H444Z" />
<glyph unicode="3" glyph-name="three" horiz-adv-x="557" d="M30 174Q28 191 37 199T62 208H124Q154 208 158 175Q170 49 285 49Q347 49 373 80T399 191Q399 249 385 279T337 323T243 338Q217 339 211 358Q211 358 211 358Q210 360 210 362Q209 364 209 365T209
363Q209 366 209 369Q209 371 209 373Q209 375 210 376Q210 377 210 378Q211 380 211 381Q211 382 212 383Q219 399 243 399Q294 401 325 408T372 433T393 483T399 567Q399 605 385 637T346 689T295 709Q246 709 211 659T169 528Q168 495 136 495H74Q58 495 50
504T42 529Q49 602 82 655T170 739T295 769Q358 769 410 742T495 668T527 567Q527 487 502 439T417 367Q473 343 500 301T527 191Q527 91 465 40T285 -11Q178 -11 110 38T30 174Z" />
<glyph unicode="4" glyph-name="four" horiz-adv-x="607" d="M481 33Q481 0 448 0H386Q353 0 353 33V123H71Q35 123 41 158L131 724Q136 755 168 752L228 748Q262 745 257 711L173 183H353V727Q353 760 386 760H448Q481 760 481 727V183H544Q577 183 577 153Q577
123 544 123H481V33Z" />
<glyph unicode="5" glyph-name="five" horiz-adv-x="543" d="M50 31Q32 39 32 53Q32 68 49 77L67 87Q79 93 88 93Q101 93 112 86Q147 66 186 58T257 49Q314 49 349 92T385 207Q385 392 256 392Q227 392 191 384T111 358Q102 355 94 355Q70 355 72 384L85 739Q86
771 119 771L181 770Q198 770 206 760H462Q495 760 495 730Q495 700 462 700H212L202 450Q217 452 231 453T259 454Q335 454 392 425T481 341T513 207Q513 144 480 95T388 17T257 -11Q225 -11 188 -6T114 10T50 31Z" />
<glyph unicode="6" glyph-name="six" horiz-adv-x="583" d="M553 213Q553 145 524 95T441 17T315 -11Q182 -11 114 64T45 282Q45 379 59 467T103 623T184 731T306 771Q365 771 404 751T471 695T527 611Q532 601 532 594Q532 575 507 569L457 558Q454 557 451 557T445
557Q434 557 426 562T415 578Q400 643 373 677T306 711Q277 711 255 686T218 619T193 522T178 411Q212 430 249 441T326 452Q395 452 446 422T525 339T553 213ZM173 282Q173 49 315 49Q366 49 395 93T425 213Q425 265 412 305T376 369T326 392Q287 392 243 363T173
284V282Z" />
<glyph unicode="7" glyph-name="seven" horiz-adv-x="565" d="M369 17Q363 -14 332 -11L272 -5Q238 -2 244 32L382 700H162L176 406Q177 390 169 381T144 371L82 370Q49 370 48 402L32 736Q31 752 39 761T64 771L126 772Q146 772 154 760H485Q515 760 515 734Q515
728 514 724L369 17Z" />
<glyph unicode="8" glyph-name="eight" horiz-adv-x="601" d="M426 385Q489 356 530 303T571 189Q571 130 536 85T441 14T307 -11Q227 -11 165 12T66 77T30 177Q30 244 71 299T178 385Q123 415 88 467T53 578Q53 629 85 673T173 744T296 771Q345 771 389 754T468
706T522 639T542 562Q542 508 510 461T426 385ZM296 711Q243 711 212 673T181 578Q181 536 199 498T245 436T303 412Q330 412 355 433T397 489T414 562Q414 599 398 633T355 689T296 711ZM307 49Q368 49 405 85T443 189Q443 232 423 269T371 329T303 352Q264 352
231 329T178 265T158 177Q158 110 196 80T307 49Z" />
<glyph unicode="9" glyph-name="nine" horiz-adv-x="548" d="M426 25Q420 -6 389 -3L328 3Q294 6 300 40L343 268Q304 252 262 252Q150 252 90 318T30 509Q30 560 50 607T104 691T183 749T278 771Q357 771 412 739T495 649T517 516Q517 512 516 509Q516 504 515
498L426 25ZM158 509Q158 413 186 363T262 312Q283 312 307 339T354 411T388 509L389 513Q390 518 391 521V525Q391 531 391 537T392 549Q392 619 362 665T278 711Q257 711 236 693T197 646T169 581T158 509Z" />
<glyph unicode=":" glyph-name="colon" horiz-adv-x="334" d="M100 476Q100 490 110 500T134 510H200Q214 510 224 500T234 476V430Q234 416 224 406T200 396H134Q120 396 110 406T100 430V476ZM100 150Q100 164 110 174T134 184H200Q214 184 224 174T234 150V104Q234
90 224 80T200 70H134Q120 70 110 80T100 104V150Z" />
<glyph unicode=";" glyph-name="semicolon" horiz-adv-x="334" d="M100 476Q100 490 110 500T134 510H200Q214 510 224 500T234 476V430Q234 416 224 406T200 396H134Q120 396 110 406T100 430V476ZM100 150Q100 164 110 174T134 184H200Q214 184 224 174T234
150V104Q234 93 228 85L198 -9Q191 -31 172 -31Q138 -31 138 -7L149 70H134Q120 70 110 80T100 104V150Z" />
<glyph unicode="&lt;" glyph-name="less" horiz-adv-x="500" d="M367 100Q380 92 391 92Q402 92 413 100L426 109Q441 120 441 132Q441 145 426 155L176 324L432 530Q446 542 446 553Q446 565 429 576L410 587Q399 593 388 593Q376 593 364 584L68 346Q55 336
55 323Q55 311 70 300L367 100Z" />
<glyph unicode="=" glyph-name="equal" horiz-adv-x="500" d="M64 413Q64 424 74 431T98 439H402Q416 439 426 432T436 413Q436 403 426 396T402 388H98Q84 388 74 395T64 413ZM64 263Q64 274 74 281T98 289H402Q416 289 426 282T436 263Q436 253 426 246T402
238H98Q84 238 74 245T64 263Z" />
<glyph unicode="&gt;" glyph-name="greater" horiz-adv-x="500" d="M134 100Q121 92 110 92Q99 92 88 100L75 109Q60 120 60 132Q60 145 75 155L325 324L69 530Q55 542 55 553Q55 565 72 576L91 587Q102 593 113 593Q125 593 137 584L433 346Q446 336 446 323Q446
311 431 300L134 100Z" />
<glyph unicode="?" glyph-name="question" horiz-adv-x="542" d="M157 434Q157 419 148 409T124 399H63Q49 399 39 409T30 434Q35 606 94 684T284 762Q392 762 452 708T512 552Q512 509 500 480T457 427T374 379Q353 369 341 341T326 262Q325 247 316 238T293
228H232Q217 228 207 238T198 263Q201 309 213 339T251 391T320 433Q357 450 370 475T384 552Q384 629 359 665T284 702Q225 702 193 639T157 434ZM325 32Q325 18 315 8T291 -2H231Q217 -2 207 8T197 32V54Q197 68 207 78T231 88H291Q305 88 315 78T325 54V32Z"
/>
<glyph unicode="@" glyph-name="at" horiz-adv-x="831" d="M411 127Q359 127 324 154T272 230T254 340Q254 404 272 453T325 531T413 560Q476 560 517 529T580 448T601 344Q601 335 600 325Q603 310 606 298T612 276Q616 290 619 306T623 339Q623 409 594 467T516
559T408 594Q354 594 309 560T236 470T208 345Q208 221 259 152T404 82Q468 82 499 98T550 137Q562 149 575 149Q578 149 584 147L603 141Q617 137 625 126T633 104Q633 86 617 76Q586 57 534 40T404 22Q304 22 231 61T119 172T80 345Q80 409 105 465T176 563T280
630T408 654Q479 654 541 630T650 562T724 461T751 339Q751 299 730 261T675 199T601 175Q569 175 547 187Q524 160 490 144T411 127ZM411 187Q431 187 443 210T462 269T469 344Q469 383 463 418T444 477T413 500Q413 500 405 488T390 441T382 340Q382 278 389
245T403 200T411 187Z" />
<glyph unicode="A" glyph-name="A" horiz-adv-x="580" d="M548 37Q550 29 550 26Q550 0 520 0H469Q440 0 433 29L393 195H188L147 29Q140 0 111 0H60Q30 0 30 26Q30 29 32 37L220 732Q227 760 257 760H323Q353 760 360 732L548 37ZM202 255H378L290 615L202 255Z" />
<glyph unicode="B" glyph-name="B" horiz-adv-x="590" d="M50 728Q50 760 83 763Q124 767 160 768T229 770Q337 770 402 745T496 674T526 567Q526 507 495 463T380 394Q540 339 540 211Q540 142 510 93T410 17T226 -10Q195 -10 160 -9T84 -3Q50 0 50 31V728ZM166
709V429Q261 431 317 447T397 494T422 567Q422 608 407 640T352 692T244 711Q229 711 207 711T166 709ZM166 50Q180 49 198 49T227 49Q324 49 375 88T426 211Q426 288 367 326T166 369V50Z" />
<glyph unicode="C" glyph-name="C" horiz-adv-x="634" d="M457 145Q465 173 497 173H552Q565 173 572 163T580 141Q580 131 576 124Q558 84 521 54T437 7T342 -10Q255 -10 184 35T72 163T30 354Q30 437 53 512T119 645T215 736T331 770Q372 770 415 753T496 706T563
639T603 563Q604 561 604 558T604 553Q604 540 596 531T574 521H512Q484 521 476 553Q467 590 446 626T396 686T331 710Q291 710 259 679T204 595T170 480T158 354Q158 289 174 234T217 137T276 73T342 50Q361 50 383 58T426 87T457 145Z" />
<glyph unicode="D" glyph-name="D" horiz-adv-x="616" d="M79 -1Q66 1 58 10T50 31V731Q50 743 57 752T78 763Q105 767 130 768T179 770Q299 770 390 727T534 597T586 385Q586 335 576 281T541 174T472 81T361 15T199 -10Q145 -10 79 -1ZM178 51Q312 48 387 127T462
385Q462 495 426 566T325 673T178 710V51Z" />
<glyph unicode="E" glyph-name="E" horiz-adv-x="538" d="M463 60Q496 60 496 30Q496 0 463 0H73Q40 0 40 33V727Q40 760 73 760H463Q496 760 496 730Q496 700 463 700H168V404H436Q469 404 469 374Q469 344 436 344H168V60H463Z" />
<glyph unicode="F" glyph-name="F" horiz-adv-x="538" d="M168 24Q168 10 158 0T134 -10H74Q60 -10 50 0T40 24V726Q40 740 50 750T74 760H462Q476 760 486 752T496 730Q496 717 486 709T462 700H168V394H435Q449 394 459 386T469 364Q469 351 459 343T435 334H168V24Z" />
<glyph unicode="G" glyph-name="G" horiz-adv-x="636" d="M342 264Q309 264 309 294Q309 324 342 324H572Q606 324 606 291Q606 202 575 134T486 28T342 -10Q255 -10 184 35T72 163T30 354Q30 437 54 511T119 644T215 736T331 770Q408 770 463 740T554 662T603
561Q604 558 604 552Q604 526 574 524L512 521Q484 520 476 551Q467 588 448 624T401 685T331 710Q294 710 263 679T208 595T171 479T158 354Q158 268 182 199T248 90T342 50Q381 50 410 78T456 155T477 264H342Z" />
<glyph unicode="H" glyph-name="H" horiz-adv-x="648" d="M178 34Q178 20 168 10T144 0H84Q70 0 60 10T50 34V726Q50 740 60 750T84 760H144Q158 760 168 750T178 726V369H470V726Q470 740 480 750T504 760H564Q578 760 588 750T598 726V34Q598 20 588 10T564
0H504Q490 0 480 10T470 34V309H178V34Z" />
<glyph unicode="I" glyph-name="I" horiz-adv-x="402" d="M250 64Q250 61 250 60H293Q307 60 317 52T327 30Q327 17 317 9T293 0H79Q65 0 55 8T45 30Q45 43 55 51T79 60H122V64V696Q122 699 122 700H79Q65 700 55 708T45 730Q45 743 55 751T79 760H293Q307 760
317 752T327 730Q327 717 317 709T293 700H250V696V64Z" />
<glyph unicode="J" glyph-name="J" horiz-adv-x="580" d="M18 221Q17 236 27 246T52 256H112Q126 256 135 247T146 221Q149 127 174 89T262 50Q319 50 340 98T362 263V726Q362 740 372 750T396 760H456Q470 760 480 750T490 726V263Q490 228 487 191T473 117T437
53T370 7T262 -10Q190 -10 143 8T70 59T32 132T18 221Z" />
<glyph unicode="K" glyph-name="K" horiz-adv-x="591" d="M165 33Q165 0 132 0H83Q50 0 50 33V727Q50 760 83 760H132Q165 760 165 727V419L417 740Q434 760 457 760H500Q528 760 528 741Q528 732 519 720L253 398L521 40Q529 29 529 20Q529 0 501 0H458Q432 0
418 20L196 328L172 299Q168 295 165 292V33Z" />
<glyph unicode="L" glyph-name="L" horiz-adv-x="535" d="M471 60Q485 60 495 52T505 30Q505 17 495 9T471 0H84Q70 0 60 10T50 34V726Q50 740 60 750T84 760H144Q158 760 168 750T178 726V60H471Z" />
<glyph unicode="M" glyph-name="M" horiz-adv-x="713" d="M381 144Q372 124 359 124Q346 124 337 144L160 530V33Q160 0 127 0H83Q50 0 50 33V727Q50 760 83 760H121Q148 760 160 735L357 323L553 735Q564 760 592 760H630Q663 760 663 727V33Q663 0 630 0H586Q553
0 553 33V527L381 144Z" />
<glyph unicode="N" glyph-name="N" horiz-adv-x="638" d="M480 727Q480 760 513 760H555Q588 760 588 727V33Q588 0 555 0H483Q456 0 444 24L158 593V33Q158 0 125 0H83Q50 0 50 33V727Q50 760 83 760H155Q182 760 194 736L480 167V727Z" />
<glyph unicode="O" glyph-name="O" horiz-adv-x="661" d="M631 367Q631 253 593 169T489 37T342 -10Q255 -10 184 35T72 163T30 354Q30 437 53 512T119 645T215 736T331 770Q394 770 448 741T544 657T608 529T631 367ZM503 367Q503 459 484 534T426 653T331 697Q292
697 260 668T206 589T171 478T158 354Q158 268 180 202T243 98T342 60Q392 60 428 100T483 211T503 367Z" />
<glyph unicode="P" glyph-name="P" horiz-adv-x="577" d="M178 34Q178 20 168 10T144 0H84Q70 0 60 10T50 34V731Q50 744 58 753T80 763Q115 767 146 768T207 770Q547 770 547 507Q547 395 462 339T212 282Q204 282 196 282T178 283V34ZM178 711V343Q200 342 219
342Q295 342 338 358T400 411T419 507Q419 582 400 626T335 691T210 711H178Z" />
<glyph unicode="Q" glyph-name="Q" horiz-adv-x="674" d="M575 -24Q581 -34 581 -43Q581 -60 560 -68L541 -75Q534 -78 526 -78Q509 -78 498 -59L457 10Q408 -10 351 -10Q253 -10 181 36T70 164T30 354Q30 438 53 513T118 646T216 737T338 770Q430 770 499 718T606
574T644 367Q644 264 614 184T528 54L575 -24ZM516 367Q516 438 502 500T463 609T406 683T338 710Q306 710 274 680T216 598T174 483T158 354Q158 265 182 197T250 89T351 50Q386 50 417 75L289 288Q283 299 283 307Q283 325 304 332L323 339Q331 342 338 342Q355
342 366 323L472 147Q493 190 504 246T516 367Z" />
<glyph unicode="R" glyph-name="R" horiz-adv-x="577" d="M511 39Q525 17 525 9Q525 0 507 0H434Q418 0 409 13L214 324Q213 326 212 327H209Q199 327 189 327T168 328V34Q168 20 158 10T134 0H84Q70 0 60 10T50 34V731Q50 744 58 753T80 763Q115 766 146 768T207
770Q547 770 547 532Q547 449 490 400T323 334L511 39ZM168 709V389Q198 387 225 387Q335 387 382 421T429 532Q429 629 381 669T214 710Q206 710 192 710T168 709Z" />
<glyph unicode="S" glyph-name="S" horiz-adv-x="573" d="M23 225Q22 241 32 251T57 261H117Q131 261 140 252T150 228Q156 146 192 98T289 50Q351 50 384 86T418 184Q418 230 376 275T252 372Q178 409 136 438T76 504T58 598Q58 635 82 675T157 742T283 770Q339
770 392 748T498 687Q518 675 518 655Q518 638 502 630L478 618Q474 617 471 616T464 614Q453 614 443 622Q386 669 352 690T283 712Q237 712 207 680T176 600Q176 548 200 506T301 429Q371 397 425 360T511 279T543 185Q543 129 510 85T420 16T289 -10Q174 -10
104 54T23 225Z" />
<glyph unicode="T" glyph-name="T" horiz-adv-x="544" d="M336 34Q336 20 326 10T302 0H242Q228 0 218 10T208 34V696Q208 699 208 700H64Q50 700 40 708T30 730Q30 743 40 751T64 760H480Q494 760 504 752T514 730Q514 717 504 709T480 700H336V696V34Z" />
<glyph unicode="U" glyph-name="U" horiz-adv-x="600" d="M427 726Q427 740 437 750T461 760H521Q535 760 545 750T555 726V247Q555 129 488 60T299 -10Q177 -10 110 59T43 247V726Q43 740 53 750T77 760H137Q151 760 161 750T171 726V247Q171 154 203 102T299
50Q363 50 395 102T427 247V726Z" />
<glyph unicode="V" glyph-name="V" horiz-adv-x="564" d="M412 737Q415 750 425 755T447 760H503Q517 760 525 747T534 719Q534 717 534 714T533 709L350 23Q344 0 320 0H244Q220 0 214 23L31 709Q30 711 30 714T30 719Q30 734 38 747T61 760H117Q129 760 139
755T152 736L282 158L412 737Z" />
<glyph unicode="W" glyph-name="W" horiz-adv-x="712" d="M575 730Q580 760 611 760H652Q687 760 682 725L573 30Q569 0 537 0H501Q471 0 465 29L359 508L248 29Q242 0 211 0H175Q144 0 139 30L30 725Q25 760 60 760H101Q133 760 137 730L212 257L307 690Q313
719 343 719H377Q407 719 413 690L501 263L575 730Z" />
<glyph unicode="X" glyph-name="X" horiz-adv-x="600" d="M194 17Q190 7 180 4T159 0H112Q76 0 76 25Q76 40 87 62L243 380L87 698Q75 724 75 737Q75 751 84 755T112 760H159Q170 760 180 757T194 743L308 511L422 743Q427 753 437 756T457 760H504Q540 760 540
735Q540 719 529 698L373 380L529 62Q542 36 542 22Q542 9 532 5T504 0H457Q447 0 437 3T422 17L308 249L194 17Z" />
<glyph unicode="Y" glyph-name="Y" horiz-adv-x="600" d="M363 34Q363 20 353 10T329 0H269Q255 0 245 10T235 34V285L59 700Q49 721 49 737Q49 760 85 760H125Q136 760 146 756T160 741L296 399L438 741Q443 752 452 756T473 760H513Q550 760 550 738Q550 727
539 700L363 296V34Z" />
<glyph unicode="Z" glyph-name="Z" horiz-adv-x="600" d="M498 60Q512 60 522 52T532 30Q532 17 522 9T498 0H121Q102 0 91 11T80 38Q80 46 85 58L400 700H118Q104 700 94 708T84 730Q84 743 94 751T118 760H494Q513 760 524 749T535 722Q535 714 530 702L215 60H498Z" />
<glyph unicode="[" glyph-name="bracketleft" horiz-adv-x="500" d="M399 -35Q432 -35 432 -65Q432 -95 399 -95H250Q217 -95 217 -62V773Q217 806 250 806H399Q432 806 432 776Q432 746 399 746H345V-35H399Z" />
<glyph unicode="\" glyph-name="backslash" horiz-adv-x="500" d="M323 19Q333 -9 363 -5L417 4Q443 9 443 31Q443 34 443 37T441 44L194 741Q184 769 154 765L100 756Q74 751 74 729Q74 726 74 723T76 716L323 19Z" />
<glyph unicode="]" glyph-name="bracketright" horiz-adv-x="500" d="M101 -35Q68 -35 68 -65Q68 -95 101 -95H250Q283 -95 283 -62V773Q283 806 250 806H101Q68 806 68 776Q68 746 101 746H155V-35H101Z" />
<glyph unicode="^" glyph-name="asciicircum" horiz-adv-x="500" d="M434 579Q443 566 443 547Q443 529 431 529H389Q377 529 368 540T351 566Q345 578 330 603T298 661T263 722Q246 693 227 660T193 600T174 566Q167 550 158 540T136 529H94Q82 529 82 547Q82
566 91 579Q94 583 104 602T130 649T159 703T184 751T197 777Q202 790 212 800T235 811H290Q303 811 313 801T328 777Q330 772 340 752T365 704T395 649T420 603T434 579Z" />
<glyph unicode="_" glyph-name="underscore" horiz-adv-x="500" d="M24 -87Q24 -76 34 -69T58 -61H442Q456 -61 466 -68T476 -87Q476 -97 466 -104T442 -112H58Q44 -112 34 -105T24 -87Z" />
<glyph unicode="`" glyph-name="grave" horiz-adv-x="500" d="M213 977Q220 977 224 975T237 963Q241 959 252 946T278 915T304 883T323 860Q331 851 331 841Q331 833 326 828T314 822H258Q239 822 224 839Q221 843 210 857T184 890T158 923T141 945Q134 952 134
961Q134 977 151 977H213Z" />
<glyph unicode="a" glyph-name="a" horiz-adv-x="569" d="M225 -10Q161 -10 117 23T49 116T25 251Q25 326 52 387T129 484T244 520Q330 520 387 484T472 389T500 266Q500 262 500 258Q507 191 516 137T534 46Q535 43 535 38Q535 8 504 3L447 -4Q419 -7 412 19Q408
35 405 52Q371 23 326 7T225 -10ZM225 50Q274 50 306 82T354 165T371 268Q371 268 371 268T371 272Q370 277 370 283Q370 288 370 292Q367 336 352 374T310 436T244 460Q223 460 202 430T167 351T153 251Q153 199 164 153T192 79T225 50Z" />
<glyph unicode="b" glyph-name="b" horiz-adv-x="588" d="M299 520Q390 520 447 482T531 383T558 250Q558 179 526 120T439 26T312 -10Q232 -10 187 24Q180 0 154 0H104Q90 0 80 10T70 34V726Q70 740 80 750T104 760H154Q168 760 178 750T188 726V478Q209 498
237 509T299 520ZM299 453Q272 453 247 427T206 355T189 255Q189 156 222 103T312 50Q342 50 374 72T428 139T450 250Q450 307 432 353T379 426T299 453Z" />
<glyph unicode="c" glyph-name="c" horiz-adv-x="557" d="M515 373Q518 366 518 360Q518 347 508 339T484 328L430 323Q418 322 409 329T396 348Q381 398 351 429T277 460Q244 460 217 432T174 357T158 254Q158 158 192 104T291 50Q335 50 362 83T402 177Q409
206 437 204L494 199Q508 198 517 189T527 167Q527 163 525 157Q503 82 442 36T291 -10Q167 -10 99 61T30 254Q30 330 61 390T148 485T277 520Q332 520 379 500T462 447T515 373Z" />
<glyph unicode="d" glyph-name="d" horiz-adv-x="588" d="M518 34Q518 20 508 10T484 0H434Q418 0 409 9T400 32Q373 12 337 1T256 -10Q185 -10 134 23T57 115T30 250Q30 327 60 388T143 484T269 520Q309 520 341 508T400 474V726Q400 740 410 750T434 760H484Q498
760 508 750T518 726V34ZM269 460Q238 460 211 431T166 353T148 250Q148 195 163 150T203 77T256 50Q319 50 354 106T389 255Q389 308 372 354T328 430T269 460Z" />
<glyph unicode="e" glyph-name="e" horiz-adv-x="559" d="M473 67Q442 36 395 13T291 -10Q167 -10 99 61T30 254Q30 330 61 390T148 485T277 520Q352 520 408 488T497 400T529 271Q529 257 520 248T496 239H138Q142 150 185 100T291 50Q323 50 342 67T380 115Q391
137 414 132L451 123Q482 115 482 88Q482 76 473 67ZM277 460Q248 460 220 439T171 381T142 299H400Q394 370 361 415T277 460Z" />
<glyph unicode="f" glyph-name="f" horiz-adv-x="441" d="M255 34Q255 20 245 10T221 0H161Q147 0 137 10T127 34V450H64Q50 450 40 458T30 480Q30 493 40 501T64 510H127V552Q127 627 142 675T193 746T295 770Q363 770 404 733T456 635Q459 619 449 609T422 598H363Q350
598 341 607T329 631Q326 666 317 688T295 710Q282 710 273 697T260 650T255 552V510H403Q417 510 427 502T437 480Q437 467 427 459T403 450H255V34Z" />
<glyph unicode="g" glyph-name="g" horiz-adv-x="588" d="M110 -124Q99 -113 99 -100Q99 -74 129 -64L161 -54Q164 -53 169 -53Q186 -53 196 -68Q222 -106 239 -118T285 -130Q339 -130 369 -107T400 -34V36Q374 14 342 2T269 -10Q198 -10 144 25T60 122T30 261Q30
337 57 395T134 486T256 520Q301 520 337 509T400 478Q401 492 410 501T434 510H484Q498 510 508 500T518 476V-34Q518 -80 488 -115T404 -170T285 -190Q178 -190 110 -124ZM269 51Q300 51 330 72T379 138T399 255Q399 364 362 411T256 459Q231 459 206 438T165
372T148 261Q148 201 160 154T199 79T269 51Z" />
<glyph unicode="h" glyph-name="h" horiz-adv-x="583" d="M533 36Q533 20 523 10T499 0H449Q435 0 425 10T415 37Q415 152 411 228T399 348T377 415T342 443T292 450Q240 450 212 426T184 348V34Q184 20 174 10T150 0H95Q81 0 71 10T61 34V726Q61 740 71 750T95
760H150Q164 760 174 750T184 726V494Q232 510 292 510Q355 510 398 500T467 463T508 383T527 246T533 36Z" />
<glyph unicode="i" glyph-name="i" horiz-adv-x="308" d="M218 637Q218 623 208 613T184 603H124Q110 603 100 613T90 637V696Q90 710 100 720T124 730H184Q198 730 208 720T218 696V637ZM218 34Q218 20 208 10T184 0H124Q110 0 100 10T90 34V476Q90 490 100 500T124
510H184Q198 510 208 500T218 476V34Z" />
<glyph unicode="j" glyph-name="j" horiz-adv-x="304" d="M214 626Q214 593 181 593H119Q86 593 86 626V687Q86 720 119 720H181Q214 720 214 687V626ZM-111 -185Q-128 -178 -128 -164Q-128 -149 -110 -139L-93 -130Q-82 -124 -72 -124Q-60 -124 -47 -133Q-33
-143 -20 -146T11 -150Q46 -150 66 -113T86 0V477Q86 510 119 510H181Q214 510 214 477V0Q214 -103 162 -156T11 -210Q-18 -210 -51 -203T-111 -185Z" />
<glyph unicode="k" glyph-name="k" horiz-adv-x="547" d="M192 34Q192 20 182 10T158 0H104Q90 0 80 10T70 34V726Q70 740 80 750T104 760H158Q172 760 182 750T192 726V300L448 507Q456 514 467 514Q475 514 482 510L496 502Q517 490 517 469Q517 452 501 439L280
260L498 72Q515 58 515 40Q515 22 498 13L474 0Q468 -3 460 -3Q448 -3 440 4L214 199Q211 201 209 204L192 190V34Z" />
<glyph unicode="l" glyph-name="l" horiz-adv-x="304" d="M90 726Q90 740 103 750T136 760H169Q188 760 201 750T214 726V24Q214 10 201 0T169 -10H136Q117 -10 104 0T90 24V726Z" />
<glyph unicode="m" glyph-name="m" horiz-adv-x="790" d="M740 36Q740 20 730 10T706 0H646Q632 0 622 10T612 37Q612 154 611 231T605 355T594 423T573 453T539 460Q502 460 478 434T454 348V34Q454 9 430 2Q429 1 428 1Q426 1 425 1T425 0Q423 0 420 0H370Q369
0 369 0Q367 0 366 0Q364 0 362 1Q362 1 361 1Q336 7 336 34V37Q336 154 334 231T326 355T311 423T288 453T253 460Q216 460 197 434T178 348V34Q178 20 168 10T144 0H84Q70 0 60 10T50 34V486Q50 500 60 510T84 520H144Q160 520 170 508Q208 520 253 520Q306 520
341 511T398 478Q453 520 539 520Q599 520 636 508T695 465T726 379T737 240T740 36Z" />
<glyph unicode="n" glyph-name="n" horiz-adv-x="565" d="M515 36Q515 20 505 10T481 0H425Q411 0 401 10T391 37Q391 111 391 151T391 213T390 250Q390 350 369 405T298 460Q236 460 207 434T178 348V34Q178 20 168 10T144 0H84Q70 0 60 10T50 34V486Q50 500
60 510T84 520H144Q166 520 175 501Q230 520 298 520Q369 520 411 498T475 438T505 350T514 247Q515 232 515 211T515 149T515 36Z" />
<glyph unicode="o" glyph-name="o" horiz-adv-x="547" d="M268 520Q342 520 398 485T485 388T517 250Q517 176 488 117T405 24T281 -10Q206 -10 150 24T62 119T30 255Q30 332 59 392T142 486T268 520ZM268 460Q229 460 201 434T158 361T143 255Q143 149 183 100T281
50Q326 50 353 79T392 154T404 250Q404 342 368 401T268 460Z" />
<glyph unicode="p" glyph-name="p" horiz-adv-x="593" d="M183 -166Q183 -180 173 -190T149 -200H104Q90 -200 80 -190T70 -166V476Q70 490 80 500T104 510H149Q175 510 182 485Q231 520 317 520Q388 520 443 485T531 390T563 260Q563 189 533 130T450 36T324
0Q281 0 246 12T183 48V-166ZM321 61Q369 61 398 89T441 164T455 260Q455 310 437 356T388 431T317 460Q261 460 223 407T184 255Q184 200 207 156T262 87T321 61Z" />
<glyph unicode="q" glyph-name="q" horiz-adv-x="593" d="M269 0Q197 0 144 33T60 124T30 260Q30 336 56 394T133 486T256 520Q307 520 345 507T410 468V476Q410 490 420 500T444 510H489Q503 510 513 500T523 476V-166Q523 -180 513 -190T489 -200H444Q430 -200
420 -190T410 -166V53Q384 28 349 14T269 0ZM269 64Q316 64 347 90T393 159T409 255Q409 347 373 403T256 460Q220 460 195 433T156 361T143 260Q143 205 156 161T198 90T269 64Z" />
<glyph unicode="r" glyph-name="r" horiz-adv-x="467" d="M409 488Q423 478 431 468T440 448Q440 441 433 435L415 422Q405 415 396 415Q387 415 381 421Q355 443 337 450T300 458Q267 458 237 427T187 345T168 234V33Q168 0 135 0H84Q70 0 60 10T50 34V477Q50
510 83 510H135Q168 510 168 480Q196 498 229 508T300 518Q331 518 359 512T409 488Z" />
<glyph unicode="s" glyph-name="s" horiz-adv-x="550" d="M33 104Q30 110 30 115Q30 127 41 135T66 144H124Q148 144 155 116Q163 87 192 69T279 51Q343 51 367 74T392 140Q392 184 359 209T266 233Q182 231 133 248T62 297T40 366Q40 437 103 478T283 520Q412
520 479 465Q506 443 506 426Q506 416 498 411L481 398Q471 391 462 391Q452 391 446 396Q403 428 364 444T283 460Q227 460 198 434T168 366Q168 327 190 310T266 293Q334 293 392 275T485 223T520 140Q520 97 489 63T404 10T279 -9Q188 -9 122 24T33 104Z" />
<glyph unicode="t" glyph-name="t" horiz-adv-x="434" d="M276 23Q276 -10 243 -10H191Q158 -10 158 23V450H63Q30 450 30 480Q30 510 63 510H158V727Q158 760 191 760H243Q276 760 276 727V510H371Q404 510 404 480Q404 450 371 450H276V23Z" />
<glyph unicode="u" glyph-name="u" horiz-adv-x="573" d="M523 34Q523 20 513 10T489 0H439Q427 0 418 7T406 27Q374 10 335 0T249 -10Q178 -10 138 12T79 88T55 236T50 474Q50 490 60 500T84 510H134Q148 510 158 500T168 473Q168 361 171 285T181 162T198 91T220
59T249 50Q294 50 329 72T384 132T405 221V476Q405 490 415 500T439 510H489Q503 510 513 500T523 476V34Z" />
<glyph unicode="v" glyph-name="v" horiz-adv-x="503" d="M346 482Q353 510 383 510H443Q473 510 473 486Q473 480 470 472L322 27Q313 0 285 0H219Q190 0 181 27L33 472Q30 480 30 486Q30 510 60 510H120Q150 510 157 482L252 119L346 482Z" />
<glyph unicode="w" glyph-name="w" horiz-adv-x="760" d="M604 482Q612 510 641 510H700Q730 510 730 485Q730 482 730 479T728 473L596 29Q588 1 559 1L504 0Q475 0 467 28L386 303L304 28Q296 0 267 0L210 1Q182 1 173 28L32 473Q31 477 31 480T30 486Q30 510
60 510H110Q139 510 147 482L246 123L322 445Q329 473 358 473H404Q433 473 440 445L510 146L604 482Z" />
<glyph unicode="x" glyph-name="x" horiz-adv-x="568" d="M166 10Q161 3 151 2T131 0H98Q73 0 63 4T53 18Q53 26 60 39T81 69L219 255L80 441Q67 458 59 471T50 492Q50 510 98 510H131Q141 510 150 509T166 500L284 342L402 500Q408 508 417 509T437 510H470Q517
510 517 494Q517 486 510 473T488 441L349 255L488 69Q502 51 510 39T518 17Q518 0 470 0H437Q427 0 417 1T402 10L284 168L166 10Z" />
<glyph unicode="y" glyph-name="y" horiz-adv-x="565" d="M295 -192Q286 -219 257 -219H221Q191 -219 191 -195Q191 -188 194 -181L253 -7Q247 -1 242 9L34 471Q30 479 30 487Q30 510 59 510H118Q145 510 156 484L297 124L419 483Q428 510 456 510H505Q535 510
535 486Q535 480 532 472L295 -192Z" />
<glyph unicode="z" glyph-name="z" horiz-adv-x="548" d="M464 60Q478 60 488 52T498 30Q498 17 488 9T464 0H103Q82 0 70 12T58 41Q58 57 68 71L337 450H84Q70 450 60 458T50 480Q50 493 60 501T84 510H444Q465 510 477 498T489 469Q489 453 479 439L210 60H464Z" />
<glyph unicode="{" glyph-name="braceleft" horiz-adv-x="500" d="M398 -26Q412 -30 420 -37T428 -60Q428 -74 420 -82T394 -88Q333 -82 286 -55T213 15T186 114Q186 198 181 243T165 309T137 339Q125 345 125 349Q125 353 137 359Q154 369 165 389T181 455T186
584Q186 639 212 682T286 753T394 786Q411 788 419 780T428 758Q428 743 420 736T398 724Q359 714 337 677T314 584Q314 487 305 431T263 349Q295 323 304 267T314 114Q314 58 336 22T398 -26Z" />
<glyph unicode="|" glyph-name="bar" horiz-adv-x="500" d="M307 -70Q307 -103 274 -103H224Q191 -103 191 -70V786Q191 819 224 819H274Q307 819 307 786V-70Z" />
<glyph unicode="}" glyph-name="braceright" horiz-adv-x="500" d="M102 -26Q88 -30 80 -37T72 -60Q72 -74 80 -82T106 -88Q167 -82 214 -55T287 15T314 114Q314 198 319 243T335 309T363 339Q375 345 375 349Q375 353 363 359Q346 369 335 389T319 455T314 584Q314
639 288 682T214 753T106 786Q89 788 81 780T72 758Q72 743 80 736T102 724Q141 714 163 677T186 584Q186 487 195 431T237 349Q205 323 196 267T186 114Q186 58 164 22T102 -26Z" />
<glyph unicode="~" glyph-name="asciitilde" horiz-adv-x="500" d="M177 477Q215 477 239 462T278 426T304 390T326 374Q341 374 349 391T361 427T365 453Q365 463 371 468T385 473H430Q435 473 440 466T446 441Q446 418 434 391T393 343T317 323Q286 323 267
333T237 359T217 390T199 415T173 426Q164 426 157 415T147 390T143 371Q143 362 134 354T116 345H70Q55 345 55 374Q55 381 60 397T79 432T116 464T177 477Z" />
<glyph unicode="&#xa0;" glyph-name="uni00A0" horiz-adv-x="380" />
<glyph unicode="&#xa1;" glyph-name="exclamdown" horiz-adv-x="308" d="M90 498Q90 512 100 522T124 532H184Q198 532 208 522T218 498V34Q218 20 208 10T184 0H124Q110 0 100 10T90 34V498ZM90 728Q90 742 100 752T124 762H184Q198 762 208 752T218 728V706Q218
692 208 682T184 672H124Q110 672 100 682T90 706V728Z" />
<glyph unicode="&#xa2;" glyph-name="cent" horiz-adv-x="567" d="M329 -22Q329 -55 296 -55H268Q235 -55 235 -22V75Q132 88 76 157T20 336Q20 406 47 463T122 556T235 600V744Q235 777 268 777H296Q329 777 329 744V595Q390 580 437 542T505 455Q508 448 508
442Q508 429 498 421T474 410L420 405Q408 404 399 411T386 430Q367 491 329 521V145Q352 160 367 188T392 259Q399 288 427 286L484 281Q498 280 507 271T517 249Q517 245 515 239Q496 174 448 131T329 76V-22ZM148 336Q148 259 170 209T235 140V535Q197 516 173
461T148 336Z" />
<glyph unicode="&#xa3;" glyph-name="sterling" horiz-adv-x="586" d="M60 27Q60 38 70 45T94 53H127Q161 105 187 183T230 341H114Q100 341 90 349T80 370Q80 382 90 390T114 398H242Q254 460 260 508T266 578Q266 604 270 632T287 685T326 725T399 740Q437 740
465 735T510 712T526 658Q526 636 514 626T492 616H439Q432 616 427 625T420 644T418 659Q418 667 413 675T399 684Q386 684 378 671T370 620Q370 587 364 528T346 398H476Q490 398 500 390T510 370Q510 358 500 350T476 341H335Q319 260 295 182T239 53H486Q500
53 510 46T520 27Q520 16 510 8T486 0H94Q80 0 70 8T60 27Z" />
<glyph unicode="&#xa4;" glyph-name="currency" horiz-adv-x="556" d="M278 133Q236 133 196 146L145 71Q133 53 115 53Q110 53 102 55L62 67Q40 73 40 91Q40 101 47 111L106 197Q76 224 59 260T41 336Q41 376 58 412T106 475L47 561Q40 571 40 581Q40 599 62
605L102 617Q110 619 115 619Q133 619 145 601L196 526Q236 539 278 539Q320 539 360 526L411 601Q423 619 441 619Q446 619 454 617L494 605Q516 599 516 581Q516 571 509 561L450 475Q480 448 497 412T515 336Q515 296 498 260T450 197L509 111Q516 101 516 91Q516
73 494 67L454 55Q446 53 441 53Q423 53 411 71L360 146Q320 133 278 133ZM278 191Q309 191 334 210T374 263T389 336Q389 377 374 409T334 461T278 481Q248 481 223 462T182 410T167 336Q167 296 182 263T222 211T278 191Z" />
<glyph unicode="&#xa5;" glyph-name="yen" horiz-adv-x="600" d="M90 199Q90 211 100 219T124 227H235V285L228 301H124Q110 301 100 309T90 330Q90 342 100 350T124 358H204L59 700Q49 721 49 737Q49 760 85 760H125Q136 760 146 756T160 741L296 399L438 741Q443
752 452 756T473 760H513Q550 760 550 738Q550 727 539 700L390 358H486Q500 358 510 350T520 330Q520 318 510 310T486 301H365L363 296V227H486Q500 227 510 219T520 199Q520 187 510 179T486 170H363V34Q363 20 353 10T329 0H269Q255 0 245 10T235 34V170H124Q110
170 100 178T90 199Z" />
<glyph unicode="&#xa6;" glyph-name="brokenbar" horiz-adv-x="500" d="M307 420Q307 387 274 387H224Q191 387 191 420V786Q191 819 224 819H274Q307 819 307 786V420ZM307 -70Q307 -103 274 -103H224Q191 -103 191 -70V296Q191 329 224 329H274Q307 329 307 296V-70Z" />
<glyph unicode="&#xa7;" glyph-name="section" horiz-adv-x="500" d="M383 214Q418 199 434 173T451 91Q451 31 433 -4T373 -54T257 -69Q147 -69 94 -28T40 85Q40 107 57 108Q66 109 83 112T117 117Q121 118 124 118T130 118Q140 118 145 114T150 95Q150 36 181
3T264 -30Q298 -30 315 -11T339 36T346 87Q346 120 328 154T267 199Q226 210 187 222T116 251T65 294T46 357Q46 377 54 404T87 456T157 494Q113 509 92 528T63 571T56 625Q56 644 63 669T91 718T150 757T252 773Q293 773 329 763T393 738T437 711T453 696Q453
690 448 685T432 679Q422 679 402 682T367 686Q354 688 344 694T324 708Q315 715 300 722T255 730Q236 730 215 717T179 681T164 628Q164 598 181 576T224 539T281 518Q333 507 373 489T437 439T461 359Q461 299 444 265T383 214ZM271 250Q309 250 327 263T350
301T356 355Q356 410 326 436T245 462Q208 462 184 433T160 363Q160 308 191 279T271 250Z" />
<glyph unicode="&#xa8;" glyph-name="dieresis" horiz-adv-x="500" d="M137 662Q137 676 145 686T164 696H205Q216 696 224 686T232 662V628Q232 614 224 604T205 594H164Q153 594 145 604T137 628V662ZM254 662Q254 676 262 686T281 696H322Q333 696 341 686T349
662V628Q349 614 341 604T322 594H281Q270 594 262 604T254 628V662Z" />
<glyph unicode="&#xa9;" glyph-name="copyright" horiz-adv-x="500" d="M249 117Q182 117 128 150T43 240T11 366Q11 436 42 492T128 581T249 615Q316 615 369 582T455 492T487 366Q487 297 455 241T370 151T249 117ZM249 160Q282 160 317 185T376 250Q357 232
330 222T270 212Q193 212 151 254T108 370Q108 416 127 452T181 509T261 530Q293 530 322 519T372 489Q348 527 315 549T249 572Q213 572 176 544T115 469T90 366Q90 324 104 287T142 222T194 177T249 160ZM187 370Q187 313 208 281T270 248Q297 248 313 268T339
324Q343 341 360 340L396 337Q402 337 406 334Q409 350 409 366Q409 393 402 419Q397 415 389 415L356 412Q339 411 335 427Q326 456 307 475T261 494Q230 494 209 458T187 370Z" />
<glyph unicode="&#xaa;" glyph-name="ordfeminine" horiz-adv-x="479" d="M222 678Q282 678 321 665T382 635T412 606Q418 598 421 588T422 570Q419 563 416 548T412 510Q412 495 418 477T431 444T441 423Q445 418 445 411Q445 401 430 401H357Q347 401 340 405T330
412Q327 415 324 419T315 430Q309 437 305 437Q301 437 291 432Q282 428 244 415T152 402Q98 402 71 421T35 471T25 537Q25 573 49 605T118 657T222 678ZM221 619Q184 619 162 595T139 537Q139 503 155 484T204 465Q226 465 247 484T283 529T297 576Q297 592 284
601T253 614T221 619Z" />
<glyph unicode="&#xab;" glyph-name="guillemotleft" horiz-adv-x="500" d="M414 156Q416 152 416 146Q416 131 398 131H318Q301 131 294 147L226 299Q223 307 223 313Q223 321 227 328L313 482Q321 497 338 497H416Q434 497 434 483Q434 478 431 472L351 328Q347
321 347 313Q347 307 350 299L414 156ZM244 156Q246 152 246 146Q246 131 228 131H148Q131 131 124 147L56 299Q53 307 53 313Q53 321 57 328L143 482Q151 497 168 497H246Q264 497 264 483Q264 478 261 472L181 328Q177 321 177 313Q177 307 180 299L244 156Z"
/>
<glyph unicode="&#xac;" glyph-name="logicalnot" horiz-adv-x="500" d="M473 95Q473 62 440 62H380Q347 62 347 95V239H79Q46 239 46 268Q46 297 79 297H440Q473 297 473 264V95Z" />
<glyph unicode="&#xad;" glyph-name="uni00AD" horiz-adv-x="500" d="M64 291Q64 305 74 315T98 325H402Q416 325 426 315T436 291Q436 278 426 269T402 259H98Q84 259 74 267T64 291Z" />
<glyph unicode="&#xae;" glyph-name="registered" horiz-adv-x="500" d="M249 117Q182 117 128 150T43 240T11 366Q11 436 42 492T128 581T249 615Q316 615 369 582T455 492T487 366Q487 297 455 241T370 151T249 117ZM249 160Q276 160 304 176T356 221T394 287T409
366Q409 422 384 469T323 544T249 572Q213 572 176 544T115 469T90 366Q90 324 104 287T142 222T194 177T249 160ZM212 255Q212 250 206 247T191 243H167Q158 243 152 246T146 255V499Q146 504 152 507T167 510H239Q303 510 342 498T381 441Q381 409 363 393T318
372T264 365Q266 363 269 359Q271 357 283 343T312 312T341 280T358 262Q364 256 364 249Q364 243 358 243H325Q314 243 305 251Q300 256 282 274T244 312T212 344V255ZM239 476H212V400H237Q272 400 290 405T308 440Q308 465 288 470T239 476Z" />
<glyph unicode="&#xaf;" glyph-name="overscore" horiz-adv-x="500" d="M52 803Q52 815 62 823T86 831H413Q427 831 437 823T447 803Q447 791 437 783T413 775H86Q72 775 62 783T52 803Z" />
<glyph unicode="&#xb0;" glyph-name="degree" horiz-adv-x="500" d="M190 492Q147 492 112 509T57 558T36 628Q36 667 57 697T113 745T190 763Q233 763 267 746T323 698T344 628Q344 589 323 558T268 510T190 492ZM190 542Q204 542 218 554T241 586T251 628Q251
662 231 687T190 713Q168 713 149 688T129 628Q129 594 148 568T190 542Z" />
<glyph unicode="&#xb1;" glyph-name="plusminus" horiz-adv-x="500" d="M298 297Q298 276 282 276H220Q204 276 204 297V386H85Q64 386 64 407V423Q64 444 85 444H204V523Q204 544 220 544H282Q298 544 298 523V444H416Q437 444 437 423V407Q437 386 416 386H298V297ZM416
234Q437 234 437 213V197Q437 176 416 176H85Q64 176 64 197V213Q64 234 85 234H416Z" />
<glyph unicode="&#xb2;" glyph-name="uni00B2" horiz-adv-x="459" d="M240 749Q271 749 304 744T365 724T411 687T429 627Q429 588 413 561T369 514T308 476T242 438T181 391H366Q392 391 404 383T417 364Q417 354 404 345T366 335Q353 335 325 335T261 334T191
333T127 332T84 331Q60 331 45 337T30 357Q30 372 45 391Q75 430 109 453T178 492T241 524T286 563T303 626Q303 663 287 678T243 693Q198 693 169 677T140 605Q140 580 129 567T105 553H70Q54 553 43 563T32 596Q32 658 53 691T121 736T240 749Z" />
<glyph unicode="&#xb3;" glyph-name="uni00B3" horiz-adv-x="428" d="M226 752Q273 752 312 745T374 713T398 639Q398 610 388 588T360 544Q378 524 386 502T395 441Q395 380 344 352T211 323Q119 323 75 350T30 423Q30 455 40 470T79 486Q100 486 117 474T135
423Q135 411 139 400T159 382T214 375Q267 375 284 392T302 459Q302 503 267 513T167 524Q160 524 155 532T149 550Q149 558 153 564T167 570Q228 570 257 576T295 598T305 646Q305 674 286 690T228 707Q185 707 169 692T153 657Q153 625 139 611T90 596Q65 596
52 603T39 634Q39 655 43 675T64 713T120 741T226 752Z" />
<glyph unicode="&#xb4;" glyph-name="acute" horiz-adv-x="500" d="M364 1003Q380 1003 380 988Q380 980 376 972Q374 968 364 953T340 917T315 881T301 859Q295 849 284 836T263 822H202Q190 822 190 836Q190 847 197 859Q200 865 209 880T228 915T246 951T258
973Q265 985 273 994T295 1003H364Z" />
<glyph unicode="&#xb5;" glyph-name="uni00B5" horiz-adv-x="500" d="M453 166Q454 162 454 159T454 153Q454 134 439 124L415 108Q405 101 395 101Q384 101 374 112Q369 119 366 126Q350 113 325 105T264 96Q244 96 221 101T177 119L159 -89Q156 -120 127 -120H73Q59
-120 52 -109T45 -81L89 449Q92 478 121 478H177Q207 478 207 442Q207 348 210 291T220 204T238 164T264 154Q275 154 285 181T302 268T309 426Q309 443 314 452T339 461H394Q424 461 424 426V425Q424 423 424 420T425 415Q428 370 432 322T442 233T453 166Z" />
<glyph unicode="&#xb6;" glyph-name="paragraph" horiz-adv-x="500" d="M232 695H445Q478 695 478 662V-56Q478 -89 445 -89H406Q373 -89 373 -56V645H337V-56Q337 -89 304 -89H265Q232 -89 232 -56V227Q174 228 127 259T51 344T22 461Q22 525 50 578T126 663T232 695Z" />
<glyph unicode="&#xb7;" glyph-name="middot" horiz-adv-x="500" d="M153 380Q153 394 163 404T187 414H253Q267 414 277 404T287 380V334Q287 320 277 310T253 300H187Q173 300 163 310T153 334V380Z" />
<glyph unicode="&#xb8;" glyph-name="cedilla" horiz-adv-x="500" d="M134 -185Q124 -178 124 -168Q124 -157 135 -148T162 -139H216Q224 -139 228 -143T237 -155Q243 -166 258 -169T302 -173Q329 -173 340 -168T352 -138Q352 -105 322 -95T231 -87Q212 -87 201
-76T191 -48L195 3Q196 17 206 25T230 33L290 31Q305 30 315 21T323 -2L320 -32Q381 -42 420 -71T460 -138Q460 -181 412 -207T289 -233Q246 -233 203 -220T134 -185Z" />
<glyph unicode="&#xb9;" glyph-name="uni00B9" horiz-adv-x="344" d="M174 757Q197 757 210 748T224 713V380Q224 352 218 344T196 335H145Q135 335 127 346T119 378V521Q119 535 115 543T102 552Q60 552 60 569Q60 572 61 576T64 584Q66 590 74 609T92 653T110
699T123 729Q131 747 143 752T174 757Z" />
<glyph unicode="&#xba;" glyph-name="ordmasculine" horiz-adv-x="423" d="M223 689Q288 689 325 666T377 603T393 509Q393 430 354 391T213 351Q146 351 106 371T48 427T30 509Q30 555 51 596T114 663T223 689ZM222 616Q211 616 199 602T178 566T169 524Q169
504 172 482T183 445T210 429Q237 429 248 456T259 527Q259 570 254 593T222 616Z" />
<glyph unicode="&#xbb;" glyph-name="guillemotright" horiz-adv-x="500" d="M86 156Q84 152 84 146Q84 131 102 131H182Q199 131 206 147L274 299Q277 307 277 313Q277 321 273 328L187 482Q179 497 162 497H84Q66 497 66 483Q66 478 69 472L149 328Q153 321
153 313Q153 307 150 299L86 156ZM256 156Q254 152 254 146Q254 131 272 131H352Q369 131 376 147L444 299Q447 307 447 313Q447 321 443 328L357 482Q349 497 332 497H254Q236 497 236 483Q236 478 239 472L319 328Q323 321 323 313Q323 307 320 299L256 156Z"
/>
<glyph unicode="&#xbc;" glyph-name="onequarter" horiz-adv-x="1000" d="M661 727H726Q734 727 738 720T743 704Q743 694 739 689Q737 686 717 660T665 592T593 499T511 393T430 287T358 195T307 128T285 100Q278 90 265 76T243 62H173Q164 62 160 72T156 94Q156
104 159 110Q160 112 179 137T228 202T297 293T376 397T455 500T524 591T574 657T596 685Q605 695 624 711T661 727ZM275 757Q298 757 311 748T325 713V380Q325 352 319 344T297 335H246Q236 335 228 346T220 378V521Q220 535 216 543T203 552Q161 552 161 569Q161
572 162 576T165 584Q167 590 175 609T193 653T211 699T224 729Q232 747 244 752T275 757ZM892 178Q909 178 918 171T927 146Q927 128 924 118T901 107H850Q841 107 841 98V26Q841 -6 808 -6H773Q757 -6 747 3T737 28V64Q737 93 734 100T710 107H599Q563 107 548
114T533 141Q533 155 535 185T542 251T548 314T551 353Q551 385 562 401T599 417Q632 417 646 409T661 374Q661 365 660 345T656 299T652 251T650 216Q650 195 658 187T685 178H729Q737 178 737 187V397Q737 413 744 428T767 443H807Q823 443 832 428T841 397V187Q841
178 850 178H892Z" />
<glyph unicode="&#xbd;" glyph-name="onehalf" horiz-adv-x="1000" d="M681 727H746Q754 727 758 720T763 704Q763 694 759 689Q757 686 737 660T685 592T613 499T531 393T450 287T378 195T327 128T305 100Q298 90 285 76T263 62H193Q184 62 180 72T176 94Q176
104 179 110Q180 112 199 137T248 202T317 293T396 397T475 500T544 591T594 657T616 685Q625 695 644 711T681 727ZM716 426Q747 426 780 421T841 401T887 364T905 304Q905 265 889 238T845 191T784 153T718 115T657 68H842Q868 68 880 60T893 41Q893 31 880 22T842
12Q829 12 801 12T737 11T667 10T603 9T560 8Q536 8 521 14T506 34Q506 49 521 68Q551 107 585 130T654 169T717 201T762 240T779 303Q779 340 763 355T719 370Q674 370 645 354T616 282Q616 257 605 244T581 230H546Q530 230 519 240T508 273Q508 335 529 368T597
413T716 426ZM285 757Q308 757 321 748T335 713V380Q335 352 329 344T307 335H256Q246 335 238 346T230 378V521Q230 535 226 543T213 552Q171 552 171 569Q171 572 172 576T175 584Q177 590 185 609T203 653T221 699T234 729Q242 747 254 752T285 757Z" />
<glyph unicode="&#xbe;" glyph-name="threequarters" horiz-adv-x="1000" d="M730 727H795Q803 727 807 720T812 704Q812 694 808 689Q806 686 786 660T734 592T662 499T580 393T499 287T427 195T376 128T354 100Q347 90 334 76T312 62H242Q233 62 229 72T225
94Q225 104 228 110Q229 112 248 137T297 202T366 293T445 397T524 500T593 591T643 657T665 685Q674 695 693 711T730 727ZM938 178Q955 178 964 171T973 146Q973 128 970 118T947 107H896Q887 107 887 98V26Q887 -6 854 -6H819Q803 -6 793 3T783 28V64Q783 93
780 100T756 107H645Q609 107 594 114T579 141Q579 155 581 185T588 251T594 314T597 353Q597 385 608 401T645 417Q678 417 692 409T707 374Q707 365 706 345T702 299T698 251T696 216Q696 195 704 187T731 178H775Q783 178 783 187V397Q783 413 790 428T813 443H853Q869
443 878 428T887 397V187Q887 178 896 178H938ZM260 752Q307 752 346 745T408 713T432 639Q432 610 422 588T394 544Q412 524 420 502T429 441Q429 380 378 352T245 323Q153 323 109 350T64 423Q64 455 74 470T113 486Q134 486 151 474T169 423Q169 411 173 400T193
382T248 375Q301 375 318 392T336 459Q336 503 301 513T201 524Q194 524 189 532T183 550Q183 558 187 564T201 570Q262 570 291 576T329 598T339 646Q339 674 320 690T262 707Q219 707 203 692T187 657Q187 625 173 611T124 596Q99 596 86 603T73 634Q73 655 77
675T98 713T154 741T260 752Z" />
<glyph unicode="&#xbf;" glyph-name="questiondown" horiz-adv-x="500" d="M342 162Q342 177 351 187T375 197H436Q450 197 460 187T469 162Q464 -10 405 -88T215 -166Q107 -166 47 -112T-13 44Q-13 87 -1 116T42 169T125 217Q146 227 158 255T173 334Q174 349
183 358T206 368H267Q282 368 292 358T301 333Q298 287 286 257T248 205T179 163Q142 146 129 121T115 44Q115 -33 140 -69T215 -106Q274 -106 306 -43T342 162ZM174 564Q174 578 184 588T208 598H268Q282 598 292 588T302 564V542Q302 528 292 518T268 508H208Q194
508 184 518T174 542V564Z" />
<glyph unicode="&#xc0;" glyph-name="Agrave" horiz-adv-x="580" d="M548 37Q550 29 550 26Q550 0 520 0H469Q440 0 433 29L393 195H188L147 29Q140 0 111 0H60Q30 0 30 26Q30 29 32 37L220 732Q227 760 257 760H323Q353 760 360 732L548 37ZM202 255H378L290
615L202 255ZM240 977Q247 977 251 975T264 963Q268 959 279 946T305 915T331 883T350 860Q358 851 358 841Q358 833 353 828T341 822H285Q266 822 251 839Q248 843 237 857T211 890T185 923T168 945Q161 952 161 961Q161 977 178 977H240Z" />
<glyph unicode="&#xc1;" glyph-name="Aacute" horiz-adv-x="580" d="M548 37Q550 29 550 26Q550 0 520 0H469Q440 0 433 29L393 195H188L147 29Q140 0 111 0H60Q30 0 30 26Q30 29 32 37L220 732Q227 760 257 760H323Q353 760 360 732L548 37ZM202 255H378L290
615L202 255ZM410 1003Q426 1003 426 988Q426 980 422 972Q420 968 410 953T386 917T361 881T347 859Q341 849 330 836T309 822H248Q236 822 236 836Q236 847 243 859Q246 865 255 880T274 915T292 951T304 973Q311 985 319 994T341 1003H410Z" />
<glyph unicode="&#xc2;" glyph-name="Acircumflex" horiz-adv-x="580" d="M548 37Q550 29 550 26Q550 0 520 0H469Q440 0 433 29L393 195H188L147 29Q140 0 111 0H60Q30 0 30 26Q30 29 32 37L220 732Q227 760 257 760H323Q353 760 360 732L548 37ZM202 255H378L290
615L202 255ZM431 853Q439 845 439 832Q439 817 426 817H371Q361 817 355 819T338 830Q333 835 319 851T290 885Q276 867 262 851T243 830Q233 820 227 819T210 817H155Q142 817 142 832Q142 845 150 853Q154 857 165 868T189 893T213 919T228 935Q238 946 248
949T271 952H310Q324 952 334 949T353 935Q357 930 367 919T391 894T416 869T431 853Z" />
<glyph unicode="&#xc3;" glyph-name="Atilde" horiz-adv-x="580" d="M548 37Q550 29 550 26Q550 0 520 0H469Q440 0 433 29L393 195H188L147 29Q140 0 111 0H60Q30 0 30 26Q30 29 32 37L220 732Q227 760 257 760H323Q353 760 360 732L548 37ZM202 255H378L290
615L202 255ZM239 944Q266 944 284 940T317 930Q331 924 344 918T375 906L411 934Q415 938 434 938Q451 938 470 936T500 934Q514 934 518 925T523 905Q523 898 505 882T453 852T369 838Q338 838 319 842T287 851Q270 859 261 866T240 873Q226 873 214 862T191
839T172 827H85Q73 827 66 834T59 863Q59 874 75 887T117 914T175 935T239 944Z" />
<glyph unicode="&#xc4;" glyph-name="Adieresis" horiz-adv-x="580" d="M548 37Q550 29 550 26Q550 0 520 0H469Q440 0 433 29L393 195H188L147 29Q140 0 111 0H60Q30 0 30 26Q30 29 32 37L220 732Q227 760 257 760H323Q353 760 360 732L548 37ZM202 255H378L290
615L202 255ZM441 895Q441 909 449 919T468 929H509Q520 929 528 919T536 895V861Q536 847 528 837T509 827H468Q457 827 449 837T441 861V895ZM302 895Q302 909 310 919T329 929H370Q381 929 389 919T397 895V861Q397 847 389 837T370 827H329Q318 827 310 837T302
861V895Z" />
<glyph unicode="&#xc5;" glyph-name="Aring" horiz-adv-x="580" d="M548 37Q550 29 550 26Q550 0 520 0H469Q440 0 433 29L393 195H188L147 29Q140 0 111 0H60Q30 0 30 26Q30 29 32 37L220 732Q227 760 257 760H323Q353 760 360 732L548 37ZM202 255H378L290 615L202
255ZM296 1047Q311 1047 332 1039T374 1014T409 973T423 915Q423 850 387 826T288 802Q247 802 218 819T174 863T159 920Q159 951 175 980T223 1028T296 1047ZM298 976Q288 976 274 962T260 923Q260 899 267 882T290 864Q307 864 314 886T322 930Q322 951 319 963T298
976Z" />
<glyph unicode="&#xc6;" glyph-name="AE" horiz-adv-x="886" d="M811 60Q844 60 844 30Q844 0 811 0H421Q388 0 388 33V181H204Q180 120 164 80T146 36Q139 23 129 12T104 0H43Q30 0 30 14Q30 27 40 50Q42 54 54 84T87 162T131 269T182 390T232 510T276 617T308
694T323 728Q330 744 336 752T352 760H417Q418 760 418 760H421H811Q844 760 844 730Q844 700 811 700H516V404H784Q817 404 817 374Q817 344 784 344H516V60H811ZM228 241H388V640Q367 589 340 521T284 380T228 241Z" />
<glyph unicode="&#xc7;" glyph-name="Ccedilla" horiz-adv-x="634" d="M457 145Q465 173 497 173H552Q565 173 572 163T580 141Q580 131 576 124Q558 84 521 54T437 7T342 -10Q255 -10 184 35T72 163T30 354Q30 437 53 512T119 645T215 736T331 770Q372 770 415
753T496 706T563 639T603 563Q604 561 604 558T604 553Q604 540 596 531T574 521H512Q484 521 476 553Q467 590 446 626T396 686T331 710Q291 710 259 679T204 595T170 480T158 354Q158 289 174 234T217 137T276 73T342 50Q361 50 383 58T426 87T457 145ZM190 -185Q180
-178 180 -168Q180 -157 191 -148T218 -139H272Q280 -139 284 -143T293 -155Q299 -166 314 -169T358 -173Q385 -173 396 -168T408 -138Q408 -105 378 -95T287 -87Q268 -87 257 -76T247 -48L251 3Q252 17 262 25T286 33L346 31Q361 30 371 21T379 -2L376 -32Q437
-42 476 -71T516 -138Q516 -181 468 -207T345 -233Q302 -233 259 -220T190 -185Z" />
<glyph unicode="&#xc8;" glyph-name="Egrave" horiz-adv-x="538" d="M463 60Q496 60 496 30Q496 0 463 0H73Q40 0 40 33V727Q40 760 73 760H463Q496 760 496 730Q496 700 463 700H168V404H436Q469 404 469 374Q469 344 436 344H168V60H463ZM213 977Q220 977 224
975T237 963Q241 959 252 946T278 915T304 883T323 860Q331 851 331 841Q331 833 326 828T314 822H258Q239 822 224 839Q221 843 210 857T184 890T158 923T141 945Q134 952 134 961Q134 977 151 977H213Z" />
<glyph unicode="&#xc9;" glyph-name="Eacute" horiz-adv-x="538" d="M463 60Q496 60 496 30Q496 0 463 0H73Q40 0 40 33V727Q40 760 73 760H463Q496 760 496 730Q496 700 463 700H168V404H436Q469 404 469 374Q469 344 436 344H168V60H463ZM383 1003Q399 1003
399 988Q399 980 395 972Q393 968 383 953T359 917T334 881T320 859Q314 849 303 836T282 822H221Q209 822 209 836Q209 847 216 859Q219 865 228 880T247 915T265 951T277 973Q284 985 292 994T314 1003H383Z" />
<glyph unicode="&#xca;" glyph-name="Ecircumflex" horiz-adv-x="538" d="M463 60Q496 60 496 30Q496 0 463 0H73Q40 0 40 33V727Q40 760 73 760H463Q496 760 496 730Q496 700 463 700H168V404H436Q469 404 469 374Q469 344 436 344H168V60H463ZM404 853Q412 845
412 832Q412 817 399 817H344Q334 817 328 819T311 830Q306 835 292 851T263 885Q249 867 235 851T216 830Q206 820 200 819T183 817H128Q115 817 115 832Q115 845 123 853Q127 857 138 868T162 893T186 919T201 935Q211 946 221 949T244 952H283Q297 952 307 949T326
935Q330 930 340 919T364 894T389 869T404 853Z" />
<glyph unicode="&#xcb;" glyph-name="Edieresis" horiz-adv-x="538" d="M463 60Q496 60 496 30Q496 0 463 0H73Q40 0 40 33V727Q40 760 73 760H463Q496 760 496 730Q496 700 463 700H168V404H436Q469 404 469 374Q469 344 436 344H168V60H463ZM414 895Q414 909
422 919T441 929H482Q493 929 501 919T509 895V861Q509 847 501 837T482 827H441Q430 827 422 837T414 861V895ZM275 895Q275 909 283 919T302 929H343Q354 929 362 919T370 895V861Q370 847 362 837T343 827H302Q291 827 283 837T275 861V895Z" />
<glyph unicode="&#xcc;" glyph-name="Igrave" horiz-adv-x="402" d="M250 64Q250 61 250 60H293Q307 60 317 52T327 30Q327 17 317 9T293 0H79Q65 0 55 8T45 30Q45 43 55 51T79 60H122V64V696Q122 699 122 700H79Q65 700 55 708T45 730Q45 743 55 751T79 760H293Q307
760 317 752T327 730Q327 717 317 709T293 700H250V696V64ZM391 977Q398 977 402 975T415 963Q419 959 430 946T456 915T482 883T501 860Q509 851 509 841Q509 833 504 828T492 822H436Q417 822 402 839Q399 843 388 857T362 890T336 923T319 945Q312 952 312 961Q312
977 329 977H391Z" />
<glyph unicode="&#xcd;" glyph-name="Iacute" horiz-adv-x="402" d="M250 64Q250 61 250 60H293Q307 60 317 52T327 30Q327 17 317 9T293 0H79Q65 0 55 8T45 30Q45 43 55 51T79 60H122V64V696Q122 699 122 700H79Q65 700 55 708T45 730Q45 743 55 751T79 760H293Q307
760 317 752T327 730Q327 717 317 709T293 700H250V696V64ZM561 1003Q577 1003 577 988Q577 980 573 972Q571 968 561 953T537 917T512 881T498 859Q492 849 481 836T460 822H399Q387 822 387 836Q387 847 394 859Q397 865 406 880T425 915T443 951T455 973Q462
985 470 994T492 1003H561Z" />
<glyph unicode="&#xce;" glyph-name="Icircumflex" horiz-adv-x="402" d="M250 64Q250 61 250 60H293Q307 60 317 52T327 30Q327 17 317 9T293 0H79Q65 0 55 8T45 30Q45 43 55 51T79 60H122V64V696Q122 699 122 700H79Q65 700 55 708T45 730Q45 743 55 751T79
760H293Q307 760 317 752T327 730Q327 717 317 709T293 700H250V696V64ZM582 853Q590 845 590 832Q590 817 577 817H522Q512 817 506 819T489 830Q484 835 470 851T441 885Q427 867 413 851T394 830Q384 820 378 819T361 817H306Q293 817 293 832Q293 845 301 853Q305
857 316 868T340 893T364 919T379 935Q389 946 399 949T422 952H461Q475 952 485 949T504 935Q508 930 518 919T542 894T567 869T582 853Z" />
<glyph unicode="&#xcf;" glyph-name="Idieresis" horiz-adv-x="402" d="M250 64Q250 61 250 60H293Q307 60 317 52T327 30Q327 17 317 9T293 0H79Q65 0 55 8T45 30Q45 43 55 51T79 60H122V64V696Q122 699 122 700H79Q65 700 55 708T45 730Q45 743 55 751T79 760H293Q307
760 317 752T327 730Q327 717 317 709T293 700H250V696V64ZM336 895Q336 909 344 919T363 929H404Q415 929 423 919T431 895V861Q431 847 423 837T404 827H363Q352 827 344 837T336 861V895ZM453 895Q453 909 461 919T480 929H521Q532 929 540 919T548 895V861Q548
847 540 837T521 827H480Q469 827 461 837T453 861V895Z" />
<glyph unicode="&#xd0;" glyph-name="Eth" horiz-adv-x="675" d="M138 -1Q125 1 117 10T109 31V351H78Q64 351 54 361T44 385Q44 399 54 409T78 419H109V731Q109 743 116 752T137 763Q164 767 189 768T238 770Q358 770 449 727T593 597T645 385Q645 335 635 281T600
174T531 81T420 15T258 -10Q204 -10 138 -1ZM237 51Q371 48 446 127T521 385Q521 495 485 566T384 673T237 710V419H315Q329 419 339 409T349 385Q349 371 339 361T315 351H237V51Z" />
<glyph unicode="&#xd1;" glyph-name="Ntilde" horiz-adv-x="638" d="M480 727Q480 760 513 760H555Q588 760 588 727V33Q588 0 555 0H483Q456 0 444 24L158 593V33Q158 0 125 0H83Q50 0 50 33V727Q50 760 83 760H155Q182 760 194 736L480 167V727ZM267 944Q294
944 312 940T345 930Q359 924 372 918T403 906L439 934Q443 938 462 938Q479 938 498 936T528 934Q542 934 546 925T551 905Q551 898 533 882T481 852T397 838Q366 838 347 842T315 851Q298 859 289 866T268 873Q254 873 242 862T219 839T200 827H113Q101 827 94
834T87 863Q87 874 103 887T145 914T203 935T267 944Z" />
<glyph unicode="&#xd2;" glyph-name="Ograve" horiz-adv-x="661" d="M631 367Q631 253 593 169T489 37T342 -10Q255 -10 184 35T72 163T30 354Q30 437 53 512T119 645T215 736T331 770Q394 770 448 741T544 657T608 529T631 367ZM503 367Q503 459 484 534T426
653T331 697Q292 697 260 668T206 589T171 478T158 354Q158 268 180 202T243 98T342 60Q392 60 428 100T483 211T503 367ZM280 977Q287 977 291 975T304 963Q308 959 319 946T345 915T371 883T390 860Q398 851 398 841Q398 833 393 828T381 822H325Q306 822 291
839Q288 843 277 857T251 890T225 923T208 945Q201 952 201 961Q201 977 218 977H280Z" />
<glyph unicode="&#xd3;" glyph-name="Oacute" horiz-adv-x="661" d="M631 367Q631 253 593 169T489 37T342 -10Q255 -10 184 35T72 163T30 354Q30 437 53 512T119 645T215 736T331 770Q394 770 448 741T544 657T608 529T631 367ZM503 367Q503 459 484 534T426
653T331 697Q292 697 260 668T206 589T171 478T158 354Q158 268 180 202T243 98T342 60Q392 60 428 100T483 211T503 367ZM450 1003Q466 1003 466 988Q466 980 462 972Q460 968 450 953T426 917T401 881T387 859Q381 849 370 836T349 822H288Q276 822 276 836Q276
847 283 859Q286 865 295 880T314 915T332 951T344 973Q351 985 359 994T381 1003H450Z" />
<glyph unicode="&#xd4;" glyph-name="Ocircumflex" horiz-adv-x="661" d="M631 367Q631 253 593 169T489 37T342 -10Q255 -10 184 35T72 163T30 354Q30 437 53 512T119 645T215 736T331 770Q394 770 448 741T544 657T608 529T631 367ZM503 367Q503 459 484 534T426
653T331 697Q292 697 260 668T206 589T171 478T158 354Q158 268 180 202T243 98T342 60Q392 60 428 100T483 211T503 367ZM471 853Q479 845 479 832Q479 817 466 817H411Q401 817 395 819T378 830Q373 835 359 851T330 885Q316 867 302 851T283 830Q273 820 267
819T250 817H195Q182 817 182 832Q182 845 190 853Q194 857 205 868T229 893T253 919T268 935Q278 946 288 949T311 952H350Q364 952 374 949T393 935Q397 930 407 919T431 894T456 869T471 853Z" />
<glyph unicode="&#xd5;" glyph-name="Otilde" horiz-adv-x="661" d="M631 367Q631 253 593 169T489 37T342 -10Q255 -10 184 35T72 163T30 354Q30 437 53 512T119 645T215 736T331 770Q394 770 448 741T544 657T608 529T631 367ZM503 367Q503 459 484 534T426
653T331 697Q292 697 260 668T206 589T171 478T158 354Q158 268 180 202T243 98T342 60Q392 60 428 100T483 211T503 367ZM279 944Q306 944 324 940T357 930Q371 924 384 918T415 906L451 934Q455 938 474 938Q491 938 510 936T540 934Q554 934 558 925T563 905Q563
898 545 882T493 852T409 838Q378 838 359 842T327 851Q310 859 301 866T280 873Q266 873 254 862T231 839T212 827H125Q113 827 106 834T99 863Q99 874 115 887T157 914T215 935T279 944Z" />
<glyph unicode="&#xd6;" glyph-name="Odieresis" horiz-adv-x="661" d="M631 367Q631 253 593 169T489 37T342 -10Q255 -10 184 35T72 163T30 354Q30 437 53 512T119 645T215 736T331 770Q394 770 448 741T544 657T608 529T631 367ZM503 367Q503 459 484 534T426
653T331 697Q292 697 260 668T206 589T171 478T158 354Q158 268 180 202T243 98T342 60Q392 60 428 100T483 211T503 367ZM225 895Q225 909 233 919T252 929H293Q304 929 312 919T320 895V861Q320 847 312 837T293 827H252Q241 827 233 837T225 861V895ZM342 895Q342
909 350 919T369 929H410Q421 929 429 919T437 895V861Q437 847 429 837T410 827H369Q358 827 350 837T342 861V895Z" />
<glyph unicode="&#xd7;" glyph-name="multiply" horiz-adv-x="500" d="M134 526Q151 526 160 514L250 390L340 514Q349 526 366 526H418Q435 526 435 514Q435 506 430 500L300 321L431 140Q436 134 436 126Q436 114 419 114H367Q350 114 341 126L250 252L159 126Q150
114 133 114H81Q64 114 64 126Q64 134 69 140L200 321L70 500Q65 506 65 514Q65 526 82 526H134Z" />
<glyph unicode="&#xd8;" glyph-name="Oslash" horiz-adv-x="661" d="M631 367Q631 253 593 169T489 37T342 -10Q293 -10 248 5Q237 -26 231 -45T222 -67Q213 -87 202 -96T183 -105H135Q128 -105 125 -98T122 -81Q122 -74 123 -68T126 -56Q127 -54 136 -25T162
51Q102 98 66 176T30 354Q30 437 53 512T119 645T215 736T331 770Q367 770 401 760Q418 810 419 814Q424 829 436 839T457 850H521Q533 850 533 831Q533 821 530 809T523 788Q522 785 515 764T495 709Q556 657 593 568T631 367ZM158 354Q158 236 198 158Q219 220
243 291T291 433T337 570T377 688Q355 697 331 697Q292 697 260 668T206 589T171 478T158 354ZM503 367Q503 437 492 498T458 604Q437 545 413 476T364 336T316 198T273 77Q305 60 342 60Q392 60 428 100T483 211T503 367Z" />
<glyph unicode="&#xd9;" glyph-name="Ugrave" horiz-adv-x="600" d="M427 726Q427 740 437 750T461 760H521Q535 760 545 750T555 726V247Q555 129 488 60T299 -10Q177 -10 110 59T43 247V726Q43 740 53 750T77 760H137Q151 760 161 750T171 726V247Q171 154 203
102T299 50Q363 50 395 102T427 247V726ZM249 977Q256 977 260 975T273 963Q277 959 288 946T314 915T340 883T359 860Q367 851 367 841Q367 833 362 828T350 822H294Q275 822 260 839Q257 843 246 857T220 890T194 923T177 945Q170 952 170 961Q170 977 187 977H249Z"
/>
<glyph unicode="&#xda;" glyph-name="Uacute" horiz-adv-x="600" d="M427 726Q427 740 437 750T461 760H521Q535 760 545 750T555 726V247Q555 129 488 60T299 -10Q177 -10 110 59T43 247V726Q43 740 53 750T77 760H137Q151 760 161 750T171 726V247Q171 154 203
102T299 50Q363 50 395 102T427 247V726ZM419 1003Q435 1003 435 988Q435 980 431 972Q429 968 419 953T395 917T370 881T356 859Q350 849 339 836T318 822H257Q245 822 245 836Q245 847 252 859Q255 865 264 880T283 915T301 951T313 973Q320 985 328 994T350
1003H419Z" />
<glyph unicode="&#xdb;" glyph-name="Ucircumflex" horiz-adv-x="600" d="M427 726Q427 740 437 750T461 760H521Q535 760 545 750T555 726V247Q555 129 488 60T299 -10Q177 -10 110 59T43 247V726Q43 740 53 750T77 760H137Q151 760 161 750T171 726V247Q171
154 203 102T299 50Q363 50 395 102T427 247V726ZM440 853Q448 845 448 832Q448 817 435 817H380Q370 817 364 819T347 830Q342 835 328 851T299 885Q285 867 271 851T252 830Q242 820 236 819T219 817H164Q151 817 151 832Q151 845 159 853Q163 857 174 868T198
893T222 919T237 935Q247 946 257 949T280 952H319Q333 952 343 949T362 935Q366 930 376 919T400 894T425 869T440 853Z" />
<glyph unicode="&#xdc;" glyph-name="Udieresis" horiz-adv-x="600" d="M427 726Q427 740 437 750T461 760H521Q535 760 545 750T555 726V247Q555 129 488 60T299 -10Q177 -10 110 59T43 247V726Q43 740 53 750T77 760H137Q151 760 161 750T171 726V247Q171 154
203 102T299 50Q363 50 395 102T427 247V726ZM450 895Q450 909 458 919T477 929H518Q529 929 537 919T545 895V861Q545 847 537 837T518 827H477Q466 827 458 837T450 861V895ZM311 895Q311 909 319 919T338 929H379Q390 929 398 919T406 895V861Q406 847 398 837T379
827H338Q327 827 319 837T311 861V895Z" />
<glyph unicode="&#xdd;" glyph-name="Yacute" horiz-adv-x="600" d="M363 34Q363 20 353 10T329 0H269Q255 0 245 10T235 34V285L59 700Q49 721 49 737Q49 760 85 760H125Q136 760 146 756T160 741L296 399L438 741Q443 752 452 756T473 760H513Q550 760 550 738Q550
727 539 700L363 296V34ZM419 1003Q435 1003 435 988Q435 980 431 972Q429 968 419 953T395 917T370 881T356 859Q350 849 339 836T318 822H257Q245 822 245 836Q245 847 252 859Q255 865 264 880T283 915T301 951T313 973Q320 985 328 994T350 1003H419Z" />
<glyph unicode="&#xde;" glyph-name="Thorn" horiz-adv-x="602" d="M194 33Q194 0 161 0H99Q66 0 66 33V670Q66 703 99 703H161Q194 703 194 670V600Q367 592 446 538T526 372Q526 260 447 206T194 144V33ZM398 372Q398 432 381 467T320 519T194 540V204Q275 208
319 224T381 276T398 372Z" />
<glyph unicode="&#xdf;" glyph-name="germandbls" horiz-adv-x="551" d="M246 36Q212 34 212 65Q212 95 245 96Q322 102 357 139T393 249Q393 305 371 345T314 398Q301 403 293 410T285 433Q285 460 317 465Q354 470 366 495T378 585Q378 631 367 661T345 692Q300
692 267 618T217 383T198 -41Q198 -76 165 -76H103Q70 -76 70 -41Q71 186 84 339T127 582T211 712T345 752Q421 752 463 708T506 585Q506 467 421 427Q468 399 494 353T521 249Q521 155 447 99T246 36Z" />
<glyph unicode="&#xe0;" glyph-name="agrave" horiz-adv-x="569" d="M225 -10Q161 -10 117 23T49 116T25 251Q25 326 52 387T129 484T244 520Q330 520 387 484T472 389T500 266Q500 262 500 258Q507 191 516 137T534 46Q535 43 535 38Q535 8 504 3L447 -4Q419
-7 412 19Q408 35 405 52Q371 23 326 7T225 -10ZM225 50Q274 50 306 82T354 165T371 268Q371 268 371 268T371 272Q370 277 370 283Q370 288 370 292Q367 336 352 374T310 436T244 460Q223 460 202 430T167 351T153 251Q153 199 164 153T192 79T225 50ZM234 727Q241
727 245 725T258 713Q262 709 273 696T299 665T325 633T344 610Q352 601 352 591Q352 583 347 578T335 572H279Q260 572 245 589Q242 593 231 607T205 640T179 673T162 695Q155 702 155 711Q155 727 172 727H234Z" />
<glyph unicode="&#xe1;" glyph-name="aacute" horiz-adv-x="569" d="M225 -10Q161 -10 117 23T49 116T25 251Q25 326 52 387T129 484T244 520Q330 520 387 484T472 389T500 266Q500 262 500 258Q507 191 516 137T534 46Q535 43 535 38Q535 8 504 3L447 -4Q419
-7 412 19Q408 35 405 52Q371 23 326 7T225 -10ZM225 50Q274 50 306 82T354 165T371 268Q371 268 371 268T371 272Q370 277 370 283Q370 288 370 292Q367 336 352 374T310 436T244 460Q223 460 202 430T167 351T153 251Q153 199 164 153T192 79T225 50ZM404 753Q420
753 420 738Q420 730 416 722Q414 718 404 703T380 667T355 631T341 609Q335 599 324 586T303 572H242Q230 572 230 586Q230 597 237 609Q240 615 249 630T268 665T286 701T298 723Q305 735 313 744T335 753H404Z" />
<glyph unicode="&#xe2;" glyph-name="acircumflex" horiz-adv-x="569" d="M225 -10Q161 -10 117 23T49 116T25 251Q25 326 52 387T129 484T244 520Q330 520 387 484T472 389T500 266Q500 262 500 258Q507 191 516 137T534 46Q535 43 535 38Q535 8 504 3L447 -4Q419
-7 412 19Q408 35 405 52Q371 23 326 7T225 -10ZM225 50Q274 50 306 82T354 165T371 268Q371 268 371 268T371 272Q370 277 370 283Q370 288 370 292Q367 336 352 374T310 436T244 460Q223 460 202 430T167 351T153 251Q153 199 164 153T192 79T225 50ZM425 603Q433
595 433 582Q433 567 420 567H365Q355 567 349 569T332 580Q327 585 313 601T284 635Q270 617 256 601T237 580Q227 570 221 569T204 567H149Q136 567 136 582Q136 595 144 603Q148 607 159 618T183 643T207 669T222 685Q232 696 242 699T265 702H304Q318 702 328
699T347 685Q351 680 361 669T385 644T410 619T425 603Z" />
<glyph unicode="&#xe3;" glyph-name="atilde" horiz-adv-x="569" d="M225 -10Q161 -10 117 23T49 116T25 251Q25 326 52 387T129 484T244 520Q330 520 387 484T472 389T500 266Q500 262 500 258Q507 191 516 137T534 46Q535 43 535 38Q535 8 504 3L447 -4Q419
-7 412 19Q408 35 405 52Q371 23 326 7T225 -10ZM225 50Q274 50 306 82T354 165T371 268Q371 268 371 268T371 272Q370 277 370 283Q370 288 370 292Q367 336 352 374T310 436T244 460Q223 460 202 430T167 351T153 251Q153 199 164 153T192 79T225 50ZM233 694Q260
694 278 690T311 680Q325 674 338 668T369 656L405 684Q409 688 428 688Q445 688 464 686T494 684Q508 684 512 675T517 655Q517 648 499 632T447 602T363 588Q332 588 313 592T281 601Q264 609 255 616T234 623Q220 623 208 612T185 589T166 577H79Q67 577 60
584T53 613Q53 624 69 637T111 664T169 685T233 694Z" />
<glyph unicode="&#xe4;" glyph-name="adieresis" horiz-adv-x="569" d="M225 -10Q161 -10 117 23T49 116T25 251Q25 326 52 387T129 484T244 520Q330 520 387 484T472 389T500 266Q500 262 500 258Q507 191 516 137T534 46Q535 43 535 38Q535 8 504 3L447 -4Q419
-7 412 19Q408 35 405 52Q371 23 326 7T225 -10ZM225 50Q274 50 306 82T354 165T371 268Q371 268 371 268T371 272Q370 277 370 283Q370 288 370 292Q367 336 352 374T310 436T244 460Q223 460 202 430T167 351T153 251Q153 199 164 153T192 79T225 50ZM166 688Q166
702 174 712T193 722H234Q245 722 253 712T261 688V654Q261 640 253 630T234 620H193Q182 620 174 630T166 654V688ZM283 688Q283 702 291 712T310 722H351Q362 722 370 712T378 688V654Q378 640 370 630T351 620H310Q299 620 291 630T283 654V688Z" />
<glyph unicode="&#xe5;" glyph-name="aring" horiz-adv-x="569" d="M225 -10Q161 -10 117 23T49 116T25 251Q25 326 52 387T129 484T244 520Q330 520 387 484T472 389T500 266Q500 262 500 258Q507 191 516 137T534 46Q535 43 535 38Q535 8 504 3L447 -4Q419 -7
412 19Q408 35 405 52Q371 23 326 7T225 -10ZM225 50Q274 50 306 82T354 165T371 268Q371 268 371 268T371 272Q370 277 370 283Q370 288 370 292Q367 336 352 374T310 436T244 460Q223 460 202 430T167 351T153 251Q153 199 164 153T192 79T225 50ZM290 797Q305
797 326 789T368 764T403 723T417 665Q417 600 381 576T282 552Q241 552 212 569T168 613T153 670Q153 701 169 730T217 778T290 797ZM292 726Q282 726 268 712T254 673Q254 649 261 632T284 614Q301 614 308 636T316 680Q316 701 313 713T292 726Z" />
<glyph unicode="&#xe6;" glyph-name="ae" horiz-adv-x="929" d="M171 -10Q98 -10 62 34T25 151Q25 174 28 199T39 251Q59 326 102 387T203 484T328 520Q383 520 422 504T485 460Q517 488 558 504T647 520Q722 520 778 488T867 400T899 271Q899 257 890 248T866
239H509L508 237Q513 149 556 100T661 50Q693 50 712 67T750 115Q761 137 784 132L821 123Q852 115 852 88Q852 76 843 67Q812 36 765 13T661 -10Q580 -10 522 21T433 110Q386 58 320 24T171 -10ZM186 50Q231 50 270 79T339 153T384 250T401 347Q401 395 381 427T313
460Q297 460 277 442T235 395T195 328T167 251Q152 193 152 142Q152 102 161 76T186 50ZM527 338Q527 319 524 299H770Q764 370 731 415T647 460Q612 460 579 430T527 351Q527 345 527 338Z" />
<glyph unicode="&#xe7;" glyph-name="ccedilla" horiz-adv-x="557" d="M173 -185Q163 -178 163 -168Q163 -157 174 -148T201 -139H255Q263 -139 267 -143T276 -155Q282 -166 297 -169T341 -173Q368 -173 379 -168T391 -138Q391 -105 361 -95T270 -87Q251 -87 240
-76T230 -48L234 3Q235 17 245 25T269 33L329 31Q344 30 354 21T362 -2L359 -32Q420 -42 459 -71T499 -138Q499 -181 451 -207T328 -233Q285 -233 242 -220T173 -185ZM515 373Q518 366 518 360Q518 347 508 339T484 328L430 323Q418 322 409 329T396 348Q381 398
351 429T277 460Q244 460 217 432T174 357T158 254Q158 158 192 104T291 50Q335 50 362 83T402 177Q409 206 437 204L494 199Q508 198 517 189T527 167Q527 163 525 157Q503 82 442 36T291 -10Q167 -10 99 61T30 254Q30 330 61 390T148 485T277 520Q332 520 379
500T462 447T515 373Z" />
<glyph unicode="&#xe8;" glyph-name="egrave" horiz-adv-x="559" d="M473 67Q442 36 395 13T291 -10Q167 -10 99 61T30 254Q30 330 61 390T148 485T277 520Q352 520 408 488T497 400T529 271Q529 257 520 248T496 239H138Q142 150 185 100T291 50Q323 50 342 67T380
115Q391 137 414 132L451 123Q482 115 482 88Q482 76 473 67ZM277 460Q248 460 220 439T171 381T142 299H400Q394 370 361 415T277 460ZM229 727Q236 727 240 725T253 713Q257 709 268 696T294 665T320 633T339 610Q347 601 347 591Q347 583 342 578T330 572H274Q255
572 240 589Q237 593 226 607T200 640T174 673T157 695Q150 702 150 711Q150 727 167 727H229Z" />
<glyph unicode="&#xe9;" glyph-name="eacute" horiz-adv-x="559" d="M473 67Q442 36 395 13T291 -10Q167 -10 99 61T30 254Q30 330 61 390T148 485T277 520Q352 520 408 488T497 400T529 271Q529 257 520 248T496 239H138Q142 150 185 100T291 50Q323 50 342 67T380
115Q391 137 414 132L451 123Q482 115 482 88Q482 76 473 67ZM277 460Q248 460 220 439T171 381T142 299H400Q394 370 361 415T277 460ZM399 753Q415 753 415 738Q415 730 411 722Q409 718 399 703T375 667T350 631T336 609Q330 599 319 586T298 572H237Q225 572
225 586Q225 597 232 609Q235 615 244 630T263 665T281 701T293 723Q300 735 308 744T330 753H399Z" />
<glyph unicode="&#xea;" glyph-name="ecircumflex" horiz-adv-x="559" d="M473 67Q442 36 395 13T291 -10Q167 -10 99 61T30 254Q30 330 61 390T148 485T277 520Q352 520 408 488T497 400T529 271Q529 257 520 248T496 239H138Q142 150 185 100T291 50Q323 50
342 67T380 115Q391 137 414 132L451 123Q482 115 482 88Q482 76 473 67ZM277 460Q248 460 220 439T171 381T142 299H400Q394 370 361 415T277 460ZM420 603Q428 595 428 582Q428 567 415 567H360Q350 567 344 569T327 580Q322 585 308 601T279 635Q265 617 251
601T232 580Q222 570 216 569T199 567H144Q131 567 131 582Q131 595 139 603Q143 607 154 618T178 643T202 669T217 685Q227 696 237 699T260 702H299Q313 702 323 699T342 685Q346 680 356 669T380 644T405 619T420 603Z" />
<glyph unicode="&#xeb;" glyph-name="edieresis" horiz-adv-x="559" d="M473 67Q442 36 395 13T291 -10Q167 -10 99 61T30 254Q30 330 61 390T148 485T277 520Q352 520 408 488T497 400T529 271Q529 257 520 248T496 239H138Q142 150 185 100T291 50Q323 50 342
67T380 115Q391 137 414 132L451 123Q482 115 482 88Q482 76 473 67ZM277 460Q248 460 220 439T171 381T142 299H400Q394 370 361 415T277 460ZM174 645Q174 659 182 669T201 679H242Q253 679 261 669T269 645V611Q269 597 261 587T242 577H201Q190 577 182 587T174
611V645ZM291 645Q291 659 299 669T318 679H359Q370 679 378 669T386 645V611Q386 597 378 587T359 577H318Q307 577 299 587T291 611V645Z" />
<glyph unicode="&#xec;" glyph-name="igrave" horiz-adv-x="316" d="M97 476Q97 490 107 500T131 510H185Q199 510 209 500T219 476V34Q219 20 209 10T185 0H131Q117 0 107 10T97 34V476ZM107 727Q114 727 118 725T131 713Q135 709 146 696T172 665T198 633T217
610Q225 601 225 591Q225 583 220 578T208 572H152Q133 572 118 589Q115 593 104 607T78 640T52 673T35 695Q28 702 28 711Q28 727 45 727H107Z" />
<glyph unicode="&#xed;" glyph-name="iacute" horiz-adv-x="316" d="M97 476Q97 490 107 500T131 510H185Q199 510 209 500T219 476V34Q219 20 209 10T185 0H131Q117 0 107 10T97 34V476ZM277 753Q293 753 293 738Q293 730 289 722Q287 718 277 703T253 667T228
631T214 609Q208 599 197 586T176 572H115Q103 572 103 586Q103 597 110 609Q113 615 122 630T141 665T159 701T171 723Q178 735 186 744T208 753H277Z" />
<glyph unicode="&#xee;" glyph-name="icircumflex" horiz-adv-x="316" d="M97 476Q97 490 107 500T131 510H185Q199 510 209 500T219 476V34Q219 20 209 10T185 0H131Q117 0 107 10T97 34V476ZM298 603Q306 595 306 582Q306 567 293 567H238Q228 567 222 569T205
580Q200 585 186 601T157 635Q143 617 129 601T110 580Q100 570 94 569T77 567H22Q9 567 9 582Q9 595 17 603Q21 607 32 618T56 643T80 669T95 685Q105 696 115 699T138 702H177Q191 702 201 699T220 685Q224 680 234 669T258 644T283 619T298 603Z" />
<glyph unicode="&#xef;" glyph-name="idieresis" horiz-adv-x="316" d="M97 476Q97 490 107 500T131 510H185Q199 510 209 500T219 476V34Q219 20 209 10T185 0H131Q117 0 107 10T97 34V476ZM52 645Q52 659 60 669T79 679H120Q131 679 139 669T147 645V611Q147
597 139 587T120 577H79Q68 577 60 587T52 611V645ZM169 645Q169 659 177 669T196 679H237Q248 679 256 669T264 645V611Q264 597 256 587T237 577H196Q185 577 177 587T169 611V645Z" />
<glyph unicode="&#xf0;" glyph-name="eth" horiz-adv-x="577" d="M167 483Q156 476 144 476Q132 476 121 484L107 494Q92 505 92 517Q92 529 108 540L260 641Q205 702 135 720Q108 728 108 748Q108 766 118 775T147 782Q257 763 339 694L430 754Q443 762 454 762Q465
762 476 754L490 744Q505 734 505 721Q505 709 489 698L395 635Q450 566 479 469T509 255Q509 122 455 57T284 -8Q175 -8 126 49T77 223Q77 295 102 351T173 439T282 471Q320 471 354 460Q336 524 306 576L167 483ZM205 223Q205 131 224 92T284 52Q329 52 353 94T381
227L380 233Q376 284 361 324T325 387T282 411Q266 411 248 384T218 314T205 223Z" />
<glyph unicode="&#xf1;" glyph-name="ntilde" horiz-adv-x="565" d="M515 36Q515 20 505 10T481 0H425Q411 0 401 10T391 37Q391 111 391 151T391 213T390 250Q390 350 369 405T298 460Q236 460 207 434T178 348V34Q178 20 168 10T144 0H84Q70 0 60 10T50 34V486Q50
500 60 510T84 520H144Q166 520 175 501Q230 520 298 520Q369 520 411 498T475 438T505 350T514 247Q515 232 515 211T515 149T515 36ZM225 704Q252 704 270 700T303 690Q317 684 330 678T361 666L397 694Q401 698 420 698Q437 698 456 696T486 694Q500 694 504
685T509 665Q509 658 491 642T439 612T355 598Q324 598 305 602T273 611Q256 619 247 626T226 633Q212 633 200 622T177 599T158 587H71Q59 587 52 594T45 623Q45 634 61 647T103 674T161 695T225 704Z" />
<glyph unicode="&#xf2;" glyph-name="ograve" horiz-adv-x="547" d="M268 520Q342 520 398 485T485 388T517 250Q517 176 488 117T405 24T281 -10Q206 -10 150 24T62 119T30 255Q30 332 59 392T142 486T268 520ZM268 460Q229 460 201 434T158 361T143 255Q143
149 183 100T281 50Q326 50 353 79T392 154T404 250Q404 342 368 401T268 460ZM223 727Q230 727 234 725T247 713Q251 709 262 696T288 665T314 633T333 610Q341 601 341 591Q341 583 336 578T324 572H268Q249 572 234 589Q231 593 220 607T194 640T168 673T151
695Q144 702 144 711Q144 727 161 727H223Z" />
<glyph unicode="&#xf3;" glyph-name="oacute" horiz-adv-x="547" d="M268 520Q342 520 398 485T485 388T517 250Q517 176 488 117T405 24T281 -10Q206 -10 150 24T62 119T30 255Q30 332 59 392T142 486T268 520ZM268 460Q229 460 201 434T158 361T143 255Q143
149 183 100T281 50Q326 50 353 79T392 154T404 250Q404 342 368 401T268 460ZM393 753Q409 753 409 738Q409 730 405 722Q403 718 393 703T369 667T344 631T330 609Q324 599 313 586T292 572H231Q219 572 219 586Q219 597 226 609Q229 615 238 630T257 665T275
701T287 723Q294 735 302 744T324 753H393Z" />
<glyph unicode="&#xf4;" glyph-name="ocircumflex" horiz-adv-x="547" d="M268 520Q342 520 398 485T485 388T517 250Q517 176 488 117T405 24T281 -10Q206 -10 150 24T62 119T30 255Q30 332 59 392T142 486T268 520ZM268 460Q229 460 201 434T158 361T143 255Q143
149 183 100T281 50Q326 50 353 79T392 154T404 250Q404 342 368 401T268 460ZM414 603Q422 595 422 582Q422 567 409 567H354Q344 567 338 569T321 580Q316 585 302 601T273 635Q259 617 245 601T226 580Q216 570 210 569T193 567H138Q125 567 125 582Q125 595
133 603Q137 607 148 618T172 643T196 669T211 685Q221 696 231 699T254 702H293Q307 702 317 699T336 685Q340 680 350 669T374 644T399 619T414 603Z" />
<glyph unicode="&#xf5;" glyph-name="otilde" horiz-adv-x="547" d="M268 520Q342 520 398 485T485 388T517 250Q517 176 488 117T405 24T281 -10Q206 -10 150 24T62 119T30 255Q30 332 59 392T142 486T268 520ZM268 460Q229 460 201 434T158 361T143 255Q143
149 183 100T281 50Q326 50 353 79T392 154T404 250Q404 342 368 401T268 460ZM222 694Q249 694 267 690T300 680Q314 674 327 668T358 656L394 684Q398 688 417 688Q434 688 453 686T483 684Q497 684 501 675T506 655Q506 648 488 632T436 602T352 588Q321 588
302 592T270 601Q253 609 244 616T223 623Q209 623 197 612T174 589T155 577H68Q56 577 49 584T42 613Q42 624 58 637T100 664T158 685T222 694Z" />
<glyph unicode="&#xf6;" glyph-name="odieresis" horiz-adv-x="547" d="M268 520Q342 520 398 485T485 388T517 250Q517 176 488 117T405 24T281 -10Q206 -10 150 24T62 119T30 255Q30 332 59 392T142 486T268 520ZM268 460Q229 460 201 434T158 361T143 255Q143
149 183 100T281 50Q326 50 353 79T392 154T404 250Q404 342 368 401T268 460ZM168 645Q168 659 176 669T195 679H236Q247 679 255 669T263 645V611Q263 597 255 587T236 577H195Q184 577 176 587T168 611V645ZM285 645Q285 659 293 669T312 679H353Q364 679 372
669T380 645V611Q380 597 372 587T353 577H312Q301 577 293 587T285 611V645Z" />
<glyph unicode="&#xf7;" glyph-name="divide" horiz-adv-x="500" d="M196 525Q196 546 217 546H284Q305 546 305 525V458Q305 437 284 437H217Q196 437 196 458V525ZM426 364Q447 364 447 343V327Q447 306 426 306H75Q54 306 54 327V343Q54 364 75 364H426ZM196
225Q196 246 217 246H284Q305 246 305 225V158Q305 137 284 137H217Q196 137 196 158V225Z" />
<glyph unicode="&#xf8;" glyph-name="oslash" horiz-adv-x="547" d="M268 520Q288 520 306 517Q317 550 323 570T331 593Q336 608 348 618T369 629H433Q445 629 445 610Q445 600 442 588T435 567Q433 563 425 540T404 480Q457 445 487 385T517 250Q517 176 488
117T405 24T281 -10Q257 -10 234 -6Q225 -31 220 -47T212 -67Q203 -87 192 -96T173 -105H125Q118 -105 115 -98T112 -81Q112 -74 113 -68T116 -56Q117 -54 124 -32T144 28Q91 62 61 121T30 255Q30 332 59 392T142 486T268 520ZM268 460Q229 460 201 434T158 361T143
255Q143 210 151 175T173 115Q191 169 211 229T250 349T287 459Q278 460 268 460ZM404 250Q404 336 373 392Q355 338 334 278T293 159T255 53Q268 50 281 50Q326 50 353 79T392 154T404 250Z" />
<glyph unicode="&#xf9;" glyph-name="ugrave" horiz-adv-x="573" d="M523 34Q523 20 513 10T489 0H439Q427 0 418 7T406 27Q374 10 335 0T249 -10Q178 -10 138 12T79 88T55 236T50 474Q50 490 60 500T84 510H134Q148 510 158 500T168 473Q168 361 171 285T181
162T198 91T220 59T249 50Q294 50 329 72T384 132T405 221V476Q405 490 415 500T439 510H489Q503 510 513 500T523 476V34ZM253 727Q260 727 264 725T277 713Q281 709 292 696T318 665T344 633T363 610Q371 601 371 591Q371 583 366 578T354 572H298Q279 572 264
589Q261 593 250 607T224 640T198 673T181 695Q174 702 174 711Q174 727 191 727H253Z" />
<glyph unicode="&#xfa;" glyph-name="uacute" horiz-adv-x="573" d="M423 753Q439 753 439 738Q439 730 435 722Q433 718 423 703T399 667T374 631T360 609Q354 599 343 586T322 572H261Q249 572 249 586Q249 597 256 609Q259 615 268 630T287 665T305 701T317
723Q324 735 332 744T354 753H423ZM523 34Q523 20 513 10T489 0H439Q427 0 418 7T406 27Q374 10 335 0T249 -10Q178 -10 138 12T79 88T55 236T50 474Q50 490 60 500T84 510H134Q148 510 158 500T168 473Q168 361 171 285T181 162T198 91T220 59T249 50Q294 50 329
72T384 132T405 221V476Q405 490 415 500T439 510H489Q503 510 513 500T523 476V34Z" />
<glyph unicode="&#xfb;" glyph-name="ucircumflex" horiz-adv-x="573" d="M523 34Q523 20 513 10T489 0H439Q427 0 418 7T406 27Q374 10 335 0T249 -10Q178 -10 138 12T79 88T55 236T50 474Q50 490 60 500T84 510H134Q148 510 158 500T168 473Q168 361 171 285T181
162T198 91T220 59T249 50Q294 50 329 72T384 132T405 221V476Q405 490 415 500T439 510H489Q503 510 513 500T523 476V34ZM444 603Q452 595 452 582Q452 567 439 567H384Q374 567 368 569T351 580Q346 585 332 601T303 635Q289 617 275 601T256 580Q246 570 240
569T223 567H168Q155 567 155 582Q155 595 163 603Q167 607 178 618T202 643T226 669T241 685Q251 696 261 699T284 702H323Q337 702 347 699T366 685Q370 680 380 669T404 644T429 619T444 603Z" />
<glyph unicode="&#xfc;" glyph-name="udieresis" horiz-adv-x="573" d="M523 34Q523 20 513 10T489 0H439Q427 0 418 7T406 27Q374 10 335 0T249 -10Q178 -10 138 12T79 88T55 236T50 474Q50 490 60 500T84 510H134Q148 510 158 500T168 473Q168 361 171 285T181
162T198 91T220 59T249 50Q294 50 329 72T384 132T405 221V476Q405 490 415 500T439 510H489Q503 510 513 500T523 476V34ZM198 645Q198 659 206 669T225 679H266Q277 679 285 669T293 645V611Q293 597 285 587T266 577H225Q214 577 206 587T198 611V645ZM315 645Q315
659 323 669T342 679H383Q394 679 402 669T410 645V611Q410 597 402 587T383 577H342Q331 577 323 587T315 611V645Z" />
<glyph unicode="&#xfd;" glyph-name="yacute" horiz-adv-x="565" d="M295 -192Q286 -219 257 -219H221Q191 -219 191 -195Q191 -188 194 -181L253 -7Q247 -1 242 9L34 471Q30 479 30 487Q30 510 59 510H118Q145 510 156 484L297 124L419 483Q428 510 456 510H505Q535
510 535 486Q535 480 532 472L295 -192ZM402 753Q418 753 418 738Q418 730 414 722Q412 718 402 703T378 667T353 631T339 609Q333 599 322 586T301 572H240Q228 572 228 586Q228 597 235 609Q238 615 247 630T266 665T284 701T296 723Q303 735 311 744T333 753H402Z"
/>
<glyph unicode="&#xfe;" glyph-name="thorn" horiz-adv-x="488" d="M186 -54Q186 -87 153 -87H91Q58 -87 58 -54V679Q58 712 91 712H153Q186 712 186 679V492Q222 510 265 510Q366 510 413 445T461 257Q461 136 414 68T265 0Q223 0 186 18V-54ZM193 257Q193 211
205 167T235 95T265 66Q294 66 313 116T333 257Q333 348 314 398T265 448Q252 448 235 420T206 348T193 257Z" />
<glyph unicode="&#xff;" glyph-name="ydieresis" horiz-adv-x="565" d="M295 -192Q286 -219 257 -219H221Q191 -219 191 -195Q191 -188 194 -181L253 -7Q247 -1 242 9L34 471Q30 479 30 487Q30 510 59 510H118Q145 510 156 484L297 124L419 483Q428 510 456 510H505Q535
510 535 486Q535 480 532 472L295 -192ZM177 645Q177 659 185 669T204 679H245Q256 679 264 669T272 645V611Q272 597 264 587T245 577H204Q193 577 185 587T177 611V645ZM294 645Q294 659 302 669T321 679H362Q373 679 381 669T389 645V611Q389 597 381 587T362
577H321Q310 577 302 587T294 611V645Z" />
<glyph unicode="&#x2013;" glyph-name="endash" horiz-adv-x="424" d="M0 356Q0 365 6 371T21 377H403Q412 377 418 371T424 356V328Q424 319 418 313T403 307H21Q12 307 6 313T0 328V356Z" />
<glyph unicode="&#x2014;" glyph-name="emdash" horiz-adv-x="534" d="M0 356Q0 377 21 377H513Q534 377 534 356V328Q534 307 513 307H21Q0 307 0 328V356Z" />
<glyph unicode="&#x2018;" glyph-name="quoteleft" horiz-adv-x="334" d="M264 621Q264 607 254 597T230 587H164Q150 587 140 597T130 621V667Q130 678 136 686L166 780Q173 802 192 802Q226 802 226 778L215 701H230Q244 701 254 691T264 667V621Z" />
<glyph unicode="&#x2019;" glyph-name="quoteright" horiz-adv-x="500" d="M236 730Q236 744 246 754T270 764H336Q350 764 360 754T370 730V684Q370 673 364 665L334 571Q327 549 308 549Q274 549 274 573L285 650H270Q256 650 246 660T236 684V730Z" />
<glyph unicode="&#x201a;" glyph-name="quotesinglbase" horiz-adv-x="334" d="M326 80Q326 94 336 104T360 114H426Q440 114 450 104T460 80V34Q460 23 454 15L424 -79Q417 -101 398 -101Q364 -101 364 -77L375 0H360Q346 0 336 10T326 34V80Z" />
<glyph unicode="&#x201c;" glyph-name="quotedblleft" horiz-adv-x="444" d="M264 621Q264 607 254 597T230 587H164Q150 587 140 597T130 621V667Q130 678 136 686L166 780Q173 802 192 802Q226 802 226 778L215 701H230Q244 701 254 691T264 667V621ZM414 621Q414
607 404 597T380 587H314Q300 587 290 597T280 621V667Q280 678 286 686L316 780Q323 802 342 802Q376 802 376 778L365 701H380Q394 701 404 691T414 667V621Z" />
<glyph unicode="&#x201d;" glyph-name="quotedblright" horiz-adv-x="444" d="M180 730Q180 744 190 754T214 764H280Q294 764 304 754T314 730V684Q314 673 308 665L278 571Q271 549 252 549Q218 549 218 573L229 650H214Q200 650 190 660T180 684V730ZM30 730Q30
744 40 754T64 764H130Q144 764 154 754T164 730V684Q164 673 158 665L128 571Q121 549 102 549Q68 549 68 573L79 650H64Q50 650 40 660T30 684V730Z" />
<glyph unicode="&#x201e;" glyph-name="quotedblbase" horiz-adv-x="500" d="M224 80Q224 94 234 104T258 114H324Q338 114 348 104T358 80V34Q358 23 352 15L322 -79Q315 -101 296 -101Q262 -101 262 -77L273 0H258Q244 0 234 10T224 34V80ZM74 80Q74 94 84 104T108
114H174Q188 114 198 104T208 80V34Q208 23 202 15L172 -79Q165 -101 146 -101Q112 -101 112 -77L123 0H108Q94 0 84 10T74 34V80Z" />
<glyph unicode="&#x2022;" glyph-name="bullet" horiz-adv-x="500" d="M126 422Q126 455 159 455H341Q374 455 374 422V240Q374 207 341 207H159Q126 207 126 240V422Z" />
<glyph unicode="&#x2039;" glyph-name="guilsinglleft" horiz-adv-x="500" d="M414 156Q416 152 416 146Q416 131 398 131H318Q301 131 294 147L226 299Q223 307 223 313Q223 321 227 328L313 482Q321 497 338 497H416Q434 497 434 483Q434 478 431 472L351 328Q347
321 347 313Q347 307 350 299L414 156Z" />
<glyph unicode="&#x203a;" glyph-name="guilsinglright" horiz-adv-x="500" d="M86 156Q84 152 84 146Q84 131 102 131H182Q199 131 206 147L274 299Q277 307 277 313Q277 321 273 328L187 482Q179 497 162 497H84Q66 497 66 483Q66 478 69 472L149 328Q153 321
153 313Q153 307 150 299L86 156Z" />
</font>
</defs>
</svg>
