<?xml version="1.0" standalone="no"?>
<!DOCTYPE svg PUBLIC "-//W3C//DTD SVG 1.1//EN" "http://www.w3.org/Graphics/SVG/1.1/DTD/svg11.dtd">
<svg xmlns="http://www.w3.org/2000/svg">
<defs >
<font id="NuosuSIL" horiz-adv-x="1516" ><font-face
    font-family="Nuosu SIL"
    units-per-em="2048"
    panose-1="2 0 0 0 0 0 0 0 0 0"
    ascent="2200"
    descent="-500"
    alphabetic="0" />
<glyph unicode=" " glyph-name="space" horiz-adv-x="520" />
<glyph unicode="!" glyph-name="exclam" horiz-adv-x="709" d="M335 373L245 1218L236 1297Q229 1358 263 1400T358 1443Q418 1443 445 1396T473 1287Q473 1271 472 1254T469 1218L375 373H335ZM355 -31Q315 -31 279 -1Q238 31 238 89Q238 138 278 172Q307 200
355 200Q401 200 433 169Q469 137 469 89Q469 37 436 4Q401 -31 355 -31Z" />
<glyph unicode="&quot;" glyph-name="quotedbl" horiz-adv-x="869" d="M599 837L543 1140Q530 1208 525 1252T519 1318Q519 1443 625 1443Q673 1443 701 1411Q729 1382 729 1333Q729 1296 725 1248T708 1140L649 837H599ZM219 837L162 1144Q139 1267 139 1318Q139
1443 242 1443Q289 1443 319 1413Q349 1380 349 1330Q349 1297 320 1143L262 837H219Z" />
<glyph unicode="#" glyph-name="numbersign" horiz-adv-x="1067" d="M119 -31L216 445H37V531H232L306 888H37V970H326L420 1443H505L412 970H762L864 1443H950L851 970H1030V888H837L762 531H1030V445H744L648 -31H563L658 445H306L207 -31H119ZM320 531H675L748
888H393L320 531Z" />
<glyph unicode="$" glyph-name="dollar" horiz-adv-x="1067" d="M479 -162V-31Q278 -20 110 53V349H156Q175 66 479 39V646Q273 780 206 851Q110 953 110 1097Q110 1260 242 1353Q342 1427 479 1436V1532H545V1436Q578 1435 614 1430T688 1417Q718 1407 768 1389T890
1343V1031H848Q823 1337 545 1366V837Q672 746 752 683T867 582Q957 486 957 350Q957 188 832 80Q712 -21 545 -31V-162H479ZM545 39Q623 45 697 100Q791 176 791 299Q791 383 727 455Q705 480 660 516T545 601V39ZM479 881V1366Q272 1333 272 1163Q272 1011 479
881Z" />
<glyph unicode="%" glyph-name="percent" horiz-adv-x="1842" d="M459 -31L1205 1308Q1074 1253 941 1253Q876 1253 835 1268Q835 1261 837 1247T842 1213Q851 1171 851 1154Q851 948 703 776Q565 618 415 618Q160 618 160 911Q160 1087 303 1251Q445 1417 622
1417Q706 1417 785 1357Q866 1297 964 1300Q1175 1302 1284 1447H1386L562 -31H459ZM455 691Q591 691 698 859Q795 1013 795 1185L778 1283Q756 1289 734 1300T686 1328Q649 1356 629 1356Q555 1356 448 1211Q322 1044 322 849Q322 691 455 691ZM1261 -31Q991 -31
991 262Q991 443 1134 602Q1278 765 1454 765Q1554 765 1622 689Q1682 620 1682 529Q1682 292 1540 123Q1411 -31 1261 -31ZM1286 34Q1425 34 1531 212Q1626 367 1626 516Q1626 586 1589 638Q1546 695 1479 695Q1354 695 1248 511Q1153 341 1153 183Q1153 34 1286
34Z" />
<glyph unicode="&amp;" glyph-name="ampersand" horiz-adv-x="1659" d="M445 -33Q271 -33 166 66Q71 153 71 279Q71 559 505 789Q418 981 418 1098Q418 1265 535 1361Q636 1443 781 1443Q911 1443 990 1366Q1062 1293 1062 1188Q1062 1058 940 951Q908 923 853
889T719 814Q784 697 853 590T997 383Q1178 601 1178 752Q1178 798 1151 834Q1124 869 1081 869V908H1519V869Q1423 857 1389 828Q1339 789 1254 635Q1212 558 1160 480T1045 322Q1218 127 1357 127Q1511 127 1547 280L1587 255Q1565 149 1499 71Q1410 -33 1266
-33Q1087 -33 899 170Q794 79 725 41Q591 -33 445 -33ZM552 94Q681 94 845 230Q768 335 721 404T654 505Q640 530 611 583T538 718Q289 580 289 373Q289 264 356 183Q430 94 552 94ZM685 884Q941 1000 941 1193Q941 1270 894 1320Q846 1370 781 1370Q681 1370 632
1291Q596 1239 596 1181Q596 1076 685 884Z" />
<glyph unicode="&apos;" glyph-name="quotesingle" horiz-adv-x="385" d="M166 837L110 1144Q89 1269 89 1318Q89 1443 186 1443Q243 1443 270 1409T297 1333Q297 1317 290 1269T269 1143L213 837H166Z" />
<glyph unicode="(" glyph-name="parenleft" horiz-adv-x="709" d="M661 -458Q400 -334 245 -70Q89 196 89 512Q89 833 246 1095Q407 1362 661 1480V1437Q484 1343 388 1115Q287 885 287 539Q287 -188 661 -418V-458Z" />
<glyph unicode=")" glyph-name="parenright" horiz-adv-x="709" d="M47 -458V-418Q425 -218 425 482Q425 782 370 974Q284 1286 47 1439V1480Q318 1346 472 1085Q623 824 623 509Q623 192 462 -77Q303 -344 47 -458Z" />
<glyph unicode="*" glyph-name="asterisk" horiz-adv-x="1065" d="M529 618Q492 618 470 651Q449 686 449 724Q449 778 476 869Q514 999 516 1012Q516 1012 379 884Q284 795 236 795Q202 795 177 817Q152 838 152 869Q152 946 289 990Q339 1007 389 1020T492 1048Q467
1062 363 1087Q313 1099 278 1111T222 1134Q152 1169 152 1224Q152 1300 230 1300Q284 1300 379 1214Q414 1182 447 1150T515 1084Q513 1104 504 1141T478 1234Q449 1331 449 1370Q449 1480 539 1480Q576 1480 598 1446Q619 1413 619 1374Q619 1347 612 1311T592
1230Q576 1172 567 1136T556 1084Q563 1089 598 1121T695 1211Q786 1297 834 1297Q867 1297 892 1276Q917 1253 917 1221Q917 1145 781 1103Q732 1088 682 1075T581 1048Q631 1032 681 1019T781 988Q914 947 914 874Q914 798 837 798Q776 798 689 884Q656 915 623
947T556 1011Q556 956 588 867Q619 775 619 728Q619 618 529 618Z" />
<glyph unicode="+" glyph-name="plus" horiz-adv-x="2051" d="M961 0V552H410V679H961V1230H1088V679H1640V552H1088V0H961Z" />
<glyph unicode="," glyph-name="comma" horiz-adv-x="533" d="M114 -356V-309Q203 -283 266 -216Q339 -137 339 -41Q339 0 316 0Q302 0 270 -16Q243 -31 226 -31Q114 -31 114 86Q114 136 154 173Q195 207 250 207Q316 207 368 152Q425 87 425 -10Q425 -250 114 -356Z" />
<glyph unicode="-" glyph-name="hyphen" horiz-adv-x="709" d="M86 398V556H623V398H86Z" />
<glyph unicode="." glyph-name="period" horiz-adv-x="533" d="M266 -31Q215 -31 183 4Q152 38 152 89Q152 138 184 170Q217 203 266 203Q314 203 347 170Q382 138 382 89Q382 40 349 4Q314 -31 266 -31Z" />
<glyph unicode="/" glyph-name="slash" horiz-adv-x="592" d="M1 -31L515 1480H596L89 -31H1Z" />
<glyph unicode="0" glyph-name="zero" horiz-adv-x="1065" d="M526 -24Q326 -24 197 199Q76 405 76 696Q76 1025 216 1238Q346 1441 538 1441Q723 1441 852 1247Q990 1042 990 718Q990 416 871 204Q743 -24 526 -24ZM531 41Q786 41 786 765Q786 1052 722 1211Q656
1374 535 1374Q430 1374 365 1236Q280 1055 280 672Q280 364 349 199Q413 41 531 41Z" />
<glyph unicode="1" glyph-name="one" horiz-adv-x="1065" d="M275 0V39Q403 39 432 77Q458 112 458 250V1011Q458 1086 457 1132T450 1195Q435 1271 373 1271Q330 1271 265 1240L250 1273L592 1441H629V250Q629 110 652 77Q682 39 805 39V0H275Z" />
<glyph unicode="2" glyph-name="two" horiz-adv-x="1065" d="M47 0V39Q142 127 210 192T320 299Q467 449 563 586Q714 800 714 974Q714 1133 606 1218Q527 1281 435 1281Q207 1281 124 1044H89Q106 1190 179 1290Q286 1441 488 1441Q648 1441 765 1343Q892 1234
892 1070Q892 824 591 498Q455 351 375 266T269 157H638Q704 157 747 160T809 169Q881 188 940 270H978L878 0H47Z" />
<glyph unicode="3" glyph-name="three" horiz-adv-x="1065" d="M332 -24Q89 -24 89 89Q89 120 113 140Q138 162 170 162Q218 162 306 114Q396 66 472 66Q569 66 654 143Q736 223 736 340Q736 573 531 661Q443 698 325 699V732Q416 742 505 802Q646 896 646 1060Q646
1182 563 1247Q499 1297 415 1297Q252 1297 143 1125L109 1143Q168 1267 219 1324Q325 1441 490 1441Q669 1441 756 1327Q818 1244 818 1154Q818 1002 628 837Q889 740 889 468Q889 249 739 112Q590 -24 332 -24Z" />
<glyph unicode="4" glyph-name="four" horiz-adv-x="1065" d="M632 0V373H33V505L689 1441H804V521H990V373H804V0H632ZM136 521H632V1221L136 521Z" />
<glyph unicode="5" glyph-name="five" horiz-adv-x="1065" d="M345 -24Q229 -24 164 14Q103 53 103 113Q103 189 184 189Q226 189 309 136Q389 82 462 82Q584 82 675 173Q766 265 766 398Q766 587 611 715Q444 854 150 864L420 1410H925L845 1234H420L326 1045Q500
1028 664 922Q902 769 902 509Q902 265 711 110Q545 -24 345 -24Z" />
<glyph unicode="6" glyph-name="six" horiz-adv-x="1065" d="M535 -24Q342 -24 216 147Q93 313 93 553Q93 944 383 1218Q621 1441 895 1441H955V1403Q723 1389 558 1221Q391 1055 326 786Q478 892 628 892Q752 892 852 802Q984 686 984 476Q984 279 864 133Q730
-24 535 -24ZM566 33Q664 37 728 119Q798 210 798 363Q798 541 734 664Q661 802 526 802Q454 802 309 711Q289 554 289 486Q289 323 360 184Q442 29 566 33Z" />
<glyph unicode="7" glyph-name="seven" horiz-adv-x="1065" d="M383 -31L805 1240H418Q268 1240 193 1183Q161 1158 109 1068L77 1078L216 1410H968V1374L498 -31H383Z" />
<glyph unicode="8" glyph-name="eight" horiz-adv-x="1065" d="M533 -24Q346 -24 232 89Q127 191 127 322Q127 513 410 709Q344 767 300 807T236 871Q146 977 146 1105Q146 1257 262 1351Q373 1441 533 1441Q735 1441 838 1320Q912 1233 912 1135Q912 1024 812
925Q749 862 621 784Q694 727 746 682T828 602Q942 475 942 335Q942 205 861 107Q752 -24 533 -24ZM548 33Q654 33 725 92Q795 149 795 250Q795 307 766 368T675 488Q623 536 569 581T459 672Q287 523 287 326Q287 191 360 110Q435 33 548 33ZM573 822Q679 922
708 961Q762 1042 762 1148Q762 1380 535 1380Q436 1380 366 1324Q297 1269 297 1174Q297 1081 369 998Q410 952 573 822Z" />
<glyph unicode="9" glyph-name="nine" horiz-adv-x="1065" d="M113 -31V9Q351 15 498 174Q679 371 741 621Q580 515 445 515Q280 515 179 646Q86 765 86 935Q86 1152 219 1300Q348 1441 525 1441Q729 1441 857 1253Q974 1081 974 859Q974 512 736 247Q482 -31
172 -31H113ZM529 609Q589 609 662 639Q733 667 756 696Q767 772 771 825T776 912Q776 1127 685 1258Q605 1377 500 1374Q398 1369 339 1287Q270 1197 270 1044Q270 852 342 729Q413 609 529 609Z" />
<glyph unicode=":" glyph-name="colon" horiz-adv-x="595" d="M297 -31Q250 -31 216 3Q180 38 180 89Q180 141 217 172Q254 203 297 203Q341 203 378 172Q415 138 415 89Q415 38 378 3Q344 -31 297 -31ZM299 752Q253 752 217 786Q183 820 183 867Q183 917 216
950Q251 982 299 982Q345 982 380 950Q415 915 415 867Q415 819 379 785Q343 752 299 752Z" />
<glyph unicode=";" glyph-name="semicolon" horiz-adv-x="595" d="M179 -356V-309Q263 -284 330 -216Q402 -136 402 -41Q402 0 379 0Q364 0 335 -16Q305 -31 289 -31Q179 -31 179 86Q179 139 219 173Q257 207 313 207Q379 207 430 152Q488 90 488 -10Q488 -249
179 -356ZM326 755Q277 755 245 788Q209 821 209 869Q209 918 243 951Q279 984 326 984Q372 984 408 951Q440 917 440 869Q440 820 406 786Q372 755 326 755Z" />
<glyph unicode="&lt;" glyph-name="less" horiz-adv-x="2051" d="M1640 80L410 552V679L1640 1150V1022L541 615L1640 207V80Z" />
<glyph unicode="=" glyph-name="equal" horiz-adv-x="2051" d="M410 738V865H1640V738H410ZM410 365V492H1640V365H410Z" />
<glyph unicode="&gt;" glyph-name="greater" horiz-adv-x="2051" d="M410 80V207L1509 615L410 1022V1150L1640 679V552L410 80Z" />
<glyph unicode="?" glyph-name="question" horiz-adv-x="947" d="M429 332Q440 575 571 789Q668 954 668 1098Q668 1243 588 1320Q521 1386 426 1386Q334 1386 282 1343Q230 1300 230 1248Q230 1216 262 1155Q295 1096 295 1070Q295 1030 269 1004Q241 980 212
980Q177 980 143 1011Q96 1056 96 1144Q96 1269 193 1353Q295 1443 472 1443Q643 1443 752 1356Q861 1268 861 1115Q861 953 699 771Q635 698 594 646T535 562Q481 465 473 332H429ZM459 -29Q411 -29 376 3Q340 35 340 89Q340 138 376 172Q413 204 459 204Q506
204 539 172Q573 139 573 89Q573 34 538 3Q505 -29 459 -29Z" />
<glyph unicode="@" glyph-name="at" horiz-adv-x="1963" d="M1008 -462Q585 -462 327 -162Q100 103 100 463Q100 933 422 1224Q705 1480 1084 1480Q1405 1480 1609 1297Q1829 1104 1829 766Q1829 460 1663 246Q1497 33 1254 33Q1097 33 1097 184Q1097 209 1101
245T1113 327Q867 33 704 33Q626 33 572 99Q516 164 516 273Q516 525 714 766Q906 1004 1088 1004Q1238 1004 1268 859L1301 974L1464 998L1344 582Q1247 235 1247 184Q1247 151 1270 129Q1293 107 1327 107Q1471 107 1607 287Q1765 492 1765 786Q1765 1079 1566
1257Q1376 1427 1091 1427Q725 1427 465 1150Q199 866 199 435Q199 94 400 -137Q624 -396 1015 -396Q1358 -396 1599 -179Q1759 -36 1852 179H1910Q1854 -32 1656 -216Q1388 -462 1008 -462ZM799 157Q895 157 1011 279Q1115 390 1173 535Q1202 608 1213 650T1227
721T1230 785Q1230 955 1101 955Q959 955 814 696Q681 461 681 306Q681 238 722 194Q757 157 799 157Z" />
<glyph unicode="A" glyph-name="A" horiz-adv-x="1532" d="M16 0V39Q102 45 154 104Q176 129 199 173T250 280L746 1443H784L1273 270Q1303 198 1330 152T1381 84Q1427 45 1514 39V0H960V39Q1101 41 1101 129Q1101 173 1060 270L975 473H429L332 247Q297 165 297
132Q297 54 462 39V0H16ZM462 549H947L708 1121L462 549Z" />
<glyph unicode="B" glyph-name="B" horiz-adv-x="1386" d="M37 0V39H89Q178 39 216 96Q237 131 237 250V1163Q237 1299 209 1328Q169 1374 89 1374H37V1410H646Q1240 1410 1240 1034Q1240 927 1177 847Q1109 761 984 722Q1304 660 1304 386Q1304 213 1163 103Q1032
0 701 0H37ZM679 74Q859 74 965 157Q1064 237 1064 369Q1064 512 950 602Q834 691 623 691Q486 691 439 681V103Q502 88 562 81T679 74ZM638 762Q1021 762 1021 1044Q1021 1172 925 1253Q817 1341 628 1341Q519 1341 439 1320V776Q469 770 519 766T638 762Z" />
<glyph unicode="C" glyph-name="C" horiz-adv-x="1423" d="M762 -33Q450 -33 256 183Q76 383 76 685Q76 998 273 1218Q476 1443 795 1443Q924 1443 1041 1394Q1101 1369 1130 1357T1160 1344Q1222 1344 1247 1443H1283L1316 964H1283Q1163 1370 812 1370Q586 1370
455 1201Q385 1111 349 982T313 682Q313 386 459 219Q599 60 842 60Q988 60 1087 117Q1195 181 1316 353L1347 330Q1141 -33 762 -33Z" />
<glyph unicode="D" glyph-name="D" horiz-adv-x="1540" d="M37 0V39H90Q179 39 216 96Q237 135 237 250V1163Q237 1296 212 1328Q166 1374 90 1374H37V1410H611Q1055 1410 1240 1244Q1457 1055 1457 714Q1457 398 1267 209Q1056 0 668 0H37ZM661 71Q904 69 1062
242Q1221 413 1221 704Q1221 994 1062 1163Q904 1333 652 1333Q602 1333 549 1326T439 1301V103Q587 71 661 71Z" />
<glyph unicode="E" glyph-name="E" horiz-adv-x="1301" d="M46 0V39H94Q166 39 206 73Q246 107 246 250V1167Q246 1302 219 1330Q178 1374 94 1374H46V1410H1131L1148 1103H1107Q1072 1242 1054 1266Q1000 1334 834 1334H445V776H755Q888 776 931 824Q962 859
978 980H1017V490H978Q962 614 931 649Q887 699 755 699H445V233Q445 142 455 122Q476 76 563 76H802Q968 76 1044 129Q1110 176 1211 355H1254L1131 0H46Z" />
<glyph unicode="F" glyph-name="F" horiz-adv-x="1185" d="M34 0V39H86Q170 39 212 90Q236 122 236 250V1163Q236 1296 207 1327Q160 1374 86 1374H34V1410H1084L1098 1103H1062Q1022 1237 964 1283Q897 1334 748 1334H436V781H694Q784 781 824 821Q862 864 878
972H917V493H878Q878 599 837 646Q795 694 694 694H436V250Q436 116 459 93Q503 39 588 39H639V0H34Z" />
<glyph unicode="G" glyph-name="G" horiz-adv-x="1540" d="M855 -33Q498 -33 280 176Q74 376 74 685Q74 972 265 1193Q479 1443 822 1443Q965 1443 1091 1399Q1220 1353 1220 1353Q1261 1353 1271 1443H1310L1344 998H1310Q1186 1371 842 1371Q594 1371 450 1187Q316
1014 313 729Q311 428 466 233Q621 39 857 39Q1021 39 1148 117V525Q1148 654 1114 691Q1079 728 964 732V769H1509V732H1484Q1402 732 1374 676Q1351 646 1351 525V94Q1129 -33 855 -33Z" />
<glyph unicode="H" glyph-name="H" horiz-adv-x="1540" d="M37 0V39H89Q173 39 213 90Q237 118 237 250V1163Q237 1291 209 1327Q171 1374 89 1374H37V1410H642V1374H591Q510 1374 469 1328Q436 1290 436 1163V756H1095V1163Q1095 1297 1064 1328Q1018 1374 942
1374H892V1410H1497V1374H1446Q1368 1374 1324 1328Q1303 1305 1297 1276Q1296 1264 1295 1236T1294 1163V250Q1294 122 1318 90Q1356 39 1446 39H1497V0H892V39H942Q1029 39 1068 90Q1095 127 1095 250V681H436V250Q436 121 463 89Q504 39 591 39H642V0H37Z" />
<glyph unicode="I" glyph-name="I" horiz-adv-x="709" d="M53 0V39H104Q188 39 230 90Q255 121 255 250V1163Q255 1292 232 1320Q189 1374 104 1374H53V1410H658V1374H606Q521 1374 482 1323Q455 1287 455 1163V250Q455 125 479 89Q493 71 531 56Q566 39 606 39H658V0H53Z"
/>
<glyph unicode="J" glyph-name="J" horiz-adv-x="831" d="M255 -33Q156 -33 100 14Q46 61 46 127Q46 236 150 236Q219 236 260 139Q300 41 339 41Q416 41 416 199V1163Q416 1281 396 1316Q385 1338 343 1356Q323 1364 303 1369T262 1374H213V1410H817V1374H765Q684
1374 639 1323Q615 1292 615 1163V472Q615 186 483 57Q392 -33 255 -33Z" />
<glyph unicode="K" glyph-name="K" horiz-adv-x="1540" d="M37 0V39H86Q173 39 213 90Q236 117 236 250V1163Q236 1298 209 1328Q195 1344 157 1358Q121 1374 86 1374H37V1410H638V1374H588Q513 1374 475 1336Q436 1297 436 1163V719Q451 732 487 764T581 851Q727
987 820 1084T954 1240Q980 1280 980 1314Q980 1374 885 1374H852V1410H1374V1374Q1290 1374 1197 1316Q1133 1276 1091 1236Q1088 1234 852 998L638 784L1158 265Q1223 201 1277 158T1377 90Q1457 50 1559 39V0H885V39Q992 39 1001 104Q1006 139 922 222L498 643L436
582V250Q436 125 462 90Q498 39 588 39H638V0H37Z" />
<glyph unicode="L" glyph-name="L" horiz-adv-x="1301" d="M39 0V39Q144 39 189 67Q246 106 246 216V1195Q246 1306 189 1343Q144 1371 39 1371V1410H652V1371Q547 1371 502 1343Q445 1304 445 1195V266Q445 155 488 119Q523 90 621 90H765Q995 90 1064 152Q1151
225 1221 389L1258 383L1135 0H39Z" />
<glyph unicode="M" glyph-name="M" horiz-adv-x="1896" d="M37 0V39H86Q173 39 213 94Q233 127 233 246V1167Q233 1300 189 1334Q137 1374 37 1374V1410H435L947 307L1451 1410H1852V1374H1802Q1714 1374 1673 1320Q1650 1283 1650 1167V246Q1650 117 1682 82Q1718
39 1802 39H1852V0H1250V39H1300Q1390 39 1429 94Q1451 126 1451 246V1187L907 0H871L326 1187V246Q326 118 356 82Q395 39 478 39H526V0H37Z" />
<glyph unicode="N" glyph-name="N" horiz-adv-x="1540" d="M1273 -23L340 1113V246Q340 116 369 82Q405 39 492 39H541V0H49V39H99Q192 39 226 94Q250 124 250 246V1226Q234 1247 218 1268T184 1311Q117 1374 13 1374V1410H356L1218 353V1167Q1218 1298 1188 1328Q1147
1374 1065 1374H1018V1410H1509V1374H1460Q1368 1374 1333 1320Q1310 1287 1310 1167V-23H1273Z" />
<glyph unicode="O" glyph-name="O" horiz-adv-x="1540" d="M762 -33Q471 -33 275 172Q74 382 74 709Q74 1025 277 1234Q479 1443 781 1443Q1062 1443 1258 1236Q1456 1028 1456 714Q1456 396 1257 180Q1056 -33 762 -33ZM761 41Q971 39 1091 197Q1217 365 1220
686Q1224 1365 758 1370Q549 1371 430 1197Q313 1019 313 715Q313 411 429 230Q548 44 761 41Z" />
<glyph unicode="P" glyph-name="P" horiz-adv-x="1185" d="M37 0V39H89Q179 39 216 96Q236 131 236 250V1163Q236 1295 209 1328Q172 1374 89 1374H37V1410H552Q832 1410 950 1323Q1111 1200 1111 1021Q1111 631 618 632Q599 632 554 634T436 642V250Q436 118
468 86Q503 39 586 39H639V0H37ZM606 699Q720 699 795 784Q871 868 874 1001Q875 1136 799 1228Q718 1328 573 1328Q531 1328 436 1308V711Q479 706 522 703T606 699Z" />
<glyph unicode="Q" glyph-name="Q" horiz-adv-x="1540" d="M1450 -418Q1330 -413 1207 -380T957 -285Q841 -228 747 -161T581 -14Q74 163 74 708Q74 1024 276 1234Q476 1443 776 1443Q1063 1443 1260 1234Q1457 1025 1457 705Q1457 448 1316 253Q1172 56 940 -14Q1138
-360 1450 -383V-418ZM762 39Q980 36 1100 207Q1220 377 1220 679Q1220 999 1101 1181Q981 1366 762 1366Q553 1366 432 1195Q313 1023 313 708Q313 405 429 226Q549 41 762 39Z" />
<glyph unicode="R" glyph-name="R" horiz-adv-x="1423" d="M37 0V39H90Q180 39 217 96Q237 128 237 250V1163Q237 1296 212 1328Q166 1374 90 1374H37V1410H549Q785 1410 884 1377Q998 1340 1065 1257Q1138 1168 1138 1050Q1138 766 791 686L1081 280Q1172 152
1248 100Q1321 51 1441 39V0H1064L586 661Q472 654 436 661V250Q436 120 468 86Q503 39 586 39H642V0H37ZM436 725H496Q696 725 804 812Q904 894 904 1034Q904 1168 821 1248Q738 1330 601 1333Q547 1333 436 1314V725Z" />
<glyph unicode="S" glyph-name="S" horiz-adv-x="1185" d="M147 -33V450H184Q208 248 332 142Q442 49 605 49Q728 49 809 119Q885 184 885 279Q885 378 808 449Q748 503 545 618Q295 759 216 851Q136 939 136 1072Q136 1228 247 1334Q360 1443 545 1443Q644 1443
748 1403Q857 1363 871 1363Q917 1363 940 1443H978V955H940Q920 1149 811 1254Q703 1361 548 1361Q443 1361 372 1297Q299 1233 299 1144Q299 1062 369 997Q404 963 474 919T649 818Q744 768 811 727T921 654Q1072 539 1072 360Q1072 198 947 82Q818 -33 628 -33Q515
-33 390 9Q267 49 247 49Q198 49 184 -33H147Z" />
<glyph unicode="T" glyph-name="T" horiz-adv-x="1297" d="M346 0V39H398Q485 39 525 94Q545 127 545 246V1324H378Q236 1324 186 1280Q111 1225 99 1081H51L66 1410H1236L1248 1081H1204Q1190 1202 1138 1254Q1071 1324 945 1324H746V246Q746 114 775 82Q811
39 895 39H945V0H346Z" />
<glyph unicode="U" glyph-name="U" horiz-adv-x="1540" d="M769 -33Q395 -33 275 204Q216 323 216 609V1163Q216 1274 193 1314Q162 1374 63 1374H31V1410H601V1374H548Q477 1374 443 1318Q416 1278 416 1163V545Q416 339 465 232Q549 56 784 56Q988 56 1121 183Q1220
276 1220 591V1163Q1220 1296 1191 1328Q1151 1374 1070 1374H1017V1410H1517V1374H1464Q1388 1374 1337 1301Q1327 1286 1321 1250T1314 1154V581Q1314 249 1191 123Q1151 83 1109 52T1021 4Q922 -33 769 -33Z" />
<glyph unicode="V" glyph-name="V" horiz-adv-x="1540" d="M771 -33L245 1185Q197 1294 153 1330Q105 1367 19 1374V1410H595V1374Q480 1362 450 1323Q439 1303 439 1276Q439 1224 486 1115L847 287L1178 1107Q1228 1228 1228 1268Q1228 1290 1218 1308Q1191 1353
1078 1374V1410H1513V1374Q1436 1362 1400 1327Q1343 1272 1301 1171L809 -33H771Z" />
<glyph unicode="W" glyph-name="W" horiz-adv-x="2013" d="M661 -33L242 1140Q182 1310 156 1328Q119 1374 29 1374V1410H549V1374H525Q449 1374 425 1327Q415 1308 415 1290Q415 1247 459 1121L736 327L970 1002Q958 1043 946 1079T921 1148Q862 1298 817 1337Q769
1374 699 1374V1410H1248V1374H1211Q1098 1374 1098 1281Q1098 1226 1144 1097L1417 327L1685 1107Q1729 1230 1729 1277Q1729 1374 1574 1374V1410H1995V1374Q1894 1374 1840 1280Q1830 1258 1813 1215T1773 1107L1381 -33H1338L1018 869L699 -33H661Z" />
<glyph unicode="X" glyph-name="X" horiz-adv-x="1540" d="M14 0V39Q182 45 363 273L696 695L418 1103Q365 1180 318 1233T230 1316Q156 1368 46 1374V1410H696V1374Q618 1373 585 1346Q552 1320 552 1291Q552 1254 601 1181L818 857L1068 1174Q1134 1260 1134
1297Q1134 1319 1121 1333Q1089 1373 980 1374V1410H1481V1374Q1371 1368 1306 1311Q1282 1293 1244 1250T1153 1140L869 784L1173 330Q1296 147 1357 96Q1418 45 1513 39V0H908V39Q1006 39 1034 77Q1050 103 1050 119Q1050 152 980 259L742 621L445 242Q382 161
382 119Q382 42 516 39V0H14Z" />
<glyph unicode="Y" glyph-name="Y" horiz-adv-x="1540" d="M463 0V39H512Q599 39 639 94Q661 128 661 246V581L275 1171Q253 1204 239 1225T217 1257Q202 1277 189 1291T162 1316Q87 1374 19 1374V1410H623V1374H592Q544 1374 506 1353Q462 1328 462 1281Q462
1241 525 1144L818 691L1097 1125Q1160 1225 1160 1271Q1160 1295 1143 1324Q1110 1374 1017 1374V1410H1509V1374H1481Q1392 1374 1308 1281Q1273 1243 1204 1134L861 599V246Q861 117 892 82Q929 39 1017 39H1062V0H463Z" />
<glyph unicode="Z" glyph-name="Z" horiz-adv-x="1301" d="M29 0V39L931 1328H482Q337 1328 279 1278Q222 1228 193 1058H154L183 1410H1226L299 86H878Q1025 86 1101 162Q1130 192 1157 246T1210 379L1243 373L1177 0H29Z" />
<glyph unicode="[" glyph-name="bracketleft" horiz-adv-x="709" d="M172 -422V1443H632V1363H327V-340H632V-422H172Z" />
<glyph unicode="\" glyph-name="backslash" horiz-adv-x="592" d="M515 -31L1 1480H93L601 -31H515Z" />
<glyph unicode="]" glyph-name="bracketright" horiz-adv-x="709" d="M80 -425V-340H382V1363H80V1443H538V-425H80Z" />
<glyph unicode="^" glyph-name="asciicircum" horiz-adv-x="2051" d="M490 20L961 1250H1088L1560 20H1433L1025 1120L618 20H490Z" />
<glyph unicode="_" glyph-name="underscore" horiz-adv-x="1025" d="M0 -240V-164H1025V-240H0Z" />
<glyph unicode="`" glyph-name="grave" horiz-adv-x="799" d="M400 1084L93 1280Q0 1337 0 1371Q0 1451 66 1451Q123 1451 190 1381L486 1084H400Z" />
<glyph unicode="a" glyph-name="a" horiz-adv-x="947" d="M303 -19Q201 -19 139 49Q76 115 76 226Q76 341 172 422Q289 522 606 632V671Q606 803 563 861Q521 918 429 918Q363 918 327 885Q288 852 285 802L287 741Q290 642 200 642Q113 642 113 742Q113 849 219
917Q322 980 462 980Q655 980 725 892Q781 824 781 656V330Q781 268 782 227T786 164Q795 113 832 113Q862 113 945 197V137Q828 -19 718 -19Q606 -19 606 137Q473 33 430 10Q374 -19 303 -19ZM398 100Q475 98 606 204V571Q384 482 309 410Q252 353 252 275Q252
199 295 152Q335 103 398 100Z" />
<glyph unicode="b" glyph-name="b" horiz-adv-x="1065" d="M500 -31Q335 -31 154 93V1078Q154 1234 147 1277Q143 1313 122 1330Q92 1355 6 1328L-9 1366L279 1480H327V789Q466 980 628 980Q782 980 884 857Q992 727 992 515Q992 281 847 126Q700 -31 500 -31ZM553
47Q653 47 729 150Q812 263 812 455Q812 630 734 732Q657 834 543 834Q444 834 327 724V152Q434 47 553 47Z" />
<glyph unicode="c" glyph-name="c" horiz-adv-x="947" d="M478 -31Q305 -31 189 109Q71 248 71 476Q71 696 207 841Q338 980 526 980Q636 980 736 922Q851 855 851 752Q851 664 752 664Q648 664 638 788Q628 912 492 912Q379 912 309 815Q242 715 242 566Q242
388 322 266Q407 136 552 136Q745 136 847 378L875 363Q850 191 734 80Q620 -31 478 -31Z" />
<glyph unicode="d" glyph-name="d" horiz-adv-x="1065" d="M462 -31Q302 -31 186 103Q70 239 70 436Q70 642 190 802Q325 981 533 982Q658 982 741 902V1078Q741 1231 734 1276Q730 1308 708 1330Q680 1356 595 1328L581 1366L867 1480H914V378Q914 299 916 250T919
179Q923 139 947 122Q980 94 1062 124L1074 89L786 -31H741V107Q606 -31 462 -31ZM556 86Q651 86 741 180V672Q741 762 682 834Q619 913 521 918Q412 922 339 814Q262 701 262 521Q262 307 359 189Q441 87 556 86Z" />
<glyph unicode="e" glyph-name="e" horiz-adv-x="947" d="M493 -31Q320 -31 199 107Q77 247 77 465Q77 703 200 844Q326 982 521 982Q680 982 784 878Q885 772 885 595H226Q226 388 330 262Q429 144 573 142Q765 139 852 369L885 349Q864 199 761 89Q649 -31 493
-31ZM226 654H668Q668 791 591 859Q533 908 462 908Q373 908 306 841Q236 771 226 654Z" />
<glyph unicode="f" glyph-name="f" horiz-adv-x="709" d="M84 0V39H127Q184 39 225 74Q265 108 265 252V878H77V954H265V1017Q265 1292 440 1410Q543 1480 664 1480Q756 1480 842 1426Q927 1371 927 1301Q927 1275 901 1244Q874 1215 842 1215Q795 1215 726 1308Q660
1403 582 1403Q488 1403 462 1311Q452 1277 446 1204T439 1021V954H685V878H439V252Q439 114 469 84Q504 39 572 39H658V0H84Z" />
<glyph unicode="g" glyph-name="g" horiz-adv-x="1065" d="M482 -462Q327 -462 193 -399Q63 -337 63 -263Q63 -183 255 9Q156 71 156 123Q156 207 322 349Q236 388 189 468Q142 546 142 638Q142 778 245 878Q348 980 521 980Q609 980 706 944Q756 925 796 917T867
908Q885 908 907 909T957 912Q974 914 988 913T1012 911Q1027 907 1027 869Q1027 837 1015 828Q1006 819 960 819H837Q894 744 894 629Q895 496 795 403Q688 307 519 307Q481 307 445 312T373 327Q295 270 295 212Q295 190 313 172Q334 156 393 150Q423 147 495
144T682 137Q1015 130 1015 -89Q1015 -236 864 -346Q701 -462 482 -462ZM573 -335Q746 -335 849 -269Q940 -208 940 -127Q940 -58 837 -37Q795 -27 672 -23Q604 -20 514 -15T312 0Q213 -111 213 -183Q213 -248 313 -292Q416 -335 573 -335ZM531 359Q709 359 709
602Q709 752 654 841Q600 931 502 931Q425 931 375 871Q322 806 322 682Q322 536 378 448Q434 359 531 359Z" />
<glyph unicode="h" glyph-name="h" horiz-adv-x="1065" d="M29 0V39Q120 39 150 76Q174 106 174 194V1201Q174 1344 104 1344Q86 1344 67 1341T29 1328L13 1366L299 1480H349V784Q480 980 664 980Q826 980 879 837Q896 793 904 722T912 552V194Q912 106 935 76Q963
39 1055 39V0H585V39Q675 39 708 69Q738 99 738 194V552Q738 702 724 751Q694 855 585 855Q468 855 349 718V194Q349 100 370 71Q400 39 500 39V0H29Z" />
<glyph unicode="i" glyph-name="i" horiz-adv-x="592" d="M80 0V39Q170 39 197 69Q226 100 226 194V705Q226 845 154 845Q129 845 80 828L66 865L355 980H400V194Q400 98 428 69Q455 39 545 39V0H80ZM313 1171Q270 1171 237 1201Q207 1231 207 1277Q207 1325 239
1351Q271 1381 313 1381Q358 1381 388 1351Q418 1320 418 1277Q418 1230 389 1201Q359 1171 313 1171Z" />
<glyph unicode="j" glyph-name="j" horiz-adv-x="592" d="M23 -462Q-65 -462 -119 -425Q-161 -394 -164 -356Q-164 -317 -139 -292Q-113 -266 -77 -266Q-23 -266 46 -332Q92 -378 129 -378Q195 -378 216 -287Q226 -241 226 -99V581Q226 804 194 831Q161 858 77
828L66 865L355 980H400V20Q400 -219 293 -345Q194 -462 23 -462ZM309 1171Q266 1171 233 1201Q203 1231 203 1277Q203 1322 235 1351Q267 1384 309 1384Q352 1384 383 1351Q416 1321 416 1277Q416 1235 386 1203Q355 1171 309 1171Z" />
<glyph unicode="k" glyph-name="k" horiz-adv-x="1065" d="M14 0V39Q117 39 144 69Q172 98 172 209V1077Q172 1233 167 1276Q161 1316 144 1330Q129 1344 103 1344Q89 1344 72 1341T34 1328L14 1366L302 1480H350V549L591 752Q689 836 689 867Q689 915 615 921V954H1030V921Q942
917 885 892Q834 871 762 808L512 585L762 273Q819 203 856 159T911 99Q929 81 988 47Q1001 39 1078 39V0H615V39Q669 39 679 63Q690 98 642 157L350 526V216Q350 100 373 74Q401 39 502 39V0H14Z" />
<glyph unicode="l" glyph-name="l" horiz-adv-x="592" d="M80 0V39Q164 39 192 74Q219 109 219 216V1081Q219 1232 213 1280Q208 1315 190 1330Q150 1355 80 1328L61 1366L349 1480H393V216Q393 112 422 74Q449 39 548 39V0H80Z" />
<glyph unicode="m" glyph-name="m" horiz-adv-x="1659" d="M31 0V39Q121 39 147 70Q174 101 174 216V581Q174 739 169 776Q156 845 103 845Q77 845 31 828L14 865L303 980H349V779Q458 901 535 942Q599 980 679 980Q876 980 921 779Q1022 896 1101 941Q1170 980
1254 980Q1507 980 1507 628V216Q1507 106 1536 73Q1563 39 1650 39V0H1178V39Q1285 39 1311 77Q1333 109 1333 216V628Q1333 857 1174 857Q1059 857 928 728V216Q928 109 951 76Q979 39 1083 39V0H599V39Q710 39 738 82Q755 110 755 216V628Q755 859 592 859Q471
859 349 728V216Q349 97 378 69Q405 39 502 39V0H31Z" />
<glyph unicode="n" glyph-name="n" horiz-adv-x="1065" d="M27 0V39Q117 39 143 71Q170 102 170 216V571Q170 803 139 831Q103 859 27 828L10 865L302 980H345V781Q511 980 664 980Q914 980 914 623V216Q914 114 935 82Q963 39 1062 39V0H585V39Q689 39 715 70Q741
104 741 216V605Q741 734 706 795Q674 852 591 852Q466 852 345 718V216Q345 109 365 80Q395 39 500 39V0H27Z" />
<glyph unicode="o" glyph-name="o" horiz-adv-x="1065" d="M523 -31Q330 -31 200 117Q71 266 71 468Q71 670 194 819Q327 980 533 980Q732 980 864 841Q992 703 992 493Q992 289 875 139Q741 -31 523 -31ZM566 46Q798 46 798 415Q798 633 716 772Q635 914 500
914Q403 914 342 838Q265 743 265 553Q265 341 346 197Q431 46 566 46Z" />
<glyph unicode="p" glyph-name="p" horiz-adv-x="1065" d="M-13 -458V-418Q102 -415 129 -382Q154 -353 154 -230V672Q154 761 150 781Q145 809 119 828Q80 854 6 824L-6 859L292 978H330V755Q462 980 638 980Q793 980 894 847Q994 714 994 512Q994 284 874 129Q749
-31 558 -31Q429 -31 330 56V-233Q330 -348 355 -379Q383 -415 492 -418V-458H-13ZM553 33Q677 33 752 136Q828 242 828 415Q828 633 746 748Q675 852 553 852Q497 852 443 808Q410 781 330 694V336Q330 224 340 184Q354 125 410 77Q467 33 553 33Z" />
<glyph unicode="q" glyph-name="q" horiz-adv-x="1065" d="M585 -458V-418Q682 -418 711 -389Q741 -359 741 -246V166Q577 -31 426 -31Q286 -31 183 93Q70 222 70 435Q70 674 210 827Q351 980 562 980Q694 980 758 914Q779 925 809 941T878 980H914V-246Q914 -353
942 -386Q971 -418 1070 -418V-458H585ZM535 117Q641 117 741 230V679Q741 908 529 908Q405 908 330 809Q246 701 246 511Q246 322 332 216Q412 117 535 117Z" />
<glyph unicode="r" glyph-name="r" horiz-adv-x="729" d="M19 0V39Q114 39 142 69Q170 100 170 216V585Q170 793 139 831Q87 858 19 828L9 865L303 980H345V766Q462 980 591 980Q650 980 686 947Q725 914 725 865Q725 828 698 798Q669 769 632 769Q594 769 549
805Q506 842 483 842Q431 842 345 681V222Q345 125 378 86Q415 39 512 39V0H19Z" />
<glyph unicode="s" glyph-name="s" horiz-adv-x="831" d="M436 -31Q377 -31 293 -1Q200 30 180 33Q164 33 143 -14H109V326H143Q172 186 255 107Q330 33 436 33Q511 33 555 74Q598 117 601 174Q602 246 556 299Q510 349 360 428Q210 504 157 571Q104 636 104 725Q104
837 186 908Q268 980 415 980Q465 980 538 961Q574 953 595 948T621 942Q650 942 668 980H704V656H668Q605 921 410 921Q231 921 226 795Q222 671 382 596L535 525Q755 421 755 240Q755 132 659 50Q563 -31 436 -31Z" />
<glyph unicode="t" glyph-name="t" horiz-adv-x="592" d="M356 -31Q169 -31 169 222V881H16V914Q99 946 193 1055Q247 1121 312 1267H342V954H566V881H342V246Q342 90 436 89Q514 85 553 174H595Q561 74 490 19Q426 -31 356 -31Z" />
<glyph unicode="u" glyph-name="u" horiz-adv-x="1065" d="M408 -31Q162 -31 162 340V766Q162 857 129 885Q96 914 0 914V954H336V316Q336 99 493 99Q598 99 732 233V775Q732 857 695 888Q666 911 578 914V954H907V252Q907 109 970 109Q1015 109 1054 124L1068
89L779 -31H732V172Q674 112 629 71T548 10Q478 -31 408 -31Z" />
<glyph unicode="v" glyph-name="v" horiz-adv-x="1065" d="M525 -31L183 776Q146 862 89 898Q72 906 16 914V954H468V914H436Q355 914 355 838Q355 803 375 755L596 230L819 776Q855 861 837 889Q820 914 736 914V954H1048V914Q993 911 970 894Q934 858 907 789L568
-31H525Z" />
<glyph unicode="w" glyph-name="w" horiz-adv-x="1540" d="M472 -31L164 771Q149 809 135 835T107 874Q77 904 13 914V954H415V914Q357 911 342 895Q325 881 325 849Q325 833 328 814T340 771L545 223L751 671L696 812Q675 870 632 898Q611 911 545 914V954H1001V914Q919
909 895 891Q871 872 871 831Q871 811 881 794L1098 246L1297 771Q1320 829 1320 861Q1320 914 1220 914V954H1522V914Q1429 904 1386 794L1068 -31H1025L786 581L511 -31H472Z" />
<glyph unicode="x" glyph-name="x" horiz-adv-x="1065" d="M37 0V39Q76 40 116 76Q136 93 164 128T233 217L435 483L255 746Q180 854 136 885Q101 909 29 914V954H478V914Q398 919 398 864Q398 847 403 838L539 625L681 831Q694 850 694 865Q694 914 618 914V954H940V914Q876
911 831 875Q788 841 709 734L581 558L818 217Q849 174 880 136T942 66Q966 42 1041 39V0H591V39Q685 39 685 99Q685 115 675 132L478 422L270 146Q255 125 255 100Q255 42 349 39V0H37Z" />
<glyph unicode="y" glyph-name="y" horiz-adv-x="1065" d="M203 -462Q144 -462 102 -426Q61 -392 61 -342Q61 -247 169 -247Q182 -247 203 -252T252 -266Q308 -285 313 -285Q393 -285 458 -127L525 39L183 756Q150 824 127 851Q76 910 13 914V954H458V914H435Q340
914 340 845Q340 804 375 732L606 252L819 779Q860 851 832 892Q816 914 744 914V954H1054V914Q1006 910 980 888Q949 857 912 771L525 -180Q470 -312 383 -386Q295 -462 203 -462Z" />
<glyph unicode="z" glyph-name="z" horiz-adv-x="947" d="M43 0V39L676 881H363Q271 881 230 867Q162 838 147 689H107L113 954H912V914L273 70H621Q732 70 769 89Q810 108 822 132Q844 171 859 292H895L884 0H43Z" />
<glyph unicode="{" glyph-name="braceleft" horiz-adv-x="1018" d="M805 -459Q650 -442 535 -327Q418 -210 418 -60Q418 -2 442 106Q454 159 459 196T465 256Q465 346 383 415Q348 444 310 461T227 483V538Q311 545 383 605Q465 671 465 761Q465 784 460 823T442
919Q418 1033 418 1095Q418 1239 539 1356Q652 1463 805 1480V1443Q573 1384 573 1168Q573 1143 579 1108T596 1024Q608 977 613 941T619 879Q619 616 335 511Q619 405 619 137Q619 85 596 -6Q586 -52 580 -87T573 -147Q573 -366 805 -422V-459Z" />
<glyph unicode="|" glyph-name="bar" horiz-adv-x="426" d="M169 -462V1480H256V-462H169Z" />
<glyph unicode="}" glyph-name="braceright" horiz-adv-x="1018" d="M213 -459V-422Q445 -367 445 -147Q445 -94 422 -6Q412 41 406 76T400 137Q400 405 685 511Q400 616 400 879Q400 925 422 1024Q445 1116 445 1168Q445 1385 213 1443V1480Q366 1463 479 1356Q601
1240 601 1095Q601 1036 578 919Q566 863 560 824T553 761Q553 672 635 605Q707 545 791 538V483Q748 479 709 462T635 415Q553 344 553 256Q553 234 559 197T578 106Q601 -4 601 -60Q601 -212 483 -327Q369 -442 213 -459Z" />
<glyph unicode="~" glyph-name="asciitilde" horiz-adv-x="1160" d="M99 386L41 462Q103 576 156 629Q235 708 336 708Q413 708 599 628Q786 549 837 549Q967 549 1060 734L1120 656Q997 429 827 429Q744 429 571 505Q397 582 326 582Q249 582 189 516Q158 483 99 386Z" />
<glyph unicode="&#xa0;" glyph-name="uni00A0" horiz-adv-x="520" />
<glyph unicode="&#xa1;" glyph-name="exclamdown" horiz-adv-x="709" d="M352 -459Q314 -459 275 -424T236 -303Q236 -291 236 -273T240 -232L333 610H375L465 -232Q473 -299 473 -313Q473 -383 438 -421T352 -459ZM354 783Q314 783 277 813T240 895Q240 945 274
980T354 1015Q389 1015 430 987T471 895Q471 840 433 812T354 783Z" />
<glyph unicode="&#xa2;" glyph-name="cent" horiz-adv-x="1066" d="M175 -393L332 33Q243 95 187 208T131 475Q131 626 193 739T358 916T586 979Q609 979 630 978T672 971L819 1379H893L739 952Q781 936 817 905Q910 833 910 752Q910 716 886 690T812 664Q791
664 766 671T721 703T696 786Q696 806 690 819L459 182Q491 160 529 148T610 135Q697 135 770 182T905 377L934 361Q916 247 857 159T714 20T537 -31Q497 -31 461 -23T391 0Q375 -48 359 -93T321 -197L250 -393H175ZM403 236Q404 236 426 296T480 443L567 682Q589
741 605 787T641 890Q623 900 602 906T551 912Q433 912 367 813T301 565Q301 469 326 382T403 236Z" />
<glyph unicode="&#xa3;" glyph-name="sterling" horiz-adv-x="1066" d="M184 -24Q117 -24 90 18T63 109Q63 176 93 210T164 257T232 270Q265 270 286 268T322 262Q330 342 322 451T303 686H101V785H303Q299 864 294 914T289 992Q289 1147 349 1246T499 1393T677
1441Q757 1441 816 1410T907 1330T939 1228Q939 1197 914 1169T859 1141Q826 1141 801 1170T776 1263Q776 1310 747 1346T650 1383Q568 1383 515 1320T461 1090Q461 1056 464 1008T471 912T478 829T483 785H752V686H483Q483 662 484 597T473 441T420 244Q521 210
602 184T758 158Q841 158 885 187T950 256T977 326L1017 315Q1008 236 972 158T873 28T717 -24Q652 -24 604 -5T504 51T379 143Q366 116 340 77T276 7T184 -24ZM193 37Q234 37 264 75T310 177Q300 185 278 195T221 206Q172 206 147 181T122 117Q122 74 143 56T193
37Z" />
<glyph unicode="&#xa4;" glyph-name="currency" horiz-adv-x="1600" d="M252 626L167 711L409 952Q357 1016 332 1093T306 1253Q306 1333 332 1417T413 1562L167 1808L252 1892L498 1646Q561 1696 642 1722T805 1749Q885 1749 962 1722T1100 1643L1349 1892L1433
1808L1188 1564Q1238 1502 1266 1420T1294 1254Q1294 1172 1269 1094T1191 952L1433 711L1349 626L1107 868Q1044 813 965 786T805 758Q717 758 638 785T493 868L252 626ZM805 891Q905 891 985 941T1113 1073T1161 1254Q1161 1352 1113 1434T984 1566T805 1616Q703
1616 620 1568T488 1437T439 1253Q439 1152 488 1070T621 940T805 891Z" />
<glyph unicode="&#xa5;" glyph-name="yen" horiz-adv-x="1066" d="M262 0V42H297Q332 42 365 50T422 86Q439 105 440 152T442 253V367H19V442H442V592L428 629H19V705H393L172 1222Q153 1266 134 1296T95 1340Q77 1356 54 1363T2 1372V1410H463V1372Q426 1370
404 1365T359 1346Q325 1324 336 1298T356 1245L578 705L799 1230Q810 1256 819 1293T799 1350Q780 1363 758 1367T705 1372V1410H1066V1372Q1002 1372 973 1346Q953 1329 931 1296T886 1211L659 705H1045V629H629L621 610V442H1045V367H621V253Q621 195 624 151T647
84Q666 62 699 52T757 42H799V0H262Z" />
<glyph unicode="&#xa6;" glyph-name="brokenbar" horiz-adv-x="707" d="M301 688V1508H405V688H301ZM301 -406V413H405V-406H301Z" />
<glyph unicode="&#xa7;" glyph-name="section" horiz-adv-x="1066" d="M504 -416Q445 -416 386 -390T286 -311T246 -182Q246 -135 272 -113T326 -90Q373 -90 389 -124T406 -179Q406 -201 396 -237T386 -295Q386 -335 427 -355T512 -375Q560 -375 601 -349T668
-284T694 -204Q694 -137 660 -84T576 12T481 88Q333 196 248 298T162 524Q162 619 203 689T298 806T391 877Q370 903 340 941T286 1032T262 1148Q262 1249 312 1314T432 1410T557 1441Q625 1441 685 1414T783 1335T821 1211Q821 1168 798 1142T739 1116Q702 1116
680 1142T657 1197Q657 1212 664 1242T672 1296Q672 1339 643 1367T557 1396Q472 1396 425 1341T377 1214Q377 1125 432 1066T563 950Q614 911 673 865T784 763T870 643T903 500Q903 404 863 334T769 217T674 145Q698 119 727 83T779 -3T801 -119Q801 -208 760
-275T652 -379T504 -416ZM639 173Q692 208 739 261T798 385T752 546Q725 590 677 635T576 723T482 797T426 844Q374 814 327 762T267 638T306 479Q347 411 411 358T539 260T639 173Z" />
<glyph unicode="&#xa8;" glyph-name="dieresis" horiz-adv-x="637" d="M530 1170Q487 1170 456 1203T424 1277Q424 1317 457 1350T530 1383Q574 1383 605 1352T637 1277Q637 1234 606 1202T530 1170ZM104 1170Q63 1170 32 1203T0 1277Q0 1317 32 1350T104 1383Q148
1383 179 1352T211 1277Q211 1234 180 1202T104 1170Z" />
<glyph unicode="&#xa9;" glyph-name="copyright" horiz-adv-x="1619" d="M810 -33Q657 -33 524 22T288 177T129 411T71 705Q71 878 134 1014T303 1246T541 1392T810 1443Q966 1443 1100 1387T1335 1229T1492 994T1549 705Q1549 549 1492 415T1332 180T1097 23T810
-33ZM813 236Q683 236 574 294T398 457T332 698Q332 852 405 960T597 1124T850 1181Q917 1181 960 1169T1032 1145T1081 1133Q1111 1133 1119 1149T1133 1181H1175L1194 890H1156Q1146 920 1126 961T1070 1041T978 1107T840 1133Q682 1133 593 1023T504 730Q504
512 599 407T850 301Q1056 301 1175 469L1212 446Q1140 343 1042 290T813 236ZM810 33Q944 33 1065 82T1281 222T1429 435T1484 705Q1484 847 1432 969T1286 1184T1071 1327T810 1379Q686 1379 566 1333T349 1198T195 986T137 705Q137 560 190 437T337 224T552
83T810 33Z" />
<glyph unicode="&#xaa;" glyph-name="ordfeminine" horiz-adv-x="679" d="M217 827Q144 827 99 867T53 973Q53 1015 80 1053T190 1130T434 1217V1239Q434 1322 403 1356T305 1390Q259 1390 232 1370T202 1319L204 1283Q206 1255 188 1240T143 1224Q80 1224 80
1283Q80 1350 156 1387T330 1425Q429 1425 478 1402T543 1335T559 1232V1036Q559 996 559 971T563 937Q566 905 596 905Q608 905 622 913T677 956V920Q592 827 514 827Q482 827 458 846T434 920Q374 881 340 861T279 834T217 827ZM61 680V725H664V680H61ZM284 897Q313
896 350 913T434 962V1181Q318 1143 264 1113T195 1056T179 1001Q179 959 210 929T284 897Z" />
<glyph unicode="&#xab;" glyph-name="guillemotleft" horiz-adv-x="1066" d="M939 -8L528 483L939 971H998L743 483L998 -8H939ZM469 -8L66 483L469 971H526L272 483L526 -8H469Z" />
<glyph unicode="&#xac;" glyph-name="logicalnot" horiz-adv-x="1573" d="M1278 621V1022H154V1163H1420V621H1278Z" />
<glyph unicode="&#xad;" glyph-name="uni00AD" horiz-adv-x="709" d="M86 398V556H623V398H86Z" />
<glyph unicode="&#xae;" glyph-name="registered" horiz-adv-x="1619" d="M810 -33Q657 -33 524 22T288 177T129 411T71 705Q71 878 134 1014T303 1246T541 1392T810 1443Q966 1443 1100 1387T1335 1229T1492 994T1549 705Q1549 549 1492 415T1332 180T1097 23T810
-33ZM810 33Q944 33 1065 82T1281 222T1429 435T1484 705Q1484 847 1432 969T1286 1184T1071 1327T810 1379Q686 1379 566 1333T349 1198T195 986T137 705Q137 560 190 437T337 224T552 83T810 33ZM388 260V295Q414 295 439 298T479 322Q492 337 494 366T496 436V979Q496
1019 496 1042T494 1072Q490 1082 484 1091T466 1108Q448 1121 401 1121V1159H803Q952 1159 1032 1090T1112 926Q1112 848 1072 801T979 730T884 694L1099 385Q1120 354 1137 337T1170 308Q1189 298 1226 295V260H1032L728 680H647V358Q647 341 657 329T679 308Q698
295 770 295V260H388ZM647 725Q681 725 731 729T830 750T913 806T946 914Q946 993 890 1052T735 1112Q695 1112 647 1099V725Z" />
<glyph unicode="&#xaf;" glyph-name="overscore" horiz-adv-x="668" d="M0 1170V1285H668V1170H0Z" />
<glyph unicode="&#xb0;" glyph-name="degree" horiz-adv-x="1600" d="M799 1529Q728 1529 670 1563T577 1656T542 1786Q542 1858 576 1916T669 2010T799 2045Q871 2045 929 2010T1022 1917T1057 1786Q1057 1715 1023 1657T930 1564T799 1529ZM799 1623Q868 1623
916 1670T964 1786Q964 1855 916 1903T799 1951Q731 1951 684 1903T636 1786Q636 1718 683 1671T799 1623Z" />
<glyph unicode="&#xb1;" glyph-name="plusminus" horiz-adv-x="2049" d="M962 365V733H410V861H962V1230H1087V861H1639V733H1087V365H962ZM410 0V126H1639V0H410Z" />
<glyph unicode="&#xb2;" glyph-name="uni00B2" horiz-adv-x="737" d="M32 806V828Q157 926 248 1004T391 1145Q493 1270 493 1368Q493 1438 458 1476T376 1530T299 1546Q232 1546 188 1521T120 1463T87 1407H61Q66 1435 79 1474T123 1550T204 1613T337 1638Q407
1638 471 1612T576 1538T617 1423Q617 1359 582 1297T498 1183T408 1094Q320 1012 264 963T186 897H442Q516 897 552 902T608 921T651 961H676L607 806H32Z" />
<glyph unicode="&#xb3;" glyph-name="uni00B3" horiz-adv-x="737" d="M229 792Q148 792 113 804T70 832T61 857Q61 875 78 887T118 899Q154 899 182 886T243 858T325 844Q390 844 449 887T508 1003Q508 1068 480 1107T409 1168T324 1199T253 1209T224 1210V1228Q238
1230 273 1238T349 1268T419 1325T448 1418Q448 1471 421 1500T357 1542T286 1555Q172 1555 98 1454L75 1465Q89 1491 117 1532T198 1605T339 1638Q434 1638 482 1606T548 1533T566 1472Q566 1382 434 1289Q466 1279 508 1255T583 1188T615 1076Q615 951 512 872T229
792Z" />
<glyph unicode="&#xb4;" glyph-name="acute" horiz-adv-x="730" d="M251 1083L546 1381Q574 1409 607 1429T675 1450Q692 1450 711 1428T730 1383Q730 1352 704 1327T644 1279L336 1083H251Z" />
<glyph unicode="&#xb5;" glyph-name="mu" horiz-adv-x="1207" d="M219 -461Q184 -461 156 -429T128 -348Q128 -300 138 -263T161 -174T185 -36T195 199V950H365V397Q365 246 383 193Q395 154 429 126T512 97Q631 97 757 238V950H930V274Q930 182 939 143T965 95T999
86Q1032 86 1051 113T1085 215H1127Q1117 83 1059 26T920 -31Q859 -31 815 10T757 168Q669 67 591 18T430 -31Q407 -31 357 -18T268 59V10Q268 -55 280 -120T305 -244T317 -344Q317 -395 287 -428T219 -461Z" />
<glyph unicode="&#xb6;" glyph-name="paragraph" horiz-adv-x="1600" d="M801 -392V852Q698 855 597 873T412 939T279 1075T229 1303Q229 1432 276 1518T401 1654T575 1725T765 1747H1353V1682H1197V-392H1107V1682H887V-392H801Z" />
<glyph unicode="&#xb7;" glyph-name="middot" horiz-adv-x="1600" d="M798 745Q706 745 641 811Q575 874 575 968Q575 1063 641 1128Q708 1193 798 1193Q891 1193 958 1128Q1024 1063 1024 968Q1024 874 958 811Q893 745 798 745Z" />
<glyph unicode="&#xb8;" glyph-name="cedilla" horiz-adv-x="446" d="M173 -459Q130 -459 85 -449T0 -426L32 -358Q59 -369 97 -377T163 -385Q287 -385 287 -295Q287 -258 266 -237T209 -213Q184 -211 160 -214T114 -223L96 -211L197 26H273L207 -139Q236 -133
269 -133Q337 -133 392 -168T447 -280Q447 -337 407 -377T303 -438T173 -459Z" />
<glyph unicode="&#xb9;" glyph-name="uni00B9" horiz-adv-x="737" d="M190 806V828Q251 828 277 837T310 873T316 950V1390Q316 1443 313 1483T283 1536T183 1522L173 1542L410 1638H436V950Q436 898 441 872T471 837T558 828V806H190Z" />
<glyph unicode="&#xba;" glyph-name="ordmasculine" horiz-adv-x="781" d="M385 819Q289 819 216 860T101 970T59 1119Q59 1196 99 1266T213 1380T391 1425Q490 1425 564 1386T679 1282T721 1135Q721 1062 684 989T572 868T385 819ZM71 680V725H711V680H71ZM416
865Q490 865 536 914T582 1085Q582 1213 525 1300T369 1387Q330 1387 291 1368T226 1301T199 1170Q199 1088 226 1019T301 907T416 865Z" />
<glyph unicode="&#xbb;" glyph-name="guillemotright" horiz-adv-x="1066" d="M67 -8L322 481L67 971H126L537 481L126 -8H67ZM539 -8L793 481L539 971H596L999 481L596 -8H539Z" />
<glyph unicode="&#xbc;" glyph-name="onequarter" horiz-adv-x="1578" d="M262 -15L1232 1437H1328L365 -15H262ZM186 546V569Q240 569 263 578T291 614T297 696V1156Q297 1213 295 1255T268 1311T179 1294L172 1317L379 1418H401V696Q401 641 405 614T433 578T510
569V546H186ZM1188 -8V219H825V297L1224 865H1292V306H1406V219H1292V-8H1188ZM888 306H1188V732L888 306Z" />
<glyph unicode="&#xbd;" glyph-name="onehalf" horiz-adv-x="1578" d="M244 -15L1141 1437H1241L346 -15H244ZM156 546V569Q209 569 232 578T260 614T266 696V1156Q266 1213 264 1255T238 1311T149 1294L141 1317L348 1418H371V696Q371 641 375 614T402 578T479
569V546H156ZM870 -8V15Q1095 220 1184 346Q1228 411 1251 469T1275 582Q1275 655 1244 695T1173 752T1106 768Q1046 768 1007 742T947 683T918 625H897Q900 653 912 693T950 773T1022 838T1139 865Q1200 865 1256 838T1347 761T1383 639Q1383 573 1353 508T1280
388T1201 293Q1047 125 1006 88H1230Q1295 88 1326 93T1375 113T1412 156H1437L1374 -8H870Z" />
<glyph unicode="&#xbe;" glyph-name="threequarters" horiz-adv-x="1578" d="M308 -15L1279 1437H1374L412 -15H308ZM293 528Q222 528 191 542T153 573T145 599Q145 618 161 629T197 641Q227 641 251 627T305 598T379 584Q435 584 487 629T539 750Q539 835 501
880T414 944T327 965T289 968V988Q301 990 332 999T398 1029T458 1089T483 1186Q483 1241 460 1272T404 1317T344 1330Q246 1330 179 1226L158 1236Q171 1263 195 1306T264 1383T388 1418Q472 1418 515 1384T573 1308T588 1243Q588 1154 473 1051Q500 1041 537
1016T602 945T631 827Q631 696 541 612T293 528ZM1214 -8V219H852V297L1250 865H1319V306H1433V219H1319V-8H1214ZM914 306H1214V732L914 306Z" />
<glyph unicode="&#xbf;" glyph-name="questiondown" horiz-adv-x="946" d="M469 -459Q357 -459 269 -420T131 -307T80 -131Q80 -52 107 12T172 127T242 213Q315 296 363 358T437 487T466 652H512Q506 527 473 419T371 195Q339 140 306 54T272 -115Q272 -219 310
-282T404 -373T514 -401Q614 -401 662 -356T711 -264Q711 -235 695 -203T662 -140T645 -86Q645 -42 673 -19T730 4Q744 4 771 -8T821 -56T844 -160Q844 -237 801 -305T674 -416T469 -459ZM481 778Q438 778 403 810T367 895Q367 952 404 982T481 1012Q526 1012 563
982T600 895Q600 844 564 811T481 778Z" />
<glyph unicode="&#xc0;" glyph-name="Agrave" horiz-adv-x="1530" d="M16 0V39Q102 45 154 104Q176 129 199 173T250 280L746 1443H784L1273 270Q1303 198 1330 152T1381 84Q1427 45 1514 39V0H960V39Q1101 41 1101 129Q1101 173 1060 270L975 473H429L332 247Q297
165 297 132Q297 54 462 39V0H16ZM462 549H947L708 1121L462 549ZM862 1535L555 1731Q529 1748 496 1771T462 1822Q462 1902 529 1902Q555 1902 589 1882T653 1833L948 1535H862Z" />
<glyph unicode="&#xc1;" glyph-name="Aacute" horiz-adv-x="1530" d="M16 0V39Q102 45 154 104Q176 129 199 173T250 280L746 1443H784L1273 270Q1303 198 1330 152T1381 84Q1427 45 1514 39V0H960V39Q1101 41 1101 129Q1101 173 1060 270L975 473H429L332 247Q297
165 297 132Q297 54 462 39V0H16ZM462 549H947L708 1121L462 549ZM583 1535L878 1833Q906 1861 939 1881T1007 1902Q1024 1902 1043 1880T1062 1835Q1062 1804 1036 1779T976 1731L668 1535H583Z" />
<glyph unicode="&#xc2;" glyph-name="Acircumflex" horiz-adv-x="1530" d="M16 0V39Q102 45 154 104Q176 129 199 173T250 280L746 1443H784L1273 270Q1303 198 1330 152T1381 84Q1427 45 1514 39V0H960V39Q1101 41 1101 129Q1101 173 1060 270L975 473H429L332
247Q297 165 297 132Q297 54 462 39V0H16ZM462 549H947L708 1121L462 549ZM430 1535L698 1893H832L1099 1535H1025L764 1758L504 1535H430Z" />
<glyph unicode="&#xc3;" glyph-name="Atilde" horiz-adv-x="1530" d="M409 1622Q432 1714 487 1776T645 1839Q699 1839 739 1816T820 1768T915 1744Q966 1744 1007 1771T1062 1849H1118Q1112 1793 1081 1741T1001 1655T892 1622Q834 1622 797 1637T732 1671T670
1705T584 1720Q543 1720 506 1689T464 1622H409ZM16 0V39Q102 45 154 104Q176 129 199 173T250 280L746 1443H784L1273 270Q1303 198 1330 152T1381 84Q1427 45 1514 39V0H960V39Q1101 41 1101 129Q1101 173 1060 270L975 473H429L332 247Q297 165 297 132Q297
54 462 39V0H16ZM462 549H947L708 1121L462 549Z" />
<glyph unicode="&#xc4;" glyph-name="Adieresis" horiz-adv-x="1530" d="M16 0V39Q102 45 154 104Q176 129 199 173T250 280L746 1443H784L1273 270Q1303 198 1330 152T1381 84Q1427 45 1514 39V0H960V39Q1101 41 1101 129Q1101 173 1060 270L975 473H429L332
247Q297 165 297 132Q297 54 462 39V0H16ZM462 549H947L708 1121L462 549ZM976 1622Q933 1622 902 1655T870 1729Q870 1769 903 1802T976 1835Q1020 1835 1051 1804T1083 1729Q1083 1686 1052 1654T976 1622ZM550 1622Q509 1622 478 1655T446 1729Q446 1769 478
1802T550 1835Q594 1835 625 1804T657 1729Q657 1686 626 1654T550 1622Z" />
<glyph unicode="&#xc5;" glyph-name="Aring" horiz-adv-x="1530" d="M765 1535Q691 1535 628 1590T565 1735Q565 1824 625 1879T765 1934Q839 1934 900 1881T962 1735Q962 1645 901 1590T765 1535ZM765 1608Q818 1608 854 1645T891 1735Q891 1792 852 1827T765
1862Q713 1862 675 1827T636 1735Q636 1675 676 1642T765 1608ZM16 0V39Q102 45 154 104Q176 129 199 173T250 280L746 1443H784L1273 270Q1303 198 1330 152T1381 84Q1427 45 1514 39V0H960V39Q1101 41 1101 129Q1101 173 1060 270L975 473H429L332 247Q297 165
297 132Q297 54 462 39V0H16ZM462 549H947L708 1121L462 549Z" />
<glyph unicode="&#xc6;" glyph-name="AE" horiz-adv-x="1895" d="M-24 0V39Q25 39 53 57Q83 76 122 125T221 284L652 1085Q732 1234 732 1287Q732 1322 697 1344T551 1372V1410H1707L1723 1103H1690Q1669 1199 1646 1248T1571 1316T1414 1334H1068V776H1336Q1458
776 1505 821T1562 979H1598V492H1562Q1552 575 1533 619T1470 681T1336 698H1068V230Q1068 189 1068 160T1076 119Q1084 104 1105 90T1188 75H1376Q1495 75 1570 104T1697 195T1797 356H1834L1723 0H664V39H715Q802 39 844 90Q868 120 868 250V546H457L328 303Q270
196 256 146T284 69Q320 46 418 39V0H-24ZM496 624H868V1334L496 624Z" />
<glyph unicode="&#xc7;" glyph-name="Ccedilla" horiz-adv-x="1422" d="M762 -33Q450 -33 256 183Q76 383 76 685Q76 998 273 1218Q476 1443 795 1443Q924 1443 1041 1394Q1101 1369 1130 1357T1160 1344Q1222 1344 1247 1443H1283L1316 964H1283Q1163 1370 812
1370Q586 1370 455 1201Q385 1111 349 982T313 682Q313 386 459 219Q599 60 842 60Q988 60 1087 117Q1195 181 1316 353L1347 330Q1141 -33 762 -33ZM661 -459Q618 -459 573 -449T488 -426L520 -358Q547 -369 585 -377T651 -385Q775 -385 775 -295Q775 -258 754
-237T697 -213Q672 -211 648 -214T602 -223L584 -211L685 26H761L695 -139Q724 -133 757 -133Q825 -133 880 -168T935 -280Q935 -337 895 -377T791 -438T661 -459Z" />
<glyph unicode="&#xc8;" glyph-name="Egrave" horiz-adv-x="1301" d="M46 0V39H94Q166 39 206 73Q246 107 246 250V1167Q246 1302 219 1330Q178 1374 94 1374H46V1410H1131L1148 1103H1107Q1072 1242 1054 1266Q1000 1334 834 1334H445V776H755Q888 776 931 824Q962
859 978 980H1017V490H978Q962 614 931 649Q887 699 755 699H445V233Q445 142 455 122Q476 76 563 76H802Q968 76 1044 129Q1110 176 1211 355H1254L1131 0H46ZM747 1535L440 1731Q414 1748 381 1771T347 1822Q347 1902 414 1902Q440 1902 474 1882T538 1833L833
1535H747Z" />
<glyph unicode="&#xc9;" glyph-name="Eacute" horiz-adv-x="1301" d="M46 0V39H94Q166 39 206 73Q246 107 246 250V1167Q246 1302 219 1330Q178 1374 94 1374H46V1410H1131L1148 1103H1107Q1072 1242 1054 1266Q1000 1334 834 1334H445V776H755Q888 776 931 824Q962
859 978 980H1017V490H978Q962 614 931 649Q887 699 755 699H445V233Q445 142 455 122Q476 76 563 76H802Q968 76 1044 129Q1110 176 1211 355H1254L1131 0H46ZM468 1535L763 1833Q791 1861 824 1881T892 1902Q909 1902 928 1880T947 1835Q947 1804 921 1779T861
1731L553 1535H468Z" />
<glyph unicode="&#xca;" glyph-name="Ecircumflex" horiz-adv-x="1301" d="M46 0V39H94Q166 39 206 73Q246 107 246 250V1167Q246 1302 219 1330Q178 1374 94 1374H46V1410H1131L1148 1103H1107Q1072 1242 1054 1266Q1000 1334 834 1334H445V776H755Q888 776 931
824Q962 859 978 980H1017V490H978Q962 614 931 649Q887 699 755 699H445V233Q445 142 455 122Q476 76 563 76H802Q968 76 1044 129Q1110 176 1211 355H1254L1131 0H46ZM315 1535L583 1893H717L984 1535H910L649 1758L389 1535H315Z" />
<glyph unicode="&#xcb;" glyph-name="Edieresis" horiz-adv-x="1301" d="M46 0V39H94Q166 39 206 73Q246 107 246 250V1167Q246 1302 219 1330Q178 1374 94 1374H46V1410H1131L1148 1103H1107Q1072 1242 1054 1266Q1000 1334 834 1334H445V776H755Q888 776 931
824Q962 859 978 980H1017V490H978Q962 614 931 649Q887 699 755 699H445V233Q445 142 455 122Q476 76 563 76H802Q968 76 1044 129Q1110 176 1211 355H1254L1131 0H46ZM861 1622Q818 1622 787 1655T755 1729Q755 1769 788 1802T861 1835Q905 1835 936 1804T968
1729Q968 1686 937 1654T861 1622ZM435 1622Q394 1622 363 1655T331 1729Q331 1769 363 1802T435 1835Q479 1835 510 1804T542 1729Q542 1686 511 1654T435 1622Z" />
<glyph unicode="&#xcc;" glyph-name="Igrave" horiz-adv-x="709" d="M53 0V39H104Q188 39 230 90Q255 121 255 250V1163Q255 1292 232 1320Q189 1374 104 1374H53V1410H658V1374H606Q521 1374 482 1323Q455 1287 455 1163V250Q455 125 479 89Q493 71 531 56Q566
39 606 39H658V0H53ZM453 1535L146 1731Q120 1748 87 1771T53 1822Q53 1902 120 1902Q146 1902 180 1882T244 1833L539 1535H453Z" />
<glyph unicode="&#xcd;" glyph-name="Iacute" horiz-adv-x="709" d="M53 0V39H104Q188 39 230 90Q255 121 255 250V1163Q255 1292 232 1320Q189 1374 104 1374H53V1410H658V1374H606Q521 1374 482 1323Q455 1287 455 1163V250Q455 125 479 89Q493 71 531 56Q566
39 606 39H658V0H53ZM174 1535L469 1833Q497 1861 530 1881T598 1902Q615 1902 634 1880T653 1835Q653 1804 627 1779T567 1731L259 1535H174Z" />
<glyph unicode="&#xce;" glyph-name="Icircumflex" horiz-adv-x="709" d="M53 0V39H104Q188 39 230 90Q255 121 255 250V1163Q255 1292 232 1320Q189 1374 104 1374H53V1410H658V1374H606Q521 1374 482 1323Q455 1287 455 1163V250Q455 125 479 89Q493 71 531
56Q566 39 606 39H658V0H53ZM21 1535L289 1893H423L690 1535H616L355 1758L95 1535H21Z" />
<glyph unicode="&#xcf;" glyph-name="Idieresis" horiz-adv-x="709" d="M53 0V39H104Q188 39 230 90Q255 121 255 250V1163Q255 1292 232 1320Q189 1374 104 1374H53V1410H658V1374H606Q521 1374 482 1323Q455 1287 455 1163V250Q455 125 479 89Q493 71 531 56Q566
39 606 39H658V0H53ZM567 1622Q524 1622 493 1655T461 1729Q461 1769 494 1802T567 1835Q611 1835 642 1804T674 1729Q674 1686 643 1654T567 1622ZM141 1622Q100 1622 69 1655T37 1729Q37 1769 69 1802T141 1835Q185 1835 216 1804T248 1729Q248 1686 217 1654T141
1622Z" />
<glyph unicode="&#xd0;" glyph-name="Eth" horiz-adv-x="1539" d="M36 705V823H849V705H36ZM37 0V39H90Q179 39 216 96Q237 135 237 250V1163Q237 1296 212 1328Q166 1374 90 1374H37V1410H611Q1055 1410 1240 1244Q1457 1055 1457 714Q1457 398 1267 209Q1056
0 668 0H37ZM661 71Q904 69 1062 242Q1221 413 1221 704Q1221 994 1062 1163Q904 1333 652 1333Q602 1333 549 1326T439 1301V103Q587 71 661 71Z" />
<glyph unicode="&#xd1;" glyph-name="Ntilde" horiz-adv-x="1539" d="M405 1622Q428 1714 483 1776T641 1839Q695 1839 735 1816T816 1768T911 1744Q962 1744 1003 1771T1058 1849H1114Q1108 1793 1077 1741T997 1655T888 1622Q830 1622 793 1637T728 1671T666
1705T580 1720Q539 1720 502 1689T460 1622H405ZM1273 -23L340 1113V246Q340 116 369 82Q405 39 492 39H541V0H49V39H99Q192 39 226 94Q250 124 250 246V1226Q234 1247 218 1268T184 1311Q117 1374 13 1374V1410H356L1218 353V1167Q1218 1298 1188 1328Q1147 1374
1065 1374H1018V1410H1509V1374H1460Q1368 1374 1333 1320Q1310 1287 1310 1167V-23H1273Z" />
<glyph unicode="&#xd2;" glyph-name="Ograve" horiz-adv-x="1539" d="M762 -33Q471 -33 275 172Q74 382 74 709Q74 1025 277 1234Q479 1443 781 1443Q1062 1443 1258 1236Q1456 1028 1456 714Q1456 396 1257 180Q1056 -33 762 -33ZM761 41Q971 39 1091 197Q1217
365 1220 686Q1224 1365 758 1370Q549 1371 430 1197Q313 1019 313 715Q313 411 429 230Q548 44 761 41ZM862 1535L555 1731Q529 1748 496 1771T462 1822Q462 1902 529 1902Q555 1902 589 1882T653 1833L948 1535H862Z" />
<glyph unicode="&#xd3;" glyph-name="Oacute" horiz-adv-x="1539" d="M762 -33Q471 -33 275 172Q74 382 74 709Q74 1025 277 1234Q479 1443 781 1443Q1062 1443 1258 1236Q1456 1028 1456 714Q1456 396 1257 180Q1056 -33 762 -33ZM761 41Q971 39 1091 197Q1217
365 1220 686Q1224 1365 758 1370Q549 1371 430 1197Q313 1019 313 715Q313 411 429 230Q548 44 761 41ZM583 1535L878 1833Q906 1861 939 1881T1007 1902Q1024 1902 1043 1880T1062 1835Q1062 1804 1036 1779T976 1731L668 1535H583Z" />
<glyph unicode="&#xd4;" glyph-name="Ocircumflex" horiz-adv-x="1539" d="M762 -33Q471 -33 275 172Q74 382 74 709Q74 1025 277 1234Q479 1443 781 1443Q1062 1443 1258 1236Q1456 1028 1456 714Q1456 396 1257 180Q1056 -33 762 -33ZM761 41Q971 39 1091 197Q1217
365 1220 686Q1224 1365 758 1370Q549 1371 430 1197Q313 1019 313 715Q313 411 429 230Q548 44 761 41ZM430 1535L698 1893H832L1099 1535H1025L764 1758L504 1535H430Z" />
<glyph unicode="&#xd5;" glyph-name="Otilde" horiz-adv-x="1539" d="M409 1622Q432 1714 487 1776T645 1839Q699 1839 739 1816T820 1768T915 1744Q966 1744 1007 1771T1062 1849H1118Q1112 1793 1081 1741T1001 1655T892 1622Q834 1622 797 1637T732 1671T670
1705T584 1720Q543 1720 506 1689T464 1622H409ZM762 -33Q471 -33 275 172Q74 382 74 709Q74 1025 277 1234Q479 1443 781 1443Q1062 1443 1258 1236Q1456 1028 1456 714Q1456 396 1257 180Q1056 -33 762 -33ZM761 41Q971 39 1091 197Q1217 365 1220 686Q1224 1365
758 1370Q549 1371 430 1197Q313 1019 313 715Q313 411 429 230Q548 44 761 41Z" />
<glyph unicode="&#xd6;" glyph-name="Odieresis" horiz-adv-x="1539" d="M762 -33Q471 -33 275 172Q74 382 74 709Q74 1025 277 1234Q479 1443 781 1443Q1062 1443 1258 1236Q1456 1028 1456 714Q1456 396 1257 180Q1056 -33 762 -33ZM761 41Q971 39 1091 197Q1217
365 1220 686Q1224 1365 758 1370Q549 1371 430 1197Q313 1019 313 715Q313 411 429 230Q548 44 761 41ZM976 1622Q933 1622 902 1655T870 1729Q870 1769 903 1802T976 1835Q1020 1835 1051 1804T1083 1729Q1083 1686 1052 1654T976 1622ZM550 1622Q509 1622 478
1655T446 1729Q446 1769 478 1802T550 1835Q594 1835 625 1804T657 1729Q657 1686 626 1654T550 1622Z" />
<glyph unicode="&#xd7;" glyph-name="multiply" horiz-adv-x="2049" d="M551 61L471 141L943 614L471 1087L551 1167L1024 692L1498 1167L1578 1087L1106 614L1578 141L1498 61L1024 537L551 61Z" />
<glyph unicode="&#xd8;" glyph-name="Oslash" horiz-adv-x="1539" d="M209 -48L146 0L280 164Q183 263 128 401T73 709Q73 867 126 1001T276 1234T501 1388T781 1443Q899 1443 1004 1404T1197 1291L1330 1454L1392 1410L1253 1238Q1345 1141 1399 1007T1454 713Q1454
553 1402 417T1256 180T1036 23T762 -33Q645 -33 537 3T339 111L209 -48ZM760 40Q895 40 998 109T1160 321T1219 686Q1219 808 1205 908T1149 1110L429 223Q487 136 570 88T760 40ZM390 298L1109 1184Q1050 1275 963 1322T758 1369Q546 1369 430 1194T313 715Q313
600 330 499T390 298Z" />
<glyph unicode="&#xd9;" glyph-name="Ugrave" horiz-adv-x="1539" d="M769 -33Q395 -33 275 204Q216 323 216 609V1163Q216 1274 193 1314Q162 1374 63 1374H31V1410H601V1374H548Q477 1374 443 1318Q416 1278 416 1163V545Q416 339 465 232Q549 56 784 56Q988
56 1121 183Q1220 276 1220 591V1163Q1220 1296 1191 1328Q1151 1374 1070 1374H1017V1410H1517V1374H1464Q1388 1374 1337 1301Q1327 1286 1321 1250T1314 1154V581Q1314 249 1191 123Q1151 83 1109 52T1021 4Q922 -33 769 -33ZM872 1535L565 1731Q539 1748 506
1771T472 1822Q472 1902 539 1902Q565 1902 599 1882T663 1833L958 1535H872Z" />
<glyph unicode="&#xda;" glyph-name="Uacute" horiz-adv-x="1539" d="M769 -33Q395 -33 275 204Q216 323 216 609V1163Q216 1274 193 1314Q162 1374 63 1374H31V1410H601V1374H548Q477 1374 443 1318Q416 1278 416 1163V545Q416 339 465 232Q549 56 784 56Q988
56 1121 183Q1220 276 1220 591V1163Q1220 1296 1191 1328Q1151 1374 1070 1374H1017V1410H1517V1374H1464Q1388 1374 1337 1301Q1327 1286 1321 1250T1314 1154V581Q1314 249 1191 123Q1151 83 1109 52T1021 4Q922 -33 769 -33ZM593 1535L888 1833Q916 1861 949
1881T1017 1902Q1034 1902 1053 1880T1072 1835Q1072 1804 1046 1779T986 1731L678 1535H593Z" />
<glyph unicode="&#xdb;" glyph-name="Ucircumflex" horiz-adv-x="1539" d="M769 -33Q395 -33 275 204Q216 323 216 609V1163Q216 1274 193 1314Q162 1374 63 1374H31V1410H601V1374H548Q477 1374 443 1318Q416 1278 416 1163V545Q416 339 465 232Q549 56 784 56Q988
56 1121 183Q1220 276 1220 591V1163Q1220 1296 1191 1328Q1151 1374 1070 1374H1017V1410H1517V1374H1464Q1388 1374 1337 1301Q1327 1286 1321 1250T1314 1154V581Q1314 249 1191 123Q1151 83 1109 52T1021 4Q922 -33 769 -33ZM440 1535L708 1893H842L1109 1535H1035L774
1758L514 1535H440Z" />
<glyph unicode="&#xdc;" glyph-name="Udieresis" horiz-adv-x="1539" d="M769 -33Q395 -33 275 204Q216 323 216 609V1163Q216 1274 193 1314Q162 1374 63 1374H31V1410H601V1374H548Q477 1374 443 1318Q416 1278 416 1163V545Q416 339 465 232Q549 56 784 56Q988
56 1121 183Q1220 276 1220 591V1163Q1220 1296 1191 1328Q1151 1374 1070 1374H1017V1410H1517V1374H1464Q1388 1374 1337 1301Q1327 1286 1321 1250T1314 1154V581Q1314 249 1191 123Q1151 83 1109 52T1021 4Q922 -33 769 -33ZM986 1622Q943 1622 912 1655T880
1729Q880 1769 913 1802T986 1835Q1030 1835 1061 1804T1093 1729Q1093 1686 1062 1654T986 1622ZM560 1622Q519 1622 488 1655T456 1729Q456 1769 488 1802T560 1835Q604 1835 635 1804T667 1729Q667 1686 636 1654T560 1622Z" />
<glyph unicode="&#xdd;" glyph-name="Yacute" horiz-adv-x="1539" d="M463 0V39H512Q599 39 639 94Q661 128 661 246V581L275 1171Q253 1204 239 1225T217 1257Q202 1277 189 1291T162 1316Q87 1374 19 1374V1410H623V1374H592Q544 1374 506 1353Q462 1328 462
1281Q462 1241 525 1144L818 691L1097 1125Q1160 1225 1160 1271Q1160 1295 1143 1324Q1110 1374 1017 1374V1410H1509V1374H1481Q1392 1374 1308 1281Q1273 1243 1204 1134L861 599V246Q861 117 892 82Q929 39 1017 39H1062V0H463ZM581 1535L876 1833Q904 1861
937 1881T1005 1902Q1022 1902 1041 1880T1060 1835Q1060 1804 1034 1779T974 1731L666 1535H581Z" />
<glyph unicode="&#xde;" glyph-name="Thorn" horiz-adv-x="1184" d="M39 0V39H75Q175 39 215 95Q236 127 236 250V1154Q236 1213 232 1249T223 1296Q214 1328 176 1350T78 1372H39V1410H639V1372H596Q562 1372 516 1356T455 1296Q443 1263 440 1237T436 1159V1090H514Q639
1090 715 1083T841 1058T934 1010Q1006 961 1055 886T1104 707Q1104 630 1073 562T992 442Q955 406 907 378T768 333T510 317H436V253Q436 121 473 78Q508 39 596 39H639V0H39ZM436 388H483Q622 388 705 430T825 544T863 705Q863 781 833 845T745 950Q718 970 695
983T626 1003T485 1010H436V388Z" />
<glyph unicode="&#xdf;" glyph-name="germandbls" horiz-adv-x="1066" d="M647 -12Q561 -12 505 35T446 156Q445 196 467 221T530 246Q571 246 593 224T616 164Q618 150 611 127T604 93Q604 50 664 44Q734 44 776 115T819 326Q819 539 746 666T514 806V865Q618
865 677 926T737 1148Q737 1289 682 1349T537 1410Q483 1410 440 1385T373 1288T348 1078V0H37V39Q118 40 145 76T173 232V1006Q173 1260 268 1369T546 1479Q711 1479 811 1386T912 1141Q912 1088 898 1035T840 936T713 854Q848 816 923 714T998 438Q998 319 956
217T835 51T647 -12Z" />
<glyph unicode="&#xe0;" glyph-name="agrave" horiz-adv-x="946" d="M303 -19Q201 -19 139 49Q76 115 76 226Q76 341 172 422Q289 522 606 632V671Q606 803 563 861Q521 918 429 918Q363 918 327 885Q288 852 285 802L287 741Q290 642 200 642Q113 642 113 742Q113
849 219 917Q322 980 462 980Q655 980 725 892Q781 824 781 656V330Q781 268 782 227T786 164Q795 113 832 113Q862 113 945 197V137Q828 -19 718 -19Q606 -19 606 137Q473 33 430 10Q374 -19 303 -19ZM398 100Q475 98 606 204V571Q384 482 309 410Q252 353 252
275Q252 199 295 152Q335 103 398 100ZM561 1083L254 1279Q228 1296 195 1319T161 1370Q161 1450 228 1450Q254 1450 288 1430T352 1381L647 1083H561Z" />
<glyph unicode="&#xe1;" glyph-name="aacute" horiz-adv-x="946" d="M303 -19Q201 -19 139 49Q76 115 76 226Q76 341 172 422Q289 522 606 632V671Q606 803 563 861Q521 918 429 918Q363 918 327 885Q288 852 285 802L287 741Q290 642 200 642Q113 642 113 742Q113
849 219 917Q322 980 462 980Q655 980 725 892Q781 824 781 656V330Q781 268 782 227T786 164Q795 113 832 113Q862 113 945 197V137Q828 -19 718 -19Q606 -19 606 137Q473 33 430 10Q374 -19 303 -19ZM398 100Q475 98 606 204V571Q384 482 309 410Q252 353 252
275Q252 199 295 152Q335 103 398 100ZM282 1083L577 1381Q605 1409 638 1429T706 1450Q723 1450 742 1428T761 1383Q761 1352 735 1327T675 1279L367 1083H282Z" />
<glyph unicode="&#xe2;" glyph-name="acircumflex" horiz-adv-x="946" d="M303 -19Q201 -19 139 49Q76 115 76 226Q76 341 172 422Q289 522 606 632V671Q606 803 563 861Q521 918 429 918Q363 918 327 885Q288 852 285 802L287 741Q290 642 200 642Q113 642 113
742Q113 849 219 917Q322 980 462 980Q655 980 725 892Q781 824 781 656V330Q781 268 782 227T786 164Q795 113 832 113Q862 113 945 197V137Q828 -19 718 -19Q606 -19 606 137Q473 33 430 10Q374 -19 303 -19ZM398 100Q475 98 606 204V571Q384 482 309 410Q252
353 252 275Q252 199 295 152Q335 103 398 100ZM129 1083L397 1441H531L798 1083H724L463 1306L203 1083H129Z" />
<glyph unicode="&#xe3;" glyph-name="atilde" horiz-adv-x="946" d="M108 1170Q131 1262 186 1324T344 1387Q398 1387 438 1364T519 1316T614 1292Q665 1292 706 1319T761 1397H817Q811 1341 780 1289T700 1203T591 1170Q533 1170 496 1185T431 1219T369 1253T283
1268Q242 1268 205 1237T163 1170H108ZM303 -19Q201 -19 139 49Q76 115 76 226Q76 341 172 422Q289 522 606 632V671Q606 803 563 861Q521 918 429 918Q363 918 327 885Q288 852 285 802L287 741Q290 642 200 642Q113 642 113 742Q113 849 219 917Q322 980 462
980Q655 980 725 892Q781 824 781 656V330Q781 268 782 227T786 164Q795 113 832 113Q862 113 945 197V137Q828 -19 718 -19Q606 -19 606 137Q473 33 430 10Q374 -19 303 -19ZM398 100Q475 98 606 204V571Q384 482 309 410Q252 353 252 275Q252 199 295 152Q335
103 398 100Z" />
<glyph unicode="&#xe4;" glyph-name="adieresis" horiz-adv-x="946" d="M303 -19Q201 -19 139 49Q76 115 76 226Q76 341 172 422Q289 522 606 632V671Q606 803 563 861Q521 918 429 918Q363 918 327 885Q288 852 285 802L287 741Q290 642 200 642Q113 642 113
742Q113 849 219 917Q322 980 462 980Q655 980 725 892Q781 824 781 656V330Q781 268 782 227T786 164Q795 113 832 113Q862 113 945 197V137Q828 -19 718 -19Q606 -19 606 137Q473 33 430 10Q374 -19 303 -19ZM398 100Q475 98 606 204V571Q384 482 309 410Q252
353 252 275Q252 199 295 152Q335 103 398 100ZM675 1170Q632 1170 601 1203T569 1277Q569 1317 602 1350T675 1383Q719 1383 750 1352T782 1277Q782 1234 751 1202T675 1170ZM249 1170Q208 1170 177 1203T145 1277Q145 1317 177 1350T249 1383Q293 1383 324 1352T356
1277Q356 1234 325 1202T249 1170Z" />
<glyph unicode="&#xe5;" glyph-name="aring" horiz-adv-x="946" d="M464 1083Q390 1083 327 1138T264 1283Q264 1372 324 1427T464 1482Q538 1482 599 1429T661 1283Q661 1193 600 1138T464 1083ZM464 1156Q517 1156 553 1193T590 1283Q590 1340 551 1375T464
1410Q412 1410 374 1375T335 1283Q335 1223 375 1190T464 1156ZM303 -19Q201 -19 139 49Q76 115 76 226Q76 341 172 422Q289 522 606 632V671Q606 803 563 861Q521 918 429 918Q363 918 327 885Q288 852 285 802L287 741Q290 642 200 642Q113 642 113 742Q113 849
219 917Q322 980 462 980Q655 980 725 892Q781 824 781 656V330Q781 268 782 227T786 164Q795 113 832 113Q862 113 945 197V137Q828 -19 718 -19Q606 -19 606 137Q473 33 430 10Q374 -19 303 -19ZM398 100Q475 98 606 204V571Q384 482 309 410Q252 353 252 275Q252
199 295 152Q335 103 398 100Z" />
<glyph unicode="&#xe6;" glyph-name="ae" horiz-adv-x="1422" d="M308 -31Q244 -31 191 1T107 87T75 209Q75 305 125 369T288 489T586 621V715Q586 830 545 876T432 922Q365 922 326 890T284 812Q282 739 273 705T247 660T202 645Q152 645 131 675T109 745Q109
797 146 851T260 942T459 979Q588 979 653 944T739 854Q791 923 858 951T1019 979Q1173 979 1263 878T1357 590H762Q762 463 773 381T815 248Q856 175 919 151T1028 126Q1044 126 1078 130T1156 154T1244 222T1323 356L1357 332Q1332 238 1284 155T1160 21T971
-31Q923 -31 876 -22T777 23T664 137Q634 112 583 72T462 1T308 -31ZM418 82Q458 81 503 102T635 193Q613 234 600 309T586 461V553Q508 524 431 488T303 400T252 268Q252 192 300 138T418 82ZM762 657H1157Q1155 792 1101 849T966 907Q886 907 826 846T762 657Z"
/>
<glyph unicode="&#xe7;" glyph-name="ccedilla" horiz-adv-x="946" d="M478 -31Q305 -31 189 109Q71 248 71 476Q71 696 207 841Q338 980 526 980Q636 980 736 922Q851 855 851 752Q851 664 752 664Q648 664 638 788Q628 912 492 912Q379 912 309 815Q242 715
242 566Q242 388 322 266Q407 136 552 136Q745 136 847 378L875 363Q850 191 734 80Q620 -31 478 -31ZM423 -459Q380 -459 335 -449T250 -426L282 -358Q309 -369 347 -377T413 -385Q537 -385 537 -295Q537 -258 516 -237T459 -213Q434 -211 410 -214T364 -223L346
-211L447 26H523L457 -139Q486 -133 519 -133Q587 -133 642 -168T697 -280Q697 -337 657 -377T553 -438T423 -459Z" />
<glyph unicode="&#xe8;" glyph-name="egrave" horiz-adv-x="946" d="M493 -31Q320 -31 199 107Q77 247 77 465Q77 703 200 844Q326 982 521 982Q680 982 784 878Q885 772 885 595H226Q226 388 330 262Q429 144 573 142Q765 139 852 369L885 349Q864 199 761 89Q649
-31 493 -31ZM226 654H668Q668 791 591 859Q533 908 462 908Q373 908 306 841Q236 771 226 654ZM602 1083L295 1279Q269 1296 236 1319T202 1370Q202 1450 269 1450Q295 1450 329 1430T393 1381L688 1083H602Z" />
<glyph unicode="&#xe9;" glyph-name="eacute" horiz-adv-x="946" d="M493 -31Q320 -31 199 107Q77 247 77 465Q77 703 200 844Q326 982 521 982Q680 982 784 878Q885 772 885 595H226Q226 388 330 262Q429 144 573 142Q765 139 852 369L885 349Q864 199 761 89Q649
-31 493 -31ZM226 654H668Q668 791 591 859Q533 908 462 908Q373 908 306 841Q236 771 226 654ZM323 1083L618 1381Q646 1409 679 1429T747 1450Q764 1450 783 1428T802 1383Q802 1352 776 1327T716 1279L408 1083H323Z" />
<glyph unicode="&#xea;" glyph-name="ecircumflex" horiz-adv-x="946" d="M493 -31Q320 -31 199 107Q77 247 77 465Q77 703 200 844Q326 982 521 982Q680 982 784 878Q885 772 885 595H226Q226 388 330 262Q429 144 573 142Q765 139 852 369L885 349Q864 199 761
89Q649 -31 493 -31ZM226 654H668Q668 791 591 859Q533 908 462 908Q373 908 306 841Q236 771 226 654ZM170 1083L438 1441H572L839 1083H765L504 1306L244 1083H170Z" />
<glyph unicode="&#xeb;" glyph-name="edieresis" horiz-adv-x="946" d="M493 -31Q320 -31 199 107Q77 247 77 465Q77 703 200 844Q326 982 521 982Q680 982 784 878Q885 772 885 595H226Q226 388 330 262Q429 144 573 142Q765 139 852 369L885 349Q864 199 761
89Q649 -31 493 -31ZM226 654H668Q668 791 591 859Q533 908 462 908Q373 908 306 841Q236 771 226 654ZM716 1170Q673 1170 642 1203T610 1277Q610 1317 643 1350T716 1383Q760 1383 791 1352T823 1277Q823 1234 792 1202T716 1170ZM290 1170Q249 1170 218 1203T186
1277Q186 1317 218 1350T290 1383Q334 1383 365 1352T397 1277Q397 1234 366 1202T290 1170Z" />
<glyph unicode="&#xec;" glyph-name="igrave" horiz-adv-x="592" d="M80 0V39Q132 39 157 45T197 71Q211 89 218 118T225 215V582Q225 710 222 759T197 827Q164 857 80 827L66 865L354 979H399V215Q399 152 405 120T424 73Q444 50 466 45T546 39V0H80ZM404 1083L97
1279Q71 1296 38 1319T4 1370Q4 1450 71 1450Q97 1450 131 1430T195 1381L490 1083H404Z" />
<glyph unicode="&#xed;" glyph-name="iacute" horiz-adv-x="592" d="M80 0V39Q132 39 157 45T197 71Q211 89 218 118T225 215V582Q225 710 222 759T197 827Q164 857 80 827L66 865L354 979H399V215Q399 152 405 120T424 73Q444 50 466 45T546 39V0H80ZM125 1083L420
1381Q448 1409 481 1429T549 1450Q566 1450 585 1428T604 1383Q604 1352 578 1327T518 1279L210 1083H125Z" />
<glyph unicode="&#xee;" glyph-name="icircumflex" horiz-adv-x="592" d="M80 0V39Q132 39 157 45T197 71Q211 89 218 118T225 215V582Q225 710 222 759T197 827Q164 857 80 827L66 865L354 979H399V215Q399 152 405 120T424 73Q444 50 466 45T546 39V0H80ZM-28
1083L240 1441H374L641 1083H567L306 1306L46 1083H-28Z" />
<glyph unicode="&#xef;" glyph-name="idieresis" horiz-adv-x="592" d="M80 0V39Q132 39 157 45T197 71Q211 89 218 118T225 215V582Q225 710 222 759T197 827Q164 857 80 827L66 865L354 979H399V215Q399 152 405 120T424 73Q444 50 466 45T546 39V0H80ZM518
1170Q475 1170 444 1203T412 1277Q412 1317 445 1350T518 1383Q562 1383 593 1352T625 1277Q625 1234 594 1202T518 1170ZM92 1170Q51 1170 20 1203T-12 1277Q-12 1317 20 1350T92 1383Q136 1383 167 1352T199 1277Q199 1234 168 1202T92 1170Z" />
<glyph unicode="&#xf0;" glyph-name="eth" horiz-adv-x="1045" d="M520 -31Q394 -31 292 33T130 208T69 459Q69 592 125 709T281 898T508 971Q552 971 587 964T684 912Q643 996 595 1073T487 1217L228 1076L200 1133L442 1270Q397 1316 369 1341T314 1387T248
1435L274 1479Q337 1449 401 1409T532 1319L791 1463L827 1406L588 1270Q780 1100 884 896T988 492Q988 360 933 240T773 45T520 -31ZM569 44Q666 44 730 125T795 391Q795 628 714 769T498 910Q438 910 384 876T297 761T262 539Q261 402 299 290T406 111T569 44Z"
/>
<glyph unicode="&#xf1;" glyph-name="ntilde" horiz-adv-x="1066" d="M181 1170Q204 1262 259 1324T417 1387Q471 1387 511 1364T592 1316T687 1292Q738 1292 779 1319T834 1397H890Q884 1341 853 1289T773 1203T664 1170Q606 1170 569 1185T504 1219T442 1253T356
1268Q315 1268 278 1237T236 1170H181ZM27 0V39Q117 39 143 71Q170 102 170 216V571Q170 803 139 831Q103 859 27 828L10 865L302 980H345V781Q511 980 664 980Q914 980 914 623V216Q914 114 935 82Q963 39 1062 39V0H585V39Q689 39 715 70Q741 104 741 216V605Q741
734 706 795Q674 852 591 852Q466 852 345 718V216Q345 109 365 80Q395 39 500 39V0H27Z" />
<glyph unicode="&#xf2;" glyph-name="ograve" horiz-adv-x="1066" d="M523 -31Q330 -31 200 117Q71 266 71 468Q71 670 194 819Q327 980 533 980Q732 980 864 841Q992 703 992 493Q992 289 875 139Q741 -31 523 -31ZM566 46Q798 46 798 415Q798 633 716 772Q635
914 500 914Q403 914 342 838Q265 743 265 553Q265 341 346 197Q431 46 566 46ZM629 1083L322 1279Q296 1296 263 1319T229 1370Q229 1450 296 1450Q322 1450 356 1430T420 1381L715 1083H629Z" />
<glyph unicode="&#xf3;" glyph-name="oacute" horiz-adv-x="1066" d="M523 -31Q330 -31 200 117Q71 266 71 468Q71 670 194 819Q327 980 533 980Q732 980 864 841Q992 703 992 493Q992 289 875 139Q741 -31 523 -31ZM566 46Q798 46 798 415Q798 633 716 772Q635
914 500 914Q403 914 342 838Q265 743 265 553Q265 341 346 197Q431 46 566 46ZM350 1083L645 1381Q673 1409 706 1429T774 1450Q791 1450 810 1428T829 1383Q829 1352 803 1327T743 1279L435 1083H350Z" />
<glyph unicode="&#xf4;" glyph-name="ocircumflex" horiz-adv-x="1066" d="M523 -31Q330 -31 200 117Q71 266 71 468Q71 670 194 819Q327 980 533 980Q732 980 864 841Q992 703 992 493Q992 289 875 139Q741 -31 523 -31ZM566 46Q798 46 798 415Q798 633 716 772Q635
914 500 914Q403 914 342 838Q265 743 265 553Q265 341 346 197Q431 46 566 46ZM197 1083L465 1441H599L866 1083H792L531 1306L271 1083H197Z" />
<glyph unicode="&#xf5;" glyph-name="otilde" horiz-adv-x="1066" d="M176 1170Q199 1262 254 1324T412 1387Q466 1387 506 1364T587 1316T682 1292Q733 1292 774 1319T829 1397H885Q879 1341 848 1289T768 1203T659 1170Q601 1170 564 1185T499 1219T437 1253T351
1268Q310 1268 273 1237T231 1170H176ZM523 -31Q330 -31 200 117Q71 266 71 468Q71 670 194 819Q327 980 533 980Q732 980 864 841Q992 703 992 493Q992 289 875 139Q741 -31 523 -31ZM566 46Q798 46 798 415Q798 633 716 772Q635 914 500 914Q403 914 342 838Q265
743 265 553Q265 341 346 197Q431 46 566 46Z" />
<glyph unicode="&#xf6;" glyph-name="odieresis" horiz-adv-x="1066" d="M523 -31Q330 -31 200 117Q71 266 71 468Q71 670 194 819Q327 980 533 980Q732 980 864 841Q992 703 992 493Q992 289 875 139Q741 -31 523 -31ZM566 46Q798 46 798 415Q798 633 716 772Q635
914 500 914Q403 914 342 838Q265 743 265 553Q265 341 346 197Q431 46 566 46ZM743 1170Q700 1170 669 1203T637 1277Q637 1317 670 1350T743 1383Q787 1383 818 1352T850 1277Q850 1234 819 1202T743 1170ZM317 1170Q276 1170 245 1203T213 1277Q213 1317 245
1350T317 1383Q361 1383 392 1352T424 1277Q424 1234 393 1202T317 1170Z" />
<glyph unicode="&#xf7;" glyph-name="divide" horiz-adv-x="2049" d="M410 551V679H1639V551H410ZM1024 164Q973 164 937 199T901 284Q901 337 937 372T1024 408Q1076 408 1112 373T1148 284Q1148 234 1112 199T1024 164ZM1024 821Q973 821 937 856T901 945Q901
995 937 1031T1024 1068Q1076 1068 1112 1032T1148 945Q1148 892 1112 857T1024 821Z" />
<glyph unicode="&#xf8;" glyph-name="oslash" horiz-adv-x="1063" d="M86 -69L37 -24L182 136Q133 198 104 277Q71 369 71 466Q71 562 102 653T194 818T339 935T532 979Q636 979 719 942Q783 913 836 866L973 1019L1021 973L881 818Q931 760 958 684Q992 593 992
494Q992 402 963 309T875 139T728 16T522 -31Q424 -31 339 9Q279 37 226 86L86 -69ZM565 44Q669 44 733 126T797 413Q797 520 776 611Q772 629 767 646T757 679L338 211L346 196Q386 127 441 86T565 44ZM308 277L729 746Q726 753 723 758T717 769Q679 837 624 875T500
914Q446 914 392 882T301 770T264 553Q264 453 284 358Q290 337 295 317T308 277Z" />
<glyph unicode="&#xf9;" glyph-name="ugrave" horiz-adv-x="1066" d="M408 -31Q162 -31 162 340V766Q162 857 129 885Q96 914 0 914V954H336V316Q336 99 493 99Q598 99 732 233V775Q732 857 695 888Q666 911 578 914V954H907V252Q907 109 970 109Q1015 109 1054
124L1068 89L779 -31H732V172Q674 112 629 71T548 10Q478 -31 408 -31ZM632 1083L325 1279Q299 1296 266 1319T232 1370Q232 1450 299 1450Q325 1450 359 1430T423 1381L718 1083H632Z" />
<glyph unicode="&#xfa;" glyph-name="uacute" horiz-adv-x="1066" d="M408 -31Q162 -31 162 340V766Q162 857 129 885Q96 914 0 914V954H336V316Q336 99 493 99Q598 99 732 233V775Q732 857 695 888Q666 911 578 914V954H907V252Q907 109 970 109Q1015 109 1054
124L1068 89L779 -31H732V172Q674 112 629 71T548 10Q478 -31 408 -31ZM353 1083L648 1381Q676 1409 709 1429T777 1450Q794 1450 813 1428T832 1383Q832 1352 806 1327T746 1279L438 1083H353Z" />
<glyph unicode="&#xfb;" glyph-name="ucircumflex" horiz-adv-x="1066" d="M408 -31Q162 -31 162 340V766Q162 857 129 885Q96 914 0 914V954H336V316Q336 99 493 99Q598 99 732 233V775Q732 857 695 888Q666 911 578 914V954H907V252Q907 109 970 109Q1015 109
1054 124L1068 89L779 -31H732V172Q674 112 629 71T548 10Q478 -31 408 -31ZM200 1083L468 1441H602L869 1083H795L534 1306L274 1083H200Z" />
<glyph unicode="&#xfc;" glyph-name="udieresis" horiz-adv-x="1066" d="M408 -31Q162 -31 162 340V766Q162 857 129 885Q96 914 0 914V954H336V316Q336 99 493 99Q598 99 732 233V775Q732 857 695 888Q666 911 578 914V954H907V252Q907 109 970 109Q1015 109
1054 124L1068 89L779 -31H732V172Q674 112 629 71T548 10Q478 -31 408 -31ZM746 1170Q703 1170 672 1203T640 1277Q640 1317 673 1350T746 1383Q790 1383 821 1352T853 1277Q853 1234 822 1202T746 1170ZM320 1170Q279 1170 248 1203T216 1277Q216 1317 248 1350T320
1383Q364 1383 395 1352T427 1277Q427 1234 396 1202T320 1170Z" />
<glyph unicode="&#xfd;" glyph-name="yacute" horiz-adv-x="1066" d="M203 -462Q144 -462 102 -426Q61 -392 61 -342Q61 -247 169 -247Q182 -247 203 -252T252 -266Q308 -285 313 -285Q393 -285 458 -127L525 39L183 756Q150 824 127 851Q76 910 13 914V954H458V914H435Q340
914 340 845Q340 804 375 732L606 252L819 779Q860 851 832 892Q816 914 744 914V954H1054V914Q1006 910 980 888Q949 857 912 771L525 -180Q470 -312 383 -386Q295 -462 203 -462ZM391 1083L686 1381Q714 1409 747 1429T815 1450Q832 1450 851 1428T870 1383Q870
1352 844 1327T784 1279L476 1083H391Z" />
<glyph unicode="&#xfe;" glyph-name="thorn" horiz-adv-x="1045" d="M-8 -455V-416Q66 -412 101 -401T147 -352T158 -228V1175Q158 1238 155 1268T145 1310T122 1330Q106 1341 82 1344T10 1328L-2 1363L291 1479H330V755Q404 880 477 929T637 979Q743 979 823
918T948 750T994 512Q994 363 940 241T788 45T557 -31Q494 -31 446 -18T330 55V-232Q330 -307 339 -345T383 -398T492 -416V-455H-8ZM553 33Q670 32 739 134T808 413Q808 534 777 628T689 777T553 832Q524 832 498 826T435 790T330 692V335Q330 223 340 184Q354
129 407 82T553 33Z" />
<glyph unicode="&#xff;" glyph-name="ydieresis" horiz-adv-x="1066" d="M203 -462Q144 -462 102 -426Q61 -392 61 -342Q61 -247 169 -247Q182 -247 203 -252T252 -266Q308 -285 313 -285Q393 -285 458 -127L525 39L183 756Q150 824 127 851Q76 910 13 914V954H458V914H435Q340
914 340 845Q340 804 375 732L606 252L819 779Q860 851 832 892Q816 914 744 914V954H1054V914Q1006 910 980 888Q949 857 912 771L525 -180Q470 -312 383 -386Q295 -462 203 -462ZM784 1170Q741 1170 710 1203T678 1277Q678 1317 711 1350T784 1383Q828 1383 859
1352T891 1277Q891 1234 860 1202T784 1170ZM358 1170Q317 1170 286 1203T254 1277Q254 1317 286 1350T358 1383Q402 1383 433 1352T465 1277Q465 1234 434 1202T358 1170Z" />
<glyph unicode="&#x2013;" glyph-name="endash" horiz-adv-x="1024" d="M-44 469V549H1055V469H-44Z" />
<glyph unicode="&#x2014;" glyph-name="emdash" horiz-adv-x="2048" d="M0 469V549H2048V469H0Z" />
<glyph unicode="&#x2018;" glyph-name="quoteleft" horiz-adv-x="1600" d="M448 1223Q372 1223 315 1284Q250 1352 250 1450Q250 1717 547 1817V1765Q354 1653 354 1530Q354 1460 397 1460Q407 1460 437 1469Q466 1479 483 1479Q527 1479 562 1445Q598 1411 598
1356Q598 1292 550 1257Q503 1223 448 1223ZM1470 1937V1942Q1477 1944 1487 1958Q1492 1965 1492 1969Q1492 1970 1491 1970T1490 1971Q1489 1970 1485 1970Q1471 1970 1471 1984Q1471 2001 1485 2001Q1504 2001 1504 1978Q1504 1967 1499 1960T1489 1948Q1479
1940 1470 1937Z" />
<glyph unicode="&#x2019;" glyph-name="quoteright" horiz-adv-x="1600" d="M212 1219V1268Q402 1380 402 1505Q402 1575 359 1575Q350 1575 320 1565Q289 1556 275 1556Q231 1556 196 1590Q160 1625 160 1679Q160 1741 212 1780Q257 1810 310 1810Q384 1810 443
1751Q509 1684 509 1583Q509 1317 212 1219Z" />
<glyph unicode="&#x201a;" glyph-name="quotesinglbase" horiz-adv-x="709" d="M248 -332V-287Q285 -265 325 -237T394 -168T422 -71Q422 -30 407 -19T383 -8Q370 -8 348 -16T305 -24Q269 -24 235 4T200 86Q200 148 247 177T338 206Q380 206 421 181T490 110T518
0Q518 -81 488 -139T413 -237T323 -299T248 -332Z" />
<glyph unicode="&#x201c;" glyph-name="quotedblleft" horiz-adv-x="1600" d="M1290 1221Q1215 1221 1157 1282Q1091 1350 1091 1448Q1091 1715 1388 1815V1763Q1198 1651 1198 1528Q1198 1458 1241 1458Q1249 1458 1280 1467Q1310 1477 1325 1477Q1367 1477 1404
1442Q1440 1408 1440 1354Q1440 1289 1391 1255Q1344 1221 1290 1221ZM743 1223Q667 1223 610 1284Q545 1352 545 1450Q545 1717 842 1817V1765Q649 1653 649 1530Q649 1460 692 1460Q702 1460 732 1469Q761 1479 778 1479Q822 1479 857 1445Q893 1411 893 1356Q893
1292 845 1257Q798 1223 743 1223Z" />
<glyph unicode="&#x201d;" glyph-name="quotedblright" horiz-adv-x="1600" d="M212 1219V1268Q402 1380 402 1505Q402 1575 359 1575Q350 1575 320 1565Q289 1556 275 1556Q231 1556 196 1590Q160 1625 160 1679Q160 1741 212 1780Q257 1810 310 1810Q384 1810
443 1751Q509 1684 509 1583Q509 1317 212 1219ZM758 1217V1266Q951 1378 951 1503Q951 1573 908 1573Q897 1573 868 1563Q838 1554 822 1554Q778 1554 743 1588Q707 1623 707 1675Q707 1739 758 1778Q803 1808 859 1808Q931 1808 990 1749Q1055 1681 1055 1581Q1055
1315 758 1217Z" />
<glyph unicode="&#x201e;" glyph-name="quotedblbase" horiz-adv-x="945" d="M614 -333V-289Q651 -267 691 -239T760 -170T788 -73Q788 -32 773 -21T750 -10Q737 -10 715 -18T672 -27Q637 -27 602 2T567 84Q567 146 614 175T705 204Q747 204 788 179T858 108T886
-2Q886 -83 856 -141T780 -239T690 -300T614 -333ZM117 -332V-287Q154 -265 194 -237T262 -168T291 -71Q291 -30 276 -19T252 -8Q237 -8 215 -16T173 -24Q138 -24 104 4T69 86Q69 148 116 177T206 206Q270 206 328 151T386 0Q386 -81 356 -139T282 -237T192 -299T117
-332Z" />
<glyph unicode="&#x2022;" glyph-name="bullet" horiz-adv-x="1600" d="M798 745Q706 745 641 811Q575 874 575 968Q575 1063 641 1128Q708 1193 798 1193Q891 1193 958 1128Q1024 1063 1024 968Q1024 874 958 811Q893 745 798 745Z" />
<glyph unicode="&#x2039;" glyph-name="guilsinglleft" horiz-adv-x="709" d="M526 -8L122 483L526 971H582L328 483L582 -8H526Z" />
<glyph unicode="&#x203a;" glyph-name="guilsinglright" horiz-adv-x="709" d="M126 -8L381 479L126 971H182L586 479L182 -8H126Z" />
</font>
</defs>
</svg>
