<?xml version="1.0" standalone="no"?>
<!DOCTYPE svg PUBLIC "-//W3C//DTD SVG 1.1//EN" "http://www.w3.org/Graphics/SVG/1.1/DTD/svg11.dtd">
<svg xmlns="http://www.w3.org/2000/svg">
<defs >
<font id="GemunuLibre" horiz-adv-x="432" ><font-face
    font-family="Gemunu Libre ExtraLight"
    units-per-em="1000"
    panose-1="0 0 0 0 0 0 0 0 0 0"
    ascent="884"
    descent="-200"
    alphabetic="0" />
<glyph unicode=" " horiz-adv-x="191" />
<glyph unicode="!" horiz-adv-x="220" d="M142 190H95L76 487V645H161V487L142 190ZM158 0H78V95H158V0Z" />
<glyph unicode="&quot;" horiz-adv-x="261" d="M37 483H77L103 597V681H37V483ZM147 483H187L213 597V681H147V483Z" />
<glyph unicode="#" horiz-adv-x="523" d="M66 0H127L249 640H189L66 0ZM272 0H333L455 640H395L272 0ZM64 415H506V474H64V415ZM17 167H459V226H17V167Z" />
<glyph unicode="$" horiz-adv-x="481" d="M146 347H287Q355 347 389 318T423 227V139Q423 75 390 44T288 15L62 18V89H328Q340 89 340 102V260Q340 273 328 273H185Q117 273 84 300T50 392V473Q50 535 85 568T188 600L405 597V525H146Q133 525 133 512V359Q133
347 146 347ZM205 588V698H276V588H205ZM205 -82V28H276V-82H205Z" />
<glyph unicode="%" horiz-adv-x="723" d="M31 359V560Q31 601 51 619T118 638H200Q246 638 266 620T288 560L289 359Q290 320 268 301T200 282H118Q72 282 52 301T31 359ZM212 580H107Q97 580 97 571V349Q97 340 107 340H212Q222 340 222 349V571Q222 580 212
580ZM436 74V275Q436 315 456 334T522 353H605Q651 353 671 334T692 275V74Q692 35 672 16T605 -3H522Q477 -3 457 16T436 74ZM617 295H511Q502 295 502 286V64Q502 55 511 55H617Q626 55 626 64V286Q626 295 617 295ZM502 642H570L224 -7H156L502 642Z" />
<glyph unicode="&amp;" horiz-adv-x="567" d="M322 -4H209Q141 -4 106 28T70 123V242Q70 305 105 330T211 354L217 324Q150 324 113 349T75 433V514Q75 578 109 608T211 639H320Q388 639 422 609T456 514V458H372V552Q372 565 359 565H172Q159 565 159 552V384Q159
371 172 371H300V308H167Q154 308 154 296V84Q154 71 167 71H364Q377 71 377 84V239Q377 301 409 330T510 359H538L537 284H473Q461 284 461 271V123Q461 61 426 29T322 -4Z" />
<glyph unicode="&apos;" horiz-adv-x="155" d="M37 483H78L107 596V681H37V483Z" />
<glyph unicode="(" horiz-adv-x="278" d="M257 -170H198Q131 -170 97 -141T63 -49V559Q63 622 97 651T198 680H257V618H155Q145 618 145 608V-98Q145 -108 155 -108H257V-170Z" />
<glyph unicode=")" horiz-adv-x="278" d="M22 -170V-108H124Q133 -108 133 -98V608Q133 618 124 618H22V680H81Q148 680 181 651T215 559V-49Q215 -111 182 -140T81 -170H22Z" />
<glyph unicode="*" horiz-adv-x="357" d="M150 434L115 386L73 416L107 465L152 504L173 489L150 434ZM285 418L243 387L208 435L184 491L205 505L250 466L285 418ZM267 520L208 515L200 538L251 569L307 588L324 538L267 520ZM191 545H166L152 603V662H204L205
603L191 545ZM148 515L89 519L33 538L49 587L106 569L157 538L148 515Z" />
<glyph unicode="+" horiz-adv-x="530" d="M474 328V267H57V328H474ZM297 95H233V501H297V95Z" />
<glyph unicode="," horiz-adv-x="172" d="M43 2H79L73 7Q73 -7 67 -30T44 -77L72 -99Q98 -73 112 -43T126 18V104H43V2Z" />
<glyph unicode="-" horiz-adv-x="320" d="M289 317V252H32V317H289Z" />
<glyph unicode="." horiz-adv-x="183" d="M134 0H50V104H134V0Z" />
<glyph unicode="/" horiz-adv-x="418" d="M334 675H409L94 -96H17L334 675Z" />
<glyph unicode="0" horiz-adv-x="540" d="M375 568H165Q156 568 156 558V77Q156 67 165 67H375Q384 67 384 77V558Q384 568 375 568ZM72 108V527Q72 589 103 615T199 642H340Q406 642 437 616T468 527V108Q468 46 437 20T340 -7H199Q134 -7 103 19T72 108Z" />
<glyph unicode="1" horiz-adv-x="424" d="M396 66V0H55V66H396ZM26 518L205 635H280V0H198V555L205 552L61 462L26 518Z" />
<glyph unicode="2" horiz-adv-x="454" d="M42 191Q42 226 50 244T77 275T123 300L317 396Q324 399 327 403T330 414V552Q330 564 317 564H55V635L283 639Q329 640 357 626T399 583T413 516V425Q413 385 395 364T333 322L142 227Q130 222 128 215T125 192V71H412V0H42V191Z"
/>
<glyph unicode="3" horiz-adv-x="455" d="M385 123Q385 61 350 28T246 -4L25 0V71H288Q301 71 301 84V280Q301 293 288 293H83V363H283Q296 363 296 376V552Q296 565 283 565H28V635L244 639Q312 640 346 609T380 514V422Q380 363 343 338T237 312L244 342Q316
342 350 318T385 231V123Z" />
<glyph unicode="4" horiz-adv-x="534" d="M403 0H322V156L329 149H18V206L209 555Q225 584 237 602T270 629T326 637L403 635V210L397 217H498V149H397L403 156V0ZM284 556L98 210L92 217H329L322 210V565H297Q291 565 289 563T284 556Z" />
<glyph unicode="5" horiz-adv-x="455" d="M129 387H264Q332 387 368 357T404 265V121Q404 57 370 26T268 -4L40 0V71H307Q320 71 320 84V303Q320 316 307 316H47V635H382V564H129V387Z" />
<glyph unicode="6" horiz-adv-x="500" d="M320 -3H209Q141 -3 107 24T73 115V512Q73 574 109 607T212 639L427 635V564H170Q157 564 157 551V84Q157 71 171 71H359Q372 71 372 84V307Q372 319 359 319H147V389H322Q390 389 423 362T456 270V121Q456 57 422 27T320 -3Z" />
<glyph unicode="7" horiz-adv-x="411" d="M156 -2H69L297 555Q300 561 299 564T291 568H18V635L309 636Q350 636 368 616T387 557L156 -2Z" />
<glyph unicode="8" horiz-adv-x="543" d="M334 -4H209Q141 -4 106 28T70 123V231Q70 293 105 317T211 342L217 312Q150 312 113 337T75 422V514Q75 578 109 608T211 639H332Q400 639 434 609T468 514V422Q468 363 431 338T325 312L332 342Q403 342 438 318T473
231V123Q473 61 438 29T334 -4ZM154 84Q154 71 167 71H376Q389 71 389 84V281Q389 293 376 293H167Q154 293 154 281V84ZM159 375Q159 362 172 362H371Q384 362 384 375V552Q384 565 371 565H172Q159 565 159 552V375Z" />
<glyph unicode="9" horiz-adv-x="500" d="M427 123Q427 61 392 28T288 -4L66 0V71H330Q343 71 343 84V551Q343 564 330 564H141Q128 564 128 551V323Q128 310 141 310H354V241H179Q111 241 78 268T44 360V514Q44 578 78 608T180 638H291Q359 638 393 612T427 520V123Z" />
<glyph unicode=":" horiz-adv-x="210" d="M147 27H63V130H147V27ZM147 289H63V393H147V289Z" />
<glyph unicode=";" horiz-adv-x="215" d="M63 2H98L93 7Q93 -7 86 -29T65 -73L94 -97Q120 -71 133 -42T147 18V104H63V2ZM147 268H63V371H147V268Z" />
<glyph unicode="&lt;" horiz-adv-x="465" d="M46 256V306L405 486V416L99 268V295L405 148V77L46 256Z" />
<glyph unicode="=" horiz-adv-x="504" d="M443 388V327H55V388H443ZM443 210V149H55V210H443Z" />
<glyph unicode="&gt;" horiz-adv-x="468" d="M418 327V277L60 97V167L366 315V288L60 435V506L418 327Z" />
<glyph unicode="?" horiz-adv-x="367" d="M171 159H93V227Q93 248 97 260T112 285T141 317L227 406Q232 411 233 414T235 424V558Q235 567 225 567H31V637H191Q254 637 284 611T315 523V438Q315 407 300 387T255 334L189 265Q178 254 175 245T172 219L171 159ZM172
0H92V95H172V0Z" />
<glyph unicode="@" horiz-adv-x="650" d="M453 -47H193Q128 -47 98 -21T67 68V487Q67 549 97 575T193 602H466Q532 602 562 576T593 487V191Q593 138 576 118T510 97H458Q433 97 417 102T394 119T387 149V153L393 181Q393 154 387 136T364 107T320 97H299Q248
97 224 118T200 192V361Q200 417 227 439T311 460L453 457V159Q453 149 463 149H516Q526 149 526 159V534Q526 543 516 543H143Q134 543 134 534V21Q134 12 143 12H453V-47ZM267 162Q267 153 276 153H378Q383 153 385 154T387 162V416L397 405L276 407Q267 407
267 398V162Z" />
<glyph unicode="A" horiz-adv-x="528" d="M517 0H435L392 176L404 166H123L136 176L89 0H12L164 542Q174 581 185 601T217 629T275 637L361 635L517 0ZM238 555L149 227L141 237H389L381 227L300 565H249Q244 565 242 563T238 555Z" />
<glyph unicode="B" horiz-adv-x="544" d="M483 123Q483 61 447 28T343 -4L72 0V635L331 639Q399 640 433 609T468 514V417Q468 358 432 333T328 308L341 337Q413 338 448 314T483 226V123ZM153 305V54L138 68H386Q398 68 398 81V277Q398 289 386 289H139L153 305ZM153
585V342L139 357H371Q383 357 383 370V556Q383 569 371 569H140L153 585Z" />
<glyph unicode="C" horiz-adv-x="431" d="M410 74V0H189Q123 0 92 26T61 114V521Q61 583 92 609T189 635H410V561H155Q145 561 145 552V83Q145 74 155 74H410Z" />
<glyph unicode="D" horiz-adv-x="544" d="M386 568H153V67H386Q398 67 398 80V555Q398 568 386 568ZM72 -1V635L346 640Q416 641 449 611T483 514V121Q483 54 448 24T343 -5L72 -1Z" />
<glyph unicode="E" horiz-adv-x="461" d="M427 0H72V635H422V564H140L153 577V345L140 358H405V288H140L153 301V58L140 71H427V0Z" />
<glyph unicode="F" horiz-adv-x="428" d="M398 349V278H138L153 293V0H72V635H153V333L138 349H398ZM126 564V635H415V564H126Z" />
<glyph unicode="G" horiz-adv-x="529" d="M350 -7H189Q124 -7 93 19T62 108V527Q62 589 93 615T189 642H466V568H155Q146 568 146 558V77Q146 67 155 67H387Q397 67 397 77V278L407 264H284V333H477V108Q477 46 446 20T350 -7Z" />
<glyph unicode="H" horiz-adv-x="576" d="M423 342V635H504V0H423V301L438 287H138L153 301V0H72V635H153V342L138 358H438L423 342Z" />
<glyph unicode="I" horiz-adv-x="251" d="M166 0H85V635H166V0Z" />
<glyph unicode="J" horiz-adv-x="274" d="M201 635V105Q201 44 172 19T83 -7H10V67H110Q119 67 119 77V635H201Z" />
<glyph unicode="K" horiz-adv-x="544" d="M158 0H77V635H158V0ZM285 312H145V357H304Q309 357 310 359T314 367L430 635H512L410 402Q399 375 389 358T367 330T335 316T285 312ZM304 286H139V331H290Q331 331 352 323T386 296T417 242L537 0H449L314 277Q312 282
311 284T304 286Z" />
<glyph unicode="L" horiz-adv-x="396" d="M391 71V0H72V635H153V56L138 71H391Z" />
<glyph unicode="M" horiz-adv-x="648" d="M526 635Q558 635 570 622T582 577V0H504V545H524L344 201H296L127 535H141V0H68V635H114Q137 635 148 627T171 597L337 272H314L502 635H526Z" />
<glyph unicode="N" horiz-adv-x="571" d="M432 117V635H503V0H447L121 510L139 519V0H67V635H124L450 126L432 117Z" />
<glyph unicode="O" horiz-adv-x="558" d="M402 568H155Q146 568 146 558V77Q146 67 155 67H402Q412 67 412 77V558Q412 568 402 568ZM62 108V527Q62 589 93 615T189 642H368Q434 642 465 616T496 527V108Q496 46 465 20T368 -7H189Q124 -7 93 19T62 108Z" />
<glyph unicode="P" horiz-adv-x="502" d="M156 0H73V635L339 639Q407 640 441 609T475 514V371Q475 331 460 303T415 260T339 245H136L155 261L156 0ZM155 584V300L141 316H378Q391 316 391 329V555Q391 568 378 568H141L155 584Z" />
<glyph unicode="Q" horiz-adv-x="561" d="M402 568H155Q146 568 146 558V77Q146 67 155 67H402Q412 67 412 77V558Q412 568 402 568ZM62 108V527Q62 589 93 615T189 642H368Q434 642 465 616T496 527V108Q496 46 465 20T368 -7H189Q124 -7 93 19T62 108ZM309 -115L272
30H344L387 -115H309Z" />
<glyph unicode="R" horiz-adv-x="532" d="M156 0H73V635L340 639Q408 640 442 609T476 514V386Q476 329 447 298T359 261L360 278Q385 273 399 256T424 206L496 0H413L329 247Q326 253 324 256T312 259H136L155 275L156 0ZM155 584V313L141 328H379Q392 328 392
341V555Q392 568 379 568H141L155 584Z" />
<glyph unicode="S" horiz-adv-x="474" d="M140 356H297Q365 356 400 327T436 235V121Q436 57 402 26T300 -4L51 0V71H339Q352 71 352 84V269Q352 282 339 282H179Q111 282 77 310T43 402V512Q43 574 78 607T182 639L418 635V564H140Q127 564 127 551V369Q127 356
140 356Z" />
<glyph unicode="T" horiz-adv-x="410" d="M246 0H164V577L177 564H5V635H405V564H232L246 577V0Z" />
<glyph unicode="U" horiz-adv-x="556" d="M367 -7H189Q124 -7 93 19T62 108V635H146V77Q146 67 155 67H401Q411 67 411 77V635H495V108Q495 46 464 20T367 -7Z" />
<glyph unicode="V" horiz-adv-x="514" d="M360 96Q350 54 339 33T308 5T252 -1L166 0L10 635H91L228 71H273Q277 71 279 73T282 81L429 635H506L360 96Z" />
<glyph unicode="W" horiz-adv-x="769" d="M290 -7H181Q122 -7 96 15T69 95V635H152V77Q152 67 161 67H334Q344 67 344 77V635H424V77Q424 67 434 67H608Q617 67 617 77L616 635H700V96Q700 39 674 16T590 -7H479Q426 -7 401 18T375 95H393Q392 43 368 18T290 -7Z" />
<glyph unicode="X" horiz-adv-x="552" d="M319 366L447 635H530L416 401Q403 374 394 357T372 330T341 316T292 311H258Q218 311 196 319T161 347T132 402L20 636H109L235 366Q238 361 240 359T247 357H308Q316 357 319 366ZM290 332Q331 332 351 324T385 296T417
241L543 0H454L316 277Q314 282 312 284T304 286H243Q238 286 236 284T231 277L93 1H9L132 242Q145 267 155 285T176 313T207 327T257 332H290Z" />
<glyph unicode="Y" horiz-adv-x="525" d="M302 309L430 635H513L387 317Q373 282 361 263T330 236T272 228H256Q218 228 197 236T164 263T137 318L12 636H99L227 309Q231 299 239 299H291Q299 299 302 309ZM303 0H221V278H303V0Z" />
<glyph unicode="Z" horiz-adv-x="478" d="M441 66V0H108Q72 0 53 17T33 71L354 556Q358 562 356 565T348 569H56V635L370 636Q411 636 430 616T449 557L133 81Q130 76 131 71T138 66H441Z" />
<glyph unicode="[" horiz-adv-x="282" d="M251 -170H63V680H251V621H144V-111H251V-170Z" />
<glyph unicode="\" horiz-adv-x="400" d="M314 -96L5 675H84L395 -96H314Z" />
<glyph unicode="]" horiz-adv-x="282" d="M31 -170V-111H139V621H31V680H219V-170H31Z" />
<glyph unicode="^" horiz-adv-x="446" d="M198 675H248L400 366H335L215 623H230L111 366H47L198 675Z" />
<glyph unicode="_" horiz-adv-x="441" d="M421 -44V-97H20V-44H421Z" />
<glyph unicode="`" horiz-adv-x="282" d="M38 692L132 553H190L123 693L38 692Z" />
<glyph unicode="a" horiz-adv-x="416" d="M207 -7H142Q85 -7 59 15T32 95V177Q32 238 59 260T149 283H298V225H120Q110 225 110 215V67Q110 58 120 58H288V415Q288 425 279 425L59 424V490L249 491Q312 491 340 468T368 381V0H298L288 58L294 85Q294 38 275 16T207 -7Z" />
<glyph unicode="b" horiz-adv-x="443" d="M279 -4L57 0V675H136V432L131 405Q131 452 150 474T218 497H286Q345 497 371 475T397 395V102Q397 42 370 19T279 -4ZM136 423V53L127 63L309 61Q318 61 318 71V423Q318 432 309 432H146Q136 432 136 423Z" />
<glyph unicode="c" horiz-adv-x="340" d="M323 -7H171Q106 -7 77 18T47 104V386Q47 448 76 472T171 497H323V431H136Q126 431 126 421V69Q126 59 136 59H323V-7Z" />
<glyph unicode="d" horiz-adv-x="443" d="M307 675H386V0H317L307 58L313 85Q313 38 293 16T226 -7H157Q100 -7 74 15T47 95V387Q47 448 74 471T164 493L307 492V675ZM307 67V438L317 427L135 429Q125 429 125 420V67Q125 58 135 58H298Q307 58 307 67Z" />
<glyph unicode="e" horiz-adv-x="426" d="M373 -5H173Q108 -5 78 19T48 106V389Q48 451 74 474T162 497H267Q331 497 358 474T385 389V192H118V251H306V423Q306 432 296 432H137Q128 432 128 423V70Q128 61 137 61H373V-5Z" />
<glyph unicode="f" horiz-adv-x="292" d="M306 615L172 616Q162 616 162 606V477L149 490H289V428H149L162 442V0H83V442L97 428H24V490H97L83 477V573Q83 635 111 658T203 682L306 681V615Z" />
<glyph unicode="g" horiz-adv-x="431" d="M307 67V436L317 426L135 428Q125 428 125 418V67Q125 58 135 58H298Q307 58 307 67ZM298 -131Q307 -131 307 -122V58L313 85Q313 38 293 16T226 -7H157Q100 -7 74 15T47 95V387Q47 448 74 471T164 493L386 490V-86Q386
-147 357 -172T262 -197H64V-131H298Z" />
<glyph unicode="h" horiz-adv-x="442" d="M214 497H283Q342 497 368 475T394 395V0H315V423Q315 432 305 432H142Q133 432 133 423L134 0H55L54 675H133V432L123 405Q123 452 145 474T214 497Z" />
<glyph unicode="i" horiz-adv-x="209" d="M144 0H65V490H144V0ZM144 588H65V665H144V588Z" />
<glyph unicode="j" horiz-adv-x="200" d="M142 588H63V665H142V588ZM54 -131Q63 -131 63 -121V490H142V-86Q142 -147 113 -172T17 -197H-32V-131H54Z" />
<glyph unicode="k" horiz-adv-x="447" d="M143 0H65V675H143V0ZM235 245H118V288H256Q263 288 266 297L328 490H405L355 335Q343 296 331 277T298 252T235 245ZM273 222H118V265H255Q296 265 317 259T350 233T376 175L443 0H363L283 213Q281 218 280 220T273 222Z" />
<glyph unicode="l" horiz-adv-x="208" d="M144 0H65V675H144V0Z" />
<glyph unicode="m" horiz-adv-x="674" d="M209 497H267Q326 497 352 475T378 395V0H299V423Q299 432 290 432H137Q127 432 127 423L128 0H49L48 490H117L127 432L118 405Q118 452 139 474T209 497ZM459 497H518Q576 497 602 475T628 395V0H549V423Q549 432 540
432H387Q378 432 378 423L376 393L368 405Q368 452 390 474T459 497Z" />
<glyph unicode="n" horiz-adv-x="445" d="M217 497H286Q344 497 370 475T396 395V0H317V423Q317 432 308 432H145Q135 432 135 423L136 0H57V490H126L135 432L126 405Q126 452 147 474T217 497Z" />
<glyph unicode="o" horiz-adv-x="442" d="M306 431H136Q126 431 126 421V69Q126 59 136 59H306Q315 59 315 69V421Q315 431 306 431ZM47 104V386Q47 448 76 472T171 497H271Q337 497 366 473T395 386V104Q395 43 366 18T271 -7H171Q106 -7 77 18T47 104Z" />
<glyph unicode="p" horiz-adv-x="443" d="M136 -190H57V490H126L136 432L130 405Q130 452 150 474T217 497H286Q344 497 370 475T396 395V103Q396 43 369 20T279 -3L136 -1V-190ZM136 423V53L126 64L308 62Q317 62 317 71V423Q317 432 308 432H145Q136 432 136 423Z" />
<glyph unicode="q" horiz-adv-x="443" d="M164 493L386 490V-190H307V58L313 85Q313 38 293 16T226 -7H157Q100 -7 74 15T47 95V387Q47 448 74 471T164 493ZM307 67V436L317 426L135 428Q125 428 125 418V67Q125 58 135 58H298Q307 58 307 67Z" />
<glyph unicode="r" horiz-adv-x="271" d="M216 497H271V429H144Q134 429 134 420L135 0H56L55 490H125L134 432L125 405Q125 452 146 474T216 497Z" />
<glyph unicode="s" horiz-adv-x="377" d="M243 -4H41V61H266Q275 61 275 70V209Q275 218 266 218H151Q88 218 61 241T33 324V388Q33 450 61 473T152 497L330 496V430L123 431Q113 431 113 421V290Q113 281 123 281H236Q300 281 327 259T354 175V99Q354 41 328 19T243 -4Z" />
<glyph unicode="t" horiz-adv-x="282" d="M278 490V428H152L162 438V75Q162 66 171 66H278V0H208Q142 0 113 25T83 111V438L93 428H23V490H93L83 480V615H162V480L152 490H278Z" />
<glyph unicode="u" horiz-adv-x="446" d="M229 -7H160Q102 -7 76 15T49 95V490H128V67Q128 58 137 58H311L310 490H389V0H320L311 58L317 85Q317 38 297 16T229 -7Z" />
<glyph unicode="v" horiz-adv-x="411" d="M314 93Q306 56 295 34T264 2T205 -5L114 0L4 490H83L178 58H228Q233 58 235 60T238 67L330 490H406L314 93Z" />
<glyph unicode="w" horiz-adv-x="676" d="M243 -7H162Q105 -7 79 12T52 89V490H130V67Q130 58 140 58H290Q299 58 299 67V490H377V67Q377 58 386 58H536Q546 58 546 67L545 490H624L625 95Q625 38 599 16T514 -7H433Q380 -7 355 18T329 95H347Q346 43 321 18T243 -7Z" />
<glyph unicode="x" horiz-adv-x="439" d="M90 0H8L86 166Q103 202 114 221T144 247T199 256L200 237Q169 238 152 246T123 273T97 326L26 490H107L193 287Q195 282 196 281T202 279H239Q246 279 249 287L336 490H413L341 326Q327 293 316 274T289 247T244 237V255Q279
254 297 247T326 220T355 166L434 0H350L256 205Q253 213 246 213H191Q186 213 185 212T181 205L90 0Z" />
<glyph unicode="y" horiz-adv-x="444" d="M300 -131Q309 -131 309 -122V58L316 85Q316 38 296 16T228 -7H159Q102 -7 75 15T48 95V490H127V67Q127 58 137 58H309V490H387L388 -86Q388 -147 359 -172T264 -197H65V-131H300Z" />
<glyph unicode="z" horiz-adv-x="359" d="M333 62V0H91Q54 0 34 15T14 67L246 415Q250 421 248 424T240 428H34V490H256Q296 490 316 472T336 414L108 77Q105 71 106 67T113 62H333Z" />
<glyph unicode="{" horiz-adv-x="310" d="M177 610V342Q177 293 154 273T87 253V257Q130 257 153 237T177 168V-100Q177 -109 186 -109H288V-170H229Q163 -170 129 -141T95 -49V209Q95 219 84 219H53V290H84Q95 290 95 301V559Q95 622 129 651T229 680H288V619H186Q177
619 177 610Z" />
<glyph unicode="|" horiz-adv-x="265" d="M166 -57H100V675H166V-57Z" />
<glyph unicode="}" horiz-adv-x="310" d="M133 610Q133 619 124 619H22V680H81Q148 680 181 651T215 559V301Q215 290 226 290H257V219H226Q215 219 215 209V-49Q215 -111 182 -140T81 -170H22V-109H124Q133 -109 133 -100V168Q133 216 156 236T223 257V253Q180
253 157 273T133 342V610Z" />
<glyph unicode="~" horiz-adv-x="420" d="M100 223H41Q41 286 59 313T117 340Q145 340 177 328T238 302T286 289Q305 289 313 302T321 340H379Q379 279 361 252T300 224Q273 224 242 236T182 261T134 274Q117 274 109 262T100 223Z" />
<glyph unicode="&#xa0;" horiz-adv-x="191" />
<glyph unicode="&#xa1;" horiz-adv-x="218" d="M90 300H137L156 3V-155H71V3L90 300ZM73 490H153V395H73V490Z" />
<glyph unicode="&#xa2;" horiz-adv-x="345" d="M325 63H167Q102 63 73 88T43 174V446Q43 508 72 532T167 557H325V491H132Q123 491 123 482V139Q123 130 132 130H325V63ZM164 543V640H230V543H164ZM164 -18V79H230V-18H164Z" />
<glyph unicode="&#xa3;" horiz-adv-x="430" d="M398 0H42V72H93Q103 72 103 82V292L117 279H42V340H117L103 327V487Q103 549 134 575T231 602H391V529H195Q185 529 185 519V324L172 340H356V279H172L185 292V115Q185 93 176 80T143 67V72H398V0Z" />
<glyph unicode="&#xa4;" horiz-adv-x="583" d="M376 432H211Q201 432 201 422V199Q201 190 211 190H376Q386 190 386 199V422Q386 432 376 432ZM123 233V388Q123 449 153 474T247 499H340Q402 499 433 474T464 388V233Q464 173 433 148T340 123H247Q184 123 154
148T123 233ZM404 481L494 571L538 527L448 437L404 481ZM45 96L134 186L179 142L89 52L45 96ZM448 186L538 96L494 52L404 142L448 186ZM91 569L179 481L134 437L47 525L91 569Z" />
<glyph unicode="&#xa5;" horiz-adv-x="534" d="M302 299L422 600H505L380 307Q368 280 359 264T339 241T307 231V0H225V232Q196 236 183 252T152 308L29 601H115L237 299Q240 289 248 289H290Q298 289 302 299ZM235 123H91V174H235V123ZM235 229H91V280H235V229ZM443
123H298V174H443V123ZM443 229H298V280H443V229Z" />
<glyph unicode="&#xa6;" horiz-adv-x="278" d="M172 -57H106V227H172V-57ZM172 392H106V675H172V392Z" />
<glyph unicode="&#xa7;" horiz-adv-x="447" d="M406 21Q406 -17 392 -44T350 -86T276 -100L55 -96V-25H311Q324 -25 324 -12V100Q324 112 310 118L122 193Q94 205 76 216T50 247T41 301V518Q42 557 55 584T97 626T171 639L392 635V564H136Q124 564 124 552V440Q124
427 137 422L325 346Q354 335 372 323T398 292T406 238V21ZM329 182L324 178V245Q324 261 322 268T306 280L118 358L124 361V294Q124 278 126 271T141 259L329 182Z" />
<glyph unicode="&#xa8;" horiz-adv-x="348" d="M125 576H50V663H125V576ZM301 576H226V663H301V576Z" />
<glyph unicode="&#xa9;" horiz-adv-x="512" d="M386 601H127Q118 601 118 592V220Q118 211 127 211H386Q394 211 394 220V592Q394 601 386 601ZM68 264V548Q68 601 92 621T172 642H340Q396 642 420 622T444 548V264Q444 211 420 191T340 170H172Q117 170 93 190T68
264ZM355 248H264Q208 248 183 269T158 346V466Q158 522 183 543T264 564H355V509H234Q225 509 225 499V313Q225 303 234 303H355V248Z" />
<glyph unicode="&#xaa;" horiz-adv-x="343" d="M156 294H136Q83 294 60 316T37 395V419Q37 480 61 500T144 521H237V470H113Q103 470 103 460V363Q103 353 113 353H227V602Q227 611 217 611H57V667H188Q230 667 253 658T286 626T296 565V301H237L227 353L233 383Q233
337 217 316T156 294Z" />
<glyph unicode="&#xab;" horiz-adv-x="389" d="M43 240Q37 248 37 253T43 267L151 425H217L117 263Q112 255 117 247L214 84H145L43 240ZM190 240Q185 248 185 253T190 267L296 425H365L265 263Q260 255 265 247L361 84H290L190 240Z" />
<glyph unicode="&#xac;" horiz-adv-x="526" d="M471 328V142H403V269H40V328H471Z" />
<glyph unicode="&#xad;" horiz-adv-x="320" d="M289 317V252H32V317H289Z" />
<glyph unicode="&#xae;" horiz-adv-x="524" d="M409 601H127Q118 601 118 592V220Q118 211 127 211H409Q418 211 418 220V592Q418 601 409 601ZM68 264V548Q68 601 92 621T172 642H364Q420 642 444 622T468 548V264Q468 211 444 191T364 170H172Q117 170 93 190T68
264ZM222 241H159V564L292 567Q339 568 362 546T386 481V454Q386 414 367 392T314 367L313 381Q337 377 346 364T365 322L392 241H330L291 356Q290 360 288 362T278 365H206L222 377V241ZM222 530V401L211 413H311Q321 413 321 423V508Q321 518 311 518H212L222
530Z" />
<glyph unicode="&#xaf;" horiz-adv-x="362" d="M309 641V582H53V641H309Z" />
<glyph unicode="&#xb0;" horiz-adv-x="293" d="M30 438V564Q30 604 50 623T117 642H176Q222 642 242 623T263 564V438Q263 399 243 380T176 360H117Q71 360 51 379T30 438ZM192 587H101Q92 587 92 578V424Q92 415 101 415H192Q201 415 201 424V578Q201 587 192 587Z" />
<glyph unicode="&#xb1;" horiz-adv-x="530" d="M474 365V304H57V365H474ZM297 150H233V519H297V150ZM474 91V30H57V91H474Z" />
<glyph unicode="&#xb2;" horiz-adv-x="331" d="M42 370Q42 402 53 413T91 437L214 496Q219 498 221 500T223 507V574Q223 581 215 581H52V635L212 638Q254 639 272 619T291 563V504Q291 479 280 466T242 441L121 384Q114 380 112 377T110 363V303H290V249H42V370Z" />
<glyph unicode="&#xb3;" horiz-adv-x="345" d="M276 324Q276 286 255 267T191 248L25 249V303H200Q208 303 208 311V415Q208 423 200 423H61V476H197Q205 476 205 483V574Q205 581 197 581H28V635L190 638Q232 639 252 621T273 562V506Q273 470 250 455T180 439L184
457Q232 458 254 443T276 390V324Z" />
<glyph unicode="&#xb4;" horiz-adv-x="278" d="M62 553H122L209 692L124 693L62 553Z" />
<glyph unicode="&#xb5;" horiz-adv-x="446" d="M127 -190H49V490H128V67Q128 58 137 58H311L310 490H389V0H320L311 58L317 85Q317 38 300 16T240 -7H175Q146 -7 132 0T110 21H120L127 -190Z" />
<glyph unicode="&#xb6;" horiz-adv-x="502" d="M357 0V583L372 568H276L291 583V0H219V343L235 327H167Q122 327 92 341T47 383T31 450V518Q31 579 65 609T167 639L429 635V0H357Z" />
<glyph unicode="&#xb7;" horiz-adv-x="187" d="M140 233H47V340H140V233Z" />
<glyph unicode="&#xb8;" horiz-adv-x="262" d="M159 -148V-101Q159 -94 152 -94H69L92 11L133 4L123 -48H135Q173 -48 194 -62T215 -112V-127Q215 -207 126 -207H57V-155H152Q159 -155 159 -148Z" />
<glyph unicode="&#xb9;" horiz-adv-x="315" d="M288 303V249H43V303H288ZM26 554L151 635H213V249H147V575L156 570L55 507L26 554Z" />
<glyph unicode="&#xba;" horiz-adv-x="365" d="M245 612H121Q111 612 111 603V361Q111 352 121 352H245Q254 352 254 361V603Q254 612 245 612ZM43 402V561Q43 622 71 645T159 669H207Q268 669 295 646T323 561V402Q323 342 296 319T207 295H159Q99 295 71 318T43 402Z" />
<glyph unicode="&#xbb;" horiz-adv-x="390" d="M337 269Q342 261 342 256T337 242L228 84H162L262 246Q267 254 262 262L165 425H234L337 269ZM189 269Q194 261 194 256T189 242L83 84H15L115 246Q119 254 115 262L18 425H89L189 269Z" />
<glyph unicode="&#xbc;" horiz-adv-x="794" d="M700 0H634V90L638 86H433V130L553 338Q569 365 581 376T626 388L700 387V136L696 140H757V86H696L700 90V0ZM611 328L499 136L494 140H638L634 136V333H618Q614 333 611 328ZM288 303V249H43V303H288ZM26 554L151
635H213V249H147V575L156 570L55 507L26 554ZM542 642H609L264 -7H196L542 642Z" />
<glyph unicode="&#xbd;" horiz-adv-x="768" d="M288 303V249H43V303H288ZM26 554L151 635H213V249H147V575L156 570L55 507L26 554ZM537 642H604L259 -7H191L537 642ZM483 121Q483 153 494 164T532 188L655 247Q660 249 662 251T664 258V325Q664 332 656 332H493V386L653
389Q695 390 713 370T732 314V255Q732 230 721 217T683 192L562 135Q555 131 553 128T551 114V54H731V0H483V121Z" />
<glyph unicode="&#xbe;" horiz-adv-x="796" d="M276 324Q276 286 255 267T191 248L25 249V303H200Q208 303 208 311V415Q208 423 200 423H61V476H197Q205 476 205 483V574Q205 581 197 581H28V635L190 638Q232 639 252 621T273 562V506Q273 470 250 455T180 439L184
457Q232 458 254 443T276 390V324ZM542 642H609L264 -7H196L542 642ZM702 0H636V90L640 86H435V130L555 338Q571 365 583 376T628 388L702 387V136L698 140H759V86H698L702 90V0ZM613 328L501 136L496 140H640L636 136V333H620Q616 333 613 328Z" />
<glyph unicode="&#xbf;" horiz-adv-x="377" d="M206 331H284V263Q284 243 280 231T265 206T236 173L150 84Q145 79 144 76T142 66V-68Q142 -77 152 -77H345V-147H186Q123 -147 93 -121T62 -33V52Q62 84 76 104T122 156L188 225Q199 236 202 245T205 271L206 331ZM205
490H285V395H205V490Z" />
<glyph unicode="&#xc0;" horiz-adv-x="528" d="M517 0H435L392 176L404 166H123L136 176L89 0H12L164 542Q174 581 185 601T217 629T275 637L361 635L517 0ZM238 555L149 227L141 237H389L381 227L300 565H249Q244 565 242 563T238 555ZM162 820L256 681H314L247
821L162 820Z" />
<glyph unicode="&#xc1;" horiz-adv-x="528" d="M517 0H435L392 176L404 166H123L136 176L89 0H12L164 542Q174 581 185 601T217 629T275 637L361 635L517 0ZM238 555L149 227L141 237H389L381 227L300 565H249Q244 565 242 563T238 555ZM243 681H303L390 820L305
821L243 681Z" />
<glyph unicode="&#xc2;" horiz-adv-x="528" d="M517 0H435L392 176L404 166H123L136 176L89 0H12L164 542Q174 581 185 601T217 629T275 637L361 635L517 0ZM238 555L149 227L141 237H389L381 227L300 565H249Q244 565 242 563T238 555ZM318 816L407 681H334L270
783H279L207 681H138L232 816H318Z" />
<glyph unicode="&#xc3;" horiz-adv-x="528" d="M517 0H435L392 176L404 166H123L136 176L89 0H12L164 542Q174 581 185 601T217 629T275 637L361 635L517 0ZM238 555L149 227L141 237H389L381 227L300 565H249Q244 565 242 563T238 555ZM194 706H140Q140 761 156
781T202 802Q227 802 249 793T290 774T328 764Q343 764 349 772T355 802H409Q409 747 391 727T343 707Q319 707 297 716T254 735T218 744Q207 744 201 736T194 706Z" />
<glyph unicode="&#xc4;" horiz-adv-x="528" d="M517 0H435L392 176L404 166H123L136 176L89 0H12L164 542Q174 581 185 601T217 629T275 637L361 635L517 0ZM238 555L149 227L141 237H389L381 227L300 565H249Q244 565 242 563T238 555ZM228 704H153V791H228V704ZM404
704H329V791H404V704Z" />
<glyph unicode="&#xc5;" horiz-adv-x="528" d="M517 0H435L392 176L404 166H123L136 176L89 0H12L164 542Q174 581 185 601T217 629T275 637L361 635L517 0ZM238 555L149 227L141 237H389L381 227L300 565H249Q244 565 242 563T238 555ZM371 755Q371 708 351 687T278
665Q226 665 207 686T188 755Q188 804 207 824T278 844Q331 844 351 824T371 755ZM233 755Q233 727 240 716T278 704Q310 704 318 715T326 755Q326 786 318 796T278 806Q248 806 241 796T233 755Z" />
<glyph unicode="&#xc6;" horiz-adv-x="776" d="M84 0H3L238 542Q254 579 265 599T296 628T353 636L734 635V564H455L468 577V341L455 355H717V285H455L468 298V58L455 71H739V0H387V198L400 185H149L168 198L84 0ZM320 555L186 242L177 255H400L387 242V578L400
564H331Q326 564 324 562T320 555Z" />
<glyph unicode="&#xc7;" horiz-adv-x="431" d="M410 74V0H189Q123 0 92 26T61 114V521Q61 583 92 609T189 635H410V561H155Q145 561 145 552V83Q145 74 155 74H410ZM285 -148V-101Q285 -94 278 -94H195L218 11L259 4L249 -48H261Q299 -48 320 -62T341 -112V-127Q341
-207 252 -207H183V-155H278Q285 -155 285 -148Z" />
<glyph unicode="&#xc8;" horiz-adv-x="461" d="M427 0H72V635H422V564H140L153 577V345L140 358H405V288H140L153 301V58L140 71H427V0ZM136 820L230 681H288L221 821L136 820Z" />
<glyph unicode="&#xc9;" horiz-adv-x="461" d="M427 0H72V635H422V564H140L153 577V345L140 358H405V288H140L153 301V58L140 71H427V0ZM217 681H277L364 820L279 821L217 681Z" />
<glyph unicode="&#xca;" horiz-adv-x="461" d="M427 0H72V635H422V564H140L153 577V345L140 358H405V288H140L153 301V58L140 71H427V0ZM292 816L381 681H308L244 783H253L181 681H112L206 816H292Z" />
<glyph unicode="&#xcb;" horiz-adv-x="461" d="M427 0H72V635H422V564H140L153 577V345L140 358H405V288H140L153 301V58L140 71H427V0ZM202 704H127V791H202V704ZM378 704H303V791H378V704Z" />
<glyph unicode="&#xcc;" horiz-adv-x="251" d="M166 0H85V635H166V0ZM11 820L105 681H163L96 821L11 820Z" />
<glyph unicode="&#xcd;" horiz-adv-x="251" d="M166 0H85V635H166V0ZM90 681H150L237 820L152 821L90 681Z" />
<glyph unicode="&#xce;" horiz-adv-x="251" d="M166 0H85V635H166V0ZM166 816L255 681H182L118 783H127L55 681H-14L80 816H166Z" />
<glyph unicode="&#xcf;" horiz-adv-x="251" d="M166 0H85V635H166V0ZM77 704H2V791H77V704ZM253 704H178V791H253V704Z" />
<glyph unicode="&#xd0;" horiz-adv-x="544" d="M386 568H153V67H386Q398 67 398 80V555Q398 568 386 568ZM72 -1V635L346 640Q416 641 449 611T483 514V121Q483 54 448 24T343 -5L72 -1ZM530 354V289H273V354H530Z" />
<glyph unicode="&#xd1;" horiz-adv-x="571" d="M432 117V635H503V0H447L121 510L139 519V0H67V635H124L450 126L432 117ZM199 706H145Q145 761 161 781T207 802Q232 802 254 793T295 774T333 764Q348 764 354 772T360 802H414Q414 747 396 727T348 707Q324 707
302 716T259 735T223 744Q212 744 206 736T199 706Z" />
<glyph unicode="&#xd2;" horiz-adv-x="558" d="M402 568H155Q146 568 146 558V77Q146 67 155 67H402Q412 67 412 77V558Q412 568 402 568ZM62 108V527Q62 589 93 615T189 642H368Q434 642 465 616T496 527V108Q496 46 465 20T368 -7H189Q124 -7 93 19T62 108ZM166
820L260 681H318L251 821L166 820Z" />
<glyph unicode="&#xd3;" horiz-adv-x="558" d="M402 568H155Q146 568 146 558V77Q146 67 155 67H402Q412 67 412 77V558Q412 568 402 568ZM62 108V527Q62 589 93 615T189 642H368Q434 642 465 616T496 527V108Q496 46 465 20T368 -7H189Q124 -7 93 19T62 108ZM247
681H307L394 820L309 821L247 681Z" />
<glyph unicode="&#xd4;" horiz-adv-x="558" d="M402 568H155Q146 568 146 558V77Q146 67 155 67H402Q412 67 412 77V558Q412 568 402 568ZM62 108V527Q62 589 93 615T189 642H368Q434 642 465 616T496 527V108Q496 46 465 20T368 -7H189Q124 -7 93 19T62 108ZM322
816L411 681H338L274 783H283L211 681H142L236 816H322Z" />
<glyph unicode="&#xd5;" horiz-adv-x="558" d="M402 568H155Q146 568 146 558V77Q146 67 155 67H402Q412 67 412 77V558Q412 568 402 568ZM62 108V527Q62 589 93 615T189 642H368Q434 642 465 616T496 527V108Q496 46 465 20T368 -7H189Q124 -7 93 19T62 108ZM198
706H144Q144 761 160 781T206 802Q231 802 253 793T294 774T332 764Q347 764 353 772T359 802H413Q413 747 395 727T347 707Q323 707 301 716T258 735T222 744Q211 744 205 736T198 706Z" />
<glyph unicode="&#xd6;" horiz-adv-x="558" d="M402 568H155Q146 568 146 558V77Q146 67 155 67H402Q412 67 412 77V558Q412 568 402 568ZM62 108V527Q62 589 93 615T189 642H368Q434 642 465 616T496 527V108Q496 46 465 20T368 -7H189Q124 -7 93 19T62 108ZM232
704H157V791H232V704ZM408 704H333V791H408V704Z" />
<glyph unicode="&#xd7;" horiz-adv-x="452" d="M353 467L396 424L99 126L55 170L353 467ZM397 170L352 126L55 423L99 468L397 170Z" />
<glyph unicode="&#xd8;" horiz-adv-x="558" d="M430 683H486L128 -51H72L430 683ZM402 568H155Q146 568 146 558V77Q146 67 155 67H402Q412 67 412 77V558Q412 568 402 568ZM62 108V527Q62 589 93 615T189 642H368Q434 642 465 616T496 527V108Q496 46 465 20T368
-7H189Q124 -7 93 19T62 108Z" />
<glyph unicode="&#xd9;" horiz-adv-x="556" d="M367 -7H189Q124 -7 93 19T62 108V635H146V77Q146 67 155 67H401Q411 67 411 77V635H495V108Q495 46 464 20T367 -7ZM164 820L258 681H316L249 821L164 820Z" />
<glyph unicode="&#xda;" horiz-adv-x="556" d="M367 -7H189Q124 -7 93 19T62 108V635H146V77Q146 67 155 67H401Q411 67 411 77V635H495V108Q495 46 464 20T367 -7ZM245 681H305L392 820L307 821L245 681Z" />
<glyph unicode="&#xdb;" horiz-adv-x="556" d="M367 -7H189Q124 -7 93 19T62 108V635H146V77Q146 67 155 67H401Q411 67 411 77V635H495V108Q495 46 464 20T367 -7ZM320 816L409 681H336L272 783H281L209 681H140L234 816H320Z" />
<glyph unicode="&#xdc;" horiz-adv-x="556" d="M367 -7H189Q124 -7 93 19T62 108V635H146V77Q146 67 155 67H401Q411 67 411 77V635H495V108Q495 46 464 20T367 -7ZM230 704H155V791H230V704ZM406 704H331V791H406V704Z" />
<glyph unicode="&#xdd;" horiz-adv-x="525" d="M302 309L430 635H513L387 317Q373 282 361 263T330 236T272 228H256Q218 228 197 236T164 263T137 318L12 636H99L227 309Q231 299 239 299H291Q299 299 302 309ZM303 0H221V278H303V0ZM229 681H289L376 820L291
821L229 681Z" />
<glyph unicode="&#xde;" horiz-adv-x="520" d="M156 0H73V635H155V512L138 526H338Q406 526 440 497T475 403V260Q475 220 460 192T414 149T338 134H140L155 150L156 0ZM155 471V190L140 205H378Q390 205 390 218V442Q390 455 378 455H140L155 471Z" />
<glyph unicode="&#xdf;" horiz-adv-x="477" d="M77 442L90 428H21V490H90L77 477V515Q77 577 110 608T210 639H283Q351 639 385 609T419 514V434Q419 375 383 350T278 324L295 353Q366 354 400 329T434 242V123Q434 61 399 29T295 -4H206V62H341Q354 62 354 75V292Q354
305 341 305H206V369H324Q330 369 334 372T339 382V560Q339 573 326 573H168Q156 573 156 560V0H77V442Z" />
<glyph unicode="&#xe0;" horiz-adv-x="416" d="M207 -7H142Q85 -7 59 15T32 95V177Q32 238 59 260T149 283H298V225H120Q110 225 110 215V67Q110 58 120 58H288V415Q288 425 279 425L59 424V490L249 491Q312 491 340 468T368 381V0H298L288 58L294 85Q294 38 275
16T207 -7ZM93 692L187 553H245L178 693L93 692Z" />
<glyph unicode="&#xe1;" horiz-adv-x="416" d="M207 -7H142Q85 -7 59 15T32 95V177Q32 238 59 260T149 283H298V225H120Q110 225 110 215V67Q110 58 120 58H288V415Q288 425 279 425L59 424V490L249 491Q312 491 340 468T368 381V0H298L288 58L294 85Q294 38 275
16T207 -7ZM174 553H234L321 692L236 693L174 553Z" />
<glyph unicode="&#xe2;" horiz-adv-x="416" d="M207 -7H142Q85 -7 59 15T32 95V177Q32 238 59 260T149 283H298V225H120Q110 225 110 215V67Q110 58 120 58H288V415Q288 425 279 425L59 424V490L249 491Q312 491 340 468T368 381V0H298L288 58L294 85Q294 38 275
16T207 -7ZM249 688L338 553H265L201 655H210L138 553H69L163 688H249Z" />
<glyph unicode="&#xe3;" horiz-adv-x="416" d="M207 -7H142Q85 -7 59 15T32 95V177Q32 238 59 260T149 283H298V225H120Q110 225 110 215V67Q110 58 120 58H288V415Q288 425 279 425L59 424V490L249 491Q312 491 340 468T368 381V0H298L288 58L294 85Q294 38 275
16T207 -7ZM125 578H71Q71 633 87 653T133 674Q158 674 180 665T221 646T259 636Q274 636 280 644T286 674H340Q340 619 322 599T274 579Q250 579 228 588T185 607T149 616Q138 616 132 608T125 578Z" />
<glyph unicode="&#xe4;" horiz-adv-x="416" d="M207 -7H142Q85 -7 59 15T32 95V177Q32 238 59 260T149 283H298V225H120Q110 225 110 215V67Q110 58 120 58H288V415Q288 425 279 425L59 424V490L249 491Q312 491 340 468T368 381V0H298L288 58L294 85Q294 38 275
16T207 -7ZM159 576H84V663H159V576ZM335 576H260V663H335V576Z" />
<glyph unicode="&#xe5;" horiz-adv-x="416" d="M207 -7H142Q85 -7 59 15T32 95V177Q32 238 59 260T149 283H298V225H120Q110 225 110 215V67Q110 58 120 58H288V415Q288 425 279 425L59 424V490L249 491Q312 491 340 468T368 381V0H298L288 58L294 85Q294 38 275
16T207 -7ZM302 627Q302 580 282 559T209 537Q157 537 138 558T119 627Q119 676 138 696T209 716Q262 716 282 696T302 627ZM164 627Q164 599 171 588T209 576Q241 576 249 587T257 627Q257 658 249 668T209 678Q179 678 172 668T164 627Z" />
<glyph unicode="&#xe6;" horiz-adv-x="665" d="M612 -5H409Q349 -5 319 18T289 93V415Q289 424 279 424H59V490H242Q289 490 312 477T342 430H317Q323 468 342 482T412 497H506Q570 497 597 474T624 389V206H358V264H545V423Q545 432 535 432H377Q368 432 368
423V70Q368 61 377 61H612V-5ZM214 -7H142Q85 -7 59 15T32 95V164Q32 225 59 247T149 270H299V212H120Q110 212 110 202V67Q110 58 120 58H297Q294 26 274 10T214 -7Z" />
<glyph unicode="&#xe7;" horiz-adv-x="340" d="M323 -7H171Q106 -7 77 18T47 104V386Q47 448 76 472T171 497H323V431H136Q126 431 126 421V69Q126 59 136 59H323V-7ZM232 -148V-101Q232 -94 225 -94H142L165 11L206 4L196 -48H208Q246 -48 267 -62T288 -112V-127Q288
-207 199 -207H130V-155H225Q232 -155 232 -148Z" />
<glyph unicode="&#xe8;" horiz-adv-x="426" d="M373 -5H173Q108 -5 78 19T48 106V389Q48 451 74 474T162 497H267Q331 497 358 474T385 389V192H118V251H306V423Q306 432 296 432H137Q128 432 128 423V70Q128 61 137 61H373V-5ZM101 692L195 553H253L186 693L101 692Z" />
<glyph unicode="&#xe9;" horiz-adv-x="426" d="M373 -5H173Q108 -5 78 19T48 106V389Q48 451 74 474T162 497H267Q331 497 358 474T385 389V192H118V251H306V423Q306 432 296 432H137Q128 432 128 423V70Q128 61 137 61H373V-5ZM182 553H242L329 692L244 693L182 553Z" />
<glyph unicode="&#xea;" horiz-adv-x="426" d="M373 -5H173Q108 -5 78 19T48 106V389Q48 451 74 474T162 497H267Q331 497 358 474T385 389V192H118V251H306V423Q306 432 296 432H137Q128 432 128 423V70Q128 61 137 61H373V-5ZM257 688L346 553H273L209 655H218L146
553H77L171 688H257Z" />
<glyph unicode="&#xeb;" horiz-adv-x="426" d="M373 -5H173Q108 -5 78 19T48 106V389Q48 451 74 474T162 497H267Q331 497 358 474T385 389V192H118V251H306V423Q306 432 296 432H137Q128 432 128 423V70Q128 61 137 61H373V-5ZM167 576H92V663H167V576ZM343 576H268V663H343V576Z"
/>
<glyph unicode="&#xec;" horiz-adv-x="211" d="M145 0H66V490H145V0ZM247 692L341 553H399L332 693L247 692Z" />
<glyph unicode="&#xed;" horiz-adv-x="211" d="M145 0H66V490H145V0ZM71 553H131L218 692L133 693L71 553Z" />
<glyph unicode="&#xee;" horiz-adv-x="211" d="M145 0H66V490H145V0ZM402 688L491 553H418L354 655H363L291 553H222L316 688H402Z" />
<glyph unicode="&#xef;" horiz-adv-x="211" d="M145 0H66V490H145V0ZM313 576H238V663H313V576ZM489 576H414V663H489V576Z" />
<glyph unicode="&#xf0;" horiz-adv-x="442" d="M263 -7H171Q106 -7 77 18T47 104V362Q47 424 75 448T169 473H317L308 466V607Q308 617 298 617L118 616V677H268Q331 677 359 654T387 568V104Q387 43 358 18T263 -7ZM126 69Q126 59 135 59H299Q308 59 308 69V422L319
412H135Q126 412 126 403V69ZM431 638L222 522L202 561L412 677L431 638Z" />
<glyph unicode="&#xf1;" horiz-adv-x="445" d="M217 497H286Q344 497 370 475T396 395V0H317V423Q317 432 308 432H145Q135 432 135 423L136 0H57V490H126L135 432L126 405Q126 452 147 474T217 497ZM149 578H95Q95 633 111 653T157 674Q182 674 204 665T245 646T283
636Q298 636 304 644T310 674H364Q364 619 346 599T298 579Q274 579 252 588T209 607T173 616Q162 616 156 608T149 578Z" />
<glyph unicode="&#xf2;" horiz-adv-x="442" d="M306 431H136Q126 431 126 421V69Q126 59 136 59H306Q315 59 315 69V421Q315 431 306 431ZM47 104V386Q47 448 76 472T171 497H271Q337 497 366 473T395 386V104Q395 43 366 18T271 -7H171Q106 -7 77 18T47 104ZM108
692L202 553H260L193 693L108 692Z" />
<glyph unicode="&#xf3;" horiz-adv-x="442" d="M306 431H136Q126 431 126 421V69Q126 59 136 59H306Q315 59 315 69V421Q315 431 306 431ZM47 104V386Q47 448 76 472T171 497H271Q337 497 366 473T395 386V104Q395 43 366 18T271 -7H171Q106 -7 77 18T47 104ZM188
553H248L335 692L250 693L188 553Z" />
<glyph unicode="&#xf4;" horiz-adv-x="442" d="M306 431H136Q126 431 126 421V69Q126 59 136 59H306Q315 59 315 69V421Q315 431 306 431ZM47 104V386Q47 448 76 472T171 497H271Q337 497 366 473T395 386V104Q395 43 366 18T271 -7H171Q106 -7 77 18T47 104ZM263
688L352 553H279L215 655H224L152 553H83L177 688H263Z" />
<glyph unicode="&#xf5;" horiz-adv-x="442" d="M306 431H136Q126 431 126 421V69Q126 59 136 59H306Q315 59 315 69V421Q315 431 306 431ZM47 104V386Q47 448 76 472T171 497H271Q337 497 366 473T395 386V104Q395 43 366 18T271 -7H171Q106 -7 77 18T47 104ZM139
578H85Q85 633 101 653T147 674Q172 674 194 665T235 646T273 636Q288 636 294 644T300 674H354Q354 619 336 599T288 579Q264 579 242 588T199 607T163 616Q152 616 146 608T139 578Z" />
<glyph unicode="&#xf6;" horiz-adv-x="442" d="M306 431H136Q126 431 126 421V69Q126 59 136 59H306Q315 59 315 69V421Q315 431 306 431ZM47 104V386Q47 448 76 472T171 497H271Q337 497 366 473T395 386V104Q395 43 366 18T271 -7H171Q106 -7 77 18T47 104ZM174
576H99V663H174V576ZM350 576H275V663H350V576Z" />
<glyph unicode="&#xf7;" horiz-adv-x="490" d="M436 264H55V325H436V264ZM285 73H205V172H285V73ZM285 416H205V515H285V416Z" />
<glyph unicode="&#xf8;" horiz-adv-x="442" d="M339 548H388L104 -57H55L339 548ZM306 431H136Q126 431 126 421V69Q126 59 136 59H306Q315 59 315 69V421Q315 431 306 431ZM47 104V386Q47 448 76 472T171 497H271Q337 497 366 473T395 386V104Q395 43 366 18T271
-7H171Q106 -7 77 18T47 104Z" />
<glyph unicode="&#xf9;" horiz-adv-x="446" d="M229 -7H160Q102 -7 76 15T49 95V490H128V67Q128 58 137 58H311L310 490H389V0H320L311 58L317 85Q317 38 297 16T229 -7ZM101 692L195 553H253L186 693L101 692Z" />
<glyph unicode="&#xfa;" horiz-adv-x="446" d="M229 -7H160Q102 -7 76 15T49 95V490H128V67Q128 58 137 58H311L310 490H389V0H320L311 58L317 85Q317 38 297 16T229 -7ZM182 553H242L329 692L244 693L182 553Z" />
<glyph unicode="&#xfb;" horiz-adv-x="446" d="M229 -7H160Q102 -7 76 15T49 95V490H128V67Q128 58 137 58H311L310 490H389V0H320L311 58L317 85Q317 38 297 16T229 -7ZM257 688L346 553H273L209 655H218L146 553H77L171 688H257Z" />
<glyph unicode="&#xfc;" horiz-adv-x="446" d="M229 -7H160Q102 -7 76 15T49 95V490H128V67Q128 58 137 58H311L310 490H389V0H320L311 58L317 85Q317 38 297 16T229 -7ZM167 576H92V663H167V576ZM343 576H268V663H343V576Z" />
<glyph unicode="&#xfd;" horiz-adv-x="444" d="M300 -131Q309 -131 309 -122V58L316 85Q316 38 296 16T228 -7H159Q102 -7 75 15T48 95V490H127V67Q127 58 137 58H309V490H387L388 -86Q388 -147 359 -172T264 -197H65V-131H300ZM182 553H242L329 692L244 693L182 553Z" />
<glyph unicode="&#xfe;" horiz-adv-x="444" d="M138 -190H58V675H137L138 432L132 405Q132 452 151 474T219 497H287Q346 497 372 475T398 395V103Q398 43 371 20T280 -3L138 -1V-190ZM138 423V53L128 64L310 62Q319 62 319 71V423Q319 432 310 432H147Q138 432 138 423Z" />
<glyph unicode="&#xff;" horiz-adv-x="444" d="M300 -131Q309 -131 309 -122V58L316 85Q316 38 296 16T228 -7H159Q102 -7 75 15T48 95V490H127V67Q127 58 137 58H309V490H387L388 -86Q388 -147 359 -172T264 -197H65V-131H300ZM167 576H92V663H167V576ZM343 576H268V663H343V576Z"
/>
<glyph unicode="&#x2013;" horiz-adv-x="422" d="M402 317V252H20V317H402Z" />
<glyph unicode="&#x2014;" horiz-adv-x="635" d="M636 317V252H-1V317H636Z" />
<glyph unicode="&#x2018;" horiz-adv-x="166" d="M129 592H94L100 587Q100 600 106 623T128 669L100 691Q75 666 62 636T48 577V492H129V592Z" />
<glyph unicode="&#x2019;" horiz-adv-x="145" d="M33 590H69L63 595Q63 581 57 558T34 511L62 489Q88 515 102 545T116 606V692H33V590Z" />
<glyph unicode="&#x201a;" horiz-adv-x="172" d="M43 2H79L73 7Q73 -7 67 -30T44 -77L72 -99Q98 -73 112 -43T126 18V104H43V2Z" />
<glyph unicode="&#x201c;" horiz-adv-x="291" d="M129 592H94L100 587Q100 600 106 623T128 669L100 691Q75 666 62 636T48 577V492H129V592ZM247 592H213L218 587Q218 600 224 623T247 669L219 691Q193 666 180 636T167 577V492H247V592Z" />
<glyph unicode="&#x201d;" horiz-adv-x="257" d="M140 590H176L170 595Q170 581 164 558T141 511L169 489Q195 515 209 545T223 606V692H140V590ZM40 590H76L70 595Q70 581 64 558T41 511L69 489Q95 515 109 545T123 606V692H40V590Z" />
<glyph unicode="&#x201e;" horiz-adv-x="288" d="M163 7H196L191 12Q191 -2 185 -24T163 -69L190 -90Q215 -65 228 -36T241 21V104H163V7ZM43 7H77L72 12Q72 -2 66 -24T44 -69L71 -90Q96 -65 109 -36T122 21V104H43V7Z" />
<glyph unicode="&#x2022;" horiz-adv-x="293" d="M78 250V315Q78 343 92 356T139 369H154Q186 369 201 356T216 315V250Q216 222 201 209T154 195H139Q107 195 93 208T78 250Z" />
<glyph unicode="&#x2039;" horiz-adv-x="248" d="M42 240Q36 248 36 253T42 267L151 425H224L123 263Q118 255 123 247L221 84H145L42 240Z" />
<glyph unicode="&#x203a;" horiz-adv-x="249" d="M207 269Q213 261 213 256T207 242L98 84H25L126 246Q131 254 126 262L28 425H104L207 269Z" />
</font>
</defs>
</svg>
