<?xml version="1.0" standalone="no"?>
<!DOCTYPE svg PUBLIC "-//W3C//DTD SVG 1.1//EN" "http://www.w3.org/Graphics/SVG/1.1/DTD/svg11.dtd">
<svg xmlns="http://www.w3.org/2000/svg">
<defs >
<font id="IngridDarling" horiz-adv-x="437" ><font-face
    font-family="Ingrid Darling"
    units-per-em="1000"
    panose-1="0 0 0 0 0 0 0 0 0 0"
    ascent="860"
    descent="-380"
    alphabetic="0" />
<glyph unicode=" " glyph-name="space" horiz-adv-x="159" />
<glyph unicode="!" glyph-name="exclam" horiz-adv-x="223" d="M233 613Q240 596 240 581Q240 562 230 536T198 456Q188 431 172 387T142 298Q139 288 134 261T123 206T115 164Q111 145 107 138T99 130Q95 130 93 135T92 148Q94 169 94 199T94 245Q94 270 104
296T115 352Q115 398 124 431T147 492T169 551T179 624Q179 633 192 633Q203 633 216 627T233 613ZM132 38Q137 30 137 22Q137 -2 115 -12Q107 -16 96 -16Q88 -16 81 -13T70 0Q68 6 68 8Q68 19 76 28T88 44Q91 54 102 54Q110 54 119 49T132 38Z" />
<glyph unicode="&quot;" glyph-name="quotedbl" horiz-adv-x="260" d="M85 367Q83 364 79 364T71 367Q62 373 62 387Q62 401 62 421T61 462Q61 491 63 517T72 560Q75 566 85 566Q99 566 108 559Q113 555 114 550T115 539Q111 511 107 471T97 401Q92 371 85 367ZM205
367Q203 364 199 364T191 367Q182 373 182 387Q182 401 182 421T181 462Q181 491 183 517T192 560Q195 566 205 566Q219 566 228 559Q233 555 234 550T235 539Q231 511 227 471T217 401Q212 371 205 367Z" />
<glyph unicode="#" glyph-name="numbersign" horiz-adv-x="603" d="M571 157Q540 146 517 137T453 127Q423 127 395 131T339 141Q337 130 335 119T331 96Q324 53 316 9T305 -80Q305 -87 300 -91T290 -95Q275 -95 275 -82Q275 -36 284 10T300 99Q302 111 304 123T308
147Q278 153 248 158T185 163H155Q144 119 144 77Q144 70 144 63T145 47Q145 40 140 36T130 32Q116 32 115 45Q114 54 114 62T113 79Q113 102 116 123T124 164Q105 164 88 164T59 163Q48 163 38 169T28 179Q28 183 36 183Q51 184 77 186T132 191Q143 226 157 259T183
327Q168 328 151 328T112 329Q99 329 83 329T49 328Q42 328 39 332T35 342Q35 357 50 358Q98 360 132 360T194 361Q199 381 203 402T208 447Q208 458 221 458Q229 458 236 453T243 439Q243 416 243 397T240 361Q263 361 288 361T346 360Q351 383 356 406T369 453Q370
461 380 461Q389 461 399 453T406 434Q401 415 396 397T386 360H407Q408 360 420 360T449 359T474 358Q497 358 511 359T548 361Q555 361 558 356T561 345Q561 337 556 329T543 321Q521 321 509 324T474 328Q461 328 435 322T383 316H375Q367 282 360 248T346 178Q372
174 399 172T455 169Q485 169 510 172T561 185Q563 186 567 186Q574 186 577 181T581 171Q581 161 571 157ZM337 316Q303 318 278 319T233 322Q232 318 230 314T226 305Q224 300 216 291T199 273T189 259Q182 243 176 227T164 193H185Q219 193 251 190T314 182Q319
216 324 249T337 316Z" />
<glyph unicode="$" glyph-name="dollar" horiz-adv-x="417" d="M366 547Q356 541 349 531T336 506Q357 493 357 470Q357 458 353 449Q347 434 335 416T304 398Q291 398 279 407T261 428Q258 436 258 443Q258 453 263 461T278 471H283Q294 471 299 464Q305 458
300 452T289 441T285 428Q290 416 300 416Q310 416 320 427T338 457Q340 461 340 465Q340 478 326 492Q325 492 325 492T323 491Q317 491 314 499L312 500Q303 504 289 504Q266 504 244 491T213 454Q207 438 207 425Q207 402 221 387T256 360T299 334T334 298T348
241Q348 208 332 163Q316 119 274 89T184 59Q180 59 175 59T164 61Q153 37 144 19T126 -17T106 -63Q102 -73 93 -73Q86 -73 81 -67T78 -52Q89 -24 97 -7T113 27T132 70Q98 84 87 108T75 153Q75 172 79 181Q84 194 100 209T137 235T174 247Q179 247 185 245Q192
244 201 228T211 195Q211 189 208 181Q204 168 189 160T160 151Q153 151 147 152T137 158Q134 166 134 169Q134 179 145 179Q154 179 165 174T176 169Q189 172 191 186T192 213Q191 224 181 224Q171 224 155 213T126 189T110 169Q104 153 104 139Q104 104 140 92Q142
91 149 91Q162 91 184 96T231 115T277 149T311 203Q322 234 322 255Q322 284 307 302T270 331T226 354T189 380T174 420Q174 435 182 457Q195 492 219 507T271 523Q292 523 316 515Q321 532 328 540T350 558Q357 562 363 562Q373 562 373 556Q373 551 366 547Z"
/>
<glyph unicode="%" glyph-name="percent" horiz-adv-x="477" d="M306 572Q306 551 297 517T273 453Q259 422 242 408T208 388T182 377Q178 376 174 375T164 373Q144 373 133 384Q129 388 121 392T105 406T98 439Q98 463 104 485Q86 506 86 531Q86 546 93 560Q112
596 141 616T196 644T233 652Q270 652 288 628T306 572ZM265 567Q265 590 250 605T211 620Q192 620 173 609T139 580T121 547Q120 541 120 536T119 526Q130 550 142 566T161 586Q166 590 174 590Q180 590 183 588T184 580Q179 572 164 559T137 513Q131 499 131
490T123 469Q122 467 122 460Q122 432 137 423T162 408Q168 406 172 406Q186 406 201 418T229 451Q238 467 246 489T259 532T265 567ZM500 561Q487 534 462 511T407 463T344 404T283 325Q269 303 245 273T193 210T141 147T104 94Q91 72 77 44T49 -11Q45 -20 33
-20Q25 -20 18 -15T15 0Q31 35 54 74T104 151T154 219Q184 257 214 300T273 381Q319 441 366 494T466 600Q469 603 474 603Q484 603 493 592T502 569Q502 565 500 561ZM447 179Q447 158 438 124T414 60Q400 29 383 15T349 -5T323 -16Q319 -17 315 -18T305 -20Q285
-20 274 -9Q270 -5 262 -1T246 13T239 46Q239 70 245 92Q227 113 227 138Q227 153 234 167Q253 203 282 223T337 251T374 259Q411 259 429 235T447 179ZM406 174Q406 197 391 212T353 227Q334 227 315 216T281 187T262 154Q261 148 261 143T260 133Q271 157 283
173T302 193Q307 197 315 197Q321 197 324 195T325 187Q320 179 305 166T278 120Q272 106 272 97T264 76Q263 74 263 67Q263 39 278 30T303 15Q309 13 313 13Q327 13 342 25T370 58Q379 74 387 96T400 139T406 174Z" />
<glyph unicode="&amp;" glyph-name="ampersand" horiz-adv-x="695" d="M665 51Q672 55 679 51T687 39Q687 32 679 24T649 10Q628 4 606 4Q586 4 565 9T521 21Q484 -4 445 -18T374 -33Q313 -33 266 -30T177 -10T92 49Q71 69 59 107T47 176Q47 248 72 301T137 398Q128
425 128 451Q128 484 147 514T197 570T263 614T332 639Q347 643 365 643Q397 643 419 630T441 594Q441 576 425 557Q403 531 366 511T290 473T222 433Q214 427 207 421T193 409Q206 349 239 296Q268 336 312 360T403 385Q463 385 513 360T594 287T625 177Q625 139
603 104T546 40Q570 31 596 31Q631 31 665 51ZM392 594Q385 598 373 598Q352 598 321 586T260 554T209 507T189 452V445Q212 463 236 479T286 512Q296 518 318 533T363 565T392 594ZM487 35Q454 51 423 72T365 116Q333 145 315 167T270 212Q255 224 242 238Q233
216 233 191Q233 170 240 147T259 108T288 92Q296 92 300 89T304 81Q304 72 290 72Q260 72 241 93T213 142T203 191Q203 228 219 263Q200 285 183 310T152 361Q131 327 126 287T120 193V159Q120 135 124 114T144 77Q188 33 246 15T374 -3Q399 -3 429 7T487 35ZM595
177Q595 230 569 270T500 332T403 355Q361 355 321 332T257 270Q272 249 290 234Q316 212 343 192T403 142Q430 119 458 95T516 54Q549 80 572 112T595 177Z" />
<glyph unicode="&apos;" glyph-name="quotesingle" horiz-adv-x="140" d="M85 367Q83 364 79 364T71 367Q62 373 62 387Q62 401 62 421T61 462Q61 491 63 517T72 560Q75 566 85 566Q99 566 108 559Q113 555 114 550T115 539Q111 511 107 471T97 401Q92 371 85 367Z" />
<glyph unicode="(" glyph-name="parenleft" horiz-adv-x="333" d="M341 657Q355 657 364 654T373 645Q373 640 361 632T321 616Q272 601 235 560T174 463T138 343T126 219Q126 142 145 83T203 8Q223 0 231 -7T239 -19Q239 -27 224 -27Q213 -27 198 -21Q169 -10
149 14T114 69Q96 109 86 165T75 283Q75 338 84 393T116 496Q124 514 141 536T178 578T214 609Q243 629 276 643T341 657Z" />
<glyph unicode=")" glyph-name="parenright" horiz-adv-x="335" d="M184 656Q227 641 253 605T292 518T305 411Q305 341 288 268T238 133T161 29T61 -21Q57 -22 53 -22T46 -22Q30 -22 30 -15Q30 -10 41 -2T70 11Q119 25 153 59T210 142T242 247T253 359Q253 421
242 475T209 568T158 619Q130 630 130 643Q130 651 138 655T160 659Q165 659 171 658T184 655V656Z" />
<glyph unicode="*" glyph-name="asterisk" horiz-adv-x="479" d="M216 474Q216 492 226 509L169 575Q166 580 166 584Q166 595 178 595Q184 595 188 591L247 532Q263 541 276 542Q278 565 280 579T284 608T286 642Q286 649 290 652T299 655Q312 655 312 642Q312
622 312 608T312 578T309 539Q319 535 329 528Q350 552 370 566T419 597Q423 599 425 599Q430 599 434 595T438 586Q438 579 431 575Q403 560 385 544T347 504Q350 497 352 490T354 475Q389 470 422 463T489 449Q499 446 499 437Q499 432 495 428T484 424Q452 431
417 436T348 445Q344 438 340 433T330 422L354 328V324Q354 312 342 312Q333 312 329 322L301 407Q297 406 294 406T285 405Q283 405 280 405T275 406V405Q255 384 233 366T194 322Q190 316 184 316Q177 316 173 322T173 336Q189 359 209 377T249 415Q242 419 237
424T227 436Q192 423 163 420T94 407H91Q78 407 78 419Q78 428 88 431Q126 440 154 446T217 466Q216 468 216 474Z" />
<glyph unicode="+" glyph-name="plus" horiz-adv-x="404" d="M363 176Q363 168 354 164Q346 161 330 158T297 153T271 151Q264 151 258 151T244 152Q243 124 235 90T205 35Q203 33 200 31T193 28Q188 28 186 33T183 42Q183 51 189 55Q200 66 204 84T208 121T209
155V159Q191 163 174 165T137 167Q111 167 92 156T68 144Q63 144 59 148T55 158Q55 164 61 168Q75 181 98 191T141 202Q158 202 175 201T209 195Q209 220 210 245T211 296Q211 309 224 309Q237 309 237 296Q237 269 239 242T243 187Q254 185 266 185T289 184Q303
184 317 184T345 189H350Q363 189 363 176Z" />
<glyph unicode="," glyph-name="comma" horiz-adv-x="173" d="M116 18Q113 -5 113 -27T105 -71Q97 -91 79 -107T43 -138T13 -171Q12 -174 5 -174Q0 -174 -4 -172T-6 -165Q5 -148 22 -131T56 -94T81 -55Q86 -42 88 -31T92 -7H85Q60 -7 52 2T43 36Q43 57 52 63T74
75Q82 81 87 81Q97 81 103 75T109 68L116 18Z" />
<glyph unicode="-" glyph-name="hyphen" horiz-adv-x="326" d="M269 178Q278 175 278 168Q278 162 273 157T259 152Q246 152 222 152T173 153T136 155Q132 156 123 156Q116 156 109 156T94 155Q81 155 73 158Q60 165 60 173Q60 180 71 180Q81 180 98 182T128 185H222Q241
185 252 183T269 178Z" />
<glyph unicode="." glyph-name="period" horiz-adv-x="173" d="M112 38Q117 30 117 22Q117 -2 95 -12Q87 -16 76 -16Q68 -16 61 -13T50 0Q48 6 48 8Q48 19 56 28T68 44Q71 54 82 54Q90 54 99 49T112 38Z" />
<glyph unicode="/" glyph-name="slash" horiz-adv-x="534" d="M532 573Q532 572 530 568Q512 549 480 513T407 427T323 324T239 214T165 109T113 21T93 -39Q93 -46 97 -55T102 -73Q102 -81 97 -81Q84 -81 76 -66T67 -39Q67 -16 85 24T134 117T203 227T283 340T364
447T435 533T486 587Q488 589 491 589T498 590Q504 590 518 586T532 573Z" />
<glyph unicode="0" glyph-name="zero" horiz-adv-x="458" d="M418 230Q418 211 418 198T413 166Q409 144 398 114T369 54T326 4T269 -16Q236 -16 200 -7T133 21T81 72Q61 104 53 145T45 223Q45 256 56 296T87 376T135 447T197 493Q210 498 237 503T292 508Q316
508 333 503T351 483Q351 473 341 459Q338 455 331 451T320 446Q317 446 317 449Q317 451 319 456T327 469Q331 475 325 485T292 495Q278 495 257 490T205 473Q175 461 152 433T112 369T87 294T78 224Q78 192 79 152T99 84Q125 43 173 24T269 4Q294 4 313 23T345
73T368 134T381 189Q384 206 385 219T386 249Q386 325 354 369T251 414Q231 414 217 398T195 358T182 309T178 264Q178 239 193 216T233 192Q266 192 287 211T308 261Q308 278 297 291T268 304Q261 304 254 300T247 291V288Q247 280 243 280Q236 280 236 295Q236
307 244 315T268 324Q295 324 311 305T328 261Q328 221 301 197T233 172Q210 172 186 188T145 227T128 272Q128 290 136 317T161 371T200 416T251 434Q307 434 344 405T399 330T418 230Z" />
<glyph unicode="1" glyph-name="one" horiz-adv-x="261" d="M286 528Q274 504 260 480T228 421T185 333Q161 281 142 227T112 124T102 43Q118 50 134 54T170 58Q193 58 208 57T247 52Q252 51 255 44T259 28Q259 13 251 14Q229 16 214 18T176 20Q157 20 141 17T107
9Q106 4 100 2T90 4Q68 -3 47 -12T3 -31Q2 -32 -1 -32Q-5 -32 -8 -29T-11 -21Q-11 -14 -4 -11Q19 -2 39 10T81 33Q80 41 80 49T79 66Q79 116 95 181T143 313Q158 346 165 367T176 403T190 434Q177 423 165 417T136 401T89 366Q82 360 77 360Q71 360 71 368Q71 379
79 384Q120 407 168 447T269 540Q273 544 278 544Q283 544 286 540T286 528Z" />
<glyph unicode="2" glyph-name="two" horiz-adv-x="524" d="M525 37Q525 -11 500 -41T434 -85T349 -100Q288 -100 238 -76T137 -22Q129 -17 116 -9T89 6Q71 -1 52 -7T12 -21Q10 -22 7 -22Q-4 -22 -1 -8Q2 2 11 14T31 35T54 45Q64 45 73 42T91 34Q120 48 146 65T200
104Q232 130 265 155T327 210T374 275T392 360Q392 400 373 430T323 478T252 496Q227 496 199 485T145 454T105 411T89 364Q89 339 106 312T148 267T199 249Q223 249 252 264T302 304T324 357Q324 392 299 416T238 440Q208 440 182 418T155 364Q155 358 162 347T180
328T200 319Q212 319 228 319T257 326T270 348Q270 360 259 368T239 384Q236 387 236 392Q236 398 241 401T253 400Q266 389 278 379T291 348Q291 324 272 311T228 292T184 286Q168 286 157 300T140 332T134 364Q134 393 150 414T190 448T238 461Q267 461 293 447T336
409T353 355Q353 328 337 305T297 265T246 238T199 228Q168 228 135 246T79 294T56 353Q56 382 76 411T126 464T191 502T252 517Q284 517 317 505T380 472T428 421T446 355Q446 303 425 264T369 193T295 135T222 79Q172 39 117 17Q125 11 132 6T147 -4Q195 -32
243 -46T349 -60Q392 -60 427 -52T483 -23T504 37Q504 63 491 82T457 102Q441 102 435 92T428 69T424 44Q423 36 416 36Q407 36 404 48Q400 61 400 75Q400 123 457 123Q480 123 495 110T517 77T525 37Z" />
<glyph unicode="3" glyph-name="three" horiz-adv-x="497" d="M473 161Q473 111 448 71T384 4T300 -38T218 -53Q171 -53 127 -41T54 2T25 86Q25 124 41 156T86 207T154 226Q190 226 215 207T255 159T269 98Q269 70 248 51T206 32Q186 32 173 52T160 95Q160 105
163 114T174 128Q183 134 185 134Q190 134 184 119T177 87Q177 75 183 66T206 52Q218 49 233 64T248 98Q248 125 236 150T203 190T154 206Q108 206 84 171T59 82Q59 38 80 13T137 -22T218 -32Q268 -32 313 -7T388 63T418 165Q418 224 392 257T318 301Q289 294 253
294Q250 294 239 295T218 300T208 310Q208 314 214 318Q224 326 240 328T268 330Q291 330 313 327Q353 344 379 374T405 435Q405 461 380 480T293 500Q277 500 250 494T195 475T148 447T129 409Q129 402 151 402Q165 402 181 404T203 407H204Q213 407 213 402Q213
396 202 394Q185 393 168 389T134 384Q108 384 108 409Q108 436 128 457T179 492T241 513T293 520Q314 520 342 517T395 503T438 475T455 427Q455 405 444 393T421 365Q393 333 358 316Q407 299 440 261T473 161Z" />
<glyph unicode="4" glyph-name="four" horiz-adv-x="479" d="M476 312Q482 291 482 275Q482 236 454 217T378 198Q365 198 353 198T330 197Q329 190 329 184T329 172Q329 144 327 114T324 54Q324 38 325 24T330 -5Q330 -6 330 -6T331 -9Q331 -19 320 -19Q313 -19
310 -11Q303 17 300 52T295 122T294 186V194Q252 190 218 186T137 182Q124 182 109 182T76 184Q71 184 62 192T45 212T32 232T33 242Q66 252 96 284T153 358T201 443T239 513Q242 518 248 518Q253 518 257 514T257 503Q233 460 207 410T149 314T75 240Q137 235
187 229T295 220Q300 276 313 330T342 439Q344 445 354 448T375 452Q392 452 389 444Q376 393 358 334T332 219Q343 219 354 219T378 218Q425 218 443 233T461 274Q461 286 456 306Q456 307 456 307T455 309Q455 314 458 316T466 319Q473 319 476 312Z" />
<glyph unicode="5" glyph-name="five" horiz-adv-x="519" d="M514 476Q514 456 499 445T463 430T427 426H426L158 462Q134 462 122 458Q124 443 125 431T126 404Q126 383 121 364T107 327Q149 347 191 358T287 370Q340 370 383 350T452 291T478 198Q478 132 445
84T358 5T244 -42T127 -58Q108 -58 82 -51T35 -27T15 12Q15 45 33 71T79 117T139 147T199 158Q225 158 248 149T271 112Q271 86 258 75T226 58T188 43Q182 40 176 40Q169 40 162 42T146 46Q137 46 137 55Q137 60 140 63T148 66L181 63Q196 70 206 74T223 87T229
116Q229 131 226 134T199 138Q165 138 132 124T76 83T54 20Q54 -2 78 -20T127 -38Q182 -38 233 -22T326 25T391 101T415 204Q415 275 388 312T287 350Q229 350 184 335T88 295Q83 292 71 294T50 303T44 314Q57 340 66 359T75 409Q75 425 74 438T71 468Q70 478 89
480T127 483Q139 483 148 483T159 482H161L428 446Q436 447 451 449T480 457T493 476Q493 504 485 518T451 536Q444 537 437 543T428 556T432 562Q465 558 489 536T514 476Z" />
<glyph unicode="6" glyph-name="six" horiz-adv-x="469" d="M446 476Q433 472 411 459T354 435Q326 421 299 404T245 364Q203 330 172 294T123 211T105 100Q105 61 124 30T175 -18T245 -36Q270 -36 298 -25T352 6T393 49T409 96Q409 122 392 147T349 189T298 206Q275
206 253 193T218 158T204 107Q204 73 214 47T259 20Q289 20 316 42T343 96Q343 99 348 104T357 109Q364 109 364 96Q364 68 348 46T308 12T259 -1Q231 -1 207 13T168 52T153 106Q153 133 168 155T206 195T253 222T298 232Q329 232 362 214T418 167T441 107Q441
78 421 49T371 -4T306 -42T245 -57Q214 -57 180 -45T117 -12T70 39T51 105Q51 175 75 225T138 314T223 390Q248 410 274 425T328 452Q340 457 359 464T399 478T432 489Q433 490 436 490Q443 490 447 484T446 476Z" />
<glyph unicode="7" glyph-name="seven" horiz-adv-x="371" d="M394 490Q361 453 325 408T255 297Q262 298 268 298T281 298Q313 298 334 289Q343 285 330 283T306 281Q292 283 277 280T244 272Q243 268 242 265T238 258Q217 213 203 168T182 78Q179 56 179 38Q179
-19 206 -25Q215 -26 215 -35Q215 -39 212 -42T202 -45Q174 -39 163 -11T151 57Q151 93 157 132T173 205T190 260Q171 250 155 237T130 209Q127 203 121 208T112 223T111 238Q122 255 146 268T202 288Q229 344 253 380T306 451Q284 442 251 432T182 413T112 405Q80
405 53 416Q39 422 33 434T26 459Q26 475 34 489T55 511Q68 517 81 521T104 526Q118 526 125 518Q131 512 120 511T93 507T72 499Q57 481 57 469Q57 453 76 447T120 441Q141 441 157 444Q197 450 238 458T317 478T381 506Q384 508 388 508Q398 508 398 499Q398
494 394 490Z" />
<glyph unicode="8" glyph-name="eight" horiz-adv-x="445" d="M408 395Q408 360 390 336T345 300T286 287Q273 287 259 290T232 300Q228 296 220 285T208 269Q250 248 294 230T362 192Q373 183 377 172T381 147Q381 124 371 98T349 49Q325 1 284 -21T199 -43Q163
-43 131 -29T79 13T58 77Q58 118 73 151T110 211T153 258Q130 272 112 287T84 322Q80 332 78 342T76 361Q76 401 104 432T176 481T263 500Q279 500 294 497Q327 491 359 470Q366 479 371 486T381 501Q384 506 390 506Q395 506 399 502T399 491Q390 476 375 458Q390
445 399 429T408 395ZM342 451Q320 470 290 476Q275 479 260 479Q222 479 189 464T136 424T115 369Q115 352 122 337Q129 322 144 309T181 283Q184 285 190 292T202 307T210 316Q206 325 204 328T200 337T199 364Q199 382 210 391T236 406T264 418Q268 420 270
420Q274 420 274 416Q274 410 265 404Q252 398 236 384T220 353Q220 347 222 343T227 333Q258 365 285 391T342 451ZM377 385Q377 409 356 436Q328 402 302 376T246 316Q254 312 264 310T286 307Q326 307 351 325T377 385ZM331 59Q344 84 344 111Q344 129 338 145T318
172Q296 191 259 207T185 241Q151 195 125 150T98 73Q98 28 130 3T205 -23Q240 -23 274 -4T331 59Z" />
<glyph unicode="9" glyph-name="nine" horiz-adv-x="404" d="M447 480Q445 457 423 439T369 405T301 376Q282 369 259 360T216 351Q206 351 198 354T181 364Q173 372 173 383Q173 399 186 414T203 436Q214 449 228 454T252 459T257 455Q241 442 232 425T220 396T218
384Q225 383 231 383T244 382Q283 382 315 400T366 443T385 488Q385 501 376 509T344 518Q324 518 292 509T215 478Q198 470 174 454T127 415T90 368T79 320Q84 288 108 275T161 261Q186 261 208 269Q260 289 295 316T364 382Q367 385 369 387T373 391Q377 395
382 395Q388 395 391 390T390 378Q390 378 377 357T343 300T299 219Q264 148 245 83T226 -20Q226 -39 230 -47Q234 -56 244 -56Q254 -56 264 -48T277 -32Q280 -25 286 -25Q291 -25 294 -28T296 -38Q292 -54 274 -65T235 -76Q224 -76 214 -72T195 -58Q179 -38 179
-4Q179 31 193 72T227 154T268 231T301 288Q277 272 235 258T151 243Q113 243 84 259T50 317Q46 346 61 376T101 433T152 481T195 510Q224 524 257 530T321 537Q374 537 411 522T447 480Z" />
<glyph unicode=":" glyph-name="colon" horiz-adv-x="183" d="M145 208Q150 202 150 192Q150 168 128 158Q124 157 120 156T111 154Q92 154 83 171Q77 184 87 195T101 215Q105 225 115 225Q123 225 132 220T145 208ZM92 38Q97 30 97 22Q97 -2 75 -12Q67 -16 56
-16Q48 -16 41 -13T30 0Q28 6 28 8Q28 19 36 28T48 44Q51 54 62 54Q70 54 79 49T92 38Z" />
<glyph unicode=";" glyph-name="semicolon" horiz-adv-x="183" d="M135 208Q140 202 140 192Q140 168 118 158Q114 157 110 156T101 154Q82 154 73 171Q67 184 77 195T91 215Q95 225 105 225Q113 225 122 220T135 208ZM131 18Q128 -5 128 -27T120 -71Q112 -91
94 -107T58 -138T28 -171Q27 -174 20 -174Q15 -174 11 -172T9 -165Q20 -148 37 -131T71 -94T96 -55Q101 -42 103 -31T107 -7H100Q75 -7 67 2T58 36Q58 57 67 63T89 75Q97 81 102 81Q112 81 118 75T124 68L131 18Z" />
<glyph unicode="&lt;" glyph-name="less" horiz-adv-x="209" d="M136 291Q142 294 154 289T166 277Q166 274 158 266T148 255Q137 240 113 212T65 164Q82 134 99 112T139 66Q142 63 153 57T164 42Q164 37 152 31Q151 30 144 30T134 30Q130 30 126 32Q118 37 102
53T69 92T40 133T27 164Q27 172 32 176Q58 202 76 223T121 275Q123 276 128 283T136 291Z" />
<glyph unicode="=" glyph-name="equal" horiz-adv-x="404" d="M340 208Q352 205 352 198Q352 192 345 187T327 182Q315 182 293 182T247 182T201 183T167 185Q163 186 159 186T150 186Q142 186 132 186T112 185Q96 185 85 188Q68 195 68 203Q68 210 82 210Q95
210 117 212T157 215H279Q304 215 318 213T340 208ZM330 92Q342 89 342 82Q342 76 335 71T317 66Q305 66 283 66T237 66T191 67T157 69Q153 70 149 70T140 70Q132 70 122 70T102 69Q86 69 75 72Q58 79 58 87Q58 94 72 94Q85 94 107 96T147 99H269Q294 99 308 97T330
92Z" />
<glyph unicode="&gt;" glyph-name="greater" horiz-adv-x="209" d="M50 31Q44 28 32 33T20 45Q20 48 28 56T38 67Q49 82 74 110T121 158Q104 188 87 211T47 256Q44 259 33 266T22 280Q22 285 34 291Q35 292 43 292T52 292Q56 292 60 290Q68 285 84 269T117 230T146
189T159 158Q159 150 154 146Q128 121 110 99T65 47Q64 46 58 39T50 31Z" />
<glyph unicode="?" glyph-name="question" horiz-adv-x="424" d="M453 507Q453 470 434 433T386 369T324 338Q300 334 272 330T218 316T177 290T160 248Q160 234 171 221T197 208Q205 208 205 221Q205 224 205 228T206 235Q207 245 219 245Q224 245 229 241T232
229Q228 213 222 198T197 182Q172 182 153 203T133 248Q133 280 150 307T195 356T255 392T316 411Q355 417 368 441T382 512Q382 641 264 638Q231 632 196 621T131 591T83 546T64 485Q64 457 72 440T112 422Q143 422 161 429T182 465Q183 474 190 483T203 495T208
489Q203 449 180 422T112 395Q66 395 43 413T19 472Q19 512 38 544T89 602T158 644T233 667L327 656Q390 649 421 616T453 507ZM171 53Q176 45 176 37Q176 27 171 18T155 4Q147 0 135 0Q127 0 120 3T109 16Q108 18 108 20T107 24Q107 35 115 44T127 60Q130 70 141
70Q149 70 158 65T171 53Z" />
<glyph unicode="@" glyph-name="at" horiz-adv-x="544" d="M498 140Q498 102 488 69T454 16T384 -4Q359 -4 338 6T307 41Q292 23 266 4T214 -15Q192 -15 179 -2T159 31T153 69Q153 120 183 158T268 197Q303 197 329 182T356 127Q356 114 343 114Q330 114 330 127Q330
155 311 163T268 171Q228 171 212 143T196 79Q196 75 198 59T204 27T214 11Q233 11 250 26T283 61T309 96T328 111Q334 111 336 96T342 60T353 25T377 9Q415 9 431 30T451 82T455 141Q455 180 437 207T390 251T326 277T259 285Q200 285 160 258T100 186T80 85Q80
59 86 28T107 -31T144 -77T199 -95Q207 -95 224 -86T259 -68T286 -59Q290 -59 290 -63Q290 -66 289 -69T285 -75Q270 -96 239 -107T182 -119Q144 -119 117 -96T73 -37T48 37T40 106Q40 143 60 179T113 245T184 293T259 311Q297 311 338 301T416 271T475 218T498
140Z" />
<glyph unicode="A" glyph-name="A" horiz-adv-x="778" d="M840 -11Q840 -29 832 -50T811 -85T778 -100Q756 -100 740 -80T712 -35T695 9Q685 41 680 85T670 173T653 251L652 328Q633 326 615 323T584 318Q553 313 525 306T469 291Q451 245 435 199T385 104Q363
71 328 42T249 -5T153 -23Q98 -23 64 3T13 74T-3 176Q-3 188 1 205T11 237T22 258Q32 273 48 293T82 329T120 352Q132 356 149 364T189 372Q214 372 236 358Q283 329 309 287T336 192Q336 144 312 126T243 103Q233 102 227 109T221 123Q221 131 225 136T240 143Q265
145 286 153T307 189Q307 231 285 275T225 343Q210 352 195 352Q176 352 160 344T135 333Q113 327 94 300T63 241T51 182Q51 115 82 73T169 25Q176 24 182 24T196 23Q252 23 295 48T364 112Q394 156 408 198T438 282Q422 278 406 274T373 265Q362 263 356 269T349
285Q349 301 365 305Q388 310 410 314T454 323Q456 328 458 332T462 340Q475 366 479 394T490 449T513 498Q518 505 526 519T542 549T555 571Q564 586 569 603T586 632T620 644Q641 644 653 622T673 569T685 508T695 463L696 389L703 367V361Q719 363 725 364Q741
367 741 359Q741 354 734 347T715 338Q711 337 703 335L704 293Q712 269 713 231T714 153Q714 113 715 76T724 15Q729 2 734 -18T748 -55T772 -71Q790 -71 800 -59T811 -29Q811 -15 818 -7T832 2Q840 2 840 -11ZM651 358L643 382L640 463Q635 489 629 514T616 556T598
573Q590 573 580 560Q575 553 568 538T555 509T543 487Q527 466 520 440T507 387T488 335L485 329Q508 333 531 337T578 345Q591 347 610 349T651 355V358Z" />
<glyph unicode="B" glyph-name="B" horiz-adv-x="487" d="M520 495Q514 452 497 422T460 370T420 327Q427 318 435 301T444 248Q444 238 443 227T440 202Q438 189 429 163T401 105T354 44T285 -4T189 -23Q154 -23 139 -10T113 16Q110 18 108 21T103 27Q92 11 77
-2T42 -15Q24 -15 14 0T4 33Q4 54 14 73T36 98Q41 101 46 102T56 103Q68 103 78 96Q91 85 100 73Q110 102 120 136T137 197T147 235Q143 243 134 254T125 287Q125 291 125 295T127 305Q136 345 156 359T192 384Q199 423 204 445T213 481T223 510T238 552Q243 555
247 558T255 561Q261 561 258 549Q253 527 248 485T235 398Q240 399 247 399T261 400Q290 400 327 391T393 358Q419 388 438 418T467 504Q468 509 468 513T469 522Q469 558 447 582T394 618T338 631Q331 631 312 630T267 621T215 598T169 551Q162 539 154 528T144
495Q144 489 148 487T158 485Q175 489 185 504Q187 510 187 511Q187 516 186 520T183 529V530Q183 535 186 539T195 544Q201 544 207 536Q209 532 209 525Q209 514 206 501T196 482Q185 473 173 467T149 461Q138 461 129 467Q120 473 120 488Q120 500 125 514T133
538Q141 564 172 591T248 637T344 656Q396 656 435 635T498 580T521 510Q521 506 521 503T520 495ZM368 338Q346 352 329 364T281 376Q260 376 227 367Q220 333 213 308T198 253Q198 253 202 253T214 252Q225 252 241 254T272 263Q315 281 332 299T368 338ZM184
349Q176 345 166 334T148 305Q144 296 149 285T162 263Q170 293 175 313T184 349ZM388 195Q391 206 393 219T395 246Q395 260 393 273T384 295Q359 272 331 257T278 235Q243 226 221 225T188 224Q177 193 171 176T161 145T149 112Q148 108 139 92T116 51Q130 32
147 19T198 5Q246 5 283 32T348 102T388 195ZM87 45Q77 56 68 63T52 70Q46 70 43 65Q39 61 34 48T29 22Q29 3 42 3Q53 3 60 11T78 29Q78 29 81 34T87 45Z" />
<glyph unicode="C" glyph-name="C" horiz-adv-x="632" d="M625 58Q613 46 589 25T538 -16T493 -40Q472 -46 455 -53T418 -65T368 -71Q326 -71 278 -57T188 -22T120 18Q68 57 41 123T13 280Q13 305 18 334T30 390T44 433Q65 481 95 527T175 604Q201 621 241 639T346
658Q355 658 365 658T385 656Q440 650 482 622T549 563Q560 549 568 526T576 477Q576 465 575 453T568 429Q556 392 536 360T485 309T413 289Q376 289 356 294T323 310T293 342Q279 359 274 380T269 421T269 448Q269 472 289 496T338 538T389 555Q409 555 421 540T438
505T444 475Q444 460 440 441T413 405Q409 401 405 401Q398 401 398 411Q398 416 401 423T411 435Q419 441 421 449T423 464Q423 470 423 475T422 485Q422 493 413 507T389 522Q374 522 354 511T318 482T303 448Q303 438 315 417T344 376Q357 361 362 352T378 340T418
336Q468 336 494 366T536 440Q542 460 542 478Q542 498 537 515T523 542Q503 569 476 582T402 600Q393 601 385 601T368 602Q308 602 273 584T211 551Q166 524 139 482T92 396Q86 382 80 357T69 305T65 256Q65 176 79 128T140 45Q165 27 204 8T286 -24T368 -38Q409
-38 432 -28T483 -8Q500 -3 526 12T576 44T612 71Q619 78 626 78Q632 78 632 72Q632 65 625 58Z" />
<glyph unicode="D" glyph-name="D" horiz-adv-x="712" d="M703 273Q704 265 704 257T704 240Q704 197 696 156T671 88Q664 78 653 58T631 29Q595 -1 545 -17T441 -41T344 -48Q298 -48 259 -30T181 10Q161 -9 137 -21T84 -33Q56 -33 30 -30T-14 -12T-31 31Q-31
47 -12 61T32 83Q40 85 49 86T70 88Q78 88 86 87T104 83Q122 78 139 70T174 51Q194 71 209 98T237 155Q199 166 165 192T110 253T88 327Q88 376 111 425T172 515T259 580T358 605Q436 605 501 580T614 502T684 369Q688 356 694 331T703 273ZM642 243Q643 257 643
270T644 297Q644 322 641 343T629 378Q621 391 617 404T607 433T585 469Q563 498 536 515T485 551Q463 570 435 577T367 585Q323 585 283 562T211 499T161 415T142 325Q142 295 151 261T185 204Q197 193 212 186T244 175Q252 198 258 220T269 263Q278 296 298 341T345
424Q341 425 337 425T329 426Q316 426 303 422T276 412Q264 406 257 391T244 361T231 347Q228 347 223 352Q216 360 216 372Q216 381 220 390T231 409Q242 426 257 432T291 443Q306 446 323 446Q341 446 359 443Q376 463 394 476T428 489Q448 489 462 472Q468 466
468 458Q468 451 462 451Q457 451 451 458Q440 469 428 469Q417 469 405 460T382 436Q405 428 413 418Q435 393 446 367T458 311Q458 287 449 258Q414 148 278 148Q275 148 272 148T266 149Q254 118 239 89T203 34Q235 15 269 0T344 -15Q415 -15 476 14T587 85Q616
109 628 151T642 243ZM418 265Q424 285 424 303Q424 332 413 358T385 400Q376 409 367 415Q345 378 328 332T302 255Q297 236 290 214T274 169Q279 169 284 169T293 168Q349 168 377 195T418 265ZM144 30Q120 42 93 51Q72 57 61 57Q49 57 47 51T44 35Q44 21 46
16T54 11Q60 11 70 14T95 18Q109 18 121 21T144 30Z" />
<glyph unicode="E" glyph-name="E" horiz-adv-x="588" d="M583 245Q583 178 563 134T509 53Q500 43 482 30T446 4T416 -18Q379 -48 326 -63T211 -78Q164 -78 121 -72T50 -44T22 25Q22 67 39 115T84 211T141 297T196 361Q179 376 170 395T160 438Q160 481 181 519T236
587T311 634T395 651Q431 651 466 644T524 616T548 560Q548 527 544 509T526 483T480 476Q449 476 423 489T392 516Q391 520 391 525T390 538Q390 557 395 576T412 596Q427 596 427 582Q427 573 424 561T420 537Q420 524 428 516T464 507Q493 507 504 518T515 560Q515
587 496 599T450 614T395 618Q359 618 324 604T259 565T211 508T193 438Q193 407 218 380Q236 395 261 411T313 439T365 451Q382 451 395 438T409 408Q409 394 390 375T341 341T281 326Q277 326 273 326T263 328Q242 332 223 342Q193 315 162 272T109 177T87 72Q87
17 121 -14T211 -45Q266 -45 316 -21T400 29Q417 42 433 56T463 85Q483 107 502 128T535 177T549 245Q549 258 539 267T518 276Q481 276 456 267T412 229Q408 224 405 219T402 205Q402 195 412 192T420 178V170Q420 166 418 163T405 158Q392 157 375 174T358 213Q358
229 366 239T385 263Q413 295 444 302T518 309Q544 309 563 290T583 245ZM331 407Q301 407 281 393T243 361Q254 356 265 356Q280 356 301 361T339 374T356 395Q356 399 346 403T331 407Z" />
<glyph unicode="F" glyph-name="F" horiz-adv-x="448" d="M792 584Q778 541 738 518T638 495Q591 495 539 503T435 525Q424 497 419 467T407 400Q408 400 416 399T433 397T442 396Q462 393 482 393Q495 393 505 395Q511 396 521 403T532 412V432Q532 443 536 443Q539
443 545 438Q553 433 554 427T556 409Q556 395 541 386T503 373T461 369Q454 369 447 369T435 371L403 372Q403 370 403 368T402 363Q390 297 373 229T325 105T247 20Q226 8 208 -5T167 -27T109 -36Q64 -36 42 -20T12 27T4 98Q4 105 7 124T15 162T24 188Q31 204
48 228T89 276T136 316T180 332Q188 332 198 320T217 291T225 264Q225 260 222 246T208 214T178 183Q174 182 171 182T163 182Q135 182 135 193Q135 202 153 209Q171 217 180 218T193 226T196 260Q196 265 194 275T188 294T180 303Q163 303 147 288T116 251T91
208T75 172Q73 166 68 153T59 126T55 105Q55 92 55 79T54 54Q54 27 63 10T109 -7Q140 -7 160 4T196 32T227 65Q288 127 323 204T373 373V375H367Q364 374 362 374T356 373Q351 373 345 373T333 374Q326 374 318 372T298 363Q297 362 291 354T285 344V337Q285 325
292 318Q298 312 298 305Q298 298 293 293T280 288Q273 288 268 293Q258 304 252 317T245 348Q245 359 254 367T268 378Q294 396 320 396T378 402Q385 440 393 471T415 529Q365 543 318 558T233 584Q212 591 198 597T153 604Q131 604 110 599T88 572Q88 566 88
558T87 542Q87 523 92 504T113 471T163 455Q177 454 185 461T200 475Q204 485 215 485Q225 485 225 471Q225 468 225 465T223 458Q213 446 200 436T163 425Q146 425 125 431T83 455T52 504T43 585Q45 605 58 623T92 652T133 664Q149 664 173 659T222 647T269 632T303
622Q335 612 368 598T436 568Q439 574 445 582Q456 597 467 597Q472 597 472 592Q472 583 458 568Q456 565 453 562Q498 544 546 531T647 518Q743 518 767 585Q768 611 778 611Q783 611 787 603T792 584Z" />
<glyph unicode="G" glyph-name="G" horiz-adv-x="607" d="M607 496Q607 469 595 438T563 379T518 334T467 316Q446 316 420 328T374 360T355 400Q355 452 369 493T420 551Q430 556 436 550T443 536Q443 526 433 522Q407 509 398 475T388 400Q388 386 401 374T434
356T467 349Q494 349 514 371T546 425T558 485Q558 607 438 607Q412 607 390 597T347 575T305 552Q291 539 272 518T232 473T195 425T169 383Q158 361 146 340T125 295T116 235Q116 162 149 113T253 64Q285 64 316 76T364 108Q396 142 411 183T429 268Q431 279
446 289T476 299Q487 299 491 293Q505 276 513 255T527 201T533 118T536 -8Q536 -38 528 -70T515 -128Q505 -181 475 -234T400 -329T307 -389Q280 -399 254 -404T192 -409Q140 -409 97 -389T27 -330T0 -240Q0 -208 6 -182T23 -136Q41 -102 70 -70T141 -16T232 5Q285
5 314 -31T343 -120Q343 -153 328 -181T285 -225T224 -242Q190 -242 166 -228T142 -184Q142 -166 153 -145T181 -107T216 -91Q234 -91 240 -104T248 -133Q251 -146 238 -146Q231 -146 223 -141T213 -125Q212 -121 215 -116T213 -111Q202 -111 194 -125T180 -156T175
-184Q175 -200 190 -204T224 -208Q249 -208 265 -192T289 -152T298 -104Q298 -67 285 -44T235 -20Q169 -20 128 -54T65 -133Q60 -144 52 -163T39 -202T33 -240Q33 -282 56 -307T117 -344T198 -355Q228 -355 252 -350T302 -336Q346 -320 383 -288T447 -213T483 -122Q487
-105 487 -86T488 -48Q488 24 485 69T475 145T458 200Q456 166 447 148T422 117T388 84Q375 70 349 59T293 42T238 36Q180 36 146 61T98 132T83 235Q83 291 90 337T116 418Q126 438 144 467T185 525T231 577T276 608Q311 622 353 635T438 648Q513 648 560 611T607
496Z" />
<glyph unicode="H" glyph-name="H" horiz-adv-x="573" d="M576 589Q572 577 564 561T538 542Q527 541 520 547T511 561T515 569Q519 571 521 571Q526 571 530 567T542 563Q553 562 557 570T562 592Q562 600 561 610T555 627Q550 638 542 638Q532 638 519 624T496
589T483 549L449 328Q458 327 463 326T474 324Q479 324 488 327Q538 347 553 378Q558 385 557 379T553 362T544 347Q519 317 499 305T466 290T445 282Q441 280 441 273Q441 286 440 286Q439 286 437 256T435 185Q435 151 437 116T444 51T458 5T480 -8Q501 2 516
12T542 45Q547 55 552 64T557 83Q557 90 552 98Q542 113 531 113Q519 113 508 99T489 71T476 54T471 76Q471 86 475 94T485 109Q504 131 526 131Q530 131 533 131T540 129Q554 128 559 116T565 87Q565 82 565 76T563 64Q560 41 542 16T502 -26T464 -40Q438 -35
423 -11T401 50T395 130Q395 164 398 199T405 268L331 273Q326 272 319 272Q310 272 304 273T291 275Q285 275 278 273T258 265L208 24Q204 2 192 -23T163 -70T126 -104T83 -112Q58 -107 39 -91T9 -55Q1 -32 0 -11T-2 16Q2 35 16 58T50 98T91 111Q117 107 127 90T142
51Q144 44 145 37T146 23Q146 15 143 8T131 -5Q124 -10 110 -10Q94 -10 82 -3T75 15Q78 21 84 21Q91 21 99 18T114 14Q121 14 125 18Q128 23 128 28Q128 45 115 66T82 91Q76 92 63 83T37 57T18 15Q17 -3 20 -19T31 -49Q39 -66 53 -66T84 -71Q89 -72 93 -72T102
-73Q135 -73 150 -46T173 24L216 258Q191 243 186 237T173 225Q169 223 168 223Q163 223 163 231Q163 236 165 242Q173 268 190 280T218 307Q227 318 227 333Q230 345 230 365Q230 391 225 424T208 490T177 544T131 572Q125 573 120 573T109 574Q91 574 79 569T66
552Q66 542 71 539T83 535Q90 535 97 536T110 538Q120 538 120 529Q120 519 112 515T92 511Q77 511 65 518Q50 529 50 545Q50 589 72 608T129 627Q182 627 217 591T256 498Q257 484 260 441T264 349Q264 340 264 331T263 312L412 313Q414 320 417 347T427 412T443
491T466 568T498 626T539 649Q554 649 565 640T577 606Q577 602 577 598T576 589Z" />
<glyph unicode="I" glyph-name="I" horiz-adv-x="558" d="M575 575Q583 550 587 525T591 475Q591 440 586 408T572 347Q560 301 542 256T506 174T478 118Q478 114 478 102T485 75Q491 62 499 53T512 31Q513 30 513 30T513 29Q513 25 504 25Q500 25 495 27T488
33Q474 65 465 68T453 72Q425 34 400 4T342 -48T260 -89Q217 -106 160 -106Q125 -106 91 -97T30 -68T-8 -15Q-13 -1 -15 13T-18 39Q-18 82 5 113T62 164T131 192Q135 193 139 193T147 194Q167 194 188 181T218 129Q219 125 219 122T220 114Q220 92 208 69T172 38Q143
27 130 27Q124 27 121 29T113 35Q111 37 109 41T106 52Q106 62 115 71Q122 76 126 76Q133 76 140 73T155 70Q166 70 173 76Q191 93 191 114Q191 128 184 141T165 164Q158 171 144 171Q125 171 100 160T55 131Q32 111 18 88T3 35Q3 25 5 15T11 -8Q24 -42 61 -61T148
-80Q194 -80 242 -63Q289 -45 325 -14T387 50T425 108T438 138Q439 145 429 168T409 231T400 323Q401 353 411 393T438 476T471 553T502 607Q516 625 532 625Q534 625 537 625T542 624Q554 623 562 606T575 575ZM548 465Q551 495 551 525Q551 556 547 577T532 598Q517
601 498 571Q482 547 470 515T444 447Q434 421 428 385T421 309Q421 282 425 255T438 202Q448 176 450 172T458 172Q471 189 485 222T512 298T534 384T548 465Z" />
<glyph unicode="J" glyph-name="J" horiz-adv-x="632" d="M713 619Q706 611 692 600T661 589Q652 589 644 592T629 597Q613 602 597 606T561 612Q527 617 503 624T437 632Q389 632 351 620T290 581T267 508Q267 483 272 459T301 434Q322 434 332 434T348 440T362
463Q366 471 368 482T371 503Q371 517 366 530Q364 536 364 540Q364 548 367 554T375 560Q379 560 382 553Q389 537 391 528T393 512T394 490Q394 450 370 432T301 414Q267 414 243 441T219 506Q219 560 249 592T329 639T434 653Q477 653 505 645T570 631Q591 629
605 629T637 624Q643 622 654 615T672 608Q682 608 686 615T695 627Q703 636 710 636Q717 636 717 629Q717 624 713 619ZM571 118Q565 84 562 64T556 30T548 0T533 -43Q522 -74 508 -99T473 -145Q449 -169 409 -199T321 -251T227 -273Q196 -273 177 -264T135 -248Q77
-234 52 -193T27 -78Q27 -32 38 -1T70 53T115 98Q138 118 162 136T227 155Q259 155 278 135T305 84T313 22Q313 -18 297 -38T243 -58Q206 -58 198 -25Q195 -16 201 -11T214 -5Q226 -5 229 -18V-21Q229 -25 229 -28T232 -32Q255 -32 267 -17T280 22Q280 54 271 68T227
82Q205 82 194 79T174 68T152 49Q132 32 111 18T75 -17T60 -78Q60 -136 78 -169T143 -216Q164 -222 181 -231T227 -240Q270 -240 312 -220T391 -171T449 -122Q469 -103 480 -81T502 -32Q511 -6 515 12T522 48T528 88T536 143L523 232L462 502Q464 533 466 557T489
595Q497 600 509 593T532 573T542 551Q542 548 538 544Q523 534 524 518T523 478L560 233L571 118Z" />
<glyph unicode="K" glyph-name="K" horiz-adv-x="627" d="M845 552Q845 520 827 493T779 449T715 432Q702 432 696 434T683 443Q667 457 667 464Q667 467 675 462Q679 459 695 456T718 453Q758 453 781 477T805 542Q805 565 788 568T747 571Q726 571 710 557T683
525T662 493Q628 447 606 406T553 313Q539 289 517 257T465 202Q490 168 515 131T568 72Q579 63 598 41T641 -6T688 -49T731 -67Q743 -67 750 -61T763 -48Q768 -42 774 -42Q779 -42 783 -46T788 -56Q788 -60 784 -64Q775 -74 763 -79T731 -85Q703 -85 680 -68T638
-30T603 3Q577 23 547 51T489 110T438 164Q436 167 433 170T428 178Q411 171 392 171Q375 171 361 175T336 187Q331 169 327 151T318 118Q313 99 305 79T289 40Q278 12 271 -5T256 -34T236 -59T204 -92Q188 -108 162 -119T107 -131Q90 -131 79 -116T61 -81T51 -45Q50
-37 50 -31T49 -21Q49 -3 56 -3Q61 -3 66 -9T72 -22Q74 -32 78 -51T89 -87T107 -104Q130 -104 143 -91T169 -65Q188 -46 199 -35T217 -12T231 15T249 58Q256 75 263 95T275 135Q282 158 289 180T304 224Q303 227 302 230T298 238Q298 238 295 247T292 267Q292 279
298 285Q303 290 316 290Q319 290 322 290T328 289Q346 339 361 389T376 507Q376 570 355 606T269 643Q216 643 187 630T129 588Q94 554 67 509T40 392Q40 346 60 317T109 267Q112 265 120 260T137 250T149 245Q205 245 244 280T283 371Q283 388 275 405T253 432T227
442Q194 439 194 450Q194 456 206 462T236 469Q240 469 243 469T251 468Q277 463 292 435T307 371Q307 327 282 294T218 242T133 224Q126 224 113 232T93 245Q62 270 38 304T13 392Q13 444 26 482T62 551T111 607Q143 639 183 663T283 688Q335 688 360 664T394
598T403 507Q403 456 400 420T389 353T367 284Q367 283 366 283T365 280Q385 274 394 272T411 263T436 238Q441 234 444 231T451 223Q477 245 495 279T527 335Q558 386 584 439T643 538Q654 554 670 575T708 612T755 629Q789 629 817 608T845 552ZM412 200Q402
217 390 231T356 253Q353 245 350 235T344 215Q363 198 392 198Q397 198 402 198T412 200Z" />
<glyph unicode="L" glyph-name="L" horiz-adv-x="627" d="M708 504Q708 446 685 403T626 327T551 273Q527 260 499 244T438 215T369 203Q359 151 337 106T280 25Q271 16 259 7T231 -11Q254 -19 270 -24T311 -38Q338 -47 357 -58T394 -80T434 -98T489 -105Q521
-105 552 -96T605 -67T627 -16Q627 13 607 26T558 40Q536 40 522 21T502 -13Q492 -34 485 -34Q477 -34 477 -17Q477 -8 480 3T491 24Q502 40 517 50T558 60Q595 60 625 40T655 -18Q655 -54 634 -81T579 -123T508 -138Q463 -138 436 -131T386 -112T327 -89Q302 -81
268 -64T208 -36Q205 -34 202 -33T194 -29Q166 -41 136 -48T76 -56Q66 -56 52 -49T27 -29T16 -3Q16 6 23 18T42 40T65 49Q88 49 120 37T181 11Q191 21 200 30T218 49Q248 79 269 120T306 206Q260 210 216 221T137 254T80 306T58 382Q58 429 82 470T147 538T233
564Q290 564 324 544T358 467Q358 440 342 415T308 378Q304 376 303 376Q294 376 294 386Q294 392 298 395Q309 404 323 424T338 467Q338 514 309 529T233 544Q192 544 164 520T122 459T108 378Q108 325 137 293T213 246T313 225Q320 245 326 264T338 302Q361 369
379 436T427 562Q440 589 457 615T500 660T564 678Q586 678 608 675T643 662Q674 637 691 599T708 504ZM638 504Q643 524 645 540T648 569Q648 607 616 632Q606 640 596 641T567 643Q515 643 489 616T445 553Q416 495 401 430T378 269Q377 257 376 246T373 223Q407
224 436 235T491 263T540 292Q567 307 584 333T611 391T627 453T638 504ZM155 -10Q137 -1 118 6T82 13Q71 13 62 7T52 -8Q52 -21 59 -28T76 -36Q100 -36 119 -29T155 -10Z" />
<glyph unicode="M" glyph-name="M" horiz-adv-x="1000" d="M998 16Q1004 15 1004 10Q1004 6 999 0T987 -15Q967 -43 941 -54T893 -66Q872 -66 858 -58Q848 -51 835 -37T812 1T804 55Q806 88 813 131T829 220T845 303T856 364Q860 395 840 395Q825 395 804 376Q788
354 763 320T711 218Q700 188 686 152T667 65Q666 58 667 50T669 34Q669 24 664 16Q655 3 643 -2Q639 -3 636 -4T629 -5Q624 -5 620 0Q613 8 613 25Q613 42 617 60T624 95Q629 132 634 173T640 264Q640 297 637 333T625 413Q621 433 618 450T598 478Q586 486 576
465T559 403T544 309T531 198Q521 113 515 44T505 -56Q504 -70 487 -79T451 -93T425 -98Q417 -98 417 -86Q417 -75 421 -62T428 -40Q449 21 457 76T466 183Q466 236 459 284T442 375Q431 424 398 470T316 547T207 578Q169 578 133 565Q97 553 61 524T1 449T-23
340Q-23 282 2 213Q14 182 43 157T106 117T166 102Q178 102 185 105Q226 120 245 153T264 220Q264 250 251 276T211 316Q198 322 198 333Q198 346 218 346Q232 346 249 338Q269 330 287 306T313 252Q315 245 316 237T317 221Q317 187 302 155T265 100T224 69Q204
62 179 62Q140 62 99 79T25 129T-25 205Q-39 245 -45 280T-52 345Q-52 416 -24 465T45 544T125 589Q150 598 172 602T216 606Q265 606 305 587T376 536T430 469T469 397T495 335Q499 319 503 308T511 297Q517 297 518 328Q519 367 532 409T558 488Q566 505 577
513T601 521Q617 521 627 509Q660 474 668 445T678 375Q679 343 682 319T692 283Q714 315 735 346T777 399T811 427Q823 431 834 431Q854 431 866 421T884 400T892 387Q899 369 899 345Q899 313 889 278T865 208T842 142T831 85Q831 35 835 9T848 -27T869 -37Q882
-37 897 -32T932 -25Q948 -24 960 -14T981 7T998 16Z" />
<glyph unicode="N" glyph-name="N" horiz-adv-x="852" d="M835 23Q815 -5 790 -16T742 -28Q721 -28 707 -20Q696 -14 683 1T660 39T652 92Q654 133 661 183T677 281T692 360T699 396Q699 427 687 453T656 494T615 507Q595 505 571 469T526 372T496 235Q486 151
480 82T471 -18Q470 -32 453 -41T416 -55T391 -60Q382 -60 382 -47Q382 -37 386 -24T393 -3Q414 59 422 114T431 221Q431 274 424 321T407 412Q389 489 342 526T235 563Q220 563 203 560Q164 554 127 534T65 480T40 393Q40 354 58 304Q67 279 90 259T141 228T189
216Q194 216 198 216T205 218Q237 229 253 255T269 310Q269 334 258 355T225 387Q215 391 215 400Q215 410 231 410Q236 410 242 409T256 404Q276 396 294 369T312 310Q312 283 300 258T270 214T236 189Q220 183 199 183Q169 183 137 197T78 237T38 298Q28 327
23 352T18 400Q18 458 45 495T112 554T195 584Q207 587 219 588T241 589Q288 589 323 569T385 516T429 445T460 372Q464 356 468 345T477 334Q484 334 484 365Q485 392 500 422T534 480T564 523Q578 536 596 541T630 546Q655 546 672 536Q697 519 712 494T740 424Q743
415 744 406T745 386Q745 353 735 318T712 248T688 181T678 123Q678 67 686 39T708 2T734 -7Q745 -7 755 -5T772 -4Q784 -7 791 1T803 21T812 42T823 51Q840 46 840 35Q840 31 835 23Z" />
<glyph unicode="O" glyph-name="O" horiz-adv-x="468" d="M484 405Q486 379 482 337T466 246T433 155Q411 108 381 78T320 31T264 3T223 -13Q208 -20 187 -20Q168 -20 151 -14T124 0Q117 6 104 12T77 32T53 69T42 136Q41 156 42 175T45 212Q23 236 9 264T-6 321Q-6
344 4 363Q37 425 92 467T200 532Q227 562 256 588T316 635Q336 644 344 644Q356 644 356 634Q356 620 340 611Q317 599 297 585T258 555Q277 560 290 562T311 565Q358 565 396 542T458 482T484 405ZM423 391Q423 454 402 486T349 528T285 539Q277 539 270 539T255
538Q251 538 247 538T238 535Q195 492 166 440T119 333T92 229Q116 216 145 209T202 202Q237 202 264 211T298 240Q304 257 304 268Q304 285 294 291T268 296Q248 295 240 298T232 308Q232 311 234 314T238 320Q250 332 265 332Q286 332 311 307Q333 275 333 249Q333
224 316 207T274 179T221 163T173 156T145 155Q116 161 85 178Q85 169 85 160T84 141Q84 102 94 77T118 38T145 18Q152 15 161 13T183 11Q209 11 242 22T310 64T378 149Q392 172 400 205T414 274T421 341T423 391ZM171 498Q140 475 113 446T66 388T42 338Q38 325
38 309Q38 283 53 263Q68 331 99 390T171 498Z" />
<glyph unicode="P" glyph-name="P" horiz-adv-x="576" d="M636 453Q636 394 616 348T564 266T498 204Q458 173 398 173Q379 173 371 174T360 182T352 203Q351 206 351 212Q351 220 354 224T362 220Q367 207 374 203T398 198Q424 198 440 208T473 231Q505 255 533
286T580 360T598 456Q598 494 579 520T528 561T458 584T382 591Q366 591 350 589T318 585Q267 581 236 574T182 553T138 511Q126 497 123 469T120 418Q120 375 129 353T175 331Q189 331 210 340T251 364T282 395Q289 406 298 406Q305 406 305 396Q305 388 298 371Q295
364 281 353T246 332T207 314T175 307Q144 307 120 325T83 373T69 438Q69 468 87 488T118 525Q155 569 206 595T340 627Q357 629 373 630T405 631Q464 631 516 611T602 551T636 453ZM449 564Q450 564 451 564T453 565Q458 565 458 560Q458 550 444 545Q411 537
398 519T373 469Q358 425 352 388T344 311T338 222Q334 166 321 111T282 12T218 -60T123 -87Q90 -87 61 -63T15 -3T-3 69Q-3 98 9 118T29 158Q46 185 67 210T118 252T185 269Q232 269 248 244T264 175Q264 123 235 95T153 67Q137 67 126 77T115 105Q115 119 122
124T138 133Q140 134 143 134Q148 134 152 130T156 120Q156 113 149 112Q146 111 142 111T138 105Q138 91 153 91Q240 91 240 175Q240 206 230 225T185 245Q152 245 127 230T84 192T52 145Q42 129 32 112T22 69Q22 40 31 10T60 -42T105 -63Q157 -63 191 -39T246
25T276 115T291 218Q297 293 310 352T347 478Q360 516 384 535T449 564Z" />
<glyph unicode="Q" glyph-name="Q" horiz-adv-x="672" d="M647 -104Q647 -128 633 -152T598 -176Q568 -176 540 -161T488 -123T443 -76T407 -32Q403 -27 400 -24T394 -16Q388 -17 382 -17T369 -18Q320 -18 276 -1T195 42T130 91Q122 78 122 56Q122 35 126 25T136
0Q137 -2 137 -6Q137 -11 133 -14T123 -18Q115 -18 112 -11Q104 4 100 17T95 56Q95 84 112 107Q92 126 72 152T39 211T25 280Q25 323 35 355T62 415T93 468Q121 515 162 550T258 606Q263 625 288 645T344 681T402 696Q452 696 487 685T545 647Q558 632 572 615T596
580Q618 542 628 483T638 365Q638 344 639 323T640 282Q640 259 638 238T627 198Q608 153 580 119T522 52Q507 35 481 18T423 -9Q426 -12 428 -16Q441 -32 459 -54T499 -99T546 -135T598 -149Q611 -149 615 -134T620 -104Q620 -99 619 -95T612 -91H569Q562 -91
558 -85T553 -71Q553 -58 564 -58Q566 -58 577 -59T599 -62T612 -64Q632 -64 639 -74T647 -104ZM612 365Q612 420 596 468T558 553Q548 569 543 584T527 612Q507 635 479 655T409 675Q393 675 371 666T327 644T294 617Q341 629 396 629Q461 629 500 603T540 515Q540
427 504 378T383 328Q358 328 336 343T301 382T287 429Q287 453 298 476T328 515T369 531Q380 531 387 527T405 518Q414 514 414 506Q414 501 410 498T398 495Q390 497 385 500T369 504Q346 504 330 480T313 429Q313 412 323 395T349 367T383 355Q432 355 458 368T494
412T505 493Q505 545 477 561T396 578Q296 578 231 536T125 428Q110 403 96 385T72 344T63 280Q63 232 84 193T131 127Q158 151 195 163T265 176Q282 176 304 171T344 158T369 142Q389 114 394 83T409 21Q437 28 462 41T500 71Q529 103 549 136T587 213Q600 245
606 283T612 365ZM363 16Q345 33 329 51T295 91Q291 98 277 100T248 103T220 104Q201 104 185 105T157 105Q194 74 246 46T363 16Z" />
<glyph unicode="R" glyph-name="R" horiz-adv-x="736" d="M745 -27Q740 -47 724 -54T689 -61Q671 -61 656 -58Q626 -52 599 -31T550 17T513 69T492 107Q490 112 487 117T480 126Q461 123 440 123Q418 123 397 130Q390 105 380 84T365 40Q352 -29 307 -70T182 -112Q140
-112 104 -94T46 -43T24 29Q24 74 44 111T99 170T176 192Q216 192 248 173T280 109Q280 71 255 41T192 11Q174 11 161 27T147 62Q147 82 160 89T184 103Q188 105 190 105Q203 105 203 90Q203 82 195 78Q191 77 189 75T187 64Q187 60 187 56T186 47Q186 38 192 38Q219
38 232 56T245 102Q245 134 229 141T184 149Q130 149 91 117T51 29Q51 -4 69 -30T118 -70T182 -85Q228 -85 259 -62T310 -1T336 78Q339 94 344 102T355 119T366 144Q343 157 328 176T312 218Q312 241 322 243T355 245Q368 245 380 242Q384 279 388 316T403 388Q409
409 424 438T460 489T505 511Q519 511 532 502Q539 498 539 490Q539 485 535 482T524 483Q514 488 508 488Q489 488 475 467T452 419T438 375Q429 339 424 301T414 225Q432 211 453 194T491 156Q540 168 582 196T652 248Q675 269 687 298T704 352Q707 387 698 416T677
465T653 493Q624 516 605 531T569 557T531 574T478 590T395 611Q360 619 322 619Q291 619 258 613T192 592Q158 577 137 559T97 517T47 460Q40 452 30 433T13 392T5 355Q5 326 20 302T59 263T112 249Q126 249 139 252T165 264Q190 286 195 310T200 365Q200 400
168 400Q152 400 142 390T131 365Q131 361 133 349T136 333Q136 327 132 324T123 320Q118 320 114 323T109 333Q109 337 107 349T104 365Q104 393 122 410T168 427Q199 427 217 403T235 349Q235 312 216 292T168 245Q155 237 141 234T112 230Q74 230 38 252T-22
310T-45 384Q-45 413 -28 436T4 476Q36 512 65 538T129 584T209 618Q245 630 267 637T322 644Q349 644 395 638Q451 631 487 628T549 620T595 609T637 587T691 547Q704 537 714 506T729 432T731 348Q724 320 711 286T671 228Q643 202 601 175T508 133Q510 129 512
126T516 118Q521 107 533 83T565 32T607 -13T656 -32Q667 -32 677 -33T694 -34Q710 -34 715 -25Q716 -24 716 -21Q716 -15 714 -6T712 5Q712 12 716 15T725 19Q738 19 738 5Q738 3 742 -10T745 -27ZM378 215Q368 218 355 218Q348 218 343 222T338 218Q338 204 347
192T371 170Q373 181 375 192T378 215ZM460 150Q449 163 436 173T410 194Q409 184 408 175T404 155Q422 149 440 149Q445 149 450 149T460 150Z" />
<glyph unicode="S" glyph-name="S" horiz-adv-x="407" d="M378 493Q369 468 352 451T301 433Q285 433 272 439T251 462Q245 473 245 486Q245 502 253 515T278 529Q280 529 282 529T286 530Q302 530 311 518Q314 514 314 510Q314 503 307 496T293 480T289 462Q295
444 311 444Q326 444 343 460T371 507Q374 513 374 521Q374 536 362 552T331 575Q323 578 314 580T295 582Q259 582 224 561T176 503Q171 490 169 478T167 456Q167 427 182 407T220 371T270 339T319 301T358 250T373 176Q373 151 367 120T347 51Q330 5 297 -32T220
-92T128 -114Q95 -114 62 -102Q13 -84 -4 -57T-22 -1Q-22 18 -17 35T-8 65Q-1 85 20 106T69 141T119 156Q129 156 138 153Q157 148 157 113Q157 103 155 93T149 72Q142 53 129 41T93 29Q82 29 73 30T58 40Q57 42 57 44T56 48Q56 64 72 75Q80 81 87 75T101 63T118
58Q134 62 139 76T144 107Q144 112 144 117T143 127Q142 144 126 144Q114 144 97 134T62 110T31 81T15 58Q6 33 6 11Q6 -42 62 -63Q68 -65 76 -65Q96 -65 130 -56T204 -27T277 27T329 111Q338 135 342 155T346 192Q346 230 330 255T287 298T231 329T176 358T133
395T116 450Q116 462 118 476T127 507Q147 563 185 587T267 611Q285 611 303 608T338 598Q367 588 377 573T388 540Q388 529 386 518T378 493Z" />
<glyph unicode="T" glyph-name="T" horiz-adv-x="448" d="M792 584Q778 541 738 518T638 495Q590 495 538 503T434 525Q421 491 416 451T402 363Q391 297 373 229T325 105T247 20Q226 8 208 -5T167 -27T109 -36Q64 -36 42 -20T12 27T4 98Q4 105 7 124T15 162T24
188Q31 204 48 228T89 276T136 316T180 332Q188 332 198 320T217 291T225 264Q225 260 222 246T208 214T178 183Q174 182 171 182T163 182Q135 182 135 193Q135 202 153 209Q171 217 180 218T193 226T196 260Q196 265 194 275T188 294T180 303Q163 303 147 288T116
251T91 208T75 172Q73 166 68 153T59 126T55 105Q55 92 55 79T54 54Q54 27 63 10T109 -7Q140 -7 160 4T196 32T227 65Q288 127 322 201T372 368Q380 417 389 456T415 530Q364 544 318 558T233 584Q212 591 198 597T153 604Q131 604 110 599T88 572Q88 566 88 558T87
542Q87 523 92 504T113 471T163 455Q177 454 185 461T200 475Q204 485 215 485Q225 485 225 471Q225 468 225 465T223 458Q213 446 200 436T163 425Q146 425 125 431T83 455T52 504T43 585Q45 605 58 623T92 652T133 664Q149 664 173 659T222 647T269 633T303 622Q335
612 368 598T436 569Q438 572 440 575T445 582Q456 597 467 597Q472 597 472 592Q472 583 458 568Q457 567 456 566T453 562Q499 544 547 531T647 518Q743 518 767 585Q768 611 778 611Q783 611 787 603T792 584Z" />
<glyph unicode="U" glyph-name="U" horiz-adv-x="723" d="M742 398Q742 364 728 326T692 249T648 179T611 123L598 103Q601 71 614 38T651 -16T703 -38Q719 -38 725 -40T731 -44Q731 -48 719 -53T700 -58Q671 -56 646 -38T603 9T576 70Q558 45 537 22T488 -18Q482
-23 468 -30T438 -42T413 -48Q388 -48 375 -32T356 9T351 58Q351 109 362 151T389 231T420 307T447 387T458 480Q458 523 450 555T419 605T355 624Q307 624 274 610T211 578Q171 553 146 525T91 472Q76 459 63 425T49 349Q49 304 70 256T149 173Q162 165 182 161T223
157Q246 157 265 161T291 175Q311 198 325 214T346 253T353 318Q353 347 346 374T321 420T272 438Q248 438 219 422T170 382T149 331Q149 297 170 284T227 271Q249 271 265 277T278 304Q277 313 277 321T272 335T247 343Q239 345 239 352Q239 356 242 359T249 362Q287
358 297 342T307 288Q307 258 287 245T235 232Q192 232 160 255T127 320Q127 340 134 365T156 415T197 454T258 470Q263 470 268 470T280 468Q316 463 338 451T373 411T387 328Q389 282 377 253T344 202T302 156Q293 146 273 141T230 136Q205 136 180 142T138 158Q69
202 39 246T9 338Q9 373 23 409T62 483Q88 522 125 551T205 605Q237 624 270 638T355 652Q427 652 472 615T518 504Q518 453 506 410T475 327T439 247T408 164T395 69Q395 54 392 36T389 3Q389 -10 394 -19T413 -28Q421 -28 437 -21T470 -4T491 8Q520 27 537 48T571
95Q570 101 570 106T569 118Q569 162 575 211T592 305T620 382Q624 390 634 408T657 446T685 480T712 495Q721 495 726 483T735 453T740 421T742 398ZM700 378Q700 383 700 388T701 398Q701 408 699 415T688 422Q667 422 664 408T652 380Q638 352 626 311T607 224T598
138Q618 167 641 207T682 291T700 378Z" />
<glyph unicode="V" glyph-name="V" horiz-adv-x="558" d="M798 596Q807 571 807 553Q807 530 798 519T785 502Q782 495 773 495Q766 495 760 502T758 518Q760 521 758 530T754 550T752 564Q748 566 744 566T735 566Q729 566 723 566T709 565Q686 565 672 555T646
530T624 502Q602 475 576 450T524 386T480 285Q474 265 469 249T458 216Q471 172 479 128T488 45Q488 6 471 -29T424 -84Q411 -73 406 -66T400 -43Q400 -27 395 1T392 47Q398 88 408 135T432 229Q423 249 414 270T396 313Q386 340 376 374T353 440T325 493Q313
509 301 527T271 559T227 573Q176 573 142 560T85 524T40 469Q31 456 24 431T16 387Q16 345 21 316T47 263Q55 255 72 249T107 243Q135 243 166 254T218 286T240 336Q240 349 235 370T222 407T203 424Q198 424 193 414T184 393T178 378Q172 368 167 379T161 403Q161
412 164 418Q171 429 179 440T203 451Q218 451 233 441T258 407T267 336Q266 301 241 274T179 231T107 216Q82 216 60 224T27 244Q4 271 -10 311T-24 400Q-24 423 -17 453T0 498Q24 532 53 558T123 600T222 616Q245 616 264 602T299 568T328 526T352 491Q369 469
374 457T384 432T398 392Q407 368 419 335T444 264Q458 305 475 341T512 403Q532 429 549 458T603 529Q616 544 637 564T685 600T738 616Q751 616 757 613T771 604T798 596ZM464 83Q464 113 460 138T448 185Q440 157 433 125T418 44Q416 26 424 9T432 -24Q432 -25
441 -19T451 -11Q456 0 460 28T464 83Z" />
<glyph unicode="W" glyph-name="W" horiz-adv-x="878" d="M1013 709Q1013 696 1003 685T984 667Q980 664 975 664Q970 664 966 668T962 678Q962 684 968 688Q972 691 979 696T987 709Q987 720 977 726T955 733Q912 733 890 708T858 641T847 552T842 459T829 380Q816
334 811 288T795 195Q788 162 785 129T774 66T749 13Q744 5 730 0T698 -5Q667 -5 644 20T604 83Q586 46 560 14T496 -36Q490 -39 474 -45T451 -51Q394 -51 364 -18T333 75Q333 128 346 171T377 255T408 340Q415 363 427 393T440 456Q440 501 426 545T382 618T307
648Q263 648 233 630T181 585T138 531Q121 508 108 487T87 439T80 371Q80 331 81 305T90 261T117 231T171 205Q180 201 194 201Q215 201 234 210T264 231Q275 244 288 258T312 290T323 331Q323 350 316 371T297 408T267 424Q254 424 249 415Q244 407 237 407Q230
407 225 413T225 428Q233 440 240 445T267 451Q289 451 307 432T337 385T349 331Q349 305 338 284T312 245T285 213Q269 195 236 187T168 178Q106 178 72 199T26 262T13 365Q13 410 24 443T54 503T91 555Q114 586 145 613T217 657T307 675Q345 675 375 656T425
604T456 533T467 456Q467 438 461 413T447 362T430 314T418 278Q408 247 398 231T379 201T365 168T360 109Q360 79 367 48T391 -3T438 -24Q441 -24 450 -21T469 -13T483 -7Q524 13 545 51T583 131L585 136Q577 160 572 182T563 223V292Q569 332 574 358T593 416Q598
427 609 441T632 456Q648 456 659 440T678 401T685 363Q685 299 663 235T620 118L616 108Q627 74 647 48T698 22Q706 22 711 28T720 40Q736 61 740 87T745 141T752 200Q759 232 766 270T782 348T800 418Q811 455 816 500T826 591T844 675T883 737T955 760Q976 760
994 745T1013 709ZM651 358Q651 366 652 371T654 381Q654 389 640 389Q634 389 627 385T618 376Q608 357 604 344T598 317T592 276L595 200Q597 194 598 187T600 173Q618 215 634 262T651 358Z" />
<glyph unicode="X" glyph-name="X" horiz-adv-x="618" d="M649 56Q640 47 621 30T579 -3T536 -18Q511 -18 489 -7T450 21T422 49Q394 81 378 113T353 183T335 267Q334 271 334 275T333 285Q316 262 296 231T256 169T222 116Q199 79 178 45T140 -29T115 -123Q115
-123 114 -131T111 -149Q112 -167 104 -178T88 -190Q76 -190 76 -167Q76 -163 76 -159T78 -149Q78 -149 81 -135T91 -101T103 -65Q117 -26 129 3T157 61T196 129Q211 154 223 172T247 207T276 245Q289 262 302 280T330 318Q329 348 328 379T322 428Q316 458 305
491T272 548T208 572Q182 572 159 553T121 507T100 453Q98 437 93 419T88 386Q88 376 92 370T107 363Q139 363 159 371T184 405Q184 409 194 424T204 458Q204 471 196 482Q176 501 176 516Q176 529 188 529Q193 529 203 524Q216 508 220 491T225 460Q225 447 223
439T220 427Q214 389 182 359T102 329Q80 329 66 345T44 384T36 432Q36 438 36 444T38 456Q42 482 60 508T104 556T159 591T213 605Q250 605 275 590T315 550T340 497T355 442Q358 429 360 407T363 362Q392 401 422 438T482 507Q509 536 541 558T600 607Q608 611
618 611Q630 611 638 604T647 588Q647 576 636 568Q611 540 572 517T503 464Q473 434 451 414T409 375T365 326Q366 312 367 300T369 278Q380 213 394 165T448 73Q457 64 470 51T502 27T542 16Q562 16 586 29T620 53Q629 66 639 77T656 93T664 93Q664 89 661 80T649
56Z" />
<glyph unicode="Y" glyph-name="Y" horiz-adv-x="685" d="M720 424Q712 380 692 339T649 258Q644 249 639 241T628 224Q626 175 623 123T611 24Q596 -58 576 -119T522 -242Q503 -278 476 -310T409 -362T309 -382Q291 -382 266 -376T216 -355T173 -320T155 -269Q152
-196 161 -155T189 -94T232 -69T287 -64H320Q362 -64 389 -79T416 -142Q416 -169 402 -195T365 -238T315 -256Q282 -256 273 -248T258 -211L273 -171Q275 -164 281 -161T292 -158Q297 -158 300 -161T298 -171L275 -207Q277 -220 287 -224T315 -229Q336 -229 352
-216T379 -183T389 -142Q389 -109 370 -100T320 -91Q290 -91 264 -108T218 -154T187 -215T176 -280Q176 -294 189 -308T221 -333T259 -351T293 -358Q334 -358 364 -341T416 -296T454 -238T484 -183Q506 -143 523 -109T554 -37T578 56Q583 85 586 114T592 173L584
163Q570 145 552 120T511 72T462 32T403 16Q357 16 336 40T315 112Q315 159 323 192T344 255T372 318Q382 340 388 355T397 387T403 428Q406 472 392 504T356 558T314 589T285 600Q254 600 239 602T216 604Q206 604 199 599T171 578Q150 561 132 550T99 523T71
478Q62 456 56 426T47 366T43 312Q43 281 54 259T92 220Q102 213 115 213Q130 213 146 218T178 224Q198 224 216 228T248 238Q280 252 288 265T297 299Q297 308 297 318T296 342Q296 362 287 382T258 403Q250 403 237 402T218 398Q212 395 209 395Q203 395 203
400Q203 408 215 415Q230 424 253 424Q283 424 303 398T323 342Q323 308 321 280T305 231T253 193Q238 187 217 185T173 182Q145 182 124 182T78 198Q16 235 16 312Q16 335 13 357T10 401Q10 415 12 428T20 456Q40 504 63 529T123 582Q150 603 173 617T226 640T304
648Q345 648 375 641T421 612T438 549Q438 536 438 510T435 458T429 420Q418 383 407 351T380 285Q366 254 358 232T346 183T342 112Q342 85 357 70T395 55Q406 55 416 58Q468 74 500 97T555 151T595 214Q598 279 602 333T623 415Q638 451 651 464T677 478Q691
478 700 466T715 441T720 424ZM693 429Q694 431 693 436T686 442Q682 442 674 433T655 398Q645 381 640 351T632 283Q652 319 669 355T693 429Z" />
<glyph unicode="Z" glyph-name="Z" horiz-adv-x="571" d="M549 29Q547 -4 529 -35T480 -88T409 -109Q352 -109 310 -96T234 -63T174 -22T123 15T72 38Q60 41 44 36T16 24T4 18Q-5 18 -5 30Q-5 43 3 62T18 92Q40 127 56 150T90 195T132 244Q154 269 192 301T274
369T359 438T427 500T456 544Q441 546 434 550T422 558T406 567T375 572Q346 574 328 575T292 578T248 584Q226 580 206 569T186 540Q186 534 189 528Q192 522 202 516T220 504T223 495Q213 490 197 490Q186 490 176 493T162 503Q155 517 153 528T150 548Q150 577
171 589T218 609Q235 606 252 605T287 604Q301 604 314 604T341 605Q351 605 361 605T383 603Q414 600 430 596T464 587T516 583Q530 583 540 565T551 529Q551 516 543 508Q511 484 481 469T423 439T363 400Q327 372 291 336T222 264T168 203Q152 185 127 161T83
115T63 78Q63 68 78 65Q135 55 169 38T225 2T270 -36T327 -65T418 -76Q446 -76 465 -59T495 -16T509 33Q512 60 512 93Q512 131 503 164T462 205Q452 207 431 202T402 195Q392 189 385 179T377 157Q377 150 383 134T400 105T420 92Q431 92 438 109Q445 124 457
137T475 150Q480 150 476 140Q462 104 443 89T405 74Q377 74 356 100T334 159Q334 180 345 195T378 222Q390 227 405 231T434 236Q436 236 439 236T445 235Q485 226 508 193T542 115T549 29Z" />
<glyph unicode="[" glyph-name="bracketleft" horiz-adv-x="300" d="M138 547Q124 501 120 451T116 353Q116 319 117 284T118 213Q118 174 116 135T109 58Q107 44 101 30T88 2Q123 1 169 -4T249 -19Q254 -21 254 -25Q254 -33 243 -44T222 -55H220Q200 -53 181
-46T141 -35Q124 -30 107 -28T73 -22Q70 -21 56 -17T29 -9T16 -1Q16 2 25 2T44 3T58 3Q77 41 80 85T83 170Q83 235 78 299T73 428Q73 440 73 452T75 476Q76 484 78 502T83 541T90 579T100 603Q104 607 107 607T115 609Q124 617 138 617Q143 617 152 615T162 605Q162
603 157 593T150 579Q164 581 184 587T224 599T253 605Q263 605 263 594Q263 582 251 579Q242 577 233 575T214 570Q195 565 176 559T138 547Z" />
<glyph unicode="\" glyph-name="backslash" horiz-adv-x="534" d="M513 -39Q513 -50 505 -65T483 -81Q479 -81 479 -73Q479 -64 483 -55T487 -39Q487 -18 468 20T416 108T342 213T258 323T174 427T101 512T51 568Q49 572 49 573Q49 581 63 585T82 590Q86 590 89
590T95 587Q114 570 146 534T217 447T297 341T376 227T446 118T495 25T513 -39Z" />
<glyph unicode="]" glyph-name="bracketright" horiz-adv-x="267" d="M187 73Q187 54 189 38T199 3H220Q226 3 233 3T240 -1Q240 -4 227 -8T199 -17T181 -22Q168 -25 154 -27T125 -32Q101 -37 78 -43T31 -55H28Q20 -55 10 -45T0 -26Q0 -20 6 -19Q27 -12 56 -8T116
-2T170 2Q160 23 158 39T155 79Q155 144 164 208T181 337T190 467Q190 487 189 507T183 547Q165 552 147 558T111 570Q102 572 92 574T73 579Q69 581 66 584T62 592Q62 605 74 605Q84 605 102 600T140 588T174 579Q173 583 169 592T165 605Q165 612 175 614T190
617Q204 617 213 609Q216 606 219 606T226 604Q232 598 234 576T237 532T238 500Q238 494 238 488T237 476Q236 438 231 401T218 325Q207 263 197 200T187 73Z" />
<glyph unicode="^" glyph-name="asciicircum" horiz-adv-x="269" d="M246 395Q246 389 238 389Q235 389 221 395T188 409T155 424T136 433Q121 425 105 413T77 388Q74 385 70 382T61 379Q52 379 52 389Q52 394 54 398T60 407Q66 414 81 429T112 457T136 471Q142
471 159 462T197 440T231 414T246 395Z" />
<glyph unicode="_" glyph-name="underscore" horiz-adv-x="611" d="M39 -41Q37 -41 28 -40T19 -34Q19 -26 33 -18T54 -8Q62 -5 84 -4T128 -3T160 -3Q180 -3 221 -3T313 -3T410 -4T488 -6Q509 -6 518 -6T535 -7T565 -11Q568 -11 578 -12T597 -15T606 -20Q606 -23
597 -25T578 -27T565 -29Q537 -29 522 -29T491 -30T447 -31Q398 -32 341 -33T228 -36T123 -39T44 -41H39Z" />
<glyph unicode="`" glyph-name="grave" horiz-adv-x="106" d="M106 384Q106 375 97 375Q94 375 88 377T66 391Q60 396 52 402T36 414Q28 419 21 424T9 434Q5 437 3 439T0 448Q0 454 5 459T17 464Q28 464 46 449T89 409Q106 391 106 384Z" />
<glyph unicode="a" glyph-name="a" horiz-adv-x="335" d="M346 78Q349 81 354 81Q361 81 361 74Q361 70 357 62T338 43Q324 31 310 21T270 11Q243 11 228 21T206 43T197 63Q185 54 173 40T137 14T71 2Q47 2 28 13T8 64Q8 75 9 87T15 115Q27 162 43 189T91 229Q111
237 140 244T191 256Q198 258 203 269T216 291Q220 296 225 299T236 303Q241 303 249 298Q256 293 258 279T261 253Q260 247 257 239T251 220Q249 207 241 183T233 143Q233 129 231 109T231 80Q242 56 262 49T297 44Q308 46 322 57T346 78ZM184 192Q182 200 175
209T156 218Q154 218 148 216Q131 210 112 194T79 151T63 90Q63 80 69 64T87 37T109 31Q133 41 149 59T177 105Q182 118 184 132T187 160Q187 172 186 180T184 192Z" />
<glyph unicode="b" glyph-name="b" horiz-adv-x="247" d="M247 140Q230 125 219 118T185 106Q176 83 162 54T131 3T96 -18Q62 -18 46 -4T25 37T20 98Q20 133 26 184T44 294T76 413Q94 470 115 524T176 618Q184 629 195 629Q205 629 212 622T218 604Q218 604 218
579T214 519T205 451Q195 396 171 336T123 228Q111 204 96 180T69 138T58 118Q57 113 57 107T56 95Q56 67 66 40T94 13Q105 13 117 28T142 65T162 105Q135 119 135 150Q135 159 138 168Q145 192 157 203T181 214Q192 214 200 206T208 183Q208 172 204 163Q203 158
203 155T197 140Q214 145 227 155T245 167Q248 168 253 168Q262 168 262 162Q262 154 247 140ZM185 562Q176 564 155 518T111 393Q104 369 95 332T78 256T65 184Q97 249 123 301T164 398Q175 434 182 475T190 540Q190 560 185 562Z" />
<glyph unicode="c" glyph-name="c" horiz-adv-x="185" d="M209 66Q184 34 162 21T120 6T78 3Q44 3 26 25T5 78Q4 98 7 126T27 187Q42 218 59 232T92 253T118 263Q126 266 135 266Q155 266 167 256Q172 252 173 246T175 232Q175 228 175 224T173 215Q171 202 162
182T144 142Q138 136 131 136Q123 136 127 145Q132 165 140 178T149 202Q150 205 150 208T150 213Q150 227 138 232Q132 234 129 234Q116 234 99 222T71 189Q58 166 53 137T47 88Q47 64 64 49T107 35Q135 38 161 50T207 87Q210 89 213 89Q216 89 216 85Q216 81
214 75T209 66Z" />
<glyph unicode="d" glyph-name="d" horiz-adv-x="351" d="M445 551Q434 487 411 427T360 314T306 219T264 149T247 112Q247 112 249 100T256 73T269 45T288 33Q302 33 319 42T347 60Q367 77 372 77Q375 77 375 74Q375 70 370 61T360 48Q344 34 328 22T294 9Q267
9 252 25T230 62T218 93Q193 82 175 69T139 47T101 38Q66 38 40 61T14 113Q14 167 37 200T98 248T173 264Q199 264 221 258Q236 312 247 344T269 403T296 464Q310 498 330 532T376 598Q385 610 394 618T417 626Q436 626 442 614T448 584Q448 566 445 551ZM421 567Q408
557 383 519T333 431Q315 393 297 355T266 287T248 248Q255 241 255 220Q255 199 249 175Q254 182 275 215T323 296T373 395Q383 419 394 452T413 516T421 567ZM205 188Q206 196 207 203T208 215Q208 227 201 228Q192 231 184 231Q156 231 132 208T87 156Q83 150
78 134T72 101Q72 88 77 78T94 62Q96 61 102 61Q116 61 136 72T174 101T201 142Q205 152 205 164T205 188Z" />
<glyph unicode="e" glyph-name="e" horiz-adv-x="182" d="M245 122Q232 100 212 75T171 31T130 13Q99 13 82 16T53 27Q34 40 22 61T8 104Q7 110 7 116T7 127Q7 186 30 231T95 285Q108 287 115 275T122 241Q122 209 105 172Q98 157 91 144T78 122Q65 103 59 97T52
84Q52 68 72 53T134 38Q150 38 167 52T200 87T230 129Q236 139 241 139Q247 139 247 130Q247 126 245 122ZM95 248Q91 254 79 246T56 207Q49 185 49 156Q49 148 49 140T51 124Q68 153 75 167T87 198Q89 206 93 218T98 239Q98 245 95 248Z" />
<glyph unicode="f" glyph-name="f" horiz-adv-x="237" d="M315 618Q317 612 317 605Q317 584 308 547T285 472T262 405Q231 320 204 267T155 185T122 141T110 120Q117 105 122 77T128 27Q136 25 148 25Q158 25 169 27T190 33Q222 47 243 72T273 111Q277 116 281
116Q286 116 288 111T287 100Q267 69 246 47T198 13Q170 1 151 -1T132 -3Q130 -11 129 -19T124 -45T115 -96Q102 -164 83 -220T17 -316Q11 -320 6 -320Q-4 -320 -15 -313T-29 -294Q-32 -283 -34 -263T-37 -221T-38 -188Q-38 -145 -24 -75T15 82T75 260T152 436Q167
466 186 500T226 564T266 614T298 633Q310 633 315 618ZM278 568Q266 561 253 536T226 480T201 425Q174 370 147 306T93 156Q104 167 123 194T163 258T204 336T239 412Q251 440 261 470T277 526T283 562Q283 571 278 568ZM95 75Q93 83 90 91T78 98Q72 91 69 82T65
56Q65 56 71 51T88 48Q91 50 94 52T97 61Q97 64 97 67T95 75ZM99 5Q99 5 95 4T85 3Q77 3 67 7T53 25Q45 -7 41 -22T35 -44T32 -59T27 -86T17 -144Q13 -164 10 -189T7 -235Q7 -250 9 -259T17 -267Q23 -266 29 -255T43 -229T56 -205Q65 -191 69 -178T78 -142T92 -75Q95
-61 96 -43T98 -10T99 5Z" />
<glyph unicode="g" glyph-name="g" horiz-adv-x="311" d="M298 296Q304 289 304 273Q304 251 295 217T273 144T251 67T240 -4Q239 -44 236 -73T225 -129T206 -190T173 -275Q134 -323 89 -341T-4 -356Q-23 -354 -44 -331T-81 -270T-96 -187Q-96 -169 -93 -151Q-88
-121 -78 -91T-49 -41T2 -21Q28 -21 50 -40T88 -85T109 -129Q112 -141 114 -154T117 -181Q117 -204 108 -213Q98 -224 84 -224Q72 -224 57 -218Q47 -216 34 -205T21 -175Q21 -163 26 -152T35 -137Q42 -130 46 -130Q50 -130 51 -134T53 -144V-145Q53 -148 50 -151T47
-162Q47 -179 56 -186T70 -194Q83 -194 83 -168Q83 -147 71 -117Q61 -92 43 -74T2 -51Q-11 -49 -25 -57T-51 -89Q-58 -102 -60 -118T-63 -150Q-63 -171 -60 -186Q-58 -244 -29 -275T46 -307Q51 -307 56 -307T66 -306Q96 -302 124 -277T171 -216Q183 -195 188 -165T195
-101T202 -42Q204 -33 204 -27T204 -16Q204 -5 203 6T201 46Q201 54 201 64T202 87Q155 61 118 61Q73 61 43 100Q32 114 32 132Q32 156 48 182T92 233T152 275T216 298Q230 300 244 304T271 309Q288 309 298 296ZM248 222Q250 231 252 239T255 255Q255 260 254
265T248 275Q242 282 229 282Q212 282 188 269T142 234T107 180Q102 167 97 148T92 111Q92 95 97 87Q103 80 119 80Q134 80 152 86T184 104Q214 132 227 162T248 222Z" />
<glyph unicode="h" glyph-name="h" horiz-adv-x="315" d="M323 53Q305 27 284 14T243 0Q224 0 212 13Q198 37 193 62T184 129T170 239Q170 239 164 246T150 254Q145 254 139 249T127 228Q112 190 104 149T88 73T71 18Q64 4 53 4Q44 4 36 13Q36 13 37 31T42 77T47
131Q45 130 36 120T16 100T-4 91Q-10 98 2 112T29 145T51 182Q65 224 70 272T83 363Q98 456 113 526T151 634T207 673Q221 673 229 663T237 624Q237 620 237 614T236 602Q230 535 211 455T143 280Q154 283 165 283Q185 283 202 277T225 262Q231 254 233 244T235
221Q235 196 230 159T224 72Q224 55 235 47T263 38Q277 38 290 44T311 61Q312 63 317 63Q320 63 322 61T323 53ZM212 632Q212 641 208 641Q202 641 190 625T165 582T145 527Q133 481 125 445T112 358Q111 343 110 325T109 293T108 280Q123 304 140 329T168 388Q183
432 192 479T207 568T212 632Z" />
<glyph unicode="i" glyph-name="i" horiz-adv-x="185" d="M223 404Q216 404 210 406T197 413Q184 419 184 439Q184 448 188 459T203 480Q210 487 220 487Q229 487 237 480Q241 476 242 468T244 449Q244 437 242 426T235 409Q228 404 223 404ZM121 11Q84 11 70
28T56 69Q56 80 58 91T63 113Q53 95 32 72T-7 34Q-11 31 -15 31Q-21 31 -21 38Q-21 46 -15 52Q27 96 49 123T83 170T106 205Q115 234 122 261T146 318Q151 327 166 327Q176 327 184 322T192 305Q192 299 189 291Q178 260 166 239T133 184Q112 150 100 118T87 64Q87
50 93 41T113 32Q141 31 156 41T181 62Q194 76 203 88T221 109Q227 115 227 107Q227 102 225 94T219 82Q209 68 196 51T164 23T121 11Z" />
<glyph unicode="j" glyph-name="j" horiz-adv-x="155" d="M142 324Q136 318 127 318Q120 318 112 321T96 328Q81 336 81 357Q81 381 103 403Q111 411 121 411Q132 411 142 403Q147 399 149 388T151 365Q151 352 149 341T142 324ZM144 222Q134 191 128 171T115
123Q98 43 82 -13T42 -113T-18 -196Q-30 -203 -51 -215T-95 -236T-136 -246Q-147 -246 -155 -240Q-167 -231 -171 -219T-176 -194Q-176 -176 -170 -158T-160 -124Q-155 -108 -150 -102T-140 -96Q-134 -96 -131 -103Q-131 -110 -136 -120T-144 -151Q-144 -153 -144
-155T-145 -161Q-145 -174 -139 -189T-123 -212Q-119 -214 -115 -214Q-103 -214 -88 -206T-59 -187T-43 -171Q-27 -151 -4 -107T40 -3T67 124Q70 163 76 185T98 236Q107 252 120 252Q132 252 140 241T144 222Z" />
<glyph unicode="k" glyph-name="k" horiz-adv-x="324" d="M355 608Q339 572 330 548T315 505T299 463T272 411T224 333Q214 317 207 300T189 267Q200 275 212 290T244 320Q249 324 259 333T280 351T300 360Q317 360 328 342T340 307Q340 289 329 269T299 230T260
201T222 188L202 187Q201 180 200 161T198 121T197 84T196 68Q200 48 215 38T250 28Q262 28 274 32T296 45Q303 52 309 52Q317 52 317 42Q317 29 305 20Q274 -2 247 -2Q217 -2 197 19T169 65Q169 65 164 80T154 114T149 148Q149 160 150 170T152 191Q142 174 128
157T108 120Q101 94 83 65T53 13Q47 3 33 3Q26 3 20 7T15 18Q21 56 31 88T56 158Q65 182 70 193T79 219T89 262Q100 310 107 341T124 398T146 453T184 527Q188 535 202 561T237 619T282 676T328 707Q347 707 358 698T370 666Q370 655 367 641T355 608ZM332 680Q313
676 296 652T265 598T242 543T229 511Q214 483 209 472T201 453T196 433T182 388Q174 364 168 348T156 316T145 278Q141 256 141 249T136 228Q151 246 159 256T171 276T182 298T198 333Q221 381 237 415T267 479T296 540T331 618Q338 635 342 647T346 666Q346 678
332 680ZM305 304Q308 311 301 311Q294 311 277 302T255 288Q227 269 216 259T187 231Q200 226 213 226Q230 226 249 240T285 272T305 304Z" />
<glyph unicode="l" glyph-name="l" horiz-adv-x="245" d="M288 90Q280 72 254 47T192 4T120 -15Q68 -15 50 15T32 98Q32 133 38 184T56 294T86 413Q104 470 125 524T188 618Q195 629 206 629Q215 629 222 622T228 604Q228 604 228 579T224 519T215 451Q206 397
183 337T133 228Q112 187 100 169T81 143T71 122Q70 115 70 107T69 89Q69 71 71 55T78 33Q89 22 102 17T128 12Q139 12 148 15Q182 25 217 48T268 93Q275 103 279 106T287 110Q292 110 292 103Q292 101 291 98T288 90ZM197 562Q187 564 166 518T121 393Q114 369
106 332T89 256T77 184Q109 249 135 301T175 398Q188 434 194 475T201 540Q201 559 197 562Z" />
<glyph unicode="m" glyph-name="m" horiz-adv-x="327" d="M333 52Q330 46 315 31T276 12Q260 10 254 30T247 78Q247 89 248 100T251 122Q253 133 255 143T257 160Q257 177 244 173Q235 162 228 140T215 107Q204 82 197 65T179 48Q170 48 170 65Q170 79 174 94T178
109Q183 123 187 140T195 171T198 185Q198 187 198 191T199 199Q199 207 197 214T184 222Q178 223 165 211T138 181T116 148Q103 121 98 93T90 42T78 3Q75 -3 66 -3Q59 -3 52 1T44 12Q46 30 52 55T67 115Q70 127 72 143T75 167V169Q75 183 62 183Q57 183 51 180Q32
164 19 145T-2 112T-18 95Q-21 94 -21 101Q-21 105 -20 110T-15 120Q-6 129 4 149T25 190T51 227T83 243Q93 243 103 229T116 193Q133 207 148 223T183 253Q191 257 200 257Q215 257 220 248Q227 239 228 222T231 204Q233 203 240 210T262 216Q267 216 276 210T285
195Q285 182 283 164T278 125Q277 121 277 115T277 100Q277 87 279 73T292 51Q295 48 300 48Q311 48 329 67Q332 70 334 70Q337 70 337 64Q337 56 333 52Z" />
<glyph unicode="n" glyph-name="n" horiz-adv-x="264" d="M206 182Q206 159 203 148T194 130T182 114T173 88T169 37Q169 24 179 16T202 8Q208 8 208 4Q208 -1 201 -8T187 -16Q165 -16 155 1T145 39Q145 72 147 91T151 128T152 172Q151 190 147 200T126 211Q117
211 114 208T105 198Q94 182 87 154T75 94T67 38T60 5Q57 -2 53 -5T43 -8Q39 -8 36 -7T30 -4Q25 -1 25 6Q25 13 28 22T34 40Q36 48 40 68T50 111T58 150T62 167Q57 167 52 167T42 166Q27 166 27 178Q27 186 33 202T55 244Q60 252 75 264T100 274Q104 276 107 276T112
276Q123 276 124 269T125 254T126 247Q140 253 154 253Q175 253 190 237T206 182Z" />
<glyph unicode="o" glyph-name="o" horiz-adv-x="242" d="M233 188Q233 167 224 133T200 69Q186 38 169 24T135 4T109 -7Q105 -8 101 -9T91 -11Q71 -11 60 0Q56 4 48 8T32 22T25 55Q25 79 31 101Q13 122 13 147Q13 162 20 176Q39 212 68 232T123 260T160 268Q197
268 215 244T233 188ZM192 183Q192 206 177 221T138 236Q119 236 100 225T66 196T48 163Q47 157 47 152T46 142Q57 166 69 182T88 202Q93 206 101 206Q112 206 112 200Q112 196 102 186T78 159T56 118Q64 108 77 104T104 99Q118 99 130 104T147 120Q148 123 148
125T149 130Q149 140 141 142T124 144H122Q111 144 111 149Q111 152 113 155T118 160Q124 166 131 166Q141 166 153 153Q164 138 164 124Q164 106 147 96T108 82T76 78Q60 78 50 85Q49 83 49 76Q49 48 64 39T89 24Q95 22 99 22Q113 22 128 34T156 67Q165 83 173
105T186 148T192 183Z" />
<glyph unicode="p" glyph-name="p" horiz-adv-x="292" d="M327 77Q299 41 277 25T232 4T181 0Q156 0 134 4T102 15Q99 -5 97 -33T83 -118Q67 -196 40 -247T-30 -304Q-45 -306 -51 -291T-57 -253Q-57 -233 -53 -211T-44 -171Q-32 -130 -25 -110T-12 -77T0 -49T15
-4Q18 6 22 19T33 49Q32 57 29 60T26 69Q26 87 44 97T74 104Q76 124 77 153T81 211T92 264T111 296Q119 298 124 298Q139 298 143 289Q144 287 144 281V272Q144 265 147 263Q160 257 180 257T213 249Q227 241 238 224T249 176Q249 166 245 141T226 88T181 42Q200
34 218 34Q243 34 269 49T323 102Q328 108 331 108Q337 108 337 100Q337 91 327 77ZM218 189Q218 207 201 222T165 238Q143 238 131 218T113 164T101 91Q102 90 102 90T103 90Q105 90 106 91T110 92Q112 92 116 91T124 85Q135 76 144 70T158 64Q168 64 178 75T198
102T211 131Q217 149 217 166T218 189ZM151 47Q151 47 139 51T116 62Q114 63 110 63Q105 63 105 55Q105 51 107 47T113 40Q125 37 138 42T151 47ZM68 28Q66 30 62 31T53 35Q39 -14 26 -53T1 -131T-20 -221Q-21 -228 -21 -233T-22 -243Q-22 -256 -17 -256Q-12 -256
-5 -248T7 -230Q33 -190 40 -164T49 -116T56 -64Q60 -44 63 -24T68 12T68 28Z" />
<glyph unicode="q" glyph-name="q" horiz-adv-x="285" d="M383 -228Q379 -244 365 -269T329 -313T277 -333Q263 -333 251 -329Q225 -320 210 -274T188 -154T182 15V49Q170 40 162 29T134 10T71 2Q48 2 28 13T8 65Q8 75 9 87T15 115Q27 162 43 189T92 229Q111 237
140 244T192 256Q198 258 203 269T216 291Q220 296 225 299T236 303Q241 303 249 298Q256 293 259 279T262 253Q261 247 257 239T251 220Q249 207 241 183T233 143Q233 132 229 84T225 -33Q225 -52 225 -73T227 -115Q231 -180 236 -218T248 -276T262 -300T275 -305Q299
-302 316 -284T344 -240Q356 -210 356 -188Q356 -163 344 -163Q340 -163 331 -169T320 -191V-194Q320 -202 324 -205T327 -213Q326 -218 325 -222T320 -227Q315 -227 308 -220Q304 -216 299 -205T294 -182Q294 -164 307 -153T331 -138Q348 -133 356 -133Q369 -133
382 -144Q391 -153 391 -176Q391 -188 389 -202T383 -228ZM184 192Q181 203 165 203Q155 203 142 198Q116 189 93 156T65 85Q64 76 68 64T82 41T103 31Q106 31 109 31T115 33Q141 43 153 54T178 93Q183 106 185 122T187 155Q187 169 186 179T184 192Z" />
<glyph unicode="r" glyph-name="r" horiz-adv-x="251" d="M238 54Q242 58 249 58Q256 58 256 52Q256 45 240 30Q224 15 205 6T169 -7Q161 -8 148 -2T131 12Q127 21 125 32T123 57Q123 88 130 121T143 178Q131 174 117 174T91 172Q84 162 79 150T65 122Q49 96 30
71T-10 29T-49 13Q-62 13 -62 20Q-62 27 -45 33Q-21 42 4 71T49 131Q59 146 62 158T65 178Q65 178 57 188T48 209Q48 231 62 249T93 262Q104 259 107 252T111 237Q111 228 108 219T102 202Q105 198 115 198Q130 198 148 204Q161 223 173 234T195 243Q202 242 208
238T214 223Q214 214 205 196Q190 169 177 138T157 81T151 45Q153 32 158 28T171 24Q176 24 181 25T192 28Q207 33 217 39T238 54ZM89 223Q89 232 83 236Q82 237 80 237Q75 237 71 231T67 218Q67 213 68 207T75 203Q80 206 84 211T89 223Z" />
<glyph unicode="s" glyph-name="s" horiz-adv-x="212" d="M240 68Q227 55 217 42T173 12Q169 6 156 -6T103 -20Q77 -21 62 -8T38 25T24 60Q23 59 15 52T-1 38T-12 29Q-13 28 -16 28Q-21 28 -24 33T-24 43Q-5 62 5 72T23 93T42 118Q59 144 78 164T103 195Q104 196
104 199Q104 202 102 204T98 209Q94 225 94 239Q94 261 111 291Q118 296 130 299T149 300Q157 296 159 291T164 278Q164 277 164 276T165 273Q165 267 163 260T158 245Q158 241 149 230T142 216Q148 203 162 182Q179 158 185 138T192 102Q192 83 187 69T178 45Q187
44 199 54T222 78T240 98Q246 104 249 104Q254 104 250 89T240 68ZM143 260Q143 264 142 269T136 275H135Q130 275 127 271T122 262Q119 254 117 249T118 238Q122 236 132 246T143 260ZM145 100Q145 115 140 132T128 164T118 182Q118 182 106 168T80 136Q71 126
62 110T51 82Q51 82 60 71T82 49T109 42Q129 47 137 65T145 100ZM111 22H102Q98 22 93 22T83 24Q78 26 68 32T58 38Q58 38 58 36T57 31Q57 27 58 22T65 12Q73 6 79 3T95 2Q102 4 106 13T111 22Z" />
<glyph unicode="t" glyph-name="t" horiz-adv-x="215" d="M282 395Q282 395 282 388T278 371T256 351Q250 347 234 345T198 342Q187 313 174 284T147 228Q126 188 112 169T89 141T78 118Q77 112 77 107T76 97Q76 60 97 43T139 26Q162 26 185 42T223 73Q235 83
241 83Q245 83 245 79Q245 72 234 57Q228 49 214 35T179 10T132 -2Q80 -2 63 22T45 102Q45 146 54 210T82 347Q77 347 72 347T63 348Q50 348 43 344Q37 341 33 341Q23 341 23 356Q23 373 32 382Q39 389 56 389Q69 389 91 384Q93 390 95 395T98 405Q100 415 102
421T107 436Q124 487 144 534T202 618Q209 629 221 629Q230 629 237 622T243 604Q243 604 242 579T238 519T229 451Q226 432 221 411T207 367Q213 366 218 366T229 365Q244 365 252 369Q261 374 262 379T264 384Q264 404 274 404Q279 404 282 395ZM211 562Q205
563 192 539T164 476T135 393Q134 389 133 386T131 378Q138 376 145 375T160 372Q164 371 169 371T178 369Q182 380 185 388T191 404Q202 441 209 480T216 541Q216 559 211 562ZM167 342H149Q142 342 136 342T123 343Q114 305 106 262T92 184Q104 198 117 224T143
281T167 342Z" />
<glyph unicode="u" glyph-name="u" horiz-adv-x="287" d="M311 63Q285 32 266 20T233 8Q215 8 203 22T182 54T168 78Q149 61 123 43T80 24Q48 24 30 40T12 89Q12 122 20 167T42 256T67 331Q70 340 79 346T99 352Q111 352 115 346T119 332Q119 322 116 313T112
303Q100 269 85 232T56 148Q55 142 54 131T52 108Q52 91 56 77T74 62Q85 62 103 75T141 111T171 164Q181 191 189 223T203 283T216 328Q219 335 225 335Q233 335 239 329T244 318Q240 308 233 285T219 234T206 180T196 135T192 115Q192 100 195 88T205 62Q210 54
217 45T233 35Q252 35 269 48T296 75Q303 86 309 86Q315 86 315 75Q315 67 311 63Z" />
<glyph unicode="v" glyph-name="v" horiz-adv-x="227" d="M253 273Q247 251 239 232T220 198Q202 173 180 144T138 78Q123 61 108 40T78 6T52 -5Q42 -2 36 13T26 48T23 86T23 111Q28 136 35 160T43 198Q43 203 28 208T4 223Q3 224 3 229Q3 235 5 241T11 244Q20
234 32 228T45 222Q63 227 67 244T85 276Q96 288 104 288Q117 288 122 273Q123 270 125 266T127 256Q127 247 122 238Q115 225 108 216T78 198Q73 193 64 167T55 102Q55 82 58 66T80 48Q100 63 122 93T158 158Q162 169 170 189T190 232T214 275T236 305Q242 308
246 308Q256 308 256 292Q256 281 253 273ZM96 238Q96 244 93 247H92Q89 247 87 244T83 236Q80 231 84 227Q85 226 87 226Q94 226 96 238Z" />
<glyph unicode="w" glyph-name="w" horiz-adv-x="360" d="M373 227Q377 219 377 207Q377 200 375 196T364 198Q359 203 355 203Q348 203 342 195Q335 185 323 158T294 96T256 31T211 -22T158 -43Q137 -43 129 -29T119 3T115 32Q97 18 87 13T68 7Q64 7 59 8T47
11Q32 15 27 40T22 88Q22 107 27 128T38 168T43 198Q43 203 28 208T4 223Q3 224 3 229Q3 235 5 241T11 244Q20 234 32 228T45 222Q63 227 67 244T85 276Q96 288 104 288Q117 288 122 273Q123 270 125 266T127 256Q127 247 122 238Q115 225 108 216T78 198Q73 193
64 167T55 102Q55 82 62 66T88 48Q122 69 133 96T158 158Q175 204 218 247Q224 250 228 250Q238 250 238 234Q238 230 237 225T235 215Q223 170 202 140Q184 115 170 96T145 53Q145 42 152 24T178 5Q185 5 192 8Q210 16 232 37T279 105Q289 123 299 146T318 189T328
218Q334 243 350 243Q361 243 373 227ZM96 238Q96 244 93 247H92Q89 247 87 244T83 236Q80 231 84 227Q85 226 87 226Q94 226 96 238Z" />
<glyph unicode="x" glyph-name="x" horiz-adv-x="353" d="M328 19Q307 5 288 5Q260 5 239 31T196 93Q194 96 193 98T189 104Q177 88 167 73T149 47Q132 24 109 13T64 2Q42 2 26 12T10 41Q10 52 20 52Q25 52 33 47T51 29Q56 24 62 24Q76 24 97 41T131 76Q139 87
151 104T176 140Q167 172 164 201T156 251Q147 289 107 295Q97 297 90 301T76 305Q70 305 65 300Q57 292 51 281T48 258Q51 250 56 234T69 218Q80 216 92 223T115 235Q123 238 128 238Q140 238 140 229Q140 218 125 213Q110 208 99 200T72 193Q47 197 33 216T18
264Q18 296 44 322Q57 335 69 340T97 345Q102 345 108 345T120 343Q149 338 166 325T193 285Q199 270 202 245T212 191Q221 204 229 213T242 229Q270 262 278 279T289 309Q291 322 298 329T311 337Q319 337 319 328Q319 315 307 281T258 203Q244 185 222 151Q226
129 238 109Q255 81 268 57T301 33Q314 33 326 42Q337 50 345 50Q352 50 352 45Q352 41 347 35T328 19Z" />
<glyph unicode="y" glyph-name="y" horiz-adv-x="291" d="M268 296Q274 287 274 276Q274 254 260 221T230 147T214 65Q213 11 213 -46T200 -157T148 -257Q116 -294 81 -307T6 -321Q-1 -321 -9 -321T-25 -319Q-44 -317 -66 -301T-104 -255T-120 -182Q-120 -167
-117 -149Q-112 -119 -102 -89T-73 -38T-22 -18Q4 -18 27 -37T65 -82T86 -126Q89 -138 91 -151T94 -178Q94 -201 85 -210Q75 -221 60 -221Q49 -221 34 -215Q24 -213 11 -202T-3 -172Q-3 -160 2 -149T12 -134Q20 -128 23 -128Q28 -128 30 -141V-142Q30 -146 26 -150T23
-164Q25 -178 34 -184T47 -191Q60 -191 60 -165Q60 -144 48 -114Q38 -89 20 -71T-22 -49Q-34 -47 -48 -55T-74 -86Q-81 -99 -83 -115T-86 -148Q-86 -167 -83 -184Q-81 -239 -55 -264T15 -290Q21 -290 27 -290T41 -288Q71 -284 99 -258T146 -198Q162 -169 166 -150T171
-104Q171 -87 171 -66T170 -14Q170 6 170 31T172 87Q119 59 85 59Q58 59 35 76Q27 82 24 91T20 112Q20 136 32 165T60 220T88 258Q95 270 104 270Q112 270 117 261T117 247Q104 236 95 220T78 187Q71 170 71 143Q71 133 72 123T78 108Q83 102 96 102Q108 102 123
107T148 122Q172 144 182 168T199 216Q202 228 206 244T210 278Q210 284 223 294T250 305Q261 305 268 296Z" />
<glyph unicode="z" glyph-name="z" horiz-adv-x="403" d="M370 40Q368 17 347 -4T292 -25Q212 -25 152 -15T48 3Q44 4 40 4T31 4Q24 4 19 4T13 3Q2 3 2 19Q2 31 8 40Q22 59 45 78T92 114T132 148Q156 173 186 191T241 226T267 258Q247 260 236 260T205 264Q186
268 171 268Q165 268 160 268T147 267Q142 267 136 267T123 269Q123 269 115 268T100 262T98 249Q103 241 92 235T69 229Q56 229 52 236Q47 246 47 253Q47 270 61 281T89 298T104 304Q133 300 158 299T211 291Q223 288 234 287T258 286Q272 286 288 287T323 288Q329
288 331 281T334 266Q334 258 332 250T324 238Q288 215 265 202T225 179T193 157T156 124Q145 114 128 99T96 69T82 46Q82 39 91 38Q129 32 151 26T186 15T211 5T242 -1T292 -4Q315 -4 330 11T347 42Q347 45 347 48T348 56Q348 76 341 95T312 119Q309 120 306 120T300
120Q297 120 294 120T287 118Q273 111 273 100Q273 94 278 86T291 77Q299 77 304 88Q311 100 324 100Q332 100 329 92Q321 75 311 68T289 61Q273 61 262 73T250 99Q250 125 278 137Q286 141 296 144T317 145Q339 141 351 123T367 83T370 40Z" />
<glyph unicode="{" glyph-name="braceleft" horiz-adv-x="283" d="M221 572Q200 567 178 558T140 530T124 472Q124 435 121 407T107 353T71 301Q102 279 107 255T112 201Q112 187 109 162T101 112T97 72Q97 42 119 22T177 -9T249 -19Q254 -19 254 -25Q254 -33
243 -44T222 -55H220Q158 -55 115 -21T72 78Q72 90 74 115T77 164T79 198Q79 218 73 239T58 276T39 294Q18 298 18 307Q18 316 26 318Q30 318 38 322T54 330Q68 339 71 382T74 487Q74 525 90 546T134 578T191 594T250 605H253Q263 605 263 594Q263 584 251 579Q244
577 237 576T221 572Z" />
<glyph unicode="|" glyph-name="bar" horiz-adv-x="310" d="M181 278Q181 217 183 157T190 35Q192 15 193 -6T196 -47Q197 -55 198 -63T199 -80Q199 -92 189 -102T168 -113Q157 -113 154 -103T150 -84Q150 26 151 136T153 356Q153 400 152 444T151 534Q151 549
152 569T161 600Q163 603 166 605T172 609Q183 617 195 617Q200 617 210 615T221 604Q221 603 221 603T220 601Q202 555 194 499T184 385T181 278Z" />
<glyph unicode="}" glyph-name="braceright" horiz-adv-x="273" d="M40 -22Q61 -16 83 -8T121 20T137 78Q137 115 140 143T154 197T190 249Q159 272 154 296T149 349Q149 363 153 388T160 438T164 478Q164 509 142 529T84 559T12 569Q7 569 7 575Q7 583 18 594T39
605H41Q103 605 146 571T189 472Q189 460 188 435T184 386T182 352Q182 332 188 311T203 274T222 256Q243 252 243 243Q243 234 235 232Q231 232 223 229T207 220Q194 211 191 168T187 63Q187 25 171 4T127 -28T70 -44T11 -55H8Q-2 -55 -2 -44Q-2 -34 10 -29Q18
-27 25 -26T40 -22Z" />
<glyph unicode="~" glyph-name="asciitilde" horiz-adv-x="222" d="M160 425Q137 425 123 433T98 452T77 471T52 479Q44 479 35 474T26 454Q26 443 23 435T13 427Q6 427 4 435T1 453T0 467Q0 495 18 506T62 517Q84 517 100 504T131 478T159 465Q172 465 180 477T194
502T210 514Q214 514 218 512T222 504Q222 470 206 448T160 425Z" />
<glyph unicode="&#xa0;" glyph-name="uni00A0" horiz-adv-x="159" />
<glyph unicode="&#xa1;" glyph-name="exclamdown" horiz-adv-x="223" d="M197 250Q199 244 199 242Q199 232 190 223T179 205Q176 195 166 195Q158 195 149 200T135 212Q130 218 130 229Q130 239 136 248T152 261Q162 266 171 266Q190 266 197 250ZM124 83Q120
70 110 43T92 -9T80 -46Q70 -92 63 -138T50 -211Q42 -265 38 -293T26 -335T1 -364Q-3 -368 -14 -368Q-28 -368 -41 -362T-51 -347Q-30 -310 -23 -279T-12 -217T-1 -153T30 -79Q44 -54 48 -26T65 24Q74 38 88 64T112 109Q118 122 125 122Q131 122 131 112Q131 103
124 83Z" />
<glyph unicode="&#xa2;" glyph-name="cent" horiz-adv-x="344" d="M174 29Q164 1 153 -28T128 -84Q122 -97 112 -97Q103 -97 103 -88Q103 -85 105 -81Q116 -53 124 -25T141 32Q99 42 71 75T43 152Q43 190 60 226T108 290T175 326Q183 349 190 373T203 422Q206
434 208 445T213 469Q217 482 228 482Q234 482 239 478T244 467Q244 454 235 428T216 374T201 330H207Q229 330 252 319T275 281Q275 264 259 247T221 218T183 207Q163 207 152 221T141 254Q141 274 152 293Q119 271 101 237T82 162Q82 113 110 84T188 54Q213 54
238 63T279 92Q283 96 285 100T291 108Q296 117 303 117Q307 117 307 111Q307 107 305 103T301 95Q281 64 246 47T174 29ZM234 304Q219 309 205 309H196Q193 291 183 272T172 232Q172 222 179 222Q191 222 205 234T229 262T240 289Q240 298 234 304Z" />
<glyph unicode="&#xa3;" glyph-name="sterling" horiz-adv-x="537" d="M374 -73Q342 -73 322 -68T285 -54T242 -37Q224 -31 200 -19T156 1Q154 3 151 4T146 7Q125 -2 103 -7T59 -13Q48 -13 32 -2T16 26Q16 36 28 49T52 63Q69 63 92 55T136 35Q148 33 158 39T176
49Q205 65 220 92T243 152Q226 152 218 153Q215 154 206 154Q200 154 193 154T178 153Q172 153 167 153T158 155Q145 162 145 168Q145 174 156 174Q165 174 181 176T211 178H248Q254 219 255 262T261 346T281 415Q291 435 312 459T360 502T415 521Q431 521 447
519T472 509Q495 491 502 474T509 416Q509 395 495 371T464 329T434 306Q427 303 423 303Q420 303 420 306Q420 313 428 318Q448 335 460 360T472 402Q472 411 472 426T468 458T452 485T417 496Q379 496 360 476T328 430Q313 400 304 358T286 269T266 178H301Q336
178 346 172Q354 171 354 164Q354 159 349 155T336 150Q325 150 303 150T259 151Q250 118 238 91T208 46Q194 31 173 20Q190 14 201 10T230 0Q257 -8 274 -19T310 -39T360 -48Q383 -48 406 -42T444 -21T460 17Q460 37 446 47T411 57Q394 57 384 43T369 18Q362 3
357 3Q352 3 352 15Q352 21 354 29T362 45Q370 57 380 64T411 71Q437 71 459 56T481 15Q481 -11 466 -31T426 -62T374 -73ZM59 1Q77 1 91 6T117 20Q104 27 91 32T64 37Q56 37 49 33T42 22Q42 12 47 7T59 1Z" />
<glyph unicode="&#xa4;" glyph-name="currency" horiz-adv-x="398" d="M291 627Q296 632 302 632Q308 632 313 628T318 618Q318 613 314 609Q303 596 297 591T275 571Q289 549 289 523Q289 493 270 468Q280 458 291 450T306 435Q316 428 316 421Q316 415 311 412T298
408Q293 408 288 411Q280 416 273 428T252 451Q241 438 228 436T199 433Q183 433 172 438T149 449Q133 442 125 429T109 411Q105 407 98 407Q89 407 83 415T82 430Q88 438 100 450T120 482Q116 486 113 497T109 523Q109 555 130 581Q121 589 113 596T95 619Q91
623 91 630Q91 637 96 643T107 650Q111 650 115 647Q127 637 132 628T154 601Q162 606 175 613T199 620Q228 620 238 610T255 594Q263 602 269 610T291 627ZM198 462Q221 462 239 482T258 524Q258 547 245 566T210 586Q184 586 160 568T136 524Q136 502 156 482T198
462Z" />
<glyph unicode="&#xa5;" glyph-name="yen" horiz-adv-x="381" d="M214 103Q208 80 198 46T173 -19T137 -60Q128 -64 112 -64Q101 -64 91 -62T74 -52Q72 -48 72 -47Q72 -44 80 -38Q94 -31 110 -32T133 -30Q147 -23 155 2T170 57T179 109Q173 111 167 111T153 111Q132
111 119 103T101 94Q97 94 95 98T92 105Q92 112 104 120T131 134T155 140Q163 140 169 140T182 138Q183 170 183 184T185 206Q178 206 170 207T153 208Q132 208 119 199T101 190Q97 190 95 194T92 201Q92 209 104 217T131 231T155 237Q162 237 167 237T179 235Q174
247 170 260T161 286Q158 294 151 316T133 362T109 404T80 422Q71 422 60 414T38 397T16 388Q10 388 8 391T5 399Q5 412 20 421T57 437T92 443Q116 443 134 427T166 384T191 330T209 277T223 238Q230 246 246 263T277 297T299 321Q317 345 330 371T376 430Q383
437 397 453T422 476Q427 479 433 479Q443 479 452 472T461 450Q461 442 452 437T434 427Q410 408 390 387T348 344Q322 319 294 284T240 223Q245 222 252 222T266 222Q278 222 289 223T308 226Q309 226 309 226T311 227Q316 227 318 223T321 216Q321 209 313 206Q302
201 286 199T253 196Q245 196 238 196T224 198Q223 191 222 168T218 130Q238 125 267 125Q291 125 308 130H311Q316 130 318 126T321 119Q321 112 313 109Q301 104 286 102T255 99Q245 99 234 100T214 103Z" />
<glyph unicode="&#xa6;" glyph-name="brokenbar" horiz-adv-x="310" d="M153 334V356Q153 400 152 444T151 534Q151 549 152 569T161 600Q163 603 166 605T172 609Q183 617 195 617Q200 617 210 615T221 604Q221 603 221 603T220 601Q198 543 191 471T181 330L153
334ZM182 223Q183 176 185 129T190 35L196 -47Q197 -55 198 -63T199 -80Q199 -92 189 -102T168 -113Q157 -113 154 -103T150 -84Q150 -7 150 69T152 222L182 223Z" />
<glyph unicode="&#xa7;" glyph-name="section" horiz-adv-x="586" d="M537 90Q537 50 522 12T483 -59Q478 -66 472 -74T455 -85Q431 -140 381 -178T269 -236T150 -256Q96 -256 64 -227T31 -142Q31 -117 45 -87T81 -32T126 4Q150 16 179 16Q196 16 217 9T254 -13T270
-47Q270 -68 252 -84T209 -110T166 -120Q155 -120 146 -115T136 -96Q136 -94 137 -89T142 -83Q143 -83 145 -88T148 -94Q154 -101 162 -101Q175 -101 195 -90T232 -62T248 -31Q248 -15 234 -10T207 -4Q169 -4 136 -29T82 -92T61 -167Q61 -203 85 -216T140 -229Q168
-229 206 -219T284 -191T359 -148T415 -93T437 -31Q437 2 416 25T359 65T282 95T198 122T120 152T64 190T42 242Q42 278 60 301T109 340Q96 352 89 367T81 400Q81 425 94 445T128 481T168 509Q204 530 248 540T334 551Q375 551 412 541Q410 549 409 558T408 575Q408
579 409 588T413 607T421 616Q424 616 424 612Q424 605 423 598T421 583Q421 572 423 559T429 535Q446 525 466 510T501 476T516 434Q516 421 509 413T489 405Q470 405 456 422T433 461T419 498Q404 504 388 506T355 508Q315 508 277 499Q261 496 236 488T187 468T147
439T130 401Q130 376 153 361T213 334T294 310T383 281T464 236T522 165Q537 131 537 90ZM504 72Q504 112 482 144T425 200T348 241T266 271T196 290Q165 299 136 318Q125 310 110 305T82 290T70 260Q70 257 70 254T71 248Q76 226 106 210T182 180T277 150T370
110T440 54T467 -28Q483 -7 493 19T504 72Z" />
<glyph unicode="&#xa8;" glyph-name="dieresis" horiz-adv-x="150" d="M64 426Q64 413 53 402T28 390Q16 390 8 398T0 419Q0 436 12 443T38 450Q49 450 56 444T64 426ZM150 426Q150 413 139 402T114 390Q102 390 94 398T86 419Q86 436 98 443T124 450Q135 450
142 444T150 426Z" />
<glyph unicode="&#xa9;" glyph-name="copyright" horiz-adv-x="281" d="M170 283Q141 283 115 292T72 322T55 375Q55 420 90 452Q92 468 107 478T141 494T173 500Q188 500 200 494Q203 495 206 495T211 495Q216 495 225 493T235 485Q235 482 232 480T227 477Q250
460 266 435T283 380Q283 363 277 348T260 318Q245 299 220 291T170 283ZM273 385Q273 403 263 423T236 459T202 481Q175 477 146 463T96 427T75 372Q75 334 102 316T164 297Q191 297 216 306T257 335T273 385ZM232 350Q221 335 203 325T167 315Q148 315 134 326T119
371Q119 392 135 419T182 459Q185 461 191 461Q203 461 209 455Q213 452 213 445T212 433Q211 426 206 415T196 392Q192 388 189 388T187 394Q189 405 194 412T199 425Q199 427 199 429T200 432Q200 439 193 442Q179 448 168 436T149 405T142 368Q142 355 149 344T175
332Q190 332 205 339T231 361Q233 362 233 362T234 363Q236 363 236 360Q236 354 232 350Z" />
<glyph unicode="&#xaa;" glyph-name="ordfeminine" horiz-adv-x="311" d="M310 386Q313 389 317 389T321 383Q321 379 318 373T304 359Q293 349 282 342T251 335Q220 335 209 350T195 375Q186 368 177 357T149 337T98 328Q79 328 65 337T50 376Q50 384 51 393T55
415Q64 451 76 471T114 502Q129 509 151 514T191 523Q196 525 200 534T210 550Q217 559 225 559Q230 559 235 555Q240 551 242 541T244 521Q244 517 241 510T237 495Q235 485 229 467T223 436Q223 426 222 410T221 388Q229 369 245 364T272 360Q280 362 291 370T310
386ZM185 474Q183 482 176 489T157 492Q138 485 115 460T92 394Q92 386 97 374T110 354T127 350Q146 358 158 372T180 407Q185 416 186 427T187 449Q187 468 185 474Z" />
<glyph unicode="&#xab;" glyph-name="guillemotleft" horiz-adv-x="329" d="M256 271Q262 274 274 269T286 257Q286 254 278 246T268 235Q257 220 233 192T185 144Q202 114 219 92T259 46Q262 43 273 37T284 22Q284 17 272 11Q271 10 264 10T254 10Q250 10 246
12Q238 17 222 33T189 72T160 113T147 144Q147 152 152 156Q178 182 196 203T241 255Q243 256 248 263T256 271ZM136 271Q142 274 154 269T166 257Q166 254 158 246T148 235Q137 220 113 192T65 144Q82 114 99 92T139 46Q142 43 153 37T164 22Q164 17 152 11Q151
10 144 10T134 10Q130 10 126 12Q118 17 102 33T69 72T40 113T27 144Q27 152 32 156Q58 182 76 203T121 255Q123 256 128 263T136 271Z" />
<glyph unicode="&#xac;" glyph-name="logicalnot" horiz-adv-x="581" d="M444 65Q441 64 439 64T435 63Q424 63 424 75Q424 81 431 104T445 159Q450 182 458 199T473 238Q465 245 451 247T418 249Q401 249 381 248T339 247Q317 247 289 249T233 252T185 254Q169
254 144 254T97 254T68 255Q50 255 50 271Q50 277 53 283T58 290Q78 287 122 286T222 284Q282 284 344 285T456 288T531 292Q526 273 516 245T496 193T484 158Q477 141 468 117T457 84Q455 77 451 72T444 65Z" />
<glyph unicode="&#xad;" glyph-name="uni00AD" horiz-adv-x="326" d="M269 178Q278 175 278 168Q278 162 273 157T259 152Q246 152 222 152T173 153T136 155Q132 156 123 156Q116 156 109 156T94 155Q81 155 73 158Q60 165 60 173Q60 180 71 180Q81 180 98 182T128
185H222Q241 185 252 183T269 178Z" />
<glyph unicode="&#xae;" glyph-name="registered" horiz-adv-x="281" d="M170 283Q141 283 115 292T72 322T55 375Q55 420 90 452Q92 468 107 478T141 494T173 500Q188 500 200 494Q203 495 206 495T211 495Q216 495 225 493T235 485Q235 482 232 480T227 477Q250
460 266 435T283 380Q283 363 277 348T260 318Q245 299 220 291T170 283ZM273 385Q273 403 263 423T236 459T202 481Q175 477 146 463T96 427T75 372Q75 334 102 316T164 297Q191 297 216 306T257 335T273 385ZM229 427Q229 415 218 406T193 391T170 379H169Q181
370 194 363T220 347Q222 346 224 345T226 341Q226 339 224 339T219 338Q215 338 198 345T164 362T148 377Q148 380 149 381Q149 388 162 393T188 404T201 418Q201 425 191 426T176 427Q159 427 142 424V411Q142 398 143 385T146 359Q147 354 148 349T149 338Q149
334 144 331T134 327Q126 327 126 336Q126 359 127 385T129 433Q130 442 143 444T162 446H198Q207 446 218 442T229 427Z" />
<glyph unicode="&#xaf;" glyph-name="overscore" horiz-adv-x="172" d="M165 415Q172 412 172 405Q172 399 168 394T157 389Q147 389 128 389T89 390T60 392Q57 393 50 393Q44 393 38 393T27 392Q16 392 10 395Q0 402 0 410Q0 417 8 417Q16 417 29 419T54 422H128Q156
422 165 415Z" />
<glyph unicode="&#xb0;" glyph-name="degree" horiz-adv-x="338" d="M267 596Q267 576 251 556T213 523T171 509Q142 509 124 531T106 582Q106 620 130 644T192 669Q224 669 245 649T267 596ZM239 596Q239 617 225 629T191 641Q166 641 150 624T133 582Q133 566
143 552T171 537Q183 537 199 546T227 570T239 596Z" />
<glyph unicode="&#xb1;" glyph-name="plusminus" horiz-adv-x="384" d="M261 224Q254 224 248 224T234 225Q233 197 225 163T195 108Q190 101 183 101Q178 101 176 106T173 115Q173 122 179 128Q190 138 194 156T198 194T199 228V232Q165 239 127 239Q101 239
82 228T58 217Q53 217 49 221T45 231Q45 237 51 241Q65 253 88 264T131 275Q148 275 165 274T199 267Q199 293 200 318T201 369Q201 382 214 382Q227 382 227 369Q227 341 229 314T233 259Q244 258 256 258T279 257Q293 257 307 257T335 261Q337 262 340 262Q353
262 353 249Q353 241 344 237Q336 234 320 231T287 226T261 224ZM236 15Q210 15 191 23T142 31Q122 31 110 20T94 8Q89 8 87 13T84 22Q84 31 95 41T121 58T144 66Q174 66 193 57T240 48H248Q257 48 268 48T288 53H291Q296 53 298 49T300 40Q300 31 294 28Q285 24
266 20T236 15Z" />
<glyph unicode="&#xb2;" glyph-name="uni00B2" horiz-adv-x="392" d="M352 334Q352 297 323 275T247 252Q211 252 182 266T123 298Q125 297 119 300T107 308T97 313Q87 309 76 306T54 299Q52 298 49 298Q37 298 41 309Q44 320 55 331T77 342Q83 342 88 340T98
336Q112 343 127 352T158 376Q170 385 181 394Q214 418 241 446T268 520Q268 553 246 574T191 596Q141 596 121 572T101 523Q101 502 116 481T160 460Q173 460 189 465T217 483T229 519Q229 538 216 552T183 567Q165 567 152 554T138 523Q138 519 147 508T160 497Q171
497 184 499T197 514Q197 519 194 522T186 528Q185 530 184 531T181 533Q178 536 178 540Q178 545 184 548T194 546Q196 545 196 544T200 541Q206 536 211 530T217 514Q217 499 206 492T181 483T156 481Q140 481 130 496T119 523Q119 546 138 564T183 582Q210 582
229 563T249 518Q249 497 234 480T197 452T160 442Q141 442 121 453T88 482T74 517Q74 540 92 562T137 599T191 614Q216 614 242 602T288 568T307 518Q307 485 292 461T255 417T209 381Q201 375 193 369T176 357Q150 336 120 322Q148 303 180 292T247 281Q283 281
307 292T332 334Q332 348 326 358T309 369Q301 369 299 363T295 347Q295 341 294 338Q293 331 286 331Q278 331 275 340Q272 349 272 357Q272 387 309 387Q328 387 340 372T352 334Z" />
<glyph unicode="&#xb3;" glyph-name="uni00B3" horiz-adv-x="356" d="M316 400Q316 369 301 345T261 303T209 277T159 268Q104 268 72 291T40 355Q40 393 63 417T121 442Q152 442 173 419T194 362Q194 346 181 333T152 319Q139 319 130 332T121 360Q121 375 131
382Q138 387 140 387Q143 387 143 383Q143 379 141 371T138 355Q138 349 141 343T155 337Q160 337 166 345T173 362Q173 388 158 406T121 424Q97 424 83 405T68 352Q68 319 90 303T159 287Q190 287 216 303T259 345T275 402Q275 467 219 481Q210 479 201 478T180
476Q178 476 164 478T150 488Q150 492 155 496Q161 501 171 502T189 504Q196 504 202 504T215 502Q238 512 253 529T268 563Q268 578 254 589T204 600Q192 600 170 594T129 576T110 548Q110 548 111 548T116 547Q120 547 126 547T141 549Q144 550 146 550T150 550H151Q160
550 160 544Q160 537 150 536Q146 536 142 535T132 533Q127 532 121 531T109 530Q89 530 89 548Q89 565 102 578T134 600T172 613T204 618Q222 618 246 614T288 598T306 559Q306 548 301 541T290 527Q289 525 288 524T284 520Q271 504 251 493Q316 467 316 400Z"
/>
<glyph unicode="&#xb4;" glyph-name="acute" horiz-adv-x="106" d="M0 384Q0 391 17 409Q43 433 61 448T89 464Q96 464 101 459T106 448Q106 442 104 440T97 434Q92 430 85 425T70 414Q63 408 55 402T40 391Q24 380 18 378T9 375Q0 375 0 384Z" />
<glyph unicode="&#xb5;" glyph-name="uni03BC" horiz-adv-x="287" d="M311 58Q281 27 264 18T234 8Q216 8 203 22T182 54T168 78Q149 61 123 43T80 24Q48 24 31 39Q30 -3 34 -38T42 -90Q44 -96 51 -111T69 -138T88 -150Q95 -147 100 -154T105 -169Q105 -176 101
-181T84 -187Q54 -186 37 -163T13 -101T6 -18Q6 35 12 84V92Q13 125 21 169T42 257T67 331Q70 340 79 346T99 352Q111 352 115 346T119 332Q119 322 116 313T112 303Q100 269 85 232T56 148Q55 142 54 131T52 108Q52 91 56 77T74 62Q85 62 103 75T141 111T171 164Q181
191 189 223T203 283T216 328Q219 335 225 335Q233 335 239 329T244 318Q240 308 233 285T219 234T206 180T196 135T192 115Q192 100 195 88T205 62Q210 54 217 45T233 35Q252 35 269 48T296 75Q303 85 308 85Q312 85 313 81T315 71Q315 62 311 58Z" />
<glyph unicode="&#xb6;" glyph-name="paragraph" horiz-adv-x="498" d="M385 590Q402 562 409 525T419 450T422 380Q422 303 415 227T397 73Q394 50 391 27T384 -20Q383 -29 382 -39T378 -57Q377 -65 371 -75T354 -85Q347 -85 345 -77T342 -64Q342 -58 343 -55Q354
55 370 164T387 383Q387 413 385 448T374 518T350 578Q337 582 324 583T296 585Q274 585 242 580T176 565T112 539T64 500T45 448Q45 420 62 394T106 346T159 306T208 276Q213 273 223 267T233 253Q233 248 225 247T210 245Q191 245 170 254T133 275Q106 294 78
323T30 387T10 458Q10 501 34 533T97 585T178 616T257 627Q290 627 324 619T385 590ZM340 508Q340 427 337 346T327 183Q322 113 314 43T292 -98Q288 -119 283 -142T270 -186Q266 -196 254 -206T230 -216Q221 -216 221 -208Q221 -203 223 -199T226 -190Q243 -150
255 -90T275 41T287 184T294 319T296 428Q296 446 296 464T294 501Q294 508 293 515T292 529Q292 536 297 537T307 539Q330 539 335 531T340 508Z" />
<glyph unicode="&#xb7;" glyph-name="middot" horiz-adv-x="251" d="M119 213Q110 213 107 220T104 235Q104 245 108 258T121 281T141 292Q150 292 153 284T157 268Q157 259 152 246T139 223T119 213Z" />
<glyph unicode="&#xb8;" glyph-name="cedilla" horiz-adv-x="160" d="M160 -118Q160 -142 145 -158T105 -182T53 -190Q34 -190 17 -181T0 -155Q0 -144 10 -130T37 -115Q45 -115 45 -122Q45 -130 37 -132T28 -143Q28 -150 36 -161T55 -172Q81 -172 102 -156T123
-118Q123 -105 114 -97T95 -79T85 -49Q85 -32 95 -12T130 8Q136 8 138 5T135 -2Q131 -5 124 -15T116 -39Q116 -52 127 -62T149 -85T160 -118Z" />
<glyph unicode="&#xb9;" glyph-name="uni00B9" horiz-adv-x="266" d="M209 600Q201 585 190 565T165 513Q144 468 130 421T115 345Q123 348 132 350T152 352Q166 352 175 351T199 348Q209 346 209 331Q209 319 201 319Q195 319 187 321Q180 322 173 322T156 323Q138
323 117 317Q116 314 112 313T103 313Q96 310 88 307T72 300L53 293Q52 292 49 292Q40 292 40 302Q40 307 46 310Q56 314 65 319T82 328Q87 330 89 332T94 335Q93 339 93 343T93 353Q93 417 132 503Q139 518 143 529T149 548Q151 553 152 556T155 564L148 560Q141
556 132 551T106 531Q101 527 97 527Q88 527 88 536Q88 543 95 547Q120 561 148 585T209 640Q212 644 217 644Q222 644 225 640T225 629Q221 622 218 615T209 600Z" />
<glyph unicode="&#xba;" glyph-name="ordmasculine" horiz-adv-x="210" d="M214 496Q214 480 209 454T192 405Q181 381 166 370T137 354T114 346Q110 344 101 344Q85 344 77 352Q72 357 61 362T50 395Q50 403 51 412T54 429Q40 445 40 464Q40 475 46 487Q61 515
83 530T125 551T153 558Q182 558 198 540T214 496ZM178 492Q178 509 166 521T137 533Q115 533 94 514T67 477Q66 473 66 469T66 461Q74 480 84 491T98 507Q103 510 108 510Q117 510 117 505Q117 501 101 486T73 442Q80 435 90 432T110 428Q121 428 130 432T143
444Q145 450 145 452Q145 460 139 461T126 462Q116 462 116 467Q116 470 121 475Q126 480 131 480Q139 480 148 469Q157 457 157 447Q157 433 144 426T115 415T90 412Q84 412 79 413T69 417Q68 416 68 412Q67 389 79 382T99 370Q110 366 125 375T150 403Q160 421
169 449T178 492Z" />
<glyph unicode="&#xbb;" glyph-name="guillemotright" horiz-adv-x="329" d="M50 11Q44 8 32 13T20 25Q20 28 28 36T38 47Q49 62 74 90T121 138Q104 168 87 191T47 236Q44 239 33 246T22 260Q22 265 34 271Q35 272 43 272T52 272Q56 272 60 270Q68 265 84 249T117
210T146 169T159 138Q159 130 154 126Q128 101 110 79T65 27Q64 26 58 19T50 11ZM170 11Q164 8 152 13T140 25Q140 28 148 36T158 47Q169 62 194 90T241 138Q224 168 207 191T167 236Q164 239 153 246T142 260Q142 265 154 271Q155 272 163 272T172 272Q176 272
180 270Q188 265 204 249T237 210T266 169T279 138Q279 130 274 126Q248 101 230 79T185 27Q184 26 178 19T170 11Z" />
<glyph unicode="&#xbc;" glyph-name="onequarter" horiz-adv-x="617" d="M209 600Q201 585 190 565T165 513Q144 468 130 421T115 345Q123 348 132 350T152 352Q166 352 175 351T199 348Q209 346 209 331Q209 319 201 319Q195 319 187 321Q180 322 173 322T156
323Q138 323 117 317Q116 314 112 313T103 313Q96 310 88 307T72 300L53 293Q52 292 49 292Q40 292 40 302Q40 307 46 310Q56 314 65 319T82 328Q87 330 89 332T94 335Q93 339 93 343T93 353Q93 417 132 503Q139 518 143 529T149 548Q151 553 152 556T155 564L148
560Q141 556 132 551T106 531Q101 527 97 527Q88 527 88 536Q88 543 95 547Q120 561 148 585T209 640Q212 644 217 644Q222 644 225 640T225 629Q221 622 218 615T209 600ZM467 518Q467 514 466 511T463 505Q443 477 421 450T377 396Q332 341 287 284T204 166Q190
143 177 120T153 71Q150 64 147 56T141 40Q138 34 133 26T119 18Q112 18 112 27Q112 31 114 37Q148 130 205 217T320 384Q340 410 360 436T399 489Q407 499 414 509T429 530Q436 539 445 539Q453 539 460 533T467 518ZM573 190Q575 184 576 178T577 167Q577 118
511 118Q507 118 503 118T495 117H486Q485 114 485 111T485 105Q485 97 485 88T484 70Q483 61 483 52T482 33Q482 13 486 0V-2Q486 -12 476 -12Q469 -12 466 -5Q459 21 458 54T456 114V115Q449 114 443 114T430 112Q414 111 399 110T365 108Q357 108 348 108T329
109Q322 110 314 119T301 138T303 150Q324 157 343 179T380 231T410 285Q415 295 418 301T424 311Q427 316 433 316Q438 316 442 312T442 302Q438 295 434 287T425 271Q408 238 388 205T338 148Q350 147 361 146T382 144Q401 142 419 141T457 137Q460 170 468 202T485
266Q487 271 493 273T507 276Q524 276 521 268Q517 248 509 225Q503 203 497 181T488 136H511Q557 136 557 167Q557 175 554 185Q554 186 554 186T553 188Q553 192 556 194T564 197Q572 197 573 190Z" />
<glyph unicode="&#xbd;" glyph-name="onehalf" horiz-adv-x="658" d="M209 600Q201 585 190 565T165 513Q144 468 130 421T115 345Q123 348 132 350T152 352Q166 352 175 351T199 348Q209 346 209 331Q209 319 201 319Q195 319 187 321Q180 322 173 322T156 323Q138
323 117 317Q116 314 112 313T103 313Q96 310 88 307T72 300L53 293Q52 292 49 292Q40 292 40 302Q40 307 46 310Q56 314 65 319T82 328Q87 330 89 332T94 335Q93 339 93 343T93 353Q93 417 132 503Q139 518 143 529T149 548Q151 553 152 556T155 564L148 560Q141
556 132 551T106 531Q101 527 97 527Q88 527 88 536Q88 543 95 547Q120 561 148 585T209 640Q212 644 217 644Q222 644 225 640T225 629Q221 622 218 615T209 600ZM456 518Q456 514 455 511T452 505Q432 477 410 450T366 396Q321 341 276 284T193 166Q179 143 166
120T142 71Q139 64 136 56T130 40Q127 34 122 26T108 18Q101 18 101 27Q101 31 103 37Q137 130 194 217T309 384Q329 410 349 436T388 489Q396 499 403 509T418 530Q425 539 434 539Q442 539 449 533T456 518ZM618 72Q618 35 589 13T513 -10Q477 -10 448 4T389
36Q391 35 385 38T373 46T363 51Q353 47 342 44T320 37Q318 36 315 36Q303 36 307 47Q310 58 321 69T343 80Q349 80 354 78T364 74Q378 81 393 90T424 114Q436 123 447 132Q480 156 507 184T534 258Q534 291 512 312T457 334Q407 334 387 310T367 261Q367 240 382
219T426 198Q439 198 455 203T483 221T495 257Q495 276 482 290T449 305Q431 305 418 292T404 261Q404 257 413 246T426 235Q437 235 450 237T463 252Q463 257 460 260T452 266Q451 268 450 269T447 271Q444 274 444 278Q444 283 450 286T460 284Q462 283 462 282T466
279Q472 274 477 268T483 252Q483 237 472 230T447 221T422 219Q406 219 396 234T385 261Q385 284 404 302T449 320Q476 320 495 301T515 256Q515 235 500 218T463 190T426 180Q407 180 387 191T354 220T340 255Q340 278 358 300T403 337T457 352Q482 352 508 340T554
306T573 256Q573 223 558 199T521 155T475 119Q467 113 459 107T442 95Q416 74 386 60Q414 41 446 30T513 19Q549 19 573 30T598 72Q598 86 592 96T575 107Q567 107 565 101T561 85Q561 79 560 76Q559 69 552 69Q544 69 541 78Q538 87 538 95Q538 125 575 125Q594
125 606 110T618 72Z" />
<glyph unicode="&#xbe;" glyph-name="threequarters" horiz-adv-x="688" d="M517 500Q517 496 516 493T513 487Q493 459 471 432T427 378Q382 323 337 266T254 148Q240 125 227 102T203 53Q200 46 197 38T191 22Q188 16 183 8T169 0Q162 0 162 9Q162 13 164 19Q198
112 255 199T370 366Q390 392 410 418T449 471Q457 481 464 491T479 512Q486 521 495 521Q503 521 510 515T517 500ZM644 184Q646 178 647 172T648 161Q648 112 582 112Q578 112 574 112T566 111H557Q556 108 556 105T556 99Q556 91 556 82T555 64Q554 55 554 46T553
27Q553 7 557 -6V-8Q557 -18 547 -18Q540 -18 537 -11Q530 15 529 48T527 108V109Q520 108 514 108T501 106Q485 105 470 104T436 102Q428 102 419 102T400 103Q393 104 385 113T372 132T374 144Q395 151 414 173T451 225T481 279Q486 289 489 295T495 305Q498
310 504 310Q509 310 513 306T513 296Q509 289 505 281T496 265Q479 232 459 199T409 142Q421 141 432 140T453 138Q472 136 490 135T528 131Q531 164 539 196T556 260Q558 265 564 267T578 270Q595 270 592 262Q588 242 580 219Q574 197 568 175T559 130H582Q628
130 628 161Q628 169 625 179Q625 180 625 180T624 182Q624 186 627 188T635 191Q643 191 644 184ZM316 400Q316 369 301 345T261 303T209 277T159 268Q104 268 72 291T40 355Q40 393 63 417T121 442Q152 442 173 419T194 362Q194 346 181 333T152 319Q139 319
130 332T121 360Q121 375 131 382Q138 387 140 387Q143 387 143 383Q143 379 141 371T138 355Q138 349 141 343T155 337Q160 337 166 345T173 362Q173 388 158 406T121 424Q97 424 83 405T68 352Q68 319 90 303T159 287Q190 287 216 303T259 345T275 402Q275 467
219 481Q210 479 201 478T180 476Q178 476 164 478T150 488Q150 492 155 496Q161 501 171 502T189 504Q196 504 202 504T215 502Q238 512 253 529T268 563Q268 578 254 589T204 600Q192 600 170 594T129 576T110 548Q110 548 111 548T116 547Q120 547 126 547T141
549Q144 550 146 550T150 550H151Q160 550 160 544Q160 537 150 536Q146 536 142 535T132 533Q127 532 121 531T109 530Q89 530 89 548Q89 565 102 578T134 600T172 613T204 618Q222 618 246 614T288 598T306 559Q306 548 301 541T290 527Q289 525 288 524T284
520Q271 504 251 493Q316 467 316 400Z" />
<glyph unicode="&#xbf;" glyph-name="questiondown" horiz-adv-x="460" d="M358 314Q359 312 359 310T360 306Q360 296 351 287T340 269Q336 259 326 259Q318 259 310 264T296 276Q291 284 291 292Q291 302 296 311T312 325Q324 330 332 330Q351 330 358 314ZM448
-142Q448 -182 429 -215T378 -273T308 -314T233 -337L140 -327Q76 -320 45 -286T13 -177Q13 -139 32 -102T82 -39T143 -9Q167 -5 195 -1T249 13T290 39T307 81Q307 95 296 108T269 121Q261 121 262 112T261 94Q258 84 248 84Q242 84 238 88T234 100Q239 117 245
132T269 148Q295 148 314 127T334 81Q334 50 317 22T272 -27T212 -63T151 -82Q112 -88 99 -112T85 -182Q85 -312 203 -308Q236 -302 271 -291T336 -261T384 -216T403 -156Q403 -127 395 -110T354 -92Q324 -92 306 -100T285 -136Q284 -144 277 -153T264 -165T258
-160Q263 -120 286 -93T354 -66Q401 -66 424 -83T448 -142Z" />
<glyph unicode="&#xc0;" glyph-name="Agrave" horiz-adv-x="778" d="M840 -11Q840 -29 832 -50T811 -85T778 -100Q756 -100 740 -80T712 -35T695 9Q685 41 680 85T670 173T653 251L652 328Q633 326 615 323T584 318Q553 313 525 306T469 291Q451 245 435 199T385
104Q363 71 328 42T249 -5T153 -23Q98 -23 64 3T13 74T-3 176Q-3 188 1 205T11 237T22 258Q32 273 48 293T82 329T120 352Q132 356 149 364T189 372Q214 372 236 358Q283 329 309 287T336 192Q336 144 312 126T243 103Q233 102 227 109T221 123Q221 131 225 136T240
143Q265 145 286 153T307 189Q307 231 285 275T225 343Q210 352 195 352Q176 352 160 344T135 333Q113 327 94 300T63 241T51 182Q51 115 82 73T169 25Q176 24 182 24T196 23Q252 23 295 48T364 112Q394 156 408 198T438 282Q422 278 406 274T373 265Q362 263 356
269T349 285Q349 301 365 305Q388 310 410 314T454 323Q456 328 458 332T462 340Q475 366 479 394T490 449T513 498Q518 505 526 519T542 549T555 571Q564 586 569 603T586 632T620 644Q641 644 653 622T673 569T685 508T695 463L696 389L703 367V361Q719 363 725
364Q741 367 741 359Q741 354 734 347T715 338Q711 337 703 335L704 293Q712 269 713 231T714 153Q714 113 715 76T724 15Q729 2 734 -18T748 -55T772 -71Q790 -71 800 -59T811 -29Q811 -15 818 -7T832 2Q840 2 840 -11ZM651 358L643 382L640 463Q635 489 629 514T616
556T598 573Q590 573 580 560Q575 553 568 538T555 509T543 487Q527 466 520 440T507 387T488 335L485 329Q508 333 531 337T578 345Q591 347 610 349T651 355V358ZM639 677Q639 669 631 669Q627 669 620 672T593 689Q575 703 553 719T517 746Q513 750 510 753T507
761Q507 768 512 774T525 780Q539 780 561 760T617 707Q631 694 635 688T639 677Z" />
<glyph unicode="&#xc1;" glyph-name="Aacute" horiz-adv-x="778" d="M840 -11Q840 -29 832 -50T811 -85T778 -100Q756 -100 740 -80T712 -35T695 9Q685 41 680 85T670 173T653 251L652 328Q633 326 615 323T584 318Q553 313 525 306T469 291Q451 245 435 199T385
104Q363 71 328 42T249 -5T153 -23Q98 -23 64 3T13 74T-3 176Q-3 188 1 205T11 237T22 258Q32 273 48 293T82 329T120 352Q132 356 149 364T189 372Q214 372 236 358Q283 329 309 287T336 192Q336 144 312 126T243 103Q233 102 227 109T221 123Q221 131 225 136T240
143Q265 145 286 153T307 189Q307 231 285 275T225 343Q210 352 195 352Q176 352 160 344T135 333Q113 327 94 300T63 241T51 182Q51 115 82 73T169 25Q176 24 182 24T196 23Q252 23 295 48T364 112Q394 156 408 198T438 282Q422 278 406 274T373 265Q362 263 356
269T349 285Q349 301 365 305Q388 310 410 314T454 323Q456 328 458 332T462 340Q475 366 479 394T490 449T513 498Q518 505 526 519T542 549T555 571Q564 586 569 603T586 632T620 644Q641 644 653 622T673 569T685 508T695 463L696 389L703 367V361Q719 363 725
364Q741 367 741 359Q741 354 734 347T715 338Q711 337 703 335L704 293Q712 269 713 231T714 153Q714 113 715 76T724 15Q729 2 734 -18T748 -55T772 -71Q790 -71 800 -59T811 -29Q811 -15 818 -7T832 2Q840 2 840 -11ZM651 358L643 382L640 463Q635 489 629 514T616
556T598 573Q590 573 580 560Q575 553 568 538T555 509T543 487Q527 466 520 440T507 387T488 335L485 329Q508 333 531 337T578 345Q591 347 610 349T651 355V358ZM615 677Q615 682 619 688T637 707Q671 739 693 759T729 780Q737 780 742 774T747 761Q747 756
745 753T737 746Q724 736 702 720T661 689Q642 675 635 672T623 669Q615 669 615 677Z" />
<glyph unicode="&#xc2;" glyph-name="Acircumflex" horiz-adv-x="778" d="M840 -11Q840 -29 832 -50T811 -85T778 -100Q756 -100 740 -80T712 -35T695 9Q685 41 680 85T670 173T653 251L652 328Q633 326 615 323T584 318Q553 313 525 306T469 291Q451 245 435
199T385 104Q363 71 328 42T249 -5T153 -23Q98 -23 64 3T13 74T-3 176Q-3 188 1 205T11 237T22 258Q32 273 48 293T82 329T120 352Q132 356 149 364T189 372Q214 372 236 358Q283 329 309 287T336 192Q336 144 312 126T243 103Q233 102 227 109T221 123Q221 131
225 136T240 143Q265 145 286 153T307 189Q307 231 285 275T225 343Q210 352 195 352Q176 352 160 344T135 333Q113 327 94 300T63 241T51 182Q51 115 82 73T169 25Q176 24 182 24T196 23Q252 23 295 48T364 112Q394 156 408 198T438 282Q422 278 406 274T373 265Q362
263 356 269T349 285Q349 301 365 305Q388 310 410 314T454 323Q456 328 458 332T462 340Q475 366 479 394T490 449T513 498Q518 505 526 519T542 549T555 571Q564 586 569 603T586 632T620 644Q641 644 653 622T673 569T685 508T695 463L696 389L703 367V361Q719
363 725 364Q741 367 741 359Q741 354 734 347T715 338Q711 337 703 335L704 293Q712 269 713 231T714 153Q714 113 715 76T724 15Q729 2 734 -18T748 -55T772 -71Q790 -71 800 -59T811 -29Q811 -15 818 -7T832 2Q840 2 840 -11ZM651 358L643 382L640 463Q635 489
629 514T616 556T598 573Q590 573 580 560Q575 553 568 538T555 509T543 487Q527 466 520 440T507 387T488 335L485 329Q508 333 531 337T578 345Q591 347 610 349T651 355V358ZM524 667Q512 667 519 677T545 702T585 733T625 758T650 769Q659 770 675 756T706
725T727 701Q734 692 734 683Q734 679 731 674T723 669H721Q716 669 713 671T706 678Q680 707 646 725Q642 722 625 713T586 693T547 675T527 667H524Z" />
<glyph unicode="&#xc3;" glyph-name="Atilde" horiz-adv-x="778" d="M840 -11Q840 -29 832 -50T811 -85T778 -100Q756 -100 740 -80T712 -35T695 9Q685 41 680 85T670 173T653 251L652 328Q633 326 615 323T584 318Q553 313 525 306T469 291Q451 245 435 199T385
104Q363 71 328 42T249 -5T153 -23Q98 -23 64 3T13 74T-3 176Q-3 188 1 205T11 237T22 258Q32 273 48 293T82 329T120 352Q132 356 149 364T189 372Q214 372 236 358Q283 329 309 287T336 192Q336 144 312 126T243 103Q233 102 227 109T221 123Q221 131 225 136T240
143Q265 145 286 153T307 189Q307 231 285 275T225 343Q210 352 195 352Q176 352 160 344T135 333Q113 327 94 300T63 241T51 182Q51 115 82 73T169 25Q176 24 182 24T196 23Q252 23 295 48T364 112Q394 156 408 198T438 282Q422 278 406 274T373 265Q362 263 356
269T349 285Q349 301 365 305Q388 310 410 314T454 323Q456 328 458 332T462 340Q475 366 479 394T490 449T513 498Q518 505 526 519T542 549T555 571Q564 586 569 603T586 632T620 644Q641 644 653 622T673 569T685 508T695 463L696 389L703 367V361Q719 363 725
364Q741 367 741 359Q741 354 734 347T715 338Q711 337 703 335L704 293Q712 269 713 231T714 153Q714 113 715 76T724 15Q729 2 734 -18T748 -55T772 -71Q790 -71 800 -59T811 -29Q811 -15 818 -7T832 2Q840 2 840 -11ZM651 358L643 382L640 463Q635 489 629 514T616
556T598 573Q590 573 580 560Q575 553 568 538T555 509T543 487Q527 466 520 440T507 387T488 335L485 329Q508 333 531 337T578 345Q591 347 610 349T651 355V358ZM669 673Q643 673 629 684T604 707T577 719Q570 719 562 715T554 697Q554 688 552 681T543 674Q534
674 533 689T532 709Q532 732 547 741T585 751Q604 751 618 740T644 718T668 707Q679 707 685 717T698 738T711 749Q715 749 718 747T722 740Q722 711 709 692T669 673Z" />
<glyph unicode="&#xc4;" glyph-name="Adieresis" horiz-adv-x="778" d="M840 -11Q840 -29 832 -50T811 -85T778 -100Q756 -100 740 -80T712 -35T695 9Q685 41 680 85T670 173T653 251L652 328Q633 326 615 323T584 318Q553 313 525 306T469 291Q451 245 435 199T385
104Q363 71 328 42T249 -5T153 -23Q98 -23 64 3T13 74T-3 176Q-3 188 1 205T11 237T22 258Q32 273 48 293T82 329T120 352Q132 356 149 364T189 372Q214 372 236 358Q283 329 309 287T336 192Q336 144 312 126T243 103Q233 102 227 109T221 123Q221 131 225 136T240
143Q265 145 286 153T307 189Q307 231 285 275T225 343Q210 352 195 352Q176 352 160 344T135 333Q113 327 94 300T63 241T51 182Q51 115 82 73T169 25Q176 24 182 24T196 23Q252 23 295 48T364 112Q394 156 408 198T438 282Q422 278 406 274T373 265Q362 263 356
269T349 285Q349 301 365 305Q388 310 410 314T454 323Q456 328 458 332T462 340Q475 366 479 394T490 449T513 498Q518 505 526 519T542 549T555 571Q564 586 569 603T586 632T620 644Q641 644 653 622T673 569T685 508T695 463L696 389L703 367V361Q719 363 725
364Q741 367 741 359Q741 354 734 347T715 338Q711 337 703 335L704 293Q712 269 713 231T714 153Q714 113 715 76T724 15Q729 2 734 -18T748 -55T772 -71Q790 -71 800 -59T811 -29Q811 -15 818 -7T832 2Q840 2 840 -11ZM651 358L643 382L640 463Q635 489 629 514T616
556T598 573Q590 573 580 560Q575 553 568 538T555 509T543 487Q527 466 520 440T507 387T488 335L485 329Q508 333 531 337T578 345Q591 347 610 349T651 355V358ZM596 720Q596 707 585 696T560 684Q548 684 540 692T532 713Q532 730 544 737T570 744Q581 744
588 738T596 720ZM722 720Q722 707 711 696T686 684Q674 684 666 692T658 713Q658 730 670 737T696 744Q707 744 714 738T722 720Z" />
<glyph unicode="&#xc5;" glyph-name="Aring" horiz-adv-x="778" d="M840 -11Q840 -29 832 -50T811 -85T778 -100Q756 -100 740 -80T712 -35T695 9Q685 41 680 85T670 173T653 251L652 328Q633 326 615 323T584 318Q553 313 525 306T469 291Q451 245 435 199T385
104Q363 71 328 42T249 -5T153 -23Q98 -23 64 3T13 74T-3 176Q-3 188 1 205T11 237T22 258Q32 273 48 293T82 329T120 352Q132 356 149 364T189 372Q214 372 236 358Q283 329 309 287T336 192Q336 144 312 126T243 103Q233 102 227 109T221 123Q221 131 225 136T240
143Q265 145 286 153T307 189Q307 231 285 275T225 343Q210 352 195 352Q176 352 160 344T135 333Q113 327 94 300T63 241T51 182Q51 115 82 73T169 25Q176 24 182 24T196 23Q252 23 295 48T364 112Q394 156 408 198T438 282Q422 278 406 274T373 265Q362 263 356
269T349 285Q349 301 365 305Q388 310 410 314T454 323Q456 328 458 332T462 340Q475 366 479 394T490 449T513 498Q518 505 526 519T542 549T555 571Q564 586 569 603T586 632T620 644Q641 644 653 622T673 569T685 508T695 463L696 389L703 367V361Q719 363 725
364Q741 367 741 359Q741 354 734 347T715 338Q711 337 703 335L704 293Q712 269 713 231T714 153Q714 113 715 76T724 15Q729 2 734 -18T748 -55T772 -71Q790 -71 800 -59T811 -29Q811 -15 818 -7T832 2Q840 2 840 -11ZM651 358L643 382L640 463Q635 489 629 514T616
556T598 573Q590 573 580 560Q575 553 568 538T555 509T543 487Q527 466 520 440T507 387T488 335L485 329Q508 333 531 337T578 345Q591 347 610 349T651 355V358ZM614 663Q586 663 571 680T555 723Q555 761 582 790T647 820Q676 820 692 799T709 750Q709 707
680 685T614 663ZM617 688Q629 688 641 691T661 707T670 748Q670 769 662 783T636 797Q619 797 606 778T593 728Q593 712 598 700T617 688Z" />
<glyph unicode="&#xc6;" glyph-name="AE" horiz-adv-x="965" d="M960 105Q960 66 939 37T885 -12T815 -42T744 -52Q725 -52 705 -50T665 -44Q632 -36 604 -19T561 30Q557 38 555 46T551 64Q548 72 543 81T535 99Q525 122 519 147T510 197Q482 200 454 210T400
231Q371 166 331 113T235 28T102 -3Q95 -3 88 -3T74 -4Q59 -4 41 -2T10 10T-3 40Q-3 73 15 97T60 139T114 166Q127 171 141 174T169 177Q180 177 196 175T225 166T238 144Q238 128 225 113T193 87T161 71Q137 62 111 62Q104 62 104 67Q104 73 110 76T121 80Q128
80 143 85T176 98T205 116T217 133Q217 143 200 145T173 147Q144 147 118 138Q102 133 81 120T45 88T29 50Q29 29 48 23T83 17Q153 17 206 50T299 134T366 243Q347 250 327 254T287 259Q269 259 260 248T244 237Q238 237 238 245Q238 255 248 263T272 276T294 282Q316
282 337 279T379 270Q390 295 399 319T417 368Q428 397 449 435T500 511T563 572T631 597Q637 597 643 595T650 584Q650 576 642 576Q638 576 635 576T627 577Q600 577 575 558T527 507T487 441T455 373T434 318Q429 304 424 290T413 262Q436 255 459 250T506 242V276Q506
308 510 350T526 432T559 497Q565 505 574 505Q586 505 586 494Q586 493 584 487Q565 439 558 383T551 274Q551 249 552 225T558 175Q578 255 641 306Q609 344 609 391Q609 448 639 493T719 565T823 591Q847 591 873 580T917 549T935 501Q935 475 917 459T876 434Q875
434 874 434T871 433Q863 433 863 442Q863 452 873 458T894 473T905 502Q905 522 893 536T862 558T826 566Q796 566 766 551T712 511T673 456T658 395Q658 378 660 361T670 326Q727 360 796 360Q811 360 828 354T858 336T871 306Q871 288 858 278T826 262T787 255T756
253Q706 253 664 285Q630 249 612 200T594 101Q594 29 636 1T744 -28Q784 -28 825 -13T894 33T922 109Q922 119 914 134T894 162T871 175Q847 175 824 164T785 134T770 87Q770 78 774 69T788 60Q798 60 807 67T817 84Q817 88 815 90T813 97Q813 103 818 103Q826
103 830 92T835 75Q835 56 820 46T788 35Q763 35 748 51T733 92Q733 128 754 151T808 187T871 199Q914 199 937 173T960 105ZM787 341Q758 341 732 331T682 302Q694 286 710 279T745 272Q765 272 787 283T809 318Q809 341 787 341Z" />
<glyph unicode="&#xc7;" glyph-name="Ccedilla" horiz-adv-x="632" d="M625 58Q613 46 589 25T538 -16T493 -40Q472 -46 455 -53T418 -65T368 -71Q326 -71 278 -57T188 -22T120 18Q68 57 41 123T13 280Q13 305 18 334T30 390T44 433Q65 481 95 527T175 604Q201
621 241 639T346 658Q355 658 365 658T385 656Q440 650 482 622T549 563Q560 549 568 526T576 477Q576 465 575 453T568 429Q556 392 536 360T485 309T413 289Q376 289 356 294T323 310T293 342Q279 359 274 380T269 421T269 448Q269 472 289 496T338 538T389 555Q409
555 421 540T438 505T444 475Q444 460 440 441T413 405Q409 401 405 401Q398 401 398 411Q398 416 401 423T411 435Q419 441 421 449T423 464Q423 470 423 475T422 485Q422 493 413 507T389 522Q374 522 354 511T318 482T303 448Q303 438 315 417T344 376Q357 361
362 352T378 340T418 336Q468 336 494 366T536 440Q542 460 542 478Q542 498 537 515T523 542Q503 569 476 582T402 600Q393 601 385 601T368 602Q308 602 273 584T211 551Q166 524 139 482T92 396Q86 382 80 357T69 305T65 256Q65 176 79 128T140 45Q165 27 204
8T286 -24T368 -38Q409 -38 432 -28T483 -8Q500 -3 526 12T576 44T612 71Q619 78 626 78Q632 78 632 72Q632 65 625 58ZM294 -153Q294 -177 279 -193T239 -217T187 -225Q168 -225 151 -216T134 -190Q134 -179 144 -165T171 -150Q179 -150 179 -157Q179 -165 171
-167T162 -178Q162 -185 170 -196T189 -207Q215 -207 236 -191T257 -153Q257 -140 248 -132T229 -114T219 -84Q219 -67 229 -47T264 -27Q270 -27 272 -30T269 -37Q265 -40 258 -50T250 -74Q250 -87 261 -97T283 -120T294 -153Z" />
<glyph unicode="&#xc8;" glyph-name="Egrave" horiz-adv-x="588" d="M583 245Q583 178 563 134T509 53Q500 43 482 30T446 4T416 -18Q379 -48 326 -63T211 -78Q164 -78 121 -72T50 -44T22 25Q22 67 39 115T84 211T141 297T196 361Q179 376 170 395T160 438Q160
481 181 519T236 587T311 634T395 651Q431 651 466 644T524 616T548 560Q548 527 544 509T526 483T480 476Q449 476 423 489T392 516Q391 520 391 525T390 538Q390 557 395 576T412 596Q427 596 427 582Q427 573 424 561T420 537Q420 524 428 516T464 507Q493 507
504 518T515 560Q515 587 496 599T450 614T395 618Q359 618 324 604T259 565T211 508T193 438Q193 407 218 380Q236 395 261 411T313 439T365 451Q382 451 395 438T409 408Q409 394 390 375T341 341T281 326Q277 326 273 326T263 328Q242 332 223 342Q193 315 162
272T109 177T87 72Q87 17 121 -14T211 -45Q266 -45 316 -21T400 29Q417 42 433 56T463 85Q483 107 502 128T535 177T549 245Q549 258 539 267T518 276Q481 276 456 267T412 229Q408 224 405 219T402 205Q402 195 412 192T420 178V170Q420 166 418 163T405 158Q392
157 375 174T358 213Q358 229 366 239T385 263Q413 295 444 302T518 309Q544 309 563 290T583 245ZM331 407Q301 407 281 393T243 361Q254 356 265 356Q280 356 301 361T339 374T356 395Q356 399 346 403T331 407ZM418 688Q418 680 410 680Q406 680 399 683T372
700Q354 714 332 730T296 757Q292 761 289 764T286 772Q286 779 291 785T304 791Q318 791 340 771T396 718Q410 705 414 699T418 688Z" />
<glyph unicode="&#xc9;" glyph-name="Eacute" horiz-adv-x="588" d="M583 245Q583 178 563 134T509 53Q500 43 482 30T446 4T416 -18Q379 -48 326 -63T211 -78Q164 -78 121 -72T50 -44T22 25Q22 67 39 115T84 211T141 297T196 361Q179 376 170 395T160 438Q160
481 181 519T236 587T311 634T395 651Q431 651 466 644T524 616T548 560Q548 527 544 509T526 483T480 476Q449 476 423 489T392 516Q391 520 391 525T390 538Q390 557 395 576T412 596Q427 596 427 582Q427 573 424 561T420 537Q420 524 428 516T464 507Q493 507
504 518T515 560Q515 587 496 599T450 614T395 618Q359 618 324 604T259 565T211 508T193 438Q193 407 218 380Q236 395 261 411T313 439T365 451Q382 451 395 438T409 408Q409 394 390 375T341 341T281 326Q277 326 273 326T263 328Q242 332 223 342Q193 315 162
272T109 177T87 72Q87 17 121 -14T211 -45Q266 -45 316 -21T400 29Q417 42 433 56T463 85Q483 107 502 128T535 177T549 245Q549 258 539 267T518 276Q481 276 456 267T412 229Q408 224 405 219T402 205Q402 195 412 192T420 178V170Q420 166 418 163T405 158Q392
157 375 174T358 213Q358 229 366 239T385 263Q413 295 444 302T518 309Q544 309 563 290T583 245ZM331 407Q301 407 281 393T243 361Q254 356 265 356Q280 356 301 361T339 374T356 395Q356 399 346 403T331 407ZM394 688Q394 693 398 699T416 718Q450 750 472
770T508 791Q516 791 521 785T526 772Q526 767 524 764T516 757Q503 747 481 731T440 700Q421 686 414 683T402 680Q394 680 394 688Z" />
<glyph unicode="&#xca;" glyph-name="Ecircumflex" horiz-adv-x="588" d="M583 245Q583 178 563 134T509 53Q500 43 482 30T446 4T416 -18Q379 -48 326 -63T211 -78Q164 -78 121 -72T50 -44T22 25Q22 67 39 115T84 211T141 297T196 361Q179 376 170 395T160 438Q160
481 181 519T236 587T311 634T395 651Q431 651 466 644T524 616T548 560Q548 527 544 509T526 483T480 476Q449 476 423 489T392 516Q391 520 391 525T390 538Q390 557 395 576T412 596Q427 596 427 582Q427 573 424 561T420 537Q420 524 428 516T464 507Q493 507
504 518T515 560Q515 587 496 599T450 614T395 618Q359 618 324 604T259 565T211 508T193 438Q193 407 218 380Q236 395 261 411T313 439T365 451Q382 451 395 438T409 408Q409 394 390 375T341 341T281 326Q277 326 273 326T263 328Q242 332 223 342Q193 315 162
272T109 177T87 72Q87 17 121 -14T211 -45Q266 -45 316 -21T400 29Q417 42 433 56T463 85Q483 107 502 128T535 177T549 245Q549 258 539 267T518 276Q481 276 456 267T412 229Q408 224 405 219T402 205Q402 195 412 192T420 178V170Q420 166 418 163T405 158Q392
157 375 174T358 213Q358 229 366 239T385 263Q413 295 444 302T518 309Q544 309 563 290T583 245ZM331 407Q301 407 281 393T243 361Q254 356 265 356Q280 356 301 361T339 374T356 395Q356 399 346 403T331 407ZM303 678Q291 678 298 688T324 713T364 744T404
769T429 780Q438 781 454 767T485 736T506 712Q513 703 513 694Q513 690 510 685T502 680H500Q495 680 492 682T485 689Q459 718 425 736Q421 733 404 724T365 704T326 686T306 678H303Z" />
<glyph unicode="&#xcb;" glyph-name="Edieresis" horiz-adv-x="588" d="M583 245Q583 178 563 134T509 53Q500 43 482 30T446 4T416 -18Q379 -48 326 -63T211 -78Q164 -78 121 -72T50 -44T22 25Q22 67 39 115T84 211T141 297T196 361Q179 376 170 395T160 438Q160
481 181 519T236 587T311 634T395 651Q431 651 466 644T524 616T548 560Q548 527 544 509T526 483T480 476Q449 476 423 489T392 516Q391 520 391 525T390 538Q390 557 395 576T412 596Q427 596 427 582Q427 573 424 561T420 537Q420 524 428 516T464 507Q493 507
504 518T515 560Q515 587 496 599T450 614T395 618Q359 618 324 604T259 565T211 508T193 438Q193 407 218 380Q236 395 261 411T313 439T365 451Q382 451 395 438T409 408Q409 394 390 375T341 341T281 326Q277 326 273 326T263 328Q242 332 223 342Q193 315 162
272T109 177T87 72Q87 17 121 -14T211 -45Q266 -45 316 -21T400 29Q417 42 433 56T463 85Q483 107 502 128T535 177T549 245Q549 258 539 267T518 276Q481 276 456 267T412 229Q408 224 405 219T402 205Q402 195 412 192T420 178V170Q420 166 418 163T405 158Q392
157 375 174T358 213Q358 229 366 239T385 263Q413 295 444 302T518 309Q544 309 563 290T583 245ZM331 407Q301 407 281 393T243 361Q254 356 265 356Q280 356 301 361T339 374T356 395Q356 399 346 403T331 407ZM375 731Q375 718 364 707T339 695Q327 695 319
703T311 724Q311 741 323 748T349 755Q360 755 367 749T375 731ZM501 731Q501 718 490 707T465 695Q453 695 445 703T437 724Q437 741 449 748T475 755Q486 755 493 749T501 731Z" />
<glyph unicode="&#xcc;" glyph-name="Igrave" horiz-adv-x="558" d="M575 575Q583 550 587 525T591 475Q591 440 586 408T572 347Q560 301 542 256T506 174T478 118Q478 114 478 102T485 75Q491 62 499 53T512 31Q513 30 513 30T513 29Q513 25 504 25Q500 25 495
27T488 33Q474 65 465 68T453 72Q425 34 400 4T342 -48T260 -89Q217 -106 160 -106Q125 -106 91 -97T30 -68T-8 -15Q-13 -1 -15 13T-18 39Q-18 82 5 113T62 164T131 192Q135 193 139 193T147 194Q167 194 188 181T218 129Q219 125 219 122T220 114Q220 92 208 69T172
38Q143 27 130 27Q124 27 121 29T113 35Q111 37 109 41T106 52Q106 62 115 71Q122 76 126 76Q133 76 140 73T155 70Q166 70 173 76Q191 93 191 114Q191 128 184 141T165 164Q158 171 144 171Q125 171 100 160T55 131Q32 111 18 88T3 35Q3 25 5 15T11 -8Q24 -42
61 -61T148 -80Q194 -80 242 -63Q289 -45 325 -14T387 50T425 108T438 138Q439 145 429 168T409 231T400 323Q401 353 411 393T438 476T471 553T502 607Q516 625 532 625Q534 625 537 625T542 624Q554 623 562 606T575 575ZM548 465Q551 495 551 525Q551 556 547
577T532 598Q517 601 498 571Q482 547 470 515T444 447Q434 421 428 385T421 309Q421 282 425 255T438 202Q448 176 450 172T458 172Q471 189 485 222T512 298T534 384T548 465ZM553 658Q553 650 545 650Q541 650 534 653T507 670Q489 684 467 700T431 727Q427
731 424 734T421 742Q421 749 426 755T439 761Q453 761 475 741T531 688Q545 675 549 669T553 658Z" />
<glyph unicode="&#xcd;" glyph-name="Iacute" horiz-adv-x="558" d="M575 575Q583 550 587 525T591 475Q591 440 586 408T572 347Q560 301 542 256T506 174T478 118Q478 114 478 102T485 75Q491 62 499 53T512 31Q513 30 513 30T513 29Q513 25 504 25Q500 25 495
27T488 33Q474 65 465 68T453 72Q425 34 400 4T342 -48T260 -89Q217 -106 160 -106Q125 -106 91 -97T30 -68T-8 -15Q-13 -1 -15 13T-18 39Q-18 82 5 113T62 164T131 192Q135 193 139 193T147 194Q167 194 188 181T218 129Q219 125 219 122T220 114Q220 92 208 69T172
38Q143 27 130 27Q124 27 121 29T113 35Q111 37 109 41T106 52Q106 62 115 71Q122 76 126 76Q133 76 140 73T155 70Q166 70 173 76Q191 93 191 114Q191 128 184 141T165 164Q158 171 144 171Q125 171 100 160T55 131Q32 111 18 88T3 35Q3 25 5 15T11 -8Q24 -42
61 -61T148 -80Q194 -80 242 -63Q289 -45 325 -14T387 50T425 108T438 138Q439 145 429 168T409 231T400 323Q401 353 411 393T438 476T471 553T502 607Q516 625 532 625Q534 625 537 625T542 624Q554 623 562 606T575 575ZM548 465Q551 495 551 525Q551 556 547
577T532 598Q517 601 498 571Q482 547 470 515T444 447Q434 421 428 385T421 309Q421 282 425 255T438 202Q448 176 450 172T458 172Q471 189 485 222T512 298T534 384T548 465ZM529 658Q529 663 533 669T551 688Q585 720 607 740T643 761Q651 761 656 755T661
742Q661 737 659 734T651 727Q638 717 616 701T575 670Q556 656 549 653T537 650Q529 650 529 658Z" />
<glyph unicode="&#xce;" glyph-name="Icircumflex" horiz-adv-x="558" d="M575 575Q583 550 587 525T591 475Q591 440 586 408T572 347Q560 301 542 256T506 174T478 118Q478 114 478 102T485 75Q491 62 499 53T512 31Q513 30 513 30T513 29Q513 25 504 25Q500
25 495 27T488 33Q474 65 465 68T453 72Q425 34 400 4T342 -48T260 -89Q217 -106 160 -106Q125 -106 91 -97T30 -68T-8 -15Q-13 -1 -15 13T-18 39Q-18 82 5 113T62 164T131 192Q135 193 139 193T147 194Q167 194 188 181T218 129Q219 125 219 122T220 114Q220 92
208 69T172 38Q143 27 130 27Q124 27 121 29T113 35Q111 37 109 41T106 52Q106 62 115 71Q122 76 126 76Q133 76 140 73T155 70Q166 70 173 76Q191 93 191 114Q191 128 184 141T165 164Q158 171 144 171Q125 171 100 160T55 131Q32 111 18 88T3 35Q3 25 5 15T11
-8Q24 -42 61 -61T148 -80Q194 -80 242 -63Q289 -45 325 -14T387 50T425 108T438 138Q439 145 429 168T409 231T400 323Q401 353 411 393T438 476T471 553T502 607Q516 625 532 625Q534 625 537 625T542 624Q554 623 562 606T575 575ZM548 465Q551 495 551 525Q551
556 547 577T532 598Q517 601 498 571Q482 547 470 515T444 447Q434 421 428 385T421 309Q421 282 425 255T438 202Q448 176 450 172T458 172Q471 189 485 222T512 298T534 384T548 465ZM438 648Q426 648 433 658T459 683T499 714T539 739T564 750Q573 751 589
737T620 706T641 682Q648 673 648 664Q648 660 645 655T637 650H635Q630 650 627 652T620 659Q594 688 560 706Q556 703 539 694T500 674T461 656T441 648H438Z" />
<glyph unicode="&#xcf;" glyph-name="Idieresis" horiz-adv-x="558" d="M575 575Q583 550 587 525T591 475Q591 440 586 408T572 347Q560 301 542 256T506 174T478 118Q478 114 478 102T485 75Q491 62 499 53T512 31Q513 30 513 30T513 29Q513 25 504 25Q500 25
495 27T488 33Q474 65 465 68T453 72Q425 34 400 4T342 -48T260 -89Q217 -106 160 -106Q125 -106 91 -97T30 -68T-8 -15Q-13 -1 -15 13T-18 39Q-18 82 5 113T62 164T131 192Q135 193 139 193T147 194Q167 194 188 181T218 129Q219 125 219 122T220 114Q220 92 208
69T172 38Q143 27 130 27Q124 27 121 29T113 35Q111 37 109 41T106 52Q106 62 115 71Q122 76 126 76Q133 76 140 73T155 70Q166 70 173 76Q191 93 191 114Q191 128 184 141T165 164Q158 171 144 171Q125 171 100 160T55 131Q32 111 18 88T3 35Q3 25 5 15T11 -8Q24
-42 61 -61T148 -80Q194 -80 242 -63Q289 -45 325 -14T387 50T425 108T438 138Q439 145 429 168T409 231T400 323Q401 353 411 393T438 476T471 553T502 607Q516 625 532 625Q534 625 537 625T542 624Q554 623 562 606T575 575ZM548 465Q551 495 551 525Q551 556
547 577T532 598Q517 601 498 571Q482 547 470 515T444 447Q434 421 428 385T421 309Q421 282 425 255T438 202Q448 176 450 172T458 172Q471 189 485 222T512 298T534 384T548 465ZM510 701Q510 688 499 677T474 665Q462 665 454 673T446 694Q446 711 458 718T484
725Q495 725 502 719T510 701ZM636 701Q636 688 625 677T600 665Q588 665 580 673T572 694Q572 711 584 718T610 725Q621 725 628 719T636 701Z" />
<glyph unicode="&#xd0;" glyph-name="Eth" horiz-adv-x="665" d="M646 367Q646 314 621 256T552 142T456 41T345 -30T233 -57Q208 -57 183 -43T141 -4T124 46Q124 81 148 106T199 149Q200 175 202 200T206 251Q176 236 150 218T97 180Q90 175 84 175Q76 175 70
181T63 196Q63 208 82 222T127 251T177 275T211 289Q216 335 225 380T250 469Q225 464 189 454T117 426T58 384T34 326Q34 321 36 317T44 312Q55 312 72 323T107 352T143 386T171 415T185 427Q188 427 189 423T191 417Q191 413 189 410T185 402Q181 395 175 388T164
372Q141 337 114 309T40 281Q26 281 17 299T8 329Q8 375 35 408T103 464T189 500T270 521Q275 529 282 543T300 558Q308 558 323 551T338 534Q338 531 337 530Q372 533 406 533Q432 533 464 531T528 520T581 497Q646 450 646 367ZM622 348Q622 393 600 420T543
460T469 478T395 483Q351 483 307 477Q288 436 275 391T251 301Q314 318 377 318Q382 318 388 316T395 308Q395 300 386 297T371 294Q338 294 307 287T244 268Q240 243 237 217T230 165Q259 179 298 192T369 206Q392 206 409 196T426 159Q426 148 420 130T402 97T376
82Q363 82 358 89T344 104Q338 110 338 114Q338 123 349 123Q359 123 365 118T381 112Q392 112 397 121T402 140Q402 160 388 168T356 177Q336 177 312 169T266 149T228 125Q227 114 227 103T226 81Q226 59 228 37T233 -9V-13Q233 -24 220 -24Q210 -24 207 -13Q204
-1 202 20T200 64T199 100Q186 86 176 69T166 31Q166 3 186 -14T233 -31Q279 -31 332 -7T436 57T529 148T596 250T622 348Z" />
<glyph unicode="&#xd1;" glyph-name="Ntilde" horiz-adv-x="852" d="M835 23Q815 -5 790 -16T742 -28Q721 -28 707 -20Q696 -14 683 1T660 39T652 92Q654 133 661 183T677 281T692 360T699 396Q699 427 687 453T656 494T615 507Q595 505 571 469T526 372T496 235Q486
151 480 82T471 -18Q470 -32 453 -41T416 -55T391 -60Q382 -60 382 -47Q382 -37 386 -24T393 -3Q414 59 422 114T431 221Q431 274 424 321T407 412Q389 489 342 526T235 563Q220 563 203 560Q164 554 127 534T65 480T40 393Q40 354 58 304Q67 279 90 259T141 228T189
216Q194 216 198 216T205 218Q237 229 253 255T269 310Q269 334 258 355T225 387Q215 391 215 400Q215 410 231 410Q236 410 242 409T256 404Q276 396 294 369T312 310Q312 283 300 258T270 214T236 189Q220 183 199 183Q169 183 137 197T78 237T38 298Q28 327
23 352T18 400Q18 458 45 495T112 554T195 584Q207 587 219 588T241 589Q288 589 323 569T385 516T429 445T460 372Q464 356 468 345T477 334Q484 334 484 365Q485 392 500 422T534 480T564 523Q578 536 596 541T630 546Q655 546 672 536Q697 519 712 494T740 424Q743
415 744 406T745 386Q745 353 735 318T712 248T688 181T678 123Q678 67 686 39T708 2T734 -7Q745 -7 755 -5T772 -4Q784 -7 791 1T803 21T812 42T823 51Q840 46 840 35Q840 31 835 23ZM675 580Q649 580 635 591T610 614T583 626Q576 626 568 622T560 604Q560 595
558 588T549 581Q540 581 539 596T538 616Q538 639 553 648T591 658Q610 658 624 647T650 625T674 614Q685 614 691 624T704 645T717 656Q721 656 724 654T728 647Q728 618 715 599T675 580Z" />
<glyph unicode="&#xd2;" glyph-name="Ograve" horiz-adv-x="468" d="M484 405Q486 379 482 337T466 246T433 155Q411 108 381 78T320 31T264 3T223 -13Q208 -20 187 -20Q168 -20 151 -14T124 0Q117 6 104 12T77 32T53 69T42 136Q41 156 42 175T45 212Q23 236 9
264T-6 321Q-6 344 4 363Q37 425 92 467T200 532Q227 562 256 588T316 635Q336 644 344 644Q356 644 356 634Q356 620 340 611Q317 599 297 585T258 555Q277 560 290 562T311 565Q358 565 396 542T458 482T484 405ZM423 391Q423 454 402 486T349 528T285 539Q277
539 270 539T255 538Q251 538 247 538T238 535Q195 492 166 440T119 333T92 229Q116 216 145 209T202 202Q237 202 264 211T298 240Q304 257 304 268Q304 285 294 291T268 296Q248 295 240 298T232 308Q232 311 234 314T238 320Q250 332 265 332Q286 332 311 307Q333
275 333 249Q333 224 316 207T274 179T221 163T173 156T145 155Q116 161 85 178Q85 169 85 160T84 141Q84 102 94 77T118 38T145 18Q152 15 161 13T183 11Q209 11 242 22T310 64T378 149Q392 172 400 205T414 274T421 341T423 391ZM171 498Q140 475 113 446T66
388T42 338Q38 325 38 309Q38 283 53 263Q68 331 99 390T171 498ZM371 678Q371 670 363 670Q359 670 352 673T325 690Q307 704 285 720T249 747Q245 751 242 754T239 762Q239 769 244 775T257 781Q271 781 293 761T349 708Q363 695 367 689T371 678Z" />
<glyph unicode="&#xd3;" glyph-name="Oacute" horiz-adv-x="468" d="M484 405Q486 379 482 337T466 246T433 155Q411 108 381 78T320 31T264 3T223 -13Q208 -20 187 -20Q168 -20 151 -14T124 0Q117 6 104 12T77 32T53 69T42 136Q41 156 42 175T45 212Q23 236 9
264T-6 321Q-6 344 4 363Q37 425 92 467T200 532Q227 562 256 588T316 635Q336 644 344 644Q356 644 356 634Q356 620 340 611Q317 599 297 585T258 555Q277 560 290 562T311 565Q358 565 396 542T458 482T484 405ZM423 391Q423 454 402 486T349 528T285 539Q277
539 270 539T255 538Q251 538 247 538T238 535Q195 492 166 440T119 333T92 229Q116 216 145 209T202 202Q237 202 264 211T298 240Q304 257 304 268Q304 285 294 291T268 296Q248 295 240 298T232 308Q232 311 234 314T238 320Q250 332 265 332Q286 332 311 307Q333
275 333 249Q333 224 316 207T274 179T221 163T173 156T145 155Q116 161 85 178Q85 169 85 160T84 141Q84 102 94 77T118 38T145 18Q152 15 161 13T183 11Q209 11 242 22T310 64T378 149Q392 172 400 205T414 274T421 341T423 391ZM171 498Q140 475 113 446T66
388T42 338Q38 325 38 309Q38 283 53 263Q68 331 99 390T171 498ZM347 678Q347 683 351 689T369 708Q403 740 425 760T461 781Q469 781 474 775T479 762Q479 757 477 754T469 747Q456 737 434 721T393 690Q374 676 367 673T355 670Q347 670 347 678Z" />
<glyph unicode="&#xd4;" glyph-name="Ocircumflex" horiz-adv-x="468" d="M484 405Q486 379 482 337T466 246T433 155Q411 108 381 78T320 31T264 3T223 -13Q208 -20 187 -20Q168 -20 151 -14T124 0Q117 6 104 12T77 32T53 69T42 136Q41 156 42 175T45 212Q23
236 9 264T-6 321Q-6 344 4 363Q37 425 92 467T200 532Q227 562 256 588T316 635Q336 644 344 644Q356 644 356 634Q356 620 340 611Q317 599 297 585T258 555Q277 560 290 562T311 565Q358 565 396 542T458 482T484 405ZM423 391Q423 454 402 486T349 528T285
539Q277 539 270 539T255 538Q251 538 247 538T238 535Q195 492 166 440T119 333T92 229Q116 216 145 209T202 202Q237 202 264 211T298 240Q304 257 304 268Q304 285 294 291T268 296Q248 295 240 298T232 308Q232 311 234 314T238 320Q250 332 265 332Q286 332
311 307Q333 275 333 249Q333 224 316 207T274 179T221 163T173 156T145 155Q116 161 85 178Q85 169 85 160T84 141Q84 102 94 77T118 38T145 18Q152 15 161 13T183 11Q209 11 242 22T310 64T378 149Q392 172 400 205T414 274T421 341T423 391ZM171 498Q140 475
113 446T66 388T42 338Q38 325 38 309Q38 283 53 263Q68 331 99 390T171 498ZM256 668Q244 668 251 678T277 703T317 734T357 759T382 770Q391 771 407 757T438 726T459 702Q466 693 466 684Q466 680 463 675T455 670H453Q448 670 445 672T438 679Q412 708 378
726Q374 723 357 714T318 694T279 676T259 668H256Z" />
<glyph unicode="&#xd5;" glyph-name="Otilde" horiz-adv-x="468" d="M484 405Q486 379 482 337T466 246T433 155Q411 108 381 78T320 31T264 3T223 -13Q208 -20 187 -20Q168 -20 151 -14T124 0Q117 6 104 12T77 32T53 69T42 136Q41 156 42 175T45 212Q23 236 9
264T-6 321Q-6 344 4 363Q37 425 92 467T200 532Q227 562 256 588T316 635Q336 644 344 644Q356 644 356 634Q356 620 340 611Q317 599 297 585T258 555Q277 560 290 562T311 565Q358 565 396 542T458 482T484 405ZM423 391Q423 454 402 486T349 528T285 539Q277
539 270 539T255 538Q251 538 247 538T238 535Q195 492 166 440T119 333T92 229Q116 216 145 209T202 202Q237 202 264 211T298 240Q304 257 304 268Q304 285 294 291T268 296Q248 295 240 298T232 308Q232 311 234 314T238 320Q250 332 265 332Q286 332 311 307Q333
275 333 249Q333 224 316 207T274 179T221 163T173 156T145 155Q116 161 85 178Q85 169 85 160T84 141Q84 102 94 77T118 38T145 18Q152 15 161 13T183 11Q209 11 242 22T310 64T378 149Q392 172 400 205T414 274T421 341T423 391ZM171 498Q140 475 113 446T66
388T42 338Q38 325 38 309Q38 283 53 263Q68 331 99 390T171 498ZM401 674Q375 674 361 685T336 708T309 720Q302 720 294 716T286 698Q286 689 284 682T275 675Q266 675 265 690T264 710Q264 733 279 742T317 752Q336 752 350 741T376 719T400 708Q411 708 417
718T430 739T443 750Q447 750 450 748T454 741Q454 712 441 693T401 674Z" />
<glyph unicode="&#xd6;" glyph-name="Odieresis" horiz-adv-x="468" d="M484 405Q486 379 482 337T466 246T433 155Q411 108 381 78T320 31T264 3T223 -13Q208 -20 187 -20Q168 -20 151 -14T124 0Q117 6 104 12T77 32T53 69T42 136Q41 156 42 175T45 212Q23 236
9 264T-6 321Q-6 344 4 363Q37 425 92 467T200 532Q227 562 256 588T316 635Q336 644 344 644Q356 644 356 634Q356 620 340 611Q317 599 297 585T258 555Q277 560 290 562T311 565Q358 565 396 542T458 482T484 405ZM423 391Q423 454 402 486T349 528T285 539Q277
539 270 539T255 538Q251 538 247 538T238 535Q195 492 166 440T119 333T92 229Q116 216 145 209T202 202Q237 202 264 211T298 240Q304 257 304 268Q304 285 294 291T268 296Q248 295 240 298T232 308Q232 311 234 314T238 320Q250 332 265 332Q286 332 311 307Q333
275 333 249Q333 224 316 207T274 179T221 163T173 156T145 155Q116 161 85 178Q85 169 85 160T84 141Q84 102 94 77T118 38T145 18Q152 15 161 13T183 11Q209 11 242 22T310 64T378 149Q392 172 400 205T414 274T421 341T423 391ZM171 498Q140 475 113 446T66
388T42 338Q38 325 38 309Q38 283 53 263Q68 331 99 390T171 498ZM328 721Q328 708 317 697T292 685Q280 685 272 693T264 714Q264 731 276 738T302 745Q313 745 320 739T328 721ZM454 721Q454 708 443 697T418 685Q406 685 398 693T390 714Q390 731 402 738T428
745Q439 745 446 739T454 721Z" />
<glyph unicode="&#xd7;" glyph-name="multiply" horiz-adv-x="421" d="M362 261Q360 255 348 245T310 211T235 137Q282 88 309 64T348 30T362 14Q368 3 359 -2T334 -8Q320 -8 306 -3T288 12Q284 21 273 33T252 56T244 75L210 111L191 90Q181 78 164 63T131 35T108
10Q101 -2 88 -2Q79 -2 72 4T65 18Q65 24 68 28Q75 41 95 57T136 90T166 117L185 137L166 158Q157 170 136 185T95 217T68 247Q65 252 65 257Q65 266 72 271T88 277Q101 277 108 265Q115 255 131 241T164 213T191 185L210 164L244 200Q243 207 252 218T272 242T288
263Q292 273 306 278T334 283Q349 283 358 278T362 261Z" />
<glyph unicode="&#xd8;" glyph-name="Oslash" horiz-adv-x="616" d="M574 561Q574 560 572 556Q562 546 549 532T518 497Q526 495 532 491T539 481Q539 474 528 471T512 466Q507 465 501 465T490 464Q482 455 474 445T456 425Q511 379 550 317T589 183Q589 137
572 96T524 19Q499 -11 459 -28T374 -53T292 -61Q256 -61 216 -55T138 -35Q135 -44 135 -51Q135 -58 139 -67T144 -85Q144 -93 139 -93Q126 -93 118 -78T109 -51Q109 -45 110 -39T114 -24Q105 -19 97 -15T80 -4Q49 19 29 52T8 125Q8 151 19 179T46 233T78 278Q63
301 57 334T51 396Q51 464 87 500T190 536Q239 536 289 519T381 477Q398 483 417 488T457 498Q501 551 528 575Q530 577 533 577T540 578Q546 578 560 574T574 561ZM321 452Q289 467 252 477T179 488Q134 488 106 467T77 396Q77 374 83 349T100 303Q146 352 203
388T321 452ZM235 199Q271 254 311 309T389 414Q384 418 378 421T367 428Q303 400 241 356T133 259Q176 215 235 199ZM426 387Q389 342 350 292T274 193Q279 192 284 192T294 192Q311 192 328 194T362 201Q384 208 395 223T412 255T425 284T444 296Q452 296 453
289T455 277Q455 255 442 234Q420 199 380 184T300 168Q279 168 258 171Q222 121 194 76T150 -2Q189 -21 234 -29T313 -38Q343 -38 379 -33T448 -14T502 24Q527 54 541 89T556 164Q556 231 518 288T426 387ZM127 10Q141 45 166 88T222 179Q160 196 114 236Q95 210
80 178T64 113Q64 79 81 54T127 10Z" />
<glyph unicode="&#xd9;" glyph-name="Ugrave" horiz-adv-x="723" d="M742 398Q742 364 728 326T692 249T648 179T611 123L598 103Q601 71 614 38T651 -16T703 -38Q719 -38 725 -40T731 -44Q731 -48 719 -53T700 -58Q671 -56 646 -38T603 9T576 70Q558 45 537 22T488
-18Q482 -23 468 -30T438 -42T413 -48Q388 -48 375 -32T356 9T351 58Q351 109 362 151T389 231T420 307T447 387T458 480Q458 523 450 555T419 605T355 624Q307 624 274 610T211 578Q171 553 146 525T91 472Q76 459 63 425T49 349Q49 304 70 256T149 173Q162 165
182 161T223 157Q246 157 265 161T291 175Q311 198 325 214T346 253T353 318Q353 347 346 374T321 420T272 438Q248 438 219 422T170 382T149 331Q149 297 170 284T227 271Q249 271 265 277T278 304Q277 313 277 321T272 335T247 343Q239 345 239 352Q239 356 242
359T249 362Q287 358 297 342T307 288Q307 258 287 245T235 232Q192 232 160 255T127 320Q127 340 134 365T156 415T197 454T258 470Q263 470 268 470T280 468Q316 463 338 451T373 411T387 328Q389 282 377 253T344 202T302 156Q293 146 273 141T230 136Q205 136
180 142T138 158Q69 202 39 246T9 338Q9 373 23 409T62 483Q88 522 125 551T205 605Q237 624 270 638T355 652Q427 652 472 615T518 504Q518 453 506 410T475 327T439 247T408 164T395 69Q395 54 392 36T389 3Q389 -10 394 -19T413 -28Q421 -28 437 -21T470 -4T491
8Q520 27 537 48T571 95Q570 101 570 106T569 118Q569 162 575 211T592 305T620 382Q624 390 634 408T657 446T685 480T712 495Q721 495 726 483T735 453T740 421T742 398ZM700 378Q700 383 700 388T701 398Q701 408 699 415T688 422Q667 422 664 408T652 380Q638
352 626 311T607 224T598 138Q618 167 641 207T682 291T700 378ZM655 598Q655 590 647 590Q643 590 636 593T609 610Q591 624 569 640T533 667Q529 671 526 674T523 682Q523 689 528 695T541 701Q555 701 577 681T633 628Q647 615 651 609T655 598Z" />
<glyph unicode="&#xda;" glyph-name="Uacute" horiz-adv-x="723" d="M742 398Q742 364 728 326T692 249T648 179T611 123L598 103Q601 71 614 38T651 -16T703 -38Q719 -38 725 -40T731 -44Q731 -48 719 -53T700 -58Q671 -56 646 -38T603 9T576 70Q558 45 537 22T488
-18Q482 -23 468 -30T438 -42T413 -48Q388 -48 375 -32T356 9T351 58Q351 109 362 151T389 231T420 307T447 387T458 480Q458 523 450 555T419 605T355 624Q307 624 274 610T211 578Q171 553 146 525T91 472Q76 459 63 425T49 349Q49 304 70 256T149 173Q162 165
182 161T223 157Q246 157 265 161T291 175Q311 198 325 214T346 253T353 318Q353 347 346 374T321 420T272 438Q248 438 219 422T170 382T149 331Q149 297 170 284T227 271Q249 271 265 277T278 304Q277 313 277 321T272 335T247 343Q239 345 239 352Q239 356 242
359T249 362Q287 358 297 342T307 288Q307 258 287 245T235 232Q192 232 160 255T127 320Q127 340 134 365T156 415T197 454T258 470Q263 470 268 470T280 468Q316 463 338 451T373 411T387 328Q389 282 377 253T344 202T302 156Q293 146 273 141T230 136Q205 136
180 142T138 158Q69 202 39 246T9 338Q9 373 23 409T62 483Q88 522 125 551T205 605Q237 624 270 638T355 652Q427 652 472 615T518 504Q518 453 506 410T475 327T439 247T408 164T395 69Q395 54 392 36T389 3Q389 -10 394 -19T413 -28Q421 -28 437 -21T470 -4T491
8Q520 27 537 48T571 95Q570 101 570 106T569 118Q569 162 575 211T592 305T620 382Q624 390 634 408T657 446T685 480T712 495Q721 495 726 483T735 453T740 421T742 398ZM700 378Q700 383 700 388T701 398Q701 408 699 415T688 422Q667 422 664 408T652 380Q638
352 626 311T607 224T598 138Q618 167 641 207T682 291T700 378ZM631 598Q631 603 635 609T653 628Q687 660 709 680T745 701Q753 701 758 695T763 682Q763 677 761 674T753 667Q740 657 718 641T677 610Q658 596 651 593T639 590Q631 590 631 598Z" />
<glyph unicode="&#xdb;" glyph-name="Ucircumflex" horiz-adv-x="723" d="M742 398Q742 364 728 326T692 249T648 179T611 123L598 103Q601 71 614 38T651 -16T703 -38Q719 -38 725 -40T731 -44Q731 -48 719 -53T700 -58Q671 -56 646 -38T603 9T576 70Q558 45
537 22T488 -18Q482 -23 468 -30T438 -42T413 -48Q388 -48 375 -32T356 9T351 58Q351 109 362 151T389 231T420 307T447 387T458 480Q458 523 450 555T419 605T355 624Q307 624 274 610T211 578Q171 553 146 525T91 472Q76 459 63 425T49 349Q49 304 70 256T149
173Q162 165 182 161T223 157Q246 157 265 161T291 175Q311 198 325 214T346 253T353 318Q353 347 346 374T321 420T272 438Q248 438 219 422T170 382T149 331Q149 297 170 284T227 271Q249 271 265 277T278 304Q277 313 277 321T272 335T247 343Q239 345 239 352Q239
356 242 359T249 362Q287 358 297 342T307 288Q307 258 287 245T235 232Q192 232 160 255T127 320Q127 340 134 365T156 415T197 454T258 470Q263 470 268 470T280 468Q316 463 338 451T373 411T387 328Q389 282 377 253T344 202T302 156Q293 146 273 141T230 136Q205
136 180 142T138 158Q69 202 39 246T9 338Q9 373 23 409T62 483Q88 522 125 551T205 605Q237 624 270 638T355 652Q427 652 472 615T518 504Q518 453 506 410T475 327T439 247T408 164T395 69Q395 54 392 36T389 3Q389 -10 394 -19T413 -28Q421 -28 437 -21T470
-4T491 8Q520 27 537 48T571 95Q570 101 570 106T569 118Q569 162 575 211T592 305T620 382Q624 390 634 408T657 446T685 480T712 495Q721 495 726 483T735 453T740 421T742 398ZM700 378Q700 383 700 388T701 398Q701 408 699 415T688 422Q667 422 664 408T652
380Q638 352 626 311T607 224T598 138Q618 167 641 207T682 291T700 378ZM540 588Q528 588 535 598T561 623T601 654T641 679T666 690Q675 691 691 677T722 646T743 622Q750 613 750 604Q750 600 747 595T739 590H737Q732 590 729 592T722 599Q696 628 662 646Q658
643 641 634T602 614T563 596T543 588H540Z" />
<glyph unicode="&#xdc;" glyph-name="Udieresis" horiz-adv-x="723" d="M742 398Q742 364 728 326T692 249T648 179T611 123L598 103Q601 71 614 38T651 -16T703 -38Q719 -38 725 -40T731 -44Q731 -48 719 -53T700 -58Q671 -56 646 -38T603 9T576 70Q558 45 537
22T488 -18Q482 -23 468 -30T438 -42T413 -48Q388 -48 375 -32T356 9T351 58Q351 109 362 151T389 231T420 307T447 387T458 480Q458 523 450 555T419 605T355 624Q307 624 274 610T211 578Q171 553 146 525T91 472Q76 459 63 425T49 349Q49 304 70 256T149 173Q162
165 182 161T223 157Q246 157 265 161T291 175Q311 198 325 214T346 253T353 318Q353 347 346 374T321 420T272 438Q248 438 219 422T170 382T149 331Q149 297 170 284T227 271Q249 271 265 277T278 304Q277 313 277 321T272 335T247 343Q239 345 239 352Q239 356
242 359T249 362Q287 358 297 342T307 288Q307 258 287 245T235 232Q192 232 160 255T127 320Q127 340 134 365T156 415T197 454T258 470Q263 470 268 470T280 468Q316 463 338 451T373 411T387 328Q389 282 377 253T344 202T302 156Q293 146 273 141T230 136Q205
136 180 142T138 158Q69 202 39 246T9 338Q9 373 23 409T62 483Q88 522 125 551T205 605Q237 624 270 638T355 652Q427 652 472 615T518 504Q518 453 506 410T475 327T439 247T408 164T395 69Q395 54 392 36T389 3Q389 -10 394 -19T413 -28Q421 -28 437 -21T470
-4T491 8Q520 27 537 48T571 95Q570 101 570 106T569 118Q569 162 575 211T592 305T620 382Q624 390 634 408T657 446T685 480T712 495Q721 495 726 483T735 453T740 421T742 398ZM700 378Q700 383 700 388T701 398Q701 408 699 415T688 422Q667 422 664 408T652
380Q638 352 626 311T607 224T598 138Q618 167 641 207T682 291T700 378ZM612 641Q612 628 601 617T576 605Q564 605 556 613T548 634Q548 651 560 658T586 665Q597 665 604 659T612 641ZM738 641Q738 628 727 617T702 605Q690 605 682 613T674 634Q674 651 686
658T712 665Q723 665 730 659T738 641Z" />
<glyph unicode="&#xdd;" glyph-name="Yacute" horiz-adv-x="685" d="M720 424Q712 380 692 339T649 258Q644 249 639 241T628 224Q626 175 623 123T611 24Q596 -58 576 -119T522 -242Q503 -278 476 -310T409 -362T309 -382Q291 -382 266 -376T216 -355T173 -320T155
-269Q152 -196 161 -155T189 -94T232 -69T287 -64H320Q362 -64 389 -79T416 -142Q416 -169 402 -195T365 -238T315 -256Q282 -256 273 -248T258 -211L273 -171Q275 -164 281 -161T292 -158Q297 -158 300 -161T298 -171L275 -207Q277 -220 287 -224T315 -229Q336
-229 352 -216T379 -183T389 -142Q389 -109 370 -100T320 -91Q290 -91 264 -108T218 -154T187 -215T176 -280Q176 -294 189 -308T221 -333T259 -351T293 -358Q334 -358 364 -341T416 -296T454 -238T484 -183Q506 -143 523 -109T554 -37T578 56Q583 85 586 114T592
173L584 163Q570 145 552 120T511 72T462 32T403 16Q357 16 336 40T315 112Q315 159 323 192T344 255T372 318Q382 340 388 355T397 387T403 428Q406 472 392 504T356 558T314 589T285 600Q254 600 239 602T216 604Q206 604 199 599T171 578Q150 561 132 550T99
523T71 478Q62 456 56 426T47 366T43 312Q43 281 54 259T92 220Q102 213 115 213Q130 213 146 218T178 224Q198 224 216 228T248 238Q280 252 288 265T297 299Q297 308 297 318T296 342Q296 362 287 382T258 403Q250 403 237 402T218 398Q212 395 209 395Q203 395
203 400Q203 408 215 415Q230 424 253 424Q283 424 303 398T323 342Q323 308 321 280T305 231T253 193Q238 187 217 185T173 182Q145 182 124 182T78 198Q16 235 16 312Q16 335 13 357T10 401Q10 415 12 428T20 456Q40 504 63 529T123 582Q150 603 173 617T226
640T304 648Q345 648 375 641T421 612T438 549Q438 536 438 510T435 458T429 420Q418 383 407 351T380 285Q366 254 358 232T346 183T342 112Q342 85 357 70T395 55Q406 55 416 58Q468 74 500 97T555 151T595 214Q598 279 602 333T623 415Q638 451 651 464T677
478Q691 478 700 466T715 441T720 424ZM693 429Q694 431 693 436T686 442Q682 442 674 433T655 398Q645 381 640 351T632 283Q652 319 669 355T693 429ZM606 598Q606 603 610 609T628 628Q662 660 684 680T720 701Q728 701 733 695T738 682Q738 677 736 674T728
667Q715 657 693 641T652 610Q633 596 626 593T614 590Q606 590 606 598Z" />
<glyph unicode="&#xde;" glyph-name="Thorn" horiz-adv-x="588" d="M517 418Q517 394 510 359T488 287T455 224T413 190Q388 182 359 166T300 136T246 122Q233 122 221 129T208 151Q208 164 221 176T246 189Q251 189 251 186Q251 179 245 175T231 166T224 150V147Q229
146 233 146T242 145Q271 145 298 163T347 198Q380 225 410 264T459 348T478 436Q478 486 446 506T369 527Q326 527 281 513Q264 459 249 403T224 291Q245 303 266 320T301 359T316 407Q316 409 316 411T315 415Q315 417 315 421T319 425Q325 425 328 411T331 392Q331
367 312 340T266 291T217 258Q207 203 203 145T199 29Q199 5 211 -28T231 -85Q242 -85 242 -100Q242 -111 235 -123T213 -136Q204 -136 193 -124T174 -97T163 -72Q160 -58 159 -43T158 -12Q158 15 157 42T156 96Q156 133 159 169T175 241Q154 237 134 233T93 229Q81
229 67 231T43 240T33 263Q33 271 33 287T32 320Q32 333 32 344T35 361Q51 405 83 433T156 482T240 519Q245 532 254 559T276 617T302 672T328 704Q333 707 340 710T354 713Q360 713 360 710Q360 706 354 700T345 692Q335 682 322 645T289 535Q321 543 351 543Q387
543 425 529T490 487T517 418ZM231 493Q182 469 147 431T87 345Q80 331 74 313T67 278Q67 245 97 245Q107 245 123 248T156 256T180 267Q186 324 199 381T231 493Z" />
<glyph unicode="&#xdf;" glyph-name="germandbls" horiz-adv-x="384" d="M-21 -146Q-55 -146 -67 -130T-78 -82Q-78 -74 -74 -60T-63 -34T-46 -22Q-39 -22 -37 -27T-36 -37Q-40 -41 -49 -60T-58 -95Q-58 -112 -45 -112Q-35 -112 -22 -104Q-15 -100 -5 -86T15 -54T32
-21T43 -1Q51 17 61 47T81 108T96 158Q100 173 107 201T124 263T143 331T160 391T172 429Q192 495 206 535T244 593T315 611Q367 611 392 584T418 507Q418 459 395 408T335 319Q310 303 301 290T292 265Q292 251 300 239T314 216Q320 203 334 182Q351 158 357 138T364
102Q364 83 359 69T350 45Q359 44 371 54T394 78T412 98Q418 104 421 104Q426 104 422 89T412 68Q399 55 389 42T345 12Q341 6 328 -6T275 -20Q251 -21 233 -6T204 35T191 87V93Q191 104 196 106T206 106Q225 53 281 42Q299 46 307 62T317 93Q319 108 313 125T299
157T288 176Q283 185 278 195T270 209Q267 219 265 228T263 248Q263 274 278 297T328 334Q357 385 368 426T380 499Q380 553 365 572T326 592Q299 592 280 575T248 533T229 489T220 463Q219 460 213 438T197 383T177 313T157 242T142 185T134 156Q128 131 115 91T84
6T47 -76T10 -131Q-5 -146 -21 -146ZM267 2Q274 4 278 13T283 22H274Q270 22 265 22T255 24Q250 26 240 32T230 38Q230 38 230 36T229 31Q229 27 230 22T237 12Q245 6 251 3T267 2Z" />
<glyph unicode="&#xe0;" glyph-name="agrave" horiz-adv-x="335" d="M346 78Q349 81 354 81Q361 81 361 74Q361 70 357 62T338 43Q324 31 310 21T270 11Q243 11 228 21T206 43T197 63Q185 54 173 40T137 14T71 2Q47 2 28 13T8 64Q8 75 9 87T15 115Q27 162 43 189T91
229Q111 237 140 244T191 256Q198 258 203 269T216 291Q220 296 225 299T236 303Q241 303 249 298Q256 293 258 279T261 253Q260 247 257 239T251 220Q249 207 241 183T233 143Q233 129 231 109T231 80Q242 56 262 49T297 44Q308 46 322 57T346 78ZM184 192Q182
200 175 209T156 218Q154 218 148 216Q131 210 112 194T79 151T63 90Q63 80 69 64T87 37T109 31Q133 41 149 59T177 105Q182 118 184 132T187 160Q187 172 186 180T184 192ZM157 589Q157 580 148 580Q145 580 139 582T117 596Q111 601 103 607T87 619Q79 624 72
629T60 639Q56 642 54 644T51 653Q51 659 56 664T68 669Q79 669 97 654T140 614Q157 596 157 589Z" />
<glyph unicode="&#xe1;" glyph-name="aacute" horiz-adv-x="335" d="M346 78Q349 81 354 81Q361 81 361 74Q361 70 357 62T338 43Q324 31 310 21T270 11Q243 11 228 21T206 43T197 63Q185 54 173 40T137 14T71 2Q47 2 28 13T8 64Q8 75 9 87T15 115Q27 162 43 189T91
229Q111 237 140 244T191 256Q198 258 203 269T216 291Q220 296 225 299T236 303Q241 303 249 298Q256 293 258 279T261 253Q260 247 257 239T251 220Q249 207 241 183T233 143Q233 129 231 109T231 80Q242 56 262 49T297 44Q308 46 322 57T346 78ZM184 192Q182
200 175 209T156 218Q154 218 148 216Q131 210 112 194T79 151T63 90Q63 80 69 64T87 37T109 31Q133 41 149 59T177 105Q182 118 184 132T187 160Q187 172 186 180T184 192ZM133 333Q133 340 150 358Q176 382 194 397T222 413Q229 413 234 408T239 397Q239 391
237 389T230 383Q225 379 218 374T203 363Q196 357 188 351T173 340Q157 329 151 327T142 324Q133 324 133 333Z" />
<glyph unicode="&#xe2;" glyph-name="acircumflex" horiz-adv-x="335" d="M346 78Q349 81 354 81Q361 81 361 74Q361 70 357 62T338 43Q324 31 310 21T270 11Q243 11 228 21T206 43T197 63Q185 54 173 40T137 14T71 2Q47 2 28 13T8 64Q8 75 9 87T15 115Q27 162
43 189T91 229Q111 237 140 244T191 256Q198 258 203 269T216 291Q220 296 225 299T236 303Q241 303 249 298Q256 293 258 279T261 253Q260 247 257 239T251 220Q249 207 241 183T233 143Q233 129 231 109T231 80Q242 56 262 49T297 44Q308 46 322 57T346 78ZM184
192Q182 200 175 209T156 218Q154 218 148 216Q131 210 112 194T79 151T63 90Q63 80 69 64T87 37T109 31Q133 41 149 59T177 105Q182 118 184 132T187 160Q187 172 186 180T184 192ZM61 580Q51 580 51 586Q51 593 65 607T99 635T136 660T159 671Q167 671 180 659T205
633T221 613Q223 610 225 606T228 597Q228 582 215 582H213Q204 582 199 591Q181 612 156 627Q150 624 137 616T107 600T79 586T64 580H61Z" />
<glyph unicode="&#xe3;" glyph-name="atilde" horiz-adv-x="335" d="M346 78Q349 81 354 81Q361 81 361 74Q361 70 357 62T338 43Q324 31 310 21T270 11Q243 11 228 21T206 43T197 63Q185 54 173 40T137 14T71 2Q47 2 28 13T8 64Q8 75 9 87T15 115Q27 162 43 189T91
229Q111 237 140 244T191 256Q198 258 203 269T216 291Q220 296 225 299T236 303Q241 303 249 298Q256 293 258 279T261 253Q260 247 257 239T251 220Q249 207 241 183T233 143Q233 129 231 109T231 80Q242 56 262 49T297 44Q308 46 322 57T346 78ZM184 192Q182
200 175 209T156 218Q154 218 148 216Q131 210 112 194T79 151T63 90Q63 80 69 64T87 37T109 31Q133 41 149 59T177 105Q182 118 184 132T187 160Q187 172 186 180T184 192ZM182 580Q163 580 151 588T130 607Q123 614 116 619T100 624Q83 624 83 606Q83 582 70
582Q61 582 59 590T56 610Q56 631 70 644T103 658Q122 658 134 650T156 632Q163 625 170 620T182 615Q190 615 195 622T205 637Q209 645 211 650T221 656Q225 656 229 652T234 639Q234 620 219 600T182 580Z" />
<glyph unicode="&#xe4;" glyph-name="adieresis" horiz-adv-x="335" d="M346 78Q349 81 354 81Q361 81 361 74Q361 70 357 62T338 43Q324 31 310 21T270 11Q243 11 228 21T206 43T197 63Q185 54 173 40T137 14T71 2Q47 2 28 13T8 64Q8 75 9 87T15 115Q27 162 43
189T91 229Q111 237 140 244T191 256Q198 258 203 269T216 291Q220 296 225 299T236 303Q241 303 249 298Q256 293 258 279T261 253Q260 247 257 239T251 220Q249 207 241 183T233 143Q233 129 231 109T231 80Q242 56 262 49T297 44Q308 46 322 57T346 78ZM184
192Q182 200 175 209T156 218Q154 218 148 216Q131 210 112 194T79 151T63 90Q63 80 69 64T87 37T109 31Q133 41 149 59T177 105Q182 118 184 132T187 160Q187 172 186 180T184 192ZM134 631Q134 618 123 607T98 595Q86 595 78 603T70 624Q70 641 82 648T108 655Q119
655 126 649T134 631ZM220 631Q220 618 209 607T184 595Q172 595 164 603T156 624Q156 641 168 648T194 655Q205 655 212 649T220 631Z" />
<glyph unicode="&#xe5;" glyph-name="aring" horiz-adv-x="335" d="M346 78Q349 81 354 81Q361 81 361 74Q361 70 357 62T338 43Q324 31 310 21T270 11Q243 11 228 21T206 43T197 63Q185 54 173 40T137 14T71 2Q47 2 28 13T8 64Q8 75 9 87T15 115Q27 162 43 189T91
229Q111 237 140 244T191 256Q198 258 203 269T216 291Q220 296 225 299T236 303Q241 303 249 298Q256 293 258 279T261 253Q260 247 257 239T251 220Q249 207 241 183T233 143Q233 129 231 109T231 80Q242 56 262 49T297 44Q308 46 322 57T346 78ZM184 192Q182
200 175 209T156 218Q154 218 148 216Q131 210 112 194T79 151T63 90Q63 80 69 64T87 37T109 31Q133 41 149 59T177 105Q182 118 184 132T187 160Q187 172 186 180T184 192ZM136 580Q112 580 99 593T86 627Q86 656 108 678T162 700Q186 700 200 684T214 646Q214
613 190 597T136 580ZM138 605Q152 605 164 611T176 645Q176 659 170 668T153 677Q141 677 133 664T124 631Q124 620 127 613T138 605Z" />
<glyph unicode="&#xe6;" glyph-name="ae" horiz-adv-x="365" d="M413 129Q419 139 424 139Q430 139 430 130Q430 126 428 122Q415 100 395 75T354 31T313 13Q285 13 268 15T240 24Q237 4 221 0Q213 -2 209 11T202 40T197 63Q185 54 173 40T137 14T71 2Q47 2 28
13T8 64Q8 75 9 87T15 115Q27 162 43 189T91 229Q111 237 140 244T191 256Q198 258 203 269T216 291Q220 296 225 299T236 303Q241 303 249 298Q253 295 253 288Q253 285 253 282T251 274Q259 279 266 282T282 285Q293 285 299 273T305 241Q305 226 301 208T288
172Q281 157 274 144T261 122Q248 103 242 97T235 84Q235 68 255 53T317 38Q333 38 350 52T383 87T413 129ZM278 248Q274 254 262 246T239 207Q232 185 232 156Q232 148 232 140T234 124Q251 153 258 167T270 198Q272 206 276 218T281 239Q281 245 278 248ZM177
105Q182 118 184 132T187 160Q187 172 186 180T184 192Q182 200 175 209T156 218Q154 218 148 216Q131 210 112 194T79 151T63 90Q63 80 69 64T87 37T109 31Q133 41 149 59T177 105Z" />
<glyph unicode="&#xe7;" glyph-name="ccedilla" horiz-adv-x="185" d="M209 66Q184 34 162 21T120 6T78 3Q44 3 26 25T5 78Q4 98 7 126T27 187Q42 218 59 232T92 253T118 263Q126 266 135 266Q155 266 167 256Q172 252 173 246T175 232Q175 228 175 224T173 215Q171
202 162 182T144 142Q138 136 131 136Q123 136 127 145Q132 165 140 178T149 202Q150 205 150 208T150 213Q150 227 138 232Q132 234 129 234Q116 234 99 222T71 189Q58 166 53 137T47 88Q47 64 64 49T107 35Q135 38 161 50T207 87Q210 89 213 89Q216 89 216 85Q216
81 214 75T209 66ZM373 -105Q373 -129 358 -145T318 -169T266 -177Q247 -177 230 -168T213 -142Q213 -131 223 -117T250 -102Q258 -102 258 -109Q258 -117 250 -119T241 -130Q241 -137 249 -148T268 -159Q294 -159 315 -143T336 -105Q336 -92 327 -84T308 -66T298
-36Q298 -19 308 1T343 21Q349 21 351 18T348 11Q344 8 337 -2T329 -26Q329 -39 340 -49T362 -72T373 -105Z" />
<glyph unicode="&#xe8;" glyph-name="egrave" horiz-adv-x="182" d="M245 122Q232 100 212 75T171 31T130 13Q99 13 82 16T53 27Q34 40 22 61T8 104Q7 110 7 116T7 127Q7 186 30 231T95 285Q108 287 115 275T122 241Q122 209 105 172Q98 157 91 144T78 122Q65
103 59 97T52 84Q52 68 72 53T134 38Q150 38 167 52T200 87T230 129Q236 139 241 139Q247 139 247 130Q247 126 245 122ZM95 248Q91 254 79 246T56 207Q49 185 49 156Q49 148 49 140T51 124Q68 153 75 167T87 198Q89 206 93 218T98 239Q98 245 95 248ZM134 600Q134
591 125 591Q122 591 116 593T94 607Q88 612 80 618T64 630Q56 635 49 640T37 650Q33 653 31 655T28 664Q28 670 33 675T45 680Q56 680 74 665T117 625Q134 607 134 600Z" />
<glyph unicode="&#xe9;" glyph-name="eacute" horiz-adv-x="182" d="M245 122Q232 100 212 75T171 31T130 13Q99 13 82 16T53 27Q34 40 22 61T8 104Q7 110 7 116T7 127Q7 186 30 231T95 285Q108 287 115 275T122 241Q122 209 105 172Q98 157 91 144T78 122Q65
103 59 97T52 84Q52 68 72 53T134 38Q150 38 167 52T200 87T230 129Q236 139 241 139Q247 139 247 130Q247 126 245 122ZM95 248Q91 254 79 246T56 207Q49 185 49 156Q49 148 49 140T51 124Q68 153 75 167T87 198Q89 206 93 218T98 239Q98 245 95 248ZM110 600Q110
607 127 625Q153 649 171 664T199 680Q206 680 211 675T216 664Q216 658 214 656T207 650Q202 646 195 641T180 630Q173 624 165 618T150 607Q134 596 128 594T119 591Q110 591 110 600Z" />
<glyph unicode="&#xea;" glyph-name="ecircumflex" horiz-adv-x="182" d="M245 122Q232 100 212 75T171 31T130 13Q99 13 82 16T53 27Q34 40 22 61T8 104Q7 110 7 116T7 127Q7 186 30 231T95 285Q108 287 115 275T122 241Q122 209 105 172Q98 157 91 144T78 122Q65
103 59 97T52 84Q52 68 72 53T134 38Q150 38 167 52T200 87T230 129Q236 139 241 139Q247 139 247 130Q247 126 245 122ZM95 248Q91 254 79 246T56 207Q49 185 49 156Q49 148 49 140T51 124Q68 153 75 167T87 198Q89 206 93 218T98 239Q98 245 95 248ZM38 591Q28
591 28 597Q28 604 42 618T76 646T113 671T136 682Q144 682 157 670T182 644T198 624Q200 621 202 617T205 608Q205 593 192 593H190Q181 593 176 602Q158 623 133 638Q127 635 114 627T84 611T56 597T41 591H38Z" />
<glyph unicode="&#xeb;" glyph-name="edieresis" horiz-adv-x="182" d="M245 122Q232 100 212 75T171 31T130 13Q99 13 82 16T53 27Q34 40 22 61T8 104Q7 110 7 116T7 127Q7 186 30 231T95 285Q108 287 115 275T122 241Q122 209 105 172Q98 157 91 144T78 122Q65
103 59 97T52 84Q52 68 72 53T134 38Q150 38 167 52T200 87T230 129Q236 139 241 139Q247 139 247 130Q247 126 245 122ZM95 248Q91 254 79 246T56 207Q49 185 49 156Q49 148 49 140T51 124Q68 153 75 167T87 198Q89 206 93 218T98 239Q98 245 95 248ZM111 642Q111
629 100 618T75 606Q63 606 55 614T47 635Q47 652 59 659T85 666Q96 666 103 660T111 642ZM197 642Q197 629 186 618T161 606Q149 606 141 614T133 635Q133 652 145 659T171 666Q182 666 189 660T197 642Z" />
<glyph unicode="&#xec;" glyph-name="igrave" horiz-adv-x="185" d="M221 109Q227 115 227 107Q227 102 225 94T219 82Q209 68 196 51T164 23T121 11Q84 11 70 28T56 69Q56 80 58 91T63 113Q53 95 32 72T-7 34Q-11 31 -15 31Q-21 31 -21 38Q-21 46 -15 52Q27 96
49 123T83 170T106 205Q115 234 122 261T146 318Q151 327 166 327Q176 327 184 322T192 305Q192 299 189 291Q178 260 166 239T133 184Q112 150 100 118T87 64Q87 50 93 41T113 32Q141 31 156 41T181 62Q194 76 203 88T221 109ZM201 637Q201 628 192 628Q189 628
183 630T161 644Q155 649 147 655T131 667Q123 672 116 677T104 687Q100 690 98 692T95 701Q95 707 100 712T112 717Q123 717 141 702T184 662Q201 644 201 637Z" />
<glyph unicode="&#xed;" glyph-name="iacute" horiz-adv-x="185" d="M221 109Q227 115 227 107Q227 102 225 94T219 82Q209 68 196 51T164 23T121 11Q84 11 70 28T56 69Q56 80 58 91T63 113Q53 95 32 72T-7 34Q-11 31 -15 31Q-21 31 -21 38Q-21 46 -15 52Q27 96
49 123T83 170T106 205Q115 234 122 261T146 318Q151 327 166 327Q176 327 184 322T192 305Q192 299 189 291Q178 260 166 239T133 184Q112 150 100 118T87 64Q87 50 93 41T113 32Q141 31 156 41T181 62Q194 76 203 88T221 109ZM177 381Q177 388 194 406Q220 430
238 445T266 461Q273 461 278 456T283 445Q283 439 281 437T274 431Q269 427 262 422T247 411Q240 405 232 399T217 388Q201 377 195 375T186 372Q177 372 177 381Z" />
<glyph unicode="&#xee;" glyph-name="icircumflex" horiz-adv-x="185" d="M221 109Q227 115 227 107Q227 102 225 94T219 82Q209 68 196 51T164 23T121 11Q84 11 70 28T56 69Q56 80 58 91T63 113Q53 95 32 72T-7 34Q-11 31 -15 31Q-21 31 -21 38Q-21 46 -15 52Q27
96 49 123T83 170T106 205Q115 234 122 261T146 318Q151 327 166 327Q176 327 184 322T192 305Q192 299 189 291Q178 260 166 239T133 184Q112 150 100 118T87 64Q87 50 93 41T113 32Q141 31 156 41T181 62Q194 76 203 88T221 109ZM105 628Q95 628 95 634Q95 641
109 655T143 683T180 708T203 719Q211 719 224 707T249 681T265 661Q267 658 269 654T272 645Q272 630 259 630H257Q248 630 243 639Q225 660 200 675Q194 672 181 664T151 648T123 634T108 628H105Z" />
<glyph unicode="&#xef;" glyph-name="idieresis" horiz-adv-x="185" d="M221 109Q227 115 227 107Q227 102 225 94T219 82Q209 68 196 51T164 23T121 11Q84 11 70 28T56 69Q56 80 58 91T63 113Q53 95 32 72T-7 34Q-11 31 -15 31Q-21 31 -21 38Q-21 46 -15 52Q27
96 49 123T83 170T106 205Q115 234 122 261T146 318Q151 327 166 327Q176 327 184 322T192 305Q192 299 189 291Q178 260 166 239T133 184Q112 150 100 118T87 64Q87 50 93 41T113 32Q141 31 156 41T181 62Q194 76 203 88T221 109ZM178 679Q178 666 167 655T142
643Q130 643 122 651T114 672Q114 689 126 696T152 703Q163 703 170 697T178 679ZM264 679Q264 666 253 655T228 643Q216 643 208 651T200 672Q200 689 212 696T238 703Q249 703 256 697T264 679Z" />
<glyph unicode="&#xf0;" glyph-name="eth" horiz-adv-x="331" d="M332 468Q332 461 326 459T315 456Q277 449 247 431Q265 410 276 373T292 298T297 231Q297 189 283 147Q273 117 252 86T202 33T137 11Q110 11 86 26T44 67T15 120T5 173Q5 231 38 255T126 280Q137
280 157 278T194 268T211 244Q211 235 202 235Q198 235 184 240T164 247Q157 250 149 250T133 251Q118 251 96 248T57 235T35 207Q34 201 34 195T33 182Q33 152 48 124T89 77T147 58Q177 58 197 76T230 121T249 177T255 231Q255 255 253 290T243 359T218 411Q212
406 195 393T161 367T137 355Q130 355 124 361T118 374Q118 379 120 382T127 389Q141 400 159 412T193 434Q164 456 130 470T60 490Q53 491 45 494T37 507Q37 514 43 516T54 519Q80 519 112 509T175 484T225 453Q244 462 269 470T315 479Q320 479 326 477T332 468Z"
/>
<glyph unicode="&#xf1;" glyph-name="ntilde" horiz-adv-x="264" d="M206 182Q206 159 203 148T194 130T182 114T173 88T169 37Q169 24 179 16T202 8Q208 8 208 4Q208 -1 201 -8T187 -16Q165 -16 155 1T145 39Q145 72 147 91T151 128T152 172Q151 190 147 200T126
211Q117 211 114 208T105 198Q94 182 87 154T75 94T67 38T60 5Q57 -2 53 -5T43 -8Q39 -8 36 -7T30 -4Q25 -1 25 6Q25 13 28 22T34 40Q36 48 40 68T50 111T58 150T62 167Q57 167 52 167T42 166Q27 166 27 178Q27 186 33 202T55 244Q60 252 75 264T100 274Q104 276
107 276T112 276Q123 276 124 269T125 254T126 247Q140 253 154 253Q175 253 190 237T206 182ZM185 576Q166 576 154 584T133 603Q126 610 119 615T103 620Q86 620 86 602Q86 578 73 578Q64 578 62 586T59 606Q59 627 73 640T106 654Q125 654 137 646T159 628Q166
621 173 616T185 611Q193 611 198 618T208 633Q212 641 214 646T224 652Q228 652 232 648T237 635Q237 616 222 596T185 576Z" />
<glyph unicode="&#xf2;" glyph-name="ograve" horiz-adv-x="242" d="M233 188Q233 167 224 133T200 69Q186 38 169 24T135 4T109 -7Q105 -8 101 -9T91 -11Q71 -11 60 0Q56 4 48 8T32 22T25 55Q25 79 31 101Q13 122 13 147Q13 162 20 176Q39 212 68 232T123 260T160
268Q197 268 215 244T233 188ZM192 183Q192 206 177 221T138 236Q119 236 100 225T66 196T48 163Q47 157 47 152T46 142Q57 166 69 182T88 202Q93 206 101 206Q112 206 112 200Q112 196 102 186T78 159T56 118Q64 108 77 104T104 99Q118 99 130 104T147 120Q148
123 148 125T149 130Q149 140 141 142T124 144H122Q111 144 111 149Q111 152 113 155T118 160Q124 166 131 166Q141 166 153 153Q164 138 164 124Q164 106 147 96T108 82T76 78Q60 78 50 85Q49 83 49 76Q49 48 64 39T89 24Q95 22 99 22Q113 22 128 34T156 67Q165
83 173 105T186 148T192 183ZM174 587Q174 578 165 578Q162 578 156 580T134 594Q128 599 120 605T104 617Q96 622 89 627T77 637Q73 640 71 642T68 651Q68 657 73 662T85 667Q96 667 114 652T157 612Q174 594 174 587Z" />
<glyph unicode="&#xf3;" glyph-name="oacute" horiz-adv-x="242" d="M233 188Q233 167 224 133T200 69Q186 38 169 24T135 4T109 -7Q105 -8 101 -9T91 -11Q71 -11 60 0Q56 4 48 8T32 22T25 55Q25 79 31 101Q13 122 13 147Q13 162 20 176Q39 212 68 232T123 260T160
268Q197 268 215 244T233 188ZM192 183Q192 206 177 221T138 236Q119 236 100 225T66 196T48 163Q47 157 47 152T46 142Q57 166 69 182T88 202Q93 206 101 206Q112 206 112 200Q112 196 102 186T78 159T56 118Q64 108 77 104T104 99Q118 99 130 104T147 120Q148
123 148 125T149 130Q149 140 141 142T124 144H122Q111 144 111 149Q111 152 113 155T118 160Q124 166 131 166Q141 166 153 153Q164 138 164 124Q164 106 147 96T108 82T76 78Q60 78 50 85Q49 83 49 76Q49 48 64 39T89 24Q95 22 99 22Q113 22 128 34T156 67Q165
83 173 105T186 148T192 183ZM150 331Q150 338 167 356Q193 380 211 395T239 411Q246 411 251 406T256 395Q256 389 254 387T247 381Q242 377 235 372T220 361Q213 355 205 349T190 338Q174 327 168 325T159 322Q150 322 150 331Z" />
<glyph unicode="&#xf4;" glyph-name="ocircumflex" horiz-adv-x="242" d="M233 188Q233 167 224 133T200 69Q186 38 169 24T135 4T109 -7Q105 -8 101 -9T91 -11Q71 -11 60 0Q56 4 48 8T32 22T25 55Q25 79 31 101Q13 122 13 147Q13 162 20 176Q39 212 68 232T123
260T160 268Q197 268 215 244T233 188ZM192 183Q192 206 177 221T138 236Q119 236 100 225T66 196T48 163Q47 157 47 152T46 142Q57 166 69 182T88 202Q93 206 101 206Q112 206 112 200Q112 196 102 186T78 159T56 118Q64 108 77 104T104 99Q118 99 130 104T147
120Q148 123 148 125T149 130Q149 140 141 142T124 144H122Q111 144 111 149Q111 152 113 155T118 160Q124 166 131 166Q141 166 153 153Q164 138 164 124Q164 106 147 96T108 82T76 78Q60 78 50 85Q49 83 49 76Q49 48 64 39T89 24Q95 22 99 22Q113 22 128 34T156
67Q165 83 173 105T186 148T192 183ZM78 578Q68 578 68 584Q68 591 82 605T116 633T153 658T176 669Q184 669 197 657T222 631T238 611Q240 608 242 604T245 595Q245 580 232 580H230Q221 580 216 589Q198 610 173 625Q167 622 154 614T124 598T96 584T81 578H78Z"
/>
<glyph unicode="&#xf5;" glyph-name="otilde" horiz-adv-x="242" d="M233 188Q233 167 224 133T200 69Q186 38 169 24T135 4T109 -7Q105 -8 101 -9T91 -11Q71 -11 60 0Q56 4 48 8T32 22T25 55Q25 79 31 101Q13 122 13 147Q13 162 20 176Q39 212 68 232T123 260T160
268Q197 268 215 244T233 188ZM192 183Q192 206 177 221T138 236Q119 236 100 225T66 196T48 163Q47 157 47 152T46 142Q57 166 69 182T88 202Q93 206 101 206Q112 206 112 200Q112 196 102 186T78 159T56 118Q64 108 77 104T104 99Q118 99 130 104T147 120Q148
123 148 125T149 130Q149 140 141 142T124 144H122Q111 144 111 149Q111 152 113 155T118 160Q124 166 131 166Q141 166 153 153Q164 138 164 124Q164 106 147 96T108 82T76 78Q60 78 50 85Q49 83 49 76Q49 48 64 39T89 24Q95 22 99 22Q113 22 128 34T156 67Q165
83 173 105T186 148T192 183ZM199 578Q180 578 168 586T147 605Q140 612 133 617T117 622Q100 622 100 604Q100 580 87 580Q78 580 76 588T73 608Q73 629 87 642T120 656Q139 656 151 648T173 630Q180 623 187 618T199 613Q207 613 212 620T222 635Q226 643 228
648T238 654Q242 654 246 650T251 637Q251 618 236 598T199 578Z" />
<glyph unicode="&#xf6;" glyph-name="odieresis" horiz-adv-x="242" d="M233 188Q233 167 224 133T200 69Q186 38 169 24T135 4T109 -7Q105 -8 101 -9T91 -11Q71 -11 60 0Q56 4 48 8T32 22T25 55Q25 79 31 101Q13 122 13 147Q13 162 20 176Q39 212 68 232T123
260T160 268Q197 268 215 244T233 188ZM192 183Q192 206 177 221T138 236Q119 236 100 225T66 196T48 163Q47 157 47 152T46 142Q57 166 69 182T88 202Q93 206 101 206Q112 206 112 200Q112 196 102 186T78 159T56 118Q64 108 77 104T104 99Q118 99 130 104T147
120Q148 123 148 125T149 130Q149 140 141 142T124 144H122Q111 144 111 149Q111 152 113 155T118 160Q124 166 131 166Q141 166 153 153Q164 138 164 124Q164 106 147 96T108 82T76 78Q60 78 50 85Q49 83 49 76Q49 48 64 39T89 24Q95 22 99 22Q113 22 128 34T156
67Q165 83 173 105T186 148T192 183ZM151 629Q151 616 140 605T115 593Q103 593 95 601T87 622Q87 639 99 646T125 653Q136 653 143 647T151 629ZM237 629Q237 616 226 605T201 593Q189 593 181 601T173 622Q173 639 185 646T211 653Q222 653 229 647T237 629Z"
/>
<glyph unicode="&#xf7;" glyph-name="divide" horiz-adv-x="268" d="M170 192Q170 182 163 175T145 168Q135 168 128 175T120 192Q120 203 127 209T145 216Q156 216 163 210T170 192ZM59 101Q56 101 48 102T39 108Q39 116 53 123T74 133Q85 137 96 138T119 139Q142
139 165 137T212 131Q215 130 226 128T238 121Q238 116 227 115T212 113Q199 112 186 112T158 110Q134 108 112 105T64 101H59ZM162 53Q162 43 155 36T137 29Q127 29 119 36T111 53Q111 64 119 70T137 77Q148 77 155 71T162 53Z" />
<glyph unicode="&#xf8;" glyph-name="oslash" horiz-adv-x="258" d="M59 -45Q60 -49 63 -53T68 -63Q68 -67 66 -67H64Q57 -67 52 -60T45 -48Q43 -36 48 -11T64 45L63 46Q38 71 22 104T5 173Q5 231 38 255T126 280Q132 280 142 280T164 277Q175 298 184 314T199
338Q201 340 203 340T206 342H210Q215 342 220 341T226 336V334Q220 324 211 308T189 269Q211 261 211 244Q211 235 202 235Q199 235 191 238T175 243Q171 235 167 227T158 209H159Q197 209 225 190T254 130Q254 81 221 48T139 14Q103 14 77 33Q67 6 62 -14T59
-45ZM78 85Q94 126 113 169T150 250Q146 251 142 251T133 251Q118 251 97 248T57 235T35 207Q34 201 34 195T33 182Q33 154 45 129T78 85ZM154 203Q138 172 123 139T94 74Q108 66 123 61T154 56Q188 56 207 78T226 133Q226 146 211 159T178 185T154 203Z" />
<glyph unicode="&#xf9;" glyph-name="ugrave" horiz-adv-x="287" d="M311 63Q285 32 266 20T233 8Q215 8 203 22T182 54T168 78Q149 61 123 43T80 24Q48 24 30 40T12 89Q12 122 20 167T42 256T67 331Q70 340 79 346T99 352Q111 352 115 346T119 332Q119 322 116
313T112 303Q100 269 85 232T56 148Q55 142 54 131T52 108Q52 91 56 77T74 62Q85 62 103 75T141 111T171 164Q181 191 189 223T203 283T216 328Q219 335 225 335Q233 335 239 329T244 318Q240 308 233 285T219 234T206 180T196 135T192 115Q192 100 195 88T205
62Q210 54 217 45T233 35Q252 35 269 48T296 75Q303 86 309 86Q315 86 315 75Q315 67 311 63ZM185 400Q185 391 176 391Q173 391 167 393T145 407Q139 412 131 418T115 430Q107 435 100 440T88 450Q84 453 82 455T79 464Q79 470 84 475T96 480Q107 480 125 465T168
425Q185 407 185 400Z" />
<glyph unicode="&#xfa;" glyph-name="uacute" horiz-adv-x="287" d="M311 63Q285 32 266 20T233 8Q215 8 203 22T182 54T168 78Q149 61 123 43T80 24Q48 24 30 40T12 89Q12 122 20 167T42 256T67 331Q70 340 79 346T99 352Q111 352 115 346T119 332Q119 322 116
313T112 303Q100 269 85 232T56 148Q55 142 54 131T52 108Q52 91 56 77T74 62Q85 62 103 75T141 111T171 164Q181 191 189 223T203 283T216 328Q219 335 225 335Q233 335 239 329T244 318Q240 308 233 285T219 234T206 180T196 135T192 115Q192 100 195 88T205
62Q210 54 217 45T233 35Q252 35 269 48T296 75Q303 86 309 86Q315 86 315 75Q315 67 311 63ZM161 400Q161 407 178 425Q204 449 222 464T250 480Q257 480 262 475T267 464Q267 458 265 456T258 450Q253 446 246 441T231 430Q224 424 216 418T201 407Q185 396 179
394T170 391Q161 391 161 400Z" />
<glyph unicode="&#xfb;" glyph-name="ucircumflex" horiz-adv-x="287" d="M311 63Q285 32 266 20T233 8Q215 8 203 22T182 54T168 78Q149 61 123 43T80 24Q48 24 30 40T12 89Q12 122 20 167T42 256T67 331Q70 340 79 346T99 352Q111 352 115 346T119 332Q119 322
116 313T112 303Q100 269 85 232T56 148Q55 142 54 131T52 108Q52 91 56 77T74 62Q85 62 103 75T141 111T171 164Q181 191 189 223T203 283T216 328Q219 335 225 335Q233 335 239 329T244 318Q240 308 233 285T219 234T206 180T196 135T192 115Q192 100 195 88T205
62Q210 54 217 45T233 35Q252 35 269 48T296 75Q303 86 309 86Q315 86 315 75Q315 67 311 63ZM89 391Q79 391 79 397Q79 404 93 418T127 446T164 471T187 482Q195 482 208 470T233 444T249 424Q251 421 253 417T256 408Q256 393 243 393H241Q232 393 227 402Q209
423 184 438Q178 435 165 427T135 411T107 397T92 391H89Z" />
<glyph unicode="&#xfc;" glyph-name="udieresis" horiz-adv-x="287" d="M311 63Q285 32 266 20T233 8Q215 8 203 22T182 54T168 78Q149 61 123 43T80 24Q48 24 30 40T12 89Q12 122 20 167T42 256T67 331Q70 340 79 346T99 352Q111 352 115 346T119 332Q119 322
116 313T112 303Q100 269 85 232T56 148Q55 142 54 131T52 108Q52 91 56 77T74 62Q85 62 103 75T141 111T171 164Q181 191 189 223T203 283T216 328Q219 335 225 335Q233 335 239 329T244 318Q240 308 233 285T219 234T206 180T196 135T192 115Q192 100 195 88T205
62Q210 54 217 45T233 35Q252 35 269 48T296 75Q303 86 309 86Q315 86 315 75Q315 67 311 63ZM162 442Q162 429 151 418T126 406Q114 406 106 414T98 435Q98 452 110 459T136 466Q147 466 154 460T162 442ZM248 442Q248 429 237 418T212 406Q200 406 192 414T184
435Q184 452 196 459T222 466Q233 466 240 460T248 442Z" />
<glyph unicode="&#xfd;" glyph-name="yacute" horiz-adv-x="291" d="M268 296Q274 287 274 276Q274 254 260 221T230 147T214 65Q213 11 213 -46T200 -157T148 -257Q116 -294 81 -307T6 -321Q-1 -321 -9 -321T-25 -319Q-44 -317 -66 -301T-104 -255T-120 -182Q-120
-167 -117 -149Q-112 -119 -102 -89T-73 -38T-22 -18Q4 -18 27 -37T65 -82T86 -126Q89 -138 91 -151T94 -178Q94 -201 85 -210Q75 -221 60 -221Q49 -221 34 -215Q24 -213 11 -202T-3 -172Q-3 -160 2 -149T12 -134Q20 -128 23 -128Q28 -128 30 -141V-142Q30 -146
26 -150T23 -164Q25 -178 34 -184T47 -191Q60 -191 60 -165Q60 -144 48 -114Q38 -89 20 -71T-22 -49Q-34 -47 -48 -55T-74 -86Q-81 -99 -83 -115T-86 -148Q-86 -167 -83 -184Q-81 -239 -55 -264T15 -290Q21 -290 27 -290T41 -288Q71 -284 99 -258T146 -198Q162
-169 166 -150T171 -104Q171 -87 171 -66T170 -14Q170 6 170 31T172 87Q119 59 85 59Q58 59 35 76Q27 82 24 91T20 112Q20 136 32 165T60 220T88 258Q95 270 104 270Q112 270 117 261T117 247Q104 236 95 220T78 187Q71 170 71 143Q71 133 72 123T78 108Q83 102
96 102Q108 102 123 107T148 122Q172 144 182 168T199 216Q202 228 206 244T210 278Q210 284 223 294T250 305Q261 305 268 296ZM175 354Q175 361 192 379Q218 403 236 418T264 434Q271 434 276 429T281 418Q281 412 279 410T272 404Q267 400 260 395T245 384Q238
378 230 372T215 361Q199 350 193 348T184 345Q175 345 175 354Z" />
<glyph unicode="&#xfe;" glyph-name="thorn" horiz-adv-x="292" d="M323 102Q328 108 331 108Q337 108 337 100Q337 91 327 77Q299 41 277 25T232 4T181 0Q156 0 134 4T102 15Q99 -5 97 -33T83 -118Q67 -196 40 -247T-30 -304Q-45 -306 -51 -291T-57 -253Q-57
-233 -53 -211T-44 -171Q-32 -130 -25 -110T-12 -77T0 -49T15 -4Q18 6 22 19T33 49Q32 57 29 60T26 69Q26 87 44 97T74 104Q76 123 77 150T81 207T90 258Q86 320 75 383T45 505Q44 507 44 511Q44 523 55 530T76 538Q92 538 96 522Q101 505 103 485T107 446Q111
413 113 376T119 310T126 270Q128 266 131 266T138 265Q144 265 147 263Q160 257 180 257T213 249Q227 241 238 224T249 176Q249 166 245 141T226 88T181 42Q200 34 218 34Q243 34 269 49T323 102ZM158 64Q168 64 178 75T198 102T211 131Q217 149 217 166T218 189Q218
207 201 222T165 238Q143 238 131 218T113 164T101 91Q102 90 102 90T103 90Q105 90 106 91T110 92Q112 92 116 91T124 85Q135 76 144 70T158 64ZM113 40Q125 37 138 42T151 47Q151 47 139 51T116 62Q114 63 110 63Q105 63 105 55Q105 51 107 47T113 40ZM56 -64Q60
-44 63 -24T68 12T68 28Q66 30 62 31T53 35Q39 -14 26 -53T1 -131T-20 -221Q-21 -228 -21 -233T-22 -243Q-22 -256 -17 -256Q-12 -256 -5 -248T7 -230Q33 -190 40 -164T49 -116T56 -64Z" />
<glyph unicode="&#xff;" glyph-name="ydieresis" horiz-adv-x="291" d="M268 296Q274 287 274 276Q274 254 260 221T230 147T214 65Q213 11 213 -46T200 -157T148 -257Q116 -294 81 -307T6 -321Q-1 -321 -9 -321T-25 -319Q-44 -317 -66 -301T-104 -255T-120 -182Q-120
-167 -117 -149Q-112 -119 -102 -89T-73 -38T-22 -18Q4 -18 27 -37T65 -82T86 -126Q89 -138 91 -151T94 -178Q94 -201 85 -210Q75 -221 60 -221Q49 -221 34 -215Q24 -213 11 -202T-3 -172Q-3 -160 2 -149T12 -134Q20 -128 23 -128Q28 -128 30 -141V-142Q30 -146
26 -150T23 -164Q25 -178 34 -184T47 -191Q60 -191 60 -165Q60 -144 48 -114Q38 -89 20 -71T-22 -49Q-34 -47 -48 -55T-74 -86Q-81 -99 -83 -115T-86 -148Q-86 -167 -83 -184Q-81 -239 -55 -264T15 -290Q21 -290 27 -290T41 -288Q71 -284 99 -258T146 -198Q162
-169 166 -150T171 -104Q171 -87 171 -66T170 -14Q170 6 170 31T172 87Q119 59 85 59Q58 59 35 76Q27 82 24 91T20 112Q20 136 32 165T60 220T88 258Q95 270 104 270Q112 270 117 261T117 247Q104 236 95 220T78 187Q71 170 71 143Q71 133 72 123T78 108Q83 102
96 102Q108 102 123 107T148 122Q172 144 182 168T199 216Q202 228 206 244T210 278Q210 284 223 294T250 305Q261 305 268 296ZM176 652Q176 639 165 628T140 616Q128 616 120 624T112 645Q112 662 124 669T150 676Q161 676 168 670T176 652ZM262 652Q262 639
251 628T226 616Q214 616 206 624T198 645Q198 662 210 669T236 676Q247 676 254 670T262 652Z" />
<glyph unicode="&#x2013;" glyph-name="endash" horiz-adv-x="435" d="M380 178Q387 175 387 168Q387 162 383 157T372 152Q365 152 342 152T290 152T239 153T209 155Q181 156 157 156T130 156Q108 156 100 156T86 155Q76 155 70 158Q60 165 60 173Q60 180 68
180Q76 180 91 182T134 185H344Q358 185 367 183T380 178Z" />
<glyph unicode="&#x2014;" glyph-name="emdash" horiz-adv-x="536" d="M479 178Q488 175 488 168Q488 162 483 157T469 152Q461 152 440 152T390 152T333 153T284 153T255 155Q218 156 187 156T152 156Q124 156 113 156T94 155Q81 155 73 158Q60 165 60 173Q60
180 71 180Q81 180 101 182T157 185H432Q451 185 462 183T479 178Z" />
<glyph unicode="&#x2018;" glyph-name="quoteleft" horiz-adv-x="120" d="M115 582Q104 565 99 557T89 540T75 511Q71 499 67 490T60 468H80Q105 466 106 458T108 425Q108 405 100 399T77 387Q70 381 64 381Q55 381 49 387T42 393L28 447Q31 475 37 492T51 522T71
549T95 587Q98 591 103 591Q108 591 112 589T115 582Z" />
<glyph unicode="&#x2019;" glyph-name="quoteright" horiz-adv-x="120" d="M121 503Q118 475 112 458T98 428T78 401T53 363Q52 359 44 359Q40 359 36 361T34 368Q45 385 50 393T60 409T73 438Q78 451 82 460T89 482H69Q44 482 43 490T41 524Q41 545 49 551T72
563Q77 568 85 568Q94 568 100 562T106 556L121 503Z" />
<glyph unicode="&#x201a;" glyph-name="quotesinglbase" horiz-adv-x="173" d="M116 18Q113 -5 113 -27T105 -71Q97 -91 79 -107T43 -138T13 -171Q12 -174 5 -174Q0 -174 -4 -172T-6 -165Q5 -148 22 -131T56 -94T81 -55Q86 -42 88 -31T92 -7H85Q60 -7 52 2T43
36Q43 57 52 63T74 75Q82 81 87 81Q97 81 103 75T109 68L116 18Z" />
<glyph unicode="&#x201c;" glyph-name="quotedblleft" horiz-adv-x="234" d="M229 582Q219 565 213 557T203 540T190 511Q186 499 182 490T175 468H195Q220 466 221 458T222 425Q222 405 214 399T192 387Q185 381 179 381Q170 381 164 387T157 393L142 447Q146
475 152 492T166 522T186 549T210 587Q213 591 219 591Q224 591 228 589T229 582ZM115 582Q104 565 99 557T89 540T75 511Q71 499 67 490T60 468H80Q105 466 106 458T108 425Q108 405 100 399T77 387Q70 381 64 381Q55 381 49 387T42 393L28 447Q31 475 37 492T51
522T71 549T95 587Q98 591 103 591Q108 591 112 589T115 582Z" />
<glyph unicode="&#x201d;" glyph-name="quotedblright" horiz-adv-x="234" d="M235 500Q232 472 226 455T212 425T192 398T168 360Q165 356 159 356Q154 356 150 358T148 365Q159 382 164 390T175 407T188 436Q193 448 197 457T203 478H183Q158 481 157 489T155
522Q155 542 164 548T186 560Q192 566 199 566Q208 566 214 560T221 553L235 500ZM121 500Q118 472 112 455T97 425T77 398T53 360Q50 356 44 356Q39 356 35 358T34 365Q45 382 50 390T60 407T73 436Q78 448 82 457T88 478H68Q43 481 42 489T41 522Q41 542 49 548T72
560Q78 566 84 566Q93 566 99 560T106 553L121 500Z" />
<glyph unicode="&#x201e;" glyph-name="quotedblbase" horiz-adv-x="284" d="M227 18Q224 -5 224 -27T216 -71Q208 -91 190 -107T154 -138T124 -171Q123 -174 116 -174Q111 -174 107 -172T105 -165Q116 -148 133 -131T167 -94T192 -55Q197 -42 199 -31T203 -7H196Q171
-7 163 2T154 36Q154 57 163 63T185 75Q193 81 198 81Q208 81 214 75T220 68L227 18ZM116 18Q113 -5 113 -27T105 -71Q97 -91 79 -107T43 -138T13 -171Q12 -174 5 -174Q0 -174 -4 -172T-6 -165Q5 -148 22 -131T56 -94T81 -55Q86 -42 88 -31T92 -7H85Q60 -7 52 2T43
36Q43 57 52 63T74 75Q82 81 87 81Q97 81 103 75T109 68L116 18Z" />
<glyph unicode="&#x2022;" glyph-name="bullet" horiz-adv-x="560" d="M280 70Q225 70 180 97T108 169T81 268Q81 323 108 368T180 440T280 467Q335 467 380 440T452 368T479 268Q479 214 452 169T380 97T280 70Z" />
<glyph unicode="&#x2039;" glyph-name="guilsinglleft" horiz-adv-x="209" d="M136 271Q142 274 154 269T166 257Q166 254 158 246T148 235Q137 220 113 192T65 144Q82 114 99 92T139 46Q142 43 153 37T164 22Q164 17 152 11Q151 10 144 10T134 10Q130 10 126
12Q118 17 102 33T69 72T40 113T27 144Q27 152 32 156Q58 182 76 203T121 255Q123 256 128 263T136 271Z" />
<glyph unicode="&#x203a;" glyph-name="guilsinglright" horiz-adv-x="209" d="M50 11Q44 8 32 13T20 25Q20 28 28 36T38 47Q49 62 74 90T121 138Q104 168 87 191T47 236Q44 239 33 246T22 260Q22 265 34 271Q35 272 43 272T52 272Q56 272 60 270Q68 265 84 249T117
210T146 169T159 138Q159 130 154 126Q128 101 110 79T65 27Q64 26 58 19T50 11Z" />
</font>
</defs>
</svg>
