<?xml version="1.0" standalone="no"?>
<!DOCTYPE svg PUBLIC "-//W3C//DTD SVG 1.1//EN" "http://www.w3.org/Graphics/SVG/1.1/DTD/svg11.dtd">
<svg xmlns="http://www.w3.org/2000/svg">
<defs >
<font id="PaletteMosaic" horiz-adv-x="908" ><font-face
    font-family="Palette Mosaic"
    units-per-em="1000"
    panose-1="2 11 5 0 0 0 0 0 0 0"
    ascent="1160"
    descent="-288"
    alphabetic="0" />
<glyph unicode=" " glyph-name="space" horiz-adv-x="1000" />
<glyph unicode="!" glyph-name="exclam" horiz-adv-x="500" d="M320 88Q289 87 257 87T192 89Q185 89 172 94Q174 129 173 162T172 228V501Q172 535 172 569T172 637Q174 671 175 704T178 771Q185 773 205 774T251 775T302 776T345 773Q346 766 347 760T349 745V118Q349
98 345 94T320 88ZM195 59Q233 59 270 59T344 58L352 42Q350 35 349 28T344 15Q337 4 330 -6T314 -28Q292 -28 270 -28T226 -27Q220 -27 215 -24T205 -18Q203 -16 202 -14T198 -11Q163 15 174 57Q179 58 184 58T195 59Z" />
<glyph unicode="&quot;" glyph-name="quotedbl" horiz-adv-x="459" d="M197 544Q162 544 148 542T132 546Q129 559 127 585T124 642T122 701T121 748T121 766L201 772Q202 777 202 763T203 723T203 666T202 608T200 562T197 544ZM296 528Q290 529 284 529T269
531Q261 538 260 548T259 568Q261 603 261 637T263 705Q264 720 265 735T268 765L355 762L354 763Q358 762 361 760T369 756Q366 704 363 652T357 548Q355 526 337 525Q317 525 296 528Z" />
<glyph unicode="#" glyph-name="numbersign" horiz-adv-x="780" d="M181 169Q171 170 161 170T141 170H124V253Q124 263 124 271T125 290Q125 297 128 299T137 303H201L227 472Q209 472 192 473T156 477V604Q159 604 162 604T169 605H247L266 730Q271 731 288
729T329 722T374 715T409 711L389 601Q393 600 396 600T403 600Q414 599 426 599T449 599L467 717Q472 718 489 716T530 709T574 702T609 697L592 597Q607 596 621 596T651 594V473Q631 472 611 472T570 472Q568 455 563 424T553 360T543 302Q575 304 585 304T600
305Q604 305 611 305T621 303Q620 287 620 262T620 214T620 177Q617 177 615 177T605 176Q586 174 565 173T522 170Q517 139 512 108T504 45L368 67L384 168H318Q314 140 310 113T303 58L167 80L181 169ZM340 301H404L430 472H367Q364 450 359 418T349 355T340
301Z" />
<glyph unicode="$" glyph-name="dollar" horiz-adv-x="593" d="M119 421Q106 437 100 453T96 489Q98 503 96 513Q92 544 109 567T150 612Q165 624 183 633T220 649Q222 675 224 700T229 742T234 759Q276 756 293 756T312 752Q316 740 317 716T318 665H319Q319
655 319 646T317 627Q316 607 315 593T314 579H313Q312 562 312 545T311 510Q313 473 313 436T318 361Q322 360 325 360T333 359Q456 349 505 260Q512 249 516 237T518 211Q518 202 518 194T518 177Q524 146 506 123T463 80Q437 59 398 46Q399 24 399 11T399 -3L312
-9Q311 -16 311 35Q298 31 287 38Q283 41 277 41T266 43Q210 54 184 90Q170 109 174 138T196 183Q208 193 220 202T251 216Q261 218 271 219T291 222Q296 207 295 194T295 167Q296 163 297 159T299 149Q299 173 299 197T297 246Q297 268 296 290T293 336Q283 338
273 340T255 344Q212 355 177 372T119 421ZM319 442Q319 497 320 552T328 665Q363 663 388 648Q420 629 441 603T459 541Q454 474 384 445Q369 440 354 436T319 442ZM300 102H305Q304 111 303 119T300 137V102Z" />
<glyph unicode="%" glyph-name="percent" horiz-adv-x="911" d="M252 257Q280 295 307 333T362 409Q406 470 449 529T535 649Q546 663 556 678T586 705Q601 695 616 682T646 658Q659 649 672 641T698 624Q710 616 711 610T703 591Q697 583 690 575T676 559Q672
555 668 551T662 541Q636 493 603 451T538 363Q508 319 477 276T414 188Q398 166 382 144T349 100Q336 84 323 68T295 37Q286 26 283 25T268 33Q258 42 247 51T224 70Q212 80 199 90T173 110Q160 119 160 124T170 143Q190 172 211 200T252 257ZM298 479Q290 495
280 509T261 539Q243 571 225 602T188 668Q196 671 202 673T214 679Q231 690 249 690T287 689Q318 686 344 660Q359 645 369 628T387 590Q396 564 390 537Q388 524 383 511T368 486Q365 482 363 478T359 468Q359 466 358 463T352 458Q345 455 339 452T326 445Q322
443 319 443T315 449Q314 459 308 465T298 479ZM107 501Q107 502 107 503T106 506Q106 520 106 533T107 560Q107 565 109 569T114 577Q120 588 126 598T139 619Q138 620 136 621T131 623Q133 625 134 626T138 629Q146 634 154 638T170 647Q174 649 178 650T186
647Q192 639 184 631Q184 630 182 627Q188 618 194 609T206 589Q229 554 251 518T296 447Q298 445 298 443T300 438Q304 432 311 423Q311 422 310 420T307 415Q296 409 285 404Q279 402 274 400T262 396Q260 395 255 395H243Q208 394 182 410T135 451Q117 473 107
501ZM744 324Q759 310 769 293T787 255Q792 242 792 229T791 201Q788 188 784 175T768 150Q765 146 763 142T760 133Q760 126 753 123Q746 120 740 116T726 109Q716 105 715 113Q715 123 709 129T698 143Q691 159 681 173T661 203Q643 235 626 267T588 332Q596
336 602 338T614 344Q631 354 650 355T688 354Q718 350 744 324ZM586 312Q593 304 585 296L583 292Q588 283 594 274T606 254Q629 218 652 183T697 111Q699 105 701 102Q703 99 705 96T712 87Q711 86 711 84T708 80Q703 76 697 74T685 68Q680 66 674 64T663 60Q661
59 656 59H643Q609 58 583 74T536 116Q527 127 520 139T508 165Q506 169 506 171Q506 185 506 198T507 225Q508 232 514 241Q520 252 526 262T539 284Q538 285 536 285T531 287Q533 289 535 291T538 294Q546 299 554 303T571 312Q575 314 578 315T586 312Z" />
<glyph unicode="&amp;" glyph-name="ampersand" horiz-adv-x="805" d="M375 490Q362 506 346 520T313 550Q282 582 251 614T188 680Q196 686 202 691T215 702Q232 719 254 726T298 736Q337 740 374 718Q397 705 414 688T446 649Q457 635 461 619T467 587Q468 571
467 553T456 519Q453 514 452 509T451 496Q452 493 452 489T446 482Q439 477 433 471T419 458Q415 455 411 454T404 459Q401 471 392 476T375 490ZM142 504Q141 508 141 511T139 519Q129 558 139 591T174 655Q177 658 180 661T186 668L295 554L425 412Q425 412
436 400T466 368T504 328T540 290T563 265Q600 228 634 190T706 117L599 17L186 446V447Q183 447 179 449Q170 458 160 473Q156 478 153 484T145 496Q144 498 144 500T142 504ZM643 221Q640 217 637 213T630 205L505 338Q529 362 553 386T602 434Q604 436 607 437T612
441Q616 445 619 449T628 459Q629 459 633 459T639 456Q645 450 650 444T661 430Q666 423 670 417T678 403Q680 401 680 399T681 394Q682 390 683 386T685 377Q697 331 684 293T643 221ZM141 125Q125 143 118 166T105 214Q101 228 99 243T95 273Q94 296 99 318T115
361Q123 376 131 392T153 419Q163 427 178 437Q185 430 191 423T204 409Q227 385 249 361T294 313Q329 278 364 244T434 174Q451 158 467 141T500 107Q501 106 501 106T501 105Q515 91 515 87T498 71Q404 1 287 21Q274 23 262 29T238 39Q206 51 184 75T141 125Z"
/>
<glyph unicode="&apos;" glyph-name="quotesingle" horiz-adv-x="359" d="M198 556Q163 556 149 555T133 559Q130 572 128 598T125 655T123 714T122 760T122 778L202 784Q203 790 203 776T204 735T204 679T203 620T201 574T198 556Z" />
<glyph unicode="(" glyph-name="parenleft" horiz-adv-x="455" d="M130 614Q123 614 116 614T98 612Q97 613 94 617T91 625Q90 636 92 648T95 671Q97 682 99 692T105 713Q106 719 110 724Q113 729 116 734T122 744Q154 798 202 822T309 852Q316 853 323 853T337
854L330 610Q284 610 239 610T147 611Q143 611 139 612T130 614ZM284 294Q284 257 283 219T279 141H112Q108 176 105 211T98 280Q97 312 97 335T98 358V604H279Q281 595 281 586T281 568Q282 500 283 432T284 294ZM367 133Q367 85 367 37T366 -59Q365 -63 364 -67T363
-77Q363 -84 363 -92T365 -111Q364 -112 360 -115T351 -119Q339 -119 327 -118T303 -114Q292 -112 281 -109T258 -104Q252 -102 246 -98Q241 -95 236 -92T225 -85Q168 -52 143 -1T111 111Q110 119 110 126T109 140L367 133Z" />
<glyph unicode=")" glyph-name="parenright" horiz-adv-x="460" d="M310 624Q264 623 219 623T128 622L121 866Q128 866 135 866T149 865Q207 859 255 835T335 756Q338 752 341 747T347 737Q352 730 353 725Q355 715 358 705T362 683Q364 672 365 661T367 638Q367
633 364 630T360 624Q349 626 342 626T327 626Q323 626 319 625T310 624ZM360 293Q356 259 353 224T346 154H178Q177 193 176 231T174 307Q174 445 177 581Q177 589 177 598T178 617H360V370Q361 370 361 347T360 293ZM95 -64Q94 -59 93 -55T92 -46Q91 1 91 49T90
145L348 153Q348 146 348 139T347 123Q340 62 315 12T232 -73Q227 -76 222 -79T211 -86Q208 -87 206 -89T199 -92Q188 -94 177 -96T155 -101Q143 -103 131 -105T106 -106Q102 -106 98 -103T92 -99Q94 -87 94 -79T95 -64Z" />
<glyph unicode="*" glyph-name="asterisk" horiz-adv-x="399" d="M82 606Q93 613 104 619T126 633Q115 643 104 653T81 673L103 701Q111 711 120 720T134 725L161 701Q161 712 161 723T163 747L199 748Q211 748 224 747T236 740Q236 728 236 717T234 693Q235 694
235 694T236 694Q244 699 252 702T269 703Q273 697 276 693T282 684Q287 677 291 670T299 655Q307 641 289 632L259 614Q270 605 281 596T302 578Q301 570 287 551T261 523Q253 530 246 536T230 549Q230 541 230 533T229 517Q222 513 199 512T161 514V556Q153 551
144 546T127 536Q124 538 121 540T117 543L82 606ZM116 544L117 543V543L116 544Z" />
<glyph unicode="+" glyph-name="plus" horiz-adv-x="602" d="M80 231Q78 242 75 251T71 270Q70 293 70 315T71 361Q71 377 76 382T97 393Q124 401 152 401T207 403Q209 403 212 403T217 404V585H381Q382 575 382 565T382 547Q383 513 383 480T384 412Q397 413
409 414T434 416Q445 417 451 413T462 400Q471 408 488 415T518 410Q522 407 524 396T527 370T529 345T530 334V273Q530 249 524 244T494 236Q467 235 440 234T385 232Q384 198 383 163T381 91H230Q227 126 224 162T218 232Q195 232 172 232T125 231H80Z" />
<glyph unicode="," glyph-name="comma" horiz-adv-x="333" d="M92 51Q91 55 90 58T87 64Q82 72 82 81T82 99Q83 114 96 127Q104 135 112 139T130 148Q137 150 143 150T156 150Q163 149 169 147T181 139Q185 136 189 134Q193 134 194 131Q196 128 198 125T201 118Q204
113 199 113Q195 113 192 110T184 105Q177 101 170 96T155 87Q125 69 92 51ZM85 -26Q78 -24 82 -19Q84 -14 91 -16H94Q98 -11 102 -6T111 3Q116 8 119 12T127 21Q124 23 122 24T116 27Q116 27 114 23Q112 25 111 27L102 42Q101 44 101 46T102 50Q107 53 110 49L112
48L130 60Q148 71 165 82T200 104Q201 105 202 105T204 106Q206 107 207 108T212 111Q212 111 213 111T215 109Q217 107 218 104T221 98Q222 96 223 93T225 87V78Q225 64 221 53Q224 39 219 26T205 -1Q200 -8 195 -14T181 -25Q181 -27 178 -27Q171 -30 163 -33T147
-39Q145 -40 142 -40T136 -39Q129 -38 122 -38T107 -36Q106 -37 106 -41Q105 -40 104 -40T101 -39Q97 -36 93 -33T85 -26Z" />
<glyph unicode="-" glyph-name="hyphen" horiz-adv-x="566" d="M367 219Q339 218 318 218T297 219H74V383Q83 384 91 384T107 384Q230 387 354 387Q388 387 422 386T493 383V232Q462 229 430 226T367 219Z" />
<glyph unicode="." glyph-name="period" horiz-adv-x="380" d="M197 155Q215 152 229 138Q246 122 253 99Q258 86 255 69Q254 62 251 54T242 40Q241 38 240 36T238 30Q238 26 234 25Q230 23 227 21T219 17Q213 15 213 19Q212 25 209 28T203 36Q199 45 193 53T182
70Q172 88 162 106T141 143Q146 145 149 146T156 149Q166 155 176 156T197 155ZM96 49Q95 50 95 52V82Q96 84 97 87T99 92Q107 104 113 115Q113 115 109 117Q111 119 111 119T113 121Q118 124 122 126T131 131Q136 135 140 131Q144 127 139 122Q139 122 139 122T138
120Q141 115 144 110T151 99L202 18Q204 16 204 13Q206 12 207 10T211 5Q210 4 210 3T208 0Q205 -1 202 -2T196 -5Q192 -6 189 -7T183 -10H172Q153 -11 138 -3T111 21Q107 27 103 34T96 49Z" />
<glyph unicode="/" glyph-name="slash" horiz-adv-x="716" d="M610 733Q627 725 630 719T625 695Q620 685 613 675T599 654Q596 648 593 642T588 630Q568 569 538 514T482 402Q456 345 429 289T375 177Q361 149 347 120T318 64Q306 43 294 23T269 -18Q260 -32
256 -34T237 -27Q222 -19 207 -10T176 7Q160 16 142 25T106 44Q89 53 88 59T94 83Q111 119 130 155T165 229Q189 278 213 327T260 424Q298 502 335 579T410 733Q419 752 428 771T457 807Q478 797 499 786T540 763Q558 755 575 748T610 733Z" />
<glyph unicode="0" glyph-name="zero" horiz-adv-x="666" d="M386 705Q418 701 446 686T497 647Q527 618 547 584T582 510Q592 484 592 458T588 406Q584 379 575 353T545 304Q538 297 534 290T528 271Q528 265 525 260T514 251Q501 245 489 238T462 224Q455 220
448 221T440 232Q440 252 428 264T407 291Q392 322 372 350T335 409Q299 471 264 534T191 663Q205 669 218 673T242 685Q276 705 312 707T386 705ZM92 361Q93 369 97 377T106 393Q117 414 129 434T155 477Q153 479 149 480T139 483Q144 488 146 491T153 496Q169
505 185 513T217 531Q225 536 232 538T247 531Q255 523 254 516T245 500Q244 499 244 498T241 492Q252 475 263 456T287 418Q331 348 376 278T465 137Q467 133 469 129T473 119Q477 113 482 107T494 90Q493 89 492 84T486 76Q476 69 465 64T442 54Q431 49 420 46T398
37Q395 36 392 36T384 36H359Q291 34 240 65T148 146Q131 169 117 193T94 244Q91 249 91 255Q91 281 91 307T92 361Z" />
<glyph unicode="1" glyph-name="one" horiz-adv-x="531" d="M362 743Q381 721 386 699T386 646H86Q86 666 84 686T88 724Q93 739 106 750T132 774Q133 776 135 776T139 776Q160 802 187 802T240 800Q268 800 283 800T307 798T328 782T362 743ZM389 308Q389 300
387 292T382 275Q378 260 377 245T382 216Q386 207 386 199T380 181Q376 175 375 166T374 148V-67H174Q174 -33 174 -2T174 62Q176 118 178 174T181 285Q182 355 182 425T181 566Q182 600 185 614T202 631T249 634Q274 634 299 634T349 634Q358 634 368 633T389
630V586Q389 516 389 447T389 308Z" />
<glyph unicode="2" glyph-name="two" horiz-adv-x="587" d="M211 556Q180 558 149 558T83 560Q96 580 94 599T93 637Q94 639 94 641T95 644Q114 668 131 692T167 739Q190 765 220 778T286 792Q301 793 316 792T346 792Q400 795 440 772T506 711T542 635Q547 618
545 599T543 565Q532 550 523 541T509 520Q481 473 453 426T398 332Q374 293 352 253T306 173Q303 169 300 163T293 150Q313 143 333 143T372 144T407 138Q425 131 443 131T478 131T510 122V-45Q500 -46 491 -47T474 -47Q446 -45 418 -43T361 -39Q342 -37 324 -37T289
-36Q284 -36 280 -36T271 -36Q228 -25 184 -24T96 -22Q95 -22 93 -21T89 -19V149Q106 152 116 164T134 192Q184 281 234 370T336 550Q303 552 273 553T211 556Z" />
<glyph unicode="3" glyph-name="three" horiz-adv-x="592" d="M233 377Q229 385 229 385Q240 426 237 468T237 550Q240 597 241 644T243 739Q244 752 244 764T246 789Q248 802 261 808T288 809Q299 806 309 802T331 796Q387 784 425 751T488 667Q492 656 492 643Q493
586 492 527Q492 513 486 502Q462 458 421 428T330 384T233 377ZM215 793V707Q215 688 215 669T215 631Q216 619 217 608T220 582Q191 583 160 584T95 587V794Q115 802 147 802T215 793ZM412 -9Q370 -40 322 -48T223 -48Q228 55 233 158T244 366Q283 370 316 361T380
335Q437 303 470 247Q481 229 487 211T493 172Q493 165 493 160T493 147Q502 93 476 56T412 -9ZM96 -50V166H189Q191 166 193 165T199 162V-50Q173 -52 148 -52T96 -50Z" />
<glyph unicode="4" glyph-name="four" horiz-adv-x="656" d="M72 446Q72 462 72 479T72 512Q68 553 83 585T123 648Q158 692 203 719T301 765Q332 776 362 775T426 774Q424 753 423 734T420 695Q419 680 418 665T416 633Q414 600 412 568T410 503Q410 470 412
437T415 371Q416 359 415 347T412 321Q411 312 412 304T415 287Q420 273 420 258T419 226Q419 219 415 213T407 199Q403 168 399 135T392 69Q389 36 387 3T382 -63Q372 -66 346 -67T291 -69T242 -65Q243 -42 244 -20T246 24Q247 47 247 71T247 117Q249 140 251
163T257 210H331Q302 222 276 232T223 255Q113 305 75 422Q72 433 72 446ZM438 394Q439 420 439 446T432 498L454 496H564V213Q554 204 541 206T516 209Q484 209 470 209T451 215T447 234T441 277Q436 306 437 335T438 394Z" />
<glyph unicode="5" glyph-name="five" horiz-adv-x="578" d="M276 509V798H373Q376 728 383 658T387 515Q359 514 332 513T276 509ZM282 317Q311 316 335 305T381 277Q407 258 426 234T456 180Q459 173 460 164T463 147Q465 139 464 130T464 112Q466 75 455 43T420
-15Q390 -53 349 -71T258 -91Q253 -65 255 -40T256 10Q254 36 254 61T254 112Q254 137 254 161T253 211Q252 237 251 262T248 313Q218 316 187 316Q171 317 156 314T125 316V787Q131 788 136 789T147 790Q173 791 197 791T248 790Q251 771 253 751T251 710Q250
704 251 698T252 684V653Q252 640 252 627T253 602V551Q252 518 252 485T250 417V322Q258 321 266 319T282 317ZM130 140Q135 142 138 144T146 147L145 146H235Q236 130 237 115T238 84V-58Q238 -69 237 -79T227 -96Q212 -97 199 -99Q188 -100 178 -100T156 -100Q136
-98 136 -76Q133 31 130 140Z" />
<glyph unicode="6" glyph-name="six" horiz-adv-x="870" d="M766 264Q768 254 775 244T786 223Q792 211 789 203Q781 166 765 133T721 74Q705 58 685 46T642 26Q614 16 585 11T524 11Q523 16 523 21T522 31Q520 32 517 32Q505 28 493 28T468 29Q453 33 438 33T407
34Q374 36 346 49Q321 60 297 70T250 94Q207 120 177 156T125 237Q111 268 103 300T90 367Q85 422 109 475Q125 513 148 545T202 603Q219 617 238 630T276 654Q371 706 480 700Q492 699 495 695T500 678Q501 661 501 644T502 608Q504 555 506 501T506 392Q505 352
511 313T515 234Q514 218 513 202T521 170Q526 230 530 291T538 413Q564 416 588 411T636 398Q653 391 669 383T699 360Q719 339 740 318T766 264Z" />
<glyph unicode="7" glyph-name="seven" horiz-adv-x="640" d="M111 812Q143 811 174 813T236 804Q250 800 255 794T259 773Q255 702 249 631T237 488Q236 463 230 458T197 453Q172 455 147 457T92 463Q94 497 94 529T98 593Q103 621 103 649T105 705Q107 730 108
756T111 812ZM504 458Q511 458 517 456T519 443Q503 402 504 359T502 272Q512 249 506 226T501 179Q502 120 499 61T494 -55Q493 -76 488 -81T463 -86Q450 -86 437 -88T414 -81Q390 -89 366 -88T319 -85T270 -89Q272 -41 273 2T275 88Q275 96 277 104T281 120Q280
129 278 137T275 154Q276 192 277 229T280 304Q282 365 282 425T287 547Q291 603 291 657T292 767Q292 772 292 777T294 790Q299 792 305 793T317 794H495Q513 794 516 790T517 768Q514 714 514 661Q514 639 513 618T513 575Q514 546 510 517T504 458Z" />
<glyph unicode="8" glyph-name="eight" horiz-adv-x="666" d="M225 778Q248 789 271 794T323 792Q317 691 316 589T321 383Q284 375 254 385T195 413Q128 457 110 523T114 658Q126 700 156 729T225 778ZM457 398Q416 379 363 390Q363 416 363 442T363 493Q361
553 359 613T354 733Q354 742 354 751T353 768Q352 786 368 793Q382 790 395 789T421 783Q458 772 488 752T538 697Q555 667 564 636T574 570Q574 556 570 541T561 512Q547 474 521 445T457 398ZM89 69Q83 88 85 109T86 151Q83 183 92 211T117 265Q134 289 155
308T205 341Q208 343 212 343T220 346Q240 372 266 371T317 364Q319 312 322 261T325 160Q327 101 326 42T325 -77Q285 -84 249 -79T179 -51Q143 -29 122 1T89 69ZM525 -19Q502 -49 470 -60T402 -76Q400 -76 397 -76T392 -75Q389 -73 377 -67V231Q377 252 375 273T371
316Q370 323 371 330T373 346Q402 349 427 342T477 321Q514 303 540 275T583 208Q583 207 583 207T584 205Q586 167 589 129T573 54Q563 34 551 16T525 -19Z" />
<glyph unicode="9" glyph-name="nine" horiz-adv-x="855" d="M705 586Q717 570 725 551T742 512Q766 463 765 411T760 306Q759 268 742 233T705 164Q692 144 679 124T650 86Q626 57 596 38T531 5Q505 -2 479 -12T423 -19Q412 -17 401 -16T376 -13V48Q376 100 377
152T377 257Q376 335 373 413T367 570Q366 608 366 646T365 721V724Q365 745 366 753T377 761T406 760Q500 750 574 706T705 586ZM93 398Q77 436 76 475T81 552Q91 611 125 655T217 725Q224 728 230 732T240 740Q256 752 267 755T295 757Q306 756 316 754T337 750Q339
714 342 681T346 614Q348 570 348 526T347 437Q347 395 347 352T346 267Q346 263 346 259T344 248Q304 248 266 254T193 281Q174 293 155 310Q133 328 119 350T93 398Z" />
<glyph unicode=":" glyph-name="colon" horiz-adv-x="347" d="M244 482Q249 466 246 452Q245 445 242 437T233 423Q232 421 231 419T228 413Q228 409 224 408Q220 407 217 405T209 400Q204 398 203 402Q203 408 200 411T194 419Q190 428 184 436T173 453Q163 471
153 489T132 526Q136 528 139 529T146 532Q156 538 167 539T188 538Q206 535 220 521Q228 513 234 503T244 482ZM87 432Q86 433 86 435Q86 443 86 450T86 465Q86 469 90 475Q93 480 96 486T104 499Q102 499 99 500Q102 503 104 504Q109 507 113 509T122 514Q127
517 130 514Q134 511 130 505Q130 505 130 505T129 503Q132 498 135 493T142 482Q155 462 167 442T193 401Q194 400 194 399T195 396Q197 395 198 393T201 388Q201 385 199 384Q194 380 186 377Q183 376 180 375T174 373Q172 372 170 372H163Q143 371 129 380T102
404Q98 410 94 417T87 432ZM220 232Q228 224 234 214T244 193Q249 177 246 163Q245 156 242 148T233 134Q229 128 228 124Q228 121 224 118Q220 117 217 115T209 111Q208 110 206 110T203 113Q203 118 200 122T194 130Q190 139 184 147T173 164Q163 181 153 199T132
237Q136 239 139 240T146 243Q156 249 167 249T188 249Q206 246 220 232ZM87 142Q86 143 86 145Q86 153 86 161T86 176Q86 179 90 185Q93 191 96 197T104 209Q104 210 99 211Q102 214 104 215Q109 217 113 219T122 225Q124 226 126 226T130 225Q134 222 130 216Q130
215 130 215T129 214Q132 209 135 204T142 192Q155 172 167 152T193 112Q194 111 194 110T195 107Q197 105 198 103T201 98Q201 98 201 97T199 94Q196 93 193 92T186 88Q183 87 180 86T174 83H163Q143 82 129 91T102 114Q98 121 94 128T87 142Z" />
<glyph unicode=";" glyph-name="semicolon" horiz-adv-x="328" d="M209 385Q203 381 203 387Q202 392 199 396T193 404Q189 413 183 421T172 438Q162 455 152 473T131 510Q136 512 139 513T146 517Q156 522 166 523T187 522Q204 521 219 506Q236 490 243 467Q249
453 245 437Q244 430 241 422T232 408Q228 402 228 398Q228 393 224 392Q220 391 217 389T209 385ZM86 416Q85 417 85 419V450Q86 452 87 454T89 459Q93 465 96 471T103 483Q103 483 99 485Q101 486 101 487T103 489Q108 491 112 493T121 499Q123 500 125 500T130
499Q133 494 129 490Q129 489 128 487Q135 477 141 466Q154 446 166 426T192 386Q194 382 194 381Q196 379 197 377T201 372Q200 372 200 371T198 368Q192 364 186 362Q182 361 179 360T173 357H162Q143 356 128 365T101 388Q97 395 93 402T86 416ZM171 269Q187
267 196 258Q200 254 204 254Q208 254 209 251Q211 247 213 244T216 238Q219 233 214 233Q210 232 207 229T200 224Q192 220 185 216T170 206Q155 197 140 189T107 171Q106 174 105 177T102 183Q97 191 97 200T97 219Q98 234 111 247Q119 255 127 259T145 268Q158
272 171 269ZM100 92Q94 96 97 100Q99 105 106 103H109Q114 108 118 113T127 123Q131 128 134 132T142 140Q139 142 137 144T131 147Q131 147 129 143L126 146Q124 150 122 154T117 162Q116 164 116 166T117 170Q121 173 125 169Q125 169 125 169T127 168Q132 171
136 173T145 179Q163 190 180 201T215 224Q216 224 220 226Q224 228 227 231Q227 231 228 231T230 229Q232 227 233 224T236 218Q237 215 238 213T240 207V197Q241 185 236 173Q239 159 235 146T220 118Q215 111 210 105T196 93L194 91Q186 89 178 86T162 80Q160
79 157 79T151 80Q144 81 137 81T122 83Q122 82 122 81T121 78Q120 79 119 79T116 80Q112 83 108 86T100 92Z" />
<glyph unicode="&lt;" glyph-name="less" horiz-adv-x="587" d="M312 150Q260 186 208 222T104 295Q97 300 91 304T77 315Q82 323 87 329T96 343Q97 356 111 365Q113 367 114 369T117 373Q120 378 123 382T129 392Q131 397 135 401Q136 402 137 403T139 406Q144
413 148 419T157 432L159 431Q164 436 168 441T177 453Q197 479 217 504T259 554Q274 572 288 591T322 626Q333 635 340 635T357 628Q374 616 389 605T421 581Q428 577 433 570T445 556Q438 546 433 539T422 524Q388 479 356 433T289 342L345 304Q346 305 364 293T405
264Q429 244 454 223T505 182L431 74Q400 94 371 112T312 150Z" />
<glyph unicode="=" glyph-name="equal" horiz-adv-x="592" d="M387 400Q359 399 338 399T317 400H94V564Q103 565 111 565T127 565Q250 568 374 568Q408 568 442 567T513 564V413Q482 409 450 406T387 400ZM83 130Q81 141 78 150T74 169Q73 192 73 215T74 260Q74
276 79 282T100 293Q127 301 155 301T210 302Q247 306 285 307T360 311Q380 312 399 312T437 315Q455 316 465 300Q474 308 491 315T521 309Q525 306 527 295T530 269T532 245T533 234V172Q533 148 527 143T497 136Q405 129 313 130T128 130H83Z" />
<glyph unicode="&gt;" glyph-name="greater" horiz-adv-x="613" d="M280 645Q300 631 314 612T345 574Q367 551 388 526T431 476Q442 463 452 450T474 425Q481 418 481 409Q485 405 488 401T496 392Q504 388 510 382T515 364Q515 359 504 348T481 326T470 316Q459
308 449 300T428 283Q411 271 404 272Q379 249 354 226T302 179Q277 157 250 134T194 87L106 185Q129 209 151 233T195 279Q216 299 232 313T249 327L308 380Q277 420 246 460T183 540Q179 546 173 553T160 570Q166 578 170 585T182 597Q197 610 213 621T245 645Q256
653 262 653T280 645Z" />
<glyph unicode="?" glyph-name="question" horiz-adv-x="658" d="M317 736Q318 753 321 756T340 760Q393 762 435 742T515 687Q538 665 554 638T581 581Q592 550 593 519T589 455Q583 422 571 391T541 330Q522 301 496 282T441 247Q439 216 438 185T434 123Q433
110 430 107T410 104Q385 106 361 107T311 111Q307 111 304 112T295 115Q298 138 298 161T300 206Q302 230 303 253T306 300L310 378V454Q310 462 306 466Q291 484 291 506T299 544Q315 574 315 605T315 667Q316 684 316 701T317 736ZM284 347Q229 344 187 366T109
427Q85 455 76 497T71 583T98 662Q115 689 146 712T214 748T278 757Q285 740 283 723T279 688T278 654Q280 629 279 604T278 553Q278 528 278 502T279 450Q280 426 281 401T284 347ZM275 51Q280 52 285 53T295 54Q333 54 370 54T444 53L452 37Q451 30 450 23T445
10Q438 0 430 -11T414 -33Q392 -33 370 -33T327 -32Q321 -32 316 -29T305 -23Q304 -21 303 -19T299 -16Q263 10 275 51Z" />
<glyph unicode="@" glyph-name="at" horiz-adv-x="831" d="M729 530Q734 520 738 511T749 492Q777 451 779 406T774 314Q764 260 737 216T669 137Q656 125 638 118T599 100Q589 118 580 135T561 171L616 175L602 387Q602 395 601 409T598 447L597 449Q595 465
593 482T587 516L576 585L393 572L394 532Q394 529 394 526T395 519Q390 518 385 518T375 515Q358 547 341 579T306 643Q312 648 316 653T327 660Q370 680 414 687T506 690Q569 683 617 651T706 573Q714 564 718 553T729 530ZM265 650Q279 622 290 597T313 545Q321
527 330 508Q284 490 257 454Q242 434 228 403T219 331V322Q219 319 220 314T224 301L228 295Q233 285 239 276T252 255Q298 193 366 181Q371 180 376 180T388 178Q391 177 394 177T401 176L404 162L498 168L507 159Q518 151 523 135T536 105Q540 95 535 90T522
82Q501 75 480 68T437 57Q350 45 262 76Q234 87 211 105T165 142Q160 145 157 151T150 163Q119 225 89 288Q80 307 78 328Q73 420 109 493T212 624Q223 632 237 637T265 650ZM571 388V187H451Q450 195 450 202T450 216Q449 272 449 328T448 439Q448 470 449 501T451
564H562Q564 536 566 507T571 451Q572 426 572 407T571 388ZM427 354Q426 334 426 314T424 273Q424 273 424 268V250Q423 238 422 227T418 202Q408 204 399 206T380 210Q349 218 328 237T291 282Q284 294 279 306T268 330Q267 333 267 338V352Q264 383 276 408T307
456Q333 487 375 499Q385 501 395 502T416 504Q425 504 427 501T429 489Q428 455 428 422T427 354Z" />
<glyph unicode="A" glyph-name="A" horiz-adv-x="647" d="M376 -66Q367 -66 364 -62T359 -49Q359 -9 358 32T354 112V232H295Q294 219 294 207T294 183Q293 159 293 135T290 85Q289 55 288 24T285 -39Q285 -51 282 -55T265 -59Q254 -60 243 -62T221 -55Q220 -54
217 -56T211 -57Q206 -57 201 -56T189 -54Q170 -61 150 -60T106 -57V-20Q108 11 106 41T113 101Q115 104 115 111Q115 133 114 153T113 195Q116 249 116 300Q119 346 120 391T121 482Q123 517 123 552T123 622Q122 635 121 648T121 675Q130 714 149 745T201 798Q215
807 228 815T258 828Q260 828 263 830T270 832Q298 832 326 833T383 830Q397 829 411 821T437 803Q466 781 484 751T516 688Q512 667 521 647T535 607V-67H425Q412 -67 401 -67T376 -66ZM354 421Q352 450 355 476T356 530Q354 556 356 582T353 636Q341 635 330
635T307 633Q306 580 304 527T300 421H354Z" />
<glyph unicode="B" glyph-name="B" horiz-adv-x="719" d="M125 -46Q105 -46 101 -41T97 -15Q97 26 97 68T97 153V736Q97 758 96 780T107 827Q131 827 156 826T205 824Q244 824 284 827Q303 827 309 823T315 798Q315 785 313 773T309 748Q309 741 309 734T309 721Q318
655 316 590T315 459Q316 395 316 330T316 200Q316 167 316 134T315 68Q314 43 311 18T306 -31Q305 -48 302 -51T281 -54Q263 -52 245 -51T208 -49Q188 -47 167 -47T125 -46ZM331 825Q342 825 351 826T367 825Q432 813 480 778T554 683Q570 651 571 616T565 545Q556
510 539 480T499 423Q483 404 463 393T418 371Q424 367 429 364T441 357Q485 340 514 308T561 232Q571 206 571 176Q571 161 571 147T571 117Q573 102 570 88T558 58Q539 18 507 -10T434 -58Q433 -59 424 -59H350Q350 -53 349 -46T348 -32Q348 14 349 62T348 156Q347
194 344 233T338 310Q337 343 337 376T336 440V560Q335 616 333 671T330 781Q329 792 330 802T331 825Z" />
<glyph unicode="C" glyph-name="C" horiz-adv-x="749" d="M500 590Q499 558 496 527T491 464Q490 436 490 409T490 352Q491 322 492 293T495 233Q497 205 497 177T490 120Q489 115 491 110T495 98Q497 91 499 85T503 72Q504 55 501 39T501 5Q503 -4 497 -8T481
-14Q458 -15 437 -11T392 0Q354 11 320 30T250 70Q195 106 163 158T109 273Q108 278 108 284T107 295Q107 326 108 357T106 419Q103 468 119 509T161 588Q204 650 262 692T392 757Q400 759 409 763T426 768Q446 770 466 770T505 770Q505 755 506 743T505 720Q504
687 503 655T500 590ZM521 767H621Q618 739 619 713T616 659Q611 635 611 610T609 560Q608 550 608 541T606 522Q605 512 601 506T585 501Q570 502 556 503T527 508Q508 510 508 530Q510 589 513 647T518 763Q518 763 518 764T521 767ZM609 175Q609 155 608 136T607
97Q607 78 606 59T609 19Q611 6 607 2T589 -4Q576 -6 564 -8T538 -13Q511 -16 508 9Q508 21 508 33T508 57Q508 92 509 126T511 196Q511 213 516 218T537 223Q553 224 569 224T607 223Q607 210 608 198T609 175Z" />
<glyph unicode="D" glyph-name="D" horiz-adv-x="678" d="M156 -30Q151 -30 145 -28T129 -21Q147 4 148 26T132 72Q136 77 140 82T149 93Q137 99 135 108T132 130V757Q132 762 132 768T133 781Q156 781 179 782T224 777Q238 771 253 770T284 765Q336 754 377 727T456
666Q494 632 514 589T550 499Q557 477 558 454T559 407Q559 394 559 381T559 353Q564 294 545 240T495 136Q490 127 482 120T465 104Q449 91 434 76T402 47Q391 38 378 31T350 15Q335 8 319 4T294 -18Q292 -24 281 -27T260 -30Q208 -33 156 -30Z" />
<glyph unicode="E" glyph-name="E" horiz-adv-x="620" d="M354 430Q353 384 351 337T346 243Q345 230 344 217T342 190Q344 129 341 71T339 -47Q340 -63 333 -69T308 -76Q288 -76 279 -76T264 -74T248 -67Q244 -70 239 -74T226 -87Q222 -81 219 -75T210 -61Q206
-68 203 -71T196 -80Q195 -80 193 -80T189 -80Q182 -70 173 -69T154 -71Q141 -77 130 -75T107 -67Q105 -52 108 -36T113 -4Q113 -2 113 1T113 5Q103 28 104 51T111 96Q113 106 115 116T120 138Q111 143 111 153T111 174Q114 198 115 222T117 270Q118 307 119 343T121
414Q123 478 125 542T128 671Q130 700 130 729T131 787Q131 793 132 797T134 809Q141 809 148 809T161 810H320Q325 810 331 811T344 813Q366 813 363 793Q359 771 360 751T360 708Q358 690 357 672T354 635Q354 620 355 606T357 576Q357 569 356 562T353 547Q352
544 351 541T350 534Q357 519 354 505T343 476Q356 468 356 456T354 430ZM494 633Q492 605 491 577T487 522Q487 521 487 521T486 518Q457 520 428 518T366 522Q367 551 368 580T370 638Q372 653 372 667T373 697Q375 722 378 746T382 795Q382 810 395 810Q422
809 448 808T504 805Q503 778 502 753T500 704Q499 685 498 668T494 633ZM435 463Q454 462 460 456T465 429Q464 410 463 392T461 355Q461 333 464 309Q465 291 460 285T437 278Q431 277 427 277T418 278Q396 277 388 278T380 288T379 315V430Q380 450 386 456T411
462Q417 463 423 463T435 463ZM375 -70Q350 -70 350 -44V75Q350 88 347 103Q347 105 347 107T346 111Q354 136 351 159T349 207Q351 226 355 229T378 233H480Q480 224 480 218T481 204Q481 175 480 146T478 88Q478 67 481 47T486 4Q487 -9 487 -24T487 -54Q487
-71 470 -71Q446 -70 422 -70T375 -70Z" />
<glyph unicode="F" glyph-name="F" horiz-adv-x="538" d="M458 500Q427 500 399 499T342 505V420Q354 431 366 432T393 432T421 432Q420 401 424 374T421 317Q418 301 419 284T418 250Q417 234 414 231T395 227H339Q341 154 340 84T344 -57H117V787Q123 789 155
790T232 791T324 791T408 791T458 788V500Z" />
<glyph unicode="G" glyph-name="G" horiz-adv-x="872" d="M514 336Q513 261 519 186T522 36Q522 20 525 4T531 -29H530Q526 -30 523 -33T515 -37Q478 -38 440 -37Q437 -37 433 -37T427 -35Q421 -29 415 -28T400 -27Q395 -27 390 -25T381 -21Q374 -19 368 -16T353
-18Q347 -20 339 -14Q309 2 280 19T227 60Q200 84 176 112T138 177Q131 196 123 215T108 253Q100 276 94 299T89 347Q90 387 89 425Q85 467 98 503T128 576Q141 607 160 632T200 681Q207 689 215 695T231 706Q254 720 277 734T325 761Q337 767 350 771T377 780Q379
782 381 782T384 782Q393 797 406 797T432 796H618Q621 783 621 772Q621 748 621 725T621 678Q622 652 623 625T626 572Q629 547 605 546Q585 545 564 546T520 547Q517 598 515 647T511 745H506V645Q506 630 507 615T508 584Q510 562 510 539T510 492Q511 453 512
415T514 336ZM531 229Q533 261 530 293T528 357H774Q775 353 776 349T779 340Q779 321 779 303T781 265Q781 249 764 249Q751 249 736 250T707 251H646Q648 222 648 195T648 139Q649 123 649 106T649 72Q648 53 648 33T646 -7Q645 -13 644 -19T641 -33Q613 -27
586 -32T531 -29Q531 3 531 35T530 99Q530 131 530 164T531 229Z" />
<glyph unicode="H" glyph-name="H" horiz-adv-x="669" d="M576 759V-11H385Q384 -3 383 5T381 22Q383 70 383 117T384 212V264H307Q306 251 305 238T303 212Q303 187 303 161T302 110Q301 83 300 56T296 2Q296 -17 275 -18Q267 -19 259 -19T242 -18Q233 -18 224
-13T203 -17Q202 -18 198 -14T188 -7Q182 -12 176 -15T160 -14Q155 -11 147 -13T132 -17Q119 -18 108 -13T99 6Q101 33 99 60T97 112Q99 126 102 139T109 168Q102 176 101 185T101 208Q106 246 106 284T108 361Q110 413 111 464T113 568Q115 609 116 651T119 735Q120
753 123 756T144 760H319V703Q318 678 317 654T314 603Q314 599 315 594T316 584Q315 569 315 555T312 526Q311 525 310 522T310 517Q317 504 313 493T306 471H376V726Q376 731 376 735T377 744Q377 759 393 759H576Z" />
<glyph unicode="I" glyph-name="I" horiz-adv-x="515" d="M364 588V386Q364 336 364 285T362 183Q362 133 363 83T356 -18H146Q145 -13 145 -8T144 2V332Q144 339 146 346T150 360Q153 372 153 384Q154 442 154 499T156 614Q156 658 158 702T162 790H362Q364 739
364 689T364 588Z" />
<glyph unicode="J" glyph-name="J" horiz-adv-x="594" d="M378 -57Q374 -59 368 -60T354 -61Q332 -59 309 -60T263 -63Q224 -64 196 -47T145 -3Q127 17 117 41T97 91Q94 99 95 109T96 131Q155 133 212 135T325 138Q324 145 323 153T321 169Q321 228 321 287T321
405Q320 447 318 488T315 571Q314 624 314 675T315 778V810H494Q495 805 495 801T496 791V163Q496 148 496 134T496 106Q500 68 478 35Q458 7 435 -18T378 -57Z" />
<glyph unicode="K" glyph-name="K" horiz-adv-x="769" d="M93 -28Q103 -16 102 -4T104 20Q105 22 105 25T102 30Q91 48 94 65T98 99Q99 113 102 127T108 158Q101 161 101 169T102 185Q105 230 108 272Q109 343 110 412T112 552Q113 594 116 635T120 718Q120 732
120 746T118 775Q118 781 118 787T120 802H209Q238 802 265 802T319 804Q346 804 340 781Q338 773 338 767T340 752Q341 739 341 725T340 697Q338 668 336 638T333 577Q332 561 330 546T331 515Q333 510 330 504T327 491Q325 479 331 468Q351 518 387 551T466 613Q511
642 560 649T659 662Q661 657 662 619T664 520T665 388T665 245T664 112T663 12T661 -33Q635 -33 611 -33T561 -32Q554 -30 544 -27T530 -12Q528 -4 523 -2T511 2Q484 7 465 22T425 52Q412 63 400 74T377 95Q361 113 351 133T331 176Q330 179 329 182T322 190Q321
135 320 81T316 -26Q315 -39 310 -43T293 -50Q283 -50 274 -50T255 -50Q249 -48 242 -46T227 -41Q220 -51 212 -51T199 -41Q171 -48 145 -48T93 -48Q93 -42 92 -36T93 -28Z" />
<glyph unicode="L" glyph-name="L" horiz-adv-x="606" d="M123 -64Q125 -57 127 -51T131 -37Q133 -30 132 -25T131 -13Q133 -5 134 3T127 18Q126 19 129 24T134 33Q123 47 124 62T127 92Q129 104 133 114T140 135Q141 137 141 138T141 139Q128 154 132 169T136
199Q137 247 137 294T138 390Q140 431 142 472T147 553Q148 593 148 632T149 710Q151 733 151 755T152 802Q152 805 153 808T155 813Q190 820 225 818T297 815T369 823Q374 820 378 815T382 801Q380 761 378 720T374 638Q374 625 375 614T376 589Q375 578 376 567T368
545Q366 540 368 538Q379 522 373 509T362 480Q374 472 375 460T374 434Q364 364 368 293Q368 274 366 256T362 218V166Q361 150 361 134T360 101Q359 64 358 25T354 -53Q353 -78 329 -78Q315 -78 300 -78T273 -69Q271 -67 269 -67T264 -66Q255 -74 247 -70T230
-63Q226 -66 222 -70T213 -77Q209 -77 208 -76Q201 -67 191 -67T173 -71Q152 -84 137 -69Q135 -67 132 -67T123 -64ZM371 -55Q371 -12 371 30T379 116Q381 130 380 145T379 177Q380 186 380 195T382 216Q413 217 443 217T505 213Q505 189 505 165T505 117Q503 76
500 35T495 -48Q494 -67 489 -72T465 -78H394Q380 -78 376 -74T371 -55Z" />
<glyph unicode="M" glyph-name="M" horiz-adv-x="783" d="M697 728Q701 719 703 710T710 690Q712 682 712 674T704 659Q701 658 700 656T699 651Q704 626 701 602T702 552Q707 526 705 498T702 440Q702 402 703 364T704 287Q704 236 703 186T702 86Q701 56 700
26T696 -36Q696 -52 693 -56T672 -61Q656 -60 642 -59T611 -57Q594 -54 577 -53T542 -50Q536 -50 521 -47V616Q505 579 480 557T415 533Q372 531 346 553T299 610Q298 581 297 555T294 503Q293 487 291 473T289 442Q291 429 291 416T284 391Q293 363 292 335T288
280T284 224Q284 202 285 179T286 133Q286 122 285 112T281 91Q280 61 280 31T278 -29Q277 -48 270 -54T243 -61Q233 -61 223 -61T206 -49Q200 -51 195 -54T183 -60Q181 -53 177 -47Q173 -51 169 -53T159 -60Q152 -52 143 -52T124 -57Q112 -63 102 -56T92 -36V43Q91
61 93 78T102 109Q103 112 103 117Q94 141 95 165T101 215T103 264Q101 284 102 303T103 343Q105 369 106 396T107 450Q108 500 109 550T111 650Q111 652 110 655T108 661Q107 667 105 673T102 685Q102 705 105 732Q107 732 111 731T116 730Q130 746 140 761T164
789Q176 801 190 808T223 815H295Q328 815 353 792Q369 778 381 761T403 719Q410 730 415 739T427 757Q447 783 474 799T537 815Q545 815 554 815T574 815Q606 818 630 805T672 771T697 728Z" />
<glyph unicode="N" glyph-name="N" horiz-adv-x="722" d="M526 -26Q501 -24 476 -27T426 -28Q412 -28 407 -15Q384 41 360 96T309 206Q307 148 305 91T300 -26Q293 -26 288 -27T277 -28H135Q117 -28 114 -24T110 -1V765H300Q327 701 354 636T409 504H413V737Q413
758 417 761T442 765Q518 765 593 768H622V-21Q618 -21 613 -21T601 -22Q583 -23 564 -25T526 -26Z" />
<glyph unicode="O" glyph-name="O" horiz-adv-x="940" d="M310 -3Q204 33 123 117Q97 146 83 180T51 247Q47 254 47 263T47 280Q47 324 47 368T48 456Q48 483 58 508Q105 615 187 676T379 765Q396 769 415 767T455 765Q454 726 452 691T448 620Q447 589 446 558T443
495Q442 476 439 458T436 420Q438 364 441 307T448 191Q448 187 447 184T445 176Q444 150 440 125T448 72Q456 56 454 35T449 -5Q448 -18 440 -21T421 -23Q393 -19 365 -15T310 -3ZM888 376Q888 363 888 349T890 321Q898 259 875 207T817 106Q775 51 719 17T596
-34Q574 -40 550 -38T496 -35Q492 160 486 354T474 744Q484 747 492 750T508 752Q567 751 622 735T727 685Q795 640 831 576T887 438Q891 424 890 408T888 376Z" />
<glyph unicode="P" glyph-name="P" horiz-adv-x="669" d="M334 350Q333 356 333 361T333 373Q334 453 335 531T337 689Q337 701 331 713Q331 702 331 691T330 668Q329 658 328 649T324 631Q324 627 324 624T324 616Q333 582 323 549Q322 545 321 542T320 535Q326
523 324 511T318 486Q316 479 317 477Q326 469 325 459T323 438Q323 411 322 384T319 328Q318 270 317 210T313 91Q313 67 311 43T307 -4Q306 -13 306 -22T305 -43Q286 -43 269 -43T235 -42Q231 -42 227 -40T216 -40Q212 -43 204 -41T186 -38Q166 -45 143 -44T95
-42Q94 -39 94 -37T93 -33Q93 7 93 47T93 127Q93 134 95 142T101 160Q95 165 94 174T94 197Q99 217 99 237T100 278Q102 342 104 406T108 534Q109 559 109 583T111 633Q112 671 112 710T114 787Q114 789 115 792T117 800Q141 800 165 800T213 800Q237 799 261 798T309
802Q330 806 331 783Q331 772 331 760T334 735Q335 750 336 765T338 794Q361 801 382 796T423 783Q437 778 451 770T479 752Q496 741 512 718Q522 706 531 693T547 666Q553 655 556 642T560 616Q562 591 561 566T561 515Q564 478 547 451T506 400Q488 381 467 368T421
345Q407 340 391 337T360 330Q347 328 342 333T334 350Z" />
<glyph unicode="Q" glyph-name="Q" horiz-adv-x="1000" d="M869 168Q905 156 938 144Q948 106 940 72T920 3Q913 -21 882 -15Q853 -8 824 -3T764 7Q756 8 747 8T730 4Q683 -25 632 -34T521 -35V70Q508 73 497 76T472 84Q465 25 456 -41Q430 -34 406 -30T358 -19Q277
1 221 50T124 168Q107 199 92 230T63 293Q62 298 62 303T61 314Q61 323 61 332T61 350Q55 431 86 497T166 623Q201 666 246 693T344 735Q370 742 397 744T451 748Q475 749 481 741T487 710Q485 622 484 533T480 355Q479 303 477 251T472 146Q471 143 474 132Q503
198 512 264T515 400Q508 483 507 565T502 731Q523 742 543 742T583 737Q649 722 706 692T813 611Q872 550 896 478T916 323Q912 242 869 168Z" />
<glyph unicode="R" glyph-name="R" horiz-adv-x="726" d="M567 681Q578 662 586 643T592 600Q591 584 591 568T592 536Q595 514 591 493T573 454Q563 436 548 421T518 392Q500 376 480 368T436 352H493Q516 352 520 347T527 318Q534 233 532 148T532 -22V-63Q522
-65 513 -68T496 -71Q474 -72 454 -72T412 -71Q397 -71 392 -67T382 -48Q375 -22 375 3T373 53Q370 87 369 122T365 191Q364 210 364 227T361 262Q360 279 375 288Q368 297 363 305T369 326Q374 333 374 344T372 366Q371 389 369 410T365 454Q364 511 364 568T361
684Q361 696 362 708T364 734Q364 748 361 764Q358 785 378 790Q390 792 401 793T423 787Q427 784 432 783T440 781Q440 781 443 780T457 769Q528 744 567 681ZM348 314Q348 285 351 257T350 199Q346 173 349 148T350 96Q347 60 346 23T343 -52Q343 -56 341 -60T338
-70H115V792H343Q345 774 347 756T350 720Q353 656 347 592Q344 560 347 528T351 464Q351 434 349 404T346 345Q346 338 346 330T348 314Z" />
<glyph unicode="S" glyph-name="S" horiz-adv-x="666" d="M117 476Q104 499 97 522T92 572Q95 591 92 607Q88 651 106 684T151 747Q177 776 211 792T280 823Q292 827 306 825T334 823Q332 766 329 712T326 603Q327 551 327 498T333 391Q341 388 349 388Q417 381
463 346T535 248Q543 232 547 215T549 178Q549 165 549 153T549 129Q556 85 536 53T489 -7Q463 -36 428 -52T351 -70Q344 -70 338 -70T327 -71Q312 -78 299 -67Q295 -63 289 -63T277 -60Q217 -45 187 6Q178 24 177 49T182 98T201 137Q214 152 227 166T260 185Q271
188 281 190T303 193Q308 172 307 153T307 115Q309 108 310 102T312 90Q312 124 312 158T310 227Q310 259 309 290T306 356Q295 359 285 361T264 367Q218 381 180 407T117 476ZM344 823Q383 820 408 802Q443 779 465 748T485 672Q480 589 404 554Q388 548 371 544T334
550Q334 617 335 685T344 823ZM313 23H319Q318 36 317 48T313 72V23Z" />
<glyph unicode="T" glyph-name="T" horiz-adv-x="584" d="M361 -22Q361 -26 361 -30T360 -39H192Q191 -11 190 16T191 69Q194 95 194 122T195 174Q196 202 197 229T199 284Q200 311 200 339T200 394Q201 421 202 449T204 504Q205 532 206 559T208 618H312V621H107V773Q115
774 122 774T137 774Q194 775 251 775T365 776Q397 776 428 775T493 773V633Q464 630 435 627T377 621Q377 590 377 560T377 499Q376 482 377 465Q378 455 377 446T374 428Q373 413 370 398T368 369Q374 337 372 305T370 239Q372 217 370 194T365 149Q364 105 364
63T361 -22Z" />
<glyph unicode="U" glyph-name="U" horiz-adv-x="621" d="M114 52Q110 65 111 80T111 110V788Q116 789 119 790T125 791Q160 793 195 794T264 796Q275 796 279 792T284 777Q285 765 285 753T284 728Q284 606 284 485T283 241V133H318Q334 173 325 217Q324 222
324 227T324 238Q325 248 325 258T331 278Q337 289 330 296T327 314Q330 323 329 333T328 353Q330 390 332 426T335 500Q338 566 338 632Q339 670 340 708T342 785Q342 790 343 794T346 803Q387 808 427 805T509 811Q519 804 519 796T517 777Q515 755 515 734T515
691Q514 664 514 636T511 579Q510 565 510 550T511 520Q513 487 511 458Q510 427 509 396T505 334Q503 288 502 243T500 150Q499 137 500 124T500 96Q493 47 468 12T399 -49Q363 -70 324 -71T247 -69Q219 -64 194 -47T149 -6Q139 7 129 21T114 52Z" />
<glyph unicode="V" glyph-name="V" horiz-adv-x="741" d="M670 772Q674 772 678 769Q686 747 680 727T668 687Q652 629 637 572T607 459Q596 422 586 385T565 311Q555 270 545 228T525 144Q515 104 506 65T486 -13Q484 -25 483 -37T479 -61Q460 -62 443 -62T409
-54Q376 -40 344 -54Q328 -61 311 -62T276 -61Q269 -38 263 -15T250 31Q241 58 234 85T218 141Q202 201 186 260T152 379Q135 445 118 511T83 644Q76 674 68 702T60 762Q60 765 60 768T61 774Q84 782 102 790Q113 795 125 795T150 797Q170 802 189 809T228 821Q235
823 241 825T257 830Q269 779 284 732T314 634Q327 586 339 537T366 434Q374 468 381 497T396 554Q403 583 410 610T425 666Q433 700 441 734T457 803Q460 816 473 816Q478 816 483 816T492 814Q537 804 581 794T670 772Z" />
<glyph unicode="W" glyph-name="W" horiz-adv-x="787" d="M323 101Q408 103 491 103T660 105Q670 95 668 84T663 62Q656 27 638 -1T589 -53Q582 -57 575 -59T560 -61Q552 -61 543 -61T526 -62Q505 -65 490 -57T459 -36Q445 -23 432 -9T412 27Q393 4 372 -13T321
-40Q285 -51 253 -45T193 -12Q179 0 169 16T147 48Q145 52 145 57T144 66Q144 86 145 104T144 142Q144 267 144 391T146 639Q146 678 150 716T158 794Q165 796 171 796T182 796Q212 797 241 797T302 797Q324 796 328 792T333 765Q332 704 330 642T328 517Q327 445
327 373T327 228V174Q362 212 397 214T475 189V725Q475 740 475 757T476 793Q508 792 536 791T593 789Q601 789 608 789T623 791Q640 795 642 778Q643 757 645 736T648 695Q649 617 649 539T649 382Q650 333 652 284T655 185Q655 169 654 151T640 119Q633 135 617
137T589 150Q584 139 577 139T561 141T544 142Q534 140 524 141T501 143V110Q456 108 412 109T323 108V101ZM641 117Q640 117 640 117L639 118Q639 118 639 118T640 119Q640 118 640 117H641ZM306 108V112H181Q181 110 182 108H306Z" />
<glyph unicode="X" glyph-name="X" horiz-adv-x="669" d="M412 780Q456 762 500 744T589 707Q593 686 581 665Q565 630 550 596T520 526Q505 490 490 454T459 383Q451 364 458 348Q478 295 498 241T537 134Q548 105 558 77T577 19Q579 14 579 8T580 -4Q548 -15
518 -25T458 -45Q451 -48 444 -51T430 -57Q421 -59 412 -60T393 -63Q380 -26 366 10T335 85Q317 48 304 12T278 -60Q266 -63 257 -61T237 -53Q198 -36 159 -21T79 11Q75 22 80 31T90 52Q108 93 125 135T159 220Q173 252 186 286T213 352Q220 371 213 389Q186 461
160 532T107 674Q102 685 100 697T94 722Q118 730 137 739T179 753Q205 759 228 772T277 797Q292 777 299 753T314 705T340 662Q352 692 363 721T388 781Q393 781 399 781T412 780Z" />
<glyph unicode="Y" glyph-name="Y" horiz-adv-x="774" d="M623 766Q638 765 638 749Q636 694 614 649T554 565Q538 549 519 535T479 503Q478 464 477 422T475 335Q474 315 473 296T471 257Q471 236 473 216T475 174Q474 132 474 90T471 5Q471 -6 467 -10T449 -14Q432
-13 415 -14T380 -14Q361 -13 344 -15T308 -19Q285 -21 277 -14T270 14Q271 79 272 145T275 275Q276 292 276 309T276 344Q278 387 279 429T281 512Q264 523 248 534T214 555Q183 573 165 600T133 659Q123 682 124 705T123 752Q144 754 163 755T199 757Q274 759
349 759T499 761Q527 761 553 763T607 766H623Z" />
<glyph unicode="Z" glyph-name="Z" horiz-adv-x="678" d="M433 152Q425 125 419 98T405 43H626V-56Q612 -57 597 -58T567 -62Q554 -63 540 -63T511 -64Q486 -65 460 -67T407 -63Q406 -63 404 -64T399 -67Q389 -74 378 -74T355 -70Q334 -62 313 -56T270 -44Q248
-37 225 -32T179 -20Q170 -18 169 -11T170 3Q172 13 174 22T179 42Q196 110 212 178T245 315Q251 341 257 367T270 420Q280 461 288 501T306 582Q307 584 307 586T309 590Q322 607 322 627T327 667Q329 675 330 683T334 702Q327 702 320 702T306 703Q267 705 228
705T150 706Q140 707 130 709T108 713V811H162Q210 810 257 810T353 810Q367 810 381 810T409 802Q417 798 426 797T447 794Q449 792 451 788T458 777Q470 792 485 781Q492 777 502 777Q518 778 532 773T562 762Q570 759 571 754T571 741Q567 721 562 702T551 662Q545
638 538 615T527 566Q523 536 515 507T501 448Q497 426 492 403T481 356Q476 332 470 308T458 260Q457 256 455 253T450 247Q448 244 446 242T445 236Q447 223 444 211T435 186Q432 178 434 170T433 152Z" />
<glyph unicode="[" glyph-name="bracketleft" horiz-adv-x="518" d="M99 733Q95 743 93 767T92 820T96 866Q125 865 153 864T209 862Q238 861 268 862T327 861Q356 860 385 857T444 852V782Q444 766 443 748T439 719T430 710Q390 713 349 717T267 724Q225 727
183 728T99 733ZM97 57Q96 113 94 168T92 275Q92 471 95 667Q95 678 95 691T97 718H292V366Q294 366 294 333T292 256Q288 207 285 157T277 57H97ZM147 -90Q121 -87 92 -81L94 51Q113 51 130 51T165 50Q230 48 294 47T422 44Q430 44 429 28T423 -12T410 -57T398
-93T394 -100Q385 -99 376 -98T357 -97Q305 -95 253 -94T147 -90Z" />
<glyph unicode="\" glyph-name="backslash" horiz-adv-x="719" d="M634 34Q643 16 642 10T622 -4Q605 -14 587 -23T552 -42Q537 -50 522 -59T491 -76Q477 -85 473 -83T459 -67Q447 -47 435 -27T410 15Q396 42 382 71T353 128Q326 184 299 240T246 353Q220 410
191 465T141 581Q139 587 136 593T129 605Q123 615 116 625T104 646Q96 663 99 669T118 684Q136 692 153 699T188 714Q209 725 229 736T271 758Q292 742 300 723T318 684Q356 607 393 530T468 375Q491 327 515 278T563 180Q580 143 598 107T634 34Z" />
<glyph unicode="]" glyph-name="bracketright" horiz-adv-x="505" d="M440 778Q440 762 439 744T436 715T426 705Q386 709 345 713T263 720Q221 722 179 724T95 729Q91 739 90 763T89 815T93 861Q122 860 150 859T206 858Q235 857 265 858T324 857Q352 856 381
853T440 848V778ZM406 92Q406 81 406 68T405 41H209V393Q208 393 208 426T209 503Q213 551 216 602T224 702H405Q406 646 408 591T410 483Q410 386 409 288T406 92ZM343 -114Q291 -112 239 -111T133 -107Q120 -105 107 -103T78 -97L80 34Q99 34 116 34T152 33Q217
31 280 30T408 28Q416 28 415 12T409 -28T396 -74T385 -109T381 -116Q371 -116 362 -115T343 -114Z" />
<glyph unicode="^" glyph-name="asciicircum" horiz-adv-x="578" d="M148 418Q140 423 132 426T117 434Q101 446 87 458T57 484Q46 493 45 499T49 519Q59 542 75 560T104 598Q122 624 142 650T182 703Q192 717 202 730T222 756Q230 769 247 766Q247 777 251 792T272
809Q278 811 291 803T317 785T329 776Q340 767 350 759T370 741Q388 727 386 717Q386 716 386 716T387 715Q410 670 433 625T479 535Q491 510 502 485T526 432L408 374Q395 396 381 418T353 461Q342 481 335 496T328 512L290 588Q261 553 232 518T173 448Q168 441
162 434T148 418Z" />
<glyph unicode="_" glyph-name="underscore" horiz-adv-x="546" d="M361 -42Q333 -43 312 -43T291 -42H68V120Q76 122 84 122T100 122Q162 123 224 124T348 125Q382 125 416 124T487 120V-30Q456 -33 424 -36T361 -42Z" />
<glyph unicode="`" glyph-name="grave" horiz-adv-x="439" d="M275 589Q263 596 243 613T201 651T158 691T125 724T112 737L165 798Q162 802 172 792T200 764T240 724T281 682T312 649T323 634Q298 609 289 598T275 589Z" />
<glyph unicode="a" glyph-name="a" horiz-adv-x="635" d="M548 572Q552 526 555 480T563 390Q565 350 565 320T563 289V-32H370Q369 -20 369 -8T369 14Q368 103 367 192T365 371Q365 420 367 470T370 572H548ZM77 196Q76 200 76 203T76 209V231Q72 281 91 321T140
398Q182 449 249 466Q265 471 281 472T314 474Q329 475 332 470T336 451Q335 397 335 343T332 234Q331 202 330 170T327 106Q326 105 328 98L327 68Q325 49 323 31T317 -7Q301 -4 286 -2T257 5Q208 17 174 47T114 120Q104 139 95 158T77 196Z" />
<glyph unicode="b" glyph-name="b" horiz-adv-x="669" d="M292 614L289 386Q289 386 289 366T289 314T289 250T288 188T288 148Q290 87 289 26T292 -94H118L110 610Q116 612 138 612T190 613T247 613T292 614ZM541 198Q541 181 541 164T541 130Q543 103 534 80T511
36Q464 -30 383 -56Q379 -57 375 -59T365 -62Q354 -63 343 -63T321 -63Q321 -55 321 -48T321 -35Q322 -17 322 0T324 36Q325 53 326 70T329 105Q330 120 330 135T330 167Q329 184 328 200T326 232Q326 249 326 264T330 295Q330 298 329 301T326 307Q326 311 325
314T323 322Q322 331 323 340T323 358Q322 367 334 369Q347 370 359 368T383 361Q405 355 424 345T462 322Q492 303 510 274T540 211Q541 208 541 205T541 198Z" />
<glyph unicode="c" glyph-name="c" horiz-adv-x="609" d="M355 364Q354 343 353 323T349 282Q348 264 348 246T348 209Q349 190 350 171T352 131Q353 112 353 94T348 57Q347 54 349 51T352 44Q353 39 354 35T356 26Q357 15 355 5T356 -16Q357 -27 343 -29Q327
-30 313 -27T285 -20Q260 -12 238 0T192 25Q156 49 135 83T100 157Q99 161 99 164T99 172Q99 192 99 212T98 252Q97 284 107 311T134 363Q189 441 285 472Q290 474 295 477T307 480Q320 481 333 481T358 481Q358 471 358 464T358 448Q357 427 357 406T355 364ZM391
283Q377 285 377 300Q379 344 381 388T385 476Q385 476 385 477T387 479H463Q461 458 462 438T459 397Q455 379 455 360T453 322Q452 315 452 308T451 293Q449 276 435 277Q424 278 413 279T391 283ZM377 -11Q377 -2 377 7T377 26Q377 53 377 79T379 134Q379 147
383 150T399 154Q412 156 425 155T454 154Q454 144 454 135T455 117Q455 101 455 86T454 57Q454 42 454 27T455 -3Q457 -13 454 -16T440 -22Q430 -23 420 -24T400 -28Q378 -31 377 -11Z" />
<glyph unicode="d" glyph-name="d" horiz-adv-x="627" d="M523 652L520 424V186Q522 125 520 64T523 -56H349L342 648Q348 650 370 650T421 651T478 651T523 652ZM78 174Q78 181 78 188T78 202Q76 234 85 262T111 317Q114 322 118 326T127 334Q135 341 143 349T160
364Q166 369 173 373T188 381Q196 385 204 387T217 399Q219 402 225 403T235 405Q263 406 290 405Q294 405 304 400Q295 387 294 375T303 350Q301 348 299 345T294 339Q300 336 301 332T303 320V-10Q303 -12 303 -15T302 -23Q290 -23 278 -23T254 -20Q247 -17 239
-16T223 -14Q195 -8 174 6T132 37Q112 55 102 78T82 125Q79 137 79 149T78 174Z" />
<glyph unicode="e" glyph-name="e" horiz-adv-x="556" d="M159 218H131Q114 221 97 223T59 228Q63 243 65 257T71 285Q83 332 111 364T180 420Q198 430 216 438T253 455Q256 457 264 457Q269 457 274 457T285 457Q332 460 370 442T443 396Q491 357 508 292Q512
278 513 262T515 231Q516 217 512 214T494 210Q442 211 391 212T288 214Q258 215 228 216T167 218Q166 219 164 219T159 218ZM179 -4Q130 25 108 68T81 164Q80 170 80 176T80 189L300 183Q300 142 300 101T299 18Q299 14 298 11T297 3Q297 -3 297 -9T299 -26Q298
-27 295 -29T287 -32Q277 -33 267 -32T246 -28Q236 -26 227 -24T208 -20Q202 -19 197 -15Q193 -12 189 -9T179 -4Z" />
<glyph unicode="f" glyph-name="f" horiz-adv-x="603" d="M297 435L294 283Q294 283 294 261T294 207T293 147T293 108Q295 63 294 19T297 -69H123L115 435Q115 438 114 439Q114 450 116 461T121 483Q127 502 136 519T156 552Q174 579 199 595T255 621Q258 622
261 622T266 622Q281 622 296 622T327 623Q350 625 370 617T410 596Q469 555 492 483Q494 479 496 475T498 466V427H474Q458 428 442 428T410 430Q395 431 380 432T349 434Q336 435 323 435T297 435ZM336 294Q336 294 336 295T338 298H414Q412 277 413 257T410
216Q406 198 406 179T404 141Q403 134 403 127T402 112Q400 95 386 96Q375 97 364 98T342 101Q328 105 328 119Q330 163 332 206T336 294Z" />
<glyph unicode="g" glyph-name="g" horiz-adv-x="519" d="M271 4Q272 8 272 12T273 20Q273 25 273 30T274 39Q267 43 271 50Q274 55 274 60Q274 64 274 67T275 74Q274 80 273 86T273 98Q275 124 274 149T272 199Q274 250 276 301T279 408Q290 407 299 405T318
403Q347 402 370 390T414 361Q432 347 443 327T461 284Q469 255 468 226T462 168Q458 149 449 132T427 101Q426 100 425 99T421 96Q421 77 421 58T420 18Q419 -15 419 -48T417 -116Q416 -150 416 -183T409 -251L264 -248Q262 -240 262 -234Q263 -178 264 -124T266
-14Q266 -9 268 -5T271 4ZM102 315Q106 320 112 323T123 330Q138 338 153 346T184 363Q184 364 177 372Q181 373 184 374T190 375Q204 375 217 374T243 373Q249 372 254 371T261 362Q264 348 248 343Q248 343 243 340V277Q244 217 245 158T247 38Q247 35 246 32T245
24Q245 16 248 -1Q247 -1 244 -3T237 -7Q220 -7 202 -4Q194 -2 186 -1T169 2Q163 4 160 6Q156 8 153 10T144 16Q101 40 82 78T56 162Q54 182 54 202T59 242Q59 246 61 250Q72 267 81 283T102 315ZM145 -221Q104 -197 86 -160T62 -79Q62 -74 62 -69T61 -58L246 -64V-202Q245
-205 245 -208T243 -215Q243 -220 243 -225T245 -239Q244 -240 242 -242T235 -245Q226 -245 218 -244T200 -241Q192 -239 185 -238T169 -234Q164 -233 160 -230Q156 -228 153 -226T145 -221Z" />
<glyph unicode="h" glyph-name="h" horiz-adv-x="660" d="M347 2Q334 1 321 1T295 1Q295 -45 298 -92H127L119 603Q125 605 147 605T198 606T254 606T299 607L295 382V226Q299 229 303 230Q307 232 314 232Q319 233 324 233T334 233Q378 238 415 223T487 181Q534
145 553 85Q558 72 560 57T563 27Q564 14 560 11T543 6Q494 5 445 4T347 2ZM558 -3Q558 -3 559 -3T562 -4L565 -75Q546 -74 528 -76T489 -75Q472 -73 454 -73T419 -74H392Q376 -72 376 -60Q377 -49 377 -39T379 -18Q381 -5 394 -5Q435 -4 476 -4T558 -3Z" />
<glyph unicode="i" glyph-name="i" horiz-adv-x="386" d="M287 514Q280 518 273 516T259 515Q245 517 231 516T201 515Q172 516 143 517T82 519Q83 525 83 530T85 541Q85 558 92 571T108 596Q124 617 153 623Q170 628 186 628T219 623Q230 622 240 617T257 603Q265
596 272 587T283 566Q286 557 292 553Q297 550 296 544Q295 538 295 532T294 520Q294 517 292 515T287 514ZM279 430L276 268V99Q278 56 276 13T279 -72H111L103 428Q109 429 130 429T180 430T236 429T279 430Z" />
<glyph unicode="j" glyph-name="j" horiz-adv-x="565" d="M479 593Q484 591 483 584Q482 578 482 572T482 560Q480 551 474 554Q467 558 461 556T446 555Q432 557 418 556T389 555Q360 556 331 557T269 559Q270 565 271 570T272 581Q273 598 279 611T296 636Q312
656 340 663Q357 668 373 668T407 663Q418 662 427 657T445 643Q453 636 460 627T471 606Q473 598 479 593ZM469 -5Q469 -19 469 -32T469 -59Q472 -96 452 -126Q433 -154 411 -177T358 -214Q346 -219 335 -218Q313 -216 292 -217T249 -219Q212 -220 186 -204T137
-163Q120 -143 111 -120T92 -73Q89 -65 90 -56T91 -35Q147 -33 200 -32T307 -29Q306 -23 305 -15T303 0Q303 22 303 30T303 40T303 44T303 54T303 86Q302 125 301 164T298 243Q297 292 297 340T298 438V468H467Q468 464 468 460T469 451V-5Z" />
<glyph unicode="k" glyph-name="k" horiz-adv-x="644" d="M515 407Q518 407 522 406T531 402Q510 370 529 344Q525 338 519 332Q526 328 527 323T529 310V-68Q529 -70 529 -73T528 -82Q515 -82 502 -83T474 -80Q465 -76 456 -75T438 -72Q407 -65 382 -49T334 -13Q315
4 304 25T284 69Q283 29 283 -10T287 -89H113L105 616Q111 618 133 618T185 618T242 618T287 619L284 391V252Q293 279 310 306Q314 312 319 316T328 325Q338 333 347 342T366 360Q373 365 381 370T398 379Q407 384 416 386T431 400Q433 403 440 405T452 407Q484
409 515 407Z" />
<glyph unicode="l" glyph-name="l" horiz-adv-x="500" d="M308 618L305 390V152Q306 111 305 70T305 -12Q315 -12 324 -12T343 -13Q343 -13 344 -13T346 -15V-92Q335 -90 324 -90T302 -90H134L127 614Q133 616 155 616T206 617T263 616T308 618Z" />
<glyph unicode="m" glyph-name="m" horiz-adv-x="713" d="M305 128Q305 88 304 46T300 -41H115Q111 -3 108 36T100 113Q99 148 99 173T100 199V472H300Q302 462 302 452T302 433Q305 280 305 128ZM666 280H668Q667 275 667 271T667 261Q667 259 667 256T668 251H667Q666
230 666 210T662 168Q658 144 658 121T656 73Q655 51 654 29T651 -18Q623 -17 597 -18T545 -11Q533 -7 529 -2T525 16Q530 75 534 134T544 255L487 256Q487 237 484 219Q481 199 481 180T479 140Q478 122 477 104T475 64Q452 65 430 64T387 70Q369 75 370 92Q374
142 378 191T386 291L314 293V424Q315 427 315 430T316 436Q316 441 316 446T315 459Q316 460 318 462T324 465Q332 465 340 464T357 461Q365 460 372 459T387 455Q389 454 391 453T395 451Q399 449 402 447T410 442Q440 424 457 398Q457 403 457 407T458 415Q458
419 459 422T460 430Q460 436 460 442T458 458Q459 459 462 461T470 465Q480 465 489 464T509 460Q519 459 527 457T545 453Q549 452 555 448Q560 445 564 443T572 437Q619 410 639 370T666 280Z" />
<glyph unicode="n" glyph-name="n" horiz-adv-x="603" d="M95 194V467H295Q297 457 297 447T297 428Q300 277 300 124Q300 83 299 41T295 -45H110Q106 -7 103 32T95 108Q94 143 94 168T95 194ZM518 275H519V247Q518 225 518 205T514 163Q510 140 510 116T508 68Q507
47 506 25T503 -22Q475 -21 449 -23T397 -15Q384 -11 380 -6T376 11Q381 70 386 130T396 250L308 253Q309 292 309 331T309 411Q310 415 311 418T312 426Q312 431 312 437T310 454Q311 454 314 457T321 460Q332 460 341 459T361 456Q370 455 379 453T397 448Q401
447 407 443Q416 439 424 432Q470 406 491 365T518 275Z" />
<glyph unicode="o" glyph-name="o" horiz-adv-x="621" d="M541 267Q540 255 539 243T536 218Q535 211 532 207T521 206Q507 214 493 212T464 210Q435 213 406 213T347 213Q287 216 227 220T102 228Q104 241 106 252T110 274Q111 307 126 334T162 385Q179 405 202
418T253 437Q288 445 321 444T389 434Q412 429 431 418T466 391Q483 375 497 356T518 313Q520 306 523 299T534 286Q538 283 540 279T541 267ZM98 131Q97 130 94 128T86 123Q85 128 84 131T84 139Q85 154 86 169T88 200Q89 208 90 214T102 221Q112 223 116 218T123
205Q124 204 124 203T127 199Q144 198 162 198T200 197Q271 196 341 196T481 194Q485 194 489 193T497 192Q503 191 510 191T527 193Q528 192 531 189T534 181Q534 162 529 140Q528 130 525 121T520 101Q519 97 515 91Q512 87 509 83T504 73Q474 24 429 2T329 -25Q305
-26 282 -25T235 -18Q229 -18 226 -15Q207 -4 188 8T151 34Q146 38 142 45T135 58Q125 76 117 94T98 131Z" />
<glyph unicode="p" glyph-name="p" horiz-adv-x="631" d="M111 -234L104 470Q110 472 132 472T183 473T240 473T285 474L282 246V8Q284 -53 282 -114T285 -234H111ZM544 271Q544 253 544 235T545 198Q547 168 537 144T512 96Q487 59 452 34T373 -5Q368 -6 363
-9T353 -12H305Q305 -3 305 3T305 16Q306 36 307 56T309 95Q309 114 311 132T314 170V237Q314 255 313 273T311 309Q310 326 310 343T314 377Q315 380 314 383T311 390Q310 395 309 398T307 406Q306 416 308 426T308 446Q305 456 320 458Q334 458 347 456T373 449Q396
442 417 431T458 407Q491 385 510 354T543 285Q544 282 544 279T544 271Z" />
<glyph unicode="q" glyph-name="q" horiz-adv-x="624" d="M512 -214H338Q343 -155 342 -94T341 28V266L338 494Q355 493 382 493T439 493T491 493T519 490L512 -214ZM111 116Q96 139 87 163T78 218Q80 236 80 254T79 291Q79 295 79 298T80 305Q93 342 112 373T165
427Q185 440 206 451T250 469Q264 473 277 475T303 478Q318 476 315 466Q313 456 315 446T316 426Q315 422 314 419T312 410Q311 406 310 403T308 397Q313 381 313 364T312 329Q311 311 310 293T308 257Q308 241 308 224T309 190Q311 171 312 153T314 115Q316 96
316 76T318 36Q319 30 319 23T318 7Q307 7 295 7T270 8Q265 8 260 10T250 14Q207 28 172 53T111 116Z" />
<glyph unicode="r" glyph-name="r" horiz-adv-x="504" d="M259 471L256 309V139Q258 96 257 53T259 -32H91L84 468Q90 469 111 469T161 470T216 469T259 471ZM275 450Q274 455 274 460T273 471L458 465V327Q457 324 457 321T455 314Q455 309 455 304T457 290Q456
289 454 287T447 284Q438 284 430 285T412 288Q404 290 397 291T381 295Q376 296 372 299Q368 301 365 303T357 308Q316 332 298 369T275 450Z" />
<glyph unicode="s" glyph-name="s" horiz-adv-x="532" d="M374 446Q410 425 426 393T446 322Q447 318 447 314T447 304L285 308Q285 339 285 369T286 430Q286 433 288 441Q288 446 288 451T286 463Q287 463 289 465T295 467Q303 468 310 467T325 464Q333 463 339
462T353 458Q359 456 361 454Q368 451 374 446ZM270 461Q275 460 278 458T279 450Q273 440 275 430T276 410Q274 390 274 369T274 327Q272 285 269 243T263 155Q254 157 247 158T231 160Q208 162 189 172T153 197Q138 209 130 226T116 262Q111 286 112 309T118
357Q125 389 149 411Q160 423 173 433T203 447Q208 449 213 451T222 459Q228 466 236 464Q244 463 253 463T270 461ZM360 219Q394 199 409 168T427 100Q429 84 429 68T423 36Q423 31 421 30Q413 17 405 5T387 -20Q384 -24 380 -26T370 -32Q358 -38 346 -44T321
-57Q322 -58 323 -59T327 -64Q323 -65 321 -66T315 -66Q305 -66 295 -65T274 -63Q269 -63 265 -62T259 -54Q258 -43 270 -39Q271 -39 272 -39T275 -37Q275 -25 275 -13T276 12Q277 60 277 108T278 203Q278 208 280 214Q280 219 280 223T278 235Q279 235 281 237T287
239Q294 240 301 239T315 236Q322 235 328 234T341 230Q343 230 345 229T348 227L360 219ZM262 -14Q262 -19 262 -24T264 -37Q263 -38 261 -40T254 -43Q246 -43 238 -42T222 -39Q214 -37 207 -36T192 -33Q190 -32 188 -31T184 -29Q180 -27 177 -25T169 -20Q131
2 114 36T92 112Q91 117 91 122T91 132L265 127Q265 95 265 63T264 -2Q264 -5 263 -8T262 -14Z" />
<glyph unicode="t" glyph-name="t" horiz-adv-x="500" d="M332 379Q354 378 375 377T419 374Q423 364 424 339T426 286T421 239Q399 240 377 240T331 242V146Q333 86 332 27T335 -92H163L159 245Q137 247 114 249T67 253V324Q68 341 68 359T72 389T81 398Q100
397 119 395T158 391L156 603Q162 605 184 605T235 605T291 605T335 607L332 382V379Z" />
<glyph unicode="u" glyph-name="u" horiz-adv-x="668" d="M505 488Q509 449 513 410T521 332Q523 298 523 272T521 246V-27H319Q318 -16 318 -7T317 12Q314 165 314 317Q314 358 316 401T319 488H505ZM237 430Q233 371 228 311T218 190L306 188Q305 148 305 109T305
29Q304 25 303 22T302 14Q302 8 302 3T304 -13Q303 -14 300 -16T293 -19Q283 -20 273 -19T253 -15Q243 -13 234 -11T216 -7Q212 -6 206 -2Q202 0 198 2T189 7Q143 34 122 75T95 165H93Q93 170 93 175T94 184Q93 186 93 189T93 194H94Q94 215 94 236T98 277Q102
301 103 325T105 373Q106 394 107 416T110 464Q138 463 165 465T217 457Q229 453 234 448T237 430Z" />
<glyph unicode="v" glyph-name="v" horiz-adv-x="628" d="M307 183L462 470Q466 469 480 461T514 443T551 422T580 407L506 280Q506 280 497 263T474 222T448 177T431 146Q413 111 393 77T358 8L355 10Q348 4 334 -2T307 -14T295 -19Q281 -23 267 -27T239 -37Q217
-44 211 -40T194 -11Q156 81 127 176T64 366Q61 376 58 387T49 412Q58 417 66 423T82 432Q103 440 123 446T165 459Q179 464 186 461T203 443Q220 418 229 389T249 333Q264 296 278 259T307 183Z" />
<glyph unicode="w" glyph-name="w" horiz-adv-x="658" d="M61 488H245Q247 445 249 402T251 318Q251 242 250 167T247 14Q247 5 247 -4T245 -24H45V248Q44 248 44 274T45 334Q49 372 53 411T61 488ZM612 196H613Q613 193 613 191T612 186Q612 182 612 177T613
167H611Q605 118 585 78T517 10Q513 7 509 5T500 0Q494 -4 490 -5Q481 -7 473 -9T454 -13Q444 -14 435 -15T415 -17Q411 -17 408 -14T403 -11Q404 -2 404 4T405 17Q405 20 404 24T403 31Q403 36 403 40T402 49Q385 23 355 5Q351 3 348 1T341 -3Q338 -5 332 -7Q325
-8 318 -10T302 -14Q286 -17 269 -17Q266 -17 264 -15T260 -12Q261 -4 261 1T261 11Q261 14 261 17T259 23V154L331 156Q327 206 323 256T315 355Q314 372 332 377Q353 385 375 384T420 383Q421 362 422 344T424 307Q426 288 426 268T429 228Q432 210 432 190L489
192Q484 252 480 312T470 431Q469 444 473 449T490 458Q516 468 542 466T596 465Q598 440 599 418T601 374Q603 350 603 326T607 279Q611 258 611 238T612 196Z" />
<glyph unicode="x" glyph-name="x" horiz-adv-x="587" d="M384 259Q398 239 412 218T439 177Q459 148 479 119T516 56L383 -34Q377 -29 372 -23Q351 8 330 39T286 102Q284 98 281 95T276 86Q257 56 239 26T196 -31L59 54Q61 57 62 60T65 67Q95 116 125 164T186
262Q173 281 161 299T136 337Q119 363 103 389T70 443L197 530Q218 502 238 472T278 413Q280 411 282 409T285 404Q289 410 292 416T300 428Q317 454 334 479T370 530L501 449Q484 418 465 389T427 328Q417 311 406 294T384 259Z" />
<glyph unicode="y" glyph-name="y" horiz-adv-x="589" d="M432 358L460 357Q477 355 495 353T532 348Q529 333 527 319T520 291Q507 242 473 205Q461 182 450 159Q434 127 418 95T384 30Q368 -1 352 -33T318 -97Q302 -129 286 -161T248 -224L109 -153Q111 -149
112 -146T114 -139Q141 -86 167 -34T221 70Q223 75 227 78T234 86Q240 94 244 100Q247 106 250 112T256 123Q226 130 200 145T149 180Q124 200 108 226T84 283Q80 298 79 314T77 345Q76 359 80 362T98 366Q150 365 201 364T303 362Q334 361 364 360T424 357Q425
356 432 358Z" />
<glyph unicode="z" glyph-name="z" horiz-adv-x="526" d="M394 108Q402 116 416 121T443 116Q447 113 449 97T452 66T453 51V-1Q453 -22 448 -26T422 -33Q343 -39 263 -37T103 -37H64Q63 -28 60 -20T57 -4Q56 16 56 35T57 74Q57 93 69 98Q78 110 87 119Q127 164
167 209T247 299Q253 305 255 308H57V452Q65 453 72 453T85 453Q195 456 303 456Q332 456 362 455T424 452V319Q405 295 386 271T349 223Q332 202 318 187T303 173L251 115Q265 116 278 116T304 118Q321 119 337 119T370 121Q385 122 394 108Z" />
<glyph unicode="{" glyph-name="braceleft" horiz-adv-x="410" d="M152 706Q178 752 218 772T308 797Q314 798 320 798T332 798L326 593Q288 593 250 593T173 594Q169 594 166 595T158 596Q153 596 147 596T131 595Q130 596 128 599T125 606Q124 616 125 625T129
644Q131 653 133 662T136 679Q137 683 141 689Q144 694 146 698T152 706ZM135 277L132 274L39 373L111 445Q113 447 115 448T119 450Q121 453 124 456T131 464V588H283Q285 581 285 573T285 558Q286 500 286 443T287 327Q287 296 286 264T283 198H143Q141 218 139
238T135 277ZM357 191Q357 151 357 111T356 29Q356 25 355 22T354 14Q354 8 354 2T356 -14Q355 -15 352 -17T344 -20Q334 -21 324 -20T303 -16Q293 -14 284 -12T266 -8Q262 -7 256 -3Q252 -1 248 2T238 7Q190 36 169 78T141 173Q141 179 141 185T140 198L357 191Z"
/>
<glyph unicode="|" glyph-name="bar" horiz-adv-x="372" d="M275 748L272 520Q272 520 272 500T272 448T272 383T271 321T271 281Q273 220 272 159T275 39H127L120 744Q125 746 144 746T188 747T236 746T275 748Z" />
<glyph unicode="}" glyph-name="braceright" horiz-adv-x="399" d="M229 584Q191 584 153 584T76 583L70 788Q75 788 81 788T93 787Q142 782 182 762T250 696Q252 692 255 688T260 679Q264 673 265 669Q267 661 269 652T273 634Q275 625 276 616T277 596Q276 592
274 589T271 585Q261 586 255 586T243 586Q240 586 236 585T229 584ZM267 267Q265 248 263 228T259 188H118Q117 222 116 254T114 317Q114 433 117 548Q117 555 117 563T118 578H271V452L360 358Q342 340 324 322T287 286Q286 285 284 284T280 281Q277 278 275
275T268 267H267ZM48 4Q47 8 46 11T45 19Q45 60 45 100T44 181L261 188Q261 181 261 175T260 163Q255 111 234 69T163 -2Q159 -5 155 -7T146 -13Q141 -17 135 -18Q126 -20 117 -22T98 -26Q88 -28 78 -29T58 -30Q54 -30 51 -28T46 -24Q47 -14 47 -8T48 4Z" />
<glyph unicode="~" glyph-name="asciitilde" horiz-adv-x="686" d="M408 298Q409 291 410 283T413 265Q369 263 326 260T241 255Q220 254 200 254T158 252Q148 251 139 253T118 250Q114 247 111 250T108 258Q107 267 107 275T104 293Q103 301 110 306Q115 310
117 315T121 325Q125 342 135 355T157 380Q168 391 181 398T211 410Q235 415 258 416T307 412Q326 408 342 399T371 376Q385 359 396 340T408 298ZM623 269Q630 268 631 264T633 255Q633 244 634 234T635 213Q636 211 635 208T634 202Q631 204 629 205T626 208Q619
195 613 183T601 158Q599 154 597 149T590 141Q577 132 565 124T539 107Q535 105 533 105Q502 98 469 101Q432 105 401 119T350 168Q348 171 346 174T342 180Q340 183 338 187Q337 194 336 200T332 213Q329 228 329 242Q329 244 331 246T334 250Q341 249 345 249T354
249Q359 249 365 251Q413 251 460 251T556 253Q569 253 581 253T606 254Q608 256 608 256T609 258Q612 271 623 269Z" />
<glyph unicode="&#xa0;" glyph-name="uni00A0" horiz-adv-x="1000" />
<glyph unicode="&#xa5;" glyph-name="yen" horiz-adv-x="714" d="M615 762Q632 761 632 744Q629 686 606 639T544 551Q527 535 507 520T464 486V467Q472 467 479 467T495 468Q512 468 529 467T557 455Q558 445 559 438T562 423Q563 411 564 399T564 374Q561 353
525 351Q509 351 494 351T461 350Q461 340 461 330T460 310Q460 304 460 299T459 287Q468 287 477 287T495 288Q512 288 529 287T557 275Q558 265 559 258T562 243Q563 231 564 219T564 195Q561 172 525 172Q509 171 493 171T459 170Q460 163 460 156T460 140Q460
111 459 91T458 50T456 0Q456 -12 452 -17T433 -21Q415 -20 397 -21T360 -21Q341 -20 323 -22T285 -26Q261 -28 253 -21T245 9Q246 54 246 90T248 164Q229 163 209 163T169 161Q167 166 164 170T158 179L160 178L159 281Q182 282 205 283T251 285V318Q252 325 252
331T252 344Q232 343 211 343T170 341Q167 346 164 350T158 358L160 357L159 461Q183 462 207 463T256 465V495Q238 507 221 518T186 540Q155 560 136 588T101 649Q91 673 91 698T91 748Q114 750 133 751T171 753Q250 754 328 755T486 757Q515 757 543 759T599
762H615Z" />
<glyph unicode="&#xa6;" glyph-name="brokenbar" horiz-adv-x="372" d="M275 749L272 639Q272 639 272 625T272 590T271 551T271 525Q272 503 273 482T275 439H127L120 747Q125 748 144 748T188 748T236 748T275 749ZM275 349L272 269Q272 269 272 255T272 220T271
181T271 155Q273 126 272 97T275 39H127L120 347Q125 348 144 348T188 348T236 348T275 349Z" />
</font>
</defs>
</svg>
