<?xml version="1.0" standalone="no"?>
<!DOCTYPE svg PUBLIC "-//W3C//DTD SVG 1.1//EN" "http://www.w3.org/Graphics/SVG/1.1/DTD/svg11.dtd">
<svg xmlns="http://www.w3.org/2000/svg">
<defs >
<font id="Calistoga" horiz-adv-x="588" ><font-face
    font-family="Calistoga"
    units-per-em="1000"
    panose-1="0 0 0 0 0 0 0 0 0 0"
    ascent="1000"
    descent="-300"
    alphabetic="0" />
<glyph unicode=" " glyph-name="space" horiz-adv-x="190" />
<glyph unicode="!" glyph-name="exclam" horiz-adv-x="272" d="M94 308L45 699Q44 705 44 710T44 720Q44 756 62 772T114 788H157Q191 788 209 772T228 720Q228 716 228 711T226 699L176 308H94ZM135 -13Q90 -13 63 14T35 86Q35 131 62 158T135 185Q182 185 209
158T237 86Q237 42 210 15T135 -13Z" />
<glyph unicode="&quot;" glyph-name="quotedbl" horiz-adv-x="555" d="M101 434Q79 434 60 450Q64 471 70 507T82 587T94 673T105 751T112 804Q120 810 141 815T182 820Q220 820 233 808T246 767Q246 760 246 752T244 734Q242 718 234 688T215 621T191 550T167
490T149 458Q138 448 126 441T101 434ZM355 434Q333 434 314 450Q318 471 324 507T336 587T348 673T359 751T366 804Q374 810 395 815T436 820Q474 820 487 808T500 767Q500 760 500 752T498 734Q496 718 488 688T469 621T445 550T421 490T403 458Q392 448 380
441T355 434Z" />
<glyph unicode="#" glyph-name="numbersign" horiz-adv-x="722" d="M158 -1L190 204H62Q68 251 89 286H203L225 423H91Q94 444 101 466T118 504H237L268 698Q285 705 312 708T362 712L329 504L440 503L471 698Q488 705 515 708T564 712L531 503H660Q654 458 633
423H519L497 285H631Q625 238 604 205H485L455 14Q437 7 410 3T361 -1L393 205L283 204L253 14Q235 7 208 3T158 -1ZM295 286L406 285L428 423H317L295 286Z" />
<glyph unicode="$" glyph-name="dollar" horiz-adv-x="593" d="M304 -117Q277 -117 259 -109V23Q238 28 216 34T172 48L96 16Q84 40 73 80T56 164T49 244H153Q175 177 220 136T326 95Q378 95 394 115T411 157Q411 187 387 214T327 263T257 302Q201 329 162 356T101
419T80 505Q80 563 105 602T172 661T269 683V796Q275 799 282 800T297 801Q324 801 342 792V677Q377 671 402 659L507 683Q521 661 527 627T534 556T536 489V473H448Q427 540 391 572T310 604Q264 604 243 585T221 533Q221 503 242 480T294 440T355 409Q388 394
421 376T482 333T527 277T544 200Q544 120 492 68T336 16H333V-112Q327 -115 320 -116T304 -117Z" />
<glyph unicode="%" glyph-name="percent" horiz-adv-x="1078" d="M377 -106Q359 -105 339 -96T304 -73L701 739Q721 738 741 729T775 707L377 -106ZM272 242Q187 242 136 295T84 467Q84 587 136 639T273 692Q359 692 410 640T461 467Q461 346 409 294T272 242ZM272
300Q286 300 297 313T316 363T323 469Q323 539 316 574T298 621T273 633Q260 633 249 621T230 574T223 467Q223 399 229 363T247 313T272 300ZM805 -53Q719 -53 668 0T617 172Q617 293 668 345T805 397Q891 397 942 344T994 172Q994 52 942 0T805 -53ZM805 6Q819
6 830 19T848 68T855 174Q855 244 848 279T830 327T805 339Q792 339 781 327T762 280T755 173Q755 104 761 68T779 19T805 6Z" />
<glyph unicode="&amp;" glyph-name="ampersand" horiz-adv-x="806" d="M410 -8Q307 -8 231 20T113 96T71 198Q71 225 77 253T103 309T160 357T258 390Q207 409 180 434T144 488T134 548Q134 590 165 626T256 685T398 707Q477 707 529 688T608 637T635 571Q635
534 610 515T550 496Q515 496 494 514T473 558Q473 576 484 590T518 612Q478 646 418 646Q366 646 335 622T303 559Q303 520 326 485T397 427V381Q353 381 326 365T283 323T263 266T257 206Q257 148 292 107T398 65Q433 65 463 76T512 111T531 171Q531 222 494
250T398 278V286Q398 303 404 321T420 350Q491 350 532 369T606 410Q633 428 661 442T731 456Q759 456 770 445T783 421T786 398Q786 392 785 383T781 367Q752 369 728 370T683 371Q658 371 636 365T591 335Q626 327 651 301T691 241T705 175Q705 126 673 85T575
18T410 -8Z" />
<glyph unicode="&apos;" glyph-name="quotesingle" horiz-adv-x="301" d="M101 434Q79 434 60 450Q64 471 70 507T82 587T94 673T105 751T112 804Q120 810 141 815T182 820Q220 820 233 808T246 767Q246 760 246 752T244 734Q242 718 234 688T215 621T191 550T167
490T149 458Q138 448 126 441T101 434Z" />
<glyph unicode="(" glyph-name="parenleft" horiz-adv-x="442" d="M405 -146Q321 -143 254 -102T140 6T67 158T42 332Q42 422 67 506T139 657T254 766T405 810V767Q360 754 324 712T262 607T222 474T208 332Q208 262 222 191T261 57T323 -47T405 -104V-146Z" />
<glyph unicode=")" glyph-name="parenright" horiz-adv-x="442" d="M37 -146V-104Q82 -90 118 -48T180 57T220 190T234 332Q234 403 220 474T181 607T119 711T37 767V810Q121 807 188 766T302 658T375 506T400 332Q400 242 375 158T303 7T188 -102T37 -146Z" />
<glyph unicode="*" glyph-name="asterisk" horiz-adv-x="490" d="M165 538Q147 538 122 555L93 576L211 732L99 722Q65 719 43 736T20 784Q20 789 21 796T24 810L36 845L218 782L177 880Q169 899 169 916Q169 942 186 960T237 978H271V796L347 864Q372 886 401
886Q420 886 435 875T459 837L470 803L291 747L390 688Q409 677 419 660T429 626Q429 612 422 598T398 573L369 553L256 712L228 598Q222 573 205 556T165 538Z" />
<glyph unicode="+" glyph-name="plus" horiz-adv-x="629" d="M58 267Q54 278 52 293T50 322Q50 340 52 356T60 381H257V580Q268 585 283 587T315 589Q332 589 347 587T371 580V381H571Q576 371 577 355T579 322Q579 306 578 291T571 267H371V68Q361 64 346 62T316
60Q300 60 284 62T257 69V267H58Z" />
<glyph unicode="," glyph-name="comma" horiz-adv-x="259" d="M68 -218Q56 -214 46 -201T36 -171Q82 -145 110 -105T138 -24Q138 -21 138 -18T136 -11Q132 -12 129 -12T121 -13Q75 -13 52 15T28 80Q28 125 56 152T127 179Q177 179 210 143T244 32Q244 -33 219
-85T153 -171T68 -218Z" />
<glyph unicode="-" glyph-name="hyphen" horiz-adv-x="487" d="M67 214Q63 222 62 234T60 258Q60 272 61 289T67 314H420Q424 306 425 289T427 258Q427 245 426 233T421 214H67Z" />
<glyph unicode="." glyph-name="period" horiz-adv-x="259" d="M130 -13Q84 -13 56 14T28 86Q28 131 56 158T130 185Q175 185 203 158T231 86Q231 42 203 15T130 -13Z" />
<glyph unicode="/" glyph-name="slash" horiz-adv-x="480" d="M135 -208Q116 -207 89 -198T46 -175L346 750Q365 749 392 740T434 716L135 -208Z" />
<glyph unicode="0" glyph-name="zero" horiz-adv-x="663" d="M330 -10Q243 -10 179 25T80 137T45 342Q45 477 81 557T181 673T332 708Q419 708 483 673T583 557T618 341Q618 213 582 136T482 24T330 -10ZM330 60Q352 60 372 71T407 111T430 197T439 343Q439 439
431 498T407 587T373 627T332 638Q310 638 291 628T256 587T232 497T223 340Q223 251 231 196T255 112T289 71T330 60Z" />
<glyph unicode="1" glyph-name="one" horiz-adv-x="480" d="M92 0Q81 11 75 32T68 68Q117 68 147 86T178 157V519Q178 551 133 551Q119 551 102 548T70 538L43 588L199 679Q233 699 252 704T284 710Q312 710 321 692T331 656V157Q331 104 360 86T442 68Q442 53
436 32T419 0H92Z" />
<glyph unicode="2" glyph-name="two" horiz-adv-x="585" d="M66 -11L34 14Q45 73 72 120T135 207T208 283T278 356T330 434T350 525Q350 585 322 612T251 639Q193 639 161 595Q187 588 203 565T219 518Q219 481 190 459T125 436Q88 436 59 462T30 538Q30 584 61
622T149 685T282 709Q351 709 407 687T496 621T530 508Q530 454 509 413T454 339T377 279T293 225T214 170T153 107Q182 120 224 129T303 139H356Q404 139 442 161T491 224H519Q535 210 545 184T555 129Q555 98 540 67T487 15T383 -6Q348 -6 319 -2T260 6T190 10Q158
10 126 5T67 -11L68 -10L66 -11Z" />
<glyph unicode="3" glyph-name="three" horiz-adv-x="624" d="M283 -8Q214 -8 159 10T72 61T40 142Q40 185 64 207T123 230Q158 230 179 210T200 161Q200 147 194 129T172 97Q185 87 211 85T267 83Q329 83 361 114T394 197Q394 232 383 263T345 315T275 336Q247
329 216 322L196 382Q259 399 292 420T338 467T351 523Q351 570 324 600T251 631Q227 631 210 625T177 599Q190 594 201 580T212 545Q212 523 192 501T134 478Q95 478 75 502T54 564Q54 610 86 641T173 690T291 707Q360 707 413 688T498 634T529 547Q529 515 516
484T468 423T373 369Q431 373 478 356T552 299T579 196Q579 135 541 89T436 18T283 -8Z" />
<glyph unicode="4" glyph-name="four" horiz-adv-x="663" d="M238 0Q227 11 222 31T216 67Q263 67 294 79T325 122V192H28L10 254L276 698H479V274H495Q535 274 556 290T590 341H613Q630 336 641 319T653 280Q653 252 641 233T592 203T479 192V121Q479 90 505
79T583 67Q583 52 577 32T559 0H238ZM150 274H325V608L150 274Z" />
<glyph unicode="5" glyph-name="five" horiz-adv-x="603" d="M274 -8Q204 -8 151 10T69 61T40 136Q40 178 65 201T126 225Q161 225 183 204T206 151Q206 132 197 118T164 90Q176 84 195 80T238 76Q306 76 343 116T380 214Q380 284 341 317T234 351Q206 351 175
346T121 329L82 374L116 698H336Q444 698 490 728H513Q527 718 534 697T542 652Q542 606 510 583T431 560Q388 560 353 573T284 600T215 619L191 407Q218 419 253 429T329 440Q402 440 454 413T535 337T563 227Q563 166 530 113T433 26T274 -8Z" />
<glyph unicode="6" glyph-name="six" horiz-adv-x="635" d="M322 -8Q240 -8 178 30T80 145T45 335Q45 463 87 545T199 667T353 707Q412 707 460 692T537 645T566 566Q566 528 544 502T482 476Q446 476 422 497T398 550Q398 566 408 582T436 607Q423 622 401 629T353
637Q317 637 287 614T238 538T219 393Q219 385 220 382Q246 407 288 420T377 434Q439 434 488 409T566 339T595 229Q595 163 561 110T465 24T322 -8ZM325 67Q351 67 374 79T413 122T428 205Q428 285 396 318T319 352Q285 352 259 339T219 300Q218 290 218 280T218
259Q218 186 233 144T273 85T325 67Z" />
<glyph unicode="7" glyph-name="seven" horiz-adv-x="542" d="M230 -10Q210 -10 188 -7T147 5Q154 105 182 198T267 388T411 592Q376 582 332 575T238 567Q180 567 155 550T118 488H62Q46 503 33 529T20 594Q20 644 49 676T147 708Q174 708 220 701T318 687T414
679Q437 679 450 681T476 691T506 711L542 662Q456 553 415 456T360 274T347 119V63Q347 46 339 29T307 1T230 -10Z" />
<glyph unicode="8" glyph-name="eight" horiz-adv-x="636" d="M304 -8Q210 -8 151 18T64 85T36 174Q36 233 74 281T177 354Q131 387 99 428T67 525Q67 577 96 618T184 684T329 709Q415 709 465 686T538 627T561 555Q561 507 527 469T441 404Q524 361 562 310T600
197Q600 138 565 92T464 19T304 -8ZM364 437Q439 485 439 553Q439 590 415 616T338 642Q291 642 259 621T227 564Q227 534 257 503T364 437ZM303 66Q358 66 393 92T428 162Q428 189 413 214T358 263T249 311Q211 292 190 260T169 189Q169 137 205 102T303 66Z"
/>
<glyph unicode="9" glyph-name="nine" horiz-adv-x="632" d="M295 -11Q195 -11 135 28T74 137Q74 178 96 202T159 227Q190 227 214 210T239 157Q239 137 229 120T194 94Q210 75 233 69T284 63Q354 63 382 120T410 287V310Q383 289 346 278T265 266Q202 266 151
292T70 366T40 480Q40 540 72 592T165 677T307 709Q409 709 470 663T559 537T587 350Q587 238 550 157T448 33T295 -11ZM202 499Q202 422 238 385T324 348Q352 348 375 357T412 386Q413 405 413 423Q413 512 397 558T355 622T306 639Q282 639 258 628T218 586T202
499Z" />
<glyph unicode=":" glyph-name="colon" horiz-adv-x="295" d="M148 342Q102 342 74 369T46 441Q46 486 74 513T148 540Q193 540 221 513T249 441Q249 397 221 370T148 342ZM148 -7Q102 -7 74 20T46 92Q46 137 74 164T148 191Q193 191 221 164T249 92Q249 48 221
21T148 -7Z" />
<glyph unicode=";" glyph-name="semicolon" horiz-adv-x="295" d="M86 -218Q74 -214 64 -201T54 -171Q100 -145 128 -105T156 -24Q156 -21 156 -18T154 -11Q150 -12 147 -12T139 -13Q93 -13 70 15T46 80Q46 125 74 152T145 179Q195 179 228 143T262 32Q262 -33
237 -85T171 -171T86 -218ZM148 342Q102 342 74 369T46 441Q46 486 74 513T148 540Q193 540 221 513T249 441Q249 397 221 370T148 342Z" />
<glyph unicode="&lt;" glyph-name="less" horiz-adv-x="629" d="M473 -1L100 281V334L473 608Q488 603 501 587T525 552T541 518L252 308L541 89Q536 75 526 56T502 21T473 -1Z" />
<glyph unicode="=" glyph-name="equal" horiz-adv-x="629" d="M58 413Q54 424 52 438T50 468Q50 485 52 501T60 527H571Q576 516 577 500T579 468Q579 452 578 437T571 413H58ZM58 184Q54 195 52 209T50 239Q50 257 52 272T60 298H571Q576 287 577 271T579 239Q579
223 578 208T571 184H58Z" />
<glyph unicode="&gt;" glyph-name="greater" horiz-adv-x="629" d="M168 -1Q154 5 140 21T116 56T100 89L389 308L100 518Q105 533 115 552T140 587T168 608L541 334V281L168 -1Z" />
<glyph unicode="?" glyph-name="question" horiz-adv-x="532" d="M214 267L187 394Q249 432 291 483T334 604Q334 659 308 683T243 707Q212 707 186 694T145 655Q170 647 191 626T212 573Q212 536 185 513T123 489Q99 489 76 501T36 538T20 599Q20 648 51 690T139
758T274 784Q346 784 399 761T482 697T512 603Q512 548 483 504T403 427T291 371L310 267H214ZM267 -13Q221 -13 194 14T167 86Q167 131 194 158T267 185Q314 185 341 158T368 86Q368 42 341 15T267 -13Z" />
<glyph unicode="@" glyph-name="at" horiz-adv-x="1019" d="M470 -313Q360 -313 272 -269T132 -140T80 69Q80 174 118 264T223 420T379 524T570 562Q678 562 761 518T891 393T938 197Q938 115 912 49T831 -58T691 -98Q648 -98 616 -87T554 -50Q531 -67 497 -80T422
-93Q348 -93 313 -46T278 78Q278 147 304 203T378 291T490 324Q552 324 600 295Q616 303 635 307T668 312H735L696 69Q694 60 694 52T693 35Q693 -15 732 -15Q764 -15 789 14T830 91T845 197Q845 295 806 357T703 448T563 478Q484 478 415 449T292 366T208 238T177
73Q177 -75 262 -152T502 -230Q570 -230 623 -217T709 -186L719 -202Q724 -209 725 -215T726 -227Q726 -241 719 -246Q681 -271 616 -292T470 -313ZM498 -12Q512 -12 522 -8T539 2L572 231Q552 241 533 241Q497 241 470 199T442 82Q442 33 456 11T498 -12Z" />
<glyph unicode="A" glyph-name="A" horiz-adv-x="677" d="M3 0Q-20 25 -20 64Q7 64 30 80T65 129L229 613Q189 626 128 626Q128 669 152 698H426L612 132Q623 99 647 82T697 64Q697 25 674 0H403Q380 25 380 64Q406 64 421 75T437 112Q437 121 436 133T430 159L424
180H200L194 159Q190 146 188 135T185 115Q185 88 202 76T249 64Q249 25 226 0H3ZM222 258H402L331 506Q322 536 308 557L222 258Z" />
<glyph unicode="B" glyph-name="B" horiz-adv-x="633" d="M311 -8Q264 -8 202 -4T48 0Q26 27 26 63Q60 63 74 74T88 114V584Q88 612 74 623T26 635Q26 671 48 698Q119 698 161 699T232 702T292 703Q379 703 435 688T522 648T566 594T579 535Q579 479 550 439T452
370Q538 352 577 314T617 196Q617 157 604 121T558 55T464 9T311 -8ZM283 394Q356 394 386 426T417 512Q417 566 388 598T294 630Q284 630 273 629T253 626V396Q260 395 268 395T283 394ZM295 65Q435 65 435 186Q435 254 401 288T286 322Q278 322 269 322T253 321V68Q260
67 271 66T295 65Z" />
<glyph unicode="C" glyph-name="C" horiz-adv-x="574" d="M344 -14Q259 -14 186 26T69 147T25 352Q25 470 64 549T174 668T338 709Q360 709 388 703T437 687Q447 692 464 696T498 705T526 709Q539 677 545 634T553 548T555 475H442Q434 540 407 581T335 622Q277
622 240 567T202 387Q202 284 230 223T304 135T403 108Q449 108 481 125T526 162Q539 153 546 135T554 102Q554 79 530 52T459 5T344 -14Z" />
<glyph unicode="D" glyph-name="D" horiz-adv-x="668" d="M292 -11Q269 -11 240 -8T166 -3T48 0Q26 28 26 64Q59 64 73 75T88 115V585Q88 612 74 623T26 635Q26 673 48 698Q147 698 215 704T306 710Q393 710 456 683T560 608T621 498T641 364Q641 287 621 219T559
100T450 19T292 -11ZM284 72Q339 72 379 99T441 187T463 349Q463 495 412 562T276 630Q269 630 263 630T252 628V74Q260 73 268 73T284 72Z" />
<glyph unicode="E" glyph-name="E" horiz-adv-x="615" d="M554 -16Q548 -14 539 -11T512 0H49Q39 13 33 29T26 63Q59 63 75 75T92 115V584Q92 612 76 623T27 635Q27 652 33 668T50 698H438Q456 706 478 710T519 715Q528 699 539 669T560 608T569 561Q561 553 544
545T508 531T478 522Q467 555 440 584T372 613H259V402H331Q359 402 377 418T396 475Q441 475 477 454V268Q443 247 397 247Q397 287 379 305T332 323H259V88H380Q424 88 454 124T492 211H599Q599 196 595 165T584 97T569 29T554 -16Z" />
<glyph unicode="F" glyph-name="F" horiz-adv-x="564" d="M49 0Q26 25 26 64Q67 64 80 75T94 114V584Q94 612 78 623T30 634Q30 671 53 697H435Q474 714 511 714Q520 698 527 669T539 610T544 563Q531 551 505 540T459 525Q449 558 423 585T346 612H258V380H340Q369
380 380 399T392 458Q414 458 438 453T478 436V251Q462 241 439 235T392 229Q392 270 381 287T341 305H258V127Q258 99 270 84T324 68H404Q404 50 401 31T386 0H49Z" />
<glyph unicode="G" glyph-name="G" horiz-adv-x="664" d="M370 -14Q264 -14 187 31T67 156T25 339Q25 462 67 544T183 667T353 709Q376 709 406 705T474 687Q484 692 501 696T535 705T562 709Q575 677 581 636T589 554T591 483H494Q484 548 444 582T350 617Q310
617 278 595T228 519T209 365Q209 259 226 198T277 110T359 83Q413 83 438 109V223Q438 249 415 260T345 272Q345 289 352 313T369 349H585Q615 349 630 336T649 306T654 282Q654 272 649 264Q633 264 619 263T593 256V141Q593 119 596 110T604 96Q607 93 609 90T611
78Q611 60 579 39T493 2T370 -14Z" />
<glyph unicode="H" glyph-name="H" horiz-adv-x="727" d="M48 0Q26 25 26 64Q59 64 72 75T86 114V584Q86 612 73 623T26 635Q26 673 48 698H292Q302 686 308 669T314 635Q281 635 268 624T254 584V397H472V584Q472 612 458 623T412 635Q412 673 434 698H679Q701
673 701 635Q669 635 655 624T640 584V114Q640 86 654 75T701 64Q701 25 679 0H434Q412 25 412 64Q444 64 458 75T472 114V313H254V114Q254 86 267 75T314 64Q314 46 308 29T292 0H48Z" />
<glyph unicode="I" glyph-name="I" horiz-adv-x="345" d="M51 0Q29 25 29 64Q62 64 75 75T89 114V584Q89 612 76 623T29 635Q29 673 51 698H294Q304 686 310 669T316 635Q283 635 270 624T256 584V114Q256 86 269 75T316 64Q316 46 310 29T294 0H51Z" />
<glyph unicode="J" glyph-name="J" horiz-adv-x="573" d="M100 -13Q84 5 65 33T33 105T20 210Q20 230 21 243T25 268H177Q173 252 171 237T169 204Q169 149 190 112T260 75Q278 75 296 83T325 112T337 170V564Q337 600 318 617T245 634Q245 671 268 697H542Q553
685 559 668T565 634Q531 634 515 623T499 583V228Q499 158 480 112T427 38T350 -1T260 -13Q244 -13 222 -10T178 -2T143 10L100 -13Z" />
<glyph unicode="K" glyph-name="K" horiz-adv-x="665" d="M563 -14Q521 -14 492 0T444 36T412 84T387 132Q377 153 362 181T330 238T293 288T255 318V114Q255 86 268 75T315 64Q315 46 309 29T293 0H48Q26 25 26 64Q59 64 72 75T86 114V584Q86 612 73 623T26 635Q26
673 48 698H293Q303 686 309 669T315 635Q282 635 269 624T255 584V386Q262 386 272 386T292 384L433 571Q440 579 443 589T446 607Q446 620 427 627T388 635Q388 670 411 698H644Q654 685 660 669T666 635Q623 635 600 618T566 587L377 363Q426 341 457 310T518
233Q548 188 569 153T612 96T664 71V31Q648 10 626 -2T563 -14Z" />
<glyph unicode="L" glyph-name="L" horiz-adv-x="550" d="M49 0Q26 25 26 64Q60 64 74 75T88 114V584Q88 612 74 623T26 635Q26 652 32 669T49 698H306Q317 686 322 669T328 635Q288 635 270 624T252 584V85H314Q370 85 401 134T433 268H503Q516 259 524 235T536
181T540 128Q540 68 519 34T446 0H49Z" />
<glyph unicode="M" glyph-name="M" horiz-adv-x="913" d="M48 0Q26 25 26 64Q62 64 79 75T97 114V584Q97 612 79 623T26 635Q26 672 49 698H206Q249 698 278 686T326 631L432 370L472 246L510 370L636 698H864Q887 672 887 635Q853 635 837 624T820 584V114Q820
86 835 75T887 64Q887 26 864 0H616Q606 12 600 29T594 64Q628 64 645 75T663 114V528L493 99Q480 66 456 56T397 45L199 528V114Q199 86 219 75T278 64Q278 46 272 29T256 0H48Z" />
<glyph unicode="N" glyph-name="N" horiz-adv-x="724" d="M606 -6Q554 -6 532 8T490 50L210 475V114Q210 86 229 75T283 63Q283 28 260 0H52Q30 27 30 63Q64 63 81 74T99 114V584Q99 612 80 623T26 635Q26 673 48 698H187Q216 698 245 676T300 613L527 254V584Q527
612 509 623T456 635Q456 652 462 669T479 698H692Q715 672 715 635Q682 635 664 624T646 584V-6H606Z" />
<glyph unicode="O" glyph-name="O" horiz-adv-x="669" d="M334 -13Q237 -13 168 32T62 158T25 348Q25 463 63 543T170 667T333 710Q430 710 499 665T606 539T644 348Q644 234 606 154T498 30T334 -13ZM334 60Q357 60 379 72T419 115T447 203T458 352Q458 465 442
526T399 612T336 636Q313 636 291 624T251 581T223 493T212 345Q212 232 228 170T272 84T334 60Z" />
<glyph unicode="P" glyph-name="P" horiz-adv-x="602" d="M49 0Q26 26 26 64Q60 64 74 75T89 114V584Q89 612 75 623T26 635Q26 652 32 668T48 698Q146 698 205 701T306 705Q412 705 474 679T564 603T592 479Q592 414 560 361T462 278T295 247H253V159Q253 120
261 100T294 72T362 64Q362 25 340 0H49ZM279 327Q326 327 353 341T395 379T413 429T418 482Q418 520 407 553T368 606T290 626Q268 626 253 622V329Q260 328 266 328T279 327Z" />
<glyph unicode="Q" glyph-name="Q" horiz-adv-x="669" d="M605 -182Q558 -182 527 -165T469 -128Q445 -110 421 -96T361 -82Q325 -82 305 -87T255 -110L226 -76Q237 -56 255 -39T299 -11Q212 -3 151 43T58 168T25 348Q25 463 63 543T170 667T333 710Q430 710 499
665T606 539T644 348Q644 212 590 124T441 4Q470 -2 498 -14T551 -38T589 -59Q603 -66 619 -69T653 -73Q669 -73 685 -71T718 -62Q723 -68 727 -80T732 -100Q732 -116 719 -135T678 -168T605 -182ZM334 60Q357 60 379 72T419 115T447 203T458 352Q458 465 442 526T399
612T336 636Q313 636 291 624T251 581T223 493T212 345Q212 232 228 170T272 84T334 60Z" />
<glyph unicode="R" glyph-name="R" horiz-adv-x="653" d="M572 -7Q508 -7 474 14T424 72T396 151Q389 180 379 211T354 266T320 297H254V114Q254 86 274 75T323 63Q323 27 301 0H50Q27 28 27 63Q61 63 76 74T92 114V584Q92 612 76 623T26 635Q26 652 31 669T46
698Q89 698 126 699T194 702Q221 704 248 705T307 706Q411 706 474 682T565 615T593 513Q593 441 555 396T437 334Q481 322 522 273T585 154Q596 117 613 98T659 75V25Q646 6 622 0T572 -7ZM298 366Q359 366 392 404T426 503Q426 565 397 597T303 630Q293 630 278
629T254 626V368Q261 367 276 367T298 366Z" />
<glyph unicode="S" glyph-name="S" horiz-adv-x="589" d="M85 -15Q72 11 62 57T45 155T38 246H138Q154 161 201 113T312 65Q343 65 360 77T386 108T394 142Q394 175 372 199T317 242T249 278Q161 321 110 376T59 516Q59 577 89 619T169 685T283 708Q312 708 351
702T416 682L501 708Q515 685 520 648T527 570T529 497V482H446Q425 567 387 597T305 628Q264 628 245 605T225 546Q225 514 242 492T288 454T347 421Q381 405 418 385T486 337T537 273T557 186Q557 131 529 86T449 13T323 -15Q289 -15 249 -8T162 19L85 -15Z"
/>
<glyph unicode="T" glyph-name="T" horiz-adv-x="638" d="M150 0Q128 25 128 64Q182 64 211 77T241 118V619H219Q193 619 168 603T124 545T98 421Q86 422 68 423T34 426T8 432Q8 453 10 491T16 572T26 652T42 710Q60 710 83 707T124 698H514Q533 704 555 707T596
710Q605 690 611 653T622 572T628 491T630 432Q617 427 589 424T540 421Q534 502 520 544T483 603T424 619H407V118Q407 64 513 64Q513 25 490 0H150Z" />
<glyph unicode="U" glyph-name="U" horiz-adv-x="671" d="M340 -13Q212 -13 137 57T62 263V585Q62 612 48 623T0 635Q0 673 23 698H273Q296 673 296 635Q262 635 248 624T234 585V242Q234 175 263 129T358 83Q403 83 429 102T466 154T478 226V585Q478 612 462
623T407 635Q407 653 412 669T429 698H649Q671 673 671 635Q633 635 617 624T600 585V273Q600 135 536 61T340 -13Z" />
<glyph unicode="V" glyph-name="V" horiz-adv-x="630" d="M276 -7L43 588Q33 614 14 624T-40 635Q-40 653 -37 668T-24 698H272Q279 686 284 670T290 635Q231 635 231 590Q231 585 233 579T237 566L321 295L351 185L381 293L461 569Q463 575 464 580T465 590Q465
610 450 622T406 635Q406 653 409 668T422 698H654Q663 684 666 669T670 635Q636 635 616 625T586 588L416 89Q399 38 376 16T307 -7H276Z" />
<glyph unicode="W" glyph-name="W" horiz-adv-x="992" d="M226 -7L49 588Q42 614 28 624T-20 635Q-20 652 -17 667T-5 698H265Q271 686 276 669T282 635Q244 635 233 622T221 591L307 268L323 186L418 551Q425 589 443 619T492 649H597L696 268L718 182L741 270L815
558Q818 569 818 578Q818 604 799 619T748 635Q748 652 751 667T762 698H997Q1005 684 1008 668T1012 635Q978 635 959 625T931 588L805 130Q786 60 756 27T675 -7H619L527 315L488 462L456 314L405 130Q386 60 358 27T280 -7H226Z" />
<glyph unicode="X" glyph-name="X" horiz-adv-x="685" d="M25 0Q1 26 1 64Q42 64 61 75T99 113L267 343L107 574Q85 606 60 620T5 635Q5 673 27 698H322Q346 672 346 635Q315 635 303 628T290 609Q290 601 295 592T306 572L381 451L445 568Q449 575 452 583T455
598Q455 614 441 624T404 635Q404 673 427 698H655Q679 672 679 635Q638 635 619 623T581 585L434 372L597 126Q615 99 640 82T697 64Q697 25 675 0H387Q363 26 363 64Q393 64 405 71T417 91Q417 99 413 108T403 127L324 255L235 127Q226 114 226 101Q226 85 239
75T275 64Q275 25 252 0H25Z" />
<glyph unicode="Y" glyph-name="Y" horiz-adv-x="661" d="M193 0Q171 25 171 64Q204 64 233 75T263 114V246L64 591Q53 611 32 623T-10 635Q-10 672 14 698H284Q307 673 307 635Q247 635 247 596Q247 578 263 546L359 365L469 572Q474 582 474 591Q474 610 456
622T415 635Q415 673 438 698H647Q671 672 671 635Q646 635 633 631T613 616T594 585L420 269V114Q420 86 450 75T516 64Q516 25 494 0H193Z" />
<glyph unicode="Z" glyph-name="Z" horiz-adv-x="616" d="M559 -16Q541 -16 522 -12T484 0H32L7 38L382 621H274Q209 621 181 586T141 477H42Q42 545 51 605T76 698H565L590 661L227 79H377Q411 79 436 104T478 166T505 239H601Q601 227 599 201T592 143T582 78T570
21T559 -16Z" />
<glyph unicode="[" glyph-name="bracketleft" horiz-adv-x="365" d="M70 -154V800H336Q336 780 332 765T320 731H221V-85H320Q328 -102 332 -118T336 -154H70Z" />
<glyph unicode="\" glyph-name="backslash" horiz-adv-x="447" d="M321 -160L45 693L126 724L403 -129L321 -160Z" />
<glyph unicode="]" glyph-name="bracketright" horiz-adv-x="365" d="M29 -154Q29 -134 33 -118T45 -85H144V731H45Q37 749 33 764T29 800H295V-154H29Z" />
<glyph unicode="^" glyph-name="asciicircum" horiz-adv-x="890" d="M270 130Q244 135 216 146T178 179L401 698H488L711 179Q701 158 673 147T619 130L445 559L270 130Z" />
<glyph unicode="_" glyph-name="underscore" horiz-adv-x="500" d="M-7 -182V-71H509V-182H-7Z" />
<glyph unicode="`" glyph-name="grave" horiz-adv-x="339" d="M256 617Q236 617 207 627T147 655T90 694T47 739T30 784Q30 801 40 819T71 851T117 864Q139 823 171 785T240 715T309 663Q306 639 291 628T256 617Z" />
<glyph unicode="a" glyph-name="a" horiz-adv-x="537" d="M190 -7Q115 -7 69 34T22 141Q22 206 64 246T196 286Q225 286 257 281T309 264V397Q309 439 288 455T235 472Q202 472 181 456Q201 449 210 435T219 403Q219 370 196 351T138 331Q100 331 77 353T54 410Q54
444 77 474T148 525T274 545Q475 545 475 386V121Q475 73 521 63V31Q508 12 477 3T417 -7Q349 -7 321 40Q301 22 268 8T190 -7ZM255 74Q269 74 284 78T309 90V187Q299 194 284 199T253 204Q227 204 208 188T189 136Q189 109 207 92T255 74Z" />
<glyph unicode="b" glyph-name="b" horiz-adv-x="569" d="M268 -11Q239 -11 201 -7T127 4T67 24V646Q67 669 53 682T6 695V727Q29 743 61 755T125 776T179 784Q203 784 213 774T223 738V596L220 501Q240 522 268 531T330 540Q385 540 433 512T511 428T541 283Q541
187 504 122T405 23T268 -11ZM271 62Q298 62 320 79T356 138T369 249Q369 359 338 407T261 455Q239 455 223 444V81Q242 62 271 62Z" />
<glyph unicode="c" glyph-name="c" horiz-adv-x="465" d="M276 -15Q203 -15 148 18T61 112T29 260Q29 349 63 412T156 509T289 543Q366 543 406 507T446 417Q446 369 422 343T360 317Q329 317 308 340T287 396Q287 420 295 435T317 460Q307 466 301 467T288 469Q269
469 249 454T216 401T202 295Q202 185 234 141T324 96Q351 96 378 104T425 127Q433 117 438 103T444 77Q444 56 422 35T361 -1T276 -15Z" />
<glyph unicode="d" glyph-name="d" horiz-adv-x="566" d="M235 -13Q181 -13 134 14T57 98T28 239Q28 340 65 407T163 507T293 540Q306 540 322 539T354 536L351 596V646Q351 669 338 682T284 695V736Q309 750 343 761T410 778T463 785Q486 785 496 775T507 739V111Q507
62 555 53L556 25Q542 6 513 -3T454 -13Q428 -13 399 -2T358 34Q337 6 307 -3T235 -13ZM304 72Q335 72 351 90V440Q330 469 295 469Q268 469 246 451T211 390T198 274Q198 171 228 122T304 72Z" />
<glyph unicode="e" glyph-name="e" horiz-adv-x="505" d="M274 -9Q162 -9 96 62T29 260Q29 347 62 410T151 508T280 542Q370 542 424 490T479 342Q479 304 467 276T415 247H199Q202 168 235 135T323 102Q357 102 386 112T440 142Q449 134 454 118T460 90Q460 74
438 51T374 9T274 -9ZM199 323H300Q317 323 321 336T326 368Q326 432 311 452T274 473Q257 473 240 460T212 415T199 323Z" />
<glyph unicode="f" glyph-name="f" horiz-adv-x="360" d="M55 0Q32 23 32 54Q62 54 74 67T87 109V440H26V502Q48 507 61 514T85 529Q81 552 79 571T77 615Q77 719 131 770T275 822Q323 822 355 803T404 755T421 702Q421 665 402 640T349 615Q319 615 296 636T273
686Q273 698 278 713T303 744Q300 749 293 752T279 756Q263 756 249 741T227 700T218 647Q218 617 223 590T237 547T251 530H347Q347 508 344 483T330 440H245V118Q245 96 252 82T280 61T342 54Q342 23 319 0H55Z" />
<glyph unicode="g" glyph-name="g" horiz-adv-x="529" d="M245 164Q212 164 182 171V168Q182 143 201 133T270 119Q397 110 461 73T526 -38Q526 -77 504 -111T444 -170T356 -209T254 -223Q130 -223 74 -179T17 -67Q17 -30 41 0T112 46Q90 62 85 82T79 126Q79 142
92 161T132 190Q85 215 59 259T32 354Q32 405 57 446T131 513T253 538H254Q263 538 281 537T316 533Q385 533 421 534T477 538T514 543Q525 543 530 529T535 501Q535 482 526 469T496 456Q487 456 463 466T417 484Q451 457 468 422T486 356Q486 262 422 213T245
164ZM262 230Q295 230 308 265T322 368Q322 424 307 448T262 472Q229 472 216 438T203 343Q203 288 217 259T262 230ZM168 -41Q168 -83 194 -112T287 -141Q337 -141 357 -117T377 -64Q377 -41 357 -28T302 -7T226 8Q201 12 181 17Q174 4 171 -11T168 -41Z" />
<glyph unicode="h" glyph-name="h" horiz-adv-x="602" d="M473 -6Q424 -6 398 9T372 57V379Q372 411 354 428T307 446Q288 446 267 434T234 400V108Q234 79 246 67T289 54Q289 23 266 0H45Q22 23 22 54Q52 54 64 66T77 108V650Q77 673 64 686T10 699V740Q35 753
68 764T135 781T191 788Q214 788 224 778T234 742V545L232 465Q258 498 299 521T392 544Q534 544 534 396V116Q534 65 582 56L583 27Q547 -6 473 -6Z" />
<glyph unicode="i" glyph-name="i" horiz-adv-x="312" d="M159 613Q116 613 91 638T65 707Q65 749 91 775T161 801Q205 801 230 775T256 707Q256 664 230 639T159 613ZM47 0Q36 11 30 24T24 54Q53 54 67 66T81 109V399Q81 425 69 438T15 451V495Q30 504 61 515T128
535T194 543Q217 543 227 533T237 497V108Q237 78 252 66T296 54Q296 37 290 24T273 0H47Z" />
<glyph unicode="j" glyph-name="j" horiz-adv-x="300" d="M159 613Q116 613 91 638T65 707Q65 749 91 775T161 801Q205 801 230 775T256 707Q256 664 230 639T159 613ZM84 -195Q38 -195 17 -178T-5 -141Q-5 -134 -2 -125T4 -112Q43 -112 65 -89T87 -3V402Q87 425
75 438T21 451V496Q46 509 80 519T147 536T201 543Q225 543 234 533T244 498V-10Q244 -73 222 -114T164 -175T84 -195Z" />
<glyph unicode="k" glyph-name="k" horiz-adv-x="585" d="M493 -10Q438 -10 405 13T352 73T315 146Q299 184 281 215T234 257V104Q234 75 246 63T290 50Q290 34 284 21T266 -3H46Q22 18 22 50Q52 50 64 62T77 104V646Q77 669 64 682T10 696V736Q35 749 68 760T135
778T189 785Q213 785 223 775T234 738V293L344 407Q350 413 356 421T363 437Q363 451 342 463T300 475Q300 511 323 536H548Q560 524 563 508T567 475Q540 475 527 467T502 448L350 298Q387 292 412 274T459 217Q490 162 507 131T540 83T582 58L583 34Q580 13 555
2T493 -10Z" />
<glyph unicode="l" glyph-name="l" horiz-adv-x="319" d="M52 0Q41 12 35 25T29 54Q58 54 71 66T84 109V640Q84 663 71 676T16 690V730Q41 744 74 754T141 771T196 778Q219 778 229 768T240 733V109Q240 78 252 66T295 54Q295 38 289 25T271 0H52Z" />
<glyph unicode="m" glyph-name="m" horiz-adv-x="906" d="M764 -6Q727 -6 701 4T674 46V379Q674 411 657 428T610 446Q594 446 578 440T548 422Q549 418 549 415T549 407V108Q549 79 561 67T599 54Q599 38 593 25T575 0H362Q352 11 346 24T339 54Q365 54 375 66T386
108V379Q386 411 368 428T323 446Q304 446 284 437T250 411V108Q250 79 260 67T296 54Q296 23 272 0H55Q44 11 38 24T31 54Q61 54 74 66T87 108V401Q87 427 73 439T20 451V495Q43 509 78 520T147 537T199 544Q219 544 232 532T250 480Q276 509 315 526T405 544Q505
544 535 477Q561 509 602 526T695 544Q767 544 802 509T838 407V108Q838 85 851 73T887 56V27Q869 11 840 3T764 -6Z" />
<glyph unicode="n" glyph-name="n" horiz-adv-x="611" d="M55 0Q44 11 38 24T31 53Q61 53 74 66T87 108V400Q87 426 73 438T20 450V495Q43 508 78 519T147 536T199 543Q220 543 233 530T249 474Q274 505 312 524T402 543Q472 543 507 508T543 387V114Q543 65 591
56L592 27Q582 17 560 10T513 -2T465 -6Q422 -6 402 10T381 61V373Q381 414 363 430T319 446Q278 446 250 413V108Q250 79 262 66T305 53Q305 23 282 0H55Z" />
<glyph unicode="o" glyph-name="o" horiz-adv-x="552" d="M271 -13Q200 -13 145 17T60 107T29 255Q29 349 61 413T150 510T281 543Q353 543 407 512T492 421T523 271Q523 178 491 115T402 19T271 -13ZM279 59Q300 59 315 74T339 129T348 247Q348 341 339 389T313
455T273 472Q252 472 236 457T212 401T203 282Q203 189 212 141T239 76T279 59Z" />
<glyph unicode="p" glyph-name="p" horiz-adv-x="568" d="M50 -190Q39 -179 33 -166T26 -137Q56 -137 64 -124T73 -82V397Q73 423 59 435T6 447V492Q28 505 58 516T118 533T164 540Q184 540 197 532T217 500Q240 522 271 531T338 540Q391 540 437 513T511 430T540
290Q540 195 504 128T406 25T269 -11Q261 -11 251 -11T230 -9V-82Q230 -111 251 -124T294 -137Q294 -167 271 -190H50ZM268 62Q309 62 338 110T367 266Q367 335 353 375T313 433T258 451Q242 451 230 445V72Q247 62 268 62Z" />
<glyph unicode="q" glyph-name="q" horiz-adv-x="561" d="M430 -218Q393 -218 368 -208T343 -166V24Q324 5 297 -4T238 -13Q183 -13 135 14T58 98T28 239Q28 335 64 402T161 504T296 540Q326 540 356 535T414 520Q425 522 435 523T457 525H520Q532 514 538 498T544
465Q514 465 508 452T502 409V-103Q502 -127 515 -139T551 -157V-184Q533 -200 505 -209T430 -218ZM307 74Q318 74 327 76T343 83V455Q324 468 297 468Q270 468 248 450T213 390T200 273Q200 170 231 122T307 74Z" />
<glyph unicode="r" glyph-name="r" horiz-adv-x="450" d="M50 0Q39 11 33 24T27 54Q56 54 68 66T81 109V398Q81 424 67 435T15 447V492Q39 506 72 516T137 533T187 540Q210 540 220 524T231 455Q242 476 263 496T312 530T368 543Q415 543 435 519T455 457Q455
414 433 387T372 360Q338 360 318 379T298 424Q298 440 301 449Q285 445 270 439T240 418V118Q240 95 247 81T274 61T336 54Q336 37 332 24T317 0H50Z" />
<glyph unicode="s" glyph-name="s" horiz-adv-x="475" d="M231 -10Q195 -10 159 -2T92 21T42 58T23 110Q23 145 43 166T94 188Q122 188 141 170T161 123Q161 110 157 101T145 80Q154 71 177 67T222 63Q257 63 276 76T295 108Q295 138 263 159T190 203Q153 223
117 245T56 302T31 388Q31 454 86 497T242 540Q312 540 354 523T415 479T434 423Q434 392 415 374T367 355Q342 355 323 370T304 411Q304 423 308 437T319 460Q308 469 294 472T259 476Q226 476 209 461T191 423Q191 389 223 367T296 324Q333 305 368 283T428 228T452
143Q452 87 420 54T338 5T231 -10Z" />
<glyph unicode="t" glyph-name="t" horiz-adv-x="377" d="M228 -7Q186 -7 151 8T95 62T73 166V441H10V502Q37 506 61 536T102 610T125 698Q143 701 158 701Q198 701 213 678T229 635V530H345Q345 506 343 483T329 441H231V159Q231 127 244 117T277 106Q297 106
317 116T350 141Q361 132 365 115T369 88Q369 66 354 44T308 8T228 -7Z" />
<glyph unicode="u" glyph-name="u" horiz-adv-x="572" d="M216 -7Q146 -7 107 36T68 152V427Q68 444 55 451T19 458V502Q32 513 73 525T167 538Q206 538 218 529T231 485V149Q231 119 241 103T276 87Q297 87 316 100T349 130V427Q349 444 334 451T293 458V502Q307
513 348 525T445 538Q484 538 498 529T512 485V117Q512 93 524 77T560 59V31Q544 12 510 3T443 -7Q410 -7 386 10T353 61Q304 -7 216 -7Z" />
<glyph unicode="v" glyph-name="v" horiz-adv-x="528" d="M187 -7L29 419Q19 446 8 458T-29 471Q-29 487 -24 503T-8 531H220Q231 520 237 504T243 471Q223 471 210 460T196 426Q196 422 197 416T200 405L241 269L287 94L333 269L372 405Q374 411 375 417T376
429Q376 450 362 460T324 471Q324 487 328 503T343 531H537Q548 520 552 504T557 471Q531 471 519 459T497 419L393 100Q377 45 357 19T291 -7H187Z" />
<glyph unicode="w" glyph-name="w" horiz-adv-x="796" d="M165 -7L29 419Q20 446 9 458T-29 471Q-29 487 -24 503T-8 531H217Q228 520 234 504T240 471Q220 471 207 460T193 426Q193 422 194 416T197 405L223 269L253 128L297 269L326 373Q338 420 352 452T403
485L480 484L532 270L576 132L598 270L631 411Q635 426 635 438Q635 471 595 471Q595 487 599 503T614 531H805Q817 520 821 504T825 471Q797 471 782 462T758 425L669 102Q659 63 648 39T620 4T569 -7H490L396 293L342 100Q329 51 315 26T267 -6V-7H165Z" />
<glyph unicode="x" glyph-name="x" horiz-adv-x="541" d="M15 0Q4 11 -3 26T-10 58Q12 61 35 77T72 112L193 260L78 410Q67 421 57 435T35 460T4 471Q4 488 8 504T25 531H248Q261 521 264 505T268 471Q235 471 235 450Q235 443 238 434T249 414L300 344L342 397Q356
435 356 444Q356 458 346 464T325 471Q325 488 329 504T345 531H518Q531 521 535 505T539 471Q514 471 494 460T452 420L342 288L462 122Q482 94 501 76T543 58Q543 42 539 27T523 0H284Q272 11 268 26T263 58Q283 58 293 66T303 86Q303 102 292 118L235 194L182
123Q171 108 171 94Q171 78 183 68T217 58Q217 42 213 27T197 0H15Z" />
<glyph unicode="y" glyph-name="y" horiz-adv-x="530" d="M190 37L36 411Q24 440 15 455T-25 470Q-25 487 -20 503T-4 531H232Q256 505 256 470Q231 470 221 457T210 424Q210 417 211 409T215 391L308 120L374 404Q377 418 377 428Q377 470 328 470Q328 487 332
503T347 531H540Q551 519 555 503T560 470Q535 470 522 458T499 418L385 63Q341 -79 291 -145T161 -211Q99 -211 68 -185T37 -123Q37 -99 48 -80T78 -53Q105 -85 158 -85Q188 -85 219 -56T272 37H190Z" />
<glyph unicode="z" glyph-name="z" horiz-adv-x="507" d="M36 0L8 38L256 410L304 463H220Q173 463 152 437T131 351H51Q38 387 37 434T34 530H459L489 489L260 131L200 68H266Q317 68 345 84T387 128T411 196H486V161Q486 122 482 79T460 0H36Z" />
<glyph unicode="{" glyph-name="braceleft" horiz-adv-x="490" d="M394 -154Q253 -154 187 -84T120 110V205Q120 246 96 273T44 300V349Q72 349 96 376T120 445V539Q120 662 186 732T394 803H449Q449 770 433 741H397Q345 741 315 711T285 601V478Q285 424 254
387T161 325Q223 300 254 263T285 171V48Q285 -32 315 -61T397 -91H433Q449 -122 449 -154H394Z" />
<glyph unicode="|" glyph-name="bar" horiz-adv-x="112" d="M65 -258Q37 -258 16 -250V714Q28 720 47 720Q61 720 74 718T96 711V-253Q90 -256 82 -257T65 -258Z" />
<glyph unicode="}" glyph-name="braceright" horiz-adv-x="490" d="M41 -154Q41 -122 57 -91H93Q145 -91 175 -62T205 48V171Q205 225 236 262T329 325Q268 349 237 386T205 478V601Q205 681 175 711T93 741H57Q41 770 41 803H96Q237 803 303 733T370 539V445Q370
403 394 376T446 349V300Q418 300 394 273T370 205V110Q370 -13 304 -83T96 -154H41Z" />
<glyph unicode="~" glyph-name="asciitilde" horiz-adv-x="628" d="M405 213Q369 213 344 224T298 250T258 276T216 287Q194 287 170 276T117 235Q107 228 89 237T59 263T51 298Q59 323 84 348T146 391T223 408Q264 408 291 397T339 372T377 346T412 335Q434 335
458 347T511 387Q522 395 539 386T569 359T577 323Q570 299 547 274T488 231T405 213Z" />
<glyph unicode="&#xa0;" glyph-name="uni00A0" horiz-adv-x="190" />
<glyph unicode="&#xa1;" glyph-name="exclamdown" horiz-adv-x="272" d="M136 331Q90 331 63 358T35 429Q35 474 62 501T136 529Q182 529 209 502T237 429Q237 385 210 358T136 331ZM115 -272Q81 -272 63 -256T44 -204Q44 -199 44 -194T45 -183L95 208H177L226
-183Q227 -189 227 -194T228 -204Q228 -240 210 -256T158 -272H115Z" />
<glyph unicode="&#xa2;" glyph-name="cent" horiz-adv-x="495" d="M279 -260Q258 -260 239 -252V-135Q149 -120 95 -50T41 135Q41 249 96 321T239 412V549Q245 552 251 553T265 554Q285 554 304 545V419Q380 419 417 388T455 307Q455 261 431 236T369 211Q335
211 314 232T293 283Q293 303 303 317T326 340Q316 346 309 347T296 348Q277 348 257 332T224 278T210 171Q210 95 225 52T268 -10T335 -28Q391 -28 431 1Q439 -8 444 -22T449 -48Q449 -66 432 -86T383 -121T304 -138V-255Q299 -258 293 -259T279 -260Z" />
<glyph unicode="&#xa3;" glyph-name="sterling" horiz-adv-x="632" d="M60 5Q50 16 41 26T31 54Q95 95 118 147T142 256Q142 274 140 290T135 322H57V390H115Q103 425 93 459T82 532Q82 588 109 632T193 702T337 728Q422 728 474 705T549 646T573 573Q573 533
549 504T482 475Q448 475 424 495T399 550Q399 576 412 594T445 621Q431 640 407 648T356 657Q310 657 284 631T257 548Q257 518 263 475T274 390H412Q412 371 410 354T393 322H280Q280 316 280 310Q280 252 258 198T190 105Q226 120 264 127T337 135H383Q420 135
441 147T474 180T489 224T498 268H546Q564 265 578 250T600 214T608 175Q608 128 585 90T518 29T411 6Q374 6 340 13T272 27T203 34Q166 34 127 25T60 5Z" />
<glyph unicode="&#xa4;" glyph-name="currency" horiz-adv-x="681" d="M116 0Q100 10 83 27T57 57L155 151Q135 179 124 212T112 283Q112 320 123 353T155 415L58 508Q67 525 84 542T114 566L208 468Q236 488 269 499T340 510Q413 510 471 468L565 566Q580 557
596 541T623 508L526 415Q546 387 557 354T568 283Q568 246 557 213T526 152L623 58Q614 43 598 27T565 0L472 98Q444 79 411 68T340 56Q267 56 209 98L116 0ZM340 137Q380 137 413 157T466 210T486 283Q486 323 466 356T413 409T340 429Q300 429 267 409T214 356T194
283Q194 243 214 210T267 157T340 137Z" />
<glyph unicode="&#xa5;" glyph-name="yen" horiz-adv-x="808" d="M282 30Q259 56 259 94Q292 94 314 105T337 144V176H126V245H337V325L317 355H126V424H281L138 620Q126 636 103 650T60 665Q60 702 83 728H383Q407 702 407 665Q340 665 340 620Q340 611 342 599T353
575L443 449L539 601Q542 606 542 612T543 622Q543 640 530 652T493 665Q493 702 516 728H724Q748 702 748 665Q707 665 690 651T663 615L545 424H727Q727 382 700 355H506L495 337V245H727Q727 205 700 176H495V144Q495 116 517 105T574 94Q574 55 551 30H282Z"
/>
<glyph unicode="&#xa6;" glyph-name="brokenbar" horiz-adv-x="112" d="M16 302V715Q28 721 47 721Q61 721 73 719T96 712V302H16ZM65 -257Q37 -257 16 -249V162H96V-252Q90 -255 82 -256T65 -257Z" />
<glyph unicode="&#xa7;" glyph-name="section" horiz-adv-x="625" d="M99 -265Q92 -236 87 -195T78 -112T75 -38H166Q187 -123 224 -158T307 -194Q344 -194 370 -174T397 -115Q397 -82 378 -57T327 -12T263 26Q227 46 190 68T122 118T71 181T52 263Q52 388 189
417Q137 454 108 498T79 601Q79 666 112 707T198 767T313 786Q368 786 398 775T452 751L519 786Q527 764 532 731T540 662T543 592Q543 584 543 576T542 559H452Q433 637 402 676T318 715Q278 715 254 694T229 637Q229 605 249 580T300 534T364 496Q400 477 437
455T505 405T555 342T574 259Q574 195 539 158T433 108Q487 71 517 26T548 -79Q548 -145 514 -186T426 -246T311 -265Q262 -265 228 -255T166 -230L99 -265ZM372 145Q400 155 411 176T422 217Q422 251 400 277T343 325T273 366L255 376Q227 366 216 346T204 304Q204
270 223 245T281 197T372 145Z" />
<glyph unicode="&#xa8;" glyph-name="dieresis" horiz-adv-x="466" d="M355 613Q315 613 295 641T275 708Q275 746 295 773T355 801Q396 801 416 774T436 709Q436 671 416 642T355 613ZM111 613Q71 613 51 641T30 708Q30 746 50 773T111 801Q151 801 171 774T191
709Q191 671 171 642T111 613Z" />
<glyph unicode="&#xa9;" glyph-name="copyright" horiz-adv-x="872" d="M436 3Q357 3 291 30T176 105T101 220T74 365Q74 443 100 509T175 623T290 699T436 726Q516 726 582 699T696 624T771 509T798 365Q798 287 772 221T697 106T582 30T436 3ZM436 67Q525 67
592 106T696 212T734 365Q734 450 697 517T592 624T436 663Q348 663 281 624T177 518T139 365Q139 280 176 213T281 106T436 67ZM449 152Q397 152 355 176T289 248T264 364Q264 436 289 482T355 551T441 574Q461 574 475 570T502 560Q511 564 526 568T551 573Q559
553 562 527T567 474T568 427H517Q512 467 492 486T445 506Q416 506 396 481T375 391Q375 309 408 273T484 236Q510 236 529 246T555 268Q562 261 566 248T570 225Q570 201 539 177T449 152Z" />
<glyph unicode="&#xaa;" glyph-name="ordfeminine" horiz-adv-x="459" d="M167 387Q111 387 76 419T40 499Q40 546 75 577T172 609Q194 609 215 605T251 593V691Q251 720 239 731T205 743Q194 743 184 741T165 731Q193 719 193 691Q193 668 176 654T132 640Q102
640 84 658T66 702Q66 738 105 769T230 800Q383 800 383 682V482Q383 447 418 439L419 415Q408 402 384 395T336 387Q282 387 261 422Q245 407 222 397T167 387ZM216 452Q226 452 235 455T251 464V531Q244 536 235 540T214 544Q198 544 185 533T172 499Q172 477
184 465T216 452Z" />
<glyph unicode="&#xab;" glyph-name="guillemotleft" horiz-adv-x="562" d="M212 107L27 296V357L212 544Q227 538 239 529T260 502L173 326L260 150Q252 134 240 124T212 107ZM483 107L288 296V357L483 544Q498 538 510 529T531 502L436 326L531 150Q523 134
511 124T483 107Z" />
<glyph unicode="&#xac;" glyph-name="logicalnot" horiz-adv-x="608" d="M57 279Q53 288 52 301T50 329Q50 344 52 358T58 381H558V107Q548 103 534 102T504 100Q488 100 475 102T451 107V279H57Z" />
<glyph unicode="&#xad;" glyph-name="uni00AD" horiz-adv-x="0" />
<glyph unicode="&#xae;" glyph-name="registered" horiz-adv-x="872" d="M436 3Q357 3 291 30T176 105T101 220T74 365Q74 443 100 509T175 623T290 699T436 726Q516 726 582 699T696 624T771 509T798 365Q798 287 772 221T697 106T582 30T436 3ZM436 67Q525 67
592 106T696 212T734 365Q734 450 697 517T592 624T436 663Q348 663 281 624T177 518T139 365Q139 280 176 213T281 106T436 67ZM278 177Q266 194 266 220Q300 220 300 247V482Q300 509 266 509Q266 522 269 533T278 552Q301 554 332 556T400 559Q474 559 514 547T571
510T587 453Q587 418 571 390T511 346Q521 339 531 328T553 299Q569 277 580 261T604 232T640 211V192Q620 169 579 169Q536 169 512 188T474 234T447 288T413 331H406V247Q406 232 417 226T447 220Q447 195 434 177H278ZM417 385Q477 385 477 446Q477 471 465
486T413 501H406V387Q410 385 417 385Z" />
<glyph unicode="&#xaf;" glyph-name="overscore" horiz-adv-x="386" d="M36 617Q33 625 32 639T30 666Q30 680 31 695T37 717H350Q353 709 354 694T356 666Q356 653 355 639T351 617H36Z" />
<glyph unicode="&#xb0;" glyph-name="degree" horiz-adv-x="412" d="M205 503Q126 503 82 548T37 662Q37 733 83 777T206 822Q286 822 330 776T375 662Q375 592 329 548T205 503ZM206 556Q225 556 240 577T255 662Q255 724 241 746T206 769Q187 769 171 748T155
662Q155 600 171 578T206 556Z" />
<glyph unicode="&#xb1;" glyph-name="plusminus" horiz-adv-x="629" d="M58 0Q54 11 52 26T50 55Q50 73 52 89T60 114H571Q576 104 577 88T579 55Q579 39 578 24T571 0H58ZM58 307Q54 318 52 333T50 362Q50 380 52 396T60 421H257V620Q268 625 283 627T315 629Q332
629 347 627T371 620V421H571Q576 411 577 395T579 362Q579 346 578 331T571 307H371V108Q361 104 346 102T316 100Q300 100 284 102T257 109V307H58Z" />
<glyph unicode="&#xb2;" glyph-name="uni00B2" horiz-adv-x="427" d="M136 549Q114 549 93 547T53 538L30 552Q41 604 75 642T148 712Q187 744 216 773T246 848Q246 883 227 903T178 923Q159 923 142 915T116 889Q133 884 141 871T150 844Q150 824 134 811T94
798Q68 798 50 813T32 854Q32 902 77 933T200 965Q247 965 285 951T347 909T370 841Q370 801 348 774T291 727T219 685Q189 668 160 650T112 610Q159 626 207 626H254Q287 626 313 639T346 676H361Q372 669 379 654T387 620Q387 602 378 584T345 552T275 539Q258
539 243 540T213 544Q180 549 136 549Z" />
<glyph unicode="&#xb3;" glyph-name="uni00B3" horiz-adv-x="418" d="M187 533Q119 533 75 556T30 621Q30 647 44 658T81 670Q103 670 116 659T129 633Q129 626 126 618T112 602Q132 584 175 584Q213 584 236 603T259 653Q259 683 237 704T172 726H154L141 763Q182
774 201 788T227 820T233 855Q233 885 217 904T172 923Q156 923 142 916T119 897Q127 894 134 885T141 865Q141 852 129 840T93 828Q68 828 55 841T42 876Q42 903 62 923T117 954T193 965Q261 965 305 938T349 867Q349 830 328 806T263 764Q317 756 347 728T378
656Q378 620 354 593T286 549T187 533Z" />
<glyph unicode="&#xb4;" glyph-name="acute" horiz-adv-x="339" d="M83 617Q64 617 49 628T30 663Q62 684 98 715T167 784T222 864Q249 864 268 851T298 820T309 784Q309 757 284 728T222 674T147 633T83 617Z" />
<glyph unicode="&#xb5;" glyph-name="uni00B5" horiz-adv-x="959" d="M191 -396L194 -4V391Q194 416 222 428T285 441Q320 441 348 428T377 389V-17Q377 -51 396 -69T441 -87Q466 -87 488 -73T525 -38V391Q525 416 553 428T616 441Q651 441 680 428T709 389V-48Q709
-88 737 -88Q749 -88 763 -81L793 -117Q760 -163 725 -178T658 -193Q616 -193 580 -173T531 -115Q502 -155 465 -174T391 -193Q364 -193 344 -185T307 -163L325 -315Q325 -319 325 -322T326 -328Q326 -359 307 -377T253 -396H191Z" />
<glyph unicode="&#xb6;" glyph-name="paragraph" horiz-adv-x="790" d="M203 38Q191 50 186 67T180 102Q225 102 249 109T281 137T290 197V392Q278 387 260 385T230 383Q176 383 140 411T86 490T68 604Q68 645 75 684T107 755T179 806T310 825Q331 825 361 822T426
816T488 813H703Q714 801 720 784T726 750Q693 750 679 738T664 699V152Q664 124 678 113T726 102Q726 63 703 38H527V690Q527 718 520 729T480 741Q446 741 437 730T427 690V38H203Z" />
<glyph unicode="&#xb7;" glyph-name="middot" horiz-adv-x="255" d="M128 233Q82 233 54 260T26 332Q26 377 54 404T128 431Q173 431 201 404T229 332Q229 288 201 261T128 233Z" />
<glyph unicode="&#xb8;" glyph-name="cedilla" horiz-adv-x="362" d="M169 -300Q118 -300 82 -287T30 -258Q30 -243 37 -229T54 -206Q102 -240 152 -240Q181 -240 194 -222T207 -191Q207 -178 196 -162T159 -145Q152 -145 144 -146T121 -151L84 -130L135 12H218L174
-92Q198 -84 229 -84Q263 -84 286 -98T320 -133T332 -177Q332 -206 314 -234T259 -281T169 -300Z" />
<glyph unicode="&#xb9;" glyph-name="uni00B9" horiz-adv-x="350" d="M63 546Q55 551 51 570T46 597Q85 597 110 606T136 647V847Q136 855 128 871T102 887Q92 887 79 885T55 879L38 929L89 942Q104 946 127 951T172 961T199 966Q222 966 230 955T238 933V647Q238
616 262 607T320 597Q320 590 317 571T305 546H63Z" />
<glyph unicode="&#xba;" glyph-name="ordmasculine" horiz-adv-x="447" d="M220 384Q140 384 90 436T40 582Q40 649 63 697T129 773T227 800Q307 800 357 750T407 606Q407 540 384 490T318 412T220 384ZM226 439Q249 439 260 473T272 589Q272 654 266 687T249
733T221 746Q199 746 187 713T175 600Q175 536 181 501T198 453T226 439Z" />
<glyph unicode="&#xbb;" glyph-name="guillemotright" horiz-adv-x="564" d="M352 106Q337 113 325 123T304 149L391 325L304 501Q312 518 324 527T352 543L537 356V295L352 106ZM79 106Q64 113 52 123T31 149L126 325L31 501Q39 518 51 527T79 543L274 356V295L79 106Z" />
<glyph unicode="&#xbc;" glyph-name="onequarter" horiz-adv-x="887" d="M63 384Q55 389 51 408T46 435Q85 435 110 444T136 485V685Q136 693 128 709T102 725Q92 725 79 723T55 717L38 767L89 780Q104 784 127 789T172 799T199 804Q222 804 230 793T238 771V485Q238
454 262 445T320 435Q320 428 317 409T305 384H63ZM150 -11L583 731H649L215 -10L150 -11ZM598 0Q591 6 588 16T584 34Q616 34 637 41T658 68V112H465L449 141L648 413H770V162Q827 162 844 206H860Q872 203 879 193T887 170Q887 146 862 130T770 112V68Q770 49
788 42T842 34Q842 27 838 17T825 0H598ZM534 162H658V346L534 162Z" />
<glyph unicode="&#xbd;" glyph-name="onehalf" horiz-adv-x="876" d="M63 384Q55 389 51 408T46 435Q85 435 110 444T136 485V685Q136 693 128 709T102 725Q92 725 79 723T55 717L38 767L89 780Q104 784 127 789T172 799T199 804Q222 804 230 793T238 771V485Q238
454 262 445T320 435Q320 428 317 409T305 384H63ZM150 -11L583 731H649L215 -10L150 -11ZM585 5Q563 5 542 3T502 -6L479 8Q490 60 524 98T597 168Q636 200 665 229T695 304Q695 339 676 359T627 379Q608 379 591 371T565 345Q582 340 590 327T599 300Q599 280
583 267T543 254Q517 254 499 269T481 310Q481 358 526 389T649 421Q696 421 734 407T796 365T819 297Q819 257 797 230T740 183T668 141Q638 124 609 106T561 66Q608 82 656 82H703Q736 82 762 95T795 132H810Q821 125 828 110T836 76Q836 58 827 40T794 8T724
-5Q707 -5 692 -4T662 0Q629 5 585 5Z" />
<glyph unicode="&#xbe;" glyph-name="threequarters" horiz-adv-x="955" d="M187 373Q119 373 75 396T30 461Q30 487 44 498T81 510Q103 510 116 499T129 473Q129 466 126 458T112 442Q132 424 175 424Q213 424 236 443T259 493Q259 523 237 544T172 566H154L141
603Q182 614 201 628T227 660T233 695Q233 725 217 744T172 763Q156 763 142 756T119 737Q127 734 134 725T141 705Q141 692 129 680T93 668Q68 668 55 681T42 716Q42 743 62 763T117 794T193 805Q261 805 305 778T349 707Q349 670 328 646T263 604Q317 596 347
568T378 496Q378 460 354 433T286 389T187 373ZM218 -11L651 731H717L283 -10L218 -11ZM666 0Q659 6 656 16T652 34Q684 34 705 41T726 68V112H533L517 141L716 413H838V162Q895 162 912 206H928Q940 203 947 193T955 170Q955 146 930 130T838 112V68Q838 49 856
42T910 34Q910 27 906 17T893 0H666ZM602 162H726V346L602 162Z" />
<glyph unicode="&#xbf;" glyph-name="questiondown" horiz-adv-x="532" d="M248 331Q202 331 175 358T147 430Q147 475 174 502T248 529Q293 529 321 502T349 430Q349 385 321 358T248 331ZM258 -272Q186 -272 133 -249T50 -185T20 -91Q20 -36 50 8T130 85T241
141L223 245H318L345 118Q283 80 241 29T199 -92Q199 -147 225 -171T290 -195Q320 -195 346 -182T388 -143Q363 -135 342 -114T320 -61Q320 -24 347 -1T409 22Q433 22 456 10T496 -26T512 -87Q512 -135 481 -177T394 -246T258 -272Z" />
<glyph unicode="&#xc0;" glyph-name="Agrave" horiz-adv-x="677" d="M3 0Q-20 25 -20 64Q7 64 30 80T65 129L229 613Q189 626 128 626Q128 669 152 698H426L612 132Q623 99 647 82T697 64Q697 25 674 0H403Q380 25 380 64Q406 64 421 75T437 112Q437 121 436 133T430
159L424 180H200L194 159Q190 146 188 135T185 115Q185 88 202 76T249 64Q249 25 226 0H3ZM222 258H402L331 506Q322 536 308 557L222 258ZM417 751Q397 751 368 761T308 789T251 828T208 873T191 918Q191 935 201 953T232 985T278 998Q300 957 332 919T401 849T470
797Q467 773 452 762T417 751Z" />
<glyph unicode="&#xc1;" glyph-name="Aacute" horiz-adv-x="677" d="M3 0Q-20 25 -20 64Q7 64 30 80T65 129L229 613Q189 626 128 626Q128 669 152 698H426L612 132Q623 99 647 82T697 64Q697 25 674 0H403Q380 25 380 64Q406 64 421 75T437 112Q437 121 436 133T430
159L424 180H200L194 159Q190 146 188 135T185 115Q185 88 202 76T249 64Q249 25 226 0H3ZM222 258H402L331 506Q322 536 308 557L222 258ZM299 737Q280 737 265 748T246 783Q278 804 314 835T383 904T438 984Q465 984 484 971T514 940T525 904Q525 877 500 848T438
794T363 753T299 737Z" />
<glyph unicode="&#xc2;" glyph-name="Acircumflex" horiz-adv-x="677" d="M3 0Q-20 25 -20 64Q7 64 30 80T65 129L229 613Q189 626 128 626Q128 669 152 698H426L612 132Q623 99 647 82T697 64Q697 25 674 0H403Q380 25 380 64Q406 64 421 75T437 112Q437 121
436 133T430 159L424 180H200L194 159Q190 146 188 135T185 115Q185 88 202 76T249 64Q249 25 226 0H3ZM222 258H402L331 506Q322 536 308 557L222 258ZM198 752Q179 759 164 773T144 803L292 967H368L517 803Q511 787 496 773T462 752L330 851L198 752Z" />
<glyph unicode="&#xc3;" glyph-name="Atilde" horiz-adv-x="677" d="M3 0Q-20 25 -20 64Q7 64 30 80T65 129L229 613Q189 626 128 626Q128 669 152 698H426L612 132Q623 99 647 82T697 64Q697 25 674 0H403Q380 25 380 64Q406 64 421 75T437 112Q437 121 436 133T430
159L424 180H200L194 159Q190 146 188 135T185 115Q185 88 202 76T249 64Q249 25 226 0H3ZM222 258H402L331 506Q322 536 308 557L222 258ZM395 747Q368 747 350 756T319 779T293 801T262 811Q246 811 230 804T191 772Q183 766 170 774T146 797T140 827Q146 849
164 869T209 903T268 917Q299 917 318 908T351 885T375 863T401 853Q418 853 433 859T471 891Q479 898 493 890T516 866T522 836Q514 804 481 776T395 747Z" />
<glyph unicode="&#xc4;" glyph-name="Adieresis" horiz-adv-x="677" d="M3 0Q-20 25 -20 64Q7 64 30 80T65 129L229 613Q189 626 128 626Q128 669 152 698H426L612 132Q623 99 647 82T697 64Q697 25 674 0H403Q380 25 380 64Q406 64 421 75T437 112Q437 121 436
133T430 159L424 180H200L194 159Q190 146 188 135T185 115Q185 88 202 76T249 64Q249 25 226 0H3ZM222 258H402L331 506Q322 536 308 557L222 258ZM453 751Q415 751 394 779T373 846Q373 884 394 911T453 939Q492 939 513 912T534 846Q534 808 513 780T453 751ZM209
751Q170 751 149 779T128 846Q128 884 149 911T209 939Q247 939 268 912T289 846Q289 808 268 780T209 751Z" />
<glyph unicode="&#xc5;" glyph-name="Aring" horiz-adv-x="677" d="M3 0Q-20 25 -20 64Q7 64 30 80T65 129L229 613Q189 626 128 626Q128 669 152 698H426L612 132Q623 99 647 82T697 64Q697 25 674 0H403Q380 25 380 64Q406 64 421 75T437 112Q437 121 436 133T430
159L424 180H200L194 159Q190 146 188 135T185 115Q185 88 202 76T249 64Q249 25 226 0H3ZM222 258H402L331 506Q322 536 308 557L222 258ZM330 751Q266 751 228 789T189 889Q189 951 227 989T330 1028Q395 1028 433 990T472 889Q472 827 434 789T330 751ZM330
833Q356 833 371 848T386 888Q386 914 371 929T330 944Q305 944 290 929T275 888Q275 864 290 849T330 833Z" />
<glyph unicode="&#xc6;" glyph-name="AE" horiz-adv-x="900" d="M839 -16Q833 -14 824 -11T797 0H341Q318 28 318 63Q351 63 365 75T379 115V164H176L174 159Q160 128 160 109Q160 86 177 75T222 64Q222 26 199 0H-33Q-55 27 -55 64Q-29 64 -6 81T32 128L252 570Q248
597 218 613T140 629Q121 629 101 626Q101 670 123 698H723Q741 706 763 710T804 715Q813 699 824 669T845 608T854 561Q846 553 829 545T793 531T763 522Q752 555 725 584T657 613H544V402H616Q644 402 662 418T681 475Q726 475 762 454V268Q728 247 682 247Q682
287 664 305T617 323H544V88H665Q709 88 739 124T777 211H884Q884 196 880 165T869 97T854 29T839 -16ZM213 242H379V616L213 242Z" />
<glyph unicode="&#xc7;" glyph-name="Ccedilla" horiz-adv-x="574" d="M344 -14Q259 -14 186 26T69 147T25 352Q25 470 64 549T174 668T338 709Q360 709 388 703T437 687Q447 692 464 696T498 705T526 709Q539 677 545 634T553 548T555 475H442Q434 540 407 581T335
622Q277 622 240 567T202 387Q202 284 230 223T304 135T403 108Q449 108 481 125T526 162Q539 153 546 135T554 102Q554 79 530 52T459 5T344 -14ZM345 -300Q294 -300 258 -287T206 -258Q206 -243 213 -229T230 -206Q278 -240 328 -240Q357 -240 370 -222T383 -191Q383
-178 372 -162T335 -145Q328 -145 320 -146T297 -151L260 -130L291 12H374L350 -92Q374 -84 405 -84Q439 -84 462 -98T496 -133T508 -177Q508 -206 490 -234T435 -281T345 -300Z" />
<glyph unicode="&#xc8;" glyph-name="Egrave" horiz-adv-x="615" d="M554 -16Q548 -14 539 -11T512 0H49Q39 13 33 29T26 63Q59 63 75 75T92 115V584Q92 612 76 623T27 635Q27 652 33 668T50 698H438Q456 706 478 710T519 715Q528 699 539 669T560 608T569 561Q561
553 544 545T508 531T478 522Q467 555 440 584T372 613H259V402H331Q359 402 377 418T396 475Q441 475 477 454V268Q443 247 397 247Q397 287 379 305T332 323H259V88H380Q424 88 454 124T492 211H599Q599 196 595 165T584 97T569 29T554 -16ZM394 751Q374 751
345 761T285 789T228 828T185 873T168 918Q168 935 178 953T209 985T255 998Q277 957 309 919T378 849T447 797Q444 773 429 762T394 751Z" />
<glyph unicode="&#xc9;" glyph-name="Eacute" horiz-adv-x="615" d="M554 -16Q548 -14 539 -11T512 0H49Q39 13 33 29T26 63Q59 63 75 75T92 115V584Q92 612 76 623T27 635Q27 652 33 668T50 698H438Q456 706 478 710T519 715Q528 699 539 669T560 608T569 561Q561
553 544 545T508 531T478 522Q467 555 440 584T372 613H259V402H331Q359 402 377 418T396 475Q441 475 477 454V268Q443 247 397 247Q397 287 379 305T332 323H259V88H380Q424 88 454 124T492 211H599Q599 196 595 165T584 97T569 29T554 -16ZM276 737Q257 737
242 748T223 783Q255 804 291 835T360 904T415 984Q442 984 461 971T491 940T502 904Q502 877 477 848T415 794T340 753T276 737Z" />
<glyph unicode="&#xca;" glyph-name="Ecircumflex" horiz-adv-x="615" d="M554 -16Q548 -14 539 -11T512 0H49Q39 13 33 29T26 63Q59 63 75 75T92 115V584Q92 612 76 623T27 635Q27 652 33 668T50 698H438Q456 706 478 710T519 715Q528 699 539 669T560 608T569
561Q561 553 544 545T508 531T478 522Q467 555 440 584T372 613H259V402H331Q359 402 377 418T396 475Q441 475 477 454V268Q443 247 397 247Q397 287 379 305T332 323H259V88H380Q424 88 454 124T492 211H599Q599 196 595 165T584 97T569 29T554 -16ZM175 752Q156
759 141 773T121 803L269 967H345L494 803Q488 787 473 773T439 752L307 851L175 752Z" />
<glyph unicode="&#xcb;" glyph-name="Edieresis" horiz-adv-x="615" d="M554 -16Q548 -14 539 -11T512 0H49Q39 13 33 29T26 63Q59 63 75 75T92 115V584Q92 612 76 623T27 635Q27 652 33 668T50 698H438Q456 706 478 710T519 715Q528 699 539 669T560 608T569
561Q561 553 544 545T508 531T478 522Q467 555 440 584T372 613H259V402H331Q359 402 377 418T396 475Q441 475 477 454V268Q443 247 397 247Q397 287 379 305T332 323H259V88H380Q424 88 454 124T492 211H599Q599 196 595 165T584 97T569 29T554 -16ZM430 751Q392
751 371 779T350 846Q350 884 371 911T430 939Q469 939 490 912T511 846Q511 808 490 780T430 751ZM186 751Q147 751 126 779T105 846Q105 884 126 911T186 939Q224 939 245 912T266 846Q266 808 245 780T186 751Z" />
<glyph unicode="&#xcc;" glyph-name="Igrave" horiz-adv-x="345" d="M51 0Q29 25 29 64Q62 64 75 75T89 114V584Q89 612 76 623T29 635Q29 673 51 698H294Q304 686 310 669T316 635Q283 635 270 624T256 584V114Q256 86 269 75T316 64Q316 46 310 29T294 0H51ZM515
751Q495 751 466 761T406 789T349 828T306 873T289 918Q289 935 299 953T330 985T376 998Q398 957 430 919T499 849T568 797Q565 773 550 762T515 751Z" />
<glyph unicode="&#xcd;" glyph-name="Iacute" horiz-adv-x="345" d="M51 0Q29 25 29 64Q62 64 75 75T89 114V584Q89 612 76 623T29 635Q29 673 51 698H294Q304 686 310 669T316 635Q283 635 270 624T256 584V114Q256 86 269 75T316 64Q316 46 310 29T294 0H51ZM141
737Q122 737 107 748T88 783Q120 804 156 835T225 904T280 984Q307 984 326 971T356 940T367 904Q367 877 342 848T280 794T205 753T141 737Z" />
<glyph unicode="&#xce;" glyph-name="Icircumflex" horiz-adv-x="345" d="M51 0Q29 25 29 64Q62 64 75 75T89 114V584Q89 612 76 623T29 635Q29 673 51 698H294Q304 686 310 669T316 635Q283 635 270 624T256 584V114Q256 86 269 75T316 64Q316 46 310 29T294
0H51ZM296 752Q277 759 262 773T242 803L390 967H466L615 803Q609 787 594 773T560 752L428 851L296 752Z" />
<glyph unicode="&#xcf;" glyph-name="Idieresis" horiz-adv-x="345" d="M51 0Q29 25 29 64Q62 64 75 75T89 114V584Q89 612 76 623T29 635Q29 673 51 698H294Q304 686 310 669T316 635Q283 635 270 624T256 584V114Q256 86 269 75T316 64Q316 46 310 29T294 0H51ZM551
751Q513 751 492 779T471 846Q471 884 492 911T551 939Q590 939 611 912T632 846Q632 808 611 780T551 751ZM307 751Q268 751 247 779T226 846Q226 884 247 911T307 939Q345 939 366 912T387 846Q387 808 366 780T307 751Z" />
<glyph unicode="&#xd0;" glyph-name="Eth" horiz-adv-x="668" d="M292 -11Q269 -11 240 -8T166 -3T48 0Q26 28 26 64Q59 64 73 75T88 115V333H39V411H88V585Q88 612 74 623T26 635Q26 673 48 698Q147 698 215 704T306 710Q393 710 456 683T560 608T621 498T641
364Q641 287 621 219T559 100T450 19T292 -11ZM284 72Q339 72 379 99T441 187T463 349Q463 495 412 562T276 630Q269 630 263 630T252 628V411H360Q360 392 359 370T344 333H252V74Q260 73 268 73T284 72Z" />
<glyph unicode="&#xd1;" glyph-name="Ntilde" horiz-adv-x="724" d="M606 -6Q554 -6 532 8T490 50L210 475V114Q210 86 229 75T283 63Q283 28 260 0H52Q30 27 30 63Q64 63 81 74T99 114V584Q99 612 80 623T26 635Q26 673 48 698H187Q216 698 245 676T300 613L527
254V584Q527 612 509 623T456 635Q456 652 462 669T479 698H692Q715 672 715 635Q682 635 664 624T646 584V-6H606ZM426 747Q399 747 381 756T350 779T324 801T293 811Q277 811 261 804T222 772Q214 766 201 774T177 797T171 827Q177 849 195 869T240 903T299 917Q330
917 349 908T382 885T406 863T432 853Q449 853 464 859T502 891Q510 898 524 890T547 866T553 836Q545 804 512 776T426 747Z" />
<glyph unicode="&#xd2;" glyph-name="Ograve" horiz-adv-x="669" d="M334 -13Q237 -13 168 32T62 158T25 348Q25 463 63 543T170 667T333 710Q430 710 499 665T606 539T644 348Q644 234 606 154T498 30T334 -13ZM334 60Q357 60 379 72T419 115T447 203T458 352Q458
465 442 526T399 612T336 636Q313 636 291 624T251 581T223 493T212 345Q212 232 228 170T272 84T334 60ZM421 761Q401 761 372 771T312 799T255 838T212 883T195 928Q195 945 205 963T236 995T282 1008Q304 967 336 929T405 859T474 807Q471 783 456 772T421 761Z"
/>
<glyph unicode="&#xd3;" glyph-name="Oacute" horiz-adv-x="669" d="M334 -13Q237 -13 168 32T62 158T25 348Q25 463 63 543T170 667T333 710Q430 710 499 665T606 539T644 348Q644 234 606 154T498 30T334 -13ZM334 60Q357 60 379 72T419 115T447 203T458 352Q458
465 442 526T399 612T336 636Q313 636 291 624T251 581T223 493T212 345Q212 232 228 170T272 84T334 60ZM303 747Q284 747 269 758T250 793Q282 814 318 845T387 914T442 994Q469 994 488 981T518 950T529 914Q529 887 504 858T442 804T367 763T303 747Z" />
<glyph unicode="&#xd4;" glyph-name="Ocircumflex" horiz-adv-x="669" d="M334 -13Q237 -13 168 32T62 158T25 348Q25 463 63 543T170 667T333 710Q430 710 499 665T606 539T644 348Q644 234 606 154T498 30T334 -13ZM334 60Q357 60 379 72T419 115T447 203T458
352Q458 465 442 526T399 612T336 636Q313 636 291 624T251 581T223 493T212 345Q212 232 228 170T272 84T334 60ZM202 762Q183 769 168 783T148 813L296 977H372L521 813Q515 797 500 783T466 762L334 861L202 762Z" />
<glyph unicode="&#xd5;" glyph-name="Otilde" horiz-adv-x="669" d="M334 -13Q237 -13 168 32T62 158T25 348Q25 463 63 543T170 667T333 710Q430 710 499 665T606 539T644 348Q644 234 606 154T498 30T334 -13ZM334 60Q357 60 379 72T419 115T447 203T458 352Q458
465 442 526T399 612T336 636Q313 636 291 624T251 581T223 493T212 345Q212 232 228 170T272 84T334 60ZM399 757Q372 757 354 766T323 789T297 811T266 821Q250 821 234 814T195 782Q187 776 174 784T150 807T144 837Q150 859 168 879T213 913T272 927Q303 927
322 918T355 895T379 873T405 863Q422 863 437 869T475 901Q483 908 497 900T520 876T526 846Q518 814 485 786T399 757Z" />
<glyph unicode="&#xd6;" glyph-name="Odieresis" horiz-adv-x="669" d="M334 -13Q237 -13 168 32T62 158T25 348Q25 463 63 543T170 667T333 710Q430 710 499 665T606 539T644 348Q644 234 606 154T498 30T334 -13ZM334 60Q357 60 379 72T419 115T447 203T458
352Q458 465 442 526T399 612T336 636Q313 636 291 624T251 581T223 493T212 345Q212 232 228 170T272 84T334 60ZM457 761Q419 761 398 789T377 856Q377 894 398 921T457 949Q496 949 517 922T538 856Q538 818 517 790T457 761ZM213 761Q174 761 153 789T132 856Q132
894 153 921T213 949Q251 949 272 922T293 856Q293 818 272 790T213 761Z" />
<glyph unicode="&#xd7;" glyph-name="multiply" horiz-adv-x="579" d="M135 88Q120 95 102 110T70 143T50 173L205 329L50 483Q57 499 72 516T104 548T135 568L289 413L444 568Q460 562 477 547T509 514T529 483L374 327L527 173Q521 159 506 142T474 110T444
91L290 244L135 88Z" />
<glyph unicode="&#xd8;" glyph-name="Oslash" horiz-adv-x="669" d="M84 -26Q68 -24 52 -11Q46 -6 43 -1T38 10L101 93Q25 190 25 348Q25 463 63 543T171 667T333 710Q391 710 439 694T525 647L585 726Q591 725 598 722T612 714Q620 708 625 702T633 689L567 604Q644
507 644 348Q644 234 606 154T498 30T334 -13Q276 -13 228 3T143 51L84 -26ZM212 345Q212 280 218 231L437 545Q420 597 394 616T336 636Q313 636 291 624T251 581T223 493T212 345ZM334 60Q357 60 379 72T419 115T447 203T458 352Q458 420 452 470L232 155Q249
101 275 81T334 60Z" />
<glyph unicode="&#xd9;" glyph-name="Ugrave" horiz-adv-x="671" d="M340 -13Q212 -13 137 57T62 263V585Q62 612 48 623T0 635Q0 673 23 698H273Q296 673 296 635Q262 635 248 624T234 585V242Q234 175 263 129T358 83Q403 83 429 102T466 154T478 226V585Q478
612 462 623T407 635Q407 653 412 669T429 698H649Q671 673 671 635Q633 635 617 624T600 585V273Q600 135 536 61T340 -13ZM432 751Q412 751 383 761T323 789T266 828T223 873T206 918Q206 935 216 953T247 985T293 998Q315 957 347 919T416 849T485 797Q482 773
467 762T432 751Z" />
<glyph unicode="&#xda;" glyph-name="Uacute" horiz-adv-x="671" d="M340 -13Q212 -13 137 57T62 263V585Q62 612 48 623T0 635Q0 673 23 698H273Q296 673 296 635Q262 635 248 624T234 585V242Q234 175 263 129T358 83Q403 83 429 102T466 154T478 226V585Q478
612 462 623T407 635Q407 653 412 669T429 698H649Q671 673 671 635Q633 635 617 624T600 585V273Q600 135 536 61T340 -13ZM314 737Q295 737 280 748T261 783Q293 804 329 835T398 904T453 984Q480 984 499 971T529 940T540 904Q540 877 515 848T453 794T378 753T314
737Z" />
<glyph unicode="&#xdb;" glyph-name="Ucircumflex" horiz-adv-x="671" d="M340 -13Q212 -13 137 57T62 263V585Q62 612 48 623T0 635Q0 673 23 698H273Q296 673 296 635Q262 635 248 624T234 585V242Q234 175 263 129T358 83Q403 83 429 102T466 154T478 226V585Q478
612 462 623T407 635Q407 653 412 669T429 698H649Q671 673 671 635Q633 635 617 624T600 585V273Q600 135 536 61T340 -13ZM213 752Q194 759 179 773T159 803L307 967H383L532 803Q526 787 511 773T477 752L345 851L213 752Z" />
<glyph unicode="&#xdc;" glyph-name="Udieresis" horiz-adv-x="671" d="M340 -13Q212 -13 137 57T62 263V585Q62 612 48 623T0 635Q0 673 23 698H273Q296 673 296 635Q262 635 248 624T234 585V242Q234 175 263 129T358 83Q403 83 429 102T466 154T478 226V585Q478
612 462 623T407 635Q407 653 412 669T429 698H649Q671 673 671 635Q633 635 617 624T600 585V273Q600 135 536 61T340 -13ZM468 751Q430 751 409 779T388 846Q388 884 409 911T468 939Q507 939 528 912T549 846Q549 808 528 780T468 751ZM224 751Q185 751 164
779T143 846Q143 884 164 911T224 939Q262 939 283 912T304 846Q304 808 283 780T224 751Z" />
<glyph unicode="&#xdd;" glyph-name="Yacute" horiz-adv-x="661" d="M193 0Q171 25 171 64Q204 64 233 75T263 114V246L64 591Q53 611 32 623T-10 635Q-10 672 14 698H284Q307 673 307 635Q247 635 247 596Q247 578 263 546L359 365L469 572Q474 582 474 591Q474
610 456 622T415 635Q415 673 438 698H647Q671 672 671 635Q646 635 633 631T613 616T594 585L420 269V114Q420 86 450 75T516 64Q516 25 494 0H193ZM319 737Q300 737 285 748T266 783Q298 804 334 835T403 904T458 984Q485 984 504 971T534 940T545 904Q545 877
520 848T458 794T383 753T319 737Z" />
<glyph unicode="&#xde;" glyph-name="Thorn" horiz-adv-x="609" d="M48 0Q26 25 26 64Q59 64 72 75T86 114V584Q86 612 73 623T26 635Q26 673 48 698H283Q293 686 299 669T305 635Q272 635 259 624T245 584V569Q283 572 314 572Q456 572 527 512T599 356Q599 287
565 239T472 164T338 138Q319 138 292 140T245 147V114Q245 86 258 75T305 64Q305 46 299 29T283 0H48ZM295 218Q354 218 389 254T425 356Q425 424 387 456T282 488Q273 488 263 488T245 486V223Q257 220 271 219T295 218Z" />
<glyph unicode="&#xdf;" glyph-name="germandbls" horiz-adv-x="657" d="M447 -15Q368 -15 328 21T288 103Q288 135 307 158T358 181Q382 181 398 164T414 119Q414 92 397 73Q405 65 416 60T444 54Q494 54 494 103Q494 147 472 178T421 237Q399 260 378 285T342
345T328 426Q328 468 343 495T377 549Q389 566 398 590T407 645Q407 674 389 692T338 711Q319 711 297 700T259 663T243 592V-5H50Q26 18 26 53Q55 53 68 65T81 108V434H20V496Q44 503 61 512T93 532Q102 614 138 669T231 753T355 782Q442 782 493 748T545 636Q545
605 535 580T511 535Q501 519 494 504T486 469Q486 426 506 398T551 344Q572 323 592 298T626 237T639 151Q639 89 611 53T539 1T447 -15Z" />
<glyph unicode="&#xe0;" glyph-name="agrave" horiz-adv-x="537" d="M190 -7Q115 -7 69 34T22 141Q22 206 64 246T196 286Q225 286 257 281T309 264V397Q309 439 288 455T235 472Q202 472 181 456Q201 449 210 435T219 403Q219 370 196 351T138 331Q100 331 77
353T54 410Q54 444 77 474T148 525T274 545Q475 545 475 386V121Q475 73 521 63V31Q508 12 477 3T417 -7Q349 -7 321 40Q301 22 268 8T190 -7ZM255 74Q269 74 284 78T309 90V187Q299 194 284 199T253 204Q227 204 208 188T189 136Q189 109 207 92T255 74ZM361 617Q341
617 312 627T252 655T195 694T152 739T135 784Q135 801 145 819T176 851T222 864Q244 823 276 785T345 715T414 663Q411 639 396 628T361 617Z" />
<glyph unicode="&#xe1;" glyph-name="aacute" horiz-adv-x="537" d="M190 -7Q115 -7 69 34T22 141Q22 206 64 246T196 286Q225 286 257 281T309 264V397Q309 439 288 455T235 472Q202 472 181 456Q201 449 210 435T219 403Q219 370 196 351T138 331Q100 331 77
353T54 410Q54 444 77 474T148 525T274 545Q475 545 475 386V121Q475 73 521 63V31Q508 12 477 3T417 -7Q349 -7 321 40Q301 22 268 8T190 -7ZM255 74Q269 74 284 78T309 90V187Q299 194 284 199T253 204Q227 204 208 188T189 136Q189 109 207 92T255 74ZM187 617Q168
617 153 628T134 663Q166 684 202 715T271 784T326 864Q353 864 372 851T402 820T413 784Q413 757 388 728T326 674T251 633T187 617Z" />
<glyph unicode="&#xe2;" glyph-name="acircumflex" horiz-adv-x="537" d="M190 -7Q115 -7 69 34T22 141Q22 206 64 246T196 286Q225 286 257 281T309 264V397Q309 439 288 455T235 472Q202 472 181 456Q201 449 210 435T219 403Q219 370 196 351T138 331Q100 331
77 353T54 410Q54 444 77 474T148 525T274 545Q475 545 475 386V121Q475 73 521 63V31Q508 12 477 3T417 -7Q349 -7 321 40Q301 22 268 8T190 -7ZM255 74Q269 74 284 78T309 90V187Q299 194 284 199T253 204Q227 204 208 188T189 136Q189 109 207 92T255 74ZM141
607Q122 614 107 628T87 658L235 822H311L460 658Q454 642 439 628T405 607L273 706L141 607Z" />
<glyph unicode="&#xe3;" glyph-name="atilde" horiz-adv-x="537" d="M190 -7Q115 -7 69 34T22 141Q22 206 64 246T196 286Q225 286 257 281T309 264V397Q309 439 288 455T235 472Q202 472 181 456Q201 449 210 435T219 403Q219 370 196 351T138 331Q100 331 77
353T54 410Q54 444 77 474T148 525T274 545Q475 545 475 386V121Q475 73 521 63V31Q508 12 477 3T417 -7Q349 -7 321 40Q301 22 268 8T190 -7ZM255 74Q269 74 284 78T309 90V187Q299 194 284 199T253 204Q227 204 208 188T189 136Q189 109 207 92T255 74ZM344 627Q314
627 297 637T262 661Q248 672 235 680T205 688Q189 688 170 678T129 643Q126 640 121 640Q108 640 93 656T77 690Q77 695 78 698Q85 719 103 740T147 776T204 791Q241 791 261 780T298 753Q309 743 320 737T343 730Q360 730 378 740T419 775Q422 778 427 778Q440
778 455 762T471 727Q471 722 470 720Q460 700 444 679T404 642T344 627Z" />
<glyph unicode="&#xe4;" glyph-name="adieresis" horiz-adv-x="537" d="M190 -7Q115 -7 69 34T22 141Q22 206 64 246T196 286Q225 286 257 281T309 264V397Q309 439 288 455T235 472Q202 472 181 456Q201 449 210 435T219 403Q219 370 196 351T138 331Q100 331
77 353T54 410Q54 444 77 474T148 525T274 545Q475 545 475 386V121Q475 73 521 63V31Q508 12 477 3T417 -7Q349 -7 321 40Q301 22 268 8T190 -7ZM255 74Q269 74 284 78T309 90V187Q299 194 284 199T253 204Q227 204 208 188T189 136Q189 109 207 92T255 74ZM396
613Q356 613 336 641T316 708Q316 746 336 773T396 801Q437 801 457 774T477 709Q477 671 457 642T396 613ZM152 613Q112 613 92 641T71 708Q71 746 91 773T152 801Q192 801 212 774T232 709Q232 671 212 642T152 613Z" />
<glyph unicode="&#xe5;" glyph-name="aring" horiz-adv-x="537" d="M190 -7Q115 -7 69 34T22 141Q22 206 64 246T196 286Q225 286 257 281T309 264V397Q309 439 288 455T235 472Q202 472 181 456Q201 449 210 435T219 403Q219 370 196 351T138 331Q100 331 77
353T54 410Q54 444 77 474T148 525T274 545Q475 545 475 386V121Q475 73 521 63V31Q508 12 477 3T417 -7Q349 -7 321 40Q301 22 268 8T190 -7ZM255 74Q269 74 284 78T309 90V187Q299 194 284 199T253 204Q227 204 208 188T189 136Q189 109 207 92T255 74ZM274 612Q210
612 172 650T133 751Q133 813 171 851T274 889Q339 889 377 851T415 751Q415 688 377 650T274 612ZM274 695Q300 695 314 710T329 750Q329 775 315 790T274 806Q249 806 234 791T219 750Q219 725 234 710T274 695Z" />
<glyph unicode="&#xe6;" glyph-name="ae" horiz-adv-x="772" d="M191 -15Q113 -15 68 28T22 136Q22 201 68 243T195 285Q224 285 255 280T306 263V395Q306 436 288 454T237 472Q205 472 184 456Q204 450 212 434T221 400Q221 368 198 348T140 327Q103 327 80 350T57
408Q57 441 80 472T149 523T264 543Q315 543 352 531T415 497Q473 543 555 543Q643 543 694 491T746 343Q746 305 734 277T681 248H471Q475 164 508 130T596 96Q630 96 658 106T713 136Q721 129 726 112T732 86Q732 69 710 45T646 3T546 -15Q491 -15 447 4T370
58Q336 20 291 3T191 -15ZM471 324H574Q591 324 595 336T600 369Q600 431 584 451T546 472Q529 472 512 460T484 415T471 324ZM251 66Q286 66 306 88V186Q296 193 281 198T252 203Q225 203 206 186T187 135Q187 101 206 84T251 66Z" />
<glyph unicode="&#xe7;" glyph-name="ccedilla" horiz-adv-x="465" d="M276 -15Q203 -15 148 18T61 112T29 260Q29 349 63 412T156 509T289 543Q366 543 406 507T446 417Q446 369 422 343T360 317Q329 317 308 340T287 396Q287 420 295 435T317 460Q307 466 301
467T288 469Q269 469 249 454T216 401T202 295Q202 185 234 141T324 96Q351 96 378 104T425 127Q433 117 438 103T444 77Q444 56 422 35T361 -1T276 -15ZM248 -300Q197 -300 161 -287T109 -258Q109 -243 116 -229T133 -206Q181 -240 231 -240Q260 -240 273 -222T286
-191Q286 -178 275 -162T238 -145Q231 -145 223 -146T200 -151L163 -130L214 12H297L253 -92Q277 -84 308 -84Q342 -84 365 -98T399 -133T411 -177Q411 -206 393 -234T338 -281T248 -300Z" />
<glyph unicode="&#xe8;" glyph-name="egrave" horiz-adv-x="505" d="M274 -9Q162 -9 96 62T29 260Q29 347 62 410T151 508T280 542Q370 542 424 490T479 342Q479 304 467 276T415 247H199Q202 168 235 135T323 102Q357 102 386 112T440 142Q449 134 454 118T460
90Q460 74 438 51T374 9T274 -9ZM199 323H300Q317 323 321 336T326 368Q326 432 311 452T274 473Q257 473 240 460T212 415T199 323ZM369 617Q349 617 320 627T260 655T203 694T160 739T143 784Q143 801 153 819T184 851T230 864Q252 823 284 785T353 715T422 663Q419
639 404 628T369 617Z" />
<glyph unicode="&#xe9;" glyph-name="eacute" horiz-adv-x="505" d="M274 -9Q162 -9 96 62T29 260Q29 347 62 410T151 508T280 542Q370 542 424 490T479 342Q479 304 467 276T415 247H199Q202 168 235 135T323 102Q357 102 386 112T440 142Q449 134 454 118T460
90Q460 74 438 51T374 9T274 -9ZM199 323H300Q317 323 321 336T326 368Q326 432 311 452T274 473Q257 473 240 460T212 415T199 323ZM195 617Q176 617 161 628T142 663Q174 684 210 715T279 784T334 864Q361 864 380 851T410 820T421 784Q421 757 396 728T334 674T259
633T195 617Z" />
<glyph unicode="&#xea;" glyph-name="ecircumflex" horiz-adv-x="505" d="M274 -9Q162 -9 96 62T29 260Q29 347 62 410T151 508T280 542Q370 542 424 490T479 342Q479 304 467 276T415 247H199Q202 168 235 135T323 102Q357 102 386 112T440 142Q449 134 454 118T460
90Q460 74 438 51T374 9T274 -9ZM199 323H300Q317 323 321 336T326 368Q326 432 311 452T274 473Q257 473 240 460T212 415T199 323ZM149 607Q130 614 115 628T95 658L243 822H319L468 658Q462 642 447 628T413 607L281 706L149 607Z" />
<glyph unicode="&#xeb;" glyph-name="edieresis" horiz-adv-x="505" d="M274 -9Q162 -9 96 62T29 260Q29 347 62 410T151 508T280 542Q370 542 424 490T479 342Q479 304 467 276T415 247H199Q202 168 235 135T323 102Q357 102 386 112T440 142Q449 134 454 118T460
90Q460 74 438 51T374 9T274 -9ZM199 323H300Q317 323 321 336T326 368Q326 432 311 452T274 473Q257 473 240 460T212 415T199 323ZM404 613Q364 613 344 641T324 708Q324 746 344 773T404 801Q445 801 465 774T485 709Q485 671 465 642T404 613ZM160 613Q120
613 100 641T79 708Q79 746 99 773T160 801Q200 801 220 774T240 709Q240 671 220 642T160 613Z" />
<glyph unicode="&#xec;" glyph-name="igrave" horiz-adv-x="312" d="M47 0Q36 11 30 24T24 54Q53 54 67 66T81 109V399Q81 425 69 438T15 451V495Q30 504 61 515T129 535T194 543Q217 543 227 533T237 497V108Q237 78 252 66T296 54Q296 37 290 24T273 0H47ZM243
617Q223 617 194 627T134 655T77 694T34 739T17 784Q17 801 27 819T58 851T104 864Q126 823 158 785T227 715T296 663Q293 639 278 628T243 617Z" />
<glyph unicode="&#xed;" glyph-name="iacute" horiz-adv-x="312" d="M47 0Q36 11 30 24T24 54Q53 54 67 66T81 109V399Q81 425 69 438T15 451V495Q30 504 61 515T129 535T194 543Q217 543 227 533T237 497V108Q237 78 252 66T296 54Q296 37 290 24T273 0H47ZM69
617Q50 617 35 628T16 663Q48 684 84 715T153 784T208 864Q235 864 254 851T284 820T295 784Q295 757 270 728T208 674T133 633T69 617Z" />
<glyph unicode="&#xee;" glyph-name="icircumflex" horiz-adv-x="312" d="M47 0Q36 11 30 24T24 54Q53 54 67 66T81 109V399Q81 425 69 438T15 451V495Q30 504 61 515T129 535T194 543Q217 543 227 533T237 497V108Q237 78 252 66T296 54Q296 37 290 24T273 0H47ZM23
607Q4 614 -11 628T-31 658L117 822H193L342 658Q336 642 321 628T287 607L155 706L23 607Z" />
<glyph unicode="&#xef;" glyph-name="idieresis" horiz-adv-x="312" d="M47 0Q36 11 30 24T24 54Q53 54 67 66T81 109V399Q81 425 69 438T15 451V495Q30 504 61 515T129 535T194 543Q217 543 227 533T237 497V108Q237 78 252 66T296 54Q296 37 290 24T273 0H47ZM278
613Q238 613 218 641T198 708Q198 746 218 773T278 801Q319 801 339 774T359 709Q359 671 339 642T278 613ZM34 613Q-6 613 -26 641T-47 708Q-47 746 -27 773T34 801Q74 801 94 774T114 709Q114 671 94 642T34 613Z" />
<glyph unicode="&#xf0;" glyph-name="eth" horiz-adv-x="561" d="M282 -9Q209 -9 152 20T62 104T29 240Q29 330 61 390T146 480T254 510Q285 510 310 502T354 478Q344 522 327 564T281 643L209 595Q191 598 177 617T163 646L235 693Q214 712 189 728T135 758Q144
784 157 793T196 803Q260 803 328 755L414 811Q429 803 440 793T456 760L380 709Q444 644 488 539T532 296Q532 142 464 67T282 -9ZM287 63Q308 63 323 72T348 108T362 191T367 339Q367 380 354 401T322 430T284 438Q260 438 244 423T218 368T209 248Q209 170 219
131T248 77T287 63Z" />
<glyph unicode="&#xf1;" glyph-name="ntilde" horiz-adv-x="611" d="M55 0Q44 11 38 24T31 53Q61 53 74 66T87 108V400Q87 426 73 438T20 450V495Q43 508 78 519T147 536T199 543Q220 543 233 530T249 474Q274 505 312 524T402 543Q472 543 507 508T543 387V114Q543
65 591 56L592 27Q582 17 560 10T513 -2T465 -6Q422 -6 402 10T381 61V373Q381 414 363 430T319 446Q278 446 250 413V108Q250 79 262 66T305 53Q305 23 282 0H55ZM386 640Q356 640 339 650T304 674Q290 685 277 693T247 701Q231 701 212 691T171 656Q168 653 163
653Q150 653 135 669T119 703Q119 708 120 711Q127 732 145 753T189 789T246 804Q283 804 303 793T340 766Q351 756 362 750T385 743Q402 743 420 753T461 788Q464 791 469 791Q482 791 497 775T513 740Q513 735 512 733Q502 713 486 692T446 655T386 640Z" />
<glyph unicode="&#xf2;" glyph-name="ograve" horiz-adv-x="552" d="M271 -13Q200 -13 145 17T60 107T29 255Q29 349 61 413T150 510T281 543Q353 543 407 512T492 421T523 271Q523 178 491 115T402 19T271 -13ZM279 59Q300 59 315 74T339 129T348 247Q348 341
339 389T313 455T273 472Q252 472 236 457T212 401T203 282Q203 189 212 141T239 76T279 59ZM363 617Q343 617 314 627T254 655T197 694T154 739T137 784Q137 801 147 819T178 851T224 864Q246 823 278 785T347 715T416 663Q413 639 398 628T363 617Z" />
<glyph unicode="&#xf3;" glyph-name="oacute" horiz-adv-x="552" d="M271 -13Q200 -13 145 17T60 107T29 255Q29 349 61 413T150 510T281 543Q353 543 407 512T492 421T523 271Q523 178 491 115T402 19T271 -13ZM279 59Q300 59 315 74T339 129T348 247Q348 341
339 389T313 455T273 472Q252 472 236 457T212 401T203 282Q203 189 212 141T239 76T279 59ZM189 617Q170 617 155 628T136 663Q168 684 204 715T273 784T328 864Q355 864 374 851T404 820T415 784Q415 757 390 728T328 674T253 633T189 617Z" />
<glyph unicode="&#xf4;" glyph-name="ocircumflex" horiz-adv-x="552" d="M271 -13Q200 -13 145 17T60 107T29 255Q29 349 61 413T150 510T281 543Q353 543 407 512T492 421T523 271Q523 178 491 115T402 19T271 -13ZM279 59Q300 59 315 74T339 129T348 247Q348
341 339 389T313 455T273 472Q252 472 236 457T212 401T203 282Q203 189 212 141T239 76T279 59ZM143 607Q124 614 109 628T89 658L237 822H313L462 658Q456 642 441 628T407 607L275 706L143 607Z" />
<glyph unicode="&#xf5;" glyph-name="otilde" horiz-adv-x="552" d="M271 -13Q200 -13 145 17T60 107T29 255Q29 349 61 413T150 510T281 543Q353 543 407 512T492 421T523 271Q523 178 491 115T402 19T271 -13ZM279 59Q300 59 315 74T339 129T348 247Q348 341
339 389T313 455T273 472Q252 472 236 457T212 401T203 282Q203 189 212 141T239 76T279 59ZM346 627Q316 627 299 637T264 661Q250 672 237 680T207 688Q191 688 172 678T131 643Q128 640 123 640Q110 640 95 656T79 690Q79 695 80 698Q87 719 105 740T149 776T206
791Q243 791 263 780T300 753Q311 743 322 737T345 730Q362 730 380 740T421 775Q424 778 429 778Q442 778 457 762T473 727Q473 722 472 720Q462 700 446 679T406 642T346 627Z" />
<glyph unicode="&#xf6;" glyph-name="odieresis" horiz-adv-x="552" d="M271 -13Q200 -13 145 17T60 107T29 255Q29 349 61 413T150 510T281 543Q353 543 407 512T492 421T523 271Q523 178 491 115T402 19T271 -13ZM279 59Q300 59 315 74T339 129T348 247Q348
341 339 389T313 455T273 472Q252 472 236 457T212 401T203 282Q203 189 212 141T239 76T279 59ZM398 613Q358 613 338 641T318 708Q318 746 338 773T398 801Q439 801 459 774T479 709Q479 671 459 642T398 613ZM154 613Q114 613 94 641T73 708Q73 746 93 773T154
801Q194 801 214 774T234 709Q234 671 214 642T154 613Z" />
<glyph unicode="&#xf7;" glyph-name="divide" horiz-adv-x="629" d="M320 471Q278 471 253 496T228 563Q228 604 253 629T320 655Q363 655 388 630T414 563Q414 522 389 497T320 471ZM58 267Q54 278 52 293T50 322Q50 340 52 356T60 381H571Q576 371 577 355T579
322Q579 306 578 291T571 267H58ZM320 -10Q278 -10 253 16T228 83Q228 124 253 149T320 174Q363 174 388 149T414 83Q414 42 389 16T320 -10Z" />
<glyph unicode="&#xf8;" glyph-name="oslash" horiz-adv-x="552" d="M96 -29Q80 -27 64 -14Q58 -9 55 -4T50 7L91 61Q61 95 45 143T29 255Q29 349 61 413T150 510T281 543Q356 543 411 510L448 561Q454 560 461 557T475 549Q483 543 488 537T496 524L457 472Q488
438 505 388T523 271Q523 178 491 115T402 19T271 -13Q192 -13 136 23L96 -29ZM203 282Q203 240 205 207L335 408Q325 446 310 459T273 472Q252 472 236 457T212 401T203 282ZM279 59Q300 59 315 74T339 129T348 247Q348 295 345 332L215 130Q225 88 241 74T279
59Z" />
<glyph unicode="&#xf9;" glyph-name="ugrave" horiz-adv-x="572" d="M216 -7Q146 -7 107 36T68 152V427Q68 444 55 451T19 458V502Q32 513 73 525T167 538Q206 538 218 529T231 485V149Q231 119 241 103T276 87Q297 87 316 100T349 130V427Q349 444 334 451T293
458V502Q307 513 348 525T445 538Q484 538 498 529T512 485V117Q512 93 524 77T560 59V31Q544 12 510 3T443 -7Q410 -7 386 10T353 61Q304 -7 216 -7ZM373 617Q353 617 324 627T264 655T207 694T164 739T147 784Q147 801 157 819T188 851T234 864Q256 823 288 785T357
715T426 663Q423 639 408 628T373 617Z" />
<glyph unicode="&#xfa;" glyph-name="uacute" horiz-adv-x="572" d="M216 -7Q146 -7 107 36T68 152V427Q68 444 55 451T19 458V502Q32 513 73 525T167 538Q206 538 218 529T231 485V149Q231 119 241 103T276 87Q297 87 316 100T349 130V427Q349 444 334 451T293
458V502Q307 513 348 525T445 538Q484 538 498 529T512 485V117Q512 93 524 77T560 59V31Q544 12 510 3T443 -7Q410 -7 386 10T353 61Q304 -7 216 -7ZM199 617Q180 617 165 628T146 663Q178 684 214 715T283 784T338 864Q365 864 384 851T414 820T425 784Q425 757
400 728T338 674T263 633T199 617Z" />
<glyph unicode="&#xfb;" glyph-name="ucircumflex" horiz-adv-x="572" d="M216 -7Q146 -7 107 36T68 152V427Q68 444 55 451T19 458V502Q32 513 73 525T167 538Q206 538 218 529T231 485V149Q231 119 241 103T276 87Q297 87 316 100T349 130V427Q349 444 334 451T293
458V502Q307 513 348 525T445 538Q484 538 498 529T512 485V117Q512 93 524 77T560 59V31Q544 12 510 3T443 -7Q410 -7 386 10T353 61Q304 -7 216 -7ZM153 607Q134 614 119 628T99 658L247 822H323L472 658Q466 642 451 628T417 607L285 706L153 607Z" />
<glyph unicode="&#xfc;" glyph-name="udieresis" horiz-adv-x="572" d="M216 -7Q146 -7 107 36T68 152V427Q68 444 55 451T19 458V502Q32 513 73 525T167 538Q206 538 218 529T231 485V149Q231 119 241 103T276 87Q297 87 316 100T349 130V427Q349 444 334 451T293
458V502Q307 513 348 525T445 538Q484 538 498 529T512 485V117Q512 93 524 77T560 59V31Q544 12 510 3T443 -7Q410 -7 386 10T353 61Q304 -7 216 -7ZM408 613Q368 613 348 641T328 708Q328 746 348 773T408 801Q449 801 469 774T489 709Q489 671 469 642T408 613ZM164
613Q124 613 104 641T83 708Q83 746 103 773T164 801Q204 801 224 774T244 709Q244 671 224 642T164 613Z" />
<glyph unicode="&#xfd;" glyph-name="yacute" horiz-adv-x="530" d="M190 37L36 411Q24 440 15 455T-25 470Q-25 487 -20 503T-4 531H232Q256 505 256 470Q231 470 221 457T210 424Q210 417 211 409T215 391L308 120L374 404Q377 418 377 428Q377 470 328 470Q328
487 332 503T347 531H540Q551 519 555 503T560 470Q535 470 522 458T499 418L385 63Q341 -79 291 -145T161 -211Q99 -211 68 -185T37 -123Q37 -99 48 -80T78 -53Q105 -85 158 -85Q188 -85 219 -56T272 37H190ZM204 617Q185 617 170 628T151 663Q183 684 219 715T288
784T343 864Q370 864 389 851T419 820T430 784Q430 757 405 728T343 674T268 633T204 617Z" />
<glyph unicode="&#xfe;" glyph-name="thorn" horiz-adv-x="569" d="M46 -190Q35 -179 29 -166T22 -137Q52 -137 59 -124T67 -82V646Q67 669 53 682T6 695V727Q29 743 60 755T123 776T176 784Q200 784 210 774T220 738V596L217 501Q237 522 266 531T330 540Q385
540 433 512T511 428T541 283Q541 187 504 123T405 25T268 -8Q257 -8 244 -7T220 -4V-82Q220 -111 244 -124T290 -137Q290 -167 267 -190H46ZM271 65Q298 65 320 81T356 137T369 249Q369 359 338 407T261 455Q236 455 220 444V84Q230 74 243 70T271 65Z" />
<glyph unicode="&#xff;" glyph-name="ydieresis" horiz-adv-x="530" d="M190 37L36 411Q24 440 15 455T-25 470Q-25 487 -20 503T-4 531H232Q256 505 256 470Q231 470 221 457T210 424Q210 417 211 409T215 391L308 120L374 404Q377 418 377 428Q377 470 328 470Q328
487 332 503T347 531H540Q551 519 555 503T560 470Q535 470 522 458T499 418L385 63Q341 -79 291 -145T161 -211Q99 -211 68 -185T37 -123Q37 -99 48 -80T78 -53Q105 -85 158 -85Q188 -85 219 -56T272 37H190ZM413 613Q373 613 353 641T333 708Q333 746 353 773T413
801Q454 801 474 774T494 709Q494 671 474 642T413 613ZM169 613Q129 613 109 641T88 708Q88 746 108 773T169 801Q209 801 229 774T249 709Q249 671 229 642T169 613Z" />
<glyph unicode="&#x2013;" glyph-name="endash" horiz-adv-x="727" d="M49 214Q46 222 45 234T43 258Q43 272 44 289T49 314H646Q649 306 650 289T652 258Q652 245 651 233T646 214H49Z" />
<glyph unicode="&#x2014;" glyph-name="emdash" horiz-adv-x="1020" d="M85 214Q81 222 80 234T78 258Q78 272 79 289T85 314H935Q939 306 940 289T942 258Q942 245 941 233T935 214H85Z" />
<glyph unicode="&#x2018;" glyph-name="quoteleft" horiz-adv-x="292" d="M151 430Q108 430 79 463T50 569Q50 631 72 681T130 764T202 810Q213 806 221 793T230 765Q190 740 166 701T142 622V609Q144 610 148 610T156 610Q196 610 217 583T238 521Q238 477 214
454T151 430Z" />
<glyph unicode="&#x2019;" glyph-name="quoteright" horiz-adv-x="292" d="M90 425Q79 429 70 442T61 471Q102 497 126 535T150 613Q150 616 150 619T149 626Q147 625 143 625T135 625Q95 625 75 652T54 714Q54 755 78 780T140 805Q184 805 213 772T242 668Q242
605 220 555T163 471T90 425Z" />
<glyph unicode="&#x201a;" glyph-name="quotesinglbase" horiz-adv-x="292" d="M90 -194Q79 -190 70 -177T61 -148Q102 -122 126 -84T150 -6Q150 -3 150 0T149 7Q147 6 143 6T135 6Q95 6 75 33T54 95Q54 136 78 161T140 186Q184 186 213 153T242 49Q242 -14 220
-64T163 -148T90 -194Z" />
<glyph unicode="&#x201c;" glyph-name="quotedblleft" horiz-adv-x="562" d="M151 430Q108 430 79 463T50 569Q50 631 72 681T130 764T202 810Q213 806 221 793T230 765Q190 740 166 701T142 622V609Q144 610 148 610T156 610Q196 610 217 583T238 521Q238 477
214 454T151 430ZM421 430Q378 430 349 463T320 569Q320 631 342 681T400 764T472 810Q483 806 491 793T500 765Q460 740 436 701T412 622V609Q414 610 418 610T426 610Q466 610 487 583T508 521Q508 477 484 454T421 430Z" />
<glyph unicode="&#x201d;" glyph-name="quotedblright" horiz-adv-x="562" d="M90 425Q79 429 70 442T61 471Q102 497 126 535T150 613Q150 616 150 619T149 626Q147 625 143 625T135 625Q95 625 75 652T54 714Q54 755 78 780T140 805Q184 805 213 772T242 668Q242
605 220 555T163 471T90 425ZM360 425Q349 429 340 442T331 471Q372 497 396 535T420 613Q420 616 420 619T419 626Q417 625 413 625T405 625Q365 625 345 652T324 714Q324 755 348 780T410 805Q454 805 483 772T512 668Q512 605 490 555T433 471T360 425Z" />
<glyph unicode="&#x201e;" glyph-name="quotedblbase" horiz-adv-x="540" d="M90 -250Q79 -246 70 -233T61 -204Q102 -178 126 -140T150 -62Q150 -59 150 -56T149 -49Q147 -50 143 -50T135 -50Q95 -50 75 -23T54 39Q54 80 78 105T140 130Q184 130 213 97T242 -7Q242
-70 220 -120T163 -204T90 -250ZM338 -250Q327 -246 318 -233T309 -204Q350 -178 374 -140T398 -62Q398 -59 398 -56T397 -49Q395 -50 391 -50T383 -50Q343 -50 323 -23T302 39Q302 80 326 105T388 130Q432 130 461 97T490 -7Q490 -70 468 -120T411 -204T338 -250Z"
/>
<glyph unicode="&#x2022;" glyph-name="bullet" horiz-adv-x="388" d="M194 178Q122 178 80 220T37 333Q37 403 79 445T194 487Q265 487 308 445T351 333Q351 263 308 221T194 178Z" />
<glyph unicode="&#x2039;" glyph-name="guilsinglleft" horiz-adv-x="301" d="M222 107L27 296V357L222 544Q237 538 249 529T270 502L175 326L270 150Q262 134 250 124T222 107Z" />
<glyph unicode="&#x203a;" glyph-name="guilsinglright" horiz-adv-x="301" d="M79 106Q64 113 52 123T31 149L126 325L31 501Q39 518 51 527T79 543L274 356V295L79 106Z" />
</font>
</defs>
</svg>
