<?xml version="1.0" standalone="no"?>
<!DOCTYPE svg PUBLIC "-//W3C//DTD SVG 1.1//EN" "http://www.w3.org/Graphics/SVG/1.1/DTD/svg11.dtd">
<svg xmlns="http://www.w3.org/2000/svg">
<defs >
<font id="Kodchasan" horiz-adv-x="609" ><font-face
    font-family="Kodchasan"
    units-per-em="1000"
    panose-1="0 0 5 0 0 0 0 0 0 0"
    ascent="1024"
    descent="-276"
    alphabetic="0" />
<glyph unicode=" " glyph-name="space" horiz-adv-x="268" />
<glyph unicode="!" glyph-name="exclam" horiz-adv-x="270" d="M101 163T101 201L95 670Q95 689 106 699T135 710Q153 710 164 699T176 670L169 201Q169 163 135 163Q101 163 101 201ZM108 -10T91 5T74 45Q74 70 91 86T135 103Q161 103 178 87T196 45Q196 21 179
6T135 -10Q108 -10 91 5Z" />
<glyph unicode="&quot;" glyph-name="quotedbl" horiz-adv-x="342" d="M191 488T184 495T177 514Q177 519 179 527L218 682Q226 717 252 717L264 715Q290 707 290 686Q290 678 287 669L233 512Q229 501 222 495T204 488Q191 488 184 495ZM65 488T59 495T52 514Q52
519 54 527L93 682Q101 717 127 717Q131 717 139 715Q165 708 165 686Q165 678 162 669L108 512Q104 501 97 495T79 488Q65 488 59 495Z" />
<glyph unicode="#" glyph-name="numbersign" horiz-adv-x="801" d="M751 507T751 475Q751 460 741 452T712 444H612L558 265H655Q694 265 694 233Q694 218 684 210T655 202H539L482 15Q474 -12 448 -12Q431 -12 423 -4T414 17Q414 21 416 29L469 202H237L180 15Q172
-12 146 -12Q130 -12 122 -4T113 16Q113 21 115 29L168 202H90Q71 202 61 210T50 233Q50 265 90 265H187L241 444H147Q128 444 118 452T107 475Q107 507 147 507H260L314 684Q321 710 349 710Q366 710 374 703T382 684Q382 680 380 670L330 507H561L615 684Q622
710 650 710Q667 710 675 703T683 684Q683 680 681 670L631 507H712Q751 507 751 475ZM542 444H311L256 265H488L542 444Z" />
<glyph unicode="$" glyph-name="dollar" horiz-adv-x="681" d="M626 94T558 48T375 0V-77Q375 -110 345 -110Q317 -110 317 -77V2Q237 10 170 41T63 122Q55 133 55 142Q55 157 70 170Q77 176 87 176Q102 176 119 159Q190 81 317 68V327Q196 356 135 399T73 525Q73
602 136 649T317 700V796Q317 829 345 829Q375 829 375 796V698Q455 691 515 661T603 582Q609 572 609 562Q609 547 592 535Q585 531 576 531Q567 531 558 535T542 548Q519 583 477 605T375 633V387Q493 359 559 313T626 181Q626 94 558 48ZM149 472T191 446T317
400V635Q233 633 191 607T149 525Q149 472 191 446ZM549 68T549 181Q549 235 506 264T375 314V65Q549 68 549 181Z" />
<glyph unicode="%" glyph-name="percent" horiz-adv-x="740" d="M112 -1T108 6T104 21Q104 30 112 43L561 696Q572 712 589 712Q599 712 610 706Q627 696 627 680Q627 669 620 659L170 4Q159 -12 140 -12Q128 -12 118 -5Q112 -1 108 6ZM161 409T126 429T69 485T48
561Q48 602 69 637T125 692T203 712Q246 712 281 692T337 637T358 561Q358 520 338 485T282 430T203 409Q161 409 126 429ZM240 472T265 497T290 561Q290 599 265 625T203 651Q165 651 140 625T115 561Q115 523 140 498T203 472Q240 472 265 497ZM495 -10T460 10T403
66T382 142Q382 183 403 218T459 273T537 293Q579 293 614 273T670 218T691 142Q691 101 671 66T615 11T537 -10Q495 -10 460 10ZM573 53T598 78T624 142Q624 180 599 206T537 232Q499 232 474 206T448 142Q448 104 473 79T537 53Q573 53 598 78Z" />
<glyph unicode="&amp;" glyph-name="ampersand" horiz-adv-x="763" d="M233 -10T174 15T82 87T49 195Q49 339 229 410Q187 442 164 477T140 557Q140 628 184 669T309 710Q385 710 429 669T474 556Q474 505 442 464T347 391L547 197Q573 238 583 274T600 364Q602
379 611 387T636 396Q654 396 664 384T673 356Q655 225 601 146L702 49Q714 37 714 25Q714 13 702 1Q692 -9 678 -9Q668 -9 658 -1L558 96Q521 59 464 25T313 -10Q233 -10 174 15ZM401 483T401 557Q401 599 376 622T307 646Q263 646 239 622T214 558Q214 523 233
498T298 438Q401 483 401 557ZM374 54T425 77T509 144L284 362Q203 336 163 297T123 195Q123 154 146 122T213 72T312 54Q374 54 425 77Z" />
<glyph unicode="&apos;" glyph-name="quotesingle" horiz-adv-x="212" d="M64 488T57 495T49 515Q49 519 51 527L90 682Q94 698 103 707T124 717Q128 717 136 715Q163 707 163 686Q163 678 160 669L106 512Q102 501 95 495T77 488Q64 488 57 495Z" />
<glyph unicode="(" glyph-name="parenleft" horiz-adv-x="293" d="M215 -133T207 -133Q186 -133 171 -111Q113 -28 82 80T50 305Q50 422 81 530T171 721Q186 743 207 743Q215 743 225 738Q244 728 244 712Q244 704 237 693Q185 620 156 519T126 305Q126 192 155
90T236 -82Q244 -93 244 -102Q244 -118 225 -128Q215 -133 207 -133Z" />
<glyph unicode=")" glyph-name="parenright" horiz-adv-x="293" d="M50 -118T50 -101Q50 -90 57 -82Q109 -13 138 88T167 305Q167 416 138 517T57 692Q50 702 50 712Q50 728 68 738Q78 743 86 743Q105 743 122 721Q181 637 212 530T243 305Q243 187 212 80T122
-111Q105 -133 86 -133Q78 -133 68 -128Q50 -118 50 -101Z" />
<glyph unicode="*" glyph-name="asterisk" horiz-adv-x="450" d="M212 326T204 334T195 356V461L99 390Q89 383 79 383Q64 383 55 395Q48 406 48 415Q48 428 60 437L176 517L61 595Q48 604 48 620Q48 631 54 638Q65 652 80 652Q89 652 99 645L195 573V679Q195
692 203 699T226 707Q239 707 248 700T257 679V573L352 645Q360 652 371 652Q386 652 397 638Q403 631 403 620Q403 604 390 595L275 517L391 437Q403 428 403 415Q403 403 396 395Q387 384 372 384Q362 384 353 390L257 461V356Q257 343 248 335T226 326Q212 326
204 334Z" />
<glyph unicode="+" glyph-name="plus" horiz-adv-x="508" d="M488 282T488 250Q488 236 478 228T449 219H289V78Q289 60 280 50T254 40Q238 40 230 50T221 78V219H60Q41 219 31 227T20 250Q20 282 60 282H221V427Q221 445 229 455T254 465Q271 465 280 455T289
427V282H449Q488 282 488 250Z" />
<glyph unicode="," glyph-name="comma" horiz-adv-x="233" d="M48 -118T48 -111Q48 -100 63 -88Q121 -40 124 -2Q119 -4 108 -4Q86 -4 70 11T54 48Q54 77 71 93T119 110Q150 110 168 89T186 31Q186 -6 163 -44T99 -115Q78 -131 67 -131Q59 -131 53 -124Q48 -118 48 -111Z" />
<glyph unicode="-" glyph-name="hyphen" horiz-adv-x="474" d="M70 212T60 220T49 243Q49 275 89 275H385Q425 275 425 243Q425 229 415 221T385 212H89Q70 212 60 220Z" />
<glyph unicode="." glyph-name="period" horiz-adv-x="215" d="M84 1T67 17T50 56Q50 79 67 96T108 113Q131 113 148 96T165 56Q165 34 148 18T108 1Q84 1 67 17Z" />
<glyph unicode="/" glyph-name="slash" horiz-adv-x="545" d="M48 -95T48 -73Q48 -64 52 -56L429 776Q439 798 460 798Q479 798 488 789T498 766Q498 760 494 750L116 -84Q111 -94 102 -100T83 -107Q75 -107 69 -104Q48 -95 48 -73Z" />
<glyph unicode="0" glyph-name="zero" horiz-adv-x="678" d="M250 -10T185 33T86 157T51 350Q51 462 85 543T185 667T339 710Q428 710 493 667T592 543T627 350Q627 238 593 157T493 33T339 -10Q250 -10 185 33ZM441 54T496 131T552 350Q552 492 497 569T339 646Q237
646 182 569T126 350Q126 209 181 132T339 54Q441 54 496 131Z" />
<glyph unicode="1" glyph-name="one" horiz-adv-x="371" d="M240 -10T230 0T220 30V624L95 576Q86 572 75 572Q51 572 42 592Q39 600 39 607Q39 631 65 640L244 707Q253 710 261 710Q276 710 286 699T296 671V30Q296 11 286 1T257 -10Q240 -10 230 0Z" />
<glyph unicode="2" glyph-name="two" horiz-adv-x="629" d="M71 0T61 10T50 34Q50 53 67 67L430 375Q467 406 483 435T499 512Q499 575 455 610T332 646Q267 646 213 622T125 554Q112 538 95 538Q84 538 73 546Q60 555 60 571Q60 586 70 597Q114 651 183 680T332
710Q405 710 460 686T545 617T575 512Q575 457 550 413T465 318L164 62H543Q580 62 580 31Q580 0 543 0H89Q71 0 61 10Z" />
<glyph unicode="3" glyph-name="three" horiz-adv-x="644" d="M243 -10T174 20T59 106Q49 119 49 131Q49 147 64 157Q74 164 85 164Q103 164 115 147Q148 103 203 79T323 54Q415 54 467 90T520 192Q520 262 484 298T376 335H264Q224 335 224 366Q224 398 264 398H376Q432
398 467 430T503 515Q503 578 458 612T327 646Q268 646 219 625T134 564Q121 549 105 549Q95 549 82 557Q68 566 68 582Q68 596 79 607Q126 657 189 683T327 710Q445 710 511 657T578 515Q578 470 552 433T475 370V368Q536 344 565 301T595 192Q595 131 561 85T466
15T323 -10Q243 -10 174 20Z" />
<glyph unicode="4" glyph-name="four" horiz-adv-x="644" d="M436 -10T427 1T417 31V162H75Q58 162 49 170T39 191Q39 203 48 215L426 695Q438 710 458 710Q472 710 482 701T492 678V225H564Q603 225 603 193Q603 178 593 170T564 162H492V31Q492 12 482 1T454
-10Q436 -10 427 1ZM419 225V581L140 225H419Z" />
<glyph unicode="5" glyph-name="five" horiz-adv-x="648" d="M240 -10T173 20T60 106Q50 119 50 131Q50 147 65 157Q74 163 86 163Q106 163 116 148Q150 101 203 78T319 54Q415 54 468 105T522 250Q522 335 470 381T332 428Q282 428 239 410T168 361Q143 333 121
333Q101 333 89 344T80 374L119 635Q124 665 145 682T203 700H526Q565 700 565 668Q565 653 555 646T526 638H222Q204 638 196 630T185 604L159 429Q197 460 244 476T343 493Q416 493 474 464T564 381T597 251Q597 173 564 114T469 23T320 -10Q240 -10 173 20Z"
/>
<glyph unicode="6" glyph-name="six" horiz-adv-x="651" d="M201 -10T125 85T49 351Q49 462 84 543T185 667T343 710Q479 710 572 631Q584 621 584 606Q584 590 570 579Q562 571 550 571Q535 571 519 584Q476 617 437 631T343 646Q236 646 180 567T123 349L125
348Q158 406 213 440T345 475Q426 475 483 444T571 359T601 235Q601 164 570 108T479 21T340 -10Q201 -10 125 85ZM425 54T475 102T526 232Q526 314 476 362T340 410Q287 410 242 386T171 320T144 228Q144 177 170 138T241 76T340 54Q425 54 475 102Z" />
<glyph unicode="7" glyph-name="seven" horiz-adv-x="585" d="M137 5T137 22Q137 34 145 48L465 638H79Q61 638 51 645T40 668Q40 700 79 700H505Q524 700 534 690T545 663Q545 643 534 623L206 10Q195 -10 174 -10Q162 -10 154 -5Q137 5 137 22Z" />
<glyph unicode="8" glyph-name="eight" horiz-adv-x="656" d="M247 -10T184 14T86 84T50 193Q50 254 89 299T197 367V369Q139 390 108 429T76 521Q76 605 141 657T328 710Q450 710 515 658T580 521Q580 470 549 430T459 369V367Q527 344 566 299T606 193Q606 130
571 85T472 15T328 -10Q247 -10 184 14ZM409 397T457 431T505 521Q505 579 459 612T328 646Q244 646 198 613T151 521Q151 465 199 431T328 397Q409 397 457 431ZM422 54T476 90T531 193Q531 261 477 298T328 336Q235 336 180 298T125 193Q125 127 179 91T328 54Q422
54 476 90Z" />
<glyph unicode="9" glyph-name="nine" horiz-adv-x="651" d="M189 -10T95 71Q82 83 82 97Q82 110 95 122Q106 131 115 131Q127 131 146 117Q189 85 229 70T322 54Q426 54 477 129T529 350L527 351Q496 290 442 257T311 223Q231 223 172 254T81 341T49 464Q49 537
81 592T173 679T317 710Q460 710 530 618T601 349Q601 176 528 83T322 -10Q189 -10 95 71ZM401 287T453 338T506 471Q506 553 455 599T317 646Q229 646 177 598T124 467Q124 385 176 336T316 287Q401 287 453 338Z" />
<glyph unicode=":" glyph-name="colon" horiz-adv-x="218" d="M83 351T67 367T50 408Q50 433 66 449T108 466Q134 466 151 450T169 408Q169 384 152 368T108 351Q83 351 67 367ZM83 5T66 21T49 63Q49 87 66 103T108 120Q134 120 151 104T169 63Q169 38 152 22T108
5Q83 5 66 21Z" />
<glyph unicode=";" glyph-name="semicolon" horiz-adv-x="227" d="M93 351T77 367T60 408Q60 433 76 449T118 466Q143 466 161 449T179 408Q179 384 161 368T118 351Q93 351 77 367ZM48 -108T48 -104Q48 -95 63 -83Q87 -64 103 -42T121 -3Q111 -5 106 -5Q85 -5
70 9T54 45Q54 72 70 87T116 102Q145 102 161 83T178 28Q178 -6 157 -42T97 -108Q76 -124 67 -124Q61 -124 53 -115Q48 -108 48 -104Z" />
<glyph unicode="&lt;" glyph-name="less" horiz-adv-x="603" d="M74 215Q50 229 50 252Q50 276 74 289L494 524Q505 531 518 531Q538 531 548 513Q554 503 554 493Q554 474 533 463L143 252L533 41Q554 31 554 11Q554 2 548 -9Q538 -27 517 -27Q505 -27 494 -20L74 215Z" />
<glyph unicode="=" glyph-name="equal" horiz-adv-x="520" d="M70 289T60 297T49 320Q49 352 89 352H432Q472 352 472 320Q472 306 462 298T432 289H89Q70 289 60 297ZM70 139T60 147T49 170Q49 202 89 202H432Q472 202 472 170Q472 156 462 148T432 139H89Q70
139 60 147Z" />
<glyph unicode="&gt;" glyph-name="greater" horiz-adv-x="603" d="M97 -26T86 -26Q65 -26 55 -9Q49 0 49 10Q49 28 71 41L460 252L71 463Q49 474 49 495Q49 504 55 513Q65 530 86 530Q97 530 109 524L530 289Q541 283 547 273T553 252Q553 227 530 215L109 -20Q97
-26 86 -26Z" />
<glyph unicode="?" glyph-name="question" horiz-adv-x="570" d="M262 163T252 173T242 203V221Q242 261 257 291T295 343T353 392Q400 428 422 455T445 522Q445 580 405 612T292 645Q237 645 192 625T117 568Q102 550 84 550Q74 550 65 556Q49 567 49 583Q49
593 56 603Q94 653 156 681T292 710Q400 710 461 660T522 522Q522 467 494 432T413 357Q380 332 362 315T331 275T318 221V203Q318 184 308 174T279 163Q262 163 252 173ZM255 -10T238 5T220 45Q220 70 237 86T281 103Q307 103 324 87T342 45Q342 21 325 6T281
-10Q255 -10 238 5Z" />
<glyph unicode="@" glyph-name="at" horiz-adv-x="925" d="M321 -69T233 -24T96 107T48 307Q48 434 99 524T246 663T476 711Q594 711 684 669T825 548T876 363Q876 279 854 219T793 128T702 96Q629 96 610 162Q580 127 535 109T432 90Q336 90 288 133T239 245Q239
315 290 357T433 400Q487 400 527 385T593 345V391Q593 439 566 469T462 500Q419 500 384 490T315 458Q301 450 290 450Q281 450 272 456Q263 464 263 476Q263 491 273 499Q303 524 353 540T460 557Q562 557 610 512T659 389V195Q659 173 670 162T702 151Q747 151
775 205T803 364Q803 451 762 515T647 613T477 648Q308 648 215 558T121 303Q121 208 160 139T273 32T444 -6Q530 -6 578 12Q594 19 607 19Q620 19 627 9Q634 -1 634 -12Q634 -29 617 -38Q559 -69 441 -69Q321 -69 233 -24ZM505 146T549 173T594 251Q594 293 554
318T436 344Q372 344 339 317T306 245Q306 197 339 172T434 146Q505 146 549 173Z" />
<glyph unicode="A" glyph-name="A" horiz-adv-x="728" d="M95 -10T85 0T75 30V421Q75 557 151 633T364 710Q499 710 576 633T653 421V30Q653 11 643 1T615 -10Q598 -10 588 0T577 30V255H150V30Q150 11 140 1T112 -10Q95 -10 85 0ZM577 317V424Q577 531 522 588T364
646Q260 646 205 589T150 424V317H577Z" />
<glyph unicode="B" glyph-name="B" horiz-adv-x="724" d="M148 0T114 32T80 122V580Q80 636 113 668T207 700H444Q545 700 601 650T657 509Q657 457 630 419T556 360V358Q609 339 639 299T669 203Q669 109 612 55T456 0H209Q148 0 114 32ZM452 388Q511 388 546
421T581 509Q581 572 546 605T444 638H208Q185 638 170 622T155 580V388H452ZM452 63Q521 63 557 98T593 202Q593 261 555 294T451 327H155V120Q155 95 170 79T208 63H452Z" />
<glyph unicode="C" glyph-name="C" horiz-adv-x="747" d="M298 -10T220 34T98 160T55 349Q55 457 98 539T219 665T401 710Q487 710 559 681T673 600Q681 591 681 578Q681 562 667 552Q658 546 647 546Q628 546 615 561Q583 602 528 624T401 646Q318 646 257 610T164
507T131 349Q131 259 163 193T257 90T402 54Q479 54 536 76T627 139Q642 155 659 155Q671 155 679 148Q693 136 693 122Q693 110 684 99Q643 49 568 20T402 -10Q298 -10 220 34Z" />
<glyph unicode="D" glyph-name="D" horiz-adv-x="746" d="M148 0T114 32T80 122V580Q80 636 113 668T207 700H347Q451 700 528 657T648 534T690 349Q690 243 648 165T529 43T347 0H209Q148 0 114 32ZM337 62Q469 62 541 137T614 349Q614 486 541 562T337 638H208Q184
638 170 622T155 580V120Q155 94 169 78T208 62H337Z" />
<glyph unicode="E" glyph-name="E" horiz-adv-x="633" d="M148 0T114 32T80 122V580Q80 636 113 668T207 700H517Q556 700 556 668Q556 654 546 646T517 638H208Q184 638 170 622T155 580V389H441Q480 389 480 357Q480 342 470 334T441 326H155V120Q155 94 169
78T208 62H539Q578 62 578 31Q578 16 568 8T539 0H209Q148 0 114 32Z" />
<glyph unicode="F" glyph-name="F" horiz-adv-x="611" d="M100 -10T90 0T80 30V580Q80 636 113 668T207 700H517Q556 700 556 668Q556 654 546 646T517 638H208Q184 638 170 622T155 580V379H441Q480 379 480 347Q480 332 470 324T441 316H155V30Q155 11 145 1T117
-10Q100 -10 90 0Z" />
<glyph unicode="G" glyph-name="G" horiz-adv-x="764" d="M298 -10T219 34T97 159T54 349Q54 457 97 539T219 665T404 710Q489 710 562 681T675 601Q684 591 684 577Q684 561 670 552Q661 546 650 546Q641 546 632 550T617 562Q586 601 531 623T404 646Q320 646
258 610T163 507T130 349Q130 211 203 133T404 54Q471 54 523 75T604 135T634 223V257Q634 284 624 296T584 308H432Q394 308 394 338Q394 370 432 370H597Q654 370 682 345T710 268V230Q710 163 670 108T560 22T404 -10Q298 -10 219 34Z" />
<glyph unicode="H" glyph-name="H" horiz-adv-x="747" d="M99 -10T89 0T79 30V670Q79 689 89 699T116 710Q134 710 144 700T154 670V391H593V670Q593 689 603 699T631 710Q648 710 658 700T668 670V30Q668 11 658 1T631 -10Q614 -10 604 0T593 30V328H154V30Q154
11 144 1T116 -10Q99 -10 89 0Z" />
<glyph unicode="I" glyph-name="I" horiz-adv-x="297" d="M131 -10T121 0T111 30V670Q111 689 121 699T148 710Q166 710 176 699T186 670V30Q186 12 176 1T148 -10Q131 -10 121 0Z" />
<glyph unicode="J" glyph-name="J" horiz-adv-x="598" d="M139 -10T53 104Q44 115 44 126Q44 141 58 152Q67 160 80 160Q99 160 111 144Q145 97 188 76T296 55Q368 55 407 97T447 217V670Q447 689 456 699T484 710Q502 710 512 700T523 670V221Q523 153 494 101T414
19T296 -10Q139 -10 53 104Z" />
<glyph unicode="K" glyph-name="K" horiz-adv-x="683" d="M568 -9T559 21Q527 141 462 222T282 370L156 267V30Q156 11 146 1T118 -10Q101 -10 91 0T81 30V670Q81 689 91 699T118 710Q136 710 146 700T156 670V353L555 697Q566 706 577 706Q591 706 602 695Q612
685 612 671Q612 658 600 647L333 414Q463 337 535 244T628 33L629 25Q629 9 620 0T595 -9Q568 -9 559 21Z" />
<glyph unicode="L" glyph-name="L" horiz-adv-x="627" d="M150 0T116 32T82 122V670Q82 689 92 699T119 710Q137 710 147 700T157 670V120Q157 94 171 78T210 62H543Q582 62 582 31Q582 16 572 8T543 0H211Q150 0 116 32Z" />
<glyph unicode="M" glyph-name="M" horiz-adv-x="980" d="M95 -10T85 0T75 30V482Q75 588 135 649T300 710Q361 710 412 679T490 595Q516 648 566 679T680 710Q785 710 845 650T905 482V30Q905 11 895 1T867 -10Q849 -10 840 0T830 30V482Q830 561 795 603T678
645Q607 645 567 602T527 482V30Q527 11 517 1T490 -10Q473 -10 464 0T454 30V482Q454 556 412 600T302 645Q221 645 186 603T150 482V30Q150 11 140 1T112 -10Q95 -10 85 0Z" />
<glyph unicode="N" glyph-name="N" horiz-adv-x="731" d="M94 -10T84 0T74 30V438Q74 521 109 582T211 677T366 710Q455 710 520 677T621 583T657 438V30Q657 11 648 1T620 -10Q603 -10 593 0T582 30V441Q582 538 525 592T366 646Q266 646 208 591T149 441V30Q149
11 139 1T111 -10Q94 -10 84 0Z" />
<glyph unicode="O" glyph-name="O" horiz-adv-x="820" d="M309 -10T228 34T101 161T54 350Q54 458 100 539T228 665T410 710Q511 710 592 666T719 540T766 350Q766 243 720 161T592 35T410 -10Q309 -10 228 34ZM491 54T554 89T654 190T691 350Q691 444 654 511T552
612T408 646Q328 646 265 611T165 509T129 350Q129 257 165 191T265 89T410 54Q491 54 554 89Z" />
<glyph unicode="P" glyph-name="P" horiz-adv-x="717" d="M100 -10T90 0T80 30V580Q80 636 113 668T207 700H377Q662 700 662 461Q662 351 590 292T381 232H155V30Q155 11 145 1T117 -10Q100 -10 90 0ZM478 295T531 333T585 461Q585 555 533 596T382 638H208Q184
638 170 622T155 580V295H381Q478 295 531 333Z" />
<glyph unicode="Q" glyph-name="Q" horiz-adv-x="820" d="M675 -40T663 -40Q645 -40 637 -25Q629 -9 601 43Q514 -10 410 -10Q309 -10 228 34T101 161T54 350Q54 458 100 539T228 665T410 710Q511 710 592 666T719 540T766 350Q766 265 737 197T655 81Q663 64
673 47L691 12Q697 -2 697 -11Q697 -26 682 -35Q675 -40 663 -40ZM241 186T295 215T414 245Q480 245 530 217T616 140Q652 178 671 231T691 350Q691 444 654 511T552 612T408 646Q328 646 265 611T165 509T129 350Q129 283 149 229T206 137Q241 186 295 215ZM498
54T566 98Q511 181 416 181Q363 181 322 158T256 96Q323 54 410 54Q498 54 566 98Z" />
<glyph unicode="R" glyph-name="R" horiz-adv-x="717" d="M76 575Q76 632 109 666T207 700H394Q666 700 666 474Q666 365 600 309T401 253L595 52Q604 43 604 29Q604 11 589 0Q577 -9 564 -9Q544 -9 526 11L296 253H161V33Q161 13 150 2T118 -10Q98 -10 87 1T76
33V575ZM399 322Q491 322 535 356T580 474Q580 558 535 594T399 631H212Q189 631 175 616T161 575V322H399Z" />
<glyph unicode="S" glyph-name="S" horiz-adv-x="681" d="M269 -10T189 22T63 112Q55 122 55 133Q55 147 70 160Q78 166 87 166Q105 166 119 149Q160 104 222 80T365 55Q453 55 501 87T549 180Q549 232 503 264T345 321Q200 353 137 401T73 530Q73 613 143 661T334
710Q425 710 498 678T603 592Q609 582 609 573Q609 557 592 545Q585 541 576 541Q554 541 542 558Q513 600 460 622T334 645Q149 645 149 530Q149 495 168 472T229 430T348 393Q496 358 561 309T626 180Q626 92 556 41T365 -10Q269 -10 189 22Z" />
<glyph unicode="T" glyph-name="T" horiz-adv-x="699" d="M331 -10T322 0T312 30V638H83Q65 638 55 645T44 668Q44 700 83 700H617Q656 700 656 668Q656 654 646 646T617 638H388V30Q388 11 378 1T349 -10Q331 -10 322 0Z" />
<glyph unicode="U" glyph-name="U" horiz-adv-x="737" d="M275 -10T210 25T109 126T74 283V670Q74 689 84 699T111 710Q129 710 139 700T149 670V280Q149 172 206 113T366 54Q470 54 528 113T587 280V670Q587 689 597 699T625 710Q643 710 652 700T662 670V283Q662
195 626 129T523 26T364 -10Q275 -10 210 25Z" />
<glyph unicode="V" glyph-name="V" horiz-adv-x="733" d="M306 -10T270 37T202 191L59 665Q56 676 56 683Q56 710 91 710Q109 710 118 703T133 674L275 198Q299 118 319 86T367 53Q393 53 414 86T459 198L601 675Q607 695 616 702T643 710Q678 710 678 683Q678
676 675 665L531 191Q497 80 461 35T367 -10Q306 -10 270 37Z" />
<glyph unicode="W" glyph-name="W" horiz-adv-x="947" d="M228 -10T202 18T165 105L56 666Q54 676 54 680Q54 710 88 710Q109 710 118 701T130 674L236 103Q241 75 249 65T272 54Q288 54 296 65T308 102L387 617Q394 663 416 686T474 710Q546 710 560 617L639
102Q643 76 651 65T675 54Q689 54 697 65T711 103L817 674Q820 693 829 701T859 710Q893 710 893 680Q893 676 891 666L782 105Q771 49 747 20T676 -10Q633 -10 609 18T575 104L497 609Q494 629 489 637T474 646Q464 646 459 638T450 609L372 104Q363 46 339 18T271
-10Q228 -10 202 18Z" />
<glyph unicode="X" glyph-name="X" horiz-adv-x="712" d="M658 36T658 22Q658 5 643 -4Q633 -10 624 -10Q607 -10 592 10L356 305L119 10Q104 -10 87 -10Q72 -10 63 -1T54 22Q54 36 63 46L313 358L77 653Q69 664 69 677Q69 696 83 704Q92 710 101 710Q116 710
132 690L356 411L579 690Q594 710 611 710Q619 710 628 704Q643 695 643 677Q643 662 635 653L398 358L649 46Q658 36 658 22Z" />
<glyph unicode="Y" glyph-name="Y" horiz-adv-x="696" d="M620 710T630 700T640 670V545Q640 460 609 392T519 281T386 230V30Q386 11 376 1T348 -10Q331 -10 321 0T311 30V230Q233 238 176 279T87 388T56 545V670Q56 689 66 699T93 710Q111 710 121 700T131 670V542Q131
424 188 358T348 292Q449 292 507 358T565 542V670Q565 689 575 699T603 710Q620 710 630 700Z" />
<glyph unicode="Z" glyph-name="Z" horiz-adv-x="703" d="M112 0T83 23T54 93Q54 129 67 153T117 206L530 542Q550 558 557 571T565 604Q565 638 523 638H115Q96 638 85 645T73 668Q73 700 115 700H532Q583 700 612 677T641 607Q641 570 628 547T578 495L164 158Q145
143 138 129T130 96Q130 62 175 62H608Q627 62 638 55T649 32Q649 16 638 8T608 0H163Q112 0 83 23Z" />
<glyph unicode="[" glyph-name="bracketleft" horiz-adv-x="331" d="M77 -197T77 -132V717Q77 782 149 782H244Q284 782 284 750Q284 736 274 728T244 720H152V-135H244Q263 -135 273 -143T284 -165Q284 -197 244 -197H149Q77 -197 77 -132Z" />
<glyph unicode="\" glyph-name="backslash" horiz-adv-x="545" d="M470 -107T462 -107Q452 -107 443 -101T429 -84L51 750Q47 760 47 766Q47 788 68 795Q77 798 85 798Q106 798 116 776L493 -57Q497 -64 497 -74Q497 -83 492 -91T476 -104Q470 -107 462 -107Z" />
<glyph unicode="]" glyph-name="bracketright" horiz-adv-x="331" d="M47 -197T47 -165Q47 -151 57 -143T87 -135H179V720H87Q68 720 58 728T47 750Q47 782 87 782H182Q254 782 254 717V-132Q254 -197 182 -197H87Q47 -197 47 -165Z" />
<glyph unicode="^" glyph-name="asciicircum" horiz-adv-x="594" d="M50 360T50 376Q50 384 55 392L267 692Q279 710 297 710Q316 710 328 692L540 392Q545 385 545 376Q545 358 529 347Q518 339 506 339Q487 339 476 355L297 619L118 355Q113 348 106 344T89
339Q77 339 66 347Q50 360 50 376Z" />
<glyph unicode="_" glyph-name="underscore" horiz-adv-x="579" d="M72 -127T61 -119T50 -96Q50 -64 91 -64H488Q529 -64 529 -96Q529 -110 518 -118T488 -127H91Q72 -127 61 -119Z" />
<glyph unicode="`" glyph-name="grave" horiz-adv-x="225" d="M160 555T154 555Q137 555 128 572L50 710Q44 721 44 730Q44 747 64 757Q73 762 83 762Q104 762 116 734L178 593Q181 586 181 579Q181 565 166 558Q160 555 154 555Z" />
<glyph unicode="a" glyph-name="a" horiz-adv-x="576" d="M155 -10T100 33T44 152Q44 227 102 271T262 315Q321 315 366 299T437 256V320Q437 377 400 407T290 437Q197 437 129 393Q112 383 101 383Q91 383 81 391Q70 400 70 414Q70 429 83 439Q119 467 174 483T288
500Q394 500 452 452T511 317V29Q511 -10 475 -10Q459 -10 449 0T439 28V64Q377 -10 253 -10Q155 -10 100 33ZM340 51T389 80T438 157Q438 204 393 229T264 255Q194 255 156 229T118 152Q118 103 155 77T262 51Q340 51 389 80Z" />
<glyph unicode="b" glyph-name="b" horiz-adv-x="667" d="M88 -10T79 0T69 30V719Q69 738 78 748T105 759Q122 759 132 749T142 719L143 398Q227 500 358 500Q439 500 499 469T591 381T624 245Q624 123 554 57T357 -10Q216 -10 142 94V30Q142 12 133 1T105 -10Q88
-10 79 0ZM450 53T500 101T550 245Q550 335 497 386T352 437Q292 437 244 413T169 344T142 245Q142 156 198 105T352 53Q450 53 500 101Z" />
<glyph unicode="c" glyph-name="c" horiz-adv-x="588" d="M233 -10T172 21T78 111T45 246Q45 322 78 379T172 468T313 500Q388 500 443 479T530 417Q538 406 538 396Q538 381 523 369Q516 363 505 363Q488 363 473 378Q420 437 313 437Q220 437 170 388T119 246Q119
155 170 104T313 53Q364 53 407 68T478 113Q495 130 510 130Q519 130 530 122Q544 110 544 96Q544 83 533 74Q484 30 431 10T313 -10Q233 -10 172 21Z" />
<glyph unicode="d" glyph-name="d" horiz-adv-x="667" d="M186 -10T115 57T43 242Q43 316 74 374T166 466T312 500Q384 500 434 473T524 398L525 719Q525 738 534 748T562 759Q579 759 588 749T598 719V30Q598 11 589 1T562 -10Q545 -10 535 0T525 30V94Q490 43
436 17T310 -10Q186 -10 115 57ZM413 53T469 104T525 245Q525 304 497 347T421 414T317 437Q223 437 170 384T117 242Q117 148 169 101T316 53Q413 53 469 104Z" />
<glyph unicode="e" glyph-name="e" horiz-adv-x="619" d="M185 -10T114 57T43 247Q43 365 115 432T312 500Q389 500 449 476T542 407T576 305Q576 263 553 240T488 217H118Q118 140 170 97T315 53Q372 53 413 65T490 106Q509 122 521 122Q530 122 538 114Q552
102 552 89Q552 79 540 67Q499 28 444 9T315 -10Q185 -10 114 57ZM466 276Q484 276 493 283T502 311Q502 347 478 376T411 421T312 437Q223 437 172 394T120 276H466Z" />
<glyph unicode="f" glyph-name="f" horiz-adv-x="448" d="M412 685T412 672Q412 659 401 648Q391 640 382 640Q369 640 347 653Q311 674 270 674Q196 674 196 594V490H338Q377 490 377 459Q377 445 367 437T338 429H196V30Q196 11 187 1T160 -10Q143 -10 133 0T123
30V429H75Q56 429 46 437T35 459Q35 490 75 490H123V590Q123 657 162 697T267 738Q308 738 343 727T402 694Q412 685 412 672Z" />
<glyph unicode="g" glyph-name="g" horiz-adv-x="662" d="M257 -251T199 -230T105 -169Q97 -161 97 -149Q97 -134 113 -123Q123 -116 132 -116Q147 -116 162 -132Q186 -158 226 -174T322 -190Q420 -190 472 -143T524 -7V87Q490 42 435 14T307 -15Q180 -15 111
53T42 235Q42 312 72 371T164 465T314 500Q380 500 433 473T524 396V462Q524 478 534 489T561 500Q577 500 587 490T597 462V-7Q597 -82 564 -137T469 -221T329 -251Q257 -251 199 -230ZM368 50T415 71T493 135T523 242Q523 298 499 342T429 411T319 437Q222 437
169 385T116 235Q116 149 166 100T314 50Q368 50 415 71Z" />
<glyph unicode="h" glyph-name="h" horiz-adv-x="611" d="M90 -10T81 0T71 30V719Q71 738 80 748T107 759Q124 759 134 749T144 719V401Q181 450 233 475T348 500Q443 500 494 447T546 295V30Q546 11 536 1T509 -10Q491 -10 482 0T473 30V295Q473 437 339 437Q251
437 198 385T144 247V30Q144 12 135 1T107 -10Q90 -10 81 0Z" />
<glyph unicode="i" glyph-name="i" horiz-adv-x="250" d="M102 606T87 620T71 656Q71 677 86 692T124 707Q146 707 162 692T179 656Q179 636 163 621T124 606Q102 606 87 620ZM107 -10T98 0T88 30V460Q88 479 97 489T124 500Q142 500 151 490T161 460V30Q161 11
152 1T124 -10Q107 -10 98 0Z" />
<glyph unicode="j" glyph-name="j" horiz-adv-x="334" d="M184 609T168 624T152 659Q152 680 168 695T206 710Q228 710 244 695T261 659Q261 639 245 624T206 609Q184 609 168 624ZM53 -292T43 -283T33 -259Q33 -245 43 -237T69 -228Q110 -228 131 -219T160 -186T169
-116L170 460Q170 479 179 489T206 500Q224 500 233 490T243 460L242 -116Q242 -203 203 -247T69 -292Q53 -292 43 -283Z" />
<glyph unicode="k" glyph-name="k" horiz-adv-x="582" d="M92 -10T83 0T73 30V719Q73 738 82 748T109 759Q126 759 136 749T146 719V271L478 495Q488 502 499 502Q516 502 524 488Q529 481 529 469Q529 451 513 441L334 322Q421 263 469 193T535 29Q538 13 529
2T503 -10Q470 -10 464 18Q443 114 403 170T275 283L146 196V30Q146 12 137 1T109 -10Q92 -10 83 0Z" />
<glyph unicode="l" glyph-name="l" horiz-adv-x="255" d="M110 -10T101 0T91 30V719Q91 738 100 748T127 759Q144 759 154 749T164 719V30Q164 12 155 1T127 -10Q110 -10 101 0Z" />
<glyph unicode="m" glyph-name="m" horiz-adv-x="825" d="M88 -10T79 0T69 30V460Q69 479 78 489T105 500Q123 500 132 489T142 460V403Q169 448 211 474T301 500Q348 500 384 475T437 403Q472 450 514 475T603 500Q682 500 722 452T762 308V30Q762 11 752 1T725
-10Q689 -10 689 30V310Q689 374 668 405T594 437Q550 437 515 411T459 334V30Q459 11 449 1T422 -10Q405 -10 396 0T386 30V295Q386 364 362 400T292 437Q249 437 215 414T162 349T142 256V30Q142 12 133 1T105 -10Q88 -10 79 0Z" />
<glyph unicode="n" glyph-name="n" horiz-adv-x="611" d="M90 -10T81 0T71 30V460Q71 479 80 489T107 500Q124 500 133 490T143 460V401Q180 450 232 475T348 500Q443 500 494 447T546 295V30Q546 11 536 1T509 -10Q491 -10 482 0T473 30V295Q473 437 339 437Q251
437 198 385T144 247V30Q144 12 135 1T107 -10Q90 -10 81 0Z" />
<glyph unicode="o" glyph-name="o" horiz-adv-x="637" d="M232 -10T170 25T77 118T45 245Q45 313 76 371T170 465T319 500Q406 500 467 465T560 372T592 245Q592 177 561 119T468 25T319 -10Q232 -10 170 25ZM409 53T463 104T518 245Q518 335 464 386T319 437Q228
437 174 386T119 245Q119 155 173 104T319 53Q409 53 463 104Z" />
<glyph unicode="p" glyph-name="p" horiz-adv-x="667" d="M88 -299T79 -289T69 -259V460Q69 479 78 489T105 500Q123 500 132 489T142 460V396Q219 500 364 500Q485 500 554 433T624 249Q624 170 592 112T501 22T361 -10Q292 -10 240 14T143 92V-259Q143 -277
133 -288T105 -299Q88 -299 79 -289ZM447 53T498 105T550 251Q550 341 500 389T355 437Q256 437 199 387T142 249Q142 191 168 147T243 78T356 53Q447 53 498 105Z" />
<glyph unicode="q" glyph-name="q" horiz-adv-x="667" d="M545 -299T535 -289T524 -259V92Q484 42 429 16T305 -10Q183 -10 113 57T43 242Q43 364 113 432T310 500Q452 500 525 396V460Q525 479 535 489T562 500Q579 500 588 490T598 460V-259Q598 -278 589 -288T562
-299Q545 -299 535 -289ZM373 53T421 78T497 146T525 245Q525 334 469 385T316 437Q218 437 168 388T117 242Q117 153 168 103T312 53Q373 53 421 78Z" />
<glyph unicode="r" glyph-name="r" horiz-adv-x="432" d="M90 -10T81 0T71 30V460Q71 479 80 489T107 500Q124 500 133 490T143 460V400Q211 490 331 490H356Q375 490 386 482T397 458Q397 443 386 435T356 427H328Q243 427 194 379T144 247V30Q144 12 135 1T107
-10Q90 -10 81 0Z" />
<glyph unicode="s" glyph-name="s" horiz-adv-x="517" d="M213 -10T151 16T53 90Q46 100 46 110Q46 120 51 127T66 139Q74 142 79 142Q88 142 94 138T110 123Q175 54 283 54Q335 54 367 72T399 122Q399 145 387 159T345 186T248 222Q183 244 146 264T91 309T73
372Q73 430 123 465T258 500Q320 500 373 479T453 421Q461 410 461 400Q461 385 445 376Q435 370 425 370Q408 370 393 385Q367 411 336 423T257 436Q204 436 176 419T148 371Q148 348 159 335T196 311T286 279Q358 255 397 234T454 186T472 122Q472 62 420 26T283
-10Q213 -10 151 16Z" />
<glyph unicode="t" glyph-name="t" horiz-adv-x="452" d="M415 90T415 78Q415 68 406 54Q385 25 348 8T272 -10Q206 -10 168 29T130 136V429H76Q36 429 36 460Q36 474 46 482T76 490H130V661Q130 680 139 690T167 701Q184 701 193 691T203 661V490H339Q357 490
367 483T378 460Q378 429 339 429H203V130Q203 53 275 53Q298 53 317 62T355 91Q370 107 384 107Q393 107 404 99Q415 90 415 78Z" />
<glyph unicode="u" glyph-name="u" horiz-adv-x="611" d="M177 -10T122 46T66 202V460Q66 479 76 489T103 500Q120 500 129 490T139 460V202Q139 131 177 92T283 53Q337 53 379 77T444 144T468 243V460Q468 479 477 489T505 500Q522 500 531 490T541 460V30Q541
11 532 1T505 -10Q487 -10 478 1T468 30V89Q431 41 382 16T275 -10Q177 -10 122 46Z" />
<glyph unicode="v" glyph-name="v" horiz-adv-x="614" d="M259 -10T226 19T170 109L46 452Q44 460 44 463Q44 474 51 483T69 497Q74 499 84 499Q96 499 104 493T117 476L243 129Q259 86 273 69T307 52Q327 52 341 68T371 127L497 476Q506 499 530 499Q548 499
559 489T571 463Q571 460 569 452L443 107Q421 46 388 18T307 -10Q259 -10 226 19Z" />
<glyph unicode="w" glyph-name="w" horiz-adv-x="787" d="M188 -10T160 14T124 80L48 463Q45 479 55 489T82 500Q102 500 111 494T124 470L196 88Q202 53 226 53Q240 53 247 61T257 88L311 425Q316 458 339 479T393 500Q424 500 447 479T476 425L529 88Q532 69
539 61T561 53Q585 53 591 88L662 470Q665 487 674 493T704 500Q723 500 732 489T739 463L662 80Q653 38 625 14T561 -10Q480 -10 465 82L412 411Q407 437 393 437Q378 437 374 411L321 82Q306 -10 226 -10Q188 -10 160 14Z" />
<glyph unicode="x" glyph-name="x" horiz-adv-x="558" d="M514 37T514 25Q514 11 499 -3Q490 -10 482 -10Q467 -10 452 6L279 200L106 6Q92 -10 76 -10Q67 -10 57 -2Q44 9 44 24Q44 37 55 50L233 251L65 439Q54 452 54 466Q54 482 67 492Q75 499 87 499Q105 499
117 484L279 302L441 484Q455 499 470 499Q482 499 490 492Q503 483 503 467Q503 452 492 439L324 251L503 50Q514 37 514 25Z" />
<glyph unicode="y" glyph-name="y" horiz-adv-x="626" d="M220 -250T162 -228T77 -168Q70 -158 70 -148Q70 -132 86 -120Q92 -115 104 -115Q121 -115 136 -131Q158 -157 200 -172T291 -188Q381 -188 433 -134T486 12V80Q455 39 407 18T301 -4Q179 -4 111 65T42
259V463Q42 478 53 488T80 499Q96 499 106 489T117 463V259Q117 163 165 110T301 56Q387 56 434 107T481 252V453Q481 475 491 487T521 500Q539 500 549 488T560 453V17Q560 -62 527 -122T433 -216T294 -250Q220 -250 162 -228Z" />
<glyph unicode="z" glyph-name="z" horiz-adv-x="548" d="M107 0T76 24T45 96Q45 129 61 151T110 192L387 343Q409 355 417 365T425 391Q425 408 412 417T375 426H97Q49 426 49 458Q49 490 97 490H371Q430 490 463 465T496 393Q496 357 480 334T432 294L154 146Q135
136 125 123T114 97Q114 81 126 73T161 64H455Q503 64 503 33Q503 0 455 0H166Q107 0 76 24Z" />
<glyph unicode="{" glyph-name="braceleft" horiz-adv-x="402" d="M204 -197T173 -165T141 -79V122Q141 171 126 194T82 238Q65 250 57 259T49 283Q49 296 56 304T80 324Q108 344 124 368T141 443V664Q141 716 172 749T265 782H315Q334 782 344 774T354 751Q354
720 315 720H268Q244 720 230 706T216 667V443Q216 386 196 348T131 283Q176 254 196 217T216 122V-82Q216 -106 230 -120T268 -135H315Q354 -135 354 -166Q354 -181 344 -189T315 -197H265Q204 -197 173 -165Z" />
<glyph unicode="|" glyph-name="bar" horiz-adv-x="225" d="M94 -197T85 -186T75 -157V742Q75 760 84 771T112 782Q130 782 140 771T150 742V-157Q150 -175 140 -186T112 -197Q94 -197 85 -186Z" />
<glyph unicode="}" glyph-name="braceright" horiz-adv-x="402" d="M69 -197T59 -189T49 -166Q49 -135 87 -135H135Q159 -135 172 -121T186 -82V122Q186 178 206 216T272 283Q227 310 207 348T186 443V667Q186 691 173 705T135 720H87Q49 720 49 751Q49 766 59
774T87 782H137Q199 782 230 749T262 664V443Q262 393 278 369T323 324Q339 313 346 305T354 283Q354 268 346 259T321 238Q293 217 278 194T262 122V-79Q262 -133 231 -165T137 -197H87Q69 -197 59 -189Z" />
<glyph unicode="~" glyph-name="asciitilde" horiz-adv-x="571" d="M50 259T50 275Q50 285 54 293Q94 377 179 377Q208 377 233 369T297 345Q326 332 345 326T384 319Q412 319 429 329T456 361Q467 388 487 388Q502 388 511 380T520 358Q520 348 516 340Q479 256
392 256Q363 256 338 263T275 287Q243 300 224 306T183 313Q156 313 140 303T114 271Q100 245 83 245Q75 245 67 249Q50 259 50 275Z" />
<glyph unicode="&#xa0;" glyph-name="uni00A0" horiz-adv-x="268" />
<glyph unicode="&#xa1;" glyph-name="exclamdown" horiz-adv-x="270" d="M109 387T92 403T74 445Q74 469 91 484T135 500Q162 500 179 485T196 445Q196 420 179 404T135 387Q109 387 92 403ZM116 -220T105 -210T94 -180L100 289Q100 327 134 327Q151 327 160 317T169
289L175 -180Q175 -198 164 -209T134 -220Q116 -220 105 -210Z" />
<glyph unicode="&#xa2;" glyph-name="cent" horiz-adv-x="592" d="M548 110T548 96Q548 85 537 74Q496 35 448 15T337 -9V-77Q337 -110 307 -110Q278 -110 278 -77V-8Q170 2 108 71T45 246Q45 309 70 363T148 454T278 498V566Q278 599 307 599Q337 599 337 566V500Q403
497 453 477T534 418Q542 409 542 396Q542 379 528 369Q521 363 509 363Q491 363 478 378Q429 432 337 436V54Q432 60 482 113Q499 130 515 130Q524 130 534 122Q548 110 548 96ZM119 168T159 117T278 55V435Q200 425 160 376T119 246Q119 168 159 117Z" />
<glyph unicode="&#xa3;" glyph-name="sterling" horiz-adv-x="619" d="M401 -10T378 -4T325 14Q298 24 279 29T237 35Q204 35 181 27T134 1Q123 -7 109 -7Q86 -7 71 13Q62 25 62 39Q62 58 81 74Q139 122 166 159T193 243Q193 264 188 284T174 317H87Q50 317 50
348Q50 380 87 380H140Q117 409 105 444T93 515Q93 607 151 658T312 710Q387 710 446 677T537 586Q542 576 542 569Q542 552 524 542Q514 537 504 537Q484 537 471 556Q442 600 405 622T312 645Q244 645 206 610T167 514Q167 483 181 448T222 380H395Q430 380 430
348Q430 333 421 325T395 317H251Q267 283 267 243Q267 194 241 155T169 77L170 75Q213 98 249 98Q273 98 292 93T338 77Q366 66 386 61T433 55Q455 55 473 62T512 90Q525 101 537 101Q547 101 557 94Q568 86 568 71Q568 56 558 45Q533 17 499 4T428 -10Q401 -10
378 -4Z" />
<glyph unicode="&#xa4;" glyph-name="currency" horiz-adv-x="610" d="M50 86T50 101Q50 117 66 133L104 172Q51 238 51 324Q51 410 104 477L66 516Q51 531 51 547Q51 560 64 575Q76 588 92 588Q112 588 128 570L164 531Q195 552 231 563T305 574Q380 574 445
531L483 570Q500 587 517 587Q533 587 546 575Q560 563 560 548Q560 534 544 516L506 477Q558 411 558 324Q558 237 506 172L544 132Q559 117 559 101Q559 86 546 73Q533 60 518 60Q501 60 483 78L445 117Q380 74 305 74Q268 74 232 85T164 117L127 78Q110 61 92
61Q77 61 65 72Q50 86 50 101ZM388 138T436 187T485 324Q485 411 437 460T305 510Q221 510 173 461T124 324Q124 237 172 188T305 138Q388 138 436 187Z" />
<glyph unicode="&#xa5;" glyph-name="yen" horiz-adv-x="684" d="M614 710T624 700T634 670V545Q634 460 603 392T513 281T380 230V222H487Q503 222 512 217T522 196Q522 170 487 170H380V128H487Q504 128 513 123T522 102Q522 76 487 76H380V30Q380 11 370 1T342
-10Q325 -10 315 0T305 30V76H205Q187 76 178 82T169 102Q169 117 178 122T205 128H305V170H205Q187 170 178 176T169 196Q169 212 178 217T205 222H305V230Q227 238 170 279T81 388T50 545V670Q50 689 60 699T87 710Q105 710 115 700T125 670V542Q125 424 182
358T342 292Q443 292 501 358T559 542V670Q559 689 569 699T597 710Q614 710 624 700Z" />
<glyph unicode="&#xa6;" glyph-name="brokenbar" horiz-adv-x="225" d="M94 368T85 379T75 408V742Q75 760 84 771T112 782Q130 782 140 771T150 742V408Q150 390 140 379T112 368Q94 368 85 379ZM94 -197T85 -186T75 -157V177Q75 195 84 206T112 217Q130 217
140 206T150 177V-157Q150 -175 140 -186T112 -197Q94 -197 85 -186Z" />
<glyph unicode="&#xa7;" glyph-name="section" horiz-adv-x="552" d="M215 -75T172 -53T106 10T82 101Q82 137 123 137Q138 137 148 127T158 100Q158 47 188 18T272 -12Q321 -12 349 9T377 66Q377 114 329 142L124 260Q49 304 49 386Q49 425 72 457T139 510Q120
528 111 548T102 595Q102 659 150 695T277 732Q360 732 408 691T456 576Q456 561 447 551T422 541Q406 541 396 551T386 576Q386 669 275 669Q228 669 201 649T174 595Q174 575 183 559T209 534L445 396Q474 379 488 351T503 287Q503 249 477 214T407 159Q450 119
450 68Q450 4 401 -35T272 -75Q215 -75 172 -53ZM391 211T412 235T434 287Q434 314 424 331T388 362L191 473Q118 446 118 386Q118 357 131 338T169 305L356 199Q391 211 412 235Z" />
<glyph unicode="&#xa8;" glyph-name="dieresis" horiz-adv-x="399" d="M76 575T61 589T46 624Q46 645 61 659T97 674Q117 674 131 659T146 624Q146 604 132 590T97 575Q76 575 61 589ZM283 575T268 589T253 624Q253 644 268 659T304 674Q324 674 339 659T354 624Q354
604 339 590T304 575Q283 575 268 589Z" />
<glyph unicode="&#xa9;" glyph-name="copyright" horiz-adv-x="855" d="M324 -18T238 30T101 163T50 350Q50 452 100 536T237 669T428 718Q532 718 618 670T755 537T805 350Q805 247 755 163T619 31T428 -18Q324 -18 238 30ZM515 47T585 86T696 194T737 350Q737
437 697 506T586 615T428 655Q340 655 270 616T159 507T118 350Q118 264 158 195T269 86T428 47Q515 47 585 86ZM324 108T257 171T190 344Q190 416 220 469T306 550T437 579Q498 579 550 556T639 488Q647 477 647 468Q647 456 635 444Q628 437 616 437Q600 437
587 450Q525 517 437 517Q355 517 307 473T259 344Q259 260 307 215T437 169Q480 169 518 185T586 235Q598 249 613 249Q623 249 634 241Q645 232 645 218Q645 206 636 197Q591 153 539 131T437 108Q324 108 257 171Z" />
<glyph unicode="&#xaa;" glyph-name="ordfeminine" horiz-adv-x="419" d="M115 384T81 415T46 494Q46 543 84 573T186 604Q222 604 251 594T298 566V592Q298 624 274 642T203 661Q144 661 101 634Q92 628 83 628Q75 628 67 636Q60 643 60 652Q60 662 70 670Q93
688 129 699T202 710Q272 710 311 679T351 594V408Q351 397 344 391T325 384Q314 384 307 390T299 408V431Q259 384 179 384Q115 384 81 415ZM236 431T267 447T298 496Q298 524 268 541T188 558Q146 558 124 541T102 495Q102 465 124 448T186 431Q236 431 267 447Z"
/>
<glyph unicode="&#xab;" glyph-name="guillemotleft" horiz-adv-x="479" d="M249 45T240 45Q224 45 213 59L61 246Q52 257 52 266Q52 277 61 288L213 475Q226 490 241 490Q249 490 258 484Q273 474 273 457Q273 446 265 436L124 267L265 98Q273 88 273 77Q273
60 258 51Q249 45 240 45ZM403 45T394 45Q378 45 367 59L215 246Q211 251 209 256T206 266Q206 277 215 288L367 475Q380 490 395 490Q403 490 412 484Q427 474 427 457Q427 446 419 436L278 267L419 98Q427 88 427 78Q427 63 412 51Q403 45 394 45Z" />
<glyph unicode="&#xac;" glyph-name="logicalnot" horiz-adv-x="506" d="M406 105T397 115T388 143V242H89Q70 242 60 250T49 273Q49 305 89 305H415Q456 305 456 273V143Q456 105 422 105Q406 105 397 115Z" />
<glyph unicode="&#xad;" glyph-name="uni00AD" horiz-adv-x="474" d="M70 212T60 220T49 243Q49 275 89 275H385Q425 275 425 243Q425 229 415 221T385 212H89Q70 212 60 220Z" />
<glyph unicode="&#xae;" glyph-name="registered" horiz-adv-x="855" d="M321 -21T234 27T96 161T45 350Q45 454 95 539T234 672T428 721Q534 721 621 673T759 539T810 350Q810 246 760 161T622 28T428 -21Q321 -21 234 27ZM516 51T585 89T694 195T733 350Q733
437 694 505T586 612T428 651Q339 651 270 613T161 506T121 350Q121 263 160 195T269 89T428 51Q516 51 585 89ZM250 477Q250 519 276 545T352 571H456Q543 571 590 536T638 430Q638 367 592 331T474 294L587 175Q596 165 596 154Q596 142 584 131Q574 123 563
123Q547 123 535 136L392 292H318V158Q318 143 309 134T284 124Q268 124 259 133T250 158V477ZM469 352Q513 351 541 370T569 430Q569 476 542 495T459 515H352Q337 515 328 506T318 480V354L469 352Z" />
<glyph unicode="&#xaf;" glyph-name="overscore" horiz-adv-x="404" d="M44 558T44 584Q44 600 53 605T80 611H325Q343 611 352 605T361 584Q361 558 325 558H80Q44 558 44 584Z" />
<glyph unicode="&#xb0;" glyph-name="degree" horiz-adv-x="353" d="M123 586T86 619T49 705Q49 758 86 791T177 824Q231 824 267 791T304 705Q304 652 268 619T177 586Q123 586 86 619ZM206 639T224 657T242 705Q242 734 224 752T177 771Q147 771 129 753T111
705Q111 676 129 658T177 639Q206 639 224 657Z" />
<glyph unicode="&#xb1;" glyph-name="plusminus" horiz-adv-x="508" d="M41 249T31 257T20 280Q20 312 60 312H221V427Q221 445 229 455T254 465Q271 465 280 455T289 427V312H449Q488 312 488 280Q488 266 478 258T449 249H289V138Q289 120 280 110T254 100Q238
100 230 110T221 138V249H60Q41 249 31 257ZM488 63T488 31Q488 17 478 9T449 0H60Q41 0 31 8T20 31Q20 63 60 63H449Q488 63 488 31Z" />
<glyph unicode="&#xb2;" glyph-name="uni00B2" horiz-adv-x="452" d="M67 400T59 409T50 431Q50 449 65 461L279 634Q305 655 316 672T327 718Q327 751 304 771T235 791Q159 791 115 736Q110 730 102 726T85 722Q77 722 69 727Q56 736 56 752Q56 764 64 775Q92
811 136 829T235 847Q312 847 355 812T399 718Q399 682 379 651T316 586L154 454H368Q403 454 403 429Q403 400 368 400H82Q67 400 59 409Z" />
<glyph unicode="&#xb3;" glyph-name="uni00B3" horiz-adv-x="462" d="M178 394T131 413T58 469Q49 479 49 493Q49 509 63 516Q71 521 81 521Q97 521 110 505Q131 479 162 465T232 450Q284 450 312 470T340 526Q340 601 263 601H197Q183 601 175 609T166 629Q166
659 197 659H263Q293 659 311 676T330 722Q330 755 306 773T232 791Q202 791 174 779T123 744Q109 730 93 730Q83 730 76 736Q64 745 64 760Q64 773 73 782Q102 812 144 829T235 847Q315 847 358 813T402 724Q402 695 386 672T337 633V631Q413 602 413 522Q413
463 364 429T232 394Q178 394 131 413Z" />
<glyph unicode="&#xb4;" glyph-name="acute" horiz-adv-x="225" d="M44 565T44 580Q44 587 47 593L109 734Q121 762 142 762Q152 762 161 757Q181 747 181 730Q181 721 175 710L97 572Q88 555 71 555Q65 555 59 558Q44 565 44 580Z" />
<glyph unicode="&#xb5;" glyph-name="uni00B5" horiz-adv-x="624" d="M95 -250T85 -240T75 -210V460Q75 479 85 489T112 500Q130 500 139 490T148 460V202Q148 131 185 92T292 53Q343 53 385 75T452 141T477 243V460Q477 479 486 489T514 500Q531 500 540 490T550
460V30Q550 11 541 1T514 -10Q496 -10 487 1T477 30V89Q443 44 395 17T287 -10Q199 -10 148 49V-210Q148 -229 139 -239T112 -250Q95 -250 85 -240Z" />
<glyph unicode="&#xb6;" glyph-name="paragraph" horiz-adv-x="656" d="M267 -268T258 -257T248 -227V347Q154 347 102 396T50 527Q50 615 104 661T259 708H568Q606 708 606 676Q606 645 568 645H538V-227Q538 -246 528 -257T500 -268Q482 -268 473 -257T463 -227V645H323V-227Q323
-246 313 -257T285 -268Q267 -268 258 -257Z" />
<glyph unicode="&#xb7;" glyph-name="middot" horiz-adv-x="215" d="M84 285T67 301T50 340Q50 363 67 380T108 397Q131 397 148 380T165 340Q165 318 148 302T108 285Q84 285 67 301Z" />
<glyph unicode="&#xb8;" glyph-name="cedilla" horiz-adv-x="296" d="M119 -211T92 -197T50 -161Q43 -151 43 -145Q43 -137 55 -126Q63 -120 70 -120Q80 -120 89 -132Q99 -146 115 -154T151 -162Q172 -162 183 -152T195 -125Q195 -89 159 -89Q150 -89 145 -90Q131
-92 121 -85T110 -64Q110 -58 113 -52L137 -1Q142 11 147 16T163 22Q166 22 174 20Q195 13 195 -1Q195 -6 192 -12L169 -57Q210 -56 231 -76T252 -127Q252 -164 226 -187T154 -211Q119 -211 92 -197Z" />
<glyph unicode="&#xb9;" glyph-name="uni00B9" horiz-adv-x="297" d="M170 394T160 403T150 428V771L89 748Q75 744 69 744Q51 744 43 759Q39 767 39 776Q39 795 60 802L177 845Q181 847 190 847Q203 847 212 839T222 813V428Q222 394 185 394Q170 394 160 403Z" />
<glyph unicode="&#xba;" glyph-name="ordmasculine" horiz-adv-x="442" d="M143 384T95 429T47 547Q47 620 95 665T221 710Q299 710 347 665T395 547Q395 474 347 429T221 384Q143 384 95 429ZM274 434T306 464T338 547Q338 599 307 629T221 660Q167 660 136 630T105
547Q105 495 136 465T221 434Q274 434 306 464Z" />
<glyph unicode="&#xbb;" glyph-name="guillemotright" horiz-adv-x="479" d="M52 62T52 77Q52 88 60 98L201 267L60 436Q52 446 52 457Q52 474 67 484Q76 490 85 490Q99 490 112 475L264 288Q273 277 273 266Q273 261 271 256T264 246L112 60Q99 45 84 45Q76 45
67 51Q52 62 52 77ZM206 62T206 77Q206 88 214 98L355 267L214 436Q206 446 206 457Q206 474 221 484Q230 490 239 490Q253 490 266 475L418 288Q427 277 427 266Q427 261 425 256T418 246L266 60Q254 45 239 45Q230 45 221 51Q206 62 206 77Z" />
<glyph unicode="&#xbc;" glyph-name="onequarter" horiz-adv-x="786" d="M130 4T130 21Q130 33 137 43L586 696Q597 712 615 712Q625 712 636 706Q652 697 652 681Q652 669 645 659L195 4Q184 -12 166 -12Q154 -12 144 -5Q130 4 130 21ZM188 256T178 265T168 290V633L107
610Q93 606 87 606Q69 606 61 621Q57 629 57 638Q57 657 78 664L195 707Q199 709 208 709Q221 709 230 701T240 675V290Q240 256 203 256Q188 256 178 265ZM608 -10T600 -1T592 25V88H383Q368 88 359 96T350 116Q350 126 358 136L599 432Q608 443 626 443Q642 443
651 436T660 413V147H695Q712 147 720 139T729 117Q729 104 720 96T695 88H660V25Q660 8 650 -1T623 -10Q608 -10 600 -1ZM594 147V339L438 147H594Z" />
<glyph unicode="&#xbd;" glyph-name="onehalf" horiz-adv-x="891" d="M129 4T129 21Q129 33 136 43L585 696Q596 712 614 712Q625 712 635 706Q651 697 651 681Q651 669 644 659L194 4Q183 -12 165 -12Q153 -12 143 -5Q129 4 129 21ZM187 256T177 265T167 290V633L106
610Q92 606 86 606Q68 606 60 621Q56 629 56 638Q56 657 77 664L194 707Q198 709 207 709Q220 709 229 701T239 675V290Q239 256 202 256Q187 256 177 265ZM499 0T491 8T482 30Q482 49 497 61L711 234Q737 255 747 272T758 318Q758 351 735 371T666 391Q629 391
598 377T547 337Q536 322 518 322Q509 322 501 327Q487 335 487 352Q487 363 496 376Q523 410 568 428T666 447Q744 447 787 412T831 318Q831 281 810 250T749 186L586 54H801Q834 54 834 29Q834 14 826 7T801 0H513Q499 0 491 8Z" />
<glyph unicode="&#xbe;" glyph-name="threequarters" horiz-adv-x="914" d="M258 4T258 21Q258 32 265 42L714 696Q725 712 742 712Q753 712 763 706Q780 696 780 680Q780 669 773 659L323 4Q312 -12 294 -12Q282 -12 272 -5Q258 4 258 21ZM185 256T139 275T66
331Q57 344 57 355Q57 370 71 378Q81 383 90 383Q107 383 117 369Q138 342 169 328T240 313Q292 313 320 332T348 389Q348 463 271 463H205Q192 463 183 471T174 491Q174 521 205 521H271Q301 521 319 538T338 584Q338 617 314 635T240 653Q178 653 131 606Q118
593 101 593Q90 593 84 598Q73 606 73 622Q73 636 81 644Q110 674 152 691T243 709Q323 709 366 675T410 586Q410 558 394 534T345 495V494Q421 464 421 384Q421 325 372 291T240 256Q185 256 139 275ZM736 -10T728 -1T719 25V88H511Q496 88 487 96T478 117Q478
128 485 136L727 432Q736 443 754 443Q769 443 778 436T787 413V147H824Q840 147 848 139T857 117Q857 105 848 97T824 88H787V25Q787 8 778 -1T751 -10Q736 -10 728 -1ZM722 147V339L566 147H722Z" />
<glyph unicode="&#xbf;" glyph-name="questiondown" horiz-adv-x="569" d="M262 387T245 403T228 445Q228 470 245 485T288 500Q315 500 332 485T349 445Q349 420 332 404T288 387Q262 387 245 403ZM170 -220T109 -170T48 -32Q48 23 76 58T157 133Q190 158 208
175T239 215T252 269V287Q252 306 262 316T290 327Q308 327 317 317T327 287V269Q327 229 312 199T274 147T216 98Q169 62 147 35T124 -32Q124 -90 164 -122T277 -155Q331 -155 376 -135T452 -78Q467 -60 486 -60Q495 -60 504 -66Q520 -77 520 -93Q520 -103 513
-113Q476 -164 414 -192T277 -220Q170 -220 109 -170Z" />
<glyph unicode="&#xc0;" glyph-name="Agrave" horiz-adv-x="728" d="M95 -10T85 0T75 30V421Q75 557 151 633T364 710Q499 710 576 633T653 421V30Q653 11 643 1T615 -10Q598 -10 588 0T577 30V255H150V30Q150 11 140 1T112 -10Q95 -10 85 0ZM577 317V424Q577
531 522 588T364 646Q260 646 205 589T150 424V317H577ZM370 785T364 785Q347 785 338 802L260 940Q254 951 254 960Q254 977 274 987Q283 992 293 992Q314 992 326 964L388 823Q391 816 391 809Q391 795 376 788Q370 785 364 785Z" />
<glyph unicode="&#xc1;" glyph-name="Aacute" horiz-adv-x="728" d="M95 -10T85 0T75 30V421Q75 557 151 633T364 710Q499 710 576 633T653 421V30Q653 11 643 1T615 -10Q598 -10 588 0T577 30V255H150V30Q150 11 140 1T112 -10Q95 -10 85 0ZM577 317V424Q577
531 522 588T364 646Q260 646 205 589T150 424V317H577ZM339 795T339 810Q339 817 342 823L404 964Q416 992 437 992Q447 992 456 987Q476 977 476 960Q476 951 470 940L392 802Q383 785 366 785Q360 785 354 788Q339 795 339 810Z" />
<glyph unicode="&#xc2;" glyph-name="Acircumflex" horiz-adv-x="728" d="M95 -10T85 0T75 30V421Q75 557 151 633T364 710Q499 710 576 633T653 421V30Q653 11 643 1T615 -10Q598 -10 588 0T577 30V255H150V30Q150 11 140 1T112 -10Q95 -10 85 0ZM577 317V424Q577
531 522 588T364 646Q260 646 205 589T150 424V317H577ZM216 802T216 816Q216 826 226 839L332 965Q346 982 364 982Q382 982 396 965L502 839Q512 827 512 816Q512 802 498 791Q488 784 478 784Q463 784 448 803L364 915L280 803Q265 783 249 783Q242 783 231
790Q216 802 216 816Z" />
<glyph unicode="&#xc3;" glyph-name="Atilde" horiz-adv-x="728" d="M95 -10T85 0T75 30V421Q75 557 151 633T364 710Q499 710 576 633T653 421V30Q653 11 643 1T615 -10Q598 -10 588 0T577 30V255H150V30Q150 11 140 1T112 -10Q95 -10 85 0ZM577 317V424Q577
531 522 588T364 646Q260 646 205 589T150 424V317H577ZM197 808T197 831Q197 840 199 846Q208 880 232 902T293 924Q317 924 335 916T379 891Q396 879 407 873T432 867Q466 867 478 909Q485 930 503 930Q517 930 524 924T532 905L530 893Q520 857 495 836T435
814Q412 814 396 822T356 845Q337 858 324 864T296 871Q264 871 251 830Q243 808 226 808Q197 808 197 831Z" />
<glyph unicode="&#xc4;" glyph-name="Adieresis" horiz-adv-x="728" d="M95 -10T85 0T75 30V421Q75 557 151 633T364 710Q499 710 576 633T653 421V30Q653 11 643 1T615 -10Q598 -10 588 0T577 30V255H150V30Q150 11 140 1T112 -10Q95 -10 85 0ZM577 317V424Q577
531 522 588T364 646Q260 646 205 589T150 424V317H577ZM241 805T226 819T211 854Q211 875 225 889T262 904Q282 904 296 889T311 854Q311 834 297 820T262 805Q241 805 226 819ZM448 805T433 819T418 854Q418 874 433 889T469 904Q489 904 504 889T519 854Q519
834 504 820T469 805Q448 805 433 819Z" />
<glyph unicode="&#xc5;" glyph-name="Aring" horiz-adv-x="728" d="M95 -10T85 0T75 30V421Q75 557 151 633T364 710Q499 710 576 633T653 421V30Q653 11 643 1T615 -10Q598 -10 588 0T577 30V255H150V30Q150 11 140 1T112 -10Q95 -10 85 0ZM577 317V424Q577 531
522 588T364 646Q260 646 205 589T150 424V317H577ZM313 755T282 784T250 858Q250 902 281 931T364 960Q415 960 445 931T476 858Q476 814 446 785T364 755Q313 755 282 784ZM392 801T408 816T425 858Q425 884 409 899T364 915Q336 915 320 900T303 858Q303 832
319 817T364 801Q392 801 408 816Z" />
<glyph unicode="&#xc6;" glyph-name="AE" horiz-adv-x="1121" d="M95 -10T85 0T75 30V421Q75 557 151 633T364 710Q511 710 586 608Q593 653 624 676T701 700H1005Q1044 700 1044 668Q1044 638 1005 638H702Q678 638 664 622T650 580V389H929Q968 389 968 357Q968
326 929 326H650V120Q650 94 664 78T702 62H1027Q1066 62 1066 31Q1066 17 1056 9T1027 0H702Q642 0 610 32T577 122V255H150V30Q150 11 140 1T112 -10Q95 -10 85 0ZM577 317V424Q577 531 522 588T364 646Q260 646 205 589T150 424V317H577Z" />
<glyph unicode="&#xc7;" glyph-name="Ccedilla" horiz-adv-x="747" d="M693 136T693 122Q693 110 684 99Q646 52 578 24T428 -9L427 -12L403 -57Q444 -56 465 -76T487 -127Q487 -164 461 -187T388 -211Q355 -211 327 -197T284 -161Q278 -154 278 -146Q278 -136
289 -126Q297 -120 304 -120Q315 -120 324 -132Q334 -146 350 -154T385 -162Q407 -162 418 -152T429 -125Q429 -89 393 -89Q385 -89 381 -90Q366 -92 356 -85T345 -64Q345 -58 348 -52L368 -9Q273 -2 203 44T94 169T55 349Q55 457 98 539T219 665T401 710Q487 710
559 681T673 600Q681 591 681 578Q681 562 667 552Q658 546 647 546Q628 546 615 561Q583 602 528 624T401 646Q318 646 257 610T164 507T131 349Q131 259 163 193T257 90T402 54Q479 54 536 76T627 139Q642 155 659 155Q671 155 679 148Q693 136 693 122Z" />
<glyph unicode="&#xc8;" glyph-name="Egrave" horiz-adv-x="633" d="M148 0T114 32T80 122V580Q80 636 113 668T207 700H517Q556 700 556 668Q556 654 546 646T517 638H208Q184 638 170 622T155 580V389H441Q480 389 480 357Q480 342 470 334T441 326H155V120Q155
94 169 78T208 62H539Q578 62 578 31Q578 16 568 8T539 0H209Q148 0 114 32ZM349 785T343 785Q326 785 317 802L239 940Q233 951 233 960Q233 977 253 987Q262 992 272 992Q293 992 305 964L367 823Q370 816 370 809Q370 795 355 788Q349 785 343 785Z" />
<glyph unicode="&#xc9;" glyph-name="Eacute" horiz-adv-x="633" d="M148 0T114 32T80 122V580Q80 636 113 668T207 700H517Q556 700 556 668Q556 654 546 646T517 638H208Q184 638 170 622T155 580V389H441Q480 389 480 357Q480 342 470 334T441 326H155V120Q155
94 169 78T208 62H539Q578 62 578 31Q578 16 568 8T539 0H209Q148 0 114 32ZM313 795T313 810Q313 817 316 823L378 964Q390 992 411 992Q421 992 430 987Q450 977 450 960Q450 951 444 940L366 802Q357 785 340 785Q334 785 328 788Q313 795 313 810Z" />
<glyph unicode="&#xca;" glyph-name="Ecircumflex" horiz-adv-x="633" d="M148 0T114 32T80 122V580Q80 636 113 668T207 700H517Q556 700 556 668Q556 654 546 646T517 638H208Q184 638 170 622T155 580V389H441Q480 389 480 357Q480 342 470 334T441 326H155V120Q155
94 169 78T208 62H539Q578 62 578 31Q578 16 568 8T539 0H209Q148 0 114 32ZM190 802T190 816Q190 826 200 839L306 965Q320 982 338 982Q357 982 371 965L476 839Q486 826 486 816Q486 802 472 791Q462 784 452 784Q437 784 422 803L338 915L255 803Q240 783 223
783Q215 783 205 790Q190 802 190 816Z" />
<glyph unicode="&#xcb;" glyph-name="Edieresis" horiz-adv-x="633" d="M148 0T114 32T80 122V580Q80 636 113 668T207 700H517Q556 700 556 668Q556 654 546 646T517 638H208Q184 638 170 622T155 580V389H441Q480 389 480 357Q480 342 470 334T441 326H155V120Q155
94 169 78T208 62H539Q578 62 578 31Q578 16 568 8T539 0H209Q148 0 114 32ZM214 805T199 819T184 854Q184 875 199 889T235 904Q255 904 269 889T284 854Q284 834 270 820T235 805Q214 805 199 819ZM421 805T406 819T391 854Q391 874 406 889T442 904Q462 904
477 889T492 854Q492 834 477 820T442 805Q421 805 406 819Z" />
<glyph unicode="&#xcc;" glyph-name="Igrave" horiz-adv-x="297" d="M131 -10T121 0T111 30V670Q111 689 121 699T148 710Q166 710 176 699T186 670V30Q186 12 176 1T148 -10Q131 -10 121 0ZM159 785T153 785Q136 785 127 802L49 940Q43 951 43 960Q43 977 63
987Q72 992 82 992Q103 992 115 964L177 823Q180 816 180 809Q180 795 165 788Q159 785 153 785Z" />
<glyph unicode="&#xcd;" glyph-name="Iacute" horiz-adv-x="297" d="M131 -10T121 0T111 30V670Q111 689 121 699T148 710Q166 710 176 699T186 670V30Q186 12 176 1T148 -10Q131 -10 121 0ZM123 795T123 810Q123 817 126 823L188 964Q200 992 221 992Q231 992
240 987Q260 977 260 960Q260 951 254 940L176 802Q167 785 150 785Q144 785 138 788Q123 795 123 810Z" />
<glyph unicode="&#xce;" glyph-name="Icircumflex" horiz-adv-x="297" d="M131 -10T121 0T111 30V670Q111 689 121 699T148 710Q166 710 176 699T186 670V30Q186 12 176 1T148 -10Q131 -10 121 0ZM0 802T0 816Q0 826 10 839L116 965Q130 982 148 982Q167 982 181
965L286 839Q296 826 296 816Q296 802 282 791Q272 784 262 784Q247 784 232 803L148 915L65 803Q50 783 33 783Q25 783 15 790Q0 802 0 816Z" />
<glyph unicode="&#xcf;" glyph-name="Idieresis" horiz-adv-x="297" d="M131 -10T121 0T111 30V670Q111 689 121 699T148 710Q166 710 176 699T186 670V30Q186 12 176 1T148 -10Q131 -10 121 0ZM24 805T9 819T-6 854Q-6 875 9 889T45 904Q65 904 79 889T94 854Q94
834 80 820T45 805Q24 805 9 819ZM231 805T216 819T201 854Q201 874 216 889T252 904Q272 904 287 889T302 854Q302 834 287 820T252 805Q231 805 216 819Z" />
<glyph unicode="&#xd0;" glyph-name="Eth" horiz-adv-x="799" d="M205 0T171 32T137 122V321H79Q60 321 50 328T39 350Q39 382 79 382H137V580Q137 636 171 668T264 700H405Q509 700 586 657T706 534T748 349Q748 243 706 165T587 43T405 0H266Q205 0 171 32ZM395
62Q526 62 598 137T671 349Q671 486 599 562T395 638H266Q242 638 228 622T213 580V382H379Q418 382 418 350Q418 321 379 321H213V120Q213 94 227 78T266 62H395Z" />
<glyph unicode="&#xd1;" glyph-name="Ntilde" horiz-adv-x="731" d="M94 -10T84 0T74 30V438Q74 521 109 582T211 677T366 710Q455 710 520 677T621 583T657 438V30Q657 11 648 1T620 -10Q603 -10 593 0T582 30V441Q582 538 525 592T366 646Q266 646 208 591T149
441V30Q149 11 139 1T111 -10Q94 -10 84 0ZM197 805T197 828Q197 837 199 843Q208 877 232 899T293 921Q317 921 335 913T379 888Q396 876 407 870T432 864Q466 864 478 906Q485 927 503 927Q517 927 524 921T532 902L530 890Q520 854 495 833T435 811Q412 811
396 819T356 842Q337 855 324 861T296 868Q264 868 251 827Q243 805 226 805Q197 805 197 828Z" />
<glyph unicode="&#xd2;" glyph-name="Ograve" horiz-adv-x="820" d="M309 -10T228 34T101 161T54 350Q54 458 100 539T228 665T410 710Q511 710 592 666T719 540T766 350Q766 243 720 161T592 35T410 -10Q309 -10 228 34ZM491 54T554 89T654 190T691 350Q691 444
654 511T552 612T408 646Q328 646 265 611T165 509T129 350Q129 257 165 191T265 89T410 54Q491 54 554 89ZM421 785T415 785Q398 785 389 802L311 940Q305 951 305 960Q305 977 325 987Q334 992 344 992Q365 992 377 964L439 823Q442 816 442 809Q442 795 427
788Q421 785 415 785Z" />
<glyph unicode="&#xd3;" glyph-name="Oacute" horiz-adv-x="820" d="M309 -10T228 34T101 161T54 350Q54 458 100 539T228 665T410 710Q511 710 592 666T719 540T766 350Q766 243 720 161T592 35T410 -10Q309 -10 228 34ZM491 54T554 89T654 190T691 350Q691 444
654 511T552 612T408 646Q328 646 265 611T165 509T129 350Q129 257 165 191T265 89T410 54Q491 54 554 89ZM385 795T385 810Q385 817 388 823L450 964Q462 992 483 992Q493 992 502 987Q522 977 522 960Q522 951 516 940L438 802Q429 785 412 785Q406 785 400
788Q385 795 385 810Z" />
<glyph unicode="&#xd4;" glyph-name="Ocircumflex" horiz-adv-x="820" d="M309 -10T228 34T101 161T54 350Q54 458 100 539T228 665T410 710Q511 710 592 666T719 540T766 350Q766 243 720 161T592 35T410 -10Q309 -10 228 34ZM491 54T554 89T654 190T691 350Q691
444 654 511T552 612T408 646Q328 646 265 611T165 509T129 350Q129 257 165 191T265 89T410 54Q491 54 554 89ZM262 802T262 816Q262 826 272 839L378 965Q392 982 410 982Q429 982 443 965L548 839Q558 826 558 816Q558 802 544 791Q534 784 524 784Q509 784
494 803L410 915L327 803Q312 783 295 783Q287 783 277 790Q262 802 262 816Z" />
<glyph unicode="&#xd5;" glyph-name="Otilde" horiz-adv-x="820" d="M309 -10T228 34T101 161T54 350Q54 458 100 539T228 665T410 710Q511 710 592 666T719 540T766 350Q766 243 720 161T592 35T410 -10Q309 -10 228 34ZM491 54T554 89T654 190T691 350Q691 444
654 511T552 612T408 646Q328 646 265 611T165 509T129 350Q129 257 165 191T265 89T410 54Q491 54 554 89ZM242 805T242 828Q242 837 244 843Q253 877 277 899T338 921Q362 921 380 913T424 888Q441 876 452 870T477 864Q511 864 523 906Q530 927 548 927Q562
927 569 921T577 902L575 890Q565 854 540 833T480 811Q457 811 441 819T401 842Q382 855 369 861T341 868Q309 868 296 827Q288 805 271 805Q242 805 242 828Z" />
<glyph unicode="&#xd6;" glyph-name="Odieresis" horiz-adv-x="820" d="M309 -10T228 34T101 161T54 350Q54 458 100 539T228 665T410 710Q511 710 592 666T719 540T766 350Q766 243 720 161T592 35T410 -10Q309 -10 228 34ZM491 54T554 89T654 190T691 350Q691
444 654 511T552 612T408 646Q328 646 265 611T165 509T129 350Q129 257 165 191T265 89T410 54Q491 54 554 89ZM286 805T271 819T256 854Q256 875 271 889T307 904Q327 904 341 889T356 854Q356 834 342 820T307 805Q286 805 271 819ZM493 805T478 819T463 854Q463
874 478 889T514 904Q534 904 549 889T564 854Q564 834 549 820T514 805Q493 805 478 819Z" />
<glyph unicode="&#xd7;" glyph-name="multiply" horiz-adv-x="508" d="M441 100Q455 86 455 73Q455 61 444 50Q435 41 422 41Q406 41 392 55L255 194L117 55Q102 40 88 40Q78 40 65 51Q54 62 54 73Q54 86 68 100L208 241L71 380Q57 394 57 407Q57 418 68 429Q79
440 91 440Q105 440 120 425L255 288L392 426Q406 440 422 440Q435 440 444 431Q455 420 455 408Q455 395 441 381L302 241L441 100Z" />
<glyph unicode="&#xd8;" glyph-name="Oslash" horiz-adv-x="808" d="M669 622T716 540T763 350Q763 245 718 163T591 36T404 -10Q340 -10 283 7L258 -48Q254 -58 245 -63T224 -69Q207 -69 197 -59T186 -34Q186 -26 189 -18L214 37Q134 83 90 164T45 350Q45 455
90 537T217 664T404 710Q465 710 516 695L541 749Q545 759 555 765T576 771Q585 771 592 767Q603 762 609 754T615 735Q615 729 612 723L586 667Q669 622 716 540ZM128 267T158 204T245 103L486 630Q445 641 400 641Q318 641 257 605T162 503T128 350Q128 267 158
204ZM487 59T549 95T646 196T680 350Q680 435 648 500T556 601L313 72Q353 59 404 59Q487 59 549 95Z" />
<glyph unicode="&#xd9;" glyph-name="Ugrave" horiz-adv-x="737" d="M275 -10T210 25T109 126T74 283V670Q74 689 84 699T111 710Q129 710 139 700T149 670V280Q149 172 206 113T366 54Q470 54 528 113T587 280V670Q587 689 597 699T625 710Q643 710 652 700T662
670V283Q662 195 626 129T523 26T364 -10Q275 -10 210 25ZM379 785T373 785Q356 785 347 802L269 940Q263 951 263 960Q263 977 283 987Q292 992 302 992Q323 992 335 964L397 823Q400 816 400 809Q400 795 385 788Q379 785 373 785Z" />
<glyph unicode="&#xda;" glyph-name="Uacute" horiz-adv-x="737" d="M275 -10T210 25T109 126T74 283V670Q74 689 84 699T111 710Q129 710 139 700T149 670V280Q149 172 206 113T366 54Q470 54 528 113T587 280V670Q587 689 597 699T625 710Q643 710 652 700T662
670V283Q662 195 626 129T523 26T364 -10Q275 -10 210 25ZM343 795T343 810Q343 817 346 823L408 964Q420 992 441 992Q451 992 460 987Q480 977 480 960Q480 951 474 940L396 802Q387 785 370 785Q364 785 358 788Q343 795 343 810Z" />
<glyph unicode="&#xdb;" glyph-name="Ucircumflex" horiz-adv-x="737" d="M275 -10T210 25T109 126T74 283V670Q74 689 84 699T111 710Q129 710 139 700T149 670V280Q149 172 206 113T366 54Q470 54 528 113T587 280V670Q587 689 597 699T625 710Q643 710 652
700T662 670V283Q662 195 626 129T523 26T364 -10Q275 -10 210 25ZM220 802T220 816Q220 826 230 839L336 965Q350 982 368 982Q387 982 401 965L506 839Q516 826 516 816Q516 802 502 791Q492 784 482 784Q467 784 452 803L368 915L285 803Q270 783 253 783Q245
783 235 790Q220 802 220 816Z" />
<glyph unicode="&#xdc;" glyph-name="Udieresis" horiz-adv-x="737" d="M275 -10T210 25T109 126T74 283V670Q74 689 84 699T111 710Q129 710 139 700T149 670V280Q149 172 206 113T366 54Q470 54 528 113T587 280V670Q587 689 597 699T625 710Q643 710 652 700T662
670V283Q662 195 626 129T523 26T364 -10Q275 -10 210 25ZM244 805T229 819T214 854Q214 875 229 889T265 904Q285 904 299 889T314 854Q314 834 300 820T265 805Q244 805 229 819ZM451 805T436 819T421 854Q421 874 436 889T472 904Q492 904 507 889T522 854Q522
834 507 820T472 805Q451 805 436 819Z" />
<glyph unicode="&#xdd;" glyph-name="Yacute" horiz-adv-x="696" d="M620 710T630 700T640 670V545Q640 460 609 392T519 281T386 230V30Q386 11 376 1T348 -10Q331 -10 321 0T311 30V230Q233 238 176 279T87 388T56 545V670Q56 689 66 699T93 710Q111 710 121
700T131 670V542Q131 424 188 358T348 292Q449 292 507 358T565 542V670Q565 689 575 699T603 710Q620 710 630 700ZM323 795T323 810Q323 817 326 823L388 964Q400 992 421 992Q431 992 440 987Q460 977 460 960Q460 951 454 940L376 802Q367 785 350 785Q344
785 338 788Q323 795 323 810Z" />
<glyph unicode="&#xde;" glyph-name="Thorn" horiz-adv-x="621" d="M92 -10T81 1T70 33V668Q70 688 81 699T112 711Q132 711 143 700T155 668V582H345Q451 582 513 524T576 368Q576 270 514 212T345 154H155V33Q155 13 144 2T112 -10Q92 -10 81 1ZM345 223Q413
223 451 261T490 368Q490 436 452 474T345 513H155V223H345Z" />
<glyph unicode="&#xdf;" glyph-name="germandbls" horiz-adv-x="637" d="M322 -11T278 6T212 49Q202 60 202 72Q202 87 216 99Q227 108 240 108Q256 108 274 93Q311 59 369 59Q437 59 472 99T508 216Q508 291 463 328T325 365H284Q263 365 252 373T240 398Q240
432 284 432H338Q452 432 452 556Q452 607 411 638T299 669Q228 669 188 630T148 520V31Q148 18 136 9T107 -1Q91 -1 78 9T65 31V525Q65 586 95 634T179 711T299 739Q369 739 422 716T506 652T536 556Q536 497 513 461T440 404V402Q513 385 552 337T592 219Q592
110 533 50T369 -11Q322 -11 278 6Z" />
<glyph unicode="&#xe0;" glyph-name="agrave" horiz-adv-x="590" d="M155 -10T100 33T44 152Q44 227 102 271T262 315Q321 315 366 299T437 256V320Q437 377 400 407T290 437Q197 437 129 393Q112 383 101 383Q91 383 81 391Q70 400 70 414Q70 429 83 439Q119
467 174 483T288 500Q394 500 452 452T511 317V29Q511 -10 475 -10Q459 -10 449 0T439 28V64Q377 -10 253 -10Q155 -10 100 33ZM340 51T389 80T438 157Q438 204 393 229T264 255Q194 255 156 229T118 152Q118 103 155 77T262 51Q340 51 389 80ZM316 555T310 555Q293
555 284 572L206 710Q200 721 200 730Q200 747 220 757Q229 762 239 762Q260 762 272 734L334 593Q337 586 337 579Q337 565 322 558Q316 555 310 555Z" />
<glyph unicode="&#xe1;" glyph-name="aacute" horiz-adv-x="590" d="M155 -10T100 33T44 152Q44 227 102 271T262 315Q321 315 366 299T437 256V320Q437 377 400 407T290 437Q197 437 129 393Q112 383 101 383Q91 383 81 391Q70 400 70 414Q70 429 83 439Q119
467 174 483T288 500Q394 500 452 452T511 317V29Q511 -10 475 -10Q459 -10 449 0T439 28V64Q377 -10 253 -10Q155 -10 100 33ZM340 51T389 80T438 157Q438 204 393 229T264 255Q194 255 156 229T118 152Q118 103 155 77T262 51Q340 51 389 80ZM281 565T281 580Q281
587 284 593L346 734Q358 762 379 762Q389 762 398 757Q418 747 418 730Q418 721 412 710L334 572Q325 555 308 555Q302 555 296 558Q281 565 281 580Z" />
<glyph unicode="&#xe2;" glyph-name="acircumflex" horiz-adv-x="590" d="M155 -10T100 33T44 152Q44 227 102 271T262 315Q321 315 366 299T437 256V320Q437 377 400 407T290 437Q197 437 129 393Q112 383 101 383Q91 383 81 391Q70 400 70 414Q70 429 83 439Q119
467 174 483T288 500Q394 500 452 452T511 317V29Q511 -10 475 -10Q459 -10 449 0T439 28V64Q377 -10 253 -10Q155 -10 100 33ZM340 51T389 80T438 157Q438 204 393 229T264 255Q194 255 156 229T118 152Q118 103 155 77T262 51Q340 51 389 80ZM156 572T156 586Q156
596 166 609L272 735Q286 752 304 752Q323 752 337 735L442 609Q452 596 452 586Q452 572 438 561Q428 554 418 554Q403 554 388 573L304 685L221 573Q206 553 189 553Q181 553 171 560Q156 572 156 586Z" />
<glyph unicode="&#xe3;" glyph-name="atilde" horiz-adv-x="590" d="M155 -10T100 33T44 152Q44 227 102 271T262 315Q321 315 366 299T437 256V320Q437 377 400 407T290 437Q197 437 129 393Q112 383 101 383Q91 383 81 391Q70 400 70 414Q70 429 83 439Q119
467 174 483T288 500Q394 500 452 452T511 317V29Q511 -10 475 -10Q459 -10 449 0T439 28V64Q377 -10 253 -10Q155 -10 100 33ZM340 51T389 80T438 157Q438 204 393 229T264 255Q194 255 156 229T118 152Q118 103 155 77T262 51Q340 51 389 80ZM136 575T136 598Q136
607 138 613Q147 647 171 669T232 691Q256 691 274 683T318 658Q335 646 346 640T371 634Q405 634 417 676Q424 697 442 697Q456 697 463 691T471 672L469 660Q459 624 434 603T374 581Q351 581 335 589T295 612Q276 625 263 631T235 638Q203 638 190 597Q182 575
165 575Q136 575 136 598Z" />
<glyph unicode="&#xe4;" glyph-name="adieresis" horiz-adv-x="590" d="M155 -10T100 33T44 152Q44 227 102 271T262 315Q321 315 366 299T437 256V320Q437 377 400 407T290 437Q197 437 129 393Q112 383 101 383Q91 383 81 391Q70 400 70 414Q70 429 83 439Q119
467 174 483T288 500Q394 500 452 452T511 317V29Q511 -10 475 -10Q459 -10 449 0T439 28V64Q377 -10 253 -10Q155 -10 100 33ZM340 51T389 80T438 157Q438 204 393 229T264 255Q194 255 156 229T118 152Q118 103 155 77T262 51Q340 51 389 80ZM180 575T165 589T150
624Q150 645 165 659T201 674Q221 674 235 659T250 624Q250 604 236 590T201 575Q180 575 165 589ZM387 575T372 589T357 624Q357 644 372 659T408 674Q428 674 443 659T458 624Q458 604 443 590T408 575Q387 575 372 589Z" />
<glyph unicode="&#xe5;" glyph-name="aring" horiz-adv-x="590" d="M155 -10T100 33T44 152Q44 227 102 271T262 315Q321 315 366 299T437 256V320Q437 377 400 407T290 437Q197 437 129 393Q112 383 101 383Q91 383 81 391Q70 400 70 414Q70 429 83 439Q119 467
174 483T288 500Q394 500 452 452T511 317V29Q511 -10 475 -10Q459 -10 449 0T439 28V64Q377 -10 253 -10Q155 -10 100 33ZM340 51T389 80T438 157Q438 204 393 229T264 255Q194 255 156 229T118 152Q118 103 155 77T262 51Q340 51 389 80ZM253 525T222 554T190
628Q190 672 221 701T304 730Q355 730 386 701T417 628Q417 584 386 555T304 525Q253 525 222 554ZM332 571T348 586T365 628Q365 654 349 669T304 685Q276 685 260 670T244 628Q244 602 260 587T304 571Q332 571 348 586Z" />
<glyph unicode="&#xe6;" glyph-name="ae" horiz-adv-x="1003" d="M158 -10T101 35T44 159Q44 209 71 247T147 307T262 328Q319 328 365 313T437 269V310Q437 368 397 402T289 437Q242 437 204 426T128 392Q114 383 100 383Q88 383 79 391Q70 399 70 413Q70 428
82 438Q119 467 173 483T287 500Q431 500 481 392Q511 443 568 471T697 500Q775 500 834 476T927 407T960 304Q960 263 937 240T872 217H509Q509 140 560 97T704 54Q759 54 801 68T879 112Q898 128 911 128Q922 128 930 120Q942 110 942 97Q942 85 931 74Q846 -9
704 -9Q629 -9 573 16T482 90Q402 -10 255 -10Q158 -10 101 35ZM850 276Q869 276 878 284T887 311Q887 367 835 402T697 437Q611 437 561 394T511 276H850ZM342 51T390 81T438 164Q438 213 392 240T264 268Q196 268 157 239T118 159Q118 107 155 79T262 51Q342
51 390 81Z" />
<glyph unicode="&#xe7;" glyph-name="ccedilla" horiz-adv-x="599" d="M544 110T544 96Q544 83 533 74Q489 34 442 14T337 -9L336 -12L313 -57Q354 -56 375 -76T396 -127Q396 -164 370 -187T298 -211Q263 -211 236 -197T194 -161Q187 -151 187 -145Q187 -137 199
-126Q207 -120 214 -120Q224 -120 233 -132Q243 -146 259 -154T295 -162Q316 -162 327 -152T339 -125Q339 -89 303 -89Q294 -89 289 -90Q275 -92 265 -85T254 -64Q254 -58 257 -52L278 -8Q171 2 108 70T45 246Q45 322 78 379T172 468T313 500Q388 500 443 479T530
417Q538 406 538 396Q538 381 523 369Q516 363 505 363Q488 363 473 378Q420 437 313 437Q220 437 170 388T119 246Q119 155 170 104T313 53Q364 53 407 68T478 113Q495 130 510 130Q519 130 530 122Q544 110 544 96Z" />
<glyph unicode="&#xe8;" glyph-name="egrave" horiz-adv-x="633" d="M185 -10T114 57T43 247Q43 365 115 432T312 500Q389 500 449 476T542 407T576 305Q576 263 553 240T488 217H118Q118 140 170 97T315 53Q372 53 413 65T490 106Q509 122 521 122Q530 122 538
114Q552 102 552 89Q552 79 540 67Q499 28 444 9T315 -10Q185 -10 114 57ZM466 276Q484 276 493 283T502 311Q502 347 478 376T411 421T312 437Q223 437 172 394T120 276H466ZM328 555T322 555Q305 555 296 572L218 710Q212 721 212 730Q212 747 232 757Q241 762
251 762Q272 762 284 734L346 593Q349 586 349 579Q349 565 334 558Q328 555 322 555Z" />
<glyph unicode="&#xe9;" glyph-name="eacute" horiz-adv-x="633" d="M185 -10T114 57T43 247Q43 365 115 432T312 500Q389 500 449 476T542 407T576 305Q576 263 553 240T488 217H118Q118 140 170 97T315 53Q372 53 413 65T490 106Q509 122 521 122Q530 122 538
114Q552 102 552 89Q552 79 540 67Q499 28 444 9T315 -10Q185 -10 114 57ZM466 276Q484 276 493 283T502 311Q502 347 478 376T411 421T312 437Q223 437 172 394T120 276H466ZM293 565T293 580Q293 587 296 593L358 734Q370 762 391 762Q401 762 410 757Q430 747
430 730Q430 721 424 710L346 572Q337 555 320 555Q314 555 308 558Q293 565 293 580Z" />
<glyph unicode="&#xea;" glyph-name="ecircumflex" horiz-adv-x="633" d="M185 -10T114 57T43 247Q43 365 115 432T312 500Q389 500 449 476T542 407T576 305Q576 263 553 240T488 217H118Q118 140 170 97T315 53Q372 53 413 65T490 106Q509 122 521 122Q530 122
538 114Q552 102 552 89Q552 79 540 67Q499 28 444 9T315 -10Q185 -10 114 57ZM466 276Q484 276 493 283T502 311Q502 347 478 376T411 421T312 437Q223 437 172 394T120 276H466ZM168 572T168 586Q168 596 178 609L284 735Q298 752 316 752Q335 752 349 735L454
609Q464 596 464 586Q464 572 450 561Q440 554 430 554Q415 554 400 573L316 685L233 573Q218 553 201 553Q193 553 183 560Q168 572 168 586Z" />
<glyph unicode="&#xeb;" glyph-name="edieresis" horiz-adv-x="633" d="M185 -10T114 57T43 247Q43 365 115 432T312 500Q389 500 449 476T542 407T576 305Q576 263 553 240T488 217H118Q118 140 170 97T315 53Q372 53 413 65T490 106Q509 122 521 122Q530 122
538 114Q552 102 552 89Q552 79 540 67Q499 28 444 9T315 -10Q185 -10 114 57ZM466 276Q484 276 493 283T502 311Q502 347 478 376T411 421T312 437Q223 437 172 394T120 276H466ZM192 575T177 589T162 624Q162 645 177 659T213 674Q233 674 247 659T262 624Q262
604 248 590T213 575Q192 575 177 589ZM399 575T384 589T369 624Q369 644 384 659T420 674Q440 674 455 659T470 624Q470 604 455 590T420 575Q399 575 384 589Z" />
<glyph unicode="&#xec;" glyph-name="igrave" horiz-adv-x="250" d="M108 -10T99 0T89 30V460Q89 479 98 489T125 500Q143 500 152 489T162 460V30Q162 12 153 1T125 -10Q108 -10 99 0ZM132 555T126 555Q109 555 100 572L22 710Q16 721 16 730Q16 747 36 757Q45
762 55 762Q76 762 88 734L150 593Q153 586 153 579Q153 565 138 558Q132 555 126 555Z" />
<glyph unicode="&#xed;" glyph-name="iacute" horiz-adv-x="250" d="M108 -10T99 0T89 30V460Q89 479 98 489T125 500Q143 500 152 489T162 460V30Q162 12 153 1T125 -10Q108 -10 99 0ZM101 565T101 580Q101 587 104 593L166 734Q178 762 199 762Q209 762 218
757Q238 747 238 730Q238 721 232 710L154 572Q145 555 128 555Q122 555 116 558Q101 565 101 580Z" />
<glyph unicode="&#xee;" glyph-name="icircumflex" horiz-adv-x="250" d="M108 -10T99 0T89 30V460Q89 479 98 489T125 500Q143 500 152 489T162 460V30Q162 12 153 1T125 -10Q108 -10 99 0ZM-22 572T-22 586Q-22 596 -12 609L94 735Q108 752 126 752Q144 752
158 735L264 609Q274 597 274 586Q274 572 260 561Q250 554 240 554Q225 554 210 573L126 685L42 573Q27 553 11 553Q4 553 -7 560Q-22 572 -22 586Z" />
<glyph unicode="&#xef;" glyph-name="idieresis" horiz-adv-x="250" d="M108 -10T99 0T89 30V460Q89 479 98 489T125 500Q143 500 152 489T162 460V30Q162 12 153 1T125 -10Q108 -10 99 0ZM3 575T-12 589T-27 624Q-27 645 -13 659T24 674Q44 674 58 659T73 624Q73
604 59 590T24 575Q3 575 -12 589ZM210 575T195 589T180 624Q180 644 195 659T231 674Q251 674 266 659T281 624Q281 604 266 590T231 575Q210 575 195 589Z" />
<glyph unicode="&#xf0;" glyph-name="eth" horiz-adv-x="647" d="M598 515T598 343Q598 177 522 84T306 -10Q227 -10 169 21T80 107T49 233Q49 301 79 354T166 439T304 470Q382 470 440 434T532 339L534 340Q531 419 511 474T446 570L398 521Q386 509 373 509Q364
509 354 517Q345 526 345 536Q345 549 356 560L399 605Q356 632 289 655Q270 662 270 680Q270 689 275 699Q282 715 301 715Q313 715 328 709Q397 684 444 651L508 717Q518 728 532 728Q542 728 552 720Q561 711 561 700Q561 688 551 678L490 616Q598 515 598 343ZM361
54T406 76T477 138T503 229Q503 280 477 320T406 382T306 405Q221 405 173 358T124 230Q124 149 172 102T306 54Q361 54 406 76Z" />
<glyph unicode="&#xf1;" glyph-name="ntilde" horiz-adv-x="611" d="M90 -10T81 0T71 30V460Q71 479 80 489T107 500Q124 500 133 490T143 460V401Q180 450 232 475T348 500Q443 500 494 447T546 295V30Q546 11 536 1T509 -10Q491 -10 482 0T473 30V295Q473 437
339 437Q251 437 198 385T144 247V30Q144 12 135 1T107 -10Q90 -10 81 0ZM139 595T139 618Q139 627 141 633Q150 667 174 689T235 711Q259 711 277 703T321 678Q338 666 349 660T374 654Q408 654 420 696Q427 717 445 717Q459 717 466 711T474 692L472 680Q462
644 437 623T377 601Q354 601 338 609T298 632Q279 645 266 651T238 658Q206 658 193 617Q185 595 168 595Q139 595 139 618Z" />
<glyph unicode="&#xf2;" glyph-name="ograve" horiz-adv-x="637" d="M232 -10T170 25T77 118T45 245Q45 313 76 371T170 465T319 500Q406 500 467 465T560 372T592 245Q592 177 561 119T468 25T319 -10Q232 -10 170 25ZM409 53T463 104T518 245Q518 335 464 386T319
437Q228 437 174 386T119 245Q119 155 173 104T319 53Q409 53 463 104ZM330 575T324 575Q307 575 298 592L220 730Q214 741 214 750Q214 767 234 777Q243 782 253 782Q274 782 286 754L348 613Q351 606 351 599Q351 585 336 578Q330 575 324 575Z" />
<glyph unicode="&#xf3;" glyph-name="oacute" horiz-adv-x="637" d="M232 -10T170 25T77 118T45 245Q45 313 76 371T170 465T319 500Q406 500 467 465T560 372T592 245Q592 177 561 119T468 25T319 -10Q232 -10 170 25ZM409 53T463 104T518 245Q518 335 464 386T319
437Q228 437 174 386T119 245Q119 155 173 104T319 53Q409 53 463 104ZM294 585T294 600Q294 607 297 613L359 754Q371 782 392 782Q402 782 411 777Q431 767 431 750Q431 741 425 730L347 592Q338 575 321 575Q315 575 309 578Q294 585 294 600Z" />
<glyph unicode="&#xf4;" glyph-name="ocircumflex" horiz-adv-x="637" d="M232 -10T170 25T77 118T45 245Q45 313 76 371T170 465T319 500Q406 500 467 465T560 372T592 245Q592 177 561 119T468 25T319 -10Q232 -10 170 25ZM409 53T463 104T518 245Q518 335 464
386T319 437Q228 437 174 386T119 245Q119 155 173 104T319 53Q409 53 463 104ZM171 592T171 606Q171 616 181 629L287 755Q301 772 319 772Q338 772 352 755L457 629Q467 616 467 606Q467 592 453 581Q443 574 433 574Q418 574 403 593L319 705L236 593Q221 573
204 573Q196 573 186 580Q171 592 171 606Z" />
<glyph unicode="&#xf5;" glyph-name="otilde" horiz-adv-x="637" d="M232 -10T170 25T77 118T45 245Q45 313 76 371T170 465T319 500Q406 500 467 465T560 372T592 245Q592 177 561 119T468 25T319 -10Q232 -10 170 25ZM409 53T463 104T518 245Q518 335 464 386T319
437Q228 437 174 386T119 245Q119 155 173 104T319 53Q409 53 463 104ZM151 595T151 618Q151 627 153 633Q162 667 186 689T247 711Q271 711 289 703T333 678Q350 666 361 660T386 654Q420 654 432 696Q439 717 457 717Q471 717 478 711T486 692L484 680Q474 644
449 623T389 601Q366 601 350 609T310 632Q291 645 278 651T250 658Q218 658 205 617Q197 595 180 595Q151 595 151 618Z" />
<glyph unicode="&#xf6;" glyph-name="odieresis" horiz-adv-x="637" d="M232 -10T170 25T77 118T45 245Q45 313 76 371T170 465T319 500Q406 500 467 465T560 372T592 245Q592 177 561 119T468 25T319 -10Q232 -10 170 25ZM409 53T463 104T518 245Q518 335 464
386T319 437Q228 437 174 386T119 245Q119 155 173 104T319 53Q409 53 463 104ZM195 595T180 609T165 644Q165 665 180 679T216 694Q236 694 250 679T265 644Q265 624 251 610T216 595Q195 595 180 609ZM402 595T387 609T372 644Q372 664 387 679T423 694Q443 694
458 679T473 644Q473 624 458 610T423 595Q402 595 387 609Z" />
<glyph unicode="&#xf7;" glyph-name="divide" horiz-adv-x="508" d="M232 343T218 357T204 391Q204 411 218 425T252 440Q273 440 287 426T302 391Q302 372 288 358T252 343Q232 343 218 357ZM81 212T71 220T60 243Q60 275 100 275H409Q448 275 448 243Q448 229
438 221T409 212H100Q81 212 71 220ZM232 47T218 61T204 95Q204 115 218 129T252 144Q273 144 287 130T302 95Q302 76 287 62T252 47Q232 47 218 61Z" />
<glyph unicode="&#xf8;" glyph-name="oslash" horiz-adv-x="645" d="M524 441T560 380T596 245Q596 177 565 119T472 25T323 -10Q275 -10 239 0L216 -49Q206 -70 186 -70Q179 -70 172 -67Q152 -58 152 -40Q152 -34 155 -26L178 23Q115 56 82 115T49 245Q49 313
80 371T174 465T323 500Q363 500 394 493L416 540Q420 549 428 554T445 560Q452 560 459 557Q479 548 479 531Q479 524 476 516L456 473Q524 441 560 380ZM122 189T143 148T205 82L367 434Q346 437 323 437Q232 437 177 387T122 245Q122 189 143 148ZM414 53T468
103T523 245Q523 306 499 349T429 414L266 59Q293 53 323 53Q414 53 468 103Z" />
<glyph unicode="&#xf9;" glyph-name="ugrave" horiz-adv-x="611" d="M177 -10T122 46T66 202V460Q66 479 76 489T103 500Q120 500 129 490T139 460V202Q139 131 177 92T283 53Q337 53 379 77T444 144T468 243V460Q468 479 477 489T505 500Q522 500 531 490T541
460V30Q541 11 532 1T505 -10Q487 -10 478 1T468 30V89Q431 41 382 16T275 -10Q177 -10 122 46ZM315 575T309 575Q292 575 283 592L205 730Q199 741 199 750Q199 767 219 777Q228 782 238 782Q259 782 271 754L333 613Q336 606 336 599Q336 585 321 578Q315 575
309 575Z" />
<glyph unicode="&#xfa;" glyph-name="uacute" horiz-adv-x="611" d="M177 -10T122 46T66 202V460Q66 479 76 489T103 500Q120 500 129 490T139 460V202Q139 131 177 92T283 53Q337 53 379 77T444 144T468 243V460Q468 479 477 489T505 500Q522 500 531 490T541
460V30Q541 11 532 1T505 -10Q487 -10 478 1T468 30V89Q431 41 382 16T275 -10Q177 -10 122 46ZM279 585T279 600Q279 607 282 613L344 754Q356 782 377 782Q387 782 396 777Q416 767 416 750Q416 741 410 730L332 592Q323 575 306 575Q300 575 294 578Q279 585
279 600Z" />
<glyph unicode="&#xfb;" glyph-name="ucircumflex" horiz-adv-x="611" d="M177 -10T122 46T66 202V460Q66 479 76 489T103 500Q120 500 129 490T139 460V202Q139 131 177 92T283 53Q337 53 379 77T444 144T468 243V460Q468 479 477 489T505 500Q522 500 531 490T541
460V30Q541 11 532 1T505 -10Q487 -10 478 1T468 30V89Q431 41 382 16T275 -10Q177 -10 122 46ZM156 592T156 606Q156 616 166 629L272 755Q286 772 304 772Q323 772 337 755L442 629Q452 616 452 606Q452 592 438 581Q428 574 418 574Q403 574 388 593L304 705L221
593Q206 573 189 573Q181 573 171 580Q156 592 156 606Z" />
<glyph unicode="&#xfc;" glyph-name="udieresis" horiz-adv-x="611" d="M177 -10T122 46T66 202V460Q66 479 76 489T103 500Q120 500 129 490T139 460V202Q139 131 177 92T283 53Q337 53 379 77T444 144T468 243V460Q468 479 477 489T505 500Q522 500 531 490T541
460V30Q541 11 532 1T505 -10Q487 -10 478 1T468 30V89Q431 41 382 16T275 -10Q177 -10 122 46ZM180 595T165 609T150 644Q150 665 165 679T201 694Q221 694 235 679T250 644Q250 624 236 610T201 595Q180 595 165 609ZM387 595T372 609T357 644Q357 664 372 679T408
694Q428 694 443 679T458 644Q458 624 443 610T408 595Q387 595 372 609Z" />
<glyph unicode="&#xfd;" glyph-name="yacute" horiz-adv-x="626" d="M220 -250T162 -228T77 -168Q70 -158 70 -148Q70 -132 86 -120Q92 -115 104 -115Q121 -115 136 -131Q158 -157 200 -172T291 -188Q381 -188 433 -134T486 12V80Q455 39 407 18T301 -4Q179 -4
111 65T42 259V463Q42 478 53 488T80 499Q96 499 106 489T117 463V259Q117 163 165 110T301 56Q387 56 434 107T481 252V453Q481 475 491 487T521 500Q539 500 549 488T560 453V17Q560 -62 527 -122T433 -216T294 -250Q220 -250 162 -228ZM268 585T268 600Q268
607 271 613L333 754Q345 782 366 782Q376 782 385 777Q405 767 405 750Q405 741 399 730L321 592Q312 575 295 575Q289 575 283 578Q268 585 268 600Z" />
<glyph unicode="&#xfe;" glyph-name="thorn" horiz-adv-x="675" d="M92 -299T83 -289T73 -259V749Q73 768 82 778T109 789Q127 789 137 778T147 749V398Q231 500 360 500Q487 500 557 433T628 245Q628 167 596 110T503 21T360 -10Q231 -10 147 92V-259Q147 -277
137 -288T109 -299Q92 -299 83 -289ZM448 53T501 104T554 245Q554 340 504 388T356 437Q258 437 202 386T146 245Q146 190 173 146T248 78T356 53Q448 53 501 104Z" />
<glyph unicode="&#xff;" glyph-name="ydieresis" horiz-adv-x="626" d="M220 -250T162 -228T77 -168Q70 -158 70 -148Q70 -132 86 -120Q92 -115 104 -115Q121 -115 136 -131Q158 -157 200 -172T291 -188Q381 -188 433 -134T486 12V80Q455 39 407 18T301 -4Q179
-4 111 65T42 259V463Q42 478 53 488T80 499Q96 499 106 489T117 463V259Q117 163 165 110T301 56Q387 56 434 107T481 252V453Q481 475 491 487T521 500Q539 500 549 488T560 453V17Q560 -62 527 -122T433 -216T294 -250Q220 -250 162 -228ZM169 595T154 609T139
644Q139 665 154 679T190 694Q210 694 224 679T239 644Q239 624 225 610T190 595Q169 595 154 609ZM376 595T361 609T346 644Q346 664 361 679T397 694Q417 694 432 679T447 644Q447 624 432 610T397 595Q376 595 361 609Z" />
<glyph unicode="&#x2013;" glyph-name="endash" horiz-adv-x="673" d="M70 212T60 220T49 243Q49 275 89 275H584Q624 275 624 243Q624 229 614 221T584 212H89Q70 212 60 220Z" />
<glyph unicode="&#x2014;" glyph-name="emdash" horiz-adv-x="928" d="M70 212T60 220T49 243Q49 275 89 275H840Q879 275 879 243Q879 229 869 221T840 212H89Q70 212 60 220Z" />
<glyph unicode="&#x2018;" glyph-name="quoteleft" horiz-adv-x="239" d="M86 461T68 483T49 542Q49 583 73 625T137 702Q157 719 168 719Q176 719 184 710Q190 703 190 695Q190 684 176 673Q153 654 136 629T117 584Q125 586 130 586Q152 586 169 568T187 525Q187
496 169 479T118 461Q86 461 68 483Z" />
<glyph unicode="&#x2019;" glyph-name="quoteright" horiz-adv-x="239" d="M49 479T49 485Q49 497 63 508Q88 529 103 552T122 597Q114 595 109 595Q86 595 69 612T52 655Q52 684 70 701T121 719Q152 719 171 698T190 638Q190 599 166 555T103 478Q82 462 72 462Q63
462 54 472Q49 479 49 485Z" />
<glyph unicode="&#x201a;" glyph-name="quotesinglbase" horiz-adv-x="239" d="M49 -128T49 -120Q49 -109 63 -98Q86 -80 103 -54T122 -9Q114 -11 109 -11Q87 -11 70 7T52 50Q52 79 70 96T121 114Q152 114 171 93T190 33Q190 -6 166 -50T103 -127Q83 -144 71 -144Q62
-144 56 -136Q49 -128 49 -120Z" />
<glyph unicode="&#x201c;" glyph-name="quotedblleft" horiz-adv-x="428" d="M89 461T71 483T52 542Q52 583 76 625T140 702Q160 719 171 719Q180 719 187 710Q193 703 193 695Q193 684 179 673Q156 655 139 630T120 584Q128 586 133 586Q155 586 172 568T190
525Q190 496 172 479T121 461Q89 461 71 483ZM273 461T254 482T234 542Q234 583 258 626T322 702Q342 719 353 719Q361 719 370 709Q376 702 376 695Q376 684 362 673Q339 654 322 629T302 584Q310 586 315 586Q338 586 355 568T373 525Q373 496 354 479T304 461Q273
461 254 482Z" />
<glyph unicode="&#x201d;" glyph-name="quotedblright" horiz-adv-x="428" d="M52 479T52 485Q52 497 66 508Q91 529 106 552T125 597Q117 595 112 595Q89 595 72 612T55 655Q55 684 73 701T124 719Q155 719 174 698T193 638Q193 599 169 555T106 478Q85 462 75
462Q66 462 57 472Q52 479 52 485ZM234 477T234 485Q234 496 248 507Q271 525 288 551T308 597Q300 595 295 595Q272 595 255 612T237 655Q237 684 255 701T306 719Q338 719 357 698T376 638Q376 599 352 556T288 478Q271 462 257 462Q248 462 241 470Q234 477
234 485Z" />
<glyph unicode="&#x201e;" glyph-name="quotedblbase" horiz-adv-x="428" d="M52 -128T52 -120Q52 -109 66 -98Q89 -80 106 -54T125 -9Q117 -11 112 -11Q90 -11 73 7T55 50Q55 79 73 96T124 114Q155 114 174 93T193 33Q193 -6 169 -50T106 -127Q86 -144 74 -144Q65
-144 59 -136Q52 -128 52 -120ZM234 -127T234 -120Q234 -108 249 -98Q269 -82 287 -56T308 -9Q300 -11 295 -11Q271 -11 254 6T237 50Q237 79 256 96T306 114Q338 114 357 93T376 33Q376 -7 352 -50T288 -127Q268 -144 257 -144Q247 -144 240 -134Q234 -127 234
-120Z" />
<glyph unicode="&#x2022;" glyph-name="bullet" horiz-adv-x="306" d="M109 183T79 212T49 286Q49 329 79 357T154 386Q198 386 227 358T257 286Q257 242 228 213T154 183Q109 183 79 212Z" />
<glyph unicode="&#x2039;" glyph-name="guilsinglleft" horiz-adv-x="322" d="M247 45T238 45Q223 45 210 60L58 246Q54 251 52 256T49 266Q49 277 58 288L210 475Q223 490 238 490Q247 490 256 484Q272 474 272 455Q272 444 265 436L124 267L265 98Q272 90 272
78Q272 61 256 51Q247 45 238 45Z" />
<glyph unicode="&#x203a;" glyph-name="guilsinglright" horiz-adv-x="322" d="M50 61T50 78Q50 90 57 98L198 267L57 436Q50 444 50 456Q50 474 66 484Q75 490 84 490Q99 490 112 475L264 288Q273 277 273 266Q273 257 264 246L112 60Q99 45 84 45Q75 45 66 51Q50
61 50 78Z" />
</font>
</defs>
</svg>
