<?xml version="1.0" standalone="no"?>
<!DOCTYPE svg PUBLIC "-//W3C//DTD SVG 1.1//EN" "http://www.w3.org/Graphics/SVG/1.1/DTD/svg11.dtd">
<svg xmlns="http://www.w3.org/2000/svg">
<defs >
<font id="LeagueSpartan" horiz-adv-x="976" ><font-face
    font-family="League Spartan Thin"
    units-per-em="2000"
    panose-1="0 0 0 0 0 0 0 0 0 0"
    ascent="1400"
    descent="-440"
    alphabetic="0" />
<glyph unicode=" " horiz-adv-x="499" />
<glyph unicode="!" horiz-adv-x="619" d="M233 366L195 1376H391L352 366H233ZM291 -24Q255 -24 225 -6T176 42T157 110Q157 167 196 206T291 246Q348 246 387 207T427 110Q427 55 388 16T291 -24Z" />
<glyph unicode="&quot;" horiz-adv-x="758" d="M208 1312Q252 1312 279 1282T306 1215V1209Q306 1194 299 1154T281 1061T256 951T230 844H162Q153 893 144 950T127 1061T115 1154T110 1209V1215Q110 1253 137 1282T208 1312ZM514 1312Q558 1312 585 1283T612
1215V1209Q612 1194 605 1154T586 1061T561 951T535 844H468Q460 893 451 950T434 1061T422 1154T417 1209V1215Q417 1253 444 1282T514 1312Z" />
<glyph unicode="#" horiz-adv-x="1267" d="M550 1320H673L324 0H201L550 1320ZM928 1320H1050L701 0H579L928 1320ZM259 942H1135L1098 822H221L259 942ZM155 500H1031L994 380H117L155 500Z" />
<glyph unicode="$" horiz-adv-x="1056" d="M475 1534H585V1307H475V1534ZM475 21H585V-206H475V21ZM521 1344Q635 1344 717 1318T847 1263T904 1225L816 1084Q801 1097 763 1121T668 1165T538 1185Q425 1185 360 1140T294 1011Q294 955 328 913T426 835T573 763Q642
734 708 697T829 610T916 494T949 342Q949 257 915 189T818 74T672 1T493 -24Q372 -24 275 6T118 69T49 110L142 257Q154 247 186 228T265 187T371 152T497 137Q631 137 700 197T769 351Q769 423 725 475T608 568T447 647Q357 688 282 737T162 854T116 1020Q116
1116 170 1189T317 1303T521 1344Z" />
<glyph unicode="%" horiz-adv-x="1479" d="M1061 1320H1187L393 0H267L1061 1320ZM80 1029Q80 1105 117 1165T220 1260T367 1295Q447 1295 511 1260T613 1165T651 1029Q651 955 615 895T514 800T367 764Q281 764 217 799T116 895T80 1029ZM207 1029Q207 956 250
914T365 872Q433 872 478 913T523 1029Q523 1101 478 1144T365 1188Q297 1188 252 1145T207 1029ZM803 290Q803 366 840 426T942 521T1089 556Q1170 556 1234 521T1336 426T1374 290Q1374 217 1338 157T1237 61T1089 25Q1005 25 940 60T839 156T803 290ZM930 290Q930
217 973 175T1089 133Q1156 133 1201 174T1246 290Q1246 362 1201 405T1089 449Q1020 449 975 406T930 290Z" />
<glyph unicode="&amp;" horiz-adv-x="1340" d="M61 330Q61 411 92 473T171 580T272 655T370 704T440 730Q422 743 394 773T337 847T290 941T270 1048Q270 1130 315 1197T441 1304T630 1344Q739 1344 815 1305T931 1199T971 1046Q971 964 935 903T848 800T747 731T672
692L955 383Q979 407 1020 459T1101 580L1217 480Q1204 456 1178 418T1121 342T1064 279L1328 0H1109L939 183Q887 133 817 86T658 7T460 -24Q347 -24 257 19T114 142T61 330ZM528 623Q512 618 479 605T406 570T331 516T272 441T248 343Q248 274 281 228T368 158T485
135Q557 135 624 161T746 224T833 296L528 623ZM627 1207Q567 1207 524 1183T459 1122T437 1046Q437 1005 457 962T505 880T555 818T582 789Q603 796 641 814T719 863T787 939T815 1046Q815 1114 763 1160T627 1207Z" />
<glyph unicode="&apos;" horiz-adv-x="451" d="M208 1312Q252 1312 279 1281T306 1199Q306 1141 282 1043T230 844H162Q150 910 138 977T118 1103T110 1199Q110 1251 137 1281T208 1312Z" />
<glyph unicode="(" horiz-adv-x="610" d="M373 -406Q315 -335 253 -205T147 99T103 475Q103 631 129 773T197 1035T287 1247T381 1396L493 1336Q443 1272 389 1148T296 852T258 475Q258 282 294 119T382 -162T481 -344L373 -406Z" />
<glyph unicode=")" horiz-adv-x="610" d="M187 -406L79 -344Q127 -281 178 -163T266 119T302 475Q302 681 264 852T172 1147T67 1336L179 1396Q224 1339 272 1247T363 1035T431 773T457 475Q457 273 414 99T308 -205T187 -406Z" />
<glyph unicode="*" horiz-adv-x="842" d="M454 1163L647 1227L678 1137L477 1069L600 903L520 846L403 1008L282 847L201 903L331 1069L130 1137L160 1227L354 1163L355 1366H453L454 1163Z" />
<glyph unicode="+" horiz-adv-x="1074" d="M594 591V253H448V591H109V736H448V1074H594V736H930V591H594Z" />
<glyph unicode="," horiz-adv-x="553" d="M259 251Q320 251 363 208T407 92Q407 18 377 -49T298 -168T192 -251L127 -184Q157 -170 192 -144T255 -85T293 -13Q271 -24 241 -24Q190 -23 153 15T116 109Q116 150 135 182T186 232T259 251Z" />
<glyph unicode="-" horiz-adv-x="768" d="M109 380V531H624V380H109Z" />
<glyph unicode="." horiz-adv-x="619" d="M291 -24Q236 -24 197 15T157 110Q157 167 196 206T291 246Q348 246 387 207T426 110Q426 55 387 16T291 -24Z" />
<glyph unicode="/" horiz-adv-x="954" d="M710 1376H859L200 -192H51L710 1376Z" />
<glyph unicode="0" horiz-adv-x="1162" d="M66 659Q66 835 108 964T222 1177T382 1303T565 1344Q659 1344 748 1303T907 1178T1019 964T1061 659Q1061 480 1020 351T908 139T748 16T565 -24Q471 -24 383 16T223 138T109 350T66 659ZM241 659Q241 482 285 365T402
189T565 131Q654 131 727 189T844 364T888 659Q888 834 844 951T727 1129T565 1189Q476 1189 403 1129T285 952T241 659Z" />
<glyph unicode="1" horiz-adv-x="611" d="M276 1107L47 977V1145L350 1320H448V0H276V1107Z" />
<glyph unicode="2" horiz-adv-x="1089" d="M537 1193Q454 1193 393 1160T290 1082T227 1001T203 960L52 1026Q54 1035 71 1069T124 1150T216 1240T351 1314T537 1344Q645 1344 724 1314T854 1230T930 1102T955 941Q955 857 915 769T811 597T674 438T532 303T414
205T349 154H944V0H82V141Q113 165 175 214T317 331T477 476T627 635T738 795T781 943Q781 1081 718 1137T537 1193Z" />
<glyph unicode="3" horiz-adv-x="1035" d="M93 1110Q99 1133 125 1172T199 1250T320 1317T493 1344Q619 1344 708 1298T845 1171T893 991Q893 914 863 852T786 751T685 702Q741 697 799 658T896 551T935 388Q935 271 879 178T722 30T489 -24Q359 -24 268 20T121
129T46 253L203 334Q218 290 254 243T349 162T487 129Q575 129 636 164T730 259T762 392Q762 473 724 525T622 601T487 626H461V758H495Q559 758 613 784T701 860T735 979Q735 1071 674 1135T490 1199Q422 1199 375 1179T298 1131T255 1077T238 1041L93 1110Z"
/>
<glyph unicode="4" horiz-adv-x="986" d="M759 1320V432H910V278H759V0H587V278H32V420L573 1320H759ZM587 432V1061H586L213 432H587Z" />
<glyph unicode="5" horiz-adv-x="1057" d="M229 292Q235 274 252 246T301 191T379 144T492 125Q625 125 700 210T774 436Q773 566 705 637T524 708Q454 708 402 683T317 621T271 553L120 604L233 1320H891V1166H381L319 755Q324 764 353 787T437 831T568 852Q668
852 754 808T893 673T947 444Q947 306 894 201T739 36T498 -24Q395 -24 321 2T196 69T118 149T79 218L229 292Z" />
<glyph unicode="6" horiz-adv-x="1101" d="M573 860Q685 860 780 805T935 651T994 422Q994 293 932 193T764 34T531 -24Q401 -24 297 33T131 195T70 438Q70 584 120 685T238 871L597 1320H802L367 793Q389 817 442 838T573 860ZM534 121Q616 121 683 161T791 270T831
420Q831 502 791 569T684 677T534 717Q451 717 384 677T276 570T235 420Q235 338 275 270T383 162T534 121Z" />
<glyph unicode="7" horiz-adv-x="1040" d="M116 1320H969V1197L289 0H97L767 1166H116V1320Z" />
<glyph unicode="8" horiz-adv-x="1096" d="M532 -24Q408 -24 309 27T153 165T96 362Q96 460 129 528T220 642T344 712Q295 735 252 772T180 867T152 1007Q152 1107 203 1183T339 1301T531 1344Q637 1344 722 1302T856 1183T906 1007Q906 884 850 816T717 712Q784
687 840 642T931 529T966 362Q966 253 910 166T755 27T532 -24ZM531 130Q602 130 659 163T751 253T786 380Q786 451 752 507T660 597T531 631Q460 631 402 598T309 508T275 380Q275 310 309 253T401 163T531 130ZM531 771Q591 771 639 800T717 878T747 988Q747
1047 718 1096T640 1174T531 1203Q472 1203 423 1174T344 1096T314 988Q314 928 343 879T422 800T531 771Z" />
<glyph unicode="9" horiz-adv-x="1099" d="M270 0L704 527Q682 503 629 482T499 460Q388 460 292 515T136 669T77 898Q77 1027 140 1127T309 1286T541 1344Q671 1344 775 1287T940 1125T1002 882Q1002 737 952 635T834 449L474 0H270ZM538 603Q621 603 688 643T796
750T837 900Q837 983 797 1050T689 1158T538 1199Q456 1199 389 1159T281 1051T241 900Q241 818 281 751T388 643T538 603Z" />
<glyph unicode=":" horiz-adv-x="525" d="M516 -24Q461 -24 422 15T382 110Q382 167 421 206T516 246Q573 246 612 207T651 110Q651 55 612 16T516 -24ZM260 611Q205 611 166 650T126 745Q126 802 165 841T260 881Q317 881 356 842T395 745Q395 690 356 651T260 611Z" />
<glyph unicode=";" horiz-adv-x="539" d="M243 612Q188 612 149 651T109 746Q109 803 148 842T243 882Q300 882 339 843T378 746Q378 691 339 652T243 612ZM502 251Q563 251 606 208T650 92Q650 18 620 -49T541 -168T435 -251L370 -184Q400 -170 435 -144T498
-85T536 -13Q514 -24 484 -24Q433 -23 396 15T359 109Q359 150 378 182T429 232T502 251Z" />
<glyph unicode="&lt;" horiz-adv-x="1078" d="M923 212L92 593V738L923 1121V963L261 665L923 369V212Z" />
<glyph unicode="=" horiz-adv-x="1021" d="M110 763V909H877V763H110ZM110 421V566H877V421H110Z" />
<glyph unicode="&gt;" horiz-adv-x="1078" d="M102 212V369L764 665L102 963V1121L933 738V593L102 212Z" />
<glyph unicode="?" horiz-adv-x="925" d="M355 366V609Q355 670 382 704T458 766Q502 793 547 829T622 914T653 1022Q653 1109 592 1151T430 1194Q359 1194 308 1165T227 1097T186 1024L41 1086Q43 1102 60 1132T108 1199T188 1268T301 1322T448 1344Q565 1344
652 1307T788 1202T836 1043Q836 959 798 896T702 784T582 695Q538 668 524 638T510 549V366H355ZM434 -24Q379 -24 340 15T300 110Q300 167 339 206T434 246Q490 246 529 207T569 110Q569 55 530 16T434 -24Z" />
<glyph unicode="@" horiz-adv-x="1535" d="M754 -24Q607 -24 480 25T256 166T105 382T50 661Q50 813 108 938T266 1155T498 1295T776 1344Q916 1344 1040 1298T1261 1168T1412 966T1467 707Q1467 588 1420 509T1301 391T1157 351Q1078 351 1038 388T988 477Q979
442 946 406T855 346T718 321Q617 321 542 366T426 487T384 654Q384 744 424 816T536 931T707 974Q771 974 819 953T900 905T946 860V952H1066V574Q1066 557 1072 532T1098 488T1157 468Q1194 468 1233 493T1300 573T1327 712Q1327 819 1286 910T1170 1071T995
1178T776 1216Q660 1216 555 1175T367 1058T238 881T190 661Q190 543 235 443T358 269T539 153T754 112Q848 112 923 136T1050 196T1126 263L1242 166Q1211 126 1143 82T977 7T754 -24ZM741 444Q838 444 892 507T947 656Q947 715 919 759T845 829T741 855Q650 855
590 797T530 651Q530 564 587 504T741 444Z" />
<glyph unicode="A" horiz-adv-x="1208" d="M510 1320H688L1176 0H993L879 318H319L203 0H20L510 1320ZM374 472H825L601 1110H598L374 472Z" />
<glyph unicode="B" horiz-adv-x="1065" d="M110 1320H477Q585 1320 680 1291T834 1193T893 1001Q893 918 861 851T780 741T685 691Q723 688 769 667T858 607T928 510T956 371Q956 263 912 179T779 48T552 0H110V1320ZM280 143H535Q630 143 682 176T756 264T778
379Q778 480 712 542T521 604H280V143ZM280 744H501Q577 744 626 777T699 863T723 972Q723 1087 656 1132T475 1177H280V744Z" />
<glyph unicode="C" horiz-adv-x="1263" d="M751 145Q874 145 964 179T1093 245L1168 98Q1123 58 1012 17T744 -24Q598 -24 473 28T255 173T109 390T56 658Q56 802 108 927T253 1145T472 1291T744 1344Q900 1344 1011 1303T1168 1222L1093 1075Q1055 1108 965 1141T751
1175Q639 1175 546 1137T385 1030T279 866T241 661Q241 549 278 455T384 291T546 183T751 145Z" />
<glyph unicode="D" horiz-adv-x="1140" d="M106 1320H417Q628 1320 764 1236T967 1002T1033 661Q1033 468 967 319T765 85T417 0H106V1320ZM276 1164V156H403Q559 156 658 221T804 399T853 659Q853 806 806 919T659 1098T403 1164H276Z" />
<glyph unicode="E" horiz-adv-x="1051" d="M111 1320H891V1165H280V737H879V586H280V155H891V0H111V1320Z" />
<glyph unicode="F" horiz-adv-x="910" d="M110 1320H798V1165H280V739H763V585H280V0H110V1320Z" />
<glyph unicode="G" horiz-adv-x="1438" d="M683 717H1349V645Q1349 507 1301 386T1166 172T960 28T701 -24Q557 -24 437 29T229 177T93 396T45 661Q45 801 93 925T229 1143T437 1290T701 1344Q799 1344 880 1323T1027 1263T1144 1176T1232 1073L1077 990Q1017
1073 923 1127T701 1181Q597 1181 509 1140T357 1027T257 861T222 661Q222 555 257 461T356 294T509 180T701 139Q800 139 882 173T1025 267T1121 407T1160 579H683V717Z" />
<glyph unicode="H" horiz-adv-x="1241" d="M913 585H280V0H111V1320H280V739H913V1320H1082V0H913V585Z" />
<glyph unicode="I" horiz-adv-x="467" d="M125 1320H297V0H125V1320Z" />
<glyph unicode="J" horiz-adv-x="778" d="M653 401Q653 269 612 174T490 28T287 -24Q192 -24 127 2T26 59T-19 106L56 253Q67 235 91 209T158 162T266 142Q343 142 390 177T460 276T482 422V1320H653V401Z" />
<glyph unicode="K" horiz-adv-x="1013" d="M440 667L979 0H773L281 610V0H110V1320H281V715L741 1320H938L440 667Z" />
<glyph unicode="L" horiz-adv-x="917" d="M110 1320H281V155H800V0H110V1320Z" />
<glyph unicode="M" horiz-adv-x="1475" d="M1305 1320V0H1135V953L1144 1099L1108 938L790 75H621L303 938L268 1099L276 953V0H105V1320H333L693 284L705 217L718 284L1079 1320H1305Z" />
<glyph unicode="N" horiz-adv-x="1356" d="M271 1158L282 1156V0H111V1320H352L1037 165L1026 163V1320H1197V0H954L271 1158Z" />
<glyph unicode="O" horiz-adv-x="1445" d="M222 661Q222 514 283 396T453 209T701 139Q842 139 949 208T1118 396T1179 661Q1179 808 1118 925T950 1112T701 1181Q561 1181 453 1112T284 926T222 661ZM45 661Q45 805 94 929T233 1147T441 1292T701 1344Q842 1344
961 1292T1169 1147T1307 930T1356 661Q1356 516 1308 392T1171 174T963 28T701 -24Q558 -24 438 28T229 173T93 391T45 661Z" />
<glyph unicode="P" horiz-adv-x="1037" d="M120 1320H494Q618 1320 717 1280T876 1153T935 929Q935 792 876 702T718 568T494 523H291V0H120V1320ZM291 666H447Q532 666 601 691T712 773T754 926Q754 1023 713 1077T602 1154T447 1177H291V666Z" />
<glyph unicode="Q" horiz-adv-x="1416" d="M1068 -67Q1125 -67 1168 -54T1236 -27T1264 -9L1335 -131Q1310 -160 1244 -194T1066 -229Q996 -229 947 -214T854 -179T764 -143T653 -127Q592 -127 544 -148T467 -192T436 -218L352 -122Q416 -62 496 -26T684 11Q762
11 822 -8T941 -47T1068 -67ZM222 661Q222 514 283 396T453 209T701 139Q842 139 949 208T1118 396T1179 661Q1179 808 1118 925T950 1112T701 1181Q561 1181 453 1112T284 926T222 661ZM45 661Q45 805 94 929T233 1147T441 1292T701 1344Q842 1344 961 1292T1169
1147T1307 930T1356 661Q1356 516 1308 392T1171 174T963 28T701 -24Q558 -24 438 28T229 173T93 391T45 661Z" />
<glyph unicode="R" horiz-adv-x="1109" d="M110 1320H571Q678 1320 765 1276T905 1146T958 937Q958 815 910 735T793 615T667 570L994 0H800L494 558H281V0H110V1320ZM281 685H511Q629 685 706 744T783 933Q783 1063 707 1120T512 1177H281V685Z" />
<glyph unicode="S" horiz-adv-x="1056" d="M521 1344Q635 1344 717 1318T847 1263T904 1225L816 1084Q801 1097 763 1121T668 1165T538 1185Q425 1185 360 1140T294 1011Q294 955 328 913T426 835T573 763Q642 734 708 697T829 610T916 494T949 342Q949 257 915
189T818 74T672 1T493 -24Q372 -24 275 6T118 69T49 110L142 257Q154 247 186 228T265 187T371 152T497 137Q631 137 700 197T769 351Q769 423 725 475T608 568T447 647Q357 688 282 737T162 854T116 1020Q116 1116 170 1189T317 1303T521 1344Z" />
<glyph unicode="T" horiz-adv-x="989" d="M383 1165H27V1320H911V1165H555V0H383V1165Z" />
<glyph unicode="U" horiz-adv-x="1243" d="M935 1320H1106V500Q1106 337 1041 220T863 39T603 -24Q457 -24 343 39T163 219T98 500V1320H268V509Q268 394 312 310T432 181T603 135Q698 135 773 180T891 310T935 509V1320Z" />
<glyph unicode="V" horiz-adv-x="1250" d="M702 0H500L17 1320H210L601 208L994 1320H1186L702 0Z" />
<glyph unicode="W" horiz-adv-x="1648" d="M1269 0H1054L774 1121H807L526 0H311L33 1320H228L429 223H426L712 1320H868L1154 223H1151L1353 1320H1547L1269 0Z" />
<glyph unicode="X" horiz-adv-x="1241" d="M709 710L1190 0H970L592 569L216 0H9L480 710L55 1320H271L597 843L920 1320H1129L709 710Z" />
<glyph unicode="Y" horiz-adv-x="1106" d="M442 475L-1 1320H205L528 674L850 1320H1056L614 475V0H442V475Z" />
<glyph unicode="Z" horiz-adv-x="1177" d="M132 1320H1087L345 155H1044V0H39L784 1165H132V1320Z" />
<glyph unicode="[" horiz-adv-x="683" d="M110 -416V1376H538V1243H254V-283H538V-416H110Z" />
<glyph unicode="\" horiz-adv-x="954" d="M868 0H718L59 1376H209L868 0Z" />
<glyph unicode="]" horiz-adv-x="683" d="M93 -416V-283H377V1243H93V1376H521V-416H93Z" />
<glyph unicode="^" horiz-adv-x="855" d="M783 968H625L411 1230L199 968H39L360 1344H463L783 968Z" />
<glyph unicode="_" horiz-adv-x="818" d="M19 -158V-46H792V-158H19Z" />
<glyph unicode="`" horiz-adv-x="682" d="M472 974L131 1183L229 1307L535 1056L472 974Z" />
<glyph unicode="a" horiz-adv-x="1063" d="M765 0V160Q757 135 719 91T614 12T457 -24Q343 -24 251 30T104 181T49 410Q49 541 103 638T250 790T457 845Q546 845 611 813T716 739T763 667V821H935V0H765ZM221 410Q221 321 260 256T361 156T495 120Q571 120 631
156T726 257T761 410Q761 497 726 562T631 664T495 701Q424 701 362 665T260 564T221 410Z" />
<glyph unicode="b" horiz-adv-x="1048" d="M101 0V1376H277V667Q283 698 324 740T434 813T593 845Q708 845 797 791T937 639T989 410Q989 279 938 182T797 30T593 -24Q508 -24 440 8T328 83T274 160V0H101ZM816 410Q816 499 780 564T685 665T554 701Q477 701 414
665T314 563T277 410Q277 323 314 258T414 156T554 120Q625 120 684 155T780 256T816 410Z" />
<glyph unicode="c" horiz-adv-x="830" d="M492 120Q570 120 618 145T678 181L763 56Q753 47 716 28T620 -8T487 -24Q374 -24 277 26T121 174T61 411Q61 552 120 648T277 795T487 845Q560 845 617 828T711 789T760 757L674 632Q666 640 644 656T583 687T492 701Q428
701 368 667T268 567T229 411Q229 320 268 255T367 155T492 120Z" />
<glyph unicode="d" horiz-adv-x="1048" d="M467 -24Q354 -24 265 30T124 181T72 410Q72 541 123 638T264 790T467 845Q558 845 627 814T737 740T784 667V1376H959V0H787V160Q776 126 733 83T621 8T467 -24ZM507 120Q583 120 646 156T746 257T784 410Q784 497 747
562T646 664T507 701Q437 701 377 665T281 564T244 410Q244 321 280 256T377 156T507 120Z" />
<glyph unicode="e" horiz-adv-x="953" d="M214 375Q215 301 246 240T338 143T490 107Q566 107 619 129T707 183T756 240L841 135Q808 87 761 51T645 -4T479 -24Q347 -24 251 32T102 189T50 420Q50 540 99 636T241 789T467 845Q588 845 677 795T816 652T866 432Q866
424 865 404T863 375H214ZM700 506Q699 547 677 596T604 680T469 715Q381 715 328 681T249 599T220 506H700Z" />
<glyph unicode="f" horiz-adv-x="654" d="M28 821H196V1054Q196 1179 239 1255T350 1365T489 1400Q575 1400 621 1376T677 1344L607 1211Q602 1217 576 1233T505 1249Q472 1249 441 1233T389 1171T368 1034V821H602V672H368V0H196V672H28V821Z" />
<glyph unicode="g" horiz-adv-x="1070" d="M497 -439Q400 -439 322 -419T185 -363T91 -277L205 -168Q224 -194 256 -223T345 -274T491 -295Q579 -295 640 -258T733 -156T765 -12V15H935V-23Q935 -159 877 -251T719 -391T497 -439ZM765 0V160Q757 135 719 91T614
12T457 -24Q343 -24 251 30T104 181T49 410Q49 541 103 638T250 790T457 845Q546 845 611 813T716 739T763 667V821H935V0H765ZM221 410Q221 321 260 256T361 156T495 120Q571 120 631 156T726 257T761 410Q761 497 726 562T631 664T495 701Q424 701 362 665T260
564T221 410Z" />
<glyph unicode="h" horiz-adv-x="1033" d="M570 845Q651 845 727 811T853 704T903 512V0H727V478Q727 600 672 655T526 711Q466 711 411 678T321 586T285 453V0H109V1376H285V675Q294 709 333 749T435 817T570 845Z" />
<glyph unicode="i" horiz-adv-x="459" d="M124 0V821H298V0H124ZM213 1102Q166 1102 133 1135T99 1216Q99 1263 132 1297T213 1331Q244 1331 270 1315T313 1274T329 1216Q329 1169 295 1136T213 1102Z" />
<glyph unicode="j" horiz-adv-x="478" d="M70 -440Q3 -440 -42 -425T-108 -396L-43 -263Q-30 -274 -13 -281T39 -289Q83 -289 106 -262T139 -187T148 -72V821H322V-114Q322 -211 298 -284T218 -399T70 -440ZM240 1102Q192 1102 159 1135T126 1216Q126 1247 141
1273T183 1315T240 1331Q272 1331 298 1315T339 1273T354 1216Q354 1169 321 1136T240 1102Z" />
<glyph unicode="k" horiz-adv-x="861" d="M607 821H817L393 430L845 0H632L251 364V0H77V1376H251V496L607 821Z" />
<glyph unicode="l" horiz-adv-x="431" d="M286 0H111V1376H286V0Z" />
<glyph unicode="m" horiz-adv-x="1515" d="M1090 845Q1181 845 1246 806T1345 685T1380 478V0H1208V443Q1208 576 1171 643T1036 710Q984 710 937 682T859 594T828 443V0H666V443Q666 576 620 643T491 710Q438 710 392 683T316 596T287 443V0H114V821H287V695Q298
726 334 761T428 820T557 845Q631 845 681 815T760 742T800 658Q814 701 854 744T955 816T1090 845Z" />
<glyph unicode="n" horiz-adv-x="1020" d="M564 845Q645 845 721 811T847 704T897 512V0H721V478Q721 600 664 655T517 711Q458 711 404 678T314 586T279 453V0H105V821H279V675Q288 709 328 749T430 817T564 845Z" />
<glyph unicode="o" horiz-adv-x="1003" d="M485 -24Q358 -24 260 33T105 187T49 408Q49 531 105 630T259 787T485 845Q611 845 708 787T861 630T916 408Q916 285 861 188T709 33T485 -24ZM485 125Q565 125 624 162T717 263T750 409Q750 490 717 555T625 658T485
696Q404 696 344 658T251 555T217 409Q217 328 250 264T344 162T485 125Z" />
<glyph unicode="p" horiz-adv-x="1072" d="M281 -416H108V821H284V667Q293 698 334 740T444 813T604 845Q718 845 806 791T945 639T996 410Q996 279 944 182T803 30T598 -24Q505 -24 436 11T327 90T281 160V-416ZM824 410Q824 499 788 564T691 665T561 701Q484
701 421 665T321 563T284 410Q284 323 321 258T421 156T561 120Q631 120 691 155T787 256T824 410Z" />
<glyph unicode="q" horiz-adv-x="1072" d="M791 -416V160Q786 134 746 90T637 11T474 -24Q360 -24 270 30T128 181T76 410Q76 541 126 638T266 790T468 845Q559 845 628 814T738 740T788 667V821H964V-416H791ZM511 120Q589 120 651 156T751 257T788 410Q788 497
751 562T652 664T511 701Q441 701 381 665T285 564T248 410Q248 321 284 256T381 156T511 120Z" />
<glyph unicode="r" horiz-adv-x="700" d="M276 0H103V821H276V679H271Q276 705 308 744T396 814T530 845Q587 845 630 830T692 799L621 655Q607 669 572 683T485 698Q419 698 372 657T301 559T276 452V0Z" />
<glyph unicode="s" horiz-adv-x="805" d="M413 845Q477 845 532 832T628 801T686 769L617 659Q597 677 545 699T429 722Q359 722 310 695T261 615Q261 563 311 533T447 482Q515 466 574 439T671 365T708 238Q708 166 678 116T597 35T483 -10T355 -24Q279 -24 218
-9T116 28T55 66L124 190Q150 165 209 137T345 109Q429 109 481 144T533 237Q533 280 508 306T441 348T349 376Q301 387 256 405T173 451T113 521T91 619Q91 690 136 740T254 818T413 845Z" />
<glyph unicode="t" horiz-adv-x="662" d="M35 821H196V1158H369V821H580V672H369V266Q369 194 394 160T463 126Q501 126 522 140T547 159L616 31Q610 26 584 12T517 -13T421 -24Q325 -24 261 34T196 220V672H35V821Z" />
<glyph unicode="u" horiz-adv-x="1023" d="M268 407Q268 278 323 202T494 125Q610 125 665 201T720 407V821H892V383Q892 263 846 171T711 28T494 -24Q367 -24 279 27T144 171T97 383V821H268V407Z" />
<glyph unicode="v" horiz-adv-x="991" d="M23 821H210L478 161L746 821H932L581 0H376L23 821Z" />
<glyph unicode="w" horiz-adv-x="1325" d="M646 615L437 0H257L34 821H219L368 190L574 805H718L922 190L1072 821H1258L1035 0H855L646 615Z" />
<glyph unicode="x" horiz-adv-x="1009" d="M590 434L946 0H746L483 327L221 0H32L387 424L68 821H269L492 536L719 821H905L590 434Z" />
<glyph unicode="y" horiz-adv-x="924" d="M446 159L723 821H897L343 -416H167L353 0L15 821H192L446 159Z" />
<glyph unicode="z" horiz-adv-x="842" d="M73 821H789L298 132H769V0H17L508 690H73V821Z" />
<glyph unicode="{" horiz-adv-x="701" d="M110 541Q178 541 206 578T234 670V1139Q234 1207 253 1260T318 1345T445 1376H556V1240H480Q428 1240 403 1216T378 1136V651Q378 584 350 538T260 479Q322 465 350 420T378 309V-176Q378 -222 398 -251T480 -280H556V-416H445Q364
-416 318 -385T253 -301T234 -179V290Q234 345 206 382T110 420V541Z" />
<glyph unicode="|" horiz-adv-x="392" d="M259 -247H102V1413H259V-247Z" />
<glyph unicode="}" horiz-adv-x="775" d="M169 -416V-280H244Q306 -280 326 -251T346 -176V309Q346 374 374 419T465 479Q404 492 375 538T346 651V1136Q346 1191 322 1215T244 1240H169V1376H280Q361 1376 407 1345T472 1261T491 1139V670Q491 615 518 578T615
541V420Q546 420 519 383T491 290V-179Q491 -247 472 -300T407 -385T280 -416H169Z" />
<glyph unicode="~" horiz-adv-x="1171" d="M1038 725Q1015 681 973 633T874 551T753 517Q691 517 643 541T556 597T478 652T395 676Q354 676 319 654T258 601T217 539L99 605Q122 649 164 697T263 778T385 812Q449 812 497 788T584 733T661 678T744 654Q786 654
821 675T883 728T924 790L1038 725Z" />
<glyph unicode="&#xa0;" horiz-adv-x="499" />
<glyph unicode="&#xa1;" horiz-adv-x="619" d="M211 -54L249 956H368L407 -54H211ZM307 1076Q252 1076 213 1115T173 1212Q173 1249 191 1279T240 1328T307 1346Q364 1346 403 1307T443 1212Q443 1155 404 1116T307 1076Z" />
<glyph unicode="&#xa2;" horiz-adv-x="830" d="M418 1018H529V790H418V1018ZM418 21H529V-206H418V21ZM492 120Q570 120 618 145T678 181L763 56Q753 47 716 28T620 -8T487 -24Q374 -24 277 26T121 174T61 411Q61 552 120 648T277 795T487 845Q560 845 617 828T711
789T760 757L674 632Q666 640 644 656T583 687T492 701Q428 701 368 667T268 567T229 411Q229 320 268 255T367 155T492 120Z" />
<glyph unicode="&#xa3;" horiz-adv-x="1206" d="M289 603Q281 615 266 651T234 738T205 846T193 957Q193 1063 237 1151T374 1293T609 1346Q731 1346 817 1302T955 1196T1026 1075L883 1001Q871 1044 837 1090T748 1169T615 1202Q495 1202 428 1137T361 950Q361
907 372 854T400 750T432 659T456 603Q487 524 499 472T511 367Q511 321 500 282T485 232Q523 228 559 210T632 170T711 132T799 115Q850 115 883 137T934 190T955 245L1098 191Q1085 145 1049 95T954 11T815 -24Q741 -24 685 -3T580 46T483 95T373 116Q331 116
299 94T248 45T226 0H91Q95 61 131 116T222 207T339 243Q347 257 355 288T363 363Q363 416 344 475T289 603ZM100 626H824V514H100V626Z" />
<glyph unicode="&#xa4;" horiz-adv-x="987" d="M887 1040L965 962L805 801L726 880L887 1040ZM182 336L261 257L99 97L21 174L182 336ZM99 1040L261 880L182 801L21 962L99 1040ZM805 336L965 174L887 97L726 257L805 336ZM495 136Q369 136 271 193T116 347T60
568Q60 691 116 790T270 947T495 1005Q622 1005 719 947T872 790T927 568Q927 445 872 348T720 193T495 136ZM495 285Q576 285 635 322T728 423T761 569Q761 650 728 715T636 818T495 856Q415 856 355 818T262 715T228 569Q228 488 261 424T355 322T495 285Z" />
<glyph unicode="&#xa5;" horiz-adv-x="1106" d="M77 630H980V512H77V630ZM77 378H980V260H77V378ZM442 475L-1 1320H205L528 674L850 1320H1056L614 475V0H442V475Z" />
<glyph unicode="&#xa6;" horiz-adv-x="392" d="M246 845H110V1376H246V845ZM246 0H110V531H246V0Z" />
<glyph unicode="&#xa7;" horiz-adv-x="1085" d="M475 -440Q359 -440 278 -398T148 -296T83 -179L237 -131Q247 -167 276 -205T355 -269T475 -296Q563 -296 614 -271T687 -202T709 -107Q709 -44 673 1T569 81T411 151Q257 208 180 282T103 473Q103 547 144 605T240
700T337 749Q288 784 247 824T181 918T156 1042Q156 1123 200 1191T329 1301T538 1344Q646 1344 721 1305T840 1208T897 1096L754 1049Q744 1082 717 1117T646 1177T541 1202Q446 1202 388 1159T329 1050Q329 987 363 942T458 863T597 799Q697 760 775 715T898
607T943 454Q943 383 913 329T834 236T732 173Q808 129 848 59T889 -101Q889 -161 866 -221T794 -330T666 -410T475 -440ZM443 686Q401 674 359 649T290 587T263 497Q263 428 326 381T472 300Q525 279 563 262T623 236Q654 245 691 269T756 333T784 429Q784 477
748 517T654 590T528 651Q516 656 497 664T461 678T443 686Z" />
<glyph unicode="&#xa8;" horiz-adv-x="959" d="M657 1011Q612 1011 581 1043T550 1118Q550 1161 581 1193T657 1226Q700 1226 732 1194T764 1118Q764 1074 732 1043T657 1011ZM267 1011Q223 1011 192 1043T160 1118Q160 1161 191 1193T267 1226Q310 1226 342 1194T374
1118Q374 1074 342 1043T267 1011Z" />
<glyph unicode="&#xa9;" horiz-adv-x="1503" d="M50 659Q50 801 103 925T250 1143T468 1290T733 1344Q875 1344 999 1291T1217 1143T1364 925T1418 659Q1418 518 1365 395T1217 177T999 29T733 -24Q592 -24 469 29T251 176T103 394T50 659ZM159 659Q159 541 204
437T328 254T511 130T733 85Q852 85 956 130T1140 254T1264 437T1309 659Q1309 778 1264 882T1140 1065T957 1190T733 1235Q615 1235 511 1190T328 1066T204 882T159 659ZM755 844Q800 844 836 830T884 805L928 896Q926 900 878 924T740 949Q655 949 586 910T475
802T434 650Q434 568 475 502T585 397T740 357Q785 357 823 366T890 388T928 406L884 496Q872 486 838 474T757 462Q676 462 622 513T567 653Q567 739 620 791T755 844Z" />
<glyph unicode="&#xaa;" horiz-adv-x="832" d="M127 1075Q127 1156 161 1216T253 1310T382 1344Q450 1344 494 1318T554 1265V1329L672 1328V821H556V890H554Q546 875 523 855T465 820T382 805Q311 805 253 838T161 932T127 1075ZM247 1075Q247 999 292 955T398
911Q465 911 511 957T557 1075Q557 1146 510 1192T398 1238Q339 1238 293 1194T247 1075Z" />
<glyph unicode="&#xab;" horiz-adv-x="965" d="M449 141L361 70L67 445L361 819L449 750L207 445L449 141ZM830 141L741 70L448 445L741 819L830 750L588 445L830 141Z" />
<glyph unicode="&#xac;" horiz-adv-x="893" d="M741 531V161H590V380H109V531H741Z" />
<glyph unicode="&#xad;" horiz-adv-x="768" d="M109 380V531H624V380H109Z" />
<glyph unicode="&#xae;" horiz-adv-x="851" d="M50 984Q50 1083 98 1164T228 1295T407 1344Q507 1344 588 1295T718 1165T767 984Q767 886 719 805T589 675T407 627Q309 627 228 675T99 804T50 984ZM125 984Q125 905 163 841T265 739T407 701Q487 701 552 739T655
841T693 984Q693 1063 655 1127T552 1231T407 1270Q330 1270 266 1231T163 1128T125 984ZM307 1152H415Q462 1152 492 1127T523 1054Q523 1016 505 993T457 958L552 821H479L396 952H369V821H307V1152ZM369 998H395Q421 998 440 1008T460 1051Q460 1085 438 1092T391
1099H369V998Z" />
<glyph unicode="&#xaf;" horiz-adv-x="938" d="M159 1049V1171H746V1049H159Z" />
<glyph unicode="&#xb0;" horiz-adv-x="597" d="M126 1235Q126 1299 171 1338T281 1378Q346 1378 390 1339T435 1235Q435 1172 392 1132T281 1092Q212 1092 169 1132T126 1235ZM203 1235Q203 1203 225 1180T281 1156Q314 1156 337 1179T360 1235Q360 1268 337 1290T281
1313Q249 1313 226 1291T203 1235Z" />
<glyph unicode="&#xb1;" horiz-adv-x="1074" d="M448 389V727H109V872H448V1210H594V872H930V727H594V389H448ZM109 108V254H933V108H109Z" />
<glyph unicode="&#xb2;" horiz-adv-x="472" d="M253 1285Q221 1285 197 1272T157 1242T133 1210T123 1195L64 1221Q65 1224 71 1237T92 1268T128 1304T181 1332T253 1344Q295 1344 326 1333T376 1300T406 1251T416 1188Q416 1154 401 1120T360 1053T306 991T251
939T205 901T180 881H411V821H76V876Q88 885 112 904T168 950T230 1006T288 1068T331 1130T348 1188Q348 1242 324 1263T253 1285Z" />
<glyph unicode="&#xb3;" horiz-adv-x="432" d="M52 1254Q55 1263 65 1278T95 1310T143 1337T211 1348Q261 1348 297 1329T352 1279T371 1207Q371 1176 359 1152T328 1112T288 1092Q310 1090 333 1075T372 1033T388 968Q388 921 365 884T302 825T210 803Q158 803
122 821T64 864T34 914L97 946Q102 928 116 910T154 878T209 865Q244 865 268 879T305 916T318 969Q318 1001 303 1021T263 1052T209 1062H199V1115H212Q237 1115 259 1125T294 1155T307 1202Q307 1239 283 1264T210 1289Q183 1289 165 1281T135 1262T117 1241T111
1227L52 1254Z" />
<glyph unicode="&#xb4;" horiz-adv-x="967" d="M318 974L257 1056L560 1307L660 1183L318 974Z" />
<glyph unicode="&#xb5;" horiz-adv-x="1023" d="M97 821H268V-392H97V821ZM268 407Q268 278 323 202T494 125Q610 125 665 201T720 407V821H892V383Q892 263 846 171T711 28T494 -24Q367 -24 279 27T144 171T97 383V821H268V407Z" />
<glyph unicode="&#xb6;" horiz-adv-x="1018" d="M873 0H768V1209H654V0H549V577H450Q350 577 275 611T151 700T77 822T53 958Q53 1049 96 1131T228 1267T450 1320H873V0Z" />
<glyph unicode="&#xb7;" horiz-adv-x="525" d="M260 295Q205 295 166 334T126 429Q126 486 165 525T260 565Q317 565 356 526T395 429Q395 374 356 335T260 295Z" />
<glyph unicode="&#xb8;" horiz-adv-x="775" d="M381 -425Q308 -425 251 -403T168 -359L237 -278Q256 -295 292 -312T370 -330Q418 -330 450 -309T483 -252Q483 -214 456 -196T386 -178Q355 -178 330 -182T294 -192L265 -175L342 42L420 10L374 -118Q422 -108 475
-117T565 -158T602 -245Q602 -304 570 -344T487 -404T381 -425Z" />
<glyph unicode="&#xb9;" horiz-adv-x="249" d="M123 1240L36 1191V1254L150 1321H187V821H123V1240Z" />
<glyph unicode="&#xba;" horiz-adv-x="853" d="M126 1074Q126 1153 166 1214T271 1309T411 1344Q484 1344 548 1310T652 1214T692 1074Q692 996 654 936T552 841T411 806Q330 806 266 840T164 935T126 1074ZM250 1074Q250 1002 296 954T410 906Q474 906 522 954T570
1074Q570 1124 548 1162T488 1221T410 1243Q369 1243 333 1222T273 1162T250 1074Z" />
<glyph unicode="&#xbb;" horiz-adv-x="965" d="M551 70L463 141L705 445L463 750L551 819L845 445L551 70ZM171 70L82 141L324 445L82 750L171 819L464 445L171 70Z" />
<glyph unicode="&#xbc;" horiz-adv-x="1355" d="M251 1199L116 1123V1221L294 1324H351V550H251V1199ZM1164 770V252H1252V162H1164V0H1064V162H740V245L1055 770H1164ZM1064 252V619H1063L846 252H1064ZM990 1320H1098L330 0H222L990 1320Z" />
<glyph unicode="&#xbd;" horiz-adv-x="1489" d="M1140 694Q1092 694 1056 675T995 629T959 581T945 557L857 597Q858 601 868 621T899 668T952 721T1031 765T1140 782Q1204 782 1250 765T1326 716T1370 641T1385 546Q1385 497 1362 446T1302 345T1221 251T1137
172T1068 115T1030 85H1379V-5H874V78Q892 92 928 121T1011 189T1105 274T1193 367T1258 461T1283 548Q1283 628 1246 661T1140 694ZM252 1199L118 1123V1221L296 1324H352V550H252V1199ZM993 1320H1101L333 0H225L993 1320Z" />
<glyph unicode="&#xbe;" horiz-adv-x="1507" d="M104 1209Q108 1222 123 1244T166 1290T237 1329T337 1345Q411 1345 463 1318T542 1244T570 1140Q570 1095 553 1059T508 999T449 971Q482 968 515 946T572 883T595 788Q595 720 562 666T471 580T335 548Q259 548
206 574T120 637T77 709L169 757Q176 731 197 703T253 656T334 637Q385 637 420 657T475 713T494 791Q494 838 472 868T413 912T334 927H318V1003H338Q375 1003 407 1018T459 1063T478 1133Q478 1186 443 1223T335 1261Q296 1261 269 1250T224 1222T199 1190T189
1169L104 1209ZM1294 770V252H1382V162H1294V0H1193V162H870V245L1185 770H1294ZM1193 252V619V619L976 252H1193ZM1150 1320H1258L490 0H382L1150 1320Z" />
<glyph unicode="&#xbf;" horiz-adv-x="925" d="M425 -24Q309 -24 222 13T86 119T37 277Q37 361 75 424T172 537T292 626Q336 653 350 683T364 771V954H518V711Q518 651 491 617T415 554Q372 528 327 492T251 407T220 298Q220 211 281 169T443 126Q515 126 566
155T647 224T687 296L833 235Q830 219 813 188T765 121T685 52T573 -2T425 -24ZM439 1074Q383 1074 344 1113T304 1210Q304 1266 343 1305T439 1344Q494 1344 533 1305T573 1210Q573 1153 534 1114T439 1074Z" />
<glyph unicode="&#xc0;" horiz-adv-x="1208" d="M510 1320H688L1176 0H993L879 318H319L203 0H20L510 1320ZM374 472H825L601 1110H598L374 472ZM658 1376L317 1586L415 1710L721 1459L658 1376Z" />
<glyph unicode="&#xc1;" horiz-adv-x="1208" d="M510 1320H688L1176 0H993L879 318H319L203 0H20L510 1320ZM374 472H825L601 1110H598L374 472ZM520 1376L458 1459L763 1710L861 1586L520 1376Z" />
<glyph unicode="&#xc2;" horiz-adv-x="1208" d="M510 1320H688L1176 0H993L879 318H319L203 0H20L510 1320ZM374 472H825L601 1110H598L374 472ZM375 1404L299 1505L598 1724L898 1504L822 1402L598 1567L375 1404Z" />
<glyph unicode="&#xc3;" horiz-adv-x="1208" d="M510 1320H688L1176 0H993L879 318H319L203 0H20L510 1320ZM374 472H825L601 1110H598L374 472ZM266 1412Q276 1458 300 1506T364 1587T457 1621Q518 1621 560 1602T639 1564T721 1545Q756 1545 777 1571T804 1621H930Q920
1577 895 1529T830 1446T737 1412Q676 1412 633 1431T554 1469T478 1488Q445 1488 423 1463T392 1412H266Z" />
<glyph unicode="&#xc4;" horiz-adv-x="1208" d="M510 1320H688L1176 0H993L879 318H319L203 0H20L510 1320ZM374 472H825L601 1110H598L374 472ZM793 1410Q749 1410 718 1442T686 1517Q686 1560 717 1592T793 1625Q836 1625 868 1593T900 1517Q900 1473 868 1442T793
1410ZM403 1410Q359 1410 328 1442T297 1517Q297 1560 328 1592T403 1625Q447 1625 478 1593T510 1517Q510 1473 479 1442T403 1410Z" />
<glyph unicode="&#xc5;" horiz-adv-x="1208" d="M510 1320H688L1176 0H993L879 318H319L203 0H20L510 1320ZM374 472H825L601 1110H598L374 472ZM599 1371Q513 1371 460 1419T407 1542Q407 1616 463 1664T599 1713Q680 1713 735 1665T790 1542Q790 1467 737 1419T599
1371ZM599 1457Q634 1457 657 1479T681 1542Q681 1582 657 1604T599 1626Q566 1626 541 1604T516 1542Q516 1502 541 1480T599 1457Z" />
<glyph unicode="&#xc6;" horiz-adv-x="1656" d="M737 1320H923L904 318H368L192 0H7L737 1320ZM435 456H809V1101L806 1111L435 456ZM796 1320H1577V1165H966V737H1564V586H966V155H1577V0H796V1320Z" />
<glyph unicode="&#xc7;" horiz-adv-x="1263" d="M751 145Q874 145 964 179T1093 245L1168 98Q1123 58 1012 17T744 -24Q598 -24 473 28T255 173T109 390T56 658Q56 802 108 927T253 1145T472 1291T744 1344Q900 1344 1011 1303T1168 1222L1093 1075Q1055 1108
965 1141T751 1175Q639 1175 546 1137T385 1030T279 866T241 661Q241 549 278 455T384 291T546 183T751 145ZM747 -425Q674 -425 617 -403T534 -359L603 -278Q622 -295 658 -312T736 -330Q784 -330 816 -309T849 -252Q849 -214 822 -196T752 -178Q721 -178 696
-182T660 -192L631 -175L708 42L786 10L740 -118Q788 -108 841 -117T931 -158T968 -245Q968 -304 936 -344T853 -404T747 -425Z" />
<glyph unicode="&#xc8;" horiz-adv-x="1051" d="M111 1320H891V1165H280V737H879V586H280V155H891V0H111V1320ZM555 1376L214 1586L312 1710L618 1459L555 1376Z" />
<glyph unicode="&#xc9;" horiz-adv-x="1051" d="M111 1320H891V1165H280V737H879V586H280V155H891V0H111V1320ZM416 1376L354 1459L659 1710L757 1586L416 1376Z" />
<glyph unicode="&#xca;" horiz-adv-x="1051" d="M111 1320H891V1165H280V737H879V586H280V155H891V0H111V1320ZM271 1404L195 1505L494 1724L794 1504L718 1402L494 1567L271 1404Z" />
<glyph unicode="&#xcb;" horiz-adv-x="1051" d="M111 1320H891V1165H280V737H879V586H280V155H891V0H111V1320ZM690 1410Q646 1410 615 1442T583 1517Q583 1560 614 1592T690 1625Q733 1625 765 1593T797 1517Q797 1473 765 1442T690 1410ZM300 1410Q256 1410
225 1442T194 1517Q194 1560 225 1592T300 1625Q344 1625 375 1593T407 1517Q407 1473 376 1442T300 1410Z" />
<glyph unicode="&#xcc;" horiz-adv-x="467" d="M125 1320H297V0H125V1320ZM270 1376L-71 1586L27 1710L333 1459L270 1376Z" />
<glyph unicode="&#xcd;" horiz-adv-x="467" d="M125 1320H297V0H125V1320ZM131 1376L69 1459L374 1710L472 1586L131 1376Z" />
<glyph unicode="&#xce;" horiz-adv-x="467" d="M125 1320H297V0H125V1320ZM-14 1404L-90 1505L209 1724L509 1504L433 1402L209 1567L-14 1404Z" />
<glyph unicode="&#xcf;" horiz-adv-x="467" d="M125 1320H297V0H125V1320ZM405 1410Q361 1410 330 1442T298 1517Q298 1560 329 1592T405 1625Q448 1625 480 1593T512 1517Q512 1473 480 1442T405 1410ZM15 1410Q-29 1410 -60 1442T-91 1517Q-91 1560 -60 1592T15
1625Q59 1625 90 1593T122 1517Q122 1473 91 1442T15 1410Z" />
<glyph unicode="&#xd0;" horiz-adv-x="1140" d="M106 0V1320H417Q628 1320 764 1236T967 1002T1033 661Q1033 468 967 319T765 85T417 0H106ZM-15 582V733H534V582H-15ZM276 156H403Q559 156 658 221T804 399T853 659Q853 806 806 919T659 1098T403 1164H276V156Z" />
<glyph unicode="&#xd1;" horiz-adv-x="1356" d="M271 1158L282 1156V0H111V1320H352L1037 165L1026 163V1320H1197V0H954L271 1158ZM364 1503Q374 1549 398 1597T462 1678T555 1712Q616 1712 658 1693T737 1655T819 1636Q854 1636 875 1662T902 1712H1028Q1018
1668 993 1620T928 1537T835 1503Q774 1503 731 1522T652 1560T576 1579Q543 1579 521 1554T490 1503H364Z" />
<glyph unicode="&#xd2;" horiz-adv-x="1445" d="M222 661Q222 514 283 396T453 209T701 139Q842 139 949 208T1118 396T1179 661Q1179 808 1118 925T950 1112T701 1181Q561 1181 453 1112T284 926T222 661ZM45 661Q45 805 94 929T233 1147T441 1292T701 1344Q842
1344 961 1292T1169 1147T1307 930T1356 661Q1356 516 1308 392T1171 174T963 28T701 -24Q558 -24 438 28T229 173T93 391T45 661ZM761 1376L420 1586L518 1710L824 1459L761 1376Z" />
<glyph unicode="&#xd3;" horiz-adv-x="1445" d="M222 661Q222 514 283 396T453 209T701 139Q842 139 949 208T1118 396T1179 661Q1179 808 1118 925T950 1112T701 1181Q561 1181 453 1112T284 926T222 661ZM45 661Q45 805 94 929T233 1147T441 1292T701 1344Q842
1344 961 1292T1169 1147T1307 930T1356 661Q1356 516 1308 392T1171 174T963 28T701 -24Q558 -24 438 28T229 173T93 391T45 661ZM622 1376L560 1459L865 1710L963 1586L622 1376Z" />
<glyph unicode="&#xd4;" horiz-adv-x="1445" d="M222 661Q222 514 283 396T453 209T701 139Q842 139 949 208T1118 396T1179 661Q1179 808 1118 925T950 1112T701 1181Q561 1181 453 1112T284 926T222 661ZM45 661Q45 805 94 929T233 1147T441 1292T701 1344Q842
1344 961 1292T1169 1147T1307 930T1356 661Q1356 516 1308 392T1171 174T963 28T701 -24Q558 -24 438 28T229 173T93 391T45 661ZM477 1404L401 1505L700 1724L1000 1504L924 1402L700 1567L477 1404Z" />
<glyph unicode="&#xd5;" horiz-adv-x="1445" d="M222 661Q222 514 283 396T453 209T701 139Q842 139 949 208T1118 396T1179 661Q1179 808 1118 925T950 1112T701 1181Q561 1181 453 1112T284 926T222 661ZM45 661Q45 805 94 929T233 1147T441 1292T701 1344Q842
1344 961 1292T1169 1147T1307 930T1356 661Q1356 516 1308 392T1171 174T963 28T701 -24Q558 -24 438 28T229 173T93 391T45 661ZM385 1503Q395 1549 419 1597T483 1678T576 1712Q637 1712 679 1693T758 1655T840 1636Q875 1636 896 1662T923 1712H1049Q1039 1668
1014 1620T949 1537T856 1503Q795 1503 752 1522T673 1560T597 1579Q564 1579 542 1554T511 1503H385Z" />
<glyph unicode="&#xd6;" horiz-adv-x="1445" d="M222 661Q222 514 283 396T453 209T701 139Q842 139 949 208T1118 396T1179 661Q1179 808 1118 925T950 1112T701 1181Q561 1181 453 1112T284 926T222 661ZM45 661Q45 805 94 929T233 1147T441 1292T701 1344Q842
1344 961 1292T1169 1147T1307 930T1356 661Q1356 516 1308 392T1171 174T963 28T701 -24Q558 -24 438 28T229 173T93 391T45 661ZM896 1410Q852 1410 821 1442T789 1517Q789 1560 820 1592T896 1625Q939 1625 971 1593T1003 1517Q1003 1473 971 1442T896 1410ZM506
1410Q462 1410 431 1442T400 1517Q400 1560 431 1592T506 1625Q550 1625 581 1593T613 1517Q613 1473 582 1442T506 1410Z" />
<glyph unicode="&#xd7;" horiz-adv-x="1006" d="M589 663L864 390L762 287L488 561L213 287L109 391L383 664L110 938L213 1041L487 767L760 1041L864 937L589 663Z" />
<glyph unicode="&#xd8;" horiz-adv-x="1416" d="M1296 1337L1368 1272L85 -42L13 24L1296 1337ZM222 661Q222 514 283 396T453 209T701 139Q842 139 949 208T1118 396T1179 661Q1179 808 1118 925T950 1112T701 1181Q561 1181 453 1112T284 926T222 661ZM45 661Q45
805 94 929T233 1147T441 1292T701 1344Q842 1344 961 1292T1169 1147T1307 930T1356 661Q1356 516 1308 392T1171 174T963 28T701 -24Q558 -24 438 28T229 173T93 391T45 661Z" />
<glyph unicode="&#xd9;" horiz-adv-x="1243" d="M935 1320H1106V500Q1106 337 1041 220T863 39T603 -24Q457 -24 343 39T163 219T98 500V1320H268V509Q268 394 312 310T432 181T603 135Q698 135 773 180T891 310T935 509V1320ZM663 1376L322 1586L420 1710L726
1459L663 1376Z" />
<glyph unicode="&#xda;" horiz-adv-x="1243" d="M935 1320H1106V500Q1106 337 1041 220T863 39T603 -24Q457 -24 343 39T163 219T98 500V1320H268V509Q268 394 312 310T432 181T603 135Q698 135 773 180T891 310T935 509V1320ZM524 1376L462 1459L767 1710L865
1586L524 1376Z" />
<glyph unicode="&#xdb;" horiz-adv-x="1243" d="M935 1320H1106V500Q1106 337 1041 220T863 39T603 -24Q457 -24 343 39T163 219T98 500V1320H268V509Q268 394 312 310T432 181T603 135Q698 135 773 180T891 310T935 509V1320ZM379 1404L303 1505L602 1724L902
1504L826 1402L602 1567L379 1404Z" />
<glyph unicode="&#xdc;" horiz-adv-x="1243" d="M935 1320H1106V500Q1106 337 1041 220T863 39T603 -24Q457 -24 343 39T163 219T98 500V1320H268V509Q268 394 312 310T432 181T603 135Q698 135 773 180T891 310T935 509V1320ZM798 1410Q754 1410 723 1442T691
1517Q691 1560 722 1592T798 1625Q841 1625 873 1593T905 1517Q905 1473 873 1442T798 1410ZM408 1410Q364 1410 333 1442T302 1517Q302 1560 333 1592T408 1625Q452 1625 483 1593T515 1517Q515 1473 484 1442T408 1410Z" />
<glyph unicode="&#xdd;" horiz-adv-x="1106" d="M442 475L-1 1320H205L528 674L850 1320H1056L614 475V0H442V475ZM449 1376L387 1459L692 1710L790 1586L449 1376Z" />
<glyph unicode="&#xde;" horiz-adv-x="1026" d="M111 1320H280V1075H527Q644 1075 736 1031T882 896T935 669Q935 533 882 439T737 295T527 245H280V0H111V1320ZM280 387H496Q613 387 682 460T752 669Q752 805 683 869T496 933H280V387Z" />
<glyph unicode="&#xdf;" horiz-adv-x="1018" d="M441 127Q543 127 610 163T710 259T744 394Q744 523 663 591T441 659V790Q560 790 633 861T707 1046Q707 1124 680 1170T606 1236T502 1257Q424 1257 371 1216T292 1110T266 969V0H103V962Q103 1097 154 1195T294
1347T499 1400Q663 1400 763 1310T864 1048Q864 964 829 898T741 789T639 731Q704 719 767 675T873 557T916 386Q916 260 857 168T691 26T441 -24V127Z" />
<glyph unicode="&#xe0;" horiz-adv-x="1063" d="M765 0V160Q757 135 719 91T614 12T457 -24Q343 -24 251 30T104 181T49 410Q49 541 103 638T250 790T457 845Q546 845 611 813T716 739T763 667V821H935V0H765ZM221 410Q221 321 260 256T361 156T495 120Q571 120
631 156T726 257T761 410Q761 497 726 562T631 664T495 701Q424 701 362 665T260 564T221 410ZM661 974L320 1183L418 1307L724 1056L661 974Z" />
<glyph unicode="&#xe1;" horiz-adv-x="1063" d="M765 0V160Q757 135 719 91T614 12T457 -24Q343 -24 251 30T104 181T49 410Q49 541 103 638T250 790T457 845Q546 845 611 813T716 739T763 667V821H935V0H765ZM221 410Q221 321 260 256T361 156T495 120Q571 120
631 156T726 257T761 410Q761 497 726 562T631 664T495 701Q424 701 362 665T260 564T221 410ZM381 1190L320 1273L623 1524L723 1400L381 1190Z" />
<glyph unicode="&#xe2;" horiz-adv-x="1063" d="M765 0V160Q757 135 719 91T614 12T457 -24Q343 -24 251 30T104 181T49 410Q49 541 103 638T250 790T457 845Q546 845 611 813T716 739T763 667V821H935V0H765ZM221 410Q221 321 260 256T361 156T495 120Q571 120
631 156T726 257T761 410Q761 497 726 562T631 664T495 701Q424 701 362 665T260 564T221 410ZM729 1171L505 1335L282 1172L206 1273L505 1492L805 1273L729 1171Z" />
<glyph unicode="&#xe3;" horiz-adv-x="1063" d="M765 0V160Q757 135 719 91T614 12T457 -24Q343 -24 251 30T104 181T49 410Q49 541 103 638T250 790T457 845Q546 845 611 813T716 739T763 667V821H935V0H765ZM221 410Q221 321 260 256T361 156T495 120Q571 120
631 156T726 257T761 410Q761 497 726 562T631 664T495 701Q424 701 362 665T260 564T221 410ZM188 1004Q198 1050 222 1098T286 1179T379 1213Q440 1213 482 1194T561 1156T643 1137Q678 1137 699 1163T726 1213H852Q842 1169 817 1121T752 1038T659 1004Q598
1004 555 1023T476 1061T400 1080Q367 1080 345 1055T314 1004H188Z" />
<glyph unicode="&#xe4;" horiz-adv-x="1063" d="M765 0V160Q757 135 719 91T614 12T457 -24Q343 -24 251 30T104 181T49 410Q49 541 103 638T250 790T457 845Q546 845 611 813T716 739T763 667V821H935V0H765ZM221 410Q221 321 260 256T361 156T495 120Q571 120
631 156T726 257T761 410Q761 497 726 562T631 664T495 701Q424 701 362 665T260 564T221 410ZM714 1248Q669 1248 638 1280T607 1355Q607 1398 638 1430T714 1463Q757 1463 789 1431T821 1355Q821 1311 789 1280T714 1248ZM324 1248Q280 1248 249 1280T217 1355Q217
1398 248 1430T324 1463Q367 1463 399 1431T431 1355Q431 1311 399 1280T324 1248Z" />
<glyph unicode="&#xe5;" horiz-adv-x="1063" d="M765 0V160Q757 135 719 91T614 12T457 -24Q343 -24 251 30T104 181T49 410Q49 541 103 638T250 790T457 845Q546 845 611 813T716 739T763 667V821H935V0H765ZM221 410Q221 321 260 256T361 156T495 120Q571 120
631 156T726 257T761 410Q761 497 726 562T631 664T495 701Q424 701 362 665T260 564T221 410ZM504 1181Q412 1181 356 1232T299 1364Q299 1417 326 1458T400 1523T504 1547Q562 1547 608 1523T681 1458T709 1364Q709 1283 652 1232T504 1181ZM504 1275Q540 1275
565 1298T590 1364Q590 1405 565 1428T504 1451Q470 1451 444 1428T418 1364Q418 1322 443 1299T504 1275Z" />
<glyph unicode="&#xe6;" horiz-adv-x="1487" d="M372 -24Q287 -24 217 6T105 99T63 253Q63 330 106 389T223 482T387 516Q456 516 505 502T584 469T623 440V478Q623 545 603 590T550 662T476 702T394 714Q314 714 252 685T163 629L79 751Q113 781 199 813T405
845Q490 845 553 817T656 745T713 657Q732 699 776 742T883 815T1019 845Q1133 845 1219 797T1352 653T1400 410Q1400 401 1399 396T1398 382H791Q791 292 822 232T907 142T1030 112Q1092 112 1141 136T1225 193T1275 246L1381 148Q1350 112 1300 72T1179 4T1019
-24Q947 -24 882 -1T769 62T694 147Q681 117 638 77T528 6T372 -24ZM393 90Q452 89 497 114T569 179T596 260Q596 329 542 370T409 412Q363 412 318 394T244 339T214 252Q214 183 265 137T393 90ZM799 485H1237Q1235 510 1227 550T1196 632T1134 701T1027 729Q927
729 868 662T799 485Z" />
<glyph unicode="&#xe7;" horiz-adv-x="814" d="M492 120Q570 120 618 145T678 181L763 56Q753 47 716 28T620 -8T487 -24Q374 -24 277 26T121 174T61 411Q61 552 120 648T277 795T487 845Q560 845 617 828T711 789T760 757L674 632Q666 640 644 656T583 687T492
701Q428 701 368 667T268 567T229 411Q229 320 268 255T367 155T492 120ZM403 -425Q330 -425 273 -403T190 -359L259 -278Q278 -295 314 -312T392 -330Q440 -330 472 -309T505 -252Q505 -214 478 -196T408 -178Q377 -178 352 -182T316 -192L287 -175L364 42L442
10L396 -118Q444 -108 497 -117T587 -158T624 -245Q624 -304 592 -344T509 -404T403 -425Z" />
<glyph unicode="&#xe8;" horiz-adv-x="955" d="M214 375Q215 301 246 240T338 143T490 107Q566 107 619 129T707 183T756 240L841 135Q808 87 761 51T645 -4T479 -24Q347 -24 251 32T102 189T50 420Q50 540 99 636T241 789T467 845Q588 845 677 795T816 652T866
432Q866 424 865 404T863 375H214ZM700 506Q699 547 677 596T604 680T469 715Q381 715 328 681T249 599T220 506H700ZM624 974L283 1183L381 1307L687 1056L624 974Z" />
<glyph unicode="&#xe9;" horiz-adv-x="955" d="M214 375Q215 301 246 240T338 143T490 107Q566 107 619 129T707 183T756 240L841 135Q808 87 761 51T645 -4T479 -24Q347 -24 251 32T102 189T50 420Q50 540 99 636T241 789T467 845Q588 845 677 795T816 652T866
432Q866 424 865 404T863 375H214ZM700 506Q699 547 677 596T604 680T469 715Q381 715 328 681T249 599T220 506H700ZM344 1190L283 1273L586 1524L686 1400L344 1190Z" />
<glyph unicode="&#xea;" horiz-adv-x="955" d="M214 375Q215 301 246 240T338 143T490 107Q566 107 619 129T707 183T756 240L841 135Q808 87 761 51T645 -4T479 -24Q347 -24 251 32T102 189T50 420Q50 540 99 636T241 789T467 845Q588 845 677 795T816 652T866
432Q866 424 865 404T863 375H214ZM700 506Q699 547 677 596T604 680T469 715Q381 715 328 681T249 599T220 506H700ZM948 1171L724 1335L501 1172L425 1273L724 1492L1024 1273L948 1171Z" />
<glyph unicode="&#xeb;" horiz-adv-x="955" d="M214 375Q215 301 246 240T338 143T490 107Q566 107 619 129T707 183T756 240L841 135Q808 87 761 51T645 -4T479 -24Q347 -24 251 32T102 189T50 420Q50 540 99 636T241 789T467 845Q588 845 677 795T816 652T866
432Q866 424 865 404T863 375H214ZM700 506Q699 547 677 596T604 680T469 715Q381 715 328 681T249 599T220 506H700ZM678 1248Q633 1248 602 1280T571 1355Q571 1398 602 1430T678 1463Q721 1463 753 1431T785 1355Q785 1311 753 1280T678 1248ZM288 1248Q244
1248 213 1280T181 1355Q181 1398 212 1430T288 1463Q331 1463 363 1431T395 1355Q395 1311 363 1280T288 1248Z" />
<glyph unicode="&#xec;" horiz-adv-x="383" d="M93 0V821H256V0H93ZM331 974L-10 1183L88 1307L394 1056L331 974Z" />
<glyph unicode="&#xed;" horiz-adv-x="383" d="M93 0V821H256V0H93ZM51 934L-10 1017L293 1268L393 1144L51 934Z" />
<glyph unicode="&#xee;" horiz-adv-x="383" d="M93 0V821H256V0H93ZM399 915L175 1079L-48 916L-124 1017L175 1236L475 1017L399 915Z" />
<glyph unicode="&#xef;" horiz-adv-x="383" d="M93 0V821H256V0H93ZM384 992Q339 992 308 1024T277 1099Q277 1142 308 1174T384 1207Q427 1207 459 1175T491 1099Q491 1055 459 1024T384 992ZM-6 992Q-50 992 -81 1024T-113 1099Q-113 1142 -82 1174T-6 1207Q37
1207 69 1175T101 1099Q101 1055 69 1024T-6 992Z" />
<glyph unicode="&#xf0;" horiz-adv-x="1091" d="M80 410Q80 515 116 596T214 732T353 816T511 845Q597 845 653 827T740 785T783 749Q767 805 723 866T621 983T500 1072L346 911L258 998L381 1122Q353 1135 316 1149T243 1175T187 1190L232 1330Q268 1322 315
1307T409 1273T493 1237L621 1370L715 1282L601 1176Q711 1110 801 1012T944 773T998 439Q998 304 943 200T785 36T542 -24Q399 -24 296 31T136 185T80 410ZM251 410Q251 328 286 262T386 158T539 120Q636 120 699 158T794 262T826 410Q826 554 752 627T539 700Q410
700 331 622T251 410Z" />
<glyph unicode="&#xf1;" horiz-adv-x="1020" d="M564 845Q645 845 721 811T847 704T897 512V0H721V478Q721 600 664 655T517 711Q458 711 404 678T314 586T279 453V0H105V821H279V675Q288 709 328 749T430 817T564 845ZM419 1004Q429 1050 453 1098T517 1179T610
1213Q671 1213 713 1194T792 1156T874 1137Q909 1137 930 1163T957 1213H1083Q1073 1169 1048 1121T983 1038T890 1004Q829 1004 786 1023T707 1061T631 1080Q598 1080 576 1055T545 1004H419Z" />
<glyph unicode="&#xf2;" horiz-adv-x="1003" d="M485 -24Q358 -24 260 33T105 187T49 408Q49 531 105 630T259 787T485 845Q611 845 708 787T861 630T916 408Q916 285 861 188T709 33T485 -24ZM485 125Q565 125 624 162T717 263T750 409Q750 490 717 555T625 658T485
696Q404 696 344 658T251 555T217 409Q217 328 250 264T344 162T485 125ZM639 974L298 1183L396 1307L702 1056L639 974Z" />
<glyph unicode="&#xf3;" horiz-adv-x="1003" d="M485 -24Q358 -24 260 33T105 187T49 408Q49 531 105 630T259 787T485 845Q611 845 708 787T861 630T916 408Q916 285 861 188T709 33T485 -24ZM485 125Q565 125 624 162T717 263T750 409Q750 490 717 555T625 658T485
696Q404 696 344 658T251 555T217 409Q217 328 250 264T344 162T485 125ZM359 1190L298 1273L601 1524L701 1400L359 1190Z" />
<glyph unicode="&#xf4;" horiz-adv-x="1003" d="M485 -24Q358 -24 260 33T105 187T49 408Q49 531 105 630T259 787T485 845Q611 845 708 787T861 630T916 408Q916 285 861 188T709 33T485 -24ZM485 125Q565 125 624 162T717 263T750 409Q750 490 717 555T625 658T485
696Q404 696 344 658T251 555T217 409Q217 328 250 264T344 162T485 125ZM963 1171L739 1335L516 1172L440 1273L739 1492L1039 1273L963 1171Z" />
<glyph unicode="&#xf5;" horiz-adv-x="994" d="M485 -24Q358 -24 260 33T105 187T49 408Q49 531 105 630T259 787T485 845Q611 845 708 787T861 630T916 408Q916 285 861 188T709 33T485 -24ZM485 125Q565 125 624 162T717 263T750 409Q750 490 717 555T625 658T485
696Q404 696 344 658T251 555T217 409Q217 328 250 264T344 162T485 125ZM401 1018Q411 1063 435 1111T499 1193T592 1227Q653 1227 695 1208T774 1170T856 1151Q891 1151 912 1177T939 1227H1065Q1055 1182 1030 1134T965 1052T872 1018Q811 1018 768 1037T689
1074T613 1093Q580 1093 558 1068T527 1018H401Z" />
<glyph unicode="&#xf6;" horiz-adv-x="1003" d="M485 -24Q358 -24 260 33T105 187T49 408Q49 531 105 630T259 787T485 845Q611 845 708 787T861 630T916 408Q916 285 861 188T709 33T485 -24ZM485 125Q565 125 624 162T717 263T750 409Q750 490 717 555T625 658T485
696Q404 696 344 658T251 555T217 409Q217 328 250 264T344 162T485 125ZM692 1248Q647 1248 616 1280T585 1355Q585 1398 616 1430T692 1463Q735 1463 767 1431T799 1355Q799 1311 767 1280T692 1248ZM302 1248Q258 1248 227 1280T195 1355Q195 1398 226 1430T302
1463Q345 1463 377 1431T409 1355Q409 1311 377 1280T302 1248Z" />
<glyph unicode="&#xf7;" horiz-adv-x="1021" d="M491 1089Q533 1089 562 1060T591 989Q591 950 562 922T491 893Q452 893 423 921T394 989Q394 1032 423 1060T491 1089ZM110 588V734H877V588H110ZM491 434Q533 434 562 405T591 334Q591 295 562 267T491 238Q452
238 423 266T394 334Q394 376 423 405T491 434Z" />
<glyph unicode="&#xf8;" horiz-adv-x="994" d="M863 859L925 803L102 -32L41 24L863 859ZM485 -24Q358 -24 260 33T105 187T49 408Q49 531 105 630T259 787T485 845Q611 845 708 787T861 630T916 408Q916 285 861 188T709 33T485 -24ZM485 125Q565 125 624 162T717
263T750 409Q750 490 717 555T625 658T485 696Q404 696 344 658T251 555T217 409Q217 328 250 264T344 162T485 125Z" />
<glyph unicode="&#xf9;" horiz-adv-x="1023" d="M268 407Q268 278 323 202T494 125Q610 125 665 201T720 407V821H892V383Q892 263 846 171T711 28T494 -24Q367 -24 279 27T144 171T97 383V821H268V407ZM650 974L309 1183L407 1307L713 1056L650 974Z" />
<glyph unicode="&#xfa;" horiz-adv-x="1023" d="M268 407Q268 278 323 202T494 125Q610 125 665 201T720 407V821H892V383Q892 263 846 171T711 28T494 -24Q367 -24 279 27T144 171T97 383V821H268V407ZM370 1190L309 1273L612 1524L712 1400L370 1190Z" />
<glyph unicode="&#xfb;" horiz-adv-x="1023" d="M268 407Q268 278 323 202T494 125Q610 125 665 201T720 407V821H892V383Q892 263 846 171T711 28T494 -24Q367 -24 279 27T144 171T97 383V821H268V407ZM974 1171L750 1335L527 1172L451 1273L750 1492L1050 1273L974
1171Z" />
<glyph unicode="&#xfc;" horiz-adv-x="1023" d="M268 407Q268 278 323 202T494 125Q610 125 665 201T720 407V821H892V383Q892 263 846 171T711 28T494 -24Q367 -24 279 27T144 171T97 383V821H268V407ZM704 1248Q659 1248 628 1280T597 1355Q597 1398 628 1430T704
1463Q747 1463 779 1431T811 1355Q811 1311 779 1280T704 1248ZM314 1248Q270 1248 239 1280T207 1355Q207 1398 238 1430T314 1463Q357 1463 389 1431T421 1355Q421 1311 389 1280T314 1248Z" />
<glyph unicode="&#xfd;" horiz-adv-x="924" d="M446 159L723 821H897L343 -416H167L353 0L15 821H192L446 159ZM577 1190L516 1273L819 1524L919 1400L577 1190Z" />
<glyph unicode="&#xfe;" horiz-adv-x="1048" d="M101 0H274V-416H101V0ZM101 0V1376H277V667Q283 698 324 740T434 813T593 845Q708 845 797 791T937 639T989 410Q989 279 938 182T797 30T593 -24Q508 -24 440 8T328 83T274 160V0H101ZM816 410Q816 499 780 564T685
665T554 701Q477 701 414 665T314 563T277 410Q277 323 314 258T414 156T554 120Q625 120 684 155T780 256T816 410Z" />
<glyph unicode="&#xff;" horiz-adv-x="924" d="M446 159L723 821H897L343 -416H167L353 0L15 821H192L446 159ZM911 1248Q866 1248 835 1280T804 1355Q804 1398 835 1430T911 1463Q954 1463 986 1431T1018 1355Q1018 1311 986 1280T911 1248ZM521 1248Q477 1248
446 1280T414 1355Q414 1398 445 1430T521 1463Q564 1463 596 1431T628 1355Q628 1311 596 1280T521 1248Z" />
<glyph unicode="&#x2013;" horiz-adv-x="872" d="M14 380V531H824V380H14Z" />
<glyph unicode="&#x2014;" horiz-adv-x="1640" d="M15 380V531H1590V380H15Z" />
<glyph unicode="&#x2018;" horiz-adv-x="451" d="M231 850Q165 850 122 895T78 1026Q78 1104 108 1164T183 1266T274 1331L327 1271Q302 1261 271 1234T216 1171T190 1099Q199 1111 221 1119T267 1127Q312 1127 347 1095T383 1003Q383 933 340 892T231 850Z" />
<glyph unicode="&#x2019;" horiz-adv-x="451" d="M150 831L97 891Q122 901 153 928T208 991T233 1062Q225 1051 203 1043T156 1034Q111 1034 76 1067T40 1159Q40 1229 83 1270T193 1311Q258 1311 302 1266T346 1135Q346 1057 316 997T241 896T150 831Z" />
<glyph unicode="&#x201a;" horiz-adv-x="475" d="M243 251Q304 251 347 208T391 92Q391 18 361 -49T282 -168T176 -251L111 -184Q141 -170 176 -144T239 -85T277 -13Q255 -24 225 -24Q174 -24 137 15T100 109Q100 150 119 182T170 232T243 251Z" />
<glyph unicode="&#x201c;" horiz-adv-x="917" d="M677 850Q611 850 568 895T524 1026Q524 1104 554 1164T629 1266T720 1331L773 1271Q748 1261 717 1234T662 1171T636 1099Q645 1111 667 1119T713 1127Q758 1127 793 1095T829 1003Q829 933 786 892T677 850ZM279
850Q213 850 170 895T126 1026Q126 1104 156 1164T231 1266T322 1331L375 1271Q350 1261 319 1234T264 1171T238 1099Q247 1111 269 1119T315 1127Q360 1127 395 1095T431 1003Q431 933 388 892T279 850Z" />
<glyph unicode="&#x201d;" horiz-adv-x="917" d="M587 823L534 883Q559 894 590 921T645 984T670 1055Q662 1043 640 1035T593 1027Q548 1027 513 1060T477 1151Q477 1222 520 1263T630 1304Q695 1304 739 1259T783 1128Q783 1050 753 990T678 888T587 823ZM189
823L136 883Q161 894 192 921T247 984T272 1055Q264 1043 242 1035T195 1027Q150 1027 115 1060T79 1151Q79 1222 122 1263T232 1304Q297 1304 341 1259T385 1128Q385 1050 355 990T280 888T189 823Z" />
<glyph unicode="&#x201e;" horiz-adv-x="856" d="M628 251Q689 251 732 208T776 92Q776 18 746 -49T667 -168T561 -251L496 -184Q526 -170 561 -144T624 -85T662 -13Q640 -24 610 -24Q559 -24 522 15T485 109Q485 150 504 182T555 232T628 251ZM243 251Q304 251
347 208T391 92Q391 18 361 -49T282 -168T176 -251L111 -184Q141 -170 176 -144T239 -85T277 -13Q255 -24 225 -24Q174 -24 137 15T100 109Q100 150 119 182T170 232T243 251Z" />
<glyph unicode="&#x2022;" horiz-adv-x="1028" d="M495 793Q558 793 608 764T688 684T718 570Q718 509 688 459T608 380T495 350Q434 350 384 379T305 459T275 570Q275 632 304 682T384 763T495 793Z" />
<glyph unicode="&#x2039;" horiz-adv-x="585" d="M449 141L361 70L67 445L361 819L449 750L208 445L449 141Z" />
<glyph unicode="&#x203a;" horiz-adv-x="583" d="M171 70L83 141L324 445L83 750L171 819L465 445L171 70Z" />
</font>
</defs>
</svg>
