<?xml version="1.0" standalone="no"?>
<!DOCTYPE svg PUBLIC "-//W3C//DTD SVG 1.1//EN" "http://www.w3.org/Graphics/SVG/1.1/DTD/svg11.dtd">
<svg xmlns="http://www.w3.org/2000/svg">
<defs >
<font id="PathwayExtreme" horiz-adv-x="525" ><font-face
    font-family="Pathway Extreme 8pt Thin 12pt"
    units-per-em="1000"
    panose-1="0 0 0 0 0 0 0 0 0 0"
    ascent="1070"
    descent="-286"
    alphabetic="0" />
<glyph unicode=" " horiz-adv-x="254" />
<glyph unicode="!" horiz-adv-x="268" d="M184 700L172 203H96L85 700H184ZM172 125V0H96V125H172Z" />
<glyph unicode="&quot;" horiz-adv-x="348" d="M132 740L124 468H51L42 740H132ZM306 740L298 468H225L216 740H306Z" />
<glyph unicode="#" horiz-adv-x="747" d="M313 715L189 -15H110L234 715H313ZM645 715L521 -15H442L566 715H645ZM705 481L696 428H77L86 481H705ZM670 272L661 219H42L51 272H670Z" />
<glyph unicode="$" horiz-adv-x="611" d="M277 16H333V-125H277V16ZM277 825H333V683H277V825ZM308 -7Q184 -7 120 45T46 206L136 210Q144 135 187 98T310 61Q385 61 428 93T471 181Q471 224 449 249T390 288T310 312T224 334T143 369T84 428T62 525Q62 612 126
660T308 708Q429 708 494 660T566 517L475 510Q469 576 428 607T307 639Q235 639 195 610T154 526Q154 482 176 457T234 417T315 392T402 370T481 336T540 279T563 183Q563 95 495 44T308 -7Z" />
<glyph unicode="%" horiz-adv-x="800" d="M176 341Q107 341 69 375T30 473V569Q30 632 68 666T176 701Q244 701 281 667T319 569V473Q319 410 282 376T176 341ZM176 400Q242 400 242 473V569Q242 642 176 642Q141 642 124 625T107 569V473Q107 435 123 418T176
400ZM543 708H581L258 -8H220L543 708ZM626 -5Q557 -5 519 29T480 127V223Q480 286 518 320T626 355Q694 355 731 321T769 223V127Q769 64 732 30T626 -5ZM626 54Q692 54 692 127V223Q692 296 626 296Q591 296 574 279T557 223V127Q557 89 573 72T626 54Z" />
<glyph unicode="&amp;" horiz-adv-x="721" d="M340 -8Q209 -8 140 41T70 183V199Q70 266 112 312T234 377V358Q161 375 123 416T84 520V535Q84 616 152 662T340 708Q448 708 514 656T600 506L515 497Q502 566 457 602T339 639Q258 639 214 611T170 529V514Q170
454 214 425T348 396H713V334H348Q255 334 207 301T158 202V186Q158 123 202 92T339 61Q398 61 439 79T502 134T524 220H593Q593 150 563 99T476 20T340 -8ZM610 365V-110H524V365H610Z" />
<glyph unicode="&apos;" horiz-adv-x="174" d="M132 740L124 468H51L42 740H132Z" />
<glyph unicode="(" horiz-adv-x="344" d="M336 -105Q257 -105 203 -82T117 -7T70 133T56 350Q56 479 70 566T116 706T202 782T336 805V735Q280 735 243 716T184 654T153 537T144 350Q144 238 153 164T184 46T243 -16T336 -35V-105Z" />
<glyph unicode=")" horiz-adv-x="344" d="M8 805Q87 805 141 782T227 707T274 567T288 350Q288 221 275 134T229 -6T142 -82T8 -105V-35Q64 -35 101 -16T160 46T191 163T201 350Q201 462 192 536T161 654T102 716T8 735V805Z" />
<glyph unicode="*" horiz-adv-x="560" d="M268 584L434 715L475 651L292 546L126 415L85 479L268 584ZM268 546L85 651L126 716L292 584L475 479L434 414L268 546ZM257 565L241 776H319L303 565L319 354H241L257 565Z" />
<glyph unicode="+" horiz-adv-x="590" d="M75 382H515V318H75V382ZM263 570H327V130H263V570Z" />
<glyph unicode="," horiz-adv-x="165" d="M124 114V11L86 -114L45 -106L63 0H40V114H124Z" />
<glyph unicode="-" horiz-adv-x="354" d="M312 327V283H42V327H312Z" />
<glyph unicode="." horiz-adv-x="181" d="M132 114V0H48V114H132Z" />
<glyph unicode="/" horiz-adv-x="431" d="M346 752L152 -52H85L279 752H346Z" />
<glyph unicode="0" horiz-adv-x="712" d="M356 -8Q264 -8 200 24T103 120T70 273V427Q70 518 103 580T200 675T356 708Q449 708 512 676T609 581T642 427V273Q642 183 609 120T513 25T356 -8ZM356 62Q456 62 505 115T554 275V425Q554 533 505 585T356 638Q257
638 208 585T158 425V275Q158 168 207 115T356 62Z" />
<glyph unicode="1" horiz-adv-x="350" d="M249 0H161V664L194 623L25 599L18 662L205 703H249V0Z" />
<glyph unicode="2" horiz-adv-x="592" d="M38 52L328 316Q372 358 399 386T440 435T460 474T465 516V530Q465 582 422 610T299 639Q228 639 183 603T124 498L38 507Q57 604 124 656T297 708Q418 708 485 662T553 532V518Q553 477 541 444T498 375T410 285L120
17L95 70H554V0H38V52Z" />
<glyph unicode="3" horiz-adv-x="666" d="M329 -8Q213 -8 146 43T60 194L145 203Q160 131 204 96T329 61Q424 61 468 92T512 186V202Q512 267 464 300T322 334H211V396H322Q412 396 455 425T499 514V529Q499 582 456 610T331 639Q258 639 213 602T155 497L70 506Q89
603 155 655T330 708Q451 708 518 662T586 535V520Q586 457 548 416T436 358V377Q515 358 557 312T600 199V183Q600 90 531 41T329 -8Z" />
<glyph unicode="4" horiz-adv-x="619" d="M47 226L218 700H305L121 192L73 238H597V170H47V226ZM432 459L457 528H520V0H432V459Z" />
<glyph unicode="5" horiz-adv-x="638" d="M322 -8Q206 -8 139 42T52 193L138 202Q153 131 197 96T322 60Q386 60 426 74T485 116T505 186V211Q505 277 456 310T313 344H74L132 408H313Q369 408 414 399T493 373T548 332T581 278T592 211V186Q592 92 523 42T322
-8ZM99 700H561L552 630H142L181 683L158 372L74 344L99 700Z" />
<glyph unicode="6" horiz-adv-x="681" d="M70 453Q70 536 103 592T197 678T342 708Q454 708 519 658T603 507L517 498Q503 569 460 604T342 640Q254 640 206 595T158 456V227H70V453ZM344 -8Q259 -8 197 19T103 98T70 227L108 238Q108 330 173 379T352 429Q438
429 497 405T587 333T618 217V205Q618 136 587 89T494 17T344 -8ZM344 60Q441 60 485 96T530 206V218Q530 293 485 330T344 367Q253 367 206 335T158 236V223Q158 140 205 100T344 60Z" />
<glyph unicode="7" horiz-adv-x="510" d="M412 684L448 630H25V700H484V647L211 0H121L412 684Z" />
<glyph unicode="8" horiz-adv-x="694" d="M348 -8Q211 -8 139 41T66 183V199Q66 260 99 303T196 368T348 391Q436 391 498 369T594 303T628 199V183Q628 90 557 41T348 -8ZM348 62Q445 62 490 93T536 187V203Q536 267 490 301T348 336Q254 336 206 302T158 203V187Q158
124 205 93T348 62ZM348 344Q262 344 202 364T111 423T80 519V535Q80 616 151 662T348 708Q474 708 544 662T614 535V519Q614 463 584 424T494 364T348 344ZM348 397Q439 397 481 426T523 514V529Q523 581 479 609T348 638Q261 638 216 610T171 529V514Q171 456
213 427T348 397Z" />
<glyph unicode="9" horiz-adv-x="681" d="M611 247Q611 165 579 108T485 22T339 -8Q227 -8 163 42T79 193L164 202Q178 131 221 96T339 60Q427 60 475 105T524 244V473H611V247ZM337 708Q423 708 484 681T578 602T611 473L574 462Q574 370 509 321T329 271Q243
271 184 295T94 367T63 483V495Q63 564 94 611T187 683T337 708ZM337 640Q240 640 196 604T151 494V482Q151 407 196 370T337 333Q429 333 476 365T524 464V477Q524 560 477 600T337 640Z" />
<glyph unicode=":" horiz-adv-x="181" d="M132 114V0H48V114H132ZM132 500V386H48V500H132Z" />
<glyph unicode=";" horiz-adv-x="173" d="M124 114V11L86 -114L45 -106L63 0H40V114H124ZM132 500V386H48V500H132Z" />
<glyph unicode="&lt;" horiz-adv-x="590" d="M515 548V480L157 340V360L515 220V152L75 328V372L515 548Z" />
<glyph unicode="=" horiz-adv-x="590" d="M75 485H515V421H75V485ZM75 535H515V471H75V535Z" />
<glyph unicode="&gt;" horiz-adv-x="590" d="M75 152V220L433 360V340L75 480V548L515 372V328L75 152Z" />
<glyph unicode="?" horiz-adv-x="562" d="M527 473Q527 437 516 407T483 352T428 311T349 285T248 275L298 309V174H214V339H248Q342 339 390 373T439 472V514Q439 556 423 584T370 626T277 640Q198 640 153 605T93 498L7 507Q27 608 94 658T277 708Q399 708 463
659T527 515V473ZM298 106V0H214V106H298Z" />
<glyph unicode="@" horiz-adv-x="924" d="M423 -60Q322 -60 256 -35T153 35T100 140T85 272V398Q85 469 101 529T157 635T266 705T444 730Q546 730 615 712T729 662T797 588T830 498T839 398V130H676V184H765V398Q765 456 751 505T702 590T604 647T444 667Q363
667 308 649T220 596T172 512T157 398V272Q157 210 170 161T213 76T295 22T423 3Q491 3 549 16T659 52L676 -5Q625 -30 561 -45T423 -60ZM441 119Q344 119 295 165T246 304V367Q246 461 293 508T441 555Q534 555 589 503T644 361V314Q644 225 589 172T441 119ZM454
178Q523 178 563 216T604 321V353Q604 418 564 457T454 496Q390 496 359 464T327 365V308Q327 244 359 211T454 178ZM604 288V385L622 540H676V130H623L604 288Z" />
<glyph unicode="A" horiz-adv-x="639" d="M253 700H386L631 0H541L322 636H318L98 0H8L253 700ZM143 250H495V183H143V250Z" />
<glyph unicode="B" horiz-adv-x="614" d="M85 700H339Q409 700 456 681T527 625T551 530V522Q551 450 507 406T388 356L387 364Q478 361 521 320T566 197V186Q566 90 516 45T358 0H85V700ZM337 66Q388 66 419 78T465 118T479 191V203Q479 265 447 296T351 327H172V66H337ZM345
389Q382 389 408 404T449 447T464 513V522Q464 580 430 607T320 634H172V389H345Z" />
<glyph unicode="C" horiz-adv-x="648" d="M333 -8Q248 -8 190 24T101 118T70 272V434Q70 522 101 583T190 676T334 708Q447 708 511 656T594 500L508 492Q495 566 453 602T336 638Q248 638 203 588T158 433V273Q158 165 201 114T336 62Q412 62 456 102T512 222L595
214Q580 106 515 49T333 -8Z" />
<glyph unicode="D" horiz-adv-x="671" d="M85 700H331Q471 700 536 643T601 459V240Q601 115 536 58T331 0H85V700ZM154 66H311Q421 66 467 106T514 240V460Q514 555 468 594T311 634H154L172 685V14L154 66Z" />
<glyph unicode="E" horiz-adv-x="554" d="M152 70H507V0H85V700H503V630H152L172 685V349L152 382H483V316H152L172 349V15L152 70Z" />
<glyph unicode="F" horiz-adv-x="480" d="M152 630L172 681V339L152 377H438V311H152L172 349V0H85V700H454V630H152Z" />
<glyph unicode="G" horiz-adv-x="654" d="M319 -8Q238 -8 183 20T99 104T70 243V462Q70 541 100 596T188 679T329 708Q400 708 451 687T533 625T573 523L490 514Q478 577 439 607T329 638Q242 638 200 594T158 461V243Q158 150 199 106T326 61Q409 61 452 105T495
233L551 212Q551 145 523 96T442 20T319 -8ZM495 186V344L523 301H329V364H582V0H537L495 186Z" />
<glyph unicode="H" horiz-adv-x="728" d="M85 700H172V345L152 382H574L556 345V700H643V0H556V355L574 316H152L172 355V0H85V700Z" />
<glyph unicode="I" horiz-adv-x="257" d="M172 700V0H85V700H172Z" />
<glyph unicode="J" horiz-adv-x="517" d="M218 -8Q152 -8 106 18T36 94T8 218L91 226Q93 143 124 103T218 62Q286 62 317 97T348 209V700H436V213Q436 141 411 92T338 17T218 -8Z" />
<glyph unicode="K" horiz-adv-x="603" d="M105 228L479 700H584L137 138L105 228ZM85 700H172V0H85V700ZM266 368L331 422L590 0H494L266 368Z" />
<glyph unicode="L" horiz-adv-x="467" d="M152 70H458V0H85V700H172V15L152 70Z" />
<glyph unicode="M" horiz-adv-x="837" d="M85 700H217L417 176H421L620 700H753V0H665V609H661L458 77H379L176 609H172V0H85V700Z" />
<glyph unicode="N" horiz-adv-x="715" d="M631 700V0H524L176 571H172V0H85V700H191L539 129H543V700H631Z" />
<glyph unicode="O" horiz-adv-x="715" d="M358 -8Q265 -8 201 24T104 120T70 273V427Q70 518 103 580T201 675T358 708Q451 708 515 676T612 581T645 427V273Q645 183 612 120T515 25T358 -8ZM358 62Q458 62 507 117T557 285V415Q557 527 507 582T358 638Q258
638 208 583T158 415V285Q158 173 208 118T358 62Z" />
<glyph unicode="P" horiz-adv-x="566" d="M85 700H318Q429 700 485 648T541 491V446Q541 347 484 295T318 243H167V310H296Q379 310 416 344T454 451V487Q454 564 417 598T296 633H152L172 656V0H85V700Z" />
<glyph unicode="Q" horiz-adv-x="714" d="M273 0L306 46L666 -4L659 -70L273 0ZM358 -8Q265 -8 201 24T104 120T70 273V427Q70 518 103 580T201 675T358 708Q451 708 515 676T612 581T645 427V273Q645 183 612 120T515 25T358 -8ZM358 62Q458 62 507 117T557 285V415Q557
527 507 582T358 638Q258 638 208 583T158 415V285Q158 173 208 118T358 62Z" />
<glyph unicode="R" horiz-adv-x="598" d="M85 700H334Q439 700 492 650T545 497V457Q545 359 492 309T334 259H167V326H306Q385 326 423 359T462 461V493Q462 567 424 600T306 633H152L172 660V0H85V700ZM345 280H433L556 0H466L345 280Z" />
<glyph unicode="S" horiz-adv-x="611" d="M308 -7Q184 -7 120 45T46 206L136 210Q144 135 187 98T310 61Q385 61 428 93T471 181Q471 224 449 249T390 288T310 312T224 334T143 369T84 428T62 525Q62 612 126 660T308 708Q429 708 494 660T566 517L475 510Q469
576 428 607T307 639Q235 639 195 610T154 526Q154 482 176 457T234 417T315 392T402 370T481 336T540 279T563 183Q563 95 495 44T308 -7Z" />
<glyph unicode="T" horiz-adv-x="492" d="M484 700V630H247L290 672V0H202V672L244 630H8V700H484Z" />
<glyph unicode="U" horiz-adv-x="674" d="M338 -8Q208 -8 145 51T81 236V700H168V235Q168 143 208 103T338 62Q506 62 506 235V700H593V236Q593 176 576 131T524 55T444 8T338 -8Z" />
<glyph unicode="V" horiz-adv-x="595" d="M8 700H98L296 63H300L498 700H587L366 -1H230L8 700Z" />
<glyph unicode="W" horiz-adv-x="866" d="M8 700H98L225 84H230L380 700H486L637 84H642L768 700H858L709 -1H578L434 584H432L289 -1H158L8 700Z" />
<glyph unicode="X" horiz-adv-x="577" d="M18 700H117L568 0H469L18 700ZM257 382L329 350L101 0H8L257 382ZM250 359L475 700H568L322 328L250 359Z" />
<glyph unicode="Y" horiz-adv-x="549" d="M8 700H103L273 306H276L446 700H540L317 221H232L8 700ZM231 267H318V0H231V267Z" />
<glyph unicode="Z" horiz-adv-x="530" d="M25 53L430 684L468 630H45V700H505V647L99 16L59 70H505V0H25V53Z" />
<glyph unicode="[" horiz-adv-x="361" d="M339 800V730H172V-30H339V-100H85V800H339Z" />
<glyph unicode="\" horiz-adv-x="319" d="M-28 752H40L234 -52H166L-28 752Z" />
<glyph unicode="]" horiz-adv-x="361" d="M22 -100V-30H188V730H22V800H276V-100H22Z" />
<glyph unicode="^" horiz-adv-x="590" d="M271 700H318L539 339H467L281 647H309L123 339H51L271 700Z" />
<glyph unicode="_" horiz-adv-x="453" d="M411 -25V-58H42V-25H411Z" />
<glyph unicode="`" horiz-adv-x="239" d="M239 623L210 585L0 725L52 793L239 623Z" />
<glyph unicode="a" horiz-adv-x="580" d="M416 179V356Q416 419 381 448T269 477Q221 477 174 464T84 425L71 492Q98 508 135 520T212 540T289 548Q397 548 451 500T505 356V0H444L416 179ZM242 -8Q155 -8 106 32T56 144V172Q56 245 106 285T247 325Q342 325 397
287T453 177V146Q453 74 397 33T242 -8ZM266 49Q334 49 374 78T415 156V170Q415 217 377 242T271 268Q208 268 174 245T140 166V153Q140 103 173 76T266 49Z" />
<glyph unicode="b" horiz-adv-x="668" d="M381 -8Q307 -8 251 23T163 112T131 246V298Q131 375 162 431T249 517T380 548Q487 548 545 488T603 318V222Q603 112 545 52T381 -8ZM85 740H172V169L138 0H85V740ZM368 58Q438 58 476 103T515 229V309Q515 391 477 435T368
480Q277 480 225 429T172 286V256Q172 164 224 111T368 58Z" />
<glyph unicode="c" horiz-adv-x="618" d="M315 -8Q238 -8 182 19T95 98T65 222V318Q65 389 95 440T182 520T315 548Q425 548 493 497T570 356L484 349Q472 413 431 446T318 479Q241 479 197 436T153 319V221Q153 146 196 104T318 61Q388 61 430 94T484 191L570
184Q561 96 493 44T315 -8Z" />
<glyph unicode="d" horiz-adv-x="668" d="M286 -8Q181 -8 123 52T65 222V318Q65 428 123 488T288 548Q363 548 419 518T506 431T537 298V246Q537 169 506 112T418 24T286 -8ZM300 58Q391 58 443 111T496 256V286Q496 377 444 428T300 480Q230 480 192 436T153
309V229Q153 149 192 104T300 58ZM496 169V740H583V0H530L496 169Z" />
<glyph unicode="e" horiz-adv-x="632" d="M310 -8Q232 -8 178 18T94 96T65 221V319Q65 390 95 441T182 520T318 548Q438 548 503 485T568 304V243H136V300H497L484 277V324Q484 397 440 437T319 478Q240 478 197 437T153 320V213Q153 138 195 99T314 59Q383 59
425 86T478 165L561 160Q543 79 478 36T310 -8Z" />
<glyph unicode="f" horiz-adv-x="326" d="M119 567Q119 660 163 708T292 756Q315 756 342 752T393 741L380 676Q362 681 346 684T312 687Q257 687 232 659T206 567V0H119V567ZM28 540H341V473H28V540Z" />
<glyph unicode="g" horiz-adv-x="567" d="M279 160Q174 160 115 206T56 336V372Q56 456 115 502T279 548Q385 548 443 502T502 372V336Q502 253 444 207T279 160ZM195 -186Q116 -186 75 -154T33 -60Q33 1 73 32T195 64H363Q442 64 484 33T526 -60Q526 -122 484
-154T363 -186H195ZM352 -128Q440 -128 440 -60Q440 6 352 6H208Q118 6 118 -60Q118 -129 208 -128H352ZM167 40Q125 40 102 59T78 112Q78 146 101 165T167 184H279V160H213Q185 160 170 148T155 112Q155 89 169 77T211 64H279V40H167ZM279 224Q345 224 380 254T416
339V369Q416 424 381 454T279 484Q215 484 179 454T142 369V339Q142 285 178 255T279 224ZM393 515L533 562H556V485L393 472V515Z" />
<glyph unicode="h" horiz-adv-x="648" d="M485 319Q485 402 452 440T346 479Q262 479 217 422T172 257L133 188L134 254Q134 396 197 472T378 548Q477 548 525 494T573 326V0H485V319ZM85 740H172V363V0H85V740Z" />
<glyph unicode="i" horiz-adv-x="257" d="M172 540V0H85V540H172ZM177 732V611H80V732H177Z" />
<glyph unicode="j" horiz-adv-x="257" d="M5 -187Q-17 -187 -43 -184T-93 -173L-84 -112Q-67 -116 -52 -118T-20 -121Q35 -121 60 -93T85 -2V540H172V-4Q172 -95 131 -141T5 -187ZM178 732V611H81V732H178Z" />
<glyph unicode="k" horiz-adv-x="517" d="M102 173L405 540H508L142 98L102 173ZM85 740H172V0H85V740ZM241 280L305 327L512 0H419L241 280Z" />
<glyph unicode="l" horiz-adv-x="257" d="M172 740V0H85V740H172Z" />
<glyph unicode="m" horiz-adv-x="1036" d="M873 321Q873 402 840 440T737 479Q654 479 611 422T567 257L527 188V254Q527 396 589 472T770 548Q867 548 914 494T961 327V0H873V321ZM85 540H145L172 354V0H85V540ZM479 321Q479 402 446 440T342 479Q260 479 216
422T172 257L134 188V254Q134 396 196 472T375 548Q473 548 520 494T567 327V0H479V321Z" />
<glyph unicode="n" horiz-adv-x="648" d="M485 319Q485 402 452 440T346 479Q262 479 217 422T172 257L134 188V254Q134 396 197 472T378 548Q477 548 525 494T573 326V0H485V319ZM85 540H145L172 363V0H85V540Z" />
<glyph unicode="o" horiz-adv-x="649" d="M325 -8Q244 -8 186 19T96 98T65 222V318Q65 390 96 441T186 520T325 548Q406 548 464 521T553 442T585 318V222Q585 150 554 99T464 20T325 -8ZM325 64Q404 64 450 106T497 223V317Q497 391 451 433T325 476Q246 476
200 433T153 317V223Q153 150 199 107T325 64Z" />
<glyph unicode="p" horiz-adv-x="668" d="M380 -8Q306 -8 250 23T162 112T131 246V298Q131 375 162 431T250 517T381 548Q487 548 545 488T603 318V222Q603 112 545 52T380 -8ZM85 540H140L172 371V-180H85V540ZM368 58Q438 58 476 103T515 229V309Q515 391 477
435T368 480Q277 480 225 429T172 286V256Q172 164 224 111T368 58Z" />
<glyph unicode="q" horiz-adv-x="667" d="M286 -8Q181 -8 123 52T65 222V318Q65 428 123 488T288 548Q363 548 419 518T506 431T537 298V246Q537 169 506 112T418 24T286 -8ZM300 58Q391 58 443 111T496 256V286Q496 377 444 428T300 480Q230 480 192 436T153
309V229Q153 149 192 104T300 58ZM582 540V-180H496V371L527 540H582Z" />
<glyph unicode="r" horiz-adv-x="395" d="M85 540H145L172 341V0H85V540ZM145 297Q145 420 193 484T333 548Q349 548 366 546T399 540L394 463Q364 471 329 471Q252 471 212 421T172 271L145 297Z" />
<glyph unicode="s" horiz-adv-x="543" d="M276 -7Q168 -7 112 33T43 158L133 161Q139 108 174 83T275 57Q338 57 372 78T407 139Q407 171 388 189T338 216T268 231T193 247T124 272T73 318T54 397Q54 471 110 509T276 548Q342 548 389 531T463 479T497 393L407
389Q403 436 371 460T277 484Q214 484 180 462T146 399Q146 366 165 348T215 321T284 305T359 290T428 265T479 219T499 140Q499 68 442 31T276 -7Z" />
<glyph unicode="t" horiz-adv-x="375" d="M259 -8Q185 -8 151 29T116 144V534L142 670H204V153Q204 103 221 84T284 64Q299 64 314 66T345 73L358 9Q343 4 327 1T293 -5T259 -8ZM17 540H341V473H17V540Z" />
<glyph unicode="u" horiz-adv-x="649" d="M163 219Q163 138 195 100T295 62Q383 62 429 119T476 283L515 352V286Q515 145 455 69T280 -8Q175 -8 125 46T75 213V540H163V219ZM564 0H504L476 177V540H564V0Z" />
<glyph unicode="v" horiz-adv-x="529" d="M8 540H95L264 50H267L435 540H521L343 0H187L8 540Z" />
<glyph unicode="w" horiz-adv-x="848" d="M5 540H91L223 56H227L366 540H482L622 56H625L758 540H844L702 0H555L426 442H423L293 0H146L5 540Z" />
<glyph unicode="x" horiz-adv-x="544" d="M13 540H121L535 0H428L13 540ZM238 298L318 274L109 0H8L238 298ZM223 270L430 540H530L304 247L223 270Z" />
<glyph unicode="y" horiz-adv-x="529" d="M161 -175L237 21L229 -29L8 540H96L269 92H273L434 540H521L254 -191L161 -175Z" />
<glyph unicode="z" horiz-adv-x="519" d="M32 45L390 507L405 473H49V540H487V496L129 32L113 67H487V0H32V45Z" />
<glyph unicode="{" horiz-adv-x="379" d="M258 -104Q208 -104 174 -87T123 -35T105 50V198Q105 243 97 270T70 309T17 321V380Q50 380 69 392T97 431T105 504V651Q105 703 122 737T174 788T258 805Q289 805 320 800T375 785L360 722Q343 729 322 733T281 737Q234
737 214 713T193 643V497Q193 451 186 421T160 374T109 351Q140 345 158 328T185 281T193 204V59Q193 12 213 -12T281 -36Q301 -36 322 -32T360 -21L375 -84Q352 -93 320 -98T258 -104Z" />
<glyph unicode="|" horiz-adv-x="412" d="M243 752V-52H169V752H243Z" />
<glyph unicode="}" horiz-adv-x="379" d="M121 804Q171 804 205 787T256 736T274 650V502Q274 458 282 431T309 391T362 379V320Q329 320 310 308T282 269T274 196V49Q274 -2 257 -36T205 -88T121 -105Q91 -105 60 -100T5 -85L20 -22Q37 -29 58 -33T99 -37Q145
-37 165 -13T186 57V203Q186 249 194 279T220 326T270 349Q240 356 222 372T195 419T186 496V641Q186 688 166 712T99 736Q79 736 58 732T20 721L5 784Q28 794 59 799T121 804Z" />
<glyph unicode="~" horiz-adv-x="590" d="M172 301Q148 301 123 305T75 320V383Q98 373 123 369T172 365Q213 365 254 374T336 391T419 400Q441 400 467 396T515 383V320Q494 329 468 333T419 337Q378 337 337 329T255 311T172 301Z" />
<glyph unicode="&#xa0;" horiz-adv-x="254" />
<glyph unicode="&#xa1;" horiz-adv-x="268" d="M85 -160L96 337H172L184 -160H85ZM96 415V540H172V415H96Z" />
<glyph unicode="&#xa2;" horiz-adv-x="618" d="M345 790V637H289V790H345ZM345 103V-50H289V103H345ZM315 92Q238 92 182 120T95 199T65 322V418Q65 489 95 540T182 620T315 648Q425 648 493 597T570 456L484 449Q472 513 431 546T318 579Q241 579 197 536T153
419V321Q153 246 196 204T318 161Q388 161 430 194T484 291L570 284Q561 196 493 144T315 92Z" />
<glyph unicode="&#xa3;" horiz-adv-x="662" d="M106 434Q106 522 135 583T221 676T359 708Q465 708 525 657T604 503L520 494Q508 568 469 603T360 638Q277 638 236 588T194 436V0H106V434ZM56 43L109 57L155 67H620V0H56V43ZM42 362H456V305H42V362Z" />
<glyph unicode="&#xa5;" horiz-adv-x="549" d="M67 215H466V160H67V215ZM67 367H197V312H67V367ZM335 367H466V312H335V367ZM8 700H103L273 306H276L446 700H540L317 221H232L8 700ZM231 267H318V0H231V267Z" />
<glyph unicode="&#xa6;" horiz-adv-x="412" d="M243 752V448H169V752H243ZM243 252V-52H169V252H243Z" />
<glyph unicode="&#xa7;" horiz-adv-x="610" d="M308 -110Q184 -110 120 -58T46 104L136 108Q144 33 187 -4T310 -41Q385 -41 428 -9T471 80Q471 114 457 137T417 174T361 197T295 215L80 268L98 344L333 286Q374 276 415 264T489 230T543 173T563 81Q563 23 532
-20T444 -86T308 -110ZM287 417Q246 426 205 438T130 473T76 532T55 627Q55 713 119 761T301 810Q422 810 486 762T558 618L467 612Q461 678 421 709T300 741Q228 741 187 711T146 627Q146 591 161 568T201 530T258 506T326 488L515 442L496 370L287 417Z" />
<glyph unicode="&#xa8;" horiz-adv-x="222" d="M72 732V611H2V732H72ZM220 732V611H150V732H220Z" />
<glyph unicode="&#xa9;" horiz-adv-x="715" d="M358 315Q278 315 235 356T192 476V586Q192 663 236 704T359 745Q431 745 471 713T523 620L464 615Q457 655 432 675T361 695Q308 695 281 668T253 584V478Q253 425 277 395T360 365Q408 365 433 387T466 452L524
447Q515 383 474 349T358 315ZM357 232Q223 232 154 284T85 441V619Q85 725 154 776T357 828Q492 828 561 777T630 619V441Q630 337 561 285T357 232ZM357 272Q476 272 531 313T587 441V619Q587 706 533 747T357 788Q237 788 182 747T127 619V441Q127 355 183 314T357
272Z" />
<glyph unicode="&#xaa;" horiz-adv-x="425" d="M296 478V591Q296 626 276 646T197 667Q166 667 132 659T69 635L59 680Q78 691 105 699T161 711T216 716Q363 716 363 595V360H317L296 478ZM177 355Q118 355 84 381T49 453V472Q49 519 84 545T181 571Q247 571 285
546T323 474V454Q323 408 284 382T177 355ZM196 394Q242 394 269 412T296 460V470Q296 500 271 516T199 532Q152 532 132 516T111 468V459Q111 427 133 411T196 394Z" />
<glyph unicode="&#xab;" horiz-adv-x="433" d="M190 526L225 499L87 293V347L225 141L190 114L21 307V333L190 526ZM388 526L423 499L285 293V347L423 141L388 114L219 307V333L388 526Z" />
<glyph unicode="&#xac;" horiz-adv-x="590" d="M457 168V361H515V168H457ZM75 382H515V318H75V382Z" />
<glyph unicode="&#xae;" horiz-adv-x="715" d="M357 232Q223 232 154 284T85 441V619Q85 725 154 776T357 828Q492 828 561 777T630 619V441Q630 337 561 285T357 232ZM378 487H439L516 320H454L378 487ZM357 272Q476 272 531 313T587 441V619Q587 706 533 747T357
788Q237 788 182 747T127 619V441Q127 355 183 314T357 272ZM215 740H374Q441 740 475 710T509 619V592Q509 533 475 504T374 474H272V517H355Q400 517 425 534T450 595V616Q450 652 431 674T355 696H261L276 714V320H215V740Z" />
<glyph unicode="&#xaf;" horiz-adv-x="295" d="M295 705V635H0V705H295Z" />
<glyph unicode="&#xb0;" horiz-adv-x="472" d="M236 355Q151 355 103 394T55 504V567Q55 637 103 676T236 716Q321 716 369 677T418 567V504Q418 434 370 395T236 355ZM236 405Q290 405 321 432T352 504V567Q352 613 321 639T236 666Q183 666 152 639T120 567V504Q120
459 151 432T236 405Z" />
<glyph unicode="&#xb1;" horiz-adv-x="590" d="M75 382H515V318H75V382ZM263 570H327V130H263V570ZM75 53H515V-11H75V53Z" />
<glyph unicode="&#xb2;" horiz-adv-x="350" d="M36 471L177 584Q213 614 224 630T235 669V676Q235 700 220 713T176 726Q149 726 133 713T112 673L38 677Q46 730 81 757T175 785Q239 785 275 757T312 680V671Q312 651 305 632T282 594T246 558L104 442L107 488H311V430H38L36
471Z" />
<glyph unicode="&#xb3;" horiz-adv-x="350" d="M176 424Q104 424 68 451T31 532H108Q108 505 124 493T176 480Q242 480 242 530V535Q242 562 226 574T176 587H111V630H176Q203 630 218 642T233 677V687Q233 710 219 722T176 734Q147 734 132 722T116 687H41Q41
736 75 761T176 786Q240 786 274 761T309 690V680Q309 640 278 620T196 599V620Q253 620 286 598T319 532V527Q319 478 282 451T176 424Z" />
<glyph unicode="&#xb4;" horiz-adv-x="239" d="M239 725L28 585L0 623L187 793L239 725Z" />
<glyph unicode="&#xb5;" horiz-adv-x="648" d="M573 540V214Q573 102 525 47T378 -8Q260 -8 197 68T134 286L133 352L172 283Q172 175 217 118T346 61Q418 61 451 99T485 221V540H573ZM172 540V177V-180H85V540H172Z" />
<glyph unicode="&#xb6;" horiz-adv-x="464" d="M337 540V0H250V261H164Q96 261 61 292T25 385V413Q25 476 60 508T164 540H337Z" />
<glyph unicode="&#xb7;" horiz-adv-x="181" d="M132 407V293H48V407H132Z" />
<glyph unicode="&#xb8;" horiz-adv-x="187" d="M94 -195Q50 -195 26 -173T1 -107L50 -102Q50 -123 60 -134T90 -146Q109 -146 119 -135T130 -105Q130 -88 116 -75T73 -53L88 0H135L124 -36Q154 -49 170 -70T187 -115Q187 -151 162 -173T94 -195Z" />
<glyph unicode="&#xb9;" horiz-adv-x="350" d="M250 430H173V730L205 720L115 692L99 752L209 785H250V430Z" />
<glyph unicode="&#xba;" horiz-adv-x="472" d="M236 355Q151 355 103 394T55 504V567Q55 637 103 676T236 716Q321 716 369 677T418 567V504Q418 434 370 395T236 355ZM236 405Q290 405 321 432T352 504V567Q352 613 321 639T236 666Q183 666 152 639T120 567V504Q120
459 151 432T236 405Z" />
<glyph unicode="&#xbb;" horiz-adv-x="433" d="M243 114L209 141L347 347V293L209 499L243 526L412 333V307L243 114ZM45 114L11 141L149 347V293L11 499L45 526L214 333V307L45 114Z" />
<glyph unicode="&#xbc;" horiz-adv-x="800" d="M250 346H173V646L205 636L115 608L99 668L209 701H250V346ZM543 708H581L258 -8H220L543 708ZM480 127L567 350H642L544 96L511 136H769V78H480V127ZM660 203L685 267H737V0H660V203Z" />
<glyph unicode="&#xbd;" horiz-adv-x="800" d="M250 346H173V646L205 636L115 608L99 668L209 701H250V346ZM543 708H581L258 -8H220L543 708ZM486 41L627 154Q663 184 674 200T685 239V246Q685 270 670 283T626 296Q599 296 583 283T562 243L488 247Q496 300
531 327T625 355Q689 355 725 327T762 250V241Q762 221 755 202T732 164T696 128L554 12L557 58H761V0H488L486 41Z" />
<glyph unicode="&#xbe;" horiz-adv-x="800" d="M176 340Q104 340 68 367T31 448H108Q108 421 124 409T176 396Q242 396 242 446V451Q242 478 226 490T176 503H111V546H176Q203 546 218 558T233 593V603Q233 626 219 638T176 650Q147 650 132 638T116 603H41Q41
652 75 677T176 702Q240 702 274 677T309 606V596Q309 556 278 536T196 515V536Q253 536 286 514T319 448V443Q319 394 282 367T176 340ZM543 708H581L258 -8H220L543 708ZM480 127L567 350H642L544 96L511 136H769V78H480V127ZM660 203L685 267H737V0H660V203Z"
/>
<glyph unicode="&#xbf;" horiz-adv-x="562" d="M35 67Q35 103 46 133T79 188T134 229T213 255T315 265L264 231V366H348V201H315Q221 201 172 168T123 68V26Q123 -16 140 -44T193 -86T285 -100Q366 -100 410 -65T470 42L555 33Q535 -67 468 -117T285 -168Q163
-168 99 -119T35 25V67ZM264 434V540H348V434H264Z" />
<glyph unicode="&#xc0;" horiz-adv-x="639" d="M253 700H386L631 0H541L322 636H318L98 0H8L253 700ZM143 250H495V183H143V250ZM439 783L410 745L200 885L252 953L439 783Z" />
<glyph unicode="&#xc1;" horiz-adv-x="639" d="M253 700H386L631 0H541L322 636H318L98 0H8L253 700ZM143 250H495V183H143V250ZM439 883L228 743L200 781L387 951L439 883Z" />
<glyph unicode="&#xc2;" horiz-adv-x="639" d="M253 700H386L631 0H541L322 636H318L98 0H8L253 700ZM143 250H495V183H143V250ZM156 777L301 935H339L484 777L451 742L299 871H342L189 742L156 777Z" />
<glyph unicode="&#xc3;" horiz-adv-x="639" d="M253 700H386L631 0H541L322 636H318L98 0H8L253 700ZM143 250H495V183H143V250ZM173 822Q193 852 216 867T266 882Q288 882 306 875T342 859T378 850Q395 850 410 857T441 880L467 845Q447 815 424 800T374 785Q352
785 334 793T298 809T261 817Q245 817 230 810T199 787L173 822Z" />
<glyph unicode="&#xc4;" horiz-adv-x="639" d="M253 700H386L631 0H541L322 636H318L98 0H8L253 700ZM143 250H495V183H143V250ZM281 892V771H211V892H281ZM429 892V771H359V892H429Z" />
<glyph unicode="&#xc5;" horiz-adv-x="639" d="M253 700H386L631 0H541L322 636H318L98 0H8L253 700ZM143 250H495V183H143V250ZM320 748Q266 748 237 773T207 846V861Q207 908 236 933T320 959Q374 959 403 934T433 861V846Q433 799 404 774T320 748ZM320 795Q346
795 359 807T373 844V863Q373 887 360 899T320 912Q294 912 281 900T267 863V844Q267 820 280 808T320 795Z" />
<glyph unicode="&#xc6;" horiz-adv-x="918" d="M255 700H344L98 0H8L255 700ZM177 320L846 381V314L177 253V320ZM450 700H866V630H518L537 682V18L518 70H871V0H450V700ZM518 700V630H313L314 700H518Z" />
<glyph unicode="&#xc7;" horiz-adv-x="648" d="M333 -8Q248 -8 190 24T101 118T70 272V434Q70 522 101 583T190 676T334 708Q447 708 511 656T594 500L508 492Q495 566 453 602T336 638Q248 638 203 588T158 433V273Q158 165 201 114T336 62Q412 62 456 102T512
222L595 214Q580 106 515 49T333 -8ZM322 -196Q278 -196 254 -174T229 -108L278 -103Q278 -124 288 -135T318 -147Q337 -147 347 -136T358 -106Q358 -89 344 -76T301 -54L316 -1H363L352 -37Q382 -50 398 -71T415 -116Q415 -152 390 -174T322 -196Z" />
<glyph unicode="&#xc8;" horiz-adv-x="554" d="M152 70H507V0H85V700H503V630H152L172 685V349L152 382H483V316H152L172 349V15L152 70ZM420 783L391 745L181 885L233 953L420 783Z" />
<glyph unicode="&#xc9;" horiz-adv-x="554" d="M152 70H507V0H85V700H503V630H152L172 685V349L152 382H483V316H152L172 349V15L152 70ZM420 883L209 743L181 781L368 951L420 883Z" />
<glyph unicode="&#xca;" horiz-adv-x="554" d="M152 70H507V0H85V700H503V630H152L172 685V349L152 382H483V316H152L172 349V15L152 70ZM136 777L281 935H319L464 777L431 742L279 871H322L169 742L136 777Z" />
<glyph unicode="&#xcb;" horiz-adv-x="554" d="M152 70H507V0H85V700H503V630H152L172 685V349L152 382H483V316H152L172 349V15L152 70ZM261 892V771H191V892H261ZM409 892V771H339V892H409Z" />
<glyph unicode="&#xcc;" horiz-adv-x="257" d="M172 700V0H85V700H172ZM248 783L219 745L9 885L61 953L248 783Z" />
<glyph unicode="&#xcd;" horiz-adv-x="257" d="M172 700V0H85V700H172ZM248 883L37 743L9 781L196 951L248 883Z" />
<glyph unicode="&#xce;" horiz-adv-x="257" d="M172 700V0H85V700H172ZM-35 777L110 935H148L293 777L260 742L108 871H151L-2 742L-35 777Z" />
<glyph unicode="&#xcf;" horiz-adv-x="257" d="M172 700V0H85V700H172ZM90 892V771H20V892H90ZM238 892V771H168V892H238Z" />
<glyph unicode="&#xd0;" horiz-adv-x="646" d="M85 700H331Q471 700 536 643T601 459V240Q601 115 536 58T331 0H85V700ZM154 66H311Q421 66 467 106T514 240V460Q514 555 468 594T311 634H154L172 685V14L154 66ZM535 375V325H237V375H535Z" />
<glyph unicode="&#xd1;" horiz-adv-x="715" d="M631 700V0H524L176 571H172V0H85V700H191L539 129H543V700H631ZM211 822Q231 852 254 867T304 882Q326 882 344 875T380 859T416 850Q433 850 448 857T479 880L505 845Q485 815 462 800T412 785Q390 785 372 793T336
809T299 817Q283 817 268 810T237 787L211 822Z" />
<glyph unicode="&#xd2;" horiz-adv-x="715" d="M358 -8Q265 -8 201 24T104 120T70 273V427Q70 518 103 580T201 675T358 708Q451 708 515 676T612 581T645 427V273Q645 183 612 120T515 25T358 -8ZM358 62Q458 62 507 117T557 285V415Q557 527 507 582T358 638Q258
638 208 583T158 415V285Q158 173 208 118T358 62ZM477 783L448 745L238 885L290 953L477 783Z" />
<glyph unicode="&#xd3;" horiz-adv-x="715" d="M358 -8Q265 -8 201 24T104 120T70 273V427Q70 518 103 580T201 675T358 708Q451 708 515 676T612 581T645 427V273Q645 183 612 120T515 25T358 -8ZM358 62Q458 62 507 117T557 285V415Q557 527 507 582T358 638Q258
638 208 583T158 415V285Q158 173 208 118T358 62ZM477 883L266 743L238 781L425 951L477 883Z" />
<glyph unicode="&#xd4;" horiz-adv-x="715" d="M358 -8Q265 -8 201 24T104 120T70 273V427Q70 518 103 580T201 675T358 708Q451 708 515 676T612 581T645 427V273Q645 183 612 120T515 25T358 -8ZM358 62Q458 62 507 117T557 285V415Q557 527 507 582T358 638Q258
638 208 583T158 415V285Q158 173 208 118T358 62ZM194 777L339 935H377L522 777L489 742L337 871H380L227 742L194 777Z" />
<glyph unicode="&#xd5;" horiz-adv-x="715" d="M358 -8Q265 -8 201 24T104 120T70 273V427Q70 518 103 580T201 675T358 708Q451 708 515 676T612 581T645 427V273Q645 183 612 120T515 25T358 -8ZM358 62Q458 62 507 117T557 285V415Q557 527 507 582T358 638Q258
638 208 583T158 415V285Q158 173 208 118T358 62ZM211 822Q231 852 254 867T304 882Q326 882 344 875T380 859T416 850Q433 850 448 857T479 880L505 845Q485 815 462 800T412 785Q390 785 372 793T336 809T299 817Q283 817 268 810T237 787L211 822Z" />
<glyph unicode="&#xd6;" horiz-adv-x="715" d="M358 -8Q265 -8 201 24T104 120T70 273V427Q70 518 103 580T201 675T358 708Q451 708 515 676T612 581T645 427V273Q645 183 612 120T515 25T358 -8ZM358 62Q458 62 507 117T557 285V415Q557 527 507 582T358 638Q258
638 208 583T158 415V285Q158 173 208 118T358 62ZM319 892V771H249V892H319ZM467 892V771H397V892H467Z" />
<glyph unicode="&#xd7;" horiz-adv-x="590" d="M163 528L474 217L428 171L117 483L163 528ZM428 528L474 482L162 171L117 217L428 528Z" />
<glyph unicode="&#xd8;" horiz-adv-x="715" d="M358 -8Q265 -8 201 24T104 120T70 273V427Q70 518 103 580T201 675T358 708Q451 708 515 676T612 581T645 427V273Q645 183 612 120T515 25T358 -8ZM358 62Q458 62 507 117T557 285V415Q557 527 507 582T358 638Q258
638 208 583T158 415V285Q158 173 208 118T358 62ZM556 761L210 -61H158L504 761H556Z" />
<glyph unicode="&#xd9;" horiz-adv-x="674" d="M338 -8Q208 -8 145 51T81 236V700H168V235Q168 143 208 103T338 62Q506 62 506 235V700H593V236Q593 176 576 131T524 55T444 8T338 -8ZM458 783L429 745L219 885L271 953L458 783Z" />
<glyph unicode="&#xda;" horiz-adv-x="674" d="M338 -8Q208 -8 145 51T81 236V700H168V235Q168 143 208 103T338 62Q506 62 506 235V700H593V236Q593 176 576 131T524 55T444 8T338 -8ZM458 883L247 743L219 781L406 951L458 883Z" />
<glyph unicode="&#xdb;" horiz-adv-x="674" d="M338 -8Q208 -8 145 51T81 236V700H168V235Q168 143 208 103T338 62Q506 62 506 235V700H593V236Q593 176 576 131T524 55T444 8T338 -8ZM175 777L320 935H358L503 777L470 742L318 871H361L208 742L175 777Z" />
<glyph unicode="&#xdc;" horiz-adv-x="674" d="M338 -8Q208 -8 145 51T81 236V700H168V235Q168 143 208 103T338 62Q506 62 506 235V700H593V236Q593 176 576 131T524 55T444 8T338 -8ZM299 892V771H229V892H299ZM447 892V771H377V892H447Z" />
<glyph unicode="&#xdd;" horiz-adv-x="549" d="M8 700H103L273 306H276L446 700H540L317 221H232L8 700ZM231 267H318V0H231V267ZM394 883L183 743L155 781L342 951L394 883Z" />
<glyph unicode="&#xde;" horiz-adv-x="566" d="M85 700H172V578H318Q429 578 485 526T541 369V325Q541 225 484 174T318 122H167V189H296Q379 189 416 223T454 329V365Q454 443 417 477T296 512H152L172 535V0H85V700Z" />
<glyph unicode="&#xdf;" horiz-adv-x="680" d="M455 -6Q356 -6 305 35T243 162L325 165Q329 112 361 87T457 61Q514 61 547 81T581 143Q581 180 560 199T506 231T436 253T367 278T313 322T292 397Q292 432 306 455T340 495T382 527T417 561T431 608Q431 646 400
667T311 689Q256 689 226 673T184 625T172 541V0H85V536Q85 606 107 655T179 732T316 759Q367 759 413 746T490 702T520 617Q520 578 506 553T471 510T429 478T394 447T380 406Q380 375 400 358T453 330T521 309T590 280T643 230T664 143Q664 68 607 31T455 -6Z"
/>
<glyph unicode="&#xe0;" horiz-adv-x="580" d="M416 179V356Q416 419 381 448T269 477Q221 477 174 464T84 425L71 492Q98 508 135 520T212 540T289 548Q397 548 451 500T505 356V0H444L416 179ZM242 -8Q155 -8 106 32T56 144V172Q56 245 106 285T247 325Q342
325 397 287T453 177V146Q453 74 397 33T242 -8ZM266 49Q334 49 374 78T415 156V170Q415 217 377 242T271 268Q208 268 174 245T140 166V153Q140 103 173 76T266 49ZM407 623L378 585L168 725L220 793L407 623Z" />
<glyph unicode="&#xe1;" horiz-adv-x="580" d="M416 179V356Q416 419 381 448T269 477Q221 477 174 464T84 425L71 492Q98 508 135 520T212 540T289 548Q397 548 451 500T505 356V0H444L416 179ZM242 -8Q155 -8 106 32T56 144V172Q56 245 106 285T247 325Q342
325 397 287T453 177V146Q453 74 397 33T242 -8ZM266 49Q334 49 374 78T415 156V170Q415 217 377 242T271 268Q208 268 174 245T140 166V153Q140 103 173 76T266 49ZM407 723L196 583L168 621L355 791L407 723Z" />
<glyph unicode="&#xe2;" horiz-adv-x="580" d="M416 179V356Q416 419 381 448T269 477Q221 477 174 464T84 425L71 492Q98 508 135 520T212 540T289 548Q397 548 451 500T505 356V0H444L416 179ZM242 -8Q155 -8 106 32T56 144V172Q56 245 106 285T247 325Q342
325 397 287T453 177V146Q453 74 397 33T242 -8ZM266 49Q334 49 374 78T415 156V170Q415 217 377 242T271 268Q208 268 174 245T140 166V153Q140 103 173 76T266 49ZM124 617L269 775H307L452 617L419 582L267 711H310L157 582L124 617Z" />
<glyph unicode="&#xe3;" horiz-adv-x="580" d="M416 179V356Q416 419 381 448T269 477Q221 477 174 464T84 425L71 492Q98 508 135 520T212 540T289 548Q397 548 451 500T505 356V0H444L416 179ZM242 -8Q155 -8 106 32T56 144V172Q56 245 106 285T247 325Q342
325 397 287T453 177V146Q453 74 397 33T242 -8ZM266 49Q334 49 374 78T415 156V170Q415 217 377 242T271 268Q208 268 174 245T140 166V153Q140 103 173 76T266 49ZM141 662Q161 692 184 707T234 722Q256 722 274 715T310 699T346 690Q363 690 378 697T409 720L435
685Q415 655 392 640T342 625Q320 625 302 633T266 649T229 657Q213 657 198 650T167 627L141 662Z" />
<glyph unicode="&#xe4;" horiz-adv-x="580" d="M416 179V356Q416 419 381 448T269 477Q221 477 174 464T84 425L71 492Q98 508 135 520T212 540T289 548Q397 548 451 500T505 356V0H444L416 179ZM242 -8Q155 -8 106 32T56 144V172Q56 245 106 285T247 325Q342
325 397 287T453 177V146Q453 74 397 33T242 -8ZM266 49Q334 49 374 78T415 156V170Q415 217 377 242T271 268Q208 268 174 245T140 166V153Q140 103 173 76T266 49ZM249 732V611H179V732H249ZM397 732V611H327V732H397Z" />
<glyph unicode="&#xe5;" horiz-adv-x="580" d="M416 179V356Q416 419 381 448T269 477Q221 477 174 464T84 425L71 492Q98 508 135 520T212 540T289 548Q397 548 451 500T505 356V0H444L416 179ZM242 -8Q155 -8 106 32T56 144V172Q56 245 106 285T247 325Q342
325 397 287T453 177V146Q453 74 397 33T242 -8ZM266 49Q334 49 374 78T415 156V170Q415 217 377 242T271 268Q208 268 174 245T140 166V153Q140 103 173 76T266 49ZM288 588Q234 588 205 613T175 686V701Q175 748 204 773T288 799Q342 799 371 774T401 701V686Q401
639 372 614T288 588ZM288 635Q314 635 327 647T341 684V703Q341 727 328 739T288 752Q262 752 249 740T235 703V684Q235 660 248 648T288 635Z" />
<glyph unicode="&#xe6;" horiz-adv-x="984" d="M260 -8Q167 -8 112 33T56 143V172Q56 246 105 285T246 324Q303 324 346 310T415 267V358Q415 420 381 448T271 477Q222 477 174 465T84 427L71 492Q98 508 135 520T212 540T289 548Q359 548 406 526T477 462T501
356V219Q501 103 442 48T260 -8ZM266 54Q333 54 373 82T414 156V170Q414 217 377 242T270 268Q205 268 173 243T140 166V153Q140 105 172 80T266 54ZM662 -8Q584 -8 530 18T446 96T417 221V319Q417 390 447 441T534 520T670 548Q790 548 855 485T920 304V243H488V300H849L836
277V324Q836 397 792 437T671 478Q592 478 549 437T505 320V213Q505 138 547 99T666 59Q735 59 777 86T830 165L913 160Q895 79 830 36T662 -8Z" />
<glyph unicode="&#xe7;" horiz-adv-x="618" d="M315 -8Q238 -8 182 19T95 98T65 222V318Q65 389 95 440T182 520T315 548Q425 548 493 497T570 356L484 349Q472 413 431 446T318 479Q241 479 197 436T153 319V221Q153 146 196 104T318 61Q388 61 430 94T484 191L570
184Q561 96 493 44T315 -8ZM310 -195Q266 -195 242 -173T217 -107L266 -102Q266 -123 276 -134T306 -146Q325 -146 335 -135T346 -105Q346 -88 332 -75T289 -53L304 0H351L340 -36Q370 -49 386 -70T403 -115Q403 -151 378 -173T310 -195Z" />
<glyph unicode="&#xe8;" horiz-adv-x="632" d="M310 -8Q232 -8 178 18T94 96T65 221V319Q65 390 95 441T182 520T318 548Q438 548 503 485T568 304V243H136V300H497L484 277V324Q484 397 440 437T319 478Q240 478 197 437T153 320V213Q153 138 195 99T314 59Q383
59 425 86T478 165L561 160Q543 79 478 36T310 -8ZM434 623L405 585L195 725L247 793L434 623Z" />
<glyph unicode="&#xe9;" horiz-adv-x="632" d="M310 -8Q232 -8 178 18T94 96T65 221V319Q65 390 95 441T182 520T318 548Q438 548 503 485T568 304V243H136V300H497L484 277V324Q484 397 440 437T319 478Q240 478 197 437T153 320V213Q153 138 195 99T314 59Q383
59 425 86T478 165L561 160Q543 79 478 36T310 -8ZM434 723L223 583L195 621L382 791L434 723Z" />
<glyph unicode="&#xea;" horiz-adv-x="632" d="M310 -8Q232 -8 178 18T94 96T65 221V319Q65 390 95 441T182 520T318 548Q438 548 503 485T568 304V243H136V300H497L484 277V324Q484 397 440 437T319 478Q240 478 197 437T153 320V213Q153 138 195 99T314 59Q383
59 425 86T478 165L561 160Q543 79 478 36T310 -8ZM150 617L295 775H333L478 617L445 582L293 711H336L183 582L150 617Z" />
<glyph unicode="&#xeb;" horiz-adv-x="632" d="M310 -8Q232 -8 178 18T94 96T65 221V319Q65 390 95 441T182 520T318 548Q438 548 503 485T568 304V243H136V300H497L484 277V324Q484 397 440 437T319 478Q240 478 197 437T153 320V213Q153 138 195 99T314 59Q383
59 425 86T478 165L561 160Q543 79 478 36T310 -8ZM275 732V611H205V732H275ZM423 732V611H353V732H423Z" />
<glyph unicode="&#xec;" horiz-adv-x="257" d="M172 540V0H85V540H172ZM248 623L219 585L9 725L61 793L248 623Z" />
<glyph unicode="&#xed;" horiz-adv-x="257" d="M172 540V0H85V540H172ZM248 979L37 839L9 877L196 1047L248 979Z" />
<glyph unicode="&#xee;" horiz-adv-x="257" d="M172 540V0H85V540H172ZM221 617L366 775H404L549 617L516 582L364 711H407L254 582L221 617Z" />
<glyph unicode="&#xef;" horiz-adv-x="257" d="M172 540V0H85V540H172ZM90 732V611H20V732H90ZM238 732V611H168V732H238Z" />
<glyph unicode="&#xf0;" horiz-adv-x="650" d="M315 -8Q234 -8 176 19T87 99T56 222V276Q56 348 87 399T177 478T315 506Q366 506 406 493T475 456T519 399L482 407Q477 460 468 513T444 620T412 727L495 749Q522 671 539 592T566 434T575 276V222Q575 151 544
99T455 20T315 -8ZM315 64Q395 64 441 106T488 223V276Q488 349 442 391T315 434Q237 434 190 391T143 276V223Q143 150 190 107T315 64ZM317 610L641 715V660L317 555V610Z" />
<glyph unicode="&#xf1;" horiz-adv-x="648" d="M485 319Q485 402 452 440T346 479Q262 479 217 422T172 257L134 188V254Q134 396 197 472T378 548Q477 548 525 494T573 326V0H485V319ZM85 540H145L172 363V0H85V540ZM194 662Q214 692 237 707T287 722Q309 722
327 715T363 699T399 690Q416 690 431 697T462 720L488 685Q468 655 445 640T395 625Q373 625 355 633T319 649T282 657Q266 657 251 650T220 627L194 662Z" />
<glyph unicode="&#xf2;" horiz-adv-x="649" d="M325 -8Q244 -8 186 19T96 98T65 222V318Q65 390 96 441T186 520T325 548Q406 548 464 521T553 442T585 318V222Q585 150 554 99T464 20T325 -8ZM325 64Q404 64 450 106T497 223V317Q497 391 451 433T325 476Q246
476 200 433T153 317V223Q153 150 199 107T325 64ZM444 623L415 585L205 725L257 793L444 623Z" />
<glyph unicode="&#xf3;" horiz-adv-x="649" d="M325 -8Q244 -8 186 19T96 98T65 222V318Q65 390 96 441T186 520T325 548Q406 548 464 521T553 442T585 318V222Q585 150 554 99T464 20T325 -8ZM325 64Q404 64 450 106T497 223V317Q497 391 451 433T325 476Q246
476 200 433T153 317V223Q153 150 199 107T325 64ZM444 723L233 583L205 621L392 791L444 723Z" />
<glyph unicode="&#xf4;" horiz-adv-x="649" d="M325 -8Q244 -8 186 19T96 98T65 222V318Q65 390 96 441T186 520T325 548Q406 548 464 521T553 442T585 318V222Q585 150 554 99T464 20T325 -8ZM325 64Q404 64 450 106T497 223V317Q497 391 451 433T325 476Q246
476 200 433T153 317V223Q153 150 199 107T325 64ZM160 617L305 775H343L488 617L455 582L303 711H346L193 582L160 617Z" />
<glyph unicode="&#xf5;" horiz-adv-x="649" d="M325 -8Q244 -8 186 19T96 98T65 222V318Q65 390 96 441T186 520T325 548Q406 548 464 521T553 442T585 318V222Q585 150 554 99T464 20T325 -8ZM325 64Q404 64 450 106T497 223V317Q497 391 451 433T325 476Q246
476 200 433T153 317V223Q153 150 199 107T325 64ZM177 662Q197 692 220 707T270 722Q292 722 310 715T346 699T382 690Q399 690 414 697T445 720L471 685Q451 655 428 640T378 625Q356 625 338 633T302 649T265 657Q249 657 234 650T203 627L177 662Z" />
<glyph unicode="&#xf6;" horiz-adv-x="649" d="M325 -8Q244 -8 186 19T96 98T65 222V318Q65 390 96 441T186 520T325 548Q406 548 464 521T553 442T585 318V222Q585 150 554 99T464 20T325 -8ZM325 64Q404 64 450 106T497 223V317Q497 391 451 433T325 476Q246
476 200 433T153 317V223Q153 150 199 107T325 64ZM285 732V611H215V732H285ZM433 732V611H363V732H433Z" />
<glyph unicode="&#xf7;" horiz-adv-x="590" d="M331 209V112H260V209H331ZM331 583V486H260V583H331ZM75 382H515V318H75V382Z" />
<glyph unicode="&#xf8;" horiz-adv-x="649" d="M325 -8Q244 -8 186 19T96 98T65 222V318Q65 390 96 441T186 520T325 548Q406 548 464 521T553 442T585 318V222Q585 150 554 99T464 20T325 -8ZM325 64Q404 64 450 106T497 223V317Q497 391 451 433T325 476Q246
476 200 433T153 317V223Q153 150 199 107T325 64ZM493 620L199 -79H154L449 620H493Z" />
<glyph unicode="&#xf9;" horiz-adv-x="649" d="M163 219Q163 138 195 100T295 62Q383 62 429 119T476 283L515 352V286Q515 145 455 69T280 -8Q175 -8 125 46T75 213V540H163V219ZM564 0H504L476 177V540H564V0ZM443 623L414 585L204 725L256 793L443 623Z" />
<glyph unicode="&#xfa;" horiz-adv-x="649" d="M163 219Q163 138 195 100T295 62Q383 62 429 119T476 283L515 352V286Q515 145 455 69T280 -8Q175 -8 125 46T75 213V540H163V219ZM564 0H504L476 177V540H564V0ZM443 723L232 583L204 621L391 791L443 723Z" />
<glyph unicode="&#xfb;" horiz-adv-x="649" d="M163 219Q163 138 195 100T295 62Q383 62 429 119T476 283L515 352V286Q515 145 455 69T280 -8Q175 -8 125 46T75 213V540H163V219ZM564 0H504L476 177V540H564V0ZM159 617L304 775H342L487 617L454 582L302 711H345L192
582L159 617Z" />
<glyph unicode="&#xfc;" horiz-adv-x="649" d="M163 219Q163 138 195 100T295 62Q383 62 429 119T476 283L515 352V286Q515 145 455 69T280 -8Q175 -8 125 46T75 213V540H163V219ZM564 0H504L476 177V540H564V0ZM284 732V611H214V732H284ZM432 732V611H362V732H432Z" />
<glyph unicode="&#xfd;" horiz-adv-x="529" d="M161 -175L237 21L229 -29L8 540H96L269 92H273L434 540H521L254 -191L161 -175ZM384 723L173 583L145 621L332 791L384 723Z" />
<glyph unicode="&#xfe;" horiz-adv-x="668" d="M380 -8Q306 -8 250 23T162 112T131 246V298Q131 375 162 431T250 517T381 548Q487 548 545 488T603 318V222Q603 112 545 52T380 -8ZM85 740H172V371V-180H85V740ZM368 58Q438 58 476 103T515 229V309Q515 391 477
435T368 480Q277 480 225 429T172 286V256Q172 164 224 111T368 58Z" />
<glyph unicode="&#xff;" horiz-adv-x="529" d="M161 -175L237 21L229 -29L8 540H96L269 92H273L434 540H521L254 -191L161 -175ZM226 732V611H156V732H226ZM374 732V611H304V732H374Z" />
<glyph unicode="&#x2013;" horiz-adv-x="452" d="M410 327V283H42V327H410Z" />
<glyph unicode="&#x2014;" horiz-adv-x="659" d="M617 327V283H42V327H617Z" />
<glyph unicode="&#x2018;" horiz-adv-x="165" d="M40 525V627L79 752L119 745L101 639H124V525H40Z" />
<glyph unicode="&#x2019;" horiz-adv-x="165" d="M124 752V650L86 525L45 533L63 639H40V752H124Z" />
<glyph unicode="&#x201a;" horiz-adv-x="165" d="M124 114V11L86 -114L45 -106L63 0H40V114H124Z" />
<glyph unicode="&#x201c;" horiz-adv-x="329" d="M40 525V627L79 752L119 745L101 639H124V525H40ZM205 525V627L244 752L284 745L266 639H289V525H205Z" />
<glyph unicode="&#x201d;" horiz-adv-x="329" d="M124 752V650L86 525L45 533L63 639H40V752H124ZM289 752V650L251 525L210 533L228 639H205V752H289Z" />
<glyph unicode="&#x201e;" horiz-adv-x="329" d="M124 114V11L86 -114L45 -106L63 0H40V114H124ZM289 114V11L251 -114L210 -106L228 0H205V114H289Z" />
<glyph unicode="&#x2022;" horiz-adv-x="273" d="M136 445L224 350L136 255L48 350L136 445Z" />
<glyph unicode="&#x2039;" horiz-adv-x="236" d="M190 526L225 499L87 293V347L225 141L190 114L21 307V333L190 526Z" />
<glyph unicode="&#x203a;" horiz-adv-x="236" d="M45 114L11 141L149 347V293L11 499L45 526L214 333V307L45 114Z" />
</font>
</defs>
</svg>
