<?xml version="1.0" standalone="no"?>
<!DOCTYPE svg PUBLIC "-//W3C//DTD SVG 1.1//EN" "http://www.w3.org/Graphics/SVG/1.1/DTD/svg11.dtd">
<svg xmlns="http://www.w3.org/2000/svg">
<defs >
<font id="Gulzar" horiz-adv-x="515" ><font-face
    font-family="Gulzar"
    units-per-em="1000"
    panose-1="0 0 0 0 0 0 0 0 0 0"
    ascent="1500"
    descent="-1200"
    alphabetic="0" />
<glyph unicode=" " horiz-adv-x="120" />
<glyph unicode="!" horiz-adv-x="328" d="M144 208L103 675Q114 679 133 682T171 685Q196 685 206 674T215 635L179 208H144ZM165 -5Q134 -5 117 13T100 59Q100 86 117 104T165 122Q194 122 211 104T228 59Q228 31 211 13T165 -5Z" />
<glyph unicode="&quot;" horiz-adv-x="372" d="M77 450L50 712Q63 716 81 718T115 720Q138 720 145 707T151 678L119 450H77ZM247 450L220 712Q233 716 251 718T285 720Q308 720 315 707T321 678L289 450H247Z" />
<glyph unicode="#" horiz-adv-x="693" d="M50 207H170L226 438H116V485H237L279 655H341L299 485H473L515 655H577L535 485H643V438H524L468 207H577V160H456L417 0H355L394 160H220L181 0H119L158 160H50V207ZM232 207H406L462 438H288L232 207Z" />
<glyph unicode="$" horiz-adv-x="521" d="M212 -123L220 -15Q169 -13 127 -3T47 24L30 204H61Q92 129 127 88T223 37L241 292Q236 294 229 296Q171 316 131 338T69 394T48 479Q48 535 76 576T154 640T267 664L273 749H309L303 663Q347 661 386 652T458 627L466
470H437Q407 549 373 578T299 613L283 378Q289 376 295 374Q352 356 395 332T462 272T486 179Q486 123 456 81T373 14T256 -15L248 -123H212ZM133 515Q133 468 158 441T248 390L264 615H261Q199 615 166 586T133 515ZM395 150Q395 199 366 227T276 279L259 34H262Q323
34 359 64T395 150Z" />
<glyph unicode="%" horiz-adv-x="788" d="M190 341Q119 341 75 388T30 508Q30 582 74 628T190 675Q261 675 305 629T350 508Q350 435 306 388T190 341ZM612 675H670L181 -10H123L612 675ZM190 367Q224 367 240 403T256 508Q256 576 240 612T190 649Q156 649 140
613T124 508Q124 440 140 404T190 367ZM598 -10Q527 -10 483 37T438 157Q438 231 482 277T598 324Q669 324 713 278T758 157Q758 84 714 37T598 -10ZM598 16Q632 16 648 52T664 157Q664 225 648 261T598 298Q564 298 548 262T532 157Q532 89 548 53T598 16Z" />
<glyph unicode="&amp;" horiz-adv-x="835" d="M246 -10Q140 -10 85 43T30 180Q30 241 58 282T129 349T215 392V398Q177 439 156 473T135 550Q135 590 157 620T219 668T306 685Q380 685 425 650T470 557Q470 508 434 472T332 415V409Q378 357 424 308T512 213Q546
265 565 295T593 343T601 370Q601 384 588 393T528 408V440H785V408Q741 404 716 393T665 351L536 188Q555 168 572 150T605 115Q654 64 700 49T807 61L815 47Q788 21 752 6T673 -10Q616 -10 585 8T528 55Q517 67 503 82T473 115Q431 61 379 26T246 -10ZM222 572Q222
530 249 498T308 434Q344 459 362 487T380 554Q380 592 360 618T299 644Q264 644 243 626T222 572ZM140 208Q140 154 161 122T216 75T287 60Q338 60 377 81T450 141Q408 188 359 243T262 348Q256 354 250 360T239 372Q194 342 167 302T140 208Z" />
<glyph unicode="&apos;" horiz-adv-x="202" d="M77 450L50 712Q63 716 81 718T115 720Q138 720 145 707T151 678L119 450H77Z" />
<glyph unicode="(" horiz-adv-x="329" d="M270 -176Q149 -54 100 56T50 273Q50 380 99 489T270 720L299 693Q248 635 218 576T174 461T156 357T152 272Q152 235 156 187T174 83T218 -32T299 -149L270 -176Z" />
<glyph unicode=")" horiz-adv-x="330" d="M59 720Q181 599 230 489T279 271Q279 165 230 56T59 -176L30 -149Q81 -91 111 -32T155 83T173 187T177 272Q177 309 173 357T155 461T111 576T30 693L59 720Z" />
<glyph unicode="*" horiz-adv-x="451" d="M58 479Q77 490 97 495T140 507T190 528Q163 543 140 549T97 560T58 575Q49 580 50 594T60 624Q68 639 79 646T100 648Q119 638 133 624T165 593T208 559Q207 590 201 613T189 656T183 697Q183 708 195 714T226 720Q243
720 255 714T267 697Q267 676 262 656T251 613T243 558Q270 575 286 592T317 623T351 649Q360 654 371 647T392 623Q401 608 401 595T393 576Q374 565 354 560T312 548T261 527Q289 513 311 507T354 496T393 480Q402 475 401 461T391 431Q383 416 372 409T351 407Q332
418 318 432T287 463T243 496Q245 465 251 442T262 400T268 358Q268 348 256 342T225 335Q208 335 196 341T184 358Q184 380 189 399T201 442T208 497Q182 480 165 464T134 432T100 406Q91 401 80 408T59 432Q50 447 50 460T58 479Z" />
<glyph unicode="+" horiz-adv-x="500" d="M228 248H80V292H228V440H272V292H420V248H272V100H228V248Z" />
<glyph unicode="," horiz-adv-x="256" d="M131 3Q116 -2 106 -2Q84 -2 71 14T58 58Q58 87 76 104T122 122Q157 122 174 98T192 39Q192 -16 163 -69T66 -158L50 -138Q100 -98 115 -63T131 3Z" />
<glyph unicode="-" horiz-adv-x="368" d="M50 295H318V225H50V295Z" />
<glyph unicode="." horiz-adv-x="228" d="M115 -5Q84 -5 67 13T50 59Q50 86 67 104T115 122Q144 122 161 104T178 59Q178 31 161 13T115 -5Z" />
<glyph unicode="/" horiz-adv-x="395" d="M5 -115L325 760H390L70 -115H5Z" />
<glyph unicode="0" horiz-adv-x="586" d="M294 -10Q221 -10 165 35T77 157T45 330Q45 437 81 512T174 626T294 665Q363 665 419 627T508 514T541 330Q541 255 521 193T465 86T386 15T294 -10ZM294 37Q341 37 370 73T412 176T426 330Q426 471 395 544T293 618Q223
618 192 546T160 330Q160 243 173 177T216 74T294 37Z" />
<glyph unicode="1" horiz-adv-x="371" d="M56 0V34L133 38Q160 39 160 74V534Q129 527 88 520T21 511L15 536Q60 551 100 572T174 616T229 655H260V42L351 39V0H56Z" />
<glyph unicode="2" horiz-adv-x="499" d="M220 241Q279 306 304 362T330 472Q330 526 300 556T215 586Q163 586 125 557T58 471L32 482Q62 576 120 620T257 665Q318 665 359 642T421 581T442 498Q442 422 400 361T283 229L134 87H314Q350 87 374 90T416 110T452
165H474L445 0H20V17L220 241Z" />
<glyph unicode="3" horiz-adv-x="497" d="M46 505Q70 576 132 620T276 665Q314 665 348 650T403 605T425 530Q425 491 407 462T362 414T309 385T264 371V365Q358 365 412 321T467 202Q467 142 429 94T327 18T188 -10Q134 -10 99 5T47 44T30 90Q30 110 49 127T104
145Q124 97 151 65T197 33Q250 33 284 53T335 107T352 180Q352 241 320 280T217 319Q200 319 182 316T143 308L135 336Q176 347 217 367T285 420T313 500Q313 543 288 564T228 586Q178 586 140 562T69 490L46 505Z" />
<glyph unicode="4" horiz-adv-x="542" d="M421 655V225H522V207L502 148H421V0H326V148H20V179L360 655H421ZM103 225H326V510L103 225Z" />
<glyph unicode="5" horiz-adv-x="478" d="M189 -10Q140 -10 104 5T49 42T30 86Q30 108 48 126T104 145Q126 94 154 64T204 33Q241 33 274 49T327 99T346 183Q344 261 270 302T61 347L110 654V655H380Q396 655 405 658T425 677H443L420 563H145L117 433Q269 426
354 369T440 212Q440 151 407 101T317 20T189 -10Z" />
<glyph unicode="6" horiz-adv-x="537" d="M263 -10Q231 -10 194 1T122 39T67 115T45 238Q45 301 63 355T110 454T172 531T236 584Q289 618 343 637T464 665L470 637Q340 600 264 521T164 329H173Q190 348 221 365T309 383Q338 383 369 373T426 342T470 287T487
204Q487 152 460 103T383 22T263 -10ZM155 232Q155 126 186 79T265 32Q312 32 344 73T377 181Q377 236 359 267T313 311T256 324Q224 324 201 315T158 291Q155 262 155 232Z" />
<glyph unicode="7" horiz-adv-x="496" d="M75 0V15Q105 56 138 110T206 225T273 343T333 449L398 563H124Q104 563 92 556T69 532L48 499H25L51 655H476V625L179 0H75Z" />
<glyph unicode="8" horiz-adv-x="530" d="M263 -10Q185 -10 136 13T63 73T40 154Q40 195 59 228T110 286T178 326V331Q116 367 88 406T60 497Q60 548 89 586T168 644T277 665Q370 665 422 621T475 509Q475 462 444 422T346 355V351Q409 319 449 278T490 172Q490
119 458 78T374 14T263 -10ZM306 370Q311 368 315 366Q354 395 370 428T386 502Q386 549 358 584T270 620Q219 620 185 596T150 520Q150 480 173 453T232 407T306 370ZM126 171Q126 125 145 95T196 50T263 35Q319 35 356 65T394 148Q394 188 369 215T308 263T235
301Q222 307 210 313Q169 284 148 250T126 171Z" />
<glyph unicode="9" horiz-adv-x="537" d="M269 665Q301 665 338 654T410 616T465 540T487 417Q487 354 469 300T422 201T360 124T296 71Q244 37 190 18T68 -10L62 18Q192 55 268 134T368 326H359Q342 307 311 290T223 272Q195 272 164 282T106 313T62 368T45 451Q45
504 72 553T149 633T269 665ZM377 423Q377 529 346 576T267 623Q220 623 188 583T155 474Q155 419 173 388T219 344T276 331Q308 331 331 340T374 364Q377 393 377 423Z" />
<glyph unicode=":" horiz-adv-x="228" d="M115 -5Q84 -5 67 13T50 59Q50 86 67 104T115 122Q144 122 161 104T178 59Q178 31 161 13T115 -5ZM115 285Q84 285 67 303T50 349Q50 376 67 394T115 412Q144 412 161 394T178 349Q178 321 161 303T115 285Z" />
<glyph unicode=";" horiz-adv-x="228" d="M115 285Q84 285 67 303T50 349Q50 376 67 394T115 412Q144 412 161 394T178 349Q178 321 161 303T115 285ZM131 3Q116 -2 106 -2Q84 -2 71 14T58 58Q58 87 76 104T122 122Q157 122 174 98T192 39Q192 -16 163 -69T66
-158L50 -138Q100 -98 115 -63T131 3Z" />
<glyph unicode="&lt;" horiz-adv-x="500" d="M93 263V285L406 425V378L173 274L406 170V123L93 263Z" />
<glyph unicode="=" horiz-adv-x="500" d="M80 362H420V318H80V362ZM80 212H420V168H80V212Z" />
<glyph unicode="&gt;" horiz-adv-x="500" d="M407 285V263L94 123V170L327 274L94 378V425L407 285Z" />
<glyph unicode="?" horiz-adv-x="465" d="M204 684Q267 684 319 656T403 578T435 468Q435 413 417 380T369 329T307 301T245 284T197 264T178 228V180H151Q137 213 131 237T125 278Q125 313 142 332T187 363T246 384Q294 399 316 421T338 489Q338 533 321 569T271
626T196 645Q176 632 158 606T119 529Q82 529 64 547T45 588Q45 610 64 632T119 669T204 684ZM184 -5Q153 -5 136 13T119 59Q119 86 136 104T184 122Q213 122 230 104T247 59Q247 31 230 13T184 -5Z" />
<glyph unicode="@" horiz-adv-x="991" d="M401 -10Q352 -10 324 30T295 143Q295 198 315 252T372 351T454 423T553 450Q588 450 611 443T649 425L694 446H701L657 161Q646 89 646 64T669 39Q697 39 730 57T794 111T843 203T862 336Q862 430 829 503T731 618T572
660Q474 660 393 628T254 535T163 392T131 208Q131 81 174 0T297 -121T484 -160Q547 -160 601 -150T699 -121L709 -147Q678 -169 612 -192T460 -215Q329 -215 235 -168T91 -35T40 170Q40 300 83 400T203 570T376 674T580 710Q694 710 777 666T905 547T951 377Q951
296 931 236T879 134T808 65T730 23T659 1T608 -5Q589 -5 575 8T560 55Q559 73 563 97T571 153L580 213Q570 182 554 144T515 70T464 13T401 -10ZM433 46Q456 46 487 85T550 191T601 345L602 352Q575 371 537 387T465 403Q442 388 426 352T401 269T392 178Q392
119 401 83T433 46Z" />
<glyph unicode="A" horiz-adv-x="690" d="M5 0V39L33 41Q52 43 59 46T72 65L284 612L257 662L261 673Q293 673 313 682T344 704H354L622 43L686 39V0H422V39L472 41Q486 42 495 47T497 70L435 228H196L134 43L214 39V0H5ZM211 275H417L306 558L211 275Z" />
<glyph unicode="B" horiz-adv-x="641" d="M25 0V39L82 43Q109 44 109 79V633L32 636V675H310Q383 675 439 656T529 601T562 511Q562 464 536 432T466 383T374 361V353Q435 353 489 336T577 281T611 185Q611 101 533 51T297 0H25ZM314 628Q283 628 261 627T214
622V374H297Q351 374 384 392T432 440T447 500Q447 547 428 575T379 615T314 628ZM282 327H214V136Q214 98 219 78T247 51T321 44Q418 44 456 82T495 181Q495 256 442 291T282 327Z" />
<glyph unicode="C" horiz-adv-x="664" d="M368 -15Q281 -15 218 12T115 88T55 197T35 327Q35 401 62 466T140 580T259 657T411 685Q484 685 534 672T609 645L621 458H591Q567 509 542 548T482 609T393 632Q318 632 264 596T181 493T152 334Q152 243 185 183T273
93T396 63Q474 63 524 92T621 177L639 165Q602 73 528 29T368 -15Z" />
<glyph unicode="D" horiz-adv-x="740" d="M25 0V39L82 43Q109 44 109 79V633L32 636V675H321Q399 675 468 653T591 588T675 484T705 342Q705 239 657 162T520 43T311 0H25ZM324 628Q292 628 267 626T214 621V136Q214 98 219 78T247 51T321 44Q393 44 453 74T551
170T588 338Q588 435 552 499T456 596T324 628Z" />
<glyph unicode="E" horiz-adv-x="628" d="M25 0V39L82 43Q109 44 109 79V633L32 636V675H543L556 477H524L448 628H214V366H359L401 459H436V226H401L359 319H214V47H478L556 216H588L569 0H25Z" />
<glyph unicode="F" horiz-adv-x="568" d="M25 0V39L82 43Q109 44 109 79V633L32 636V675H540L553 473H521L443 628H214V348H357L399 441H434V208H399L357 301H214V44L295 39V0H25Z" />
<glyph unicode="G" horiz-adv-x="710" d="M371 -15Q259 -15 184 31T72 155T35 329Q35 403 62 467T138 580T256 656T408 684Q478 684 531 672T611 645L623 458H593Q566 514 540 553T479 612T389 632Q273 632 213 552T152 334Q152 197 218 120T395 43Q436 43 468
48T527 64V268L417 272V315H695V276L649 273Q622 272 622 237V131L646 105V94Q621 70 582 45T491 3T371 -15Z" />
<glyph unicode="H" horiz-adv-x="772" d="M25 0V39L82 43Q109 44 109 79V631L28 636V675H298V636L241 632Q214 631 214 596V364H558V631L477 636V675H747V636L690 632Q663 631 663 596V44L744 39V0H474V39L531 43Q558 44 558 79V317H214V44L295 39V0H25Z" />
<glyph unicode="I" horiz-adv-x="342" d="M36 0V39L93 43Q120 44 120 79V631L39 636V675H309V636L252 632Q225 631 225 596V44L306 39V0H36Z" />
<glyph unicode="J" horiz-adv-x="345" d="M52 -118L40 -95Q96 -66 121 -15T146 113V631L65 636V675H335V636L278 632Q251 631 251 596V110Q251 67 229 19T162 -67T52 -118Z" />
<glyph unicode="K" horiz-adv-x="693" d="M25 0V39L82 43Q109 44 109 79V631L28 636V675H298V636L241 632Q214 631 214 596V352L265 362L503 625L411 638V674H677V638L590 627L332 381Q376 336 413 289T490 191T576 89Q602 61 625 52T688 39V0H512Q463 53 421
109T340 218T260 317H214V44L295 39V0H25Z" />
<glyph unicode="L" horiz-adv-x="564" d="M25 0V39L82 43Q109 44 109 79V631L28 636V675H298V636L241 632Q214 631 214 596V125Q214 73 231 60T289 47H367Q395 47 409 51T433 69T455 109L507 226H539L519 0H25Z" />
<glyph unicode="M" horiz-adv-x="885" d="M15 0V39L72 45Q87 47 92 55T99 81L134 621V630L60 633V675H224L447 158L663 675H832V638L775 634Q761 633 756 629T751 611L789 44L870 39V0H600V39L657 43Q687 44 684 79L654 521L422 0H407L174 516L159 44L240 39V0H15Z" />
<glyph unicode="N" horiz-adv-x="715" d="M18 0V39L75 43Q102 44 102 79L109 580Q87 606 70 620T20 645V675H170L564 191L554 630L473 633V675H702V638L645 634Q618 633 618 598L610 74V0H579L154 524L164 44L245 39V0H18Z" />
<glyph unicode="O" horiz-adv-x="766" d="M383 -14Q275 -14 197 31T77 155T35 329Q35 403 62 467T138 581T249 657T383 685Q485 685 563 641T686 518T731 338Q731 263 704 199T628 87T517 13T383 -14ZM383 38Q452 38 503 73T583 175T611 334Q611 425 583 492T504
596T381 633Q312 633 261 597T183 493T155 334Q155 197 216 118T383 38Z" />
<glyph unicode="P" horiz-adv-x="609" d="M25 0V39L82 43Q109 44 109 79V633L32 636V675H327Q400 675 456 653T546 587T579 474Q579 408 545 362T448 293T303 269Q279 269 258 270T214 274V44L295 39V0H25ZM315 628Q290 628 266 627T214 621V313Q232 311 250 310T292
309Q373 309 418 352T464 470Q464 532 441 566T384 614T315 628Z" />
<glyph unicode="Q" horiz-adv-x="766" d="M567 -168Q530 -152 503 -131T449 -87T387 -43T297 -5Q214 12 156 59T66 176T35 329Q35 403 62 467T138 581T249 657T383 685Q485 685 563 641T686 518T731 338Q731 251 694 179T594 58T452 -7V-13Q500 -25 529 -43T583
-81T642 -115Q662 -123 681 -126T731 -132V-168H567ZM383 38Q452 38 503 73T583 175T611 334Q611 425 583 492T504 596T381 633Q312 633 261 597T183 493T155 334Q155 197 216 118T383 38Z" />
<glyph unicode="R" horiz-adv-x="655" d="M25 0V39L82 43Q109 44 109 79V633L32 636V675H318Q449 675 512 626T576 497Q576 442 549 405T478 348T387 324V317Q416 305 434 291T466 254T499 195T546 101Q559 77 571 65T601 48T650 39V0H489Q467 31 445 75T401 166T356
249T308 300H214V44L295 39V0H25ZM322 628Q291 628 266 627T214 622V347H305Q359 347 393 367T444 419T461 486Q461 557 423 592T322 628Z" />
<glyph unicode="S" horiz-adv-x="540" d="M244 -15Q186 -15 137 -5T47 25L30 211H62Q87 152 113 113T177 56T269 37Q331 37 368 68T405 156Q405 196 387 221T332 264T235 303Q175 324 133 348T70 407T48 494Q48 554 78 597T162 662T283 685Q336 685 385 676T472
647L480 485H450Q425 552 397 583T337 624T268 633Q204 633 171 604T138 531Q138 494 153 470T204 428T303 390Q362 371 406 346T475 282T500 185Q500 124 466 79T374 10T244 -15Z" />
<glyph unicode="T" horiz-adv-x="648" d="M187 0V39L244 43Q271 44 271 79V628H119L48 468H15L29 675H618L631 468H598L528 628H376V44L457 39V0H187Z" />
<glyph unicode="U" horiz-adv-x="739" d="M369 -15Q289 -15 236 10T151 74T107 158T94 243V633L20 636V675H286V641L226 637Q199 636 199 601V258Q199 201 218 155T279 82T383 55Q490 55 534 108T579 252L574 633L494 636V675H719V641L673 637Q647 634 646 601L636
249Q634 174 605 114T518 20T369 -15Z" />
<glyph unicode="V" horiz-adv-x="704" d="M348 -15L79 632L15 636V675H287V636L231 634Q219 633 210 628T208 603L397 143L564 633L474 636V675H699V636L665 634Q646 633 639 630T626 610L396 31V31L378 -15H348Z" />
<glyph unicode="W" horiz-adv-x="1070" d="M318 -15L89 632L25 636V675H297V636L241 634Q229 633 221 628T218 603L366 156L537 675H584L788 154L915 633L825 636V675H1055V636L1021 634Q1002 633 995 630T982 610L774 -15H748L544 500L348 -15H318Z" />
<glyph unicode="X" horiz-adv-x="712" d="M5 0V39L34 42Q52 44 66 47T93 67L303 334L83 628L19 636V675H315V636L251 630Q240 629 234 622T235 602L368 411L518 630L438 636V675H676V636L632 633Q617 632 607 630T589 618L396 372L635 46L697 39V0H400V39L456
44Q472 46 481 55T477 85L331 297L159 45L232 39V0H5Z" />
<glyph unicode="Y" horiz-adv-x="655" d="M192 0V39L249 43Q276 44 276 79V271L69 632L5 636V675H283V636L227 634Q215 633 205 627T204 603L363 318L520 633L430 636V675H650V636L616 634Q597 633 592 629T577 610L381 274V44L462 39V0H192Z" />
<glyph unicode="Z" horiz-adv-x="625" d="M45 0V27L445 628H163L92 468H64V675H571V646L178 47H466L559 228H585L566 0H45Z" />
<glyph unicode="[" horiz-adv-x="327" d="M100 -162V715H297V686L188 678V-125L297 -133V-162H100Z" />
<glyph unicode="\" horiz-adv-x="395" d="M390 -115H325L5 760H70L390 -115Z" />
<glyph unicode="]" horiz-adv-x="327" d="M227 715V-162H30V-133L139 -125V678L30 686V715H227Z" />
<glyph unicode="^" horiz-adv-x="471" d="M80 420L227 685H244L391 420L350 401L235 614L120 401L80 420Z" />
<glyph unicode="_" horiz-adv-x="410" d="M-10 -75H420V-145H-10V-75Z" />
<glyph unicode="`" horiz-adv-x="313" d="M205 509L64 689Q73 697 96 708T136 720Q147 720 154 711T171 681L240 521L205 509Z" />
<glyph unicode="a" horiz-adv-x="463" d="M142 -9Q91 -9 63 18T34 91Q34 124 53 155T131 207Q160 217 205 227T285 243V299Q285 346 264 369T214 393Q193 393 177 390T137 379V283Q121 280 107 280Q77 280 64 292T50 321Q50 330 53 340T65 359Q82 378 112 399T175
435T237 450Q304 450 341 419T378 318V87Q378 65 385 54T412 43Q422 43 433 47T454 61L463 52Q450 18 422 5T367 -9Q339 -9 318 5T289 50H278Q249 25 218 8T142 -9ZM132 113Q132 88 146 68T193 48Q218 48 237 56T285 79V84V212Q269 210 245 204T193 186Q160 173
146 155T132 113Z" />
<glyph unicode="b" horiz-adv-x="527" d="M70 -5V625L17 670V684L155 720H163V374H172Q190 402 224 426T317 450Q365 450 405 426T468 357T492 247Q492 174 458 116T367 24T241 -10Q191 -10 161 1T113 24L80 -5H70ZM268 378Q241 378 216 371T163 340V87Q181 68
207 53T266 37Q327 37 361 81T395 212Q395 292 358 335T268 378Z" />
<glyph unicode="c" horiz-adv-x="430" d="M235 -10Q137 -10 86 49T35 203Q35 275 67 331T153 418T273 450Q328 450 364 425T400 368Q400 343 379 325T320 306L290 398Q276 405 246 405Q195 405 164 365T132 242Q132 151 171 107T275 62Q307 62 338 73T398 113L410
102Q402 80 381 54T324 9T235 -10Z" />
<glyph unicode="d" horiz-adv-x="542" d="M364 -5V66H355Q337 38 303 14T210 -10Q162 -10 123 14T59 83T35 193Q35 267 69 325T160 416T286 450Q310 450 329 447T364 440V625L311 670V684L449 720H457V42H524V9L374 -5H364ZM132 228Q132 148 169 105T259 62Q286
62 311 69T364 100V353Q346 372 320 387T261 403Q200 403 166 359T132 228Z" />
<glyph unicode="e" horiz-adv-x="459" d="M246 -10Q149 -10 92 48T35 209Q35 280 65 334T145 419T254 450Q329 450 376 404T424 273V237H130Q133 151 171 106T281 61Q311 61 343 70T408 113L420 102Q412 76 389 50T330 7T246 -10ZM235 406Q192 406 164 376T131
277H325Q325 330 304 368T235 406Z" />
<glyph unicode="f" horiz-adv-x="326" d="M30 0V32L67 36Q96 39 96 72V400H25V422L96 471V517Q96 542 115 576T166 643T239 698T323 720Q355 720 373 704T391 663Q391 638 370 622T310 600L284 669Q280 670 277 670T270 670Q228 670 209 627T189 519V440H315V400H189V36L274
32V0H30Z" />
<glyph unicode="g" horiz-adv-x="475" d="M220 150Q174 149 138 161H136Q127 150 124 141T121 120Q121 103 133 94T179 85H312Q348 85 378 78T427 49T445 -16Q445 -36 431 -69T386 -135T309 -192T197 -215Q120 -215 74 -184T27 -95Q27 -53 51 -32T106 3V9Q79 16
62 33T45 81Q45 106 61 124T113 166V171Q72 192 54 227T35 301Q35 341 59 374T124 429T220 450Q264 450 298 438T355 406Q381 430 414 440T471 450V380L462 373Q447 379 421 385T371 390Q402 352 402 301Q402 261 379 227T316 172T220 150ZM220 187Q258 187 281
216T304 302Q304 355 282 384T220 414Q180 414 158 385T135 302Q135 247 157 217T220 187ZM114 -64Q114 -108 149 -132T242 -156Q277 -156 306 -147T352 -117T370 -59Q370 -30 352 -15T294 0H184Q170 0 157 0T132 3Q124 -12 119 -27T114 -64Z" />
<glyph unicode="h" horiz-adv-x="559" d="M25 0V32L62 36Q89 39 89 72V625L36 670V684L174 720H182V371H190Q224 416 265 433T347 450Q406 450 441 419T477 318V36L542 32V0H320V32L357 36Q384 39 384 72V287Q384 334 362 357T301 380Q242 380 182 341V36L247 32V0H25Z" />
<glyph unicode="i" horiz-adv-x="274" d="M30 0V32L67 36Q94 39 94 72V355L41 400V414L179 450H187V36L252 32V0H30ZM141 586Q114 586 96 605T77 651Q77 678 95 696T141 715Q167 715 186 697T205 651Q205 624 186 605T141 586Z" />
<glyph unicode="j" horiz-adv-x="254" d="M5 -215L0 -200Q53 -171 71 -128T89 -16V355L36 400V414L174 450H182V-19Q182 -41 171 -72T137 -134T81 -187T5 -215ZM389 586Q362 586 344 605T325 651Q325 678 343 696T389 715Q415 715 434 697T453 651Q453 624 434
605T389 586Z" />
<glyph unicode="k" horiz-adv-x="534" d="M25 0V32L62 36Q91 39 91 72V625L38 670V684L176 720H184V267L244 280L338 384L352 400L292 408V440H488V408L431 401L425 396L291 278L478 36L524 32V0H312V32L344 34Q359 35 359 43Q359 46 357 49T352 56L217 240H184V36L239
32V0H25Z" />
<glyph unicode="l" horiz-adv-x="269" d="M25 0V32L62 36Q89 39 89 72V625L36 670V684L174 720H182V36L247 32V0H25Z" />
<glyph unicode="m" horiz-adv-x="819" d="M30 0V32L67 36Q94 39 94 72V355L41 400V414L179 450H187V371H195Q235 415 269 432T342 450Q383 450 413 431T455 371H463Q502 415 537 432T611 450Q664 450 700 419T737 318V36L802 32V0H580V32L617 36Q644 39 644 72V294Q644
341 622 360T565 380Q538 380 514 372T460 346Q462 333 462 318V36L527 32V0H305V32L342 36Q369 39 369 72V294Q369 341 347 360T295 380Q266 380 242 371T187 342V36L252 32V0H30Z" />
<glyph unicode="n" horiz-adv-x="564" d="M30 0V32L67 36Q94 39 94 72V355L41 400V414L179 450H187V371H195Q229 416 270 433T352 450Q411 450 446 419T482 318V36L547 32V0H325V32L362 36Q389 39 389 72V287Q389 334 367 357T306 380Q247 380 187 341V36L252 32V0H30Z" />
<glyph unicode="o" horiz-adv-x="526" d="M262 -10Q189 -10 139 20T62 103T35 221Q35 285 65 337T146 419T262 450Q332 450 383 421T462 340T490 221Q490 156 460 104T379 21T262 -10ZM262 32Q318 32 351 85T385 221Q385 303 352 355T262 408Q207 408 174 356T140
221Q140 139 172 86T262 32Z" />
<glyph unicode="p" horiz-adv-x="543" d="M22 -215V-183L59 -179Q86 -176 86 -143V355L33 400V414L171 450H179V374H188Q206 402 240 426T333 450Q381 450 421 426T484 357T508 247Q508 174 474 116T383 24T257 -10Q233 -10 214 -7T179 0V-179L244 -183V-215H22ZM284
378Q257 378 232 371T179 340V87Q197 68 223 53T282 37Q343 37 377 81T411 212Q411 292 374 335T284 378Z" />
<glyph unicode="q" horiz-adv-x="529" d="M300 -215V-183L337 -179Q364 -176 364 -143V66H355Q337 38 303 14T210 -10Q162 -10 123 14T59 83T35 193Q35 267 69 325T160 416T286 450Q319 450 343 445T386 432L450 446H457V-179L522 -183V-215H300ZM132 228Q132
148 169 105T259 62Q286 62 311 69T364 100V353Q346 372 320 387T261 403Q200 403 166 359T132 228Z" />
<glyph unicode="r" horiz-adv-x="373" d="M30 0V32L67 36Q94 39 94 72V355L41 400V414L179 450H187V371H194Q218 404 251 427T314 450Q338 450 353 436T368 395Q368 369 353 352T317 325L274 377Q257 377 232 366T187 342V36L252 32V0H30Z" />
<glyph unicode="s" horiz-adv-x="397" d="M185 -10Q148 -10 112 -3T50 18L45 148H72Q88 109 103 84T140 47T195 35Q231 35 252 53T272 101Q271 132 252 148T182 186Q146 201 117 217T72 258T55 320Q56 358 77 387T135 433T215 450Q248 450 282 444T340 425V311H315Q301
354 283 375T245 403T201 410Q173 410 153 395T133 352Q133 328 141 316T169 294T223 269Q278 246 315 215T352 127Q352 67 306 29T185 -10Z" />
<glyph unicode="t" horiz-adv-x="318" d="M182 -10Q133 -10 106 13T78 77V400H15V418L157 533H171V440H298V400H171V108Q171 85 184 69T225 52Q249 52 266 58T298 74L309 64Q298 40 267 15T182 -10Z" />
<glyph unicode="u" horiz-adv-x="555" d="M373 -5V69H367Q333 24 292 7T210 -10Q151 -10 116 21T80 122V355L27 400V414L165 450H173V153Q173 107 196 84T256 60Q313 60 373 98V355L320 400V414L458 450H466V42H533V9L383 -5H373Z" />
<glyph unicode="v" horiz-adv-x="498" d="M226 -10L51 403L5 408V440H237V408L202 405Q187 404 177 402T168 388L279 103L379 401L323 408V440H493V408L466 406Q452 405 446 403T436 393L279 27L264 -10H226Z" />
<glyph unicode="w" horiz-adv-x="725" d="M202 -9L51 403L5 408V440H231V408L200 405Q184 404 173 402T166 388L255 119L360 440H407L525 119L594 358V358L606 401L555 408V440H720V408L693 406Q676 405 673 402T664 387L657 368L523 0L521 -9H481L367 297L244
1V1L240 -9H202Z" />
<glyph unicode="x" horiz-adv-x="477" d="M5 0V32L24 34Q35 36 44 38T62 51L194 209L85 358V358L52 403L10 408V440H227V408L208 406Q192 405 183 402T173 391Q173 388 180 379L198 354V354L257 273L344 404L292 408V440H464V408L435 406Q425 405 419 404T407
396L280 243L397 82V82L430 37L472 32V0H251V32L274 34Q290 36 298 39T307 50Q307 56 301 65L294 74L216 180L122 36L170 32V0H5Z" />
<glyph unicode="y" horiz-adv-x="498" d="M133 -215Q104 -215 90 -200T74 -162T77 -119H172L229 -23L70 358V358L51 403L5 408V440H236V408L201 405Q185 404 174 401T169 382L180 354V354L278 103L375 401L319 408V440H493V408L466 406Q450 405 445 402T435 387L425
363L286 25L274 -5L273 -9V-9L221 -140Q211 -165 189 -190T133 -215Z" />
<glyph unicode="z" horiz-adv-x="470" d="M45 0V27L304 401H148L84 284H59V441H414V414L156 40H273Q309 40 324 55T358 108L391 175H420L403 0H45Z" />
<glyph unicode="{" horiz-adv-x="376" d="M223 720Q256 720 281 711T321 692V669Q311 674 297 677T262 681Q224 681 210 652T195 585Q195 544 206 506T227 432T238 364Q238 321 213 302T141 276Q188 271 213 252T238 189Q238 157 228 122T206 48T195 -32Q195 -69
209 -98T262 -128Q282 -128 296 -124T321 -116V-140Q306 -149 281 -158T223 -167Q172 -167 135 -134T97 -40Q97 2 106 35T127 96T149 149T158 203Q158 235 145 245T95 258L45 262V290L95 294Q132 297 145 308T158 350Q158 377 149 403T128 456T106 517T97 593Q97
655 134 687T223 720Z" />
<glyph unicode="|" horiz-adv-x="269" d="M110 720H159V-65H110V720Z" />
<glyph unicode="}" horiz-adv-x="376" d="M148 -167Q115 -167 90 -158T50 -139V-116Q61 -120 75 -124T109 -128Q147 -128 161 -99T176 -32Q176 9 166 47T144 121T133 189Q133 232 158 251T230 277Q183 282 158 301T133 364Q133 397 144 432T165 505T176 585Q176
622 162 651T109 681Q90 681 76 678T50 669V693Q65 702 90 711T148 720Q199 720 236 688T274 593Q274 551 265 518T244 457T222 404T213 350Q213 319 226 309T276 295L326 291V263L276 259Q239 256 226 246T213 203Q213 176 222 150T243 97T265 36T274 -40Q274
-101 237 -134T148 -167Z" />
<glyph unicode="~" horiz-adv-x="500" d="M80 228Q80 290 105 315T177 340Q213 340 243 327T300 300T352 286Q377 286 384 299T393 340H420Q420 287 396 258T322 228Q283 228 253 241T198 268T144 282Q123 282 115 268T105 228H80Z" />
<glyph unicode="&#xa0;" horiz-adv-x="120" />
<glyph unicode="&#xa1;" horiz-adv-x="328" d="M184 260L225 -207Q215 -211 196 -214T157 -217Q132 -217 122 -206T113 -167L149 260H184ZM163 473Q194 473 211 455T228 409Q228 382 211 364T163 346Q134 346 117 364T100 409Q100 437 117 455T163 473Z" />
<glyph unicode="&#xa2;" horiz-adv-x="430" d="M242 637H278L269 500H273Q328 500 364 475T400 418Q400 393 379 375T320 356L290 448Q282 452 266 454L243 115Q258 112 275 112Q307 112 338 123T398 163L410 152Q402 130 381 104T324 59T238 40L228 -103H192L202
42Q120 52 78 109T35 253Q35 317 61 369T132 454T233 497L242 637ZM132 292Q132 227 152 186T208 127L230 454Q185 448 159 408T132 292Z" />
<glyph unicode="&#xa3;" horiz-adv-x="561" d="M48 -10L32 19Q91 72 111 134T132 245Q132 261 130 276T125 307H20L31 354H114Q107 381 101 406T95 455Q95 516 126 566T212 647T338 677Q412 677 454 647T497 577Q497 546 474 528T413 510Q402 551 386 585T343
634Q282 634 240 597T198 484Q198 450 206 419T222 354H424L413 307H230Q232 291 232 276Q232 215 205 165T114 60L118 55Q137 69 172 87T250 106Q293 106 321 100T371 86T414 79Q446 79 466 96T492 162H521Q521 121 509 83T469 19T398 -6Q366 -6 334 1T269 14T204
21Q146 21 109 10T48 -10Z" />
<glyph unicode="&#xa4;" horiz-adv-x="485" d="M80 85L50 116L108 174Q73 220 73 280Q73 338 107 383L50 440L80 471L137 414Q158 431 185 440T243 450Q274 450 301 441T349 415L405 471L435 440L379 384Q414 339 414 280Q414 219 378 173L435 116L405 85L347
143Q326 127 300 118T243 109Q213 109 187 118T138 143L80 85ZM243 161Q295 161 324 195T353 279Q353 327 324 361T243 395Q193 395 165 361T136 279Q136 230 164 196T243 161Z" />
<glyph unicode="&#xa5;" horiz-adv-x="640" d="M188 0V38L243 42Q270 43 270 77V199H88L99 243H270V261L239 315H88L99 359H213L67 613L5 617V655H276V617L222 615Q210 615 200 609T199 585L352 311L505 614L417 617V655H635V617L602 615Q583 614 578 611T564
592L428 359H560L549 315H402L372 263V243H560L549 199H372V98V98V43L451 38V0H188Z" />
<glyph unicode="&#xa6;" horiz-adv-x="269" d="M110 720H159V420H110V720ZM110 235H159V-65H110V235Z" />
<glyph unicode="&#xa7;" horiz-adv-x="482" d="M415 50Q415 -18 361 -61T211 -105Q171 -105 128 -96T56 -72L50 73H74Q93 27 111 -2T155 -46T223 -60Q274 -60 302 -35T330 25Q330 65 302 87T209 131Q159 149 126 166T76 210T59 277Q59 330 98 364T197 407Q135
428 100 459T64 553Q64 620 120 659T267 699Q309 699 346 691T411 669V536H388Q372 587 350 612T302 645T251 654Q195 654 171 633T146 579Q146 544 160 525T202 493T272 466Q348 440 390 407T432 312Q432 262 401 229T318 180Q363 158 389 128T415 50ZM255 204Q260
202 264 201Q307 207 328 232T350 289Q350 319 333 341T273 382Q241 384 211 376T160 350T139 303Q139 277 149 261T184 232T255 204Z" />
<glyph unicode="&#xa8;" horiz-adv-x="422" d="M308 589Q283 589 267 606T250 647Q250 672 266 688T308 705Q332 705 349 689T366 647Q366 623 349 606T308 589ZM114 589Q89 589 73 606T56 647Q56 672 72 688T114 705Q138 705 155 689T172 647Q172 623 155 606T114 589Z" />
<glyph unicode="&#xa9;" horiz-adv-x="821" d="M411 -10Q331 -10 267 17T158 92T89 203T65 338Q65 410 89 472T158 583T267 658T411 685Q491 685 554 658T663 583T732 473T756 338Q756 266 732 203T663 92T555 17T411 -10ZM411 36Q483 36 538 61T629 128T684 225T703
337Q703 395 685 449T630 546T538 614T411 639Q339 639 284 614T193 546T137 449T118 337Q118 279 137 225T192 129T284 61T411 36ZM412 144Q354 144 314 169T253 236T232 332Q232 390 259 433T334 500T437 525Q470 525 496 519T537 506T552 499L558 384H537Q518
433 494 461T429 490Q379 490 350 454T320 350Q320 277 348 237T431 197Q478 197 506 214T557 259L570 251Q562 228 542 203T490 161T412 144Z" />
<glyph unicode="&#xaa;" horiz-adv-x="363" d="M108 363Q68 363 49 383T30 434Q30 461 48 485T115 522Q156 534 214 542V579Q214 645 166 645Q140 645 111 635V557Q104 556 98 556T85 555Q60 555 52 567T43 591Q43 601 47 607T58 621Q73 635 94 649T140 674T186
685Q241 685 267 664T294 592V434Q294 418 298 411T316 403Q322 403 329 405T346 415L353 406Q340 384 319 374T275 363Q228 363 217 401H213Q191 384 167 374T108 363ZM112 450Q112 431 122 418T156 405Q175 405 186 410T214 424V429V518Q203 517 190 514T158
502Q112 483 112 450Z" />
<glyph unicode="&#xab;" horiz-adv-x="554" d="M260 19Q199 87 150 131T50 209V230Q100 265 149 308T260 420L284 400Q265 363 241 329T195 266T156 219Q172 202 194 174T240 110T283 38L260 19ZM460 19Q399 87 350 131T250 209V230Q300 265 349 308T460 420L484
400Q465 363 441 329T395 266T356 219Q372 202 394 174T440 110T483 38L460 19Z" />
<glyph unicode="&#xac;" horiz-adv-x="500" d="M80 292H420V100H376V248H80V292Z" />
<glyph unicode="&#xad;" horiz-adv-x="368" d="M50 295H318V225H50V295Z" />
<glyph unicode="&#xae;" horiz-adv-x="604" d="M302 218Q222 218 166 253T80 346T50 469Q50 535 79 592T165 685T302 720Q382 720 438 685T524 593T554 469Q554 403 525 346T439 254T302 218ZM302 253Q371 253 417 282T487 360T511 469Q511 529 488 578T418 656T302
685Q233 685 187 656T117 578T93 469Q93 410 116 361T186 282T302 253ZM176 342V361L200 363Q212 364 212 378V590L179 591V610H304Q360 610 387 591T415 540Q415 506 390 490T334 471V467Q351 461 359 454T376 431T401 386Q409 371 417 367T446 361V342H368Q356
359 343 384T318 431T291 461H266V363L300 361V342H176ZM296 588Q285 588 279 588T266 586V486H288Q323 486 338 500T354 535Q354 563 338 575T296 588Z" />
<glyph unicode="&#xaf;" horiz-adv-x="476" d="M85 595V650H391V595H85Z" />
<glyph unicode="&#xb0;" horiz-adv-x="310" d="M155 435Q101 435 66 471T30 560Q30 613 65 649T155 685Q209 685 244 649T280 560Q280 508 245 472T155 435ZM156 481Q190 481 210 503T230 560Q230 594 210 616T156 638Q122 638 102 617T82 560Q82 526 102 504T156 481Z" />
<glyph unicode="&#xb1;" horiz-adv-x="500" d="M228 268H80V312H228V440H272V312H420V268H272V140H228V268ZM80 87H420V43H80V87Z" />
<glyph unicode="&#xb2;" horiz-adv-x="317" d="M130 452Q168 490 184 516T200 572Q200 603 182 620T134 637Q100 637 79 619T40 570L19 580Q60 686 164 686Q210 686 236 671T273 634T284 586Q284 544 256 513T179 442L95 373H195Q230 373 251 381T288 421H307L286
320H11L10 333L130 452Z" />
<glyph unicode="&#xb3;" horiz-adv-x="294" d="M15 597Q31 633 69 658T162 685Q207 685 232 666T257 611Q257 582 239 564T198 536T159 524L160 519Q219 519 251 495T284 430Q284 396 262 370T201 329T112 313Q63 313 37 333T10 375Q10 387 24 396T65 406Q73 382
86 361T111 339Q155 339 176 362T198 418Q198 452 179 472T125 492Q114 492 98 490T74 486L69 508Q110 517 141 533T173 586Q173 609 160 623T121 637Q90 637 72 624T35 584L15 597Z" />
<glyph unicode="&#xb4;" horiz-adv-x="313" d="M99 509L64 521L133 681Q142 702 149 711T168 720Q185 720 208 709T240 689L99 509Z" />
<glyph unicode="&#xb5;" horiz-adv-x="561" d="M80 -154V355L27 400V414L165 450H173V153Q173 107 196 84T256 60Q313 60 373 98V355L320 400V414L458 450H466V110Q466 75 476 57T520 39Q534 39 552 42L556 28Q556 28 545 19T512 0T456 -10Q422 -10 398 9T373
69H367Q335 24 303 7T230 -10Q150 -10 124 46V43Q124 -26 128 -65T139 -124T155 -154Q163 -162 180 -165T210 -168Q210 -205 195 -227T145 -250Q114 -250 97 -227T80 -154Z" />
<glyph unicode="&#xb6;" horiz-adv-x="602" d="M273 307Q261 306 249 305T226 304Q164 304 120 328T53 395T30 488Q30 540 54 582T122 649T226 675H552V636L496 632Q481 631 475 624T468 593V-110H413V634H328V-110H273V307Z" />
<glyph unicode="&#xb7;" horiz-adv-x="228" d="M115 180Q84 180 67 198T50 244Q50 271 67 289T115 307Q144 307 161 289T178 244Q178 216 161 198T115 180Z" />
<glyph unicode="&#xb8;" horiz-adv-x="322" d="M142 -215Q99 -215 78 -199T56 -166Q56 -154 68 -140T102 -124Q112 -148 126 -170T150 -193Q161 -193 176 -178T191 -141Q191 -116 169 -102T105 -75L128 -1H160L152 -37Q176 -42 199 -52T237 -79T253 -123Q253 -143
240 -164T201 -200T142 -215Z" />
<glyph unicode="&#xb9;" horiz-adv-x="292" d="M57 320V344L108 346Q126 347 126 366V599Q106 595 79 590T34 584L30 603Q74 615 112 640T171 680H202V348L262 346V320H57Z" />
<glyph unicode="&#xba;" horiz-adv-x="380" d="M190 363Q113 363 72 410T30 525Q30 570 51 606T108 663T190 685Q264 685 307 641T350 525Q350 480 329 443T272 385T190 363ZM190 395Q228 395 246 429T265 525Q265 584 247 619T190 654Q153 654 134 619T115 525Q115
465 133 430T190 395Z" />
<glyph unicode="&#xbb;" horiz-adv-x="554" d="M294 420Q356 352 405 309T504 230V209Q455 175 406 131T294 19L270 39Q289 76 313 110T359 173T398 220Q382 237 360 265T314 329T271 401L294 420ZM94 420Q156 352 205 309T304 230V209Q255 175 206 131T94 19L70
39Q89 76 113 110T159 173T198 220Q182 237 160 265T114 329T71 401L94 420Z" />
<glyph unicode="&#xbc;" horiz-adv-x="735" d="M57 320V344L108 346Q126 347 126 366V599Q106 595 79 590T34 584L30 603Q74 615 112 640T171 680H202V348L262 346V320H57ZM594 675H652L163 -10H105L594 675ZM638 360V124H705V114L691 72H638V0H571V72H389V95L594
360H638ZM444 124H571V271L444 124Z" />
<glyph unicode="&#xbd;" horiz-adv-x="757" d="M57 320V344L108 346Q126 347 126 366V599Q106 595 79 590T34 584L30 603Q74 615 112 640T171 680H202V348L262 346V320H57ZM580 675H638L149 -10H91L580 675ZM550 132Q588 170 604 196T620 252Q620 283 602 300T554
317Q520 317 499 299T460 250L439 260Q480 366 584 366Q630 366 656 351T693 314T704 266Q704 224 676 193T599 122L515 53H615Q650 53 671 61T708 101H727L706 0H431L430 13L550 132Z" />
<glyph unicode="&#xbe;" horiz-adv-x="755" d="M614 675H672L183 -10H125L614 675ZM658 360V124H725V114L711 72H658V0H591V72H409V95L614 360H658ZM464 124H591V271L464 124ZM35 597Q51 633 89 658T182 685Q227 685 252 666T277 611Q277 582 259 564T218 536T179
524L180 519Q239 519 271 495T304 430Q304 396 282 370T221 329T132 313Q83 313 57 333T30 375Q30 387 44 396T85 406Q93 382 106 361T131 339Q175 339 196 362T218 418Q218 452 199 472T145 492Q134 492 118 490T94 486L89 508Q130 517 161 533T193 586Q193 609
180 623T141 637Q110 637 92 624T55 584L35 597Z" />
<glyph unicode="&#xbf;" horiz-adv-x="465" d="M276 -215Q213 -215 161 -187T77 -109T45 1Q45 56 63 89T111 140T173 168T235 185T283 205T302 241V289H329Q343 256 349 232T355 191Q355 156 338 137T293 106T234 85Q186 70 164 49T142 -20Q142 -64 159 -100T209
-156T284 -176Q304 -163 322 -137T361 -60Q399 -60 417 -78T435 -119Q435 -140 416 -162T362 -200T276 -215ZM296 474Q327 474 344 456T361 410Q361 383 344 365T296 347Q267 347 250 365T233 410Q233 438 250 456T296 474Z" />
<glyph unicode="&#xc0;" horiz-adv-x="690" d="M5 0V39L33 41Q52 43 59 46T72 65L284 612L257 662L261 673Q293 673 313 682T344 704H354L622 43L686 39V0H422V39L472 41Q486 42 495 47T497 70L435 228H196L134 43L214 39V0H5ZM211 275H417L306 558L211 275ZM296
709L155 889Q164 897 187 908T227 920Q238 920 245 911T262 881L331 721L296 709Z" />
<glyph unicode="&#xc1;" horiz-adv-x="690" d="M5 0V39L33 41Q52 43 59 46T72 65L284 612L257 662L261 673Q293 673 313 682T344 704H354L622 43L686 39V0H422V39L472 41Q486 42 495 47T497 70L435 228H196L134 43L214 39V0H5ZM211 275H417L306 558L211 275ZM293
709L258 721L327 881Q336 902 343 911T362 920Q379 920 402 909T434 889L293 709Z" />
<glyph unicode="&#xc2;" horiz-adv-x="690" d="M5 0V39L33 41Q52 43 59 46T72 65L284 612L257 662L261 673Q293 673 313 682T344 704H354L622 43L686 39V0H422V39L472 41Q486 42 495 47T497 70L435 228H196L134 43L214 39V0H5ZM211 275H417L306 558L211 275ZM198
711L175 728L264 881Q278 904 288 909T312 915Q326 915 336 910T360 881L449 728L426 711L312 839L198 711Z" />
<glyph unicode="&#xc3;" horiz-adv-x="690" d="M5 0V39L33 41Q52 43 59 46T72 65L284 612L257 662L261 673Q293 673 313 682T344 704H354L622 43L686 39V0H422V39L472 41Q486 42 495 47T497 70L435 228H196L134 43L214 39V0H5ZM211 275H417L306 558L211 275ZM168
768Q168 831 191 856T253 882Q284 882 308 869T353 841T396 827Q418 827 424 840T432 882H456Q456 828 434 798T371 768Q337 768 314 782T270 809T225 823Q206 823 200 808T191 768H168Z" />
<glyph unicode="&#xc4;" horiz-adv-x="690" d="M5 0V39L33 41Q52 43 59 46T72 65L284 612L257 662L261 673Q293 673 313 682T344 704H354L622 43L686 39V0H422V39L472 41Q486 42 495 47T497 70L435 228H196L134 43L214 39V0H5ZM211 275H417L306 558L211 275ZM408
769Q383 769 367 786T350 827Q350 852 366 868T408 885Q432 885 449 869T466 827Q466 803 449 786T408 769ZM214 769Q189 769 173 786T156 827Q156 852 172 868T214 885Q238 885 255 869T272 827Q272 803 255 786T214 769Z" />
<glyph unicode="&#xc5;" horiz-adv-x="690" d="M5 0V39L33 41Q52 43 59 46T72 65L284 612L257 662L261 673Q293 673 313 682T344 704H354L622 43L686 39V0H422V39L472 41Q486 42 495 47T497 70L435 228H196L134 43L214 39V0H5ZM211 275H417L306 558L211 275ZM312
753Q276 753 254 776T231 834Q231 869 253 892T312 915Q348 915 370 892T393 834Q393 799 371 776T312 753ZM312 787Q331 787 343 800T355 833Q355 854 343 867T312 880Q293 880 281 867T268 833Q268 813 280 800T312 787Z" />
<glyph unicode="&#xc6;" horiz-adv-x="956" d="M5 0V39L33 41Q52 43 58 47T72 65L426 633L360 636V675H871L884 477H852L776 628H542V366H687L729 459H764V226H729L687 319H542V47H806L884 216H916L897 0H353V39L410 43Q437 44 437 79V228H238L131 42L201 39V0H5ZM265
275H437V575L265 275Z" />
<glyph unicode="&#xc7;" horiz-adv-x="664" d="M368 -15Q281 -15 218 12T115 88T55 197T35 327Q35 401 62 466T140 580T259 657T411 685Q484 685 534 672T609 645L621 458H591Q567 509 542 548T482 609T393 632Q318 632 264 596T181 493T152 334Q152 243 185 183T273
93T396 63Q474 63 524 92T621 177L639 165Q602 73 528 29T368 -15ZM355 -220Q312 -220 291 -204T269 -171Q269 -159 281 -145T315 -129Q325 -153 339 -175T363 -198Q374 -198 389 -183T404 -146Q404 -121 382 -107T318 -80L341 -6H373L365 -42Q389 -47 412 -57T450
-84T466 -128Q466 -148 453 -169T414 -205T355 -220Z" />
<glyph unicode="&#xc8;" horiz-adv-x="628" d="M25 0V39L82 43Q109 44 109 79V633L32 636V675H543L556 477H524L448 628H214V366H359L401 459H436V226H401L359 319H214V47H478L556 216H588L569 0H25ZM340 708L199 888Q208 896 231 907T271 919Q282 919 289 910T306
880L375 720L340 708Z" />
<glyph unicode="&#xc9;" horiz-adv-x="628" d="M25 0V39L82 43Q109 44 109 79V633L32 636V675H543L556 477H524L448 628H214V366H359L401 459H436V226H401L359 319H214V47H478L556 216H588L569 0H25ZM302 709L267 721L336 881Q345 902 352 911T371 920Q388 920
411 909T443 889L302 709Z" />
<glyph unicode="&#xca;" horiz-adv-x="628" d="M25 0V39L82 43Q109 44 109 79V633L32 636V675H543L556 477H524L448 628H214V366H359L401 459H436V226H401L359 319H214V47H478L556 216H588L569 0H25ZM207 711L184 728L273 881Q287 904 297 909T321 915Q335 915
345 910T369 881L458 728L435 711L321 839L207 711Z" />
<glyph unicode="&#xcb;" horiz-adv-x="628" d="M25 0V39L82 43Q109 44 109 79V633L32 636V675H543L556 477H524L448 628H214V366H359L401 459H436V226H401L359 319H214V47H478L556 216H588L569 0H25ZM417 769Q392 769 376 786T359 827Q359 852 375 868T417 885Q441
885 458 869T475 827Q475 803 458 786T417 769ZM223 769Q198 769 182 786T165 827Q165 852 181 868T223 885Q247 885 264 869T281 827Q281 803 264 786T223 769Z" />
<glyph unicode="&#xcc;" horiz-adv-x="342" d="M36 0V39L93 43Q120 44 120 79V631L39 636V675H309V636L252 632Q225 631 225 596V44L306 39V0H36ZM193 708L52 888Q61 896 84 907T124 919Q135 919 142 910T159 880L228 720L193 708Z" />
<glyph unicode="&#xcd;" horiz-adv-x="342" d="M36 0V39L93 43Q120 44 120 79V631L39 636V675H309V636L252 632Q225 631 225 596V44L306 39V0H36ZM155 709L120 721L189 881Q198 902 205 911T224 920Q241 920 264 909T296 889L155 709Z" />
<glyph unicode="&#xce;" horiz-adv-x="342" d="M36 0V39L93 43Q120 44 120 79V631L39 636V675H309V636L252 632Q225 631 225 596V44L306 39V0H36ZM60 711L37 728L126 881Q140 904 150 909T174 915Q188 915 198 910T222 881L311 728L288 711L174 839L60 711Z" />
<glyph unicode="&#xcf;" horiz-adv-x="342" d="M36 0V39L93 43Q120 44 120 79V631L39 636V675H309V636L252 632Q225 631 225 596V44L306 39V0H36ZM270 769Q245 769 229 786T212 827Q212 852 228 868T270 885Q294 885 311 869T328 827Q328 803 311 786T270 769ZM76
769Q51 769 35 786T18 827Q18 852 34 868T76 885Q100 885 117 869T134 827Q134 803 117 786T76 769Z" />
<glyph unicode="&#xd0;" horiz-adv-x="740" d="M25 0V39L82 43Q109 44 109 79V323H32L42 370H109V633L32 636V675H321Q399 675 468 653T591 588T675 484T705 342Q705 239 657 162T520 43T311 0H25ZM372 323H214V136Q214 98 219 78T247 51T321 44Q393 44 453 74T551
170T588 338Q588 435 552 499T456 596T324 628Q292 628 267 626T214 621V370H382L372 323Z" />
<glyph unicode="&#xd1;" horiz-adv-x="715" d="M18 0V39L75 43Q102 44 102 79L109 580Q87 606 70 620T20 645V675H170L564 191L554 630L473 633V675H702V638L645 634Q618 633 618 598L610 74V0H579L154 524L164 44L245 39V0H18ZM204 768Q204 831 227 856T289 882Q320
882 344 869T389 841T432 827Q454 827 460 840T468 882H492Q492 828 470 798T407 768Q373 768 350 782T306 809T261 823Q242 823 236 808T227 768H204Z" />
<glyph unicode="&#xd2;" horiz-adv-x="766" d="M383 -14Q275 -14 197 31T77 155T35 329Q35 403 62 467T138 581T249 657T383 685Q485 685 563 641T686 518T731 338Q731 263 704 199T628 87T517 13T383 -14ZM383 38Q452 38 503 73T583 175T611 334Q611 425 583
492T504 596T381 633Q312 633 261 597T183 493T155 334Q155 197 216 118T383 38ZM402 708L261 888Q270 896 293 907T333 919Q344 919 351 910T368 880L437 720L402 708Z" />
<glyph unicode="&#xd3;" horiz-adv-x="766" d="M383 -14Q275 -14 197 31T77 155T35 329Q35 403 62 467T138 581T249 657T383 685Q485 685 563 641T686 518T731 338Q731 263 704 199T628 87T517 13T383 -14ZM383 38Q452 38 503 73T583 175T611 334Q611 425 583
492T504 596T381 633Q312 633 261 597T183 493T155 334Q155 197 216 118T383 38ZM364 709L329 721L398 881Q407 902 414 911T433 920Q450 920 473 909T505 889L364 709Z" />
<glyph unicode="&#xd4;" horiz-adv-x="766" d="M383 -14Q275 -14 197 31T77 155T35 329Q35 403 62 467T138 581T249 657T383 685Q485 685 563 641T686 518T731 338Q731 263 704 199T628 87T517 13T383 -14ZM383 38Q452 38 503 73T583 175T611 334Q611 425 583
492T504 596T381 633Q312 633 261 597T183 493T155 334Q155 197 216 118T383 38ZM269 711L246 728L335 881Q349 904 359 909T383 915Q397 915 407 910T431 881L520 728L497 711L383 839L269 711Z" />
<glyph unicode="&#xd5;" horiz-adv-x="766" d="M383 -14Q275 -14 197 31T77 155T35 329Q35 403 62 467T138 581T249 657T383 685Q485 685 563 641T686 518T731 338Q731 263 704 199T628 87T517 13T383 -14ZM383 38Q452 38 503 73T583 175T611 334Q611 425 583
492T504 596T381 633Q312 633 261 597T183 493T155 334Q155 197 216 118T383 38ZM239 768Q239 831 262 856T324 882Q355 882 379 869T424 841T467 827Q489 827 495 840T503 882H527Q527 828 505 798T442 768Q408 768 385 782T341 809T296 823Q277 823 271 808T262
768H239Z" />
<glyph unicode="&#xd6;" horiz-adv-x="766" d="M383 -14Q275 -14 197 31T77 155T35 329Q35 403 62 467T138 581T249 657T383 685Q485 685 563 641T686 518T731 338Q731 263 704 199T628 87T517 13T383 -14ZM383 38Q452 38 503 73T583 175T611 334Q611 425 583
492T504 596T381 633Q312 633 261 597T183 493T155 334Q155 197 216 118T383 38ZM479 769Q454 769 438 786T421 827Q421 852 437 868T479 885Q503 885 520 869T537 827Q537 803 520 786T479 769ZM285 769Q260 769 244 786T227 827Q227 852 243 868T285 885Q309
885 326 869T343 827Q343 803 326 786T285 769Z" />
<glyph unicode="&#xd7;" horiz-adv-x="500" d="M114 165L219 270L114 375L145 406L250 301L355 406L386 375L281 270L386 165L355 134L250 239L145 134L114 165Z" />
<glyph unicode="&#xd8;" horiz-adv-x="766" d="M383 -14Q318 -14 264 3T166 52L100 -25L65 7L130 82Q35 178 35 329Q35 403 62 467T138 581T249 657T383 685Q445 685 498 668T595 620L660 695L695 663L631 589Q678 543 704 479T731 338Q731 263 704 199T628 87T517
13T383 -14ZM155 334Q155 227 192 154L543 559Q513 595 472 614T381 633Q312 633 261 597T183 493T155 334ZM383 38Q452 38 503 73T583 175T611 334Q611 443 570 519L219 113Q280 38 383 38Z" />
<glyph unicode="&#xd9;" horiz-adv-x="739" d="M369 -15Q289 -15 236 10T151 74T107 158T94 243V633L20 636V675H286V641L226 637Q199 636 199 601V258Q199 201 218 155T279 82T383 55Q490 55 534 108T579 252L574 633L494 636V675H719V641L673 637Q647 634 646
601L636 249Q634 174 605 114T518 20T369 -15ZM410 708L269 888Q278 896 301 907T341 919Q352 919 359 910T376 880L445 720L410 708Z" />
<glyph unicode="&#xda;" horiz-adv-x="739" d="M369 -15Q289 -15 236 10T151 74T107 158T94 243V633L20 636V675H286V641L226 637Q199 636 199 601V258Q199 201 218 155T279 82T383 55Q490 55 534 108T579 252L574 633L494 636V675H719V641L673 637Q647 634 646
601L636 249Q634 174 605 114T518 20T369 -15ZM372 709L337 721L406 881Q415 902 422 911T441 920Q458 920 481 909T513 889L372 709Z" />
<glyph unicode="&#xdb;" horiz-adv-x="739" d="M369 -15Q289 -15 236 10T151 74T107 158T94 243V633L20 636V675H286V641L226 637Q199 636 199 601V258Q199 201 218 155T279 82T383 55Q490 55 534 108T579 252L574 633L494 636V675H719V641L673 637Q647 634 646
601L636 249Q634 174 605 114T518 20T369 -15ZM277 711L254 728L343 881Q357 904 367 909T391 915Q405 915 415 910T439 881L528 728L505 711L391 839L277 711Z" />
<glyph unicode="&#xdc;" horiz-adv-x="739" d="M369 -15Q289 -15 236 10T151 74T107 158T94 243V633L20 636V675H286V641L226 637Q199 636 199 601V258Q199 201 218 155T279 82T383 55Q490 55 534 108T579 252L574 633L494 636V675H719V641L673 637Q647 634 646
601L636 249Q634 174 605 114T518 20T369 -15ZM487 769Q462 769 446 786T429 827Q429 852 445 868T487 885Q511 885 528 869T545 827Q545 803 528 786T487 769ZM293 769Q268 769 252 786T235 827Q235 852 251 868T293 885Q317 885 334 869T351 827Q351 803 334
786T293 769Z" />
<glyph unicode="&#xdd;" horiz-adv-x="655" d="M192 0V39L249 43Q276 44 276 79V271L69 632L5 636V675H283V636L227 634Q215 633 205 627T204 603L363 318L520 633L430 636V675H650V636L616 634Q597 633 592 629T577 610L381 274V44L462 39V0H192ZM328 709L293
721L362 881Q371 902 378 911T397 920Q414 920 437 909T469 889L328 709Z" />
<glyph unicode="&#xde;" horiz-adv-x="609" d="M25 0V39L82 43Q109 44 109 79V631L28 636V675H298V636L241 632Q214 631 214 596V546H327Q400 546 456 525T546 461T579 350Q579 289 545 244T448 175T303 150Q279 150 258 151T214 155V44L295 39V0H25ZM315 499Q290
499 266 498T214 492V194Q232 192 250 191T292 190Q373 190 418 234T464 346Q464 408 441 441T384 486T315 499Z" />
<glyph unicode="&#xdf;" horiz-adv-x="596" d="M32 0V32L69 36Q96 39 96 72V401H25V422L96 471V517Q96 542 112 576T161 643T239 698T345 720Q391 720 428 703T489 652T512 569Q512 550 498 532T462 496T418 461T382 427T367 391Q367 368 381 351T419 320T468
289Q494 273 518 253T557 204T572 135Q572 75 530 33T409 -10Q372 -10 341 -3T284 18L277 147H304Q328 88 351 62T413 35Q449 35 471 52T494 106Q494 142 469 161T403 207Q375 226 352 244T316 289T302 354Q302 390 320 416T364 464T407 502T426 538Q426 588 409
617T366 660T312 673Q271 673 244 652T204 595T189 519V36L244 32V0H32Z" />
<glyph unicode="&#xe0;" horiz-adv-x="463" d="M142 -9Q91 -9 63 18T34 91Q34 124 53 155T131 207Q160 217 205 227T285 243V299Q285 346 264 369T214 393Q193 393 177 390T137 379V283Q121 280 107 280Q77 280 64 292T50 321Q50 330 53 340T65 359Q82 378 112
399T175 435T237 450Q304 450 341 419T378 318V87Q378 65 385 54T412 43Q422 43 433 47T454 61L463 52Q450 18 422 5T367 -9Q339 -9 318 5T289 50H278Q249 25 218 8T142 -9ZM132 113Q132 88 146 68T193 48Q218 48 237 56T285 79V84V212Q269 210 245 204T193 186Q160
173 146 155T132 113ZM256 764L115 944Q124 952 147 963T187 975Q198 975 205 966T222 936L291 776L256 764Z" />
<glyph unicode="&#xe1;" horiz-adv-x="463" d="M142 -9Q91 -9 63 18T34 91Q34 124 53 155T131 207Q160 217 205 227T285 243V299Q285 346 264 369T214 393Q193 393 177 390T137 379V283Q121 280 107 280Q77 280 64 292T50 321Q50 330 53 340T65 359Q82 378 112
399T175 435T237 450Q304 450 341 419T378 318V87Q378 65 385 54T412 43Q422 43 433 47T454 61L463 52Q450 18 422 5T367 -9Q339 -9 318 5T289 50H278Q249 25 218 8T142 -9ZM132 113Q132 88 146 68T193 48Q218 48 237 56T285 79V84V212Q269 210 245 204T193 186Q160
173 146 155T132 113ZM218 509L183 521L252 681Q261 702 268 711T287 720Q304 720 327 709T359 689L218 509Z" />
<glyph unicode="&#xe2;" horiz-adv-x="463" d="M142 -9Q91 -9 63 18T34 91Q34 124 53 155T131 207Q160 217 205 227T285 243V299Q285 346 264 369T214 393Q193 393 177 390T137 379V283Q121 280 107 280Q77 280 64 292T50 321Q50 330 53 340T65 359Q82 378 112
399T175 435T237 450Q304 450 341 419T378 318V87Q378 65 385 54T412 43Q422 43 433 47T454 61L463 52Q450 18 422 5T367 -9Q339 -9 318 5T289 50H278Q249 25 218 8T142 -9ZM132 113Q132 88 146 68T193 48Q218 48 237 56T285 79V84V212Q269 210 245 204T193 186Q160
173 146 155T132 113ZM123 511L100 528L189 681Q203 704 213 709T237 715Q251 715 261 710T285 681L374 528L351 511L237 639L123 511Z" />
<glyph unicode="&#xe3;" horiz-adv-x="463" d="M142 -9Q91 -9 63 18T34 91Q34 124 53 155T131 207Q160 217 205 227T285 243V299Q285 346 264 369T214 393Q193 393 177 390T137 379V283Q121 280 107 280Q77 280 64 292T50 321Q50 330 53 340T65 359Q82 378 112
399T175 435T237 450Q304 450 341 419T378 318V87Q378 65 385 54T412 43Q422 43 433 47T454 61L463 52Q450 18 422 5T367 -9Q339 -9 318 5T289 50H278Q249 25 218 8T142 -9ZM132 113Q132 88 146 68T193 48Q218 48 237 56T285 79V84V212Q269 210 245 204T193 186Q160
173 146 155T132 113ZM93 568Q93 631 116 656T178 682Q209 682 233 669T278 641T321 627Q343 627 349 640T357 682H381Q381 628 359 598T296 568Q262 568 239 582T195 609T150 623Q131 623 125 608T116 568H93Z" />
<glyph unicode="&#xe4;" horiz-adv-x="463" d="M142 -9Q91 -9 63 18T34 91Q34 124 53 155T131 207Q160 217 205 227T285 243V299Q285 346 264 369T214 393Q193 393 177 390T137 379V283Q121 280 107 280Q77 280 64 292T50 321Q50 330 53 340T65 359Q82 378 112
399T175 435T237 450Q304 450 341 419T378 318V87Q378 65 385 54T412 43Q422 43 433 47T454 61L463 52Q450 18 422 5T367 -9Q339 -9 318 5T289 50H278Q249 25 218 8T142 -9ZM132 113Q132 88 146 68T193 48Q218 48 237 56T285 79V84V212Q269 210 245 204T193 186Q160
173 146 155T132 113ZM333 569Q308 569 292 586T275 627Q275 652 291 668T333 685Q357 685 374 669T391 627Q391 603 374 586T333 569ZM139 569Q114 569 98 586T81 627Q81 652 97 668T139 685Q163 685 180 669T197 627Q197 603 180 586T139 569Z" />
<glyph unicode="&#xe5;" horiz-adv-x="463" d="M142 -9Q91 -9 63 18T34 91Q34 124 53 155T131 207Q160 217 205 227T285 243V299Q285 346 264 369T214 393Q193 393 177 390T137 379V283Q121 280 107 280Q77 280 64 292T50 321Q50 330 53 340T65 359Q82 378 112
399T175 435T237 450Q304 450 341 419T378 318V87Q378 65 385 54T412 43Q422 43 433 47T454 61L463 52Q450 18 422 5T367 -9Q339 -9 318 5T289 50H278Q249 25 218 8T142 -9ZM132 113Q132 88 146 68T193 48Q218 48 237 56T285 79V84V212Q269 210 245 204T193 186Q160
173 146 155T132 113ZM237 553Q201 553 179 576T156 634Q156 669 178 692T237 715Q273 715 295 692T318 634Q318 599 296 576T237 553ZM237 587Q256 587 268 600T280 633Q280 654 268 667T237 680Q218 680 206 667T193 633Q193 613 205 600T237 587Z" />
<glyph unicode="&#xe6;" horiz-adv-x="694" d="M142 -9Q91 -9 63 18T34 91Q34 124 53 155T131 207Q158 216 199 225T279 242V299Q279 346 258 369T208 393Q191 393 176 390T137 379V283Q91 275 71 288T50 321Q50 330 53 340T65 359Q82 378 111 399T173 435T231
450Q320 450 343 386Q371 417 408 433T489 450Q564 450 611 404T659 273V237H365Q368 151 406 106T516 61Q546 61 578 70T643 113L655 102Q647 76 624 50T566 7T486 -10V-10Q484 -10 483 -10H481Q365 -10 315 63H309Q267 23 229 7T142 -9ZM470 406Q427 406 399
376T366 277H560Q560 330 539 368T470 406ZM132 113Q132 88 146 68T193 48Q222 48 247 59T302 88Q279 136 279 209V211Q263 208 241 202T193 186Q160 173 146 155T132 113Z" />
<glyph unicode="&#xe7;" horiz-adv-x="430" d="M235 -10Q137 -10 86 49T35 203Q35 275 67 331T153 418T273 450Q328 450 364 425T400 368Q400 343 379 325T320 306L290 398Q276 405 246 405Q195 405 164 365T132 242Q132 151 171 107T275 62Q307 62 338 73T398
113L410 102Q402 80 381 54T324 9T235 -10ZM228 -215Q185 -215 164 -199T142 -166Q142 -154 154 -140T188 -124Q198 -148 212 -170T236 -193Q247 -193 262 -178T277 -141Q277 -116 255 -102T191 -75L214 -1H246L238 -37Q262 -42 285 -52T323 -79T339 -123Q339 -143
326 -164T287 -200T228 -215Z" />
<glyph unicode="&#xe8;" horiz-adv-x="459" d="M246 -10Q149 -10 92 48T35 209Q35 280 65 334T145 419T254 450Q329 450 376 404T424 273V237H130Q133 151 171 106T281 61Q311 61 343 70T408 113L420 102Q412 76 389 50T330 7T246 -10ZM235 406Q192 406 164 376T131
277H325Q325 330 304 368T235 406ZM270 763L129 943Q138 951 161 962T201 974Q212 974 219 965T236 935L305 775L270 763Z" />
<glyph unicode="&#xe9;" horiz-adv-x="459" d="M246 -10Q149 -10 92 48T35 209Q35 280 65 334T145 419T254 450Q329 450 376 404T424 273V237H130Q133 151 171 106T281 61Q311 61 343 70T408 113L420 102Q412 76 389 50T330 7T246 -10ZM235 406Q192 406 164 376T131
277H325Q325 330 304 368T235 406ZM232 508L197 520L266 680Q275 701 282 710T301 719Q318 719 341 708T373 688L232 508Z" />
<glyph unicode="&#xea;" horiz-adv-x="459" d="M246 -10Q149 -10 92 48T35 209Q35 280 65 334T145 419T254 450Q329 450 376 404T424 273V237H130Q133 151 171 106T281 61Q311 61 343 70T408 113L420 102Q412 76 389 50T330 7T246 -10ZM235 406Q192 406 164 376T131
277H325Q325 330 304 368T235 406ZM137 766L114 783L203 936Q217 959 227 964T251 970Q265 970 275 965T299 936L388 783L365 766L251 894L137 766Z" />
<glyph unicode="&#xeb;" horiz-adv-x="459" d="M246 -10Q149 -10 92 48T35 209Q35 280 65 334T145 419T254 450Q329 450 376 404T424 273V237H130Q133 151 171 106T281 61Q311 61 343 70T408 113L420 102Q412 76 389 50T330 7T246 -10ZM235 406Q192 406 164 376T131
277H325Q325 330 304 368T235 406ZM347 824Q322 824 306 841T289 882Q289 907 305 923T347 940Q371 940 388 924T405 882Q405 858 388 841T347 824ZM153 824Q128 824 112 841T95 882Q95 907 111 923T153 940Q177 940 194 924T211 882Q211 858 194 841T153 824Z"
/>
<glyph unicode="&#xec;" horiz-adv-x="274" d="M30 0V32L67 36Q94 39 94 72V355L41 400V414L179 450H187V36L252 32V0H30ZM402 509L261 689Q270 697 293 708T333 720Q344 720 351 711T368 681L437 521L402 509Z" />
<glyph unicode="&#xed;" horiz-adv-x="274" d="M30 0V32L67 36Q94 39 94 72V355L41 400V414L179 450H187V36L252 32V0H30ZM122 509L87 521L156 681Q165 702 172 711T191 720Q208 720 231 709T263 689L122 509Z" />
<glyph unicode="&#xee;" horiz-adv-x="274" d="M30 0V32L67 36Q94 39 94 72V355L41 400V414L179 450H187V36L252 32V0H30ZM283 511L260 528L349 681Q363 704 373 709T397 715Q411 715 421 710T445 681L534 528L511 511L397 639L283 511Z" />
<glyph unicode="&#xef;" horiz-adv-x="274" d="M227 589Q202 589 186 606T169 647Q169 672 185 688T227 705Q251 705 268 689T285 647Q285 623 268 606T227 589ZM53 589Q28 589 12 606T-5 647Q-5 672 11 688T53 705Q77 705 94 689T111 647Q111 623 94 606T53 589ZM30
0V32L67 36Q94 39 94 72V355L41 400V414L179 450H187V36L252 32V0H30Z" />
<glyph unicode="&#xf0;" horiz-adv-x="530" d="M35 221Q35 285 60 337T131 419T242 450Q277 450 316 436T381 375H389Q379 424 351 477T279 576L144 516V553L252 601Q216 633 172 657T75 694L81 720Q160 715 221 692T327 634L438 683V646L356 610Q378 589 396
566T429 519Q469 452 482 390T495 263Q495 177 464 116T380 23T262 -10Q189 -10 139 20T62 103T35 221ZM140 221Q140 139 172 86T262 32Q318 32 351 85T385 221Q385 317 350 362T262 408Q207 408 174 356T140 221Z" />
<glyph unicode="&#xf1;" horiz-adv-x="564" d="M30 0V32L67 36Q94 39 94 72V355L41 400V414L179 450H187V371H195Q229 416 270 433T352 450Q411 450 446 419T482 318V36L547 32V0H325V32L362 36Q389 39 389 72V287Q389 334 367 357T306 380Q247 380 187 341V36L252
32V0H30ZM163 568Q163 631 186 656T248 682Q279 682 303 669T348 641T391 627Q413 627 419 640T427 682H451Q451 628 429 598T366 568Q332 568 309 582T265 609T220 623Q201 623 195 608T186 568H163Z" />
<glyph unicode="&#xf2;" horiz-adv-x="526" d="M262 -10Q189 -10 139 20T62 103T35 221Q35 285 65 337T146 419T262 450Q332 450 383 421T462 340T490 221Q490 156 460 104T379 21T262 -10ZM262 32Q318 32 351 85T385 221Q385 303 352 355T262 408Q207 408 174
356T140 221Q140 139 172 86T262 32ZM281 764L140 944Q149 952 172 963T212 975Q223 975 230 966T247 936L316 776L281 764Z" />
<glyph unicode="&#xf3;" horiz-adv-x="526" d="M262 -10Q189 -10 139 20T62 103T35 221Q35 285 65 337T146 419T262 450Q332 450 383 421T462 340T490 221Q490 156 460 104T379 21T262 -10ZM262 32Q318 32 351 85T385 221Q385 303 352 355T262 408Q207 408 174
356T140 221Q140 139 172 86T262 32ZM243 509L208 521L277 681Q286 702 293 711T312 720Q329 720 352 709T384 689L243 509Z" />
<glyph unicode="&#xf4;" horiz-adv-x="526" d="M262 -10Q189 -10 139 20T62 103T35 221Q35 285 65 337T146 419T262 450Q332 450 383 421T462 340T490 221Q490 156 460 104T379 21T262 -10ZM262 32Q318 32 351 85T385 221Q385 303 352 355T262 408Q207 408 174
356T140 221Q140 139 172 86T262 32ZM148 511L125 528L214 681Q228 704 238 709T262 715Q276 715 286 710T310 681L399 528L376 511L262 639L148 511Z" />
<glyph unicode="&#xf5;" horiz-adv-x="526" d="M262 -10Q189 -10 139 20T62 103T35 221Q35 285 65 337T146 419T262 450Q332 450 383 421T462 340T490 221Q490 156 460 104T379 21T262 -10ZM262 32Q318 32 351 85T385 221Q385 303 352 355T262 408Q207 408 174
356T140 221Q140 139 172 86T262 32ZM118 568Q118 631 141 656T203 682Q234 682 258 669T303 641T346 627Q368 627 374 640T382 682H406Q406 628 384 598T321 568Q287 568 264 582T220 609T175 623Q156 623 150 608T141 568H118Z" />
<glyph unicode="&#xf6;" horiz-adv-x="526" d="M262 -10Q189 -10 139 20T62 103T35 221Q35 285 65 337T146 419T262 450Q332 450 383 421T462 340T490 221Q490 156 460 104T379 21T262 -10ZM262 32Q318 32 351 85T385 221Q385 303 352 355T262 408Q207 408 174
356T140 221Q140 139 172 86T262 32ZM358 569Q333 569 317 586T300 627Q300 652 316 668T358 685Q382 685 399 669T416 627Q416 603 399 586T358 569ZM164 569Q139 569 123 586T106 627Q106 652 122 668T164 685Q188 685 205 669T222 627Q222 603 205 586T164 569Z"
/>
<glyph unicode="&#xf7;" horiz-adv-x="500" d="M250 353Q232 353 220 366T207 397Q207 415 219 427T250 440Q268 440 281 428T294 397Q294 379 281 366T250 353ZM80 292H420V248H80V292ZM250 100Q232 100 220 113T207 144Q207 162 219 174T250 187Q268 187 281
175T294 144Q294 126 281 113T250 100Z" />
<glyph unicode="&#xf8;" horiz-adv-x="525" d="M262 -10Q224 -10 192 -2T134 23L93 -30L65 -8L105 45Q71 77 53 122T35 221Q35 285 65 337T146 419T262 450Q334 450 389 417L429 470L460 447L419 394Q453 364 471 320T490 221Q490 156 460 104T379 21T262 -10ZM140
221Q140 160 158 114L347 362Q314 408 262 408Q207 408 174 356T140 221ZM262 32Q318 32 351 85T385 221Q385 281 367 326L177 79Q210 32 262 32Z" />
<glyph unicode="&#xf9;" horiz-adv-x="555" d="M373 -5V69H367Q333 24 292 7T210 -10Q151 -10 116 21T80 122V355L27 400V414L165 450H173V153Q173 107 196 84T256 60Q313 60 373 98V355L320 400V414L458 450H466V42H533V9L383 -5H373ZM286 764L145 944Q154 952
177 963T217 975Q228 975 235 966T252 936L321 776L286 764Z" />
<glyph unicode="&#xfa;" horiz-adv-x="555" d="M373 -5V69H367Q333 24 292 7T210 -10Q151 -10 116 21T80 122V355L27 400V414L165 450H173V153Q173 107 196 84T256 60Q313 60 373 98V355L320 400V414L458 450H466V42H533V9L383 -5H373ZM248 509L213 521L282 681Q291
702 298 711T317 720Q334 720 357 709T389 689L248 509Z" />
<glyph unicode="&#xfb;" horiz-adv-x="555" d="M373 -5V69H367Q333 24 292 7T210 -10Q151 -10 116 21T80 122V355L27 400V414L165 450H173V153Q173 107 196 84T256 60Q313 60 373 98V355L320 400V414L458 450H466V42H533V9L383 -5H373ZM153 511L130 528L219 681Q233
704 243 709T267 715Q281 715 291 710T315 681L404 528L381 511L267 639L153 511Z" />
<glyph unicode="&#xfc;" horiz-adv-x="555" d="M373 -5V69H367Q333 24 292 7T210 -10Q151 -10 116 21T80 122V355L27 400V414L165 450H173V153Q173 107 196 84T256 60Q313 60 373 98V355L320 400V414L458 450H466V42H533V9L383 -5H373ZM363 569Q338 569 322 586T305
627Q305 652 321 668T363 685Q387 685 404 669T421 627Q421 603 404 586T363 569ZM169 569Q144 569 128 586T111 627Q111 652 127 668T169 685Q193 685 210 669T227 627Q227 603 210 586T169 569Z" />
<glyph unicode="&#xfd;" horiz-adv-x="498" d="M133 -215Q104 -215 90 -200T74 -162T77 -119H172L229 -23L70 358V358L51 403L5 408V440H236V408L201 405Q185 404 174 401T169 382L180 354V354L278 103L375 401L319 408V440H493V408L466 406Q450 405 445 402T435
387L425 363L286 25L274 -5L273 -9V-9L221 -140Q211 -165 189 -190T133 -215ZM250 509L215 521L284 681Q293 702 300 711T319 720Q336 720 359 709T391 689L250 509Z" />
<glyph unicode="&#xfe;" horiz-adv-x="538" d="M17 -215V-183L54 -179Q81 -176 81 -143V625L28 670V684L166 720H174V374H183Q201 402 235 426T328 450Q376 450 416 426T479 357T503 247Q503 174 469 116T378 24T252 -10Q228 -10 209 -7T174 0V-179L239 -183V-215H17ZM279
378Q252 378 227 371T174 340V87Q192 68 218 53T277 37Q338 37 372 81T406 212Q406 292 369 335T279 378Z" />
<glyph unicode="&#xff;" horiz-adv-x="498" d="M133 -215Q104 -215 90 -200T74 -162T77 -119H172L229 -23L70 358V358L51 403L5 408V440H236V408L201 405Q185 404 174 401T169 382L180 354V354L278 103L375 401L319 408V440H493V408L466 406Q450 405 445 402T435
387L425 363L286 25L274 -5L273 -9V-9L221 -140Q211 -165 189 -190T133 -215ZM365 569Q340 569 324 586T307 627Q307 652 323 668T365 685Q389 685 406 669T423 627Q423 603 406 586T365 569ZM171 569Q146 569 130 586T113 627Q113 652 129 668T171 685Q195 685
212 669T229 627Q229 603 212 586T171 569Z" />
<glyph unicode="&#x2013;" horiz-adv-x="500" d="M25 295H475V225H25V295Z" />
<glyph unicode="&#x2014;" horiz-adv-x="1000" d="M25 295H975V225H25V295Z" />
<glyph unicode="&#x2018;" horiz-adv-x="242" d="M111 559Q126 564 136 564Q158 564 171 549T184 504Q184 476 166 458T120 440Q85 440 68 464T50 523Q50 578 79 631T176 720L192 700Q143 660 127 625T111 559Z" />
<glyph unicode="&#x2019;" horiz-adv-x="242" d="M131 601Q116 596 106 596Q84 596 71 612T58 656Q58 685 76 702T122 720Q157 720 174 696T192 637Q192 582 163 529T66 440L50 460Q100 500 115 535T131 601Z" />
<glyph unicode="&#x201a;" horiz-adv-x="256" d="M131 3Q116 -2 106 -2Q84 -2 71 14T58 58Q58 87 76 104T122 122Q157 122 174 98T192 39Q192 -16 163 -69T66 -158L50 -138Q100 -98 115 -63T131 3Z" />
<glyph unicode="&#x201c;" horiz-adv-x="428" d="M297 559Q312 564 322 564Q344 564 357 549T370 504Q370 476 352 458T306 440Q271 440 254 464T236 523Q236 578 265 631T362 720L378 700Q329 660 313 625T297 559ZM111 559Q126 564 136 564Q158 564 171 549T184
504Q184 476 166 458T120 440Q85 440 68 464T50 523Q50 578 79 631T176 720L192 700Q143 660 127 625T111 559Z" />
<glyph unicode="&#x201d;" horiz-adv-x="428" d="M131 601Q116 596 106 596Q84 596 71 612T58 656Q58 685 76 702T122 720Q157 720 174 696T192 637Q192 582 163 529T66 440L50 460Q100 500 115 535T131 601ZM317 601Q302 596 292 596Q270 596 257 612T244 656Q244
685 262 702T308 720Q343 720 360 696T378 637Q378 582 349 529T252 440L236 460Q286 500 301 535T317 601Z" />
<glyph unicode="&#x201e;" horiz-adv-x="429" d="M318 3Q303 -2 293 -2Q271 -2 258 14T245 58Q245 87 263 104T309 122Q344 122 361 98T379 39Q379 -16 350 -69T253 -158L237 -138Q287 -98 302 -63T318 3ZM131 3Q116 -2 106 -2Q84 -2 71 14T58 58Q58 87 76 104T122
122Q157 122 174 98T192 39Q192 -16 163 -69T66 -158L50 -138Q100 -98 115 -63T131 3Z" />
<glyph unicode="&#x2022;" horiz-adv-x="265" d="M134 260Q95 260 73 283T50 342Q50 377 72 400T134 423Q172 423 193 400T215 342Q215 306 194 283T134 260Z" />
<glyph unicode="&#x2039;" horiz-adv-x="354" d="M260 19Q199 87 150 131T50 209V230Q100 265 149 308T260 420L284 400Q265 363 241 329T195 266T156 219Q172 202 194 174T240 110T283 38L260 19Z" />
<glyph unicode="&#x203a;" horiz-adv-x="354" d="M94 420Q156 352 205 309T304 230V209Q255 175 206 131T94 19L70 39Q89 76 113 110T159 173T198 220Q182 237 160 265T114 329T71 401L94 420Z" />
</font>
</defs>
</svg>
