<?xml version="1.0" standalone="no"?>
<!DOCTYPE svg PUBLIC "-//W3C//DTD SVG 1.1//EN" "http://www.w3.org/Graphics/SVG/1.1/DTD/svg11.dtd">
<svg xmlns="http://www.w3.org/2000/svg">
<defs >
<font id="ZenKurenaido" horiz-adv-x="972" ><font-face
    font-family="Zen Kurenaido"
    units-per-em="1000"
    panose-1="0 0 0 0 0 0 0 0 0 0"
    ascent="1160"
    descent="-288"
    alphabetic="0" />
<glyph unicode=" " glyph-name="space" horiz-adv-x="270" />
<glyph unicode="!" glyph-name="exclam" horiz-adv-x="258" d="M129 174Q119 174 112 182T105 200V689Q105 700 112 707T129 715Q140 715 147 708T155 689V200Q155 190 148 182T129 174ZM129 -14Q113 -14 104 -5T94 14V66Q94 77 103 85T129 94Q146 94 155 86T164
66V14Q164 4 155 -5T129 -14Z" />
<glyph unicode="&quot;" glyph-name="quotedbl" horiz-adv-x="328" d="M99 457Q89 457 82 464T75 482V690Q75 700 82 707T99 715Q109 715 116 708T123 690V482Q123 472 116 465T99 457ZM229 457Q219 457 213 464T206 482V690Q206 700 212 707T229 715Q239 715
246 708T253 690V482Q253 472 246 465T229 457Z" />
<glyph unicode="#" glyph-name="numbersign" horiz-adv-x="671" d="M145 -14Q136 -11 131 -3T128 15L179 223H80Q70 223 64 229T57 246Q57 256 63 263T80 270H190L233 440H115Q105 440 98 447T91 465Q91 475 98 481T115 488H244L296 697Q298 706 306 711T324 714Q335
712 339 704T342 686L293 488H449L501 697Q503 706 511 711T529 714Q539 712 544 704T547 686L498 488H591Q601 488 608 482T615 465Q615 455 608 448T591 440H487L444 270H557Q567 270 574 263T581 246Q581 236 574 230T557 223H433L379 4Q376 -6 368 -11T350
-14Q341 -11 336 -3T333 15L384 223H228L174 4Q172 -6 164 -11T145 -14ZM240 270H395L438 440H282L240 270Z" />
<glyph unicode="$" glyph-name="dollar" horiz-adv-x="587" d="M283 -107Q273 -107 266 -100T259 -83V-11Q133 1 57 82Q50 89 50 99T58 117Q66 124 75 124T92 116Q156 51 259 40V331Q168 350 121 400T74 527Q74 603 125 654T259 713V769Q259 780 266 786T283 793Q293
793 299 787T306 769V714Q358 711 406 693T501 640Q509 634 510 624T505 605Q499 597 489 596T471 600Q430 630 390 646T306 664V373Q428 351 479 302T531 169Q531 111 499 71T415 10T306 -12V-83Q306 -93 300 -100T283 -107ZM306 38Q349 39 389 53T455 96T481
169Q481 206 468 235T418 286T306 323V38ZM259 382V663Q197 656 161 620T124 527Q124 503 133 475T171 421T259 382Z" />
<glyph unicode="%" glyph-name="percent" horiz-adv-x="697" d="M191 430Q154 430 124 448T75 497T57 565Q57 602 75 632T123 681T191 700Q229 700 259 682T308 633T326 565Q326 528 308 497T260 448T191 430ZM505 2Q468 2 438 20T389 69T371 137Q371 174 389
204T437 253T505 272Q543 272 573 254T622 205T640 137Q640 100 622 70T574 21T505 2ZM107 -9Q98 -4 96 6T100 24L557 704Q563 713 573 715T590 711Q599 705 600 696T597 678L140 -3Q134 -10 125 -12T107 -9ZM191 477Q228 477 253 503T279 565Q279 601 254 627T191
653Q155 653 130 627T104 565Q104 529 129 503T191 477ZM505 50Q542 50 567 75T592 137Q592 173 567 198T505 224Q469 224 444 199T418 137Q418 101 443 76T505 50Z" />
<glyph unicode="&amp;" glyph-name="ampersand" horiz-adv-x="660" d="M289 -15Q223 -15 173 10T94 81T66 186Q66 319 218 408L214 411Q186 444 163 483T139 567Q139 610 158 643T212 696T291 715Q359 715 401 675T444 571Q444 473 295 393Q323 361 358 321T431
239T503 158Q523 187 540 219T567 288Q570 298 579 302T598 305Q606 303 611 296T616 281Q616 276 615 273Q604 233 584 194T537 120Q571 81 593 56T617 29Q622 22 622 13Q622 1 614 -6Q607 -13 597 -12T579 -4Q578 -3 557 21T503 82Q460 39 406 12T289 -15ZM289
35Q337 35 383 58T470 120Q434 161 394 206T317 294T251 370Q116 294 116 186Q116 116 162 76T289 35ZM262 432Q394 499 394 571Q394 614 366 640T291 666Q246 666 218 639T189 567Q189 535 210 503T253 443L262 432Z" />
<glyph unicode="&apos;" glyph-name="quotesingle" horiz-adv-x="198" d="M99 457Q89 457 82 464T75 482V690Q75 700 82 707T99 715Q109 715 116 708T123 690V482Q123 472 116 465T99 457Z" />
<glyph unicode="(" glyph-name="parenleft" horiz-adv-x="387" d="M278 -106Q241 -77 204 -35T135 63T85 183T66 322Q66 396 85 461T135 581T203 678T278 749Q286 755 296 754T311 745Q318 738 317 728T306 711Q273 686 239 647T177 558T131 449T113 322Q113 232
143 157T217 24T306 -68Q315 -73 316 -83T311 -101Q306 -108 296 -109T278 -106Z" />
<glyph unicode=")" glyph-name="parenright" horiz-adv-x="387" d="M99 -106Q92 -111 82 -110T66 -101Q60 -93 61 -83T71 -68Q115 -33 159 24T234 156T264 322Q264 389 247 448T201 558T138 647T71 711Q63 718 62 728T66 745Q72 753 82 754T99 749Q136 721 173
679T242 581T292 461T311 322Q311 249 292 184T242 63T174 -34T99 -106Z" />
<glyph unicode="*" glyph-name="asterisk" horiz-adv-x="462" d="M124 382Q115 387 114 397T118 415L192 518L72 556Q62 560 58 568T57 587Q59 596 68 600T87 602L207 563V689Q207 700 214 706T231 713Q241 713 248 707T255 689V563L375 602Q385 604 393 600T405
587Q408 577 404 569T389 556L270 518L344 415Q350 408 349 398T339 382Q331 376 321 377T306 387L231 489L157 387Q151 379 142 378T124 382Z" />
<glyph unicode="+" glyph-name="plus" horiz-adv-x="943" d="M472 15Q462 15 455 22T448 40V327H160Q150 327 143 334T136 351Q136 361 143 367T160 374H448V662Q448 672 455 679T472 686Q482 686 489 679T496 662V374H784Q794 374 800 368T807 351Q807 341 801
334T784 327H496V40Q496 30 489 23T472 15Z" />
<glyph unicode="," glyph-name="comma" horiz-adv-x="271" d="M99 -148Q89 -148 82 -142T75 -125Q75 -114 82 -108T99 -101Q127 -101 137 -90T148 -50V-12Q146 -12 145 -12T141 -13Q116 -13 101 5T86 49Q86 75 101 93T141 111Q166 111 180 93T195 49V-50Q195 -148
99 -148Z" />
<glyph unicode="-" glyph-name="hyphen" horiz-adv-x="394" d="M80 180Q70 180 64 187T57 204Q57 214 63 221T80 228H314Q324 228 331 221T338 204Q338 194 331 187T314 180H80Z" />
<glyph unicode="." glyph-name="period" horiz-adv-x="260" d="M130 -13Q105 -13 90 5T75 49Q75 75 90 93T130 111Q156 111 170 93T185 49Q185 24 171 6T130 -13Z" />
<glyph unicode="/" glyph-name="slash" horiz-adv-x="429" d="M91 -10Q81 -8 77 1T75 20L308 698Q311 707 320 711T339 713Q348 709 352 701T354 683L121 4Q117 -5 109 -9T91 -10Z" />
<glyph unicode="0" glyph-name="zero" horiz-adv-x="506" d="M255 -13Q189 -13 150 18T90 101T64 218T57 351Q57 419 63 484T90 601T149 684T255 715Q319 715 358 686T417 605T443 488T450 351Q450 279 444 214T417 97T358 17T255 -13ZM255 37Q288 37 314 49T360
95T389 190T400 351Q400 450 390 511T360 606T315 652T255 665Q226 665 200 655T152 613T119 518T107 351Q107 246 119 184T152 90T199 48T255 37Z" />
<glyph unicode="1" glyph-name="one" horiz-adv-x="461" d="M98 0Q88 0 81 7T73 25Q73 36 80 43T98 50H214V653L91 608Q81 605 72 609T58 623Q55 634 59 643T73 655L230 713Q242 718 254 710Q264 702 264 689V50H376Q387 50 394 43T401 25Q401 15 394 8T376 0H98Z" />
<glyph unicode="2" glyph-name="two" horiz-adv-x="481" d="M72 0Q62 0 55 7T47 25Q47 81 69 137T131 242T229 325Q294 365 328 402T374 474T387 541Q387 597 350 631T252 665Q198 665 159 640T101 565Q97 555 88 551T69 551Q59 555 55 564T55 584Q80 646 131
680T252 715Q306 715 348 693T413 632T437 541Q437 470 395 406T255 283Q188 242 147 178T99 50H418Q429 50 436 43T443 25Q443 15 436 8T418 0H72Z" />
<glyph unicode="3" glyph-name="three" horiz-adv-x="492" d="M236 -13Q172 -13 126 4T39 58Q32 66 32 76T38 94Q45 102 55 102T73 95Q108 64 144 51T236 37Q276 37 312 55T371 109T395 203Q395 296 340 342Q285 389 190 372Q172 370 163 384Q160 392 160 397Q160
406 166 413Q241 503 284 555T346 629T365 652H77Q67 652 60 659T52 676Q52 687 59 694T77 702H418Q435 702 440 687Q443 683 443 676Q443 668 438 661Q366 575 323 523T261 448T241 425Q321 423 372 380Q445 319 445 203Q445 140 419 91T345 15T236 -13Z" />
<glyph unicode="4" glyph-name="four" horiz-adv-x="531" d="M371 -13Q361 -13 354 -6T346 11V170H59Q45 170 38 183Q30 196 39 208L350 703Q355 711 365 713T384 710Q396 701 396 689Q396 683 391 676Q317 559 267 478T184 347T135 269T112 231T105 220H346V356Q346
366 353 373T371 380Q382 380 389 373T396 356V220H497Q508 220 514 213T521 195Q521 185 515 178T497 170H396V11Q396 1 389 -6T371 -13Z" />
<glyph unicode="5" glyph-name="five" horiz-adv-x="455" d="M80 -3Q70 -2 64 6T58 25Q58 35 66 41T85 47Q232 34 303 97Q337 128 347 165T357 233Q357 310 304 348Q267 374 209 374T80 349Q66 344 56 354Q43 363 47 377L105 681Q107 689 114 695T129 701H384Q394
701 401 694T408 676Q408 666 401 659T384 651H150Q148 640 142 609T129 540T115 466T104 409Q174 429 232 424T333 389Q369 364 388 324T407 233Q407 124 337 60Q250 -18 80 -3Z" />
<glyph unicode="6" glyph-name="six" horiz-adv-x="509" d="M261 -13Q196 -13 148 17T74 104T47 235Q47 315 78 394T165 541T291 658T441 724Q452 726 460 721T472 705Q474 695 469 686T453 675Q383 659 319 616T205 510T126 377T97 235Q97 142 140 90T261 37Q332
37 373 76T415 180Q415 237 362 270Q328 290 284 290T199 266Q190 261 180 264T165 276Q160 286 163 296T174 310Q227 339 284 339T388 312Q425 290 445 256T465 180Q465 122 440 79T368 11T261 -13Z" />
<glyph unicode="7" glyph-name="seven" horiz-adv-x="528" d="M244 -13Q234 -12 228 -6T221 11V13Q224 126 259 247T353 491Q393 576 410 613T428 651H137L96 505Q93 495 85 490T65 487Q55 489 50 498T48 518L93 683Q95 691 102 696T117 701H468Q474 701 480 698T488
689Q496 677 490 666L398 470Q342 351 310 235T271 10Q270 0 263 -7T244 -13Z" />
<glyph unicode="8" glyph-name="eight" horiz-adv-x="533" d="M266 -13Q165 -13 106 38T47 178Q47 227 72 262T136 325T219 378Q184 400 154 424T106 480T88 554Q88 595 108 632T168 692T266 715Q325 715 365 692T425 632T445 554Q445 513 428 482T381 425T318
378Q361 354 399 327T461 264T486 178Q486 89 427 38T266 -13ZM266 37Q290 37 319 42T374 61T418 103T436 178Q436 217 413 245T353 298T274 345L269 349L256 341Q215 318 179 295T120 243T97 178Q97 132 114 104T157 61T213 42T266 37ZM268 406Q321 437 358 471T395
554Q395 582 382 607T340 648T266 665Q222 665 194 649T152 607T138 554Q138 521 155 495T203 448T268 406Z" />
<glyph unicode="9" glyph-name="nine" horiz-adv-x="519" d="M68 -23Q58 -25 50 -20T39 -4Q36 6 41 15T58 25Q127 41 191 85T304 191T383 324T412 466Q412 559 369 611T248 664Q178 664 136 625T94 521Q94 464 148 432Q183 411 226 412T311 435Q320 440 330 437T344
424Q349 415 347 405T335 390Q283 362 226 362T122 389Q85 411 65 446T44 521Q44 579 69 622T141 690T248 714Q313 714 361 684T435 598T462 466Q462 387 431 308T344 160T218 44T68 -23Z" />
<glyph unicode=":" glyph-name="colon" horiz-adv-x="260" d="M130 295Q105 295 90 313T75 357Q75 383 90 401T130 420Q156 420 170 402T185 357Q185 332 171 314T130 295ZM130 -13Q105 -13 90 5T75 49Q75 75 90 93T130 111Q156 111 170 93T185 49Q185 24 171 6T130 -13Z" />
<glyph unicode=";" glyph-name="semicolon" horiz-adv-x="271" d="M99 -148Q89 -148 82 -142T75 -125Q75 -114 82 -108T99 -101Q127 -101 137 -90T148 -50V-12Q146 -12 145 -12T141 -13Q116 -13 101 5T86 49Q86 75 101 93T141 111Q166 111 180 93T195 49V-50Q195
-148 99 -148ZM141 295Q116 295 101 313T86 357Q86 383 101 401T141 420Q166 420 180 402T195 357Q195 332 181 314T141 295Z" />
<glyph unicode="&lt;" glyph-name="less" horiz-adv-x="594" d="M504 -15L80 181Q66 188 66 203Q66 219 80 224L504 421Q512 424 521 421T535 408Q538 404 538 399Q538 384 523 377L146 203L523 28Q538 23 538 7Q538 2 535 -3Q531 -12 522 -15T504 -15Z" />
<glyph unicode="=" glyph-name="equal" horiz-adv-x="554" d="M80 82Q70 82 64 89T57 106Q57 116 63 123T80 130H473Q484 130 490 123T497 106Q497 96 491 89T473 82H80ZM80 276Q70 276 64 283T57 301Q57 310 63 317T80 324H473Q484 324 490 317T497 301Q497 291
491 284T473 276H80Z" />
<glyph unicode="&gt;" glyph-name="greater" horiz-adv-x="594" d="M100 -15Q91 -19 82 -16T68 -3Q66 3 66 7Q66 23 80 28L456 203L80 377Q66 383 66 399Q66 402 68 408Q73 418 82 421T100 421L523 224Q538 219 538 203Q538 188 523 181L100 -15Z" />
<glyph unicode="?" glyph-name="question" horiz-adv-x="516" d="M340 182Q286 182 247 205T197 268Q194 279 193 299T201 345T237 403T313 467Q379 511 397 552T405 619Q397 644 371 656T310 665Q188 651 98 515Q93 507 83 505T64 507Q55 513 53 523T57 542Q107
621 169 664T305 715Q358 720 398 699T453 636Q471 585 442 529T340 425Q276 383 257 345T244 282Q252 259 277 246T340 232Q351 232 358 225T366 207Q366 197 359 190T340 182ZM282 -14Q265 -14 256 -5T247 14V66Q247 77 256 85T282 94Q299 94 308 86T318 66V14Q318
4 309 -5T282 -14Z" />
<glyph unicode="@" glyph-name="at" horiz-adv-x="916" d="M462 -49Q380 -49 303 -18T169 70Q114 124 86 195T57 344Q57 434 87 511T173 646T303 735T466 767Q540 767 606 740T724 660Q771 613 798 552T825 431Q825 362 804 304T741 205Q711 174 674 158T599 141Q580
141 557 146T518 172Q503 190 503 223Q475 194 441 177T372 159Q346 159 322 170T281 204Q234 260 256 356Q271 424 306 475T388 555T487 578Q536 575 564 537Q567 533 569 529T574 520L589 582Q592 591 600 596T619 599Q628 597 633 589T636 571L556 259Q545 215
555 200Q563 189 599 189Q627 189 658 203T716 247T761 322T778 431Q778 482 755 533T690 626Q646 671 588 695T466 719Q313 719 212 618Q160 566 132 495T104 344Q104 201 203 104Q253 54 321 26T462 -2Q557 -2 627 31T745 116T816 222Q820 231 829 234T847 234Q856
230 860 221T859 203Q839 157 804 113T720 32T606 -27T462 -49ZM372 207Q406 207 438 229T496 291T533 377Q555 470 525 509Q511 530 482 531Q444 535 407 511T342 444T302 346Q285 273 318 233Q339 207 372 207Z" />
<glyph unicode="A" glyph-name="A" horiz-adv-x="630" d="M54 -8Q44 -5 40 4T40 24L291 701Q298 717 315 717Q332 717 339 701L591 24Q595 14 591 5T576 -8Q567 -12 558 -8T544 7L315 620L176 249H365Q375 249 382 242T389 223Q389 213 382 206T365 199H157L86
7Q82 -3 73 -7T54 -8Z" />
<glyph unicode="B" glyph-name="B" horiz-adv-x="582" d="M100 0Q90 0 83 7T75 25V675Q75 686 82 693T100 700H322Q407 700 459 651T512 522Q512 478 489 433T409 360Q525 318 525 188Q525 101 472 51T327 0H100ZM125 49H327Q399 49 437 85T475 188Q475 214 469
239T442 285T381 319T272 332H205Q194 332 187 339T180 357Q180 368 187 375T205 382H272Q342 382 383 403T443 456T462 522Q462 581 424 615T322 650H125V49Z" />
<glyph unicode="C" glyph-name="C" horiz-adv-x="565" d="M314 -18Q197 -18 132 47T66 230V469Q66 586 131 651T314 717Q371 717 422 692T508 622Q515 614 514 604T505 587Q496 581 486 582T469 591Q441 627 400 647T314 667Q221 667 169 615T116 469V230Q116
137 168 85T314 32Q359 32 400 51T469 107Q475 115 485 116T505 111Q513 105 514 95T508 76Q473 31 422 7T314 -18Z" />
<glyph unicode="D" glyph-name="D" horiz-adv-x="591" d="M100 0Q90 0 83 7T75 25V675Q75 685 82 692T100 700H304Q368 700 420 669T503 585T535 469V232Q535 168 504 116T420 32T304 0H100ZM125 50H304Q354 50 395 74T460 140T485 232V469Q485 519 461 560T395
625T304 650H125V50Z" />
<glyph unicode="E" glyph-name="E" horiz-adv-x="533" d="M100 0Q90 0 83 7T75 25V675Q75 685 82 692T100 700H451Q462 700 469 693T476 675Q476 665 469 658T451 650H125V381H396Q406 381 413 374T421 356Q421 346 414 339T396 331H125V50H451Q462 50 469 43T476
25Q476 15 469 8T451 0H100Z" />
<glyph unicode="F" glyph-name="F" horiz-adv-x="524" d="M100 -13Q90 -13 83 -6T75 11V675Q75 685 82 692T100 700H462Q472 700 479 693T487 675Q487 665 480 658T462 650H125V380Q126 380 127 380T129 381H406Q417 381 424 374T432 356Q432 346 425 339T406
331H125V11Q125 1 118 -6T100 -13Z" />
<glyph unicode="G" glyph-name="G" horiz-adv-x="611" d="M314 -13Q239 -13 184 18T97 105T66 235V467Q66 542 98 597T187 684T322 715Q375 715 421 699T502 653T553 585Q558 575 553 566T538 553Q516 543 506 566Q487 610 437 637T322 665Q260 665 214 641T142
572T116 467V235Q116 176 140 131T209 62T314 37Q361 37 409 48T489 78V262H333Q307 262 307 287Q307 312 333 312H515Q539 312 539 287V64Q539 50 528 42Q490 17 431 2T314 -13Z" />
<glyph unicode="H" glyph-name="H" horiz-adv-x="616" d="M100 -13Q90 -13 83 -6T75 11V690Q75 700 82 707T100 715Q111 715 118 708T125 690V392H491V690Q491 700 498 707T516 715Q527 715 533 708T540 690V11Q540 1 534 -6T516 -13Q506 -13 499 -6T491 11V342H125V11Q125
1 118 -6T100 -13Z" />
<glyph unicode="I" glyph-name="I" horiz-adv-x="239" d="M119 -13Q109 -13 102 -6T94 11V689Q94 700 101 707T119 715Q130 715 137 708T144 689V11Q144 1 137 -6T119 -13Z" />
<glyph unicode="J" glyph-name="J" horiz-adv-x="472" d="M217 -13Q137 -13 88 36T38 167Q38 177 45 184T62 191Q73 191 80 184T88 167Q88 109 123 73T217 37Q276 37 311 73T347 167V689Q347 700 354 707T372 715Q383 715 390 708T397 689V167Q397 86 348 37T217 -13Z" />
<glyph unicode="K" glyph-name="K" horiz-adv-x="589" d="M100 -13Q90 -13 83 -6T75 11V689Q75 700 82 707T100 715Q111 715 118 708T125 689V318L487 705Q494 713 504 713T521 706Q529 699 529 689T522 671L288 419L542 25Q548 17 546 7T535 -9Q526 -15 516 -13T500
-2L253 381L125 244V11Q125 1 118 -6T100 -13Z" />
<glyph unicode="L" glyph-name="L" horiz-adv-x="514" d="M100 0Q90 0 83 7T75 25V689Q75 700 82 707T100 715Q111 715 118 708T125 689V50H451Q462 50 469 43T476 25Q476 15 469 8T451 0H100Z" />
<glyph unicode="M" glyph-name="M" horiz-adv-x="723" d="M100 -13Q90 -13 83 -6T75 11V690Q75 708 94 715Q112 720 122 703L361 285L601 703Q605 711 613 714T629 715Q648 708 648 690V11Q648 1 641 -6T622 -13Q612 -13 605 -6T598 11V597L383 223Q377 210 361
210Q347 210 339 223L125 597V11Q125 1 118 -6T100 -13Z" />
<glyph unicode="N" glyph-name="N" horiz-adv-x="631" d="M100 -13Q90 -13 83 -6T75 11V690Q75 709 93 714Q111 719 122 703Q215 555 281 450T391 276T460 168T495 112T505 96V690Q505 700 513 707T531 715Q541 715 548 708T555 690V11Q555 -7 538 -12Q520 -17
509 -2Q416 146 350 251T240 425T171 533T136 589T125 605V11Q125 1 118 -6T100 -13Z" />
<glyph unicode="O" glyph-name="O" horiz-adv-x="628" d="M314 -13Q239 -13 184 18T97 105T66 235V467Q66 542 97 597T183 684T314 715Q389 715 444 684T531 598T562 467V235Q562 161 531 105T445 18T314 -13ZM314 37Q374 37 418 61T487 131T512 235V467Q512 527
488 571T419 640T314 665Q254 665 210 641T141 572T116 467V235Q116 176 140 131T209 62T314 37Z" />
<glyph unicode="P" glyph-name="P" horiz-adv-x="578" d="M100 -14Q90 -14 83 -7T75 10V675Q75 685 82 692T100 700H339Q395 700 440 673T513 600T540 499Q540 444 513 398T441 325T339 297H125V10Q125 0 118 -7T100 -14ZM125 347H339Q381 347 415 367T469 422T490
499Q490 541 470 575T415 629T339 650H125V347Z" />
<glyph unicode="Q" glyph-name="Q" horiz-adv-x="628" d="M314 -13Q245 -13 189 20T100 110T66 235V467Q66 536 99 592T189 681T314 715Q383 715 439 682T528 592T562 467V235Q562 214 558 193T547 151Q543 141 534 137T515 136Q505 140 501 149T500 168Q504 177
508 195T512 235V467Q512 521 485 566T413 638T314 665Q260 665 215 638T143 566T116 467V235Q116 180 143 135T215 64T314 37Q343 37 367 43T413 62Q421 68 431 66T447 55Q453 45 451 35T439 20Q386 -13 314 -13ZM563 -7L362 168Q355 174 354 184T359 203Q367
211 377 211T394 206L596 31Q604 24 604 14T598 -5Q591 -12 581 -13T563 -7Z" />
<glyph unicode="R" glyph-name="R" horiz-adv-x="604" d="M100 -14Q90 -14 83 -7T75 10V675Q75 685 82 692T100 700H346Q402 700 447 673T520 600T548 499Q548 452 528 411T472 342T392 303L547 22Q552 12 549 3T538 -12Q528 -17 519 -14T504 -2L339 297H193Q183
297 176 304T168 322Q168 333 175 340T193 347H346Q388 347 422 367T477 422T498 499Q498 541 478 575T423 629T346 650H125V10Q125 0 118 -7T100 -14Z" />
<glyph unicode="S" glyph-name="S" horiz-adv-x="587" d="M299 -13Q227 -13 163 12T57 82Q37 99 58 117Q76 133 92 116Q127 79 182 58T299 37Q385 37 433 72T481 169Q481 234 431 273T275 328Q172 345 123 393T74 527Q74 616 131 665T289 715Q341 715 397 695T501
640Q520 624 505 605Q490 585 471 600Q430 631 382 648T289 665Q211 665 168 629T124 527Q124 463 162 427T283 377Q411 358 471 308T531 169Q531 84 470 36T299 -13Z" />
<glyph unicode="T" glyph-name="T" horiz-adv-x="608" d="M305 -14Q294 -14 287 -7T279 10V650H62Q52 650 45 657T38 675Q38 685 45 692T62 700H546Q556 700 563 693T571 675Q571 665 564 658T546 650H329V10Q329 0 322 -7T305 -14Z" />
<glyph unicode="U" glyph-name="U" horiz-adv-x="605" d="M303 -13Q232 -13 179 16T96 99T66 223V688Q66 699 73 706T91 713Q102 713 109 706T116 688V223Q116 139 167 88T303 37Q387 37 438 88T489 223V688Q489 699 496 706T514 713Q525 713 532 706T539 688V223Q539
152 510 99T427 17T303 -13Z" />
<glyph unicode="V" glyph-name="V" horiz-adv-x="620" d="M309 -13Q292 -13 286 3L40 682Q36 692 40 701T54 714Q64 718 73 714T86 699L309 85L533 699Q537 709 546 713T565 714Q575 710 579 701T580 682L333 3Q327 -13 309 -13Z" />
<glyph unicode="W" glyph-name="W" horiz-adv-x="846" d="M222 -13Q204 -11 199 6L39 684Q36 694 41 702T57 714Q68 716 76 711T87 695L229 95L400 532Q406 548 423 548Q441 548 447 532L618 95L759 696Q761 706 770 711T789 714Q799 712 804 704T807 684L647
6Q644 -11 625 -13Q606 -15 600 3L423 455L247 3Q241 -15 222 -13Z" />
<glyph unicode="X" glyph-name="X" horiz-adv-x="614" d="M54 -9Q45 -4 44 6T47 25L277 363L64 676Q59 684 60 694T71 711Q79 717 89 715T106 704L307 407L508 704Q515 713 525 715T543 711Q551 705 553 695T550 676L338 363L567 25Q573 16 571 6T560 -9Q552 -16
542 -14T526 -3L307 319L89 -3Q83 -12 73 -14T54 -9Z" />
<glyph unicode="Y" glyph-name="Y" horiz-adv-x="593" d="M298 -13Q288 -13 281 -6T273 11V300L38 676Q32 685 34 695T45 711Q55 716 65 714T80 703L298 355L513 703Q519 712 529 714T548 711Q556 705 558 695T555 676L323 300V11Q323 1 316 -6T298 -13Z" />
<glyph unicode="Z" glyph-name="Z" horiz-adv-x="526" d="M72 0Q58 0 51 13Q47 18 47 25Q47 33 51 38Q147 202 212 312T316 489T376 591T404 638T411 650H98Q88 650 81 657T74 675Q74 685 81 692T98 700H455Q470 700 476 687Q479 683 479 675Q479 670 476 662Q380
498 315 388T211 211T151 109T123 62T116 50H446Q457 50 464 43T471 25Q471 15 464 8T446 0H72Z" />
<glyph unicode="[" glyph-name="bracketleft" horiz-adv-x="406" d="M118 -100Q108 -100 101 -93T94 -76V721Q94 732 101 738T118 745H326Q336 745 343 739T350 721Q350 711 343 705T326 698H141V-53H326Q336 -53 343 -59T350 -76Q350 -86 343 -93T326 -100H118Z" />
<glyph unicode="\" glyph-name="backslash" horiz-adv-x="631" d="M317 -13Q307 -13 300 -6T292 11V142H128Q118 142 111 150T104 168Q104 178 111 185T128 192H292V278H128Q118 278 111 285T104 303Q104 314 111 321T128 328H274L57 676Q51 685 53 695T64 711Q73
716 83 714T99 703L317 355L532 703Q537 712 547 714T567 711Q575 705 577 695T574 676L359 328H509Q519 328 526 321T534 303Q534 293 527 286T509 278H342V192H509Q519 192 526 185T534 168Q534 158 527 150T509 142H342V11Q342 1 335 -6T317 -13Z" />
<glyph unicode="]" glyph-name="bracketright" horiz-adv-x="406" d="M80 -100Q70 -100 64 -93T57 -76Q57 -66 63 -60T80 -53H265V698H80Q70 698 64 704T57 721Q57 732 63 738T80 745H289Q299 745 305 739T312 721V-76Q312 -86 306 -93T289 -100H80Z" />
<glyph unicode="^" glyph-name="asciicircum" horiz-adv-x="432" d="M64 464Q56 469 54 479T57 497L196 723Q203 735 216 735Q228 735 237 723L375 497Q380 489 378 479T368 464Q359 459 350 461T335 472L216 665L97 472Q93 463 83 461T64 464Z" />
<glyph unicode="_" glyph-name="underscore" horiz-adv-x="554" d="M80 -101Q70 -101 64 -94T57 -77Q57 -67 63 -61T80 -54H473Q484 -54 490 -60T497 -77Q497 -87 491 -94T473 -101H80Z" />
<glyph unicode="`" glyph-name="grave" horiz-adv-x="419" d="M210 487Q190 487 176 501T161 536Q161 556 175 571T210 586Q231 586 245 571T259 536Q259 516 245 502T210 487Z" />
<glyph unicode="a" glyph-name="a" horiz-adv-x="448" d="M367 -14Q357 -14 350 -8T343 9V17L220 -7Q174 -16 142 -12T88 8Q72 21 63 40T51 85Q45 143 76 180T174 229L343 258V286Q343 306 337 328T310 362Q294 372 269 372Q207 372 116 316Q107 311 98 313T84
324Q78 333 80 342T91 356Q150 392 194 405T269 419Q290 419 305 415T332 404Q361 388 376 358T391 286V9Q391 -1 385 -7T367 -14ZM212 41L343 65V210L183 183Q142 176 124 160T101 126T98 90Q101 59 117 47Q141 29 212 41Z" />
<glyph unicode="b" glyph-name="b" horiz-adv-x="485" d="M99 -14Q89 -14 82 -8T75 9V710Q75 720 82 727T99 735Q109 735 116 728T123 710V356Q146 385 179 403T256 421Q340 421 389 363T438 204Q438 104 389 46T256 -13Q212 -13 179 4T123 51V9Q123 -1 116 -7T99
-14ZM256 35Q320 35 355 79T390 204Q390 284 355 328T256 372Q191 372 158 328T124 204Q124 123 157 79T256 35Z" />
<glyph unicode="c" glyph-name="c" horiz-adv-x="400" d="M230 -13Q145 -13 96 45T47 204Q47 305 96 363T230 421Q313 421 362 364Q369 357 369 347T360 330Q353 324 343 324T326 332Q292 372 230 372Q166 372 130 328T94 204Q94 123 130 79T230 35Q293 35 326
74Q333 82 343 83T360 77Q368 71 368 61T362 43Q312 -13 230 -13Z" />
<glyph unicode="d" glyph-name="d" horiz-adv-x="484" d="M385 -14Q375 -14 369 -8T362 9V51Q339 22 306 5T230 -13Q145 -13 96 45T47 204Q47 305 96 363T230 421Q273 421 306 403T362 356V707Q362 717 368 724T385 731Q395 731 402 724T409 707V9Q409 -1 402
-7T385 -14ZM230 35Q294 35 328 79T362 204Q362 284 328 328T230 372Q166 372 130 328T94 204Q94 123 130 79T230 35Z" />
<glyph unicode="e" glyph-name="e" horiz-adv-x="465" d="M230 -13Q145 -13 96 45T47 204Q47 305 96 363T230 421Q304 421 354 370T409 232V229Q409 220 402 213Q396 206 385 206H95Q95 129 127 82T230 35Q266 35 297 50T346 91Q352 99 361 101T379 97Q387 92
389 82T385 64Q361 29 320 8T230 -13ZM98 253H357Q347 310 314 341T230 372Q176 372 143 341T98 253Z" />
<glyph unicode="f" glyph-name="f" horiz-adv-x="369" d="M140 -14Q130 -14 123 -8T116 9V358H44Q34 358 27 365T20 382Q20 392 27 399T44 406H116V553Q116 700 265 700H324Q334 700 340 693T347 676Q347 666 341 659T324 652H265Q212 652 188 629T163 553V406H325Q335
406 342 399T349 382Q349 373 342 366T325 358H163V9Q163 -1 157 -7T140 -14Z" />
<glyph unicode="g" glyph-name="g" horiz-adv-x="450" d="M236 -222Q183 -222 145 -194T90 -113Q87 -104 91 -96T105 -84Q115 -80 123 -85T135 -99Q158 -174 236 -174Q287 -174 316 -137T346 -36V98Q302 51 222 51Q141 51 94 101T47 236Q47 321 94 370T222 420Q303
420 346 372V397Q346 407 353 414T370 422Q380 422 386 415T393 397V-36Q393 -118 350 -170T236 -222ZM222 98Q281 98 314 132T347 236Q347 304 314 338T222 372Q161 372 128 337T94 236Q94 170 127 134T222 98Z" />
<glyph unicode="h" glyph-name="h" horiz-adv-x="452" d="M99 -14Q89 -14 82 -8T75 9V708Q75 718 82 725T99 732Q109 732 116 725T123 708V366Q146 392 178 406T247 421Q316 421 355 376T395 253V10Q395 0 389 -6T372 -13Q362 -13 355 -7T348 10V253Q348 276 341
304T313 352T247 373Q195 373 159 341T123 250V9Q123 -1 116 -7T99 -14Z" />
<glyph unicode="i" glyph-name="i" horiz-adv-x="282" d="M182 -14Q172 -14 166 -8T159 9V358H44Q34 358 27 365T20 383Q20 393 27 399T44 406H182Q193 406 200 400T207 383V9Q207 -1 200 -7T182 -14ZM170 587Q156 587 147 595T138 613V675Q138 685 147 693T170
702Q184 702 192 694T201 675V613Q201 603 193 595T170 587Z" />
<glyph unicode="j" glyph-name="j" horiz-adv-x="297" d="M58 -220Q49 -223 41 -218T29 -204Q28 -202 28 -197Q28 -189 33 -183T45 -175Q174 -138 174 37V358H59Q49 358 43 365T36 383Q36 393 42 399T59 406H198Q208 406 215 400T222 383V37Q222 -66 180 -131T58
-220ZM185 587Q172 587 163 595T154 613V675Q154 685 163 693T185 702Q199 702 208 694T217 675V613Q217 603 208 595T185 587Z" />
<glyph unicode="k" glyph-name="k" horiz-adv-x="433" d="M99 -13Q89 -13 82 -7T75 10V708Q75 718 82 725T99 732Q109 732 116 725T123 708V229L349 415Q357 421 366 420T383 411Q388 404 388 395T379 378L225 252L395 25Q402 18 400 8T390 -8Q383 -14 373 -13T357
-4L189 222L123 168V10Q123 0 116 -6T99 -13Z" />
<glyph unicode="l" glyph-name="l" horiz-adv-x="287" d="M164 -8Q124 -8 100 15T75 78V707Q75 717 82 724T99 731Q109 731 116 724T123 707V78Q123 74 124 65T135 48T164 40H243Q253 40 260 33T267 16Q267 6 260 -1T243 -8H164Z" />
<glyph unicode="m" glyph-name="m" horiz-adv-x="664" d="M80 -14Q70 -14 64 -7T57 9V396Q57 405 63 412T80 420Q90 420 97 413T104 396V369Q126 392 155 406T217 420Q258 420 289 401T337 346Q358 379 392 399T468 420Q532 420 569 374T607 251V10Q607 1 601
-6T584 -13Q574 -13 567 -6T560 10V251Q560 265 557 285T545 325T518 358T468 372Q419 372 388 338T357 251V10Q357 1 351 -6T334 -13Q324 -13 317 -6T309 10V249Q309 281 300 309T270 354T217 372Q172 372 138 345T104 273V9Q104 0 97 -7T80 -14Z" />
<glyph unicode="n" glyph-name="n" horiz-adv-x="433" d="M80 -13Q70 -13 64 -7T57 10V398Q57 408 63 415T80 422Q90 422 97 415T104 398V365Q127 391 159 406T228 421Q297 421 336 376T376 252V12Q376 2 370 -5T353 -12Q343 -12 336 -5T329 12V252Q329 275 322
303T294 351T228 372Q170 372 137 340T104 249V10Q104 0 97 -6T80 -13Z" />
<glyph unicode="o" glyph-name="o" horiz-adv-x="460" d="M230 -13Q145 -13 96 45T47 204Q47 305 96 363T230 421Q314 421 363 363T413 204Q413 104 364 46T230 -13ZM230 35Q295 35 330 79T365 204Q365 284 330 328T230 372Q166 372 130 328T94 204Q94 123 130
79T230 35Z" />
<glyph unicode="p" glyph-name="p" horiz-adv-x="461" d="M80 -223Q70 -223 64 -216T57 -199V397Q57 407 63 414T80 421Q90 421 97 414T104 397V360Q126 388 157 404T231 421Q316 421 365 363T414 204Q414 104 365 46T231 -13Q189 -13 158 3T104 47V-199Q104 -209
97 -216T80 -223ZM231 35Q296 35 331 79T367 204Q367 284 332 328T231 372Q103 372 103 204Q103 35 231 35Z" />
<glyph unicode="q" glyph-name="q" horiz-adv-x="461" d="M381 -223Q371 -223 364 -216T357 -199V47Q335 19 304 3T230 -13Q145 -13 96 45T47 204Q47 305 96 363T230 421Q272 421 303 405T357 360V397Q357 407 364 414T381 421Q391 421 398 414T405 397V-199Q405
-209 398 -216T381 -223ZM230 35Q359 35 359 204Q359 372 230 372Q166 372 130 328T94 204Q94 123 130 79T230 35Z" />
<glyph unicode="r" glyph-name="r" horiz-adv-x="411" d="M81 -13Q71 -13 64 -6T57 10V396Q57 406 64 413T81 420Q91 420 97 413T104 396V371Q119 389 146 402T198 420Q233 425 269 415T333 379T373 313Q376 304 371 296T357 284Q347 282 339 287T328 301Q320
330 300 347T255 370T205 372Q162 367 133 340T104 254V10Q104 1 98 -6T81 -13Z" />
<glyph unicode="s" glyph-name="s" horiz-adv-x="421" d="M209 -13Q152 -13 109 12T47 79Q43 88 47 97T60 110Q69 114 78 110T91 97Q104 68 135 52T209 35Q252 35 276 43T310 64T323 89T326 109Q326 124 319 138T289 164T218 187Q184 194 148 207T86 243T61 305Q62
356 104 388T213 421Q263 421 303 400T363 341Q368 333 365 324T354 309Q344 305 335 307T322 319Q311 339 284 355T213 372Q188 372 164 366T125 345T108 304Q108 298 113 286T143 259T227 233Q262 226 295 213T351 175T373 109Q373 92 367 71T344 31T295 0T209
-13Z" />
<glyph unicode="t" glyph-name="t" horiz-adv-x="371" d="M227 -8Q186 -8 163 15T139 78V359H43Q33 359 27 366T20 383Q20 393 26 399T43 406H139V553Q139 563 145 570T162 577Q172 577 179 570T186 553V406H310Q320 406 327 400T334 383Q334 373 327 366T310
359H186V78Q186 74 187 65T198 48T227 40H305Q316 40 323 33T330 16Q330 6 323 -1T305 -8H227Z" />
<glyph unicode="u" glyph-name="u" horiz-adv-x="433" d="M205 -13Q136 -13 97 32T57 156V395Q57 405 63 412T80 419Q90 419 97 412T104 395V156Q104 133 111 105T139 55T205 34Q264 34 296 66T329 158V396Q329 406 336 413T353 421Q363 421 369 414T376 396V10Q376
0 370 -6T353 -13Q343 -13 336 -7T329 10V41Q306 16 275 2T205 -13Z" />
<glyph unicode="v" glyph-name="v" horiz-adv-x="431" d="M215 -13Q199 -13 193 2L38 387Q34 396 38 405T51 418Q60 421 69 418T82 405L215 74L350 405Q354 415 363 418T381 419Q389 415 393 406T393 388L238 2Q232 -13 215 -13Z" />
<glyph unicode="w" glyph-name="w" horiz-adv-x="531" d="M133 -13Q115 -11 112 6L38 393Q37 403 42 411T57 422Q67 423 75 418T85 403L145 88L244 303Q251 317 266 317Q281 317 288 303L387 88L446 401Q448 411 456 416T474 420Q484 419 489 411T493 392L419
6Q416 -11 399 -13Q381 -15 374 1L266 236L157 1Q150 -15 133 -13Z" />
<glyph unicode="x" glyph-name="x" horiz-adv-x="438" d="M41 -8Q34 -2 33 8T38 25L189 220L63 382Q57 390 58 399T67 416Q75 421 84 420T100 411L219 258L338 411Q344 419 353 420T371 415Q379 409 380 400T375 382L249 220L401 25Q406 18 405 8T396 -8Q389 -14
379 -13T363 -4L219 181L75 -4Q69 -11 59 -12T41 -8Z" />
<glyph unicode="y" glyph-name="y" horiz-adv-x="439" d="M135 -222Q125 -218 121 -209T121 -191L195 -3L38 388Q34 397 38 406T51 419Q60 422 69 419T82 405L221 61L357 405Q361 415 369 418T388 419Q397 415 401 406T401 388L165 -209Q161 -218 153 -221T135 -222Z" />
<glyph unicode="z" glyph-name="z" horiz-adv-x="436" d="M71 0Q57 0 49 13Q48 16 48 18T47 24Q47 32 53 39Q133 137 184 199T264 297T304 345T315 359H89Q79 359 72 366T65 383Q65 393 72 399T89 406H365Q381 406 387 393Q389 389 389 383Q389 373 384 368Q304
271 253 209T173 111T133 61T121 47H356Q367 47 373 41T380 24Q380 14 374 7T356 0H71Z" />
<glyph unicode="{" glyph-name="braceleft" horiz-adv-x="390" d="M291 -113Q236 -113 207 -93T168 -44T157 15Q157 38 160 66T168 122Q172 148 175 175T178 223Q178 243 172 260T148 288T90 299Q80 299 73 306T66 323Q66 333 73 339T90 346Q129 346 147 356T172
384T178 422Q178 443 175 470T168 524Q164 552 161 580T157 630Q157 659 167 688T207 738T291 758Q302 758 308 752T315 735Q315 725 309 718T291 711Q245 711 225 692T205 630Q205 610 208 584T215 531Q220 502 223 474T226 422Q226 396 217 369T182 323Q208 304
217 277T226 223Q226 199 223 171T215 114Q211 88 208 62T205 15Q205 -28 225 -47T291 -66Q302 -66 308 -72T315 -90Q315 -100 309 -106T291 -113Z" />
<glyph unicode="|" glyph-name="bar" horiz-adv-x="236" d="M118 -54Q108 -54 101 -47T94 -30V747Q94 757 101 763T118 770Q128 770 134 764T141 747V-30Q141 -40 135 -47T118 -54Z" />
<glyph unicode="}" glyph-name="braceright" horiz-adv-x="372" d="M90 -113Q80 -113 73 -107T66 -90Q66 -79 73 -73T90 -66Q137 -66 157 -47T177 15Q177 35 174 61T166 114Q162 143 159 171T155 223Q155 250 164 277T199 323Q173 341 164 368T155 422Q155 446
158 474T166 531Q171 558 174 584T177 630Q177 673 157 692T90 711Q80 711 73 718T66 735Q66 745 73 751T90 758Q146 758 174 738T213 689T224 630Q224 608 221 580T213 524Q209 497 206 470T203 422Q203 402 209 385T233 357T291 346Q302 346 308 340T315 323Q315
313 309 306T291 299Q252 299 234 289T209 261T203 223Q203 202 206 175T213 122Q218 94 221 66T224 15Q224 -14 214 -43T175 -93T90 -113Z" />
<glyph unicode="~" glyph-name="asciitilde" horiz-adv-x="626" d="M435 118Q401 118 369 136T298 186Q261 217 236 230T191 243Q166 243 148 224T118 180T102 140Q99 130 91 126T73 124Q63 126 59 135T57 153Q77 218 112 254T191 290Q225 290 258 272T328 223Q366
192 390 179T435 165Q462 165 480 184T509 229T524 269Q527 278 535 283T554 285Q564 282 568 274T570 256Q550 190 515 154T435 118Z" />
<glyph unicode="&#xa0;" glyph-name="uni00A0" horiz-adv-x="270" />
<glyph unicode="&#xa1;" glyph-name="exclamdown" horiz-adv-x="258" d="M129 527Q139 527 146 520T153 501V12Q153 2 146 -6T129 -14Q119 -14 111 -6T103 12V501Q103 512 111 519T129 527ZM129 715Q146 715 155 707T164 687V635Q164 625 155 616T129 607Q112
607 103 616T94 635V687Q94 698 103 706T129 715Z" />
<glyph unicode="&#xa2;" glyph-name="cent" horiz-adv-x="431" d="M237 -59Q227 -59 220 -53T213 -36V142Q137 149 94 206T50 357Q50 452 93 509T213 573V754Q213 765 220 771T237 778Q248 778 254 772T261 754V572Q322 565 366 518Q380 499 363 484Q356 477 346
478T330 487Q317 501 299 511T261 524V191Q281 195 299 204T330 229Q336 237 346 237T363 231Q371 225 371 215T366 198Q325 152 261 143V-36Q261 -46 255 -52T237 -59ZM213 190V525Q158 519 128 475T98 357Q98 283 128 240T213 190Z" />
<glyph unicode="&#xa3;" glyph-name="sterling" horiz-adv-x="709" d="M161 -15Q97 -15 64 13T30 75Q30 116 70 143Q111 169 178 169Q208 169 233 163T281 146Q280 181 275 225T264 316H79Q69 316 62 322T55 339Q55 350 62 357T79 364H257Q251 408 247 450T243
530Q243 619 292 667T432 715Q488 715 531 691T595 625Q611 592 607 557T579 490Q573 483 564 482T546 487Q539 492 538 502T542 520Q573 560 552 604Q538 633 506 650T432 667Q359 667 324 632Q290 598 290 530Q290 493 294 451T305 364H558Q568 364 574 357T581
339Q581 329 575 323T558 316H312Q318 266 323 220T329 135V120Q334 117 338 114T347 108Q381 86 414 70T496 53Q536 53 563 73T614 141Q619 149 628 152T646 151Q655 147 658 138T657 119Q645 95 625 69T574 25T496 6Q438 6 398 26T322 68L316 71Q307 48 289 30Q244
-15 161 -15ZM161 32Q176 32 199 36T243 54T275 96Q254 107 231 114T178 121Q135 121 112 111T81 88Q74 76 81 63Q87 52 107 42T161 32Z" />
<glyph unicode="&#xa4;" glyph-name="currency" horiz-adv-x="600" d="M282 135Q211 135 161 169L85 81Q79 74 69 73T51 77Q44 83 43 93T48 110L126 202Q79 259 79 352Q79 460 141 518L62 608Q56 616 57 625T66 642Q74 647 83 646T99 637L179 546Q224 569 282
569Q337 569 380 548L459 638Q474 655 492 642Q500 636 501 627T496 609L419 521Q484 463 484 352Q484 256 435 199L510 112Q516 105 515 95T505 79Q498 73 488 74T472 83L399 167Q351 135 282 135ZM282 183Q356 183 396 227T436 352Q436 432 396 476T282 521Q208
521 168 477T127 352Q127 271 167 227T282 183Z" />
<glyph unicode="&#xa5;" glyph-name="yen" horiz-adv-x="594" d="M298 -13Q288 -13 281 -6T274 11V142H110Q100 142 93 150T85 168Q85 178 92 185T110 192H274V278H110Q100 278 93 285T85 303Q85 314 92 321T110 328H256L38 676Q33 685 35 695T46 711Q55 716 65
714T81 703L298 355L513 703Q519 712 529 714T548 711Q557 705 559 695T556 676L341 328H491Q501 328 508 321T515 303Q515 293 508 286T491 278H324V192H491Q501 192 508 185T515 168Q515 158 508 150T491 142H324V11Q324 1 317 -6T298 -13Z" />
<glyph unicode="&#xa6;" glyph-name="brokenbar" horiz-adv-x="236" d="M118 446Q108 446 101 453T94 470V747Q94 757 101 763T118 770Q128 770 134 764T141 747V470Q141 460 135 453T118 446ZM118 -54Q108 -54 101 -47T94 -30V247Q94 257 101 263T118 270Q128
270 134 264T141 247V-30Q141 -40 135 -47T118 -54Z" />
<glyph unicode="&#xa7;" glyph-name="section" horiz-adv-x="943" d="M472 -58Q432 -58 399 -46T344 -9Q298 41 320 105Q323 114 332 118T350 120Q359 116 363 108T365 90Q351 52 379 23Q410 -10 472 -10Q540 -10 572 16Q605 42 605 91Q605 131 564 160T458 221L455
223Q414 244 375 266T311 317T286 387Q286 446 323 483Q333 491 343 498T367 510Q336 532 316 560T295 626Q295 700 346 737Q392 774 475 774Q558 774 604 726Q649 677 628 612Q624 603 616 599T598 597Q589 601 585 609T583 627Q595 665 569 694Q538 727 475 727Q409
727 375 701Q342 674 342 626Q342 586 383 557T489 496L493 494Q535 474 573 451T637 399T662 330Q662 269 624 234Q615 226 605 219T581 207Q612 185 632 157T653 91Q653 18 602 -21Q554 -58 472 -58ZM526 240Q547 243 563 251T591 269Q615 292 615 330Q615 356
595 376T542 415T472 452L468 454Q457 459 446 465T422 477V476Q400 473 384 466T356 448Q333 426 333 387Q333 362 353 341T406 302T475 265L480 263Q491 258 502 252T526 240Z" />
<glyph unicode="&#xa8;" glyph-name="dieresis" horiz-adv-x="419" d="M119 487Q99 487 85 501T70 536Q70 556 84 571T119 586Q140 586 154 571T168 536Q168 516 154 502T119 487ZM300 487Q279 487 265 501T251 536Q251 556 265 571T300 586Q320 586 334 571T349
536Q349 516 335 502T300 487Z" />
<glyph unicode="&#xa9;" glyph-name="copyright" horiz-adv-x="900" d="M450 -40Q369 -40 299 -10T175 74T91 198T60 350Q60 431 90 501T174 625T298 709T450 740Q531 740 601 710T725 626T809 502T840 350Q840 269 810 199T726 75T602 -9T450 -40ZM450 8Q521
8 583 34T692 108T765 217T792 350Q792 421 766 483T692 592T583 665T450 692Q379 692 317 666T208 592T135 483T108 350Q108 279 134 217T208 108T317 35T450 8ZM457 107Q401 107 355 134T281 208T254 312V387Q254 444 281 490T355 565T457 593Q504 593 546 572T618
513Q623 507 623 497T616 481Q607 476 598 477T582 485Q534 546 457 546Q414 546 379 525T322 467T300 387V312Q300 268 321 232T378 175T457 153Q534 153 582 213Q588 221 597 222T616 217Q622 212 622 202T618 185Q556 107 457 107Z" />
<glyph unicode="&#xaa;" glyph-name="ordfeminine" horiz-adv-x="448" d="M367 279Q357 279 350 285T343 302V310L220 286Q174 277 142 281T88 301Q72 314 63 333T51 378Q45 436 76 473T174 522L343 551V579Q343 599 337 621T310 655Q294 665 269 665Q207 665
116 609Q107 604 98 606T84 617Q78 626 80 635T91 649Q150 685 194 698T269 712Q290 712 305 708T332 697Q361 681 376 651T391 579V302Q391 292 385 286T367 279ZM212 334L343 358V503L183 476Q142 469 124 453T101 419T98 383Q101 352 117 340Q141 322 212 334ZM80
150Q70 150 64 157T57 174Q57 184 63 191T80 198H384Q394 198 401 191T408 174Q408 164 401 157T384 150H80Z" />
<glyph unicode="&#xab;" glyph-name="guillemotleft" horiz-adv-x="536" d="M265 -11Q258 -16 249 -15T232 -6L55 196Q43 210 55 224L232 426Q239 434 248 435T265 430Q273 424 275 414T271 396L104 210L271 24Q276 16 275 6T265 -11ZM465 -11Q458 -16 449 -15T432
-6L255 196Q243 210 255 224L432 426Q439 434 448 435T465 430Q473 424 475 414T471 396L304 210L471 24Q476 16 475 6T465 -11Z" />
<glyph unicode="&#xac;" glyph-name="logicalnot" horiz-adv-x="943" d="M775 198Q765 198 759 205T752 222V444H149Q139 444 132 451T125 468Q125 478 132 484T149 491H758Q799 491 799 451V222Q799 212 792 205T775 198Z" />
<glyph unicode="&#xad;" glyph-name="uni00AD" horiz-adv-x="394" d="M80 180Q70 180 64 187T57 204Q57 214 63 221T80 228H314Q324 228 331 221T338 204Q338 194 331 187T314 180H80Z" />
<glyph unicode="&#xae;" glyph-name="registered" horiz-adv-x="720" d="M360 140Q298 140 244 163T148 228T84 323T60 440Q60 502 83 556T148 652T243 716T360 740Q422 740 476 717T572 652T636 557T660 440Q660 378 637 324T572 228T477 164T360 140ZM360 188Q430
188 487 222T578 313T612 440Q612 510 578 567T487 658T360 692Q291 692 234 658T142 567T108 440Q108 371 142 314T233 222T360 188ZM273 261Q263 261 256 267T249 284V599Q249 609 256 616T273 623H389Q433 623 465 592T497 516Q497 482 478 455T429 416L494
296Q499 288 497 278T486 263Q476 259 467 262T453 273L379 408H347Q337 408 330 415T323 432Q323 442 330 449T347 456H389Q414 456 431 473T449 516Q449 541 432 558T389 575H297V284Q297 274 290 268T273 261Z" />
<glyph unicode="&#xaf;" glyph-name="overscore" horiz-adv-x="398" d="M264 507Q246 507 228 516T185 546Q164 563 153 569T134 575Q123 575 113 562T95 526Q92 517 84 513T67 510Q58 513 54 522T51 539Q63 577 84 598T134 620Q151 620 169 611T213 581Q248 553
264 553Q276 553 286 566T304 602Q307 610 315 614T332 616Q352 609 347 588Q335 550 314 529T264 507Z" />
<glyph unicode="&#xb0;" glyph-name="degree" horiz-adv-x="350" d="M175 560Q142 560 115 576T71 620T55 680Q55 714 71 741T114 784T175 800Q208 800 235 784T278 741T294 680Q294 647 278 620T235 577T175 560ZM175 605Q206 605 227 627T249 680Q249 712 228
733T175 754Q144 754 122 733T99 680Q99 649 121 627T175 605Z" />
<glyph unicode="&#xb1;" glyph-name="plusminus" horiz-adv-x="943" d="M472 113Q462 113 455 120T448 138V375H160Q150 375 143 382T136 399Q136 409 143 415T160 422H448V660Q448 670 455 677T472 684Q482 684 489 677T496 660V422H784Q794 422 800 416T807
399Q807 389 801 382T784 375H496V138Q496 128 489 121T472 113ZM160 33Q150 33 143 40T136 57Q136 67 143 73T160 80H784Q794 80 800 74T807 57Q807 47 801 40T784 33H160Z" />
<glyph unicode="&#xb2;" glyph-name="uni00B2" horiz-adv-x="360" d="M71 223Q61 223 54 230T47 247Q47 306 81 361T170 451Q271 512 271 587Q271 621 249 641T189 662Q119 662 96 600Q92 591 83 588T66 588Q57 591 53 600T52 618Q70 661 106 685T189 709Q245
709 281 675T318 587Q318 485 195 411Q156 386 130 348T96 270H299Q309 270 315 264T322 247Q322 237 316 230T299 223H71Z" />
<glyph unicode="&#xb3;" glyph-name="uni00B3" horiz-adv-x="366" d="M174 214Q92 214 39 263Q22 280 38 297Q44 304 54 304T71 298Q94 278 117 270T174 261Q218 261 245 289T272 364Q272 422 237 451Q204 480 144 469Q136 468 127 473T117 492Q117 500 123 507L244
653H69Q59 653 52 660T45 676Q45 686 52 693T69 700H294Q308 700 314 687Q317 683 317 676Q317 669 313 662L191 517Q238 512 269 486Q319 442 319 364Q319 298 279 256T174 214Z" />
<glyph unicode="&#xb4;" glyph-name="acute" horiz-adv-x="323" d="M235 493L60 621Q52 627 51 636T54 654Q61 662 70 663T88 659L263 532Q281 517 269 498Q263 490 253 489T235 493Z" />
<glyph unicode="&#xb5;" glyph-name="uni00B5" horiz-adv-x="477" d="M-33 -167Q-43 -164 -47 -156T-49 -137L116 403Q119 412 127 416T146 419Q156 415 160 407T162 389L96 174Q78 116 91 82T136 37Q159 30 185 39T235 73T271 135Q276 150 285 181T306 249T327
321T344 378T351 402Q353 412 361 416T380 418Q390 416 394 408T396 389Q395 386 389 363T372 305T351 233T331 166T316 120L315 119Q309 87 313 65T334 36Q348 30 368 39T403 72Q408 80 417 82T435 80Q443 76 446 66T444 47Q421 10 385 -5T315 -8Q308 -4 294 9T272
46Q241 11 200 -4T123 -8Q104 -3 87 11T58 50L-3 -151Q-6 -160 -14 -165T-33 -167Z" />
<glyph unicode="&#xb6;" glyph-name="paragraph" horiz-adv-x="943" d="M450 -72Q436 -72 427 -62T417 -39V382Q317 387 260 442T202 582Q202 641 229 686T307 756T427 782H694Q706 782 714 774T722 753Q722 742 714 734T694 725H651V-39Q651 -52 642 -62T618
-72Q604 -72 595 -62T585 -39V725H482V-39Q482 -52 473 -62T450 -72Z" />
<glyph unicode="&#xb7;" glyph-name="middot" horiz-adv-x="260" d="M130 295Q105 295 90 313T75 357Q75 383 90 401T130 420Q156 420 170 402T185 357Q185 332 171 314T130 295Z" />
<glyph unicode="&#xb8;" glyph-name="cedilla" horiz-adv-x="600" d="M182 -220Q172 -220 166 -214T159 -197Q159 -187 165 -181T182 -174Q241 -174 274 -160T308 -127Q308 -113 283 -102T218 -90Q192 -90 196 -66L209 15Q211 23 217 29T232 35Q243 35 250 27T255
8L246 -45Q294 -50 324 -72T354 -127Q354 -170 309 -195T182 -220Z" />
<glyph unicode="&#xb9;" glyph-name="uni00B9" horiz-adv-x="359" d="M92 223Q82 223 75 230T68 247Q68 257 75 263T92 270H161V651L89 624Q68 619 59 638L58 639Q56 650 60 658T73 669L176 708Q187 711 199 705Q208 696 208 685V270H275Q285 270 292 264T299
247Q299 237 292 230T275 223H92Z" />
<glyph unicode="&#xba;" glyph-name="ordmasculine" horiz-adv-x="460" d="M230 280Q145 280 96 338T47 497Q47 598 96 656T230 714Q314 714 363 656T413 497Q413 397 364 339T230 280ZM230 328Q295 328 330 372T365 497Q365 577 330 621T230 665Q166 665 130
621T94 497Q94 416 130 372T230 328ZM80 150Q70 150 64 157T57 174Q57 184 63 191T80 198H384Q394 198 401 191T408 174Q408 164 401 157T384 150H80Z" />
<glyph unicode="&#xbb;" glyph-name="guillemotright" horiz-adv-x="536" d="M71 -11Q63 -4 62 6T65 24L232 210L65 396Q59 403 61 413T71 430Q79 436 88 435T104 426L281 224Q293 210 281 196L104 -6Q97 -13 88 -14T71 -11ZM271 -11Q263 -4 262 6T265 24L432
210L265 396Q259 403 261 413T271 430Q279 436 288 435T304 426L481 224Q493 210 481 196L304 -6Q297 -13 288 -14T271 -11Z" />
<glyph unicode="&#xbc;" glyph-name="onequarter" horiz-adv-x="964" d="M92 223Q82 223 75 230T68 247Q68 257 75 263T92 270H161V651L89 624Q68 619 59 638L58 639Q56 650 60 658T73 669L176 708Q187 711 199 705Q208 696 208 685V270H275Q285 270 292 264T299
247Q299 237 292 230T275 223H92ZM240 -28Q232 -23 230 -13T233 5L731 725Q737 734 746 736T764 732Q772 726 774 717T770 699L273 -22Q267 -30 258 -32T240 -28ZM848 -9Q838 -9 831 -2T824 14V112H642Q630 112 622 124Q614 137 623 148L828 475Q833 483 843 485T860
482Q871 474 871 462Q871 458 870 455T867 449L685 159H824V242Q824 252 831 258T848 265Q858 265 864 259T871 242V159H931Q941 159 947 153T954 136Q954 126 948 119T931 112H871V14Q871 5 864 -2T848 -9Z" />
<glyph unicode="&#xbd;" glyph-name="onehalf" horiz-adv-x="964" d="M92 223Q82 223 75 230T68 247Q68 257 75 263T92 270H161V651L89 624Q68 619 59 638L58 639Q56 650 60 658T73 669L176 708Q187 711 199 705Q208 696 208 685V270H275Q285 270 292 264T299
247Q299 237 292 230T275 223H92ZM240 -28Q232 -23 230 -13T233 5L731 725Q737 734 746 736T764 732Q772 726 774 717T770 699L273 -22Q267 -30 258 -32T240 -28ZM675 0Q665 0 658 7T651 24Q651 83 685 138T774 228Q875 289 875 364Q875 398 853 418T793 439Q723
439 700 377Q696 368 687 365T670 365Q661 368 657 377T656 395Q674 438 710 462T793 486Q849 486 885 452T922 364Q922 262 799 188Q760 163 734 125T700 47H903Q913 47 919 41T926 24Q926 14 920 7T903 0H675Z" />
<glyph unicode="&#xbe;" glyph-name="threequarters" horiz-adv-x="964" d="M174 214Q92 214 39 263Q22 280 38 297Q44 304 54 304T71 298Q94 278 117 270T174 261Q218 261 245 289T272 364Q272 422 237 451Q204 480 144 469Q136 468 127 473T117 492Q117 500
123 507L244 653H69Q59 653 52 660T45 676Q45 686 52 693T69 700H294Q308 700 314 687Q317 683 317 676Q317 669 313 662L191 517Q238 512 269 486Q319 442 319 364Q319 298 279 256T174 214ZM247 -28Q239 -23 237 -13T240 5L738 725Q744 734 753 736T771 732Q779
726 781 717T777 699L280 -22Q274 -30 265 -32T247 -28ZM848 -9Q838 -9 831 -2T824 14V112H642Q630 112 622 124Q614 137 623 148L828 475Q833 483 843 485T860 482Q871 474 871 462Q871 458 870 455T867 449L685 159H824V242Q824 252 831 258T848 265Q858 265
864 259T871 242V159H931Q941 159 947 153T954 136Q954 126 948 119T931 112H871V14Q871 5 864 -2T848 -9Z" />
<glyph unicode="&#xbf;" glyph-name="questiondown" horiz-adv-x="516" d="M172 520Q226 520 265 497T315 434Q318 423 319 403T311 357T275 299T199 235Q133 192 115 151T107 83Q115 58 141 46T202 37Q324 51 414 187Q419 195 429 197T448 195Q457 189 459 179T455
160Q405 81 343 38T207 -13Q155 -17 115 4T59 66Q41 117 70 173T172 277Q236 319 255 357T268 420Q261 443 236 456T172 470Q161 470 154 477T146 495Q146 506 153 513T172 520ZM230 716Q247 716 256 708T265 688V636Q265 626 256 617T230 608Q213 608 204 617T194
636V688Q194 699 203 707T230 716Z" />
<glyph unicode="&#xc0;" glyph-name="Agrave" horiz-adv-x="630" d="M54 -8Q44 -5 40 4T40 24L291 701Q298 717 315 717Q332 717 339 701L591 24Q595 14 591 5T576 -8Q567 -12 558 -8T544 7L315 620L176 249H365Q375 249 382 242T389 223Q389 213 382 206T365
199H157L86 7Q82 -3 73 -7T54 -8ZM388 787L213 915Q205 921 204 930T207 948Q214 956 223 957T241 953L416 826Q434 811 422 792Q416 784 406 783T388 787Z" />
<glyph unicode="&#xc1;" glyph-name="Aacute" horiz-adv-x="630" d="M54 -8Q44 -5 40 4T40 24L291 701Q298 717 315 717Q332 717 339 701L591 24Q595 14 591 5T576 -8Q567 -12 558 -8T544 7L315 620L176 249H365Q375 249 382 242T389 223Q389 213 382 206T365
199H157L86 7Q82 -3 73 -7T54 -8ZM241 787Q233 781 223 782T207 792Q195 811 213 826L388 953Q396 959 405 958T422 948Q427 940 426 931T416 915L241 787Z" />
<glyph unicode="&#xc2;" glyph-name="Acircumflex" horiz-adv-x="630" d="M54 -8Q44 -5 40 4T40 24L291 701Q298 717 315 717Q332 717 339 701L591 24Q595 14 591 5T576 -8Q567 -12 558 -8T544 7L315 620L176 249H365Q375 249 382 242T389 223Q389 213 382 206T365
199H157L86 7Q82 -3 73 -7T54 -8ZM198 786Q191 781 182 782T165 791Q160 799 161 808T170 824L300 923Q315 935 330 923L460 824Q468 819 469 809T464 791Q458 784 449 783T431 786L315 874L198 786Z" />
<glyph unicode="&#xc3;" glyph-name="Atilde" horiz-adv-x="630" d="M54 -8Q44 -5 40 4T40 24L291 701Q298 717 315 717Q332 717 339 701L591 24Q595 14 591 5T576 -8Q567 -12 558 -8T544 7L315 620L176 249H365Q375 249 382 242T389 223Q389 213 382 206T365
199H157L86 7Q82 -3 73 -7T54 -8ZM380 801Q362 801 344 810T301 840Q280 857 269 863T250 869Q239 869 229 856T211 820Q208 811 200 807T183 804Q174 807 170 816T167 833Q179 871 200 892T250 914Q267 914 285 905T329 875Q364 847 380 847Q392 847 402 860T420
896Q423 904 431 908T448 910Q468 903 463 882Q451 844 430 823T380 801Z" />
<glyph unicode="&#xc4;" glyph-name="Adieresis" horiz-adv-x="630" d="M54 -8Q44 -5 40 4T40 24L291 701Q298 717 315 717Q332 717 339 701L591 24Q595 14 591 5T576 -8Q567 -12 558 -8T544 7L315 620L176 249H365Q375 249 382 242T389 223Q389 213 382 206T365
199H157L86 7Q82 -3 73 -7T54 -8ZM224 781Q204 781 190 795T175 830Q175 850 189 865T224 880Q245 880 259 865T273 830Q273 810 259 796T224 781ZM405 781Q384 781 370 795T356 830Q356 850 370 865T405 880Q425 880 439 865T454 830Q454 810 440 796T405 781Z"
/>
<glyph unicode="&#xc5;" glyph-name="Aring" horiz-adv-x="630" d="M54 -8Q44 -5 40 4T40 24L291 701Q298 717 315 717Q332 717 339 701L591 24Q595 14 591 5T576 -8Q567 -12 558 -8T544 7L315 620L176 249H365Q375 249 382 242T389 223Q389 213 382 206T365 199H157L86
7Q82 -3 73 -7T54 -8ZM315 744Q272 744 242 774T212 847Q212 889 242 919T315 950Q357 950 387 920T418 847Q418 804 388 774T315 744ZM315 792Q338 792 354 808T370 847Q370 870 354 886T315 902Q293 902 277 886T260 847Q260 825 276 809T315 792Z" />
<glyph unicode="&#xc6;" glyph-name="AE" horiz-adv-x="853" d="M54 -8Q44 -5 40 4T40 24L322 675Q327 685 333 692T349 700H771Q782 700 789 693T796 675Q796 665 789 658T771 650H485V381H716Q726 381 733 374T741 356Q741 346 734 339T716 331H485V50H771Q782
50 789 43T796 25Q796 15 789 8T771 0H460Q450 0 443 7T435 25V650H365L191 249H355Q365 249 372 242T379 223Q379 213 372 206T355 199H169L86 7Q82 -3 73 -7T54 -8Z" />
<glyph unicode="&#xc7;" glyph-name="Ccedilla" horiz-adv-x="565" d="M314 -18Q197 -18 132 47T66 230V469Q66 586 131 651T314 717Q371 717 422 692T508 622Q515 614 514 604T505 587Q496 581 486 582T469 591Q441 627 400 647T314 667Q221 667 169 615T116
469V230Q116 137 168 85T314 32Q359 32 400 51T469 107Q475 115 485 116T505 111Q513 105 514 95T508 76Q473 31 422 7T314 -18ZM238 -220Q228 -220 222 -214T215 -197Q215 -187 221 -181T238 -174Q364 -174 364 -127Q364 -90 274 -90Q248 -90 252 -66L264 7Q266
15 272 21T287 27Q298 27 305 19T310 0L302 -45Q410 -57 410 -127Q410 -175 369 -197T238 -220Z" />
<glyph unicode="&#xc8;" glyph-name="Egrave" horiz-adv-x="533" d="M100 0Q90 0 83 7T75 25V675Q75 685 82 692T100 700H451Q462 700 469 693T476 675Q476 665 469 658T451 650H125V381H396Q406 381 413 374T421 356Q421 346 414 339T396 331H125V50H451Q462
50 469 43T476 25Q476 15 469 8T451 0H100ZM340 787L165 915Q157 921 156 930T159 948Q166 956 175 957T193 953L368 826Q386 811 374 792Q368 784 358 783T340 787Z" />
<glyph unicode="&#xc9;" glyph-name="Eacute" horiz-adv-x="533" d="M100 0Q90 0 83 7T75 25V675Q75 685 82 692T100 700H451Q462 700 469 693T476 675Q476 665 469 658T451 650H125V381H396Q406 381 413 374T421 356Q421 346 414 339T396 331H125V50H451Q462
50 469 43T476 25Q476 15 469 8T451 0H100ZM193 787Q185 781 175 782T159 792Q147 811 165 826L340 953Q348 959 357 958T374 948Q379 940 378 931T368 915L193 787Z" />
<glyph unicode="&#xca;" glyph-name="Ecircumflex" horiz-adv-x="533" d="M100 0Q90 0 83 7T75 25V675Q75 685 82 692T100 700H451Q462 700 469 693T476 675Q476 665 469 658T451 650H125V381H396Q406 381 413 374T421 356Q421 346 414 339T396 331H125V50H451Q462
50 469 43T476 25Q476 15 469 8T451 0H100ZM150 786Q143 781 134 782T117 791Q112 799 113 808T122 824L252 923Q267 935 282 923L412 824Q420 819 421 809T416 791Q410 784 401 783T383 786L267 874L150 786Z" />
<glyph unicode="&#xcb;" glyph-name="Edieresis" horiz-adv-x="533" d="M100 0Q90 0 83 7T75 25V675Q75 685 82 692T100 700H451Q462 700 469 693T476 675Q476 665 469 658T451 650H125V381H396Q406 381 413 374T421 356Q421 346 414 339T396 331H125V50H451Q462
50 469 43T476 25Q476 15 469 8T451 0H100ZM176 781Q156 781 142 795T127 830Q127 850 141 865T176 880Q197 880 211 865T225 830Q225 810 211 796T176 781ZM357 781Q336 781 322 795T308 830Q308 850 322 865T357 880Q377 880 391 865T406 830Q406 810 392 796T357
781Z" />
<glyph unicode="&#xcc;" glyph-name="Igrave" horiz-adv-x="239" d="M119 -13Q109 -13 102 -6T94 11V689Q94 700 101 707T119 715Q130 715 137 708T144 689V11Q144 1 137 -6T119 -13ZM193 787L18 915Q10 921 9 930T12 948Q19 956 28 957T46 953L221 826Q239 811
227 792Q221 784 211 783T193 787Z" />
<glyph unicode="&#xcd;" glyph-name="Iacute" horiz-adv-x="239" d="M119 -13Q109 -13 102 -6T94 11V689Q94 700 101 707T119 715Q130 715 137 708T144 689V11Q144 1 137 -6T119 -13ZM46 787Q38 781 28 782T12 792Q0 811 18 826L193 953Q201 959 210 958T227 948Q232
940 231 931T221 915L46 787Z" />
<glyph unicode="&#xce;" glyph-name="Icircumflex" horiz-adv-x="239" d="M119 -13Q109 -13 102 -6T94 11V689Q94 700 101 707T119 715Q130 715 137 708T144 689V11Q144 1 137 -6T119 -13ZM3 786Q-4 781 -13 782T-30 791Q-35 799 -34 808T-25 824L105 923Q120
935 135 923L265 824Q273 819 274 809T269 791Q263 784 254 783T236 786L120 874L3 786Z" />
<glyph unicode="&#xcf;" glyph-name="Idieresis" horiz-adv-x="239" d="M119 -13Q109 -13 102 -6T94 11V689Q94 700 101 707T119 715Q130 715 137 708T144 689V11Q144 1 137 -6T119 -13ZM29 781Q9 781 -5 795T-20 830Q-20 850 -6 865T29 880Q50 880 64 865T78
830Q78 810 64 796T29 781ZM210 781Q189 781 175 795T161 830Q161 850 175 865T210 880Q230 880 244 865T259 830Q259 810 245 796T210 781Z" />
<glyph unicode="&#xd0;" glyph-name="Eth" horiz-adv-x="591" d="M100 0Q90 0 83 7T75 25V246Q75 256 82 263T100 271Q111 271 118 264T125 246V50H304Q354 50 395 74T460 140T485 231V468Q485 518 461 559T395 625T304 650H125V381H286Q296 381 303 374T311 356Q311
346 304 339T286 331H25Q15 331 8 338T0 356Q0 367 7 374T25 381H75V675Q75 686 82 693T100 700H304Q368 700 420 669T503 585T535 468V231Q535 168 504 116T420 32T304 0H100Z" />
<glyph unicode="&#xd1;" glyph-name="Ntilde" horiz-adv-x="631" d="M100 -13Q90 -13 83 -6T75 11V690Q75 709 93 714Q111 719 122 703Q215 555 281 450T391 276T460 168T495 112T505 96V690Q505 700 513 707T531 715Q541 715 548 708T555 690V11Q555 -7 538 -12Q520
-17 509 -2Q416 146 350 251T240 425T171 533T136 589T125 605V11Q125 1 118 -6T100 -13ZM381 801Q363 801 345 810T302 840Q281 857 270 863T251 869Q240 869 230 856T212 820Q209 811 201 807T184 804Q175 807 171 816T168 833Q180 871 201 892T251 914Q268 914
286 905T330 875Q365 847 381 847Q393 847 403 860T421 896Q424 904 432 908T449 910Q469 903 464 882Q452 844 431 823T381 801Z" />
<glyph unicode="&#xd2;" glyph-name="Ograve" horiz-adv-x="628" d="M314 -13Q239 -13 184 18T97 105T66 235V467Q66 542 97 597T183 684T314 715Q389 715 444 684T531 598T562 467V235Q562 161 531 105T445 18T314 -13ZM314 37Q374 37 418 61T487 131T512 235V467Q512
527 488 571T419 640T314 665Q254 665 210 641T141 572T116 467V235Q116 176 140 131T209 62T314 37ZM387 787L212 915Q204 921 203 930T206 948Q213 956 222 957T240 953L415 826Q433 811 421 792Q415 784 405 783T387 787Z" />
<glyph unicode="&#xd3;" glyph-name="Oacute" horiz-adv-x="628" d="M314 -13Q239 -13 184 18T97 105T66 235V467Q66 542 97 597T183 684T314 715Q389 715 444 684T531 598T562 467V235Q562 161 531 105T445 18T314 -13ZM314 37Q374 37 418 61T487 131T512 235V467Q512
527 488 571T419 640T314 665Q254 665 210 641T141 572T116 467V235Q116 176 140 131T209 62T314 37ZM240 787Q232 781 222 782T206 792Q194 811 212 826L387 953Q395 959 404 958T421 948Q426 940 425 931T415 915L240 787Z" />
<glyph unicode="&#xd4;" glyph-name="Ocircumflex" horiz-adv-x="628" d="M314 -13Q239 -13 184 18T97 105T66 235V467Q66 542 97 597T183 684T314 715Q389 715 444 684T531 598T562 467V235Q562 161 531 105T445 18T314 -13ZM314 37Q374 37 418 61T487 131T512
235V467Q512 527 488 571T419 640T314 665Q254 665 210 641T141 572T116 467V235Q116 176 140 131T209 62T314 37ZM197 786Q190 781 181 782T164 791Q159 799 160 808T169 824L299 923Q314 935 329 923L459 824Q467 819 468 809T463 791Q457 784 448 783T430 786L314
874L197 786Z" />
<glyph unicode="&#xd5;" glyph-name="Otilde" horiz-adv-x="628" d="M314 -13Q239 -13 184 18T97 105T66 235V467Q66 542 97 597T183 684T314 715Q389 715 444 684T531 598T562 467V235Q562 161 531 105T445 18T314 -13ZM314 37Q374 37 418 61T487 131T512 235V467Q512
527 488 571T419 640T314 665Q254 665 210 641T141 572T116 467V235Q116 176 140 131T209 62T314 37ZM379 801Q361 801 343 810T300 840Q279 857 268 863T249 869Q238 869 228 856T210 820Q207 811 199 807T182 804Q173 807 169 816T166 833Q178 871 199 892T249
914Q266 914 284 905T328 875Q363 847 379 847Q391 847 401 860T419 896Q422 904 430 908T447 910Q467 903 462 882Q450 844 429 823T379 801Z" />
<glyph unicode="&#xd6;" glyph-name="Odieresis" horiz-adv-x="628" d="M314 -13Q239 -13 184 18T97 105T66 235V467Q66 542 97 597T183 684T314 715Q389 715 444 684T531 598T562 467V235Q562 161 531 105T445 18T314 -13ZM314 37Q374 37 418 61T487 131T512
235V467Q512 527 488 571T419 640T314 665Q254 665 210 641T141 572T116 467V235Q116 176 140 131T209 62T314 37ZM223 781Q203 781 189 795T174 830Q174 850 188 865T223 880Q244 880 258 865T272 830Q272 810 258 796T223 781ZM404 781Q383 781 369 795T355 830Q355
850 369 865T404 880Q424 880 438 865T453 830Q453 810 439 796T404 781Z" />
<glyph unicode="&#xd7;" glyph-name="multiply" horiz-adv-x="943" d="M185 62Q178 70 178 79T185 96L437 348L185 600Q178 607 178 617T185 634Q192 641 202 641T219 634L471 382L722 634Q730 641 739 641T756 634Q764 627 764 617T756 601L505 348L756 95Q764
89 764 80T756 62Q749 55 740 55T723 62L471 315L218 62Q211 55 202 55T185 62Z" />
<glyph unicode="&#xd8;" glyph-name="Oslash" horiz-adv-x="628" d="M78 -14Q70 -9 68 1T70 19L516 708Q521 716 532 718T550 715Q559 711 561 700T558 680L112 -8Q106 -17 96 -18T78 -14ZM113 136Q104 132 95 136T81 151Q74 171 70 192T66 235V467Q66 536 99
592T189 681T314 715Q386 715 439 682Q448 677 450 667T447 647Q441 639 431 637T413 640Q391 654 367 659T314 665Q260 665 215 639T143 567T116 467V235Q116 213 120 195T128 168Q132 158 128 149T113 136ZM314 -13Q242 -13 189 20Q180 25 178 35T181 55Q187
63 197 65T215 62Q237 49 261 43T314 37Q369 37 413 63T485 135T512 235V467Q512 490 508 507T500 534Q496 544 500 553T515 566Q524 570 533 566T547 551Q554 532 558 510T562 467V235Q562 167 529 111T439 21T314 -13Z" />
<glyph unicode="&#xd9;" glyph-name="Ugrave" horiz-adv-x="605" d="M303 -13Q232 -13 179 16T96 99T66 223V688Q66 699 73 706T91 713Q102 713 109 706T116 688V223Q116 139 167 88T303 37Q387 37 438 88T489 223V688Q489 699 496 706T514 713Q525 713 532 706T539
688V223Q539 152 510 99T427 17T303 -13ZM376 787L201 915Q193 921 192 930T195 948Q202 956 211 957T229 953L404 826Q422 811 410 792Q404 784 394 783T376 787Z" />
<glyph unicode="&#xda;" glyph-name="Uacute" horiz-adv-x="605" d="M303 -13Q232 -13 179 16T96 99T66 223V688Q66 699 73 706T91 713Q102 713 109 706T116 688V223Q116 139 167 88T303 37Q387 37 438 88T489 223V688Q489 699 496 706T514 713Q525 713 532 706T539
688V223Q539 152 510 99T427 17T303 -13ZM229 787Q221 781 211 782T195 792Q183 811 201 826L376 953Q384 959 393 958T410 948Q415 940 414 931T404 915L229 787Z" />
<glyph unicode="&#xdb;" glyph-name="Ucircumflex" horiz-adv-x="605" d="M303 -13Q232 -13 179 16T96 99T66 223V688Q66 699 73 706T91 713Q102 713 109 706T116 688V223Q116 139 167 88T303 37Q387 37 438 88T489 223V688Q489 699 496 706T514 713Q525 713 532
706T539 688V223Q539 152 510 99T427 17T303 -13ZM186 786Q179 781 170 782T153 791Q148 799 149 808T158 824L288 923Q303 935 318 923L448 824Q456 819 457 809T452 791Q446 784 437 783T419 786L303 874L186 786Z" />
<glyph unicode="&#xdc;" glyph-name="Udieresis" horiz-adv-x="605" d="M303 -13Q232 -13 179 16T96 99T66 223V688Q66 699 73 706T91 713Q102 713 109 706T116 688V223Q116 139 167 88T303 37Q387 37 438 88T489 223V688Q489 699 496 706T514 713Q525 713 532
706T539 688V223Q539 152 510 99T427 17T303 -13ZM212 781Q192 781 178 795T163 830Q163 850 177 865T212 880Q233 880 247 865T261 830Q261 810 247 796T212 781ZM393 781Q372 781 358 795T344 830Q344 850 358 865T393 880Q413 880 427 865T442 830Q442 810 428
796T393 781Z" />
<glyph unicode="&#xdd;" glyph-name="Yacute" horiz-adv-x="593" d="M298 -13Q288 -13 281 -6T273 11V300L38 676Q32 685 34 695T45 711Q55 716 65 714T80 703L298 355L513 703Q519 712 529 714T548 711Q556 705 558 695T555 676L323 300V11Q323 1 316 -6T298
-13ZM223 787Q215 781 205 782T189 792Q177 811 195 826L370 953Q378 959 387 958T404 948Q409 940 408 931T398 915L223 787Z" />
<glyph unicode="&#xde;" glyph-name="Thorn" horiz-adv-x="600" d="M100 -14Q90 -14 83 -7T75 10V691Q75 701 82 708T100 715Q111 715 118 708T125 691V552H339Q395 552 440 525T513 452T540 351Q540 296 513 250T441 177T339 149H125V10Q125 0 118 -7T100 -14ZM125
199H339Q381 199 415 219T469 274T490 351Q490 393 470 427T415 481T339 502H125V199Z" />
<glyph unicode="&#xdf;" glyph-name="germandbls" horiz-adv-x="518" d="M140 -14Q130 -14 123 -8T116 9V358H44Q34 358 27 365T20 382Q20 392 27 399T44 406H116V534Q116 613 155 657T265 701H278Q343 701 380 665T417 564Q417 521 405 492T378 440T350 397T338
350Q338 318 354 296T402 253Q449 222 475 189T500 108Q499 51 464 19T369 -13Q327 -13 292 1T238 42Q232 51 236 63T249 79Q258 83 266 79T281 67Q308 35 369 35Q407 35 429 54T453 108Q453 141 436 162T388 207Q384 210 380 213T370 220Q352 232 334 248T303
288T291 351Q291 384 303 407T330 452T358 499T370 564Q370 606 346 629T278 653H265Q217 653 190 622T163 534V9Q163 -1 157 -7T140 -14Z" />
<glyph unicode="&#xe0;" glyph-name="agrave" horiz-adv-x="448" d="M367 -14Q357 -14 350 -8T343 9V17L220 -7Q174 -16 142 -12T88 8Q72 21 63 40T51 85Q45 143 76 180T174 229L343 258V286Q343 306 337 328T310 362Q294 372 269 372Q207 372 116 316Q107 311
98 313T84 324Q78 333 80 342T91 356Q150 392 194 405T269 419Q290 419 305 415T332 404Q361 388 376 358T391 286V9Q391 -1 385 -7T367 -14ZM212 41L343 65V210L183 183Q142 176 124 160T101 126T98 90Q101 59 117 47Q141 29 212 41ZM317 493L142 621Q134 627
133 636T136 654Q143 662 152 663T170 659L345 532Q363 517 351 498Q345 490 335 489T317 493Z" />
<glyph unicode="&#xe1;" glyph-name="aacute" horiz-adv-x="448" d="M367 -14Q357 -14 350 -8T343 9V17L220 -7Q174 -16 142 -12T88 8Q72 21 63 40T51 85Q45 143 76 180T174 229L343 258V286Q343 306 337 328T310 362Q294 372 269 372Q207 372 116 316Q107 311
98 313T84 324Q78 333 80 342T91 356Q150 392 194 405T269 419Q290 419 305 415T332 404Q361 388 376 358T391 286V9Q391 -1 385 -7T367 -14ZM212 41L343 65V210L183 183Q142 176 124 160T101 126T98 90Q101 59 117 47Q141 29 212 41ZM170 493Q162 487 152 488T136
498Q124 517 142 532L317 659Q325 665 334 664T351 654Q356 646 355 637T345 621L170 493Z" />
<glyph unicode="&#xe2;" glyph-name="acircumflex" horiz-adv-x="448" d="M367 -14Q357 -14 350 -8T343 9V17L220 -7Q174 -16 142 -12T88 8Q72 21 63 40T51 85Q45 143 76 180T174 229L343 258V286Q343 306 337 328T310 362Q294 372 269 372Q207 372 116 316Q107
311 98 313T84 324Q78 333 80 342T91 356Q150 392 194 405T269 419Q290 419 305 415T332 404Q361 388 376 358T391 286V9Q391 -1 385 -7T367 -14ZM212 41L343 65V210L183 183Q142 176 124 160T101 126T98 90Q101 59 117 47Q141 29 212 41ZM127 492Q120 487 111
488T94 497Q89 505 90 514T99 530L229 629Q244 641 259 629L389 530Q397 525 398 515T393 497Q387 490 378 489T360 492L244 580L127 492Z" />
<glyph unicode="&#xe3;" glyph-name="atilde" horiz-adv-x="448" d="M367 -14Q357 -14 350 -8T343 9V17L220 -7Q174 -16 142 -12T88 8Q72 21 63 40T51 85Q45 143 76 180T174 229L343 258V286Q343 306 337 328T310 362Q294 372 269 372Q207 372 116 316Q107 311
98 313T84 324Q78 333 80 342T91 356Q150 392 194 405T269 419Q290 419 305 415T332 404Q361 388 376 358T391 286V9Q391 -1 385 -7T367 -14ZM212 41L343 65V210L183 183Q142 176 124 160T101 126T98 90Q101 59 117 47Q141 29 212 41ZM309 507Q291 507 273 516T230
546Q209 563 198 569T179 575Q168 575 158 562T140 526Q137 517 129 513T112 510Q103 513 99 522T96 539Q108 577 129 598T179 620Q196 620 214 611T258 581Q293 553 309 553Q321 553 331 566T349 602Q352 610 360 614T377 616Q397 609 392 588Q380 550 359 529T309
507Z" />
<glyph unicode="&#xe4;" glyph-name="adieresis" horiz-adv-x="448" d="M367 -14Q357 -14 350 -8T343 9V17L220 -7Q174 -16 142 -12T88 8Q72 21 63 40T51 85Q45 143 76 180T174 229L343 258V286Q343 306 337 328T310 362Q294 372 269 372Q207 372 116 316Q107
311 98 313T84 324Q78 333 80 342T91 356Q150 392 194 405T269 419Q290 419 305 415T332 404Q361 388 376 358T391 286V9Q391 -1 385 -7T367 -14ZM212 41L343 65V210L183 183Q142 176 124 160T101 126T98 90Q101 59 117 47Q141 29 212 41ZM153 487Q133 487 119
501T104 536Q104 556 118 571T153 586Q174 586 188 571T202 536Q202 516 188 502T153 487ZM334 487Q313 487 299 501T285 536Q285 556 299 571T334 586Q354 586 368 571T383 536Q383 516 369 502T334 487Z" />
<glyph unicode="&#xe5;" glyph-name="aring" horiz-adv-x="448" d="M367 -14Q357 -14 350 -8T343 9V17L220 -7Q174 -16 142 -12T88 8Q72 21 63 40T51 85Q45 143 76 180T174 229L343 258V286Q343 306 337 328T310 362Q294 372 269 372Q207 372 116 316Q107 311
98 313T84 324Q78 333 80 342T91 356Q150 392 194 405T269 419Q290 419 305 415T332 404Q361 388 376 358T391 286V9Q391 -1 385 -7T367 -14ZM212 41L343 65V210L183 183Q142 176 124 160T101 126T98 90Q101 59 117 47Q141 29 212 41ZM244 450Q201 450 171 480T141
553Q141 595 171 625T244 656Q286 656 316 626T347 553Q347 510 317 480T244 450ZM244 498Q267 498 283 514T299 553Q299 576 283 592T244 608Q222 608 206 592T189 553Q189 531 205 515T244 498Z" />
<glyph unicode="&#xe6;" glyph-name="ae" horiz-adv-x="752" d="M517 -13Q434 -13 386 42L211 -4Q133 -25 88 8Q72 21 63 40T51 85Q45 143 76 180T174 229L333 258V286Q333 306 327 328T300 362Q284 372 259 372Q230 372 196 358T116 316Q107 311 98 313T84 324Q78
333 80 342T91 356Q150 392 189 405T259 419Q280 419 295 415T322 404Q355 385 371 346Q394 382 431 401T517 421Q591 421 641 370T696 232V229Q696 220 689 213Q683 206 672 206H382Q382 205 382 205T381 204Q381 123 417 79T517 35Q553 35 584 50T633 91Q639
99 648 101T666 97Q674 92 676 82T672 64Q648 29 607 8T517 -13ZM334 210L183 183Q142 176 124 160T101 126T98 90Q101 59 117 47Q130 37 152 37T203 44L359 82Q334 133 334 204Q334 207 334 210ZM385 253H644Q634 310 601 341T517 372Q463 372 430 341T385 253Z"
/>
<glyph unicode="&#xe7;" glyph-name="ccedilla" horiz-adv-x="400" d="M230 -13Q145 -13 96 45T47 204Q47 305 96 363T230 421Q313 421 362 364Q369 357 369 347T360 330Q353 324 343 324T326 332Q292 372 230 372Q166 372 130 328T94 204Q94 123 130 79T230 35Q293
35 326 74Q333 82 343 83T360 77Q368 71 368 61T362 43Q312 -13 230 -13ZM401 -220Q391 -220 385 -214T378 -197Q378 -187 384 -181T401 -174Q527 -174 527 -127Q527 -90 437 -90Q411 -90 415 -66L427 7Q429 15 435 21T450 27Q461 27 468 19T473 0L465 -45Q573
-57 573 -127Q573 -175 532 -197T401 -220Z" />
<glyph unicode="&#xe8;" glyph-name="egrave" horiz-adv-x="465" d="M230 -13Q145 -13 96 45T47 204Q47 305 96 363T230 421Q304 421 354 370T409 232V229Q409 220 402 213Q396 206 385 206H95Q95 129 127 82T230 35Q266 35 297 50T346 91Q352 99 361 101T379
97Q387 92 389 82T385 64Q361 29 320 8T230 -13ZM98 253H357Q347 310 314 341T230 372Q176 372 143 341T98 253ZM306 493L131 621Q123 627 122 636T125 654Q132 662 141 663T159 659L334 532Q352 517 340 498Q334 490 324 489T306 493Z" />
<glyph unicode="&#xe9;" glyph-name="eacute" horiz-adv-x="465" d="M230 -13Q145 -13 96 45T47 204Q47 305 96 363T230 421Q304 421 354 370T409 232V229Q409 220 402 213Q396 206 385 206H95Q95 129 127 82T230 35Q266 35 297 50T346 91Q352 99 361 101T379
97Q387 92 389 82T385 64Q361 29 320 8T230 -13ZM98 253H357Q347 310 314 341T230 372Q176 372 143 341T98 253ZM159 493Q151 487 141 488T125 498Q113 517 131 532L306 659Q314 665 323 664T340 654Q345 646 344 637T334 621L159 493Z" />
<glyph unicode="&#xea;" glyph-name="ecircumflex" horiz-adv-x="465" d="M230 -13Q145 -13 96 45T47 204Q47 305 96 363T230 421Q304 421 354 370T409 232V229Q409 220 402 213Q396 206 385 206H95Q95 129 127 82T230 35Q266 35 297 50T346 91Q352 99 361 101T379
97Q387 92 389 82T385 64Q361 29 320 8T230 -13ZM98 253H357Q347 310 314 341T230 372Q176 372 143 341T98 253ZM116 492Q109 487 100 488T83 497Q78 505 79 514T88 530L218 629Q233 641 248 629L378 530Q386 525 387 515T382 497Q376 490 367 489T349 492L233
580L116 492Z" />
<glyph unicode="&#xeb;" glyph-name="edieresis" horiz-adv-x="465" d="M230 -13Q145 -13 96 45T47 204Q47 305 96 363T230 421Q304 421 354 370T409 232V229Q409 220 402 213Q396 206 385 206H95Q95 129 127 82T230 35Q266 35 297 50T346 91Q352 99 361 101T379
97Q387 92 389 82T385 64Q361 29 320 8T230 -13ZM98 253H357Q347 310 314 341T230 372Q176 372 143 341T98 253ZM142 487Q122 487 108 501T93 536Q93 556 107 571T142 586Q163 586 177 571T191 536Q191 516 177 502T142 487ZM323 487Q302 487 288 501T274 536Q274
556 288 571T323 586Q343 586 357 571T372 536Q372 516 358 502T323 487Z" />
<glyph unicode="&#xec;" glyph-name="igrave" horiz-adv-x="282" d="M182 -14Q172 -14 166 -8T159 9V358H44Q34 358 27 365T20 383Q20 393 27 399T44 406H182Q193 406 200 400T207 383V9Q207 -1 200 -7T182 -14ZM245 493L70 621Q62 627 61 636T64 654Q71 662 80
663T98 659L273 532Q291 517 279 498Q273 490 263 489T245 493Z" />
<glyph unicode="&#xed;" glyph-name="iacute" horiz-adv-x="282" d="M182 -14Q172 -14 166 -8T159 9V358H44Q34 358 27 365T20 383Q20 393 27 399T44 406H182Q193 406 200 400T207 383V9Q207 -1 200 -7T182 -14ZM98 493Q90 487 80 488T64 498Q52 517 70 532L245
659Q253 665 262 664T279 654Q284 646 283 637T273 621L98 493Z" />
<glyph unicode="&#xee;" glyph-name="icircumflex" horiz-adv-x="282" d="M182 -14Q172 -14 166 -8T159 9V358H44Q34 358 27 365T20 383Q20 393 27 399T44 406H182Q193 406 200 400T207 383V9Q207 -1 200 -7T182 -14ZM311 492Q304 487 295 488T278 497Q273 505
274 514T283 530L413 629Q428 641 443 629L573 530Q581 525 582 515T577 497Q571 490 562 489T544 492L428 580L311 492Z" />
<glyph unicode="&#xef;" glyph-name="idieresis" horiz-adv-x="282" d="M182 -14Q172 -14 166 -8T159 9V358H44Q34 358 27 365T20 383Q20 393 27 399T44 406H182Q193 406 200 400T207 383V9Q207 -1 200 -7T182 -14ZM337 487Q317 487 303 501T288 536Q288 556 302
571T337 586Q358 586 372 571T386 536Q386 516 372 502T337 487ZM518 487Q497 487 483 501T469 536Q469 556 483 571T518 586Q538 586 552 571T567 536Q567 516 553 502T518 487Z" />
<glyph unicode="&#xf0;" glyph-name="eth" horiz-adv-x="460" d="M230 -13Q145 -13 96 45T47 204Q47 305 96 363T230 421Q261 421 283 414L196 565L120 521Q111 516 102 519T87 530Q82 538 84 548T96 562L172 606L123 691Q118 699 120 709T131 724Q139 729 149
726T164 715L213 630L298 679Q307 684 317 682T331 671Q336 663 334 653T322 638L237 589L385 331Q399 306 406 274T413 204Q413 104 364 46T230 -13ZM230 35Q295 35 330 79T365 204Q365 284 330 328T230 372Q166 372 130 328T94 204Q94 123 130 79T230 35Z" />
<glyph unicode="&#xf1;" glyph-name="ntilde" horiz-adv-x="433" d="M80 -13Q70 -13 64 -7T57 10V398Q57 408 63 415T80 422Q90 422 97 415T104 398V365Q127 391 159 406T228 421Q297 421 336 376T376 252V12Q376 2 370 -5T353 -12Q343 -12 336 -5T329 12V252Q329
275 322 303T294 351T228 372Q170 372 137 340T104 249V10Q104 0 97 -6T80 -13ZM282 507Q264 507 246 516T203 546Q182 563 171 569T152 575Q141 575 131 562T113 526Q110 517 102 513T85 510Q76 513 72 522T69 539Q81 577 102 598T152 620Q169 620 187 611T231
581Q266 553 282 553Q294 553 304 566T322 602Q325 610 333 614T350 616Q370 609 365 588Q353 550 332 529T282 507Z" />
<glyph unicode="&#xf2;" glyph-name="ograve" horiz-adv-x="460" d="M230 -13Q145 -13 96 45T47 204Q47 305 96 363T230 421Q314 421 363 363T413 204Q413 104 364 46T230 -13ZM230 35Q295 35 330 79T365 204Q365 284 330 328T230 372Q166 372 130 328T94 204Q94
123 130 79T230 35ZM303 493L128 621Q120 627 119 636T122 654Q129 662 138 663T156 659L331 532Q349 517 337 498Q331 490 321 489T303 493Z" />
<glyph unicode="&#xf3;" glyph-name="oacute" horiz-adv-x="460" d="M230 -13Q145 -13 96 45T47 204Q47 305 96 363T230 421Q314 421 363 363T413 204Q413 104 364 46T230 -13ZM230 35Q295 35 330 79T365 204Q365 284 330 328T230 372Q166 372 130 328T94 204Q94
123 130 79T230 35ZM156 493Q148 487 138 488T122 498Q110 517 128 532L303 659Q311 665 320 664T337 654Q342 646 341 637T331 621L156 493Z" />
<glyph unicode="&#xf4;" glyph-name="ocircumflex" horiz-adv-x="460" d="M230 -13Q145 -13 96 45T47 204Q47 305 96 363T230 421Q314 421 363 363T413 204Q413 104 364 46T230 -13ZM230 35Q295 35 330 79T365 204Q365 284 330 328T230 372Q166 372 130 328T94
204Q94 123 130 79T230 35ZM113 492Q106 487 97 488T80 497Q75 505 76 514T85 530L215 629Q230 641 245 629L375 530Q383 525 384 515T379 497Q373 490 364 489T346 492L230 580L113 492Z" />
<glyph unicode="&#xf5;" glyph-name="otilde" horiz-adv-x="460" d="M230 -13Q145 -13 96 45T47 204Q47 305 96 363T230 421Q314 421 363 363T413 204Q413 104 364 46T230 -13ZM230 35Q295 35 330 79T365 204Q365 284 330 328T230 372Q166 372 130 328T94 204Q94
123 130 79T230 35ZM295 507Q277 507 259 516T216 546Q195 563 184 569T165 575Q154 575 144 562T126 526Q123 517 115 513T98 510Q89 513 85 522T82 539Q94 577 115 598T165 620Q182 620 200 611T244 581Q279 553 295 553Q307 553 317 566T335 602Q338 610 346
614T363 616Q383 609 378 588Q366 550 345 529T295 507Z" />
<glyph unicode="&#xf6;" glyph-name="odieresis" horiz-adv-x="460" d="M230 -13Q145 -13 96 45T47 204Q47 305 96 363T230 421Q314 421 363 363T413 204Q413 104 364 46T230 -13ZM230 35Q295 35 330 79T365 204Q365 284 330 328T230 372Q166 372 130 328T94 204Q94
123 130 79T230 35ZM139 487Q119 487 105 501T90 536Q90 556 104 571T139 586Q160 586 174 571T188 536Q188 516 174 502T139 487ZM320 487Q299 487 285 501T271 536Q271 556 285 571T320 586Q340 586 354 571T369 536Q369 516 355 502T320 487Z" />
<glyph unicode="&#xf7;" glyph-name="divide" horiz-adv-x="943" d="M161 324Q151 324 144 331T137 348Q137 358 144 365T161 372H785Q795 372 801 365T808 348Q808 338 802 331T785 324H161ZM472 36Q447 36 429 54T410 97Q410 123 428 140T472 158Q497 158 515
141T533 97Q533 72 515 54T472 36ZM472 536Q447 536 429 554T410 597Q410 623 428 640T472 658Q497 658 515 641T533 597Q533 572 515 554T472 536Z" />
<glyph unicode="&#xf8;" glyph-name="oslash" horiz-adv-x="460" d="M230 -13Q182 -13 144 7L126 -24Q122 -32 113 -34T95 -32Q87 -27 84 -18T85 -1L106 35Q47 93 47 204Q47 305 96 363T230 421Q278 421 317 401L334 431Q339 439 349 441T367 439Q375 435 377
425T375 407L355 372Q383 344 398 302T413 204Q413 104 364 46T230 -13ZM131 78L292 359Q265 372 230 372Q166 372 130 328T94 204Q94 122 131 78ZM230 35Q295 35 330 79T365 204Q365 284 330 328L168 48Q195 35 230 35Z" />
<glyph unicode="&#xf9;" glyph-name="ugrave" horiz-adv-x="433" d="M205 -13Q136 -13 97 32T57 156V395Q57 405 63 412T80 419Q90 419 97 412T104 395V156Q104 133 111 105T139 55T205 34Q264 34 296 66T329 158V396Q329 406 336 413T353 421Q363 421 369 414T376
396V10Q376 0 370 -6T353 -13Q343 -13 336 -7T329 10V41Q306 16 275 2T205 -13ZM290 493L115 621Q107 627 106 636T109 654Q116 662 125 663T143 659L318 532Q336 517 324 498Q318 490 308 489T290 493Z" />
<glyph unicode="&#xfa;" glyph-name="uacute" horiz-adv-x="433" d="M205 -13Q136 -13 97 32T57 156V395Q57 405 63 412T80 419Q90 419 97 412T104 395V156Q104 133 111 105T139 55T205 34Q264 34 296 66T329 158V396Q329 406 336 413T353 421Q363 421 369 414T376
396V10Q376 0 370 -6T353 -13Q343 -13 336 -7T329 10V41Q306 16 275 2T205 -13ZM143 493Q135 487 125 488T109 498Q97 517 115 532L290 659Q298 665 307 664T324 654Q329 646 328 637T318 621L143 493Z" />
<glyph unicode="&#xfb;" glyph-name="ucircumflex" horiz-adv-x="433" d="M205 -13Q136 -13 97 32T57 156V395Q57 405 63 412T80 419Q90 419 97 412T104 395V156Q104 133 111 105T139 55T205 34Q264 34 296 66T329 158V396Q329 406 336 413T353 421Q363 421 369
414T376 396V10Q376 0 370 -6T353 -13Q343 -13 336 -7T329 10V41Q306 16 275 2T205 -13ZM100 492Q93 487 84 488T67 497Q62 505 63 514T72 530L202 629Q217 641 232 629L362 530Q370 525 371 515T366 497Q360 490 351 489T333 492L217 580L100 492Z" />
<glyph unicode="&#xfc;" glyph-name="udieresis" horiz-adv-x="433" d="M205 -13Q136 -13 97 32T57 156V395Q57 405 63 412T80 419Q90 419 97 412T104 395V156Q104 133 111 105T139 55T205 34Q264 34 296 66T329 158V396Q329 406 336 413T353 421Q363 421 369
414T376 396V10Q376 0 370 -6T353 -13Q343 -13 336 -7T329 10V41Q306 16 275 2T205 -13ZM126 487Q106 487 92 501T77 536Q77 556 91 571T126 586Q147 586 161 571T175 536Q175 516 161 502T126 487ZM307 487Q286 487 272 501T258 536Q258 556 272 571T307 586Q327
586 341 571T356 536Q356 516 342 502T307 487Z" />
<glyph unicode="&#xfd;" glyph-name="yacute" horiz-adv-x="439" d="M135 -222Q125 -218 121 -209T121 -191L195 -3L38 388Q34 397 38 406T51 419Q60 422 69 419T82 405L221 61L357 405Q361 415 369 418T388 419Q397 415 401 406T401 388L165 -209Q161 -218 153
-221T135 -222ZM146 493Q138 487 128 488T112 498Q100 517 118 532L293 659Q301 665 310 664T327 654Q332 646 331 637T321 621L146 493Z" />
<glyph unicode="&#xfe;" glyph-name="thorn" horiz-adv-x="461" d="M80 -223Q70 -223 64 -216T57 -199V691Q57 701 63 708T80 715Q90 715 97 708T104 691V360Q126 388 157 404T231 421Q316 421 365 363T414 204Q414 104 365 46T231 -13Q189 -13 158 3T104 47V-199Q104
-209 97 -216T80 -223ZM231 35Q296 35 331 79T367 204Q367 284 332 328T231 372Q103 372 103 204Q103 35 231 35Z" />
<glyph unicode="&#xff;" glyph-name="ydieresis" horiz-adv-x="439" d="M135 -222Q125 -218 121 -209T121 -191L195 -3L38 388Q34 397 38 406T51 419Q60 422 69 419T82 405L221 61L357 405Q361 415 369 418T388 419Q397 415 401 406T401 388L165 -209Q161 -218
153 -221T135 -222ZM129 487Q109 487 95 501T80 536Q80 556 94 571T129 586Q150 586 164 571T178 536Q178 516 164 502T129 487ZM310 487Q289 487 275 501T261 536Q261 556 275 571T310 586Q330 586 344 571T359 536Q359 516 345 502T310 487Z" />
<glyph unicode="&#x2013;" glyph-name="endash" horiz-adv-x="525" d="M80 180Q70 180 64 187T57 204Q57 214 63 221T80 228H414Q424 228 431 221T438 204Q438 194 431 187T414 180H80Z" />
<glyph unicode="&#x2014;" glyph-name="emdash" horiz-adv-x="665" d="M55 180Q45 180 39 187T32 204Q32 214 38 221T55 228H609Q619 228 626 221T633 204Q633 194 626 187T609 180H55Z" />
<glyph unicode="&#x2018;" glyph-name="quoteleft" horiz-adv-x="271" d="M129 441Q104 441 90 459T75 503V602Q75 700 171 700Q181 700 188 694T195 677Q195 667 188 660T171 653Q143 653 133 642T122 602V564Q124 564 126 564T129 565Q155 565 169 547T184 503Q184
478 170 460T129 441Z" />
<glyph unicode="&#x2019;" glyph-name="quoteright" horiz-adv-x="271" d="M99 456Q89 456 82 462T75 479Q75 490 82 496T99 503Q127 503 137 514T148 554V592Q146 592 145 592T141 591Q116 591 101 609T86 653Q86 679 101 697T141 715Q166 715 180 697T195 653V554Q195
456 99 456Z" />
<glyph unicode="&#x201a;" glyph-name="quotesinglbase" horiz-adv-x="271" d="M99 -148Q89 -148 82 -142T75 -125Q75 -114 82 -108T99 -101Q127 -101 137 -90T148 -50V-12Q146 -12 145 -12T141 -13Q116 -13 101 5T86 49Q86 75 101 93T141 111Q166 111 180 93T195
49V-50Q195 -148 99 -148Z" />
<glyph unicode="&#x201c;" glyph-name="quotedblleft" horiz-adv-x="461" d="M129 441Q104 441 90 459T75 503V602Q75 700 171 700Q181 700 188 694T195 677Q195 667 188 660T171 653Q143 653 133 642T122 602V564Q124 564 126 564T129 565Q155 565 169 547T184
503Q184 478 170 460T129 441ZM319 441Q294 441 280 459T265 503V602Q265 700 361 700Q371 700 378 694T385 677Q385 667 378 660T361 653Q333 653 323 642T312 602V564Q314 564 316 564T319 565Q345 565 359 547T374 503Q374 478 360 460T319 441Z" />
<glyph unicode="&#x201d;" glyph-name="quotedblright" horiz-adv-x="461" d="M99 456Q89 456 82 462T75 479Q75 490 82 496T99 503Q127 503 137 514T148 554V592Q146 592 145 592T141 591Q116 591 101 609T86 653Q86 679 101 697T141 715Q166 715 180 697T195
653V554Q195 456 99 456ZM289 456Q279 456 272 462T265 479Q265 490 272 496T289 503Q317 503 327 514T338 554V592Q336 592 335 592T331 591Q306 591 291 609T276 653Q276 679 291 697T331 715Q356 715 370 697T385 653V554Q385 456 289 456Z" />
<glyph unicode="&#x201e;" glyph-name="quotedblbase" horiz-adv-x="461" d="M289 -148Q279 -148 272 -142T265 -125Q265 -114 272 -108T289 -101Q317 -101 327 -90T338 -50V-12Q336 -12 335 -12T331 -13Q306 -13 291 5T276 49Q276 75 291 93T331 111Q356 111
370 93T385 49V-50Q385 -148 289 -148ZM99 -148Q89 -148 82 -142T75 -125Q75 -114 82 -108T99 -101Q127 -101 137 -90T148 -50V-12Q146 -12 145 -12T141 -13Q116 -13 101 5T86 49Q86 75 101 93T141 111Q166 111 180 93T195 49V-50Q195 -148 99 -148Z" />
<glyph unicode="&#x2022;" glyph-name="bullet" horiz-adv-x="260" d="M130 258Q90 258 66 287T42 357Q42 398 66 428T130 458Q171 458 194 428T218 357Q218 316 195 287T130 258Z" />
<glyph unicode="&#x2039;" glyph-name="guilsinglleft" horiz-adv-x="336" d="M265 -11Q258 -16 249 -15T232 -6L55 196Q43 210 55 224L232 426Q239 434 248 435T265 430Q273 424 275 414T271 396L104 210L271 24Q276 16 275 6T265 -11Z" />
<glyph unicode="&#x203a;" glyph-name="guilsinglright" horiz-adv-x="336" d="M71 -11Q63 -4 62 6T65 24L232 210L65 396Q59 403 61 413T71 430Q79 436 88 435T104 426L281 224Q293 210 281 196L104 -6Q97 -13 88 -14T71 -11Z" />
</font>
</defs>
</svg>
