<?xml version="1.0" standalone="no"?>
<!DOCTYPE svg PUBLIC "-//W3C//DTD SVG 1.1//EN" "http://www.w3.org/Graphics/SVG/1.1/DTD/svg11.dtd">
<svg xmlns="http://www.w3.org/2000/svg">
<defs >
<font id="GreyQo" horiz-adv-x="379" ><font-face
    font-family="Grey Qo"
    units-per-em="1000"
    panose-1="0 0 0 0 0 0 0 0 0 0"
    ascent="900"
    descent="-360"
    alphabetic="0" />
<glyph unicode=" " glyph-name="space" horiz-adv-x="203" />
<glyph unicode="!" glyph-name="exclam" horiz-adv-x="187" d="M96 89Q92 89 90 96Q99 129 133 199Q146 225 166 270T215 380Q211 384 211 393Q211 398 212 401Q215 412 229 428Q243 443 255 443Q265 443 265 431Q265 425 262 416Q255 392 242 361T208 292Q192
261 175 231T140 169Q134 158 127 143T112 107Q105 89 96 89ZM47 -24Q40 -23 35 -13Q30 -6 30 -1Q30 9 47 21Q58 29 64 30T81 32Q90 32 88 24Q79 -8 47 -24Z" />
<glyph unicode="&quot;" glyph-name="quotedbl" horiz-adv-x="187" d="M208 280Q203 280 203 285Q208 299 213 313T222 342Q230 368 234 394T243 446Q245 451 244 450T244 452Q247 458 248 455V457Q248 461 251 464T259 471Q272 479 281 479Q297 479 297 464Q297
458 296 454Q292 441 278 407T238 316Q230 300 223 290T208 280ZM134 280Q131 280 129 285Q134 299 139 313T148 342Q156 368 161 394T170 446Q171 451 171 450T170 452Q173 458 174 455V457Q174 461 177 464T185 471Q198 479 207 479Q223 479 223 464Q223 458
222 454Q218 441 204 407T163 316Q156 300 149 290T134 280Z" />
<glyph unicode="#" glyph-name="numbersign" horiz-adv-x="485" d="M198 56Q186 56 186 74Q186 87 192 108Q206 156 235 214Q61 158 60 158Q49 158 49 164Q49 171 68 182Q83 193 92 194L246 239Q250 249 258 267T281 313Q158 275 151 275Q141 275 141 281Q141
287 146 291T159 299Q183 310 229 321Q255 328 272 333T300 341L340 412Q371 462 391 477H407L336 354Q353 355 385 363Q405 368 418 371T438 376Q453 399 467 422T498 469Q548 545 566 545Q580 545 577 535Q577 534 574 532Q562 519 549 501T522 461Q511 442 500
425T477 389Q484 390 494 391T521 396Q553 402 568 402Q584 402 582 395Q581 394 578 392T569 388Q511 370 461 358Q455 346 446 330T422 291Q442 294 494 310Q545 324 566 324Q577 324 577 319Q577 316 574 313T566 308Q559 304 503 292Q449 280 410 262Q400 243
393 225T381 190Q374 168 374 148Q374 124 388 112Q377 95 365 95Q360 95 355 98Q338 109 338 137Q338 158 345 182Q354 212 371 250Q331 240 266 220Q255 198 246 177T231 135Q227 121 225 106T221 74L220 71Q216 56 198 56ZM280 248Q298 253 324 260T385 277Q392
291 402 309T426 351Q412 350 385 344T319 323Q304 298 280 248Z" />
<glyph unicode="$" glyph-name="dollar" horiz-adv-x="437" d="M95 -211Q90 -210 85 -199Q84 -194 84 -188T83 -174Q83 -150 89 -122Q91 -107 98 -84T117 -27Q78 -25 55 -8T24 28Q20 37 20 49Q20 65 28 76T47 92H49Q53 92 53 88T50 81Q42 69 42 55Q42 47 45 39Q56
17 78 8T126 -2Q133 15 141 38Q155 73 170 113T204 198Q172 214 145 229T102 264T85 318Q85 326 86 334T89 351Q97 384 129 419T208 480T303 512Q322 515 338 515Q396 643 410 653Q422 662 428 662Q434 662 436 657V654Q436 649 431 636Q421 617 408 588T377 520L374
513Q432 506 457 475T482 411Q482 382 465 360Q458 351 453 351Q446 351 451 363Q463 389 463 408Q463 444 431 460T358 478Q298 345 249 231Q263 224 275 217T299 200Q318 184 326 165T335 125Q335 70 290 33Q266 12 226 -5T146 -26Q137 -49 134 -60Q116 -111
110 -145Q109 -152 109 -158T109 -169Q113 -178 123 -177Q126 -175 126 -179V-180Q126 -184 119 -193T107 -207Q99 -212 95 -211ZM117 344Q117 318 132 301T171 270T222 244L223 246Q252 316 277 374T322 479Q307 478 294 476Q239 469 200 447T139 398T117 344ZM166
26Q160 11 156 -1Q190 4 223 18T277 55T299 105Q299 126 285 143T230 184Q194 99 166 26Z" />
<glyph unicode="%" glyph-name="percent" horiz-adv-x="357" d="M96 44Q87 44 87 53Q87 55 87 57T89 63Q102 109 184 194Q206 216 242 249T330 329Q369 364 389 384T410 408Q411 410 411 413T411 417Q411 432 393 436Q387 438 327 439Q333 430 333 420Q333 417
333 414T331 408Q321 372 273 347Q233 326 193 326Q158 326 158 351Q158 357 161 366Q178 424 240 449Q243 448 243 444Q243 436 226 426Q214 419 202 400T187 368Q186 365 186 363T185 358Q185 342 205 342Q228 342 262 362Q296 381 302 403Q303 407 303 413Q303
424 296 432Q286 442 267 442Q263 442 260 442T252 441Q244 441 245 447Q249 459 271 459Q279 459 286 459T302 458Q330 458 359 461T416 464Q476 464 468 433Q461 405 295 262Q131 119 122 90Q121 88 121 85T121 80Q121 73 120 69Q114 44 96 44ZM228 61Q193 61
193 87Q193 90 193 93T195 101Q212 159 275 183L278 181Q284 193 318 193Q330 193 339 190T356 181Q368 172 368 157Q368 154 368 151T366 144Q355 106 308 82Q268 61 228 61ZM240 78Q264 78 298 97Q331 117 337 139Q338 142 338 147Q338 158 330 166Q319 177 302
177Q296 177 291 174T281 171Q277 171 277 174Q275 172 271 169T260 161Q251 155 238 136Q231 126 227 118T221 103Q220 100 220 98T219 93Q219 78 240 78Z" />
<glyph unicode="&amp;" glyph-name="ampersand" horiz-adv-x="463" d="M51 -196Q16 -196 -9 -174T-35 -124Q-35 -111 -27 -98Q-25 -93 -21 -94T-19 -100Q-25 -110 -25 -119Q-25 -136 -7 -146T39 -153Q85 -147 117 -119T173 -49T213 40Q211 39 207 39Q203 38 199
38T190 38Q144 38 115 68T86 142Q86 179 110 221T189 300Q212 316 238 331T292 363Q304 412 327 450T393 494Q411 496 425 488T440 464Q440 455 431 444T406 423Q384 407 365 394T325 367Q316 344 307 315T286 251H395Q424 251 435 255T450 263Q452 265 453 265T455
262Q453 241 436 234T400 224Q391 189 365 153T305 87T233 45Q220 -1 202 -46T161 -126T106 -180Q78 -196 51 -196ZM333 387Q350 398 366 408T398 430Q412 441 418 451T424 469Q424 484 409 484Q401 484 390 477T368 453Q360 441 352 425T333 387ZM220 63Q233 101
242 138T261 204L267 229Q240 227 219 218T187 184Q182 171 182 161Q182 144 193 133Q195 132 192 131T186 131Q171 144 171 168Q171 200 198 225T266 251H271L287 341Q263 324 240 305T195 265Q162 233 148 202T133 144Q133 109 155 86T212 63H220ZM239 66Q274
74 302 99T349 157T376 224Q356 225 331 227T280 230L278 221Q270 192 261 151T239 66Z" />
<glyph unicode="&apos;" glyph-name="quotesingle" horiz-adv-x="115" d="M109 235Q122 256 133 275T154 312Q186 365 190 382Q191 385 191 390Q191 401 181 415Q193 442 214 442Q235 442 235 422Q235 419 235 416T233 408Q225 382 180 314Q157 277 140 257T109 235Z" />
<glyph unicode="(" glyph-name="parenleft" horiz-adv-x="250" d="M97 -2Q67 -2 67 67Q67 86 69 102T74 134L78 150Q128 329 258 456Q273 471 285 481T305 499Q311 503 314 503Q316 502 316 499Q313 488 285 460Q229 402 192 342T134 212Q114 141 114 100Q114
51 141 37Q126 -2 97 -2Z" />
<glyph unicode=")" glyph-name="parenright" horiz-adv-x="298" d="M44 0Q41 0 41 3Q41 8 56 24Q66 32 80 43T112 71Q208 158 247 300Q259 342 259 380Q259 454 214 476Q230 516 257 516Q305 516 305 434Q305 411 302 386T291 334Q287 321 282 308T272 282Q239
200 189 136T68 11Q54 0 44 0Z" />
<glyph unicode="*" glyph-name="asterisk" horiz-adv-x="334" d="M209 177L207 180Q202 180 201 183Q200 188 202 201T208 227T213 245Q216 259 220 271T230 296Q194 281 128 245Q115 237 111 237Q107 237 107 240Q107 247 121 258Q135 269 158 288T215 335Q193
352 179 365Q170 379 146 398Q143 400 142 401T140 403Q142 408 151 408Q178 408 251 369L314 480Q318 488 322 488Q326 488 326 479Q326 476 326 473T324 464Q321 453 318 440T310 410Q306 399 303 390T297 372Q360 389 423 389Q429 389 427 384L422 376Q400 370
368 361T291 337Q301 324 316 305T353 259Q355 256 353 253Q352 244 342 244Q325 244 264 291Q258 276 253 264T241 240L209 177Z" />
<glyph unicode="+" glyph-name="plus" horiz-adv-x="318" d="M117 -13Q114 -13 114 -7Q114 -1 115 2Q117 9 119 15T125 25Q152 68 166 93T184 127L86 126Q83 130 85 134Q86 142 98 150Q109 156 117 156L198 154Q201 159 210 174T236 215Q240 221 245 230T258 251Q270
269 290 269Q299 269 296 262Q292 248 277 221T235 153Q252 154 270 154T306 155Q351 155 349 144Q346 136 314 133Q298 132 274 131T218 126Q211 113 199 94T169 49Q149 20 136 4T117 -13Z" />
<glyph unicode="," glyph-name="comma" horiz-adv-x="152" d="M52 -100Q49 -100 49 -94Q49 -88 52 -82Q70 -52 76 -39T82 -18Q82 -10 78 -3T73 24Q80 38 88 44T105 50Q115 50 121 43T124 24Q121 14 117 4T96 -33Q89 -44 80 -60T61 -92Q56 -100 52 -100Z" />
<glyph unicode="-" glyph-name="hyphen" horiz-adv-x="273" d="M112 158Q88 158 77 162Q84 192 122 192Q167 192 211 191T301 190L300 188Q302 188 302 183Q300 176 282 175Q266 172 230 169Q187 163 158 161T112 158Z" />
<glyph unicode="." glyph-name="period" horiz-adv-x="152" d="M95 -5Q87 -5 81 4Q76 12 76 17Q76 24 81 29T93 39Q109 51 121 51Q133 51 133 40Q133 25 112 4Q103 -5 95 -5Z" />
<glyph unicode="/" glyph-name="slash" horiz-adv-x="508" d="M7 -106Q-5 -106 -5 -94Q-5 -87 -2 -80Q9 -44 40 2Q69 44 163 143Q195 177 232 214T313 295Q462 441 543 515T638 589Q656 589 656 577Q656 570 653 565T642 553Q626 540 603 519T549 470Q434 366
338 274T164 100Q139 75 123 58T99 32Q80 11 66 -7T41 -41Q36 -48 33 -55T28 -67Q27 -70 27 -75Q27 -82 32 -87Q33 -88 33 -91Q31 -97 22 -101T7 -106Z" />
<glyph unicode="0" glyph-name="zero" horiz-adv-x="458" d="M165 -15Q104 -15 79 14T53 89Q53 129 70 178Q66 181 62 184T54 192Q42 203 34 216T23 242Q22 247 22 250T22 258Q22 297 46 326T107 374T185 403T262 417Q273 423 283 428T304 437H306Q311 437 317
432T316 419Q357 415 385 396T427 348Q441 315 441 279Q441 222 414 174Q391 130 354 87T269 14T165 -15ZM161 2Q196 2 230 20T294 68T347 130T384 191Q409 245 409 293Q409 339 386 368T322 397Q306 397 286 391Q258 374 216 332T137 222Q122 195 113 171Q122
163 125 159Q126 154 121 154Q115 154 112 156Q109 156 108 157Q101 137 98 119T95 84Q95 46 112 24T161 2ZM78 199L84 212Q107 262 139 305T208 379Q173 370 135 355T70 317T44 264Q44 251 51 236T74 203Q75 200 78 199Z" />
<glyph unicode="1" glyph-name="one" horiz-adv-x="211" d="M52 0Q43 0 42 6T41 19Q43 25 43 26Q66 105 101 179T161 331Q109 286 87 272T63 255Q59 251 57 253T54 257Q54 260 55 264T57 270Q63 275 80 290T118 324T158 360T186 385L197 405Q201 413 208 420Q213
423 221 423Q229 423 235 420T241 412Q226 378 206 336T165 248Q144 202 125 155T93 63Q92 60 92 56Q92 52 93 50T94 43Q94 42 94 40T93 34Q91 24 79 12T52 0Z" />
<glyph unicode="2" glyph-name="two" horiz-adv-x="297" d="M236 -31Q229 -36 229 -28V-19Q229 -14 229 -9T225 2Q215 18 189 24T131 30Q121 30 111 30T89 28Q79 27 62 22T29 11Q28 11 18 7T-3 0T-14 -4Q-30 -4 -30 3Q-30 11 -15 22T8 38L17 44L20 45L21 46Q39
58 68 85T129 148T185 223T218 298Q220 307 221 316T222 334Q222 357 212 374T173 391Q169 391 166 391T157 390Q142 388 129 375T111 348Q106 333 91 333Q79 333 79 349Q79 353 82 364T87 379Q90 390 92 400T96 419Q97 427 104 427Q113 427 111 420Q110 413 108
404T107 387Q118 397 130 406T159 421Q168 424 176 425T192 426Q230 426 252 401T274 339Q274 314 264 290Q250 255 222 218T164 149Q136 118 111 95T73 61Q108 64 141 64Q161 64 181 64T223 63Q238 63 245 53T252 31Q252 17 249 3T241 -26L236 -31Z" />
<glyph unicode="3" glyph-name="three" horiz-adv-x="272" d="M61 -6Q23 -6 5 16T-20 57Q-18 60 -14 62T-10 64Q-5 57 -3 51T6 38Q12 31 23 27T57 22Q97 22 128 44T178 99T197 160Q197 185 182 202T131 219Q121 219 112 217T93 212Q87 217 87 220T87 229Q110 243
140 260T192 299T214 351Q214 368 202 380T165 393Q143 393 128 380T107 352Q102 337 86 337Q74 337 74 352Q74 357 77 367T82 382Q86 393 88 403T92 423Q92 431 99 431Q106 431 106 425Q106 419 104 408T103 390Q117 404 141 416T190 428Q214 428 229 414Q241
404 246 391T252 364Q252 342 241 321T214 286Q203 276 190 266T164 250Q159 248 159 245Q160 244 174 244Q212 244 229 222T246 170Q246 166 246 161T244 151Q238 108 211 72T145 15T61 -6Z" />
<glyph unicode="4" glyph-name="four" horiz-adv-x="289" d="M112 0Q103 0 102 6T101 19Q103 25 103 26Q112 56 125 87T152 147L84 143Q61 142 41 139T13 133Q7 130 2 130Q-5 130 -5 139Q-5 145 -2 151Q8 158 27 177T69 222T114 273T154 319T176 348L175 349Q173
357 173 362Q173 370 178 376Q184 384 203 400L235 430Q237 432 241 433T248 435Q260 435 252 424Q230 396 204 360T151 287T105 222T75 179L166 185Q174 202 189 234T219 299T245 352Q252 364 258 364Q262 364 264 359T267 348Q267 341 264 335Q245 301 229 262T195
185Q209 186 217 186T234 187Q251 187 261 184T272 169Q272 165 270 159T264 145Q261 138 258 130T251 114H242Q243 117 243 120T243 125Q243 141 232 146T206 151Q199 151 193 151T180 149Q173 130 166 106T153 63Q152 60 152 56Q152 52 153 50T154 43Q154 42
154 40T153 34Q150 24 138 12T112 0Z" />
<glyph unicode="5" glyph-name="five" horiz-adv-x="308" d="M66 -11Q29 -11 7 4T-22 36Q-24 42 -24 47Q-24 64 -10 79T16 96H19Q24 96 24 91T21 84Q15 74 15 63Q15 54 18 48Q26 31 44 23T85 15Q113 15 141 26T189 56T209 101Q209 118 195 131T144 169Q139 173
125 183T99 208T84 237Q83 247 92 271T110 316Q112 321 117 331T126 351T131 364Q131 365 131 365T130 365Q127 370 124 375T119 385Q117 391 117 394Q117 408 137 408Q146 408 150 410T159 417Q162 420 171 427T184 429Q185 428 185 425Q185 422 182 414Q202 411
227 411Q262 411 296 415T341 422Q349 421 349 415Q349 411 346 408T338 403Q326 400 304 397T256 389T208 381T174 374Q159 370 153 358T141 334Q138 328 133 313T124 284T119 265Q119 258 130 247T157 222T188 197T213 181Q231 170 239 154T247 121Q247 99 236
77T206 39Q183 20 142 5T66 -11Z" />
<glyph unicode="6" glyph-name="six" horiz-adv-x="283" d="M77 -6Q45 -6 33 17T21 70Q21 90 25 110T34 146Q30 143 22 137T8 131Q1 131 2 142L35 175Q43 183 50 190T63 201Q82 231 99 259T137 316Q157 343 184 370T252 423Q255 425 262 426T274 427Q284 427 284
420Q284 416 276 413Q257 407 233 383T185 325T141 261T109 209Q142 228 185 228Q211 228 231 217T251 179Q251 162 241 139Q232 117 214 92T173 45T125 8T77 -6ZM79 30Q97 30 129 47T186 92Q200 107 209 123T219 154Q219 172 201 184Q194 189 183 190T160 192Q141
192 121 187T90 174Q74 146 63 120T50 60Q50 30 79 30Z" />
<glyph unicode="7" glyph-name="seven" horiz-adv-x="271" d="M43 -8Q32 -8 32 1Q32 6 34 12L37 18Q55 58 80 104T133 196Q159 240 185 280T232 353Q222 349 213 349T200 349Q186 352 171 357T139 366Q126 371 111 375T82 380Q71 381 67 374T62 354Q62 341 68
327T78 305Q80 303 80 300Q80 296 76 294T68 296Q56 310 48 333T40 379Q40 404 50 418Q56 425 71 425Q82 425 97 422T128 413L179 397Q191 394 202 392T220 389Q235 389 242 401T257 424Q269 427 275 414T281 392Q281 388 277 380T268 364L253 343Q228 303 198
252T140 148T93 53Q89 46 90 43T91 33Q91 30 88 24Q84 15 70 4T43 -8Z" />
<glyph unicode="8" glyph-name="eight" horiz-adv-x="293" d="M62 -26Q16 -26 -3 0T-23 56Q-23 86 -9 106Q-9 106 -9 106T-8 107Q7 136 36 167T101 228V229Q79 255 79 287Q79 317 96 344T138 391Q158 405 181 413T225 422Q248 422 265 412T287 378Q288 376 288
373T288 368Q288 364 288 360T286 352Q334 377 366 387H369Q376 387 376 381Q376 375 371 374Q332 361 277 326T166 246Q180 236 195 226T221 201Q230 191 235 177T241 144Q241 128 237 112Q230 84 207 55T152 4T89 -24Q82 -25 75 -25T62 -26ZM144 262Q205 306
265 340Q269 349 269 360Q269 378 255 387T220 397Q192 397 164 379T126 322Q125 318 125 314T124 306Q124 295 128 284T144 262ZM68 8Q75 8 81 8T95 10Q148 19 177 50T207 112Q209 135 198 150T170 178Q158 186 146 193T122 209L109 198Q98 189 80 173T44 135T12
92T-1 48Q-1 45 -1 42T0 36V34Q10 20 28 14T68 8Z" />
<glyph unicode="9" glyph-name="nine" horiz-adv-x="271" d="M90 -4Q59 -4 38 18T6 71Q-2 93 -5 115T-7 151Q-5 158 0 159T5 153Q10 100 32 73T83 46Q106 46 129 62T174 111Q189 135 202 164T226 222Q225 222 224 222T220 221Q201 208 175 200T125 192Q119 192
113 192T102 194Q78 199 68 212T57 244Q57 270 74 301T119 362T175 409T229 428Q261 428 273 405T285 352Q285 328 280 305T270 267L268 265Q264 252 260 241T254 225Q246 204 234 170T204 100Q188 66 166 37T115 0Q103 -4 90 -4ZM148 230Q171 230 195 235T230
249Q238 261 248 292T259 350Q259 367 252 379T227 391Q209 391 178 374T121 330Q107 314 98 298T88 267Q88 248 105 238Q112 234 123 232T148 230Z" />
<glyph unicode=":" glyph-name="colon" horiz-adv-x="152" d="M165 155Q159 155 151 164Q147 169 147 176Q147 188 164 198Q181 211 193 211Q204 211 204 200Q204 186 182 164Q173 155 165 155ZM95 -5Q87 -5 81 4Q76 12 76 17Q76 24 81 29T93 39Q109 51 121 51Q133
51 133 40Q133 25 112 4Q103 -5 95 -5Z" />
<glyph unicode=";" glyph-name="semicolon" horiz-adv-x="152" d="M165 155Q159 155 151 164Q147 169 147 176Q147 188 164 198Q181 211 193 211Q204 211 204 200Q204 186 182 164Q173 155 165 155ZM52 -100Q49 -100 49 -94Q49 -88 52 -82Q70 -52 76 -39T82 -18Q82
-10 78 -3T73 24Q80 38 88 44T105 50Q115 50 121 43T124 24Q121 14 117 4T96 -33Q89 -44 80 -60T61 -92Q56 -100 52 -100Z" />
<glyph unicode="&lt;" glyph-name="less" horiz-adv-x="196" d="M135 37Q130 37 126 42Q118 53 103 73T62 122Q53 132 53 141Q53 150 62 159Q75 172 94 191T133 230T169 267T191 289Q203 300 211 300Q216 300 216 295Q216 287 203 273Q190 257 164 230T98 164Q151
60 148 51Q143 37 135 37Z" />
<glyph unicode="=" glyph-name="equal" horiz-adv-x="310" d="M183 177Q151 177 141 184Q147 213 170 213Q182 213 200 212T242 209Q244 209 256 208T282 206T306 202T317 196Q317 192 303 189L264 183Q218 177 183 177ZM141 80Q110 80 99 86Q105 116 128 116Q140
116 158 115T200 112Q201 112 212 111T239 109T265 105T276 99Q276 95 261 92L222 86Q176 80 141 80Z" />
<glyph unicode="&gt;" glyph-name="greater" horiz-adv-x="267" d="M108 36Q103 36 103 41Q103 49 116 63Q130 79 156 106T221 173Q168 276 171 285Q176 299 184 299Q189 299 193 294Q201 284 216 264T257 214Q266 204 266 195Q266 186 257 177Q244 164 225 145T186
106T150 69T127 47Q116 36 108 36Z" />
<glyph unicode="?" glyph-name="question" horiz-adv-x="403" d="M150 101Q142 101 142 110Q139 155 162 183T225 232T311 279Q371 311 391 332T412 378Q412 400 393 415T345 439T282 448Q244 448 208 436T152 396Q145 388 145 375Q145 366 149 358Q151 356 151
352Q151 347 146 347Q136 347 129 355T122 375Q122 389 131 404Q142 421 165 437T225 464Q238 468 252 469T280 471Q320 471 357 461T416 435Q449 410 449 371Q449 349 436 325T394 279Q372 263 341 247T276 214T216 181T173 149T161 115V112Q161 107 158 104T150
101ZM95 -5Q87 -5 81 4Q76 12 76 17Q76 24 81 29T93 39Q109 51 121 51Q133 51 133 40Q133 25 112 4Q103 -5 95 -5Z" />
<glyph unicode="@" glyph-name="at" horiz-adv-x="596" d="M254 -70Q172 -70 130 -18Q104 16 104 60Q104 86 113 117Q127 168 160 210T237 287T330 344Q326 344 321 344T307 343Q297 342 290 342T277 342Q261 342 261 349Q261 360 297 364T398 368Q398 368 401
368T411 370Q443 378 473 382T530 386Q648 386 648 315Q648 308 647 300T643 283Q635 257 615 228Q618 220 619 211T620 193Q620 184 619 175T615 157Q588 62 464 -8Q352 -70 254 -70ZM604 247Q613 265 616 278Q621 295 621 307Q621 365 524 365Q489 365 448 356Q555
326 604 247ZM243 -47Q332 -47 439 11Q560 76 582 158Q584 166 585 174T587 189Q571 166 552 142T509 95Q446 27 410 27Q392 27 384 44T375 91Q375 116 381 138Q262 21 230 21Q210 21 210 39Q210 42 210 45T212 52Q225 96 304 174Q387 255 430 255Q441 255 447
248T453 230Q453 224 452 220Q449 211 444 211Q442 211 438 218Q435 223 423 223Q404 223 387 214Q366 203 345 187T302 149Q252 101 242 66Q240 58 240 56Q240 47 248 47Q269 47 333 111Q389 167 410 200Q418 207 427 207Q433 207 434 202Q429 196 425 186T416
162Q411 144 409 127T407 94Q407 57 427 57Q453 57 512 120Q537 147 554 169T583 211Q549 317 386 340Q346 328 309 305T235 249Q161 179 140 105Q132 76 132 54Q132 21 149 -5Q176 -47 243 -47Z" />
<glyph unicode="A" glyph-name="A" horiz-adv-x="591" d="M153 167Q138 167 129 172Q125 173 125 176Q125 178 127 179T134 178Q140 176 143 176Q156 176 170 186T194 213T205 251Q205 263 200 278Q195 292 186 305T171 332Q163 349 160 363T156 390Q156 422 176
440T227 469T294 485T358 494Q383 497 418 502T493 514T567 529T628 545T661 561Q663 563 665 563Q668 563 668 560T666 554Q655 542 620 530T538 507T439 486T343 467T270 450Q179 425 179 367Q179 344 192 323T217 280T230 237Q230 206 205 187T153 167ZM141
-14Q99 -14 71 5T29 56T15 123Q15 147 21 169Q24 189 35 189Q38 189 38 185Q38 181 36 175T34 166Q37 94 68 61T144 27Q208 27 279 84Q305 105 331 134T384 198Q372 196 361 193T338 187Q324 183 312 180T291 176Q287 175 283 175T276 175Q265 175 264 179T266
187Q272 195 283 202T305 211Q326 214 352 218T406 227Q444 279 480 332T546 426Q557 440 566 452T586 476Q599 492 622 496Q627 502 642 516T669 536Q673 538 674 538Q679 538 679 534T678 527Q669 520 659 507T643 480Q616 421 593 359T550 234Q572 233 583 223T595
201Q595 187 587 186T582 192Q584 195 584 200Q584 208 573 213T545 219Q538 197 530 163T516 98Q515 89 515 82T514 68Q514 45 521 35T539 25Q553 25 570 36T605 64T633 94Q635 96 644 108T664 133T681 155Q682 157 686 156T689 152Q665 118 638 85Q625 70 604
47T557 7T508 -11Q505 -11 502 -11T496 -9Q480 -5 473 11T466 49Q466 60 468 73T473 99Q480 126 491 157T514 219Q511 219 509 219T503 218Q478 216 453 212T413 204Q375 149 332 99T242 18T141 -14ZM431 231Q456 233 478 234T521 235Q529 253 535 268T546 296Q563
340 577 378T591 423Q591 426 579 424T550 402Q523 370 493 325T431 231Z" />
<glyph unicode="B" glyph-name="B" horiz-adv-x="554" d="M73 -30Q50 -30 40 -21T29 0Q29 7 31 11Q40 32 71 39Q74 40 77 40T85 40Q109 40 146 33T221 19T282 9Q287 9 292 9T302 8Q369 8 412 31T476 89T497 158Q497 198 463 228T346 258Q336 258 325 258T302 256L241
107Q231 81 218 78T194 67Q177 56 172 59T173 65Q181 68 196 86T231 147L276 252Q253 249 253 254Q253 261 267 273Q272 278 277 279T289 282L351 426Q352 429 357 440T367 463T373 480Q363 481 352 481T329 482Q287 482 246 476T172 461T125 440Q74 401 74 353Q74
326 93 291Q107 267 124 247T161 207Q164 204 161 201T156 201Q134 224 110 245T69 293T52 355Q52 415 85 448T173 498Q194 504 231 508T312 513Q345 513 376 510Q378 519 381 528T393 545Q406 552 425 565T466 599Q468 601 468 598T468 593Q467 585 461 572T448
552Q436 542 428 530T413 505Q468 495 507 472T546 404Q546 365 512 329T420 279Q406 276 406 273Q406 271 418 269Q487 260 519 227T551 153Q551 115 523 78T439 16T297 -9Q273 -9 243 -8T185 -4T142 2Q126 6 114 7T92 8Q55 8 55 -7Q55 -12 62 -16T79 -21Q88 -21
97 -18Q98 -18 98 -18T100 -17Q103 -17 103 -20Q103 -26 97 -28Q90 -29 84 -29T73 -30ZM329 281Q384 281 421 299T478 344T497 398Q497 432 469 450T399 476Q388 455 378 434T358 390L313 282Q317 281 321 281T329 281Z" />
<glyph unicode="C" glyph-name="C" horiz-adv-x="421" d="M220 -39Q171 -39 131 -21T67 35T43 128Q43 165 55 210Q72 269 105 322T186 418T291 484T411 508Q419 508 426 508T442 506Q457 505 469 502T487 491Q495 501 499 512T510 528Q518 535 527 535Q542 535
542 523Q542 519 539 514Q506 473 486 434T448 348Q445 340 438 340Q434 340 431 343T431 353L458 416Q467 437 467 450Q467 473 445 481Q421 491 393 491Q353 491 315 471T243 418T182 344T135 265T106 192Q93 149 93 111Q93 47 129 17T222 -14Q282 -14 354 18Q401
39 431 69T498 143Q501 147 506 147Q513 147 508 139Q471 88 437 52T358 -6Q289 -39 220 -39Z" />
<glyph unicode="D" glyph-name="D" horiz-adv-x="564" d="M8 -14Q1 -14 7 -4Q10 1 22 17T59 33Q67 33 75 32T94 31Q113 31 119 35T135 52Q137 55 147 78T174 138T209 219T246 307T281 389T308 453Q294 458 270 464T219 474T166 479Q153 479 142 478T122 472Q55
441 55 381Q55 359 64 333Q73 307 86 284T115 236Q117 232 114 230T109 232Q93 256 75 279T45 328T32 383Q32 388 32 393T34 405Q45 464 83 489T180 517Q199 518 226 514T281 504T324 492Q344 536 372 561T444 587Q451 587 459 584T470 575Q471 574 471 572Q471
568 467 567T460 570Q460 571 456 573T444 575Q419 575 401 561T372 525T352 482Q396 467 439 441T518 379T575 300T597 206Q597 162 571 124T499 56T391 11T260 -7Q206 -8 152 -5T47 0Q20 0 10 -13Q9 -14 8 -14ZM269 11Q353 12 417 36T517 102T554 197Q554 237
535 276T483 350T413 410T338 445Q295 343 265 273T215 158T183 87T164 46T152 24Q160 23 179 20T223 14T269 11Z" />
<glyph unicode="E" glyph-name="E" horiz-adv-x="450" d="M265 -24Q239 -24 214 -19T166 0Q145 12 134 35T123 77Q123 106 137 148T174 239Q162 236 152 234T133 230Q131 230 129 230T124 229Q110 229 110 237Q110 240 112 243T115 249Q120 257 132 264T154 272Q162
273 172 275T192 278Q219 334 245 386T285 475L163 471Q108 470 82 454T55 396Q55 373 63 349T79 305Q79 304 79 304T80 302Q80 294 74 294Q68 294 61 313Q57 327 51 349T42 386Q40 395 39 404T38 420Q38 459 59 479T115 506T185 513Q211 513 235 511T279 507Q298
505 298 513T305 533Q308 546 319 546Q325 546 330 541T336 524Q336 514 332 505L524 504L530 502Q532 495 531 491Q531 488 514 478T474 450T432 409Q424 401 417 401Q415 401 415 403Q415 408 422 416Q423 418 429 425T444 444Q449 451 451 455T454 462Q454 470
418 470Q402 470 388 471T358 472Q351 472 343 472T327 470Q323 469 320 468T313 460Q300 443 276 393T228 285L257 290Q286 295 314 297T367 299Q376 299 385 299T402 298Q424 297 433 287T443 265Q443 258 440 252Q437 246 432 246T431 253Q434 259 434 263Q434
272 423 275T393 279Q368 279 335 274T276 264T241 256L214 250Q195 201 183 160T171 99Q171 69 192 50T247 22T314 12Q361 12 408 30T486 86Q489 91 492 91Q493 91 493 88Q493 86 491 81T484 70Q475 60 465 51T444 34Q407 8 360 -8T265 -24Z" />
<glyph unicode="F" glyph-name="F" horiz-adv-x="421" d="M170 -21Q135 -21 112 0T75 53T55 119T49 182Q49 188 55 188Q59 188 61 182Q63 171 63 160T65 137Q73 94 97 62T170 29Q209 29 235 58T277 119Q293 151 308 186T336 258L325 256Q310 253 288 247T244 236T208
230Q204 230 199 231T194 238Q194 250 211 260T238 272Q266 277 293 281T348 290Q375 369 398 443L404 466L363 469Q340 471 316 472T268 473Q244 473 216 469T166 450T145 403Q145 376 156 351T167 299Q167 268 144 250T91 231Q87 231 77 233T58 239T49 248Q49
251 52 251Q56 251 60 247T74 243Q103 243 122 268T142 321Q142 346 132 371T122 427Q122 477 153 493T227 510Q252 510 277 507T327 501Q347 498 368 496T410 491Q414 505 417 516T422 529Q432 541 448 541Q456 541 458 536T461 524Q460 506 453 488Q482 486 512
485T571 484Q581 484 599 484T635 488T661 497Q665 499 666 499Q671 499 671 492Q671 482 651 476T603 467T552 464T521 463Q502 463 483 463T443 464Q436 451 429 438T415 410L370 293Q417 299 463 299Q475 299 490 298T516 289T528 266Q528 261 525 254T517 247Q514
247 514 250Q514 252 516 255T518 263Q518 275 502 277T478 279Q448 279 418 274T358 263Q350 241 341 219T323 175Q314 152 301 119T271 56T236 8Q207 -21 170 -21Z" />
<glyph unicode="G" glyph-name="G" horiz-adv-x="561" d="M198 -278Q161 -278 133 -258T104 -188Q104 -156 116 -126T145 -72T175 -37Q179 -34 181 -37T181 -42Q169 -58 157 -83T137 -136T129 -189Q129 -194 129 -198T131 -208Q136 -239 152 -252T189 -265Q211
-265 234 -253T276 -225Q304 -199 335 -152T394 -47T445 65T476 164Q457 139 425 114T363 68T316 40Q270 17 231 7T160 -4Q97 -4 63 31T28 121Q28 165 51 217T123 324Q168 374 226 415T352 482T492 507Q529 507 544 491Q552 501 556 512T567 528Q575 535 584 535Q599
535 599 524Q599 519 595 514Q563 473 543 434T505 348Q502 340 495 340Q491 340 488 343T488 353Q492 362 499 379T515 416Q524 437 524 450Q524 473 505 480T459 487Q397 487 340 460T235 389T154 301Q120 253 105 212T89 139Q89 87 122 59T207 30Q255 30 312
56Q327 63 352 79T403 117T450 161T474 204Q463 208 439 208Q401 208 361 200Q350 198 346 194T342 184Q342 179 345 174T350 166V165Q350 162 348 159T344 158Q337 163 327 176T310 200Q305 208 305 214Q305 229 326 229Q332 229 347 229T383 228Q413 228 449
228T519 229T573 230T595 231Q599 230 599 226T596 219Q585 219 572 219T544 207T514 161Q492 111 472 51T427 -68T367 -177T281 -256Q264 -266 242 -272T198 -278Z" />
<glyph unicode="H" glyph-name="H" horiz-adv-x="597" d="M514 -11Q491 -11 482 2T472 38Q472 54 476 73T486 112Q496 146 509 176T536 235Q482 231 428 222T321 202L298 197Q290 177 281 158T263 120Q250 94 231 65T188 16T133 -4Q97 -4 73 21T37 84T25 162Q25
167 25 172T26 181Q28 186 32 189T36 184Q37 157 45 126T74 74T127 52Q148 52 168 60T207 90Q243 133 272 193Q268 192 264 192T255 191Q251 191 248 191T243 190Q224 190 224 199Q224 204 230 210Q238 218 254 225T284 233Q289 233 291 234Q313 282 329 325T354
393Q364 419 368 432T374 448V453Q374 483 381 496T402 519L396 517Q360 505 321 493T247 470T190 451Q121 426 121 367Q121 343 132 320T155 275T167 229Q167 198 147 180T104 162Q92 162 83 168Q79 171 81 174T87 175Q89 173 95 173Q109 173 123 194T137 246Q137
272 128 292T110 335T100 387Q100 420 116 439T156 470T208 486T257 496Q271 498 293 503T340 516T385 532T415 549Q420 552 422 552Q427 552 427 546Q427 542 422 534Q423 534 425 536Q432 542 439 548T453 564Q457 566 458 566Q464 566 462 556T454 535T443 519Q436
512 428 501T407 459Q398 440 388 414T364 356L315 236Q373 243 431 250T547 259L564 296Q584 340 597 371T611 409Q609 409 605 411T601 419Q601 424 610 442T630 481T646 511Q652 517 670 524T700 536Q704 538 706 538Q711 538 711 534T709 527Q700 520 690 507T672
480Q644 427 620 371T574 259Q581 259 588 259T603 258Q634 257 648 247T662 225Q662 219 657 212Q653 206 647 206T644 213Q648 218 648 223Q648 232 633 235T595 239Q588 239 581 239T566 238L560 220Q553 200 544 170T527 109T519 55Q519 40 523 31T538 21Q550
21 568 32T606 60T641 94Q643 96 654 109T679 137T699 161Q700 162 701 160Q703 156 700 152L647 88Q640 79 625 63T590 29T551 1T514 -11Z" />
<glyph unicode="I" glyph-name="I" horiz-adv-x="322" d="M131 -37Q100 -37 78 -20T42 26T21 84T14 140Q14 144 15 150T21 157Q23 157 23 154Q23 146 25 137T29 118Q34 95 45 72T76 34T122 19Q146 19 165 29T199 57Q231 96 255 152T300 269T335 377Q336 380 340
392T348 417T352 432Q353 450 354 466T369 496Q333 484 297 473T225 447Q203 438 186 422T169 380Q169 360 178 341T197 304T206 266Q206 246 192 229T156 212Q152 212 144 214T136 220Q136 223 139 223Q140 223 142 222T147 220Q159 220 166 231T178 257T182 280Q182
303 172 323T151 364T140 405Q140 432 160 448T212 473T279 489T345 501T395 519Q402 523 414 536T430 550Q433 550 433 544Q433 536 428 523T417 503Q405 490 398 475T384 443Q374 418 365 392T347 340Q324 277 303 214T254 88Q244 64 227 35T185 -15T131 -37Z"
/>
<glyph unicode="J" glyph-name="J" horiz-adv-x="409" d="M122 -155Q78 -155 44 -127T9 -40Q9 16 30 59T78 133Q95 152 114 163T140 179Q147 182 146 176T140 160T134 146Q132 142 126 138T114 134Q106 134 105 142Q71 110 59 73T46 0Q46 -57 72 -83T136 -109Q172
-109 211 -89T279 -31Q310 8 340 66T396 191T444 322T480 438Q483 446 483 451Q483 477 487 489T502 512L359 463Q303 444 303 394Q303 371 317 346T338 300Q340 296 340 292T340 283Q340 258 324 243T289 228Q280 228 272 233Q268 235 269 237T275 238Q286 231
300 249T315 295Q315 307 312 319Q309 331 300 349T286 378Q279 391 277 401T274 421Q274 444 289 459T327 483T374 496T416 504Q429 506 449 510T492 520T529 534L531 536Q538 543 544 549T559 564Q567 569 567 560Q567 552 562 538T551 519Q544 512 537 501T518
459Q497 405 474 336T423 193T361 53T283 -65T186 -141Q155 -155 122 -155Z" />
<glyph unicode="K" glyph-name="K" horiz-adv-x="644" d="M590 -44Q572 -44 553 -34Q526 -19 499 11T446 77T401 147T368 203T351 227Q339 217 320 200T275 153L249 90Q238 63 221 35T180 -14T127 -34Q114 -34 100 -29T71 -13Q48 4 34 35T14 98T9 151Q11 156 15
159T19 154Q22 127 32 97T63 44T117 22Q138 22 158 30T195 60Q219 90 241 134T280 227T311 316T331 379L348 435V440Q348 465 352 477T365 499Q325 486 285 472T221 449Q165 430 165 381Q165 357 179 333T200 287Q202 283 202 279T202 269Q202 244 186 229T151
214Q142 214 134 219Q130 221 131 223T137 224Q148 218 162 235T177 281Q177 293 174 305Q171 317 162 335T148 365Q141 378 139 388T136 408Q136 431 151 446T189 470T236 483T278 491Q290 493 310 497T352 507T389 519Q390 520 391 521T393 523Q405 533 421 550Q429
555 429 546Q429 538 424 524T413 505Q406 499 399 488T380 446L342 343Q333 318 319 275T287 185Q340 245 400 308T520 427T625 520Q646 537 675 554T736 584T797 596Q821 596 842 586T878 549V545Q878 539 874 539Q870 539 866 546Q856 564 842 571T811 579Q792
579 772 571T734 552Q699 530 655 496T565 422T480 347T413 285T377 250Q384 237 400 212T435 160T466 116Q478 100 495 77T534 30T579 -6Q585 -9 591 -11T603 -13Q614 -13 621 -7T628 16Q628 37 618 62T597 106Q595 110 595 111Q595 114 597 114Q602 114 605 108Q614
95 622 78T635 45Q642 28 642 11Q642 -13 628 -28T590 -44Z" />
<glyph unicode="L" glyph-name="L" horiz-adv-x="602" d="M477 -67Q408 -67 338 -39T202 24Q195 11 190 0T180 -20Q153 -66 117 -66Q84 -66 56 -28Q40 -5 30 24T20 78Q20 101 28 116T56 131Q76 131 113 112T198 66Q234 155 266 246T337 425Q349 452 369 479T415
525T470 544Q492 544 516 529Q540 513 553 482T572 418T577 365Q576 361 571 358T567 361Q565 389 555 419T524 472T469 494Q444 494 419 472T371 412Q348 373 325 323T282 221T245 126T217 57Q262 33 312 9T414 -31T512 -47Q542 -46 562 -29T577 22Q574 36 566
45T558 58Q560 63 563 62T570 59Q603 35 603 7Q603 -19 577 -39T512 -65Q503 -66 495 -66T477 -67ZM116 -53Q129 -53 142 -41T165 -10Q173 4 185 33Q167 42 151 51T117 67Q95 78 82 78Q65 78 65 55Q65 51 65 46T67 33Q73 -13 86 -33T116 -53Z" />
<glyph unicode="M" glyph-name="M" horiz-adv-x="724" d="M133 -22Q105 -22 77 -1Q53 17 39 49T18 115T13 169Q15 174 20 177T23 173Q26 145 36 113T69 59T125 36Q147 36 167 44T206 75Q231 105 252 149T289 238T316 313Q325 340 329 354T334 371V376Q334 404
338 417T354 439T382 462Q395 473 410 490Q418 495 418 487Q418 478 413 464T402 444Q395 438 389 429T374 400Q377 362 394 315T433 221T469 140Q497 175 533 217T606 303T672 381T716 437Q718 445 720 453T729 479Q733 490 740 500T760 513Q766 520 781 534T809
555Q813 557 815 557Q820 557 820 553T818 546Q809 539 799 525T782 497Q753 433 728 365T681 228Q675 208 667 178T653 118T647 63Q647 44 652 33T669 21Q675 21 685 26Q726 46 760 85T822 161Q822 162 822 162T823 160Q825 155 823 152Q797 117 768 81T703 18Q664
-11 639 -11Q620 -11 611 6T601 51Q601 81 610 115Q624 168 646 220T691 343Q706 387 710 405Q691 377 661 338T596 258T533 180T486 117Q493 97 493 81Q493 72 491 64T486 47Q477 24 465 13T442 1Q423 1 423 30Q423 44 429 63T448 108Q431 161 400 216T349 333L329
275Q319 248 306 215T281 152T262 106Q252 83 234 53T190 1T133 -22ZM85 156Q73 156 61 161Q57 162 57 166Q57 168 59 169T65 168Q71 166 75 166Q88 166 103 176T128 204T139 244Q139 250 138 257T134 271Q129 286 120 300T104 328Q88 361 88 388Q88 421 109 440T163
470T232 486T298 495Q341 501 382 507T455 522T499 544Q501 546 503 546Q506 546 506 543T504 537Q490 522 456 510T377 488T288 469T207 450Q113 425 113 364Q113 344 122 326T142 290T160 255Q165 240 165 229Q165 196 139 176T85 156Z" />
<glyph unicode="N" glyph-name="N" horiz-adv-x="665" d="M555 -43Q546 -43 539 -32T529 -6Q528 2 528 10T527 28Q527 41 528 55T534 85Q507 125 480 168T422 251T357 318Q353 321 351 318T348 315Q342 300 331 270T303 201T267 123T227 49T184 -7Q154 -37 116
-37Q92 -37 70 -23T31 16Q16 41 10 71T1 123Q2 131 9 129Q14 105 20 86T42 49Q74 13 116 13Q151 13 183 39Q209 60 228 92T264 155Q272 173 284 203T308 263T324 312Q326 316 326 319T326 327Q326 345 317 357Q297 379 272 404T217 449T157 476Q153 477 148 477T138
478Q112 478 94 459T75 392Q75 373 83 353T102 314T118 277Q121 265 121 255Q121 224 101 206T59 188Q46 188 37 194Q33 197 35 200T41 200Q50 195 62 203T82 229T91 272Q91 287 87 300Q83 314 76 327T64 355Q54 384 54 411Q54 458 83 486T157 514Q190 514 226
493T294 444T349 394Q352 404 352 408T354 418T360 439T375 488Q379 504 390 504Q395 504 398 499T400 482Q396 466 389 439T368 378Q427 316 464 263T521 176T543 138Q546 153 555 189T577 272T604 367T632 456V458Q632 462 629 467T627 475Q634 498 644 515T664
550Q669 557 677 557Q692 557 695 544Q685 525 669 484T636 391T602 285T575 186T562 117Q570 101 577 76T585 24Q585 -2 577 -22T555 -43Z" />
<glyph unicode="O" glyph-name="O" horiz-adv-x="469" d="M216 -18Q146 -18 116 17T85 106Q85 156 106 213Q84 230 69 249T51 289Q50 294 50 299T50 309Q50 355 78 389T150 446T242 481T332 497Q344 505 366 515T413 534T457 542Q474 542 483 535T491 509Q490
503 485 502T480 507Q480 526 463 526Q450 526 433 518T399 499Q471 489 503 442T536 334Q536 267 502 205Q481 166 452 127T387 54T308 2T216 -18ZM213 -3Q255 -3 295 19T372 77T436 152T480 226Q496 260 503 291T510 350Q510 406 483 441T405 477Q395 477 383
476T359 470Q325 449 275 399T181 266Q172 249 165 233T152 201Q175 185 197 174T235 154Q237 152 237 150Q237 147 235 145T231 143Q217 149 194 160T146 186Q131 138 131 99Q131 52 152 25T213 -3ZM114 232L122 251Q149 315 189 367T276 458Q244 451 209 438T142
408T90 367T70 316Q70 283 107 240L114 232Z" />
<glyph unicode="P" glyph-name="P" horiz-adv-x="455" d="M137 -16Q124 -16 110 -11T81 5Q57 22 44 53T25 117T20 169Q21 174 25 177T29 173Q32 146 41 114T71 58T124 34Q145 34 164 42T202 73Q225 101 245 140T281 222Q268 234 262 249Q261 251 261 255Q261 258
263 258Q266 258 272 251Q277 244 287 237Q304 281 316 320T336 381Q339 390 346 410T353 441Q353 467 357 479Q326 480 298 478T249 473Q206 467 167 450T103 406T78 345Q78 324 90 301T130 251Q141 242 152 233T171 215Q173 213 171 211T165 210Q155 215 137
227T98 259T64 303T50 362Q50 404 78 431T150 474T245 496T340 503Q348 503 356 503T371 502Q376 507 383 512T399 525Q412 535 426 552Q435 558 435 548Q435 539 429 525T418 507L410 499Q418 498 426 497T441 494Q522 481 557 446T593 370Q593 335 571 300T509
239T419 202Q409 201 398 200T373 198Q354 198 335 201T300 211Q290 184 280 158T259 108Q248 82 231 53T190 4T137 -16ZM369 217Q380 217 390 218T410 221Q448 228 479 250T530 304T549 368Q549 403 522 432T431 472Q423 474 415 475T397 477Q395 471 392 464T385
447Q378 428 369 403T348 344L306 227Q320 222 336 220T369 217Z" />
<glyph unicode="Q" glyph-name="Q" horiz-adv-x="469" d="M219 -19Q149 -19 118 15T87 104Q87 137 97 174T124 252Q153 316 193 369T280 460Q272 459 264 457T247 452Q234 448 224 448Q212 448 212 455Q212 463 223 472T247 485Q293 497 336 500Q349 508 371 518T417
536T461 544Q478 544 487 537T495 511Q494 505 489 505T484 509Q484 529 467 529Q454 529 437 520T403 501Q475 491 507 444T540 335Q540 268 506 206Q485 166 456 127T391 54T311 1T219 -19ZM213 -3Q255 -3 295 19T372 77T436 152T480 226Q510 292 510 349Q510
406 483 442T405 478Q385 478 359 470Q325 449 275 399T181 266Q156 218 144 176T131 99Q131 52 152 25T213 -3ZM509 -313Q458 -313 411 -292T320 -238T234 -166T149 -92Q120 -68 93 -68Q76 -68 68 -82Q65 -88 62 -100T60 -124V-126Q60 -137 53 -137Q48 -137 48
-124Q49 -95 57 -69T79 -26T114 -15Q133 -19 162 -44T229 -106T309 -180T400 -248T498 -293Q510 -297 524 -297Q556 -297 575 -278T594 -232Q594 -214 586 -199Q586 -198 586 -198T585 -197Q585 -193 589 -193T596 -196Q616 -224 616 -248Q616 -273 598 -287T554
-307T509 -313Z" />
<glyph unicode="R" glyph-name="R" horiz-adv-x="579" d="M135 -13Q122 -13 108 -8T79 8Q56 26 42 57T23 120T18 173Q19 178 24 181T27 176Q30 149 39 117T69 61T123 38Q144 38 163 46T200 76Q226 107 248 152T287 244L280 253Q268 270 248 265Q244 264 252 271T272
286T285 296Q291 296 301 284Q312 316 320 342T334 384Q337 393 344 414T351 445Q351 470 355 482Q324 483 296 481T247 476Q204 470 165 453T102 409T77 349Q77 328 89 305T129 255Q140 245 150 236T169 219Q171 217 169 215T164 213Q154 219 135 231T97 262T63
307T49 366Q49 408 76 435T147 477T241 499T335 506Q344 506 352 506T369 505L397 528Q404 534 410 540T424 555Q433 561 433 551Q433 543 428 529T417 510L408 502L439 498Q521 488 556 452T591 375Q591 341 574 311T530 258T469 222T404 209Q391 209 378 211T353
220Q379 186 408 147T466 77T516 32Q530 25 541 25Q551 25 558 31T565 54Q565 75 555 99T534 144Q532 148 532 149Q532 152 534 152Q539 152 542 146Q551 133 559 116T572 83Q579 66 579 49Q579 25 565 10T527 -6Q509 -6 490 4Q458 21 427 58T365 141T303 225Q282
166 258 112Q247 86 230 57T189 7T135 -13ZM402 221Q439 221 472 244T527 302T548 372Q547 407 520 436T429 476Q421 478 413 478T395 480L383 451Q375 431 367 406T346 348Q340 332 333 311T317 266L332 247L336 245Q352 232 368 227T402 221Z" />
<glyph unicode="S" glyph-name="S" horiz-adv-x="337" d="M116 -27Q73 -27 48 -10T14 28Q10 37 10 49Q10 65 18 76T37 92H39Q43 92 43 88T40 81Q32 69 32 55Q32 47 35 39Q46 17 69 8T122 -2Q160 -2 198 12T263 50T289 105Q289 128 273 146T209 190Q175 209 144
224T94 261T75 318Q75 326 76 334T79 351Q87 384 119 419T198 480T293 512Q316 515 334 515Q384 515 414 499T458 460T472 411Q472 382 455 360Q448 351 443 351Q436 351 441 363Q453 389 453 408Q453 435 435 450T389 472T329 479Q305 479 284 476Q229 469 190
447T129 398T107 344Q107 315 126 296T175 262T235 233T289 200Q308 184 316 165T325 125Q325 70 280 33Q262 18 234 4T175 -18T116 -27Z" />
<glyph unicode="T" glyph-name="T" d="M170 -29Q138 -29 115 -11T78 38T56 103T49 174Q49 180 55 180Q61 180 61 174Q62 159 65 134T78 82T111 39T170 21Q209 21 234 50T275 111Q307 182 332 261T379 415L385 435Q386 440 387 446T390 458Q338 466 286 473T191
480Q110 480 77 452T43 379Q43 345 59 307T100 231Q101 230 101 229Q101 227 98 226T93 226Q74 256 56 280T25 331T13 389Q13 433 37 461T103 502T195 516Q247 516 301 508T397 492Q399 501 401 509T406 521Q411 526 418 530T431 534Q445 534 445 516Q445 497 441
484Q442 483 445 483Q483 476 522 468T602 459H603Q608 459 613 462T618 472Q618 479 609 486Q605 490 605 494T612 495Q632 486 632 467Q632 451 617 438T574 428Q546 431 508 437T427 451Q420 438 414 427T403 402Q381 339 368 302T347 242T333 204T319 167Q303
121 284 76T237 1T170 -29Z" />
<glyph unicode="U" glyph-name="U" horiz-adv-x="554" d="M67 145Q54 145 45 151Q41 153 43 156T49 157Q58 152 70 160T90 186T99 228Q99 243 95 256Q91 271 85 284T73 312Q67 329 65 343T62 370Q62 402 78 422T118 452T170 468T219 478Q233 480 255 485T302 498T347
514T377 531Q382 534 384 534Q389 534 389 528Q389 522 382 514T358 499Q322 487 283 475T209 453T152 433Q83 409 83 349Q83 330 91 310T110 270T126 234Q129 222 129 212Q129 181 109 163T67 145ZM241 -12Q198 -12 182 14T166 76Q166 102 172 128T185 173Q211
245 240 315T295 454Q297 460 305 463T322 466Q331 466 338 463T345 451Q345 442 334 431Q328 425 324 419T316 406Q309 393 290 356T250 267T217 155Q211 128 211 106Q211 70 225 52T263 34Q287 34 319 54T387 115Q404 136 424 169T465 242T502 318T529 382Q531
386 532 389T534 396Q539 411 542 425T552 461Q555 472 558 484T582 496Q588 502 607 513T639 528Q641 529 643 529Q649 529 649 524T646 518Q633 515 622 504T604 480Q547 356 506 220Q495 182 486 141T477 69Q477 47 482 34T501 20Q515 20 538 37T594 94L649
161Q649 162 649 162T650 160Q652 155 650 152Q638 136 626 120T600 88Q593 79 577 62T541 28T502 -1T470 -11Q448 -8 439 9T429 50Q429 60 430 70T433 91Q440 127 452 163T478 235Q458 200 431 158T372 77T307 13T241 -12Z" />
<glyph unicode="V" glyph-name="V" horiz-adv-x="424" d="M247 -56Q231 -56 231 -33Q231 -19 238 3T265 57Q256 101 244 136T221 204T207 272Q206 290 205 305T203 333Q203 372 210 389T227 418T247 445Q216 438 189 433T149 424Q50 399 50 334Q50 309 64 286T91
240T105 192Q105 170 92 153T60 126T22 116Q15 116 9 117T-4 121Q-8 122 -8 126Q-8 133 1 128Q7 126 11 126Q25 126 40 137T67 166T78 208Q78 215 77 222T73 237Q67 253 58 267T41 296Q23 335 23 363Q23 396 43 416T96 447T164 462T234 470Q240 470 246 470T259
471Q259 472 259 472T260 473Q262 480 269 481T274 476Q273 475 273 473Q307 476 340 481T393 492Q396 493 402 493Q412 493 412 488Q412 481 396 477Q373 470 338 463T265 448Q249 390 249 329Q249 265 263 202T296 83Q324 116 361 153T438 233T511 319T566 408T587
500Q587 505 587 511T586 522V523Q586 529 593 531T602 528Q606 516 608 505T610 481Q610 433 585 384T519 289T437 201T359 126T306 69Q310 54 310 40Q310 17 299 -5Q286 -30 272 -43T247 -56Z" />
<glyph unicode="W" glyph-name="W" horiz-adv-x="723" d="M184 -21Q176 -21 171 -18T169 -8Q191 42 215 102T258 228T276 357Q276 406 263 446Q253 477 233 490T187 504Q153 504 118 484T59 433T35 368Q35 361 36 354T40 340Q48 321 64 305T98 273T127 243Q136
231 140 219T144 196Q144 168 125 151T86 138Q81 140 81 143T87 146Q98 143 107 156T116 190Q116 205 110 221T89 254Q79 266 68 277T47 300Q28 323 19 344T10 386Q10 425 35 456T100 505T181 523Q213 523 242 510T291 467Q305 445 311 417T317 356Q317 310 307
259T281 159Q313 205 352 257T432 355T508 430T568 459H569Q595 459 605 429T616 353Q616 317 611 274T599 189T583 111Q600 128 617 143T645 170Q688 214 733 262T813 363T861 467Q864 479 864 495Q864 508 861 519T849 536Q846 538 846 540Q846 543 850 544T859
544Q883 531 892 512T902 473Q902 439 885 405T850 347Q824 312 789 278T718 213T655 156Q641 143 618 117T571 62L563 29Q557 8 547 -5Q541 -12 527 -16T504 -20Q499 -20 493 -18T486 -7Q486 0 493 11T508 35T521 52Q526 59 533 82T547 138T561 208T571 279Q572
290 572 300T573 318Q573 389 537 389Q507 389 451 339Q412 304 373 256T301 159T251 74Q241 50 233 30T216 -7Q210 -14 201 -17T184 -21Z" />
<glyph unicode="X" glyph-name="X" horiz-adv-x="625" d="M132 -14Q93 -14 67 5T28 56T15 122Q15 157 28 193Q30 195 33 195Q36 195 36 190T35 180Q36 124 50 91T89 44T141 29Q181 29 217 47T284 95T343 159T394 226Q376 276 362 323T337 406T320 461Q313 461
305 469T289 496Q253 494 220 494T170 491Q101 485 101 426Q101 407 109 385T128 340T144 299Q147 287 147 276Q147 250 132 237T99 224Q79 224 63 238Q59 242 61 245T67 243Q74 238 79 238Q92 238 104 255T116 301Q116 315 113 330Q109 346 102 361T90 391Q84
409 82 424T79 451Q79 495 107 509T170 523Q187 523 204 521T237 517Q245 516 257 516T284 515Q282 521 282 524Q288 535 307 535Q315 535 322 532T332 522Q332 519 334 515Q354 517 370 519T395 527Q398 529 402 529Q410 529 410 523Q410 518 403 514Q394 509
377 506T338 500Q349 462 369 395T417 259Q455 313 492 370T573 476Q590 496 611 510T656 536Q660 538 662 538Q667 538 667 534T666 527Q657 520 647 507T631 480Q621 458 611 442T578 423Q573 423 558 409T531 383Q506 355 480 317T426 237Q447 185 471 141T520
70T573 43Q604 43 631 60T696 130Q697 132 700 132Q702 132 703 130T702 124Q685 101 664 71T618 18Q586 -11 557 -11Q534 -11 514 6T474 54Q455 84 437 123T403 204Q364 149 321 99T231 18T132 -14Z" />
<glyph unicode="Y" glyph-name="Y" horiz-adv-x="388" d="M-8 -290Q-52 -290 -83 -265T-131 -200T-147 -115Q-147 -100 -146 -85T-140 -55Q-136 -51 -133 -51Q-130 -51 -130 -57T-129 -69Q-122 -132 -104 -166T-58 -215T-1 -229Q7 -229 14 -229T29 -227Q66 -222
111 -187T200 -103Q235 -62 264 -17T319 78Q306 68 292 63T279 64Q283 87 286 121T289 195Q289 233 285 273T271 350Q255 409 223 451T138 493Q105 493 84 472T62 418Q62 404 67 390T82 361Q100 339 129 321T179 285Q194 272 200 260T207 236Q207 219 195 210T168
203Q164 204 163 207T166 208H169Q180 208 180 224Q180 237 170 256T136 294Q124 303 109 311T82 329Q53 352 40 375T27 420Q27 458 62 484T144 510Q188 510 231 483T302 390Q323 338 330 279T337 170Q337 153 337 138T335 109Q361 159 385 210T436 310Q445 327
461 356T496 415T536 468T576 497Q578 498 581 498Q584 498 584 495Q584 491 580 487Q570 476 570 466T565 445T534 416Q524 409 501 373T448 283T385 168T321 49T265 -54T226 -119Q195 -163 159 -202T80 -266T-8 -290Z" />
<glyph unicode="Z" glyph-name="Z" horiz-adv-x="577" d="M430 -69Q376 -69 317 -51T200 -6T87 41L46 -5Q49 -8 52 -10T57 -14Q60 -17 60 -20Q60 -28 51 -22L39 -14L24 -33Q15 -43 9 -43Q0 -43 0 -30Q0 -18 9 -6Q10 -4 13 -1T18 3Q7 14 -4 30T-15 61Q-15 72 -8
79T17 91Q21 92 25 92T33 93Q40 93 47 92T63 88L94 78L224 208Q218 207 213 206T202 203Q191 201 182 199T165 197H163Q149 197 149 206Q149 209 151 212T154 219Q159 227 169 233T187 240Q203 241 222 243T262 246Q308 291 347 331T410 396T435 425V428Q409 430
372 436T310 448Q272 456 240 462T182 468Q151 468 135 454T118 401Q118 359 140 281V279Q140 275 135 275T128 278Q102 342 91 385T79 457Q79 491 94 504T136 517Q163 517 198 507T273 484T356 459T438 444Q445 464 463 477T500 500T533 524Q538 529 544 533T557
537Q563 537 568 534T573 517Q573 510 567 499T552 483Q522 466 507 451T465 412Q419 372 374 330T285 246Q311 246 333 245T375 239Q389 235 394 226T400 206Q400 195 395 185Q392 178 389 179T389 187Q393 194 393 199Q393 211 377 215T339 220Q313 220 286 217T250
212Q214 177 180 142T113 71Q153 56 198 37T290 2T383 -24Q397 -27 410 -28T435 -29Q498 -29 531 -1T564 59Q564 63 564 66T562 73Q561 76 561 79T561 83Q561 92 565 92Q569 92 573 83Q578 71 578 58Q578 35 566 10T532 -35T485 -62Q460 -69 430 -69ZM26 11L65
50Q59 53 52 55T38 61Q34 62 31 62T25 63Q8 63 8 47Q8 29 26 11Z" />
<glyph unicode="[" glyph-name="bracketleft" horiz-adv-x="296" d="M91 -13Q60 -13 42 -8T24 9Q24 14 25 18T28 30Q52 112 148 254Q249 403 320 450Q340 462 368 462Q440 462 441 448V446Q441 444 441 442T439 436H433Q431 435 428 435Q415 435 403 436T378 438Q355
438 348 434Q342 431 331 422T303 395Q273 364 240 323T169 229Q129 171 104 127T70 53Q67 43 67 35Q67 5 110 5Q122 5 134 6T159 8Q179 8 176 -2Q175 -9 152 -11T91 -13Z" />
<glyph unicode="\" glyph-name="backslash" horiz-adv-x="406" d="M379 -85Q376 -85 370 -81T364 -73Q364 -72 367 -69Q372 -67 375 -58Q376 -55 376 -49Q376 5 264 192L102 442Q98 449 98 455Q98 463 104 467T118 471Q134 471 232 306Q271 241 298 194T342 115Q354
92 361 79T370 61Q378 45 383 31T392 3Q398 -24 398 -44Q398 -58 395 -70Q390 -85 379 -85Z" />
<glyph unicode="]" glyph-name="bracketright" horiz-adv-x="374" d="M96 -13Q61 -13 42 -10T23 1Q23 3 23 5T24 13H36Q48 13 59 12T82 11Q109 11 116 14Q124 18 134 27T161 53Q191 84 224 125T295 219Q336 278 360 322T394 396Q397 407 397 414Q397 444 355 444Q343
444 331 443T307 441Q284 441 288 451Q290 458 309 460T362 462H373Q440 462 440 438Q440 435 439 431T435 418Q412 338 316 195Q215 46 145 -1Q126 -13 96 -13Z" />
<glyph unicode="^" glyph-name="asciicircum" horiz-adv-x="311" d="M231 500Q226 500 228 505Q230 510 246 521T292 551Q352 590 363 591Q368 590 376 580T398 551Q411 532 417 521T422 506Q421 500 415 500Q411 500 403 507T379 528L357 549Q353 553 350 556T345
560Q247 500 231 500Z" />
<glyph unicode="_" glyph-name="underscore" horiz-adv-x="488" d="M73 -99Q12 -99 0 -95Q7 -65 45 -65Q86 -65 127 -66T208 -68Q220 -68 265 -69T387 -72L447 -73H480Q488 -74 488 -78Q488 -86 461 -89Q456 -90 436 -91T382 -93L224 -96Q175 -97 137 -98T73 -99Z" />
<glyph unicode="`" glyph-name="grave" horiz-adv-x="119" d="M121 326Q121 321 102 333T59 358Q45 366 36 370T16 382Q2 391 2 399Q2 414 16 414Q21 414 25 411L64 378Q98 351 109 341T121 326Z" />
<glyph unicode="a" glyph-name="a" horiz-adv-x="300" d="M216 -9Q188 -9 188 34Q188 61 196 85T211 135Q195 118 181 102T149 70Q133 55 116 41T82 15Q51 -5 35 -5Q19 -5 19 14Q19 36 36 73Q46 95 63 121T100 172Q118 194 142 217T196 256T254 272Q277 272 292
262T308 228Q308 204 299 199Q296 196 295 197T294 198Q293 208 285 218T265 233Q252 237 236 237Q199 237 167 216T111 165Q92 140 81 114T69 67Q69 37 85 37Q95 37 107 46T127 62Q156 88 181 119T217 164Q219 166 228 170T249 178L270 183Q276 183 276 182Q270
174 260 149T241 96T233 47Q233 31 239 26Q242 23 247 23Q255 23 264 28T283 41Q318 67 349 105T403 173Q403 173 405 171Q407 166 405 163Q392 146 378 128T350 91Q335 74 320 58T287 27Q267 11 249 1T216 -9Z" />
<glyph unicode="b" glyph-name="b" horiz-adv-x="257" d="M48 -25Q41 -25 41 -20T45 -15Q71 -13 94 -5T142 23Q170 47 197 82T238 143Q244 155 249 171T255 201Q255 221 239 221Q228 221 207 209Q177 190 149 157T110 91Q109 86 108 81T106 70Q106 51 116 43Q100
21 84 21Q73 21 65 31T57 57Q57 80 64 105T82 155L182 392Q186 400 190 414T194 441Q194 452 190 459T172 467Q161 467 148 463T124 454Q124 456 126 459T129 464Q133 466 153 473T192 488Q208 494 225 504Q227 505 235 509T246 513H248Q257 513 257 500Q257 493
255 482T248 460Q240 438 230 418T218 392L124 185Q121 178 116 160T108 127T104 112Q130 151 161 185T230 238Q262 253 278 253Q291 253 297 245Q305 235 305 221Q305 201 294 175T269 125T245 89Q208 43 157 9T48 -25Z" />
<glyph unicode="c" glyph-name="c" horiz-adv-x="219" d="M99 -7Q68 -7 56 7T43 44Q43 66 52 90T75 136Q106 185 151 222T239 269Q243 270 246 270T252 271Q278 271 278 241Q278 231 275 223T269 211Q266 207 265 207Q262 231 245 235Q235 238 224 238Q195 238
170 221T128 178T100 127Q89 99 89 75Q89 53 99 39T135 24Q174 24 208 48T272 108T322 172Q323 173 324 171Q327 168 324 163Q315 150 305 137T284 110Q262 82 234 55T173 11T99 -7Z" />
<glyph unicode="d" glyph-name="d" horiz-adv-x="302" d="M216 -9Q203 -9 195 1T187 34Q187 61 195 85T211 134Q195 117 180 101T149 70Q133 54 116 40T82 14Q51 -6 35 -6Q19 -6 19 14Q19 36 36 72Q46 94 63 120T100 170Q118 193 140 216T187 254T237 268Q241
268 250 265Q258 289 267 311T286 355Q313 415 342 465T400 544T453 574Q462 574 471 568Q485 558 485 536Q485 513 473 483T443 422T409 366T383 327Q346 274 312 232T265 176L260 168L242 100Q238 82 235 69T232 46Q232 31 238 25Q240 23 246 23Q254 23 263 28T283
40Q318 66 349 103T402 171Q403 172 405 170Q408 165 405 162Q392 145 378 127T349 90Q335 73 319 57T286 27Q266 11 248 1T216 -9ZM269 200Q283 217 296 233T327 271T370 332Q379 345 399 378T437 448Q449 473 458 496T467 535Q467 554 454 554Q442 554 424 536T384
479Q362 440 340 390T299 289T269 200ZM85 37Q95 37 106 46T126 62Q146 79 166 102T203 146T226 178Q231 186 234 196T237 214Q237 222 233 228T215 235Q186 235 160 214T111 163Q92 138 81 112T69 66Q69 37 85 37Z" />
<glyph unicode="e" glyph-name="e" horiz-adv-x="235" d="M122 -12Q82 -12 66 6T49 51Q49 67 54 84T67 118Q60 122 60 128Q60 137 81 144Q90 157 103 179T133 225T168 264T203 280Q217 280 221 269Q225 270 232 270Q261 270 261 240Q261 217 245 197T207 171L208
166Q208 166 218 167T235 170Q252 171 272 170T298 161Q300 159 298 158T293 158Q285 162 267 162Q243 162 211 156T151 142T114 126Q105 112 96 91T87 49Q87 31 97 19T136 6Q166 6 191 21T239 58T278 101Q280 103 292 117T317 147T337 173Q337 173 339 171Q341
167 338 163Q325 147 312 129T285 94Q265 69 241 45T187 4T122 -12ZM124 146Q143 153 154 156T174 163Q183 168 191 174T210 193Q219 204 225 217T231 242Q231 252 225 258Q219 264 204 251T172 217Q156 197 143 177T124 146Z" />
<glyph unicode="f" glyph-name="f" horiz-adv-x="201" d="M-222 -355Q-254 -355 -278 -336T-302 -269Q-302 -240 -291 -209T-264 -150T-230 -100T-200 -67Q-195 -62 -195 -66T-196 -72Q-211 -93 -228 -124T-256 -188T-268 -251Q-268 -255 -268 -259T-267 -268Q-261
-303 -244 -317T-204 -332Q-184 -332 -163 -322T-122 -296Q-90 -269 -64 -228T-15 -144Q7 -101 23 -61T50 5L104 153Q94 150 87 148T70 143Q67 142 65 142T61 142Q53 142 53 147Q53 149 54 151T57 157Q62 165 70 174T86 184L119 193Q137 246 155 308T197 432T253
544Q275 579 299 594T345 610Q365 610 378 596T391 558Q391 554 391 550T390 542Q383 500 359 454T302 361T235 274T174 201Q191 206 208 208T238 212Q240 212 242 212T246 213Q254 213 255 212T257 209Q257 205 250 203Q233 200 209 192T163 172T136 140L90 5Q60
-89 21 -171T-78 -300Q-105 -320 -145 -337T-222 -355ZM165 221Q165 217 171 221T190 242Q198 251 219 278T268 344T321 426T364 508Q372 526 375 539T378 563Q378 589 359 589Q344 589 323 572T283 523Q259 483 239 434T203 335T172 244Q169 236 167 230T165 221Z"
/>
<glyph unicode="g" glyph-name="g" horiz-adv-x="284" d="M-98 -369Q-159 -369 -199 -347T-240 -283Q-240 -257 -221 -223T-158 -149Q-111 -105 -43 -75T99 -28T240 -9Q240 27 239 63T235 136Q217 100 199 78Q174 47 146 29T92 5Q76 1 61 1Q39 1 30 11T21 37Q21
62 36 92T77 147Q94 164 110 175T146 198Q171 213 189 224T229 251Q229 257 230 263T232 273Q237 295 249 304T271 314Q284 314 284 301Q284 290 269 272L242 246L245 219Q252 161 263 105T279 -10H280Q322 -10 341 -22T361 -50Q361 -62 355 -62Q350 -62 350 -53Q350
-42 337 -36T308 -25T280 -20Q281 -27 281 -34T281 -50Q281 -124 252 -181T173 -279T59 -341T-76 -368Q-81 -368 -87 -368T-98 -369ZM106 25Q128 25 144 36T191 82Q204 97 214 113T234 152Q233 168 232 184T230 215V235L181 196Q157 177 135 157T93 110Q86 100
81 86T75 57Q75 44 82 35T106 25ZM-112 -357Q-95 -357 -76 -354Q12 -341 83 -298T197 -184T240 -21V-20Q177 -22 113 -37T-11 -82T-116 -154Q-163 -198 -184 -233T-205 -294Q-205 -325 -180 -341T-112 -357Z" />
<glyph unicode="h" glyph-name="h" horiz-adv-x="284" d="M21 -26Q21 -24 22 -21T25 -15Q28 -9 32 1T41 25Q56 63 68 96T100 181L134 268Q106 273 97 285T87 308Q87 313 89 319Q91 325 94 326T99 328Q102 328 102 326Q102 324 100 320T97 311Q97 303 102 297Q106
292 115 288T131 284Q141 284 142 289Q177 372 220 448T331 580Q374 615 411 631T477 648Q512 648 532 628T553 572Q553 546 540 514T499 444Q459 392 403 356T286 300T170 271Q159 241 145 203T118 130T100 78Q140 119 176 158T244 234Q263 256 290 256Q295 256
301 255T312 252Q317 250 315 248T309 245Q304 244 296 237T275 209Q254 178 239 144T218 71Q217 65 217 59T216 48Q216 33 221 25T239 20Q254 25 271 39T304 71T330 100Q332 102 343 116T368 146T388 171Q390 173 390 170Q392 165 389 162Q377 146 364 129T337
94Q317 70 295 48T246 9Q223 -4 208 -4Q199 -4 192 0Q182 6 178 17T173 43Q173 72 185 107T208 165Q174 138 151 118Q139 107 128 96T107 72Q96 57 88 35T77 -1Q67 -7 50 -14L21 -27V-26ZM174 284Q230 293 288 318T397 382T484 468Q512 506 524 534T536 583Q536
607 521 619T482 631Q452 631 415 614T344 561Q309 525 276 475T215 375T174 284Z" />
<glyph unicode="i" glyph-name="i" horiz-adv-x="151" d="M147 283Q138 283 138 295Q138 309 153 318T187 334T215 341H220Q226 341 226 339Q226 335 212 324L188 305Q182 301 176 297T165 290Q153 283 147 283ZM82 -1Q69 -1 60 6T47 31Q46 40 53 66T73 124T98
183T116 220Q122 228 140 237T169 248Q174 251 174 248Q166 238 154 216T128 167T105 112T91 67Q90 62 90 57T89 47Q89 18 106 18Q117 18 131 31Q150 47 168 65T208 112Q208 112 212 110L215 107Q210 101 195 84T162 48T133 20Q122 11 109 5T82 -1Z" />
<glyph unicode="j" glyph-name="j" horiz-adv-x="172" d="M94 283Q86 283 86 295Q86 309 101 318T134 334T162 341H167Q173 341 173 339Q173 335 159 324L135 305Q129 301 123 297T112 290Q100 283 94 283ZM-192 -369Q-253 -369 -292 -347T-331 -285Q-331 -259
-312 -227T-251 -155Q-207 -114 -143 -85T-9 -40T124 -21Q123 22 119 61T104 158Q82 129 55 95T7 44H6Q5 44 4 47T5 52Q31 78 55 110Q70 129 80 147T91 190Q91 195 91 199T89 209V211Q89 216 91 219T97 224Q100 226 104 233T107 247V249Q107 253 109 253Q115 253
117 240Q117 240 122 216T134 154T147 69T155 -21Q181 -21 206 -28T238 -59Q239 -61 239 -64Q239 -71 235 -72T230 -69Q232 -56 220 -49T190 -38T156 -33Q160 -135 119 -208T2 -321T-170 -368Q-175 -368 -181 -368T-192 -369ZM-206 -357Q-189 -357 -170 -354Q-110
-345 -58 -317T35 -246T99 -148T124 -33Q66 -36 5 -51T-112 -93T-211 -160Q-257 -203 -277 -236T-298 -296Q-298 -325 -273 -341T-206 -357Z" />
<glyph unicode="k" glyph-name="k" horiz-adv-x="254" d="M346 -95Q321 -95 291 -77T231 -28T181 40T150 116Q131 101 117 85T96 51Q97 35 102 22T118 4Q104 -17 88 -17Q76 -17 68 -5T57 26Q57 30 57 33T56 41Q56 63 61 83T79 132L189 393Q192 401 196 414T201
440Q201 451 196 459T177 468Q166 468 154 464T131 454Q131 456 132 459T135 464Q140 466 160 473T199 488Q207 491 215 495T232 504Q234 505 242 509T252 513H254Q264 513 264 500Q264 493 261 482T254 460Q247 438 237 418T225 393L124 168Q116 149 109 127T99
84Q120 113 146 136Q145 142 145 147T144 158Q144 181 151 198Q168 249 236 277Q266 289 286 289Q322 289 322 263Q322 248 306 228T254 186Q235 175 213 161T169 131Q179 97 201 65T251 5T308 -43Q319 -50 334 -55T359 -61Q372 -61 372 -52Q372 -44 361 -30Q360
-29 360 -28Q360 -26 364 -26T371 -28Q386 -41 386 -59Q386 -73 376 -84T346 -95ZM165 153Q186 172 208 188T249 219Q274 238 274 249Q274 259 257 259Q247 259 229 254Q213 250 197 236T172 201T165 153Z" />
<glyph unicode="l" glyph-name="l" horiz-adv-x="222" d="M128 -7Q97 -7 84 14T71 66Q71 84 74 104T83 146Q90 176 104 218T137 307T176 399T215 483T251 544Q275 579 300 594T346 610Q366 610 378 598T391 562Q391 553 388 542Q379 500 353 454T291 361T220 274T155
201Q131 175 122 132T113 53Q113 29 120 19T141 9Q150 9 161 13T183 25Q224 50 254 85T312 159Q312 160 317 158T321 154Q291 114 258 73T178 7Q150 -7 128 -7ZM148 221Q148 217 154 221T173 242Q181 251 204 278T256 344T314 425T360 508Q377 543 377 566Q377
588 359 588Q345 588 323 572T280 523Q255 483 233 434T191 335T155 244Q148 227 148 221Z" />
<glyph unicode="m" glyph-name="m" horiz-adv-x="401" d="M352 -69Q313 -69 313 -15Q313 3 317 27T330 84Q333 97 342 124T359 171Q338 155 311 131T261 82T225 44Q217 33 217 37L206 29Q199 25 194 25T188 30Q188 38 191 56T200 97T211 140T224 173Q180 138 146
101T97 16Q96 12 90 10T75 5Q68 4 60 2T45 -4Q45 -2 47 2T50 8Q53 14 56 24T67 48Q76 65 84 86T99 122T105 138L117 165Q119 172 121 178T125 190Q126 194 126 200Q126 210 122 216T103 222Q92 222 80 217T56 207Q57 209 58 213T61 218Q66 220 86 228T125 243Q133
246 141 250T157 259Q159 261 166 265T175 269H177Q186 269 186 255Q184 240 175 216Q167 194 157 173T144 147L116 83Q158 126 194 165T262 243Q281 266 309 266Q314 266 320 266T331 263Q336 261 334 259T328 255Q312 251 295 228T264 174T240 112T229 63Q229
62 229 61T228 57Q244 77 260 94T292 129Q310 148 329 165T367 202Q372 208 378 210T392 214Q401 216 409 217T424 223Q431 228 433 227T436 225V223Q436 217 428 210Q416 199 403 176T380 125T362 74Q349 29 349 -1Q349 -42 377 -42Q392 -42 409 -25T437 2Q438
2 438 2T438 1Q435 -12 406 -40Q392 -54 376 -61T352 -69Z" />
<glyph unicode="n" glyph-name="n" horiz-adv-x="295" d="M45 1Q45 4 47 7T50 12Q53 19 56 29T67 52Q75 67 84 89T103 133T118 169Q120 176 122 182T126 194Q127 198 127 204Q127 214 122 220T103 226Q93 226 81 222T58 212Q58 214 59 218T63 223Q67 225 88 232T127
247Q142 253 158 263Q160 264 167 268T177 272H179Q187 272 187 261Q187 254 185 243T177 219Q168 197 158 176T145 150L117 87Q159 129 195 168T264 245Q284 268 314 268Q326 268 334 264Q339 262 337 260T330 257Q316 253 297 230T262 176T236 115Q228 89 228
67Q228 53 233 44T249 35Q265 35 291 53Q305 63 326 85T367 133T399 173Q399 173 401 171Q403 166 400 163Q393 153 382 138T357 106Q343 90 328 73T297 44Q283 32 266 24T233 16Q210 16 201 30T192 65Q192 82 196 100T206 134Q211 149 225 176Q194 151 166 125T120
73Q113 63 107 48T97 19Q96 16 90 14T75 9Q68 8 60 6T45 0V1Z" />
<glyph unicode="o" glyph-name="o" horiz-adv-x="270" d="M118 -9Q94 -9 78 9T61 65Q61 99 76 133T116 194T173 236Q181 239 188 241T202 243Q217 243 228 235T239 210Q239 206 239 203T237 196Q236 192 232 191T227 194Q229 211 221 220T199 230Q190 230 182
226Q157 214 139 190T111 136T101 80Q102 22 140 22Q161 22 184 39Q207 56 224 86T251 150T261 213Q261 230 257 244T243 265Q238 269 227 269Q210 269 201 262Q195 258 194 258Q190 258 190 263Q190 267 194 273Q200 283 213 288T240 293Q256 293 268 286Q294
272 294 227Q294 195 281 155T244 79T190 19Q154 -9 118 -9Z" />
<glyph unicode="p" glyph-name="p" horiz-adv-x="330" d="M-200 -348Q-231 -348 -259 -331T-293 -279Q-294 -273 -294 -268T-295 -256Q-295 -224 -283 -195T-255 -142T-225 -107Q-221 -103 -219 -106T-218 -112Q-231 -128 -243 -153T-263 -206T-271 -259Q-271
-297 -252 -315T-209 -334Q-178 -334 -149 -314T-95 -262T-50 -199T-19 -144Q3 -101 19 -61T45 5L126 229Q128 236 131 248T134 272Q134 285 129 294T108 304Q97 304 85 300T63 290V293Q64 298 67 301Q71 303 91 310T128 324Q136 327 144 331T160 340L180 350H181Q193
350 193 332Q193 324 191 314T186 293Q180 270 172 249T162 222L111 77Q142 123 183 162T265 227T339 252Q377 252 377 222Q377 199 357 165T310 105Q333 116 356 126T402 143Q412 146 412 142Q412 137 398 131Q378 124 349 108T279 71L212 27Q174 2 141 2Q118
2 118 17Q118 25 125 34T140 45Q171 53 206 62T269 88Q295 104 309 129T323 175Q323 189 317 198T296 207Q284 207 269 200Q233 184 197 152T132 81T85 2Q72 -34 54 -80T12 -173T-43 -259T-114 -323T-200 -348Z" />
<glyph unicode="q" glyph-name="q" horiz-adv-x="276" d="M118 -283Q92 -283 82 -263T71 -215Q71 -185 79 -155Q90 -116 111 -69T154 20Q165 41 175 59T192 92L205 115Q207 119 209 123T214 136Q198 119 183 103T152 72Q136 56 119 42T84 17Q53 -3 37 -3Q21 -3
21 16Q21 27 26 42T38 74Q49 97 66 122T102 173Q120 195 144 217T198 256T257 272Q280 272 295 262T311 229Q311 217 308 210T302 200Q298 196 298 197T296 199Q295 208 288 218T268 233Q255 237 238 237Q202 237 169 216T113 166Q94 141 83 115T72 68Q72 39 87
39Q97 39 109 48T129 64Q158 90 183 121T219 165Q221 167 231 171T252 179L272 184Q278 184 279 183Q272 175 266 162Q262 155 256 146T244 124Q237 112 221 80T184 5T145 -81T117 -160Q107 -194 107 -218Q107 -257 137 -257Q158 -257 186 -237T236 -188Q265 -153
285 -115T305 -53Q305 -43 301 -38Q299 -34 301 -32T306 -33Q314 -44 314 -64Q314 -97 290 -142Q279 -162 261 -186T218 -232T169 -268T118 -283Z" />
<glyph unicode="r" glyph-name="r" horiz-adv-x="248" d="M166 -2Q150 0 143 11T136 37Q136 58 144 83T163 131T180 164L197 192Q184 187 174 187Q150 187 139 211Q135 206 130 198T123 186Q108 165 87 138T45 86T7 47H6Q5 47 4 50T5 55Q19 69 33 85T59 118Q70
132 84 152T110 192T127 228Q126 236 128 253T145 300Q151 313 166 313Q176 313 185 308T198 294Q180 279 167 262Q162 255 156 244T150 221Q150 214 154 209T170 203Q186 203 202 211T233 224Q240 226 246 228T257 230Q271 230 270 215Q248 193 230 167T198 111Q195
104 189 90T179 60T174 32Q174 13 187 13Q192 13 199 15T217 25Q240 41 264 66T308 118T342 164Q344 166 346 166Q348 166 349 162T347 153Q316 109 285 75T225 19Q208 6 193 2T166 -2Z" />
<glyph unicode="s" glyph-name="s" horiz-adv-x="247" d="M80 -95Q59 -95 48 -78T33 -40T26 -3Q10 4 1 12T-9 28Q-9 31 -6 35T2 39Q10 36 24 31T55 23T81 20Q84 37 85 54T88 88Q90 105 92 121T98 154Q112 203 142 238T230 293Q247 298 259 298Q274 298 286 292T300
274Q301 271 301 266Q301 246 286 228T250 195T213 174Q212 173 212 176T213 179Q221 182 236 194T261 219Q272 233 272 244Q272 258 254 258Q246 258 235 255Q198 245 165 221T117 158Q111 141 109 118T106 71Q106 55 107 41T109 19Q116 18 122 18T134 18Q164
18 191 26T244 54Q273 76 299 109T342 165Q343 166 345 166Q350 166 350 159Q350 158 341 145T317 113T286 76T255 45Q221 19 189 10T133 0Q126 0 121 0T110 2Q109 -7 108 -22T104 -55Q101 -72 96 -83T80 -95ZM58 -51Q70 -51 75 -34L80 -4Q71 -4 62 -3T41 -1Q40
-8 42 -19T45 -35Q48 -51 58 -51Z" />
<glyph unicode="t" glyph-name="t" horiz-adv-x="186" d="M111 -1Q84 -1 73 12T62 46Q62 57 64 69T71 94Q76 112 83 129T100 164L137 235Q138 237 139 239T142 243Q136 242 130 240T119 235Q112 232 105 230T92 225Q89 224 84 224Q77 224 77 229Q77 237 85 246T101
256Q112 258 126 262T155 269Q169 295 180 322T198 377Q200 382 200 386T200 395Q200 408 195 412T181 417Q174 417 164 414T146 406L147 408Q147 415 150 415L202 436L233 451Q241 455 247 458T254 461H255Q265 461 265 447Q265 437 259 422Q244 385 225 348T185
274Q201 276 214 276T241 275Q255 274 261 266T268 248Q268 244 266 238Q265 234 263 234Q257 234 259 242Q264 254 256 259T234 264Q230 264 225 264T215 262Q204 261 193 258T174 253L151 209Q147 202 139 184T121 141T105 94T98 52Q98 32 110 24Q117 20 125
20Q144 20 165 35T204 70T231 100Q233 102 245 116T270 146T290 172Q290 172 292 170Q294 166 291 162Q279 146 266 129T238 94Q224 76 204 54T160 15T111 -1Z" />
<glyph unicode="u" glyph-name="u" horiz-adv-x="247" d="M237 -53Q215 -53 206 -31T197 22Q197 54 203 85T215 131L152 69Q136 54 119 40T85 15Q54 -4 37 -4Q17 -4 17 18Q17 42 37 74Q40 78 54 98T88 146T122 201Q130 213 136 231T143 263Q143 282 129 282Q120
282 107 275Q106 274 106 278T109 283Q118 289 134 294T161 296Q175 292 181 284T187 264Q187 245 174 223T151 187L103 122Q91 106 83 90T69 61Q68 57 68 54T67 48Q67 35 81 35Q95 35 113 50Q134 66 157 91T200 140T226 173Q233 183 251 189T282 195Q291 195 293
193Q274 173 260 137T237 62T228 -5Q228 -24 232 -35T247 -44H248Q251 -44 251 -47Q251 -53 237 -53Z" />
<glyph unicode="v" glyph-name="v" horiz-adv-x="321" d="M161 -19Q166 -13 171 2T178 34Q181 56 183 78T185 123Q185 132 185 141T183 159Q182 178 175 185T158 192Q145 192 132 184T108 164Q101 156 95 148T81 133Q78 130 73 130Q72 130 73 133L109 178Q120
192 138 211T175 230Q200 230 209 211T219 164Q219 140 214 112T202 60T190 19Q241 84 292 159T384 296Q389 304 401 308T424 314H431Q439 314 442 313Q445 311 442 308L334 180Q301 140 271 101T226 37Q223 32 221 26T216 15Q213 10 211 6T204 0Q197 -4 189 -8T172
-16Q165 -19 161 -19Z" />
<glyph unicode="w" glyph-name="w" horiz-adv-x="501" d="M122 -16Q117 -16 121 -8T132 16Q134 20 140 26T147 38Q158 69 167 107T180 181Q180 184 180 186T181 191Q181 211 169 211Q157 211 138 194T107 164L71 117Q71 117 71 117T69 116Q63 116 66 124L94 163Q111
187 128 211T165 249Q174 255 184 259T204 264Q215 264 223 256T231 226Q231 210 225 184Q219 156 206 125T179 66T156 22Q186 52 211 77T261 127T315 185Q327 198 339 198Q347 198 347 191Q347 184 339 176L338 175Q341 138 352 108T378 59Q400 31 422 31Q442
31 458 50T483 98T493 158Q493 181 487 202T466 239Q454 252 444 260T423 268Q421 268 419 268T413 266Q408 266 405 269Q402 274 402 281Q402 289 408 296Q416 304 427 304Q443 304 461 285Q484 260 494 225T504 151Q504 110 493 72T463 9T418 -15Q393 -15 365
13Q342 37 326 74T313 155Q313 160 315 166Q276 133 243 96T180 18Q176 13 173 9T166 3Q128 -16 122 -16Z" />
<glyph unicode="x" glyph-name="x" horiz-adv-x="297" d="M-38 -99Q-40 -99 -40 -95Q-39 -91 -21 -68T27 -11T92 61T160 132L136 242Q134 216 121 188T91 143Q90 142 88 142Q85 142 84 144T84 150Q105 178 117 216T128 287Q128 295 143 295Q155 295 166 288T179
266Q181 253 185 230T192 185T198 158Q230 193 263 229T333 300Q338 303 353 309Q358 310 361 310T363 307Q363 306 342 285T284 229T200 149Q205 129 210 108T222 72Q238 41 262 41Q275 41 288 48T313 69Q336 94 354 117T394 166Q395 168 398 165T399 159Q386
141 362 111T313 54T267 15Q251 7 239 7Q217 7 201 25T175 70T163 118Q143 99 117 70T63 11T16 -44T-13 -78Q-29 -99 -38 -99Z" />
<glyph unicode="y" glyph-name="y" horiz-adv-x="325" d="M102 -355Q69 -355 45 -335T21 -275Q21 -267 22 -258T26 -238Q34 -209 43 -190T71 -140Q91 -111 113 -80T160 -18Q164 -13 170 3T178 36Q180 49 181 71T183 117Q183 191 153 191Q132 191 103 156L55 98Q53
96 52 96Q50 96 49 99T50 105Q65 124 79 143T100 173Q117 199 137 214T175 230Q200 230 209 212T219 165Q219 141 214 114T202 62T190 21Q241 86 292 160T384 296Q389 304 401 309T424 314H431Q439 314 442 313Q445 311 442 308Q427 290 397 254T332 173T263 86T207
13Q178 -25 147 -68T93 -157T62 -246Q61 -250 61 -253T61 -262Q61 -290 76 -314T120 -338Q132 -338 146 -333T177 -314Q182 -310 186 -310Q189 -310 189 -314Q189 -321 184 -324Q165 -340 144 -347T102 -355Z" />
<glyph unicode="z" glyph-name="z" horiz-adv-x="295" d="M-86 -309Q-136 -309 -164 -285T-192 -226Q-192 -194 -167 -157T-86 -88Q-50 -68 -7 -53T80 -27T162 -12T224 -8Q226 -8 229 -8T236 -9Q240 0 244 11T252 35Q258 56 258 70Q258 90 249 98T227 107Q221
107 215 105T203 100Q193 96 184 88T166 71Q162 67 159 64T153 57L146 51Q137 48 130 53T120 67T119 77Q156 111 174 147T193 206Q193 216 190 222T178 229Q158 229 121 182L103 159Q93 146 84 137Q81 134 76 134Q75 134 76 137L100 168L111 185Q121 200 134 220T162
250Q184 266 205 266Q221 266 231 257T241 231Q241 223 239 213T230 191Q223 175 212 159T189 128L168 102Q164 97 160 91T150 74Q164 86 176 95T199 111Q234 129 255 129Q277 129 285 114T294 77Q294 55 288 32T273 -12Q328 -23 334 -44Q334 -45 332 -47Q330 -47
330 -47Q328 -37 312 -30T270 -19Q247 -69 208 -122T121 -219T21 -285Q-10 -298 -36 -303T-86 -309ZM-94 -300Q-73 -300 -47 -293T11 -269Q55 -246 96 -205T172 -113T232 -16L221 -15Q198 -13 161 -19T80 -38T-6 -69T-81 -110Q-126 -141 -147 -174T-168 -236Q-168
-264 -149 -282T-94 -300Z" />
<glyph unicode="{" glyph-name="braceleft" horiz-adv-x="260" d="M150 -30Q106 -30 87 -16Q72 -4 72 17Q72 24 73 31T77 46Q83 69 106 117Q117 140 124 157T135 187Q138 199 138 209Q138 251 71 252L85 268Q138 274 163 290Q190 307 211 354Q216 368 224 388T245
436Q269 493 309 516Q346 538 406 538Q412 538 415 529L401 524Q331 524 296 468Q283 439 271 410T243 352Q206 277 139 258Q171 244 171 210Q171 199 166 182Q163 170 156 153T138 112Q127 89 120 72T109 43Q105 28 105 17Q105 2 113 -4Q114 -4 163 -15L171 -23Q157
-30 150 -30Z" />
<glyph unicode="|" glyph-name="bar" horiz-adv-x="147" d="M94 -120Q89 -120 80 -113Q73 -105 67 -92T56 -62Q52 -48 51 -20T49 48Q49 109 52 193Q60 327 67 399T84 479Q94 487 100 487Q104 487 108 484Q110 481 110 470Q108 457 106 437T101 388Q79 187 77 43Q77
31 77 22T76 4Q76 -21 78 -41T85 -75Q87 -80 89 -84T92 -91Q100 -96 109 -95Q110 -94 111 -94T112 -96Q113 -96 113 -99Q113 -103 110 -108T104 -116Q99 -120 94 -120Z" />
<glyph unicode="}" glyph-name="braceright" horiz-adv-x="314" d="M31 -21Q26 -21 21 -12Q41 -2 61 -3T100 5Q123 16 142 49Q144 52 154 74T183 137Q209 194 239 219Q274 247 313 259Q273 272 273 311Q273 325 277 338Q281 349 288 366T306 405Q327 449 333 471Q338
489 338 498Q338 513 329 517L280 528L273 535L286 543Q338 543 356 532Q372 522 372 498Q372 492 371 485T368 470Q361 447 338 400Q326 377 319 360T308 332Q307 325 306 319T304 308Q304 290 316 281Q328 270 373 266L357 250Q275 248 238 180L178 51Q131 -21
31 -21Z" />
<glyph unicode="~" glyph-name="asciitilde" horiz-adv-x="295" d="M299 314Q284 314 259 325Q235 337 222 337Q205 337 192 326T168 315L167 318Q170 327 182 336T215 355Q232 364 249 364Q257 364 266 362T287 355Q311 346 324 346Q345 346 363 363Q372 365
369 358Q366 343 324 321Q311 314 299 314Z" />
<glyph unicode="&#xa0;" glyph-name="uni00A0" horiz-adv-x="203" />
<glyph unicode="&#xa1;" glyph-name="exclamdown" horiz-adv-x="187" d="M156 204Q146 204 149 213Q156 243 189 260Q196 259 202 249Q207 242 207 237Q207 227 190 215Q177 205 167 205Q163 204 161 204T156 204ZM-19 -207Q-29 -207 -29 -195Q-29 -189 -26 -180Q-19
-156 -5 -125T29 -56L97 67Q103 78 109 94T124 129Q132 147 140 147Q146 147 147 140Q143 124 132 99T103 37Q91 11 71 -34T21 -144Q26 -149 26 -157Q26 -162 25 -165Q22 -176 8 -192Q-7 -207 -19 -207Z" />
<glyph unicode="&#xa2;" glyph-name="cent" horiz-adv-x="369" d="M128 -138Q119 -138 116 -119Q115 -113 115 -106T115 -91Q115 -70 118 -43Q120 -26 126 0T142 63Q135 62 130 62T118 61Q81 61 66 80T51 128Q51 157 62 190T90 251Q122 306 166 351T255 417Q310
578 322 582Q328 584 329 584Q337 584 339 573Q339 566 336 555Q330 540 321 518T301 464Q298 455 295 446T288 429Q292 430 295 430T301 430Q332 430 332 390Q332 376 329 366T321 350Q319 345 317 345Q315 360 310 369T293 382Q283 385 273 385Q245 308 221 238T178
104Q180 104 181 104T184 105Q220 113 253 140T315 201Q327 216 333 216Q337 216 337 210Q337 201 331 193Q302 150 259 117T168 69V68Q159 41 154 23T147 -3Q135 -47 132 -77Q131 -84 131 -90T132 -101Q135 -113 141 -115L143 -118V-119Q143 -124 139 -129T131
-137Q130 -137 130 -137T128 -138ZM153 103Q164 138 176 177T203 263L243 382Q214 375 190 352T148 298T120 239Q114 221 111 203T107 169Q107 142 117 124T153 103Z" />
<glyph unicode="&#xa3;" glyph-name="sterling" horiz-adv-x="476" d="M477 -67Q408 -67 338 -39T202 24Q195 11 190 0T180 -20Q153 -66 117 -66Q84 -66 56 -28Q40 -5 30 24T20 78Q20 101 28 116T56 131Q76 131 113 112T198 66Q209 95 218 117T235 162Q216 160
202 159T177 158Q153 158 142 162Q149 192 187 192H245Q252 209 259 230T275 277Q292 330 308 370T340 438Q396 540 469 540Q506 540 526 522T555 476T561 415Q561 403 553 403Q548 403 549 415Q551 456 526 476Q502 497 462 497Q411 497 366 420Q361 408 347 372T315
289T275 191Q298 191 320 191T366 190L365 188Q367 188 367 183Q365 176 347 175Q331 172 295 169Q287 168 280 167T264 165Q251 135 240 108T217 57Q262 33 312 9T414 -31T512 -47Q542 -46 562 -29T577 22Q574 36 566 45T558 58Q560 63 563 62T570 59Q603 35 603
7Q603 -19 577 -39T512 -65Q503 -66 495 -66T477 -67ZM116 -53Q129 -53 142 -41T165 -10Q173 4 185 33Q167 42 151 51T117 67Q95 78 82 78Q65 78 65 55Q65 51 65 46T67 33Q73 -13 86 -33T116 -53Z" />
<glyph unicode="&#xa4;" glyph-name="currency" horiz-adv-x="322" d="M74 167Q65 167 65 180Q65 187 71 199Q75 205 84 218T106 248Q99 252 96 260Q83 278 83 297Q83 302 84 308T87 320Q96 348 118 370Q109 384 103 393T93 410Q88 421 83 433T76 455Q79 463 81
463Q84 463 91 449Q96 437 108 417T130 382Q147 394 164 400T198 407Q214 407 227 402Q287 468 293 464Q301 460 299 449Q299 445 296 440Q284 430 263 407Q259 402 255 398T246 389L252 382Q264 364 264 342Q264 332 261 320Q252 290 229 269L267 232Q276 222
284 214T298 201L302 193V190Q302 182 296 178Q288 174 213 256Q182 234 149 234Q137 234 123 237Q115 224 106 210T87 178Q81 167 74 167ZM161 272Q171 272 180 276T198 287Q216 301 222 320Q224 328 224 333Q224 344 217 354Q207 369 188 369Q167 369 149 354Q132
340 126 320Q124 312 124 307Q124 295 131 287Q141 272 161 272Z" />
<glyph unicode="&#xa5;" glyph-name="yen" horiz-adv-x="306" d="M85 -177Q53 -177 53 -145Q53 -139 54 -132T58 -117Q76 -53 207 116L202 115L207 128Q194 128 183 128T162 127Q113 127 96 133Q105 163 141 163Q174 163 214 160Q220 190 220 221Q200 220 184
220T155 220Q113 220 105 224Q114 254 139 254Q159 254 179 253T218 251Q210 335 171 377V368Q171 311 124 311Q115 311 115 315Q115 321 123 323Q146 325 146 347Q146 360 140 374T128 401T124 420Q132 444 155 444Q206 444 230 368Q248 314 247 251L315 249Q366
310 406 355T477 428Q473 427 469 425T460 423Q449 423 449 429Q449 438 467 442Q505 452 532 477Q548 491 565 491Q578 491 575 482Q575 480 568 473Q512 424 456 368T342 248L407 246H432Q437 244 437 241Q437 232 418 229Q412 228 388 227T321 225Q306 208 292
191T264 157Q290 156 317 156T371 155L370 152H371V150L370 146Q370 141 352 138Q338 136 310 134T241 130Q180 54 145 -2T98 -97Q92 -119 92 -133Q92 -153 105 -153Q115 -153 145 -138Q160 -130 169 -126T181 -122Q183 -122 183 -124Q183 -130 169 -141Q123 -177
85 -177ZM241 159L294 224L246 222Q243 200 234 159H241Z" />
<glyph unicode="&#xa6;" glyph-name="brokenbar" horiz-adv-x="147" d="M54 229Q62 346 69 409T84 479Q94 487 100 487Q105 487 108 484Q110 481 110 470Q108 457 106 437T101 388Q92 304 86 229H54ZM94 -120Q89 -120 80 -113Q73 -105 67 -92T56 -62Q52 -48 51
-20T49 48Q49 69 49 93T50 142H80Q77 90 77 43Q77 31 77 22T76 4Q76 -21 78 -41T85 -75Q87 -80 89 -84T92 -91Q100 -96 109 -95Q110 -94 111 -94T112 -96Q113 -96 113 -99Q113 -103 110 -108T104 -116Q99 -120 94 -120Z" />
<glyph unicode="&#xa7;" glyph-name="section" horiz-adv-x="380" d="M-22 -149Q-47 -149 -43 -132Q-36 -109 6 -98L43 -92Q84 -85 115 -77T167 -57Q247 -15 247 19Q247 47 200 72Q175 86 149 99T97 127Q51 154 51 189Q51 216 80 244T166 302Q181 329 220 356T320
412Q437 465 498 465Q545 465 545 441Q545 436 544 433Q528 375 488 328Q466 300 455 300Q448 300 452 309Q454 317 459 328T474 354Q482 368 487 379T495 397Q496 401 496 404T497 410Q497 434 460 434Q402 434 311 396Q193 348 193 288Q193 253 239 229Q265 215
292 203T348 178Q399 153 399 124Q399 118 398 115Q383 66 286 17Q259 -35 146 -85Q132 -91 -22 -149ZM292 40Q353 76 353 106Q353 134 306 159Q281 173 254 186T202 214Q157 241 157 272Q157 275 157 278T159 284Q119 263 101 242T83 200Q83 167 127 144Q153 131
180 119T233 94Q291 68 292 40Z" />
<glyph unicode="&#xa8;" glyph-name="dieresis" horiz-adv-x="158" d="M99 322Q89 322 89 334Q89 337 89 340T91 346Q96 360 113 373Q129 386 144 386Q150 386 150 383Q149 379 146 374T139 360Q135 353 132 348T128 341Q124 322 99 322ZM9 322Q0 322 0 333Q0
336 0 339T2 346Q7 360 23 373Q40 386 55 386Q63 386 60 383Q59 379 57 374T49 360Q41 346 39 341Q33 322 9 322Z" />
<glyph unicode="&#xa9;" glyph-name="copyright" horiz-adv-x="376" d="M259 -4Q192 0 138 28T51 103T18 208Q18 230 23 253T39 300Q72 372 123 417T236 482T360 503Q416 503 467 488T559 444T623 375T647 286Q647 271 645 255T636 221Q624 185 593 144T513 68T400
12T259 -4ZM291 11Q353 11 403 31T493 84T557 153T592 222Q601 254 601 283Q601 345 566 390T475 461T355 487Q302 487 250 468T153 406T81 297Q71 275 67 253T63 211Q63 157 90 113T165 43T269 12Q275 11 280 11T291 11ZM268 60Q220 60 187 87T153 169Q153 181
155 194T161 222Q176 274 210 318T291 389T393 416Q398 416 403 416T413 415Q435 413 442 405Q447 411 450 418T457 429Q464 434 469 434Q474 434 477 430T475 420Q454 393 441 368T417 312Q416 307 410 307Q403 307 406 316L423 356Q429 370 429 379Q429 394 415
399Q399 405 382 405Q349 405 319 385T263 335T220 271T194 211Q186 181 186 159Q186 116 209 96T270 76Q310 76 355 97Q386 111 406 131T449 179Q452 182 455 182T455 177Q432 143 410 120T358 82Q336 71 313 66T268 60Z" />
<glyph unicode="&#xaa;" glyph-name="ordfeminine" horiz-adv-x="300" d="M227 171Q196 171 196 215Q196 242 204 266T219 315Q203 298 189 282T157 250Q141 235 124 221T90 195Q59 175 43 175Q27 175 27 194Q27 216 44 253Q54 275 71 301T108 352Q126 374 150
397T204 436T262 452Q285 452 300 442T316 408Q316 384 307 379Q304 376 298 375T292 373Q291 382 284 392T265 405Q253 409 238 409Q205 409 176 390T126 343Q107 320 97 295T87 252Q87 238 92 233T103 228Q112 228 122 235T140 250Q166 274 189 302T222 343Q227
345 236 350T257 358L278 363Q284 363 284 362Q278 354 268 329T250 276T241 227Q241 211 247 206Q250 203 255 203Q263 203 272 208T291 221Q326 247 357 285T411 353Q411 353 413 351Q415 346 413 343Q400 326 388 308T362 271Q347 254 332 238T299 207Q279 191
260 181T227 171Z" />
<glyph unicode="&#xab;" glyph-name="guillemotleft" horiz-adv-x="353" d="M331 112L325 116Q319 128 311 140T291 166L249 209Q246 212 248 215Q251 226 314 289Q343 319 362 337T390 364Q402 374 411 374Q418 374 416 366Q411 352 297 238Q323 187 336 159T347
125Q342 111 331 112ZM213 112L207 116Q202 128 194 140T173 166L131 209Q128 212 130 215Q132 220 148 239T196 289Q225 319 244 337T272 364Q284 374 292 374Q300 374 298 366Q295 354 179 238Q231 135 228 125Q224 111 213 112Z" />
<glyph unicode="&#xac;" glyph-name="logicalnot" horiz-adv-x="595" d="M474 72Q469 72 469 81Q469 86 474 101Q478 114 485 146T504 219T530 292Q394 297 304 301T159 308T77 314T41 319T30 322Q25 330 25 336Q25 345 36 345Q41 345 54 345T97 346T181 346T324
348T542 351Q558 351 563 346T570 329Q567 305 556 269T531 194T506 127T490 90Q481 72 474 72Z" />
<glyph unicode="&#xad;" glyph-name="uni00AD" horiz-adv-x="225" d="M112 158Q101 157 92 158T77 162Q84 192 122 192Q146 192 164 192T203 191T253 190L252 188Q254 188 254 183Q252 176 234 175Q226 174 213 173T182 169Q156 165 143 163T112 158Z" />
<glyph unicode="&#xae;" glyph-name="registered" horiz-adv-x="483" d="M259 -4Q192 0 138 28T51 103T18 208Q18 230 23 253T39 300Q72 372 123 417T236 482T360 503Q416 503 467 488T559 444T623 375T647 286Q647 271 645 255T636 221Q624 185 593 144T513 68T400
12T259 -4ZM291 11Q353 11 403 31T493 84T557 153T592 222Q601 254 601 283Q601 345 566 390T475 461T355 487Q302 487 250 468T153 406T81 297Q71 275 67 253T63 211Q63 157 90 113T165 43T269 12Q275 11 280 11T291 11ZM195 87Q176 87 158 101Q143 112 134 132T121
173T118 207Q119 210 122 212T124 210Q126 192 132 171T151 135T186 120Q200 120 213 125T237 145Q254 165 268 194T293 255L289 260Q285 264 279 266T268 267Q265 267 270 271T283 281T292 288Q296 288 302 280Q310 300 315 317T324 345Q326 351 330 364T335 384Q335
392 335 398T337 409Q317 409 299 408T267 405Q239 401 214 390T172 362T156 322Q156 309 164 294T190 261Q197 255 204 249T216 237Q218 236 217 235T213 234Q205 239 187 251T153 284T138 332Q138 362 159 380T214 409T283 422T347 423Q350 426 354 429T365 438Q374
446 382 456Q387 460 387 453Q387 448 384 439T377 427Q373 423 372 421Q377 421 382 420T392 419Q445 410 468 388T491 338Q491 309 472 285T425 246T369 231Q350 231 336 238Q353 216 372 191T410 145T442 116Q450 111 458 111Q474 111 474 130Q474 144 468 160T453
189Q451 194 454 194T459 190Q465 182 470 171T479 149Q483 138 483 128Q483 112 474 102T449 91Q424 91 400 116T351 177T303 243Q289 202 274 168Q267 151 256 132T229 100T195 87ZM368 239Q392 239 413 254T449 291T463 337Q462 360 445 378T386 404L364 407Q362
403 360 399T356 388Q351 375 345 359T331 321L313 269L323 256Q324 256 324 256T325 255Q345 239 368 239Z" />
<glyph unicode="&#xaf;" glyph-name="overscore" horiz-adv-x="174" d="M0 326Q0 333 1 343T10 353L150 349Q150 342 149 339T140 335L0 326Z" />
<glyph unicode="&#xb0;" glyph-name="degree" horiz-adv-x="238" d="M202 267Q171 267 156 289Q146 303 146 320Q146 331 149 341Q158 372 185 393Q214 416 244 416Q274 416 290 394Q301 378 301 361Q301 352 298 341Q289 311 261 289Q233 267 202 267ZM209 289Q228
289 249 305Q269 320 275 341Q276 345 276 348T277 355Q277 368 270 378Q258 393 238 393Q217 393 197 378Q178 362 172 341Q171 337 171 334T170 326Q170 313 177 305Q188 289 209 289Z" />
<glyph unicode="&#xb1;" glyph-name="plusminus" horiz-adv-x="318" d="M171 74Q168 74 168 80Q168 85 169 88Q171 95 173 101T179 112Q232 195 237 214L140 213Q138 216 138 221Q141 230 152 236Q157 239 162 241T171 242L252 241Q255 245 264 260T290 301L312
338Q324 356 343 356Q353 356 350 349Q342 320 288 240Q306 240 324 241T360 242Q402 242 402 231Q402 228 395 225T368 220L272 212Q265 199 253 180T223 135Q181 74 171 74ZM88 13Q85 14 80 14Q66 14 66 22Q66 33 78 44T102 55Q110 55 107 49Q107 48 105 44Q128
44 151 43T198 42Q211 42 221 42T239 44V45H250Q255 45 265 43T274 39Q272 33 228 25Q152 13 98 13H88Z" />
<glyph unicode="&#xb2;" glyph-name="uni00B2" horiz-adv-x="253" d="M180 258Q176 254 176 260Q176 265 175 269T173 278Q172 289 157 292T122 295Q115 295 107 295T92 294Q85 293 75 290T56 284Q55 283 43 279T30 275Q20 275 20 279Q20 284 29 290T43 300L48
303L51 305Q63 311 80 326T116 364T149 410T169 456Q172 467 172 477Q172 491 164 500T132 507Q123 506 116 498T105 481Q104 475 96 475Q86 475 86 486Q86 488 87 495T90 504Q92 511 93 517T96 528Q97 534 101 533T105 529Q104 525 103 520T102 509Q109 515 116
520T134 530Q145 533 155 533Q179 533 194 518T210 479Q210 467 204 453Q196 432 179 410T144 368Q128 350 113 336T90 315Q104 317 117 317T144 317H180Q189 317 193 311T197 297Q197 289 191 279T183 261L180 258Z" />
<glyph unicode="&#xb3;" glyph-name="uni00B3" horiz-adv-x="219" d="M54 271Q32 271 18 284T0 309Q1 311 3 312T6 313Q8 309 10 306T15 298Q23 288 46 288Q70 288 89 301T119 334T130 371Q130 386 121 396T90 406Q85 406 79 405T68 402Q64 405 64 407T64 412Q77
420 95 429T126 451T140 480Q139 492 134 501T111 511Q98 511 88 503T76 486Q72 477 64 477Q56 477 56 486Q56 489 58 495T61 504Q65 517 67 529Q68 535 71 534T75 530Q75 526 74 520T74 509Q82 517 98 524T130 531Q146 531 155 523Q169 512 169 493Q169 480 163
468T146 447Q139 441 132 435T116 425Q113 424 113 422Q114 421 118 421Q143 423 154 410T165 378Q165 349 149 325T108 286T54 271Z" />
<glyph unicode="&#xb4;" glyph-name="acute" horiz-adv-x="119" d="M2 326Q2 331 13 341T59 378L98 411Q103 414 107 414Q121 414 121 399Q121 391 107 382Q97 375 88 371T64 358Q42 345 22 333T2 326Z" />
<glyph unicode="&#xb5;" glyph-name="uni00B5" horiz-adv-x="220" d="M-256 -316Q-284 -316 -297 -285Q-303 -270 -303 -254Q-303 -240 -299 -229Q-296 -214 -284 -209L-287 -253Q-286 -287 -261 -287Q-229 -287 -176 -243Q-136 -209 -104 -170Q-64 -121 -28 -55T42
95Q53 124 59 140T66 161L68 175Q70 181 75 192T88 220Q93 231 106 231H121Q124 227 122 221Q121 217 93 167Q78 139 68 115T51 68Q47 53 47 44Q47 34 52 34Q70 34 128 99Q180 159 211 216Q222 237 239 237Q249 237 249 230Q249 225 239 212L229 199Q219 179 209
154T191 99Q187 86 185 75T183 56Q183 32 199 32Q214 32 243 65Q258 81 267 90T279 99Q283 99 283 95Q283 84 234 41Q188 1 174 1Q151 1 151 32Q151 52 158 77Q161 87 167 103T182 142Q167 124 149 105T111 64Q45 -2 24 -2Q19 -2 16 1Q-26 -95 -83 -176Q-123 -231
-160 -265T-236 -313Q-245 -316 -256 -316Z" />
<glyph unicode="&#xb6;" glyph-name="paragraph" horiz-adv-x="600" d="M159 0L258 283Q145 283 145 353Q145 370 153 394Q164 428 191 456T254 499Q274 507 294 508T334 510H438L431 490H416L244 0H222L394 490H356L184 0H159Z" />
<glyph unicode="&#xb7;" glyph-name="middot" horiz-adv-x="152" d="M95 125Q87 125 81 134Q76 142 76 146Q76 153 81 158T93 168Q110 181 122 181Q133 181 133 170Q133 164 128 155T112 134Q103 125 95 125Z" />
<glyph unicode="&#xb8;" glyph-name="cedilla" horiz-adv-x="144" d="M44 -157Q25 -157 4 -151Q-1 -149 1 -143Q3 -141 6 -140T12 -138Q18 -139 24 -140T35 -142Q57 -142 71 -130T85 -101Q85 -94 80 -82Q73 -69 73 -55Q73 -31 97 -8Q114 8 136 8Q144 8 144 1Q104
-5 104 -38Q104 -54 112 -67Q122 -84 122 -100Q122 -125 100 -141T44 -157Z" />
<glyph unicode="&#xb9;" glyph-name="uni00B9" horiz-adv-x="211" d="M74 278Q69 278 68 281T68 289Q68 291 68 292T69 294Q83 341 103 385T140 477Q109 450 96 441T81 431Q75 427 75 432Q75 438 77 440Q101 460 124 482T161 521Q163 523 164 525T168 530Q170
532 177 532Q183 532 188 531T193 525Q184 505 172 480T147 427Q134 399 123 371T104 316Q103 312 103 310T104 304V298Q103 293 93 286T74 278Z" />
<glyph unicode="&#xba;" glyph-name="ordmasculine" horiz-adv-x="270" d="M101 171Q77 171 61 189T44 245Q44 279 59 313T99 374T156 416Q164 419 171 421T185 423Q200 423 211 415T222 390Q222 386 222 383T220 376Q219 372 215 369T210 370Q212 387 204 396T182
405Q173 405 165 401Q127 383 106 342T84 262Q85 234 96 220T124 206Q144 206 167 222Q190 239 206 268T232 331T241 392Q241 408 238 420T226 438Q214 447 200 447Q191 447 184 442Q178 438 177 438Q173 438 173 443Q173 447 177 453Q183 463 196 468T223 473Q239
473 251 466Q277 452 277 407Q277 375 264 335T227 259T173 199Q137 171 101 171Z" />
<glyph unicode="&#xbb;" glyph-name="guillemotright" horiz-adv-x="353" d="M106 106Q99 106 101 113Q105 127 220 242Q195 292 182 321T170 355Q175 368 186 368L192 364Q198 352 206 340T226 314L268 271Q271 269 269 265Q266 255 204 191Q175 162 156 143T127
116Q115 106 106 106ZM238 106Q230 106 232 113Q236 127 351 242Q326 292 313 321T301 355Q306 368 317 368L323 364Q329 352 337 340T357 314L399 271Q402 269 400 265Q399 260 383 242T335 191Q306 162 287 143T258 116Q246 106 238 106Z" />
<glyph unicode="&#xbc;" glyph-name="onequarter" horiz-adv-x="613" d="M59 -60Q50 -60 50 -50Q50 -44 52 -38Q61 -8 85 31Q107 66 181 149Q206 177 235 208T297 276Q413 398 476 460T550 522Q564 522 564 512Q564 506 561 502T553 492Q540 480 522 463T480 422Q391
335 316 258T181 113Q162 91 150 77T131 56Q116 38 105 23T86 -5Q82 -12 80 -17T76 -27Q75 -30 75 -34Q75 -40 79 -44Q80 -45 80 -47Q78 -52 71 -56T59 -60ZM74 278Q69 278 68 281T68 289Q68 291 68 292T69 294Q83 341 103 385T140 477Q109 450 96 441T81 431Q75
427 75 432Q75 438 77 440Q101 460 124 482T161 521Q163 523 164 525T168 530Q170 532 177 532Q183 532 188 531T193 525Q184 505 172 480T147 427Q134 399 123 371T104 316Q103 312 103 310T104 304V298Q103 293 93 286T74 278ZM391 -10Q386 -10 385 -7T385 1Q385
3 385 4T386 6Q391 24 399 42T415 78L374 76Q361 75 349 74T332 70Q330 69 327 69Q319 69 319 79Q319 84 323 88Q330 93 346 108T379 142T411 176T429 199Q428 201 428 206Q428 210 431 216Q433 218 437 222T446 230L465 248Q467 251 473 251Q475 251 476 247T475
239Q458 217 436 188T396 134T369 97L424 101Q429 111 437 130T455 169T471 201Q475 209 480 209Q485 209 488 203T488 191Q477 170 467 147T447 101Q455 102 460 102T470 102Q481 102 487 101T493 91Q493 85 488 77Q487 73 485 68T481 58H475Q476 61 476 65Q476
74 470 77T455 81Q451 81 447 81T438 79Q434 68 430 54T422 28Q421 24 421 22T422 16V10Q420 5 410 -2T391 -10Z" />
<glyph unicode="&#xbd;" glyph-name="onehalf" horiz-adv-x="613" d="M59 -60Q50 -60 50 -50Q50 -44 52 -38Q61 -8 85 31Q107 66 181 149Q206 177 235 208T297 276Q413 398 476 460T550 522Q564 522 564 512Q564 506 561 502T553 492Q540 480 522 463T480 422Q391
335 316 258T181 113Q162 91 150 77T131 56Q116 38 105 23T86 -5Q82 -12 80 -17T76 -27Q75 -30 75 -34Q75 -40 79 -44Q80 -45 80 -47Q78 -52 71 -56T59 -60ZM74 278Q69 278 68 281T68 289Q68 291 68 292T69 294Q83 341 103 385T140 477Q109 450 96 441T81 431Q75
427 75 432Q75 438 77 440Q101 460 124 482T161 521Q163 523 164 525T168 530Q170 532 177 532Q183 532 188 531T193 525Q184 505 172 480T147 427Q134 399 123 371T104 316Q103 312 103 310T104 304V298Q103 293 93 286T74 278ZM459 -28Q455 -32 455 -26Q455 -21
454 -17T452 -8Q451 3 436 6T401 9Q394 9 386 9T371 8Q364 7 354 4T335 -2Q334 -3 322 -7T309 -11Q299 -11 299 -7Q299 -2 308 4T322 14L327 17L330 19Q342 25 359 40T395 78T428 124T448 170Q451 181 451 191Q451 205 443 214T411 221Q402 220 395 212T384 195Q383
189 375 189Q365 189 365 200Q365 202 366 209T369 218Q371 225 372 231T375 242Q376 248 380 247T384 243Q383 239 382 234T381 223Q388 229 395 234T413 244Q424 247 434 247Q458 247 473 232T489 193Q489 181 483 167Q475 146 458 124T423 82Q407 64 392 50T369
29Q383 31 396 31T423 31H459Q468 31 472 25T476 11Q476 3 470 -7T462 -25L459 -28Z" />
<glyph unicode="&#xbe;" glyph-name="threequarters" horiz-adv-x="563" d="M9 -60Q0 -60 0 -50Q0 -44 2 -38Q11 -8 35 31Q57 66 131 149Q156 177 185 208T247 276Q363 398 426 460T500 522Q514 522 514 512Q514 506 511 502T503 492Q490 480 472 463T430 422Q341
335 266 258T131 113Q112 91 100 77T81 56Q66 38 55 23T36 -5Q32 -12 30 -17T26 -27Q25 -30 25 -34Q25 -40 29 -44Q30 -45 30 -47Q28 -52 21 -56T9 -60ZM54 271Q32 271 18 284T0 309Q1 311 3 312T6 313Q8 309 10 306T15 298Q23 288 46 288Q70 288 89 301T119 334T130
371Q130 386 121 396T90 406Q85 406 79 405T68 402Q64 405 64 407T64 412Q77 420 95 429T126 451T140 480Q139 492 134 501T111 511Q98 511 88 503T76 486Q72 477 64 477Q56 477 56 486Q56 489 58 495T61 504Q65 517 67 529Q68 535 71 534T75 530Q75 526 74 520T74
509Q82 517 98 524T130 531Q146 531 155 523Q169 512 169 493Q169 480 163 468T146 447Q139 441 132 435T116 425Q113 424 113 422Q114 421 118 421Q143 423 154 410T165 378Q165 349 149 325T108 286T54 271ZM341 -10Q336 -10 335 -7T335 1Q335 3 335 4T336 6Q341
24 349 42T365 78L324 76Q311 75 299 74T282 70Q280 69 277 69Q269 69 269 79Q269 84 273 88Q280 93 296 108T329 142T361 176T379 199Q378 201 378 206Q378 210 381 216Q383 218 387 222T396 230L415 248Q417 251 423 251Q425 251 426 247T425 239Q408 217 386
188T346 134T319 97L374 101Q379 111 387 130T405 169T421 201Q425 209 430 209Q435 209 438 203T438 191Q427 170 417 147T397 101Q405 102 410 102T420 102Q431 102 437 101T443 91Q443 85 438 77Q437 73 435 68T431 58H425Q426 61 426 65Q426 74 420 77T405
81Q401 81 397 81T388 79Q384 68 380 54T372 28Q371 24 371 22T372 16V10Q370 5 360 -2T341 -10Z" />
<glyph unicode="&#xbf;" glyph-name="questiondown" horiz-adv-x="194" d="M178 105Q166 105 166 116Q166 131 187 152Q196 161 204 161Q212 161 218 152Q223 144 223 139Q223 132 218 127T206 117Q188 105 178 105ZM20 -314Q-20 -314 -58 -304T-117 -278Q-150
-254 -150 -215Q-150 -192 -137 -168T-95 -123Q-73 -106 -42 -90T23 -57T83 -25T127 8T139 41L138 45Q138 55 148 55Q157 55 157 46Q160 1 137 -26T74 -75T-12 -122Q-72 -156 -92 -176T-113 -222Q-113 -244 -94 -259T-46 -283T17 -292Q55 -292 91 -280T147 -240Q154
-230 154 -218Q154 -209 150 -201Q149 -200 149 -196Q149 -191 153 -191Q164 -191 170 -199T177 -219Q177 -232 168 -247Q158 -264 134 -281T74 -308Q50 -314 20 -314Z" />
<glyph unicode="&#xc0;" glyph-name="Agrave" horiz-adv-x="591" d="M153 167Q138 167 129 172Q125 173 125 176Q125 178 127 179T134 178Q140 176 143 176Q156 176 170 186T194 213T205 251Q205 263 200 278Q195 292 186 305T171 332Q163 349 160 363T156 390Q156
422 176 440T227 469T294 485T358 494Q383 497 418 502T493 514T567 529T628 545T661 561Q663 563 665 563Q668 563 668 560T666 554Q655 542 620 530T538 507T439 486T343 467T270 450Q179 425 179 367Q179 344 192 323T217 280T230 237Q230 206 205 187T153 167ZM141
-14Q99 -14 71 5T29 56T15 123Q15 147 21 169Q24 189 35 189Q38 189 38 185Q38 181 36 175T34 166Q37 94 68 61T144 27Q208 27 279 84Q305 105 331 134T384 198Q372 196 361 193T338 187Q324 183 312 180T291 176Q287 175 283 175T276 175Q265 175 264 179T266
187Q272 195 283 202T305 211Q326 214 352 218T406 227Q444 279 480 332T546 426Q557 440 566 452T586 476Q599 492 622 496Q627 502 642 516T669 536Q673 538 674 538Q679 538 679 534T678 527Q669 520 659 507T643 480Q616 421 593 359T550 234Q572 233 583 223T595
201Q595 187 587 186T582 192Q584 195 584 200Q584 208 573 213T545 219Q538 197 530 163T516 98Q515 89 515 82T514 68Q514 45 521 35T539 25Q553 25 570 36T605 64T633 94Q635 96 644 108T664 133T681 155Q682 157 686 156T689 152Q665 118 638 85Q625 70 604
47T557 7T508 -11Q505 -11 502 -11T496 -9Q480 -5 473 11T466 49Q466 60 468 73T473 99Q480 126 491 157T514 219Q511 219 509 219T503 218Q478 216 453 212T413 204Q375 149 332 99T242 18T141 -14ZM431 231Q456 233 478 234T521 235Q529 253 535 268T546 296Q563
340 577 378T591 423Q591 426 579 424T550 402Q523 370 493 325T431 231ZM720 599Q720 596 710 600T684 613T652 627Q637 634 628 637T607 647Q591 655 591 662V664Q591 677 603 679Q606 679 612 677L655 648Q691 625 705 615T720 599Z" />
<glyph unicode="&#xc1;" glyph-name="Aacute" horiz-adv-x="591" d="M153 167Q138 167 129 172Q125 173 125 176Q125 178 127 179T134 178Q140 176 143 176Q156 176 170 186T194 213T205 251Q205 263 200 278Q195 292 186 305T171 332Q163 349 160 363T156 390Q156
422 176 440T227 469T294 485T358 494Q383 497 418 502T493 514T567 529T628 545T661 561Q663 563 665 563Q668 563 668 560T666 554Q655 542 620 530T538 507T439 486T343 467T270 450Q179 425 179 367Q179 344 192 323T217 280T230 237Q230 206 205 187T153 167ZM141
-14Q99 -14 71 5T29 56T15 123Q15 147 21 169Q24 189 35 189Q38 189 38 185Q38 181 36 175T34 166Q37 94 68 61T144 27Q208 27 279 84Q305 105 331 134T384 198Q372 196 361 193T338 187Q324 183 312 180T291 176Q287 175 283 175T276 175Q265 175 264 179T266
187Q272 195 283 202T305 211Q326 214 352 218T406 227Q444 279 480 332T546 426Q557 440 566 452T586 476Q599 492 622 496Q627 502 642 516T669 536Q673 538 674 538Q679 538 679 534T678 527Q669 520 659 507T643 480Q616 421 593 359T550 234Q572 233 583 223T595
201Q595 187 587 186T582 192Q584 195 584 200Q584 208 573 213T545 219Q538 197 530 163T516 98Q515 89 515 82T514 68Q514 45 521 35T539 25Q553 25 570 36T605 64T633 94Q635 96 644 108T664 133T681 155Q682 157 686 156T689 152Q665 118 638 85Q625 70 604
47T557 7T508 -11Q505 -11 502 -11T496 -9Q480 -5 473 11T466 49Q466 60 468 73T473 99Q480 126 491 157T514 219Q511 219 509 219T503 218Q478 216 453 212T413 204Q375 149 332 99T242 18T141 -14ZM431 231Q456 233 478 234T521 235Q529 253 535 268T546 296Q563
340 577 378T591 423Q591 426 579 424T550 402Q523 370 493 325T431 231ZM643 599Q644 604 658 614T708 648L751 677Q757 679 760 679Q772 677 772 664Q772 656 756 647Q746 641 736 638T711 627Q696 621 680 613T654 601T643 599Z" />
<glyph unicode="&#xc2;" glyph-name="Acircumflex" horiz-adv-x="591" d="M153 167Q138 167 129 172Q125 173 125 176Q125 178 127 179T134 178Q140 176 143 176Q156 176 170 186T194 213T205 251Q205 263 200 278Q195 292 186 305T171 332Q163 349 160 363T156
390Q156 422 176 440T227 469T294 485T358 494Q383 497 418 502T493 514T567 529T628 545T661 561Q663 563 665 563Q668 563 668 560T666 554Q655 542 620 530T538 507T439 486T343 467T270 450Q179 425 179 367Q179 344 192 323T217 280T230 237Q230 206 205 187T153
167ZM141 -14Q99 -14 71 5T29 56T15 123Q15 147 21 169Q24 189 35 189Q38 189 38 185Q38 181 36 175T34 166Q37 94 68 61T144 27Q208 27 279 84Q305 105 331 134T384 198Q372 196 361 193T338 187Q324 183 312 180T291 176Q287 175 283 175T276 175Q265 175 264
179T266 187Q272 195 283 202T305 211Q326 214 352 218T406 227Q444 279 480 332T546 426Q557 440 566 452T586 476Q599 492 622 496Q627 502 642 516T669 536Q673 538 674 538Q679 538 679 534T678 527Q669 520 659 507T643 480Q616 421 593 359T550 234Q572 233
583 223T595 201Q595 187 587 186T582 192Q584 195 584 200Q584 208 573 213T545 219Q538 197 530 163T516 98Q515 89 515 82T514 68Q514 45 521 35T539 25Q553 25 570 36T605 64T633 94Q635 96 644 108T664 133T681 155Q682 157 686 156T689 152Q665 118 638 85Q625
70 604 47T557 7T508 -11Q505 -11 502 -11T496 -9Q480 -5 473 11T466 49Q466 60 468 73T473 99Q480 126 491 157T514 219Q511 219 509 219T503 218Q478 216 453 212T413 204Q375 149 332 99T242 18T141 -14ZM431 231Q456 233 478 234T521 235Q529 253 535 268T546
296Q563 340 577 378T591 423Q591 426 579 424T550 402Q523 370 493 325T431 231ZM778 583Q774 582 758 591T731 609Q723 615 712 622T694 633Q687 629 678 626T661 618Q630 602 616 595T594 585Q592 585 593 588Q597 594 610 605T642 630Q656 641 668 649T695
671Q702 678 705 678Q707 678 712 671Q714 667 724 654T741 631Q750 620 764 605T780 587Q783 583 778 583Z" />
<glyph unicode="&#xc3;" glyph-name="Atilde" horiz-adv-x="591" d="M153 167Q138 167 129 172Q125 173 125 176Q125 178 127 179T134 178Q140 176 143 176Q156 176 170 186T194 213T205 251Q205 263 200 278Q195 292 186 305T171 332Q163 349 160 363T156 390Q156
422 176 440T227 469T294 485T358 494Q383 497 418 502T493 514T567 529T628 545T661 561Q663 563 665 563Q668 563 668 560T666 554Q655 542 620 530T538 507T439 486T343 467T270 450Q179 425 179 367Q179 344 192 323T217 280T230 237Q230 206 205 187T153 167ZM141
-14Q99 -14 71 5T29 56T15 123Q15 147 21 169Q24 189 35 189Q38 189 38 185Q38 181 36 175T34 166Q37 94 68 61T144 27Q208 27 279 84Q305 105 331 134T384 198Q372 196 361 193T338 187Q324 183 312 180T291 176Q287 175 283 175T276 175Q265 175 264 179T266
187Q272 195 283 202T305 211Q326 214 352 218T406 227Q444 279 480 332T546 426Q557 440 566 452T586 476Q599 492 622 496Q627 502 642 516T669 536Q673 538 674 538Q679 538 679 534T678 527Q669 520 659 507T643 480Q616 421 593 359T550 234Q572 233 583 223T595
201Q595 187 587 186T582 192Q584 195 584 200Q584 208 573 213T545 219Q538 197 530 163T516 98Q515 89 515 82T514 68Q514 45 521 35T539 25Q553 25 570 36T605 64T633 94Q635 96 644 108T664 133T681 155Q682 157 686 156T689 152Q665 118 638 85Q625 70 604
47T557 7T508 -11Q505 -11 502 -11T496 -9Q480 -5 473 11T466 49Q466 60 468 73T473 99Q480 126 491 157T514 219Q511 219 509 219T503 218Q478 216 453 212T413 204Q375 149 332 99T242 18T141 -14ZM431 231Q456 233 478 234T521 235Q529 253 535 268T546 296Q563
340 577 378T591 423Q591 426 579 424T550 402Q523 370 493 325T431 231ZM733 597Q719 597 705 606T678 623T649 632Q634 632 627 627T614 613Q610 607 609 603T606 598Q604 598 604 607Q604 614 611 628T629 654T652 667Q665 667 679 658T707 639T735 629Q744
629 755 633T775 649Q778 654 780 657T786 660Q791 660 788 654Q784 645 776 632T756 608T733 597Z" />
<glyph unicode="&#xc4;" glyph-name="Adieresis" horiz-adv-x="591" d="M153 167Q138 167 129 172Q125 173 125 176Q125 178 127 179T134 178Q140 176 143 176Q156 176 170 186T194 213T205 251Q205 263 200 278Q195 292 186 305T171 332Q163 349 160 363T156
390Q156 422 176 440T227 469T294 485T358 494Q383 497 418 502T493 514T567 529T628 545T661 561Q663 563 665 563Q668 563 668 560T666 554Q655 542 620 530T538 507T439 486T343 467T270 450Q179 425 179 367Q179 344 192 323T217 280T230 237Q230 206 205 187T153
167ZM141 -14Q99 -14 71 5T29 56T15 123Q15 147 21 169Q24 189 35 189Q38 189 38 185Q38 181 36 175T34 166Q37 94 68 61T144 27Q208 27 279 84Q305 105 331 134T384 198Q372 196 361 193T338 187Q324 183 312 180T291 176Q287 175 283 175T276 175Q265 175 264
179T266 187Q272 195 283 202T305 211Q326 214 352 218T406 227Q444 279 480 332T546 426Q557 440 566 452T586 476Q599 492 622 496Q627 502 642 516T669 536Q673 538 674 538Q679 538 679 534T678 527Q669 520 659 507T643 480Q616 421 593 359T550 234Q572 233
583 223T595 201Q595 187 587 186T582 192Q584 195 584 200Q584 208 573 213T545 219Q538 197 530 163T516 98Q515 89 515 82T514 68Q514 45 521 35T539 25Q553 25 570 36T605 64T633 94Q635 96 644 108T664 133T681 155Q682 157 686 156T689 152Q665 118 638 85Q625
70 604 47T557 7T508 -11Q505 -11 502 -11T496 -9Q480 -5 473 11T466 49Q466 60 468 73T473 99Q480 126 491 157T514 219Q511 219 509 219T503 218Q478 216 453 212T413 204Q375 149 332 99T242 18T141 -14ZM431 231Q456 233 478 234T521 235Q529 253 535 268T546
296Q563 340 577 378T591 423Q591 426 579 424T550 402Q523 370 493 325T431 231ZM728 599Q718 599 718 610Q718 615 720 621Q725 635 741 647Q756 659 771 659Q776 659 776 657Q775 653 773 648T766 635L755 617Q754 607 747 603T728 599ZM642 599Q634 599 634
609Q634 612 634 615T635 621Q640 635 655 647Q671 659 686 659Q693 659 691 657Q690 650 680 635L671 617Q665 599 642 599Z" />
<glyph unicode="&#xc5;" glyph-name="Aring" horiz-adv-x="591" d="M153 167Q138 167 129 172Q125 173 125 176Q125 178 127 179T134 178Q140 176 143 176Q156 176 170 186T194 213T205 251Q205 263 200 278Q195 292 186 305T171 332Q163 349 160 363T156 390Q156
422 176 440T227 469T294 485T358 494Q383 497 418 502T493 514T567 529T628 545T661 561Q663 563 665 563Q668 563 668 560T666 554Q655 542 620 530T538 507T439 486T343 467T270 450Q179 425 179 367Q179 344 192 323T217 280T230 237Q230 206 205 187T153 167ZM141
-14Q99 -14 71 5T29 56T15 123Q15 147 21 169Q24 189 35 189Q38 189 38 185Q38 181 36 175T34 166Q37 94 68 61T144 27Q208 27 279 84Q305 105 331 134T384 198Q372 196 361 193T338 187Q324 183 312 180T291 176Q287 175 283 175T276 175Q265 175 264 179T266
187Q272 195 283 202T305 211Q326 214 352 218T406 227Q444 279 480 332T546 426Q557 440 566 452T586 476Q599 492 622 496Q627 502 642 516T669 536Q673 538 674 538Q679 538 679 534T678 527Q669 520 659 507T643 480Q616 421 593 359T550 234Q572 233 583 223T595
201Q595 187 587 186T582 192Q584 195 584 200Q584 208 573 213T545 219Q538 197 530 163T516 98Q515 89 515 82T514 68Q514 45 521 35T539 25Q553 25 570 36T605 64T633 94Q635 96 644 108T664 133T681 155Q682 157 686 156T689 152Q665 118 638 85Q625 70 604
47T557 7T508 -11Q505 -11 502 -11T496 -9Q480 -5 473 11T466 49Q466 60 468 73T473 99Q480 126 491 157T514 219Q511 219 509 219T503 218Q478 216 453 212T413 204Q375 149 332 99T242 18T141 -14ZM431 231Q456 233 478 234T521 235Q529 253 535 268T546 296Q563
340 577 378T591 423Q591 426 579 424T550 402Q523 370 493 325T431 231ZM695 588Q675 588 661 601T646 632Q646 652 670 670T720 688Q741 688 755 677T770 646Q770 621 746 605T695 588ZM698 597Q712 597 725 611T739 648Q739 662 734 670T718 679Q704 679 690
663T675 629Q675 616 681 607T698 597Z" />
<glyph unicode="&#xc6;" glyph-name="AE" horiz-adv-x="815" d="M153 167Q149 167 137 169T125 176Q125 179 129 179Q133 179 136 178T143 176Q161 176 175 188T197 219T205 252Q205 275 193 295T168 338T155 390Q155 423 177 442T233 471T300 486T358 494Q374
496 406 500T478 511T555 526T622 543T661 561Q665 563 666 563Q669 563 669 559Q669 557 666 554Q654 542 617 530T531 506T429 484T335 465T270 450Q251 445 230 435T194 409T179 369Q179 344 192 323T217 281T230 237Q230 207 206 187T153 167ZM617 -25Q592
-25 566 -19T518 0Q496 13 488 31T474 73Q473 77 473 80T472 88Q472 98 478 119T494 164T511 211T525 244Q501 240 478 238T431 230Q408 195 378 153T310 73T230 11T140 -14Q80 -14 48 26T15 123Q15 130 16 145T22 175T34 190L37 188Q38 187 38 185Q38 181 36 176T34
166Q34 132 45 100T81 48T144 27Q185 27 222 46T292 96T354 161T404 225Q387 222 364 215T317 203T278 197Q276 197 271 198T265 203Q265 214 282 223T307 233Q336 238 365 243T424 252Q456 296 485 339T546 426Q556 439 566 451T586 476Q594 485 602 489T622 496Q627
501 637 511T658 529T675 538Q680 538 680 532Q680 529 678 527Q671 522 666 516T656 502Q663 504 669 505T683 505L875 504L881 502Q882 500 882 498T883 494Q883 494 883 493T882 491Q881 488 873 483T862 476Q846 465 830 454T799 427L783 409Q781 407 777 404T768
401Q766 401 766 403Q766 408 776 420T795 444T805 462Q805 467 796 468T779 470Q757 470 736 471T693 472Q683 472 673 472T654 470Q648 469 646 467T639 460Q631 450 621 427T600 376T581 324T567 285L609 290Q639 294 669 296T731 299Q743 299 758 298T784 289T795
266Q795 262 793 255T784 247Q781 247 781 250Q781 252 783 255T785 263Q785 275 769 277T745 279Q703 279 655 270T566 250Q559 233 549 204T530 146T522 99Q522 74 537 57T575 30T623 16T668 12Q717 12 761 30T837 86Q838 87 840 88T843 90Q845 90 845 88Q845
83 842 78T835 70Q796 26 736 1T617 -25ZM447 254Q489 257 530 257Q533 265 543 289T564 342T583 394T591 423Q591 425 589 425T586 425Q576 425 566 417T550 402Q521 368 497 330T447 254Z" />
<glyph unicode="&#xc7;" glyph-name="Ccedilla" horiz-adv-x="421" d="M220 -39Q171 -39 131 -21T67 35T43 128Q43 165 55 210Q72 269 105 322T186 418T291 484T411 508Q419 508 426 508T442 506Q457 505 469 502T487 491Q495 501 499 512T510 528Q518 535 527
535Q542 535 542 523Q542 519 539 514Q506 473 486 434T448 348Q445 340 438 340Q434 340 431 343T431 353L458 416Q467 437 467 450Q467 473 445 481Q421 491 393 491Q353 491 315 471T243 418T182 344T135 265T106 192Q93 149 93 111Q93 47 129 17T222 -14Q282
-14 354 18Q401 39 431 69T498 143Q501 147 506 147Q513 147 508 139Q471 88 437 52T358 -6Q289 -39 220 -39ZM134 71Q115 71 94 77Q89 79 91 85Q93 87 96 88T102 90Q108 89 114 88T125 86Q147 86 161 98T175 127Q175 134 170 146Q163 159 163 173Q163 197 187
220Q204 236 226 236Q234 236 234 229Q194 223 194 190Q194 174 202 161Q212 144 212 128Q212 103 190 87T134 71Z" />
<glyph unicode="&#xc8;" glyph-name="Egrave" horiz-adv-x="450" d="M265 -24Q239 -24 214 -19T166 0Q145 12 134 35T123 77Q123 106 137 148T174 239Q162 236 152 234T133 230Q131 230 129 230T124 229Q110 229 110 237Q110 240 112 243T115 249Q120 257 132
264T154 272Q162 273 172 275T192 278Q219 334 245 386T285 475L163 471Q108 470 82 454T55 396Q55 373 63 349T79 305Q79 304 79 304T80 302Q80 294 74 294Q68 294 61 313Q57 327 51 349T42 386Q40 395 39 404T38 420Q38 459 59 479T115 506T185 513Q211 513 235
511T279 507Q298 505 298 513T305 533Q308 546 319 546Q325 546 330 541T336 524Q336 514 332 505L524 504L530 502Q532 495 531 491Q531 488 514 478T474 450T432 409Q424 401 417 401Q415 401 415 403Q415 408 422 416Q423 418 429 425T444 444Q449 451 451 455T454
462Q454 470 418 470Q402 470 388 471T358 472Q351 472 343 472T327 470Q323 469 320 468T313 460Q300 443 276 393T228 285L257 290Q286 295 314 297T367 299Q376 299 385 299T402 298Q424 297 433 287T443 265Q443 258 440 252Q437 246 432 246T431 253Q434 259
434 263Q434 272 423 275T393 279Q368 279 335 274T276 264T241 256L214 250Q195 201 183 160T171 99Q171 69 192 50T247 22T314 12Q361 12 408 30T486 86Q489 91 492 91Q493 91 493 88Q493 86 491 81T484 70Q475 60 465 51T444 34Q407 8 360 -8T265 -24ZM457 571Q457
568 447 572T421 585T389 599Q374 606 365 609T344 619Q328 627 328 634V636Q328 649 340 651Q343 651 349 649L392 620Q428 597 442 587T457 571Z" />
<glyph unicode="&#xc9;" glyph-name="Eacute" horiz-adv-x="450" d="M265 -24Q239 -24 214 -19T166 0Q145 12 134 35T123 77Q123 106 137 148T174 239Q162 236 152 234T133 230Q131 230 129 230T124 229Q110 229 110 237Q110 240 112 243T115 249Q120 257 132
264T154 272Q162 273 172 275T192 278Q219 334 245 386T285 475L163 471Q108 470 82 454T55 396Q55 373 63 349T79 305Q79 304 79 304T80 302Q80 294 74 294Q68 294 61 313Q57 327 51 349T42 386Q40 395 39 404T38 420Q38 459 59 479T115 506T185 513Q211 513 235
511T279 507Q298 505 298 513T305 533Q308 546 319 546Q325 546 330 541T336 524Q336 514 332 505L524 504L530 502Q532 495 531 491Q531 488 514 478T474 450T432 409Q424 401 417 401Q415 401 415 403Q415 408 422 416Q423 418 429 425T444 444Q449 451 451 455T454
462Q454 470 418 470Q402 470 388 471T358 472Q351 472 343 472T327 470Q323 469 320 468T313 460Q300 443 276 393T228 285L257 290Q286 295 314 297T367 299Q376 299 385 299T402 298Q424 297 433 287T443 265Q443 258 440 252Q437 246 432 246T431 253Q434 259
434 263Q434 272 423 275T393 279Q368 279 335 274T276 264T241 256L214 250Q195 201 183 160T171 99Q171 69 192 50T247 22T314 12Q361 12 408 30T486 86Q489 91 492 91Q493 91 493 88Q493 86 491 81T484 70Q475 60 465 51T444 34Q407 8 360 -8T265 -24ZM380 571Q381
576 395 586T445 620L488 649Q494 651 497 651Q509 649 509 636Q509 628 493 619Q483 613 473 610T448 599Q433 593 417 585T391 573T380 571Z" />
<glyph unicode="&#xca;" glyph-name="Ecircumflex" horiz-adv-x="450" d="M265 -24Q239 -24 214 -19T166 0Q145 12 134 35T123 77Q123 106 137 148T174 239Q162 236 152 234T133 230Q131 230 129 230T124 229Q110 229 110 237Q110 240 112 243T115 249Q120 257
132 264T154 272Q162 273 172 275T192 278Q219 334 245 386T285 475L163 471Q108 470 82 454T55 396Q55 373 63 349T79 305Q79 304 79 304T80 302Q80 294 74 294Q68 294 61 313Q57 327 51 349T42 386Q40 395 39 404T38 420Q38 459 59 479T115 506T185 513Q211 513
235 511T279 507Q298 505 298 513T305 533Q308 546 319 546Q325 546 330 541T336 524Q336 514 332 505L524 504L530 502Q532 495 531 491Q531 488 514 478T474 450T432 409Q424 401 417 401Q415 401 415 403Q415 408 422 416Q423 418 429 425T444 444Q449 451 451
455T454 462Q454 470 418 470Q402 470 388 471T358 472Q351 472 343 472T327 470Q323 469 320 468T313 460Q300 443 276 393T228 285L257 290Q286 295 314 297T367 299Q376 299 385 299T402 298Q424 297 433 287T443 265Q443 258 440 252Q437 246 432 246T431 253Q434
259 434 263Q434 272 423 275T393 279Q368 279 335 274T276 264T241 256L214 250Q195 201 183 160T171 99Q171 69 192 50T247 22T314 12Q361 12 408 30T486 86Q489 91 492 91Q493 91 493 88Q493 86 491 81T484 70Q475 60 465 51T444 34Q407 8 360 -8T265 -24ZM515
555Q511 554 495 563T468 581Q460 587 449 594T431 605Q424 601 415 598T398 590Q367 574 353 567T331 557Q329 557 330 560Q334 566 347 577T379 602Q393 613 405 621T432 643Q439 650 442 650Q444 650 449 643Q451 639 461 626T478 603Q487 592 501 577T517 559Q520
555 515 555Z" />
<glyph unicode="&#xcb;" glyph-name="Edieresis" horiz-adv-x="450" d="M265 -24Q239 -24 214 -19T166 0Q145 12 134 35T123 77Q123 106 137 148T174 239Q162 236 152 234T133 230Q131 230 129 230T124 229Q110 229 110 237Q110 240 112 243T115 249Q120 257 132
264T154 272Q162 273 172 275T192 278Q219 334 245 386T285 475L163 471Q108 470 82 454T55 396Q55 373 63 349T79 305Q79 304 79 304T80 302Q80 294 74 294Q68 294 61 313Q57 327 51 349T42 386Q40 395 39 404T38 420Q38 459 59 479T115 506T185 513Q211 513 235
511T279 507Q298 505 298 513T305 533Q308 546 319 546Q325 546 330 541T336 524Q336 514 332 505L524 504L530 502Q532 495 531 491Q531 488 514 478T474 450T432 409Q424 401 417 401Q415 401 415 403Q415 408 422 416Q423 418 429 425T444 444Q449 451 451 455T454
462Q454 470 418 470Q402 470 388 471T358 472Q351 472 343 472T327 470Q323 469 320 468T313 460Q300 443 276 393T228 285L257 290Q286 295 314 297T367 299Q376 299 385 299T402 298Q424 297 433 287T443 265Q443 258 440 252Q437 246 432 246T431 253Q434 259
434 263Q434 272 423 275T393 279Q368 279 335 274T276 264T241 256L214 250Q195 201 183 160T171 99Q171 69 192 50T247 22T314 12Q361 12 408 30T486 86Q489 91 492 91Q493 91 493 88Q493 86 491 81T484 70Q475 60 465 51T444 34Q407 8 360 -8T265 -24ZM465 571Q455
571 455 582Q455 587 457 593Q462 607 478 619Q493 631 508 631Q513 631 513 629Q512 625 510 620T503 607L492 589Q491 579 484 575T465 571ZM379 571Q371 571 371 581Q371 584 371 587T372 593Q377 607 392 619Q408 631 423 631Q430 631 428 629Q427 622 417
607L408 589Q402 571 379 571Z" />
<glyph unicode="&#xcc;" glyph-name="Igrave" horiz-adv-x="322" d="M131 -37Q100 -37 78 -20T42 26T21 84T14 140Q14 144 15 150T21 157Q23 157 23 154Q23 146 25 137T29 118Q34 95 45 72T76 34T122 19Q146 19 165 29T199 57Q231 96 255 152T300 269T335 377Q336
380 340 392T348 417T352 432Q353 450 354 466T369 496Q333 484 297 473T225 447Q203 438 186 422T169 380Q169 360 178 341T197 304T206 266Q206 246 192 229T156 212Q152 212 144 214T136 220Q136 223 139 223Q140 223 142 222T147 220Q159 220 166 231T178 257T182
280Q182 303 172 323T151 364T140 405Q140 432 160 448T212 473T279 489T345 501T395 519Q402 523 414 536T430 550Q433 550 433 544Q433 536 428 523T417 503Q405 490 398 475T384 443Q374 418 365 392T347 340Q324 277 303 214T254 88Q244 64 227 35T185 -15T131
-37ZM458 605Q458 602 448 606T422 619T390 633Q375 640 366 643T345 653Q329 661 329 668V670Q329 683 341 685Q344 685 350 683L393 654Q429 631 443 621T458 605Z" />
<glyph unicode="&#xcd;" glyph-name="Iacute" horiz-adv-x="322" d="M131 -37Q100 -37 78 -20T42 26T21 84T14 140Q14 144 15 150T21 157Q23 157 23 154Q23 146 25 137T29 118Q34 95 45 72T76 34T122 19Q146 19 165 29T199 57Q231 96 255 152T300 269T335 377Q336
380 340 392T348 417T352 432Q353 450 354 466T369 496Q333 484 297 473T225 447Q203 438 186 422T169 380Q169 360 178 341T197 304T206 266Q206 246 192 229T156 212Q152 212 144 214T136 220Q136 223 139 223Q140 223 142 222T147 220Q159 220 166 231T178 257T182
280Q182 303 172 323T151 364T140 405Q140 432 160 448T212 473T279 489T345 501T395 519Q402 523 414 536T430 550Q433 550 433 544Q433 536 428 523T417 503Q405 490 398 475T384 443Q374 418 365 392T347 340Q324 277 303 214T254 88Q244 64 227 35T185 -15T131
-37ZM381 605Q382 610 396 620T446 654L489 683Q495 685 498 685Q510 683 510 670Q510 662 494 653Q484 647 474 644T449 633Q434 627 418 619T392 607T381 605Z" />
<glyph unicode="&#xce;" glyph-name="Icircumflex" horiz-adv-x="322" d="M131 -37Q100 -37 78 -20T42 26T21 84T14 140Q14 144 15 150T21 157Q23 157 23 154Q23 146 25 137T29 118Q34 95 45 72T76 34T122 19Q146 19 165 29T199 57Q231 96 255 152T300 269T335
377Q336 380 340 392T348 417T352 432Q353 450 354 466T369 496Q333 484 297 473T225 447Q203 438 186 422T169 380Q169 360 178 341T197 304T206 266Q206 246 192 229T156 212Q152 212 144 214T136 220Q136 223 139 223Q140 223 142 222T147 220Q159 220 166 231T178
257T182 280Q182 303 172 323T151 364T140 405Q140 432 160 448T212 473T279 489T345 501T395 519Q402 523 414 536T430 550Q433 550 433 544Q433 536 428 523T417 503Q405 490 398 475T384 443Q374 418 365 392T347 340Q324 277 303 214T254 88Q244 64 227 35T185
-15T131 -37ZM516 589Q512 588 496 597T469 615Q461 621 450 628T432 639Q425 635 416 632T399 624Q368 608 354 601T332 591Q330 591 331 594Q335 600 348 611T380 636Q394 647 406 655T433 677Q440 684 443 684Q445 684 450 677Q452 673 462 660T479 637Q488
626 502 611T518 593Q521 589 516 589Z" />
<glyph unicode="&#xcf;" glyph-name="Idieresis" horiz-adv-x="322" d="M131 -37Q100 -37 78 -20T42 26T21 84T14 140Q14 144 15 150T21 157Q23 157 23 154Q23 146 25 137T29 118Q34 95 45 72T76 34T122 19Q146 19 165 29T199 57Q231 96 255 152T300 269T335 377Q336
380 340 392T348 417T352 432Q353 450 354 466T369 496Q333 484 297 473T225 447Q203 438 186 422T169 380Q169 360 178 341T197 304T206 266Q206 246 192 229T156 212Q152 212 144 214T136 220Q136 223 139 223Q140 223 142 222T147 220Q159 220 166 231T178 257T182
280Q182 303 172 323T151 364T140 405Q140 432 160 448T212 473T279 489T345 501T395 519Q402 523 414 536T430 550Q433 550 433 544Q433 536 428 523T417 503Q405 490 398 475T384 443Q374 418 365 392T347 340Q324 277 303 214T254 88Q244 64 227 35T185 -15T131
-37ZM466 605Q456 605 456 616Q456 621 458 627Q463 641 479 653Q494 665 509 665Q514 665 514 663Q513 659 511 654T504 641L493 623Q492 613 485 609T466 605ZM380 605Q372 605 372 615Q372 618 372 621T373 627Q378 641 393 653Q409 665 424 665Q431 665 429
663Q428 656 418 641L409 623Q403 605 380 605Z" />
<glyph unicode="&#xd0;" glyph-name="Eth" horiz-adv-x="564" d="M8 -14Q1 -14 7 -4Q10 1 22 17T59 33Q67 33 75 32T94 31Q113 31 119 35T135 52Q137 55 151 86T185 163Q160 161 142 160T112 158Q88 158 77 162Q84 192 122 192Q141 192 159 192T197 191Q217 237
238 287T278 381T308 453Q294 458 270 464T219 474T166 479Q153 479 142 478T122 472Q55 441 55 381Q55 359 64 333Q73 307 86 284T115 236Q117 232 114 230T109 232Q93 256 75 279T45 328T32 383Q32 388 32 393T34 405Q45 464 83 489T180 517Q199 518 226 514T281
504T324 492Q344 536 372 561T444 587Q451 587 459 584T470 575Q471 574 471 572Q471 568 467 567T460 570Q460 571 456 573T444 575Q419 575 401 561T372 525T352 482Q396 467 439 441T518 379T575 300T597 206Q597 162 571 124T499 56T391 11T260 -7Q206 -8 152
-5T47 0Q20 0 10 -13Q9 -14 8 -14ZM269 11Q353 12 417 36T517 102T554 197Q554 237 535 276T483 350T413 410T338 445Q302 360 276 298T229 191Q247 190 265 190T301 190L300 188Q302 188 302 183Q300 176 282 175Q266 172 230 169L219 167Q198 118 185 90T165
47T152 24Q160 23 179 20T223 14T269 11Z" />
<glyph unicode="&#xd1;" glyph-name="Ntilde" horiz-adv-x="665" d="M555 -43Q546 -43 539 -32T529 -6Q528 2 528 10T527 28Q527 41 528 55T534 85Q507 125 480 168T422 251T357 318Q353 321 351 318T348 315Q342 300 331 270T303 201T267 123T227 49T184 -7Q154
-37 116 -37Q92 -37 70 -23T31 16Q16 41 10 71T1 123Q2 131 9 129Q14 105 20 86T42 49Q74 13 116 13Q151 13 183 39Q209 60 228 92T264 155Q272 173 284 203T308 263T324 312Q326 316 326 319T326 327Q326 345 317 357Q297 379 272 404T217 449T157 476Q153 477
148 477T138 478Q112 478 94 459T75 392Q75 373 83 353T102 314T118 277Q121 265 121 255Q121 224 101 206T59 188Q46 188 37 194Q33 197 35 200T41 200Q50 195 62 203T82 229T91 272Q91 287 87 300Q83 314 76 327T64 355Q54 384 54 411Q54 458 83 486T157 514Q190
514 226 493T294 444T349 394Q352 404 352 408T354 418T360 439T375 488Q379 504 390 504Q395 504 398 499T400 482Q396 466 389 439T368 378Q427 316 464 263T521 176T543 138Q546 153 555 189T577 272T604 367T632 456V458Q632 462 629 467T627 475Q634 498 644
515T664 550Q669 557 677 557Q692 557 695 544Q685 525 669 484T636 391T602 285T575 186T562 117Q570 101 577 76T585 24Q585 -2 577 -22T555 -43ZM579 573Q565 573 551 582T524 599T495 608Q480 608 473 603T460 589Q456 583 455 579T452 574Q450 574 450 583Q450
590 457 604T475 630T498 643Q511 643 525 634T553 615T581 605Q590 605 601 609T621 625Q624 630 626 633T632 636Q637 636 634 630Q630 621 622 608T602 584T579 573Z" />
<glyph unicode="&#xd2;" glyph-name="Ograve" horiz-adv-x="469" d="M216 -18Q146 -18 116 17T85 106Q85 156 106 213Q84 230 69 249T51 289Q50 294 50 299T50 309Q50 355 78 389T150 446T242 481T332 497Q344 505 366 515T413 534T457 542Q474 542 483 535T491
509Q490 503 485 502T480 507Q480 526 463 526Q450 526 433 518T399 499Q471 489 503 442T536 334Q536 267 502 205Q481 166 452 127T387 54T308 2T216 -18ZM213 -3Q255 -3 295 19T372 77T436 152T480 226Q496 260 503 291T510 350Q510 406 483 441T405 477Q395
477 383 476T359 470Q325 449 275 399T181 266Q172 249 165 233T152 201Q175 185 197 174T235 154Q237 152 237 150Q237 147 235 145T231 143Q217 149 194 160T146 186Q131 138 131 99Q131 52 152 25T213 -3ZM114 232L122 251Q149 315 189 367T276 458Q244 451
209 438T142 408T90 367T70 316Q70 283 107 240L114 232ZM504 594Q504 591 494 595T468 608T436 622Q421 629 412 632T391 642Q375 650 375 657V659Q375 672 387 674Q390 674 396 672L439 643Q475 620 489 610T504 594Z" />
<glyph unicode="&#xd3;" glyph-name="Oacute" horiz-adv-x="469" d="M216 -18Q146 -18 116 17T85 106Q85 156 106 213Q84 230 69 249T51 289Q50 294 50 299T50 309Q50 355 78 389T150 446T242 481T332 497Q344 505 366 515T413 534T457 542Q474 542 483 535T491
509Q490 503 485 502T480 507Q480 526 463 526Q450 526 433 518T399 499Q471 489 503 442T536 334Q536 267 502 205Q481 166 452 127T387 54T308 2T216 -18ZM213 -3Q255 -3 295 19T372 77T436 152T480 226Q496 260 503 291T510 350Q510 406 483 441T405 477Q395
477 383 476T359 470Q325 449 275 399T181 266Q172 249 165 233T152 201Q175 185 197 174T235 154Q237 152 237 150Q237 147 235 145T231 143Q217 149 194 160T146 186Q131 138 131 99Q131 52 152 25T213 -3ZM114 232L122 251Q149 315 189 367T276 458Q244 451
209 438T142 408T90 367T70 316Q70 283 107 240L114 232ZM427 594Q428 599 442 609T492 643L535 672Q541 674 544 674Q556 672 556 659Q556 651 540 642Q530 636 520 633T495 622Q480 616 464 608T438 596T427 594Z" />
<glyph unicode="&#xd4;" glyph-name="Ocircumflex" horiz-adv-x="469" d="M216 -18Q146 -18 116 17T85 106Q85 156 106 213Q84 230 69 249T51 289Q50 294 50 299T50 309Q50 355 78 389T150 446T242 481T332 497Q344 505 366 515T413 534T457 542Q474 542 483 535T491
509Q490 503 485 502T480 507Q480 526 463 526Q450 526 433 518T399 499Q471 489 503 442T536 334Q536 267 502 205Q481 166 452 127T387 54T308 2T216 -18ZM213 -3Q255 -3 295 19T372 77T436 152T480 226Q496 260 503 291T510 350Q510 406 483 441T405 477Q395
477 383 476T359 470Q325 449 275 399T181 266Q172 249 165 233T152 201Q175 185 197 174T235 154Q237 152 237 150Q237 147 235 145T231 143Q217 149 194 160T146 186Q131 138 131 99Q131 52 152 25T213 -3ZM114 232L122 251Q149 315 189 367T276 458Q244 451
209 438T142 408T90 367T70 316Q70 283 107 240L114 232ZM562 578Q558 577 542 586T515 604Q507 610 496 617T478 628Q471 624 462 621T445 613Q414 597 400 590T378 580Q376 580 377 583Q381 589 394 600T426 625Q440 636 452 644T479 666Q486 673 489 673Q491
673 496 666Q498 662 508 649T525 626Q534 615 548 600T564 582Q567 578 562 578Z" />
<glyph unicode="&#xd5;" glyph-name="Otilde" horiz-adv-x="469" d="M216 -18Q146 -18 116 17T85 106Q85 156 106 213Q84 230 69 249T51 289Q50 294 50 299T50 309Q50 355 78 389T150 446T242 481T332 497Q344 505 366 515T413 534T457 542Q474 542 483 535T491
509Q490 503 485 502T480 507Q480 526 463 526Q450 526 433 518T399 499Q471 489 503 442T536 334Q536 267 502 205Q481 166 452 127T387 54T308 2T216 -18ZM213 -3Q255 -3 295 19T372 77T436 152T480 226Q496 260 503 291T510 350Q510 406 483 441T405 477Q395
477 383 476T359 470Q325 449 275 399T181 266Q172 249 165 233T152 201Q175 185 197 174T235 154Q237 152 237 150Q237 147 235 145T231 143Q217 149 194 160T146 186Q131 138 131 99Q131 52 152 25T213 -3ZM114 232L122 251Q149 315 189 367T276 458Q244 451
209 438T142 408T90 367T70 316Q70 283 107 240L114 232ZM517 592Q503 592 489 601T462 618T433 627Q418 627 411 622T398 608Q394 602 393 598T390 593Q388 593 388 602Q388 609 395 623T413 649T436 662Q449 662 463 653T491 634T519 624Q528 624 539 628T559
644Q562 649 564 652T570 655Q575 655 572 649Q568 640 560 627T540 603T517 592Z" />
<glyph unicode="&#xd6;" glyph-name="Odieresis" horiz-adv-x="469" d="M216 -18Q146 -18 116 17T85 106Q85 156 106 213Q84 230 69 249T51 289Q50 294 50 299T50 309Q50 355 78 389T150 446T242 481T332 497Q344 505 366 515T413 534T457 542Q474 542 483 535T491
509Q490 503 485 502T480 507Q480 526 463 526Q450 526 433 518T399 499Q471 489 503 442T536 334Q536 267 502 205Q481 166 452 127T387 54T308 2T216 -18ZM213 -3Q255 -3 295 19T372 77T436 152T480 226Q496 260 503 291T510 350Q510 406 483 441T405 477Q395
477 383 476T359 470Q325 449 275 399T181 266Q172 249 165 233T152 201Q175 185 197 174T235 154Q237 152 237 150Q237 147 235 145T231 143Q217 149 194 160T146 186Q131 138 131 99Q131 52 152 25T213 -3ZM114 232L122 251Q149 315 189 367T276 458Q244 451
209 438T142 408T90 367T70 316Q70 283 107 240L114 232ZM512 594Q502 594 502 605Q502 610 504 616Q509 630 525 642Q540 654 555 654Q560 654 560 652Q559 648 557 643T550 630L539 612Q538 602 531 598T512 594ZM426 594Q418 594 418 604Q418 607 418 610T419
616Q424 630 439 642Q455 654 470 654Q477 654 475 652Q474 645 464 630L455 612Q449 594 426 594Z" />
<glyph unicode="&#xd7;" glyph-name="multiply" horiz-adv-x="297" d="M19 -23Q17 -23 17 -19Q19 -11 56 27T160 132L128 287Q128 295 143 295Q155 295 166 288T179 266Q181 253 185 230T192 185T198 158Q230 193 263 229T333 300Q338 303 353 309Q355 310 357
310T360 310Q370 310 352 288T295 228T202 139Q207 119 211 103T222 72Q234 47 246 27T258 -3Q258 -11 247 -11Q216 -11 200 14T165 108Q125 69 94 39T46 -12Q38 -22 31 -22T19 -23Z" />
<glyph unicode="&#xd8;" glyph-name="Oslash" horiz-adv-x="469" d="M7 -106Q-5 -106 -5 -94Q-5 -87 -2 -80Q9 -44 40 2Q48 13 60 29T90 65Q85 85 85 105Q85 129 91 156T107 213Q85 230 69 249T51 289Q50 294 50 299T50 309Q50 355 78 389T150 446T243 481T333
497Q345 506 366 516T412 534T456 542Q473 542 483 535T491 509Q490 503 485 502T480 507Q480 526 463 526Q450 526 433 518T399 499Q427 495 448 485T485 461Q621 589 638 589Q656 589 656 577Q656 570 653 565T642 553Q626 540 603 519T549 470L508 433Q522 412
528 387T535 333Q535 268 502 205Q481 166 452 127T387 54T308 2T216 -18Q173 -18 145 -4T102 35L99 32Q79 12 65 -6T41 -41Q36 -48 33 -55T28 -67Q27 -70 27 -75Q27 -82 32 -87Q33 -88 33 -91Q31 -97 22 -101T7 -106ZM195 176L313 295L474 450Q445 477 404 477Q394
477 383 475T359 470Q325 449 275 399T181 266Q163 232 152 202Q163 195 174 189T195 176ZM114 232L122 251Q149 316 190 368T277 458Q245 451 209 438T142 408T90 367T70 316Q70 283 107 240L114 232ZM213 -3Q255 -3 295 19T372 77T436 152T480 226Q496 260 503
291T510 350Q510 391 495 421Q340 280 223 161Q226 159 229 158T235 154Q237 152 237 150Q237 147 235 145T231 143L213 151L164 100L133 69Q139 35 159 16T213 -3ZM131 109L163 143L184 165L146 186Q133 144 131 109Z" />
<glyph unicode="&#xd9;" glyph-name="Ugrave" horiz-adv-x="554" d="M67 145Q54 145 45 151Q41 153 43 156T49 157Q58 152 70 160T90 186T99 228Q99 243 95 256Q91 271 85 284T73 312Q67 329 65 343T62 370Q62 402 78 422T118 452T170 468T219 478Q233 480 255
485T302 498T347 514T377 531Q382 534 384 534Q389 534 389 528Q389 522 382 514T358 499Q322 487 283 475T209 453T152 433Q83 409 83 349Q83 330 91 310T110 270T126 234Q129 222 129 212Q129 181 109 163T67 145ZM241 -12Q198 -12 182 14T166 76Q166 102 172
128T185 173Q211 245 240 315T295 454Q297 460 305 463T322 466Q331 466 338 463T345 451Q345 442 334 431Q328 425 324 419T316 406Q309 393 290 356T250 267T217 155Q211 128 211 106Q211 70 225 52T263 34Q287 34 319 54T387 115Q404 136 424 169T465 242T502
318T529 382Q531 386 532 389T534 396Q539 411 542 425T552 461Q555 472 558 484T582 496Q588 502 607 513T639 528Q641 529 643 529Q649 529 649 524T646 518Q633 515 622 504T604 480Q547 356 506 220Q495 182 486 141T477 69Q477 47 482 34T501 20Q515 20 538
37T594 94L649 161Q649 162 649 162T650 160Q652 155 650 152Q638 136 626 120T600 88Q593 79 577 62T541 28T502 -1T470 -11Q448 -8 439 9T429 50Q429 60 430 70T433 91Q440 127 452 163T478 235Q458 200 431 158T372 77T307 13T241 -12ZM546 573Q546 570 536
574T510 587T478 601Q463 608 454 611T433 621Q417 629 417 636V638Q417 651 429 653Q432 653 438 651L481 622Q517 599 531 589T546 573Z" />
<glyph unicode="&#xda;" glyph-name="Uacute" horiz-adv-x="554" d="M67 145Q54 145 45 151Q41 153 43 156T49 157Q58 152 70 160T90 186T99 228Q99 243 95 256Q91 271 85 284T73 312Q67 329 65 343T62 370Q62 402 78 422T118 452T170 468T219 478Q233 480 255
485T302 498T347 514T377 531Q382 534 384 534Q389 534 389 528Q389 522 382 514T358 499Q322 487 283 475T209 453T152 433Q83 409 83 349Q83 330 91 310T110 270T126 234Q129 222 129 212Q129 181 109 163T67 145ZM241 -12Q198 -12 182 14T166 76Q166 102 172
128T185 173Q211 245 240 315T295 454Q297 460 305 463T322 466Q331 466 338 463T345 451Q345 442 334 431Q328 425 324 419T316 406Q309 393 290 356T250 267T217 155Q211 128 211 106Q211 70 225 52T263 34Q287 34 319 54T387 115Q404 136 424 169T465 242T502
318T529 382Q531 386 532 389T534 396Q539 411 542 425T552 461Q555 472 558 484T582 496Q588 502 607 513T639 528Q641 529 643 529Q649 529 649 524T646 518Q633 515 622 504T604 480Q547 356 506 220Q495 182 486 141T477 69Q477 47 482 34T501 20Q515 20 538
37T594 94L649 161Q649 162 649 162T650 160Q652 155 650 152Q638 136 626 120T600 88Q593 79 577 62T541 28T502 -1T470 -11Q448 -8 439 9T429 50Q429 60 430 70T433 91Q440 127 452 163T478 235Q458 200 431 158T372 77T307 13T241 -12ZM469 573Q470 578 484
588T534 622L577 651Q583 653 586 653Q598 651 598 638Q598 630 582 621Q572 615 562 612T537 601Q522 595 506 587T480 575T469 573Z" />
<glyph unicode="&#xdb;" glyph-name="Ucircumflex" horiz-adv-x="554" d="M67 145Q54 145 45 151Q41 153 43 156T49 157Q58 152 70 160T90 186T99 228Q99 243 95 256Q91 271 85 284T73 312Q67 329 65 343T62 370Q62 402 78 422T118 452T170 468T219 478Q233 480
255 485T302 498T347 514T377 531Q382 534 384 534Q389 534 389 528Q389 522 382 514T358 499Q322 487 283 475T209 453T152 433Q83 409 83 349Q83 330 91 310T110 270T126 234Q129 222 129 212Q129 181 109 163T67 145ZM241 -12Q198 -12 182 14T166 76Q166 102
172 128T185 173Q211 245 240 315T295 454Q297 460 305 463T322 466Q331 466 338 463T345 451Q345 442 334 431Q328 425 324 419T316 406Q309 393 290 356T250 267T217 155Q211 128 211 106Q211 70 225 52T263 34Q287 34 319 54T387 115Q404 136 424 169T465 242T502
318T529 382Q531 386 532 389T534 396Q539 411 542 425T552 461Q555 472 558 484T582 496Q588 502 607 513T639 528Q641 529 643 529Q649 529 649 524T646 518Q633 515 622 504T604 480Q547 356 506 220Q495 182 486 141T477 69Q477 47 482 34T501 20Q515 20 538
37T594 94L649 161Q649 162 649 162T650 160Q652 155 650 152Q638 136 626 120T600 88Q593 79 577 62T541 28T502 -1T470 -11Q448 -8 439 9T429 50Q429 60 430 70T433 91Q440 127 452 163T478 235Q458 200 431 158T372 77T307 13T241 -12ZM604 557Q600 556 584
565T557 583Q549 589 538 596T520 607Q513 603 504 600T487 592Q456 576 442 569T420 559Q418 559 419 562Q423 568 436 579T468 604Q482 615 494 623T521 645Q528 652 531 652Q533 652 538 645Q540 641 550 628T567 605Q576 594 590 579T606 561Q609 557 604 557Z"
/>
<glyph unicode="&#xdc;" glyph-name="Udieresis" horiz-adv-x="554" d="M67 145Q54 145 45 151Q41 153 43 156T49 157Q58 152 70 160T90 186T99 228Q99 243 95 256Q91 271 85 284T73 312Q67 329 65 343T62 370Q62 402 78 422T118 452T170 468T219 478Q233 480
255 485T302 498T347 514T377 531Q382 534 384 534Q389 534 389 528Q389 522 382 514T358 499Q322 487 283 475T209 453T152 433Q83 409 83 349Q83 330 91 310T110 270T126 234Q129 222 129 212Q129 181 109 163T67 145ZM241 -12Q198 -12 182 14T166 76Q166 102
172 128T185 173Q211 245 240 315T295 454Q297 460 305 463T322 466Q331 466 338 463T345 451Q345 442 334 431Q328 425 324 419T316 406Q309 393 290 356T250 267T217 155Q211 128 211 106Q211 70 225 52T263 34Q287 34 319 54T387 115Q404 136 424 169T465 242T502
318T529 382Q531 386 532 389T534 396Q539 411 542 425T552 461Q555 472 558 484T582 496Q588 502 607 513T639 528Q641 529 643 529Q649 529 649 524T646 518Q633 515 622 504T604 480Q547 356 506 220Q495 182 486 141T477 69Q477 47 482 34T501 20Q515 20 538
37T594 94L649 161Q649 162 649 162T650 160Q652 155 650 152Q638 136 626 120T600 88Q593 79 577 62T541 28T502 -1T470 -11Q448 -8 439 9T429 50Q429 60 430 70T433 91Q440 127 452 163T478 235Q458 200 431 158T372 77T307 13T241 -12ZM554 573Q544 573 544
584Q544 589 546 595Q551 609 567 621Q582 633 597 633Q602 633 602 631Q601 627 599 622T592 609L581 591Q580 581 573 577T554 573ZM468 573Q460 573 460 583Q460 586 460 589T461 595Q466 609 481 621Q497 633 512 633Q519 633 517 631Q516 624 506 609L497
591Q491 573 468 573Z" />
<glyph unicode="&#xdd;" glyph-name="Yacute" horiz-adv-x="388" d="M-8 -290Q-52 -290 -83 -265T-131 -200T-147 -115Q-147 -100 -146 -85T-140 -55Q-136 -51 -133 -51Q-130 -51 -130 -57T-129 -69Q-122 -132 -104 -166T-58 -215T-1 -229Q7 -229 14 -229T29 -227Q66
-222 111 -187T200 -103Q235 -62 264 -17T319 78Q306 68 292 63T279 64Q283 87 286 121T289 195Q289 233 285 273T271 350Q255 409 223 451T138 493Q105 493 84 472T62 418Q62 404 67 390T82 361Q100 339 129 321T179 285Q194 272 200 260T207 236Q207 219 195
210T168 203Q164 204 163 207T166 208H169Q180 208 180 224Q180 237 170 256T136 294Q124 303 109 311T82 329Q53 352 40 375T27 420Q27 458 62 484T144 510Q188 510 231 483T302 390Q323 338 330 279T337 170Q337 153 337 138T335 109Q361 159 385 210T436 310Q445
327 461 356T496 415T536 468T576 497Q578 498 581 498Q584 498 584 495Q584 491 580 487Q570 476 570 466T565 445T534 416Q524 409 501 373T448 283T385 168T321 49T265 -54T226 -119Q195 -163 159 -202T80 -266T-8 -290ZM365 571Q366 576 380 586T430 620L473
649Q479 651 482 651Q494 649 494 636Q494 628 478 619Q468 613 458 610T433 599Q418 593 402 585T376 573T365 571Z" />
<glyph unicode="&#xde;" glyph-name="Thorn" horiz-adv-x="541" d="M7 -140Q0 -140 -4 -137T-7 -131Q14 -127 26 -115T42 -83Q52 -48 61 -13T78 59Q88 103 98 147T118 236Q122 252 129 284T145 356T163 436T181 510T196 562T205 576Q229 587 259 602T316 618Q321
618 327 615T334 609Q334 604 315 604Q305 604 296 601T272 579Q260 563 243 521T209 424Q238 424 274 423T345 412T405 378Q428 356 438 331T449 281Q449 236 422 197T352 138Q321 123 277 118T193 113Q177 113 164 113T139 115Q128 66 120 19T112 -61Q112 -90
120 -103Q125 -110 111 -116T76 -128T37 -137T13 -140H7ZM180 134Q212 134 249 140T320 161T375 203T397 272Q397 304 384 333T349 382T296 407Q292 408 287 408T275 408Q256 408 236 403T209 384Q202 366 192 328T171 246T151 165L144 136Q152 135 161 135T180
134Z" />
<glyph unicode="&#xdf;" glyph-name="germandbls" horiz-adv-x="338" d="M-168 -208Q-199 -208 -220 -198T-247 -168Q-248 -165 -248 -158Q-248 -145 -242 -130T-229 -97Q-226 -92 -223 -92Q-221 -92 -219 -94T-219 -101Q-225 -116 -225 -129Q-225 -156 -203 -171T-152
-186Q-140 -186 -128 -184T-104 -175Q-66 -155 -41 -123T3 -57Q18 -29 36 14T73 105T109 198T140 271H122Q118 271 114 270T105 268L103 269Q105 277 119 284T140 291H151Q171 339 196 379T254 444T328 472Q376 472 398 448T421 390Q421 360 404 327T352 269T267
233Q262 228 262 220Q262 208 273 194T297 166T318 138Q335 110 335 79Q335 45 315 17T265 -27T204 -44Q178 -44 158 -29T129 19Q128 22 128 29Q128 46 136 64T152 93Q153 94 155 94Q158 94 159 92T160 87Q156 80 152 69Q151 65 151 61T151 54Q151 14 174 -5T224
-25Q255 -25 274 -4T293 60Q293 88 283 109T260 150T240 188Q236 196 236 206Q236 222 247 232T272 250Q309 261 335 286T376 341T391 399Q391 425 377 442T330 459Q308 459 289 445T254 411Q229 383 205 334T159 226T115 112T72 13Q55 -21 31 -59T-24 -131T-91
-186T-168 -208Z" />
<glyph unicode="&#xe0;" glyph-name="agrave" horiz-adv-x="300" d="M216 -9Q188 -9 188 34Q188 61 196 85T211 135Q195 118 181 102T149 70Q133 55 116 41T82 15Q51 -5 35 -5Q19 -5 19 14Q19 36 36 73Q46 95 63 121T100 172Q118 194 142 217T196 256T254 272Q277
272 292 262T308 228Q308 204 299 199Q296 196 295 197T294 198Q293 208 285 218T265 233Q252 237 236 237Q199 237 167 216T111 165Q92 140 81 114T69 67Q69 37 85 37Q95 37 107 46T127 62Q156 88 181 119T217 164Q219 166 228 170T249 178L270 183Q276 183 276
182Q270 174 260 149T241 96T233 47Q233 31 239 26Q242 23 247 23Q255 23 264 28T283 41Q318 67 349 105T403 173Q403 173 405 171Q407 166 405 163Q392 146 378 128T350 91Q335 74 320 58T287 27Q267 11 249 1T216 -9ZM301 326Q301 321 282 333T239 358Q225 366
216 370T196 382Q182 391 182 399Q182 414 196 414Q201 414 205 411L244 378Q278 351 289 341T301 326Z" />
<glyph unicode="&#xe1;" glyph-name="aacute" horiz-adv-x="300" d="M216 -9Q188 -9 188 34Q188 61 196 85T211 135Q195 118 181 102T149 70Q133 55 116 41T82 15Q51 -5 35 -5Q19 -5 19 14Q19 36 36 73Q46 95 63 121T100 172Q118 194 142 217T196 256T254 272Q277
272 292 262T308 228Q308 204 299 199Q296 196 295 197T294 198Q293 208 285 218T265 233Q252 237 236 237Q199 237 167 216T111 165Q92 140 81 114T69 67Q69 37 85 37Q95 37 107 46T127 62Q156 88 181 119T217 164Q219 166 228 170T249 178L270 183Q276 183 276
182Q270 174 260 149T241 96T233 47Q233 31 239 26Q242 23 247 23Q255 23 264 28T283 41Q318 67 349 105T403 173Q403 173 405 171Q407 166 405 163Q392 146 378 128T350 91Q335 74 320 58T287 27Q267 11 249 1T216 -9ZM241 326Q241 331 252 341T298 378L337 411Q342
414 346 414Q360 414 360 399Q360 391 346 382Q336 375 327 371T303 358Q281 345 261 333T241 326Z" />
<glyph unicode="&#xe2;" glyph-name="acircumflex" horiz-adv-x="300" d="M216 -9Q188 -9 188 34Q188 61 196 85T211 135Q195 118 181 102T149 70Q133 55 116 41T82 15Q51 -5 35 -5Q19 -5 19 14Q19 36 36 73Q46 95 63 121T100 172Q118 194 142 217T196 256T254
272Q277 272 292 262T308 228Q308 204 299 199Q296 196 295 197T294 198Q293 208 285 218T265 233Q252 237 236 237Q199 237 167 216T111 165Q92 140 81 114T69 67Q69 37 85 37Q95 37 107 46T127 62Q156 88 181 119T217 164Q219 166 228 170T249 178L270 183Q276
183 276 182Q270 174 260 149T241 96T233 47Q233 31 239 26Q242 23 247 23Q255 23 264 28T283 41Q318 67 349 105T403 173Q403 173 405 171Q407 166 405 163Q392 146 378 128T350 91Q335 74 320 58T287 27Q267 11 249 1T216 -9ZM357 310Q353 309 342 316T308 340L283
357L255 343Q224 327 213 321T193 312Q191 312 192 315Q196 321 206 330T235 354Q248 365 258 373T284 395Q290 401 294 401Q297 401 301 395Q303 391 310 380T325 358Q329 352 337 342T351 324T359 314Q362 310 357 310Z" />
<glyph unicode="&#xe3;" glyph-name="atilde" horiz-adv-x="300" d="M216 -9Q188 -9 188 34Q188 61 196 85T211 135Q195 118 181 102T149 70Q133 55 116 41T82 15Q51 -5 35 -5Q19 -5 19 14Q19 36 36 73Q46 95 63 121T100 172Q118 194 142 217T196 256T254 272Q277
272 292 262T308 228Q308 204 299 199Q296 196 295 197T294 198Q293 208 285 218T265 233Q252 237 236 237Q199 237 167 216T111 165Q92 140 81 114T69 67Q69 37 85 37Q95 37 107 46T127 62Q156 88 181 119T217 164Q219 166 228 170T249 178L270 183Q276 183 276
182Q270 174 260 149T241 96T233 47Q233 31 239 26Q242 23 247 23Q255 23 264 28T283 41Q318 67 349 105T403 173Q403 173 405 171Q407 166 405 163Q392 146 378 128T350 91Q335 74 320 58T287 27Q267 11 249 1T216 -9ZM307 326Q294 326 284 334T262 351T237 359Q223
359 217 354T204 341Q200 335 199 331T196 327Q194 327 194 335Q194 342 200 355T217 380T240 392Q253 392 264 383T286 365T309 356Q318 356 329 360T347 375Q350 380 352 383T358 386Q363 386 360 380Q356 371 348 359T329 336T307 326Z" />
<glyph unicode="&#xe4;" glyph-name="adieresis" horiz-adv-x="300" d="M216 -9Q188 -9 188 34Q188 61 196 85T211 135Q195 118 181 102T149 70Q133 55 116 41T82 15Q51 -5 35 -5Q19 -5 19 14Q19 36 36 73Q46 95 63 121T100 172Q118 194 142 217T196 256T254 272Q277
272 292 262T308 228Q308 204 299 199Q296 196 295 197T294 198Q293 208 285 218T265 233Q252 237 236 237Q199 237 167 216T111 165Q92 140 81 114T69 67Q69 37 85 37Q95 37 107 46T127 62Q156 88 181 119T217 164Q219 166 228 170T249 178L270 183Q276 183 276
182Q270 174 260 149T241 96T233 47Q233 31 239 26Q242 23 247 23Q255 23 264 28T283 41Q318 67 349 105T403 173Q403 173 405 171Q407 166 405 163Q392 146 378 128T350 91Q335 74 320 58T287 27Q267 11 249 1T216 -9ZM309 322Q299 322 299 334Q299 337 299 340T301
346Q306 360 323 373Q339 386 354 386Q360 386 360 383Q359 379 356 374T349 360Q345 353 342 348T338 341Q334 322 309 322ZM219 322Q210 322 210 333Q210 336 210 339T212 346Q217 360 233 373Q250 386 265 386Q273 386 270 383Q269 379 267 374T259 360Q251
346 249 341Q243 322 219 322Z" />
<glyph unicode="&#xe5;" glyph-name="aring" horiz-adv-x="300" d="M216 -9Q188 -9 188 34Q188 61 196 85T211 135Q195 118 181 102T149 70Q133 55 116 41T82 15Q51 -5 35 -5Q19 -5 19 14Q19 36 36 73Q46 95 63 121T100 172Q118 194 142 217T196 256T254 272Q277
272 292 262T308 228Q308 204 299 199Q296 196 295 197T294 198Q293 208 285 218T265 233Q252 237 236 237Q199 237 167 216T111 165Q92 140 81 114T69 67Q69 37 85 37Q95 37 107 46T127 62Q156 88 181 119T217 164Q219 166 228 170T249 178L270 183Q276 183 276
182Q270 174 260 149T241 96T233 47Q233 31 239 26Q242 23 247 23Q255 23 264 28T283 41Q318 67 349 105T403 173Q403 173 405 171Q407 166 405 163Q392 146 378 128T350 91Q335 74 320 58T287 27Q267 11 249 1T216 -9ZM286 325Q267 325 253 337T239 367Q239 387
261 404T309 421Q329 421 343 410T357 381Q357 356 335 341T286 325ZM288 334Q302 334 315 347T328 383Q328 396 323 404T308 412Q294 412 281 397T267 364Q267 351 272 343T288 334Z" />
<glyph unicode="&#xe6;" glyph-name="ae" horiz-adv-x="311" d="M192 -11Q149 -11 149 32Q149 50 157 77Q160 90 165 102T175 126Q67 15 30 15Q10 15 10 33Q10 56 34 90T104 168Q188 249 230 249Q247 249 251 236Q274 262 282 262Q297 262 300 252Q309 261 315
261Q334 261 334 243Q334 240 334 237T332 229Q326 212 315 194L380 204Q384 200 384 198Q380 194 378 194L360 190Q339 186 323 181T292 167Q289 162 279 153Q246 118 227 118Q219 118 219 122L221 125Q231 133 253 156Q221 145 209 134Q204 130 198 115T183 71Q176
47 176 32Q176 9 192 9Q220 9 271 67L324 128Q328 128 328 124Q326 119 322 113Q303 85 288 67T265 38Q222 -11 192 -11ZM231 168Q247 172 257 176T274 183Q280 187 290 203T302 226Q305 235 299 235Q296 235 287 228T262 204Q236 178 231 168ZM48 42Q71 42 134
105Q163 134 181 156T210 194Q215 199 222 201L234 216Q231 217 223 217Q203 217 188 208Q143 184 102 143Q52 95 42 60Q41 57 41 55T41 50Q41 42 48 42Z" />
<glyph unicode="&#xe7;" glyph-name="ccedilla" horiz-adv-x="219" d="M99 -7Q68 -7 56 7T43 44Q43 66 52 90T75 136Q106 185 151 222T239 269Q243 270 246 270T252 271Q278 271 278 241Q278 231 275 223T269 211Q266 207 265 207Q262 231 245 235Q235 238 224
238Q195 238 170 221T128 178T100 127Q89 99 89 75Q89 53 99 39T135 24Q174 24 208 48T272 108T322 172Q323 173 324 171Q327 168 324 163Q315 150 305 137T284 110Q262 82 234 55T173 11T99 -7ZM289 -157Q270 -157 249 -151Q244 -149 246 -143Q248 -141 251 -140T257
-138Q263 -139 269 -140T280 -142Q302 -142 316 -130T330 -101Q330 -94 325 -82Q318 -69 318 -55Q318 -31 342 -8Q359 8 381 8Q389 8 389 1Q349 -5 349 -38Q349 -54 357 -67Q367 -84 367 -100Q367 -125 345 -141T289 -157Z" />
<glyph unicode="&#xe8;" glyph-name="egrave" horiz-adv-x="235" d="M122 -12Q82 -12 66 6T49 51Q49 67 54 84T67 118Q60 122 60 128Q60 137 81 144Q90 157 103 179T133 225T168 264T203 280Q217 280 221 269Q225 270 232 270Q261 270 261 240Q261 217 245 197T207
171L208 166Q208 166 218 167T235 170Q252 171 272 170T298 161Q300 159 298 158T293 158Q285 162 267 162Q243 162 211 156T151 142T114 126Q105 112 96 91T87 49Q87 31 97 19T136 6Q166 6 191 21T239 58T278 101Q280 103 292 117T317 147T337 173Q337 173 339
171Q341 167 338 163Q325 147 312 129T285 94Q265 69 241 45T187 4T122 -12ZM124 146Q143 153 154 156T174 163Q183 168 191 174T210 193Q219 204 225 217T231 242Q231 252 225 258Q219 264 204 251T172 217Q156 197 143 177T124 146ZM253 326Q253 321 234 333T191
358Q177 366 168 370T148 382Q134 391 134 399Q134 414 148 414Q153 414 157 411L196 378Q230 351 241 341T253 326Z" />
<glyph unicode="&#xe9;" glyph-name="eacute" horiz-adv-x="235" d="M122 -12Q82 -12 66 6T49 51Q49 67 54 84T67 118Q60 122 60 128Q60 137 81 144Q90 157 103 179T133 225T168 264T203 280Q217 280 221 269Q225 270 232 270Q261 270 261 240Q261 217 245 197T207
171L208 166Q208 166 218 167T235 170Q252 171 272 170T298 161Q300 159 298 158T293 158Q285 162 267 162Q243 162 211 156T151 142T114 126Q105 112 96 91T87 49Q87 31 97 19T136 6Q166 6 191 21T239 58T278 101Q280 103 292 117T317 147T337 173Q337 173 339
171Q341 167 338 163Q325 147 312 129T285 94Q265 69 241 45T187 4T122 -12ZM124 146Q143 153 154 156T174 163Q183 168 191 174T210 193Q219 204 225 217T231 242Q231 252 225 258Q219 264 204 251T172 217Q156 197 143 177T124 146ZM193 326Q193 331 204 341T250
378L289 411Q294 414 298 414Q312 414 312 399Q312 391 298 382Q288 375 279 371T255 358Q233 345 213 333T193 326Z" />
<glyph unicode="&#xea;" glyph-name="ecircumflex" horiz-adv-x="235" d="M122 -12Q82 -12 66 6T49 51Q49 67 54 84T67 118Q60 122 60 128Q60 137 81 144Q90 157 103 179T133 225T168 264T203 280Q217 280 221 269Q225 270 232 270Q261 270 261 240Q261 217 245
197T207 171L208 166Q208 166 218 167T235 170Q252 171 272 170T298 161Q300 159 298 158T293 158Q285 162 267 162Q243 162 211 156T151 142T114 126Q105 112 96 91T87 49Q87 31 97 19T136 6Q166 6 191 21T239 58T278 101Q280 103 292 117T317 147T337 173Q337
173 339 171Q341 167 338 163Q325 147 312 129T285 94Q265 69 241 45T187 4T122 -12ZM124 146Q143 153 154 156T174 163Q183 168 191 174T210 193Q219 204 225 217T231 242Q231 252 225 258Q219 264 204 251T172 217Q156 197 143 177T124 146ZM309 310Q305 309
294 316T260 340L235 357L207 343Q176 327 165 321T145 312Q143 312 144 315Q148 321 158 330T187 354Q200 365 210 373T236 395Q242 401 246 401Q249 401 253 395Q255 391 262 380T277 358Q281 352 289 342T303 324T311 314Q314 310 309 310Z" />
<glyph unicode="&#xeb;" glyph-name="edieresis" horiz-adv-x="235" d="M122 -12Q82 -12 66 6T49 51Q49 67 54 84T67 118Q60 122 60 128Q60 137 81 144Q90 157 103 179T133 225T168 264T203 280Q217 280 221 269Q225 270 232 270Q261 270 261 240Q261 217 245
197T207 171L208 166Q208 166 218 167T235 170Q252 171 272 170T298 161Q300 159 298 158T293 158Q285 162 267 162Q243 162 211 156T151 142T114 126Q105 112 96 91T87 49Q87 31 97 19T136 6Q166 6 191 21T239 58T278 101Q280 103 292 117T317 147T337 173Q337
173 339 171Q341 167 338 163Q325 147 312 129T285 94Q265 69 241 45T187 4T122 -12ZM124 146Q143 153 154 156T174 163Q183 168 191 174T210 193Q219 204 225 217T231 242Q231 252 225 258Q219 264 204 251T172 217Q156 197 143 177T124 146ZM261 322Q251 322
251 334Q251 337 251 340T253 346Q258 360 275 373Q291 386 306 386Q312 386 312 383Q311 379 308 374T301 360Q297 353 294 348T290 341Q286 322 261 322ZM171 322Q162 322 162 333Q162 336 162 339T164 346Q169 360 185 373Q202 386 217 386Q225 386 222 383Q221
379 219 374T211 360Q203 346 201 341Q195 322 171 322Z" />
<glyph unicode="&#xec;" glyph-name="igrave" horiz-adv-x="143" d="M62 -11Q42 -11 42 14Q42 21 43 28T47 46Q50 57 56 73T72 112Q90 157 96 178Q100 192 102 202T104 221Q104 248 82 248Q78 248 74 247T65 246Q60 246 61 252Q62 257 78 263T113 274T136 279Q146
279 146 265Q146 261 145 256T142 245Q135 217 112 161Q101 133 94 113T82 78Q75 54 75 37Q75 13 91 13Q102 13 114 20T135 36L137 38Q139 38 139 37L140 40Q144 40 144 36Q144 29 134 21T107 5Q76 -11 62 -11ZM165 326Q165 321 146 333T103 358Q89 366 80 370T60
382Q46 391 46 399Q46 414 60 414Q65 414 69 411L108 378Q142 351 153 341T165 326Z" />
<glyph unicode="&#xed;" glyph-name="iacute" horiz-adv-x="143" d="M62 -11Q42 -11 42 14Q42 21 43 28T47 46Q50 57 56 73T72 112Q90 157 96 178Q100 192 102 202T104 221Q104 248 82 248Q78 248 74 247T65 246Q60 246 61 252Q62 257 78 263T113 274T136 279Q146
279 146 265Q146 261 145 256T142 245Q135 217 112 161Q101 133 94 113T82 78Q75 54 75 37Q75 13 91 13Q102 13 114 20T135 36L137 38Q139 38 139 37L140 40Q144 40 144 36Q144 29 134 21T107 5Q76 -11 62 -11ZM105 326Q105 331 116 341T162 378L201 411Q206 414
210 414Q224 414 224 399Q224 391 210 382Q200 375 191 371T167 358Q145 345 125 333T105 326Z" />
<glyph unicode="&#xee;" glyph-name="icircumflex" horiz-adv-x="143" d="M62 -11Q42 -11 42 14Q42 21 43 28T47 46Q50 57 56 73T72 112Q90 157 96 178Q100 192 102 202T104 221Q104 248 82 248Q78 248 74 247T65 246Q60 246 61 252Q62 257 78 263T113 274T136
279Q146 279 146 265Q146 261 145 256T142 245Q135 217 112 161Q101 133 94 113T82 78Q75 54 75 37Q75 13 91 13Q102 13 114 20T135 36L137 38Q139 38 139 37L140 40Q144 40 144 36Q144 29 134 21T107 5Q76 -11 62 -11ZM221 310Q217 309 206 316T172 340L147 357L119
343Q88 327 77 321T57 312Q55 312 56 315Q60 321 70 330T99 354Q112 365 122 373T148 395Q154 401 158 401Q161 401 165 395Q167 391 174 380T189 358Q193 352 201 342T215 324T223 314Q226 310 221 310Z" />
<glyph unicode="&#xef;" glyph-name="idieresis" horiz-adv-x="143" d="M62 -11Q42 -11 42 14Q42 21 43 28T47 46Q50 57 56 73T72 112Q90 157 96 178Q100 192 102 202T104 221Q104 248 82 248Q78 248 74 247T65 246Q60 246 61 252Q62 257 78 263T113 274T136 279Q146
279 146 265Q146 261 145 256T142 245Q135 217 112 161Q101 133 94 113T82 78Q75 54 75 37Q75 13 91 13Q102 13 114 20T135 36L137 38Q139 38 139 37L140 40Q144 40 144 36Q144 29 134 21T107 5Q76 -11 62 -11ZM173 322Q163 322 163 334Q163 337 163 340T165 346Q170
360 187 373Q203 386 218 386Q224 386 224 383Q223 379 220 374T213 360Q209 353 206 348T202 341Q198 322 173 322ZM83 322Q74 322 74 333Q74 336 74 339T76 346Q81 360 97 373Q114 386 129 386Q137 386 134 383Q133 379 131 374T123 360Q115 346 113 341Q107
322 83 322Z" />
<glyph unicode="&#xf0;" glyph-name="eth" horiz-adv-x="330" d="M98 -6Q82 -6 74 5T65 36Q65 53 71 72Q77 94 90 120T120 170Q134 192 153 214T195 252T246 268Q262 268 268 265T276 256Q282 282 284 314T287 380Q287 401 286 420T283 456Q264 446 246 436T208
411Q199 405 193 405Q183 405 183 415Q183 422 191 432T219 455Q230 458 246 465T278 481Q271 511 257 533T219 565Q209 569 209 574Q209 581 228 586Q231 587 237 587Q254 587 275 570T310 500Q333 513 350 524T381 542Q389 547 398 547Q414 547 414 534Q414 527
404 518T370 500Q358 494 345 489T315 476Q319 453 321 427T323 374Q323 306 307 236T249 106Q224 70 195 48T149 14Q119 -6 98 -6ZM136 35Q154 35 175 53Q194 69 211 94T242 143T261 178Q266 191 266 205Q266 217 259 225T234 234Q202 234 178 213T134 163Q125
150 118 122T110 72Q110 53 117 44T136 35Z" />
<glyph unicode="&#xf1;" glyph-name="ntilde" horiz-adv-x="295" d="M45 1Q45 4 47 7T50 12Q53 19 56 29T67 52Q75 67 84 89T103 133T118 169Q120 176 122 182T126 194Q127 198 127 204Q127 214 122 220T103 226Q93 226 81 222T58 212Q58 214 59 218T63 223Q67
225 88 232T127 247Q142 253 158 263Q160 264 167 268T177 272H179Q187 272 187 261Q187 254 185 243T177 219Q168 197 158 176T145 150L117 87Q159 129 195 168T264 245Q284 268 314 268Q326 268 334 264Q339 262 337 260T330 257Q316 253 297 230T262 176T236
115Q228 89 228 67Q228 53 233 44T249 35Q265 35 291 53Q305 63 326 85T367 133T399 173Q399 173 401 171Q403 166 400 163Q393 153 382 138T357 106Q343 90 328 73T297 44Q283 32 266 24T233 16Q210 16 201 30T192 65Q192 82 196 100T206 134Q211 149 225 176Q194
151 166 125T120 73Q113 63 107 48T97 19Q96 16 90 14T75 9Q68 8 60 6T45 0V1ZM328 326Q315 326 305 334T283 351T258 359Q244 359 238 354T225 341Q221 335 220 331T217 327Q215 327 215 335Q215 342 221 355T238 380T261 392Q274 392 285 383T307 365T330 356Q339
356 350 360T368 375Q371 380 373 383T379 386Q384 386 381 380Q377 371 369 359T350 336T328 326Z" />
<glyph unicode="&#xf2;" glyph-name="ograve" horiz-adv-x="270" d="M118 -9Q94 -9 78 9T61 65Q61 99 76 133T116 194T173 236Q181 239 188 241T202 243Q217 243 228 235T239 210Q239 206 239 203T237 196Q236 192 232 191T227 194Q229 211 221 220T199 230Q190
230 182 226Q157 214 139 190T111 136T101 80Q102 22 140 22Q161 22 184 39Q207 56 224 86T251 150T261 213Q261 230 257 244T243 265Q238 269 227 269Q210 269 201 262Q195 258 194 258Q190 258 190 263Q190 267 194 273Q200 283 213 288T240 293Q256 293 268
286Q294 272 294 227Q294 195 281 155T244 79T190 19Q154 -9 118 -9ZM285 326Q285 321 266 333T223 358Q209 366 200 370T180 382Q166 391 166 399Q166 414 180 414Q185 414 189 411L228 378Q262 351 273 341T285 326Z" />
<glyph unicode="&#xf3;" glyph-name="oacute" horiz-adv-x="270" d="M118 -9Q94 -9 78 9T61 65Q61 99 76 133T116 194T173 236Q181 239 188 241T202 243Q217 243 228 235T239 210Q239 206 239 203T237 196Q236 192 232 191T227 194Q229 211 221 220T199 230Q190
230 182 226Q157 214 139 190T111 136T101 80Q102 22 140 22Q161 22 184 39Q207 56 224 86T251 150T261 213Q261 230 257 244T243 265Q238 269 227 269Q210 269 201 262Q195 258 194 258Q190 258 190 263Q190 267 194 273Q200 283 213 288T240 293Q256 293 268
286Q294 272 294 227Q294 195 281 155T244 79T190 19Q154 -9 118 -9ZM225 326Q225 331 236 341T282 378L321 411Q326 414 330 414Q344 414 344 399Q344 391 330 382Q320 375 311 371T287 358Q265 345 245 333T225 326Z" />
<glyph unicode="&#xf4;" glyph-name="ocircumflex" horiz-adv-x="270" d="M118 -9Q94 -9 78 9T61 65Q61 99 76 133T116 194T173 236Q181 239 188 241T202 243Q217 243 228 235T239 210Q239 206 239 203T237 196Q236 192 232 191T227 194Q229 211 221 220T199 230Q190
230 182 226Q157 214 139 190T111 136T101 80Q102 22 140 22Q161 22 184 39Q207 56 224 86T251 150T261 213Q261 230 257 244T243 265Q238 269 227 269Q210 269 201 262Q195 258 194 258Q190 258 190 263Q190 267 194 273Q200 283 213 288T240 293Q256 293 268
286Q294 272 294 227Q294 195 281 155T244 79T190 19Q154 -9 118 -9ZM341 310Q337 309 326 316T292 340L267 357L239 343Q208 327 197 321T177 312Q175 312 176 315Q180 321 190 330T219 354Q232 365 242 373T268 395Q274 401 278 401Q281 401 285 395Q287 391
294 380T309 358Q313 352 321 342T335 324T343 314Q346 310 341 310Z" />
<glyph unicode="&#xf5;" glyph-name="otilde" horiz-adv-x="270" d="M118 -9Q94 -9 78 9T61 65Q61 99 76 133T116 194T173 236Q181 239 188 241T202 243Q217 243 228 235T239 210Q239 206 239 203T237 196Q236 192 232 191T227 194Q229 211 221 220T199 230Q190
230 182 226Q157 214 139 190T111 136T101 80Q102 22 140 22Q161 22 184 39Q207 56 224 86T251 150T261 213Q261 230 257 244T243 265Q238 269 227 269Q210 269 201 262Q195 258 194 258Q190 258 190 263Q190 267 194 273Q200 283 213 288T240 293Q256 293 268
286Q294 272 294 227Q294 195 281 155T244 79T190 19Q154 -9 118 -9ZM291 326Q278 326 268 334T246 351T221 359Q207 359 201 354T188 341Q184 335 183 331T180 327Q178 327 178 335Q178 342 184 355T201 380T224 392Q237 392 248 383T270 365T293 356Q302 356
313 360T331 375Q334 380 336 383T342 386Q347 386 344 380Q340 371 332 359T313 336T291 326Z" />
<glyph unicode="&#xf6;" glyph-name="odieresis" horiz-adv-x="270" d="M118 -9Q94 -9 78 9T61 65Q61 99 76 133T116 194T173 236Q181 239 188 241T202 243Q217 243 228 235T239 210Q239 206 239 203T237 196Q236 192 232 191T227 194Q229 211 221 220T199 230Q190
230 182 226Q157 214 139 190T111 136T101 80Q102 22 140 22Q161 22 184 39Q207 56 224 86T251 150T261 213Q261 230 257 244T243 265Q238 269 227 269Q210 269 201 262Q195 258 194 258Q190 258 190 263Q190 267 194 273Q200 283 213 288T240 293Q256 293 268
286Q294 272 294 227Q294 195 281 155T244 79T190 19Q154 -9 118 -9ZM293 322Q283 322 283 334Q283 337 283 340T285 346Q290 360 307 373Q323 386 338 386Q344 386 344 383Q343 379 340 374T333 360Q329 353 326 348T322 341Q318 322 293 322ZM203 322Q194 322
194 333Q194 336 194 339T196 346Q201 360 217 373Q234 386 249 386Q257 386 254 383Q253 379 251 374T243 360Q235 346 233 341Q227 322 203 322Z" />
<glyph unicode="&#xf7;" glyph-name="divide" horiz-adv-x="282" d="M208 179Q186 179 186 194Q186 208 195 214T218 221Q245 221 239 199Q236 190 226 184Q214 179 208 179ZM159 122Q113 122 89 125T67 139Q72 156 89 156H245Q265 156 279 156T305 158L304 154Q302
147 285 142T238 132Q210 127 191 125T159 122ZM147 58Q124 58 124 74Q124 87 133 93T156 100Q183 100 177 78Q176 71 164 64Q155 58 147 58Z" />
<glyph unicode="&#xf8;" glyph-name="oslash" horiz-adv-x="270" d="M-1 -108Q-8 -108 -8 -100Q-8 -96 -6 -91Q0 -69 18 -40Q34 -13 87 49Q106 70 127 94T172 145Q257 236 303 283T356 330Q366 330 366 322Q366 318 364 315T358 307Q349 299 336 286T306 255Q241
189 187 131T88 22Q73 6 64 -5T51 -21Q40 -34 32 -45T18 -67Q15 -72 14 -76T11 -83Q10 -85 10 -88Q10 -93 13 -96Q14 -96 14 -98Q12 -102 7 -105T-1 -108ZM118 -9Q94 -9 78 9T61 65Q61 99 76 133T116 194T173 236Q181 239 188 241T202 243Q217 243 228 235T239
210Q239 206 239 203T237 196Q236 192 232 191T227 194Q229 211 221 220T199 230Q190 230 182 226Q157 214 139 190T111 136T101 80Q102 22 140 22Q161 22 184 39Q207 56 224 86T251 150T261 213Q261 230 257 244T243 265Q238 269 227 269Q210 269 201 262Q195
258 194 258Q190 258 190 263Q190 267 194 273Q200 283 213 288T240 293Q256 293 268 286Q294 272 294 227Q294 195 281 155T244 79T190 19Q154 -9 118 -9Z" />
<glyph unicode="&#xf9;" glyph-name="ugrave" horiz-adv-x="247" d="M237 -53Q215 -53 206 -31T197 22Q197 54 203 85T215 131L152 69Q136 54 119 40T85 15Q54 -4 37 -4Q17 -4 17 18Q17 42 37 74Q40 78 54 98T88 146T122 201Q130 213 136 231T143 263Q143 282
129 282Q120 282 107 275Q106 274 106 278T109 283Q118 289 134 294T161 296Q175 292 181 284T187 264Q187 245 174 223T151 187L103 122Q91 106 83 90T69 61Q68 57 68 54T67 48Q67 35 81 35Q95 35 113 50Q134 66 157 91T200 140T226 173Q233 183 251 189T282 195Q291
195 293 193Q274 173 260 137T237 62T228 -5Q228 -24 232 -35T247 -44H248Q251 -44 251 -47Q251 -53 237 -53ZM301 315Q301 310 282 322T239 347Q225 355 216 359T196 371Q182 380 182 388Q182 403 196 403Q201 403 205 400L244 367Q278 340 289 330T301 315Z"
/>
<glyph unicode="&#xfa;" glyph-name="uacute" horiz-adv-x="247" d="M237 -53Q215 -53 206 -31T197 22Q197 54 203 85T215 131L152 69Q136 54 119 40T85 15Q54 -4 37 -4Q17 -4 17 18Q17 42 37 74Q40 78 54 98T88 146T122 201Q130 213 136 231T143 263Q143 282
129 282Q120 282 107 275Q106 274 106 278T109 283Q118 289 134 294T161 296Q175 292 181 284T187 264Q187 245 174 223T151 187L103 122Q91 106 83 90T69 61Q68 57 68 54T67 48Q67 35 81 35Q95 35 113 50Q134 66 157 91T200 140T226 173Q233 183 251 189T282 195Q291
195 293 193Q274 173 260 137T237 62T228 -5Q228 -24 232 -35T247 -44H248Q251 -44 251 -47Q251 -53 237 -53ZM241 315Q241 320 252 330T298 367L337 400Q342 403 346 403Q360 403 360 388Q360 380 346 371Q336 364 327 360T303 347Q281 334 261 322T241 315Z"
/>
<glyph unicode="&#xfb;" glyph-name="ucircumflex" horiz-adv-x="247" d="M237 -53Q215 -53 206 -31T197 22Q197 54 203 85T215 131L152 69Q136 54 119 40T85 15Q54 -4 37 -4Q17 -4 17 18Q17 42 37 74Q40 78 54 98T88 146T122 201Q130 213 136 231T143 263Q143
282 129 282Q120 282 107 275Q106 274 106 278T109 283Q118 289 134 294T161 296Q175 292 181 284T187 264Q187 245 174 223T151 187L103 122Q91 106 83 90T69 61Q68 57 68 54T67 48Q67 35 81 35Q95 35 113 50Q134 66 157 91T200 140T226 173Q233 183 251 189T282
195Q291 195 293 193Q274 173 260 137T237 62T228 -5Q228 -24 232 -35T247 -44H248Q251 -44 251 -47Q251 -53 237 -53ZM357 299Q353 298 342 305T308 329L283 346L255 332Q224 316 213 310T193 301Q191 301 192 304Q196 310 206 319T235 343Q248 354 258 362T284
384Q290 390 294 390Q297 390 301 384Q303 380 310 369T325 347Q329 341 337 331T351 313T359 303Q362 299 357 299Z" />
<glyph unicode="&#xfc;" glyph-name="udieresis" horiz-adv-x="247" d="M237 -53Q215 -53 206 -31T197 22Q197 54 203 85T215 131L152 69Q136 54 119 40T85 15Q54 -4 37 -4Q17 -4 17 18Q17 42 37 74Q40 78 54 98T88 146T122 201Q130 213 136 231T143 263Q143 282
129 282Q120 282 107 275Q106 274 106 278T109 283Q118 289 134 294T161 296Q175 292 181 284T187 264Q187 245 174 223T151 187L103 122Q91 106 83 90T69 61Q68 57 68 54T67 48Q67 35 81 35Q95 35 113 50Q134 66 157 91T200 140T226 173Q233 183 251 189T282 195Q291
195 293 193Q274 173 260 137T237 62T228 -5Q228 -24 232 -35T247 -44H248Q251 -44 251 -47Q251 -53 237 -53ZM309 311Q299 311 299 323Q299 326 299 329T301 335Q306 349 323 362Q339 375 354 375Q360 375 360 372Q359 368 356 363T349 349Q345 342 342 337T338
330Q334 311 309 311ZM219 311Q210 311 210 322Q210 325 210 328T212 335Q217 349 233 362Q250 375 265 375Q273 375 270 372Q269 368 267 363T259 349Q251 335 249 330Q243 311 219 311Z" />
<glyph unicode="&#xfd;" glyph-name="yacute" horiz-adv-x="325" d="M102 -355Q69 -355 45 -335T21 -275Q21 -267 22 -258T26 -238Q34 -209 43 -190T71 -140Q91 -111 113 -80T160 -18Q164 -13 170 3T178 36Q180 49 181 71T183 117Q183 191 153 191Q132 191 103
156L55 98Q53 96 52 96Q50 96 49 99T50 105Q65 124 79 143T100 173Q117 199 137 214T175 230Q200 230 209 212T219 165Q219 141 214 114T202 62T190 21Q241 86 292 160T384 296Q389 304 401 309T424 314H431Q439 314 442 313Q445 311 442 308Q427 290 397 254T332
173T263 86T207 13Q178 -25 147 -68T93 -157T62 -246Q61 -250 61 -253T61 -262Q61 -290 76 -314T120 -338Q132 -338 146 -333T177 -314Q182 -310 186 -310Q189 -310 189 -314Q189 -321 184 -324Q165 -340 144 -347T102 -355ZM254 340Q254 345 265 355T311 392L350
425Q355 428 359 428Q373 428 373 413Q373 405 359 396Q349 389 340 385T316 372Q294 359 274 347T254 340Z" />
<glyph unicode="&#xfe;" glyph-name="thorn" horiz-adv-x="330" d="M-144 -359Q-149 -359 -141 -351Q-127 -335 -107 -300T-63 -218T-15 -124T29 -32T63 39Q87 90 114 149T168 266T221 366Q259 430 304 489T398 582Q408 590 431 594T473 598Q495 598 495 594Q495
588 462 580Q432 572 398 542T330 466T264 369T205 266T159 172Q154 159 148 145T135 116Q166 154 203 184T276 233T339 252Q377 252 377 222Q377 199 357 165T310 105Q333 116 356 126T402 143Q412 146 412 142Q412 137 398 131Q378 124 349 108T279 71L212 27Q174
2 141 2Q118 2 118 17Q118 25 125 34T140 45Q171 53 206 62T269 88Q295 104 309 129T323 175Q323 189 317 198T296 207Q284 207 269 200Q225 180 179 138T104 47Q71 -24 36 -96T-30 -226T-82 -313Q-88 -321 -101 -332T-127 -351T-144 -359Z" />
<glyph unicode="&#xff;" glyph-name="ydieresis" horiz-adv-x="325" d="M102 -355Q69 -355 45 -335T21 -275Q21 -267 22 -258T26 -238Q34 -209 43 -190T71 -140Q91 -111 113 -80T160 -18Q164 -13 170 3T178 36Q180 49 181 71T183 117Q183 191 153 191Q132 191
103 156L55 98Q53 96 52 96Q50 96 49 99T50 105Q65 124 79 143T100 173Q117 199 137 214T175 230Q200 230 209 212T219 165Q219 141 214 114T202 62T190 21Q241 86 292 160T384 296Q389 304 401 309T424 314H431Q439 314 442 313Q445 311 442 308Q427 290 397 254T332
173T263 86T207 13Q178 -25 147 -68T93 -157T62 -246Q61 -250 61 -253T61 -262Q61 -290 76 -314T120 -338Q132 -338 146 -333T177 -314Q182 -310 186 -310Q189 -310 189 -314Q189 -321 184 -324Q165 -340 144 -347T102 -355ZM322 336Q312 336 312 348Q312 351 312
354T314 360Q319 374 336 387Q352 400 367 400Q373 400 373 397Q372 393 369 388T362 374Q358 367 355 362T351 355Q347 336 322 336ZM232 336Q223 336 223 347Q223 350 223 353T225 360Q230 374 246 387Q263 400 278 400Q286 400 283 397Q282 393 280 388T272
374Q264 360 262 355Q256 336 232 336Z" />
<glyph unicode="&#x2013;" glyph-name="endash" horiz-adv-x="364" d="M129 158Q110 158 98 159T80 163Q88 192 114 192Q142 192 169 191T224 189Q237 189 268 188T351 185Q362 185 376 185T408 184Q413 182 413 179Q413 171 393 168Q389 167 376 166T339 164Q304
164 232 161Q165 158 129 158Z" />
<glyph unicode="&#x2014;" glyph-name="emdash" horiz-adv-x="518" d="M150 158Q89 158 77 162Q84 192 122 192Q163 192 204 191T285 189Q297 189 342 188T464 185L524 184H557Q565 183 565 179Q565 171 538 168Q533 167 513 166T459 164L301 161Q252 160 214
159T150 158Z" />
<glyph unicode="&#x2018;" glyph-name="quoteleft" horiz-adv-x="115" d="M125 286Q105 286 105 305Q105 308 105 312T107 320Q111 333 124 357T159 415Q182 452 200 472T231 493Q218 472 207 454T185 416Q155 364 149 345Q149 344 149 343T148 339Q148 327 159
312Q147 286 125 286Z" />
<glyph unicode="&#x2019;" glyph-name="quoteright" horiz-adv-x="115" d="M98 272Q111 293 122 312T144 349Q159 375 168 392T179 419Q180 422 180 427Q180 438 170 452Q182 479 203 479Q224 479 224 459Q224 456 224 453T222 445Q218 432 206 409T170 351Q146
314 129 294T98 272Z" />
<glyph unicode="&#x201a;" glyph-name="quotesinglbase" horiz-adv-x="183" d="M27 -185Q40 -164 51 -145T73 -108Q88 -82 97 -65T108 -38Q109 -35 109 -30Q109 -19 99 -5Q111 22 132 22Q153 22 153 2Q153 -1 153 -4T151 -12Q147 -25 135 -48T99 -106Q75 -143
58 -163T27 -185Z" />
<glyph unicode="&#x201c;" glyph-name="quotedblleft" horiz-adv-x="186" d="M196 288Q176 288 176 307Q176 310 176 313T178 321Q188 350 230 417Q253 453 271 473T302 495Q290 474 279 455T256 417Q241 391 233 374T221 347Q221 346 221 345T220 341Q220 328
231 314Q217 288 196 288ZM121 288Q101 288 101 306Q101 310 101 313T103 321Q111 348 154 417Q178 453 196 473T227 495L180 417Q151 366 146 347Q145 345 145 340Q145 328 155 314Q143 288 121 288Z" />
<glyph unicode="&#x201d;" glyph-name="quotedblright" horiz-adv-x="186" d="M182 301L228 379Q243 405 252 422T263 449Q264 451 264 456Q264 468 254 482Q266 508 287 508Q308 508 308 489Q308 486 308 483T306 475Q302 462 289 438T254 379Q230 343 213 323T182
301ZM106 301Q119 322 130 341T152 379Q182 432 188 449Q188 451 188 452T189 455Q189 468 178 482Q190 508 212 508Q232 508 232 489Q232 486 232 483T230 475Q222 447 178 379Q155 343 138 323T106 301Z" />
<glyph unicode="&#x201e;" glyph-name="quotedblbase" horiz-adv-x="270" d="M115 -179Q128 -158 139 -139T161 -102Q176 -76 185 -59T196 -32Q197 -29 197 -24Q197 -13 187 1Q199 28 220 28Q241 28 241 8Q241 5 241 2T239 -6Q235 -19 223 -42T187 -100Q163 -137
146 -157T115 -179ZM27 -185Q40 -164 51 -145T73 -108Q88 -82 97 -65T108 -38Q109 -35 109 -30Q109 -19 99 -5Q111 22 132 22Q153 22 153 2Q153 -1 153 -4T151 -12Q147 -25 135 -48T99 -106Q75 -143 58 -163T27 -185Z" />
<glyph unicode="&#x2022;" glyph-name="bullet" horiz-adv-x="370" d="M184 47Q142 47 108 67T54 122T33 198Q33 240 53 274T108 329T184 350Q226 350 260 330T315 275T335 198Q335 157 315 123T261 68T184 47Z" />
<glyph unicode="&#x2039;" glyph-name="guilsinglleft" horiz-adv-x="196" d="M135 37Q130 37 126 42Q118 53 103 73T62 122Q53 132 53 141Q53 150 62 159Q75 172 94 191T133 230T169 267T191 289Q203 300 211 300Q216 300 216 295Q216 287 203 273Q190 257 164
230T98 164Q151 60 148 51Q143 37 135 37Z" />
<glyph unicode="&#x203a;" glyph-name="guilsinglright" horiz-adv-x="267" d="M108 36Q103 36 103 41Q103 49 116 63Q130 79 156 106T221 173Q168 276 171 285Q176 299 184 299Q189 299 193 294Q201 284 216 264T257 214Q266 204 266 195Q266 186 257 177Q244
164 225 145T186 106T150 69T127 47Q116 36 108 36Z" />
</font>
</defs>
</svg>
