<?xml version="1.0" standalone="no"?>
<!DOCTYPE svg PUBLIC "-//W3C//DTD SVG 1.1//EN" "http://www.w3.org/Graphics/SVG/1.1/DTD/svg11.dtd">
<svg xmlns="http://www.w3.org/2000/svg">
<defs >
<font id="SyneMono" horiz-adv-x="553" ><font-face
    font-family="Syne Mono"
    units-per-em="1000"
    panose-1="2 0 0 9 0 0 0 0 0 0"
    ascent="925"
    descent="-275"
    alphabetic="0" />
<glyph unicode=" " glyph-name="space" horiz-adv-x="550" />
<glyph unicode="!" glyph-name="exclam" horiz-adv-x="550" d="M275 650Q314 650 314 426Q314 201 275 201Q236 201 236 426Q236 650 275 650ZM327 49Q327 0 275 0Q223 0 223 49Q223 98 275 98Q327 98 327 49Z" />
<glyph unicode="&quot;" glyph-name="quotedbl" horiz-adv-x="550" d="M201 436Q191 436 182 452T166 494T155 549T151 602Q151 650 200 650Q249 650 249 602Q249 578 246 549T236 495T220 453T201 436ZM351 436Q341 436 332 452T316 494T305 549T301 602Q301
650 350 650Q399 650 399 602Q399 578 396 549T386 495T370 453T351 436Z" />
<glyph unicode="#" glyph-name="numbersign" horiz-adv-x="550" d="M456 404Q402 404 402 325Q402 246 456 246Q510 246 510 213Q510 180 456 180Q402 180 402 100Q402 20 370 20Q338 20 338 100Q338 180 278 180Q218 180 218 100Q218 20 186 20Q154 20 154 100Q154
180 97 180Q40 180 40 213Q40 246 97 246Q154 246 154 325Q154 404 97 404Q40 404 40 437Q40 470 97 470Q154 470 154 550Q154 630 186 630Q218 630 218 550Q218 470 278 470Q338 470 338 550Q338 630 370 630Q402 630 402 550Q402 470 456 470Q510 470 510 437Q510
404 456 404ZM338 325Q338 404 278 404Q218 404 218 325Q218 246 278 246Q338 246 338 325Z" />
<glyph unicode="$" glyph-name="dollar" horiz-adv-x="550" d="M388 334L484 267V131L391 55H282Q260 58 249 -7Q243 -40 229 -54T201 -66T178 -44T176 8Q186 75 142 93L87 151L65 208Q67 226 104 226Q140 226 151 185L233 132H355L404 166V231L348 264Q313 270
272 277T184 292L76 363V494L173 575H268Q276 575 286 638Q292 670 306 683T334 695T357 675T360 625Q349 561 400 545L453 469Q455 415 420 415Q385 415 371 496H208L156 462V400L223 365Q258 358 299 351T388 334Z" />
<glyph unicode="%" glyph-name="percent" horiz-adv-x="550" d="M405 699Q412 697 407 664T387 576T351 454T306 316T257 180T210 62T172 -19T149 -46Q142 -43 147 -10T167 78T203 199T248 337T296 473T343 590T381 671T405 699ZM79 336L20 425V572L79 660H187L246
572V426L186 336H79ZM172 410V587H94V410H172ZM364 -10L305 79V225L364 314H472L531 225V79L472 -10H364ZM457 63V240H379V63H457Z" />
<glyph unicode="&amp;" glyph-name="ampersand" horiz-adv-x="550" d="M514 338Q514 300 470 300Q426 300 426 77Q426 -146 391 -146Q356 -146 356 -27Q356 90 328 -10H165L82 38L36 122V246L122 331Q160 336 160 341T124 350L46 417V533L94 614L181 660H314L406
573Q406 494 371 494Q336 494 336 538L282 585H186L126 529V434L194 375H383Q514 375 514 338ZM356 239Q356 300 304 300H188L116 235V128L178 65H282L356 130V239Z" />
<glyph unicode="&apos;" glyph-name="quotesingle" horiz-adv-x="550" d="M288 456H256Q246 471 238 487T226 531T221 602Q221 650 275 650Q302 650 315 640T329 602Q329 558 323 531T308 488T288 456Z" />
<glyph unicode="(" glyph-name="parenleft" horiz-adv-x="550" d="M383 -94Q379 -94 365 -103T339 -123T327 -140L239 -18L168 168V404L239 590L327 712Q327 708 339 697T365 676T383 666L308 558L248 393V179L308 14L383 -94Z" />
<glyph unicode=")" glyph-name="parenright" horiz-adv-x="550" d="M223 -140Q223 -134 211 -123T186 -103T167 -94L242 14L302 179V393L242 558L167 666Q172 666 185 675T211 696T223 712L311 590L382 404V168L311 -18L223 -140Z" />
<glyph unicode="*" glyph-name="asterisk" horiz-adv-x="550" d="M388 544Q335 527 371 478Q389 453 389 435T379 408T349 405T312 438Q275 491 237 438Q218 412 200 406T171 407T159 434T177 477Q212 526 161 542Q136 551 126 565T121 592T142 612T186 609Q240
591 240 651Q240 710 275 710Q310 710 310 652Q310 593 364 611Q391 620 408 614T429 595T424 567T388 544Z" />
<glyph unicode="+" glyph-name="plus" horiz-adv-x="550" d="M455 270Q455 235 383 235Q310 235 310 163Q310 90 275 90Q240 90 240 163Q240 235 168 235Q95 235 95 270Q95 305 168 305Q240 305 240 378Q240 450 275 450Q310 450 310 378Q310 305 383 305Q455
305 455 270Z" />
<glyph unicode="," glyph-name="comma" horiz-adv-x="550" d="M235 -96Q229 -85 232 -83L251 -65L270 -32Q270 -11 246 -5Q221 -1 221 49Q221 97 275 97Q329 97 329 64V-28L283 -92Q240 -107 235 -96Z" />
<glyph unicode="-" glyph-name="hyphen" horiz-adv-x="550" d="M275 307Q420 307 420 270Q420 233 275 233Q130 233 130 270Q130 307 275 307Z" />
<glyph unicode="." glyph-name="period" horiz-adv-x="550" d="M327 49Q327 0 275 0Q223 0 223 49Q223 98 275 98Q327 98 327 49Z" />
<glyph unicode="/" glyph-name="slash" horiz-adv-x="550" d="M485 679Q493 674 482 640T444 552T383 432T308 297T229 165T155 52T98 -25T66 -47Q58 -42 69 -8T106 80T167 200T242 334T321 466T395 579T453 656T485 679Z" />
<glyph unicode="0" glyph-name="zero" horiz-adv-x="550" d="M389 660L505 475V175L389 -10H161L45 175V475L161 660H389ZM350 70L425 206V444L350 580H200L125 444V206L200 70H350Z" />
<glyph unicode="1" glyph-name="one" horiz-adv-x="550" d="M654 75Q726 75 726 38Q726 0 531 0Q336 0 336 38Q336 75 419 75Q501 75 501 325Q501 575 424 575Q346 575 346 613Q346 650 464 650Q581 650 581 363Q581 75 654 75Z" />
<glyph unicode="2" glyph-name="two" horiz-adv-x="550" d="M321 75Q465 75 465 38Q465 0 275 0Q85 0 85 38V75Q85 75 89 80T103 96Q102 95 136 136T239 260L333 380L368 448V529L311 585H221L157 528Q157 484 122 484Q99 484 92 486T85 501T86 544L135 618L218
660H321L403 614L448 534V442L402 348L338 265Q311 233 292 211T260 174Q261 175 251 163T219 125Q177 75 321 75Z" />
<glyph unicode="3" glyph-name="three" horiz-adv-x="550" d="M465 322V127L416 40L329 -10H221L135 36L84 115Q84 147 83 160T89 175T120 178Q155 178 155 130L223 65H324L385 128V235L317 301H232Q203 301 203 338Q203 374 232 374H316L376 433V529L316 585H225L164
528Q164 484 129 484Q105 484 98 487T92 502T93 545L141 618L222 660H325L409 614L456 533V414L384 349Q317 342 465 322Z" />
<glyph unicode="4" glyph-name="four" horiz-adv-x="550" d="M499 183Q499 145 453 145Q407 145 407 73Q407 0 367 0Q327 0 327 73Q327 145 190 145Q52 145 52 183Q52 194 66 224T105 297T159 388T220 482T281 566T333 627T367 650Q407 650 407 435Q407 220 453
220Q499 220 499 183ZM234 220Q327 220 327 368Q327 410 316 422T287 425T252 392T218 340T198 284T199 238T234 220Z" />
<glyph unicode="5" glyph-name="five" horiz-adv-x="550" d="M345 420L433 366L485 268V140L428 42L334 -10H225L129 38L69 127Q65 187 105 187Q145 187 151 131L225 68H311L369 100L405 162V246L371 309L316 342H243L179 305Q160 259 122 267Q110 270 101 298T90
370T95 462T122 553T177 623T265 650Q424 650 424 613Q424 575 302 575Q181 575 173 453Q169 392 172 373T183 376L250 420H345Z" />
<glyph unicode="6" glyph-name="six" horiz-adv-x="550" d="M346 420L435 368L488 272V143L430 43L331 -10H214L118 41L62 135V249Q74 280 81 300T93 329L222 601Q244 650 288 650Q332 650 261 510Q190 369 236 420H346ZM408 270L334 343H217L142 261V138L217
67H329L408 143V270Z" />
<glyph unicode="7" glyph-name="seven" horiz-adv-x="550" d="M276 650Q461 650 461 613Q461 602 450 564T418 470T374 351T323 225T272 112T228 31T197 0Q157 0 269 288Q380 575 235 575Q90 575 90 613Q90 650 276 650Z" />
<glyph unicode="8" glyph-name="eight" horiz-adv-x="550" d="M421 323L485 240V126L435 40L340 -10H210L115 40L65 126V240L129 323Q183 342 135 358L79 428V534L127 614L215 660H335L423 614L471 534V428L415 358Q367 342 421 323ZM223 585L159 529V439L224
379H326L391 439V529L327 585H223ZM334 65L405 129V230L334 296H216L145 230V129L216 65H334Z" />
<glyph unicode="9" glyph-name="nine" horiz-adv-x="550" d="M336 660L432 609L488 515V401Q476 370 469 350T457 321L328 49Q306 0 262 0Q218 0 289 140Q360 281 314 230H206L116 283L62 379V508L120 607L219 660H336ZM333 307L408 389V512L333 583H221L142 507V380L216
307H333Z" />
<glyph unicode=":" glyph-name="colon" horiz-adv-x="550" d="M327 438Q327 389 275 389Q223 389 223 438Q223 487 275 487Q327 487 327 438ZM327 49Q327 0 275 0Q223 0 223 49Q223 98 275 98Q327 98 327 49Z" />
<glyph unicode=";" glyph-name="semicolon" horiz-adv-x="550" d="M327 437Q327 388 275 388Q223 388 223 437Q223 486 275 486Q327 486 327 437ZM235 -96Q229 -85 232 -83L251 -65L270 -32Q270 -11 246 -5Q221 -1 221 49Q221 97 275 97Q329 97 329 64V-28L283
-92Q240 -107 235 -96Z" />
<glyph unicode="&lt;" glyph-name="less" horiz-adv-x="550" d="M255 429Q336 476 381 488T436 488T415 445T314 373Q173 291 314 210Q455 128 436 94Q429 83 402 88T336 111T255 152T177 203T117 252T94 291Q94 336 255 429Z" />
<glyph unicode="=" glyph-name="equal" horiz-adv-x="550" d="M275 405Q470 405 470 368Q470 330 275 330Q80 330 80 368Q80 405 275 405ZM275 225Q470 225 470 188Q470 150 275 150Q80 150 80 188Q80 225 275 225Z" />
<glyph unicode="&gt;" glyph-name="greater" horiz-adv-x="550" d="M295 429Q456 336 456 291Q456 276 433 253T374 203T295 153T215 111T149 89T114 94Q95 128 236 210Q377 291 236 373Q165 414 135 444T114 488T168 489T295 429Z" />
<glyph unicode="?" glyph-name="question" horiz-adv-x="550" d="M335 660L423 614L471 534V405L380 310Q302 301 302 251Q302 201 262 201Q222 201 222 288Q222 374 244 374H323L391 437V530L330 585H223L159 529Q159 484 119 484Q79 484 79 533L130 613L220
660H335ZM209 49Q209 98 261 98Q312 98 312 49Q312 0 261 0Q209 0 209 49Z" />
<glyph unicode="@" glyph-name="at" horiz-adv-x="550" d="M501 527V450L490 384Q484 359 481 345T476 327Q474 317 471 304T464 277L438 198L423 183L409 172Q407 170 406 168T404 165L400 157Q396 154 392 154L384 160Q383 161 349 178Q349 219 349 252T352
323V351Q356 367 357 376T360 387L365 403Q364 401 351 383Q336 343 336 342V340Q336 340 335 338T332 331Q328 316 322 298T309 256L290 209Q283 199 275 188T259 165Q211 108 190 84Q180 71 175 65T169 59Q169 58 166 58Q166 82 165 104T161 153V207Q162 212
164 225T168 258Q181 302 188 327T199 366T206 393Q210 412 212 421T214 432V442Q213 446 213 449T213 456H218L224 453Q224 453 230 451L255 447Q258 446 262 444T270 440L313 413Q321 408 335 443Q340 448 348 457T368 480H394L405 455V408Q401 387 399 375T394
359Q391 352 391 317Q390 300 390 287T389 265Q389 224 400 229T418 280Q422 310 424 326T431 358T442 403L452 458V515Q448 529 445 538T440 552L439 559L435 560Q432 562 431 563T428 565L412 576Q388 584 390 582L378 583H366Q353 581 338 579T306 575Q284 565
264 557T227 542L151 467Q144 440 115 347L98 207V54L113 3L134 -30Q136 -33 136 -33T135 -30L149 -33Q158 -38 164 -42T174 -48H215L242 -16Q261 10 280 34L291 56Q292 58 297 68T311 85T332 80Q349 62 351 64L348 58Q348 57 348 55T349 48L341 28Q338 23 333
13T319 -11Q291 -42 286 -47L277 -58Q273 -65 247 -94L215 -120H176L158 -117Q148 -109 145 -107L118 -95L100 -81Q99 -76 97 -69T93 -55L83 -30Q82 -25 78 -12T65 22L49 82V214L70 376Q84 422 93 455T108 508L203 606Q223 614 236 620T256 628Q261 630 265 631T270
634L301 648Q312 650 326 652T360 656H389Q396 655 403 653T417 649L432 641L449 628Q453 626 457 623T467 615L479 591L487 566Q488 563 491 554T501 527ZM255 221L277 280Q294 331 298 343Q301 351 289 360T261 372T240 365Q239 360 237 349T233 320Q226 296
219 275T206 235Q202 215 202 206T201 181Q204 162 224 185Q234 196 242 205T255 221Z" />
<glyph unicode="A" glyph-name="A" horiz-adv-x="550" d="M477 0Q460 0 446 17T420 59T400 110T388 153T384 170H274Q164 170 139 85Q114 0 72 0Q62 0 62 28T72 103T96 208T131 330T170 451T211 557T247 632T274 660Q285 660 301 632T337 557T378 452T418 330T452
209T477 103T487 28T477 0ZM274 246Q362 246 318 396Q274 546 230 396Q187 246 274 246Z" />
<glyph unicode="B" glyph-name="B" horiz-adv-x="550" d="M496 96L385 5Q338 3 315 2T291 0H168Q45 0 45 325Q45 650 153 650H362L475 558V409L404 339Q371 334 373 329T412 320L496 255V96ZM193 572Q125 572 125 467Q125 361 188 361H320L396 418V524L323 572H193ZM416
78V240L324 283H188Q125 283 125 181Q125 78 198 78H416Z" />
<glyph unicode="C" glyph-name="C" horiz-adv-x="550" d="M505 109L395 -10H160L35 166V484L160 660H395L507 541Q515 431 478 431Q441 431 427 509L357 585H199L115 453V196L199 65H357L424 141Q430 217 468 217Q505 217 505 109Z" />
<glyph unicode="D" glyph-name="D" horiz-adv-x="550" d="M515 466V184L370 0H127Q45 0 45 325Q45 650 127 650H370L515 466ZM338 77L436 217V438L339 573H167Q125 573 125 325Q125 77 167 77H338Z" />
<glyph unicode="E" glyph-name="E" horiz-adv-x="550" d="M316 75Q506 75 506 38Q506 0 276 0Q45 0 45 325Q45 650 275 650Q505 650 505 613Q505 575 315 575Q125 575 125 468Q125 361 281 361Q436 361 436 324Q436 286 281 286Q125 286 125 181Q125 75 316 75Z" />
<glyph unicode="F" glyph-name="F" horiz-adv-x="550" d="M315 573Q125 573 125 468Q125 362 281 362Q436 362 436 324Q436 285 281 285Q125 285 125 143Q125 0 85 0Q45 0 45 325Q45 650 275 650Q505 650 505 612Q505 573 315 573Z" />
<glyph unicode="G" glyph-name="G" horiz-adv-x="550" d="M505 156Q505 0 471 0Q437 0 437 81Q439 150 427 128T364 -10H146L35 168V483L156 660H374L483 540Q495 431 460 431Q425 431 415 507L345 583H115V200L188 67H313L389 149Q412 239 351 238Q289 236 289
274Q289 311 397 311Q505 311 505 156Z" />
<glyph unicode="H" glyph-name="H" horiz-adv-x="550" d="M465 650Q505 650 505 325Q505 0 465 0Q425 0 425 144Q425 287 275 287Q125 287 125 144Q125 0 85 0Q45 0 45 325Q45 650 85 650Q125 650 125 506Q125 362 275 362Q425 362 425 506Q425 650 465 650Z" />
<glyph unicode="I" glyph-name="I" horiz-adv-x="550" d="M380 575Q315 575 315 325Q315 75 380 75Q445 75 445 38Q445 0 380 0H170Q105 0 105 38Q105 75 170 75Q235 75 235 325Q235 575 170 575Q105 575 105 613Q105 650 275 650Q445 650 445 613Q445 575 380 575Z" />
<glyph unicode="J" glyph-name="J" horiz-adv-x="550" d="M445 650Q485 650 485 435V154L433 49L338 -10H175L49 96Q44 188 82 188Q118 188 128 130L211 68H336L405 152V435Q405 650 445 650Z" />
<glyph unicode="K" glyph-name="K" horiz-adv-x="550" d="M477 0Q424 0 275 170Q125 340 125 170Q125 0 85 0Q45 0 45 325Q45 650 85 650Q125 650 125 495Q125 340 253 495Q381 650 434 650Q489 650 355 497Q313 449 294 412T277 339T304 264T376 172Q530 0 477 0Z" />
<glyph unicode="L" glyph-name="L" horiz-adv-x="550" d="M315 75Q505 75 505 38Q505 0 312 0H82Q45 0 45 325Q45 650 85 650Q125 650 125 363Q125 75 315 75Z" />
<glyph unicode="M" glyph-name="M" horiz-adv-x="550" d="M465 650Q505 650 505 325Q505 0 465 0Q425 0 425 215Q425 428 370 215Q314 0 275 0Q236 0 180 213Q125 424 125 213Q125 0 85 0Q45 0 45 325Q45 650 85 650Q125 650 200 379Q275 108 350 379Q425 650 465 650Z" />
<glyph unicode="N" glyph-name="N" horiz-adv-x="550" d="M465 650Q505 650 505 325Q505 0 465 0Q425 0 275 255Q125 509 125 255Q125 0 85 0Q45 0 45 325Q45 650 85 650Q125 650 275 393Q425 135 425 393Q425 650 465 650Z" />
<glyph unicode="O" glyph-name="O" horiz-adv-x="550" d="M153 -10L35 166V481L159 660H397L515 484V166L397 -10H153ZM358 67L435 196V453L358 583H192L115 453V196L192 67H358Z" />
<glyph unicode="P" glyph-name="P" horiz-adv-x="550" d="M356 650L453 600L510 505V375L453 280L356 230H210Q125 230 125 115Q125 0 85 0Q45 0 45 325Q45 650 170 650H356ZM355 307L430 380V502L356 573H210Q125 573 125 440Q125 307 210 307H355Z" />
<glyph unicode="Q" glyph-name="Q" horiz-adv-x="550" d="M515 180L416 7Q315 -7 315 -103Q315 -200 275 -200Q235 -200 235 -103Q235 -7 134 7L35 180V481L159 660H397L515 484V180ZM358 67L435 196V453L358 583H192L115 453V196L192 67H358Z" />
<glyph unicode="R" glyph-name="R" horiz-adv-x="550" d="M375 297L447 275L487 217V81Q487 0 448 0Q408 0 408 81Q407 122 407 167T407 265H194Q125 265 125 133Q125 0 85 0Q45 0 45 325Q45 650 164 650H385L497 556V386L400 306Q317 298 375 297ZM204 342H342L417
411V517L343 573H204Q125 573 125 458Q125 342 204 342Z" />
<glyph unicode="S" glyph-name="S" horiz-adv-x="550" d="M89 211Q125 211 129 147L227 65H350L418 122V202L381 243L349 266Q324 276 289 287T216 313L136 351L74 425V531L123 612L216 660H379L487 547Q485 452 450 452Q413 452 412 519L336 584H223L154 534V454L189
412L239 388Q261 380 278 374T303 366Q318 359 331 355Q338 352 356 345T404 326L452 289L498 223V89L392 -10H214L101 60L51 155Q51 181 51 192T57 207T89 211Z" />
<glyph unicode="T" glyph-name="T" horiz-adv-x="550" d="M535 613Q535 575 425 575Q315 575 315 288Q315 0 275 0Q235 0 235 288Q235 575 125 575Q15 575 15 613Q15 650 275 650Q535 650 535 613Z" />
<glyph unicode="U" glyph-name="U" horiz-adv-x="550" d="M465 650Q505 650 505 450V117L384 -10H167L45 117V450Q45 650 85 650Q125 650 125 450V147L205 67H346L425 147V450Q425 650 465 650Z" />
<glyph unicode="V" glyph-name="V" horiz-adv-x="550" d="M488 650Q499 650 498 623T487 549T461 445T424 325T383 206T341 102T304 28T276 0Q266 0 249 27T212 101T169 205T127 325T91 444T64 548T53 622T63 650Q106 650 191 382Q276 115 361 382Q446 650 488 650Z" />
<glyph unicode="W" glyph-name="W" horiz-adv-x="550" d="M488 650Q500 650 503 615T505 522T494 395T475 256T451 128T425 35T399 0Q357 0 317 253Q277 507 236 253Q196 0 153 0Q143 0 131 27T108 101T85 205T66 325T52 444T45 548T48 622T63 650Q106 650 136
434Q165 218 199 434Q234 650 276 650Q319 650 353 434Q387 220 417 434Q446 650 488 650Z" />
<glyph unicode="X" glyph-name="X" horiz-adv-x="550" d="M412 491Q318 332 412 166Q506 0 457 0Q407 0 341 129Q274 257 204 129Q134 0 88 0Q43 0 139 166Q234 331 144 491Q53 650 98 650Q143 650 210 527Q277 405 347 527Q418 650 462 650Q507 650 412 491Z" />
<glyph unicode="Y" glyph-name="Y" horiz-adv-x="550" d="M480 650Q525 650 420 437Q315 223 315 112Q315 0 275 0Q235 0 235 112Q235 223 130 437Q25 650 70 650Q115 650 196 476Q277 301 356 476Q436 650 480 650Z" />
<glyph unicode="Z" glyph-name="Z" horiz-adv-x="550" d="M495 613Q495 575 323 325Q151 75 323 75Q495 75 495 38Q495 0 275 0Q55 0 55 38Q55 74 228 325Q400 575 228 575Q55 575 55 613Q55 650 275 650Q495 650 495 613Z" />
<glyph unicode="[" glyph-name="bracketleft" horiz-adv-x="550" d="M455 -138Q455 -178 322 -178Q188 -178 188 311Q188 800 322 800Q455 800 455 760Q455 720 362 720Q268 720 268 311Q268 -98 362 -98Q455 -98 455 -138Z" />
<glyph unicode="\" glyph-name="backslash" horiz-adv-x="550" d="M65 679Q73 684 97 657T155 580T228 467T307 335T382 200T443 80T480 -8T484 -47Q476 -52 453 -25T395 51T322 164T243 297T168 432T106 552T69 640T65 679Z" />
<glyph unicode="]" glyph-name="bracketright" horiz-adv-x="550" d="M95 760Q95 800 229 800Q362 800 362 311Q362 -178 229 -178Q95 -178 95 -138Q95 -98 189 -98Q282 -98 282 311Q282 720 189 720Q95 720 95 760Z" />
<glyph unicode="^" glyph-name="asciicircum" horiz-adv-x="550" d="M204 808Q204 759 152 759Q100 759 100 808Q100 856 152 856Q204 856 204 808Z" />
<glyph unicode="_" glyph-name="underscore" horiz-adv-x="550" d="M275 -123Q510 -123 510 -161Q510 -200 275 -200Q40 -200 40 -161Q40 -123 275 -123Z" />
<glyph unicode="`" glyph-name="grave" horiz-adv-x="550" d="M326 601Q317 589 284 603T197 654Q144 689 119 716T102 755Q111 767 144 752T232 702Q285 667 309 640T326 601Z" />
<glyph unicode="a" glyph-name="a" horiz-adv-x="550" d="M447 500Q487 500 487 250Q487 0 451 0Q415 0 413 11L407 79V133Q407 150 403 140T391 93L311 -10H187L100 56L51 174V324L101 443L193 510H319L393 424Q400 389 403 389T407 427Q407 500 447 500ZM332
67L407 170V333L332 432H195L131 334V167L200 67H332Z" />
<glyph unicode="b" glyph-name="b" horiz-adv-x="550" d="M103 700Q143 700 143 530Q143 445 150 440T174 510H357L449 443L499 324V174L450 56L363 -10H239L159 90Q151 126 147 136T143 131V79L137 11Q135 0 99 0Q63 0 63 350Q63 700 103 700ZM218 67H350L419
167V334L355 432H218L143 333V170L218 67Z" />
<glyph unicode="c" glyph-name="c" horiz-adv-x="550" d="M488 96L371 -10H219L113 53L51 171V327L113 446L219 510H370L487 404Q499 313 463 313Q426 313 408 372L339 433H242L172 389L131 306V192L172 110L242 67H340L409 128Q427 188 463 188Q499 188 488 96Z" />
<glyph unicode="d" glyph-name="d" horiz-adv-x="550" d="M447 700Q487 700 487 350Q487 0 451 0Q415 0 413 11L407 79V131Q407 147 403 137T391 90L311 -10H187L100 56L51 174V324L101 443L193 510H376Q392 434 399 439T407 530Q407 700 447 700ZM332 67L407
170V333L332 432H195L131 334V167L200 67H332Z" />
<glyph unicode="e" glyph-name="e" horiz-adv-x="550" d="M458 161Q496 161 483 85L378 -10H221L112 56L51 174V324L110 443L217 510H395L504 365Q498 229 315 229Q131 229 138 156L224 67H391Q419 161 458 161ZM224 433L151 363Q136 301 276 301Q416 301 412
365L343 433H224Z" />
<glyph unicode="f" glyph-name="f" horiz-adv-x="550" d="M267 622V515Q267 500 375 500Q482 500 482 463Q482 425 375 425Q267 425 267 213Q267 0 227 0Q187 0 187 213Q187 425 128 425Q68 425 68 463Q68 500 128 500Q187 500 187 515V616L278 700H425Q493 700
493 660Q493 620 425 620Q391 620 352 620T267 622Z" />
<glyph unicode="g" glyph-name="g" horiz-adv-x="550" d="M533 458Q533 414 469 414Q416 434 415 428T454 386V228L398 131L304 79Q248 79 188 76L135 58V18L158 0H371L475 -74V-179Q475 -200 435 -200Q395 -200 395 -189V-126L340 -77H55V54L124 94Q172 93 114
115L41 219V357L98 456L193 510H282Q311 499 412 501Q477 501 505 491T533 458ZM300 154L374 229V356L300 432H196L121 357V229L196 154H300Z" />
<glyph unicode="h" glyph-name="h" horiz-adv-x="550" d="M362 510L436 477L487 397V166Q487 0 447 0Q407 0 407 156V430H228L156 345Q143 294 143 147Q143 0 103 0Q63 0 63 350Q63 700 103 700Q143 700 143 526Q143 351 161 409L251 510H362Z" />
<glyph unicode="i" glyph-name="i" horiz-adv-x="550" d="M337 652Q337 603 285 603Q233 603 233 652Q233 700 285 700Q337 700 337 652ZM395 75Q465 75 465 38Q465 0 275 0Q85 0 85 38Q85 75 165 75Q245 75 245 250Q245 425 165 425Q85 425 85 463Q85 500 205
500Q325 500 325 288Q325 75 395 75Z" />
<glyph unicode="j" glyph-name="j" horiz-adv-x="550" d="M415 652Q415 603 363 603Q311 603 311 652Q311 700 363 700Q415 700 415 652ZM415 235V-116L324 -200H172Q99 -200 99 -162Q99 -125 172 -125Q209 -125 237 -125T287 -126L335 -83V198Q335 425 217 425Q99
425 99 463Q99 500 257 500Q415 500 415 235Z" />
<glyph unicode="k" glyph-name="k" horiz-adv-x="550" d="M63 350Q63 700 103 700Q143 700 143 350Q143 0 103 0Q63 0 63 350ZM389 139Q513 0 463 0Q446 0 417 18T354 68T292 139T247 223T236 310T277 390Q384 500 440 500Q497 500 381 389Q265 278 389 139Z" />
<glyph unicode="l" glyph-name="l" horiz-adv-x="550" d="M429 75Q482 75 482 38Q482 0 429 0H296L205 84V398Q205 625 135 625Q64 625 64 663Q64 700 135 700H245Q285 700 285 435V117L333 74Q354 75 378 75T429 75Z" />
<glyph unicode="m" glyph-name="m" horiz-adv-x="550" d="M517 510V166Q517 0 477 0Q437 0 437 171V388L416 430H344Q316 333 316 166Q316 0 278 0Q240 0 240 171V389L222 430H163L123 348Q118 323 116 273T113 149Q113 0 73 0Q33 0 33 250Q33 500 73 500Q113
500 113 429Q113 360 126 416L180 510H282Q303 445 312 426T329 433L381 510H517Z" />
<glyph unicode="n" glyph-name="n" horiz-adv-x="550" d="M362 510L436 477L487 397V166Q487 0 447 0Q407 0 407 156V430H228L157 344Q143 290 143 146Q143 0 103 0Q63 0 63 250Q63 500 103 500Q143 500 143 426Q143 351 161 409L251 510H362Z" />
<glyph unicode="o" glyph-name="o" horiz-adv-x="550" d="M210 -10L108 53L51 170V328L108 446L210 510H341L442 446L499 328V170L443 53L342 -10H210ZM341 67L419 163V335L341 433H211L131 335V163L210 67H341Z" />
<glyph unicode="p" glyph-name="p" horiz-adv-x="550" d="M363 510L450 444L499 326V176L449 57L357 -10H174Q143 139 143 -29Q143 -200 103 -200Q63 -200 63 150Q63 500 102 500Q140 500 140 489L143 430V369Q143 353 147 363T159 410L239 510H363ZM355 68L419
166V333L350 433H218L143 330V167L218 68H355Z" />
<glyph unicode="q" glyph-name="q" horiz-adv-x="550" d="M447 500Q487 500 487 150Q487 -200 447 -200Q407 -200 407 -23Q407 153 392 82L314 -10H190L100 56L51 174V324L100 442L190 510H318L393 435Q400 401 403 401T407 434Q407 500 447 500ZM334 67L407 170V333L334
433H197L131 335V166L202 67H334Z" />
<glyph unicode="r" glyph-name="r" horiz-adv-x="550" d="M358 428L257 363Q242 324 242 200Q242 75 329 75Q415 75 415 38Q415 0 239 0Q63 0 63 38Q63 75 113 75Q162 75 162 288Q162 500 202 500Q242 500 242 435Q242 403 246 400T259 422L362 510Q464 510 464
469Q464 428 358 428Z" />
<glyph unicode="s" glyph-name="s" horiz-adv-x="550" d="M104 161Q140 161 151 120L233 66H356L404 100V166L358 198Q323 204 282 211T194 227L96 298V429L193 510H354L453 424Q455 349 420 349Q384 349 371 431H228L176 397V335L232 300Q268 293 309 285T398
269L484 202V66L391 -10H217L107 54L64 135Q67 161 104 161Z" />
<glyph unicode="t" glyph-name="t" horiz-adv-x="550" d="M374 425Q275 425 275 298V117L323 74Q344 75 368 75T419 75Q472 75 472 38Q472 0 419 0H286L195 84V298Q195 425 132 425Q68 425 68 463Q68 500 132 500Q195 500 195 565Q195 630 235 630Q275 630 275
565Q275 500 374 500Q472 500 472 463Q472 425 374 425Z" />
<glyph unicode="u" glyph-name="u" horiz-adv-x="550" d="M447 500Q487 500 487 250Q487 0 447 0Q407 0 407 76Q407 153 389 88L304 -10H188L114 23L63 103V334Q63 500 103 500Q143 500 143 344V70H322L393 156Q407 210 407 354Q407 500 447 500Z" />
<glyph unicode="v" glyph-name="v" horiz-adv-x="550" d="M469 500Q481 500 479 473T465 402T433 304T391 197T346 99T305 27T275 0Q264 0 246 27T205 98T160 196T118 303T86 401T72 473T82 500Q125 500 200 299Q274 98 350 299Q425 500 469 500Z" />
<glyph unicode="w" glyph-name="w" horiz-adv-x="550" d="M469 500Q481 500 484 473T485 402T472 304T451 197T426 99T399 27T376 0Q340 0 305 177Q288 266 270 266T235 177Q201 0 164 0Q154 0 142 27T117 98T93 196T75 303T65 401T66 473T82 500Q126 500 151
322Q177 144 205 322Q232 500 271 500Q309 500 336 318Q349 227 363 227T394 318Q426 500 469 500Z" />
<glyph unicode="x" glyph-name="x" horiz-adv-x="550" d="M462 0Q413 0 344 95Q274 190 206 95Q137 0 89 0Q40 0 134 127Q227 253 134 377Q40 500 89 500Q137 500 206 410Q275 320 339 410Q404 500 452 500Q499 500 411 379Q322 256 416 129Q511 0 462 0Z" />
<glyph unicode="y" glyph-name="y" horiz-adv-x="550" d="M470 500Q481 500 477 471T457 391T420 279T370 150T315 22T262 -91T217 -170T186 -200Q144 -200 189 -96Q234 6 136 254Q39 500 81 500Q123 500 199 302Q275 105 351 302Q428 500 470 500Z" />
<glyph unicode="z" glyph-name="z" horiz-adv-x="550" d="M326 75Q479 75 479 38Q479 0 275 0Q71 0 71 38Q71 75 225 250Q379 425 225 425Q71 425 71 463Q71 500 274 500Q476 500 476 463Q476 425 325 250Q174 75 326 75Z" />
<glyph unicode="{" glyph-name="braceleft" horiz-adv-x="550" d="M411 760Q411 720 339 720Q267 720 267 692L283 633Q300 584 316 540L333 478V341Q213 311 333 281V144L316 82Q300 39 283 -11L267 -70Q267 -98 339 -98Q411 -98 411 -138Q411 -178 295 -178Q178
-178 175 -159V-95L200 -3Q211 29 221 55T238 103L253 153V217L184 271Q118 271 118 311Q118 351 184 351L253 405V469L238 519Q231 540 221 566T200 625L175 717V781Q178 800 295 800Q411 800 411 760Z" />
<glyph unicode="|" glyph-name="bar" horiz-adv-x="550" d="M275 800Q310 800 310 320Q310 -160 275 -160Q240 -160 240 320Q240 800 275 800Z" />
<glyph unicode="}" glyph-name="braceright" horiz-adv-x="550" d="M139 760Q139 800 255 800Q372 800 375 781V717L350 625Q339 593 330 567T312 519L297 469V405L366 351Q432 351 432 311Q432 271 366 271L297 217V153L312 103Q320 82 329 56T350 -3L375 -95V-159Q372
-178 255 -178Q139 -178 139 -138Q139 -98 211 -98Q283 -98 283 -70L267 -11Q251 39 234 82L217 144V281Q337 311 217 341V478L234 540Q251 584 267 633L283 692Q283 720 211 720Q139 720 139 760Z" />
<glyph unicode="~" glyph-name="asciitilde" horiz-adv-x="550" d="M327 273Q327 224 275 224Q223 224 223 273Q223 322 275 322Q327 322 327 273Z" />
<glyph unicode="&#xa0;" glyph-name="uni00A0" horiz-adv-x="550" />
<glyph unicode="&#xa1;" glyph-name="exclamdown" horiz-adv-x="550" d="M327 492Q327 443 275 443Q223 443 223 492Q223 541 275 541Q327 541 327 492ZM275 -109Q236 -109 236 115Q236 340 275 340Q314 340 314 115Q314 -109 275 -109Z" />
<glyph unicode="&#xa2;" glyph-name="cent" horiz-adv-x="550" d="M340 67L409 128Q427 188 463 188Q499 188 488 96L371 -10H270Q263 -9 255 -54Q251 -76 238 -85T210 -93T187 -76T182 -38Q190 9 127 37L51 162V326L111 443L215 508Q278 510 287 559Q291 583
304 593T332 601T356 585T361 547Q353 500 412 482L489 384Q500 313 463 313Q426 313 399 401Q379 408 362 387T332 328T308 245T291 160T282 93T280 67H340ZM131 194L170 113Q181 105 193 125T216 181T234 261T241 342T234 403T207 424L131 327V194Z" />
<glyph unicode="&#xa3;" glyph-name="sterling" horiz-adv-x="550" d="M274 152L223 91Q197 75 329 75Q461 75 461 38Q461 0 286 0Q111 0 111 38V73L158 107L196 163V231Q183 262 131 262Q80 262 80 292Q80 322 116 322Q152 322 128 366L99 446V537L147 617L232
660H340L424 614L470 533Q470 484 430 484Q390 484 390 528L329 585H241L179 533V448L203 384L232 330Q237 322 308 322Q380 322 380 292Q380 262 322 262Q264 262 274 231V152Z" />
<glyph unicode="&#xa4;" glyph-name="currency" horiz-adv-x="550" d="M459 253Q427 206 466 169Q486 150 488 133T480 105T453 97T417 119Q378 157 329 126H219Q173 157 133 119Q114 100 97 98T70 105T62 132T84 169Q122 207 91 252V368Q122 412 84 452Q65 471
63 488T69 515T96 523T133 501Q172 463 218 494H329Q378 463 417 502Q436 521 453 523T480 515T488 488T466 452Q428 414 459 367V253ZM322 198L387 264V357L322 422H229L163 357V264L229 198H322Z" />
<glyph unicode="&#xa5;" glyph-name="yen" horiz-adv-x="550" d="M428 452Q331 253 364 253Q397 253 397 223Q397 193 247 193Q97 193 97 223Q97 253 159 253Q220 253 123 452Q26 650 70 650Q115 650 196 478Q277 306 356 478Q435 650 480 650Q526 650 428 452ZM97
113Q97 143 247 143Q397 143 397 113Q397 83 356 83Q315 83 315 42Q315 0 275 0Q235 0 235 42Q235 83 166 83Q97 83 97 113Z" />
<glyph unicode="&#xa6;" glyph-name="brokenbar" horiz-adv-x="550" d="M310 628Q310 455 275 455Q240 455 240 628Q240 800 275 800Q310 800 310 628ZM310 13Q310 -160 275 -160Q240 -160 240 13Q240 185 275 185Q310 185 310 13Z" />
<glyph unicode="&#xa7;" glyph-name="section" horiz-adv-x="550" d="M417 207L463 150V42L373 -36H219L123 28L83 109Q86 135 123 135Q159 135 170 94L237 41H339L383 76V129L357 157L315 174Q293 180 263 189T191 210L90 282V379L143 435Q200 441 142 466L90
522V628L184 710H346L440 623Q442 549 407 549Q372 549 365 592L310 631H218L170 596V546L199 518L242 502Q265 495 291 488T345 472L416 439L463 378V290L415 236Q368 232 417 207ZM170 326L201 296L245 277Q302 256 340 260L383 301V361L340 390Q312 400 296
406T273 414Q266 416 253 416T217 413L170 376V326Z" />
<glyph unicode="&#xa8;" glyph-name="dieresis" horiz-adv-x="550" d="M204 651Q204 602 152 602Q100 602 100 651Q100 700 152 700Q204 700 204 651ZM382 651Q382 602 330 602Q278 602 278 651Q278 700 330 700Q382 700 382 651Z" />
<glyph unicode="&#xa9;" glyph-name="copyright" horiz-adv-x="550" d="M201 54L84 128L18 256V408L83 535L201 609H351L468 535L533 408V256L468 128L350 54H201ZM331 126L415 181L461 275V389L415 482L331 537H220L136 482L90 389V275L136 181L221 126H331ZM391
260L328 195H227L160 272V390L228 468H328L390 404Q392 351 360 351Q329 351 321 402H254L227 363V299L253 261H323Q329 313 360 313Q391 313 391 260Z" />
<glyph unicode="&#xaa;" glyph-name="ordfeminine" horiz-adv-x="550" d="M446 700Q486 700 486 505Q486 310 450 310Q414 310 412 321L406 386V419Q406 440 389 381L312 300H195L110 353L63 444V559L111 655L200 710H320L392 644Q399 616 402 616T406 644Q406
700 446 700ZM312 377L374 412L406 468V560L334 632H204L143 561V446L210 377H312Z" />
<glyph unicode="&#xab;" glyph-name="guillemotleft" horiz-adv-x="550" d="M271 361Q198 279 271 198Q308 157 319 128T318 89T273 97T191 170Q158 206 152 244T157 320T191 388T239 440T287 470T318 470Q345 442 271 361ZM432 309Q405 279 432 250Q445 235 444
219T432 194T400 189T354 223Q334 245 333 269T341 315T369 352T404 371T432 365Q458 338 432 309Z" />
<glyph unicode="&#xac;" glyph-name="logicalnot" horiz-adv-x="550" d="M480 283Q480 160 440 160Q400 160 400 245Q400 330 235 330Q70 330 70 368Q70 405 275 405Q480 405 480 283Z" />
<glyph unicode="&#xad;" glyph-name="uni00AD" horiz-adv-x="550" d="M275 307Q420 307 420 270Q420 233 275 233Q130 233 130 270Q130 307 275 307Z" />
<glyph unicode="&#xae;" glyph-name="registered" horiz-adv-x="550" d="M201 105L84 179L18 307V459L83 586L201 660H351L468 586L533 459V307L468 179L350 105H201ZM331 177L415 232L461 326V440L415 533L331 588H220L136 533L90 440V326L136 232L221 177H331ZM187
388Q187 519 231 519H330L381 476V408L358 371Q329 366 356 362L377 333V283Q377 257 344 257Q311 257 311 283V323L290 337H259Q253 337 253 297Q253 257 220 257Q187 257 187 388ZM263 397H293L315 414Q316 422 316 433T316 457H263Q252 457 252 427Q252 397
263 397Z" />
<glyph unicode="&#xaf;" glyph-name="overscore" horiz-adv-x="550" d="M250 699Q400 699 400 669Q400 639 250 639Q100 639 100 669Q100 699 250 699Z" />
<glyph unicode="&#xb0;" glyph-name="degree" horiz-adv-x="550" d="M223 411L150 485V589L223 662H327L400 589V485L327 411H223ZM300 475L335 511V562L300 598H250L215 562V511L250 475H300Z" />
<glyph unicode="&#xb1;" glyph-name="plusminus" horiz-adv-x="550" d="M383 325Q455 325 455 290Q455 255 383 255Q310 255 310 193Q310 130 275 130Q240 130 240 193Q240 255 168 255Q95 255 95 290Q95 325 168 325Q240 325 240 388Q240 450 275 450Q310 450
310 388Q310 325 383 325ZM105 28Q105 65 275 65Q445 65 445 28Q445 -10 275 -10Q105 -10 105 28Z" />
<glyph unicode="&#xb2;" glyph-name="uni00B2" horiz-adv-x="550" d="M156 293Q156 325 239 411L316 506V593H243L219 566Q219 551 188 551Q157 551 152 596L219 658H323L384 599V504L326 419Q272 364 254 344Q235 325 315 325Q394 325 394 293Q394 260 275 260Q156
260 156 293Z" />
<glyph unicode="&#xb3;" glyph-name="uni00B3" horiz-adv-x="550" d="M340 460L394 412V319L329 250H240L182 283L153 339Q156 370 187 370Q217 370 217 346L248 316H329V400L292 432H246Q235 432 235 463Q235 493 246 493H323V566L295 592H251L222 566Q222 546
192 546Q162 546 159 576L185 627L239 657H306L359 628L389 582V476Q340 471 328 467T340 460Z" />
<glyph unicode="&#xb4;" glyph-name="acute" horiz-adv-x="550" d="M196 702Q251 737 284 752T326 755Q334 743 309 716T231 654Q177 618 144 604T102 601Q94 613 118 640T196 702Z" />
<glyph unicode="&#xb5;" glyph-name="uni00B5" horiz-adv-x="550" d="M467 96L499 70Q530 70 530 30Q530 -10 462 -10L387 63V143Q387 155 384 144T373 98L296 -10H155Q123 39 123 -81Q123 -200 83 -200Q43 -200 43 150Q43 500 83 500Q123 500 123 344V70H302L373
156Q387 210 387 354Q387 500 427 500Q467 500 467 315V96Z" />
<glyph unicode="&#xb6;" glyph-name="paragraph" horiz-adv-x="550" d="M505 325Q505 0 466 0Q427 0 427 134Q427 268 400 268Q373 268 373 134Q373 0 334 0Q295 0 295 134Q295 268 274 268H197L103 315L47 402V516L103 603L197 650H379Q505 650 505 325ZM427
459Q427 573 343 573H198L127 518V400L198 345H343Q427 345 427 459Z" />
<glyph unicode="&#xb7;" glyph-name="middot" horiz-adv-x="550" d="M327 273Q327 224 275 224Q223 224 223 273Q223 322 275 322Q327 322 327 273Z" />
<glyph unicode="&#xb8;" glyph-name="cedilla" horiz-adv-x="550" d="M237 -54Q216 -27 214 -8T222 17T252 12T294 -31L332 -86V-181L271 -240H167L100 -178Q105 -133 136 -133Q167 -133 167 -148L191 -175H264V-88L237 -54Z" />
<glyph unicode="&#xb9;" glyph-name="uni00B9" horiz-adv-x="550" d="M356 325Q392 325 392 293Q392 260 275 260Q158 260 158 293Q158 325 201 325Q244 325 244 455Q244 584 204 584Q164 584 164 617Q164 650 242 650Q319 650 319 488Q319 325 356 325Z" />
<glyph unicode="&#xba;" glyph-name="ordmasculine" horiz-adv-x="550" d="M213 290L115 344L61 439V559L115 655L213 710H339L436 655L489 559V439L436 344L339 290H213ZM336 364L410 439V559L337 636H215L140 559V439L214 364H336Z" />
<glyph unicode="&#xbb;" glyph-name="guillemotright" horiz-adv-x="550" d="M279 361Q225 421 225 451Q225 463 232 470Q236 474 245 474Q262 474 287 458T339 413T383 348T401 272Q401 247 392 221T359 170Q318 125 289 106T243 86Q226 86 226 104Q226 119 239
143T279 198Q316 238 316 279Q316 321 279 361ZM118 309Q105 325 105 337Q105 350 118 365Q125 372 137 372Q153 372 172 359T204 324T218 277Q218 264 213 250T196 223Q179 204 164 196T137 188Q123 188 115 197T106 220Q106 237 118 250Q132 266 132 279Q132
293 118 309Z" />
<glyph unicode="&#xbc;" glyph-name="onequarter" horiz-adv-x="1100" d="M356 325Q392 325 392 293Q392 260 275 260Q158 260 158 293Q158 325 201 325Q244 325 244 455Q244 584 204 584Q164 584 164 617Q164 650 242 650Q319 650 319 488Q319 325 356 325ZM683
713Q690 711 685 678T665 590T629 468T584 330T535 194T488 76T450 -5T427 -32Q420 -29 425 4T445 92T481 213T526 351T574 487T621 604T659 685T683 713ZM957 109Q957 76 937 76Q917 76 917 38Q917 0 883 0Q849 0 849 38Q849 76 771 76Q693 76 693 106Q693 116
704 140T732 197T771 263T814 325T854 372T884 390Q917 390 917 266Q917 141 937 141Q957 141 957 109ZM809 141Q849 141 849 211Q849 279 809 211Q769 141 809 141Z" />
<glyph unicode="&#xbd;" glyph-name="onehalf" horiz-adv-x="1100" d="M356 325Q392 325 392 293Q392 260 275 260Q158 260 158 293Q158 325 201 325Q244 325 244 455Q244 584 204 584Q164 584 164 617Q164 650 242 650Q319 650 319 488Q319 325 356 325ZM683
713Q690 711 685 678T665 590T629 468T584 330T535 194T488 76T450 -5T427 -32Q420 -29 425 4T445 92T481 213T526 351T574 487T621 604T659 685T683 713ZM706 33Q706 65 789 151L866 246V333H793L769 306Q769 291 738 291Q707 291 702 336L769 398H873L934 339V244L876
159Q822 104 804 84Q785 65 865 65Q944 65 944 33Q944 0 825 0Q706 0 706 33Z" />
<glyph unicode="&#xbe;" glyph-name="threequarters" horiz-adv-x="1100" d="M340 460L394 412V319L329 250H240L182 283L153 339Q156 370 187 370Q217 370 217 346L248 316H329V400L292 432H246Q235 432 235 463Q235 493 246 493H323V566L295 592H251L222 566Q222
546 192 546Q162 546 159 576L185 627L239 657H306L359 628L389 582V476Q340 471 328 467T340 460ZM683 713Q690 711 685 678T665 590T629 468T584 330T535 194T488 76T450 -5T427 -32Q420 -29 425 4T445 92T481 213T526 351T574 487T621 604T659 685T683 713ZM957
109Q957 76 937 76Q917 76 917 38Q917 0 883 0Q849 0 849 38Q849 76 771 76Q693 76 693 106Q693 116 704 140T732 197T771 263T814 325T854 372T884 390Q917 390 917 266Q917 141 937 141Q957 141 957 109ZM809 141Q849 141 849 211Q849 279 809 211Q769 141 809
141Z" />
<glyph unicode="&#xbf;" glyph-name="questiondown" horiz-adv-x="550" d="M341 537Q341 488 289 488Q238 488 238 537Q238 586 289 586Q341 586 341 537ZM215 -74L127 -28L79 52V181L170 276Q248 285 248 335Q248 385 288 385Q328 385 328 298Q328 212 306 212H227L159
149V56L220 1H327L391 57Q391 102 431 102Q471 102 471 53L420 -27L330 -74H215Z" />
<glyph unicode="&#xc0;" glyph-name="Agrave" horiz-adv-x="550" d="M477 0Q460 0 446 17T420 59T400 110T388 153T384 170H274Q164 170 139 85Q114 0 72 0Q62 0 62 28T72 103T96 208T131 330T170 451T211 557T247 632T274 660Q285 660 301 632T337 557T378 452T418
330T452 209T477 103T487 28T477 0ZM274 246Q362 246 318 396Q274 546 230 396Q187 246 274 246ZM339 701Q330 689 297 703T210 754Q157 789 132 816T115 855Q124 867 157 852T245 802Q298 767 322 740T339 701Z" />
<glyph unicode="&#xc1;" glyph-name="Aacute" horiz-adv-x="550" d="M477 0Q460 0 446 17T420 59T400 110T388 153T384 170H274Q164 170 139 85Q114 0 72 0Q62 0 62 28T72 103T96 208T131 330T170 451T211 557T247 632T274 660Q285 660 301 632T337 557T378 452T418
330T452 209T477 103T487 28T477 0ZM274 246Q362 246 318 396Q274 546 230 396Q187 246 274 246ZM305 802Q360 837 393 852T435 855Q443 843 418 816T340 754Q286 718 253 704T211 701Q203 713 227 740T305 802Z" />
<glyph unicode="&#xc2;" glyph-name="Acircumflex" horiz-adv-x="550" d="M477 0Q460 0 446 17T420 59T400 110T388 153T384 170H274Q164 170 139 85Q114 0 72 0Q62 0 62 28T72 103T96 208T131 330T170 451T211 557T247 632T274 660Q285 660 301 632T337 557T378
452T418 330T452 209T477 103T487 28T477 0ZM274 246Q362 246 318 396Q274 546 230 396Q187 246 274 246ZM635 797Q682 755 697 730T705 699T671 703T613 744Q581 773 556 782T507 783T450 744Q417 714 392 703T359 698T365 730T427 797Q482 847 531 847T635 797Z"
/>
<glyph unicode="&#xc3;" glyph-name="Atilde" horiz-adv-x="550" d="M477 0Q460 0 446 17T420 59T400 110T388 153T384 170H274Q164 170 139 85Q114 0 72 0Q62 0 62 28T72 103T96 208T131 330T170 451T211 557T247 632T274 660Q285 660 301 632T337 557T378 452T418
330T452 209T477 103T487 28T477 0ZM274 246Q362 246 318 396Q274 546 230 396Q187 246 274 246ZM692 826Q725 826 727 818V756L672 708H598L553 719Q539 729 527 738T504 754L473 780H431L404 739Q404 718 371 718Q339 718 337 726V788L395 836H475L521 825Q550
806 572 789L601 764H659Q659 790 667 808T692 826Z" />
<glyph unicode="&#xc4;" glyph-name="Adieresis" horiz-adv-x="550" d="M477 0Q460 0 446 17T420 59T400 110T388 153T384 170H274Q164 170 139 85Q114 0 72 0Q62 0 62 28T72 103T96 208T131 330T170 451T211 557T247 632T274 660Q285 660 301 632T337 557T378
452T418 330T452 209T477 103T487 28T477 0ZM274 246Q362 246 318 396Q274 546 230 396Q187 246 274 246ZM235 791Q235 742 183 742Q131 742 131 791Q131 840 183 840Q235 840 235 791ZM413 791Q413 742 361 742Q309 742 309 791Q309 840 361 840Q413 840 413 791Z"
/>
<glyph unicode="&#xc5;" glyph-name="Aring" horiz-adv-x="550" d="M477 0Q460 0 446 17T420 59T400 110T388 153T384 170H274Q164 170 139 85Q114 0 72 0Q62 0 62 28T72 103T96 208T131 330T170 451T211 557T247 632T274 660Q285 660 301 632T337 557T378 452T418
330T452 209T477 103T487 28T477 0ZM274 246Q362 246 318 396Q274 546 230 396Q187 246 274 246ZM223 699L150 763V847L223 910H327L400 847V763L327 699H223ZM297 754L339 782V828L297 855H253L211 828V782L253 754H297Z" />
<glyph unicode="&#xc6;" glyph-name="AE" horiz-adv-x="550" d="M428 75Q500 75 500 38Q500 0 388 0Q275 0 275 91Q275 181 220 181Q166 181 140 91Q115 0 72 0Q62 0 61 27T68 101T91 205T128 325T176 444T233 548T296 622T363 650Q499 650 499 613Q499 575 427
575Q355 575 355 468Q355 361 405 361Q455 361 455 324Q455 286 405 286Q355 286 355 181Q355 75 428 75ZM230 251Q275 251 275 409Q275 567 230 409Q185 251 230 251Z" />
<glyph unicode="&#xc7;" glyph-name="Ccedilla" horiz-adv-x="550" d="M468 217Q505 217 505 109L395 -10H307Q312 -14 316 -19T324 -31L362 -86V-181L301 -240H197L130 -178Q135 -133 166 -133Q197 -133 197 -148L221 -175H294V-88L267 -54Q247 -28 244 -10H160L35
166V484L160 660H395L507 541Q515 431 478 431Q441 431 427 509L357 585H199L115 453V196L199 65H357L424 141Q430 217 468 217Z" />
<glyph unicode="&#xc8;" glyph-name="Egrave" horiz-adv-x="550" d="M316 75Q506 75 506 38Q506 0 276 0Q45 0 45 325Q45 650 275 650Q505 650 505 613Q505 575 315 575Q125 575 125 468Q125 361 281 361Q436 361 436 324Q436 286 281 286Q125 286 125 181Q125
75 316 75ZM369 701Q360 689 327 703T240 754Q187 789 162 816T145 855Q154 867 187 852T275 802Q328 767 352 740T369 701Z" />
<glyph unicode="&#xc9;" glyph-name="Eacute" horiz-adv-x="550" d="M316 75Q506 75 506 38Q506 0 276 0Q45 0 45 325Q45 650 275 650Q505 650 505 613Q505 575 315 575Q125 575 125 468Q125 361 281 361Q436 361 436 324Q436 286 281 286Q125 286 125 181Q125
75 316 75ZM335 802Q390 837 423 852T465 855Q473 843 448 816T370 754Q316 718 283 704T241 701Q233 713 257 740T335 802Z" />
<glyph unicode="&#xca;" glyph-name="Ecircumflex" horiz-adv-x="550" d="M316 75Q506 75 506 38Q506 0 276 0Q45 0 45 325Q45 650 275 650Q505 650 505 613Q505 575 315 575Q125 575 125 468Q125 361 281 361Q436 361 436 324Q436 286 281 286Q125 286 125 181Q125
75 316 75ZM409 797Q456 755 471 730T479 699T445 703T387 744Q355 773 330 782T281 783T224 744Q191 714 166 703T133 698T139 730T201 797Q256 847 305 847T409 797Z" />
<glyph unicode="&#xcb;" glyph-name="Edieresis" horiz-adv-x="550" d="M316 75Q506 75 506 38Q506 0 276 0Q45 0 45 325Q45 650 275 650Q505 650 505 613Q505 575 315 575Q125 575 125 468Q125 361 281 361Q436 361 436 324Q436 286 281 286Q125 286 125 181Q125
75 316 75ZM239 791Q239 742 187 742Q135 742 135 791Q135 840 187 840Q239 840 239 791ZM417 791Q417 742 365 742Q313 742 313 791Q313 840 365 840Q417 840 417 791Z" />
<glyph unicode="&#xcc;" glyph-name="Igrave" horiz-adv-x="550" d="M380 575Q315 575 315 325Q315 75 380 75Q445 75 445 38Q445 0 380 0H170Q105 0 105 38Q105 75 170 75Q235 75 235 325Q235 575 170 575Q105 575 105 613Q105 650 275 650Q445 650 445 613Q445
575 380 575ZM339 701Q330 689 297 703T210 754Q157 789 132 816T115 855Q124 867 157 852T245 802Q298 767 322 740T339 701Z" />
<glyph unicode="&#xcd;" glyph-name="Iacute" horiz-adv-x="550" d="M380 575Q315 575 315 325Q315 75 380 75Q445 75 445 38Q445 0 380 0H170Q105 0 105 38Q105 75 170 75Q235 75 235 325Q235 575 170 575Q105 575 105 613Q105 650 275 650Q445 650 445 613Q445
575 380 575ZM305 802Q360 837 393 852T435 855Q443 843 418 816T340 754Q286 718 253 704T211 701Q203 713 227 740T305 802Z" />
<glyph unicode="&#xce;" glyph-name="Icircumflex" horiz-adv-x="550" d="M380 575Q315 575 315 325Q315 75 380 75Q445 75 445 38Q445 0 380 0H170Q105 0 105 38Q105 75 170 75Q235 75 235 325Q235 575 170 575Q105 575 105 613Q105 650 275 650Q445 650 445
613Q445 575 380 575ZM635 797Q682 755 697 730T705 699T671 703T613 744Q581 773 556 782T507 783T450 744Q417 714 392 703T359 698T365 730T427 797Q482 847 531 847T635 797Z" />
<glyph unicode="&#xcf;" glyph-name="Idieresis" horiz-adv-x="550" d="M380 575Q315 575 315 325Q315 75 380 75Q445 75 445 38Q445 0 380 0H170Q105 0 105 38Q105 75 170 75Q235 75 235 325Q235 575 170 575Q105 575 105 613Q105 650 275 650Q445 650 445 613Q445
575 380 575ZM238 791Q238 742 186 742Q134 742 134 791Q134 840 186 840Q238 840 238 791ZM416 791Q416 742 364 742Q312 742 312 791Q312 840 364 840Q416 840 416 791Z" />
<glyph unicode="&#xd0;" glyph-name="Eth" horiz-adv-x="550" d="M515 466V184L370 0H127Q45 0 45 325Q45 650 127 650H370L515 466ZM338 77L436 217V438L339 573H167Q125 573 125 325Q125 77 167 77H338ZM381 611Q531 611 531 581Q531 551 381 551Q231 551 231
581Q231 611 381 611Z" />
<glyph unicode="&#xd1;" glyph-name="Ntilde" horiz-adv-x="550" d="M465 650Q505 650 505 325Q505 0 465 0Q425 0 275 255Q125 509 125 255Q125 0 85 0Q45 0 45 325Q45 650 85 650Q125 650 275 393Q425 135 425 393Q425 650 465 650ZM692 826Q725 826 727 818V756L672
708H598L553 719Q539 729 527 738T504 754L473 780H431L404 739Q404 718 371 718Q339 718 337 726V788L395 836H475L521 825Q550 806 572 789L601 764H659Q659 790 667 808T692 826Z" />
<glyph unicode="&#xd2;" glyph-name="Ograve" horiz-adv-x="550" d="M153 -10L35 166V481L159 660H397L515 484V166L397 -10H153ZM358 67L435 196V453L358 583H192L115 453V196L192 67H358ZM339 701Q330 689 297 703T210 754Q157 789 132 816T115 855Q124 867
157 852T245 802Q298 767 322 740T339 701Z" />
<glyph unicode="&#xd3;" glyph-name="Oacute" horiz-adv-x="550" d="M153 -10L35 166V481L159 660H397L515 484V166L397 -10H153ZM358 67L435 196V453L358 583H192L115 453V196L192 67H358ZM305 802Q360 837 393 852T435 855Q443 843 418 816T340 754Q286 718
253 704T211 701Q203 713 227 740T305 802Z" />
<glyph unicode="&#xd4;" glyph-name="Ocircumflex" horiz-adv-x="550" d="M153 -10L35 166V481L159 660H397L515 484V166L397 -10H153ZM358 67L435 196V453L358 583H192L115 453V196L192 67H358ZM635 797Q682 755 697 730T705 699T671 703T613 744Q581 773 556
782T507 783T450 744Q417 714 392 703T359 698T365 730T427 797Q482 847 531 847T635 797Z" />
<glyph unicode="&#xd5;" glyph-name="Otilde" horiz-adv-x="550" d="M153 -10L35 166V481L159 660H397L515 484V166L397 -10H153ZM358 67L435 196V453L358 583H192L115 453V196L192 67H358ZM692 826Q725 826 727 818V756L672 708H598L553 719Q539 729 527 738T504
754L473 780H431L404 739Q404 718 371 718Q339 718 337 726V788L395 836H475L521 825Q550 806 572 789L601 764H659Q659 790 667 808T692 826Z" />
<glyph unicode="&#xd6;" glyph-name="Odieresis" horiz-adv-x="550" d="M153 -10L35 166V481L159 660H397L515 484V166L397 -10H153ZM358 67L435 196V453L358 583H192L115 453V196L192 67H358ZM238 791Q238 742 186 742Q134 742 134 791Q134 840 186 840Q238 840
238 791ZM416 791Q416 742 364 742Q312 742 312 791Q312 840 364 840Q416 840 416 791Z" />
<glyph unicode="&#xd7;" glyph-name="multiply" horiz-adv-x="550" d="M376 322Q324 270 376 219Q402 193 407 173T403 143T373 138T327 170Q275 221 224 170Q198 144 178 139T148 142T143 172T175 219Q226 270 175 322Q149 348 144 368T147 397T177 402T224 371Q275
319 327 371Q353 397 373 402T402 398T407 368T376 322Z" />
<glyph unicode="&#xd8;" glyph-name="Oslash" horiz-adv-x="550" d="M443 591L515 484V166L397 -10H153L129 26Q112 3 101 -9T84 -19Q79 -16 85 5T106 60L35 166V481L159 660H397L420 625Q437 648 449 660T465 670Q470 667 464 646T443 591ZM115 196L145 145Q176
209 216 283T297 428T374 556L358 583H192L115 453V196ZM358 67L435 196V453L404 506Q373 443 333 369T252 223T175 95L192 67H358Z" />
<glyph unicode="&#xd9;" glyph-name="Ugrave" horiz-adv-x="550" d="M465 650Q505 650 505 450V117L384 -10H167L45 117V450Q45 650 85 650Q125 650 125 450V147L205 67H346L425 147V450Q425 650 465 650ZM339 701Q330 689 297 703T210 754Q157 789 132 816T115
855Q124 867 157 852T245 802Q298 767 322 740T339 701Z" />
<glyph unicode="&#xda;" glyph-name="Uacute" horiz-adv-x="550" d="M465 650Q505 650 505 450V117L384 -10H167L45 117V450Q45 650 85 650Q125 650 125 450V147L205 67H346L425 147V450Q425 650 465 650ZM305 802Q360 837 393 852T435 855Q443 843 418 816T340
754Q286 718 253 704T211 701Q203 713 227 740T305 802Z" />
<glyph unicode="&#xdb;" glyph-name="Ucircumflex" horiz-adv-x="550" d="M465 650Q505 650 505 450V117L384 -10H167L45 117V450Q45 650 85 650Q125 650 125 450V147L205 67H346L425 147V450Q425 650 465 650ZM635 797Q682 755 697 730T705 699T671 703T613 744Q581
773 556 782T507 783T450 744Q417 714 392 703T359 698T365 730T427 797Q482 847 531 847T635 797Z" />
<glyph unicode="&#xdc;" glyph-name="Udieresis" horiz-adv-x="550" d="M465 650Q505 650 505 450V117L384 -10H167L45 117V450Q45 650 85 650Q125 650 125 450V147L205 67H346L425 147V450Q425 650 465 650ZM240 791Q240 742 188 742Q136 742 136 791Q136 840
188 840Q240 840 240 791ZM418 791Q418 742 366 742Q314 742 314 791Q314 840 366 840Q418 840 418 791Z" />
<glyph unicode="&#xdd;" glyph-name="Yacute" horiz-adv-x="550" d="M480 650Q525 650 420 437Q315 223 315 112Q315 0 275 0Q235 0 235 112Q235 223 130 437Q25 650 70 650Q115 650 196 476Q277 301 356 476Q436 650 480 650ZM305 802Q360 837 393 852T435 855Q443
843 418 816T340 754Q286 718 253 704T211 701Q203 713 227 740T305 802Z" />
<glyph unicode="&#xde;" glyph-name="Thorn" horiz-adv-x="550" d="M356 535L453 485L510 390V260L453 165L356 115H210Q125 115 125 58Q125 0 85 0Q45 0 45 325Q45 650 85 650Q125 650 125 593Q125 535 210 535H356ZM355 192L430 265V387L356 458H210Q125 458
125 325Q125 192 210 192H355Z" />
<glyph unicode="&#xdf;" glyph-name="germandbls" horiz-adv-x="550" d="M394 199L489 114V-21L437 -108L336 -160Q266 -160 266 -123Q266 -86 338 -86L409 -25V87L343 150H256Q237 150 237 187Q237 225 292 325Q347 425 251 425Q155 425 155 213Q155 0 115 0Q75
0 75 265V616L166 700H268Q291 700 291 660Q291 620 268 620Q257 620 229 620T155 622V515Q155 500 296 500Q437 500 437 464Q437 426 376 316Q315 204 394 199Z" />
<glyph unicode="&#xe0;" glyph-name="agrave" horiz-adv-x="550" d="M447 500Q487 500 487 250Q487 0 451 0Q415 0 413 11L407 79V133Q407 150 403 140T391 93L311 -10H187L100 56L51 174V324L101 443L193 510H319L393 424Q400 389 403 389T407 427Q407 500 447
500ZM332 67L407 170V333L332 432H195L131 334V167L200 67H332ZM339 807Q330 795 297 809T210 860Q157 895 132 922T115 961Q124 973 157 958T245 908Q298 873 322 846T339 807Z" />
<glyph unicode="&#xe1;" glyph-name="aacute" horiz-adv-x="550" d="M447 500Q487 500 487 250Q487 0 451 0Q415 0 413 11L407 79V133Q407 150 403 140T391 93L311 -10H187L100 56L51 174V324L101 443L193 510H319L393 424Q400 389 403 389T407 427Q407 500 447
500ZM332 67L407 170V333L332 432H195L131 334V167L200 67H332ZM305 908Q360 943 393 958T435 961Q443 949 418 922T340 860Q286 824 253 810T211 807Q203 819 227 846T305 908Z" />
<glyph unicode="&#xe2;" glyph-name="acircumflex" horiz-adv-x="550" d="M447 500Q487 500 487 250Q487 0 451 0Q415 0 413 11L407 79V133Q407 150 403 140T391 93L311 -10H187L100 56L51 174V324L101 443L193 510H319L393 424Q400 389 403 389T407 427Q407 500
447 500ZM332 67L407 170V333L332 432H195L131 334V167L200 67H332ZM635 903Q682 861 697 836T705 805T671 809T613 850Q581 879 556 888T507 889T450 850Q417 820 392 809T359 804T365 836T427 903Q482 953 531 953T635 903Z" />
<glyph unicode="&#xe3;" glyph-name="atilde" horiz-adv-x="550" d="M447 500Q487 500 487 250Q487 0 451 0Q415 0 413 11L407 79V133Q407 150 403 140T391 93L311 -10H187L100 56L51 174V324L101 443L193 510H319L393 424Q400 389 403 389T407 427Q407 500 447
500ZM332 67L407 170V333L332 432H195L131 334V167L200 67H332ZM692 932Q725 932 727 924V862L672 814H598L553 825Q539 835 527 844T504 860L473 886H431L404 845Q404 824 371 824Q339 824 337 832V894L395 942H475L521 931Q550 912 572 895L601 870H659Q659 896
667 914T692 932Z" />
<glyph unicode="&#xe4;" glyph-name="adieresis" horiz-adv-x="550" d="M447 500Q487 500 487 250Q487 0 451 0Q415 0 413 11L407 79V133Q407 150 403 140T391 93L311 -10H187L100 56L51 174V324L101 443L193 510H319L393 424Q400 389 403 389T407 427Q407 500
447 500ZM332 67L407 170V333L332 432H195L131 334V167L200 67H332ZM226 651Q226 602 174 602Q122 602 122 651Q122 700 174 700Q226 700 226 651ZM404 651Q404 602 352 602Q300 602 300 651Q300 700 352 700Q404 700 404 651Z" />
<glyph unicode="&#xe5;" glyph-name="aring" horiz-adv-x="550" d="M447 500Q487 500 487 250Q487 0 451 0Q415 0 413 11L407 79V133Q407 150 403 140T391 93L311 -10H187L100 56L51 174V324L101 443L193 510H319L393 424Q400 389 403 389T407 427Q407 500 447
500ZM332 67L407 170V333L332 432H195L131 334V167L200 67H332ZM223 805L150 869V953L223 1016H327L400 953V869L327 805H223ZM297 860L339 888V934L297 961H253L211 934V888L253 860H297Z" />
<glyph unicode="&#xe6;" glyph-name="ae" horiz-adv-x="550" d="M466 510L528 393Q528 335 530 302T528 253T498 233T419 229Q310 229 310 150L352 67H423L446 114Q449 161 487 161Q523 161 519 82L460 -10H318Q280 77 268 36L203 -10H94L21 79V223L93 313H223Q250
255 250 297V431H146L98 391Q91 349 56 349Q21 349 23 423L104 510H217L274 477Q291 447 328 510H466ZM383 299Q450 299 450 364L422 433H354L315 358Q315 299 383 299ZM212 66L255 114V191L213 236H135L99 190V113L137 66H212Z" />
<glyph unicode="&#xe7;" glyph-name="ccedilla" horiz-adv-x="550" d="M463 188Q499 188 488 96L371 -10H307Q312 -14 316 -19T324 -31L362 -86V-181L301 -240H197L130 -178Q135 -133 166 -133Q197 -133 197 -148L221 -175H294V-88L267 -54Q247 -28 244 -10H219L113
53L51 171V327L113 446L219 510H370L487 404Q499 313 463 313Q426 313 408 372L339 433H242L172 389L131 306V192L172 110L242 67H340L409 128Q427 188 463 188Z" />
<glyph unicode="&#xe8;" glyph-name="egrave" horiz-adv-x="550" d="M458 161Q496 161 483 85L378 -10H221L112 56L51 174V324L110 443L217 510H395L504 365Q498 229 315 229Q131 229 138 156L224 67H391Q419 161 458 161ZM224 433L151 363Q136 301 276 301Q416
301 412 365L343 433H224ZM339 807Q330 795 297 809T210 860Q157 895 132 922T115 961Q124 973 157 958T245 908Q298 873 322 846T339 807Z" />
<glyph unicode="&#xe9;" glyph-name="eacute" horiz-adv-x="550" d="M458 161Q496 161 483 85L378 -10H221L112 56L51 174V324L110 443L217 510H395L504 365Q498 229 315 229Q131 229 138 156L224 67H391Q419 161 458 161ZM224 433L151 363Q136 301 276 301Q416
301 412 365L343 433H224ZM305 908Q360 943 393 958T435 961Q443 949 418 922T340 860Q286 824 253 810T211 807Q203 819 227 846T305 908Z" />
<glyph unicode="&#xea;" glyph-name="ecircumflex" horiz-adv-x="550" d="M458 161Q496 161 483 85L378 -10H221L112 56L51 174V324L110 443L217 510H395L504 365Q498 229 315 229Q131 229 138 156L224 67H391Q419 161 458 161ZM224 433L151 363Q136 301 276 301Q416
301 412 365L343 433H224ZM635 903Q682 861 697 836T705 805T671 809T613 850Q581 879 556 888T507 889T450 850Q417 820 392 809T359 804T365 836T427 903Q482 953 531 953T635 903Z" />
<glyph unicode="&#xeb;" glyph-name="edieresis" horiz-adv-x="550" d="M458 161Q496 161 483 85L378 -10H221L112 56L51 174V324L110 443L217 510H395L504 365Q498 229 315 229Q131 229 138 156L224 67H391Q419 161 458 161ZM224 433L151 363Q136 301 276 301Q416
301 412 365L343 433H224ZM250 651Q250 602 198 602Q146 602 146 651Q146 700 198 700Q250 700 250 651ZM427 651Q427 602 375 602Q323 602 323 651Q323 700 375 700Q427 700 427 651Z" />
<glyph unicode="&#xec;" glyph-name="igrave" horiz-adv-x="550" d="M395 75Q465 75 465 38Q465 0 275 0Q85 0 85 38Q85 75 165 75Q245 75 245 250Q245 425 165 425Q85 425 85 463Q85 500 205 500Q325 500 325 288Q325 75 395 75ZM339 807Q330 795 297 809T210
860Q157 895 132 922T115 961Q124 973 157 958T245 908Q298 873 322 846T339 807Z" />
<glyph unicode="&#xed;" glyph-name="iacute" horiz-adv-x="550" d="M395 75Q465 75 465 38Q465 0 275 0Q85 0 85 38Q85 75 165 75Q245 75 245 250Q245 425 165 425Q85 425 85 463Q85 500 205 500Q325 500 325 288Q325 75 395 75ZM305 908Q360 943 393 958T435
961Q443 949 418 922T340 860Q286 824 253 810T211 807Q203 819 227 846T305 908Z" />
<glyph unicode="&#xee;" glyph-name="icircumflex" horiz-adv-x="550" d="M395 75Q465 75 465 38Q465 0 275 0Q85 0 85 38Q85 75 165 75Q245 75 245 250Q245 425 165 425Q85 425 85 463Q85 500 205 500Q325 500 325 288Q325 75 395 75ZM635 903Q682 861 697 836T705
805T671 809T613 850Q581 879 556 888T507 889T450 850Q417 820 392 809T359 804T365 836T427 903Q482 953 531 953T635 903Z" />
<glyph unicode="&#xef;" glyph-name="idieresis" horiz-adv-x="550" d="M395 75Q465 75 465 38Q465 0 275 0Q85 0 85 38Q85 75 165 75Q245 75 245 250Q245 425 165 425Q85 425 85 463Q85 500 205 500Q325 500 325 288Q325 75 395 75ZM247 651Q247 602 195 602Q143
602 143 651Q143 700 195 700Q247 700 247 651ZM424 651Q424 602 372 602Q320 602 320 651Q320 700 372 700Q424 700 424 651Z" />
<glyph unicode="&#xf0;" glyph-name="eth" horiz-adv-x="550" d="M505 474V188L453 67L349 -10H169L51 133V324L101 443L193 510H343Q387 448 320 569Q119 642 134 676Q147 710 221 684Q284 644 319 677Q337 694 352 694T376 686T384 663T368 634Q339 606 505
474ZM348 67L425 170V334L348 433H203L131 333V167L206 67H348Z" />
<glyph unicode="&#xf1;" glyph-name="ntilde" horiz-adv-x="550" d="M362 510L436 477L487 397V166Q487 0 447 0Q407 0 407 156V430H228L157 344Q143 290 143 146Q143 0 103 0Q63 0 63 250Q63 500 103 500Q143 500 143 426Q143 351 161 409L251 510H362ZM456 932Q489
932 491 924V862L436 814H362L317 825Q303 835 291 844T268 860L237 886H195L168 845Q168 824 135 824Q103 824 101 832V894L159 942H239L285 931Q314 912 336 895L365 870H423Q423 896 431 914T456 932Z" />
<glyph unicode="&#xf2;" glyph-name="ograve" horiz-adv-x="550" d="M210 -10L108 53L51 170V328L108 446L210 510H341L442 446L499 328V170L443 53L342 -10H210ZM341 67L419 163V335L341 433H211L131 335V163L210 67H341ZM339 807Q330 795 297 809T210 860Q157
895 132 922T115 961Q124 973 157 958T245 908Q298 873 322 846T339 807Z" />
<glyph unicode="&#xf3;" glyph-name="oacute" horiz-adv-x="550" d="M210 -10L108 53L51 170V328L108 446L210 510H341L442 446L499 328V170L443 53L342 -10H210ZM341 67L419 163V335L341 433H211L131 335V163L210 67H341ZM305 908Q360 943 393 958T435 961Q443
949 418 922T340 860Q286 824 253 810T211 807Q203 819 227 846T305 908Z" />
<glyph unicode="&#xf4;" glyph-name="ocircumflex" horiz-adv-x="550" d="M210 -10L108 53L51 170V328L108 446L210 510H341L442 446L499 328V170L443 53L342 -10H210ZM341 67L419 163V335L341 433H211L131 335V163L210 67H341ZM635 903Q682 861 697 836T705 805T671
809T613 850Q581 879 556 888T507 889T450 850Q417 820 392 809T359 804T365 836T427 903Q482 953 531 953T635 903Z" />
<glyph unicode="&#xf5;" glyph-name="otilde" horiz-adv-x="550" d="M210 -10L108 53L51 170V328L108 446L210 510H341L442 446L499 328V170L443 53L342 -10H210ZM341 67L419 163V335L341 433H211L131 335V163L210 67H341ZM692 932Q725 932 727 924V862L672 814H598L553
825Q539 835 527 844T504 860L473 886H431L404 845Q404 824 371 824Q339 824 337 832V894L395 942H475L521 931Q550 912 572 895L601 870H659Q659 896 667 914T692 932Z" />
<glyph unicode="&#xf6;" glyph-name="odieresis" horiz-adv-x="550" d="M210 -10L108 53L51 170V328L108 446L210 510H341L442 446L499 328V170L443 53L342 -10H210ZM341 67L419 163V335L341 433H211L131 335V163L210 67H341ZM245 651Q245 602 193 602Q141 602
141 651Q141 700 193 700Q245 700 245 651ZM423 651Q423 602 371 602Q319 602 319 651Q319 700 371 700Q423 700 423 651Z" />
<glyph unicode="&#xf7;" glyph-name="divide" horiz-adv-x="550" d="M327 405Q327 356 275 356Q223 356 223 405Q223 454 275 454Q327 454 327 405ZM275 307Q465 307 465 270Q465 233 275 233Q85 233 85 270Q85 307 275 307ZM327 134Q327 85 275 85Q223 85 223
134Q223 182 275 182Q327 182 327 134Z" />
<glyph unicode="&#xf8;" glyph-name="oslash" horiz-adv-x="550" d="M464 411L499 311V170L443 53L342 -10H222Q175 13 164 -6Q157 -18 142 -15T116 1T113 28Q125 47 90 82L51 184V328L108 446L210 510H336Q383 484 395 505Q403 519 419 516T446 500T446 470Q431
445 464 411ZM131 168Q143 152 163 163T208 202T255 267T294 340T316 401T312 433H211L131 335V168ZM341 67L419 163V324Q409 340 390 329T347 290T302 226T262 155T239 96T241 67H341Z" />
<glyph unicode="&#xf9;" glyph-name="ugrave" horiz-adv-x="550" d="M447 500Q487 500 487 250Q487 0 447 0Q407 0 407 76Q407 153 389 88L304 -10H188L114 23L63 103V334Q63 500 103 500Q143 500 143 344V70H322L393 156Q407 210 407 354Q407 500 447 500ZM339
807Q330 795 297 809T210 860Q157 895 132 922T115 961Q124 973 157 958T245 908Q298 873 322 846T339 807Z" />
<glyph unicode="&#xfa;" glyph-name="uacute" horiz-adv-x="550" d="M447 500Q487 500 487 250Q487 0 447 0Q407 0 407 76Q407 153 389 88L304 -10H188L114 23L63 103V334Q63 500 103 500Q143 500 143 344V70H322L393 156Q407 210 407 354Q407 500 447 500ZM305
908Q360 943 393 958T435 961Q443 949 418 922T340 860Q286 824 253 810T211 807Q203 819 227 846T305 908Z" />
<glyph unicode="&#xfb;" glyph-name="ucircumflex" horiz-adv-x="550" d="M447 500Q487 500 487 250Q487 0 447 0Q407 0 407 76Q407 153 389 88L304 -10H188L114 23L63 103V334Q63 500 103 500Q143 500 143 344V70H322L393 156Q407 210 407 354Q407 500 447 500ZM635
903Q682 861 697 836T705 805T671 809T613 850Q581 879 556 888T507 889T450 850Q417 820 392 809T359 804T365 836T427 903Q482 953 531 953T635 903Z" />
<glyph unicode="&#xfc;" glyph-name="udieresis" horiz-adv-x="550" d="M447 500Q487 500 487 250Q487 0 447 0Q407 0 407 76Q407 153 389 88L304 -10H188L114 23L63 103V334Q63 500 103 500Q143 500 143 344V70H322L393 156Q407 210 407 354Q407 500 447 500ZM245
651Q245 602 193 602Q141 602 141 651Q141 700 193 700Q245 700 245 651ZM423 651Q423 602 371 602Q319 602 319 651Q319 700 371 700Q423 700 423 651Z" />
<glyph unicode="&#xfd;" glyph-name="yacute" horiz-adv-x="550" d="M470 500Q481 500 477 471T457 391T420 279T370 150T315 22T262 -91T217 -170T186 -200Q144 -200 189 -96Q234 6 136 254Q39 500 81 500Q123 500 199 302Q275 105 351 302Q428 500 470 500ZM305
908Q360 943 393 958T435 961Q443 949 418 922T340 860Q286 824 253 810T211 807Q203 819 227 846T305 908Z" />
<glyph unicode="&#xfe;" glyph-name="thorn" horiz-adv-x="550" d="M363 510L450 444L499 326V176L449 57L357 -10H174Q143 139 143 -29Q143 -200 103 -200Q63 -200 63 250Q63 700 102 700Q115 700 123 679T135 624T141 550T143 473T144 407T143 369Q143 353 147
363T159 410L239 510H363ZM355 68L419 166V333L350 433H218L143 330V167L218 68H355Z" />
<glyph unicode="&#xff;" glyph-name="ydieresis" horiz-adv-x="550" d="M470 500Q481 500 477 471T457 391T420 279T370 150T315 22T262 -91T217 -170T186 -200Q144 -200 189 -96Q234 6 136 254Q39 500 81 500Q123 500 199 302Q275 105 351 302Q428 500 470 500ZM235
651Q235 602 183 602Q131 602 131 651Q131 700 183 700Q235 700 235 651ZM413 651Q413 602 361 602Q309 602 309 651Q309 700 361 700Q413 700 413 651Z" />
<glyph unicode="&#x2013;" glyph-name="endash" horiz-adv-x="550" d="M275 309Q475 309 475 271Q475 232 275 232Q75 232 75 271Q75 309 275 309Z" />
<glyph unicode="&#x2014;" glyph-name="emdash" horiz-adv-x="550" d="M275 310Q510 310 510 272Q510 233 275 233Q40 233 40 272Q40 310 275 310Z" />
<glyph unicode="&#x2018;" glyph-name="quoteleft" horiz-adv-x="550" d="M315 653Q321 642 318 640L299 622L280 589Q280 568 304 562Q329 558 329 508Q329 460 275 460Q221 460 221 493V585L267 649Q310 664 315 653Z" />
<glyph unicode="&#x2019;" glyph-name="quoteright" horiz-adv-x="550" d="M235 457Q229 468 232 470L251 488L270 521Q270 542 246 548Q221 552 221 602Q221 650 275 650Q329 650 329 617V525L283 460Q240 447 235 457Z" />
<glyph unicode="&#x201a;" glyph-name="quotesinglbase" horiz-adv-x="550" d="M235 -96Q229 -85 232 -83L251 -65L270 -32Q270 -11 246 -5Q221 -1 221 49Q221 97 275 97Q329 97 329 64V-28L283 -92Q240 -107 235 -96Z" />
<glyph unicode="&#x201c;" glyph-name="quotedblleft" horiz-adv-x="550" d="M496 653Q502 642 499 640L480 622L461 589Q461 568 485 562Q510 558 510 508Q510 460 456 460Q402 460 402 493V585L448 649Q491 664 496 653ZM390 653Q396 642 393 640L374 622L355
589Q355 568 379 562Q404 558 404 508Q404 460 350 460Q296 460 296 493V585L342 649Q385 664 390 653Z" />
<glyph unicode="&#x201d;" glyph-name="quotedblright" horiz-adv-x="550" d="M416 457Q410 468 413 470L432 488L451 521Q451 542 427 548Q402 552 402 602Q402 650 456 650Q510 650 510 617V525L464 460Q421 447 416 457ZM310 457Q304 468 307 470L326 488L345
521Q345 542 321 548Q296 552 296 602Q296 650 350 650Q404 650 404 617V525L358 460Q315 447 310 457Z" />
<glyph unicode="&#x201e;" glyph-name="quotedblbase" horiz-adv-x="550" d="M160 -96Q154 -85 157 -83L176 -65L195 -32Q195 -11 171 -5Q146 -1 146 49Q146 97 200 97Q254 97 254 64V-28L208 -93Q165 -106 160 -96ZM310 -96Q304 -85 307 -83L326 -65L345 -32Q345
-11 321 -5Q296 -1 296 49Q296 97 350 97Q404 97 404 64V-28L358 -93Q315 -106 310 -96Z" />
<glyph unicode="&#x2022;" glyph-name="bullet" horiz-adv-x="550" d="M275 385Q398 385 398 262Q398 139 275 139Q152 139 152 262Q152 385 275 385Z" />
<glyph unicode="&#x2039;" glyph-name="guilsinglleft" horiz-adv-x="550" d="M309 361Q236 279 309 198Q346 157 357 128T356 89T311 97T229 170Q196 206 190 244T195 320T229 388T277 440T325 470T356 470Q383 442 309 361Z" />
<glyph unicode="&#x203a;" glyph-name="guilsinglright" horiz-adv-x="550" d="M241 361Q167 442 194 470Q203 479 225 471T272 441T320 388T355 320T361 245T321 170Q272 116 240 98T195 88T193 127T241 198Q314 279 241 361Z" />
</font>
</defs>
</svg>
