<?xml version="1.0" standalone="no"?>
<!DOCTYPE svg PUBLIC "-//W3C//DTD SVG 1.1//EN" "http://www.w3.org/Graphics/SVG/1.1/DTD/svg11.dtd">
<svg xmlns="http://www.w3.org/2000/svg">
<defs >
<font id="DMSans" horiz-adv-x="539" ><font-face
    font-family="DM Sans 9pt"
    units-per-em="1000"
    panose-1="0 0 0 0 0 0 0 0 0 0"
    ascent="992"
    descent="-310"
    alphabetic="0" />
<glyph unicode=" " horiz-adv-x="266" />
<glyph unicode="!" horiz-adv-x="250" d="M90 199L80 700H171L161 199H90ZM125 -5Q101 -5 85 11T68 52Q68 76 84 92T125 109Q151 109 166 93T182 52Q182 28 167 12T125 -5Z" />
<glyph unicode="&quot;" horiz-adv-x="291" d="M185 551L173 755H253L243 551H185ZM49 551L38 755H118L107 551H49Z" />
<glyph unicode="#" horiz-adv-x="805" d="M434 0L583 706H662L514 0H434ZM144 0L292 706H372L224 0H144ZM46 197V272H715V197H46ZM87 435V509H758V435H87Z" />
<glyph unicode="$" horiz-adv-x="580" d="M255 -87V791H324V-87H255ZM298 -12Q221 -12 164 16T76 94T45 210H133Q133 169 152 135T207 80T298 59Q345 59 378 74T429 117T447 178Q447 219 430 244T382 286T313 314T230 342Q147 370 108 411T69 520Q69 577 95 620T171
687T289 712Q356 712 405 687T483 619T511 518H423Q423 547 408 575T363 621T286 640Q248 641 219 628T173 589T156 528Q156 494 170 473T212 438T277 411T359 384Q410 367 449 343T511 280T534 183Q534 133 508 89T429 16T298 -12Z" />
<glyph unicode="%" horiz-adv-x="786" d="M145 0L552 700H636L229 0H145ZM586 -12Q541 -12 505 8T448 67T426 156Q426 208 447 245T505 303T586 324Q632 324 667 304T724 246T745 156Q745 105 724 67T667 9T586 -12ZM585 53Q609 53 629 64T661 99T674 156Q674
191 662 214T630 248T586 260Q563 260 543 249T510 214T497 156Q497 122 509 99T542 65T585 53ZM201 375Q156 375 120 395T63 454T41 543Q41 595 62 632T120 690T202 711Q247 711 283 691T340 633T361 543Q361 492 340 454T283 396T201 375ZM201 440Q225 440 245
451T277 486T289 543Q289 578 277 601T245 636T202 648Q179 648 158 637T125 602T112 543Q112 509 124 486T157 452T201 440Z" />
<glyph unicode="&amp;" horiz-adv-x="734" d="M603 0L223 388Q177 435 157 472T136 556Q136 601 158 636T220 692T318 712Q373 712 413 692T476 636T497 552H414Q414 598 386 621T318 644Q272 644 246 620T219 557Q219 525 237 495T290 426L709 0H603ZM279 -12Q208
-12 155 14T72 89T42 202Q42 252 62 294T124 369T224 422L256 433L300 378L262 365Q193 340 160 300T126 205Q126 164 145 131T200 79T282 60Q340 60 385 85T478 169Q499 195 521 230T568 308L599 362H688L644 282Q616 232 590 191T536 118Q479 49 418 19T279 -12Z"
/>
<glyph unicode="&apos;" horiz-adv-x="159" d="M51 551L38 755H121L109 551H51Z" />
<glyph unicode="(" horiz-adv-x="373" d="M249 -145Q195 -93 149 -22T76 139T48 333Q48 438 75 527T149 688T249 811H335V803Q274 743 229 669T158 511T132 333Q132 240 157 156T229 -3T335 -137V-145H249Z" />
<glyph unicode=")" horiz-adv-x="373" d="M124 -145H38V-137Q99 -77 144 -3T215 155T241 333Q241 426 216 510T145 669T38 803V811H124Q179 760 224 688T297 527T325 333Q325 228 298 139T225 -21T124 -145Z" />
<glyph unicode="*" horiz-adv-x="480" d="M209 360L221 513L97 426L62 487L201 548L63 608L96 667L222 580L208 733H276L261 580L386 667L418 609L280 547L419 486L386 427L261 513L275 360H209Z" />
<glyph unicode="+" horiz-adv-x="550" d="M237 72V508H312V72H237ZM46 255V326H503V255H46Z" />
<glyph unicode="," horiz-adv-x="182" d="M4 -123L62 98H149L62 -123H4Z" />
<glyph unicode="-" horiz-adv-x="541" d="M329 260V331H725V260H329Z" />
<glyph unicode="." horiz-adv-x="198" d="M100 -5Q75 -5 59 11T42 52Q42 76 58 92T100 109Q125 109 141 93T157 52Q157 28 141 12T100 -5Z" />
<glyph unicode="/" horiz-adv-x="392" d="M28 -95L279 764H362L111 -95H28Z" />
<glyph unicode="0" horiz-adv-x="684" d="M343 -12Q251 -12 185 33T84 160T48 350Q48 458 83 539T185 666T343 712Q435 712 500 667T601 540T636 350Q636 242 601 161T501 34T343 -12ZM343 62Q402 62 449 96T523 195T550 350Q550 440 523 504T449 603T343 637Q282
637 235 603T161 505T134 350Q134 260 160 196T234 97T343 62Z" />
<glyph unicode="1" horiz-adv-x="312" d="M152 0V606L32 576V636L180 700H237V0H152Z" />
<glyph unicode="2" horiz-adv-x="576" d="M64 0V59Q135 115 199 172T314 285T392 396T421 500Q421 537 408 568T367 620T290 640Q243 640 212 620T166 566T150 492H69Q70 561 98 610T177 686T291 712Q354 712 402 689T477 619T505 503Q505 454 485 405T430 310T355
220T270 139T188 70H529V0H64Z" />
<glyph unicode="3" horiz-adv-x="591" d="M293 -12Q226 -12 172 12T85 86T51 208H136Q137 168 155 135T209 81T293 61Q342 61 375 80T425 130T442 201Q442 250 419 280T356 326T269 341H217V412H269Q338 412 377 443T416 531Q416 577 386 608T293 639Q234 639
199 605T159 518H74Q77 575 105 619T181 687T294 712Q362 712 408 688T477 624T501 536Q501 501 488 469T449 413T383 380Q424 371 456 348T508 288T527 201Q527 144 501 96T422 18T293 -12Z" />
<glyph unicode="4" horiz-adv-x="607" d="M392 0V150H37V215L377 700H475V224H579V150H475V0H392ZM130 224H396V607V607L130 224Z" />
<glyph unicode="5" horiz-adv-x="611" d="M311 -12Q240 -12 187 14T104 85T65 186H147Q159 130 202 95T312 60Q362 60 397 83T452 146T472 235Q472 287 453 325T398 386T316 408Q258 408 218 383T158 318H77L136 700H505V627H201L161 413Q186 441 228 460T325
479Q376 479 418 461T490 409T536 332T553 236Q553 186 537 141T490 62T414 8T311 -12Z" />
<glyph unicode="6" horiz-adv-x="629" d="M326 -12Q250 -12 198 16T115 93T70 200T55 322Q55 438 87 525T179 662T325 712Q391 712 438 687T514 618T548 522H470Q460 578 422 608T324 639Q272 639 230 607T164 508T135 339Q135 337 135 335T135 331Q151 363 179
389T248 432T337 448Q397 448 449 420T533 342T566 223Q566 164 537 110T454 22T326 -12ZM320 62Q366 62 402 82T460 138T481 219Q481 266 460 301T403 355T320 375Q274 375 237 354T179 298T157 218Q157 173 178 138T237 83T320 62Z" />
<glyph unicode="7" horiz-adv-x="534" d="M138 0L411 628H27V700H497V637L227 0H138Z" />
<glyph unicode="8" horiz-adv-x="609" d="M304 -12Q236 -12 182 13T96 84T64 190Q64 233 81 270T128 334T199 373Q143 393 113 435T82 526Q82 578 109 620T185 687T304 712Q374 712 423 687T500 620T527 526Q527 477 496 435T409 373Q451 362 481 335T528 270T545
190Q545 130 513 85T427 14T304 -12ZM304 62Q383 62 422 98T461 195Q461 263 418 298T304 333Q233 333 191 298T148 195Q148 135 187 99T304 62ZM304 403Q367 403 404 436T442 521Q442 580 405 610T304 640Q241 640 205 610T168 521Q168 469 204 436T304 403Z"
/>
<glyph unicode="9" horiz-adv-x="629" d="M303 -12Q238 -12 191 14T116 83T82 178H160Q170 122 208 92T304 61Q357 61 398 93T465 190T493 357Q494 360 494 363T494 369Q478 338 450 311T382 268T292 252Q233 252 181 280T96 358T63 477Q63 536 92 590T175 678T303
712Q379 712 430 684T513 608T559 500T574 378Q574 263 542 175T450 38T303 -12ZM309 325Q355 325 392 346T451 403T473 482Q473 528 451 563T392 618T309 638Q263 638 227 618T169 562T148 481Q148 434 169 399T226 345T309 325Z" />
<glyph unicode=":" horiz-adv-x="202" d="M100 -5Q75 -5 59 11T42 52Q42 76 58 92T100 109Q125 109 141 93T157 52Q157 28 141 12T100 -5ZM100 402Q75 402 59 418T42 459Q42 483 58 499T100 516Q125 516 141 500T157 459Q157 435 141 419T100 402Z" />
<glyph unicode=";" horiz-adv-x="227" d="M125 402Q100 402 84 418T67 459Q67 483 83 499T125 516Q150 516 166 500T182 459Q182 435 166 419T125 402ZM25 -123L83 98H170L83 -123H25Z" />
<glyph unicode="&lt;" horiz-adv-x="550" d="M451 43H344L100 273V273L344 504H451L206 273L451 43Z" />
<glyph unicode="=" horiz-adv-x="550" d="M75 359V431H474V359H75ZM75 151V223H474V151H75Z" />
<glyph unicode="&gt;" horiz-adv-x="550" d="M99 43L344 273L99 504H206L450 273V273L206 43H99Z" />
<glyph unicode="?" horiz-adv-x="524" d="M158 201L154 357H185Q227 357 265 362T333 384T380 429T398 507Q398 549 380 579T330 625T256 641Q214 641 182 625T133 581T115 512H35Q35 572 63 617T141 687T256 712Q321 712 371 687T450 616T479 507Q479 433 448
387T361 320T234 299L231 201H158ZM194 -5Q169 -5 153 11T136 52Q136 76 152 92T194 109Q219 109 235 93T251 52Q251 28 235 12T194 -5Z" />
<glyph unicode="@" horiz-adv-x="1006" d="M430 -199Q325 -199 245 -158T121 -40T76 141Q76 247 111 337T212 496T367 602T566 640Q676 640 757 598T884 480T930 304Q930 246 916 191T875 92T809 21T719 -6Q659 -6 633 31T613 126L616 160L633 130Q609 67 555
31T436 -6Q361 -6 319 40T277 165Q277 220 294 270T343 359T418 422T515 445Q576 445 612 413T654 317L634 304L657 434H728L678 148Q671 105 682 79T731 52Q764 52 788 75T828 135T853 215T862 300Q862 388 825 450T720 547T556 581Q465 581 390 548T260 456T174
318T144 148Q144 56 180 -8T285 -105T446 -139Q489 -139 531 -131T611 -105L626 -162Q581 -181 532 -190T430 -199ZM461 58Q503 58 538 81T596 144T624 239Q629 278 619 310T583 361T517 381Q479 381 449 364T398 317T366 252T354 178Q354 124 381 91T461 58Z"
/>
<glyph unicode="A" horiz-adv-x="664" d="M30 0L288 700H377L634 0H545L332 595V595L118 0H30ZM148 180L172 248H489L513 180H148Z" />
<glyph unicode="B" horiz-adv-x="603" d="M75 0V700H321Q395 700 443 677T516 613T540 522Q540 468 517 432T456 377T376 354L390 364Q435 363 473 340T533 278T556 191Q556 138 530 95T454 26T329 0H75ZM159 70H320Q391 70 430 103T470 197Q470 256 430 291T318
327H159V70ZM159 394H315Q383 394 418 426T454 513Q454 566 419 598T312 630H159V394Z" />
<glyph unicode="C" horiz-adv-x="717" d="M379 -12Q277 -12 203 33T88 160T48 350Q48 458 88 539T202 666T379 712Q499 712 574 655T670 494H577Q561 559 512 598T379 638Q305 638 250 604T164 505T134 350Q134 260 164 196T249 97T379 62Q463 62 512 100T577
203H670Q649 102 574 45T379 -12Z" />
<glyph unicode="D" horiz-adv-x="688" d="M75 0V700H281Q404 700 484 658T602 537T641 348Q641 240 603 162T484 42T281 0H75ZM159 70H279Q381 70 441 103T528 199T554 348Q554 436 528 499T442 596T279 630H159V70Z" />
<glyph unicode="E" horiz-adv-x="565" d="M75 0V700H508V631H159V387H478V319H159V69H508V0H75Z" />
<glyph unicode="F" horiz-adv-x="535" d="M75 0V700H501V631H159V385H450V317H159V0H75Z" />
<glyph unicode="G" horiz-adv-x="758" d="M376 -12Q278 -12 204 33T89 160T48 349Q48 456 89 538T207 666T388 712Q506 712 585 656T686 498H589Q575 561 523 598T388 635Q311 635 254 601T165 502T134 349Q134 260 165 196T251 97T379 63Q491 63 548 129T613
308H411V374H699V0H622L615 115V115Q590 74 558 46T481 3T376 -12Z" />
<glyph unicode="H" horiz-adv-x="681" d="M522 0V700H606V0H522ZM75 0V700H159V0H75ZM143 322V391H543V322H143Z" />
<glyph unicode="I" horiz-adv-x="234" d="M75 0V700H159V0H75Z" />
<glyph unicode="J" horiz-adv-x="501" d="M231 -12Q168 -12 123 12T53 81T28 188H113Q113 153 124 125T161 80T230 63Q272 63 296 79T331 122T342 185V700H426V185Q426 91 375 40T231 -12Z" />
<glyph unicode="K" horiz-adv-x="584" d="M75 0V700H159V383L451 700H557L297 421L561 0H459L237 356L159 273V0H75Z" />
<glyph unicode="L" horiz-adv-x="527" d="M75 0V700H159V67H485V0H75Z" />
<glyph unicode="M" horiz-adv-x="842" d="M75 0V700H173L421 211V211L668 700H767V0H683V550V550L452 98H389L159 548V548V0H75Z" />
<glyph unicode="N" horiz-adv-x="691" d="M75 0V700H159L532 139V139V700H616V0H532L159 561V561V0H75Z" />
<glyph unicode="O" horiz-adv-x="775" d="M387 -12Q286 -12 210 33T91 160T48 350Q48 457 90 538T209 666T387 712Q490 712 566 666T685 539T727 350Q727 242 685 161T567 34T387 -12ZM387 62Q463 62 520 96T609 195T641 350Q641 440 610 504T521 603T387 637Q312
637 255 603T166 505T134 350Q134 260 165 196T254 97T387 62Z" />
<glyph unicode="P" horiz-adv-x="580" d="M75 0V700H304Q386 700 439 673T518 599T544 494Q544 437 519 391T440 317T304 289H159V0H75ZM159 360H302Q386 360 422 396T458 494Q458 559 422 594T302 630H159V360Z" />
<glyph unicode="Q" horiz-adv-x="775" d="M573 -95L338 273H435L670 -95H573ZM387 -12Q286 -12 210 33T91 160T48 350Q48 457 90 538T209 666T387 712Q490 712 566 666T685 539T727 350Q727 242 685 161T567 34T387 -12ZM387 62Q463 62 520 96T609 195T641 350Q641
440 610 504T521 603T387 637Q312 637 255 603T166 505T134 350Q134 260 165 196T254 97T387 62Z" />
<glyph unicode="R" horiz-adv-x="594" d="M75 0V700H301Q383 700 435 673T512 599T537 495Q537 439 512 392T433 317T297 289H159V0H75ZM445 0L291 313H385L544 0H445ZM159 355H295Q375 355 412 394T450 494Q450 556 414 592T294 629H159V355Z" />
<glyph unicode="S" horiz-adv-x="580" d="M298 -12Q221 -12 164 16T76 94T45 210H133Q133 169 152 135T207 80T298 59Q345 59 378 74T429 117T447 178Q447 219 430 244T382 286T313 314T230 342Q147 370 108 411T69 520Q69 577 95 620T171 687T289 712Q356 712
405 687T483 619T511 518H423Q423 547 408 575T363 621T286 640Q248 641 219 628T173 589T156 528Q156 494 170 473T212 438T277 411T359 384Q410 367 449 343T511 280T534 183Q534 133 508 89T429 16T298 -12Z" />
<glyph unicode="T" horiz-adv-x="561" d="M239 0V631H30V700H532V631H323V0H239Z" />
<glyph unicode="U" horiz-adv-x="656" d="M327 -12Q255 -12 197 17T103 105T68 258V700H152V257Q152 189 174 146T237 83T329 63Q382 63 421 83T482 146T504 257V700H588V258Q588 165 553 106T459 17T327 -12Z" />
<glyph unicode="V" horiz-adv-x="669" d="M285 0L22 700H113L334 89V89L557 700H646L383 0H285Z" />
<glyph unicode="W" horiz-adv-x="968" d="M219 0L27 700H117L268 100V100L439 700H533L700 98V98L853 700H943L747 0H651L484 579V579L313 0H219Z" />
<glyph unicode="X" horiz-adv-x="603" d="M38 0L252 353L38 700H133L305 421V421L469 700H563L349 350L564 0H469L296 282V282L133 0H38Z" />
<glyph unicode="Y" horiz-adv-x="580" d="M248 0V266L20 700H115L303 321H278L465 700H559L332 266V0H248Z" />
<glyph unicode="Z" horiz-adv-x="541" d="M45 0V66L394 627H50V700H492V634L142 73H496V0H45Z" />
<glyph unicode="[" horiz-adv-x="314" d="M75 -151V811H254V742H154V-81H254V-151H75Z" />
<glyph unicode="\" horiz-adv-x="392" d="M362 -95H279L28 764H111L362 -95Z" />
<glyph unicode="]" horiz-adv-x="314" d="M239 -151H60V-81H160V742H60V811H239V-151Z" />
<glyph unicode="^" horiz-adv-x="622" d="M38 210L273 700H350L585 210H499L312 601V601L124 210H38Z" />
<glyph unicode="_" horiz-adv-x="660" d="M73 -115V-36H588V-115H73Z" />
<glyph unicode="`" horiz-adv-x="213" d="M204 547L0 663L12 735V735L213 607L204 547Z" />
<glyph unicode="a" horiz-adv-x="544" d="M234 -12Q173 -12 132 9T71 66T51 144Q51 195 77 230T152 284T267 303H400Q400 350 386 381T344 429T275 445Q227 445 192 421T149 350H63Q69 404 99 440T177 496T275 516Q345 516 391 491T461 420T484 312V0H409L404
89V89Q394 68 379 50T343 18T295 -4T234 -12ZM247 59Q282 59 310 73T359 113T389 170T400 235V238H274Q225 238 195 227T152 195T139 148Q139 121 151 101T188 70T247 59Z" />
<glyph unicode="b" horiz-adv-x="627" d="M334 -12Q291 -12 257 0T196 34T153 83V83L146 0H70V720H154V421Q178 460 223 488T334 516Q408 516 462 482T547 388T578 252Q578 176 548 116T462 22T334 -12ZM324 61Q374 61 412 85T471 151T493 252Q493 309 472 352T412
419T324 443Q274 443 236 419T177 352T156 252Q156 194 177 152T236 85T324 61Z" />
<glyph unicode="c" horiz-adv-x="572" d="M297 -12Q226 -12 170 21T81 113T49 251Q49 331 81 390T169 482T297 516Q387 516 447 470T523 345H437Q427 392 388 418T296 444Q253 444 217 423T158 358T135 252Q135 205 148 169T183 108T234 72T296 59Q332 59 361
70T410 105T437 159H523Q507 83 447 36T297 -12Z" />
<glyph unicode="d" horiz-adv-x="627" d="M293 -12Q220 -12 165 22T79 117T49 253Q49 329 79 388T164 482T294 516Q355 516 401 491T474 421V720H558V0H482L474 83V83Q458 58 433 37T374 2T293 -12ZM302 61Q352 61 390 85T449 151T471 252Q471 309 450 352T390
419T302 443Q254 443 216 419T156 352T135 252Q135 194 156 152T215 85T302 61Z" />
<glyph unicode="e" horiz-adv-x="568" d="M291 -12Q221 -12 166 21T80 113T49 252Q49 332 79 391T165 483T293 516Q367 516 419 483T498 397T526 279Q526 269 526 258T525 233H112V298H443Q440 367 398 406T291 445Q249 445 212 426T153 369T131 275V247Q131 185
153 143T212 80T291 59Q344 59 378 82T429 147H512Q499 101 469 66T395 9T291 -12Z" />
<glyph unicode="f" horiz-adv-x="340" d="M98 0V582Q98 630 114 660T161 705T239 720H296V648H252Q215 648 199 633T182 580V0H98ZM21 433V504H309V433H21Z" />
<glyph unicode="g" horiz-adv-x="558" d="M269 -232Q201 -232 149 -215T67 -161T38 -72Q38 -49 47 -23T80 28T147 73L205 39Q152 17 136 -11T120 -64Q120 -97 139 -119T192 -152T269 -163Q312 -163 343 -151T391 -117T408 -65Q408 -30 382 -7T283 21Q224 25 184
32T118 48T75 70T43 95V118L140 214L213 188L113 98L126 133Q137 125 147 118T174 106T221 97T302 89Q371 84 412 65T472 14T491 -62Q491 -105 468 -143T395 -207T269 -232ZM268 158Q205 158 161 182T93 246T70 337Q70 387 93 427T161 491T268 516Q331 516 375
492T442 427T465 337Q465 287 442 247T375 182T268 158ZM268 227Q322 227 353 255T384 337Q384 390 353 418T268 446Q215 446 183 418T150 337Q150 283 182 255T268 227ZM350 433L325 504H531V441L350 433Z" />
<glyph unicode="h" horiz-adv-x="575" d="M70 0V720H154V419V419Q179 464 224 490T324 516Q382 516 425 493T491 421T514 300V0H431V291Q431 367 399 405T306 444Q263 444 229 423T174 363T154 267V0H70Z" />
<glyph unicode="i" horiz-adv-x="240" d="M78 0V504H162V0H78ZM120 611Q95 611 79 627T62 669Q62 694 78 709T120 725Q144 725 161 710T178 669Q178 644 161 628T120 611Z" />
<glyph unicode="j" horiz-adv-x="243" d="M-27 -220V-148H12Q50 -148 66 -133T82 -80V504H166V-82Q166 -130 150 -160T103 -205T25 -220H-27ZM125 611Q100 611 84 627T67 669Q67 694 83 709T125 725Q149 725 165 710T182 669Q182 644 166 628T125 611Z" />
<glyph unicode="k" horiz-adv-x="504" d="M380 0L140 276L359 504H462L211 246L212 306L487 0H380ZM70 0V720H154V0H70Z" />
<glyph unicode="l" horiz-adv-x="223" d="M70 0V720H154V0H70Z" />
<glyph unicode="m" horiz-adv-x="891" d="M70 0V504H146L151 432V432Q175 471 215 493T304 516Q343 516 374 506T430 474T469 419V419Q495 465 541 490T638 516Q697 516 740 493T807 422T831 301V0H748V292Q748 368 717 406T629 444Q590 444 559 424T510 364T492
268V0H408V292Q408 368 377 406T290 444Q252 444 221 424T172 364T154 268V0H70Z" />
<glyph unicode="n" horiz-adv-x="574" d="M70 0V504H146L150 416V416Q174 463 218 489T320 516Q379 516 422 493T489 422T513 301V0H429V292Q429 368 396 406T301 444Q259 444 226 424T174 365T154 269V0H70Z" />
<glyph unicode="o" horiz-adv-x="593" d="M295 -12Q225 -12 169 20T81 112T49 251Q49 332 81 391T170 483T297 516Q369 516 424 484T512 392T545 252Q545 172 512 113T423 21T295 -12ZM296 60Q339 60 376 81T436 146T459 252Q459 316 437 358T378 422T297 444Q255
444 218 423T158 359T135 252Q135 189 157 146T216 82T296 60Z" />
<glyph unicode="p" horiz-adv-x="627" d="M70 -220V504H146L153 422V422Q169 446 194 467T254 502T335 516Q408 516 462 481T547 387T578 251Q578 175 548 116T462 22T334 -12Q273 -12 226 13T154 83V-220H70ZM324 61Q373 61 411 85T471 151T493 252Q493 309 472
352T412 419T324 443Q274 443 236 419T177 352T156 252Q156 194 177 152T236 85T324 61Z" />
<glyph unicode="q" horiz-adv-x="627" d="M474 -220V82Q449 43 404 16T293 -12Q220 -12 165 22T79 116T49 252Q49 328 79 387T164 481T293 516Q336 516 370 504T431 471T474 421V421L482 504H558V-220H474ZM302 61Q352 61 390 85T449 151T471 252Q471 309 450
352T390 419T302 443Q254 443 216 419T156 352T135 252Q135 194 156 152T215 85T302 61Z" />
<glyph unicode="r" horiz-adv-x="370" d="M70 0V504H146L152 408V408Q169 442 195 466T259 503T345 516V428H314Q282 428 253 420T202 392T167 341T154 260V0H70Z" />
<glyph unicode="s" horiz-adv-x="502" d="M260 -12Q198 -12 151 9T77 67T43 156H129Q134 130 150 108T193 73T261 59Q296 59 319 69T353 98T365 137Q365 168 351 184T308 209T240 226Q207 232 175 242T118 268T79 309T64 368Q64 411 86 444T150 497T246 516Q327
516 377 477T436 364H353Q348 402 321 423T245 445Q198 445 174 426T149 376Q149 356 162 341T203 314T268 296Q318 287 359 272T425 228T451 144Q451 97 428 62T361 8T260 -12Z" />
<glyph unicode="t" horiz-adv-x="392" d="M268 0Q223 0 190 14T140 61T122 152V433H34V504H122L133 626H206V504H352V433H206V152Q206 105 225 89T292 72H346V0H268Z" />
<glyph unicode="u" horiz-adv-x="573" d="M253 -12Q195 -12 152 11T85 82T61 202V504H145V211Q145 136 178 98T271 60Q313 60 347 80T400 139T420 235V504H504V0H428L423 88V88Q400 41 355 15T253 -12Z" />
<glyph unicode="v" horiz-adv-x="527" d="M215 0L24 504H112L264 81V81L417 504H503L312 0H215Z" />
<glyph unicode="w" horiz-adv-x="763" d="M172 0L24 504H108L223 79H208L333 504H428L555 80L539 79L653 504H738L591 0H505L373 444H390L258 0H172Z" />
<glyph unicode="x" horiz-adv-x="496" d="M20 0L191 252L20 504H112L248 298V298L386 504H476L305 252L476 0H386L248 207V207L112 0H20Z" />
<glyph unicode="y" horiz-adv-x="556" d="M125 -220L248 56H219L21 504H112L276 119V119L449 504H536L213 -220H125Z" />
<glyph unicode="z" horiz-adv-x="458" d="M36 0V69L315 434H41V504H411V435L131 70H416V0H36Z" />
<glyph unicode="{" horiz-adv-x="427" d="M321 -152Q253 -152 211 -115T169 -2Q169 32 174 59T185 116T191 184Q191 209 182 231T150 271T85 296V364Q127 372 150 389T182 428T191 476Q191 515 186 543T175 599T169 661Q169 737 211 774T321 811H375V739H336Q295
739 273 720T251 654Q251 625 256 599T267 543T272 473Q272 421 246 383T161 331V329Q220 316 246 278T272 186Q272 147 267 118T257 62T251 5Q251 -41 273 -60T336 -80H375V-152H321Z" />
<glyph unicode="|" horiz-adv-x="234" d="M75 -100V720H159V-100H75Z" />
<glyph unicode="}" horiz-adv-x="427" d="M106 -152H52V-80H91Q132 -80 154 -61T176 5Q176 35 171 61T161 117T155 186Q155 239 181 277T266 329V331Q208 344 182 382T155 473Q155 513 160 542T171 598T176 654Q176 700 154 719T91 739H52V811H106Q174 811 216
774T258 661Q258 627 253 600T242 544T236 476Q236 451 245 429T278 389T343 364V296Q301 288 278 271T246 232T236 184Q236 146 241 117T252 60T258 -2Q258 -77 216 -114T106 -152Z" />
<glyph unicode="~" horiz-adv-x="550" d="M358 249Q330 249 308 259T267 282T228 306T187 317Q160 317 144 298T122 250H58Q66 298 84 329T129 376T192 392Q221 392 243 382T285 358T323 335T363 325Q391 325 408 343T428 391H492Q486 343 468 312T422 265T358 249Z" />
<glyph unicode="&#xa0;" horiz-adv-x="266" />
<glyph unicode="&#xa1;" horiz-adv-x="250" d="M90 311H161L171 -189H80L90 311ZM125 516Q151 516 166 500T182 459Q182 435 167 419T125 402Q101 402 85 418T68 459Q68 483 84 499T125 516Z" />
<glyph unicode="&#xa2;" horiz-adv-x="572" d="M258 -104V40H339V-104H258ZM258 464V608H339V464H258ZM297 -12Q226 -12 170 21T81 113T49 251Q49 331 81 390T169 482T297 516Q387 516 447 470T523 345H437Q427 392 388 418T296 444Q253 444 217 423T158 358T135
252Q135 205 148 169T183 108T234 72T296 59Q332 59 361 70T410 105T437 159H523Q507 83 447 36T297 -12Z" />
<glyph unicode="&#xa3;" horiz-adv-x="601" d="M88 0V55Q113 83 131 108T160 165T171 240Q171 274 162 304T141 365T119 430T110 507Q110 569 137 615T212 686T323 712Q394 712 440 684T512 610T540 507H463Q460 565 425 603T323 642Q288 642 258 628T209 583T190
503Q190 468 199 436T220 371T241 307T250 242Q250 193 233 151T177 70H542V0H88ZM46 310V369H413V310H46Z" />
<glyph unicode="&#xa4;" horiz-adv-x="533" d="M266 121Q215 121 176 142T115 203T92 297Q92 351 115 390T177 451T267 473Q316 473 355 452T418 391T441 297Q441 243 418 204T355 143T266 121ZM104 91L65 131L148 214L189 176L104 91ZM429 91L350 171L388 211L468
131L429 91ZM266 186Q289 186 311 197T347 233T362 297Q362 337 348 361T311 397T266 409Q242 409 220 398T185 362T171 297Q171 258 184 234T220 198T266 186ZM147 385L65 466L104 505L186 423L147 385ZM383 381L348 422L429 505L468 466L383 381Z" />
<glyph unicode="&#xa5;" horiz-adv-x="602" d="M59 170V231H543V170H59ZM272 324H59V384H262L272 324ZM344 324L354 384H543V324H344ZM259 0V266L31 700H126L314 321H289L476 700H570L343 266V0H259Z" />
<glyph unicode="&#xa6;" horiz-adv-x="234" d="M75 387V720H159V387H75ZM75 -100V233H159V-100H75Z" />
<glyph unicode="&#xa7;" horiz-adv-x="586" d="M290 -232Q224 -232 174 -207T97 -138T68 -38H156Q156 -67 171 -95T216 -141T293 -160Q350 -161 386 -131T423 -48Q423 -14 409 7T367 42T302 68T220 95Q170 112 130 136T68 199T45 295Q45 332 59 366T101 428Q88
447 81 469T74 520Q74 577 101 620T177 687T295 712Q362 712 411 687T489 619T517 518H429Q429 547 414 575T369 621T292 640Q235 641 199 611T162 528Q162 494 176 473T218 438T283 412T365 385Q416 368 455 344T517 281T540 185Q540 148 526 114T483 52Q497 33
503 11T510 -40Q511 -96 484 -139T408 -207T290 -232ZM423 104Q438 119 445 138T453 180Q453 221 436 246T389 286T321 314T239 342Q216 350 197 358T162 376Q147 361 140 342T132 300Q132 268 143 246T174 209T221 182T280 160T346 138Q369 131 388 122T423 104Z"
/>
<glyph unicode="&#xa8;" horiz-adv-x="306" d="M234 571Q213 571 199 585T184 621Q184 641 198 656T234 671Q254 671 268 656T283 621Q283 600 269 586T234 571ZM73 571Q53 571 39 585T24 621Q24 641 38 656T73 671Q94 671 108 656T123 621Q123 600 109 586T73 571Z" />
<glyph unicode="&#xa9;" horiz-adv-x="794" d="M397 -4Q294 -4 216 41T95 167T51 350Q51 454 94 534T216 659T397 704Q500 704 577 659T699 534T743 350Q743 247 699 167T578 42T397 -4ZM397 119Q338 119 289 146T210 226T180 351Q180 424 209 476T288 555T397
583Q471 583 527 544T602 430H525Q511 475 476 498T396 522Q357 522 325 503T274 445T254 350Q254 294 273 256T325 198T396 179Q443 179 476 202T525 270H602Q583 200 527 160T397 119ZM397 33Q492 33 560 73T666 185T704 350Q704 445 667 516T561 628T397 668Q303
668 234 628T128 517T90 350Q90 257 127 186T234 74T397 33Z" />
<glyph unicode="&#xaa;" horiz-adv-x="478" d="M218 347Q170 347 132 370T73 434T51 529Q51 583 72 623T131 686T216 709Q267 709 301 688T350 634L357 703H417V353H357L350 422V422Q336 389 302 368T218 347ZM234 400Q267 400 293 415T334 459T350 528Q350 589
317 622T234 656Q187 656 154 623T120 529Q120 468 153 434T234 400Z" />
<glyph unicode="&#xab;" horiz-adv-x="452" d="M319 120L222 295L319 470H402L302 295L402 120H319ZM141 120L44 295L141 470H224L124 295L224 120H141Z" />
<glyph unicode="&#xac;" horiz-adv-x="550" d="M476 223V365H-10V432H560V223H476Z" />
<glyph unicode="&#xae;" horiz-adv-x="504" d="M253 307Q194 307 149 333T78 405T52 509Q52 568 77 613T148 685T253 712Q311 712 356 686T426 614T452 509Q452 451 427 405T356 333T253 307ZM293 403L231 502H282L349 403H293ZM253 343Q302 343 337 364T393 423T413
509Q413 558 393 595T338 653T253 675Q204 675 168 654T111 595T91 509Q91 461 111 424T167 365T253 343ZM173 403V618H268Q302 618 321 601T341 552Q341 522 322 505T268 487H220V403H173ZM220 525H264Q277 525 285 531T294 551Q294 565 286 570T264 576H220V525Z"
/>
<glyph unicode="&#xaf;" horiz-adv-x="381" d="M17 592V655H364V592H17Z" />
<glyph unicode="&#xb0;" horiz-adv-x="343" d="M171 444Q135 444 105 460T57 507T39 577Q39 619 57 649T106 695T172 712Q208 712 237 696T285 649T303 577Q303 537 285 507T237 461T171 444ZM171 506Q195 506 216 524T238 578Q238 614 217 632T172 650Q147 650
126 632T105 578Q105 542 125 524T171 506Z" />
<glyph unicode="&#xb1;" horiz-adv-x="550" d="M37 0V64H512V0H37ZM237 125V478H312V125H237ZM37 266V337H512V266H37Z" />
<glyph unicode="&#xb2;" horiz-adv-x="330" d="M35 352V400L147 492Q176 516 195 541T215 600Q215 629 199 644T160 659Q134 659 119 644T100 600H33Q36 646 69 678T164 710Q202 710 229 696T271 657T286 603Q286 562 262 532T190 466L109 406H290V352H35Z" />
<glyph unicode="&#xb3;" horiz-adv-x="330" d="M161 347Q100 347 66 374T26 454H93Q96 433 105 421T128 403T160 398Q190 398 207 412T225 452Q225 479 206 493T157 508H111V549H156Q185 549 203 563T222 604Q222 629 205 643T159 658Q131 658 115 646T93 611H30Q33
639 49 661T95 697T165 710Q219 710 256 681T293 608Q293 577 276 557T228 529V527Q257 518 276 498T296 444Q296 404 260 376T161 347Z" />
<glyph unicode="&#xb4;" horiz-adv-x="213" d="M9 547L0 607L201 735V735L213 663L9 547Z" />
<glyph unicode="&#xb5;" horiz-adv-x="584" d="M70 -220V496H154V215Q154 138 186 99T282 60Q325 60 358 81T411 142T431 239V496H515V0H439L434 88V88Q410 42 365 15T262 -12Q231 -12 204 -4T154 20V-220H70Z" />
<glyph unicode="&#xb6;" horiz-adv-x="587" d="M283 -100V295H273Q192 295 140 321T62 394T37 497Q37 555 62 600T140 673T273 700H513V-100H439V634H357V-100H283Z" />
<glyph unicode="&#xb7;" horiz-adv-x="198" d="M100 285Q75 285 59 301T42 342Q42 367 58 383T100 399Q125 399 141 383T157 342Q157 318 141 302T100 285Z" />
<glyph unicode="&#xb8;" horiz-adv-x="228" d="M0 -259V-206H92Q127 -206 143 -194T160 -158Q160 -136 144 -125T92 -113H43V7H99V-63Q137 -62 166 -72T211 -105T228 -159Q228 -190 213 -212T170 -247T108 -259H0Z" />
<glyph unicode="&#xb9;" horiz-adv-x="204" d="M95 352V638L28 620V662L118 704H162V352H95Z" />
<glyph unicode="&#xba;" horiz-adv-x="459" d="M228 348Q175 348 135 371T72 435T49 530Q49 585 72 626T136 689T229 712Q283 712 323 690T387 626T410 530Q410 476 387 435T323 371T228 348ZM228 403Q260 403 285 417T325 460T341 530Q341 573 326 601T285 644T228
659Q198 659 173 645T133 602T118 530Q118 489 132 461T172 418T228 403Z" />
<glyph unicode="&#xbb;" horiz-adv-x="452" d="M133 120H50L150 295L50 470H133L230 295L133 120ZM311 120H228L328 295L228 470H311L408 295L311 120Z" />
<glyph unicode="&#xbc;" horiz-adv-x="706" d="M95 352V638L28 620V662L118 704H162V352H95ZM80 0L487 700H572L164 0H80ZM578 0V66H406V116L570 348H644V120H690V66H644V0H578ZM476 120H583V276V276L476 120Z" />
<glyph unicode="&#xbd;" horiz-adv-x="745" d="M95 352V638L28 620V662L118 704H162V352H95ZM80 0L487 700H572L164 0H80ZM450 0V48L562 140Q591 164 610 189T630 248Q630 277 614 292T575 307Q549 307 534 292T515 248H448Q451 294 484 326T579 358Q617 358 644
344T686 305T701 251Q701 210 677 180T605 114L524 54H705V0H450Z" />
<glyph unicode="&#xbe;" horiz-adv-x="812" d="M161 347Q100 347 66 374T26 454H93Q96 433 105 421T128 403T160 398Q190 398 207 412T225 452Q225 479 206 493T157 508H111V549H156Q185 549 203 563T222 604Q222 629 205 643T159 658Q131 658 115 646T93 611H30Q33
639 49 661T95 697T165 710Q219 710 256 681T293 608Q293 577 276 557T228 529V527Q257 518 276 498T296 444Q296 404 260 376T161 347ZM186 0L593 700H678L270 0H186ZM684 0V66H512V116L676 348H750V120H796V66H750V0H684ZM582 120H689V276V276L582 120Z" />
<glyph unicode="&#xbf;" horiz-adv-x="524" d="M366 309L370 154H339Q297 154 259 149T191 127T144 82T126 4Q126 -37 144 -67T194 -114T268 -130Q311 -130 342 -114T391 -69T409 -1H489Q489 -61 461 -106T383 -176T268 -201Q203 -201 153 -176T74 -105T45 4Q45
78 76 124T163 191T290 212L292 309H366ZM330 516Q354 516 371 500T388 459Q388 435 371 419T330 402Q305 402 289 418T273 459Q273 483 289 499T330 516Z" />
<glyph unicode="&#xc0;" horiz-adv-x="664" d="M30 0L288 700H377L634 0H545L332 595V595L118 0H30ZM148 180L172 248H489L513 180H148ZM431 743L227 859L239 931V931L440 804L431 743Z" />
<glyph unicode="&#xc1;" horiz-adv-x="664" d="M30 0L288 700H377L634 0H545L332 595V595L118 0H30ZM148 180L172 248H489L513 180H148ZM236 743L227 804L428 931V931L440 859L236 743Z" />
<glyph unicode="&#xc2;" horiz-adv-x="664" d="M30 0L288 700H377L634 0H545L332 595V595L118 0H30ZM148 180L172 248H489L513 180H148ZM196 755V821L333 902L470 821V755L333 839L196 755Z" />
<glyph unicode="&#xc3;" horiz-adv-x="664" d="M30 0L288 700H377L634 0H545L332 595V595L118 0H30ZM148 180L172 248H489L513 180H148ZM398 756Q371 756 353 768T320 791T283 803Q267 803 256 792T241 758H192Q199 808 224 833T287 859Q314 859 331 848T365 824T402
812Q419 812 430 823T445 857H494Q488 808 462 782T398 756Z" />
<glyph unicode="&#xc4;" horiz-adv-x="664" d="M30 0L288 700H377L634 0H545L332 595V595L118 0H30ZM148 180L172 248H489L513 180H148ZM254 775Q233 775 219 789T204 825Q204 845 218 860T254 875Q274 875 289 860T304 825Q304 804 289 790T254 775ZM414 775Q393
775 379 789T364 825Q364 845 378 860T414 875Q434 875 448 860T463 825Q463 804 449 790T414 775Z" />
<glyph unicode="&#xc5;" horiz-adv-x="664" d="M30 0L288 700H377L634 0H545L332 595V595L118 0H30ZM148 180L172 248H489L513 180H148ZM333 761Q290 761 259 788T228 864Q228 912 259 939T333 967Q377 967 407 940T438 864Q438 816 408 789T333 761ZM333 804Q357
804 373 820T390 864Q390 892 374 907T333 923Q310 923 293 908T276 864Q276 837 293 821T333 804Z" />
<glyph unicode="&#xc6;" horiz-adv-x="912" d="M30 0L429 700H854V633H565V386H824V320H565V67H854V0H481V631V631L122 0H30ZM166 159L201 226H520V159H166Z" />
<glyph unicode="&#xc7;" horiz-adv-x="717" d="M379 -12Q277 -12 203 33T88 160T48 350Q48 458 88 539T202 666T379 712Q499 712 574 655T670 494H577Q561 559 512 598T379 638Q305 638 250 604T164 505T134 350Q134 260 164 196T249 97T379 62Q463 62 512 100T577
203H670Q649 102 574 45T379 -12ZM292 -260V-207H384Q419 -207 435 -195T452 -159Q452 -137 436 -126T384 -114H335V6H391V-64Q429 -63 458 -73T503 -106T520 -160Q520 -191 505 -213T462 -248T399 -260H292Z" />
<glyph unicode="&#xc8;" horiz-adv-x="565" d="M75 0V700H508V631H159V387H478V319H159V69H508V0H75ZM389 743L185 859L197 931V931L398 804L389 743Z" />
<glyph unicode="&#xc9;" horiz-adv-x="565" d="M75 0V700H508V631H159V387H478V319H159V69H508V0H75ZM194 743L185 804L386 931V931L398 859L194 743Z" />
<glyph unicode="&#xca;" horiz-adv-x="565" d="M75 0V700H508V631H159V387H478V319H159V69H508V0H75ZM155 755V821L292 902L429 821V755L292 839L155 755Z" />
<glyph unicode="&#xcb;" horiz-adv-x="565" d="M75 0V700H508V631H159V387H478V319H159V69H508V0H75ZM213 775Q192 775 178 789T163 825Q163 845 177 860T213 875Q233 875 248 860T263 825Q263 804 248 790T213 775ZM373 775Q352 775 338 789T323 825Q323 845
337 860T373 875Q393 875 407 860T422 825Q422 804 408 790T373 775Z" />
<glyph unicode="&#xcc;" horiz-adv-x="234" d="M75 0V700H159V0H75ZM214 743L10 859L22 931V931L223 804L214 743Z" />
<glyph unicode="&#xcd;" horiz-adv-x="234" d="M75 0V700H159V0H75ZM19 743L10 804L211 931V931L223 859L19 743Z" />
<glyph unicode="&#xce;" horiz-adv-x="234" d="M75 0V700H159V0H75ZM236 755V821L373 902L510 821V755L373 839L236 755Z" />
<glyph unicode="&#xcf;" horiz-adv-x="234" d="M75 0V700H159V0H75ZM294 775Q273 775 259 789T244 825Q244 845 258 860T294 875Q314 875 329 860T344 825Q344 804 329 790T294 775ZM454 775Q433 775 419 789T404 825Q404 845 418 860T454 875Q474 875 488 860T503
825Q503 804 489 790T454 775Z" />
<glyph unicode="&#xd0;" horiz-adv-x="709" d="M8 311V387H381V311H8ZM96 0V700H302Q425 700 505 658T623 537T662 348Q662 240 624 162T505 42T302 0H96ZM180 70H300Q402 70 462 103T549 199T575 348Q575 436 549 499T463 596T300 630H180V70Z" />
<glyph unicode="&#xd1;" horiz-adv-x="691" d="M75 0V700H159L532 139V139V700H616V0H532L159 561V561V0H75ZM411 756Q384 756 366 768T333 791T296 803Q280 803 269 792T254 758H205Q212 808 237 833T300 859Q327 859 344 848T378 824T415 812Q432 812 443 823T458
857H507Q501 808 475 782T411 756Z" />
<glyph unicode="&#xd2;" horiz-adv-x="775" d="M387 -12Q286 -12 210 33T91 160T48 350Q48 457 90 538T209 666T387 712Q490 712 566 666T685 539T727 350Q727 242 685 161T567 34T387 -12ZM387 62Q463 62 520 96T609 195T641 350Q641 440 610 504T521 603T387
637Q312 637 255 603T166 505T134 350Q134 260 165 196T254 97T387 62ZM485 743L281 859L293 931V931L494 804L485 743Z" />
<glyph unicode="&#xd3;" horiz-adv-x="775" d="M387 -12Q286 -12 210 33T91 160T48 350Q48 457 90 538T209 666T387 712Q490 712 566 666T685 539T727 350Q727 242 685 161T567 34T387 -12ZM387 62Q463 62 520 96T609 195T641 350Q641 440 610 504T521 603T387
637Q312 637 255 603T166 505T134 350Q134 260 165 196T254 97T387 62ZM290 743L281 804L482 931V931L494 859L290 743Z" />
<glyph unicode="&#xd4;" horiz-adv-x="775" d="M387 -12Q286 -12 210 33T91 160T48 350Q48 457 90 538T209 666T387 712Q490 712 566 666T685 539T727 350Q727 242 685 161T567 34T387 -12ZM387 62Q463 62 520 96T609 195T641 350Q641 440 610 504T521 603T387
637Q312 637 255 603T166 505T134 350Q134 260 165 196T254 97T387 62ZM250 755V821L387 902L524 821V755L387 839L250 755Z" />
<glyph unicode="&#xd5;" horiz-adv-x="775" d="M387 -12Q286 -12 210 33T91 160T48 350Q48 457 90 538T209 666T387 712Q490 712 566 666T685 539T727 350Q727 242 685 161T567 34T387 -12ZM387 62Q463 62 520 96T609 195T641 350Q641 440 610 504T521 603T387
637Q312 637 255 603T166 505T134 350Q134 260 165 196T254 97T387 62ZM452 756Q425 756 407 768T374 791T337 803Q321 803 310 792T295 758H246Q253 808 278 833T341 859Q368 859 385 848T419 824T456 812Q473 812 484 823T499 857H548Q542 808 516 782T452 756Z"
/>
<glyph unicode="&#xd6;" horiz-adv-x="775" d="M387 -12Q286 -12 210 33T91 160T48 350Q48 457 90 538T209 666T387 712Q490 712 566 666T685 539T727 350Q727 242 685 161T567 34T387 -12ZM387 62Q463 62 520 96T609 195T641 350Q641 440 610 504T521 603T387
637Q312 637 255 603T166 505T134 350Q134 260 165 196T254 97T387 62ZM308 775Q287 775 273 789T258 825Q258 845 272 860T308 875Q328 875 343 860T358 825Q358 804 343 790T308 775ZM468 775Q447 775 433 789T418 825Q418 845 432 860T468 875Q488 875 502 860T517
825Q517 804 503 790T468 775Z" />
<glyph unicode="&#xd7;" horiz-adv-x="550" d="M140 106L90 156L224 291L96 420L147 470L275 341L409 476L459 426L325 291L454 163L403 113L274 241L140 106Z" />
<glyph unicode="&#xd8;" horiz-adv-x="776" d="M34 0L653 700H742L124 0H34ZM387 -12Q286 -12 210 33T91 160T48 350Q48 457 90 538T209 666T387 712Q490 712 566 666T685 539T727 350Q727 242 685 161T567 34T387 -12ZM387 62Q463 62 520 96T609 195T641 350Q641
440 610 504T521 603T387 637Q312 637 255 603T166 505T134 350Q134 260 165 196T254 97T387 62Z" />
<glyph unicode="&#xd9;" horiz-adv-x="656" d="M327 -12Q255 -12 197 17T103 105T68 258V700H152V257Q152 189 174 146T237 83T329 63Q382 63 421 83T482 146T504 257V700H588V258Q588 165 553 106T459 17T327 -12ZM424 743L220 859L232 931V931L433 804L424 743Z" />
<glyph unicode="&#xda;" horiz-adv-x="656" d="M327 -12Q255 -12 197 17T103 105T68 258V700H152V257Q152 189 174 146T237 83T329 63Q382 63 421 83T482 146T504 257V700H588V258Q588 165 553 106T459 17T327 -12ZM229 743L220 804L421 931V931L433 859L229 743Z" />
<glyph unicode="&#xdb;" horiz-adv-x="656" d="M327 -12Q255 -12 197 17T103 105T68 258V700H152V257Q152 189 174 146T237 83T329 63Q382 63 421 83T482 146T504 257V700H588V258Q588 165 553 106T459 17T327 -12ZM190 755V821L327 902L464 821V755L327 839L190 755Z" />
<glyph unicode="&#xdc;" horiz-adv-x="656" d="M327 -12Q255 -12 197 17T103 105T68 258V700H152V257Q152 189 174 146T237 83T329 63Q382 63 421 83T482 146T504 257V700H588V258Q588 165 553 106T459 17T327 -12ZM248 775Q227 775 213 789T198 825Q198 845 212
860T248 875Q268 875 283 860T298 825Q298 804 283 790T248 775ZM408 775Q387 775 373 789T358 825Q358 845 372 860T408 875Q428 875 442 860T457 825Q457 804 443 790T408 775Z" />
<glyph unicode="&#xdd;" horiz-adv-x="580" d="M248 0V266L20 700H115L303 321H278L465 700H559L332 266V0H248ZM193 743L184 804L385 931V931L397 859L193 743Z" />
<glyph unicode="&#xde;" horiz-adv-x="580" d="M75 0V700H159V554H305Q387 554 440 528T518 455T544 350Q544 293 519 247T441 174T305 147H159V0H75ZM159 217H303Q386 217 422 253T458 350Q458 414 422 449T303 484H159V217Z" />
<glyph unicode="&#xdf;" horiz-adv-x="660" d="M436 -10Q351 -10 297 37T235 169H318Q323 118 353 87T435 56Q483 56 509 79T536 144Q536 182 514 204T434 246Q356 273 322 301T288 375Q288 405 302 424T338 458T380 486T415 517T430 562Q430 608 395 634T298
661Q225 661 190 621T154 511V0H71V519Q71 581 97 629T174 704T300 732Q370 732 417 710T489 651T514 569Q514 534 500 511T465 472T423 444T387 419T373 386Q373 371 382 359T416 334T485 307Q558 282 589 245T621 150Q621 103 599 67T535 10T436 -10Z" />
<glyph unicode="&#xe0;" horiz-adv-x="544" d="M234 -12Q173 -12 132 9T71 66T51 144Q51 195 77 230T152 284T267 303H400Q400 350 386 381T344 429T275 445Q227 445 192 421T149 350H63Q69 404 99 440T177 496T275 516Q345 516 391 491T461 420T484 312V0H409L404
89V89Q394 68 379 50T343 18T295 -4T234 -12ZM247 59Q282 59 310 73T359 113T389 170T400 235V238H274Q225 238 195 227T152 195T139 148Q139 121 151 101T188 70T247 59ZM366 547L162 663L174 735V735L375 607L366 547Z" />
<glyph unicode="&#xe1;" horiz-adv-x="544" d="M234 -12Q173 -12 132 9T71 66T51 144Q51 195 77 230T152 284T267 303H400Q400 350 386 381T344 429T275 445Q227 445 192 421T149 350H63Q69 404 99 440T177 496T275 516Q345 516 391 491T461 420T484 312V0H409L404
89V89Q394 68 379 50T343 18T295 -4T234 -12ZM247 59Q282 59 310 73T359 113T389 170T400 235V238H274Q225 238 195 227T152 195T139 148Q139 121 151 101T188 70T247 59ZM171 547L162 607L363 735V735L375 663L171 547Z" />
<glyph unicode="&#xe2;" horiz-adv-x="544" d="M234 -12Q173 -12 132 9T71 66T51 144Q51 195 77 230T152 284T267 303H400Q400 350 386 381T344 429T275 445Q227 445 192 421T149 350H63Q69 404 99 440T177 496T275 516Q345 516 391 491T461 420T484 312V0H409L404
89V89Q394 68 379 50T343 18T295 -4T234 -12ZM247 59Q282 59 310 73T359 113T389 170T400 235V238H274Q225 238 195 227T152 195T139 148Q139 121 151 101T188 70T247 59ZM132 550V616L269 697L406 616V550L269 634L132 550Z" />
<glyph unicode="&#xe3;" horiz-adv-x="544" d="M234 -12Q173 -12 132 9T71 66T51 144Q51 195 77 230T152 284T267 303H400Q400 350 386 381T344 429T275 445Q227 445 192 421T149 350H63Q69 404 99 440T177 496T275 516Q345 516 391 491T461 420T484 312V0H409L404
89V89Q394 68 379 50T343 18T295 -4T234 -12ZM247 59Q282 59 310 73T359 113T389 170T400 235V238H274Q225 238 195 227T152 195T139 148Q139 121 151 101T188 70T247 59ZM324 570Q297 570 279 582T246 605T209 617Q193 617 182 606T167 572H118Q125 622 150 647T213
673Q240 673 257 662T291 638T328 626Q345 626 356 637T371 671H420Q414 622 388 596T324 570Z" />
<glyph unicode="&#xe4;" horiz-adv-x="544" d="M234 -12Q173 -12 132 9T71 66T51 144Q51 195 77 230T152 284T267 303H400Q400 350 386 381T344 429T275 445Q227 445 192 421T149 350H63Q69 404 99 440T177 496T275 516Q345 516 391 491T461 420T484 312V0H409L404
89V89Q394 68 379 50T343 18T295 -4T234 -12ZM247 59Q282 59 310 73T359 113T389 170T400 235V238H274Q225 238 195 227T152 195T139 148Q139 121 151 101T188 70T247 59ZM190 570Q169 570 155 584T140 620Q140 640 154 655T190 670Q210 670 225 655T240 620Q240
599 225 585T190 570ZM350 570Q329 570 315 584T300 620Q300 640 314 655T350 670Q370 670 384 655T399 620Q399 599 385 585T350 570Z" />
<glyph unicode="&#xe5;" horiz-adv-x="544" d="M234 -12Q173 -12 132 9T71 66T51 144Q51 195 77 230T152 284T267 303H400Q400 350 386 381T344 429T275 445Q227 445 192 421T149 350H63Q69 404 99 440T177 496T275 516Q345 516 391 491T461 420T484 312V0H409L404
89V89Q394 68 379 50T343 18T295 -4T234 -12ZM247 59Q282 59 310 73T359 113T389 170T400 235V238H274Q225 238 195 227T152 195T139 148Q139 121 151 101T188 70T247 59ZM269 570Q226 570 195 597T164 673Q164 721 195 748T269 776Q313 776 343 749T374 673Q374
625 344 598T269 570ZM269 613Q293 613 309 629T326 673Q326 701 310 716T269 732Q246 732 229 717T212 673Q212 646 229 630T269 613Z" />
<glyph unicode="&#xe6;" horiz-adv-x="914" d="M237 -12Q174 -12 133 9T72 66T51 144Q51 195 77 230T151 283T263 301H399Q399 349 385 381T344 429T277 445Q232 445 198 421T156 350H69Q75 404 105 440T181 496T277 516Q342 516 387 492T456 425Q488 469 536
492T642 516Q714 516 765 483T843 397T871 281Q871 271 871 260T870 235H484Q486 176 509 137T567 79T640 59Q696 59 730 85T780 158H862Q850 109 820 71T745 11T641 -12Q575 -12 522 19T437 106Q417 72 388 46T322 4T237 -12ZM244 59Q287 59 320 81T374 141T398
221V236H271Q224 236 195 225T152 195T139 148Q139 122 151 102T187 71T244 59ZM485 300H789Q785 369 744 407T642 445Q603 445 569 429T513 380T485 300Z" />
<glyph unicode="&#xe7;" horiz-adv-x="572" d="M297 -12Q226 -12 170 21T81 113T49 251Q49 331 81 390T169 482T297 516Q387 516 447 470T523 345H437Q427 392 388 418T296 444Q253 444 217 423T158 358T135 252Q135 205 148 169T183 108T234 72T296 59Q332 59
361 70T410 105T437 159H523Q507 83 447 36T297 -12ZM219 -260V-207H311Q346 -207 362 -195T379 -159Q379 -137 363 -126T311 -114H262V6H318V-64Q356 -63 385 -73T430 -106T447 -160Q447 -191 432 -213T389 -248T326 -260H219Z" />
<glyph unicode="&#xe8;" horiz-adv-x="568" d="M291 -12Q221 -12 166 21T80 113T49 252Q49 332 79 391T165 483T293 516Q367 516 419 483T498 397T526 279Q526 269 526 258T525 233H112V298H443Q440 367 398 406T291 445Q249 445 212 426T153 369T131 275V247Q131
185 153 143T212 80T291 59Q344 59 378 82T429 147H512Q499 101 469 66T395 9T291 -12ZM386 547L182 663L194 735V735L395 607L386 547Z" />
<glyph unicode="&#xe9;" horiz-adv-x="568" d="M291 -12Q221 -12 166 21T80 113T49 252Q49 332 79 391T165 483T293 516Q367 516 419 483T498 397T526 279Q526 269 526 258T525 233H112V298H443Q440 367 398 406T291 445Q249 445 212 426T153 369T131 275V247Q131
185 153 143T212 80T291 59Q344 59 378 82T429 147H512Q499 101 469 66T395 9T291 -12ZM191 547L182 607L383 735V735L395 663L191 547Z" />
<glyph unicode="&#xea;" horiz-adv-x="568" d="M291 -12Q221 -12 166 21T80 113T49 252Q49 332 79 391T165 483T293 516Q367 516 419 483T498 397T526 279Q526 269 526 258T525 233H112V298H443Q440 367 398 406T291 445Q249 445 212 426T153 369T131 275V247Q131
185 153 143T212 80T291 59Q344 59 378 82T429 147H512Q499 101 469 66T395 9T291 -12ZM152 550V616L289 697L426 616V550L289 634L152 550Z" />
<glyph unicode="&#xeb;" horiz-adv-x="568" d="M291 -12Q221 -12 166 21T80 113T49 252Q49 332 79 391T165 483T293 516Q367 516 419 483T498 397T526 279Q526 269 526 258T525 233H112V298H443Q440 367 398 406T291 445Q249 445 212 426T153 369T131 275V247Q131
185 153 143T212 80T291 59Q344 59 378 82T429 147H512Q499 101 469 66T395 9T291 -12ZM210 570Q189 570 175 584T160 620Q160 640 174 655T210 670Q230 670 245 655T260 620Q260 599 245 585T210 570ZM370 570Q349 570 335 584T320 620Q320 640 334 655T370 670Q390
670 404 655T419 620Q419 599 405 585T370 570Z" />
<glyph unicode="&#xec;" horiz-adv-x="223" d="M70 0V504H154V0H70ZM209 547L5 663L17 735V735L218 607L209 547Z" />
<glyph unicode="&#xed;" horiz-adv-x="223" d="M70 0V504H154V0H70ZM14 547L5 607L206 735V735L218 663L14 547Z" />
<glyph unicode="&#xee;" horiz-adv-x="223" d="M70 0V504H154V0H70ZM231 550V616L368 697L505 616V550L368 634L231 550Z" />
<glyph unicode="&#xef;" horiz-adv-x="223" d="M70 0V504H154V0H70ZM289 570Q268 570 254 584T239 620Q239 640 253 655T289 670Q309 670 324 655T339 620Q339 599 324 585T289 570ZM449 570Q428 570 414 584T399 620Q399 640 413 655T449 670Q469 670 483 655T498
620Q498 599 484 585T449 570Z" />
<glyph unicode="&#xf0;" horiz-adv-x="619" d="M308 -12Q232 -12 174 23T82 117T49 251Q49 328 82 386T173 478T304 512Q349 512 392 497T469 446Q455 479 437 512T395 577T342 639T275 700H359Q416 653 456 600T522 492T558 381T570 270Q570 186 536 123T442
24T308 -12ZM309 59Q356 59 396 82T460 148T484 252Q484 311 460 353T397 418T310 441Q262 441 223 418T159 353T135 252Q135 192 159 149T223 82T309 59ZM244 551V608L531 708V651L244 551Z" />
<glyph unicode="&#xf1;" horiz-adv-x="574" d="M70 0V504H146L150 416V416Q174 463 218 489T320 516Q379 516 422 493T489 422T513 301V0H429V292Q429 368 396 406T301 444Q259 444 226 424T174 365T154 269V0H70ZM358 570Q331 570 313 582T280 605T243 617Q227
617 216 606T201 572H152Q159 622 184 647T247 673Q274 673 291 662T325 638T362 626Q379 626 390 637T405 671H454Q448 622 422 596T358 570Z" />
<glyph unicode="&#xf2;" horiz-adv-x="593" d="M295 -12Q225 -12 169 20T81 112T49 251Q49 332 81 391T170 483T297 516Q369 516 424 484T512 392T545 252Q545 172 512 113T423 21T295 -12ZM296 60Q339 60 376 81T436 146T459 252Q459 316 437 358T378 422T297
444Q255 444 218 423T158 359T135 252Q135 189 157 146T216 82T296 60ZM395 547L191 663L203 735V735L404 607L395 547Z" />
<glyph unicode="&#xf3;" horiz-adv-x="593" d="M295 -12Q225 -12 169 20T81 112T49 251Q49 332 81 391T170 483T297 516Q369 516 424 484T512 392T545 252Q545 172 512 113T423 21T295 -12ZM296 60Q339 60 376 81T436 146T459 252Q459 316 437 358T378 422T297
444Q255 444 218 423T158 359T135 252Q135 189 157 146T216 82T296 60ZM200 547L191 607L392 735V735L404 663L200 547Z" />
<glyph unicode="&#xf4;" horiz-adv-x="593" d="M295 -12Q225 -12 169 20T81 112T49 251Q49 332 81 391T170 483T297 516Q369 516 424 484T512 392T545 252Q545 172 512 113T423 21T295 -12ZM296 60Q339 60 376 81T436 146T459 252Q459 316 437 358T378 422T297
444Q255 444 218 423T158 359T135 252Q135 189 157 146T216 82T296 60ZM161 550V616L298 697L435 616V550L298 634L161 550Z" />
<glyph unicode="&#xf5;" horiz-adv-x="593" d="M295 -12Q225 -12 169 20T81 112T49 251Q49 332 81 391T170 483T297 516Q369 516 424 484T512 392T545 252Q545 172 512 113T423 21T295 -12ZM296 60Q339 60 376 81T436 146T459 252Q459 316 437 358T378 422T297
444Q255 444 218 423T158 359T135 252Q135 189 157 146T216 82T296 60ZM353 570Q326 570 308 582T275 605T238 617Q222 617 211 606T196 572H147Q154 622 179 647T242 673Q269 673 286 662T320 638T357 626Q374 626 385 637T400 671H449Q443 622 417 596T353 570Z"
/>
<glyph unicode="&#xf6;" horiz-adv-x="593" d="M295 -12Q225 -12 169 20T81 112T49 251Q49 332 81 391T170 483T297 516Q369 516 424 484T512 392T545 252Q545 172 512 113T423 21T295 -12ZM296 60Q339 60 376 81T436 146T459 252Q459 316 437 358T378 422T297
444Q255 444 218 423T158 359T135 252Q135 189 157 146T216 82T296 60ZM219 570Q198 570 184 584T169 620Q169 640 183 655T219 670Q239 670 254 655T269 620Q269 599 254 585T219 570ZM379 570Q358 570 344 584T329 620Q329 640 343 655T379 670Q399 670 413 655T428
620Q428 599 414 585T379 570Z" />
<glyph unicode="&#xf7;" horiz-adv-x="550" d="M76 255V326H474V255H76ZM276 89Q251 89 235 105T218 146Q218 170 234 186T276 203Q301 203 317 187T333 146Q333 122 317 106T276 89ZM276 379Q251 379 235 395T218 436Q218 460 234 476T276 493Q301 493 317 477T333
436Q333 412 317 396T276 379Z" />
<glyph unicode="&#xf8;" horiz-adv-x="597" d="M40 0L477 504H556L120 0H40ZM297 -12Q227 -12 171 20T83 112T50 251Q50 332 83 391T172 483T299 516Q370 516 426 484T514 392T546 252Q546 172 514 113T425 21T297 -12ZM297 60Q341 60 378 81T437 146T460 252Q460
316 438 358T379 422T299 444Q257 444 220 423T159 359T136 252Q136 189 159 146T218 82T297 60Z" />
<glyph unicode="&#xf9;" horiz-adv-x="573" d="M253 -12Q195 -12 152 11T85 82T61 202V504H145V211Q145 136 178 98T271 60Q313 60 347 80T400 139T420 235V504H504V0H428L423 88V88Q400 41 355 15T253 -12ZM377 547L173 663L185 735V735L386 607L377 547Z" />
<glyph unicode="&#xfa;" horiz-adv-x="573" d="M253 -12Q195 -12 152 11T85 82T61 202V504H145V211Q145 136 178 98T271 60Q313 60 347 80T400 139T420 235V504H504V0H428L423 88V88Q400 41 355 15T253 -12ZM182 547L173 607L374 735V735L386 663L182 547Z" />
<glyph unicode="&#xfb;" horiz-adv-x="573" d="M253 -12Q195 -12 152 11T85 82T61 202V504H145V211Q145 136 178 98T271 60Q313 60 347 80T400 139T420 235V504H504V0H428L423 88V88Q400 41 355 15T253 -12ZM143 550V616L280 697L417 616V550L280 634L143 550Z" />
<glyph unicode="&#xfc;" horiz-adv-x="573" d="M253 -12Q195 -12 152 11T85 82T61 202V504H145V211Q145 136 178 98T271 60Q313 60 347 80T400 139T420 235V504H504V0H428L423 88V88Q400 41 355 15T253 -12ZM201 570Q180 570 166 584T151 620Q151 640 165 655T201
670Q221 670 236 655T251 620Q251 599 236 585T201 570ZM361 570Q340 570 326 584T311 620Q311 640 325 655T361 670Q381 670 395 655T410 620Q410 599 396 585T361 570Z" />
<glyph unicode="&#xfd;" horiz-adv-x="556" d="M125 -220L248 56H219L21 504H112L276 119V119L449 504H536L213 -220H125ZM181 547L172 607L373 735V735L385 663L181 547Z" />
<glyph unicode="&#xfe;" horiz-adv-x="627" d="M70 -220V720H153V422Q169 446 194 467T254 502T335 516Q408 516 462 482T547 387T578 251Q578 175 548 116T462 22T334 -12Q273 -12 226 13T154 83V-220H70ZM324 61Q374 61 412 85T471 151T493 252Q493 309 472
352T412 419T324 443Q274 443 236 419T177 352T156 252Q156 194 177 152T236 85T324 61Z" />
<glyph unicode="&#xff;" horiz-adv-x="556" d="M125 -220L248 56H219L21 504H112L276 119V119L449 504H536L213 -220H125ZM199 570Q178 570 164 584T149 620Q149 640 163 655T199 670Q219 670 234 655T249 620Q249 599 234 585T199 570ZM359 570Q338 570 324 584T309
620Q309 640 323 655T359 670Q379 670 393 655T408 620Q408 599 394 585T359 570Z" />
<glyph unicode="&#x2013;" horiz-adv-x="669" d="M73 260V331H597V260H73Z" />
<glyph unicode="&#x2014;" horiz-adv-x="873" d="M73 260V331H801V260H73Z" />
<glyph unicode="&#x2018;" horiz-adv-x="210" d="M30 470L120 700H180L124 470H30Z" />
<glyph unicode="&#x2019;" horiz-adv-x="210" d="M180 700L90 470H30L86 700H180Z" />
<glyph unicode="&#x201a;" horiz-adv-x="188" d="M4 -121L61 106H155L64 -121H4Z" />
<glyph unicode="&#x201c;" horiz-adv-x="367" d="M186 470L277 700H337L280 470H186ZM30 470L120 700H180L124 470H30Z" />
<glyph unicode="&#x201d;" horiz-adv-x="367" d="M181 700L90 470H30L87 700H181ZM337 700L247 470H187L243 700H337Z" />
<glyph unicode="&#x201e;" horiz-adv-x="348" d="M4 -121L61 106H155L64 -121H4ZM165 -121L221 106H315L225 -121H165Z" />
<glyph unicode="&#x2022;" horiz-adv-x="360" d="M179 213Q147 213 120 229T76 272T60 333Q60 367 76 394T119 438T179 454Q213 454 240 438T284 395T300 333Q300 300 284 273T241 229T179 213Z" />
<glyph unicode="&#x2039;" horiz-adv-x="276" d="M142 120L45 295L142 470H225L125 295L225 120H142Z" />
<glyph unicode="&#x203a;" horiz-adv-x="276" d="M134 120H51L151 295L51 470H134L231 295L134 120Z" />
</font>
</defs>
</svg>
