<?xml version="1.0" standalone="no"?>
<!DOCTYPE svg PUBLIC "-//W3C//DTD SVG 1.1//EN" "http://www.w3.org/Graphics/SVG/1.1/DTD/svg11.dtd">
<svg xmlns="http://www.w3.org/2000/svg">
<defs >
<font id="KirangHaerang" horiz-adv-x="689" ><font-face
    font-family="Kirang Haerang"
    units-per-em="1000"
    panose-1="0 0 0 0 0 0 0 0 0 0"
    ascent="750"
    descent="-250"
    alphabetic="0" />
<glyph unicode="!" glyph-name="exclam" horiz-adv-x="162" d="M128 582Q130 581 130 578Q132 573 132 570T131 562Q129 551 129 538T128 510Q125 487 125 464T122 414Q122 404 120 393T118 370Q118 365 117 358T118 344V303Q116 289 116 276T115 249V182Q115
170 115 160T111 139V64Q103 61 96 59T81 57Q76 59 72 58T62 55Q58 54 53 53T47 53V57Q47 71 45 87T42 117Q42 122 41 127T40 139Q40 159 41 178T40 219Q40 222 39 227T37 237V338Q35 349 35 359T34 380V432Q34 446 36 468T34 507Q34 515 35 525T37 547Q37 556
36 567T37 580Q37 582 40 582T46 581Q54 579 57 579T69 581Q75 582 85 581T98 580Q106 580 114 580T124 581L128 582ZM115 -1Q115 -9 114 -19T113 -34Q113 -39 113 -43T111 -53L99 -57Q91 -59 89 -60T78 -61Q74 -61 70 -61T64 -60Q59 -60 57 -60T51 -59Q44 -59
42 -59T37 -58Q35 -55 35 -52T34 -46Q34 -43 34 -38T35 -30Q35 -22 35 -18T34 -5Q34 0 34 4T30 13Q29 13 30 14Q30 16 34 16Q43 17 52 17T70 16Q78 16 86 15T104 13H111Q114 11 114 6T115 -1Z" />
<glyph unicode="&quot;" glyph-name="quotedbl" horiz-adv-x="399" d="M79 561Q77 571 74 588T69 622T64 655T62 677Q62 678 61 681Q60 683 59 686T57 692Q52 697 52 703Q50 706 53 708T59 711Q67 711 71 711T83 712Q97 712 112 712T141 711Q149 711 161 712T174
711Q178 706 176 692T172 673Q170 648 167 622T159 580Q157 572 155 562T150 546Q150 542 146 542Q141 542 139 542T131 541H111Q104 541 95 540T85 541Q81 548 82 550T79 561ZM229 561Q227 571 224 588T219 622T214 655T212 677Q212 678 211 681Q210 683 209 686T207
692Q202 697 202 703Q200 706 203 708T209 711Q217 711 221 711T233 712Q247 712 262 712T291 711Q299 711 311 712T324 711Q328 706 326 692T322 673Q320 648 317 622T309 580Q307 572 305 562T300 546Q300 542 296 542Q291 542 289 542T281 541H261Q254 541 245
540T235 541Q231 548 232 550T229 561Z" />
<glyph unicode="#" glyph-name="numbersign" horiz-adv-x="630" d="M596 438Q597 436 597 434T596 428L599 394Q599 392 600 391T599 387Q597 386 593 386H590Q585 386 578 386T565 385Q557 383 547 384T527 385Q522 385 520 385T516 386T512 387T504 386Q501
375 495 364T486 341Q486 331 479 316T468 289Q465 275 460 260T450 232Q453 231 455 230T461 228Q472 226 481 226T502 226H531L535 222V213Q535 205 532 196T531 179Q531 175 531 171T527 166Q512 167 495 166T461 165H445Q439 165 437 165T429 164Q426 163 423
163T414 164Q410 155 410 147T405 129Q391 94 376 60T345 -8Q343 -10 343 -12T339 -14Q335 -14 329 -13T319 -9Q314 -6 310 -5T300 -2Q295 0 291 2T281 4Q277 4 277 6Q276 7 277 8L280 13Q282 20 283 26T288 42Q293 56 300 70T310 98Q315 110 319 127T329 158Q327
158 325 158T317 160T303 161T277 162Q272 162 266 161T254 159Q247 159 244 159T239 158T234 158T225 157Q223 157 218 157T207 158Q200 158 192 159Q189 153 185 137T176 112Q173 107 172 103T168 94Q163 87 161 80T157 67Q154 62 153 57T149 46Q146 41 144 34T139
22Q133 10 131 1T122 -11Q120 -12 110 -9T97 -3Q92 -3 87 -1T75 4Q72 7 69 8T63 15Q63 17 66 21T71 31Q76 42 79 51T86 75Q86 76 87 82T91 97T97 115T104 132Q108 140 111 150T116 169Q114 169 111 170Q109 170 106 170T101 171Q93 171 84 171T67 171Q59 172 55
172T45 172Q43 172 40 172T34 177Q34 179 34 182T34 190Q37 199 31 210V217Q31 219 31 221T30 226Q34 228 40 228T49 229Q55 229 68 229T90 229Q104 227 115 230T141 233Q141 241 144 249T149 267L160 307Q162 315 165 318T173 334Q176 342 179 352T187 372Q187
374 189 377T191 386H180Q171 386 161 386T142 382H105Q103 384 104 395T106 413V427Q106 430 105 435T106 443Q117 445 131 447T157 449Q171 453 184 454T209 458Q215 469 222 480T232 507Q240 526 248 545T262 584Q268 599 273 613T284 642Q289 644 292 642Q304
634 318 629T343 621Q348 618 354 616T360 609Q360 605 358 601T354 592Q351 584 350 576T344 559Q341 551 339 542T333 525Q328 511 323 496T308 467L305 458Q305 458 307 458T323 458T364 458T441 458H445Q457 475 465 491T482 525L513 606Q515 611 516 615T520
625Q525 628 531 627T544 622Q551 619 555 617T561 613Q566 610 575 608T589 603Q591 602 591 600T591 596Q589 592 588 590T585 583Q580 571 575 555T562 525Q557 517 555 509T547 490Q545 485 541 478T533 462Q533 459 531 456T525 449Q532 447 543 445T565 440Q566
439 570 439Q574 438 596 438ZM419 382H409Q391 385 375 385T340 386H299Q294 386 293 386T288 386Q286 384 284 379T281 372Q275 358 272 354T266 345Q263 337 260 331T254 319Q251 312 250 309T247 300Q241 286 236 272T229 244Q228 243 228 242Q227 241 227
237H232Q237 237 244 235T258 233H277Q294 230 310 230T344 229Q346 229 349 231T355 233Q359 244 363 252T371 271L392 310Q398 328 406 344T419 379V382Z" />
<glyph unicode="$" glyph-name="dollar" horiz-adv-x="533" d="M499 177Q507 164 505 145T499 111Q499 102 492 90Q486 69 470 54Q459 41 449 31T420 13Q409 8 398 3T372 -5Q370 -5 362 -5T349 -6Q344 -6 343 -6T336 -9Q334 -13 335 -21T336 -33Q334 -38 332 -39T324
-41Q319 -41 310 -42T296 -45Q288 -47 278 -47T260 -46Q254 -46 245 -46T233 -44Q231 -36 232 -28T231 -12Q228 -10 224 -11T216 -12Q203 -12 191 -12T165 -12Q145 -14 125 -10T84 2Q71 9 56 12Q51 17 48 26T42 43Q37 54 33 61T31 71Q36 71 40 71T49 68Q52 67 60
65T78 60T96 56T110 54Q121 53 128 52T147 49Q156 48 167 49T187 52Q193 52 201 54Q212 56 217 56T234 57Q237 68 237 78T238 100Q236 113 238 124Q240 135 239 145T238 166V191Q235 205 235 217T234 243Q220 243 206 246T176 250Q150 256 129 272Q121 274 113
279T96 290Q91 292 85 298T74 308Q68 312 64 321T56 337Q53 343 53 346T52 352Q52 357 52 362T49 373Q49 390 50 406T56 436Q59 455 68 470T92 500Q97 506 102 509T115 515Q118 517 124 520T138 527T153 534T165 537Q179 540 192 543T220 543L232 545Q234 557 233
566T231 588Q231 590 231 592T232 598Q238 598 242 598T252 595Q266 595 281 596T310 595H336Q339 595 340 593T343 591Q346 580 345 570T347 548L351 545H376Q384 545 392 544T408 543Q414 543 426 543T442 540V537Q441 535 441 530T440 518T440 507T442 500Q439
497 436 497T431 497Q423 497 416 497T401 493Q393 493 385 493T369 493Q363 494 356 494T343 493Q342 493 342 486T341 468T340 450T340 439Q340 433 338 426T336 413Q336 394 336 378T333 345V279Q346 279 358 276T387 272Q398 272 408 267T431 257Q439 257 446
253T460 243Q478 232 486 216T499 177ZM238 286Q239 291 238 295T238 304Q238 315 237 324T235 345Q235 350 236 359T238 399Q238 410 237 419T238 439V468Q238 473 238 477T234 486Q229 486 224 484T216 479Q205 474 196 468T179 454Q177 451 173 446T165 436Q154
411 154 384Q154 379 156 374T158 363Q158 345 169 330Q190 292 238 286ZM387 166Q387 169 387 172T383 181Q380 189 373 198T358 213Q354 217 349 220T336 224V217Q336 209 336 198T334 179Q334 168 334 158T333 137Q333 123 332 110T333 83Q333 81 334 79Q334
77 334 76T335 73Q340 76 346 79T354 86Q357 89 361 92T369 100Q371 106 375 112T383 127Q387 144 387 166Z" />
<glyph unicode="%" glyph-name="percent" horiz-adv-x="572" d="M431 453Q425 442 420 432T413 410L402 378Q397 370 394 361T388 343Q386 340 385 336T381 326Q381 318 373 310Q368 300 365 290T356 268Q350 255 346 244T335 222Q329 215 326 207T318 191Q315
183 310 175T302 159Q302 149 298 141T289 123Q287 117 286 115T281 109Q274 96 268 83T256 56Q253 53 253 51V49Q248 35 243 23T231 -1Q224 -14 220 -27T207 -57Q207 -58 206 -59Q204 -61 203 -61Q199 -63 192 -61Q184 -61 178 -61T164 -59Q158 -59 150 -59T135
-59T124 -59T119 -57Q124 -52 125 -49T130 -43Q132 -30 135 -19T143 3Q147 14 151 21T158 39Q160 44 165 53T172 70Q173 78 176 88Q181 100 186 111T197 134Q202 142 203 150T210 166L222 188Q229 203 233 220T251 251Q253 259 255 266T260 280Q265 290 269 303T281
329Q289 342 293 354T302 378Q303 381 306 389T313 406T320 422T323 431Q327 442 331 450T342 468Q342 471 343 473T345 477Q347 485 350 493T360 509Q365 517 368 525T373 541L385 562Q393 560 399 561T413 560Q418 560 426 560T441 561Q443 561 445 562T451 563Q459
563 462 563T476 562Q477 562 479 562T481 560Q480 557 474 546T465 524Q460 516 457 510T452 495Q440 474 431 453ZM168 389Q163 370 153 357T123 340Q118 337 113 338T99 338Q84 342 77 345T62 357Q57 365 52 371T41 385L31 412Q31 417 31 424T32 437Q32 445
32 452T31 467Q31 472 31 479T30 491Q30 504 34 509Q34 512 35 514T37 520Q40 528 45 535T59 548Q81 559 101 559H115Q122 559 130 555Q132 554 135 554T140 551Q148 546 153 542T161 530L172 488Q172 480 174 474T176 459Q178 443 178 428T171 396Q171 393 169
391Q168 390 168 389ZM533 -4Q533 -9 529 -18T519 -33Q514 -40 504 -45T487 -53Q482 -53 476 -53T462 -52Q460 -52 457 -51T452 -50Q448 -48 442 -41T431 -28Q426 -23 422 -16T416 -4Q414 4 410 13T406 31Q406 55 406 79T415 124Q415 126 417 130L419 134Q430 145
438 152T462 159H469Q479 159 483 159T490 158T496 156T505 155Q516 150 522 141T533 123Q536 115 538 109T540 95Q540 84 541 76T540 56V39Q540 33 540 26T537 14Q537 9 537 5T533 -4ZM119 428Q121 436 121 450T119 473Q116 483 105 482Q103 481 100 480T96 476Q93
468 93 463T91 449Q91 438 94 430T105 421Q113 423 114 424T119 428ZM493 46Q494 50 494 54T494 63Q494 67 494 69T494 74Q492 79 490 80T487 84H480Q478 84 475 83T469 77Q465 57 469 42Q472 37 474 36T480 35Q487 34 489 39T493 46Z" />
<glyph unicode="&amp;" glyph-name="ampersand" horiz-adv-x="565" d="M328 -23Q322 -26 316 -28T303 -33Q297 -35 278 -37T240 -37H215Q207 -37 199 -38T183 -37Q158 -32 141 -22T117 -9Q106 -6 96 5T82 23Q71 31 63 42T47 65Q42 77 37 86T32 107V135Q30 141
31 146T32 157Q37 173 43 188T56 216Q62 227 68 238T85 258Q87 262 88 264T92 269Q103 281 115 292T141 311Q137 314 136 317T130 322Q120 330 112 339T95 357Q87 368 81 379T74 403Q72 408 71 413T67 421Q65 426 65 429T64 439V474Q64 482 68 490T74 505Q74 516
80 524T92 540Q100 552 110 559T130 575L162 586Q173 588 183 590T205 593Q229 589 241 589T261 583Q272 577 280 570T296 551Q304 546 309 538T320 522Q323 520 324 517T328 509Q333 501 334 491T335 469Q335 456 329 439T320 410Q315 402 310 394T300 378Q287
361 271 343T236 315L243 304Q251 296 259 288T275 272Q283 261 291 255T306 237Q323 226 336 211T363 181Q376 171 382 162T402 132Q407 134 411 136T420 139Q434 145 444 150T465 167Q467 169 467 170T472 172Q477 172 480 169T487 160Q492 156 495 152T504 143Q504
141 505 140Q507 136 507 135Q505 131 499 124T487 111Q481 106 475 98T464 85L472 72Q483 59 495 49T517 25L525 19L535 8Q534 4 532 2Q519 -15 514 -33Q509 -33 507 -31T500 -27L416 37Q410 28 402 23T388 12Q383 9 378 5T367 -1Q361 -9 356 -9Q351 -11 343 -16T328
-23ZM218 55Q220 55 229 54T248 51T267 48T279 47Q294 52 310 52T338 61Q344 64 349 67T359 72Q365 75 370 79T381 87Q378 89 377 91T373 96Q360 104 347 118T320 143Q315 148 310 151T300 160Q284 174 269 187T240 216L191 266Q188 268 184 271T174 278Q169 269
160 258T148 241Q138 214 138 195Q136 184 137 176T138 157Q143 140 149 125T165 96Q173 81 188 72T218 55ZM162 462Q154 457 149 448T144 431Q144 423 145 416T152 403Q157 398 160 394T167 384Q167 381 170 377T179 367T189 359T196 354Q201 356 208 367T218
389Q222 394 224 400T227 411Q229 419 228 430T223 445Q217 450 212 455T201 462Q198 465 195 465T187 466Q182 466 176 466T162 462Z" />
<glyph unicode="&apos;" glyph-name="quotesingle" horiz-adv-x="233" d="M93 554Q91 564 88 581T83 615T78 648T76 670Q76 671 75 674Q74 676 73 679T71 685Q66 690 66 696Q64 699 67 701T73 704Q81 704 85 704T97 705Q111 705 126 705T155 704Q163 704 175 705T188
704Q192 699 190 685T186 666Q184 641 181 615T173 573Q171 565 169 555T164 539Q164 535 160 535Q155 535 153 535T145 534H125Q118 534 109 533T99 534Q95 541 96 543T93 554Z" />
<glyph unicode="(" glyph-name="parenleft" horiz-adv-x="273" d="M205 -42Q210 -54 215 -60T225 -77Q226 -79 231 -84T234 -92Q232 -97 226 -102T216 -110Q214 -113 208 -118T198 -125Q193 -122 188 -119T178 -110Q165 -96 158 -84T141 -57Q136 -50 130 -39T119
-17Q114 -5 107 6T93 28Q90 37 85 44T77 59Q75 64 72 72T64 88T57 104T52 115Q51 119 50 122T49 134Q49 138 48 140T46 146T43 152T40 163Q39 170 38 176T36 190Q36 200 34 212T32 235V273Q32 284 31 295T32 322Q37 338 37 355T44 395L52 419Q55 430 57 440T63
460Q68 468 71 477T81 493Q90 507 98 518T115 541Q125 563 142 579Q157 589 168 604T198 631Q200 633 201 634T205 635Q212 631 216 628T223 622T231 612T243 594Q240 591 237 586T228 575Q219 567 213 555T202 534Q194 526 186 507T171 471Q166 456 161 440T153
406Q150 398 149 390T146 374Q146 358 144 339T138 302V270V205Q138 194 140 183T142 160Q142 146 145 133T149 104Q154 84 161 64T175 21Q180 4 191 -13Q193 -21 198 -27T205 -42Z" />
<glyph unicode=")" glyph-name="parenright" horiz-adv-x="302" d="M271 332Q272 318 272 305T271 276Q271 260 270 239T261 202Q257 191 255 180T247 152Q245 145 242 141T236 131Q236 125 235 122T233 116Q221 99 212 81T191 44L184 37Q182 32 179 28T172 18Q164
7 156 -5T139 -31Q139 -33 136 -37T129 -47T120 -56T112 -64Q107 -69 102 -77T91 -94Q88 -99 84 -102T73 -111Q72 -113 71 -114Q69 -116 67 -116Q65 -116 63 -112Q61 -109 59 -107T53 -102L34 -85Q30 -81 30 -79L34 -76Q40 -72 44 -65T53 -53Q58 -42 65 -31T78
-8L83 -4Q89 1 94 11T105 30Q105 35 108 39T112 48Q115 53 117 57T123 68Q130 82 135 97T143 127Q148 141 151 155T157 183V186Q157 198 159 207T164 224Q164 229 165 234T166 254Q168 268 169 280T169 311L157 397Q155 414 150 430T143 464Q141 475 138 484T132
501Q127 509 124 519T116 536Q108 555 99 570T75 602Q72 606 68 609T60 621Q60 623 64 626T72 631Q77 634 78 634T84 640L105 658Q110 658 113 656T119 651Q122 646 128 641T139 629Q143 624 149 615T160 600Q171 587 179 572T195 543Q203 531 209 518T222 494Q230
479 235 464T244 434Q246 423 250 412T258 390Q261 383 263 377T266 363Q266 358 268 351T271 332Z" />
<glyph unicode="*" glyph-name="asterisk" horiz-adv-x="348" d="M105 523Q109 520 111 520T118 517L134 507Q137 505 141 504T149 501Q149 511 150 518T149 533Q147 539 148 546T149 560Q149 565 148 570T146 580Q146 585 146 590T144 601Q144 606 144 613T142
625Q141 630 140 633T138 639Q140 641 144 641T154 641Q157 640 169 639T184 637Q192 637 197 637T211 638V625Q211 614 211 606T212 588V583Q212 578 212 567T213 534Q213 531 212 525T211 517H215Q220 519 225 521T235 527L255 537L273 548Q278 550 280 552T287
556Q296 551 305 537Q310 528 314 522T318 508Q316 506 314 506T310 504Q305 499 302 495T295 486Q292 483 288 480T280 474Q277 471 273 468T264 461L252 451Q255 448 257 446T262 441Q278 427 290 410T313 376Q315 374 315 373T313 368Q311 363 302 354T285 339Q283
337 282 339T280 343L276 348Q273 350 270 353T262 358Q254 363 247 369T233 379Q227 382 224 385T215 392Q208 396 200 404T184 414Q182 414 180 410T175 404Q172 401 166 397Q163 395 161 393L144 376Q133 365 123 356T101 335Q98 332 95 329T87 325Q76 333 68
342T50 358Q48 361 50 368L69 387Q80 399 89 411T111 435Q113 438 117 442T120 446Q105 455 88 464T55 482L42 491L30 497Q34 505 39 511T49 525L60 544Q62 547 63 549T67 548Q72 546 80 541T94 531Q96 530 98 528Q101 525 105 523Z" />
<glyph unicode="+" glyph-name="plus" horiz-adv-x="340" d="M309 328Q309 326 309 326T308 323Q308 321 308 320T309 318Q309 304 309 288T308 272Q303 269 299 269T289 269Q286 268 282 268T270 269Q264 269 257 268T241 267Q233 267 227 267T215 265Q214 263
214 256V218Q214 209 214 200T213 180Q213 176 214 168T210 154Q206 153 197 153Q192 153 188 152T178 151Q176 151 171 151T164 152Q159 152 156 152T147 154L145 156Q143 158 143 160Q143 161 143 169T144 178Q144 180 144 188T144 208T144 232T142 256V262H134Q127
262 122 262T112 262Q107 261 102 261T88 262H52Q48 262 43 261T34 264Q32 267 32 271T32 278Q32 282 32 288T31 317Q31 319 30 321T31 326Q34 329 42 327Q44 326 47 326T54 327Q62 327 68 328T83 328Q96 327 108 329T133 331Q135 331 136 331T140 332Q140 334
140 337T139 343V351Q139 358 139 365T141 381V405Q141 407 142 411T143 417V438Q143 440 143 443T142 449Q142 451 142 456T145 462Q151 465 157 464T170 462Q180 460 190 460T213 459Q217 457 217 454T216 448V391Q216 383 216 376T217 360V339Q220 336 227 336Q239
336 251 335T281 334Q285 334 290 333T297 331Q299 330 300 330T304 330Q308 330 309 328Z" />
<glyph unicode="," glyph-name="comma" horiz-adv-x="207" d="M43 -20Q44 -19 47 -19Q54 -18 61 -17T76 -16Q86 -16 95 -16T115 -16Q128 -15 143 -16Q147 -16 151 -18L153 -22Q154 -40 154 -58T154 -93Q154 -112 142 -125Q134 -135 126 -144T106 -161L65 -186Q64
-187 60 -187Q58 -186 55 -180T48 -169Q41 -160 41 -158Q41 -156 47 -152T57 -142Q60 -138 64 -135T70 -127Q73 -122 77 -118T83 -108Q84 -106 84 -105T83 -102Q81 -101 78 -101T73 -102Q66 -102 61 -102T50 -103Q45 -103 44 -101Q43 -98 43 -94T44 -82Q44 -80
43 -76T43 -66Q44 -58 44 -45T42 -22Q42 -22 43 -20Z" />
<glyph unicode="-" glyph-name="hyphen" horiz-adv-x="351" d="M320 284Q321 279 320 276T320 266Q320 264 320 263T318 260Q316 259 315 259T312 260Q301 259 291 260Q286 261 282 261T272 260H223Q217 260 211 260T199 261Q192 261 186 261T173 260H116Q114
260 110 260T100 261H88Q86 261 84 261T76 262Q68 262 61 262T44 261Q42 261 38 261T31 262Q30 266 30 270T31 278Q31 284 31 289T30 301Q30 309 30 316T31 332Q39 334 47 334T62 335H85Q90 335 92 335T100 333Q110 331 119 332T139 333Q153 335 167 334T193 332H230Q245
332 258 332T284 331Q292 331 297 331T308 331Q315 331 319 329Q320 324 320 322T319 317Q322 300 320 284Z" />
<glyph unicode="." glyph-name="period" horiz-adv-x="207" d="M51 -20Q52 -18 66 -15T91 -14Q104 -16 117 -15T143 -22Q147 -24 146 -27T144 -34Q143 -48 143 -62T143 -90Q142 -101 145 -114T146 -132Q145 -134 143 -134T139 -133Q122 -131 106 -132T74 -136Q67
-137 57 -134Q54 -133 54 -127T53 -115Q53 -93 52 -72T50 -29Q50 -23 51 -20Z" />
<glyph unicode="/" glyph-name="slash" horiz-adv-x="478" d="M418 676Q423 676 434 676T447 672Q449 670 446 667T440 659L432 645Q426 635 422 624T413 605Q411 602 409 596T404 581T398 565T390 552Q382 541 379 526T369 498L344 447Q341 438 337 427T327 405Q324
393 319 383T310 359Q307 353 304 345T298 330Q291 311 284 290T264 242Q259 231 255 225T247 208Q238 192 231 177T218 145Q210 124 200 107T180 69Q175 61 171 49T163 27Q157 10 150 -8T134 -44Q134 -51 133 -51Q131 -53 127 -53T121 -52Q109 -54 98 -54T71 -52Q68
-51 63 -51T54 -52Q51 -52 46 -53T31 -53Q29 -49 32 -47T38 -40Q40 -33 43 -25T50 -10Q56 6 62 17T75 44Q85 64 93 86T109 128Q118 147 126 165T142 204Q155 245 167 272T197 334Q204 348 209 362T222 393Q230 408 235 423T247 452Q250 458 254 466T264 481Q264
490 269 499T277 515Q283 527 286 539T298 565Q300 571 303 580T309 598T315 613T319 620Q324 628 328 641T338 666Q340 670 340 672T346 681Q348 684 360 683T381 680Q387 678 387 678T394 678Q404 678 407 678T418 676Z" />
<glyph unicode="0" glyph-name="zero" horiz-adv-x="578" d="M46 396Q50 410 51 421T60 443Q65 454 74 465T92 485Q103 498 110 508T132 530Q142 538 150 544T169 554Q180 557 190 563T211 573Q225 576 242 580T277 585Q291 582 305 583T334 581Q357 581 380 569Q386
566 392 565T403 562Q406 559 411 558T419 554Q424 548 432 543T446 535Q451 529 456 525T465 515Q470 507 476 500T488 485Q490 485 494 478T502 461T509 443T515 431Q515 420 520 408T526 385L538 327Q541 301 542 276T538 224Q538 207 536 193T526 166Q526 155
522 142T515 120Q506 106 499 92T484 62Q484 59 482 57T480 51Q474 39 468 30T453 12L422 -18Q414 -24 405 -31T384 -41Q370 -47 358 -50T330 -57Q325 -60 317 -60T300 -61H277Q265 -61 254 -61T234 -57Q223 -57 216 -54T200 -45Q184 -36 166 -28T134 -7Q128 0
124 7T111 18Q108 19 106 24L104 28Q101 33 98 37T92 47Q81 61 74 74T58 101Q55 115 53 122T50 135Q47 149 43 162T38 189Q35 192 35 194V197V323Q35 332 35 340T38 354L46 396ZM253 42Q257 36 268 36Q279 33 291 33T315 39Q321 42 326 45T334 55Q352 72 362 92T380
135Q390 161 395 185T403 235Q405 259 406 274T407 312Q404 320 404 327T402 343Q402 351 399 358T395 373L384 416Q378 430 375 444T350 473Q333 482 316 486T280 485Q267 483 254 479T230 466Q222 459 218 451T207 435Q205 432 202 427T196 416Q191 393 185 375T177
335Q174 324 174 312T173 289Q173 275 173 260T177 231Q177 220 177 209T181 189Q185 155 192 124Q198 110 204 96T219 74Q227 65 234 57T253 42Z" />
<glyph unicode="1" glyph-name="one" horiz-adv-x="254" d="M200 -50Q192 -52 188 -52T173 -53H167Q165 -53 163 -53T158 -52Q155 -52 150 -52T139 -48Q136 -42 136 -37T135 -25Q135 -11 133 1T131 25V140Q128 154 128 168T129 194Q128 223 126 246T125 289Q124
297 124 301T125 313Q126 325 125 338T123 363V471Q117 471 115 467T109 463Q96 450 89 447Q84 445 80 441T70 434Q67 434 66 435T62 440Q57 446 54 452T44 466Q42 468 38 473T34 480Q38 485 41 488T50 494Q74 516 96 540Q102 548 108 555T119 570L131 582Q134
582 137 582T146 582Q161 580 176 581T208 582H215Q220 581 220 576T219 563Q219 554 219 546T217 527Q217 519 216 511T215 497V421Q211 402 212 382T211 348Q211 342 211 336T210 325Q210 316 210 309T211 294Q211 284 210 278T208 263V129Q205 115 206 102T204
75Q204 69 205 64T206 52Q205 43 205 37T205 25Q205 19 204 16T203 6Q204 -5 203 -15T202 -36Q202 -42 200 -50Z" />
<glyph unicode="2" glyph-name="two" horiz-adv-x="515" d="M58 -50Q53 -48 52 -43T51 -35Q48 -23 46 -14T38 5Q36 9 36 11T35 17Q44 23 52 29T66 44Q72 50 78 56T93 67L104 79Q104 80 109 85T121 98T134 110T143 117Q151 126 162 134T181 152Q193 163 204 175Q207
178 209 179T212 182Q218 185 221 190T227 198Q244 212 257 225T285 252Q291 257 294 263T304 275Q316 292 335 309Q340 315 344 322T354 336Q358 347 365 358T377 386Q380 397 379 406T378 424Q372 439 367 452T347 474Q336 480 326 485T304 490Q290 492 278 491T250
486Q241 481 230 478Q227 477 221 474T209 466T197 457T189 451Q180 443 172 436T158 421Q152 418 149 415T143 409Q130 409 124 417L112 428Q107 430 98 441Q100 443 102 444T106 447L112 459Q117 470 128 482Q131 485 133 488T139 493Q145 502 153 510T170 524Q173
527 177 530T185 536Q191 541 196 544T208 551Q217 557 225 559T243 566Q245 566 248 568T258 570Q264 573 271 575T285 578H346Q358 578 366 570Q383 565 397 554T423 532Q432 526 438 518T450 497Q458 486 464 469T473 444Q477 428 477 417Q479 403 478 388T473
355Q473 338 468 325T458 298Q449 275 438 257T412 221L391 199Q377 182 361 167T327 136Q319 131 312 125T296 113Q288 108 279 103T261 92Q247 84 233 74T208 56Q200 53 194 47T181 38Q176 33 169 31T156 23Q174 20 186 20T212 19Q220 19 226 19T239 19Q262 23
285 21T316 19Q321 19 329 18T342 16H400Q406 16 411 16T423 17Q449 17 458 17T469 14Q472 2 471 -10T470 -34Q472 -40 468 -41T462 -42H412Q404 -44 397 -43T381 -42Q358 -45 345 -46T307 -47Q304 -49 297 -49T282 -50T266 -50T254 -50Q248 -50 241 -50T227 -49Q216
-46 202 -46T174 -46H124Q116 -45 111 -45T101 -45T94 -45T84 -47Q77 -49 71 -49T58 -50Z" />
<glyph unicode="3" glyph-name="three" horiz-adv-x="526" d="M193 220Q190 234 190 251T191 277Q194 277 197 279T206 281Q212 284 219 288T232 296Q241 299 247 304T259 314L271 326Q279 332 286 342T301 360Q309 368 309 376Q314 387 317 396T324 413Q324 416
324 423T324 436Q324 442 324 446T321 455Q321 461 318 468T310 480Q305 485 301 486T294 494Q289 499 281 501T264 503T247 503T232 501Q222 501 210 494Q198 489 184 478T160 463Q155 455 149 450T137 436Q135 431 130 426T119 412Q117 408 117 404T115 399Q109
399 104 401Q102 402 100 403T96 406Q91 408 84 413T69 421Q66 421 64 423L62 425Q63 431 63 433T65 436Q68 448 73 455T85 471Q87 476 90 480T96 490Q96 490 99 495T107 506T116 517T122 524Q131 529 137 534T153 543Q158 546 163 548T172 554Q180 557 189 561T206
566Q213 566 219 569T232 570Q243 570 249 571T263 573Q280 571 295 566T327 558Q330 558 333 558T339 554Q358 547 370 535Q375 532 380 529T389 520Q394 511 400 503T412 486Q417 475 420 465T426 444Q428 433 428 423T426 402V399Q423 385 422 373T415 349Q410
340 407 333T395 317Q390 312 386 308T370 298Q363 295 356 291T342 282Q353 279 363 274T382 265Q393 263 403 258T422 246Q425 243 430 241T438 235Q446 229 452 222T465 204Q467 202 469 199T472 193L484 170Q487 159 487 148T488 124Q493 105 490 92T484 64Q484
58 482 55T480 49Q479 45 476 37T470 22T463 9T457 3Q448 -2 442 -10T426 -27Q423 -30 415 -36T396 -48T374 -58T354 -62Q346 -65 338 -65T324 -66Q312 -70 299 -67T271 -66H240Q226 -63 212 -61T183 -58Q175 -55 166 -54T145 -50Q139 -47 134 -46T122 -43L100
-31H96Q82 -28 72 -23T50 -8Q47 -2 46 5T42 18Q40 24 39 27T35 37V41Q35 45 42 45Q45 45 51 43T64 37T79 32T92 29Q101 27 109 25T126 22Q132 19 137 19T149 18Q166 12 185 12T221 14Q232 17 241 17T259 18Q271 23 285 28T309 45Q317 50 329 63Q329 67 340 84Q343
89 343 95T343 105V136Q342 151 336 160T320 178Q317 181 313 184T305 190Q300 192 296 195T286 201Q279 205 270 208T251 212T233 215T222 218Q217 218 214 219T203 221Q200 220 198 219Q193 216 193 220Z" />
<glyph unicode="4" glyph-name="four" horiz-adv-x="566" d="M174 253Q168 246 164 240T150 226Q175 226 185 227T210 229Q219 230 221 230T232 229Q242 230 252 229T271 227Q280 227 288 227T302 228Q317 228 331 227T361 226H368V293Q367 301 368 310T370 326Q370
360 369 379T367 409Q367 420 369 429T372 451V467Q372 471 371 474T371 482Q374 485 376 485T383 485Q387 485 393 484T403 482Q413 482 425 483T443 482Q448 476 448 471T449 459Q450 451 449 444T448 428Q448 424 448 420T447 412V269Q447 266 447 265T446 260Q446
252 445 243T444 226L489 220Q494 220 498 220T508 220Q513 221 519 222T527 222Q530 219 529 214T528 206V192Q528 184 529 179T530 168Q530 165 529 164T528 160H516Q501 160 489 158T459 156Q456 156 451 156T444 153Q444 101 442 51T440 -50Q440 -52 440 -56T440
-63Q438 -64 434 -64Q428 -64 421 -64T409 -63Q407 -63 401 -63T393 -62Q390 -63 390 -62T385 -63Q382 -63 380 -64T376 -63Q376 -63 376 -57Q376 -54 376 -51T375 -45Q375 -42 375 -40T374 -34Q374 -20 372 -3T372 32Q372 54 372 66T370 84T369 94T368 103Q368
117 367 126T366 145Q366 148 366 151T365 156Q358 158 344 157T326 156H279Q268 156 254 155T225 153Q207 153 190 152T152 150Q149 150 141 150T128 151Q123 149 114 149T96 148T80 148T70 149Q61 149 50 147T37 149V156Q35 168 35 181T36 205Q36 213 34 223Q32
237 35 242Q43 250 52 263T70 288Q75 295 81 300T93 312Q101 320 109 331T125 350Q128 352 130 357T135 366Q159 398 178 427Q181 433 184 439T194 451Q197 457 203 464T214 482Q222 502 239 523T268 564Q268 566 272 571T279 583L283 587Q300 587 317 586T348
587Q354 589 360 589T372 590H412Q416 590 421 590T427 587Q425 582 422 580T416 571Q409 563 403 554T388 536Q379 524 368 509T344 482Q336 471 327 457T306 431Q303 428 300 424T295 416Q289 405 281 396T268 377Q258 366 251 353T233 330Q225 319 218 310T201
288Q199 288 195 283T186 270Q181 262 174 253Z" />
<glyph unicode="5" glyph-name="five" horiz-adv-x="546" d="M473 570Q476 568 476 565T477 559Q474 550 474 541T473 524Q470 521 465 519T453 516H411Q396 514 390 514T378 514T367 514T346 516H308Q296 516 282 514T254 512Q251 512 246 512T235 509V363Q235
360 235 355T238 347Q244 347 248 348T258 349H277Q291 352 312 349T353 340T388 327T407 316Q422 307 433 299T453 278Q465 264 474 250T492 221Q495 215 496 211T500 201Q506 192 506 181T511 159Q511 145 509 131T503 102Q503 99 501 94T498 86Q493 69 485 51T465
21Q459 12 454 6T442 -10Q436 -15 433 -17T424 -23Q418 -26 411 -29T394 -41Q388 -46 376 -50T350 -56Q346 -57 344 -57T339 -58T331 -58T317 -57Q303 -60 290 -60T261 -60Q256 -60 251 -60T241 -58Q236 -57 231 -56Q217 -56 209 -53T193 -50Q184 -52 175 -48T158
-41Q149 -38 141 -35T123 -25Q115 -19 104 -13T85 2L73 13Q65 22 57 30T43 44Q40 47 39 50T35 55Q35 60 39 63Q44 65 50 71T59 81Q65 86 70 87T81 94Q87 91 92 86T101 80Q106 75 110 70T118 61Q127 52 142 44Q148 41 154 36T165 29Q168 26 171 25T177 21Q188 15
200 12T227 6Q234 5 237 5T246 6Q260 6 275 6T304 13Q310 16 322 25T338 40Q349 56 360 69T376 97Q376 100 377 107T381 117Q386 141 381 167Q381 170 379 174T377 182Q374 196 366 208T350 228Q341 242 328 251T300 267Q289 272 279 275T258 278Q249 281 241 281T223
282Q203 282 188 282T154 286H138Q132 286 127 286T116 290Q114 291 114 297T114 312T115 330T116 347Q118 359 117 370T116 393Q116 399 114 405T112 416Q109 436 110 447T112 470Q112 482 111 496T112 524Q114 535 115 540T118 555Q121 560 119 566T121 575Q123
577 128 577T135 576Q146 576 159 575T185 574Q196 575 207 573T231 570Q242 570 253 569T277 568Q285 566 294 567T311 571Q322 573 338 572T369 574H438Q447 574 455 572T473 570Z" />
<glyph unicode="6" glyph-name="six" horiz-adv-x="515" d="M477 133Q477 113 472 93T458 56Q455 45 446 35T435 10Q421 -12 405 -22T377 -44Q374 -44 371 -45T366 -47Q360 -53 352 -58T335 -63H331Q317 -70 300 -70H254Q239 -69 227 -66T200 -63Q189 -60 177
-55T150 -44Q136 -35 125 -24T104 -1Q102 1 99 6T93 14Q87 20 83 25T74 37Q68 48 63 60T54 87Q49 98 48 110T43 137V141Q43 146 41 150T39 160Q39 174 37 188T35 218Q35 226 37 236T39 256Q39 276 41 285T47 302Q50 311 51 319T54 337Q60 353 67 374T85 406Q87
414 94 422T108 440Q111 446 116 454T127 471Q132 476 135 481T143 490Q151 498 159 511T177 530Q185 537 190 543T204 555L220 569Q222 571 222 573T227 578H270Q275 578 279 577T289 576Q294 576 298 576T308 578Q314 573 308 567Q305 566 303 563T296 555Q282
541 270 526T243 494Q243 490 235 482Q226 471 218 458T200 433Q198 424 193 414T185 394Q182 387 178 377T171 357T166 340T164 329Q166 331 172 335T182 341Q192 347 199 349T216 356Q240 367 266 367H308Q316 367 323 365T339 360Q344 357 350 355T362 352Q370
349 376 344T389 333Q394 330 399 327T408 321Q431 298 439 289T450 271Q453 266 456 262T462 252Q464 246 465 243T469 233Q476 219 478 205T480 177T479 153T477 133ZM204 49Q226 41 246 41Q249 41 254 43T266 45Q269 45 273 47T281 53Q296 58 301 67T312 87Q317
101 322 114T331 141V145Q336 162 334 174T331 202Q327 224 317 242Q314 247 311 251T304 264Q297 267 289 272T271 281Q266 283 256 285T239 283Q228 281 220 276T204 264Q199 261 192 256T181 244Q168 230 165 222T158 206Q158 203 156 200T154 191Q154 185 152
179T150 168Q150 145 155 124T166 83Q172 66 185 60Q191 57 195 54T204 49Z" />
<glyph unicode="7" glyph-name="seven" horiz-adv-x="516" d="M39 -56Q36 -54 37 -51T41 -42T49 -29T58 -13Q66 -2 69 7T78 25L81 29Q84 40 89 47T97 63Q100 69 102 74T108 83Q114 94 117 102T124 117Q126 123 129 127T135 136Q144 151 152 168T170 202Q175 210
180 219T189 236Q195 245 202 256T216 278Q222 290 227 301T239 321Q245 337 258 355Q267 369 273 382T285 409Q288 415 291 420T296 432Q302 441 307 452T316 474Q321 483 325 493T335 513Q337 516 338 519T340 526Q338 528 331 528H258Q247 525 233 525T208 524Q204
523 202 523T197 524H183Q180 516 180 503T181 482V440Q181 437 183 432T184 424Q182 422 179 422T173 422Q170 422 167 421T162 420Q156 419 152 419T143 420H123Q112 420 102 421T85 421Q84 421 81 424V444Q81 452 81 461T78 482Q77 489 77 494T77 509Q74 520
74 530T74 551Q74 558 73 562Q70 578 74 582Q76 584 87 584T108 582Q114 582 117 582T124 583H136Q142 583 147 583T162 582Q179 585 196 584T227 582H346Q358 582 367 583T389 582H438Q450 582 459 582T477 578Q480 575 480 570T481 559V536Q481 533 481 528T480
517Q480 514 481 510T481 501Q480 499 474 492T465 474Q457 460 448 446T431 421Q425 412 419 402T408 382Q396 368 387 353T369 321Q360 304 351 284T325 242Q314 228 302 206T277 171Q274 167 269 158T257 139T246 120T239 109Q233 101 229 94T220 79Q211 67
202 56T185 29Q183 24 180 20T174 13Q165 5 160 -6T150 -29Q144 -34 141 -42T134 -56H39Z" />
<glyph unicode="8" glyph-name="eight" horiz-adv-x="494" d="M340 304Q354 299 365 292T385 273Q395 269 402 261T415 247Q420 239 423 231T433 214Q439 203 442 192T448 170Q451 167 451 164T452 158Q455 152 455 148T456 139Q460 106 456 73Q453 67 452 61T448
50Q446 42 443 34T437 16Q434 13 433 11T429 6Q413 -19 392 -36Q387 -39 383 -43T374 -51Q371 -54 368 -55T362 -58Q354 -63 344 -68T322 -77Q309 -80 301 -81T286 -84T270 -85T247 -85Q236 -85 225 -83T206 -77Q192 -77 178 -72T150 -62Q139 -59 130 -54T109 -43Q101
-38 95 -34T83 -21Q72 -7 62 9T49 42Q38 66 38 91Q38 97 38 100T35 109Q34 119 35 127T38 143Q38 154 41 164T49 188Q52 199 57 210T69 233Q77 244 85 251T101 266L113 277Q116 280 118 281T124 288Q132 296 135 296Q138 298 141 299T150 303Q153 306 158 307T166
310Q162 314 156 319T146 330Q138 335 134 340T124 352Q106 374 101 400Q99 408 99 415T100 430Q100 433 99 437T98 445Q100 459 101 470T109 496Q109 502 112 508T119 522T128 534T135 542Q143 550 150 554T166 564Q174 569 180 570T195 575Q223 587 251 583Q262
586 271 585T292 583Q303 582 314 576Q330 573 340 564Q343 564 346 562T352 557Q363 548 373 539T389 516Q391 510 392 506T396 496Q398 482 399 467T399 437Q399 431 399 424T396 407Q396 399 393 392T386 376Q383 370 381 364T376 352Q373 349 371 344T366 336Q362
331 358 327T349 319Q343 313 333 309Q334 308 336 307T340 304ZM306 6Q310 8 314 12Q323 24 331 37T344 65Q345 71 347 82T352 104T355 125T355 140Q355 151 355 162T352 184Q349 190 348 193T344 202Q338 219 329 232T303 255Q297 255 292 259T277 263Q263 263
249 263T217 259Q209 254 203 247T188 236Q180 230 176 221T166 202Q158 197 157 183T154 158Q152 141 151 137T148 127Q146 115 148 104T150 87Q150 81 152 76T155 65Q158 54 163 45T173 28Q191 4 213 -2Q231 -7 240 -7Q259 -11 275 -6T306 6ZM255 396Q262 397
268 402T277 413Q278 416 278 417T279 419Q279 422 280 424T281 429Q285 446 278 460Q277 463 273 467Q270 470 264 471T255 475Q251 477 247 476T239 473Q225 467 225 449V437Q222 429 226 421T235 407Q237 404 238 403T243 400Q243 399 246 397T255 396Z" />
<glyph unicode="9" glyph-name="nine" horiz-adv-x="554" d="M67 -84Q56 -70 49 -55T35 -22H39Q49 -20 56 -15T71 -4L112 23Q121 28 128 35T141 48Q153 56 160 67T179 83Q180 83 185 87T198 99T213 113T227 127Q234 131 242 139T259 155T274 171T285 184Q287 187
288 189T291 195H266Q258 195 251 195T239 199Q230 199 224 199T210 201Q195 210 180 219T153 239Q144 245 138 252T129 265Q122 278 117 290T109 314Q109 319 107 325T105 337Q103 346 100 358T96 383Q96 417 112 457Q115 463 118 470T124 485Q124 494 129 497T137
506Q143 517 151 524T169 541Q180 546 189 553T214 563Q220 567 231 573Q242 576 254 579T277 582H299Q302 583 311 583T323 582Q328 582 333 582T344 577Q361 577 378 572T401 563Q418 553 434 545T465 520Q473 514 473 510Q484 497 491 481T501 447Q509 429 514
410T519 371V363Q519 346 517 329T511 297Q507 291 504 284T499 269Q496 258 491 247T480 225Q476 217 472 207T457 188Q458 185 453 176T439 156T424 135T413 122Q408 116 400 109T384 94T368 81T357 71Q347 64 341 59T326 48Q318 45 312 37T299 26Q291 24 283
18T269 5Q264 1 256 -2T242 -8Q237 -11 230 -13T218 -19Q212 -19 207 -26Q197 -30 191 -33T175 -39Q170 -42 163 -46T149 -54Q138 -54 127 -60T105 -68Q95 -71 87 -76T67 -84ZM364 285Q369 296 375 302T387 321Q390 325 392 330T397 341Q403 352 408 364T417 389Q419
397 419 404V420Q422 443 409 461Q409 464 407 467T405 472Q396 485 387 493T367 502Q362 502 359 504T351 506Q340 509 330 510T312 510Q299 510 291 507T273 498Q268 496 265 492T255 485Q243 472 239 461Q236 458 235 456T231 450Q228 442 225 433T221 412Q221
394 220 378T225 345Q227 338 231 331T239 317Q244 306 249 299Q257 294 265 286T285 273Q296 270 305 270T323 269Q333 272 341 274T364 285Z" />
<glyph unicode=":" glyph-name="colon" horiz-adv-x="157" d="M123 397Q121 395 115 395T101 397Q95 397 89 398T73 399Q68 399 63 399T51 398Q41 396 37 399L33 403Q30 407 30 411T31 419Q31 437 32 453T31 485Q31 497 35 501Q39 502 44 503T57 504Q60 504 69
504T81 503Q90 503 96 502T111 501Q117 501 120 501T127 497Q127 476 126 456T124 413Q126 406 123 397ZM123 61Q120 55 115 54T101 53Q89 53 76 51T45 49Q42 49 38 49T33 53V65Q33 77 33 89T31 111V127Q31 133 31 139T35 153Q44 156 56 155T77 153H119Q125 127
124 105T123 61Z" />
<glyph unicode=";" glyph-name="semicolon" horiz-adv-x="162" d="M69 -17Q64 -18 64 -17T59 -16Q54 -16 44 -17T31 -14Q29 -11 32 -8T39 -1Q42 2 48 5T57 13L73 31L89 49Q87 50 83 49T70 50H45Q39 53 39 60T39 71V112Q39 117 39 121T40 130Q40 132 38 137T38
145H130Q132 145 132 134T131 119Q130 108 130 104T130 96T130 90T131 79V53Q131 49 128 45T119 35L109 25Q106 22 104 19T97 11Q89 3 85 -3T73 -14L69 -17ZM39 495Q39 496 41 497Q43 499 47 499Q50 499 57 499T72 498T88 498T97 498Q107 498 112 498T123 497Q125
493 126 482T127 467Q130 450 129 441T127 415Q127 409 127 405T126 394Q120 390 111 392T91 393Q85 393 78 392T65 391H47Q43 391 41 395Q39 397 39 399Q37 403 37 420T38 455Q39 469 38 477T39 495Z" />
<glyph unicode="&lt;" glyph-name="less" horiz-adv-x="412" d="M106 463Q112 468 118 473T133 486Q140 491 144 499T155 512L206 560Q215 571 226 580T249 602Q257 610 262 617T274 631Q278 636 285 644T297 654Q305 668 319 679Q324 681 327 679T336 672Q338
669 341 667T350 657Q355 651 357 650T364 645Q371 636 371 633Q371 631 368 628T362 623Q355 618 351 610T341 595Q337 589 329 578T316 562Q311 557 301 546T286 529Q279 517 267 505T244 481Q243 479 239 474T230 463T219 452T209 445Q208 444 207 442Q205 438
205 437Q201 434 199 432T192 427Q188 421 182 414T170 401Q157 391 151 380Q145 372 138 362T123 342Q133 331 147 315T165 291Q173 283 179 276T192 261Q202 250 210 241T229 221Q235 213 239 206T251 194Q258 183 266 176T279 155Q286 148 292 142T305 131Q307
128 310 121T318 112Q321 110 325 107T332 99Q333 98 333 97V96Q344 88 351 79T367 63Q370 60 371 58T376 53Q379 51 379 51T381 48Q381 43 376 40Q373 37 371 36Q366 30 360 24T350 11Q347 9 345 9T340 9Q337 9 336 11T330 17L308 35Q299 40 291 45T277 56Q276
57 265 67T239 90T212 112T197 125Q186 135 176 145T153 165Q143 172 133 181T117 198Q110 206 106 210T95 220Q92 226 87 231T77 242Q72 247 70 250T61 258Q55 263 51 270T38 282Q34 284 32 289T30 296Q30 313 31 329T33 363Q33 370 32 375T30 386L106 463Z" />
<glyph unicode="=" glyph-name="equal" horiz-adv-x="353" d="M293 198Q286 196 279 196T266 195H198Q191 195 185 196T174 198H60Q53 198 48 197Q45 197 42 197T36 198Q33 201 33 207Q33 215 34 219T33 229Q33 236 31 243T33 259Q34 261 42 262T61 263T80 263T91
262Q95 261 98 261T104 262Q111 262 118 262T133 261Q142 261 151 262T172 263Q177 263 180 263T189 264Q203 265 215 264T242 261Q245 261 248 261T255 262Q268 261 276 261T293 261Q296 261 299 261T307 260Q314 260 315 259Q318 252 317 243T316 226Q316 222
316 218T315 210Q315 207 315 203T314 198H293ZM35 325Q34 330 34 332T35 339Q35 346 34 352T33 363Q33 376 34 380Q35 382 35 384T36 388Q38 390 42 390T49 388Q59 386 92 386Q103 386 111 386T125 385Q151 386 168 385Q182 384 195 384T223 382Q234 382 245 381T270
380Q277 381 281 381T293 381Q295 381 298 381T304 380H310Q317 380 319 379Q321 380 321 374T320 365Q320 353 321 349T322 333Q322 331 322 328T321 321H314Q306 319 293 317T269 315Q259 315 249 315T229 318Q220 318 207 319T189 321H162Q155 321 149 320T137
319Q131 319 125 319T112 320Q103 320 95 322T79 324Q70 324 60 324T45 324Q43 323 42 323T39 324Q37 324 35 325Z" />
<glyph unicode="&gt;" glyph-name="greater" horiz-adv-x="412" d="M382 303Q364 286 349 271Q336 258 324 246T306 226Q296 219 279 203Q272 198 268 190T257 177L206 129Q197 118 186 109T163 87Q155 79 150 72T138 58Q134 53 127 45T115 35Q107 21 93 10Q88
8 85 10T76 17Q74 20 71 22T62 32Q57 38 55 39T48 44Q41 53 41 56Q41 58 44 61T50 66Q57 71 61 79T71 94Q75 100 83 111T96 127Q101 132 111 143T126 160Q133 172 145 184T168 208Q169 210 173 215T182 226T193 237T203 244Q204 245 205 247Q207 251 207 252Q211
255 213 257T220 262Q221 267 229 274T242 288Q250 294 254 299T261 309Q267 317 274 327T289 347Q279 358 265 374T247 398Q239 406 233 413T220 428Q210 439 202 448T183 468Q177 476 173 483T161 495Q154 506 146 513T133 534Q126 541 120 547T107 558Q105 561
102 568T94 577Q91 579 87 582T80 590Q79 590 79 592V593Q68 601 61 610T45 626Q42 629 41 631T36 636Q33 638 33 638T31 641Q30 642 36 648Q39 650 41 653Q46 659 52 665T62 678Q65 680 67 680T72 680Q75 680 76 678T82 672L104 654Q113 649 121 644T135 633Q136
631 147 621T173 599T200 577T215 564Q226 554 236 544T259 524Q269 517 279 508T295 491Q302 483 306 479T317 469Q320 463 325 458T335 447Q340 442 342 439T351 431Q357 426 361 419T374 407Q378 405 378 400T378 393Q378 376 378 360T379 326Q379 319 380 314T382
303Z" />
<glyph unicode="?" glyph-name="question" horiz-adv-x="410" d="M177 170Q180 177 184 186T192 204Q192 211 196 217T201 230Q201 236 203 239T209 248Q219 265 226 282Q237 297 243 313L267 364Q272 376 275 385T280 405V429Q280 437 278 444T273 460Q271 465
263 473T250 484Q236 494 222 497Q219 498 215 500Q212 501 209 502T201 504Q196 505 191 506T177 508Q175 508 170 506T160 504Q152 504 144 502T130 495Q122 489 115 484T102 470Q96 465 89 455T79 440Q76 438 75 437T71 436Q69 436 65 438T58 442Q53 445 49
448T41 453Q39 454 35 455T30 460Q31 464 32 467T36 476Q38 480 38 484T39 490Q42 499 46 505T55 518Q60 526 65 533T79 549Q81 551 83 553T89 559Q90 560 94 563T103 570T113 577T119 580Q130 588 140 591T160 597Q162 597 168 597T182 598T195 599T205 600Q215
598 225 597T246 593Q254 591 259 589T273 583Q282 578 285 578T297 572Q302 567 307 565T318 559Q329 554 338 545T352 521Q355 516 359 509T368 492T376 475T380 460Q380 447 380 432T376 401Q376 396 376 390T372 378Q370 373 369 366T366 354Q361 341 356 331T342
313L331 296Q326 291 323 288T314 279Q304 268 296 257T280 234Q278 230 273 224T267 213Q259 200 252 187T239 159Q236 148 232 139T226 118Q227 110 224 110T215 108Q213 108 209 108T199 107Q194 107 190 106T181 104Q162 101 167 109L171 115Q168 123 171 142T177
170ZM229 36Q233 33 233 25V8Q233 3 233 -3T234 -17V-26Q234 -33 234 -35T233 -39L225 -42Q213 -46 200 -46Q190 -46 182 -45T167 -43Q162 -43 160 -43T157 -41Q156 -36 156 -32T157 -23Q157 -12 157 -1T156 22Q156 27 155 30T154 39Q158 43 166 43T182 42Q186
41 188 41T193 41Q194 41 202 40T212 39Q217 39 220 39T229 36Z" />
<glyph unicode="@" glyph-name="at" horiz-adv-x="599" d="M186 450Q186 445 184 439T178 425T171 412T166 404Q161 391 158 380T152 355Q146 338 146 319T147 283Q151 273 152 261T155 238Q156 230 158 220T163 202Q172 182 179 165T198 124Q203 112 211 105T224
90L231 83Q242 72 253 66T274 51Q280 46 287 43T303 37Q319 31 334 28T366 18Q374 18 383 17T401 15Q410 15 417 14T430 12Q435 12 442 10T455 8Q461 8 464 8T472 7Q477 5 473 -5Q470 -12 468 -18T460 -30Q457 -30 456 -30T450 -31Q448 -31 447 -31T443 -32Q438
-32 432 -33T420 -34H394Q383 -34 371 -33T345 -31Q337 -31 329 -30T313 -30Q305 -32 296 -28T278 -24L239 -10Q225 -7 215 -2T194 8Q183 13 175 18T159 29Q156 33 151 35T143 41Q132 49 124 58T105 75Q99 84 92 91T78 107T65 126T55 150Q53 158 53 165T50 178Q48
185 47 196T43 217T40 235T39 245Q39 248 37 253T34 263Q34 269 31 290T38 340Q38 348 39 359T44 379Q47 387 50 395T55 414Q60 429 70 447T87 475Q89 477 92 482T104 495Q118 514 135 522T169 545Q173 548 180 551T195 557T207 562T214 564Q234 572 261 577Q274
579 287 580T316 584Q326 584 333 582T351 580Q360 578 368 577T384 574Q397 574 411 570T440 559Q451 554 461 548T479 532Q484 528 489 525T501 516Q512 505 521 495T535 467Q544 459 546 450T553 429Q561 410 565 390T568 345Q568 331 566 315T561 287Q559 276
557 266T553 248Q552 246 550 240Q549 237 547 235Q541 225 537 217T528 198Q526 190 521 185T511 175Q497 159 483 150Q475 147 468 146T450 146L430 156Q422 159 415 162T401 171Q391 163 381 159T356 153Q330 149 303 160Q297 160 289 163T273 173T259 185T250
198Q242 206 240 216T235 238Q233 261 234 275T235 294Q235 302 237 309T243 322Q245 328 246 333T250 345Q250 350 254 353T261 362Q263 364 266 368T274 375Q282 386 297 393T328 400Q338 400 350 399T374 390Q378 387 384 387Q384 392 386 399T388 414Q390 416
394 415T401 414Q403 414 407 413T417 412Q421 412 424 412T430 410V397Q430 386 431 374T433 348V256Q431 248 432 240T433 220Q433 207 440 202Q445 202 448 200T455 198Q461 201 466 204T476 213Q476 218 479 223T483 231Q483 242 487 251T493 273Q491 284 494
294T497 315V358Q497 364 497 371T493 390Q498 409 489 428T469 464Q461 469 457 476T447 485Q442 488 439 492T430 499Q422 507 412 512T391 521Q383 523 373 524T351 527H324Q312 527 301 526T278 524Q270 524 264 520T250 512Q238 507 228 499T201 475Q198 469
193 462T186 450ZM384 290Q384 301 382 310T371 325Q365 327 361 327T351 325Q340 320 335 309Q330 301 329 296T329 275Q329 272 330 270Q330 268 330 267T331 263Q331 258 333 254T341 245Q344 242 349 240T363 238Q366 238 371 240T378 248Q380 257 382 263T384
277V290Z" />
<glyph unicode="A" glyph-name="A" horiz-adv-x="546" d="M64 114Q71 134 78 153T93 193Q98 208 106 223T120 250Q125 267 130 277T137 291Q137 293 141 301T152 327Q155 336 157 346T164 365L188 423Q192 434 193 439T196 449T198 458T204 474Q209 485 212 495T221
516Q223 522 225 528T229 540Q232 548 234 554T238 568Q240 570 241 573T245 582Q251 586 255 586T263 587H309Q311 583 311 580T313 572L317 557L320 549L331 518L349 467L356 454Q358 452 360 446T366 429Q371 416 376 400T387 367Q394 342 398 330T408 305Q411
301 412 296T415 286L428 245L445 209Q448 200 451 192T460 175Q468 155 473 139T486 102Q490 93 494 85T502 68Q504 63 506 58T510 48Q515 39 518 30T527 9Q529 3 532 -3T536 -14Q531 -14 526 -13T517 -12H500Q491 -12 484 -12T472 -13Q467 -1 458 10T438 39Q436
44 434 48T430 56Q428 62 419 73T408 90Q400 99 397 104T388 115Q384 115 378 115T367 117Q361 118 354 118H330Q325 118 320 118T303 117T273 116T222 115H215Q207 115 203 114T190 115Q187 117 176 116T160 114L147 113L142 106Q140 100 135 92T125 76T116 60T109
47L102 29L77 -17Q75 -21 71 -21T65 -23H14Q10 -19 10 -18T14 -12Q14 -8 17 -1T20 11Q25 19 28 27T36 44L64 114ZM274 362Q269 360 267 357T263 350Q259 336 253 323T240 295Q235 285 230 277T221 258Q212 238 203 219T183 180H189Q197 180 203 179T217 180Q223
182 228 181T239 180Q256 180 274 180T314 179Q325 178 334 179T354 180H363Q362 184 361 186T357 192Q353 200 349 206T341 221L306 291Q304 296 302 304L274 362Z" />
<glyph unicode="B" glyph-name="B" horiz-adv-x="414" d="M387 196Q390 193 391 187T392 174T393 162T393 153Q395 139 393 121T382 90L369 68Q361 56 356 52T341 36Q337 30 331 26T320 16L300 7Q292 3 283 0T265 -3Q240 -7 215 -11T164 -15Q156 -15 145 -15T126
-16Q118 -17 109 -14T93 -10L63 -7Q58 -6 49 -5T33 -4V20Q34 25 34 30T34 42Q33 53 34 63T34 85Q33 90 33 95T33 106Q34 116 32 126T32 146Q36 164 35 182T33 221Q32 231 32 240T32 258L33 308Q33 314 33 324T33 344T32 364T31 377Q29 386 31 397Q32 404 32 412T33
428Q35 444 35 465T34 504Q34 516 35 526T37 539Q36 553 37 561T38 574H144Q164 574 185 572T227 567Q236 565 240 563Q247 561 252 560T261 557Q266 552 274 547T289 538T303 528T312 516Q314 511 317 506T323 495Q326 483 327 464T327 424T320 386T304 358Q293
343 282 334T261 319Q256 319 252 317T244 314Q252 309 257 309T270 303Q272 303 277 301T284 299Q292 299 300 294T322 283Q325 281 330 278T342 270T353 261T360 254Q368 246 368 243T375 231Q381 223 383 215T387 196ZM145 65Q149 65 157 66T174 68T190 69T197
70Q204 72 210 73T223 77Q239 84 245 94T259 119Q264 130 265 143T266 167Q266 174 266 180T265 193Q265 202 263 214T252 233Q245 244 226 250T194 259Q185 259 178 259T165 264H101Q102 262 102 255T101 246Q101 223 99 200T98 157L100 111Q100 109 100 103T100
90T100 78T100 70Q112 68 123 67T145 65ZM132 374Q136 374 143 378T155 391Q160 399 165 411T165 435Q165 448 158 461T137 479Q133 479 132 479T127 480Q123 478 122 479T116 480H110Q110 454 108 427T110 374H132Z" />
<glyph unicode="C" glyph-name="C" horiz-adv-x="468" d="M285 -17Q280 -17 276 -16Q272 -16 269 -16T263 -15Q253 -16 247 -16T234 -15T222 -12T207 -6Q200 -2 191 -1T175 6Q163 15 149 21T122 37Q120 39 117 41T112 47Q102 54 94 60T78 76Q74 80 67 91T52 116T39
141T33 158Q33 173 27 187T21 216Q21 217 21 225T21 244T21 270T21 296Q22 311 23 321T25 333Q36 381 48 420T90 491Q98 508 115 515Q128 523 140 531T166 548Q180 554 194 558T218 566Q234 567 249 572T279 577Q291 577 307 577T335 571Q351 569 367 564T397 548Q403
543 409 541T420 537V521Q420 516 420 509T421 498Q421 490 419 486Q417 484 417 481T415 477H413Q410 477 407 480Q402 483 397 483T388 485Q382 486 378 487T366 489Q361 489 355 489T343 488Q335 487 322 487T303 487Q296 486 292 484T283 480Q274 475 267 471T252
462Q231 445 214 425Q190 396 178 369T166 304V243L189 165Q191 153 198 144T210 125Q227 108 240 99T268 79Q276 75 287 72T306 63Q312 63 321 60T357 57H391Q399 57 404 57T415 63H420L438 12Q429 7 422 4T405 -3Q390 -7 378 -9T352 -17H285Z" />
<glyph unicode="D" glyph-name="D" horiz-adv-x="433" d="M42 53Q43 59 42 65T43 78Q44 80 44 85T44 93L41 124Q40 132 41 140T42 158Q41 162 41 165T42 173Q41 184 43 196T44 219Q44 220 44 224T44 232T44 241T45 246Q46 265 45 286Q45 309 45 327T47 359Q48
364 48 371T48 387Q47 398 47 411T46 437Q46 460 46 477T44 518Q44 526 43 533T43 549Q43 551 43 559T44 569Q44 570 45 571Q48 574 50 574H122Q136 574 150 574T177 573Q188 572 200 568T221 561Q247 552 257 547T278 534Q287 527 297 521T317 508T336 490T354
463Q360 451 368 438T376 411Q381 396 381 385T387 365Q392 343 392 319T387 275Q388 261 385 247T380 219Q379 207 378 200T374 188T369 178T363 165Q362 162 358 156T350 142T341 129T335 119Q329 102 320 95T295 71Q292 68 286 62T272 48T257 36T246 27Q242
25 233 20T212 8T191 -3T178 -8Q168 -9 152 -10T119 -12T86 -13T60 -14H49Q46 -12 45 -10T43 -6Q42 -4 42 -3V53ZM117 188Q116 164 116 132T117 76Q146 78 165 85T205 109Q219 119 224 130T235 154Q240 163 243 175T251 198Q253 204 256 215T260 234Q260 239 262
253T264 273V291Q264 309 265 330T264 382V388Q262 414 250 431T221 468Q213 478 203 483T166 497Q158 500 144 501T119 504Q117 500 117 499V497V489Q115 478 115 462T116 431Q116 414 117 392T116 347Q116 342 116 336T115 325Q116 312 115 299T117 272Q115 251
116 230T117 188Z" />
<glyph unicode="E" glyph-name="E" horiz-adv-x="525" d="M444 548Q440 535 442 520T444 491Q440 491 430 489T410 485Q406 485 401 485T393 485L374 481H318Q297 480 281 480T243 481Q239 481 232 480T221 480Q221 475 220 472T219 464Q220 461 220 449T221 423T222
396T223 381V336Q223 328 223 323T226 309H284Q300 309 314 308T345 307Q354 307 366 306T386 307Q387 298 388 288T389 270V254Q385 254 374 253T354 251H312Q292 248 275 248T237 248Q233 248 227 247T218 247V210Q218 196 218 181T222 155Q222 137 222 122T223
93V76Q225 77 235 75T261 71Q276 69 286 68T306 64Q311 62 327 62T349 61Q374 58 398 57T447 54H483Q487 54 492 55T499 57Q504 39 504 22T505 -12Q497 -17 485 -17T462 -18Q455 -18 447 -17T431 -16Q411 -17 384 -16T336 -17H321Q310 -15 291 -14T261 -13Q250
-12 226 -13T146 -16Q144 -16 133 -16T108 -16T83 -17T69 -18Q69 3 67 23T64 60Q64 70 63 83T64 105Q66 137 66 168T65 231Q65 238 64 256T64 290L62 321Q61 328 63 346T65 379Q64 402 63 419T61 461Q60 482 61 502T63 542Q63 547 63 550T69 558L120 556Q135 555
154 556T189 556Q193 556 196 556T204 557Q207 557 217 557T238 557T258 557T269 556Q271 555 281 554T296 553Q299 553 305 553T317 554T330 554T339 554Q350 552 359 552T380 552Q381 552 390 552T412 550T433 549T444 548Z" />
<glyph unicode="F" glyph-name="F" horiz-adv-x="383" d="M183 302Q179 301 173 301T162 300L147 299Q145 299 143 299T138 298Q140 284 138 273T137 238Q138 214 135 195T133 153Q134 139 133 122T130 98L127 27V-7Q116 -9 111 -9T101 -9T90 -8T70 -10Q56 -13
53 -13T44 -13Q44 -4 44 -2T44 10Q43 18 42 32T40 63T39 96T40 125Q40 133 40 144T38 166Q37 170 38 176Q38 177 38 192T38 226T38 259T38 276Q38 279 37 289T36 312T35 334T35 347Q36 362 36 374T37 397T35 420T31 449Q30 453 30 464T31 489T32 514T33 530Q33
535 34 539T33 551L37 558H127Q171 558 187 558T215 558Q244 556 266 556T310 558H365Q370 550 368 542T365 525V491H359Q349 492 339 489T319 487Q308 489 290 487T261 485L185 481Q175 481 165 481T144 480Q144 471 144 466T145 451Q146 440 146 425T146 399L150
375Q151 375 157 375T170 374T184 374T191 374Q196 375 199 374T207 373L229 371Q239 372 250 372T270 373Q272 373 274 373T279 373Q281 372 282 368T282 359L283 346Q284 342 283 336T283 326L282 315V309Q278 305 279 305T275 304Q269 304 256 304T228 304L183
302Z" />
<glyph unicode="G" glyph-name="G" horiz-adv-x="554" d="M382 53Q387 55 395 57T411 64Q411 77 412 87T413 108Q413 113 413 117T412 127Q412 133 412 138T411 149Q411 159 411 170T407 189H342L340 208L337 225Q337 227 337 229T338 233Q345 232 355 232T374
234Q376 234 385 234T405 234T425 233T436 232H448Q459 230 467 231T489 233Q494 234 500 233T512 233Q516 233 517 233T523 227Q522 219 522 212T522 196Q523 185 523 175T523 153Q522 139 522 125T522 97Q522 82 522 69T523 41V-6Q522 -19 523 -28T521 -39Q513
-44 499 -44T473 -43H416Q416 -36 416 -25T416 -9H411Q389 -13 368 -17T325 -27Q320 -28 316 -28T307 -29Q294 -29 282 -29T259 -28Q245 -27 229 -25T205 -20Q193 -16 173 -7T138 8Q130 16 122 21T106 36Q101 41 97 45T88 53Q71 70 60 91T36 131Q34 144 28 154T21
177Q21 191 18 203T15 227Q15 234 16 246T18 271T22 295T26 312Q26 321 29 333T36 353Q41 365 49 381T65 409Q70 417 74 421T82 431Q90 445 102 456T127 476Q147 489 166 503T202 522Q215 530 229 535T258 545Q278 553 297 555T336 562H360Q364 562 371 562T387
567H400Q408 567 411 567T427 562Q431 557 429 550T427 533V505Q419 506 408 504T385 500T362 494T342 488Q329 483 314 476T280 460Q279 460 271 453T252 436T233 419T223 409Q204 387 195 364T173 318Q168 302 167 284T162 246V216Q166 200 170 186T178 155Q184
137 194 124T219 97Q224 92 238 81T266 64Q277 60 288 58T311 51Q316 49 320 48T328 47Q342 47 354 49T382 53Z" />
<glyph unicode="H" glyph-name="H" horiz-adv-x="487" d="M170 255Q170 254 177 254T193 255H305Q313 255 319 258T334 261V267Q336 276 337 294T338 321Q338 329 337 337T336 354Q337 362 336 369T335 385V431Q335 434 335 444T335 466Q335 482 336 492T335 521Q336
525 335 528T334 537Q334 539 334 540T333 544Q333 548 333 552T334 561H441Q446 556 446 553T447 544Q447 530 447 518T446 494Q446 476 444 456T441 413Q441 405 442 393T441 371Q438 346 438 323T437 277Q437 257 439 237T441 199Q439 192 439 175T439 137T440
99T441 74V-28Q419 -28 402 -30T366 -33Q358 -33 353 -33T339 -39L334 -33Q335 -26 335 -14T335 11T334 37T334 56Q335 79 335 102T336 149Q336 148 336 154T335 167T335 182T334 191Q334 195 332 194T325 194Q314 196 307 195T290 193Q284 193 275 193T257 192T238
190T223 189L179 188Q174 188 171 188T163 188Q160 188 160 184Q160 182 161 181Q161 169 162 157T163 130V103Q163 77 163 52T158 1V-28Q153 -32 149 -32T136 -33Q128 -33 116 -33T96 -39H67Q62 -39 58 -38T45 -33V35Q45 60 45 67T44 78Q42 83 43 90T44 100Q46
121 45 143T42 181Q41 190 41 198T41 216Q41 233 42 249T42 283Q40 305 43 319Q44 323 42 333T40 356Q40 372 41 385T42 410T43 435T43 464Q43 468 43 477T43 498T44 518T45 532Q45 541 43 545T41 554V561H163Q167 557 169 553Q170 551 170 550Q171 530 170 511T168
472Q168 445 169 419T172 367Q172 353 172 338T171 309Q171 295 170 278T170 255Z" />
<glyph unicode="I" glyph-name="I" horiz-adv-x="178" d="M147 83Q147 81 147 76T147 64T147 51T147 42Q147 15 147 5T148 -19Q148 -22 145 -24T137 -28H73V-17L68 54Q68 73 68 91T66 127V154Q66 168 65 181T66 209V243Q66 261 66 278T64 313Q64 318 64 321T65
330Q65 351 65 368T64 401T64 436T63 476V504Q62 515 62 526T61 549V552Q61 556 62 559Q63 560 73 562Q78 563 86 562Q93 560 103 560T125 561Q135 561 141 559T148 555V399Q147 391 147 384T147 368Q146 357 146 346T147 324V307Q147 304 147 301T146 293Q145
291 145 286T145 274T146 262T147 254Q148 227 147 222T145 214Q144 200 145 186T147 158Q148 139 148 121T147 83Z" />
<glyph unicode="J" glyph-name="J" horiz-adv-x="494" d="M200 -40Q198 -41 192 -42T180 -43T167 -45T158 -46Q145 -48 134 -44T112 -41Q109 -41 100 -39T81 -34T64 -29T58 -27Q40 -20 34 -17T20 -12Q16 -7 13 -6T10 0Q12 2 16 9T24 26T33 45T39 59Q44 56 54 52T77
44Q86 41 96 39T117 35L133 33Q158 30 183 36T223 62Q237 76 244 86T256 103T262 115T269 124Q274 132 275 143T279 163Q284 184 285 201T291 236Q290 247 290 259T291 282Q292 290 292 301T292 320Q293 340 292 358T291 397Q291 410 291 431T290 469Q289 479 288
487T288 506Q288 511 286 520T281 534Q270 534 256 534T229 534Q211 533 200 533T178 532T157 532T127 533Q115 534 102 533T77 532Q72 540 74 554T71 581Q71 585 71 589T77 597H93Q104 596 116 596T139 597Q147 598 158 598T177 598Q197 601 215 599T254 597Q267
597 288 597T326 596Q331 596 346 595T379 593T412 592T433 592Q444 592 457 592T483 586V552Q483 548 483 544T483 534Q477 534 460 532T427 524V519Q428 517 428 507T428 485T428 463T427 452Q427 434 426 418T423 383Q423 375 422 370T421 356Q421 346 421 338T416
322Q416 309 413 294T410 265Q409 247 406 230T402 194Q400 174 392 156T382 118Q382 115 380 109T374 95T367 81T362 72L350 55Q348 52 342 43T330 30Q322 23 313 15T294 -1T277 -14T265 -20Q261 -21 252 -24T233 -30T216 -37T208 -40H200Z" />
<glyph unicode="K" glyph-name="K" horiz-adv-x="487" d="M353 105Q365 94 377 85T398 66Q404 61 414 53T432 41Q437 36 443 32T454 24Q459 19 464 15T472 4Q471 2 470 -1Q468 -6 465 -9Q457 -17 452 -24T442 -37L434 -45Q432 -47 432 -48Q427 -48 423 -44T414
-36Q401 -28 397 -24T379 -15Q376 -13 369 -9T358 -3Q345 1 333 10T307 27L229 78Q219 83 211 89T192 100Q185 104 181 107T170 116Q162 121 153 126T136 134L128 138V132Q128 124 127 117T125 105Q124 79 122 54T120 2Q120 -6 120 -14T114 -30H109Q97 -30 89 -30T70
-30Q62 -31 56 -31T42 -30Q41 -27 39 -25T37 -20Q39 -2 37 36T34 122Q34 135 34 147T34 172Q32 188 32 204T33 237V265Q33 280 32 295T31 327Q31 335 31 343T33 359Q33 367 32 376T32 393Q32 396 32 411T33 444T33 479T32 506L30 557Q35 562 36 562T43 563Q45 563
46 563T48 562Q49 562 59 562T81 561T103 560T115 558Q116 550 116 545T116 535T115 524T114 507V488Q110 460 110 432T109 376Q108 346 107 333T105 301V280Q105 275 105 272T109 269L114 274Q119 279 124 285T133 296Q134 298 139 303T146 311Q157 329 165 337T182
359Q188 368 193 377T207 394Q207 394 209 396Q214 407 221 416T235 437Q243 448 250 460T266 483L325 570L337 588Q339 591 343 595T351 601Q355 598 363 593T382 580Q390 575 397 570T410 552Q410 549 403 538T388 515T373 492T365 479Q359 469 355 459T345 443Q337
433 331 422T317 399Q306 382 294 367T269 337Q258 322 247 308T233 292Q226 284 219 278T205 264Q198 257 193 250T183 236Q187 233 188 230T195 224Q207 216 220 204T245 184Q262 175 276 164T307 138Q311 133 319 129T336 116Q340 112 344 110T353 105Z" />
<glyph unicode="L" glyph-name="L" horiz-adv-x="483" d="M41 560Q53 559 74 560T115 560Q134 560 142 561T157 562Q164 562 172 559V494Q172 466 171 448T169 417T167 396T166 381V318Q166 309 167 298T167 281Q164 273 166 263Q167 258 167 250T167 232T167
215T168 203Q168 193 168 172T167 129T166 85T166 54H210Q220 50 228 51T245 49H306Q328 44 352 43T397 44H437Q438 42 440 40Q441 38 442 36T443 32Q442 26 442 17T442 -2T441 -17T439 -24H391Q366 -25 348 -25T312 -26H260Q244 -22 231 -22T204 -22H193Q185 -22
177 -22T159 -22Q145 -22 124 -24T87 -26H47Q42 -12 42 -1T41 20V70Q46 78 44 86T41 105L43 167Q41 187 42 207T43 248Q42 252 42 260T42 277T42 294T41 308Q39 318 42 326Q43 332 42 343T41 363V560Z" />
<glyph unicode="M" glyph-name="M" horiz-adv-x="802" d="M328 212Q323 219 318 227T305 245Q291 264 281 281T265 304L237 336Q234 340 230 347T224 357Q219 364 215 371T205 385Q199 393 191 405T181 417L182 372L175 291Q175 286 175 270T173 234T172 199T171
177Q170 156 168 140T167 103Q167 93 166 85T165 66Q165 61 165 57T164 47Q165 33 164 19T163 -10Q151 -15 142 -16T118 -17Q114 -18 108 -18T95 -19T85 -20T82 -21Q77 -21 71 -22T56 -23Q52 -23 48 -23T40 -17L44 14V20Q43 35 42 49T43 75Q44 81 44 91T45 112T45
133T44 152Q42 168 42 179T41 217Q42 238 42 250T41 283V292Q41 306 40 317T39 336Q43 357 42 377T42 421Q43 438 43 454T42 487Q42 504 43 521T45 555Q45 563 46 564T56 566H159Q164 561 171 550T183 531Q191 521 198 508T212 485Q220 468 229 459T244 435Q249
430 252 424T260 413Q265 405 273 393T289 373Q302 356 311 342T335 312Q343 301 349 292T362 272Q370 263 379 252T401 226Q403 227 408 233T417 245Q426 254 435 268T454 293L464 313Q466 317 469 320T474 327L501 368Q505 378 517 393T542 429L547 435Q557 452
565 467T581 500Q587 513 593 520T607 541Q611 549 611 551T615 560H706Q723 556 730 556T740 556Q745 556 749 556T762 555V514Q758 497 758 484T757 458V357Q757 339 758 323T759 287Q760 282 760 277T760 265Q761 254 761 249T761 233V220Q760 214 759 200T757
170T756 140T755 119Q755 111 756 99T757 79Q757 59 757 38T751 -5V-28Q747 -33 741 -33T729 -34Q720 -32 711 -33T697 -34H620Q618 -20 617 -6T616 21Q616 27 616 38T617 61T617 85T616 102Q616 109 617 123T618 145L617 179Q617 189 617 195T616 207L614 226Q614
228 614 231T615 237Q611 260 614 282T616 325Q617 332 617 338T617 350L615 402V413Q611 415 611 415Q610 414 610 413Q597 401 587 388T567 357L536 308Q531 299 524 288T510 264T497 242T484 224Q481 220 476 212T464 195T451 175T438 157L434 151Q429 149 421
149T407 150Q398 150 389 150T371 149Q363 157 355 171T341 193L328 212Z" />
<glyph unicode="N" glyph-name="N" horiz-adv-x="530" d="M256 361Q276 327 298 289T347 209Q352 195 359 184T375 164Q379 156 385 145T397 125L399 129V180Q399 182 399 182T400 185Q396 208 398 226T399 266Q400 273 400 279T400 291L398 343V467Q398 471 398
482T399 506T399 533T399 553Q399 557 400 560T410 564H443Q452 564 464 561T480 558H485Q485 524 485 489T486 422T488 364T490 321Q489 313 489 306T489 290Q488 279 488 268T489 246V198Q490 171 489 155T487 136Q486 122 486 108T486 80Q487 61 486 43T486
5Q486 -3 486 -10T487 -25Q487 -30 476 -30H443Q431 -32 424 -31T414 -30Q409 -17 405 -9T397 8T387 24T375 45Q372 50 367 58T358 72Q352 79 348 88T335 106Q322 126 310 147T284 191Q270 212 252 234T216 285Q208 304 193 324T166 362Q166 364 166 354T165 332T165
309T164 298V290Q165 282 164 275T163 259L161 135L163 83Q163 77 163 71T163 58Q165 44 164 29T164 -2Q165 -16 164 -22T160 -30H81Q73 -30 65 -30T48 -30Q47 -30 47 -22T46 -2T46 22T46 40Q46 54 46 68T46 97Q46 111 47 124T47 152Q47 162 47 168T46 180L44 195Q44
197 44 197T45 200Q41 223 42 245T42 288Q43 295 43 301T43 313L41 365L44 489Q44 497 44 504T42 520L48 529Q53 529 65 529T93 529Q106 529 112 530T127 532Q132 532 135 531T145 529H166Q169 521 174 512T185 493Q196 471 201 456T212 433Q216 428 222 419T234
400T245 380T256 361Z" />
<glyph unicode="O" glyph-name="O" horiz-adv-x="510" d="M467 431Q472 407 478 382T485 330Q489 318 489 302T490 274Q490 261 490 252T485 228Q485 216 484 200T477 172Q474 165 474 154T469 132L457 104Q450 87 442 71T425 43Q423 39 418 33T406 20T394 7T383
-3Q374 -12 365 -19T344 -32Q340 -34 336 -35T327 -38Q314 -40 303 -41T281 -44Q274 -44 263 -44T239 -44T217 -42T204 -40Q186 -33 171 -26T142 -5L100 30Q78 48 65 71T44 121Q39 133 38 143T32 161Q27 190 24 214T21 264Q22 276 22 291T24 320Q25 323 27 335T31
360T35 386T38 402Q47 431 56 454T82 496L111 528Q116 533 123 537T137 546L159 559Q169 566 188 571T220 579Q233 581 248 582T280 583Q294 583 303 580T325 573Q329 572 337 570T354 563T374 552T391 538Q397 531 408 524T425 507Q427 503 430 499T437 491Q445
479 456 461T467 431ZM258 206Q262 206 263 208T269 211Q276 212 279 217T287 228Q291 250 291 268T292 308Q292 316 288 323T275 335Q266 340 261 340T248 335Q246 335 244 334T240 332L236 330Q231 321 227 313T223 297V247Q225 231 231 222T248 206H258Z" />
<glyph unicode="P" glyph-name="P" horiz-adv-x="356" d="M324 319Q316 305 309 295T289 273Q281 266 270 259T248 244T228 233T214 228Q198 226 184 223T154 219Q149 217 142 218T127 219H116Q115 207 114 193T112 162T109 132T107 105Q106 88 103 70T101 38Q101
34 101 24T100 2T98 -17T97 -25Q92 -30 83 -30T66 -33Q55 -33 47 -34T31 -35Q32 -23 32 -6T32 30T32 68T31 103Q31 117 33 134T34 167V247Q35 255 34 267T33 288Q31 316 32 345T32 396Q30 410 30 425T31 454Q31 473 31 491T31 530Q31 540 31 550T31 569Q36 574
42 574T52 575Q64 577 80 577T113 578T147 576T176 573Q187 572 199 570T225 565Q237 563 244 561Q270 547 290 531T322 494Q328 485 333 473T341 444V377Q339 365 335 348T324 319ZM218 354Q223 384 220 413T211 456Q210 459 207 464T197 475T184 486T169 493L158
495Q130 503 110 502Q110 492 110 482T109 460Q109 440 109 420T107 385Q108 368 108 357T109 328Q109 323 109 316T108 301T108 287T109 280Q120 276 150 281Q155 282 168 286T191 300Q201 310 207 324T218 354Z" />
<glyph unicode="Q" glyph-name="Q" horiz-adv-x="581" d="M347 577Q353 577 366 573T394 562T421 550T439 541Q462 526 480 507T503 479Q511 464 519 452T533 423L549 367V333Q551 330 551 326T551 319Q551 304 551 290T550 261Q550 257 549 249T547 232T545 216T543
204Q542 190 537 175T527 147Q520 129 510 102T477 54Q474 52 481 47T493 36Q498 30 503 22T514 9Q516 7 517 7T520 4L527 -5Q527 -10 522 -13T510 -19Q510 -19 508 -20T501 -25T491 -31T483 -36Q466 -28 451 -18T420 0Q410 -4 402 -8T385 -18Q381 -18 377 -20T370
-23Q359 -28 354 -29T340 -34Q336 -34 332 -36T324 -39Q303 -39 274 -37T226 -28L186 -13Q169 -5 153 10T125 36L115 46Q104 57 98 67T83 90Q75 101 67 114T54 143L46 169Q42 191 38 209T30 250Q30 261 30 273T35 300Q35 316 35 333T41 367Q41 369 45 381T53 407T62
434T68 450Q69 452 73 458T83 471T93 484T100 493Q114 510 127 521T154 546Q163 554 184 562T226 578Q238 581 249 581H260Q282 581 306 581T347 577ZM165 304Q165 293 165 286T164 271Q164 259 165 243T172 215Q177 190 178 178T183 154Q186 142 190 135T199 119Q202
116 207 111T218 100T230 90T239 84Q269 59 311 67Q315 67 322 70T335 79Q331 83 327 87Q320 94 316 100L312 107Q323 117 336 121Q347 126 358 133T380 147Q381 145 382 144T385 140L387 136Q389 133 392 127T397 119Q400 114 401 113T407 108Q409 108 414 119T421
136Q424 156 425 169T428 203Q428 211 430 222T433 242Q433 253 433 266T431 294Q430 297 428 310T424 327Q421 338 418 346T412 362Q406 375 402 389Q399 394 397 403T391 418Q386 422 382 428T370 440Q359 449 350 456T329 469Q315 474 304 473T280 472Q275 472
269 471T257 467Q236 460 223 444T196 411Q187 397 183 381T175 351Q174 346 173 340T170 329Q168 323 167 316T165 304Z" />
<glyph unicode="R" glyph-name="R" horiz-adv-x="428" d="M51 246Q50 256 51 265T53 283Q53 299 53 313T52 344V391Q52 396 52 401T50 412V505Q51 517 51 534T50 557Q50 560 49 563T49 568Q54 568 59 569T74 570Q82 571 90 572T108 573H153Q161 573 167 573T183
570Q184 569 185 569Q186 568 191 568Q197 570 208 569T232 567Q240 566 247 563T259 560Q261 560 269 557T286 549T302 541T313 536Q326 531 337 524T355 507Q364 501 368 492T378 474Q381 470 382 464T387 453Q392 446 394 433T397 404T397 374T395 346Q393 336
391 328T387 308Q386 303 383 297T377 286Q369 267 351 249L342 239Q338 237 335 234T328 228Q323 223 317 220T305 212Q291 212 282 207T260 206Q250 206 242 204T226 201H220Q220 196 231 184T247 162Q255 154 261 148T276 132Q289 120 295 113T314 93Q320 88
328 74T343 54Q349 45 350 42T356 35Q364 24 369 16T380 -1Q375 -10 366 -19T343 -37Q341 -34 337 -32T331 -25Q329 -23 318 -13T298 6Q293 13 282 24T256 48Q242 60 231 72T214 92Q211 95 204 101T189 114T174 127T164 137Q162 135 162 134T160 130Q159 128 159
126Q159 106 158 89T156 54Q156 45 156 36T155 14V-21Q153 -21 148 -21T137 -23Q126 -25 116 -25T95 -24Q82 -24 74 -24T57 -20Q52 -20 51 -20T45 -15L46 64L48 77L46 109L48 211Q50 224 50 230T51 246ZM225 363Q227 375 227 387T226 410Q226 416 222 418Q219 423
217 425T211 429Q204 435 196 438T180 444Q177 444 175 440Q174 438 174 437V335H191Q196 340 201 340T210 346Q216 351 219 353T225 363Z" />
<glyph unicode="S" glyph-name="S" horiz-adv-x="555" d="M248 581Q258 585 278 583T310 581Q317 581 328 581T353 579T377 577T395 576Q404 576 420 576T444 571Q448 569 461 568T478 565Q483 565 484 565T489 560Q489 550 487 542T484 525Q477 525 469 524T455
522Q445 520 440 520T421 521Q409 521 396 520T371 518T353 516T344 515Q333 513 315 509T278 500T243 487T221 473Q212 460 204 453T191 431Q189 427 189 418T189 398T192 377T197 362Q205 353 210 344T218 333Q225 329 235 323T257 312Q259 311 269 310T294 304Q302
302 304 301T313 298Q318 296 320 295T327 292Q333 290 340 289T349 287Q357 287 365 285T382 282Q396 278 408 276T433 265Q440 263 448 260T461 254Q464 252 472 248T490 237T507 224T517 212Q527 196 531 180T535 146Q535 141 534 133T531 120L526 92Q524 87
517 74T508 59Q507 57 503 53T495 44T486 36T481 31Q474 25 460 15T429 -5T397 -23T371 -31Q369 -33 366 -33T360 -34Q349 -34 339 -35T312 -36Q297 -35 284 -36T254 -37Q246 -37 230 -37T196 -37T162 -35T135 -31Q134 -31 129 -30T117 -29T104 -27T95 -26Q87 -25
72 -23T50 -19Q46 -17 42 -14T37 -5Q35 -1 32 10T25 34T21 57T21 67Q38 63 55 60T95 52Q112 52 129 49T168 45Q176 45 185 46T208 50Q211 51 214 51T219 52Q234 52 254 61T285 76Q286 76 290 79T300 86T309 95T315 101L334 130Q336 135 339 141T345 153Q351 168
345 191Q339 196 336 202T326 215Q321 223 314 227T299 236Q285 241 273 245T253 250Q239 254 231 255T214 260Q201 264 192 265T174 271Q161 271 152 274T128 282Q123 285 117 288T108 293Q94 304 84 311T63 332Q53 345 49 349T39 366Q37 371 35 379T32 396T31
412T30 423Q30 436 31 444T33 461Q34 469 38 478T47 493Q58 513 72 521T104 543Q108 546 116 550T134 559T153 566T168 571Q176 571 182 573T197 576Q205 576 209 577T222 578Q227 578 232 578T248 581Z" />
<glyph unicode="T" glyph-name="T" horiz-adv-x="474" d="M306 -23Q304 -23 299 -24T289 -25T281 -26T278 -27H229Q213 -25 203 -25T184 -25Q182 -25 180 -24T177 -21Q176 -12 176 6T177 34V48Q179 65 178 78T177 109V131Q182 153 180 177T177 221V476Q177 486
172 486Q158 487 150 487T128 486Q122 486 108 489T88 491Q83 489 68 491T47 493Q42 493 38 493T30 497V559Q34 561 42 561T58 561Q68 561 76 561T91 562Q93 562 105 561T125 559Q131 561 137 561Q152 562 165 561Q174 560 178 561T190 562H206L233 560Q243 560
253 560T273 560Q296 558 317 558T353 561Q360 561 378 559T413 556Q424 555 431 556T443 556V510Q443 506 444 505T443 496Q442 492 435 492T424 491Q398 487 377 488T335 489Q327 489 323 489T312 488V465Q312 457 312 441T311 416Q311 412 311 410T311 405T309
395T305 376Q305 359 305 347T305 325T306 306T306 283V273Q302 256 304 239T306 205V-23Z" />
<glyph unicode="U" glyph-name="U" horiz-adv-x="720" d="M689 517Q689 509 690 508T689 496V330Q689 310 686 289T683 247Q683 229 681 216T679 188Q679 180 676 163T667 132Q663 128 662 121T656 105Q655 103 649 94T636 74T622 56T615 46Q602 35 595 29T570
15Q568 13 559 12T548 9Q540 5 529 4T504 -2H486Q475 -4 464 -4T446 -5Q434 -5 417 -5T381 -4T344 -3T312 -2Q298 -2 283 1T256 9Q254 11 248 11T238 14Q234 16 226 19T208 26T192 34T182 40Q163 50 138 72T97 130Q90 145 83 157T73 184Q70 198 68 212T63 240Q61
251 62 261T63 284V320Q62 330 61 346T63 371V528Q64 529 68 529T79 531T91 532T101 533Q115 533 126 531T146 528Q160 526 172 525T198 528Q203 524 203 518T204 507Q204 489 203 472T200 432Q200 416 199 395T198 354V303Q198 281 198 263T204 223Q204 220 206
210T211 187T216 164T221 150Q225 146 228 140T233 127Q240 112 253 103T281 83Q292 74 304 69T332 59Q334 58 339 58T350 58L376 56Q384 55 393 55T411 56L429 60Q430 60 436 62T448 68T461 73T470 78Q487 89 496 99T513 127Q515 133 520 146T528 165Q533 180
534 192T538 217Q538 225 538 256T540 346Q541 367 541 388T541 430Q542 452 541 475T542 517H548Q562 513 577 515T611 517H644Q649 517 659 516T689 517Z" />
<glyph unicode="V" glyph-name="V" horiz-adv-x="573" d="M398 108Q396 103 393 96T387 80T380 64T376 52Q368 23 365 13T356 -6Q355 -8 351 -15T345 -24Q340 -25 340 -25T333 -24Q328 -24 321 -26T303 -28Q299 -28 292 -27T276 -26Q272 -26 271 -25T266 -24Q261
-23 254 -23T241 -23Q233 -23 228 -23T214 -22Q209 -18 208 -14T202 -4Q198 14 193 28T180 58Q175 66 172 73T169 85Q169 84 166 91T160 103Q155 115 147 141T129 187Q122 204 115 225T99 263L73 338Q70 345 67 349T61 361Q59 367 57 373T54 385Q50 389 49 396T44
408Q40 425 36 438T27 464Q23 477 19 485T11 505Q11 507 11 510T16 515Q24 519 30 523T44 532Q52 536 63 541T83 555Q88 560 94 562T105 566Q110 569 110 569T115 570L118 566L134 537Q137 532 141 519T150 494L169 441Q170 439 174 427T185 396L194 360L206 333Q210
325 212 315T217 297Q222 286 223 278T225 266Q237 229 250 193T287 120Q287 124 290 125T293 130Q297 148 307 162T322 199Q323 202 324 209T327 219Q333 230 335 244T348 273L359 303Q365 318 369 328T376 349Q381 357 383 368T389 390Q391 399 394 407T400 424Q402
431 404 435T409 447Q411 453 414 459T419 471L431 505Q434 510 434 518T439 532Q444 540 445 545T450 561Q450 563 453 565Q454 566 456 566H468Q481 558 488 556T510 546Q519 543 531 537T552 526L563 515Q563 511 561 507T558 498Q553 489 550 481T541 459L532
434Q529 417 519 402T507 379Q503 364 495 351T479 319Q474 309 471 295T463 272Q458 264 457 257T450 243Q448 240 446 231T442 216Q441 214 438 207T431 189Q427 177 424 169T420 159L398 108Z" />
<glyph unicode="W" glyph-name="W" horiz-adv-x="866" d="M722 550Q745 548 763 547T805 546Q810 546 814 546T822 545H849Q854 545 855 545T856 539Q856 534 855 526T849 510L805 393Q803 388 800 380T794 361T787 342T782 328Q779 325 774 313T762 286T750 259T741
242Q738 236 736 227T729 206Q720 187 710 162T693 123Q690 119 687 111T681 93T674 76T669 63Q663 52 660 40T651 16Q647 6 644 -6T637 -27H621Q616 -27 612 -26T597 -27Q589 -27 577 -28T560 -27H525Q521 -27 518 -24Q516 -23 514 -21Q515 -15 510 -5T502 18Q497
27 496 36T491 53Q486 73 481 90T470 124Q462 146 456 167T441 210Q437 225 431 242T421 270Q421 271 421 271T420 273Q419 274 419 275Q417 275 417 272T414 266Q414 267 412 261T405 246T398 228T394 215Q389 191 380 163T364 113Q357 102 353 87T346 57Q343
44 339 31T329 8Q329 8 327 3T323 -9T318 -20T315 -27H219Q214 -27 210 -24T205 -15L197 17Q195 22 191 32T184 52T177 72T173 87Q168 99 166 109T158 131Q156 138 153 148T145 168T139 188T135 203Q134 211 132 217T126 230Q122 238 123 240Q123 240 119 251T109
275T100 301T95 317Q92 331 85 347T76 378Q74 387 70 390L59 417L54 425Q52 432 48 445T39 472T30 498T22 516Q17 520 16 527T10 539Q10 544 10 544T16 545Q26 547 35 545Q45 544 55 545Q70 546 93 543T135 538Q139 538 142 533Q145 530 145 527Q145 522 147 516T152
503Q158 478 164 451T176 403Q179 398 183 386T190 360T195 335T199 320Q205 308 208 296T216 273Q217 271 219 266T223 256T227 245T229 239Q237 217 242 199T256 164Q266 148 269 133T281 105Q281 102 283 100Q284 99 284 98Q288 98 291 103Q306 138 315 176T339
253Q347 279 355 305T368 362Q370 370 371 375T375 383Q383 386 390 385T401 383H441Q446 384 451 383T458 374Q469 350 474 325T486 275Q494 258 499 239T512 204Q519 186 523 167T532 129Q539 115 541 99T551 74Q557 74 559 77Q560 78 560 80Q558 82 561 88T566
102L581 147L600 192Q603 203 610 222T621 250Q626 262 629 273T636 296Q637 302 639 312T645 332T651 352T656 368Q659 376 662 381T668 395Q675 414 682 437T696 482Q701 496 704 508T711 530Q713 533 717 540T722 550Z" />
<glyph unicode="X" glyph-name="X" horiz-adv-x="598" d="M515 52Q519 43 526 35T539 18Q543 9 547 4T560 -10Q565 -14 566 -18T566 -23Q563 -24 559 -24Q557 -24 556 -25Q553 -28 528 -28H470Q462 -28 454 -24T443 -10Q435 -2 426 14T403 41Q389 62 375 81T350
113Q342 127 330 143T306 175Q302 180 301 181T295 186Q293 183 288 176T276 159T264 142T255 130Q247 118 239 109T220 90Q209 73 197 57T170 23Q165 15 159 7T149 -10Q144 -15 139 -16T126 -17H30Q30 -14 31 -8T36 1Q48 18 60 37T87 74Q103 96 122 117T153 164Q166
181 179 199T205 237Q209 243 210 247T216 255Q219 259 220 264T228 277Q212 294 204 308T189 331Q183 339 179 346T168 361Q156 378 147 389T131 415Q127 422 111 438T86 473L78 487Q67 504 61 511T52 520Q48 528 42 536T32 554Q32 556 32 557T32 560H149Q152
556 155 554T161 543Q165 536 172 530T183 514Q191 503 199 489T216 458Q219 454 222 448T229 434Q255 400 272 368Q277 363 279 360T284 357Q289 359 296 368T306 384Q314 394 319 402T335 418Q339 422 342 429T351 442Q358 456 365 467T380 492Q388 505 393 517T407
541Q408 545 411 548Q412 549 413 549Q443 549 476 548T544 542Q544 540 542 536T535 527Q531 522 529 517T520 504Q512 490 504 478T488 453L453 402Q450 400 449 394T443 384Q438 380 435 373T426 357Q412 339 403 324T386 295Q381 285 378 280T368 266V260Q377
249 388 233T408 204Q412 196 419 190T432 175Q436 167 440 162T447 148L457 129Q460 123 465 119T473 109Q485 89 497 74L515 52Z" />
<glyph unicode="Y" glyph-name="Y" horiz-adv-x="492" d="M173 471Q181 463 189 455T206 436Q210 428 214 423T225 409L245 388L256 398L261 406Q266 413 276 426T301 457L333 497Q332 496 334 500T340 508T345 516T347 519Q353 525 358 535T372 554Q377 561 381
568T390 583L398 599Q403 604 404 604T409 605Q423 595 432 585T455 562L460 556Q464 551 467 547T472 538Q471 536 468 531T460 521L422 465Q412 448 401 435T377 409Q367 399 359 388T342 369Q330 352 318 339T296 313L292 308Q291 294 291 279T291 250T293 226T294
209Q294 207 294 204T293 199V193Q295 166 295 148T296 115Q296 93 296 75T298 35Q298 21 298 0T301 -36V-53Q300 -57 291 -57T279 -60Q270 -63 253 -63T223 -61Q221 -56 219 -55T215 -49V-25Q215 -17 215 -8T215 18Q215 21 215 26T214 37T213 48T213 56Q215 79
216 96T217 132Q216 151 218 164T221 183V216Q220 227 219 239T219 253Q220 255 220 257T219 262Q219 267 219 275T220 287Q220 295 217 299T209 308Q205 313 201 317T194 325L179 340Q171 345 159 363T133 395Q130 398 122 407T106 426T90 445T81 456Q79 457 77
461T71 469T66 478T63 483Q58 490 54 494T45 506L20 544V549Q29 554 34 561T48 573Q53 577 59 583T70 594H83Q87 586 93 578T104 562Q105 559 108 556T112 551Q114 550 120 543T129 531L144 510Q149 504 151 501T159 489Q161 487 165 480T173 471Z" />
<glyph unicode="Z" glyph-name="Z" horiz-adv-x="546" d="M524 59Q525 58 525 50T525 31Q525 23 525 15T524 1Q521 -1 515 0T503 -1L395 -3H371Q362 -2 342 -2T313 -3Q305 -3 297 -3T280 -4Q263 -3 255 -2T230 -2Q218 -3 207 -4T183 -5H140Q132 -5 122 -5T98 -6Q93
-4 76 -4T45 -3Q40 -4 36 -4T27 -3Q23 2 23 3T22 8Q22 16 23 25T23 42Q23 47 22 51T20 57Q20 58 24 62T33 72T45 83T56 92L78 116Q91 128 101 141T124 166Q135 179 148 194T174 222L206 264L255 318Q260 323 267 333T278 349Q279 351 284 357T295 371T306 386T312
395Q313 396 319 405T333 424T347 442T355 453L361 466Q361 471 357 471T349 470Q335 470 323 470T297 469Q277 469 259 469T224 470H118Q116 470 115 471Q112 472 112 475Q115 488 113 503T111 531Q111 539 120 539H153Q160 539 172 539T197 540T222 540T242 541Q251
541 260 542T279 543Q287 543 295 543T312 542Q326 542 341 541T371 541Q373 541 377 541T384 540Q399 537 414 538T445 539Q456 538 469 539T489 538Q499 536 505 537T516 538H521Q522 537 524 528V472Q516 463 512 457T498 442Q496 440 487 427T464 398T438 364T416
335Q413 330 405 320T387 299T369 277T358 262Q347 243 334 227T308 193Q300 185 292 177T276 161Q270 153 265 145T253 128Q241 114 231 99T209 73Q217 71 228 70T242 70Q247 72 253 70Q267 69 286 67T320 64Q331 63 346 63T372 63H381Q395 62 407 60T433 60Q441
61 450 61T467 59H473Q485 59 491 59T510 60Q514 60 519 60T524 59Z" />
<glyph unicode="[" glyph-name="bracketleft" horiz-adv-x="229" d="M166 3Q174 1 180 0T195 -2Q198 -2 202 -2T208 -5Q208 -7 208 -9T209 -13Q209 -15 209 -17T208 -22Q208 -27 208 -31T209 -41Q209 -46 209 -50T208 -59Q200 -60 192 -62T170 -63H146Q135 -63
124 -64T104 -63Q95 -63 87 -61T70 -59Q61 -59 54 -57T36 -55Q35 -56 34 -55Q32 -55 32 -51Q32 -28 33 -6T32 41Q32 47 32 53T28 65Q28 79 26 92T24 120V137Q24 153 24 165T24 203Q23 215 22 230T20 261Q20 270 20 278T24 295Q24 321 26 347T28 403V599Q28 611
28 614T28 629Q27 637 26 651T28 667Q30 667 33 665T39 661Q43 660 46 660T54 661H100Q115 661 130 662T162 660Q172 660 180 660T196 661Q199 661 200 661T203 659Q206 653 206 648T205 630Q205 624 206 618T204 603Q201 603 199 603T191 604Q188 604 183 602T174
599Q166 599 159 595T140 591Q137 591 134 590T128 581V561Q128 557 128 547T126 525T125 503T125 491Q127 481 125 473T124 453Q125 447 125 439T124 423Q123 420 123 412T124 395T126 378T128 365Q128 353 128 338T129 308T129 283T128 273Q130 264 130 259T130
247T129 229T128 195Q128 188 129 183T130 169Q130 157 130 141T128 115Q126 100 125 85T124 53V41Q125 35 125 27T124 11Q136 8 146 7T166 3Z" />
<glyph unicode="\" glyph-name="backslash" horiz-adv-x="478" d="M60 676Q55 676 44 676T31 672Q29 670 32 667T38 659L46 645Q52 635 56 624T65 605Q67 602 69 596T74 581T80 565T88 552Q96 541 99 526T109 498L134 447Q137 438 141 427T151 405Q154 393 159
383T168 359Q171 353 174 345T180 330Q187 311 194 290T214 242Q219 231 223 225T231 208Q240 192 247 177T260 145Q268 124 277 107T298 69Q302 61 307 49T315 27Q321 10 328 -8T344 -44Q344 -51 345 -51Q347 -53 351 -53T357 -52Q369 -54 380 -54T407 -52Q410
-51 415 -51T424 -52Q427 -52 432 -53T447 -53Q449 -49 446 -47T440 -40Q438 -33 435 -25T428 -10Q422 6 416 17T403 44Q393 64 385 86T369 128Q360 147 352 165T336 204Q323 245 311 272T281 334Q274 348 269 362T256 393Q248 408 243 423T231 452Q228 458 224
466T214 481Q214 490 209 499T201 515Q195 527 192 539T180 565Q178 571 175 580T169 598T163 613T159 620Q154 628 150 641T140 666Q138 670 138 672T132 681Q130 684 118 683T97 680Q91 678 91 678T84 678Q74 678 71 678T60 676Z" />
<glyph unicode="]" glyph-name="bracketright" horiz-adv-x="230" d="M207 138Q210 129 209 117T207 92V72Q207 69 207 65T205 51T204 25T203 -20Q203 -26 205 -34T207 -50Q207 -58 203 -58Q192 -58 183 -60T165 -60Q159 -59 153 -59T139 -60Q124 -63 112 -64T85
-65Q79 -65 73 -65T61 -66Q56 -68 49 -68T34 -67Q31 -67 27 -67T21 -64Q19 -62 21 -60T25 -52Q26 -44 26 -35T23 -20Q23 -17 22 -15Q20 -11 21 -7Q23 -5 28 -3Q31 -2 40 -2Q50 -2 59 -2T81 -3Q84 -3 93 -2T108 0Q108 7 108 10T107 18Q107 24 107 30T108 42Q108
51 108 58T107 76V134Q107 169 107 203T111 272Q111 296 109 321T107 370V508Q107 517 106 529T103 550Q102 556 101 562T99 574Q99 584 97 592Q86 592 74 592T50 592Q45 593 40 593T30 594Q27 600 27 607T28 624Q25 632 25 638T26 653Q26 654 27 655Q29 657 30
657Q34 657 37 657T44 656Q48 656 51 656T57 657Q66 657 75 656T99 655Q108 658 117 658T135 657Q149 657 160 658T186 656Q187 656 190 657Q192 657 194 657T199 658Q202 655 204 652T207 646Q204 629 204 616T203 588Q206 574 205 562T204 534Q204 508 205 481T207
426V276Q210 253 210 229T207 184V138Z" />
<glyph unicode="^" glyph-name="asciicircum" horiz-adv-x="307" d="M274 397Q257 394 243 394Q236 394 234 395Q230 397 228 401T223 408Q219 411 216 416T207 427Q200 433 197 438T188 449L179 458Q171 470 163 472Q152 467 142 457T121 438Q108 425 96 410Q94
408 92 404T88 400Q85 400 82 400T74 399Q69 399 65 399T55 400Q50 400 47 400T37 400H28Q26 400 23 400T20 403Q20 406 24 408Q25 409 25 410T27 413L45 431Q50 439 57 449T73 467Q76 470 77 471T81 478Q86 487 93 498T107 514Q109 517 110 519T115 525L126 537Q128
542 133 547T143 558Q146 562 154 562Q162 562 168 561T186 561Q189 561 190 560T193 557Q198 553 199 549T203 542Q208 534 211 526T220 509L249 460Q252 455 255 451T262 441Q267 433 271 425T281 409Q287 403 287 399L274 397Z" />
<glyph unicode="_" glyph-name="underscore" horiz-adv-x="329" d="M20 -8Q23 -9 25 -9T31 -8H40Q48 -7 53 -6T66 -5Q73 -5 80 -5T95 -5H97Q119 -5 136 -5T171 -7Q191 -7 205 -7T233 -8Q244 -9 253 -9T274 -8Q279 -8 287 -8T301 -8H308Q308 -14 308 -20T309 -34Q309
-40 309 -45T308 -56Q308 -59 306 -60H301Q290 -60 283 -61T265 -62Q257 -61 251 -61T236 -62Q230 -62 223 -62T204 -62Q198 -61 190 -63T171 -64Q157 -65 144 -63T119 -62Q101 -62 84 -63T50 -62H47Q37 -64 24 -62Q23 -62 22 -55T20 -42V-8Z" />
<glyph unicode="a" glyph-name="a" horiz-adv-x="445" d="M399 -24L392 -25Q387 -26 386 -26T376 -25Q375 -25 370 -26T359 -28T346 -29T335 -26Q330 -26 328 -25T321 -24Q316 -20 316 -12T315 1V26L307 15L289 -2Q279 -9 273 -13T257 -23Q242 -32 225 -35T192
-38Q177 -38 161 -32T131 -21Q127 -20 124 -18T117 -13Q111 -8 104 -3T91 7Q88 9 86 11T79 16Q74 19 70 26Q65 37 58 47T45 72Q42 83 37 93T32 112Q32 117 31 129T30 146Q30 155 30 160T31 175Q31 180 32 185T36 200Q38 211 39 223T42 244Q49 257 51 260T56 271Q58
277 61 286T72 301Q75 303 81 308T93 319T105 329T112 334L130 342Q138 345 148 346T167 348L198 349Q203 349 209 349T218 348Q223 348 228 345T238 342Q243 342 250 339T263 330Q273 326 278 321T289 310Q294 305 298 301T308 291Q308 288 312 286Q314 285 315
284Q317 286 317 292T321 303Q322 317 322 328T324 344Q323 348 325 355T332 361Q334 362 341 361T357 359T375 356T392 355Q393 355 393 350T392 342L398 246V138Q398 135 398 132T397 126Q398 117 398 108T398 88Q399 81 399 74T398 58Q398 52 398 42T399 20T399
-1T399 -19V-24ZM270 127V130Q270 136 272 156T263 207Q260 215 254 224T235 238Q228 240 222 242T209 244Q202 242 192 235T174 218Q169 213 168 207T166 193Q163 180 162 173T160 155Q160 135 171 120T186 100Q189 97 191 97T199 91Q209 86 218 89T238 98H244Q253
103 259 108T270 123V127Z" />
<glyph unicode="b" glyph-name="b" horiz-adv-x="441" d="M230 83Q235 78 247 75T269 77Q281 89 288 109Q290 119 290 128T288 147Q291 165 285 174T269 199Q259 204 253 204T237 199Q235 197 228 189T214 169Q211 162 211 154T211 141Q211 139 210 131T212 113Q215
104 221 95T230 83ZM91 -38Q83 -38 75 -39T57 -39V32Q57 47 54 55T52 78Q54 96 54 115T52 153L50 185Q50 202 49 220T48 256Q48 265 48 274T47 293Q47 303 48 313T46 332Q46 336 46 346T46 368T47 394T49 417L50 521Q54 550 54 583T55 650Q66 653 81 653T112 650Q116
649 119 649T127 649Q128 649 130 648Q134 646 134 642Q136 622 135 603T135 563Q136 546 136 531T135 498Q134 481 135 471T135 444L134 420V381Q134 373 134 353T135 312Q135 291 135 275T134 251Q139 256 140 259T146 263Q156 273 166 285T191 302Q202 307 208
307T223 308Q243 313 265 313T307 308Q373 282 391 225Q396 215 400 206T404 186Q409 167 410 151T411 115Q411 104 410 93T406 71Q404 64 400 54T394 38Q386 17 376 4T346 -26Q341 -31 337 -35T327 -39Q317 -49 305 -54T282 -59H256Q240 -56 226 -52T198 -38Q196
-37 189 -33T173 -22T157 -9T146 6Q146 8 144 9T139 13Q138 3 138 -11T137 -39L91 -38Z" />
<glyph unicode="c" glyph-name="c" horiz-adv-x="391" d="M224 270Q212 268 202 264T183 249Q169 235 164 217T158 176V151Q163 141 165 129T177 108Q182 99 190 90T206 70Q211 67 219 66T232 59Q245 54 262 54T293 53Q300 54 307 56T329 59Q334 61 337 56T343
42Q346 37 349 30T354 16Q356 12 358 9T361 -1Q359 -2 356 -4T349 -9Q347 -14 340 -15T329 -21Q293 -39 256 -39Q247 -39 239 -39T219 -39Q210 -39 195 -34Q189 -34 177 -34T159 -33Q154 -32 150 -29T140 -24Q135 -22 130 -20T120 -16Q109 -11 101 -1T82 19Q73
27 63 40T50 63Q46 74 40 87T32 114Q30 120 30 124T30 132V176Q30 199 31 217T42 254Q47 264 51 276T66 298Q66 303 70 307T79 315L96 334Q107 339 113 343T127 353Q141 358 154 361T177 365Q193 368 203 370T231 367Q240 366 249 365T267 359Q275 357 279 356T289
353Q299 351 308 346T326 336L333 334Q334 334 334 327T331 311Q329 306 329 301T329 285V267Q329 265 326 262Q325 261 324 261Q319 261 315 262T306 264Q299 266 289 269T272 273Q259 273 248 273T224 270Z" />
<glyph unicode="d" glyph-name="d" horiz-adv-x="446" d="M320 351Q321 375 324 407T330 464Q328 479 330 494T331 525Q331 531 331 537T332 550Q337 574 337 599T342 654V666Q362 661 379 658T416 654Q411 639 410 624T409 595Q409 566 407 538T404 480Q404 474
403 468T402 455Q403 447 403 435T402 410T402 385T405 365Q402 341 403 317T404 268Q402 251 403 236T404 203Q404 186 404 169T405 135Q405 118 402 95T400 54Q400 30 399 12T397 -26Q397 -35 392 -37T376 -40Q362 -42 351 -41T326 -40Q316 -40 315 -36T313 -28V-10Q312
-9 311 -7Q310 -5 309 -5T307 -3Q302 -8 293 -10T275 -17Q260 -27 242 -31T203 -35Q189 -35 179 -35T159 -30Q154 -30 153 -27T146 -23Q126 -13 111 -3T82 22Q67 37 60 52T42 87Q38 101 37 115T30 144Q30 164 31 182T42 215Q47 240 61 259T94 292Q104 302 117 308T146
319Q156 319 168 319T191 325Q205 325 216 325T243 319Q247 314 255 312T268 305Q277 300 287 296T307 287Q312 291 312 299T317 319Q317 324 318 332T320 351ZM203 228Q184 218 175 198T165 158Q165 147 168 141T171 126Q171 111 180 101T203 80Q215 70 236 80Q245
91 256 101T268 131Q273 151 270 166T262 196Q257 210 244 219T216 228H203Z" />
<glyph unicode="e" glyph-name="e" horiz-adv-x="392" d="M338 192Q338 187 333 182Q330 179 324 178T313 177Q306 175 296 175T279 175Q265 175 258 175T235 172L175 167V155Q175 144 178 134T189 112Q194 104 201 97T215 88Q221 86 226 84Q231 82 235 81T244
80Q271 80 283 86T314 101Q318 101 322 105T329 110Q334 112 343 120T358 130Q361 128 360 117T361 95V84V64Q356 58 354 56T350 51T345 46T336 37Q318 19 298 13Q287 7 274 5T253 -1Q248 -2 244 -2T236 -3H228Q209 -3 191 -3T153 8Q146 7 134 12T117 22Q106 28
98 37T79 53Q65 63 59 74T48 97Q43 106 39 117T31 139Q31 150 31 160T30 180V217Q30 235 37 260T56 303Q59 307 63 311Q66 315 70 319T80 328Q83 329 86 331T97 337Q100 339 104 344T117 351Q128 355 138 359T153 364Q160 364 178 363T214 361Q223 360 229 358T238
356Q246 355 251 354T263 351Q281 345 289 339T304 325Q308 320 311 314T319 302Q324 296 328 286T335 265Q337 257 338 244T339 221Q339 211 339 206T338 192ZM252 250Q252 252 252 257T250 265Q242 278 228 280T202 281Q195 279 193 276T187 267Q185 265 184
263T181 259Q179 257 179 254T177 247Q175 242 175 240T177 230Q181 228 192 227T216 225T240 226T256 230Q257 231 255 235T252 250Z" />
<glyph unicode="f" glyph-name="f" horiz-adv-x="315" d="M231 625Q246 630 263 631T296 632H335V580Q332 580 330 580T326 579H322Q317 579 315 577T308 575Q294 570 284 565T263 555Q258 550 254 545T244 529Q239 519 235 510T231 491Q231 476 228 459T224 426Q224
412 222 401T219 374V362L232 360Q235 360 244 358T263 356Q272 356 280 356T291 355H308Q308 345 308 341T308 327Q308 324 307 319T305 309Q304 307 304 307T303 302Q302 301 298 302T286 302Q283 302 275 299T257 297Q253 297 248 296T239 294Q233 293 228 292T217
291Q215 271 212 241T208 191Q207 178 209 167T209 144Q209 141 210 138T209 133Q208 127 208 109T208 73T208 43T209 35Q211 30 211 23T212 10Q213 -2 213 -14T212 -29Q210 -31 208 -32Q205 -35 199 -35Q194 -35 187 -36T174 -37Q169 -37 161 -38T147 -40Q138
-40 124 -42T100 -44Q100 -34 98 -29T98 -13Q98 -12 98 -3T97 17T97 38T96 48Q94 58 94 76T95 113Q95 126 95 147T97 186Q97 194 97 212T99 239Q100 250 98 259T96 278V291Q82 293 65 293T35 291Q32 293 30 297Q30 307 30 316T31 335V349Q36 354 38 354T45 355Q55
355 71 355T97 355Q101 355 101 356T102 359T101 363T103 369Q103 383 104 388T105 409Q105 431 107 450T109 491Q109 498 110 501T113 510Q114 522 117 532L132 564Q140 578 147 585T162 601Q171 612 174 613T180 614Q182 614 186 616T197 621Q205 623 213 624T224
625H231Z" />
<glyph unicode="g" glyph-name="g" horiz-adv-x="423" d="M37 271Q37 273 40 284T45 296Q47 301 48 304T54 315Q58 320 64 327T73 337Q77 343 82 348Q86 353 94 358T107 368Q121 372 131 376T152 380Q172 380 190 379T223 373Q238 373 248 370T268 361Q273 351
281 346T294 335L300 329Q307 334 307 340T308 351Q310 357 310 361T312 368Q315 369 319 369T327 368Q336 368 350 369T371 368Q373 367 375 365T377 361V354Q377 348 377 339T378 320T378 301T377 286Q377 281 377 269T376 244T376 219T377 207Q377 197 376 185T376
168L377 136Q378 129 377 114T377 80Q378 73 378 60T377 32T376 5T375 -13Q375 -32 369 -51T357 -90Q352 -100 347 -109T332 -129Q328 -134 323 -141T313 -154Q308 -161 296 -169T278 -186Q273 -192 261 -196T244 -201L209 -213Q200 -218 191 -221T167 -226Q165
-226 163 -226T159 -226Q149 -226 143 -228T126 -231H120Q106 -231 102 -231T80 -231Q79 -231 74 -232T69 -231Q69 -212 68 -196T66 -165L73 -159H107Q121 -154 132 -153T159 -147Q173 -138 184 -129T210 -115Q220 -106 229 -97T243 -77Q252 -68 254 -58T262 -38Q262
-29 265 -20T268 0V26Q268 31 265 28Q263 27 262 26Q248 17 229 16T191 14H184Q170 15 157 20Q144 23 135 26T115 35Q112 37 106 39T86 50L74 64L52 88Q49 93 47 101T40 120Q38 126 35 133T30 148V232Q30 237 32 245T35 258Q35 260 36 262Q36 264 36 266T37 271ZM191
161Q196 161 200 162T210 168Q212 172 212 176T213 183Q218 191 217 193T216 200Q216 205 213 212T204 225Q199 230 197 230T184 225Q177 218 177 196Q177 194 177 187T178 174Q178 172 183 167T191 161Z" />
<glyph unicode="h" glyph-name="h" horiz-adv-x="465" d="M55 14Q54 22 53 38T50 70T48 100T48 118Q48 122 48 131T47 151T46 171T45 186Q46 217 46 250T48 313Q48 318 48 329T49 346Q49 351 48 359T49 373Q49 382 49 395T49 420T49 442T49 455Q48 460 48 479T51
514Q53 522 52 531T52 549Q55 564 55 579T55 610Q55 631 55 651T56 692H127Q126 680 129 663T133 633L139 501Q138 487 138 473T139 443Q138 427 138 411T139 377Q139 362 140 348T146 318Q151 323 157 327T169 333Q198 353 235 353Q240 353 249 355T268 357Q273
357 278 356T294 350Q309 346 323 338T351 325Q362 317 369 311T381 298T391 286T403 273Q418 254 423 238T429 203Q434 174 434 148T435 93Q435 68 434 44T430 3Q428 -10 429 -10Q404 -10 380 -11T326 -17Q324 -11 325 -3T326 10Q325 17 326 26T328 48Q328 66
327 87T326 125Q326 145 325 165T319 209Q319 218 317 228T314 248Q311 253 309 258T303 265Q296 269 288 278Q281 284 264 287T235 286Q226 281 217 277T203 267Q193 262 186 249T178 221Q158 172 158 112Q156 94 156 78T156 45Q156 36 155 28T153 10V-29Q128
-29 104 -32Q89 -34 75 -39Q70 -41 66 -43T56 -44Q52 -39 54 -29T56 -11Q55 -3 55 3T55 14Z" />
<glyph unicode="i" glyph-name="i" horiz-adv-x="189" d="M137 87Q139 67 138 51T135 21Q135 15 132 12Q122 10 109 9T85 8Q76 9 67 8T54 6Q54 12 53 17T53 31Q54 39 54 48T53 65V114Q52 137 52 161T51 193Q50 202 51 211T53 229Q52 243 52 257T53 286Q53 298
52 317T53 349Q61 351 73 351T99 352Q110 353 121 353T137 353Q139 353 139 348T138 340Q137 315 138 297T137 258Q138 238 138 224T135 189Q135 186 135 173T136 144T137 112T137 87ZM52 417Q51 422 51 432T52 453Q52 458 52 462T51 470Q51 472 51 473T52 476H124Q129
476 130 476T131 470V405Q125 404 113 404T87 404T64 404T53 407Q52 410 52 417Z" />
<glyph unicode="j" glyph-name="j" horiz-adv-x="289" d="M241 116Q239 92 237 75T234 39Q234 19 230 4T221 -26Q222 -30 219 -37T216 -49Q211 -61 206 -72T199 -95L176 -142Q171 -157 166 -167T150 -187Q145 -196 140 -202T125 -219Q120 -224 111 -232T92 -244Q85
-251 77 -253T63 -262Q57 -267 46 -269T26 -273L-12 -279Q-26 -284 -37 -284T-64 -280Q-66 -278 -76 -277Q-86 -275 -98 -275T-119 -271Q-135 -269 -149 -265T-174 -252Q-176 -251 -178 -249T-179 -245L-162 -223Q-155 -215 -151 -206T-138 -189Q-136 -191 -128
-194T-116 -200L-101 -206Q-91 -211 -78 -209T-49 -206H-36Q-21 -201 -7 -199T22 -181Q30 -173 35 -169T49 -156Q56 -149 67 -129Q72 -118 76 -105T86 -78Q91 -63 92 -49T99 -26V46Q104 84 102 118T99 187V264Q99 283 99 298T97 327Q97 332 93 334T88 345Q93 353
97 354T105 356Q110 357 128 356T161 354Q163 354 166 354T174 355Q178 355 182 356Q197 356 208 358T234 361Q234 336 237 317T241 277Q239 266 241 257Q243 240 243 216T244 162Q244 152 242 137T241 116ZM196 482Q208 483 212 483T221 482H228Q233 466 232 451T235
421Q230 416 224 415T208 413Q203 413 195 413T182 412Q168 412 162 413T140 412Q131 411 118 410T93 413Q93 420 93 423T94 429T94 433T94 440Q92 447 92 454T92 469Q92 471 92 474T94 480Q97 481 104 482T113 483Q124 483 129 484T145 485Q153 485 169 485T196
482Z" />
<glyph unicode="k" glyph-name="k" horiz-adv-x="448" d="M223 270L245 292L279 325Q285 332 291 336T311 338Q321 338 333 336T360 334Q362 334 372 334T383 332Q383 327 380 324L337 278Q335 276 327 269T310 253T293 237T283 226Q275 217 266 209T248 193Q239
184 231 176T212 160L195 151Q197 147 207 136T230 114Q241 103 251 96T263 85L299 48L334 15Q339 8 349 -5T374 -32Q379 -37 384 -42T395 -52Q403 -60 409 -67T418 -79Q418 -82 404 -80Q396 -78 390 -78T375 -76Q365 -75 355 -75T335 -74Q327 -72 320 -73T306
-74Q300 -74 296 -71Q293 -69 292 -67Q286 -60 281 -54T269 -41Q263 -34 256 -24T242 -8Q229 6 218 14T195 35Q186 50 173 61T145 87Q146 82 146 77T145 66Q145 62 145 52T146 31T147 9T147 -6Q147 -15 147 -27T145 -42Q143 -44 137 -43T125 -42Q112 -42 99 -42T74
-45Q69 -47 64 -47T54 -46Q54 -42 54 -28T53 1T52 30T53 48L50 119Q50 127 48 135T46 152Q46 166 47 180T48 208Q47 222 48 236T50 265V304Q50 319 50 333T48 362Q46 380 48 398T51 436L53 469V540Q53 548 52 557T52 577V595Q52 600 56 604T64 609Q79 609 89 609T113
610Q119 610 123 611Q126 605 126 599Q125 582 126 562T128 525L130 497V472Q130 466 130 455T129 430T129 406T130 389Q130 376 130 364T132 338Q132 333 132 322T133 299T133 275T133 259L138 216V203Q152 213 162 221T183 238L223 270Z" />
<glyph unicode="l" glyph-name="l" horiz-adv-x="190" d="M135 258Q136 256 136 248T136 236Q134 231 134 227T134 217Q134 211 135 195T136 171V149Q136 140 136 131T137 113Q137 106 136 100T136 86Q136 80 137 75T138 63V-28Q138 -33 139 -38T138 -42Q128 -42
115 -44T91 -47Q82 -47 76 -46T58 -40V-27Q53 -8 53 7T52 37Q52 48 52 57T54 77Q54 82 52 85Q52 86 52 90T51 100T51 109T51 116V158Q51 170 51 182T52 206Q53 207 53 215T55 234T56 254T57 266Q58 282 58 298T58 329Q58 358 58 385T58 441Q58 459 58 476T57 511Q56
520 56 525T57 534T58 544T58 559Q58 569 59 578T60 597Q60 607 60 614T59 631L64 636Q74 636 86 635T107 635Q115 636 119 636T131 636Q136 636 139 633Q141 600 139 568T137 501V431Q136 395 135 364T133 303Q133 292 134 281T135 258Z" />
<glyph unicode="m" glyph-name="m" horiz-adv-x="696" d="M576 12Q578 35 577 53T576 86Q573 98 572 110T569 134Q564 148 563 162T556 191Q556 206 551 219T531 243Q520 248 511 252T492 256Q487 253 476 246T459 228Q454 216 451 207T443 191Q437 181 437 167T436
142Q436 140 435 133T433 116T431 100T430 90L422 32Q422 25 422 19T421 5Q421 0 420 -5T419 -15H413Q401 -17 388 -17T356 -15Q351 -14 348 -13T344 -2Q344 10 344 20T343 41Q344 56 344 71T341 105Q341 118 338 133T333 162Q331 175 331 188T326 213Q323 223
320 231T311 250Q310 252 309 252T307 254L300 257Q289 264 273 267H269L247 264Q227 261 215 250Q186 221 177 173Q171 164 170 155T167 136Q165 125 165 114T163 91Q163 83 161 75T160 60Q160 58 160 51T159 36T158 21T157 12Q155 8 155 -4T154 -18Q149 -18 143
-19T129 -23Q123 -25 115 -24T100 -21Q85 -18 78 -18T60 -15Q60 -9 60 0T58 20T56 41T55 56Q55 59 55 66T54 82T52 98T51 109Q50 119 50 127T50 145Q51 155 51 164T51 182V265Q51 268 51 280T52 307T53 333T54 349Q59 349 67 350T80 351Q90 351 98 351T116 352Q126
352 126 352T130 352Q133 343 133 341T134 331Q135 326 136 319T138 307V302Q147 311 156 316T170 327Q184 338 199 342T233 349L278 354H285Q300 351 312 348T337 336L362 314Q368 310 370 307Q375 303 379 298T388 282Q393 287 397 291T406 301Q408 303 411 305T420
309Q428 314 432 317T444 325Q449 327 455 329T467 334Q491 344 510 338T549 327Q564 322 574 312T595 288L614 250Q619 235 623 221T628 191Q632 172 636 153T640 109Q645 94 643 76T646 44V-8Q636 -8 631 -11T614 -15Q609 -15 601 -16T588 -20Q583 -20 580 -20T576
-15V12Z" />
<glyph unicode="n" glyph-name="n" horiz-adv-x="503" d="M52 341Q52 344 51 347T51 353Q52 353 54 353T59 354H65Q70 355 75 355T85 355H115Q117 355 119 353T122 350L124 341Q124 338 125 334Q127 326 127 317Q128 314 128 311Q128 305 129 305Q133 309 135
313T140 320Q143 323 144 324T147 326T152 328T161 334Q170 339 177 342T201 353Q204 354 211 356T228 359T246 361T263 362Q274 361 281 360T300 356Q305 355 316 354T332 351Q357 337 372 327T398 300Q400 298 404 296T413 288Q418 283 422 275T427 264Q431 247
436 237T442 209Q443 201 447 192T451 172Q451 162 452 150T451 114Q451 107 451 101T452 89V43Q452 36 452 30T451 18Q451 10 451 4T452 -10Q452 -12 452 -14T450 -18Q448 -19 445 -19T439 -19Q430 -19 422 -19T405 -19L375 -16Q371 -15 364 -16T355 -13Q354 10
354 19T355 37Q355 42 354 49T352 70L355 123Q355 133 355 138T354 147T353 156T352 172Q352 190 346 208T330 244Q325 254 317 262T296 276Q294 277 291 278T286 279L263 281Q246 282 228 275T206 261Q199 249 195 243T187 231Q186 228 184 221T180 203T175 181T173
160Q173 153 173 147T172 134L170 106L164 68Q164 58 164 47T163 25V2Q157 -2 153 -2Q142 -4 138 -6T121 -7Q110 -6 92 -7T63 -7Q52 -5 52 -5T52 1Q52 5 52 13T53 31T53 50T54 64Q54 82 53 94T52 124Q52 139 52 148T50 173Q50 181 51 193T52 220Q52 237 52 253T51
277Q50 294 50 309T52 341Z" />
<glyph unicode="o" glyph-name="o" horiz-adv-x="366" d="M121 363Q128 365 138 369T158 373Q171 373 182 373T206 374Q216 374 225 374T243 370Q245 370 248 369T256 363Q266 360 275 353T291 336T305 316T317 295Q322 287 323 274T328 253Q328 239 329 226T331
199Q331 176 330 155T329 111L327 78Q327 74 323 64T318 49Q315 39 310 26T303 10Q298 5 296 1T293 -7T289 -14T280 -20Q275 -22 268 -26T255 -35Q250 -37 250 -38T243 -42L225 -46Q213 -48 206 -47T189 -46Q161 -46 133 -35Q124 -35 116 -31T103 -22Q98 -18 93
-14T83 -4Q75 5 70 14T60 33Q55 44 49 55T41 81Q39 104 38 123T36 161V202Q35 204 35 210T36 218Q36 223 36 228T38 239Q39 247 39 255T44 271Q43 269 45 274T51 286T56 298T58 302L65 315Q68 318 71 322T79 331T94 344T121 363ZM194 197Q190 197 187 193T182 186Q175
171 175 161Q175 134 194 125Q199 125 202 128T206 136Q206 146 208 159T206 186Q201 191 200 194T194 197Z" />
<glyph unicode="p" glyph-name="p" horiz-adv-x="452" d="M126 328Q126 330 129 333Q130 334 132 334Q152 353 172 363T216 379Q245 390 273 379Q284 379 290 376T306 372Q330 367 346 354T377 322Q396 297 404 272T422 218V173Q417 153 416 138T409 109Q404 94
395 81T370 57Q349 36 319 25Q299 15 283 10T248 0H139V-27Q139 -51 138 -75T132 -124V-281Q132 -300 112 -300H55Q50 -265 49 -234T48 -168V25Q46 49 46 70T46 113T47 155T46 201V222Q46 229 47 238Q47 253 47 263T47 284T48 305T51 330Q51 335 52 346T51 364Q51
371 51 375T52 380T54 383T56 386Q61 387 73 384T94 380Q100 381 108 381T126 379V328ZM303 203Q302 220 300 234T293 263Q293 264 292 266Q290 270 287 270Q276 279 260 282T229 276Q214 262 205 244T196 205V173Q196 164 200 151T209 128Q209 123 213 122T223
115Q242 110 262 116T293 147Q298 161 299 173T303 203Z" />
<glyph unicode="q" glyph-name="q" horiz-adv-x="441" d="M182 363Q192 363 204 363T228 362Q233 361 235 359T242 355L268 346Q281 343 288 335T307 320Q309 318 310 314T316 305Q316 319 317 330T323 350Q328 350 336 349T349 348Q354 347 362 345T381 343H386H395Q396
342 396 341T396 335Q396 327 396 317T395 296T395 277T394 266Q395 255 395 246T395 225Q395 216 395 210T395 199T395 189T394 177L389 148V57Q387 36 387 14T389 -30Q390 -56 387 -70T383 -99Q382 -108 381 -115T379 -131Q379 -139 379 -146T378 -161Q378 -166
379 -173T379 -183Q377 -194 377 -205T377 -230Q376 -236 376 -242T376 -254Q375 -267 376 -277T377 -289Q377 -291 370 -291T354 -295Q352 -295 350 -296T344 -297Q341 -297 333 -295Q324 -294 319 -292T311 -289V-276Q310 -275 310 -271T310 -260T311 -248T312
-238Q310 -218 310 -197T311 -156Q312 -149 312 -143T312 -130Q312 -124 311 -116T312 -101Q312 -99 312 -91T311 -81Q309 -69 311 -60T313 -44Q313 -36 312 -28T311 -11Q313 2 312 16T311 41V73Q306 73 304 66L293 56Q291 51 283 47T272 40Q268 36 266 36T260
33Q246 25 235 21T208 13Q200 11 196 11T183 9Q175 7 167 7T141 13Q134 17 122 19T103 27Q101 28 95 32T85 41Q57 69 46 98Q41 103 41 108T40 118Q35 132 35 143T34 170V175Q33 177 33 185T32 202T31 220T32 232L39 262Q42 271 46 279T54 294L62 306Q70 313 76
319T91 331Q106 345 122 351T162 363H182ZM235 127Q239 129 242 133Q251 138 255 142T259 157Q259 167 261 176T266 202V209Q266 213 264 222T261 234Q258 245 253 254T239 273Q231 277 220 277T201 274Q191 272 187 268T178 254Q171 246 169 238T165 214Q164 205
164 199T165 182Q165 168 171 155T191 131Q201 126 211 126T231 125L235 127Z" />
<glyph unicode="r" glyph-name="r" horiz-adv-x="328" d="M37 128Q37 135 37 149T37 176Q38 185 38 194T38 213L35 294V339Q46 339 58 339T85 338Q89 337 93 337H107Q114 335 114 335T117 334Q117 329 116 327T115 319V287Q119 292 120 295T127 304L133 306Q146
319 165 323T203 325Q207 325 216 322T234 313Q241 312 246 309L249 306Q259 297 268 291T281 274Q291 260 297 244T308 209Q308 204 307 200T301 196Q286 191 274 191T240 190H229Q227 191 227 193T226 196Q225 202 224 206T222 214Q222 216 221 219T219 224Q217
227 216 229Q197 248 179 248Q177 248 174 248T167 246Q162 244 153 240T140 232Q135 227 130 222T121 209Q120 205 120 196T119 184Q117 175 115 160T113 134Q113 127 112 116T110 96Q110 89 110 83T109 71V33Q109 27 109 20T108 6V-16Q58 -27 39 -16Q37 -9 36
1T36 14Q38 32 37 50T36 87Q35 97 36 108T37 128Z" />
<glyph unicode="s" glyph-name="s" horiz-adv-x="492" d="M249 51Q259 60 264 70T269 96Q269 105 264 114T249 128Q225 137 200 146T146 160Q132 165 117 170T81 180Q41 199 31 244Q31 263 31 281T40 318Q46 332 50 338T59 348T68 354T79 362Q102 371 118 375T159
385Q169 390 178 391T197 392H251Q266 392 279 392T306 392Q328 391 347 388T391 380Q414 377 424 373Q422 368 421 357T418 335Q418 333 418 332T417 328Q417 323 414 322Q412 321 410 322T404 324Q387 326 369 326T333 325Q315 324 297 321T262 316Q254 314 247
313T233 309Q225 307 219 304T204 296Q194 284 190 274Q185 262 185 250Q183 245 185 235T193 217Q206 203 217 199Q236 194 253 190T285 182Q290 182 296 180T307 178Q327 176 343 172T378 160Q392 155 406 150T435 135Q446 120 451 109T462 83V57Q462 47 458
38T449 24Q439 -2 410 -21Q391 -35 371 -44T326 -58Q292 -69 258 -70T185 -67L130 -62Q121 -61 109 -59T85 -53Q68 -48 61 -48T52 -45Q51 -43 50 -42T49 -39Q44 -28 43 -19T37 5Q35 10 34 14T32 22V25Q32 27 32 28T32 31Q37 31 40 30T49 29Q61 26 76 23T101 20Q110
20 121 20T146 19Q158 18 171 18T197 23Q200 26 207 29T222 35T237 42T249 51Z" />
<glyph unicode="t" glyph-name="t" horiz-adv-x="380" d="M240 25Q240 14 240 2T240 -21Q240 -27 240 -38T239 -56Q240 -60 237 -63T232 -69H206Q201 -69 195 -69T183 -68Q179 -70 172 -70T158 -70T144 -70T136 -69Q131 -64 131 -63T130 -56V40L128 99L130 166L129
224L125 272Q113 272 96 271T70 272Q53 275 44 274T20 272V336H26Q31 336 34 336T40 336Q45 332 54 333T63 337Q74 338 76 338T88 338Q96 338 111 338T132 338Q132 338 132 344T132 358T132 375T132 389Q134 408 134 423T136 459Q137 473 137 486T137 513Q137 527
138 547T139 584Q139 589 138 590T136 597Q136 602 137 604T143 607Q152 607 162 606T181 605Q196 605 208 605T229 604Q244 602 252 600Q252 600 252 596T252 585T252 571T251 558Q250 533 250 515T251 471Q251 460 251 448T251 425Q251 422 251 412T249 391T247
369T246 356Q246 351 248 347T252 343Q257 343 265 342T278 340Q283 340 288 339T304 337Q313 337 322 337T343 336Q345 336 347 336T351 335H355Q360 320 360 301T355 272H349Q329 270 310 269T271 267Q266 267 259 267T247 266Q247 264 247 262T246 257V253V244Q246
235 246 228T246 212L248 159L244 114Q244 109 244 97T243 70T241 43T240 25Z" />
<glyph unicode="u" glyph-name="u" horiz-adv-x="470" d="M142 -12Q126 -6 108 6T82 25Q77 30 74 33T69 41Q62 56 54 67T42 92Q39 106 37 120T32 148Q32 162 31 174T30 200Q30 215 31 227T33 254Q33 264 33 274T32 295V309Q32 318 33 327T35 347Q47 348 64 348T91
347Q94 346 104 347T119 348Q124 348 140 348T162 347Q161 342 160 338Q159 334 159 330T159 324Q159 310 158 299T157 276Q157 270 157 253T159 215T161 178T164 154Q164 144 164 138T166 121Q167 110 171 103T178 93L184 77L198 59Q205 50 217 49T240 48L263
50Q271 51 281 60T299 75Q304 80 307 89T314 109Q314 110 316 118T320 135T324 153T326 163Q327 171 328 181T328 199Q326 208 328 219T330 240Q330 248 331 258T333 273Q333 272 333 277T334 288T334 299T334 306Q333 312 332 317T330 329Q330 332 331 335T332
341H353Q357 341 360 340T366 339Q376 339 383 339T395 339Q400 341 403 341T411 341Q419 339 424 340T439 341Q440 336 439 327T437 309Q437 290 437 271T437 231Q436 220 436 210T435 190Q435 188 435 183T435 171T435 160T435 153Q437 142 437 126T436 93T435
59T434 32Q434 17 435 3T436 -27Q412 -32 390 -32T343 -33Q340 -29 340 -20Q340 -15 340 -11T338 -2Q337 1 337 8Q337 11 336 13Q334 13 330 8T321 1Q311 -4 302 -8T282 -15Q262 -24 238 -25T188 -27Q173 -27 163 -22T142 -12Z" />
<glyph unicode="v" glyph-name="v" horiz-adv-x="438" d="M228 130Q229 128 231 124T235 118Q240 118 241 122T248 133Q261 159 270 177T293 220L312 266Q316 273 323 285T333 305Q335 311 336 314T340 324Q340 325 342 330T348 340T353 349T357 356Q377 351 393
346T428 330Q423 321 421 316T416 304Q410 292 402 280T391 263L373 220Q365 205 355 190Q354 188 353 185T349 179Q344 171 337 156T322 125T306 94T293 73Q285 58 280 47T267 21Q266 16 264 12T259 2Q257 -3 255 -8T248 -18Q246 -19 239 -20T224 -22T209 -23T199
-23Q197 -22 194 -18T189 -10T184 -1T181 5L164 28Q161 33 153 49T133 80L113 118Q110 125 104 136T93 154Q89 159 88 165T81 182Q76 187 69 202T52 228Q50 231 45 239T35 253Q30 264 24 274T10 298Q11 299 12 301Q13 302 18 306Q24 311 31 317T52 329L87 356Q89
356 91 355T96 353L99 350Q112 337 117 323T134 295Q137 290 141 281T150 262T160 244T168 230Q184 209 199 180T228 130Z" />
<glyph unicode="w" glyph-name="w" horiz-adv-x="698" d="M254 81Q254 79 255 77Q256 75 257 73T260 68Q262 69 262 73T263 83L279 130L287 146Q292 155 296 165T304 190Q306 194 306 198T309 207Q311 212 313 216T316 223L324 255H379Q388 255 389 254T395 242Q395
237 399 232T408 216Q413 202 418 188T434 159Q438 151 447 126T467 81Q471 71 475 67Q480 69 480 72T485 81Q490 95 495 108T503 139Q507 153 513 168T524 197Q533 215 540 231T551 268Q558 286 558 293Q563 303 565 312T569 326Q574 331 574 332T578 333Q581
334 584 334T592 333Q601 334 614 334T636 333Q643 333 659 333T687 333Q688 331 687 328T684 320L654 250Q648 239 643 227T633 203Q626 187 617 172T600 135Q596 124 592 114T582 94Q575 84 571 76T562 57L556 43Q550 28 543 14T531 -16Q526 -16 524 -16T518
-17Q514 -17 512 -17T501 -16H491Q486 -16 481 -16T468 -15Q458 -15 452 -15T440 -16Q439 -16 436 -10T430 3T424 18T419 27L402 63L392 82Q387 93 382 102T369 126Q366 131 364 136T360 139L354 120Q354 115 349 106T342 91L327 45Q325 39 320 28T312 11L308 -4Q305
-15 303 -16Q292 -16 285 -16T268 -14L234 -15Q223 -15 210 -13T192 -10Q190 -9 190 -8T188 -2Q181 9 175 17T163 36Q154 47 150 62T138 88Q133 100 125 114T109 142Q98 162 92 173T84 193L61 242Q56 252 51 264T41 288Q38 290 35 296T29 310T22 326T15 339Q13
341 13 342T11 346Q10 348 10 350Q10 351 14 351T24 352Q35 354 48 352T73 352H104Q111 352 120 352T134 351Q138 340 146 326T156 307L170 273Q173 266 177 249T193 213Q200 198 207 179T223 150Q226 146 230 137T239 117T247 96T254 81Z" />
<glyph unicode="x" glyph-name="x" horiz-adv-x="502" d="M309 316Q310 321 316 330T328 346Q342 345 349 345T367 346Q372 346 376 346T386 346Q394 344 404 345T422 346Q451 346 453 340Q444 326 435 316T415 298Q407 288 398 276T380 255Q370 246 362 234T349
213Q339 202 330 189T312 165Q319 155 324 148T337 132Q344 125 352 117T371 93Q390 73 412 53T452 9Q456 6 463 -2T472 -15Q472 -20 471 -20T465 -21Q463 -22 460 -22Q457 -23 452 -23Q443 -23 434 -22T415 -21Q407 -21 401 -21T386 -23Q381 -23 376 -24T361 -21Q361
-19 357 -14T351 -7Q347 -2 344 1T336 10L319 29Q314 34 309 37T300 46Q292 57 286 65T270 83Q265 88 264 90T257 98Q252 95 248 92T239 83Q225 69 215 54T190 24L175 4Q171 1 168 -7T159 -21H122Q109 -21 96 -19T67 -21H30Q30 -16 31 -15T37 -8Q55 19 87 46Q90
51 95 58T105 71Q113 76 119 87T135 107Q144 118 153 130T171 154Q175 157 175 160Q175 165 172 169L152 197Q147 203 141 209T130 221Q122 232 113 243T96 262L64 300Q59 305 50 316T37 335V340H43Q54 340 69 340T96 341Q107 341 114 341T131 342Q136 342 146
342T159 340Q164 336 166 331T172 322Q186 308 195 295T214 267Q219 258 223 253T233 238L241 230Q245 233 247 236T253 244Q258 247 268 260Q279 274 291 290T309 316Z" />
<glyph unicode="y" glyph-name="y" horiz-adv-x="460" d="M187 63Q183 68 179 75T170 87Q163 91 154 103T135 131T115 160T98 184Q94 193 87 201T74 219Q69 224 65 228T56 237Q56 242 53 249T44 262Q39 266 32 274T20 292V304Q29 313 41 319T63 334L74 346Q79
351 83 352T93 357L98 352Q106 344 108 339T117 327Q121 327 126 317T134 304Q139 299 140 294T147 280Q158 266 167 253T187 226Q192 221 193 217T200 207Q211 200 216 191T230 173L248 154Q256 166 263 176T278 196Q287 204 293 217T307 243Q313 256 321 268T337
297Q342 307 346 312T350 322Q359 331 364 339T374 352H386Q389 351 398 345T416 330T432 314T440 304Q439 297 435 291T425 277T413 263T404 249Q404 245 400 241Q398 239 397 237Q393 229 386 220T374 203Q369 193 365 185T356 173Q351 163 343 151T332 130Q327
116 323 112T313 100L311 96Q309 93 307 93Q304 88 303 85T297 76Q292 66 288 58T278 40Q269 29 260 10Q251 1 243 -8T230 -32Q216 -54 201 -75T182 -103Q176 -120 164 -136T141 -163Q136 -173 129 -182T117 -206Q112 -214 105 -223T93 -242Q88 -246 87 -246T80
-242Q71 -237 62 -232T44 -217Q39 -213 33 -208T26 -200Q25 -199 29 -193T39 -180T51 -164T63 -152V-146Q71 -136 80 -125T98 -103Q107 -86 117 -72T141 -38Q141 -33 144 -26T153 -14Q161 2 171 16T187 47L190 50Q194 54 194 57L187 63Z" />
<glyph unicode="z" glyph-name="z" horiz-adv-x="469" d="M438 -12Q438 -13 436 -16T432 -19Q430 -19 422 -19T403 -19T384 -19T373 -19Q371 -18 362 -18T341 -16T319 -15T304 -16Q301 -17 297 -18T289 -19Q278 -19 262 -19T239 -21Q230 -23 222 -23T204 -22L148
-24H32Q30 -19 31 -16T32 -6V65L39 72Q54 82 68 96T103 130Q113 135 120 142T137 154Q152 168 165 183T193 214Q198 218 206 226T219 239Q228 245 239 254T252 268Q254 270 259 275T263 281Q261 283 260 283T254 284Q243 284 226 284T201 282Q192 280 184 280T166
278H131Q118 277 105 275T81 275Q79 276 76 276T71 278Q69 281 69 283T70 288Q70 294 70 301T71 324Q71 330 71 335T71 342Q76 342 79 342T88 341H96Q110 341 130 343T165 346Q173 346 177 345T189 344Q200 344 206 344T224 346Q226 346 228 346T234 347Q246 348
256 348T275 348Q285 349 298 348T321 346Q352 346 376 346T405 342V241Q400 233 396 228T386 217T374 205T357 191Q339 175 330 170T311 157Q286 134 265 116T219 78Q209 73 204 68T193 58Q188 54 184 53T180 46H187Q198 47 225 47T281 48Q301 48 318 47T346 45L418
46Q424 46 429 46T438 45Q438 42 438 39T438 34Q436 27 436 22T437 9Q437 7 437 2T438 -12Z" />
<glyph unicode="{" glyph-name="braceleft" horiz-adv-x="345" d="M306 -34Q307 -35 309 -36Q310 -37 311 -37T313 -39Q315 -41 314 -44Q311 -53 306 -63T296 -84Q294 -86 293 -86Q292 -86 288 -84Q278 -78 270 -71T252 -58Q244 -55 240 -53T230 -46Q226 -44 224
-41T218 -34Q209 -27 202 -20T188 -4Q179 5 172 14T160 38Q158 44 155 52T148 66Q140 81 137 99T129 137Q127 146 124 151T118 162Q115 168 112 174T106 188Q100 203 90 215T68 238Q62 244 54 248T34 262V270Q34 290 34 307T30 342Q30 345 31 348T34 354Q35 356
38 356T43 358Q57 362 63 367T76 378Q85 389 92 398T106 416Q109 422 112 426T119 436Q122 444 124 450T126 466Q126 476 130 486T134 508Q137 520 139 532T143 554Q144 561 148 570T158 587T167 601T172 608Q174 613 180 619T192 632Q195 635 196 638T202 645L205
648Q207 650 207 651T210 653Q216 658 218 661T228 671Q236 679 246 690T264 704Q269 707 272 704Q281 691 287 683T301 666Q305 662 305 657Q305 650 301 650Q288 639 279 627T260 600Q246 577 238 555T226 504Q226 498 224 491T222 474Q222 471 222 468T218 458Q218
449 217 439T214 420Q213 408 212 402T205 380Q203 374 195 358T174 330Q171 327 169 324T162 319Q167 315 173 305T184 288Q187 283 190 279T196 270Q200 261 201 254T206 238Q212 224 215 212T220 184Q221 177 222 169T224 154Q225 146 226 138Q228 131 228 124T229
110Q231 101 234 92T242 73L256 34Q262 23 265 14T276 -6Q283 -15 289 -21T306 -34Z" />
<glyph unicode="|" glyph-name="bar" horiz-adv-x="159" d="M118 -53Q115 -56 109 -56T96 -57Q81 -60 68 -60T38 -58H30Q30 -40 32 -29T34 -8Q31 1 33 12T36 34Q33 43 34 52T36 71Q36 93 35 114T34 154V188Q31 201 32 211T34 234Q35 236 35 245T36 264T37 284T38
296V370Q38 376 39 382T40 392Q40 398 39 404T38 416V488Q41 500 40 514T38 546V608Q38 623 39 639T38 670Q47 670 54 671T68 669H84Q83 669 90 669T107 669T124 668T128 666Q128 663 127 659T126 652V462Q126 450 127 438T126 416V280Q129 263 128 249T126 220V188Q126
178 126 169T122 154V16Q122 1 120 -16T118 -53Z" />
<glyph unicode="}" glyph-name="braceright" horiz-adv-x="342" d="M172 362Q170 368 169 374T164 388Q158 406 154 425T142 462Q139 471 138 483T134 504L110 566Q107 572 104 577T98 586Q90 600 84 609T68 624Q62 633 54 640T38 654L30 662Q44 674 52 688T72
712Q75 712 76 710T80 704Q81 703 82 703Q84 701 84 700Q98 689 107 682T126 666Q146 654 159 637T184 604Q187 601 188 598T192 591Q197 587 200 580T206 566Q206 557 213 549T220 529Q220 523 222 517T224 505Q227 496 228 484T233 462Q236 447 242 429T260 396Q271
371 296 346Q296 343 299 342T306 338Q309 335 309 329T310 320V270Q310 264 310 259T311 246Q313 242 306 238Q292 229 285 222T268 203Q263 198 261 191T252 180Q238 163 231 148T218 112Q218 103 214 94T206 70Q203 61 198 50T192 30Q192 20 184 12Q181 6 180
0T172 -16Q167 -25 157 -31Q151 -38 146 -44T138 -54Q132 -60 130 -61T122 -67Q117 -72 111 -78T98 -88Q94 -91 88 -94T76 -100H72Q63 -91 55 -81T38 -62Q43 -56 47 -50T58 -38Q69 -27 73 -19T85 1Q90 9 92 16T98 34Q101 46 106 55T114 75Q117 92 121 112T130 150Q135
164 141 176T152 204Q152 214 157 225T168 246Q173 256 179 264T192 278Q194 283 199 289T210 300Q210 304 208 306L206 308Q186 319 172 362Z" />
<glyph unicode="~" glyph-name="asciitilde" horiz-adv-x="615" d="M584 260Q584 257 584 253T580 246Q571 228 561 211T536 178L524 166Q512 157 502 149T476 138Q470 135 462 133T444 130Q438 130 430 130T416 134Q401 137 387 143T360 158L356 162Q344 174
330 184T304 206Q298 212 290 217T272 226Q264 229 248 230T216 230Q208 230 201 230T188 226Q176 223 167 215T148 198Q145 192 141 186T134 174Q131 168 129 162T124 150Q122 148 120 144T116 138Q110 133 101 138T84 148Q70 155 63 155Q54 161 46 165T36 170Q36
173 33 176T32 186Q37 191 38 197T44 210Q50 235 68 254Q77 269 90 276T116 290Q137 304 158 304T204 302Q213 299 222 298T240 290Q249 287 255 286T268 278Q273 275 281 271T299 261T316 251T328 242Q340 233 352 225T380 214Q398 208 416 214Q423 219 431 221T448
230Q456 238 464 244T476 258Q482 264 485 272T492 290Q494 299 495 300T500 302Q506 302 509 300T516 294Q531 285 544 280T573 265Q575 265 578 264Q584 262 584 260Z" />
<glyph unicode="&#xa1;" glyph-name="exclamdown" horiz-adv-x="162" d="M34 -61Q32 -60 32 -57Q30 -52 30 -49T31 -41Q33 -30 33 -17T34 11Q37 34 37 57T40 107Q40 117 42 128T44 151Q44 156 45 163T44 177V218Q46 232 46 245T47 272V339Q47 351 47 361T51 382V457Q59
460 66 462T81 464Q86 462 90 463T100 466Q104 467 109 468T115 468V464Q115 450 117 434T120 404Q120 399 121 394T122 382Q122 362 121 343T122 302Q122 299 123 294T125 284V183Q127 172 127 162T128 141V89Q128 75 126 53T128 14Q128 6 127 -4T125 -26Q125
-35 126 -46T125 -59Q125 -61 122 -61T116 -60Q108 -58 105 -58T93 -60Q87 -61 77 -60T64 -59Q56 -59 48 -59T38 -60L34 -61ZM47 522Q47 530 48 540T49 555Q49 560 49 564T51 574L63 578Q71 580 73 581T84 582Q88 582 92 582T98 581Q103 581 105 581T111 580Q118
580 120 580T125 579Q127 576 127 573T128 567Q128 564 128 559T127 551Q127 543 127 539T128 526Q128 521 128 517T132 508Q131 507 131 506Q130 505 128 505Q119 504 110 504T92 505Q84 505 76 506T58 508H51Q48 510 48 515T47 522Z" />
<glyph unicode="&#xa4;" glyph-name="currency" horiz-adv-x="670" d="M30 14Q37 21 40 24T45 28T50 32T59 39L78 66L91 82L118 108L139 130Q134 139 130 147T123 161Q118 165 112 177T101 204T93 235T90 264Q91 276 93 291T98 320Q99 323 101 335T105 360T110
386T113 402Q118 421 128 432L118 443L79 492Q68 503 55 512T30 531Q37 537 37 539T45 544L62 561Q61 560 64 563T72 570T79 576T81 576Q83 574 85 570T89 564L136 511L162 492L176 476L196 498Q201 503 208 507T222 516L244 529Q254 536 273 543T305 552Q318 554
333 554T365 553Q379 553 389 548T411 539Q415 538 423 536T440 530T459 521T476 508Q480 503 486 499T498 489L508 500L531 523L581 572Q583 574 585 578T589 584Q587 586 590 584T598 578T605 571T608 569L625 552Q632 550 632 548T640 539Q628 529 618 518T596
495L573 477L552 451Q549 447 546 444T539 438Q547 428 554 419T562 401Q564 389 567 381T573 366T578 351T580 330Q584 318 584 302T585 274Q585 261 585 252T580 228Q580 216 579 200T572 172Q569 165 565 158T556 139Q552 130 550 124T542 111L545 108L572 82L607
35Q613 30 615 29T619 27T623 24T633 14Q633 10 629 6T621 -4Q616 -10 615 -13T611 -18T606 -23T596 -30L590 -36Q577 -23 572 -14T559 2Q550 7 544 16T529 33Q521 38 516 45T503 60L494 69Q487 63 480 58T468 47Q459 38 450 35T429 26Q425 24 421 23T412 20Q399
18 388 17T366 14Q359 14 348 14T324 14T302 16T289 18Q271 25 256 28T227 45Q216 45 203 54T177 78L160 60Q146 44 131 36Q123 29 119 18T105 2Q98 -5 92 -14T73 -36L67 -30Q60 -25 57 -23T52 -19T48 -13T42 -4Q38 1 34 5T30 14ZM200 175Q212 153 219 138T239
112Q249 104 266 100T303 88Q305 87 312 87T327 87T344 88T358 89Q366 90 374 91T392 93Q401 95 404 97Q414 101 420 103T432 113Q437 118 447 125T462 139Q472 146 478 151T487 160T492 169T496 179Q499 187 502 192T508 202Q511 211 514 222T517 243Q520 254
518 261T516 277Q516 284 516 295T512 316Q512 335 508 343T500 368Q500 377 489 389T472 411Q469 414 466 416T462 423Q457 430 450 435T437 445Q427 456 412 463T391 470Q382 472 375 475T357 478Q347 478 336 477T315 474Q306 472 292 469T271 460L255 451Q250
448 246 445T236 438L216 415Q210 408 204 404T193 396T183 385T176 369Q175 367 174 358T171 339T168 320T166 309Q164 298 164 288T163 270Q163 261 167 246T177 216T189 190T200 175Z" />
<glyph unicode="&#xa7;" glyph-name="section" horiz-adv-x="337" d="M84 75Q85 75 94 72T106 66Q112 59 114 58T116 56Q118 54 121 50T125 44Q126 36 128 31T130 18Q130 12 129 9Q130 2 130 -5T132 -15Q138 -19 145 -17Q162 -14 166 0Q166 5 170 14T174 38Q172
51 166 68T153 95L140 117Q140 117 135 122T122 133T110 147T105 158Q103 158 98 162T88 172T78 183T70 191Q62 198 54 213T42 237Q34 245 32 253T24 270Q21 277 19 291T15 314Q15 317 15 323T16 335T17 347T19 356L25 373Q24 378 29 386T41 402T56 414T70 418Q70
426 65 430T56 439Q50 449 49 456T44 472Q40 477 38 489T34 515T33 542T34 562Q36 568 40 584T47 608Q52 612 56 621T66 634L83 647Q89 652 103 655T127 661Q137 663 148 664T169 665Q180 665 187 662T203 657Q204 654 209 651T220 644T230 637T237 630L247 613Q251
608 253 602T255 594Q256 586 258 581T260 568Q260 562 259 556T256 547Q253 542 251 538T244 529Q242 527 240 526T235 523Q233 520 232 520T228 518Q223 513 213 514T199 515Q185 520 181 523T172 538Q166 542 162 553T159 571Q158 578 158 585T157 595Q153 597
150 599T144 600Q136 598 130 596T121 585Q121 580 118 568T115 542Q117 529 125 512T141 485L154 463Q154 463 159 458T172 447T184 433T189 422Q200 414 206 407T215 394T221 383T228 375Q236 367 240 360T250 346Q255 342 261 325T269 293Q271 286 274 277T277
260Q275 257 276 253T278 245Q277 240 276 231T272 213T268 195T263 184Q263 173 257 169T237 159Q243 149 247 134T251 108Q255 103 256 91T258 65T257 38T255 18Q253 12 249 -4T242 -28Q237 -32 233 -41T223 -54L206 -67Q200 -72 186 -75T162 -81Q152 -83 141
-84T120 -85Q109 -85 102 -82T86 -77Q80 -73 68 -64T52 -50L33 -15Q30 -10 30 1T29 17Q29 19 29 21T31 27Q32 29 32 36T33 44Q35 51 37 52T45 57Q57 69 63 71T72 75H84ZM102 350Q99 349 97 344Q97 342 96 337T101 312Q102 307 104 304T111 293Q111 292 117 285T123
275Q126 273 127 270T132 265Q134 263 138 258T146 246T153 236T159 232Q169 224 174 223T190 225Q192 226 195 230T197 242Q197 247 196 253T192 262Q191 269 184 278T174 296Q172 298 169 305T160 318Q154 324 150 329T138 341Q136 346 132 346T125 350Q123 352
121 352T116 354Q114 354 109 353T102 350Z" />
<glyph unicode="&#xa9;" glyph-name="copyright" horiz-adv-x="591" d="M174 166Q159 166 142 180T109 215T81 257T62 291Q57 295 51 308T41 337T34 371T31 402Q33 416 33 432T35 463Q36 466 38 479T43 507T47 535T51 552Q56 568 62 577T76 592T92 605T109 621L141
655Q146 661 154 665T169 675L192 689Q203 696 223 702T258 710Q272 712 289 713T323 715Q337 715 347 712T372 704Q376 703 384 700T403 693T424 681T443 666Q450 658 462 650T480 633Q482 628 485 624T493 615Q497 609 504 601T518 583T530 566T536 550Q538 537
541 529T548 513T553 496T555 474Q560 460 560 443T561 413Q561 399 561 389T555 364Q555 350 554 333T547 303Q543 295 539 288T529 267Q526 258 523 252T515 239T502 225T480 209Q475 200 459 189T434 168Q424 158 415 154T392 145Q388 143 384 142T374 139Q360
137 348 136T324 132Q316 132 304 132T279 133T256 135T241 137Q221 145 205 148T174 166ZM141 296Q153 274 162 261T183 238T211 222T254 204Q257 203 265 203T282 203T300 204T316 205Q324 207 333 208T354 210Q365 212 368 214Q379 219 386 221T399 232Q405
238 416 246T433 261Q444 269 450 275T460 285T466 295T472 307Q475 316 478 321T484 333Q488 342 488 355T489 378Q493 391 493 398T494 417Q494 424 494 437T489 460Q489 471 488 478T484 491T480 503T476 519Q476 524 472 530T463 542T452 555T445 567Q441 571
438 573T433 580Q428 588 419 594T405 605Q394 617 378 625T353 633Q343 635 335 638T315 642Q304 642 292 641T268 637Q257 635 241 632T219 622L200 611Q195 608 190 605T180 597L157 572Q150 564 144 559T131 549T120 538T112 520Q111 517 110 507T107 485T103
464T100 452Q98 441 98 429T97 408Q97 397 102 380T114 345T129 313T141 296ZM308 502Q299 500 292 498T277 487Q266 476 262 463T258 432V413Q262 405 263 397T273 381Q276 374 282 367T294 352Q299 350 304 349T314 344Q324 341 336 341T360 340Q365 340 370
342T387 344Q391 346 393 342T397 331Q399 327 401 322T405 312Q407 309 409 307T411 299L402 293Q400 290 395 289T387 284Q361 271 332 271Q325 271 319 271T304 271Q296 271 286 274Q281 274 273 274T259 275Q255 276 252 278T245 282L230 288Q222 291 216 299T201
314Q194 320 187 330T177 347Q175 355 170 365T164 385Q162 390 162 393T162 399V432Q162 449 163 462T171 490Q176 498 179 507T189 523Q189 527 192 530T199 536Q203 540 206 544T212 550Q220 555 224 557T235 565Q246 568 255 571T273 574Q284 576 292 578T313
575Q320 574 327 573T340 569Q346 568 349 568T357 565Q364 563 371 559T384 552L390 550V544Q390 541 388 533Q387 528 387 514V500Q387 496 385 496Q384 495 383 496Q379 496 376 497T369 498Q364 500 357 502T344 505Q334 505 326 505T308 502Z" />
<glyph unicode="&#xab;" glyph-name="guillemotleft" horiz-adv-x="622" d="M238 388Q256 404 272 419Q286 431 298 443T316 463Q322 468 328 473T343 486Q350 491 354 499T365 512L416 560Q425 571 436 580T459 602Q467 610 472 617T484 631Q488 636 495 644T507
654Q515 668 529 679Q534 681 537 679T546 672Q548 669 551 667T560 657Q565 651 567 650T574 645Q581 636 581 633Q581 631 578 628T572 623Q565 618 561 610T551 595Q547 589 539 578T526 562Q521 557 511 546T496 529Q489 517 477 505T454 481Q453 479 449 474T440
463T429 452T419 445Q418 444 417 442Q415 438 415 437Q411 434 409 432T402 427Q401 422 393 415T380 401Q367 391 361 380Q355 372 348 362T333 342Q343 331 357 315T375 291Q383 283 389 276T402 261Q412 250 420 241T439 221Q445 213 449 206T461 194Q468 183
476 176T489 155Q496 148 502 142T515 131Q517 128 520 121T528 112Q531 110 535 107T542 99Q543 98 543 97V96Q554 88 561 79T577 63Q580 60 581 58T586 53Q589 51 589 51T591 48Q591 43 586 40Q583 37 581 36Q576 30 570 24T560 11Q557 9 555 9T550 9Q547 9 546
11T540 17L518 35Q509 40 501 45T487 56Q486 57 475 67T449 90T422 112T407 125Q396 135 386 145T363 165Q353 172 343 181T327 198Q320 206 316 210T305 220Q302 226 297 231T287 242Q282 247 280 250T271 258Q265 263 261 270T248 282Q244 284 242 287T238 293Q224
302 216 314T197 343Q195 346 199 351T210 364T225 377T238 388ZM30 386Q48 403 63 418Q76 431 88 443T106 463Q112 468 118 473T133 486Q140 491 144 499T155 512L206 560Q215 571 226 580T249 602Q257 610 262 617T274 631Q278 636 285 644T297 654Q305 668 319
679Q324 681 327 679T336 672Q338 669 341 667T350 657Q355 651 357 650T364 645Q371 636 371 633Q371 631 368 628T362 623Q355 618 351 610T341 595Q337 589 329 578T316 562Q311 557 301 546T286 529Q279 517 267 505T244 481Q243 479 239 474T230 463T219 452T209
445Q208 444 207 442Q205 438 205 437Q201 434 199 432T192 427Q191 422 183 415T170 401Q157 391 151 380Q145 372 138 362T123 342Q133 331 147 315T165 291Q173 283 179 276T192 261Q202 250 210 241T229 221Q235 213 239 206T251 194Q258 183 266 176T279 155Q286
148 292 142T305 131Q307 128 310 121T318 112Q321 110 325 107T332 99Q333 98 333 97V96Q344 88 351 79T367 63Q370 60 371 58T376 53Q379 51 379 51T381 48Q381 43 376 40Q373 37 371 36Q366 30 360 24T350 11Q347 9 345 9T340 9Q337 9 336 11T330 17L308 35Q299
40 291 45T277 56Q276 57 265 67T239 90T212 112T197 125Q186 135 176 145T153 165Q143 172 133 181T117 198Q110 206 106 210T95 220Q92 226 87 231T77 242Q72 247 70 250T61 258Q55 263 51 270T38 282Q34 284 34 289T34 296Q34 313 34 329T33 363Q33 370 32 375T30
386Z" />
<glyph unicode="&#xb0;" glyph-name="degree" horiz-adv-x="269" d="M134 669Q106 669 94 651T81 614Q81 595 93 578T134 560Q162 560 175 577T188 614Q188 633 175 651T134 669ZM134 719Q159 719 179 710T212 687T232 653T239 614Q239 594 232 576T212 543T179
519T134 510Q89 510 60 539T30 614Q30 634 37 653T57 686T90 710T134 719Z" />
<glyph unicode="&#xb1;" glyph-name="plusminus" horiz-adv-x="351" d="M309 396Q309 394 309 394T308 391Q308 389 308 388T309 386Q309 372 309 356T308 340Q303 337 299 337T289 337Q286 336 282 336T270 337Q264 337 257 336T241 335Q233 335 227 335T215
333Q214 331 214 324V286Q214 277 214 268T213 248V237Q213 224 210 222Q206 221 197 221Q192 221 188 220T178 219Q176 219 171 219T164 220Q159 220 156 220T147 222L145 224Q143 226 143 228Q143 229 143 237T144 246Q144 248 144 256T144 276T144 300T142 324V330H134Q127
330 122 330T112 330Q107 329 102 329T88 330H52Q48 330 43 329T34 332Q32 335 32 339T32 346Q32 348 32 353T31 361V385Q31 387 30 389T31 394Q34 397 42 395Q44 394 47 394T54 395Q62 395 68 396T83 396Q96 395 108 397T133 399Q135 399 136 399T140 400Q140
402 140 405T139 411V419Q139 426 139 433T141 449V473Q141 475 142 479T143 485V506Q143 508 143 511T142 517Q142 519 142 524T145 530Q151 533 157 532T170 530Q180 528 189 528T210 527H213Q217 525 217 522T216 516V459Q216 451 216 444T217 428V407Q220 404
227 404Q239 404 251 403T281 402Q285 402 290 401T297 399Q299 398 300 398T304 398Q308 398 309 396ZM320 111Q321 106 320 103T320 93Q320 91 320 90T318 87Q316 86 315 86T312 87Q301 86 291 87Q286 88 282 88T272 87H223Q217 87 211 87T199 88Q192 88 186
88T173 87H116Q114 87 110 87T100 88H88Q86 88 84 88T76 89Q68 89 61 89T44 88Q42 88 38 88T31 89Q30 93 30 97T31 105Q31 111 31 116T30 128Q30 136 30 143T31 159Q39 161 47 161T62 162H85Q90 162 92 162T100 160Q110 158 119 159T139 160Q153 162 167 161T193
159H230Q245 159 258 159T284 158Q292 158 297 158T308 158Q315 158 319 156Q320 151 320 149T319 144Q322 127 320 111Z" />
<glyph unicode="&#xb2;" glyph-name="twosuperior" horiz-adv-x="321" d="M66 354Q68 359 81 368Q84 371 91 379T103 390Q105 393 108 395T114 399L118 403Q120 405 123 408T132 417Q134 422 137 423Q139 424 141 426T145 429L171 453Q171 453 174 458L177 463Q180
467 184 471T193 480L196 484Q197 486 197 487T200 490Q205 498 207 503T211 513V530L209 536Q207 539 205 542T199 548Q194 550 190 552T181 554Q171 555 158 552Q154 550 153 550L150 549Q148 548 143 545T134 539Q132 538 132 537T129 536L126 533Q123 530 122
528Q120 526 119 524Q115 522 114 521T112 519Q110 516 107 516Q103 516 99 518T91 524L86 528L80 535Q78 538 81 541T85 547L90 554Q92 558 95 561L99 564Q103 570 107 575T116 583Q117 584 120 585T126 589L135 595Q137 597 140 598T146 600L154 603Q155 603
156 603T159 604Q166 607 174 607H202Q208 607 214 604Q221 602 229 596T242 585Q246 583 249 579T256 568Q258 565 260 558T265 546Q266 544 266 544T268 541Q270 537 270 534T270 527Q271 514 268 495Q268 489 267 484T263 474Q261 470 261 468Q252 445 237 430L228
420Q223 414 215 406T196 388L188 383Q186 381 183 379T176 374Q173 372 170 371T165 368Q160 365 155 361T141 352Q138 350 137 350T134 348L129 344H150Q158 346 167 346T183 344H188Q189 344 190 344T194 343H239Q253 343 258 343T266 340V315Q268 307 264 306T256
304H219Q217 304 217 304T214 303Q208 302 199 302T184 301Q180 300 170 300T145 300Q139 302 133 302T121 302H96Q89 303 87 303T79 301Q76 300 73 300T66 300L62 301Q60 303 60 306T58 312Q55 318 54 322T52 328Q51 331 51 333T50 337Q50 339 52 341L66 354Z"
/>
<glyph unicode="&#xb3;" glyph-name="threesuperior" horiz-adv-x="327" d="M124 438Q122 443 122 450T123 463Q123 464 125 466L128 471Q130 473 132 473Q133 473 135 474T148 482Q152 483 155 486Q155 486 157 487Q158 487 158 488L172 503Q173 505 174 506T177
509Q179 511 179 515Q186 529 186 531Q186 542 186 544T184 549Q184 556 181 559L179 562L174 566Q171 569 163 569T150 567Q147 567 145 566T140 564L128 557Q126 555 123 553T118 549L113 543L101 529Q100 528 100 526V524Q100 519 94 519Q89 519 86 520Q84 521
83 522T79 524L69 529Q67 530 65 532T63 539Q63 543 64 544Q65 550 67 553T71 559Q72 560 73 561T76 564L78 568Q81 573 86 580T94 588Q96 589 97 590T101 592L110 598L116 601Q121 605 126 606T136 609Q140 609 143 610T150 611Q152 611 154 611T158 612Q172 612
180 610T195 605Q197 604 198 604T202 603Q207 601 211 597T218 593Q226 589 229 583L238 570Q243 562 244 557T246 549Q247 543 247 537T246 522Q244 516 244 514Q243 510 243 507T241 501Q240 500 240 498Q240 497 239 496Q236 488 230 482Q228 477 216 470Q215
470 215 470T214 469H213L221 466Q226 465 231 465T238 462L246 454L249 452Q253 450 257 445T265 434Q266 432 267 431T268 428Q273 416 274 409T276 396Q278 378 274 365Q274 363 273 361T271 356V354Q268 349 265 341T256 332Q255 330 253 327T238 313Q236 311
227 306T208 301Q204 299 201 299T194 299H179Q177 300 172 300T153 299Q151 299 150 299T147 300Q135 303 125 303Q120 305 116 305T106 306Q104 308 98 309T90 313Q88 313 88 313T82 316Q74 317 70 320T60 328Q59 330 58 333Q57 335 56 336T55 340Q55 341 55
342T54 345L50 353Q50 362 52 363Q56 365 62 363T71 360Q79 356 85 356Q95 352 100 352Q104 350 112 350Q128 347 141 348Q146 350 151 350T162 351Q167 353 173 355T182 362Q187 364 189 369T195 379V401Q195 405 192 409T187 415L168 428Q165 428 162 429Q159
430 156 430T151 431Q148 431 144 433Q142 433 140 433T135 434Q125 434 124 438Z" />
<glyph unicode="&#xb6;" glyph-name="paragraph" horiz-adv-x="613" d="M375 618V-160H285V317H245Q200 317 161 329T93 366T47 426T30 508Q30 549 43 584T86 646T162 687T274 702H544V-160H452V618H375Z" />
<glyph unicode="&#xb7;" glyph-name="middot" horiz-adv-x="257" d="M81 310Q82 312 96 315T121 316Q134 314 147 315T173 308Q177 306 176 303T174 296Q173 282 173 268T173 240Q172 229 175 216T176 198Q175 196 173 196T169 197Q152 199 136 198T104 194Q97
193 87 196Q84 197 84 203T83 215Q83 237 82 258T80 301Q80 307 81 310Z" />
<glyph unicode="&#xb9;" glyph-name="onesuperior" horiz-adv-x="200" d="M135 304Q131 303 127 303Q126 303 125 303T121 302H118H116Q115 302 115 303Q113 303 110 303T102 307Q99 313 99 316T98 322Q98 329 97 333Q97 334 97 336T97 345T96 364T96 397Q94 402
94 408T95 419Q95 429 95 435T94 446Q93 452 93 457T93 468Q91 476 93 482V492Q93 495 93 498T92 504V545Q87 540 86 540L81 537Q79 535 77 534T73 532H68Q65 533 64 539Q61 543 60 546T56 551Q54 553 52 555T50 559Q50 561 52 563L60 570L81 592L86 598L91 605L100
612Q102 614 104 614H141Q146 614 148 609T149 598Q149 595 149 590T148 581Q148 579 148 578T147 574V531Q145 523 146 514T145 497V472Q145 470 145 468T144 464V392Q143 389 143 387T143 382Q143 380 143 376T142 368V363Q142 361 142 361T143 358V345Q143 343
143 342T142 340Q142 334 142 331T141 326V316Q141 315 141 315T140 313V310L135 304Z" />
<glyph unicode="&#xbb;" glyph-name="guillemotright" horiz-adv-x="622" d="M384 388Q389 383 397 377T411 364T422 352T425 343Q415 326 407 314T384 293Q382 291 380 288T374 282Q366 277 362 270T351 258Q344 254 342 251T335 242Q331 236 326 231T317 220Q311
215 307 211T295 198Q289 190 279 181T259 165Q247 156 237 146T215 125Q213 123 201 113T174 90T148 68T135 56Q130 50 122 45T104 35L82 17Q78 14 77 12T72 9Q70 9 68 9T62 11Q58 18 52 24T41 36Q39 37 36 40Q29 44 31 48Q33 50 33 50T36 53Q40 55 41 57T45 63Q54
70 61 79T79 96V97Q79 98 80 99Q83 103 87 106T94 112Q98 114 101 121T107 131Q113 136 119 142T133 155Q138 168 146 175T161 194Q168 199 172 206T183 221Q194 231 202 240T220 261Q227 269 233 276T247 291Q250 299 264 315T289 342Q282 351 275 361T261 380Q255
391 242 401Q237 407 229 414T220 427Q216 429 214 431T207 437Q207 438 205 442Q204 444 203 445Q199 446 194 451T183 463T173 474T168 481Q157 493 145 505T126 529Q122 534 112 545T96 562Q91 567 83 578T71 595Q66 601 62 609T50 623Q47 625 44 628T41 633Q41
636 48 645Q53 648 55 649T62 657Q67 664 70 666T76 672Q81 676 84 678T93 679Q107 668 115 654Q120 652 127 644T138 631Q145 625 150 618T163 602Q174 589 185 580T206 560L257 512Q263 507 267 499T279 486Q287 478 293 473T306 463Q311 456 323 444T350 419Q366
404 384 388ZM592 386Q592 381 591 376T589 363Q589 346 589 330T588 296Q588 294 588 289T584 282Q576 277 572 270T561 258Q554 254 552 251T545 242Q541 236 536 231T527 220Q521 215 517 211T505 198Q499 190 489 181T469 165Q457 156 447 146T425 125Q423
123 411 113T384 90T358 68T345 56Q340 50 332 45T314 35L292 17Q288 14 287 12T282 9Q280 9 278 9T272 11Q268 18 262 24T251 36Q249 37 246 40Q239 44 241 48Q243 50 243 50T246 53Q250 55 251 57T255 63Q264 70 271 79T289 96V97Q289 98 290 99Q293 103 297
106T304 112Q308 114 311 121T317 131Q323 136 329 142T343 155Q348 168 356 175T371 194Q378 199 382 206T393 221Q404 231 412 240T430 261Q437 269 443 276T457 291Q460 299 474 315T499 342Q492 351 485 361T471 380Q468 385 464 390T452 401Q447 407 439 414T430
427Q426 429 424 431T417 437Q417 438 415 442Q414 444 413 445Q409 446 404 451T393 463T383 474T378 481Q367 493 355 505T336 529Q332 534 322 545T306 562Q301 567 293 578T281 595Q276 601 272 609T260 623Q257 625 254 628T251 633Q251 636 258 645Q263 648
265 649T272 657Q277 664 280 666T286 672Q291 676 294 678T303 679Q317 668 325 654Q330 652 337 644T348 631Q355 625 360 618T373 602Q384 589 395 580T416 560L467 512Q473 507 477 499T489 486Q497 478 503 473T516 463Q521 456 533 444T559 418Q574 403 592
386Z" />
<glyph unicode="&#xbc;" glyph-name="onequarter" horiz-adv-x="710" d="M460 597Q464 597 472 597T483 594Q485 592 483 590T478 584Q475 580 471 572Q466 564 463 555T456 540Q454 536 449 521T438 498Q432 489 429 477T421 455Q416 444 411 435T401 414Q399
406 395 398T387 380Q383 371 380 363T374 344Q368 333 364 320Q359 305 353 288T337 250Q333 242 329 237T323 223Q316 210 311 198T300 172Q294 155 286 141T270 112Q266 105 258 88T248 62Q246 55 241 43T230 18T218 -7T209 -27Q209 -32 208 -32Q206 -34 203
-34T198 -33Q189 -35 188 -35T174 -33Q172 -32 168 -32T161 -33Q159 -33 155 -34T142 -34Q141 -31 143 -29T148 -24Q151 -12 158 0Q160 6 165 16T175 38T186 59T194 76Q198 83 203 94T213 117T222 140T229 159Q236 174 243 189T255 220Q261 236 266 249T276 274T286
298T299 324Q304 335 308 346T319 371Q325 383 329 395T339 418Q341 423 344 429T353 441Q353 449 357 456T363 468Q368 478 370 487T380 508Q381 512 383 519T388 534T393 547T397 552Q401 559 404 569T412 589Q414 592 414 594T418 601Q420 603 430 603T446 600Q459
597 460 597ZM360 138L370 151Q372 153 373 155T377 162Q384 170 388 175T397 189Q399 195 404 200L412 213Q414 220 418 226T428 239L438 253L446 264Q448 266 451 266H460Q465 266 469 266T479 266Q481 267 485 267T492 267H511Q519 267 522 264Q524 262 524
260L522 257Q522 255 520 253L513 242L505 232L499 224L492 217Q494 218 498 218Q499 218 499 218T502 217H514Q516 217 518 217T523 216H529Q533 211 533 207T534 200V185Q534 183 534 182T533 177V105Q533 103 533 102T532 98V96Q533 96 534 96T536 95Q546 93
548 93H557Q558 93 559 93T561 94Q562 94 563 94T567 93Q569 92 570 92Q570 90 571 88Q571 86 571 84T572 80V73Q572 71 572 69T573 62Q573 61 573 61T572 58Q572 52 566 52Q558 52 556 52T550 51Q547 50 539 50H532Q531 41 531 33V7Q531 -5 531 -17T530 -41V-47Q530
-49 528 -51Q525 -54 521 -54Q515 -54 511 -54T501 -53H496Q491 -53 491 -53T488 -45Q488 -44 488 -43T487 -39V-33Q487 -31 487 -29T486 -23Q484 -12 486 -1Q486 4 486 13T485 25Q485 27 485 28T484 32Q484 36 484 39T483 44V50H438Q434 50 430 50T422 49Q418
49 415 49T407 48Q402 47 389 47H384Q382 47 382 47T379 48Q374 47 365 47T349 47H344Q340 46 335 47T328 55V79Q328 81 328 81T327 84V97Q327 99 329 101Q333 104 337 110T344 122L360 138ZM222 304Q218 303 214 303Q213 303 212 303T208 302H205H203Q202 302
202 303Q200 303 197 303T189 307Q186 313 186 316T185 322Q185 329 184 333Q184 334 184 336T184 345T183 364T183 397Q181 402 181 408T182 419Q182 429 182 435T181 446Q180 452 180 457T180 468Q178 476 180 482V492Q180 495 180 498T179 504V545Q174 540 173
540L168 537Q166 535 164 534T160 532H155Q152 533 151 539Q148 543 147 546T143 551Q141 553 139 555T137 559Q137 561 139 563L147 570L168 592L173 598L178 605L187 612Q189 614 191 614H228Q233 614 235 609T236 598Q236 595 236 590T235 581Q235 579 235 578T234
574V531Q232 523 233 514T232 497V472Q232 470 232 468T231 464V392Q230 389 230 387T230 382Q230 380 230 376T229 368V363Q229 361 229 361T230 358V345Q230 343 230 342T229 340Q229 334 229 331T228 326V316Q228 315 228 315T227 313V310L222 304ZM411 113Q412
113 408 107T401 97H426Q428 97 430 97T435 96H445Q447 96 449 96T454 97H472Q476 97 477 97T484 96V121Q484 123 484 125T485 130V137Q485 147 485 154T484 166V176Q484 178 484 181T485 187Q486 190 486 196V210L484 208Q480 203 475 196T465 183L460 176L454
167L448 157Q440 148 438 143Q434 137 431 134L425 127Q417 117 415 115T411 113Z" />
<glyph unicode="&#xbd;" glyph-name="onehalf" horiz-adv-x="710" d="M473 597Q477 597 485 597T496 594Q498 592 496 590T491 584Q488 580 484 572Q479 564 476 555T469 540Q467 536 462 521T451 498Q445 489 442 477T434 455Q429 444 424 435T414 414Q412 406
408 398T400 380Q396 371 393 363T387 344Q381 333 377 320Q372 305 366 288T350 250Q346 242 342 237T336 223Q329 210 324 198T313 172Q307 155 299 141T283 112Q279 105 271 88T261 62Q259 55 254 43T243 18T231 -7T222 -27Q222 -32 221 -32Q219 -34 216 -34T211
-33Q202 -35 201 -35T187 -33Q185 -32 181 -32T174 -33Q172 -33 168 -34T155 -34Q154 -31 156 -29T161 -24Q164 -12 171 0Q173 6 178 16T188 38T199 59T207 76Q211 83 216 94T226 117T235 140T242 159Q249 174 256 189T268 220Q274 236 279 249T289 274T299 298T312
324Q317 335 321 346T332 371Q338 383 342 395T352 418Q354 423 357 429T366 441Q366 449 370 456T376 468Q381 478 383 487T393 508Q394 512 396 519T401 534T406 547T410 552Q414 559 417 569T425 589Q427 592 427 594T431 601Q433 603 443 603T459 600Q472 597
473 597ZM366 4Q368 9 381 18Q384 21 391 29T403 40Q405 43 408 45T414 49L418 53Q420 55 423 58T432 67Q434 72 437 73Q439 74 441 76T445 79L471 103Q471 103 474 108L477 113Q480 117 484 121T493 130L496 134Q497 136 497 137T500 140Q505 148 507 153T511
163V180L509 186Q507 189 505 192T499 198Q494 200 490 202T481 204Q471 205 458 202Q454 200 453 200L450 199Q448 198 443 195T434 189Q432 188 432 187T429 186L426 183Q423 180 422 178Q420 176 419 174Q415 172 414 171T412 169Q410 166 407 166Q399 166 391
174L386 178L380 185Q378 188 381 191T385 197L390 204Q392 208 395 211L399 214Q403 220 407 225T416 233Q417 234 420 235T426 239L435 245Q437 247 440 248T446 250L454 253Q455 253 456 253T459 254Q466 257 474 257H502Q508 257 514 254Q521 252 529 246T542
235Q546 233 549 229T556 218Q558 215 560 208T565 196Q566 194 566 194T568 191Q570 187 570 184T570 177Q571 164 568 145Q568 139 567 134T563 124Q561 120 561 118Q552 95 537 80L528 70Q523 64 515 56T496 38L488 33Q486 31 483 29T476 24Q473 22 470 21T465
18Q460 15 455 11T441 2Q438 0 437 0T434 -2L429 -6H450Q458 -4 467 -4T483 -6H488Q489 -6 490 -6T494 -7H539Q553 -7 558 -7T566 -10V-35Q568 -43 564 -44T556 -46H519Q517 -46 517 -46T514 -47Q508 -48 499 -48T484 -49Q480 -50 470 -50T445 -50Q439 -48 433
-48T421 -48H396Q389 -47 387 -47T379 -49Q376 -50 373 -50T366 -50L362 -49Q360 -47 360 -44T358 -38Q355 -32 354 -28T352 -22Q351 -19 351 -17T350 -13Q350 -11 352 -9L366 4ZM224 304Q220 303 216 303Q215 303 214 303T210 302H207H205Q204 302 204 303Q202
303 199 303T191 307Q188 313 188 316T187 322Q187 329 186 333Q186 334 186 336T186 345T185 364T185 397Q183 402 183 408T184 419Q184 429 184 435T183 446Q182 452 182 457T182 468Q180 476 182 482V492Q182 495 182 498T181 504V545Q176 540 175 540L170 537Q168
535 166 534T162 532H157Q154 533 153 539Q150 543 149 546T145 551Q143 553 141 555T139 559Q139 561 141 563L149 570L170 592L175 598L180 605L189 612Q191 614 193 614H230Q235 614 237 609T238 598Q238 595 238 590T237 581Q237 579 237 578T236 574V531Q234
523 235 514T234 497V472Q234 470 234 468T233 464V392Q232 389 232 387T232 382Q232 380 232 376T231 368V363Q231 361 231 361T232 358V345Q232 343 232 342T231 340Q231 334 231 331T230 326V316Q230 315 230 315T229 313V310L224 304Z" />
<glyph unicode="&#xbe;" glyph-name="threequarters" horiz-adv-x="710" d="M511 597Q515 597 523 597T534 594Q536 592 534 590T529 584Q526 580 522 572Q517 564 514 555T507 540Q505 536 500 521T489 498Q483 489 480 477T472 455Q467 444 462 435T452 414Q450
406 446 398T438 380Q434 371 431 363T425 344Q419 333 415 320Q410 305 404 288T388 250Q384 242 380 237T374 223Q367 210 362 198T351 172Q345 155 337 141T321 112Q317 105 309 88T299 62Q297 55 292 43T281 18T269 -7T260 -27Q260 -32 259 -32Q257 -34 254
-34T249 -33Q240 -35 239 -35T225 -33Q223 -32 219 -32T212 -33Q210 -33 206 -34T193 -34Q192 -31 194 -29T199 -24Q202 -12 209 0Q211 6 216 16T226 38T237 59T245 76Q249 83 254 94T264 117T273 140T280 159Q287 174 294 189T306 220Q312 236 317 249T327 274T337
298T350 324Q355 335 359 346T370 371Q376 383 380 395T390 418Q392 423 395 429T404 441Q404 449 408 456T414 468Q419 478 421 487T431 508Q432 512 434 519T439 534T444 547T448 552Q452 559 455 569T463 589Q465 592 465 594T469 601Q471 603 481 603T497 600Q510
597 511 597ZM405 138L415 151Q417 153 418 155T422 162Q429 170 433 175T442 189Q444 195 449 200L457 213Q459 220 463 226T473 239L483 253L491 264Q493 266 496 266H505Q510 266 514 266T524 266Q526 267 530 267T537 267H556Q564 267 567 264Q569 262 569
260L567 257Q567 255 565 253L558 242L550 232L544 224L537 217Q539 218 543 218Q544 218 544 218T547 217H559Q561 217 563 217T568 216H574Q578 211 578 207T579 200V185Q579 183 579 182T578 177V105Q578 103 578 102T577 98V96Q578 96 579 96T581 95Q591 93
593 93H602Q603 93 604 93T606 94Q607 94 608 94T612 93Q614 92 615 92Q615 90 616 88Q616 86 616 84T617 80V73Q617 71 617 69T618 62Q618 61 618 61T617 58Q617 52 611 52Q603 52 601 52T595 51Q592 50 584 50H577Q576 41 576 33V7Q576 -5 576 -17T575 -41V-47Q575
-49 573 -51Q570 -54 566 -54Q560 -54 556 -54T546 -53H541Q536 -53 536 -53T533 -45Q533 -44 533 -43T532 -39V-33Q532 -31 532 -29T531 -23Q529 -12 531 -1Q531 4 531 13T530 25Q530 27 530 28T529 32Q529 36 529 39T528 44V50H483Q479 50 475 50T467 49Q463
49 460 49T452 48Q447 47 434 47H429Q427 47 427 47T424 48Q419 47 410 47T394 47H389Q385 46 380 47T373 55V79Q373 81 373 81T372 84V97Q372 99 374 101Q378 104 382 110T389 122L405 138ZM166 449Q164 454 164 461T165 474Q165 475 167 477L170 482Q172 484
174 484Q175 484 177 485T190 493Q194 494 197 497Q197 497 199 498Q200 498 200 499L214 514Q215 516 216 517T219 520Q221 522 221 526Q228 540 228 542Q228 553 228 555T226 560Q226 567 223 570L221 573L216 577Q213 580 205 580T192 578Q189 578 187 577T182
575L170 568Q168 566 165 564T160 560L155 554L143 540Q142 539 142 537V535Q142 530 136 530Q131 530 128 531Q126 532 125 533T121 535L111 540Q109 541 107 543T105 550Q105 554 106 555Q107 561 109 564T113 570Q114 571 115 572T118 575L120 579Q123 584 128
591T136 599Q138 600 139 601T143 603L152 609L158 612Q163 616 168 617T178 620Q182 620 185 621T192 622Q194 622 196 622T200 623Q214 623 222 621T237 616Q239 615 240 615T244 614Q249 612 253 608T260 604Q268 600 271 594L280 581Q285 573 286 568T288 560Q289
554 289 548T288 533Q286 527 286 525Q285 521 285 518T283 512Q282 511 282 509Q282 508 281 507Q278 499 272 493Q270 488 258 481Q257 481 257 481T256 480H255L263 477Q268 476 273 476T280 473L288 465L291 463Q295 461 299 456T307 445Q308 443 309 442T310
439Q315 427 316 420T318 407Q320 389 316 376Q316 374 315 372T313 367V365Q310 360 307 352T298 343Q297 341 295 338T280 324Q278 322 269 317T250 312Q246 310 243 310T236 310H221Q219 311 214 311T195 310Q193 310 192 310T189 311Q177 314 167 314Q162 316
158 316T148 317Q146 319 140 320T132 324Q130 324 130 324T124 327Q116 328 112 331T102 339Q101 341 100 344Q99 346 98 347T97 351Q97 352 97 353T96 356L92 364Q92 373 94 374Q98 376 104 374T113 371Q121 367 127 367Q137 363 142 363Q146 361 154 361Q170
358 183 359Q188 361 193 361T204 362Q209 364 215 366T224 373Q229 375 231 380T237 390V412Q237 416 234 420T229 426L210 439Q207 439 204 440Q201 441 198 441T193 442Q190 442 186 444Q184 444 182 444T177 445Q167 445 166 449ZM456 113Q457 113 453 107T446
97H471Q473 97 475 97T480 96H490Q492 96 494 96T499 97H517Q521 97 522 97T529 96V121Q529 123 529 125T530 130V137Q530 147 530 154T529 166V176Q529 178 529 181T530 187Q531 190 531 196V210L529 208Q525 203 520 196T510 183L505 176L499 167L493 157Q485
148 483 143Q479 137 476 134L470 127Q462 117 460 115T456 113Z" />
<glyph unicode="&#xbf;" glyph-name="questiondown" horiz-adv-x="410" d="M233 384Q230 377 226 368T218 350Q218 343 214 337T209 324Q209 318 207 315T201 306Q191 289 184 272Q173 257 167 241L143 190Q138 178 135 169T130 149V125Q130 111 137 94Q139 89
147 81T160 70Q174 60 188 57Q191 55 195 54Q199 52 209 50Q214 49 219 48T233 46Q235 46 240 48T250 50Q258 50 266 52T280 59Q288 65 295 70T308 84Q314 89 321 99T331 114Q334 116 335 117T339 118Q341 118 345 116T352 112Q357 109 361 106T369 101Q371 100
375 99T380 94Q379 90 378 87T374 78Q372 74 372 70T371 64Q368 55 364 49T355 36Q350 28 345 21T331 5Q329 3 327 1T321 -5Q320 -6 316 -9T307 -16T297 -23T291 -26Q280 -34 270 -37T250 -43Q248 -43 242 -43T228 -44T215 -45T205 -46Q195 -44 185 -43T164 -39Q156
-37 151 -35T137 -29Q128 -24 125 -24T113 -18Q108 -13 103 -11T92 -5Q81 0 72 9T58 33Q55 37 50 45T41 62T33 79T30 94Q30 107 30 122T34 153Q34 158 34 164T38 176Q40 181 41 188T44 200Q49 213 54 223T68 241L79 258Q84 263 87 266T96 275Q106 286 114 297T130
320Q132 324 137 330T143 341Q151 354 158 367T171 395Q174 406 178 415T184 436Q183 444 186 444T195 446Q197 446 201 446T211 447Q216 447 220 448T229 450Q234 451 240 451T243 446L241 444Q239 442 239 439Q242 431 239 412T233 384ZM181 518Q177 521 177
529V546Q177 551 177 557T176 571V580Q176 587 176 589T177 593L185 596Q197 600 210 600Q220 600 228 599T243 597Q248 597 250 597T253 595Q254 590 254 586T253 577Q253 566 253 555T254 532Q254 527 255 524T256 515Q252 511 244 511T228 512Q224 513 222 513T217
513Q216 513 208 514T198 515Q193 515 190 515T181 518Z" />
<glyph unicode="&#xd7;" glyph-name="multiply" horiz-adv-x="325" d="M74 425Q76 426 79 423Q81 422 81 421T84 419Q86 417 90 415T98 409Q110 397 124 384T147 363Q150 358 156 358Q157 358 158 359L163 364L171 373Q179 376 184 382T194 394L234 434Q236 436
238 439T244 440L246 438Q254 430 261 423T277 411Q281 407 286 404T294 394Q295 392 292 388T287 382L279 375L264 360L257 351L240 334Q235 326 230 321T220 311L214 305Q212 303 210 302T206 298L210 293Q219 284 226 274T243 255Q250 250 253 245T263 234Q265
232 267 230T272 225Q274 223 276 221T279 217Q279 215 277 214T272 211Q263 201 255 194Q253 192 250 189T244 184Q242 182 240 179T233 175Q228 175 225 179T219 187Q212 193 205 200T193 212Q188 217 184 220T176 229Q173 234 170 237T161 245Q159 246 155 250L151
246Q142 240 133 231T116 214T101 199T94 192Q94 191 89 185T82 179Q80 177 78 177H75Q71 181 68 183T62 188L51 197Q48 200 45 204T39 212Q33 218 31 222Q30 226 39 235Q45 241 47 242Q55 250 61 256T73 270L100 297Q105 302 106 304L89 324Q83 329 79 335T70
346Q65 351 57 359T46 369Q44 373 41 376T35 385Q34 385 37 388T45 397T56 407T67 418Q67 417 71 421Q73 423 73 423T74 425Z" />
<glyph unicode="&#xf7;" glyph-name="divide" horiz-adv-x="351" d="M320 284Q321 279 320 276T320 266Q320 264 320 263T318 260Q316 259 315 259T312 260Q301 259 291 260Q286 261 282 261T272 260H223Q217 260 211 260T199 261Q192 261 186 261T173 260H116Q114
260 110 260T100 261H88Q86 261 84 261T76 262Q68 262 61 262T44 261Q42 261 38 261T31 262Q30 266 30 270T31 278Q31 284 31 289T30 301Q30 309 30 316T31 332Q39 334 47 334T62 335H85Q90 335 92 335T100 333Q110 331 119 332T139 333Q153 335 167 334T193 332H230Q245
332 258 332T284 331Q292 331 297 331T308 331Q315 331 319 329Q320 324 320 322T319 317Q322 300 320 284ZM136 210Q137 212 151 215T176 216Q189 214 202 215T228 208Q232 206 231 203T229 196L228 170Q227 159 230 146T231 128Q230 126 228 126T224 127Q207
129 191 128T159 124Q152 123 142 126Q139 127 139 133T138 145Q138 156 138 162T137 173T136 184T135 201Q135 207 136 210ZM136 470Q137 472 151 475T176 476Q189 474 202 475T228 468Q232 466 231 463T229 456L228 430Q227 425 228 418T230 405Q231 399 230
395T227 388Q226 386 224 386T220 387Q203 389 189 388T159 384Q152 383 142 386Q139 387 139 393T138 405Q138 416 138 422T137 433T136 444T135 461Q135 467 136 470Z" />
<glyph unicode="&#x2013;" glyph-name="endash" horiz-adv-x="351" d="M320 234Q321 229 320 226T320 216Q320 214 320 213T318 210Q316 209 315 209T312 210Q301 209 291 210Q286 211 282 211T272 210H223Q217 210 211 210T199 211Q192 211 186 211T173 210H116Q114
210 110 210T100 211H88Q86 211 84 211T76 212Q68 212 61 212T44 211Q42 211 38 211T31 212Q30 216 30 220T31 228Q31 234 31 239T30 251Q30 259 30 266T31 282Q39 284 47 284T62 285H85Q90 285 92 285T100 283Q110 281 119 282T139 283Q153 285 167 284T193 282H230Q245
282 258 282T284 281Q292 281 297 281T308 281Q315 281 319 279Q320 274 320 272T319 267Q322 250 320 234Z" />
<glyph unicode="&#x2014;" glyph-name="emdash" horiz-adv-x="701" d="M670 234Q671 229 670 226T670 216Q670 214 670 213T668 210Q667 210 657 210T635 210T613 210T602 210Q591 209 581 210Q578 210 573 210T561 210T550 210T542 210H433Q427 210 416 210T399
211Q396 211 388 211T371 211T354 210T343 210H236Q234 210 230 210T220 211H158Q157 211 148 211T128 211T108 212T96 212Q88 212 81 212T64 211Q63 211 58 211T48 210T37 210T31 212Q30 216 30 220T31 228Q31 234 31 239T30 251Q30 259 30 266T31 282Q39 284
57 284T82 285H155Q158 285 167 285T188 285T208 284T220 283Q225 282 237 282T264 282T291 282T309 283Q323 285 337 284T363 282H440Q447 282 467 282T508 282T549 281T574 281Q582 281 587 281T598 281Q599 281 609 281T633 281T656 281T669 279Q670 274 670
272T669 267Q672 250 670 234Z" />
<glyph unicode="&#x2018;" glyph-name="quoteleft" horiz-adv-x="156" d="M30 577Q30 594 30 612T31 647Q32 649 34 650T37 654Q44 666 56 680Q61 685 64 690T72 701Q74 703 74 705T75 708Q78 711 80 711T83 714Q92 714 101 713T120 714Q122 714 124 714T127 713Q126
710 125 709T122 706Q118 698 113 693Q110 687 106 683T99 676Q92 668 87 663T79 651Q79 650 82 650H85H114Q116 650 118 650T122 649Q124 646 124 646T123 642Q123 635 123 629T122 617Q122 612 123 606T124 594Q124 589 124 586T123 577V572Q121 571 117 571Q114
570 111 570T103 571Q97 571 92 571T81 572Q72 571 64 571T44 572Q41 572 39 572T35 571Q30 571 30 577Z" />
<glyph unicode="&#x2019;" glyph-name="quoteright" horiz-adv-x="156" d="M127 708Q127 691 127 673T126 638Q125 636 123 635T120 631Q113 619 101 605Q96 600 93 595T85 584Q83 582 83 580T82 577Q79 574 77 574T74 571Q65 571 56 572T37 571Q35 571 33 571T30
572Q31 575 32 576T35 579Q39 587 44 592Q47 598 51 602T58 609Q65 617 70 622T78 634Q77 634 77 634T75 635H72H43Q41 635 39 635T35 636Q33 639 33 639T34 643Q34 650 34 656T35 668Q35 673 34 679T33 691Q33 696 33 699T34 708V713Q36 714 40 714Q43 715 46
715T54 714Q60 714 65 714T76 713Q85 714 93 714T113 713Q116 713 118 713T122 714Q127 714 127 708Z" />
<glyph unicode="&#x201c;" glyph-name="quotedblleft" horiz-adv-x="286" d="M31 523Q31 527 37 533L39 539Q50 550 60 562T80 587L87 598L92 602Q94 603 98 603T107 603Q118 603 123 602Q126 601 130 601T134 599Q134 593 126 587Q115 579 110 571T95 553Q91
549 88 546T82 535Q88 532 91 532T103 532Q110 531 117 532T126 531Q132 525 130 515Q128 501 129 489T130 463V451Q126 447 120 447Q109 447 100 448T77 448Q67 447 58 448T41 451Q39 451 37 450T32 449Q31 451 31 454T32 460Q32 465 32 471T31 483Q32 492 32
502T31 523ZM162 455Q161 456 161 457Q161 458 161 458T161 461Q163 467 161 476T160 492Q161 500 161 507T159 522Q159 524 158 526T158 531Q159 534 160 535T163 539Q167 545 171 550T181 561Q187 567 192 573T201 583L205 588Q206 590 206 592T209 595Q219 595
228 595T247 595Q249 595 251 595T255 594Q255 593 253 589Q251 586 251 586Q251 586 249 584L244 578Q239 573 235 568T227 558Q214 542 209 531Q209 531 212 531H214H237Q240 531 245 531T252 530Q254 528 254 527T253 523Q253 506 253 493T254 460L253 451L248
448Q243 446 233 446Q227 446 221 447T209 449Q201 450 192 450T175 451Q172 452 168 452H167Q165 452 162 455Z" />
<glyph unicode="&#x201d;" glyph-name="quotedblright" horiz-adv-x="286" d="M256 523Q256 519 250 513L248 507Q237 496 227 484T207 459L200 448L195 444Q193 443 189 443T180 443Q169 443 164 444Q161 445 157 445T153 447Q153 453 161 459Q172 467 177 475T192
493Q196 497 199 500T205 511Q199 514 196 514T184 514Q177 515 170 514T161 515Q155 521 157 531Q159 545 158 557T157 583V595Q161 599 167 599Q178 599 187 598T210 598Q220 599 229 598T246 595Q248 595 250 596T255 597Q256 595 256 592T255 586Q255 581 255
575T256 563Q255 554 255 544T256 523ZM125 591Q126 590 126 589V585Q124 579 126 570T127 554Q126 546 126 539T128 524Q128 522 129 520T129 515Q128 512 127 511T124 507Q120 501 116 496T106 485Q100 479 95 473T86 463L82 458Q81 456 81 454T78 451Q68 451
59 451T40 451Q38 451 36 451T32 452Q31 454 32 454T34 457Q36 460 36 460Q36 460 38 462L43 468Q48 473 52 478T60 488Q73 504 78 515H75H73H50Q47 515 42 515T35 516Q33 518 33 519T34 523Q34 540 34 553T33 586L34 595L39 598Q44 600 54 600Q60 600 66 599T78
597Q86 596 95 596T112 595Q115 594 119 594H120Q120 594 125 591Z" />
</font>
</defs>
</svg>
