<?xml version="1.0" standalone="no"?>
<!DOCTYPE svg PUBLIC "-//W3C//DTD SVG 1.1//EN" "http://www.w3.org/Graphics/SVG/1.1/DTD/svg11.dtd">
<svg xmlns="http://www.w3.org/2000/svg">
<defs >
<font id="DeliciousHandrawn" horiz-adv-x="395" ><font-face
    font-family="Delicious Handrawn"
    units-per-em="1000"
    panose-1="0 0 0 0 0 0 0 0 0 0"
    ascent="1000"
    descent="-200"
    alphabetic="0" />
<glyph unicode=" " glyph-name="space" horiz-adv-x="225" />
<glyph unicode="!" glyph-name="exclam" horiz-adv-x="197" d="M56 355V500Q57 547 57 593T60 685Q62 717 64 750T71 817Q73 837 81 851Q94 878 119 875Q133 874 142 866T155 845Q160 832 160 818T158 790Q156 765 156 741T155 692Q154 653 150 615T141 539Q140
520 140 501T137 464Q133 435 132 405T126 346Q124 329 123 312T120 277Q117 244 115 211T108 143Q108 136 106 130T101 116Q93 100 78 103Q64 103 59 119Q55 132 55 144T54 169Q54 210 54 254T56 355ZM110 -46Q109 -53 108 -58T105 -70Q94 -96 66 -94Q55 -92 47
-82T38 -59Q38 -45 43 -33T62 -13Q76 -2 91 -8T108 -32Q110 -36 110 -39T110 -46Z" />
<glyph unicode="&quot;" glyph-name="quotedbl" horiz-adv-x="227" d="M38 677Q39 688 40 702T44 730Q46 749 58 757T87 758Q104 752 104 734Q104 731 104 728T102 721Q93 699 89 677T80 632Q75 613 62 613Q55 612 48 618T39 632Q37 643 37 653T38 677ZM105 611Q107
640 112 669T126 727Q128 734 131 740T140 752Q147 758 154 760T171 758Q189 752 189 731Q191 724 188 718T183 704Q171 676 162 648T146 590Q142 571 128 571Q113 571 107 589Q107 590 106 592T105 596V611Z" />
<glyph unicode="#" glyph-name="numbersign" horiz-adv-x="453" d="M131 43Q123 43 117 41T104 37Q84 33 72 49Q59 62 74 83Q82 96 93 102T116 116Q119 118 121 120T123 127V131Q120 149 120 167T116 203Q109 203 105 201T95 197Q77 190 61 198T39 226Q36 236
44 252T65 277Q73 282 81 286T96 293Q105 295 107 300T110 313Q108 338 108 361T113 410Q115 423 120 432T138 446Q151 451 163 446T179 428Q182 418 182 409T183 389V325Q198 328 213 331T243 337Q255 338 255 352Q255 366 256 381T258 410Q260 421 262 428T272
443Q288 460 309 456T338 428Q341 419 343 410T344 389Q344 386 344 383T345 376Q347 358 349 357T368 353Q379 353 389 350T407 337Q412 331 415 324T413 307Q405 291 386 293H375Q355 291 350 286T344 260Q343 242 342 224T339 187Q339 175 351 176Q358 178 366
176T381 172Q389 170 395 164T399 149Q399 133 381 128Q374 126 366 124T350 119Q339 118 339 107Q339 75 338 42T344 -25Q346 -45 332 -50Q313 -59 302 -41Q296 -33 294 -25T290 -7Q286 19 283 44T278 95Q271 97 267 95T257 91Q240 85 223 79T188 67Q184 66 181
63T177 53Q179 35 181 17T186 -19Q189 -25 192 -28Q204 -38 195 -50Q192 -56 185 -58T171 -58Q162 -56 157 -50T149 -37Q143 -23 140 -10T135 17Q134 24 133 30T131 43ZM261 257Q241 250 223 244T185 230Q174 228 174 217Q173 183 174 149Q174 136 188 140Q205
145 222 149T258 158Q273 163 270 176Q266 215 261 257Z" />
<glyph unicode="$" glyph-name="dollar" horiz-adv-x="377" d="M201 325Q200 315 199 306T197 287Q196 276 197 274T210 268Q228 264 245 260T281 253Q286 251 292 249T306 244Q330 233 336 210T329 164Q314 143 294 132T251 116Q241 114 230 112T207 110Q198
110 197 108T195 97Q197 88 197 80T201 62Q203 55 201 50T191 43Q180 37 173 53Q169 62 167 73T162 94Q160 104 158 106T144 109Q125 109 107 110T69 115Q55 118 47 128T39 152Q41 166 50 171T72 169Q80 164 87 164Q101 164 114 166T140 169Q150 169 149 179Q149
181 148 182T147 184Q150 204 128 211Q92 220 66 242Q43 262 39 288T48 340Q59 359 77 373Q89 383 102 391T131 407Q138 411 142 416T146 430Q148 463 155 494Q157 504 162 511Q170 522 181 521T198 509Q203 502 204 493T206 476V446Q206 441 207 438T216 436Q228
436 243 431Q268 422 280 402T290 355Q288 342 283 329T270 305Q263 296 255 295T242 299Q232 309 237 320Q239 327 239 333T240 347Q239 365 221 361Q219 361 216 360T210 358Q204 358 201 349Q201 343 201 337T200 325H201ZM140 316Q134 315 131 311T123 304Q132
295 143 295Q141 300 142 306T140 316ZM222 190Q215 191 210 192T198 194Q192 198 192 190Q192 188 192 185T195 179Q201 181 208 183T222 190Z" />
<glyph unicode="%" glyph-name="percent" horiz-adv-x="591" d="M477 532Q477 525 475 517T468 499Q454 456 434 416T392 337Q355 268 311 204T221 77Q204 54 188 30T152 -17Q148 -21 144 -26T134 -37Q113 -55 95 -41Q78 -27 87 -4Q89 2 91 7T96 16Q127 69 157
122T219 229Q239 263 259 296T299 364Q313 387 324 409T348 454Q359 477 371 499T395 545Q400 558 408 566Q419 577 431 579T455 577Q466 571 472 561T477 532ZM116 290Q91 289 75 300T48 331Q39 348 38 366T41 403Q46 430 58 454T93 497Q100 501 102 509Q106 523
114 530T135 541Q187 555 230 524Q248 510 255 491T260 448Q258 414 241 387T201 335Q181 312 155 299Q145 295 135 292T116 290ZM122 403V389Q122 378 125 377T138 382Q173 405 186 443Q195 473 165 482Q158 484 155 484T146 476Q133 460 128 441T122 403ZM458
233Q483 232 506 218T544 180T552 124Q548 99 537 77T510 32Q503 21 494 11T473 -8Q444 -28 416 -22T371 17Q360 41 360 65T363 115Q368 135 375 153T396 187Q401 192 403 197T410 206Q419 221 432 226T458 233ZM467 176Q457 148 450 120T447 61Q463 79 472 100T485
143Q487 165 467 176Z" />
<glyph unicode="&amp;" glyph-name="ampersand" horiz-adv-x="513" d="M366 455Q366 426 360 400T344 346Q334 320 322 295T294 245Q285 230 291 217Q302 195 315 175T341 134Q346 129 349 128T356 133Q361 138 365 144T374 158Q378 169 374 178Q364 192 375 203Q381
209 387 209T401 205Q428 194 429 164Q431 145 426 129T411 97Q410 93 408 90T404 83Q397 74 405 70Q418 61 429 53T452 35Q462 29 471 19Q479 6 474 -7T453 -22Q437 -23 424 -19T396 -7Q374 5 354 22Q344 30 333 22Q301 -3 266 -23T194 -61Q175 -71 155 -78T114
-91Q107 -93 99 -93T84 -94Q59 -92 46 -74T41 -31Q47 -13 59 2Q73 22 86 40T113 77Q139 112 163 148T207 224Q209 228 210 231T210 241Q179 342 183 448Q183 473 188 497T203 544Q223 588 260 593T326 568Q347 544 356 516T366 455ZM258 335Q264 339 266 342T269
350Q276 368 281 386T287 424Q289 441 289 457T282 490Q280 495 279 501T269 509Q253 466 252 423T258 335ZM137 7Q138 6 139 5T140 2Q179 20 216 40T291 83Q277 101 266 119T242 160Q188 81 137 7Z" />
<glyph unicode="&apos;" glyph-name="quotesingle" horiz-adv-x="150" d="M80 761Q96 761 105 749T111 718Q108 703 106 689T99 661Q98 654 98 648T99 635Q102 619 89 610Q75 601 60 611Q43 621 41 640Q37 663 38 687T45 734Q47 747 57 754T80 761Z" />
<glyph unicode="(" glyph-name="parenleft" horiz-adv-x="275" d="M38 308Q39 358 47 403T68 491Q76 517 88 542T114 590Q128 611 146 625Q161 635 180 634Q198 630 205 614T200 586Q187 571 179 554T164 518Q153 489 145 459T129 397Q114 317 120 236Q124 188
136 143T168 52Q174 39 181 25T197 -2Q203 -13 216 -13Q230 -11 235 -21T233 -43Q226 -55 213 -58T185 -56Q172 -49 162 -40T144 -19Q116 22 98 65T63 155Q51 195 45 233T38 308Z" />
<glyph unicode=")" glyph-name="parenright" horiz-adv-x="273" d="M236 335Q236 292 228 251T207 169Q185 95 144 23Q133 4 120 -14T87 -44Q82 -48 77 -51T66 -56Q48 -65 41 -52Q33 -41 44 -28Q44 -25 47 -25Q70 -3 86 23T114 79Q131 120 142 160T161 244Q171
306 168 367T144 488Q137 513 127 536T102 580Q100 583 99 585T96 590Q87 612 102 626Q118 642 140 629Q154 620 164 607T182 578Q196 555 205 530T221 479Q226 463 227 445T233 409Q238 373 236 335Z" />
<glyph unicode="*" glyph-name="asterisk" horiz-adv-x="339" d="M158 547Q159 561 160 574T161 601Q162 610 162 619T165 637Q167 640 168 643T170 649Q178 666 195 664Q215 661 215 641Q216 631 216 621T213 601Q212 593 212 585T212 566Q226 580 239 592T263
617Q280 637 291 629Q308 620 300 596Q295 581 287 569Q271 550 255 531T222 493Q217 485 217 483T224 473Q231 468 238 462T251 449Q265 431 254 419Q248 414 239 414T221 422Q217 427 212 431T198 436Q196 423 194 411T189 386Q187 374 180 365Q173 354 162 358Q151
362 153 376Q153 384 154 393T156 412Q149 408 146 404T137 395Q130 388 125 382T113 370Q105 361 96 356Q84 347 71 348T48 358Q38 368 38 381T45 407Q51 415 58 422T72 436Q79 441 86 447T101 461Q103 465 108 468T113 475Q111 480 110 486T104 497Q102 499 100
501T96 505Q89 513 89 525T93 545Q100 554 111 558T134 557Q139 555 145 552T158 547Z" />
<glyph unicode="+" glyph-name="plus" horiz-adv-x="380" d="M230 325Q241 323 252 324T275 326Q285 326 295 327T317 328Q333 330 338 316Q340 308 337 303T327 292Q320 286 310 283T290 278Q274 275 258 270T225 263Q218 262 215 258T209 247Q203 225 198 203T186
157Q180 129 167 110Q165 107 163 103T156 97Q147 88 135 92Q122 99 122 113Q122 121 125 130Q132 153 134 177T140 226Q141 242 126 238Q115 234 104 232T80 230Q47 233 42 262Q39 274 46 285T66 304Q83 311 102 313T140 316Q155 316 156 329Q160 347 163 364T170
400Q172 408 174 414T180 428Q193 453 216 451Q240 446 245 419Q246 408 246 398T242 377Q238 364 236 352T230 325Z" />
<glyph unicode="," glyph-name="comma" horiz-adv-x="161" d="M123 67Q123 60 123 55T120 44Q113 24 103 4T84 -37Q78 -50 65 -56Q59 -58 54 -58T44 -55Q34 -49 39 -34Q46 -8 52 18T65 70Q66 73 67 77T69 85Q73 93 79 98T95 103Q113 103 120 85Q122 81 122 76T123 67Z" />
<glyph unicode="-" glyph-name="hyphen" horiz-adv-x="311" d="M144 310Q162 308 182 308T221 302Q233 299 244 294T264 281Q278 271 272 254Q264 239 249 239Q245 239 243 241Q209 246 177 244T110 238Q106 237 102 236T92 233Q68 228 50 242Q32 260 39 281Q47
304 69 305Q94 310 119 310H144Z" />
<glyph unicode="." glyph-name="period" horiz-adv-x="150" d="M78 31Q62 29 50 42T38 68Q37 84 47 95T74 109Q86 110 98 101T113 77V61Q111 44 103 38T78 31Z" />
<glyph unicode="/" glyph-name="slash" horiz-adv-x="290" d="M38 16Q39 44 44 70T53 124Q60 167 68 208T86 292Q100 360 117 428T158 562Q163 572 168 582T180 599Q196 613 215 610T246 590Q252 581 252 572T251 553Q246 530 237 505Q225 469 216 432T194 358Q185
327 176 296T158 232Q143 179 130 126T102 20Q99 10 97 1T89 -19Q79 -40 59 -35Q42 -34 39 -10Q39 -8 39 -5T38 2V16Z" />
<glyph unicode="0" glyph-name="zero" horiz-adv-x="410" d="M372 293Q372 229 351 175T293 71Q280 55 267 42T236 19Q205 -1 170 3T107 32Q96 43 87 56T69 85Q45 138 41 196Q25 323 75 445Q83 466 95 485T123 520Q136 531 150 537T183 535Q188 533 192 533T201
533Q296 536 338 451Q352 425 359 397T368 340Q369 329 370 317T372 293ZM126 260Q128 224 133 192T149 130Q152 121 157 112T168 95Q185 75 206 88Q213 91 218 96T228 107Q246 124 257 144T278 187Q295 223 297 265Q301 302 296 338T276 409Q262 444 239 458T179
470Q166 470 159 455Q143 407 135 358T126 260Z" />
<glyph unicode="1" glyph-name="one" horiz-adv-x="153" d="M108 259Q106 217 108 176T110 92Q110 76 110 60T114 26Q119 11 105 2Q93 -3 81 10Q76 14 74 22Q70 33 68 45T63 68Q59 106 56 142T50 215Q49 248 46 280T41 346Q39 384 38 422T44 499Q45 507 48 513T54
526Q65 542 80 539Q97 538 102 520Q107 507 108 494T110 466Q111 429 111 393T108 319V259Z" />
<glyph unicode="2" glyph-name="two" horiz-adv-x="398" d="M185 104Q199 104 212 106T239 107Q267 107 292 98T342 76Q364 63 359 46Q354 26 330 23Q317 22 303 23T275 26Q235 28 196 22T119 7Q112 5 105 4T90 2Q78 2 68 7T53 23Q41 48 60 67Q69 78 79 88T99
109Q171 186 216 280Q229 305 238 330T251 382Q252 396 252 410T246 437Q236 461 212 457Q197 454 183 445Q158 428 135 406T96 355Q94 351 93 346T89 335Q85 323 74 320T51 326Q35 341 38 365Q40 385 48 401T66 433Q101 488 153 518Q166 525 179 530T207 538Q251
545 281 523T324 469Q332 447 333 426T332 383Q325 346 312 313T281 247Q263 214 242 183T197 122Q189 115 185 104Z" />
<glyph unicode="3" glyph-name="three" horiz-adv-x="413" d="M236 364Q245 360 253 358T269 353Q301 343 323 322T359 271Q371 244 374 214T369 154Q347 62 255 28Q232 19 207 13T156 2Q135 1 114 5Q89 13 83 40Q78 57 92 68Q106 77 119 68Q125 64 135 67Q164
75 192 86T245 116Q268 133 281 155T297 205Q301 237 284 261T231 292Q218 294 204 293T174 293Q145 297 134 318T140 364Q148 375 157 385T176 407Q187 418 197 431T216 457Q222 460 219 464Q217 466 215 466T210 466Q181 458 154 447T102 415Q98 411 94 405T87
392Q80 365 56 380Q43 388 39 403T42 436Q48 452 59 464T83 485Q113 508 147 521T218 538Q228 540 236 539T254 535Q279 528 291 509T297 463Q294 445 285 429T264 398Q249 381 236 364Z" />
<glyph unicode="4" glyph-name="four" horiz-adv-x="360" d="M119 260Q140 266 159 271T198 280Q204 280 209 281T222 283Q233 283 233 296Q232 329 233 362T237 428Q239 448 242 469T252 509Q254 516 256 522T263 533Q274 553 297 548Q317 546 320 521Q322 505
322 491T323 461Q321 424 319 387T312 313Q310 284 307 255T302 194Q298 157 296 115Q294 93 292 71T290 25Q290 12 279 5T255 5Q248 10 245 16T239 29Q235 40 235 51T234 74Q233 106 233 137T233 200Q233 204 233 207T231 214Q229 216 227 215T222 212Q193 201
162 194T101 175Q94 173 86 172T69 173Q53 178 45 191T39 223Q44 237 48 251T57 280Q66 314 76 347T96 415Q102 436 109 457T123 500Q126 513 134 524Q145 543 162 538Q177 533 177 512Q179 499 177 486T173 458Q164 410 150 363T122 269Q121 268 119 260Z" />
<glyph unicode="5" glyph-name="five" horiz-adv-x="348" d="M116 344Q126 346 133 349T147 356Q179 367 207 360T258 334T291 288T299 233Q290 178 260 137Q235 105 207 78T146 25Q140 21 135 18T125 13Q107 5 91 13T74 41Q71 59 90 67Q97 68 104 74Q133 107
159 142T200 221Q202 228 203 235T206 250Q207 259 204 267T192 281Q185 287 178 286T162 281Q151 276 142 269T123 253Q116 247 110 242T95 235Q77 231 62 240T41 268Q37 280 37 293T38 319Q38 355 40 391T50 464Q52 479 57 491Q62 500 69 506T87 511Q93 511 97
513T105 517Q150 531 195 532T285 526Q293 523 302 518Q313 513 311 502Q308 489 294 487Q253 479 212 469T128 454Q115 452 113 450T111 433Q113 411 114 389T116 344Z" />
<glyph unicode="6" glyph-name="six" horiz-adv-x="360" d="M120 191Q136 206 151 220T183 247Q196 257 210 264T240 274Q278 279 302 257T323 194Q320 162 303 131Q284 97 259 68T198 19Q173 4 149 3T99 17Q88 25 81 36T66 58Q53 81 47 107T39 160Q37 199 40
237T51 314Q58 348 67 381T92 446Q102 466 113 485T143 520Q150 525 157 530T173 538Q193 543 209 527Q223 510 210 496Q198 483 191 468T176 437Q157 388 143 337T123 233Q122 223 122 213T120 191ZM254 193Q250 193 249 193T246 193Q237 190 227 185Q200 172
177 153T140 106Q131 90 143 79Q148 72 154 73T167 77Q170 79 172 81T179 85Q193 94 204 105T224 130Q235 144 243 159T254 193Z" />
<glyph unicode="7" glyph-name="seven" horiz-adv-x="368" d="M243 472Q215 466 189 461T137 449Q110 440 81 440Q76 439 70 439T59 443Q49 448 43 457T38 478Q39 488 46 494T62 503Q74 507 87 510T114 517Q150 525 187 529T260 538Q270 539 279 539T299 535Q330
525 330 491Q330 484 329 476T324 460Q313 432 297 407Q275 368 253 330T209 251Q190 217 172 182T140 109Q136 96 131 83T120 56Q118 47 116 39T116 22Q117 10 105 4Q96 0 87 7Q80 12 77 20T72 38Q72 53 75 67T83 95Q93 133 106 171T134 247Q154 302 181 354T237
457Q239 459 240 461T242 467Q242 467 242 468T243 472Z" />
<glyph unicode="8" glyph-name="eight" horiz-adv-x="323" d="M38 86Q37 121 50 150T81 206Q83 212 88 216T93 226Q92 231 88 234T80 241Q62 260 58 283T57 331Q59 347 65 360T80 386Q101 424 128 456T185 518Q196 530 212 536Q231 544 249 538T278 512Q288 490
285 467Q283 436 277 406T261 346Q248 301 231 256Q229 249 229 245T237 235Q281 200 264 145Q259 126 249 111T225 79Q211 62 195 47T159 20Q148 13 136 9T110 2Q85 0 65 15T39 56Q38 64 38 71T38 86ZM194 430Q192 429 191 429T188 427Q172 409 157 391T131 349Q123
335 119 320Q117 306 121 296T138 278Q143 273 152 271Q161 267 163 268T167 280Q172 309 176 339T188 398Q190 406 192 413T194 430ZM206 164Q205 163 204 162T201 160Q192 144 171 149Q162 153 159 160T153 175Q152 180 152 184T153 193Q153 195 153 198T149
202Q145 202 141 196Q129 170 120 144T110 88Q110 72 114 70T132 74Q134 76 135 76T138 77Q179 103 201 143Q203 148 205 152T206 164Z" />
<glyph unicode="9" glyph-name="nine" horiz-adv-x="390" d="M258 335Q254 326 249 317T239 298Q226 273 210 252T171 214Q150 199 128 196T83 205Q73 210 66 219T53 238Q40 262 38 293Q36 351 55 399T114 487Q131 504 152 513T198 523Q206 523 213 521T228 517Q236
516 240 522T252 530Q266 534 279 530T302 515Q307 508 310 501T317 485Q340 424 347 359T351 227Q349 170 333 116Q324 86 308 61T264 19Q236 0 207 3T161 41Q157 50 157 58T164 74Q176 89 197 79Q205 75 210 77T219 85Q249 123 255 169Q259 192 262 213T266 259Q266
278 265 297T258 335ZM129 281Q153 291 173 316Q192 341 203 370T219 430Q224 450 204 443Q200 443 197 441T189 436Q164 418 149 392T126 335Q124 322 124 309T129 281Z" />
<glyph unicode=":" glyph-name="colon" horiz-adv-x="161" d="M39 268Q39 288 51 302T81 319Q98 321 108 308Q126 287 123 260Q121 244 109 233T80 223Q62 224 50 237T39 268ZM80 82Q61 83 49 95T38 125Q38 142 50 154T78 167Q95 167 107 154T120 122Q119 106
108 94T80 82Z" />
<glyph unicode=";" glyph-name="semicolon" horiz-adv-x="203" d="M129 226Q115 224 104 232T87 254Q83 268 89 281T108 301Q115 304 123 306T138 310Q149 312 156 306T165 289V262Q164 247 154 237T129 226ZM129 82Q129 78 126 73Q119 48 110 25T87 -22Q84 -27
80 -33T71 -44Q56 -54 44 -46Q33 -38 42 -20Q53 1 59 24T69 71Q69 77 69 82T71 94Q76 118 95 121Q115 123 125 103Q127 99 129 95T129 82Z" />
<glyph unicode="&lt;" glyph-name="less" horiz-adv-x="380" d="M140 248Q153 241 163 235T184 221Q205 209 225 195T263 164Q281 146 301 131T347 104Q356 101 358 93T353 76Q343 60 322 65Q312 67 303 69T284 76Q261 85 237 92T190 110Q172 118 157 128T125
148Q107 158 89 169T53 190Q24 206 23 233T46 281Q87 315 126 349T203 424Q217 438 231 452T260 481Q266 486 273 492T287 502Q296 507 307 507T326 500Q346 485 337 463Q330 447 321 434T301 406Q266 362 225 324T140 248Z" />
<glyph unicode="=" glyph-name="equal" horiz-adv-x="380" d="M101 286Q80 283 70 299Q66 305 67 315T74 332Q81 340 89 346T107 356Q132 365 158 366T215 367Q228 367 245 367T278 364Q289 364 299 356Q312 351 310 338Q307 325 295 325Q286 323 277 321T257
317Q204 312 157 298Q144 294 130 292T101 286ZM308 242Q312 238 313 232T311 220Q306 210 292 208Q261 206 231 200T170 185Q158 182 145 179T118 175Q100 174 91 180T77 197Q73 208 79 222T98 244Q114 252 130 257T164 260Q175 259 185 259T205 260Q225 259 244
259T284 257Q299 255 308 242Z" />
<glyph unicode="&gt;" glyph-name="greater" horiz-adv-x="380" d="M264 293Q252 299 241 304T219 314Q178 332 138 355T60 403Q41 417 29 436Q21 450 24 466T39 491Q50 499 64 499T90 490Q108 475 128 465T168 445Q211 425 250 400T327 347Q378 310 342 260Q318
227 287 205Q250 177 210 153T129 106Q120 100 111 94T92 82Q88 80 84 78T77 74Q71 71 67 72T57 77Q53 82 53 87T57 97Q59 102 62 106T69 113Q82 124 94 135T120 157Q155 185 187 214T251 277Q254 280 257 284T264 293Z" />
<glyph unicode="?" glyph-name="question" horiz-adv-x="458" d="M420 718Q420 682 408 647Q377 543 318 448Q298 415 278 383T237 316Q224 292 211 269T183 223Q167 198 154 173T128 121Q124 113 121 106T111 94Q101 81 89 85Q71 90 74 109Q76 130 83 149Q93
178 105 207T131 265Q154 315 178 363T227 461Q246 503 266 544T303 626Q309 642 314 658T323 691Q325 700 325 709T326 728Q323 763 290 757Q280 756 271 752T252 742Q225 724 204 701T162 652Q157 644 154 636T153 617Q155 610 151 604T140 595Q121 586 105 596Q94
604 89 615T83 640Q82 654 85 669T95 697Q115 740 147 771T219 826Q236 837 254 842T291 850Q340 853 375 826T417 751Q419 743 420 735T420 718ZM77 -34Q78 -34 79 -34T83 -35Q119 -39 113 -70Q109 -90 96 -100T65 -107Q50 -104 43 -92T38 -65Q39 -51 50 -42T77
-34Z" />
<glyph unicode="@" glyph-name="at" horiz-adv-x="717" d="M459 178Q450 167 441 156T420 136Q407 125 392 117T357 106Q326 102 302 118T266 163Q253 202 264 242Q290 320 357 358Q379 368 400 371T446 368Q454 366 461 363T476 353Q485 348 493 341T510 326Q519
321 524 311T531 290Q533 279 535 268T539 245Q540 242 540 238T542 230Q544 225 545 219T552 211Q559 210 563 216T572 226Q595 263 591 301Q588 340 572 373T525 431Q505 447 482 454T432 461Q371 463 317 442T219 377Q134 290 129 164Q128 132 136 101T165 43Q195
4 243 4Q279 5 311 15T371 50Q381 59 392 68T414 86Q427 97 441 91Q453 83 450 65Q444 39 426 14Q416 1 404 -9T377 -29Q348 -48 316 -61T249 -77Q206 -81 169 -68T102 -22Q43 45 38 137Q37 182 45 224T72 307Q108 389 167 446T312 532Q357 546 403 549T495 541Q527
532 555 517T605 476Q677 398 680 292Q681 267 673 244T653 197Q645 181 634 166T608 137Q594 123 571 117T524 116T480 148Q475 155 470 162T459 178ZM356 202Q358 203 360 203T363 203Q389 216 405 237T432 284Q436 293 423 292Q394 288 373 261T356 202Z" />
<glyph unicode="A" glyph-name="A" horiz-adv-x="422" d="M71 97Q71 118 73 140T77 184Q77 191 75 196T63 203Q51 206 44 218T37 246T51 272Q62 283 75 287Q84 289 87 295T92 308Q94 330 96 352T102 395Q110 449 120 503T140 611Q147 640 152 669T168 728Q172
737 175 746T185 763Q203 793 233 793T282 763Q293 748 298 732T306 698Q315 655 321 612T335 524Q340 478 344 432T353 338Q354 333 356 328T365 319Q391 296 369 274Q359 262 362 248Q364 221 366 194T371 140Q373 115 376 89T384 37Q389 14 368 5Q351 -5 333
13Q326 20 321 29T312 49Q303 75 298 101T288 155Q285 175 282 195T275 236Q274 242 272 245T263 247Q244 243 224 239T185 229Q174 226 174 215Q171 178 167 142T159 68Q158 59 158 50T158 32Q153 1 128 -7Q115 -11 104 -7T83 7Q76 14 74 21T72 38Q71 52 71 66T71
97ZM228 599Q222 590 222 586Q204 518 195 449Q192 419 189 389T182 328Q181 319 182 317T194 316Q208 317 222 319T249 322Q264 322 261 335Q258 355 256 374T251 413Q249 435 246 456T242 499Q240 524 237 549T228 599Z" />
<glyph unicode="B" glyph-name="B" horiz-adv-x="489" d="M272 434Q290 431 306 429T338 421Q358 414 377 405T413 380Q462 325 450 253Q436 167 377 106Q322 48 254 21T107 -10Q75 -10 54 10Q35 28 38 55Q40 72 54 78T81 73Q94 63 105 66T129 73Q133 74 133 77T131
82Q127 134 114 183T93 283Q86 335 79 386T68 490Q66 518 64 545T60 599Q60 607 61 614T62 628Q63 642 65 654T63 679Q61 693 66 706T80 728Q118 768 163 784T264 787Q302 777 329 746T360 674Q364 649 360 626T347 578Q337 547 321 518T288 460Q284 454 281 448T272
434ZM167 454Q174 457 176 462T182 472Q202 498 219 526T249 586Q256 602 261 618T267 652Q267 697 224 700Q207 700 191 695T161 682Q160 681 158 680T156 674Q164 660 150 647Q148 645 148 641T150 632Q152 610 154 588T158 544Q159 522 161 500T167 454ZM189
94Q200 99 209 103T228 112Q263 129 291 152T338 211Q349 231 355 253T359 299Q358 317 350 326T324 341Q308 346 291 346T258 343Q238 342 219 336T179 328Q173 328 173 325T173 316Q176 285 177 254T180 190Q182 168 183 144T189 94Z" />
<glyph unicode="C" glyph-name="C" horiz-adv-x="390" d="M38 389Q38 449 48 506T81 617Q98 663 132 703Q146 717 161 729T194 748Q224 762 261 752T320 704Q332 682 335 659T327 610Q326 603 321 598Q316 591 309 591T297 599Q296 603 295 606T293 613Q287 634
272 644T237 662Q230 664 225 661T215 653Q205 644 197 633T182 611Q169 588 160 563T144 511Q130 439 131 369T155 227Q165 185 195 148Q208 132 227 121Q246 108 261 111T291 131Q302 142 309 153T323 176Q326 182 329 187T336 196Q351 211 368 202Q376 198 380
190T383 173Q374 139 359 108T314 53Q262 13 200 38Q169 49 145 70T102 118Q83 146 72 176T54 239Q45 277 42 314T38 389Z" />
<glyph unicode="D" glyph-name="D" horiz-adv-x="494" d="M456 482Q455 414 439 350T390 226Q359 170 318 122T225 35Q212 25 198 18T168 5Q163 4 157 3T146 1Q121 -1 99 17T74 61Q74 68 75 74T83 83Q90 85 90 89T89 98Q80 136 74 178Q70 204 66 230T59 284Q53
358 48 432T38 580V634Q38 651 43 665T57 694Q81 731 114 752T191 781Q235 789 273 777T345 737Q394 697 420 644T453 527Q455 520 455 514T456 499V482ZM156 71Q164 75 170 80T182 89Q211 114 234 144T279 206Q308 249 325 297T353 394Q363 444 361 493T339 590Q332
608 322 625T297 655Q269 684 239 688T181 682T134 650Q130 646 128 642T126 632Q126 622 126 612T128 590Q135 538 138 484T146 377Q148 352 150 327T153 275Q155 229 155 184T155 92Q155 88 155 83T156 71Z" />
<glyph unicode="E" glyph-name="E" horiz-adv-x="398" d="M54 398Q51 442 52 486T51 574Q50 591 51 608T54 641Q54 649 53 655T47 668Q36 682 38 698T56 725Q74 739 93 742Q129 747 165 753T237 760Q254 760 270 760T303 755Q327 749 345 730Q361 713 350 694Q337
676 315 685Q303 690 290 690T263 688Q236 684 210 678T158 667Q144 664 144 652Q148 594 147 535T147 416Q149 404 151 403T164 403Q182 406 200 406T237 407Q251 407 264 407T293 406Q316 406 321 385Q324 365 302 355Q289 348 273 346T242 340Q202 333 164 328Q156
327 154 323T152 311Q155 271 160 231T173 151Q178 126 182 124T210 136Q237 153 261 174T305 221Q315 234 326 239Q338 245 349 238T360 217Q359 213 359 209T356 199Q352 179 338 161Q290 89 219 40Q185 18 155 27T107 65Q92 89 86 114T74 167Q67 207 63 248T57
329Q56 346 56 363T54 398Z" />
<glyph unicode="F" glyph-name="F" horiz-adv-x="422" d="M159 458Q161 446 163 445T177 445Q256 460 335 451Q340 451 343 450T350 448Q367 439 368 423T356 394Q346 385 333 380T305 373Q274 369 243 364T180 353Q170 352 168 350T167 337Q172 276 176 217Q178
186 180 156T186 95Q188 81 189 67T198 38Q202 29 199 19T188 2Q179 -5 168 -5T147 1Q140 8 135 16T125 34Q116 61 110 89T98 146Q80 236 74 328Q70 384 68 439T63 550Q62 578 61 605T60 659Q60 663 60 667T56 674Q32 699 39 724T78 761Q106 770 134 775Q175 780
215 784T297 788Q320 790 342 788T386 779Q416 773 437 746Q447 732 444 716Q441 704 430 696T407 692Q376 703 346 700T287 695Q258 694 229 691T171 686Q159 685 157 683T155 668Q155 655 155 627T156 564T158 501T159 458Z" />
<glyph unicode="G" glyph-name="G" horiz-adv-x="524" d="M294 398Q282 395 271 393T249 386Q227 381 215 397Q201 416 213 437Q217 444 223 448T236 457Q246 462 256 464T276 467Q305 471 335 474T395 478Q418 478 440 478T485 472Q494 471 503 468T521 458Q535
447 530 433Q525 417 506 419Q484 421 463 421T419 419Q417 418 414 418T408 418Q394 414 392 413T390 397Q388 361 386 326T380 254Q376 229 371 202T360 149Q358 127 354 105T347 59V52Q339 29 321 26Q299 26 291 49Q288 63 288 77T287 104Q286 110 286 115T285
125Q276 109 267 94T248 65Q238 52 226 41T200 22Q178 9 150 12T101 37Q90 51 81 65T66 95Q57 119 52 144T44 196Q37 250 38 304T47 412Q54 462 67 510T99 605Q125 664 168 718Q182 732 198 744T233 766Q259 777 292 773T350 736Q362 719 372 702T386 662Q387 657
387 651T384 640Q381 631 375 630T362 635Q358 639 355 643T348 652Q341 662 332 670T311 685Q298 693 288 692T266 682Q249 669 236 652T212 617Q192 583 178 547T155 473Q144 430 139 386T132 296Q132 260 134 224T147 151Q152 129 162 109Q167 100 170 100T180
106Q195 118 205 133T224 166Q236 191 245 217T263 269Q278 319 290 368Q294 380 294 398Z" />
<glyph unicode="H" glyph-name="H" horiz-adv-x="417" d="M285 382Q257 374 231 365T180 347Q171 344 162 340T143 332Q131 331 131 316Q132 276 133 238T138 160Q140 135 142 111T147 64Q149 54 144 47T131 37Q124 35 116 39T102 50Q96 64 93 77Q83 115 77 153T66
229Q63 247 61 265T56 301Q55 309 53 316T45 331Q32 346 42 367Q47 378 45 386Q38 448 38 509T39 632Q41 652 42 670T45 707Q50 730 65 745Q79 759 98 755T125 731Q130 722 130 713T131 692Q131 654 131 615T131 538Q131 511 132 485T132 431Q132 422 134 421T146
421Q176 431 207 437T270 449Q281 451 283 453T285 466Q284 495 284 524T285 583Q287 609 290 635T300 686Q304 704 314 718Q321 726 328 730T345 733Q356 732 361 726T371 710Q376 694 378 676T380 641Q379 598 378 554T372 466Q372 460 372 454T375 442Q383 432
377 424Q368 411 368 396T366 365Q364 319 362 272T357 178V95Q357 86 358 77T362 59Q366 41 350 31Q337 24 321 37Q312 44 309 53T302 73Q296 92 295 112T291 152Q288 201 288 249T285 346Q284 354 284 363T285 382Z" />
<glyph unicode="I" glyph-name="I" horiz-adv-x="180" d="M128 631Q126 560 124 495T123 367Q125 322 125 277T128 188Q129 160 129 132T134 77Q136 60 140 44Q143 33 142 27T131 16Q122 10 112 12T96 23Q89 34 84 47T77 73Q70 114 66 156T57 239Q54 293 51 346T44
454Q40 510 38 565T44 677Q46 692 50 706T57 736Q60 747 68 758Q73 765 79 769T95 773Q104 772 109 766T117 752Q123 736 124 721T126 688Q128 672 129 657T128 631Z" />
<glyph unicode="J" glyph-name="J" horiz-adv-x="387" d="M255 466Q257 513 253 560T243 655Q241 673 240 691T239 725Q239 731 239 736T242 746Q250 766 268 769T299 758Q312 744 320 724Q332 686 337 647T347 568Q352 508 351 448T344 326Q340 290 334 255T317
184Q308 156 296 129T266 79Q226 25 161 16Q125 10 95 28T51 83Q48 91 46 100T41 118Q38 124 38 133Q40 144 50 148Q60 149 66 142Q71 134 75 126T83 110Q84 108 85 105T87 98Q101 73 124 68T171 80Q189 93 198 115Q211 141 218 168T231 224Q245 282 249 335Q253
360 255 385T255 436V466Z" />
<glyph unicode="K" glyph-name="K" horiz-adv-x="416" d="M131 455Q139 457 143 461T150 470Q182 504 214 538T276 608Q312 649 345 689Q350 695 354 701T366 710Q381 721 398 712Q412 703 408 685Q407 679 405 674T401 664Q384 629 363 598T317 538Q290 507 262
478T206 419Q198 412 191 405T177 391Q170 383 170 381T177 371Q184 364 192 357T209 343Q235 321 261 301T317 260Q335 248 352 234T387 206Q398 199 400 190T401 172Q397 162 389 158T369 152Q365 152 361 152T351 154Q314 163 280 177T215 217Q196 233 177 248T137
278Q133 276 133 273T134 266Q134 223 134 181T135 95Q135 84 135 74T138 52Q145 26 125 16Q116 10 105 11T84 20Q77 27 73 35T65 53Q59 71 56 90T51 128Q44 182 42 236T39 344Q38 434 38 524T39 704Q39 712 40 721T42 737Q47 754 60 764T90 773Q107 771 119 759T129
728Q128 692 130 656T132 584Q131 553 131 521T131 455Z" />
<glyph unicode="L" glyph-name="L" horiz-adv-x="512" d="M41 241Q40 284 39 332T38 428Q38 477 38 524T38 620Q38 645 38 669T41 718Q43 735 47 748Q49 755 52 760T60 772Q74 786 92 783T120 763Q126 755 128 746T131 725Q133 669 132 614T128 502Q128 496 127
491T126 479Q124 379 120 280Q119 206 120 130Q120 111 124 108T146 109Q176 116 205 123T266 134Q296 139 326 142T386 143H453Q462 143 470 142T486 136Q497 132 501 122T503 103Q502 95 496 90T483 88Q467 96 453 92T425 86Q410 84 396 79T366 68Q321 52 274
42T180 20Q162 17 145 13T110 4Q96 1 86 2Q62 4 50 19T38 56Q39 82 40 107T41 158V241Z" />
<glyph unicode="M" glyph-name="M" horiz-adv-x="575" d="M440 595Q431 582 425 571T413 548Q395 517 379 485T347 418Q334 392 322 365T297 310Q287 285 258 283Q245 282 235 288T216 305Q206 321 201 341Q189 383 176 424T153 506Q152 515 144 524Q144 508 141
494Q139 444 137 393T132 292Q130 255 126 218T116 143Q115 131 114 120T110 95Q109 88 105 82T92 73Q84 69 76 72T62 85Q58 90 57 96T53 110Q46 153 42 197T38 284Q40 381 47 475Q50 507 52 539T56 604Q58 630 61 656T72 709Q74 717 76 724T83 739Q102 769 135
760Q158 754 170 740T189 706Q209 652 224 597T257 485Q260 473 264 460T272 434Q279 436 280 441T284 451Q307 488 325 527T365 604Q379 630 395 655T428 706Q431 711 434 717T440 730Q443 744 454 753T479 763Q493 764 505 757T524 737Q529 730 530 720T533 701Q535
676 535 649T537 595Q537 530 535 465T527 335Q525 313 525 290T524 242Q522 194 522 146T521 49Q521 27 503 22Q483 18 474 37Q466 54 464 74Q460 97 459 120T456 166Q453 207 452 249T447 332Q442 394 441 456T441 580Q441 582 441 585T440 595Z" />
<glyph unicode="N" glyph-name="N" horiz-adv-x="471" d="M129 428Q127 412 127 398T128 367Q127 333 127 300T125 235Q123 188 122 142T123 49V44Q123 23 113 22Q98 19 90 40Q86 60 83 81T77 122Q73 144 70 165T63 208Q60 228 58 248T54 287Q48 354 45 415Q41
474 40 533T38 652Q38 671 40 690T48 728Q50 733 51 737T56 745Q65 761 82 763T111 751Q118 744 124 736T134 716Q153 670 168 624T198 530Q214 478 233 428T273 329Q287 295 303 263T338 199Q341 195 343 190T353 181Q354 200 355 218T356 253Q356 282 356 311T354
370Q352 423 352 476T353 581Q353 612 353 641T350 700Q350 707 349 712T341 721Q334 724 335 731T342 742Q353 747 364 746T380 731Q385 722 387 713T392 694Q404 641 408 587T416 479Q418 424 422 370T431 260Q432 228 433 197T434 133Q433 117 432 102T425 73Q418
47 395 38T348 41Q338 47 330 55T314 74Q292 99 273 127T237 184Q216 225 197 267T161 353Q154 371 148 388T135 424Q134 425 134 426T129 428Z" />
<glyph unicode="O" glyph-name="O" horiz-adv-x="479" d="M38 365Q38 408 43 450T56 535Q64 574 75 612T104 686Q112 703 121 717T144 745Q153 754 165 761Q176 765 183 771T198 785Q221 805 246 797Q304 786 336 740Q352 718 364 694T386 644Q416 567 430 487T440
323Q436 277 428 232T404 143Q393 109 375 81T329 29Q296 2 260 -9T182 -7Q160 0 143 15T111 49Q92 75 81 103T60 163Q48 208 43 255T38 349V365ZM216 698Q211 696 209 692T206 685Q200 672 195 661T185 637Q159 575 147 510T132 379Q131 348 132 318T138 256Q142
227 149 198T167 142Q172 131 177 120T191 100Q224 59 267 85Q287 96 300 113T323 149Q332 171 339 192T350 236Q358 278 358 319T353 404Q349 435 342 464T326 523Q317 555 307 585T282 644Q277 658 270 671T251 694Q245 700 242 697Q234 689 228 692T216 698Z"
/>
<glyph unicode="P" glyph-name="P" horiz-adv-x="447" d="M440 595Q441 559 433 525T411 458Q388 402 350 358T263 277Q237 258 211 242T155 215Q146 212 146 200Q146 168 146 148T145 108T144 56Q146 47 147 38T147 20Q147 -12 123 -14Q112 -15 102 -8T87 13Q82
31 78 49T71 86Q67 110 65 121T60 143T56 178V190Q57 200 56 208T47 226Q25 249 51 269Q56 273 56 276T57 283Q60 342 60 398Q62 442 64 485T68 572Q69 601 74 628T83 683Q84 687 85 690T84 697Q82 715 90 728T111 751Q160 791 224 800Q244 804 263 801T302 790Q417
750 440 628Q441 620 441 612T440 595ZM155 518Q153 472 152 439T149 376Q149 361 149 347T147 319Q147 317 147 314T150 308Q154 307 156 309T161 313Q175 323 188 333T215 353Q238 369 257 388T293 430Q312 455 325 484T345 544Q353 568 353 590Q353 604 351
616T344 641Q330 674 302 692T239 712T168 691Q158 684 159 673V646Q161 609 159 575T155 518Z" />
<glyph unicode="Q" glyph-name="Q" horiz-adv-x="540" d="M365 109Q354 96 343 85T318 65Q300 52 280 43T237 31Q178 27 132 68Q97 101 77 148Q51 207 43 268T39 394Q43 441 54 485T81 574Q95 609 114 641T161 698Q178 715 197 725T242 734Q247 733 255 739Q290
760 324 757T392 734Q412 722 426 704T452 664Q466 637 475 608T488 547Q496 498 495 449T482 350Q473 310 458 272T422 196Q412 177 412 171T428 148Q442 131 456 115T485 83Q488 78 492 73T500 62Q507 47 497 35Q487 24 471 29Q466 31 460 34T449 41Q432 52 416
65T383 92Q379 97 375 101T365 109ZM347 245Q348 247 349 248T351 251Q356 260 360 269T368 287Q391 352 397 417T393 550Q391 564 388 577T378 602Q371 617 363 631T341 655Q331 662 321 662T300 661Q291 661 288 656T279 644Q265 621 242 632Q228 640 219 626Q214
619 209 611Q189 582 176 550T152 484Q139 440 134 396T132 307Q136 272 144 240T168 175Q174 165 181 155T198 136Q222 117 249 131Q256 136 262 140T273 151Q293 167 293 172T276 196Q264 207 252 219T231 244Q222 256 223 271T233 296Q253 316 281 302Q292 297
300 289T318 271Q325 264 331 258T347 245Z" />
<glyph unicode="R" glyph-name="R" horiz-adv-x="510" d="M228 242Q241 238 252 234T275 226Q307 215 337 201T395 170Q415 159 434 146T471 121Q478 115 484 110T494 97Q501 86 502 75T497 52Q488 41 477 38T452 37Q445 39 438 42T423 49Q398 67 373 83T320 113Q280
133 237 148T150 172Q147 172 144 172T137 172Q137 159 137 145T138 116Q140 95 141 73T143 29Q144 16 141 10T129 -1Q108 -7 95 13Q85 27 81 43T74 76Q67 111 63 146T53 217Q47 256 45 295T41 374Q39 430 38 487T38 602Q38 622 40 642T44 682Q45 696 52 707T74
722Q77 724 79 725T83 728Q115 757 151 772T228 797Q282 810 332 790T414 722Q431 695 438 666T444 604Q444 566 434 531T408 461Q379 400 337 351T245 259Q241 255 237 252T228 242ZM131 286Q138 286 141 288T149 293Q176 311 200 332T246 377Q271 404 292 433T329
496Q345 528 353 561T357 631Q354 656 338 682T285 715Q272 717 259 717T233 715Q206 709 181 700T132 677Q120 669 120 658Q122 639 122 621T122 584Q122 530 123 477T126 371Q128 350 129 329T131 286Z" />
<glyph unicode="S" glyph-name="S" horiz-adv-x="468" d="M119 539Q120 419 219 353Q243 337 269 325T321 302Q346 292 371 280T417 250Q428 242 437 232T452 209Q463 184 461 161T444 115Q432 93 414 76T374 44Q346 26 316 14T251 1Q218 -2 189 11Q164 25 156
49T158 98Q163 111 172 121T191 140Q210 157 224 143Q239 132 230 110Q229 107 227 103T222 95Q219 88 220 86T230 83Q261 82 288 92Q310 101 329 113T365 143Q379 160 379 169T359 191Q342 204 323 212T284 230Q255 243 226 256T171 287Q137 310 110 339T65 407Q43
455 38 511Q36 550 41 589T62 665Q76 701 99 730T156 779Q194 802 241 802T333 758Q371 724 394 682T431 590Q434 578 434 565T434 538Q433 530 429 523T417 512Q401 507 386 521Q382 525 379 530T374 539Q366 552 360 566T347 593Q337 616 325 638T297 679Q290
687 283 694T267 707Q239 730 204 713Q192 706 181 697T162 676Q144 654 135 628T122 572Q121 563 120 555T119 539Z" />
<glyph unicode="T" glyph-name="T" horiz-adv-x="488" d="M348 535Q352 490 353 445T359 355Q361 326 362 297T366 239Q368 196 370 155T377 71Q378 64 380 57T383 41Q384 34 381 26T371 13Q356 3 339 16Q326 26 320 44Q311 64 306 86T297 131Q287 194 281 258T272
386Q271 409 269 432T266 478Q263 556 263 634Q263 651 264 667T267 700Q269 710 268 712T257 715Q217 714 177 712T99 704Q92 703 85 703T69 703Q47 708 39 730Q33 754 56 769Q66 777 81 779Q123 790 164 794T249 800Q285 800 321 798T393 793Q437 789 480 783T566
763Q573 761 579 759T593 752Q620 741 615 716Q610 692 582 692Q553 692 525 693T467 698Q441 702 414 704T360 710Q351 712 350 710T348 698Q346 678 347 657T348 616V535Z" />
<glyph unicode="U" glyph-name="U" horiz-adv-x="600" d="M38 545Q38 586 39 620T47 689Q52 712 58 734T77 776Q86 793 99 803Q107 808 116 809T132 805Q141 801 144 793T147 776Q145 751 143 728T138 679Q136 641 134 603T132 526Q134 471 141 418T162 311Q169
284 179 258T203 206Q212 188 224 173T249 143Q254 136 260 134Q281 117 303 133Q318 143 329 155T351 182Q394 243 423 316Q443 363 456 411T476 511Q481 539 482 567T485 623Q487 656 488 688T485 754Q485 764 489 775Q496 795 515 796T545 785Q553 778 557 768T563
746V739Q563 658 561 577T540 415Q535 388 527 363T510 311Q498 270 481 231T441 154Q428 132 412 112T377 73Q352 49 323 38T258 32Q234 37 218 49Q193 63 175 84T140 130Q112 173 93 220T63 319Q50 378 44 435T38 545Z" />
<glyph unicode="V" glyph-name="V" horiz-adv-x="486" d="M239 136Q254 173 264 211Q284 281 302 351T336 493Q347 540 363 586T392 680Q397 695 402 710T411 740Q413 747 416 753T422 764Q429 775 439 780T459 782Q470 779 475 767T479 743Q462 677 453 609T429
472Q422 439 414 407T396 343Q382 282 366 223T329 104Q316 67 297 28Q294 21 290 15T281 2Q262 -18 237 -18T194 2Q185 13 179 24T168 49Q157 79 146 110T125 172Q116 207 107 242T90 314Q74 392 63 470T42 628Q39 657 38 687T41 748Q43 768 51 782Q59 796 73
800T99 802Q110 798 119 789T129 763V754Q129 701 134 649T147 544Q152 510 157 477T168 410Q179 346 193 283T230 157Q231 153 233 147T239 136Z" />
<glyph unicode="W" glyph-name="W" horiz-adv-x="779" d="M387 269Q382 257 380 245T377 220Q375 187 368 157T350 94Q344 78 337 64T320 35Q298 5 267 4T210 26Q197 39 188 53T170 83Q144 136 128 192T96 304Q83 356 73 407T53 511Q47 543 43 574T38 637Q38 668
48 695Q61 719 83 718Q94 717 101 711T113 695Q118 682 121 668T126 638Q133 600 140 562T155 484Q162 448 169 411T185 338Q192 306 200 275T219 212Q227 191 235 171T254 131Q255 129 255 127T260 124Q268 141 270 160Q283 217 292 275T308 391Q311 425 314 458T321
524Q323 538 325 551T330 577Q334 594 347 607Q361 619 382 617T414 601Q425 590 429 576T434 548Q441 498 449 448T467 347Q474 310 483 274T504 203Q512 181 522 160T546 121Q552 113 554 113T564 121Q577 139 585 159T599 199Q613 246 622 294T638 391Q641 423
643 456T648 523Q650 551 648 578T644 634Q642 663 642 691T645 749Q650 786 686 781Q697 778 704 769Q709 762 713 754T719 737Q730 700 735 661T741 584Q745 404 705 229Q698 196 687 164T660 101Q644 66 618 43Q588 14 553 14T489 44Q466 67 452 92Q430 130
417 170T392 250Q391 255 390 259T387 269Z" />
<glyph unicode="X" glyph-name="X" horiz-adv-x="549" d="M267 305Q231 245 195 182Q177 150 159 117T123 50Q119 43 114 35T102 20Q92 13 82 10T60 13Q38 22 38 52Q39 61 42 69T48 85Q62 112 76 139T105 191Q132 238 159 285T213 379Q221 392 215 406Q196 444
177 481T140 557Q129 583 117 610T95 664Q93 669 90 675T87 688Q85 704 94 716T117 731Q132 735 144 728T162 706Q170 689 178 672T194 638Q211 602 228 566T263 494Q264 491 266 487T272 479Q280 492 288 505T303 530Q325 565 346 601T390 671Q410 700 430 726T476
776Q488 790 501 794Q522 806 542 793Q552 786 555 776T557 752Q554 734 536 731Q529 731 526 729T519 722Q509 706 499 692T480 661Q462 630 442 600T405 538Q389 511 372 485T341 430Q337 422 332 414T321 398Q315 392 321 382Q337 354 353 327T389 274Q407 248
425 221T462 167Q476 148 487 129T512 89Q515 85 517 81T522 71Q530 51 512 38Q499 28 480 38Q471 44 463 51T447 67Q425 92 402 118T359 172Q339 199 320 227T281 284Q277 290 275 295T267 305Z" />
<glyph unicode="Y" glyph-name="Y" horiz-adv-x="411" d="M254 430Q259 435 260 440T263 449Q286 514 312 575T369 698Q377 714 387 730T407 761Q412 770 418 778T434 791Q442 799 455 802Q473 805 484 794T494 764Q492 752 486 741T474 718Q440 653 410 587T356
452Q330 382 308 312T266 169Q250 120 236 70Q233 55 234 41Q237 20 221 11Q211 8 199 10T179 19Q171 28 168 39T164 61Q164 84 168 105T176 148Q194 234 221 319Q223 327 223 332T215 344Q195 362 181 384T155 428Q131 475 110 522T72 617Q63 641 55 665T39 715Q35
729 41 742T60 763Q90 775 110 748Q115 740 118 732T125 715Q143 675 158 633T192 550Q218 490 249 437Q249 435 251 434T254 430Z" />
<glyph unicode="Z" glyph-name="Z" horiz-adv-x="566" d="M176 127Q188 127 200 130Q266 140 333 144T468 148Q481 148 493 145T516 139Q520 138 523 137T528 133Q552 119 548 94Q547 84 539 77T518 67Q489 60 460 58T402 53Q372 51 342 50T281 46Q241 40 202
34T125 19Q115 17 104 16T81 16Q58 21 46 39T39 82Q41 91 45 100T54 116Q83 163 115 207T182 295Q223 348 264 398T345 502Q379 543 412 586T476 674Q479 679 482 683T486 695Q470 692 454 690T422 685Q364 675 306 662T189 635Q173 632 159 629T129 623Q113 619
98 629Q79 640 78 661T92 695Q102 703 108 704Q141 713 173 723T237 742Q275 752 313 760T389 773Q415 779 441 783T494 791Q510 793 524 794T555 790Q580 783 593 764T602 718Q599 693 585 673Q564 635 539 599T485 527Q461 497 438 467T389 406Q360 369 331 333T272
259Q250 230 228 200T183 140Q181 138 179 135T176 127Z" />
<glyph unicode="[" glyph-name="bracketleft" horiz-adv-x="242" d="M44 256Q43 319 42 374T39 485Q38 511 38 537T45 589Q49 600 53 610T65 629Q78 646 98 650T138 648T168 623Q176 612 170 601Q166 595 161 595T150 595Q125 598 122 594T120 566Q122 544 124
521T126 475Q128 390 128 306T128 137Q128 108 126 80T122 22Q122 11 124 9T138 7Q146 8 155 8T171 13Q178 16 185 16T200 8Q211 -5 200 -22Q163 -73 105 -77Q80 -79 62 -61T45 -17Q47 33 47 81T45 179Q45 201 45 222T44 256Z" />
<glyph unicode="\" glyph-name="backslash" horiz-adv-x="272" d="M77 608Q110 608 122 574Q127 555 131 536T141 496Q152 449 158 402T171 305Q179 253 187 201T206 98Q211 73 216 49T231 1Q234 -3 234 -10Q234 -17 232 -23T222 -32Q206 -37 197 -28Q174 -7 164
22Q149 59 139 97T117 172Q103 227 91 281T66 391Q59 423 55 455T45 518Q43 529 41 539T38 560Q38 571 41 580T51 598Q57 603 63 606T77 608Z" />
<glyph unicode="]" glyph-name="bracketright" horiz-adv-x="251" d="M117 556Q96 548 77 548Q49 548 39 571Q36 581 39 593T53 613Q99 645 153 632Q182 622 194 593Q203 573 207 552T212 508Q214 450 212 392T207 275Q205 232 200 191T189 106Q188 86 187 66T186
23Q186 16 186 7T189 -10Q196 -35 180 -50T138 -59Q124 -56 111 -50T84 -35Q83 -34 82 -34T80 -32Q73 -27 70 -20T71 -7Q74 0 80 2T93 5Q103 5 110 2Q120 1 120 11Q122 29 123 46T125 80Q127 136 127 191T128 301Q128 356 128 411T123 521Q123 529 122 538T117
556Z" />
<glyph unicode="^" glyph-name="asciicircum" horiz-adv-x="300" d="M137 533Q128 512 119 491T101 449Q97 442 95 436T87 422Q76 404 57 409Q38 413 38 439Q39 442 40 446T42 454Q55 495 71 535T104 616Q116 644 142 647T188 625Q198 612 204 597T215 566Q226
517 242 467Q245 454 250 442T260 416Q260 411 263 406Q264 395 257 388T239 383Q230 385 224 389T212 401Q204 412 198 424T186 448Q176 467 166 486T147 523Q145 525 144 528T137 533Z" />
<glyph unicode="_" glyph-name="underscore" horiz-adv-x="510" d="M467 -37Q478 -48 470 -64Q466 -71 460 -71T446 -71Q408 -62 369 -63T291 -65Q244 -66 197 -71T102 -79Q92 -80 83 -80T63 -76Q42 -68 38 -47Q35 -27 56 -13Q66 -7 77 -4T98 2Q209 28 309 22Q342
21 369 17T422 1Q436 -5 447 -15T467 -37Z" />
<glyph unicode="`" glyph-name="grave" horiz-adv-x="186" d="M38 611Q38 627 48 634T71 634Q74 632 77 629T84 622Q93 612 98 600T110 577Q118 557 126 537T144 497Q146 495 147 493T149 488Q150 479 144 473Q139 468 128 470Q116 474 108 487Q99 501 91 513T75
539Q68 550 60 561T45 586Q43 593 41 599T38 611Z" />
<glyph unicode="a" glyph-name="a" horiz-adv-x="396" d="M261 77Q254 72 251 65T242 52Q232 37 220 25T191 5Q163 -8 135 3T95 44Q73 100 82 151T128 248Q148 273 175 283T236 287Q238 287 239 287T243 286Q247 294 245 300T242 314Q238 336 233 356T219 395Q207
421 198 423T167 407Q134 379 110 340Q102 330 102 320Q102 298 81 292Q74 290 64 294T48 305Q35 325 39 349Q43 372 52 392T74 431Q88 451 104 467T140 497Q172 517 209 515T276 479Q289 466 296 451T311 418Q322 387 329 355T341 290Q346 245 350 201T357 112Q360
86 357 59Q355 29 332 17T284 20Q274 27 270 37T264 58Q263 63 263 67T261 77ZM176 100Q192 117 207 133T233 170Q236 176 233 184T222 197Q215 202 212 199T203 193Q202 191 200 189T197 185Q184 166 178 146T176 100Z" />
<glyph unicode="b" glyph-name="b" horiz-adv-x="383" d="M137 418Q139 419 141 420T146 422Q178 440 210 436T272 412Q299 393 314 367T336 310Q351 248 342 189T294 77Q274 48 247 30T183 5Q171 4 159 5T135 10Q130 12 125 12T114 8Q100 -4 83 -2T53 12T39 44Q37
76 38 107T42 169Q46 201 46 231T44 293Q44 349 43 403T39 512Q38 550 38 587T41 662Q43 686 47 710T60 757Q67 774 84 781Q98 788 110 781T122 758Q125 677 127 596T132 433Q134 429 134 426T137 418ZM138 175H140V127Q140 107 146 102T173 100Q183 101 191 106T207
119Q228 140 237 167Q244 187 248 207T251 250Q251 283 236 313Q232 321 227 327T215 337Q193 351 180 331Q164 302 150 272T137 203Q138 196 138 189T138 175Z" />
<glyph unicode="c" glyph-name="c" horiz-adv-x="323" d="M38 164Q37 214 53 256T98 335Q126 371 173 388Q192 393 211 392T248 379Q256 373 261 366T269 350Q274 325 259 310T221 299Q208 303 198 299T179 286Q115 213 137 122Q144 93 159 87T201 94Q220 103
233 121Q235 126 238 129T245 136Q255 148 269 142Q285 134 285 119Q287 97 278 80T254 46Q235 27 213 16T164 -1Q142 -4 123 1T87 23Q67 43 57 67T41 119Q39 130 38 142T38 164Z" />
<glyph unicode="d" glyph-name="d" horiz-adv-x="416" d="M293 134Q284 118 278 106T263 80Q250 61 236 46T203 17Q167 -7 128 -1Q84 8 60 49Q48 70 43 92T38 140Q39 205 64 258T134 355Q148 367 163 378T197 392Q214 396 229 395T261 389Q263 388 267 388T275
389Q275 405 275 422T275 457Q275 496 278 533Q279 556 279 578T278 622Q279 641 279 661T282 700Q284 714 287 727T299 751Q306 767 323 767Q343 770 353 751Q360 740 363 728T368 701Q371 676 371 650T371 598Q371 538 370 478T368 356Q368 322 368 289T368 221Q367
187 367 153T371 83Q371 68 375 53Q385 27 360 14Q339 4 321 26Q317 33 314 41T309 56Q305 74 302 93T293 134ZM243 305Q232 307 224 304T209 295Q200 289 193 282T179 265Q155 234 143 200T134 127Q134 118 135 108T146 95Q154 93 160 100T171 115Q191 142 203
170T225 229Q231 248 235 266T243 305Z" />
<glyph unicode="e" glyph-name="e" horiz-adv-x="339" d="M38 179Q38 226 51 269T87 355Q98 375 113 393T147 424Q173 442 201 445Q231 447 255 432T292 392T300 334Q299 325 296 315T288 296Q275 271 258 249T215 209Q199 198 182 191T144 184Q137 184 136 182T134
173Q133 157 136 141T144 109Q150 96 155 94T173 100Q192 110 207 127Q216 135 225 141T243 155Q247 159 255 163Q270 168 280 161T291 137Q291 130 290 123T287 109Q274 71 250 43T185 2Q128 -13 86 29Q64 51 55 78T41 134Q40 145 40 156T38 179ZM225 344Q225
351 224 356T218 364Q211 368 200 359Q196 357 193 354T186 347Q173 331 165 312T149 274Q144 267 150 263Q152 261 155 261T161 263Q206 288 224 337Q225 339 225 341T225 344Z" />
<glyph unicode="f" glyph-name="f" horiz-adv-x="293" d="M161 358Q155 341 152 325T147 293Q144 252 144 210T143 125Q143 111 156 115Q186 120 218 118Q253 115 251 82Q251 71 244 64T228 52Q212 44 197 39T165 28Q152 24 150 21T149 2Q150 -11 151 -25T150
-53Q150 -111 147 -167Q147 -173 147 -177T144 -187Q133 -206 113 -205Q104 -205 96 -198T84 -179Q82 -169 80 -158T75 -137Q71 -109 65 -82T57 -25Q56 -19 56 -13T54 -1Q54 7 53 14T45 28Q29 48 44 73Q51 85 51 95Q47 181 51 263Q53 292 56 322T69 382Q75 399
83 414T105 440Q125 457 148 459T192 446Q201 441 208 433T221 416Q246 376 254 331Q255 320 254 308Q254 286 234 280Q224 276 216 279T203 290Q199 297 195 303T188 317Q182 328 177 338T161 358Z" />
<glyph unicode="g" glyph-name="g" horiz-adv-x="371" d="M237 152Q233 143 229 134T219 116Q214 104 206 92T188 71Q163 48 133 49T80 76Q67 90 60 108T47 146Q24 233 56 317Q66 344 81 368T122 409Q147 426 173 430T227 424Q235 422 241 421T255 424Q275 432
294 421T318 388Q324 362 326 336T329 284Q332 228 333 172T332 59Q331 32 329 5T317 -50Q308 -81 293 -107T254 -155Q236 -171 213 -176Q184 -182 158 -163T126 -115Q124 -97 137 -89Q142 -86 148 -85T162 -88Q168 -91 172 -94T180 -103Q189 -110 198 -100Q217
-73 224 -43Q235 4 237 53T237 152ZM146 151Q156 159 161 169T173 193Q185 223 193 255T207 322Q210 345 188 338Q176 334 167 325Q159 316 154 307T144 287Q134 262 133 235T135 181Q137 173 138 166T146 151Z" />
<glyph unicode="h" glyph-name="h" horiz-adv-x="359" d="M135 322Q139 333 141 344T147 368Q151 382 157 394T173 416Q190 433 212 437T255 428Q281 411 293 380Q305 352 310 322T320 262Q323 217 320 173T312 85Q311 77 309 70T300 55Q295 47 286 43T267 43Q250
47 248 70Q244 107 240 144T230 218Q226 240 225 261T219 302Q215 302 214 300T212 295Q190 244 177 192T158 83Q157 67 155 51T150 19Q145 -13 114 -16Q102 -16 91 -7T78 17Q75 33 74 48T71 79Q67 114 63 149T56 220Q52 261 48 301T42 382Q40 418 39 453T38 524Q38
562 38 601T47 679Q49 691 52 702T63 724Q71 736 83 742T108 743Q135 737 135 704Q137 645 134 585T131 466Q132 430 132 394T131 322H135Z" />
<glyph unicode="i" glyph-name="i" horiz-adv-x="177" d="M98 494Q69 481 48 502Q41 510 39 523T42 548Q48 561 62 569T90 578Q119 578 129 551Q134 539 131 527T116 505Q112 501 108 499T98 494ZM138 79Q142 58 125 49Q107 40 89 53Q81 60 77 69T69 88Q66 102
64 117T59 146Q53 196 50 246T50 347Q51 358 53 369T62 391Q67 401 75 407T96 413Q119 412 129 389Q138 371 138 350V212Q137 200 136 183T135 146Q135 130 135 113T138 79Z" />
<glyph unicode="j" glyph-name="j" horiz-adv-x="228" d="M80 496Q64 496 53 506T41 533Q41 547 50 556T74 566Q90 566 101 556T113 529Q113 516 104 507T80 496ZM134 415Q149 379 160 325T178 209T188 91T191 -4Q188 -78 162 -152Q150 -186 127 -208T68 -238Q38
-244 11 -235Q-22 -221 -31 -187Q-35 -174 -37 -157Q-40 -138 -24 -133Q-7 -125 5 -143Q7 -147 9 -150T12 -158Q14 -164 18 -168T30 -173Q46 -173 54 -158Q92 -92 95 -11Q96 -2 96 7T95 26Q95 39 94 71T92 140T88 209T83 254Q79 274 76 292T69 329Q66 340 64 350T56
370Q52 380 50 392Q48 412 56 422T84 440Q97 445 112 437T134 415Z" />
<glyph unicode="k" glyph-name="k" horiz-adv-x="392" d="M150 268Q156 276 161 284T173 299Q191 326 207 354T239 409Q242 416 247 421T258 430Q274 438 288 431T305 406Q307 386 300 373Q281 333 260 296T210 226Q200 215 200 213T209 197Q229 170 253 148T306
107Q311 105 315 103T324 98Q352 93 354 67Q356 54 349 43T330 26Q319 22 308 22T285 23Q243 35 210 61Q196 72 183 85T155 110Q156 96 157 82T159 53Q161 46 162 38T165 23Q168 3 153 -5Q139 -16 123 -4Q110 5 104 20Q97 37 93 56T86 94Q78 128 73 162T65 232Q61
270 56 308T48 385Q46 413 44 441T42 497Q42 540 40 583T38 670Q39 697 39 723T42 775Q44 783 45 789T51 800Q68 822 93 818Q106 815 115 807T126 784Q128 778 128 773T128 760Q131 705 132 650T135 539Q137 473 140 407T146 274Q146 269 150 268Z" />
<glyph unicode="l" glyph-name="l" horiz-adv-x="171" d="M132 95Q132 81 133 66T132 35Q132 31 132 26T131 14Q128 -6 110 -10Q90 -11 78 2Q71 10 68 20T60 40Q56 58 54 76T50 112Q44 167 43 222T39 332Q38 411 38 489T38 646Q38 653 38 659T41 673Q46 687 57
696T83 706Q114 706 123 673Q126 664 126 655Q130 590 131 525T134 395Q134 388 134 362T134 301T134 226T133 153T132 95Z" />
<glyph unicode="m" glyph-name="m" horiz-adv-x="587" d="M143 263Q146 272 149 281T156 298Q175 345 210 379Q221 388 231 394T255 400Q277 400 290 389T312 361Q317 352 319 342T324 322Q330 325 332 329T335 338Q345 358 356 376T384 409Q413 434 448 435T509
398Q523 379 529 358T539 316Q546 273 548 231T545 146Q541 126 540 107T537 67Q536 57 539 44Q541 33 536 23T519 10Q509 6 500 9T483 23Q477 37 474 50Q470 81 465 112T455 173Q453 193 453 213T452 253Q451 270 448 286T443 319Q442 324 441 329T434 338Q423
333 415 325T399 305Q386 285 375 263T354 217Q347 195 341 173T330 127Q329 119 329 112T327 97Q325 62 294 59Q265 54 255 88Q250 105 249 122T243 155Q240 184 239 212T236 268Q236 274 233 275Q227 272 225 267T221 256Q180 153 177 44Q177 37 176 28T170 11Q157
-8 136 -9T99 7Q89 20 84 41Q75 75 68 110T56 179Q49 221 44 262T39 346Q38 360 39 375T45 404Q51 415 62 423T84 430Q97 430 106 422T120 401Q125 389 125 377T128 350Q133 313 137 272Q137 267 143 263Z" />
<glyph unicode="n" glyph-name="n" horiz-adv-x="423" d="M236 265Q218 249 210 232Q189 195 176 154T156 70Q155 60 152 50T144 32Q129 7 104 10Q91 10 82 17T66 35Q62 44 61 54T57 74Q52 114 47 154T39 235Q37 262 39 289T45 343Q45 348 47 352T50 361Q59 386
83 383Q93 382 101 374T110 355Q113 331 115 308T122 262Q123 258 123 253T126 242Q131 244 132 247T134 254Q144 274 154 293T177 329Q183 337 189 344T203 358Q229 379 259 375T308 341Q317 325 322 308T329 272Q334 242 337 212T345 151Q347 133 350 116T356
80Q358 73 361 68T371 58Q392 47 384 23Q375 -2 353 -8T311 2Q302 10 296 19T285 38Q269 67 261 97T249 160Q246 183 244 207T237 254Q237 256 237 258T236 265Z" />
<glyph unicode="o" glyph-name="o" horiz-adv-x="374" d="M336 221Q331 123 264 38Q252 22 236 11T200 -7Q161 -16 125 2Q112 10 100 21T80 46Q54 87 45 130T39 220Q43 261 57 298T98 367Q121 392 153 398Q168 402 180 399T203 386Q206 383 210 383T219 382Q246
385 267 374T305 341Q323 316 329 288T336 221ZM194 296Q183 296 171 293Q161 293 156 288T147 274Q133 237 133 200T143 125Q149 109 162 92Q169 85 172 85T183 91Q192 100 200 109T215 130Q220 142 225 155T234 181Q239 200 242 219T240 259Q235 280 225 288T194
296Z" />
<glyph unicode="p" glyph-name="p" horiz-adv-x="383" d="M138 343Q143 348 147 354T156 365Q189 401 232 401T308 361Q327 337 336 309T345 250Q347 188 330 132T272 25Q258 8 240 -4Q220 -17 199 -26T153 -38Q141 -40 141 -53Q141 -72 141 -91T144 -130Q148
-169 152 -207T159 -286Q159 -295 159 -303T158 -319Q150 -352 117 -355Q88 -357 75 -325Q69 -303 66 -284Q59 -231 55 -180T45 -76Q42 -17 41 41T38 157Q37 194 37 231T39 305Q41 322 43 339T47 373Q49 383 53 393T65 412Q83 430 104 425T134 397Q136 389 137
380T137 362Q136 358 136 354T135 344Q137 344 137 344T138 343ZM228 307Q190 245 173 178T146 40Q155 41 159 45T168 53Q217 93 235 144T251 257Q250 270 246 282T228 307Z" />
<glyph unicode="q" glyph-name="q" horiz-adv-x="398" d="M255 58Q251 50 248 44T239 32Q232 20 223 9T203 -11Q178 -30 151 -29T101 -8Q92 1 85 10T72 31Q38 106 38 181T75 332Q94 368 122 389Q154 414 187 421T258 409Q263 407 267 407T275 410Q297 435 327
422Q343 417 350 405T360 377V365Q358 241 354 118Q352 51 349 -18T350 -155Q352 -190 355 -225T359 -295Q359 -300 359 -306T357 -319Q356 -341 333 -347Q313 -352 299 -335Q292 -327 288 -318T281 -298Q271 -265 264 -231T255 -163Q254 -137 254 -112T254 -61Q255
-35 256 -9T257 43Q257 46 257 50T255 58ZM153 76Q160 81 162 85T167 92Q175 108 181 123T195 155Q209 190 218 225T234 296Q236 310 234 315T219 326Q210 330 202 329T186 322Q166 307 155 281Q130 231 131 180T153 76Z" />
<glyph unicode="r" glyph-name="r" horiz-adv-x="351" d="M128 326Q135 331 137 336T141 346Q150 363 162 378T191 404Q214 418 236 420T282 409Q299 400 307 382T312 346Q309 327 296 321T266 325Q257 330 251 330T237 322Q233 318 230 312T222 301Q215 285 210
270T200 238Q191 207 184 176T171 112Q169 92 167 72T165 32Q165 25 165 17T161 1Q151 -29 120 -29Q89 -32 75 -4Q71 4 70 13T66 29Q59 71 54 112T44 196Q40 237 39 279T39 365Q39 393 60 406Q78 417 97 410T122 382Q128 366 128 350Q127 345 127 339T128 326Z"
/>
<glyph unicode="s" glyph-name="s" horiz-adv-x="375" d="M212 76Q205 78 199 80T185 85Q49 137 38 280Q34 326 52 365T108 431Q132 448 158 453T212 443Q221 439 229 432T243 416Q296 336 261 247Q258 236 248 230T227 226Q204 228 201 257Q201 271 201 284T200
311Q199 322 196 332T185 352Q174 364 162 355Q150 345 143 332T132 302Q127 268 146 234T194 185Q211 176 228 171T264 161Q273 159 281 156T299 151Q322 142 332 122T336 77Q332 55 314 37Q292 12 264 -5T207 -38Q189 -47 172 -54T134 -65Q125 -66 117 -65T99
-62Q74 -54 69 -34T71 4Q76 18 86 28Q94 35 102 37T119 34Q126 30 131 31T141 34Q155 42 169 49T198 64Q202 66 206 69T212 76Z" />
<glyph unicode="t" glyph-name="t" horiz-adv-x="329" d="M119 44Q142 61 155 80Q173 105 190 131T221 185Q222 189 223 191T224 197Q225 218 248 223Q271 225 282 206Q288 199 289 192T291 175Q287 122 263 73Q233 14 183 -25Q172 -34 161 -40T135 -50Q110 -56
85 -46T45 -13Q36 2 29 18T17 52Q4 89 -2 128T-13 206Q-21 262 -25 320T-30 436Q-30 447 -32 449T-46 449Q-59 446 -72 443T-100 437Q-117 433 -136 442Q-154 453 -156 472T-144 506Q-130 518 -114 523Q-96 528 -79 533T-43 542Q-31 544 -29 546T-25 562Q-24 596
-20 629T-6 697Q-2 709 1 721T12 745Q18 753 24 759T38 770Q57 783 80 772Q90 765 92 755T93 734Q91 712 85 691T77 646Q75 627 73 608T68 569Q68 560 69 559T81 557Q101 557 119 558T156 559Q190 559 213 533Q219 528 222 522T227 508Q229 491 216 479T189 472Q187
472 185 472T179 472Q157 464 135 465T89 463H75Q63 463 63 451Q65 432 65 414T66 376Q68 327 73 278T86 181Q89 156 93 132T105 82Q107 73 111 64T119 44Z" />
<glyph unicode="u" glyph-name="u" horiz-adv-x="417" d="M282 88Q278 81 274 75T264 62Q257 52 249 43T230 25Q197 1 165 6T111 29Q84 52 72 83Q44 146 40 212T50 344Q56 375 77 392Q86 400 96 403T117 401Q128 397 133 388T138 367Q138 358 138 349T137 332Q133
301 133 270T137 206Q139 184 143 163T158 121Q160 117 162 115Q168 104 173 102T189 106Q212 120 225 142Q240 161 248 183T261 227Q270 263 273 300T275 374Q275 405 299 422Q319 436 343 428T375 389Q379 373 379 357T378 323Q377 271 376 220T378 116Q380 91
379 64T377 11Q374 -11 354 -20Q344 -24 334 -20T317 -8Q311 -1 308 5T302 19Q296 36 292 53T282 88Z" />
<glyph unicode="v" glyph-name="v" horiz-adv-x="333" d="M158 140Q163 153 166 163T171 184Q182 221 191 259T210 335Q214 354 224 374Q231 392 244 405T275 427Q296 437 311 422Q325 408 312 391Q308 383 307 375T305 358Q298 323 289 289T272 220Q265 186 258
153T240 86Q236 70 231 56T219 25Q216 18 212 12T203 -1Q184 -23 158 -23T113 -1Q103 10 97 23T86 52Q69 99 60 148T45 247Q42 268 41 289T38 332Q38 346 39 359T45 386Q48 396 54 406Q68 423 85 422T113 401Q118 390 121 378T125 353Q130 306 136 259T152 164Q153
159 154 154T158 140Z" />
<glyph unicode="w" glyph-name="w" horiz-adv-x="575" d="M159 101Q170 112 177 124T191 149Q201 171 207 192T221 236Q230 261 235 287T239 340Q239 357 249 369T273 385Q306 392 326 362Q333 349 338 335Q341 321 345 306T353 275Q363 243 374 211T402 149Q406
144 409 139T419 130Q424 135 426 146Q434 175 437 203T441 260Q441 282 441 303T440 344Q440 355 439 364T437 383Q433 396 437 408T458 427Q482 438 500 416Q511 406 518 389Q532 355 535 319T536 247Q534 222 532 198T524 151Q520 131 514 112T498 73Q494 66
490 59T480 46Q441 4 387 31Q376 36 367 45T348 64Q316 103 296 154Q294 157 292 162T285 172Q276 145 267 121Q260 105 254 91T239 62Q231 51 223 41T203 22Q177 0 147 4T98 28Q72 55 62 86Q46 131 41 178T41 272Q43 290 47 309T59 344Q62 353 67 361T80 376Q96
392 116 383Q136 374 134 352Q134 333 133 314T132 275Q131 247 132 219T138 163Q140 147 145 132T159 101Z" />
<glyph unicode="x" glyph-name="x" horiz-adv-x="360" d="M168 68Q155 52 146 37T126 7Q121 0 115 -7T101 -22Q78 -38 56 -28Q33 -15 38 14Q39 21 42 28T48 43Q74 94 101 140Q109 155 102 170Q90 194 82 220T66 272Q58 296 53 322Q44 363 86 374Q96 376 108 371T128
355Q133 348 135 341T140 326Q145 310 151 293T165 259Q171 259 172 261T174 268Q188 291 201 314T228 359Q239 379 254 393T287 419Q296 425 304 428T323 430Q341 429 349 414T350 385Q305 309 263 232Q253 215 244 198T224 164Q217 154 222 143Q236 118 251 95T284
49Q289 39 299 34Q319 20 312 -1Q310 -10 302 -16T282 -23Q272 -24 264 -21T248 -11Q232 0 219 13T191 41Q185 48 180 54T168 68Z" />
<glyph unicode="y" glyph-name="y" horiz-adv-x="380" d="M255 145Q246 132 239 120T222 97Q211 84 199 73T170 55Q132 41 102 62Q89 71 81 84T65 112Q52 140 46 170T38 232Q38 255 39 279T48 325Q52 341 63 355Q69 360 76 363T93 364Q109 360 111 340Q113 327
113 314T114 286Q114 250 117 215T129 145Q131 137 134 128T146 116Q155 114 161 120T173 133Q187 147 196 163T213 197Q226 221 233 246T248 296Q250 305 250 314T249 332Q249 346 250 359T252 386Q255 403 261 413Q274 430 294 429T323 409Q330 396 332 383T335
355Q340 319 341 282T342 208Q342 152 342 95T341 -19Q340 -51 337 -83T326 -148Q320 -171 310 -191T279 -229Q266 -240 251 -244T219 -242Q201 -237 192 -223T179 -193Q170 -155 174 -119Q176 -111 179 -104T188 -91Q191 -86 196 -84T207 -83Q221 -88 222 -100Q222
-103 223 -107T224 -115Q224 -135 234 -152Q240 -151 242 -148T245 -140Q250 -124 252 -109T255 -77Q257 -56 259 -35T261 8Q260 42 260 76T255 145Z" />
<glyph unicode="z" glyph-name="z" horiz-adv-x="377" d="M134 109Q153 109 168 109T200 107Q252 107 300 88Q307 84 312 80T321 68Q327 57 322 49T305 41Q299 41 295 42T285 43Q267 45 250 43T215 37Q188 31 161 28T107 26Q94 28 83 31T60 43Q29 65 39 103Q43
121 56 137Q82 170 112 198T173 253Q190 267 206 281T237 311Q243 315 243 320Q221 320 200 317T156 308Q143 306 130 303T102 298Q92 295 83 296Q75 298 68 301T57 314Q51 331 63 346Q70 354 78 358T93 367Q129 381 166 390T242 400Q272 400 299 391Q327 381 336
358T332 308Q321 287 303 269Q287 253 268 238T231 205Q220 195 207 185T183 164Q171 152 159 139T134 109Z" />
<glyph unicode="{" glyph-name="braceleft" horiz-adv-x="308" d="M80 94Q82 114 83 133T86 170Q86 182 75 182Q45 186 38 214Q33 241 62 257Q69 262 75 265T89 269Q104 272 111 286Q124 305 126 329Q128 360 127 391T120 452Q117 479 115 506T114 560Q116 581
127 604T160 647T210 673Q239 680 258 661Q269 651 269 637T260 614Q256 611 252 609T242 608Q234 612 229 608T219 599Q210 590 207 579T203 556Q202 536 205 518T209 479Q211 454 214 430T218 382Q220 348 215 317T192 256Q186 244 177 235Q170 228 167 220T164
200Q166 172 163 145T162 91Q164 62 168 33T185 -23Q187 -27 188 -29T192 -35Q198 -45 204 -37Q208 -31 211 -25T218 -13Q221 -9 223 -5T230 2Q238 9 248 4Q253 2 255 -3T255 -13Q250 -32 243 -51T219 -85Q201 -101 178 -101T138 -82Q122 -64 111 -42T92 5Q86 28
84 50T80 94Z" />
<glyph unicode="|" glyph-name="bar" horiz-adv-x="162" d="M117 242Q115 184 113 127T110 11Q110 0 110 -11T114 -34Q117 -51 105 -59Q91 -69 77 -58Q66 -49 61 -38T54 -14Q51 3 50 20T47 55Q45 141 43 226T38 397Q35 456 47 517Q49 534 56 547Q67 571 90 566Q101
565 108 558T117 541Q119 531 120 522T122 502Q127 457 126 411T122 320Q121 300 120 281T117 242Z" />
<glyph unicode="}" glyph-name="braceright" horiz-adv-x="315" d="M194 286Q197 284 199 285T206 286Q224 289 237 279T249 250Q246 224 251 201T260 152Q263 127 268 104T276 55Q279 32 276 8Q273 -28 250 -50T195 -80Q173 -86 150 -85T104 -77Q96 -74 89 -70T75
-59Q58 -42 69 -23Q74 -14 81 -12T101 -11Q126 -15 148 -8T188 16Q199 25 201 38T203 65Q200 103 191 139Q187 151 184 164T177 190Q175 202 164 203Q142 207 129 222T108 257Q101 281 100 305T99 355Q101 393 105 430T114 506Q116 519 117 531T119 556Q119 566
116 568T102 568Q90 565 77 566Q64 566 54 574T39 595Q36 607 40 619T57 638Q79 649 101 655T149 658Q172 654 184 641T204 607Q211 588 211 569T210 529Q207 489 203 448T194 365Q192 345 192 325T194 286Z" />
<glyph unicode="~" glyph-name="asciitilde" horiz-adv-x="380" d="M275 191Q237 190 204 204T141 244Q134 251 127 258T113 274Q106 282 103 282T95 275Q77 257 68 235Q64 225 66 214Q69 189 50 184Q25 176 15 200Q10 216 11 231T18 260Q31 301 63 335Q80 352
101 357T141 355Q166 343 186 320Q200 308 214 298T245 280Q248 279 251 277T258 275Q282 268 292 274T306 308Q308 316 311 323T321 334Q332 339 342 335T357 320Q372 289 370 260T347 212T288 191Q285 190 282 190T275 191Z" />
<glyph unicode="&#xa0;" glyph-name="uni00A0" horiz-adv-x="225" />
<glyph unicode="&#xa1;" glyph-name="exclamdown" horiz-adv-x="197" d="M87 812Q89 819 89 825T92 838Q97 849 107 855T131 860Q142 858 150 849T159 826Q159 795 135 779Q121 769 106 775T89 799Q88 802 88 805T87 812ZM141 412V266Q140 220 140 174T137 82Q136
49 133 17T126 -50Q124 -70 116 -85Q103 -111 78 -109Q52 -106 42 -77Q38 -63 38 -50T39 -23Q41 2 41 26T42 76Q44 114 48 152T56 229Q57 247 57 265T60 302Q65 331 66 361T71 421Q73 438 74 455T77 490Q80 522 82 555T89 623Q89 638 96 650Q103 665 119 665Q134
663 138 647Q142 635 142 623T143 598Q143 556 143 512T141 412Z" />
<glyph unicode="&#xa2;" glyph-name="cent" horiz-adv-x="321" d="M186 172Q200 180 212 193Q222 204 232 214T252 236Q257 241 261 241T272 241Q285 235 284 224Q280 210 278 197T267 170Q253 149 236 131T194 104Q186 100 186 92Q188 83 188 74T189 56Q189 51
188 46T180 40Q170 37 165 50Q161 59 160 69T156 88Q154 98 147 100Q122 105 104 120T72 154Q24 224 42 310Q44 321 50 332T63 355Q74 374 90 390T125 418Q135 424 135 434Q135 450 137 465T140 496Q141 501 143 505T147 514Q155 525 166 524T182 509Q185 502 186
493T188 475Q189 468 189 462T189 449Q189 437 201 437Q225 436 248 416Q266 401 266 376Q265 365 258 361T242 364Q227 381 204 379Q197 379 195 378T191 367Q190 327 188 288T185 209Q186 200 185 191T186 172ZM144 187Q142 222 139 257T134 328Q119 312 117
285T123 230T144 187Z" />
<glyph unicode="&#xa3;" glyph-name="sterling" horiz-adv-x="300" d="M152 173Q172 182 191 182T230 181Q235 180 241 179T251 175Q261 171 262 161T255 142Q249 135 239 133Q226 129 213 125T185 115Q172 109 159 103T135 85Q135 85 135 84T132 82Q122 75 112
74T95 77Q76 91 83 112Q85 124 85 135T83 158Q82 176 80 194T77 230Q76 241 74 243T60 248Q53 250 47 253T39 265Q36 274 38 280T48 292Q50 293 52 295T56 298Q73 303 71 325Q71 346 72 367T81 409Q89 438 107 458T156 487Q193 497 218 470Q234 454 231 434Q231
422 221 419Q217 419 215 422T210 428Q209 430 209 431T207 433Q198 447 184 448T159 434Q152 427 150 417T146 395Q144 382 143 368T141 338Q143 331 144 330T155 328Q174 330 189 328Q196 327 202 326T212 319Q224 305 219 290Q214 279 192 283Q181 285 171 282T149
275Q145 274 145 271T146 266Q147 244 149 221T152 173Z" />
<glyph unicode="&#xa5;" glyph-name="yen" horiz-adv-x="311" d="M209 305Q220 307 230 309T251 313Q267 315 272 304Q277 292 263 283Q254 276 243 272T221 265Q204 260 196 257T184 246T174 221Q173 219 173 217T171 211Q182 212 190 214T206 218Q211 220 215
221T224 224Q238 227 243 215Q247 210 245 206T239 196Q230 188 220 183T198 173Q188 171 179 168T159 163Q147 160 146 149Q144 142 141 133T137 115Q137 111 135 106T131 95Q126 85 116 85Q104 85 99 95Q98 100 97 104T96 112V127Q96 138 94 140T81 143Q77 143
74 144T66 146Q50 154 51 172Q51 187 66 194Q73 198 79 198T93 199Q104 199 107 211Q107 220 110 229Q103 231 97 229T84 227Q66 232 62 247Q58 255 61 261T71 271Q80 280 91 284T116 290Q119 292 123 292T131 295Q129 300 125 303T116 310Q66 351 44 410Q40 419
39 428T38 446Q38 452 39 455Q41 463 46 470T59 478Q74 480 83 464Q91 450 99 436T114 407Q122 393 130 378T149 346Q154 351 156 357T161 368Q171 391 183 413T207 457Q209 462 213 465T221 472Q230 480 240 476T252 461Q254 454 253 449T251 437Q245 412 238
386T219 335Q217 328 215 322T209 305Z" />
<glyph unicode="&#xa7;" glyph-name="section" horiz-adv-x="477" d="M401 406Q422 397 433 377T438 332Q431 307 416 292Q397 272 374 256T327 226Q332 213 334 197T338 164Q341 118 324 80T267 13Q244 -4 218 -8T165 2Q144 12 134 29Q106 69 102 111T114 199Q119
210 129 216T150 220Q174 215 174 188Q176 175 175 162T176 134Q178 123 181 113T192 94Q198 86 202 86T215 91Q238 110 243 143Q249 178 231 212T183 260Q150 278 113 284Q104 286 95 288T78 295Q56 304 45 324T39 368Q43 379 48 389T63 409Q83 429 105 444T152
473Q148 488 145 503T140 535Q136 581 153 620T210 686Q234 703 260 708T314 698Q331 689 345 671Q398 591 363 502Q360 491 350 485T329 481Q306 483 303 512Q303 526 303 539T302 566Q301 577 298 587T287 607Q276 619 264 610Q238 588 234 557Q229 523 247 489T294
440Q311 431 329 426T365 415Q374 414 383 411T401 406ZM192 359Q242 341 276 307Q283 310 289 313T300 319Q308 324 314 331Q306 333 300 335T287 340Q236 359 201 394Q196 390 190 387T179 380Q169 378 165 370Q172 366 178 364T192 359Z" />
<glyph unicode="&#xa8;" glyph-name="dieresis" horiz-adv-x="213" d="M176 551Q176 540 167 531T144 521Q132 523 123 532T114 554Q116 567 124 575T146 584Q158 584 167 575T176 551ZM66 526Q55 526 47 533T38 551Q38 577 63 580Q74 581 82 573T92 554Q92 543
85 535T66 526Z" />
<glyph unicode="&#xa9;" glyph-name="copyright" horiz-adv-x="492" d="M450 340Q452 329 453 317T455 293Q455 229 429 175T356 71Q341 55 324 42T287 19Q247 -1 203 3T126 32Q96 54 80 85Q64 112 56 139T42 196Q24 324 86 445Q96 466 110 485T146 520Q162 531
180 537T221 535Q226 533 232 533T243 533Q359 536 413 451Q429 425 437 397T450 340ZM231 71Q245 71 269 83T320 119T365 179T383 265Q383 331 366 371T321 434T266 463T215 470Q196 470 191 455Q166 440 150 407T126 334T119 262Q119 244 123 213T138 149T171
94T231 71ZM317 232Q329 227 329 215Q330 199 323 186T305 161Q292 147 275 139T240 127Q206 122 183 145Q167 159 160 177T149 215Q148 223 147 232T146 248Q145 284 157 315T191 374Q211 402 245 413Q274 422 300 406Q313 398 317 385Q320 367 310 355T281 347Q271
351 265 348T251 337Q227 311 219 282T219 217Q228 178 266 196Q280 201 290 217Q292 219 293 222T299 227Q306 236 317 232Z" />
<glyph unicode="&#xaa;" glyph-name="ordfeminine" horiz-adv-x="197" d="M122 421Q118 417 116 412Q112 406 107 401T96 394Q85 390 75 394T59 409Q51 430 55 449T72 485Q87 508 113 500H116Q117 506 114 511Q113 519 112 527T107 542Q103 551 99 552T87 547Q80
541 75 535T65 521Q62 517 62 514Q62 506 54 503Q45 501 42 508Q39 511 39 515T38 524Q39 533 43 541T51 556Q61 571 77 580Q88 588 102 587T128 574Q133 570 136 564T141 551Q146 539 148 527T153 502Q158 467 159 434V415Q158 404 149 399T131 400Q123 405 123
413Q123 418 122 421ZM90 430Q96 437 101 443T111 457Q114 462 107 467Q104 469 101 464Q100 464 100 464T98 463Q86 446 90 430Z" />
<glyph unicode="&#xab;" glyph-name="guillemotleft" horiz-adv-x="641" d="M156 248Q169 241 179 235T201 221Q221 209 241 195T279 164Q299 146 318 131T363 104Q372 101 374 93T369 76Q359 60 338 65Q328 67 319 69T300 76Q277 85 253 92T206 110Q189 118 173
128T141 148Q123 158 105 169T69 190Q40 206 39 233T62 281Q103 315 143 349T219 424Q233 438 247 452T276 481Q282 486 289 492T303 502Q312 507 323 507T342 500Q362 485 353 463Q347 447 337 434T317 406Q282 362 241 324T156 248ZM386 248Q398 241 409 235T431
221Q451 209 471 195T509 164Q528 146 548 131T593 104Q602 101 604 93T599 76Q587 60 567 65Q557 67 548 69T530 76Q506 85 482 92T435 110Q419 118 403 128T371 148Q353 158 335 169T299 190Q270 206 268 233T291 281Q332 315 372 349T449 424Q463 438 477 452T506
481Q511 486 518 492T533 502Q542 507 553 507T572 500Q591 486 582 463Q577 447 567 434T546 406Q512 362 471 324T386 248Z" />
<glyph unicode="&#xae;" glyph-name="registered" horiz-adv-x="491" d="M449 620Q450 608 452 596T453 574Q453 509 427 454T354 350Q340 334 323 321T285 298Q245 279 201 282T125 311Q94 334 78 365Q62 391 54 419T41 475Q24 604 84 725Q95 745 109 764T144
799Q160 811 178 817T219 814Q224 812 230 812T242 812Q358 815 411 730Q427 704 436 677T449 620ZM353 439Q365 460 374 486T383 545Q383 610 366 651T321 713T266 743T215 751Q205 750 199 747T189 734Q164 719 148 686T125 613T117 542Q118 524 122 493T137
428T170 373T230 350Q244 350 270 362T321 400H312Q307 401 303 403T294 407Q285 414 276 420T258 430Q248 435 239 438T221 445Q222 441 222 438T222 431Q222 428 222 425T224 418Q225 402 218 396T204 388Q201 386 195 386Q179 386 170 400Q166 408 164 415T159
430Q157 444 155 457T152 482Q150 496 149 510T147 541Q146 561 146 582T146 623Q146 637 149 655Q151 677 170 685Q186 699 201 704T230 713Q235 715 240 715T249 715Q293 715 318 677Q332 654 332 623Q332 597 317 565Q301 531 270 500Q279 497 288 493T305 484Q312
480 319 476T333 466Q337 464 341 460T347 451Q349 447 350 444T353 439ZM215 637V617Q215 601 215 583T216 548V545Q220 547 222 550T227 556Q246 576 254 593Q264 614 261 631Q261 633 260 638T251 644Q249 646 245 646H240Q233 644 228 642T215 637Z" />
<glyph unicode="&#xaf;" glyph-name="overscore" horiz-adv-x="261" d="M113 520Q100 521 87 521T60 524Q38 528 38 548Q35 567 59 572Q62 574 65 574T71 574Q96 573 119 577T168 584Q175 586 182 586T197 586Q221 583 224 560Q226 539 203 529Q194 526 186 526Q167
525 149 523T113 520Z" />
<glyph unicode="&#xb0;" glyph-name="degree" horiz-adv-x="228" d="M38 568Q37 589 44 607T66 638Q77 649 90 653T119 649Q129 645 139 642T159 632Q213 591 176 538Q157 506 123 496Q94 487 69 503T38 551V568ZM99 572Q99 567 99 562T104 551Q109 542 117 542Q133
545 143 560Q146 568 147 576T144 592Q133 605 122 611Q112 619 110 608Q106 599 103 590T99 572Z" />
<glyph unicode="&#xb1;" glyph-name="plusminus" horiz-adv-x="380" d="M326 365Q340 360 340 347Q340 340 334 336T320 332Q293 336 268 329T217 319Q205 316 206 305Q206 300 206 295T208 284Q208 268 209 252T214 220Q216 201 203 197Q189 191 179 203Q164
218 163 235Q159 251 155 265T149 296Q148 303 146 306T136 307Q125 305 114 303T92 299Q78 297 64 299Q45 299 41 317Q39 325 42 332T50 343Q55 346 60 348T71 353Q85 358 98 360T125 365Q140 368 137 380Q136 394 136 406T140 431Q142 440 145 447T154 461Q167
481 191 475Q214 470 214 443Q214 430 213 417T211 389Q210 379 211 378T223 376Q242 376 260 375T298 371Q305 371 312 370T326 365ZM269 154Q289 151 298 136Q304 128 299 121Q293 112 284 115Q255 122 228 118T172 106Q156 102 141 97T109 89Q105 89 101 89T91
89Q73 94 68 110Q64 128 79 140Q84 142 88 144T98 148Q126 154 151 157H224V158Q235 157 246 157T269 154Z" />
<glyph unicode="&#xb4;" glyph-name="acute" horiz-adv-x="203" d="M59 469Q48 469 42 477T38 496Q39 498 40 499T41 503Q61 538 85 569T138 629Q143 634 147 635Q154 639 159 636T165 625Q164 621 163 618T161 611Q144 580 127 549T87 488Q82 481 75 476T59 469Z" />
<glyph unicode="&#xb6;" glyph-name="paragraph" horiz-adv-x="560" d="M336 673Q338 657 340 641T344 607Q345 570 346 533T345 458Q345 400 343 343T338 226Q334 174 329 122T317 17Q316 7 315 -3T308 -23Q295 -56 266 -53Q233 -51 225 -17Q224 -9 224 -1T224
16Q227 54 231 93T239 172Q244 210 242 248Q242 262 230 263Q206 265 185 275T144 298Q134 303 126 311T111 326Q71 376 54 433T38 551Q38 611 75 662Q108 702 151 702T227 667Q232 661 236 656T245 644Q245 644 246 645T248 646Q248 651 248 655T246 664Q244 673
245 682T249 698Q257 722 279 726T318 713Q326 706 330 695T336 673ZM519 607Q521 570 521 533T522 458Q521 400 520 343T513 226Q510 174 505 122T492 17Q491 7 490 -3T485 -23Q479 -38 467 -46T441 -53Q428 -52 417 -43T402 -17Q398 -3 401 16Q403 54 407 93T414
172Q416 191 417 210T419 248Q422 271 423 309T424 392T425 482T425 564T425 623T425 646Q424 651 424 655T422 664Q420 673 421 682T426 698Q434 722 455 726T494 713Q503 706 507 695T512 673Q514 657 516 641T519 607Z" />
<glyph unicode="&#xb7;" glyph-name="middot" horiz-adv-x="150" d="M78 254Q62 252 50 264T38 292Q38 306 48 318T74 331Q88 332 99 324T113 301V284Q111 268 103 261T78 254Z" />
<glyph unicode="&#xb8;" glyph-name="cedilla" horiz-adv-x="225" d="M92 -94Q85 -92 78 -92T62 -91Q52 -88 45 -82Q35 -72 38 -59Q42 -47 56 -44Q87 -38 108 -19Q121 -6 105 -1Q101 1 95 2T83 4Q73 7 65 12T53 31Q49 54 68 73Q77 82 86 80T99 65Q101 56 106 53T119
47Q159 37 183 -4Q192 -20 186 -43T162 -77Q137 -94 92 -94Z" />
<glyph unicode="&#xba;" glyph-name="ordmasculine" horiz-adv-x="189" d="M152 476Q149 438 125 407Q119 400 113 396T99 389Q92 388 85 389T71 394Q67 396 63 400T54 409Q35 441 39 475Q41 491 46 505T62 532Q65 537 70 539T83 544Q93 546 101 539Q102 536 107
536Q127 539 140 521Q147 512 149 501T152 476ZM98 505Q96 505 94 504T89 503Q82 503 80 496Q68 469 78 440Q80 437 81 434T86 427Q88 425 89 424T93 427Q101 433 105 442Q107 447 109 451T113 461Q118 475 116 490Q112 505 98 505Z" />
<glyph unicode="&#xbb;" glyph-name="guillemotright" horiz-adv-x="677" d="M548 293Q523 305 503 314Q460 332 421 355T344 403Q323 416 312 436Q303 450 307 466T323 491Q333 499 348 499T374 490Q392 475 412 465T452 445Q493 425 532 400T609 347Q661 311
624 260Q602 228 570 205Q533 177 493 153T413 106Q403 100 394 94T374 82Q370 80 367 78T359 74Q353 71 349 72T341 77Q332 86 339 97Q343 102 346 106T353 113Q365 124 378 135T404 157Q438 185 471 214T534 277Q538 280 541 284T548 293ZM281 293Q268 299 257
304T234 314Q193 332 153 355T75 403Q56 417 44 436Q36 450 39 466T54 491Q65 499 79 499T107 490Q124 475 143 465T183 445Q226 425 265 400T342 347Q393 310 357 260Q333 227 302 205Q265 177 225 153T144 106Q135 100 126 94T107 82Q103 80 99 78T92 74Q86 71
82 72T72 77Q65 87 72 97Q74 102 77 106T84 113Q97 124 109 135T135 157Q170 185 202 214T266 277Q269 280 273 284T281 293Z" />
<glyph unicode="&#xbf;" glyph-name="questiondown" horiz-adv-x="458" d="M381 800Q380 802 375 802Q339 806 345 836Q349 858 363 868T393 874Q408 870 415 858T420 832Q419 819 408 810T381 800ZM38 49Q38 85 50 121Q82 225 140 319Q160 351 181 384T221 451Q235
474 248 497T275 544Q306 592 330 647Q334 654 337 660T347 673Q352 678 357 681T369 682Q387 677 384 658Q383 638 375 617Q365 588 353 559T327 502Q304 453 280 404T231 305Q212 264 192 223T155 140Q149 124 145 109T135 76Q133 67 133 57T132 38Q135 5 168
10Q179 11 188 16T206 26Q233 43 255 66T296 115Q301 123 304 131T305 149Q303 157 307 162T318 172Q337 182 353 170Q364 163 369 152T375 128Q377 112 374 98T363 70Q343 27 312 -4T239 -59Q222 -69 204 -75T167 -83Q118 -87 84 -59T41 16Q40 24 39 32T38 49Z"
/>
<glyph unicode="&#xc0;" glyph-name="Agrave" horiz-adv-x="422" d="M71 97Q71 118 73 140T77 184Q77 191 75 196T63 203Q51 206 44 218T37 246T51 272Q62 283 75 287Q84 289 87 295T92 308Q94 330 96 352T102 395Q110 449 120 503T140 611Q147 640 152 669T168
728Q172 737 175 746T185 763Q203 793 233 793T282 763Q293 748 298 732T306 698Q315 655 321 612T335 524Q340 478 344 432T353 338Q354 333 356 328T365 319Q391 296 369 274Q359 262 362 248Q364 221 366 194T371 140Q373 115 376 89T384 37Q389 14 368 5Q351
-5 333 13Q326 20 321 29T312 49Q303 75 298 101T288 155Q285 175 282 195T275 236Q274 242 272 245T263 247Q244 243 224 239T185 229Q174 226 174 215Q171 178 167 142T159 68Q158 59 158 50T158 32Q153 1 128 -7Q115 -11 104 -7T83 7Q76 14 74 21T72 38Q71 52
71 66T71 97ZM228 599Q222 590 222 586Q204 518 195 449Q192 419 189 389T182 328Q181 319 182 317T194 316Q208 317 222 319T249 322Q264 322 261 335Q258 355 256 374T251 413Q249 435 246 456T242 499Q240 524 237 549T228 599ZM193 962Q193 978 203 985T226
985Q229 983 232 980T239 973Q248 963 253 951T265 928Q273 908 281 888T299 848Q301 846 302 844T304 839Q305 830 299 824Q294 819 283 821Q271 825 263 838Q254 852 246 864T230 890Q223 901 215 912T200 937Q198 944 196 950T193 962Z" />
<glyph unicode="&#xc1;" glyph-name="Aacute" horiz-adv-x="422" d="M71 97Q71 118 73 140T77 184Q77 191 75 196T63 203Q51 206 44 218T37 246T51 272Q62 283 75 287Q84 289 87 295T92 308Q94 330 96 352T102 395Q110 449 120 503T140 611Q147 640 152 669T168
728Q172 737 175 746T185 763Q203 793 233 793T282 763Q293 748 298 732T306 698Q315 655 321 612T335 524Q340 478 344 432T353 338Q354 333 356 328T365 319Q391 296 369 274Q359 262 362 248Q364 221 366 194T371 140Q373 115 376 89T384 37Q389 14 368 5Q351
-5 333 13Q326 20 321 29T312 49Q303 75 298 101T288 155Q285 175 282 195T275 236Q274 242 272 245T263 247Q244 243 224 239T185 229Q174 226 174 215Q171 178 167 142T159 68Q158 59 158 50T158 32Q153 1 128 -7Q115 -11 104 -7T83 7Q76 14 74 21T72 38Q71 52
71 66T71 97ZM228 599Q222 590 222 586Q204 518 195 449Q192 419 189 389T182 328Q181 319 182 317T194 316Q208 317 222 319T249 322Q264 322 261 335Q258 355 256 374T251 413Q249 435 246 456T242 499Q240 524 237 549T228 599ZM197 820Q186 820 180 828T176
847Q177 849 178 850T179 854Q199 889 223 920T276 980Q281 985 285 986Q292 990 297 987T303 976Q302 972 301 969T299 962Q282 931 265 900T225 839Q220 832 213 827T197 820Z" />
<glyph unicode="&#xc2;" glyph-name="Acircumflex" horiz-adv-x="422" d="M71 97Q71 118 73 140T77 184Q77 191 75 196T63 203Q51 206 44 218T37 246T51 272Q62 283 75 287Q84 289 87 295T92 308Q94 330 96 352T102 395Q110 449 120 503T140 611Q147 640 152 669T168
728Q172 737 175 746T185 763Q203 793 233 793T282 763Q293 748 298 732T306 698Q315 655 321 612T335 524Q340 478 344 432T353 338Q354 333 356 328T365 319Q391 296 369 274Q359 262 362 248Q364 221 366 194T371 140Q373 115 376 89T384 37Q389 14 368 5Q351
-5 333 13Q326 20 321 29T312 49Q303 75 298 101T288 155Q285 175 282 195T275 236Q274 242 272 245T263 247Q244 243 224 239T185 229Q174 226 174 215Q171 178 167 142T159 68Q158 59 158 50T158 32Q153 1 128 -7Q115 -11 104 -7T83 7Q76 14 74 21T72 38Q71 52
71 66T71 97ZM228 599Q222 590 222 586Q204 518 195 449Q192 419 189 389T182 328Q181 319 182 317T194 316Q208 317 222 319T249 322Q264 322 261 335Q258 355 256 374T251 413Q249 435 246 456T242 499Q240 524 237 549T228 599ZM234 952Q225 941 221 928T209
902Q205 895 201 887T192 871Q182 849 161 854Q143 859 143 884Q145 896 149 905Q158 932 168 959T191 1012Q196 1024 205 1032T230 1042Q244 1042 255 1035T273 1015Q281 1002 286 989T296 961Q301 935 306 909T317 857Q317 855 317 854T318 850Q321 840 312 835Q304
831 296 835Q290 840 287 845T282 856Q273 877 264 897T243 938Q241 942 240 946T234 952Z" />
<glyph unicode="&#xc3;" glyph-name="Atilde" horiz-adv-x="422" d="M71 97Q71 118 73 140T77 184Q77 191 75 196T63 203Q51 206 44 218T37 246T51 272Q62 283 75 287Q84 289 87 295T92 308Q94 330 96 352T102 395Q110 449 120 503T140 611Q147 640 152 669T168
728Q172 737 175 746T185 763Q203 793 233 793T282 763Q293 748 298 732T306 698Q315 655 321 612T335 524Q340 478 344 432T353 338Q354 333 356 328T365 319Q391 296 369 274Q359 262 362 248Q364 221 366 194T371 140Q373 115 376 89T384 37Q389 14 368 5Q351
-5 333 13Q326 20 321 29T312 49Q303 75 298 101T288 155Q285 175 282 195T275 236Q274 242 272 245T263 247Q244 243 224 239T185 229Q174 226 174 215Q171 178 167 142T159 68Q158 59 158 50T158 32Q153 1 128 -7Q115 -11 104 -7T83 7Q76 14 74 21T72 38Q71 52
71 66T71 97ZM228 599Q222 590 222 586Q204 518 195 449Q192 419 189 389T182 328Q181 319 182 317T194 316Q208 317 222 319T249 322Q264 322 261 335Q258 355 256 374T251 413Q249 435 246 456T242 499Q240 524 237 549T228 599ZM286 848Q241 850 214 882Q210
887 206 892T197 903Q190 911 186 912T173 906Q163 897 156 887T143 864Q143 863 143 863T142 861Q135 842 122 845Q115 846 112 853T109 869Q109 875 110 878Q119 901 134 920T172 951Q188 962 205 957T235 935Q240 928 245 921T257 908Q266 899 277 896T301 894Q315
896 323 909T326 936Q326 938 326 938T325 938Q321 943 320 948T325 957Q330 962 336 960T346 954Q356 945 365 925T367 888Q363 879 357 872T341 860Q314 848 286 848Z" />
<glyph unicode="&#xc4;" glyph-name="Adieresis" horiz-adv-x="422" d="M71 97Q71 118 73 140T77 184Q77 191 75 196T63 203Q51 206 44 218T37 246T51 272Q62 283 75 287Q84 289 87 295T92 308Q94 330 96 352T102 395Q110 449 120 503T140 611Q147 640 152 669T168
728Q172 737 175 746T185 763Q203 793 233 793T282 763Q293 748 298 732T306 698Q315 655 321 612T335 524Q340 478 344 432T353 338Q354 333 356 328T365 319Q391 296 369 274Q359 262 362 248Q364 221 366 194T371 140Q373 115 376 89T384 37Q389 14 368 5Q351
-5 333 13Q326 20 321 29T312 49Q303 75 298 101T288 155Q285 175 282 195T275 236Q274 242 272 245T263 247Q244 243 224 239T185 229Q174 226 174 215Q171 178 167 142T159 68Q158 59 158 50T158 32Q153 1 128 -7Q115 -11 104 -7T83 7Q76 14 74 21T72 38Q71 52
71 66T71 97ZM228 599Q222 590 222 586Q204 518 195 449Q192 419 189 389T182 328Q181 319 182 317T194 316Q208 317 222 319T249 322Q264 322 261 335Q258 355 256 374T251 413Q249 435 246 456T242 499Q240 524 237 549T228 599ZM320 909Q320 898 311 889T288
879Q276 881 267 890T258 912Q260 925 268 933T290 942Q302 942 311 933T320 909ZM210 884Q199 884 191 891T182 909Q182 935 207 938Q218 939 226 931T236 912Q236 901 229 893T210 884Z" />
<glyph unicode="&#xc5;" glyph-name="Aring" horiz-adv-x="422" d="M71 97Q71 118 73 140T77 184Q77 191 75 196T63 203Q51 206 44 218T37 246T51 272Q62 283 75 287Q84 289 87 295T92 308Q94 330 96 352T102 395Q110 449 120 503T140 611Q147 640 152 669T168
728Q172 737 175 746T185 763Q203 793 233 793T282 763Q293 748 298 732T306 698Q315 655 321 612T335 524Q340 478 344 432T353 338Q354 333 356 328T365 319Q391 296 369 274Q359 262 362 248Q364 221 366 194T371 140Q373 115 376 89T384 37Q389 14 368 5Q351
-5 333 13Q326 20 321 29T312 49Q303 75 298 101T288 155Q285 175 282 195T275 236Q274 242 272 245T263 247Q244 243 224 239T185 229Q174 226 174 215Q171 178 167 142T159 68Q158 59 158 50T158 32Q153 1 128 -7Q115 -11 104 -7T83 7Q76 14 74 21T72 38Q71 52
71 66T71 97ZM228 599Q222 590 222 586Q204 518 195 449Q192 419 189 389T182 328Q181 319 182 317T194 316Q208 317 222 319T249 322Q264 322 261 335Q258 355 256 374T251 413Q249 435 246 456T242 499Q240 524 237 549T228 599ZM155 899Q157 919 163 937T183
970Q195 980 207 979Q216 977 224 977T242 976Q256 975 269 970T293 953Q327 919 293 878Q271 855 242 841Q196 824 167 857Q159 866 157 877T155 899ZM210 914Q210 881 240 895Q242 895 243 895T245 896Q263 907 263 914T248 932Q241 937 234 941T219 941Q212
937 212 929T210 914Z" />
<glyph unicode="&#xc6;" glyph-name="AE" horiz-adv-x="624" d="M552 239Q565 245 576 238T587 217Q586 213 585 209T582 199Q578 179 564 161Q518 89 446 40Q430 30 415 27T386 26Q383 13 369 5Q352 -5 335 13Q327 20 322 29T314 49Q305 75 300 101T290 155Q286
175 283 195T276 236Q274 248 264 247Q245 243 226 239T186 229Q176 226 176 215Q172 178 168 142T161 68Q160 59 160 50T159 32Q154 1 129 -7Q115 -11 104 -7T84 7Q77 14 76 21T74 38Q73 52 72 66T72 97Q72 118 74 140T77 184Q78 191 76 196T65 203Q52 206 44
218T38 246T53 272Q58 278 64 281T77 287Q86 289 89 295T92 308Q95 330 97 352T104 395Q112 449 121 503T141 611Q148 640 154 669T170 728Q176 747 185 763Q204 793 235 793T284 763Q293 750 297 734Q303 738 308 739T320 742Q356 747 392 753T464 760Q481 760
497 760T530 755Q555 749 572 730Q588 711 576 694Q565 676 542 685Q529 690 516 690T489 688Q462 684 436 678T384 667Q371 664 371 652Q374 594 373 535T374 416Q375 404 377 403T390 403Q408 406 427 406T464 407Q478 407 491 407T519 406Q543 406 548 385Q550
365 528 355Q515 348 499 346T468 340Q448 336 429 333T390 328Q378 326 378 311Q378 309 379 306T380 301V293Q383 257 387 222T399 151Q405 126 409 124T437 136Q464 153 487 174T531 221Q541 234 552 239ZM251 322Q263 322 263 335Q259 355 257 374T252 413Q250
435 247 456T242 499Q239 548 230 599Q224 592 224 586Q206 518 197 449Q193 419 190 389T183 328Q182 319 183 317T195 316Q209 317 223 319T251 322Z" />
<glyph unicode="&#xc7;" glyph-name="Ccedilla" horiz-adv-x="390" d="M38 389Q38 449 48 506T81 617Q98 663 132 703Q146 717 161 729T194 748Q224 762 261 752T320 704Q332 682 335 659T327 610Q326 603 321 598Q316 591 309 591T297 599Q296 603 295 606T293
613Q287 634 272 644T237 662Q230 664 225 661T215 653Q205 644 197 633T182 611Q169 588 160 563T144 511Q130 439 131 369T155 227Q165 185 195 148Q208 132 227 121Q246 108 261 111T291 131Q302 142 309 153T323 176Q326 182 329 187T336 196Q351 211 368 202Q376
198 380 190T383 173Q374 139 359 108T314 53Q262 13 200 38Q169 49 145 70T102 118Q83 146 72 176T54 239Q45 277 42 314T38 389ZM236 -122Q229 -120 222 -120T206 -119Q196 -116 189 -110Q179 -100 182 -87Q186 -75 200 -72Q231 -66 252 -47Q265 -34 249 -29Q245
-27 239 -26T227 -24Q217 -21 209 -16T197 3Q193 26 212 45Q221 54 230 52T243 37Q245 28 250 25T263 19Q303 9 327 -32Q336 -48 330 -71T306 -105Q281 -122 236 -122Z" />
<glyph unicode="&#xc8;" glyph-name="Egrave" horiz-adv-x="398" d="M54 398Q51 442 52 486T51 574Q50 591 51 608T54 641Q54 649 53 655T47 668Q36 682 38 698T56 725Q74 739 93 742Q129 747 165 753T237 760Q254 760 270 760T303 755Q327 749 345 730Q361 713
350 694Q337 676 315 685Q303 690 290 690T263 688Q236 684 210 678T158 667Q144 664 144 652Q148 594 147 535T147 416Q149 404 151 403T164 403Q182 406 200 406T237 407Q251 407 264 407T293 406Q316 406 321 385Q324 365 302 355Q289 348 273 346T242 340Q202
333 164 328Q156 327 154 323T152 311Q155 271 160 231T173 151Q178 126 182 124T210 136Q237 153 261 174T305 221Q315 234 326 239Q338 245 349 238T360 217Q359 213 359 209T356 199Q352 179 338 161Q290 89 219 40Q185 18 155 27T107 65Q92 89 86 114T74 167Q67
207 63 248T57 329Q56 346 56 363T54 398ZM155 922Q155 938 165 945T188 945Q191 943 194 940T201 933Q210 923 215 911T227 888Q235 868 243 848T261 808Q263 806 264 804T266 799Q267 790 261 784Q256 779 245 781Q233 785 225 798Q216 812 208 824T192 850Q185
861 177 872T162 897Q160 904 158 910T155 922Z" />
<glyph unicode="&#xc9;" glyph-name="Eacute" horiz-adv-x="398" d="M54 398Q51 442 52 486T51 574Q50 591 51 608T54 641Q54 649 53 655T47 668Q36 682 38 698T56 725Q74 739 93 742Q129 747 165 753T237 760Q254 760 270 760T303 755Q327 749 345 730Q361 713
350 694Q337 676 315 685Q303 690 290 690T263 688Q236 684 210 678T158 667Q144 664 144 652Q148 594 147 535T147 416Q149 404 151 403T164 403Q182 406 200 406T237 407Q251 407 264 407T293 406Q316 406 321 385Q324 365 302 355Q289 348 273 346T242 340Q202
333 164 328Q156 327 154 323T152 311Q155 271 160 231T173 151Q178 126 182 124T210 136Q237 153 261 174T305 221Q315 234 326 239Q338 245 349 238T360 217Q359 213 359 209T356 199Q352 179 338 161Q290 89 219 40Q185 18 155 27T107 65Q92 89 86 114T74 167Q67
207 63 248T57 329Q56 346 56 363T54 398ZM159 780Q148 780 142 788T138 807Q139 809 140 810T141 814Q161 849 185 880T238 940Q243 945 247 946Q254 950 259 947T265 936Q264 932 263 929T261 922Q244 891 227 860T187 799Q182 792 175 787T159 780Z" />
<glyph unicode="&#xca;" glyph-name="Ecircumflex" horiz-adv-x="398" d="M54 398Q51 442 52 486T51 574Q50 591 51 608T54 641Q54 649 53 655T47 668Q36 682 38 698T56 725Q74 739 93 742Q129 747 165 753T237 760Q254 760 270 760T303 755Q327 749 345 730Q361
713 350 694Q337 676 315 685Q303 690 290 690T263 688Q236 684 210 678T158 667Q144 664 144 652Q148 594 147 535T147 416Q149 404 151 403T164 403Q182 406 200 406T237 407Q251 407 264 407T293 406Q316 406 321 385Q324 365 302 355Q289 348 273 346T242 340Q202
333 164 328Q156 327 154 323T152 311Q155 271 160 231T173 151Q178 126 182 124T210 136Q237 153 261 174T305 221Q315 234 326 239Q338 245 349 238T360 217Q359 213 359 209T356 199Q352 179 338 161Q290 89 219 40Q185 18 155 27T107 65Q92 89 86 114T74 167Q67
207 63 248T57 329Q56 346 56 363T54 398ZM196 912Q187 901 183 888T171 862Q167 855 163 847T154 831Q144 809 123 814Q105 819 105 844Q107 856 111 865Q120 892 130 919T153 972Q158 984 167 992T192 1002Q206 1002 217 995T235 975Q243 962 248 949T258 921Q263
895 268 869T279 817Q279 815 279 814T280 810Q283 800 274 795Q266 791 258 795Q252 800 249 805T244 816Q235 837 226 857T205 898Q203 902 202 906T196 912Z" />
<glyph unicode="&#xcb;" glyph-name="Edieresis" horiz-adv-x="398" d="M54 398Q51 442 52 486T51 574Q50 591 51 608T54 641Q54 649 53 655T47 668Q36 682 38 698T56 725Q74 739 93 742Q129 747 165 753T237 760Q254 760 270 760T303 755Q327 749 345 730Q361
713 350 694Q337 676 315 685Q303 690 290 690T263 688Q236 684 210 678T158 667Q144 664 144 652Q148 594 147 535T147 416Q149 404 151 403T164 403Q182 406 200 406T237 407Q251 407 264 407T293 406Q316 406 321 385Q324 365 302 355Q289 348 273 346T242 340Q202
333 164 328Q156 327 154 323T152 311Q155 271 160 231T173 151Q178 126 182 124T210 136Q237 153 261 174T305 221Q315 234 326 239Q338 245 349 238T360 217Q359 213 359 209T356 199Q352 179 338 161Q290 89 219 40Q185 18 155 27T107 65Q92 89 86 114T74 167Q67
207 63 248T57 329Q56 346 56 363T54 398ZM282 869Q282 858 273 849T250 839Q238 841 229 850T220 872Q222 885 230 893T252 902Q264 902 273 893T282 869ZM172 844Q161 844 153 851T144 869Q144 895 169 898Q180 899 188 891T198 872Q198 861 191 853T172 844Z"
/>
<glyph unicode="&#xcc;" glyph-name="Igrave" horiz-adv-x="180" d="M128 631Q126 560 124 495T123 367Q125 322 125 277T128 188Q129 160 129 132T134 77Q136 60 140 44Q143 33 142 27T131 16Q122 10 112 12T96 23Q89 34 84 47T77 73Q70 114 66 156T57 239Q54
293 51 346T44 454Q40 510 38 565T44 677Q46 692 50 706T57 736Q60 747 68 758Q73 765 79 769T95 773Q104 772 109 766T117 752Q123 736 124 721T126 688Q128 672 129 657T128 631ZM49 947Q49 963 59 970T82 970Q85 968 88 965T95 958Q104 948 109 936T121 913Q129
893 137 873T155 833Q157 831 158 829T160 824Q161 815 155 809Q150 804 139 806Q127 810 119 823Q110 837 102 849T86 875Q79 886 71 897T56 922Q54 929 52 935T49 947Z" />
<glyph unicode="&#xcd;" glyph-name="Iacute" horiz-adv-x="180" d="M128 631Q126 560 124 495T123 367Q125 322 125 277T128 188Q129 160 129 132T134 77Q136 60 140 44Q143 33 142 27T131 16Q122 10 112 12T96 23Q89 34 84 47T77 73Q70 114 66 156T57 239Q54
293 51 346T44 454Q40 510 38 565T44 677Q46 692 50 706T57 736Q60 747 68 758Q73 765 79 769T95 773Q104 772 109 766T117 752Q123 736 124 721T126 688Q128 672 129 657T128 631ZM53 805Q42 805 36 813T32 832Q33 834 34 835T35 839Q55 874 79 905T132 965Q137
970 141 971Q148 975 153 972T159 961Q158 957 157 954T155 947Q138 916 121 885T81 824Q76 817 69 812T53 805Z" />
<glyph unicode="&#xce;" glyph-name="Icircumflex" horiz-adv-x="180" d="M128 631Q126 560 124 495T123 367Q125 322 125 277T128 188Q129 160 129 132T134 77Q136 60 140 44Q143 33 142 27T131 16Q122 10 112 12T96 23Q89 34 84 47T77 73Q70 114 66 156T57 239Q54
293 51 346T44 454Q40 510 38 565T44 677Q46 692 50 706T57 736Q60 747 68 758Q73 765 79 769T95 773Q104 772 109 766T117 752Q123 736 124 721T126 688Q128 672 129 657T128 631ZM90 937Q81 926 77 913T65 887Q61 880 57 872T48 856Q38 834 17 839Q-1 844 -1
869Q1 881 5 890Q14 917 24 944T47 997Q52 1009 61 1017T86 1027Q100 1027 111 1020T129 1000Q137 987 142 974T152 946Q157 920 162 894T173 842Q173 840 173 839T174 835Q177 825 168 820Q160 816 152 820Q146 825 143 830T138 841Q129 862 120 882T99 923Q97
927 96 931T90 937Z" />
<glyph unicode="&#xcf;" glyph-name="Idieresis" horiz-adv-x="180" d="M128 631Q126 560 124 495T123 367Q125 322 125 277T128 188Q129 160 129 132T134 77Q136 60 140 44Q143 33 142 27T131 16Q122 10 112 12T96 23Q89 34 84 47T77 73Q70 114 66 156T57 239Q54
293 51 346T44 454Q40 510 38 565T44 677Q46 692 50 706T57 736Q60 747 68 758Q73 765 79 769T95 773Q104 772 109 766T117 752Q123 736 124 721T126 688Q128 672 129 657T128 631ZM176 894Q176 883 167 874T144 864Q132 866 123 875T114 897Q116 910 124 918T146
927Q158 927 167 918T176 894ZM66 869Q55 869 47 876T38 894Q38 920 63 923Q74 924 82 916T92 897Q92 886 85 878T66 869Z" />
<glyph unicode="&#xd0;" glyph-name="Eth" horiz-adv-x="494" d="M456 499V482Q455 414 439 350T389 226Q358 170 317 122T224 35Q211 25 198 18T168 5Q163 4 157 3T146 1Q120 -1 98 17T74 61Q70 77 83 83Q88 85 89 89T89 98Q83 118 80 138T74 178Q68 204 64 230T59
284Q58 292 58 300T56 317Q32 312 10 307T-18 302Q-38 308 -44 331T-31 373Q-26 378 -20 381T-6 386Q1 390 50 401Q46 446 44 490T38 580Q37 594 37 607T38 634Q38 651 43 665T57 694Q81 731 114 752T191 781Q234 789 272 777T344 737Q394 697 420 644T453 527Q453
520 454 514T456 499ZM353 394Q363 444 361 493T339 590Q332 608 321 625T296 655Q268 684 238 688T180 682T132 650Q129 646 127 642T126 632Q126 622 126 612T128 590Q133 547 136 504T143 418Q148 419 154 419T167 421Q181 423 207 423T256 423T282 418Q296
409 297 397T287 374Q284 371 269 367T234 359T199 351T180 347Q173 345 165 343T149 340Q150 323 151 307T152 275Q154 229 154 184T153 92Q153 88 153 83T156 71Q164 75 170 80T180 89Q211 114 234 144T278 206Q306 249 324 297T353 394Z" />
<glyph unicode="&#xd1;" glyph-name="Ntilde" horiz-adv-x="471" d="M129 428Q127 412 127 398T128 367Q127 333 127 300T125 235Q123 188 122 142T123 49V44Q123 23 113 22Q98 19 90 40Q86 60 83 81T77 122Q73 144 70 165T63 208Q60 228 58 248T54 287Q48 354
45 415Q41 474 40 533T38 652Q38 671 40 690T48 728Q50 733 51 737T56 745Q65 761 82 763T111 751Q118 744 124 736T134 716Q153 670 168 624T198 530Q214 478 233 428T273 329Q287 295 303 263T338 199Q341 195 343 190T353 181Q354 200 355 218T356 253Q356 282
356 311T354 370Q352 423 352 476T353 581Q353 612 353 641T350 700Q350 707 349 712T341 721Q334 724 335 731T342 742Q353 747 364 746T380 731Q385 722 387 713T392 694Q404 641 408 587T416 479Q418 424 422 370T431 260Q432 228 433 197T434 133Q433 117 432
102T425 73Q418 47 395 38T348 41Q338 47 330 55T314 74Q292 99 273 127T237 184Q216 225 197 267T161 353Q154 371 148 388T135 424Q134 425 134 426T129 428ZM274 818Q229 820 202 852Q198 857 194 862T185 873Q178 881 174 882T161 876Q151 867 144 857T131
834Q131 833 131 833T130 831Q123 812 110 815Q103 816 100 823T97 839Q97 845 98 848Q107 871 122 890T160 921Q176 932 193 927T223 905Q228 898 233 891T245 878Q254 869 265 866T289 864Q303 866 311 879T314 906Q314 908 314 908T313 908Q309 913 308 918T313
927Q318 932 324 930T334 924Q344 915 353 895T355 858Q351 849 345 842T329 830Q302 818 274 818Z" />
<glyph unicode="&#xd2;" glyph-name="Ograve" horiz-adv-x="479" d="M38 365Q38 408 43 450T56 535Q64 574 75 612T104 686Q112 703 121 717T144 745Q153 754 165 761Q176 765 183 771T198 785Q221 805 246 797Q304 786 336 740Q352 718 364 694T386 644Q416 567
430 487T440 323Q436 277 428 232T404 143Q393 109 375 81T329 29Q296 2 260 -9T182 -7Q160 0 143 15T111 49Q92 75 81 103T60 163Q48 208 43 255T38 349V365ZM216 698Q211 696 209 692T206 685Q200 672 195 661T185 637Q159 575 147 510T132 379Q131 348 132 318T138
256Q142 227 149 198T167 142Q172 131 177 120T191 100Q224 59 267 85Q287 96 300 113T323 149Q332 171 339 192T350 236Q358 278 358 319T353 404Q349 435 342 464T326 523Q317 555 307 585T282 644Q277 658 270 671T251 694Q245 700 242 697Q234 689 228 692T216
698ZM200 971Q200 987 210 994T233 994Q236 992 239 989T246 982Q255 972 260 960T272 937Q280 917 288 897T306 857Q308 855 309 853T311 848Q312 839 306 833Q301 828 290 830Q278 834 270 847Q261 861 253 873T237 899Q230 910 222 921T207 946Q205 953 203
959T200 971Z" />
<glyph unicode="&#xd3;" glyph-name="Oacute" horiz-adv-x="479" d="M38 365Q38 408 43 450T56 535Q64 574 75 612T104 686Q112 703 121 717T144 745Q153 754 165 761Q176 765 183 771T198 785Q221 805 246 797Q304 786 336 740Q352 718 364 694T386 644Q416 567
430 487T440 323Q436 277 428 232T404 143Q393 109 375 81T329 29Q296 2 260 -9T182 -7Q160 0 143 15T111 49Q92 75 81 103T60 163Q48 208 43 255T38 349V365ZM216 698Q211 696 209 692T206 685Q200 672 195 661T185 637Q159 575 147 510T132 379Q131 348 132 318T138
256Q142 227 149 198T167 142Q172 131 177 120T191 100Q224 59 267 85Q287 96 300 113T323 149Q332 171 339 192T350 236Q358 278 358 319T353 404Q349 435 342 464T326 523Q317 555 307 585T282 644Q277 658 270 671T251 694Q245 700 242 697Q234 689 228 692T216
698ZM204 829Q193 829 187 837T183 856Q184 858 185 859T186 863Q206 898 230 929T283 989Q288 994 292 995Q299 999 304 996T310 985Q309 981 308 978T306 971Q289 940 272 909T232 848Q227 841 220 836T204 829Z" />
<glyph unicode="&#xd4;" glyph-name="Ocircumflex" horiz-adv-x="479" d="M38 365Q38 408 43 450T56 535Q64 574 75 612T104 686Q112 703 121 717T144 745Q153 754 165 761Q176 765 183 771T198 785Q221 805 246 797Q304 786 336 740Q352 718 364 694T386 644Q416
567 430 487T440 323Q436 277 428 232T404 143Q393 109 375 81T329 29Q296 2 260 -9T182 -7Q160 0 143 15T111 49Q92 75 81 103T60 163Q48 208 43 255T38 349V365ZM216 698Q211 696 209 692T206 685Q200 672 195 661T185 637Q159 575 147 510T132 379Q131 348 132
318T138 256Q142 227 149 198T167 142Q172 131 177 120T191 100Q224 59 267 85Q287 96 300 113T323 149Q332 171 339 192T350 236Q358 278 358 319T353 404Q349 435 342 464T326 523Q317 555 307 585T282 644Q277 658 270 671T251 694Q245 700 242 697Q234 689
228 692T216 698ZM241 961Q232 950 228 937T216 911Q212 904 208 896T199 880Q189 858 168 863Q150 868 150 893Q152 905 156 914Q165 941 175 968T198 1021Q203 1033 212 1041T237 1051Q251 1051 262 1044T280 1024Q288 1011 293 998T303 970Q308 944 313 918T324
866Q324 864 324 863T325 859Q328 849 319 844Q311 840 303 844Q297 849 294 854T289 865Q280 886 271 906T250 947Q248 951 247 955T241 961Z" />
<glyph unicode="&#xd5;" glyph-name="Otilde" horiz-adv-x="479" d="M38 365Q38 408 43 450T56 535Q64 574 75 612T104 686Q112 703 121 717T144 745Q153 754 165 761Q176 765 183 771T198 785Q221 805 246 797Q304 786 336 740Q352 718 364 694T386 644Q416 567
430 487T440 323Q436 277 428 232T404 143Q393 109 375 81T329 29Q296 2 260 -9T182 -7Q160 0 143 15T111 49Q92 75 81 103T60 163Q48 208 43 255T38 349V365ZM216 698Q211 696 209 692T206 685Q200 672 195 661T185 637Q159 575 147 510T132 379Q131 348 132 318T138
256Q142 227 149 198T167 142Q172 131 177 120T191 100Q224 59 267 85Q287 96 300 113T323 149Q332 171 339 192T350 236Q358 278 358 319T353 404Q349 435 342 464T326 523Q317 555 307 585T282 644Q277 658 270 671T251 694Q245 700 242 697Q234 689 228 692T216
698ZM293 857Q248 859 221 891Q217 896 213 901T204 912Q197 920 193 921T180 915Q170 906 163 896T150 873Q150 872 150 872T149 870Q142 851 129 854Q122 855 119 862T116 878Q116 884 117 887Q126 910 141 929T179 960Q195 971 212 966T242 944Q247 937 252
930T264 917Q273 908 284 905T308 903Q322 905 330 918T333 945Q333 947 333 947T332 947Q328 952 327 957T332 966Q337 971 343 969T353 963Q363 954 372 934T374 897Q370 888 364 881T348 869Q321 857 293 857Z" />
<glyph unicode="&#xd6;" glyph-name="Odieresis" horiz-adv-x="479" d="M38 365Q38 408 43 450T56 535Q64 574 75 612T104 686Q112 703 121 717T144 745Q153 754 165 761Q176 765 183 771T198 785Q221 805 246 797Q304 786 336 740Q352 718 364 694T386 644Q416
567 430 487T440 323Q436 277 428 232T404 143Q393 109 375 81T329 29Q296 2 260 -9T182 -7Q160 0 143 15T111 49Q92 75 81 103T60 163Q48 208 43 255T38 349V365ZM216 698Q211 696 209 692T206 685Q200 672 195 661T185 637Q159 575 147 510T132 379Q131 348 132
318T138 256Q142 227 149 198T167 142Q172 131 177 120T191 100Q224 59 267 85Q287 96 300 113T323 149Q332 171 339 192T350 236Q358 278 358 319T353 404Q349 435 342 464T326 523Q317 555 307 585T282 644Q277 658 270 671T251 694Q245 700 242 697Q234 689
228 692T216 698ZM327 918Q327 907 318 898T295 888Q283 890 274 899T265 921Q267 934 275 942T297 951Q309 951 318 942T327 918ZM217 893Q206 893 198 900T189 918Q189 944 214 947Q225 948 233 940T243 921Q243 910 236 902T217 893Z" />
<glyph unicode="&#xd7;" glyph-name="multiply" horiz-adv-x="380" d="M136 430Q166 430 176 401Q180 385 188 371T203 341Q205 334 208 334T217 340Q231 356 246 371T275 403Q280 406 284 410T293 418Q298 423 303 422T314 418Q320 414 320 408T317 397Q316 395
315 393T311 388Q293 364 276 342T241 296Q233 284 242 275Q253 265 262 255T283 236Q286 233 290 230T299 227Q312 226 314 211Q314 193 298 188Q291 186 285 187T271 193Q256 200 244 208T217 226Q204 234 201 233T190 221Q174 199 158 178T124 136Q120 132 116
127T107 118Q100 114 93 113T77 115Q61 125 61 143Q62 156 67 167T80 187Q95 206 109 224T140 260Q149 269 149 273T140 286Q104 322 95 373Q91 392 100 408T127 428Q130 428 132 429T136 430Z" />
<glyph unicode="&#xd8;" glyph-name="Oslash" horiz-adv-x="489" d="M413 601Q436 534 445 465T450 323Q448 277 440 232T416 143Q403 109 386 81T341 29Q308 2 272 -9T192 -7Q170 0 153 15T122 49Q118 54 114 61Q109 48 103 37T93 23Q83 14 69 15T43 27T30 55Q28
71 35 83Q40 97 50 116T74 158Q74 160 73 161T72 163Q60 208 55 255T50 349Q50 354 50 357T48 365Q50 408 54 450T68 535Q76 574 87 612T116 686Q129 720 156 745Q161 750 165 754T177 761Q186 765 194 771T210 785Q232 804 258 797Q316 786 348 740Q361 721 371
702T389 662Q400 678 406 687T414 697Q447 707 452 674Q452 672 442 653T413 601ZM143 379Q143 355 143 331T147 283Q190 354 237 429T324 565Q319 585 311 605T294 644Q287 658 281 671T263 694Q261 696 259 697T252 697Q245 689 239 692T227 698Q223 696 221
692T216 685Q211 672 206 661T195 637Q170 575 158 510T143 379ZM360 236Q368 278 368 319T363 404Q361 424 357 445T347 487Q316 434 283 377T219 267T167 173Q169 166 172 158T179 142Q184 131 189 120T201 100Q234 59 278 85Q298 96 311 113T335 149Q344 171
350 192T360 236Z" />
<glyph unicode="&#xd9;" glyph-name="Ugrave" horiz-adv-x="600" d="M38 545Q38 586 39 620T47 689Q52 712 58 734T77 776Q86 793 99 803Q107 808 116 809T132 805Q141 801 144 793T147 776Q145 751 143 728T138 679Q136 641 134 603T132 526Q134 471 141 418T162
311Q169 284 179 258T203 206Q212 188 224 173T249 143Q254 136 260 134Q281 117 303 133Q318 143 329 155T351 182Q394 243 423 316Q443 363 456 411T476 511Q481 539 482 567T485 623Q487 656 488 688T485 754Q485 764 489 775Q496 795 515 796T545 785Q553 778
557 768T563 746V739Q563 658 561 577T540 415Q535 388 527 363T510 311Q498 270 481 231T441 154Q428 132 412 112T377 73Q352 49 323 38T258 32Q234 37 218 49Q193 63 175 84T140 130Q112 173 93 220T63 319Q50 378 44 435T38 545ZM274 949Q274 965 284 972T307
972Q310 970 313 967T320 960Q329 950 334 938T346 915Q354 895 362 875T380 835Q382 833 383 831T385 826Q386 817 380 811Q375 806 364 808Q352 812 344 825Q335 839 327 851T311 877Q304 888 296 899T281 924Q279 931 277 937T274 949Z" />
<glyph unicode="&#xda;" glyph-name="Uacute" horiz-adv-x="600" d="M38 545Q38 586 39 620T47 689Q52 712 58 734T77 776Q86 793 99 803Q107 808 116 809T132 805Q141 801 144 793T147 776Q145 751 143 728T138 679Q136 641 134 603T132 526Q134 471 141 418T162
311Q169 284 179 258T203 206Q212 188 224 173T249 143Q254 136 260 134Q281 117 303 133Q318 143 329 155T351 182Q394 243 423 316Q443 363 456 411T476 511Q481 539 482 567T485 623Q487 656 488 688T485 754Q485 764 489 775Q496 795 515 796T545 785Q553 778
557 768T563 746V739Q563 658 561 577T540 415Q535 388 527 363T510 311Q498 270 481 231T441 154Q428 132 412 112T377 73Q352 49 323 38T258 32Q234 37 218 49Q193 63 175 84T140 130Q112 173 93 220T63 319Q50 378 44 435T38 545ZM278 807Q267 807 261 815T257
834Q258 836 259 837T260 841Q280 876 304 907T357 967Q362 972 366 973Q373 977 378 974T384 963Q383 959 382 956T380 949Q363 918 346 887T306 826Q301 819 294 814T278 807Z" />
<glyph unicode="&#xdb;" glyph-name="Ucircumflex" horiz-adv-x="600" d="M38 545Q38 586 39 620T47 689Q52 712 58 734T77 776Q86 793 99 803Q107 808 116 809T132 805Q141 801 144 793T147 776Q145 751 143 728T138 679Q136 641 134 603T132 526Q134 471 141
418T162 311Q169 284 179 258T203 206Q212 188 224 173T249 143Q254 136 260 134Q281 117 303 133Q318 143 329 155T351 182Q394 243 423 316Q443 363 456 411T476 511Q481 539 482 567T485 623Q487 656 488 688T485 754Q485 764 489 775Q496 795 515 796T545 785Q553
778 557 768T563 746V739Q563 658 561 577T540 415Q535 388 527 363T510 311Q498 270 481 231T441 154Q428 132 412 112T377 73Q352 49 323 38T258 32Q234 37 218 49Q193 63 175 84T140 130Q112 173 93 220T63 319Q50 378 44 435T38 545ZM315 939Q306 928 302 915T290
889Q286 882 282 874T273 858Q263 836 242 841Q224 846 224 871Q226 883 230 892Q239 919 249 946T272 999Q277 1011 286 1019T311 1029Q325 1029 336 1022T354 1002Q362 989 367 976T377 948Q382 922 387 896T398 844Q398 842 398 841T399 837Q402 827 393 822Q385
818 377 822Q371 827 368 832T363 843Q354 864 345 884T324 925Q322 929 321 933T315 939Z" />
<glyph unicode="&#xdc;" glyph-name="Udieresis" horiz-adv-x="600" d="M38 545Q38 586 39 620T47 689Q52 712 58 734T77 776Q86 793 99 803Q107 808 116 809T132 805Q141 801 144 793T147 776Q145 751 143 728T138 679Q136 641 134 603T132 526Q134 471 141 418T162
311Q169 284 179 258T203 206Q212 188 224 173T249 143Q254 136 260 134Q281 117 303 133Q318 143 329 155T351 182Q394 243 423 316Q443 363 456 411T476 511Q481 539 482 567T485 623Q487 656 488 688T485 754Q485 764 489 775Q496 795 515 796T545 785Q553 778
557 768T563 746V739Q563 658 561 577T540 415Q535 388 527 363T510 311Q498 270 481 231T441 154Q428 132 412 112T377 73Q352 49 323 38T258 32Q234 37 218 49Q193 63 175 84T140 130Q112 173 93 220T63 319Q50 378 44 435T38 545ZM401 896Q401 885 392 876T369
866Q357 868 348 877T339 899Q341 912 349 920T371 929Q383 929 392 920T401 896ZM291 871Q280 871 272 878T263 896Q263 922 288 925Q299 926 307 918T317 899Q317 888 310 880T291 871Z" />
<glyph unicode="&#xdd;" glyph-name="Yacute" horiz-adv-x="411" d="M254 430Q259 435 260 440T263 449Q286 514 312 575T369 698Q377 714 387 730T407 761Q412 770 418 778T434 791Q442 799 455 802Q473 805 484 794T494 764Q492 752 486 741T474 718Q440 653
410 587T356 452Q330 382 308 312T266 169Q250 120 236 70Q233 55 234 41Q237 20 221 11Q211 8 199 10T179 19Q171 28 168 39T164 61Q164 84 168 105T176 148Q194 234 221 319Q223 327 223 332T215 344Q195 362 181 384T155 428Q131 475 110 522T72 617Q63 641
55 665T39 715Q35 729 41 742T60 763Q90 775 110 748Q115 740 118 732T125 715Q143 675 158 633T192 550Q218 490 249 437Q249 435 251 434T254 430ZM207 793Q196 793 190 801T186 820Q187 822 188 823T189 827Q209 862 233 893T286 953Q291 958 295 959Q302 963
307 960T313 949Q312 945 311 942T309 935Q292 904 275 873T235 812Q230 805 223 800T207 793Z" />
<glyph unicode="&#xde;" glyph-name="Thorn" horiz-adv-x="389" d="M128 628Q156 638 184 640T239 634Q288 618 317 577Q346 533 350 484Q355 420 339 361T282 251Q224 179 149 131Q131 122 132 100Q136 78 136 56T138 13Q138 9 138 5T137 -2Q132 -19 117 -22Q102
-22 95 -10Q87 4 86 16Q78 57 74 98Q73 104 71 108T62 116Q52 120 50 133Q45 149 57 157Q67 162 65 175Q61 216 57 256T48 335Q44 373 42 409T38 481Q37 489 37 496T38 511Q38 546 38 581T38 652Q39 679 41 705T45 758Q45 768 50 778Q57 792 69 799T96 803Q110
800 119 789T126 761Q125 734 125 707T126 652Q126 646 126 641T128 628ZM128 197Q144 208 155 220T177 245Q228 301 254 373Q274 426 267 479Q263 513 244 531T200 551T147 542Q126 532 126 509Q128 445 128 381T128 253V197Z" />
<glyph unicode="&#xdf;" glyph-name="germandbls" horiz-adv-x="374" d="M236 373Q246 369 255 366T273 358Q313 340 328 308T330 233Q312 171 257 134Q239 122 220 112T179 95Q163 90 149 97Q132 103 129 124Q128 142 146 152Q180 170 204 196T246 253Q250 259
252 266Q263 290 237 299Q230 301 224 302T210 305Q204 305 200 307Q166 314 156 336T161 389Q172 411 184 430T206 472Q211 483 215 494T221 518Q223 542 212 547Q202 549 196 545T183 533Q174 522 168 509T156 482Q144 450 136 416T123 346Q116 293 117 241T125
136Q128 105 132 76T143 16Q148 -10 126 -20Q119 -24 108 -21T89 -10Q82 -2 78 7T69 26Q60 53 55 81T45 137Q40 178 38 219T39 302Q44 360 55 416T90 527Q108 567 138 595Q161 615 190 619T245 610Q270 597 283 572T291 515Q289 494 282 474T266 434Q259 420 252
405T236 373Z" />
<glyph unicode="&#xe0;" glyph-name="agrave" horiz-adv-x="396" d="M261 77Q254 72 251 65T242 52Q232 37 220 25T191 5Q163 -8 135 3T95 44Q73 100 82 151T128 248Q148 273 175 283T236 287Q238 287 239 287T243 286Q247 294 245 300T242 314Q238 336 233 356T219
395Q207 421 198 423T167 407Q134 379 110 340Q102 330 102 320Q102 298 81 292Q74 290 64 294T48 305Q35 325 39 349Q43 372 52 392T74 431Q88 451 104 467T140 497Q172 517 209 515T276 479Q289 466 296 451T311 418Q322 387 329 355T341 290Q346 245 350 201T357
112Q360 86 357 59Q355 29 332 17T284 20Q274 27 270 37T264 58Q263 63 263 67T261 77ZM176 100Q192 117 207 133T233 170Q236 176 233 184T222 197Q215 202 212 199T203 193Q202 191 200 189T197 185Q184 166 178 146T176 100ZM158 676Q158 692 168 699T191 699Q194
697 197 694T204 687Q213 677 218 665T230 642Q238 622 246 602T264 562Q266 560 267 558T269 553Q270 544 264 538Q259 533 248 535Q236 539 228 552Q219 566 211 578T195 604Q188 615 180 626T165 651Q163 658 161 664T158 676Z" />
<glyph unicode="&#xe1;" glyph-name="aacute" horiz-adv-x="396" d="M261 77Q254 72 251 65T242 52Q232 37 220 25T191 5Q163 -8 135 3T95 44Q73 100 82 151T128 248Q148 273 175 283T236 287Q238 287 239 287T243 286Q247 294 245 300T242 314Q238 336 233 356T219
395Q207 421 198 423T167 407Q134 379 110 340Q102 330 102 320Q102 298 81 292Q74 290 64 294T48 305Q35 325 39 349Q43 372 52 392T74 431Q88 451 104 467T140 497Q172 517 209 515T276 479Q289 466 296 451T311 418Q322 387 329 355T341 290Q346 245 350 201T357
112Q360 86 357 59Q355 29 332 17T284 20Q274 27 270 37T264 58Q263 63 263 67T261 77ZM176 100Q192 117 207 133T233 170Q236 176 233 184T222 197Q215 202 212 199T203 193Q202 191 200 189T197 185Q184 166 178 146T176 100ZM162 534Q151 534 145 542T141 561Q142
563 143 564T144 568Q164 603 188 634T241 694Q246 699 250 700Q257 704 262 701T268 690Q267 686 266 683T264 676Q247 645 230 614T190 553Q185 546 178 541T162 534Z" />
<glyph unicode="&#xe2;" glyph-name="acircumflex" horiz-adv-x="396" d="M261 77Q254 72 251 65T242 52Q232 37 220 25T191 5Q163 -8 135 3T95 44Q73 100 82 151T128 248Q148 273 175 283T236 287Q238 287 239 287T243 286Q247 294 245 300T242 314Q238 336 233
356T219 395Q207 421 198 423T167 407Q134 379 110 340Q102 330 102 320Q102 298 81 292Q74 290 64 294T48 305Q35 325 39 349Q43 372 52 392T74 431Q88 451 104 467T140 497Q172 517 209 515T276 479Q289 466 296 451T311 418Q322 387 329 355T341 290Q346 245
350 201T357 112Q360 86 357 59Q355 29 332 17T284 20Q274 27 270 37T264 58Q263 63 263 67T261 77ZM176 100Q192 117 207 133T233 170Q236 176 233 184T222 197Q215 202 212 199T203 193Q202 191 200 189T197 185Q184 166 178 146T176 100ZM199 666Q190 655 186
642T174 616Q170 609 166 601T157 585Q147 563 126 568Q108 573 108 598Q110 610 114 619Q123 646 133 673T156 726Q161 738 170 746T195 756Q209 756 220 749T238 729Q246 716 251 703T261 675Q266 649 271 623T282 571Q282 569 282 568T283 564Q286 554 277 549Q269
545 261 549Q255 554 252 559T247 570Q238 591 229 611T208 652Q206 656 205 660T199 666Z" />
<glyph unicode="&#xe3;" glyph-name="atilde" horiz-adv-x="396" d="M261 77Q254 72 251 65T242 52Q232 37 220 25T191 5Q163 -8 135 3T95 44Q73 100 82 151T128 248Q148 273 175 283T236 287Q238 287 239 287T243 286Q247 294 245 300T242 314Q238 336 233 356T219
395Q207 421 198 423T167 407Q134 379 110 340Q102 330 102 320Q102 298 81 292Q74 290 64 294T48 305Q35 325 39 349Q43 372 52 392T74 431Q88 451 104 467T140 497Q172 517 209 515T276 479Q289 466 296 451T311 418Q322 387 329 355T341 290Q346 245 350 201T357
112Q360 86 357 59Q355 29 332 17T284 20Q274 27 270 37T264 58Q263 63 263 67T261 77ZM176 100Q192 117 207 133T233 170Q236 176 233 184T222 197Q215 202 212 199T203 193Q202 191 200 189T197 185Q184 166 178 146T176 100ZM251 562Q206 564 179 596Q175 601
171 606T162 617Q155 625 151 626T138 620Q128 611 121 601T108 578Q108 577 108 577T107 575Q100 556 87 559Q80 560 77 567T74 583Q74 589 75 592Q84 615 99 634T137 665Q153 676 170 671T200 649Q205 642 210 635T222 622Q231 613 242 610T266 608Q280 610 288
623T291 650Q291 652 291 652T290 652Q286 657 285 662T290 671Q295 676 301 674T311 668Q321 659 330 639T332 602Q328 593 322 586T306 574Q279 562 251 562Z" />
<glyph unicode="&#xe4;" glyph-name="adieresis" horiz-adv-x="396" d="M261 77Q254 72 251 65T242 52Q232 37 220 25T191 5Q163 -8 135 3T95 44Q73 100 82 151T128 248Q148 273 175 283T236 287Q238 287 239 287T243 286Q247 294 245 300T242 314Q238 336 233
356T219 395Q207 421 198 423T167 407Q134 379 110 340Q102 330 102 320Q102 298 81 292Q74 290 64 294T48 305Q35 325 39 349Q43 372 52 392T74 431Q88 451 104 467T140 497Q172 517 209 515T276 479Q289 466 296 451T311 418Q322 387 329 355T341 290Q346 245
350 201T357 112Q360 86 357 59Q355 29 332 17T284 20Q274 27 270 37T264 58Q263 63 263 67T261 77ZM176 100Q192 117 207 133T233 170Q236 176 233 184T222 197Q215 202 212 199T203 193Q202 191 200 189T197 185Q184 166 178 146T176 100ZM285 623Q285 612 276
603T253 593Q241 595 232 604T223 626Q225 639 233 647T255 656Q267 656 276 647T285 623ZM175 598Q164 598 156 605T147 623Q147 649 172 652Q183 653 191 645T201 626Q201 615 194 607T175 598Z" />
<glyph unicode="&#xe5;" glyph-name="aring" horiz-adv-x="396" d="M261 77Q254 72 251 65T242 52Q232 37 220 25T191 5Q163 -8 135 3T95 44Q73 100 82 151T128 248Q148 273 175 283T236 287Q238 287 239 287T243 286Q247 294 245 300T242 314Q238 336 233 356T219
395Q207 421 198 423T167 407Q134 379 110 340Q102 330 102 320Q102 298 81 292Q74 290 64 294T48 305Q35 325 39 349Q43 372 52 392T74 431Q88 451 104 467T140 497Q172 517 209 515T276 479Q289 466 296 451T311 418Q322 387 329 355T341 290Q346 245 350 201T357
112Q360 86 357 59Q355 29 332 17T284 20Q274 27 270 37T264 58Q263 63 263 67T261 77ZM176 100Q192 117 207 133T233 170Q236 176 233 184T222 197Q215 202 212 199T203 193Q202 191 200 189T197 185Q184 166 178 146T176 100ZM120 613Q122 633 128 651T148 684Q160
694 172 693Q181 691 189 691T207 690Q221 689 234 684T258 667Q292 633 258 592Q236 569 207 555Q161 538 132 571Q124 580 122 591T120 613ZM175 628Q175 595 205 609Q207 609 208 609T210 610Q228 621 228 628T213 646Q206 651 199 655T184 655Q177 651 177
643T175 628Z" />
<glyph unicode="&#xe6;" glyph-name="ae" horiz-adv-x="558" d="M362 184Q354 184 351 178Q353 167 354 156T356 134Q357 127 359 122T363 109Q368 96 373 94T392 100Q401 105 409 112T426 127Q434 135 443 141T461 155Q464 157 466 159T473 163Q487 168 498 161T510
137Q510 130 508 123T504 109Q492 71 468 43T402 2Q361 -11 323 14Q314 11 304 12T282 20Q272 27 268 37T263 58Q263 63 263 67T260 77Q253 72 250 65T242 52Q231 37 220 25T191 5Q162 -8 133 3T93 44Q51 154 128 248Q147 273 174 283T234 287Q236 287 238 287T243
286Q245 294 244 300T240 314Q237 336 232 356T218 395Q207 421 197 423T167 407Q150 393 135 376T108 340Q106 336 104 331T102 320Q102 298 80 292Q72 290 62 294T47 305Q35 324 38 349Q41 372 50 392T72 431Q86 451 102 467T138 497Q170 517 208 515T276 479Q298
453 309 418Q313 409 316 400T323 380Q332 393 342 404T365 424Q389 442 420 445Q450 447 474 432T511 392T519 334Q517 325 515 315T507 296Q494 271 476 249T434 209Q418 198 400 191T362 184ZM366 274Q366 272 366 269T368 263Q371 261 373 261T378 263Q425
288 443 337V344Q443 360 435 364Q426 368 419 359Q410 355 404 347Q391 331 382 312T366 274ZM231 170Q235 176 232 184T221 197Q215 202 211 199T203 193Q201 191 199 189T195 185Q168 148 174 100Q190 117 205 133T231 170Z" />
<glyph unicode="&#xe7;" glyph-name="ccedilla" horiz-adv-x="323" d="M38 164Q37 214 53 256T98 335Q126 371 173 388Q192 393 211 392T248 379Q256 373 261 366T269 350Q274 325 259 310T221 299Q208 303 198 299T179 286Q115 213 137 122Q144 93 159 87T201
94Q220 103 233 121Q235 126 238 129T245 136Q255 148 269 142Q285 134 285 119Q287 97 278 80T254 46Q235 27 213 16T164 -1Q142 -4 123 1T87 23Q67 43 57 67T41 119Q39 130 38 142T38 164ZM143 108Q136 110 129 110T113 111Q103 114 96 120Q86 130 89 143Q93
155 107 158Q138 164 159 183Q172 196 156 201Q152 203 146 204T134 206Q124 209 116 214T104 233Q100 256 119 275Q128 284 137 282T150 267Q152 258 157 255T170 249Q210 239 234 198Q243 182 237 159T213 125Q188 108 143 108Z" />
<glyph unicode="&#xe8;" glyph-name="egrave" horiz-adv-x="339" d="M38 179Q38 226 51 269T87 355Q98 375 113 393T147 424Q173 442 201 445Q231 447 255 432T292 392T300 334Q299 325 296 315T288 296Q275 271 258 249T215 209Q199 198 182 191T144 184Q137
184 136 182T134 173Q133 157 136 141T144 109Q150 96 155 94T173 100Q192 110 207 127Q216 135 225 141T243 155Q247 159 255 163Q270 168 280 161T291 137Q291 130 290 123T287 109Q274 71 250 43T185 2Q128 -13 86 29Q64 51 55 78T41 134Q40 145 40 156T38 179ZM225
344Q225 351 224 356T218 364Q211 368 200 359Q196 357 193 354T186 347Q173 331 165 312T149 274Q144 267 150 263Q152 261 155 261T161 263Q206 288 224 337Q225 339 225 341T225 344ZM155 619Q155 635 165 642T188 642Q191 640 194 637T201 630Q210 620 215
608T227 585Q235 565 243 545T261 505Q263 503 264 501T266 496Q267 487 261 481Q256 476 245 478Q233 482 225 495Q216 509 208 521T192 547Q185 558 177 569T162 594Q160 601 158 607T155 619Z" />
<glyph unicode="&#xe9;" glyph-name="eacute" horiz-adv-x="339" d="M38 179Q38 226 51 269T87 355Q98 375 113 393T147 424Q173 442 201 445Q231 447 255 432T292 392T300 334Q299 325 296 315T288 296Q275 271 258 249T215 209Q199 198 182 191T144 184Q137
184 136 182T134 173Q133 157 136 141T144 109Q150 96 155 94T173 100Q192 110 207 127Q216 135 225 141T243 155Q247 159 255 163Q270 168 280 161T291 137Q291 130 290 123T287 109Q274 71 250 43T185 2Q128 -13 86 29Q64 51 55 78T41 134Q40 145 40 156T38 179ZM225
344Q225 351 224 356T218 364Q211 368 200 359Q196 357 193 354T186 347Q173 331 165 312T149 274Q144 267 150 263Q152 261 155 261T161 263Q206 288 224 337Q225 339 225 341T225 344ZM159 477Q148 477 142 485T138 504Q139 506 140 507T141 511Q161 546 185
577T238 637Q243 642 247 643Q254 647 259 644T265 633Q264 629 263 626T261 619Q244 588 227 557T187 496Q182 489 175 484T159 477Z" />
<glyph unicode="&#xea;" glyph-name="ecircumflex" horiz-adv-x="339" d="M38 179Q38 226 51 269T87 355Q98 375 113 393T147 424Q173 442 201 445Q231 447 255 432T292 392T300 334Q299 325 296 315T288 296Q275 271 258 249T215 209Q199 198 182 191T144 184Q137
184 136 182T134 173Q133 157 136 141T144 109Q150 96 155 94T173 100Q192 110 207 127Q216 135 225 141T243 155Q247 159 255 163Q270 168 280 161T291 137Q291 130 290 123T287 109Q274 71 250 43T185 2Q128 -13 86 29Q64 51 55 78T41 134Q40 145 40 156T38 179ZM225
344Q225 351 224 356T218 364Q211 368 200 359Q196 357 193 354T186 347Q173 331 165 312T149 274Q144 267 150 263Q152 261 155 261T161 263Q206 288 224 337Q225 339 225 341T225 344ZM196 609Q187 598 183 585T171 559Q167 552 163 544T154 528Q144 506 123
511Q105 516 105 541Q107 553 111 562Q120 589 130 616T153 669Q158 681 167 689T192 699Q206 699 217 692T235 672Q243 659 248 646T258 618Q263 592 268 566T279 514Q279 512 279 511T280 507Q283 497 274 492Q266 488 258 492Q252 497 249 502T244 513Q235 534
226 554T205 595Q203 599 202 603T196 609Z" />
<glyph unicode="&#xeb;" glyph-name="edieresis" horiz-adv-x="339" d="M38 179Q38 226 51 269T87 355Q98 375 113 393T147 424Q173 442 201 445Q231 447 255 432T292 392T300 334Q299 325 296 315T288 296Q275 271 258 249T215 209Q199 198 182 191T144 184Q137
184 136 182T134 173Q133 157 136 141T144 109Q150 96 155 94T173 100Q192 110 207 127Q216 135 225 141T243 155Q247 159 255 163Q270 168 280 161T291 137Q291 130 290 123T287 109Q274 71 250 43T185 2Q128 -13 86 29Q64 51 55 78T41 134Q40 145 40 156T38 179ZM225
344Q225 351 224 356T218 364Q211 368 200 359Q196 357 193 354T186 347Q173 331 165 312T149 274Q144 267 150 263Q152 261 155 261T161 263Q206 288 224 337Q225 339 225 341T225 344ZM282 566Q282 555 273 546T250 536Q238 538 229 547T220 569Q222 582 230
590T252 599Q264 599 273 590T282 566ZM172 541Q161 541 153 548T144 566Q144 592 169 595Q180 596 188 588T198 569Q198 558 191 550T172 541Z" />
<glyph unicode="&#xec;" glyph-name="igrave" horiz-adv-x="167" d="M128 79Q132 58 114 49Q96 40 78 53Q71 60 67 69T59 88Q55 102 53 117T48 146Q43 196 40 246T39 347Q41 358 42 369T51 391Q57 401 65 407T86 413Q109 412 119 389Q128 371 128 350V212Q125
188 125 146Q125 130 125 113T128 79ZM40 843Q40 859 50 866T73 866Q76 864 79 861T86 854Q95 844 100 832T112 809Q120 789 128 769T146 729Q148 727 149 725T151 720Q152 711 146 705Q141 700 130 702Q118 706 110 719Q101 733 93 745T77 771Q70 782 62 793T47
818Q45 825 43 831T40 843Z" />
<glyph unicode="&#xed;" glyph-name="iacute" horiz-adv-x="167" d="M128 79Q132 58 114 49Q96 40 78 53Q71 60 67 69T59 88Q55 102 53 117T48 146Q43 196 40 246T39 347Q41 358 42 369T51 391Q57 401 65 407T86 413Q109 412 119 389Q128 371 128 350V212Q125
188 125 146Q125 130 125 113T128 79ZM300 701Q289 701 283 709T279 728Q280 730 281 731T282 735Q302 770 326 801T379 861Q384 866 388 867Q395 871 400 868T406 857Q405 853 404 850T402 843Q385 812 368 781T328 720Q323 713 316 708T300 701Z" />
<glyph unicode="&#xee;" glyph-name="icircumflex" horiz-adv-x="167" d="M128 79Q132 58 114 49Q96 40 78 53Q71 60 67 69T59 88Q55 102 53 117T48 146Q43 196 40 246T39 347Q41 358 42 369T51 391Q57 401 65 407T86 413Q109 412 119 389Q128 371 128 350V212Q125
188 125 146Q125 130 125 113T128 79ZM337 577Q328 566 324 553T312 527Q308 520 304 512T295 496Q285 474 264 479Q246 484 246 509Q248 521 252 530Q261 557 271 584T294 637Q299 649 308 657T333 667Q347 667 358 660T376 640Q384 627 389 614T399 586Q404 560
409 534T420 482Q420 480 420 479T421 475Q424 465 415 460Q407 456 399 460Q393 465 390 470T385 481Q376 502 367 522T346 563Q344 567 343 571T337 577Z" />
<glyph unicode="&#xef;" glyph-name="idieresis" horiz-adv-x="167" d="M128 79Q132 58 114 49Q96 40 78 53Q71 60 67 69T59 88Q55 102 53 117T48 146Q43 196 40 246T39 347Q41 358 42 369T51 391Q57 401 65 407T86 413Q109 412 119 389Q128 371 128 350V212Q125
188 125 146Q125 130 125 113T128 79ZM423 790Q423 779 414 770T391 760Q379 762 370 771T361 793Q363 806 371 814T393 823Q405 823 414 814T423 790ZM313 765Q302 765 294 772T285 790Q285 816 310 819Q321 820 329 812T339 793Q339 782 332 774T313 765Z" />
<glyph unicode="&#xf0;" glyph-name="eth" horiz-adv-x="402" d="M260 408Q251 433 243 455T223 503Q205 488 190 473Q182 466 173 461T155 449Q152 445 147 445T137 444Q127 446 122 455T123 475Q129 487 140 497T159 518Q167 525 174 532T188 545Q202 556 193
568Q187 577 182 586T172 605Q170 610 167 613T159 619Q148 627 145 632T143 647Q145 658 153 665T170 676Q179 677 187 674T201 666Q215 658 225 646T245 622Q256 607 259 607T278 619Q293 630 307 640T338 659Q342 661 347 664T358 666Q375 666 379 653Q382 646
378 641T369 632Q351 619 336 605T304 576Q289 566 289 564T299 547Q328 498 346 446T371 338Q390 160 247 50Q196 10 130 29Q88 40 67 71T40 140Q33 189 47 232T94 312Q108 329 123 344T158 371Q182 388 204 397T260 408ZM278 305V317Q277 329 273 331T258 329Q248
325 238 321T219 309Q161 260 143 190Q139 179 139 167T144 143Q149 132 154 128T172 126Q203 133 224 159Q250 191 264 227T278 305Z" />
<glyph unicode="&#xf1;" glyph-name="ntilde" horiz-adv-x="423" d="M236 265Q218 249 210 232Q189 195 176 154T156 70Q155 60 152 50T144 32Q129 7 104 10Q91 10 82 17T66 35Q62 44 61 54T57 74Q52 114 47 154T39 235Q37 262 39 289T45 343Q45 348 47 352T50
361Q59 386 83 383Q93 382 101 374T110 355Q113 331 115 308T122 262Q123 258 123 253T126 242Q131 244 132 247T134 254Q144 274 154 293T177 329Q183 337 189 344T203 358Q229 379 259 375T308 341Q317 325 322 308T329 272Q334 242 337 212T345 151Q347 133
350 116T356 80Q358 73 361 68T371 58Q392 47 384 23Q375 -2 353 -8T311 2Q302 10 296 19T285 38Q269 67 261 97T249 160Q246 183 244 207T237 254Q237 256 237 258T236 265ZM259 702Q214 704 187 736Q183 741 179 746T170 757Q163 765 159 766T146 760Q136 751
129 741T116 718Q116 717 116 717T115 715Q108 696 95 699Q88 700 85 707T82 723Q82 729 83 732Q92 755 107 774T145 805Q161 816 178 811T208 789Q213 782 218 775T230 762Q239 753 250 750T274 748Q288 750 296 763T299 790Q299 792 299 792T298 792Q294 797
293 802T298 811Q303 816 309 814T319 808Q329 799 338 779T340 742Q336 733 330 726T314 714Q287 702 259 702Z" />
<glyph unicode="&#xf2;" glyph-name="ograve" horiz-adv-x="374" d="M336 221Q331 123 264 38Q252 22 236 11T200 -7Q161 -16 125 2Q112 10 100 21T80 46Q54 87 45 130T39 220Q43 261 57 298T98 367Q121 392 153 398Q168 402 180 399T203 386Q206 383 210 383T219
382Q246 385 267 374T305 341Q323 316 329 288T336 221ZM194 296Q183 296 171 293Q161 293 156 288T147 274Q133 237 133 200T143 125Q149 109 162 92Q169 85 172 85T183 91Q192 100 200 109T215 130Q220 142 225 155T234 181Q239 200 242 219T240 259Q235 280
225 288T194 296ZM142 857Q142 873 152 880T175 880Q178 878 181 875T188 868Q197 858 202 846T214 823Q222 803 230 783T248 743Q250 741 251 739T253 734Q254 725 248 719Q243 714 232 716Q220 720 212 733Q203 747 195 759T179 785Q172 796 164 807T149 832Q147
839 145 845T142 857Z" />
<glyph unicode="&#xf3;" glyph-name="oacute" horiz-adv-x="374" d="M336 221Q331 123 264 38Q252 22 236 11T200 -7Q161 -16 125 2Q112 10 100 21T80 46Q54 87 45 130T39 220Q43 261 57 298T98 367Q121 392 153 398Q168 402 180 399T203 386Q206 383 210 383T219
382Q246 385 267 374T305 341Q323 316 329 288T336 221ZM194 296Q183 296 171 293Q161 293 156 288T147 274Q133 237 133 200T143 125Q149 109 162 92Q169 85 172 85T183 91Q192 100 200 109T215 130Q220 142 225 155T234 181Q239 200 242 219T240 259Q235 280
225 288T194 296ZM146 715Q135 715 129 723T125 742Q126 744 127 745T128 749Q148 784 172 815T225 875Q230 880 234 881Q241 885 246 882T252 871Q251 867 250 864T248 857Q231 826 214 795T174 734Q169 727 162 722T146 715Z" />
<glyph unicode="&#xf4;" glyph-name="ocircumflex" horiz-adv-x="374" d="M336 221Q331 123 264 38Q252 22 236 11T200 -7Q161 -16 125 2Q112 10 100 21T80 46Q54 87 45 130T39 220Q43 261 57 298T98 367Q121 392 153 398Q168 402 180 399T203 386Q206 383 210
383T219 382Q246 385 267 374T305 341Q323 316 329 288T336 221ZM194 296Q183 296 171 293Q161 293 156 288T147 274Q133 237 133 200T143 125Q149 109 162 92Q169 85 172 85T183 91Q192 100 200 109T215 130Q220 142 225 155T234 181Q239 200 242 219T240 259Q235
280 225 288T194 296ZM183 591Q174 580 170 567T158 541Q154 534 150 526T141 510Q131 488 110 493Q92 498 92 523Q94 535 98 544Q107 571 117 598T140 651Q145 663 154 671T179 681Q193 681 204 674T222 654Q230 641 235 628T245 600Q250 574 255 548T266 496Q266
494 266 493T267 489Q270 479 261 474Q253 470 245 474Q239 479 236 484T231 495Q222 516 213 536T192 577Q190 581 189 585T183 591Z" />
<glyph unicode="&#xf5;" glyph-name="otilde" horiz-adv-x="374" d="M336 221Q331 123 264 38Q252 22 236 11T200 -7Q161 -16 125 2Q112 10 100 21T80 46Q54 87 45 130T39 220Q43 261 57 298T98 367Q121 392 153 398Q168 402 180 399T203 386Q206 383 210 383T219
382Q246 385 267 374T305 341Q323 316 329 288T336 221ZM194 296Q183 296 171 293Q161 293 156 288T147 274Q133 237 133 200T143 125Q149 109 162 92Q169 85 172 85T183 91Q192 100 200 109T215 130Q220 142 225 155T234 181Q239 200 242 219T240 259Q235 280
225 288T194 296ZM235 743Q190 745 163 777Q159 782 155 787T146 798Q139 806 135 807T122 801Q112 792 105 782T92 759Q92 758 92 758T91 756Q84 737 71 740Q64 741 61 748T58 764Q58 770 59 773Q68 796 83 815T121 846Q137 857 154 852T184 830Q189 823 194 816T206
803Q215 794 226 791T250 789Q264 791 272 804T275 831Q275 833 275 833T274 833Q270 838 269 843T274 852Q279 857 285 855T295 849Q305 840 314 820T316 783Q312 774 306 767T290 755Q263 743 235 743Z" />
<glyph unicode="&#xf6;" glyph-name="odieresis" horiz-adv-x="374" d="M336 221Q331 123 264 38Q252 22 236 11T200 -7Q161 -16 125 2Q112 10 100 21T80 46Q54 87 45 130T39 220Q43 261 57 298T98 367Q121 392 153 398Q168 402 180 399T203 386Q206 383 210 383T219
382Q246 385 267 374T305 341Q323 316 329 288T336 221ZM194 296Q183 296 171 293Q161 293 156 288T147 274Q133 237 133 200T143 125Q149 109 162 92Q169 85 172 85T183 91Q192 100 200 109T215 130Q220 142 225 155T234 181Q239 200 242 219T240 259Q235 280
225 288T194 296ZM269 804Q269 793 260 784T237 774Q225 776 216 785T207 807Q209 820 217 828T239 837Q251 837 260 828T269 804ZM159 779Q148 779 140 786T131 804Q131 830 156 833Q167 834 175 826T185 807Q185 796 178 788T159 779Z" />
<glyph unicode="&#xf7;" glyph-name="divide" horiz-adv-x="380" d="M161 343Q145 343 133 355T122 383Q122 397 132 407T156 416Q191 414 194 371Q194 359 185 351T161 343ZM342 320Q346 308 333 295Q326 289 317 286T299 280Q263 270 226 263T153 248Q141 246
129 244T104 239Q87 234 69 239Q38 249 38 275Q35 302 68 314Q79 318 91 318T116 320H138V319Q182 322 225 326T312 334Q314 334 315 334T318 335Q337 335 342 320ZM173 211Q182 212 191 202Q194 194 197 186T201 169Q200 152 189 140T162 125Q149 123 137 132T119
158Q115 173 123 187T144 206Q151 208 158 209T173 211Z" />
<glyph unicode="&#xf8;" glyph-name="oslash" horiz-adv-x="377" d="M324 364Q357 364 354 332Q352 325 329 301Q339 268 339 221Q336 174 318 128T266 38Q253 22 237 11T201 -7Q162 -16 126 2Q108 15 90 34Q76 15 68 11Q49 4 30 19T15 59Q18 75 26 86Q31 93 37
99T51 113Q36 164 41 220Q44 261 58 298T101 367Q124 392 156 398Q183 405 204 386Q209 383 213 383T221 382Q247 385 266 376T302 349Q311 356 316 360T324 364ZM173 293Q163 293 158 288T149 274Q142 255 138 237T134 199Q159 222 183 244T228 287Q219 296 195
296Q184 296 173 293ZM237 181Q239 189 240 195T243 209Q192 158 152 110Q157 101 164 92Q171 85 175 85T186 91Q195 100 203 109T216 130Q222 142 228 155T237 181Z" />
<glyph unicode="&#xf9;" glyph-name="ugrave" horiz-adv-x="417" d="M282 88Q278 81 274 75T264 62Q257 52 249 43T230 25Q197 1 165 6T111 29Q84 52 72 83Q44 146 40 212T50 344Q56 375 77 392Q86 400 96 403T117 401Q128 397 133 388T138 367Q138 358 138 349T137
332Q133 301 133 270T137 206Q139 184 143 163T158 121Q160 117 162 115Q168 104 173 102T189 106Q212 120 225 142Q240 161 248 183T261 227Q270 263 273 300T275 374Q275 405 299 422Q319 436 343 428T375 389Q379 373 379 357T378 323Q377 271 376 220T378 116Q380
91 379 64T377 11Q374 -11 354 -20Q344 -24 334 -20T317 -8Q311 -1 308 5T302 19Q296 36 292 53T282 88ZM164 846Q164 862 174 869T197 869Q200 867 203 864T210 857Q219 847 224 835T236 812Q244 792 252 772T270 732Q272 730 273 728T275 723Q276 714 270 708Q265
703 254 705Q242 709 234 722Q225 736 217 748T201 774Q194 785 186 796T171 821Q169 828 167 834T164 846Z" />
<glyph unicode="&#xfa;" glyph-name="uacute" horiz-adv-x="417" d="M282 88Q278 81 274 75T264 62Q257 52 249 43T230 25Q197 1 165 6T111 29Q84 52 72 83Q44 146 40 212T50 344Q56 375 77 392Q86 400 96 403T117 401Q128 397 133 388T138 367Q138 358 138 349T137
332Q133 301 133 270T137 206Q139 184 143 163T158 121Q160 117 162 115Q168 104 173 102T189 106Q212 120 225 142Q240 161 248 183T261 227Q270 263 273 300T275 374Q275 405 299 422Q319 436 343 428T375 389Q379 373 379 357T378 323Q377 271 376 220T378 116Q380
91 379 64T377 11Q374 -11 354 -20Q344 -24 334 -20T317 -8Q311 -1 308 5T302 19Q296 36 292 53T282 88ZM168 704Q157 704 151 712T147 731Q148 733 149 734T150 738Q170 773 194 804T247 864Q252 869 256 870Q263 874 268 871T274 860Q273 856 272 853T270 846Q253
815 236 784T196 723Q191 716 184 711T168 704Z" />
<glyph unicode="&#xfb;" glyph-name="ucircumflex" horiz-adv-x="417" d="M282 88Q278 81 274 75T264 62Q257 52 249 43T230 25Q197 1 165 6T111 29Q84 52 72 83Q44 146 40 212T50 344Q56 375 77 392Q86 400 96 403T117 401Q128 397 133 388T138 367Q138 358 138
349T137 332Q133 301 133 270T137 206Q139 184 143 163T158 121Q160 117 162 115Q168 104 173 102T189 106Q212 120 225 142Q240 161 248 183T261 227Q270 263 273 300T275 374Q275 405 299 422Q319 436 343 428T375 389Q379 373 379 357T378 323Q377 271 376 220T378
116Q380 91 379 64T377 11Q374 -11 354 -20Q344 -24 334 -20T317 -8Q311 -1 308 5T302 19Q296 36 292 53T282 88ZM205 580Q196 569 192 556T180 530Q176 523 172 515T163 499Q153 477 132 482Q114 487 114 512Q116 524 120 533Q129 560 139 587T162 640Q167 652
176 660T201 670Q215 670 226 663T244 643Q252 630 257 617T267 589Q272 563 277 537T288 485Q288 483 288 482T289 478Q292 468 283 463Q275 459 267 463Q261 468 258 473T253 484Q244 505 235 525T214 566Q212 570 211 574T205 580Z" />
<glyph unicode="&#xfc;" glyph-name="udieresis" horiz-adv-x="417" d="M282 88Q278 81 274 75T264 62Q257 52 249 43T230 25Q197 1 165 6T111 29Q84 52 72 83Q44 146 40 212T50 344Q56 375 77 392Q86 400 96 403T117 401Q128 397 133 388T138 367Q138 358 138
349T137 332Q133 301 133 270T137 206Q139 184 143 163T158 121Q160 117 162 115Q168 104 173 102T189 106Q212 120 225 142Q240 161 248 183T261 227Q270 263 273 300T275 374Q275 405 299 422Q319 436 343 428T375 389Q379 373 379 357T378 323Q377 271 376 220T378
116Q380 91 379 64T377 11Q374 -11 354 -20Q344 -24 334 -20T317 -8Q311 -1 308 5T302 19Q296 36 292 53T282 88ZM291 793Q291 782 282 773T259 763Q247 765 238 774T229 796Q231 809 239 817T261 826Q273 826 282 817T291 793ZM181 768Q170 768 162 775T153 793Q153
819 178 822Q189 823 197 815T207 796Q207 785 200 777T181 768Z" />
<glyph unicode="&#xfd;" glyph-name="yacute" horiz-adv-x="380" d="M255 145Q246 132 239 120T222 97Q211 84 199 73T170 55Q132 41 102 62Q89 71 81 84T65 112Q52 140 46 170T38 232Q38 255 39 279T48 325Q52 341 63 355Q69 360 76 363T93 364Q109 360 111 340Q113
327 113 314T114 286Q114 250 117 215T129 145Q131 137 134 128T146 116Q155 114 161 120T173 133Q187 147 196 163T213 197Q226 221 233 246T248 296Q250 305 250 314T249 332Q249 346 250 359T252 386Q255 403 261 413Q274 430 294 429T323 409Q330 396 332 383T335
355Q340 319 341 282T342 208Q342 152 342 95T341 -19Q340 -51 337 -83T326 -148Q320 -171 310 -191T279 -229Q266 -240 251 -244T219 -242Q201 -237 192 -223T179 -193Q170 -155 174 -119Q176 -111 179 -104T188 -91Q191 -86 196 -84T207 -83Q221 -88 222 -100Q222
-103 223 -107T224 -115Q224 -135 234 -152Q240 -151 242 -148T245 -140Q250 -124 252 -109T255 -77Q257 -56 259 -35T261 8Q260 42 260 76T255 145ZM146 692Q135 692 129 700T125 719Q126 721 127 722T128 726Q148 761 172 792T225 852Q230 857 234 858Q241 862
246 859T252 848Q251 844 250 841T248 834Q231 803 214 772T174 711Q169 704 162 699T146 692Z" />
<glyph unicode="&#xfe;" glyph-name="thorn" horiz-adv-x="345" d="M128 400Q147 407 164 409T200 412Q238 412 267 387T305 323Q312 295 305 269T284 220Q260 180 224 152T149 100Q140 95 128 92Q120 91 118 87T116 76Q113 40 113 2Q113 -5 113 -11T110 -23Q106
-34 96 -36T77 -29Q71 -24 70 -17T66 -2Q62 28 60 58T56 119Q52 182 48 245T41 373Q33 459 47 545Q49 556 53 565T68 580Q82 589 96 585T117 563Q121 556 122 548T125 530Q127 505 127 481T128 430V400ZM117 151Q128 158 135 165T150 179Q172 197 189 219T219 266Q223
274 225 282T228 301Q230 318 221 327T194 337Q178 338 164 333T137 320Q123 311 123 296Q120 262 120 226T117 151Z" />
<glyph unicode="&#xff;" glyph-name="ydieresis" horiz-adv-x="380" d="M255 145Q246 132 239 120T222 97Q211 84 199 73T170 55Q132 41 102 62Q89 71 81 84T65 112Q52 140 46 170T38 232Q38 255 39 279T48 325Q52 341 63 355Q69 360 76 363T93 364Q109 360 111
340Q113 327 113 314T114 286Q114 250 117 215T129 145Q131 137 134 128T146 116Q155 114 161 120T173 133Q187 147 196 163T213 197Q226 221 233 246T248 296Q250 305 250 314T249 332Q249 346 250 359T252 386Q255 403 261 413Q274 430 294 429T323 409Q330 396
332 383T335 355Q340 319 341 282T342 208Q342 152 342 95T341 -19Q340 -51 337 -83T326 -148Q320 -171 310 -191T279 -229Q266 -240 251 -244T219 -242Q201 -237 192 -223T179 -193Q170 -155 174 -119Q176 -111 179 -104T188 -91Q191 -86 196 -84T207 -83Q221
-88 222 -100Q222 -103 223 -107T224 -115Q224 -135 234 -152Q240 -151 242 -148T245 -140Q250 -124 252 -109T255 -77Q257 -56 259 -35T261 8Q260 42 260 76T255 145ZM269 781Q269 770 260 761T237 751Q225 753 216 762T207 784Q209 797 217 805T239 814Q251 814
260 805T269 781ZM159 756Q148 756 140 763T131 781Q131 807 156 810Q167 811 175 803T185 784Q185 773 178 765T159 756Z" />
<glyph unicode="&#x2013;" glyph-name="endash" horiz-adv-x="438" d="M348 299Q375 294 392 280Q406 267 399 253Q392 238 377 238H371Q354 241 318 242T241 243T163 241T110 238Q106 237 102 236T92 233Q68 228 50 242Q32 260 39 281Q47 304 69 305Q139 311
197 310T296 306T348 299Z" />
<glyph unicode="&#x2014;" glyph-name="emdash" horiz-adv-x="699" d="M609 299Q632 295 653 280Q667 267 660 253Q653 238 638 238H632Q621 240 582 241T487 243T371 243T255 242T161 240T110 238Q106 237 102 236T92 233Q68 228 50 242Q32 260 39 281Q47 304
69 305Q123 311 191 312T328 313T459 310T560 304T609 299Z" />
<glyph unicode="&#x2018;" glyph-name="quoteleft" horiz-adv-x="150" d="M80 761Q96 761 105 749T111 718Q108 703 106 689T99 661Q98 654 98 648T99 635Q102 619 89 610Q75 601 60 611Q43 621 41 640Q37 663 38 687T45 734Q47 747 57 754T80 761Z" />
<glyph unicode="&#x2019;" glyph-name="quoteright" horiz-adv-x="150" d="M80 761Q96 761 105 749T111 718Q108 703 106 689T99 661Q98 654 98 648T99 635Q102 619 89 610Q75 601 60 611Q43 621 41 640Q37 663 38 687T45 734Q47 747 57 754T80 761Z" />
<glyph unicode="&#x201a;" glyph-name="quotesinglbase" horiz-adv-x="150" d="M78 119Q95 118 105 106T111 76Q108 61 106 47T99 17Q98 12 98 6T99 -7Q102 -23 89 -32Q76 -41 60 -32Q43 -22 41 -2Q37 21 38 45T44 91Q47 105 57 112T78 119Z" />
<glyph unicode="&#x201c;" glyph-name="quotedblleft" horiz-adv-x="227" d="M38 677Q39 688 40 702T44 730Q46 749 58 757T87 758Q104 752 104 734Q104 731 104 728T102 721Q93 699 89 677T80 632Q75 613 62 613Q55 612 48 618T39 632Q37 643 37 653T38 677ZM105
611Q107 640 112 669T126 727Q128 734 131 740T140 752Q147 758 154 760T171 758Q189 752 189 731Q191 724 188 718T183 704Q171 676 162 648T146 590Q142 571 128 571Q113 571 107 589Q107 590 106 592T105 596V611Z" />
<glyph unicode="&#x201d;" glyph-name="quotedblright" horiz-adv-x="227" d="M38 677Q39 688 40 702T44 730Q46 749 58 757T87 758Q104 752 104 734Q104 731 104 728T102 721Q93 699 89 677T80 632Q75 613 62 613Q55 612 48 618T39 632Q37 643 37 653T38 677ZM105
611Q107 640 112 669T126 727Q128 734 131 740T140 752Q147 758 154 760T171 758Q189 752 189 731Q191 724 188 718T183 704Q171 676 162 648T146 590Q142 571 128 571Q113 571 107 589Q107 590 106 592T105 596V611Z" />
<glyph unicode="&#x201e;" glyph-name="quotedblbase" horiz-adv-x="227" d="M105 -32Q107 -2 111 27T126 85Q128 92 131 98T140 109Q155 124 171 116Q189 110 189 89Q189 82 187 75T183 61Q171 34 162 5T146 -53Q142 -70 128 -73Q114 -73 107 -55Q107 -53 106
-51T105 -47V-32ZM38 35Q39 46 40 59T42 88Q46 106 58 114T87 116Q104 110 104 91Q104 82 102 79Q93 57 89 35T80 -11Q76 -28 62 -31Q55 -31 48 -24T39 -10Q37 1 37 11T38 35Z" />
<glyph unicode="&#x2022;" glyph-name="bullet" horiz-adv-x="182" d="M81 311Q119 310 132 294T144 259Q143 233 125 219T86 205Q64 207 51 225T38 266Q39 283 53 297T81 311Z" />
<glyph unicode="&#x2039;" glyph-name="guilsinglleft" horiz-adv-x="411" d="M156 248Q169 241 179 235T200 221Q221 209 241 195T279 164Q297 146 317 131T363 104Q372 101 374 93T369 76Q359 60 338 65Q328 67 319 69T300 76Q277 85 253 92T206 110Q188 118
173 128T141 148Q123 158 105 169T69 190Q40 206 39 233T62 281Q103 315 142 349T219 424Q233 438 247 452T276 481Q282 486 289 492T303 502Q312 507 323 507T342 500Q362 485 353 463Q346 447 337 434T317 406Q282 362 241 324T156 248Z" />
<glyph unicode="&#x203a;" glyph-name="guilsinglright" horiz-adv-x="410" d="M279 293Q267 299 256 304T234 314Q193 332 153 355T75 403Q56 417 44 436Q36 450 39 466T54 491Q65 499 79 499T105 490Q123 475 143 465T183 445Q226 425 265 400T342 347Q393 310
357 260Q333 227 302 205Q265 177 225 153T144 106Q135 100 126 94T107 82Q103 80 99 78T92 74Q86 71 82 72T72 77Q68 82 68 87T72 97Q74 102 77 106T84 113Q97 124 109 135T135 157Q170 185 202 214T266 277Q269 280 272 284T279 293Z" />
</font>
</defs>
</svg>
