<?xml version="1.0" standalone="no"?>
<!DOCTYPE svg PUBLIC "-//W3C//DTD SVG 1.1//EN" "http://www.w3.org/Graphics/SVG/1.1/DTD/svg11.dtd">
<svg xmlns="http://www.w3.org/2000/svg">
<defs >
<font id="PaytoneOne" horiz-adv-x="598" ><font-face
    font-family="Paytone One"
    units-per-em="1000"
    panose-1="0 0 0 0 0 0 0 0 0 0"
    ascent="1113"
    descent="-283"
    alphabetic="0" />
<glyph unicode=" " glyph-name="space" horiz-adv-x="187" />
<glyph unicode="!" glyph-name="exclam" horiz-adv-x="305" d="M87 252L47 535V690H258V535L219 252H87ZM153 -6Q98 -6 69 23T40 96Q40 140 71 168T153 197Q204 197 234 167T265 96Q265 50 237 22T153 -6Z" />
<glyph unicode="&quot;" glyph-name="quotedbl" horiz-adv-x="435" d="M261 451L240 749H405L377 451H261ZM51 451L30 749H195L167 451H51Z" />
<glyph unicode="#" glyph-name="numbersign" horiz-adv-x="600" d="M66 0L99 188H12L34 312H121L132 376H46L68 500H154L187 688H320L287 500H368L401 688H534L501 500H588L566 376H479L468 312H554L532 188H446L413 0H280L313 188H232L199 0H66ZM254 312H335L346
376H265L254 312Z" />
<glyph unicode="$" glyph-name="dollar" horiz-adv-x="540" d="M232 -85V-11Q174 -9 118 5T23 40L68 167Q106 151 147 140T232 127V271Q195 282 157 296T88 332T37 389T17 473Q17 555 74 608T232 676V773H317V681Q370 680 420 667T501 632L458 512Q422 529 388
539T317 550V406Q353 395 390 380T458 343T508 287T527 205Q527 116 472 62T317 -6V-85H232ZM179 489Q179 470 193 458T232 435V542Q179 528 179 489ZM317 134Q367 150 367 191Q367 209 354 221T317 243V134Z" />
<glyph unicode="%" glyph-name="percent" horiz-adv-x="884" d="M205 308Q149 308 108 332T46 399T24 493Q24 556 48 602T114 673T208 698Q260 698 300 673T364 604T388 506Q388 447 365 403T301 333T205 308ZM127 0L617 688H757L267 0H127ZM205 406Q231 406 247
433T264 503Q264 544 249 571T207 598Q183 598 166 572T148 503Q148 461 162 434T205 406ZM677 -8Q621 -8 580 16T518 83T496 177Q496 240 520 286T586 357T680 382Q732 382 772 357T836 288T860 190Q860 131 837 87T773 17T677 -8ZM677 90Q703 90 719 117T736
187Q736 228 721 255T679 282Q655 282 638 256T620 187Q620 145 634 118T677 90Z" />
<glyph unicode="&amp;" glyph-name="ampersand" horiz-adv-x="701" d="M556 -29L478 48Q429 18 374 1T260 -16Q188 -16 134 8T49 74T18 172Q18 221 38 255T92 315T165 358L150 373Q122 401 109 436T96 509Q96 560 125 601T207 666T327 690Q428 690 489 643T551
518Q551 472 533 439T484 382T417 340L498 258Q514 276 531 297T567 344L688 259Q649 200 604 152L670 85L556 -29ZM280 512Q280 498 286 481T316 441L327 430Q355 447 372 466T389 514Q389 538 375 552T335 566Q309 566 295 551T280 512ZM201 190Q201 163 222
148T290 132Q311 132 331 136T374 151L257 267Q232 252 217 234T201 190Z" />
<glyph unicode="&apos;" glyph-name="quotesingle" horiz-adv-x="225" d="M51 451L30 749H195L167 451H51Z" />
<glyph unicode="(" glyph-name="parenleft" horiz-adv-x="417" d="M395 -194Q274 -183 190 -123T63 37T20 261Q20 393 66 488T196 640T395 707V581Q325 569 284 488T243 261Q243 173 258 103T306 -12T395 -67V-194Z" />
<glyph unicode=")" glyph-name="parenright" horiz-adv-x="417" d="M22 -194V-67Q93 -55 134 27T175 261Q175 400 136 484T22 581V707Q147 695 230 635T355 478T397 261Q397 132 353 34T225 -124T22 -194Z" />
<glyph unicode="*" glyph-name="asterisk" horiz-adv-x="493" d="M150 231L50 313L164 432L10 499L63 605L198 524L187 688H309L296 525L427 607L483 499L327 432L441 312L340 231L244 376L150 231Z" />
<glyph unicode="+" glyph-name="plus" horiz-adv-x="600" d="M219 0V173H60V328H219V501H381V328H540V173H381V0H219Z" />
<glyph unicode="," glyph-name="comma" horiz-adv-x="285" d="M70 -169L35 -81Q123 -51 123 -6Q83 -6 57 23T30 96Q30 140 60 168T140 197Q194 197 224 160T255 57Q255 -28 207 -87T70 -169Z" />
<glyph unicode="-" glyph-name="hyphen" horiz-adv-x="361" d="M46 173V329H315V173H46Z" />
<glyph unicode="." glyph-name="period" horiz-adv-x="285" d="M143 -6Q88 -6 59 23T30 96Q30 140 61 168T143 197Q194 197 224 167T255 96Q255 50 227 22T143 -6Z" />
<glyph unicode="/" glyph-name="slash" horiz-adv-x="480" d="M10 0L276 688H470L204 0H10Z" />
<glyph unicode="0" glyph-name="zero" horiz-adv-x="679" d="M340 -8Q249 -8 178 37T67 163T26 348Q26 451 66 531T178 657T340 703Q408 703 465 677T564 603T629 490T653 348Q653 245 613 165T502 38T340 -8ZM340 163Q390 163 418 212T447 348Q447 433 419 482T340
532Q289 532 261 483T232 348Q232 263 261 213T340 163Z" />
<glyph unicode="1" glyph-name="one" horiz-adv-x="444" d="M48 0V146H132V492H48V623Q91 623 142 639T242 688H347V146H431V0H48Z" />
<glyph unicode="2" glyph-name="two" horiz-adv-x="519" d="M41 0V141Q153 247 216 326T279 459Q279 494 259 511T207 529Q140 529 78 488L29 644Q75 673 130 688T240 703Q322 703 375 674T454 595T481 481Q481 384 420 302T236 146H477V0H41Z" />
<glyph unicode="3" glyph-name="three" horiz-adv-x="515" d="M232 -11Q180 -11 128 -1T31 29L64 182Q145 149 211 149Q293 149 293 211Q293 251 251 268T111 286V423Q289 423 289 494Q289 516 269 528T212 541Q128 541 61 506L22 647Q120 703 243 703Q344 703
402 658T460 533Q460 483 436 441T366 369Q431 346 460 301T490 207Q490 140 458 91T368 16T232 -11Z" />
<glyph unicode="4" glyph-name="four" horiz-adv-x="626" d="M305 0V162H28V310L294 688H518V308H614V162H518V0H305ZM175 308H305V518L175 308Z" />
<glyph unicode="5" glyph-name="five" horiz-adv-x="547" d="M232 -13Q186 -13 139 -4T42 28L74 181Q107 165 146 157T219 148Q273 148 298 168T323 225Q323 257 303 275T251 293Q198 293 157 252L49 298L82 688H475L460 538H232L220 414Q244 433 272 441T327
449Q395 449 437 420T500 344T520 243Q520 156 484 99T384 15T232 -13Z" />
<glyph unicode="6" glyph-name="six" horiz-adv-x="593" d="M26 317Q26 432 70 518T192 654T373 703Q482 703 554 654L513 510Q482 526 451 534T391 543Q319 543 277 494T226 353Q248 393 288 417T374 441Q438 441 485 416T558 343T584 233Q584 162 551 108T457
23T317 -7Q180 -7 103 78T26 317ZM226 269Q237 137 318 137Q356 137 379 160T403 220Q403 254 380 274T318 295Q266 295 226 269Z" />
<glyph unicode="7" glyph-name="seven" horiz-adv-x="513" d="M233 -17L51 60L274 542H26V688H494V566L233 -17Z" />
<glyph unicode="8" glyph-name="eight" horiz-adv-x="600" d="M22 175Q22 280 157 329Q117 355 89 396T61 502Q61 564 93 609T182 678T310 703Q375 703 425 683T503 626T532 542Q532 493 508 460T431 403Q470 385 503 360T557 297T578 206Q578 138 540 89T440
13T301 -13Q217 -13 155 10T57 75T22 175ZM224 534Q224 500 258 480T342 440Q375 470 375 516Q375 591 299 591Q264 591 244 575T224 534ZM212 206Q212 167 236 143T302 118Q344 118 368 137T392 190Q392 219 359 239T245 286Q212 250 212 206Z" />
<glyph unicode="9" glyph-name="nine" horiz-adv-x="593" d="M9 463Q9 533 41 587T134 672T276 703Q373 703 437 662T534 549T567 379Q567 266 524 179T402 42T220 -7Q167 -7 121 4T39 42L80 186Q109 170 140 162T202 153Q275 153 317 203T367 343Q342 297 300
276T219 255Q155 255 108 281T35 354T9 463ZM190 476Q190 442 213 422T275 401Q299 401 323 407T367 427Q356 559 275 559Q236 559 213 536T190 476Z" />
<glyph unicode=":" glyph-name="colon" horiz-adv-x="285" d="M143 -6Q88 -6 59 23T30 96Q30 140 61 168T143 197Q194 197 224 167T255 96Q255 50 227 22T143 -6ZM143 308Q88 308 59 337T30 410Q30 454 61 482T143 511Q194 511 224 481T255 410Q255 364 227 336T143 308Z" />
<glyph unicode=";" glyph-name="semicolon" horiz-adv-x="285" d="M70 -169L35 -81Q123 -51 123 -6Q83 -6 57 23T30 96Q30 140 60 168T140 197Q194 197 224 160T255 57Q255 -28 207 -87T70 -169ZM143 308Q88 308 59 337T30 410Q30 454 61 482T143 511Q194 511
224 481T255 410Q255 364 227 336T143 308Z" />
<glyph unicode="&lt;" glyph-name="less" horiz-adv-x="600" d="M540 -10L60 206V374L540 590V440L184 290L540 140V-10Z" />
<glyph unicode="=" glyph-name="equal" horiz-adv-x="600" d="M60 277V411H540V277H60ZM60 90V224H540V90H60Z" />
<glyph unicode="&gt;" glyph-name="greater" horiz-adv-x="600" d="M60 -10V140L416 290L60 440V590L540 374V206L60 -10Z" />
<glyph unicode="?" glyph-name="question" horiz-adv-x="475" d="M97 254Q90 275 85 295T80 332Q80 369 96 392T137 431T184 457T224 478T241 501Q241 533 162 533Q92 533 32 507L18 659Q59 681 113 692T219 703Q291 703 345 680T430 614T461 517Q461 472 445
443T404 395T349 364T295 339T253 312T237 273V254H97ZM166 -6Q115 -6 84 22T53 96Q53 141 84 169T166 197Q214 197 246 169T278 96Q278 48 249 21T166 -6Z" />
<glyph unicode="@" glyph-name="at" horiz-adv-x="864" d="M582 175H491V233Q475 199 450 185T389 170Q345 170 310 193T255 257T235 349Q235 400 255 439T310 501T389 524Q424 524 451 506T493 450V519H623V283Q665 283 688 316T711 414Q711 511 642 563T444
615Q359 615 295 581T194 487T157 346Q157 268 192 208T292 115T439 81Q495 81 542 92T640 131L684 46Q630 11 572 -5T439 -21Q319 -21 228 25T85 153T34 345Q34 427 64 495T150 613T282 690T448 718Q561 718 645 681T777 576T824 416Q824 305 759 240T582 175ZM429
278Q455 278 473 298T491 348Q491 377 473 396T429 416Q403 416 385 396T367 347Q367 319 385 299T429 278Z" />
<glyph unicode="A" glyph-name="A" horiz-adv-x="716" d="M4 0L194 688H518L717 0H472L446 132H268L239 0H4ZM289 255H422L357 556L289 255Z" />
<glyph unicode="B" glyph-name="B" horiz-adv-x="711" d="M315 0H55V688H336Q501 688 578 643T655 517Q655 413 546 374Q686 347 686 209Q686 103 590 52T315 0ZM278 416H357Q397 416 422 434T447 482Q447 551 353 551H278V416ZM363 141Q413 141 440 161T467 217Q467
256 440 277T363 299H277V141H363Z" />
<glyph unicode="C" glyph-name="C" horiz-adv-x="591" d="M384 -16Q276 -16 196 27T71 150T26 334Q26 442 72 525T200 655T388 703Q506 703 573 657L546 498Q517 512 486 518T426 525Q344 525 297 476T250 340Q250 258 295 212T422 165Q454 165 480 171T546 193L574
35Q487 -16 384 -16Z" />
<glyph unicode="D" glyph-name="D" horiz-adv-x="748" d="M55 0V688H294Q444 688 538 645T677 526T722 349Q722 184 614 92T284 0H55ZM276 175H340Q420 175 459 223T498 351Q498 424 461 468T340 513H276V175Z" />
<glyph unicode="E" glyph-name="E" horiz-adv-x="573" d="M55 0V688H538V536H298V414H517V288H298V157H538V0H55Z" />
<glyph unicode="F" glyph-name="F" horiz-adv-x="556" d="M55 0V688H529V536H270V397H510V263H270V0H55Z" />
<glyph unicode="G" glyph-name="G" horiz-adv-x="656" d="M381 -16Q273 -16 194 28T70 150T26 330Q26 439 72 523T201 655T394 703Q514 703 585 655L555 498Q492 525 424 525Q342 525 295 476T248 340Q248 252 290 203T399 154Q423 154 439 158V329L612 349V36Q555
10 496 -3T381 -16Z" />
<glyph unicode="H" glyph-name="H" horiz-adv-x="774" d="M55 0V688H280V429H493V688H719V0H493V271H280V0H55Z" />
<glyph unicode="I" glyph-name="I" horiz-adv-x="336" d="M55 0V688H281V0H55Z" />
<glyph unicode="J" glyph-name="J" horiz-adv-x="426" d="M150 -16Q103 -16 58 -4T-15 35L30 167Q44 161 60 156T93 151Q160 151 160 227V688H375V240Q375 114 317 49T150 -16Z" />
<glyph unicode="K" glyph-name="K" horiz-adv-x="742" d="M55 0V688H287V414H358L492 688H742L560 347L767 0H503L355 265H287V0H55Z" />
<glyph unicode="L" glyph-name="L" horiz-adv-x="536" d="M55 0V688H271V158H515L505 0H55Z" />
<glyph unicode="M" glyph-name="M" horiz-adv-x="866" d="M55 0V688H263L435 354L603 688H811V0H603V360L476 120H391L263 360V0H55Z" />
<glyph unicode="N" glyph-name="N" horiz-adv-x="764" d="M55 0V688H255L525 323V688H709V0H509L239 350V0H55Z" />
<glyph unicode="O" glyph-name="O" horiz-adv-x="788" d="M394 -16Q285 -16 202 30T73 157T26 343Q26 449 72 530T202 657T394 703Q503 703 586 658T715 531T762 343Q762 238 716 157T586 30T394 -16ZM394 166Q457 166 497 215T538 344Q538 398 520 439T469 503T393
527Q330 527 290 477T250 344Q250 264 290 215T394 166Z" />
<glyph unicode="P" glyph-name="P" horiz-adv-x="647" d="M55 0V689H288Q458 689 544 634T631 470Q631 395 594 343T488 263T328 235H276V0H55ZM319 374Q372 374 401 396T430 462Q430 503 402 523T321 544H276V374H319Z" />
<glyph unicode="Q" glyph-name="Q" horiz-adv-x="788" d="M668 -180L415 -14Q403 -16 393 -16Q285 -16 202 30T73 157T26 343Q26 449 72 530T202 657T394 703Q503 703 586 658T715 531T762 343Q762 261 730 188T634 61L821 -61L668 -180ZM394 166Q457 166 497
215T538 344Q538 398 520 439T469 503T393 527Q330 527 290 477T250 344Q250 264 290 215T394 166Z" />
<glyph unicode="R" glyph-name="R" horiz-adv-x="676" d="M576 -16Q504 -16 457 5T382 65T340 154T321 264H274V0H55V688H338Q502 688 574 631T647 475Q647 416 615 370T512 292Q516 270 519 256T528 225Q541 189 560 175T614 161Q636 161 658 167L670 3Q650 -5
628 -10T576 -16ZM274 401H312Q386 401 416 417T447 474Q447 508 422 523T343 539H274V401Z" />
<glyph unicode="S" glyph-name="S" horiz-adv-x="563" d="M265 -16Q202 -16 137 -1T27 41L63 204Q121 173 171 164T265 154Q305 154 325 167T346 202Q346 222 323 233T264 255T186 278T109 314T49 374T26 469Q26 541 61 593T161 674T314 703Q373 703 429 688T520
646L486 499Q435 520 395 529T318 539Q276 539 254 527T232 495Q232 476 255 464T314 441T391 416T468 379T527 319T550 226Q550 110 475 47T265 -16Z" />
<glyph unicode="T" glyph-name="T" horiz-adv-x="559" d="M163 0V530H8V688H551V530H396V0H163Z" />
<glyph unicode="U" glyph-name="U" horiz-adv-x="762" d="M377 -16Q277 -16 201 20T83 123T41 285V688H263V295Q263 228 295 197T381 165Q437 165 466 197T496 285V688H721V285Q721 196 677 128T556 22T377 -16Z" />
<glyph unicode="V" glyph-name="V" horiz-adv-x="667" d="M203 0L-1 688H235L341 259L447 688H673L458 0H203Z" />
<glyph unicode="W" glyph-name="W" horiz-adv-x="994" d="M179 0L23 688H248L313 259L380 571H613L681 259L746 688H971L815 0H582L497 377L412 0H179Z" />
<glyph unicode="X" glyph-name="X" horiz-adv-x="633" d="M0 0L191 342L6 688H233L314 504L395 688H626L440 342L632 0H401L314 181L227 0H0Z" />
<glyph unicode="Y" glyph-name="Y" horiz-adv-x="592" d="M185 0V191L-13 688H202L299 384L394 688H608L400 191V0H185Z" />
<glyph unicode="Z" glyph-name="Z" horiz-adv-x="510" d="M28 0V145L264 530H37V688H492V542L260 158H497V0H28Z" />
<glyph unicode="[" glyph-name="bracketleft" horiz-adv-x="435" d="M58 -180V688H413V542H273V-34H413V-180H58Z" />
<glyph unicode="\" glyph-name="backslash" horiz-adv-x="480" d="M276 0L10 688H204L470 0H276Z" />
<glyph unicode="]" glyph-name="bracketright" horiz-adv-x="435" d="M22 -180V-34H162V542H22V688H377V-180H22Z" />
<glyph unicode="^" glyph-name="asciicircum" horiz-adv-x="600" d="M580 60H430L300 436L170 60H20L216 560H384L580 60Z" />
<glyph unicode="_" glyph-name="underscore" horiz-adv-x="475" d="M47 -156V0H428V-156H47Z" />
<glyph unicode="`" glyph-name="grave" horiz-adv-x="600" d="M411 556L78 689L179 868L472 663L411 556Z" />
<glyph unicode="a" glyph-name="a" horiz-adv-x="695" d="M271 -8Q202 -8 146 25T58 118T25 253Q25 329 57 386T146 475T271 508Q320 508 366 481T437 392V501H645V0H435V93Q411 44 371 18T271 -8ZM336 150Q377 150 406 179T435 252Q435 295 406 322T336 350Q293
350 264 321T235 250Q235 208 264 179T336 150Z" />
<glyph unicode="b" glyph-name="b" horiz-adv-x="695" d="M424 -8Q364 -8 324 18T260 93V0H50V659L262 690V398Q286 455 330 481T424 508Q494 508 549 476T637 386T670 253Q670 177 638 118T550 26T424 -8ZM359 150Q402 150 431 179T460 250Q460 292 431 321T359
350Q318 350 289 323T260 252Q260 209 289 180T359 150Z" />
<glyph unicode="c" glyph-name="c" horiz-adv-x="475" d="M297 -8Q213 -8 152 25T58 115T25 248Q25 322 59 381T154 474T297 508Q394 508 450 468L428 332Q403 343 381 347T339 352Q290 352 262 325T233 250Q233 204 261 176T335 147Q375 147 429 164L448 24Q415
8 380 0T297 -8Z" />
<glyph unicode="d" glyph-name="d" horiz-adv-x="694" d="M271 -8Q202 -8 146 25T58 118T25 253Q25 329 57 386T146 475T271 508Q320 508 365 482T433 396V659L644 690V0H435V93Q411 44 371 18T271 -8ZM336 150Q377 150 406 179T435 252Q435 295 406 322T336 350Q293
350 264 321T235 250Q235 208 264 179T336 150Z" />
<glyph unicode="e" glyph-name="e" horiz-adv-x="555" d="M361 132Q390 132 422 138T489 160L513 31Q476 12 433 2T333 -8Q232 -8 164 25T60 116T25 250Q25 328 62 386T163 476T302 508Q415 508 475 438T535 237L237 199Q270 132 361 132ZM221 291L378 324Q374
356 356 371T311 387Q271 387 248 360T221 291Z" />
<glyph unicode="f" glyph-name="f" horiz-adv-x="390" d="M63 0V377H0V501H63V530Q63 585 90 624T165 685T276 707Q356 707 408 685L394 558Q372 563 351 565T310 568Q243 568 243 527Q243 514 250 501H391V377H274V0H63Z" />
<glyph unicode="g" glyph-name="g" horiz-adv-x="701" d="M348 -195Q310 -195 277 -190T225 -178L241 -33Q259 -37 280 -39T321 -42Q388 -42 417 -14T447 72V119Q419 64 378 38T275 12Q204 12 147 44T58 133T25 263Q25 336 57 391T147 477T275 508Q325 508 371
482T441 396V501H651V117Q651 -43 572 -119T348 -195ZM340 170Q383 170 412 197T441 262Q441 300 412 325T340 350Q294 350 265 324T235 260Q235 223 264 197T340 170Z" />
<glyph unicode="h" glyph-name="h" horiz-adv-x="686" d="M50 0V659L261 690V398Q282 450 327 479T435 508Q533 508 587 441T641 250V0H430V261Q430 350 358 350Q315 350 288 319T261 234V0H50Z" />
<glyph unicode="i" glyph-name="i" horiz-adv-x="357" d="M235 -8Q168 -8 127 16T66 81T47 173V501H258V202Q258 179 271 167T304 154Q324 154 345 166L356 27Q334 10 299 1T235 -8ZM153 556Q107 556 74 585T41 658Q41 688 57 710T99 746T153 759Q184 759 209
745T250 708T266 658Q266 628 250 605T208 569T153 556Z" />
<glyph unicode="j" glyph-name="j" horiz-adv-x="322" d="M37 -195Q-4 -195 -39 -188T-100 -169L-70 -26Q-53 -32 -36 -35T-5 -38Q30 -38 45 -20T61 38V501H272V56Q272 -65 214 -130T37 -195ZM167 556Q121 556 88 585T55 658Q55 688 71 710T113 746T167 759Q198
759 223 745T264 708T280 658Q280 628 264 605T222 569T167 556Z" />
<glyph unicode="k" glyph-name="k" horiz-adv-x="626" d="M261 0H50V659L261 690V347L496 538L604 399L463 281Q477 210 504 182T574 153Q592 153 617 159L602 -2Q583 -6 568 -7T539 -8Q440 -8 383 39T298 179L261 147V0Z" />
<glyph unicode="l" glyph-name="l" horiz-adv-x="375" d="M247 -8Q176 -8 132 16T67 81T47 173V679L258 710V202Q258 179 273 167T312 154Q336 154 360 166L375 27Q351 10 314 1T247 -8Z" />
<glyph unicode="m" glyph-name="m" horiz-adv-x="1026" d="M50 0V501H258V392Q280 448 321 478T426 508Q488 508 531 478T593 399Q627 450 673 479T786 508Q879 508 930 441T981 250V0H770V261Q770 350 707 350Q668 350 645 319T621 234V0H410V261Q410 308 394
329T347 350Q308 350 285 320T261 234V0H50Z" />
<glyph unicode="n" glyph-name="n" horiz-adv-x="686" d="M50 0V501H258V392Q281 448 326 478T435 508Q533 508 587 441T641 250V0H430V261Q430 350 358 350Q315 350 288 319T261 234V0H50Z" />
<glyph unicode="o" glyph-name="o" horiz-adv-x="627" d="M313 -8Q228 -8 163 25T62 116T25 251Q25 329 62 386T165 476T314 508Q400 508 465 476T566 386T602 251Q602 174 566 116T464 25T313 -8ZM315 142Q356 142 382 172T409 251Q409 299 383 329T317 360Q274
360 248 330T221 251Q221 203 247 173T315 142Z" />
<glyph unicode="p" glyph-name="p" horiz-adv-x="695" d="M261 -158L50 -189V501H258V392Q284 454 329 481T424 508Q494 508 549 476T637 386T670 253Q670 177 638 118T550 26T424 -8Q364 -8 324 18T261 93V-158ZM359 150Q402 150 431 179T460 250Q460 292 431
321T359 350Q318 350 289 323T260 252Q260 209 289 180T359 150Z" />
<glyph unicode="q" glyph-name="q" horiz-adv-x="695" d="M434 -189V93Q411 44 371 18T271 -8Q202 -8 146 25T58 118T25 253Q25 329 57 386T146 475T271 508Q320 508 366 481T437 392V501H645V-158L434 -189ZM336 150Q377 150 406 179T435 252Q435 295 406 322T336
350Q293 350 264 321T235 250Q235 208 264 179T336 150Z" />
<glyph unicode="r" glyph-name="r" horiz-adv-x="447" d="M50 0V501H258V376Q278 444 320 476T422 508L447 331Q423 334 400 334Q261 334 261 220V0H50Z" />
<glyph unicode="s" glyph-name="s" horiz-adv-x="456" d="M211 -8Q166 -8 120 1T37 26L66 152Q89 140 129 132T200 123Q250 123 250 150Q250 163 235 169T195 179T142 191T90 214T50 259T34 335Q34 414 96 461T268 508Q310 508 346 502T416 477L395 355Q342 377
284 377Q247 377 231 371T214 351Q214 340 230 334T271 323T325 308T378 281T420 236T436 162Q436 82 377 37T211 -8Z" />
<glyph unicode="t" glyph-name="t" horiz-adv-x="414" d="M264 -8Q193 -8 149 16T84 81T64 173V377H0V501H79L172 659H275V501H391V377H275V202Q275 179 290 167T329 154Q353 154 377 166L392 27Q368 10 331 1T264 -8Z" />
<glyph unicode="u" glyph-name="u" horiz-adv-x="625" d="M315 -8Q188 -8 117 56T45 235V501H251V226Q251 186 268 167T316 148Q345 148 361 167T378 226V501H580V235Q580 120 511 56T315 -8Z" />
<glyph unicode="v" glyph-name="v" horiz-adv-x="572" d="M166 0L-9 501H223L310 201L395 501H578L409 0H166Z" />
<glyph unicode="w" glyph-name="w" horiz-adv-x="871" d="M143 0L13 501H227L294 186L373 501H545L625 178L692 501H863L742 0H503L437 255L374 0H143Z" />
<glyph unicode="x" glyph-name="x" horiz-adv-x="551" d="M3 0L155 260L13 501H224L280 383L338 501H543L403 260L553 0H348L280 128L214 0H3Z" />
<glyph unicode="y" glyph-name="y" horiz-adv-x="666" d="M313 -195Q275 -195 242 -190T190 -178L206 -33Q224 -37 245 -39T286 -42Q353 -42 382 -14T412 72V129Q388 68 344 41T240 13Q147 13 96 80T45 271V501H256V260Q256 171 319 171Q358 171 381 203T405 287V501H616V117Q616
-43 537 -119T313 -195Z" />
<glyph unicode="z" glyph-name="z" horiz-adv-x="488" d="M30 0V107L211 363H37V501H453V393L281 138H457V0H30Z" />
<glyph unicode="{" glyph-name="braceleft" horiz-adv-x="457" d="M435 -194Q342 -187 271 -145T159 -35T112 118Q109 184 40 192V326Q73 330 92 347T112 399Q117 487 159 554T272 663T435 712V607Q396 592 374 536T345 399Q341 342 317 312T252 259Q294 236 317
206T345 118Q351 35 374 -20T435 -89V-194Z" />
<glyph unicode="|" glyph-name="bar" horiz-adv-x="293" d="M55 -170V688H238V-170H55Z" />
<glyph unicode="}" glyph-name="braceright" horiz-adv-x="457" d="M22 -194V-89Q59 -75 82 -20T112 118Q117 176 140 206T205 259Q164 281 141 311T112 399Q106 479 84 535T22 607V712Q114 704 185 663T298 555T345 399Q347 365 365 348T417 326V192Q348 184
345 118Q340 33 299 -35T187 -145T22 -194Z" />
<glyph unicode="~" glyph-name="asciitilde" horiz-adv-x="600" d="M403 140Q360 140 326 154T262 183T199 197Q161 197 143 150L37 191Q57 271 101 317T197 364Q241 364 274 350T338 322T401 307Q439 307 457 354L563 313Q544 233 500 187T403 140Z" />
<glyph unicode="&#xa0;" glyph-name="uni00A0" horiz-adv-x="187" />
<glyph unicode="&#xa1;" glyph-name="exclamdown" horiz-adv-x="305" d="M153 304Q98 304 69 333T40 406Q40 450 71 478T153 507Q204 507 234 477T265 406Q265 360 237 332T153 304ZM47 -190V-35L87 248H219L258 -35V-190H47Z" />
<glyph unicode="&#xa2;" glyph-name="cent" horiz-adv-x="475" d="M288 -85V-8Q207 -6 148 27T57 117T25 248Q25 321 58 379T150 471T288 508V585H373V501Q416 491 450 468L428 340Q413 346 400 350T373 357V142Q386 144 400 148T429 156L448 24Q414 7 373 -2V-85H288ZM218
250Q218 210 236 182T288 143V355Q255 345 237 318T218 250Z" />
<glyph unicode="&#xa3;" glyph-name="sterling" horiz-adv-x="565" d="M41 0V53Q72 70 88 94T105 156V301H40V386H105V455Q105 529 141 583T240 668T382 698Q421 698 466 690T545 661L513 524Q489 536 466 542T416 548Q379 548 349 526T319 455V386H444V301H319V146H527L517
0H41Z" />
<glyph unicode="&#xa4;" glyph-name="currency" horiz-adv-x="559" d="M81 69L36 114L107 185Q59 239 59 314Q59 388 105 442L36 511L81 556L154 483Q208 516 277 516Q345 516 403 481L478 556L523 511L452 440Q498 390 498 314Q498 240 450 187L523 114L479 69L400
147Q345 116 276 116Q242 116 213 123T157 146L81 69ZM278 230Q315 230 337 254T360 314Q360 351 338 375T278 399Q241 399 218 376T195 314Q195 276 218 253Q241 230 278 230Z" />
<glyph unicode="&#xa5;" glyph-name="yen" horiz-adv-x="661" d="M218 0V72H86V146H218V189H86V263H189L20 688H235L332 384L427 688H641L463 263H566V189H433V146H566V72H433V0H218Z" />
<glyph unicode="&#xa6;" glyph-name="brokenbar" horiz-adv-x="293" d="M55 351V688H238V351H55ZM55 -170V167H238V-170H55Z" />
<glyph unicode="&#xa7;" glyph-name="section" horiz-adv-x="511" d="M30 325Q30 363 47 390T93 437Q70 453 55 477T40 536Q40 613 106 658T291 703Q333 703 379 693T455 664L419 555Q400 566 375 572T325 580T286 583Q247 583 230 576T213 555Q213 541 232 533T282
516T347 498T411 472T461 429T481 362Q481 325 464 298T418 250Q441 234 456 210T471 151Q471 74 406 29T230 -16Q181 -16 133 -6T56 23L92 132Q121 116 163 110T235 104Q298 104 298 132Q298 146 279 154T229 171T164 189T100 215T50 258T30 325ZM202 352Q202
333 222 322T274 302Q309 314 309 335Q309 355 286 366T230 386Q202 375 202 352Z" />
<glyph unicode="&#xa8;" glyph-name="dieresis" horiz-adv-x="600" d="M159 556Q113 556 80 585T47 656Q47 685 63 708T104 744T159 758Q190 758 215 744T256 707T272 656Q272 626 256 604T214 569T159 556ZM442 556Q392 556 361 586T329 656Q329 686 345 709T388
745T442 758Q476 758 501 743T539 704T553 656Q553 627 538 605T497 569T442 556Z" />
<glyph unicode="&#xa9;" glyph-name="copyright" horiz-adv-x="677" d="M338 70Q272 70 215 94T116 160T49 260T25 384Q25 450 49 507T115 607T215 674T338 698Q430 698 500 658T611 547T652 384Q652 318 628 261T561 161T461 94T338 70ZM338 134Q408 134 462
166T547 255T579 384Q579 457 548 513T462 601T338 634Q269 634 215 602T129 513T98 384Q98 312 129 256T214 167T338 134ZM355 196Q298 196 254 219T184 284T158 382Q158 436 181 478T248 544T352 568Q414 568 460 542L445 453Q406 467 373 467Q332 467 309 445T285
383Q285 344 309 321T377 298Q394 298 407 301T445 312L461 222Q412 196 355 196Z" />
<glyph unicode="&#xaa;" glyph-name="ordfeminine" horiz-adv-x="484" d="M187 336Q137 336 98 360T37 425T15 519Q15 571 37 611T99 675T187 698Q221 698 253 682T302 616V688H454V342H302V407Q285 367 257 352T187 336ZM238 452Q265 452 282 469T300 517Q300
547 282 564T238 582Q210 582 192 565T173 517Q173 487 193 470T238 452Z" />
<glyph unicode="&#xab;" glyph-name="guillemotleft" horiz-adv-x="542" d="M496 13L286 166V346L496 495V313L399 256L496 195V13ZM236 13L26 166V346L236 495V313L140 256L236 195V13Z" />
<glyph unicode="&#xac;" glyph-name="logicalnot" horiz-adv-x="600" d="M378 85V261H60V416H540V85H378Z" />
<glyph unicode="&#xad;" glyph-name="uni00AD" horiz-adv-x="361" d="M46 173V329H315V173H46Z" />
<glyph unicode="&#xae;" glyph-name="registered" horiz-adv-x="677" d="M338 70Q272 70 215 94T116 160T49 260T25 384Q25 450 49 507T115 607T215 674T338 698Q430 698 500 658T611 547T652 384Q652 318 628 261T561 161T461 94T338 70ZM338 134Q408 134 462
166T547 255T579 384Q579 457 548 513T462 601T338 634Q269 634 215 602T129 513T98 384Q98 312 129 256T214 167T338 134ZM453 209Q363 209 344 293L331 351H314V217H198V570H355Q422 570 462 542T502 466Q502 398 434 370L442 334Q450 299 482 299Q490 299 496
299T510 301V222Q485 209 453 209ZM314 423H346Q363 423 376 434T389 461Q389 493 346 493H314V423Z" />
<glyph unicode="&#xaf;" glyph-name="overscore" horiz-adv-x="600" d="M126 566V694H474V566H126Z" />
<glyph unicode="&#xb0;" glyph-name="degree" horiz-adv-x="459" d="M229 322Q179 322 133 345T59 411T30 512Q30 568 57 611T131 678T237 703Q297 703 340 679T406 612T429 515Q429 459 400 416T326 347T229 322ZM230 422Q268 422 291 447T314 513Q314 556 290
579T230 603Q194 603 170 578T146 513Q146 473 171 448T230 422Z" />
<glyph unicode="&#xb1;" glyph-name="plusminus" horiz-adv-x="600" d="M219 209V371H60V526H219V688H381V526H540V371H381V209H219ZM60 0V155H540V0H60Z" />
<glyph unicode="&#xb2;" glyph-name="uni00B2" horiz-adv-x="294" d="M16 320V397Q80 454 116 497T152 569Q152 588 141 597T111 606Q72 606 37 584L9 669Q35 684 67 692T130 700Q195 700 231 666T267 580Q267 528 232 484T128 400H265V320H16Z" />
<glyph unicode="&#xb3;" glyph-name="uni00B3" horiz-adv-x="294" d="M130 309Q71 309 21 331L39 415Q83 397 118 397Q163 397 163 433Q163 456 140 466T64 476V546Q161 546 161 585Q161 611 119 611Q97 611 77 606T37 592L16 668Q69 700 136 700Q190 700 221
675T253 606Q253 550 202 517Q237 504 253 480T269 428Q269 373 231 341T130 309Z" />
<glyph unicode="&#xb4;" glyph-name="acute" horiz-adv-x="600" d="M189 556L128 663L421 868L522 689L189 556Z" />
<glyph unicode="&#xb5;" glyph-name="uni00B5" horiz-adv-x="666" d="M50 501H261V267Q261 207 284 179T347 151Q410 151 410 240V501H621V251Q621 128 569 61T424 -7Q364 -7 322 19T258 79V-158L50 -189V501Z" />
<glyph unicode="&#xb6;" glyph-name="paragraph" horiz-adv-x="530" d="M251 0V355H209Q154 355 110 376T41 435T16 521Q16 570 44 607T121 666T231 688H475V0H395V612H332V0H251Z" />
<glyph unicode="&#xb7;" glyph-name="middot" horiz-adv-x="305" d="M153 159Q98 159 69 188T40 261Q40 305 71 333T153 362Q204 362 234 332T265 261Q265 215 237 187T153 159Z" />
<glyph unicode="&#xb8;" glyph-name="cedilla" horiz-adv-x="600" d="M276 -248Q253 -248 229 -244T185 -230V-173Q199 -177 211 -179T233 -181Q259 -181 274 -169T290 -134Q290 -114 274 -103T232 -87L272 30H348L323 -45Q372 -58 392 -81T413 -140Q413 -189
376 -218T276 -248Z" />
<glyph unicode="&#xb9;" glyph-name="uni00B9" horiz-adv-x="259" d="M37 320V398H81V586H37V653Q92 653 139 688H194V398H238V320H37Z" />
<glyph unicode="&#xba;" glyph-name="ordmasculine" horiz-adv-x="433" d="M216 336Q156 336 111 359T41 423T15 518Q15 577 43 617T117 677T217 698Q277 698 322 675T392 612T418 518Q418 454 388 414T311 355T216 336ZM218 451Q241 451 258 468T275 518Q275
551 258 567T218 584Q195 584 178 568T160 518Q160 485 177 468T218 451Z" />
<glyph unicode="&#xbb;" glyph-name="guillemotright" horiz-adv-x="541" d="M305 13V195L400 256L305 313V495L515 346V166L305 13ZM46 13V195L142 256L46 313V495L256 346V166L46 13Z" />
<glyph unicode="&#xbc;" glyph-name="onequarter" horiz-adv-x="678" d="M37 320V398H81V586H37V653Q92 653 139 688H194V398H238V320H37ZM83 0L457 688H567L191 0H83ZM495 0V88H343V165L490 368H615V165H661V88H615V0H495ZM423 165H495V272L423 165Z" />
<glyph unicode="&#xbd;" glyph-name="onehalf" horiz-adv-x="685" d="M37 320V398H81V586H37V653Q92 653 139 688H194V398H238V320H37ZM83 0L457 688H567L191 0H83ZM407 0V77Q471 134 507 177T543 249Q543 268 532 277T502 286Q463 286 428 264L400 349Q426 364
458 372T521 380Q586 380 622 346T658 260Q658 208 623 164T519 80H656V0H407Z" />
<glyph unicode="&#xbe;" glyph-name="threequarters" horiz-adv-x="725" d="M130 309Q71 309 21 331L39 415Q83 397 118 397Q163 397 163 433Q163 456 140 466T64 476V546Q161 546 161 585Q161 611 119 611Q97 611 77 606T37 592L16 668Q69 700 136 700Q190 700
221 675T253 606Q253 550 202 517Q237 504 253 480T269 428Q269 373 231 341T130 309ZM118 0L492 688H602L226 0H118ZM542 0V88H390V165L537 368H662V165H708V88H662V0H542ZM470 165H542V272L470 165Z" />
<glyph unicode="&#xbf;" glyph-name="questiondown" horiz-adv-x="475" d="M311 304Q256 304 227 333T198 406Q198 450 229 478T311 507Q362 507 392 477T423 406Q423 360 395 332T311 304ZM256 -185Q185 -185 130 -163T45 -100T14 -7Q14 36 30 63T71 109T126
139T180 163T222 188T238 226V244H378Q386 225 390 206T395 172Q395 138 379 116T339 79T291 55T251 36T234 15Q234 -15 313 -15Q385 -15 443 9L457 -143Q416 -164 362 -174T256 -185Z" />
<glyph unicode="&#xc0;" glyph-name="Agrave" horiz-adv-x="716" d="M4 0L194 688H518L717 0H472L446 132H268L239 0H4ZM289 255H422L357 556L289 255ZM417 733L84 866L185 1045L478 840L417 733Z" />
<glyph unicode="&#xc1;" glyph-name="Aacute" horiz-adv-x="716" d="M4 0L194 688H518L717 0H472L446 132H268L239 0H4ZM289 255H422L357 556L289 255ZM295 733L234 840L527 1045L628 866L295 733Z" />
<glyph unicode="&#xc2;" glyph-name="Acircumflex" horiz-adv-x="716" d="M4 0L194 688H518L717 0H472L446 132H268L239 0H4ZM289 255H422L357 556L289 255ZM140 743L263 992H448L571 743H405L367 849L355 887L345 849L306 743H140Z" />
<glyph unicode="&#xc3;" glyph-name="Atilde" horiz-adv-x="716" d="M4 0L194 688H518L717 0H472L446 132H268L239 0H4ZM289 255H422L357 556L289 255ZM221 735L113 783Q142 862 186 901T285 940Q315 940 338 928T384 904T431 892Q448 892 461 905T490 941L598
894Q570 815 525 776T426 736Q396 736 373 748T327 772T280 784Q264 784 250 771T221 735Z" />
<glyph unicode="&#xc4;" glyph-name="Adieresis" horiz-adv-x="716" d="M4 0L194 688H518L717 0H472L446 132H268L239 0H4ZM289 255H422L357 556L289 255ZM215 733Q169 733 136 762T103 833Q103 862 119 885T160 921T215 935Q246 935 271 921T312 884T328 833Q328
803 312 781T270 746T215 733ZM498 733Q448 733 417 763T385 833Q385 863 401 886T444 922T498 935Q532 935 557 920T595 881T609 833Q609 804 594 782T553 746T498 733Z" />
<glyph unicode="&#xc5;" glyph-name="Aring" horiz-adv-x="716" d="M4 0L194 688H518L717 0H472L446 132H268L239 0H4ZM289 255H422L357 556L289 255ZM356 889Q305 889 267 910T206 970T184 1059Q184 1112 206 1150T268 1210T356 1232Q410 1232 448 1209T506 1147T527
1059Q527 982 479 936T356 889ZM356 999Q384 999 399 1015T414 1059Q414 1088 398 1105T354 1122Q328 1122 312 1105T295 1059Q295 1031 312 1015T356 999Z" />
<glyph unicode="&#xc6;" glyph-name="AE" horiz-adv-x="951" d="M274 132L233 0H4L239 688H826L852 536H584L605 411H851L872 285H626L649 152H918L944 0H465L442 132H274ZM378 506L311 255H421L378 506Z" />
<glyph unicode="&#xc7;" glyph-name="Ccedilla" horiz-adv-x="591" d="M384 -16Q276 -16 196 27T71 150T26 334Q26 442 72 525T200 655T388 703Q506 703 573 657L546 498Q517 512 486 518T426 525Q344 525 297 476T250 340Q250 258 295 212T422 165Q454 165 480
171T546 193L574 35Q487 -16 384 -16ZM326 -248Q303 -248 279 -244T235 -230V-173Q249 -177 261 -179T283 -181Q309 -181 324 -169T340 -134Q340 -114 324 -103T282 -87L322 30H398L373 -45Q422 -58 442 -81T463 -140Q463 -189 426 -218T326 -248Z" />
<glyph unicode="&#xc8;" glyph-name="Egrave" horiz-adv-x="573" d="M55 0V688H538V536H298V414H517V288H298V157H538V0H55ZM614 733L281 866L382 1045L675 840L614 733Z" />
<glyph unicode="&#xc9;" glyph-name="Eacute" horiz-adv-x="573" d="M55 0V688H538V536H298V414H517V288H298V157H538V0H55ZM492 733L431 840L724 1045L825 866L492 733Z" />
<glyph unicode="&#xca;" glyph-name="Ecircumflex" horiz-adv-x="573" d="M55 0V688H538V536H298V414H517V288H298V157H538V0H55ZM337 743L460 992H645L768 743H602L564 849L552 887L542 849L503 743H337Z" />
<glyph unicode="&#xcb;" glyph-name="Edieresis" horiz-adv-x="573" d="M55 0V688H538V536H298V414H517V288H298V157H538V0H55ZM412 733Q366 733 333 762T300 833Q300 862 316 885T357 921T412 935Q443 935 468 921T509 884T525 833Q525 803 509 781T467 746T412
733ZM695 733Q645 733 614 763T582 833Q582 863 598 886T641 922T695 935Q729 935 754 920T792 881T806 833Q806 804 791 782T750 746T695 733Z" />
<glyph unicode="&#xcc;" glyph-name="Igrave" horiz-adv-x="336" d="M55 0V688H281V0H55ZM229 733L-104 866L-3 1045L290 840L229 733Z" />
<glyph unicode="&#xcd;" glyph-name="Iacute" horiz-adv-x="336" d="M55 0V688H281V0H55ZM107 733L46 840L339 1045L440 866L107 733Z" />
<glyph unicode="&#xce;" glyph-name="Icircumflex" horiz-adv-x="336" d="M55 0V688H281V0H55ZM-48 743L75 992H260L383 743H217L179 849L167 887L157 849L118 743H-48Z" />
<glyph unicode="&#xcf;" glyph-name="Idieresis" horiz-adv-x="336" d="M55 0V688H281V0H55ZM27 733Q-19 733 -52 762T-85 833Q-85 862 -69 885T-28 921T27 935Q58 935 83 921T124 884T140 833Q140 803 124 781T82 746T27 733ZM310 733Q260 733 229 763T197 833Q197
863 213 886T256 922T310 935Q344 935 369 920T407 881T421 833Q421 804 406 782T365 746T310 733Z" />
<glyph unicode="&#xd0;" glyph-name="Eth" horiz-adv-x="768" d="M75 0V688H314Q464 688 558 645T697 526T742 349Q742 184 634 92T304 0H75ZM296 175H360Q440 175 479 223T518 351Q518 424 481 468T360 513H296V175ZM10 557V642H400V557H10Z" />
<glyph unicode="&#xd1;" glyph-name="Ntilde" horiz-adv-x="764" d="M55 0V688H255L525 323V688H709V0H509L239 350V0H55ZM247 735L139 783Q168 862 212 901T311 940Q341 940 364 928T410 904T457 892Q474 892 487 905T516 941L624 894Q596 815 551 776T452 736Q422
736 399 748T353 772T306 784Q290 784 276 771T247 735Z" />
<glyph unicode="&#xd2;" glyph-name="Ograve" horiz-adv-x="788" d="M394 -16Q285 -16 202 30T73 157T26 343Q26 449 72 530T202 657T394 703Q503 703 586 658T715 531T762 343Q762 238 716 157T586 30T394 -16ZM394 166Q457 166 497 215T538 344Q538 398 520
439T469 503T393 527Q330 527 290 477T250 344Q250 264 290 215T394 166ZM455 733L122 866L223 1045L516 840L455 733Z" />
<glyph unicode="&#xd3;" glyph-name="Oacute" horiz-adv-x="788" d="M394 -16Q285 -16 202 30T73 157T26 343Q26 449 72 530T202 657T394 703Q503 703 586 658T715 531T762 343Q762 238 716 157T586 30T394 -16ZM394 166Q457 166 497 215T538 344Q538 398 520
439T469 503T393 527Q330 527 290 477T250 344Q250 264 290 215T394 166ZM333 733L272 840L565 1045L666 866L333 733Z" />
<glyph unicode="&#xd4;" glyph-name="Ocircumflex" horiz-adv-x="788" d="M394 -16Q285 -16 202 30T73 157T26 343Q26 449 72 530T202 657T394 703Q503 703 586 658T715 531T762 343Q762 238 716 157T586 30T394 -16ZM394 166Q457 166 497 215T538 344Q538 398
520 439T469 503T393 527Q330 527 290 477T250 344Q250 264 290 215T394 166ZM178 743L301 992H486L609 743H443L405 849L393 887L383 849L344 743H178Z" />
<glyph unicode="&#xd5;" glyph-name="Otilde" horiz-adv-x="788" d="M394 -16Q285 -16 202 30T73 157T26 343Q26 449 72 530T202 657T394 703Q503 703 586 658T715 531T762 343Q762 238 716 157T586 30T394 -16ZM394 166Q457 166 497 215T538 344Q538 398 520
439T469 503T393 527Q330 527 290 477T250 344Q250 264 290 215T394 166ZM259 735L151 783Q180 862 224 901T323 940Q353 940 376 928T422 904T469 892Q486 892 499 905T528 941L636 894Q608 815 563 776T464 736Q434 736 411 748T365 772T318 784Q302 784 288
771T259 735Z" />
<glyph unicode="&#xd6;" glyph-name="Odieresis" horiz-adv-x="788" d="M394 -16Q285 -16 202 30T73 157T26 343Q26 449 72 530T202 657T394 703Q503 703 586 658T715 531T762 343Q762 238 716 157T586 30T394 -16ZM394 166Q457 166 497 215T538 344Q538 398 520
439T469 503T393 527Q330 527 290 477T250 344Q250 264 290 215T394 166ZM253 733Q207 733 174 762T141 833Q141 862 157 885T198 921T253 935Q284 935 309 921T350 884T366 833Q366 803 350 781T308 746T253 733ZM536 733Q486 733 455 763T423 833Q423 863 439
886T482 922T536 935Q570 935 595 920T633 881T647 833Q647 804 632 782T591 746T536 733Z" />
<glyph unicode="&#xd7;" glyph-name="multiply" horiz-adv-x="600" d="M157 -10L44 103L189 251L44 398L157 511L301 365L444 511L557 398L412 251L557 103L444 -10L301 136L157 -10Z" />
<glyph unicode="&#xd8;" glyph-name="Oslash" horiz-adv-x="788" d="M394 -16Q285 -16 202 30T73 157T26 343Q26 449 72 530T202 657T394 703Q503 703 586 658T715 531T762 343Q762 238 716 157T586 30T394 -16ZM394 166Q457 166 497 215T538 344Q538 398 520
439T469 503T393 527Q330 527 290 477T250 344Q250 264 290 215T394 166ZM472 -126L742 813H827L557 -126H472Z" />
<glyph unicode="&#xd9;" glyph-name="Ugrave" horiz-adv-x="762" d="M377 -16Q277 -16 201 20T83 123T41 285V688H263V295Q263 228 295 197T381 165Q437 165 466 197T496 285V688H721V285Q721 196 677 128T556 22T377 -16ZM442 733L109 866L210 1045L503 840L442 733Z" />
<glyph unicode="&#xda;" glyph-name="Uacute" horiz-adv-x="762" d="M377 -16Q277 -16 201 20T83 123T41 285V688H263V295Q263 228 295 197T381 165Q437 165 466 197T496 285V688H721V285Q721 196 677 128T556 22T377 -16ZM320 733L259 840L552 1045L653 866L320 733Z" />
<glyph unicode="&#xdb;" glyph-name="Ucircumflex" horiz-adv-x="762" d="M377 -16Q277 -16 201 20T83 123T41 285V688H263V295Q263 228 295 197T381 165Q437 165 466 197T496 285V688H721V285Q721 196 677 128T556 22T377 -16ZM165 743L288 992H473L596 743H430L392
849L380 887L370 849L331 743H165Z" />
<glyph unicode="&#xdc;" glyph-name="Udieresis" horiz-adv-x="762" d="M377 -16Q277 -16 201 20T83 123T41 285V688H263V295Q263 228 295 197T381 165Q437 165 466 197T496 285V688H721V285Q721 196 677 128T556 22T377 -16ZM240 733Q194 733 161 762T128 833Q128
862 144 885T185 921T240 935Q271 935 296 921T337 884T353 833Q353 803 337 781T295 746T240 733ZM523 733Q473 733 442 763T410 833Q410 863 426 886T469 922T523 935Q557 935 582 920T620 881T634 833Q634 804 619 782T578 746T523 733Z" />
<glyph unicode="&#xdd;" glyph-name="Yacute" horiz-adv-x="592" d="M185 0V191L-13 688H202L299 384L394 688H608L400 191V0H185ZM491 733L430 840L723 1045L824 866L491 733Z" />
<glyph unicode="&#xde;" glyph-name="Thorn" horiz-adv-x="647" d="M288 599Q458 599 544 544T631 380Q631 305 594 253T488 173T328 145H276V0H55V688H276V599H288ZM319 284Q372 284 401 306T430 372Q430 413 402 433T321 454H276V284H319Z" />
<glyph unicode="&#xdf;" glyph-name="germandbls" horiz-adv-x="700" d="M415 -9Q387 -9 366 -7T328 -1L317 146Q331 144 343 143T367 141Q413 141 440 161T468 225Q468 261 437 293T338 337V429Q382 437 399 456T416 503Q416 528 400 544T350 560Q310 560 286
533T261 453V0H50V419Q50 512 86 575T189 671T345 703Q470 703 533 654T597 522Q597 479 576 445T510 388Q576 374 613 344T664 277T679 211Q679 143 647 94T555 18T415 -9Z" />
<glyph unicode="&#xe0;" glyph-name="agrave" horiz-adv-x="695" d="M271 -8Q202 -8 146 25T58 118T25 253Q25 329 57 386T146 475T271 508Q320 508 366 481T437 392V501H645V0H435V93Q411 44 371 18T271 -8ZM336 150Q377 150 406 179T435 252Q435 295 406 322T336
350Q293 350 264 321T235 250Q235 208 264 179T336 150ZM459 556L126 689L227 868L520 663L459 556Z" />
<glyph unicode="&#xe1;" glyph-name="aacute" horiz-adv-x="695" d="M271 -8Q202 -8 146 25T58 118T25 253Q25 329 57 386T146 475T271 508Q320 508 366 481T437 392V501H645V0H435V93Q411 44 371 18T271 -8ZM336 150Q377 150 406 179T435 252Q435 295 406 322T336
350Q293 350 264 321T235 250Q235 208 264 179T336 150ZM237 556L176 663L469 868L570 689L237 556Z" />
<glyph unicode="&#xe2;" glyph-name="acircumflex" horiz-adv-x="695" d="M271 -8Q202 -8 146 25T58 118T25 253Q25 329 57 386T146 475T271 508Q320 508 366 481T437 392V501H645V0H435V93Q411 44 371 18T271 -8ZM336 150Q377 150 406 179T435 252Q435 295 406
322T336 350Q293 350 264 321T235 250Q235 208 264 179T336 150ZM132 566L255 815H440L563 566H397L359 672L347 710L337 672L298 566H132Z" />
<glyph unicode="&#xe3;" glyph-name="atilde" horiz-adv-x="695" d="M271 -8Q202 -8 146 25T58 118T25 253Q25 329 57 386T146 475T271 508Q320 508 366 481T437 392V501H645V0H435V93Q411 44 371 18T271 -8ZM336 150Q377 150 406 179T435 252Q435 295 406 322T336
350Q293 350 264 321T235 250Q235 208 264 179T336 150ZM213 558L105 606Q134 685 178 724T277 763Q307 763 330 751T376 727T423 715Q440 715 453 728T482 764L590 717Q562 638 517 599T418 559Q388 559 365 571T319 595T272 607Q256 607 242 594T213 558Z" />
<glyph unicode="&#xe4;" glyph-name="adieresis" horiz-adv-x="695" d="M271 -8Q202 -8 146 25T58 118T25 253Q25 329 57 386T146 475T271 508Q320 508 366 481T437 392V501H645V0H435V93Q411 44 371 18T271 -8ZM336 150Q377 150 406 179T435 252Q435 295 406
322T336 350Q293 350 264 321T235 250Q235 208 264 179T336 150ZM207 556Q161 556 128 585T95 656Q95 685 111 708T152 744T207 758Q238 758 263 744T304 707T320 656Q320 626 304 604T262 569T207 556ZM490 556Q440 556 409 586T377 656Q377 686 393 709T436 745T490
758Q524 758 549 743T587 704T601 656Q601 627 586 605T545 569T490 556Z" />
<glyph unicode="&#xe5;" glyph-name="aring" horiz-adv-x="695" d="M271 -8Q202 -8 146 25T58 118T25 253Q25 329 57 386T146 475T271 508Q320 508 366 481T437 392V501H645V0H435V93Q411 44 371 18T271 -8ZM336 150Q377 150 406 179T435 252Q435 295 406 322T336
350Q293 350 264 321T235 250Q235 208 264 179T336 150ZM348 556Q297 556 259 577T198 637T176 726Q176 779 198 817T260 877T348 899Q402 899 440 876T498 814T519 726Q519 649 471 603T348 556ZM348 666Q376 666 391 682T406 726Q406 755 390 772T346 789Q320
789 304 772T287 726Q287 698 304 682T348 666Z" />
<glyph unicode="&#xe6;" glyph-name="ae" horiz-adv-x="1055" d="M271 -8Q202 -8 146 25T58 118T25 253Q25 329 57 386T146 475T271 508Q320 508 366 481T437 392V501H615V432Q650 468 699 488T804 508Q917 508 976 438T1035 237L737 199Q770 132 861 132Q890
132 922 138T989 160L1013 31Q976 12 933 2T833 -8Q760 -8 706 12T615 67V0H435V93Q411 44 371 18T271 -8ZM721 291L878 324Q874 356 856 371T811 387Q771 387 748 360T721 291ZM235 250Q235 208 264 179T336 150Q377 150 406 179T435 252Q435 295 406 322T336
350Q293 350 264 321T235 250Z" />
<glyph unicode="&#xe7;" glyph-name="ccedilla" horiz-adv-x="475" d="M297 -8Q213 -8 152 25T58 115T25 248Q25 322 59 381T154 474T297 508Q394 508 450 468L428 332Q403 343 381 347T339 352Q290 352 262 325T233 250Q233 204 261 176T335 147Q375 147 429
164L448 24Q415 8 380 0T297 -8ZM498 -248Q475 -248 451 -244T407 -230V-173Q421 -177 433 -179T455 -181Q481 -181 496 -169T512 -134Q512 -114 496 -103T454 -87L494 30H570L545 -45Q594 -58 614 -81T635 -140Q635 -189 598 -218T498 -248Z" />
<glyph unicode="&#xe8;" glyph-name="egrave" horiz-adv-x="555" d="M361 132Q390 132 422 138T489 160L513 31Q476 12 433 2T333 -8Q232 -8 164 25T60 116T25 250Q25 328 62 386T163 476T302 508Q415 508 475 438T535 237L237 199Q270 132 361 132ZM221 291L378
324Q374 356 356 371T311 387Q271 387 248 360T221 291ZM655 556L322 689L423 868L716 663L655 556Z" />
<glyph unicode="&#xe9;" glyph-name="eacute" horiz-adv-x="555" d="M361 132Q390 132 422 138T489 160L513 31Q476 12 433 2T333 -8Q232 -8 164 25T60 116T25 250Q25 328 62 386T163 476T302 508Q415 508 475 438T535 237L237 199Q270 132 361 132ZM221 291L378
324Q374 356 356 371T311 387Q271 387 248 360T221 291ZM433 556L372 663L665 868L766 689L433 556Z" />
<glyph unicode="&#xea;" glyph-name="ecircumflex" horiz-adv-x="555" d="M361 132Q390 132 422 138T489 160L513 31Q476 12 433 2T333 -8Q232 -8 164 25T60 116T25 250Q25 328 62 386T163 476T302 508Q415 508 475 438T535 237L237 199Q270 132 361 132ZM221
291L378 324Q374 356 356 371T311 387Q271 387 248 360T221 291ZM328 566L451 815H636L759 566H593L555 672L543 710L533 672L494 566H328Z" />
<glyph unicode="&#xeb;" glyph-name="edieresis" horiz-adv-x="555" d="M361 132Q390 132 422 138T489 160L513 31Q476 12 433 2T333 -8Q232 -8 164 25T60 116T25 250Q25 328 62 386T163 476T302 508Q415 508 475 438T535 237L237 199Q270 132 361 132ZM221 291L378
324Q374 356 356 371T311 387Q271 387 248 360T221 291ZM403 556Q357 556 324 585T291 656Q291 685 307 708T348 744T403 758Q434 758 459 744T500 707T516 656Q516 626 500 604T458 569T403 556ZM686 556Q636 556 605 586T573 656Q573 686 589 709T632 745T686
758Q720 758 745 743T783 704T797 656Q797 627 782 605T741 569T686 556Z" />
<glyph unicode="&#xec;" glyph-name="igrave" horiz-adv-x="357" d="M235 -8Q168 -8 127 16T66 81T47 173V501H258V202Q258 179 271 167T304 154Q324 154 345 166L356 27Q334 10 299 1T235 -8ZM264 556L-69 689L32 868L325 663L264 556Z" />
<glyph unicode="&#xed;" glyph-name="iacute" horiz-adv-x="357" d="M235 -8Q168 -8 127 16T66 81T47 173V501H258V202Q258 179 271 167T304 154Q324 154 345 166L356 27Q334 10 299 1T235 -8ZM42 556L-19 663L274 868L375 689L42 556Z" />
<glyph unicode="&#xee;" glyph-name="icircumflex" horiz-adv-x="357" d="M235 -8Q168 -8 127 16T66 81T47 173V501H258V202Q258 179 271 167T304 154Q324 154 345 166L356 27Q334 10 299 1T235 -8ZM-63 566L60 815H245L368 566H202L164 672L152 710L142 672L103
566H-63Z" />
<glyph unicode="&#xef;" glyph-name="idieresis" horiz-adv-x="357" d="M235 -8Q168 -8 127 16T66 81T47 173V501H258V202Q258 179 271 167T304 154Q324 154 345 166L356 27Q334 10 299 1T235 -8ZM12 556Q-34 556 -67 585T-100 656Q-100 685 -84 708T-43 744T12
758Q43 758 68 744T109 707T125 656Q125 626 109 604T67 569T12 556ZM295 556Q245 556 214 586T182 656Q182 686 198 709T241 745T295 758Q329 758 354 743T392 704T406 656Q406 627 391 605T350 569T295 556Z" />
<glyph unicode="&#xf0;" glyph-name="eth" horiz-adv-x="655" d="M300 -16Q215 -16 154 13T59 94T25 217Q25 278 53 326T135 402T263 430Q308 430 344 411T404 344Q404 434 379 485L279 445L254 512L328 542Q300 557 262 557Q225 557 187 546T116 511L97 662Q138
682 194 692T305 703Q375 703 430 682T526 621L615 657L640 590L572 563Q625 472 625 337Q625 232 585 153T473 29T300 -16ZM234 208Q234 177 254 157T312 137Q357 137 380 171T403 268Q381 281 362 285T321 290Q282 290 258 268T234 208Z" />
<glyph unicode="&#xf1;" glyph-name="ntilde" horiz-adv-x="686" d="M50 0V501H258V392Q281 448 326 478T435 508Q533 508 587 441T641 250V0H430V261Q430 350 358 350Q315 350 288 319T261 234V0H50ZM209 558L101 606Q130 685 174 724T273 763Q303 763 326 751T372
727T419 715Q436 715 449 728T478 764L586 717Q558 638 513 599T414 559Q384 559 361 571T315 595T268 607Q252 607 238 594T209 558Z" />
<glyph unicode="&#xf2;" glyph-name="ograve" horiz-adv-x="627" d="M313 -8Q228 -8 163 25T62 116T25 251Q25 329 62 386T165 476T314 508Q400 508 465 476T566 386T602 251Q602 174 566 116T464 25T313 -8ZM315 142Q356 142 382 172T409 251Q409 299 383 329T317
360Q274 360 248 330T221 251Q221 203 247 173T315 142ZM425 556L92 689L193 868L486 663L425 556Z" />
<glyph unicode="&#xf3;" glyph-name="oacute" horiz-adv-x="627" d="M313 -8Q228 -8 163 25T62 116T25 251Q25 329 62 386T165 476T314 508Q400 508 465 476T566 386T602 251Q602 174 566 116T464 25T313 -8ZM315 142Q356 142 382 172T409 251Q409 299 383 329T317
360Q274 360 248 330T221 251Q221 203 247 173T315 142ZM203 556L142 663L435 868L536 689L203 556Z" />
<glyph unicode="&#xf4;" glyph-name="ocircumflex" horiz-adv-x="627" d="M313 -8Q228 -8 163 25T62 116T25 251Q25 329 62 386T165 476T314 508Q400 508 465 476T566 386T602 251Q602 174 566 116T464 25T313 -8ZM315 142Q356 142 382 172T409 251Q409 299 383
329T317 360Q274 360 248 330T221 251Q221 203 247 173T315 142ZM98 566L221 815H406L529 566H363L325 672L313 710L303 672L264 566H98Z" />
<glyph unicode="&#xf5;" glyph-name="otilde" horiz-adv-x="627" d="M313 -8Q228 -8 163 25T62 116T25 251Q25 329 62 386T165 476T314 508Q400 508 465 476T566 386T602 251Q602 174 566 116T464 25T313 -8ZM315 142Q356 142 382 172T409 251Q409 299 383 329T317
360Q274 360 248 330T221 251Q221 203 247 173T315 142ZM179 558L71 606Q100 685 144 724T243 763Q273 763 296 751T342 727T389 715Q406 715 419 728T448 764L556 717Q528 638 483 599T384 559Q354 559 331 571T285 595T238 607Q222 607 208 594T179 558Z" />
<glyph unicode="&#xf6;" glyph-name="odieresis" horiz-adv-x="627" d="M313 -8Q228 -8 163 25T62 116T25 251Q25 329 62 386T165 476T314 508Q400 508 465 476T566 386T602 251Q602 174 566 116T464 25T313 -8ZM315 142Q356 142 382 172T409 251Q409 299 383
329T317 360Q274 360 248 330T221 251Q221 203 247 173T315 142ZM173 556Q127 556 94 585T61 656Q61 685 77 708T118 744T173 758Q204 758 229 744T270 707T286 656Q286 626 270 604T228 569T173 556ZM456 556Q406 556 375 586T343 656Q343 686 359 709T402 745T456
758Q490 758 515 743T553 704T567 656Q567 627 552 605T511 569T456 556Z" />
<glyph unicode="&#xf7;" glyph-name="divide" horiz-adv-x="600" d="M300 347Q245 347 218 369T190 429Q190 466 218 488T300 511Q353 511 382 489T411 429Q411 392 383 370T300 347ZM60 180V322H540V180H60ZM300 -10Q245 -10 218 12T190 72Q190 109 218 131T300
154Q353 154 382 132T411 72Q411 35 383 13T300 -10Z" />
<glyph unicode="&#xf8;" glyph-name="oslash" horiz-adv-x="627" d="M313 -8Q228 -8 163 25T62 116T25 251Q25 329 62 386T165 476T314 508Q400 508 465 476T566 386T602 251Q602 174 566 116T464 25T313 -8ZM315 142Q356 142 382 172T409 251Q409 299 383 329T317
360Q274 360 248 330T221 251Q221 203 247 173T315 142ZM166 -86L382 588H462L246 -86H166Z" />
<glyph unicode="&#xf9;" glyph-name="ugrave" horiz-adv-x="625" d="M315 -8Q188 -8 117 56T45 235V501H251V226Q251 186 268 167T316 148Q345 148 361 167T378 226V501H580V235Q580 120 511 56T315 -8ZM424 556L91 689L192 868L485 663L424 556Z" />
<glyph unicode="&#xfa;" glyph-name="uacute" horiz-adv-x="625" d="M315 -8Q188 -8 117 56T45 235V501H251V226Q251 186 268 167T316 148Q345 148 361 167T378 226V501H580V235Q580 120 511 56T315 -8ZM202 556L141 663L434 868L535 689L202 556Z" />
<glyph unicode="&#xfb;" glyph-name="ucircumflex" horiz-adv-x="625" d="M315 -8Q188 -8 117 56T45 235V501H251V226Q251 186 268 167T316 148Q345 148 361 167T378 226V501H580V235Q580 120 511 56T315 -8ZM97 566L220 815H405L528 566H362L324 672L312 710L302
672L263 566H97Z" />
<glyph unicode="&#xfc;" glyph-name="udieresis" horiz-adv-x="625" d="M315 -8Q188 -8 117 56T45 235V501H251V226Q251 186 268 167T316 148Q345 148 361 167T378 226V501H580V235Q580 120 511 56T315 -8ZM172 556Q126 556 93 585T60 656Q60 685 76 708T117 744T172
758Q203 758 228 744T269 707T285 656Q285 626 269 604T227 569T172 556ZM455 556Q405 556 374 586T342 656Q342 686 358 709T401 745T455 758Q489 758 514 743T552 704T566 656Q566 627 551 605T510 569T455 556Z" />
<glyph unicode="&#xfd;" glyph-name="yacute" horiz-adv-x="666" d="M313 -195Q275 -195 242 -190T190 -178L206 -33Q224 -37 245 -39T286 -42Q353 -42 382 -14T412 72V129Q388 68 344 41T240 13Q147 13 96 80T45 271V501H256V260Q256 171 319 171Q358 171 381
203T405 287V501H616V117Q616 -43 537 -119T313 -195ZM222 556L161 663L454 868L555 689L222 556Z" />
<glyph unicode="&#xfe;" glyph-name="thorn" horiz-adv-x="695" d="M261 -158L50 -189V659L261 690V396Q284 455 329 481T424 508Q494 508 549 476T637 386T670 253Q670 177 638 118T550 26T424 -8Q364 -8 324 18T261 93V-158ZM359 150Q402 150 431 179T460 250Q460
292 431 321T359 350Q318 350 289 323T260 252Q260 209 289 180T359 150Z" />
<glyph unicode="&#xff;" glyph-name="ydieresis" horiz-adv-x="666" d="M313 -195Q275 -195 242 -190T190 -178L206 -33Q224 -37 245 -39T286 -42Q353 -42 382 -14T412 72V129Q388 68 344 41T240 13Q147 13 96 80T45 271V501H256V260Q256 171 319 171Q358 171
381 203T405 287V501H616V117Q616 -43 537 -119T313 -195ZM192 556Q146 556 113 585T80 656Q80 685 96 708T137 744T192 758Q223 758 248 744T289 707T305 656Q305 626 289 604T247 569T192 556ZM475 556Q425 556 394 586T362 656Q362 686 378 709T421 745T475
758Q509 758 534 743T572 704T586 656Q586 627 571 605T530 569T475 556Z" />
<glyph unicode="&#x2013;" glyph-name="endash" horiz-adv-x="500" d="M46 173V329H454V173H46Z" />
<glyph unicode="&#x2014;" glyph-name="emdash" horiz-adv-x="800" d="M46 173V329H754V173H46Z" />
<glyph unicode="&#x2018;" glyph-name="quoteleft" horiz-adv-x="285" d="M215 698L250 610Q162 580 162 535Q202 535 228 506T255 433Q255 389 225 361T145 332Q91 332 61 369T30 472Q30 558 78 616T215 698Z" />
<glyph unicode="&#x2019;" glyph-name="quoteright" horiz-adv-x="285" d="M70 332L35 420Q123 450 123 495Q83 495 57 524T30 597Q30 641 60 669T140 698Q194 698 224 661T255 558Q255 473 207 414T70 332Z" />
<glyph unicode="&#x201a;" glyph-name="quotesinglbase" horiz-adv-x="285" d="M70 -169L35 -81Q123 -51 123 -6Q83 -6 57 23T30 96Q30 140 60 168T140 197Q194 197 224 160T255 57Q255 -28 207 -87T70 -169Z" />
<glyph unicode="&#x201c;" glyph-name="quotedblleft" horiz-adv-x="545" d="M215 698L250 610Q162 580 162 535Q202 535 228 506T255 433Q255 389 225 361T145 332Q91 332 61 369T30 472Q30 558 78 616T215 698ZM475 698L510 610Q422 580 422 535Q462 535 488
506T515 433Q515 389 485 361T405 332Q351 332 321 369T290 472Q290 558 338 616T475 698Z" />
<glyph unicode="&#x201d;" glyph-name="quotedblright" horiz-adv-x="545" d="M70 332L35 420Q123 450 123 495Q83 495 57 524T30 597Q30 641 60 669T140 698Q194 698 224 661T255 558Q255 473 207 414T70 332ZM330 332L295 420Q383 450 383 495Q343 495 317 524T290
597Q290 641 320 669T400 698Q454 698 484 661T515 558Q515 473 467 414T330 332Z" />
<glyph unicode="&#x201e;" glyph-name="quotedblbase" horiz-adv-x="545" d="M70 -169L35 -81Q123 -51 123 -6Q83 -6 57 23T30 96Q30 140 60 168T140 197Q194 197 224 160T255 57Q255 -28 207 -87T70 -169ZM330 -169L295 -81Q383 -51 383 -6Q343 -6 317 23T290
96Q290 140 320 168T400 197Q454 197 484 160T515 57Q515 -28 467 -87T330 -169Z" />
<glyph unicode="&#x2022;" glyph-name="bullet" horiz-adv-x="506" d="M252 56Q189 56 140 82T62 153T33 259Q33 317 61 362T138 435T253 462Q317 462 366 436T444 365T473 259Q473 195 443 150T362 80T252 56Z" />
<glyph unicode="&#x2039;" glyph-name="guilsinglleft" horiz-adv-x="282" d="M236 13L26 166V346L236 495V313L139 256L236 195V13Z" />
<glyph unicode="&#x203a;" glyph-name="guilsinglright" horiz-adv-x="282" d="M46 13V195L142 256L46 313V495L256 346V166L46 13Z" />
</font>
</defs>
</svg>
