<?xml version="1.0" standalone="no"?>
<!DOCTYPE svg PUBLIC "-//W3C//DTD SVG 1.1//EN" "http://www.w3.org/Graphics/SVG/1.1/DTD/svg11.dtd">
<svg xmlns="http://www.w3.org/2000/svg">
<defs >
<font id="Micro5" horiz-adv-x="585" ><font-face
    font-family="Micro 5"
    units-per-em="1650"
    panose-1="0 0 0 0 0 0 0 0 0 0"
    ascent="1190"
    descent="-460"
    alphabetic="0" />
<glyph unicode=" " glyph-name="space" horiz-adv-x="450" />
<glyph unicode="!" glyph-name="exclam" horiz-adv-x="300" d="M0 150H150V0H0V150ZM0 750H150V600H0V750ZM0 600H150V450H0V600ZM0 450H150V300H0V450Z" />
<glyph unicode="&quot;" glyph-name="quotedbl" horiz-adv-x="600" d="M0 750H150V600H0V750ZM0 600H150V450H0V600ZM300 750H450V600H300V750ZM300 600H450V450H300V600Z" />
<glyph unicode="#" glyph-name="numbersign" horiz-adv-x="900" d="M600 600H750V450H600V600ZM0 600H150V450H0V600ZM300 600H450V450H300V600ZM600 300H750V150H600V300ZM600 750H750V600H600V750ZM300 750H450V600H300V750ZM0 150H150V0H0V150ZM300 150H450V0H300V150ZM450
300H600V150H450V300ZM150 300H300V150H150V300ZM150 600H300V450H150V600ZM450 600H600V450H450V600ZM0 300H150V150H0V300ZM300 300H450V150H300V300ZM150 450H300V300H150V450ZM450 450H600V300H450V450Z" />
<glyph unicode="$" glyph-name="dollar" horiz-adv-x="750" d="M450 750H600V600H450V750ZM150 750H300V600H150V750ZM0 600H150V450H0V600ZM0 450H150V300H0V450ZM150 450H300V300H150V450ZM450 450H600V300H450V450ZM450 300H600V150H450V300ZM450 150H600V0H450V150ZM150
150H300V0H150V150ZM0 150H150V0H0V150ZM0 750H150V600H0V750ZM300 750H450V600H300V750ZM300 450H450V300H300V450ZM300 150H450V0H300V150ZM150 300H300V150H150V300ZM300 600H450V450H300V600ZM150 0H300V-150H150V0ZM300 900H450V750H300V900Z" />
<glyph unicode="%" glyph-name="percent" horiz-adv-x="900" d="M0 150H150V0H0V150ZM150 300H300V150H150V300ZM300 450H450V300H300V450ZM450 600H600V450H450V600ZM600 750H750V600H600V750ZM0 750H150V600H0V750ZM600 150H750V0H600V150Z" />
<glyph unicode="&amp;" glyph-name="ampersand" horiz-adv-x="900" d="M150 150H300V0H150V150ZM300 150H450V0H300V150ZM450 150H600V0H450V150ZM450 750H600V600H450V750ZM300 750H450V600H300V750ZM150 750H300V600H150V750ZM150 450H300V300H150V450ZM300
450H450V300H300V450ZM0 600H150V450H0V600ZM0 300H150V150H0V300ZM300 900H450V750H300V900ZM300 600H450V450H300V600ZM300 300H450V150H300V300ZM450 450H600V300H450V450ZM300 0H450V-150H300V0ZM600 150H750V0H600V150ZM600 750H750V600H600V750Z" />
<glyph unicode="&apos;" glyph-name="quotesingle" horiz-adv-x="300" d="M0 750H150V600H0V750ZM0 600H150V450H0V600Z" />
<glyph unicode="(" glyph-name="parenleft" horiz-adv-x="450" d="M150 750H300V600H150V750ZM0 600H150V450H0V600ZM0 450H150V300H0V450ZM0 300H150V150H0V300ZM0 150H150V0H0V150ZM150 0H300V-150H150V0Z" />
<glyph unicode=")" glyph-name="parenright" horiz-adv-x="450" d="M0 750H150V600H0V750ZM150 600H300V450H150V600ZM150 150H300V0H150V150ZM0 0H150V-150H0V0ZM150 450H300V300H150V450ZM150 300H300V150H150V300Z" />
<glyph unicode="*" glyph-name="asterisk" horiz-adv-x="600" d="M0 750H150V600H0V750ZM300 750H450V600H300V750ZM150 600H300V450H150V600ZM0 450H150V300H0V450ZM300 450H450V300H300V450Z" />
<glyph unicode="+" glyph-name="plus" horiz-adv-x="600" d="M150 600H300V450H150V600ZM150 450H300V300H150V450ZM150 300H300V150H150V300ZM0 450H150V300H0V450ZM300 450H450V300H300V450Z" />
<glyph unicode="," glyph-name="comma" horiz-adv-x="300" d="M0 150H150V0H0V150ZM0 0H150V-150H0V0Z" />
<glyph unicode="-" glyph-name="hyphen" horiz-adv-x="600" d="M0 450H150V300H0V450ZM150 450H300V300H150V450ZM300 450H450V300H300V450Z" />
<glyph unicode="." glyph-name="period" horiz-adv-x="300" d="M0 150H150V0H0V150Z" />
<glyph unicode="/" glyph-name="slash" horiz-adv-x="600" d="M300 750H450V600H300V750ZM300 600H450V450H300V600ZM150 450H300V300H150V450ZM150 300H300V150H150V300ZM0 150H150V0H0V150ZM0 0H150V-150H0V0Z" />
<glyph unicode="0" glyph-name="zero" horiz-adv-x="600" d="M150 750H300V600H150V750ZM300 600H450V450H300V600ZM300 450H450V300H300V450ZM300 300H450V150H300V300ZM150 150H300V0H150V150ZM0 300H150V150H0V300ZM0 450H150V300H0V450ZM0 600H150V450H0V600ZM0
750H150V600H0V750ZM300 750H450V600H300V750ZM300 150H450V0H300V150ZM0 150H150V0H0V150Z" />
<glyph unicode="1" glyph-name="one" horiz-adv-x="450" d="M0 750H150V600H0V750ZM150 750H300V600H150V750ZM150 600H300V450H150V600ZM150 450H300V300H150V450ZM150 300H300V150H150V300ZM150 150H300V0H150V150Z" />
<glyph unicode="2" glyph-name="two" horiz-adv-x="600" d="M0 750H150V600H0V750ZM150 750H300V600H150V750ZM300 750H450V600H300V750ZM300 600H450V450H300V600ZM300 450H450V300H300V450ZM150 450H300V300H150V450ZM0 450H150V300H0V450ZM0 300H150V150H0V300ZM150
150H300V0H150V150ZM0 150H150V0H0V150ZM300 150H450V0H300V150Z" />
<glyph unicode="3" glyph-name="three" horiz-adv-x="600" d="M0 750H150V600H0V750ZM150 750H300V600H150V750ZM300 600H450V450H300V600ZM300 300H450V150H300V300ZM150 150H300V0H150V150ZM0 150H150V0H0V150ZM150 450H300V300H150V450ZM300 750H450V600H300V750ZM300
150H450V0H300V150ZM300 450H450V300H300V450Z" />
<glyph unicode="4" glyph-name="four" horiz-adv-x="600" d="M0 750H150V600H0V750ZM0 600H150V450H0V600ZM0 450H150V300H0V450ZM150 450H300V300H150V450ZM300 750H450V600H300V750ZM300 600H450V450H300V600ZM300 450H450V300H300V450ZM300 300H450V150H300V300ZM300
150H450V0H300V150Z" />
<glyph unicode="5" glyph-name="five" horiz-adv-x="600" d="M300 750H450V600H300V750ZM150 750H300V600H150V750ZM0 750H150V600H0V750ZM0 600H150V450H0V600ZM0 450H150V300H0V450ZM150 450H300V300H150V450ZM300 300H450V150H300V300ZM300 450H450V300H300V450ZM300
150H450V0H300V150ZM150 150H300V0H150V150ZM0 150H150V0H0V150Z" />
<glyph unicode="6" glyph-name="six" horiz-adv-x="600" d="M300 750H450V600H300V750ZM150 750H300V600H150V750ZM0 750H150V600H0V750ZM0 600H150V450H0V600ZM0 450H150V300H0V450ZM0 300H150V150H0V300ZM0 150H150V0H0V150ZM150 150H300V0H150V150ZM300 150H450V0H300V150ZM300
300H450V150H300V300ZM300 450H450V300H300V450ZM150 450H300V300H150V450Z" />
<glyph unicode="7" glyph-name="seven" horiz-adv-x="600" d="M0 750H150V600H0V750ZM150 750H300V600H150V750ZM300 750H450V600H300V750ZM300 600H450V450H300V600ZM150 300H300V150H150V300ZM150 150H300V0H150V150ZM300 450H450V300H300V450Z" />
<glyph unicode="8" glyph-name="eight" horiz-adv-x="600" d="M300 750H450V600H300V750ZM150 750H300V600H150V750ZM0 750H150V600H0V750ZM0 600H150V450H0V600ZM0 300H150V150H0V300ZM0 150H150V0H0V150ZM150 150H300V0H150V150ZM300 150H450V0H300V150ZM300
300H450V150H300V300ZM300 600H450V450H300V600ZM150 450H300V300H150V450ZM0 450H150V300H0V450ZM300 450H450V300H300V450Z" />
<glyph unicode="9" glyph-name="nine" horiz-adv-x="600" d="M0 750H150V600H0V750ZM150 750H300V600H150V750ZM300 750H450V600H300V750ZM300 600H450V450H300V600ZM300 450H450V300H300V450ZM300 300H450V150H300V300ZM300 150H450V0H300V150ZM150 150H300V0H150V150ZM0
150H150V0H0V150ZM0 600H150V450H0V600ZM0 450H150V300H0V450ZM150 450H300V300H150V450Z" />
<glyph unicode=":" glyph-name="colon" horiz-adv-x="300" d="M0 150H150V0H0V150ZM0 600H150V450H0V600Z" />
<glyph unicode=";" glyph-name="semicolon" horiz-adv-x="300" d="M0 600H150V450H0V600ZM0 150H150V0H0V150ZM0 0H150V-150H0V0Z" />
<glyph unicode="&lt;" glyph-name="less" horiz-adv-x="600" d="M300 600H450V450H300V600ZM150 600H300V450H150V600ZM0 450H150V300H0V450ZM150 300H300V150H150V300ZM300 300H450V150H300V300Z" />
<glyph unicode="=" glyph-name="equal" horiz-adv-x="600" d="M0 600H150V450H0V600ZM150 600H300V450H150V600ZM300 600H450V450H300V600ZM0 300H150V150H0V300ZM150 300H300V150H150V300ZM300 300H450V150H300V300Z" />
<glyph unicode="&gt;" glyph-name="greater" horiz-adv-x="600" d="M150 600H300V450H150V600ZM300 450H450V300H300V450ZM150 300H300V150H150V300ZM0 300H150V150H0V300ZM0 600H150V450H0V600Z" />
<glyph unicode="?" glyph-name="question" horiz-adv-x="600" d="M0 750H150V600H0V750ZM150 750H300V600H150V750ZM300 750H450V600H300V750ZM300 600H450V450H300V600ZM150 450H300V300H150V450ZM150 150H300V0H150V150Z" />
<glyph unicode="@" glyph-name="at" horiz-adv-x="1050" d="M450 0H600V-150H450V0ZM300 0H450V-150H300V0ZM150 0H300V-150H150V0ZM0 0H150V-150H0V0ZM0 150H150V0H0V150ZM0 300H150V150H0V300ZM0 450H150V300H0V450ZM0 600H150V450H0V600ZM0 750H150V600H0V750ZM0
900H150V750H0V900ZM150 900H300V750H150V900ZM300 900H450V750H300V900ZM450 900H600V750H450V900ZM600 900H750V750H600V900ZM750 900H900V750H750V900ZM300 450H450V300H300V450ZM300 600H450V450H300V600ZM300 300H450V150H300V300ZM450 300H600V150H450V300ZM600
300H750V150H600V300ZM450 600H600V450H450V600ZM600 600H750V450H600V600ZM600 450H750V300H600V450ZM750 300H900V150H750V300ZM750 750H900V600H750V750Z" />
<glyph unicode="A" glyph-name="A" horiz-adv-x="600" d="M0 150H150V0H0V150ZM0 300H150V150H0V300ZM0 450H150V300H0V450ZM0 600H150V450H0V600ZM150 750H300V600H150V750ZM300 600H450V450H300V600ZM300 450H450V300H300V450ZM300 300H450V150H300V300ZM300
150H450V0H300V150ZM150 450H300V300H150V450Z" />
<glyph unicode="B" glyph-name="B" horiz-adv-x="600" d="M0 750H150V600H0V750ZM0 600H150V450H0V600ZM0 450H150V300H0V450ZM0 300H150V150H0V300ZM0 150H150V0H0V150ZM150 750H300V600H150V750ZM300 750H450V600H300V750ZM300 600H450V450H300V600ZM300 300H450V150H300V300ZM300
150H450V0H300V150ZM150 150H300V0H150V150ZM150 450H300V300H150V450Z" />
<glyph unicode="C" glyph-name="C" horiz-adv-x="450" d="M150 750H300V600H150V750ZM0 750H150V600H0V750ZM0 600H150V450H0V600ZM0 450H150V300H0V450ZM0 300H150V150H0V300ZM0 150H150V0H0V150ZM150 150H300V0H150V150Z" />
<glyph unicode="D" glyph-name="D" horiz-adv-x="600" d="M0 750H150V600H0V750ZM0 600H150V450H0V600ZM0 450H150V300H0V450ZM0 300H150V150H0V300ZM0 150H150V0H0V150ZM150 750H300V600H150V750ZM300 600H450V450H300V600ZM300 450H450V300H300V450ZM300 300H450V150H300V300ZM150
150H300V0H150V150Z" />
<glyph unicode="E" glyph-name="E" horiz-adv-x="600" d="M0 750H150V600H0V750ZM0 600H150V450H0V600ZM0 450H150V300H0V450ZM0 300H150V150H0V300ZM0 150H150V0H0V150ZM150 750H300V600H150V750ZM150 150H300V0H150V150ZM150 450H300V300H150V450ZM300 750H450V600H300V750ZM300
150H450V0H300V150Z" />
<glyph unicode="F" glyph-name="F" horiz-adv-x="600" d="M0 150H150V0H0V150ZM0 300H150V150H0V300ZM0 450H150V300H0V450ZM0 600H150V450H0V600ZM0 750H150V600H0V750ZM150 750H300V600H150V750ZM150 450H300V300H150V450ZM300 750H450V600H300V750Z" />
<glyph unicode="G" glyph-name="G" horiz-adv-x="600" d="M300 750H450V600H300V750ZM150 750H300V600H150V750ZM0 750H150V600H0V750ZM0 600H150V450H0V600ZM0 450H150V300H0V450ZM0 300H150V150H0V300ZM0 150H150V0H0V150ZM150 150H300V0H150V150ZM300 300H450V150H300V300ZM300
450H450V300H300V450Z" />
<glyph unicode="H" glyph-name="H" horiz-adv-x="600" d="M0 150H150V0H0V150ZM0 300H150V150H0V300ZM0 450H150V300H0V450ZM0 600H150V450H0V600ZM0 750H150V600H0V750ZM150 450H300V300H150V450ZM300 750H450V600H300V750ZM300 600H450V450H300V600ZM300 450H450V300H300V450ZM300
300H450V150H300V300ZM300 150H450V0H300V150Z" />
<glyph unicode="I" glyph-name="I" horiz-adv-x="300" d="M0 750H150V600H0V750ZM0 600H150V450H0V600ZM0 450H150V300H0V450ZM0 300H150V150H0V300ZM0 150H150V0H0V150Z" />
<glyph unicode="J" glyph-name="J" horiz-adv-x="450" d="M150 750H300V600H150V750ZM150 600H300V450H150V600ZM150 450H300V300H150V450ZM150 300H300V150H150V300ZM0 150H150V0H0V150Z" />
<glyph unicode="K" glyph-name="K" horiz-adv-x="600" d="M0 750H150V600H0V750ZM0 600H150V450H0V600ZM0 450H150V300H0V450ZM0 300H150V150H0V300ZM0 150H150V0H0V150ZM300 750H450V600H300V750ZM300 600H450V450H300V600ZM150 450H300V300H150V450ZM300 300H450V150H300V300ZM300
150H450V0H300V150Z" />
<glyph unicode="L" glyph-name="L" horiz-adv-x="450" d="M0 750H150V600H0V750ZM0 600H150V450H0V600ZM0 450H150V300H0V450ZM0 300H150V150H0V300ZM0 150H150V0H0V150ZM150 150H300V0H150V150Z" />
<glyph unicode="M" glyph-name="M" horiz-adv-x="900" d="M0 150H150V0H0V150ZM0 300H150V150H0V300ZM0 450H150V300H0V450ZM0 600H150V450H0V600ZM300 150H450V0H300V150ZM300 300H450V150H300V300ZM300 450H450V300H300V450ZM300 600H450V450H300V600ZM600 150H750V0H600V150ZM600
300H750V150H600V300ZM600 450H750V300H600V450ZM600 600H750V450H600V600ZM450 750H600V600H450V750ZM150 750H300V600H150V750ZM0 750H150V600H0V750Z" />
<glyph unicode="N" glyph-name="N" horiz-adv-x="600" d="M0 150H150V0H0V150ZM0 300H150V150H0V300ZM0 450H150V300H0V450ZM0 600H150V450H0V600ZM150 750H300V600H150V750ZM300 600H450V450H300V600ZM300 450H450V300H300V450ZM300 300H450V150H300V300ZM300
150H450V0H300V150ZM0 750H150V600H0V750Z" />
<glyph unicode="O" glyph-name="O" horiz-adv-x="600" d="M0 750H150V600H0V750ZM150 750H300V600H150V750ZM300 750H450V600H300V750ZM300 600H450V450H300V600ZM300 450H450V300H300V450ZM300 300H450V150H300V300ZM300 150H450V0H300V150ZM150 150H300V0H150V150ZM0
150H150V0H0V150ZM0 300H150V150H0V300ZM0 450H150V300H0V450ZM0 600H150V450H0V600Z" />
<glyph unicode="P" glyph-name="P" horiz-adv-x="600" d="M0 750H150V600H0V750ZM0 600H150V450H0V600ZM0 450H150V300H0V450ZM0 300H150V150H0V300ZM0 150H150V0H0V150ZM150 750H300V600H150V750ZM300 750H450V600H300V750ZM300 600H450V450H300V600ZM300 450H450V300H300V450ZM150
450H300V300H150V450Z" />
<glyph unicode="Q" glyph-name="Q" horiz-adv-x="600" d="M0 600H150V450H0V600ZM0 750H150V600H0V750ZM150 750H300V600H150V750ZM300 750H450V600H300V750ZM300 600H450V450H300V600ZM300 450H450V300H300V450ZM300 300H450V150H300V300ZM300 150H450V0H300V150ZM0
150H150V0H0V150ZM0 300H150V150H0V300ZM0 450H150V300H0V450ZM150 0H300V-150H150V0Z" />
<glyph unicode="R" glyph-name="R" horiz-adv-x="600" d="M0 150H150V0H0V150ZM0 300H150V150H0V300ZM0 450H150V300H0V450ZM0 600H150V450H0V600ZM0 750H150V600H0V750ZM150 750H300V600H150V750ZM300 750H450V600H300V750ZM300 600H450V450H300V600ZM150 450H300V300H150V450ZM300
300H450V150H300V300ZM300 150H450V0H300V150Z" />
<glyph unicode="S" glyph-name="S" horiz-adv-x="600" d="M300 750H450V600H300V750ZM150 750H300V600H150V750ZM0 600H150V450H0V600ZM0 450H150V300H0V450ZM150 450H300V300H150V450ZM300 450H450V300H300V450ZM300 300H450V150H300V300ZM300 150H450V0H300V150ZM150
150H300V0H150V150ZM0 150H150V0H0V150ZM0 750H150V600H0V750Z" />
<glyph unicode="T" glyph-name="T" horiz-adv-x="600" d="M0 750H150V600H0V750ZM150 750H300V600H150V750ZM300 750H450V600H300V750ZM150 600H300V450H150V600ZM150 450H300V300H150V450ZM150 300H300V150H150V300ZM150 150H300V0H150V150Z" />
<glyph unicode="U" glyph-name="U" horiz-adv-x="600" d="M0 750H150V600H0V750ZM0 600H150V450H0V600ZM0 450H150V300H0V450ZM0 300H150V150H0V300ZM0 150H150V0H0V150ZM150 150H300V0H150V150ZM300 150H450V0H300V150ZM300 300H450V150H300V300ZM300 450H450V300H300V450ZM300
600H450V450H300V600ZM300 750H450V600H300V750Z" />
<glyph unicode="V" glyph-name="V" horiz-adv-x="600" d="M0 750H150V600H0V750ZM0 600H150V450H0V600ZM0 450H150V300H0V450ZM0 300H150V150H0V300ZM150 150H300V0H150V150ZM300 300H450V150H300V300ZM300 450H450V300H300V450ZM300 600H450V450H300V600ZM300
750H450V600H300V750Z" />
<glyph unicode="W" glyph-name="W" horiz-adv-x="900" d="M0 750H150V600H0V750ZM0 600H150V450H0V600ZM0 450H150V300H0V450ZM0 300H150V150H0V300ZM150 150H300V0H150V150ZM300 300H450V150H300V300ZM300 450H450V300H300V450ZM300 600H450V450H300V600ZM300
750H450V600H300V750ZM450 150H600V0H450V150ZM600 300H750V150H600V300ZM600 450H750V300H600V450ZM600 600H750V450H600V600ZM600 750H750V600H600V750Z" />
<glyph unicode="X" glyph-name="X" horiz-adv-x="600" d="M0 750H150V600H0V750ZM0 600H150V450H0V600ZM300 750H450V600H300V750ZM300 600H450V450H300V600ZM150 450H300V300H150V450ZM0 300H150V150H0V300ZM0 150H150V0H0V150ZM300 300H450V150H300V300ZM300
150H450V0H300V150Z" />
<glyph unicode="Y" glyph-name="Y" horiz-adv-x="600" d="M0 750H150V600H0V750ZM0 600H150V450H0V600ZM0 450H150V300H0V450ZM150 300H300V150H150V300ZM150 150H300V0H150V150ZM300 750H450V600H300V750ZM300 600H450V450H300V600ZM300 450H450V300H300V450Z" />
<glyph unicode="Z" glyph-name="Z" horiz-adv-x="600" d="M0 750H150V600H0V750ZM150 750H300V600H150V750ZM300 750H450V600H300V750ZM300 600H450V450H300V600ZM300 150H450V0H300V150ZM150 150H300V0H150V150ZM0 150H150V0H0V150ZM0 300H150V150H0V300ZM150
450H300V300H150V450Z" />
<glyph unicode="[" glyph-name="bracketleft" horiz-adv-x="450" d="M150 750H300V600H150V750ZM0 750H150V600H0V750ZM0 600H150V450H0V600ZM0 450H150V300H0V450ZM0 300H150V150H0V300ZM0 150H150V0H0V150ZM0 0H150V-150H0V0ZM150 0H300V-150H150V0Z" />
<glyph unicode="\" glyph-name="backslash" horiz-adv-x="600" d="M0 750H150V600H0V750ZM150 450H300V300H150V450ZM0 600H150V450H0V600ZM150 300H300V150H150V300ZM300 150H450V0H300V150ZM300 0H450V-150H300V0Z" />
<glyph unicode="]" glyph-name="bracketright" horiz-adv-x="450" d="M0 750H150V600H0V750ZM150 750H300V600H150V750ZM150 600H300V450H150V600ZM150 450H300V300H150V450ZM150 300H300V150H150V300ZM150 150H300V0H150V150ZM150 0H300V-150H150V0ZM0 0H150V-150H0V0Z" />
<glyph unicode="^" glyph-name="asciicircum" horiz-adv-x="600" d="M0 600H150V450H0V600ZM150 750H300V600H150V750ZM300 600H450V450H300V600Z" />
<glyph unicode="_" glyph-name="underscore" horiz-adv-x="750" d="M0 0H150V-150H0V0ZM150 0H300V-150H150V0ZM300 0H450V-150H300V0ZM450 0H600V-150H450V0Z" />
<glyph unicode="`" glyph-name="grave" horiz-adv-x="300" d="M0 1050H150V900H0V1050ZM150 900H300V750H150V900Z" />
<glyph unicode="a" glyph-name="a" horiz-adv-x="600" d="M300 600H450V450H300V600ZM300 450H450V300H300V450ZM300 300H450V150H300V300ZM300 150H450V0H300V150ZM150 600H300V450H150V600ZM150 150H300V0H150V150ZM0 450H150V300H0V450ZM0 300H150V150H0V300Z" />
<glyph unicode="b" glyph-name="b" horiz-adv-x="600" d="M0 750H150V600H0V750ZM0 600H150V450H0V600ZM0 450H150V300H0V450ZM0 300H150V150H0V300ZM0 150H150V0H0V150ZM150 600H300V450H150V600ZM300 450H450V300H300V450ZM300 300H450V150H300V300ZM150 150H300V0H150V150Z"
/>
<glyph unicode="c" glyph-name="c" horiz-adv-x="600" d="M150 600H300V450H150V600ZM0 450H150V300H0V450ZM0 300H150V150H0V300ZM150 150H300V0H150V150ZM300 600H450V450H300V600ZM300 150H450V0H300V150Z" />
<glyph unicode="d" glyph-name="d" horiz-adv-x="600" d="M300 750H450V600H300V750ZM300 600H450V450H300V600ZM300 450H450V300H300V450ZM300 300H450V150H300V300ZM300 150H450V0H300V150ZM150 600H300V450H150V600ZM0 450H150V300H0V450ZM0 300H150V150H0V300ZM150
150H300V0H150V150Z" />
<glyph unicode="e" glyph-name="e" horiz-adv-x="600" d="M150 600H300V450H150V600ZM300 450H450V300H300V450ZM0 450H150V300H0V450ZM300 300H450V150H300V300ZM150 300H300V150H150V300ZM0 300H150V150H0V300ZM0 150H150V0H0V150ZM150 0H300V-150H150V0Z" />
<glyph unicode="f" glyph-name="f" horiz-adv-x="450" d="M0 600H150V450H0V600ZM0 450H150V300H0V450ZM0 300H150V150H0V300ZM0 150H150V0H0V150ZM150 750H300V600H150V750ZM150 450H300V300H150V450Z" />
<glyph unicode="g" glyph-name="g" horiz-adv-x="600" d="M300 600H450V450H300V600ZM300 450H450V300H300V450ZM300 300H450V150H300V300ZM300 150H450V0H300V150ZM300 0H450V-150H300V0ZM150 0H300V-150H150V0ZM0 0H150V-150H0V0ZM150 600H300V450H150V600ZM0
450H150V300H0V450ZM0 300H150V150H0V300Z" />
<glyph unicode="h" glyph-name="h" horiz-adv-x="600" d="M0 750H150V600H0V750ZM0 600H150V450H0V600ZM0 450H150V300H0V450ZM0 300H150V150H0V300ZM0 150H150V0H0V150ZM150 600H300V450H150V600ZM300 450H450V300H300V450ZM300 300H450V150H300V300ZM300 150H450V0H300V150Z"
/>
<glyph unicode="i" glyph-name="i" horiz-adv-x="300" d="M0 150H150V0H0V150ZM0 300H150V150H0V300ZM0 450H150V300H0V450ZM0 750H150V600H0V750Z" />
<glyph unicode="j" glyph-name="j" horiz-adv-x="300" d="M-150 0H0V-150H-150V0ZM0 150H150V0H0V150ZM0 300H150V150H0V300ZM0 450H150V300H0V450ZM0 750H150V600H0V750Z" />
<glyph unicode="k" glyph-name="k" horiz-adv-x="600" d="M0 750H150V600H0V750ZM0 600H150V450H0V600ZM0 450H150V300H0V450ZM0 300H150V150H0V300ZM0 150H150V0H0V150ZM150 450H300V300H150V450ZM300 600H450V450H300V600ZM300 300H450V150H300V300ZM300 150H450V0H300V150Z"
/>
<glyph unicode="l" glyph-name="l" horiz-adv-x="300" d="M0 750H150V600H0V750ZM0 600H150V450H0V600ZM0 450H150V300H0V450ZM0 300H150V150H0V300ZM0 150H150V0H0V150Z" />
<glyph unicode="m" glyph-name="m" horiz-adv-x="900" d="M0 150H150V0H0V150ZM0 300H150V150H0V300ZM0 450H150V300H0V450ZM0 600H150V450H0V600ZM150 600H300V450H150V600ZM300 450H450V300H300V450ZM300 300H450V150H300V300ZM300 150H450V0H300V150ZM450 600H600V450H450V600ZM600
450H750V300H600V450ZM600 300H750V150H600V300ZM600 150H750V0H600V150Z" />
<glyph unicode="n" glyph-name="n" horiz-adv-x="600" d="M0 150H150V0H0V150ZM0 300H150V150H0V300ZM0 450H150V300H0V450ZM0 600H150V450H0V600ZM150 600H300V450H150V600ZM300 450H450V300H300V450ZM300 300H450V150H300V300ZM300 150H450V0H300V150Z" />
<glyph unicode="o" glyph-name="o" horiz-adv-x="600" d="M0 450H150V300H0V450ZM0 300H150V150H0V300ZM150 150H300V0H150V150ZM300 300H450V150H300V300ZM300 450H450V300H300V450ZM150 600H300V450H150V600Z" />
<glyph unicode="p" glyph-name="p" horiz-adv-x="600" d="M0 600H150V450H0V600ZM0 450H150V300H0V450ZM0 300H150V150H0V300ZM0 150H150V0H0V150ZM0 0H150V-150H0V0ZM150 600H300V450H150V600ZM300 450H450V300H300V450ZM300 300H450V150H300V300ZM150 150H300V0H150V150Z"
/>
<glyph unicode="q" glyph-name="q" horiz-adv-x="600" d="M300 600H450V450H300V600ZM300 450H450V300H300V450ZM300 300H450V150H300V300ZM300 150H450V0H300V150ZM300 0H450V-150H300V0ZM150 600H300V450H150V600ZM0 450H150V300H0V450ZM0 300H150V150H0V300ZM150
150H300V0H150V150Z" />
<glyph unicode="r" glyph-name="r" horiz-adv-x="450" d="M0 600H150V450H0V600ZM0 450H150V300H0V450ZM0 300H150V150H0V300ZM0 150H150V0H0V150ZM150 600H300V450H150V600Z" />
<glyph unicode="s" glyph-name="s" horiz-adv-x="600" d="M300 600H450V450H300V600ZM150 600H300V450H150V600ZM0 450H150V300H0V450ZM300 300H450V150H300V300ZM300 150H450V0H300V150ZM0 150H150V0H0V150ZM0 600H150V450H0V600ZM150 150H300V0H150V150Z" />
<glyph unicode="t" glyph-name="t" horiz-adv-x="450" d="M0 750H150V600H0V750ZM0 600H150V450H0V600ZM0 450H150V300H0V450ZM0 300H150V150H0V300ZM0 150H150V0H0V150ZM150 150H300V0H150V150ZM150 600H300V450H150V600Z" />
<glyph unicode="u" glyph-name="u" horiz-adv-x="600" d="M0 600H150V450H0V600ZM0 450H150V300H0V450ZM0 300H150V150H0V300ZM150 150H300V0H150V150ZM300 150H450V0H300V150ZM300 300H450V150H300V300ZM300 450H450V300H300V450ZM300 600H450V450H300V600Z" />
<glyph unicode="v" glyph-name="v" horiz-adv-x="600" d="M0 600H150V450H0V600ZM0 450H150V300H0V450ZM0 300H150V150H0V300ZM150 150H300V0H150V150ZM300 600H450V450H300V600ZM300 450H450V300H300V450ZM300 300H450V150H300V300Z" />
<glyph unicode="w" glyph-name="w" horiz-adv-x="900" d="M0 600H150V450H0V600ZM0 450H150V300H0V450ZM0 300H150V150H0V300ZM150 150H300V0H150V150ZM300 300H450V150H300V300ZM300 450H450V300H300V450ZM300 600H450V450H300V600ZM450 150H600V0H450V150ZM600
300H750V150H600V300ZM600 450H750V300H600V450ZM600 600H750V450H600V600Z" />
<glyph unicode="x" glyph-name="x" horiz-adv-x="600" d="M0 600H150V450H0V600ZM300 600H450V450H300V600ZM0 150H150V0H0V150ZM300 150H450V0H300V150ZM150 300H300V150H150V300ZM150 450H300V300H150V450Z" />
<glyph unicode="y" glyph-name="y" horiz-adv-x="600" d="M0 600H150V450H0V600ZM0 450H150V300H0V450ZM0 300H150V150H0V300ZM300 600H450V450H300V600ZM300 450H450V300H300V450ZM300 300H450V150H300V300ZM150 150H300V0H150V150ZM0 0H150V-150H0V0Z" />
<glyph unicode="z" glyph-name="z" horiz-adv-x="750" d="M0 600H150V450H0V600ZM150 600H300V450H150V600ZM450 600H600V450H450V600ZM300 450H450V300H300V450ZM150 300H300V150H150V300ZM0 150H150V0H0V150ZM300 150H450V0H300V150ZM450 150H600V0H450V150Z" />
<glyph unicode="{" glyph-name="braceleft" horiz-adv-x="600" d="M300 750H450V600H300V750ZM150 750H300V600H150V750ZM150 600H300V450H150V600ZM0 450H150V300H0V450ZM0 300H150V150H0V300ZM150 150H300V0H150V150ZM150 0H300V-150H150V0ZM300 0H450V-150H300V0Z" />
<glyph unicode="|" glyph-name="bar" horiz-adv-x="300" d="M0 750H150V600H0V750ZM0 600H150V450H0V600ZM0 450H150V300H0V450ZM0 300H150V150H0V300ZM0 150H150V0H0V150ZM0 0H150V-150H0V0Z" />
<glyph unicode="}" glyph-name="braceright" horiz-adv-x="600" d="M0 750H150V600H0V750ZM150 600H300V450H150V600ZM300 450H450V300H300V450ZM150 150H300V0H150V150ZM0 0H150V-150H0V0ZM300 300H450V150H300V300ZM150 0H300V-150H150V0ZM150 750H300V600H150V750Z" />
<glyph unicode="~" glyph-name="asciitilde" horiz-adv-x="750" d="M0 450H150V300H0V450ZM150 600H300V450H150V600ZM300 450H450V300H300V450ZM450 600H600V450H450V600ZM0 600H150V450H0V600ZM450 450H600V300H450V450Z" />
<glyph unicode="&#xa0;" glyph-name="uni00A0" horiz-adv-x="450" />
<glyph unicode="&#xa1;" glyph-name="exclamdown" horiz-adv-x="300" d="M0 150H150V0H0V150ZM0 300H150V150H0V300ZM0 450H150V300H0V450ZM0 750H150V600H0V750Z" />
<glyph unicode="&#xa2;" glyph-name="cent" horiz-adv-x="750" d="M0 450H150V300H0V450ZM0 300H150V150H0V300ZM150 150H300V0H150V150ZM300 150H450V0H300V150ZM150 600H300V450H150V600ZM300 600H450V450H300V600ZM300 750H450V600H300V750ZM300 450H450V300H300V450ZM300
300H450V150H300V300ZM300 0H450V-150H300V0ZM450 150H600V0H450V150ZM450 600H600V450H450V600Z" />
<glyph unicode="&#xa3;" glyph-name="sterling" horiz-adv-x="750" d="M150 450H300V300H150V450ZM150 300H300V150H150V300ZM150 150H300V0H150V150ZM450 150H600V0H450V150ZM300 450H450V300H300V450ZM0 450H150V300H0V450ZM150 600H300V450H150V600ZM0 150H150V0H0V150ZM300
150H450V0H300V150ZM300 750H450V600H300V750Z" />
<glyph unicode="&#xa5;" glyph-name="yen" horiz-adv-x="600" d="M150 150H300V0H150V150ZM150 300H300V150H150V300ZM150 450H300V300H150V450ZM0 300H150V150H0V300ZM300 300H450V150H300V300ZM0 750H150V600H0V750ZM300 750H450V600H300V750ZM0 600H150V450H0V600ZM300
600H450V450H300V600Z" />
<glyph unicode="&#xa7;" glyph-name="section" horiz-adv-x="750" d="M150 0H300V-150H150V0ZM300 0H450V-150H300V0ZM450 150H600V0H450V150ZM300 900H450V750H300V900ZM150 900H300V750H150V900ZM0 750H150V600H0V750ZM150 600H300V450H150V600ZM300 600H450V450H300V600ZM450
450H600V300H450V450ZM150 300H300V150H150V300ZM300 300H450V150H300V300ZM0 450H150V300H0V450Z" />
<glyph unicode="&#xa8;" glyph-name="dieresis" horiz-adv-x="450" d="M0 900H150V750H0V900ZM300 900H450V750H300V900Z" />
<glyph unicode="&#xa9;" glyph-name="copyright" horiz-adv-x="1200" d="M450 0H600V-150H450V0ZM300 0H450V-150H300V0ZM150 0H300V-150H150V0ZM0 150H150V0H0V150ZM0 300H150V150H0V300ZM0 450H150V300H0V450ZM0 600H150V450H0V600ZM0 750H150V600H0V750ZM150
900H300V750H150V900ZM300 900H450V750H300V900ZM450 900H600V750H450V900ZM600 900H750V750H600V900ZM750 900H900V750H750V900ZM300 450H450V300H300V450ZM450 300H600V150H450V300ZM450 600H600V450H450V600ZM750 0H900V-150H750V0ZM600 0H750V-150H600V0ZM900
750H1050V600H900V750ZM900 600H1050V450H900V600ZM900 450H1050V300H900V450ZM900 300H1050V150H900V300ZM900 150H1050V0H900V150ZM600 600H750V450H600V600ZM600 300H750V150H600V300Z" />
<glyph unicode="&#xaa;" glyph-name="ordfeminine" horiz-adv-x="600" d="M300 600H450V450H300V600ZM300 450H450V300H300V450ZM300 300H450V150H300V300ZM300 150H450V0H300V150ZM150 600H300V450H150V600ZM150 150H300V0H150V150ZM0 450H150V300H0V450ZM0 300H150V150H0V300Z"
/>
<glyph unicode="&#xab;" glyph-name="guillemotleft" horiz-adv-x="900" d="M150 600H300V450H150V600ZM0 450H150V300H0V450ZM150 300H300V150H150V300ZM600 600H750V450H600V600ZM450 450H600V300H450V450ZM600 300H750V150H600V300Z" />
<glyph unicode="&#xae;" glyph-name="registered" horiz-adv-x="1050" d="M0 750H150V600H0V750ZM0 600H150V450H0V600ZM0 450H150V300H0V450ZM150 300H300V150H150V300ZM300 300H450V150H300V300ZM450 300H600V150H450V300ZM600 300H750V150H600V300ZM750 450H900V300H750V450ZM750
600H900V450H750V600ZM750 750H900V600H750V750ZM600 900H750V750H600V900ZM450 900H600V750H450V900ZM300 900H450V750H300V900ZM150 900H300V750H150V900ZM450 750H600V600H450V750ZM300 600H450V450H300V600ZM300 450H450V300H300V450Z" />
<glyph unicode="&#xaf;" glyph-name="overscore" horiz-adv-x="450" d="M0 900H150V750H0V900ZM150 900H300V750H150V900ZM300 900H450V750H300V900Z" />
<glyph unicode="&#xb0;" glyph-name="degree" horiz-adv-x="600" d="M150 600H300V450H150V600ZM300 750H450V600H300V750ZM150 900H300V750H150V900ZM0 750H150V600H0V750Z" />
<glyph unicode="&#xb4;" glyph-name="acute" horiz-adv-x="300" d="M0 900H150V750H0V900ZM150 1050H300V900H150V1050Z" />
<glyph unicode="&#xb6;" glyph-name="paragraph" horiz-adv-x="750" d="M450 0H600V-150H450V0ZM450 150H600V0H450V150ZM450 300H600V150H450V300ZM450 450H600V300H450V450ZM450 600H600V450H450V600ZM450 750H600V600H450V750ZM150 0H300V-150H150V0ZM150 150H300V0H150V150ZM150
300H300V150H150V300ZM150 450H300V300H150V450ZM150 600H300V450H150V600ZM150 750H300V600H150V750ZM0 750H150V600H0V750ZM0 600H150V450H0V600ZM0 900H150V750H0V900ZM150 900H300V750H150V900ZM450 900H600V750H450V900Z" />
<glyph unicode="&#xb7;" glyph-name="middot" horiz-adv-x="300" d="M0 450H150V300H0V450Z" />
<glyph unicode="&#xb8;" glyph-name="cedilla" horiz-adv-x="300" d="M0 0H150V-150H0V0ZM150 -150H300V-300H150V-150ZM0 -300H150V-450H0V-300Z" />
<glyph unicode="&#xba;" glyph-name="ordmasculine" horiz-adv-x="600" d="M0 450H150V300H0V450ZM0 300H150V150H0V300ZM150 150H300V0H150V150ZM300 300H450V150H300V300ZM300 450H450V300H300V450ZM150 600H300V450H150V600Z" />
<glyph unicode="&#xbb;" glyph-name="guillemotright" horiz-adv-x="900" d="M600 600V450H450V600H600ZM750 450V300H600V450H750ZM600 300V150H450V300H600ZM150 600V450H0V600H150ZM300 450V300H150V450H300ZM150 300V150H0V300H150Z" />
<glyph unicode="&#xbf;" glyph-name="questiondown" horiz-adv-x="600" d="M150 450H300V300H150V450ZM0 300H150V150H0V300ZM0 150H150V0H0V150ZM150 150H300V0H150V150ZM300 150H450V0H300V150ZM150 750H300V600H150V750Z" />
<glyph unicode="&#xc0;" glyph-name="Agrave" horiz-adv-x="600" d="M0 150H150V0H0V150ZM0 300H150V150H0V300ZM0 450H150V300H0V450ZM0 600H150V450H0V600ZM150 750H300V600H150V750ZM300 600H450V450H300V600ZM300 450H450V300H300V450ZM300 300H450V150H300V300ZM300
150H450V0H300V150ZM150 450H300V300H150V450ZM150 1050H300V900H150V1050ZM0 1200H150V1050H0V1200Z" />
<glyph unicode="&#xc1;" glyph-name="Aacute" horiz-adv-x="600" d="M300 1200H450V1050H300V1200ZM150 1050H300V900H150V1050ZM150 750H300V600H150V750ZM150 450H300V600H450V0H300V300H150V0H0V600H150V450Z" />
<glyph unicode="&#xc2;" glyph-name="Acircumflex" horiz-adv-x="600" d="M0 150H150V0H0V150ZM0 300H150V150H0V300ZM0 450H150V300H0V450ZM0 600H150V450H0V600ZM150 750H300V600H150V750ZM300 600H450V450H300V600ZM300 450H450V300H300V450ZM300 300H450V150H300V300ZM300
150H450V0H300V150ZM150 450H300V300H150V450ZM150 1200H300V1050H150V1200ZM0 1050H150V900H0V1050ZM300 1050H450V900H300V1050Z" />
<glyph unicode="&#xc3;" glyph-name="Atilde" horiz-adv-x="600" d="M0 150H150V0H0V150ZM0 300H150V150H0V300ZM0 450H150V300H0V450ZM0 600H150V450H0V600ZM150 750H300V600H150V750ZM300 600H450V450H300V600ZM300 450H450V300H300V450ZM300 300H450V150H300V300ZM300
150H450V0H300V150ZM150 450H300V300H150V450ZM-150 1050H0V900H-150V1050ZM0 1200H150V1050H0V1200ZM150 1050H300V900H150V1050ZM300 1200H450V1050H300V1200ZM-150 1200H0V1050H-150V1200ZM300 1050H450V900H300V1050Z" />
<glyph unicode="&#xc4;" glyph-name="Adieresis" horiz-adv-x="600" d="M0 150H150V0H0V150ZM0 300H150V150H0V300ZM0 450H150V300H0V450ZM0 600H150V450H0V600ZM150 750H300V600H150V750ZM300 600H450V450H300V600ZM300 450H450V300H300V450ZM300 300H450V150H300V300ZM300
150H450V0H300V150ZM150 450H300V300H150V450ZM0 1050H150V900H0V1050ZM300 1050H450V900H300V1050Z" />
<glyph unicode="&#xc5;" glyph-name="Aring" horiz-adv-x="600" d="M0 150H150V0H0V150ZM0 300H150V150H0V300ZM0 450H150V300H0V450ZM0 600H150V450H0V600ZM150 750H300V600H150V750ZM300 600H450V450H300V600ZM300 450H450V300H300V450ZM300 300H450V150H300V300ZM300
150H450V0H300V150ZM150 450H300V300H150V450ZM0 1200H150V1050H0V1200ZM150 1050H300V900H150V1050ZM300 1200H450V1050H300V1200ZM150 1350H300V1200H150V1350Z" />
<glyph unicode="&#xc6;" glyph-name="AE" horiz-adv-x="900" d="M0 150H150V0H0V150ZM0 300H150V150H0V300ZM0 450H150V300H0V450ZM0 600H150V450H0V600ZM150 750H300V600H150V750ZM300 600H450V450H300V600ZM300 450H450V300H300V450ZM300 300H450V150H300V300ZM300
150H450V0H300V150ZM150 450H300V300H150V450ZM300 750H450V600H300V750ZM450 750H600V600H450V750ZM600 750H750V600H600V750ZM450 150H600V0H450V150ZM600 150H750V0H600V150ZM450 450H600V300H450V450Z" />
<glyph unicode="&#xc7;" glyph-name="Ccedilla" horiz-adv-x="600" d="M150 750H300V600H150V750ZM0 750H150V600H0V750ZM0 600H150V450H0V600ZM0 450H150V300H0V450ZM0 300H150V150H0V300ZM0 150H150V0H0V150ZM150 150H300V0H150V150ZM150 0H300V-150H150V0ZM300
-150H450V-300H300V-150ZM150 -300H300V-450H150V-300ZM300 150H450V0H300V150ZM300 750H450V600H300V750Z" />
<glyph unicode="&#xc8;" glyph-name="Egrave" horiz-adv-x="600" d="M0 750H150V600H0V750ZM0 600H150V450H0V600ZM0 450H150V300H0V450ZM0 300H150V150H0V300ZM0 150H150V0H0V150ZM150 750H300V600H150V750ZM150 150H300V0H150V150ZM150 450H300V300H150V450ZM300
750H450V600H300V750ZM300 150H450V0H300V150ZM150 1050H300V900H150V1050ZM0 1200H150V1050H0V1200Z" />
<glyph unicode="&#xc9;" glyph-name="Eacute" horiz-adv-x="600" d="M0 750H150V600H0V750ZM0 600H150V450H0V600ZM0 450H150V300H0V450ZM0 300H150V150H0V300ZM0 150H150V0H0V150ZM150 750H300V600H150V750ZM150 150H300V0H150V150ZM150 450H300V300H150V450ZM300
750H450V600H300V750ZM300 150H450V0H300V150ZM0 1050H150V900H0V1050ZM150 1200H300V1050H150V1200Z" />
<glyph unicode="&#xca;" glyph-name="Ecircumflex" horiz-adv-x="600" d="M0 750H150V600H0V750ZM0 600H150V450H0V600ZM0 450H150V300H0V450ZM0 300H150V150H0V300ZM0 150H150V0H0V150ZM150 750H300V600H150V750ZM150 150H300V0H150V150ZM150 450H300V300H150V450ZM300
750H450V600H300V750ZM300 150H450V0H300V150ZM150 1200H300V1050H150V1200ZM0 1050H150V900H0V1050ZM300 1050H450V900H300V1050Z" />
<glyph unicode="&#xcb;" glyph-name="Edieresis" horiz-adv-x="600" d="M0 750H150V600H0V750ZM0 600H150V450H0V600ZM0 450H150V300H0V450ZM0 300H150V150H0V300ZM0 150H150V0H0V150ZM150 750H300V600H150V750ZM150 150H300V0H150V150ZM150 450H300V300H150V450ZM300
750H450V600H300V750ZM300 150H450V0H300V150ZM0 1050H150V900H0V1050ZM300 1050H450V900H300V1050Z" />
<glyph unicode="&#xcc;" glyph-name="Igrave" horiz-adv-x="300" d="M-150 1200H0V1050H-150V1200ZM0 1050H150V900H0V1050ZM0 750H150V0H0V750Z" />
<glyph unicode="&#xcd;" glyph-name="Iacute" horiz-adv-x="300" d="M150 1200H300V1050H150V1200ZM0 1050H150V900H0V1050ZM0 750H150V0H0V750Z" />
<glyph unicode="&#xce;" glyph-name="Icircumflex" horiz-adv-x="300" d="M0 1200H150V1050H0V1200ZM-150 1050H0V900H-150V1050ZM150 1050H300V900H150V1050ZM0 750H150V0H0V750Z" />
<glyph unicode="&#xcf;" glyph-name="Idieresis" horiz-adv-x="300" d="M-150 1050H0V900H-150V1050ZM150 1050H300V900H150V1050ZM0 750H150V0H0V750Z" />
<glyph unicode="&#xd0;" glyph-name="Eth" horiz-adv-x="900" d="M150 750H300V600H150V750ZM150 600H300V450H150V600ZM150 450H300V300H150V450ZM150 300H300V150H150V300ZM150 150H300V0H150V150ZM300 750H450V600H300V750ZM600 600H750V450H600V600ZM600 450H750V300H600V450ZM600
300H750V150H600V300ZM300 150H450V0H300V150ZM450 750H600V600H450V750ZM450 150H600V0H450V150ZM300 450H450V300H300V450ZM0 450H150V300H0V450Z" />
<glyph unicode="&#xd1;" glyph-name="Ntilde" horiz-adv-x="600" d="M0 150H150V0H0V150ZM0 300H150V150H0V300ZM0 450H150V300H0V450ZM0 600H150V450H0V600ZM150 750H300V600H150V750ZM300 600H450V450H300V600ZM300 450H450V300H300V450ZM300 300H450V150H300V300ZM300
150H450V0H300V150ZM0 750H150V600H0V750ZM-150 1050H0V900H-150V1050ZM0 1200H150V1050H0V1200ZM150 1050H300V900H150V1050ZM300 1200H450V1050H300V1200ZM-150 1200H0V1050H-150V1200ZM300 1050H450V900H300V1050Z" />
<glyph unicode="&#xd2;" glyph-name="Ograve" horiz-adv-x="600" d="M0 750H150V600H0V750ZM150 750H300V600H150V750ZM300 750H450V600H300V750ZM300 600H450V450H300V600ZM300 450H450V300H300V450ZM300 300H450V150H300V300ZM300 150H450V0H300V150ZM150 150H300V0H150V150ZM0
150H150V0H0V150ZM0 300H150V150H0V300ZM0 450H150V300H0V450ZM0 600H150V450H0V600ZM150 1050H300V900H150V1050ZM0 1200H150V1050H0V1200Z" />
<glyph unicode="&#xd3;" glyph-name="Oacute" horiz-adv-x="600" d="M300 1200H450V1050H300V1200ZM150 1050H300V900H150V1050ZM300 600H150V150H300V600ZM0 750H450V0H0V750Z" />
<glyph unicode="&#xd4;" glyph-name="Ocircumflex" horiz-adv-x="600" d="M0 750H150V600H0V750ZM150 750H300V600H150V750ZM300 750H450V600H300V750ZM300 600H450V450H300V600ZM300 450H450V300H300V450ZM300 300H450V150H300V300ZM300 150H450V0H300V150ZM150
150H300V0H150V150ZM0 150H150V0H0V150ZM0 300H150V150H0V300ZM0 450H150V300H0V450ZM0 600H150V450H0V600ZM150 1200H300V1050H150V1200ZM0 1050H150V900H0V1050ZM300 1050H450V900H300V1050Z" />
<glyph unicode="&#xd5;" glyph-name="Otilde" horiz-adv-x="600" d="M0 750H150V600H0V750ZM150 750H300V600H150V750ZM300 750H450V600H300V750ZM300 600H450V450H300V600ZM300 450H450V300H300V450ZM300 300H450V150H300V300ZM300 150H450V0H300V150ZM150 150H300V0H150V150ZM0
150H150V0H0V150ZM0 300H150V150H0V300ZM0 450H150V300H0V450ZM0 600H150V450H0V600ZM-150 1050H0V900H-150V1050ZM0 1200H150V1050H0V1200ZM150 1050H300V900H150V1050ZM300 1200H450V1050H300V1200ZM-150 1200H0V1050H-150V1200ZM300 1050H450V900H300V1050Z"
/>
<glyph unicode="&#xd6;" glyph-name="Odieresis" horiz-adv-x="600" d="M0 750H150V600H0V750ZM150 750H300V600H150V750ZM300 750H450V600H300V750ZM300 600H450V450H300V600ZM300 450H450V300H300V450ZM300 300H450V150H300V300ZM300 150H450V0H300V150ZM150
150H300V0H150V150ZM0 150H150V0H0V150ZM0 300H150V150H0V300ZM0 450H150V300H0V450ZM0 600H150V450H0V600ZM0 1050H150V900H0V1050ZM300 1050H450V900H300V1050Z" />
<glyph unicode="&#xd7;" glyph-name="multiply" horiz-adv-x="600" d="M0 600H150V450H0V600ZM150 450H300V300H150V450ZM300 300H450V150H300V300ZM300 600H450V450H300V600ZM0 300H150V150H0V300Z" />
<glyph unicode="&#xd8;" glyph-name="Oslash" horiz-adv-x="900" d="M150 750H300V600H150V750ZM300 750H450V600H300V750ZM450 750H600V600H450V750ZM450 600H600V450H450V600ZM450 450H600V300H450V450ZM450 300H600V150H450V300ZM450 150H600V0H450V150ZM300
150H450V0H300V150ZM150 150H300V0H150V150ZM150 300H300V150H150V300ZM150 450H300V300H150V450ZM150 600H300V450H150V600ZM600 750H750V600H600V750ZM300 450H450V300H300V450ZM0 150H150V0H0V150Z" />
<glyph unicode="&#xd9;" glyph-name="Ugrave" horiz-adv-x="600" d="M0 750H150V600H0V750ZM0 600H150V450H0V600ZM0 450H150V300H0V450ZM0 300H150V150H0V300ZM0 150H150V0H0V150ZM150 150H300V0H150V150ZM300 150H450V0H300V150ZM300 300H450V150H300V300ZM300
450H450V300H300V450ZM300 600H450V450H300V600ZM300 750H450V600H300V750ZM150 1050H300V900H150V1050ZM0 1200H150V1050H0V1200Z" />
<glyph unicode="&#xda;" glyph-name="Uacute" horiz-adv-x="600" d="M0 750H150V600H0V750ZM0 600H150V450H0V600ZM0 450H150V300H0V450ZM0 300H150V150H0V300ZM0 150H150V0H0V150ZM150 150H300V0H150V150ZM300 150H450V0H300V150ZM300 300H450V150H300V300ZM300
450H450V300H300V450ZM300 600H450V450H300V600ZM300 750H450V600H300V750ZM0 1050H150V900H0V1050ZM150 1200H300V1050H150V1200Z" />
<glyph unicode="&#xdb;" glyph-name="Ucircumflex" horiz-adv-x="600" d="M0 750H150V600H0V750ZM0 600H150V450H0V600ZM0 450H150V300H0V450ZM0 300H150V150H0V300ZM0 150H150V0H0V150ZM150 150H300V0H150V150ZM300 150H450V0H300V150ZM300 300H450V150H300V300ZM300
450H450V300H300V450ZM300 600H450V450H300V600ZM300 750H450V600H300V750ZM150 1200H300V1050H150V1200ZM0 1050H150V900H0V1050ZM300 1050H450V900H300V1050Z" />
<glyph unicode="&#xdc;" glyph-name="Udieresis" horiz-adv-x="600" d="M0 750H150V600H0V750ZM0 600H150V450H0V600ZM0 450H150V300H0V450ZM0 300H150V150H0V300ZM0 150H150V0H0V150ZM150 150H300V0H150V150ZM300 150H450V0H300V150ZM300 300H450V150H300V300ZM300
450H450V300H300V450ZM300 600H450V450H300V600ZM300 750H450V600H300V750ZM0 1050H150V900H0V1050ZM300 1050H450V900H300V1050Z" />
<glyph unicode="&#xdd;" glyph-name="Yacute" horiz-adv-x="600" d="M0 750H150V600H0V750ZM0 600H150V450H0V600ZM0 450H150V300H0V450ZM150 300H300V150H150V300ZM150 150H300V0H150V150ZM300 750H450V600H300V750ZM300 600H450V450H300V600ZM300 450H450V300H300V450ZM0
1050H150V900H0V1050ZM150 1200H300V1050H150V1200Z" />
<glyph unicode="&#xde;" glyph-name="Thorn" horiz-adv-x="600" d="M0 750H150V600H0V750ZM0 600H150V450H0V600ZM0 450H150V300H0V450ZM0 300H150V150H0V300ZM0 150H150V0H0V150ZM150 600H300V450H150V600ZM300 600H450V450H300V600ZM300 450H450V300H300V450ZM300
300H450V150H300V300ZM150 300H300V150H150V300Z" />
<glyph unicode="&#xdf;" glyph-name="germandbls" horiz-adv-x="750" d="M0 150H150V0H0V150ZM0 300H150V150H0V300ZM0 450H150V300H0V450ZM0 600H150V450H0V600ZM150 750H300V600H150V750ZM300 750H450V600H300V750ZM450 600H600V450H450V600ZM300 450H450V300H300V450ZM450
300H600V150H450V300ZM300 150H450V0H300V150Z" />
<glyph unicode="&#xe0;" glyph-name="agrave" horiz-adv-x="600" d="M300 600H450V450H300V600ZM300 450H450V300H300V450ZM300 300H450V150H300V300ZM300 150H450V0H300V150ZM150 600H300V450H150V600ZM150 150H300V0H150V150ZM0 450H150V300H0V450ZM0 300H150V150H0V300ZM0
1050H150V900H0V1050ZM150 900H300V750H150V900Z" />
<glyph unicode="&#xe1;" glyph-name="aacute" horiz-adv-x="600" d="M300 600H450V450H300V600ZM300 450H450V300H300V450ZM300 300H450V150H300V300ZM300 150H450V0H300V150ZM150 600H300V450H150V600ZM150 150H300V0H150V150ZM0 450H150V300H0V450ZM0 300H150V150H0V300ZM0
900H150V750H0V900ZM150 1050H300V900H150V1050Z" />
<glyph unicode="&#xe2;" glyph-name="acircumflex" horiz-adv-x="600" d="M300 600H450V450H300V600ZM300 450H450V300H300V450ZM300 300H450V150H300V300ZM300 150H450V0H300V150ZM150 600H300V450H150V600ZM150 150H300V0H150V150ZM0 450H150V300H0V450ZM0 300H150V150H0V300ZM0
900H150V750H0V900ZM150 1050H300V900H150V1050ZM300 900H450V750H300V900Z" />
<glyph unicode="&#xe3;" glyph-name="atilde" horiz-adv-x="600" d="M300 600H450V450H300V600ZM300 450H450V300H300V450ZM300 300H450V150H300V300ZM300 150H450V0H300V150ZM150 600H300V450H150V600ZM150 150H300V0H150V150ZM0 450H150V300H0V450ZM0 300H150V150H0V300ZM-150
900H0V750H-150V900ZM0 1050H150V900H0V1050ZM150 900H300V750H150V900ZM300 1050H450V900H300V1050ZM-150 1050H0V900H-150V1050ZM300 900H450V750H300V900Z" />
<glyph unicode="&#xe4;" glyph-name="adieresis" horiz-adv-x="600" d="M300 600H450V450H300V600ZM300 450H450V300H300V450ZM300 300H450V150H300V300ZM300 150H450V0H300V150ZM150 600H300V450H150V600ZM150 150H300V0H150V150ZM0 450H150V300H0V450ZM0 300H150V150H0V300ZM0
900H150V750H0V900ZM300 900H450V750H300V900Z" />
<glyph unicode="&#xe5;" glyph-name="aring" horiz-adv-x="600" d="M300 600H450V450H300V600ZM300 450H450V300H300V450ZM300 300H450V150H300V300ZM300 150H450V0H300V150ZM150 600H300V450H150V600ZM150 150H300V0H150V150ZM0 450H150V300H0V450ZM0 300H150V150H0V300ZM150
900H300V750H150V900ZM300 1050H450V900H300V1050ZM150 1200H300V1050H150V1200ZM0 1050H150V900H0V1050Z" />
<glyph unicode="&#xe6;" glyph-name="ae" horiz-adv-x="900" d="M300 600H450V450H300V600ZM150 600H300V450H150V600ZM150 150H300V0H150V150ZM0 450H150V300H0V450ZM0 300H150V150H0V300ZM450 600H600V450H450V600ZM600 450H750V300H600V450ZM300 450H450V300H300V450ZM600
300H750V150H600V300ZM450 300H600V150H450V300ZM300 300H450V150H300V300ZM300 150H450V0H300V150ZM450 0H600V-150H450V0Z" />
<glyph unicode="&#xe7;" glyph-name="ccedilla" horiz-adv-x="600" d="M150 600H300V450H150V600ZM0 450H150V300H0V450ZM0 300H150V150H0V300ZM150 150H300V0H150V150ZM300 600H450V450H300V600ZM300 150H450V0H300V150ZM150 0H300V-150H150V0ZM300 -150H450V-300H300V-150ZM150
-300H300V-450H150V-300Z" />
<glyph unicode="&#xe8;" glyph-name="egrave" horiz-adv-x="600" d="M150 600H300V450H150V600ZM300 450H450V300H300V450ZM0 450H150V300H0V450ZM300 300H450V150H300V300ZM150 300H300V150H150V300ZM0 300H150V150H0V300ZM0 150H150V0H0V150ZM150 0H300V-150H150V0ZM0
1050H150V900H0V1050ZM150 900H300V750H150V900Z" />
<glyph unicode="&#xe9;" glyph-name="eacute" horiz-adv-x="600" d="M150 600H300V450H150V600ZM300 450H450V300H300V450ZM0 450H150V300H0V450ZM300 300H450V150H300V300ZM150 300H300V150H150V300ZM0 300H150V150H0V300ZM0 150H150V0H0V150ZM150 0H300V-150H150V0ZM0
900H150V750H0V900ZM150 1050H300V900H150V1050Z" />
<glyph unicode="&#xea;" glyph-name="ecircumflex" horiz-adv-x="600" d="M150 600H300V450H150V600ZM300 450H450V300H300V450ZM0 450H150V300H0V450ZM300 300H450V150H300V300ZM150 300H300V150H150V300ZM0 300H150V150H0V300ZM0 150H150V0H0V150ZM150 0H300V-150H150V0ZM0
900H150V750H0V900ZM150 1050H300V900H150V1050ZM300 900H450V750H300V900Z" />
<glyph unicode="&#xeb;" glyph-name="edieresis" horiz-adv-x="600" d="M150 600H300V450H150V600ZM300 450H450V300H300V450ZM0 450H150V300H0V450ZM300 300H450V150H300V300ZM150 300H300V150H150V300ZM0 300H150V150H0V300ZM0 150H150V0H0V150ZM150 0H300V-150H150V0ZM0
900H150V750H0V900ZM300 900H450V750H300V900Z" />
<glyph unicode="&#xec;" glyph-name="igrave" horiz-adv-x="300" d="M-150 900H0V750H-150V900ZM0 750H150V600H0V750ZM0 450H150V0H0V450Z" />
<glyph unicode="&#xed;" glyph-name="iacute" horiz-adv-x="300" d="M150 900H300V750H150V900ZM0 750H150V600H0V750ZM0 450H150V0H0V450Z" />
<glyph unicode="&#xee;" glyph-name="icircumflex" horiz-adv-x="300" d="M0 900H150V750H0V900ZM-150 750H0V600H-150V750ZM150 750H300V600H150V750ZM0 450H150V0H0V450Z" />
<glyph unicode="&#xef;" glyph-name="idieresis" horiz-adv-x="300" d="M-150 750H0V600H-150V750ZM150 750H300V600H150V750ZM0 450H150V0H0V450Z" />
<glyph unicode="&#xf0;" glyph-name="eth" horiz-adv-x="600" d="M150 750H300V600H150V750ZM300 600H450V450H300V600ZM300 450H450V300H300V450ZM300 300H450V150H300V300ZM150 450H300V300H150V450ZM0 300H150V150H0V300ZM150 150H300V0H150V150Z" />
<glyph unicode="&#xf1;" glyph-name="ntilde" horiz-adv-x="600" d="M0 150H150V0H0V150ZM0 300H150V150H0V300ZM0 450H150V300H0V450ZM0 600H150V450H0V600ZM150 600H300V450H150V600ZM300 450H450V300H300V450ZM300 300H450V150H300V300ZM300 150H450V0H300V150ZM-150
900H0V750H-150V900ZM0 1050H150V900H0V1050ZM150 900H300V750H150V900ZM300 1050H450V900H300V1050ZM-150 1050H0V900H-150V1050ZM300 900H450V750H300V900Z" />
<glyph unicode="&#xf2;" glyph-name="ograve" horiz-adv-x="600" d="M0 450H150V300H0V450ZM0 300H150V150H0V300ZM150 150H300V0H150V150ZM300 300H450V150H300V300ZM300 450H450V300H300V450ZM150 600H300V450H150V600ZM0 1050H150V900H0V1050ZM150 900H300V750H150V900Z"
/>
<glyph unicode="&#xf3;" glyph-name="oacute" horiz-adv-x="600" d="M0 450H150V300H0V450ZM0 300H150V150H0V300ZM150 150H300V0H150V150ZM300 300H450V150H300V300ZM300 450H450V300H300V450ZM150 600H300V450H150V600ZM0 900H150V750H0V900ZM150 1050H300V900H150V1050Z"
/>
<glyph unicode="&#xf4;" glyph-name="ocircumflex" horiz-adv-x="600" d="M0 450H150V300H0V450ZM0 300H150V150H0V300ZM150 150H300V0H150V150ZM300 300H450V150H300V300ZM300 450H450V300H300V450ZM150 600H300V450H150V600ZM0 900H150V750H0V900ZM150 1050H300V900H150V1050ZM300
900H450V750H300V900Z" />
<glyph unicode="&#xf5;" glyph-name="otilde" horiz-adv-x="600" d="M0 450H150V300H0V450ZM0 300H150V150H0V300ZM150 150H300V0H150V150ZM300 300H450V150H300V300ZM300 450H450V300H300V450ZM150 600H300V450H150V600ZM-150 900H0V750H-150V900ZM0 1050H150V900H0V1050ZM150
900H300V750H150V900ZM300 1050H450V900H300V1050ZM-150 1050H0V900H-150V1050ZM300 900H450V750H300V900Z" />
<glyph unicode="&#xf6;" glyph-name="odieresis" horiz-adv-x="600" d="M0 450H150V300H0V450ZM0 300H150V150H0V300ZM150 150H300V0H150V150ZM300 300H450V150H300V300ZM300 450H450V300H300V450ZM150 600H300V450H150V600ZM0 900H150V750H0V900ZM300 900H450V750H300V900Z"
/>
<glyph unicode="&#xf7;" glyph-name="divide" horiz-adv-x="600" d="M0 450H150V300H0V450ZM150 450H300V300H150V450ZM300 450H450V300H300V450ZM150 750H300V600H150V750ZM150 150H300V0H150V150Z" />
<glyph unicode="&#xf8;" glyph-name="oslash" horiz-adv-x="900" d="M150 450H300V300H150V450ZM150 300H300V150H150V300ZM300 150H450V0H300V150ZM450 300H600V150H450V300ZM450 450H600V300H450V450ZM300 600H450V450H300V600ZM0 150H150V0H0V150ZM600 600H750V450H600V600Z"
/>
<glyph unicode="&#xf9;" glyph-name="ugrave" horiz-adv-x="600" d="M0 600H150V450H0V600ZM0 450H150V300H0V450ZM0 300H150V150H0V300ZM150 150H300V0H150V150ZM300 150H450V0H300V150ZM300 300H450V150H300V300ZM300 450H450V300H300V450ZM300 600H450V450H300V600ZM0
1050H150V900H0V1050ZM150 900H300V750H150V900Z" />
<glyph unicode="&#xfa;" glyph-name="uacute" horiz-adv-x="600" d="M0 600H150V450H0V600ZM0 450H150V300H0V450ZM0 300H150V150H0V300ZM150 150H300V0H150V150ZM300 150H450V0H300V150ZM300 300H450V150H300V300ZM300 450H450V300H300V450ZM300 600H450V450H300V600ZM0
900H150V750H0V900ZM150 1050H300V900H150V1050Z" />
<glyph unicode="&#xfb;" glyph-name="ucircumflex" horiz-adv-x="600" d="M0 600H150V450H0V600ZM0 450H150V300H0V450ZM0 300H150V150H0V300ZM150 150H300V0H150V150ZM300 150H450V0H300V150ZM300 300H450V150H300V300ZM300 450H450V300H300V450ZM300 600H450V450H300V600ZM0
900H150V750H0V900ZM150 1050H300V900H150V1050ZM300 900H450V750H300V900Z" />
<glyph unicode="&#xfc;" glyph-name="udieresis" horiz-adv-x="600" d="M0 600H150V450H0V600ZM0 450H150V300H0V450ZM0 300H150V150H0V300ZM150 150H300V0H150V150ZM300 150H450V0H300V150ZM300 300H450V150H300V300ZM300 450H450V300H300V450ZM300 600H450V450H300V600ZM0
900H150V750H0V900ZM300 900H450V750H300V900Z" />
<glyph unicode="&#xfd;" glyph-name="yacute" horiz-adv-x="600" d="M0 600H150V450H0V600ZM0 450H150V300H0V450ZM0 300H150V150H0V300ZM300 600H450V450H300V600ZM300 450H450V300H300V450ZM300 300H450V150H300V300ZM150 150H300V0H150V150ZM0 0H150V-150H0V0ZM0
900H150V750H0V900ZM150 1050H300V900H150V1050Z" />
<glyph unicode="&#xfe;" glyph-name="thorn" horiz-adv-x="600" d="M0 600H150V450H0V600ZM0 450H150V300H0V450ZM0 300H150V150H0V300ZM0 150H150V0H0V150ZM0 0H150V-150H0V0ZM300 300H450V150H300V300ZM150 150H300V0H150V150ZM0 750H150V600H0V750ZM150 600H300V450H150V600ZM300
450H450V300H300V450Z" />
<glyph unicode="&#xff;" glyph-name="ydieresis" horiz-adv-x="600" d="M0 600H150V450H0V600ZM0 450H150V300H0V450ZM0 300H150V150H0V300ZM300 600H450V450H300V600ZM300 450H450V300H300V450ZM300 300H450V150H300V300ZM150 150H300V0H150V150ZM0 0H150V-150H0V0ZM0
900H150V750H0V900ZM300 900H450V750H300V900Z" />
<glyph unicode="&#x2013;" glyph-name="endash" horiz-adv-x="750" d="M0 450H150V300H0V450ZM150 450H300V300H150V450ZM300 450H450V300H300V450ZM450 450H600V300H450V450Z" />
<glyph unicode="&#x2014;" glyph-name="emdash" horiz-adv-x="900" d="M150 450H300V300H150V450ZM300 450H450V300H300V450ZM450 450H600V300H450V450ZM600 450H750V300H600V450ZM0 450H150V300H0V450Z" />
<glyph unicode="&#x2018;" glyph-name="quoteleft" horiz-adv-x="450" d="M150 750H300V600H150V750ZM0 600H150V450H0V600Z" />
<glyph unicode="&#x2019;" glyph-name="quoteright" horiz-adv-x="450" d="M0 750H150V600H0V750ZM150 600H300V450H150V600Z" />
<glyph unicode="&#x201a;" glyph-name="quotesinglbase" horiz-adv-x="300" d="M0 150H150V0H0V150ZM0 0H150V-150H0V0Z" />
<glyph unicode="&#x201c;" glyph-name="quotedblleft" horiz-adv-x="750" d="M300 600H450V450H300V600ZM150 750H300V600H150V750ZM0 600H150V450H0V600ZM450 750H600V600H450V750Z" />
<glyph unicode="&#x201d;" glyph-name="quotedblright" horiz-adv-x="750" d="M0 750H150V600H0V750ZM300 750H450V600H300V750ZM150 600H300V450H150V600ZM450 600H600V450H450V600Z" />
<glyph unicode="&#x201e;" glyph-name="quotedblbase" horiz-adv-x="300" d="M0 150H150V0H0V150ZM0 0H150V-150H0V0Z" />
<glyph unicode="&#x2022;" glyph-name="bullet" horiz-adv-x="450" d="M0 450H150V300H0V450ZM150 450H300V300H150V450ZM150 600H300V450H150V600ZM0 600H150V450H0V600Z" />
<glyph unicode="&#x2039;" glyph-name="guilsinglleft" horiz-adv-x="450" d="M150 600H300V450H150V600ZM0 450H150V300H0V450ZM150 300H300V150H150V300Z" />
<glyph unicode="&#x203a;" glyph-name="guilsinglright" horiz-adv-x="450" d="M150 600V450H0V600H150ZM300 450V300H150V450H300ZM150 300V150H0V300H150Z" />
</font>
</defs>
</svg>
