<?xml version="1.0" standalone="no"?>
<!DOCTYPE svg PUBLIC "-//W3C//DTD SVG 1.1//EN" "http://www.w3.org/Graphics/SVG/1.1/DTD/svg11.dtd">
<svg xmlns="http://www.w3.org/2000/svg">
<defs >
<font id="WireOne" horiz-adv-x="267" ><font-face
    font-family="Wire One"
    units-per-em="1000"
    panose-1="0 0 0 0 0 0 0 0 0 0"
    ascent="890"
    descent="-210"
    alphabetic="0" />
<glyph unicode=" " glyph-name="space" horiz-adv-x="166" />
<glyph unicode="!" glyph-name="exclam" horiz-adv-x="126" d="M74 151Q77 148 77 143Q77 130 64 130Q51 130 51 143Q51 148 54 151V688Q51 691 51 697Q51 710 64 710Q77 710 77 697Q77 693 74 688V151ZM81 -3Q75 -10 64 -10Q54 -10 48 -4T42 12Q42 22 48 28T64
35Q75 35 81 29T87 12Q87 3 81 -3Z" />
<glyph unicode="&quot;" glyph-name="quotedbl" horiz-adv-x="201" d="M32 614Q32 601 19 601Q6 601 6 614Q6 624 15 627L42 675Q39 680 39 687Q39 697 45 703T61 710Q72 710 78 704T84 687Q84 678 78 672T61 665H59L32 616V614ZM123 614Q123 601 110 601Q97 601
97 614Q97 624 106 627L133 675Q130 680 130 687Q130 697 136 703T152 710Q163 710 169 704T175 687Q175 678 169 672T152 665H150L123 616V614Z" />
<glyph unicode="#" glyph-name="numbersign" horiz-adv-x="394" d="M290 532Q295 535 299 535Q312 535 312 522Q312 509 299 509Q295 509 290 512H47Q44 509 39 509Q26 509 26 522Q26 535 39 535Q44 535 47 532H290ZM338 416Q343 419 347 419Q360 419 360 406Q360
393 347 393Q343 393 338 396H95Q92 393 87 393Q74 393 74 406Q74 419 87 419Q92 419 95 416H338ZM56 9Q58 3 58 3Q58 -10 45 -10Q32 -10 32 3Q32 10 38 14L216 691Q216 692 216 693T215 697Q215 710 228 710Q241 710 241 697Q241 688 233 685L56 9ZM178 9Q180
3 180 3Q180 -10 167 -10Q154 -10 154 3Q154 10 160 14L338 691Q338 692 338 693T337 697Q337 710 350 710Q363 710 363 697Q363 688 355 685L178 9Z" />
<glyph unicode="$" glyph-name="dollar" horiz-adv-x="283" d="M247 101Q247 68 235 41T192 0Q175 -8 149 -10V-62Q152 -66 152 -71Q152 -84 140 -84Q126 -84 126 -71Q126 -66 129 -62V-9Q119 -8 111 -7T95 -1Q66 12 53 36T38 92Q35 95 35 101Q35 114 48 114Q61
114 61 101Q61 95 58 92Q60 58 79 34T142 10Q190 10 208 38T227 101V226Q227 279 188 315L71 419Q47 441 41 464T34 510V596Q34 628 46 657T89 700Q98 705 108 706T129 709V761Q126 766 126 770Q126 783 140 783Q152 783 152 770Q152 766 149 761V709Q160 708 169
707T186 701Q215 688 228 662T243 605Q246 602 246 596Q246 583 233 583Q220 583 220 596Q220 601 223 604Q222 636 204 663T139 690Q107 690 89 676T62 641T54 596V510Q56 485 62 466T85 431L203 327Q229 302 238 277T247 226V101Z" />
<glyph unicode="%" glyph-name="percent" horiz-adv-x="426" d="M134 9Q136 3 136 3Q136 -10 123 -10Q110 -10 110 3Q110 10 116 14L294 691Q294 692 294 693T293 697Q293 710 306 710Q319 710 319 697Q319 688 311 685L134 9ZM417 473Q417 448 403 426T352 403Q316
403 302 425T288 473V640Q288 666 302 688T352 710Q388 710 402 688T417 640V473ZM308 473Q308 455 317 439T352 423Q378 423 387 439T397 473V640Q397 658 388 674T352 690Q327 690 318 674T308 640V473ZM393 60Q393 35 379 13T328 -10Q292 -10 278 12T264 60V227Q264
253 278 275T328 297Q364 297 378 275T393 227V60ZM284 60Q284 42 293 26T328 10Q354 10 363 26T373 60V227Q373 245 364 261T328 277Q303 277 294 261T284 227V60Z" />
<glyph unicode="&amp;" glyph-name="ampersand" horiz-adv-x="308" d="M250 101Q250 73 240 48T208 6T146 -10Q106 -10 84 6T52 47T42 101V386Q42 415 54 445T98 490Q67 504 55 535T42 600Q42 628 51 653T83 694T146 710Q202 710 225 680T250 608Q254 604 254
599Q254 586 241 586Q228 586 228 599Q228 604 230 606Q229 637 211 663T146 690Q99 690 81 662T62 600Q62 572 72 548T106 509Q123 500 144 500H167V480H144Q132 479 123 478T106 471Q82 458 72 434T62 386V101Q62 66 80 38T146 10Q194 10 212 38T230 101V196H167Q164
193 159 193Q146 193 146 206Q146 219 159 219Q164 219 167 216H278Q283 219 287 219Q300 219 300 206Q300 193 287 193Q283 193 278 196H250V101Z" />
<glyph unicode="&apos;" glyph-name="quotesingle" horiz-adv-x="107" d="M64 587Q67 584 67 579Q67 566 54 566Q41 566 41 579Q41 584 44 587V667Q32 672 32 687Q32 697 38 703T54 710Q65 710 71 704T77 687Q77 673 64 666V587Z" />
<glyph unicode="(" glyph-name="parenleft" horiz-adv-x="173" d="M66 31Q66 -3 82 -30T143 -60Q145 -59 146 -59T150 -58Q163 -58 163 -71Q163 -84 150 -84Q144 -84 140 -79Q86 -76 66 -43T46 31V666Q46 694 55 719T84 760T141 779Q145 783 150 783Q163 783 163
770Q163 757 150 757Q145 757 142 759Q98 756 82 728T66 666V31Z" />
<glyph unicode=")" glyph-name="parenright" horiz-adv-x="173" d="M107 31V666Q107 699 91 727T31 759Q28 757 23 757Q10 757 10 770Q10 783 23 783Q28 783 32 779Q68 777 89 761T118 719T127 666V31Q127 -9 107 -42T33 -79Q29 -84 23 -84Q10 -84 10 -71Q10 -58
23 -58Q26 -58 27 -58T30 -60Q74 -58 90 -31T107 31Z" />
<glyph unicode="*" glyph-name="asterisk" horiz-adv-x="327" d="M240 485Q251 481 251 472Q251 459 238 459Q225 459 225 472L162 557L101 474V472Q101 459 88 459Q75 459 75 472Q75 480 84 484L146 569L47 603Q46 603 46 603T44 602H42Q29 602 29 615Q29 628
42 628Q47 628 53 622L153 589V694Q150 699 150 703Q150 716 163 716Q176 716 176 703Q176 699 173 694V589L273 621Q278 628 285 628Q298 628 298 615Q298 602 285 602H281L180 569L240 485Z" />
<glyph unicode="+" glyph-name="plus" horiz-adv-x="339" d="M290 279Q293 282 299 282Q312 282 312 269Q312 256 299 256Q295 256 290 259H180V147Q183 144 183 139Q183 126 170 126Q157 126 157 139Q157 144 160 147V259H47Q44 256 39 256Q26 256 26 269Q26
282 39 282Q44 282 47 279H160V390Q157 395 157 399Q157 412 170 412Q183 412 183 399Q183 395 180 390V279H290Z" />
<glyph unicode="," glyph-name="comma" horiz-adv-x="109" d="M32 -61Q32 -74 19 -74Q6 -74 6 -61Q6 -51 15 -48L42 0Q39 5 39 12Q39 22 45 28T61 35Q72 35 78 29T84 12Q84 3 78 -3T61 -10H59L32 -59V-61Z" />
<glyph unicode="-" glyph-name="hyphen" horiz-adv-x="302" d="M254 301Q257 304 263 304Q276 304 276 291Q276 278 263 278Q259 278 254 281H46Q43 278 38 278Q25 278 25 291Q25 304 38 304Q43 304 46 301H254Z" />
<glyph unicode="." glyph-name="period" horiz-adv-x="95" d="M64 -3Q58 -10 47 -10Q37 -10 31 -4T25 12Q25 22 31 28T47 35Q58 35 64 29T70 12Q70 3 64 -3Z" />
<glyph unicode="/" glyph-name="slash" horiz-adv-x="281" d="M47 -89Q49 -93 49 -95Q49 -108 36 -108Q23 -108 23 -95Q23 -86 30 -83L232 691Q231 692 231 697Q231 710 244 710Q257 710 257 697Q257 688 249 685L47 -89Z" />
<glyph unicode="0" glyph-name="zero" horiz-adv-x="298" d="M253 101Q253 73 243 48T211 6T149 -10Q109 -10 87 6T55 47T45 101V596Q45 625 54 651T86 693T149 710Q188 710 210 694T243 651T253 596V101ZM65 101Q65 66 83 38T149 10Q197 10 215 38T233 101V596Q233
619 226 640T200 676T149 690Q117 690 99 676T73 641T65 596V101Z" />
<glyph unicode="1" glyph-name="one" horiz-adv-x="255" d="M207 11Q210 8 210 3Q210 -10 197 -10Q184 -10 184 3Q184 8 187 11V674L25 513Q25 500 12 500Q-1 500 -1 513Q-1 523 11 526L184 698Q184 710 197 710Q210 710 210 697Q210 693 207 688V11Z" />
<glyph unicode="2" glyph-name="two" horiz-adv-x="277" d="M229 20Q234 23 238 23Q251 23 251 10Q251 -3 238 -3Q234 -3 229 0H33V193Q33 217 39 239T69 284L186 388Q224 423 224 477V599Q224 634 206 662T140 690Q96 690 77 666T56 608Q59 605 59 599Q59 586
46 586Q33 586 33 599Q33 605 36 608Q38 649 61 679T140 710Q180 710 202 694T234 653T244 599V477Q244 452 236 426T201 376L83 272Q66 257 61 238T53 193V20H229Z" />
<glyph unicode="3" glyph-name="three" horiz-adv-x="274" d="M232 101Q232 73 223 48T191 6T128 -10Q73 -10 50 21T24 92Q21 95 21 101Q21 114 34 114Q47 114 47 101Q47 95 44 92Q45 58 64 34T128 10Q176 10 194 38T212 101V386Q212 410 204 431T178 466T125
480H107V500H134Q166 500 183 514T206 550T212 596Q212 619 205 640T179 676T128 690Q83 690 64 666T44 608Q47 605 47 599Q47 594 43 590T34 586Q21 586 21 599Q21 605 24 608Q26 649 49 679T128 710Q167 710 189 694T222 651T232 596Q232 564 220 534T174 490Q206
476 219 449T232 386V101Z" />
<glyph unicode="4" glyph-name="four" horiz-adv-x="255" d="M193 11Q196 8 196 3Q196 -10 183 -10Q170 -10 170 3Q170 8 173 11V480H1V500L170 697Q170 710 183 710Q196 710 196 697Q196 693 193 688V500H221Q226 503 230 503Q243 503 243 490Q243 477 230 477Q226
477 221 480H193V11ZM173 500V671L25 500H173Z" />
<glyph unicode="5" glyph-name="five" horiz-adv-x="271" d="M230 101Q230 73 220 48T188 6T126 -10Q71 -10 48 19T22 89Q19 92 19 98Q19 111 32 111Q45 111 45 98Q45 93 42 90Q44 57 63 34T126 10Q174 10 192 38T210 101V389Q210 424 192 452T126 480H42V700H213Q218
703 222 703Q235 703 235 690Q235 677 222 677Q218 677 213 680H62V500H126Q165 500 187 484T220 443T230 389V101Z" />
<glyph unicode="6" glyph-name="six" horiz-adv-x="294" d="M253 101Q253 73 243 48T211 6T149 -10Q109 -10 87 6T55 47T45 101V596Q45 625 54 651T86 693T149 710Q205 710 228 678T253 605Q256 602 256 596Q256 583 243 583Q230 583 230 596Q230 601 233 604Q231
636 213 663T149 690Q117 690 99 676T73 641T65 596V454Q77 475 97 487T149 500Q188 500 210 484T243 441T253 386V101ZM65 102Q65 67 83 39T149 10Q197 10 215 38T233 102V385Q233 408 226 430T200 466T149 480Q117 480 99 466T73 430T65 385V102Z" />
<glyph unicode="7" glyph-name="seven" horiz-adv-x="245" d="M77 11Q80 8 80 3Q80 -10 67 -10Q54 -10 54 3Q54 8 57 11V347Q57 372 65 398T100 448L183 521Q200 536 206 555T213 600V680H36Q33 677 28 677Q15 677 15 690Q15 703 28 703Q33 703 36 700H233V600Q233
577 227 554T197 509L115 436Q77 401 77 347V11Z" />
<glyph unicode="8" glyph-name="eight" horiz-adv-x="293" d="M250 101Q250 73 240 48T208 6T146 -10Q106 -10 84 6T52 47T42 101V396Q42 428 54 456T96 500Q66 513 54 541T42 600Q42 628 51 653T83 694T146 710Q186 710 208 695T240 654T250 600Q250 569 238
541T195 500Q224 485 237 457T250 396V101ZM150 510Q195 512 212 539T230 600Q230 634 212 662T146 690Q99 690 81 662T62 600Q62 568 80 540T141 510H150ZM62 101Q62 66 80 38T146 10Q194 10 212 38T230 101V396Q230 419 223 440T197 476T146 490Q114 490 96 476T70
441T62 396V101Z" />
<glyph unicode="9" glyph-name="nine" horiz-adv-x="294" d="M249 104Q249 76 240 50T208 7T145 -10Q90 -10 67 22T41 95Q38 98 38 104Q38 117 51 117Q64 117 64 104Q64 99 61 96Q63 64 81 37T145 10Q177 10 195 24T221 60T229 104V245Q203 200 145 200Q107 200
84 216T51 259T41 314V599Q41 628 51 653T84 694T145 710Q185 710 207 694T239 653T249 599V104ZM61 315Q61 292 68 270T94 234T145 220Q192 220 210 247T229 308V598Q229 633 211 661T145 690Q97 690 79 662T61 598V315Z" />
<glyph unicode=":" glyph-name="colon" horiz-adv-x="95" d="M64 381Q58 375 47 375Q37 375 31 381T25 397Q25 407 31 413T47 420Q58 420 64 414T70 397Q70 389 64 381ZM64 -3Q58 -10 47 -10Q37 -10 31 -4T25 12Q25 22 31 28T47 35Q58 35 64 29T70 12Q70 3 64 -3Z" />
<glyph unicode=";" glyph-name="semicolon" horiz-adv-x="109" d="M78 381Q72 375 61 375Q51 375 45 381T39 397Q39 407 45 413T61 420Q72 420 78 414T84 397Q84 389 78 381ZM32 -61Q32 -74 19 -74Q6 -74 6 -61Q6 -51 15 -48L43 -1Q39 3 39 12Q39 22 45 28T61
35Q72 35 78 29T84 12Q84 3 78 -3T61 -10H60L32 -61Z" />
<glyph unicode="&lt;" glyph-name="less" horiz-adv-x="373" d="M320 223Q320 224 324 224Q337 224 337 211Q337 198 324 198Q315 198 311 207L40 354H37Q24 354 24 367Q24 380 37 380Q39 380 39 380T40 379L311 526Q314 536 324 536Q337 536 337 523Q337 510
324 510H320L55 367L320 223Z" />
<glyph unicode="=" glyph-name="equal" horiz-adv-x="373" d="M307 328Q312 331 316 331Q329 331 329 318Q329 305 316 305Q312 305 307 308H64Q61 305 56 305Q43 305 43 318Q43 331 56 331Q61 331 64 328H307ZM307 418Q312 421 316 421Q329 421 329 408Q329 395
316 395Q312 395 307 398H64Q61 395 56 395Q43 395 43 408Q43 421 56 421Q61 421 64 418H307Z" />
<glyph unicode="&gt;" glyph-name="greater" horiz-adv-x="373" d="M53 223L318 367L53 510H49Q36 510 36 523Q36 536 49 536Q59 536 62 526L333 379Q333 379 334 379T336 380Q349 380 349 367Q349 354 336 354H333L62 207Q58 198 49 198Q36 198 36 211Q36 224
49 224Q53 224 53 223Z" />
<glyph unicode="?" glyph-name="question" horiz-adv-x="271" d="M142 151Q145 148 145 143Q145 130 132 130Q119 130 119 143Q119 148 122 151V329Q122 354 130 379T165 430L186 448Q203 463 209 482T216 527V596Q216 619 209 640T183 676T132 690Q87 690 68
663T48 604Q51 601 51 596Q51 583 38 583Q25 583 25 596Q25 602 28 605Q30 646 53 678T132 710Q172 710 194 694T226 651T236 596V527Q236 504 230 481T200 436L180 418Q142 383 142 329V151ZM149 -3Q145 -10 132 -10Q122 -10 116 -4T110 12Q110 22 116 28T132
35Q143 35 149 29T155 12Q155 3 149 -3Z" />
<glyph unicode="@" glyph-name="at" horiz-adv-x="463" d="M424 30H416Q378 30 356 46T323 88Q309 51 281 41T230 30Q190 30 168 47T136 90T127 145V355Q127 384 136 410T167 453T230 470Q261 470 280 459T313 428V448Q310 453 310 457Q310 470 323 470Q336 470
336 457Q336 453 333 448V145Q333 112 348 84T404 51V399Q404 445 388 489T335 561T231 590Q166 590 129 562T76 489T60 399V111Q60 65 75 21T128 -51T231 -80V-100Q158 -100 117 -70T58 9T40 110V400Q40 453 57 501T117 579T232 610Q303 610 345 580T405 501T424
400V30ZM147 145Q147 122 154 100T180 64T230 50Q277 50 295 79T313 145V355Q313 378 304 399T277 435T230 450Q198 450 180 436T155 400T147 355V145Z" />
<glyph unicode="A" glyph-name="A" horiz-adv-x="292" d="M250 11Q253 8 253 3Q253 -10 240 -10Q227 -10 227 3Q227 8 230 11V480H62V11Q65 8 65 3Q65 -10 52 -10Q39 -10 39 3Q39 8 42 11V586Q42 615 51 641T84 683T147 700H250V11ZM230 500V680H147Q114 680 96
666T70 631T62 586V500H230Z" />
<glyph unicode="B" glyph-name="B" horiz-adv-x="284" d="M251 108Q251 57 225 29T146 0H43V700H144Q200 700 221 670T242 596Q242 565 232 534T193 490Q225 476 238 449T251 386V108ZM144 500Q176 500 193 514T216 550T222 596Q222 631 205 655T144 680H63V500H144ZM146
20Q189 20 210 44T231 109V386Q231 410 223 431T197 466T144 480H63V20H146Z" />
<glyph unicode="C" glyph-name="C" horiz-adv-x="263" d="M60 101Q60 66 78 38T144 10Q190 10 208 34T228 92Q225 95 225 101Q225 114 238 114Q251 114 251 101Q251 95 248 92Q247 52 224 21T144 -10Q104 -10 82 6T50 47T40 101V596Q40 625 49 651T81 693T144
710Q200 710 223 678T248 605Q251 602 251 596Q251 583 238 583Q225 583 225 596Q225 601 228 604Q227 636 209 663T144 690Q112 690 94 676T68 641T60 596V101Z" />
<glyph unicode="D" glyph-name="D" horiz-adv-x="291" d="M251 114Q251 86 242 60T210 17T146 0H43V700H146Q187 700 209 684T241 641T251 586V114ZM146 20Q179 20 197 34T223 69T231 114V586Q231 609 224 630T198 666T146 680H63V20H146Z" />
<glyph unicode="E" glyph-name="E" d="M228 20Q233 23 237 23Q250 23 250 10Q250 -3 237 -3Q233 -3 228 0H42V587Q42 616 51 641T84 683T147 700H228Q233 703 237 703Q250 703 250 690Q250 677 237 677Q233 677 228 680H147Q114 680 96 667T70 632T62 587V500H199Q204
503 208 503Q221 503 221 490Q221 477 208 477Q204 477 199 480H62V20H228Z" />
<glyph unicode="F" glyph-name="F" horiz-adv-x="256" d="M62 11Q65 8 65 3Q65 -10 52 -10Q39 -10 39 3Q39 8 42 11V587Q42 616 51 641T84 683T147 700H228Q233 703 237 703Q250 703 250 690Q250 677 237 677Q233 677 228 680H147Q114 680 96 667T70 632T62 587V500H199Q204
503 208 503Q221 503 221 490Q221 477 208 477Q204 477 199 480H62V11Z" />
<glyph unicode="G" glyph-name="G" horiz-adv-x="279" d="M248 101Q248 73 238 48T206 6T144 -10Q104 -10 82 6T50 47T40 101V596Q40 625 49 651T81 693T144 710Q200 710 223 678T248 605Q251 602 251 596Q251 583 238 583Q225 583 225 596Q225 601 228 604Q227
636 209 663T144 690Q112 690 94 676T68 641T60 596V101Q60 66 78 38T144 10Q192 10 210 38T228 101V279H152Q149 276 144 276Q131 276 131 289Q131 302 144 302Q149 302 152 299H248V101Z" />
<glyph unicode="H" glyph-name="H" horiz-adv-x="294" d="M251 11Q254 8 254 3Q254 -10 241 -10Q228 -10 228 3Q228 8 231 11V480H63V11Q66 8 66 3Q66 -10 53 -10Q40 -10 40 3Q40 8 43 11V688Q40 693 40 697Q40 710 53 710Q66 710 66 697Q66 693 63 688V500H231V688Q228
693 228 697Q228 710 241 710Q254 710 254 697Q254 693 251 688V11Z" />
<glyph unicode="I" glyph-name="I" horiz-adv-x="106" d="M63 11Q66 8 66 3Q66 -10 53 -10Q40 -10 40 3Q40 8 43 11V688Q40 693 40 697Q40 710 53 710Q66 710 66 697Q66 693 63 688V11Z" />
<glyph unicode="J" glyph-name="J" horiz-adv-x="255" d="M213 101Q213 73 204 48T172 6T109 -10Q54 -10 31 21T5 92Q2 95 2 101Q2 114 15 114Q28 114 28 101Q28 95 25 92Q26 58 45 34T109 10Q157 10 175 38T193 101V688Q190 691 190 697Q190 702 194 706T203
710Q216 710 216 697Q216 691 213 688V101Z" />
<glyph unicode="K" glyph-name="K" horiz-adv-x="286" d="M251 11Q254 8 254 3Q254 -10 241 -10Q228 -10 228 3Q228 8 231 11V387Q231 410 224 431T198 467T147 481H63V11Q66 8 66 3Q66 -10 53 -10Q40 -10 40 3Q40 8 43 11V688Q40 693 40 697Q40 710 53 710Q66
710 66 697Q66 693 63 688V500L223 696V697Q223 710 236 710Q249 710 249 697Q249 688 238 684L88 500H147Q186 500 208 484T241 441T251 386V11Z" />
<glyph unicode="L" glyph-name="L" horiz-adv-x="261" d="M236 20Q241 23 245 23Q258 23 258 10Q258 -3 245 -3Q241 -3 236 0H43V688Q40 693 40 697Q40 710 53 710Q66 710 66 697Q66 693 63 688V20H236Z" />
<glyph unicode="M" glyph-name="M" horiz-adv-x="358" d="M315 11Q318 8 318 3Q318 -10 305 -10Q292 -10 292 3Q292 8 295 11V659L189 480H168L63 658V11Q66 8 66 3Q66 -10 53 -10Q40 -10 40 3Q40 8 43 11V688Q40 693 40 697Q40 710 53 710Q66 710 66 697Q66 696
66 695T65 693L179 500L292 693V697Q292 710 305 710Q318 710 318 697Q318 693 315 688V11Z" />
<glyph unicode="N" glyph-name="N" horiz-adv-x="294" d="M251 11Q254 8 254 3Q254 -10 241 -10Q228 -10 228 3Q228 8 231 11V672L63 493V11Q66 8 66 3Q66 -10 53 -10Q40 -10 40 3Q40 8 43 11V688Q40 693 40 697Q40 710 53 710Q66 710 66 697Q66 693 63 688V521L231
700H251V11Z" />
<glyph unicode="O" glyph-name="O" horiz-adv-x="288" d="M248 101Q248 73 238 48T206 6T144 -10Q104 -10 82 6T50 47T40 101V596Q40 625 49 651T81 693T144 710Q183 710 205 694T238 651T248 596V101ZM60 101Q60 66 78 38T144 10Q192 10 210 38T228 101V596Q228
619 221 640T195 676T144 690Q112 690 94 676T68 641T60 596V101Z" />
<glyph unicode="P" glyph-name="P" horiz-adv-x="280" d="M63 11Q66 8 66 3Q66 -10 53 -10Q40 -10 40 3Q40 8 43 11V700H150Q190 700 212 684T244 641T254 586V311Q254 283 245 258T213 216T150 200H63V11ZM150 220Q198 220 216 248T234 311V586Q234 609 227 630T201
666T150 680H63V220H150Z" />
<glyph unicode="Q" glyph-name="Q" horiz-adv-x="288" d="M246 16Q259 16 259 3Q259 -10 246 -10Q235 -10 233 1L217 16Q205 4 187 -3T144 -10Q104 -10 82 6T50 47T40 101V596Q40 625 49 651T81 693T144 710Q183 710 205 694T238 651T248 596V101Q248 61 230 32L246
16ZM215 46Q228 69 228 101V596Q228 619 221 640T195 676T144 690Q112 690 94 676T68 641T60 596V101Q60 66 78 38T144 10Q164 10 178 15T203 30L143 91Q131 91 131 104Q131 117 144 117Q155 117 157 105L215 46Z" />
<glyph unicode="R" glyph-name="R" horiz-adv-x="284" d="M244 15Q248 15 251 10Q258 -1 246 -8Q242 -11 237 -10T229 -4Q227 0 227 5L112 200H63V11Q66 8 66 3Q66 -10 53 -10Q40 -10 40 3Q40 8 43 11V700H150Q190 700 212 684T244 641T254 586V311Q254 283 245
258T213 216T150 200H135L244 15ZM150 220Q198 220 216 248T234 311V586Q234 609 227 630T201 666T150 680H63V220H150Z" />
<glyph unicode="S" glyph-name="S" horiz-adv-x="266" d="M238 101Q238 73 228 48T196 6T133 -10Q78 -10 55 21T29 92Q26 95 26 101Q26 114 39 114Q52 114 52 101Q52 95 49 92Q50 58 69 34T133 10Q181 10 199 38T218 101V226Q218 279 179 315L62 419Q37 441 31
464T25 510V596Q25 625 35 651T68 693T130 710Q186 710 209 678T234 605Q237 602 237 596Q237 583 224 583Q211 583 211 596Q211 601 214 604Q212 636 194 663T130 690Q98 690 80 676T53 641T45 596V510Q46 485 52 466T76 431L194 327Q220 302 229 277T238 226V101Z"
/>
<glyph unicode="T" glyph-name="T" horiz-adv-x="234" d="M127 11Q130 8 130 3Q130 -10 117 -10Q104 -10 104 3Q104 8 107 11V680H31Q27 677 23 677Q10 677 10 690Q10 703 23 703Q28 703 31 700H202Q207 703 211 703Q224 703 224 690Q224 677 211 677Q208 677
202 680H127V11Z" />
<glyph unicode="U" glyph-name="U" horiz-adv-x="292" d="M250 104Q250 76 240 50T208 7T146 -10Q106 -10 84 6T52 49T42 104V688Q39 693 39 697Q39 710 52 710Q65 710 65 697Q65 693 62 688V104Q62 82 69 60T95 24T146 10Q178 10 196 24T222 60T230 104V688Q227
693 227 697Q227 710 240 710Q253 710 253 697Q253 693 250 688V104Z" />
<glyph unicode="V" glyph-name="V" horiz-adv-x="262" d="M142 10Q144 7 144 3Q144 -10 131 -10Q118 -10 118 3Q118 8 120 10L16 687Q12 691 12 697Q12 710 25 710Q38 710 38 697Q38 692 36 690L131 71L226 690Q224 692 224 697Q224 710 237 710Q250 710 250 697Q250
693 246 687L142 10Z" />
<glyph unicode="W" glyph-name="W" horiz-adv-x="474" d="M354 10Q356 4 356 3Q356 -10 343 -10Q330 -10 330 3Q330 8 332 10L237 629L142 10Q144 7 144 3Q144 -10 131 -10Q118 -10 118 3Q118 8 120 10L16 687Q12 691 12 697Q12 710 25 710Q38 710 38 697Q38 692
36 690L131 71L226 690Q224 692 224 697Q224 710 237 710Q250 710 250 697Q250 692 248 690L343 71L438 690Q436 692 436 697Q436 710 449 710Q462 710 462 697Q462 693 458 687L354 10Z" />
<glyph unicode="X" glyph-name="X" horiz-adv-x="250" d="M241 13Q247 10 247 3Q247 -10 234 -10Q221 -10 221 3V7L125 326L29 7Q29 6 29 5T30 3Q30 -10 17 -10Q4 -10 4 3Q4 11 9 13L114 362L17 686Q12 691 12 697Q12 710 25 710Q38 710 38 697Q38 696 38 695T37
692L125 398L214 692Q213 692 213 697Q213 710 226 710Q239 710 239 697Q239 691 234 686L136 362L241 13Z" />
<glyph unicode="Y" glyph-name="Y" horiz-adv-x="245" d="M133 11Q136 7 136 3Q136 -10 123 -10Q110 -10 110 3Q110 8 113 11V500L12 685Q4 688 4 697Q4 710 17 710Q30 710 30 697Q30 696 30 695T29 692L121 524H124L216 692V697Q216 710 229 710Q242 710 242
697Q242 689 234 685L133 500V11Z" />
<glyph unicode="Z" glyph-name="Z" horiz-adv-x="239" d="M203 20Q208 23 212 23Q225 23 225 10Q225 -3 212 -3Q208 -3 203 0H13V20L204 680H34Q31 677 26 677Q13 677 13 690Q13 703 26 703Q31 703 34 700H225V680L34 20H203Z" />
<glyph unicode="[" glyph-name="bracketleft" horiz-adv-x="181" d="M148 -60Q153 -57 157 -57Q170 -57 170 -70Q170 -83 157 -83Q153 -83 148 -80H50V780H148Q151 783 157 783Q170 783 170 770Q170 757 157 757Q153 757 148 760H71V-60H148Z" />
<glyph unicode="\" glyph-name="backslash" horiz-adv-x="280" d="M233 -89L31 685Q23 688 23 697Q23 710 36 710Q49 710 49 697Q49 692 48 691L250 -83Q257 -86 257 -95Q257 -108 244 -108Q231 -108 231 -95Q231 -93 233 -89Z" />
<glyph unicode="]" glyph-name="bracketright" horiz-adv-x="181" d="M33 -60H110V760H33Q29 757 24 757Q11 757 11 770Q11 783 24 783Q30 783 33 780H131V-80H33Q29 -83 24 -83Q11 -83 11 -70Q11 -57 24 -57Q29 -57 33 -60Z" />
<glyph unicode="^" glyph-name="asciicircum" horiz-adv-x="292" d="M239 269Q242 266 242 261Q242 248 229 248Q216 248 216 261Q216 265 218 267L149 641L74 268Q76 266 76 261Q76 248 63 248Q50 248 50 261Q50 268 54 271L138 690Q138 691 138 691T137 693V697Q137
710 150 710Q163 710 163 697Q163 692 161 690L239 269Z" />
<glyph unicode="_" glyph-name="underscore" horiz-adv-x="279" d="M243 21Q246 24 252 24Q265 24 265 11Q265 -2 252 -2Q248 -2 243 1H35Q32 -2 27 -2Q14 -2 14 11Q14 24 27 24Q32 24 35 21H243Z" />
<glyph unicode="`" glyph-name="grave" horiz-adv-x="220" d="M168 596Q180 594 180 583Q180 570 167 570Q154 570 154 583L53 684Q40 684 40 697Q40 710 53 710Q62 710 66 698L168 596Z" />
<glyph unicode="a" glyph-name="a" horiz-adv-x="275" d="M237 11Q240 7 240 3Q240 -10 227 -10Q214 -10 214 3Q214 8 217 11V32Q204 13 184 2T134 -10Q95 -10 73 7T41 50T31 105V186Q31 215 40 241T76 284T158 301H217V395Q217 418 210 439T184 475T134 490Q89
490 70 463T50 404Q53 400 53 396Q53 384 40 384Q27 384 27 396Q27 402 30 405Q32 432 42 456T75 495T134 510Q173 510 195 493T227 450T237 395V11ZM51 105Q51 82 58 60T83 24T134 10Q166 10 183 23T208 56T217 98V281H158Q111 281 88 267T58 231T51 186V105Z"
/>
<glyph unicode="b" glyph-name="b" horiz-adv-x="280" d="M246 105Q246 77 237 51T206 7T143 -10Q113 -10 94 1T60 32V11Q63 8 63 3Q63 -10 50 -10Q37 -10 37 3Q37 8 40 11V688Q37 693 37 697Q37 710 50 710Q63 710 63 697Q63 693 60 688V463Q86 510 143 510Q183
510 205 493T237 450T246 395V105ZM60 105Q60 83 68 61T94 25T143 10Q176 10 194 24T219 60T226 105V395Q226 418 219 439T194 475T143 490Q115 490 97 476T69 440T60 395V105Z" />
<glyph unicode="c" glyph-name="c" horiz-adv-x="263" d="M55 105Q55 82 62 60T88 24T138 10Q184 10 202 36T222 95Q219 98 219 104Q219 116 232 116Q245 116 245 104Q245 98 242 95Q240 68 230 44T197 5T138 -10Q99 -10 77 7T45 50T35 105V395Q35 424 44 450T76
493T138 510Q175 510 197 495T229 456T242 405Q245 402 245 396Q245 384 232 384Q219 384 219 396Q219 401 222 404Q221 436 203 463T138 490Q107 490 89 476T63 440T55 395V105Z" />
<glyph unicode="d" glyph-name="d" horiz-adv-x="281" d="M35 105V395Q35 424 44 450T75 493T138 510Q195 510 221 463V688Q218 693 218 697Q218 710 231 710Q244 710 244 697Q244 693 241 688V11Q244 8 244 3Q244 -10 231 -10Q218 -10 218 3Q218 8 221 11V32Q208
13 188 2T138 -10Q98 -10 76 7T44 50T35 105ZM221 105V395Q221 418 212 439T185 475T138 490Q106 490 88 476T62 440T55 395V105Q55 82 62 60T87 24T138 10Q169 10 187 24T213 61T221 105Z" />
<glyph unicode="e" glyph-name="e" horiz-adv-x="271" d="M241 281H55V105Q55 82 62 60T88 24T138 10Q185 10 202 36T221 96Q218 99 218 104Q218 117 231 117Q244 117 244 104Q244 99 241 96Q239 69 229 45T198 6T138 -10Q99 -10 77 7T45 50T35 105V395Q35 424
44 450T76 493T138 510Q177 510 199 493T231 450T241 395V281ZM221 301V395Q221 418 214 439T189 475T138 490Q107 490 89 476T63 440T55 395V301H221Z" />
<glyph unicode="f" glyph-name="f" horiz-adv-x="195" d="M89 11Q92 8 92 3Q92 -10 79 -10Q66 -10 66 3Q66 8 69 11V480H24Q21 477 16 477Q3 477 3 490Q3 503 16 503Q21 503 24 500H69V585Q69 613 78 638T108 681T167 700Q172 703 176 703Q189 703 189 690Q189
677 176 677Q172 677 167 680Q123 677 107 648T89 585V500H167Q172 503 176 503Q189 503 189 490Q189 477 176 477Q172 477 167 480H89V11Z" />
<glyph unicode="g" glyph-name="g" horiz-adv-x="280" d="M241 -95Q241 -123 232 -149T200 -193T138 -210Q83 -210 60 -178T34 -105Q31 -102 31 -96Q31 -84 44 -84Q57 -84 57 -96Q57 -102 54 -105Q56 -138 75 -164T138 -190Q170 -190 188 -176T213 -140T221 -95V32Q208
13 189 2T138 -10Q99 -10 77 7T45 50T35 105V395Q35 424 44 450T76 493T138 510Q169 510 188 499T221 468V489Q218 495 218 498Q218 511 231 511Q244 511 244 498Q244 494 241 489V-95ZM55 105Q55 82 62 60T88 24T138 10Q185 10 202 37T221 98V395Q221 418 212
439T185 475T138 490Q106 490 88 476T63 440T55 395V105Z" />
<glyph unicode="h" glyph-name="h" horiz-adv-x="284" d="M246 11Q249 8 249 3Q249 -10 236 -10Q223 -10 223 3Q223 8 226 11V395Q226 418 219 439T194 475T143 490Q115 490 97 476T69 440T60 395V11Q63 8 63 3Q63 -10 50 -10Q37 -10 37 3Q37 8 40 11V688Q37 693
37 697Q37 710 50 710Q63 710 63 697Q63 693 60 688V463Q86 510 143 510Q183 510 205 493T237 450T246 395V11Z" />
<glyph unicode="i" glyph-name="i" horiz-adv-x="105" d="M63 620Q66 617 66 612Q66 599 53 599Q40 599 40 612Q40 617 43 620V649Q40 654 40 658Q40 671 53 671Q66 671 66 658Q66 654 63 649V620ZM63 11Q66 8 66 3Q66 -10 53 -10Q40 -10 40 3Q40 8 43 11V488Q40
493 40 497Q40 510 53 510Q66 510 66 497Q66 493 63 488V11Z" />
<glyph unicode="j" glyph-name="j" horiz-adv-x="104" d="M62 620Q65 617 65 612Q65 599 52 599Q39 599 39 612Q39 617 42 620V649Q39 654 39 658Q39 671 52 671Q65 671 65 658Q65 654 62 649V620ZM62 -92Q62 -119 53 -145T22 -188T-36 -207Q-40 -210 -45 -210Q-58
-210 -58 -197Q-58 -184 -45 -184Q-40 -184 -36 -187Q-6 -186 10 -172T34 -136T42 -92V488Q39 493 39 497Q39 510 52 510Q65 510 65 497Q65 493 62 488V-92Z" />
<glyph unicode="k" glyph-name="k" horiz-adv-x="250" d="M242 14Q249 11 249 3Q249 -10 236 -10Q223 -10 223 3V7L105 266L60 191V11Q63 8 63 3Q63 -10 50 -10Q37 -10 37 3Q37 8 40 11V688Q37 693 37 697Q37 710 50 710Q63 710 63 697Q63 693 60 688V230L220
495V497Q220 510 233 510Q246 510 246 497Q246 487 237 484L118 287L242 14Z" />
<glyph unicode="l" glyph-name="l" horiz-adv-x="105" d="M63 11Q66 8 66 3Q66 -10 53 -10Q40 -10 40 3Q40 8 43 11V688Q40 693 40 697Q40 710 53 710Q66 710 66 697Q66 693 63 688V11Z" />
<glyph unicode="m" glyph-name="m" horiz-adv-x="426" d="M388 11Q391 8 391 3Q391 -10 378 -10Q365 -10 365 3Q365 8 368 11V408Q368 437 353 463T296 490Q256 490 241 467T224 414V11Q227 8 227 3Q227 -10 214 -10Q201 -10 201 3Q201 8 204 11V408Q204 437 189
463T132 490Q92 490 76 467T60 414V11Q63 8 63 3Q63 -10 50 -10Q37 -10 37 3Q37 8 40 11V488Q37 493 37 497Q37 510 50 510Q63 510 63 497Q63 493 60 488V471Q72 490 89 500T133 510Q168 510 187 496T215 458Q226 485 249 497T297 510Q332 510 352 495T380 457T388
409V11Z" />
<glyph unicode="n" glyph-name="n" horiz-adv-x="284" d="M246 11Q249 8 249 3Q249 -10 236 -10Q223 -10 223 3Q223 8 226 11V395Q226 418 219 439T194 475T143 490Q115 490 97 476T69 440T60 395V11Q63 8 63 3Q63 -10 50 -10Q37 -10 37 3Q37 8 40 11V488Q37 493
37 497Q37 510 50 510Q63 510 63 497Q63 493 60 488V463Q86 510 143 510Q183 510 205 493T237 450T246 395V11Z" />
<glyph unicode="o" glyph-name="o" horiz-adv-x="276" d="M241 105Q241 77 232 51T200 7T138 -10Q99 -10 77 7T45 50T35 105V395Q35 424 44 450T76 493T138 510Q177 510 199 493T231 450T241 395V105ZM55 105Q55 82 62 60T88 24T138 10Q171 10 189 24T214 60T221
105V395Q221 418 214 439T189 475T138 490Q107 490 89 476T63 440T55 395V105Z" />
<glyph unicode="p" glyph-name="p" horiz-adv-x="280" d="M246 395V105Q246 77 237 51T206 7T143 -10Q86 -10 60 37V-188Q63 -192 63 -197Q63 -210 50 -210Q37 -210 37 -197Q37 -192 40 -188V489Q37 492 37 497Q37 510 50 510Q63 510 63 497Q63 492 60 489V468Q74
487 93 498T143 510Q183 510 205 493T237 450T246 395ZM60 395V105Q60 83 69 61T96 25T143 10Q176 10 194 24T219 61T226 105V395Q226 418 219 440T194 476T143 490Q112 490 94 476T68 439T60 395Z" />
<glyph unicode="q" glyph-name="q" horiz-adv-x="281" d="M35 395Q35 424 44 450T75 493T138 510Q168 510 188 499T221 468V489Q218 492 218 497Q218 510 231 510Q244 510 244 497Q244 492 241 489V-188Q244 -192 244 -197Q244 -210 231 -210Q218 -210 218 -197Q218
-192 221 -188V37Q195 -10 138 -10Q98 -10 76 7T44 50T35 105V395ZM221 395Q221 417 213 439T187 475T138 490Q106 490 88 476T62 440T55 395V105Q55 83 62 61T87 25T138 10Q166 10 184 24T212 61T221 105V395Z" />
<glyph unicode="r" glyph-name="r" horiz-adv-x="188" d="M60 11Q63 8 63 3Q63 -10 50 -10Q37 -10 37 3Q37 8 40 11V488Q37 493 37 497Q37 510 50 510Q63 510 63 497Q63 493 60 488V453Q74 476 93 488T143 500H160Q165 503 169 503Q182 503 182 490Q182 477 169
477Q165 477 160 480H143Q101 480 81 450T60 385V11Z" />
<glyph unicode="s" glyph-name="s" horiz-adv-x="264" d="M197 212Q223 189 231 164T239 113Q239 61 216 26T130 -10Q90 -10 66 6T31 47T19 101Q16 104 16 110Q16 123 29 123Q42 123 42 110Q42 106 40 104Q42 69 61 39T130 9Q168 9 187 24T212 64T219 113Q219
164 183 198L70 300Q47 321 40 343T33 393Q33 424 43 450T76 493T138 510Q191 510 213 478T238 405Q241 402 241 397Q241 384 228 384Q216 384 216 397Q216 401 219 404Q218 436 199 463T138 490Q91 490 72 460T53 393Q54 364 60 346T83 314L197 212Z" />
<glyph unicode="t" glyph-name="t" horiz-adv-x="191" d="M91 108Q91 73 108 44T169 13Q174 16 178 16Q191 16 191 3Q191 -10 178 -10Q174 -10 169 -7Q132 -5 111 11T80 54T71 108V480H26Q23 477 18 477Q5 477 5 490Q5 503 18 503Q23 503 26 500H71V649Q68 654
68 658Q68 671 81 671Q94 671 94 658Q94 655 91 649V500H169Q174 503 178 503Q191 503 191 490Q191 477 178 477Q174 477 169 480H91V108Z" />
<glyph unicode="u" glyph-name="u" horiz-adv-x="284" d="M244 11Q247 8 247 3Q247 -10 234 -10Q221 -10 221 3Q221 8 224 11V37Q211 13 192 2T141 -10Q102 -10 80 7T48 50T38 105V488Q35 493 35 497Q35 510 48 510Q61 510 61 497Q61 493 58 488V105Q58 82 65
60T91 24T141 10Q185 10 204 38T224 100V488Q221 493 221 497Q221 510 234 510Q247 510 247 497Q247 493 244 488V11Z" />
<glyph unicode="v" glyph-name="v" horiz-adv-x="252" d="M137 9Q139 6 139 3Q139 -10 126 -10Q113 -10 113 3Q113 7 114 9L11 487Q7 490 7 497Q7 510 20 510Q33 510 33 497Q33 496 31 490L126 52L220 490Q220 491 220 492T219 494V497Q219 510 232 510Q245 510
245 497Q245 490 240 487L137 9Z" />
<glyph unicode="w" glyph-name="w" horiz-adv-x="465" d="M349 9Q351 6 351 3Q351 -10 338 -10Q325 -10 325 3Q325 5 325 6T326 9L232 447L137 9Q139 6 139 3Q139 -10 126 -10Q113 -10 113 3Q113 7 114 9L11 487Q7 490 7 497Q7 510 20 510Q33 510 33 497Q33 496
31 490L126 52L220 490Q220 491 220 492T219 494V497Q219 510 232 510Q245 510 245 497Q245 493 243 490L338 52L432 490Q432 491 432 492T431 494V497Q431 510 444 510Q457 510 457 497Q457 490 452 487L349 9Z" />
<glyph unicode="x" glyph-name="x" horiz-adv-x="254" d="M240 14Q246 10 246 3Q246 -10 233 -10Q220 -10 220 3V7L127 233L28 7Q28 6 28 5T29 3Q29 -10 16 -10Q3 -10 3 3Q3 10 9 14L116 259L22 486Q16 489 16 497Q16 510 29 510Q42 510 42 497Q42 494 41 493L127
286L217 493V497Q217 510 230 510Q243 510 243 497Q243 489 237 486L138 259L240 14Z" />
<glyph unicode="y" glyph-name="y" horiz-adv-x="252" d="M116 -92Q110 -118 101 -143T74 -186T22 -206Q20 -207 18 -208T13 -210Q0 -210 0 -197Q0 -184 13 -184Q17 -184 21 -186Q49 -184 63 -170T84 -134T96 -92L116 4L12 487Q8 490 8 497Q8 510 21 510Q34 510
34 497Q34 493 32 490L127 52L221 490Q221 491 221 492T220 494V497Q220 510 233 510Q246 510 246 497Q246 490 241 487L137 6L116 -92Z" />
<glyph unicode="z" glyph-name="z" horiz-adv-x="245" d="M208 20Q213 23 217 23Q230 23 230 10Q230 -3 217 -3Q213 -3 208 0H36Q33 -3 28 -3Q15 -3 15 10Q15 19 22 22L199 480H36Q33 477 28 477Q15 477 15 490Q15 503 28 503Q33 503 36 500H208Q213 503 217 503Q230
503 230 490Q230 480 221 477L44 20H208Z" />
<glyph unicode="{" glyph-name="braceleft" horiz-adv-x="220" d="M113 39Q113 17 120 -5T143 -43T188 -60Q191 -57 197 -57Q210 -57 210 -70Q210 -83 197 -83Q191 -83 188 -79Q153 -77 132 -60T102 -16T93 39V246Q93 269 85 290T57 326T1 340V360Q37 360 57 374T85
410T93 454V661Q93 689 102 715T132 759T188 779Q192 783 197 783Q210 783 210 770Q210 757 197 757Q191 757 188 760Q146 757 130 727T113 661V454Q113 421 100 393T55 350Q87 337 100 308T113 246V39Z" />
<glyph unicode="|" glyph-name="bar" horiz-adv-x="121" d="M70 -62Q73 -66 73 -71Q73 -84 60 -84Q47 -84 47 -71Q47 -66 50 -62V761Q47 766 47 770Q47 783 60 783Q73 783 73 770Q73 767 70 761V-62Z" />
<glyph unicode="}" glyph-name="braceright" horiz-adv-x="220" d="M107 39V246Q107 279 120 308T165 350Q133 364 120 392T107 454V661Q107 696 91 726T32 760Q29 757 23 757Q10 757 10 770Q10 783 23 783Q28 783 32 779Q68 777 88 760T118 716T127 661V454Q127
432 135 410T163 374T219 360V340Q184 340 164 326T135 291T127 246V39Q127 11 118 -15T89 -59T32 -79Q29 -83 23 -83Q10 -83 10 -70Q10 -57 23 -57Q29 -57 32 -60Q60 -58 76 -43T100 -6T107 39Z" />
<glyph unicode="~" glyph-name="asciitilde" horiz-adv-x="281" d="M244 358Q244 327 228 315T190 302Q171 302 159 312T136 334T116 357T91 367Q78 367 68 360T57 331V323Q60 320 60 315Q60 302 47 302Q34 302 34 315Q34 322 38 324V331Q38 364 55 375T92 387Q110
387 123 377T146 355T166 332T191 322Q205 322 215 329T225 358V365Q222 370 222 374Q222 387 235 387Q248 387 248 374Q248 370 244 364V358Z" />
<glyph unicode="&#xa1;" glyph-name="exclamdown" horiz-adv-x="125" d="M79 671Q73 665 62 665Q52 665 46 671T40 688Q40 697 46 703T62 710Q73 710 79 704T85 688Q85 679 79 671ZM72 11Q75 8 75 3Q75 -10 62 -10Q49 -10 49 3Q49 8 52 11V548Q49 551 49 557Q49
570 62 570Q75 570 75 557Q75 553 72 548V11Z" />
<glyph unicode="&#xa2;" glyph-name="cent" horiz-adv-x="284" d="M62 105Q62 82 69 60T95 24T145 10Q191 10 209 36T229 95Q226 98 226 104Q226 116 239 116Q252 116 252 104Q252 98 249 95Q247 64 234 39T192 -1Q175 -8 156 -9V-62Q159 -65 159 -71Q159 -84
146 -84Q133 -84 133 -71Q133 -65 136 -62V-9Q125 -9 115 -7T96 0Q66 16 54 44T42 105V395Q42 427 54 456T96 500Q104 504 114 506T136 509V561Q133 564 133 570Q133 583 146 583Q159 583 159 570Q159 564 156 561V509Q175 508 192 501Q221 488 234 462T249 405Q252
402 252 396Q252 384 239 384Q226 384 226 396Q226 401 229 404Q228 436 210 463T145 490Q114 490 96 476T70 440T62 395V105Z" />
<glyph unicode="&#xa3;" glyph-name="sterling" horiz-adv-x="343" d="M285 20Q290 23 294 23Q307 23 307 10Q307 -3 294 -3Q290 -3 285 0H92V480H45Q42 477 37 477Q24 477 24 490Q24 503 37 503Q42 503 45 500H92V587Q92 616 101 641T134 683T197 700H284Q289
703 293 703Q306 703 306 690Q306 677 293 677Q290 677 284 680H197Q164 680 146 667T120 632T112 587V500H255Q260 503 264 503Q277 503 277 490Q277 477 264 477Q260 477 255 480H112V20H285Z" />
<glyph unicode="&#xa4;" glyph-name="currency" horiz-adv-x="343" d="M296 243Q309 243 309 230Q309 217 296 217Q283 217 283 229L236 275Q234 250 220 230T172 210Q138 210 123 230T107 275L60 229Q58 217 47 217Q34 217 34 230Q34 243 47 243L107 302V425L47
484Q34 484 34 497Q34 510 47 510Q58 510 60 498L107 452Q108 476 123 496T172 517Q206 517 220 497T236 452L283 498Q283 510 296 510Q309 510 309 497Q309 484 296 484L236 425V302L296 243ZM127 280Q127 262 137 246T172 230Q198 230 207 246T216 280V447Q216
466 207 481T172 497Q147 497 137 482T127 447V280Z" />
<glyph unicode="&#xa5;" glyph-name="yen" horiz-adv-x="300" d="M160 11Q163 8 163 3Q163 -10 150 -10Q137 -10 137 3Q137 8 140 11V390H52Q49 387 44 387Q31 387 31 400Q31 413 44 413Q49 413 52 410H140V480H52Q49 477 44 477Q31 477 31 490Q31 503 44 503Q49
503 52 500H140L39 685Q31 690 31 697Q31 710 44 710Q57 710 57 697Q57 693 56 692L148 524H151L243 692V697Q243 710 256 710Q269 710 269 697Q269 689 261 685L160 500H247Q252 503 256 503Q269 503 269 490Q269 477 256 477Q252 477 247 480H160V410H247Q252
413 256 413Q269 413 269 400Q269 387 256 387Q252 387 247 390H160V11Z" />
<glyph unicode="&#xa6;" glyph-name="brokenbar" horiz-adv-x="125" d="M73 451Q76 448 76 443Q76 430 63 430Q50 430 50 443Q50 448 53 451V761Q50 766 50 770Q50 783 63 783Q76 783 76 770Q76 766 73 761V451ZM73 -62Q76 -66 76 -71Q76 -84 63 -84Q50 -84 50
-71Q50 -65 53 -62V238Q50 243 50 247Q50 260 63 260Q76 260 76 247Q76 243 73 238V-62Z" />
<glyph unicode="&#xa7;" glyph-name="section" horiz-adv-x="288" d="M249 31Q249 3 240 -22T208 -64T145 -80Q90 -80 67 -49T41 22Q38 25 38 31Q38 44 51 44Q64 44 64 31Q64 25 61 22Q63 -11 81 -35T145 -60Q193 -60 211 -32T230 31V118Q230 171 191 207L74 311Q50
332 44 355T38 402Q38 431 47 457T79 499L74 504Q50 525 44 548T38 595V666Q38 695 47 721T80 763T142 780Q198 780 221 748T246 675Q249 672 249 666Q249 653 236 653Q223 653 223 666Q223 671 226 674Q225 706 207 733T142 760Q110 760 92 746T65 711T57 666V595Q59
570 65 551T88 516L206 412Q232 387 240 362T249 311Q249 282 240 257T209 215Q233 192 241 167T249 118V31ZM194 229Q213 243 221 264T229 311Q229 365 191 400L95 485Q73 472 66 450T58 402Q60 377 65 358T88 323L194 229Z" />
<glyph unicode="&#xa8;" glyph-name="dieresis" horiz-adv-x="248" d="M78 620Q81 617 81 612Q81 599 68 599Q55 599 55 612Q55 617 58 620V649Q55 654 55 658Q55 671 68 671Q81 671 81 658Q81 654 78 649V620ZM191 620Q194 617 194 612Q194 599 181 599Q168 599
168 612Q168 617 171 620V649Q168 654 168 658Q168 671 181 671Q194 671 194 658Q194 654 191 649V620Z" />
<glyph unicode="&#xa9;" glyph-name="copyright" horiz-adv-x="463" d="M424 199Q424 147 406 99T345 20T232 -11Q159 -11 117 19T58 98T40 199V500Q40 553 57 601T117 679T232 710Q303 710 345 680T405 601T424 500V199ZM404 499Q404 545 388 589T335 661T231
690Q166 690 129 662T76 589T60 499V200Q60 154 75 110T128 38T231 9Q297 9 334 37T388 110T404 200V499ZM148 205Q148 182 155 160T181 124T231 110Q277 110 295 135T315 195Q312 198 312 204Q312 216 325 216Q338 216 338 204Q338 198 335 195Q334 155 311 123T231
90Q192 90 170 107T138 150T128 205V495Q128 524 137 550T169 593T231 610Q287 610 310 578T335 505Q338 502 338 496Q338 484 325 484Q312 484 312 496Q312 501 315 504Q314 536 296 563T231 590Q200 590 182 576T156 540T148 495V205Z" />
<glyph unicode="&#xaa;" glyph-name="ordfeminine" horiz-adv-x="205" d="M164 422Q167 419 167 414Q167 401 154 401Q141 401 141 414Q141 419 144 422V433Q138 420 128 411T96 401Q65 401 50 421T35 472V523Q35 541 40 557T63 583T114 594H144V639Q144 658 135
674T100 690Q78 690 68 679T55 649Q58 646 58 641Q58 629 45 629Q32 629 32 641Q32 647 35 650Q37 672 53 691T100 710Q137 710 150 688T164 639V422ZM55 472Q55 453 63 437T97 421Q118 421 130 436T144 470V574H114Q76 574 66 558T55 523V472Z" />
<glyph unicode="&#xab;" glyph-name="guillemotleft" horiz-adv-x="367" d="M215 81Q227 79 227 68Q227 55 214 55Q201 55 201 68L36 232Q23 232 23 245Q23 255 35 258L201 423Q201 435 214 435Q227 435 227 422Q227 409 214 409L49 245L215 81ZM315 81Q327 79
327 68Q327 55 314 55Q301 55 301 68L136 232Q123 232 123 245Q123 255 135 258L301 423Q301 435 314 435Q327 435 327 422Q327 409 314 409L149 245L315 81Z" />
<glyph unicode="&#xac;" glyph-name="logicalnot" horiz-adv-x="330" d="M285 249Q288 246 288 241Q288 228 275 228Q262 228 262 241Q262 246 265 249V359H57Q54 356 49 356Q36 356 36 369Q36 382 49 382Q54 382 57 379H265Q270 382 274 382Q287 382 287 369Q287
364 285 362V249Z" />
<glyph unicode="&#xad;" glyph-name="uni00AD" horiz-adv-x="302" d="M254 301Q257 304 263 304Q276 304 276 291Q276 278 263 278Q259 278 254 281H46Q43 278 38 278Q25 278 25 291Q25 304 38 304Q43 304 46 301H254Z" />
<glyph unicode="&#xae;" glyph-name="registered" horiz-adv-x="463" d="M424 199Q424 147 406 99T345 20T232 -11Q159 -11 117 19T58 98T40 199V500Q40 553 57 601T117 679T232 710Q303 710 345 680T405 601T424 500V199ZM404 499Q404 545 388 589T335 661T231
690Q166 690 129 662T76 589T60 499V200Q60 154 75 110T128 38T231 9Q297 9 334 37T388 110T404 200V499ZM324 115Q332 111 332 103Q332 90 319 90Q306 90 306 103V106L238 244H163V111Q166 108 166 103Q166 90 153 90Q140 90 140 103Q140 108 143 111V610H236Q289
610 309 578T330 506V345Q330 311 315 282T260 246L324 115ZM236 264Q277 264 293 289T310 345V506Q310 537 294 563T236 590H163V264H236Z" />
<glyph unicode="&#xaf;" glyph-name="overscore" horiz-adv-x="286" d="M224 678Q229 681 233 681Q246 681 246 668Q246 655 233 655Q229 655 224 658H61Q58 655 53 655Q40 655 40 668Q40 681 53 681Q58 681 61 678H224Z" />
<glyph unicode="&#xb0;" glyph-name="degree" horiz-adv-x="203" d="M166 473Q166 448 152 426T101 403Q65 403 51 425T37 473V640Q37 666 51 688T101 710Q137 710 151 688T166 640V473ZM57 473Q57 455 66 439T101 423Q127 423 136 439T146 473V640Q146 658 137
674T101 690Q76 690 67 674T57 640V473Z" />
<glyph unicode="&#xb1;" glyph-name="plusminus" horiz-adv-x="360" d="M301 279Q306 282 310 282Q323 282 323 269Q323 256 310 256Q306 256 301 259H190V196Q193 193 193 188Q193 175 180 175Q167 175 167 188Q167 193 170 196V259H58Q55 256 50 256Q37 256
37 269Q37 282 50 282Q55 282 58 279H170V389Q167 394 167 398Q167 411 180 411Q193 411 193 398Q193 394 190 389V279H301ZM301 149Q306 152 310 152Q323 152 323 139Q323 126 310 126Q306 126 301 129H58Q55 126 50 126Q37 126 37 139Q37 152 50 152Q55 152 58
149H301Z" />
<glyph unicode="&#xb2;" glyph-name="uni00B2" horiz-adv-x="180" d="M122 428Q127 431 131 431Q144 431 144 418Q144 405 131 405Q127 405 122 408H39V491Q39 515 59 532L109 577Q116 583 120 592T125 614V644Q125 664 118 677T91 690Q70 690 63 678T54 649Q57
646 57 641Q57 637 53 633T44 629Q31 629 31 641Q31 646 34 650Q36 667 48 688T91 710Q121 710 133 691T145 644V609Q145 581 122 561L71 516Q58 506 58 481V428H122Z" />
<glyph unicode="&#xb3;" glyph-name="uni00B3" horiz-adv-x="198" d="M161 473Q161 448 147 426T96 403Q61 403 48 423T33 463Q30 466 30 472Q30 484 43 484Q48 484 52 481T56 472Q56 467 53 464Q54 448 64 436T96 423Q122 423 131 439T141 473V569Q141 579 135
587T111 596H97Q94 592 88 592Q75 592 75 605Q75 618 88 618Q93 618 97 614H111Q128 614 134 626T141 652Q141 665 131 677T98 690Q79 690 66 680T52 649Q55 646 55 641Q55 637 51 633T42 629Q29 629 29 641Q29 647 32 650Q32 676 50 693T98 710Q126 710 143 694T161
652Q161 634 156 624T140 606Q154 601 157 591T161 569V473Z" />
<glyph unicode="&#xb4;" glyph-name="acute" horiz-adv-x="220" d="M66 583Q66 570 53 570Q40 570 40 583Q40 595 52 596L154 698Q154 710 167 710Q180 710 180 697Q180 684 167 684L66 583Z" />
<glyph unicode="&#xb5;" glyph-name="uni03BC" horiz-adv-x="292" d="M253 11Q256 8 256 3Q256 -10 243 -10Q230 -10 230 3Q230 8 233 11V32Q220 13 200 2T150 -10Q119 -10 99 1T67 29V-92Q68 -114 75 -135T99 -171T145 -187Q150 -184 154 -184Q167 -184 167 -197Q167
-210 154 -210Q150 -210 145 -207Q108 -206 87 -189T56 -145T47 -92V488Q44 493 44 497Q44 510 57 510Q70 510 70 497Q70 493 67 488V98Q68 65 86 38T150 10Q192 10 212 40T233 105V488Q230 493 230 497Q230 510 243 510Q256 510 256 497Q256 493 253 488V11Z"
/>
<glyph unicode="&#xb6;" glyph-name="paragraph" horiz-adv-x="367" d="M312 11Q315 8 315 3Q315 -10 302 -10Q289 -10 289 3Q289 8 292 11V688Q289 693 289 697Q289 710 302 710Q315 710 315 697Q315 693 312 688V11ZM240 11Q243 8 243 3Q243 -10 230 -10Q217
-10 217 3Q217 8 220 11V386H133Q94 386 71 402T39 443T29 497V586Q29 615 38 641T71 683T133 700H240V11ZM220 406V680H133Q101 680 83 666T57 631T49 586V497Q49 462 67 434T133 406H220Z" />
<glyph unicode="&#xb7;" glyph-name="middot" horiz-adv-x="115" d="M74 395Q68 388 57 388Q47 388 41 394T35 410Q35 420 41 426T57 433Q68 433 74 427T80 410Q80 401 74 395Z" />
<glyph unicode="&#xb8;" glyph-name="cedilla" horiz-adv-x="229" d="M189 -124Q189 -160 167 -174T119 -188H61Q58 -191 53 -191Q40 -191 40 -178Q40 -165 53 -165Q58 -165 61 -168H119Q137 -168 153 -159T169 -124V-108Q169 -83 153 -74T119 -64H91V0H111V-44H119Q145
-44 167 -58T189 -108V-124Z" />
<glyph unicode="&#xb9;" glyph-name="uni00B9" horiz-adv-x="157" d="M114 419Q117 416 117 411Q117 398 104 398Q91 398 91 411Q91 416 94 419V683L36 624Q36 611 23 611Q10 611 10 624Q10 635 22 637L94 710H114V419Z" />
<glyph unicode="&#xba;" glyph-name="ordmasculine" horiz-adv-x="203" d="M166 473Q166 448 152 426T101 403Q65 403 51 425T37 473V640Q37 666 51 688T101 710Q137 710 151 688T166 640V473ZM57 473Q57 455 66 439T101 423Q127 423 136 439T146 473V640Q146
658 137 674T101 690Q76 690 67 674T57 640V473Z" />
<glyph unicode="&#xbb;" glyph-name="guillemotright" horiz-adv-x="367" d="M52 81L218 245L53 409Q40 409 40 422Q40 435 53 435Q66 435 66 423L232 258Q244 255 244 245Q244 232 231 232L66 68Q66 55 53 55Q40 55 40 68Q40 79 52 81ZM152 81L318 245L153 409Q140
409 140 422Q140 435 153 435Q166 435 166 423L332 258Q344 255 344 245Q344 232 331 232L166 68Q166 55 153 55Q140 55 140 68Q140 79 152 81Z" />
<glyph unicode="&#xbc;" glyph-name="onequarter" horiz-adv-x="399" d="M126 419Q129 416 129 411Q129 398 116 398Q103 398 103 411Q103 416 106 419V683L48 624Q48 611 35 611Q22 611 22 624Q22 635 34 637L106 710H126V419ZM341 12Q344 9 344 4Q344 -9 331
-9Q318 -9 318 4Q318 9 321 12V182H237V202L318 296V297Q318 310 331 310Q344 310 344 297Q344 293 341 288V202H349Q354 205 358 205Q371 205 371 192Q371 179 358 179Q354 179 349 182H341V12ZM321 202V271L261 202H321ZM125 9Q127 3 127 3Q127 -10 114 -10Q101
-10 101 3Q101 10 107 14L285 691Q285 692 285 693T284 697Q284 710 297 710Q310 710 310 697Q310 688 302 685L125 9Z" />
<glyph unicode="&#xbd;" glyph-name="onehalf" horiz-adv-x="413" d="M125 9Q127 3 127 3Q127 -10 114 -10Q101 -10 101 3Q101 10 107 14L285 691Q285 692 285 693T284 697Q284 710 297 710Q310 710 310 697Q310 688 302 685L125 9ZM126 419Q129 416 129 411Q129
398 116 398Q103 398 103 411Q103 416 106 419V683L48 624Q48 611 35 611Q22 611 22 624Q22 635 34 637L106 710H126V419ZM355 20Q360 23 364 23Q377 23 377 10Q377 -3 364 -3Q360 -3 355 0H272V83Q272 107 292 124L342 169Q349 175 353 184T358 206V236Q358 256
351 269T324 282Q303 282 296 270T287 241Q290 238 290 233Q290 229 286 225T277 221Q264 221 264 233Q264 238 267 242Q269 259 281 280T324 302Q354 302 366 283T378 236V201Q378 173 355 153L304 108Q291 98 291 73V20H355Z" />
<glyph unicode="&#xbe;" glyph-name="threequarters" horiz-adv-x="423" d="M368 12Q371 9 371 4Q371 -9 358 -9Q345 -9 345 4Q345 9 348 12V182H264V202L345 296V297Q345 310 358 310Q371 310 371 297Q371 293 368 288V202H376Q381 205 385 205Q398 205 398 192Q398
179 385 179Q381 179 376 182H368V12ZM348 202V271L288 202H348ZM162 473Q162 448 148 426T97 403Q62 403 49 423T34 463Q31 466 31 472Q31 484 44 484Q49 484 53 481T57 472Q57 467 54 464Q55 448 65 436T97 423Q123 423 132 439T142 473V569Q142 579 136 587T112
596H98Q95 592 89 592Q76 592 76 605Q76 618 89 618Q94 618 98 614H112Q129 614 135 626T142 652Q142 665 132 677T99 690Q80 690 67 680T53 649Q56 646 56 641Q56 637 52 633T43 629Q30 629 30 641Q30 647 33 650Q33 676 51 693T99 710Q127 710 144 694T162 652Q162
634 157 624T141 606Q155 601 158 591T162 569V473ZM152 9Q154 3 154 3Q154 -10 141 -10Q128 -10 128 3Q128 10 134 14L312 691Q312 692 312 693T311 697Q311 710 324 710Q337 710 337 697Q337 688 329 685L152 9Z" />
<glyph unicode="&#xbf;" glyph-name="questiondown" horiz-adv-x="271" d="M122 703Q126 710 139 710Q150 710 155 704T161 688Q161 678 156 672T139 665Q128 665 122 671T116 688Q116 697 122 703ZM129 549Q126 552 126 557Q126 570 139 570Q152 570 152 557Q152
552 149 549V371Q149 346 141 321T106 270L85 252Q68 237 63 218T55 173V104Q55 81 62 60T88 24T139 10Q184 10 203 37T223 96Q220 99 220 104Q220 117 233 117Q246 117 246 104Q246 98 243 95Q242 55 219 23T139 -10Q100 -10 77 6T45 49T35 104V173Q35 196 41
219T71 264L91 282Q129 317 129 371V549Z" />
<glyph unicode="&#xc0;" glyph-name="Agrave" horiz-adv-x="292" d="M250 11Q253 8 253 3Q253 -10 240 -10Q227 -10 227 3Q227 8 230 11V480H62V11Q65 8 65 3Q65 -10 52 -10Q39 -10 39 3Q39 8 42 11V586Q42 615 51 641T84 683T147 700H250V11ZM230 500V680H147Q114
680 96 666T70 631T62 586V500H230ZM195 773Q207 771 207 760Q207 747 194 747Q181 747 181 760L80 861Q67 861 67 874Q67 887 80 887Q89 887 93 875L195 773Z" />
<glyph unicode="&#xc1;" glyph-name="Aacute" horiz-adv-x="292" d="M250 11Q253 8 253 3Q253 -10 240 -10Q227 -10 227 3Q227 8 230 11V480H62V11Q65 8 65 3Q65 -10 52 -10Q39 -10 39 3Q39 8 42 11V586Q42 615 51 641T84 683T147 700H250V11ZM230 500V680H147Q114
680 96 666T70 631T62 586V500H230ZM133 762Q133 749 120 749Q107 749 107 762Q107 774 119 775L221 877Q221 889 234 889Q247 889 247 876Q247 863 234 863L133 762Z" />
<glyph unicode="&#xc2;" glyph-name="Acircumflex" horiz-adv-x="292" d="M504 11Q507 8 507 3Q507 -10 494 -10Q481 -10 481 3Q481 8 484 11V480H316V11Q319 8 319 3Q319 -10 306 -10Q293 -10 293 3Q293 8 296 11V586Q296 615 305 641T338 683T401 700H504V11ZM484
500V680H401Q368 680 350 666T324 631T316 586V500H484ZM270 774Q282 772 282 761Q282 748 269 748Q256 748 256 761L155 862L54 761Q54 748 41 748Q28 748 28 761Q28 772 40 774L142 876Q142 888 155 888Q164 888 168 876L270 774Z" />
<glyph unicode="&#xc3;" glyph-name="Atilde" horiz-adv-x="292" d="M250 11Q253 8 253 3Q253 -10 240 -10Q227 -10 227 3Q227 8 230 11V480H62V11Q65 8 65 3Q65 -10 52 -10Q39 -10 39 3Q39 8 42 11V586Q42 615 51 641T84 683T147 700H250V11ZM230 500V680H147Q114
680 96 666T70 631T62 586V500H230ZM250 831Q250 800 234 788T196 775Q177 775 165 785T142 807T122 830T97 840Q84 840 74 833T63 804V796Q66 793 66 788Q66 775 53 775Q40 775 40 788Q40 795 44 797V804Q44 837 61 848T98 860Q116 860 129 850T152 828T172 805T197
795Q211 795 221 802T231 831V838Q228 843 228 847Q228 860 241 860Q254 860 254 847Q254 843 250 837V831Z" />
<glyph unicode="&#xc4;" glyph-name="Adieresis" horiz-adv-x="292" d="M250 11Q253 8 253 3Q253 -10 240 -10Q227 -10 227 3Q227 8 230 11V480H62V11Q65 8 65 3Q65 -10 52 -10Q39 -10 39 3Q39 8 42 11V586Q42 615 51 641T84 683T147 700H250V11ZM230 500V680H147Q114
680 96 666T70 631T62 586V500H230ZM99 803Q102 800 102 795Q102 782 89 782Q76 782 76 795Q76 800 79 803V832Q76 837 76 841Q76 854 89 854Q102 854 102 841Q102 837 99 832V803ZM212 803Q215 800 215 795Q215 782 202 782Q189 782 189 795Q189 800 192 803V832Q189
837 189 841Q189 854 202 854Q215 854 215 841Q215 837 212 832V803Z" />
<glyph unicode="&#xc5;" glyph-name="Aring" horiz-adv-x="292" d="M250 11Q253 8 253 3Q253 -10 240 -10Q227 -10 227 3Q227 8 230 11V480H62V11Q65 8 65 3Q65 -10 52 -10Q39 -10 39 3Q39 8 42 11V586Q42 615 51 641T84 683T147 700H250V11ZM230 500V680H147Q114
680 96 666T70 631T62 586V500H230ZM84 821Q84 844 98 866T146 888Q182 887 195 867T208 816Q208 791 195 770T146 748Q112 748 98 769T84 816V821ZM166 772Q179 779 183 791T188 816Q188 839 179 853T146 868Q122 867 113 853T104 816Q104 799 112 784T146 768Q159
768 166 772Z" />
<glyph unicode="&#xc6;" glyph-name="AE" horiz-adv-x="454" d="M416 20Q421 23 425 23Q438 23 438 10Q438 -3 425 -3Q421 -3 416 0H230V480H62V11Q65 8 65 3Q65 -10 52 -10Q39 -10 39 3Q39 8 42 11V586Q42 615 51 641T84 683T147 700H416Q421 703 425 703Q438
703 438 690Q438 677 425 677Q421 677 416 680H250V500H387Q392 503 396 503Q409 503 409 490Q409 477 396 477Q392 477 387 480H250V20H416ZM230 500V680H147Q114 680 96 666T70 631T62 586V500H230Z" />
<glyph unicode="&#xc7;" glyph-name="Ccedilla" horiz-adv-x="263" d="M60 101Q60 66 78 38T144 10Q190 10 208 34T228 92Q225 95 225 101Q225 114 238 114Q251 114 251 101Q251 95 248 92Q247 52 224 21T144 -10Q104 -10 82 6T50 47T40 101V596Q40 625 49 651T81
693T144 710Q200 710 223 678T248 605Q251 602 251 596Q251 583 238 583Q225 583 225 596Q225 601 228 604Q227 636 209 663T144 690Q112 690 94 676T68 641T60 596V101ZM233 -124Q233 -160 211 -174T163 -188H105Q102 -191 97 -191Q84 -191 84 -178Q84 -165 97
-165Q102 -165 105 -168H163Q181 -168 197 -159T213 -124V-108Q213 -83 197 -74T163 -64H135V0H155V-44H163Q189 -44 211 -58T233 -108V-124Z" />
<glyph unicode="&#xc8;" glyph-name="Egrave" d="M228 20Q233 23 237 23Q250 23 250 10Q250 -3 237 -3Q233 -3 228 0H42V587Q42 616 51 641T84 683T147 700H228Q233 703 237 703Q250 703 250 690Q250 677 237 677Q233 677 228 680H147Q114 680 96 667T70 632T62
587V500H199Q204 503 208 503Q221 503 221 490Q221 477 208 477Q204 477 199 480H62V20H228ZM204 774Q216 772 216 761Q216 748 203 748Q190 748 190 761L89 862Q76 862 76 875Q76 888 89 888Q98 888 102 876L204 774Z" />
<glyph unicode="&#xc9;" glyph-name="Eacute" d="M228 20Q233 23 237 23Q250 23 250 10Q250 -3 237 -3Q233 -3 228 0H42V587Q42 616 51 641T84 683T147 700H228Q233 703 237 703Q250 703 250 690Q250 677 237 677Q233 677 228 680H147Q114 680 96 667T70 632T62
587V500H199Q204 503 208 503Q221 503 221 490Q221 477 208 477Q204 477 199 480H62V20H228ZM132 761Q132 748 119 748Q106 748 106 761Q106 773 118 774L220 876Q220 888 233 888Q246 888 246 875Q246 862 233 862L132 761Z" />
<glyph unicode="&#xca;" glyph-name="Ecircumflex" d="M228 20Q233 23 237 23Q250 23 250 10Q250 -3 237 -3Q233 -3 228 0H42V587Q42 616 51 641T84 683T147 700H228Q233 703 237 703Q250 703 250 690Q250 677 237 677Q233 677 228 680H147Q114 680 96 667T70
632T62 587V500H199Q204 503 208 503Q221 503 221 490Q221 477 208 477Q204 477 199 480H62V20H228ZM270 774Q282 772 282 761Q282 748 269 748Q256 748 256 761L155 862L54 761Q54 748 41 748Q28 748 28 761Q28 772 40 774L142 876Q142 888 155 888Q164 888 168
876L270 774Z" />
<glyph unicode="&#xcb;" glyph-name="Edieresis" d="M228 20Q233 23 237 23Q250 23 250 10Q250 -3 237 -3Q233 -3 228 0H42V587Q42 616 51 641T84 683T147 700H228Q233 703 237 703Q250 703 250 690Q250 677 237 677Q233 677 228 680H147Q114 680 96 667T70 632T62
587V500H199Q204 503 208 503Q221 503 221 490Q221 477 208 477Q204 477 199 480H62V20H228ZM100 802Q103 799 103 794Q103 781 90 781Q77 781 77 794Q77 799 80 802V831Q77 836 77 840Q77 853 90 853Q103 853 103 840Q103 836 100 831V802ZM213 802Q216 799 216
794Q216 781 203 781Q190 781 190 794Q190 799 193 802V831Q190 836 190 840Q190 853 203 853Q216 853 216 840Q216 836 213 831V802Z" />
<glyph unicode="&#xcc;" glyph-name="Igrave" horiz-adv-x="106" d="M63 11Q66 8 66 3Q66 -10 53 -10Q40 -10 40 3Q40 8 43 11V688Q40 693 40 697Q40 710 53 710Q66 710 66 697Q66 693 63 688V11ZM54 774Q66 772 66 761Q66 748 53 748Q40 748 40 761L-61 862Q-74
862 -74 875Q-74 888 -61 888Q-52 888 -48 876L54 774Z" />
<glyph unicode="&#xcd;" glyph-name="Iacute" horiz-adv-x="106" d="M63 11Q66 8 66 3Q66 -10 53 -10Q40 -10 40 3Q40 8 43 11V688Q40 693 40 697Q40 710 53 710Q66 710 66 697Q66 693 63 688V11ZM66 761Q66 748 53 748Q40 748 40 761Q40 773 52 774L154 876Q154
888 167 888Q180 888 180 875Q180 862 167 862L66 761Z" />
<glyph unicode="&#xce;" glyph-name="Icircumflex" horiz-adv-x="106" d="M63 11Q66 8 66 3Q66 -10 53 -10Q40 -10 40 3Q40 8 43 11V688Q40 693 40 697Q40 710 53 710Q66 710 66 697Q66 693 63 688V11ZM168 774Q180 772 180 761Q180 748 167 748Q154 748 154 761L53
862L-48 761Q-48 748 -61 748Q-74 748 -74 761Q-74 772 -62 774L40 876Q40 888 53 888Q62 888 66 876L168 774Z" />
<glyph unicode="&#xcf;" glyph-name="Idieresis" horiz-adv-x="106" d="M63 11Q66 8 66 3Q66 -10 53 -10Q40 -10 40 3Q40 8 43 11V688Q40 693 40 697Q40 710 53 710Q66 710 66 697Q66 693 63 688V11ZM6 802Q9 799 9 794Q9 781 -4 781Q-17 781 -17 794Q-17 799
-14 802V831Q-17 836 -17 840Q-17 853 -4 853Q9 853 9 840Q9 836 6 831V802ZM119 802Q122 799 122 794Q122 781 109 781Q96 781 96 794Q96 799 99 802V831Q96 836 96 840Q96 853 109 853Q122 853 122 840Q122 836 119 831V802Z" />
<glyph unicode="&#xd0;" glyph-name="Eth" horiz-adv-x="298" d="M258 114Q258 86 249 60T216 17T153 0H50V480H3Q0 477 -5 477Q-18 477 -18 490Q-18 503 -5 503Q0 503 3 500H50V700H153Q193 700 216 684T248 641T258 586V114ZM153 20Q186 20 204 34T230 69T238
114V586Q238 609 231 630T205 666T153 680H70V500H144Q149 503 153 503Q166 503 166 490Q166 477 153 477Q149 477 144 480H70V20H153Z" />
<glyph unicode="&#xd1;" glyph-name="Ntilde" horiz-adv-x="294" d="M251 11Q254 8 254 3Q254 -10 241 -10Q228 -10 228 3Q228 8 231 11V672L63 493V11Q66 8 66 3Q66 -10 53 -10Q40 -10 40 3Q40 8 43 11V688Q40 693 40 697Q40 710 53 710Q66 710 66 697Q66 693
63 688V521L231 700H251V11ZM250 831Q250 800 234 788T196 775Q177 775 165 785T142 807T122 830T97 840Q84 840 74 833T63 804V796Q66 793 66 788Q66 775 53 775Q40 775 40 788Q40 795 44 797V804Q44 837 61 848T98 860Q116 860 129 850T152 828T172 805T197 795Q211
795 221 802T231 831V838Q228 843 228 847Q228 860 241 860Q254 860 254 847Q254 843 250 837V831Z" />
<glyph unicode="&#xd2;" glyph-name="Ograve" horiz-adv-x="288" d="M248 101Q248 73 238 48T206 6T144 -10Q104 -10 82 6T50 47T40 101V596Q40 625 49 651T81 693T144 710Q183 710 205 694T238 651T248 596V101ZM60 101Q60 66 78 38T144 10Q192 10 210 38T228
101V596Q228 619 221 640T195 676T144 690Q112 690 94 676T68 641T60 596V101ZM182 774Q194 772 194 761Q194 748 181 748Q168 748 168 761L67 862Q54 862 54 875Q54 888 67 888Q76 888 80 876L182 774Z" />
<glyph unicode="&#xd3;" glyph-name="Oacute" horiz-adv-x="288" d="M248 101Q248 73 238 48T206 6T144 -10Q104 -10 82 6T50 47T40 101V596Q40 625 49 651T81 693T144 710Q183 710 205 694T238 651T248 596V101ZM60 101Q60 66 78 38T144 10Q192 10 210 38T228
101V596Q228 619 221 640T195 676T144 690Q112 690 94 676T68 641T60 596V101ZM140 761Q140 748 127 748Q114 748 114 761Q114 773 126 774L228 876Q228 888 241 888Q254 888 254 875Q254 862 241 862L140 761Z" />
<glyph unicode="&#xd4;" glyph-name="Ocircumflex" horiz-adv-x="288" d="M248 101Q248 73 238 48T206 6T144 -10Q104 -10 82 6T50 47T40 101V596Q40 625 49 651T81 693T144 710Q183 710 205 694T238 651T248 596V101ZM60 101Q60 66 78 38T144 10Q192 10 210 38T228
101V596Q228 619 221 640T195 676T144 690Q112 690 94 676T68 641T60 596V101ZM259 774Q271 772 271 761Q271 748 258 748Q245 748 245 761L144 862L43 761Q43 748 30 748Q17 748 17 761Q17 772 29 774L131 876Q131 888 144 888Q153 888 157 876L259 774Z" />
<glyph unicode="&#xd5;" glyph-name="Otilde" horiz-adv-x="288" d="M248 101Q248 73 238 48T206 6T144 -10Q104 -10 82 6T50 47T40 101V596Q40 625 49 651T81 693T144 710Q183 710 205 694T238 651T248 596V101ZM60 101Q60 66 78 38T144 10Q192 10 210 38T228
101V596Q228 619 221 640T195 676T144 690Q112 690 94 676T68 641T60 596V101ZM247 831Q247 800 231 788T193 775Q174 775 162 785T139 807T119 830T94 840Q81 840 71 833T60 804V796Q63 793 63 788Q63 775 50 775Q37 775 37 788Q37 795 41 797V804Q41 837 58 848T95
860Q113 860 126 850T149 828T169 805T194 795Q208 795 218 802T228 831V838Q225 843 225 847Q225 860 238 860Q251 860 251 847Q251 843 247 837V831Z" />
<glyph unicode="&#xd6;" glyph-name="Odieresis" horiz-adv-x="288" d="M248 101Q248 73 238 48T206 6T144 -10Q104 -10 82 6T50 47T40 101V596Q40 625 49 651T81 693T144 710Q183 710 205 694T238 651T248 596V101ZM60 101Q60 66 78 38T144 10Q192 10 210 38T228
101V596Q228 619 221 640T195 676T144 690Q112 690 94 676T68 641T60 596V101ZM98 802Q101 799 101 794Q101 781 88 781Q75 781 75 794Q75 799 78 802V831Q75 836 75 840Q75 853 88 853Q101 853 101 840Q101 836 98 831V802ZM211 802Q214 799 214 794Q214 781 201
781Q188 781 188 794Q188 799 191 802V831Q188 836 188 840Q188 853 201 853Q214 853 214 840Q214 836 211 831V802Z" />
<glyph unicode="&#xd7;" glyph-name="multiply" horiz-adv-x="288" d="M232 188Q237 188 240 185Q251 176 240 167Q232 159 222 167Q221 169 221 171T218 174L138 255L59 176Q59 171 56 168Q52 164 47 164T37 168Q28 177 37 186Q40 189 44 189L124 269L45 347Q44
349 42 349T38 351Q29 360 38 369Q47 380 56 369Q59 366 59 361L138 283L217 362Q219 368 221 370Q231 378 239 370Q244 366 244 361T239 351Q233 347 230 347L152 269L232 188Z" />
<glyph unicode="&#xd8;" glyph-name="Oslash" horiz-adv-x="291" d="M248 101Q248 73 238 48T206 6T144 -10Q99 -10 76 10T45 60L43 65L4 -37Q6 -41 6 -44Q3 -56 -9 -56Q-22 -54 -20 -41Q-18 -33 -12 -30L40 104V596Q40 625 49 651T81 693T144 710Q188 710 211
689T243 638L244 631L286 739Q285 742 285 745Q289 757 300 756Q305 756 309 752T311 742Q309 734 303 731L248 589V101ZM228 596Q228 619 221 640T195 676T144 690Q112 690 94 676T68 641T60 596V156L228 589V596ZM60 101Q60 66 78 38T144 10Q192 10 210 38T228
101V538L60 107V101Z" />
<glyph unicode="&#xd9;" glyph-name="Ugrave" horiz-adv-x="292" d="M250 104Q250 76 240 50T208 7T146 -10Q106 -10 84 6T52 49T42 104V688Q39 693 39 697Q39 710 52 710Q65 710 65 697Q65 693 62 688V104Q62 82 69 60T95 24T146 10Q178 10 196 24T222 60T230
104V688Q227 693 227 697Q227 710 240 710Q253 710 253 697Q253 693 250 688V104ZM194 774Q206 772 206 761Q206 748 193 748Q180 748 180 761L79 862Q66 862 66 875Q66 888 79 888Q88 888 92 876L194 774Z" />
<glyph unicode="&#xda;" glyph-name="Uacute" horiz-adv-x="292" d="M250 104Q250 76 240 50T208 7T146 -10Q106 -10 84 6T52 49T42 104V688Q39 693 39 697Q39 710 52 710Q65 710 65 697Q65 693 62 688V104Q62 82 69 60T95 24T146 10Q178 10 196 24T222 60T230
104V688Q227 693 227 697Q227 710 240 710Q253 710 253 697Q253 693 250 688V104ZM132 762Q132 749 119 749Q106 749 106 762Q106 774 118 775L220 877Q220 889 233 889Q246 889 246 876Q246 863 233 863L132 762Z" />
<glyph unicode="&#xdb;" glyph-name="Ucircumflex" horiz-adv-x="292" d="M250 104Q250 76 240 50T208 7T146 -10Q106 -10 84 6T52 49T42 104V688Q39 693 39 697Q39 710 52 710Q65 710 65 697Q65 693 62 688V104Q62 82 69 60T95 24T146 10Q178 10 196 24T222 60T230
104V688Q227 693 227 697Q227 710 240 710Q253 710 253 697Q253 693 250 688V104ZM261 774Q273 772 273 761Q273 748 260 748Q247 748 247 761L146 862L45 761Q45 748 32 748Q19 748 19 761Q19 772 31 774L133 876Q133 888 146 888Q155 888 159 876L261 774Z" />
<glyph unicode="&#xdc;" glyph-name="Udieresis" horiz-adv-x="292" d="M250 104Q250 76 240 50T208 7T146 -10Q106 -10 84 6T52 49T42 104V688Q39 693 39 697Q39 710 52 710Q65 710 65 697Q65 693 62 688V104Q62 82 69 60T95 24T146 10Q178 10 196 24T222 60T230
104V688Q227 693 227 697Q227 710 240 710Q253 710 253 697Q253 693 250 688V104ZM100 802Q103 799 103 794Q103 781 90 781Q77 781 77 794Q77 799 80 802V831Q77 836 77 840Q77 853 90 853Q103 853 103 840Q103 836 100 831V802ZM213 802Q216 799 216 794Q216
781 203 781Q190 781 190 794Q190 799 193 802V831Q190 836 190 840Q190 853 203 853Q216 853 216 840Q216 836 213 831V802Z" />
<glyph unicode="&#xdd;" glyph-name="Yacute" horiz-adv-x="245" d="M133 11Q136 7 136 3Q136 -10 123 -10Q110 -10 110 3Q110 8 113 11V500L12 685Q4 688 4 697Q4 710 17 710Q30 710 30 697Q30 696 30 695T29 692L121 524H124L216 692V697Q216 710 229 710Q242
710 242 697Q242 689 234 685L133 500V11ZM99 761Q99 748 86 748Q73 748 73 761Q73 773 85 774L187 876Q187 888 200 888Q213 888 213 875Q213 862 200 862L99 761Z" />
<glyph unicode="&#xde;" glyph-name="Thorn" horiz-adv-x="274" d="M63 11Q66 8 66 3Q66 -10 53 -10Q40 -10 40 3Q40 8 43 11V688Q40 693 40 697Q40 710 53 710Q66 710 66 697Q66 693 63 688V605H150Q190 605 212 589T244 546T254 491V311Q254 283 245 258T213
216T150 200H63V11ZM150 220Q198 220 216 248T234 311V491Q234 514 227 535T201 571T150 585H63V220H150Z" />
<glyph unicode="&#xdf;" glyph-name="germandbls" horiz-adv-x="282" d="M248 108Q248 57 222 29T143 0H123Q120 -3 115 -3Q102 -3 102 10Q102 23 115 23Q120 23 123 20H143Q186 20 207 44T228 109V386Q228 410 220 431T194 466T141 480H123Q120 477 115 477Q102
477 102 490Q102 503 115 503Q120 503 123 500H150Q182 500 199 514T222 550T228 596Q228 619 221 640T195 676T144 690Q112 690 94 676T68 641T60 596V11Q63 8 63 3Q63 -10 50 -10Q37 -10 37 3Q37 8 40 11V596Q40 625 49 651T81 693T144 710Q183 710 205 694T238
651T248 596Q248 564 236 534T190 490Q222 476 235 449T248 386V108Z" />
<glyph unicode="&#xe0;" glyph-name="agrave" horiz-adv-x="275" d="M237 11Q240 7 240 3Q240 -10 227 -10Q214 -10 214 3Q214 8 217 11V32Q204 13 184 2T134 -10Q95 -10 73 7T41 50T31 105V186Q31 215 40 241T76 284T158 301H217V395Q217 418 210 439T184 475T134
490Q89 490 70 463T50 404Q53 400 53 396Q53 384 40 384Q27 384 27 396Q27 402 30 405Q32 432 42 456T75 495T134 510Q173 510 195 493T227 450T237 395V11ZM51 105Q51 82 58 60T83 24T134 10Q166 10 183 23T208 56T217 98V281H158Q111 281 88 267T58 231T51 186V105ZM168
596Q180 594 180 583Q180 570 167 570Q154 570 154 583L53 684Q40 684 40 697Q40 710 53 710Q62 710 66 698L168 596Z" />
<glyph unicode="&#xe1;" glyph-name="aacute" horiz-adv-x="275" d="M237 11Q240 7 240 3Q240 -10 227 -10Q214 -10 214 3Q214 8 217 11V32Q204 13 184 2T134 -10Q95 -10 73 7T41 50T31 105V186Q31 215 40 241T76 284T158 301H217V395Q217 418 210 439T184 475T134
490Q89 490 70 463T50 404Q53 400 53 396Q53 384 40 384Q27 384 27 396Q27 402 30 405Q32 432 42 456T75 495T134 510Q173 510 195 493T227 450T237 395V11ZM51 105Q51 82 58 60T83 24T134 10Q166 10 183 23T208 56T217 98V281H158Q111 281 88 267T58 231T51 186V105ZM133
583Q133 570 120 570Q107 570 107 583Q107 595 119 596L221 698Q221 710 234 710Q247 710 247 697Q247 684 234 684L133 583Z" />
<glyph unicode="&#xe2;" glyph-name="acircumflex" horiz-adv-x="275" d="M237 11Q240 7 240 3Q240 -10 227 -10Q214 -10 214 3Q214 8 217 11V32Q204 13 184 2T134 -10Q95 -10 73 7T41 50T31 105V186Q31 215 40 241T76 284T158 301H217V395Q217 418 210 439T184
475T134 490Q89 490 70 463T50 404Q53 400 53 396Q53 384 40 384Q27 384 27 396Q27 402 30 405Q32 432 42 456T75 495T134 510Q173 510 195 493T227 450T237 395V11ZM51 105Q51 82 58 60T83 24T134 10Q166 10 183 23T208 56T217 98V281H158Q111 281 88 267T58 231T51
186V105ZM505 596Q517 594 517 583Q517 570 504 570Q491 570 491 583L390 684L289 583Q289 570 276 570Q263 570 263 583Q263 594 275 596L377 698Q377 710 390 710Q399 710 403 698L505 596Z" />
<glyph unicode="&#xe3;" glyph-name="atilde" horiz-adv-x="275" d="M237 11Q240 7 240 3Q240 -10 227 -10Q214 -10 214 3Q214 8 217 11V32Q204 13 184 2T134 -10Q95 -10 73 7T41 50T31 105V186Q31 215 40 241T76 284T158 301H217V395Q217 418 210 439T184 475T134
490Q89 490 70 463T50 404Q53 400 53 396Q53 384 40 384Q27 384 27 396Q27 402 30 405Q32 432 42 456T75 495T134 510Q173 510 195 493T227 450T237 395V11ZM51 105Q51 82 58 60T83 24T134 10Q166 10 183 23T208 56T217 98V281H158Q111 281 88 267T58 231T51 186V105ZM499
654Q499 623 483 611T445 598Q426 598 414 608T391 630T371 653T346 663Q333 663 323 656T312 627V619Q315 616 315 611Q315 598 302 598Q289 598 289 611Q289 618 293 620V627Q293 660 310 671T347 683Q365 683 378 673T401 651T421 628T446 618Q460 618 470 625T480
654V661Q477 666 477 670Q477 683 490 683Q503 683 503 670Q503 666 499 660V654Z" />
<glyph unicode="&#xe4;" glyph-name="adieresis" horiz-adv-x="275" d="M237 11Q240 7 240 3Q240 -10 227 -10Q214 -10 214 3Q214 8 217 11V32Q204 13 184 2T134 -10Q95 -10 73 7T41 50T31 105V186Q31 215 40 241T76 284T158 301H217V395Q217 418 210 439T184
475T134 490Q89 490 70 463T50 404Q53 400 53 396Q53 384 40 384Q27 384 27 396Q27 402 30 405Q32 432 42 456T75 495T134 510Q173 510 195 493T227 450T237 395V11ZM51 105Q51 82 58 60T83 24T134 10Q166 10 183 23T208 56T217 98V281H158Q111 281 88 267T58 231T51
186V105ZM87 620Q90 617 90 612Q90 599 77 599Q64 599 64 612Q64 617 67 620V649Q64 654 64 658Q64 671 77 671Q90 671 90 658Q90 654 87 649V620ZM200 620Q203 617 203 612Q203 599 190 599Q177 599 177 612Q177 617 180 620V649Q177 654 177 658Q177 671 190
671Q203 671 203 658Q203 654 200 649V620Z" />
<glyph unicode="&#xe5;" glyph-name="aring" horiz-adv-x="275" d="M237 11Q240 7 240 3Q240 -10 227 -10Q214 -10 214 3Q214 8 217 11V32Q204 13 184 2T134 -10Q95 -10 73 7T41 50T31 105V186Q31 215 40 241T76 284T158 301H217V395Q217 418 210 439T184 475T134
490Q89 490 70 463T50 404Q53 400 53 396Q53 384 40 384Q27 384 27 396Q27 402 30 405Q32 432 42 456T75 495T134 510Q173 510 195 493T227 450T237 395V11ZM51 105Q51 82 58 60T83 24T134 10Q166 10 183 23T208 56T217 98V281H158Q111 281 88 267T58 231T51 186V105ZM73
643Q73 666 87 688T135 710Q171 709 184 689T197 638Q197 613 184 592T135 570Q101 570 87 591T73 638V643ZM155 594Q168 601 172 613T177 638Q177 661 168 675T135 690Q111 689 102 675T93 638Q93 621 101 606T135 590Q148 590 155 594Z" />
<glyph unicode="&#xe6;" glyph-name="ae" horiz-adv-x="453" d="M423 281H237V105Q237 82 244 60T270 24T320 10Q366 10 383 36T403 96Q400 99 400 104Q400 117 413 117Q426 117 426 104Q426 99 423 96Q422 69 412 45T380 6T320 -10Q281 -10 259 6T227 48Q216
24 193 7T134 -10Q95 -10 73 7T41 50T31 105V186Q31 215 40 241T76 284T158 301H217V395Q217 418 210 439T184 475T134 490Q89 490 70 463T50 404Q53 400 53 396Q53 384 40 384Q27 384 27 396Q27 402 30 405Q32 432 42 456T75 495T134 510Q172 510 194 494T227
451Q237 477 259 493T320 510Q359 510 381 493T413 450T423 395V281ZM403 301V395Q403 418 396 439T370 475T320 490Q275 490 257 463T237 402V301H403ZM51 105Q51 82 58 60T83 24T134 10Q166 10 183 23T208 56T217 98V281H158Q111 281 88 267T58 231T51 186V105Z"
/>
<glyph unicode="&#xe7;" glyph-name="ccedilla" horiz-adv-x="263" d="M55 105Q55 82 62 60T88 24T138 10Q184 10 202 36T222 95Q219 98 219 104Q219 116 232 116Q245 116 245 104Q245 98 242 95Q240 68 230 44T197 5T138 -10Q99 -10 77 7T45 50T35 105V395Q35
424 44 450T76 493T138 510Q175 510 197 495T229 456T242 405Q245 402 245 396Q245 384 232 384Q219 384 219 396Q219 401 222 404Q221 436 203 463T138 490Q107 490 89 476T63 440T55 395V105ZM214 -124Q214 -160 192 -174T144 -188H86Q83 -191 78 -191Q65 -191
65 -178Q65 -165 78 -165Q83 -165 86 -168H144Q162 -168 178 -159T194 -124V-108Q194 -83 178 -74T144 -64H116V0H136V-44H144Q170 -44 192 -58T214 -108V-124Z" />
<glyph unicode="&#xe8;" glyph-name="egrave" horiz-adv-x="271" d="M241 281H55V105Q55 82 62 60T88 24T138 10Q185 10 202 36T221 96Q218 99 218 104Q218 117 231 117Q244 117 244 104Q244 99 241 96Q239 69 229 45T198 6T138 -10Q99 -10 77 7T45 50T35 105V395Q35
424 44 450T76 493T138 510Q177 510 199 493T231 450T241 395V281ZM221 301V395Q221 418 214 439T189 475T138 490Q107 490 89 476T63 440T55 395V301H221ZM177 596Q189 594 189 583Q189 570 176 570Q163 570 163 583L62 684Q49 684 49 697Q49 710 62 710Q71 710
75 698L177 596Z" />
<glyph unicode="&#xe9;" glyph-name="eacute" horiz-adv-x="271" d="M241 281H55V105Q55 82 62 60T88 24T138 10Q185 10 202 36T221 96Q218 99 218 104Q218 117 231 117Q244 117 244 104Q244 99 241 96Q239 69 229 45T198 6T138 -10Q99 -10 77 7T45 50T35 105V395Q35
424 44 450T76 493T138 510Q177 510 199 493T231 450T241 395V281ZM221 301V395Q221 418 214 439T189 475T138 490Q107 490 89 476T63 440T55 395V301H221ZM135 583Q135 570 122 570Q109 570 109 583Q109 595 121 596L223 698Q223 710 236 710Q249 710 249 697Q249
684 236 684L135 583Z" />
<glyph unicode="&#xea;" glyph-name="ecircumflex" horiz-adv-x="271" d="M241 281H55V105Q55 82 62 60T88 24T138 10Q185 10 202 36T221 96Q218 99 218 104Q218 117 231 117Q244 117 244 104Q244 99 241 96Q239 69 229 45T198 6T138 -10Q99 -10 77 7T45 50T35
105V395Q35 424 44 450T76 493T138 510Q177 510 199 493T231 450T241 395V281ZM221 301V395Q221 418 214 439T189 475T138 490Q107 490 89 476T63 440T55 395V301H221ZM509 596Q521 594 521 583Q521 570 508 570Q495 570 495 583L394 684L293 583Q293 570 280 570Q267
570 267 583Q267 594 279 596L381 698Q381 710 394 710Q403 710 407 698L509 596Z" />
<glyph unicode="&#xeb;" glyph-name="edieresis" horiz-adv-x="271" d="M241 281H55V105Q55 82 62 60T88 24T138 10Q185 10 202 36T221 96Q218 99 218 104Q218 117 231 117Q244 117 244 104Q244 99 241 96Q239 69 229 45T198 6T138 -10Q99 -10 77 7T45 50T35 105V395Q35
424 44 450T76 493T138 510Q177 510 199 493T231 450T241 395V281ZM221 301V395Q221 418 214 439T189 475T138 490Q107 490 89 476T63 440T55 395V301H221ZM93 620Q96 617 96 612Q96 599 83 599Q70 599 70 612Q70 617 73 620V649Q70 654 70 658Q70 671 83 671Q96
671 96 658Q96 654 93 649V620ZM206 620Q209 617 209 612Q209 599 196 599Q183 599 183 612Q183 617 186 620V649Q183 654 183 658Q183 671 196 671Q209 671 209 658Q209 654 206 649V620Z" />
<glyph unicode="&#xec;" glyph-name="igrave" horiz-adv-x="104" d="M318 11Q321 8 321 3Q321 -10 308 -10Q295 -10 295 3Q295 8 298 11V488Q295 493 295 497Q295 510 308 510Q321 510 321 497Q321 493 318 488V11ZM309 596Q321 594 321 583Q321 570 308 570Q295
570 295 583L194 684Q181 684 181 697Q181 710 194 710Q203 710 207 698L309 596Z" />
<glyph unicode="&#xed;" glyph-name="iacute" horiz-adv-x="104" d="M63 11Q66 8 66 3Q66 -10 53 -10Q40 -10 40 3Q40 8 43 11V488Q40 493 40 497Q40 510 53 510Q66 510 66 497Q66 493 63 488V11ZM67 583Q67 570 54 570Q41 570 41 583Q41 595 53 596L155 698Q155
710 168 710Q181 710 181 697Q181 684 168 684L67 583Z" />
<glyph unicode="&#xee;" glyph-name="icircumflex" horiz-adv-x="104" d="M318 11Q321 8 321 3Q321 -10 308 -10Q295 -10 295 3Q295 8 298 11V488Q295 493 295 497Q295 510 308 510Q321 510 321 497Q321 493 318 488V11ZM423 596Q435 594 435 583Q435 570 422
570Q409 570 409 583L308 684L207 583Q207 570 194 570Q181 570 181 583Q181 594 193 596L295 698Q295 710 308 710Q317 710 321 698L423 596Z" />
<glyph unicode="&#xef;" glyph-name="idieresis" horiz-adv-x="105" d="M318 11Q321 8 321 3Q321 -10 308 -10Q295 -10 295 3Q295 8 298 11V488Q295 493 295 497Q295 510 308 510Q321 510 321 497Q321 493 318 488V11ZM262 620Q265 617 265 612Q265 599 252 599Q239
599 239 612Q239 617 242 620V649Q239 654 239 658Q239 671 252 671Q265 671 265 658Q265 654 262 649V620ZM375 620Q378 617 378 612Q378 599 365 599Q352 599 352 612Q352 617 355 620V649Q352 654 352 658Q352 671 365 671Q378 671 378 658Q378 654 375 649V620Z"
/>
<glyph unicode="&#xf0;" glyph-name="eth" horiz-adv-x="276" d="M241 105Q241 77 232 51T200 7T138 -10Q99 -10 77 7T45 50T35 105V395Q35 424 44 450T76 493T138 510Q156 510 170 506T195 495L165 587L121 572Q119 567 111 567Q98 567 98 580Q98 593 111 593Q112
593 113 593T116 592L158 606L132 686Q126 689 126 697Q126 710 139 710Q152 710 152 697Q152 695 152 694T151 691L177 613L219 627Q224 633 230 633Q243 633 243 620Q243 607 230 607Q226 607 224 608L183 594L232 449Q241 422 241 395V105ZM55 105Q55 82 62
60T88 24T138 10Q171 10 189 24T214 60T221 105V395Q221 418 214 439T189 475T138 490Q107 490 89 476T63 440T55 395V105Z" />
<glyph unicode="&#xf1;" glyph-name="ntilde" horiz-adv-x="284" d="M246 11Q249 8 249 3Q249 -10 236 -10Q223 -10 223 3Q223 8 226 11V395Q226 418 219 439T194 475T143 490Q115 490 97 476T69 440T60 395V11Q63 8 63 3Q63 -10 50 -10Q37 -10 37 3Q37 8 40 11V488Q37
493 37 497Q37 510 50 510Q63 510 63 497Q63 493 60 488V463Q86 510 143 510Q183 510 205 493T237 450T246 395V11ZM499 654Q499 623 483 611T445 598Q426 598 414 608T391 630T371 653T346 663Q333 663 323 656T312 627V619Q315 616 315 611Q315 598 302 598Q289
598 289 611Q289 618 293 620V627Q293 660 310 671T347 683Q365 683 378 673T401 651T421 628T446 618Q460 618 470 625T480 654V661Q477 666 477 670Q477 683 490 683Q503 683 503 670Q503 666 499 660V654Z" />
<glyph unicode="&#xf2;" glyph-name="ograve" horiz-adv-x="276" d="M241 105Q241 77 232 51T200 7T138 -10Q99 -10 77 7T45 50T35 105V395Q35 424 44 450T76 493T138 510Q177 510 199 493T231 450T241 395V105ZM55 105Q55 82 62 60T88 24T138 10Q171 10 189 24T214
60T221 105V395Q221 418 214 439T189 475T138 490Q107 490 89 476T63 440T55 395V105ZM176 596Q188 594 188 583Q188 570 175 570Q162 570 162 583L61 684Q48 684 48 697Q48 710 61 710Q70 710 74 698L176 596Z" />
<glyph unicode="&#xf3;" glyph-name="oacute" horiz-adv-x="276" d="M241 105Q241 77 232 51T200 7T138 -10Q99 -10 77 7T45 50T35 105V395Q35 424 44 450T76 493T138 510Q177 510 199 493T231 450T241 395V105ZM55 105Q55 82 62 60T88 24T138 10Q171 10 189 24T214
60T221 105V395Q221 418 214 439T189 475T138 490Q107 490 89 476T63 440T55 395V105ZM134 583Q134 570 121 570Q108 570 108 583Q108 595 120 596L222 698Q222 710 235 710Q248 710 248 697Q248 684 235 684L134 583Z" />
<glyph unicode="&#xf4;" glyph-name="ocircumflex" horiz-adv-x="276" d="M241 105Q241 77 232 51T200 7T138 -10Q99 -10 77 7T45 50T35 105V395Q35 424 44 450T76 493T138 510Q177 510 199 493T231 450T241 395V105ZM55 105Q55 82 62 60T88 24T138 10Q171 10
189 24T214 60T221 105V395Q221 418 214 439T189 475T138 490Q107 490 89 476T63 440T55 395V105ZM507 596Q519 594 519 583Q519 570 506 570Q493 570 493 583L392 684L291 583Q291 570 278 570Q265 570 265 583Q265 594 277 596L379 698Q379 710 392 710Q401 710
405 698L507 596Z" />
<glyph unicode="&#xf5;" glyph-name="otilde" horiz-adv-x="276" d="M241 105Q241 77 232 51T200 7T138 -10Q99 -10 77 7T45 50T35 105V395Q35 424 44 450T76 493T138 510Q177 510 199 493T231 450T241 395V105ZM55 105Q55 82 62 60T88 24T138 10Q171 10 189 24T214
60T221 105V395Q221 418 214 439T189 475T138 490Q107 490 89 476T63 440T55 395V105ZM497 654Q497 623 481 611T443 598Q424 598 412 608T389 630T369 653T344 663Q331 663 321 656T310 627V619Q313 616 313 611Q313 598 300 598Q287 598 287 611Q287 618 291
620V627Q291 660 308 671T345 683Q363 683 376 673T399 651T419 628T444 618Q458 618 468 625T478 654V661Q475 666 475 670Q475 683 488 683Q501 683 501 670Q501 666 497 660V654Z" />
<glyph unicode="&#xf6;" glyph-name="odieresis" horiz-adv-x="276" d="M241 105Q241 77 232 51T200 7T138 -10Q99 -10 77 7T45 50T35 105V395Q35 424 44 450T76 493T138 510Q177 510 199 493T231 450T241 395V105ZM55 105Q55 82 62 60T88 24T138 10Q171 10 189
24T214 60T221 105V395Q221 418 214 439T189 475T138 490Q107 490 89 476T63 440T55 395V105ZM92 620Q95 617 95 612Q95 599 82 599Q69 599 69 612Q69 617 72 620V649Q69 654 69 658Q69 671 82 671Q95 671 95 658Q95 654 92 649V620ZM205 620Q208 617 208 612Q208
599 195 599Q182 599 182 612Q182 617 185 620V649Q182 654 182 658Q182 671 195 671Q208 671 208 658Q208 654 205 649V620Z" />
<glyph unicode="&#xf7;" glyph-name="divide" horiz-adv-x="353" d="M193 137Q187 130 176 130Q166 130 160 136T154 152Q154 162 160 168T176 175Q187 175 193 169T199 152Q199 143 193 137ZM193 368Q187 361 176 361Q166 361 160 367T154 383Q154 393 160 399T176
406Q187 406 193 400T199 383Q199 374 193 368ZM297 536Q302 539 306 539Q319 539 319 526Q319 513 306 513Q302 513 297 516H54Q51 513 46 513Q33 513 33 526Q33 539 46 539Q51 539 54 536H297Z" />
<glyph unicode="&#xf8;" glyph-name="oslash" horiz-adv-x="291" d="M249 105Q249 77 240 51T208 7T146 -10Q116 -10 97 0T64 26Q54 40 48 60L4 -19Q4 -20 4 -20T5 -23Q5 -36 -8 -36Q-21 -36 -21 -23Q-21 -13 -12 -10L43 88Q42 93 42 97T42 105V395Q42 424 51
450T84 493T146 510Q175 510 194 500T226 474Q236 459 242 442L285 519V523Q285 536 298 536Q311 536 311 523Q311 514 302 510L248 414Q248 409 248 405T249 395V105ZM225 429Q219 454 200 472T146 490Q115 490 97 476T71 440T63 395V123L227 416Q227 421 225
429ZM66 70Q73 45 92 28T146 10Q178 10 196 24T221 60T229 105V379L63 86Q64 82 64 79T66 70Z" />
<glyph unicode="&#xf9;" glyph-name="ugrave" horiz-adv-x="284" d="M244 11Q247 8 247 3Q247 -10 234 -10Q221 -10 221 3Q221 8 224 11V37Q211 13 192 2T141 -10Q102 -10 80 7T48 50T38 105V488Q35 493 35 497Q35 510 48 510Q61 510 61 497Q61 493 58 488V105Q58
82 65 60T91 24T141 10Q185 10 204 38T224 100V488Q221 493 221 497Q221 510 234 510Q247 510 247 497Q247 493 244 488V11ZM171 596Q183 594 183 583Q183 570 170 570Q157 570 157 583L56 684Q43 684 43 697Q43 710 56 710Q65 710 69 698L171 596Z" />
<glyph unicode="&#xfa;" glyph-name="uacute" horiz-adv-x="284" d="M244 11Q247 8 247 3Q247 -10 234 -10Q221 -10 221 3Q221 8 224 11V37Q211 13 192 2T141 -10Q102 -10 80 7T48 50T38 105V488Q35 493 35 497Q35 510 48 510Q61 510 61 497Q61 493 58 488V105Q58
82 65 60T91 24T141 10Q185 10 204 38T224 100V488Q221 493 221 497Q221 510 234 510Q247 510 247 497Q247 493 244 488V11ZM139 583Q139 570 126 570Q113 570 113 583Q113 595 125 596L227 698Q227 710 240 710Q253 710 253 697Q253 684 240 684L139 583Z" />
<glyph unicode="&#xfb;" glyph-name="ucircumflex" horiz-adv-x="284" d="M244 11Q247 8 247 3Q247 -10 234 -10Q221 -10 221 3Q221 8 224 11V37Q211 13 192 2T141 -10Q102 -10 80 7T48 50T38 105V488Q35 493 35 497Q35 510 48 510Q61 510 61 497Q61 493 58 488V105Q58
82 65 60T91 24T141 10Q185 10 204 38T224 100V488Q221 493 221 497Q221 510 234 510Q247 510 247 497Q247 493 244 488V11ZM512 596Q524 594 524 583Q524 570 511 570Q498 570 498 583L397 684L296 583Q296 570 283 570Q270 570 270 583Q270 594 282 596L384 698Q384
710 397 710Q406 710 410 698L512 596Z" />
<glyph unicode="&#xfc;" glyph-name="udieresis" horiz-adv-x="284" d="M244 11Q247 8 247 3Q247 -10 234 -10Q221 -10 221 3Q221 8 224 11V37Q211 13 192 2T141 -10Q102 -10 80 7T48 50T38 105V488Q35 493 35 497Q35 510 48 510Q61 510 61 497Q61 493 58 488V105Q58
82 65 60T91 24T141 10Q185 10 204 38T224 100V488Q221 493 221 497Q221 510 234 510Q247 510 247 497Q247 493 244 488V11ZM94 620Q97 617 97 612Q97 599 84 599Q71 599 71 612Q71 617 74 620V649Q71 654 71 658Q71 671 84 671Q97 671 97 658Q97 654 94 649V620ZM207
620Q210 617 210 612Q210 599 197 599Q184 599 184 612Q184 617 187 620V649Q184 654 184 658Q184 671 197 671Q210 671 210 658Q210 654 207 649V620Z" />
<glyph unicode="&#xfd;" glyph-name="yacute" horiz-adv-x="252" d="M116 -92Q110 -118 101 -143T74 -186T22 -206Q20 -207 18 -208T13 -210Q0 -210 0 -197Q0 -184 13 -184Q17 -184 21 -186Q49 -184 63 -170T84 -134T96 -92L116 4L12 487Q8 490 8 497Q8 510 21
510Q34 510 34 497Q34 493 32 490L127 52L221 490Q221 491 221 492T220 494V497Q220 510 233 510Q246 510 246 497Q246 490 241 487L137 6L116 -92ZM112 583Q112 570 99 570Q86 570 86 583Q86 595 98 596L200 698Q200 710 213 710Q226 710 226 697Q226 684 213
684L112 583Z" />
<glyph unicode="&#xfe;" glyph-name="thorn" horiz-adv-x="280" d="M60 -188Q63 -192 63 -197Q63 -210 50 -210Q37 -210 37 -197Q37 -192 40 -188V688Q37 693 37 697Q37 710 50 710Q63 710 63 697Q63 693 60 688V468Q74 487 93 498T143 510Q183 510 205 493T237
450T246 395V105Q246 77 237 51T206 7T143 -10Q113 -10 94 1T60 32V-188ZM60 105Q60 83 68 61T94 25T143 10Q176 10 194 24T219 60T226 105V395Q226 418 219 439T194 475T143 490Q115 490 97 476T69 440T60 395V105Z" />
<glyph unicode="&#xff;" glyph-name="ydieresis" horiz-adv-x="252" d="M116 -92Q110 -118 101 -143T74 -186T22 -206Q20 -207 18 -208T13 -210Q0 -210 0 -197Q0 -184 13 -184Q17 -184 21 -186Q49 -184 63 -170T84 -134T96 -92L116 4L12 487Q8 490 8 497Q8 510
21 510Q34 510 34 497Q34 493 32 490L127 52L221 490Q221 491 221 492T220 494V497Q220 510 233 510Q246 510 246 497Q246 490 241 487L137 6L116 -92ZM82 620Q85 617 85 612Q85 599 72 599Q59 599 59 612Q59 617 62 620V649Q59 654 59 658Q59 671 72 671Q85 671
85 658Q85 654 82 649V620ZM195 620Q198 617 198 612Q198 599 185 599Q172 599 172 612Q172 617 175 620V649Q172 654 172 658Q172 671 185 671Q198 671 198 658Q198 654 195 649V620Z" />
<glyph unicode="&#x2013;" glyph-name="endash" horiz-adv-x="331" d="M286 301Q291 304 295 304Q308 304 308 291Q308 278 295 278Q291 278 286 281H43Q40 278 35 278Q22 278 22 291Q22 304 35 304Q40 304 43 301H286Z" />
<glyph unicode="&#x2014;" glyph-name="emdash" horiz-adv-x="412" d="M367 301Q372 304 376 304Q389 304 389 291Q389 278 376 278Q372 278 367 281H43Q40 278 35 278Q22 278 22 291Q22 304 35 304Q40 304 43 301H367Z" />
<glyph unicode="&#x2018;" glyph-name="quoteleft" horiz-adv-x="109" d="M77 614V616L50 665H48Q37 665 31 671T25 687Q25 697 31 703T48 710Q59 710 64 704T70 687Q70 680 67 675L94 627Q103 624 103 614Q103 601 90 601Q77 601 77 614Z" />
<glyph unicode="&#x2019;" glyph-name="quoteright" horiz-adv-x="109" d="M32 614Q32 601 19 601Q6 601 6 614Q6 624 15 627L42 675Q39 680 39 687Q39 697 45 703T61 710Q72 710 78 704T84 687Q84 678 78 672T61 665H59L32 616V614Z" />
<glyph unicode="&#x201a;" glyph-name="quotesinglbase" horiz-adv-x="109" d="M32 -61Q32 -74 19 -74Q6 -74 6 -61Q6 -51 15 -48L42 0Q39 5 39 12Q39 22 45 28T61 35Q72 35 78 29T84 12Q84 3 78 -3T61 -10H59L32 -59V-61Z" />
<glyph unicode="&#x201c;" glyph-name="quotedblleft" horiz-adv-x="201" d="M77 614V616L50 665H48Q37 665 31 671T25 687Q25 697 31 703T48 710Q59 710 64 704T70 687Q70 680 67 675L94 627Q103 624 103 614Q103 601 90 601Q77 601 77 614ZM168 614V616L141
665H139Q128 665 122 671T116 687Q116 697 122 703T139 710Q150 710 155 704T161 687Q161 680 158 675L185 627Q194 624 194 614Q194 601 181 601Q168 601 168 614Z" />
<glyph unicode="&#x201d;" glyph-name="quotedblright" horiz-adv-x="201" d="M32 614Q32 601 19 601Q6 601 6 614Q6 624 15 627L42 675Q39 680 39 687Q39 697 45 703T61 710Q72 710 78 704T84 687Q84 678 78 672T61 665H59L32 616V614ZM123 614Q123 601 110 601Q97
601 97 614Q97 624 106 627L133 675Q130 680 130 687Q130 697 136 703T152 710Q163 710 169 704T175 687Q175 678 169 672T152 665H150L123 616V614Z" />
<glyph unicode="&#x201e;" glyph-name="quotedblbase" horiz-adv-x="201" d="M32 -61Q32 -74 19 -74Q6 -74 6 -61Q6 -51 15 -48L42 0Q39 5 39 12Q39 22 45 28T61 35Q72 35 78 29T84 12Q84 3 78 -3T61 -10H59L32 -59V-61ZM123 -61Q123 -74 110 -74Q97 -74 97 -61Q97
-51 106 -48L133 0Q130 5 130 12Q130 22 136 28T152 35Q163 35 169 29T175 12Q175 3 169 -3T152 -10H150L123 -59V-61Z" />
<glyph unicode="&#x2022;" glyph-name="bullet" horiz-adv-x="116" d="M74 395Q68 388 57 388Q47 388 41 394T35 410Q35 420 41 426T57 433Q68 433 74 427T80 410Q80 401 74 395Z" />
<glyph unicode="&#x2039;" glyph-name="guilsinglleft" horiz-adv-x="266" d="M214 81Q226 79 226 68Q226 55 213 55Q200 55 200 68L35 232Q22 232 22 245Q22 255 34 258L200 423Q200 435 213 435Q226 435 226 422Q226 409 213 409L48 245L214 81Z" />
<glyph unicode="&#x203a;" glyph-name="guilsinglright" d="M52 81L218 245L53 409Q40 409 40 422Q40 435 53 435Q66 435 66 423L232 258Q244 255 244 245Q244 232 231 232L66 68Q66 55 53 55Q40 55 40 68Q40 79 52 81Z" />
</font>
</defs>
</svg>
