<?xml version="1.0" standalone="no"?>
<!DOCTYPE svg PUBLIC "-//W3C//DTD SVG 1.1//EN" "http://www.w3.org/Graphics/SVG/1.1/DTD/svg11.dtd">
<svg xmlns="http://www.w3.org/2000/svg">
<defs >
<font id="Offside" horiz-adv-x="572" ><font-face
    font-family="Offside"
    units-per-em="1000"
    panose-1="0 0 0 0 0 0 0 0 0 0"
    ascent="996"
    descent="-265"
    alphabetic="0" />
<glyph unicode=" " glyph-name="space" horiz-adv-x="370" />
<glyph unicode="!" glyph-name="exclam" horiz-adv-x="301" d="M200 786L183 269Q183 247 150 247Q136 247 127 253T117 269Q114 365 111 457T106 624T102 743T100 787Q100 802 115 808T150 815Q171 815 185 809T200 786ZM193 94V9Q193 -4 181 -9T151 -15Q132
-15 120 -10T108 9V94Q108 108 120 113T150 118Q169 118 181 113T193 94Z" />
<glyph unicode="&quot;" glyph-name="quotedbl" horiz-adv-x="354" d="M134 757L126 543Q126 525 92 525Q58 525 58 543Q55 623 54 667T51 731T50 754T50 758Q50 781 92 781Q134 781 134 757ZM304 757L296 543Q296 525 262 525Q228 525 228 543Q225 623 224 667T221
731T220 754T220 758Q220 781 262 781Q304 781 304 757Z" />
<glyph unicode="#" glyph-name="numbersign" horiz-adv-x="600" d="M34 516H170L214 732Q218 745 229 750T256 755Q286 755 286 738Q286 737 286 733T283 721L241 516H420L464 732Q467 745 478 750T506 755Q536 755 536 738Q536 737 536 733T533 721L491 516H611Q622
516 626 506T631 481Q631 466 627 456T611 446H476L446 296H567Q578 296 582 286T587 261Q587 246 583 236T567 226H431L387 8Q383 -5 372 -10T345 -15Q332 -15 323 -11T314 2Q314 4 318 19L360 226H181L137 8Q133 -5 122 -10T95 -15Q82 -15 73 -11T64 2Q64 4 68
19L110 226H-11Q-22 226 -26 236T-31 261Q-31 276 -27 286T-11 296H125L155 446H34Q23 446 19 456T14 481Q14 496 18 506T34 516ZM226 446L196 296H375L405 446H226Z" />
<glyph unicode="$" glyph-name="dollar" horiz-adv-x="600" d="M339 822V740H480Q491 740 495 730T500 705Q500 691 496 681T480 670H339V403Q394 391 435 377T500 334T523 248V166Q523 83 488 42T365 0H339V-82Q339 -95 329 -100T303 -105Q288 -105 278 -100T267
-82V0H103Q92 0 88 10T83 35Q83 49 87 59T103 70H267V347L238 354Q181 367 146 384T96 436T80 530V574Q80 657 115 698T238 740H267V822Q267 835 277 840T303 845Q319 845 329 840T339 822ZM160 532Q160 494 167 474T192 443T238 426L267 419V670H238Q195 670 178
647T160 574V532ZM443 166V256Q443 290 416 304T339 331V70H365Q409 70 426 93T443 166Z" />
<glyph unicode="%" glyph-name="percent" horiz-adv-x="1011" d="M608 721L459 8Q456 -5 447 -10T425 -15Q415 -15 408 -11T400 2Q400 3 403 19L552 732Q557 755 586 755Q611 755 611 738Q611 737 611 737T608 721ZM942 386V98Q942 59 921 35T865 1T787 -10Q722
-10 678 14T634 98V386Q634 426 655 449T712 482T791 493Q856 493 899 469T942 386ZM699 393V91Q699 68 724 59T787 49Q825 49 851 58T878 91V393Q878 416 854 425T791 435Q753 435 726 426T699 393ZM378 642V354Q378 315 357 291T301 257T223 246Q158 246 114
270T70 354V642Q70 682 91 705T148 738T227 749Q292 749 335 725T378 642ZM135 649V347Q135 324 160 315T223 305Q261 305 287 314T314 347V649Q314 672 290 681T227 691Q189 691 162 682T135 649Z" />
<glyph unicode="&amp;" glyph-name="ampersand" horiz-adv-x="703" d="M332 755Q386 755 431 740T504 691T531 597V582Q531 569 520 564T491 559Q475 559 463 564T451 582V607Q451 651 416 668T327 685Q270 685 230 668T190 607V504Q190 461 218 439T298 416H683Q694
416 698 406T703 381Q703 367 699 357T683 346H543V-83Q543 -110 550 -127T565 -154T573 -171Q573 -179 564 -188T543 -203T522 -210Q508 -210 495 -193T472 -149T463 -93V23Q441 3 406 -6T323 -15Q262 -15 211 0T130 50T100 143V258Q100 316 123 344T188 382Q151
393 131 421T110 504V597Q110 656 140 690T220 740T332 755ZM180 258V133Q180 90 222 73T325 55Q385 55 424 72T463 133V346H288Q236 346 208 324T180 258Z" />
<glyph unicode="&apos;" glyph-name="quotesingle" horiz-adv-x="184" d="M134 757L126 543Q126 525 92 525Q58 525 58 543Q55 623 54 667T51 731T50 754T50 758Q50 781 92 781Q134 781 134 757Z" />
<glyph unicode="(" glyph-name="parenleft" horiz-adv-x="360" d="M200 370Q200 259 233 146T328 -60Q330 -64 330 -67Q330 -82 301 -94Q282 -100 274 -100Q261 -100 255 -90Q226 -51 202 3T159 120T130 247T120 370Q120 429 130 493T158 619T201 736T255 830Q261
840 274 840Q282 840 301 834Q330 820 330 807Q330 804 328 800Q267 707 234 595T200 370Z" />
<glyph unicode=")" glyph-name="parenright" horiz-adv-x="360" d="M160 370Q160 482 127 594T32 800Q30 804 30 807Q30 820 59 834Q77 840 86 840Q98 840 105 830Q134 791 158 737T201 620T230 493T240 370Q240 311 230 247T202 121T159 4T105 -90Q98 -100 86
-100Q77 -100 59 -94Q30 -82 30 -67Q30 -64 32 -60Q93 33 126 146T160 370Z" />
<glyph unicode="*" glyph-name="asterisk" horiz-adv-x="618" d="M309 802Q325 802 338 797T351 778Q351 778 351 773T348 741T340 650Q339 640 330 635T309 630Q296 630 288 635T278 650Q273 714 271 740T268 772T267 778Q267 791 280 796T309 802ZM154 709L257
638Q263 634 264 631T265 623Q265 610 256 596T236 582Q231 582 220 587L111 638Q100 644 100 657Q100 674 114 693T142 713Q144 713 147 713T154 709ZM361 638L464 709Q467 712 470 712T476 713Q490 713 504 694T518 657Q518 644 507 638L398 587Q387 582 382
582Q371 582 362 596T353 623Q353 628 354 631T361 638ZM257 506L154 434Q150 432 147 432T142 431Q129 431 115 450T100 487Q100 501 111 506L220 557Q231 562 236 562Q247 562 256 548T265 521Q265 517 264 514T257 506ZM464 434L361 506Q355 510 354 513T353
521Q353 534 362 548T382 562Q387 562 398 557L507 506Q518 501 518 487Q518 470 504 451T476 431Q474 431 471 431T464 434ZM309 342Q293 342 280 347T267 366Q267 366 267 371T270 404T278 494Q279 504 287 509T309 514Q321 514 330 509T340 494Q346 431 348
404T350 372T351 366Q351 353 338 348T309 342Z" />
<glyph unicode="+" glyph-name="plus" horiz-adv-x="600" d="M265 166V336H95Q75 336 75 371Q75 406 95 406H265V576Q265 596 300 596Q335 596 335 576V406H505Q525 406 525 371Q525 336 505 336H335V166Q335 146 300 146Q265 146 265 166Z" />
<glyph unicode="," glyph-name="comma" horiz-adv-x="201" d="M143 94V-17Q143 -47 125 -100L116 -124Q113 -133 101 -133Q88 -133 74 -125T59 -110Q59 -105 61 -101L76 -61Q80 -50 81 -45T82 -36Q82 -19 70 -8T58 22V94Q58 118 100 118Q143 118 143 94Z" />
<glyph unicode="-" glyph-name="hyphen" horiz-adv-x="465" d="M70 359H395Q415 359 415 324Q415 289 395 289H70Q50 289 50 324Q50 359 70 359Z" />
<glyph unicode="." glyph-name="period" horiz-adv-x="201" d="M143 94V9Q143 -15 101 -15Q58 -15 58 9V94Q58 118 100 118Q143 118 143 94Z" />
<glyph unicode="/" glyph-name="slash" horiz-adv-x="377" d="M343 811L103 -82Q95 -105 61 -105Q30 -105 30 -88Q30 -88 34 -71L274 822Q280 845 316 845Q347 845 347 828Q347 824 343 811Z" />
<glyph unicode="0" glyph-name="zero" horiz-adv-x="600" d="M533 597V143Q533 67 473 26T298 -15Q186 -15 128 25T70 143V597Q70 674 130 714T305 755Q417 755 475 715T533 597ZM150 607V133Q150 93 188 74L348 683Q338 684 328 684T305 685Q229 685 190 665T150
607ZM453 133V607Q453 647 413 667L252 57Q263 56 274 56T298 55Q374 55 413 75T453 133Z" />
<glyph unicode="1" glyph-name="one" horiz-adv-x="600" d="M150 0Q130 0 130 35Q130 70 150 70H280V670H150Q130 670 130 705Q130 740 150 740H300Q336 740 348 726T360 668V70H490Q510 70 510 35Q510 0 490 0H150Z" />
<glyph unicode="2" glyph-name="two" horiz-adv-x="600" d="M80 0Q60 0 60 35Q60 57 69 67L387 452Q419 490 431 513T443 562V574Q443 626 425 648T365 670H123Q103 670 103 705Q103 740 123 740H365Q448 740 485 701T523 574V557Q523 531 506 494T459 421L169
70H503Q523 70 523 35Q523 0 503 0H80Z" />
<glyph unicode="3" glyph-name="three" horiz-adv-x="600" d="M296 -15Q188 -15 129 26T70 143V187Q70 210 110 210Q150 210 150 187V133Q150 96 188 76T296 55Q367 55 407 75T447 133V256Q447 303 431 318T361 334H189Q169 334 169 369Q169 404 189 404H330L377
452Q433 508 433 562V574Q433 626 415 648T355 670H123Q103 670 103 705Q103 740 123 740H355Q438 740 475 701T513 574V557Q513 526 495 488T449 421L427 399Q481 389 504 356T527 256V143Q527 68 467 27T296 -15Z" />
<glyph unicode="4" glyph-name="four" horiz-adv-x="600" d="M109 489L222 740Q226 750 241 750Q249 750 268 744Q297 730 297 717Q297 714 295 710L181 458Q159 409 147 379T130 329T125 293V288Q125 254 143 242T211 230H390V508Q390 531 430 531Q470 531 470
508V230H523Q543 230 543 195Q543 160 523 160H470V18Q470 -5 430 -5Q390 -5 390 18V160H211Q123 160 84 189T45 286V299Q45 323 60 368T109 489Z" />
<glyph unicode="5" glyph-name="five" horiz-adv-x="600" d="M341 334L148 376Q120 382 110 396T100 447V564Q100 659 136 699T258 740H490Q510 740 510 705Q510 670 490 670H258Q215 670 198 646T180 564V442L341 407Q419 390 461 371T520 324T537 248V143Q537
68 477 27T306 -15Q198 -15 139 26T80 143V187Q80 210 120 210Q160 210 160 187V133Q160 96 198 76T306 55Q377 55 417 75T457 133V256Q457 287 433 303T341 334Z" />
<glyph unicode="6" glyph-name="six" horiz-adv-x="600" d="M306 -15Q198 -15 139 26T80 143V564Q80 659 116 699T238 740H490Q510 740 510 705Q510 670 490 670H238Q195 670 178 646T160 564V443L341 416Q416 405 458 387T519 338T537 258V143Q537 68 477 27T306
-15ZM306 55Q377 55 417 75T457 133V266Q457 298 431 316T341 344L160 371V133Q160 96 198 76T306 55Z" />
<glyph unicode="7" glyph-name="seven" horiz-adv-x="600" d="M439 411L255 0Q251 -10 236 -10Q227 -10 209 -4Q180 8 180 23Q180 26 182 30L367 442Q389 490 401 520T418 570T423 607V612Q423 646 405 658T337 670H100Q80 670 80 705Q80 740 100 740H337Q425
740 464 711T503 614V601Q503 577 488 532T439 411Z" />
<glyph unicode="8" glyph-name="eight" horiz-adv-x="600" d="M467 441L387 359L451 318Q489 293 512 253T536 173V143Q536 67 474 26T296 -15Q184 -15 124 26T63 143V173Q63 201 80 234T127 299L211 384L153 422Q115 447 92 487T68 567V597Q68 674 128 714T303
755Q414 755 472 715T531 597V567Q531 539 514 505T467 441ZM204 477L324 399L395 472Q428 506 439 526T451 572V607Q451 645 412 665T302 685Q229 685 189 665T148 607V572Q148 513 204 477ZM400 263L273 344L199 268Q166 234 155 214T143 168V133Q143 96 183
76T297 55Q371 55 413 75T456 133V168Q456 226 400 263Z" />
<glyph unicode="9" glyph-name="nine" horiz-adv-x="600" d="M520 597V143Q520 68 460 27T289 -15Q181 -15 122 26T63 143V187Q63 210 103 210Q143 210 143 187V133Q143 96 181 76T289 55Q360 55 400 75T440 133V297L259 324Q185 335 142 353T81 402T63 482V597Q63
672 124 713T294 755Q402 755 461 714T520 597ZM143 607V474Q143 441 170 423T259 396L440 369V607Q440 644 402 664T294 685Q224 685 184 665T143 607Z" />
<glyph unicode=":" glyph-name="colon" horiz-adv-x="201" d="M143 94V9Q143 -15 101 -15Q58 -15 58 9V94Q58 118 100 118Q143 118 143 94ZM143 494V409Q143 385 101 385Q58 385 58 409V494Q58 518 100 518Q143 518 143 494Z" />
<glyph unicode=";" glyph-name="semicolon" horiz-adv-x="201" d="M143 94V-17Q143 -47 125 -100L116 -124Q113 -133 101 -133Q88 -133 74 -125T59 -110Q59 -105 61 -101L76 -61Q80 -50 81 -45T82 -36Q82 -19 70 -8T58 22V94Q58 118 100 118Q143 118 143 94ZM143
494V409Q143 385 101 385Q58 385 58 409V494Q58 518 100 518Q143 518 143 494Z" />
<glyph unicode="&lt;" glyph-name="less" horiz-adv-x="600" d="M80 370Q80 419 95 444T142 482T217 507L500 584Q513 584 516 571T520 546Q520 529 515 518T497 504L228 429Q194 420 177 413T155 396T150 370Q150 354 155 345T177 328T228 311L497 236Q510 234
515 223T520 194Q520 185 517 171T500 156L217 233Q173 245 142 258T96 296T80 370Z" />
<glyph unicode="=" glyph-name="equal" horiz-adv-x="600" d="M95 516H505Q525 516 525 481Q525 446 505 446H95Q75 446 75 481Q75 516 95 516ZM95 296H505Q525 296 525 261Q525 226 505 226H95Q75 226 75 261Q75 296 95 296Z" />
<glyph unicode="&gt;" glyph-name="greater" horiz-adv-x="600" d="M520 370Q520 322 505 297T459 258T383 233L100 156Q86 156 83 170T80 194Q80 211 85 222T103 236L372 311Q407 321 423 328T445 344T450 370Q450 387 445 396T424 412T372 429L103 504Q90 506
85 517T80 546Q80 558 83 571T100 584L383 507Q428 495 458 482T504 444T520 370Z" />
<glyph unicode="?" glyph-name="question" horiz-adv-x="467" d="M252 395L249 269Q249 247 216 247Q202 247 193 253T183 269L177 448L244 466Q288 478 312 493T337 544V667Q337 696 320 713T275 737T217 745Q187 745 160 738T117 713T100 667V613Q100 600 89
595T60 590Q44 590 32 595T20 613V657Q20 716 49 750T124 800T217 815Q265 815 311 800T387 751T417 657V552Q417 495 395 466T335 422T252 395ZM259 94V9Q259 -4 247 -9T217 -15Q198 -15 186 -10T174 9V94Q174 108 186 113T216 118Q235 118 247 113T259 94Z" />
<glyph unicode="@" glyph-name="at" horiz-adv-x="1081" d="M911 69H784Q729 69 697 84T651 143T635 267L634 295L497 281Q452 277 441 262T429 213V206Q429 172 440 155T496 137H594Q606 137 611 127T616 103Q616 89 611 79T594 69H496Q420 69 386 99T352 206V213Q352
264 365 291T409 331T490 349L632 363L630 472Q629 505 598 518T521 532H407Q394 532 390 542T386 566Q386 581 390 590T407 600H521Q573 600 614 587T681 545T707 464L712 276Q714 215 719 185T740 146T784 137H891V529Q891 602 847 644T725 706T549 725Q475 725
410 715T296 681T218 621T190 529V130Q190 58 234 15T356 -47T532 -66H949Q961 -66 966 -77T971 -104Q971 -119 966 -130T949 -141H532Q441 -141 364 -127T230 -81T142 3T110 130V529Q110 604 144 656T239 739T379 785T549 800Q640 800 717 786T851 740T939 656T971
529V138Q971 100 961 85T911 69Z" />
<glyph unicode="A" glyph-name="A" horiz-adv-x="683" d="M150 -5Q110 -5 110 18V597Q110 674 171 714T347 755Q458 755 515 715T573 597V18Q573 -5 533 -5Q493 -5 493 18V289H190V18Q190 -5 150 -5ZM190 607V359H493V607Q493 645 455 665T342 685Q268 685 229
665T190 607Z" />
<glyph unicode="B" glyph-name="B" horiz-adv-x="628" d="M325 -5H258Q173 -5 137 36T100 171V597Q100 674 156 714T320 755Q427 755 482 715T538 597V504Q538 454 519 425T456 382Q506 371 527 341T548 258V153Q548 77 491 36T325 -5ZM360 346H235Q215 346 215
381Q215 416 235 416H350Q458 416 458 504V607Q458 645 423 665T319 685Q180 685 180 607V171Q180 113 197 89T258 65H323Q394 65 431 85T468 143V258Q468 346 360 346Z" />
<glyph unicode="C" glyph-name="C" horiz-adv-x="633" d="M180 607V133Q180 95 218 75T330 55Q473 55 473 133V205Q473 228 513 228Q553 228 553 205V143Q553 66 497 26T330 -15Q218 -15 159 26T100 143V597Q100 674 159 714T330 755Q440 755 496 715T553 597V535Q553
512 513 512Q473 512 473 535V607Q473 685 330 685Q257 685 219 665T180 607Z" />
<glyph unicode="D" glyph-name="D" horiz-adv-x="683" d="M110 75V665Q110 711 121 725T170 740H378Q481 740 527 703T573 582V158Q573 75 527 38T378 0H170Q133 0 122 14T110 75ZM190 70H378Q443 70 468 87T493 148V592Q493 636 468 653T378 670H190V70Z" />
<glyph unicode="E" glyph-name="E" horiz-adv-x="603" d="M332 755Q428 755 479 714T531 597V582Q531 559 491 559Q451 559 451 582V607Q451 685 327 685Q260 685 225 665T190 607V504Q190 416 298 416H373Q393 416 393 381Q393 346 373 346H288Q180 346 180 258V133Q180
95 217 75T325 55Q463 55 463 133V205Q463 228 503 228Q543 228 543 205V143Q543 66 487 26T323 -15Q215 -15 158 26T100 143V258Q100 311 121 341T192 382Q148 395 129 424T110 504V597Q110 674 167 714T332 755Z" />
<glyph unicode="F" glyph-name="F" horiz-adv-x="490" d="M420 346H190V18Q190 -5 150 -5Q110 -5 110 18V564Q110 659 146 699T268 740H460Q480 740 480 705Q480 670 460 670H268Q225 670 208 646T190 564V416H420Q440 416 440 381Q440 346 420 346Z" />
<glyph unicode="G" glyph-name="G" horiz-adv-x="643" d="M483 133V231Q483 282 465 300T397 319H320Q300 319 300 354Q300 389 320 389H397Q486 389 524 353T563 231V143Q563 67 503 26T328 -15Q216 -15 158 25T100 143V597Q100 674 158 714T327 755Q436 755
492 715T548 597V542Q548 519 508 519Q468 519 468 542V607Q468 685 327 685Q256 685 218 665T180 607V133Q180 55 328 55Q404 55 443 75T483 133Z" />
<glyph unicode="H" glyph-name="H" horiz-adv-x="683" d="M573 722V18Q573 -5 533 -5Q493 -5 493 18V329H190V18Q190 -5 150 -5Q110 -5 110 18V722Q110 745 150 745Q190 745 190 722V399H493V722Q493 745 533 745Q573 745 573 722Z" />
<glyph unicode="I" glyph-name="I" horiz-adv-x="320" d="M160 -5Q120 -5 120 18V722Q120 745 160 745Q200 745 200 722V18Q200 -5 160 -5Z" />
<glyph unicode="J" glyph-name="J" horiz-adv-x="503" d="M313 133V722Q313 745 353 745Q393 745 393 722V143Q393 69 342 27T201 -15Q111 -15 61 27T10 143V265Q10 288 50 288Q90 288 90 265V133Q90 55 201 55Q313 55 313 133Z" />
<glyph unicode="K" glyph-name="K" horiz-adv-x="614" d="M515 -5Q497 -5 489 0T476 18L405 276Q399 300 391 311T364 326T310 330H244Q224 330 224 365Q224 400 244 400H293Q327 400 344 404T369 421T384 454L456 722Q460 735 468 740T495 745Q533 745 533 727Q533
726 531 716T525 695L461 454Q454 429 445 412T420 384Q441 374 453 355T474 304L547 37Q549 31 551 23T553 12Q553 -5 515 -5ZM150 -5Q110 -5 110 18V722Q110 745 150 745Q190 745 190 722V18Q190 -5 150 -5Z" />
<glyph unicode="L" glyph-name="L" horiz-adv-x="460" d="M268 70H430Q450 70 450 35Q450 0 430 0H268Q183 0 147 41T110 176V722Q110 745 150 745Q190 745 190 722V176Q190 118 207 94T268 70Z" />
<glyph unicode="M" glyph-name="M" horiz-adv-x="854" d="M664 18V670Q639 670 627 667T609 652T597 616L466 97Q460 74 427 74Q394 74 388 97L257 616Q251 641 246 652T228 667T190 670V18Q190 -5 150 -5Q110 -5 110 18V668Q110 712 122 726T170 740H192Q240
740 265 734T303 707T326 644L427 229L528 644Q538 686 550 706T588 733T662 740H684Q721 740 732 726T744 665V18Q744 -5 704 -5Q664 -5 664 18Z" />
<glyph unicode="N" glyph-name="N" horiz-adv-x="713" d="M387 91L257 616Q251 641 246 652T228 667T190 670V18Q190 -5 150 -5Q110 -5 110 18V668Q110 712 122 726T170 740H192Q240 740 265 734T303 707T326 644L456 119Q462 95 467 84T485 69T523 65V717Q523
740 563 740Q603 740 603 717V70Q603 24 592 10T543 -5H521Q474 -5 449 1T411 29T387 91Z" />
<glyph unicode="O" glyph-name="O" horiz-adv-x="663" d="M563 597V143Q563 67 503 26T328 -15Q216 -15 158 25T100 143V597Q100 674 160 714T335 755Q447 755 505 715T563 597ZM180 607V133Q180 55 328 55Q404 55 443 75T483 133V607Q483 685 335 685Q259 685
220 665T180 607Z" />
<glyph unicode="P" glyph-name="P" horiz-adv-x="613" d="M240 350H327Q463 350 463 428V607Q463 645 428 665T326 685Q190 685 190 607V18Q190 -5 150 -5Q110 -5 110 18V597Q110 674 165 714T326 755Q431 755 487 715T543 597V438Q543 362 488 321T327 280H240Q220
280 220 315Q220 350 240 350Z" />
<glyph unicode="Q" glyph-name="Q" horiz-adv-x="663" d="M328 55Q348 55 348 20Q348 -15 328 -15Q216 -15 158 25T100 143V597Q100 674 160 714T335 755Q447 755 505 715T563 597V143Q563 50 479 12L529 -98Q531 -117 493 -117Q455 -117 451 -95L331 172Q330
180 341 185T372 191Q387 191 395 187T409 169L450 78Q483 96 483 133V607Q483 685 335 685Q259 685 220 665T180 607V133Q180 55 328 55Z" />
<glyph unicode="R" glyph-name="R" horiz-adv-x="644" d="M240 370H327Q463 370 463 448V607Q463 645 428 665T326 685Q190 685 190 607V18Q190 -5 150 -5Q110 -5 110 18V597Q110 674 165 714T326 755Q431 755 487 715T543 597V458Q543 412 523 384T455 342Q469
332 477 315T492 274L563 15Q565 -5 525 -5Q491 -5 486 18L423 246Q417 270 409 281T382 296T328 300H240Q220 300 220 335Q220 370 240 370Z" />
<glyph unicode="S" glyph-name="S" horiz-adv-x="617" d="M306 -15Q198 -15 139 26T80 143V187Q80 210 120 210Q160 210 160 187V133Q160 96 198 76T306 55Q377 55 417 75T457 133V246Q457 276 433 292T341 324L252 344Q190 358 156 377T108 431T94 520V597Q94
674 150 714T311 755Q416 755 471 715T527 597V553Q527 530 487 530Q447 530 447 553V607Q447 685 311 685Q244 685 209 665T174 607V522Q174 469 190 448T252 416L382 387Q442 374 475 356T523 309T537 238V143Q537 68 477 27T306 -15Z" />
<glyph unicode="T" glyph-name="T" horiz-adv-x="500" d="M40 740H460Q480 740 480 705Q480 670 460 670H290V18Q290 -5 250 -5Q210 -5 210 18V670H40Q20 670 20 705Q20 740 40 740Z" />
<glyph unicode="U" glyph-name="U" horiz-adv-x="683" d="M190 722V133Q190 55 338 55Q414 55 453 75T493 133V722Q493 745 533 745Q573 745 573 722V143Q573 67 513 26T338 -15Q226 -15 168 25T110 143V722Q110 745 149 745Q190 745 190 722Z" />
<glyph unicode="V" glyph-name="V" horiz-adv-x="636" d="M318 -15Q244 -15 210 15T161 122L51 725Q48 745 89 745Q127 745 131 722L239 133Q247 88 263 72T318 55Q356 55 372 71T397 133L505 722Q510 745 547 745Q587 745 585 725L475 122Q466 70 448 40T399
-2T318 -15Z" />
<glyph unicode="W" glyph-name="W" horiz-adv-x="984" d="M532 631L594 133Q599 90 618 73T677 55Q715 55 731 71T756 133L834 722Q839 745 876 745Q914 745 914 727Q915 728 915 727T914 725L834 122Q824 70 806 40T758 -2T677 -15Q598 -15 562 17T520 122L497
368H487L464 122Q457 48 421 17T307 -15Q230 -15 195 16T150 122L70 725Q71 726 71 727T70 727Q70 745 108 745Q146 745 150 722L228 133Q234 89 250 72T307 55Q347 55 365 72T390 133L452 631Q454 654 492 654Q529 654 532 631Z" />
<glyph unicode="X" glyph-name="X" horiz-adv-x="610" d="M61 15L138 278Q150 319 165 343T206 380Q181 392 166 416T138 482L61 725Q58 745 99 745Q132 745 137 722L212 493Q226 450 246 433T305 415Q343 415 363 432T398 493L473 722Q478 745 511 745Q551 745
549 725L472 482Q459 441 444 417T403 380Q429 368 444 344T472 278L549 15Q551 -5 511 -5Q478 -5 473 18L398 267Q385 311 364 328T305 345Q267 345 246 328T212 267L137 18Q132 -5 99 -5Q58 -5 61 15Z" />
<glyph unicode="Y" glyph-name="Y" horiz-adv-x="580" d="M534 725L447 382Q430 316 404 286T330 247V18Q330 -5 290 -5Q250 -5 250 18V248Q202 256 176 286T133 382L46 725Q43 745 84 745Q120 745 126 722L211 393Q222 349 239 332T290 315Q324 315 341 331T369
393L454 722Q458 745 496 745Q536 745 534 725Z" />
<glyph unicode="Z" glyph-name="Z" horiz-adv-x="595" d="M439 464L184 177Q157 146 149 130T140 90V70H516Q536 70 536 35Q536 0 516 0H80Q60 0 60 35V92Q60 111 63 125T75 156T104 196T156 256L411 543Q437 572 446 590T455 630V670H119Q99 670 99 705Q99 740
119 740H515Q535 740 535 705V628Q535 603 529 584T502 538T439 464Z" />
<glyph unicode="[" glyph-name="bracketleft" horiz-adv-x="360" d="M200 -30H310Q330 -30 330 -65Q330 -100 310 -100H180Q143 -100 132 -86T120 -25V765Q120 811 131 825T180 840H310Q330 840 330 805Q330 770 310 770H200V-30Z" />
<glyph unicode="\" glyph-name="backslash" horiz-adv-x="377" d="M274 -82L34 811Q30 826 30 828Q30 837 39 841T61 845Q77 845 88 840T103 822L343 -71Q347 -86 347 -88Q347 -97 339 -101T316 -105Q300 -105 289 -100T274 -82Z" />
<glyph unicode="]" glyph-name="bracketright" horiz-adv-x="360" d="M50 -30H160V770H50Q30 770 30 805Q30 840 50 840H180Q217 840 228 826T240 765V-25Q240 -71 229 -85T180 -100H50Q30 -100 30 -65Q30 -30 50 -30Z" />
<glyph unicode="^" glyph-name="asciicircum" horiz-adv-x="600" d="M300 740Q349 740 374 725T412 679T437 603L486 423Q486 410 473 407T448 403Q413 403 406 426L359 592Q350 627 343 643T326 665T300 670Q284 670 275 665T258 644T241 592L194 426Q187 403
152 403Q143 403 129 406T114 423L163 603Q175 648 188 678T226 724T300 740Z" />
<glyph unicode="_" glyph-name="underscore" horiz-adv-x="565" d="M70 0H495Q506 0 510 -10T515 -35Q515 -50 511 -60T495 -70H70Q59 -70 55 -60T50 -35Q50 -20 54 -10T70 0Z" />
<glyph unicode="`" glyph-name="grave" horiz-adv-x="305" d="M255 667Q254 667 251 668T237 674L61 758Q50 764 50 778Q50 791 58 807T76 834T96 846Q104 846 109 842L275 728Q285 722 285 713Q285 701 274 684T255 667Z" />
<glyph unicode="a" glyph-name="a" horiz-adv-x="603" d="M363 0H246Q157 0 119 36T80 158V166Q80 221 94 253T143 302T240 324L413 341V452Q413 530 277 530H140Q120 530 120 565Q120 600 140 600H277Q382 600 437 560T493 442V147Q493 105 500 82T515 47T523
29Q523 22 514 13T494 -3T472 -10Q456 -10 443 10T421 64T413 137V271L246 254Q194 249 177 231T160 166V158Q160 107 178 89T246 70H363Q383 70 383 35Q383 0 363 0Z" />
<glyph unicode="b" glyph-name="b" horiz-adv-x="643" d="M327 530H240Q220 530 220 565Q220 600 240 600H327Q432 600 487 560T543 442V143Q543 67 487 26T326 -15Q221 -15 166 26T110 143V777Q110 800 150 800Q190 800 190 777V133Q190 55 326 55Q393 55 428
75T463 133V452Q463 530 327 530Z" />
<glyph unicode="c" glyph-name="c" horiz-adv-x="596" d="M180 467V133Q180 95 213 75T308 55Q436 55 436 133V175Q436 198 476 198Q516 198 516 175V143Q516 66 463 26T308 -15Q207 -15 154 26T100 143V457Q100 534 153 574T308 615Q409 615 462 575T516 457V425Q516
402 476 402Q436 402 436 425V467Q436 545 308 545Q246 545 213 525T180 467Z" />
<glyph unicode="d" glyph-name="d" horiz-adv-x="643" d="M533 777V143Q533 67 478 26T317 -15Q212 -15 156 26T100 143V442Q100 519 155 559T316 600H403Q423 600 423 565Q423 530 403 530H316Q180 530 180 452V133Q180 95 215 75T317 55Q453 55 453 133V777Q453
800 493 800Q533 800 533 777Z" />
<glyph unicode="e" glyph-name="e" horiz-adv-x="638" d="M538 459V429Q538 374 524 342T474 293T375 271L180 252V133Q180 55 310 55Q386 55 422 72T458 123V161Q458 184 498 184Q538 184 538 161V133Q538 -15 318 -15Q213 -15 157 26T100 143V457Q100 534 160
574T333 615Q438 615 488 577T538 459ZM180 467V322L368 341Q423 346 440 363T458 429V467Q458 505 422 525T318 545Q251 545 216 525T180 467Z" />
<glyph unicode="f" glyph-name="f" horiz-adv-x="385" d="M80 600H150V657Q150 815 356 815H391Q411 815 411 780Q411 745 391 745H356Q230 745 230 667V600H345Q365 600 365 565Q365 530 345 530H230V-103Q230 -142 222 -175T201 -229T171 -250Q162 -250 150
-244T129 -228T120 -211Q120 -205 127 -194T142 -159T150 -93V530H80Q60 530 60 565Q60 600 80 600Z" />
<glyph unicode="g" glyph-name="g" horiz-adv-x="643" d="M533 442V120Q533 97 493 97Q453 97 453 120V452Q453 488 420 509T317 530Q250 530 215 510T180 452V176Q180 118 197 94T258 70H337Q437 70 485 31T533 -88V-92Q533 -172 485 -211T337 -250H110Q90 -250
90 -215Q90 -180 110 -180H337Q398 -180 425 -162T453 -102V-78Q453 -37 426 -19T337 0H258Q173 0 137 41T100 176V442Q100 519 156 559T317 600H457Q499 600 522 607T557 622T575 630Q582 630 591 621T607 601T614 579Q614 560 585 548T506 531Q533 495 533 442Z"
/>
<glyph unicode="h" glyph-name="h" horiz-adv-x="663" d="M553 457V18Q553 -5 513 -5Q473 -5 473 18V467Q473 505 438 525T336 545Q271 545 236 526T200 471V18Q200 -5 160 -5Q120 -5 120 18V777Q120 800 160 800Q200 800 200 777V574Q226 594 260 604T336 615Q441
615 497 575T553 457Z" />
<glyph unicode="i" glyph-name="i" horiz-adv-x="300" d="M190 582V117Q190 90 197 73T212 46T220 29Q220 22 211 13T191 -3T169 -10Q155 -10 141 7T119 52T110 107V582Q110 605 150 605Q190 605 190 582ZM193 708Q193 683 150 683Q106 683 106 708V795Q106 820
149 820Q193 820 193 795V708Z" />
<glyph unicode="j" glyph-name="j" horiz-adv-x="300" d="M190 582V-92Q190 -250 -16 -250H-51Q-71 -250 -71 -215Q-71 -180 -51 -180H-16Q110 -180 110 -102V582Q110 605 150 605Q190 605 190 582ZM193 708Q193 683 150 683Q106 683 106 708V795Q106 820 149
820Q193 820 193 795V708Z" />
<glyph unicode="k" glyph-name="k" horiz-adv-x="584" d="M190 18Q190 -5 150 -5Q110 -5 110 18V777Q110 800 150 800Q190 800 190 777V345H267Q301 345 318 348T344 363T362 399L429 582Q434 595 442 600T468 605Q506 605 506 587Q506 585 505 581T498 562L431
371Q422 345 406 332Q433 322 447 303T471 249L538 15Q540 -5 500 -5Q466 -5 461 18L402 221Q395 245 387 256T361 271T307 275H190V18Z" />
<glyph unicode="l" glyph-name="l" horiz-adv-x="300" d="M190 777V117Q190 90 197 73T212 46T220 29Q220 22 211 13T191 -3T169 -10Q155 -10 141 7T119 52T110 107V777Q110 800 150 800Q190 800 190 777Z" />
<glyph unicode="m" glyph-name="m" horiz-adv-x="966" d="M110 18V457Q110 533 163 574T316 615Q428 615 482 561Q536 615 649 615Q748 615 802 574T856 457V18Q856 -5 816 -5Q776 -5 776 18V467Q776 505 744 525T649 545Q523 545 523 467V18Q523 -5 483 -5Q443
-5 443 18V467Q443 505 411 525T316 545Q190 545 190 467V18Q190 -5 150 -5Q110 -5 110 18Z" />
<glyph unicode="n" glyph-name="n" horiz-adv-x="653" d="M543 457V18Q543 -5 503 -5Q463 -5 463 18V467Q463 505 428 525T326 545Q190 545 190 467V18Q190 -5 150 -5Q110 -5 110 18V457Q110 534 165 574T326 615Q431 615 487 575T543 457Z" />
<glyph unicode="o" glyph-name="o" horiz-adv-x="633" d="M533 457V143Q533 67 478 26T317 -15Q212 -15 156 26T100 143V457Q100 534 155 574T316 615Q421 615 477 575T533 457ZM453 133V467Q453 505 418 525T316 545Q180 545 180 467V133Q180 95 215 75T317 55Q453
55 453 133Z" />
<glyph unicode="p" glyph-name="p" horiz-adv-x="643" d="M240 70H327Q463 70 463 148V467Q463 505 428 525T326 545Q190 545 190 467V-232Q190 -255 150 -255Q110 -255 110 -232V457Q110 534 165 574T326 615Q431 615 487 575T543 457V158Q543 82 488 41T327
0H240Q220 0 220 35Q220 70 240 70Z" />
<glyph unicode="q" glyph-name="q" horiz-adv-x="643" d="M316 70H403Q423 70 423 35Q423 0 403 0H316Q211 0 156 41T100 158V457Q100 534 156 574T317 615Q422 615 477 575T533 457V-232Q533 -255 493 -255Q453 -255 453 -232V467Q453 545 317 545Q250 545 215
525T180 467V148Q180 70 316 70Z" />
<glyph unicode="r" glyph-name="r" horiz-adv-x="476" d="M376 417V467Q376 545 283 545Q238 545 214 525T190 467V8Q190 -15 150 -15Q110 -15 110 8V457Q110 534 154 574T283 615Q368 615 412 576T456 459V417Q456 394 416 394Q376 394 376 417Z" />
<glyph unicode="s" glyph-name="s" horiz-adv-x="612" d="M440 427V466Q440 545 311 545Q252 545 219 526T186 470V448Q186 414 191 396T212 368T260 350L347 328Q419 310 457 292T508 245T522 168V132Q522 61 466 23T305 -15Q90 -15 90 144V176Q90 188 99 193T130
198Q147 198 158 191T169 173V128Q169 90 202 73T306 55Q443 55 443 125V178Q443 208 421 225T339 258L251 280Q191 295 160 313T118 362T107 451V463Q107 537 159 576T309 615Q519 615 519 459V424Q519 403 484 403Q440 403 440 427Z" />
<glyph unicode="t" glyph-name="t" horiz-adv-x="385" d="M230 717V600H335Q355 600 355 565Q355 530 335 530H230V117Q230 90 237 73T252 46T260 29Q260 22 251 13T231 -3T209 -10Q195 -10 181 7T159 52T150 107V530H70Q50 530 50 565Q50 600 70 600H150V717Q150
740 190 740Q230 740 230 717Z" />
<glyph unicode="u" glyph-name="u" horiz-adv-x="653" d="M543 582V143Q543 67 487 26T326 -15Q221 -15 166 26T110 143V582Q110 605 150 605Q190 605 190 582V133Q190 55 326 55Q393 55 428 75T463 133V582Q463 605 503 605Q543 605 543 582Z" />
<glyph unicode="v" glyph-name="v" horiz-adv-x="610" d="M305 -15Q230 -15 196 15T148 122L71 585Q68 605 109 605Q147 605 151 582L226 133Q234 88 250 72T305 55Q343 55 360 71T384 133L459 582Q464 605 501 605Q541 605 539 585L462 122Q449 46 415 16T305 -15Z" />
<glyph unicode="w" glyph-name="w" horiz-adv-x="941" d="M367 133L432 541Q434 563 470 563Q504 563 508 541L574 133Q581 89 597 72T647 55Q680 55 694 71T716 133L791 582Q796 605 833 605Q871 605 871 587L794 122Q781 45 749 15T647 -15Q575 -15 542 15T500
122L475 329H465L441 122Q432 46 399 16T294 -15Q224 -15 192 15T147 122L70 587Q70 605 108 605Q146 605 150 582L225 133Q233 87 247 71T294 55Q328 55 344 72T367 133Z" />
<glyph unicode="x" glyph-name="x" horiz-adv-x="610" d="M86 15L133 208Q143 249 159 273T203 310Q175 323 160 347T133 412L86 585Q83 605 124 605Q159 605 166 582L211 423Q223 380 244 363T305 345Q344 345 365 362T399 423L444 582Q450 605 486 605Q526 605
524 585L477 412Q466 371 450 347T406 310Q435 298 451 274T477 208L524 15Q526 -5 486 -5Q450 -5 444 18L399 197Q389 239 367 257T305 275Q265 275 244 257T211 197L166 18Q160 -5 124 -5Q83 -5 86 15Z" />
<glyph unicode="y" glyph-name="y" horiz-adv-x="610" d="M539 585L425 -92Q414 -156 396 -190T342 -237T243 -250H171Q151 -250 151 -215Q151 -180 171 -180H243Q297 -180 319 -164T349 -102L363 -15H305Q230 -15 196 15T148 122L71 585Q68 605 109 605Q147 605
151 582L226 133Q234 88 250 72T305 55H375L463 582Q467 605 501 605Q541 605 539 585Z" />
<glyph unicode="z" glyph-name="z" horiz-adv-x="573" d="M90 0Q70 0 70 35V70Q70 89 72 103T84 131T113 168T166 224L368 431Q389 452 398 463T409 483T412 508V530H119Q99 530 99 565Q99 600 119 600H472Q492 600 492 565V510Q492 485 486 467T460 425T396 356L194
149Q175 129 166 117T153 95T150 70H473Q493 70 493 35Q493 0 473 0H90Z" />
<glyph unicode="{" glyph-name="braceleft" horiz-adv-x="360" d="M214 504Q214 403 146 381Q214 354 214 258V58Q214 10 236 -10T310 -30Q330 -30 330 -65Q330 -100 310 -100Q218 -100 176 -63T134 58V258Q134 302 125 320T86 346L71 350Q51 354 51 381Q51 406
71 412L86 416Q114 423 124 441T134 504V682Q134 765 176 802T310 840Q330 840 330 805Q330 770 310 770Q258 770 236 750T214 682V504Z" />
<glyph unicode="|" glyph-name="bar" horiz-adv-x="320" d="M196 822V-82Q196 -95 186 -100T160 -105Q145 -105 135 -100T124 -82V822Q124 835 134 840T160 845Q176 845 186 840T196 822Z" />
<glyph unicode="}" glyph-name="braceright" horiz-adv-x="360" d="M146 504V682Q146 730 125 750T50 770Q30 770 30 805Q30 840 50 840Q142 840 184 803T226 682V504Q226 460 236 442T274 416L289 412Q309 406 309 381Q309 354 289 350L274 346Q246 339 236 321T226
258V58Q226 -25 184 -62T50 -100Q30 -100 30 -65Q30 -30 50 -30Q103 -30 124 -10T146 58V258Q146 308 163 338T217 381Q180 394 163 424T146 504Z" />
<glyph unicode="~" glyph-name="asciitilde" horiz-adv-x="600" d="M525 418Q525 380 509 356T468 321T420 309Q398 309 365 317T297 336T231 355T181 363Q168 363 157 356T145 328Q145 317 135 313T110 308Q95 308 85 311T75 324Q75 362 91 386T132 421T180 433Q203
433 235 425T303 406T369 387T419 379Q433 379 444 386T455 414Q455 425 465 429T490 434Q505 434 515 431T525 418Z" />
<glyph unicode="&#xa0;" glyph-name="uni00A0" horiz-adv-x="370" />
<glyph unicode="&#xa1;" glyph-name="exclamdown" horiz-adv-x="301" d="M193 591V506Q193 493 181 488T150 482Q132 482 120 487T108 506V591Q108 605 120 610T151 615Q169 615 181 610T193 591ZM183 331L200 -186Q200 -202 186 -208T150 -215Q131 -215 116 -209T100
-187Q100 -187 101 -143T105 -25T111 142T117 331Q117 342 126 347T150 353Q183 353 183 331Z" />
<glyph unicode="&#xa2;" glyph-name="cent" horiz-adv-x="600" d="M334 -105Q298 -105 298 -82V96Q207 100 159 140T110 254V488Q110 561 158 601T298 645V822Q298 845 334 845Q370 845 370 822V646H486Q506 646 506 611Q506 576 486 576H370V166H486Q506 166
506 131Q506 96 486 96H370V-82Q370 -105 334 -105ZM190 498V244Q190 172 298 166V575Q190 569 190 498Z" />
<glyph unicode="&#xa3;" glyph-name="sterling" horiz-adv-x="600" d="M39 410H128L140 574Q144 629 159 666T207 721T298 740H490Q501 740 505 730T510 705Q510 691 506 681T490 670H298Q255 670 240 647T220 574L208 410H372Q382 410 386 401T390 379Q390 366
386 357T372 347H204L190 147Q187 103 173 70H523Q534 70 538 60T543 35Q543 20 539 10T523 0H111Q103 0 91 5T69 20T60 39Q60 45 71 56T95 91T110 157L123 347H39Q29 347 25 356T21 379Q21 393 25 401T39 410Z" />
<glyph unicode="&#xa4;" glyph-name="currency" horiz-adv-x="600" d="M299 605Q356 605 396 592L466 712Q474 726 483 730T508 735Q540 735 540 718Q540 708 532 696L454 563Q506 523 506 447V343Q506 267 454 226L532 94Q540 82 540 72Q540 55 508 55Q492 55
483 60T466 78L396 197Q356 185 300 185Q245 185 204 197L134 78Q126 65 118 60T92 55Q60 55 60 72Q60 82 68 94L146 226Q94 266 94 343V447Q94 524 145 564L68 696Q60 708 60 718Q60 735 92 735Q109 735 117 731T134 712L204 592Q224 598 247 601T299 605ZM300
255Q426 255 426 333V457Q426 535 299 535Q174 535 174 457V333Q174 255 300 255Z" />
<glyph unicode="&#xa5;" glyph-name="yen" horiz-adv-x="600" d="M53 490H130L61 725Q60 736 71 740T99 745Q136 745 141 722L237 395Q248 357 262 344T300 330H307Q327 332 340 346T363 395L459 722Q466 745 501 745Q517 745 529 741T539 725L470 490H547Q557
490 561 481T565 459Q565 446 561 437T547 427H451L447 412Q440 390 432 369T411 330H547Q557 330 561 321T565 299Q565 286 561 277T547 267H340V18Q340 5 329 0T300 -5Q284 -5 272 0T260 18V267H53Q43 267 39 276T35 299Q35 313 39 321T53 330H188Q176 347 168
368T153 412L148 427H53Q43 427 39 436T35 459Q35 473 39 481T53 490Z" />
<glyph unicode="&#xa6;" glyph-name="brokenbar" horiz-adv-x="320" d="M196 822V518Q196 505 186 500T160 495Q145 495 135 500T124 518V822Q124 835 134 840T160 845Q176 845 186 840T196 822ZM196 222V-82Q196 -95 186 -100T160 -105Q145 -105 135 -100T124
-82V222Q124 235 134 240T160 245Q176 245 186 240T196 222Z" />
<glyph unicode="&#xa7;" glyph-name="section" horiz-adv-x="590" d="M420 -54V6Q420 42 390 57T304 84L255 94Q198 106 163 123T113 175T97 270V304Q97 357 110 392T155 447Q124 467 111 500T97 590V604Q97 687 132 728T255 770H467Q478 770 482 760T487 735Q487
721 483 711T467 700H255Q212 700 195 677T177 604V592Q177 554 184 533T209 502T255 486L304 476Q363 464 407 450T475 407T500 318V236Q500 142 453 106Q476 90 488 65T500 -2V-54Q500 -137 465 -178T342 -220H110Q99 -220 95 -210T90 -185Q90 -171 94 -161T110
-150H342Q386 -150 403 -127T420 -54ZM420 236V326Q420 362 390 377T304 404L255 414Q249 415 244 416T234 418Q203 413 190 390T177 324V272Q177 234 184 213T209 182T255 166L304 156Q325 152 344 148T380 138Q402 149 411 174T420 236Z" />
<glyph unicode="&#xa8;" glyph-name="dieresis" horiz-adv-x="487" d="M187 708Q187 683 144 683Q100 683 100 708V795Q100 820 143 820Q187 820 187 795V708ZM387 708Q387 683 344 683Q300 683 300 708V795Q300 820 343 820Q387 820 387 795V708Z" />
<glyph unicode="&#xa9;" glyph-name="copyright" horiz-adv-x="795" d="M695 663V366Q695 297 655 256T546 196T395 177Q311 177 245 195T139 255T100 366V663Q100 732 141 773T251 832T403 850Q487 850 553 832T657 773T695 663ZM645 366V663Q645 717 614 748T528
792T403 805Q334 805 277 792T185 748T150 663V366Q150 312 182 281T269 236T395 222Q464 222 521 235T611 280T645 366ZM304 646V382Q304 359 331 350T396 340Q434 340 458 349T483 382V428Q483 440 493 445T516 450Q530 450 539 445T548 428V389Q548 330 505
306T396 281Q353 281 317 291T260 326T239 389V639Q239 679 260 702T317 736T396 747Q461 747 504 723T548 639V599Q548 588 539 583T516 578Q503 578 493 583T483 599V646Q483 669 459 678T396 688Q358 688 331 679T304 646Z" />
<glyph unicode="&#xaa;" glyph-name="ordfeminine" horiz-adv-x="472" d="M247 380H199Q139 380 113 404T86 487V492Q86 551 111 572T194 600L297 611V674Q297 697 274 706T218 716H131Q121 716 117 725T112 745Q112 758 116 766T131 775H218Q278 775 320 751T362
667V481Q362 452 367 438T376 417T381 405Q381 395 367 384T342 373Q327 373 312 400T297 474V552L200 541Q167 537 159 528T151 492V487Q151 463 159 451T199 438H247Q258 438 262 430T266 409Q266 397 262 389T247 380Z" />
<glyph unicode="&#xab;" glyph-name="guillemotleft" horiz-adv-x="579" d="M84 409L235 610Q240 615 247 615Q255 615 267 607T290 589T300 571Q300 565 295 560L154 359L295 158Q300 153 300 146Q300 138 290 128T267 111T247 103Q240 103 235 108L84 309Q70
329 70 360Q70 389 84 409ZM293 409L444 610Q449 615 456 615Q464 615 476 607T499 589T509 571Q509 565 504 560L363 359L504 158Q509 153 509 146Q509 138 499 128T476 111T456 103Q449 103 444 108L293 309Q279 329 279 360Q279 389 293 409Z" />
<glyph unicode="&#xac;" glyph-name="logicalnot" horiz-adv-x="600" d="M95 406H495Q514 406 519 396T525 371V198Q525 185 515 180T489 175Q474 175 464 180T453 198V336H95Q84 336 80 346T75 371Q75 386 79 396T95 406Z" />
<glyph unicode="&#xae;" glyph-name="registered" horiz-adv-x="795" d="M695 663V366Q695 297 655 256T546 196T395 177Q311 177 245 195T139 255T100 366V663Q100 732 141 773T251 832T403 850Q487 850 553 832T657 773T695 663ZM645 366V663Q645 717 614 748T528
792T403 805Q334 805 277 792T185 748T150 663V366Q150 312 182 281T269 236T395 222Q464 222 521 235T611 280T645 366ZM373 520H404Q438 520 461 529T484 563V646Q484 669 460 678T403 688Q369 688 346 679T323 646V310Q323 298 314 293T290 288Q277 288 268
293T258 310V639Q258 679 277 702T330 736T403 747Q464 747 506 723T548 639V570Q548 537 535 519T499 492Q505 485 509 476T516 455Q533 393 541 362T552 320T555 309T555 308Q555 296 546 292T524 288Q497 288 492 308L458 433Q453 452 445 457T404 462H373Q362
462 358 470T354 492Q354 505 358 512T373 520Z" />
<glyph unicode="&#xaf;" glyph-name="overscore" horiz-adv-x="507" d="M120 787H387Q407 787 407 749Q407 710 387 710H120Q100 710 100 749Q100 787 120 787Z" />
<glyph unicode="&#xb0;" glyph-name="degree" horiz-adv-x="470" d="M387 648V478Q387 439 366 415T310 381T232 370Q167 370 123 394T79 478V648Q79 688 100 711T157 744T236 755Q301 755 344 731T387 648ZM144 655V471Q144 448 169 439T232 429Q270 429 296
438T323 471V655Q323 678 299 687T236 697Q198 697 171 688T144 655Z" />
<glyph unicode="&#xb1;" glyph-name="plusminus" horiz-adv-x="600" d="M265 166V336H95Q75 336 75 371Q75 406 95 406H265V576Q265 596 300 596Q335 596 335 576V406H505Q525 406 525 371Q525 336 505 336H335V166Q335 146 300 146Q265 146 265 166ZM95 70H505Q525
70 525 35Q525 0 505 0H95Q75 0 75 35Q75 70 95 70Z" />
<glyph unicode="&#xb2;" glyph-name="uni00B2" horiz-adv-x="470" d="M381 651V641Q381 622 369 598T338 551L163 338H362Q373 338 377 330T381 309Q381 297 377 289T362 280H93Q82 280 78 288T73 309Q73 324 81 334L284 578Q300 598 308 613T317 644V651Q317
679 308 692T274 705H120Q110 705 106 714T101 734Q101 747 105 755T120 764H274Q333 764 357 736T381 651Z" />
<glyph unicode="&#xb3;" glyph-name="uni00B3" horiz-adv-x="470" d="M384 449V378Q384 339 362 315T305 281T230 270Q190 270 156 280T100 315T79 378V406Q79 418 89 422T112 427Q126 427 135 423T144 406V371Q144 348 170 339T230 329Q264 329 292 338T320 371V449Q320
473 312 482T272 492H162Q152 492 148 500T143 521Q143 534 147 542T162 551H248L277 579Q296 597 303 612T310 644V651Q310 679 301 692T268 705H120Q110 705 106 714T101 734Q101 747 105 755T120 764H268Q327 764 350 736T374 651V641Q374 622 363 596T332 550L327
545Q356 537 370 515T384 449Z" />
<glyph unicode="&#xb4;" glyph-name="acute" horiz-adv-x="305" d="M80 667Q73 667 62 684T50 713Q50 722 60 728L226 842Q231 846 239 846Q248 846 259 835T277 807T285 778Q285 764 274 758L98 674Q88 670 85 669T80 667Z" />
<glyph unicode="&#xb5;" glyph-name="uni00B5" horiz-adv-x="653" d="M543 582V143Q543 85 514 50T435 0T326 -15Q242 -15 188 27V-108Q188 -150 196 -173T212 -208T220 -226Q220 -234 211 -243T190 -258T169 -265Q148 -265 129 -225T110 -118V582Q110 595 122
600T150 605Q167 605 178 600T190 582V133Q190 90 229 73T326 55Q383 55 423 72T463 133V582Q463 595 474 600T503 605Q520 605 531 600T543 582Z" />
<glyph unicode="&#xb6;" glyph-name="paragraph" horiz-adv-x="593" d="M483 627V7Q483 -20 490 -37T505 -64T513 -81Q513 -89 504 -98T483 -113T462 -120Q448 -120 435 -103T412 -59T403 -3V320H266Q206 320 157 335T79 385T50 478V627Q50 686 79 720T157 770T267
785Q327 785 376 770T454 721T483 627Z" />
<glyph unicode="&#xb7;" glyph-name="middot" horiz-adv-x="201" d="M143 354V269Q143 245 101 245Q58 245 58 269V354Q58 378 100 378Q143 378 143 354Z" />
<glyph unicode="&#xb8;" glyph-name="cedilla" horiz-adv-x="596" d="M249 -135Q249 -151 263 -157T297 -164Q315 -164 330 -157T346 -134V-109Q346 -85 334 -78T292 -70V-34Q348 -34 380 -46T413 -108V-130Q413 -160 397 -180T353 -211T296 -222Q251 -222 217
-199T182 -130V-117Q182 -106 192 -101T215 -96Q230 -96 239 -101T249 -117V-135Z" />
<glyph unicode="&#xb9;" glyph-name="uni00B9" horiz-adv-x="470" d="M353 280H137Q127 280 123 288T118 309Q118 321 122 329T137 338H213V705H137Q127 705 123 713T118 734Q118 747 122 755T137 764H233Q263 764 270 752T278 711V338H353Q364 338 368 330T373
309Q373 297 369 289T353 280Z" />
<glyph unicode="&#xba;" glyph-name="ordmasculine" horiz-adv-x="491" d="M387 677V478Q387 419 346 395T244 370Q204 370 171 380T119 415T99 478V677Q99 736 141 760T243 785Q303 785 345 761T387 677ZM323 471V684Q323 707 300 716T243 726Q210 726 187 717T164
684V471Q164 448 187 439T244 429Q277 429 300 438T323 471Z" />
<glyph unicode="&#xbb;" glyph-name="guillemotright" horiz-adv-x="579" d="M344 610L495 409Q509 389 509 360Q509 329 495 309L344 108Q339 103 332 103Q325 103 313 110T290 128T279 146Q279 153 284 158L425 359L284 560Q279 565 279 571Q279 579 289 589T311
607T332 615Q339 615 344 610ZM135 610L286 409Q300 389 300 360Q300 329 286 309L135 108Q130 103 123 103Q116 103 104 110T81 128T70 146Q70 153 75 158L216 359L75 560Q70 565 70 571Q70 579 80 589T102 607T123 615Q130 615 135 610Z" />
<glyph unicode="&#xbc;" glyph-name="onequarter" horiz-adv-x="1011" d="M608 721L459 8Q456 -5 447 -10T425 -15Q415 -15 408 -11T400 2Q400 3 403 19L552 732Q557 755 586 755Q611 755 611 738Q611 737 611 737T608 721ZM651 321L722 480Q729 490 741 490Q758
490 770 480T783 460Q783 459 783 458T782 456L708 295Q689 252 682 231T673 190Q673 175 681 167T721 159H828V329Q828 341 837 346T860 351Q874 351 883 346T892 329V159H919Q930 159 934 151T939 131Q939 118 935 110T919 102H892V19Q892 7 883 2T860 -3Q847
-3 838 2T828 19V102H721Q660 102 635 122T609 189V196Q609 214 620 245T651 321ZM336 256H120Q110 256 106 264T101 285Q101 297 105 305T120 314H196V681H120Q110 681 106 689T101 710Q101 723 105 731T120 740H216Q246 740 253 728T261 687V314H336Q347 314
351 306T356 285Q356 273 352 265T336 256Z" />
<glyph unicode="&#xbd;" glyph-name="onehalf" horiz-adv-x="1011" d="M608 721L459 8Q456 -5 447 -10T425 -15Q415 -15 408 -11T400 2Q400 3 403 19L552 732Q557 755 586 755Q611 755 611 738Q611 737 611 737T608 721ZM926 371V361Q926 342 914 318T883 271L708
58H907Q918 58 922 50T926 29Q926 17 922 9T907 0H638Q627 0 623 8T618 29Q618 44 626 54L829 298Q845 318 853 333T862 364V371Q862 399 853 412T819 425H665Q655 425 651 434T646 454Q646 467 650 475T665 484H819Q878 484 902 456T926 371ZM336 256H120Q110
256 106 264T101 285Q101 297 105 305T120 314H196V681H120Q110 681 106 689T101 710Q101 723 105 731T120 740H216Q246 740 253 728T261 687V314H336Q347 314 351 306T356 285Q356 273 352 265T336 256Z" />
<glyph unicode="&#xbe;" glyph-name="threequarters" horiz-adv-x="1011" d="M608 721L459 8Q456 -5 447 -10T425 -15Q415 -15 408 -11T400 2Q400 3 403 19L552 732Q557 755 586 755Q611 755 611 738Q611 737 611 737T608 721ZM651 321L722 480Q729 490 741 490Q758
490 770 480T783 460Q783 459 783 458T782 456L708 295Q689 252 682 231T673 190Q673 175 681 167T721 159H828V329Q828 341 837 346T860 351Q874 351 883 346T892 329V159H919Q930 159 934 151T939 131Q939 118 935 110T919 102H892V19Q892 7 883 2T860 -3Q847
-3 838 2T828 19V102H721Q660 102 635 122T609 189V196Q609 214 620 245T651 321ZM367 425V354Q367 315 345 291T288 257T213 246Q173 246 139 256T83 291T62 354V382Q62 394 72 398T95 403Q109 403 118 399T127 382V347Q127 324 153 315T213 305Q247 305 275 314T303
347V425Q303 449 295 458T255 468H145Q135 468 131 476T126 497Q126 510 130 518T145 527H231L260 555Q279 573 286 588T293 620V627Q293 655 284 668T251 681H103Q93 681 89 690T84 710Q84 723 88 731T103 740H251Q310 740 333 712T357 627V617Q357 598 346 572T315
526L310 521Q339 513 353 491T367 425Z" />
<glyph unicode="&#xbf;" glyph-name="questiondown" horiz-adv-x="467" d="M208 506V591Q208 605 220 610T250 615Q269 615 281 610T293 591V506Q293 493 281 488T251 482Q232 482 220 487T208 506ZM215 205L218 331Q218 353 251 353Q265 353 274 348T284 331L290
152L223 134Q179 122 155 107T130 56V-67Q130 -96 147 -113T192 -137T250 -145Q281 -145 307 -138T350 -113T367 -67V-13Q367 0 378 5T407 10Q424 10 435 5T447 -13V-57Q447 -115 418 -150T343 -200T250 -215Q203 -215 157 -200T80 -150T50 -57V48Q50 105 72 134T132
178T215 205Z" />
<glyph unicode="&#xc0;" glyph-name="Agrave" horiz-adv-x="683" d="M150 -5Q110 -5 110 18V597Q110 674 171 714T347 755Q458 755 515 715T573 597V18Q573 -5 533 -5Q493 -5 493 18V289H190V18Q190 -5 150 -5ZM190 607V359H493V607Q493 645 455 665T342 685Q268
685 229 665T190 607ZM429 807Q428 807 425 808T411 814L235 898Q224 904 224 918Q224 931 232 947T250 974T270 986Q278 986 283 982L449 868Q459 862 459 853Q459 841 448 824T429 807Z" />
<glyph unicode="&#xc1;" glyph-name="Aacute" horiz-adv-x="683" d="M150 -5Q110 -5 110 18V597Q110 674 171 714T347 755Q458 755 515 715T573 597V18Q573 -5 533 -5Q493 -5 493 18V289H190V18Q190 -5 150 -5ZM190 607V359H493V607Q493 645 455 665T342 685Q268
685 229 665T190 607ZM254 807Q247 807 236 824T224 853Q224 862 234 868L400 982Q405 986 413 986Q422 986 433 975T451 947T459 918Q459 904 448 898L272 814Q262 810 259 809T254 807Z" />
<glyph unicode="&#xc2;" glyph-name="Acircumflex" horiz-adv-x="683" d="M150 -5Q110 -5 110 18V597Q110 674 171 714T347 755Q458 755 515 715T573 597V18Q573 -5 533 -5Q493 -5 493 18V289H190V18Q190 -5 150 -5ZM190 607V359H493V607Q493 645 455 665T342
685Q268 685 229 665T190 607ZM337 986H348Q349 986 352 985T357 982L477 866Q482 862 483 858T484 851Q484 838 473 823T452 807Q450 807 445 810L342 886L239 810Q235 807 232 807Q222 807 211 822T200 851Q200 854 201 858T207 866L327 982Q331 986 337 986Z"
/>
<glyph unicode="&#xc3;" glyph-name="Atilde" horiz-adv-x="683" d="M150 -5Q110 -5 110 18V597Q110 674 171 714T347 755Q458 755 515 715T573 597V18Q573 -5 533 -5Q493 -5 493 18V289H190V18Q190 -5 150 -5ZM190 607V359H493V607Q493 645 455 665T342 685Q268
685 229 665T190 607ZM271 948L412 909Q414 908 418 908Q430 908 430 933Q430 944 440 948T465 953Q480 953 490 950T500 937Q500 880 481 855T434 829Q424 829 412 832L271 871Q270 871 269 871T266 872Q253 872 253 847Q253 836 243 832T218 827Q203 827 193
830T183 843Q183 900 201 926T248 952Q253 952 259 951T271 948Z" />
<glyph unicode="&#xc4;" glyph-name="Adieresis" horiz-adv-x="683" d="M150 -5Q110 -5 110 18V597Q110 674 171 714T347 755Q458 755 515 715T573 597V18Q573 -5 533 -5Q493 -5 493 18V289H190V18Q190 -5 150 -5ZM190 607V359H493V607Q493 645 455 665T342 685Q268
685 229 665T190 607ZM285 848Q285 834 273 829T242 823Q223 823 211 828T198 848V935Q198 949 210 954T241 960Q260 960 272 955T285 935V848ZM485 848Q485 834 473 829T442 823Q423 823 411 828T398 848V935Q398 949 410 954T441 960Q460 960 472 955T485 935V848Z"
/>
<glyph unicode="&#xc5;" glyph-name="Aring" horiz-adv-x="683" d="M150 -5Q110 -5 110 18V597Q110 674 171 714T347 755Q458 755 515 715T573 597V18Q573 -5 533 -5Q493 -5 493 18V289H190V18Q190 -5 150 -5ZM190 607V359H493V607Q493 645 455 665T342 685Q268
685 229 665T190 607ZM452 879Q452 833 426 810T340 787Q280 787 256 810T231 879V904Q231 950 257 973T343 996Q403 996 427 973T452 904V879ZM293 869Q293 853 307 847T341 840Q359 840 374 847T390 870V914Q390 931 376 937T342 943Q324 943 309 937T293 913V869Z"
/>
<glyph unicode="&#xc6;" glyph-name="AE" horiz-adv-x="965" d="M332 755Q386 755 431 743T504 702Q534 731 581 743T685 755Q739 755 784 740T857 691T884 597V582Q884 569 873 564T844 559Q828 559 816 564T804 582V607Q804 651 769 668T680 685Q623 685 583
668T543 607V504Q543 463 568 440T641 416H735Q746 416 750 406T755 381Q755 366 751 356T735 346H650Q598 346 570 324T542 258V133Q542 90 584 73T687 55Q747 55 786 72T825 133V205Q825 218 837 223T865 228Q882 228 893 223T905 205V143Q905 85 876 50T797
0T685 -15Q624 -15 573 0T492 50T462 143V228Q462 278 480 305T529 346H185V18Q185 5 174 0T147 -5Q131 -5 121 0T110 18V597Q110 656 140 690T220 740T332 755ZM185 607V416H530Q499 428 481 455T463 534V597Q463 647 429 666T327 685Q268 685 227 668T185 607Z"
/>
<glyph unicode="&#xc7;" glyph-name="Ccedilla" horiz-adv-x="633" d="M180 607V133Q180 95 218 75T330 55Q473 55 473 133V205Q473 228 513 228Q553 228 553 205V143Q553 66 497 26T330 -15Q218 -15 159 26T100 143V597Q100 674 159 714T330 755Q440 755 496
715T553 597V535Q553 512 513 512Q473 512 473 535V607Q473 685 330 685Q257 685 219 665T180 607ZM273 -135Q273 -151 287 -157T321 -164Q339 -164 354 -157T370 -134V-109Q370 -85 358 -78T316 -70V-34Q372 -34 404 -46T437 -108V-130Q437 -160 421 -180T377
-211T320 -222Q275 -222 241 -199T206 -130V-117Q206 -106 216 -101T239 -96Q254 -96 263 -101T273 -117V-135Z" />
<glyph unicode="&#xc8;" glyph-name="Egrave" horiz-adv-x="603" d="M332 755Q428 755 479 714T531 597V582Q531 559 491 559Q451 559 451 582V607Q451 685 327 685Q260 685 225 665T190 607V504Q190 416 298 416H373Q393 416 393 381Q393 346 373 346H288Q180
346 180 258V133Q180 95 217 75T325 55Q463 55 463 133V205Q463 228 503 228Q543 228 543 205V143Q543 66 487 26T323 -15Q215 -15 158 26T100 143V258Q100 311 121 341T192 382Q148 395 129 424T110 504V597Q110 674 167 714T332 755ZM418 807Q417 807 414 808T400
814L224 898Q213 904 213 918Q213 931 221 947T239 974T259 986Q267 986 272 982L438 868Q448 862 448 853Q448 841 437 824T418 807Z" />
<glyph unicode="&#xc9;" glyph-name="Eacute" horiz-adv-x="603" d="M332 755Q428 755 479 714T531 597V582Q531 559 491 559Q451 559 451 582V607Q451 685 327 685Q260 685 225 665T190 607V504Q190 416 298 416H373Q393 416 393 381Q393 346 373 346H288Q180
346 180 258V133Q180 95 217 75T325 55Q463 55 463 133V205Q463 228 503 228Q543 228 543 205V143Q543 66 487 26T323 -15Q215 -15 158 26T100 143V258Q100 311 121 341T192 382Q148 395 129 424T110 504V597Q110 674 167 714T332 755ZM243 807Q236 807 225 824T213
853Q213 862 223 868L389 982Q394 986 402 986Q411 986 422 975T440 947T448 918Q448 904 437 898L261 814Q251 810 248 809T243 807Z" />
<glyph unicode="&#xca;" glyph-name="Ecircumflex" horiz-adv-x="603" d="M332 755Q428 755 479 714T531 597V582Q531 559 491 559Q451 559 451 582V607Q451 685 327 685Q260 685 225 665T190 607V504Q190 416 298 416H373Q393 416 393 381Q393 346 373 346H288Q180
346 180 258V133Q180 95 217 75T325 55Q463 55 463 133V205Q463 228 503 228Q543 228 543 205V143Q543 66 487 26T323 -15Q215 -15 158 26T100 143V258Q100 311 121 341T192 382Q148 395 129 424T110 504V597Q110 674 167 714T332 755ZM326 986H337Q338 986 341
985T346 982L466 866Q471 862 472 858T473 851Q473 838 462 823T441 807Q439 807 434 810L331 886L228 810Q224 807 221 807Q211 807 200 822T189 851Q189 854 190 858T196 866L316 982Q320 986 326 986Z" />
<glyph unicode="&#xcb;" glyph-name="Edieresis" horiz-adv-x="603" d="M332 755Q428 755 479 714T531 597V582Q531 559 491 559Q451 559 451 582V607Q451 685 327 685Q260 685 225 665T190 607V504Q190 416 298 416H373Q393 416 393 381Q393 346 373 346H288Q180
346 180 258V133Q180 95 217 75T325 55Q463 55 463 133V205Q463 228 503 228Q543 228 543 205V143Q543 66 487 26T323 -15Q215 -15 158 26T100 143V258Q100 311 121 341T192 382Q148 395 129 424T110 504V597Q110 674 167 714T332 755ZM274 848Q274 834 262 829T231
823Q212 823 200 828T187 848V935Q187 949 199 954T230 960Q249 960 261 955T274 935V848ZM474 848Q474 834 462 829T431 823Q412 823 400 828T387 848V935Q387 949 399 954T430 960Q449 960 461 955T474 935V848Z" />
<glyph unicode="&#xcc;" glyph-name="Igrave" horiz-adv-x="320" d="M160 -5Q120 -5 120 18V722Q120 745 160 745Q200 745 200 722V18Q200 -5 160 -5ZM503 807Q502 807 499 808T485 814L309 898Q298 904 298 918Q298 931 306 947T324 974T344 986Q352 986 357
982L523 868Q533 862 533 853Q533 841 522 824T503 807Z" />
<glyph unicode="&#xcd;" glyph-name="Iacute" horiz-adv-x="320" d="M160 -5Q120 -5 120 18V722Q120 745 160 745Q200 745 200 722V18Q200 -5 160 -5ZM328 807Q321 807 310 824T298 853Q298 862 308 868L474 982Q479 986 487 986Q496 986 507 975T525 947T533
918Q533 904 522 898L346 814Q336 810 333 809T328 807Z" />
<glyph unicode="&#xce;" glyph-name="Icircumflex" horiz-adv-x="320" d="M160 -5Q120 -5 120 18V722Q120 745 160 745Q200 745 200 722V18Q200 -5 160 -5ZM411 986H422Q423 986 426 985T431 982L551 866Q556 862 557 858T558 851Q558 838 547 823T526 807Q524
807 519 810L416 886L313 810Q309 807 306 807Q296 807 285 822T274 851Q274 854 275 858T281 866L401 982Q405 986 411 986Z" />
<glyph unicode="&#xcf;" glyph-name="Idieresis" horiz-adv-x="320" d="M160 -5Q120 -5 120 18V722Q120 745 160 745Q200 745 200 722V18Q200 -5 160 -5ZM359 848Q359 834 347 829T316 823Q297 823 285 828T272 848V935Q272 949 284 954T315 960Q334 960 346 955T359
935V848ZM559 848Q559 834 547 829T516 823Q497 823 485 828T472 848V935Q472 949 484 954T515 960Q534 960 546 955T559 935V848Z" />
<glyph unicode="&#xd0;" glyph-name="Eth" horiz-adv-x="683" d="M110 75V334H70Q50 334 50 369Q50 404 70 404H110V665Q110 711 121 725T170 740H378Q481 740 527 703T573 582V158Q573 75 527 38T378 0H170Q133 0 122 14T110 75ZM190 70H378Q443 70 468 87T493
148V592Q493 636 468 653T378 670H190V404H395Q415 404 415 369Q415 334 395 334H190V70Z" />
<glyph unicode="&#xd1;" glyph-name="Ntilde" horiz-adv-x="713" d="M387 91L257 616Q251 641 246 652T228 667T190 670V18Q190 -5 150 -5Q110 -5 110 18V668Q110 712 122 726T170 740H192Q240 740 265 734T303 707T326 644L456 119Q462 95 467 84T485 69T523
65V717Q523 740 563 740Q603 740 603 717V70Q603 24 592 10T543 -5H521Q474 -5 449 1T411 29T387 91ZM306 948L447 909Q449 908 453 908Q465 908 465 933Q465 944 475 948T500 953Q515 953 525 950T535 937Q535 880 516 855T469 829Q459 829 447 832L306 871Q305
871 304 871T301 872Q288 872 288 847Q288 836 278 832T253 827Q238 827 228 830T218 843Q218 900 236 926T283 952Q288 952 294 951T306 948Z" />
<glyph unicode="&#xd2;" glyph-name="Ograve" horiz-adv-x="663" d="M563 597V143Q563 67 503 26T328 -15Q216 -15 158 25T100 143V597Q100 674 160 714T335 755Q447 755 505 715T563 597ZM180 607V133Q180 55 328 55Q404 55 443 75T483 133V607Q483 685 335 685Q259
685 220 665T180 607ZM419 807Q418 807 415 808T401 814L225 898Q214 904 214 918Q214 931 222 947T240 974T260 986Q268 986 273 982L439 868Q449 862 449 853Q449 841 438 824T419 807Z" />
<glyph unicode="&#xd3;" glyph-name="Oacute" horiz-adv-x="663" d="M563 597V143Q563 67 503 26T328 -15Q216 -15 158 25T100 143V597Q100 674 160 714T335 755Q447 755 505 715T563 597ZM180 607V133Q180 55 328 55Q404 55 443 75T483 133V607Q483 685 335 685Q259
685 220 665T180 607ZM244 807Q237 807 226 824T214 853Q214 862 224 868L390 982Q395 986 403 986Q412 986 423 975T441 947T449 918Q449 904 438 898L262 814Q252 810 249 809T244 807Z" />
<glyph unicode="&#xd4;" glyph-name="Ocircumflex" horiz-adv-x="663" d="M563 597V143Q563 67 503 26T328 -15Q216 -15 158 25T100 143V597Q100 674 160 714T335 755Q447 755 505 715T563 597ZM180 607V133Q180 55 328 55Q404 55 443 75T483 133V607Q483 685
335 685Q259 685 220 665T180 607ZM327 986H338Q339 986 342 985T347 982L467 866Q472 862 473 858T474 851Q474 838 463 823T442 807Q440 807 435 810L332 886L229 810Q225 807 222 807Q212 807 201 822T190 851Q190 854 191 858T197 866L317 982Q321 986 327
986Z" />
<glyph unicode="&#xd5;" glyph-name="Otilde" horiz-adv-x="663" d="M563 597V143Q563 67 503 26T328 -15Q216 -15 158 25T100 143V597Q100 674 160 714T335 755Q447 755 505 715T563 597ZM180 607V133Q180 55 328 55Q404 55 443 75T483 133V607Q483 685 335 685Q259
685 220 665T180 607ZM261 948L402 909Q404 908 408 908Q420 908 420 933Q420 944 430 948T455 953Q470 953 480 950T490 937Q490 880 471 855T424 829Q414 829 402 832L261 871Q260 871 259 871T256 872Q243 872 243 847Q243 836 233 832T208 827Q193 827 183
830T173 843Q173 900 191 926T238 952Q243 952 249 951T261 948Z" />
<glyph unicode="&#xd6;" glyph-name="Odieresis" horiz-adv-x="663" d="M563 597V143Q563 67 503 26T328 -15Q216 -15 158 25T100 143V597Q100 674 160 714T335 755Q447 755 505 715T563 597ZM180 607V133Q180 55 328 55Q404 55 443 75T483 133V607Q483 685 335
685Q259 685 220 665T180 607ZM275 848Q275 834 263 829T232 823Q213 823 201 828T188 848V935Q188 949 200 954T231 960Q250 960 262 955T275 935V848ZM475 848Q475 834 463 829T432 823Q413 823 401 828T388 848V935Q388 949 400 954T431 960Q450 960 462 955T475
935V848Z" />
<glyph unicode="&#xd7;" glyph-name="multiply" horiz-adv-x="600" d="M441 180L300 321L159 180Q154 175 147 175Q139 175 129 183T112 201T104 218Q104 225 109 230L250 371L109 512Q104 517 104 524Q104 532 112 542T130 559T148 567Q154 567 159 562L300 421L441
562Q446 567 453 567Q461 567 471 559T488 541T496 523Q496 517 491 512L350 371L491 230Q496 225 496 218Q496 210 488 200T470 183T453 175Q446 175 441 180Z" />
<glyph unicode="&#xd8;" glyph-name="Oslash" horiz-adv-x="663" d="M563 597V143Q563 67 503 26T328 -15Q294 -15 265 -11L246 -82Q238 -105 204 -105Q173 -105 173 -88Q173 -88 177 -71L197 5Q100 42 100 143V597Q100 674 160 714T335 755Q369 755 398 751L417
822Q423 845 459 845Q490 845 490 828Q490 824 486 811L466 735Q563 698 563 597ZM180 607V133Q180 95 216 75L380 683Q359 685 335 685Q259 685 220 665T180 607ZM483 607Q483 645 447 665L283 57Q304 55 328 55Q404 55 443 75T483 133V607Z" />
<glyph unicode="&#xd9;" glyph-name="Ugrave" horiz-adv-x="683" d="M190 722V133Q190 55 338 55Q414 55 453 75T493 133V722Q493 745 533 745Q573 745 573 722V143Q573 67 513 26T338 -15Q226 -15 168 25T110 143V722Q110 745 149 745Q190 745 190 722ZM429 807Q428
807 425 808T411 814L235 898Q224 904 224 918Q224 931 232 947T250 974T270 986Q278 986 283 982L449 868Q459 862 459 853Q459 841 448 824T429 807Z" />
<glyph unicode="&#xda;" glyph-name="Uacute" horiz-adv-x="683" d="M190 722V133Q190 55 338 55Q414 55 453 75T493 133V722Q493 745 533 745Q573 745 573 722V143Q573 67 513 26T338 -15Q226 -15 168 25T110 143V722Q110 745 149 745Q190 745 190 722ZM254 807Q247
807 236 824T224 853Q224 862 234 868L400 982Q405 986 413 986Q422 986 433 975T451 947T459 918Q459 904 448 898L272 814Q262 810 259 809T254 807Z" />
<glyph unicode="&#xdb;" glyph-name="Ucircumflex" horiz-adv-x="683" d="M190 722V133Q190 55 338 55Q414 55 453 75T493 133V722Q493 745 533 745Q573 745 573 722V143Q573 67 513 26T338 -15Q226 -15 168 25T110 143V722Q110 745 149 745Q190 745 190 722ZM337
986H348Q349 986 352 985T357 982L477 866Q482 862 483 858T484 851Q484 838 473 823T452 807Q450 807 445 810L342 886L239 810Q235 807 232 807Q222 807 211 822T200 851Q200 854 201 858T207 866L327 982Q331 986 337 986Z" />
<glyph unicode="&#xdc;" glyph-name="Udieresis" horiz-adv-x="683" d="M190 722V133Q190 55 338 55Q414 55 453 75T493 133V722Q493 745 533 745Q573 745 573 722V143Q573 67 513 26T338 -15Q226 -15 168 25T110 143V722Q110 745 149 745Q190 745 190 722ZM285
848Q285 834 273 829T242 823Q223 823 211 828T198 848V935Q198 949 210 954T241 960Q260 960 272 955T285 935V848ZM485 848Q485 834 473 829T442 823Q423 823 411 828T398 848V935Q398 949 410 954T441 960Q460 960 472 955T485 935V848Z" />
<glyph unicode="&#xdd;" glyph-name="Yacute" horiz-adv-x="580" d="M534 725L447 382Q430 316 404 286T330 247V18Q330 -5 290 -5Q250 -5 250 18V248Q202 256 176 286T133 382L46 725Q43 745 84 745Q120 745 126 722L211 393Q222 349 239 332T290 315Q324 315
341 331T369 393L454 722Q458 745 496 745Q536 745 534 725ZM202 807Q195 807 184 824T172 853Q172 862 182 868L348 982Q353 986 361 986Q370 986 381 975T399 947T407 918Q407 904 396 898L220 814Q210 810 207 809T202 807Z" />
<glyph unicode="&#xde;" glyph-name="Thorn" horiz-adv-x="613" d="M240 210H327Q384 210 423 227T463 288V467Q463 511 423 528T326 545Q271 545 232 529T190 471V18Q190 5 179 0T150 -5Q134 -5 122 0T110 18V732Q110 745 122 750T150 755Q167 755 178 750T190
732V577Q212 597 246 606T326 615Q386 615 435 600T513 551T543 457V298Q543 240 514 205T436 155T327 140H240Q229 140 225 150T220 175Q220 190 224 200T240 210Z" />
<glyph unicode="&#xdf;" glyph-name="germandbls" horiz-adv-x="687" d="M607 256V143Q607 69 560 27T427 -15Q342 -15 296 26T250 143V187Q250 210 290 210Q330 210 330 187V133Q330 96 355 76T427 55Q474 55 500 75T527 133V256Q527 303 511 318T441 334H329Q309
334 309 369Q309 404 329 404H360L407 452Q437 482 450 508T463 562V574Q463 626 445 648T385 670H268Q225 670 208 646T190 564V18Q190 -5 150 -5Q110 -5 110 18V564Q110 659 146 699T268 740H385Q468 740 505 701T543 574V557Q543 526 525 488T479 421L462 403Q542
400 574 367T607 256Z" />
<glyph unicode="&#xe0;" glyph-name="agrave" horiz-adv-x="603" d="M363 0H246Q157 0 119 36T80 158V166Q80 221 94 253T143 302T240 324L413 341V452Q413 530 277 530H140Q120 530 120 565Q120 600 140 600H277Q382 600 437 560T493 442V147Q493 105 500 82T515
47T523 29Q523 22 514 13T494 -3T472 -10Q456 -10 443 10T421 64T413 137V271L246 254Q194 249 177 231T160 166V158Q160 107 178 89T246 70H363Q383 70 383 35Q383 0 363 0ZM389 667Q388 667 385 668T371 674L195 758Q184 764 184 778Q184 791 192 807T210 834T230
846Q238 846 243 842L409 728Q419 722 419 713Q419 701 408 684T389 667Z" />
<glyph unicode="&#xe1;" glyph-name="aacute" horiz-adv-x="603" d="M363 0H246Q157 0 119 36T80 158V166Q80 221 94 253T143 302T240 324L413 341V452Q413 530 277 530H140Q120 530 120 565Q120 600 140 600H277Q382 600 437 560T493 442V147Q493 105 500 82T515
47T523 29Q523 22 514 13T494 -3T472 -10Q456 -10 443 10T421 64T413 137V271L246 254Q194 249 177 231T160 166V158Q160 107 178 89T246 70H363Q383 70 383 35Q383 0 363 0ZM214 667Q207 667 196 684T184 713Q184 722 194 728L360 842Q365 846 373 846Q382 846
393 835T411 807T419 778Q419 764 408 758L232 674Q222 670 219 669T214 667Z" />
<glyph unicode="&#xe2;" glyph-name="acircumflex" horiz-adv-x="603" d="M363 0H246Q157 0 119 36T80 158V166Q80 221 94 253T143 302T240 324L413 341V452Q413 530 277 530H140Q120 530 120 565Q120 600 140 600H277Q382 600 437 560T493 442V147Q493 105 500
82T515 47T523 29Q523 22 514 13T494 -3T472 -10Q456 -10 443 10T421 64T413 137V271L246 254Q194 249 177 231T160 166V158Q160 107 178 89T246 70H363Q383 70 383 35Q383 0 363 0ZM297 846H308Q313 846 317 842L437 726Q444 719 444 711Q444 698 433 683T412
667Q410 667 405 670L302 746L199 670Q193 667 192 667Q182 667 171 682T160 711Q160 719 167 726L287 842Q291 846 297 846Z" />
<glyph unicode="&#xe3;" glyph-name="atilde" horiz-adv-x="603" d="M363 0H246Q157 0 119 36T80 158V166Q80 221 94 253T143 302T240 324L413 341V452Q413 530 277 530H140Q120 530 120 565Q120 600 140 600H277Q382 600 437 560T493 442V147Q493 105 500 82T515
47T523 29Q523 22 514 13T494 -3T472 -10Q456 -10 443 10T421 64T413 137V271L246 254Q194 249 177 231T160 166V158Q160 107 178 89T246 70H363Q383 70 383 35Q383 0 363 0ZM231 808L372 769Q373 768 378 768Q390 768 390 793Q390 813 425 813Q460 813 460 797Q460
746 443 718T394 689Q384 689 372 692L231 731Q230 731 229 731T226 732Q213 732 213 707Q213 687 178 687Q143 687 143 703Q143 755 160 783T208 812Q215 812 231 808Z" />
<glyph unicode="&#xe4;" glyph-name="adieresis" horiz-adv-x="603" d="M363 0H246Q157 0 119 36T80 158V166Q80 221 94 253T143 302T240 324L413 341V452Q413 530 277 530H140Q120 530 120 565Q120 600 140 600H277Q382 600 437 560T493 442V147Q493 105 500
82T515 47T523 29Q523 22 514 13T494 -3T472 -10Q456 -10 443 10T421 64T413 137V271L246 254Q194 249 177 231T160 166V158Q160 107 178 89T246 70H363Q383 70 383 35Q383 0 363 0ZM245 708Q245 683 202 683Q158 683 158 708V795Q158 820 201 820Q245 820 245
795V708ZM445 708Q445 683 402 683Q358 683 358 708V795Q358 820 401 820Q445 820 445 795V708Z" />
<glyph unicode="&#xe5;" glyph-name="aring" horiz-adv-x="603" d="M363 0H246Q157 0 119 36T80 158V166Q80 221 94 253T143 302T240 324L413 341V452Q413 530 277 530H140Q120 530 120 565Q120 600 140 600H277Q382 600 437 560T493 442V147Q493 105 500 82T515
47T523 29Q523 22 514 13T494 -3T472 -10Q456 -10 443 10T421 64T413 137V271L246 254Q194 249 177 231T160 166V158Q160 107 178 89T246 70H363Q383 70 383 35Q383 0 363 0ZM412 764V739Q412 692 385 670T300 647Q243 647 217 669T191 739V764Q191 811 218 833T303
856Q360 856 386 834T412 764ZM253 773V729Q253 700 301 700Q324 700 337 708T350 730V774Q350 803 302 803Q280 803 267 795T253 773Z" />
<glyph unicode="&#xe6;" glyph-name="ae" horiz-adv-x="951" d="M363 0H246Q159 0 120 35T80 158V166Q80 225 96 257T147 304T240 324L413 341V456Q413 497 373 513T277 530H140Q129 530 125 540T120 565Q120 580 124 590T140 600H277Q327 600 370 590T444 554Q474
590 528 605T646 621Q741 621 796 587T851 465V454Q851 396 835 364T784 317T688 296L493 277V139Q493 96 529 79T623 61Q661 61 695 66T750 85T771 129V167Q771 180 782 185T811 190Q828 190 839 185T851 167V139Q851 81 821 49T740 4T631 -9Q572 -9 523 6T443
56T413 149V271L246 254Q208 250 190 241T166 213T160 166V158Q160 129 165 110T189 80T246 70H363Q374 70 378 60T383 35Q383 20 379 10T363 0ZM493 473V347L681 366Q721 370 740 379T765 407T771 454V473Q771 517 731 534T631 551Q594 551 563 544T512 519T493
473Z" />
<glyph unicode="&#xe7;" glyph-name="ccedilla" horiz-adv-x="596" d="M180 467V133Q180 95 213 75T308 55Q436 55 436 133V175Q436 198 476 198Q516 198 516 175V143Q516 66 463 26T308 -15Q207 -15 154 26T100 143V457Q100 534 153 574T308 615Q409 615 462
575T516 457V425Q516 402 476 402Q436 402 436 425V467Q436 545 308 545Q246 545 213 525T180 467ZM249 -135Q249 -151 263 -157T297 -164Q315 -164 330 -157T346 -134V-109Q346 -85 334 -78T292 -70V-34Q348 -34 380 -46T413 -108V-130Q413 -160 397 -180T353
-211T296 -222Q251 -222 217 -199T182 -130V-117Q182 -106 192 -101T215 -96Q230 -96 239 -101T249 -117V-135Z" />
<glyph unicode="&#xe8;" glyph-name="egrave" horiz-adv-x="638" d="M538 459V429Q538 374 524 342T474 293T375 271L180 252V133Q180 55 310 55Q386 55 422 72T458 123V161Q458 184 498 184Q538 184 538 161V133Q538 -15 318 -15Q213 -15 157 26T100 143V457Q100
534 160 574T333 615Q438 615 488 577T538 459ZM180 467V322L368 341Q423 346 440 363T458 429V467Q458 505 422 525T318 545Q251 545 216 525T180 467ZM413 667Q412 667 409 668T395 674L219 758Q208 764 208 778Q208 791 216 807T234 834T254 846Q262 846 267
842L433 728Q443 722 443 713Q443 701 432 684T413 667Z" />
<glyph unicode="&#xe9;" glyph-name="eacute" horiz-adv-x="638" d="M538 459V429Q538 374 524 342T474 293T375 271L180 252V133Q180 55 310 55Q386 55 422 72T458 123V161Q458 184 498 184Q538 184 538 161V133Q538 -15 318 -15Q213 -15 157 26T100 143V457Q100
534 160 574T333 615Q438 615 488 577T538 459ZM180 467V322L368 341Q423 346 440 363T458 429V467Q458 505 422 525T318 545Q251 545 216 525T180 467ZM238 667Q231 667 220 684T208 713Q208 722 218 728L384 842Q389 846 397 846Q406 846 417 835T435 807T443
778Q443 764 432 758L256 674Q246 670 243 669T238 667Z" />
<glyph unicode="&#xea;" glyph-name="ecircumflex" horiz-adv-x="638" d="M538 459V429Q538 374 524 342T474 293T375 271L180 252V133Q180 55 310 55Q386 55 422 72T458 123V161Q458 184 498 184Q538 184 538 161V133Q538 -15 318 -15Q213 -15 157 26T100 143V457Q100
534 160 574T333 615Q438 615 488 577T538 459ZM180 467V322L368 341Q423 346 440 363T458 429V467Q458 505 422 525T318 545Q251 545 216 525T180 467ZM321 846H332Q337 846 341 842L461 726Q468 719 468 711Q468 698 457 683T436 667Q434 667 429 670L326 746L223
670Q217 667 216 667Q206 667 195 682T184 711Q184 719 191 726L311 842Q315 846 321 846Z" />
<glyph unicode="&#xeb;" glyph-name="edieresis" horiz-adv-x="638" d="M538 459V429Q538 374 524 342T474 293T375 271L180 252V133Q180 55 310 55Q386 55 422 72T458 123V161Q458 184 498 184Q538 184 538 161V133Q538 -15 318 -15Q213 -15 157 26T100 143V457Q100
534 160 574T333 615Q438 615 488 577T538 459ZM180 467V322L368 341Q423 346 440 363T458 429V467Q458 505 422 525T318 545Q251 545 216 525T180 467ZM269 708Q269 683 226 683Q182 683 182 708V795Q182 820 225 820Q269 820 269 795V708ZM469 708Q469 683 426
683Q382 683 382 708V795Q382 820 425 820Q469 820 469 795V708Z" />
<glyph unicode="&#xec;" glyph-name="igrave" horiz-adv-x="300" d="M190 582V117Q190 90 197 73T212 46T220 29Q220 22 211 13T191 -3T169 -10Q155 -10 141 7T119 52T110 107V582Q110 605 150 605Q190 605 190 582ZM493 667Q492 667 489 668T475 674L299 758Q288
764 288 778Q288 791 296 807T314 834T334 846Q342 846 347 842L513 728Q523 722 523 713Q523 701 512 684T493 667Z" />
<glyph unicode="&#xed;" glyph-name="iacute" horiz-adv-x="300" d="M190 582V117Q190 90 197 73T212 46T220 29Q220 22 211 13T191 -3T169 -10Q155 -10 141 7T119 52T110 107V582Q110 605 150 605Q190 605 190 582ZM318 667Q311 667 300 684T288 713Q288 722
298 728L464 842Q469 846 477 846Q486 846 497 835T515 807T523 778Q523 764 512 758L336 674Q326 670 323 669T318 667Z" />
<glyph unicode="&#xee;" glyph-name="icircumflex" horiz-adv-x="300" d="M190 582V117Q190 90 197 73T212 46T220 29Q220 22 211 13T191 -3T169 -10Q155 -10 141 7T119 52T110 107V582Q110 605 150 605Q190 605 190 582ZM401 846H412Q417 846 421 842L541 726Q548
719 548 711Q548 698 537 683T516 667Q514 667 509 670L406 746L303 670Q297 667 296 667Q286 667 275 682T264 711Q264 719 271 726L391 842Q395 846 401 846Z" />
<glyph unicode="&#xef;" glyph-name="idieresis" horiz-adv-x="300" d="M190 582V117Q190 90 197 73T212 46T220 29Q220 22 211 13T191 -3T169 -10Q155 -10 141 7T119 52T110 107V582Q110 605 150 605Q190 605 190 582ZM349 708Q349 683 306 683Q262 683 262 708V795Q262
820 305 820Q349 820 349 795V708ZM549 708Q549 683 506 683Q462 683 462 708V795Q462 820 505 820Q549 820 549 795V708Z" />
<glyph unicode="&#xf0;" glyph-name="eth" horiz-adv-x="654" d="M317 -15Q257 -15 208 0T129 50T100 143V387Q100 446 129 480T207 530T316 545Q369 545 405 534T462 496V547Q462 564 460 579T452 611L442 647L348 622Q337 622 334 632T330 652Q330 680 351 686L426
706L406 782Q406 793 418 796T440 800Q472 800 478 779L493 724L592 751Q603 751 606 742T610 721Q610 691 589 687L509 665L518 630Q523 610 528 588T533 546V143Q533 85 504 50T426 0T317 -15ZM317 55Q374 55 413 72T453 133V397Q453 441 413 458T316 475Q259
475 220 458T180 397V133Q180 90 220 73T317 55Z" />
<glyph unicode="&#xf1;" glyph-name="ntilde" horiz-adv-x="653" d="M543 457V18Q543 -5 503 -5Q463 -5 463 18V467Q463 505 428 525T326 545Q190 545 190 467V18Q190 -5 150 -5Q110 -5 110 18V457Q110 534 165 574T326 615Q431 615 487 575T543 457ZM256 808L397
769Q398 768 403 768Q415 768 415 793Q415 813 450 813Q485 813 485 797Q485 746 468 718T419 689Q409 689 397 692L256 731Q255 731 254 731T251 732Q238 732 238 707Q238 687 203 687Q168 687 168 703Q168 755 185 783T233 812Q240 812 256 808Z" />
<glyph unicode="&#xf2;" glyph-name="ograve" horiz-adv-x="633" d="M533 457V143Q533 67 478 26T317 -15Q212 -15 156 26T100 143V457Q100 534 155 574T316 615Q421 615 477 575T533 457ZM453 133V467Q453 505 418 525T316 545Q180 545 180 467V133Q180 95 215
75T317 55Q453 55 453 133ZM404 667Q403 667 400 668T386 674L210 758Q199 764 199 778Q199 791 207 807T225 834T245 846Q253 846 258 842L424 728Q434 722 434 713Q434 701 423 684T404 667Z" />
<glyph unicode="&#xf3;" glyph-name="oacute" horiz-adv-x="633" d="M533 457V143Q533 67 478 26T317 -15Q212 -15 156 26T100 143V457Q100 534 155 574T316 615Q421 615 477 575T533 457ZM453 133V467Q453 505 418 525T316 545Q180 545 180 467V133Q180 95 215
75T317 55Q453 55 453 133ZM229 667Q222 667 211 684T199 713Q199 722 209 728L375 842Q380 846 388 846Q397 846 408 835T426 807T434 778Q434 764 423 758L247 674Q237 670 234 669T229 667Z" />
<glyph unicode="&#xf4;" glyph-name="ocircumflex" horiz-adv-x="633" d="M533 457V143Q533 67 478 26T317 -15Q212 -15 156 26T100 143V457Q100 534 155 574T316 615Q421 615 477 575T533 457ZM453 133V467Q453 505 418 525T316 545Q180 545 180 467V133Q180
95 215 75T317 55Q453 55 453 133ZM312 846H323Q328 846 332 842L452 726Q459 719 459 711Q459 698 448 683T427 667Q425 667 420 670L317 746L214 670Q208 667 207 667Q197 667 186 682T175 711Q175 719 182 726L302 842Q306 846 312 846Z" />
<glyph unicode="&#xf5;" glyph-name="otilde" horiz-adv-x="633" d="M533 457V143Q533 67 478 26T317 -15Q212 -15 156 26T100 143V457Q100 534 155 574T316 615Q421 615 477 575T533 457ZM453 133V467Q453 505 418 525T316 545Q180 545 180 467V133Q180 95 215
75T317 55Q453 55 453 133ZM246 808L387 769Q388 768 393 768Q405 768 405 793Q405 813 440 813Q475 813 475 797Q475 746 458 718T409 689Q399 689 387 692L246 731Q245 731 244 731T241 732Q228 732 228 707Q228 687 193 687Q158 687 158 703Q158 755 175 783T223
812Q230 812 246 808Z" />
<glyph unicode="&#xf6;" glyph-name="odieresis" horiz-adv-x="633" d="M533 457V143Q533 67 478 26T317 -15Q212 -15 156 26T100 143V457Q100 534 155 574T316 615Q421 615 477 575T533 457ZM453 133V467Q453 505 418 525T316 545Q180 545 180 467V133Q180 95
215 75T317 55Q453 55 453 133ZM260 708Q260 683 217 683Q173 683 173 708V795Q173 820 216 820Q260 820 260 795V708ZM460 708Q460 683 417 683Q373 683 373 708V795Q373 820 416 820Q460 820 460 795V708Z" />
<glyph unicode="&#xf7;" glyph-name="divide" horiz-adv-x="600" d="M342 188V103Q342 79 300 79Q257 79 257 103V188Q257 212 299 212Q342 212 342 188ZM342 615V530Q342 506 300 506Q257 506 257 530V615Q257 639 299 639Q342 639 342 615ZM95 406H505Q525 406
525 371Q525 336 505 336H95Q75 336 75 371Q75 406 95 406Z" />
<glyph unicode="&#xf8;" glyph-name="oslash" horiz-adv-x="633" d="M533 457V143Q533 67 478 26T317 -15Q291 -15 269 -13L231 -153Q223 -176 189 -176Q158 -176 158 -159Q158 -159 162 -142L201 2Q100 39 100 143V457Q100 534 155 574T316 615Q342 615 365 612L402
751Q408 774 444 774Q475 774 475 757Q475 753 471 740L433 597Q533 561 533 457ZM180 133Q180 92 220 72L346 544Q332 545 316 545Q180 545 180 467V133ZM453 133V467Q453 507 414 527L287 56Q301 55 317 55Q453 55 453 133Z" />
<glyph unicode="&#xf9;" glyph-name="ugrave" horiz-adv-x="653" d="M543 582V143Q543 67 487 26T326 -15Q221 -15 166 26T110 143V582Q110 605 150 605Q190 605 190 582V133Q190 55 326 55Q393 55 428 75T463 133V582Q463 605 503 605Q543 605 543 582ZM414 667Q413
667 410 668T396 674L220 758Q209 764 209 778Q209 791 217 807T235 834T255 846Q263 846 268 842L434 728Q444 722 444 713Q444 701 433 684T414 667Z" />
<glyph unicode="&#xfa;" glyph-name="uacute" horiz-adv-x="653" d="M543 582V143Q543 67 487 26T326 -15Q221 -15 166 26T110 143V582Q110 605 150 605Q190 605 190 582V133Q190 55 326 55Q393 55 428 75T463 133V582Q463 605 503 605Q543 605 543 582ZM239 667Q232
667 221 684T209 713Q209 722 219 728L385 842Q390 846 398 846Q407 846 418 835T436 807T444 778Q444 764 433 758L257 674Q247 670 244 669T239 667Z" />
<glyph unicode="&#xfb;" glyph-name="ucircumflex" horiz-adv-x="653" d="M543 582V143Q543 67 487 26T326 -15Q221 -15 166 26T110 143V582Q110 605 150 605Q190 605 190 582V133Q190 55 326 55Q393 55 428 75T463 133V582Q463 605 503 605Q543 605 543 582ZM322
846H333Q338 846 342 842L462 726Q469 719 469 711Q469 698 458 683T437 667Q435 667 430 670L327 746L224 670Q218 667 217 667Q207 667 196 682T185 711Q185 719 192 726L312 842Q316 846 322 846Z" />
<glyph unicode="&#xfc;" glyph-name="udieresis" horiz-adv-x="653" d="M543 582V143Q543 67 487 26T326 -15Q221 -15 166 26T110 143V582Q110 605 150 605Q190 605 190 582V133Q190 55 326 55Q393 55 428 75T463 133V582Q463 605 503 605Q543 605 543 582ZM270
708Q270 683 227 683Q183 683 183 708V795Q183 820 226 820Q270 820 270 795V708ZM470 708Q470 683 427 683Q383 683 383 708V795Q383 820 426 820Q470 820 470 795V708Z" />
<glyph unicode="&#xfd;" glyph-name="yacute" horiz-adv-x="610" d="M539 585L425 -92Q414 -156 396 -190T342 -237T243 -250H171Q151 -250 151 -215Q151 -180 171 -180H243Q297 -180 319 -164T349 -102L363 -15H305Q230 -15 196 15T148 122L71 585Q68 605 109
605Q147 605 151 582L226 133Q234 88 250 72T305 55H375L463 582Q467 605 501 605Q541 605 539 585ZM217 667Q210 667 199 684T187 713Q187 722 197 728L363 842Q368 846 376 846Q385 846 396 835T414 807T422 778Q422 764 411 758L235 674Q225 670 222 669T217
667Z" />
<glyph unicode="&#xfe;" glyph-name="thorn" horiz-adv-x="643" d="M190 467V-232Q190 -245 179 -250T150 -255Q134 -255 122 -250T110 -232V777Q110 790 122 795T150 800Q167 800 178 795T190 777V589Q218 603 252 609T326 615Q386 615 435 600T513 551T543 457V158Q543
100 514 65T436 15T327 0H240Q229 0 225 10T220 35Q220 49 224 59T240 70H327Q384 70 423 87T463 148V467Q463 511 423 528T326 545Q269 545 230 528T190 467Z" />
<glyph unicode="&#xff;" glyph-name="ydieresis" horiz-adv-x="610" d="M539 585L425 -92Q414 -156 396 -190T342 -237T243 -250H171Q151 -250 151 -215Q151 -180 171 -180H243Q297 -180 319 -164T349 -102L363 -15H305Q230 -15 196 15T148 122L71 585Q68 605
109 605Q147 605 151 582L226 133Q234 88 250 72T305 55H375L463 582Q467 605 501 605Q541 605 539 585ZM248 708Q248 683 205 683Q161 683 161 708V795Q161 820 204 820Q248 820 248 795V708ZM448 708Q448 683 405 683Q361 683 361 708V795Q361 820 404 820Q448
820 448 795V708Z" />
<glyph unicode="&#x2013;" glyph-name="endash" horiz-adv-x="653" d="M110 359H543Q554 359 558 349T563 324Q563 309 559 299T543 289H110Q99 289 95 299T90 324Q90 339 94 349T110 359Z" />
<glyph unicode="&#x2014;" glyph-name="emdash" horiz-adv-x="966" d="M110 359H856Q867 359 871 349T876 324Q876 309 872 299T856 289H110Q99 289 95 299T90 324Q90 339 94 349T110 359Z" />
<glyph unicode="&#x2018;" glyph-name="quoteleft" horiz-adv-x="201" d="M58 549V660Q58 691 76 743L85 767Q88 776 100 776Q113 776 127 768T142 753Q142 751 142 749T140 744L125 704Q121 693 120 689T119 679Q119 663 131 651T143 621V549Q143 525 101 525Q58
525 58 549Z" />
<glyph unicode="&#x2019;" glyph-name="quoteright" horiz-adv-x="201" d="M143 766V655Q143 625 125 572L116 548Q113 539 101 539Q88 539 74 547T59 562Q59 567 61 571L76 611Q80 622 81 627T82 636Q82 653 70 664T58 694V766Q58 790 100 790Q143 790 143 766Z" />
<glyph unicode="&#x201a;" glyph-name="quotesinglbase" horiz-adv-x="201" d="M143 94V-17Q143 -47 125 -100L116 -124Q113 -133 101 -133Q88 -133 74 -125T59 -110Q59 -105 61 -101L76 -61Q80 -50 81 -45T82 -36Q82 -19 70 -8T58 22V94Q58 118 100 118Q143 118 143 94Z" />
<glyph unicode="&#x201c;" glyph-name="quotedblleft" horiz-adv-x="371" d="M228 549V660Q228 691 246 743L255 767Q258 776 270 776Q283 776 297 768T312 753Q312 751 312 749T310 744L295 704Q291 693 290 689T289 679Q289 663 301 651T313 621V549Q313 525
271 525Q228 525 228 549ZM58 549V660Q58 691 76 743L85 767Q88 776 100 776Q113 776 127 768T142 753Q142 751 142 749T140 744L125 704Q121 693 120 689T119 679Q119 663 131 651T143 621V549Q143 525 101 525Q58 525 58 549Z" />
<glyph unicode="&#x201d;" glyph-name="quotedblright" horiz-adv-x="371" d="M143 766V655Q143 625 125 572L116 548Q113 539 101 539Q88 539 74 547T59 562Q59 567 61 571L76 611Q80 622 81 627T82 636Q82 653 70 664T58 694V766Q58 790 100 790Q143 790 143
766ZM313 766V655Q313 625 295 572L286 548Q283 539 271 539Q258 539 244 547T229 562Q229 567 231 571L246 611Q250 622 251 627T252 636Q252 653 240 664T228 694V766Q228 790 270 790Q313 790 313 766Z" />
<glyph unicode="&#x201e;" glyph-name="quotedblbase" horiz-adv-x="371" d="M143 94V-17Q143 -47 125 -100L116 -124Q113 -133 101 -133Q88 -133 74 -125T59 -110Q59 -105 61 -101L76 -61Q80 -50 81 -45T82 -36Q82 -19 70 -8T58 22V94Q58 118 100 118Q143 118
143 94ZM313 94V-17Q313 -47 295 -100L286 -124Q283 -133 271 -133Q258 -133 244 -125T229 -110Q229 -105 231 -101L246 -61Q250 -50 251 -45T252 -36Q252 -19 240 -8T228 22V94Q228 118 270 118Q313 118 313 94Z" />
<glyph unicode="&#x2022;" glyph-name="bullet" horiz-adv-x="311" d="M220 416V289Q220 253 157 253Q92 253 92 289V416Q92 452 155 452Q220 452 220 416Z" />
<glyph unicode="&#x2039;" glyph-name="guilsinglleft" horiz-adv-x="370" d="M84 409L235 610Q240 615 247 615Q255 615 267 607T290 589T300 571Q300 565 295 560L154 359L295 158Q300 153 300 146Q300 138 290 128T267 111T247 103Q240 103 235 108L84 309Q70
329 70 360Q70 389 84 409Z" />
<glyph unicode="&#x203a;" glyph-name="guilsinglright" horiz-adv-x="370" d="M135 610L286 409Q300 389 300 360Q300 329 286 309L135 108Q130 103 123 103Q116 103 104 110T81 128T70 146Q70 153 75 158L216 359L75 560Q70 565 70 571Q70 579 80 589T102 607T123
615Q130 615 135 610Z" />
</font>
</defs>
</svg>
