<?xml version="1.0" standalone="no"?>
<!DOCTYPE svg PUBLIC "-//W3C//DTD SVG 1.1//EN" "http://www.w3.org/Graphics/SVG/1.1/DTD/svg11.dtd">
<svg xmlns="http://www.w3.org/2000/svg">
<defs >
<font id="IbarraRealNova" horiz-adv-x="540" ><font-face
    font-family="Ibarra Real Nova"
    units-per-em="1000"
    panose-1="0 0 0 0 0 0 0 0 0 0"
    ascent="950"
    descent="-300"
    alphabetic="0" />
<glyph unicode=" " horiz-adv-x="265" />
<glyph unicode="!" horiz-adv-x="214" d="M93 199L62 658H152L120 199H93ZM106 -6Q84 -6 67 11T50 50Q50 74 67 91T106 108Q130 108 147 91T164 50Q164 28 147 11T106 -6Z" />
<glyph unicode="&quot;" horiz-adv-x="418" d="M272 454L235 710H336L299 454H272ZM119 454L82 710H183L146 454H119Z" />
<glyph unicode="#" horiz-adv-x="484" d="M247 -26L351 674H395L288 -26H247ZM30 180L36 222H420L414 180H30ZM87 -26L192 674H234L127 -26H87ZM64 410L70 452H454L448 410H64Z" />
<glyph unicode="$" horiz-adv-x="567" d="M271 -89V766H302V-89H271ZM288 -8Q206 -8 148 13T55 53Q63 97 63 142T50 235H79Q87 173 113 124T185 45T294 16Q337 16 370 32T423 78T443 145Q443 184 428 209T373 256T261 303Q172 334 124 375T75 494Q75 545 99 588T171
658T290 685Q321 685 343 677T384 660Q399 653 413 647T441 641L466 646L470 643Q469 630 468 618T467 594Q467 573 469 553T475 512T484 472H462Q442 524 419 566T363 634T277 660Q244 660 215 646T168 605T150 539Q150 501 163 477T212 433T320 388Q394 363 437
336T498 273T517 188Q517 133 488 89T408 18T288 -8Z" />
<glyph unicode="%" horiz-adv-x="628" d="M165 345Q119 345 91 368T49 430T35 515Q35 562 48 600T90 660T165 682Q211 682 240 660T283 600T297 515Q297 469 283 430T240 368T165 345ZM165 365Q190 365 202 386T218 441T222 515Q222 554 218 587T202 640T165 660Q142
660 130 640T114 587T110 515Q110 476 114 442T130 386T165 365ZM461 -8Q416 -8 387 15T345 77T331 162Q331 209 344 247T387 307T461 329Q507 329 536 307T579 247T593 162Q593 116 579 77T536 15T461 -8ZM461 12Q486 12 498 33T514 88T518 162Q518 201 514 234T498
287T461 307Q438 307 426 287T410 234T406 162Q406 122 410 88T426 33T461 12ZM501 683H547L123 0H76L501 683Z" />
<glyph unicode="&amp;" horiz-adv-x="778" d="M325 -13Q252 -13 191 14T92 97T55 234Q55 278 74 319T131 390T228 427V430Q178 452 154 479T129 554Q129 590 149 618T206 663T297 679Q339 679 376 666T436 628T460 563Q460 536 446 524T414 511Q394 511 380 523T366
555Q366 573 371 582T382 596Q385 600 387 602T390 609Q390 630 365 640T309 651Q263 651 240 623T216 545Q216 500 239 468T317 416L350 404L342 387L292 394Q250 386 217 361T163 296T143 206Q143 144 168 102T234 37T327 15Q385 15 434 41T513 125T543 281V299Q543
331 532 341T479 358L418 369V387H758V369L697 358Q656 351 645 341T633 299V281Q633 208 608 153T540 61T441 6T325 -13Z" />
<glyph unicode="&apos;" horiz-adv-x="265" d="M119 454L82 710H183L146 454H119Z" />
<glyph unicode="(" horiz-adv-x="301" d="M238 -238Q179 -164 139 -81T80 88T60 257Q60 340 79 426T139 595T238 752L261 737Q200 628 166 508T132 257Q132 127 166 7T261 -223L238 -238Z" />
<glyph unicode=")" horiz-adv-x="301" d="M63 -238L40 -223Q102 -114 135 6T169 257Q169 387 136 507T40 737L63 752Q123 678 162 595T221 426T241 257Q241 174 222 88T163 -81T63 -238Z" />
<glyph unicode="*" horiz-adv-x="409" d="M319 409Q307 417 296 428T274 453Q260 468 245 483T207 511L195 518Q173 531 152 537T111 547Q94 550 79 553T51 564Q34 574 35 591T40 616Q45 624 59 633T90 633Q102 626 113 615T135 589Q149 574 164 559T202 531L214
524Q237 511 258 506T298 495Q315 492 330 489T358 478Q375 468 375 451T369 426Q365 418 351 409T319 409ZM91 410Q74 400 60 409T40 426Q35 434 34 451T50 478Q63 485 78 488T111 495Q131 500 152 505T195 524L207 531Q229 544 245 559T274 589Q285 603 296 614T318
632Q335 643 349 634T369 616Q374 608 375 592T359 564Q346 557 331 554T298 547Q278 543 258 537T214 518L202 511Q180 498 165 483T135 453Q124 440 113 429T91 410ZM205 331Q195 331 180 339T165 366Q165 380 169 395T180 427Q186 447 191 468T197 514V528Q197
554 192 575T180 615Q174 632 170 647T165 676Q165 696 180 703T204 711Q214 711 229 704T244 676Q244 662 240 647T229 615Q223 596 218 575T212 528V514Q212 489 217 468T229 427Q235 411 239 396T244 366Q244 347 229 339T205 331Z" />
<glyph unicode="+" horiz-adv-x="530" d="M246 148V316H73V354H246V521H284V354H457V316H284V148H246Z" />
<glyph unicode="," horiz-adv-x="265" d="M53 -150V-133Q98 -126 125 -96T153 -22Q153 9 128 31T61 59V82Q81 95 93 109T117 149Q161 133 187 103T213 24Q213 -19 193 -57T138 -121T53 -150Z" />
<glyph unicode="-" horiz-adv-x="265" d="M20 315H245V255H20V315Z" />
<glyph unicode="." horiz-adv-x="265" d="M131 -6Q106 -6 87 13T68 57Q68 84 87 103T131 122Q158 122 177 103T196 57Q196 32 177 13T131 -6Z" />
<glyph unicode="/" horiz-adv-x="448" d="M20 -7L390 710H428L58 -7H20Z" />
<glyph unicode="0" horiz-adv-x="582" d="M291 -8Q231 -8 188 19T116 95T74 207T60 342Q60 438 84 515T160 637T291 683Q371 683 422 638T497 515T522 342Q522 270 509 207T467 96T395 20T291 -8ZM291 15Q337 15 364 41T406 112T425 217T430 342Q430 408 425 465T406
566T364 634T291 659Q246 659 218 635T176 567T157 466T152 342Q152 276 157 217T176 113T217 41T291 15Z" />
<glyph unicode="1" horiz-adv-x="410" d="M40 0V18L83 26Q124 34 141 39T161 58T165 101V612Q165 625 160 630T139 635L55 632V649L250 685V101Q250 72 253 59T274 40T332 26L375 18V0H40Z" />
<glyph unicode="2" horiz-adv-x="497" d="M40 0V12L177 165Q231 225 262 271T309 356T330 428T335 496Q335 570 303 611T202 653Q181 653 160 646T125 625T111 592Q111 585 120 576Q125 570 131 561T137 536Q137 516 123 504T87 492Q70 492 56 504T41 544Q41 589
68 619T139 666T230 682Q280 682 325 663T400 604T429 502Q429 437 402 383T327 275T219 152L155 80H348Q376 80 386 90T408 136L419 170H437L409 0H40Z" />
<glyph unicode="3" horiz-adv-x="500" d="M187 -10Q145 -10 109 5T52 47T30 112Q30 138 44 152T79 166Q100 166 112 153T124 121Q124 108 120 100T110 85Q106 80 103 76T100 66Q100 47 127 33T192 19Q229 19 266 36T328 91T353 194Q353 238 336 273T284 331T195
355Q182 350 169 346T142 337L132 354L172 374Q209 392 237 417T281 474T298 537Q298 593 274 623T199 654Q166 654 142 640T118 605Q118 600 121 596T128 587Q133 581 137 573T142 551Q142 532 128 520T94 507Q77 507 63 519T48 559Q48 598 72 625T135 667T219
682Q272 682 309 666T366 621T386 554Q386 503 355 466T270 404V403Q326 399 365 371T424 302T445 220Q445 145 410 94T315 16T187 -10Z" />
<glyph unicode="4" horiz-adv-x="546" d="M190 0V18L241 27Q282 35 293 45T305 86V569L323 563L79 225L70 249H429Q450 249 458 255T472 280L486 323H504L479 179H25V197L384 691H391V86Q391 55 402 45T455 27L506 18V0H190Z" />
<glyph unicode="5" horiz-adv-x="475" d="M175 -11Q131 -11 94 4T33 47T10 114Q10 141 24 153T56 166Q79 166 91 151T104 120Q104 103 99 94T89 79Q85 76 83 73T80 66Q80 44 106 35T162 25Q221 25 259 44T316 99T335 186Q335 242 311 278T245 333T144 352Q130
352 116 351T86 348L82 351L117 661H341Q360 661 369 669T384 694L386 699H402L381 581H141L123 421Q139 423 154 424T184 426Q253 426 307 402T393 331T425 214Q425 146 393 96T305 17T175 -11Z" />
<glyph unicode="6" horiz-adv-x="500" d="M261 -9Q221 -9 184 4T116 49T68 133T50 264Q50 356 75 432T148 565T259 652T403 683V673Q331 654 281 617T201 526T156 404T142 255Q142 170 158 117T202 38T261 13Q317 13 345 60T373 203Q373 251 362 290T327 354T265
378Q224 378 198 356T157 299T141 224L126 297Q131 328 151 353T205 394T279 410Q342 410 383 381T444 305T465 203Q465 134 435 87T359 15T261 -9Z" />
<glyph unicode="7" horiz-adv-x="470" d="M109 0L390 594H91Q81 594 72 588T58 569L41 527H25L47 674H440V615L210 0H109Z" />
<glyph unicode="8" horiz-adv-x="538" d="M264 -12Q209 -12 162 8T85 67T55 158Q55 206 79 246T141 316T221 359L249 338Q192 311 169 268T145 178Q145 101 182 61T278 21Q336 21 368 58T400 148Q400 191 378 221T320 276T245 324Q206 348 168 371T106 428T81
512Q81 556 103 594T171 657T284 681Q330 681 370 663T436 612T462 532Q462 492 442 461T388 407T318 370L288 390Q336 419 357 459T378 541Q378 597 347 624T268 651Q242 651 218 640T177 605T161 547Q161 506 183 479T240 429T313 383Q354 358 393 332T457 271T483
181Q483 124 455 81T377 13T264 -12Z" />
<glyph unicode="9" horiz-adv-x="500" d="M239 684Q279 684 316 671T384 626T432 542T450 411Q450 319 425 243T352 110T241 23T97 -8V2Q169 21 219 58T299 149T344 271T358 420Q358 505 342 558T298 637T239 662Q184 662 156 615T127 472Q127 425 138 385T173
321T235 297Q276 297 303 319T343 376T359 451L374 378Q370 348 349 322T295 281T221 265Q159 265 118 294T56 370T35 472Q35 542 65 589T142 660T239 684Z" />
<glyph unicode=":" horiz-adv-x="265" d="M131 249Q106 249 87 268T68 312Q68 339 87 358T131 377Q158 377 177 358T196 312Q196 287 177 268T131 249ZM131 308Q106 308 87 327T68 371Q68 398 87 417T131 436Q158 436 177 417T196 371Q196 346 177 327T131 308Z" />
<glyph unicode=";" horiz-adv-x="265" d="M125 308Q100 308 81 327T62 371Q62 398 81 417T125 436Q152 436 171 417T190 371Q190 346 171 327T125 308ZM53 -150V-133Q98 -126 125 -96T153 -22Q153 9 128 31T61 59V82Q81 95 93 109T117 149Q161 133 187 103T213
24Q213 -19 193 -57T138 -121T53 -150Z" />
<glyph unicode="&lt;" horiz-adv-x="530" d="M455 183V137L80 315L81 353L455 529V484L121 334L455 183Z" />
<glyph unicode="=" horiz-adv-x="530" d="M73 430V468H457V430H73ZM73 457V495H457V457H73Z" />
<glyph unicode="&gt;" horiz-adv-x="530" d="M75 183L409 334L75 484V529L449 353L450 315L75 137V183Z" />
<glyph unicode="?" horiz-adv-x="364" d="M88 199Q88 260 98 293T134 342T206 366Q243 373 260 381T284 405T290 443Q290 478 276 492T231 513L63 545V673H81L85 647Q88 628 96 619T120 606L216 589Q272 579 295 546T319 444Q319 376 295 334T200 282Q165 277
147 267T122 241T115 199H88ZM101 -6Q79 -6 62 11T45 50Q45 74 62 91T101 108Q125 108 142 91T159 50Q159 28 142 11T101 -6Z" />
<glyph unicode="@" horiz-adv-x="972" d="M497 -206Q410 -206 329 -179T184 -98T83 37T45 228Q45 322 82 404T183 548T332 646T509 681Q613 681 693 649T828 563T911 443T940 307Q940 229 917 172T856 78T776 22T691 4Q658 4 631 16T588 51T572 109V121L578 79Q559
64 537 47T492 19T447 7Q419 7 394 26T353 74T337 135Q337 152 340 159T351 169L526 236Q549 245 558 256T567 287V305Q567 350 546 382T480 414Q451 414 431 402T411 366Q411 362 414 356T421 345Q427 337 431 328T435 309Q435 290 421 279T389 268Q371 268 357
280T343 319Q343 352 365 379T422 423T495 439Q542 439 573 421T619 372T635 305V142Q635 81 651 61T713 41Q757 41 792 73T849 164T870 307Q870 369 848 429T779 539T665 618T505 648Q426 648 355 618T228 533T142 401T110 229Q110 125 141 50T227 -74T352 -146T500
-170Q584 -170 669 -143T828 -67L844 -88Q770 -147 680 -176T497 -206ZM476 60Q495 60 514 69T552 93Q568 104 568 127V214Q568 217 566 219T560 219L423 162Q418 160 416 154T414 132Q414 115 424 98T448 71T476 60Z" />
<glyph unicode="A" horiz-adv-x="763" d="M5 0V18L52 26Q86 32 104 45T132 84L335 580L314 635Q335 636 349 647T370 673T377 698H386L630 107Q648 63 667 48T718 26L758 18V0H429V18L483 27Q515 32 527 39T539 58Q539 66 535 77T526 102L343 564H366L167 82Q164
75 162 69T160 57Q160 45 169 39T197 30L262 18V0H5ZM227 229L220 261H513V229H227Z" />
<glyph unicode="B" horiz-adv-x="695" d="M40 0V18L101 29Q142 37 153 47T165 88V585Q165 617 154 627T101 644L40 655V673H368Q437 673 487 654T565 599T593 517Q593 454 547 421T429 375V373Q476 367 522 347T599 291T630 198Q630 131 592 87T490 22T348 0H40ZM328
24H352Q398 24 437 43T502 100T527 190Q527 237 506 274T446 334T352 357H254V90Q254 57 269 41T328 24ZM254 383H358Q424 383 462 422T500 514Q500 579 462 614T350 649H254V383Z" />
<glyph unicode="C" horiz-adv-x="735" d="M400 -12Q321 -12 256 14T144 89T71 200T45 337Q45 414 73 477T151 586T264 656T396 681Q451 681 487 673T550 655Q571 648 588 643T625 637Q636 637 644 639T662 642L664 640Q660 616 660 575T677 468H657Q641 510 606
553T518 626T400 656Q331 656 273 616T179 504T143 339Q143 246 176 172T268 55T401 12Q422 12 456 18T528 44T602 102T660 205H680Q670 157 662 111T654 25H644Q623 25 596 20T535 8Q501 1 465 -5T400 -12Z" />
<glyph unicode="D" horiz-adv-x="805" d="M40 0V18L101 29Q142 37 153 47T165 88V585Q165 617 154 627T101 644L40 655V673H361Q455 673 529 646T654 571T733 462T760 335Q760 256 730 194T645 88T517 23T356 0H40ZM356 24Q441 24 510 59T620 164T661 335Q661
438 623 507T512 613T337 649H255V78Q255 51 275 38T356 24Z" />
<glyph unicode="E" horiz-adv-x="685" d="M40 0V18L101 29Q142 37 153 47T165 88V585Q165 617 154 627T101 644L40 655V673H609Q606 659 605 645T603 617Q603 580 609 549T619 496H599Q584 540 565 574T513 629T430 649H256V369H415Q467 369 484 387T510 447L519
494H537V216H519L510 263Q502 305 485 323T415 341H256V90Q256 66 262 52T285 31T334 25H426Q467 25 502 41T562 81T600 129L626 180H645Q632 134 626 87T619 0H40Z" />
<glyph unicode="F" horiz-adv-x="644" d="M40 0V18L101 29Q142 37 153 47T165 88V585Q165 617 154 627T101 644L40 655V673H609Q606 659 605 645T603 617Q603 580 609 549T619 496H599Q593 518 581 544T549 594T504 633T443 649H256V349H390Q421 349 445 352T487
372T510 427L518 474H536V198L518 197L510 241Q503 281 485 297T443 317T389 321H255V88Q255 57 266 47T319 29L385 18V0H40Z" />
<glyph unicode="G" horiz-adv-x="807" d="M400 -12Q322 -12 257 14T145 88T71 199T45 337Q45 413 75 476T155 585T270 656T403 681Q451 681 486 675T547 659T596 644T640 637Q652 637 663 639T678 643L680 641Q678 634 677 620T675 594Q675 571 678 544T685 496T692
468H672Q656 511 618 554T526 626T403 656Q348 656 301 630T219 560T163 458T143 339Q143 285 158 228T204 121T284 42T400 12Q446 12 495 30T576 78V214Q576 246 565 256T512 273L451 284V302H787V284L735 275Q694 268 683 258T671 216V25L666 22Q659 24 648 25T625
26Q609 26 586 21T534 8Q503 1 469 -5T400 -12Z" />
<glyph unicode="H" horiz-adv-x="836" d="M456 0V18L517 29Q558 37 569 47T581 88V585Q581 617 570 627T517 644L456 655V673H796V655L735 644Q694 637 683 627T671 585V88Q671 57 682 47T735 29L796 18V0H456ZM40 0V18L101 29Q142 37 153 47T165 88V585Q165 617
154 627T101 644L40 655V673H380V655L319 644Q278 637 267 627T255 585V88Q255 57 266 47T319 29L380 18V0H40ZM230 341L226 369H611L614 341H230Z" />
<glyph unicode="I" horiz-adv-x="420" d="M40 0V18L101 29Q142 37 153 47T165 88V585Q165 617 154 627T101 644L40 655V673H380V655L319 644Q278 637 267 627T255 585V88Q255 57 266 47T319 29L380 18V0H40Z" />
<glyph unicode="J" horiz-adv-x="415" d="M72 -178Q41 -178 17 -163T-21 -124T-35 -77Q-35 -48 -18 -34T21 -19Q48 -19 61 -36T75 -75Q75 -94 62 -110T29 -127Q23 -127 23 -129Q23 -137 39 -145T77 -154Q118 -154 146 -125T175 -21V585Q175 617 164 627T111 644L50
655V673H390V655L329 644Q288 637 277 627T265 585V-35H261Q249 -35 240 -50T218 -86Q207 -106 189 -127T143 -163T72 -178Z" />
<glyph unicode="K" horiz-adv-x="799" d="M40 0V18L101 29Q142 37 153 47T165 88V585Q165 617 154 627T101 644L40 655V673H380V655L319 644Q278 637 267 627T255 585V311L567 588Q598 614 594 626T548 647L507 655V673H768V655L722 645Q697 640 677 631T636 606T584
564L399 404L710 55Q727 36 743 30T784 18V0H706Q664 0 636 11T582 51L322 333L255 272V88Q255 57 266 47T319 29L380 18V0H40Z" />
<glyph unicode="L" horiz-adv-x="704" d="M40 0V18L101 29Q142 37 153 47T165 88V585Q165 617 154 627T101 644L40 655V673H380V655L319 644Q278 637 267 627T255 585V90Q255 53 270 39T334 25H475Q516 25 551 41T611 81T649 129L675 180H694Q681 134 675 87T668 0H40Z" />
<glyph unicode="M" horiz-adv-x="961" d="M456 -9L211 580L188 89Q187 58 199 48T252 30L314 18V0H35V18L96 30Q124 36 137 41T154 57T160 89L181 579Q183 611 170 625T117 647L75 655V673H267L490 152L708 673H912V655L852 645Q812 638 800 625T788 578L801 88Q802
67 806 56T824 40T865 29L926 18V0H606V18L676 31Q696 35 702 42T708 65L698 561L463 -9H456Z" />
<glyph unicode="N" horiz-adv-x="856" d="M696 -16L195 556V95Q195 64 206 51T259 29L320 18V0H41V18L102 29Q143 37 154 49T166 92V578Q166 601 162 613T142 633T87 647L40 656V673H211L678 153L677 578Q677 610 666 623T613 644L552 655V673H831V655L770 644Q729
637 718 625T706 581V-16H696Z" />
<glyph unicode="O" horiz-adv-x="804" d="M401 -12Q324 -12 259 14T146 87T72 195T45 327Q45 404 71 468T146 581T259 656T401 683Q479 683 544 657T658 583T732 473T759 340Q759 265 733 201T658 89T545 15T401 -12ZM401 15Q477 15 535 57T626 173T659 339Q659
426 626 497T535 611T401 654Q327 654 269 612T178 495T145 327Q145 263 164 207T217 107T299 40T401 15Z" />
<glyph unicode="P" horiz-adv-x="670" d="M41 0V18L102 29Q143 37 154 47T166 88V572Q166 602 161 615T139 635T85 647L40 655V673H358Q440 673 501 650T596 584T630 486Q630 441 611 408T561 352T493 317T419 304T353 310L354 317Q401 320 440 336T503 389T527
486Q527 574 478 611T342 649H256V88Q256 57 267 47T320 29L381 18V0H41Z" />
<glyph unicode="Q" horiz-adv-x="804" d="M507 9Q515 -4 542 -21T611 -56T699 -88T795 -112T883 -121L889 -137Q855 -144 822 -147T748 -150Q689 -150 629 -138T506 -95T374 -7L507 9ZM401 -12Q324 -12 259 14T146 87T72 195T45 327Q45 404 71 468T146 581T259
656T401 683Q479 683 544 657T658 583T732 473T759 340Q759 265 733 201T658 89T545 15T401 -12ZM401 15Q477 15 535 57T626 173T659 339Q659 426 626 497T535 611T401 654Q327 654 269 612T178 495T145 327Q145 263 164 207T217 107T299 40T401 15Z" />
<glyph unicode="R" horiz-adv-x="774" d="M718 -13Q667 -13 631 9T565 66T505 140Q475 180 448 217T384 277T291 301H255V88Q255 57 266 47T319 29L380 18V0H40V18L101 29Q142 37 153 47T165 88V585Q165 617 154 627T101 644L40 655V673H320Q455 673 528 623T601
487Q601 441 576 406T510 349T419 321V318Q465 318 497 295T554 235T607 159Q633 122 659 89T712 34T769 13V-5Q745 -13 718 -13ZM255 329H320Q379 329 419 348T481 401T503 483Q503 565 451 607T307 650H255V329Z" />
<glyph unicode="S" horiz-adv-x="567" d="M288 -8Q206 -8 148 13T55 53Q63 97 63 142T50 235H79Q87 173 113 124T185 45T294 16Q337 16 370 32T423 78T443 145Q443 184 428 209T373 256T261 303Q172 334 124 375T75 494Q75 545 99 588T171 658T290 685Q321 685
343 677T384 660Q399 653 413 647T441 641L466 646L470 643Q469 630 468 618T467 594Q467 573 469 553T475 512T484 472H462Q442 524 419 566T363 634T277 660Q244 660 215 646T168 605T150 539Q150 501 163 477T212 433T320 388Q394 363 437 336T498 273T517 188Q517
133 488 89T408 18T288 -8Z" />
<glyph unicode="T" horiz-adv-x="694" d="M177 0V18L238 29Q279 37 290 47T302 88V649H207Q158 649 125 629T70 574T36 496H15Q22 535 25 564T29 619T25 673H668Q664 645 664 619T668 564T679 496H658Q646 539 625 573T570 628T487 649H392V88Q392 57 403 47T456
29L517 18V0H177Z" />
<glyph unicode="U" horiz-adv-x="792" d="M396 -12Q344 -12 299 4T221 52T169 129T150 231V585Q150 617 139 627T86 644L25 655V673H365V655L304 644Q263 637 252 627T240 585V232Q240 138 290 88T425 37Q486 37 527 61T591 129T613 236V578Q613 610 602 623T549
644L488 655V673H767V655L706 644Q665 637 654 625T642 581V110Q622 110 607 96T573 63Q557 46 535 29T479 0T396 -12Z" />
<glyph unicode="V" horiz-adv-x="760" d="M387 -15L131 577Q116 612 101 626T47 647L5 655V673H320V655L273 647Q248 643 229 637T210 616Q210 608 214 595T223 571L424 121H412L594 575Q599 587 602 596T606 613Q606 627 595 633T551 646L505 655V673H755V655L713
645Q683 638 665 627T631 576L395 -15H387Z" />
<glyph unicode="W" horiz-adv-x="1129" d="M352 -9L132 574Q119 608 102 624T47 647L5 655V673H329V655L261 643Q227 637 222 625T227 584L386 152L549 574Q563 611 559 623T516 643L455 655V673H734V655L667 643Q641 638 632 632T624 613T635 577L791 152L958
584Q970 615 964 625T924 643L860 655V673H1124V655L1070 647Q1033 642 1016 625T985 574L764 -9H757L565 535L359 -9H352Z" />
<glyph unicode="X" horiz-adv-x="785" d="M10 0V18L53 24Q88 29 116 43T167 80L354 322L172 580Q151 609 129 625T63 649L33 654V673H371V655L317 647Q275 640 264 627T277 580L416 384L577 588Q591 606 588 621T559 641L491 655V673H770V655L727 649Q692 644
666 629T614 589L433 360L604 127Q641 77 670 55T745 24L775 19V0H437V18L491 27Q518 32 530 39T541 59T521 96L371 298L203 81Q189 62 193 50T221 32L289 18V0H10Z" />
<glyph unicode="Y" horiz-adv-x="710" d="M329 305L107 604Q92 624 77 634T35 649L5 654V673H319V656L267 648Q227 642 218 627T232 580L400 352H382L533 587Q547 609 545 622T516 641L453 655V673H705V655L667 649Q639 645 616 633T572 588L398 321L329 305ZM192
0V18L253 29Q294 37 305 47T317 88V330L407 340V88Q407 57 418 47T471 29L532 18V0H192Z" />
<glyph unicode="Z" horiz-adv-x="669" d="M30 0V11L499 649H275Q223 649 188 632T129 579T84 489H65Q72 520 76 554T80 621Q80 634 79 647T75 673H620V662L155 25H400Q453 25 497 47T575 105T624 187H644Q632 138 626 93T619 0H30Z" />
<glyph unicode="[" horiz-adv-x="295" d="M75 -215V744H265V714H135V-185H265V-215H75Z" />
<glyph unicode="\" horiz-adv-x="448" d="M428 -7H390L20 710H58L428 -7Z" />
<glyph unicode="]" horiz-adv-x="295" d="M220 -215H30V-185H160V714H30V744H220V-215Z" />
<glyph unicode="^" horiz-adv-x="516" d="M40 325L234 651H282L476 325H418L247 604H269L98 325H40Z" />
<glyph unicode="_" horiz-adv-x="530" d="M0 -93V-58H530V-93H0Z" />
<glyph unicode="`" horiz-adv-x="530" d="M339 543L192 663Q187 668 181 674T174 694Q174 708 184 718T208 728Q224 728 234 715L357 559L339 543Z" />
<glyph unicode="a" horiz-adv-x="466" d="M178 -7Q148 -7 121 12T77 61T60 124Q60 141 63 148T74 158L265 227Q289 236 298 247T307 279V297Q307 343 285 377T217 411Q187 411 168 397T148 359Q148 353 151 348T158 337Q164 329 168 320T172 301Q172 282 159 271T125
259Q103 259 91 272T78 311Q78 345 100 373T159 417T233 434Q281 434 312 415T359 365T375 297V87Q375 66 379 52T404 37Q426 37 451 47V32Q432 20 404 7T357 -7Q335 -7 325 4T311 33T308 69V81L318 67Q298 51 274 34T226 5T178 -7ZM206 41Q226 41 247 51T291 77Q308
91 308 116V208Q308 211 306 213T300 213L143 154Q137 152 135 145T132 121Q132 102 144 84T173 53T206 41Z" />
<glyph unicode="b" horiz-adv-x="544" d="M104 -12L95 -10V606Q95 626 90 634T71 646L25 658V668Q61 676 96 685T164 712L173 706Q165 684 163 661T161 602V377L252 423Q259 426 269 430T289 434Q361 434 407 404T476 326T499 222Q499 166 476 113T406 26T286
-8Q248 -8 211 7T151 46Q137 34 126 20T104 -12ZM288 18Q337 18 368 42T414 106T429 190Q429 240 412 284T360 355T270 383Q218 383 190 357T161 294V153Q161 116 179 85T226 36T288 18Z" />
<glyph unicode="c" horiz-adv-x="446" d="M242 -8Q184 -8 140 20T70 95T45 203Q45 273 76 324T155 405T254 434Q330 434 369 401T409 322Q409 294 394 281T360 267Q341 267 326 279T310 312Q310 326 317 340Q319 345 321 350T324 361Q324 383 302 395T247 408Q216
408 186 391T136 335T116 229Q116 141 160 96T268 50Q335 50 399 103L411 93Q374 40 328 16T242 -8Z" />
<glyph unicode="d" horiz-adv-x="554" d="M254 -8Q183 -8 137 22T68 100T45 204Q45 246 58 287T97 361T163 414T258 434Q296 434 329 425T381 401V606Q381 626 376 634T357 646L302 658V668Q338 676 378 685T451 712L460 706Q452 684 450 661T448 602V73Q448 44
469 33T532 24V5Q500 4 468 0T404 -8L396 -4L389 50H385L291 3Q284 -1 274 -4T254 -8ZM273 39Q322 39 352 67T383 132V273Q383 311 365 341T319 390T256 408Q208 408 177 384T130 321T115 236Q115 180 131 136T183 65T273 39Z" />
<glyph unicode="e" horiz-adv-x="449" d="M244 -8Q186 -8 141 21T71 98T45 207Q45 274 72 325T145 405T250 434Q297 434 331 412T385 351T405 264Q405 258 402 253T389 248H100V271L305 277Q324 277 324 295Q324 342 304 375T239 408Q184 408 150 359T116 229Q116
171 137 131T193 71T270 50Q333 50 397 103L409 93Q372 40 328 16T244 -8Z" />
<glyph unicode="f" horiz-adv-x="320" d="M35 0V15L77 26Q92 30 97 37T103 58V398H36V426H103V498Q103 558 123 606T185 682T285 711Q332 711 363 691T395 641Q395 622 384 610T352 597Q330 597 318 608T306 635Q306 639 307 642T309 648Q310 651 311 654T312
661Q312 672 303 678T279 685Q236 685 212 659T179 589T170 492V426H304L294 398H170V58Q170 44 175 37T196 26L249 15V0H35Z" />
<glyph unicode="g" horiz-adv-x="491" d="M239 -260Q164 -260 118 -243T51 -199T30 -140Q30 -114 50 -84T115 -31T232 -3L239 -11Q166 -21 132 -54T98 -118Q98 -160 138 -189T255 -219Q340 -219 386 -187T433 -112Q433 -62 388 -37T267 -11Q240 -11 214 -13T160
-15Q114 -15 84 5T54 59Q54 60 55 62T60 67Q87 88 108 103T145 143V147Q108 166 87 200T65 279Q65 347 109 390T227 434Q244 434 264 431T303 423Q322 419 340 416T371 413Q397 413 397 429Q397 438 394 445T385 459Q381 466 378 473T374 488Q374 507 385 515T411
524Q431 524 442 509T453 471Q453 425 433 405T383 385Q359 385 335 397V392Q364 370 375 341T387 272Q387 232 369 200T316 150T233 129Q175 127 150 110T124 72Q124 59 136 52T177 45Q203 45 229 46T281 48Q340 48 384 33T452 -11T476 -83Q476 -124 448 -165T366
-233T239 -260ZM228 153Q269 153 292 187T315 277Q315 334 292 372T225 410Q187 410 163 376T139 286Q139 229 163 191T228 153Z" />
<glyph unicode="h" horiz-adv-x="534" d="M316 0V15L358 26Q373 30 378 37T384 58V282Q384 330 358 355T281 381Q232 381 202 349T171 272L144 371H169Q193 381 227 398T286 429Q291 431 295 432T302 434Q373 434 412 399T451 295V58Q451 44 456 37T477 26L519
15V0H316ZM35 0V15L77 26Q92 30 97 37T103 58L105 606Q105 626 100 634T81 646L35 658V668Q71 676 106 685T175 712L184 706Q176 684 174 661T172 602L170 58Q170 44 175 37T196 26L238 15V0H35Z" />
<glyph unicode="i" horiz-adv-x="261" d="M35 0V15L77 26Q103 33 103 58V332Q103 352 98 360T79 372L36 384V394Q72 402 106 411T173 438L182 432Q174 410 172 387T170 328V58Q170 45 176 37T194 26L236 15V0H35ZM135 562Q113 562 96 579T79 618Q79 642 96 659T135
676Q159 676 176 659T193 618Q193 596 176 579T135 562Z" />
<glyph unicode="j" horiz-adv-x="258" d="M19 -259Q-10 -259 -25 -245T-40 -210Q-40 -192 -29 -178T5 -164Q26 -164 38 -174T50 -203Q50 -207 50 -209T49 -214Q49 -220 58 -220Q69 -220 78 -210T94 -181T100 -137V332Q100 352 95 360T76 372L33 384V394Q69 402
103 411T170 438L179 432Q171 410 169 387T167 328V-128Q161 -128 157 -130T151 -139Q129 -194 97 -226T19 -259ZM132 562Q110 562 93 579T76 618Q76 642 93 659T132 676Q156 676 173 659T190 618Q190 596 173 579T132 562Z" />
<glyph unicode="k" horiz-adv-x="522" d="M37 0V15L79 26Q94 30 99 37T105 58V606Q105 626 100 634T81 646L35 658V668Q71 676 106 685T175 712L184 706Q176 684 174 661T172 602V58Q172 44 177 37T198 26L240 15V0H37ZM299 0V15L339 23Q351 26 351 34T347 50L227
233L275 281L417 62Q429 44 442 36T469 24L502 16V0H299ZM161 139L136 154L345 379Q350 384 349 391T338 401L291 411V426H465V411L426 402Q411 398 404 394T387 381L161 139Z" />
<glyph unicode="l" horiz-adv-x="271" d="M35 0V15L77 26Q92 30 97 37T103 58L105 606Q105 626 100 634T81 646L35 658V668Q71 676 106 685T175 712L184 706Q176 684 174 661T172 602L170 58Q170 44 175 37T196 26L238 15V0H35Z" />
<glyph unicode="m" horiz-adv-x="789" d="M571 0V15L613 26Q628 30 633 37T639 58V282Q639 330 614 355T542 381Q496 381 467 349T438 272L411 371H436Q459 381 493 398T549 429Q557 434 564 434Q632 434 669 399T706 295V58Q706 44 711 37T732 26L774 15V0H571ZM35
0V15L77 26Q92 30 97 37T103 58V331Q103 351 98 359T79 371L36 383V393Q59 398 81 404T125 418T167 437L176 431Q171 418 168 403T164 373V363L170 348V58Q170 44 175 37T196 26L238 15V0H35ZM303 0V15L345 26Q360 30 365 37T371 58V282Q371 330 346 355T274 381Q228
381 199 349T170 272L143 371H168Q191 381 225 398T281 429Q289 434 296 434Q364 434 401 399T438 295V58Q438 44 443 37T464 26L506 15V0H303Z" />
<glyph unicode="n" horiz-adv-x="533" d="M315 0V15L357 26Q372 30 377 37T383 58V282Q383 330 357 355T280 381Q231 381 201 349T170 272L143 371H168Q192 381 226 398T285 429Q295 434 301 434Q372 434 411 399T450 295V58Q450 44 455 37T476 26L518 15V0H315ZM35
0V15L77 26Q92 30 97 37T103 58V331Q103 351 98 359T79 371L36 383V393Q59 398 81 404T125 418T167 437L176 431Q171 418 168 403T164 373V363L170 348V58Q170 44 175 37T196 26L238 15V0H35Z" />
<glyph unicode="o" horiz-adv-x="508" d="M254 -8Q192 -8 145 20T71 98T45 209Q45 275 71 326T144 405T254 434Q317 434 364 406T437 328T463 217Q463 151 437 101T364 21T254 -8ZM255 16Q317 16 352 65T387 206Q387 300 352 355T253 410Q191 410 156 361T121
220Q121 126 156 71T255 16Z" />
<glyph unicode="p" horiz-adv-x="541" d="M25 -250V-235L67 -224Q82 -220 87 -213T93 -192V332Q93 352 88 360T69 372L26 384V394Q49 399 71 405T115 418T157 437L166 431Q161 419 158 405T154 376H156L250 423Q257 427 267 430T287 434Q359 434 405 404T473 326T496
222Q496 180 483 139T444 65T378 12T283 -8Q245 -8 212 2T160 25V-192Q160 -206 165 -213T186 -224L234 -235V-250H25ZM285 18Q334 18 365 42T411 106T426 190Q426 240 410 284T358 355T268 383Q216 383 187 357T158 294V153Q158 116 176 85T223 36T285 18Z" />
<glyph unicode="q" horiz-adv-x="542" d="M308 -250V-235L356 -224Q371 -220 376 -213T382 -192V49L292 3Q285 0 275 -4T255 -8Q184 -8 137 22T68 100T45 204Q45 261 68 313T138 400T258 434Q296 434 333 419T393 380Q407 392 418 406T440 439L449 437V-192Q449
-206 454 -213T475 -224L517 -235V-250H308ZM274 43Q326 43 354 69T383 132V273Q383 311 365 341T319 390T256 408Q208 408 177 384T130 321T115 236Q115 186 132 142T184 71T274 43Z" />
<glyph unicode="r" horiz-adv-x="349" d="M35 0V15L77 26Q92 30 97 37T103 58V331Q103 351 98 359T79 371L36 383V393Q59 398 81 404T125 418T167 437L176 431Q171 418 168 403T164 373V363L170 348V58Q170 44 175 37T196 26L244 15V0H35ZM170 282L152 363L268
429Q274 432 280 433T293 435Q311 435 325 423T339 388Q339 370 326 356T290 342Q276 342 267 348T251 361Q246 367 241 372T228 377Q221 377 207 369T182 339T170 282Z" />
<glyph unicode="s" horiz-adv-x="363" d="M182 -8Q139 -8 102 6T44 32Q46 61 46 90T40 150H67Q73 110 88 80T130 32T196 15Q225 15 247 36T270 88Q270 114 262 131T230 162T163 192Q110 213 81 239T52 315Q52 346 69 373T119 417T193 434Q222 434 240 428T278
413H301Q300 379 300 354T307 295H285Q275 350 250 380T187 410Q154 410 133 391T112 343Q112 319 119 304T148 276T211 247Q277 222 302 195T328 120Q328 88 312 59T264 11T182 -8Z" />
<glyph unicode="t" horiz-adv-x="328" d="M177 -8Q93 -8 93 102V398H25V418Q85 432 109 463T138 555H160V426H295L285 398H160V111Q160 72 173 56T208 40Q225 40 244 47T286 66L298 50Q264 22 232 7T177 -8Z" />
<glyph unicode="u" horiz-adv-x="526" d="M224 -7Q160 -7 121 24T82 132V355Q82 375 77 382T58 395L15 412V422Q40 422 63 423T108 428T152 434L161 428Q156 415 153 400T149 370V145Q149 97 175 72T249 46Q293 46 321 78T350 154L377 55H352Q329 45 296 29T240
-2Q230 -7 224 -7ZM373 -8L365 -4L358 56L350 79V355Q350 375 345 382T326 395L283 412V422Q308 422 331 423T376 428T420 434L429 428Q424 415 421 400T417 370V73Q417 44 438 33T501 24V5Q469 4 437 0T373 -8Z" />
<glyph unicode="v" horiz-adv-x="471" d="M237 -12L67 379Q62 391 56 396T36 404L5 411V426H217V411L161 398Q148 395 144 390T142 376L265 90H254L375 382Q377 387 375 391T357 399L310 411V426H466V411L434 403Q421 400 415 395T403 378L247 -12H237Z" />
<glyph unicode="w" horiz-adv-x="712" d="M230 -11L70 379Q65 391 59 396T39 404L8 411V426H220V411L164 398Q151 395 147 390T145 376L253 125L348 377Q351 386 348 390T333 399L285 412V426H480V412L425 398Q413 395 408 389T406 375L515 123L610 374Q614 385
612 390T600 398L548 411V426H704V411L672 403Q659 400 653 395T641 378L500 -10H493L357 316L237 -11H230Z" />
<glyph unicode="x" horiz-adv-x="489" d="M10 0V15L57 26Q75 30 88 39T118 69L225 209L224 182L93 379Q87 389 76 395T51 404L20 411V426H233V411L193 398Q180 394 175 389T174 376L275 227H241L342 371Q351 382 347 392T333 403L295 412V426H469V412L425 401Q403
396 392 390T367 363L263 215L270 241L406 47Q412 38 423 32T448 22L479 15V0H265V15L305 28Q319 33 323 38T322 53L222 196L249 197L141 57Q131 46 132 36T146 22L182 15V0H10Z" />
<glyph unicode="y" horiz-adv-x="462" d="M78 -259Q57 -259 41 -247T25 -212Q25 -188 39 -174T76 -159Q87 -159 94 -163T108 -172Q113 -175 118 -177T128 -180Q145 -180 153 -158L226 27L69 379Q64 391 58 396T38 404L7 411V426H219V411L163 398Q150 395 146 390T144
376L272 86H249L366 382Q368 387 366 391T348 399L301 411V426H457V411L425 403Q412 400 406 395T394 378L186 -159Q177 -182 164 -205T131 -243T78 -259Z" />
<glyph unicode="z" horiz-adv-x="405" d="M25 0V6L282 402H195Q155 402 129 389T88 356T67 318T60 289H38Q46 315 49 338T52 380Q52 393 51 404T48 426H373V423L116 25H222Q259 25 286 39T333 79T361 139H380Q370 103 367 70T364 6V0H25Z" />
<glyph unicode="{" horiz-adv-x="357" d="M322 -215Q286 -215 247 -210T175 -189T121 -143T100 -62Q100 -27 109 13T128 95T137 170Q137 202 123 219T87 243T40 250V279Q65 279 87 285T123 309T137 359Q137 394 128 434T110 516T100 591Q100 641 120 671T174 717T247
738T322 744V719Q276 718 242 708T189 673T170 598Q170 568 173 537T181 475Q184 450 186 427T189 383Q189 343 177 319T148 283T114 265V264Q130 259 147 247T177 210T189 146Q189 125 186 99T179 44Q176 16 173 -12T170 -69Q170 -117 188 -143T241 -178T322 -190V-215Z"
/>
<glyph unicode="|" horiz-adv-x="261" d="M110 711H151V-250H110V711Z" />
<glyph unicode="}" horiz-adv-x="357" d="M35 -215V-190Q82 -188 116 -179T168 -143T187 -69Q187 -41 184 -13T178 44Q174 73 171 99T168 146Q168 186 180 210T209 246T243 264V265Q227 271 210 283T180 319T168 383Q168 403 170 426T176 475Q180 505 183 536T187
598Q187 647 169 672T116 708T35 719V744Q71 744 110 739T182 718T236 672T257 591Q257 557 248 516T230 435T220 359Q220 327 234 310T270 286T317 279V250Q293 250 271 244T234 220T220 170Q220 136 229 95T248 14T257 -62Q257 -112 237 -142T183 -188T110 -209T35
-215Z" />
<glyph unicode="~" horiz-adv-x="530" d="M97 292L63 299Q74 343 102 362T166 381Q193 381 221 374T277 356Q303 347 327 340T372 332Q394 332 408 341T431 378L465 371Q455 327 426 308T362 289Q335 289 307 296T251 314Q226 323 202 330T156 338Q134 338 120
329T97 292Z" />
<glyph unicode="&#xa0;" horiz-adv-x="265" />
<glyph unicode="&#xa1;" horiz-adv-x="214" d="M93 289H120L152 -170H62L93 289ZM106 494Q130 494 147 478T164 438Q164 414 147 397T106 380Q84 380 67 397T50 438Q50 461 67 477T106 494Z" />
<glyph unicode="&#xa2;" horiz-adv-x="446" d="M85 -81L59 -70L333 526L359 515L85 -81ZM242 -8Q184 -8 140 20T70 95T45 203Q45 273 76 324T155 405T254 434Q330 434 369 401T409 322Q409 294 394 281T360 267Q341 267 326 279T310 312Q310 326 317 340Q319 345
321 350T324 361Q324 383 302 395T247 408Q216 408 186 391T136 335T116 229Q116 141 160 96T268 50Q335 50 399 103L411 93Q374 40 328 16T242 -8Z" />
<glyph unicode="&#xa3;" horiz-adv-x="621" d="M37 -97Q29 -97 25 -92T20 -78Q20 -55 35 -26T78 32T142 78T219 97Q249 97 275 84T325 50T367 6Q399 -33 421 -46T466 -60Q493 -60 506 -42T519 -2Q519 15 514 25T502 43Q496 51 491 59T486 81Q486 98 495 110T524
123Q546 123 556 105T567 56Q567 25 553 -8T512 -65T443 -89Q391 -89 358 -68T290 -4Q265 27 240 49T186 72Q162 72 144 60T112 30T92 -4T82 -27L76 -28Q99 21 112 60T135 132T151 198Q159 242 168 290T195 402Q212 462 231 512T280 601T352 660T460 681Q504 681
535 668T583 631T600 578Q600 554 586 542T554 530Q534 530 520 542T506 576Q506 587 508 594T513 606Q515 611 516 615T518 625Q518 639 499 646T461 654Q421 654 390 629T335 553T293 426Q274 348 250 272T199 130T144 12T89 -68T37 -97ZM37 250L36 280H410V250H37Z"
/>
<glyph unicode="&#xa4;" horiz-adv-x="555" d="M278 181Q221 181 180 205T117 269T94 359Q94 408 116 448T180 513T278 537Q335 537 376 513T439 449T461 359Q461 310 439 270T376 205T278 181ZM84 136L55 163L147 255L178 230L84 136ZM148 459L55 552L82 581L175
488L148 459ZM278 214Q331 214 366 253T401 359Q401 427 366 465T278 504Q224 504 189 466T154 359Q154 292 189 253T278 214ZM473 136L380 228L408 257L500 165L473 136ZM410 464L379 488L471 581L500 554L410 464Z" />
<glyph unicode="&#xa5;" horiz-adv-x="710" d="M142 325V355H572V325H142ZM142 192V222H572V192H142ZM329 305L107 604Q92 624 77 634T35 649L5 654V673H319V656L267 648Q227 642 218 627T232 580L400 352H382L533 587Q547 609 545 622T516 641L453 655V673H705V655L667
649Q639 645 616 633T572 588L398 321L329 305ZM192 0V18L253 29Q294 37 305 47T317 88V330L407 340V88Q407 57 418 47T471 29L532 18V0H192Z" />
<glyph unicode="&#xa6;" horiz-adv-x="261" d="M110 340V691H151V340H110ZM151 -141H110V210H151V-141Z" />
<glyph unicode="&#xa7;" horiz-adv-x="428" d="M239 88L249 113Q277 113 301 137T326 194Q326 234 309 264T263 320T204 370Q172 396 142 423T93 483T74 560Q74 597 91 627T141 676T216 695Q287 695 321 666T356 602Q356 578 342 568T312 558Q290 558 279 570T267
598Q267 605 269 611T273 623Q275 628 277 633T279 642Q279 655 260 662T211 669Q189 669 172 659T144 632T134 591Q134 551 152 520T199 464T259 413Q290 388 318 362T365 303T383 229Q383 194 368 162T320 109T239 88ZM210 -199Q128 -199 87 -165T46 -87Q46 -63
58 -49T91 -35Q115 -35 127 -49T140 -81Q140 -88 138 -94T134 -106Q132 -111 130 -116T128 -125Q128 -145 154 -160T216 -175Q257 -175 279 -149T302 -87Q302 -50 284 -21T238 33T178 83Q146 109 115 136T65 196T45 273Q45 309 63 339T114 389T190 408L189 383Q155
383 132 361T108 304Q108 264 126 234T172 178T233 126Q265 101 293 75T340 16T359 -58Q359 -93 344 -125T296 -178T210 -199Z" />
<glyph unicode="&#xa8;" horiz-adv-x="530" d="M165 571Q145 571 130 586T114 622Q114 644 129 659T165 675Q187 675 202 660T218 622Q218 602 203 587T165 571ZM364 571Q344 571 329 586T313 622Q313 644 328 659T364 675Q386 675 401 660T417 622Q417 602 402
587T364 571Z" />
<glyph unicode="&#xa9;" horiz-adv-x="755" d="M378 3Q268 3 192 48T75 167T35 332Q35 399 58 461T127 572T235 651T378 680Q456 680 519 655T627 584T696 479T720 353Q720 286 697 223T630 111T522 32T378 3ZM382 152Q323 152 279 178T209 248T184 346Q184 403
211 446T284 514T380 538Q410 538 430 533T465 522Q476 518 486 516T507 513Q512 513 517 514T527 516L528 514Q526 501 526 479T536 419H516Q503 455 470 484T382 514Q324 514 292 469T259 348Q259 271 290 226T382 180Q426 180 460 197T516 273H537Q532 246 527
221T522 172H517Q506 172 491 170T457 163Q438 159 418 156T382 152ZM380 32Q465 32 533 73T641 186T681 349Q681 414 658 469T594 565T497 629T377 652Q313 652 258 626T162 555T98 453T75 335Q75 242 115 174T224 69T380 32Z" />
<glyph unicode="&#xaa;" horiz-adv-x="357" d="M124 372Q102 372 82 387T48 428T35 479Q35 492 37 498T46 506L186 558Q206 566 213 574T220 599V613Q220 645 203 669T151 693Q129 693 114 684T99 657Q99 653 101 650T106 641Q110 636 113 630T117 616Q117 603
104 591T76 579Q63 579 51 589T39 619Q39 646 57 667T104 702T164 715Q223 715 253 682T283 598V454Q283 440 286 430T304 419Q312 419 321 421T337 425V403Q324 393 302 383T266 372Q239 372 231 391T223 432V441L231 430Q209 411 180 392T124 372ZM150 415Q164
415 178 423T207 443Q220 453 220 472V537Q220 545 214 541L106 497Q102 495 101 489T99 471Q99 449 116 432T150 415Z" />
<glyph unicode="&#xab;" horiz-adv-x="365" d="M163 66L25 200V206L164 340L177 331L101 204L176 75L163 66ZM316 66L178 200V206L317 340L330 331L254 204L329 75L316 66Z" />
<glyph unicode="&#xac;" horiz-adv-x="530" d="M420 228V391H42V429H458V228H420Z" />
<glyph unicode="&#xad;" horiz-adv-x="265" d="M20 315H245V255H20V315Z" />
<glyph unicode="&#xae;" horiz-adv-x="494" d="M247 231Q175 231 124 261T47 340T20 449Q20 493 35 534T81 609T153 661T247 680Q317 680 367 651T446 572T474 463Q474 404 447 351T369 264T247 231ZM249 257Q304 257 347 283T416 356T442 461Q442 516 416 560T346
629T247 655Q184 655 142 626T77 552T55 456Q55 406 77 361T142 286T249 257ZM364 350Q341 350 325 366T293 402Q277 422 262 437T218 453H211V389Q211 379 215 376T234 369L249 365V354H132V365L147 369Q161 373 165 376T169 389V550Q169 561 165 563T147 570L132
574V585H228Q279 585 305 568T331 521Q331 497 312 482T262 464V463Q285 463 302 446T334 408Q347 389 360 374T389 358V353Q385 351 377 351T364 350ZM211 470H228Q252 470 267 484T283 520Q283 545 266 558T224 572H211V470Z" />
<glyph unicode="&#xaf;" horiz-adv-x="530" d="M115 599V637H415V599H115Z" />
<glyph unicode="&#xb0;" horiz-adv-x="345" d="M172 416Q136 416 106 434T58 482T40 549Q40 585 58 615T106 663T172 681Q209 681 239 663T287 615T305 549Q305 513 287 483T239 434T172 416ZM171 457Q209 457 236 484T264 550Q264 588 237 615T171 643Q133 643
106 616T78 550Q78 512 105 485T171 457Z" />
<glyph unicode="&#xb1;" horiz-adv-x="530" d="M246 227V365H73V403H246V540H284V403H457V365H284V227H246ZM73 131V169H457V131H73Z" />
<glyph unicode="&#xb2;" horiz-adv-x="316" d="M35 349V355L117 430Q158 468 174 511T190 594Q190 632 171 650T129 668Q108 668 95 662T81 644Q81 636 87 629T93 609Q93 599 85 592T63 584Q53 584 44 594T35 619Q35 651 68 668T146 686Q177 686 204 677T249 648T267
597Q267 565 251 538T206 484T141 423L81 366L93 410H214Q231 410 237 415T251 437L257 454H271L255 349H35Z" />
<glyph unicode="&#xb3;" horiz-adv-x="323" d="M123 345Q85 345 58 362T30 406Q30 423 38 433T59 443Q71 443 78 435T86 416Q86 403 79 397T71 385Q71 376 88 370T128 363Q159 363 181 380T203 446Q203 481 190 502T133 525Q125 523 115 519T97 513L89 527L113
537Q146 551 162 572T179 618Q179 644 168 656T130 668Q110 668 97 662T83 645Q83 639 90 633T97 617Q97 606 89 598T67 590Q57 590 49 600T41 625Q41 653 71 669T142 686Q188 686 217 670T247 622Q247 598 228 579T172 549V546Q222 543 250 517T278 459Q278 422
256 397T199 358T123 345Z" />
<glyph unicode="&#xb4;" horiz-adv-x="530" d="M191 543L173 559L296 715Q306 728 322 728Q336 728 346 718T356 694Q356 681 350 675T338 663L191 543Z" />
<glyph unicode="&#xb5;" horiz-adv-x="526" d="M81 -260L82 355Q82 375 77 382T58 395L15 412V422Q40 422 63 423T108 428T152 434L161 428Q156 415 153 400T149 370V145Q149 97 175 72T249 46Q296 46 323 80T350 159L377 55H352Q329 45 296 29T240 -2Q230 -7
224 -7Q173 -7 138 13L152 -242L81 -260ZM373 -8L365 -4L358 56L350 79V355Q350 375 345 382T326 395L283 412V422Q308 422 331 423T376 428T420 434L429 428Q424 415 421 400T417 370V73Q417 44 438 33T501 24V5Q469 4 437 0T373 -8Z" />
<glyph unicode="&#xb6;" horiz-adv-x="641" d="M260 -229Q202 -229 155 -202T79 -128T50 -26Q50 37 87 79T185 121Q220 121 238 102T256 60Q256 41 244 23T206 4Q187 4 172 17T157 58V60Q157 65 154 67T146 69Q137 69 124 59T100 28T89 -26Q89 -73 112 -111T173
-173T259 -196Q307 -196 345 -176T407 -107T430 28V235H317Q250 235 195 264T106 344T73 454Q73 517 102 566T190 644T340 673H596V658L535 647Q494 640 483 630T471 588V27Q471 -64 443 -120T367 -203T260 -229Z" />
<glyph unicode="&#xb7;" horiz-adv-x="265" d="M131 294Q106 294 87 313T68 357Q68 384 87 403T131 422Q158 422 177 403T196 357Q196 332 177 313T131 294Z" />
<glyph unicode="&#xb8;" horiz-adv-x="530" d="M167 -247V-221Q201 -219 231 -213T279 -192T298 -155Q298 -127 274 -111T196 -94L223 0H255L244 -42Q295 -48 329 -66T364 -122Q364 -155 348 -178T304 -215T241 -237T167 -247Z" />
<glyph unicode="&#xb9;" horiz-adv-x="272" d="M35 349V364L59 368Q83 372 92 374T104 384T106 406V647Q106 659 92 659L43 657V672L171 691V406Q171 391 173 384T185 375T218 368L242 364V349H35Z" />
<glyph unicode="&#xba;" horiz-adv-x="375" d="M187 372Q137 372 100 394T41 454T20 540Q20 592 41 631T99 692T187 715Q238 715 275 693T334 633T355 546Q355 495 334 456T276 395T187 372ZM188 399Q235 399 260 435T286 538Q286 607 260 647T187 687Q141 687
115 652T89 549Q89 480 115 440T188 399Z" />
<glyph unicode="&#xbb;" horiz-adv-x="365" d="M48 66L35 75L111 202L36 331L49 340L187 206V200L48 66ZM201 66L188 75L263 204L187 331L200 340L339 206V200L201 66Z" />
<glyph unicode="&#xbc;" horiz-adv-x="571" d="M410 0V256L436 277L308 109L297 116H481Q492 116 495 119T502 131L509 149H521L509 63H244V72L454 342H470V0H410ZM35 349V364L59 368Q83 372 92 374T104 384T106 406V647Q106 659 92 659L43 657V672L171 691V406Q171
391 173 384T185 375T218 368L242 364V349H35ZM490 683H536L112 0H65L490 683Z" />
<glyph unicode="&#xbd;" horiz-adv-x="622" d="M35 349V364L59 368Q83 372 92 374T104 384T106 406V647Q106 659 92 659L43 657V672L171 691V406Q171 391 173 384T185 375T218 368L242 364V349H35ZM490 683H536L112 0H65L490 683ZM341 0V6L423 81Q464 119 480
162T496 245Q496 283 477 301T435 319Q414 319 401 313T387 295Q387 287 393 280T399 260Q399 250 391 243T369 235Q359 235 350 245T341 270Q341 302 374 319T452 337Q483 337 510 328T555 299T573 248Q573 216 557 189T512 135T447 74L387 17L399 61H520Q537
61 543 66T557 88L563 105H577L561 0H341Z" />
<glyph unicode="&#xbe;" horiz-adv-x="591" d="M420 0V256L446 277L318 109L307 116H491Q502 116 505 119T512 131L519 149H531L519 63H254V72L464 342H480V0H420ZM500 683H546L122 0H75L500 683ZM123 345Q85 345 58 362T30 406Q30 423 38 433T59 443Q71 443 78
435T86 416Q86 403 79 397T71 385Q71 376 88 370T128 363Q159 363 181 380T203 446Q203 481 190 502T133 525Q125 523 115 519T97 513L89 527L113 537Q146 551 162 572T179 618Q179 644 168 656T130 668Q110 668 97 662T83 645Q83 639 90 633T97 617Q97 606 89
598T67 590Q57 590 49 600T41 625Q41 653 71 669T142 686Q188 686 217 670T247 622Q247 598 228 579T172 549V546Q222 543 250 517T278 459Q278 422 256 397T199 358T123 345Z" />
<glyph unicode="&#xbf;" horiz-adv-x="364" d="M276 286Q276 226 266 193T231 143T158 119Q121 113 104 104T80 81T74 42Q74 8 88 -7T133 -28L301 -60V-188H283L279 -162Q276 -142 268 -133T244 -121L148 -104Q93 -94 69 -60T45 41Q45 109 69 151T164 203Q200
208 218 218T242 245T249 286H276ZM263 491Q286 491 302 475T319 435Q319 411 303 394T263 377Q239 377 222 394T205 435Q205 458 222 474T263 491Z" />
<glyph unicode="&#xc0;" horiz-adv-x="763" d="M5 0V18L52 26Q86 32 104 45T132 84L335 580L314 635Q335 636 349 647T370 673T377 698H386L630 107Q648 63 667 48T718 26L758 18V0H429V18L483 27Q515 32 527 39T539 58Q539 66 535 77T526 102L343 564H366L167
82Q164 75 162 69T160 57Q160 45 169 39T197 30L262 18V0H5ZM227 229L220 261H513V229H227ZM473 735L294 798Q287 800 279 804T266 821Q262 834 267 847T286 864Q302 869 315 861L484 756L473 735Z" />
<glyph unicode="&#xc1;" horiz-adv-x="763" d="M5 0V18L52 26Q86 32 104 45T132 84L335 580L314 635Q335 636 349 647T370 673T377 698H386L630 107Q648 63 667 48T718 26L758 18V0H429V18L483 27Q515 32 527 39T539 58Q539 66 535 77T526 102L343 564H366L167
82Q164 75 162 69T160 57Q160 45 169 39T197 30L262 18V0H5ZM227 229L220 261H513V229H227ZM287 735L276 756L445 861Q458 869 474 864Q488 860 493 847T494 821Q490 808 482 804T466 798L287 735Z" />
<glyph unicode="&#xc2;" horiz-adv-x="763" d="M5 0V18L52 26Q86 32 104 45T132 84L335 580L314 635Q335 636 349 647T370 673T377 698H386L630 107Q648 63 667 48T718 26L758 18V0H429V18L483 27Q515 32 527 39T539 58Q539 66 535 77T526 102L343 564H366L167
82Q164 75 162 69T160 57Q160 45 169 39T197 30L262 18V0H5ZM227 229L220 261H513V229H227ZM369 860H379L510 738L501 724L373 784L247 724L238 738L369 860Z" />
<glyph unicode="&#xc3;" horiz-adv-x="763" d="M5 0V18L52 26Q86 32 104 45T132 84L335 580L314 635Q335 636 349 647T370 673T377 698H386L630 107Q648 63 667 48T718 26L758 18V0H429V18L483 27Q515 32 527 39T539 58Q539 66 535 77T526 102L343 564H366L167
82Q164 75 162 69T160 57Q160 45 169 39T197 30L262 18V0H5ZM227 229L220 261H513V229H227ZM79 718V732H89Q123 732 139 736T164 748T182 771Q201 802 226 826T287 866T375 881Q426 881 462 866T523 827T567 772Q576 758 584 749T609 736T660 732H670V718H549Q548
751 527 777T467 819T375 835Q322 835 283 820T223 778T200 718H79Z" />
<glyph unicode="&#xc4;" horiz-adv-x="763" d="M5 0V18L52 26Q86 32 104 45T132 84L335 580L314 635Q335 636 349 647T370 673T377 698H386L630 107Q648 63 667 48T718 26L758 18V0H429V18L483 27Q515 32 527 39T539 58Q539 66 535 77T526 102L343 564H366L167
82Q164 75 162 69T160 57Q160 45 169 39T197 30L262 18V0H5ZM227 229L220 261H513V229H227ZM274 747Q254 747 239 762T223 798Q223 820 238 835T274 851Q296 851 311 836T327 798Q327 778 312 763T274 747ZM473 747Q453 747 438 762T422 798Q422 820 437 835T473
851Q495 851 510 836T526 798Q526 778 511 763T473 747Z" />
<glyph unicode="&#xc5;" horiz-adv-x="763" d="M5 0V18L52 26Q86 32 104 45T132 84L335 580L314 635Q335 636 349 647T370 673T377 698H386L630 107Q648 63 667 48T718 26L758 18V0H429V18L483 27Q515 32 527 39T539 58Q539 66 535 77T526 102L343 564H366L167
82Q164 75 162 69T160 57Q160 45 169 39T197 30L262 18V0H5ZM227 229L220 261H513V229H227ZM465 776Q465 739 439 712T374 685Q337 685 310 712T283 776Q283 814 310 840T374 867Q412 867 438 841T465 776ZM428 776Q428 799 413 814T375 830Q353 830 337 815T320
776Q320 754 336 738T375 722Q398 722 413 738T428 776Z" />
<glyph unicode="&#xc6;" horiz-adv-x="1019" d="M5 0V18L40 24Q74 30 97 46T137 86L514 615L519 570L173 82Q158 63 163 50T199 30L262 18V0H5ZM270 229V260H524V229H270ZM374 0V18L435 29Q476 37 487 47T499 88V585Q499 617 488 627T435 644L374 655V673H943Q940
659 939 645T937 617Q937 580 943 549T953 496H933Q918 540 899 574T847 629T764 649H590V369H749Q801 369 818 387T844 447L853 494H871V216H853L844 263Q836 305 819 323T749 341H590V90Q590 66 596 52T619 31T668 25H760Q801 25 836 41T896 81T934 129L960 180H979Q966
134 960 87T953 0H374Z" />
<glyph unicode="&#xc7;" horiz-adv-x="735" d="M400 -12Q321 -12 256 14T144 89T71 200T45 337Q45 414 73 477T151 586T264 656T396 681Q451 681 487 673T550 655Q571 648 588 643T625 637Q636 637 644 639T662 642L664 640Q660 616 660 575T677 468H657Q641 510
606 553T518 626T400 656Q331 656 273 616T179 504T143 339Q143 246 176 172T268 55T401 12Q422 12 456 18T528 44T602 102T660 205H680Q670 157 662 111T654 25H644Q623 25 596 20T535 8Q501 1 465 -5T400 -12ZM303 -244V-218Q337 -216 367 -210T415 -189T434
-152Q434 -124 410 -108T332 -91L359 3H391L380 -39Q431 -45 465 -63T500 -119Q500 -152 484 -175T440 -212T377 -234T303 -244Z" />
<glyph unicode="&#xc8;" horiz-adv-x="685" d="M40 0V18L101 29Q142 37 153 47T165 88V585Q165 617 154 627T101 644L40 655V673H609Q606 659 605 645T603 617Q603 580 609 549T619 496H599Q584 540 565 574T513 629T430 649H256V369H415Q467 369 484 387T510
447L519 494H537V216H519L510 263Q502 305 485 323T415 341H256V90Q256 66 262 52T285 31T334 25H426Q467 25 502 41T562 81T600 129L626 180H645Q632 134 626 87T619 0H40ZM467 735L288 798Q281 800 273 804T260 821Q256 834 261 847T280 864Q296 869 309 861L478
756L467 735Z" />
<glyph unicode="&#xc9;" horiz-adv-x="685" d="M40 0V18L101 29Q142 37 153 47T165 88V585Q165 617 154 627T101 644L40 655V673H609Q606 659 605 645T603 617Q603 580 609 549T619 496H599Q584 540 565 574T513 629T430 649H256V369H415Q467 369 484 387T510
447L519 494H537V216H519L510 263Q502 305 485 323T415 341H256V90Q256 66 262 52T285 31T334 25H426Q467 25 502 41T562 81T600 129L626 180H645Q632 134 626 87T619 0H40ZM281 735L270 756L439 861Q452 869 468 864Q482 860 487 847T488 821Q484 808 476 804T460
798L281 735Z" />
<glyph unicode="&#xca;" horiz-adv-x="685" d="M40 0V18L101 29Q142 37 153 47T165 88V585Q165 617 154 627T101 644L40 655V673H609Q606 659 605 645T603 617Q603 580 609 549T619 496H599Q584 540 565 574T513 629T430 649H256V369H415Q467 369 484 387T510
447L519 494H537V216H519L510 263Q502 305 485 323T415 341H256V90Q256 66 262 52T285 31T334 25H426Q467 25 502 41T562 81T600 129L626 180H645Q632 134 626 87T619 0H40ZM363 860H373L504 738L495 724L367 784L241 724L232 738L363 860Z" />
<glyph unicode="&#xcb;" horiz-adv-x="685" d="M40 0V18L101 29Q142 37 153 47T165 88V585Q165 617 154 627T101 644L40 655V673H609Q606 659 605 645T603 617Q603 580 609 549T619 496H599Q584 540 565 574T513 629T430 649H256V369H415Q467 369 484 387T510
447L519 494H537V216H519L510 263Q502 305 485 323T415 341H256V90Q256 66 262 52T285 31T334 25H426Q467 25 502 41T562 81T600 129L626 180H645Q632 134 626 87T619 0H40ZM268 747Q248 747 233 762T217 798Q217 820 232 835T268 851Q290 851 305 836T321 798Q321
778 306 763T268 747ZM467 747Q447 747 432 762T416 798Q416 820 431 835T467 851Q489 851 504 836T520 798Q520 778 505 763T467 747Z" />
<glyph unicode="&#xcc;" horiz-adv-x="420" d="M40 0V18L101 29Q142 37 153 47T165 88V585Q165 617 154 627T101 644L40 655V673H380V655L319 644Q278 637 267 627T255 585V88Q255 57 266 47T319 29L380 18V0H40ZM565 735L386 798Q379 800 371 804T358 821Q354
834 359 847T378 864Q394 869 407 861L576 756L565 735Z" />
<glyph unicode="&#xcd;" horiz-adv-x="420" d="M40 0V18L101 29Q142 37 153 47T165 88V585Q165 617 154 627T101 644L40 655V673H380V655L319 644Q278 637 267 627T255 585V88Q255 57 266 47T319 29L380 18V0H40ZM379 735L368 756L537 861Q550 869 566 864Q580
860 585 847T586 821Q582 808 574 804T558 798L379 735Z" />
<glyph unicode="&#xce;" horiz-adv-x="420" d="M40 0V18L101 29Q142 37 153 47T165 88V585Q165 617 154 627T101 644L40 655V673H380V655L319 644Q278 637 267 627T255 585V88Q255 57 266 47T319 29L380 18V0H40ZM461 860H471L602 738L593 724L465 784L339 724L330
738L461 860Z" />
<glyph unicode="&#xcf;" horiz-adv-x="420" d="M40 0V18L101 29Q142 37 153 47T165 88V585Q165 617 154 627T101 644L40 655V673H380V655L319 644Q278 637 267 627T255 585V88Q255 57 266 47T319 29L380 18V0H40ZM110 747Q90 747 75 762T59 798Q59 820 74 835T110
851Q132 851 147 836T163 798Q163 778 148 763T110 747ZM309 747Q289 747 274 762T258 798Q258 820 273 835T309 851Q331 851 346 836T362 798Q362 778 347 763T309 747Z" />
<glyph unicode="&#xd0;" horiz-adv-x="805" d="M40 321V356H383V321H40ZM40 0V18L101 29Q142 37 153 47T165 88V585Q165 617 154 627T101 644L40 655V673H361Q455 673 529 646T654 571T733 462T760 335Q760 256 730 194T645 88T517 23T356 0H40ZM356 24Q441 24
510 59T620 164T661 335Q661 438 623 507T512 613T337 649H255V78Q255 51 275 38T356 24Z" />
<glyph unicode="&#xd1;" horiz-adv-x="856" d="M696 -16L195 556V95Q195 64 206 51T259 29L320 18V0H41V18L102 29Q143 37 154 49T166 92V578Q166 601 162 613T142 633T87 647L40 656V673H211L678 153L677 578Q677 610 666 623T613 644L552 655V673H831V655L770
644Q729 637 718 625T706 581V-16H696ZM148 718V732H158Q192 732 208 736T233 748T251 771Q270 802 295 826T356 866T444 881Q495 881 531 866T592 827T636 772Q645 758 653 749T678 736T729 732H739V718H618Q617 751 596 777T536 819T444 835Q391 835 352 820T292
778T269 718H148Z" />
<glyph unicode="&#xd2;" horiz-adv-x="804" d="M401 -12Q324 -12 259 14T146 87T72 195T45 327Q45 404 71 468T146 581T259 656T401 683Q479 683 544 657T658 583T732 473T759 340Q759 265 733 201T658 89T545 15T401 -12ZM401 15Q477 15 535 57T626 173T659 339Q659
426 626 497T535 611T401 654Q327 654 269 612T178 495T145 327Q145 263 164 207T217 107T299 40T401 15ZM500 735L321 798Q314 800 306 804T293 821Q289 834 294 847T313 864Q329 869 342 861L511 756L500 735Z" />
<glyph unicode="&#xd3;" horiz-adv-x="804" d="M401 -12Q324 -12 259 14T146 87T72 195T45 327Q45 404 71 468T146 581T259 656T401 683Q479 683 544 657T658 583T732 473T759 340Q759 265 733 201T658 89T545 15T401 -12ZM401 15Q477 15 535 57T626 173T659 339Q659
426 626 497T535 611T401 654Q327 654 269 612T178 495T145 327Q145 263 164 207T217 107T299 40T401 15ZM314 735L303 756L472 861Q485 869 501 864Q515 860 520 847T521 821Q517 808 509 804T493 798L314 735Z" />
<glyph unicode="&#xd4;" horiz-adv-x="804" d="M401 -12Q324 -12 259 14T146 87T72 195T45 327Q45 404 71 468T146 581T259 656T401 683Q479 683 544 657T658 583T732 473T759 340Q759 265 733 201T658 89T545 15T401 -12ZM401 15Q477 15 535 57T626 173T659 339Q659
426 626 497T535 611T401 654Q327 654 269 612T178 495T145 327Q145 263 164 207T217 107T299 40T401 15ZM396 860H406L537 738L528 724L400 784L274 724L265 738L396 860Z" />
<glyph unicode="&#xd5;" horiz-adv-x="804" d="M401 -12Q324 -12 259 14T146 87T72 195T45 327Q45 404 71 468T146 581T259 656T401 683Q479 683 544 657T658 583T732 473T759 340Q759 265 733 201T658 89T545 15T401 -12ZM401 15Q477 15 535 57T626 173T659 339Q659
426 626 497T535 611T401 654Q327 654 269 612T178 495T145 327Q145 263 164 207T217 107T299 40T401 15ZM106 718V732H116Q150 732 166 736T191 748T209 771Q228 802 253 826T314 866T402 881Q453 881 489 866T550 827T594 772Q603 758 611 749T636 736T687 732H697V718H576Q575
751 554 777T494 819T402 835Q349 835 310 820T250 778T227 718H106Z" />
<glyph unicode="&#xd6;" horiz-adv-x="804" d="M401 -12Q324 -12 259 14T146 87T72 195T45 327Q45 404 71 468T146 581T259 656T401 683Q479 683 544 657T658 583T732 473T759 340Q759 265 733 201T658 89T545 15T401 -12ZM401 15Q477 15 535 57T626 173T659 339Q659
426 626 497T535 611T401 654Q327 654 269 612T178 495T145 327Q145 263 164 207T217 107T299 40T401 15ZM301 747Q281 747 266 762T250 798Q250 820 265 835T301 851Q323 851 338 836T354 798Q354 778 339 763T301 747ZM500 747Q480 747 465 762T449 798Q449 820
464 835T500 851Q522 851 537 836T553 798Q553 778 538 763T500 747Z" />
<glyph unicode="&#xd7;" horiz-adv-x="530" d="M135 177L108 204L238 335L108 464L135 491L265 362L395 491L422 464L292 335L421 204L394 177L265 308L135 177Z" />
<glyph unicode="&#xd8;" horiz-adv-x="804" d="M71 -16L44 11L731 681L758 654L71 -16ZM401 -12Q324 -12 259 14T146 87T72 195T45 327Q45 404 71 468T146 581T259 656T401 683Q479 683 544 657T658 583T732 473T759 340Q759 265 733 201T658 89T545 15T401 -12ZM401
15Q477 15 535 57T626 173T659 339Q659 426 626 497T535 611T401 654Q327 654 269 612T178 495T145 327Q145 263 164 207T217 107T299 40T401 15Z" />
<glyph unicode="&#xd9;" horiz-adv-x="792" d="M396 -12Q344 -12 299 4T221 52T169 129T150 231V585Q150 617 139 627T86 644L25 655V673H365V655L304 644Q263 637 252 627T240 585V232Q240 138 290 88T425 37Q486 37 527 61T591 129T613 236V578Q613 610 602
623T549 644L488 655V673H767V655L706 644Q665 637 654 625T642 581V110Q622 110 607 96T573 63Q557 46 535 29T479 0T396 -12ZM524 735L345 798Q338 800 330 804T317 821Q313 834 318 847T337 864Q353 869 366 861L535 756L524 735Z" />
<glyph unicode="&#xda;" horiz-adv-x="792" d="M396 -12Q344 -12 299 4T221 52T169 129T150 231V585Q150 617 139 627T86 644L25 655V673H365V655L304 644Q263 637 252 627T240 585V232Q240 138 290 88T425 37Q486 37 527 61T591 129T613 236V578Q613 610 602
623T549 644L488 655V673H767V655L706 644Q665 637 654 625T642 581V110Q622 110 607 96T573 63Q557 46 535 29T479 0T396 -12ZM338 735L327 756L496 861Q509 869 525 864Q539 860 544 847T545 821Q541 808 533 804T517 798L338 735Z" />
<glyph unicode="&#xdb;" horiz-adv-x="792" d="M396 -12Q344 -12 299 4T221 52T169 129T150 231V585Q150 617 139 627T86 644L25 655V673H365V655L304 644Q263 637 252 627T240 585V232Q240 138 290 88T425 37Q486 37 527 61T591 129T613 236V578Q613 610 602
623T549 644L488 655V673H767V655L706 644Q665 637 654 625T642 581V110Q622 110 607 96T573 63Q557 46 535 29T479 0T396 -12ZM420 860H430L561 738L552 724L424 784L298 724L289 738L420 860Z" />
<glyph unicode="&#xdc;" horiz-adv-x="792" d="M396 -12Q344 -12 299 4T221 52T169 129T150 231V585Q150 617 139 627T86 644L25 655V673H365V655L304 644Q263 637 252 627T240 585V232Q240 138 290 88T425 37Q486 37 527 61T591 129T613 236V578Q613 610 602
623T549 644L488 655V673H767V655L706 644Q665 637 654 625T642 581V110Q622 110 607 96T573 63Q557 46 535 29T479 0T396 -12ZM325 747Q305 747 290 762T274 798Q274 820 289 835T325 851Q347 851 362 836T378 798Q378 778 363 763T325 747ZM524 747Q504 747 489
762T473 798Q473 820 488 835T524 851Q546 851 561 836T577 798Q577 778 562 763T524 747Z" />
<glyph unicode="&#xdd;" horiz-adv-x="710" d="M329 305L107 604Q92 624 77 634T35 649L5 654V673H319V656L267 648Q227 642 218 627T232 580L400 352H382L533 587Q547 609 545 622T516 641L453 655V673H705V655L667 649Q639 645 616 633T572 588L398 321L329
305ZM192 0V18L253 29Q294 37 305 47T317 88V330L407 340V88Q407 57 418 47T471 29L532 18V0H192ZM292 735L281 756L450 861Q463 869 479 864Q493 860 498 847T499 821Q495 808 487 804T471 798L292 735Z" />
<glyph unicode="&#xde;" horiz-adv-x="659" d="M40 0V18L101 29Q142 37 153 47T165 88V585Q165 617 154 627T101 644L40 655V673H380V655L319 644Q278 637 267 627T255 585V543H357Q439 543 500 520T595 454T629 356Q629 311 610 278T560 222T492 187T418 174T352
180L353 187Q400 190 439 206T502 259T526 356Q526 444 477 481T341 519H255V88Q255 57 266 47T319 29L380 18V0H40Z" />
<glyph unicode="&#xdf;" horiz-adv-x="570" d="M404 -8Q361 -8 324 6T266 32Q268 61 268 90T262 150H289Q295 110 310 80T352 32T418 15Q447 15 469 36T492 88Q492 118 477 138T439 174T388 204Q360 219 334 236T291 279T274 342Q274 378 294 402T340 448Q366
471 387 499T409 572Q409 627 383 656T294 685Q246 685 219 659T181 589T170 492V0H35V15L77 26Q92 30 97 37T103 58V398H36V426H103V498Q103 558 127 606T196 682T300 711Q362 711 400 692T457 643T475 583Q475 557 464 537T435 500T399 469Q374 448 354 426T334
370Q334 341 348 322T386 289T434 262Q462 248 488 231T532 187T550 120Q550 88 534 59T486 11T404 -8Z" />
<glyph unicode="&#xe0;" horiz-adv-x="466" d="M178 -7Q148 -7 121 12T77 61T60 124Q60 141 63 148T74 158L265 227Q289 236 298 247T307 279V297Q307 343 285 377T217 411Q187 411 168 397T148 359Q148 353 151 348T158 337Q164 329 168 320T172 301Q172 282
159 271T125 259Q103 259 91 272T78 311Q78 345 100 373T159 417T233 434Q281 434 312 415T359 365T375 297V87Q375 66 379 52T404 37Q426 37 451 47V32Q432 20 404 7T357 -7Q335 -7 325 4T311 33T308 69V81L318 67Q298 51 274 34T226 5T178 -7ZM206 41Q226 41
247 51T291 77Q308 91 308 116V208Q308 211 306 213T300 213L143 154Q137 152 135 145T132 121Q132 102 144 84T173 53T206 41ZM547 543L400 663Q395 668 389 674T382 694Q382 708 392 718T416 728Q432 728 442 715L565 559L547 543Z" />
<glyph unicode="&#xe1;" horiz-adv-x="466" d="M178 -7Q148 -7 121 12T77 61T60 124Q60 141 63 148T74 158L265 227Q289 236 298 247T307 279V297Q307 343 285 377T217 411Q187 411 168 397T148 359Q148 353 151 348T158 337Q164 329 168 320T172 301Q172 282
159 271T125 259Q103 259 91 272T78 311Q78 345 100 373T159 417T233 434Q281 434 312 415T359 365T375 297V87Q375 66 379 52T404 37Q426 37 451 47V32Q432 20 404 7T357 -7Q335 -7 325 4T311 33T308 69V81L318 67Q298 51 274 34T226 5T178 -7ZM206 41Q226 41
247 51T291 77Q308 91 308 116V208Q308 211 306 213T300 213L143 154Q137 152 135 145T132 121Q132 102 144 84T173 53T206 41ZM429 543L411 559L534 715Q544 728 560 728Q574 728 584 718T594 694Q594 681 588 675T576 663L429 543Z" />
<glyph unicode="&#xe2;" horiz-adv-x="466" d="M178 -7Q148 -7 121 12T77 61T60 124Q60 141 63 148T74 158L265 227Q289 236 298 247T307 279V297Q307 343 285 377T217 411Q187 411 168 397T148 359Q148 353 151 348T158 337Q164 329 168 320T172 301Q172 282
159 271T125 259Q103 259 91 272T78 311Q78 345 100 373T159 417T233 434Q281 434 312 415T359 365T375 297V87Q375 66 379 52T404 37Q426 37 451 47V32Q432 20 404 7T357 -7Q335 -7 325 4T311 33T308 69V81L318 67Q298 51 274 34T226 5T178 -7ZM206 41Q226 41
247 51T291 77Q308 91 308 116V208Q308 211 306 213T300 213L143 154Q137 152 135 145T132 121Q132 102 144 84T173 53T206 41ZM495 707L627 567L614 554L491 631L366 555L353 568L485 707H495Z" />
<glyph unicode="&#xe3;" horiz-adv-x="466" d="M178 -7Q148 -7 121 12T77 61T60 124Q60 141 63 148T74 158L265 227Q289 236 298 247T307 279V297Q307 343 285 377T217 411Q187 411 168 397T148 359Q148 353 151 348T158 337Q164 329 168 320T172 301Q172 282
159 271T125 259Q103 259 91 272T78 311Q78 345 100 373T159 417T233 434Q281 434 312 415T359 365T375 297V87Q375 66 379 52T404 37Q426 37 451 47V32Q432 20 404 7T357 -7Q335 -7 325 4T311 33T308 69V81L318 67Q298 51 274 34T226 5T178 -7ZM206 41Q226 41
247 51T291 77Q308 91 308 116V208Q308 211 306 213T300 213L143 154Q137 152 135 145T132 121Q132 102 144 84T173 53T206 41ZM357 517L346 526L410 621L588 634Q596 635 600 637T610 643L647 677L659 669L598 576L422 562Q413 561 408 560T395 551L357 517Z"
/>
<glyph unicode="&#xe4;" horiz-adv-x="466" d="M178 -7Q148 -7 121 12T77 61T60 124Q60 141 63 148T74 158L265 227Q289 236 298 247T307 279V297Q307 343 285 377T217 411Q187 411 168 397T148 359Q148 353 151 348T158 337Q164 329 168 320T172 301Q172 282
159 271T125 259Q103 259 91 272T78 311Q78 345 100 373T159 417T233 434Q281 434 312 415T359 365T375 297V87Q375 66 379 52T404 37Q426 37 451 47V32Q432 20 404 7T357 -7Q335 -7 325 4T311 33T308 69V81L318 67Q298 51 274 34T226 5T178 -7ZM206 41Q226 41
247 51T291 77Q308 91 308 116V208Q308 211 306 213T300 213L143 154Q137 152 135 145T132 121Q132 102 144 84T173 53T206 41ZM390 571Q370 571 355 586T339 622Q339 644 354 659T390 675Q412 675 427 660T443 622Q443 602 428 587T390 571ZM589 571Q569 571 554
586T538 622Q538 644 553 659T589 675Q611 675 626 660T642 622Q642 602 627 587T589 571Z" />
<glyph unicode="&#xe5;" horiz-adv-x="466" d="M178 -7Q148 -7 121 12T77 61T60 124Q60 141 63 148T74 158L265 227Q289 236 298 247T307 279V297Q307 343 285 377T217 411Q187 411 168 397T148 359Q148 353 151 348T158 337Q164 329 168 320T172 301Q172 282
159 271T125 259Q103 259 91 272T78 311Q78 345 100 373T159 417T233 434Q281 434 312 415T359 365T375 297V87Q375 66 379 52T404 37Q426 37 451 47V32Q432 20 404 7T357 -7Q335 -7 325 4T311 33T308 69V81L318 67Q298 51 274 34T226 5T178 -7ZM206 41Q226 41
247 51T291 77Q308 91 308 116V208Q308 211 306 213T300 213L143 154Q137 152 135 145T132 121Q132 102 144 84T173 53T206 41ZM490 505Q460 505 435 520T394 560T379 616Q379 647 394 672T434 712T490 727Q521 727 546 712T586 672T601 616Q601 586 586 561T546
520T490 505ZM491 545Q520 545 540 566T561 616Q561 645 541 666T491 687Q462 687 441 666T419 616Q419 587 440 566T491 545Z" />
<glyph unicode="&#xe6;" horiz-adv-x="712" d="M178 -7Q148 -7 121 12T77 61T60 124Q60 141 63 148T74 158L265 227Q289 236 298 247T307 279V297Q307 343 285 377T217 411Q187 411 168 397T148 359Q148 353 151 348T158 337Q164 329 168 320T172 301Q172 282
159 271T125 259Q103 259 91 272T78 311Q78 345 100 373T159 417T233 434Q281 434 312 415T359 365T375 297V105L350 82Q319 61 288 41T229 7T178 -7ZM206 41Q226 41 247 51T291 77Q308 91 308 116V208Q308 211 306 213T300 213L143 154Q137 152 135 145T132 121Q132
102 144 84T173 53T206 41ZM507 -8Q449 -8 404 21T334 98T308 207Q308 274 335 325T408 405T513 434Q560 434 594 412T648 351T668 264Q668 258 665 253T652 248H363V271L568 277Q587 277 587 295Q587 342 567 375T502 408Q447 408 413 359T379 229Q379 171 400
131T456 71T533 50Q596 50 660 103L672 93Q635 40 591 16T507 -8Z" />
<glyph unicode="&#xe7;" horiz-adv-x="446" d="M242 -8Q184 -8 140 20T70 95T45 203Q45 273 76 324T155 405T254 434Q330 434 369 401T409 322Q409 294 394 281T360 267Q341 267 326 279T310 312Q310 326 317 340Q319 345 321 350T324 361Q324 383 302 395T247
408Q216 408 186 391T136 335T116 229Q116 141 160 96T268 50Q335 50 399 103L411 93Q374 40 328 16T242 -8ZM391 -244V-218Q425 -216 455 -210T503 -189T522 -152Q522 -124 498 -108T420 -91L447 3H479L468 -39Q519 -45 553 -63T588 -119Q588 -152 572 -175T528
-212T465 -234T391 -244Z" />
<glyph unicode="&#xe8;" horiz-adv-x="449" d="M244 -8Q186 -8 141 21T71 98T45 207Q45 274 72 325T145 405T250 434Q297 434 331 412T385 351T405 264Q405 258 402 253T389 248H100V271L305 277Q324 277 324 295Q324 342 304 375T239 408Q184 408 150 359T116
229Q116 171 137 131T193 71T270 50Q333 50 397 103L409 93Q372 40 328 16T244 -8ZM564 543L417 663Q412 668 406 674T399 694Q399 708 409 718T433 728Q449 728 459 715L582 559L564 543Z" />
<glyph unicode="&#xe9;" horiz-adv-x="449" d="M244 -8Q186 -8 141 21T71 98T45 207Q45 274 72 325T145 405T250 434Q297 434 331 412T385 351T405 264Q405 258 402 253T389 248H100V271L305 277Q324 277 324 295Q324 342 304 375T239 408Q184 408 150 359T116
229Q116 171 137 131T193 71T270 50Q333 50 397 103L409 93Q372 40 328 16T244 -8ZM446 543L428 559L551 715Q561 728 577 728Q591 728 601 718T611 694Q611 681 605 675T593 663L446 543Z" />
<glyph unicode="&#xea;" horiz-adv-x="449" d="M244 -8Q186 -8 141 21T71 98T45 207Q45 274 72 325T145 405T250 434Q297 434 331 412T385 351T405 264Q405 258 402 253T389 248H100V271L305 277Q324 277 324 295Q324 342 304 375T239 408Q184 408 150 359T116
229Q116 171 137 131T193 71T270 50Q333 50 397 103L409 93Q372 40 328 16T244 -8ZM512 707L644 567L631 554L508 631L383 555L370 568L502 707H512Z" />
<glyph unicode="&#xeb;" horiz-adv-x="449" d="M244 -8Q186 -8 141 21T71 98T45 207Q45 274 72 325T145 405T250 434Q297 434 331 412T385 351T405 264Q405 258 402 253T389 248H100V271L305 277Q324 277 324 295Q324 342 304 375T239 408Q184 408 150 359T116
229Q116 171 137 131T193 71T270 50Q333 50 397 103L409 93Q372 40 328 16T244 -8ZM407 571Q387 571 372 586T356 622Q356 644 371 659T407 675Q429 675 444 660T460 622Q460 602 445 587T407 571ZM606 571Q586 571 571 586T555 622Q555 644 570 659T606 675Q628
675 643 660T659 622Q659 602 644 587T606 571Z" />
<glyph unicode="&#xec;" horiz-adv-x="261" d="M35 0V15L77 26Q103 33 103 58V332Q103 352 98 360T79 372L36 384V394Q72 402 106 411T173 438L182 432Q174 410 172 387T170 328V58Q170 45 176 37T194 26L236 15V0H35ZM192 543L45 663Q40 668 34 674T27 694Q27
708 37 718T61 728Q77 728 87 715L210 559L192 543Z" />
<glyph unicode="&#xed;" horiz-adv-x="261" d="M35 0V15L77 26Q103 33 103 58V332Q103 352 98 360T79 372L36 384V394Q72 402 106 411T173 438L182 432Q174 410 172 387T170 328V58Q170 45 176 37T194 26L236 15V0H35ZM330 543L312 559L435 715Q445 728 461 728Q475
728 485 718T495 694Q495 681 489 675T477 663L330 543Z" />
<glyph unicode="&#xee;" horiz-adv-x="261" d="M35 0V15L77 26Q103 33 103 58V332Q103 352 98 360T79 372L36 384V394Q72 402 106 411T173 438L182 432Q174 410 172 387T170 328V58Q170 45 176 37T194 26L236 15V0H35ZM140 707L272 567L259 554L136 631L11 555L-2
568L130 707H140Z" />
<glyph unicode="&#xef;" horiz-adv-x="261" d="M35 0V15L77 26Q103 33 103 58V332Q103 352 98 360T79 372L36 384V394Q72 402 106 411T173 438L182 432Q174 410 172 387T170 328V58Q170 45 176 37T194 26L236 15V0H35ZM35 571Q15 571 0 586T-16 622Q-16 644 -1
659T35 675Q57 675 72 660T88 622Q88 602 73 587T35 571ZM234 571Q214 571 199 586T183 622Q183 644 198 659T234 675Q256 675 271 660T287 622Q287 602 272 587T234 571Z" />
<glyph unicode="&#xf0;" horiz-adv-x="518" d="M243 472L231 499L501 618L513 592L243 472ZM194 -11Q152 -11 116 7T57 64T35 159Q35 247 63 301T135 381T225 406Q291 406 329 368T367 270H369Q374 299 377 336T380 404Q380 523 358 588T286 654Q271 654 262 640T245
609Q239 593 230 580T204 566Q186 566 174 575T162 604Q162 636 194 659T278 682Q369 682 409 610T449 411Q449 288 420 193T334 44T194 -11ZM213 11Q249 11 274 34T316 92T339 165T347 233Q347 266 338 299T305 356T242 379Q184 379 152 329T119 162Q119 82 145
47T213 11Z" />
<glyph unicode="&#xf1;" horiz-adv-x="533" d="M315 0V15L357 26Q372 30 377 37T383 58V282Q383 330 357 355T280 381Q231 381 201 349T170 272L143 371H168Q192 381 226 398T285 429Q295 434 301 434Q372 434 411 399T450 295V58Q450 44 455 37T476 26L518 15V0H315ZM35
0V15L77 26Q92 30 97 37T103 58V331Q103 351 98 359T79 371L36 383V393Q59 398 81 404T125 418T167 437L176 431Q171 418 168 403T164 373V363L170 348V58Q170 44 175 37T196 26L238 15V0H35ZM136 517L125 526L189 621L367 634Q375 635 379 637T389 643L426 677L438
669L377 576L201 562Q192 561 187 560T174 551L136 517Z" />
<glyph unicode="&#xf2;" horiz-adv-x="508" d="M254 -8Q192 -8 145 20T71 98T45 209Q45 275 71 326T144 405T254 434Q317 434 364 406T437 328T463 217Q463 151 437 101T364 21T254 -8ZM255 16Q317 16 352 65T387 206Q387 300 352 355T253 410Q191 410 156 361T121
220Q121 126 156 71T255 16ZM567 543L420 663Q415 668 409 674T402 694Q402 708 412 718T436 728Q452 728 462 715L585 559L567 543Z" />
<glyph unicode="&#xf3;" horiz-adv-x="508" d="M254 -8Q192 -8 145 20T71 98T45 209Q45 275 71 326T144 405T254 434Q317 434 364 406T437 328T463 217Q463 151 437 101T364 21T254 -8ZM255 16Q317 16 352 65T387 206Q387 300 352 355T253 410Q191 410 156 361T121
220Q121 126 156 71T255 16ZM193 543L175 559L298 715Q308 728 324 728Q338 728 348 718T358 694Q358 681 352 675T340 663L193 543Z" />
<glyph unicode="&#xf4;" horiz-adv-x="508" d="M254 -8Q192 -8 145 20T71 98T45 209Q45 275 71 326T144 405T254 434Q317 434 364 406T437 328T463 217Q463 151 437 101T364 21T254 -8ZM255 16Q317 16 352 65T387 206Q387 300 352 355T253 410Q191 410 156 361T121
220Q121 126 156 71T255 16ZM515 707L647 567L634 554L511 631L386 555L373 568L505 707H515Z" />
<glyph unicode="&#xf5;" horiz-adv-x="508" d="M254 -8Q192 -8 145 20T71 98T45 209Q45 275 71 326T144 405T254 434Q317 434 364 406T437 328T463 217Q463 151 437 101T364 21T254 -8ZM255 16Q317 16 352 65T387 206Q387 300 352 355T253 410Q191 410 156 361T121
220Q121 126 156 71T255 16ZM121 517L110 526L174 621L352 634Q360 635 364 637T374 643L411 677L423 669L362 576L186 562Q177 561 172 560T159 551L121 517Z" />
<glyph unicode="&#xf6;" horiz-adv-x="508" d="M254 -8Q192 -8 145 20T71 98T45 209Q45 275 71 326T144 405T254 434Q317 434 364 406T437 328T463 217Q463 151 437 101T364 21T254 -8ZM255 16Q317 16 352 65T387 206Q387 300 352 355T253 410Q191 410 156 361T121
220Q121 126 156 71T255 16ZM410 571Q390 571 375 586T359 622Q359 644 374 659T410 675Q432 675 447 660T463 622Q463 602 448 587T410 571ZM609 571Q589 571 574 586T558 622Q558 644 573 659T609 675Q631 675 646 660T662 622Q662 602 647 587T609 571Z" />
<glyph unicode="&#xf7;" horiz-adv-x="530" d="M255 133Q235 133 221 147T206 182Q206 202 220 216T255 231Q275 231 289 217T304 182Q304 162 290 148T255 133ZM255 439Q235 439 221 453T206 488Q206 508 220 522T255 537Q275 537 289 523T304 488Q304 468 290
454T255 439ZM73 316V354H457V316H73Z" />
<glyph unicode="&#xf8;" horiz-adv-x="512" d="M66 -5L45 15L439 438L462 418L66 -5ZM258 -8Q196 -8 149 20T75 98T49 209Q49 275 75 326T148 405T258 434Q321 434 368 406T441 328T467 217Q467 151 441 101T368 21T258 -8ZM259 16Q321 16 356 65T391 206Q391
300 356 355T257 410Q195 410 160 361T125 220Q125 126 160 71T259 16Z" />
<glyph unicode="&#xf9;" horiz-adv-x="526" d="M224 -7Q160 -7 121 24T82 132V355Q82 375 77 382T58 395L15 412V422Q40 422 63 423T108 428T152 434L161 428Q156 415 153 400T149 370V145Q149 97 175 72T249 46Q293 46 321 78T350 154L377 55H352Q329 45 296
29T240 -2Q230 -7 224 -7ZM373 -8L365 -4L358 56L350 79V355Q350 375 345 382T326 395L283 412V422Q308 422 331 423T376 428T420 434L429 428Q424 415 421 400T417 370V73Q417 44 438 33T501 24V5Q469 4 437 0T373 -8ZM555 543L408 663Q403 668 397 674T390 694Q390
708 400 718T424 728Q440 728 450 715L573 559L555 543Z" />
<glyph unicode="&#xfa;" horiz-adv-x="526" d="M224 -7Q160 -7 121 24T82 132V355Q82 375 77 382T58 395L15 412V422Q40 422 63 423T108 428T152 434L161 428Q156 415 153 400T149 370V145Q149 97 175 72T249 46Q293 46 321 78T350 154L377 55H352Q329 45 296
29T240 -2Q230 -7 224 -7ZM373 -8L365 -4L358 56L350 79V355Q350 375 345 382T326 395L283 412V422Q308 422 331 423T376 428T420 434L429 428Q424 415 421 400T417 370V73Q417 44 438 33T501 24V5Q469 4 437 0T373 -8ZM437 543L419 559L542 715Q552 728 568 728Q582
728 592 718T602 694Q602 681 596 675T584 663L437 543Z" />
<glyph unicode="&#xfb;" horiz-adv-x="526" d="M224 -7Q160 -7 121 24T82 132V355Q82 375 77 382T58 395L15 412V422Q40 422 63 423T108 428T152 434L161 428Q156 415 153 400T149 370V145Q149 97 175 72T249 46Q293 46 321 78T350 154L377 55H352Q329 45 296
29T240 -2Q230 -7 224 -7ZM373 -8L365 -4L358 56L350 79V355Q350 375 345 382T326 395L283 412V422Q308 422 331 423T376 428T420 434L429 428Q424 415 421 400T417 370V73Q417 44 438 33T501 24V5Q469 4 437 0T373 -8ZM503 707L635 567L622 554L499 631L374 555L361
568L493 707H503Z" />
<glyph unicode="&#xfc;" horiz-adv-x="526" d="M224 -7Q160 -7 121 24T82 132V355Q82 375 77 382T58 395L15 412V422Q40 422 63 423T108 428T152 434L161 428Q156 415 153 400T149 370V145Q149 97 175 72T249 46Q293 46 321 78T350 154L377 55H352Q329 45 296
29T240 -2Q230 -7 224 -7ZM373 -8L365 -4L358 56L350 79V355Q350 375 345 382T326 395L283 412V422Q308 422 331 423T376 428T420 434L429 428Q424 415 421 400T417 370V73Q417 44 438 33T501 24V5Q469 4 437 0T373 -8ZM398 571Q378 571 363 586T347 622Q347 644
362 659T398 675Q420 675 435 660T451 622Q451 602 436 587T398 571ZM597 571Q577 571 562 586T546 622Q546 644 561 659T597 675Q619 675 634 660T650 622Q650 602 635 587T597 571Z" />
<glyph unicode="&#xfd;" horiz-adv-x="462" d="M78 -259Q57 -259 41 -247T25 -212Q25 -188 39 -174T76 -159Q87 -159 94 -163T108 -172Q113 -175 118 -177T128 -180Q145 -180 153 -158L226 27L69 379Q64 391 58 396T38 404L7 411V426H219V411L163 398Q150 395
146 390T144 376L272 86H249L366 382Q368 387 366 391T348 399L301 411V426H457V411L425 403Q412 400 406 395T394 378L186 -159Q177 -182 164 -205T131 -243T78 -259ZM200 543L182 559L305 715Q315 728 331 728Q345 728 355 718T365 694Q365 681 359 675T347 663L200
543Z" />
<glyph unicode="&#xfe;" horiz-adv-x="553" d="M37 -250V-235L79 -224Q94 -220 99 -213T105 -192V606Q105 626 100 634T81 646L35 658V668Q71 676 106 685T176 712L185 706Q177 684 175 661T173 602L171 378H173L262 423Q269 427 279 430T299 434Q371 434 417
404T485 326T508 222Q508 180 495 139T456 65T390 12T295 -8Q257 -8 224 2T172 25V-192Q172 -206 177 -213T198 -224L246 -235V-250H37ZM297 18Q346 18 377 42T423 106T438 190Q438 240 422 284T370 355T280 383Q228 383 199 357T170 294V153Q170 116 188 85T235
36T297 18Z" />
<glyph unicode="&#xff;" horiz-adv-x="462" d="M78 -259Q57 -259 41 -247T25 -212Q25 -188 39 -174T76 -159Q87 -159 94 -163T108 -172Q113 -175 118 -177T128 -180Q145 -180 153 -158L226 27L69 379Q64 391 58 396T38 404L7 411V426H219V411L163 398Q150 395
146 390T144 376L272 86H249L366 382Q368 387 366 391T348 399L301 411V426H457V411L425 403Q412 400 406 395T394 378L186 -159Q177 -182 164 -205T131 -243T78 -259ZM417 571Q397 571 382 586T366 622Q366 644 381 659T417 675Q439 675 454 660T470 622Q470 602
455 587T417 571ZM616 571Q596 571 581 586T565 622Q565 644 580 659T616 675Q638 675 653 660T669 622Q669 602 654 587T616 571Z" />
<glyph unicode="&#x2013;" horiz-adv-x="530" d="M0 230V265H530V230H0Z" />
<glyph unicode="&#x2014;" horiz-adv-x="1060" d="M1060 230H0V265H1060V230Z" />
<glyph unicode="&#x2018;" horiz-adv-x="265" d="M212 680V663Q167 656 140 626T112 552Q112 521 137 499T204 471V448Q185 435 172 421T148 381Q104 397 78 427T52 506Q52 550 72 588T128 651T212 680Z" />
<glyph unicode="&#x2019;" horiz-adv-x="265" d="M53 381V398Q98 405 125 435T153 509Q153 540 128 562T61 590V613Q81 626 93 640T117 680Q161 664 187 634T213 555Q213 512 193 474T138 410T53 381Z" />
<glyph unicode="&#x201a;" horiz-adv-x="265" d="M53 -150V-133Q98 -126 125 -96T153 -22Q153 9 128 31T61 59V82Q81 95 93 109T117 149Q161 133 187 103T213 24Q213 -19 193 -57T138 -121T53 -150Z" />
<glyph unicode="&#x201c;" horiz-adv-x="453" d="M212 680V663Q167 656 140 626T112 552Q112 521 137 499T204 471V448Q185 435 172 421T148 381Q104 397 78 427T52 506Q52 550 72 588T128 651T212 680ZM400 680V663Q355 656 328 626T300 552Q300 521 325 499T392
471V448Q373 435 360 421T336 381Q292 397 266 427T240 506Q240 550 260 588T316 651T400 680Z" />
<glyph unicode="&#x201d;" horiz-adv-x="453" d="M241 381V398Q286 405 313 435T341 509Q341 540 316 562T249 590V613Q269 626 281 640T305 680Q349 664 375 634T401 555Q401 512 381 474T326 410T241 381ZM53 381V398Q98 405 125 435T153 509Q153 540 128 562T61
590V613Q81 626 93 640T117 680Q161 664 187 634T213 555Q213 512 193 474T138 410T53 381Z" />
<glyph unicode="&#x201e;" horiz-adv-x="453" d="M241 -150V-133Q286 -126 313 -96T341 -22Q341 9 316 31T249 59V82Q269 95 281 109T305 149Q349 133 375 103T401 24Q401 -19 381 -57T326 -121T241 -150ZM53 -150V-133Q98 -126 125 -96T153 -22Q153 9 128 31T61
59V82Q81 95 93 109T117 149Q161 133 187 103T213 24Q213 -19 193 -57T138 -121T53 -150Z" />
<glyph unicode="&#x2022;" horiz-adv-x="361" d="M180 241Q131 241 97 275T62 359Q62 392 78 419T120 462T180 478Q213 478 240 462T283 419T299 359Q299 326 283 300T240 257T180 241Z" />
<glyph unicode="&#x2039;" horiz-adv-x="212" d="M163 66L25 200V206L164 340L177 331L101 204L176 75L163 66Z" />
<glyph unicode="&#x203a;" horiz-adv-x="212" d="M49 66L36 75L111 204L35 331L48 340L187 206V200L49 66Z" />
</font>
</defs>
</svg>
