<?xml version="1.0" standalone="no"?>
<!DOCTYPE svg PUBLIC "-//W3C//DTD SVG 1.1//EN" "http://www.w3.org/Graphics/SVG/1.1/DTD/svg11.dtd">
<svg xmlns="http://www.w3.org/2000/svg">
<defs >
<font id="BrunoAce" horiz-adv-x="713" ><font-face
    font-family="Bruno Ace"
    units-per-em="1000"
    panose-1="0 0 0 0 0 0 0 0 0 0"
    ascent="953"
    descent="-253"
    alphabetic="0" />
<glyph unicode=" " glyph-name="space" horiz-adv-x="375" />
<glyph unicode="!" glyph-name="exclam" horiz-adv-x="262" d="M188 700L167 188H95L74 700H188ZM206 75Q206 44 184 22T131 0Q100 0 78 22T56 75Q56 106 78 128T131 150Q162 150 184 128T206 75Z" />
<glyph unicode="&quot;" glyph-name="quotedbl" horiz-adv-x="357" d="M139 455H78L59 701H159L139 455ZM279 455H218L199 701H299L279 455Z" />
<glyph unicode="#" glyph-name="numbersign" horiz-adv-x="720" d="M107 490H233L273 671H372L332 490H454L494 671H593L553 490H684L664 396H532L506 277H634L614 183H485L445 0H346L386 183H264L224 0H125L165 183H35L57 277H186L212 396H85L107 490ZM285 277H407L433
396H311L285 277Z" />
<glyph unicode="$" glyph-name="dollar" horiz-adv-x="535" d="M498 287Q498 250 480 219T430 170T361 151H320V0H227V151H50V249H361Q378 249 389 260T400 287Q400 304 389 315T361 326H169Q136 326 109 342T66 385T50 445Q50 478 66 505T109 548T169 564H227V700H320V564H463V466H169Q159
466 154 460T148 445Q148 436 154 430T169 424H361Q399 424 430 406T479 356T498 287Z" />
<glyph unicode="%" glyph-name="percent" horiz-adv-x="823" d="M368 500Q368 454 346 416T286 356T202 333Q156 333 118 355T58 416T35 500Q35 546 57 584T118 644T202 667Q248 667 285 645T345 584T368 500ZM652 658L269 30H173L556 658H652ZM285 500Q285 535
261 559T202 583Q168 583 143 559T118 500Q118 466 143 442T202 417Q237 417 261 441T285 500ZM788 188Q788 142 766 104T706 44T622 21Q576 21 538 43T478 104T455 188Q455 234 477 271T538 331T622 354Q668 354 705 332T765 272T788 188ZM705 188Q705 222 681
246T622 271Q588 271 563 247T538 188Q538 154 563 129T622 104Q657 104 681 129T705 188Z" />
<glyph unicode="&amp;" glyph-name="ampersand" horiz-adv-x="838" d="M707 0H257Q202 0 157 27T84 99T57 200Q57 244 75 283T125 350Q94 377 76 416T57 500Q57 555 84 600T156 673T257 700H707V600H257Q216 600 187 571T157 500Q157 460 185 431T253 400H407V300H257Q216
300 187 271T157 200Q157 159 186 130T257 100H607V300H507V400H807V300H707V0Z" />
<glyph unicode="&apos;" glyph-name="quotesingle" horiz-adv-x="217" d="M139 455H78L59 701H159L139 455Z" />
<glyph unicode="(" glyph-name="parenleft" horiz-adv-x="326" d="M326 -125H194Q173 -96 146 -50T95 58T54 196T38 363Q38 448 54 523T96 661T149 772T197 850H323L307 830Q306 829 289 806T246 741T197 641T155 513T138 363Q138 277 154 205T196 75T245 -21T287
-81T305 -103L326 -125Z" />
<glyph unicode=")" glyph-name="parenright" horiz-adv-x="326" d="M21 -103Q22 -102 39 -82T80 -22T130 75T171 204T188 363Q188 442 171 512T130 640T80 740T38 806T19 830L3 850H129Q150 820 177 772T229 661T271 523T288 363Q288 273 272 197T232 58T180 -50T132
-125H0L21 -103Z" />
<glyph unicode="*" glyph-name="asterisk" horiz-adv-x="546" d="M491 594L341 499L491 404L433 323L313 420L323 259H223L232 420L113 323L55 404L204 499L55 594L113 675L232 577L223 739H323L313 577L433 675L491 594Z" />
<glyph unicode="+" glyph-name="plus" horiz-adv-x="624" d="M587 300H362V100H262V300H37V400H262V600H362V400H587V300Z" />
<glyph unicode="," glyph-name="comma" horiz-adv-x="263" d="M206 72Q205 40 195 11T174 -35T164 -53L100 -52Q100 -52 107 -38T120 0Q93 4 75 25T56 75Q56 106 78 128T131 150Q162 150 184 128T206 72Z" />
<glyph unicode="-" glyph-name="hyphen" horiz-adv-x="678" d="M614 300H64V400H614V300Z" />
<glyph unicode="." glyph-name="period" horiz-adv-x="260" d="M205 75Q205 44 183 22T130 0Q99 0 77 22T55 75Q55 106 77 128T130 150Q161 150 183 128T205 75Z" />
<glyph unicode="/" glyph-name="slash" horiz-adv-x="536" d="M510 700L142 0H28L396 700H510Z" />
<glyph unicode="0" glyph-name="zero" horiz-adv-x="901" d="M854 350Q854 277 831 214T766 102T664 27T532 0H369Q296 0 237 27T136 102T70 213T47 350Q47 422 70 485T135 597T237 673T369 700H532Q604 700 663 673T765 598T831 486T854 350ZM754 350Q754 419
728 476T651 566T532 600H369Q300 600 251 567T174 476T147 350Q147 281 174 225T250 134T369 100H532Q601 100 651 134T727 224T754 350Z" />
<glyph unicode="1" glyph-name="one" horiz-adv-x="313" d="M229 0H129V600H29V700H229V0Z" />
<glyph unicode="2" glyph-name="two" horiz-adv-x="747" d="M695 0H45V200Q45 255 72 300T144 373T245 400H495Q536 400 565 429T595 500Q595 541 566 570T495 600H95V700H495Q550 700 595 673T668 601T695 500Q695 445 668 400T596 327T495 300H245Q204 300 174
271T144 200V100H695V0Z" />
<glyph unicode="3" glyph-name="three" horiz-adv-x="756" d="M699 500Q699 455 681 416T630 350Q662 322 680 283T699 200Q699 145 672 100T600 27T499 0H49V100H499Q540 100 569 129T599 200Q599 241 570 270T499 300H175V400H499Q540 400 569 429T599 500Q599
541 570 570T499 600H49V700H499Q554 700 599 673T672 601T699 500Z" />
<glyph unicode="4" glyph-name="four" horiz-adv-x="824" d="M40 700H140V450Q140 409 169 380T240 350H640V700H740V0H640V250H240Q185 250 140 277T67 349T40 450V700Z" />
<glyph unicode="5" glyph-name="five" horiz-adv-x="753" d="M716 225Q716 163 686 112T605 31T491 0H64V100H491Q526 100 554 117T599 162T616 225Q616 260 599 288T554 333T491 350H65V700H666V600H165V450H491Q554 450 605 420T686 338T716 225Z" />
<glyph unicode="6" glyph-name="six" horiz-adv-x="801" d="M764 225Q764 163 734 112T652 31T539 0H289Q227 0 176 30T95 112T64 225V475Q64 537 94 588T176 669T289 700H714V600H289Q255 600 227 583T181 538T164 475V225Q164 191 181 163T226 117T289 100H539Q574
100 602 117T647 162T664 225Q664 260 647 288T602 333T539 350H214V450H539Q601 450 652 420T733 338T764 225Z" />
<glyph unicode="7" glyph-name="seven" horiz-adv-x="741" d="M728 600L209 0H72L591 600H28V700H728V600Z" />
<glyph unicode="8" glyph-name="eight" horiz-adv-x="838" d="M744 500Q744 463 732 430T696 371Q740 345 767 300T794 200Q794 145 767 100T695 27T594 0H244Q189 0 144 27T71 99T44 200Q44 254 71 299T141 371Q94 426 94 500Q94 555 121 600T193 673T294 700H544Q599
700 644 673T717 601T744 500ZM544 400Q585 400 614 429T644 500Q644 541 615 570T544 600H294Q252 600 223 571T194 500Q194 459 223 430T294 400H544ZM244 300Q202 300 173 271T144 200Q144 159 173 130T244 100H594Q635 100 664 129T694 200Q694 241 665 270T594
300H244Z" />
<glyph unicode="9" glyph-name="nine" horiz-adv-x="801" d="M737 225Q737 163 707 112T625 31T512 0H87V100H512Q547 100 575 117T620 162T637 225V475Q637 510 620 538T575 583T512 600H262Q228 600 200 583T154 538T137 475Q137 441 154 413T199 367T262 350H587V250H262Q200
250 149 280T67 362T37 475Q37 537 67 588T148 669T262 700H512Q574 700 625 670T706 588T737 475V225Z" />
<glyph unicode=":" glyph-name="colon" horiz-adv-x="278" d="M214 476Q214 445 192 423T139 401Q108 401 86 423T64 476Q64 507 86 529T139 551Q170 551 192 529T214 476ZM214 75Q214 44 192 22T139 0Q108 0 86 22T64 75Q64 106 86 128T139 150Q170 150 192 128T214 75Z" />
<glyph unicode=";" glyph-name="semicolon" horiz-adv-x="279" d="M214 476Q214 445 192 423T139 401Q108 401 86 423T64 476Q64 507 86 529T139 551Q170 551 192 529T214 476ZM214 72Q213 40 203 11T182 -35T172 -53L108 -52Q108 -52 115 -38T128 0Q101 4 83
25T64 75Q64 106 86 128T139 150Q170 150 192 128T214 72Z" />
<glyph unicode="&lt;" glyph-name="less" horiz-adv-x="513" d="M460 620L142 336L459 58H328L53 298Q36 312 36 335Q36 358 53 373L330 620H460Z" />
<glyph unicode="=" glyph-name="equal" horiz-adv-x="682" d="M616 450H66V550H616V450ZM616 150H66V250H616V150Z" />
<glyph unicode="&gt;" glyph-name="greater" horiz-adv-x="513" d="M183 620L460 373Q477 358 477 335Q477 312 460 298L185 58H54L371 336L53 620H183Z" />
<glyph unicode="?" glyph-name="question" horiz-adv-x="798" d="M759 475Q759 413 729 362T647 281T534 250H409Q399 250 392 243T384 225V188H284V225Q284 260 301 288T346 333T409 350H534Q569 350 597 367T642 412T659 475Q659 510 642 538T597 583T534 600H34V700H534Q596
700 647 670T728 588T759 475ZM409 75Q409 44 387 22T334 0Q303 0 281 22T259 75Q259 106 281 128T334 150Q365 150 387 128T409 75Z" />
<glyph unicode="@" glyph-name="at" horiz-adv-x="697" d="M416 206H295Q291 206 283 204T274 185Q274 181 276 173T295 164H441V310Q441 314 439 322T420 331H246V414H420Q441 414 465 404T506 371T524 310V164H545Q550 164 558 166T566 185V372Q566 410 549
428T512 451T482 456H233Q195 456 177 439T154 402T149 372V122Q149 84 166 67T203 44T233 39H295V-44H233Q208 -44 179 -35T125 -7T83 44T66 122V372Q66 397 75 426T103 480T155 522T233 539H483Q508 539 537 530T591 502T633 450T649 372V185Q649 164 639 140T607
98T545 81H295Q274 81 250 91T208 124T191 185Q191 206 201 230T234 272T295 289H416V206Z" />
<glyph unicode="A" glyph-name="A" horiz-adv-x="964" d="M880 0H780V200H221V300H780V600H421Q353 600 296 567T206 476T172 350V0H72V350Q72 422 99 485T174 597T285 673T421 700H880V0Z" />
<glyph unicode="B" glyph-name="B" horiz-adv-x="941" d="M908 200Q908 145 881 100T809 27T708 0H234V100H708Q749 100 778 129T808 200Q808 241 779 270T708 300H234V400H608Q649 400 678 429T708 500Q708 541 679 570T608 600H184V0H84V700H608Q663 700 708
673T781 601T808 500Q808 469 799 441T774 388Q833 368 870 317T908 200Z" />
<glyph unicode="C" glyph-name="C" horiz-adv-x="854" d="M817 0H366Q293 0 234 27T133 102T67 213T44 350Q44 422 67 485T132 597T234 673T366 700H817V600H366Q297 600 248 567T171 476T144 350Q144 281 171 225T247 134T366 100H817V0Z" />
<glyph unicode="D" glyph-name="D" horiz-adv-x="953" d="M909 350Q909 277 886 214T821 102T719 27T587 0H234V100H587Q656 100 706 134T782 224T809 350Q809 419 783 476T706 566T587 600H184V0H84V700H587Q659 700 718 673T820 598T886 486T909 350Z" />
<glyph unicode="E" glyph-name="E" horiz-adv-x="848" d="M808 0H84V700H808V600H184V100H808V0ZM723 300H234V400H723V300Z" />
<glyph unicode="F" glyph-name="F" horiz-adv-x="826" d="M809 600H184V0H84V700H809V600ZM723 300H234V400H723V300Z" />
<glyph unicode="G" glyph-name="G" horiz-adv-x="882" d="M817 0H366Q293 0 234 27T133 102T67 213T44 350Q44 422 67 485T132 597T234 673T366 700H817V600H366Q297 600 248 567T171 476T144 350Q144 281 171 225T247 134T366 100H717V300H293V400H817V0Z" />
<glyph unicode="H" glyph-name="H" horiz-adv-x="907" d="M823 0H723V300H234V400H723V700H823V0ZM184 0H84V700H184V0Z" />
<glyph unicode="I" glyph-name="I" horiz-adv-x="268" d="M184 0H84V700H184V0Z" />
<glyph unicode="J" glyph-name="J" horiz-adv-x="874" d="M802 350Q802 277 775 214T700 102T589 27T452 0H37V100H452Q521 100 578 134T668 224T702 350V600H37V700H802V350Z" />
<glyph unicode="K" glyph-name="K" horiz-adv-x="893" d="M898 0H763L406 360L184 200V0H84V700H184V310L733 700H879L482 415L898 0Z" />
<glyph unicode="L" glyph-name="L" horiz-adv-x="763" d="M753 0H84V700H184V100H753V0Z" />
<glyph unicode="M" glyph-name="M" horiz-adv-x="1076" d="M588 0H488V350Q488 419 455 476T364 566T238 600H184V0H84V700H238Q333 700 412 653T538 530Q584 606 663 653T838 700H992V0H892V600H838Q769 600 713 567T622 476T588 350V0Z" />
<glyph unicode="N" glyph-name="N" horiz-adv-x="942" d="M184 0H84V700H134Q207 700 292 672T464 593T626 472T758 315V700H858V0H758Q758 92 721 176T621 332T484 459T330 550T184 596V0Z" />
<glyph unicode="O" glyph-name="O" horiz-adv-x="964" d="M920 350Q920 277 897 214T832 102T730 27T599 0H366Q293 0 234 27T133 102T67 213T44 350Q44 422 67 485T132 597T234 673T366 700H599Q671 700 730 673T831 598T897 486T920 350ZM820 350Q820 419 794
476T718 566T599 600H366Q297 600 248 567T171 476T144 350Q144 281 171 225T247 134T366 100H599Q668 100 717 134T793 224T820 350Z" />
<glyph unicode="P" glyph-name="P" horiz-adv-x="917" d="M892 450Q892 381 859 325T768 234T642 200H240V299H642Q684 299 718 319T772 374T792 450Q792 492 772 526T718 580T642 600H184V0H84V700H642Q711 700 768 667T858 576T892 450Z" />
<glyph unicode="Q" glyph-name="Q" horiz-adv-x="964" d="M714 -84L624 1Q618 0 612 0T599 0H366Q293 0 234 27T133 102T67 213T44 350Q44 422 67 485T132 597T234 673T366 700H599Q671 700 730 673T831 598T897 486T920 350Q920 278 897 215T832 103T732 28L849
-84H714ZM820 350Q820 419 794 476T718 566T599 600H366Q297 600 248 567T171 476T144 350Q144 281 171 225T247 134T366 100H520L425 191H565L652 106Q705 119 742 154T800 240T820 350Z" />
<glyph unicode="R" glyph-name="R" horiz-adv-x="936" d="M892 0H757L547 200H240V299H642Q684 299 718 319T772 374T792 450Q792 492 772 526T718 580T642 600H184V0H84V700H642Q711 700 768 667T858 576T892 450Q892 388 865 335T790 248T682 203L892 0Z" />
<glyph unicode="S" glyph-name="S" horiz-adv-x="890" d="M857 200Q857 145 830 100T758 27T657 0H49V100H657Q699 100 728 129T757 200Q757 241 728 270T657 300H249Q194 300 149 327T76 399T49 500Q49 555 76 600T148 673T249 700H807V600H249Q208 600 179 571T149
500Q149 459 178 430T249 400H657Q713 400 758 373T830 301T857 200Z" />
<glyph unicode="T" glyph-name="T" horiz-adv-x="828" d="M464 0H364V600H10V700H818V600H464V0Z" />
<glyph unicode="U" glyph-name="U" horiz-adv-x="894" d="M834 700L833 350Q833 277 806 214T731 102T620 27T484 0H410Q338 0 275 27T163 102T88 214T61 350V700H161V350Q161 281 194 225T285 134T410 100H484Q553 100 609 134T699 224T733 350V700H834Z" />
<glyph unicode="V" glyph-name="V" horiz-adv-x="880" d="M865 700L497 0H383L15 700H129L440 108L751 700H865Z" />
<glyph unicode="W" glyph-name="W" horiz-adv-x="1063" d="M986 252Q986 183 952 126T861 34T734 0Q672 0 619 27T531 100Q497 54 444 27T329 0Q260 0 203 34T111 125T77 252V700H177V252Q177 210 197 176T252 121T329 100Q370 100 404 119T458 172T481 245V700H582V252Q582
210 602 176T657 121T734 100Q776 100 810 120T865 175T886 252V700H986V252Z" />
<glyph unicode="X" glyph-name="X" horiz-adv-x="819" d="M814 0H683L409 282L136 0H5L344 350L5 700H136L814 0ZM814 700L509 386L444 453L683 700H814Z" />
<glyph unicode="Y" glyph-name="Y" horiz-adv-x="944" d="M866 200Q866 145 833 100T742 27T616 0H57V100H616Q657 100 691 113T745 150T766 200V250H307Q238 250 182 284T91 374T57 500V700H157V500Q157 459 177 425T231 370T307 350H766V700H866V200Z" />
<glyph unicode="Z" glyph-name="Z" horiz-adv-x="892" d="M851 600L208 100H851V0H42V100L689 600H42V700H851V600Z" />
<glyph unicode="[" glyph-name="bracketleft" horiz-adv-x="355" d="M326 748H176V-25H326V-125H126Q105 -125 91 -111T76 -75V798Q76 819 90 833T126 848H326V748Z" />
<glyph unicode="\" glyph-name="backslash" horiz-adv-x="536" d="M508 0H394L26 700H140L508 0Z" />
<glyph unicode="]" glyph-name="bracketright" horiz-adv-x="355" d="M29 848H229Q250 848 264 834T279 798V-75Q279 -96 265 -110T229 -125H29V-25H179V748H29V848Z" />
<glyph unicode="^" glyph-name="asciicircum" horiz-adv-x="516" d="M415 372L256 550L100 373L40 436L218 639Q232 656 255 656Q278 656 293 639L478 432L415 372Z" />
<glyph unicode="_" glyph-name="underscore" horiz-adv-x="670" d="M610 -188H60V-88H610V-188Z" />
<glyph unicode="`" glyph-name="grave" horiz-adv-x="207" d="M38 747L207 648L183 595L0 661L38 747Z" />
<glyph unicode="a" glyph-name="a" horiz-adv-x="766" d="M698 0H198Q150 0 110 23T47 86T23 175Q23 224 46 263T110 326T198 350H548V250H198Q167 250 145 228T123 175Q123 144 145 122T198 100H598V375Q598 406 576 428T523 450H123V550H523Q572 550 611 527T674
464T698 375V0Z" />
<glyph unicode="b" glyph-name="b" horiz-adv-x="757" d="M720 275Q720 218 699 169T641 81T554 22T447 0H72V750H172V100H447Q495 100 534 124T597 187T620 275Q620 323 597 362T535 426T447 450H222V550H447Q504 550 553 529T640 469T699 382T720 275Z" />
<glyph unicode="c" glyph-name="c" horiz-adv-x="675" d="M637 0H310Q253 0 204 21T117 81T58 168T37 275Q37 332 58 381T116 469T203 528T310 550H637V450H310Q262 450 223 426T161 363T137 275Q137 227 160 188T223 124T310 100H637V0Z" />
<glyph unicode="d" glyph-name="d" horiz-adv-x="757" d="M685 0H585V450H310Q262 450 223 427T161 363T137 275Q137 227 160 188T223 125T310 100H535V0H310Q253 0 204 21T117 81T58 168T37 275Q37 332 58 381T116 469T203 528T310 550H585V750H685V0Z" />
<glyph unicode="e" glyph-name="e" horiz-adv-x="738" d="M712 375Q712 327 689 287T626 224T537 200H154Q175 156 216 128T310 100H637V0H310Q253 0 204 21T117 81T58 168T37 275Q37 332 58 381T116 469T203 528T310 550H537Q586 550 625 527T688 464T712 375ZM537
300Q568 300 590 322T612 375Q612 406 590 428T537 450H310Q266 450 230 430T169 376T139 300H537Z" />
<glyph unicode="f" glyph-name="f" horiz-adv-x="638" d="M622 650H345Q297 650 258 626T196 563T172 475V0H72V500Q72 553 94 598T154 677T242 730T345 750H622V650ZM622 400H222V500H622V400Z" />
<glyph unicode="g" glyph-name="g" horiz-adv-x="757" d="M685 -25Q685 -73 662 -113T598 -176T510 -200H110V-100H510Q541 -100 563 -78T585 -25V450H310Q262 450 223 426T161 363T137 275Q137 227 160 188T223 125T310 100H535V0H310Q253 0 204 21T117 81T58
168T37 275Q37 332 58 381T116 469T203 528T310 550H685V-25Z" />
<glyph unicode="h" glyph-name="h" horiz-adv-x="783" d="M720 0H620V275Q620 323 597 362T535 426T447 450H172V0H72V750H172V550H447Q504 550 553 529T640 469T699 382T720 275V0Z" />
<glyph unicode="i" glyph-name="i" horiz-adv-x="244" d="M197 675Q197 644 175 622T122 600Q91 600 69 622T47 675Q47 706 69 728T122 750Q153 750 175 728T197 675ZM172 0H72V550H172V0Z" />
<glyph unicode="j" glyph-name="j" horiz-adv-x="244" d="M197 675Q197 644 176 622T122 600Q91 600 69 622T47 675Q47 706 69 728T122 750Q154 750 175 728T197 675ZM172 -25Q172 -73 149 -113T85 -176T-3 -200H-228V-100H-3Q28 -100 50 -78T72 -25V550H172V-25Z" />
<glyph unicode="k" glyph-name="k" horiz-adv-x="711" d="M723 0H580L288 235L172 140V0H72V750H172V246L536 550H672L361 295L723 0Z" />
<glyph unicode="l" glyph-name="l" horiz-adv-x="283" d="M268 0H243Q195 0 155 23T92 86T68 175V750H168V175Q168 144 190 122T243 100H268V0Z" />
<glyph unicode="m" glyph-name="m" horiz-adv-x="935" d="M172 0H72V550H599Q656 550 705 529T792 469T851 382T872 275V0H772V275Q772 323 749 362T687 426T599 450H522V0H422V450H172V0Z" />
<glyph unicode="n" glyph-name="n" horiz-adv-x="783" d="M172 0H72V550H447Q504 550 553 529T640 469T699 382T720 275V0H620V275Q620 323 597 362T535 426T447 450H172V0Z" />
<glyph unicode="o" glyph-name="o" horiz-adv-x="774" d="M737 275Q737 218 716 169T658 81T571 22T464 0H310Q253 0 204 21T117 81T58 168T37 275Q37 332 58 381T116 469T203 528T310 550H464Q521 550 570 529T657 469T716 382T737 275ZM637 275Q637 323 614
362T552 426T464 450H310Q262 450 223 426T161 363T137 275Q137 227 160 188T223 124T310 100H464Q512 100 551 124T614 187T637 275Z" />
<glyph unicode="p" glyph-name="p" horiz-adv-x="757" d="M720 275Q720 218 699 169T641 81T554 22T447 0H222V100H447Q495 101 534 124T597 187T620 275Q620 323 597 363T535 426T447 450H172V-200H72V550H447Q504 550 553 529T640 469T699 382T720 275Z" />
<glyph unicode="q" glyph-name="q" horiz-adv-x="757" d="M685 -200H585V450H310Q262 450 223 427T161 363T137 275Q137 227 160 188T223 125T310 100H535V0H310Q253 0 204 21T117 81T58 168T37 275Q37 332 58 381T116 469T203 528T310 550H685V-200Z" />
<glyph unicode="r" glyph-name="r" horiz-adv-x="627" d="M618 450H243Q212 450 190 428T168 375V0H68V375Q68 424 91 463T155 526T243 550H618V450Z" />
<glyph unicode="s" glyph-name="s" horiz-adv-x="677" d="M646 175Q646 126 623 87T560 24T471 0H46V100H471Q502 100 524 122T546 175Q546 206 524 228T471 250H196Q155 250 121 270T66 324T46 400Q46 442 66 476T120 530T196 550H596V450H196Q175 450 161 436T146
400Q146 379 160 365T196 350H471Q520 350 559 327T622 264T646 175Z" />
<glyph unicode="t" glyph-name="t" horiz-adv-x="622" d="M265 0H165V450H15V550H165V750H265V550H615V450H265V0Z" />
<glyph unicode="u" glyph-name="u" horiz-adv-x="783" d="M711 0H336Q279 0 230 21T143 81T84 168T63 275V550H163V275Q163 227 186 188T249 125T336 100H611V550H711V0Z" />
<glyph unicode="v" glyph-name="v" horiz-adv-x="747" d="M734 550L430 0H316L14 550H131L373 104L617 550H734Z" />
<glyph unicode="w" glyph-name="w" horiz-adv-x="949" d="M886 275Q886 218 865 169T807 81T720 22T613 0H336Q279 0 230 21T143 81T84 168T63 275V550H163V275Q163 227 186 188T249 125T336 100H425V550H524V100H613Q661 101 700 124T763 187T786 275V550H886V275Z" />
<glyph unicode="x" glyph-name="x" horiz-adv-x="724" d="M717 0H574L360 207L150 0H7L291 274L7 550H150L717 0ZM717 550L479 318L407 382L574 550H717Z" />
<glyph unicode="y" glyph-name="y" horiz-adv-x="783" d="M711 -25Q711 -73 688 -113T625 -176T536 -200H136V-100H536Q567 -100 589 -78T611 -25V0H336Q279 0 230 21T143 81T84 168T63 275V550H163V275Q163 227 186 188T249 125T336 100H611V550H711V-25Z" />
<glyph unicode="z" glyph-name="z" horiz-adv-x="734" d="M692 450L210 100H692V0H42V100L523 450H42V550H692V450Z" />
<glyph unicode="{" glyph-name="braceleft" horiz-adv-x="402" d="M374 748H324Q301 748 278 741T241 718T226 676V675Q226 674 226 627T225 488Q225 445 212 414T175 362Q201 335 213 301T225 238L224 50Q224 24 239 7T277 -17T322 -25H372V-125H322Q292 -125
258 -116T194 -86T144 -32T124 50L125 237Q125 271 103 292T49 313Q28 313 14 327T-1 363Q-1 383 13 398T49 413Q75 413 100 429T125 488Q125 577 125 624T126 675Q126 731 155 769T229 828T324 848H374V748Z" />
<glyph unicode="|" glyph-name="bar" horiz-adv-x="252" d="M176 -125H76V850H176V-125Z" />
<glyph unicode="}" glyph-name="braceright" horiz-adv-x="402" d="M28 848H78Q128 848 173 828T247 770T276 675Q276 671 276 624T277 488Q277 445 302 429T353 413Q374 413 388 398T403 363Q403 342 389 328T353 313Q321 313 299 292T277 237L278 50Q278 2 259
-31T209 -85T144 -115T80 -125H30V-25H80Q102 -25 124 -18T162 7T178 50L177 238Q177 267 189 301T227 362Q205 383 191 414T177 488Q177 580 177 627T176 675V676Q176 702 162 718T125 741T78 748H28V848Z" />
<glyph unicode="~" glyph-name="asciitilde" horiz-adv-x="661" d="M595 321Q575 301 540 287T465 272Q425 272 378 285T283 312T193 325Q159 325 123 308T68 270V373Q88 394 126 408T197 423Q237 423 284 410T380 383T470 369Q504 369 540 387T595 425V321Z" />
<glyph unicode="&#xa0;" glyph-name="uni00A0" horiz-adv-x="375" />
<glyph unicode="&#xa1;" glyph-name="exclamdown" horiz-adv-x="262" d="M56 625Q56 656 78 678T131 700Q162 700 184 678T206 625Q206 594 184 572T131 550Q100 550 78 572T56 625ZM74 0L95 512H167L188 0H74Z" />
<glyph unicode="&#xa2;" glyph-name="cent" horiz-adv-x="542" d="M484 151H343V0H250V151H227Q172 151 129 180T61 256T36 358Q36 414 63 461T138 536T241 564H250V700H343V564H484V466H241Q197 466 166 434T134 357Q134 313 165 281T241 249H484V151Z" />
<glyph unicode="&#xa3;" glyph-name="sterling" horiz-adv-x="841" d="M808 0H139V300H39V400H139V450Q139 503 161 548T221 627T309 680T412 700H639V600H412Q364 600 325 576T263 513T239 425V400H539V300H239V100H808V0Z" />
<glyph unicode="&#xa4;" glyph-name="currency" horiz-adv-x="535" d="M483 231L416 161L354 217Q317 193 268 193Q244 193 222 199T180 217L118 161L52 231L116 289Q101 322 101 360Q101 379 105 397T117 431L52 491L118 561L182 503Q201 514 222 520T268 527Q291
527 312 521T352 503L416 561L483 491L417 432Q434 398 434 360Q434 323 418 289L483 231ZM351 360Q351 395 327 419T268 443Q234 443 209 419T184 360Q184 326 209 302T268 277Q303 277 327 301T351 360Z" />
<glyph unicode="&#xa5;" glyph-name="yen" horiz-adv-x="875" d="M842 500Q842 431 809 375T718 284T592 250H487V200H635V100H487V0H387V100H235V200H387V250H283Q214 250 158 284T67 374T33 500V700H133V500Q133 459 153 425T207 370T283 350H592Q633 350 667
370T721 424T742 500V700H842V500Z" />
<glyph unicode="&#xa6;" glyph-name="brokenbar" horiz-adv-x="256" d="M178 438H78V850H178V438ZM178 -125H78V288H178V-125Z" />
<glyph unicode="&#xa7;" glyph-name="section" horiz-adv-x="907" d="M864 100Q864 45 837 0T765 -73T664 -100H55V0H664Q705 0 734 29T764 100Q764 141 735 170T664 200H255Q200 200 155 227T82 299T55 400Q55 427 62 452T82 500Q69 522 62 547T55 600Q55 655
82 700T154 773T255 800H814V700H255Q214 700 185 671T155 600Q155 559 184 530T255 500H664Q719 500 764 473T837 401T864 300Q864 273 857 248T837 200Q864 154 864 100ZM764 300Q764 341 735 370T664 400H255Q203 400 158 425Q155 413 155 400Q155 359 184 330T255
300H664Q716 300 760 275Q762 281 763 287T764 300Z" />
<glyph unicode="&#xa8;" glyph-name="dieresis" horiz-adv-x="254" d="M91 642Q91 623 78 610T46 597Q27 597 14 610T0 642Q0 660 13 673T46 687Q64 687 77 674T91 642ZM254 642Q254 623 241 610T208 597Q189 597 176 610T163 642Q163 660 176 673T208 687Q227
687 240 674T254 642Z" />
<glyph unicode="&#xa9;" glyph-name="copyright" horiz-adv-x="543" d="M474 331Q474 285 459 255T422 208T375 184T333 177H210Q192 177 168 184T122 208T84 255T69 331V395Q69 441 84 471T121 518T168 543T210 550H333Q351 550 375 543T421 519T459 471T474
395V331ZM421 395Q421 432 409 452T380 482T350 494T333 497H210Q207 497 193 495T163 483T134 453T122 395V331Q122 294 134 274T162 244T193 232T210 230H333Q336 230 350 232T380 243T409 273T421 331V395ZM355 258H264Q245 258 223 267T185 296T169 349V381Q169
414 191 443T263 472H355V418H263Q236 418 229 405T221 381V349Q221 331 230 324T250 314T264 312H355V258Z" />
<glyph unicode="&#xaa;" glyph-name="ordfeminine" horiz-adv-x="514" d="M455 366H157Q127 366 102 381T62 420T47 475Q47 505 62 530T102 570T157 585H348V511H157Q141 511 131 501T121 475Q121 460 131 450T157 439H382V591Q382 607 372 617T346 627H105V701H346Q376
701 401 686T440 646T455 591V366ZM455 240H47V310H455V240Z" />
<glyph unicode="&#xab;" glyph-name="guillemotleft" horiz-adv-x="667" d="M394 488L146 266L392 50H260L57 228Q40 242 40 265Q40 288 57 303L264 488H394ZM624 488L376 266L622 50H490L287 228Q270 242 270 265Q270 288 287 303L494 488H624Z" />
<glyph unicode="&#xac;" glyph-name="logicalnot" horiz-adv-x="587" d="M515 114H416V301H57V400H515V114Z" />
<glyph unicode="&#xae;" glyph-name="registered" horiz-adv-x="517" d="M461 483Q461 437 446 407T409 360T362 336T320 329H197Q179 329 155 336T109 360T71 407T56 483V547Q56 593 71 623T108 670T155 695T197 702H320Q338 702 362 695T408 671T446 623T461
547V483ZM367 549Q367 514 348 497T307 475L387 413Q396 424 402 441T408 483V547Q408 588 385 618T320 649H197Q194 649 180 647T150 635T121 605T109 547V483Q109 443 133 413T197 382H320Q322 382 326 382T337 384L225 474V528H292Q314 528 314 549V570H207V421H154V624H315Q341
624 354 608T367 572V549Z" />
<glyph unicode="&#xaf;" glyph-name="overscore" horiz-adv-x="236" d="M0 602V684H236V602H0Z" />
<glyph unicode="&#xb0;" glyph-name="degree" horiz-adv-x="300" d="M51 606Q51 644 76 672T150 700Q206 700 227 672T249 606Q249 569 226 541T150 513Q98 513 75 541T51 606ZM118 606Q118 592 126 582T152 572Q169 572 177 582T186 606Q186 620 178 630T152
640Q135 640 127 630T118 606Z" />
<glyph unicode="&#xb1;" glyph-name="plusminus" horiz-adv-x="660" d="M605 300H380V100H280V300H55V400H280V600H380V400H605V300ZM605 -100H55V0H605V-100Z" />
<glyph unicode="&#xb2;" glyph-name="uni00B2" horiz-adv-x="443" d="M375 331H64V449Q64 467 73 488T102 525T156 541H282Q292 541 292 550V575Q288 582 286 583T283 584H89V668H283Q317 668 337 653T366 616T375 576V550Q375 517 360 497T323 467T283 458H156Q147
458 147 448V415H375V331Z" />
<glyph unicode="&#xb3;" glyph-name="uni00B3" horiz-adv-x="417" d="M356 424Q356 390 341 370T304 340T264 331H70V415H263Q273 415 273 424V458H70V541H273V575Q273 584 264 584H70V668H264Q298 668 318 653T347 616T356 576V424Z" />
<glyph unicode="&#xb4;" glyph-name="acute" horiz-adv-x="207" d="M207 661L24 595L0 648L169 747L207 661Z" />
<glyph unicode="&#xb5;" glyph-name="uni03BC" horiz-adv-x="776" d="M722 0H347Q298 0 254 16T174 62V-200H74V550H174V275Q174 227 197 188T260 125T347 100H622V550H722V0Z" />
<glyph unicode="&#xb6;" glyph-name="paragraph" horiz-adv-x="931" d="M36 450Q36 519 70 576T160 666T286 700H844V0H744V600H593V0H493V600H286Q244 600 210 580T156 526T136 450Q136 409 156 375T210 320T286 299H428V200H286Q217 200 161 234T70 324T36 450Z" />
<glyph unicode="&#xb7;" glyph-name="middot" horiz-adv-x="276" d="M213 356Q213 325 191 303T138 281Q107 281 85 303T63 356Q63 387 85 409T138 431Q169 431 191 409T213 356Z" />
<glyph unicode="&#xb8;" glyph-name="cedilla" horiz-adv-x="190" d="M116 -24Q130 -24 147 -29T177 -47T190 -88Q190 -115 173 -130T131 -152T79 -159Q43 -159 29 -156T0 -151V-89Q14 -96 33 -100T71 -105Q91 -105 104 -101T117 -87Q117 -76 102 -73T76 -69Q68
-69 60 -70T43 -73L73 7H128L116 -24Z" />
<glyph unicode="&#xb9;" glyph-name="uni00B9" horiz-adv-x="253" d="M182 331H99V584H48V668H182V331Z" />
<glyph unicode="&#xba;" glyph-name="ordmasculine" horiz-adv-x="539" d="M495 533Q495 487 473 450T412 390T328 366H210Q164 367 126 389T66 449T43 533Q43 579 65 617T126 678T210 701H328Q374 701 412 678T472 617T495 533ZM421 533Q421 572 395 599T328
627H210Q171 626 144 599T117 533Q117 494 144 467T210 439H328Q368 439 394 466T421 533ZM496 240H43V310H496V240Z" />
<glyph unicode="&#xbb;" glyph-name="guillemotright" horiz-adv-x="667" d="M403 488L610 303Q627 288 627 265Q627 242 610 228L407 50H275L521 266L273 488H403ZM173 488L380 303Q397 288 397 265Q397 242 380 228L177 50H45L291 266L43 488H173Z" />
<glyph unicode="&#xbc;" glyph-name="onequarter" horiz-adv-x="762" d="M183 331H100V584H49V668H183V331ZM536 658L153 30H57L440 658H536ZM717 19H634V146H448Q431 146 419 158T406 188V356H489V229H634V356H717V19Z" />
<glyph unicode="&#xbd;" glyph-name="onehalf" horiz-adv-x="736" d="M183 331H100V584H49V668H183V331ZM536 658L153 30H57L440 658H536ZM695 19H384V137Q384 155 393 176T422 213T476 229H602Q612 229 612 238V263Q608 270 606 271T603 272H409V356H603Q637
356 657 341T686 304T695 264V238Q695 205 680 185T643 155T603 146H476Q467 146 467 136V103H695V19Z" />
<glyph unicode="&#xbe;" glyph-name="threequarters" horiz-adv-x="884" d="M337 424Q337 390 322 370T285 340T245 331H51V415H244Q254 415 254 424V458H51V541H254V575Q254 584 245 584H51V668H245Q279 668 299 653T328 616T337 576V424ZM658 658L275 30H179L562
658H658ZM839 19H756V146H570Q553 146 541 158T528 188V356H611V229H756V356H839V19Z" />
<glyph unicode="&#xbf;" glyph-name="questiondown" horiz-adv-x="798" d="M389 625Q389 656 411 678T464 700Q496 700 517 678T539 625Q539 594 518 572T464 550Q433 550 411 572T389 625ZM39 225Q39 287 69 338T151 419T264 450H389Q400 450 407 457T414 475V512H514V475Q514
441 497 413T452 367T389 350H264Q230 350 202 333T156 288T139 225Q139 191 156 163T201 117T264 100H764V0H264Q202 0 151 30T70 112T39 225Z" />
<glyph unicode="&#xc0;" glyph-name="Agrave" horiz-adv-x="964" d="M880 0H780V200H221V300H780V600H421Q353 600 296 567T206 476T172 350V0H72V350Q72 422 99 485T174 597T285 673T421 700H880V0ZM310 907L479 808L455 755L272 821L310 907Z" />
<glyph unicode="&#xc1;" glyph-name="Aacute" horiz-adv-x="964" d="M880 0H780V200H221V300H780V600H421Q353 600 296 567T206 476T172 350V0H72V350Q72 422 99 485T174 597T285 673T421 700H880V0ZM679 821L496 755L472 808L641 907L679 821Z" />
<glyph unicode="&#xc2;" glyph-name="Acircumflex" horiz-adv-x="964" d="M880 0H780V200H221V300H780V600H421Q353 600 296 567T206 476T172 350V0H72V350Q72 422 99 485T174 597T285 673T421 700H880V0ZM593 755L471 819L349 755L316 805L471 908L636 805L593 755Z" />
<glyph unicode="&#xc3;" glyph-name="Atilde" horiz-adv-x="964" d="M880 0H780V200H221V300H780V600H421Q353 600 296 567T206 476T172 350V0H72V350Q72 422 99 485T174 597T285 673T421 700H880V0ZM615 874Q615 807 589 781T526 754Q501 754 486 764T459 785T431
796Q417 796 411 788T402 769T399 754H337Q337 814 364 844T426 874Q449 874 464 864T492 843T521 832Q535 832 541 840T550 859T552 874H615Z" />
<glyph unicode="&#xc4;" glyph-name="Adieresis" horiz-adv-x="964" d="M880 0H780V200H221V300H780V600H421Q353 600 296 567T206 476T172 350V0H72V350Q72 422 99 485T174 597T285 673T421 700H880V0ZM440 802Q440 783 427 770T395 757Q376 757 363 770T349
802Q349 820 362 833T395 847Q413 847 426 834T440 802ZM603 802Q603 783 590 770T557 757Q538 757 525 770T512 802Q512 820 525 833T557 847Q576 847 589 834T603 802Z" />
<glyph unicode="&#xc5;" glyph-name="Aring" horiz-adv-x="964" d="M880 0H780V200H221V300H780V600H421Q353 600 296 567T206 476T172 350V0H72V350Q72 422 99 485T174 597T285 673T421 700H880V0ZM373 821Q373 856 402 881T476 906Q526 906 552 881T579 821Q579
787 551 762T476 736Q428 736 401 761T373 821ZM442 821Q442 807 450 797T476 787Q493 787 501 797T510 821Q510 835 502 845T476 855Q459 855 451 845T442 821Z" />
<glyph unicode="&#xc6;" glyph-name="AE" horiz-adv-x="1545" d="M1505 0H780V200H221V300H780V600H421Q353 600 296 567T206 476T172 350V0H72V350Q72 422 99 485T174 597T285 673T421 700H1505V600H881V100H1505V0ZM1420 300H931V400H1420V300Z" />
<glyph unicode="&#xc7;" glyph-name="Ccedilla" horiz-adv-x="854" d="M817 0H510L501 -24Q515 -24 532 -29T562 -47T575 -88Q575 -115 558 -130T516 -152T464 -159Q428 -159 414 -156T385 -151V-89Q399 -96 418 -100T456 -105Q476 -105 489 -101T502 -87Q502
-76 487 -73T461 -69Q453 -69 445 -70T428 -73L455 0H366Q293 0 234 27T133 102T67 213T44 350Q44 422 67 485T132 597T234 673T366 700H817V600H366Q297 600 248 567T171 476T144 350Q144 281 171 225T247 134T366 100H817V0Z" />
<glyph unicode="&#xc8;" glyph-name="Egrave" horiz-adv-x="848" d="M808 0H84V700H808V600H184V100H808V0ZM723 300H234V400H723V300ZM280 907L449 808L425 755L242 821L280 907Z" />
<glyph unicode="&#xc9;" glyph-name="Eacute" horiz-adv-x="848" d="M808 0H84V700H808V600H184V100H808V0ZM723 300H234V400H723V300ZM649 821L466 755L442 808L611 907L649 821Z" />
<glyph unicode="&#xca;" glyph-name="Ecircumflex" horiz-adv-x="848" d="M808 0H84V700H808V600H184V100H808V0ZM723 300H234V400H723V300ZM563 755L441 819L319 755L286 805L441 908L606 805L563 755Z" />
<glyph unicode="&#xcb;" glyph-name="Edieresis" horiz-adv-x="848" d="M808 0H84V700H808V600H184V100H808V0ZM723 300H234V400H723V300ZM410 802Q410 783 397 770T365 757Q346 757 333 770T319 802Q319 820 332 833T365 847Q383 847 396 834T410 802ZM573 802Q573
783 560 770T527 757Q508 757 495 770T482 802Q482 820 495 833T527 847Q546 847 559 834T573 802Z" />
<glyph unicode="&#xcc;" glyph-name="Igrave" horiz-adv-x="268" d="M184 0H84V700H184V0ZM-31 907L138 808L114 755L-69 821L-31 907Z" />
<glyph unicode="&#xcd;" glyph-name="Iacute" horiz-adv-x="268" d="M184 0H84V700H184V0ZM338 821L155 755L131 808L300 907L338 821Z" />
<glyph unicode="&#xce;" glyph-name="Icircumflex" horiz-adv-x="268" d="M184 0H84V700H184V0ZM251 755L129 819L7 755L-26 805L129 908L294 805L251 755Z" />
<glyph unicode="&#xcf;" glyph-name="Idieresis" horiz-adv-x="268" d="M184 0H84V700H184V0ZM98 802Q98 783 85 770T53 757Q34 757 21 770T7 802Q7 820 20 833T53 847Q71 847 84 834T98 802ZM261 802Q261 783 248 770T215 757Q196 757 183 770T170 802Q170 820
183 833T215 847Q234 847 247 834T261 802Z" />
<glyph unicode="&#xd0;" glyph-name="Eth" horiz-adv-x="998" d="M549 300H229V0H129V300H-1V400H129V700H632Q704 700 763 673T865 598T931 486T954 350Q954 277 931 214T866 102T764 27T632 0H279V100H632Q701 100 751 134T827 224T854 350Q854 419 828 476T751
566T632 600H229V400H549V300Z" />
<glyph unicode="&#xd1;" glyph-name="Ntilde" horiz-adv-x="942" d="M184 0H84V700H134Q207 700 292 672T464 593T626 472T758 315V700H858V0H758Q758 92 721 176T621 332T484 459T330 550T184 596V0ZM610 874Q610 807 584 781T521 754Q496 754 481 764T454 785T426
796Q412 796 406 788T397 769T394 754H332Q332 814 359 844T421 874Q444 874 459 864T487 843T516 832Q530 832 536 840T545 859T547 874H610Z" />
<glyph unicode="&#xd2;" glyph-name="Ograve" horiz-adv-x="964" d="M920 350Q920 277 897 214T832 102T730 27T599 0H366Q293 0 234 27T133 102T67 213T44 350Q44 422 67 485T132 597T234 673T366 700H599Q671 700 730 673T831 598T897 486T920 350ZM820 350Q820
419 794 476T718 566T599 600H366Q297 600 248 567T171 476T144 350Q144 281 171 225T247 134T366 100H599Q668 100 717 134T793 224T820 350ZM316 907L485 808L461 755L278 821L316 907Z" />
<glyph unicode="&#xd3;" glyph-name="Oacute" horiz-adv-x="964" d="M920 350Q920 277 897 214T832 102T730 27T599 0H366Q293 0 234 27T133 102T67 213T44 350Q44 422 67 485T132 597T234 673T366 700H599Q671 700 730 673T831 598T897 486T920 350ZM820 350Q820
419 794 476T718 566T599 600H366Q297 600 248 567T171 476T144 350Q144 281 171 225T247 134T366 100H599Q668 100 717 134T793 224T820 350ZM685 821L502 755L478 808L647 907L685 821Z" />
<glyph unicode="&#xd4;" glyph-name="Ocircumflex" horiz-adv-x="964" d="M920 350Q920 277 897 214T832 102T730 27T599 0H366Q293 0 234 27T133 102T67 213T44 350Q44 422 67 485T132 597T234 673T366 700H599Q671 700 730 673T831 598T897 486T920 350ZM820
350Q820 419 794 476T718 566T599 600H366Q297 600 248 567T171 476T144 350Q144 281 171 225T247 134T366 100H599Q668 100 717 134T793 224T820 350ZM599 755L477 819L355 755L322 805L477 908L642 805L599 755Z" />
<glyph unicode="&#xd5;" glyph-name="Otilde" horiz-adv-x="964" d="M920 350Q920 277 897 214T832 102T730 27T599 0H366Q293 0 234 27T133 102T67 213T44 350Q44 422 67 485T132 597T234 673T366 700H599Q671 700 730 673T831 598T897 486T920 350ZM820 350Q820
419 794 476T718 566T599 600H366Q297 600 248 567T171 476T144 350Q144 281 171 225T247 134T366 100H599Q668 100 717 134T793 224T820 350ZM621 874Q621 807 595 781T532 754Q507 754 492 764T465 785T437 796Q423 796 417 788T408 769T405 754H343Q343 814
370 844T432 874Q455 874 470 864T498 843T527 832Q541 832 547 840T556 859T558 874H621Z" />
<glyph unicode="&#xd6;" glyph-name="Odieresis" horiz-adv-x="964" d="M920 350Q920 277 897 214T832 102T730 27T599 0H366Q293 0 234 27T133 102T67 213T44 350Q44 422 67 485T132 597T234 673T366 700H599Q671 700 730 673T831 598T897 486T920 350ZM820 350Q820
419 794 476T718 566T599 600H366Q297 600 248 567T171 476T144 350Q144 281 171 225T247 134T366 100H599Q668 100 717 134T793 224T820 350ZM446 802Q446 783 433 770T401 757Q382 757 369 770T355 802Q355 820 368 833T401 847Q419 847 432 834T446 802ZM609
802Q609 783 596 770T563 757Q544 757 531 770T518 802Q518 820 531 833T563 847Q582 847 595 834T609 802Z" />
<glyph unicode="&#xd7;" glyph-name="multiply" horiz-adv-x="692" d="M638 150H495L346 285L197 150H54L274 350L54 550H197L346 415L495 550H638L417 350L638 150Z" />
<glyph unicode="&#xd8;" glyph-name="Oslash" horiz-adv-x="964" d="M824 700L779 644Q845 598 882 520T920 350Q920 277 897 214T832 102T730 27T599 0H366Q314 0 271 13L261 0H142L186 54Q119 101 82 178T44 350Q44 422 67 485T132 597T234 673T366 700H599Q625
700 648 697T694 686L705 700H824ZM366 600Q297 600 248 567T171 476T144 350Q144 280 171 223T249 133L623 598Q617 599 611 599T599 600H366ZM820 350Q820 419 793 476T716 566L342 101Q348 101 354 101T366 100H599Q668 100 717 134T793 224T820 350Z" />
<glyph unicode="&#xd9;" glyph-name="Ugrave" horiz-adv-x="894" d="M834 700L833 350Q833 277 806 214T731 102T620 27T484 0H410Q338 0 275 27T163 102T88 214T61 350V700H161V350Q161 281 194 225T285 134T410 100H484Q553 100 609 134T699 224T733 350V700H834ZM282
907L451 808L427 755L244 821L282 907Z" />
<glyph unicode="&#xda;" glyph-name="Uacute" horiz-adv-x="894" d="M834 700L833 350Q833 277 806 214T731 102T620 27T484 0H410Q338 0 275 27T163 102T88 214T61 350V700H161V350Q161 281 194 225T285 134T410 100H484Q553 100 609 134T699 224T733 350V700H834ZM651
821L468 755L444 808L613 907L651 821Z" />
<glyph unicode="&#xdb;" glyph-name="Ucircumflex" horiz-adv-x="894" d="M834 700L833 350Q833 277 806 214T731 102T620 27T484 0H410Q338 0 275 27T163 102T88 214T61 350V700H161V350Q161 281 194 225T285 134T410 100H484Q553 100 609 134T699 224T733 350V700H834ZM564
755L442 819L320 755L287 805L442 908L607 805L564 755Z" />
<glyph unicode="&#xdc;" glyph-name="Udieresis" horiz-adv-x="894" d="M834 700L833 350Q833 277 806 214T731 102T620 27T484 0H410Q338 0 275 27T163 102T88 214T61 350V700H161V350Q161 281 194 225T285 134T410 100H484Q553 100 609 134T699 224T733 350V700H834ZM411
802Q411 783 398 770T366 757Q347 757 334 770T320 802Q320 820 333 833T366 847Q384 847 397 834T411 802ZM574 802Q574 783 561 770T528 757Q509 757 496 770T483 802Q483 820 496 833T528 847Q547 847 560 834T574 802Z" />
<glyph unicode="&#xdd;" glyph-name="Yacute" horiz-adv-x="944" d="M866 200Q866 145 833 100T742 27T616 0H57V100H616Q657 100 691 113T745 150T766 200V250H307Q238 250 182 284T91 374T57 500V700H157V500Q157 459 177 425T231 370T307 350H766V700H866V200ZM665
821L482 755L458 808L627 907L665 821Z" />
<glyph unicode="&#xde;" glyph-name="Thorn" horiz-adv-x="917" d="M892 350Q892 281 859 225T768 134T642 100H240V199H642Q684 199 718 219T772 274T792 350Q792 392 772 426T718 480T642 500H184V0H84V701H184V600H642Q711 600 768 567T858 476T892 350Z" />
<glyph unicode="&#xdf;" glyph-name="germandbls" horiz-adv-x="894" d="M872 175Q872 126 849 87T786 24T697 0H272V100H697Q728 100 750 122T772 175Q772 206 750 228T697 250H422Q381 250 347 270T292 324T272 400Q272 442 292 476T346 530T422 550H472Q493
550 507 564T522 600Q522 621 508 635T472 650H345Q297 650 258 626T196 563T172 475V0H72V500Q72 553 94 598T154 677T242 731T345 750H472Q514 750 548 730T602 676T622 600Q622 559 602 525T548 470T472 450H422Q401 450 387 436T372 400Q372 379 386 365T422
350H697Q746 350 785 327T848 264T872 175Z" />
<glyph unicode="&#xe0;" glyph-name="agrave" horiz-adv-x="766" d="M698 0H198Q150 0 110 23T47 86T23 175Q23 224 46 263T110 326T198 350H548V250H198Q167 250 145 228T123 175Q123 144 145 122T198 100H598V375Q598 406 576 428T523 450H123V550H523Q572 550
611 527T674 464T698 375V0ZM195 767L364 668L340 615L157 681L195 767Z" />
<glyph unicode="&#xe1;" glyph-name="aacute" horiz-adv-x="766" d="M698 0H198Q150 0 110 23T47 86T23 175Q23 224 46 263T110 326T198 350H548V250H198Q167 250 145 228T123 175Q123 144 145 122T198 100H598V375Q598 406 576 428T523 450H123V550H523Q572 550
611 527T674 464T698 375V0ZM564 681L381 615L357 668L526 767L564 681Z" />
<glyph unicode="&#xe2;" glyph-name="acircumflex" horiz-adv-x="766" d="M698 0H198Q150 0 110 23T47 86T23 175Q23 224 46 263T110 326T198 350H548V250H198Q167 250 145 228T123 175Q123 144 145 122T198 100H598V375Q598 406 576 428T523 450H123V550H523Q572
550 611 527T674 464T698 375V0ZM477 615L355 679L233 615L200 665L355 768L520 665L477 615Z" />
<glyph unicode="&#xe3;" glyph-name="atilde" horiz-adv-x="766" d="M698 0H198Q150 0 110 23T47 86T23 175Q23 224 46 263T110 326T198 350H548V250H198Q167 250 145 228T123 175Q123 144 145 122T198 100H598V375Q598 406 576 428T523 450H123V550H523Q572 550
611 527T674 464T698 375V0ZM499 734Q499 667 473 641T410 614Q385 614 370 624T343 645T315 656Q301 656 295 648T286 629T283 614H221Q221 674 248 704T310 734Q333 734 348 724T376 703T405 692Q419 692 425 700T434 719T436 734H499Z" />
<glyph unicode="&#xe4;" glyph-name="adieresis" horiz-adv-x="766" d="M698 0H198Q150 0 110 23T47 86T23 175Q23 224 46 263T110 326T198 350H548V250H198Q167 250 145 228T123 175Q123 144 145 122T198 100H598V375Q598 406 576 428T523 450H123V550H523Q572
550 611 527T674 464T698 375V0ZM324 662Q324 643 311 630T279 617Q260 617 247 630T233 662Q233 680 246 693T279 707Q297 707 310 694T324 662ZM487 662Q487 643 474 630T441 617Q422 617 409 630T396 662Q396 680 409 693T441 707Q460 707 473 694T487 662Z"
/>
<glyph unicode="&#xe5;" glyph-name="aring" horiz-adv-x="766" d="M698 0H198Q150 0 110 23T47 86T23 175Q23 224 46 263T110 326T198 350H548V250H198Q167 250 145 228T123 175Q123 144 145 122T198 100H598V375Q598 406 576 428T523 450H123V550H523Q572 550
611 527T674 464T698 375V0ZM257 681Q257 716 286 741T360 766Q410 766 436 741T463 681Q463 647 435 622T360 596Q312 596 285 621T257 681ZM326 681Q326 667 334 657T360 647Q377 647 385 657T394 681Q394 695 386 705T360 715Q343 715 335 705T326 681Z" />
<glyph unicode="&#xe6;" glyph-name="ae" horiz-adv-x="1299" d="M1273 375Q1273 327 1250 287T1187 224T1098 200H715Q736 156 777 128T871 100H1198V0H871Q822 0 778 17T698 63V0H198Q150 0 110 23T47 86T23 175Q23 224 46 263T110 326T198 350H548V250H198Q167
250 145 228T123 175Q123 144 145 122T198 100H598V375Q598 406 576 428T523 450H123V550H523Q571 550 611 527T674 464Q711 503 762 526T871 550H1098Q1147 550 1186 527T1249 464T1273 375ZM1098 300Q1129 300 1151 322T1173 375Q1173 406 1151 428T1098 450H871Q827
450 791 430T730 376T700 300H1098Z" />
<glyph unicode="&#xe7;" glyph-name="ccedilla" horiz-adv-x="675" d="M637 0H417L408 -24Q422 -24 439 -29T469 -47T482 -88Q482 -115 465 -130T423 -152T371 -159Q335 -159 321 -156T292 -151V-89Q306 -96 325 -100T363 -105Q383 -105 396 -101T409 -87Q409
-76 394 -73T368 -69Q360 -69 352 -70T335 -73L362 0H310Q253 0 204 21T117 81T58 168T37 275Q37 332 58 381T116 469T203 528T310 550H637V450H310Q262 450 223 426T161 363T137 275Q137 227 160 188T223 124T310 100H637V0Z" />
<glyph unicode="&#xe8;" glyph-name="egrave" horiz-adv-x="738" d="M712 375Q712 327 689 287T626 224T537 200H154Q175 156 216 128T310 100H637V0H310Q253 0 204 21T117 81T58 168T37 275Q37 332 58 381T116 469T203 528T310 550H537Q586 550 625 527T688 464T712
375ZM537 300Q568 300 590 322T612 375Q612 406 590 428T537 450H310Q266 450 230 430T169 376T139 300H537ZM209 767L378 668L354 615L171 681L209 767Z" />
<glyph unicode="&#xe9;" glyph-name="eacute" horiz-adv-x="738" d="M712 375Q712 327 689 287T626 224T537 200H154Q175 156 216 128T310 100H637V0H310Q253 0 204 21T117 81T58 168T37 275Q37 332 58 381T116 469T203 528T310 550H537Q586 550 625 527T688 464T712
375ZM537 300Q568 300 590 322T612 375Q612 406 590 428T537 450H310Q266 450 230 430T169 376T139 300H537ZM578 681L395 615L371 668L540 767L578 681Z" />
<glyph unicode="&#xea;" glyph-name="ecircumflex" horiz-adv-x="738" d="M712 375Q712 327 689 287T626 224T537 200H154Q175 156 216 128T310 100H637V0H310Q253 0 204 21T117 81T58 168T37 275Q37 332 58 381T116 469T203 528T310 550H537Q586 550 625 527T688
464T712 375ZM537 300Q568 300 590 322T612 375Q612 406 590 428T537 450H310Q266 450 230 430T169 376T139 300H537ZM491 615L369 679L247 615L214 665L369 768L534 665L491 615Z" />
<glyph unicode="&#xeb;" glyph-name="edieresis" horiz-adv-x="738" d="M712 375Q712 327 689 287T626 224T537 200H154Q175 156 216 128T310 100H637V0H310Q253 0 204 21T117 81T58 168T37 275Q37 332 58 381T116 469T203 528T310 550H537Q586 550 625 527T688
464T712 375ZM537 300Q568 300 590 322T612 375Q612 406 590 428T537 450H310Q266 450 230 430T169 376T139 300H537ZM338 662Q338 643 325 630T293 617Q274 617 261 630T247 662Q247 680 260 693T293 707Q311 707 324 694T338 662ZM501 662Q501 643 488 630T455
617Q436 617 423 630T410 662Q410 680 423 693T455 707Q474 707 487 694T501 662Z" />
<glyph unicode="&#xec;" glyph-name="igrave" horiz-adv-x="244" d="M172 0H72V550H172V0ZM213 767L382 668L358 615L175 681L213 767Z" />
<glyph unicode="&#xed;" glyph-name="iacute" horiz-adv-x="244" d="M172 0H72V550H172V0ZM326 681L143 615L119 668L288 767L326 681Z" />
<glyph unicode="&#xee;" glyph-name="icircumflex" horiz-adv-x="244" d="M172 0H72V550H172V0ZM495 615L373 679L251 615L218 665L373 768L538 665L495 615Z" />
<glyph unicode="&#xef;" glyph-name="idieresis" horiz-adv-x="244" d="M172 0H72V550H172V0ZM342 662Q342 643 329 630T297 617Q278 617 265 630T251 662Q251 680 264 693T297 707Q315 707 328 694T342 662ZM505 662Q505 643 492 630T459 617Q440 617 427 630T414
662Q414 680 427 693T459 707Q478 707 491 694T505 662Z" />
<glyph unicode="&#xf0;" glyph-name="eth" horiz-adv-x="825" d="M786 631H637L743 424Q764 392 775 354T787 275Q787 218 766 169T708 81T621 22T514 0H310Q253 0 204 21T117 81T58 168T37 275Q37 332 58 381T116 469T203 528T310 550H514Q543 550 571 544L525
631H236V731H473L437 800H551L586 731H786V631ZM687 275Q687 323 664 362T602 426T514 450H310Q262 450 223 426T161 363T137 275Q137 227 160 188T223 124T310 100H514Q562 100 601 124T664 187T687 275Z" />
<glyph unicode="&#xf1;" glyph-name="ntilde" horiz-adv-x="783" d="M172 0H72V550H447Q504 550 553 529T640 469T699 382T720 275V0H620V275Q620 323 597 362T535 426T447 450H172V0ZM535 734Q535 667 509 641T446 614Q421 614 406 624T379 645T351 656Q337 656
331 648T322 629T319 614H257Q257 674 284 704T346 734Q369 734 384 724T412 703T441 692Q455 692 461 700T470 719T472 734H535Z" />
<glyph unicode="&#xf2;" glyph-name="ograve" horiz-adv-x="774" d="M737 275Q737 218 716 169T658 81T571 22T464 0H310Q253 0 204 21T117 81T58 168T37 275Q37 332 58 381T116 469T203 528T310 550H464Q521 550 570 529T657 469T716 382T737 275ZM637 275Q637
323 614 362T552 426T464 450H310Q262 450 223 426T161 363T137 275Q137 227 160 188T223 124T310 100H464Q512 100 551 124T614 187T637 275ZM206 767L375 668L351 615L168 681L206 767Z" />
<glyph unicode="&#xf3;" glyph-name="oacute" horiz-adv-x="774" d="M737 275Q737 218 716 169T658 81T571 22T464 0H310Q253 0 204 21T117 81T58 168T37 275Q37 332 58 381T116 469T203 528T310 550H464Q521 550 570 529T657 469T716 382T737 275ZM637 275Q637
323 614 362T552 426T464 450H310Q262 450 223 426T161 363T137 275Q137 227 160 188T223 124T310 100H464Q512 100 551 124T614 187T637 275ZM615 681L432 615L408 668L577 767L615 681Z" />
<glyph unicode="&#xf4;" glyph-name="ocircumflex" horiz-adv-x="774" d="M737 275Q737 218 716 169T658 81T571 22T464 0H310Q253 0 204 21T117 81T58 168T37 275Q37 332 58 381T116 469T203 528T310 550H464Q521 550 570 529T657 469T716 382T737 275ZM637 275Q637
323 614 362T552 426T464 450H310Q262 450 223 426T161 363T137 275Q137 227 160 188T223 124T310 100H464Q512 100 551 124T614 187T637 275ZM499 615L377 679L255 615L222 665L377 768L542 665L499 615Z" />
<glyph unicode="&#xf5;" glyph-name="otilde" horiz-adv-x="774" d="M737 275Q737 218 716 169T658 81T571 22T464 0H310Q253 0 204 21T117 81T58 168T37 275Q37 332 58 381T116 469T203 528T310 550H464Q521 550 570 529T657 469T716 382T737 275ZM637 275Q637
323 614 362T552 426T464 450H310Q262 450 223 426T161 363T137 275Q137 227 160 188T223 124T310 100H464Q512 100 551 124T614 187T637 275ZM521 734Q521 667 495 641T432 614Q407 614 392 624T365 645T337 656Q323 656 317 648T308 629T305 614H243Q243 674
270 704T332 734Q355 734 370 724T398 703T427 692Q441 692 447 700T456 719T458 734H521Z" />
<glyph unicode="&#xf6;" glyph-name="odieresis" horiz-adv-x="774" d="M737 275Q737 218 716 169T658 81T571 22T464 0H310Q253 0 204 21T117 81T58 168T37 275Q37 332 58 381T116 469T203 528T310 550H464Q521 550 570 529T657 469T716 382T737 275ZM637 275Q637
323 614 362T552 426T464 450H310Q262 450 223 426T161 363T137 275Q137 227 160 188T223 124T310 100H464Q512 100 551 124T614 187T637 275ZM346 662Q346 643 333 630T301 617Q282 617 269 630T255 662Q255 680 268 693T301 707Q319 707 332 694T346 662ZM509
662Q509 643 496 630T463 617Q444 617 431 630T418 662Q418 680 431 693T463 707Q482 707 495 694T509 662Z" />
<glyph unicode="&#xf7;" glyph-name="divide" horiz-adv-x="642" d="M396 525Q396 494 374 472T321 450Q290 450 268 472T246 525Q246 556 268 578T321 600Q352 600 374 578T396 525ZM596 300H46V400H596V300ZM396 175Q396 144 374 122T321 100Q290 100 268 122T246
175Q246 206 268 228T321 250Q352 250 374 228T396 175Z" />
<glyph unicode="&#xf8;" glyph-name="oslash" horiz-adv-x="784" d="M737 551L661 475Q701 437 724 386T747 275Q747 218 726 169T668 81T581 22T474 0H310Q282 0 256 5T205 21L184 0H55L127 71Q85 109 61 161T37 275Q37 332 58 381T116 469T203 528T310 550H474Q532
550 584 527L608 551H737ZM310 450Q262 450 223 426T161 363T137 275Q137 235 153 201T197 142L503 447Q496 448 489 449T474 450H310ZM647 275Q647 313 632 346T590 404L286 102Q292 101 298 101T310 100H474Q522 100 561 124T624 187T647 275Z" />
<glyph unicode="&#xf9;" glyph-name="ugrave" horiz-adv-x="783" d="M711 0H336Q279 0 230 21T143 81T84 168T63 275V550H163V275Q163 227 186 188T249 125T336 100H611V550H711V0ZM221 767L390 668L366 615L183 681L221 767Z" />
<glyph unicode="&#xfa;" glyph-name="uacute" horiz-adv-x="783" d="M711 0H336Q279 0 230 21T143 81T84 168T63 275V550H163V275Q163 227 186 188T249 125T336 100H611V550H711V0ZM590 681L407 615L383 668L552 767L590 681Z" />
<glyph unicode="&#xfb;" glyph-name="ucircumflex" horiz-adv-x="783" d="M711 0H336Q279 0 230 21T143 81T84 168T63 275V550H163V275Q163 227 186 188T249 125T336 100H611V550H711V0ZM504 615L382 679L260 615L227 665L382 768L547 665L504 615Z" />
<glyph unicode="&#xfc;" glyph-name="udieresis" horiz-adv-x="783" d="M711 0H336Q279 0 230 21T143 81T84 168T63 275V550H163V275Q163 227 186 188T249 125T336 100H611V550H711V0ZM351 662Q351 643 338 630T306 617Q287 617 274 630T260 662Q260 680 273 693T306
707Q324 707 337 694T351 662ZM514 662Q514 643 501 630T468 617Q449 617 436 630T423 662Q423 680 436 693T468 707Q487 707 500 694T514 662Z" />
<glyph unicode="&#xfd;" glyph-name="yacute" horiz-adv-x="783" d="M711 -25Q711 -73 688 -113T625 -176T536 -200H136V-100H536Q567 -100 589 -78T611 -25V0H336Q279 0 230 21T143 81T84 168T63 275V550H163V275Q163 227 186 188T249 125T336 100H611V550H711V-25ZM590
681L407 615L383 668L552 767L590 681Z" />
<glyph unicode="&#xfe;" glyph-name="thorn" horiz-adv-x="757" d="M720 275Q720 218 699 169T641 81T554 22T447 0H222V100H447Q495 101 534 124T597 187T620 275Q620 323 597 363T535 426T447 450H172V-200H72V749H172V550H447Q504 550 553 529T640 469T699
382T720 275Z" />
<glyph unicode="&#xff;" glyph-name="ydieresis" horiz-adv-x="783" d="M711 -25Q711 -73 688 -113T625 -176T536 -200H136V-100H536Q567 -100 589 -78T611 -25V0H336Q279 0 230 21T143 81T84 168T63 275V550H163V275Q163 227 186 188T249 125T336 100H611V550H711V-25ZM351
662Q351 643 338 630T306 617Q287 617 274 630T260 662Q260 680 273 693T306 707Q324 707 337 694T351 662ZM514 662Q514 643 501 630T468 617Q449 617 436 630T423 662Q423 680 436 693T468 707Q487 707 500 694T514 662Z" />
<glyph unicode="&#x2013;" glyph-name="endash" horiz-adv-x="528" d="M464 300H64V400H464V300Z" />
<glyph unicode="&#x2014;" glyph-name="emdash" horiz-adv-x="928" d="M864 300H64V400H864V300Z" />
<glyph unicode="&#x2018;" glyph-name="quoteleft" horiz-adv-x="253" d="M53 576Q54 609 64 637T84 683T95 701L159 700Q159 700 152 686T138 647Q165 643 184 622T203 573Q203 542 181 520T128 498Q97 498 75 520T53 576Z" />
<glyph unicode="&#x2019;" glyph-name="quoteright" horiz-adv-x="251" d="M199 623Q198 591 188 562T167 516T157 498L93 499Q93 499 100 513T113 551Q86 555 68 576T49 626Q49 657 71 679T124 701Q155 701 177 679T199 623Z" />
<glyph unicode="&#x201a;" glyph-name="quotesinglbase" horiz-adv-x="263" d="M206 72Q205 40 195 11T174 -35T164 -53L100 -52Q100 -52 107 -38T120 0Q93 4 75 25T56 75Q56 106 78 128T131 150Q162 150 184 128T206 72Z" />
<glyph unicode="&#x201c;" glyph-name="quotedblleft" horiz-adv-x="443" d="M243 576Q244 609 254 637T274 683T285 701L349 700Q349 700 342 686T328 647Q355 643 374 622T393 573Q393 542 371 520T318 498Q287 498 265 520T243 576ZM53 576Q54 609 64 637T84
683T95 701L159 700Q159 700 152 686T138 647Q165 643 184 622T203 573Q203 542 181 520T128 498Q97 498 75 520T53 576Z" />
<glyph unicode="&#x201d;" glyph-name="quotedblright" horiz-adv-x="441" d="M199 623Q198 591 188 562T167 516T157 498L93 499Q93 499 100 513T113 551Q86 555 68 576T49 626Q49 657 71 679T124 701Q155 701 177 679T199 623ZM389 623Q388 591 378 562T357
516T347 498L283 499Q283 499 290 513T303 551Q276 555 258 576T239 626Q239 657 261 679T314 701Q345 701 367 679T389 623Z" />
<glyph unicode="&#x201e;" glyph-name="quotedblbase" horiz-adv-x="453" d="M206 72Q205 40 195 11T174 -35T164 -53L100 -52Q100 -52 107 -38T120 0Q93 4 75 25T56 75Q56 106 78 128T131 150Q162 150 184 128T206 72ZM396 72Q395 40 385 11T364 -35T354 -53L290
-52Q290 -52 297 -38T310 0Q283 4 265 25T246 75Q246 106 268 128T321 150Q352 150 374 128T396 72Z" />
<glyph unicode="&#x2022;" glyph-name="bullet" horiz-adv-x="359" d="M278 356Q278 315 249 287T180 258Q139 258 111 286T82 356Q82 395 110 424T180 453Q220 453 249 424T278 356Z" />
<glyph unicode="&#x2039;" glyph-name="guilsinglleft" horiz-adv-x="437" d="M394 488L146 266L392 50H260L57 228Q40 242 40 265Q40 288 57 303L264 488H394Z" />
<glyph unicode="&#x203a;" glyph-name="guilsinglright" horiz-adv-x="437" d="M173 488L380 303Q397 288 397 265Q397 242 380 228L177 50H45L291 266L43 488H173Z" />
</font>
</defs>
</svg>
