<?xml version="1.0" standalone="no"?>
<!DOCTYPE svg PUBLIC "-//W3C//DTD SVG 1.1//EN" "http://www.w3.org/Graphics/SVG/1.1/DTD/svg11.dtd">
<svg xmlns="http://www.w3.org/2000/svg">
<defs >
<font id="Rowdies" horiz-adv-x="617" ><font-face
    font-family="Rowdies"
    units-per-em="1000"
    panose-1="0 0 0 0 0 0 0 0 0 0"
    ascent="997"
    descent="-245"
    alphabetic="0" />
<glyph unicode=" " glyph-name="space" horiz-adv-x="240" />
<glyph unicode="!" glyph-name="exclam" horiz-adv-x="380" d="M168 261L90 639L190 719L289 638L208 261H168ZM190 -29L80 81L190 191L300 81L190 -29Z" />
<glyph unicode="&quot;" glyph-name="quotedbl" horiz-adv-x="420" d="M100 480L30 710L110 810L190 710L120 480H100ZM300 480L230 710L310 810L390 710L320 480H300Z" />
<glyph unicode="#" glyph-name="numbersign" horiz-adv-x="952" d="M140 0V60L182 174H50V304H230L248 354L260 404H110V534H290L330 708H516V648L477 534H580L629 708H814V648L771 534H902V404H722L703 354L692 304H842V174H662L623 0H439V60L474 174H367L325
0H140ZM398 304H513L544 404H432L398 304Z" />
<glyph unicode="$" glyph-name="dollar" horiz-adv-x="710" d="M290 -60L293 -7Q242 -1 193 11T106 40T50 74L99 223Q148 197 197 181T301 156L307 266Q298 267 290 269Q164 295 107 338T50 466Q50 551 115 597T293 653L290 710H420L417 653Q508 647 553 631T618
603L578 452Q555 460 514 471T409 490L403 382Q412 380 420 379Q490 368 544 346T629 285T660 183Q660 98 598 50T417 -7L420 -60H290ZM230 455Q230 429 250 417T306 397L301 496H294Q268 496 249 486T230 455ZM474 192Q474 212 456 224T404 245L409 149Q437 150
455 159T474 192Z" />
<glyph unicode="%" glyph-name="percent" horiz-adv-x="920" d="M240 387Q174 387 132 409T70 469T50 552Q50 598 70 635T132 694T240 717Q305 717 347 695T409 635T430 552Q430 506 410 469T347 410T240 387ZM110 0V60L449 417L634 707H820V647L502 318L296 0H110ZM240
497Q264 497 275 506T290 529T294 552Q294 562 291 575T276 597T240 607Q216 607 205 598T190 575T186 552Q186 542 189 529T204 507T240 497ZM680 -10Q614 -10 572 12T510 72T490 155Q490 201 510 238T572 297T680 320Q745 320 787 298T849 238T870 155Q870 110
850 73T787 13T680 -10ZM680 100Q704 100 715 109T730 132T734 155Q734 165 731 178T716 200T680 210Q656 210 645 201T630 178T626 155Q626 145 629 132T644 110T680 100Z" />
<glyph unicode="&amp;" glyph-name="ampersand" horiz-adv-x="809" d="M268 -10Q168 -10 109 43T50 197Q50 248 67 284T110 344T163 380T212 398Q202 410 188 429T164 477T153 545Q153 575 167 607T209 666T277 708Q303 717 335 719T397 721T452 716T488 709L567
629L506 526L407 557Q378 556 361 545T343 504Q343 481 359 460T396 418L543 271L553 282L523 412L533 472L731 452V298L631 188L705 119L779 60V0H587L506 84Q493 72 465 50T388 9T268 -10ZM308 150Q343 150 371 162T406 182L301 282Q272 272 256 252T240 205Q240
178 258 164T308 150Z" />
<glyph unicode="&apos;" glyph-name="quotesingle" horiz-adv-x="220" d="M100 480L30 710L110 810L190 710L120 480H100Z" />
<glyph unicode="(" glyph-name="parenleft" horiz-adv-x="335" d="M272 -80L305 0Q288 17 267 41T225 106T192 211T179 369Q179 464 192 523T226 618T268 673T305 709L272 789Q257 789 229 779T166 744T101 671T50 550T30 369Q30 262 50 185T101 57T166 -25T228
-67T272 -80Z" />
<glyph unicode=")" glyph-name="parenright" horiz-adv-x="335" d="M63 -80L30 0Q47 17 68 41T110 106T143 211T156 369Q156 464 143 523T109 618T67 673T30 709L63 789Q78 789 106 779T169 744T234 671T285 550T305 369Q305 262 285 185T234 57T169 -25T107 -67T63 -80Z" />
<glyph unicode="*" glyph-name="asterisk" horiz-adv-x="353" d="M137 468L56 527L77 558L152 599L64 591L30 603L61 698L96 687L160 631L125 709V746H225V709L194 631L256 688L292 698L323 603L288 590L206 598L278 558L299 528L218 469L195 498L178 580L160
497L137 468Z" />
<glyph unicode="+" glyph-name="plus" horiz-adv-x="520" d="M210 90V250H50V350H210V510H310V350H470V250H310V90H210Z" />
<glyph unicode="," glyph-name="comma" horiz-adv-x="330" d="M112 -226L75 -212L130 0L50 80L155 184L280 70L112 -226Z" />
<glyph unicode="-" glyph-name="hyphen" horiz-adv-x="420" d="M50 180V300H370V180H50Z" />
<glyph unicode="." glyph-name="period" horiz-adv-x="320" d="M160 -30L50 80L160 190L270 80L160 -30Z" />
<glyph unicode="/" glyph-name="slash" horiz-adv-x="436" d="M0 -107L305 708H436L130 -107H0Z" />
<glyph unicode="0" glyph-name="zero" horiz-adv-x="676" d="M338 -10Q253 -10 186 25T79 139T40 354Q40 488 79 567T185 682T338 718Q424 718 491 682T597 567T636 354Q636 221 597 141T491 26T338 -10ZM338 164Q392 164 419 206T447 354Q447 460 420 502T338
544Q285 544 257 501T229 354Q229 250 257 207T338 164Z" />
<glyph unicode="1" glyph-name="one" horiz-adv-x="404" d="M150 0V509H30V668L334 708L344 648L334 548V0H150Z" />
<glyph unicode="2" glyph-name="two" horiz-adv-x="610" d="M40 0V139Q40 139 59 151T108 184T173 231T239 285Q284 324 314 354T359 415T374 484Q374 548 289 548Q247 548 205 538T127 513T71 489V659Q100 675 164 695T320 715Q450 715 510 661T570 496Q570 439
549 394T495 314T425 252T353 209T297 180L302 160L570 180V0H40Z" />
<glyph unicode="3" glyph-name="three" horiz-adv-x="629" d="M280 -10Q248 -10 220 -8T166 -2L40 55L90 214L290 159Q348 159 374 178T400 228Q400 255 381 266T317 277H193V438H305Q339 438 359 452T380 491Q380 523 361 535T307 548Q257 548 211 538T129 515T70
491V661Q90 671 127 684T215 707T328 717Q441 717 499 668T558 528Q558 476 537 443T490 389Q532 370 560 333T589 229Q589 -10 280 -10Z" />
<glyph unicode="4" glyph-name="four" horiz-adv-x="696" d="M372 0V100H10V232L296 708H556L576 647L556 547V262H686V110L556 100V0H372ZM224 262H372V510H354L224 262Z" />
<glyph unicode="5" glyph-name="five" horiz-adv-x="655" d="M317 -10Q279 -10 247 -8T186 -2L40 44L90 223L297 158Q350 158 379 175T409 237Q409 270 387 288T308 306H80V708H565V539L315 549H273V453H340Q479 453 542 395T605 233Q605 156 570 102T470 19T317 -10Z" />
<glyph unicode="6" glyph-name="six" horiz-adv-x="687" d="M362 -10Q265 -10 193 26T80 138T40 333Q40 444 68 518T145 636T254 699T379 718Q430 718 478 710T549 692L640 611L550 466L389 549Q323 549 279 512T234 405L382 435Q453 435 513 416T610 349T647
217Q647 114 576 52T362 -10ZM361 162Q407 162 432 178T458 223Q458 252 435 276T363 300Q320 300 290 282T249 250Q257 213 284 188T361 162Z" />
<glyph unicode="7" glyph-name="seven" horiz-adv-x="584" d="M130 0L297 444L350 549H320L30 529V708H554V587L389 160L339 0H130Z" />
<glyph unicode="8" glyph-name="eight" horiz-adv-x="676" d="M340 -10Q285 -10 232 0T136 35T66 102T40 207Q40 271 67 310T138 370Q102 396 86 434T70 521Q70 579 101 623T193 692T338 718Q466 718 536 667T606 521Q606 468 591 432T547 372Q589 351 612 312T636
207Q636 144 611 102T544 36T448 1T340 -10ZM340 426Q377 426 397 445T417 490Q417 516 397 532T340 548Q304 548 282 534T259 490Q259 462 281 444T340 426ZM340 160Q394 160 420 177T447 219Q447 249 423 268T357 296T264 303Q252 290 244 271T235 231Q235 200
260 180T340 160Z" />
<glyph unicode="9" glyph-name="nine" horiz-adv-x="687" d="M309 -10Q269 -10 240 -7T190 1L58 75L127 214L318 160Q386 160 417 197T448 292L294 262Q223 262 166 284T74 356T40 490Q40 595 117 656T336 718Q430 718 500 682T608 567T647 354Q647 227 602 147T481
28T309 -10ZM324 408Q369 408 400 411T448 418Q448 476 417 511T326 546Q274 546 252 524T229 474Q229 435 252 422T324 408Z" />
<glyph unicode=":" glyph-name="colon" horiz-adv-x="320" d="M160 270L50 380L160 490L270 380L160 270ZM160 -30L50 80L160 190L270 80L160 -30Z" />
<glyph unicode=";" glyph-name="semicolon" horiz-adv-x="330" d="M122 -226L85 -212L140 0L60 80L165 184L290 70L122 -226ZM160 270L50 380L160 490L270 380L160 270Z" />
<glyph unicode="&lt;" glyph-name="less" horiz-adv-x="440" d="M370 110V210L46 300L370 390V490L-50 360V240L370 110Z" />
<glyph unicode="=" glyph-name="equal" horiz-adv-x="520" d="M50 406V506H470V406H50ZM50 350V450H470V350H50Z" />
<glyph unicode="&gt;" glyph-name="greater" horiz-adv-x="520" d="M50 110V210L374 300L50 390V490L470 360V240L50 110Z" />
<glyph unicode="?" glyph-name="question" horiz-adv-x="534" d="M227 231L157 311L239 387Q269 416 287 443T305 502Q305 526 288 541T226 556L98 513L50 647Q78 670 131 694T261 718Q378 718 431 669T484 543Q484 473 449 419T367 331L227 231ZM227 -30L117
80L227 190L337 80L227 -30Z" />
<glyph unicode="@" glyph-name="at" horiz-adv-x="971" d="M490 -182Q354 -182 251 -129T89 25T30 268Q30 370 65 451T164 590T315 677T508 708Q612 708 692 677T828 589T912 459T941 298Q941 159 882 92T718 25Q681 25 645 44T590 117Q571 90 534 69T443 47Q401
47 367 66T313 128T293 241V266Q293 363 333 411T443 460Q493 460 516 447T549 424L559 465H661V216Q661 161 680 138T729 115Q769 115 792 154T816 288Q816 378 786 450T688 565T508 608Q402 608 323 568T199 452T155 268Q155 158 198 78T321 -46T508 -90Q561
-90 592 -84T641 -71T664 -61V-139Q640 -160 592 -171T490 -182ZM488 154Q520 154 528 183T537 256Q537 294 529 324T492 354Q444 354 444 286V232Q444 195 456 175T488 154Z" />
<glyph unicode="A" glyph-name="A" horiz-adv-x="769" d="M10 0L58 169V296L132 326L262 707H521L682 259L759 117V0H582L532 160H241L198 0H10ZM307 314H477L401 543H380L307 314Z" />
<glyph unicode="B" glyph-name="B" horiz-adv-x="769" d="M80 0V548L60 648L80 708H420Q533 708 601 666T669 530Q669 483 653 445T607 386Q675 364 707 319T739 212Q739 103 676 52T490 0H80ZM260 433H418Q452 433 467 449T482 491Q482 524 460 536T408 548H260V433ZM260
160H460Q496 160 513 169T536 192T542 221Q542 247 524 265T470 284H260V160Z" />
<glyph unicode="C" glyph-name="C" horiz-adv-x="694" d="M399 -10Q331 -10 267 5T152 61T70 172T40 354Q40 457 70 527T150 639T259 699T379 718Q430 718 478 710T549 692L660 601L570 456L399 544Q328 544 279 498T230 354Q230 285 254 242T322 179T420 159Q478
159 519 168T591 191T650 218V50Q615 28 557 9T399 -10Z" />
<glyph unicode="D" glyph-name="D" horiz-adv-x="789" d="M80 0V547L60 647L80 708H378Q450 708 516 695T635 644T718 538T749 359Q749 249 718 179T634 69T515 15T378 0H80ZM262 160H378Q466 160 513 206T560 359Q560 465 513 506T378 548H262V160Z" />
<glyph unicode="E" glyph-name="E" horiz-adv-x="688" d="M80 0L60 60L80 160V708H575L625 678L559 538L469 548H260V438H529V283H411L260 293V160H559L678 64L619 0H80Z" />
<glyph unicode="F" glyph-name="F" horiz-adv-x="631" d="M80 0V546L60 648L80 708H575L625 678L559 538L469 548H250L260 438H529V283H408L260 293V159L271 59L260 0H80Z" />
<glyph unicode="G" glyph-name="G" horiz-adv-x="771" d="M419 -10Q342 -10 274 5T153 61T70 172T40 354Q40 461 72 531T157 643T276 701T409 718Q458 718 494 713T563 700L699 621L629 466L408 544Q360 544 320 525T255 465T230 353Q230 240 280 195T419 149Q464
149 489 153T529 161V237H402V385H720L731 325L709 242V32Q698 28 660 18T560 -1T419 -10Z" />
<glyph unicode="H" glyph-name="H" horiz-adv-x="749" d="M70 0V547L60 647L70 708H250V437H499V708H679V332L689 263V0H499V264H250V204L260 0H70Z" />
<glyph unicode="I" glyph-name="I" horiz-adv-x="311" d="M70 0V548L60 648L70 708H251V0H70Z" />
<glyph unicode="J" glyph-name="J" horiz-adv-x="620" d="M241 -10Q212 -10 187 -7T140 0L10 60L70 212L255 148Q317 148 344 185T371 299V548L349 648L360 708H549L550 267Q550 133 470 62T241 -10Z" />
<glyph unicode="K" glyph-name="K" horiz-adv-x="749" d="M80 0V544L60 645L80 708H260V588L250 409H310L471 708H670V648L472 367L640 159L739 60V0H514L332 265L260 255V120L270 60L260 0H80Z" />
<glyph unicode="L" glyph-name="L" horiz-adv-x="618" d="M80 0L60 60L80 160V708H260V297L250 160H270L449 170L520 180L608 64L559 0H80Z" />
<glyph unicode="M" glyph-name="M" horiz-adv-x="919" d="M80 0V547L60 647L81 707H272L468 327H488L650 707H849L859 647L849 551V0H668L671 85V364H660L620 268L530 100H410L272 364H262V283L272 0H80Z" />
<glyph unicode="N" glyph-name="N" horiz-adv-x="750" d="M80 0V547L60 647L80 707H241L443 435L491 352H501V707H690V647L680 547V0H523L272 352H262V292L272 0H80Z" />
<glyph unicode="O" glyph-name="O" horiz-adv-x="758" d="M379 -10Q315 -10 255 5T146 61T69 172T40 354Q40 465 68 536T145 647T254 702T379 718Q443 718 503 702T612 646T689 535T718 354Q718 244 690 173T613 62T504 6T379 -10ZM379 160Q453 160 491 204T529
354Q529 460 491 504T379 548Q306 548 268 503T230 354Q230 250 268 205T379 160Z" />
<glyph unicode="P" glyph-name="P" horiz-adv-x="709" d="M80 0V547L60 648L80 708H400Q473 708 531 686T624 610T659 462Q659 368 622 314T520 236T370 213H260V161L270 61L260 0H80ZM260 370H358Q410 370 441 389T472 462Q472 499 457 517T416 542T354 548H250L260
370Z" />
<glyph unicode="Q" glyph-name="Q" horiz-adv-x="757" d="M120 0L100 126Q72 161 56 216T40 353Q40 464 68 535T145 646T254 701T379 717Q443 717 503 701T612 645T689 534T718 353Q718 267 700 210T650 118Q634 99 614 86T571 64L572 59L650 39L787 -22L697 -174Q697
-174 672 -162T608 -130T528 -91T453 -54T405 -31Q370 -14 340 -7T261 0H120ZM299 159H378Q458 159 493 208T529 353Q529 459 491 503T379 547Q306 547 268 502T230 353Q230 306 240 266T267 198T299 159Z" />
<glyph unicode="R" glyph-name="R" horiz-adv-x="718" d="M80 0V547L60 648L80 708H400Q473 708 531 686T624 610T659 462Q659 377 628 325T542 246L552 235L651 111L708 60V0H483L343 213H260V161L270 61L260 0H80ZM260 370H358Q410 370 441 389T472 462Q472
499 457 517T416 542T354 548H250L260 370Z" />
<glyph unicode="S" glyph-name="S" horiz-adv-x="658" d="M310 -10Q255 -10 206 0T121 26T68 54V233Q116 206 189 183T351 159Q387 159 404 168T422 202Q422 228 383 245T258 289Q192 310 146 335T75 399T50 498Q50 560 82 610T182 689T356 718Q388 718 424 716T483
709L596 626L557 504L320 569Q279 569 260 552T240 511Q240 482 273 465T368 431Q466 404 520 371T596 297T618 203Q618 107 541 49T310 -10Z" />
<glyph unicode="T" glyph-name="T" horiz-adv-x="625" d="M220 0V548L20 538V708H605V538L400 548V160L411 60L400 0H220Z" />
<glyph unicode="U" glyph-name="U" horiz-adv-x="738" d="M369 -10Q215 -10 138 60T60 287V547L61 648L60 708H242V307Q242 237 270 194T369 150Q440 150 469 190T499 307V708H678V287Q678 134 603 62T369 -10Z" />
<glyph unicode="V" glyph-name="V" horiz-adv-x="718" d="M230 0L50 549L20 648V708H210L351 182H371L510 708H698V648L668 549L489 0H230Z" />
<glyph unicode="W" glyph-name="W" horiz-adv-x="1159" d="M210 0L50 549L20 648V708H210L335 192H355L450 708H713L791 319L807 192H827L951 708H1139V648L1109 549L951 0H692L589 522H568L551 401L469 0H210Z" />
<glyph unicode="X" glyph-name="X" horiz-adv-x="739" d="M20 0L201 359L30 648V708H240L360 442H380L499 708H719L536 356L709 60V0H503L380 254H360L232 0H20Z" />
<glyph unicode="Y" glyph-name="Y" horiz-adv-x="719" d="M268 0V300L20 648V708H230L350 482H370L489 708H699V648L444 294L450 193V0H268Z" />
<glyph unicode="Z" glyph-name="Z" horiz-adv-x="658" d="M51 0L20 60L382 549H51V708H626V590L315 159H346L628 179V0H51Z" />
<glyph unicode="[" glyph-name="bracketleft" horiz-adv-x="280" d="M250 -140V-40H169V709H250V809H30V-140H250Z" />
<glyph unicode="\" glyph-name="backslash" horiz-adv-x="436" d="M436 -107L131 708H0L306 -107H436Z" />
<glyph unicode="]" glyph-name="bracketright" horiz-adv-x="280" d="M30 -140V-40H111V709H30V809H250V-140H30Z" />
<glyph unicode="^" glyph-name="asciicircum" horiz-adv-x="422" d="M50 470L163 710H264L372 470H291L214 618L130 470H50Z" />
<glyph unicode="_" glyph-name="underscore" horiz-adv-x="570" d="M10 -160V-60H560V-160H10Z" />
<glyph unicode="`" glyph-name="grave" horiz-adv-x="249" d="M168 510L30 641V702H153L219 510H168Z" />
<glyph unicode="a" glyph-name="a" horiz-adv-x="591" d="M190 -10Q147 -10 111 2T52 46T30 132Q30 182 55 215T123 264T220 280Q272 280 298 269T343 245L350 251Q350 281 345 301T322 331T266 342Q229 342 188 336T112 320T60 301V451Q91 462 148 471T290 481Q380
481 432 459T508 394T531 292V159L551 58L531 -1H360V48L350 53Q342 45 322 30T269 3T190 -10ZM275 121Q302 121 321 126T350 135V154Q350 167 332 179T274 191Q220 191 220 153Q220 137 232 129T275 121Z" />
<glyph unicode="b" glyph-name="b" horiz-adv-x="587" d="M372 -10Q324 -10 296 -2T254 15T241 24V-1H61V547L40 647L61 707H241V546L231 433L241 428Q261 447 290 464T372 482Q461 482 511 425T562 245Q562 153 537 97T468 15T372 -10ZM287 127Q326 127 349 154T372
237Q372 291 353 315T297 340L241 319V140Q241 140 251 134T287 127Z" />
<glyph unicode="c" glyph-name="c" horiz-adv-x="535" d="M270 -10Q201 -10 146 13T58 90T25 236Q25 329 60 382T151 459T270 482Q325 482 364 478T417 471L495 383L415 274L300 342Q214 342 214 236Q214 181 240 156T320 130Q374 130 417 145T484 173V29Q453
13 403 2T270 -10Z" />
<glyph unicode="d" glyph-name="d" horiz-adv-x="586" d="M215 -10Q168 -10 125 14T53 90T25 226Q25 319 52 375T124 456T215 482Q286 482 315 470T345 458L335 647L345 707H526V160L546 60L526 -1H355V48L345 53Q345 53 330 38T286 6T215 -10ZM290 131L345 145V291Q345
314 330 327T290 341Q253 341 234 317T215 236Q215 181 237 156T290 131Z" />
<glyph unicode="e" glyph-name="e" horiz-adv-x="558" d="M290 -10Q213 -10 153 13T59 90T25 236Q25 302 47 349T108 425T193 468T290 482Q376 482 422 465T484 438L534 279L514 217H204Q211 180 241 155T340 130Q394 130 433 142T494 163V29Q464 13 408 2T290
-10ZM205 281L343 301L334 344Q327 348 314 350T290 352Q262 352 244 340T216 312T205 281Z" />
<glyph unicode="f" glyph-name="f" horiz-adv-x="450" d="M73 0V324L20 424L73 472Q68 489 66 517T63 564Q63 621 89 664T163 731T269 756Q297 756 328 754T383 745L490 684L413 545L298 615Q264 615 248 591T232 536Q232 514 239 497T253 472H413V352H253V162L263
61L253 0H73Z" />
<glyph unicode="g" glyph-name="g" horiz-adv-x="576" d="M256 -243Q231 -243 199 -242T147 -238L25 -179L75 -49L232 -100Q365 -100 365 11V30L355 35Q341 21 311 7T215 -8Q168 -8 124 15T53 91T25 226Q25 319 53 375T124 458T215 484Q267 484 300 469T345 440V473H526L536
413L525 353L526 1Q526 -85 493 -139T399 -218T256 -243ZM290 133Q308 133 323 138T345 147V334Q341 337 330 340T300 343Q261 343 238 318T215 237Q215 182 237 158T290 133Z" />
<glyph unicode="h" glyph-name="h" horiz-adv-x="607" d="M60 0V548L40 648L60 708H240V546L230 435L240 430Q252 448 284 465T370 483Q460 483 505 432T550 289V159L571 61L550 0H370V263Q370 301 354 321T302 342L240 313V0H60Z" />
<glyph unicode="i" glyph-name="i" horiz-adv-x="292" d="M150 501L23 629L150 756L277 629L150 501ZM60 0V331L39 411L59 472H240V0H60Z" />
<glyph unicode="j" glyph-name="j" horiz-adv-x="387" d="M230 502L103 630L230 757L357 630L230 502ZM99 -243Q81 -243 59 -241T18 -234L-30 -185L20 -66L108 -100Q131 -100 139 -86T146 -48T141 1V333L120 423L140 473H320V-42Q320 -147 263 -195T99 -243Z" />
<glyph unicode="k" glyph-name="k" horiz-adv-x="618" d="M61 0V548L40 648L61 708H241V548L230 289H270L347 472H551V412L440 250L514 160L608 59V0H414L301 165L241 155V0H61Z" />
<glyph unicode="l" glyph-name="l" horiz-adv-x="301" d="M61 0L60 548L40 648L61 708H241V0H61Z" />
<glyph unicode="m" glyph-name="m" horiz-adv-x="916" d="M40 411L71 472H220V429L229 423Q240 433 259 446T307 471T370 482Q474 482 519 413Q537 438 573 460T675 483Q765 483 810 432T855 289V161L876 61L855 0H675V263Q675 301 659 321T607 342Q584 342 567
325T550 282V0H370V262Q370 300 354 320T302 341L240 322V0H60V301L40 411Z" />
<glyph unicode="n" glyph-name="n" horiz-adv-x="607" d="M60 0V301L40 411L71 472H220V429L229 423Q240 433 259 446T307 471T370 482Q460 482 505 431T550 288V161L571 61L550 0H370V262Q370 300 354 320T302 341L240 322V0H60Z" />
<glyph unicode="o" glyph-name="o" horiz-adv-x="560" d="M281 -10Q159 -10 92 48T25 236Q25 367 92 424T281 482Q406 482 470 425T535 236Q535 106 471 48T281 -10ZM281 120Q322 120 338 150T354 236Q354 292 338 322T281 352Q239 352 223 322T206 236Q206 181
222 151T281 120Z" />
<glyph unicode="p" glyph-name="p" horiz-adv-x="586" d="M60 -243V302L40 412L71 473H220V430L230 425Q230 425 248 440T297 469T371 484Q460 484 510 427T561 247Q561 155 536 99T467 17T371 -8Q299 -8 270 3T240 15V-243H60ZM286 129Q324 129 347 156T371 238Q371
292 352 317T296 342L240 321V142Q240 142 250 136T286 129Z" />
<glyph unicode="q" glyph-name="q" horiz-adv-x="586" d="M335 -245L345 -32L355 38L345 43Q345 43 330 30T286 4T215 -10Q168 -10 125 14T53 90T25 226Q25 319 53 375T124 456T215 482Q263 482 291 471T332 449T345 438V473H526V-95L546 -187L526 -245H335ZM290
131L345 145V291Q345 314 330 327T290 341Q253 341 234 316T215 235Q215 180 237 156T290 131Z" />
<glyph unicode="r" glyph-name="r" horiz-adv-x="466" d="M61 0V313L40 413L61 473H197L217 450Q217 450 231 458T270 475T330 483Q350 483 370 480T401 472L466 417L401 289L269 344L239 334V0H61Z" />
<glyph unicode="s" glyph-name="s" horiz-adv-x="500" d="M255 -10Q182 -10 126 5T39 36V175Q80 157 123 147T202 134T252 130Q269 130 276 135T283 149Q283 160 265 167T197 187Q156 197 118 212T55 256T30 331Q30 389 57 422T134 468T251 482Q289 482 322 478T369
472L462 412L417 305L242 343Q210 343 210 322Q210 300 256 289Q292 281 330 272T399 247T450 207T470 141Q470 65 416 28T255 -10Z" />
<glyph unicode="t" glyph-name="t" horiz-adv-x="432" d="M233 -10Q165 -10 124 30T83 131V349H10V444L73 493L144 617H262V472H402V342H262V128L402 129V20Q402 20 379 13T317 -2T233 -10Z" />
<glyph unicode="u" glyph-name="u" horiz-adv-x="587" d="M190 -10Q130 -10 98 13T53 79T40 184V473H220V210Q220 173 234 152T278 131Q305 131 327 154T350 221V473H530V161L551 61L530 0H361V49L351 54Q338 41 314 26T258 1T190 -10Z" />
<glyph unicode="v" glyph-name="v" horiz-adv-x="530" d="M156 0L30 342L10 472H200L255 160H275L331 472H520L500 342L366 0H156Z" />
<glyph unicode="w" glyph-name="w" horiz-adv-x="920" d="M167 0L30 342L10 472H200L265 160H285L361 472H560L635 160H655L721 472H910L890 342L752 0H542L470 322H450L377 0H167Z" />
<glyph unicode="x" glyph-name="x" horiz-adv-x="530" d="M10 0L82 159L131 238L20 411V472H200L255 296H275L330 472H520L449 313L401 238L509 60V0H330L275 156H255L200 0H10Z" />
<glyph unicode="y" glyph-name="y" horiz-adv-x="520" d="M101 -243L-40 -193L0 -44L140 -84Q183 -84 202 -62T232 1H129L19 343L0 473H190L245 143H265L320 473H510Q510 473 504 442T486 358T459 244T426 118T391 1Q364 -82 327 -136T235 -216T101 -243Z" />
<glyph unicode="z" glyph-name="z" horiz-adv-x="528" d="M20 0V90L258 343H21V473H490V379L332 187L272 130H302L508 150V0H20Z" />
<glyph unicode="{" glyph-name="braceleft" horiz-adv-x="351" d="M321 -140V-40H281Q263 -40 252 -27T241 30V229Q241 274 228 297T201 329T188 338V340Q188 340 201 349T227 385T241 459V639Q241 684 252 696T281 709H321V809H242Q179 809 141 777T102 678V472Q102
434 91 415T62 389T30 382V291Q45 291 62 286T90 264T102 211V-10Q102 -75 140 -107T242 -140H321Z" />
<glyph unicode="|" glyph-name="bar" horiz-adv-x="290" d="M80 -120V708H210V-120H80Z" />
<glyph unicode="}" glyph-name="braceright" horiz-adv-x="351" d="M30 -140V-40H70Q88 -40 99 -27T110 30V229Q110 274 123 297T150 329T163 338V340Q163 340 150 349T124 385T110 459V639Q110 684 99 696T70 709H30V809H109Q172 809 210 777T249 678V472Q249
434 260 415T289 389T321 382V291Q306 291 289 286T261 264T249 211V-10Q249 -75 211 -107T109 -140H30Z" />
<glyph unicode="~" glyph-name="asciitilde" horiz-adv-x="421" d="M288 210Q255 210 232 220T191 245T156 269T118 280L99 220H28Q28 282 53 326T128 370Q159 370 182 360T223 335T260 311T299 300L318 360H389Q389 292 365 251T288 210Z" />
<glyph unicode="&#xa0;" glyph-name="uni00A0" horiz-adv-x="240" />
<glyph unicode="&#xa1;" glyph-name="exclamdown" horiz-adv-x="320" d="M160 370L50 480L160 590L270 480L160 370ZM159 -141L60 -60L141 317H181L259 -61L159 -141Z" />
<glyph unicode="&#xa2;" glyph-name="cent" horiz-adv-x="535" d="M259 -10Q193 -10 140 13T56 90T25 236Q25 329 56 382T140 459T259 482Q270 482 280 482V530H370V475Q417 468 446 457T495 433L455 304Q444 310 421 318T370 333V135Q409 141 441 150T484 163V29Q474
20 444 12T370 -3V-60H280V-10Q270 -10 259 -10ZM194 236Q194 187 212 162T280 131V341Q232 337 213 310T194 236Z" />
<glyph unicode="&#xa3;" glyph-name="sterling" horiz-adv-x="768" d="M90 0L80 60L130 160V322L40 318V408L130 404V440H132Q141 576 211 647T395 718Q446 718 489 710T555 692L636 621L546 486L395 554Q310 554 310 444V401L458 408L459 318L310 325V160H569L640
184L728 64L679 0H90Z" />
<glyph unicode="&#xa4;" glyph-name="currency" horiz-adv-x="569" d="M119 120L50 188L107 235Q68 280 68 352Q68 425 107 471L50 519L119 588L177 519Q222 537 284 537Q346 537 392 519L450 588L519 519L462 471Q501 425 501 352Q501 280 462 236L519 188L450
120L392 189Q347 172 284 172Q222 172 177 189L119 120ZM284 275Q323 275 341 291T359 353Q359 400 341 417T284 435Q246 435 228 417T209 352Q209 309 227 292T284 275Z" />
<glyph unicode="&#xa5;" glyph-name="yen" horiz-adv-x="759" d="M61 248V338L265 332L229 383L61 378V468L171 465L40 648V708H250L370 482H390L509 708H719V648L587 464L700 468L701 378L528 383L491 331L700 338L701 248L466 255L470 193V0H288V255L61 248Z" />
<glyph unicode="&#xa6;" glyph-name="brokenbar" horiz-adv-x="290" d="M80 378V708H210V378H80ZM80 -80V250H210V-80H80Z" />
<glyph unicode="&#xa7;" glyph-name="section" horiz-adv-x="524" d="M246 -95Q160 -95 112 -83T63 -71L94 56Q121 43 168 32T258 21Q284 21 297 30T310 56Q310 75 280 99T193 159Q117 206 84 247T50 345Q50 380 64 403T99 438T136 454V457Q99 476 81 507T62 571Q62
638 113 678T258 718Q286 718 310 716T355 710L459 662L417 553L258 601Q229 601 216 594T203 573Q203 560 212 549T245 523T308 484Q369 447 405 415T458 346T474 260Q474 220 458 189T421 143Q433 123 443 105T453 47Q453 -23 400 -59T246 -95ZM337 209Q340 218
342 228T344 249Q344 275 333 305T295 354Q272 373 248 376T207 371T191 343Q191 318 205 297T260 249Q289 230 305 224T337 209Z" />
<glyph unicode="&#xa8;" glyph-name="dieresis" horiz-adv-x="530" d="M140 495L30 605L140 715L250 605L140 495ZM390 495L280 605L390 715L500 605L390 495Z" />
<glyph unicode="&#xa9;" glyph-name="copyright" horiz-adv-x="836" d="M418 -10Q302 -10 220 38T94 168T50 353Q50 429 75 495T147 612T262 690T418 719Q505 719 573 691T689 612T761 496T786 353Q786 251 743 169T617 38T418 -10ZM418 72Q507 72 568 108T661
208T693 353Q693 434 661 498T568 599T418 637Q331 637 270 600T176 498T143 353Q143 272 175 209T269 109T418 72ZM417 196Q371 196 334 211T276 263T254 360Q254 422 277 458T337 509T417 524Q454 524 480 522T515 517L567 458L514 386L437 431Q380 431 380 360Q380
323 397 307T451 290Q487 290 515 299T560 318V222Q539 212 506 204T417 196Z" />
<glyph unicode="&#xaa;" glyph-name="ordfeminine" horiz-adv-x="331" d="M110 475Q78 475 54 490T30 546Q30 584 57 602T125 620Q151 620 164 615T187 603L190 606Q190 629 184 640T148 651Q120 651 89 645T45 631V706Q61 711 89 716T160 721Q228 721 254 696T281
626V560L291 509L281 480H195V504L190 507Q184 501 165 488T110 475ZM153 541Q167 541 176 543T190 548V557Q190 564 181 570T152 576Q125 576 125 557Q125 549 131 545T153 541Z" />
<glyph unicode="&#xab;" glyph-name="guillemotleft" horiz-adv-x="560" d="M310 130L180 300L310 470H170L40 300L170 130H310ZM520 130L390 300L520 470H380L250 300L380 130H520Z" />
<glyph unicode="&#xac;" glyph-name="logicalnot" horiz-adv-x="606" d="M455 180V260H50V380H556V180H455Z" />
<glyph unicode="&#xad;" glyph-name="uni00AD" horiz-adv-x="376" d="M50 180V300H370V180H50Z" />
<glyph unicode="&#xae;" glyph-name="registered" horiz-adv-x="387" d="M194 401Q117 401 74 447T30 562Q30 607 49 644T105 703T194 725Q245 725 282 703T338 644T357 562Q357 494 314 448T194 401ZM194 437Q253 437 284 472T316 562Q316 616 285 652T194 688Q136
688 104 652T72 562Q72 508 104 473T194 437ZM133 486V605L129 627L133 640H203Q227 640 243 629T259 587Q259 552 234 539L236 537L258 510L270 499V486H221L191 532H173V521L175 499L173 486H133ZM173 567H194Q205 567 212 571T219 587Q219 599 212 602T193 605H170L173
567Z" />
<glyph unicode="&#xaf;" glyph-name="overscore" horiz-adv-x="400" d="M30 560V640H370V560H30Z" />
<glyph unicode="&#xb0;" glyph-name="degree" horiz-adv-x="340" d="M170 450Q132 450 100 469T49 520T30 590Q30 629 49 660T100 711T170 730Q209 730 240 711T291 661T310 590Q310 552 291 520T241 469T170 450ZM170 520Q199 520 219 541T240 590Q240 619 220
639T170 660Q142 660 121 640T100 590Q100 562 121 541T170 520Z" />
<glyph unicode="&#xb1;" glyph-name="plusminus" horiz-adv-x="520" d="M50 0V100H470V0H50ZM210 90V250H50V350H210V510H310V350H470V250H310V90H210Z" />
<glyph unicode="&#xb2;" glyph-name="uni00B2" horiz-adv-x="345" d="M40 445V505Q40 505 56 518T96 550T140 588Q173 617 190 637T207 687Q207 719 165 719Q134 719 103 709T56 690V775Q70 783 102 793T180 803Q245 803 275 776T305 693Q305 658 290 632T251
586T206 554T169 535L171 525L305 535V445H40Z" />
<glyph unicode="&#xb3;" glyph-name="uni00B3" horiz-adv-x="355" d="M160 440Q129 440 103 444L40 473L65 552L165 525Q194 525 207 534T220 559Q220 573 211 578T179 584H117V664H173Q189 664 199 671T210 691Q210 719 174 719Q136 719 104 709T55 691V776Q70
783 104 793T184 804Q241 804 270 779T299 709Q299 683 288 666T265 640Q286 630 300 612T315 560Q315 440 160 440Z" />
<glyph unicode="&#xb4;" glyph-name="acute" horiz-adv-x="248" d="M30 510L96 702H218V641L80 510H30Z" />
<glyph unicode="&#xb5;" glyph-name="uni00B5" horiz-adv-x="590" d="M200 -4Q155 -4 125 10Q143 -30 155 -63T168 -130Q168 -190 108 -190Q81 -190 66 -171T50 -119V479H230V216Q230 179 244 158T288 137Q315 137 337 160T360 227V479H540V167L561 67L540 6H371V55L361
60Q348 47 324 32T268 7T200 -4Z" />
<glyph unicode="&#xb6;" glyph-name="paragraph" horiz-adv-x="605" d="M166 -80V429Q115 429 83 467T50 562V570Q50 644 88 675T206 707H555V-80H405V587H316V-80H166Z" />
<glyph unicode="&#xb7;" glyph-name="middot" horiz-adv-x="320" d="M160 220L50 330L160 440L270 330L160 220Z" />
<glyph unicode="&#xb8;" glyph-name="cedilla" horiz-adv-x="270" d="M124 -220Q75 -220 48 -208T20 -195V-115Q20 -115 46 -127T116 -140Q127 -140 141 -136T155 -118L80 -70L110 0H189L179 -42L252 -97Q252 -139 234 -166T187 -206T124 -220Z" />
<glyph unicode="&#xb9;" glyph-name="uni00B9" horiz-adv-x="202" d="M90 445V700H30V779L182 799L187 769L182 719V445H90Z" />
<glyph unicode="&#xba;" glyph-name="ordmasculine" horiz-adv-x="305" d="M153 475Q92 475 59 504T25 598Q25 663 58 692T153 721Q216 721 248 692T280 598Q280 533 248 504T153 475ZM153 540Q173 540 181 555T190 598Q190 626 182 641T153 656Q132 656 124 641T116
598Q116 570 124 555T153 540Z" />
<glyph unicode="&#xbb;" glyph-name="guillemotright" horiz-adv-x="560" d="M40 130L170 300L40 470H180L310 300L180 130H40ZM250 130L380 300L250 470H390L520 300L390 130H250Z" />
<glyph unicode="&#xbc;" glyph-name="onequarter" horiz-adv-x="858" d="M90 285V540H30V619L182 639L187 609L182 559V285H90ZM62 -80L546 708H640L156 -80H62ZM691 0V50H510V116L653 354H783L793 324L783 274V131H848V55L783 50V0H691ZM617 131H691V255H682L617 131Z" />
<glyph unicode="&#xbd;" glyph-name="onehalf" horiz-adv-x="805" d="M90 285V540H30V619L182 639L187 609L182 559V285H90ZM62 -80L546 708H640L156 -80H62ZM520 0V60Q520 60 536 73T575 105T620 143Q653 172 670 192T687 242Q687 274 645 274Q613 274 582 263T536
245V330Q550 337 582 347T660 358Q725 358 755 331T785 248Q785 213 770 186T731 140T685 109T649 90L651 80L785 90V0H520Z" />
<glyph unicode="&#xbe;" glyph-name="threequarters" horiz-adv-x="971" d="M140 285Q124 285 110 286T83 289L20 318L45 397L145 370Q174 370 187 379T200 404Q200 418 191 423T159 429H97V509H153Q170 509 180 516T190 536Q190 552 181 558T154 564Q129 564
106 559T65 548T35 536V621Q45 626 63 632T108 644T164 649Q221 649 250 624T279 554Q279 528 269 512T245 485Q266 475 280 457T295 405Q295 285 140 285ZM175 -80L659 708H753L269 -80H175ZM804 0V50H623V116L766 354H896L906 324L896 274V131H961V55L896 50V0H804ZM730
131H804V255H795L730 131Z" />
<glyph unicode="&#xbf;" glyph-name="questiondown" horiz-adv-x="526" d="M289 412L179 522L289 632L399 522L289 412ZM243 -130Q143 -130 97 -85T50 26Q50 76 72 129T145 234Q168 257 197 282T253 330T290 362L369 268Q369 268 354 254T321 223T293 196Q255
156 234 130T212 72Q212 53 226 42T268 30Q322 30 361 46T416 73L476 -50Q460 -66 432 -84T358 -116T243 -130Z" />
<glyph unicode="&#xc0;" glyph-name="Agrave" horiz-adv-x="769" d="M10 0L58 169V296L132 326L262 707H521L682 259L759 117V0H582L532 160H241L198 0H10ZM307 314H477L401 543H380L307 314ZM392 752L254 883V944H377L443 752H392Z" />
<glyph unicode="&#xc1;" glyph-name="Aacute" horiz-adv-x="769" d="M10 0L58 169V296L132 326L262 707H521L682 259L759 117V0H582L532 160H241L198 0H10ZM307 314H477L401 543H380L307 314ZM328 759L394 951H516V890L378 759H328Z" />
<glyph unicode="&#xc2;" glyph-name="Acircumflex" horiz-adv-x="769" d="M10 0L58 169V296L132 326L262 707H521L682 259L759 117V0H582L532 160H241L198 0H10ZM307 314H477L401 543H380L307 314ZM227 782L336 922H437L545 782H464L387 840L307 782H227Z" />
<glyph unicode="&#xc3;" glyph-name="Atilde" horiz-adv-x="769" d="M10 0L58 169V296L132 326L262 707H521L682 259L759 117V0H582L532 160H241L198 0H10ZM307 314H477L401 543H380L307 314ZM470 762Q437 762 414 772T373 797T338 821T300 832L281 772H210Q210
834 235 878T310 922Q341 922 364 912T405 887T442 863T481 852L500 912H571Q571 844 547 803T470 762Z" />
<glyph unicode="&#xc4;" glyph-name="Adieresis" horiz-adv-x="769" d="M10 0L58 169V296L132 326L262 707H521L682 259L759 117V0H582L532 160H241L198 0H10ZM307 314H477L401 543H380L307 314ZM269 749L159 859L269 969L379 859L269 749ZM519 749L409 859L519
969L629 859L519 749Z" />
<glyph unicode="&#xc5;" glyph-name="Aring" horiz-adv-x="769" d="M10 0L58 169V296L132 326L262 707H521L682 259L759 117V0H582L532 160H241L198 0H10ZM307 314H477L401 543H380L307 314ZM392 762Q347 762 315 794T283 871Q283 916 315 948T392 980Q437 980
469 948T501 871Q501 826 469 794T392 762ZM392 838Q406 838 415 848T425 871Q425 885 416 894T392 904Q379 904 369 895T359 871Q359 858 369 848T392 838Z" />
<glyph unicode="&#xc6;" glyph-name="AE" horiz-adv-x="1088" d="M10 0L58 169V296L122 336L221 727L330 707H480V708H975L1025 678L959 538L869 548H660V438H929V283H811L660 293V160H959L1078 64L1019 0H480L460 60L480 160H241L198 0H10ZM307 324L480 307V547H364L307
324Z" />
<glyph unicode="&#xc7;" glyph-name="Ccedilla" horiz-adv-x="694" d="M399 -10Q331 -10 267 5T152 61T70 172T40 354Q40 457 70 527T150 639T259 699T379 718Q430 718 478 710T549 692L660 601L570 456L399 544Q328 544 279 498T230 354Q230 285 254 242T322
179T420 159Q478 159 519 168T591 191T650 218V50Q615 28 557 9T399 -10ZM364 -220Q315 -220 288 -208T260 -195V-115Q260 -115 286 -127T356 -140Q367 -140 381 -136T395 -118L320 -70L350 0H429L419 -42L492 -97Q492 -139 474 -166T427 -206T364 -220Z" />
<glyph unicode="&#xc8;" glyph-name="Egrave" horiz-adv-x="688" d="M80 0L60 60L80 160V708H575L625 678L559 538L469 548H260V438H529V283H411L260 293V160H559L678 64L619 0H80ZM344 752L206 883V944H329L395 752H344Z" />
<glyph unicode="&#xc9;" glyph-name="Eacute" horiz-adv-x="688" d="M80 0L60 60L80 160V708H575L625 678L559 538L469 548H260V438H529V283H411L260 293V160H559L678 64L619 0H80ZM280 759L346 951H468V890L330 759H280Z" />
<glyph unicode="&#xca;" glyph-name="Ecircumflex" horiz-adv-x="688" d="M80 0L60 60L80 160V708H575L625 678L559 538L469 548H260V438H529V283H411L260 293V160H559L678 64L619 0H80ZM179 782L288 922H389L497 782H416L339 840L259 782H179Z" />
<glyph unicode="&#xcb;" glyph-name="Edieresis" horiz-adv-x="688" d="M80 0L60 60L80 160V708H575L625 678L559 538L469 548H260V438H529V283H411L260 293V160H559L678 64L619 0H80ZM221 749L111 859L221 969L331 859L221 749ZM471 749L361 859L471 969L581
859L471 749Z" />
<glyph unicode="&#xcc;" glyph-name="Igrave" horiz-adv-x="311" d="M70 0V548L60 648L70 708H251V0H70ZM147 752L9 883V944H132L198 752H147Z" />
<glyph unicode="&#xcd;" glyph-name="Iacute" horiz-adv-x="311" d="M70 0V548L60 648L70 708H251V0H70ZM83 759L149 951H271V890L133 759H83Z" />
<glyph unicode="&#xce;" glyph-name="Icircumflex" horiz-adv-x="311" d="M70 0V548L60 648L70 708H251V0H70ZM-18 782L91 922H192L300 782H219L142 840L62 782H-18Z" />
<glyph unicode="&#xcf;" glyph-name="Idieresis" horiz-adv-x="311" d="M70 0V548L60 648L70 708H251V0H70ZM24 749L-86 859L24 969L134 859L24 749ZM274 749L164 859L274 969L384 859L274 749Z" />
<glyph unicode="&#xd0;" glyph-name="Eth" horiz-adv-x="789" d="M80 0V547L60 647L80 708H378Q450 708 516 695T635 644T718 538T749 359Q749 249 718 179T634 69T515 15T378 0H80ZM262 160H378Q466 160 513 206T560 359Q560 465 513 506T378 548H262V160ZM6
320V400H396V320H6Z" />
<glyph unicode="&#xd1;" glyph-name="Ntilde" horiz-adv-x="750" d="M80 0V547L60 647L80 707H241L443 435L491 352H501V707H690V647L680 547V0H523L272 352H262V292L272 0H80ZM463 762Q430 762 407 772T366 797T331 821T293 832L274 772H203Q203 834 228 878T303
922Q334 922 357 912T398 887T435 863T474 852L493 912H564Q564 844 540 803T463 762Z" />
<glyph unicode="&#xd2;" glyph-name="Ograve" horiz-adv-x="758" d="M379 -10Q315 -10 255 5T146 61T69 172T40 354Q40 465 68 536T145 647T254 702T379 718Q443 718 503 702T612 646T689 535T718 354Q718 244 690 173T613 62T504 6T379 -10ZM379 160Q453 160
491 204T529 354Q529 460 491 504T379 548Q306 548 268 503T230 354Q230 250 268 205T379 160ZM379 752L241 883V944H364L430 752H379Z" />
<glyph unicode="&#xd3;" glyph-name="Oacute" horiz-adv-x="758" d="M379 -10Q315 -10 255 5T146 61T69 172T40 354Q40 465 68 536T145 647T254 702T379 718Q443 718 503 702T612 646T689 535T718 354Q718 244 690 173T613 62T504 6T379 -10ZM379 160Q453 160
491 204T529 354Q529 460 491 504T379 548Q306 548 268 503T230 354Q230 250 268 205T379 160ZM315 759L381 951H503V890L365 759H315Z" />
<glyph unicode="&#xd4;" glyph-name="Ocircumflex" horiz-adv-x="758" d="M379 -10Q315 -10 255 5T146 61T69 172T40 354Q40 465 68 536T145 647T254 702T379 718Q443 718 503 702T612 646T689 535T718 354Q718 244 690 173T613 62T504 6T379 -10ZM379 160Q453
160 491 204T529 354Q529 460 491 504T379 548Q306 548 268 503T230 354Q230 250 268 205T379 160ZM214 782L323 922H424L532 782H451L374 840L294 782H214Z" />
<glyph unicode="&#xd5;" glyph-name="Otilde" horiz-adv-x="758" d="M379 -10Q315 -10 255 5T146 61T69 172T40 354Q40 465 68 536T145 647T254 702T379 718Q443 718 503 702T612 646T689 535T718 354Q718 244 690 173T613 62T504 6T379 -10ZM379 160Q453 160
491 204T529 354Q529 460 491 504T379 548Q306 548 268 503T230 354Q230 250 268 205T379 160ZM457 762Q424 762 401 772T360 797T325 821T287 832L268 772H197Q197 834 222 878T297 922Q328 922 351 912T392 887T429 863T468 852L487 912H558Q558 844 534 803T457
762Z" />
<glyph unicode="&#xd6;" glyph-name="Odieresis" horiz-adv-x="758" d="M379 -10Q315 -10 255 5T146 61T69 172T40 354Q40 465 68 536T145 647T254 702T379 718Q443 718 503 702T612 646T689 535T718 354Q718 244 690 173T613 62T504 6T379 -10ZM379 160Q453 160
491 204T529 354Q529 460 491 504T379 548Q306 548 268 503T230 354Q230 250 268 205T379 160ZM256 749L146 859L256 969L366 859L256 749ZM506 749L396 859L506 969L616 859L506 749Z" />
<glyph unicode="&#xd7;" glyph-name="multiply" horiz-adv-x="498" d="M377 90L249 219L121 91L50 161L178 289L51 417L121 487L249 360L377 488L447 417L319 289L448 161L377 90Z" />
<glyph unicode="&#xd8;" glyph-name="Oslash" horiz-adv-x="758" d="M379 -10Q315 -10 255 5T146 61T69 172T40 354Q40 465 68 536T145 647T254 702T379 718Q443 718 503 702T612 646T689 535T718 354Q718 244 690 173T613 62T504 6T379 -10ZM379 160Q453 160
491 204T529 354Q529 460 491 504T379 548Q306 548 268 503T230 354Q230 250 268 205T379 160ZM99 -30L583 758H676L192 -30H99Z" />
<glyph unicode="&#xd9;" glyph-name="Ugrave" horiz-adv-x="738" d="M369 -10Q215 -10 138 60T60 287V547L61 648L60 708H242V307Q242 237 270 194T369 150Q440 150 469 190T499 307V708H678V287Q678 134 603 62T369 -10ZM368 752L230 883V944H353L419 752H368Z" />
<glyph unicode="&#xda;" glyph-name="Uacute" horiz-adv-x="738" d="M369 -10Q215 -10 138 60T60 287V547L61 648L60 708H242V307Q242 237 270 194T369 150Q440 150 469 190T499 307V708H678V287Q678 134 603 62T369 -10ZM304 759L370 951H492V890L354 759H304Z" />
<glyph unicode="&#xdb;" glyph-name="Ucircumflex" horiz-adv-x="738" d="M369 -10Q215 -10 138 60T60 287V547L61 648L60 708H242V307Q242 237 270 194T369 150Q440 150 469 190T499 307V708H678V287Q678 134 603 62T369 -10ZM203 782L312 922H413L521 782H440L363
840L283 782H203Z" />
<glyph unicode="&#xdc;" glyph-name="Udieresis" horiz-adv-x="738" d="M369 -10Q215 -10 138 60T60 287V547L61 648L60 708H242V307Q242 237 270 194T369 150Q440 150 469 190T499 307V708H678V287Q678 134 603 62T369 -10ZM245 749L135 859L245 969L355 859L245
749ZM495 749L385 859L495 969L605 859L495 749Z" />
<glyph unicode="&#xdd;" glyph-name="Yacute" horiz-adv-x="719" d="M268 0V300L20 648V708H230L350 482H370L489 708H699V648L444 294L450 193V0H268ZM297 749L363 941H485V880L347 749H297Z" />
<glyph unicode="&#xde;" glyph-name="Thorn" horiz-adv-x="659" d="M60 0V708H240V608H350Q423 608 481 586T574 510T609 362Q609 268 572 214T470 136T320 113H240V0H60ZM240 270H308Q360 270 391 289T422 362Q422 399 407 417T366 442T304 448H240V270Z" />
<glyph unicode="&#xdf;" glyph-name="germandbls" horiz-adv-x="717" d="M40 342V472H107V478Q107 556 140 609T228 690T350 718Q460 718 511 672T562 558Q562 521 555 499T540 461T524 431T517 393Q517 369 532 351T582 312Q639 278 665 238T692 148Q692 109
669 73T601 14T492 -10Q463 -10 439 -7T395 0L312 41L362 172L464 124Q488 124 499 137T510 164Q510 189 486 206T420 250Q383 274 366 297T349 359Q349 389 358 411T379 453T401 490T410 529Q410 588 342 588Q307 588 288 564T269 481V0H107V342H40Z" />
<glyph unicode="&#xe0;" glyph-name="agrave" horiz-adv-x="591" d="M190 -10Q147 -10 111 2T52 46T30 132Q30 182 55 215T123 264T220 280Q272 280 298 269T343 245L350 251Q350 281 345 301T322 331T266 342Q229 342 188 336T112 320T60 301V451Q91 462 148
471T290 481Q380 481 432 459T508 394T531 292V159L551 58L531 -1H360V48L350 53Q342 45 322 30T269 3T190 -10ZM275 121Q302 121 321 126T350 135V154Q350 167 332 179T274 191Q220 191 220 153Q220 137 232 129T275 121ZM298 515L160 646V707H283L349 515H298Z"
/>
<glyph unicode="&#xe1;" glyph-name="aacute" horiz-adv-x="591" d="M190 -10Q147 -10 111 2T52 46T30 132Q30 182 55 215T123 264T220 280Q272 280 298 269T343 245L350 251Q350 281 345 301T322 331T266 342Q229 342 188 336T112 320T60 301V451Q91 462 148
471T290 481Q380 481 432 459T508 394T531 292V159L551 58L531 -1H360V48L350 53Q342 45 322 30T269 3T190 -10ZM275 121Q302 121 321 126T350 135V154Q350 167 332 179T274 191Q220 191 220 153Q220 137 232 129T275 121ZM234 522L300 714H422V653L284 522H234Z"
/>
<glyph unicode="&#xe2;" glyph-name="acircumflex" horiz-adv-x="591" d="M190 -10Q147 -10 111 2T52 46T30 132Q30 182 55 215T123 264T220 280Q272 280 298 269T343 245L350 251Q350 281 345 301T322 331T266 342Q229 342 188 336T112 320T60 301V451Q91 462
148 471T290 481Q380 481 432 459T508 394T531 292V159L551 58L531 -1H360V48L350 53Q342 45 322 30T269 3T190 -10ZM275 121Q302 121 321 126T350 135V154Q350 167 332 179T274 191Q220 191 220 153Q220 137 232 129T275 121ZM133 545L242 685H343L451 545H370L293
603L213 545H133Z" />
<glyph unicode="&#xe3;" glyph-name="atilde" horiz-adv-x="591" d="M190 -10Q147 -10 111 2T52 46T30 132Q30 182 55 215T123 264T220 280Q272 280 298 269T343 245L350 251Q350 281 345 301T322 331T266 342Q229 342 188 336T112 320T60 301V451Q91 462 148
471T290 481Q380 481 432 459T508 394T531 292V159L551 58L531 -1H360V48L350 53Q342 45 322 30T269 3T190 -10ZM275 121Q302 121 321 126T350 135V154Q350 167 332 179T274 191Q220 191 220 153Q220 137 232 129T275 121ZM376 525Q343 525 320 535T279 560T244
584T206 595L187 535H116Q116 597 141 641T216 685Q247 685 270 675T311 650T348 626T387 615L406 675H477Q477 607 453 566T376 525Z" />
<glyph unicode="&#xe4;" glyph-name="adieresis" horiz-adv-x="591" d="M190 -10Q147 -10 111 2T52 46T30 132Q30 182 55 215T123 264T220 280Q272 280 298 269T343 245L350 251Q350 281 345 301T322 331T266 342Q229 342 188 336T112 320T60 301V451Q91 462 148
471T290 481Q380 481 432 459T508 394T531 292V159L551 58L531 -1H360V48L350 53Q342 45 322 30T269 3T190 -10ZM275 121Q302 121 321 126T350 135V154Q350 167 332 179T274 191Q220 191 220 153Q220 137 232 129T275 121ZM175 512L65 622L175 732L285 622L175
512ZM425 512L315 622L425 732L535 622L425 512Z" />
<glyph unicode="&#xe5;" glyph-name="aring" horiz-adv-x="591" d="M190 -10Q147 -10 111 2T52 46T30 132Q30 182 55 215T123 264T220 280Q272 280 298 269T343 245L350 251Q350 281 345 301T322 331T266 342Q229 342 188 336T112 320T60 301V451Q91 462 148 471T290
481Q380 481 432 459T508 394T531 292V159L551 58L531 -1H360V48L350 53Q342 45 322 30T269 3T190 -10ZM275 121Q302 121 321 126T350 135V154Q350 167 332 179T274 191Q220 191 220 153Q220 137 232 129T275 121ZM298 525Q253 525 221 557T189 634Q189 679 221
711T298 743Q343 743 375 711T407 634Q407 589 375 557T298 525ZM298 601Q312 601 321 611T331 634Q331 648 322 657T298 667Q285 667 275 658T265 634Q265 621 275 611T298 601Z" />
<glyph unicode="&#xe6;" glyph-name="ae" horiz-adv-x="904" d="M190 -10Q147 -10 111 2T52 46T30 132Q30 182 55 215T121 264T210 280Q275 280 306 264T350 237L355 239Q355 257 357 273Q350 305 325 323T246 342Q209 342 173 336T107 320T60 301V451Q60 451
85 458T155 473T260 481Q323 481 367 467T440 427Q477 456 524 469T620 482Q706 482 752 465T814 438L864 279L844 217H534Q541 180 571 155T670 130Q724 130 763 142T824 163V29Q794 13 738 2T620 -10Q560 -10 510 3T423 49Q417 45 410 40Q370 13 315 2T190 -10ZM535
281L673 301L664 344Q657 348 644 350T620 352Q592 352 574 340T546 312T535 281ZM275 121Q302 121 321 126T350 135V144Q350 163 332 177T274 191Q220 191 220 153Q220 137 232 129T275 121Z" />
<glyph unicode="&#xe7;" glyph-name="ccedilla" horiz-adv-x="535" d="M270 -10Q201 -10 146 13T58 90T25 236Q25 329 60 382T151 459T270 482Q325 482 364 478T417 471L495 383L415 274L300 342Q214 342 214 236Q214 181 240 156T320 130Q374 130 417 145T484
173V29Q453 13 403 2T270 -10ZM272 -220Q223 -220 196 -208T168 -195V-115Q168 -115 194 -127T264 -140Q275 -140 289 -136T303 -118L228 -70L258 0H337L327 -42L400 -97Q400 -139 382 -166T335 -206T272 -220Z" />
<glyph unicode="&#xe8;" glyph-name="egrave" horiz-adv-x="558" d="M290 -10Q213 -10 153 13T59 90T25 236Q25 302 47 349T108 425T193 468T290 482Q376 482 422 465T484 438L534 279L514 217H204Q211 180 241 155T340 130Q394 130 433 142T494 163V29Q464 13
408 2T290 -10ZM205 281L343 301L334 344Q327 348 314 350T290 352Q262 352 244 340T216 312T205 281ZM288 510L150 641V702H273L339 510H288Z" />
<glyph unicode="&#xe9;" glyph-name="eacute" horiz-adv-x="558" d="M290 -10Q213 -10 153 13T59 90T25 236Q25 302 47 349T108 425T193 468T290 482Q376 482 422 465T484 438L534 279L514 217H204Q211 180 241 155T340 130Q394 130 433 142T494 163V29Q464 13
408 2T290 -10ZM205 281L343 301L334 344Q327 348 314 350T290 352Q262 352 244 340T216 312T205 281ZM224 517L290 709H412V648L274 517H224Z" />
<glyph unicode="&#xea;" glyph-name="ecircumflex" horiz-adv-x="558" d="M290 -10Q213 -10 153 13T59 90T25 236Q25 302 47 349T108 425T193 468T290 482Q376 482 422 465T484 438L534 279L514 217H204Q211 180 241 155T340 130Q394 130 433 142T494 163V29Q464
13 408 2T290 -10ZM205 281L343 301L334 344Q327 348 314 350T290 352Q262 352 244 340T216 312T205 281ZM123 540L232 680H333L441 540H360L283 598L203 540H123Z" />
<glyph unicode="&#xeb;" glyph-name="edieresis" horiz-adv-x="558" d="M290 -10Q213 -10 153 13T59 90T25 236Q25 302 47 349T108 425T193 468T290 482Q376 482 422 465T484 438L534 279L514 217H204Q211 180 241 155T340 130Q394 130 433 142T494 163V29Q464
13 408 2T290 -10ZM205 281L343 301L334 344Q327 348 314 350T290 352Q262 352 244 340T216 312T205 281ZM165 507L55 617L165 727L275 617L165 507ZM415 507L305 617L415 727L525 617L415 507Z" />
<glyph unicode="&#xec;" glyph-name="igrave" horiz-adv-x="271" d="M61 0V331L40 411L60 472H241V0H61ZM155 520L17 651V712H140L206 520H155Z" />
<glyph unicode="&#xed;" glyph-name="iacute" horiz-adv-x="271" d="M61 0V331L40 411L60 472H241V0H61ZM91 527L157 719H279V658L141 527H91Z" />
<glyph unicode="&#xee;" glyph-name="icircumflex" horiz-adv-x="271" d="M61 0V331L40 411L60 472H241V0H61ZM-10 550L99 690H200L308 550H227L150 608L70 550H-10Z" />
<glyph unicode="&#xef;" glyph-name="idieresis" horiz-adv-x="271" d="M61 0V331L40 411L60 472H241V0H61ZM32 517L-78 627L32 737L142 627L32 517ZM282 517L172 627L282 737L392 627L282 517Z" />
<glyph unicode="&#xf0;" glyph-name="eth" horiz-adv-x="601" d="M258 -10Q190 -10 138 18T55 98T25 223Q25 338 84 396T247 455Q288 455 316 446T359 425T379 407Q379 496 338 548L290 500L235 554L277 597Q217 626 120 626H45V737Q63 743 83 747T133 753T212
756Q309 756 387 707L430 750L485 696L447 658Q496 608 523 536T551 374Q551 256 515 170T412 37T258 -10ZM275 91Q316 91 342 135T369 252Q369 294 348 324T285 355Q236 355 217 314T197 203Q197 145 220 118T275 91Z" />
<glyph unicode="&#xf1;" glyph-name="ntilde" horiz-adv-x="607" d="M60 0V301L40 411L71 472H220V429L229 423Q240 433 259 446T307 471T370 482Q460 482 505 431T550 288V161L571 61L550 0H370V262Q370 300 354 320T302 341L240 322V0H60ZM396 520Q363 520 340
530T299 555T264 579T226 590L207 530H136Q136 592 161 636T236 680Q267 680 290 670T331 645T368 621T407 610L426 670H497Q497 602 473 561T396 520Z" />
<glyph unicode="&#xf2;" glyph-name="ograve" horiz-adv-x="560" d="M281 -10Q159 -10 92 48T25 236Q25 367 92 424T281 482Q406 482 470 425T535 236Q535 106 471 48T281 -10ZM281 120Q322 120 338 150T354 236Q354 292 338 322T281 352Q239 352 223 322T206
236Q206 181 222 151T281 120ZM283 523L145 654V715H268L334 523H283Z" />
<glyph unicode="&#xf3;" glyph-name="oacute" horiz-adv-x="560" d="M281 -10Q159 -10 92 48T25 236Q25 367 92 424T281 482Q406 482 470 425T535 236Q535 106 471 48T281 -10ZM281 120Q322 120 338 150T354 236Q354 292 338 322T281 352Q239 352 223 322T206
236Q206 181 222 151T281 120ZM219 530L285 722H407V661L269 530H219Z" />
<glyph unicode="&#xf4;" glyph-name="ocircumflex" horiz-adv-x="560" d="M281 -10Q159 -10 92 48T25 236Q25 367 92 424T281 482Q406 482 470 425T535 236Q535 106 471 48T281 -10ZM281 120Q322 120 338 150T354 236Q354 292 338 322T281 352Q239 352 223 322T206
236Q206 181 222 151T281 120ZM118 553L227 693H328L436 553H355L278 611L198 553H118Z" />
<glyph unicode="&#xf5;" glyph-name="otilde" horiz-adv-x="560" d="M281 -10Q159 -10 92 48T25 236Q25 367 92 424T281 482Q406 482 470 425T535 236Q535 106 471 48T281 -10ZM281 120Q322 120 338 150T354 236Q354 292 338 322T281 352Q239 352 223 322T206
236Q206 181 222 151T281 120ZM361 533Q328 533 305 543T264 568T229 592T191 603L172 543H101Q101 605 126 649T201 693Q232 693 255 683T296 658T333 634T372 623L391 683H462Q462 615 438 574T361 533Z" />
<glyph unicode="&#xf6;" glyph-name="odieresis" horiz-adv-x="560" d="M281 -10Q159 -10 92 48T25 236Q25 367 92 424T281 482Q406 482 470 425T535 236Q535 106 471 48T281 -10ZM281 120Q322 120 338 150T354 236Q354 292 338 322T281 352Q239 352 223 322T206
236Q206 181 222 151T281 120ZM160 520L50 630L160 740L270 630L160 520ZM410 520L300 630L410 740L520 630L410 520Z" />
<glyph unicode="&#xf7;" glyph-name="divide" horiz-adv-x="538" d="M267 34L176 125L267 216L358 125L267 34ZM267 381L176 472L267 563L358 472L267 381ZM50 250V350H470V250H50Z" />
<glyph unicode="&#xf8;" glyph-name="oslash" horiz-adv-x="560" d="M281 -10Q159 -10 92 48T25 236Q25 367 92 424T281 482Q406 482 470 425T535 236Q535 106 471 48T281 -10ZM281 120Q322 120 338 150T354 236Q354 292 338 322T281 352Q239 352 223 322T206
236Q206 181 222 151T281 120ZM159 82L109 152L270 253L415 386L462 316L301 213L159 82Z" />
<glyph unicode="&#xf9;" glyph-name="ugrave" horiz-adv-x="587" d="M190 -10Q130 -10 98 13T53 79T40 184V473H220V210Q220 173 234 152T278 131Q305 131 327 154T350 221V473H530V161L551 61L530 0H361V49L351 54Q338 41 314 26T258 1T190 -10ZM289 525L151
656V717H274L340 525H289Z" />
<glyph unicode="&#xfa;" glyph-name="uacute" horiz-adv-x="587" d="M190 -10Q130 -10 98 13T53 79T40 184V473H220V210Q220 173 234 152T278 131Q305 131 327 154T350 221V473H530V161L551 61L530 0H361V49L351 54Q338 41 314 26T258 1T190 -10ZM225 532L291
724H413V663L275 532H225Z" />
<glyph unicode="&#xfb;" glyph-name="ucircumflex" horiz-adv-x="587" d="M190 -10Q130 -10 98 13T53 79T40 184V473H220V210Q220 173 234 152T278 131Q305 131 327 154T350 221V473H530V161L551 61L530 0H361V49L351 54Q338 41 314 26T258 1T190 -10ZM124 555L233
695H334L442 555H361L284 613L204 555H124Z" />
<glyph unicode="&#xfc;" glyph-name="udieresis" horiz-adv-x="587" d="M190 -10Q130 -10 98 13T53 79T40 184V473H220V210Q220 173 234 152T278 131Q305 131 327 154T350 221V473H530V161L551 61L530 0H361V49L351 54Q338 41 314 26T258 1T190 -10ZM166 522L56
632L166 742L276 632L166 522ZM416 522L306 632L416 742L526 632L416 522Z" />
<glyph unicode="&#xfd;" glyph-name="yacute" horiz-adv-x="520" d="M101 -243L-40 -193L0 -44L140 -84Q183 -84 202 -62T232 1H129L19 343L0 473H190L245 143H265L320 473H510Q510 473 504 442T486 358T459 244T426 118T391 1Q364 -82 327 -136T235 -216T101
-243ZM195 517L261 709H383V648L245 517H195Z" />
<glyph unicode="&#xfe;" glyph-name="thorn" horiz-adv-x="586" d="M60 -244V535L40 645L71 706H220V429L230 424Q230 424 248 439T297 468T371 483Q460 483 510 426T561 246Q561 154 536 98T467 16T371 -9Q299 -9 270 2T240 14V-244H60ZM286 128Q324 128 347
155T371 237Q371 291 352 316T296 341L240 320V141Q240 141 250 135T286 128Z" />
<glyph unicode="&#xff;" glyph-name="ydieresis" horiz-adv-x="520" d="M101 -243L-40 -193L0 -44L140 -84Q183 -84 202 -62T232 1H129L19 343L0 473H190L245 143H265L320 473H510Q510 473 504 442T486 358T459 244T426 118T391 1Q364 -82 327 -136T235 -216T101
-243ZM136 507L26 617L136 727L246 617L136 507ZM386 507L276 617L386 727L496 617L386 507Z" />
<glyph unicode="&#x2013;" glyph-name="endash" horiz-adv-x="556" d="M30 180V300H530V180H30Z" />
<glyph unicode="&#x2014;" glyph-name="emdash" horiz-adv-x="860" d="M30 180V300H830V180H30Z" />
<glyph unicode="&#x2018;" glyph-name="quoteleft" horiz-adv-x="293" d="M188 820L208 800Q158 756 138 711T121 640L159 660L249 560L139 460Q92 479 61 519T30 623Q30 660 45 691T85 748T137 791T188 820Z" />
<glyph unicode="&#x2019;" glyph-name="quoteright" horiz-adv-x="293" d="M91 450L71 470Q121 514 141 559T158 630L120 610L30 710L140 810Q187 791 218 751T249 647Q249 610 234 579T194 522T142 479T91 450Z" />
<glyph unicode="&#x201a;" glyph-name="quotesinglbase" horiz-adv-x="293" d="M91 -190L71 -170Q121 -126 141 -81T158 -10L120 -30L30 70L140 170Q187 151 218 111T249 7Q249 -30 234 -61T194 -118T142 -161T91 -190Z" />
<glyph unicode="&#x201c;" glyph-name="quotedblleft" horiz-adv-x="543" d="M438 820L458 800Q408 756 388 711T371 640L409 660L499 560L389 460Q342 479 311 519T280 623Q280 660 295 691T335 748T387 791T438 820ZM188 820L208 800Q158 756 138 711T121 640L159
660L249 560L139 460Q92 479 61 519T30 623Q30 660 45 691T85 748T137 791T188 820Z" />
<glyph unicode="&#x201d;" glyph-name="quotedblright" horiz-adv-x="533" d="M91 450L71 470Q121 514 141 559T158 630L120 610L30 710L140 810Q187 791 218 751T249 647Q249 610 234 579T194 522T142 479T91 450ZM331 450L311 470Q361 514 381 559T398 630L360
610L270 710L380 810Q427 791 458 751T489 647Q489 610 474 579T434 522T382 479T331 450Z" />
<glyph unicode="&#x201e;" glyph-name="quotedblbase" horiz-adv-x="492" d="M86 -178L68 -160Q113 -120 131 -79T147 -14L112 -32L30 58L130 149Q173 132 201 96T229 1Q229 -32 215 -61T179 -112T133 -151T86 -178ZM304 -178L286 -160Q331 -120 349 -79T365 -14L330
-32L248 58L348 149Q391 132 419 96T448 1Q448 -32 434 -61T397 -112T351 -151T304 -178Z" />
<glyph unicode="&#x2022;" glyph-name="bullet" horiz-adv-x="410" d="M205 163L40 328L205 493L370 328L205 163Z" />
<glyph unicode="&#x2039;" glyph-name="guilsinglleft" horiz-adv-x="350" d="M310 130L180 300L310 470H170L40 300L170 130H310Z" />
<glyph unicode="&#x203a;" glyph-name="guilsinglright" horiz-adv-x="350" d="M40 130L170 300L40 470H180L310 300L180 130H40Z" />
</font>
</defs>
</svg>
