<?xml version="1.0" standalone="no"?>
<!DOCTYPE svg PUBLIC "-//W3C//DTD SVG 1.1//EN" "http://www.w3.org/Graphics/SVG/1.1/DTD/svg11.dtd">
<svg xmlns="http://www.w3.org/2000/svg">
<defs >
<font id="MarkaziText" horiz-adv-x="775" ><font-face
    font-family="Markazi Text"
    units-per-em="2048"
    panose-1="0 0 0 0 0 0 0 0 0 0"
    ascent="1718"
    descent="-740"
    alphabetic="0" />
<glyph unicode=" " horiz-adv-x="340" />
<glyph unicode="!" horiz-adv-x="428" d="M169 320L120 950V989Q160 997 208 998T308 995V950L259 320H169ZM214 -14Q164 -14 134 15T104 94Q104 144 134 173T214 202Q264 202 294 173T324 94Q324 45 294 16T214 -14Z" />
<glyph unicode="&quot;" horiz-adv-x="596" d="M133 707L94 1102V1138Q161 1149 244 1143V1102L203 707H133ZM391 707L352 1102V1138Q419 1149 502 1143V1102L461 707H391Z" />
<glyph unicode="#" horiz-adv-x="1028" d="M553 0L710 960H814L657 0H553ZM64 232V324H924V232H64ZM214 0L371 960H475L318 0H214ZM104 636V728H964V636H104Z" />
<glyph unicode="$" horiz-adv-x="821" d="M378 -7Q205 -7 99 73Q79 212 90 308H159L262 69L188 141Q290 82 399 82Q484 82 529 120T575 228Q575 287 540 323T425 384L332 413Q90 489 90 686Q90 815 180 891T422 967Q487 967 551 953T668 910Q686 797 678 703H605L521
898L612 820Q501 878 400 878Q245 878 245 741Q245 681 282 643T404 578L498 549Q733 477 733 281Q733 148 637 71T378 -7ZM319 -166L409 1128H481L391 -166H319Z" />
<glyph unicode="%" horiz-adv-x="1340" d="M342 483Q227 483 160 553T92 743Q92 862 160 932T343 1003Q457 1003 524 933T592 743Q592 624 525 554T342 483ZM352 552Q455 552 455 727Q455 828 423 881T332 935Q229 935 229 760Q229 660 261 606T352 552ZM998 -13Q883
-13 816 57T748 247Q748 366 816 436T999 507Q1113 507 1180 437T1248 247Q1248 128 1181 58T998 -13ZM1008 56Q1111 56 1111 231Q1111 332 1079 385T988 439Q885 439 885 264Q885 164 917 110T1008 56ZM292 -5L920 990Q981 1000 1046 995L418 0Q357 -10 292 -5Z"
/>
<glyph unicode="&amp;" horiz-adv-x="1043" d="M804 0L279 527Q162 645 162 767Q162 877 241 942T454 1008Q579 1008 652 952T726 799Q726 703 650 626T433 501L373 543Q572 634 572 780Q572 844 536 880T434 916Q316 916 316 792Q316 740 339 696T420 593L947
62L876 92L1003 67L998 0H804ZM381 -18Q238 -18 153 49T68 228Q68 329 139 410T351 538L411 496Q322 456 275 395T228 249Q228 166 273 121T403 76Q478 76 540 115T666 242L740 178Q676 79 587 31T381 -18ZM728 160L654 221L827 467L825 421L701 450L706 516H1021L1016
452Q992 439 962 430T902 413L968 462L728 160Z" />
<glyph unicode="&apos;" horiz-adv-x="338" d="M133 707L94 1102V1138Q161 1149 244 1143V1102L203 707H133Z" />
<glyph unicode="(" horiz-adv-x="459" d="M451 1222Q339 1084 290 922T240 531Q240 56 451 -203L401 -235Q306 -188 236 -81T127 177T88 509Q88 689 126 840T235 1099T401 1254L451 1222Z" />
<glyph unicode=")" horiz-adv-x="459" d="M8 -203Q120 -65 169 97T219 488Q219 963 8 1222L58 1254Q154 1207 224 1100T332 842T371 510Q371 330 333 179T224 -80T58 -235L8 -203Z" />
<glyph unicode="*" horiz-adv-x="866" d="M463 449L453 483L406 788L459 804L581 519L589 492Q535 463 463 449ZM403 1137L413 1103L460 798L407 782L285 1067L277 1094Q331 1123 403 1137ZM746 647L711 655L424 767L436 821L744 784L772 778Q769 712 746 647ZM120
939L155 931L442 819L430 765L122 802L94 808Q97 874 120 939ZM716 991L692 965L451 772L410 810L596 1058L615 1079Q641 1063 667 1040T716 991ZM150 595L174 621L415 814L456 776L270 528L251 507Q196 542 150 595Z" />
<glyph unicode="+" horiz-adv-x="806" d="M94 425V535H712V425H94ZM458 163H348V797H458V163Z" />
<glyph unicode="," horiz-adv-x="388" d="M79 -248L36 -203Q76 -173 111 -136T160 -73Q178 -40 186 -12T199 51L228 14H92Q83 113 112 187Q143 198 185 198Q304 198 304 74Q304 -15 240 -106T79 -248Z" />
<glyph unicode="-" horiz-adv-x="614" d="M94 388V510H520V388H94Z" />
<glyph unicode="." horiz-adv-x="388" d="M194 -14Q144 -14 114 15T84 94Q84 144 114 173T194 202Q244 202 274 173T304 94Q304 45 274 16T194 -14Z" />
<glyph unicode="/" horiz-adv-x="654" d="M50 -200L478 1225Q539 1235 604 1230L176 -195Q115 -205 50 -200Z" />
<glyph unicode="0" horiz-adv-x="918" d="M458 -18Q281 -18 177 116T72 479Q72 632 119 744T254 917T460 978Q637 978 741 844T846 481Q846 329 799 217T664 43T458 -18ZM477 78Q662 78 662 443Q662 655 605 768T441 882Q256 882 256 516Q256 305 313 192T477 78Z" />
<glyph unicode="1" horiz-adv-x="672" d="M276 15V865L440 960V15H276ZM305 814L80 829L78 880Q224 945 392 972H440V830L305 814ZM92 0L97 62Q134 73 185 82T295 99L276 25V162H440V25L423 92L618 64L613 0H92Z" />
<glyph unicode="2" horiz-adv-x="790" d="M44 0L51 86L207 250Q329 378 394 459T485 597T511 710Q511 794 468 839T343 884Q254 884 175 826L81 668Q79 730 84 787T101 889Q168 930 251 953T409 977Q537 977 612 909T687 725Q687 656 653 584T538 415T312 177L132
0H44ZM44 0L163 96H698V0H44ZM698 0L558 61L651 255H721Q727 134 698 0ZM81 668L101 857L284 917L163 668H81Z" />
<glyph unicode="3" horiz-adv-x="790" d="M377 -17Q199 -17 85 81Q73 126 68 183T65 302L161 145Q241 77 365 77Q542 77 542 253Q542 347 495 397T360 448H292L300 548L366 542Q536 542 627 473T718 274Q718 141 626 62T377 -17ZM266 52L101 96L65 302H145L266
52ZM97 674L121 862L300 923L179 674H97ZM345 465L300 548H351Q514 548 514 708Q514 793 472 838T352 884Q266 884 184 826L97 674Q95 736 100 793T117 895Q183 933 264 955T418 977Q540 977 612 912T684 736Q684 612 592 539T345 465Z" />
<glyph unicode="4" horiz-adv-x="843" d="M118 278L34 316L467 960H569L118 278ZM27 236L34 316L103 328H803L797 236H27ZM455 0V854L467 960H615V0H455ZM331 0L336 62Q397 87 474 100L455 25V164H615V25L598 93L743 64L738 0H331Z" />
<glyph unicode="5" horiz-adv-x="788" d="M373 -17Q195 -17 81 81Q69 126 64 180T61 296L151 147Q239 77 361 77Q544 77 544 262Q544 373 482 432T303 492Q275 492 229 489T141 478L154 569Q211 586 273 595T385 604Q539 604 629 522T720 299Q720 154 627 69T373
-17ZM260 52L83 112L61 296H142L260 52ZM141 478L98 509L126 960L222 954L194 505L141 478ZM180 828L126 960H679L668 828H180Z" />
<glyph unicode="6" horiz-adv-x="823" d="M419 -18Q252 -18 162 86T72 385Q72 571 154 709T387 917Q443 943 508 959T638 978L680 890Q565 878 483 845Q244 750 244 391Q244 78 429 78Q509 78 552 131T595 281Q595 385 545 440T403 496Q301 496 208 421L189 464Q313
612 479 612Q611 612 689 531T767 313Q767 162 673 72T419 -18Z" />
<glyph unicode="7" horiz-adv-x="718" d="M124 0L125 24L590 960H690L684 872L300 0H124ZM33 685Q25 826 54 960L192 893L93 685H33ZM58 860L54 960H690L628 860H58Z" />
<glyph unicode="8" horiz-adv-x="845" d="M405 -18Q254 -18 165 45T76 217Q76 310 143 378T336 481L385 447Q234 374 234 241Q234 161 284 118T427 74Q516 74 563 113T611 224Q611 284 574 323T450 390L352 422Q110 501 110 700Q110 828 197 903T432 978Q567 978
647 916T727 746Q727 656 667 592T496 498L456 530Q575 592 575 719Q575 799 533 842T411 886Q262 886 262 748Q262 687 299 648T419 581L517 549Q769 466 769 267Q769 137 671 60T405 -18Z" />
<glyph unicode="9" horiz-adv-x="823" d="M404 978Q571 978 661 874T751 575Q751 389 670 252T436 43Q380 17 315 1T185 -18L143 70Q258 82 340 115Q579 210 579 569Q579 882 394 882Q314 882 271 830T228 679Q228 576 278 520T420 464Q522 464 615 539L634 496Q510
348 344 348Q212 348 134 429T56 647Q56 799 150 888T404 978Z" />
<glyph unicode=":" horiz-adv-x="408" d="M204 -14Q154 -14 124 15T94 94Q94 144 124 173T204 202Q254 202 284 173T314 94Q314 45 284 16T204 -14ZM204 484Q154 484 124 513T94 592Q94 642 124 671T204 700Q254 700 284 671T314 592Q314 543 284 514T204 484Z" />
<glyph unicode=";" horiz-adv-x="408" d="M89 -248L46 -203Q86 -173 121 -136T170 -73Q188 -40 196 -12T209 51L238 14H102Q93 113 122 187Q153 198 195 198Q314 198 314 74Q314 -15 250 -106T89 -248ZM204 484Q154 484 124 513T94 592Q94 642 124 671T204 700Q254
700 284 671T314 592Q314 543 284 514T204 484Z" />
<glyph unicode="&lt;" horiz-adv-x="806" d="M100 428Q98 448 98 480T102 532L678 804L729 704L207 461L100 428ZM678 155L100 428L208 500L730 257L678 155Z" />
<glyph unicode="=" horiz-adv-x="806" d="M94 575V685H712V575H94ZM94 275V385H712V275H94Z" />
<glyph unicode="&gt;" horiz-adv-x="806" d="M706 531Q708 512 708 479T704 427L128 155L77 255L599 498L706 531ZM128 804L706 531L598 459L76 702L128 804Z" />
<glyph unicode="?" horiz-adv-x="703" d="M261 320L248 481L286 506Q392 576 430 627T469 748Q469 914 311 914Q222 914 143 856L59 698Q57 760 62 817T79 919Q140 960 220 983T377 1007Q500 1007 572 944T645 773Q645 714 617 660T523 548T340 418L319 405L361
445L351 320H261ZM59 698L82 886L262 947L141 698H59ZM306 -14Q256 -14 226 15T196 94Q196 144 226 173T306 202Q356 202 386 173T416 94Q416 45 386 16T306 -14Z" />
<glyph unicode="@" horiz-adv-x="1527" d="M704 -286Q409 -286 249 -119T88 353Q88 590 179 763T439 1031T834 1125Q1124 1125 1281 970T1439 530Q1439 307 1342 185T1066 62Q885 62 885 203L873 192L907 667L959 710Q980 733 1002 746H1064L1052 653L1025 270Q1021
204 1041 184T1101 164Q1202 164 1257 253T1312 503Q1312 749 1184 886T816 1023Q632 1023 497 943T288 718T214 373Q214 104 351 -40T737 -184Q827 -184 923 -165T1113 -112L1107 -192Q1042 -235 932 -260T704 -286ZM670 52Q556 52 495 128T433 349Q433 537 534
649T804 762Q875 762 920 741T991 673L957 609Q921 641 879 659T789 677Q695 677 644 602T592 386Q592 157 744 157Q796 157 835 180T903 245L917 203Q874 130 813 91T670 52Z" />
<glyph unicode="A" horiz-adv-x="1014" d="M589 996L918 65L874 94L1005 66L1000 0H626L631 68Q680 89 750 103L737 75L457 927L423 991Q458 996 503 997T589 996ZM529 990L221 65L214 95L336 66L331 0H16L21 64Q46 77 77 86T141 102L96 65L423 991L529 990ZM246
281L279 377H704L738 281H246Z" />
<glyph unicode="B" horiz-adv-x="948" d="M241 0L251 100H478Q700 100 700 274Q700 459 449 459H251V541H457Q884 541 884 296Q884 160 769 80T458 0H241ZM170 15V976H338V15H170ZM222 490L241 549H467Q648 549 648 723Q648 890 475 890H236V990H484Q650 990 739
927T828 745Q828 622 731 556T452 490H222ZM58 0L63 64Q115 85 190 103L170 28V168H338V28L321 95L454 66L449 0H58ZM450 990L445 926Q393 905 318 887L338 962V822H170V962L187 895L54 924L59 990H450Z" />
<glyph unicode="C" horiz-adv-x="959" d="M586 -17Q336 -17 202 110T68 474Q68 637 130 756T306 941T576 1007Q655 1007 731 991T856 946Q874 826 866 709H793L697 933L786 856Q679 911 558 911Q260 911 260 510Q260 79 604 79Q729 79 832 135L826 77L693 65L816
297H893Q895 181 861 45Q810 16 737 0T586 -17Z" />
<glyph unicode="D" horiz-adv-x="1038" d="M256 0V100H498Q635 100 708 202T782 496Q782 890 445 890H256V990H454Q705 990 839 866T974 512Q974 356 913 241T741 63T478 0H256ZM170 15V976H338V15H170ZM58 0L63 64Q115 85 190 103L170 28V168H338V28L321 95L454
66L449 0H58ZM450 990L445 926Q393 905 318 887L338 962V822H170V962L187 895L54 924L59 990H450Z" />
<glyph unicode="E" horiz-adv-x="912" d="M170 15V976H338V15H170ZM255 0V100H795L819 0H255ZM819 0L660 53L783 285H860Q862 233 851 154T819 0ZM239 454V562H678L670 454H239ZM197 890V990H808L789 890H197ZM747 723L657 933L808 990Q822 923 826 854T826 723H747ZM58
0L63 64Q115 85 190 103L170 28V168H338V28L321 95L454 66L449 0H58ZM450 990L445 926Q393 905 318 887L338 962V822H170V962L187 895L54 924L59 990H450Z" />
<glyph unicode="F" horiz-adv-x="828" d="M170 15V976H338V15H170ZM239 424V532H658L650 424H239ZM197 890V990H764L745 890H197ZM709 709L613 933L764 990Q778 924 782 851T782 709H709ZM58 0L63 64Q115 85 190 103L170 28V168H338V28L316 95L484 66L479 0H58ZM450
990L445 926Q393 905 318 887L338 962V822H170V962L187 895L54 924L59 990H450Z" />
<glyph unicode="G" horiz-adv-x="1019" d="M600 -17Q344 -17 206 110T68 473Q68 637 132 756T313 941T590 1007Q672 1007 748 991T872 946Q880 888 883 830T882 721H806L715 933L802 856Q691 911 572 911Q256 911 256 509Q256 79 618 79Q747 79 864 133L893 43Q841
14 765 -1T600 -17ZM733 41V391H893V43L733 41ZM733 291V431L751 363L567 391L572 457H965L959 383Q922 365 874 354L893 431V291H733Z" />
<glyph unicode="H" horiz-adv-x="1092" d="M754 15V976H922V15H754ZM170 15V976H338V15H170ZM244 450V548H841V450H244ZM58 0L63 64Q115 85 190 103L170 28V168H338V28L321 95L454 66L449 0H58ZM642 0L647 64Q699 85 774 103L754 28V168H922V28L905 95L1038 66L1033
0H642ZM1034 990L1029 926Q977 905 902 887L922 962V822H754V962L771 895L638 924L643 990H1034ZM450 990L445 926Q393 905 318 887L338 962V822H170V962L187 895L54 924L59 990H450Z" />
<glyph unicode="I" horiz-adv-x="512" d="M172 15V976H340V15H172ZM60 0L65 64Q117 85 192 103L172 28V168H340V28L323 95L456 66L451 0H60ZM452 990L447 926Q395 905 320 887L340 962V822H172V962L189 895L56 924L61 990H452Z" />
<glyph unicode="J" horiz-adv-x="706" d="M261 -16Q154 -16 60 20Q38 130 46 251H126L209 57L136 107Q203 82 261 82Q396 82 396 246L564 230Q564 118 482 51T261 -16ZM564 230L396 246V976H564V230ZM666 990L661 926Q615 904 545 887L564 962V822H396V962L418
895L246 924L251 990H666Z" />
<glyph unicode="K" horiz-adv-x="986" d="M742 0L385 458V514L735 938L714 895L580 924L585 990H950L945 926Q920 913 889 904T825 888L884 932L512 484L504 561L908 65L838 97L972 70L967 0H742ZM170 15V974H338V15H170ZM255 435V539H517V435H255ZM58 0L63 64Q115
85 190 103L170 28V168H338V28L321 95L454 66L449 0H58ZM450 990L445 926Q393 905 318 887L338 962V822H170V962L187 895L54 924L59 990H450Z" />
<glyph unicode="L" horiz-adv-x="881" d="M170 15V976H338V15H170ZM254 0V100H755L796 0H254ZM796 0L631 53L775 325H839Q839 152 796 0ZM490 990L485 926Q451 915 408 905T318 889L338 962V822H170V962L187 895L54 924L59 990H490ZM58 0L63 64Q115 85 190 103L170
28V168H338V28L321 95L454 66L449 0H58Z" />
<glyph unicode="M" horiz-adv-x="1388" d="M607 40L252 990H424L733 127L737 44Q708 40 675 39T607 40ZM44 0L49 64Q101 88 170 103L146 36L205 944L220 895L80 924L85 990H324L272 38L256 95L401 66L396 0H44ZM737 44L636 66L962 990H1090L737 44ZM947 0L952
64Q981 76 1016 85T1089 102L1072 43L1021 990H1299L1294 926Q1239 903 1161 888L1178 935L1237 46L1218 95L1344 66L1339 0H947Z" />
<glyph unicode="N" horiz-adv-x="1076" d="M810 -6L178 886L290 990L922 96L930 -1Q877 -12 810 -6ZM170 15V976L296 917V15H170ZM304 818L187 877L54 924L59 990H290L304 818ZM930 -1L804 44V976H930V-1ZM58 0L63 64Q115 85 190 103L170 28V168H296V28L277 95L426
66L421 0H58ZM1036 990L1031 926Q972 901 909 887L930 962V822H804V962L821 895L688 924L693 990H1036Z" />
<glyph unicode="O" horiz-adv-x="1074" d="M536 -18Q393 -18 288 45T126 223T68 494Q68 651 125 766T288 945T537 1008Q680 1008 785 945T948 768T1006 496Q1006 339 949 224T786 45T536 -18ZM562 80Q814 80 814 458Q814 676 736 793T512 910Q260 910 260 532Q260
313 338 197T562 80Z" />
<glyph unicode="P" horiz-adv-x="893" d="M449 350Q349 350 235 362L250 456Q363 444 467 444Q665 444 665 669Q665 890 475 890H235V990H484Q661 990 756 913T851 691Q851 535 743 443T449 350ZM170 15V976H338V15H170ZM58 0L63 64Q115 85 190 103L170 28V168H338V28L316
95L484 66L479 0H58ZM450 990L445 926Q393 905 318 887L338 962V822H170V962L187 895L54 924L59 990H450Z" />
<glyph unicode="Q" horiz-adv-x="1073" d="M940 -266Q774 -266 656 -193T481 17L649 82Q729 -160 992 -160Q1046 -160 1102 -151T1204 -123L1197 -207Q1151 -235 1084 -250T940 -266ZM536 -18Q393 -18 288 45T126 223T68 494Q68 651 125 766T288 945T537 1008Q680
1008 785 945T948 768T1006 496Q1006 339 949 224T786 45T536 -18ZM562 80Q814 80 814 458Q814 676 736 793T512 910Q260 910 260 532Q260 313 338 197T562 80Z" />
<glyph unicode="R" horiz-adv-x="964" d="M724 0L417 406L578 449L882 65L812 97L946 70L941 0H724ZM429 388Q329 388 215 400L230 490Q343 478 447 478Q652 478 652 685Q652 890 455 890H235V990H464Q643 990 739 917T836 707Q836 586 762 505T562 409L499 392Q483
390 465 389T429 388ZM170 15V976H338V15H170ZM58 0L63 64Q115 85 190 103L170 28V168H338V28L322 95L446 66L441 0H58ZM450 990L445 926Q393 905 318 887L338 962V822H170V962L187 895L54 924L59 990H450Z" />
<glyph unicode="S" horiz-adv-x="813" d="M372 -16Q192 -16 80 68Q59 213 70 315H143L251 64L173 139Q281 78 395 78Q484 78 531 118T579 231Q579 292 542 330T422 394L324 425Q71 505 71 711Q71 846 165 926T419 1006Q562 1006 677 946Q695 827 687 729H610L522
933L618 851Q501 912 396 912Q233 912 233 769Q233 706 272 666T400 598L498 567Q745 489 745 286Q745 147 644 66T372 -16Z" />
<glyph unicode="T" horiz-adv-x="920" d="M376 15V976H544V15H376ZM33 695Q21 849 49 990L204 933L101 695H33ZM67 890L49 990H871L835 890H67ZM819 695L716 933L871 990Q899 849 887 695H819ZM248 0L253 64Q283 75 320 85T396 102L376 28V168H544V28L525 95L676
66L671 0H248Z" />
<glyph unicode="U" horiz-adv-x="1032" d="M518 -17Q348 -17 247 66T146 289L318 310Q318 210 376 156T541 101Q648 101 706 155T764 310L890 289Q890 149 789 66T518 -17ZM146 289V976H318V310L146 289ZM146 822V962L161 895L40 924L45 990H444L439 926Q416 917
379 907T295 887L318 962V822H146ZM890 289L764 310V976H890V289ZM764 822V962L783 895L634 924L639 990H992L987 926Q941 904 871 887L890 962V822H764Z" />
<glyph unicode="V" horiz-adv-x="986" d="M415 -6L96 925L140 896L9 924L14 990H400L395 924Q348 904 267 890L279 915L551 63L573 -1Q538 -6 497 -7T415 -6ZM463 0L763 925L772 895L638 924L643 990H970L965 926Q940 913 909 904T845 888L890 925L573 -1L463 0Z" />
<glyph unicode="W" horiz-adv-x="1457" d="M369 -6L97 926L145 895L9 924L14 990H396L391 924Q344 904 263 890L275 920L499 77L519 -1Q488 -6 447 -7T369 -6ZM519 -1L417 14L684 967L795 966L519 -1ZM940 -6L690 903L684 967Q712 972 753 973T826 973L1068 77L1090
-1Q1059 -6 1017 -7T940 -6ZM1090 -1L988 14L1237 925L1248 895L1114 924L1119 990H1441L1436 926Q1414 914 1383 905T1316 889L1359 924L1090 -1Z" />
<glyph unicode="X" horiz-adv-x="991" d="M564 0L569 66Q616 86 697 100L693 74L438 466L581 534L904 57L838 95L971 66L966 0H564ZM26 0L31 64Q80 89 151 102L91 62L431 525L562 520L239 63L237 95L371 66L366 0H26ZM426 460L103 933L169 895L36 924L41 990H441L436
924Q393 904 310 890L314 916L569 528L426 460ZM552 469L421 474L744 927L746 895L614 924L619 990H957L952 926Q903 901 832 888L892 928L552 469Z" />
<glyph unicode="Y" horiz-adv-x="946" d="M395 334L92 925L140 896L9 924L14 990H398L393 924Q346 904 265 890L273 915L529 403L553 339L395 334ZM445 340L729 925L734 895L600 924L605 990H930L925 926Q900 913 869 904T805 888L854 925L553 339L445 340ZM390
15V404H558V15H390ZM262 0L267 64Q297 75 334 85T410 102L390 28V168H558V28L539 95L690 66L685 0H262Z" />
<glyph unicode="Z" horiz-adv-x="886" d="M42 0L49 86L680 990H827L820 904L189 0H42ZM42 0L165 98H800L798 0H42ZM77 685Q71 765 75 844T93 990L248 933L141 685H77ZM92 892L93 990H827L705 892H92ZM828 325Q831 254 824 170T799 0L646 62L764 325H828Z" />
<glyph unicode="[" horiz-adv-x="488" d="M104 -215V1234H246V-215H104ZM104 -215L118 -111L460 -151L455 -215H104ZM118 1130L104 1234H455L460 1170L118 1130Z" />
<glyph unicode="\" horiz-adv-x="654" d="M604 -200Q539 -205 478 -195L50 1230Q115 1235 176 1225L604 -200Z" />
<glyph unicode="]" horiz-adv-x="488" d="M384 1233V-216H242V1233H384ZM384 1233L370 1129L28 1169L33 1233H384ZM370 -112L384 -216H33L28 -152L370 -112Z" />
<glyph unicode="^" horiz-adv-x="806" d="M641 549L331 891L443 990L706 595L641 549ZM162 546L98 590L354 987Q398 995 443 990L449 878L162 546Z" />
<glyph unicode="_" horiz-adv-x="658" d="M20 -196V-88H638V-196H20Z" />
<glyph unicode="`" horiz-adv-x="800" d="M486 833L209 1076L206 1106Q278 1142 365 1145L550 870L486 833Z" />
<glyph unicode="a" horiz-adv-x="772" d="M468 108Q468 191 470 277T472 440V528Q472 670 334 670Q243 670 166 612L102 531Q99 617 112 688Q246 763 395 763Q630 763 630 539Q630 511 629 456T627 337T625 218T624 132L468 108ZM102 531L116 645L269 703L187
531H102ZM263 -15Q168 -15 112 39T56 186Q56 385 345 446L508 480L518 394L375 376Q293 366 256 332T219 229Q219 97 333 97Q413 97 519 172L537 136Q416 -15 263 -15ZM508 -3L474 127L624 170V61L602 101L724 66L719 8Q637 -5 508 -3Z" />
<glyph unicode="b" horiz-adv-x="846" d="M405 -18Q253 -18 193 76L225 151Q314 76 416 76Q514 76 566 150T618 363Q618 500 567 574T420 648Q329 648 233 573L214 616Q338 764 492 764Q629 764 709 665T790 398Q790 208 686 95T405 -18ZM118 0L124 144V1070L284
1030V76L230 40Q211 17 186 0H118ZM124 894V1019L139 984L4 1037L8 1077Q102 1111 224 1116H284V944L124 894Z" />
<glyph unicode="c" horiz-adv-x="718" d="M426 -16Q251 -16 157 81T62 358Q62 544 159 654T422 764Q543 764 637 710Q645 673 649 625T650 525H570L488 697L574 622Q536 645 492 658T411 671Q328 671 283 600T238 395Q238 100 479 100Q575 100 674 137L667 43Q571
-16 426 -16Z" />
<glyph unicode="d" horiz-adv-x="864" d="M354 -18Q218 -18 137 81T56 348Q56 539 160 651T441 764Q593 764 653 670L621 595Q532 670 430 670Q333 670 281 596T228 383Q228 246 279 172T426 98Q517 98 613 173L632 130Q508 -18 354 -18ZM722 58L562 99V1017H722V58ZM562
894V1019L578 984L432 1039L436 1075Q536 1111 662 1116H722V944L562 894ZM606 -3L572 127L722 170V61L700 101L822 66L817 8Q735 -5 606 -3Z" />
<glyph unicode="e" horiz-adv-x="779" d="M439 -16Q258 -16 160 82T62 362Q62 547 158 655T417 764Q563 764 642 673T721 410Q721 395 720 380T717 351L549 383Q549 536 513 604T394 672Q234 672 234 419Q234 100 489 100Q589 100 698 141L691 47Q644 17 579 1T439
-16ZM127 351V433H701L717 351H127Z" />
<glyph unicode="f" horiz-adv-x="546" d="M162 6V762Q162 876 200 959T308 1088T473 1134Q531 1134 571 1118L561 1000Q503 1014 453 1014Q379 1014 349 972T319 822V710L321 690V6H162ZM35 650L42 730Q100 744 170 746H526L518 650H35ZM60 0L65 60Q94 74 123
83T181 99L162 26V162H321V26L304 90L477 62L472 0H60Z" />
<glyph unicode="g" horiz-adv-x="778" d="M361 235Q226 235 146 306T66 498Q66 620 146 691T363 763Q442 763 508 729T616 636T657 500Q657 379 577 307T361 235ZM374 319Q497 319 497 481Q497 679 349 679Q226 679 226 516Q226 421 264 370T374 319ZM737 644L508
656L363 763Q410 763 436 758T484 746T541 740Q566 740 619 743T747 754L737 644ZM349 -350Q204 -350 118 -296T31 -149Q31 -36 176 35L232 3Q170 -46 170 -116Q170 -186 225 -223T382 -260Q490 -260 553 -221T617 -114Q617 -44 523 -44H295Q208 -44 161 -5T114
108Q114 228 248 295L309 285Q235 230 235 166Q235 98 329 98H557Q657 98 710 56T764 -67Q764 -149 711 -213T564 -313T349 -350Z" />
<glyph unicode="h" horiz-adv-x="916" d="M152 6V1034L312 1005V6H152ZM608 6V510Q608 647 474 647Q368 647 262 563L242 613Q369 763 549 763Q655 763 711 706T768 541V6H608ZM50 0L55 60Q84 74 113 83T171 99L152 25V162H312V25L296 91L418 62L413 0H50ZM524
0L529 64Q550 75 574 83T627 99L608 25V162H768V25L752 91L874 62L869 0H524ZM152 894V1019L167 984L32 1037L36 1077Q130 1111 252 1116H312V944L152 894Z" />
<glyph unicode="i" horiz-adv-x="480" d="M166 6V675L326 694V6H166ZM166 509V637L190 593L52 659L56 701Q100 721 158 735T282 755H326V596L166 509ZM58 0L63 60Q89 72 119 81T186 99L166 25V162H326V25L309 91L438 62L433 0H58ZM231 884Q182 884 154 912T125
988Q125 1036 153 1064T231 1092Q280 1092 308 1064T337 988Q337 940 309 912T231 884Z" />
<glyph unicode="j" horiz-adv-x="431" d="M89 -342L38 -300L67 -265Q111 -209 129 -130T147 70V678H307V105Q307 -42 286 -119Q265 -195 217 -252T89 -342ZM147 509V637L171 593L33 659L37 701Q81 721 139 735T263 755H307V596L147 509ZM212 884Q163 884 135 912T106
988Q106 1036 134 1064T212 1092Q261 1092 289 1064T318 988Q318 940 290 912T212 884Z" />
<glyph unicode="k" horiz-adv-x="871" d="M152 6V1054H312V6H152ZM227 344V440H424V344H227ZM647 0L365 367V415L625 697L601 651L477 680L482 746H827L822 682Q798 669 770 660T712 643L774 692L488 393L483 462L808 61L737 95L859 66L854 0H647ZM50 0L55 60Q84
74 113 83T171 99L152 25V162H312V25L296 91L410 64L405 0H50ZM152 894V1019L167 984L32 1037L36 1077Q130 1111 252 1116H312V944L152 894Z" />
<glyph unicode="l" horiz-adv-x="490" d="M166 6V1034L326 1005V6H166ZM52 0L57 60Q84 71 115 80T185 99L166 25V162H326V25L310 91L444 62L439 0H52ZM166 894V1019L181 984L46 1037L50 1077Q144 1111 266 1116H326V944L166 894Z" />
<glyph unicode="m" horiz-adv-x="1356" d="M1048 6V510Q1048 647 919 647Q821 647 713 563L693 613Q821 763 995 763Q1097 763 1152 706T1208 541V6H1048ZM60 0L65 60Q94 74 123 83T181 99L162 25V162H322V25L306 91L424 62L419 0H60ZM162 6V674L322 632V6H162ZM520
0L525 64Q546 75 570 83T623 99L604 25V162H764V25L748 91L866 62L861 0H520ZM604 6V510Q604 647 477 647Q378 647 272 563L252 613Q379 763 552 763Q653 763 708 708T764 545V6H604ZM162 509V637L186 593L48 659L52 701Q96 721 154 735T278 755L316 596L162 509ZM964
0L969 64Q990 75 1014 83T1067 99L1048 25V162H1208V25L1192 91L1314 62L1309 0H964Z" />
<glyph unicode="n" horiz-adv-x="922" d="M614 6V510Q614 647 482 647Q378 647 272 563L252 613Q313 685 392 724T558 763Q662 763 718 706T774 541V6H614ZM162 6V674L322 632V6H162ZM60 0L65 60Q94 74 123 83T181 99L162 25V162H322V25L306 91L428 62L423 0H60ZM530
0L535 64Q556 75 580 83T633 99L614 25V162H774V25L758 91L880 62L875 0H530ZM162 509V637L186 593L48 659L52 701Q96 721 154 735T278 755L316 596L162 509Z" />
<glyph unicode="o" horiz-adv-x="850" d="M424 -18Q258 -18 160 87T62 371Q62 551 161 657T427 764Q593 764 690 659T788 374Q788 194 690 88T424 -18ZM441 76Q612 76 612 347Q612 503 560 586T409 670Q238 670 238 399Q238 243 291 160T441 76Z" />
<glyph unicode="p" horiz-adv-x="863" d="M422 -18Q270 -18 210 76L242 151Q331 76 433 76Q531 76 583 150T635 363Q635 500 584 574T437 648Q346 648 250 573L231 616Q355 764 509 764Q646 764 726 665T807 398Q807 208 703 95T422 -18ZM39 -320L44 -260Q73 -246
102 -237T160 -221L141 -295V-158H301V-295L285 -230L447 -258L442 -320H39ZM141 -309V672L301 631V-309H141ZM141 509V637L165 593L27 659L31 701Q75 721 133 735T257 755L295 596L141 509Z" />
<glyph unicode="q" horiz-adv-x="848" d="M354 -18Q218 -18 137 81T56 348Q56 539 160 651T441 764Q593 764 653 670L621 595Q532 670 430 670Q333 670 281 596T228 383Q228 246 279 172T426 98Q517 98 613 173L632 130Q508 -18 354 -18ZM420 -320L425 -260Q490
-236 581 -223L562 -295V-158H722V-295L706 -229L828 -258L823 -320H420ZM562 -311V659L616 706Q635 729 660 746H728L722 644V-311H562Z" />
<glyph unicode="r" horiz-adv-x="599" d="M162 6V646L322 595V6H162ZM60 0L65 60Q94 74 123 83T181 99L162 26V162H322V26L306 90L468 62L463 0H60ZM290 500L270 540Q323 655 383 705T522 756Q535 756 549 755T575 750L564 612Q548 614 529 615T495 617Q428 617
380 590T290 500ZM162 509V637L186 593L48 659L52 701Q96 721 154 735T278 755L316 596L162 509Z" />
<glyph unicode="s" horiz-adv-x="662" d="M305 -16Q166 -16 74 48Q66 85 62 133T61 233H139L221 61L156 121Q232 72 321 72Q450 72 450 175Q450 251 346 285L264 311Q70 372 70 533Q70 638 144 700T342 762Q454 762 543 716Q560 640 557 549H475L393 721L491 627Q405
674 326 674Q216 674 216 579Q216 502 327 466L409 440Q506 409 553 355T600 221Q600 112 520 48T305 -16Z" />
<glyph unicode="t" horiz-adv-x="554" d="M343 -12Q141 -12 141 193V675L150 746L187 936H301V223Q301 157 325 128T405 98Q450 98 520 115L514 29Q440 -12 343 -12ZM15 650L22 730Q80 744 150 746H516L508 650H15Z" />
<glyph unicode="u" horiz-adv-x="867" d="M322 -17Q113 -17 113 217V670L273 659V249Q273 169 302 133T396 97Q499 97 610 186L629 141Q495 -17 322 -17ZM113 553V656L137 616L18 673L23 723Q111 752 229 755H273V591L113 553ZM719 59L559 99V668L719 658V59ZM559
553V656L583 615L455 676L459 720Q507 737 563 745T675 755H719V593L559 553ZM603 -3L569 127L719 170V61L697 101L819 66L814 8Q732 -5 603 -3Z" />
<glyph unicode="v" horiz-adv-x="826" d="M489 -1L385 0L620 680L626 651L515 680L520 746H810L805 682Q781 669 753 660T695 643L740 679L489 -1ZM339 -6L86 679L131 651L9 680L14 746H362L357 680Q336 670 307 661T249 645L261 670L467 63L489 -1Q455 -6 417
-7T339 -6Z" />
<glyph unicode="w" horiz-adv-x="1201" d="M305 -6L89 680L133 651L11 680L16 746H360L355 680Q334 670 305 661T247 645L259 675L427 77L447 -1Q427 -4 403 -6T354 -8T305 -6ZM351 14L558 727L664 726L447 -1L351 14ZM756 -6L565 663L558 727Q586 732 623 733T692
733L876 77L898 -1Q878 -4 854 -6T805 -8T756 -6ZM802 14L995 679L1003 651L892 680L897 746H1183L1178 682Q1154 669 1126 660T1068 643L1111 678L898 -1L802 14Z" />
<glyph unicode="x" horiz-adv-x="823" d="M26 0L31 60Q55 74 83 83T141 99L81 61L357 401L476 396L213 61L214 91L325 62L320 0H26ZM446 0L451 62Q472 73 501 81T559 97L555 72L358 342L487 410L746 55L681 91L803 62L798 0H446ZM391 746L386 680Q365 670 336
661T278 645L284 674L481 404L352 336L93 691L158 651L36 680L41 746H391ZM789 746L784 682Q760 669 732 660T674 643L734 685L458 345L339 350L602 685L603 651L492 680L497 746H789Z" />
<glyph unicode="y" horiz-adv-x="832" d="M350 -352Q268 -341 197 -308L368 22L400 48L634 678L640 651L529 680L534 746H820L815 682Q794 669 766 660T709 643L754 677L350 -352ZM364 -52L84 679L129 651L7 680L12 746H360L355 680Q334 670 305 661T247 645L259
670L471 63V-1L364 -52Z" />
<glyph unicode="z" horiz-adv-x="714" d="M36 0L42 72L522 746H661L655 674L175 0H36ZM36 0L137 84H638L639 0H36ZM79 662L83 746H661L560 662H79ZM63 515Q57 638 83 746L219 687L137 515H63ZM639 0L507 73L594 255H662Q668 134 639 0Z" />
<glyph unicode="{" horiz-adv-x="479" d="M403 -232Q285 -221 222 -157T158 14Q158 65 169 106T191 188T203 276Q203 349 168 396T59 468Q56 503 63 538Q134 567 168 613T203 723Q203 766 192 802T169 879T158 977Q158 1098 221 1169T403 1251L431 1197Q296 1155
296 1004Q296 954 307 918T328 843T339 745Q339 549 171 503V522Q339 476 339 298Q339 244 329 206T307 129T296 33Q296 -136 431 -178L403 -232Z" />
<glyph unicode="|" horiz-adv-x="516" d="M200 -258V1248H316V-258H200Z" />
<glyph unicode="}" horiz-adv-x="479" d="M76 1251Q194 1240 257 1176T321 1005Q321 954 310 913T288 831T276 743Q276 670 311 623T420 551Q423 516 416 481Q346 453 311 407T276 296Q276 254 287 218T310 140T321 42Q321 -79 258 -150T76 -232L48 -178Q183 -136
183 15Q183 65 173 101T151 176T140 274Q140 470 308 516V497Q140 544 140 721Q140 775 151 813T172 890T183 986Q183 1155 48 1197L76 1251Z" />
<glyph unicode="~" horiz-adv-x="806" d="M141 373L76 415Q144 580 277 580Q334 580 378 559T459 515T536 493Q606 493 665 586L730 544Q662 379 529 379Q472 379 429 401T347 444T270 466Q200 466 141 373Z" />
<glyph unicode="&#xa0;" horiz-adv-x="340" />
<glyph unicode="&#xa1;" horiz-adv-x="418" d="M259 426L308 -204V-243Q268 -250 220 -251T120 -249V-204L169 426H259ZM214 760Q264 760 294 731T324 652Q324 603 294 574T214 544Q164 544 134 573T104 652Q104 702 134 731T214 760Z" />
<glyph unicode="&#xa2;" horiz-adv-x="728" d="M428 -7Q262 -7 172 84T82 347Q82 525 174 629T424 734Q540 734 629 682Q637 647 640 602T641 506H565L489 670L569 599Q493 645 414 645Q335 645 292 577T249 383Q249 242 306 173T479 104Q571 104 664 139L658
50Q567 -7 428 -7ZM344 -166L418 893H490L416 -166H344Z" />
<glyph unicode="&#xa3;" horiz-adv-x="966" d="M100 0L107 86Q167 143 191 202T216 348Q216 407 209 443T194 515T186 602Q186 774 287 875T560 977Q620 977 685 964T797 923Q805 870 807 814T807 707H734L646 911L730 838Q632 886 543 886Q360 886 360 646Q360
561 375 503T390 371Q390 262 333 179T135 0H100ZM135 0L194 96H837V0H135ZM837 0L680 50L817 310H878Q878 231 868 151T837 0ZM78 514H672L666 434H73L78 514Z" />
<glyph unicode="&#xa4;" horiz-adv-x="788" d="M397 202Q266 202 186 281T105 487Q105 615 185 693T397 772Q528 772 608 694T689 487Q689 360 609 281T397 202ZM687 123L538 286L599 340L748 177L687 123ZM412 308Q565 308 565 471Q565 560 516 613T383 666Q309
666 269 624T229 502Q229 413 278 361T412 308ZM195 634L46 797L107 851L256 688L195 634ZM687 851L748 797L599 634L538 688L687 851ZM195 340L256 286L107 123L46 177L195 340Z" />
<glyph unicode="&#xa5;" horiz-adv-x="922" d="M369 417L108 898L154 871L29 897L34 960H399L395 896Q373 886 342 878T273 863L280 889L514 423L555 422L369 417ZM260 0L265 61Q326 84 401 97L382 27V160H542V27L524 90L667 63L663 0H260ZM382 14V444H542V14H382ZM434
393L695 898L699 870L572 897L576 960H886L881 899Q858 887 829 878T767 863L813 898L555 422L434 393ZM158 402L163 474H766L761 402H158ZM158 230L163 302H766L761 230H158Z" />
<glyph unicode="&#xa6;" horiz-adv-x="516" d="M200 625V1248H316V625H200ZM200 365H316V-258H200V365Z" />
<glyph unicode="&#xa7;" horiz-adv-x="738" d="M343 -226Q277 -226 221 -211T115 -167Q95 -37 105 60H178L286 -191L194 -89Q270 -138 359 -138L427 -152Q498 -123 526 -80T554 41Q554 139 521 219T440 368T342 503T260 635T227 779Q227 824 242 851T294 901L404
976Q504 976 602 934Q610 888 612 837T612 737H535L447 941L553 841Q467 888 388 888Q313 888 313 823Q313 774 347 718T431 596T532 452T616 283T650 85Q650 -77 565 -151T343 -226ZM343 -226L359 -138Q423 -138 423 -75Q423 -26 389 31T305 154T205 298T120 467T86
664Q86 828 173 902T404 976L384 888L314 902Q241 872 212 830T182 707Q182 610 215 531T297 382T394 247T476 114T509 -30Q509 -76 494 -104T447 -151L343 -226Z" />
<glyph unicode="&#xa8;" horiz-adv-x="800" d="M244 884Q200 884 175 910T149 980Q149 1024 174 1050T244 1076Q288 1076 313 1050T339 980Q339 936 314 910T244 884ZM556 884Q512 884 487 910T461 980Q461 1024 486 1050T556 1076Q600 1076 625 1050T651 980Q651
936 626 910T556 884Z" />
<glyph unicode="&#xa9;" horiz-adv-x="1587" d="M819 112Q659 112 574 200T488 452Q488 622 576 722T815 822Q924 822 1011 772Q1019 738 1022 695T1022 604H950L875 761L953 692Q919 714 879 725T805 737Q729 737 689 673T648 486Q648 218 867 218Q954 218 1044
252L1038 166Q947 112 819 112ZM791 -226Q576 -226 418 -140T174 104T88 477Q88 694 175 852T421 1098T796 1185Q1011 1185 1169 1099T1413 855T1499 482Q1499 266 1412 107T1167 -139T791 -226ZM795 -124Q1070 -124 1221 33T1372 478Q1372 767 1220 925T791 1083Q516
1083 365 926T214 481Q214 192 366 34T795 -124Z" />
<glyph unicode="&#xaa;" horiz-adv-x="542" d="M316 572Q316 622 317 673T319 771V823Q319 908 233 908Q176 908 126 873L71 820Q68 876 78 928Q173 977 281 977Q448 977 448 843Q448 820 447 768T445 663T444 586L316 572ZM71 820L79 889L194 923L136 820H71ZM183
498Q117 498 78 532T39 625Q39 747 236 786L350 808L359 747L265 737Q172 727 172 654Q172 579 241 579Q289 579 359 624L371 593Q288 498 183 498ZM350 504L322 589L444 618V544L424 580L504 559L500 512Q442 504 350 504Z" />
<glyph unicode="&#xab;" horiz-adv-x="834" d="M197 364L64 372Q63 386 63 400T68 426L372 736L438 682L197 364ZM372 57L64 372L197 429L438 111L372 57ZM527 364L394 372Q393 386 393 400T398 426L702 736L768 682L527 364ZM702 57L394 372L527 429L768 111L702 57Z" />
<glyph unicode="&#xac;" horiz-adv-x="806" d="M94 573V683H712V573H94ZM602 257V635H712V257H602Z" />
<glyph unicode="&#xad;" horiz-adv-x="600" d="M94 388V510H520V388H94Z" />
<glyph unicode="&#xae;" horiz-adv-x="1163" d="M579 298Q429 298 319 358T149 528T88 789Q88 941 149 1052T321 1224T584 1285Q734 1285 844 1225T1015 1054T1075 794Q1075 643 1014 532T842 359T579 298ZM583 386Q765 386 864 492T964 790Q964 984 863 1090T579
1197Q398 1197 298 1091T198 793Q198 600 299 493T583 386ZM702 544L545 747L645 769L801 585L762 601L829 587L827 544H702ZM561 734Q511 734 454 740L461 803Q518 797 570 797Q662 797 662 887Q662 981 574 981H464V1039H578Q673 1039 723 1003T774 898Q774 835
737 794T637 745L596 736Q588 735 579 735T561 734ZM421 552V1032H525V552H421ZM571 1039L569 999Q556 994 545 989T515 980L525 1025V947H421V1025L430 984L367 998L370 1039H571ZM369 544L372 584Q385 589 399 594T431 604L421 566V636H525V566L517 600L579 585L577
544H369Z" />
<glyph unicode="&#xaf;" horiz-adv-x="800" d="M168 1012H632V906H168V1012Z" />
<glyph unicode="&#xb0;" horiz-adv-x="630" d="M315 562Q208 562 140 628T72 800Q72 905 140 971T315 1038Q422 1038 490 972T558 800Q558 695 490 629T315 562ZM326 662Q444 662 444 788Q444 857 407 897T304 938Q186 938 186 812Q186 743 224 703T326 662Z" />
<glyph unicode="&#xb1;" horiz-adv-x="806" d="M94 565V675H712V565H94ZM94 95V205H712V95H94ZM348 313V927H458V313H348Z" />
<glyph unicode="&#xb2;" horiz-adv-x="518" d="M24 572L30 632L129 726Q203 796 243 840T298 917T314 983Q314 1065 226 1065Q171 1065 121 1032L47 939Q46 974 49 1014T60 1080Q149 1134 267 1134Q357 1134 407 1097T457 989Q457 946 436 902T362 800T216 661L114
572H24ZM24 572L114 637H464L463 572H24ZM463 572L360 617L422 726H478Q481 651 463 572ZM47 939L60 1062L190 1079L111 939H47Z" />
<glyph unicode="&#xb3;" horiz-adv-x="516" d="M245 562Q123 562 50 621Q42 649 39 685T37 761L111 670Q160 632 238 632Q331 632 331 721Q331 822 234 822H187L193 894L239 890Q352 890 413 850T474 733Q474 655 412 609T245 562ZM179 621L59 646L37 761H99L179
621ZM57 944L72 1049L200 1083L121 944H57ZM224 839L193 894H230Q314 894 314 976Q314 1065 229 1065Q176 1065 125 1032L57 944Q56 984 59 1020T70 1084Q112 1107 166 1120T270 1134Q354 1134 403 1096T453 994Q453 923 391 881T224 839Z" />
<glyph unicode="&#xb4;" horiz-adv-x="800" d="M324 833L260 870L455 1145Q542 1142 614 1106L611 1076L324 833Z" />
<glyph unicode="&#xb5;" horiz-adv-x="867" d="M709 146H559V745Q633 756 719 756Q714 671 712 546T709 249V146ZM576 157L709 176Q709 136 736 115T829 82L824 18Q766 -3 714 -3Q650 -3 619 33T576 157ZM113 745Q187 756 273 756L244 308Q244 166 249 4T263 -319Q189
-330 103 -330Q108 -244 110 -119T113 177V745ZM369 -13Q183 -13 183 217V715L273 756Q268 671 266 546T263 249Q263 175 294 141T392 107Q475 107 523 153T580 286L609 241Q599 119 537 53T369 -13Z" />
<glyph unicode="&#xb6;" horiz-adv-x="913" d="M346 430Q212 430 133 506T54 710Q54 838 134 914T351 990H511V442Q464 436 425 433T346 430ZM635 -210V976H759V-210H635ZM443 892V990H720V892H443ZM397 -210V990H521V-210H397ZM873 990L868 930Q841 919 810 910T740
891L759 965V828H655V990H873Z" />
<glyph unicode="&#xb7;" horiz-adv-x="408" d="M204 414Q154 414 124 443T94 522Q94 572 124 601T204 630Q254 630 284 601T314 522Q314 473 284 444T204 414Z" />
<glyph unicode="&#xb8;" horiz-adv-x="800" d="M279 -364L259 -298Q276 -297 290 -295T315 -291Q352 -283 377 -261T402 -204Q402 -160 357 -160Q336 -160 315 -167L286 -116L306 -103Q332 -93 358 -88T408 -83Q464 -83 497 -111T531 -189Q531 -251 475 -297T324
-359Q303 -362 279 -364ZM347 -123L286 -116L328 60H419L347 -123Z" />
<glyph unicode="&#xb9;" horiz-adv-x="437" d="M166 580V1071L299 1124V580H166ZM184 1018L53 1032L51 1075Q98 1095 151 1109T260 1131H299V1051L184 1018ZM60 572L64 620Q90 626 121 631T186 640L166 586V674H299V586L282 636L401 621L397 572H60Z" />
<glyph unicode="&#xba;" horiz-adv-x="573" d="M286 496Q172 496 105 561T38 736Q38 847 105 912T288 978Q401 978 468 913T535 738Q535 627 468 562T286 496ZM296 567Q392 567 392 721Q392 810 362 858T277 907Q181 907 181 753Q181 663 211 615T296 567Z" />
<glyph unicode="&#xbb;" horiz-adv-x="834" d="M637 429L770 421Q772 407 771 393T766 367L462 57L396 111L637 429ZM462 736L770 421L637 364L396 682L462 736ZM307 429L440 421Q442 407 441 393T436 367L132 57L66 111L307 429ZM132 736L440 421L307 364L66
682L132 736Z" />
<glyph unicode="&#xbc;" horiz-adv-x="1127" d="M149 504V943L272 990V504H149ZM166 893L48 906L46 946Q88 964 137 977T236 996H272V925L166 893ZM54 496L57 540Q81 545 109 549T168 558L149 509V588H272V509L256 554L364 541L360 496H54ZM167 -5L795 990Q856
1000 921 995L293 0Q232 -10 167 -5ZM712 150L649 169L897 494H966L712 150ZM644 116L649 169L703 175H1106L1102 116H644ZM889 0V441L897 494H1009V0H889ZM827 0L831 44Q846 50 866 54T907 63L889 13V92H1009V13L992 59L1073 45L1069 0H827Z" />
<glyph unicode="&#xbd;" horiz-adv-x="1162" d="M149 504V943L272 990V504H149ZM166 893L48 906L46 946Q88 964 137 977T236 996H272V925L166 893ZM54 496L57 540Q81 545 109 549T168 558L149 509V588H272V509L256 554L364 541L360 496H54ZM167 -5L795 990Q856
1000 921 995L293 0Q232 -10 167 -5ZM713 0L718 55L807 139Q874 202 910 241T960 309T975 368Q975 440 896 440Q848 440 802 411L734 327Q733 358 736 395T746 455Q828 503 933 503Q1016 503 1061 470T1107 374Q1107 335 1088 295T1021 203T888 78L797 0H713ZM713
0L796 59H1113V0H713ZM1112 0L1018 42L1074 139H1126Q1128 108 1124 72T1112 0ZM734 327L746 439L864 452L792 327H734Z" />
<glyph unicode="&#xbe;" horiz-adv-x="1200" d="M223 488Q112 488 46 540Q31 590 34 667L102 585Q147 551 216 551Q299 551 299 630Q299 719 213 719H170L175 785L218 781Q321 781 376 745T432 640Q432 570 376 529T223 488ZM163 542L54 564L34 667H91L163 542ZM52
827L65 921L182 952L111 827H52ZM204 735L175 785H209Q284 785 284 857Q284 936 209 936Q162 936 115 907L52 827Q51 864 54 897T64 955Q102 975 151 987T246 999Q323 999 368 965T413 873Q413 810 357 773T204 735ZM240 -5L868 990Q929 1000 994 995L366 0Q305
-10 240 -5ZM785 150L722 169L970 494H1039L785 150ZM717 116L722 169L776 175H1179L1175 116H717ZM962 0V441L970 494H1082V0H962ZM900 0L904 44Q919 50 939 54T980 63L962 13V92H1082V13L1065 59L1146 45L1142 0H900Z" />
<glyph unicode="&#xbf;" horiz-adv-x="683" d="M432 426L445 265L407 240Q301 170 263 119T224 -2Q224 -168 382 -168Q471 -168 550 -110L634 48Q636 -13 631 -70T614 -173Q553 -213 473 -237T316 -261Q193 -261 121 -198T48 -27Q48 33 76 87T170 199T353 328L374
341L332 301L342 426H432ZM634 48L611 -140L431 -201L552 48H634ZM387 760Q437 760 467 731T497 652Q497 603 467 574T387 544Q337 544 307 573T277 652Q277 702 307 731T387 760Z" />
<glyph unicode="&#xc0;" horiz-adv-x="1014" d="M589 996L918 65L874 94L1005 66L1000 0H626L631 68Q680 89 750 103L737 75L457 927L423 991Q458 996 503 997T589 996ZM529 990L221 65L214 95L336 66L331 0H16L21 64Q46 77 77 86T141 102L96 65L423 991L529 990ZM246
281L279 377H704L738 281H246ZM651 1077L292 1209L289 1239Q339 1292 420 1325L698 1134L651 1077Z" />
<glyph unicode="&#xc1;" horiz-adv-x="1014" d="M589 996L918 65L874 94L1005 66L1000 0H626L631 68Q680 89 750 103L737 75L457 927L423 991Q458 996 503 997T589 996ZM529 990L221 65L214 95L336 66L331 0H16L21 64Q46 77 77 86T141 102L96 65L423 991L529 990ZM246
281L279 377H704L738 281H246ZM355 1077L308 1134L596 1325Q677 1292 727 1239L724 1209L355 1077Z" />
<glyph unicode="&#xc2;" horiz-adv-x="1014" d="M569 1329L798 1119L748 1061L441 1241L569 1329ZM569 1329L561 1242L264 1055L214 1110L439 1324Q473 1329 501 1330T569 1329ZM589 996L918 65L874 94L1005 66L1000 0H626L631 68Q680 89 750 103L737 75L457 927L423
991Q458 996 503 997T589 996ZM529 990L221 65L214 95L336 66L331 0H16L21 64Q46 77 77 86T141 102L96 65L423 991L529 990ZM246 281L279 377H704L738 281H246Z" />
<glyph unicode="&#xc3;" horiz-adv-x="1014" d="M589 996L918 65L874 94L1005 66L1000 0H626L631 68Q680 89 750 103L737 75L457 927L423 991Q458 996 503 997T589 996ZM529 990L221 65L214 95L336 66L331 0H16L21 64Q46 77 77 86T141 102L96 65L423 991L529 990ZM246
281L279 377H704L738 281H246ZM299 1076L234 1118Q306 1291 422 1291Q472 1291 503 1268T559 1222T610 1198Q658 1198 717 1297L782 1255Q710 1082 594 1082Q544 1082 512 1105T457 1152T406 1175Q358 1175 299 1076Z" />
<glyph unicode="&#xc4;" horiz-adv-x="1014" d="M342 1108Q298 1108 273 1134T247 1204Q247 1248 272 1274T342 1300Q386 1300 411 1274T437 1204Q437 1160 412 1134T342 1108ZM674 1108Q630 1108 605 1134T579 1204Q579 1248 604 1274T674 1300Q718 1300 743
1274T769 1204Q769 1160 744 1134T674 1108ZM589 996L918 65L874 94L1005 66L1000 0H626L631 68Q680 89 750 103L737 75L457 927L423 991Q458 996 503 997T589 996ZM529 990L221 65L214 95L336 66L331 0H16L21 64Q46 77 77 86T141 102L96 65L423 991L529 990ZM246
281L279 377H704L738 281H246Z" />
<glyph unicode="&#xc5;" horiz-adv-x="1014" d="M589 996L918 65L874 94L1005 66L1000 0H626L631 68Q680 89 750 103L737 75L457 927L423 991Q458 996 503 997T589 996ZM529 990L221 65L214 95L336 66L331 0H16L21 64Q46 77 77 86T141 102L96 65L423 991L529 990ZM246
281L279 377H704L738 281H246ZM508 1074Q425 1074 376 1120T327 1245Q327 1324 376 1370T508 1416Q591 1416 640 1370T689 1245Q689 1166 640 1120T508 1074ZM516 1152Q595 1152 595 1236Q595 1283 570 1310T500 1338Q421 1338 421 1253Q421 1207 447 1180T516
1152Z" />
<glyph unicode="&#xc6;" horiz-adv-x="1372" d="M-4 0L1 64Q26 77 57 86T121 102L69 64L593 990H709L203 61L204 95L326 66L321 0H-4ZM550 0L555 64Q607 85 682 103L662 28V168H828V28L811 95L944 66L939 0H550ZM256 300L299 398H741V300H256ZM672 0V100H1255L1279
0H672ZM662 15V976H828V15H662ZM1279 0L1120 53L1243 285H1320Q1322 233 1311 154T1279 0ZM731 455V561H1138L1130 455H731ZM560 895L404 924L409 990H640L560 895ZM680 890L592 893L662 990H1268L1249 890H680ZM1207 723L1117 933L1268 990Q1282 923 1286 854T1286
723H1207Z" />
<glyph unicode="&#xc7;" horiz-adv-x="959" d="M586 -17Q336 -17 202 110T68 474Q68 637 130 756T306 941T576 1007Q655 1007 731 991T856 946Q874 826 866 709H793L697 933L786 856Q679 911 558 911Q260 911 260 510Q260 79 604 79Q729 79 832 135L826 77L693
65L816 297H893Q895 181 861 45Q810 16 737 0T586 -17ZM431 -364L410 -296Q428 -295 442 -293T468 -289Q509 -281 532 -258T556 -204Q556 -162 511 -162Q490 -162 469 -169L439 -116L460 -103Q486 -93 512 -88T562 -83Q618 -83 652 -111T687 -189Q687 -251 630
-297T478 -359Q457 -362 431 -364ZM439 -116L481 60H574L502 -123L439 -116Z" />
<glyph unicode="&#xc8;" horiz-adv-x="912" d="M170 15V976H338V15H170ZM255 0V100H795L819 0H255ZM819 0L660 53L783 285H860Q862 233 851 154T819 0ZM239 454V562H678L670 454H239ZM197 890V990H808L789 890H197ZM747 723L657 933L808 990Q822 923 826 854T826
723H747ZM58 0L63 64Q115 85 190 103L170 28V168H338V28L321 95L454 66L449 0H58ZM450 990L445 926Q393 905 318 887L338 962V822H170V962L187 895L54 924L59 990H450ZM617 1077L258 1209L255 1239Q305 1292 386 1325L664 1134L617 1077Z" />
<glyph unicode="&#xc9;" horiz-adv-x="912" d="M170 15V976H338V15H170ZM255 0V100H795L819 0H255ZM819 0L660 53L783 285H860Q862 233 851 154T819 0ZM239 454V562H678L670 454H239ZM197 890V990H808L789 890H197ZM747 723L657 933L808 990Q822 923 826 854T826
723H747ZM58 0L63 64Q115 85 190 103L170 28V168H338V28L321 95L454 66L449 0H58ZM450 990L445 926Q393 905 318 887L338 962V822H170V962L187 895L54 924L59 990H450ZM321 1077L274 1134L562 1325Q643 1292 693 1239L690 1209L321 1077Z" />
<glyph unicode="&#xca;" horiz-adv-x="912" d="M535 1329L764 1119L714 1061L407 1241L535 1329ZM535 1329L527 1242L230 1055L180 1110L405 1324Q439 1329 467 1330T535 1329ZM170 15V976H338V15H170ZM255 0V100H795L819 0H255ZM819 0L660 53L783 285H860Q862
233 851 154T819 0ZM239 454V562H678L670 454H239ZM197 890V990H808L789 890H197ZM747 723L657 933L808 990Q822 923 826 854T826 723H747ZM58 0L63 64Q115 85 190 103L170 28V168H338V28L321 95L454 66L449 0H58ZM450 990L445 926Q393 905 318 887L338 962V822H170V962L187
895L54 924L59 990H450Z" />
<glyph unicode="&#xcb;" horiz-adv-x="912" d="M308 1108Q264 1108 239 1134T213 1204Q213 1248 238 1274T308 1300Q352 1300 377 1274T403 1204Q403 1160 378 1134T308 1108ZM640 1108Q596 1108 571 1134T545 1204Q545 1248 570 1274T640 1300Q684 1300 709 1274T735
1204Q735 1160 710 1134T640 1108ZM170 15V976H338V15H170ZM255 0V100H795L819 0H255ZM819 0L660 53L783 285H860Q862 233 851 154T819 0ZM239 454V562H678L670 454H239ZM197 890V990H808L789 890H197ZM747 723L657 933L808 990Q822 923 826 854T826 723H747ZM58
0L63 64Q115 85 190 103L170 28V168H338V28L321 95L454 66L449 0H58ZM450 990L445 926Q393 905 318 887L338 962V822H170V962L187 895L54 924L59 990H450Z" />
<glyph unicode="&#xcc;" horiz-adv-x="512" d="M172 15V976H340V15H172ZM60 0L65 64Q117 85 192 103L172 28V168H340V28L323 95L456 66L451 0H60ZM452 990L447 926Q395 905 320 887L340 962V822H172V962L189 895L56 924L61 990H452ZM399 1077L40 1209L37 1239Q87
1292 168 1325L446 1134L399 1077Z" />
<glyph unicode="&#xcd;" horiz-adv-x="512" d="M172 15V976H340V15H172ZM60 0L65 64Q117 85 192 103L172 28V168H340V28L323 95L456 66L451 0H60ZM452 990L447 926Q395 905 320 887L340 962V822H172V962L189 895L56 924L61 990H452ZM103 1077L56 1134L344 1325Q425
1292 475 1239L472 1209L103 1077Z" />
<glyph unicode="&#xce;" horiz-adv-x="512" d="M317 1329L546 1119L496 1061L189 1241L317 1329ZM317 1329L309 1242L12 1055L-38 1110L187 1324Q221 1329 249 1330T317 1329ZM172 15V976H340V15H172ZM60 0L65 64Q117 85 192 103L172 28V168H340V28L323 95L456
66L451 0H60ZM452 990L447 926Q395 905 320 887L340 962V822H172V962L189 895L56 924L61 990H452Z" />
<glyph unicode="&#xcf;" horiz-adv-x="512" d="M112 1108Q68 1108 43 1134T17 1204Q17 1248 42 1274T112 1300Q156 1300 181 1274T207 1204Q207 1160 182 1134T112 1108ZM400 1108Q356 1108 331 1134T305 1204Q305 1248 330 1274T400 1300Q444 1300 469 1274T495
1204Q495 1160 470 1134T400 1108ZM172 15V976H340V15H172ZM60 0L65 64Q117 85 192 103L172 28V168H340V28L323 95L456 66L451 0H60ZM452 990L447 926Q395 905 320 887L340 962V822H172V962L189 895L56 924L61 990H452Z" />
<glyph unicode="&#xd0;" horiz-adv-x="1038" d="M53 547H567V467H53V547ZM256 0V100H498Q635 100 708 202T782 496Q782 890 445 890H256V990H454Q705 990 839 866T974 512Q974 356 913 241T741 63T478 0H256ZM170 15V976H338V15H170ZM58 0L63 64Q115 85 190 103L170
28V168H338V28L321 95L454 66L449 0H58ZM450 990L445 926Q393 905 318 887L338 962V822H170V962L187 895L54 924L59 990H450Z" />
<glyph unicode="&#xd1;" horiz-adv-x="1076" d="M810 -6L178 886L290 990L922 96L930 -1Q877 -12 810 -6ZM170 15V976L296 917V15H170ZM304 818L187 877L54 924L59 990H290L304 818ZM930 -1L804 44V976H930V-1ZM58 0L63 64Q115 85 190 103L170 28V168H296V28L277
95L426 66L421 0H58ZM1036 990L1031 926Q972 901 909 887L930 962V822H804V962L821 895L688 924L693 990H1036ZM339 1076L274 1118Q346 1291 462 1291Q512 1291 543 1268T599 1222T650 1198Q698 1198 757 1297L822 1255Q750 1082 634 1082Q584 1082 552 1105T497
1152T446 1175Q398 1175 339 1076Z" />
<glyph unicode="&#xd2;" horiz-adv-x="1074" d="M536 -18Q393 -18 288 45T126 223T68 494Q68 651 125 766T288 945T537 1008Q680 1008 785 945T948 768T1006 496Q1006 339 949 224T786 45T536 -18ZM562 80Q814 80 814 458Q814 676 736 793T512 910Q260 910 260
532Q260 313 338 197T562 80ZM680 1077L321 1209L318 1239Q368 1292 449 1325L727 1134L680 1077Z" />
<glyph unicode="&#xd3;" horiz-adv-x="1074" d="M536 -18Q393 -18 288 45T126 223T68 494Q68 651 125 766T288 945T537 1008Q680 1008 785 945T948 768T1006 496Q1006 339 949 224T786 45T536 -18ZM562 80Q814 80 814 458Q814 676 736 793T512 910Q260 910 260
532Q260 313 338 197T562 80ZM384 1077L337 1134L625 1325Q706 1292 756 1239L753 1209L384 1077Z" />
<glyph unicode="&#xd4;" horiz-adv-x="1074" d="M598 1329L827 1119L777 1061L470 1241L598 1329ZM598 1329L590 1242L293 1055L243 1110L468 1324Q502 1329 530 1330T598 1329ZM536 -18Q393 -18 288 45T126 223T68 494Q68 651 125 766T288 945T537 1008Q680 1008
785 945T948 768T1006 496Q1006 339 949 224T786 45T536 -18ZM562 80Q814 80 814 458Q814 676 736 793T512 910Q260 910 260 532Q260 313 338 197T562 80Z" />
<glyph unicode="&#xd5;" horiz-adv-x="1074" d="M536 -18Q393 -18 288 45T126 223T68 494Q68 651 125 766T288 945T537 1008Q680 1008 785 945T948 768T1006 496Q1006 339 949 224T786 45T536 -18ZM562 80Q814 80 814 458Q814 676 736 793T512 910Q260 910 260
532Q260 313 338 197T562 80ZM328 1076L263 1118Q335 1291 451 1291Q501 1291 532 1268T588 1222T639 1198Q687 1198 746 1297L811 1255Q739 1082 623 1082Q573 1082 541 1105T486 1152T435 1175Q387 1175 328 1076Z" />
<glyph unicode="&#xd6;" horiz-adv-x="1074" d="M371 1108Q327 1108 302 1134T276 1204Q276 1248 301 1274T371 1300Q415 1300 440 1274T466 1204Q466 1160 441 1134T371 1108ZM703 1108Q659 1108 634 1134T608 1204Q608 1248 633 1274T703 1300Q747 1300 772
1274T798 1204Q798 1160 773 1134T703 1108ZM536 -18Q393 -18 288 45T126 223T68 494Q68 651 125 766T288 945T537 1008Q680 1008 785 945T948 768T1006 496Q1006 339 949 224T786 45T536 -18ZM562 80Q814 80 814 458Q814 676 736 793T512 910Q260 910 260 532Q260
313 338 197T562 80Z" />
<glyph unicode="&#xd7;" horiz-adv-x="806" d="M195 194L689 688L611 766L117 272L195 194ZM611 194L689 272L195 766L117 688L611 194Z" />
<glyph unicode="&#xd8;" horiz-adv-x="1074" d="M536 -18Q393 -18 288 45T126 223T68 494Q68 651 125 766T288 945T537 1008Q680 1008 785 945T948 768T1006 496Q1006 339 949 224T786 45T536 -18ZM562 80Q814 80 814 458Q814 676 736 793T512 910Q260 910 260
532Q260 313 338 197T562 80ZM160 -59L88 -2L914 1049L986 992L160 -59Z" />
<glyph unicode="&#xd9;" horiz-adv-x="1032" d="M518 -17Q348 -17 247 66T146 289L318 310Q318 210 376 156T541 101Q648 101 706 155T764 310L890 289Q890 149 789 66T518 -17ZM146 289V976H318V310L146 289ZM146 822V962L161 895L40 924L45 990H444L439 926Q416
917 379 907T295 887L318 962V822H146ZM890 289L764 310V976H890V289ZM764 822V962L783 895L634 924L639 990H992L987 926Q941 904 871 887L890 962V822H764ZM682 1077L323 1209L320 1239Q370 1292 451 1325L729 1134L682 1077Z" />
<glyph unicode="&#xda;" horiz-adv-x="1032" d="M518 -17Q348 -17 247 66T146 289L318 310Q318 210 376 156T541 101Q648 101 706 155T764 310L890 289Q890 149 789 66T518 -17ZM146 289V976H318V310L146 289ZM146 822V962L161 895L40 924L45 990H444L439 926Q416
917 379 907T295 887L318 962V822H146ZM890 289L764 310V976H890V289ZM764 822V962L783 895L634 924L639 990H992L987 926Q941 904 871 887L890 962V822H764ZM386 1077L339 1134L627 1325Q708 1292 758 1239L755 1209L386 1077Z" />
<glyph unicode="&#xdb;" horiz-adv-x="1032" d="M600 1329L829 1119L779 1061L472 1241L600 1329ZM600 1329L592 1242L295 1055L245 1110L470 1324Q504 1329 532 1330T600 1329ZM518 -17Q348 -17 247 66T146 289L318 310Q318 210 376 156T541 101Q648 101 706
155T764 310L890 289Q890 149 789 66T518 -17ZM146 289V976H318V310L146 289ZM146 822V962L161 895L40 924L45 990H444L439 926Q416 917 379 907T295 887L318 962V822H146ZM890 289L764 310V976H890V289ZM764 822V962L783 895L634 924L639 990H992L987 926Q941
904 871 887L890 962V822H764Z" />
<glyph unicode="&#xdc;" horiz-adv-x="1032" d="M373 1108Q329 1108 304 1134T278 1204Q278 1248 303 1274T373 1300Q417 1300 442 1274T468 1204Q468 1160 443 1134T373 1108ZM705 1108Q661 1108 636 1134T610 1204Q610 1248 635 1274T705 1300Q749 1300 774
1274T800 1204Q800 1160 775 1134T705 1108ZM518 -17Q348 -17 247 66T146 289L318 310Q318 210 376 156T541 101Q648 101 706 155T764 310L890 289Q890 149 789 66T518 -17ZM146 289V976H318V310L146 289ZM146 822V962L161 895L40 924L45 990H444L439 926Q416 917
379 907T295 887L318 962V822H146ZM890 289L764 310V976H890V289ZM764 822V962L783 895L634 924L639 990H992L987 926Q941 904 871 887L890 962V822H764Z" />
<glyph unicode="&#xdd;" horiz-adv-x="946" d="M395 334L92 925L140 896L9 924L14 990H398L393 924Q346 904 265 890L273 915L529 403L553 339L395 334ZM445 340L729 925L734 895L600 924L605 990H930L925 926Q900 913 869 904T805 888L854 925L553 339L445 340ZM390
15V404H558V15H390ZM262 0L267 64Q297 75 334 85T410 102L390 28V168H558V28L539 95L690 66L685 0H262ZM342 1077L295 1134L583 1325Q664 1292 714 1239L711 1209L342 1077Z" />
<glyph unicode="&#xde;" horiz-adv-x="873" d="M439 198Q339 198 225 210L240 304Q353 292 457 292Q665 292 665 497Q665 698 465 698H215V798H474Q656 798 753 726T851 519Q851 372 740 285T439 198ZM58 0L63 64Q87 76 117 86T180 102L160 28V168H326V28L306
95L462 66L457 0H58ZM160 15V976H326V15H160ZM160 822V962L176 895L54 924L59 990H458L453 926Q392 905 303 888L326 962V822H160Z" />
<glyph unicode="&#xdf;" horiz-adv-x="945" d="M596 -16Q492 -16 411 23Q403 61 399 110T398 210H472L554 38L471 107Q536 72 612 72Q731 72 731 180Q731 239 703 274T632 335T548 387T478 456T449 568Q449 632 472 667T524 730T577 796T600 901Q600 1040 477
1040Q390 1040 344 976T297 792V6H137V732Q137 917 233 1025T493 1134Q612 1134 682 1077T752 923Q752 863 729 823T675 751T621 688T597 613Q597 566 626 537T697 484T782 430T854 352T883 226Q883 109 809 47T596 -16ZM35 0L40 60Q69 74 98 83T156 99L137 26V162H297V0H35Z"
/>
<glyph unicode="&#xe0;" horiz-adv-x="772" d="M468 108Q468 191 470 277T472 440V528Q472 670 334 670Q243 670 166 612L102 531Q99 617 112 688Q246 763 395 763Q630 763 630 539Q630 511 629 456T627 337T625 218T624 132L468 108ZM102 531L116 645L269 703L187
531H102ZM263 -15Q168 -15 112 39T56 186Q56 385 345 446L508 480L518 394L375 376Q293 366 256 332T219 229Q219 97 333 97Q413 97 519 172L537 136Q416 -15 263 -15ZM508 -3L474 127L624 170V61L602 101L724 66L719 8Q637 -5 508 -3ZM444 833L167 1076L164 1106Q236
1142 323 1145L508 870L444 833Z" />
<glyph unicode="&#xe1;" horiz-adv-x="772" d="M468 108Q468 191 470 277T472 440V528Q472 670 334 670Q243 670 166 612L102 531Q99 617 112 688Q246 763 395 763Q630 763 630 539Q630 511 629 456T627 337T625 218T624 132L468 108ZM102 531L116 645L269 703L187
531H102ZM263 -15Q168 -15 112 39T56 186Q56 385 345 446L508 480L518 394L375 376Q293 366 256 332T219 229Q219 97 333 97Q413 97 519 172L537 136Q416 -15 263 -15ZM508 -3L474 127L624 170V61L602 101L724 66L719 8Q637 -5 508 -3ZM282 833L218 870L413 1145Q500
1142 572 1106L569 1076L282 833Z" />
<glyph unicode="&#xe2;" horiz-adv-x="772" d="M415 1130L606 883L549 836L280 1067L415 1130ZM415 1130L420 1067L162 831L106 875L293 1125Q327 1130 351 1131T415 1130ZM468 108Q468 191 470 277T472 440V528Q472 670 334 670Q243 670 166 612L102 531Q99 617
112 688Q246 763 395 763Q630 763 630 539Q630 511 629 456T627 337T625 218T624 132L468 108ZM102 531L116 645L269 703L187 531H102ZM263 -15Q168 -15 112 39T56 186Q56 385 345 446L508 480L518 394L375 376Q293 366 256 332T219 229Q219 97 333 97Q413 97 519
172L537 136Q416 -15 263 -15ZM508 -3L474 127L624 170V61L602 101L724 66L719 8Q637 -5 508 -3Z" />
<glyph unicode="&#xe3;" horiz-adv-x="772" d="M468 108Q468 191 470 277T472 440V528Q472 670 334 670Q243 670 166 612L102 531Q99 617 112 688Q246 763 395 763Q630 763 630 539Q630 511 629 456T627 337T625 218T624 132L468 108ZM102 531L116 645L269 703L187
531H102ZM263 -15Q168 -15 112 39T56 186Q56 385 345 446L508 480L518 394L375 376Q293 366 256 332T219 229Q219 97 333 97Q413 97 519 172L537 136Q416 -15 263 -15ZM508 -3L474 127L624 170V61L602 101L724 66L719 8Q637 -5 508 -3ZM149 852L84 894Q156 1067
272 1067Q322 1067 353 1044T409 998T460 974Q508 974 567 1073L632 1031Q560 858 444 858Q394 858 362 881T307 928T256 951Q208 951 149 852Z" />
<glyph unicode="&#xe4;" horiz-adv-x="772" d="M202 884Q158 884 133 910T107 980Q107 1024 132 1050T202 1076Q246 1076 271 1050T297 980Q297 936 272 910T202 884ZM514 884Q470 884 445 910T419 980Q419 1024 444 1050T514 1076Q558 1076 583 1050T609 980Q609
936 584 910T514 884ZM468 108Q468 191 470 277T472 440V528Q472 670 334 670Q243 670 166 612L102 531Q99 617 112 688Q246 763 395 763Q630 763 630 539Q630 511 629 456T627 337T625 218T624 132L468 108ZM102 531L116 645L269 703L187 531H102ZM263 -15Q168
-15 112 39T56 186Q56 385 345 446L508 480L518 394L375 376Q293 366 256 332T219 229Q219 97 333 97Q413 97 519 172L537 136Q416 -15 263 -15ZM508 -3L474 127L624 170V61L602 101L724 66L719 8Q637 -5 508 -3Z" />
<glyph unicode="&#xe5;" horiz-adv-x="772" d="M468 108Q468 191 470 277T472 440V528Q472 670 334 670Q243 670 166 612L102 531Q99 617 112 688Q246 763 395 763Q630 763 630 539Q630 511 629 456T627 337T625 218T624 132L468 108ZM102 531L116 645L269 703L187
531H102ZM263 -15Q168 -15 112 39T56 186Q56 385 345 446L508 480L518 394L375 376Q293 366 256 332T219 229Q219 97 333 97Q413 97 519 172L537 136Q416 -15 263 -15ZM508 -3L474 127L624 170V61L602 101L724 66L719 8Q637 -5 508 -3ZM358 850Q275 850 226 896T177
1021Q177 1100 226 1146T358 1192Q441 1192 490 1146T539 1021Q539 942 490 896T358 850ZM366 928Q445 928 445 1012Q445 1059 420 1086T350 1114Q271 1114 271 1029Q271 983 297 956T366 928Z" />
<glyph unicode="&#xe6;" horiz-adv-x="1140" d="M810 -16Q636 -16 543 75T449 336Q449 442 476 521L517 587Q548 673 618 718T788 764Q930 764 1006 673T1082 410Q1082 398 1082 386T1080 367L912 383Q912 537 878 605T765 673Q613 673 613 419Q613 99 860 99Q949
99 1059 140L1052 47Q1000 16 941 0T810 -16ZM453 320L454 440V528Q454 671 324 671Q241 671 164 613L102 531Q99 617 112 688Q176 724 246 743T385 763Q492 763 541 710T591 539V320H453ZM102 531L116 645L267 703L185 531H102ZM253 -15Q163 -15 110 39T56 186Q56
289 125 352T325 434L492 457L500 375L366 367Q287 362 252 330T217 229Q217 96 323 96Q406 96 509 180L554 140Q411 -15 253 -15ZM506 363V443L1064 447L1080 367L506 363Z" />
<glyph unicode="&#xe7;" horiz-adv-x="718" d="M426 -16Q251 -16 157 81T62 358Q62 544 159 654T422 764Q543 764 637 710Q645 673 649 625T650 525H570L488 697L574 622Q536 645 492 658T411 671Q328 671 283 600T238 395Q238 100 479 100Q575 100 674 137L667
43Q571 -16 426 -16ZM283 -364L263 -298Q280 -297 294 -295T319 -291Q356 -283 381 -261T406 -204Q406 -160 361 -160Q340 -160 319 -167L290 -116L310 -103Q336 -93 362 -88T412 -83Q468 -83 501 -111T535 -189Q535 -251 479 -297T328 -359Q307 -362 283 -364ZM351
-123L290 -116L332 60H423L351 -123Z" />
<glyph unicode="&#xe8;" horiz-adv-x="779" d="M439 -16Q258 -16 160 82T62 362Q62 547 158 655T417 764Q563 764 642 673T721 410Q721 395 720 380T717 351L549 383Q549 536 513 604T394 672Q234 672 234 419Q234 100 489 100Q589 100 698 141L691 47Q644 17
579 1T439 -16ZM127 351V433H701L717 351H127ZM483 833L206 1076L203 1106Q275 1142 362 1145L547 870L483 833Z" />
<glyph unicode="&#xe9;" horiz-adv-x="779" d="M439 -16Q258 -16 160 82T62 362Q62 547 158 655T417 764Q563 764 642 673T721 410Q721 395 720 380T717 351L549 383Q549 536 513 604T394 672Q234 672 234 419Q234 100 489 100Q589 100 698 141L691 47Q644 17
579 1T439 -16ZM127 351V433H701L717 351H127ZM321 833L257 870L452 1145Q539 1142 611 1106L608 1076L321 833Z" />
<glyph unicode="&#xea;" horiz-adv-x="779" d="M454 1130L645 883L588 836L319 1067L454 1130ZM454 1130L459 1067L201 831L145 875L332 1125Q366 1130 390 1131T454 1130ZM439 -16Q258 -16 160 82T62 362Q62 547 158 655T417 764Q563 764 642 673T721 410Q721
395 720 380T717 351L549 383Q549 536 513 604T394 672Q234 672 234 419Q234 100 489 100Q589 100 698 141L691 47Q644 17 579 1T439 -16ZM127 351V433H701L717 351H127Z" />
<glyph unicode="&#xeb;" horiz-adv-x="779" d="M241 884Q197 884 172 910T146 980Q146 1024 171 1050T241 1076Q285 1076 310 1050T336 980Q336 936 311 910T241 884ZM553 884Q509 884 484 910T458 980Q458 1024 483 1050T553 1076Q597 1076 622 1050T648 980Q648
936 623 910T553 884ZM439 -16Q258 -16 160 82T62 362Q62 547 158 655T417 764Q563 764 642 673T721 410Q721 395 720 380T717 351L549 383Q549 536 513 604T394 672Q234 672 234 419Q234 100 489 100Q589 100 698 141L691 47Q644 17 579 1T439 -16ZM127 351V433H701L717
351H127Z" />
<glyph unicode="&#xec;" horiz-adv-x="480" d="M166 6V675L326 694V6H166ZM166 509V637L190 593L52 659L56 701Q100 721 158 735T282 755H326V596L166 509ZM58 0L63 60Q89 72 119 81T186 99L166 25V162H326V25L309 91L438 62L433 0H58ZM313 833L36 1076L33 1106Q105
1142 192 1145L377 870L313 833Z" />
<glyph unicode="&#xed;" horiz-adv-x="480" d="M166 6V675L326 694V6H166ZM166 509V637L190 593L52 659L56 701Q100 721 158 735T282 755H326V596L166 509ZM58 0L63 60Q89 72 119 81T186 99L166 25V162H326V25L309 91L438 62L433 0H58ZM151 833L87 870L282 1145Q369
1142 441 1106L438 1076L151 833Z" />
<glyph unicode="&#xee;" horiz-adv-x="480" d="M284 1130L475 883L418 836L149 1067L284 1130ZM284 1130L289 1067L31 831L-25 875L162 1125Q196 1130 220 1131T284 1130ZM166 6V675L326 694V6H166ZM166 509V637L190 593L52 659L56 701Q100 721 158 735T282 755H326V596L166
509ZM58 0L63 60Q89 72 119 81T186 99L166 25V162H326V25L309 91L438 62L433 0H58Z" />
<glyph unicode="&#xef;" horiz-adv-x="480" d="M93 884Q49 884 24 910T-2 980Q-2 1024 23 1050T93 1076Q137 1076 162 1050T188 980Q188 936 163 910T93 884ZM361 884Q317 884 292 910T266 980Q266 1024 291 1050T361 1076Q405 1076 430 1050T456 980Q456 936
431 910T361 884ZM166 6V675L326 694V6H166ZM166 509V637L190 593L52 659L56 701Q100 721 158 735T282 755H326V596L166 509ZM58 0L63 60Q89 72 119 81T186 99L166 25V162H326V25L309 91L438 62L433 0H58Z" />
<glyph unicode="&#xf0;" horiz-adv-x="860" d="M460 1051Q618 958 703 798T788 432Q788 215 694 99T424 -18Q258 -18 160 84T62 361Q62 537 155 640T405 744Q612 744 650 540L618 503Q548 650 408 650Q238 650 238 389Q238 238 291 157T441 76Q532 76 572 153T612
403Q612 447 610 488T602 567L605 611Q573 750 512 845T355 995Q318 1017 271 1035T169 1066L219 1144Q280 1132 342 1108T460 1051ZM201 807L167 878L412 1018L483 969L201 807ZM486 969L415 1018L618 1134L651 1063L486 969Z" />
<glyph unicode="&#xf1;" horiz-adv-x="922" d="M614 6V510Q614 647 482 647Q378 647 272 563L252 613Q313 685 392 724T558 763Q662 763 718 706T774 541V6H614ZM162 6V674L322 632V6H162ZM60 0L65 60Q94 74 123 83T181 99L162 25V162H322V25L306 91L428 62L423
0H60ZM530 0L535 64Q556 75 580 83T633 99L614 25V162H774V25L758 91L880 62L875 0H530ZM162 509V637L186 593L48 659L52 701Q96 721 154 735T278 755L316 596L162 509ZM243 852L178 894Q250 1067 366 1067Q416 1067 447 1044T503 998T554 974Q602 974 661 1073L726
1031Q654 858 538 858Q488 858 456 881T401 928T350 951Q302 951 243 852Z" />
<glyph unicode="&#xf2;" horiz-adv-x="850" d="M424 -18Q258 -18 160 87T62 371Q62 551 161 657T427 764Q593 764 690 659T788 374Q788 194 690 88T424 -18ZM441 76Q612 76 612 347Q612 503 560 586T409 670Q238 670 238 399Q238 243 291 160T441 76ZM511 833L234
1076L231 1106Q303 1142 390 1145L575 870L511 833Z" />
<glyph unicode="&#xf3;" horiz-adv-x="850" d="M424 -18Q258 -18 160 87T62 371Q62 551 161 657T427 764Q593 764 690 659T788 374Q788 194 690 88T424 -18ZM441 76Q612 76 612 347Q612 503 560 586T409 670Q238 670 238 399Q238 243 291 160T441 76ZM349 833L285
870L480 1145Q567 1142 639 1106L636 1076L349 833Z" />
<glyph unicode="&#xf4;" horiz-adv-x="850" d="M482 1130L673 883L616 836L347 1067L482 1130ZM482 1130L487 1067L229 831L173 875L360 1125Q394 1130 418 1131T482 1130ZM424 -18Q258 -18 160 87T62 371Q62 551 161 657T427 764Q593 764 690 659T788 374Q788
194 690 88T424 -18ZM441 76Q612 76 612 347Q612 503 560 586T409 670Q238 670 238 399Q238 243 291 160T441 76Z" />
<glyph unicode="&#xf5;" horiz-adv-x="850" d="M424 -18Q258 -18 160 87T62 371Q62 551 161 657T427 764Q593 764 690 659T788 374Q788 194 690 88T424 -18ZM441 76Q612 76 612 347Q612 503 560 586T409 670Q238 670 238 399Q238 243 291 160T441 76ZM216 852L151
894Q223 1067 339 1067Q389 1067 420 1044T476 998T527 974Q575 974 634 1073L699 1031Q627 858 511 858Q461 858 429 881T374 928T323 951Q275 951 216 852Z" />
<glyph unicode="&#xf6;" horiz-adv-x="850" d="M269 884Q225 884 200 910T174 980Q174 1024 199 1050T269 1076Q313 1076 338 1050T364 980Q364 936 339 910T269 884ZM581 884Q537 884 512 910T486 980Q486 1024 511 1050T581 1076Q625 1076 650 1050T676 980Q676
936 651 910T581 884ZM424 -18Q258 -18 160 87T62 371Q62 551 161 657T427 764Q593 764 690 659T788 374Q788 194 690 88T424 -18ZM441 76Q612 76 612 347Q612 503 560 586T409 670Q238 670 238 399Q238 243 291 160T441 76Z" />
<glyph unicode="&#xf7;" horiz-adv-x="806" d="M94 425V535H712V425H94ZM403 641Q366 641 344 663T322 723Q322 761 344 783T403 805Q441 805 462 783T484 723Q484 686 463 664T403 641ZM403 155Q366 155 344 177T322 237Q322 275 344 297T403 319Q441 319 462
297T484 237Q484 200 463 178T403 155Z" />
<glyph unicode="&#xf8;" horiz-adv-x="850" d="M424 -18Q316 -18 235 30T108 166T62 371Q62 551 161 657T427 764Q536 764 617 716T743 579T788 374Q788 194 690 88T424 -18ZM441 76Q614 76 614 347Q614 505 562 587T409 670Q236 670 236 399Q236 242 288 159T441
76ZM134 -59L72 -6L192 145L202 158L716 805L778 752L658 601L648 588L134 -59Z" />
<glyph unicode="&#xf9;" horiz-adv-x="867" d="M322 -17Q113 -17 113 217V670L273 659V249Q273 169 302 133T396 97Q499 97 610 186L629 141Q495 -17 322 -17ZM113 553V656L137 616L18 673L23 723Q111 752 229 755H273V591L113 553ZM719 59L559 99V668L719 658V59ZM559
553V656L583 615L455 676L459 720Q507 737 563 745T675 755H719V593L559 553ZM603 -3L569 127L719 170V61L697 101L819 66L814 8Q732 -5 603 -3ZM486 833L209 1076L206 1106Q278 1142 365 1145L550 870L486 833Z" />
<glyph unicode="&#xfa;" horiz-adv-x="867" d="M322 -17Q113 -17 113 217V670L273 659V249Q273 169 302 133T396 97Q499 97 610 186L629 141Q495 -17 322 -17ZM113 553V656L137 616L18 673L23 723Q111 752 229 755H273V591L113 553ZM719 59L559 99V668L719 658V59ZM559
553V656L583 615L455 676L459 720Q507 737 563 745T675 755H719V593L559 553ZM603 -3L569 127L719 170V61L697 101L819 66L814 8Q732 -5 603 -3ZM324 833L260 870L455 1145Q542 1142 614 1106L611 1076L324 833Z" />
<glyph unicode="&#xfb;" horiz-adv-x="867" d="M457 1130L648 883L591 836L322 1067L457 1130ZM457 1130L462 1067L204 831L148 875L335 1125Q369 1130 393 1131T457 1130ZM322 -17Q113 -17 113 217V670L273 659V249Q273 169 302 133T396 97Q499 97 610 186L629
141Q495 -17 322 -17ZM113 553V656L137 616L18 673L23 723Q111 752 229 755H273V591L113 553ZM719 59L559 99V668L719 658V59ZM559 553V656L583 615L455 676L459 720Q507 737 563 745T675 755H719V593L559 553ZM603 -3L569 127L719 170V61L697 101L819 66L814 8Q732
-5 603 -3Z" />
<glyph unicode="&#xfc;" horiz-adv-x="867" d="M244 884Q200 884 175 910T149 980Q149 1024 174 1050T244 1076Q288 1076 313 1050T339 980Q339 936 314 910T244 884ZM556 884Q512 884 487 910T461 980Q461 1024 486 1050T556 1076Q600 1076 625 1050T651 980Q651
936 626 910T556 884ZM322 -17Q113 -17 113 217V670L273 659V249Q273 169 302 133T396 97Q499 97 610 186L629 141Q495 -17 322 -17ZM113 553V656L137 616L18 673L23 723Q111 752 229 755H273V591L113 553ZM719 59L559 99V668L719 658V59ZM559 553V656L583 615L455
676L459 720Q507 737 563 745T675 755H719V593L559 553ZM603 -3L569 127L719 170V61L697 101L819 66L814 8Q732 -5 603 -3Z" />
<glyph unicode="&#xfd;" horiz-adv-x="832" d="M350 -352Q268 -341 197 -308L368 22L400 48L634 678L640 651L529 680L534 746H820L815 682Q794 669 766 660T709 643L754 677L350 -352ZM364 -52L84 679L129 651L7 680L12 746H360L355 680Q334 670 305 661T247
645L259 670L471 63V-1L364 -52ZM368 833L304 870L499 1145Q586 1142 658 1106L655 1076L368 833Z" />
<glyph unicode="&#xfe;" horiz-adv-x="846" d="M405 -18Q253 -18 193 76L225 151Q314 76 416 76Q514 76 566 150T618 363Q618 500 567 574T420 648Q329 648 233 573L214 616Q338 764 492 764Q629 764 709 665T790 398Q790 208 686 95T405 -18ZM22 -320L27 -260Q56
-246 85 -237T143 -221L124 -295V-158H284V-295L268 -230L430 -258L425 -320H22ZM124 -309V1072L284 1031V-309H124ZM124 894V1019L139 984L4 1037L8 1077Q102 1111 224 1116H284V944L124 894Z" />
<glyph unicode="&#xff;" horiz-adv-x="832" d="M288 884Q244 884 219 910T193 980Q193 1024 218 1050T288 1076Q332 1076 357 1050T383 980Q383 936 358 910T288 884ZM600 884Q556 884 531 910T505 980Q505 1024 530 1050T600 1076Q644 1076 669 1050T695 980Q695
936 670 910T600 884ZM350 -352Q268 -341 197 -308L368 22L400 48L634 678L640 651L529 680L534 746H820L815 682Q794 669 766 660T709 643L754 677L350 -352ZM364 -52L84 679L129 651L7 680L12 746H360L355 680Q334 670 305 661T247 645L259 670L471 63V-1L364
-52Z" />
<glyph unicode="&#x2013;" horiz-adv-x="916" d="M94 414V526H822V414H94Z" />
<glyph unicode="&#x2014;" horiz-adv-x="1256" d="M94 414V526H1162V414H94Z" />
<glyph unicode="&#x2018;" horiz-adv-x="351" d="M273 1174L311 1126Q271 1104 243 1080T197 1024Q181 996 175 968T168 900L122 936H277Q283 845 259 779Q228 768 186 768Q70 768 70 894Q70 983 128 1063T273 1174Z" />
<glyph unicode="&#x2019;" horiz-adv-x="351" d="M78 748L40 796Q80 818 108 842T154 898Q170 926 176 954T183 1022L229 986H74Q68 1077 92 1143Q123 1154 165 1154Q281 1154 281 1028Q281 940 223 860T78 748Z" />
<glyph unicode="&#x201a;" horiz-adv-x="401" d="M94 -224L56 -176Q96 -154 124 -130T170 -74Q186 -46 192 -18T199 50L245 14H90Q84 105 108 171Q139 182 181 182Q297 182 297 56Q297 -32 239 -112T94 -224Z" />
<glyph unicode="&#x201c;" horiz-adv-x="631" d="M553 1174L591 1126Q551 1104 523 1080T477 1024Q461 996 455 968T448 900L402 936H557Q563 845 539 779Q508 768 466 768Q350 768 350 894Q350 983 408 1063T553 1174ZM273 1174L311 1126Q271 1104 243 1080T197
1024Q181 996 175 968T168 900L122 936H277Q283 845 259 779Q228 768 186 768Q70 768 70 894Q70 983 128 1063T273 1174Z" />
<glyph unicode="&#x201d;" horiz-adv-x="631" d="M78 748L40 796Q80 818 108 842T154 898Q170 926 176 954T183 1022L229 986H74Q68 1077 92 1143Q123 1154 165 1154Q281 1154 281 1028Q281 940 223 860T78 748ZM358 748L320 796Q360 818 388 842T434 898Q450
926 456 954T463 1022L509 986H354Q348 1077 372 1143Q403 1154 445 1154Q561 1154 561 1028Q561 940 503 860T358 748Z" />
<glyph unicode="&#x201e;" horiz-adv-x="681" d="M94 -224L56 -176Q96 -154 124 -130T170 -74Q186 -46 192 -18T199 50L245 14H90Q84 105 108 171Q139 182 181 182Q297 182 297 56Q297 -32 239 -112T94 -224ZM374 -224L336 -176Q376 -154 404 -130T450 -74Q466
-46 472 -18T479 50L525 14H370Q364 105 388 171Q419 182 461 182Q577 182 577 56Q577 -32 519 -112T374 -224Z" />
<glyph unicode="&#x2022;" horiz-adv-x="618" d="M309 278Q222 278 171 330T120 472Q120 561 171 613T309 666Q396 666 447 614T498 472Q498 383 447 331T309 278Z" />
<glyph unicode="&#x2039;" horiz-adv-x="504" d="M197 364L64 372Q63 386 63 400T68 426L372 736L438 682L197 364ZM372 57L64 372L197 429L438 111L372 57Z" />
<glyph unicode="&#x203a;" horiz-adv-x="504" d="M307 429L440 421Q442 407 441 393T436 367L132 57L66 111L307 429ZM132 736L440 421L307 364L66 682L132 736Z" />
</font>
</defs>
</svg>
