<?xml version="1.0" standalone="no"?>
<!DOCTYPE svg PUBLIC "-//W3C//DTD SVG 1.1//EN" "http://www.w3.org/Graphics/SVG/1.1/DTD/svg11.dtd">
<svg xmlns="http://www.w3.org/2000/svg">
<defs >
<font id="Dangrek" horiz-adv-x="1109" ><font-face
    font-family="Dangrek"
    units-per-em="2048"
    panose-1="0 0 0 0 0 0 0 0 0 0"
    ascent="2500"
    descent="-1200"
    alphabetic="0" />
<glyph unicode=" " glyph-name="space" horiz-adv-x="500" />
<glyph unicode="!" glyph-name="exclam" horiz-adv-x="808" d="M556 1174V928L506 608Q506 540 486 490T392 440Q319 440 299 490T278 608L226 932V1176Q226 1267 260 1332T392 1398Q490 1398 523 1331T556 1174ZM556 164Q556 79 513 39T392 -2Q226 -2 226 164Q226
250 269 289T392 328Q475 328 515 289T556 164Z" />
<glyph unicode="&quot;" glyph-name="quotedbl" horiz-adv-x="898" d="M354 1260V1048Q354 985 333 945T234 904Q152 904 131 943T110 1048V1260Q110 1322 131 1363T234 1404Q309 1404 331 1362T354 1260ZM766 1256V1052Q766 989 745 949T646 908Q564 908 543
947T522 1052V1256Q522 1318 543 1359T646 1400Q721 1400 743 1358T766 1256Z" />
<glyph unicode="#" glyph-name="numbersign" horiz-adv-x="1268" d="M356 588L396 812H298Q251 812 220 829T188 904Q188 967 218 982T298 998H428L450 1128Q453 1156 472 1189T534 1222Q578 1222 608 1206T638 1136Q638 1133 634 1108T625 1051T616 998H786L808
1128Q811 1156 830 1189T892 1222Q936 1222 966 1206T996 1136Q996 1133 992 1108T983 1051T974 998H1060Q1107 998 1138 983T1170 904Q1170 847 1138 830T1060 812H944L904 588H988Q1035 588 1066 573T1098 494Q1098 435 1066 419T988 402H872L856 298Q846 243
828 202T764 160Q721 160 691 174T660 242Q660 253 663 272Q665 286 671 325T684 402H514L498 298Q488 243 470 202T406 160Q363 160 333 174T302 242Q302 253 305 272Q307 286 313 325T326 402H228Q181 402 150 418T118 494Q118 557 148 572T228 588H356ZM754
812H586L546 588H714L754 812Z" />
<glyph unicode="$" glyph-name="dollar" horiz-adv-x="1052" d="M688 748Q827 691 868 632Q891 599 897 560T904 468Q904 342 829 269T630 178V150Q630 87 609 47T510 6Q428 6 407 45T386 150V190Q305 209 259 242T189 311Q166 346 160 377T154 426V442Q154 483
184 522T308 562Q333 562 365 555T420 525T444 456Q444 420 472 401T536 382Q568 382 589 395T610 448Q610 485 571 507T490 546L478 552Q398 585 336 618T230 689Q187 727 165 770T142 870V928Q142 1036 209 1092T386 1164V1240Q386 1302 407 1343T510 1384Q585
1384 607 1342T630 1240V1164Q704 1152 753 1126T831 1065Q860 1031 871 992T882 918Q882 844 834 824T722 804Q683 804 638 822T592 890Q592 931 575 952T508 974Q472 974 452 963T432 906Q432 864 477 836T583 788T688 748Z" />
<glyph unicode="%" glyph-name="percent" horiz-adv-x="1484" d="M664 1120Q664 974 591 905T384 836Q247 836 173 905T98 1120Q98 1265 172 1332T384 1400Q527 1400 595 1333T664 1120ZM1132 1198L560 92Q539 58 512 29T438 0Q417 0 384 18Q345 39 329 62T310
110Q312 140 320 161T340 204L916 1310Q933 1343 957 1371T1018 1400Q1056 1400 1092 1382Q1130 1362 1146 1339T1162 1292Q1162 1262 1153 1239T1132 1198ZM482 1120Q482 1220 384 1220Q284 1220 284 1120Q284 1020 384 1020Q482 1020 482 1120ZM1384 278Q1384
132 1311 63T1104 -6Q967 -6 893 63T818 278Q818 423 892 490T1104 558Q1247 558 1315 491T1384 278ZM1202 278Q1202 378 1104 378Q1004 378 1004 278Q1004 178 1104 178Q1202 178 1202 278Z" />
<glyph unicode="&amp;" glyph-name="ampersand" horiz-adv-x="1296" d="M222 1076Q222 1228 308 1316Q351 1360 416 1384T568 1408Q720 1408 821 1313Q869 1267 897 1202T926 1056Q926 969 877 881T712 714L846 558L898 620Q931 661 967 690T1046 720Q1085 720
1128 686Q1178 642 1178 592Q1178 554 1156 518T1104 446L1022 346L1092 264Q1122 228 1144 191T1166 118Q1166 73 1118 32Q1078 -2 1036 -2Q997 -2 956 34Q916 70 854 148Q805 84 722 42T530 0Q429 0 350 32T217 119Q104 232 104 406Q104 482 139 553T231 683T356
778Q338 806 309 844T265 910Q246 943 234 983T222 1076ZM568 1184Q525 1184 502 1147T478 1066Q478 1059 481 1045T491 1013Q500 991 520 959T578 882Q630 913 659 963T688 1064Q688 1116 657 1150T568 1184ZM684 362L500 596Q460 564 427 513T394 406Q394 329
434 295T520 260Q576 260 608 287T684 362Z" />
<glyph unicode="&apos;" glyph-name="quotesingle" horiz-adv-x="522" d="M374 1260V1048Q374 985 353 945T254 904Q172 904 151 943T130 1048V1260Q130 1322 151 1363T254 1404Q329 1404 351 1362T374 1260Z" />
<glyph unicode="(" glyph-name="parenleft" horiz-adv-x="888" d="M814 -40Q814 -158 630 -158Q519 -152 435 -106Q398 -87 363 -57T301 18Q273 62 257 121T240 258V1198Q240 1289 274 1357T366 1471Q484 1562 672 1562Q743 1562 778 1529T814 1442Q814 1392 782
1358T680 1324Q637 1323 603 1304Q569 1286 548 1248T526 1150V240Q526 188 547 152T603 100Q637 81 680 80Q747 80 780 47T814 -40Z" />
<glyph unicode=")" glyph-name="parenright" horiz-adv-x="888" d="M74 -40Q74 13 107 46T208 80Q249 81 285 100Q319 117 340 151T362 240V1150Q362 1211 341 1248T285 1304Q249 1323 208 1324Q141 1324 108 1356T74 1442Q74 1496 110 1529T216 1562Q405 1562
523 1471Q582 1425 615 1357T648 1198V258Q648 180 631 121T587 18Q559 -26 524 -56T453 -106Q369 -152 258 -158Q74 -158 74 -40Z" />
<glyph unicode="*" glyph-name="asterisk" horiz-adv-x="1194" d="M316 1044L460 944L472 952V1116Q472 1185 499 1222T598 1260Q667 1260 693 1223T720 1116V952L730 944L878 1044Q927 1078 970 1078Q998 1078 1024 1057T1067 1004T1084 942Q1084 880 1010 836L828
726V714L1006 608Q1042 587 1063 560T1084 500Q1084 471 1066 440T1021 386T968 364Q926 364 872 400L730 496L720 488V304Q720 241 694 203T598 164Q528 164 500 201T472 304V488L462 496L322 400Q268 364 226 364Q200 364 173 386T128 439T110 500Q110 532 131
559T188 608L366 714V726L184 836Q110 880 110 942Q110 972 127 1003T170 1056T224 1078Q270 1078 316 1044Z" />
<glyph unicode="+" glyph-name="plus" horiz-adv-x="1102" d="M432 600H336Q272 600 231 622T190 720Q190 802 229 823T334 844H432V942Q432 1004 453 1045T556 1086Q631 1086 653 1044T676 942V844H776Q838 844 879 823T920 720Q920 644 878 622T776 600H676V500Q676
437 655 397T556 356Q474 356 453 395T432 500V600Z" />
<glyph unicode="," glyph-name="comma" horiz-adv-x="598" d="M464 166Q464 100 444 23T384 -109T282 -164Q265 -164 250 -152T234 -114V-106Q236 -87 251 -65T266 -24Q266 -9 244 3T200 28Q172 45 153 79T134 166Q134 252 177 291T300 330Q383 330 423 291T464 166Z" />
<glyph unicode="-" glyph-name="hyphen" horiz-adv-x="966" d="M694 480H252Q189 480 149 502T108 600Q108 682 147 703T252 724H694Q756 724 797 703T838 600Q838 524 796 502T694 480Z" />
<glyph unicode="." glyph-name="period" horiz-adv-x="598" d="M464 166Q464 81 421 41T300 0Q134 0 134 166Q134 252 177 291T300 330Q383 330 423 291T464 166Z" />
<glyph unicode="/" glyph-name="slash" horiz-adv-x="906" d="M804 1214L318 74Q302 38 277 6T206 -26Q183 -26 150 -12Q109 6 91 28T70 74Q70 103 76 124T92 168L580 1310Q595 1345 614 1374T674 1408Q716 1408 750 1394Q789 1377 806 1356T826 1310Q826 1280
820 1257T804 1214Z" />
<glyph unicode="0" glyph-name="zero" horiz-adv-x="1118" d="M102 410V1000Q102 1098 130 1166Q157 1234 200 1279T295 1350Q348 1376 397 1389Q447 1402 486 1405T544 1408H578Q597 1408 637 1405Q677 1402 725 1389T826 1350Q875 1325 920 1279Q962 1234 989
1166T1016 1000V410Q1016 311 989 240Q962 170 920 124T826 51Q773 25 726 12Q677 -2 637 -5T578 -8H544Q525 -8 486 -5Q446 -2 397 11T295 51Q246 75 200 124Q157 171 130 240T102 410ZM430 1034V358Q433 322 449 296Q462 273 488 254T562 234Q608 234 634 253T673
296Q687 322 692 358V1034Q687 1070 673 1096Q660 1119 634 1138T562 1158Q515 1158 489 1139T449 1096Q433 1070 430 1034Z" />
<glyph unicode="1" glyph-name="one" horiz-adv-x="786" d="M360 236V962Q327 932 288 915T196 898Q138 898 98 939T58 1038Q58 1094 91 1120T174 1174Q223 1206 274 1252T368 1337T428 1384Q450 1395 466 1397T512 1400Q579 1400 611 1367T654 1281T664 1164V236Q664
173 654 119T612 33T512 0Q445 0 413 32T370 119T360 236Z" />
<glyph unicode="2" glyph-name="two" horiz-adv-x="1060" d="M552 1408Q665 1408 750 1378T893 1293Q1008 1183 1008 996Q1008 882 952 797T819 656Q732 593 630 556Q557 527 498 476T438 342V280H786Q847 280 900 271T988 232T1022 142Q1022 80 988 50T900 10T786
0H288Q196 0 158 54T120 178V338Q120 415 146 483T218 606Q311 717 472 780Q551 811 598 839T671 896Q697 923 704 951T712 1008Q712 1070 688 1102T628 1145T552 1156Q461 1156 432 1112T402 1006Q402 934 354 898T252 862Q184 862 142 899T100 996Q100 1023 106
1063Q112 1104 129 1150T177 1242Q207 1286 258 1325Q308 1362 380 1385T552 1408Z" />
<glyph unicode="3" glyph-name="three" horiz-adv-x="1026" d="M416 878L542 1108V1122H282Q230 1122 183 1132T106 1172T76 1262Q76 1321 106 1350T183 1390T282 1400H728Q805 1400 850 1355T896 1246Q896 1229 894 1213T882 1182L702 882Q748 863 792 832T871
752Q906 704 926 639T946 488Q946 393 926 318Q885 173 790 96Q741 56 691 35Q639 12 583 2T472 -8Q434 -8 384 0Q287 17 202 67Q159 91 126 125Q93 159 74 201T54 294Q54 346 84 383T172 420Q213 420 248 397T308 326Q324 297 366 272T476 246Q585 246 627 308T670
458Q670 544 616 605T490 666Q442 666 412 695T382 774Q382 817 416 878Z" />
<glyph unicode="4" glyph-name="four" horiz-adv-x="1002" d="M764 926Q856 926 881 880T906 758V166Q906 89 881 45T766 0Q678 0 651 42T624 158V336H282Q74 336 74 456Q74 468 76 480T82 504L284 1206Q299 1262 314 1305T360 1374T454 1400Q521 1400 548 1367T576
1280Q576 1230 566 1198T544 1124Q544 1123 537 1099T522 1047Q513 1017 500 966T475 877Q459 823 442 762T406 632L414 624H624V760Q624 836 649 881T764 926Z" />
<glyph unicode="5" glyph-name="five" horiz-adv-x="1026" d="M406 1080L386 888Q427 903 475 909T562 916Q596 916 642 908Q686 900 731 881T819 829Q860 799 895 750Q928 702 948 637T968 488Q968 393 948 318Q907 173 812 96Q763 56 713 35Q661 12 605 2T494
-8Q435 -8 370 8T246 55Q188 87 143 134T82 246Q76 270 76 294Q76 346 106 383T194 420Q235 420 270 397T330 326Q346 297 388 272T498 246Q607 246 649 308T692 458Q692 551 632 599T492 648Q453 648 409 635T321 608T236 594Q185 594 147 619T108 710L166 1260Q171
1312 197 1356T288 1400H688Q744 1400 792 1391T871 1352T902 1262Q902 1201 872 1171T793 1132T688 1122H448Q428 1122 418 1116T406 1080Z" />
<glyph unicode="6" glyph-name="six" horiz-adv-x="992" d="M122 410V490Q122 532 122 600T123 720Q123 770 123 824T124 904Q124 962 136 1022Q161 1143 225 1239Q257 1287 297 1323Q336 1359 381 1379T478 1400Q543 1396 581 1360T620 1272Q620 1201 546 1144Q506
1112 478 1085T435 1023Q427 1002 422 974Q418 946 416 909T414 822Q434 863 484 878T580 894Q594 894 611 893T647 889Q685 884 726 870T807 828Q846 802 878 758Q909 715 928 652T948 502V410Q948 311 924 240Q899 170 861 124T776 51Q730 26 684 12Q639 -2 601
-5T542 -8Q515 -8 474 -5Q432 -2 386 11T292 51Q245 77 207 124Q169 171 146 240T122 410ZM414 518V372Q416 338 429 313Q440 290 464 272T532 254Q576 254 599 272T633 313Q645 338 648 372V518Q645 552 633 577Q622 599 599 617T532 636Q488 636 464 618T429
577Q416 552 414 518Z" />
<glyph unicode="7" glyph-name="seven" horiz-adv-x="1012" d="M362 728L576 1110V1122H262Q209 1122 160 1132T80 1172T48 1262Q48 1322 79 1351T160 1390T262 1400H798Q875 1400 920 1355T966 1246Q966 1229 963 1213T952 1182L664 656Q633 601 617 561T596
480T590 384V234Q590 168 582 115T540 31T430 0Q356 0 323 31T282 115T274 234V384Q274 475 280 525T306 618T362 728Z" />
<glyph unicode="8" glyph-name="eight" horiz-adv-x="1020" d="M516 1408Q527 1408 543 1408T578 1406Q616 1403 660 1392T749 1358Q793 1335 829 1293Q865 1251 887 1188T910 1032V1006Q910 897 883 837T796 742Q859 705 894 648T930 478V368Q930 276 906 213Q882
149 844 107T758 42Q735 31 712 22T665 8Q619 -3 579 -5T516 -8Q505 -8 489 -8T453 -6Q413 -3 365 8T269 42Q222 63 180 107Q140 149 115 212T90 368V478Q90 590 125 647T224 742Q164 777 137 837T110 1006V1032Q110 1124 134 1188Q157 1251 195 1293T279 1358Q302
1369 325 1378T370 1392Q415 1403 454 1405T516 1408ZM390 1034V952Q391 923 406 897Q418 876 443 859T516 842Q561 842 585 859T621 897Q635 921 636 952V1034Q635 1069 621 1094Q610 1117 586 1135T516 1154Q473 1154 447 1137T406 1094Q391 1066 390 1034ZM390
534V344Q391 315 406 289Q418 268 443 251T516 234Q561 234 585 251T621 289Q635 313 636 344V534Q635 569 621 594Q610 617 586 635T516 654Q473 654 447 637T406 594Q391 566 390 534Z" />
<glyph unicode="9" glyph-name="nine" horiz-adv-x="992" d="M870 988V908L869 680Q869 631 869 577T868 498Q868 410 842 322T769 162Q723 90 659 45T518 0Q451 4 413 40T374 128Q374 199 448 256Q488 286 518 315T562 378Q566 389 569 401T575 427Q580 455 581
492T582 580Q560 539 512 524T414 508Q400 508 384 509T348 513Q309 518 268 532T187 574Q150 598 116 644Q85 688 66 749T46 896V988Q46 1090 71 1159Q95 1230 133 1276T218 1349Q268 1376 310 1389Q355 1403 393 1405T452 1408Q479 1408 521 1405Q563 1402 610
1389T703 1349Q748 1323 786 1276Q823 1230 846 1159T870 988ZM582 880V1026Q580 1060 567 1085Q556 1107 532 1125T464 1144Q420 1144 396 1126T361 1085Q348 1060 346 1026V880Q348 846 361 821Q372 798 396 780T464 762Q508 762 532 780T567 821Q580 846 582
880Z" />
<glyph unicode=":" glyph-name="colon" horiz-adv-x="572" d="M452 690Q452 605 409 565T288 524Q122 524 122 690Q122 776 165 815T288 854Q371 854 411 815T452 690ZM454 166Q454 81 411 41T290 0Q124 0 124 166Q124 252 167 291T290 330Q373 330 413 291T454 166Z" />
<glyph unicode=";" glyph-name="semicolon" horiz-adv-x="596" d="M450 688Q450 603 407 563T286 522Q120 522 120 688Q120 774 163 813T286 852Q369 852 409 813T450 688ZM452 164Q452 98 432 21T372 -111T270 -166Q253 -166 238 -154T222 -116V-108Q224 -89
239 -67T254 -26Q254 -11 232 1T188 26Q160 43 141 77T122 164Q122 250 165 289T288 328Q371 328 411 289T452 164Z" />
<glyph unicode="&lt;" glyph-name="less" horiz-adv-x="930" d="M536 186L222 498Q202 518 182 543T162 600Q162 629 180 652T224 702L538 1014Q561 1037 585 1055T640 1074Q680 1074 726 1028Q768 986 768 946Q768 916 751 891T710 842L464 598L708 358Q732 334
750 310T768 256Q768 236 758 215T722 168Q680 126 640 126Q611 126 586 144T536 186Z" />
<glyph unicode="=" glyph-name="equal" horiz-adv-x="1102" d="M770 682H328Q265 682 225 704T184 802Q184 884 223 905T328 926H770Q832 926 873 905T914 802Q914 726 872 704T770 682ZM766 290H324Q261 290 221 312T180 410Q180 492 219 513T324 534H766Q828
534 869 513T910 410Q910 334 868 312T766 290Z" />
<glyph unicode="&gt;" glyph-name="greater" horiz-adv-x="930" d="M708 498L394 186Q370 162 345 144T290 126Q250 126 208 168Q182 194 172 215T162 256Q162 285 180 309T222 358L466 598L220 842Q197 865 180 890T162 946Q162 986 204 1028Q250 1074 290 1074Q320
1074 344 1056T392 1014L706 702Q732 676 750 653T768 600Q768 569 748 544T708 498Z" />
<glyph unicode="?" glyph-name="question" horiz-adv-x="1122" d="M1012 1008Q1012 957 994 913Q975 870 946 834T882 768Q864 753 847 740T813 713Q779 688 751 667T708 626Q702 618 694 602T686 564Q686 510 653 475T548 440Q472 440 438 482T404 572Q404 638
427 686Q450 732 485 765T560 824Q604 852 635 876Q670 903 693 936T716 1020Q716 1082 692 1114T632 1157T556 1168Q465 1168 436 1124T406 1018Q406 946 358 910T256 874Q188 874 146 911T104 1008Q104 1035 110 1075Q116 1116 133 1162T181 1254Q211 1298 262
1337Q312 1374 384 1397T556 1420Q669 1420 754 1390T897 1305Q1012 1195 1012 1008ZM720 166Q720 81 677 41T556 0Q390 0 390 166Q390 252 433 291T556 330Q639 330 679 291T720 166Z" />
<glyph unicode="@" glyph-name="at" horiz-adv-x="1494" d="M1050 692V256Q1050 230 1057 210T1092 190Q1134 190 1163 233T1207 346T1222 494Q1222 614 1195 706T1107 862Q1047 925 952 957T722 990Q614 990 523 965T364 880Q297 822 260 727T222 494Q222 369
252 283Q281 197 328 141T433 55Q490 24 546 10Q602 -5 648 -7T722 -10H887Q927 -9 978 -8T1046 -4Q1096 3 1120 21T1192 56Q1201 60 1210 60Q1246 60 1246 26Q1246 -5 1221 -25T1161 -58T1094 -82Q1082 -86 1052 -88Q1022 -90 984 -91T903 -94Q881 -95 862 -95T823
-96H722Q652 -96 581 -87Q509 -77 444 -52T321 16Q264 58 222 124Q180 189 156 280T132 494Q132 563 143 638Q154 709 179 774T247 895Q291 951 356 991Q421 1032 511 1055T722 1078Q891 1078 1003 1036T1183 916Q1251 839 1278 732T1306 494Q1306 406 1290 330T1233
196Q1193 139 1126 107T958 74Q904 74 865 98T816 176Q812 197 812 218Q794 166 754 126T642 86Q599 86 557 100T479 147Q445 180 423 233T400 364V592Q400 670 422 723T479 809Q514 842 556 856T642 870Q714 870 754 831T812 738Q812 809 847 840T932 872Q1009
872 1029 820T1050 692ZM642 574V384Q642 339 653 305T710 270Q777 270 794 332T812 502Q812 539 803 581T772 655T710 686Q664 686 653 653T642 574Z" />
<glyph unicode="A" glyph-name="A" horiz-adv-x="1104" d="M814 1212L1022 506Q1023 472 1024 437T1027 367Q1030 297 1030 230V200Q1030 143 1023 98T986 27T892 0Q827 0 797 26T760 98T752 200V340H352V200Q352 143 345 98T308 27T212 0Q146 0 117 26T81 98T74
200V230Q74 265 75 316T77 419T80 506Q105 593 131 681T185 859Q213 948 239 1036T290 1212Q313 1295 355 1347T502 1400H602Q709 1400 749 1348T814 1212ZM564 1140H542L394 604H712L564 1140Z" />
<glyph unicode="B" glyph-name="B" horiz-adv-x="1104" d="M272 1400H562Q651 1400 730 1377T867 1308Q926 1262 959 1194T992 1034Q992 987 980 949Q967 910 948 879T905 825Q880 801 847 777T796 748Q854 732 897 705Q938 678 965 647T1009 582Q1030 535 1036
492T1042 416Q1042 338 1023 279T973 176Q942 133 902 102T821 52Q725 6 600 0H272Q200 0 168 30T128 112T120 230V1172Q120 1237 128 1288T168 1370T272 1400ZM544 1164H424V824H552Q593 825 629 844Q663 861 684 895T706 984Q706 1046 683 1083T625 1141Q591
1159 544 1164ZM562 612H424V236H570Q614 237 654 258Q691 276 714 315T738 416Q738 481 713 523T650 587Q612 607 562 612Z" />
<glyph unicode="C" glyph-name="C" horiz-adv-x="1110" d="M556 1408Q668 1408 746 1383Q826 1358 880 1318T967 1228Q1000 1176 1018 1125Q1035 1073 1040 1025T1046 942Q1046 892 1017 854T886 816Q853 816 812 823T740 851T710 916Q710 1023 681 1085T556 1148Q507
1148 481 1128T442 1083Q427 1052 426 1018V384Q427 343 442 307Q454 278 480 254T556 230Q648 230 679 300T710 468Q710 511 748 535T886 560Q976 560 1011 529T1046 460Q1046 350 1010 264T905 117Q767 -6 538 -6Q521 -6 480 -3Q440 0 390 13T286 52Q235 77 190
125Q147 172 119 241T90 410V968Q90 1050 110 1113T163 1223Q195 1270 237 1301T323 1353Q424 1400 556 1408Z" />
<glyph unicode="D" glyph-name="D" horiz-adv-x="1094" d="M286 1400H576Q765 1400 883 1309Q942 1263 975 1195T1008 1036V416Q1008 338 991 279T947 176Q919 133 884 102T813 52Q729 6 618 0H286Q214 0 182 30T142 112T134 230V1172Q134 1237 142 1288T182 1370T286
1400ZM568 1166H438V238H568Q609 239 645 258Q679 275 700 309T722 398V988Q722 1047 701 1086T645 1144Q611 1163 568 1166Z" />
<glyph unicode="E" glyph-name="E" horiz-adv-x="986" d="M290 1400H682Q742 1400 794 1392T879 1353T912 1258Q912 1193 880 1163T795 1125T682 1116H444V844H570Q629 844 680 837T762 801T794 708Q794 644 763 616T680 580T570 572H444V284H682Q742 284 794
276T879 239T912 144Q912 78 879 48T794 9T682 0H290Q219 0 188 31T148 114T140 230V1170Q140 1234 148 1286T187 1369T290 1400Z" />
<glyph unicode="F" glyph-name="F" horiz-adv-x="938" d="M292 1400H682Q742 1400 794 1390T879 1349T912 1252Q912 1187 880 1156T795 1114T682 1104H444V844H570Q630 844 682 836T767 796T800 696Q800 628 768 597T684 557T570 548H444V230Q444 165 436 113T396
31T292 0Q220 0 188 30T148 112T140 230V1170Q140 1235 148 1287T188 1369T292 1400Z" />
<glyph unicode="G" glyph-name="G" horiz-adv-x="1156" d="M1072 518V92Q1072 57 1053 25T972 -8Q906 -8 883 23T860 92V152Q812 81 738 37T554 -8Q536 -8 495 -5Q455 -2 405 11T302 50Q251 75 206 123Q163 170 135 239T106 408V968Q106 1050 126 1113T179 1223Q211
1270 253 1301T339 1353Q440 1400 572 1408Q684 1408 762 1383Q841 1358 896 1318T984 1228Q1017 1176 1035 1125Q1053 1073 1058 1025T1064 942Q1064 891 1036 855T904 818Q870 818 828 825T756 853T726 916Q726 1023 697 1084T572 1146Q523 1146 497 1126T458
1082Q443 1051 442 1018V378Q442 314 486 269T598 224Q678 224 729 288T812 434H716Q688 437 665 449Q645 459 630 479T614 534Q614 572 629 592T665 623Q690 635 716 636H976Q1005 636 1038 613T1072 518Z" />
<glyph unicode="H" glyph-name="H" horiz-adv-x="1166" d="M146 230V1170Q146 1232 156 1284T198 1368T298 1400Q365 1400 397 1369T440 1285T450 1170V856H724V1170Q724 1232 734 1284T776 1368T876 1400Q943 1400 975 1369T1018 1285T1028 1170V230Q1028 167
1018 115T976 31T876 0Q809 0 777 31T734 115T724 230V562H450V230Q450 167 440 115T398 31T298 0Q231 0 199 31T156 115T146 230Z" />
<glyph unicode="I" glyph-name="I" horiz-adv-x="666" d="M168 230V1170Q168 1234 179 1286T225 1369T334 1400Q407 1400 442 1369T489 1286T500 1170V230Q500 165 490 113T444 30T334 0Q262 0 227 30T180 113T168 230Z" />
<glyph unicode="J" glyph-name="J" horiz-adv-x="1126" d="M536 -8Q425 -8 347 17Q268 42 213 82T125 173Q91 224 75 275Q57 327 52 375T46 458Q46 508 75 546T206 584Q240 584 281 577T352 549T382 484Q382 377 412 315T536 252Q585 252 611 272T650 317Q665
348 666 382V1116H404Q346 1116 295 1125T211 1165T178 1256Q178 1319 210 1349T293 1390T404 1400H812Q884 1400 920 1369T968 1286T980 1170V410Q980 306 950 234Q920 162 875 116T775 44Q719 18 671 8Q630 -2 591 -5T536 -8Z" />
<glyph unicode="K" glyph-name="K" horiz-adv-x="1142" d="M140 230V1172Q140 1235 150 1286T192 1369T290 1400Q358 1400 391 1370T434 1287T444 1172V812H558Q575 855 591 897T624 981Q636 1010 653 1053T683 1127Q697 1163 710 1196T736 1256Q760 1312 793
1356T886 1400Q946 1400 994 1363T1042 1260Q1042 1203 1010 1128L830 702Q882 683 922 640Q963 597 988 528T1014 362V220Q1014 210 1022 202Q1026 198 1030 195T1038 186Q1058 163 1061 146T1064 118Q1064 48 1016 20T902 -8Q832 -8 771 34T710 156V362Q710 453
680 509T556 566H444V230Q444 166 434 114T391 31T290 0Q224 0 192 31T150 114T140 230Z" />
<glyph unicode="L" glyph-name="L" horiz-adv-x="968" d="M178 148V1170Q178 1232 188 1284T230 1368T330 1400Q402 1400 435 1370T478 1287T488 1170V294H684Q744 294 794 284T875 243T906 148Q906 83 876 52T795 10T684 0H400Q293 0 236 24T178 148Z" />
<glyph unicode="M" glyph-name="M" horiz-adv-x="1594" d="M804 324H784Q731 324 701 361T656 442L466 990H440V156Q440 85 416 43T306 0Q210 0 183 41T156 156V1172Q156 1236 163 1287T202 1369T306 1400H442Q494 1400 524 1391T583 1334Q601 1305 626 1244Q649
1186 680 1095T756 872L782 792H806L838 892Q858 955 876 1008T908 1105Q937 1192 959 1248T999 1336Q1025 1382 1054 1391T1134 1400H1280Q1352 1400 1383 1370T1422 1288T1430 1172V156Q1430 82 1403 41T1280 0Q1195 0 1171 42T1146 156V990H1118L930 442Q913
399 886 362T804 324Z" />
<glyph unicode="N" glyph-name="N" horiz-adv-x="1360" d="M598 1276L916 414H940V1244Q940 1315 964 1357T1074 1400Q1169 1400 1195 1359T1222 1244V230Q1222 165 1215 113T1176 30T1074 0H942Q885 0 849 27T792 93T758 168L456 986H432V156Q432 85 408 43T298
0Q202 0 175 41T148 156V1170Q148 1235 155 1287T195 1369T298 1400H430Q480 1400 511 1381T563 1338Q583 1314 598 1276Z" />
<glyph unicode="O" glyph-name="O" horiz-adv-x="1128" d="M104 406V1004Q104 1102 132 1168Q160 1236 204 1281T300 1351Q326 1364 351 1373T402 1389Q452 1402 491 1405T550 1408H584Q603 1408 643 1405Q683 1402 732 1390T834 1351Q884 1327 929 1280Q971 1235
998 1168T1026 1004V406Q1026 307 999 238Q971 169 929 123T834 51Q784 25 732 11Q683 -2 643 -5T584 -8H550Q532 -8 491 -5Q451 -2 402 11T300 51Q248 77 204 123Q161 169 133 238T104 406ZM436 1020V368Q437 333 453 303Q466 278 492 258T568 238Q616 238 642
258T681 303Q695 333 698 368V1020Q695 1055 681 1085Q668 1109 642 1129T568 1150Q519 1150 493 1130T453 1085Q437 1056 436 1020Z" />
<glyph unicode="P" glyph-name="P" horiz-adv-x="1082" d="M574 552H446V228Q446 164 438 112T398 30T292 0Q221 0 189 30T150 112T142 228V1172Q142 1236 149 1287T189 1369T292 1400H622Q748 1394 844 1348Q886 1328 926 1299T997 1225Q1029 1182 1047 1122T1066
984Q1066 877 1033 797T936 662Q808 552 574 552ZM446 1164V790H582Q632 793 672 814Q712 835 737 876T762 984Q762 1046 738 1083T677 1141Q642 1159 592 1164H446Z" />
<glyph unicode="Q" glyph-name="Q" horiz-adv-x="1156" d="M122 406V1002Q122 1101 150 1167Q178 1235 222 1281T318 1352Q344 1365 369 1374T420 1390Q470 1402 509 1405T568 1408H602Q621 1408 661 1405Q700 1402 749 1390T851 1352Q901 1328 946 1281Q989 1235
1016 1167T1044 1002V406Q1044 331 1027 272T980 166L1080 76Q1094 62 1104 47T1114 -4Q1114 -19 1107 -39T1080 -80Q1060 -98 1041 -104T1004 -110Q969 -110 951 -101T922 -80L810 26Q743 4 690 -2T602 -8H568Q550 -8 509 -5Q469 -2 420 11T318 51Q266 77 222
123Q179 169 151 238T122 406ZM454 1020V368Q455 333 471 303Q484 278 510 258T586 238Q634 238 660 258T699 303Q713 333 716 368V1020Q713 1054 699 1084Q686 1108 660 1128T586 1148Q537 1148 511 1128T471 1084Q455 1054 454 1020Z" />
<glyph unicode="R" glyph-name="R" horiz-adv-x="1142" d="M142 232V1172Q142 1236 149 1287T189 1369T292 1400H622Q746 1394 842 1348Q883 1328 922 1299T993 1226Q1024 1183 1043 1124T1062 986Q1062 953 1052 910T1019 820Q1004 788 974 755Q946 724 906 698T810
656Q892 624 952 555T1012 364V222Q1012 210 1018 202T1030 188Q1053 165 1058 147Q1062 131 1062 118Q1062 51 1013 22T902 -8Q832 -8 771 34T710 152V364Q710 456 680 511T556 566H444V232Q444 166 436 114T397 31T292 0Q221 0 189 30T150 113T142 232ZM444 1164V790H580Q630
792 670 814Q710 835 735 877T760 986Q760 1046 736 1085T674 1142Q638 1161 588 1164H444Z" />
<glyph unicode="S" glyph-name="S" horiz-adv-x="1014" d="M398 1048Q399 1006 422 973T485 909Q517 884 574 850T673 791Q724 760 773 723T861 638Q900 591 924 532T950 398V390Q950 310 930 247Q890 128 800 70Q754 40 708 24Q659 7 610 0T516 -8H506Q423 -8
357 9Q293 26 247 54T171 120Q140 157 122 197Q104 236 96 275T88 348Q88 416 129 450T230 484Q287 484 335 450T386 350Q388 275 420 248T512 220Q577 222 613 253T650 364Q650 433 610 486T507 583T378 670Q308 715 246 764T145 877T104 1024V1040Q105 1147 132
1218T214 1331Q267 1373 345 1390T524 1408H550Q640 1408 706 1388Q770 1368 812 1337T880 1267Q904 1229 916 1190Q928 1152 931 1119T934 1066Q934 1007 892 971T788 934Q742 934 698 968T654 1042Q654 1124 625 1156T538 1188Q472 1188 435 1164T398 1048Z"
/>
<glyph unicode="T" glyph-name="T" horiz-adv-x="982" d="M238 1400H746Q806 1400 858 1392T942 1353T974 1258Q974 1194 942 1164T858 1125T746 1116H644V228Q644 164 636 112T597 30T492 0Q420 0 388 30T348 112T340 228V1116H238Q179 1116 127 1125T42 1164T10
1258Q10 1323 42 1353T126 1391T238 1400Z" />
<glyph unicode="U" glyph-name="U" horiz-adv-x="1208" d="M142 410V1172Q142 1236 153 1287T200 1369T308 1400Q382 1400 417 1370T463 1289T474 1172V384Q477 341 492 306Q506 273 534 251T606 228Q650 228 679 250T721 306Q737 342 738 384V1172Q738 1237 748
1288T794 1370T904 1400Q977 1400 1012 1370T1058 1288T1070 1172V410Q1070 306 1037 229T942 98Q818 -8 606 -8Q396 -8 271 100Q210 153 176 231T142 410Z" />
<glyph unicode="V" glyph-name="V" horiz-adv-x="1000" d="M844 1400Q903 1400 947 1363T992 1272Q992 1247 987 1227Q983 1213 982 1208Q948 1075 913 939T840 664Q803 525 768 389T698 120Q683 85 658 60Q637 37 604 19T520 0H488Q438 0 404 18T349 60Q324 86
310 120L26 1208Q22 1217 21 1227Q16 1249 16 1272Q16 1327 59 1363T164 1400Q212 1400 241 1379T288 1332Q307 1304 316 1264Q328 1216 342 1156T370 1030Q384 965 398 898T426 767Q442 693 457 617T488 464H520Q555 619 586 767Q599 830 613 897T642 1030Q656
1095 669 1155T692 1264Q704 1305 721 1332Q738 1358 767 1379T844 1400Z" />
<glyph unicode="W" glyph-name="W" horiz-adv-x="1666" d="M842 1394Q898 1394 939 1356T992 1262L1164 464H1198Q1240 659 1284 862T1372 1262Q1381 1300 1399 1331Q1415 1357 1443 1378T1518 1400Q1583 1400 1620 1359T1658 1268Q1658 1241 1654 1226Q1653 1221
1652 1217T1650 1208L1376 120Q1361 85 1336 60Q1315 37 1282 19T1198 0H1164Q1114 0 1082 18T1031 60Q1009 86 998 120L858 706H824Q808 635 791 562T756 413Q737 337 720 264T686 120Q672 83 651 60Q631 37 600 19T518 0H484Q434 0 400 18T343 60Q317 86 302
120L32 1208Q31 1212 30 1216T28 1226Q24 1241 24 1268Q24 1317 61 1358T164 1400Q210 1400 238 1379T283 1331Q301 1300 310 1262L484 464H518Q537 556 559 658T604 863Q627 967 649 1068T692 1262Q706 1319 746 1356T842 1394Z" />
<glyph unicode="X" glyph-name="X" horiz-adv-x="1146" d="M108 258L388 696V714L136 1096Q125 1113 115 1129T96 1162Q81 1189 69 1219T56 1270Q56 1297 71 1325T126 1376Q171 1400 208 1400Q265 1400 302 1355T372 1256L558 950H588L774 1256Q807 1309 844 1354T938
1400Q956 1400 976 1393T1020 1374Q1062 1351 1078 1325T1094 1272Q1094 1250 1081 1220T1052 1162Q1034 1129 1010 1096L760 714V696L1038 258Q1059 225 1074 193T1090 128Q1090 101 1076 75T1022 24Q977 0 940 0Q888 0 854 38T790 122L588 450H558L356 122Q326
76 292 38T208 0Q170 0 128 24Q87 48 72 74T56 128Q56 160 71 192T108 258Z" />
<glyph unicode="Y" glyph-name="Y" horiz-adv-x="1000" d="M954 1106L654 574V226Q654 165 644 114T603 31T504 0Q437 0 405 31T362 113T352 226V574L54 1106Q30 1148 8 1188T-14 1270Q-14 1297 1 1324T58 1376Q103 1400 142 1400Q201 1400 240 1352T306 1246L488
864H520L702 1246Q728 1303 767 1351T866 1400Q904 1400 950 1376Q989 1352 1005 1325T1022 1270Q1022 1251 1006 1212Q998 1192 985 1165T954 1106Z" />
<glyph unicode="Z" glyph-name="Z" horiz-adv-x="1042" d="M84 204L600 1098L584 1114H296Q239 1114 187 1123T103 1161T70 1248Q70 1315 102 1347T185 1389T296 1400H822Q893 1400 936 1354T980 1248Q980 1217 968 1194L454 300L468 286H756Q814 286 865 277T949
237T982 144Q982 81 950 50T866 10T756 0H230Q159 0 115 43T70 144Q70 162 72 175T84 204Z" />
<glyph unicode="[" glyph-name="bracketleft" horiz-adv-x="836" d="M484 1160V246H590Q653 246 693 225T734 126Q734 44 695 23T590 2H384Q317 2 279 34T240 146V1256Q240 1327 272 1365T386 1404H592Q655 1404 695 1383T736 1284Q736 1202 697 1181T592 1160H484Z" />
<glyph unicode="\" glyph-name="backslash" horiz-adv-x="906" d="M222 1408Q262 1404 281 1375T316 1310L804 168Q813 145 819 124T826 74Q823 50 805 28T746 -12Q713 -26 690 -26Q647 -26 620 6T578 74L92 1214Q83 1234 77 1257T70 1310Q73 1334 90 1355T146
1394Q180 1408 222 1408Z" />
<glyph unicode="]" glyph-name="bracketright" horiz-adv-x="836" d="M286 246H392V1160H284Q219 1160 180 1181T140 1284Q140 1361 180 1382T284 1404H490Q571 1404 603 1366T636 1256V146Q636 66 598 34T492 2H286Q221 2 182 23T142 126Q142 203 182 224T286 246Z" />
<glyph unicode="^" glyph-name="asciicircum" horiz-adv-x="976" d="M564 1122L754 942Q765 931 773 913T782 870Q782 844 771 825T744 792Q726 775 709 769T674 762Q650 762 626 769T588 794L478 898L368 794Q354 777 330 770T282 762Q264 762 247 768T212 792Q197
806 186 825T174 870Q174 894 182 912T202 942L392 1122Q422 1152 468 1156H488Q533 1153 564 1122Z" />
<glyph unicode="_" glyph-name="underscore" horiz-adv-x="1408" d="M1110 2H290Q227 2 187 24T146 122Q146 204 185 225T290 246H1110Q1172 246 1213 225T1254 122Q1254 46 1212 24T1110 2Z" />
<glyph unicode="`" glyph-name="grave" horiz-adv-x="698" d="M310 1434L534 1298Q548 1289 563 1266T578 1212Q578 1180 556 1148Q536 1119 513 1111T462 1102Q427 1102 402 1118L182 1252Q162 1266 147 1288T132 1338Q132 1352 137 1370T154 1406Q174 1435 201
1443T254 1452Q283 1452 310 1434Z" />
<glyph unicode="a" glyph-name="a" horiz-adv-x="1020" d="M912 772V226Q912 164 903 113T863 31T762 0Q697 0 664 25T620 89T608 168Q588 102 536 51T392 0Q337 0 282 18T183 78Q139 120 112 187T84 354V644Q84 744 111 811T183 921Q227 962 282 980T392 998Q484
998 536 948T608 830Q608 922 653 961T762 1000Q827 1000 859 969T901 886T912 772ZM392 622V380Q392 322 406 278T480 234Q554 234 582 306Q596 342 601 397T608 530Q608 577 597 631T558 725T480 764Q420 764 406 721T392 622Z" />
<glyph unicode="b" glyph-name="b" horiz-adv-x="1042" d="M120 226V1172Q120 1234 130 1286T173 1369T270 1400Q337 1400 370 1370T413 1287T424 1172V830Q444 898 496 948T640 998Q695 998 750 980T849 921Q893 879 920 812T948 644V354Q948 255 921 188T849
78Q805 36 750 18T640 0Q549 0 497 51T424 168Q424 128 413 90T368 26T270 0Q201 0 170 30T129 112T120 226ZM640 380V622Q640 678 626 721T552 764Q502 764 474 725T435 632T424 530Q425 453 430 398T450 306Q478 234 552 234Q612 234 626 278T640 380Z" />
<glyph unicode="c" glyph-name="c" horiz-adv-x="1000" d="M388 656V346Q388 317 396 283T428 224T496 200Q577 200 598 233T620 328Q620 370 656 396T788 422Q878 422 904 391T930 320Q930 255 911 208Q892 159 859 124T782 64Q736 39 691 26Q642 12 592 6T496
0Q417 0 343 21T212 87Q154 132 119 202T84 372V606Q84 700 107 767Q130 833 165 877T246 946Q291 970 337 982Q383 994 424 997T496 1000Q585 1000 652 985Q718 970 766 945T846 888Q876 856 895 819Q913 783 920 747T928 680Q928 631 904 593T786 554Q753 554
714 559T646 585T618 648Q618 705 598 738T496 772Q429 772 409 736T388 656Z" />
<glyph unicode="d" glyph-name="d" horiz-adv-x="1020" d="M910 1172V226Q910 164 901 113T861 31T760 0Q695 0 662 25T618 89T606 168Q586 102 534 51T390 0Q335 0 280 18T181 78Q137 120 110 187T82 354V644Q82 744 109 811T181 921Q225 962 280 980T390 998Q482
998 534 948T606 830V1172Q606 1235 616 1286T660 1369T760 1400Q825 1400 857 1369T899 1286T910 1172ZM390 622V380Q390 322 404 278T478 234Q552 234 580 306Q594 342 599 397T606 530Q606 577 595 631T556 725T478 764Q418 764 404 721T390 622Z" />
<glyph unicode="e" glyph-name="e" horiz-adv-x="1020" d="M936 632V570Q936 521 912 483T794 444H396V348Q396 293 424 247T520 200Q573 200 597 217T638 263Q649 280 665 293Q682 307 711 316T792 326Q846 326 884 306T922 226Q922 161 881 118T778 48Q716 22
644 11T508 0Q425 1 350 21T218 85Q160 129 126 200T92 374V608Q92 702 115 769Q138 835 173 879T254 948Q299 972 345 984Q391 996 432 999T504 1002Q605 1002 677 984Q748 966 796 937T872 870Q901 833 914 792Q928 752 932 710T936 632ZM396 664V594H646Q646
659 640 702T606 768T514 790Q441 790 419 751T396 664Z" />
<glyph unicode="f" glyph-name="f" horiz-adv-x="750" d="M504 1042V1000H564Q626 1000 667 979T708 876Q708 800 666 778T564 756H504V226Q504 163 493 112T449 31T346 0Q281 0 249 30T208 112T198 226V756H142Q80 756 40 778T0 876Q0 958 39 979T142 1000H198Q198
1088 206 1162T245 1289Q276 1342 337 1371T504 1400Q593 1400 658 1367T724 1256Q724 1190 685 1160T602 1130Q587 1130 574 1137Q561 1144 544 1144Q517 1144 511 1111T504 1042Z" />
<glyph unicode="g" glyph-name="g" horiz-adv-x="1042" d="M922 774V-30Q922 -120 898 -182Q873 -244 836 -285T751 -349Q703 -372 660 -384Q615 -395 578 -397T522 -400Q451 -400 381 -390T251 -353Q193 -326 154 -280T110 -162Q110 -126 140 -100T250 -74Q338
-74 366 -92T414 -164Q429 -202 510 -202Q555 -202 578 -178T610 -120T618 -56V168Q598 101 546 51T402 0Q347 0 292 18T193 78Q148 119 120 187T92 356V646Q92 745 120 812T193 922Q237 964 292 982T402 1000Q494 1000 546 949T618 832Q618 872 629 910T674 974T772
1000Q841 1000 872 970T913 888T922 774ZM402 620V378Q402 321 416 278T490 234Q540 234 567 273T606 367T618 470Q617 546 612 602T592 695Q564 766 490 766Q430 766 416 723T402 620Z" />
<glyph unicode="h" glyph-name="h" horiz-adv-x="1042" d="M956 642V226Q956 165 946 114T903 31T804 0Q738 0 705 31T660 113T648 226V620Q648 676 634 719T560 762Q520 762 495 736T456 663Q441 617 436 553T430 416V226Q430 165 419 114T375 31T274 0Q208 0
176 31T133 113T122 226V1174Q122 1236 132 1287T175 1369T274 1400Q342 1400 375 1369T419 1287T430 1174V832Q450 897 504 948T648 1000Q703 1000 759 982T858 921Q902 879 929 811T956 642Z" />
<glyph unicode="i" glyph-name="i" horiz-adv-x="626" d="M460 1248Q460 1171 420 1134T308 1096Q236 1096 196 1133T156 1248Q156 1328 196 1364T308 1400Q385 1400 422 1364T460 1248ZM154 224V776Q154 836 164 887T207 969T306 1000Q372 1000 404 969T447 887T458
776V224Q458 163 448 112T405 31T306 0Q240 0 208 30T165 112T154 224Z" />
<glyph unicode="j" glyph-name="j" horiz-adv-x="626" d="M480 1250Q480 1175 441 1138T330 1100Q258 1100 217 1137T176 1250Q176 1328 217 1365T330 1402Q480 1402 480 1250ZM176 30V776Q176 839 187 890T231 970T330 1000Q395 1000 427 970T469 890T480 776V30Q480
-63 473 -142T436 -278Q406 -335 345 -367T176 -400Q88 -400 22 -363T-44 -246Q-44 -173 -13 -147T92 -120Q153 -120 164 -76T176 30Z" />
<glyph unicode="k" glyph-name="k" horiz-adv-x="1014" d="M150 224V1178Q150 1239 158 1289T196 1370T292 1400Q358 1400 388 1370T426 1290T434 1178V784H450L656 1026Q690 1066 748 1066Q801 1066 844 1029T888 932Q888 892 860 858L680 646L876 272Q894 236
907 200T920 130Q920 68 872 33T766 -2Q725 -2 693 23T639 84T602 154L490 392H434V224Q434 162 426 111T388 30T292 0Q227 0 197 30T158 111T150 224Z" />
<glyph unicode="l" glyph-name="l" horiz-adv-x="586" d="M140 224V1178Q140 1239 150 1289T194 1369T292 1400Q358 1400 390 1370T433 1290T444 1178V224Q444 163 434 112T391 31T292 0Q227 0 194 30T151 112T140 224Z" />
<glyph unicode="m" glyph-name="m" horiz-adv-x="1604" d="M808 0Q743 0 710 31T667 113T656 226V622Q656 679 641 722T568 766Q528 766 503 740T464 666Q449 620 444 557T438 420V226Q438 165 428 114T385 31T286 0Q220 0 188 31T145 113T134 226V774Q134 837
143 888T185 969T286 1000Q352 1000 384 975T427 911T438 832Q458 897 520 948T672 1000Q738 1000 800 968T906 864Q936 932 1016 966T1178 1000Q1233 1000 1288 982T1387 922Q1431 880 1458 813T1486 646V226Q1486 165 1475 114T1430 31T1332 0Q1266 0 1233 31T1189
113T1178 226V622Q1178 680 1162 723T1088 766Q1043 766 1017 729T978 631T962 502V226Q962 165 951 114T908 31T808 0Z" />
<glyph unicode="n" glyph-name="n" horiz-adv-x="1082" d="M966 644V228Q966 167 955 115T910 32T810 0Q745 0 712 31T669 114T658 228V618Q658 678 644 722T570 766Q529 766 504 739T465 665Q450 618 445 555T440 418V228Q440 167 429 115T384 32T284 0Q219 0
186 31T143 114T132 228V774Q132 837 140 888T181 969T284 1000Q349 1000 382 975T428 911T440 832Q458 898 513 949T658 1000Q713 1000 768 982T867 922Q911 880 938 812T966 644Z" />
<glyph unicode="o" glyph-name="o" horiz-adv-x="990" d="M78 376V624Q78 717 103 780Q128 844 167 887T256 954Q303 978 351 990Q398 1002 438 1005T502 1008Q525 1008 565 1005Q605 1002 651 990T743 954Q790 930 827 887Q865 844 888 780T912 624V376Q912 285
888 220Q864 156 827 113T743 46Q697 22 651 10Q605 -2 565 -5T502 -8Q480 -8 439 -5Q399 -2 352 10T256 46Q207 70 168 113Q128 156 103 220T78 376ZM386 668V306Q388 276 400 255Q411 235 434 220T502 204Q544 204 566 219T600 255Q613 279 614 306V668Q613 696
600 723Q589 743 567 760T502 778Q458 778 435 761T400 723Q388 700 386 668Z" />
<glyph unicode="p" glyph-name="p" horiz-adv-x="1062" d="M132 -172V774Q132 836 141 887T181 969T282 1000Q347 1000 380 975T424 911T436 832Q456 898 508 949T652 1000Q707 1000 762 982T861 922Q905 880 932 813T960 646V356Q960 256 933 189T861 80Q817
38 762 20T652 2Q561 2 509 52T436 170V-172Q436 -235 426 -286T382 -369T282 -400Q217 -400 185 -369T143 -286T132 -172ZM652 378V620Q652 679 638 722T564 766Q490 766 462 695Q448 658 443 602T436 470Q436 422 447 368T486 275T564 236Q624 236 638 279T652
378Z" />
<glyph unicode="q" glyph-name="q" horiz-adv-x="1062" d="M932 774V-172Q932 -234 922 -286T879 -369T782 -400Q715 -400 682 -369T639 -287T628 -172V170Q608 103 556 53T412 2Q357 2 302 20T203 80Q159 121 132 188T104 356V646Q104 745 131 812T203 922Q247
964 302 982T412 1000Q504 1000 556 949T628 832Q628 872 639 910T684 974T782 1000Q851 1000 882 970T923 888T932 774ZM412 620V378Q412 322 426 279T500 236Q550 236 578 274T617 367T628 470Q627 546 622 602T602 695Q574 766 500 766Q440 766 426 723T412
620Z" />
<glyph unicode="r" glyph-name="r" horiz-adv-x="792" d="M770 850Q770 700 622 700Q600 700 571 695T512 672Q490 659 472 638Q454 616 443 583T432 504V218Q432 159 421 110T378 30T280 0Q217 0 185 30T143 110T132 218V778Q132 839 142 888T185 968T280 998Q346
998 374 963T409 872T416 754H432Q458 856 516 927T644 998Q721 998 745 963T770 850Z" />
<glyph unicode="s" glyph-name="s" horiz-adv-x="910" d="M386 738Q386 697 438 667T548 608Q619 574 685 533T793 435T836 292Q836 234 819 186Q783 96 705 51Q686 40 666 32T624 16Q581 3 537 -2T454 -8Q375 -8 320 5Q263 18 222 39T155 89Q118 127 102 173T86
260Q86 376 222 376Q272 376 304 349T338 262Q340 224 376 211T452 198Q491 198 515 218T540 272Q540 311 511 342T438 399T348 450Q286 483 227 521T130 610T92 730Q92 808 117 860T192 946Q241 978 311 992T472 1008H488Q567 1008 626 994Q682 980 719 958T779
907Q809 868 817 828T826 752Q826 693 783 673T680 650Q636 650 605 676T574 734Q572 772 544 792T474 812Q438 812 412 796T386 738Z" />
<glyph unicode="t" glyph-name="t" horiz-adv-x="870" d="M202 1000H258V1176Q258 1236 268 1287T312 1369T410 1400Q475 1400 507 1369T549 1288T560 1176V1000H642Q704 1000 745 980T786 880Q786 804 745 782T642 760H560V410Q560 362 574 322T650 282Q723 282
754 256T786 154Q786 74 718 37T560 0Q489 0 439 15Q342 43 302 124Q282 163 273 210Q263 258 261 313T258 430V760H202Q141 760 101 782T60 880Q60 960 100 980T202 1000Z" />
<glyph unicode="u" glyph-name="u" horiz-adv-x="1076" d="M118 356V772Q118 834 129 885T174 968T274 1000Q340 1000 372 969T415 886T426 772V382Q426 322 441 278T514 234Q554 234 579 261T620 335Q634 382 639 445T644 582V772Q644 834 655 885T700 968T800
1000Q866 1000 898 969T941 886T952 772V226Q952 164 944 113T903 31T800 0Q735 0 702 25T656 89T644 168Q626 102 571 51T426 0Q371 0 316 18T217 78Q173 120 146 188T118 356Z" />
<glyph unicode="v" glyph-name="v" horiz-adv-x="876" d="M820 748L598 156Q561 57 530 29T446 0Q391 0 358 28T286 156L60 748Q51 772 44 799T36 854Q36 916 70 958T178 1000Q233 1000 271 956T326 856L438 492H454L558 856Q573 911 611 955T712 1000Q781 1000
812 956T844 852Q844 804 820 748Z" />
<glyph unicode="w" glyph-name="w" horiz-adv-x="1396" d="M700 884Q748 884 785 854T852 744L958 462H974L1086 854Q1103 913 1139 956T1240 1000Q1309 1000 1340 955T1372 850Q1372 823 1365 798T1348 746L1126 156Q1087 56 1058 28T974 0Q918 0 884 28T812
156L708 516H692L584 156Q547 56 517 28T434 0Q378 0 344 28T272 156L48 746Q39 770 32 797T24 852Q24 916 57 958T166 1000Q222 1000 257 955T310 854L436 462H452L544 744Q569 823 610 853T700 884Z" />
<glyph unicode="x" glyph-name="x" horiz-adv-x="938" d="M728 1000Q766 1000 804 974Q860 936 860 882Q860 849 844 813T804 744L626 500L804 258Q827 223 843 188T860 120Q860 64 804 26Q763 0 730 0Q687 0 655 34T592 110L472 278L348 110Q322 67 289 34T214
0Q181 0 140 26Q84 65 84 120Q84 153 100 188T140 258L308 500L140 744Q117 779 101 813T84 880Q84 935 140 974Q181 1000 214 1000Q255 1000 288 967T348 892L472 724L592 892Q621 934 653 967T728 1000Z" />
<glyph unicode="y" glyph-name="y" horiz-adv-x="916" d="M230 -400Q116 -400 68 -368T20 -272Q20 -213 50 -188T128 -162Q136 -162 142 -162T156 -163Q163 -164 168 -164T178 -164Q203 -164 226 -126T272 -34T316 60L300 100Q284 141 262 198T216 313T176 417Q145
500 114 581T58 740Q47 772 40 803T32 864Q32 922 77 961T184 1000Q241 1000 277 955T334 850L468 428L596 850Q614 907 652 955T748 1004Q807 1004 849 962T892 858Q892 828 885 799T866 740L626 104Q616 77 605 49T581 -9Q556 -67 527 -123T465 -229Q449 -254
432 -276T395 -317Q358 -355 317 -377T230 -400Z" />
<glyph unicode="z" glyph-name="z" horiz-adv-x="916" d="M258 1000H654Q697 1000 740 989T811 952T840 876Q840 845 822 810T786 740L438 254H658Q735 254 789 233T844 128Q844 46 789 23T658 0H264Q219 0 176 9T105 45T76 122Q76 158 93 194T132 260L478 748H258Q182
748 127 769T72 872Q72 954 127 977T258 1000Z" />
<glyph unicode="{" glyph-name="braceleft" horiz-adv-x="1012" d="M794 1566Q863 1566 897 1535T932 1450Q932 1402 902 1368T802 1334Q756 1332 722 1313Q688 1294 665 1256T642 1156V1018Q642 948 627 894T592 801Q576 770 554 746T518 716Q532 712 554 687T592
631Q612 592 627 538T642 414V238Q642 182 665 147T722 93Q756 75 802 72Q871 72 901 38T932 -44Q932 -160 750 -160Q641 -154 556 -108Q520 -89 485 -59T423 16Q395 60 379 119T362 256V444Q362 528 333 563T256 624Q227 641 208 660T188 716Q188 755 207 773T256
806Q305 832 333 867T362 988V1204Q362 1295 396 1363T488 1476Q547 1521 625 1543T794 1566Z" />
<glyph unicode="|" glyph-name="bar" horiz-adv-x="604" d="M424 1422V-16Q424 -79 403 -119T304 -160Q222 -160 201 -121T180 -16V1422Q180 1484 201 1525T304 1566Q379 1566 401 1524T424 1422Z" />
<glyph unicode="}" glyph-name="braceright" horiz-adv-x="1012" d="M824 716Q824 679 805 660T756 624Q710 599 680 564T650 444V256Q650 178 634 119T590 16Q562 -28 527 -58T456 -108Q371 -154 262 -160Q80 -160 80 -44Q80 9 113 40T212 72Q257 75 291 93Q324
111 347 146T370 238V414Q370 483 385 537T422 631Q439 662 461 687T496 716Q483 721 461 745T422 801Q401 839 386 893T370 1018V1156Q370 1216 348 1255T291 1313Q257 1332 212 1334Q147 1334 114 1366T80 1450Q80 1504 115 1535T220 1566Q311 1566 389 1544T526
1476Q584 1431 617 1363T650 1204V988Q650 902 680 867T756 806Q785 791 804 773T824 716Z" />
<glyph unicode="~" glyph-name="asciitilde" horiz-adv-x="918" d="M422 158Q382 180 360 180Q331 180 280 128Q247 90 216 90Q198 90 174 101T134 134Q112 159 112 186Q112 207 126 231T172 286L246 352Q270 373 294 385T348 398Q369 398 389 390T434 370Q520
326 545 315Q569 304 576 304Q604 304 640 344Q657 359 675 369T714 380Q728 378 741 372T772 348Q790 330 796 313T802 278Q798 256 777 229T738 186Q683 129 650 107T590 84Q567 84 532 101T422 158Z" />
<glyph unicode="&#xa0;" glyph-name="uni00A0" horiz-adv-x="500" />
<glyph unicode="&#xab;" glyph-name="guillemotleft" horiz-adv-x="1526" d="M1064 196L750 508Q730 528 710 553T690 610Q690 639 708 662T752 712L1066 1024Q1089 1047 1113 1065T1168 1084Q1208 1084 1254 1038Q1296 996 1296 956Q1296 926 1279 901T1238 852L992
608L1236 368Q1260 344 1278 320T1296 266Q1296 246 1286 225T1250 178Q1208 136 1168 136Q1139 136 1114 154T1064 196ZM502 194L188 506Q168 526 148 551T128 608Q128 637 146 660T190 710L504 1022Q527 1045 551 1063T606 1082Q646 1082 692 1036Q734 994 734
954Q734 924 717 899T676 850L430 606L674 366Q698 342 716 318T734 264Q734 244 724 223T688 176Q646 134 606 134Q577 134 552 152T502 194Z" />
<glyph unicode="&#xbb;" glyph-name="guillemotright" horiz-adv-x="1536" d="M734 508L420 196Q396 172 371 154T316 136Q276 136 234 178Q208 204 198 225T188 266Q188 295 206 319T248 368L492 608L246 852Q223 875 206 900T188 956Q188 996 230 1038Q276 1084
316 1084Q346 1084 370 1066T418 1024L732 712Q758 686 776 663T794 610Q794 579 774 554T734 508ZM1296 506L982 194Q958 170 933 152T878 134Q838 134 796 176Q770 202 760 223T750 264Q750 293 768 317T810 366L1054 606L808 850Q785 873 768 898T750 954Q750
994 792 1036Q838 1082 878 1082Q908 1082 932 1064T980 1022L1294 710Q1320 684 1338 661T1356 608Q1356 577 1336 552T1296 506Z" />
</font>
</defs>
</svg>
