<?xml version="1.0" standalone="no"?>
<!DOCTYPE svg PUBLIC "-//W3C//DTD SVG 1.1//EN" "http://www.w3.org/Graphics/SVG/1.1/DTD/svg11.dtd">
<svg xmlns="http://www.w3.org/2000/svg">
<defs >
<font id="SulphurPoint" horiz-adv-x="504" ><font-face
    font-family="Sulphur Point"
    units-per-em="1000"
    panose-1="0 0 5 0 0 0 0 0 0 0"
    ascent="790"
    descent="-210"
    alphabetic="0" />
<glyph unicode=" " glyph-name="space" horiz-adv-x="450" />
<glyph unicode="!" glyph-name="exclam" horiz-adv-x="179" d="M56 146V665H124V146H56ZM73 -4T62 8T50 36Q50 52 61 64T89 76Q106 76 117 65T129 36Q129 20 118 8T89 -4Q73 -4 62 8Z" />
<glyph unicode="&quot;" glyph-name="quotedbl" horiz-adv-x="266" d="M163 454L157 664H226L220 454H163ZM46 454L40 664H109L103 454H46Z" />
<glyph unicode="#" glyph-name="numbersign" horiz-adv-x="765" d="M528 410V254H715V186H528V0H460V186H304V0H236V186H50V254H236V410H50V478H236V665H304V478H460V665H528V478H715V410H528ZM460 410H304V254H460V410Z" />
<glyph unicode="$" glyph-name="dollar" horiz-adv-x="530" d="M490 282T490 187Q490 150 476 117T435 59Q385 9 299 1V-56H231V2Q151 13 103 58Q51 106 40 189H109Q118 137 150 107Q182 78 231 71V300Q62 324 62 478Q62 517 75 552T113 612Q158 656 231 663V721H299V663Q386
655 433 602T488 472H419Q414 508 396 537Q365 587 299 596V362Q378 352 420 323Q490 282 490 187ZM129 425T156 401T231 370V595Q186 589 161 564Q143 545 136 522T129 478Q129 425 156 401ZM355 76T388 108T422 187Q422 232 397 257T299 293V69Q355 76 388 108Z"
/>
<glyph unicode="%" glyph-name="percent" horiz-adv-x="747" d="M140 666T109 648T59 597T40 528Q40 491 58 460T108 410T177 391Q214 391 245 409T295 459T314 528Q314 565 296 597T246 647T177 666Q140 666 109 648ZM586 666L228 0H151L509 666H586ZM206 597T226
577T246 528Q246 500 226 480T177 459Q149 459 129 479T108 528Q108 557 128 577T177 597Q206 597 226 577ZM532 272T501 254T451 204T432 135Q432 98 450 67T500 17T569 -2Q606 -2 638 16T688 66T707 135Q707 172 689 203T638 253T569 272Q532 272 501 254ZM598
204T618 184T638 135Q638 107 618 87T569 66Q541 66 521 86T500 135Q500 164 520 184T569 204Q598 204 618 184Z" />
<glyph unicode="&amp;" glyph-name="ampersand" horiz-adv-x="530" d="M490 0H406L384 32H383L381 31L379 29Q327 -4 266 -4Q211 -4 161 22T79 97Q40 154 40 224Q40 243 43 262Q50 303 71 338T126 397L106 425Q89 449 84 468T78 497Q78 543 101 581T162 643T246
666Q292 666 330 643T392 582T415 497H347Q347 539 318 568T246 598Q205 598 176 569T146 498Q146 495 149 486T162 464L393 136Q416 172 414 215V239H482V217Q483 179 471 143T435 77L490 0ZM344 88L165 342Q137 322 123 292T108 224Q108 175 136 135Q158 101
192 83T265 64Q309 64 342 87L344 88Z" />
<glyph unicode="&apos;" glyph-name="quotesingle" horiz-adv-x="149" d="M46 454L40 664H109L103 454H46Z" />
<glyph unicode="(" glyph-name="parenleft" horiz-adv-x="189" d="M118 460T118 253Q118 61 152 -121H83Q50 64 50 253Q50 457 90 665H159Q118 460 118 253Z" />
<glyph unicode=")" glyph-name="parenright" horiz-adv-x="189" d="M99 665Q139 457 139 253Q139 64 106 -121H37Q71 61 71 253Q71 460 30 665H99Z" />
<glyph unicode="*" glyph-name="asterisk" horiz-adv-x="442" d="M280 481L402 397L364 341L255 417V315H187V417L78 341L40 397L162 481L40 565L78 621L187 545V665H255V545L364 621L402 565L280 481Z" />
<glyph unicode="+" glyph-name="plus" horiz-adv-x="550" d="M510 246H309V45H241V246H40V314H241V515H309V314H510V246Z" />
<glyph unicode="," glyph-name="comma" horiz-adv-x="221" d="M171 107L102 -102H40L99 107H171Z" />
<glyph unicode="-" glyph-name="hyphen" horiz-adv-x="432" d="M40 246V314H392V246H40Z" />
<glyph unicode="." glyph-name="period" horiz-adv-x="150" d="M76 2T88 13T100 42Q100 59 88 70T59 82Q43 82 32 70T20 42Q20 26 31 14T59 2Q76 2 88 13Z" />
<glyph unicode="/" glyph-name="slash" horiz-adv-x="515" d="M475 666L117 0H40L398 666H475Z" />
<glyph unicode="0" glyph-name="zero" d="M233 670Q181 670 137 644T66 574T40 477V188Q40 136 66 92T136 21T233 -5H271Q324 -5 368 21T438 91T464 188V477Q464 529 438 573T368 644T271 670H233ZM323 602T360 565Q396 527 396 477V188Q396 138 360 100Q323 63
271 63H233Q182 63 145 100Q108 137 108 188V477Q108 528 145 565Q182 602 233 602H271Q323 602 360 565Z" />
<glyph unicode="1" glyph-name="one" horiz-adv-x="305" d="M255 0H187V580L120 470H40L159 665H255V0Z" />
<glyph unicode="2" glyph-name="two" horiz-adv-x="447" d="M46 0L42 30Q42 31 41 42T40 75Q40 123 48 158Q62 228 100 272T198 330Q253 344 295 375T338 464Q338 500 320 530T272 579T206 597H64V665H206Q261 665 307 638T380 565T407 464Q407 384 346 329Q297
284 214 264Q136 244 115 146Q110 120 110 96T110 68H373V0H46Z" />
<glyph unicode="3" glyph-name="three" horiz-adv-x="413" d="M332 307T352 268T373 183Q373 133 349 91T282 25T190 0H40V68H190Q238 68 271 101T305 183Q305 230 272 264T190 298H134V366H190Q238 366 271 400T305 481Q305 529 272 562T190 596H40V665H190Q240
665 282 640T348 573T373 481Q373 436 353 397T297 332Q332 307 352 268Z" />
<glyph unicode="4" glyph-name="four" d="M375 243H464V175H375V-1H308V175H40L245 664H319L140 243H308V348H375V243Z" />
<glyph unicode="5" glyph-name="five" horiz-adv-x="455" d="M55 0V68H214Q250 68 280 86T329 134T347 201Q347 237 329 267T281 316T214 334H50V665H381V597H119V402H214Q269 402 315 375T388 302T415 201Q415 146 388 100T315 27T214 0H55Z" />
<glyph unicode="6" glyph-name="six" horiz-adv-x="484" d="M297 401T343 374T417 300T444 198Q444 143 417 97T344 24T242 -4Q187 -4 141 23T67 97T40 198Q40 242 57 281L222 665H296L179 390Q210 401 242 401Q297 401 343 374ZM278 65T309 83T358 131T376 198Q376
235 358 265T309 314T242 332Q205 332 175 314T126 266T108 198Q108 162 126 132T174 83T242 65Q278 65 309 83Z" />
<glyph unicode="7" glyph-name="seven" horiz-adv-x="428" d="M293 596H40V665H378L234 0H164L293 596Z" />
<glyph unicode="8" glyph-name="eight" horiz-adv-x="479" d="M439 234T439 194Q439 135 407 85T319 11Q281 -5 240 -5Q181 -5 131 27T57 114Q40 154 40 194Q40 245 64 290T133 362Q102 388 86 425Q72 456 72 492Q72 541 99 583T172 646Q206 660 239 660Q288 660
330 633T393 559Q407 528 407 492Q407 454 391 420T346 362Q398 330 422 274Q439 234 439 194ZM139 512T139 493Q139 472 148 452Q158 428 178 413T224 393H239H255Q269 395 280 400Q318 417 333 455Q340 472 340 492Q340 511 332 532Q320 559 295 575T240 592H239Q220
592 199 584Q162 567 146 529Q139 512 139 493ZM329 88T350 121T371 194Q371 224 360 247Q347 279 319 299T256 325Q251 324 240 324Q229 324 223 325Q203 322 187 315Q150 299 129 266T108 194Q108 168 119 141Q135 105 167 84T240 62Q267 62 292 73Q329 88 350
121Z" />
<glyph unicode="9" glyph-name="nine" horiz-adv-x="484" d="M187 264T141 291T67 365T40 467Q40 522 67 568T140 641T242 669Q297 669 343 642T417 568T444 467Q444 423 427 384L262 0H188L305 275Q274 264 242 264Q187 264 141 291ZM206 600T175 582T126 534T108
467Q108 430 126 400T175 351T242 333Q279 333 309 351T358 399T376 467Q376 503 358 533T310 582T242 600Q206 600 175 582Z" />
<glyph unicode=":" glyph-name="colon" horiz-adv-x="189" d="M106 3T118 14T130 43Q130 60 118 71T89 83Q73 83 62 71T50 43Q50 27 61 15T89 3Q106 3 118 14ZM106 334T118 345T130 374Q130 391 118 402T89 414Q73 414 62 402T50 374Q50 358 61 346T89 334Q106
334 118 345Z" />
<glyph unicode=";" glyph-name="semicolon" horiz-adv-x="221" d="M138 345T150 356T162 385Q162 402 150 413T121 425Q105 425 94 413T82 385Q82 369 93 357T121 345Q138 345 150 356ZM161 107L92 -102H30L89 107H161Z" />
<glyph unicode="&lt;" glyph-name="less" horiz-adv-x="668" d="M628 0L40 239V302L628 551V477L143 271L628 74V0Z" />
<glyph unicode="=" glyph-name="equal" horiz-adv-x="550" d="M510 401H40V332H510V401ZM40 163V231H510V163H40Z" />
<glyph unicode="&gt;" glyph-name="greater" horiz-adv-x="668" d="M525 271L40 477V551L628 302V239L40 0V74L525 271Z" />
<glyph unicode="?" glyph-name="question" horiz-adv-x="509" d="M238 157V289L337 372Q370 400 385 429T401 493Q401 533 382 566T328 619T255 639Q215 639 182 620T128 567T108 493H40Q40 552 69 601T147 679T255 708Q313 708 362 679T440 601T469 493Q469 394
381 319L306 257V157H238ZM254 -4T241 9T228 40Q228 59 241 72T272 85Q291 85 304 72T317 40Q317 22 304 9T272 -4Q254 -4 241 9Z" />
<glyph unicode="@" glyph-name="at" horiz-adv-x="750" d="M466 667T543 622T665 500T710 332Q710 194 645 133Q626 116 601 107T550 97Q526 97 505 106Q482 116 469 135T456 181V216Q413 181 357 181Q316 181 281 201T225 257T204 334Q204 375 224 410T280 466T357
487Q412 487 456 451V487H524V224V181Q524 176 525 174T532 169Q540 166 550 166Q580 166 598 183Q642 225 642 332Q642 404 606 465T509 562T375 598Q303 598 242 562T145 465T109 332Q109 260 145 199T242 101T375 65Q409 65 442 74L459 7Q420 -3 375 -3Q284
-3 208 42T86 164T40 332Q40 423 85 500T207 622T375 667Q466 667 543 622ZM392 249T417 274T442 334Q442 369 417 393T357 418Q323 418 298 394T273 334Q273 299 297 274T357 249Q392 249 417 274Z" />
<glyph unicode="A" glyph-name="A" horiz-adv-x="632" d="M433 245H199L113 0H40L273 664H359L592 0H519L433 245ZM411 309L316 581L221 309H411Z" />
<glyph unicode="B" glyph-name="B" horiz-adv-x="493" d="M404 318T428 276T453 183Q453 133 429 91T362 25T269 0H50V666L245 667Q295 667 337 642T404 575T429 483Q429 441 412 405T363 342Q404 318 428 276ZM360 530T326 564T245 598H118V367H245Q292 367 326
401T360 483Q360 530 326 564ZM317 68T351 102T385 183Q385 231 351 265T269 299H118V68H269Q317 68 351 102Z" />
<glyph unicode="C" glyph-name="C" horiz-adv-x="671" d="M284 -6T207 39T85 161T40 330Q40 422 85 499T207 622T376 668Q450 668 517 638T631 550L579 506Q541 550 488 574T376 599Q304 599 243 563T145 464T109 330Q109 258 145 197T242 99T376 63Q434 63 487
87T579 156L631 112Q584 56 517 25T376 -6Q284 -6 207 39Z" />
<glyph unicode="D" glyph-name="D" horiz-adv-x="591" d="M50 0V666H218Q309 666 385 621T506 500T551 333Q551 242 506 166T385 45T218 0H50ZM218 68Q290 68 351 103T447 200T483 333Q483 405 448 466T351 562T218 598H119V68H218Z" />
<glyph unicode="E" glyph-name="E" horiz-adv-x="464" d="M118 597V364H317V300H118V68H414V0H50V665H414V597H118Z" />
<glyph unicode="F" glyph-name="F" horiz-adv-x="454" d="M117 597V366H317V298H117V0H50V665H414V597H117Z" />
<glyph unicode="G" glyph-name="G" horiz-adv-x="693" d="M643 313V133Q614 93 576 64Q558 50 530 35Q455 -4 374 -4Q283 -4 203 43T79 173Q57 217 49 255Q40 293 40 331Q40 407 73 473Q95 519 130 557T211 621Q286 663 375 663Q398 663 421 660Q480 652 533 623T627
546L575 502Q530 554 470 576Q424 594 373 594Q305 594 249 564Q213 544 184 514T137 447Q109 392 109 329Q109 295 118 260Q141 176 212 120Q247 94 288 80T373 65Q431 65 484 89T575 158L576 245H479V313H643Z" />
<glyph unicode="H" glyph-name="H" horiz-adv-x="545" d="M495 665V0H428V298H118V0H50V665H118V366H428V665H495Z" />
<glyph unicode="I" glyph-name="I" horiz-adv-x="168" d="M118 665V0H50V665H118Z" />
<glyph unicode="J" glyph-name="J" horiz-adv-x="273" d="M87 68T121 102T155 183V665H223V183Q223 133 199 91T132 25T40 0V68Q87 68 121 102Z" />
<glyph unicode="K" glyph-name="K" horiz-adv-x="493" d="M114 274V0H50V664H114V380L357 664H447L159 327L453 0H361L114 274Z" />
<glyph unicode="L" glyph-name="L" horiz-adv-x="376" d="M336 68V0H50V665H119V68H336Z" />
<glyph unicode="M" glyph-name="M" horiz-adv-x="743" d="M693 665V2H624V568L400 244H342L118 568V0H50V665H134L371 322L608 665H693Z" />
<glyph unicode="N" glyph-name="N" horiz-adv-x="585" d="M535 665V0H454L119 537V0H50V665H122L467 113V665H535Z" />
<glyph unicode="O" glyph-name="O" horiz-adv-x="747" d="M282 -5T206 40T85 161T40 328Q40 419 85 495T206 617T373 662Q463 662 540 617T662 495T707 328Q707 238 662 162T541 40T373 -5Q282 -5 206 40ZM445 63T506 98T602 195T638 328Q638 400 603 461T506
557T373 593Q301 593 240 558T144 461T108 328Q108 256 143 195T240 99T373 63Q445 63 506 98Z" />
<glyph unicode="P" glyph-name="P" horiz-adv-x="490" d="M294 665T343 636T421 558T450 452Q450 395 421 346T343 269T236 240H119V0H50V665H236Q294 665 343 636ZM275 307T308 326T361 379T381 452Q381 491 362 524T309 576T236 596H119V307H236Q275 307 308 326Z" />
<glyph unicode="Q" glyph-name="Q" horiz-adv-x="747" d="M707 254T672 185T575 68H707V0H376H373Q282 0 206 45T85 166T40 333Q40 424 85 500T206 622T373 667Q463 667 540 622T662 500T707 333Q707 254 672 185ZM108 261T143 200T240 104T373 68Q445 68 506
103T602 200T638 333Q638 405 603 466T506 562T373 598Q301 598 240 563T144 466T108 333Q108 261 143 200Z" />
<glyph unicode="R" glyph-name="R" horiz-adv-x="472" d="M217 239L432 0H340L125 239H119V0H50V664H220Q278 664 326 636T403 558T432 451Q432 393 404 345T327 268T220 239H217ZM119 596V307H220Q259 307 292 326T344 379T364 451Q364 490 345 523T292 576T220
596H119Z" />
<glyph unicode="S" glyph-name="S" horiz-adv-x="536" d="M424 472Q419 510 400 538Q361 598 271 598Q196 598 162 564Q131 532 131 477Q131 416 165 393T260 365Q318 360 358 350T425 321Q496 277 496 183Q496 146 482 113T440 54Q379 -6 273 -6Q166 -6 104 53Q51
102 40 185H109Q118 135 151 103Q194 63 274 63Q342 63 384 96T427 183Q427 217 414 239T362 276T254 296Q62 313 62 477Q62 518 75 552T114 612Q169 667 270 667H271Q374 666 428 611T493 471H424V472Z" />
<glyph unicode="T" glyph-name="T" horiz-adv-x="490" d="M450 598H279V0H211V598H40V665H450V598Z" />
<glyph unicode="U" glyph-name="U" horiz-adv-x="564" d="M219 -7T166 24T82 109T50 225V665H117V225Q117 180 139 143T199 84T282 62Q327 62 365 83T426 142T448 225V665H514V225Q514 162 483 109T398 25T282 -7Q219 -7 166 24Z" />
<glyph unicode="V" glyph-name="V" horiz-adv-x="631" d="M272 1L40 666H113L316 85L519 666H591L359 1H272Z" />
<glyph unicode="W" glyph-name="W" horiz-adv-x="926" d="M316 100L428 421L340 666H413L501 421L617 100L813 666H886L654 0H580L465 319L354 0H279L40 666H113L316 100Z" />
<glyph unicode="X" glyph-name="X" horiz-adv-x="570" d="M325 333L530 0H449L285 267L120 0H40L245 332L40 665H120L285 397L450 665H530L325 333Z" />
<glyph unicode="Y" glyph-name="Y" horiz-adv-x="560" d="M315 245V0H246V243L40 665H116L280 330L444 665H520L315 245Z" />
<glyph unicode="Z" glyph-name="Z" horiz-adv-x="532" d="M492 0H40V66L408 597H40V665H492V597L125 69H492V0Z" />
<glyph unicode="[" glyph-name="bracketleft" horiz-adv-x="289" d="M50 -128V664H259V596H117V-60H259V-128H50Z" />
<glyph unicode="\" glyph-name="backslash" horiz-adv-x="515" d="M475 0H398L40 666H117L475 0Z" />
<glyph unicode="]" glyph-name="bracketright" horiz-adv-x="289" d="M30 -60H172V596H30V664H239V-128H30V-60Z" />
<glyph unicode="^" glyph-name="asciicircum" horiz-adv-x="389" d="M40 344L152 665H237L349 344H278L194 583L111 344H40Z" />
<glyph unicode="_" glyph-name="underscore" horiz-adv-x="516" d="M40 -48H476V-98H40V-48Z" />
<glyph unicode="`" glyph-name="grave" horiz-adv-x="600" d="M107 549H45L0 686H68L107 549Z" />
<glyph unicode="a" glyph-name="a" horiz-adv-x="595" d="M545 487V0H476V92Q407 -5 292 -5Q223 -5 165 28T74 120T40 246Q40 315 73 373T165 464T292 498Q363 498 408 469T476 405V487H545ZM342 63T384 87T450 154T475 246Q475 296 451 338T384 405T292 430Q242
430 200 406T133 339T108 246Q108 196 132 154T199 88T292 63Q342 63 384 87Z" />
<glyph unicode="b" glyph-name="b" horiz-adv-x="597" d="M117 664V408Q186 501 304 501Q373 501 431 467T523 375T557 248Q557 180 523 122T431 29T304 -5Q190 -5 117 93V0H50V664H117ZM119 198T144 156T211 88T304 63Q354 63 396 88T463 155T488 248Q488 298
463 340T396 407T304 432Q254 432 212 407T144 340T119 248Q119 198 144 156Z" />
<glyph unicode="c" glyph-name="c" horiz-adv-x="524" d="M484 84Q448 42 399 19T292 -5Q224 -5 166 29T74 121T40 247Q40 315 74 373T166 465T292 499Q349 499 398 476T484 410L423 375Q398 401 364 415T292 430Q242 430 200 406T133 339T108 247Q108 197 133
155T200 89T292 64Q330 64 364 78T423 119L484 84Z" />
<glyph unicode="d" glyph-name="d" horiz-adv-x="597" d="M547 0H480V93Q407 -5 293 -5Q224 -5 166 29T74 121T40 248Q40 316 74 374T166 467T293 501Q411 501 480 408V664H547V0ZM478 298T453 340T386 407T293 432Q243 432 201 407T134 340T109 248Q109 198 134
156T201 88T293 63Q343 63 385 88T453 155T478 248Q478 298 453 340Z" />
<glyph unicode="e" glyph-name="e" horiz-adv-x="584" d="M112 213Q124 149 175 107T292 64Q341 64 382 87T448 150L507 116Q473 61 416 28T292 -5Q224 -5 166 29T74 121T40 247Q40 316 74 373T166 465T292 499Q360 499 418 465T510 374T544 247Q544 235 542 213H112ZM248
431T206 411T138 355T112 278H472Q472 319 446 354T379 410T292 431Q248 431 206 411Z" />
<glyph unicode="f" glyph-name="f" horiz-adv-x="315" d="M241 602T209 573T171 500H285V432H170V0H102V432H50V500H102Q105 547 130 586T196 647T285 670V602Q241 602 209 573Z" />
<glyph unicode="g" glyph-name="g" horiz-adv-x="594" d="M544 487V38Q544 -30 510 -88T418 -179T292 -213Q233 -213 182 -188T95 -119L156 -83Q181 -112 216 -128T292 -145Q342 -145 384 -121T450 -54T475 38V94Q406 -3 291 -3Q224 -3 166 33T74 128T40 255Q40
322 74 378T165 467T291 500Q361 500 407 471T475 407V487H544ZM341 65T383 89T449 156T474 248Q474 298 450 340T383 406T291 431Q241 431 199 407T132 340T107 248Q107 198 132 156T199 90T291 65Q341 65 383 89Z" />
<glyph unicode="h" glyph-name="h" horiz-adv-x="497" d="M303 504T348 478T420 406T447 306V0H378V306Q378 341 361 371T314 418T249 436Q214 436 184 419T137 371T119 306V0H50V667H119V448Q143 476 176 490T249 504Q303 504 348 478Z" />
<glyph unicode="i" glyph-name="i" horiz-adv-x="189" d="M113 639T126 626T139 595Q139 576 126 563T95 550Q76 550 63 563T50 595Q50 613 63 626T95 639Q113 639 126 626ZM129 500V0H60V500H129Z" />
<glyph unicode="j" glyph-name="j" horiz-adv-x="244" d="M168 639T181 626T194 595Q194 576 181 563T149 550Q131 550 118 563T105 595Q105 613 118 626T149 639Q168 639 181 626ZM48 -145T81 -111T115 -30V500H184V-30Q184 -80 160 -122T93 -188T0 -213V-145Q48
-145 81 -111Z" />
<glyph unicode="k" glyph-name="k" horiz-adv-x="432" d="M301 0L119 213V0H50V670H119V352L283 500H386L147 285L392 0H301Z" />
<glyph unicode="l" glyph-name="l" horiz-adv-x="168" d="M118 665V0H50V665H118Z" />
<glyph unicode="m" glyph-name="m" horiz-adv-x="765" d="M582 500T624 476T690 409T715 316V0H647V316Q647 364 613 397T532 431Q484 431 451 398T417 317V316V0H348V317Q348 364 314 397T233 431Q186 431 152 397T118 314V0H50V487H118V448Q138 472 169 486T233
500Q278 500 317 479T382 423Q408 458 447 479T532 500Q582 500 624 476Z" />
<glyph unicode="n" glyph-name="n" horiz-adv-x="487" d="M302 500T347 474T420 402T447 302V0H378V302Q378 337 361 366T313 413T248 431Q213 431 183 414T136 367T118 302V0H50V487H118V443Q143 471 176 485T248 500Q302 500 347 474Z" />
<glyph unicode="o" glyph-name="o" horiz-adv-x="588" d="M225 -5T167 29T74 121T40 248Q40 317 74 375T166 468T293 503Q362 503 420 469T513 376T548 248Q548 180 514 122T421 29T293 -5Q225 -5 167 29ZM344 62T386 87T454 155T479 248Q479 299 454 342T387
410T293 435Q243 435 201 410T133 342T108 248Q108 198 133 155T200 87T293 62Q344 62 386 87Z" />
<glyph unicode="p" glyph-name="p" horiz-adv-x="595" d="M50 -213V487H118V404Q153 453 200 477T303 502Q371 502 429 468T521 376T555 250Q555 182 521 124T429 32T303 -2Q232 -2 186 27T118 91V-213H50ZM253 433T211 409T144 342T119 250Q119 200 144 158T211
91T303 66Q353 66 395 91T461 158T486 250Q486 300 462 342T395 408T303 433Q253 433 211 409Z" />
<glyph unicode="q" glyph-name="q" horiz-adv-x="595" d="M477 91Q455 57 409 28T292 -2Q224 -2 166 32T74 124T40 250Q40 318 74 376T166 468T292 502Q348 502 395 478T477 404V487H545V-213H477V91ZM242 433T200 409T134 342T109 250Q109 200 133 158T200 91T292
66Q342 66 384 91T451 158T476 250Q476 300 451 342T384 408T292 433Q242 433 200 409Z" />
<glyph unicode="r" glyph-name="r" horiz-adv-x="387" d="M256 436T233 436Q186 436 152 402T118 321V0H50V321Q50 375 78 419T153 486L155 487Q192 504 233 504Q297 504 347 465L279 426Q256 436 233 436Z" />
<glyph unicode="s" glyph-name="s" horiz-adv-x="431" d="M118 106T135 90Q163 64 217 64Q264 64 293 86T322 143Q322 176 309 192T276 212T219 218Q167 221 134 229T74 268Q41 309 41 358Q41 370 42 376Q50 439 95 472T216 506H217Q273 506 308 485T362 434Q382
401 387 365H317Q315 379 304 398Q279 436 217 438Q154 438 134 417T110 368Q109 364 109 357Q109 333 126 314Q140 297 162 292T225 283Q258 281 281 277T326 262Q391 227 391 143Q391 114 380 88T347 41Q300 -5 218 -5Q138 -5 88 40Q49 78 40 134H110Q118 106
135 90Z" />
<glyph unicode="t" glyph-name="t" horiz-adv-x="315" d="M275 432H192V0H123V432H40V500H123V665H192V500H275V432Z" />
<glyph unicode="u" glyph-name="u" horiz-adv-x="487" d="M185 -4T140 22T67 94T40 194V500H109V194Q109 159 126 129T174 82T239 64Q274 64 304 81T351 129T369 194V500H437V5H369V53Q344 25 311 11T239 -4Q185 -4 140 22Z" />
<glyph unicode="v" glyph-name="v" horiz-adv-x="547" d="M507 498L310 0H237L40 498H113L274 95L434 498H507Z" />
<glyph unicode="w" glyph-name="w" horiz-adv-x="826" d="M786 500L589 0H517L414 259L311 0H239L40 500H114L275 95L377 351L318 500H392L553 95L713 500H786Z" />
<glyph unicode="x" glyph-name="x" horiz-adv-x="470" d="M275 244L425 0H344L235 178L125 0H45L194 244L40 496H120L235 309L349 496H430L275 244Z" />
<glyph unicode="y" glyph-name="y" horiz-adv-x="524" d="M474 500V4Q474 -55 445 -105T366 -184T257 -213Q200 -213 152 -186T74 -113L134 -79Q154 -109 186 -127T257 -145Q297 -145 331 -125T386 -71T406 4V57Q376 29 338 14T257 -2Q199 -2 150 26T71 103T40
209V500H108V215Q108 175 128 141T182 86T257 66Q297 66 331 86T386 140T406 215V500H474Z" />
<glyph unicode="z" glyph-name="z" horiz-adv-x="485" d="M445 68V0H40V68L353 427H40V496H445V427L133 68H445Z" />
<glyph unicode="{" glyph-name="braceleft" horiz-adv-x="327" d="M193 597T184 588T174 565V422Q175 391 169 354T142 295Q132 286 106 270Q130 257 142 245Q163 224 169 187T174 118V-24Q174 -38 183 -47T206 -56H297V-124H206Q165 -124 136 -95T106 -24V121Q107
145 104 168T94 198Q86 207 50 226V315Q86 334 94 343Q100 349 103 372T106 420V565Q106 606 135 635T206 665H297V597H206Q193 597 184 588Z" />
<glyph unicode="|" glyph-name="bar" horiz-adv-x="172" d="M50 0V665H122V0H50Z" />
<glyph unicode="}" glyph-name="braceright" horiz-adv-x="327" d="M50 597V665H141Q182 665 211 636T241 565V420Q240 396 243 373T253 343Q261 334 297 315V226Q261 207 253 198Q247 192 244 169T241 121V-24Q241 -65 212 -94T141 -124H50V-56H141Q155 -56 164
-47T173 -24V118Q172 149 178 186T205 245Q217 257 241 270Q215 286 205 295Q184 316 178 353T173 422V565Q173 579 164 588T141 597H50Z" />
<glyph unicode="~" glyph-name="asciitilde" horiz-adv-x="589" d="M416 290Q378 290 349 301T279 334Q273 337 254 346T219 361T187 366Q137 366 100 301L40 336Q68 384 104 409T183 435H186Q219 435 246 425T311 394Q345 376 367 368T417 358Q452 358 490 423L549
389Q494 290 417 290H416Z" />
<glyph unicode="&#xa0;" glyph-name="uni00A0" horiz-adv-x="450" />
<glyph unicode="&#xa1;" glyph-name="exclamdown" horiz-adv-x="189" d="M106 502T117 491T129 462Q129 446 118 434T89 422Q73 422 62 434T50 462Q50 478 61 490T89 502Q106 502 117 491ZM124 -167H56V352H124V-167Z" />
<glyph unicode="&#xa2;" glyph-name="cent" horiz-adv-x="525" d="M330 138T364 152T424 193L485 158Q454 121 411 98T319 70V22H250V73Q191 83 143 118T68 207T40 322Q40 384 67 437T143 526T250 572V624H319V574Q369 569 411 546T485 486L424 451Q398 477 364
491T292 506Q242 506 200 482T133 415T108 322Q108 272 133 230T200 163T292 138Q330 138 364 152Z" />
<glyph unicode="&#xa3;" glyph-name="sterling" horiz-adv-x="398" d="M243 621T209 587T175 506V437H291V368H175V69H358V0H40V69H107V368H54V437H107V506Q107 556 131 598T198 665T290 690H358V621H291Q243 621 209 587Z" />
<glyph unicode="&#xa4;" glyph-name="currency" horiz-adv-x="586" d="M546 165T495 98L540 53L491 4L446 49Q379 -2 293 -2Q209 -2 140 49L95 4L47 53L92 98Q67 130 54 169T40 250Q40 335 92 403L47 448L95 497L140 452Q209 503 293 503Q379 503 446 452L491
497L540 448L495 403Q546 336 546 250Q546 165 495 98ZM349 66T397 98Q424 117 445 147Q477 191 477 250Q477 310 445 354Q424 384 397 403Q349 435 293 435Q236 435 190 403Q161 383 141 354Q109 308 109 250Q109 193 141 147Q161 118 190 98Q236 66 293 66Q349
66 397 98Z" />
<glyph unicode="&#xa5;" glyph-name="yen" horiz-adv-x="563" d="M350 316H470V247H316V180H470V111H316V0H247V111H93V180H247V245L246 247H93V316H212L40 668H117L281 332L446 668H523L350 316Z" />
<glyph unicode="&#xa6;" glyph-name="brokenbar" horiz-adv-x="172" d="M50 403V666H122V403H50ZM50 0V263H122V0H50Z" />
<glyph unicode="&#xa7;" glyph-name="section" horiz-adv-x="430" d="M40 388T75 426L74 428Q40 467 40 521Q40 534 41 540Q49 602 94 635T215 669H216Q314 669 361 598Q379 568 387 527H316Q313 545 303 561Q278 601 216 601Q153 601 133 580T109 531Q108 527
108 520Q108 492 125 473L135 464Q155 448 194 448Q282 448 326 425Q390 391 390 306Q390 252 355 214L356 212Q390 175 390 121Q390 49 344 10T215 -29H214Q116 -29 69 42Q51 72 43 113H113Q119 92 127 79Q152 39 214 39Q277 39 297 60T321 109Q324 143 305 167L295
176Q275 192 236 192Q148 192 104 215Q40 249 40 334Q40 388 75 426ZM109 289T137 275T236 260Q271 260 296 251Q321 273 321 306Q321 351 293 365T194 380Q158 380 134 389Q109 367 109 334Q109 289 137 275Z" />
<glyph unicode="&#xa8;" glyph-name="dieresis" horiz-adv-x="600" d="M234 549T246 560T258 589Q258 606 246 617T217 629Q201 629 190 617T178 589Q178 573 189 561T217 549Q234 549 246 560ZM56 549T68 560T80 589Q80 606 68 617T39 629Q23 629 12 617T0 589Q0
573 11 561T39 549Q56 549 68 560Z" />
<glyph unicode="&#xa9;" glyph-name="copyright" horiz-adv-x="750" d="M284 666T207 621T85 499T40 331Q40 240 85 163T207 41T375 -4Q466 -4 543 41T665 163T710 331Q710 422 665 499T543 621T375 666Q284 666 207 621ZM447 597T508 561T606 464T642 331Q642
259 606 198T509 100T375 64Q303 64 242 100T145 197T109 331Q109 403 145 464T242 561T375 597Q447 597 508 561ZM426 148T463 165T526 214L474 258Q457 238 434 228T385 217Q338 217 304 251T270 333Q270 380 304 414T385 448Q411 448 434 438T474 407L526 451Q500
483 463 500T385 517Q335 517 293 492T226 425T201 333Q201 283 226 241T293 173T385 148Q426 148 463 165Z" />
<glyph unicode="&#xaa;" glyph-name="ordfeminine" horiz-adv-x="356" d="M316 665V391H269V426Q251 409 227 400T177 391Q140 391 109 409T59 459T40 528Q40 565 58 596T108 646T177 665Q203 665 227 656T269 630V665H316ZM214 439T240 465T266 528Q266 565 240
591T177 617Q140 617 114 591T88 528Q88 491 114 465T177 439Q214 439 240 465Z" />
<glyph unicode="&#xab;" glyph-name="guillemotleft" horiz-adv-x="564" d="M228 87L40 278L219 471H312L135 280L324 87H228ZM428 87L239 278L418 471H512L334 280L524 87H428Z" />
<glyph unicode="&#xac;" glyph-name="logicalnot" horiz-adv-x="581" d="M473 108V264H40V332L541 333V108H473Z" />
<glyph unicode="&#xad;" glyph-name="uni00AD" horiz-adv-x="432" d="M40 246V314H392V246H40Z" />
<glyph unicode="&#xae;" glyph-name="registered" horiz-adv-x="540" d="M332 669T385 638T469 554T500 439Q500 377 469 324T385 240T270 209Q208 209 155 240T71 324T40 439Q40 501 71 554T155 638T270 669Q332 669 385 638ZM319 257T360 281T426 348T451 439Q451
488 427 529T361 595T270 620Q221 620 180 596T114 530T89 439Q89 390 113 348T179 282T270 257Q319 257 360 281ZM357 458T341 435T298 403L366 327H301L246 388V327H197V573H269Q305 573 331 548T357 486Q357 458 341 435ZM246 447H269Q285 447 296 458T308 486Q308
502 297 513T269 524H246V447Z" />
<glyph unicode="&#xaf;" glyph-name="overscore" horiz-adv-x="600" d="M-1 570V620H280V570H-1Z" />
<glyph unicode="&#xb0;" glyph-name="degree" horiz-adv-x="355" d="M140 702T109 684T59 634T40 565Q40 528 58 497T108 447T177 428Q214 428 246 446T296 496T315 565Q315 602 297 633T246 683T177 702Q140 702 109 684ZM214 654T240 628T266 565Q266 528 240
502T177 476Q140 476 114 502T88 565Q88 602 114 628T177 654Q214 654 240 628Z" />
<glyph unicode="&#xb1;" glyph-name="plusminus" horiz-adv-x="550" d="M510 381V312H309V187H241V312H40V381H241V506H309V381H510ZM40 144H510V75H40V144Z" />
<glyph unicode="&#xb2;" glyph-name="uni00B2" horiz-adv-x="313" d="M28 205Q23 245 23 265Q23 291 29 322Q39 372 66 403T138 446Q232 470 232 535Q232 571 206 597T144 623H44V680H144Q184 680 217 661T270 608T290 535Q290 476 245 436Q211 405 151 390Q99
378 86 311Q81 290 81 263H266V205H28Z" />
<glyph unicode="&#xb3;" glyph-name="uni00B3" horiz-adv-x="289" d="M239 423T252 396T266 338Q266 302 248 272T200 223T133 205H23V263H133Q165 263 187 284T209 338Q209 370 187 392T133 414H89V471H133Q165 471 187 493T209 547Q209 579 187 600T133 622H23V680H133Q169
680 199 662T248 614T266 547Q266 516 253 489T216 442Q239 423 252 396Z" />
<glyph unicode="&#xb4;" glyph-name="acute" horiz-adv-x="600" d="M107 686L62 549H0L39 686H107Z" />
<glyph unicode="&#xb5;" glyph-name="uni00B5" horiz-adv-x="487" d="M437 500V5H369V53Q344 25 311 11T239 -4Q165 -4 109 44V-85H40V500H109V194Q109 159 126 129T174 82T239 64Q274 64 304 81T351 129T369 194V500H437Z" />
<glyph unicode="&#xb6;" glyph-name="paragraph" horiz-adv-x="493" d="M314 0H246V352H196Q154 352 118 373T61 430T40 509Q40 551 61 587T118 644T196 665H314V0ZM375 0V665H443V0H375Z" />
<glyph unicode="&#xb7;" glyph-name="middot" horiz-adv-x="189" d="M106 268T118 279T130 308Q130 325 118 336T89 348Q73 348 62 336T50 308Q50 292 61 280T89 268Q106 268 118 279Z" />
<glyph unicode="&#xb8;" glyph-name="cedilla" horiz-adv-x="600" d="M117 -27T139 -53T161 -114Q161 -154 133 -182T65 -210Q28 -210 0 -185L35 -147Q48 -158 65 -158Q83 -158 96 -145T109 -114Q109 -96 96 -83T65 -69Q59 -69 47 -73L27 -26L43 15H98L84 -20Q117
-27 139 -53Z" />
<glyph unicode="&#xb9;" glyph-name="uni00B9" horiz-adv-x="212" d="M182 210H126V588L87 524H19L108 670H182V210Z" />
<glyph unicode="&#xba;" glyph-name="ordmasculine" horiz-adv-x="355" d="M140 666T109 648T59 598T40 529Q40 492 58 461T108 411T177 392Q214 392 246 410T296 460T315 529Q315 566 297 597T246 647T177 666Q140 666 109 648ZM214 618T240 592T266 529Q266
492 240 466T177 440Q140 440 114 466T88 529Q88 566 114 592T177 618Q214 618 240 592Z" />
<glyph unicode="&#xbb;" glyph-name="guillemotright" horiz-adv-x="564" d="M230 280L52 471H146L325 278L136 87H40L230 280ZM429 280L252 471H345L524 278L336 87H240L429 280Z" />
<glyph unicode="&#xbc;" glyph-name="onequarter" horiz-adv-x="831" d="M203 210H147V588L108 524H40L129 670H203V210ZM603 666L245 0H189L547 666H603ZM729 175H791V117H729V-6H672V117H481L630 470H692L567 175H672V249H729V175Z" />
<glyph unicode="&#xbd;" glyph-name="onehalf" horiz-adv-x="843" d="M203 210H147V588L108 524H40L129 670H203V210ZM606 666L248 0H192L550 666H606ZM541 -5Q536 35 536 55Q536 81 542 112Q552 162 579 193T651 236Q745 260 745 325Q745 361 719 387T657 413H557V470H657Q697
470 730 451T783 398T803 325Q803 266 758 226Q724 195 664 180Q612 168 599 101Q594 80 594 53H779V-5H541Z" />
<glyph unicode="&#xbe;" glyph-name="threequarters" horiz-adv-x="892" d="M256 423T269 396T283 338Q283 302 265 272T217 223T150 205H40V263H150Q182 263 204 284T226 338Q226 370 204 392T150 414H106V471H150Q182 471 204 493T226 547Q226 579 204 600T150
622H40V680H150Q186 680 216 662T265 614T283 547Q283 516 270 489T233 442Q256 423 269 396ZM640 666L282 0H226L584 666H640ZM790 175H852V117H790V-6H733V117H542L691 470H753L628 175H733V249H790V175Z" />
<glyph unicode="&#xbf;" glyph-name="questiondown" horiz-adv-x="509" d="M255 504T268 491T281 460Q281 441 268 428T237 415Q218 415 205 428T192 460Q192 478 205 491T237 504Q255 504 268 491ZM271 343V211L172 128Q139 100 124 71T108 7Q108 -33 127 -66T181
-119T254 -139Q294 -139 327 -120T381 -67T401 7H469Q469 -52 440 -101T362 -179T254 -208Q196 -208 147 -179T69 -101T40 7Q40 106 128 181L203 243V343H271Z" />
<glyph unicode="&#xc0;" glyph-name="Agrave" horiz-adv-x="632" d="M433 245H199L113 0H40L273 664H359L592 0H519L433 245ZM411 309L316 581L221 309H411ZM341 714H279L234 851H302L341 714Z" />
<glyph unicode="&#xc1;" glyph-name="Aacute" horiz-adv-x="632" d="M433 245H199L113 0H40L273 664H359L592 0H519L433 245ZM411 309L316 581L221 309H411ZM438 851L393 714H331L370 851H438Z" />
<glyph unicode="&#xc2;" glyph-name="Acircumflex" horiz-adv-x="632" d="M433 245H199L113 0H40L273 664H359L592 0H519L433 245ZM411 309L316 581L221 309H411ZM315 763L261 710H183L316 841L443 710H367L315 763Z" />
<glyph unicode="&#xc3;" glyph-name="Atilde" horiz-adv-x="632" d="M433 245H199L113 0H40L273 664H359L592 0H519L433 245ZM411 309L316 581L221 309H411ZM470 766Q448 731 425 715T375 698Q358 698 342 704T304 721Q286 730 274 734T250 740Q230 740 211 707L207
698L162 734Q173 754 189 769Q215 796 249 796Q269 796 286 790T330 771Q349 761 359 758T379 755Q393 756 403 767T425 801L470 766Z" />
<glyph unicode="&#xc4;" glyph-name="Adieresis" horiz-adv-x="632" d="M433 245H199L113 0H40L273 664H359L592 0H519L433 245ZM411 309L316 581L221 309H411ZM417 714T429 725T441 754Q441 771 429 782T400 794Q384 794 373 782T361 754Q361 738 372 726T400
714Q417 714 429 725ZM239 714T251 725T263 754Q263 771 251 782T222 794Q206 794 195 782T183 754Q183 738 194 726T222 714Q239 714 251 725Z" />
<glyph unicode="&#xc5;" glyph-name="Aring" horiz-adv-x="632" d="M433 245H199L113 0H40L273 664H359L592 0H519L433 245ZM411 309L316 581L221 309H411ZM293 711T273 722T240 752Q225 775 225 802Q225 826 236 845T266 877Q288 892 316 892Q338 892 358 882T391
852Q406 830 406 802Q406 780 396 760T366 726Q342 711 316 711Q293 711 273 722ZM301 848T290 840Q275 831 270 811L269 802Q269 789 277 776Q284 766 294 761T316 755Q328 755 341 763Q351 770 357 780T363 802Q363 814 355 827Q339 848 316 848Q301 848 290
840Z" />
<glyph unicode="&#xc6;" glyph-name="AE" horiz-adv-x="794" d="M458 365H657V297H458V67H754V-1H390V243H198L113 0H40L273 664H754V596H458V365ZM390 311V596H321L316 581L222 311H390Z" />
<glyph unicode="&#xc7;" glyph-name="Ccedilla" horiz-adv-x="671" d="M434 63T487 87T579 156L631 112Q588 61 529 31T402 -5L396 -20Q429 -27 451 -53T473 -114Q473 -154 445 -182T377 -210Q340 -210 312 -185L347 -147Q360 -158 377 -158Q395 -158 408 -145T421
-114Q421 -96 408 -83T377 -69Q371 -69 359 -73L339 -26L347 -5Q262 2 192 48T81 169T40 330Q40 422 85 499T207 622T376 668Q450 668 517 638T631 550L579 506Q541 550 488 574T376 599Q304 599 243 563T145 464T109 330Q109 258 145 197T242 99T376 63Q434 63
487 87Z" />
<glyph unicode="&#xc8;" glyph-name="Egrave" horiz-adv-x="464" d="M118 597V364H317V300H118V68H414V0H50V665H414V597H118ZM252 714H190L145 851H213L252 714Z" />
<glyph unicode="&#xc9;" glyph-name="Eacute" horiz-adv-x="464" d="M118 597V364H317V300H118V68H414V0H50V665H414V597H118ZM349 851L304 714H242L281 851H349Z" />
<glyph unicode="&#xca;" glyph-name="Ecircumflex" horiz-adv-x="464" d="M118 597V364H317V300H118V68H414V0H50V665H414V597H118ZM226 763L172 710H94L227 841L354 710H278L226 763Z" />
<glyph unicode="&#xcb;" glyph-name="Edieresis" horiz-adv-x="464" d="M118 597V364H317V300H118V68H414V0H50V665H414V597H118ZM328 714T340 725T352 754Q352 771 340 782T311 794Q295 794 284 782T272 754Q272 738 283 726T311 714Q328 714 340 725ZM150 714T162
725T174 754Q174 771 162 782T133 794Q117 794 106 782T94 754Q94 738 105 726T133 714Q150 714 162 725Z" />
<glyph unicode="&#xcc;" glyph-name="Igrave" horiz-adv-x="202" d="M152 665V0H84V665H152ZM147 714H85L40 851H108L147 714Z" />
<glyph unicode="&#xcd;" glyph-name="Iacute" horiz-adv-x="213" d="M118 665V0H50V665H118ZM163 851L118 714H56L95 851H163Z" />
<glyph unicode="&#xce;" glyph-name="Icircumflex" horiz-adv-x="340" d="M204 665V0H136V665H204ZM172 763L118 710H40L173 841L300 710H224L172 763Z" />
<glyph unicode="&#xcf;" glyph-name="Idieresis" horiz-adv-x="358" d="M213 665V0H145V665H213ZM284 714T296 725T308 754Q308 771 296 782T267 794Q251 794 240 782T228 754Q228 738 239 726T267 714Q284 714 296 725ZM106 714T118 725T130 754Q130 771 118
782T89 794Q73 794 62 782T50 754Q50 738 61 726T89 714Q106 714 118 725Z" />
<glyph unicode="&#xd0;" glyph-name="Eth" horiz-adv-x="633" d="M351 666T427 621T548 500T593 333Q593 242 548 166T427 45T260 0H92V313H21V363H92V666H260Q351 666 427 621ZM332 68T393 103T489 200T525 333Q525 405 490 466T393 562T260 598H161V363H363V313H161V68H260Q332
68 393 103Z" />
<glyph unicode="&#xd1;" glyph-name="Ntilde" horiz-adv-x="585" d="M535 665V0H454L119 537V0H50V665H122L467 113V665H535ZM447 766Q425 731 402 715T352 698Q335 698 319 704T281 721Q263 730 251 734T227 740Q207 740 188 707L184 698L139 734Q150 754 166
769Q192 796 226 796Q246 796 263 790T307 771Q326 761 336 758T356 755Q370 756 380 767T402 801L447 766Z" />
<glyph unicode="&#xd2;" glyph-name="Ograve" horiz-adv-x="747" d="M282 -5T206 40T85 161T40 328Q40 419 85 495T206 617T373 662Q463 662 540 617T662 495T707 328Q707 238 662 162T541 40T373 -5Q282 -5 206 40ZM445 63T506 98T602 195T638 328Q638 400 603
461T506 557T373 593Q301 593 240 558T144 461T108 328Q108 256 143 195T240 99T373 63Q445 63 506 98ZM399 714H337L292 851H360L399 714Z" />
<glyph unicode="&#xd3;" glyph-name="Oacute" horiz-adv-x="747" d="M282 -5T206 40T85 161T40 328Q40 419 85 495T206 617T373 662Q463 662 540 617T662 495T707 328Q707 238 662 162T541 40T373 -5Q282 -5 206 40ZM445 63T506 98T602 195T638 328Q638 400 603
461T506 557T373 593Q301 593 240 558T144 461T108 328Q108 256 143 195T240 99T373 63Q445 63 506 98ZM496 851L451 714H389L428 851H496Z" />
<glyph unicode="&#xd4;" glyph-name="Ocircumflex" horiz-adv-x="747" d="M282 -5T206 40T85 161T40 328Q40 419 85 495T206 617T373 662Q463 662 540 617T662 495T707 328Q707 238 662 162T541 40T373 -5Q282 -5 206 40ZM445 63T506 98T602 195T638 328Q638 400
603 461T506 557T373 593Q301 593 240 558T144 461T108 328Q108 256 143 195T240 99T373 63Q445 63 506 98ZM373 763L319 710H241L374 841L501 710H425L373 763Z" />
<glyph unicode="&#xd5;" glyph-name="Otilde" horiz-adv-x="747" d="M282 -5T206 40T85 161T40 328Q40 419 85 495T206 617T373 662Q463 662 540 617T662 495T707 328Q707 238 662 162T541 40T373 -5Q282 -5 206 40ZM445 63T506 98T602 195T638 328Q638 400 603
461T506 557T373 593Q301 593 240 558T144 461T108 328Q108 256 143 195T240 99T373 63Q445 63 506 98ZM528 766Q506 731 483 715T433 698Q416 698 400 704T362 721Q344 730 332 734T308 740Q288 740 269 707L265 698L220 734Q231 754 247 769Q273 796 307 796Q327
796 344 790T388 771Q407 761 417 758T437 755Q451 756 461 767T483 801L528 766Z" />
<glyph unicode="&#xd6;" glyph-name="Odieresis" horiz-adv-x="747" d="M282 -5T206 40T85 161T40 328Q40 419 85 495T206 617T373 662Q463 662 540 617T662 495T707 328Q707 238 662 162T541 40T373 -5Q282 -5 206 40ZM445 63T506 98T602 195T638 328Q638 400
603 461T506 557T373 593Q301 593 240 558T144 461T108 328Q108 256 143 195T240 99T373 63Q445 63 506 98ZM475 714T487 725T499 754Q499 771 487 782T458 794Q442 794 431 782T419 754Q419 738 430 726T458 714Q475 714 487 725ZM297 714T309 725T321 754Q321
771 309 782T280 794Q264 794 253 782T241 754Q241 738 252 726T280 714Q297 714 309 725Z" />
<glyph unicode="&#xd7;" glyph-name="multiply" horiz-adv-x="461" d="M279 280L421 138L373 90L231 232L89 90L40 138L182 280L40 422L89 470L231 328L373 470L421 422L279 280Z" />
<glyph unicode="&#xd8;" glyph-name="Oslash" horiz-adv-x="747" d="M627 560T667 487T707 328Q707 238 662 162T541 40T373 -5Q305 -5 244 21L233 0H156L185 53Q118 99 79 171T40 328Q40 419 85 495T206 617T373 662Q438 662 499 637L514 666H591L558 606Q627
560 667 487ZM108 263T137 207T217 114L466 576Q421 593 373 593Q301 593 240 558T144 461T108 328Q108 263 137 207ZM445 63T506 98T602 195T638 328Q638 394 608 450T526 544L277 81Q322 63 373 63Q445 63 506 98Z" />
<glyph unicode="&#xd9;" glyph-name="Ugrave" horiz-adv-x="564" d="M219 -7T166 24T82 109T50 225V665H117V225Q117 180 139 143T199 84T282 62Q327 62 365 83T426 142T448 225V665H514V225Q514 162 483 109T398 25T282 -7Q219 -7 166 24ZM307 714H245L200 851H268L307
714Z" />
<glyph unicode="&#xda;" glyph-name="Uacute" horiz-adv-x="564" d="M219 -7T166 24T82 109T50 225V665H117V225Q117 180 139 143T199 84T282 62Q327 62 365 83T426 142T448 225V665H514V225Q514 162 483 109T398 25T282 -7Q219 -7 166 24ZM404 851L359 714H297L336
851H404Z" />
<glyph unicode="&#xdb;" glyph-name="Ucircumflex" horiz-adv-x="564" d="M219 -7T166 24T82 109T50 225V665H117V225Q117 180 139 143T199 84T282 62Q327 62 365 83T426 142T448 225V665H514V225Q514 162 483 109T398 25T282 -7Q219 -7 166 24ZM281 763L227 710H149L282
841L409 710H333L281 763Z" />
<glyph unicode="&#xdc;" glyph-name="Udieresis" horiz-adv-x="564" d="M219 -7T166 24T82 109T50 225V665H117V225Q117 180 139 143T199 84T282 62Q327 62 365 83T426 142T448 225V665H514V225Q514 162 483 109T398 25T282 -7Q219 -7 166 24ZM383 714T395 725T407
754Q407 771 395 782T366 794Q350 794 339 782T327 754Q327 738 338 726T366 714Q383 714 395 725ZM205 714T217 725T229 754Q229 771 217 782T188 794Q172 794 161 782T149 754Q149 738 160 726T188 714Q205 714 217 725Z" />
<glyph unicode="&#xdd;" glyph-name="Yacute" horiz-adv-x="560" d="M315 245V0H246V243L40 665H116L280 330L444 665H520L315 245ZM402 851L357 714H295L334 851H402Z" />
<glyph unicode="&#xde;" glyph-name="Thorn" horiz-adv-x="490" d="M294 545T343 516T421 438T450 332Q450 275 421 226T343 149T236 120H119V0H50V665H119V545H236Q294 545 343 516ZM275 187T308 206T361 259T381 332Q381 371 362 404T309 456T236 476H119V187H236Q275
187 308 206Z" />
<glyph unicode="&#xdf;" glyph-name="germandbls" horiz-adv-x="493" d="M197 0H269Q319 0 361 24T428 91T453 183Q453 233 429 275T363 342Q394 368 411 404T429 483Q429 533 404 575T337 642T245 667H102V666H50V0H118V299H269Q317 299 351 265T385 183Q385
136 351 102T269 68H197V0ZM360 435T326 401T245 367H118V598H245Q292 598 326 564T360 483Q360 435 326 401Z" />
<glyph unicode="&#xe0;" glyph-name="agrave" horiz-adv-x="595" d="M545 487V0H476V92Q407 -5 292 -5Q223 -5 165 28T74 120T40 246Q40 315 73 373T165 464T292 498Q363 498 408 469T476 405V487H545ZM342 63T384 87T450 154T475 246Q475 296 451 338T384 405T292
430Q242 430 200 406T133 339T108 246Q108 196 132 154T199 88T292 63Q342 63 384 87ZM323 549H261L216 686H284L323 549Z" />
<glyph unicode="&#xe1;" glyph-name="aacute" horiz-adv-x="595" d="M545 487V0H476V92Q407 -5 292 -5Q223 -5 165 28T74 120T40 246Q40 315 73 373T165 464T292 498Q363 498 408 469T476 405V487H545ZM342 63T384 87T450 154T475 246Q475 296 451 338T384 405T292
430Q242 430 200 406T133 339T108 246Q108 196 132 154T199 88T292 63Q342 63 384 87ZM420 686L375 549H313L352 686H420Z" />
<glyph unicode="&#xe2;" glyph-name="acircumflex" horiz-adv-x="595" d="M545 487V0H476V92Q407 -5 292 -5Q223 -5 165 28T74 120T40 246Q40 315 73 373T165 464T292 498Q363 498 408 469T476 405V487H545ZM342 63T384 87T450 154T475 246Q475 296 451 338T384
405T292 430Q242 430 200 406T133 339T108 246Q108 196 132 154T199 88T292 63Q342 63 384 87ZM297 598L243 545H165L298 676L425 545H349L297 598Z" />
<glyph unicode="&#xe3;" glyph-name="atilde" horiz-adv-x="595" d="M545 487V0H476V92Q407 -5 292 -5Q223 -5 165 28T74 120T40 246Q40 315 73 373T165 464T292 498Q363 498 408 469T476 405V487H545ZM342 63T384 87T450 154T475 246Q475 296 451 338T384 405T292
430Q242 430 200 406T133 339T108 246Q108 196 132 154T199 88T292 63Q342 63 384 87ZM452 601Q430 566 407 550T357 533Q340 533 324 539T286 556Q268 565 256 569T232 575Q212 575 193 542L189 533L144 569Q155 589 171 604Q197 631 231 631Q251 631 268 625T312
606Q331 596 341 593T361 590Q375 591 385 602T407 636L452 601Z" />
<glyph unicode="&#xe4;" glyph-name="adieresis" horiz-adv-x="595" d="M545 487V0H476V92Q407 -5 292 -5Q223 -5 165 28T74 120T40 246Q40 315 73 373T165 464T292 498Q363 498 408 469T476 405V487H545ZM342 63T384 87T450 154T475 246Q475 296 451 338T384
405T292 430Q242 430 200 406T133 339T108 246Q108 196 132 154T199 88T292 63Q342 63 384 87ZM379 549T391 560T403 589Q403 606 391 617T362 629Q346 629 335 617T323 589Q323 573 334 561T362 549Q379 549 391 560ZM201 549T213 560T225 589Q225 606 213 617T184
629Q168 629 157 617T145 589Q145 573 156 561T184 549Q201 549 213 560Z" />
<glyph unicode="&#xe5;" glyph-name="aring" horiz-adv-x="595" d="M545 487V0H476V92Q407 -5 292 -5Q223 -5 165 28T74 120T40 246Q40 315 73 373T165 464T292 498Q363 498 408 469T476 405V487H545ZM342 63T384 87T450 154T475 246Q475 296 451 338T384 405T292
430Q242 430 200 406T133 339T108 246Q108 196 132 154T199 88T292 63Q342 63 384 87ZM275 546T255 557T222 587Q207 610 207 637Q207 661 218 680T248 712Q270 727 298 727Q320 727 340 717T373 687Q388 665 388 637Q388 615 378 595T348 561Q324 546 298 546Q275
546 255 557ZM283 683T272 675Q257 666 252 646L251 637Q251 624 259 611Q266 601 276 596T298 590Q310 590 323 598Q333 605 339 615T345 637Q345 649 337 662Q321 683 298 683Q283 683 272 675Z" />
<glyph unicode="&#xe6;" glyph-name="ae" horiz-adv-x="1020" d="M980 235T978 213H548Q560 149 611 107T728 64Q777 64 818 87T884 150L943 116Q909 61 852 28T728 -5Q675 -5 628 16T545 74V0H476V92Q407 -5 292 -5Q223 -5 165 28T74 120T40 246Q40 315 73 373T165
464T292 498Q363 498 408 469T476 405V487H545V421Q580 458 627 478T728 499Q796 499 854 465T946 374T980 247Q980 235 978 213ZM908 278Q908 319 882 354T815 410T728 431Q684 431 642 411T574 355T548 278H908ZM342 63T384 87T450 154T475 246Q475 296 451 338T384
405T292 430Q242 430 200 406T133 339T108 246Q108 196 132 154T199 88T292 63Q342 63 384 87Z" />
<glyph unicode="&#xe7;" glyph-name="ccedilla" horiz-adv-x="524" d="M330 64T364 78T423 119L484 84Q448 42 399 19T292 -5H276L270 -20Q303 -27 325 -53T347 -114Q347 -154 319 -182T251 -210Q214 -210 186 -185L221 -147Q234 -158 251 -158Q269 -158 282 -145T295
-114Q295 -96 282 -83T251 -69Q245 -69 233 -73L213 -26L225 4Q144 27 92 94T40 247Q40 315 74 373T166 465T292 499Q349 499 398 476T484 410L423 375Q398 401 364 415T292 430Q242 430 200 406T133 339T108 247Q108 197 133 155T200 89T292 64Q330 64 364 78Z"
/>
<glyph unicode="&#xe8;" glyph-name="egrave" horiz-adv-x="584" d="M112 213Q124 149 175 107T292 64Q341 64 382 87T448 150L507 116Q473 61 416 28T292 -5Q224 -5 166 29T74 121T40 247Q40 316 74 373T166 465T292 499Q360 499 418 465T510 374T544 247Q544
235 542 213H112ZM248 431T206 411T138 355T112 278H472Q472 319 446 354T379 410T292 431Q248 431 206 411ZM317 549H255L210 686H278L317 549Z" />
<glyph unicode="&#xe9;" glyph-name="eacute" horiz-adv-x="584" d="M112 213Q124 149 175 107T292 64Q341 64 382 87T448 150L507 116Q473 61 416 28T292 -5Q224 -5 166 29T74 121T40 247Q40 316 74 373T166 465T292 499Q360 499 418 465T510 374T544 247Q544
235 542 213H112ZM248 431T206 411T138 355T112 278H472Q472 319 446 354T379 410T292 431Q248 431 206 411ZM373 686L328 549H266L305 686H373Z" />
<glyph unicode="&#xea;" glyph-name="ecircumflex" horiz-adv-x="584" d="M112 213Q124 149 175 107T292 64Q341 64 382 87T448 150L507 116Q473 61 416 28T292 -5Q224 -5 166 29T74 121T40 247Q40 316 74 373T166 465T292 499Q360 499 418 465T510 374T544 247Q544
235 542 213H112ZM248 431T206 411T138 355T112 278H472Q472 319 446 354T379 410T292 431Q248 431 206 411ZM291 598L237 545H159L292 676L419 545H343L291 598Z" />
<glyph unicode="&#xeb;" glyph-name="edieresis" horiz-adv-x="584" d="M112 213Q124 149 175 107T292 64Q341 64 382 87T448 150L507 116Q473 61 416 28T292 -5Q224 -5 166 29T74 121T40 247Q40 316 74 373T166 465T292 499Q360 499 418 465T510 374T544 247Q544
235 542 213H112ZM248 431T206 411T138 355T112 278H472Q472 319 446 354T379 410T292 431Q248 431 206 411ZM393 549T405 560T417 589Q417 606 405 617T376 629Q360 629 349 617T337 589Q337 573 348 561T376 549Q393 549 405 560ZM215 549T227 560T239 589Q239
606 227 617T198 629Q182 629 171 617T159 589Q159 573 170 561T198 549Q215 549 227 560Z" />
<glyph unicode="&#xec;" glyph-name="igrave" horiz-adv-x="192" d="M152 500V0H83V500H152ZM147 556H85L40 693H108L147 556Z" />
<glyph unicode="&#xed;" glyph-name="iacute" horiz-adv-x="200" d="M365 500V0H296V500H365ZM150 693L105 556H43L82 693H150Z" />
<glyph unicode="&#xee;" glyph-name="icircumflex" horiz-adv-x="340" d="M205 500V0H136V500H205ZM172 605L118 552H40L173 683L300 552H224L172 605Z" />
<glyph unicode="&#xef;" glyph-name="idieresis" horiz-adv-x="338" d="M204 500V0H135V500H204ZM274 557T286 568T298 597Q298 614 286 625T257 637Q241 637 230 625T218 597Q218 581 229 569T257 557Q274 557 286 568ZM96 557T108 568T120 597Q120 614 108 625T79
637Q63 637 52 625T40 597Q40 581 51 569T79 557Q96 557 108 568Z" />
<glyph unicode="&#xf0;" glyph-name="eth" horiz-adv-x="484" d="M444 242T444 198Q444 143 417 97T344 24T242 -4Q187 -4 141 23T67 97T40 198Q40 253 67 299T140 373T242 401Q274 401 305 390L249 523L165 499L152 545L230 567L188 665H262L296 586L377 609L390
563L315 542L427 281Q444 242 444 198ZM279 65T309 83T358 131T376 198Q376 235 358 265T310 314T242 332Q206 332 175 314T126 266T108 198Q108 162 126 132T175 83T242 65Q279 65 309 83Z" />
<glyph unicode="&#xf1;" glyph-name="ntilde" horiz-adv-x="487" d="M302 500T347 474T420 402T447 302V0H378V302Q378 337 361 366T313 413T248 431Q213 431 183 414T136 367T118 302V0H50V487H118V443Q143 471 176 485T248 500Q302 500 347 474ZM398 601Q376
566 353 550T303 533Q286 533 270 539T232 556Q214 565 202 569T178 575Q158 575 139 542L135 533L90 569Q101 589 117 604Q143 631 177 631Q197 631 214 625T258 606Q277 596 287 593T307 590Q321 591 331 602T353 636L398 601Z" />
<glyph unicode="&#xf2;" glyph-name="ograve" horiz-adv-x="588" d="M225 -5T167 29T74 121T40 248Q40 317 74 375T166 468T293 503Q362 503 420 469T513 376T548 248Q548 180 514 122T421 29T293 -5Q225 -5 167 29ZM344 62T386 87T454 155T479 248Q479 299 454
342T387 410T293 435Q243 435 201 410T133 342T108 248Q108 198 133 155T200 87T293 62Q344 62 386 87ZM319 549H257L212 686H280L319 549Z" />
<glyph unicode="&#xf3;" glyph-name="oacute" horiz-adv-x="588" d="M225 -5T167 29T74 121T40 248Q40 317 74 375T166 468T293 503Q362 503 420 469T513 376T548 248Q548 180 514 122T421 29T293 -5Q225 -5 167 29ZM344 62T386 87T454 155T479 248Q479 299 454
342T387 410T293 435Q243 435 201 410T133 342T108 248Q108 198 133 155T200 87T293 62Q344 62 386 87ZM416 686L371 549H309L348 686H416Z" />
<glyph unicode="&#xf4;" glyph-name="ocircumflex" horiz-adv-x="588" d="M225 -5T167 29T74 121T40 248Q40 317 74 375T166 468T293 503Q362 503 420 469T513 376T548 248Q548 180 514 122T421 29T293 -5Q225 -5 167 29ZM344 62T386 87T454 155T479 248Q479 299
454 342T387 410T293 435Q243 435 201 410T133 342T108 248Q108 198 133 155T200 87T293 62Q344 62 386 87ZM293 598L239 545H161L294 676L421 545H345L293 598Z" />
<glyph unicode="&#xf5;" glyph-name="otilde" horiz-adv-x="588" d="M225 -5T167 29T74 121T40 248Q40 317 74 375T166 468T293 503Q362 503 420 469T513 376T548 248Q548 180 514 122T421 29T293 -5Q225 -5 167 29ZM344 62T386 87T454 155T479 248Q479 299 454
342T387 410T293 435Q243 435 201 410T133 342T108 248Q108 198 133 155T200 87T293 62Q344 62 386 87ZM448 601Q426 566 403 550T353 533Q336 533 320 539T282 556Q264 565 252 569T228 575Q208 575 189 542L185 533L140 569Q151 589 167 604Q193 631 227 631Q247
631 264 625T308 606Q327 596 337 593T357 590Q371 591 381 602T403 636L448 601Z" />
<glyph unicode="&#xf6;" glyph-name="odieresis" horiz-adv-x="588" d="M225 -5T167 29T74 121T40 248Q40 317 74 375T166 468T293 503Q362 503 420 469T513 376T548 248Q548 180 514 122T421 29T293 -5Q225 -5 167 29ZM344 62T386 87T454 155T479 248Q479 299
454 342T387 410T293 435Q243 435 201 410T133 342T108 248Q108 198 133 155T200 87T293 62Q344 62 386 87ZM395 549T407 560T419 589Q419 606 407 617T378 629Q362 629 351 617T339 589Q339 573 350 561T378 549Q395 549 407 560ZM217 549T229 560T241 589Q241
606 229 617T200 629Q184 629 173 617T161 589Q161 573 172 561T200 549Q217 549 229 560Z" />
<glyph unicode="&#xf7;" glyph-name="divide" horiz-adv-x="549" d="M256 374T243 387T230 418Q230 437 243 450T274 463Q293 463 306 450T319 418Q319 400 306 387T274 374Q256 374 243 387ZM509 315H40V247H509V315ZM293 99T306 112T319 144Q319 162 306 175T274
188Q256 188 243 175T230 144Q230 125 243 112T274 99Q293 99 306 112Z" />
<glyph unicode="&#xf8;" glyph-name="oslash" horiz-adv-x="588" d="M491 420T519 366T548 248Q548 180 514 122T421 29T293 -5Q249 -5 204 11L153 -83H76L144 44Q96 79 68 132T40 248Q40 317 74 375T166 468T293 503Q339 503 382 487L434 583H511L442 455Q491
420 519 366ZM108 205T126 168T177 104L350 426Q323 435 293 435Q243 435 201 410T133 342T108 248Q108 205 126 168ZM344 62T386 87T454 155T479 248Q479 292 461 330T409 394L236 71Q263 62 293 62Q344 62 386 87Z" />
<glyph unicode="&#xf9;" glyph-name="ugrave" horiz-adv-x="487" d="M185 -4T140 22T67 94T40 194V500H109V194Q109 159 126 129T174 82T239 64Q274 64 304 81T351 129T369 194V500H437V5H369V53Q344 25 311 11T239 -4Q185 -4 140 22ZM269 549H207L162 686H230L269 549Z" />
<glyph unicode="&#xfa;" glyph-name="uacute" horiz-adv-x="487" d="M185 -4T140 22T67 94T40 194V500H109V194Q109 159 126 129T174 82T239 64Q274 64 304 81T351 129T369 194V500H437V5H369V53Q344 25 311 11T239 -4Q185 -4 140 22ZM324 686L279 549H217L256 686H324Z" />
<glyph unicode="&#xfb;" glyph-name="ucircumflex" horiz-adv-x="487" d="M185 -4T140 22T67 94T40 194V500H109V194Q109 159 126 129T174 82T239 64Q274 64 304 81T351 129T369 194V500H437V5H369V53Q344 25 311 11T239 -4Q185 -4 140 22ZM243 598L189 545H111L244
676L371 545H295L243 598Z" />
<glyph unicode="&#xfc;" glyph-name="udieresis" horiz-adv-x="487" d="M185 -4T140 22T67 94T40 194V500H109V194Q109 159 126 129T174 82T239 64Q274 64 304 81T351 129T369 194V500H437V5H369V53Q344 25 311 11T239 -4Q185 -4 140 22ZM345 549T357 560T369
589Q369 606 357 617T328 629Q312 629 301 617T289 589Q289 573 300 561T328 549Q345 549 357 560ZM167 549T179 560T191 589Q191 606 179 617T150 629Q134 629 123 617T111 589Q111 573 122 561T150 549Q167 549 179 560Z" />
<glyph unicode="&#xfd;" glyph-name="yacute" horiz-adv-x="524" d="M474 500V4Q474 -55 445 -105T366 -184T257 -213Q200 -213 152 -186T74 -113L134 -79Q154 -109 186 -127T257 -145Q297 -145 331 -125T386 -71T406 4V57Q376 29 338 14T257 -2Q199 -2 150 26T71
103T40 209V500H108V215Q108 175 128 141T182 86T257 66Q297 66 331 86T386 140T406 215V500H474ZM384 686L339 549H277L316 686H384Z" />
<glyph unicode="&#xfe;" glyph-name="thorn" horiz-adv-x="595" d="M50 -173V665H118V404Q153 453 200 477T303 502Q371 502 429 468T521 376T555 250Q555 182 521 124T429 32T303 -2Q232 -2 186 27T118 91V-173H50ZM253 433T211 409T144 342T119 250Q119 200
144 158T211 91T303 66Q353 66 395 91T461 158T486 250Q486 300 462 342T395 408T303 433Q253 433 211 409Z" />
<glyph unicode="&#xff;" glyph-name="ydieresis" horiz-adv-x="524" d="M474 500V4Q474 -55 445 -105T366 -184T257 -213Q200 -213 152 -186T74 -113L134 -79Q154 -109 186 -127T257 -145Q297 -145 331 -125T386 -71T406 4V57Q376 29 338 14T257 -2Q199 -2 150
26T71 103T40 209V500H108V215Q108 175 128 141T182 86T257 66Q297 66 331 86T386 140T406 215V500H474ZM363 549T375 560T387 589Q387 606 375 617T346 629Q330 629 319 617T307 589Q307 573 318 561T346 549Q363 549 375 560ZM185 549T197 560T209 589Q209 606
197 617T168 629Q152 629 141 617T129 589Q129 573 140 561T168 549Q185 549 197 560Z" />
<glyph unicode="&#x2013;" glyph-name="endash" horiz-adv-x="550" d="M40 246V314H510V246H40Z" />
<glyph unicode="&#x2014;" glyph-name="emdash" horiz-adv-x="705" d="M40 246V314H665V246H40Z" />
<glyph unicode="&#x2018;" glyph-name="quoteleft" horiz-adv-x="171" d="M171 479H109L40 688H112L171 479Z" />
<glyph unicode="&#x2019;" glyph-name="quoteright" horiz-adv-x="171" d="M171 688L102 479H40L99 688H171Z" />
<glyph unicode="&#x201a;" glyph-name="quotesinglbase" horiz-adv-x="211" d="M171 107L102 -102H40L99 107H171Z" />
<glyph unicode="&#x201c;" glyph-name="quotedblleft" horiz-adv-x="306" d="M171 479H109L40 688H112L171 479ZM306 479H244L175 688H247L306 479Z" />
<glyph unicode="&#x201d;" glyph-name="quotedblright" horiz-adv-x="306" d="M131 688L62 479H0L59 688H131ZM266 688L197 479H135L194 688H266Z" />
<glyph unicode="&#x201e;" glyph-name="quotedblbase" horiz-adv-x="355" d="M315 107L246 -102H184L243 107H315ZM171 107L102 -102H40L99 107H171Z" />
<glyph unicode="&#x2022;" glyph-name="bullet" horiz-adv-x="325" d="M213 423T249 388T285 301Q285 250 249 215T162 179Q111 179 76 214T40 301Q40 352 75 387T162 423Q213 423 249 388Z" />
<glyph unicode="&#x2039;" glyph-name="guilsinglleft" horiz-adv-x="365" d="M229 87L40 278L219 471H313L135 280L325 87H229Z" />
<glyph unicode="&#x203a;" glyph-name="guilsinglright" horiz-adv-x="365" d="M230 280L52 471H146L325 278L136 87H40L230 280Z" />
</font>
</defs>
</svg>
