<?xml version="1.0" standalone="no"?>
<!DOCTYPE svg PUBLIC "-//W3C//DTD SVG 1.1//EN" "http://www.w3.org/Graphics/SVG/1.1/DTD/svg11.dtd">
<svg xmlns="http://www.w3.org/2000/svg">
<defs >
<font id="Namdhinggo" horiz-adv-x="923" ><font-face
    font-family="Namdhinggo"
    units-per-em="2048"
    panose-1="2 0 0 0 0 0 0 0 0 0"
    ascent="1600"
    descent="-550"
    alphabetic="0" />
<glyph unicode=" " glyph-name="space" horiz-adv-x="700" />
<glyph unicode="!" glyph-name="exclam" horiz-adv-x="492" d="M293 1188L330 1166L288 345Q256 319 223 309L198 326L156 1116Q227 1164 293 1188ZM347 108Q347 48 311 6Q276 -35 225 -35Q136 -35 136 63Q136 123 172 165Q208 207 259 207Q347 207 347 108Z" />
<glyph unicode="&quot;" glyph-name="quotedbl" horiz-adv-x="726" d="M570 1190L607 1171L570 738Q536 720 484 720L437 1143Q502 1176 570 1190ZM253 1190L290 1171L253 738Q219 720 167 720L120 1143Q185 1176 253 1190Z" />
<glyph unicode="#" glyph-name="numbersign" horiz-adv-x="1020" d="M177 675H955L980 635Q954 607 931 594T871 561H119L88 597Q105 619 130 639T177 675ZM139 381H901L926 339Q900 313 878 300T818 267H79L50 302Q67 325 92 345T139 381ZM178 0L365 888Q400
914 421 931T480 969L512 946L316 65Q288 37 265 14T207 -25L178 0ZM507 0L694 888Q729 914 750 931T809 969L841 946L645 65Q617 37 595 14T537 -25L507 0Z" />
<glyph unicode="$" glyph-name="dollar" horiz-adv-x="850" d="M437 995Q662 995 744 887Q730 858 707 827T659 772L621 778Q596 887 393 887Q355 887 306 870T220 822T184 746Q184 715 204 682T281 619T445 568Q582 542 656 504T760 417T790 310Q790 250 755
190T663 79T542 -3T421 -34Q306 -34 215 0T70 104Q72 128 100 171T172 239L204 214Q206 161 268 123T428 84Q543 84 597 130T652 240Q652 290 593 351T403 440Q220 478 148 534T74 698Q74 762 122 830T252 947T437 995ZM377 1105Q398 1125 413 1141T454 1170L490
1138Q481 995 479 826T479 486T488 160T502 -109Q491 -134 476 -162T439 -210Q439 -210 427 -203T403 -189T390 -182Q384 -26 380 148T372 495T370 825T377 1105Z" />
<glyph unicode="%" glyph-name="percent" horiz-adv-x="1205" d="M100 690Q100 740 130 793T207 892T307 966T405 995Q507 995 551 943T595 790Q595 743 565 695T489 605T393 538T302 513Q197 513 149 562T100 690ZM245 765Q245 716 272 678T346 640Q391 640 421
672T452 754Q452 803 422 839T346 876Q300 876 273 845T245 765ZM204 -12Q306 132 415 293T631 616T830 926Q857 941 900 961T984 1000L1009 966Q858 752 692 503T369 19Q341 4 302 -9T222 -34L204 -12ZM610 143Q610 193 640 246T717 345T817 419T915 448Q1017
448 1061 396T1105 243Q1105 196 1075 148T999 58T903 -9T812 -34Q707 -34 659 15T610 143ZM755 218Q755 169 782 131T856 93Q901 93 931 125T962 207Q962 256 932 292T856 329Q810 329 783 298T755 218Z" />
<glyph unicode="&amp;" glyph-name="ampersand" horiz-adv-x="1297" d="M1280 708Q1257 679 1232 655T1184 614Q1150 631 1104 642T1026 655Q1046 623 1051 594T1057 514Q1057 432 1012 338T887 161T701 25T472 -28Q292 -28 183 63T73 333Q73 461 178 591T482
834Q604 903 642 974T681 1108Q681 1174 649 1219T557 1265Q493 1265 462 1204T431 1069Q431 979 472 875T583 665T734 459T900 276T1053 135Q1130 71 1233 95L1244 46Q1163 10 1098 -9T1013 -28Q989 -28 927 18T783 145T614 330T454 552T334 787T288 1015Q288
1117 333 1197T451 1325T608 1372Q692 1372 742 1339T814 1253T836 1139Q836 1040 767 950T587 789Q456 706 382 634T279 494T249 353Q249 265 286 206T383 117T508 87Q602 87 679 124T812 221T898 348T929 475Q929 555 883 608T781 661L758 690Q768 702 790 719T831
744H1257L1280 708Z" />
<glyph unicode="&apos;" glyph-name="quotesingle" horiz-adv-x="410" d="M253 1190L290 1171L253 738Q219 720 167 720L120 1143Q185 1176 253 1190Z" />
<glyph unicode="(" glyph-name="parenleft" horiz-adv-x="574" d="M535 -316L507 -357Q295 -200 201 32T106 534Q106 658 129 789T201 1042T326 1261T507 1413L535 1373Q433 1285 372 1148T283 856T255 561Q255 320 320 93T535 -316Z" />
<glyph unicode=")" glyph-name="parenright" horiz-adv-x="574" d="M39 -316Q188 -135 253 92T319 561Q319 701 292 855T203 1147T39 1373L67 1413Q172 1358 248 1261T372 1043T444 790T468 534Q468 264 374 32T67 -357L39 -316Z" />
<glyph unicode="*" glyph-name="asterisk" horiz-adv-x="859" d="M463 1131L696 1314Q716 1301 748 1279T795 1241L794 1199L498 1074L771 960Q770 937 767 898T756 838L718 816L465 1013L503 719Q484 707 449 691T393 671L354 692L396 1013L163 831Q144 844 112
867T66 903V948L363 1072L88 1185Q90 1208 93 1248T103 1307L140 1328L396 1130L356 1428Q376 1439 412 1455T470 1477L505 1453L463 1131Z" />
<glyph unicode="+" glyph-name="plus" horiz-adv-x="742" d="M687 524Q678 485 660 446H75L55 468Q62 504 83 546H666L687 524ZM421 207Q381 189 343 180L321 201V786Q361 804 399 812L421 791V207Z" />
<glyph unicode="," glyph-name="comma" horiz-adv-x="415" d="M346 60Q346 -11 293 -103Q235 -203 146 -269L107 -237Q198 -133 198 1Q198 87 92 83L78 123Q93 143 167 173Q242 204 273 203Q346 169 346 60Z" />
<glyph unicode="-" glyph-name="hyphen" horiz-adv-x="763" d="M120 532H697L723 492Q696 464 674 446T614 408H61L31 444Q48 466 73 491T120 532Z" />
<glyph unicode="." glyph-name="period" horiz-adv-x="415" d="M325 108Q325 49 290 6Q255 -35 204 -35Q116 -35 116 63Q116 123 152 165Q188 207 238 207Q325 207 325 108Z" />
<glyph unicode="/" glyph-name="slash" horiz-adv-x="848" d="M771 1413L804 1393L185 -250Q163 -269 75 -295L44 -275L662 1369Q706 1396 771 1413Z" />
<glyph unicode="0" glyph-name="zero" horiz-adv-x="961" d="M885 602Q885 430 832 287T684 57T461 -30Q334 -30 249 56T120 286T76 602Q76 774 129 918T278 1148T500 1235Q627 1235 712 1150T841 920T885 602ZM721 565Q721 748 684 871T588 1057T461 1120Q358
1120 299 1008T240 645Q240 371 314 228T500 85Q604 85 662 198T721 565Z" />
<glyph unicode="1" glyph-name="one" horiz-adv-x="961" d="M170 0V53Q327 72 383 97T440 143V940Q440 980 437 1002T422 1038Q410 1051 351 1051T160 1024L139 1075Q195 1091 275 1122T432 1187T553 1245L590 1210V143Q590 124 639 98T840 53V0H170Z" />
<glyph unicode="2" glyph-name="two" horiz-adv-x="961" d="M821 0H127L98 74Q276 281 388 419T561 648T645 803T668 924Q668 1016 622 1080T467 1145Q413 1145 371 1112T304 1030T280 934Q246 915 222 903T152 885L125 915Q125 967 159 1023T253 1127T385 1205T535
1235Q656 1235 739 1167T823 952Q823 885 794 814T699 651T527 430T266 121H684Q718 121 738 148T768 210T782 272T786 299L836 287L821 0Z" />
<glyph unicode="3" glyph-name="three" horiz-adv-x="961" d="M825 381Q825 269 778 176T637 26T406 -30Q327 -30 243 1T68 119L102 186Q193 119 255 95T393 70Q515 70 590 145T665 348Q665 449 626 509T528 596T410 623Q382 623 378 622T342 616L328 676Q451
710 510 756T589 850T608 940Q608 986 589 1033T530 1112T426 1144Q346 1144 302 1093T270 973Q236 956 205 947T131 934L104 965Q104 1021 156 1084T295 1191T483 1235Q583 1235 645 1194T738 1090T768 958Q768 883 711 813T555 698Q631 689 692 645T789 531T825
381Z" />
<glyph unicode="4" glyph-name="four" horiz-adv-x="961" d="M874 430Q853 398 836 383T795 350H725V104Q725 89 753 76T864 43V0H375V43Q506 65 545 81T585 115V350H88L55 383L551 1174Q592 1192 625 1211T688 1245L725 1210V460H848L874 430ZM585 1040L213 460H585V1040Z"
/>
<glyph unicode="5" glyph-name="five" horiz-adv-x="961" d="M836 410Q836 294 790 194T655 32T440 -30Q348 -30 256 4T78 119L113 186Q219 113 290 92T418 70Q505 70 562 112T647 223T676 367Q676 504 610 587T403 670Q360 670 299 650T184 590L137 623Q146 677
159 754T184 915T206 1075T219 1205H655Q712 1205 744 1214T776 1223L805 1194Q783 1162 750 1127T694 1075H307Q305 1036 297 972T280 846T264 754Q304 766 358 773T463 780Q584 780 667 729T793 593T836 410Z" />
<glyph unicode="6" glyph-name="six" horiz-adv-x="961" d="M881 412Q881 342 857 265T786 121T668 12T506 -30Q397 -30 307 33T164 209T110 473Q110 662 183 826T406 1103T788 1249L807 1190Q625 1148 506 1046T328 809T270 537Q270 300 345 188T545 75Q617 75
657 117T714 223T731 348Q731 473 694 540T603 634T500 660Q442 660 370 622T238 492L225 588Q278 659 337 698T450 754T541 770Q702 770 791 673T881 412Z" />
<glyph unicode="7" glyph-name="seven" horiz-adv-x="961" d="M885 1167Q816 1006 747 841T616 524T506 248T432 44Q397 19 359 1T270 -30L229 3Q345 207 430 387T588 736T733 1075H279Q260 1075 241 1071T201 1038T150 930L104 948Q109 979 116 1028T131 1127T147
1205H852L885 1167Z" />
<glyph unicode="8" glyph-name="eight" horiz-adv-x="961" d="M867 352Q867 249 811 162T660 23T451 -30Q337 -30 258 14T136 131T94 285Q94 397 169 490T369 651L440 614Q342 544 298 476T254 315Q254 211 320 141T500 70Q574 70 619 105T686 196T707 309Q707
399 667 455T562 548T426 614T290 679T186 770T145 915Q145 1008 192 1080T321 1193T502 1235Q652 1235 734 1160T817 969Q817 878 749 806T580 666L510 709Q596 765 631 823T667 938Q667 1042 608 1091T451 1141Q392 1141 353 1112T294 1039T275 950Q275 886 318
845T428 772T571 708T714 632T824 521T867 352Z" />
<glyph unicode="9" glyph-name="nine" horiz-adv-x="961" d="M870 731Q870 529 797 367T574 98T190 -43L172 16Q370 66 488 159T658 382T710 670Q710 847 672 947T577 1089T465 1130Q362 1130 306 1053T250 856Q250 733 287 668T378 579T481 555Q566 555 635 612T743
754L756 649Q708 560 617 503T438 445Q278 445 189 545T100 795Q100 871 130 948T214 1091T343 1195T506 1235Q599 1235 682 1183T818 1020T870 731Z" />
<glyph unicode=":" glyph-name="colon" horiz-adv-x="415" d="M295 138Q295 79 260 36Q225 -5 174 -5Q86 -5 86 93Q86 153 122 195Q158 237 208 237Q295 237 295 138ZM295 689Q295 629 260 588Q225 547 174 547Q86 547 86 645Q86 704 122 746Q158 789 208 789Q295
789 295 689Z" />
<glyph unicode=";" glyph-name="semicolon" horiz-adv-x="415" d="M346 60Q346 -11 293 -103Q235 -203 146 -269L107 -237Q198 -133 198 1Q198 87 92 83L78 123Q93 143 167 173Q242 204 273 203Q346 169 346 60ZM315 679Q315 619 280 578Q245 537 194 537Q106
537 106 635Q106 694 142 736Q178 779 228 779Q315 779 315 679Z" />
<glyph unicode="&lt;" glyph-name="less" horiz-adv-x="795" d="M740 772Q727 713 713 684L227 502L726 317L740 283Q730 275 712 261T666 226L75 446L55 468Q70 528 83 556L719 794L740 772Z" />
<glyph unicode="=" glyph-name="equal" horiz-adv-x="795" d="M719 679L740 657Q731 617 713 579H75L55 601Q62 635 83 679H719ZM719 414L740 392Q731 352 713 314H75L55 336Q62 370 83 414H719Z" />
<glyph unicode="&gt;" glyph-name="greater" horiz-adv-x="795" d="M720 573L740 551Q726 492 712 464L76 226L55 248Q69 307 82 335L568 516L69 702L55 735Q63 743 82 757T129 794L720 573Z" />
<glyph unicode="?" glyph-name="question" horiz-adv-x="782" d="M712 969Q712 900 684 846T612 745T526 652T451 551T414 429L408 345Q378 318 343 307L320 325L314 429Q311 490 346 556T431 688T517 815T555 929Q555 1143 373 1143Q303 1143 264 1089T225 957Q225
935 237 906Q211 893 173 885T95 872L72 899Q71 904 71 930Q71 1025 125 1091T265 1193T443 1228Q563 1228 637 1156T712 969ZM476 108Q476 48 440 6Q405 -35 354 -35Q266 -35 266 63Q266 123 302 165Q338 207 389 207Q476 207 476 108Z" />
<glyph unicode="@" glyph-name="at" horiz-adv-x="1588" d="M1517 525Q1517 403 1478 302T1375 127T1240 13T1101 -28Q1052 -28 1016 11T965 146Q914 77 877 39T804 -13T718 -28Q654 -28 591 23T485 175T442 418Q442 502 470 588T551 746T678 863T846 908Q889
908 921 893T1003 821Q1064 853 1122 908L1151 880Q1151 880 1137 819T1123 678V270Q1123 116 1214 116Q1246 116 1286 164T1356 295T1386 484Q1386 698 1317 844T1126 1066T844 1142Q701 1142 588 1090T395 947T273 740T231 496Q231 265 319 101T552 -150T867
-237Q976 -237 1074 -210T1246 -144T1358 -74L1388 -133Q1343 -182 1263 -235T1072 -326T821 -364Q601 -364 432 -266T167 12T71 440Q71 604 134 753T308 1018T566 1201T881 1269Q1072 1269 1215 1185T1437 936T1517 525ZM960 692Q935 742 905 770T821 798Q724
798 665 712T605 447Q605 340 634 265T707 150T792 110Q829 110 861 137T960 244V692Z" />
<glyph unicode="A" glyph-name="A" horiz-adv-x="1181" d="M367 426L265 115Q255 85 290 72T403 49V0H0V49Q65 61 102 73T149 115L499 1187Q527 1216 566 1237T637 1272L1038 115Q1047 88 1073 73T1161 49V0H739V49Q813 54 842 68T860 115L753 426H367ZM721 521L556
1005L398 521H721Z" />
<glyph unicode="B" glyph-name="B" horiz-adv-x="1102" d="M999 344Q999 180 875 83T547 -14Q490 -14 414 -12T259 -6T117 0L349 100Q378 84 428 79T522 73Q660 73 738 139T817 315Q817 386 786 457T687 577T508 625Q445 625 398 618T307 603L297 704H387Q527
704 598 739T695 829T720 938Q720 1034 654 1096T408 1159Q333 1159 230 1149T46 1122L36 1188Q88 1202 160 1215T312 1237T463 1246Q663 1246 778 1177T893 985Q893 882 842 807T702 698Q787 683 854 633T960 509T999 344ZM46 0V49Q111 63 146 79T182 108V1169L358
1189V106Q358 95 389 78T491 47V0H46Z" />
<glyph unicode="C" glyph-name="C" horiz-adv-x="1060" d="M986 204Q864 74 758 23T549 -29Q429 -29 318 42T135 246T63 566Q63 772 143 925T356 1162T649 1246Q752 1246 835 1218T967 1150Q975 1144 958 1115T917 1055T878 1008L837 1015Q789 1071 723 1102T573
1134Q524 1134 466 1107T356 1019T270 855T236 602Q236 433 296 321T445 154T624 99Q675 99 759 132T946 253Q957 248 970 230T986 204Z" />
<glyph unicode="D" glyph-name="D" horiz-adv-x="1182" d="M46 0V49Q111 63 146 79T182 108V1141Q145 1136 111 1131T46 1121L36 1188Q94 1204 175 1217T345 1238T510 1246Q783 1246 940 1090T1097 653Q1097 472 1046 347T911 146T733 35T549 0H487Q413 0 355
0T233 0T78 0H46ZM524 87Q587 87 654 118T780 215T874 379T910 615Q910 872 790 1015T446 1159Q402 1159 358 1156V153Q358 110 411 99T524 87Z" />
<glyph unicode="E" glyph-name="E" horiz-adv-x="985" d="M868 1191Q866 1158 860 1113T845 1027T829 960H778Q774 1049 755 1085T700 1122H308L336 1217H835L868 1191ZM770 681Q754 654 729 620T682 570Q653 599 613 611T493 623H295L316 710H743L770 681ZM930
251Q923 168 911 99T891 0H46V49Q111 63 146 79T182 108V1108Q182 1119 149 1137T46 1168V1217H497V1168Q433 1161 396 1152T358 1129V156Q358 138 372 124T427 103T553 95H668Q727 95 764 107T827 157T881 270L930 251Z" />
<glyph unicode="F" glyph-name="F" horiz-adv-x="950" d="M876 1191Q875 1158 869 1113T855 1027T838 960H786Q783 1049 764 1085T708 1122H308L336 1217H844L876 1191ZM743 681Q725 653 699 619T653 570Q625 599 585 611T465 623H243L289 710H713L743 681ZM46
0V49Q111 63 146 79T182 108V1108Q182 1119 149 1137T46 1168V1217H497V1168Q445 1161 402 1152T358 1129V108Q358 97 393 82T523 49V0H46Z" />
<glyph unicode="G" glyph-name="G" horiz-adv-x="1149" d="M1105 544Q1050 531 1029 510T1007 465V153Q1007 153 982 142T924 118T865 96T840 95V465Q840 486 805 505T655 544V593H1105V544ZM1008 1148Q1018 1141 1000 1114T956 1056T913 1011L874 1019Q811 1089
741 1112T579 1136Q543 1136 486 1111T372 1026T275 867T236 615Q236 438 293 323T440 153T624 97Q721 97 792 124T913 200Q921 196 942 187T983 168T1007 153Q912 75 841 36T711 -16T594 -29Q496 -29 402 7T231 117T109 302T63 562Q63 777 149 930T382 1164T708
1246Q771 1246 859 1221T1008 1148Z" />
<glyph unicode="H" glyph-name="H" horiz-adv-x="1294" d="M781 0V49Q846 63 882 79T918 108V1108Q918 1119 884 1137T781 1168V1217H1230V1168Q1166 1155 1130 1139T1093 1108V108Q1093 97 1127 80T1230 49V0H781ZM331 590V685H937V590H331ZM46 0V49Q111 63 146
79T182 108V1108Q182 1119 149 1137T46 1168V1217H495V1168Q431 1155 395 1139T358 1108V108Q358 97 391 80T495 49V0H46Z" />
<glyph unicode="I" glyph-name="I" horiz-adv-x="597" d="M65 0V49Q130 63 166 79T202 108V1108Q202 1119 168 1137T65 1168V1217H514V1168Q450 1155 414 1139T377 1108V108Q377 97 411 80T514 49V0H65Z" />
<glyph unicode="J" glyph-name="J" horiz-adv-x="612" d="M547 1168Q483 1155 447 1139T411 1108V192Q411 43 382 -46T307 -189T211 -284Q160 -326 90 -351T-24 -377Q-67 -377 -108 -362T-175 -327T-201 -296Q-201 -284 -177 -260T-124 -213T-76 -184Q-23 -222
11 -234T82 -246Q116 -246 151 -217T210 -108T235 123V1108Q235 1119 200 1135T51 1168V1217H547V1168Z" />
<glyph unicode="K" glyph-name="K" horiz-adv-x="1151" d="M1083 1168Q1022 1160 988 1150T924 1108L482 621H352L739 1082Q783 1134 767 1147T674 1168V1217H1083V1168ZM1144 40Q1089 21 1027 4T919 -14Q891 -14 870 -5T829 28L352 621L467 696L969 132Q1002
95 1045 89T1137 89L1144 40ZM46 0V49Q111 63 146 79T182 108V1108Q182 1119 149 1137T46 1168V1217H495V1168Q431 1155 395 1139T358 1108V108Q358 97 391 80T495 49V0H46Z" />
<glyph unicode="L" glyph-name="L" horiz-adv-x="948" d="M921 251Q914 168 902 99T881 0H46V49Q111 63 146 79T182 108V1108Q182 1119 149 1137T46 1168V1217H495V1168Q431 1155 395 1139T358 1108V166Q358 132 394 114T536 95H665Q724 95 759 107T819 157T872
270L921 251Z" />
<glyph unicode="M" glyph-name="M" horiz-adv-x="1597" d="M1071 0V49Q1136 63 1176 79T1217 108L1207 1110L1374 1165L1384 108Q1384 97 1419 80T1522 49V0H1071ZM1501 1168Q1458 1168 1399 1146T1290 1090T1224 1018L794 0H790Q768 122 766 172T776 253L1152
1136Q1176 1194 1186 1205T1215 1217H1501V1168ZM801 255Q814 225 814 174T790 0H735L299 1019Q274 1078 232 1110T145 1155T65 1168V1217H353Q372 1217 383 1203T416 1136L801 255ZM55 0V49Q192 77 192 108L202 1148L320 1172L309 108Q309 97 343 80T446 49V0H55Z"
/>
<glyph unicode="N" glyph-name="N" horiz-adv-x="1276" d="M1232 1168Q1163 1158 1129 1140T1095 1108V31L973 69V1108Q973 1119 944 1138T837 1168V1217H1232V1168ZM1095 -29Q1037 -22 1002 -5T951 34L227 1049Q188 1105 142 1132T46 1168V1217H265Q294 1217
307 1205T357 1142L979 273Q993 255 1020 219T1071 152T1095 122V-29ZM46 0V49Q116 58 149 76T182 108V1148L305 1179V108Q305 97 336 79T441 49V0H46Z" />
<glyph unicode="O" glyph-name="O" horiz-adv-x="1185" d="M557 -29Q440 -29 349 21T194 159T98 358T65 591Q65 723 106 841T222 1050T396 1193T612 1246Q732 1246 824 1194T978 1054T1072 854T1104 625Q1104 494 1061 376T941 167T767 24T557 -29ZM588 91Q738
91 834 221T931 608Q931 741 887 860T764 1055T579 1131Q418 1131 328 993T238 619Q238 474 286 355T413 163T588 91Z" />
<glyph unicode="P" glyph-name="P" horiz-adv-x="1045" d="M965 904Q965 804 926 731T826 609T696 537T570 513Q480 513 414 542L391 622Q430 604 465 599T534 593Q592 593 651 623T751 713T792 865Q792 967 746 1032T623 1128T448 1159Q348 1159 243 1149T46
1121L36 1188Q131 1214 257 1230T502 1246Q712 1246 838 1158T965 904ZM46 0V49Q111 63 146 79T182 108V1163H358V108Q358 97 391 82T523 49V0H46Z" />
<glyph unicode="Q" glyph-name="Q" horiz-adv-x="1185" d="M1102 625Q1102 494 1059 376T940 167T765 24T555 -29Q410 -29 299 56T126 282T63 591Q63 723 104 841T220 1050T394 1193T610 1246Q730 1246 822 1194T976 1054T1070 854T1102 625ZM1259 -115Q1214 -199
1163 -249T1083 -300Q1007 -300 932 -257T783 -154T633 -44T483 19Q483 19 506 24T561 36T623 46T665 47Q722 32 778 1T888 -64T992 -123T1089 -147Q1112 -147 1141 -132T1227 -73L1259 -115ZM929 608Q929 741 885 860T762 1055T577 1131Q416 1131 326 993T236
619Q236 474 284 355T411 163T586 91Q736 91 832 221T929 608Z" />
<glyph unicode="R" glyph-name="R" horiz-adv-x="1120" d="M912 953Q912 830 851 746T688 619T459 576Q403 576 347 589L341 674Q375 669 397 667T443 665Q588 665 663 732T739 923Q739 1025 667 1092T426 1159Q342 1159 243 1148T46 1121L36 1188Q128 1211 231
1228T463 1246Q695 1246 803 1162T912 953ZM1114 40Q1051 19 987 3T885 -14Q858 -14 832 2T792 40L499 591L610 655L936 146Q965 104 1002 94T1103 89L1114 40ZM46 0V49Q111 63 146 79T182 108V1174H358V108Q358 97 391 80T495 49V0H46Z" />
<glyph unicode="S" glyph-name="S" horiz-adv-x="950" d="M731 1013L689 1019Q639 1090 577 1117T459 1145Q356 1145 311 1091T265 981Q265 920 308 877T420 798T565 725T710 640T822 527T866 364Q866 300 840 231T759 103T622 8T428 -29Q364 -29 277 -3T121 66Q115
69 112 99T108 171T111 256T123 328L170 324Q214 210 297 152T478 93Q535 93 589 121T679 199T714 309Q714 388 671 439T560 527T416 598T271 674T160 777T117 932Q117 977 138 1031T207 1134T330 1214T514 1246Q605 1246 688 1221T807 1157Q816 1150 803 1120T768
1059T731 1013Z" />
<glyph unicode="T" glyph-name="T" horiz-adv-x="1092" d="M1051 1191Q1050 1142 1041 1077T1021 951H970Q951 1040 938 1081T883 1122H527L555 1217H1021L1051 1191ZM172 1122Q153 1122 138 1109T104 1058T56 945L8 965Q12 1021 21 1094T41 1217H602L625 1122H172ZM291
0V49Q380 67 413 86T446 119V1129Q446 1141 413 1148T311 1168V1217H758V1168Q694 1155 658 1149T622 1129V119Q622 106 655 87T776 49V0H291Z" />
<glyph unicode="U" glyph-name="U" horiz-adv-x="1286" d="M1227 1168Q1163 1155 1127 1139T1091 1108V506Q1091 253 969 112T640 -29Q509 -29 405 20T242 170T182 429V1108Q182 1119 149 1137T46 1168V1217H495V1168Q431 1155 395 1139T358 1108V481Q358 296
439 193T683 90Q774 90 834 145T924 287T955 470V1108Q955 1119 921 1137T818 1168V1217H1227V1168Z" />
<glyph unicode="V" glyph-name="V" horiz-adv-x="1278" d="M1242 1168Q1178 1155 1141 1143T1093 1104L730 63Q720 35 691 16T629 -13T575 -29L151 1104Q133 1152 17 1168V1217H452V1168Q376 1162 349 1148T331 1106L661 217L972 1104Q983 1133 951 1145T840 1168V1217H1242V1168Z"
/>
<glyph unicode="W" glyph-name="W" horiz-adv-x="1662" d="M1633 1168Q1548 1151 1520 1137T1488 1108L1269 57Q1264 29 1239 12T1185 -14T1135 -29L819 895L545 57Q532 16 485 -2T399 -29L151 1100Q146 1124 117 1139T19 1168V1217H444V1168Q351 1158 332 1140T316
1100L499 276L800 1217H864L1198 276L1369 1108Q1374 1131 1331 1144T1222 1168V1217H1633V1168Z" />
<glyph unicode="X" glyph-name="X" horiz-adv-x="1210" d="M1136 1168Q1067 1160 1027 1144T962 1087L605 508L553 651L821 1087Q848 1130 819 1145T704 1168V1217H1136V1168ZM732 0V49Q815 58 836 74T832 130L186 1087Q158 1130 129 1144T37 1168V1217H491V1168Q410
1160 385 1145T389 1087L1034 130Q1063 89 1095 73T1183 49V0H732ZM342 130Q316 87 342 71T457 49V0H28V49Q90 54 133 72T202 130L569 726L608 558L342 130Z" />
<glyph unicode="Y" glyph-name="Y" horiz-adv-x="1171" d="M1135 1168Q1070 1155 1036 1142T987 1104L645 470H515Q481 551 435 641T339 818T242 980T159 1104Q141 1125 113 1140T4 1155L0 1205Q56 1213 118 1220T221 1227Q270 1227 301 1187Q349 1125 403 1036T511
849T609 657L857 1104Q871 1130 848 1144T751 1168V1217H1135V1168ZM340 0V49Q427 67 461 86T495 119V615H670V119Q670 106 704 87T827 49V0H340Z" />
<glyph unicode="Z" glyph-name="Z" horiz-adv-x="1034" d="M960 298Q958 257 956 202T951 92T948 0H84L54 45L724 1113H303Q272 1113 234 1064T174 913L112 926L141 1233Q194 1221 230 1219T323 1217H924L950 1174L286 104H769Q810 104 836 150T900 314L960 298Z" />
<glyph unicode="[" glyph-name="bracketleft" horiz-adv-x="557" d="M491 -194L521 -219Q513 -256 496 -295H124V1413H491L519 1389Q513 1348 496 1312H248V-194H491Z" />
<glyph unicode="\" glyph-name="backslash" horiz-adv-x="848" d="M181 1369L800 -275L768 -295Q695 -272 667 -250L49 1393L82 1413Q130 1400 181 1369Z" />
<glyph unicode="]" glyph-name="bracketright" horiz-adv-x="557" d="M433 1413V-295H66L37 -271Q45 -226 60 -194H309V1312H66L36 1337Q43 1374 60 1413H433Z" />
<glyph unicode="^" glyph-name="asciicircum" horiz-adv-x="948" d="M852 601Q812 562 753 534L718 560L453 1244L218 601Q199 582 168 563T117 534L96 560L397 1383Q420 1405 458 1429T522 1466L852 601Z" />
<glyph unicode="_" glyph-name="underscore" horiz-adv-x="757" d="M785 -149Q781 -169 772 -196T754 -240H0L-25 -213Q-20 -194 -11 -169T8 -124H762L785 -149Z" />
<glyph unicode="`" glyph-name="grave" horiz-adv-x="615" d="M416 1022Q407 1014 390 1004T356 989L19 1345L41 1388Q54 1391 85 1396T149 1407T197 1414L416 1022Z" />
<glyph unicode="a" glyph-name="a" horiz-adv-x="905" d="M892 85Q813 30 753 1T664 -28Q630 -28 608 21T586 155V660Q586 723 555 765T438 806Q382 805 336 771T294 679Q295 670 272 659T216 638T154 623T113 620L98 660Q127 727 195 783T351 873T525 908Q635
908 692 851T749 696V184Q749 110 786 110Q800 110 819 114T876 135L892 85ZM595 458Q495 442 439 426T353 393T304 356Q280 331 265 299T249 224Q249 152 285 129T347 106Q399 106 460 134T595 229L603 149Q515 54 428 13T277 -28Q230 -28 183 -7T105 61T73 180Q73
250 98 297T157 379Q188 410 232 437T361 488T595 534V458Z" />
<glyph unicode="b" glyph-name="b" horiz-adv-x="993" d="M911 469Q911 387 877 300T780 139T634 18T449 -28Q409 -28 320 4T129 91V1218Q129 1274 121 1298T87 1331T9 1345V1391Q77 1405 137 1421T256 1466Q278 1448 292 1432V707Q386 812 474 860T616 908Q747
908 829 791T911 469ZM763 388Q763 576 695 673T537 771Q504 771 437 734T292 594V196Q367 144 438 124T541 104Q614 104 663 144T738 250T763 388Z" />
<glyph unicode="c" glyph-name="c" horiz-adv-x="851" d="M802 180Q721 85 662 41T552 -16T441 -28Q347 -28 263 25T126 179T73 420Q73 556 137 666T311 842T559 908Q621 908 690 888T790 833Q793 818 783 782T758 709T731 654L689 663Q670 712 620 756T478 800Q384
800 310 714T236 449Q236 344 274 267T376 147T513 104Q548 104 579 110T652 142T762 224L802 180Z" />
<glyph unicode="d" glyph-name="d" horiz-adv-x="1022" d="M1009 87Q923 29 866 1T783 -28Q743 -28 722 40T700 265V1198Q700 1268 694 1300T659 1344T566 1360V1405Q650 1415 717 1432T832 1466L863 1436V252Q863 185 869 156T885 115Q893 105 915 109T993 135L1009
87ZM769 235Q702 152 646 93T531 3T396 -28Q323 -28 248 25T123 179T73 420Q73 505 105 591T197 749T337 864T518 908Q574 908 631 889T762 797Q762 740 750 716T707 673Q676 732 620 765T493 798Q381 798 309 714T236 455Q236 350 273 273T364 153T470 110Q539
110 603 163T733 281Q745 275 755 259T769 235Z" />
<glyph unicode="e" glyph-name="e" horiz-adv-x="901" d="M828 525Q812 506 780 488T718 458H173L174 549H620Q642 549 649 556T656 583Q656 618 642 670T587 764T470 805Q361 805 300 710T238 468Q238 370 269 287T361 154T504 104Q544 104 581 111T666 146T784
229Q796 222 807 207T823 184Q739 93 678 48T563 -13T441 -28Q343 -28 259 26T124 180T73 412Q73 540 126 651T277 830Q321 861 382 884T499 908Q622 908 694 848T797 700T828 525Z" />
<glyph unicode="f" glyph-name="f" horiz-adv-x="615" d="M786 1375Q786 1362 762 1337T707 1288T658 1255Q614 1299 570 1319T499 1340Q467 1340 432 1309T373 1197T349 961V880H589L618 850Q600 823 572 791T526 749Q504 760 464 771T349 782V104Q349 93 391
81T543 48V0H56V48Q121 59 153 76T186 104V782H64L42 811L115 880H186V909Q186 1046 210 1131T274 1271T365 1368Q421 1416 488 1441T597 1466Q640 1466 683 1448T756 1408T786 1375Z" />
<glyph unicode="g" glyph-name="g" horiz-adv-x="955" d="M928 -110Q928 -185 886 -250T773 -365T619 -443T449 -471Q382 -471 308 -457T170 -412T66 -333T26 -215Q26 -180 47 -142T130 -54T315 58Q315 58 335 56T376 48T399 28Q302 -25 258 -63T201 -128T189
-178Q189 -228 232 -270T347 -337T504 -362Q626 -362 696 -302T767 -152Q767 -120 745 -94T665 -47T497 -13Q313 9 239 50T165 137Q165 156 198 200T341 315L484 331Q401 274 372 236T343 189Q343 175 360 162T428 136T575 112Q715 96 791 62T898 -16T928 -110ZM946
878Q936 853 924 828T892 780Q842 771 789 767T656 764L614 841Q730 848 806 870T925 908L946 878ZM797 606Q797 509 743 436T602 321T421 279Q280 279 186 358T92 569Q92 662 145 739T285 862T466 908Q560 908 635 867T753 757T797 606ZM643 568Q643 667 582 738T403
810Q372 810 336 789T273 727T246 623Q246 524 304 453T485 382Q541 382 592 429T643 568Z" />
<glyph unicode="h" glyph-name="h" horiz-adv-x="1077" d="M628 0V48Q757 82 757 106V584Q757 699 730 735T641 772Q580 772 502 714T344 542V106Q344 92 378 77T473 48V0H52V48Q114 65 147 77T181 106V1220Q181 1273 174 1296T140 1329T52 1345V1391Q138 1405
194 1421T307 1466L344 1432V672Q432 784 536 846T713 908Q794 908 857 857T920 692V106Q920 93 948 81T1050 48V0H628Z" />
<glyph unicode="i" glyph-name="i" horiz-adv-x="539" d="M388 1193Q388 1137 354 1099T266 1060Q174 1060 174 1154Q174 1211 210 1249T295 1287Q338 1287 363 1264T388 1193ZM66 0V48Q195 74 195 106V628Q195 693 190 725T157 770T66 789V834Q131 846 199 865T319
908H358V106Q358 95 388 78T487 48V0H66Z" />
<glyph unicode="j" glyph-name="j" horiz-adv-x="515" d="M384 1193Q384 1137 350 1099T263 1060Q171 1060 171 1154Q171 1211 206 1249T292 1287Q384 1287 384 1193ZM353 96Q353 -49 327 -138T259 -280T166 -375Q116 -415 54 -443T-49 -471Q-90 -471 -129 -458T-195
-428T-221 -400Q-221 -387 -196 -363T-140 -314T-91 -282Q-60 -311 -24 -322T48 -334Q83 -334 115 -303T169 -190T190 41V628Q190 693 185 725T152 769T61 789V834Q145 848 197 865T311 908H353V96Z" />
<glyph unicode="k" glyph-name="k" horiz-adv-x="970" d="M938 832Q897 828 861 816T784 771L405 469L320 498L603 748Q644 785 645 802T623 826T566 832V880H938V832ZM33 0V48Q95 65 128 77T162 106V1218Q162 1274 152 1298T115 1331T33 1345V1391Q104 1405 170
1421T289 1466L325 1432V106Q325 92 342 82T428 48V0H33ZM971 21Q916 8 861 0T785 -9Q715 -9 676 41L322 498L436 569L823 114Q849 84 879 75T965 69L971 21Z" />
<glyph unicode="l" glyph-name="l" horiz-adv-x="539" d="M56 0V48Q137 62 166 76T195 106V1218Q195 1274 185 1298T147 1331T66 1345V1391Q140 1405 200 1420T322 1466L358 1432V106Q358 92 389 77T497 48V0H56Z" />
<glyph unicode="m" glyph-name="m" horiz-adv-x="1565" d="M1119 0V48Q1187 66 1215 79T1244 106V591Q1244 707 1220 744T1140 781Q1084 781 1014 724T875 565V106Q875 93 902 81T1004 48V0H588V48Q656 66 684 79T712 106V591Q712 707 689 744T610 781Q552 781
487 725T344 565V106Q344 92 377 77T471 48V0H52V48Q114 65 147 77T181 106V667Q181 717 174 740T140 773T52 789V834Q130 846 185 864T295 908L330 873L340 683Q429 800 513 854T665 908Q754 908 811 862T871 707L872 689Q958 800 1042 854T1195 908Q1284 908
1345 857T1407 692V106Q1407 93 1436 81T1539 48V0H1119Z" />
<glyph unicode="n" glyph-name="n" horiz-adv-x="1077" d="M628 0V48Q757 82 757 106V587Q757 700 732 736T643 772Q589 772 512 721T344 542V106Q344 92 378 77T473 48V0H52V48Q114 65 147 77T181 106V667Q181 716 175 739T142 772T52 789V834Q122 845 180 863T295
908L330 873L340 664Q429 782 534 845T713 908Q794 908 857 857T920 692V106Q920 93 948 81T1050 48V0H628Z" />
<glyph unicode="o" glyph-name="o" horiz-adv-x="980" d="M907 459Q907 365 873 278T778 121T639 12T472 -28Q352 -28 262 30T123 190T73 420Q73 514 106 601T199 758T338 867T509 908Q630 908 719 850T857 690T907 459ZM738 427Q738 527 701 611T605 748T482
800Q392 800 340 754T265 627T243 447Q243 348 283 264T382 130T499 79Q626 79 682 173T738 427Z" />
<glyph unicode="p" glyph-name="p" horiz-adv-x="1035" d="M603 -28Q548 -28 482 1T344 89V-347Q344 -362 379 -377T502 -406V-454H52V-406Q114 -391 147 -377T181 -347V667Q181 715 174 740T139 775T52 789V834Q128 848 182 865T295 908L330 873L338 705Q435
813 521 860T662 908Q790 908 876 794T962 467Q962 382 931 295T848 135T733 17T603 -28ZM586 779Q552 779 490 741T344 594V205Q432 143 491 124T599 104Q692 104 752 180T813 403Q813 516 781 600T697 732T586 779Z" />
<glyph unicode="q" glyph-name="q" horiz-adv-x="1009" d="M539 -454V-406Q627 -392 662 -378T698 -347V797Q718 804 750 824T813 869T859 908L890 878Q890 878 876 819T861 673V-347Q861 -362 889 -377T990 -406V-454H539ZM768 235Q701 152 644 93T527 3T390
-28Q320 -28 247 25T123 179T73 420Q73 531 114 616T211 758T311 841Q364 872 420 890T518 908Q574 908 630 889T760 795Q760 738 748 714T705 671Q676 730 617 764T491 798Q391 798 314 714T236 457Q236 350 272 272T363 152T468 110Q537 110 601 163T731 281Q743
275 753 259T768 235Z" />
<glyph unicode="r" glyph-name="r" horiz-adv-x="788" d="M750 871Q759 866 757 836T747 764T728 682T704 615H656Q646 692 618 728T552 764Q512 764 452 702T344 488V106Q344 92 380 77T504 48V0H52V48Q181 78 181 106V643Q181 706 175 730T159 763Q147 776 126
781T52 789V834Q123 849 181 865T295 908L330 873L342 679Q393 776 462 842T612 908Q644 908 680 900T750 871Z" />
<glyph unicode="s" glyph-name="s" horiz-adv-x="762" d="M679 268Q679 168 640 109T543 20T430 -19T343 -28Q294 -28 227 -12T98 41Q90 46 88 91T90 192T104 281L154 271Q162 186 227 129T386 72Q453 72 493 109T534 209Q534 260 501 296T414 361T304 421Q252
449 205 481T127 556T96 660Q96 739 138 794T247 878T389 908Q454 908 530 889T645 835Q653 828 644 795T621 725T596 676L552 684Q513 756 466 787T368 819Q308 819 274 785T240 711Q240 650 302 612T449 529Q504 501 556 468T644 387T679 268Z" />
<glyph unicode="t" glyph-name="t" horiz-adv-x="677" d="M650 120Q550 46 465 9T330 -28Q261 -28 210 27T158 215V782H39L17 811L90 880H158V1103L290 1213L321 1187V880H621L650 850Q633 823 604 791T556 749Q534 760 488 771T373 782H321V298Q321 189 343 149T416
108Q449 108 497 121T619 174L650 120Z" />
<glyph unicode="u" glyph-name="u" horiz-adv-x="1037" d="M1022 85Q954 40 889 6T800 -28Q767 -28 745 12T715 149Q599 36 522 4T384 -28Q326 -28 275 -5T191 82T158 264V667Q158 727 152 753T121 788T39 802V848Q113 856 169 869T292 908L321 869V318Q321 190
356 144T455 98Q510 98 572 131T715 248V667Q715 724 707 752T671 790T586 802V848Q660 856 726 873T848 908L878 869V248Q878 131 900 114Q911 106 936 110T1009 135L1022 85Z" />
<glyph unicode="v" glyph-name="v" horiz-adv-x="957" d="M938 832Q882 819 865 807T837 767L572 61Q556 19 511 -1T436 -28L121 767Q111 792 89 806T19 832V880H397V832Q325 822 304 810T295 767L518 196L727 767Q738 796 721 808T635 832V880H938V832Z" />
<glyph unicode="w" glyph-name="w" horiz-adv-x="1364" d="M1345 832Q1289 819 1273 807T1251 773L1044 56Q1036 28 1011 11T958 -15T914 -28L668 639L685 880Q685 880 710 880T746 880L988 213L1142 773Q1148 795 1127 808T1040 832V880H1345V832ZM495 56Q481
13 437 -5T368 -28L121 773Q112 810 19 832V880H397V832Q309 822 294 807T284 773L451 213L679 880Q692 880 713 880T735 880L751 765L495 56Z" />
<glyph unicode="x" glyph-name="x" horiz-adv-x="978" d="M942 832Q866 826 827 804T762 747L528 422L469 495L649 749Q681 796 662 811T585 832V880H942V832ZM564 0V48Q595 51 619 57T650 80T632 131L187 747Q162 782 133 804T29 832V880H441V832Q384 826 363
810T374 749L815 136Q835 108 868 83T963 48V0H564ZM290 131Q266 97 277 81T317 58T376 48V0H19V48Q93 59 125 83T179 136L423 472L480 396L290 131Z" />
<glyph unicode="y" glyph-name="y" horiz-adv-x="957" d="M938 832Q882 819 864 808T835 768L522 -76Q444 -286 335 -378T125 -471Q53 -471 4 -453T-46 -417Q-46 -408 -25 -380T23 -321T71 -278Q116 -306 161 -308T242 -299Q277 -287 324 -228T405 -87L432 -22L123
767Q113 793 90 807T19 832V880H397V832Q327 822 306 811T297 767L517 199L725 767Q736 797 715 809T627 832V880H938V832Z" />
<glyph unicode="z" glyph-name="z" horiz-adv-x="837" d="M792 255Q792 216 791 165T787 68T781 0H94L69 43L583 787H280Q247 787 215 755T163 630L112 643L130 895Q171 884 203 882T295 880H773L794 839L278 93H654Q680 93 700 135T742 267L792 255Z" />
<glyph unicode="{" glyph-name="braceleft" horiz-adv-x="609" d="M550 1413L574 1371Q411 1268 411 1105Q411 1038 428 959Q446 883 446 813Q446 738 404 674T287 578Q446 547 446 339Q446 267 428 180Q411 92 411 38Q411 -60 441 -116Q473 -174 564 -224L545
-277Q395 -217 329 -139Q264 -60 264 62Q264 133 282 215Q300 299 300 372Q300 516 162 516Q130 516 105 512L90 559Q300 613 300 762Q300 834 282 907Q264 981 264 1054Q264 1284 550 1413Z" />
<glyph unicode="|" glyph-name="bar" horiz-adv-x="392" d="M128 1138Q153 1160 183 1176T245 1203L281 1171Q274 1056 271 918T268 631T272 339T281 70T293 -147Q284 -170 248 -202T190 -248Q190 -248 178 -241T154 -226T141 -219Q135 -63 131 121T123 493T121
847T128 1138Z" />
<glyph unicode="}" glyph-name="braceright" horiz-adv-x="609" d="M504 624L518 576Q309 520 309 372Q309 301 327 227Q345 154 345 82Q345 -148 59 -277L35 -235Q198 -132 198 30Q198 99 180 175Q162 252 162 322Q162 396 205 460T322 558Q162 588 162 796Q162
869 180 954Q198 1041 198 1096Q198 1196 166 1252Q134 1308 43 1359L63 1413Q215 1353 279 1275Q345 1199 345 1072Q345 1003 327 919Q309 837 309 763Q309 618 446 618Q474 618 504 624Z" />
<glyph unicode="~" glyph-name="asciitilde" horiz-adv-x="940" d="M896 734Q870 672 826 606T726 493T608 447Q569 447 525 470T436 523T347 576T262 599Q174 599 98 446L44 473Q71 535 115 601T215 714T332 760Q377 760 422 737T511 684T596 631T676 608Q767
608 842 760L896 734Z" />
<glyph unicode="&#xa0;" glyph-name="uni00A0" horiz-adv-x="700" />
<glyph unicode="&#xa1;" glyph-name="exclamdown" horiz-adv-x="545" d="M389 797Q389 730 347 685T249 640Q144 640 144 753Q144 821 184 865T286 909Q389 909 389 797ZM370 -449Q333 -472 285 -496T203 -534Q193 -528 183 -522T161 -511Q174 -259 187 -8T213
496Q232 510 249 518T291 533L317 515Q331 274 344 33T370 -449Z" />
<glyph unicode="&#xa2;" glyph-name="cent" d="M545 -4Q528 -19 515 -25T478 -39L453 -13V1145Q479 1161 484 1166T518 1178L545 1155V-4ZM832 333Q751 237 693 193T583 135T470 122Q380 122 294 171T152 317T96 554Q96 689 160 794T336 960T587 1021Q649 1021
719 1001T821 945Q824 931 814 898T788 830T762 780L722 791Q710 813 683 841T612 891T502 913Q440 913 383 880T291 773T255 583Q255 475 294 401T398 290T537 252Q574 252 606 258T681 292T790 379L832 333Z" />
<glyph unicode="&#xa3;" glyph-name="sterling" d="M831 1102Q830 1070 824 1017T811 913T795 838H743Q716 1069 529 1069Q493 1069 457 1055T393 991T356 840T367 563Q384 419 353 301T266 105Q352 112 401 111T493 106T606 105Q664 107 701 118T765 164T818
272L866 254Q859 172 846 100T826 0Q776 -28 703 -28T545 -17T376 6T215 12T84 -28L58 24Q103 61 132 94T176 177T192 315T183 547Q161 832 262 1000T587 1168Q636 1168 690 1158T831 1102ZM604 503H79L56 529Q61 543 68 562T81 597H606L632 573L604 503Z" />
<glyph unicode="&#xa4;" glyph-name="currency" d="M343 692Q292 640 292 569Q292 498 342 449Q368 423 399 411T463 398Q534 398 583 448Q633 500 633 569Q633 640 582 692Q532 741 463 741Q392 741 343 692ZM275 760Q315 800 364 819T463 839Q513 839 561 820T649
760Q689 721 709 671T729 568Q729 516 710 467T651 378Q614 339 565 320T463 301Q412 301 362 320T273 379Q234 418 215 467T196 568Q196 620 215 670T275 760ZM351 391L200 239L167 241Q160 255 151 272T135 305L285 456L320 458L351 391ZM279 688L136 833L139
867Q153 875 169 883T202 899L344 755L346 720L279 688ZM722 240L579 385L581 419Q595 427 611 435T644 451L787 306L788 272L722 240ZM786 832L636 680L603 682Q595 696 587 713T571 745L722 898L756 899L786 832Z" />
<glyph unicode="&#xa5;" glyph-name="yen" d="M221 0V48Q307 66 340 84T373 116V400H114L94 424Q98 438 105 458T117 494H373V535Q309 677 233 811T91 1028Q75 1050 46 1064T-61 1078L-65 1127Q-9 1135 53 1141T154 1148Q203 1148 233 1110Q303 1018 362 914T486
673L681 1028Q695 1053 673 1067T577 1091V1139H954V1091Q890 1079 857 1066T810 1028L545 534V494H798L822 472L796 400H545V116Q545 104 578 85T699 48V0H221Z" />
<glyph unicode="&#xa6;" glyph-name="brokenbar" horiz-adv-x="451" d="M310 720Q291 706 257 692T199 670L162 693V1532Q190 1547 217 1560T274 1580L310 1557V720ZM310 -355Q291 -370 257 -384T199 -406L162 -382V446Q190 462 217 474T274 496Q283 490 292 484T310
471V-355Z" />
<glyph unicode="&#xa7;" glyph-name="section" horiz-adv-x="920" d="M420 -28Q371 -28 304 -7T174 48Q166 52 165 98T167 200T181 289L231 278Q239 193 304 132T463 70Q531 70 571 100T611 194Q611 245 576 278T486 339T375 398Q260 461 185 536T110 734Q110
794 142 851T227 950T344 1007L399 935Q333 926 293 882T253 780Q253 723 281 682T368 601T518 508Q573 480 627 448T718 370T755 253Q755 153 716 96T619 12T506 -21T420 -28ZM609 342L520 422Q584 424 625 465T667 565Q667 654 599 713T388 850Q299 899 236 967T173
1130Q173 1209 215 1260T324 1336T466 1362Q531 1362 606 1339T722 1282Q730 1275 721 1241T698 1172T673 1123L629 1130Q552 1273 445 1273Q385 1273 351 1247T317 1173Q317 1108 372 1064T531 960Q609 916 672 873T773 771T811 623Q811 538 778 477T697 381T609
342Z" />
<glyph unicode="&#xa8;" glyph-name="dieresis" horiz-adv-x="754" d="M290 1195Q290 1137 256 1096T172 1055Q84 1055 84 1152Q84 1211 119 1251T202 1291Q290 1291 290 1195ZM670 1195Q670 1137 636 1096T552 1055Q464 1055 464 1152Q464 1211 499 1251T582
1291Q670 1291 670 1195Z" />
<glyph unicode="&#xa9;" glyph-name="copyright" horiz-adv-x="1381" d="M690 -28Q560 -28 451 21T262 157T137 359T92 605Q92 736 136 850T261 1052T451 1188T690 1237Q820 1237 929 1188T1119 1052T1244 851T1289 605Q1289 474 1245 359T1120 157T930 21T690
-28ZM669 209Q587 209 511 253T387 381T338 579Q338 704 393 798T540 946T744 999Q812 999 867 981T957 937Q961 932 950 906T922 853T895 815L865 820Q836 856 796 887T695 918Q652 918 602 889T515 792T478 604Q478 507 521 441T625 340T738 306Q780 306 823
322T939 393L968 359Q880 271 809 240T669 209ZM690 61Q839 61 954 134T1134 331T1200 605Q1200 754 1135 877T954 1073T690 1147Q543 1147 428 1074T247 877T181 605Q181 455 247 332T428 135T690 61Z" />
<glyph unicode="&#xaa;" glyph-name="ordfeminine" horiz-adv-x="505" d="M493 735Q407 676 366 676Q350 676 335 706T319 812V998Q319 1057 305 1087T242 1118Q214 1118 188 1095T175 1034Q177 1029 154 1021T104 1008T69 1005L60 1025Q69 1066 109 1100T201
1154T289 1175Q357 1175 385 1136T414 993V808Q414 782 418 770T427 751Q432 748 446 750T485 762L493 735ZM277 931Q204 910 176 881T148 810Q148 773 165 760T195 747Q224 747 257 762T330 813L336 769Q287 718 240 697T157 676Q120 676 83 700T46 784Q46 843
90 889T229 961L384 1000L387 958L277 931ZM48 554V627H466V554H48Z" />
<glyph unicode="&#xab;" glyph-name="guillemotleft" horiz-adv-x="911" d="M762 2L412 377Q411 394 411 411T414 446L762 817L806 785L594 412L807 34L762 2ZM404 2L53 377Q52 394 52 411T55 446L404 817L447 785L236 412L448 34L404 2Z" />
<glyph unicode="&#xac;" glyph-name="logicalnot" d="M852 220Q833 206 810 191T764 168L738 194V475H88L63 499Q68 519 77 544T96 588Q317 588 455 588T670 588T779 588T817 588T823 588L852 566V220Z" />
<glyph unicode="&#xad;" glyph-name="uni00AD" horiz-adv-x="763" d="M120 532H697L723 492Q696 464 674 446T614 408H61L31 444Q48 466 73 491T120 532Z" />
<glyph unicode="&#xae;" glyph-name="registered" horiz-adv-x="688" d="M658 1025Q658 934 617 859T505 739T343 694Q253 694 183 739T72 859T31 1025Q31 1117 71 1192T182 1312T343 1357Q434 1357 505 1312T617 1192T658 1025ZM599 1025Q599 1100 566 1162T476
1260T343 1297Q270 1297 213 1261T122 1162T89 1025Q89 950 122 889T212 791T343 754Q418 754 475 790T566 888T599 1025ZM473 1131Q473 1075 431 1043T324 1011Q310 1011 290 1016L288 1051Q305 1047 321 1047Q411 1047 411 1123Q411 1151 390 1169T318 1188Q292
1188 262 1185T202 1177L199 1205Q226 1212 258 1217T328 1222Q402 1222 437 1196T473 1131ZM524 850Q505 844 484 839T451 833Q431 833 422 850L322 1022L366 1039L474 885Q485 867 522 870L524 850ZM201 838V857Q241 866 241 874V1201H297V874Q297 865 336 857V838H201Z"
/>
<glyph unicode="&#xaf;" glyph-name="overscore" horiz-adv-x="950" d="M813 1218Q809 1198 795 1164T773 1112H159L137 1137Q142 1158 156 1191T179 1243H791L813 1218Z" />
<glyph unicode="&#xb0;" glyph-name="degree" horiz-adv-x="690" d="M564 990Q564 911 525 848T428 748T309 711Q230 711 179 765T127 896Q127 977 165 1040T262 1139T381 1175Q457 1175 510 1120T564 990ZM451 941Q451 994 426 1034T356 1075Q311 1075 276 1040T241
944Q241 893 266 852T335 811Q379 811 415 845T451 941Z" />
<glyph unicode="&#xb1;" glyph-name="plusminus" horiz-adv-x="795" d="M743 639Q739 620 729 594T711 552H81L55 575Q60 595 70 620T88 663H719L743 639ZM743 191Q739 172 729 146T711 103H81L55 128Q60 148 70 172T88 216H719L743 191ZM458 297Q439 288 413
280T367 266L342 289V920Q360 925 386 934T433 949L458 925V297Z" />
<glyph unicode="&#xb2;" glyph-name="uni00B2" horiz-adv-x="647" d="M564 587H75L56 628Q172 745 246 824T360 955T416 1043T432 1111Q432 1162 406 1193T315 1224Q264 1224 235 1190T208 1114Q158 1090 93 1084L74 1107Q74 1146 114 1188T219 1259T360 1288Q450
1288 507 1250T564 1131Q564 1081 531 1027T420 890T205 671H461Q491 671 505 695T523 743T528 767L574 760L564 587Z" />
<glyph unicode="&#xb3;" glyph-name="uni00B3" horiz-adv-x="647" d="M566 803Q566 707 490 638T285 569Q228 569 164 591T40 663L64 707Q123 669 170 655T266 640Q339 640 384 676T429 785Q429 869 379 901T277 933Q258 933 254 933T229 929L219 975Q296 994
333 1019T381 1070T393 1120Q393 1159 369 1191T288 1224Q243 1224 218 1200T203 1137Q180 1126 147 1119T82 1110L63 1132Q63 1164 98 1200T193 1262T325 1288Q432 1288 480 1238T528 1130Q528 1088 491 1045T390 983Q467 975 516 924T566 803Z" />
<glyph unicode="&#xb4;" glyph-name="acute" horiz-adv-x="615" d="M262 989Q246 992 230 1001T202 1019L415 1414Q430 1413 462 1409T526 1399T572 1389L595 1348L262 989Z" />
<glyph unicode="&#xb5;" glyph-name="mu" horiz-adv-x="1054" d="M1037 81Q981 44 916 8T814 -29Q768 -29 748 42T727 204Q727 212 727 262T727 384T727 526T727 648T727 708Q727 738 716 786T692 851Q736 862 785 877T877 908L905 869Q902 845 897 811T890 718Q890
711 890 667T890 559T890 432T890 320T890 261Q890 173 899 139T927 105Q961 105 1024 131L1037 81ZM784 244Q693 107 611 39T463 -29Q399 -29 332 30T220 191T174 422Q174 429 174 468T174 555T174 640T174 682Q174 731 169 754T139 785T55 800V846Q132 857 188
870T300 908Q301 908 315 892T337 866Q337 864 337 812T337 685T337 535T337 407T337 350Q337 303 359 253T418 168T501 133Q537 133 576 146T663 203T770 338L784 244ZM262 434Q258 377 259 330T262 229T263 102Q262 -98 305 -218T400 -398Q382 -404 343 -419T266
-450T213 -473L174 -444Q174 -438 174 -383T174 -241T174 -50T174 159T174 355T174 507T174 582Q174 582 194 556T236 494T262 434Z" />
<glyph unicode="&#xb6;" glyph-name="paragraph" horiz-adv-x="1093" d="M953 1192Q953 1192 933 1174T885 1131T835 1091T809 1077Q718 1112 623 1122T477 1133Q371 1133 298 1063T224 887Q224 819 255 749T351 631T522 583Q583 583 609 586T635 590L643 531Q643
531 610 514T482 496Q361 496 262 536T103 656T44 854Q44 962 99 1044T254 1173T485 1220Q518 1220 575 1217T697 1210T820 1202T916 1195T953 1192ZM427 -236V-188Q562 -160 562 -130L564 1147Q564 1159 530 1145T427 1144V1192H1019V1144Q955 1131 920 1115T884
1085V-130Q884 -142 917 -158T1019 -188V-236H427ZM762 1131L687 1149V-130Q687 -140 700 -148T723 -159Q734 -156 748 -148T762 -130V1131Z" />
<glyph unicode="&#xb7;" glyph-name="middot" horiz-adv-x="312" d="M264 679Q264 621 229 582T140 543Q47 543 47 641Q47 700 84 739T171 778Q214 778 239 753T264 679Z" />
<glyph unicode="&#xb8;" glyph-name="cedilla" horiz-adv-x="443" d="M396 -217Q396 -287 321 -343T94 -420L69 -368Q163 -352 202 -321T242 -259Q242 -227 218 -214T141 -196Q141 -196 147 -179T172 -109T223 49L307 47L259 -95Q315 -106 355 -135T396 -217Z" />
<glyph unicode="&#xb9;" glyph-name="uni00B9" horiz-adv-x="647" d="M111 587V629Q213 640 246 654T280 680V1108Q280 1152 268 1164Q261 1171 227 1171T106 1155L90 1197Q127 1206 185 1223T299 1260T384 1293L410 1272V680Q410 669 438 655T566 629V587H111Z" />
<glyph unicode="&#xba;" glyph-name="ordmasculine" horiz-adv-x="544" d="M500 935Q500 870 465 811T374 714T258 676Q161 676 103 744T44 916Q44 982 76 1041T163 1137T286 1175Q380 1175 440 1107T500 935ZM55 554V627H489V554H55ZM401 918Q401 998 360 1057T259
1117Q204 1117 174 1064T143 931Q143 851 186 792T285 732Q337 732 369 785T401 918Z" />
<glyph unicode="&#xbb;" glyph-name="guillemotright" horiz-adv-x="911" d="M149 2L104 34L317 412L105 785L149 817L497 446Q499 429 499 412T499 377L149 2ZM507 2L463 34L675 412L464 785L507 817L856 446Q858 429 858 412T858 377L507 2Z" />
<glyph unicode="&#xbc;" glyph-name="onequarter" horiz-adv-x="1147" d="M304 3Q282 -7 258 -14T207 -28L184 0L930 1138Q948 1146 975 1155T1022 1168L1046 1142L304 3ZM1076 200Q1065 186 1054 174T1031 154H1002V57Q1002 50 1014 44T1069 29V0H798V29Q867
39 885 46T904 61V154H646L627 170L887 532Q910 540 937 549T982 566L1002 549V215H1062L1076 200ZM904 459L721 215H904V459ZM91 603V637Q174 645 200 656T227 677V1020Q227 1057 218 1064Q211 1070 184 1071T87 1058L75 1091Q104 1098 150 1112T242 1142T310
1168L331 1151V677Q331 668 354 657T456 637V603H91Z" />
<glyph unicode="&#xbd;" glyph-name="onehalf" horiz-adv-x="1147" d="M297 3Q275 -7 251 -14T201 -28L177 0L923 1138Q941 1146 968 1155T1016 1168L1039 1142L297 3ZM91 603V637Q174 645 200 656T227 677V1020Q227 1057 218 1064Q211 1070 184 1071T87 1058L75
1091Q104 1098 150 1112T242 1142T310 1168L331 1151V677Q331 668 354 657T456 637V603H91ZM1065 0H673L658 33Q783 159 847 230T935 343T959 419Q959 460 938 485T866 510Q826 510 803 483T781 422Q742 403 687 398L672 416Q672 448 704 481T789 538T902 561Q975
561 1020 530T1065 436Q1065 396 1039 353T950 243T778 67H983Q1007 67 1018 86T1033 125T1036 145L1073 139L1065 0Z" />
<glyph unicode="&#xbe;" glyph-name="threequarters" horiz-adv-x="1147" d="M296 3Q274 -7 250 -14T200 -28L176 0L922 1138Q940 1146 967 1155T1015 1168L1038 1142L296 3ZM492 777Q492 700 431 645T266 589Q220 589 169 607T70 664L88 699Q137 668 174 657T252
646Q310 646 346 675T382 762Q382 829 342 855T259 881Q244 881 241 881T221 877L214 914Q306 936 329 969T352 1030Q352 1062 334 1087T269 1112Q232 1112 213 1093T201 1043Q182 1034 155 1029T103 1021L88 1040Q88 1065 117 1094T194 1143T299 1164Q384 1164
422 1124T461 1038Q461 1004 432 970T351 920Q412 914 452 873T492 777ZM1076 200Q1065 186 1054 174T1031 154H1002V57Q1002 50 1014 44T1069 29V0H798V29Q867 39 885 46T904 61V154H646L627 170L887 532Q910 540 937 549T982 566L1002 549V215H1062L1076 200ZM904
459L721 215H904V459Z" />
<glyph unicode="&#xbf;" glyph-name="questiondown" horiz-adv-x="849" d="M569 797Q569 730 527 685T427 640Q323 640 323 753Q323 821 364 864T463 908Q569 908 569 797ZM403 496Q431 521 479 535L505 514L510 405Q510 401 510 397T510 388Q510 309 471 234T381
86T291 -55T252 -190Q252 -306 301 -370T441 -434Q504 -434 551 -380T599 -252Q599 -224 586 -195Q618 -178 662 -168T748 -153L775 -184Q777 -191 777 -201T777 -219Q777 -307 720 -377T571 -488T370 -529Q226 -529 149 -446T72 -233Q71 -147 102 -81T180 41T275
152T357 268T397 405L403 496Z" />
<glyph unicode="&#xc0;" glyph-name="Agrave" horiz-adv-x="1181" d="M367 426L265 115Q255 85 290 72T403 49V0H0V49Q65 61 102 73T149 115L499 1187Q527 1216 566 1237T637 1272L1038 115Q1047 88 1073 73T1161 49V0H739V49Q813 54 842 68T860 115L753 426H367ZM721
521L556 1005L398 521H721ZM753 1368Q740 1350 730 1338T705 1318L248 1555L256 1603Q266 1613 292 1628T347 1659T389 1682L753 1368Z" />
<glyph unicode="&#xc1;" glyph-name="Aacute" horiz-adv-x="1181" d="M367 426L265 115Q255 85 290 72T403 49V0H0V49Q65 61 102 73T149 115L499 1187Q527 1216 566 1237T637 1272L1038 115Q1047 88 1073 73T1161 49V0H739V49Q813 54 842 68T860 115L753 426H367ZM721
521L556 1005L398 521H721ZM451 1319Q435 1326 425 1339T402 1368L768 1680Q782 1673 809 1658T864 1626T901 1600L909 1552L451 1319Z" />
<glyph unicode="&#xc2;" glyph-name="Acircumflex" horiz-adv-x="1181" d="M367 426L265 115Q255 85 290 72T403 49V0H0V49Q65 61 102 73T149 115L499 1187Q527 1216 566 1237T637 1272L1038 115Q1047 88 1073 73T1161 49V0H739V49Q813 54 842 68T860 115L753
426H367ZM721 521L556 1005L398 521H721ZM888 1368Q877 1350 869 1338T843 1319L580 1510L319 1319Q303 1326 294 1338T270 1368L526 1672H636L888 1368Z" />
<glyph unicode="&#xc3;" glyph-name="Atilde" horiz-adv-x="1181" d="M367 426L265 115Q255 85 290 72T403 49V0H0V49Q65 61 102 73T149 115L499 1187Q527 1216 566 1237T637 1272L1038 115Q1047 88 1073 73T1161 49V0H739V49Q813 54 842 68T860 115L753 426H367ZM721
521L556 1005L398 521H721ZM920 1577Q898 1525 863 1472T782 1382T685 1346Q638 1346 596 1373T515 1426T435 1453Q395 1453 364 1422T298 1337L242 1358Q264 1411 299 1464T379 1554T476 1591Q527 1591 571 1565T653 1511T724 1484Q796 1484 862 1601L920 1577Z"
/>
<glyph unicode="&#xc4;" glyph-name="Adieresis" horiz-adv-x="1181" d="M367 426L265 115Q255 85 290 72T403 49V0H0V49Q65 61 102 73T149 115L499 1187Q527 1216 566 1237T637 1272L1038 115Q1047 88 1073 73T1161 49V0H739V49Q813 54 842 68T860 115L753 426H367ZM721
521L556 1005L398 521H721ZM492 1491Q492 1432 457 1390T371 1348Q282 1348 282 1447Q282 1506 317 1547T402 1589Q492 1589 492 1491ZM880 1491Q880 1432 845 1390T758 1348Q669 1348 669 1447Q669 1506 705 1547T790 1589Q880 1589 880 1491Z" />
<glyph unicode="&#xc5;" glyph-name="Aring" horiz-adv-x="1181" d="M367 426L265 115Q255 85 290 72T403 49V0H0V49Q65 61 102 73T149 115L499 1187Q527 1216 566 1237T637 1272L1038 115Q1047 88 1073 73T1161 49V0H739V49Q813 54 842 68T860 115L753 426H367ZM721
521L556 1005L398 521H721ZM765 1555Q765 1489 733 1437T652 1354T552 1323Q485 1323 442 1368T398 1478Q398 1545 429 1598T510 1681T611 1712Q677 1712 720 1666T765 1555ZM668 1516Q668 1562 647 1594T591 1627Q552 1627 524 1596T496 1518Q496 1474 517 1441T572
1408Q610 1408 639 1436T668 1516Z" />
<glyph unicode="&#xc6;" glyph-name="AE" horiz-adv-x="1538" d="M1485 251Q1477 168 1465 99T1445 0H601V49Q735 77 735 108V622H482L278 115Q266 87 293 73T397 49V0H0V49Q63 60 99 73T148 115L536 1087Q550 1119 504 1134T364 1168V1217H870H1030H1390L1421
1191Q1419 1158 1413 1113T1399 1027T1382 960H1331Q1327 1049 1309 1085T1253 1122H911V710H1296L1324 681Q1308 654 1282 619T1236 569Q1184 622 1065 622H911V156Q911 128 947 112T1109 95H1223Q1282 95 1319 107T1382 157T1435 270L1485 251ZM735 1101Q735
1122 707 1120T665 1085L517 710H735V1101Z" />
<glyph unicode="&#xc7;" glyph-name="Ccedilla" horiz-adv-x="1060" d="M986 204Q864 74 758 23T549 -29Q429 -29 318 42T135 246T63 566Q63 772 143 925T356 1162T649 1246Q752 1246 835 1218T967 1150Q975 1144 958 1115T917 1055T878 1008L837 1015Q789 1071
723 1102T573 1134Q524 1134 466 1107T356 1019T270 855T236 602Q236 433 296 321T445 154T624 99Q675 99 759 132T946 253Q957 248 970 230T986 204ZM732 -221Q732 -293 656 -350T425 -429L400 -376Q495 -360 535 -328T576 -265Q576 -232 552 -219T473 -200Q473
-200 480 -183T505 -111T557 50L643 48L593 -97Q649 -108 690 -137T732 -221Z" />
<glyph unicode="&#xc8;" glyph-name="Egrave" horiz-adv-x="985" d="M868 1191Q866 1158 860 1113T845 1027T829 960H778Q774 1049 755 1085T700 1122H308L336 1217H835L868 1191ZM770 681Q754 654 729 620T682 570Q653 599 613 611T493 623H295L316 710H743L770
681ZM930 251Q923 168 911 99T891 0H46V49Q111 63 146 79T182 108V1108Q182 1119 149 1137T46 1168V1217H497V1168Q433 1161 396 1152T358 1129V156Q358 138 372 124T427 103T553 95H668Q727 95 764 107T827 157T881 270L930 251ZM661 1368Q648 1350 638 1338T612
1318L156 1555L163 1603Q173 1613 199 1628T254 1659T296 1682L661 1368Z" />
<glyph unicode="&#xc9;" glyph-name="Eacute" horiz-adv-x="985" d="M868 1191Q866 1158 860 1113T845 1027T829 960H778Q774 1049 755 1085T700 1122H308L336 1217H835L868 1191ZM770 681Q754 654 729 620T682 570Q653 599 613 611T493 623H295L316 710H743L770
681ZM930 251Q923 168 911 99T891 0H46V49Q111 63 146 79T182 108V1108Q182 1119 149 1137T46 1168V1217H497V1168Q433 1161 396 1152T358 1129V156Q358 138 372 124T427 103T553 95H668Q727 95 764 107T827 157T881 270L930 251ZM358 1319Q342 1326 332 1339T309
1368L675 1680Q689 1673 716 1658T771 1626T808 1600L817 1552L358 1319Z" />
<glyph unicode="&#xca;" glyph-name="Ecircumflex" horiz-adv-x="985" d="M868 1191Q866 1158 860 1113T845 1027T829 960H778Q774 1049 755 1085T700 1122H308L336 1217H835L868 1191ZM770 681Q754 654 729 620T682 570Q653 599 613 611T493 623H295L316 710H743L770
681ZM930 251Q923 168 911 99T891 0H46V49Q111 63 146 79T182 108V1108Q182 1119 149 1137T46 1168V1217H497V1168Q433 1161 396 1152T358 1129V156Q358 138 372 124T427 103T553 95H668Q727 95 764 107T827 157T881 270L930 251ZM796 1368Q784 1350 776 1338T751
1319L487 1510L226 1319Q210 1326 201 1338T178 1368L434 1672H543L796 1368Z" />
<glyph unicode="&#xcb;" glyph-name="Edieresis" horiz-adv-x="985" d="M868 1191Q866 1158 860 1113T845 1027T829 960H778Q774 1049 755 1085T700 1122H308L336 1217H835L868 1191ZM770 681Q754 654 729 620T682 570Q653 599 613 611T493 623H295L316 710H743L770
681ZM930 251Q923 168 911 99T891 0H46V49Q111 63 146 79T182 108V1108Q182 1119 149 1137T46 1168V1217H497V1168Q433 1161 396 1152T358 1129V156Q358 138 372 124T427 103T553 95H668Q727 95 764 107T827 157T881 270L930 251ZM399 1491Q399 1432 365 1390T278
1348Q189 1348 189 1447Q189 1506 224 1547T309 1589Q399 1589 399 1491ZM787 1491Q787 1432 752 1390T666 1348Q577 1348 577 1447Q577 1506 612 1547T697 1589Q787 1589 787 1491Z" />
<glyph unicode="&#xcc;" glyph-name="Igrave" horiz-adv-x="597" d="M65 0V49Q130 63 166 79T202 108V1108Q202 1119 168 1137T65 1168V1217H514V1168Q450 1155 414 1139T377 1108V108Q377 97 411 80T514 49V0H65ZM462 1368Q449 1350 439 1338T414 1318L-43 1555L-35
1603Q-25 1613 1 1628T56 1659T97 1682L462 1368Z" />
<glyph unicode="&#xcd;" glyph-name="Iacute" horiz-adv-x="597" d="M65 0V49Q130 63 166 79T202 108V1108Q202 1119 168 1137T65 1168V1217H514V1168Q450 1155 414 1139T377 1108V108Q377 97 411 80T514 49V0H65ZM159 1319Q143 1326 133 1339T111 1368L477 1680Q490
1673 518 1658T572 1626T609 1600L618 1552L159 1319Z" />
<glyph unicode="&#xce;" glyph-name="Icircumflex" horiz-adv-x="597" d="M65 0V49Q130 63 166 79T202 108V1108Q202 1119 168 1137T65 1168V1217H514V1168Q450 1155 414 1139T377 1108V108Q377 97 411 80T514 49V0H65ZM597 1368Q586 1350 578 1338T552 1319L288
1510L28 1319Q12 1326 3 1338T-21 1368L235 1672H345L597 1368Z" />
<glyph unicode="&#xcf;" glyph-name="Idieresis" horiz-adv-x="597" d="M65 0V49Q130 63 166 79T202 108V1108Q202 1119 168 1137T65 1168V1217H514V1168Q450 1155 414 1139T377 1108V108Q377 97 411 80T514 49V0H65ZM201 1491Q201 1432 166 1390T79 1348Q-10
1348 -10 1447Q-10 1506 26 1547T111 1589Q201 1589 201 1491ZM588 1491Q588 1432 554 1390T467 1348Q378 1348 378 1447Q378 1506 414 1547T499 1589Q588 1589 588 1491Z" />
<glyph unicode="&#xd0;" glyph-name="Eth" horiz-adv-x="1182" d="M598 594H47L26 618Q31 633 37 653T50 689H601L625 667L598 594ZM46 0V49Q111 63 146 79T182 108V1141Q145 1136 111 1131T46 1121L36 1188Q94 1204 175 1217T345 1238T510 1246Q783 1246 940
1090T1097 653Q1097 472 1046 347T911 146T733 35T549 0H487Q413 0 355 0T233 0T78 0H46ZM524 87Q587 87 654 118T780 215T874 379T910 615Q910 872 790 1015T446 1159Q402 1159 358 1156V153Q358 110 411 99T524 87Z" />
<glyph unicode="&#xd1;" glyph-name="Ntilde" horiz-adv-x="1276" d="M1232 1168Q1163 1158 1129 1140T1095 1108V31L973 69V1108Q973 1119 944 1138T837 1168V1217H1232V1168ZM1095 -29Q1037 -22 1002 -5T951 34L227 1049Q188 1105 142 1132T46 1168V1217H265Q294
1217 307 1205T357 1142L979 273Q993 255 1020 219T1071 152T1095 122V-29ZM46 0V49Q116 58 149 76T182 108V1148L305 1179V108Q305 97 336 79T441 49V0H46ZM978 1577Q956 1525 921 1472T840 1382T743 1346Q696 1346 654 1373T573 1426T493 1453Q453 1453 422 1422T356
1337L300 1358Q323 1411 357 1464T437 1554T534 1591Q585 1591 629 1565T711 1511T782 1484Q855 1484 921 1601L978 1577Z" />
<glyph unicode="&#xd2;" glyph-name="Ograve" horiz-adv-x="1185" d="M557 -29Q440 -29 349 21T194 159T98 358T65 591Q65 723 106 841T222 1050T396 1193T612 1246Q732 1246 824 1194T978 1054T1072 854T1104 625Q1104 494 1061 376T941 167T767 24T557 -29ZM588
91Q738 91 834 221T931 608Q931 741 887 860T764 1055T579 1131Q418 1131 328 993T238 619Q238 474 286 355T413 163T588 91ZM767 1368Q754 1350 744 1338T718 1318L262 1555L269 1603Q279 1613 305 1628T360 1659T402 1682L767 1368Z" />
<glyph unicode="&#xd3;" glyph-name="Oacute" horiz-adv-x="1185" d="M557 -29Q440 -29 349 21T194 159T98 358T65 591Q65 723 106 841T222 1050T396 1193T612 1246Q732 1246 824 1194T978 1054T1072 854T1104 625Q1104 494 1061 376T941 167T767 24T557 -29ZM588
91Q738 91 834 221T931 608Q931 741 887 860T764 1055T579 1131Q418 1131 328 993T238 619Q238 474 286 355T413 163T588 91ZM464 1319Q448 1326 438 1339T415 1368L781 1680Q795 1673 822 1658T877 1626T914 1600L923 1552L464 1319Z" />
<glyph unicode="&#xd4;" glyph-name="Ocircumflex" horiz-adv-x="1185" d="M557 -29Q440 -29 349 21T194 159T98 358T65 591Q65 723 106 841T222 1050T396 1193T612 1246Q732 1246 824 1194T978 1054T1072 854T1104 625Q1104 494 1061 376T941 167T767 24T557
-29ZM588 91Q738 91 834 221T931 608Q931 741 887 860T764 1055T579 1131Q418 1131 328 993T238 619Q238 474 286 355T413 163T588 91ZM902 1368Q890 1350 882 1338T857 1319L593 1510L332 1319Q316 1326 307 1338T284 1368L540 1672H649L902 1368Z" />
<glyph unicode="&#xd5;" glyph-name="Otilde" horiz-adv-x="1185" d="M557 -29Q440 -29 349 21T194 159T98 358T65 591Q65 723 106 841T222 1050T396 1193T612 1246Q732 1246 824 1194T978 1054T1072 854T1104 625Q1104 494 1061 376T941 167T767 24T557 -29ZM588
91Q738 91 834 221T931 608Q931 741 887 860T764 1055T579 1131Q418 1131 328 993T238 619Q238 474 286 355T413 163T588 91ZM933 1577Q911 1525 876 1472T795 1382T698 1346Q652 1346 610 1373T528 1426T448 1453Q408 1453 377 1422T311 1337L255 1358Q278 1411
312 1464T392 1554T489 1591Q540 1591 584 1565T666 1511T737 1484Q810 1484 876 1601L933 1577Z" />
<glyph unicode="&#xd6;" glyph-name="Odieresis" horiz-adv-x="1185" d="M557 -29Q440 -29 349 21T194 159T98 358T65 591Q65 723 106 841T222 1050T396 1193T612 1246Q732 1246 824 1194T978 1054T1072 854T1104 625Q1104 494 1061 376T941 167T767 24T557 -29ZM588
91Q738 91 834 221T931 608Q931 741 887 860T764 1055T579 1131Q418 1131 328 993T238 619Q238 474 286 355T413 163T588 91ZM505 1491Q505 1432 471 1390T384 1348Q295 1348 295 1447Q295 1506 330 1547T415 1589Q505 1589 505 1491ZM893 1491Q893 1432 858 1390T772
1348Q683 1348 683 1447Q683 1506 718 1547T803 1589Q893 1589 893 1491Z" />
<glyph unicode="&#xd7;" glyph-name="multiply" horiz-adv-x="708" d="M637 287V255Q618 247 589 237T543 222L71 694L70 727Q89 735 116 745T165 760L637 287ZM631 727V694L164 222Q146 226 118 236T69 255V287L536 760Q556 755 584 745T631 727Z" />
<glyph unicode="&#xd8;" glyph-name="Oslash" horiz-adv-x="1185" d="M1102 625Q1102 494 1059 376T940 167T765 24T555 -29Q438 -29 347 21T193 159T96 358T63 591Q63 723 104 841T220 1050T394 1193T610 1246Q730 1246 822 1194T976 1054T1070 854T1102 625ZM929
608Q929 741 885 860T762 1055T577 1131Q416 1131 326 993T236 619Q236 474 284 355T411 163T586 91Q736 91 832 221T929 608ZM229 -2Q212 -17 167 -31T97 -51L70 -18L937 1221Q963 1237 1000 1249T1067 1268L1094 1236L229 -2Z" />
<glyph unicode="&#xd9;" glyph-name="Ugrave" horiz-adv-x="1286" d="M1227 1168Q1163 1155 1127 1139T1091 1108V506Q1091 253 969 112T640 -29Q509 -29 405 20T242 170T182 429V1108Q182 1119 149 1137T46 1168V1217H495V1168Q431 1155 395 1139T358 1108V481Q358
296 439 193T683 90Q774 90 834 145T924 287T955 470V1108Q955 1119 921 1137T818 1168V1217H1227V1168ZM823 1368Q810 1350 800 1338T775 1318L318 1555L326 1603Q336 1613 362 1628T417 1659T458 1682L823 1368Z" />
<glyph unicode="&#xda;" glyph-name="Uacute" horiz-adv-x="1286" d="M1227 1168Q1163 1155 1127 1139T1091 1108V506Q1091 253 969 112T640 -29Q509 -29 405 20T242 170T182 429V1108Q182 1119 149 1137T46 1168V1217H495V1168Q431 1155 395 1139T358 1108V481Q358
296 439 193T683 90Q774 90 834 145T924 287T955 470V1108Q955 1119 921 1137T818 1168V1217H1227V1168ZM520 1319Q504 1326 494 1339T472 1368L838 1680Q851 1673 879 1658T933 1626T970 1600L979 1552L520 1319Z" />
<glyph unicode="&#xdb;" glyph-name="Ucircumflex" horiz-adv-x="1286" d="M1227 1168Q1163 1155 1127 1139T1091 1108V506Q1091 253 969 112T640 -29Q509 -29 405 20T242 170T182 429V1108Q182 1119 149 1137T46 1168V1217H495V1168Q431 1155 395 1139T358 1108V481Q358
296 439 193T683 90Q774 90 834 145T924 287T955 470V1108Q955 1119 921 1137T818 1168V1217H1227V1168ZM958 1368Q947 1350 939 1338T913 1319L649 1510L389 1319Q373 1326 364 1338T340 1368L596 1672H706L958 1368Z" />
<glyph unicode="&#xdc;" glyph-name="Udieresis" horiz-adv-x="1286" d="M1227 1168Q1163 1155 1127 1139T1091 1108V506Q1091 253 969 112T640 -29Q509 -29 405 20T242 170T182 429V1108Q182 1119 149 1137T46 1168V1217H495V1168Q431 1155 395 1139T358 1108V481Q358
296 439 193T683 90Q774 90 834 145T924 287T955 470V1108Q955 1119 921 1137T818 1168V1217H1227V1168ZM562 1491Q562 1432 527 1390T440 1348Q351 1348 351 1447Q351 1506 387 1547T472 1589Q562 1589 562 1491ZM949 1491Q949 1432 915 1390T828 1348Q739 1348
739 1447Q739 1506 775 1547T860 1589Q949 1589 949 1491Z" />
<glyph unicode="&#xdd;" glyph-name="Yacute" horiz-adv-x="1171" d="M1135 1168Q1070 1155 1036 1142T987 1104L645 470H515Q481 551 435 641T339 818T242 980T159 1104Q141 1125 113 1140T4 1155L0 1205Q56 1213 118 1220T221 1227Q270 1227 301 1187Q349 1125
403 1036T511 849T609 657L857 1104Q871 1130 848 1144T751 1168V1217H1135V1168ZM340 0V49Q427 67 461 86T495 119V615H670V119Q670 106 704 87T827 49V0H340ZM453 1319Q437 1326 427 1339T404 1368L770 1680Q783 1673 811 1658T865 1626T902 1600L911 1552L453
1319Z" />
<glyph unicode="&#xde;" glyph-name="Thorn" horiz-adv-x="1045" d="M965 645Q965 545 926 472T826 350T696 278T570 254Q477 254 414 285L391 362Q430 344 465 339T534 334Q592 334 651 364T751 454T792 606Q792 709 746 773T623 869T448 900Q397 900 344 897T238
888L226 965Q283 976 348 981T502 987Q712 987 838 900T965 645ZM45 0V49Q110 63 146 79T182 108V1108Q182 1119 148 1137T45 1168V1217H523V1168Q426 1152 392 1137T358 1108V108Q358 97 391 82T523 49V0H45Z" />
<glyph unicode="&#xdf;" glyph-name="germandbls" horiz-adv-x="1120" d="M1044 268Q1044 192 1010 125T902 15T713 -28Q674 -28 619 -17T519 12T464 44Q459 51 458 84T457 160T463 236T475 281L522 269Q538 166 607 119T748 72Q813 72 856 107T900 203Q900 267
869 310T790 385T687 443T584 503T504 579T473 690Q473 765 504 808T582 876T674 923T751 976T783 1061Q783 1129 758 1193T680 1300T546 1342Q488 1342 442 1311T370 1197T344 957V0H52V48Q115 59 148 76T181 104V905Q181 1057 210 1147T284 1289T378 1379Q429
1419 495 1442T631 1466Q742 1466 812 1411T914 1277T947 1126Q947 1033 915 979T834 895T738 845T658 799T625 728Q625 678 667 645T772 583T896 516T1001 420T1044 268Z" />
<glyph unicode="&#xe0;" glyph-name="agrave" horiz-adv-x="905" d="M892 85Q813 30 753 1T664 -28Q630 -28 608 21T586 155V660Q586 723 555 765T438 806Q382 805 336 771T294 679Q295 670 272 659T216 638T154 623T113 620L98 660Q127 727 195 783T351 873T525
908Q635 908 692 851T749 696V184Q749 110 786 110Q800 110 819 114T876 135L892 85ZM595 458Q495 442 439 426T353 393T304 356Q280 331 265 299T249 224Q249 152 285 129T347 106Q399 106 460 134T595 229L603 149Q515 54 428 13T277 -28Q230 -28 183 -7T105
61T73 180Q73 250 98 297T157 379Q188 410 232 437T361 488T595 534V458ZM571 1022Q547 999 511 989L173 1345L196 1388Q208 1391 239 1397T304 1408T352 1414L571 1022Z" />
<glyph unicode="&#xe1;" glyph-name="aacute" horiz-adv-x="905" d="M892 85Q813 30 753 1T664 -28Q630 -28 608 21T586 155V660Q586 723 555 765T438 806Q382 805 336 771T294 679Q295 670 272 659T216 638T154 623T113 620L98 660Q127 727 195 783T351 873T525
908Q635 908 692 851T749 696V184Q749 110 786 110Q800 110 819 114T876 135L892 85ZM595 458Q495 442 439 426T353 393T304 356Q280 331 265 299T249 224Q249 152 285 129T347 106Q399 106 460 134T595 229L603 149Q515 54 428 13T277 -28Q230 -28 183 -7T105
61T73 180Q73 250 98 297T157 379Q188 410 232 437T361 488T595 534V458ZM416 989Q400 991 383 1000T355 1019L569 1414Q584 1413 615 1409T679 1399T725 1389L749 1348L416 989Z" />
<glyph unicode="&#xe2;" glyph-name="acircumflex" horiz-adv-x="905" d="M892 85Q813 30 753 1T664 -28Q630 -28 608 21T586 155V660Q586 723 555 765T438 806Q382 805 336 771T294 679Q295 670 272 659T216 638T154 623T113 620L98 660Q127 727 195 783T351
873T525 908Q635 908 692 851T749 696V184Q749 110 786 110Q800 110 819 114T876 135L892 85ZM595 458Q495 442 439 426T353 393T304 356Q280 331 265 299T249 224Q249 152 285 129T347 106Q399 106 460 134T595 229L603 149Q515 54 428 13T277 -28Q230 -28 183
-7T105 61T73 180Q73 250 98 297T157 379Q188 410 232 437T361 488T595 534V458ZM762 1037Q751 1019 743 1008T718 989L459 1231L203 989Q188 996 179 1007T156 1037L407 1397H515L762 1037Z" />
<glyph unicode="&#xe3;" glyph-name="atilde" horiz-adv-x="905" d="M892 85Q813 30 753 1T664 -28Q630 -28 608 21T586 155V660Q586 723 555 765T438 806Q382 805 336 771T294 679Q295 670 272 659T216 638T154 623T113 620L98 660Q127 727 195 783T351 873T525
908Q635 908 692 851T749 696V184Q749 110 786 110Q800 110 819 114T876 135L892 85ZM595 458Q495 442 439 426T353 393T304 356Q280 331 265 299T249 224Q249 152 285 129T347 106Q399 106 460 134T595 229L603 149Q515 54 428 13T277 -28Q230 -28 183 -7T105
61T73 180Q73 250 98 297T157 379Q188 410 232 437T361 488T595 534V458ZM791 1275Q769 1224 735 1173T656 1086T559 1051Q515 1051 476 1077T400 1130T326 1156Q290 1156 260 1125T194 1041L137 1062Q159 1114 193 1166T271 1253T368 1288Q417 1288 457 1262T533
1209T599 1182Q634 1182 668 1213T734 1300L791 1275Z" />
<glyph unicode="&#xe4;" glyph-name="adieresis" horiz-adv-x="905" d="M892 85Q813 30 753 1T664 -28Q630 -28 608 21T586 155V660Q586 723 555 765T438 806Q382 805 336 771T294 679Q295 670 272 659T216 638T154 623T113 620L98 660Q127 727 195 783T351 873T525
908Q635 908 692 851T749 696V184Q749 110 786 110Q800 110 819 114T876 135L892 85ZM595 458Q495 442 439 426T353 393T304 356Q280 331 265 299T249 224Q249 152 285 129T347 106Q399 106 460 134T595 229L603 149Q515 54 428 13T277 -28Q230 -28 183 -7T105
61T73 180Q73 250 98 297T157 379Q188 410 232 437T361 488T595 534V458ZM373 1195Q373 1137 339 1096T255 1055Q167 1055 167 1152Q167 1211 202 1251T285 1291Q373 1291 373 1195ZM753 1195Q753 1137 719 1096T635 1055Q547 1055 547 1152Q547 1211 582 1251T665
1291Q753 1291 753 1195Z" />
<glyph unicode="&#xe5;" glyph-name="aring" horiz-adv-x="905" d="M892 85Q813 30 753 1T664 -28Q630 -28 608 21T586 155V660Q586 723 555 765T438 806Q382 805 336 771T294 679Q295 670 272 659T216 638T154 623T113 620L98 660Q127 727 195 783T351 873T525
908Q635 908 692 851T749 696V184Q749 110 786 110Q800 110 819 114T876 135L892 85ZM595 458Q495 442 439 426T353 393T304 356Q280 331 265 299T249 224Q249 152 285 129T347 106Q399 106 460 134T595 229L603 149Q515 54 428 13T277 -28Q230 -28 183 -7T105
61T73 180Q73 250 98 297T157 379Q188 410 232 437T361 488T595 534V458ZM641 1220Q641 1156 610 1105T530 1023T432 993Q366 993 324 1037T281 1145Q281 1211 312 1262T391 1344T490 1374Q555 1374 597 1329T641 1220ZM545 1182Q545 1227 525 1258T470 1290Q432
1290 405 1260T377 1183Q377 1140 398 1109T452 1077Q489 1077 517 1104T545 1182Z" />
<glyph unicode="&#xe6;" glyph-name="ae" horiz-adv-x="1352" d="M277 -28Q232 -28 185 -8T106 58T73 180Q73 292 161 382T434 524Q463 532 504 537T588 545V624Q588 701 560 753T449 806Q412 806 369 784T302 726T293 643Q296 634 273 623T217 603T154 588T113
586L98 623Q110 684 158 736T271 826T402 886T516 908Q671 908 718 782Q779 853 850 880T976 908Q1089 908 1155 850T1250 703T1279 525Q1261 506 1230 488T1169 457H750Q749 444 749 430T748 401Q748 332 773 264T848 151T967 106Q1007 106 1043 114T1124 148T1233
229Q1245 222 1256 207T1272 184Q1197 96 1137 51T1021 -11T902 -28Q820 -28 744 23T624 169Q542 70 443 21T277 -28ZM347 106Q396 106 465 137T601 236Q588 289 588 361V453Q560 451 533 448T482 439Q377 416 312 361T247 224Q247 154 284 130T347 106ZM757 549H1073Q1109
549 1109 583Q1109 676 1070 743T948 810Q920 810 882 791T808 716T757 549Z" />
<glyph unicode="&#xe7;" glyph-name="ccedilla" horiz-adv-x="851" d="M802 180Q721 85 662 41T552 -16T441 -28Q347 -28 263 25T126 179T73 420Q73 556 137 666T311 842T559 908Q621 908 690 888T790 833Q793 818 783 782T758 709T731 654L689 663Q670 712 620
756T478 800Q384 800 310 714T236 449Q236 344 274 267T376 147T513 104Q548 104 579 110T652 142T762 224L802 180ZM633 -217Q633 -287 558 -343T331 -420L307 -368Q400 -352 439 -321T479 -259Q479 -227 455 -214T378 -196Q378 -196 385 -179T409 -109T460 49L545
47L496 -95Q552 -106 592 -135T633 -217Z" />
<glyph unicode="&#xe8;" glyph-name="egrave" horiz-adv-x="901" d="M828 525Q812 506 780 488T718 458H173L174 549H620Q642 549 649 556T656 583Q656 618 642 670T587 764T470 805Q361 805 300 710T238 468Q238 370 269 287T361 154T504 104Q544 104 581 111T666
146T784 229Q796 222 807 207T823 184Q739 93 678 48T563 -13T441 -28Q343 -28 259 26T124 180T73 412Q73 540 126 651T277 830Q321 861 382 884T499 908Q622 908 694 848T797 700T828 525ZM596 1022Q571 999 536 989L199 1345L221 1388Q234 1391 265 1397T329
1408T377 1414L596 1022Z" />
<glyph unicode="&#xe9;" glyph-name="eacute" horiz-adv-x="901" d="M828 525Q812 506 780 488T718 458H173L174 549H620Q642 549 649 556T656 583Q656 618 642 670T587 764T470 805Q361 805 300 710T238 468Q238 370 269 287T361 154T504 104Q544 104 581 111T666
146T784 229Q796 222 807 207T823 184Q739 93 678 48T563 -13T441 -28Q343 -28 259 26T124 180T73 412Q73 540 126 651T277 830Q321 861 382 884T499 908Q622 908 694 848T797 700T828 525ZM441 989Q425 991 409 1000T381 1019L594 1414Q609 1413 641 1409T705
1399T751 1389L774 1348L441 989Z" />
<glyph unicode="&#xea;" glyph-name="ecircumflex" horiz-adv-x="901" d="M828 525Q812 506 780 488T718 458H173L174 549H620Q642 549 649 556T656 583Q656 618 642 670T587 764T470 805Q361 805 300 710T238 468Q238 370 269 287T361 154T504 104Q544 104 581
111T666 146T784 229Q796 222 807 207T823 184Q739 93 678 48T563 -13T441 -28Q343 -28 259 26T124 180T73 412Q73 540 126 651T277 830Q321 861 382 884T499 908Q622 908 694 848T797 700T828 525ZM787 1037Q776 1019 768 1008T743 989L485 1231L229 989Q213 996
204 1007T181 1037L432 1397H540L787 1037Z" />
<glyph unicode="&#xeb;" glyph-name="edieresis" horiz-adv-x="901" d="M828 525Q812 506 780 488T718 458H173L174 549H620Q642 549 649 556T656 583Q656 618 642 670T587 764T470 805Q361 805 300 710T238 468Q238 370 269 287T361 154T504 104Q544 104 581
111T666 146T784 229Q796 222 807 207T823 184Q739 93 678 48T563 -13T441 -28Q343 -28 259 26T124 180T73 412Q73 540 126 651T277 830Q321 861 382 884T499 908Q622 908 694 848T797 700T828 525ZM398 1195Q398 1137 364 1096T280 1055Q192 1055 192 1152Q192
1211 227 1251T310 1291Q398 1291 398 1195ZM779 1195Q779 1137 745 1096T661 1055Q573 1055 573 1152Q573 1211 608 1251T691 1291Q779 1291 779 1195Z" />
<glyph unicode="&#xec;" glyph-name="igrave" horiz-adv-x="539" d="M66 0V48Q195 74 195 106V628Q195 693 191 725T159 770T66 789V834Q131 846 199 865T319 908H358V106Q358 95 388 78T487 48V0H66ZM387 1022Q362 999 327 989L-10 1345L12 1388Q25 1391 56 1397T120
1408T168 1414L387 1022Z" />
<glyph unicode="&#xed;" glyph-name="iacute" horiz-adv-x="539" d="M66 0V48Q195 74 195 106V628Q195 693 191 725T159 770T66 789V834Q131 846 199 865T319 908H358V106Q358 95 388 78T487 48V0H66ZM232 989Q215 991 199 1000T171 1019L384 1414Q399 1413 431
1409T495 1399T541 1389L564 1348L232 989Z" />
<glyph unicode="&#xee;" glyph-name="icircumflex" horiz-adv-x="539" d="M66 0V48Q195 74 195 106V628Q195 693 191 725T159 770T66 789V834Q131 846 199 865T319 908H358V106Q358 95 388 78T487 48V0H66ZM578 1037Q567 1019 559 1008T534 989L276 1231L20 989Q4
996 -5 1007T-28 1037L223 1397H331L578 1037Z" />
<glyph unicode="&#xef;" glyph-name="idieresis" horiz-adv-x="539" d="M66 0V48Q195 74 195 106V628Q195 693 191 725T159 770T66 789V834Q131 846 199 865T319 908H358V106Q358 95 388 78T487 48V0H66ZM189 1195Q189 1137 155 1096T71 1055Q-17 1055 -17 1152Q-17
1211 18 1251T101 1291Q189 1291 189 1195ZM570 1195Q570 1137 536 1096T452 1055Q364 1055 364 1152Q364 1211 399 1251T482 1291Q570 1291 570 1195Z" />
<glyph unicode="&#xf0;" glyph-name="eth" horiz-adv-x="966" d="M889 564Q889 400 846 287T736 104T598 3T472 -28Q348 -28 259 30T121 190T73 420Q73 514 105 601T194 758T323 867T476 908Q532 908 591 876T695 795Q671 884 628 957T521 1097L313 1007Q278 1011
265 1013T219 1025L210 1061L450 1166Q398 1209 337 1235T195 1250L188 1296L393 1370Q445 1335 493 1298T581 1223L770 1305Q814 1299 828 1296T868 1285L873 1250L650 1154Q778 1014 833 864T889 564ZM726 561Q703 632 657 685T557 768T451 798Q347 798 294 701T241
451Q241 352 279 267T372 131T482 79Q585 79 655 186T726 525Q726 527 726 543T726 561Z" />
<glyph unicode="&#xf1;" glyph-name="ntilde" horiz-adv-x="1077" d="M628 0V48Q757 82 757 106V587Q757 700 732 736T643 772Q589 772 512 721T344 542V106Q344 92 378 77T473 48V0H52V48Q114 65 147 77T181 106V667Q181 716 175 739T142 772T52 789V834Q122
845 180 863T295 908L330 873L340 664Q429 782 534 845T713 908Q794 908 857 857T920 692V106Q920 93 948 81T1050 48V0H628ZM881 1275Q859 1224 825 1173T746 1086T649 1051Q605 1051 566 1077T490 1130T416 1156Q380 1156 350 1125T284 1041L227 1062Q249 1114
283 1166T361 1253T458 1288Q507 1288 547 1262T623 1209T689 1182Q724 1182 758 1213T824 1300L881 1275Z" />
<glyph unicode="&#xf2;" glyph-name="ograve" horiz-adv-x="980" d="M907 459Q907 365 873 278T778 121T639 12T472 -28Q352 -28 262 30T123 190T73 420Q73 514 106 601T199 758T338 867T509 908Q630 908 719 850T857 690T907 459ZM738 427Q738 527 701 611T605
748T482 800Q392 800 340 754T265 627T243 447Q243 348 283 264T382 130T499 79Q626 79 682 173T738 427ZM619 1022Q596 999 560 989L222 1345L245 1388Q257 1391 288 1397T352 1408T400 1414L619 1022Z" />
<glyph unicode="&#xf3;" glyph-name="oacute" horiz-adv-x="980" d="M907 459Q907 365 873 278T778 121T639 12T472 -28Q352 -28 262 30T123 190T73 420Q73 514 106 601T199 758T338 867T509 908Q630 908 719 850T857 690T907 459ZM738 427Q738 527 701 611T605
748T482 800Q392 800 340 754T265 627T243 447Q243 348 283 264T382 130T499 79Q626 79 682 173T738 427ZM465 989Q448 991 432 1000T404 1019L618 1414Q633 1413 664 1409T728 1399T774 1389L798 1348L465 989Z" />
<glyph unicode="&#xf4;" glyph-name="ocircumflex" horiz-adv-x="980" d="M907 459Q907 365 873 278T778 121T639 12T472 -28Q352 -28 262 30T123 190T73 420Q73 514 106 601T199 758T338 867T509 908Q630 908 719 850T857 690T907 459ZM738 427Q738 527 701 611T605
748T482 800Q392 800 340 754T265 627T243 447Q243 348 283 264T382 130T499 79Q626 79 682 173T738 427ZM811 1037Q800 1019 792 1008T767 989L508 1231L252 989Q237 996 228 1007T204 1037L456 1397H563L811 1037Z" />
<glyph unicode="&#xf5;" glyph-name="otilde" horiz-adv-x="980" d="M907 459Q907 365 873 278T778 121T639 12T472 -28Q352 -28 262 30T123 190T73 420Q73 514 106 601T199 758T338 867T509 908Q630 908 719 850T857 690T907 459ZM738 427Q738 527 701 611T605
748T482 800Q392 800 340 754T265 627T243 447Q243 348 283 264T382 130T499 79Q626 79 682 173T738 427ZM840 1275Q818 1224 784 1173T705 1086T607 1051Q563 1051 524 1077T449 1130T375 1156Q339 1156 309 1125T243 1041L186 1062Q208 1114 242 1166T320 1253T417
1288Q466 1288 506 1262T582 1209T648 1182Q683 1182 717 1213T783 1300L840 1275Z" />
<glyph unicode="&#xf6;" glyph-name="odieresis" horiz-adv-x="980" d="M907 459Q907 365 873 278T778 121T639 12T472 -28Q352 -28 262 30T123 190T73 420Q73 514 106 601T199 758T338 867T509 908Q630 908 719 850T857 690T907 459ZM738 427Q738 527 701 611T605
748T482 800Q392 800 340 754T265 627T243 447Q243 348 283 264T382 130T499 79Q626 79 682 173T738 427ZM422 1195Q422 1137 388 1096T304 1055Q216 1055 216 1152Q216 1211 251 1251T334 1291Q422 1291 422 1195ZM802 1195Q802 1137 768 1096T684 1055Q596 1055
596 1152Q596 1211 631 1251T714 1291Q802 1291 802 1195Z" />
<glyph unicode="&#xf7;" glyph-name="divide" horiz-adv-x="715" d="M672 523Q668 504 658 478T640 436H70L44 459Q49 479 59 504T77 547H648L672 523ZM440 741Q440 696 413 663T347 630Q278 630 278 708Q278 755 305 787T371 819Q440 819 440 741ZM440 278Q440
232 413 200T347 167Q278 167 278 245Q278 291 305 322T371 354Q440 354 440 278Z" />
<glyph unicode="&#xf8;" glyph-name="oslash" horiz-adv-x="980" d="M907 459Q907 365 873 278T778 121T639 12T472 -28Q345 -28 251 38L234 16Q217 2 176 -20T109 -50L83 -20L177 106Q128 165 101 246T73 420Q73 514 106 601T199 758T338 867T509 908Q637 908
731 840L750 864Q775 880 809 901T872 930L902 899L805 772Q907 648 907 459ZM289 254L637 716Q603 754 563 777T482 800Q392 800 339 754T264 627T241 447Q241 395 254 345T289 254ZM499 79Q626 79 682 173T739 427Q739 535 693 624L347 165Q382 126 422 103T499
79Z" />
<glyph unicode="&#xf9;" glyph-name="ugrave" horiz-adv-x="1037" d="M1022 85Q954 40 889 6T800 -28Q767 -28 745 12T715 149Q599 36 522 4T384 -28Q326 -28 275 -5T191 82T158 264V667Q158 727 152 753T121 788T39 802V848Q113 856 169 869T292 908L321 869V318Q321
190 356 144T455 98Q510 98 572 131T715 248V667Q715 724 707 752T671 790T586 802V848Q660 856 726 873T848 908L878 869V248Q878 131 900 114Q911 106 936 110T1009 135L1022 85ZM631 1022Q607 999 571 989L233 1345L256 1388Q268 1391 299 1397T363 1408T411
1414L631 1022Z" />
<glyph unicode="&#xfa;" glyph-name="uacute" horiz-adv-x="1037" d="M1022 85Q954 40 889 6T800 -28Q767 -28 745 12T715 149Q599 36 522 4T384 -28Q326 -28 275 -5T191 82T158 264V667Q158 727 152 753T121 788T39 802V848Q113 856 169 869T292 908L321 869V318Q321
190 356 144T455 98Q510 98 572 131T715 248V667Q715 724 707 752T671 790T586 802V848Q660 856 726 873T848 908L878 869V248Q878 131 900 114Q911 106 936 110T1009 135L1022 85ZM476 989Q460 991 443 1000T415 1019L629 1414Q644 1413 675 1409T739 1399T785
1389L809 1348L476 989Z" />
<glyph unicode="&#xfb;" glyph-name="ucircumflex" horiz-adv-x="1037" d="M1022 85Q954 40 889 6T800 -28Q767 -28 745 12T715 149Q599 36 522 4T384 -28Q326 -28 275 -5T191 82T158 264V667Q158 727 152 753T121 788T39 802V848Q113 856 169 869T292 908L321
869V318Q321 190 356 144T455 98Q510 98 572 131T715 248V667Q715 724 707 752T671 790T586 802V848Q660 856 726 873T848 908L878 869V248Q878 131 900 114Q911 106 936 110T1009 135L1022 85ZM822 1037Q811 1019 803 1008T778 989L519 1231L263 989Q248 996 239
1007T216 1037L467 1397H575L822 1037Z" />
<glyph unicode="&#xfc;" glyph-name="udieresis" horiz-adv-x="1037" d="M1022 85Q954 40 889 6T800 -28Q767 -28 745 12T715 149Q599 36 522 4T384 -28Q326 -28 275 -5T191 82T158 264V667Q158 727 152 753T121 788T39 802V848Q113 856 169 869T292 908L321 869V318Q321
190 356 144T455 98Q510 98 572 131T715 248V667Q715 724 707 752T671 790T586 802V848Q660 856 726 873T848 908L878 869V248Q878 131 900 114Q911 106 936 110T1009 135L1022 85ZM433 1195Q433 1137 399 1096T315 1055Q227 1055 227 1152Q227 1211 262 1251T345
1291Q433 1291 433 1195ZM813 1195Q813 1137 779 1096T695 1055Q607 1055 607 1152Q607 1211 642 1251T725 1291Q813 1291 813 1195Z" />
<glyph unicode="&#xfd;" glyph-name="yacute" horiz-adv-x="957" d="M938 832Q882 819 864 808T835 768L522 -76Q444 -286 335 -378T125 -471Q53 -471 4 -453T-46 -417Q-46 -408 -25 -380T23 -321T71 -278Q116 -306 161 -308T242 -299Q277 -287 324 -228T405 -87L432
-22L123 767Q113 793 90 807T19 832V880H397V832Q327 822 306 811T297 767L517 199L725 767Q736 797 715 809T627 832V880H938V832ZM457 989Q441 991 424 1000T396 1019L610 1414Q625 1413 657 1409T721 1399T767 1389L790 1348L457 989Z" />
<glyph unicode="&#xfe;" glyph-name="thorn" horiz-adv-x="1035" d="M962 469Q962 384 930 297T843 136T717 17T567 -28Q532 -28 474 -6T344 71V-347Q344 -362 379 -377T503 -406V-454H52V-406Q114 -391 147 -377T181 -347V1219Q181 1276 171 1300T133 1332T52
1345V1391Q129 1405 188 1421T307 1466L344 1432V710Q442 818 526 863T664 908Q792 908 877 793T962 469ZM813 392Q813 576 745 677T588 779Q554 779 491 741T344 594V205Q495 96 608 96Q673 96 719 137T789 246T813 392Z" />
<glyph unicode="&#xff;" glyph-name="ydieresis" horiz-adv-x="957" d="M938 832Q882 819 864 808T835 768L522 -76Q444 -286 335 -378T125 -471Q53 -471 4 -453T-46 -417Q-46 -408 -25 -380T23 -321T71 -278Q116 -306 161 -308T242 -299Q277 -287 324 -228T405
-87L432 -22L123 767Q113 793 90 807T19 832V880H397V832Q327 822 306 811T297 767L517 199L725 767Q736 797 715 809T627 832V880H938V832ZM414 1195Q414 1137 380 1096T296 1055Q208 1055 208 1152Q208 1211 243 1251T326 1291Q414 1291 414 1195ZM795 1195Q795
1137 761 1096T677 1055Q589 1055 589 1152Q589 1211 624 1251T707 1291Q795 1291 795 1195Z" />
<glyph unicode="&#x2013;" glyph-name="endash" horiz-adv-x="961" d="M120 532H897L923 492Q896 464 874 446T814 408H61L31 444Q48 466 73 491T120 532Z" />
<glyph unicode="&#x2014;" glyph-name="emdash" horiz-adv-x="1569" d="M120 532H1505L1531 492Q1504 464 1482 446T1422 408H61L31 444Q48 466 73 491T120 532Z" />
<glyph unicode="&#x2018;" glyph-name="quoteleft" horiz-adv-x="456" d="M386 807Q361 784 328 759T259 710Q177 711 139 769T100 913Q100 957 120 1009T195 1113T354 1210L382 1186Q316 1139 282 1092T248 984Q248 916 279 875T366 836L386 807Z" />
<glyph unicode="&#x2019;" glyph-name="quoteright" horiz-adv-x="456" d="M70 1093Q95 1116 129 1142T197 1190Q279 1189 317 1131T356 987Q356 943 336 891T261 787T102 690L74 714Q140 761 174 808T208 916Q208 984 177 1025T90 1064L70 1093Z" />
<glyph unicode="&#x201a;" glyph-name="quotesinglbase" horiz-adv-x="459" d="M375 52Q375 -29 321 -123T175 -277L128 -241Q167 -197 187 -139T207 -38Q207 6 179 38T95 73L80 123Q92 138 137 159T231 196T303 212Q338 181 356 145T375 52Z" />
<glyph unicode="&#x201c;" glyph-name="quotedblleft" horiz-adv-x="796" d="M386 807Q361 784 328 759T259 710Q177 711 139 769T100 913Q100 957 120 1009T195 1113T354 1210L382 1186Q316 1139 282 1092T248 984Q248 916 279 875T366 836L386 807ZM726 807Q701
784 668 759T599 710Q517 711 479 769T440 913Q440 957 460 1009T535 1113T694 1210L722 1186Q656 1139 622 1092T588 984Q588 916 619 875T706 836L726 807Z" />
<glyph unicode="&#x201d;" glyph-name="quotedblright" horiz-adv-x="796" d="M409 1095Q434 1118 468 1144T536 1192Q618 1191 656 1133T695 989Q695 945 675 893T600 789T441 692L413 716Q479 763 513 810T547 918Q547 986 516 1027T429 1066L409 1095ZM70 1093Q95
1116 129 1142T197 1190Q279 1189 317 1131T356 987Q356 943 336 891T261 787T102 690L74 714Q140 761 174 808T208 916Q208 984 177 1025T90 1064L70 1093Z" />
<glyph unicode="&#x201e;" glyph-name="quotedblbase" horiz-adv-x="894" d="M788 52Q788 -29 734 -123T588 -277L541 -241Q580 -197 600 -139T620 -38Q620 6 592 38T508 73L493 123Q505 138 550 159T644 196T716 212Q751 181 769 145T788 52ZM375 52Q375 -29
321 -123T175 -277L128 -241Q167 -197 187 -139T207 -38Q207 6 179 38T95 73L80 123Q92 138 137 159T231 196T303 212Q338 181 356 145T375 52Z" />
<glyph unicode="&#x2022;" glyph-name="bullet" horiz-adv-x="537" d="M431 622Q431 529 381 471T250 413Q178 413 142 461T106 583Q106 675 158 733T288 792Q356 792 393 745T431 622Z" />
<glyph unicode="&#x2039;" glyph-name="guilsinglleft" horiz-adv-x="551" d="M404 2L53 377Q52 394 52 411T55 446L404 817L447 785L236 412L448 34L404 2Z" />
<glyph unicode="&#x203a;" glyph-name="guilsinglright" horiz-adv-x="551" d="M147 2L103 34L315 412L104 785L147 817L496 446Q498 429 498 412T498 377L147 2Z" />
</font>
</defs>
</svg>
