<?xml version="1.0" standalone="no"?>
<!DOCTYPE svg PUBLIC "-//W3C//DTD SVG 1.1//EN" "http://www.w3.org/Graphics/SVG/1.1/DTD/svg11.dtd">
<svg xmlns="http://www.w3.org/2000/svg">
<defs >
<font id="Yomogi" horiz-adv-x="964" ><font-face
    font-family="Yomogi"
    units-per-em="1000"
    panose-1="0 0 0 0 0 0 0 0 0 0"
    ascent="1160"
    descent="-288"
    alphabetic="0" />
<glyph unicode=" " glyph-name="space" horiz-adv-x="600" />
<glyph unicode="!" glyph-name="exclam" horiz-adv-x="500" d="M274 222Q265 197 242 199Q217 201 217 225L211 675Q212 688 219 693T240 700Q266 695 268 672L274 222ZM187 41Q171 98 214 126Q247 148 280 131Q293 126 301 118T314 99Q323 78 311 41Q291 1 243
3Q201 6 187 41Z" />
<glyph unicode="&quot;" glyph-name="quotedbl" horiz-adv-x="500" d="M276 572Q271 546 254 546Q236 546 231 572L218 795Q221 824 238 824Q255 824 263 801L276 572ZM109 578Q104 553 86 553Q67 553 64 580L53 788Q52 819 68 822Q86 823 96 801L109 578Z" />
<glyph unicode="#" glyph-name="numbersign" horiz-adv-x="500" d="M52 195Q33 196 31 217Q29 236 49 242H110L111 254L142 470L67 471Q47 478 48 496Q50 516 67 520L147 519L170 681Q181 707 195 704Q210 701 210 673L192 519L337 516L357 682Q359 711 378 709Q395
708 397 677L378 516L457 515Q478 511 478 491Q478 472 459 466L369 467L338 237L417 233Q436 229 436 210Q436 189 417 186L332 189L309 15Q301 -8 285 -8Q267 -7 269 24L288 192L144 195L118 37Q112 9 96 11Q79 13 78 44L103 193L52 195ZM329 467L182 470L151
244L298 239L329 467Z" />
<glyph unicode="$" glyph-name="dollar" horiz-adv-x="500" d="M278 660Q349 647 380 624Q395 613 410 600T438 573Q455 542 443 534Q432 525 406 539Q396 555 384 567T358 590Q333 609 279 615L278 388Q320 375 351 359T402 322Q443 284 443 223Q443 192 432
167T398 121Q352 81 276 71L274 4Q269 -19 255 -20Q238 -22 232 1L234 69Q174 77 132 96Q89 114 65 152Q42 190 45 249Q41 280 63 278Q86 276 87 249Q85 200 101 175Q115 148 149 133Q166 126 187 120T234 110L236 357Q172 369 123 407Q73 445 67 500Q61 553 104
602Q147 646 236 660V718Q241 739 258 739Q274 739 278 718V660ZM237 615Q166 612 137 576Q105 539 109 503Q112 466 150 442Q189 419 236 407L237 615ZM276 111Q342 116 372 149Q403 182 401 226Q399 268 366 296Q333 323 279 343L276 111Z" />
<glyph unicode="%" glyph-name="percent" horiz-adv-x="500" d="M138 42Q121 22 109 32Q97 41 103 64L362 677Q368 698 386 695Q401 690 400 665L138 42ZM130 423Q75 428 50 461Q22 493 22 540Q22 586 51 620Q77 653 127 655Q177 655 203 623Q231 592 233 546Q235
499 210 466Q185 431 130 423ZM133 465Q167 470 183 492Q191 503 195 516T198 545Q197 560 192 573T177 597Q157 617 127 616Q97 615 77 593Q59 572 59 541Q59 509 76 488Q94 466 132 465H133ZM376 79Q322 84 295 118Q267 153 268 199Q268 247 296 282Q322 317
371 319Q421 319 448 286Q478 252 479 203Q479 151 456 118Q430 83 376 79ZM378 122Q414 127 432 150Q449 175 446 205Q443 235 424 257Q405 278 371 278Q338 276 319 255Q300 230 300 200Q299 169 318 146Q338 124 378 122Z" />
<glyph unicode="&amp;" glyph-name="ampersand" horiz-adv-x="500" d="M346 178Q323 119 283 85Q243 50 184 45Q125 40 79 83Q31 124 27 187Q21 248 41 294Q51 317 62 336T87 372Q100 389 114 402T142 428Q81 480 69 532Q64 558 66 583T78 633Q98 682 140 696Q183
713 225 700Q268 686 290 642Q312 596 300 548Q288 502 260 470Q245 454 231 442T203 422L334 263Q345 301 343 336Q343 370 359 368Q375 365 380 340Q381 311 376 282T361 224L480 102Q494 72 485 60Q476 45 457 63L346 178ZM173 455Q191 467 205 478T229 503Q248
529 253 558Q258 589 246 615Q239 629 231 637T209 649Q196 653 183 652T155 646Q126 635 114 608Q101 581 110 544Q118 507 173 455ZM172 385Q136 360 116 335Q106 322 98 307T81 273Q65 239 70 192Q74 149 107 121Q139 94 183 98Q228 101 259 131Q290 159 310
215L172 385Z" />
<glyph unicode="&apos;" glyph-name="quotesingle" horiz-adv-x="500" d="M187 793Q227 744 205 673Q183 602 133 567Q83 534 72 552Q61 569 93 590Q123 610 138 635Q151 661 151 688Q107 667 78 678Q49 689 42 713Q33 737 42 762Q51 786 65 800Q73 807 85 811T114
818Q147 824 187 793Z" />
<glyph unicode="(" glyph-name="parenleft" horiz-adv-x="500" d="M331 767Q276 737 243 684T194 568T172 447Q165 365 180 282Q194 203 236 129T346 9Q363 -14 355 -23Q348 -33 316 -23Q242 32 197 108T135 275Q127 319 125 363T127 452Q133 516 152 584T208
709T305 801Q340 812 347 799Q355 785 331 767Z" />
<glyph unicode=")" glyph-name="parenright" horiz-adv-x="500" d="M175 785Q432 494 291 148Q234 23 170 -45Q142 -66 131 -54Q119 -42 137 -20Q194 43 249 163Q282 247 292 326T288 479Q261 625 139 762Q127 785 139 795Q150 804 175 785Z" />
<glyph unicode="*" glyph-name="asterisk" horiz-adv-x="500" d="M65 487Q38 519 47 535Q58 553 95 543L214 478V597Q222 638 244 638Q268 638 273 597V469L419 541Q452 544 461 526Q469 510 434 484L314 422L418 361Q447 330 438 313Q425 297 390 306L273 375L276
219Q273 177 250 177Q226 177 217 217L214 368L96 293Q57 283 48 302Q38 319 64 345L188 422L65 487Z" />
<glyph unicode="+" glyph-name="plus" horiz-adv-x="500" d="M254 367L438 364Q462 364 464 342Q466 318 438 314L255 318L254 124Q251 89 233 90Q214 92 213 118L215 318L43 315Q15 321 15 341Q15 360 43 366L213 367V556Q219 589 235 587Q252 585 254 551V367Z" />
<glyph unicode="," glyph-name="comma" horiz-adv-x="500" d="M188 134Q229 82 207 8Q185 -67 135 -103Q84 -137 74 -118Q64 -100 95 -79Q126 -57 140 -32Q146 -18 149 -4T153 24Q108 3 80 13Q51 24 44 50Q35 75 44 101Q54 127 67 140Q82 152 116 160Q150 166 188 134Z" />
<glyph unicode="-" glyph-name="hyphen" horiz-adv-x="500" d="M439 381Q468 376 468 360Q468 344 439 341L60 342Q30 342 31 360Q31 378 62 382L439 381Z" />
<glyph unicode="." glyph-name="period" horiz-adv-x="500" d="M181 73Q181 43 163 24T111 5Q85 5 64 23T43 69Q43 101 64 119T114 138Q147 138 164 119T181 73Z" />
<glyph unicode="/" glyph-name="slash" horiz-adv-x="500" d="M149 22Q134 2 115 5Q92 8 103 39L360 686Q369 712 388 709Q409 707 411 680L149 22Z" />
<glyph unicode="0" glyph-name="zero" horiz-adv-x="500" d="M246 708Q296 704 324 685Q335 677 348 662T376 624Q389 601 398 564T414 474Q420 422 420 376T415 286Q403 200 391 158Q384 136 376 117T357 81Q347 65 335 51T308 28Q293 19 277 15T240 13Q201 18
170 44Q157 58 144 75T122 112Q112 132 106 154T93 202Q88 227 86 263T81 347Q79 394 84 440T100 532Q121 621 160 663Q197 703 246 708ZM203 644Q183 614 169 581T146 510Q138 473 134 426T132 319Q135 204 164 134Q194 65 241 60Q290 53 320 108Q353 165 363
271Q369 326 369 374T365 468Q355 555 330 600Q317 623 304 636T276 656Q247 668 203 644Z" />
<glyph unicode="1" glyph-name="one" horiz-adv-x="500" d="M236 63L244 644L135 531Q109 520 103 540Q96 558 116 582Q235 719 252 714Q286 727 288 670L282 63L381 62Q405 56 405 35Q405 15 379 10L129 8Q108 7 102 26Q95 44 120 55L236 63Z" />
<glyph unicode="2" glyph-name="two" horiz-adv-x="500" d="M59 613Q98 677 157 703Q217 730 290 718Q365 704 409 647Q455 587 449 505Q445 463 436 428T409 365Q393 337 374 312T335 264Q315 241 292 219T242 175Q217 153 190 128T134 77L429 80Q453 76 451
54Q450 33 426 28Q90 22 57 31Q58 71 84 98Q97 110 131 140T220 219Q331 315 363 376Q380 407 389 440T401 508Q406 579 372 620Q340 661 279 672Q220 681 174 659Q127 638 94 587Q74 561 62 573Q48 585 59 613Z" />
<glyph unicode="3" glyph-name="three" horiz-adv-x="500" d="M90 630Q112 672 152 697Q194 723 251 727Q308 730 358 709Q408 688 431 628Q451 569 427 499Q400 429 333 404Q367 391 391 369T431 314Q461 249 442 173Q424 96 364 53Q305 10 230 15Q157 18 104
63Q54 109 49 196Q49 230 68 228Q87 227 92 199Q95 132 133 98Q169 63 232 60Q296 57 340 91Q363 108 379 132T402 191Q419 257 374 314Q330 370 253 367Q177 364 185 398Q194 416 238 421Q279 425 326 447Q372 470 388 521Q403 572 390 613Q374 656 338 669Q302
682 254 679Q206 676 174 656Q158 646 146 634T126 607Q103 586 93 595Q81 605 90 630Z" />
<glyph unicode="4" glyph-name="four" horiz-adv-x="500" d="M462 255Q483 251 485 230Q487 211 462 208H339V39Q336 7 317 7Q300 7 295 39V208L54 205Q25 203 23 226Q21 249 36 271Q160 483 226 594T302 715Q319 736 337 716Q344 706 340 255H462ZM296 634L80
253L296 255V634Z" />
<glyph unicode="5" glyph-name="five" horiz-adv-x="500" d="M450 728Q474 724 475 703Q475 682 450 681L112 682L97 417Q126 430 153 437T204 446Q251 450 298 438Q342 425 385 377Q425 328 428 247Q429 165 396 106Q361 49 299 26Q239 5 175 19Q114 31 70 76Q55
101 64 117Q74 132 99 112Q131 75 181 65Q206 61 230 62T279 70Q328 86 358 134Q389 179 381 263Q374 344 318 376Q262 406 208 399Q180 396 148 388T80 365Q79 362 58 364Q46 389 51 405Q53 413 57 487T68 702Q71 729 87 729L450 728Z" />
<glyph unicode="6" glyph-name="six" horiz-adv-x="500" d="M287 676Q187 656 136 567Q84 479 79 402Q77 365 78 335T83 280Q116 333 158 359Q203 388 275 389Q348 390 404 336Q460 280 451 183Q442 84 377 38Q310 -9 231 4Q151 18 105 78Q59 141 46 220Q33 298
34 373Q35 445 63 528Q89 610 149 661Q210 713 278 725Q348 734 402 719Q428 710 424 689Q419 668 380 677Q340 686 287 676ZM98 229Q103 150 141 104Q177 58 239 50Q300 41 353 76Q402 109 410 188Q416 264 374 306Q332 347 271 344Q207 341 171 314Q152 301 134
280T98 229Z" />
<glyph unicode="7" glyph-name="seven" horiz-adv-x="500" d="M470 663Q436 595 404 519T341 358Q311 274 293 196T268 47Q263 15 246 17Q229 18 226 35Q224 43 225 65T230 123Q235 159 251 218T295 362Q322 446 353 523T419 673H82L134 445Q139 415 122 409Q106
402 96 427L33 673Q25 715 52 721Q453 720 470 718Q485 697 470 663Z" />
<glyph unicode="8" glyph-name="eight" horiz-adv-x="500" d="M414 553Q405 484 370 443Q334 403 301 398Q394 371 428 305Q462 238 439 154Q418 70 347 34Q276 -2 203 9Q130 20 87 64Q43 111 36 178Q32 212 39 245T63 309Q98 373 173 403Q119 425 97 473Q72 521
79 581Q85 640 124 682Q162 723 232 728Q267 730 296 723T348 699Q393 666 405 620Q417 575 414 553ZM244 420Q306 430 335 465Q349 482 357 499T368 533Q374 566 365 603Q355 638 320 663Q286 687 232 682Q179 678 153 649Q128 621 122 584Q115 547 136 499Q156
450 244 420ZM247 376Q183 360 152 343Q122 324 99 281Q73 237 78 186Q82 133 119 101Q157 66 213 57Q271 46 327 73Q384 102 402 176Q420 250 374 306Q330 359 247 376Z" />
<glyph unicode="9" glyph-name="nine" horiz-adv-x="500" d="M442 441Q423 386 390 285T309 37Q302 15 283 18Q267 19 268 50L363 333Q321 309 272 304Q225 299 171 313Q117 325 81 373Q46 420 40 483Q36 515 40 543T56 600Q67 626 82 646T117 682Q137 696 157
705T197 720Q239 730 307 720Q376 710 422 641Q469 571 442 441ZM407 472Q415 574 384 620Q350 667 279 677Q208 687 145 639Q82 590 82 520Q81 450 109 410Q138 372 183 359Q228 347 268 353Q288 355 304 359T333 371Q346 378 357 386T379 401Q398 417 407 472Z"
/>
<glyph unicode=":" glyph-name="colon" horiz-adv-x="500" d="M290 559Q241 533 210 553Q179 569 174 598Q169 625 181 647Q192 670 218 680Q243 689 271 678Q296 665 308 633Q317 598 290 559ZM215 49Q168 82 171 123Q174 163 199 180Q212 188 224 191T251 193Q279
190 298 172Q317 154 315 122Q314 107 310 93T295 68Q275 46 215 49Z" />
<glyph unicode=";" glyph-name="semicolon" horiz-adv-x="500" d="M289 561Q240 537 207 555Q176 572 171 600Q166 628 178 649Q189 672 216 682Q242 691 269 681Q295 669 307 636Q318 600 289 561ZM302 227Q341 179 320 110Q299 39 251 9Q204 -24 193 -7Q183
13 212 30Q226 40 237 50T255 73Q262 86 265 98T269 125Q225 104 198 114Q170 125 163 148Q155 174 164 196Q172 221 187 233Q198 246 233 252Q265 256 302 227Z" />
<glyph unicode="&lt;" glyph-name="less" horiz-adv-x="500" d="M105 339Q276 236 365 183T461 124Q475 113 471 91Q466 65 443 76L55 321Q26 344 34 367Q42 392 61 396L427 640Q445 652 455 632Q463 611 443 589L89 360L105 339Z" />
<glyph unicode="=" glyph-name="equal" horiz-adv-x="500" d="M451 544Q477 539 479 516Q479 491 451 492L44 493Q20 497 20 520Q20 542 44 546L451 544ZM437 247Q464 246 464 223Q464 198 437 195L46 192Q21 193 19 217Q17 240 40 244L437 247Z" />
<glyph unicode="&gt;" glyph-name="greater" horiz-adv-x="500" d="M66 637Q443 406 465 385Q478 343 444 319L70 80Q48 69 42 90Q35 108 55 127L419 363L51 593Q30 616 37 632Q45 648 66 637Z" />
<glyph unicode="?" glyph-name="question" horiz-adv-x="500" d="M47 655Q73 723 126 757Q154 776 187 783T258 789Q333 784 385 734Q412 709 428 676T449 604Q454 566 450 533T431 472Q419 444 401 425T360 397Q338 388 305 381T229 366L230 262Q230 224 206
228Q183 233 184 256L178 356Q180 397 197 406Q205 411 220 415T261 423Q282 425 302 430T340 444Q360 451 372 464T393 498Q402 518 405 542T405 596Q402 625 390 650T358 696Q318 738 251 741Q186 744 143 712Q101 682 85 634Q67 600 53 611Q38 623 47 655ZM203
-7Q131 5 129 65Q127 128 171 145Q212 163 246 139Q264 128 270 108T275 59Q268 4 203 -7Z" />
<glyph unicode="@" glyph-name="at" horiz-adv-x="500" d="M342 403Q372 409 359 381Q347 351 347 302Q345 251 369 240Q391 228 413 258Q424 272 431 295T441 350Q447 412 433 467Q418 520 382 560Q343 600 302 609Q259 620 221 612Q182 603 146 575Q112 547
86 483Q61 420 62 314Q62 208 96 146Q130 81 180 53Q230 23 285 35Q341 46 402 117Q419 126 429 116Q439 107 425 81Q358 5 302 -5Q242 -16 195 0Q171 8 150 21T110 55Q91 74 75 98T47 154Q20 214 22 327Q23 383 31 428T57 509Q73 544 91 568T129 608Q149 624 170
634T214 651Q259 663 310 650Q358 638 404 594Q427 571 442 544T468 484Q486 418 480 358Q476 298 463 271Q456 259 450 248T438 226Q425 205 402 197Q380 189 356 200Q332 210 323 237Q313 216 299 200T265 172Q226 147 190 170Q173 181 161 195T141 226Q125 259
129 333Q133 408 166 458Q200 508 262 507Q322 506 342 403ZM303 293Q308 320 309 347T307 402Q297 455 258 466Q220 475 192 430Q179 407 172 378T164 312Q163 238 195 213Q226 188 261 212Q294 235 303 293Z" />
<glyph unicode="A" glyph-name="A" horiz-adv-x="500" d="M267 693Q286 638 303 582T337 469Q353 412 381 307T451 50Q455 21 436 16Q416 11 407 32L346 248L144 246L88 43Q82 13 60 21Q37 27 44 60L229 702Q233 727 247 725Q259 724 267 693ZM332 291Q315 383
294 466T248 626L164 292L332 291Z" />
<glyph unicode="B" glyph-name="B" horiz-adv-x="500" d="M318 353Q325 350 334 344T354 330Q375 312 396 260Q415 206 393 133Q367 59 286 40Q204 21 145 25Q83 30 63 48Q57 93 57 275Q56 367 56 472T56 698Q67 722 104 723Q122 724 147 724T204 724Q268 723
337 703Q405 682 440 635Q477 586 478 527Q480 466 453 428Q426 388 391 374Q373 367 355 362T318 353ZM101 394Q133 392 167 392T238 392Q276 394 305 398T356 412Q400 430 416 461Q424 476 427 493T430 528Q429 547 422 566T402 604Q377 639 319 659Q291 669
261 673T201 679Q141 679 100 668L101 394ZM104 83Q187 67 258 82Q328 96 350 146Q371 194 356 239Q341 284 311 307Q278 329 224 333Q196 335 165 336T102 338L104 83Z" />
<glyph unicode="C" glyph-name="C" horiz-adv-x="500" d="M428 564Q406 622 365 651Q323 681 265 678Q205 673 165 641Q123 606 96 544Q67 480 64 378Q63 326 69 281T91 196Q118 119 172 91Q224 63 268 69Q289 71 307 76T341 88Q356 95 370 108T396 141Q421 179
430 237Q439 262 453 261Q469 259 464 222Q457 168 438 131Q418 92 380 63Q341 30 275 24Q209 18 151 49Q92 78 57 173Q38 219 31 271T25 382Q30 498 62 569Q91 639 143 680Q192 718 260 724Q329 729 380 692Q432 655 460 583Q465 549 452 543Q439 536 428 564Z"
/>
<glyph unicode="D" glyph-name="D" horiz-adv-x="500" d="M68 715Q100 716 131 714T194 707Q226 702 254 694T307 675Q356 653 400 601Q443 548 462 465Q472 423 469 372T452 262Q425 142 320 81Q268 50 205 36T67 24Q45 26 41 39Q37 52 44 143Q48 188 49 257T49
421Q48 515 46 575T39 660Q31 712 68 715ZM77 71Q212 67 298 120Q385 175 412 275Q441 378 426 448Q409 521 372 566Q335 612 289 632Q267 642 242 649T188 661Q159 666 133 667T82 668Q88 557 91 425Q92 359 89 271T77 71Z" />
<glyph unicode="E" glyph-name="E" horiz-adv-x="500" d="M455 722Q481 721 480 700Q478 678 455 674L78 675L83 397L408 398Q433 395 433 375Q433 355 408 352L82 350L79 72L421 70Q444 64 444 47Q444 28 419 22Q248 23 158 23T59 24Q38 24 37 49Q38 65 39 112T41
235Q42 389 38 673Q33 713 54 721L455 722Z" />
<glyph unicode="F" glyph-name="F" horiz-adv-x="500" d="M453 723Q477 721 478 701Q480 679 453 675L95 676L106 382L392 384Q415 383 417 362Q419 342 392 337L106 335L102 47Q99 13 77 13Q56 13 55 45Q60 203 58 359T48 671Q42 723 66 723H453Z" />
<glyph unicode="G" glyph-name="G" horiz-adv-x="500" d="M431 537Q400 614 370 644Q339 675 296 681Q251 686 210 674Q167 662 134 621Q100 581 82 518Q63 457 63 380Q62 342 65 305T77 229Q94 154 130 115Q164 75 224 67Q253 64 279 67T327 82Q373 105 402 162Q434
221 432 328L230 329Q209 335 209 356Q209 378 232 376Q341 375 398 374T460 372Q470 369 470 332Q470 294 464 238Q457 183 426 123Q395 66 340 38Q284 12 220 21Q156 30 109 77Q65 122 44 210Q22 295 25 382Q27 468 49 541Q70 613 111 660Q132 683 154 698T202
721Q227 727 252 729T302 728Q349 721 391 683Q429 645 461 563Q470 533 461 523Q452 514 431 537Z" />
<glyph unicode="H" glyph-name="H" horiz-adv-x="500" d="M439 44Q436 15 417 15Q399 15 399 46L409 343L90 346L95 46Q95 14 74 12Q55 9 53 37L36 694Q39 724 57 726Q74 728 79 698L86 391H411L420 699Q424 729 442 729Q460 729 463 699L439 44Z" />
<glyph unicode="I" glyph-name="I" horiz-adv-x="500" d="M376 723Q402 719 402 699Q402 680 376 676L264 673L262 66L354 65Q379 62 379 43Q379 23 354 20L128 18Q102 25 102 43Q102 60 128 63L218 66L220 673L124 675Q94 676 96 698Q97 720 122 721L376 723Z" />
<glyph unicode="J" glyph-name="J" horiz-adv-x="500" d="M458 720Q479 716 479 695Q477 676 457 673L319 670Q322 500 320 382T311 195Q295 60 216 21Q136 -17 63 61Q48 87 52 103Q56 118 75 104Q135 35 195 63Q256 89 268 211Q278 332 274 672L91 675Q67 677
69 697Q69 717 89 722L458 720Z" />
<glyph unicode="K" glyph-name="K" horiz-adv-x="500" d="M229 410L445 80Q455 55 443 44Q430 33 417 45L197 380L98 271L95 52Q92 20 76 19Q59 17 55 47L53 694Q54 732 76 729Q97 725 97 694L99 337L421 702Q442 712 449 699Q457 685 441 661L229 410Z" />
<glyph unicode="L" glyph-name="L" horiz-adv-x="500" d="M102 691Q116 403 99 70Q189 75 276 75T446 69Q470 67 471 45Q472 22 446 17Q359 24 270 24T89 18Q52 14 59 66Q67 237 67 394T58 693Q63 726 79 726Q97 726 102 691Z" />
<glyph unicode="M" glyph-name="M" horiz-adv-x="500" d="M446 77Q445 19 425 21Q404 21 404 52Q400 203 402 336T412 586Q284 174 271 161Q258 147 248 157Q236 166 92 579Q98 479 99 347T97 47Q96 13 76 13Q58 13 55 44Q59 383 52 534Q45 685 49 706Q54 727
65 723Q78 718 94 691L258 259Q323 455 362 569T415 715Q451 730 457 698Q449 515 446 360T446 77Z" />
<glyph unicode="N" glyph-name="N" horiz-adv-x="500" d="M459 704Q444 550 436 384T425 38Q406 14 388 36Q369 57 94 639Q99 532 101 385T102 49Q102 16 80 16Q59 15 59 44Q60 248 58 380T52 570Q43 687 55 708Q65 727 87 716Q98 709 106 701T120 684Q126 674
191 541T382 150Q383 273 391 412T412 706Q416 737 437 735Q456 732 459 704Z" />
<glyph unicode="O" glyph-name="O" horiz-adv-x="500" d="M271 726Q328 720 367 688T430 607T465 498T476 377Q476 310 463 244T423 125T356 40T262 8Q194 8 149 39T76 122T38 240T26 377Q26 448 40 512T85 625T162 702T271 726ZM275 677Q220 681 181 657T118
587T83 482T72 359Q72 302 82 248T115 151T173 82T257 56Q302 56 334 83T386 158T416 264T426 385Q426 454 413 514T367 618T275 677Z" />
<glyph unicode="P" glyph-name="P" horiz-adv-x="500" d="M131 729Q169 729 200 728T256 725Q305 720 348 701Q388 682 419 647Q447 615 459 572Q465 551 468 530T473 486Q474 441 458 395Q450 371 437 350T404 308Q364 267 320 254Q275 239 218 236Q190 235 162
234T104 230V41Q104 10 82 10Q59 10 61 41L58 682Q54 711 73 724L131 729ZM103 276Q160 279 209 279Q257 279 300 294Q343 308 372 342Q403 374 418 420Q432 465 426 520Q418 577 380 621Q341 666 268 677Q194 688 101 680L103 276Z" />
<glyph unicode="Q" glyph-name="Q" horiz-adv-x="500" d="M367 74Q316 17 268 14Q219 11 177 32Q133 53 102 100Q68 144 53 229Q36 312 41 399Q43 443 50 484T69 563Q82 600 99 630T142 684Q189 729 257 725Q325 721 363 677Q382 654 396 631T420 581Q430 556
437 526T448 463Q456 396 448 301Q444 253 430 204T392 104L446 17Q457 -10 448 -22Q439 -34 424 -18L367 74ZM179 660Q152 633 133 603T104 540Q83 474 80 396Q75 317 89 245Q96 209 105 182T128 134Q153 95 189 75Q208 66 226 62T263 60Q301 65 340 104L270 219Q255
249 267 262Q277 275 291 259L362 140Q403 217 411 315Q418 410 406 481Q400 516 391 546T367 604Q354 630 334 647T290 672Q242 689 179 660Z" />
<glyph unicode="R" glyph-name="R" horiz-adv-x="500" d="M69 714Q108 726 152 731T247 732Q346 726 404 680Q463 632 476 561Q488 488 461 422Q430 355 391 324Q369 308 350 298T311 284Q328 239 344 205T376 148Q392 126 411 109T452 78Q467 56 461 42Q453 27
423 36Q402 56 382 77T344 121Q325 144 305 184T262 282Q237 278 197 278T101 280L103 51Q103 20 84 20Q64 18 61 48L51 667Q49 703 69 714ZM99 325Q176 320 249 325Q285 327 312 335T359 356Q379 370 394 390T420 438Q442 490 431 549Q419 605 375 646Q329 686
246 689Q204 691 166 687T93 672L99 325Z" />
<glyph unicode="S" glyph-name="S" horiz-adv-x="500" d="M412 557Q393 621 354 648Q316 676 258 682Q202 688 159 653Q118 620 110 564Q103 510 128 468Q153 426 237 397Q323 369 380 318Q439 267 431 177Q423 86 363 50Q304 13 226 19Q149 23 97 75Q45 127 38
209Q36 245 59 243Q80 242 83 215Q90 152 127 111Q162 71 223 65Q284 59 334 87Q383 114 385 184Q386 251 342 291Q298 330 222 353Q147 374 101 429Q78 456 69 489T64 563Q73 640 129 687Q157 710 188 719T254 727Q322 721 374 689Q426 659 451 581Q459 551 446
544Q435 537 412 557Z" />
<glyph unicode="T" glyph-name="T" horiz-adv-x="500" d="M274 51Q270 15 253 14Q234 11 231 49L230 673L61 676Q37 667 37 695Q37 724 60 726L457 721Q475 715 477 695Q479 676 457 671L276 672L274 51Z" />
<glyph unicode="U" glyph-name="U" horiz-adv-x="500" d="M115 697Q113 596 113 507T116 343Q120 192 154 129Q189 66 259 70Q330 73 362 132Q393 189 402 294Q409 396 411 482Q412 525 412 575T409 686Q413 721 435 720Q457 718 455 686Q457 625 457 574T457
479Q456 393 445 274Q435 156 391 90Q344 23 262 20Q177 15 129 81Q105 114 91 173T72 318Q63 491 69 700Q73 730 93 730Q112 730 115 697Z" />
<glyph unicode="V" glyph-name="V" horiz-adv-x="500" d="M447 676Q368 382 322 219T263 22Q241 -8 226 29L191 147L49 674Q44 711 68 715Q91 719 93 688L247 121L403 693Q410 721 431 715Q450 707 447 676Z" />
<glyph unicode="W" glyph-name="W" horiz-adv-x="500" d="M475 674Q473 653 448 495T375 38Q356 6 341 14Q323 24 319 58Q317 75 298 207T242 586Q172 53 158 18Q126 -8 108 34L23 666Q20 695 40 699Q61 702 66 679L137 153Q212 690 228 697Q244 705 259 695Q274
686 352 164L432 682Q437 707 457 706Q477 704 475 674Z" />
<glyph unicode="X" glyph-name="X" horiz-adv-x="500" d="M254 398L408 699Q418 724 437 717Q455 710 450 678L279 357L450 60Q463 29 446 18Q431 4 414 26L254 317L95 28Q75 6 61 16Q45 25 59 60L228 356L61 672Q53 701 72 713Q92 724 103 695L254 398Z" />
<glyph unicode="Y" glyph-name="Y" horiz-adv-x="500" d="M458 684Q398 504 265 288L266 41Q263 8 243 10Q224 10 224 41V292Q86 519 33 680Q25 710 47 719Q67 728 76 701Q123 550 242 351Q361 532 415 705Q426 732 447 726Q468 717 458 684Z" />
<glyph unicode="Z" glyph-name="Z" horiz-adv-x="500" d="M451 723Q474 697 453 675L108 68L409 67Q434 61 433 41Q430 20 409 20L70 18Q51 24 52 45Q52 64 82 118Q98 144 177 284T398 677L62 678Q41 680 42 700Q42 722 66 723H451Z" />
<glyph unicode="[" glyph-name="bracketleft" horiz-adv-x="500" d="M331 793Q359 792 360 771Q362 750 327 747L163 748L162 58Q236 59 277 57T326 51Q342 44 342 28Q342 13 310 5Q125 -5 108 10L116 773Q111 796 140 793H331Z" />
<glyph unicode="\" glyph-name="backslash" horiz-adv-x="500" d="M97 680Q99 707 120 709Q139 712 148 686L405 39Q416 8 393 5Q374 2 359 22L97 680Z" />
<glyph unicode="]" glyph-name="bracketright" horiz-adv-x="500" d="M331 785Q361 781 356 762V25Q361 4 332 4L149 2Q116 7 117 27Q119 50 147 48L307 49L308 738H160Q125 739 123 761Q121 781 155 783L331 785Z" />
<glyph unicode="^" glyph-name="asciicircum" horiz-adv-x="500" d="M64 544Q77 577 91 604T120 654Q151 700 182 728Q211 755 251 757Q290 759 326 721Q389 647 438 544Q448 517 432 509Q415 501 400 524Q295 710 254 710Q210 710 169 642Q147 608 132 579T106
526Q91 500 71 506Q52 512 64 544Z" />
<glyph unicode="_" glyph-name="underscore" horiz-adv-x="500" d="M2 -140V-84H501V-140H2Z" />
<glyph unicode="`" glyph-name="grave" horiz-adv-x="500" d="M297 661Q309 634 292 623Q275 611 252 634L143 768Q120 799 135 814Q150 829 181 803L297 661Z" />
<glyph unicode="a" glyph-name="a" horiz-adv-x="500" d="M50 460Q78 502 128 519Q176 532 228 522Q277 512 312 475Q329 456 340 435T356 388Q361 363 360 332T353 261Q346 222 340 192T328 141Q344 100 372 84Q399 68 430 69Q459 70 458 47Q457 22 418 22Q381
22 350 45Q317 69 307 87Q284 41 243 25Q199 8 148 15Q123 19 103 29T68 58Q39 93 39 159Q38 223 79 272Q119 320 179 315Q237 312 265 285Q292 260 301 214Q319 337 311 375Q302 412 277 440Q253 469 216 478Q178 486 142 475Q105 464 82 430Q58 415 48 425Q37
436 50 460ZM268 196Q249 235 233 251Q219 266 179 271Q139 274 119 255Q108 245 102 235T91 213Q87 201 86 187T83 154Q82 120 103 92Q122 64 158 59Q193 54 221 66Q249 80 264 111Q277 143 268 196Z" />
<glyph unicode="b" glyph-name="b" horiz-adv-x="500" d="M105 685Q102 400 102 358Q126 392 192 410Q257 426 326 407Q393 388 426 333Q441 306 449 280T457 226Q457 171 436 123Q413 73 379 47Q344 20 265 12Q185 5 137 39Q112 56 96 75T71 116Q63 138 59 162T54
215Q53 243 54 361T58 690Q64 720 85 719Q105 718 105 685ZM195 63Q248 46 287 56Q307 61 325 68T359 86Q391 107 407 178Q423 248 391 300Q357 351 305 367Q253 383 189 359Q158 348 139 331T111 293Q104 271 101 247T99 196Q102 142 124 111Q135 95 152 83T195
63Z" />
<glyph unicode="c" glyph-name="c" horiz-adv-x="500" d="M398 343Q369 399 304 419Q240 437 177 405Q113 374 98 285Q82 198 127 125Q171 54 259 57Q343 58 387 111Q406 124 420 116Q432 107 416 78Q362 15 295 6Q228 -4 180 19Q156 30 137 45T101 80Q67 117
55 181Q41 243 61 323Q79 405 154 447Q228 490 313 466Q396 440 436 367Q442 334 432 327Q420 320 398 343Z" />
<glyph unicode="d" glyph-name="d" horiz-adv-x="500" d="M442 690Q446 454 445 321T438 159Q434 130 423 106T396 62Q381 42 361 30T315 10Q265 -4 208 7Q148 16 111 55Q92 75 79 99T60 153Q45 212 63 290Q79 366 148 406Q214 444 286 432Q355 419 399 375V692Q399
727 421 728Q442 729 442 690ZM401 214Q406 271 379 317Q351 365 287 378Q222 392 171 363Q119 335 104 264Q87 191 120 131Q155 69 202 57Q248 44 300 58Q347 70 373 110Q386 130 392 155T401 214Z" />
<glyph unicode="e" glyph-name="e" horiz-adv-x="500" d="M93 207Q98 174 108 149T136 105Q152 88 177 75T236 54Q305 38 384 63Q411 69 415 52Q419 33 393 21Q315 -6 240 6Q163 17 113 67Q62 118 56 207Q52 252 56 287T71 350Q82 376 96 396T128 431Q163 460
206 472Q227 477 248 478T289 477Q330 471 363 449Q381 439 395 426T419 396Q437 363 448 318Q457 273 451 242Q445 211 422 208L93 207ZM408 248Q418 322 382 374Q342 426 293 433Q241 441 199 426Q178 418 160 403T127 363Q97 316 99 249L408 248Z" />
<glyph unicode="f" glyph-name="f" horiz-adv-x="500" d="M387 680Q331 689 300 680Q270 670 250 644Q240 630 235 612T227 568Q225 544 225 499T226 386L434 388Q458 386 462 364Q467 340 432 342L226 340V34Q223 -1 205 -1Q188 -1 182 29L181 340L55 342Q26
339 24 361Q22 384 53 388L181 386Q180 456 181 505T186 583Q188 611 195 633T214 671Q237 702 279 720Q321 736 394 721Q444 706 441 682Q437 657 387 680Z" />
<glyph unicode="g" glyph-name="g" horiz-adv-x="500" d="M379 415Q382 443 397 445Q413 446 417 419Q422 314 420 224T409 57Q390 -96 291 -124Q191 -151 120 -75Q101 -51 113 -37Q125 -23 146 -43Q203 -105 282 -80Q361 -55 367 104Q336 75 299 64Q259 53 214
59Q165 65 124 106Q82 149 72 222Q62 293 94 359Q125 425 178 446Q232 469 282 462Q334 454 379 415ZM358 350Q333 396 308 409Q283 419 253 421Q223 421 190 403Q157 386 134 336Q110 286 117 230Q125 172 154 143Q184 110 227 104Q267 98 305 115Q341 134 354
162Q368 189 373 247Q377 302 358 350Z" />
<glyph unicode="h" glyph-name="h" horiz-adv-x="500" d="M130 317Q110 177 133 46Q132 13 114 12Q96 10 88 36Q76 169 73 334T77 698Q76 729 100 727Q122 724 121 694Q122 619 122 551T122 422Q165 477 231 483Q297 491 343 460Q365 444 381 426T406 384Q427
337 431 286Q436 235 434 177Q433 149 432 113T426 34Q420 6 402 6Q384 6 381 36Q384 80 386 115T389 178Q390 205 390 230T387 278Q385 301 380 321T367 360Q359 379 349 393T324 418Q311 429 295 433T261 438Q243 437 228 435T200 427Q175 417 158 395Q142 373
130 317Z" />
<glyph unicode="i" glyph-name="i" horiz-adv-x="500" d="M276 574Q241 550 206 573Q171 596 171 635Q171 674 201 692Q230 711 266 697Q301 683 307 641Q311 598 276 574ZM259 26Q252 -7 228 -5Q203 -3 208 26L204 453Q205 486 229 485Q254 483 255 454L259 26Z" />
<glyph unicode="j" glyph-name="j" horiz-adv-x="500" d="M403 589Q355 565 320 582Q285 599 285 643Q285 686 327 702Q369 718 396 695Q424 674 426 645Q428 612 403 589ZM380 459V128Q380 11 332 -48Q284 -106 210 -114Q135 -121 67 -65Q48 -31 64 -15Q80 1
104 -28Q146 -68 203 -65Q258 -62 298 -13Q316 13 325 51T334 141Q333 193 333 272T333 459Q337 485 357 487Q376 488 380 459Z" />
<glyph unicode="k" glyph-name="k" horiz-adv-x="500" d="M242 286L413 50Q426 20 408 11Q390 2 376 19L206 263L130 201Q126 128 136 39Q135 9 117 5Q99 1 90 30Q68 326 84 690Q90 719 110 717Q131 716 131 687Q128 570 127 464T124 259L400 478Q422 491 434
473Q445 452 424 431L242 286Z" />
<glyph unicode="l" glyph-name="l" horiz-adv-x="500" d="M240 33Q234 2 215 2Q194 2 189 33L188 689Q190 728 212 725Q235 722 239 689L240 33Z" />
<glyph unicode="m" glyph-name="m" horiz-adv-x="500" d="M80 348Q89 395 114 424Q140 448 174 447Q191 446 204 439T228 417Q247 387 257 327Q262 354 270 377T291 416Q317 450 368 444Q421 438 448 367Q477 295 466 22Q466 -1 444 -2Q421 -2 423 33Q434 239
411 315Q388 394 356 395Q324 397 303 335Q292 304 285 225T275 19Q251 -22 231 25Q230 138 227 212T218 322Q206 395 170 396Q133 396 111 317Q88 237 85 154Q83 112 82 79T81 21Q59 -22 37 14L35 467Q37 501 58 501Q79 500 79 475L80 348Z" />
<glyph unicode="n" glyph-name="n" horiz-adv-x="500" d="M88 468Q91 499 106 500Q122 500 126 470V332Q141 396 175 433Q209 470 272 474Q338 479 377 427Q397 402 410 364T428 275Q433 225 432 161T424 20Q416 -6 396 -2Q377 4 378 28Q385 102 386 161T383 267Q374
356 343 395Q311 431 267 427Q223 423 188 368Q172 341 161 308T146 236Q143 197 141 163T140 99Q141 70 140 47T136 8Q103 -17 92 21L88 468Z" />
<glyph unicode="o" glyph-name="o" horiz-adv-x="500" d="M272 479Q330 481 376 443Q424 406 445 335Q467 265 449 183Q431 99 371 48Q310 -4 232 5Q151 14 105 62Q60 107 46 185Q32 259 58 337Q82 414 139 450Q195 487 272 479ZM285 440Q207 445 162 414Q114
383 96 320Q75 256 85 195Q90 164 101 139T131 94Q166 55 232 49Q296 43 349 86Q399 128 412 196Q425 264 406 324Q387 384 354 407Q339 418 322 427T285 440Z" />
<glyph unicode="p" glyph-name="p" horiz-adv-x="500" d="M83 291Q94 376 142 423Q190 471 264 472Q337 472 381 434Q425 393 438 341Q450 287 441 224Q432 162 380 113Q326 66 251 73Q175 80 127 146Q129 69 132 7T140 -103Q140 -131 122 -133Q106 -134 98 -108Q95
-71 93 -38T90 27Q89 58 87 88T83 149Q78 209 83 291ZM193 407Q136 360 128 288Q121 218 158 168Q197 118 255 114Q314 108 353 146Q392 184 398 251Q406 320 376 370Q344 422 284 428Q224 432 193 407Z" />
<glyph unicode="q" glyph-name="q" horiz-adv-x="500" d="M424 175Q417 67 413 -4T407 -112Q401 -139 382 -136Q362 -131 368 -105Q370 -70 371 -14T373 119Q319 57 245 62Q172 65 132 103Q93 138 76 194Q68 222 67 253T72 321Q84 392 141 441Q197 491 283 477Q369
462 405 389Q441 315 424 175ZM273 436Q238 438 210 429T159 396Q116 351 110 287Q103 222 136 167Q166 113 230 108Q292 104 334 142Q375 178 384 245Q393 311 366 365Q339 420 273 436Z" />
<glyph unicode="r" glyph-name="r" horiz-adv-x="500" d="M153 285Q225 440 402 435Q426 434 427 415Q427 397 402 393Q233 388 170 231Q162 209 157 161T151 38Q151 7 133 6Q113 4 107 32L103 451Q100 486 120 490Q141 495 149 461L153 285Z" />
<glyph unicode="s" glyph-name="s" horiz-adv-x="500" d="M390 374Q367 414 324 430Q279 445 234 441Q186 436 162 411Q137 383 137 349Q136 313 176 285Q196 272 216 263T256 249Q295 242 343 215Q390 186 404 145Q419 102 395 60Q370 17 317 5Q264 -8 208 1Q154
8 118 38Q82 69 72 122Q65 152 88 155Q110 158 116 136Q120 98 146 72Q169 48 218 40Q265 33 307 46Q348 60 357 103Q366 145 329 172Q310 184 286 194T229 213Q198 221 174 232T130 261Q91 293 91 346Q90 397 129 438Q167 476 226 482Q255 485 280 483T327 475Q369
462 409 423Q435 395 430 380Q424 363 390 374Z" />
<glyph unicode="t" glyph-name="t" horiz-adv-x="500" d="M247 430H439Q465 423 463 403Q461 383 436 379H245Q239 127 258 98Q277 65 309 58Q341 49 393 46Q420 45 418 23Q415 2 389 0Q323 0 285 15Q248 29 220 75Q191 120 199 378L67 376Q39 378 39 399Q39 422
67 427L201 429L200 646Q202 680 222 679Q242 678 246 652L247 430Z" />
<glyph unicode="u" glyph-name="u" horiz-adv-x="500" d="M114 447Q116 197 132 144Q148 90 177 68Q204 47 245 47Q285 47 316 70Q348 93 366 156Q386 219 384 438Q388 488 429 465Q439 374 435 17Q433 -12 412 -15Q392 -16 395 17Q395 55 392 101Q381 74 367
55T335 24Q300 1 248 -2Q197 -4 150 22Q105 47 82 127Q71 167 68 246T66 447Q70 479 93 479Q114 479 114 447Z" />
<glyph unicode="v" glyph-name="v" horiz-adv-x="500" d="M265 21Q243 -19 219 17L60 444Q47 477 68 484Q89 490 100 467L242 79L404 461Q421 482 438 472Q455 461 442 435L265 21Z" />
<glyph unicode="w" glyph-name="w" horiz-adv-x="500" d="M366 48Q362 12 344 10Q325 7 319 32L249 352L174 41Q170 13 152 9Q136 5 125 32L35 428Q31 458 50 462Q67 465 79 444L149 131L224 435Q230 456 246 459Q263 461 275 431L345 136L424 442Q433 463 451
460Q469 456 469 426L366 48Z" />
<glyph unicode="x" glyph-name="x" horiz-adv-x="500" d="M78 451Q68 476 82 487Q96 496 112 478L244 290L384 482Q397 501 414 491Q432 480 416 454L274 256L419 45Q432 15 414 7Q397 0 385 20L244 216L114 15Q97 -5 84 5Q70 16 80 40L214 256L78 451Z" />
<glyph unicode="y" glyph-name="y" horiz-adv-x="500" d="M435 399Q416 320 390 250T328 117Q258 -6 138 -125Q113 -142 102 -129Q89 -116 105 -92Q180 -33 250 84Q166 120 121 205Q99 248 85 299T66 410Q65 439 83 445Q102 450 105 425Q112 312 154 232Q196 155
274 120Q312 175 341 251T390 424Q401 446 419 438Q436 428 435 399Z" />
<glyph unicode="z" glyph-name="z" horiz-adv-x="500" d="M432 472Q463 463 451 422L167 64L420 63Q444 59 444 38Q444 17 420 13L116 14Q92 21 101 57L391 421L65 420Q38 423 41 444Q44 465 65 470L432 472Z" />
<glyph unicode="{" glyph-name="braceleft" horiz-adv-x="500" d="M348 787Q307 795 269 771Q229 747 233 629Q235 570 231 531T218 474Q198 437 139 411Q198 383 215 329Q231 278 225 167Q218 58 239 17Q260 -25 352 -20Q375 -24 377 -41Q378 -56 346 -62Q238
-65 207 -13Q176 43 182 154Q188 265 174 313Q161 356 114 376Q69 396 80 424Q112 439 135 455T172 488Q198 524 191 646Q185 770 239 804Q293 837 348 829Q377 828 379 808Q379 787 348 787Z" />
<glyph unicode="|" glyph-name="bar" horiz-adv-x="600" d="M268 -59Q263 -92 244 -93Q223 -95 223 -61L218 759Q223 792 243 791Q264 790 263 763L268 -59Z" />
<glyph unicode="}" glyph-name="braceright" horiz-adv-x="500" d="M133 833Q211 834 251 799Q289 763 290 688Q290 651 291 613T295 533Q299 453 396 426Q414 421 409 393Q382 377 343 363Q305 350 294 298Q284 246 291 147Q298 51 266 -17Q234 -80 143 -82Q108
-85 107 -69Q105 -53 128 -42Q202 -46 228 7Q240 33 245 70T246 154Q242 201 244 241T253 314Q267 381 319 403Q260 434 252 524Q248 569 246 608T244 680Q245 744 218 770Q190 794 128 791Q102 793 104 814Q104 835 133 833Z" />
<glyph unicode="~" glyph-name="asciitilde" horiz-adv-x="600" d="M216 225Q212 217 204 213T188 213Q179 217 176 225T176 241Q187 267 205 283T251 300Q275 300 293 289T327 267T359 256Q376 256 383 284Q385 292 393 297T410 300Q418 298 422 290T425 273Q419
247 403 230T359 212Q336 213 317 224T281 246T251 257Q240 257 231 248T216 225Z" />
<glyph unicode="&#xa0;" glyph-name="uni00A0" horiz-adv-x="600" />
<glyph unicode="&#xa1;" glyph-name="exclamdown" horiz-adv-x="500" d="M274 343Q265 368 242 366Q217 364 217 340L211 -110Q212 -123 219 -128T240 -135Q266 -130 268 -107L274 343ZM187 524Q171 467 214 439Q247 417 280 434Q293 439 301 447T314 466Q323
487 311 524Q291 564 243 562Q201 559 187 524Z" />
<glyph unicode="&#xa2;" glyph-name="cent" horiz-adv-x="500" d="M272 -63Q268 -90 247 -91Q224 -93 224 -65V5Q200 9 180 19Q156 30 137 45T101 80Q67 117 55 181Q41 243 61 323Q79 405 154 447Q187 466 222 472V526Q227 564 250 563Q273 562 270 533V474Q291
472 313 466Q396 440 436 367Q442 334 432 327Q420 320 398 343Q369 399 304 419Q287 424 270 425L272 58Q347 62 387 111Q406 124 420 116Q432 107 416 78Q362 15 295 6Q283 4 272 3V-63ZM127 125Q162 69 224 59L222 421Q200 416 177 405Q113 374 98 285Q82 198
127 125Z" />
<glyph unicode="&#xa3;" glyph-name="sterling" horiz-adv-x="500" d="M526 46Q535 46 541 40T548 25Q548 17 542 11T526 4Q526 4 502 4T438 3T348 2T246 1T147 0Q101 0 68 0T26 4Q25 5 23 5T17 10Q16 12 14 16T11 24Q11 45 35 46Q55 48 84 58T139 88Q164 108
181 139T199 219Q199 243 196 263T187 301H33Q24 301 18 307T11 323Q11 331 17 337T33 343H172Q164 362 150 390T126 455T114 529Q113 620 165 671T303 723Q337 723 371 715T436 689Q444 685 447 677T445 660Q441 653 432 650T415 651Q362 680 303 680Q237 680
197 642T157 529Q157 492 168 459T194 398T218 343H460Q469 343 475 337T482 323Q482 314 476 308T460 301H232Q237 282 239 262T242 219Q242 161 220 121T166 55Q162 51 158 49T148 43Q167 43 201 43T277 43T362 44T441 45T501 46T526 46Z" />
<glyph unicode="&#xa4;" glyph-name="currency" horiz-adv-x="500" d="M391 246L471 165Q477 158 477 149T470 134Q464 128 455 128T440 134L360 216Q313 178 251 178Q219 178 190 189T138 218L57 139Q42 125 26 139Q20 146 20 155T27 170L108 250Q91 273 81 300T70
359Q70 391 81 419T111 471L31 553Q25 559 25 568T32 584Q38 590 47 590T62 583L142 502Q165 519 192 529T251 539Q283 539 312 529T364 499L445 578Q452 585 460 585T476 578Q482 572 482 563T475 547L394 468Q411 446 421 418T432 359Q432 327 421 298T391 246ZM114
359Q114 321 132 290T182 241T251 222Q289 222 320 240T369 290T388 359Q388 397 370 428T320 477T251 496Q213 496 182 478T133 428T114 359Z" />
<glyph unicode="&#xa5;" glyph-name="yen" horiz-adv-x="500" d="M419 185Q448 180 448 164Q448 148 419 145H266V41Q263 8 243 10Q224 10 224 41V146H80Q51 146 51 164Q51 182 82 186H224V270H80Q51 270 51 288Q51 306 82 310H213Q84 525 33 680Q25 710 47 719Q67
728 76 701Q123 550 242 351Q361 532 415 705Q426 732 447 726Q468 717 458 684Q401 513 278 309H419Q448 304 448 288Q448 272 419 269H265V185H419Z" />
<glyph unicode="&#xa6;" glyph-name="brokenbar" horiz-adv-x="500" d="M268 432Q268 417 261 409T244 401Q234 401 229 407T223 433L222 757Q222 771 228 780T244 789Q268 789 268 761V432ZM268 -42Q268 -57 261 -65T244 -73Q234 -73 229 -67T223 -41L222 283Q222
297 228 306T244 315Q268 315 268 287V-42Z" />
<glyph unicode="&#xa7;" glyph-name="section" horiz-adv-x="600" d="M456 624Q437 651 420 667T381 690T323 698Q271 698 234 671T196 590Q196 557 216 533T269 494T334 471Q407 455 445 414T484 318Q484 296 475 268T441 215T365 181Q406 159 433 130T460 51Q460
19 444 -14T390 -71T291 -94Q208 -94 157 -52T102 63Q101 79 107 89T125 99Q147 99 150 69Q155 8 192 -20T288 -49Q340 -49 377 -27T414 49Q414 96 377 124T284 164Q217 178 171 219T125 331Q125 372 149 409T231 463Q197 486 174 513T150 586Q150 637 174 672T236
725T316 743Q378 743 419 718T494 648Q498 643 498 636Q498 627 491 621T475 614Q463 614 456 624ZM172 338Q172 283 214 252T318 221Q368 221 400 241T437 307Q440 340 422 368T370 413T291 430Q261 430 234 418T190 385T172 338Z" />
<glyph unicode="&#xa8;" glyph-name="dieresis" horiz-adv-x="600" d="M270 745Q270 723 257 709T217 694Q198 694 182 707T166 741Q166 766 182 779T220 793Q245 793 257 779T270 745ZM434 745Q434 723 421 709T381 694Q362 694 346 707T330 741Q330 766 346
779T384 793Q409 793 421 779T434 745Z" />
<glyph unicode="&#xa9;" glyph-name="copyright" horiz-adv-x="1000" d="M513 721Q594 721 657 689T764 602T831 480T854 342Q854 272 830 211T762 104Q661 -3 477 -3Q401 -3 337 24T229 104Q189 151 169 211T148 339Q148 411 171 479T240 602T354 689T513 721ZM731
134Q769 174 788 227T808 342Q808 403 788 462T730 570T637 646T513 675Q434 675 374 647T274 570T213 462T192 339Q192 281 210 228T262 134Q302 90 356 67T477 43Q642 43 731 134ZM504 477Q492 477 473 471T434 451T402 410T388 344Q388 301 401 276T435 237T476
220T511 215Q552 215 574 233T612 274Q617 282 626 284T644 281Q652 276 654 267T650 250Q639 232 622 213T578 182T513 169H511Q470 170 431 187T367 242T342 344Q342 393 358 427T399 481T452 511T504 520Q547 520 575 508T621 476T650 437Q656 430 654 421T644
407Q636 400 627 403T612 414Q596 437 574 457T504 477Z" />
<glyph unicode="&#xaa;" glyph-name="ordfeminine" horiz-adv-x="500" d="M50 460Q78 502 128 519Q176 532 228 522Q277 512 312 475Q329 456 340 435T356 388Q361 363 360 332T353 261Q346 222 340 192T328 141Q344 100 372 84Q399 68 430 69Q459 70 458 47Q457
22 418 22Q381 22 350 45Q317 69 307 87Q284 41 243 25Q199 8 148 15Q123 19 103 29T68 58Q39 93 39 159Q38 223 79 272Q119 320 179 315Q237 312 265 285Q292 260 301 214Q319 337 311 375Q302 412 277 440Q253 469 216 478Q178 486 142 475Q105 464 82 430Q58
415 48 425Q37 436 50 460ZM268 196Q249 235 233 251Q219 266 179 271Q139 274 119 255Q108 245 102 235T91 213Q87 201 86 187T83 154Q82 120 103 92Q122 64 158 59Q193 54 221 66Q249 80 264 111Q277 143 268 196Z" />
<glyph unicode="&#xab;" glyph-name="guillemotleft" horiz-adv-x="600" d="M218 99Q211 99 205 103Q193 112 170 129T121 167T77 210T52 250Q45 276 62 303T107 355T162 399T205 428Q213 433 223 431T239 421Q249 398 229 387Q193 365 162 340T113 294T98 263Q101
253 121 233T172 189T232 143Q240 138 242 128T239 110Q231 99 218 99ZM401 98Q394 98 388 102Q376 110 353 127T304 165T260 209T235 249Q228 275 245 302T290 353T345 397T388 426Q396 431 406 430T422 420Q432 397 412 386Q375 365 345 340T297 293T281 262Q284
252 304 231T354 186T415 142Q423 137 424 127T421 109Q415 98 401 98Z" />
<glyph unicode="&#xac;" glyph-name="logicalnot" horiz-adv-x="500" d="M40 355Q40 377 64 381L434 379Q445 379 452 374T460 355L458 108Q458 93 450 87T430 80Q406 80 406 108L407 327L64 328Q40 332 40 355Z" />
<glyph unicode="&#xad;" glyph-name="uni00AD" horiz-adv-x="600" d="M439 381Q468 376 468 360Q468 344 439 341L60 342Q30 342 31 360Q31 378 62 382L439 381Z" />
<glyph unicode="&#xae;" glyph-name="registered" horiz-adv-x="500" d="M259 608Q315 608 359 586T434 525T481 440T497 344Q497 245 433 178Q361 104 234 104Q124 104 61 178Q5 246 5 343Q5 393 21 440T69 525T148 585T259 608ZM411 200Q465 257 465 344Q465
401 441 454T370 541T259 576Q186 576 136 542T61 455T35 343Q35 258 85 200Q140 136 234 136Q349 136 411 200ZM357 388Q357 342 327 315Q310 301 289 296T249 289Q263 276 284 262T330 241Q335 239 338 233T340 222Q338 215 332 212T321 210Q283 221 254 243T209
282V207Q209 201 205 196T193 191Q187 191 182 196T177 207V475Q177 487 190 491Q191 491 204 493T238 495T281 492T323 473Q357 445 357 388ZM307 340Q317 348 321 360T327 388Q327 428 302 448Q283 465 255 465T209 462V322H211Q212 322 229 321T268 322T307
340Z" />
<glyph unicode="&#xaf;" glyph-name="overscore" horiz-adv-x="500" d="M375 696Q407 687 404 668Q402 645 370 645L140 644Q118 646 113 652T105 669Q104 680 110 686T140 696H375Z" />
<glyph unicode="&#xb0;" glyph-name="degree" horiz-adv-x="600" d="M111 536Q66 586 63 644Q60 703 90 743Q121 787 181 794Q240 801 283 771Q326 740 336 691Q347 640 331 598Q315 555 280 535Q264 525 246 521T209 516Q191 515 166 520T111 536ZM215 558Q277
579 291 615Q304 649 293 685Q282 719 254 739Q226 758 187 751Q149 742 127 713Q106 683 109 646Q110 608 135 583Q146 570 166 565T215 558Z" />
<glyph unicode="&#xb1;" glyph-name="plusminus" horiz-adv-x="500" d="M269 409L450 405Q481 405 482 384Q484 360 450 356L271 360L269 208Q264 173 243 174Q221 176 220 202L222 360L56 357Q21 363 21 383Q21 402 56 407L220 409V572Q227 606 246 605Q266 603
269 568V409ZM430 92Q466 87 464 67Q462 46 430 43L69 44Q36 44 36 67Q36 88 71 93L430 92Z" />
<glyph unicode="&#xb2;" glyph-name="uni00B2" horiz-adv-x="500" d="M360 423Q369 423 375 417T382 401Q382 392 376 386T360 379H149Q133 379 128 395Q126 406 131 412T156 431Q174 444 204 467T263 520T313 584T334 653Q334 698 309 721T248 745Q221 745 200
730T170 689Q169 680 161 676T144 673Q135 675 131 682T128 699Q139 741 172 764T248 788Q303 788 340 751T378 653Q378 614 360 578T315 512T262 459T219 423H360Z" />
<glyph unicode="&#xb3;" glyph-name="uni00B3" horiz-adv-x="500" d="M305 599Q331 586 351 559T372 494Q372 464 356 436T310 389T240 370Q201 370 166 391T118 452Q116 461 120 469T133 479Q141 481 149 477T160 464Q166 440 190 427T240 414Q277 414 302 437T328
494Q328 524 304 548T236 572Q229 571 223 571T209 570Q201 570 195 576T188 590Q187 598 192 605T206 613Q213 615 227 616T260 624Q305 640 305 681Q305 710 285 729T233 748Q211 747 191 736T159 701Q155 693 147 690T130 691Q122 695 119 703T119 720Q136 756
168 773T233 791Q280 791 314 761T348 681Q348 653 337 634T305 599Z" />
<glyph unicode="&#xb4;" glyph-name="acute" horiz-adv-x="600" d="M219 661L335 803Q367 829 381 814Q398 797 373 768L264 634Q241 611 224 623Q207 634 219 661Z" />
<glyph unicode="&#xb5;" glyph-name="uni00B5" horiz-adv-x="500" d="M477 54Q491 35 472 22T425 9Q394 9 368 25T331 70Q314 43 280 23T203 2Q163 2 133 19T83 60V-185Q83 -194 77 -200T62 -207Q53 -207 47 -201T40 -185V489Q40 498 46 504T62 510Q71 510 77
504T83 489V178Q88 117 121 82T203 46Q248 46 280 76T318 158Q320 178 321 204T323 258Q323 299 324 340T326 414T327 468T328 489Q328 498 334 504T350 510Q359 510 365 504T371 489Q371 489 371 468T371 413T370 339T367 258Q367 239 367 221T366 186Q366 159
366 137T368 101Q370 75 388 64T425 52Q437 52 445 56T461 62T477 54Z" />
<glyph unicode="&#xb6;" glyph-name="paragraph" horiz-adv-x="500" d="M421 -66Q416 -105 399 -108Q380 -111 380 -62L374 738Q318 739 285 738L280 -75Q275 -105 255 -108Q231 -111 231 -73L233 354Q156 371 110 409Q65 448 50 511Q35 573 48 640Q55 675 76
705T136 760Q210 809 390 795Q454 795 460 768Q466 743 423 735V733L421 -66Z" />
<glyph unicode="&#xb7;" glyph-name="middot" horiz-adv-x="600" d="M352 304Q352 282 339 268T299 253Q280 253 264 266T248 300Q248 325 264 338T302 352Q327 352 339 338T352 304Z" />
<glyph unicode="&#xb8;" glyph-name="cedilla" horiz-adv-x="600" d="M254 10Q257 18 265 22T282 23Q290 20 294 12T295 -5L270 -66Q279 -65 287 -65Q342 -65 378 -93T415 -166Q415 -215 372 -242T268 -270Q258 -270 246 -269T221 -266Q212 -264 207 -257T202
-241Q204 -233 211 -227T227 -223Q250 -226 268 -226Q314 -226 342 -210T371 -166Q371 -140 347 -125T287 -109Q267 -109 241 -115Q228 -118 220 -108Q212 -100 215 -86L254 10Z" />
<glyph unicode="&#xb9;" glyph-name="uni00B9" horiz-adv-x="500" d="M343 425Q352 425 358 419T365 403Q365 394 359 388T343 382L166 384Q157 384 151 390T144 406Q144 415 150 421T166 427L245 426L249 724L180 670Q173 664 164 665T149 673Q144 681 145 689T153
704L258 787Q268 795 281 789Q293 782 293 769L288 426L343 425Z" />
<glyph unicode="&#xba;" glyph-name="ordmasculine" horiz-adv-x="500" d="M272 479Q330 481 376 443Q424 406 445 335Q467 265 449 183Q431 99 371 48Q310 -4 232 5Q151 14 105 62Q60 107 46 185Q32 259 58 337Q82 414 139 450Q195 487 272 479ZM285 440Q207
445 162 414Q114 383 96 320Q75 256 85 195Q90 164 101 139T131 94Q166 55 232 49Q296 43 349 86Q399 128 412 196Q425 264 406 324Q387 384 354 407Q339 418 322 427T285 440Z" />
<glyph unicode="&#xbb;" glyph-name="guillemotright" horiz-adv-x="600" d="M382 99Q389 99 395 103Q407 112 430 129T479 167T523 210T548 250Q555 276 538 303T493 355T438 399T395 428Q387 433 377 431T361 421Q351 398 371 387Q407 365 438 340T487 294T502
263Q499 253 479 233T428 189T368 143Q360 138 358 128T361 110Q369 99 382 99ZM199 98Q206 98 212 102Q224 110 247 127T296 165T340 209T365 249Q372 275 355 302T310 353T255 397T212 426Q204 431 194 430T178 420Q168 397 188 386Q225 365 255 340T303 293T319
262Q316 252 296 231T246 186T185 142Q177 137 176 127T179 109Q185 98 199 98Z" />
<glyph unicode="&#xbc;" glyph-name="onequarter" horiz-adv-x="600" d="M131 -34Q114 -54 95 -45Q74 -35 88 -11L484 679Q509 710 527 697Q547 684 530 661L131 -34ZM514 425Q523 425 529 419T536 403Q536 394 530 388T514 382L337 384Q328 384 322 390T315 406Q315
415 321 421T337 427L416 426L420 724L351 670Q344 664 335 665T320 673Q315 681 316 689T324 704L429 787Q439 795 452 789Q464 782 464 769L459 426L514 425ZM547 87Q556 87 562 81T569 66Q569 57 563 51T547 44H495V-41Q495 -50 489 -56T473 -63Q464 -63 458
-57T451 -41V44H293Q280 44 274 56T275 78L455 348Q464 362 479 357Q495 352 495 336V87H547ZM334 87H451V264L334 87Z" />
<glyph unicode="&#xbd;" glyph-name="onehalf" horiz-adv-x="600" d="M357 -34Q340 -54 321 -45Q300 -35 314 -11L710 679Q735 710 753 697Q773 684 756 661L357 -34ZM485 425Q494 425 500 419T507 403Q507 394 501 388T485 382L308 384Q299 384 293 390T286 406Q286
415 292 421T308 427L387 426L391 724L322 670Q315 664 306 665T291 673Q286 681 287 689T295 704L400 787Q410 795 423 789Q435 782 435 769L430 426L485 425ZM564 -4Q573 -4 579 -10T586 -26Q586 -35 580 -41T564 -48H353Q337 -48 332 -32Q330 -21 335 -15T360
4Q378 17 408 40T467 93T517 157T538 226Q538 271 513 294T452 318Q425 318 404 303T374 262Q373 253 365 249T348 246Q339 248 335 255T332 272Q343 314 376 337T452 361Q507 361 544 324T582 226Q582 187 564 151T519 85T466 32T423 -4H564Z" />
<glyph unicode="&#xbe;" glyph-name="threequarters" horiz-adv-x="600" d="M138 -34Q121 -54 102 -45Q81 -35 95 -11L491 679Q516 710 534 697Q554 684 537 661L138 -34ZM547 87Q556 87 562 81T569 66Q569 57 563 51T547 44H495V-41Q495 -50 489 -56T473 -63Q464
-63 458 -57T451 -41V44H293Q280 44 274 56T275 78L455 348Q464 362 479 357Q495 352 495 336V87H547ZM334 87H451V264L334 87ZM484 599Q510 586 530 559T551 494Q551 464 535 436T489 389T419 370Q380 370 345 391T297 452Q295 461 299 469T312 479Q320 481 328
477T339 464Q345 440 369 427T419 414Q456 414 481 437T507 494Q507 524 483 548T415 572Q408 571 402 571T388 570Q380 570 374 576T367 590Q366 598 371 605T385 613Q392 615 406 616T439 624Q484 640 484 681Q484 710 464 729T412 748Q390 747 370 736T338 701Q334
693 326 690T309 691Q301 695 298 703T298 720Q315 756 347 773T412 791Q459 791 493 761T527 681Q527 653 516 634T484 599Z" />
<glyph unicode="&#xbf;" glyph-name="questiondown" horiz-adv-x="500" d="M448 -83Q422 -151 369 -185Q341 -204 308 -211T237 -217Q162 -212 110 -162Q83 -137 67 -104T46 -32Q41 6 45 39T64 100Q76 128 94 147T135 175Q157 184 190 191T266 206L265 310Q265
348 289 344Q312 339 311 316L317 216Q315 175 298 166Q290 161 275 157T234 149Q213 147 193 142T155 128Q135 121 123 108T102 74Q93 54 90 30T90 -24Q93 -53 105 -78T137 -124Q177 -166 244 -169Q309 -172 352 -140Q394 -110 410 -62Q428 -28 442 -39Q457 -51
448 -83ZM292 579Q364 567 366 507Q368 444 324 427Q283 409 249 433Q231 444 225 464T220 513Q227 568 292 579Z" />
<glyph unicode="&#xc0;" glyph-name="Agrave" horiz-adv-x="500" d="M267 693Q286 638 303 582T337 469Q353 412 381 307T451 50Q455 21 436 16Q416 11 407 32L346 248L144 246L88 43Q82 13 60 21Q37 27 44 60L229 702Q233 727 247 725Q259 724 267 693ZM332 291Q315
383 294 466T248 626L164 292L332 291ZM332 779Q344 752 327 741Q310 729 287 752L178 886Q155 917 170 932Q185 947 216 921L332 779Z" />
<glyph unicode="&#xc1;" glyph-name="Aacute" horiz-adv-x="500" d="M267 693Q286 638 303 582T337 469Q353 412 381 307T451 50Q455 21 436 16Q416 11 407 32L346 248L144 246L88 43Q82 13 60 21Q37 27 44 60L229 702Q233 727 247 725Q259 724 267 693ZM332 291Q315
383 294 466T248 626L164 292L332 291ZM250 900Q260 919 273 923T298 922T314 904T307 877L228 765Q218 751 207 752T189 762T188 782L250 900Z" />
<glyph unicode="&#xc2;" glyph-name="Acircumflex" horiz-adv-x="500" d="M267 693Q286 638 303 582T337 469Q353 412 381 307T451 50Q455 21 436 16Q416 11 407 32L346 248L144 246L88 43Q82 13 60 21Q37 27 44 60L229 702Q233 727 247 725Q259 724 267 693ZM332
291Q315 383 294 466T248 626L164 292L332 291ZM144 805L235 900Q241 906 251 906Q260 906 266 900L357 805Q363 798 363 790T356 774Q340 760 325 775L251 853L176 775Q170 768 161 768T145 774Q130 789 144 805Z" />
<glyph unicode="&#xc3;" glyph-name="Atilde" horiz-adv-x="500" d="M267 693Q286 638 303 582T337 469Q353 412 381 307T451 50Q455 21 436 16Q416 11 407 32L346 248L144 246L88 43Q82 13 60 21Q37 27 44 60L229 702Q233 727 247 725Q259 724 267 693ZM332 291Q315
383 294 466T248 626L164 292L332 291ZM428 788Q424 780 416 776T400 776Q391 780 388 788T388 804Q399 830 417 846T463 863Q487 863 505 852T539 830T571 819Q588 819 595 847Q597 855 605 860T622 863Q630 861 634 853T637 836Q631 810 615 793T571 775Q548
776 529 787T493 809T463 820Q452 820 443 811T428 788Z" />
<glyph unicode="&#xc4;" glyph-name="Adieresis" horiz-adv-x="500" d="M267 693Q286 638 303 582T337 469Q353 412 381 307T451 50Q455 21 436 16Q416 11 407 32L346 248L144 246L88 43Q82 13 60 21Q37 27 44 60L229 702Q233 727 247 725Q259 724 267 693ZM332
291Q315 383 294 466T248 626L164 292L332 291ZM470 821Q470 799 457 785T417 770Q398 770 382 783T366 817Q366 842 382 855T420 869Q445 869 457 855T470 821ZM634 821Q634 799 621 785T581 770Q562 770 546 783T530 817Q530 842 546 855T584 869Q609 869 621
855T634 821Z" />
<glyph unicode="&#xc5;" glyph-name="Aring" horiz-adv-x="500" d="M267 693Q286 638 303 582T337 469Q353 412 381 307T451 50Q455 21 436 16Q416 11 407 32L346 248L144 246L88 43Q82 13 60 21Q37 27 44 60L229 702Q233 727 247 725Q259 724 267 693ZM332 291Q315
383 294 466T248 626L164 292L332 291ZM172 839Q172 868 193 892T247 917Q281 917 302 895T323 840Q323 808 303 788T247 766Q212 765 192 788T172 839ZM216 839Q216 827 223 818T247 809Q280 809 280 840Q280 853 271 863T247 873Q231 873 224 862T216 839Z" />
<glyph unicode="&#xc6;" glyph-name="AE" horiz-adv-x="500" d="M474 329H295V43H474Q482 43 487 37T492 21Q492 13 487 7T474 0H281Q280 0 280 0T278 1Q278 1 278 1T276 0Q269 0 263 6T257 21V218H126L41 13Q38 5 31 2T16 2Q9 6 7 14T8 30L259 707Q262 715 269
717T281 720H474Q482 720 487 714T492 699Q492 690 487 684T474 677H295V372H474Q482 372 487 366T492 350Q492 342 487 336T474 329ZM143 261H257V604L143 261Z" />
<glyph unicode="&#xc7;" glyph-name="Ccedilla" horiz-adv-x="500" d="M428 564Q406 622 365 651Q323 681 265 678Q205 673 165 641Q123 606 96 544Q67 480 64 378Q63 326 69 281T91 196Q118 119 172 91Q224 63 268 69Q289 71 307 76T341 88Q356 95 370 108T396
141Q421 179 430 237Q439 262 453 261Q469 259 464 222Q457 168 438 131Q418 92 380 63Q341 30 275 24Q209 18 151 49Q92 78 57 173Q38 219 31 271T25 382Q30 498 62 569Q91 639 143 680Q192 718 260 724Q329 729 380 692Q432 655 460 583Q465 549 452 543Q439
536 428 564ZM480 44Q483 52 491 56T508 57Q516 54 520 46T521 29L496 -32Q505 -31 513 -31Q568 -31 604 -59T641 -132Q641 -181 598 -208T494 -236Q484 -236 472 -235T447 -232Q438 -230 433 -223T428 -207Q430 -199 437 -193T453 -189Q476 -192 494 -192Q540
-192 568 -176T597 -132Q597 -106 573 -91T513 -75Q493 -75 467 -81Q454 -84 446 -74Q438 -66 441 -52L480 44Z" />
<glyph unicode="&#xc8;" glyph-name="Egrave" horiz-adv-x="500" d="M455 722Q481 721 480 700Q478 678 455 674L78 675L83 397L408 398Q433 395 433 375Q433 355 408 352L82 350L79 72L421 70Q444 64 444 47Q444 28 419 22Q248 23 158 23T59 24Q38 24 37 49Q38
65 39 112T41 235Q42 389 38 673Q33 713 54 721L455 722ZM327 816Q339 789 322 778Q305 766 282 789L173 923Q150 954 165 969Q180 984 211 958L327 816Z" />
<glyph unicode="&#xc9;" glyph-name="Eacute" horiz-adv-x="500" d="M455 722Q481 721 480 700Q478 678 455 674L78 675L83 397L408 398Q433 395 433 375Q433 355 408 352L82 350L79 72L421 70Q444 64 444 47Q444 28 419 22Q248 23 158 23T59 24Q38 24 37 49Q38
65 39 112T41 235Q42 389 38 673Q33 713 54 721L455 722ZM268 895Q278 914 291 918T316 917T332 899T325 872L246 760Q236 746 225 747T207 757T206 777L268 895Z" />
<glyph unicode="&#xca;" glyph-name="Ecircumflex" horiz-adv-x="500" d="M455 722Q481 721 480 700Q478 678 455 674L78 675L83 397L408 398Q433 395 433 375Q433 355 408 352L82 350L79 72L421 70Q444 64 444 47Q444 28 419 22Q248 23 158 23T59 24Q38 24 37
49Q38 65 39 112T41 235Q42 389 38 673Q33 713 54 721L455 722ZM165 791L256 886Q262 892 272 892Q281 892 287 886L378 791Q384 784 384 776T377 760Q361 746 346 761L272 839L197 761Q191 754 182 754T166 760Q151 775 165 791Z" />
<glyph unicode="&#xcb;" glyph-name="Edieresis" horiz-adv-x="500" d="M455 722Q481 721 480 700Q478 678 455 674L78 675L83 397L408 398Q433 395 433 375Q433 355 408 352L82 350L79 72L421 70Q444 64 444 47Q444 28 419 22Q248 23 158 23T59 24Q38 24 37 49Q38
65 39 112T41 235Q42 389 38 673Q33 713 54 721L455 722ZM497 820Q497 798 484 784T444 769Q425 769 409 782T393 816Q393 841 409 854T447 868Q472 868 484 854T497 820ZM661 820Q661 798 648 784T608 769Q589 769 573 782T557 816Q557 841 573 854T611 868Q636
868 648 854T661 820Z" />
<glyph unicode="&#xcc;" glyph-name="Igrave" horiz-adv-x="500" d="M376 723Q402 719 402 699Q402 680 376 676L264 673L262 66L354 65Q379 62 379 43Q379 23 354 20L128 18Q102 25 102 43Q102 60 128 63L218 66L220 673L124 675Q94 676 96 698Q97 720 122 721L376
723ZM330 803Q342 776 325 765Q308 753 285 776L176 910Q153 941 168 956Q183 971 214 945L330 803Z" />
<glyph unicode="&#xcd;" glyph-name="Iacute" horiz-adv-x="500" d="M376 723Q402 719 402 699Q402 680 376 676L264 673L262 66L354 65Q379 62 379 43Q379 23 354 20L128 18Q102 25 102 43Q102 60 128 63L218 66L220 673L124 675Q94 676 96 698Q97 720 122 721L376
723ZM250 912Q260 931 273 935T298 934T314 916T307 889L228 777Q218 763 207 764T189 774T188 794L250 912Z" />
<glyph unicode="&#xce;" glyph-name="Icircumflex" horiz-adv-x="500" d="M376 723Q402 719 402 699Q402 680 376 676L264 673L262 66L354 65Q379 62 379 43Q379 23 354 20L128 18Q102 25 102 43Q102 60 128 63L218 66L220 673L124 675Q94 676 96 698Q97 720 122
721L376 723ZM144 792L235 887Q241 893 251 893Q260 893 266 887L357 792Q363 785 363 777T356 761Q340 747 325 762L251 840L176 762Q170 755 161 755T145 761Q130 776 144 792Z" />
<glyph unicode="&#xcf;" glyph-name="Idieresis" horiz-adv-x="500" d="M376 723Q402 719 402 699Q402 680 376 676L264 673L262 66L354 65Q379 62 379 43Q379 23 354 20L128 18Q102 25 102 43Q102 60 128 63L218 66L220 673L124 675Q94 676 96 698Q97 720 122
721L376 723ZM479 822Q479 800 466 786T426 771Q407 771 391 784T375 818Q375 843 391 856T429 870Q454 870 466 856T479 822ZM643 822Q643 800 630 786T590 771Q571 771 555 784T539 818Q539 843 555 856T593 870Q618 870 630 856T643 822Z" />
<glyph unicode="&#xd0;" glyph-name="Eth" horiz-adv-x="500" d="M78 715Q110 716 141 714T204 707Q236 702 264 694T317 675Q366 653 410 601Q453 548 472 465Q482 423 479 372T462 262Q435 142 330 81Q278 50 215 36T77 24Q55 26 51 39Q47 52 54 143Q57 177
58 226T60 338H31Q2 338 2 356Q2 374 33 378H60Q59 399 59 421Q58 515 56 575T49 660Q41 712 78 715ZM87 71Q222 67 308 120Q395 175 422 275Q451 378 436 448Q419 521 382 566Q345 612 299 632Q277 642 252 649T198 661Q169 666 143 667T92 668Q98 557 101 425Q101
402 101 378L222 377Q251 372 251 356Q251 340 222 337L100 338Q99 282 96 216T87 71Z" />
<glyph unicode="&#xd1;" glyph-name="Ntilde" horiz-adv-x="500" d="M459 704Q444 550 436 384T425 38Q406 14 388 36Q369 57 94 639Q99 532 101 385T102 49Q102 16 80 16Q59 15 59 44Q60 248 58 380T52 570Q43 687 55 708Q65 727 87 716Q98 709 106 701T120 684Q126
674 191 541T382 150Q383 273 391 412T412 706Q416 737 437 735Q456 732 459 704ZM427 771Q423 763 415 759T399 759Q390 763 387 771T387 787Q398 813 416 829T462 846Q486 846 504 835T538 813T570 802Q587 802 594 830Q596 838 604 843T621 846Q629 844 633
836T636 819Q630 793 614 776T570 758Q547 759 528 770T492 792T462 803Q451 803 442 794T427 771Z" />
<glyph unicode="&#xd2;" glyph-name="Ograve" horiz-adv-x="500" d="M271 726Q328 720 367 688T430 607T465 498T476 377Q476 310 463 244T423 125T356 40T262 8Q194 8 149 39T76 122T38 240T26 377Q26 448 40 512T85 625T162 702T271 726ZM275 677Q220 681 181
657T118 587T83 482T72 359Q72 302 82 248T115 151T173 82T257 56Q302 56 334 83T386 158T416 264T426 385Q426 454 413 514T367 618T275 677ZM354 800Q366 773 349 762Q332 750 309 773L200 907Q177 938 192 953Q207 968 238 942L354 800Z" />
<glyph unicode="&#xd3;" glyph-name="Oacute" horiz-adv-x="500" d="M271 726Q328 720 367 688T430 607T465 498T476 377Q476 310 463 244T423 125T356 40T262 8Q194 8 149 39T76 122T38 240T26 377Q26 448 40 512T85 625T162 702T271 726ZM275 677Q220 681 181
657T118 587T83 482T72 359Q72 302 82 248T115 151T173 82T257 56Q302 56 334 83T386 158T416 264T426 385Q426 454 413 514T367 618T275 677ZM265 900Q275 919 288 923T313 922T329 904T322 877L243 765Q233 751 222 752T204 762T203 782L265 900Z" />
<glyph unicode="&#xd4;" glyph-name="Ocircumflex" horiz-adv-x="500" d="M271 726Q328 720 367 688T430 607T465 498T476 377Q476 310 463 244T423 125T356 40T262 8Q194 8 149 39T76 122T38 240T26 377Q26 448 40 512T85 625T162 702T271 726ZM275 677Q220 681
181 657T118 587T83 482T72 359Q72 302 82 248T115 151T173 82T257 56Q302 56 334 83T386 158T416 264T426 385Q426 454 413 514T367 618T275 677ZM144 798L235 893Q241 899 251 899Q260 899 266 893L357 798Q363 791 363 783T356 767Q340 753 325 768L251 846L176
768Q170 761 161 761T145 767Q130 782 144 798Z" />
<glyph unicode="&#xd5;" glyph-name="Otilde" horiz-adv-x="500" d="M271 726Q328 720 367 688T430 607T465 498T476 377Q476 310 463 244T423 125T356 40T262 8Q194 8 149 39T76 122T38 240T26 377Q26 448 40 512T85 625T162 702T271 726ZM275 677Q220 681 181
657T118 587T83 482T72 359Q72 302 82 248T115 151T173 82T257 56Q302 56 334 83T386 158T416 264T426 385Q426 454 413 514T367 618T275 677ZM426 774Q422 766 414 762T398 762Q389 766 386 774T386 790Q397 816 415 832T461 849Q485 849 503 838T537 816T569
805Q586 805 593 833Q595 841 603 846T620 849Q628 847 632 839T635 822Q629 796 613 779T569 761Q546 762 527 773T491 795T461 806Q450 806 441 797T426 774Z" />
<glyph unicode="&#xd6;" glyph-name="Odieresis" horiz-adv-x="500" d="M271 726Q328 720 367 688T430 607T465 498T476 377Q476 310 463 244T423 125T356 40T262 8Q194 8 149 39T76 122T38 240T26 377Q26 448 40 512T85 625T162 702T271 726ZM275 677Q220 681
181 657T118 587T83 482T72 359Q72 302 82 248T115 151T173 82T257 56Q302 56 334 83T386 158T416 264T426 385Q426 454 413 514T367 618T275 677ZM470 818Q470 796 457 782T417 767Q398 767 382 780T366 814Q366 839 382 852T420 866Q445 866 457 852T470 818ZM634
818Q634 796 621 782T581 767Q562 767 546 780T530 814Q530 839 546 852T584 866Q609 866 621 852T634 818Z" />
<glyph unicode="&#xd7;" glyph-name="multiply" horiz-adv-x="500" d="M245 394L455 638Q478 651 490 640Q502 629 490 609L279 357L482 108Q493 88 479 77Q466 67 446 80L245 323L52 83Q33 70 19 81Q5 92 19 113L212 357L13 609Q0 633 13 642Q27 651 48 640L245 394Z" />
<glyph unicode="&#xd8;" glyph-name="Oslash" horiz-adv-x="500" d="M78 5Q60 -16 42 -7Q21 4 35 27L83 110Q52 162 39 232T26 377Q26 448 40 512T85 625T162 702T271 726Q311 722 342 704T398 658L430 714Q453 745 472 732Q491 720 475 696L427 613Q453 563 464
502T476 377Q476 310 463 244T423 125T356 40T262 8Q214 8 178 24T114 68L78 5ZM275 677Q220 681 181 657T118 587T83 482T72 359Q72 305 81 253T111 159L371 612Q354 635 331 652T275 677ZM426 385Q426 434 420 479T398 562L140 113Q162 86 191 71T257 56Q302
56 334 83T386 158T416 264T426 385Z" />
<glyph unicode="&#xd9;" glyph-name="Ugrave" horiz-adv-x="500" d="M115 697Q113 596 113 507T116 343Q120 192 154 129Q189 66 259 70Q330 73 362 132Q393 189 402 294Q409 396 411 482Q412 525 412 575T409 686Q413 721 435 720Q457 718 455 686Q457 625 457
574T457 479Q456 393 445 274Q435 156 391 90Q344 23 262 20Q177 15 129 81Q105 114 91 173T72 318Q63 491 69 700Q73 730 93 730Q112 730 115 697ZM345 754Q357 727 340 716Q323 704 300 727L191 861Q168 892 183 907Q198 922 229 896L345 754Z" />
<glyph unicode="&#xda;" glyph-name="Uacute" horiz-adv-x="500" d="M115 697Q113 596 113 507T116 343Q120 192 154 129Q189 66 259 70Q330 73 362 132Q393 189 402 294Q409 396 411 482Q412 525 412 575T409 686Q413 721 435 720Q457 718 455 686Q457 625 457
574T457 479Q456 393 445 274Q435 156 391 90Q344 23 262 20Q177 15 129 81Q105 114 91 173T72 318Q63 491 69 700Q73 730 93 730Q112 730 115 697ZM282 887Q292 906 305 910T330 909T346 891T339 864L260 752Q250 738 239 739T221 749T220 769L282 887Z" />
<glyph unicode="&#xdb;" glyph-name="Ucircumflex" horiz-adv-x="500" d="M115 697Q113 596 113 507T116 343Q120 192 154 129Q189 66 259 70Q330 73 362 132Q393 189 402 294Q409 396 411 482Q412 525 412 575T409 686Q413 721 435 720Q457 718 455 686Q457 625
457 574T457 479Q456 393 445 274Q435 156 391 90Q344 23 262 20Q177 15 129 81Q105 114 91 173T72 318Q63 491 69 700Q73 730 93 730Q112 730 115 697ZM157 791L248 886Q254 892 264 892Q273 892 279 886L370 791Q376 784 376 776T369 760Q353 746 338 761L264
839L189 761Q183 754 174 754T158 760Q143 775 157 791Z" />
<glyph unicode="&#xdc;" glyph-name="Udieresis" horiz-adv-x="500" d="M115 697Q113 596 113 507T116 343Q120 192 154 129Q189 66 259 70Q330 73 362 132Q393 189 402 294Q409 396 411 482Q412 525 412 575T409 686Q413 721 435 720Q457 718 455 686Q457 625
457 574T457 479Q456 393 445 274Q435 156 391 90Q344 23 262 20Q177 15 129 81Q105 114 91 173T72 318Q63 491 69 700Q73 730 93 730Q112 730 115 697ZM499 828Q499 806 486 792T446 777Q427 777 411 790T395 824Q395 849 411 862T449 876Q474 876 486 862T499
828ZM663 828Q663 806 650 792T610 777Q591 777 575 790T559 824Q559 849 575 862T613 876Q638 876 650 862T663 828Z" />
<glyph unicode="&#xdd;" glyph-name="Yacute" horiz-adv-x="500" d="M458 684Q398 504 265 288L266 41Q263 8 243 10Q224 10 224 41V292Q86 519 33 680Q25 710 47 719Q67 728 76 701Q123 550 242 351Q361 532 415 705Q426 732 447 726Q468 717 458 684ZM250 867Q260
886 273 890T298 889T314 871T307 844L228 732Q218 718 207 719T189 729T188 749L250 867Z" />
<glyph unicode="&#xde;" glyph-name="Thorn" horiz-adv-x="500" d="M158 -40Q149 -40 143 -34T137 -18V735Q137 744 143 750T158 757Q167 757 173 751T180 735V569Q191 569 201 569T222 570Q300 570 358 553T448 496T480 387Q480 322 450 287T368 237T256 223Q238
223 219 224T180 227V-18Q180 -27 174 -33T158 -40ZM256 266Q307 266 348 276T412 312T436 387Q436 464 383 495T222 526Q212 526 202 526T180 525V270Q200 269 219 268T256 266Z" />
<glyph unicode="&#xdf;" glyph-name="germandbls" horiz-adv-x="500" d="M387 403Q416 376 429 340T443 266Q443 255 442 244T439 222Q432 188 417 163T378 121Q356 105 331 99T281 92Q262 92 243 95T206 106Q190 114 176 124T151 147Q146 155 147 164T155 178Q163
183 172 182T186 173Q191 166 200 159T223 147Q236 142 250 139T281 135Q322 135 353 157Q368 168 380 185T396 230Q399 248 399 266Q399 331 357 371Q336 391 303 404T221 417Q214 416 208 415T195 415L185 416Q176 417 170 422T163 437Q163 445 169 451T183 459Q193
460 202 460T219 461H221Q255 461 279 471T320 494Q356 524 356 575Q356 580 356 585T355 595Q351 619 341 636T315 665Q284 688 240 688Q218 688 197 681T158 660Q142 647 132 628T122 579V7Q122 -2 116 -8T101 -14Q92 -14 86 -8T79 7V579Q79 617 93 646T130 694Q153
714 182 723T240 732Q267 732 293 725T342 700Q364 684 379 659T398 600Q399 594 399 588T400 575Q400 542 387 512T347 460Q342 455 336 451T321 443Q361 428 387 403Z" />
<glyph unicode="&#xe0;" glyph-name="agrave" horiz-adv-x="500" d="M50 460Q78 502 128 519Q176 532 228 522Q277 512 312 475Q329 456 340 435T356 388Q361 363 360 332T353 261Q346 222 340 192T328 141Q344 100 372 84Q399 68 430 69Q459 70 458 47Q457 22
418 22Q381 22 350 45Q317 69 307 87Q284 41 243 25Q199 8 148 15Q123 19 103 29T68 58Q39 93 39 159Q38 223 79 272Q119 320 179 315Q237 312 265 285Q292 260 301 214Q319 337 311 375Q302 412 277 440Q253 469 216 478Q178 486 142 475Q105 464 82 430Q58 415
48 425Q37 436 50 460ZM268 196Q249 235 233 251Q219 266 179 271Q139 274 119 255Q108 245 102 235T91 213Q87 201 86 187T83 154Q82 120 103 92Q122 64 158 59Q193 54 221 66Q249 80 264 111Q277 143 268 196ZM541 631Q548 620 546 609T536 593Q527 587 516 589T496
604L427 718Q417 735 415 746T419 764Q427 772 439 773T465 753L541 631Z" />
<glyph unicode="&#xe1;" glyph-name="aacute" horiz-adv-x="500" d="M50 460Q78 502 128 519Q176 532 228 522Q277 512 312 475Q329 456 340 435T356 388Q361 363 360 332T353 261Q346 222 340 192T328 141Q344 100 372 84Q399 68 430 69Q459 70 458 47Q457 22
418 22Q381 22 350 45Q317 69 307 87Q284 41 243 25Q199 8 148 15Q123 19 103 29T68 58Q39 93 39 159Q38 223 79 272Q119 320 179 315Q237 312 265 285Q292 260 301 214Q319 337 311 375Q302 412 277 440Q253 469 216 478Q178 486 142 475Q105 464 82 430Q58 415
48 425Q37 436 50 460ZM268 196Q249 235 233 251Q219 266 179 271Q139 274 119 255Q108 245 102 235T91 213Q87 201 86 187T83 154Q82 120 103 92Q122 64 158 59Q193 54 221 66Q249 80 264 111Q277 143 268 196ZM482 723Q492 742 505 746T530 745T546 727T539 700L460
588Q450 574 439 575T421 585T420 605L482 723Z" />
<glyph unicode="&#xe2;" glyph-name="acircumflex" horiz-adv-x="500" d="M50 460Q78 502 128 519Q176 532 228 522Q277 512 312 475Q329 456 340 435T356 388Q361 363 360 332T353 261Q346 222 340 192T328 141Q344 100 372 84Q399 68 430 69Q459 70 458 47Q457
22 418 22Q381 22 350 45Q317 69 307 87Q284 41 243 25Q199 8 148 15Q123 19 103 29T68 58Q39 93 39 159Q38 223 79 272Q119 320 179 315Q237 312 265 285Q292 260 301 214Q319 337 311 375Q302 412 277 440Q253 469 216 478Q178 486 142 475Q105 464 82 430Q58
415 48 425Q37 436 50 460ZM268 196Q249 235 233 251Q219 266 179 271Q139 274 119 255Q108 245 102 235T91 213Q87 201 86 187T83 154Q82 120 103 92Q122 64 158 59Q193 54 221 66Q249 80 264 111Q277 143 268 196ZM353 869L444 964Q450 970 460 970Q469 970 475
964L566 869Q580 853 565 838Q549 824 534 839L460 917L385 839Q379 832 370 832T354 838Q339 853 353 869Z" />
<glyph unicode="&#xe3;" glyph-name="atilde" horiz-adv-x="500" d="M50 460Q78 502 128 519Q176 532 228 522Q277 512 312 475Q329 456 340 435T356 388Q361 363 360 332T353 261Q346 222 340 192T328 141Q344 100 372 84Q399 68 430 69Q459 70 458 47Q457 22
418 22Q381 22 350 45Q317 69 307 87Q284 41 243 25Q199 8 148 15Q123 19 103 29T68 58Q39 93 39 159Q38 223 79 272Q119 320 179 315Q237 312 265 285Q292 260 301 214Q319 337 311 375Q302 412 277 440Q253 469 216 478Q178 486 142 475Q105 464 82 430Q58 415
48 425Q37 436 50 460ZM268 196Q249 235 233 251Q219 266 179 271Q139 274 119 255Q108 245 102 235T91 213Q87 201 86 187T83 154Q82 120 103 92Q122 64 158 59Q193 54 221 66Q249 80 264 111Q277 143 268 196ZM363 876Q359 868 351 864T335 864Q326 868 323 876T323
892Q334 918 352 934T398 951Q422 951 440 940T474 918T506 907Q523 907 530 935Q532 943 540 948T557 951Q565 949 569 941T572 924Q566 898 550 881T506 863Q483 864 464 875T428 897T398 908Q387 908 378 899T363 876Z" />
<glyph unicode="&#xe4;" glyph-name="adieresis" horiz-adv-x="500" d="M50 460Q78 502 128 519Q176 532 228 522Q277 512 312 475Q329 456 340 435T356 388Q361 363 360 332T353 261Q346 222 340 192T328 141Q344 100 372 84Q399 68 430 69Q459 70 458 47Q457
22 418 22Q381 22 350 45Q317 69 307 87Q284 41 243 25Q199 8 148 15Q123 19 103 29T68 58Q39 93 39 159Q38 223 79 272Q119 320 179 315Q237 312 265 285Q292 260 301 214Q319 337 311 375Q302 412 277 440Q253 469 216 478Q178 486 142 475Q105 464 82 430Q58
415 48 425Q37 436 50 460ZM268 196Q249 235 233 251Q219 266 179 271Q139 274 119 255Q108 245 102 235T91 213Q87 201 86 187T83 154Q82 120 103 92Q122 64 158 59Q193 54 221 66Q249 80 264 111Q277 143 268 196ZM436 910Q436 888 423 874T383 859Q364 859 348
872T332 906Q332 931 348 944T386 958Q411 958 423 944T436 910ZM600 910Q600 888 587 874T547 859Q528 859 512 872T496 906Q496 931 512 944T550 958Q575 958 587 944T600 910Z" />
<glyph unicode="&#xe5;" glyph-name="aring" horiz-adv-x="500" d="M50 460Q78 502 128 519Q176 532 228 522Q277 512 312 475Q329 456 340 435T356 388Q361 363 360 332T353 261Q346 222 340 192T328 141Q344 100 372 84Q399 68 430 69Q459 70 458 47Q457 22
418 22Q381 22 350 45Q317 69 307 87Q284 41 243 25Q199 8 148 15Q123 19 103 29T68 58Q39 93 39 159Q38 223 79 272Q119 320 179 315Q237 312 265 285Q292 260 301 214Q319 337 311 375Q302 412 277 440Q253 469 216 478Q178 486 142 475Q105 464 82 430Q58 415
48 425Q37 436 50 460ZM268 196Q249 235 233 251Q219 266 179 271Q139 274 119 255Q108 245 102 235T91 213Q87 201 86 187T83 154Q82 120 103 92Q122 64 158 59Q193 54 221 66Q249 80 264 111Q277 143 268 196ZM387 922Q387 951 408 975T462 1000Q496 1000 517
978T538 923Q538 891 518 871T462 849Q427 848 407 871T387 922ZM431 922Q431 910 438 901T462 892Q495 892 495 923Q495 936 486 946T462 956Q446 956 439 945T431 922Z" />
<glyph unicode="&#xe6;" glyph-name="ae" horiz-adv-x="500" d="M488 308Q488 282 487 259T469 235Q451 235 401 235T277 234Q281 184 289 144T318 81T379 57Q437 57 451 116Q455 133 465 134T482 128T486 106Q475 62 447 38T379 13Q327 13 291 50T248 140Q234
84 215 55T174 15T127 4Q95 4 70 22T32 71T18 137Q18 175 33 207T75 258T140 277H222Q221 311 218 346T206 412T181 461T138 480Q100 480 73 454T39 381Q38 372 32 367T18 362Q11 364 8 371T5 387Q10 448 48 486T138 524Q160 524 183 512T224 472T248 399Q251 413
259 433T280 474T314 507T364 521Q411 521 438 491T476 412T488 308ZM276 277Q285 277 310 277T364 278T418 278T451 279Q453 305 451 339T440 404T413 457T364 478Q336 478 319 459T293 410T281 344T276 277ZM127 48Q154 48 171 65T198 111T214 171T221 233H140Q97
233 76 206T55 137Q55 101 73 75T127 48Z" />
<glyph unicode="&#xe7;" glyph-name="ccedilla" horiz-adv-x="500" d="M398 343Q369 399 304 419Q240 437 177 405Q113 374 98 285Q82 198 127 125Q171 54 259 57Q343 58 387 111Q406 124 420 116Q432 107 416 78Q362 15 295 6Q228 -4 180 19Q156 30 137 45T101
80Q67 117 55 181Q41 243 61 323Q79 405 154 447Q228 490 313 466Q396 440 436 367Q442 334 432 327Q420 320 398 343ZM480 30Q483 38 491 42T508 43Q516 40 520 32T521 15L496 -46Q505 -45 513 -45Q568 -45 604 -73T641 -146Q641 -195 598 -222T494 -250Q484 -250
472 -249T447 -246Q438 -244 433 -237T428 -221Q430 -213 437 -207T453 -203Q476 -206 494 -206Q540 -206 568 -190T597 -146Q597 -120 573 -105T513 -89Q493 -89 467 -95Q454 -98 446 -88Q438 -80 441 -66L480 30Z" />
<glyph unicode="&#xe8;" glyph-name="egrave" horiz-adv-x="500" d="M93 207Q98 174 108 149T136 105Q152 88 177 75T236 54Q305 38 384 63Q411 69 415 52Q419 33 393 21Q315 -6 240 6Q163 17 113 67Q62 118 56 207Q52 252 56 287T71 350Q82 376 96 396T128 431Q163
460 206 472Q227 477 248 478T289 477Q330 471 363 449Q381 439 395 426T419 396Q437 363 448 318Q457 273 451 242Q445 211 422 208L93 207ZM408 248Q418 322 382 374Q342 426 293 433Q241 441 199 426Q178 418 160 403T127 363Q97 316 99 249L408 248ZM600 818Q607
807 605 796T595 780Q586 774 575 776T555 791L486 905Q476 922 474 933T478 951Q486 959 498 960T524 940L600 818Z" />
<glyph unicode="&#xe9;" glyph-name="eacute" horiz-adv-x="500" d="M93 207Q98 174 108 149T136 105Q152 88 177 75T236 54Q305 38 384 63Q411 69 415 52Q419 33 393 21Q315 -6 240 6Q163 17 113 67Q62 118 56 207Q52 252 56 287T71 350Q82 376 96 396T128 431Q163
460 206 472Q227 477 248 478T289 477Q330 471 363 449Q381 439 395 426T419 396Q437 363 448 318Q457 273 451 242Q445 211 422 208L93 207ZM408 248Q418 322 382 374Q342 426 293 433Q241 441 199 426Q178 418 160 403T127 363Q97 316 99 249L408 248ZM266 920Q276
939 289 943T314 942T330 924T323 897L244 785Q234 771 223 772T205 782T204 802L266 920Z" />
<glyph unicode="&#xea;" glyph-name="ecircumflex" horiz-adv-x="500" d="M93 207Q98 174 108 149T136 105Q152 88 177 75T236 54Q305 38 384 63Q411 69 415 52Q419 33 393 21Q315 -6 240 6Q163 17 113 67Q62 118 56 207Q52 252 56 287T71 350Q82 376 96 396T128
431Q163 460 206 472Q227 477 248 478T289 477Q330 471 363 449Q381 439 395 426T419 396Q437 363 448 318Q457 273 451 242Q445 211 422 208L93 207ZM408 248Q418 322 382 374Q342 426 293 433Q241 441 199 426Q178 418 160 403T127 363Q97 316 99 249L408 248ZM154
552L245 647Q251 653 261 653Q270 653 276 647L367 552Q381 536 366 521Q350 507 335 522L261 600L186 522Q180 515 171 515T155 521Q140 536 154 552Z" />
<glyph unicode="&#xeb;" glyph-name="edieresis" horiz-adv-x="500" d="M93 207Q98 174 108 149T136 105Q152 88 177 75T236 54Q305 38 384 63Q411 69 415 52Q419 33 393 21Q315 -6 240 6Q163 17 113 67Q62 118 56 207Q52 252 56 287T71 350Q82 376 96 396T128
431Q163 460 206 472Q227 477 248 478T289 477Q330 471 363 449Q381 439 395 426T419 396Q437 363 448 318Q457 273 451 242Q445 211 422 208L93 207ZM408 248Q418 322 382 374Q342 426 293 433Q241 441 199 426Q178 418 160 403T127 363Q97 316 99 249L408 248ZM231
567Q231 545 218 531T178 516Q159 516 143 529T127 563Q127 588 143 601T181 615Q206 615 218 601T231 567ZM395 567Q395 545 382 531T342 516Q323 516 307 529T291 563Q291 588 307 601T345 615Q370 615 382 601T395 567Z" />
<glyph unicode="&#xec;" glyph-name="igrave" horiz-adv-x="500" d="M259 26Q252 -7 228 -5Q203 -3 208 26L204 453Q205 486 229 485Q254 483 255 454L259 26ZM564 825Q571 814 569 803T559 787Q550 781 539 783T519 798L450 912Q440 929 438 940T442 958Q450
966 462 967T488 947L564 825Z" />
<glyph unicode="&#xed;" glyph-name="iacute" horiz-adv-x="600" d="M259 26Q252 -7 228 -5Q203 -3 208 26L204 453Q205 486 229 485Q254 483 255 454L259 26ZM489 939Q499 958 512 962T537 961T553 943T546 916L467 804Q457 790 446 791T428 801T427 821L489 939Z" />
<glyph unicode="&#xee;" glyph-name="icircumflex" horiz-adv-x="500" d="M259 26Q252 -7 228 -5Q203 -3 208 26L204 453Q205 486 229 485Q254 483 255 454L259 26ZM124 555L215 650Q221 656 231 656Q240 656 246 650L337 555Q351 539 336 524Q320 510 305 525L231
603L156 525Q150 518 141 518T125 524Q110 539 124 555Z" />
<glyph unicode="&#xef;" glyph-name="idieresis" horiz-adv-x="500" d="M259 26Q252 -7 228 -5Q203 -3 208 26L204 453Q205 486 229 485Q254 483 255 454L259 26ZM197 584Q197 562 184 548T144 533Q125 533 109 546T93 580Q93 605 109 618T147 632Q172 632 184
618T197 584ZM361 584Q361 562 348 548T308 533Q289 533 273 546T257 580Q257 605 273 618T311 632Q336 632 348 618T361 584Z" />
<glyph unicode="&#xf0;" glyph-name="eth" horiz-adv-x="500" d="M240 -2Q186 -2 137 27T58 105T27 215Q27 269 52 320T126 404T243 438Q297 438 342 415T418 351Q417 362 410 388T387 449T347 521T285 592L101 458Q96 454 88 454Q79 454 73 460T66 475Q66 487
75 493L250 620Q219 642 181 658T95 683Q82 685 80 694T77 708Q79 716 85 721T99 726Q109 726 137 719T205 695T286 647L389 722Q394 726 402 726Q409 726 416 721T423 704Q423 693 415 687L320 618Q362 580 398 525T454 391Q469 331 469 275Q469 194 440 132T359
34T240 -2ZM243 395Q193 395 154 370T93 304T71 217Q71 169 94 130T156 66T241 42Q290 42 329 66T393 137T421 246Q405 307 373 339T306 383T243 395Z" />
<glyph unicode="&#xf1;" glyph-name="ntilde" horiz-adv-x="500" d="M88 468Q91 499 106 500Q122 500 126 470V332Q141 396 175 433Q209 470 272 474Q338 479 377 427Q397 402 410 364T428 275Q433 225 432 161T424 20Q416 -6 396 -2Q377 4 378 28Q385 102 386
161T383 267Q374 356 343 395Q311 431 267 427Q223 423 188 368Q172 341 161 308T146 236Q143 197 141 163T140 99Q141 70 140 47T136 8Q103 -17 92 21L88 468ZM175 561Q171 553 163 549T147 549Q138 553 135 561T135 577Q146 603 164 619T210 636Q234 636 252
625T286 603T318 592Q335 592 342 620Q344 628 352 633T369 636Q377 634 381 626T384 609Q378 583 362 566T318 548Q295 549 276 560T240 582T210 593Q199 593 190 584T175 561Z" />
<glyph unicode="&#xf2;" glyph-name="ograve" horiz-adv-x="500" d="M272 479Q330 481 376 443Q424 406 445 335Q467 265 449 183Q431 99 371 48Q310 -4 232 5Q151 14 105 62Q60 107 46 185Q32 259 58 337Q82 414 139 450Q195 487 272 479ZM285 440Q207 445 162
414Q114 383 96 320Q75 256 85 195Q90 164 101 139T131 94Q166 55 232 49Q296 43 349 86Q399 128 412 196Q425 264 406 324Q387 384 354 407Q339 418 322 427T285 440ZM572 827Q579 816 577 805T567 789Q558 783 547 785T527 800L458 914Q448 931 446 942T450 960Q458
968 470 969T496 949L572 827Z" />
<glyph unicode="&#xf3;" glyph-name="oacute" horiz-adv-x="500" d="M272 479Q330 481 376 443Q424 406 445 335Q467 265 449 183Q431 99 371 48Q310 -4 232 5Q151 14 105 62Q60 107 46 185Q32 259 58 337Q82 414 139 450Q195 487 272 479ZM285 440Q207 445 162
414Q114 383 96 320Q75 256 85 195Q90 164 101 139T131 94Q166 55 232 49Q296 43 349 86Q399 128 412 196Q425 264 406 324Q387 384 354 407Q339 418 322 427T285 440ZM260 916Q270 935 283 939T308 938T324 920T317 893L238 781Q228 767 217 768T199 778T198 798L260
916Z" />
<glyph unicode="&#xf4;" glyph-name="ocircumflex" horiz-adv-x="500" d="M272 479Q330 481 376 443Q424 406 445 335Q467 265 449 183Q431 99 371 48Q310 -4 232 5Q151 14 105 62Q60 107 46 185Q32 259 58 337Q82 414 139 450Q195 487 272 479ZM285 440Q207 445
162 414Q114 383 96 320Q75 256 85 195Q90 164 101 139T131 94Q166 55 232 49Q296 43 349 86Q399 128 412 196Q425 264 406 324Q387 384 354 407Q339 418 322 427T285 440ZM144 556L235 651Q241 657 251 657Q260 657 266 651L357 556Q371 540 356 525Q340 511 325
526L251 604L176 526Q170 519 161 519T145 525Q130 540 144 556Z" />
<glyph unicode="&#xf5;" glyph-name="otilde" horiz-adv-x="500" d="M272 479Q330 481 376 443Q424 406 445 335Q467 265 449 183Q431 99 371 48Q310 -4 232 5Q151 14 105 62Q60 107 46 185Q32 259 58 337Q82 414 139 450Q195 487 272 479ZM285 440Q207 445 162
414Q114 383 96 320Q75 256 85 195Q90 164 101 139T131 94Q166 55 232 49Q296 43 349 86Q399 128 412 196Q425 264 406 324Q387 384 354 407Q339 418 322 427T285 440ZM168 557Q164 549 156 545T140 545Q131 549 128 557T128 573Q139 599 157 615T203 632Q227 632
245 621T279 599T311 588Q328 588 335 616Q337 624 345 629T362 632Q370 630 374 622T377 605Q371 579 355 562T311 544Q288 545 269 556T233 578T203 589Q192 589 183 580T168 557Z" />
<glyph unicode="&#xf6;" glyph-name="odieresis" horiz-adv-x="500" d="M272 479Q330 481 376 443Q424 406 445 335Q467 265 449 183Q431 99 371 48Q310 -4 232 5Q151 14 105 62Q60 107 46 185Q32 259 58 337Q82 414 139 450Q195 487 272 479ZM285 440Q207 445
162 414Q114 383 96 320Q75 256 85 195Q90 164 101 139T131 94Q166 55 232 49Q296 43 349 86Q399 128 412 196Q425 264 406 324Q387 384 354 407Q339 418 322 427T285 440ZM208 560Q208 538 195 524T155 509Q136 509 120 522T104 556Q104 581 120 594T158 608Q183
608 195 594T208 560ZM372 560Q372 538 359 524T319 509Q300 509 284 522T268 556Q268 581 284 594T322 608Q347 608 359 594T372 560Z" />
<glyph unicode="&#xf7;" glyph-name="divide" horiz-adv-x="500" d="M310 643Q331 619 331 589Q331 557 310 536Q288 514 257 514Q226 514 204 536Q182 558 182 589Q182 604 187 617T204 642Q227 663 257 663Q287 663 310 643ZM456 386Q493 381 492 359Q490 337
456 333L42 334Q7 334 7 358Q7 382 45 387L456 386ZM302 185Q324 160 324 131Q324 99 303 78Q281 56 249 56Q217 56 196 78Q174 102 174 131Q174 163 196 184Q219 205 249 205Q279 205 302 185Z" />
<glyph unicode="&#xf8;" glyph-name="oslash" horiz-adv-x="500" d="M103 -82Q85 -105 67 -94Q47 -83 60 -60L121 47Q113 54 105 62Q60 107 46 185Q32 259 58 337Q82 414 139 450Q195 487 272 479Q318 480 357 457L405 541Q429 571 447 558Q466 545 450 523L395
426Q428 391 445 335Q467 265 449 183Q431 99 371 48Q310 -4 232 5Q193 9 163 22L103 -82ZM285 440Q207 445 162 414Q114 383 96 320Q75 256 85 195Q90 164 101 139T131 94Q136 88 142 83L335 420Q311 434 285 440ZM232 49Q296 43 349 86Q399 128 412 196Q425 264
406 324Q393 365 373 389L184 59Q205 51 232 49Z" />
<glyph unicode="&#xf9;" glyph-name="ugrave" horiz-adv-x="500" d="M114 447Q116 197 132 144Q148 90 177 68Q204 47 245 47Q285 47 316 70Q348 93 366 156Q386 219 384 438Q388 488 429 465Q439 374 435 17Q433 -12 412 -15Q392 -16 395 17Q395 55 392 101Q381
74 367 55T335 24Q300 1 248 -2Q197 -4 150 22Q105 47 82 127Q71 167 68 246T66 447Q70 479 93 479Q114 479 114 447ZM572 817Q579 806 577 795T567 779Q558 773 547 775T527 790L458 904Q448 921 446 932T450 950Q458 958 470 959T496 939L572 817Z" />
<glyph unicode="&#xfa;" glyph-name="uacute" horiz-adv-x="500" d="M114 447Q116 197 132 144Q148 90 177 68Q204 47 245 47Q285 47 316 70Q348 93 366 156Q386 219 384 438Q388 488 429 465Q439 374 435 17Q433 -12 412 -15Q392 -16 395 17Q395 55 392 101Q381
74 367 55T335 24Q300 1 248 -2Q197 -4 150 22Q105 47 82 127Q71 167 68 246T66 447Q70 479 93 479Q114 479 114 447ZM250 910Q260 929 273 933T298 932T314 914T307 887L228 775Q218 761 207 762T189 772T188 792L250 910Z" />
<glyph unicode="&#xfb;" glyph-name="ucircumflex" horiz-adv-x="500" d="M114 447Q116 197 132 144Q148 90 177 68Q204 47 245 47Q285 47 316 70Q348 93 366 156Q386 219 384 438Q388 488 429 465Q439 374 435 17Q433 -12 412 -15Q392 -16 395 17Q395 55 392
101Q381 74 367 55T335 24Q300 1 248 -2Q197 -4 150 22Q105 47 82 127Q71 167 68 246T66 447Q70 479 93 479Q114 479 114 447ZM399 830L490 925Q496 931 506 931Q515 931 521 925L612 830Q626 814 611 799Q595 785 580 800L506 878L431 800Q425 793 416 793T400
799Q385 814 399 830Z" />
<glyph unicode="&#xfc;" glyph-name="udieresis" horiz-adv-x="500" d="M114 447Q116 197 132 144Q148 90 177 68Q204 47 245 47Q285 47 316 70Q348 93 366 156Q386 219 384 438Q388 488 429 465Q439 374 435 17Q433 -12 412 -15Q392 -16 395 17Q395 55 392 101Q381
74 367 55T335 24Q300 1 248 -2Q197 -4 150 22Q105 47 82 127Q71 167 68 246T66 447Q70 479 93 479Q114 479 114 447ZM228 586Q228 564 215 550T175 535Q156 535 140 548T124 582Q124 607 140 620T178 634Q203 634 215 620T228 586ZM392 586Q392 564 379 550T339
535Q320 535 304 548T288 582Q288 607 304 620T342 634Q367 634 379 620T392 586Z" />
<glyph unicode="&#xfd;" glyph-name="yacute" horiz-adv-x="500" d="M435 399Q416 320 390 250T328 117Q258 -6 138 -125Q113 -142 102 -129Q89 -116 105 -92Q180 -33 250 84Q166 120 121 205Q99 248 85 299T66 410Q65 439 83 445Q102 450 105 425Q112 312 154
232Q196 155 274 120Q312 175 341 251T390 424Q401 446 419 438Q436 428 435 399ZM270 871Q280 890 293 894T318 893T334 875T327 848L248 736Q238 722 227 723T209 733T208 753L270 871Z" />
<glyph unicode="&#xfe;" glyph-name="thorn" horiz-adv-x="500" d="M145 -5Q136 -5 130 1T124 17V701Q124 710 130 716T145 722Q154 722 160 716T167 701V502Q193 528 215 535T270 542Q313 542 347 520T403 459T424 371V368Q424 316 404 276T350 214T273 191Q208
191 167 230V17Q167 8 161 2T145 -5ZM273 234Q320 234 350 273T381 368V371Q381 409 366 437T325 482T270 498Q230 498 203 475T167 410V309Q182 270 209 252T273 234Z" />
<glyph unicode="&#xff;" glyph-name="ydieresis" horiz-adv-x="500" d="M435 399Q416 320 390 250T328 117Q258 -6 138 -125Q113 -142 102 -129Q89 -116 105 -92Q180 -33 250 84Q166 120 121 205Q99 248 85 299T66 410Q65 439 83 445Q102 450 105 425Q112 312
154 232Q196 155 274 120Q312 175 341 251T390 424Q401 446 419 438Q436 428 435 399ZM226 533Q226 511 213 497T173 482Q154 482 138 495T122 529Q122 554 138 567T176 581Q201 581 213 567T226 533ZM390 533Q390 511 377 497T337 482Q318 482 302 495T286 529Q286
554 302 567T340 581Q365 581 377 567T390 533Z" />
<glyph unicode="&#x2013;" glyph-name="endash" horiz-adv-x="500" d="M2 240V296H500V240H2Z" />
<glyph unicode="&#x2014;" glyph-name="emdash" horiz-adv-x="500" d="M2 240V296H1000V240H2Z" />
<glyph unicode="&#x2018;" glyph-name="quoteleft" horiz-adv-x="500" d="M294 737Q241 701 224 638Q268 646 298 630T328 580Q328 547 310 526T252 503Q209 502 185 534T161 612Q162 636 168 657T183 698Q199 734 231 757T293 784Q323 787 321 769Q320 750 294 737Z" />
<glyph unicode="&#x2019;" glyph-name="quoteright" horiz-adv-x="500" d="M209 546Q265 585 279 651Q234 641 202 657T168 708Q167 742 189 765T250 790Q281 792 302 776T333 735T343 680Q343 639 327 600T282 532T212 497Q183 492 183 513Q183 532 209 546Z" />
<glyph unicode="&#x201a;" glyph-name="quotesinglbase" horiz-adv-x="500" d="M202 73Q213 48 216 20T211 -38Q189 -109 120 -133Q118 -134 113 -134Q107 -134 102 -130T94 -119Q92 -111 95 -104T108 -93Q140 -83 153 -62T170 -26Q172 -20 173 -14T175 -1Q166
-7 157 -10T136 -14Q108 -14 88 6T68 54Q68 83 88 102T136 122Q160 122 178 109T202 73Z" />
<glyph unicode="&#x201c;" glyph-name="quotedblleft" horiz-adv-x="500" d="M200 737Q173 721 157 697T133 643Q176 650 204 635T233 588Q233 557 215 537T159 514Q130 513 111 528T82 567T73 618Q75 656 91 692T135 753T199 782Q228 785 226 768Q225 758 219
752T200 737ZM399 737Q348 703 331 643Q375 650 403 635T431 588Q431 557 413 537T359 514Q329 513 310 528T281 567T272 618Q274 657 290 692T334 753T398 782Q426 785 424 768Q423 758 417 752T399 737Z" />
<glyph unicode="&#x201d;" glyph-name="quotedblright" horiz-adv-x="500" d="M107 558Q156 591 170 652Q127 644 100 658T70 703Q69 734 88 755T145 778Q186 780 207 749T228 678Q228 642 214 607T173 546T109 514Q83 509 83 527Q83 536 89 543T107 558ZM311
558Q360 592 372 652Q331 644 303 658T273 703Q272 734 291 755T347 778Q388 780 410 748T431 678Q430 636 414 601T371 543T313 514Q286 510 286 527Q286 536 292 543T311 558Z" />
<glyph unicode="&#x201e;" glyph-name="quotedblbase" horiz-adv-x="500" d="M166 73Q177 48 180 20T175 -38Q153 -109 84 -133Q82 -134 77 -134Q71 -134 66 -130T58 -119Q56 -111 59 -104T72 -93Q104 -83 117 -62T134 -26Q136 -20 137 -14T139 -1Q130 -7 121
-10T100 -14Q72 -14 52 6T32 54Q32 83 52 102T100 122Q124 122 142 109T166 73ZM350 69Q361 44 364 16T359 -42Q337 -113 268 -137Q266 -138 261 -138Q255 -138 250 -134T242 -123Q240 -115 243 -108T256 -97Q288 -87 301 -66T318 -30Q320 -24 321 -18T323 -5Q314
-11 305 -14T284 -18Q256 -18 236 2T216 50Q216 79 236 98T284 118Q308 118 326 105T350 69Z" />
<glyph unicode="&#x2022;" glyph-name="bullet" horiz-adv-x="500" d="M250 127Q209 127 176 147T122 200T102 275Q102 316 122 349T175 403T250 423Q291 423 324 403T378 350T398 275Q398 234 378 201T325 147T250 127Z" />
<glyph unicode="&#x2039;" glyph-name="guilsinglleft" horiz-adv-x="500" d="M218 99Q211 99 205 103Q193 112 170 129T121 167T77 210T52 250Q45 276 62 303T107 355T162 399T205 428Q213 433 223 431T239 421Q249 398 229 387Q193 365 162 340T113 294T98 263Q101
253 121 233T172 189T232 143Q240 138 242 128T239 110Q231 99 218 99Z" />
<glyph unicode="&#x203a;" glyph-name="guilsinglright" horiz-adv-x="500" d="M138 104Q123 104 117 115Q112 123 113 133T124 150Q155 171 185 195T236 240T260 273Q263 283 245 304T196 352T126 400Q105 412 117 435Q122 443 132 444T152 441Q167 432 195 413T252
368T297 314T308 259Q304 240 284 218T238 173T188 134T152 108Q146 104 138 104Z" />
</font>
</defs>
</svg>
