<?xml version="1.0" standalone="no"?>
<!DOCTYPE svg PUBLIC "-//W3C//DTD SVG 1.1//EN" "http://www.w3.org/Graphics/SVG/1.1/DTD/svg11.dtd">
<svg xmlns="http://www.w3.org/2000/svg">
<defs >
<font id="QwitcherGrypen" horiz-adv-x="379" ><font-face
    font-family="Qwitcher Grypen"
    units-per-em="1000"
    panose-1="0 0 0 0 0 0 0 0 0 0"
    ascent="800"
    descent="-300"
    alphabetic="0" />
<glyph unicode=" " glyph-name="space" horiz-adv-x="167" />
<glyph unicode="!" glyph-name="exclam" horiz-adv-x="344" d="M58 83Q51 87 48 90T44 100Q44 103 44 106T46 114Q53 145 70 177T108 241T149 303Q151 307 151 310T152 317Q155 330 170 350T203 389T232 418Q237 419 245 420T260 422Q274 422 273 412Q273 411
264 401T245 381T232 366Q213 340 188 307T138 238T95 168T70 106Q89 111 97 119T112 135Q115 136 115 136T112 130Q111 127 108 123T102 115Q98 109 89 99T72 86Q70 85 66 84T58 83ZM37 -20Q30 -20 26 -11T19 10T16 26Q16 36 19 38T29 43V44Q40 43 42 39T48 32V10Q48
8 50 6T53 1Q53 -1 48 -8T40 -20H37Z" />
<glyph unicode="&quot;" glyph-name="quotedbl" horiz-adv-x="195" d="M82 289Q79 289 79 293Q79 307 91 317T103 337Q103 342 101 345T99 353Q99 363 106 370T124 377Q134 377 134 366Q134 360 133 352T126 340Q122 337 113 325T94 301T82 289ZM143 289Q140 289
140 293Q140 307 151 317T163 337Q163 342 161 345T159 353Q159 363 167 370T185 377Q194 377 194 366Q194 360 193 352T187 340Q183 337 174 325T155 301T143 289Z" />
<glyph unicode="#" glyph-name="numbersign" horiz-adv-x="557" d="M103 27Q98 27 97 32T95 41Q95 53 102 74T119 116T133 149H57Q52 149 37 149T8 154T-6 166Q-6 174 8 177T29 181H146Q157 212 168 242T190 304Q172 304 154 304T119 303Q114 303 98 304T69 309T55
321Q55 329 69 332T90 336Q118 336 145 336T201 335L234 426Q235 429 241 443T251 457Q256 457 257 452T258 442Q258 412 251 387T234 334Q263 334 293 334T352 333H368Q371 339 378 358T395 400T413 439T426 456Q431 456 432 450T433 440Q433 412 425 386T406
334Q436 334 466 335T526 337H530Q535 337 541 336T548 331Q548 326 537 322T510 313T481 307T462 305H396L349 182H451Q454 182 462 182T478 181T486 175Q486 170 475 166T448 158T419 153T401 151L338 150Q335 142 328 123T312 81T294 43T276 27Q271 27 269 32T267
41Q267 53 274 74T290 116T303 150H164Q161 142 155 122T139 80T121 43T103 27ZM176 182H314Q325 213 335 243T357 305L222 304L176 182Z" />
<glyph unicode="$" glyph-name="dollar" horiz-adv-x="344" d="M34 -73V-72Q36 -68 38 -54T42 -25T45 -11V-9Q42 -9 42 -8Q42 -4 45 7T50 24Q41 28 33 28T16 30T-3 45Q2 45 12 39T38 32H44Q52 32 54 34Q59 50 68 76T86 116L87 117L86 118H87L89 120Q89 123 93
134T103 154T109 164V165L105 167Q97 167 82 176T53 198T33 217Q26 229 26 240Q26 259 39 274T71 302T104 323H106Q110 325 112 325V326Q118 328 126 330T138 338Q146 340 155 343T171 346Q182 351 195 353T221 355Q224 357 231 366T245 386T252 400L249 399Q247
403 244 403Q245 410 255 421T271 437Q273 439 276 440T281 443Q286 441 293 439T301 429Q301 425 289 412T273 393Q272 392 271 389T268 383Q265 376 256 370T246 355Q257 351 271 339T285 313Q285 302 274 295T256 281Q254 279 250 272T244 264Q243 264 242 264T240
265L239 267Q239 273 244 276T250 285Q252 291 254 300T257 315Q257 322 252 329T239 336Q236 336 233 333Q232 332 225 323T212 304T205 293L204 291H200Q199 286 196 282T193 272Q192 273 192 273T192 272H188V266L185 264L186 259L185 258H182Q181 257 181 251Q179
253 177 250H176L175 246L173 245Q172 246 172 246T172 245Q172 244 169 237T164 228Q160 225 158 220T149 214Q150 212 150 209Q150 205 145 205L146 199V198Q143 198 142 193T139 186Q138 186 138 186T135 185Q134 185 134 181Q134 175 139 173Q165 166 191 155T236
123Q241 118 244 113T248 100Q248 82 229 73T195 58Q190 56 184 53T172 47Q158 44 150 40L122 34Q110 31 98 30T73 25Q67 25 67 19H63L64 13H63Q57 9 57 0L45 -46Q44 -51 41 -55T38 -65Q37 -66 37 -69T34 -73ZM116 181L151 244Q154 249 160 257T166 271L170 273Q170
275 173 281T178 287V288Q185 299 193 311T207 335H200Q198 335 187 333T174 328Q171 327 169 325T164 322Q157 321 151 320T138 317Q133 312 127 309T114 304Q108 301 97 291T75 273T62 263Q55 253 50 250T44 226Q44 222 45 219T47 212Q52 209 67 202T96 188T116
181ZM68 35H73Q76 35 78 37Q79 37 82 37T85 38H87Q94 39 100 41T112 45L115 44V46L116 45H117V46L120 47L124 46V47Q127 50 132 50Q133 50 133 50T134 51L142 54H143L144 52V53Q146 54 151 56T159 59L166 62V63H167Q177 63 179 67T188 75Q197 80 206 83T216 100L225
108Q227 114 227 117Q227 122 223 126Q215 135 204 137T181 142Q167 147 152 152T122 158L120 156Q121 155 121 153Q121 151 117 151Q117 150 118 149T119 145Q118 144 115 144L113 142Q115 140 115 138L114 136L108 137Q110 133 110 131Q110 126 105 126V122Q100
117 99 105T89 90Q88 85 86 79T80 68Q79 55 74 48T68 35Z" />
<glyph unicode="%" glyph-name="percent" horiz-adv-x="325" d="M45 42Q38 42 36 48T34 60Q34 76 48 104T85 168T136 241T189 313T237 374T269 411Q255 405 234 398T192 385T154 379Q154 378 154 378T155 377Q155 367 145 350T120 315T88 285T59 273H52Q40 273
34 284T27 306Q27 319 38 341T67 385T103 422T135 437Q159 437 159 412Q159 408 159 404T157 395Q158 394 161 394Q178 394 201 400T248 414T287 430Q288 431 289 431Q293 431 304 422T315 408Q315 403 310 400Q300 388 278 362T226 303T165 234T108 163T66 103T49
62Q49 55 52 54T56 50Q56 47 52 45T45 42ZM60 288Q70 288 83 298T110 324T133 354T143 378Q138 381 133 387T124 400Q115 400 102 389T77 360T57 327T49 302Q49 297 51 293T60 288ZM146 58Q134 58 128 69T122 91Q122 104 133 126T162 170T197 207T230 222Q254 222
254 196Q254 188 251 179Q253 177 256 177T260 174Q260 170 256 168T249 163V161Q249 150 239 133T214 99T182 70T154 58H146ZM155 72Q164 72 178 82T205 108T228 138T238 162Q233 166 228 172T219 184Q210 184 197 173T172 145T152 112T144 87Q144 72 155 72Z"
/>
<glyph unicode="&amp;" glyph-name="ampersand" horiz-adv-x="481" d="M373 -58Q348 -58 334 -39T310 2Q308 9 305 15T298 28Q297 30 296 38T292 46Q288 46 282 40T272 33Q260 29 249 23T226 10Q222 8 210 6T186 2T169 0Q144 0 125 21T106 66V74Q107 76 109 85T113
104T120 113V114L119 117Q121 119 126 128T132 138Q123 134 117 131T109 126L92 120Q92 119 92 119T91 119Q91 119 93 119V118Q83 117 68 106T33 94Q6 94 6 122Q6 133 21 147T48 163Q56 172 77 183T111 195Q115 198 120 198T129 199Q129 198 129 198T130 198V197Q121
193 112 190T95 183Q77 174 55 159T20 128Q19 127 18 125T16 121Q16 118 20 117T27 116Q35 116 58 125T106 145T146 163L151 169Q151 174 154 175Q154 177 157 178T161 181Q162 182 163 183T165 183L166 184V186Q166 188 168 191T174 195V198Q177 202 182 206T188
215L190 219Q193 220 199 220V224H200L203 225L201 227H202Q206 233 210 234L208 237H211V239H212V240H217L216 244L221 250Q224 250 225 253L228 254Q230 257 231 257Q231 260 237 263T243 271Q250 279 261 286T276 303Q279 309 279 315T280 329Q282 341 288 362T304
400T331 418Q332 419 333 419T335 420Q350 420 350 405Q350 397 349 389T346 372L348 370Q359 379 359 392Q359 395 358 397T357 403Q362 401 373 399T385 388Q385 380 375 369T353 348T336 331Q335 329 332 319T326 300T320 291V292Q319 292 319 295Q319 299 320
302T322 308L319 309H320L321 316Q320 316 318 315T314 312Q311 306 306 303T300 292Q300 288 300 285T301 279V278Q300 277 300 275Q300 274 300 273T301 270L297 268Q299 266 299 263T301 258L300 257L295 255V254H297Q296 253 296 251T296 247Q296 242 296 234T297
218Q309 222 321 224T345 227Q350 227 353 226H355Q371 227 384 217T402 191Q411 178 411 165Q411 157 408 151L390 136L389 134Q385 134 385 131T383 125Q379 122 378 118T375 108Q375 108 375 108T374 107L367 110Q364 103 353 91T333 78Q334 77 334 77T333 77Q332
73 327 71T321 63Q320 64 316 64H315Q320 39 328 16T347 -30Q350 -37 362 -44T382 -51Q385 -51 388 -51T393 -50Q416 -39 433 -22T463 18Q465 21 468 30T475 40Q473 27 468 13T465 -14L454 -29Q448 -38 433 -44T401 -54T373 -58ZM299 323Q315 340 322 347T331 364T333
395Q333 404 328 409L321 403Q315 388 306 366T297 328L298 325L299 323ZM179 176Q193 181 206 186T233 196Q235 197 247 201T260 207Q268 209 273 211V215Q273 230 274 245T276 275Q276 278 274 279Q271 276 261 266T238 243T216 220T206 207Q202 205 191 193T179
176ZM311 89L312 93L315 92H316Q317 95 320 98T327 102V103L329 104Q329 108 331 109T334 108Q335 110 337 113T341 117Q345 124 348 126T356 133L357 132L358 133V136L360 138H361L360 139Q361 141 363 145T368 149V152L370 153V156Q375 161 375 169L376 170L382
173Q382 174 382 174T381 175Q381 180 384 186T388 198Q381 204 371 206T350 208Q346 208 342 208T332 207Q323 205 314 204T297 197L300 178L298 175L300 171Q297 170 297 166Q298 166 298 166T300 165V163Q300 162 300 157T302 150L299 146V144Q301 143 303 132T307
110T309 94Q309 90 311 89ZM159 19Q164 19 169 19T180 20Q191 26 203 26Q208 31 215 34T229 38L235 42H238Q240 44 245 46T251 52L256 54V53Q258 54 259 55T261 57Q265 57 265 59Q269 58 270 62L271 61Q272 61 273 62T273 64Q274 65 277 65T282 67V70L287 69Q285
83 283 97T279 127Q278 138 277 149T275 172Q271 172 271 176T272 182V186Q272 187 272 188T273 192Q263 188 251 184T225 177Q217 176 209 173T192 167Q192 166 183 163T172 158L160 152Q158 149 157 146T153 140Q140 122 132 101T123 57Q123 35 130 27T159 19Z"
/>
<glyph unicode="&apos;" glyph-name="quotesingle" horiz-adv-x="131" d="M82 289Q79 289 79 293Q79 307 91 317T103 337Q103 342 101 345T99 353Q99 363 106 370T124 377Q134 377 134 366Q134 360 133 352T126 340Q122 337 113 325T94 301T82 289Z" />
<glyph unicode="(" glyph-name="parenleft" horiz-adv-x="274" d="M75 2Q71 2 69 5T64 11Q33 35 33 79Q33 91 36 102T40 125Q46 130 52 148T62 173Q76 205 95 232T137 285L138 286Q151 300 172 319T219 356T268 385T311 397Q325 397 335 392T354 378Q356 376 356
372Q356 364 348 367Q340 382 321 382Q304 382 288 374T259 356T240 347L241 346Q239 343 229 335T216 326Q212 319 205 314T193 304Q164 273 141 242H140Q137 238 129 224T112 198T102 184Q103 177 98 166T87 150V146Q86 144 85 138T81 130V127Q80 125 78 118T74
110V108Q74 104 73 100T71 92Q69 79 67 65T65 36Q65 20 80 10Q85 7 85 4Q85 -1 75 2Z" />
<glyph unicode=")" glyph-name="parenright" horiz-adv-x="274" d="M77 2Q64 2 53 7T33 21Q31 23 31 27Q31 36 40 33Q48 18 66 18Q84 18 100 26T129 43T147 52V53Q149 56 159 64T172 73Q176 81 182 85T195 96Q209 111 222 126T247 157H248Q251 161 259 175T275
201T286 215Q285 222 290 233T300 250V253Q302 255 303 261T307 269L306 272Q308 274 310 281T314 289V292Q314 296 315 299T317 307Q319 321 320 335T322 363Q322 380 308 390Q303 393 303 396Q303 400 313 397H314Q317 397 319 394T324 389Q354 363 354 320Q354
309 351 298T348 275H347Q342 271 336 253T325 226Q312 195 293 168T251 115L250 113Q237 99 216 80T169 43T120 14T77 2Z" />
<glyph unicode="*" glyph-name="asterisk" horiz-adv-x="248" d="M108 154Q104 154 103 159T102 168Q102 180 106 196T112 224Q110 222 98 213T72 195T51 186Q46 186 46 191Q46 193 49 198T55 204L101 238Q96 238 78 238T44 239T28 247Q28 251 34 253T44 256L106
258Q103 263 94 276T77 302T68 320Q68 320 68 321T69 323Q71 325 72 325Q75 325 80 322T87 317L123 271L135 323Q136 327 138 337T145 347Q150 347 150 339T151 327Q151 312 148 298T142 268Q144 269 157 279T186 299T204 309Q208 309 208 305Q208 298 198 288T175
269T156 256H216Q220 256 224 256T229 251Q229 245 212 242T176 239T152 238Q152 238 159 229T175 207T191 185T198 173Q198 170 194 170Q188 170 176 181T152 205T135 223Q134 218 130 201T119 169T108 154Z" />
<glyph unicode="+" glyph-name="plus" horiz-adv-x="286" d="M111 47Q105 47 102 53T98 65Q98 69 103 87T113 125T120 149Q115 149 98 149T62 151T28 156T13 165Q13 172 19 177T31 182Q56 182 80 182T130 183Q139 214 148 245T165 308Q171 309 172 298T173 283Q173
258 170 233T162 183H213Q230 183 246 183T279 185V182Q279 176 263 171T225 162T183 156T157 152Q156 147 151 131T138 95T124 61T111 47Z" />
<glyph unicode="," glyph-name="comma" horiz-adv-x="98" d="M24 -52Q21 -52 21 -47Q21 -33 32 -24T44 -3Q44 1 42 5T40 13Q40 23 48 30T66 37Q75 37 75 25Q75 20 74 12T68 0Q64 -3 55 -16T36 -40T24 -52Z" />
<glyph unicode="-" glyph-name="hyphen" horiz-adv-x="269" d="M46 144Q43 145 42 148T40 155Q40 159 42 161Q43 164 53 165T73 166T87 166L137 167Q145 167 153 167T168 168Q181 168 196 168T224 163Q229 160 229 155Q229 154 226 151Q223 151 221 151T217 153Q207
156 192 156Q186 156 183 155H148Q144 154 141 154T135 154Q131 153 122 153T102 152H82Q72 151 67 150T49 144H46Z" />
<glyph unicode="." glyph-name="period" horiz-adv-x="98" d="M57 -1Q53 -1 47 4T40 13Q40 15 47 22T62 37T73 46Q81 44 81 38Q81 34 77 25T67 7T57 -1Z" />
<glyph unicode="/" glyph-name="slash" horiz-adv-x="425" d="M35 -73Q26 -73 22 -63T17 -46Q17 -23 32 6T66 63T98 110Q117 138 136 165T176 220Q181 227 197 249T237 302T285 366T334 427T374 474T395 492Q403 492 414 488T426 474V472Q426 466 421 461Q398
431 374 403T325 345Q273 281 222 217T121 86Q111 72 92 48T57 -2T41 -44Q41 -55 46 -57T51 -62Q51 -66 45 -69T35 -73Z" />
<glyph unicode="0" glyph-name="zero" horiz-adv-x="274" d="M67 -9Q54 -9 45 -3T27 12Q21 20 20 29T18 48Q18 70 24 89T40 128Q41 130 42 132T45 135Q45 139 47 142T51 149Q58 160 69 175T93 203T121 215L128 214H131Q139 214 143 207T152 200Q149 199 147 199T141
200Q128 200 113 184T84 149T65 118Q63 114 60 110T56 100Q53 98 48 85T39 57T35 37V28L38 22H36Q41 2 59 2Q72 2 84 9T106 22T120 29H119Q121 31 128 37T138 44Q141 49 146 53T155 61Q166 72 175 83T194 107H195Q197 110 203 120T216 140T223 151Q223 156 227
164T234 177V179Q236 181 237 186T240 191L239 194Q241 196 242 201T245 206V210Q245 214 247 220Q249 231 250 241T251 262Q251 275 241 281T219 287Q194 287 168 274T122 248T98 234Q97 231 88 223T66 203T45 181T35 165H34L35 177Q36 180 42 193T52 206Q52 214
61 214L70 227L72 228L73 227Q75 234 86 239T102 250V252H105Q104 253 109 256T116 260Q125 266 141 280T167 295V296Q171 298 179 300T191 303H200Q211 303 223 299T244 287Q261 276 268 263T275 230Q275 221 273 213T270 195Q266 192 261 179T253 159Q243 135
229 115T197 76V74Q184 60 160 41T111 6T67 -9Z" />
<glyph unicode="1" glyph-name="one" horiz-adv-x="171" d="M44 -28Q31 -28 26 -20T21 1Q21 21 28 43T43 84Q44 87 47 95T53 111T58 119V121Q58 126 61 130T66 140L70 146V149Q72 152 77 162T87 183T94 193Q94 194 100 206T112 232T120 248H118L112 243Q106 242
101 238T91 232V234Q109 251 118 262T141 295L143 296Q144 297 147 297Q154 296 162 294T170 283Q170 275 162 265T149 246Q142 233 134 220T117 195H116L117 201Q113 195 111 188T105 175Q91 153 81 128T59 80L55 73Q52 65 51 57T44 41L45 38Q46 28 42 18T37 -3Q37
-6 37 -12T39 -22V-23Q43 -23 46 -22T52 -21L54 -22L52 -28H44Z" />
<glyph unicode="2" glyph-name="two" horiz-adv-x="328" d="M35 -19Q28 -19 23 -12T18 1Q18 8 36 26T85 69T148 121T213 175T266 223T293 257Q294 259 295 261T296 266H295Q288 270 280 271T263 272Q243 272 231 268T201 258Q197 257 193 257T185 254Q178 252
168 245T149 238Q147 236 140 233T133 227H141Q141 226 132 220T114 208T103 200Q97 198 94 198Q90 198 84 205T78 216Q85 221 92 226T106 234Q106 235 108 235Q110 237 117 241T133 248T141 252Q143 255 154 260T180 270T204 278T214 282L237 285V284Q240 286
243 286T249 286L250 287Q256 286 261 287Q278 284 293 279T309 251Q309 241 305 231T294 212Q285 202 275 195T254 179Q239 168 225 157T195 135Q185 128 175 121T153 106Q145 99 134 91T117 74Q114 72 106 65T89 52T78 45Q76 38 65 32T49 19L51 18Q54 18 63 22T83
31T100 35Q105 38 111 40T124 43Q129 47 134 48T144 52V53L151 52L160 57L161 56Q163 57 172 59T182 64L186 63Q190 65 191 65Q195 66 198 66T205 67L210 70H213L223 72H228L227 74H228V73Q238 74 247 75T265 76Q271 76 282 74T303 68T313 55Q313 51 309 47H308Q307
59 295 61T274 65Q270 62 257 62T239 61Q233 57 224 57L219 54L218 55Q199 49 181 43T143 32Q127 28 101 15T58 -7Q53 -10 48 -14T35 -19Z" />
<glyph unicode="3" glyph-name="three" horiz-adv-x="252" d="M-18 -91Q-23 -91 -33 -88T-43 -77Q-46 -75 -46 -71Q-46 -68 -45 -64T-39 -60V-59H-38L-39 -69Q-39 -80 -28 -80Q-18 -80 -11 -76Q-11 -76 -10 -76H-8Q3 -71 15 -66T39 -53Q42 -51 53 -43T76 -28T92
-19Q95 -11 103 -7T116 3Q130 15 147 31T177 67T190 106Q190 139 156 139Q134 139 107 129T59 108Q55 107 51 102T41 96Q37 96 32 99T27 107Q27 111 26 115T25 123Q36 131 49 135T75 146L77 145V147Q93 154 109 161T141 177H143Q145 180 150 182T159 185V188Q168
194 182 204T207 226T219 248Q219 257 208 262T183 268T163 270Q152 270 130 266T89 252T70 227Q70 225 71 222T72 217H71Q62 222 57 237T52 262L54 264H57Q59 265 61 265T65 268L68 267Q70 269 74 269Q73 270 74 270T74 271L79 273H81V272Q90 277 98 278T114 282V283Q115
283 115 283T117 282Q124 282 130 283T143 284V285L148 286Q153 286 158 286T167 287Q172 287 185 284T203 278Q214 274 222 266T231 243Q231 224 217 209T183 182T150 164T134 155L133 154Q136 154 138 154T143 155Q151 155 159 153T175 149Q177 149 179 147T186
144L185 141Q193 135 199 119T205 92Q205 82 202 73Q196 47 176 25T135 -15Q115 -30 89 -48T36 -78T-18 -91Z" />
<glyph unicode="4" glyph-name="four" horiz-adv-x="252" d="M147 -7Q145 -7 143 -6T138 -4Q128 1 125 11T122 31Q122 46 124 60T131 89V90Q133 94 137 106T146 129T150 143Q140 142 132 138T114 129Q109 127 103 125T91 120Q87 119 79 113T66 107L48 99Q43 97
40 94T31 90Q22 90 14 99T6 117Q6 126 15 134T30 149L35 151V152Q35 153 35 153T36 152Q38 152 40 154Q42 157 50 163T67 175T79 182Q79 183 79 183T78 183Q84 191 95 197V198Q96 199 103 205T119 217T130 224V225L132 224Q133 228 142 236T156 244Q155 245 155
245T156 246Q159 249 162 251T169 255Q177 261 185 267T200 280Q203 282 206 285T213 290H215Q217 290 220 287T226 284Q232 284 233 289Q234 293 240 302T254 321T264 334Q269 333 280 328T291 315Q291 313 290 312Q286 308 282 303T273 293Q269 290 265 288T256
281Q252 277 242 262T219 227T196 192T184 171Q190 171 196 172T209 175V176Q217 176 223 177T237 179Q240 179 244 179T249 174Q249 170 239 170T229 166H228L229 163Q224 164 219 164T209 163Q204 156 202 157T192 156Q188 155 188 154T181 153Q172 140 166 129T156
102Q155 95 146 72T136 23Q136 11 140 6Q142 3 147 1T152 -4Q152 -7 147 -7ZM26 118Q38 117 52 123T78 136T98 143Q105 148 119 153T141 158Q144 160 147 161T154 162Q162 166 163 167T168 177Q169 179 170 181T173 184L171 185H172Q174 188 177 194T182 202Q183
206 185 209T187 216L191 219Q191 221 192 221Q192 225 197 230Q199 232 199 232Q200 235 201 237T203 242Q205 245 209 253T214 265Q200 254 185 245T155 225Q145 217 134 209T111 193L110 191H108L106 192Q106 191 105 191V190Q106 186 99 181T84 172T76 162Q63
151 51 142T27 119H26V118Z" />
<glyph unicode="5" glyph-name="five" horiz-adv-x="200" d="M-24 -47Q-31 -47 -43 -42T-56 -28Q-56 -24 -54 -24H-53Q-49 -28 -46 -32T-36 -36H-34L-32 -35Q-30 -35 -28 -35T-24 -36Q-19 -36 -17 -35L-2 -30V-28L1 -29Q0 -28 1 -28T2 -28H3L12 -23L14 -24Q23
-17 34 -12T56 0Q73 11 94 29T134 71T166 117T179 161Q179 172 173 176T156 180Q146 180 128 174T94 160T72 145Q68 141 61 131T48 121Q44 121 36 128T28 141Q28 144 32 146V150Q32 152 33 158T38 164V166L37 167L41 169V170Q41 174 50 188T71 222T95 256T109 278Q111
281 117 293T129 303L142 300Q147 292 153 290T169 288Q172 290 175 289T183 289Q188 289 195 290T208 292Q213 294 217 295T228 297Q238 302 250 302Q252 303 255 303T260 303Q262 305 263 305T267 306Q270 306 276 308L277 306Q273 303 269 302T260 299Q258 298
255 295T249 292Q246 291 242 291Q239 289 236 289T230 287Q225 286 224 283T211 280Q211 276 205 276Q203 273 193 271T173 268T160 267Q157 267 153 265T145 263Q141 262 136 262T127 261Q125 260 114 247T90 215T67 182T57 164H58Q59 165 63 167T67 170Q69 170
71 171T75 173Q77 175 78 175V176Q84 176 89 179T101 183Q104 187 111 187Q116 191 125 191L126 192H128Q136 195 144 195Q167 195 183 178T200 138Q200 120 190 105T171 76L170 75H168Q167 75 161 73V72Q161 67 158 67T151 62Q149 60 149 55T147 49L138 43Q132
34 118 22T94 4Q90 1 85 -1T76 -5Q71 -9 61 -16T44 -25Q34 -33 12 -40T-24 -47Z" />
<glyph unicode="6" glyph-name="six" horiz-adv-x="207" d="M55 -12Q36 -12 22 5T7 42Q7 51 9 60T15 78Q17 83 18 89T20 99Q30 124 51 152T90 200Q104 217 124 235T163 269Q174 280 186 288T211 305Q215 307 221 309T232 313Q242 312 249 304T257 285Q257 283
257 281T256 277H254Q252 288 242 288Q228 288 216 281T194 265T179 255Q169 247 160 239T140 221Q137 218 127 208T108 188T98 177Q96 174 93 169T84 163Q85 162 85 161Q83 157 80 153T72 145Q68 141 64 134T56 121Q43 100 33 80T22 33Q22 19 28 10T49 1Q52 1
55 2T61 3V4Q62 4 66 5T72 7Q76 11 80 11H82Q85 16 99 24T117 37Q119 39 120 39T123 38L124 39Q123 52 133 58T147 75L148 76V77L145 76Q147 83 151 90T155 104Q155 113 148 113Q141 113 129 106T105 89T88 74L79 62Q77 58 74 51T66 43V45Q65 68 77 83T104 113H106Q110
121 116 121Q119 123 122 125T130 128H132L133 129V128L135 129V130L136 129Q150 131 163 116T176 87Q176 83 170 69T160 54Q159 53 148 43T135 31H133L130 24Q123 23 119 19T109 9Q105 6 101 4T91 0Q88 -1 86 -3T79 -7Q78 -8 76 -8T73 -10Q69 -10 65 -11T55 -12Z"
/>
<glyph unicode="7" glyph-name="seven" horiz-adv-x="277" d="M69 -70Q54 -70 43 -57T31 -30Q31 -25 32 -19T35 -7Q47 28 68 60T114 119Q118 123 130 138T156 168T171 183Q186 201 203 216T238 248Q243 254 249 259T261 269L263 271V273Q235 273 209 266T156 254L155
255Q155 254 155 254T154 252Q144 253 129 248T98 237T72 231Q70 229 67 228T61 226L56 215Q46 214 38 208T19 202Q9 202 7 211T4 228H5L24 233V234L33 236L35 237Q37 237 47 240T67 246T80 251Q84 250 97 255T118 260V261Q123 263 129 264T139 266Q144 268 148
268T157 270V271H163V272Q169 274 175 275T188 277V278Q193 278 197 279T205 280L206 281Q212 281 217 282T229 284Q238 284 247 285T266 287Q269 287 272 287T278 286Q283 286 287 289T295 296Q301 295 309 291T318 278Q318 268 306 258T285 244Q283 243 280 243T274
244Q268 244 262 238T251 228Q247 225 243 223T234 218Q230 215 228 211T221 204Q206 194 203 189T188 171Q186 169 183 167T179 160Q164 154 164 149T156 138Q154 136 151 134T145 129Q142 126 139 122T132 113Q131 112 128 107T122 103L121 98Q117 95 108 84T99
68L94 69V66Q94 59 87 54T80 43Q77 40 70 27T56 0T49 -18Q48 -23 48 -28T47 -39Q47 -48 51 -54T65 -60H66Q69 -58 74 -58T80 -58Q80 -62 83 -64Q77 -70 69 -70Z" />
<glyph unicode="8" glyph-name="eight" horiz-adv-x="287" d="M39 -38Q29 -38 19 -30T9 -10Q9 -2 12 5T19 20Q19 23 23 28T28 36Q47 64 68 88T113 134Q107 142 91 146T56 161T24 193Q21 199 21 205Q21 210 22 213Q24 231 37 242T67 261T97 275Q104 278 117 283T143
293T163 298V299Q172 301 180 302T197 303Q201 303 201 305Q206 304 210 304T217 304Q227 304 233 303T252 290Q256 286 259 282T263 272Q263 266 259 266Q254 266 252 271T244 281T223 286Q190 286 152 274T85 244Q73 237 55 224T36 196Q36 189 41 182Q46 178
51 175T63 169Q66 168 79 162T105 149T118 142Q124 142 129 150T141 160Q142 162 145 163T148 167L146 168Q147 169 146 169T146 170Q151 175 159 182T174 189Q175 191 176 192T178 194L183 199L182 201Q184 204 186 206T191 210Q202 220 213 226T237 239Q244 243
258 251T287 266T309 273L310 274Q314 274 317 275T325 276Q338 276 347 265Q338 266 328 263T308 259V258Q294 251 281 243T254 226Q250 222 245 218T234 210Q221 203 211 195Q207 192 204 188T196 181V179H189L190 177Q189 176 186 175T182 172L181 170Q180 169
175 165T169 159H168Q165 159 162 159T158 155Q160 155 160 153L156 151V148L153 145V144L148 143L149 141H145Q145 141 145 141T144 141L145 137Q143 136 139 134T135 130Q135 127 142 120T157 101T165 69Q165 50 152 31T119 -3T78 -28T39 -38ZM36 -24Q44 -24
54 -19T71 -9Q86 0 104 15T136 48T150 85Q150 97 144 109T126 126L119 113Q116 112 112 110T108 103L105 102L106 99H105Q94 95 91 87T79 71Q74 64 70 58T59 45Q56 42 49 28T36 0T29 -18H31V-21Q31 -24 36 -24Z" />
<glyph unicode="9" glyph-name="nine" horiz-adv-x="249" d="M110 -122Q103 -122 98 -113T91 -93T88 -76Q88 -43 102 -1T131 71Q134 77 145 93T165 125T175 144Q172 143 169 139T163 134L161 131Q151 127 144 120T125 107L120 101L121 99Q121 99 121 99T120 98H114Q104
96 98 88Q88 84 78 79T56 73Q40 73 25 84T9 114Q9 135 22 156T48 193Q62 213 81 229T119 259Q127 265 136 270T154 282H157Q161 289 176 293T199 298Q201 298 206 298T213 296Q223 291 233 283T244 261Q244 253 239 245Q238 243 227 234T206 217T193 208Q194 213
201 223T215 246T223 272L221 275Q216 281 205 281Q187 281 162 267T122 242Q115 236 109 230T94 219Q91 216 81 204T68 192Q67 189 65 186T58 182V179Q56 175 53 172T47 164Q47 160 36 143T25 106Q25 85 47 85Q50 85 56 87H57Q81 98 103 111T147 141Q150 143 159
150T177 165T187 172V171Q189 173 197 181T208 189Q219 198 227 210T243 233Q244 234 246 234Q251 234 259 230T268 220V218Q261 210 254 200T239 183Q235 180 230 179T224 171Q212 165 211 157T207 143Q206 142 205 141T201 137Q197 130 193 123T183 109Q176 101
171 90T161 69Q159 65 158 61T155 52Q153 49 150 47T146 40Q145 40 145 39L143 40Q143 35 141 35V33Q141 31 140 29T139 25L137 26Q137 25 137 22T134 18Q132 8 128 -1T120 -20Q114 -34 110 -55T106 -94Q106 -98 107 -107T115 -117L118 -115Q118 -116 119 -116Q116
-122 110 -122Z" />
<glyph unicode=":" glyph-name="colon" horiz-adv-x="98" d="M101 130Q97 130 91 134T84 143Q84 145 91 152T106 167T117 177Q125 175 125 169Q125 165 121 156T111 138T101 130ZM57 -1Q53 -1 47 4T40 13Q40 15 47 22T62 37T73 46Q81 44 81 38Q81 34 77 25T67 7T57 -1Z" />
<glyph unicode=";" glyph-name="semicolon" horiz-adv-x="98" d="M101 130Q97 130 91 134T84 143Q84 145 91 152T106 167T117 177Q125 175 125 169Q125 165 121 156T111 138T101 130ZM24 -52Q21 -52 21 -47Q21 -33 32 -24T44 -3Q44 1 42 5T40 13Q40 23 48 30T66
37Q75 37 75 25Q75 20 74 12T68 0Q64 -3 55 -16T36 -40T24 -52Z" />
<glyph unicode="&lt;" glyph-name="less" horiz-adv-x="224" d="M153 96L147 98Q129 123 107 140T62 176Q60 177 60 180Q60 185 71 202T97 241T125 280T143 304Q146 307 149 309T156 311Q161 311 161 307Q161 304 152 290T130 256T106 221T92 199Q96 194 107 181T130
151T151 123T160 105Q160 95 153 96Z" />
<glyph unicode="=" glyph-name="equal" horiz-adv-x="286" d="M146 234Q140 234 123 234T86 236T51 241T36 250Q36 257 41 262T54 267Q99 267 144 267T235 268H269Q277 268 285 268T302 269V267Q302 261 282 255T234 245T181 237T146 234ZM123 149Q117 149 100
149T63 151T28 156T13 165Q13 172 19 177T31 182Q76 182 121 182T212 183Q229 183 246 183T279 185V182Q279 176 259 170T211 160T158 152T123 149Z" />
<glyph unicode="&gt;" glyph-name="greater" horiz-adv-x="224" d="M64 91Q60 91 60 95Q60 98 69 113T91 147T115 182T129 203Q125 208 114 221T91 251T70 280T61 297Q61 307 68 307L74 304Q91 279 113 262T159 226Q161 225 161 222Q161 218 150 201T124 162T96
122T78 98Q71 91 64 91Z" />
<glyph unicode="?" glyph-name="question" horiz-adv-x="378" d="M86 31Q73 33 61 41T49 64Q49 84 68 102T101 132Q142 170 185 204T271 272Q291 288 310 303T347 335Q352 340 358 348T365 364Q365 373 350 374T328 376Q302 376 266 367T195 343T137 315Q133 311
129 311Q126 306 121 303T111 296Q105 290 99 285T88 271Q87 269 86 266T82 261Q82 260 80 258H77Q73 258 70 263T66 273Q66 284 81 296T115 321T150 340T166 348Q177 353 187 357T208 365L228 371V372L258 378Q261 381 269 382T281 384Q285 386 294 386V387H296Q304
387 312 388T329 390Q343 390 353 385T373 370H374V371H375V370H376Q376 366 378 363T381 354Q381 344 378 334T369 315Q342 284 308 265T239 224Q226 216 214 207T191 186Q190 184 185 183T178 179Q171 173 165 168T152 158Q145 153 139 146T126 132Q121 127 115
123T104 113Q97 105 87 91T77 65Q75 64 74 60T73 53Q73 42 84 33H86V31ZM36 -56Q26 -56 20 -47T14 -29Q14 -21 16 -15T22 -1Q27 -1 37 -2T47 -13Q47 -19 41 -23T34 -40Q34 -47 39 -49T44 -55Q41 -56 36 -56Z" />
<glyph unicode="@" glyph-name="at" horiz-adv-x="420" d="M127 -58Q108 -58 88 -50T54 -25T40 12Q40 26 43 39L41 43Q43 46 45 51T47 58L50 65V72Q55 81 60 90T69 109Q75 120 87 137T112 170T136 192Q140 195 143 199T150 206Q156 211 158 216T168 220Q170 220
179 228T192 238L193 240H194Q200 242 201 246H202Q204 251 207 250T215 249Q218 254 224 254Q224 256 225 258T228 262H229L233 260V261Q235 263 237 264T239 269H238Q240 270 242 270T247 269Q252 277 265 281T286 293Q297 295 306 300T328 306Q330 308 338 310T349
312H364Q377 311 391 301T413 281Q415 278 417 274T422 267L427 262L428 255L430 253Q433 249 433 244Q433 241 431 237Q435 234 436 227T438 215Q438 212 436 208T429 204V202H431Q432 202 432 202T433 203Q436 202 436 199Q436 197 435 195T434 191L432 196H430Q430
195 429 195Q430 194 430 190T433 186Q432 185 432 183T432 178Q431 177 430 177T428 174Q428 173 429 172T431 168L429 163H423L424 165L421 167L420 166Q420 163 421 161T422 155Q422 151 419 151Q419 150 415 142T407 126T402 116L398 114Q397 111 396 108T393
102V100H387Q388 99 388 96Q388 91 383 90H382Q380 89 378 88T376 83Q373 82 371 80T365 77V74Q352 65 348 60T326 54Q305 54 290 65T276 98L275 97Q273 93 269 91T260 85Q258 84 252 75T243 63Q239 59 236 57T228 51Q224 47 218 39T208 29Q196 22 185 13T158 4Q149
4 138 14T126 33Q126 41 133 47T140 61Q141 62 146 69T157 82T163 90L165 91H166L165 96Q177 105 185 117Q186 118 189 118T194 119Q194 121 195 126T199 132Q209 137 218 148T237 160H238L237 165L248 170L253 175Q255 176 259 176Q263 176 264 179Q269 178 274
178T283 178Q287 177 296 174T313 165T321 156Q321 153 318 153Q315 153 308 157T291 161Q282 161 271 157T258 152Q255 149 249 145Q239 139 222 124T188 89T160 51T148 19V17Q168 21 187 36T220 65Q230 73 242 83T262 103Q268 111 280 123T302 136Q307 136 311
134T316 125Q316 116 309 104T302 77V74Q304 71 305 69T311 66Q324 66 341 81T373 117T399 158T407 187Q411 200 413 212T416 237Q416 262 405 281T364 301Q344 301 324 293T285 275Q279 271 273 269T261 263Q255 260 243 251T226 240Q226 239 218 232T201 219T189
210Q183 205 178 199T166 187Q162 183 158 180T149 172Q142 164 136 156T122 139Q115 130 108 122T93 105Q82 88 69 59T56 9Q56 -19 74 -34T120 -49Q128 -49 143 -47T164 -39Q175 -39 187 -31T202 -23Q209 -23 216 -17T227 -5H232L246 8H247L249 6Q253 11 261 16T274
31Q274 31 275 31H276V30Q275 28 274 25T270 19Q246 -14 207 -36T127 -58Z" />
<glyph unicode="A" glyph-name="A" horiz-adv-x="592" d="M85 -30Q69 -30 51 -16T29 14Q28 20 28 26T29 39V46Q30 49 31 53T36 58V59Q34 61 34 65Q34 71 37 76T40 86Q47 95 53 105T59 127L66 133H60Q45 133 25 140T4 167Q4 175 13 181T33 192T52 196Q59 200 69
200V199H68V197Q62 195 50 188T29 172T19 155H48Q49 155 52 155T56 157Q64 159 71 161T86 165Q92 167 100 179T119 202T139 212V211Q139 210 137 210Q135 207 128 199T115 183T109 171L108 170L249 209Q251 210 258 212T266 212L267 214Q283 216 296 220Q313 226
330 229T365 240Q373 243 381 257T396 278Q409 291 418 304T438 333Q456 357 480 384T517 438Q518 440 518 442T520 445L534 462Q537 459 537 456Q537 452 534 449T528 442Q525 437 523 432T517 421Q510 409 503 397T487 374Q477 359 467 343T445 313Q443 310 440
307T434 301Q432 299 423 286T406 261T397 246L436 251L437 252L474 257Q478 275 488 301T511 353T531 397L547 430Q547 433 547 436T548 442Q550 451 558 463T578 487T595 504Q601 502 611 500T622 491L621 485Q611 478 599 458T580 427Q578 423 577 418T573 409Q572
405 567 395T559 384Q547 358 534 333T513 278Q512 276 510 270T509 262H514Q523 262 532 263T551 264Q592 264 622 248T652 200Q652 187 640 175T613 154T589 139V141H588V143Q596 149 607 162T627 191T636 217Q636 232 620 238T583 247T553 249Q544 249 531 248T510
245Q502 242 496 226T486 190T479 155T474 139Q475 136 475 128Q475 118 475 108T474 86Q474 72 476 51T487 13T516 -4Q519 -2 529 3T548 15T557 22H561V15Q561 3 545 -4T518 -11Q489 -11 474 7T453 50T447 99Q447 136 454 171T469 242H467Q456 238 438 236T403
230T378 220Q362 207 351 189T325 153Q321 148 313 137T295 116T281 101Q279 99 276 97T271 93L250 65L233 51Q226 45 215 34T193 23Q189 9 168 -3T123 -23T85 -30ZM84 -20Q90 -20 102 -15T126 -2T143 8Q175 31 202 58T257 114Q268 126 279 137T301 161Q306 166
310 172T318 183Q324 191 334 199T349 215H348Q347 215 328 210T282 195T225 177T175 161T146 152Q133 148 118 146T92 135Q82 128 73 104T59 55T53 16Q53 0 60 -10T84 -20Z" />
<glyph unicode="B" glyph-name="B" horiz-adv-x="516" d="M136 -15Q94 -15 63 -2T15 53Q9 68 9 83Q9 110 24 132T58 170T93 195T108 205H111V204H112Q102 190 89 180T66 155Q53 136 41 109T29 59Q29 32 44 20T82 5T125 1Q169 1 221 17T314 49Q327 54 350 66T401
95T454 129T495 165T511 198Q511 211 498 218T465 228T429 232T403 233Q387 233 371 233T339 228Q325 225 313 217T284 209Q279 209 277 214T274 224Q274 232 279 236T292 244Q309 250 326 253T360 263Q413 282 466 312T549 391Q559 408 559 425Q559 447 539 459T491
478T436 487T393 489Q334 489 276 481T161 457Q152 455 133 449T96 434T79 413Q79 408 82 404T90 399Q90 395 87 395V394Q74 396 63 400T51 421Q51 439 63 449T93 466T123 477Q134 481 145 485T167 489Q175 493 182 493T199 495Q204 497 209 498T218 500Q244 505
271 505T325 508Q334 509 343 510T360 511Q394 511 436 507T515 487T572 439Q577 430 581 421T586 400Q586 372 562 349T501 307T430 275T371 255V253H372V252Q379 252 385 252T399 253Q421 253 446 249T494 234T528 200Q533 190 533 180Q533 167 526 153Q509 125
474 100T394 54T302 18T211 -6T136 -15ZM162 52Q146 52 137 69T128 100Q128 127 140 156T170 212T204 259V263Q207 266 211 270T219 275Q221 289 233 298T246 318Q252 323 264 337T291 368T316 397T330 410Q329 426 344 440T371 464Q380 463 391 459T403 443Q403
440 401 436Q399 428 386 416T360 393T339 374Q317 352 285 318T222 243T169 163T148 90Q148 77 152 68T171 59V54Q165 52 162 52Z" />
<glyph unicode="C" glyph-name="C" horiz-adv-x="425" d="M143 -14Q115 -14 99 -7T60 16Q32 35 19 59T6 117Q6 135 9 151Q17 199 47 244T120 329T209 400T298 451Q318 461 336 468T376 479Q380 480 384 480T392 481Q397 483 401 484T412 485Q428 485 441 476T454
449Q454 448 453 440T449 432L452 431Q459 441 474 458T504 492T518 519Q518 523 517 526T513 533Q523 529 534 519T545 498Q545 495 544 494Q543 490 534 481T515 463T500 450Q486 438 468 414T437 364T424 318Q424 308 427 302T436 288H434V287Q421 292 409 302T397
328Q397 340 400 349Q401 353 406 364T418 387T426 399V402H425Q422 399 419 397T412 394V398Q428 414 428 439Q428 468 399 468Q392 468 388 467Q332 457 286 426T196 360Q183 350 170 340T146 315Q136 302 126 289T106 262Q96 249 83 231T69 195Q60 187 53 168T42
129T38 96Q38 71 47 46T82 10Q92 6 103 6T124 5Q127 5 138 7T151 10Q176 12 199 23T245 44Q247 45 250 46T256 47L257 49Q292 58 324 83T388 125L415 140Q421 143 432 153T457 174T480 195T494 204V203H495Q492 192 482 184T464 167Q388 93 296 39Q289 35 282 32T266
25Q266 25 266 25T264 24Q264 24 264 24T264 25Q238 8 207 -3T143 -14Z" />
<glyph unicode="D" glyph-name="D" horiz-adv-x="759" d="M272 -94Q256 -94 243 -81T229 -51Q229 -37 234 -23T239 5Q227 12 212 23T196 50Q196 65 208 76T231 95H234V93H235Q232 81 222 67T211 39Q211 27 223 25T245 22Q249 43 260 62T280 100Q298 141 322 178T371
253Q400 297 428 343T489 428Q496 436 507 436Q515 436 523 431T531 417Q531 405 521 389T497 359T474 335H472V337Q472 338 473 338T474 338V340Q474 341 476 341V344H469L461 338Q462 337 462 334Q462 322 453 308T430 279T408 250T398 224H397Q388 220 378 206T359
177T344 152Q330 131 317 110T295 65L277 20H325Q329 20 332 21T340 22V24L365 27V30H367Q367 29 369 28T372 27L373 28Q375 30 376 30T378 31H381Q385 31 385 30L401 36L403 38V36Q412 38 420 41T439 44Q450 52 462 52T485 57Q490 64 504 70T528 76V74L548 85L551
84V85Q565 96 581 103T614 119Q642 134 673 161T728 222T751 290Q751 326 727 355T667 404T592 436T523 452Q499 455 474 455Q437 455 401 451T328 438Q314 435 297 433T265 427Q255 424 245 419T224 409Q175 391 127 371T38 315Q33 311 25 303T17 287Q17 280 26
277T47 274T62 273V275L65 274Q65 274 65 274T66 276H69L70 275L71 276Q85 278 98 281T125 287V289H131V286Q131 284 130 284Q111 275 90 265T46 255Q27 255 8 268T-11 302Q-11 306 -10 308Q-4 329 25 351T92 392T167 425T223 445Q235 449 246 451T270 455Q293
459 315 463T360 467V469H385L393 472Q417 471 441 471T488 470Q545 466 600 450T698 401T766 311Q771 301 772 291T774 269Q774 219 746 181T674 115T583 66T496 32Q481 27 466 23T436 9V8H434L436 16H434Q434 16 424 13T412 10Q391 5 369 3T324 0Q316 0 307 1T290
2Q286 2 279 1T269 -2Q262 -9 261 -24T259 -49Q259 -59 262 -74T280 -89V-93Q277 -94 272 -94Z" />
<glyph unicode="E" glyph-name="E" horiz-adv-x="449" d="M167 -52Q135 -52 98 -41T36 -5T10 59Q10 89 28 116T75 166T133 207T189 233L225 246V248Q203 253 185 263T167 299Q167 322 186 341T233 377T288 406T334 424Q345 429 354 432T375 438L391 442L428 448Q433
449 438 449T448 450L480 448Q491 465 503 480T530 509Q542 509 553 504T564 485Q548 486 535 472T513 444T501 430Q506 420 509 409T513 386Q513 379 510 366T498 352V354Q498 360 500 367T502 382Q502 387 499 398T490 409Q485 409 477 398T461 370T448 339T443
319Q443 309 453 304L448 299Q423 304 423 329Q423 346 431 362T448 393T456 415Q456 422 448 423T434 425Q430 425 413 422T378 416T354 411Q340 408 313 394T257 359T208 319T188 281Q188 268 205 266T235 263Q243 263 251 263T268 264Q279 268 291 268H306Q311
268 314 268T321 269Q325 270 328 271T336 272Q355 272 368 255T382 220L381 218V217Q364 226 357 231T327 236Q314 236 301 234T275 229Q229 220 189 202T107 157Q89 146 71 133T42 100Q26 74 26 45Q26 9 47 -7T97 -26T154 -30Q168 -30 181 -28T208 -23Q213 -22
224 -19T245 -12T258 -8Q258 -8 258 -8T259 -9Q259 -8 260 -7Q267 -2 275 1T291 8Q318 22 343 38T386 81Q394 94 402 110T410 141Q410 160 395 172Q394 174 392 176T390 180V181Q406 178 414 160T422 128Q422 98 402 67T359 18Q353 14 346 10T331 5Q330 -9 315
-13T290 -22Q283 -25 279 -29T267 -34Q264 -34 265 -35Q241 -42 217 -47T167 -52Z" />
<glyph unicode="F" glyph-name="F" horiz-adv-x="534" d="M246 -28Q224 -28 212 -8T199 32Q199 53 206 77T224 120H225V126Q225 133 232 148T247 179T260 207T260 219Q256 215 233 209T181 196T127 186T94 182Q84 182 79 194T73 214Q73 215 73 217T76 219L75 217Q77
215 81 213T88 210Q93 210 103 212Q112 213 121 215T140 220Q163 225 186 231T231 241Q248 245 260 245T286 258Q290 262 290 262T290 268Q307 299 328 328T368 386Q373 388 370 390T368 390Q358 384 358 387T359 390Q364 397 377 413T399 437Q361 428 314 416T218
392T128 374T61 366Q48 366 36 370T16 385Q12 391 8 399T4 416Q4 429 19 444T55 469T87 478Q101 488 128 498T171 508Q179 508 186 510T201 511Q203 513 206 513T211 513Q213 513 222 513T231 510Q233 508 231 508Q216 504 201 502T170 495Q136 486 97 467T29 426Q26
424 24 418T21 407Q21 404 32 401T46 398Q63 398 76 401Q104 405 138 410T203 421T251 432Q308 447 366 454T480 476Q484 477 487 477T494 477Q501 477 508 477T525 480H623Q637 480 654 475T682 461Q698 450 709 426T720 383Q720 358 710 354T682 341Q675 338
667 332T651 326L648 327V328H647V329H648Q659 337 673 348T699 374T710 402Q710 419 695 429T659 445T616 453T582 455Q548 455 513 451T444 447Q442 447 435 445T428 442Q439 436 439 422Q439 420 432 409T414 386T398 369T395 372Q391 372 391 369T389 362H380Q381
348 370 339T358 315Q352 314 344 304T331 282T325 264Q329 264 329 264T332 261Q343 262 353 263T375 265H386Q399 265 411 265T437 266Q443 266 457 264T488 257T517 246T529 233V231Q510 242 489 245T447 248Q411 248 377 244T314 224T267 170Q263 161 262 151T256
132Q247 111 237 85T227 36Q227 24 227 11T232 -14H236Q249 -15 258 -6T274 12T287 21Q283 8 273 -10T246 -28Z" />
<glyph unicode="G" glyph-name="G" horiz-adv-x="442" d="M135 -193Q96 -193 76 -175T56 -117Q56 -106 58 -96T63 -75H66V-77H68V-78Q64 -83 64 -91Q64 -106 72 -119T80 -147Q80 -149 81 -148Q90 -160 102 -173T130 -186Q141 -186 152 -181T174 -172Q239 -137
278 -76T342 52Q343 55 346 64T353 83T357 93H356Q367 120 375 149T392 206V211L391 212V213Q345 170 298 129T196 57Q174 45 151 35T102 24Q83 24 64 35T33 63T20 101Q20 105 22 117T27 140T33 152L32 157Q37 165 40 174T55 185L56 183Q58 189 56 195Q73 239 98
265T155 324Q160 329 164 335T174 346Q194 367 219 385T269 419Q277 424 283 430T297 440Q309 447 322 452T348 464Q354 467 366 473T390 486T408 492V490L409 492Q413 493 424 496T446 501T460 504Q469 504 480 504T500 499T509 481Q509 466 501 453T486 425Q485
424 484 422T481 417Q480 417 479 417T476 416Q476 413 475 410T470 405V406H469V407Q475 415 478 431T482 457Q482 466 479 475T464 485L461 484Q428 483 394 469T327 434T268 393Q262 388 254 383T241 371L234 361Q230 357 226 354T217 347Q209 340 201 333T185
317Q157 289 133 258T91 191Q75 159 64 137T53 76Q53 51 68 44T105 36Q105 36 113 39T131 44T142 47Q158 53 184 69T236 104T276 134Q299 153 320 174T364 216Q369 221 373 227T384 235Q387 240 398 253T421 280T436 294Q442 296 446 296Q450 296 460 293T481 286T491
276Q480 274 469 265T448 255V256Q448 257 448 258T449 259Q449 260 449 260T448 260V261H446V260H445Q443 258 443 255Q443 252 445 251T448 247H449Q447 243 441 229T428 203T418 190Q418 177 413 169T404 149Q402 144 401 138T397 127Q393 114 386 100T374 73Q372
63 370 56Q369 48 363 41T357 24Q347 14 342 0T330 -27Q311 -62 283 -101T217 -166T135 -193Z" />
<glyph unicode="H" glyph-name="H" horiz-adv-x="650" d="M231 -30Q222 -30 214 -22T201 -7Q190 7 185 24T180 59Q180 96 192 132T219 203Q187 198 155 192T90 186Q65 186 38 194T3 231V236Q3 243 6 247T10 256Q19 256 18 262Q29 269 47 278T83 295T114 303Q121
308 130 310T148 312Q155 315 162 315T176 314Q181 316 187 316T200 316Q202 317 207 317Q211 317 214 317T222 316L223 315V312H222V311Q205 310 190 306T158 295Q148 292 126 285T81 267T40 245T23 220Q23 212 34 210T51 208Q69 208 86 210T122 214V215Q131 216
139 218T157 221Q176 223 194 226T231 233Q244 247 252 263T270 296Q299 340 329 381T396 458Q409 470 422 483T452 502Q459 500 466 496T473 483Q473 471 460 459T438 438Q437 437 431 431T419 418T412 412H409L410 419Q398 414 391 405T374 387Q368 382 362 378T351
368Q347 364 334 346T306 305T280 264T269 241Q289 243 309 247T350 253Q376 257 402 259T455 265Q460 266 464 267T473 268Q480 269 495 269T525 272T544 277Q551 288 565 312T596 365T632 421T666 467T692 489Q694 490 700 490Q708 490 720 484T734 468Q729 466
724 463T712 458Q705 454 701 449T687 443V442H686Q685 438 681 436T676 431Q676 431 677 430T678 427H677Q649 394 624 357T581 281Q580 280 580 279T577 276L578 274H579V272Q608 270 641 259T686 217Q687 214 687 211T688 205Q688 198 683 190T670 181L665 191Q675
201 675 213Q675 227 663 234T636 245T610 248Q597 248 579 244T553 228Q541 212 531 181T514 118T507 63Q507 57 508 46T513 24T527 14Q536 14 547 23T568 43T584 62L587 58Q578 49 574 36T562 11T537 0Q529 0 521 4T506 13Q489 24 483 40T476 76Q476 103 485
135T508 198T534 253V255H533L532 257Q515 255 497 253T461 249Q436 245 411 239T359 229Q349 228 327 226T283 219T256 209Q251 204 244 186T231 148T222 120Q221 117 219 105T213 82T208 70Q208 69 208 68T209 65Q209 59 208 53T206 40Q206 2 233 -28L234 -30H231Z"
/>
<glyph unicode="I" glyph-name="I" horiz-adv-x="351" d="M219 -44Q205 -44 189 -29T172 1Q144 -6 115 -12T58 -27Q45 -31 31 -37T3 -43Q-5 -43 -10 -37T-17 -23L-16 -22V-20H-8Q-8 -20 -7 -20T-5 -19Q-4 -19 -5 -20L-3 -19Q6 -14 12 -14T27 -11Q33 -9 50 -5T84
5T101 12L118 9L162 18Q171 20 171 35T173 57Q183 120 213 176T282 286T354 391L224 379Q218 378 210 388T202 405Q202 414 211 417T231 420T247 420Q252 421 257 421T266 422Q272 422 274 420H276V417L265 414V411H272Q279 411 286 411T299 413Q319 416 331 416T363
417Q370 421 373 423T376 432Q376 444 384 450T400 462Q406 460 416 455T427 442Q427 438 423 433T416 423Q427 424 437 423T459 422Q461 422 472 423T490 425Q504 425 517 424T543 423L548 420Q525 408 499 404T447 397T397 381Q372 369 355 347T321 301Q295 265
266 223T217 135T196 43V39Q196 29 200 27T214 24Q219 24 225 25T236 26Q255 27 274 27T311 29Q315 30 318 30T326 30Q330 30 344 29T372 26T385 17Q376 19 367 19T349 19Q340 19 317 18T268 12T222 0T203 -21Q203 -27 209 -30T221 -35T227 -43Q225 -43 223 -43T219
-44Z" />
<glyph unicode="J" glyph-name="J" horiz-adv-x="415" d="M52 -213Q18 -213 -2 -188T-23 -129Q-23 -100 -13 -71T7 -15Q8 -13 11 -5T13 4Q24 18 32 33T50 64Q67 89 87 111T127 154Q129 156 131 158T136 160Q177 202 231 234T343 281Q353 283 363 287T383 292Q386
302 387 312T388 333Q388 347 385 371T368 405Q364 408 358 408T346 409Q327 409 307 406T266 402Q256 402 247 404T237 420Q237 434 247 436T268 439Q284 439 299 437T330 434Q365 433 401 433T472 433Q483 433 494 433T515 434Q516 434 516 434T516 435Q528 436
540 437T564 442Q565 441 565 440Q565 437 558 434T548 428Q535 423 520 423T491 420Q475 419 461 416T429 413Q415 413 401 414T372 415V414H373Q389 407 408 401Q419 397 422 380T425 354Q425 341 423 328T418 301H419V300Q423 300 436 299T465 295T492 291T505
285L506 281H505V279H501Q497 282 491 283T479 284Q468 284 446 280T415 265Q411 252 407 238T398 210Q391 188 382 167T361 124Q353 108 344 93T324 61Q320 54 315 46T306 30Q304 26 302 22T298 12Q298 11 291 1T275 -23T259 -47T250 -60Q239 -75 227 -89T204
-117L203 -120Q197 -124 193 -131T183 -143Q168 -158 146 -174T99 -202T52 -213ZM58 -201Q78 -193 96 -184T130 -162Q141 -154 149 -144T167 -125Q214 -77 250 -21T318 94Q320 98 325 108T335 128T342 139Q341 147 347 159T355 179L370 228Q371 229 371 231Q371
232 370 232L373 235L372 236Q374 244 377 251T380 267Q380 273 377 277Q356 270 334 263T292 246Q267 236 246 220T203 186Q189 175 171 162T140 134Q136 130 134 126T127 117Q99 82 77 52T37 -21Q35 -27 32 -33T25 -44Q15 -66 8 -89T1 -137Q1 -168 13 -184T58
-201Z" />
<glyph unicode="K" glyph-name="K" horiz-adv-x="528" d="M653 -160Q644 -160 635 -159T617 -154Q595 -144 573 -118T529 -55T488 21T455 95T431 153Q427 164 424 175T416 196Q396 176 377 154T338 109Q326 95 314 81T290 51Q279 35 269 18T247 -15Q241 -23 233
-23Q226 -23 216 -17T205 -2Q205 -1 205 0T206 2Q220 25 232 49T258 96Q270 117 283 137T310 179L324 202Q326 204 327 207T330 211Q332 213 334 215T335 215L336 222L339 221L342 224Q342 224 341 225T339 227Q339 227 339 227T340 228L374 280Q374 280 374 280T373
282H374L379 285Q380 289 388 303T406 331T419 351Q420 352 422 355T425 356L428 366Q436 371 447 390T471 432T492 477T500 508Q500 522 492 526T472 530Q452 530 423 522T364 502T315 481Q278 463 242 441T172 394Q159 385 140 370T100 336T64 299T44 266Q42
260 42 256Q42 249 46 247T57 244Q66 244 83 249T119 260T145 270Q156 274 167 280T189 287V286H190L189 285Q168 264 132 246T67 228Q50 228 32 238T13 267Q13 285 34 309T87 360T156 412T222 455T269 481Q286 489 304 495T339 509Q356 516 372 523T405 534Q412
536 419 536T432 538Q435 539 438 540T444 542H452Q459 542 465 542T478 540Q498 536 515 518T533 479Q533 461 519 443T494 410Q470 377 441 339T386 263T340 188L336 187Q335 179 330 172T320 157Q313 146 307 134T294 111Q290 104 281 92T265 67T258 46H262V47Q280
70 297 93T332 139Q341 151 355 165T382 194T400 221L402 223V226L388 225V229Q402 243 411 251T442 259Q443 262 451 270T469 288T482 300Q503 320 533 346T599 399T669 444T732 467Q737 467 739 468Q744 469 748 469T757 470Q770 470 787 460T805 436Q805 432
803 430T800 423L799 424H798Q794 440 789 448T764 457Q752 457 740 454T716 445Q667 424 629 399T556 343T484 273Q471 260 467 243T462 208Q462 186 468 160T483 113Q491 94 505 62T538 -7T578 -76T623 -130T670 -151Q680 -151 688 -147T704 -136Q714 -128 723
-106T738 -60T745 -23H746V-24H748Q749 -27 749 -30T749 -36Q749 -43 748 -49T747 -62Q746 -79 744 -96T733 -129Q723 -146 697 -153T653 -160Z" />
<glyph unicode="L" glyph-name="L" horiz-adv-x="600" d="M563 -124Q561 -124 560 -123V-121H561Q576 -109 592 -92T609 -53Q609 -30 590 -16T542 5T486 14T441 17Q412 17 375 15T301 7T235 -4Q221 -7 213 -11T188 -16Q187 -16 183 -17T177 -20Q174 -19 162 -19T147
-18V-19L148 -20V-21Q149 -20 151 -20Q151 -20 151 -20T151 -22H153L152 -23H151Q150 -24 149 -24T145 -25Q142 -33 138 -41T128 -51Q127 -54 123 -55T116 -56Q113 -56 108 -55T103 -49V-43Q103 -40 103 -37T104 -31H97Q82 -31 65 -27T39 -9Q35 -2 31 12T26 34Q26
46 39 62T70 91T100 103Q106 109 120 118T150 135T173 143Q175 143 176 143T178 144Q189 164 201 184T226 223Q264 278 306 331T398 431T509 509Q522 517 535 523T565 530Q572 531 578 532T592 534Q606 530 621 524T637 499Q637 471 619 443T583 395Q550 355 512
317T429 251Q410 239 391 227T352 203Q324 188 296 176T238 151Q224 145 211 133T187 110Q179 102 169 82T151 41T144 8V4Q155 5 167 6T189 8Q207 10 224 13T259 17L260 18L277 19Q284 23 299 25T327 27Q336 27 339 26Q354 28 368 28T396 30Q402 32 411 33T426
34Q429 34 432 34T438 33Q440 33 453 34T469 37Q489 36 511 36T553 30T588 8Q600 -5 608 -30T616 -73Q616 -80 615 -88T608 -102Q604 -107 598 -108T586 -112Q581 -115 576 -119T563 -124ZM210 156Q214 154 217 156Q298 190 373 234T510 339T614 479Q616 484 619
490T623 502Q623 509 617 511T605 515Q590 511 576 507T547 496Q524 486 504 472T464 443L422 413Q374 379 332 331T256 234Q253 229 243 213T224 181T210 156ZM96 2H116Q124 19 131 39T146 76Q158 103 171 129Q160 123 138 110T93 80T53 48T36 24Q36 12 48 8T74
3T96 2Z" />
<glyph unicode="M" glyph-name="M" horiz-adv-x="802" d="M760 -61Q743 -61 734 -50T723 -24T720 5Q720 39 728 79T748 160T774 233V237Q774 250 780 263T791 287Q809 332 828 376T873 462Q881 474 887 487T903 511Q914 511 927 508T940 490Q940 480 932 466T914
438T898 416Q897 417 896 418T893 420Q892 420 892 420T892 419Q879 404 870 386T852 350Q844 331 833 314T814 278Q812 274 808 260T800 234T795 220Q793 198 781 179T768 137Q764 133 764 126T761 112Q754 83 746 55T738 -5Q738 -16 740 -25T747 -46Q749 -50
755 -53T763 -61H760ZM95 -59Q57 -59 31 -32T5 32Q5 73 20 117T62 202T117 270L142 291Q157 304 175 319T214 345T255 357Q269 357 281 351T305 336V334H304V332Q294 334 285 337T266 340Q240 340 208 317T144 256T85 176T42 95T25 32Q25 -2 41 -24T93 -47Q95 -47
100 -46T106 -43H108L109 -44V-43Q154 -32 191 -2T260 60Q308 108 351 160T436 266Q456 292 477 318T517 372Q525 385 532 398T546 426Q549 434 551 443T558 459Q567 459 582 457T597 440L594 431Q591 424 587 418T579 404Q573 394 567 383T555 360Q501 252 501
129Q501 114 503 98T514 70T542 58Q551 63 560 66T579 76Q615 100 643 134T696 206T746 278Q750 283 760 295T779 320T788 338H790L791 336Q791 332 779 310T747 257T708 195T673 139T651 107Q642 95 631 82T607 61Q594 53 579 50T549 46Q506 46 487 72T467 138Q467
176 477 213T497 287Q498 290 501 301T508 323T511 335H510V336Q508 335 499 322T479 293T457 262T444 243Q429 224 413 205T381 165Q356 133 326 95T259 21T182 -36T95 -59Z" />
<glyph unicode="N" glyph-name="N" horiz-adv-x="672" d="M257 -41Q248 -41 241 -35T234 -19Q234 -8 239 1T248 18L281 87Q316 160 356 229T431 372Q445 403 461 433T477 498V501Q477 515 471 519T451 523Q433 523 416 515T382 499Q306 462 242 407T122 288Q109
273 90 249T57 200T42 153Q42 139 53 135T75 131Q82 131 89 133T104 137Q108 138 113 138T122 140L230 175V173H229V172Q206 162 182 149T134 125T83 114Q61 114 37 126T13 165Q13 188 25 209T54 250T85 286Q90 292 94 299T104 313Q110 318 116 322T127 332Q138
342 146 352T168 369L177 383Q181 389 190 396T206 409Q218 419 231 427T258 445Q278 460 299 473T342 498Q345 500 348 502T355 506L356 504Q370 516 386 522T421 532Q431 532 436 536Q464 536 484 520T505 474V463Q501 441 491 422T469 384Q462 373 457 361T445
337Q420 295 396 254T349 169Q343 158 332 139T321 108H325V110Q357 153 385 199T448 288Q456 299 463 309T479 330Q493 347 510 368T549 397Q552 398 555 398T561 399Q573 399 588 392T617 375T634 354Q635 350 635 347T635 340Q635 328 633 317T630 293Q629 258
623 225T613 156Q612 137 612 118T611 80Q611 72 612 52T618 14T635 -3Q645 -3 653 10T667 36T676 50V46Q676 38 671 20T660 -4Q652 -12 639 -12Q620 -12 610 3T596 40T590 83T589 117Q589 164 593 211T598 305Q598 315 597 334T591 369T573 385Q564 385 555 378T540
364Q478 307 431 236T341 93Q324 65 311 36T282 -23Q278 -30 272 -35T257 -41Z" />
<glyph unicode="O" glyph-name="O" horiz-adv-x="491" d="M202 -14Q171 -14 142 -4T94 32Q84 45 83 59T75 82Q70 89 63 95T50 108Q36 126 29 149T21 194Q21 205 22 216T24 239Q24 241 25 241Q27 246 33 261T43 277V280Q41 284 41 285Q41 295 54 312T89 350T133
388T175 418T204 430Q222 441 247 449T294 459Q296 459 298 459T303 460Q307 461 312 462T321 464Q360 464 400 456T474 428T529 375T550 291Q550 269 545 253T533 217Q531 210 529 202T524 187Q520 178 514 169T503 152Q472 108 429 72T335 15Q304 3 270 -5T202
-14ZM189 1Q196 1 203 1T218 2V3Q230 3 243 7T267 14Q274 16 288 22T316 35T338 45Q356 53 372 65T403 90Q453 131 489 186T525 309Q525 359 500 390T435 435T353 449Q346 449 339 448T325 446Q312 445 298 442T270 435Q235 425 197 403T125 349T72 280T51 203Q47
197 46 191T45 178Q45 172 49 153T60 118T76 101Q79 101 84 116T95 148T103 171Q129 225 169 270T258 349Q271 357 284 366T313 375Q319 378 328 378Q335 378 348 374T372 363T383 348Q383 347 383 347T382 346V345Q375 350 368 353T352 356Q340 356 329 350T306
339Q293 332 279 326T253 311Q224 292 194 257T141 181T111 105Q110 100 109 94T107 83Q107 76 109 74Q113 68 127 63T159 53T194 47T218 44V43H216Q212 40 207 40T197 39Q174 39 151 45T106 59V58Q106 51 108 45T112 31Q116 18 130 12T161 3T189 1Z" />
<glyph unicode="P" glyph-name="P" horiz-adv-x="503" d="M366 171Q348 171 330 172T294 174V179H295V180Q296 180 297 179T299 178Q300 178 300 179H302Q308 181 314 181T328 180Q336 180 345 181T362 182Q365 184 373 185T383 189H386Q389 189 397 189T407 192Q418
192 433 196T460 202Q469 204 477 208T496 213L519 228Q532 228 539 235T557 247Q585 261 604 286T624 344Q624 361 617 376T596 401Q573 417 542 424T478 435T418 438Q408 438 400 436T381 432Q368 429 354 429T325 427Q265 415 205 390T96 325Q85 317 69 303T41
273T29 242Q29 237 31 232T33 222H32V221Q24 225 21 240T17 264Q17 283 31 302T64 337T101 359Q109 362 116 363T131 367Q142 371 153 380T173 395Q181 396 187 399T200 406Q210 410 231 417T274 430T304 437Q312 442 321 443T340 445Q344 448 355 450T372 452Q374
453 386 454T410 457T422 458Q445 458 471 458T519 451Q547 444 573 427T618 386T636 330Q636 316 632 302T619 275Q596 238 557 218T476 186Q466 183 456 181T436 177Q420 176 402 174T366 171ZM226 -26Q205 -26 189 -9T172 28Q172 54 185 81T212 129T226 159Q227
160 231 165T235 171Q249 192 262 213T291 253Q294 257 296 261T302 270Q309 279 317 287T332 305Q343 319 353 333T374 361Q379 368 389 378T400 397Q400 402 397 404T394 411L395 412Q407 411 423 405T439 383V379Q438 370 428 360T405 341T386 325Q362 300 331
263T269 182T220 96T200 14Q200 6 203 -4T217 -15Q223 -11 239 -1T271 21T286 37H289Q286 29 281 23T270 10Q262 0 252 -13T226 -26Z" />
<glyph unicode="Q" glyph-name="Q" horiz-adv-x="614" d="M583 -88Q558 -88 527 -80T471 -64Q459 -60 449 -55T424 -50V-49Q397 -40 371 -31T317 -16Q284 -9 254 -10T197 -5T142 30Q137 35 131 42T124 57Q107 63 87 69T48 76Q39 76 29 72T18 57Q18 53 20 49T23
39H21Q20 39 20 41Q6 55 6 77Q6 104 33 104Q57 104 78 96T121 78H122L123 79V81Q123 89 126 94T130 105H131V104Q136 95 137 85T146 68Q157 59 179 53T214 42Q220 40 234 35T266 23T296 12T314 7Q329 14 344 20T374 33Q384 38 399 49T424 62L425 64Q468 97 510
132T584 213Q586 216 588 220T595 226Q597 237 605 246T617 264Q627 282 634 304T641 348Q641 382 623 401T576 429T519 437Q473 437 420 423T326 387Q299 374 264 350T197 294T143 229T121 161Q121 132 136 117T174 97T221 92Q232 92 244 92T268 93Q277 98 303
105T358 121T409 140T430 161H433Q431 151 424 145T409 131Q378 103 337 92T254 80Q231 80 202 84T147 100T109 135Q103 146 99 159T95 185Q95 196 98 205T103 223L113 233Q113 240 121 254T142 284T167 312T185 329Q186 330 187 330T190 332Q194 337 200 341T213
346Q214 349 218 352T223 357Q234 368 239 371T250 378T269 387Q294 400 318 410T369 427Q372 428 381 430T398 435T408 439L414 438L424 441H432Q435 446 441 445T451 444Q457 444 466 446T486 448Q500 447 513 447T539 446Q547 446 555 444T571 439Q604 429 631
408T668 352Q671 339 671 323Q671 292 656 260T619 200T574 151Q570 147 564 145T553 137Q541 127 531 116T508 95Q471 68 431 47T349 5Q344 3 341 2T331 0Q375 -15 418 -28T506 -50Q516 -52 526 -54T547 -57Q561 -58 575 -58T604 -59Q612 -59 621 -58T637 -55Q645
-50 653 -45T661 -30Q661 -17 651 -5T630 18T619 31V32Q640 17 651 11T667 -7T671 -47Q671 -53 663 -61T646 -76T629 -82Q626 -82 623 -81T616 -80Q609 -85 600 -86T583 -88ZM254 -4Q257 -3 265 -2T274 3Q260 9 235 18T186 36T147 45Q152 24 170 14T212 0T254 -4Z"
/>
<glyph unicode="R" glyph-name="R" horiz-adv-x="540" d="M572 -155Q532 -155 505 -129T455 -73Q451 -68 448 -63T441 -54Q440 -53 437 -51T434 -47Q434 -44 435 -44T437 -41Q437 -40 433 -40Q431 -40 428 -38T425 -33Q425 -31 425 -30T426 -27Q426 -27 426 -25T425
-23Q422 -23 422 -24T420 -26Q418 -26 418 -24T419 -21Q419 -20 418 -20T416 -21Q415 -21 415 -21T415 -20Q415 -15 415 -16T416 -13Q416 -9 413 -9T406 -5Q405 -3 398 7T385 27T379 39Q379 41 380 41T381 43Q381 45 379 44T376 43L375 44Q369 50 366 58T357 73L309
161Q304 170 294 187T272 204Q269 204 264 203T259 198L257 199H256V200H257Q263 208 276 213T299 219Q310 219 317 212T334 204Q336 204 342 205T349 208Q354 207 366 210T385 214Q396 221 407 223T430 230Q446 235 474 247T531 275T580 309T600 347Q600 357 593
365T577 379Q550 399 516 407T447 417T379 419Q354 419 331 419T282 414Q234 407 186 400T92 373Q85 370 69 362T52 344Q52 338 64 336T89 334T108 333V331H105Q101 327 93 327T79 327Q72 327 66 327T53 326Q42 326 31 331T19 351Q19 356 31 366T57 385T77 394L80
393L98 402L99 401Q119 406 139 412T179 419Q181 420 184 420T189 422Q212 426 234 428T280 433Q287 434 294 435T308 437Q325 437 343 436T378 435Q415 435 457 432T536 415T598 368Q604 360 609 350T615 329Q615 317 607 302T587 273T564 255Q555 251 545 249T526
243Q515 239 505 232T483 221Q449 208 409 202T332 195Q333 188 339 173T354 143T366 121Q376 104 395 72T438 2T490 -70T543 -126T592 -148Q608 -148 622 -134Q631 -125 637 -101T645 -52T646 -15H648V-16H649Q652 -22 652 -27T653 -39Q653 -51 654 -62T655 -86Q655
-95 654 -104T649 -121Q644 -132 630 -140T600 -151T572 -155ZM172 -33Q151 -33 135 -16T119 21Q119 47 132 74T159 122T172 152Q174 154 178 158T181 164Q195 186 209 206T238 246Q241 251 243 255T249 263Q256 272 263 280T278 298Q289 312 299 326T320 354Q326
361 336 371T347 390Q347 395 344 397T340 404L342 405Q353 404 369 398T386 376Q386 373 385 372Q384 363 374 353T351 334T332 318Q309 293 278 256T216 175T166 89T146 7Q146 -1 149 -11T164 -22Q169 -18 185 -8T217 14T233 30H235Q232 22 227 16T216 3Q209
-7 198 -20T172 -33Z" />
<glyph unicode="S" glyph-name="S" horiz-adv-x="390" d="M43 -51Q32 -47 19 -36T5 -11Q5 8 27 26T83 59T149 86T206 105T230 114Q239 116 247 118T265 122Q257 133 245 141T223 156Q213 162 204 169T184 182Q156 199 135 212T97 255Q90 266 85 282T79 312Q79
340 102 363T156 403T209 427Q218 430 226 433T244 438Q252 440 260 445T277 451Q291 455 304 456T330 461Q338 463 346 463T361 465L363 466H364Q368 466 372 466T380 465Q384 465 388 466T397 468Q402 468 407 467T418 465Q423 465 431 462T444 456Q456 451 464
438T473 412Q473 399 465 393T448 378Q439 370 432 360T418 339H415Q417 352 425 364T442 388T450 414Q450 433 435 436T405 439Q391 439 378 437T350 433Q311 429 277 418T207 390Q194 383 180 375T153 361Q146 358 140 356Q128 342 113 325T98 288Q98 266 118
247T168 209T227 170T274 124Q286 126 298 128T323 130Q352 130 369 113T386 67Q386 44 377 38T350 22Q343 18 336 12T321 5V6H320V7H321Q331 15 344 27T367 53T378 79Q378 93 366 98T339 105T315 107Q308 107 301 107T285 105Q286 104 286 103T287 101Q290 94
290 86Q290 74 283 60Q269 32 243 14T185 -14T124 -29Q120 -30 116 -30T108 -30Q85 -30 62 -24L64 -21Q69 -22 73 -22T82 -23Q87 -23 94 -22T106 -19Q114 -14 136 -7T177 8T199 23Q199 26 200 26Q212 33 229 45T259 72T273 102V104Q213 96 162 77Q143 70 114 56T59
24T26 -15Q26 -16 26 -17T25 -21Q25 -28 30 -37T43 -47V-51Z" />
<glyph unicode="T" glyph-name="T" horiz-adv-x="699" d="M285 -32Q254 -35 240 -10T226 43Q226 66 238 91T262 139Q291 197 328 252T403 360Q417 380 431 399T461 438Q433 438 406 433T352 422Q338 418 323 417T293 411Q275 407 257 402T220 391L170 385Q143
379 115 371T56 362Q45 362 38 364T24 374Q6 394 6 410Q6 429 34 448Q39 451 43 454T51 460Q52 460 52 460T54 461Q55 461 55 461T57 460V461Q65 465 73 470T92 476Q94 476 96 476T101 477Q109 483 124 488T157 498T184 502H188Q195 502 202 501T215 499V500L221
505Q238 504 254 504T287 503V500H286V499Q247 499 212 490T145 468Q129 462 113 456T81 441Q68 434 50 424T24 401H23V399H24Q32 396 40 396T57 396Q62 396 66 396T75 398Q86 399 98 399T122 402L138 405Q142 407 142 405H144L145 406V408L147 406H148Q152 406
158 408Q163 409 168 410T177 412Q182 415 187 415T199 415V418Q205 418 210 418T222 419Q233 427 251 429T283 431Q284 432 286 432T288 434L326 440Q328 441 336 442T345 444L346 445Q347 445 347 445T348 444H352L355 447Q355 446 355 446T356 445L367 447L387
450Q389 450 391 450T395 451Q404 455 417 455T440 457L472 460Q480 462 486 465T501 470Q505 470 505 471Q511 469 517 466T531 463V464Q538 465 545 465T561 466Q589 466 619 461T667 448Q693 437 708 413T724 361Q724 337 710 314Q697 293 680 284T646 268T611
247Q610 245 607 242H605V243H604V247Q615 256 632 271T667 305T697 344T709 382Q709 400 694 414Q684 423 663 430T616 441T566 445Q539 445 522 439Q509 433 498 421T471 408Q467 392 455 381T432 357Q420 342 409 327T386 298Q371 280 360 258T338 216Q333 208
327 200T315 182Q297 151 279 108T256 28Q254 18 254 10Q254 1 257 -7T271 -15Q281 -15 293 -7T316 10T334 25L355 42Q355 38 346 27T325 2T301 -22T285 -32Z" />
<glyph unicode="U" glyph-name="U" horiz-adv-x="605" d="M246 -15Q218 -15 201 6T184 53Q184 82 196 113T225 173T257 226Q262 235 271 253T290 289T310 308V309Q310 310 309 311T308 313Q308 313 308 313T309 314Q317 330 331 354T361 405T387 456T398 496Q398
511 380 511Q370 511 361 508T343 502Q280 481 223 443T116 360Q97 343 74 320T33 270T16 215Q16 204 20 201T26 189H25V188Q12 196 7 210T1 237Q1 268 22 300T77 364T150 422T226 471T288 503Q299 508 309 513T331 519L345 521Q347 521 352 523T359 525Q374 525
391 519T422 502T435 472V469Q435 450 421 426T390 379T360 340Q355 333 349 327T337 312L305 258Q301 250 294 243T282 227Q278 221 274 214T266 198Q247 162 235 125T218 46Q218 42 218 39T217 33Q217 23 219 16T225 0L241 -2Q258 10 275 20T308 44Q341 74 369
108T428 177Q455 206 481 236T532 297Q543 309 554 321T574 346L577 351V348Q577 341 562 319T525 266T479 206T436 152T410 120Q403 112 396 102T380 84L365 72Q360 68 356 62T347 51Q337 41 328 31T308 13Q295 3 279 -6T246 -15ZM537 -10Q515 -10 500 4T484 41L488
44V47H487Q482 52 480 59T478 74Q478 100 490 138T522 218T561 297T594 358Q597 364 602 376T613 399T623 412Q627 414 631 416T639 419Q646 416 655 411T665 396Q665 392 659 380T643 353T625 328T612 317L611 315Q609 320 605 320Q605 308 599 300T592 285Q590
287 587 287Q586 287 586 285L583 283Q582 266 570 248T550 214Q533 181 523 145T512 71Q509 68 508 64T507 55Q507 45 512 28T526 4Q531 0 536 0T546 -2L547 -3H549Q545 -10 537 -10Z" />
<glyph unicode="V" glyph-name="V" horiz-adv-x="392" d="M166 -22Q163 -22 163 -17Q163 -12 166 1T174 27T181 47Q198 100 218 161T252 285T267 401Q267 420 264 437T250 467T216 479Q179 479 147 457T92 402T54 338Q44 316 35 292T25 242Q25 222 34 200T62 167Q66
167 66 164H67V162Q46 164 32 179T12 215T5 254Q5 284 16 317T46 381T85 433Q93 442 103 448T124 462Q134 469 145 475T169 484Q172 485 176 485T183 486Q186 487 189 488T195 490Q215 486 233 483T267 463Q283 447 288 425T294 381Q294 329 278 279T244 179Q240
168 238 156T230 132Q221 111 215 92T200 50Q199 46 196 43T190 35Q185 26 180 13T171 -11Q170 -14 170 -18T166 -22ZM197 -43Q191 -43 186 -40T180 -30Q180 -25 184 -15T189 0Q197 20 207 37T228 73Q233 80 237 86T245 100Q247 105 249 110T254 119Q262 133 271
145T288 171Q293 179 306 199T332 237T351 258Q353 258 353 260H352Q360 277 374 291T401 318Q433 350 459 372T529 408Q550 406 566 395T582 360Q582 348 579 339Q575 329 570 318T560 297Q556 291 552 291V293L553 294Q558 310 560 325T563 357Q563 368 560 381T542
394Q537 394 525 390T513 380Q501 380 483 366T444 332T407 293T385 264Q384 263 384 262T381 260Q379 258 376 253T372 245Q369 243 364 237T359 227Q359 225 362 225L360 224Q352 218 347 212T339 195Q338 194 338 193T337 190V189Q332 188 320 173T295 138T271
101T257 78Q254 71 252 65T245 51Q241 43 232 32Q228 25 226 7T217 -27T197 -43Z" />
<glyph unicode="W" glyph-name="W" horiz-adv-x="742" d="M515 -82Q508 -82 500 -78T492 -64Q492 -61 493 -60Q504 -22 524 11T566 76Q572 85 579 94T591 113Q595 120 598 127T605 141Q616 159 629 176T654 210L669 233Q675 242 689 263T721 309T758 360T791 403T813
425Q824 448 845 468T884 505Q893 514 913 530T957 563T1007 593T1052 605Q1071 605 1083 591T1095 542Q1095 535 1093 526T1089 509Q1084 497 1075 481T1059 452Q1055 444 1049 443V446Q1049 449 1051 448Q1058 470 1063 495T1069 543Q1069 556 1065 570T1043
584Q1019 584 991 567T935 525T886 474T853 433Q852 432 851 430T848 427Q844 425 840 418T834 407Q819 398 819 390T810 373Q797 363 786 349T769 317Q768 316 768 314T766 312Q752 302 744 292Q737 284 731 275T717 256L662 178L621 119Q617 112 612 106T603
92L585 55Q581 47 577 38T568 20Q569 18 569 13Q569 0 563 -22T544 -63T515 -82ZM141 -38Q129 -38 123 -25T117 -2Q117 30 138 57T177 107Q210 148 248 184T329 250Q331 258 334 269T345 285Q347 287 347 289Q347 293 342 292T338 294L340 296Q348 320 355 352T366
416T371 473Q371 485 369 498T350 511Q341 511 333 508T316 502Q260 481 211 443T123 360Q98 332 73 299T48 224Q48 204 53 202T61 189H59L60 188Q45 197 38 214T30 249Q30 285 55 323T117 397T194 460T264 503Q274 508 283 512T302 519Q305 520 308 520T315 521Q317
521 322 523T329 525Q345 525 362 519T392 500T406 469Q407 465 407 460T407 450Q407 406 393 364Q387 345 381 325T367 287Q366 283 365 280T362 273Q381 285 408 299T465 323T516 334Q542 334 552 317T565 277T568 233Q568 184 558 134T525 40Q524 39 524 38T522
37Q520 37 519 41T518 47Q518 52 519 54Q533 85 539 110T546 169Q546 186 545 204T542 240Q540 256 534 275T507 294Q503 294 500 294T494 292Q447 280 415 263T341 219Q331 195 319 171T295 123Q285 102 273 82T247 44Q244 40 240 36T233 28Q223 15 218 11T201
-4Q187 -17 175 -27T141 -38ZM140 -23Q169 -23 195 2T244 66T283 141T310 200Q273 176 249 155T197 98Q187 86 172 68T144 30T131 -5Q131 -8 134 -15T140 -23Z" />
<glyph unicode="X" glyph-name="X" horiz-adv-x="386" d="M400 -187Q391 -187 382 -186T365 -181Q339 -169 318 -137T280 -60T252 31T233 121T222 191H218Q215 188 206 181T188 167T178 156Q162 138 145 122T112 87Q103 76 88 57T57 17T32 -25T21 -59Q21 -71 25
-75T34 -81T37 -88H35Q22 -88 12 -71T1 -42Q1 -23 8 -6Q9 -4 11 1T12 7Q42 47 69 78T134 144L180 186Q188 192 199 201T216 218Q220 223 220 234Q220 248 216 268T207 310T199 346Q198 355 195 373T188 411T175 445T154 459Q136 459 123 444T100 407T87 363T81
327V297Q81 293 81 289T83 280H80Q79 296 71 319T63 351Q63 385 81 411T127 455Q138 461 146 464T166 468Q176 468 185 466T202 456Q212 446 212 436T217 415Q217 414 219 408T223 400L232 334Q234 327 234 318T234 299Q234 283 235 268T238 237L239 236Q245 241
253 249T269 258V260Q275 265 289 276T319 300T349 322T367 332V335Q369 337 369 337L408 367Q427 382 446 396T483 427Q491 435 499 443T514 458L518 461V464Q515 465 510 465Q495 465 469 458T417 440T379 420L380 424Q401 439 425 455T474 478Q479 480 484 480T493
481Q495 481 501 482T509 484Q516 484 528 483T550 477T561 463Q561 453 547 441T525 423Q497 403 467 384T408 345Q390 332 372 320T336 293Q326 285 316 275T294 257Q290 254 286 252T277 247Q268 241 260 220T251 187Q251 166 258 136T270 84Q274 69 275 54T281
23Q279 21 279 17Q279 13 284 13Q290 -7 301 -38T330 -102T370 -156T417 -178Q437 -178 455 -163Q466 -154 479 -133T503 -87T516 -49H518L517 -51H519V-56Q519 -64 516 -72T511 -89Q507 -106 502 -123T486 -156Q473 -172 447 -179T400 -187Z" />
<glyph unicode="Y" glyph-name="Y" horiz-adv-x="609" d="M295 -247Q284 -247 273 -246T250 -240Q242 -237 228 -230T202 -214T189 -196L193 -189L185 -191V-189Q168 -165 168 -134Q168 -117 170 -100T172 -65L173 -64H176V-66H177Q176 -70 176 -73T176 -81Q176
-114 190 -150T232 -211T298 -236L308 -235Q317 -229 329 -229Q340 -222 352 -216T374 -202Q401 -179 418 -160T449 -120T480 -69Q504 -29 518 4T542 74T559 156Q565 191 568 225Q559 221 554 215Q544 207 535 197T517 175Q490 141 458 112T395 53Q375 34 352 12T300
-15L293 -16Q275 -16 259 -1T242 32Q242 52 255 81T290 145T335 213T380 275T414 321Q430 342 443 364T470 408Q483 427 498 452T513 501Q513 513 506 516T487 520Q472 520 457 515T427 505Q327 469 247 407T96 268Q75 245 56 216T36 154Q36 130 51 127T86 123Q96
123 106 126T126 130Q128 130 134 129T140 125Q140 120 126 117T97 113T77 112Q65 112 50 116T23 129T10 154H6Q9 174 10 183T16 202T32 228Q35 233 40 241T52 250V249L53 258L59 261L61 260Q64 265 65 265L60 271Q67 276 74 287T91 299L90 306L106 315V317Q106
324 111 327T120 335Q176 391 231 427T357 496Q362 498 378 503T413 515T448 526T468 531Q497 531 520 517T543 471Q543 454 527 432T491 388T460 353Q446 336 423 303T375 228T326 145T289 69T274 14Q274 9 276 3T285 -4Q290 -4 293 -2T301 1Q335 18 363 45T416
99Q448 134 485 165T553 233Q569 251 584 273Q589 281 594 290T605 305Q612 312 620 312Q628 312 635 307T642 293V290Q642 289 636 279T624 258T617 246Q613 239 606 235T595 223Q592 218 590 211T586 198Q582 183 580 167T575 135Q571 115 567 95T556 55Q532
-19 498 -88Q494 -95 491 -102T484 -117Q479 -125 472 -133T458 -150Q429 -187 387 -217T295 -247Z" />
<glyph unicode="Z" glyph-name="Z" horiz-adv-x="527" d="M418 -51V-48H419Q429 -36 446 -22T478 9T492 42Q492 51 481 56T453 64T422 67T400 68Q391 68 372 67T331 64T291 60T265 54Q259 53 254 51T243 47Q236 44 228 43T211 40Q195 36 180 32T148 23Q136 19
124 15T99 6Q87 2 77 -6T52 -15Q31 -15 24 4T16 40Q16 58 25 74T44 104Q75 147 116 177T203 232T294 280Q334 300 372 323T451 365Q469 373 487 380T523 397Q526 399 533 402T541 409H540Q533 413 525 413T508 414H468Q452 414 436 414T407 412Q397 411 386 408T364
403Q339 400 301 396T227 383T172 358V355L207 351V347H205V345L197 346Q187 348 178 346T159 344Q143 333 126 333Q99 333 99 358Q125 380 154 388T215 405Q221 407 228 410T241 414Q261 416 280 419T319 425Q330 427 336 428T354 430Q368 430 383 433Q395 435
407 436T432 437Q443 437 454 436T477 434Q498 434 518 432T556 422T582 391Q584 388 585 383T587 375Q587 373 586 373Q580 364 570 366T552 366Q539 364 526 360T499 351Q489 347 479 343T459 333Q430 321 401 308T343 281Q289 255 241 228T150 167T70 82Q65
74 54 56T43 28Q43 23 45 23Q51 23 63 27T82 33Q95 37 121 46T174 62T211 70Q219 75 227 75T243 78Q266 83 288 87T335 91H356Q361 91 366 91T377 92Q380 93 383 93T390 94Q399 94 408 92T426 88Q457 82 475 75T507 35Q509 31 510 28T511 20Q511 2 492 -8T459 -25Q449
-30 439 -40T418 -51Z" />
<glyph unicode="[" glyph-name="bracketleft" horiz-adv-x="294" d="M63 -35L61 -27Q59 -25 52 -25Q48 -25 45 -25T38 -26Q34 -26 30 -25T22 -23L17 -15L11 -22L3 -16Q0 -9 -4 -3T-13 9Q-11 12 -9 12T-4 13Q0 14 6 27T18 59T30 93T38 115Q57 160 79 203T117 294L125
301L122 307Q130 324 136 340T149 372L157 378Q151 380 151 386L160 392Q165 392 174 392T188 389Q193 391 198 391T208 391Q212 391 216 391T224 390L223 387L226 389Q233 391 239 391T252 391Q256 391 258 390T259 381Q252 371 245 361T228 344L226 352L224 350L221
353Q212 353 204 353T187 356Q186 361 180 363L176 357L175 350L169 346L173 345Q171 341 168 338T162 330V327L165 329Q161 322 155 310T142 286T131 269L130 261Q114 228 99 194T68 127L66 125L64 131L61 130L59 116L56 111L55 107Q41 90 37 71L25 55L24 48Q14
29 11 11Q13 12 16 12Q20 12 26 10Q31 12 39 12T53 13Q55 13 57 11Q56 9 54 6T51 -2Q55 -2 57 2T61 10L74 11H79Q84 11 88 11T96 10L94 3Q87 -7 80 -17T63 -35ZM213 358Q222 359 229 358L225 366Q222 365 219 363T213 358ZM134 343L136 347H139L138 345L134 343ZM20
18L19 20L20 23L23 24L20 18ZM51 4L54 7V11L51 8V4ZM16 -23L15 -21L18 -19L19 -20L18 -22L16 -23Z" />
<glyph unicode="\" glyph-name="backslash" horiz-adv-x="453" d="M432 -55Q429 -55 423 -52T416 -44Q416 -41 421 -39T426 -26Q426 -8 412 17T379 66T349 104Q298 171 245 235T136 363Q111 392 86 420T36 479Q30 485 30 492Q30 499 38 502T57 508T72 510Q77 510
93 492T132 446T181 384T230 320T269 267T291 238Q311 211 330 184T369 128Q382 109 401 81T435 24T450 -28Q450 -35 446 -45T432 -55Z" />
<glyph unicode="]" glyph-name="bracketright" horiz-adv-x="265" d="M94 -29Q89 -29 80 -29T66 -26Q61 -27 56 -27T46 -28Q42 -28 39 -28T31 -27V-24L28 -26Q21 -27 15 -27T2 -28Q-7 -28 -5 -19Q3 -8 10 2T26 19L28 11L31 12L34 10Q42 10 50 10T67 7Q68 2 74
0L78 6L79 13L86 17L81 18Q83 22 86 25T92 33L93 36L89 34Q93 41 99 53T112 77T123 93L124 102Q141 134 155 168T186 236L188 238L190 231L193 233L195 247L198 252L200 256Q205 264 210 273T218 292L229 308L230 314Q240 333 244 352Q240 351 236 351T228 352Q223
351 215 351T201 350Q199 350 197 352Q199 354 200 357T203 364Q200 364 198 360T193 352H176Q172 352 168 352T158 353L160 359Q167 370 174 380T191 397L193 390Q198 386 204 387T216 388Q221 388 224 387T232 385L238 378L243 385L251 379Q254 372 258 366T267
354Q265 350 258 350Q254 349 248 336T236 304T224 269T216 247Q197 203 175 160T137 69L129 62L132 55Q125 39 118 24T105 -9L97 -15Q103 -17 103 -24L94 -29ZM236 382L235 383L236 385H238L240 383L236 382ZM200 352L203 354V359L200 356V352ZM231 339L234 345L235
342L234 340L231 339ZM116 16V18L120 19L118 16H116ZM29 -3Q36 0 41 5Q32 4 25 5L29 -3Z" />
<glyph unicode="^" glyph-name="asciicircum" horiz-adv-x="382" d="M56 323Q49 329 44 335T32 349Q33 354 45 362T72 381T91 397L110 408L112 414Q121 418 135 434T164 467T186 493Q203 498 218 498Q231 498 240 491T262 481L267 468L263 461V460H268L274 455L269
444L280 433Q283 432 292 421T314 394T336 365T351 347L357 357V359Q361 355 364 352T370 344L361 337Q330 340 306 355T261 391T221 434L220 439Q214 443 209 448T198 457L194 455L192 457L194 464L192 469L184 457L190 451Q189 441 179 436T162 423L164 420L159
414L144 417L143 415L147 407Q135 403 122 395L124 388L115 375Q104 370 93 358T73 336T56 323ZM217 453L216 458L212 455L217 453Z" />
<glyph unicode="_" glyph-name="underscore" horiz-adv-x="419" d="M4 -105Q-10 -101 -10 -91Q-10 -85 -4 -84Q-2 -82 12 -81T44 -79T78 -78T99 -78L217 -76Q235 -76 253 -76T287 -75Q317 -75 353 -75T418 -81Q429 -85 429 -91Q429 -94 421 -96Q417 -96 412 -96T402
-94Q390 -92 375 -91T345 -90Q339 -90 335 -90T322 -91H241Q233 -92 225 -92T212 -92Q202 -94 180 -94T134 -95H86Q66 -96 53 -98T11 -105H4Z" />
<glyph unicode="`" glyph-name="grave" horiz-adv-x="109" d="M97 276Q93 276 78 289T45 316Q41 318 38 321L31 328Q30 329 26 331Q-1 349 -1 355Q-1 359 4 364T15 370Q24 370 32 359Q40 349 54 334T79 306Q84 300 92 292T102 282Q103 281 103 280Q103 276 97 276Z" />
<glyph unicode="a" glyph-name="a" horiz-adv-x="312" d="M63 1Q49 1 32 16T15 47H14Q15 51 16 66T21 82V84Q22 85 26 92T34 107T40 117Q43 122 56 136T83 164T101 177Q107 186 123 197T157 218T182 232V233L183 232H184Q188 236 199 240T215 246Q222 249 229
250T243 252Q248 251 253 251T264 250Q274 248 286 240T298 219Q297 218 296 216T296 213L292 215Q286 226 274 228T251 231Q224 231 194 218T135 182T84 135T50 87L47 75Q45 65 41 56T37 36Q37 28 39 25T46 14L48 15V14L50 16L54 15Q61 19 69 21T82 29L84 31Q90
33 95 38T104 47Q119 61 134 75T162 104Q169 112 180 124T199 141L200 145Q208 148 215 159T230 180T245 191L249 192Q257 192 262 186T267 172Q267 164 262 154T255 136Q250 115 248 99T246 61Q246 48 250 39T264 20H269Q283 28 289 37T304 56Q305 56 306 57T307
58Q309 58 309 56Q309 52 308 49T305 40Q303 29 300 20T280 10Q271 10 260 14T242 25Q227 42 224 62T220 105V137H218Q214 131 209 125T199 113Q195 109 190 105T180 94Q178 94 173 88T167 78Q160 77 152 66T140 55Q139 52 133 46T124 36Q117 35 113 29T104 18Q95
14 84 8T63 1Z" />
<glyph unicode="b" glyph-name="b" horiz-adv-x="287" d="M1 -74Q-7 -74 -20 -72T-44 -64T-55 -46Q-55 -40 -51 -40Q-45 -40 -44 -47T-40 -58Q-35 -65 -26 -66T-10 -68Q-5 -68 0 -68T11 -67Q14 -65 20 -65Q25 -63 31 -60T41 -56Q49 -54 56 -50T70 -41Q108 -20
141 7T203 66Q209 72 220 85T240 111T250 131Q255 136 257 144T260 160Q260 172 247 172Q233 172 214 167T183 156Q179 154 167 146T140 128T116 110T105 98Q103 97 100 97T95 96Q91 95 88 88T81 78Q71 68 65 55T51 30Q48 24 46 13T39 -7T25 -16Q18 -16 8 -6T-2
11Q-2 12 -1 14T0 17Q4 31 13 41T31 61Q39 73 48 85T65 110Q78 129 92 154T122 196L123 197Q124 202 130 210T141 224Q152 240 162 256T186 288Q192 296 208 316T242 357T277 395T301 411V410L308 411Q313 411 323 405T343 392T352 381L348 382Q341 387 335 387Q320
387 306 372T280 348Q275 344 270 341T260 333Q259 331 258 330T256 326Q255 324 251 323T244 319Q243 319 237 309T229 296Q226 294 220 290T211 281Q200 263 185 249Q180 244 170 230T151 202T137 180Q130 168 122 160T111 137L114 135Q133 148 152 158T191 178Q195
178 198 179T205 181Q209 183 220 184T236 186Q239 185 249 183T259 177Q269 173 274 161T279 138Q279 119 269 103T247 73Q243 68 240 63T232 53Q230 51 225 49T219 45Q212 36 211 36T204 32Q197 25 197 23T185 15Q183 11 177 6T168 -2L159 -5Q158 -10 149 -16T129
-28T113 -36Q107 -39 102 -43T90 -49Q86 -50 75 -55T62 -62H60Q59 -62 58 -62T55 -63Q42 -67 29 -70T1 -74Z" />
<glyph unicode="c" glyph-name="c" horiz-adv-x="265" d="M83 -11Q66 -11 46 -2T16 23Q12 32 12 45Q12 64 15 75T23 97T36 124Q37 126 43 133T57 147T67 158L77 171Q80 176 84 176T92 179Q100 193 114 203Q120 207 137 215T160 223Q165 223 169 221T177 219L179
220Q181 213 188 210T196 196Q196 193 192 185T184 170T176 162Q177 168 179 173T181 185Q181 190 178 195T169 201Q157 201 140 189T108 162T85 137Q70 120 56 102T35 62Q33 54 32 47T30 31Q32 28 32 25T34 17Q39 9 47 6T64 2Q82 2 97 9T121 16Q128 21 135 24T149
32Q154 32 162 38T175 47Q197 60 217 73T257 102Q261 105 270 113T284 122Q283 122 284 123Q287 122 287 117Q287 107 271 97T248 81Q245 78 242 73T234 68L233 65Q226 61 215 53T201 44Q194 42 189 39T178 30Q170 25 163 18T145 11Q145 10 145 10T144 10Q143 4
136 3T125 -1Q115 -7 106 -9T83 -11Z" />
<glyph unicode="d" glyph-name="d" horiz-adv-x="242" d="M179 -90Q169 -90 156 -79T139 -58Q136 -52 135 -43T133 -26Q133 -19 134 -13T136 0Q141 14 148 37T164 73V75H162V76Q164 78 167 81T171 89L167 88L166 90H165Q159 90 159 83Q154 81 147 70T137 59L135
58L136 55H135L129 52Q127 50 126 48T120 45V44Q112 29 91 12T50 -5Q34 -5 26 3T11 11L10 12Q7 22 2 24T-3 42V50L-1 55V56Q-1 59 1 66T8 74Q8 85 16 99T34 127T52 149Q69 169 89 181T131 206V205Q142 212 150 212Q152 213 156 213Q164 213 176 206T189 190Q189
188 189 184T187 178L180 171Q178 169 174 161T166 153H165L166 161Q170 166 170 174Q170 180 168 187T157 195Q150 195 139 189T122 178Q118 175 114 173T105 167Q89 154 70 131T36 81T21 32Q21 24 25 16T39 8Q51 8 70 23T112 63T156 113T195 161T222 194Q233
209 244 224T265 255Q267 258 271 263T276 272Q277 272 284 282T301 305T319 329T329 343Q334 349 338 354T346 367L348 370L349 369Q350 372 357 383T368 395L367 397Q377 403 387 418T413 440Q418 439 422 438T431 435V433Q433 431 434 429T436 423Q436 417 430
410T419 397Q409 384 394 372T366 348Q361 343 358 337T349 326Q346 322 343 320T337 314Q332 307 327 300T316 287Q303 273 292 258T270 225Q264 216 260 208T247 192Q244 188 241 180T233 170Q232 163 223 148T210 125Q208 121 206 111T198 99V98Q198 94 195
91T190 83Q183 68 176 45T163 -3T157 -43Q157 -53 159 -63T171 -79L172 -78L173 -79H174Q182 -75 191 -72Q196 -70 199 -66T209 -61Q208 -65 208 -68T205 -75Q204 -80 194 -85T179 -90Z" />
<glyph unicode="e" glyph-name="e" horiz-adv-x="228" d="M92 -5Q67 -5 42 11T17 55Q17 60 17 65T18 74Q18 80 9 84T0 95Q1 96 3 96Q7 96 11 95T19 93Q22 93 26 95Q28 97 34 113T54 152T87 196T135 230Q141 232 147 234T160 237Q171 237 183 229T196 208Q196 201
193 196T187 184L182 181Q179 176 172 168T164 155Q164 155 164 155T163 154L159 153Q153 149 149 143T140 134Q121 121 103 109T63 87Q59 85 54 84T46 79Q42 73 41 65T39 49Q39 37 45 23T66 8Q68 8 69 8T72 9Q78 9 83 10T95 12L101 15H102Q107 15 121 22T150 38T167
50Q169 51 170 53T173 56Q190 69 208 81T242 109V108H244Q243 103 237 98T227 88Q216 68 192 50T148 19Q141 14 135 9T120 0Q105 -5 92 -5ZM53 105Q61 105 68 111T80 119L81 118V119Q100 128 117 144T150 175H152Q152 181 161 188T170 201Q172 203 174 207T176
214Q173 216 167 216Q162 214 154 209T140 204Q140 203 131 196T111 181T98 170Q93 165 82 152T62 126T53 106V105Z" />
<glyph unicode="f" glyph-name="f" horiz-adv-x="253" d="M11 -278Q-8 -278 -23 -266T-53 -241Q-58 -236 -60 -226T-63 -208Q-63 -203 -64 -197T-65 -185Q-65 -180 -65 -174T-63 -162Q-61 -158 -60 -154T-58 -145L-59 -137Q-57 -134 -55 -128T-52 -118Q-50 -112
-49 -105T-47 -91Q-45 -85 -42 -80T-37 -69Q-35 -63 -35 -57T-31 -46L-4 13Q-8 18 -15 18T-23 29Q-23 40 -13 47T10 58T28 67Q30 68 33 74T36 81Q41 83 43 91T50 100L49 104H51L50 109Q58 112 64 125T76 145Q78 149 81 152T87 160Q89 162 90 165T92 171Q94 175
97 179T104 187Q105 188 105 189T106 191L110 197Q111 197 111 197T110 198Q111 198 111 198T111 199L113 201H114V203Q116 204 117 205T119 206V209L121 210V213L124 217Q127 219 127 221Q131 221 131 224H134Q134 225 134 225T133 227L135 228Q136 230 140 230V231Q140
232 140 233T141 236L144 237L146 240V242Q148 243 151 245T154 251Q155 252 165 263T188 286T202 300Q204 306 209 309T218 316L217 317Q221 319 222 321T228 324Q233 334 252 346T280 365Q294 365 304 356T317 332L313 331Q312 336 309 336T301 337Q299 339 297
339Q285 339 271 328T242 305T215 287Q211 280 205 276T191 266Q189 265 178 252T157 226T146 210V208L143 207Q139 200 135 194T124 182Q124 182 124 179Q121 179 120 178Q115 173 107 159T91 140L92 137Q83 130 78 119T69 96Q68 94 64 91T60 82Q60 77 66 77Q68
77 70 77T74 78L77 81Q78 80 80 80Q92 80 97 84L100 83Q107 83 113 84T125 85L126 86H127V87Q130 88 136 90T145 93V92Q149 94 164 98T181 103L210 109Q213 110 216 110T223 110Q225 111 227 112T233 113L250 115L252 117H253Q255 117 258 115T261 111H260Q256
110 241 108T226 100L222 101Q221 97 217 96T208 94Q204 90 192 85T180 71Q180 67 185 64T193 57Q204 43 207 28T210 -5Q210 -13 209 -20T205 -35Q204 -40 204 -45T204 -55Q200 -58 196 -68T191 -83H190Q186 -87 185 -92T184 -103H183L180 -104L181 -107L177 -109Q177
-110 176 -114T172 -119V-120Q172 -123 168 -129T161 -136Q160 -139 157 -146T150 -153Q148 -159 142 -169T134 -186L133 -187Q126 -190 125 -193T121 -201Q114 -207 110 -213T101 -226Q98 -229 95 -231T88 -235Q71 -251 54 -264T11 -278ZM-2 -267Q3 -267 7 -266T15
-265Q33 -257 43 -250T67 -230L70 -225Q75 -221 80 -216T89 -204Q91 -201 93 -199T98 -193Q100 -190 102 -186T107 -179Q110 -174 113 -169T121 -160Q132 -143 140 -124T159 -88V-85Q159 -80 162 -76T167 -67Q172 -51 177 -36T186 -4Q186 -2 187 1T189 5Q190 7
190 12L188 44Q187 57 173 65T146 75Q138 72 130 69T114 62Q110 61 106 59T98 54Q93 52 87 51T76 47Q72 46 69 44T63 40Q51 33 38 25T19 3L17 0Q16 -5 13 -10T8 -20Q4 -30 0 -41T-8 -64Q-12 -74 -13 -78T-16 -93Q-16 -93 -18 -98T-20 -104Q-27 -125 -32 -148T-37
-195Q-37 -205 -34 -222T-24 -253T-2 -267Z" />
<glyph unicode="g" glyph-name="g" horiz-adv-x="302" d="M22 -248Q3 -248 -18 -239T-55 -214T-71 -177V-176Q-70 -174 -70 -170T-69 -164Q-69 -156 -70 -148T-71 -131Q-71 -126 -71 -120T-67 -110L-64 -109Q-64 -113 -64 -117T-65 -127Q-65 -135 -62 -143T-58
-160Q-55 -164 -54 -168T-52 -176Q-47 -185 -42 -193T-34 -211Q-20 -224 -12 -231T16 -239Q20 -239 33 -236T47 -231Q76 -215 98 -193Q112 -179 123 -162T144 -128Q182 -67 208 0T250 136H246Q236 120 223 108T200 79H197L196 76Q186 72 173 57T150 33L128 15Q126
15 126 12Q113 10 103 1T72 -8Q63 -8 50 -1T31 14Q30 17 29 20T26 26Q23 31 20 36T17 48Q17 56 22 76T36 113T54 130Q56 132 60 135T64 142Q64 143 64 143T63 145H61Q63 151 77 166T109 198T145 230T169 247Q181 253 193 257T218 266V265Q226 267 231 267Q237 267
243 267T254 265Q269 260 282 247T296 216Q296 210 294 205T291 192Q298 189 298 180Q298 175 292 159T279 125T269 99Q266 89 264 78T257 55Q254 45 250 36T240 16Q238 10 237 4T233 -7Q230 -14 227 -21T220 -36Q217 -43 209 -55T199 -72Q192 -98 177 -115H178Q178
-117 173 -125T163 -141T155 -152Q151 -152 151 -156Q150 -158 143 -167T135 -178Q134 -181 131 -183T126 -187Q122 -191 118 -197T109 -208Q104 -209 93 -219T64 -238T22 -248ZM62 5Q68 5 77 7T90 14Q91 14 92 15T94 16H95Q112 27 127 39T159 66Q168 74 177 86T197
103L199 104V106Q208 117 219 127T238 149Q240 152 242 155T246 162L264 182L270 191Q276 195 282 195Q283 196 284 196Q284 201 281 212T273 234T264 247Q260 250 253 250T241 251L227 248Q210 244 195 233T165 212L144 197Q135 190 128 182T113 165Q109 161 107
155T100 144Q83 126 72 106T52 62Q49 55 46 47T43 29Q43 19 47 12T62 5Z" />
<glyph unicode="h" glyph-name="h" horiz-adv-x="302" d="M36 -27Q27 -27 19 -23T11 -9Q11 10 18 38T36 94T53 146T61 180V181H56Q44 181 32 189T19 211Q19 224 29 234T48 251Q52 253 55 256T63 260L70 263V262Q70 261 62 253T52 242Q48 236 44 222T39 201Q39
195 43 194T51 193Q55 193 61 197T69 199Q69 200 74 210T81 221V225Q85 234 89 245T100 264V265Q105 276 114 295T134 336T156 376T174 401Q174 403 182 413T192 427Q202 442 222 462T264 499T301 522L315 527Q329 523 340 516T351 492Q351 473 339 447T311 397T284
358Q277 348 269 340T253 320Q246 316 241 310T231 298Q225 292 210 278T177 249T143 223T121 210L120 209Q113 202 105 200T90 192Q86 188 81 176T72 150T65 129Q61 118 59 106T51 83L45 62Q44 58 41 46T37 22T36 11Q38 12 54 31T96 78T147 135T195 183T224 204H229Q243
204 251 201T256 178Q245 141 228 105T210 29Q210 24 211 13T217 -6T229 -15Q242 -15 256 -1T285 30T309 55V44Q307 41 305 37T301 29Q294 19 280 3T255 -21Q252 -23 246 -24T236 -25Q231 -25 227 -23T218 -19Q184 -3 184 35Q184 54 185 70T192 104Q197 121 200
138T208 172L176 141Q171 137 168 131T159 119Q154 112 147 107T134 95Q125 86 118 75T101 54Q94 47 88 40T75 25Q71 20 64 9T50 -14T36 -27ZM94 212H97Q168 256 230 320T324 463Q326 470 326 473T325 483Q325 486 320 486T311 486Q304 482 293 477T276 467Q274
466 274 464T272 460L259 448Q256 445 253 443T246 438Q242 434 240 431T233 423Q229 419 226 416T217 409Q214 407 206 396T187 371T168 344T157 328Q156 327 155 324T151 320Q151 315 148 315L149 311H146Q145 307 139 298T129 288Q129 287 129 287T130 287V286Q130
285 125 274T113 249T101 225T94 212Z" />
<glyph unicode="i" glyph-name="i" horiz-adv-x="112" d="M147 249Q143 249 137 254T131 263Q131 265 138 272T153 287T164 297Q172 295 172 288Q172 284 168 275T158 257T147 249ZM41 -10Q38 -10 36 -8T30 -5Q23 1 20 5T17 19Q17 51 32 80T60 137Q62 139 61 141T60
146Q60 155 67 166T85 189T101 205Q107 205 119 204T131 194Q131 193 121 182T109 168Q96 148 79 121T48 64T35 9Q47 11 60 23T81 45H82V44Q82 40 78 36T72 29Q68 22 60 6T41 -10Z" />
<glyph unicode="j" glyph-name="j" horiz-adv-x="215" d="M180 245Q176 245 170 250T164 259Q164 261 171 268T186 283T197 293Q205 291 205 284Q205 280 201 271T191 253T180 245ZM-109 -267Q-126 -267 -133 -257T-148 -238Q-147 -235 -146 -223T-142 -211L-143
-208Q-138 -201 -136 -193T-130 -177Q-117 -152 -101 -128T-66 -82V-79Q-57 -69 -49 -59T-31 -38Q-26 -33 -21 -29T-10 -20Q-8 -18 -1 -10T9 -1Q11 1 14 3T18 8Q43 33 73 54Q76 56 89 64T103 75Q109 84 117 106T130 152T136 187Q136 201 133 203T119 205Q116 205
112 207V208L119 213Q126 213 133 210T147 205Q164 200 164 182Q164 181 162 169T158 144T155 131Q152 122 149 115T141 99L144 96Q159 103 175 108T208 113Q219 113 231 107V106Q227 105 222 105T212 104Q164 92 129 57Q114 41 109 23T94 -14Q91 -20 87 -26T79
-38Q76 -42 74 -47T70 -57L52 -83Q44 -96 37 -110T21 -137Q17 -142 13 -147T5 -157Q-1 -164 -5 -172T-16 -187Q-24 -197 -41 -216T-76 -251T-109 -267ZM-113 -254Q-107 -250 -101 -247T-90 -239Q-60 -215 -33 -178T17 -101T57 -28Q59 -24 64 -15T73 3T77 14H78Q78
19 83 25T88 37Q88 39 86 41V40Q82 38 73 30T61 21Q59 19 57 18T52 15Q46 11 42 5T33 -6Q29 -9 23 -13T13 -21Q9 -28 5 -33T-4 -44Q-8 -50 -14 -55T-25 -67Q-30 -75 -36 -82T-48 -97Q-55 -107 -61 -119T-75 -142Q-85 -158 -98 -179T-112 -220H-113Q-117 -223 -118
-228T-119 -238Q-119 -242 -119 -245T-117 -253L-113 -254Z" />
<glyph unicode="k" glyph-name="k" horiz-adv-x="221" d="M336 -227Q310 -227 285 -206T238 -154T198 -92T170 -40Q156 -12 143 24T122 92Q121 96 119 107T111 119Q108 119 108 116Q104 115 102 111T99 102Q94 102 88 92T75 72T65 61Q64 58 63 57T59 53Q57 51
56 47T52 39Q48 33 44 27T35 14Q33 10 33 3T27 -8Q26 -9 23 -9Q14 -9 7 -3T0 13Q0 34 11 54T22 86Q23 88 27 97T36 116T40 128Q73 206 112 271T204 404Q206 406 207 407T210 410V412Q227 430 247 453T288 488Q294 486 302 483T313 474Q324 458 324 439Q324 432
323 425T319 412Q315 401 298 381T259 338T216 298T185 271Q180 268 171 259T152 243T137 235V237Q179 278 219 319T293 411Q298 419 306 431T314 452Q314 454 314 456T313 461Q294 459 284 446T259 425L250 420Q249 419 244 412T236 402Q232 398 227 394T220 384Q213
381 209 375T200 361Q186 355 175 334T154 300Q152 297 148 293T144 284Q140 282 131 267T119 247L118 246Q118 244 116 239T112 232Q111 231 106 222T94 199T84 177T79 166Q73 158 65 138T52 106L50 104Q49 94 43 83T37 61V59H38Q41 59 44 65T49 73L59 85Q61 87
62 89T65 94Q68 99 72 103T80 111Q82 113 87 121T99 136T105 145Q106 146 106 149Q106 155 101 162T89 170V171Q94 172 97 173T105 174Q112 174 118 173T131 172Q134 177 138 180T147 188Q159 199 175 211T208 223Q221 223 229 216T238 195Q238 179 219 164T185
144Q168 137 148 137Q145 137 144 133T143 127Q143 117 148 101T157 74Q158 71 158 68T159 62Q164 45 178 12T213 -61T256 -136T303 -195T346 -218Q363 -218 373 -203Q381 -194 387 -172T396 -125T398 -90H399V-91H401Q402 -95 402 -99T403 -107Q403 -117 403 -127T402
-147Q402 -159 401 -171T395 -196Q389 -212 370 -219T336 -227ZM144 151V152L146 153Q155 155 172 164T202 186T216 208Q216 210 213 210T209 210Q205 208 194 202T173 187T162 174Q157 171 149 166T140 152Q143 152 144 151Z" />
<glyph unicode="l" glyph-name="l" horiz-adv-x="196" d="M86 -16Q60 -16 47 -4T30 27T26 66Q26 82 18 83T11 90L32 106Q32 106 35 117T43 140T48 154Q47 157 53 171T68 202T85 233T95 248V249H94Q99 257 102 265T113 279Q113 281 120 291T130 305Q156 340 190
381T263 445Q268 447 272 449T280 453Q282 453 282 453T284 454Q296 454 312 444T329 420Q329 410 316 389T282 341T240 288T199 241T173 213Q170 210 166 207T158 200Q150 192 143 183T126 166Q113 154 101 142T75 119Q70 115 65 110T54 100Q49 94 47 78T45 54Q45
45 47 31T57 5T76 -6Q82 -6 86 -4T96 1Q125 17 150 37T197 81Q205 89 212 97T228 114Q230 116 236 122T246 127Q245 120 239 115T228 103Q222 94 217 86T207 67Q205 63 201 59T194 51Q179 33 162 18T121 -7Q112 -11 104 -13T86 -16ZM66 134Q125 189 181 248T280
377Q285 385 293 402T302 428Q302 434 299 435Q287 431 278 424T259 409Q257 407 253 405T246 400Q239 392 231 384T215 368Q204 356 194 343T174 317Q151 288 136 265T100 210Q96 204 87 189T71 158T62 135L66 134Z" />
<glyph unicode="m" glyph-name="m" horiz-adv-x="358" d="M337 -53Q332 -53 328 -52T318 -50L315 -52Q299 -39 295 -16T290 26Q290 46 291 66T294 106Q295 120 298 134T302 161Q302 167 301 169L299 171L297 170Q289 166 283 151T272 127Q269 121 259 104T237
70T221 50Q212 43 203 43Q193 43 185 48T176 65Q176 69 181 85T195 121T208 159T214 188Q214 194 211 194Q207 194 195 184T170 162T155 146L148 134Q132 121 119 103Q118 102 117 100T115 96Q113 93 106 84T91 66T79 55Q76 48 72 43T61 31Q55 25 47 7T35 -19Q34
-21 28 -23T18 -25Q14 -25 9 -21T3 -13Q3 -10 10 7T28 46T46 85T57 104Q56 106 58 108T61 111Q61 116 67 126T75 141Q84 158 95 182T115 230T124 272Q118 272 112 270T100 268Q96 271 96 273Q96 279 110 279Q116 277 127 277T149 276T159 263Q159 258 151 240T130
199T108 154T93 123Q92 118 88 115T84 104Q81 103 81 98Q81 97 81 95T82 91H83Q85 95 95 107T116 131T130 148H132Q147 165 162 180T197 208Q201 210 202 213L204 212Q206 212 208 213T214 214Q225 214 235 205T245 184Q245 169 236 154T219 124Q215 116 212 108T205
91Q204 87 200 78T195 65Q195 64 195 64T196 62Q204 64 209 70T219 83Q229 96 239 109T259 135L272 150Q277 158 284 168T298 182Q306 185 313 185Q321 185 331 183T342 171Q342 156 335 143T324 115Q322 108 318 90T311 53T308 26Q308 20 310 18Q309 17 309 13Q309
9 310 5T313 -5Q313 -15 315 -30T333 -46V-45L334 -46V-45Q339 -43 346 -36T360 -19T367 -6H368V-7Q368 -8 367 -16T364 -32T361 -42Q352 -53 337 -53Z" />
<glyph unicode="n" glyph-name="n" horiz-adv-x="251" d="M41 14Q35 14 28 20T20 32Q20 51 30 78T54 134T83 189T108 232Q113 241 116 251T127 269Q135 268 145 264T156 249Q156 241 147 232T132 216Q110 191 93 162T61 103Q58 97 56 92T52 81Q50 76 47 72T44
62Q44 60 45 57T49 54Q57 62 74 81T111 122T147 160T170 179Q172 180 174 180T178 181Q194 181 203 167T212 138Q212 122 209 107T206 77Q206 65 211 46T232 27Q236 29 241 31T250 33Q253 33 253 29Q253 24 248 21T238 18Q223 18 207 31T187 59Q183 74 182 89T180
120Q180 127 181 140T183 158Q177 158 167 150T148 132T135 117Q133 115 130 113T123 108Q119 103 114 97T104 85Q102 83 96 78T87 70Q82 60 74 51T59 32Q57 29 55 25T50 18Q47 14 41 14Z" />
<glyph unicode="o" glyph-name="o" horiz-adv-x="268" d="M65 -23Q49 -23 42 -16T29 -8Q28 -3 20 3T12 31Q12 51 21 66T37 98Q39 103 39 108T41 118Q43 125 47 131T55 143Q78 182 109 206T182 248H183Q188 250 199 251T215 253Q225 253 233 249T247 245L245 243Q254
239 259 232T270 218Q272 216 274 214T277 210Q280 207 281 201T282 190Q282 164 269 143T240 102Q233 92 227 82T211 63Q209 61 201 53T185 38T176 28Q169 25 163 19T150 8Q132 -5 110 -14T65 -23ZM60 -11Q60 -11 74 -7T92 -2Q97 0 111 8T139 26T152 40Q159 42
171 55T196 84T212 106Q214 108 219 116T225 125Q226 129 228 133T231 141Q234 143 237 154T242 166L241 167Q242 169 242 170T244 173Q244 179 246 184T248 196Q250 200 250 206T250 216L251 217V218Q251 227 246 234T229 241Q201 241 179 228T135 198Q128 193
121 188T108 175Q106 174 102 171T98 165Q107 166 115 172T140 179Q145 179 159 170T174 156V154Q168 156 166 158T155 160Q135 160 115 145T81 115Q75 110 70 104T60 91Q57 84 57 75Q59 76 61 73T63 67H60Q55 67 53 69T48 72Q44 69 39 56T32 43Q31 39 31 35T30
26Q30 10 36 0T60 -11Z" />
<glyph unicode="p" glyph-name="p" horiz-adv-x="314" d="M6 -249Q5 -249 2 -249T-2 -246Q-15 -246 -22 -235T-32 -210T-35 -186Q-35 -178 -33 -169T-30 -151Q-26 -146 -25 -138T-22 -124Q-18 -111 -13 -99T-2 -76Q0 -70 2 -68V-65Q7 -59 9 -52T14 -38Q19 -27
25 -17T37 4Q45 17 53 29T68 55Q72 60 77 66T84 78Q93 96 109 121T138 163L137 165L140 169Q142 177 149 190T156 210V211H155Q146 211 129 205T92 188T60 167T47 147Q47 141 51 138T60 131V130Q59 130 59 129Q50 131 33 136T16 154Q16 163 31 174T67 197T107 215T135
224Q138 225 147 226T166 229T175 231Q183 241 192 250T208 269H209L210 271L215 270L216 271Q224 271 233 262T243 245Q243 238 234 235T225 225Q225 221 238 215T264 197T277 159Q277 152 276 146T275 131L273 129Q274 129 274 129T274 128Q277 128 280 128T287
129Q292 129 304 126T320 119Q323 117 324 114T329 108V107L326 106Q320 108 316 110T305 113Q301 113 297 112T288 108Q274 104 262 97T246 73Q242 70 241 69T238 62Q231 55 227 48T216 33Q210 26 204 20T191 7Q187 3 184 0T178 -8Q175 -12 165 -17T145 -27T129
-32Q120 -32 111 -23T101 -3Q101 19 121 40T167 79T211 105Q216 107 231 113T249 121Q255 127 257 140T260 162Q260 180 252 194T222 208Q207 208 195 198Q190 194 181 183T162 159T148 139Q118 96 91 52T43 -41Q42 -42 41 -45T37 -49Q37 -50 32 -62T22 -88T16
-104Q15 -106 14 -108T11 -112Q10 -119 8 -125T3 -138Q-1 -155 -6 -174T-11 -212Q-11 -217 -10 -223T-7 -235Q-5 -239 2 -242T9 -247Q9 -249 6 -249ZM127 -1Q131 -1 135 3Q158 17 172 26T198 48T227 85Q229 87 231 90T233 96Q233 98 231 100Q218 90 204 82T176
63Q167 56 159 47T141 30Q141 27 133 15T123 1Q125 -1 127 -1Z" />
<glyph unicode="q" glyph-name="q" horiz-adv-x="246" d="M114 -266Q89 -266 77 -245T64 -202Q64 -143 82 -93T130 8Q134 14 138 20T145 32Q159 55 171 79T199 126Q198 126 198 126T196 127Q192 127 184 116T172 101Q171 97 169 92T163 82Q156 74 143 59T113 29T81
4T53 -7Q35 -7 24 9T12 41Q12 52 18 62T29 82Q34 93 40 103T55 123Q62 131 69 139T84 154Q99 170 119 188T164 219T210 232Q215 232 225 230Q230 227 244 220T258 204Q258 198 254 184T241 168L240 169Q246 180 246 191Q246 201 241 208T225 215Q209 215 196 208T169
193Q165 190 161 188T152 183Q145 179 140 174T129 163Q112 148 90 124T52 72T36 20Q36 16 37 13T39 6H41Q54 5 73 18T114 52T156 94T190 131T209 149H215Q223 149 233 144T244 130Q244 122 234 113T218 97Q216 95 214 91T209 85Q207 83 204 82T198 79Q194 76 184
58T164 22T154 -1Q150 -1 150 -5T148 -9V-15Q145 -19 138 -33T124 -66T112 -98T107 -118Q105 -121 102 -134T96 -165T91 -196T89 -215Q89 -220 90 -230T94 -248T105 -257Q109 -257 113 -255T120 -251Q145 -233 165 -211T206 -166Q208 -163 210 -161T215 -156Q215
-153 217 -155Q219 -150 231 -137T247 -120V-125Q246 -127 245 -131T240 -135Q240 -136 233 -145T217 -164T207 -177Q195 -194 184 -215T156 -251T114 -266Z" />
<glyph unicode="r" glyph-name="r" horiz-adv-x="226" d="M25 -19Q19 -19 13 -16T5 -5Q5 -4 5 -1T7 3L55 116Q62 133 70 156T82 203T85 244Q79 244 72 242T59 240Q57 240 57 243Q57 246 59 249T69 252Q71 251 78 251Q90 251 105 251T121 237Q121 232 115 214T99
173T81 130T70 99Q65 89 65 85H68Q76 98 86 108T105 132Q111 136 123 151T148 183T174 207Q176 208 183 212T191 218Q194 218 197 218T204 219Q207 219 209 219T215 218Q218 218 228 214T247 204T256 195Q256 186 249 182T237 172Q230 163 222 153T211 130L210
125L209 124Q209 124 209 125T207 126L206 125Q206 145 216 163T226 201Q226 206 222 206Q215 206 203 198T181 181T169 172Q167 168 158 159T144 147Q137 141 132 133T120 117Q119 116 116 114T111 110Q107 103 101 97Q99 93 98 89T92 81L87 80Q83 72 77 66T66
52Q62 45 60 37T52 23Q46 15 40 5T33 -17H32Q28 -19 25 -19Z" />
<glyph unicode="s" glyph-name="s" horiz-adv-x="216" d="M0 -55Q-4 -53 -8 -46T-17 -31T-25 -24Q-25 -20 -26 -17T-28 -11Q-7 18 23 41T85 80H88Q95 87 104 92T119 104V105Q106 113 91 119T65 136Q55 144 47 156T38 182Q38 204 59 222T97 251Q102 257 116 265T146
280T169 291V290Q176 295 185 297L197 302H199Q207 304 216 306T233 309Q242 309 254 299T266 279Q266 275 261 265T249 245T238 234Q237 234 237 234T235 233V235Q240 241 244 253T249 274Q249 289 233 289Q221 289 211 286T189 277Q152 264 125 247T74 195Q70
188 66 181T61 165Q61 155 68 149T84 138Q87 136 99 129T122 116T135 109Q140 109 145 113T154 119Q168 127 193 139T233 155L247 158Q248 158 250 156Q249 155 247 154T243 151Q237 145 224 141T205 132Q202 130 200 127T195 121Q186 115 172 106T158 84Q158 80
159 76T161 67Q161 59 156 45T144 25V21Q135 18 131 9T114 0L109 -6Q102 -6 97 -11T87 -22H86Q79 -22 72 -28T54 -40T27 -43Q23 -44 20 -46T13 -48Q10 -48 10 -46Q10 -45 13 -42Q17 -40 34 -32T58 -20Q58 -19 62 -16T68 -12Q81 -3 97 11T125 43T137 77Q137 80 136
85T131 91Q127 91 124 87T118 81Q111 76 103 71T87 60Q77 53 69 45T51 28Q38 18 27 8T5 -15Q-3 -23 -3 -35Q-3 -39 -1 -43T1 -53L0 -55Z" />
<glyph unicode="t" glyph-name="t" horiz-adv-x="202" d="M102 -74Q97 -74 86 -68T71 -58Q64 -50 62 -39T59 -18Q59 15 74 57T105 128Q107 132 113 143T126 165T132 177L114 171L108 172V171Q98 164 82 161T55 153L25 138H23Q19 138 17 142T14 150Q14 153 25 157T51
167T80 176T98 181Q111 184 122 188H123V189Q130 189 138 193Q157 221 175 248T218 299L240 320Q248 327 252 332T266 342Q273 341 285 335T298 321Q298 318 289 311T269 298T255 288L248 286Q236 276 226 265T205 243Q199 238 195 230T185 216V212Q183 211 179
207T174 200Q191 199 210 197T242 181V181Q242 181 242 181V181Q231 184 222 186T201 189Q181 189 164 183Q164 183 158 174T146 157T139 147Q136 143 127 128T111 98T102 82Q102 77 99 69T94 56L93 55V54Q93 48 90 41T85 29Q76 2 76 -27Q76 -35 78 -47T90 -64Q92
-65 99 -66T107 -70Q107 -74 102 -74ZM243 181Q242 181 242 181Q242 181 243 181Z" />
<glyph unicode="u" glyph-name="u" horiz-adv-x="264" d="M40 -9Q24 -9 16 2T8 28Q8 50 19 80T39 131Q42 137 46 143T50 157Q54 160 59 172T65 185V186Q61 185 58 182T50 176H49Q48 177 48 177T48 178Q48 181 50 181Q52 185 56 187T62 194Q69 202 74 210T88 225Q94
224 107 220T120 207Q120 201 112 189T94 165T80 147Q70 132 65 122T56 102T45 76Q40 65 35 53T30 28V19Q30 14 31 9T36 3Q40 3 45 6T54 12Q74 29 91 49T126 88Q148 111 170 134T213 183Q217 187 223 197T235 207H237Q242 207 250 203T259 192Q259 179 254 174T244
158Q243 153 241 149T235 139Q226 124 221 96T215 51V42Q215 35 216 28T221 18Q230 19 236 29T248 48T259 58V54Q259 49 257 45T252 36Q248 25 244 15T223 4Q203 4 196 22T189 57Q189 76 193 99T205 140Q206 142 207 144T207 148H205Q199 148 192 140T179 123T167
112V111L159 104Q149 86 134 70T105 39Q93 26 77 9T40 -9Z" />
<glyph unicode="v" glyph-name="v" horiz-adv-x="205" d="M36 -22Q23 -22 19 -11T16 12Q19 33 25 55T37 98Q42 112 43 126T48 155Q50 162 51 168T53 182Q54 186 54 189T54 195Q54 204 50 207T32 210Q34 214 39 214T48 214L50 215H64Q74 215 80 207T87 190Q87 184
85 179T82 167V164Q82 154 77 144T68 124Q67 119 66 113T63 102Q60 95 56 89T49 75Q48 70 43 55T36 31V29L38 28V29Q66 70 95 108T162 181Q176 195 191 208T225 228Q233 231 240 231Q259 231 267 219Q269 217 269 212Q269 205 261 212Q257 215 251 215T240 215Q236
215 226 211T208 201T198 190Q193 189 190 185T183 177L177 173L153 149V146Q150 146 147 143Q143 139 139 134T130 123Q128 121 126 119T121 113L112 98L103 91V88Q100 85 100 83Q93 77 82 62T69 38Q59 33 53 13T46 -16Q45 -20 42 -21T36 -22Z" />
<glyph unicode="w" glyph-name="w" horiz-adv-x="364" d="M45 -12Q40 -12 38 -10T30 -6Q6 7 6 36Q6 57 15 81T37 129T58 168T68 187Q68 186 68 186T67 187L59 186Q59 187 58 187T57 188Q60 192 63 195T70 202Q77 210 84 224T104 238Q109 238 123 233T137 222Q137
219 127 207T107 183T92 166Q81 150 67 122T43 66T33 18Q33 13 35 10T37 1H39Q62 13 77 32T108 71Q123 90 138 108T168 146Q173 154 185 172T204 196Q207 198 212 198T222 198Q229 198 235 192T241 179Q241 173 233 160T221 139Q214 123 210 101T206 62Q206 52
208 39T222 22V23H226V24Q242 28 258 42T290 75T313 106Q317 111 320 116T324 127Q333 134 333 144Q333 147 331 147Q332 153 335 158T341 169Q347 182 351 197T355 226Q355 232 354 241T345 251Q340 251 336 249T326 247Q321 247 321 253Q326 256 331 258T341
263Q360 262 371 255T387 228Q388 225 389 222T390 216Q390 206 384 194T378 164L374 162Q373 159 370 151T367 139Q360 136 355 127T347 109Q335 102 331 91T319 72Q306 60 299 47Q286 38 268 24T233 10Q227 10 224 11Q198 19 188 34T177 76Q177 93 180 110T187
143Q180 142 169 127T147 94T132 69Q119 47 101 30Q91 20 88 13T69 -2Q63 -5 58 -8T45 -12Z" />
<glyph unicode="x" glyph-name="x" horiz-adv-x="259" d="M-36 -143L-38 -140L-37 -139V-138Q-38 -135 -38 -132T-39 -125Q-39 -98 -25 -69T10 -11T52 41T87 80T101 99Q101 105 95 124T81 160T67 177Q58 177 52 168T36 156L35 157Q42 164 48 173Q55 182 65 198T88
214Q100 214 104 200T110 168T114 136T126 121Q128 125 139 137T165 163T191 190T208 205Q215 210 222 214T236 223Q242 223 254 219T266 207Q266 200 260 200T250 198Q243 195 236 191T224 179L216 176L208 166Q198 161 185 150T165 129Q161 127 156 122T146 117Q145
114 144 111T140 106V105Q139 106 137 106Q129 106 129 98Q129 91 136 77T153 48T174 22T195 11Q204 11 217 26T241 59T251 83H253L254 82L255 79Q255 72 253 66T250 54Q241 38 238 27T227 9T192 3Q165 3 151 18T123 55Q121 60 117 65T113 75Q112 75 104 67T87
52T77 42L74 41Q73 40 73 39T74 36Q71 34 64 26T55 18Q54 17 52 12T47 6L48 2Q44 -1 32 -10T20 -23Q18 -28 13 -34T7 -46H6Q5 -48 4 -50T-1 -54L-2 -55H-3Q-3 -63 -12 -81T-26 -109Q-28 -115 -28 -121T-29 -135Q-31 -143 -36 -143Z" />
<glyph unicode="y" glyph-name="y" horiz-adv-x="318" d="M-76 -303Q-96 -303 -104 -290T-112 -260Q-112 -240 -104 -219T-85 -181Q-76 -167 -67 -153T-48 -125Q-23 -92 14 -57T85 2Q109 19 135 31T188 57V56L189 57Q198 61 210 66T232 72Q237 74 238 76Q243 82
246 94T253 121T260 142Q264 147 265 153Q266 155 266 158T266 165Q268 176 270 185T273 207Q265 205 255 192T236 171Q226 161 216 152T194 132Q184 123 168 106T133 72T96 42T65 30Q54 30 41 39T22 58L23 59Q22 62 22 69Q22 86 30 107T51 148T73 181Q77 185 80
188T87 195Q95 205 104 215T128 226Q133 226 147 219T161 207Q161 205 159 205Q157 205 155 206T150 207Q140 207 122 188T85 142T54 91T41 55Q41 49 47 49Q57 49 68 56T87 69H89Q133 101 173 136T254 209Q261 215 266 222T279 234Q287 233 298 229T309 214Q309
209 308 205T305 195Q303 185 301 175T295 155Q294 149 291 144T286 132Q285 126 284 120T281 107Q280 103 275 93T269 79Q269 75 274 75T282 76Q302 76 312 67T323 58Q321 57 318 57T313 56Q312 60 308 61T300 62Q294 62 283 59T262 49T252 34Q248 32 238 17T226
-3Q225 -5 225 -8T224 -13Q223 -17 217 -21T211 -37Q206 -39 199 -48T191 -63L188 -65V-66L189 -68Q187 -69 185 -71T182 -76Q178 -78 173 -88T162 -99V-102L155 -107V-110Q151 -113 142 -124T130 -136V-140Q127 -143 127 -144Q123 -145 120 -149T113 -154L114
-157Q113 -158 110 -161T106 -166H104Q102 -171 95 -178T82 -190Q78 -195 74 -200T65 -211Q58 -218 49 -224T32 -238L21 -249Q16 -254 11 -257T0 -265Q-16 -276 -36 -289T-76 -303ZM-85 -295Q-80 -295 -76 -294T-68 -291L-67 -290V-291Q-63 -289 -49 -281T-22 -264T-9
-253Q3 -245 13 -235T34 -214Q45 -204 56 -194T76 -172Q82 -164 87 -156T99 -141Q107 -130 116 -120T134 -99Q143 -87 151 -75T167 -50L191 -15Q193 -11 194 -8T198 0Q201 6 208 16T221 38T227 54Q227 56 226 56Q223 54 209 49T181 38T166 30Q162 29 145 18T111
-6T87 -23Q70 -37 53 -53T18 -85Q12 -90 8 -96T-1 -109Q-4 -112 -15 -124T-27 -140Q-31 -142 -40 -155T-58 -185T-76 -217T-88 -239V-242Q-92 -246 -93 -257T-94 -274Q-94 -278 -93 -286T-85 -295Z" />
<glyph unicode="z" glyph-name="z" horiz-adv-x="279" d="M-32 -276Q-37 -276 -42 -272T-49 -262H-50Q-48 -249 -41 -237T-33 -220H-36L-33 -218L-31 -219Q-29 -216 -27 -210T-21 -203L-20 -201L-9 -187H-8Q-6 -182 3 -171T22 -149T36 -139L37 -137V-136H35Q33
-134 42 -132L44 -126Q47 -123 55 -115T71 -100T83 -93V-89Q89 -86 100 -75T115 -64Q118 -60 128 -54T140 -45Q141 -44 149 -39T165 -29T177 -22Q185 -17 193 -16T209 -9Q215 -4 220 8T230 33T234 54Q234 59 233 63T225 67Q208 67 185 59T140 40T103 20Q96 16 89
9T73 0Q72 -1 70 -1Q63 -1 53 6T43 21Q43 24 53 36T78 63T105 90T122 105Q126 108 129 111T136 118Q139 120 142 122T147 128Q147 128 147 128T148 130Q152 132 158 138T167 145Q171 151 183 160T205 181T217 200Q215 201 210 201Q181 201 158 194T109 171Q104
168 91 163T77 150H81L78 147L67 141Q60 137 47 124T26 111Q22 111 18 113T10 118Q13 123 17 126T26 132Q52 153 78 172T135 204Q140 206 145 209T158 212Q169 219 182 219Q187 219 191 219T200 218Q209 217 223 207T238 186Q238 180 234 173T225 161H222Q210 154
207 150T194 138Q188 132 181 127T167 116Q148 102 131 87T96 55L95 54Q91 52 87 48T80 39V36H81Q83 38 94 43T118 53T132 58Q138 63 155 69T180 75Q185 78 197 79T215 81Q232 81 246 72T260 45Q260 32 255 23T248 2L245 1L246 0V-1Q251 -3 262 -3T280 -9Q282 -10
282 -14T281 -18Q276 -14 267 -14Q255 -14 243 -20T228 -31Q225 -37 212 -53T184 -85T165 -105Q164 -106 162 -107T158 -110Q155 -111 155 -114T152 -120Q149 -124 146 -128T139 -135Q128 -146 117 -157T94 -180Q93 -181 90 -182T85 -186Q80 -190 76 -194T66 -204L63
-203Q59 -207 56 -211T47 -220Q43 -224 38 -227T28 -234Q20 -244 1 -260T-32 -276ZM-13 -249Q-8 -249 -1 -243T10 -233H9Q15 -230 25 -221T45 -202T62 -186Q95 -155 132 -116T193 -38Q195 -34 198 -30T202 -22H201Q188 -27 182 -32T166 -46Q165 -47 163 -48T160
-51Q156 -51 155 -53L153 -52V-53L151 -56Q150 -57 150 -57T149 -56Q142 -56 142 -60H139L137 -61V-62L138 -61H139L140 -62Q135 -63 133 -70Q132 -71 129 -72T125 -75L123 -74Q123 -74 123 -74T123 -74L124 -78Q120 -79 116 -82T111 -89L107 -88L108 -85L105 -88L106
-91L103 -92L95 -104L89 -106V-107H90L91 -109H90Q89 -110 86 -111T81 -113V-114Q80 -115 74 -120T66 -126Q64 -133 57 -140T44 -153Q38 -161 24 -179T-3 -216T-15 -245Q-15 -249 -13 -249Z" />
<glyph unicode="{" glyph-name="braceleft" horiz-adv-x="227" d="M67 -72Q44 -72 22 -65T-1 -30Q-1 -27 -1 -24T1 -16Q9 19 25 53T50 121Q51 126 51 129T52 137Q52 158 38 165T4 172L12 183Q48 188 68 202T105 259Q112 277 117 294T130 330Q150 380 184 399T258
418Q263 418 263 412L255 408Q225 408 207 394T178 358T159 310T138 257Q125 230 98 207T46 176Q59 170 70 158T82 127Q82 121 81 118Q74 84 58 51T34 -18Q33 -23 33 -27T32 -35Q32 -54 45 -56T74 -63L77 -69Q75 -70 72 -71T67 -72Z" />
<glyph unicode="|" glyph-name="bar" horiz-adv-x="154" d="M111 -140Q106 -140 101 -136T92 -127Q80 -109 75 -81T69 -22T67 30Q65 60 65 90T64 151Q63 159 63 184T63 243Q63 277 63 314T65 385T68 439T73 462Q76 464 84 467T100 471Q105 471 108 468Q110 465
110 462T111 456Q110 435 109 414T105 372Q104 359 103 347T101 321L98 261Q95 201 92 141T90 21Q90 13 90 2T89 -22Q89 -48 91 -75T103 -117Q108 -124 112 -125T118 -126H120Q121 -127 121 -129Q121 -132 119 -135T116 -139Q114 -140 111 -140Z" />
<glyph unicode="}" glyph-name="braceright" horiz-adv-x="268" d="M6 -72Q1 -72 1 -67L9 -63Q39 -63 57 -49T86 -13T105 36T126 88Q139 115 166 138T218 169Q205 176 194 188T182 219Q182 225 183 228Q191 262 207 295T230 364Q231 369 231 373T232 381Q232 400
220 402T190 408L187 414Q193 418 197 418Q220 418 242 411T265 375Q265 372 265 369T263 361Q256 327 239 293T214 224Q213 220 213 216T212 208Q212 187 226 180T260 173L252 162Q216 158 196 144T159 87Q152 69 147 51T134 15Q115 -34 81 -53T6 -72Z" />
<glyph unicode="~" glyph-name="asciitilde" horiz-adv-x="335" d="M274 367Q260 369 247 373T219 382L199 391L187 400H178V404L170 402L162 405L168 409L162 413Q157 412 152 411T142 408Q127 414 110 414Q93 414 73 408T37 393Q33 388 31 381T23 368Q22 371
21 374T20 380Q20 406 42 423T88 441Q106 441 124 440T159 431L165 434Q177 430 189 428L193 425L203 426L213 425Q224 420 235 419T258 417Q280 417 296 421T317 452Q318 447 318 441T319 430Q319 402 309 391T274 367Z" />
<glyph unicode="&#xa0;" glyph-name="uni00A0" horiz-adv-x="167" />
<glyph unicode="&#xa1;" glyph-name="exclamdown" horiz-adv-x="168" d="M141 152Q131 153 129 157T122 164L121 186Q121 188 119 190T117 195Q117 197 123 204T130 216H133Q140 216 144 207T151 186T153 169Q153 160 151 158T141 153V152ZM-90 -226Q-96 -226
-100 -224T-103 -216Q-103 -215 -94 -205T-75 -184T-62 -170Q-42 -144 -17 -111T32 -42T74 28T99 90Q81 84 74 77T58 61Q55 60 55 60T58 66Q60 69 63 73T68 81Q73 87 82 98T98 110Q100 111 104 113T111 113Q119 109 122 106T126 96Q126 93 126 90T124 82Q117 52
100 20T61 -45T21 -107Q19 -111 19 -114T18 -121Q15 -133 0 -153T-33 -193T-63 -222Q-67 -223 -75 -224T-90 -226Z" />
<glyph unicode="&#xa2;" glyph-name="cent" horiz-adv-x="208" d="M25 -30Q18 -30 18 -24Q18 -10 24 15T41 64T59 99Q50 106 47 116T43 137Q43 156 58 180T96 220T138 235Q141 240 150 256T169 290T189 322T200 338Q205 341 209 341Q216 341 216 336Q216 334 207
320T186 287T164 252T150 230Q153 227 153 221Q153 216 145 201T131 186Q129 186 129 189Q129 194 131 197T133 205Q133 212 128 214T118 217Q103 217 91 204T71 173T64 142Q64 126 72 116T96 106Q120 106 139 121T171 151T189 168L191 165Q191 159 178 146T151
121T130 105Q110 91 86 91Q83 91 80 91T74 92Q55 66 45 35T27 -28L25 -30Z" />
<glyph unicode="&#xa3;" glyph-name="sterling" horiz-adv-x="474" d="M386 -56Q359 -56 323 -46T253 -21T193 7Q177 -3 150 -11T102 -19Q82 -19 61 -9T25 18T10 58Q10 69 16 73T33 78Q53 78 80 68T134 44T179 20Q205 52 221 89T250 165H153Q147 165 147 169Q147
174 151 177T159 181H256Q266 210 281 244T316 310T356 365Q367 379 383 387T418 395Q441 395 452 377T464 339Q464 312 447 291T406 258Q402 256 399 256Q396 256 396 259Q396 265 409 275T434 302T447 345Q447 354 443 362T428 371Q425 371 419 369Q395 361 376
339T342 289T314 231T293 181H411Q416 181 416 177Q416 170 411 168T400 165H287Q278 144 266 115T238 58T206 15Q224 4 251 -5T307 -19T356 -24Q371 -24 394 -21T435 -7T453 25Q453 39 443 46T433 58Q433 61 436 61Q445 61 455 46T465 20Q465 -13 442 -34T386
-56ZM100 -7Q113 -7 132 -1T162 12Q152 20 128 30T78 49T40 57Q31 57 31 48Q31 34 43 22T71 1T100 -7Z" />
<glyph unicode="&#xa4;" glyph-name="currency" horiz-adv-x="461" d="M81 146Q75 146 69 153T69 165L107 198Q100 210 100 223Q100 256 116 288T157 348L99 405Q97 407 97 411Q97 419 104 424T118 424L176 366Q202 388 231 401T291 414Q320 414 338 396L374 427Q377
430 381 430Q386 430 389 426T393 417Q393 412 390 409L353 377Q361 359 361 339Q361 311 347 283T309 232L370 171Q372 169 372 167Q372 160 364 155T352 153L289 216Q264 196 233 184T169 171Q145 171 125 181L85 147Q84 146 81 146ZM187 200Q225 200 255 220T303
268T321 324Q321 352 307 368T266 384Q244 384 222 370T182 334T154 285T146 233Q146 218 157 209T187 200Z" />
<glyph unicode="&#xa5;" glyph-name="yen" horiz-adv-x="420" d="M130 -17Q126 -17 126 -14Q126 -7 129 7T134 29Q137 44 139 58T145 88Q139 88 124 88T92 90T63 94T51 100Q51 105 56 108T67 112Q88 112 108 112T150 113Q152 120 153 128T157 144Q158 149 160
160T165 180Q159 180 144 180T112 182T83 186T71 192Q71 197 76 200T87 204H160Q151 218 135 242T100 293T62 345T30 387T12 406Q9 408 7 409T5 415Q5 422 11 428T24 435Q25 435 26 434T28 433H29Q37 433 53 415T91 367T132 307T169 251T193 215Q216 244 239 273T287
331Q303 349 319 368T353 403Q364 413 378 421T408 429Q410 429 412 429T415 428Q415 427 413 425Q395 416 375 397T337 357T304 320Q294 307 283 296T260 273Q246 257 232 240T204 205H244Q258 205 273 205T302 205V204Q302 199 283 195T239 187T192 182L180 113Q191
113 202 113T224 113Q238 113 253 113T282 114V112Q282 108 264 104T221 96T176 90L171 64L163 18Q162 14 162 10T160 1Q158 -6 148 -11T130 -17Z" />
<glyph unicode="&#xa6;" glyph-name="brokenbar" horiz-adv-x="154" d="M92 223Q82 223 82 243Q82 260 82 277T83 310Q83 330 83 351T79 393Q78 403 75 413T71 434Q71 439 75 440T83 441Q97 441 103 430T110 404T111 380Q111 364 111 328T105 245Q104 223 92 223ZM36
-72V-71Q36 -61 41 -40T52 5T61 42Q66 68 69 93T75 144Q76 160 86 160Q90 160 93 156T94 143Q88 96 81 53T67 -21T54 -60Q51 -64 47 -67T36 -72Z" />
<glyph unicode="&#xa7;" glyph-name="section" horiz-adv-x="314" d="M85 -110Q49 -110 15 -98T-40 -54L-38 -49Q-15 -60 1 -63T43 -67Q56 -67 79 -64T126 -54T168 -36T185 -7Q185 6 169 24T130 64T84 113T44 168T28 228Q28 265 47 289T96 333Q102 362 123 384T173
421T233 448T288 465Q313 471 338 478T390 485Q401 485 408 482Q417 472 432 458T448 429Q448 422 435 411T404 387T369 366T345 357H337V362Q343 366 356 374T384 394T409 415T418 433Q413 437 407 438T394 439H385Q360 439 321 431T240 407T167 370T125 324Q122
317 120 309T117 292Q117 271 133 248T174 198T221 146T261 95T278 45Q278 15 260 -8T212 -39Q213 -63 196 -79T154 -102T109 -110H85ZM209 -17Q224 -3 237 25T251 75Q251 89 231 110T183 159T131 218T98 284Q81 271 66 252T51 210Q51 187 72 159T121 101T175 41T209
-17Z" />
<glyph unicode="&#xa8;" glyph-name="dieresis" horiz-adv-x="169" d="M116 280Q111 280 106 288T100 304Q100 309 105 315T115 323Q119 328 133 336T158 348Q160 349 161 349T160 347L158 344L153 338Q149 334 147 329T143 316Q138 303 132 292T116 280ZM23 280Q19
280 14 288T8 304Q8 309 13 315T22 323Q27 328 41 336T65 348Q68 349 69 349T68 347L65 344L61 338Q58 334 56 329T51 316Q45 303 40 292T23 280Z" />
<glyph unicode="&#xa9;" glyph-name="copyright" horiz-adv-x="449" d="M138 24Q86 24 53 49T19 130Q19 173 45 215T113 292T202 347T289 368Q321 368 351 355T400 316T420 256Q420 207 394 165T324 91T232 42T138 24ZM151 38Q192 38 233 55T307 101T361 169T382
251Q382 295 355 324T282 353Q243 353 203 334T129 282T75 210T54 130Q54 84 81 61T151 38ZM151 81Q131 81 112 91T92 126Q92 159 111 193T162 255T229 300T297 317Q310 317 321 310T332 289Q332 282 330 275T319 266L315 269Q317 274 318 278T319 286Q319 297
312 303T294 310Q265 310 239 293T190 249T153 192T132 137Q131 134 131 131T130 124Q130 111 138 104T159 97Q185 97 213 109T264 134Q270 138 277 143T291 151L293 148Q293 135 276 123T233 101T185 87T151 81Z" />
<glyph unicode="&#xaa;" glyph-name="ordfeminine" horiz-adv-x="230" d="M46 222Q35 222 23 233T10 256V261Q10 277 15 282V283L23 297Q27 305 28 306Q30 309 38 319T57 338T72 349Q77 355 88 363T111 378T128 387H129Q132 390 140 393T152 397Q158 400 165 400Q167
401 172 401Q174 401 176 401T181 400H187Q195 399 204 393T213 376L212 375Q211 374 211 373T211 374Q211 374 211 374T211 374V374L208 370L205 372Q201 379 194 381T178 383Q154 383 126 367T74 328T39 283L37 275Q34 268 32 262T30 248Q30 243 35 235L36 236H40L47
239Q50 241 53 242T58 245L60 246Q63 248 65 250T70 254L73 257Q84 268 94 277T114 297Q119 303 126 311T140 323L145 330Q149 331 150 333T155 342Q160 348 164 353T173 359H176Q182 359 186 354T191 343Q191 339 190 335T186 327Q185 325 184 323T182 318Q179
303 178 292T176 266Q176 257 179 252T188 239H190Q196 243 199 247T207 256Q209 258 213 264H215Q215 264 216 266Q220 266 220 262Q220 260 220 259T219 255Q218 254 218 253T217 251Q216 243 214 236T198 228Q181 228 170 239Q159 251 157 266T154 296V314Q151
311 149 308T143 301Q140 298 138 297Q132 291 130 288L128 287Q127 287 124 283T121 278L119 276Q117 275 114 272T108 266Q103 261 101 260Q100 257 96 253T90 247L89 246Q85 245 82 242T76 234L70 231Q64 228 58 225T46 222Z" />
<glyph unicode="&#xab;" glyph-name="guillemotleft" horiz-adv-x="279" d="M226 16L220 18Q206 43 187 61T151 100Q144 108 145 110Q146 117 164 136T206 180T245 224Q251 231 259 231Q264 231 264 227Q264 224 253 210T226 176T197 141T179 119Q182 114 191
101T211 71T228 43T234 25Q233 21 232 18T226 16ZM138 16L132 18Q118 43 99 61T63 100Q56 108 57 110Q58 117 76 136T118 180T157 224Q163 231 171 231Q176 231 176 227Q176 224 165 210T138 176T109 141T91 119Q94 114 103 101T123 71T140 43T146 25Q145 21 144
18T138 16Z" />
<glyph unicode="&#xac;" glyph-name="logicalnot" horiz-adv-x="367" d="M21 166Q15 166 15 176Q15 186 21 186H321Q325 187 330 187Q347 187 352 182Q331 155 311 124T278 63T264 9Q276 11 289 23T310 45H311V44Q311 40 307 36T301 29Q297 22 289 6T270 -10Q267
-10 265 -8T259 -5Q252 1 249 5T246 19Q246 31 254 57T275 113T301 166H21Z" />
<glyph unicode="&#xad;" glyph-name="uni00AD" horiz-adv-x="162" d="M53 120Q49 119 45 126T40 137Q53 141 69 141T100 142Q114 142 122 141T152 134Q152 130 134 129T100 126Q89 125 81 124T53 120Z" />
<glyph unicode="&#xae;" glyph-name="registered" horiz-adv-x="449" d="M153 21Q121 21 93 34T47 71T29 130Q29 174 52 213T106 281Q93 276 82 270T59 255Q53 251 49 251Q42 251 42 259Q42 268 53 276T82 291T114 301T137 307Q169 331 209 349T289 368Q337 368
373 337T409 256Q409 218 390 182T342 116T282 66Q287 61 296 55T312 48Q326 48 326 60T330 79Q334 78 334 70Q334 57 326 48T304 38Q295 38 285 45T269 57Q244 42 214 32T153 21ZM272 75Q299 94 324 122T366 183T382 251Q382 295 355 324T282 353Q253 353 224
342T172 314Q189 316 205 317T238 319Q251 319 273 317T317 309T355 292T371 262Q371 237 351 220T301 191T242 175T193 173Q211 148 230 123T272 75ZM163 35Q188 35 212 44T258 66Q231 92 207 122T161 183Q154 172 145 154T128 116T121 84Q121 78 126 73Q126 71
124 71Q117 71 116 82T114 99Q114 124 125 151T149 201Q148 203 144 209T140 216Q140 221 144 223T153 225Q159 225 161 220Q175 242 196 265T241 300H244Q255 300 255 291L249 285Q229 265 210 245T173 202L187 182Q191 181 195 181T203 181Q218 181 244 187T296
204T341 232T359 267Q359 281 347 289T317 301T282 306T255 307Q227 307 200 304T145 293Q111 264 83 221T54 130Q54 101 70 80T111 47T163 35Z" />
<glyph unicode="&#xaf;" glyph-name="overscore" horiz-adv-x="153" d="M13 278Q9 278 5 284T0 295Q13 299 38 299T78 300Q87 300 103 300T133 297T153 291Q153 288 150 288Q131 288 114 287T78 284Q67 283 50 281T13 278Z" />
<glyph unicode="&#xb0;" glyph-name="degree" horiz-adv-x="199" d="M106 225Q81 225 64 243T46 286Q46 311 63 329T106 347Q132 347 149 329T167 286Q167 261 150 243T106 225ZM106 241Q125 241 138 254T151 286Q151 305 138 318T106 331Q88 331 75 318T61 286Q61
267 74 254T106 241Z" />
<glyph unicode="&#xb1;" glyph-name="plusminus" horiz-adv-x="308" d="M162 97Q161 97 160 99T158 103Q155 113 155 129T154 163V204Q130 204 106 203T57 201Q52 201 48 206T43 215L47 219Q64 221 82 221T118 222H154Q153 246 152 270T150 319Q150 324 155 327T165
332L169 328Q171 314 171 299T172 269V222Q178 222 194 222T229 221T262 220T281 217Q282 216 283 216T285 213L284 210L278 206Q252 206 225 206T172 205Q172 199 172 184T171 150T169 118T167 101Q165 97 162 97ZM94 46Q90 46 85 52T79 62L80 64Q91 67 113 67T149
68Q156 68 173 68T206 65T225 58Q225 54 221 54Q189 54 158 50T94 46Z" />
<glyph unicode="&#xb2;" glyph-name="uni00B2" horiz-adv-x="350" d="M43 269Q36 269 31 276T26 289Q26 296 44 314T93 357T156 409T221 463T274 511T301 545Q303 551 303 554V555Q296 558 288 559T271 560Q251 560 239 556T209 546Q205 545 201 545T192 542Q185
540 175 533T157 526Q155 524 148 521T140 515H149Q149 514 140 508T122 496T110 488Q106 486 102 486Q98 486 92 493T85 504Q93 509 99 514T114 522Q114 523 116 523Q118 525 125 529T140 536T149 540Q151 543 162 548T187 558T211 566T222 570L245 573Q247 574
250 574T256 574L258 575Q260 574 263 574T268 575Q285 572 301 567T317 539Q317 529 313 519T301 501Q293 491 283 483T262 467Q247 457 233 446T203 423Q193 416 182 409T161 394Q153 388 141 379T124 362Q121 360 113 353T96 340T86 333Q84 326 73 320T56 307L58
306Q61 306 71 310T91 319T108 323Q113 326 119 329T132 332Q137 335 142 336T151 340L152 341L158 340L168 345V344Q171 345 180 347T190 352L194 351Q195 352 199 354V353Q207 355 212 355L217 358H220L230 361Q230 360 230 360T231 360Q231 360 231 360T233
361H235V362H236V361Q245 362 254 363T273 364Q279 364 290 362T311 356T321 343Q321 338 316 335Q315 348 303 349T282 353Q278 350 265 350T246 349Q240 345 232 345L227 343H226Q207 337 189 331T151 320Q141 318 125 311T93 295T66 281Q61 278 56 274T43 269Z"
/>
<glyph unicode="&#xb3;" glyph-name="uni00B3" horiz-adv-x="242" d="M33 258Q28 258 21 260T12 269Q10 270 10 274Q10 276 11 279T15 283V284H16Q16 282 16 280T15 276Q15 267 24 267Q32 267 38 270H40Q50 274 59 278T78 289Q80 290 89 296T107 309T120 316Q123
322 129 325T140 333Q151 343 164 356T188 384T199 415Q199 442 172 442Q155 442 133 434T94 418Q90 416 87 412T79 408Q77 408 73 411T69 417H68Q68 419 67 422T67 429Q76 436 86 439T107 448L108 447V448Q121 454 134 460T160 473L161 472Q165 479 174 479V481Q181
486 192 494T213 512T222 530Q222 537 213 540T193 545T177 547Q168 547 151 544T118 533T103 513Q103 511 104 509T105 504H103Q96 509 92 521T88 541L90 542Q91 543 91 543T92 542Q94 543 96 543T99 545H101Q102 546 103 546T106 547L110 549H111Q119 553 125
553T138 557H140Q145 557 150 558T161 559L165 560V559Q169 560 173 560T181 560Q185 560 195 558T209 554Q218 550 225 543T232 525Q232 510 221 498T194 477T167 462T154 455Q154 455 154 455T153 454Q155 454 157 454T161 455Q168 455 174 454T186 451Q188 450
190 448T196 446L195 444Q201 440 206 427T211 405Q211 401 211 397T209 389Q204 368 188 350T155 319Q130 300 97 279T33 258Z" />
<glyph unicode="&#xb4;" glyph-name="acute" horiz-adv-x="110" d="M6 276H5Q4 276 1 278T0 282Q2 284 10 292T23 306Q34 319 48 334T70 359Q78 370 87 370Q93 370 98 365T103 355Q103 349 76 331Q72 329 71 328L63 321Q60 318 56 316Q40 303 26 291T6 276Z" />
<glyph unicode="&#xb5;" glyph-name="uni00B5" horiz-adv-x="264" d="M-108 -180Q-117 -180 -116 -171Q-116 -170 -108 -159T-91 -136T-80 -120Q-69 -102 -52 -66T-15 12T22 94T52 160T65 190V195Q74 214 88 225Q94 224 107 220T120 207Q120 201 112 189T94 165T80
147Q70 132 65 122T56 102T45 76Q40 65 35 53T30 28V19Q30 14 31 9T36 3Q40 3 45 6T54 12Q74 29 91 49T126 88Q148 111 170 134T213 183Q217 187 223 197T235 207H237Q242 207 250 203T259 192Q259 179 254 174T244 158Q243 153 241 149T235 139Q226 124 221 96T215
51V42Q215 35 216 28T221 18Q230 19 236 29T248 48T259 58V54Q259 49 257 45T252 36Q248 25 244 15T223 4Q203 4 196 22T189 57Q189 76 193 99T205 140Q206 142 207 144T207 148H205Q199 148 192 140T179 123T167 112V111L159 104Q149 86 134 70T105 39Q93 26 77
9T40 -9Q28 -9 21 -2T10 15Q6 0 -6 -26T-32 -82T-59 -134T-80 -165Q-84 -166 -89 -172T-101 -179Q-103 -180 -108 -180Z" />
<glyph unicode="&#xb6;" glyph-name="paragraph" horiz-adv-x="386" d="M-25 -125Q-29 -125 -32 -124T-37 -119Q-34 -114 -29 -114Q0 -114 26 -89T74 -25T115 57T147 139T169 201Q146 203 121 210T79 235T61 280Q61 313 80 340T129 386T192 416T255 427Q274 427
292 428T330 430Q345 430 358 427Q369 439 385 447T418 456Q424 456 430 455T440 447Q436 443 426 443T408 437Q385 422 363 385T319 299T276 197T235 95T194 10T152 -40Q148 -42 144 -42Q139 -42 139 -39Q141 -34 143 -32T149 -27Q161 -16 173 6T198 54T219 105T234
146Q249 190 264 239T300 334T350 417H344Q321 417 298 392T253 327T213 244T182 163T161 107Q154 88 141 59T109 -2T68 -62T23 -107T-25 -125Z" />
<glyph unicode="&#xb7;" glyph-name="middot" horiz-adv-x="226" d="M112 160Q107 160 98 166T89 177Q89 180 98 189T119 207T133 219Q144 216 144 209Q144 204 138 192T125 170T112 160Z" />
<glyph unicode="&#xb8;" glyph-name="cedilla" horiz-adv-x="113" d="M116 0V-2L111 -1Q114 0 116 0ZM29 -140Q25 -140 25 -135Q25 -135 26 -134T29 -133Q41 -131 55 -131T79 -126T90 -103Q90 -90 82 -81T66 -63T57 -43Q57 -23 72 -12T110 -1H111Q97 -5 88 -14T79
-36Q79 -45 88 -53T106 -70T115 -92Q115 -117 103 -127T70 -138T29 -140Z" />
<glyph unicode="&#xb9;" glyph-name="uni00B9" horiz-adv-x="195" d="M37 229Q24 229 19 238T14 258Q14 278 21 300T36 342Q37 345 40 353T46 368T51 376V378Q51 384 54 388T59 397L63 404V407Q65 410 70 420T80 441T87 451Q87 452 93 464T105 489T113 505H111L105
500Q100 499 95 495T84 490V491Q102 508 111 519T134 553L136 554H141V555Q147 554 155 551T163 540Q163 532 155 522T142 504Q135 491 127 478T110 452H109L110 459Q106 453 104 446T98 432Q84 410 74 386T52 337Q51 336 50 334T48 330Q45 322 44 314T37 298L38
296Q39 286 35 276T30 255Q30 251 30 245T32 235Q36 235 39 235T45 237L47 236L46 230Q43 229 37 229Z" />
<glyph unicode="&#xba;" glyph-name="ordmasculine" horiz-adv-x="217" d="M44 209Q37 209 32 212T24 217Q21 219 19 219L17 221Q17 223 14 224Q12 227 9 232T5 249Q5 259 8 267T16 282Q18 286 20 289T23 296V302Q24 304 24 306T25 310Q27 314 29 317T33 325Q35
327 35 328Q52 356 74 373T126 402Q129 404 137 405T149 406Q153 406 156 405T164 403Q169 400 171 400L173 397V398Q177 396 179 393T184 387L189 381Q190 380 190 380T191 378L194 375Q196 374 197 370T198 360Q198 341 189 326T168 297L164 291Q160 286 157
281T148 270Q144 267 134 257T124 246L122 245Q116 241 112 237L105 231Q74 209 44 209ZM40 221Q47 223 54 225T62 227Q68 230 78 236T95 248T103 255L104 257Q109 259 117 268T134 287T145 302L147 305Q149 309 151 312T154 316Q156 318 156 321Q158 325 158 326L159
327Q160 328 163 338Q164 343 165 345Q166 345 166 346Q166 347 166 347T167 349Q167 351 167 353T169 357Q170 359 170 365Q172 367 172 374V380Q172 385 169 389T159 394Q140 394 125 385T94 364Q84 357 75 348Q74 347 74 347T72 346Q74 347 76 348Q80 350 84
352T96 354Q102 354 112 348T122 336V335L120 333Q118 333 114 335Q113 336 112 336T107 337Q85 337 57 306Q47 298 42 290Q41 288 41 286T40 281Q45 279 45 274L43 272H40Q38 272 37 273T33 275Q32 274 31 272T27 264Q26 262 25 260T23 256Q21 248 21 245Q21 221
40 221ZM166 346Q166 346 165 345Q165 345 165 345L166 346Z" />
<glyph unicode="&#xbb;" glyph-name="guillemotright" horiz-adv-x="252" d="M290 1Q286 1 287 5Q287 8 298 23T325 57T354 92T371 113Q368 118 359 131T339 161T322 190T316 207Q317 211 318 214T324 217L330 214Q344 184 363 163T404 119Q406 118 405 115Q405
111 392 96T360 63T326 29T305 8Q301 5 298 3T290 1ZM105 1Q101 1 102 5Q102 8 113 23T140 57T169 92T186 113Q183 118 174 131T154 161T137 190T131 207Q132 211 133 214T139 217L145 214Q159 184 178 163T219 119Q221 118 220 115Q220 111 207 96T175 63T141
29T120 8Q116 5 113 3T105 1Z" />
<glyph unicode="&#xbc;" glyph-name="onequarter" horiz-adv-x="404" d="M37 229Q24 229 19 238T14 258Q14 278 21 300T36 342Q37 345 40 353T46 368T51 376V378Q51 384 54 388T59 397L63 404V407Q65 410 70 420T80 441T87 451Q87 452 93 464T105 489T113 505H111L105
500Q100 499 95 495T84 490V491Q102 508 111 519T134 553L136 554H141V555Q147 554 155 551T163 540Q163 532 155 522T142 504Q135 491 127 478T110 452H109L110 459Q106 453 104 446T98 432Q84 410 74 386T52 337Q51 336 50 334T48 330Q45 322 44 314T37 298L38
296Q39 286 35 276T30 255Q30 251 30 245T32 235Q36 235 39 235T45 237L47 236L46 230Q43 229 37 229ZM31 62Q25 62 22 70T19 84Q19 103 29 126T53 171T75 209Q89 232 102 254T130 298Q134 304 149 328T185 384T227 446T263 497T283 517Q288 517 300 514T312 503Q312
498 308 492Q291 468 273 445T238 399Q200 347 163 296T89 190Q82 179 69 160T46 120T36 85Q36 76 39 75T43 71Q43 67 38 65T31 62ZM269 -3Q267 -3 265 -2T260 0Q250 5 247 15T244 36Q244 50 246 64T253 93V94Q255 98 259 110T268 133T272 147Q262 146 254 142T236
133Q231 131 225 129T213 125Q209 123 201 118T188 111L170 104Q165 102 162 98T153 94Q144 94 136 104T128 122Q128 130 137 139T152 153Q152 153 152 153T152 154L157 156V157L158 156Q159 157 160 157T162 158Q164 161 172 167T189 180T201 187Q201 187 201
187T200 187Q206 195 217 201V202Q218 204 225 209T241 221T252 228V229L254 228Q255 232 264 240T278 248Q278 248 278 251L291 260Q308 272 322 285Q325 287 328 290T335 294H336Q339 294 342 291T348 288Q353 288 355 293Q356 297 362 306T376 325T386 338Q391
337 402 332T413 320Q413 317 412 316Q408 312 404 307T394 298Q390 294 386 292T378 286Q374 282 364 267T341 232T318 197T306 175Q312 176 318 177T331 180Q339 180 345 182T359 184Q362 184 366 184T371 179Q371 175 361 175T351 170H350L351 168Q346 168 341
168T331 167Q326 161 324 161T314 160Q310 159 310 158T302 157Q294 144 288 133T278 106Q277 99 268 76T258 27Q258 17 262 10Q264 7 269 6T274 1Q274 -3 269 -3ZM148 122Q160 122 174 128T200 140T220 147Q227 152 241 157T263 162Q266 164 269 165T276 166Q284
171 285 172T290 181Q291 183 292 185T295 188L293 190H294Q296 192 299 199T304 206Q305 210 307 213T309 220L313 223V224Q313 224 313 224T314 225Q314 229 319 234L321 237Q322 239 323 241T324 246Q327 249 331 257T335 269Q322 258 307 249T277 229Q267 222
256 213T233 197L232 195H229L228 196L227 195V194Q228 190 221 185T206 176T198 166Q185 156 173 147T149 123H148V122ZM200 187Q200 187 200 187V187Z" />
<glyph unicode="&#xbd;" glyph-name="onehalf" horiz-adv-x="404" d="M37 229Q24 229 19 238T14 258Q14 278 21 300T36 342Q37 345 40 353T46 368T51 376V378Q51 384 54 388T59 397L63 404V407Q65 410 70 420T80 441T87 451Q87 452 93 464T105 489T113 505H111L105
500Q100 499 95 495T84 490V491Q102 508 111 519T134 553L136 554H141V555Q147 554 155 551T163 540Q163 532 155 522T142 504Q135 491 127 478T110 452H109L110 459Q106 453 104 446T98 432Q84 410 74 386T52 337Q51 336 50 334T48 330Q45 322 44 314T37 298L38
296Q39 286 35 276T30 255Q30 251 30 245T32 235Q36 235 39 235T45 237L47 236L46 230Q43 229 37 229ZM31 62Q25 62 22 70T19 84Q19 103 29 126T53 171T75 209Q89 232 102 254T130 298Q134 304 149 328T185 384T227 446T263 497T283 517Q288 517 300 514T312 503Q312
498 308 492Q291 468 273 445T238 399Q200 347 163 296T89 190Q82 179 69 160T46 120T36 85Q36 76 39 75T43 71Q43 67 38 65T31 62ZM120 9Q113 9 108 15T103 29Q103 36 121 54T170 97T233 149T298 203T351 251T378 285Q380 289 380 293V294Q373 298 365 299T348
300Q328 300 316 296T286 286Q282 285 278 285T270 282Q263 279 253 272T234 265Q232 264 225 261T218 255H226Q226 254 217 248T199 236T188 228Q182 226 179 226Q175 226 169 233T163 244Q170 249 177 253T191 262Q191 262 193 262Q195 264 202 268T218 276T226
280Q228 283 239 288T265 298T289 306T299 309L322 313V312Q329 314 334 313L335 315Q341 314 346 315Q363 312 378 307T394 279Q394 269 390 259T378 240Q370 230 360 223T339 207Q324 196 310 185T280 163Q270 156 260 149T238 133Q230 127 219 119T202 101Q199
99 191 92T174 79T163 73Q161 66 150 60T134 46H136Q139 46 148 50T168 59T185 63Q190 66 196 68T209 71Q214 75 219 76T229 79V81L236 79L245 85L246 84Q248 84 257 86T267 92L271 90L276 93Q280 94 283 94T290 95L295 98Q297 98 298 97L308 100H313L312 101H313Q323
102 332 103T350 104Q356 104 367 102T388 95T398 82Q398 77 394 75H393Q392 87 380 89T359 93Q355 90 342 90T324 89Q316 84 309 85L304 82L303 83Q284 77 266 71T228 60Q212 56 186 43T143 21Q138 18 133 14T120 9Z" />
<glyph unicode="&#xbe;" glyph-name="threequarters" horiz-adv-x="476" d="M33 258Q28 258 21 260T12 269Q10 270 10 274Q10 276 11 279T15 283V284H16Q16 282 16 280T15 276Q15 267 24 267Q32 267 38 270H40Q50 274 59 278T78 289Q80 290 89 296T107 309T120
316Q123 322 129 325T140 333Q151 343 164 356T188 384T199 415Q199 442 172 442Q155 442 133 434T94 418Q90 416 87 412T79 408Q77 408 73 411T69 417H68Q68 419 67 422T67 429Q76 436 86 439T107 448L108 447V448Q121 454 134 460T160 473L161 472Q165 479 174
479V481Q181 486 192 494T213 512T222 530Q222 537 213 540T193 545T177 547Q168 547 151 544T118 533T103 513Q103 511 104 509T105 504H103Q96 509 92 521T88 541L90 542Q91 543 91 543T92 542Q94 543 96 543T99 545H101Q102 546 103 546T106 547L110 549H111Q119
553 125 553T138 557H140Q145 557 150 558T161 559L165 560V559Q169 560 173 560T181 560Q185 560 195 558T209 554Q218 550 225 543T232 525Q232 510 221 498T194 477T167 462T154 455Q154 455 154 455T153 454Q155 454 157 454T161 455Q168 455 174 454T186 451Q188
450 190 448T196 446L195 444Q201 440 206 427T211 405Q211 401 211 397T209 389Q204 368 188 350T155 319Q130 300 97 279T33 258ZM111 75Q104 75 101 83T98 97Q98 116 108 139T132 184T155 222Q168 245 181 267T209 311Q213 318 228 342T265 397T306 459T342
510T362 530Q367 530 379 527T391 516Q391 511 387 505Q371 481 353 458T317 412Q279 360 242 309T168 203Q161 192 148 173T125 133T115 98Q115 89 118 88T122 84Q122 80 118 78T111 75ZM349 10Q346 10 344 11T339 13Q329 18 326 28T323 49Q323 63 326 77T333
106L332 107Q334 112 338 123T347 146T351 160Q341 159 333 155T315 146Q310 144 304 142T292 138Q288 136 280 131T267 125L249 117Q244 115 241 112T232 108Q223 108 215 117T207 135Q207 143 216 152T231 166L232 167L236 169V170Q237 170 237 170T237 169Q238
170 239 170T241 171Q243 174 251 180T268 193T280 200Q280 200 280 200T279 200Q285 208 296 214L297 215Q297 217 304 222T320 234T331 241V242L333 241Q334 245 343 253T357 261V264L370 273Q378 279 386 285T402 298Q404 300 407 303T414 307L416 308Q418 308
421 305T427 301Q432 301 434 306Q435 310 441 319T455 338T465 351Q471 350 481 345T492 333V329Q488 325 484 320T474 311Q470 307 466 305T457 299Q453 295 443 280T420 245T397 210T385 188Q392 189 398 190T410 193Q418 193 424 195T438 197Q441 197 445 197T450
192Q450 188 440 188T430 183H429L430 181Q425 181 421 181T411 180Q407 176 405 176T400 175Q390 175 390 173T382 170Q373 157 367 146T357 119Q356 112 347 89T337 40Q337 30 341 23Q343 20 348 19T353 14Q353 10 349 10ZM227 135Q239 135 253 141T279 153T299
160Q306 165 320 170T342 175V176Q345 177 348 178T355 179Q363 184 364 185T369 194Q371 201 374 201L372 203H374Q376 205 378 212T383 219Q384 223 386 226T389 233L392 236V237Q392 238 393 238Q393 242 398 247L400 250Q404 256 404 259Q406 262 410 270T415
282Q401 271 386 262T357 242Q346 235 335 226T312 210L311 209L309 208L307 209Q307 209 307 209T306 209V207Q307 203 300 198T285 189T277 179Q264 169 252 160T228 136H227V135ZM279 200Q279 200 279 200V200Z" />
<glyph unicode="&#xbf;" glyph-name="questiondown" horiz-adv-x="308" d="M290 179Q284 179 274 180T264 191Q264 198 270 202T277 218Q277 225 273 227T268 233Q272 235 275 235Q285 235 291 226T297 207Q297 200 295 193T290 179ZM-18 -211Q-31 -211 -41 -206T-61
-192H-63V-193H-64V-192H-65Q-65 -187 -67 -184T-70 -175Q-70 -166 -67 -155T-58 -137Q-31 -106 4 -87T73 -45Q86 -37 98 -28T120 -8Q122 -6 127 -5T133 -1L159 21Q167 26 172 33T185 46Q190 51 196 55T207 65Q215 73 224 88T234 114Q236 115 237 119T238 125Q238
136 227 145H225V147Q239 146 250 138T262 114Q262 95 243 77T210 46Q170 8 127 -25T40 -94Q21 -110 2 -125T-35 -157Q-40 -162 -47 -170T-54 -186Q-54 -195 -39 -196T-17 -198Q9 -198 45 -189T116 -165T174 -137Q176 -135 178 -134T182 -133Q185 -128 190 -125T200
-118Q206 -112 212 -106T223 -93L229 -83L232 -80H234Q239 -80 242 -85T245 -95Q245 -105 230 -118T196 -143T161 -162T145 -170Q135 -174 125 -179T103 -186V-187L83 -193Q76 -195 69 -196T53 -200Q50 -203 43 -204T31 -206Q27 -207 24 -207T17 -208H16Q8 -209
-1 -210T-18 -211Z" />
<glyph unicode="&#xc0;" glyph-name="Agrave" horiz-adv-x="592" d="M85 -30Q69 -30 51 -16T29 14Q28 20 28 26T29 39V46Q30 49 31 53T36 58V59Q34 61 34 65Q34 71 37 76T40 86Q47 95 53 105T59 127L66 133H60Q45 133 25 140T4 167Q4 175 13 181T33 192T52 196Q59
200 69 200V199H68V197Q62 195 50 188T29 172T19 155H48Q49 155 52 155T56 157Q64 159 71 161T86 165Q92 167 100 179T119 202T139 212V211Q139 210 137 210Q135 207 128 199T115 183T109 171L108 170L249 209Q251 210 258 212T266 212L267 214Q283 216 296 220Q313
226 330 229T365 240Q373 243 381 257T396 278Q409 291 418 304T438 333Q456 357 480 384T517 438Q518 440 518 442T520 445L534 462Q537 459 537 456Q537 452 534 449T528 442Q525 437 523 432T517 421Q510 409 503 397T487 374Q477 359 467 343T445 313Q443 310
440 307T434 301Q432 299 423 286T406 261T397 246L436 251L437 252L474 257Q478 275 488 301T511 353T531 397L547 430Q547 433 547 436T548 442Q550 451 558 463T578 487T595 504Q601 502 611 500T622 491L621 485Q611 478 599 458T580 427Q578 423 577 418T573
409Q572 405 567 395T559 384Q547 358 534 333T513 278Q512 276 510 270T509 262H514Q523 262 532 263T551 264Q592 264 622 248T652 200Q652 187 640 175T613 154T589 139V141H588V143Q596 149 607 162T627 191T636 217Q636 232 620 238T583 247T553 249Q544 249
531 248T510 245Q502 242 496 226T486 190T479 155T474 139Q475 136 475 128Q475 118 475 108T474 86Q474 72 476 51T487 13T516 -4Q519 -2 529 3T548 15T557 22H561V15Q561 3 545 -4T518 -11Q489 -11 474 7T453 50T447 99Q447 136 454 171T469 242H467Q456 238
438 236T403 230T378 220Q362 207 351 189T325 153Q321 148 313 137T295 116T281 101Q279 99 276 97T271 93L250 65L233 51Q226 45 215 34T193 23Q189 9 168 -3T123 -23T85 -30ZM84 -20Q90 -20 102 -15T126 -2T143 8Q175 31 202 58T257 114Q268 126 279 137T301
161Q306 166 310 172T318 183Q324 191 334 199T349 215H348Q347 215 328 210T282 195T225 177T175 161T146 152Q133 148 118 146T92 135Q82 128 73 104T59 55T53 16Q53 0 60 -10T84 -20ZM667 554Q665 554 655 559T636 569Q625 575 614 581T594 592L586 596L576
600Q574 602 570 602Q539 615 539 623Q539 627 544 633T557 639Q565 639 573 632Q580 627 592 617T619 598T642 581Q648 576 651 574T659 569Q661 568 666 564T672 558Q672 554 667 554Z" />
<glyph unicode="&#xc1;" glyph-name="Aacute" horiz-adv-x="592" d="M85 -30Q69 -30 51 -16T29 14Q28 20 28 26T29 39V46Q30 49 31 53T36 58V59Q34 61 34 65Q34 71 37 76T40 86Q47 95 53 105T59 127L66 133H60Q45 133 25 140T4 167Q4 175 13 181T33 192T52 196Q59
200 69 200V199H68V197Q62 195 50 188T29 172T19 155H48Q49 155 52 155T56 157Q64 159 71 161T86 165Q92 167 100 179T119 202T139 212V211Q139 210 137 210Q135 207 128 199T115 183T109 171L108 170L249 209Q251 210 258 212T266 212L267 214Q283 216 296 220Q313
226 330 229T365 240Q373 243 381 257T396 278Q409 291 418 304T438 333Q456 357 480 384T517 438Q518 440 518 442T520 445L534 462Q537 459 537 456Q537 452 534 449T528 442Q525 437 523 432T517 421Q510 409 503 397T487 374Q477 359 467 343T445 313Q443 310
440 307T434 301Q432 299 423 286T406 261T397 246L436 251L437 252L474 257Q478 275 488 301T511 353T531 397L547 430Q547 433 547 436T548 442Q550 451 558 463T578 487T595 504Q601 502 611 500T622 491L621 485Q611 478 599 458T580 427Q578 423 577 418T573
409Q572 405 567 395T559 384Q547 358 534 333T513 278Q512 276 510 270T509 262H514Q523 262 532 263T551 264Q592 264 622 248T652 200Q652 187 640 175T613 154T589 139V141H588V143Q596 149 607 162T627 191T636 217Q636 232 620 238T583 247T553 249Q544 249
531 248T510 245Q502 242 496 226T486 190T479 155T474 139Q475 136 475 128Q475 118 475 108T474 86Q474 72 476 51T487 13T516 -4Q519 -2 529 3T548 15T557 22H561V15Q561 3 545 -4T518 -11Q489 -11 474 7T453 50T447 99Q447 136 454 171T469 242H467Q456 238
438 236T403 230T378 220Q362 207 351 189T325 153Q321 148 313 137T295 116T281 101Q279 99 276 97T271 93L250 65L233 51Q226 45 215 34T193 23Q189 9 168 -3T123 -23T85 -30ZM84 -20Q90 -20 102 -15T126 -2T143 8Q175 31 202 58T257 114Q268 126 279 137T301
161Q306 166 310 172T318 183Q324 191 334 199T349 215H348Q347 215 328 210T282 195T225 177T175 161T146 152Q133 148 118 146T92 135Q82 128 73 104T59 55T53 16Q53 0 60 -10T84 -20ZM567 554Q562 554 562 558Q562 560 568 564T575 569Q579 571 582 573T592
581Q601 588 615 597T642 617T661 632Q669 639 677 639Q685 639 690 633T695 623Q695 615 664 602Q660 602 658 600L648 596L640 592Q633 588 621 582T598 569Q589 564 579 559T567 554Z" />
<glyph unicode="&#xc2;" glyph-name="Acircumflex" horiz-adv-x="592" d="M85 -30Q69 -30 51 -16T29 14Q28 20 28 26T29 39V46Q30 49 31 53T36 58V59Q34 61 34 65Q34 71 37 76T40 86Q47 95 53 105T59 127L66 133H60Q45 133 25 140T4 167Q4 175 13 181T33 192T52
196Q59 200 69 200V199H68V197Q62 195 50 188T29 172T19 155H48Q49 155 52 155T56 157Q64 159 71 161T86 165Q92 167 100 179T119 202T139 212V211Q139 210 137 210Q135 207 128 199T115 183T109 171L108 170L249 209Q251 210 258 212T266 212L267 214Q283 216
296 220Q313 226 330 229T365 240Q373 243 381 257T396 278Q409 291 418 304T438 333Q456 357 480 384T517 438Q518 440 518 442T520 445L534 462Q537 459 537 456Q537 452 534 449T528 442Q525 437 523 432T517 421Q510 409 503 397T487 374Q477 359 467 343T445
313Q443 310 440 307T434 301Q432 299 423 286T406 261T397 246L436 251L437 252L474 257Q478 275 488 301T511 353T531 397L547 430Q547 433 547 436T548 442Q550 451 558 463T578 487T595 504Q601 502 611 500T622 491L621 485Q611 478 599 458T580 427Q578 423
577 418T573 409Q572 405 567 395T559 384Q547 358 534 333T513 278Q512 276 510 270T509 262H514Q523 262 532 263T551 264Q592 264 622 248T652 200Q652 187 640 175T613 154T589 139V141H588V143Q596 149 607 162T627 191T636 217Q636 232 620 238T583 247T553
249Q544 249 531 248T510 245Q502 242 496 226T486 190T479 155T474 139Q475 136 475 128Q475 118 475 108T474 86Q474 72 476 51T487 13T516 -4Q519 -2 529 3T548 15T557 22H561V15Q561 3 545 -4T518 -11Q489 -11 474 7T453 50T447 99Q447 136 454 171T469 242H467Q456
238 438 236T403 230T378 220Q362 207 351 189T325 153Q321 148 313 137T295 116T281 101Q279 99 276 97T271 93L250 65L233 51Q226 45 215 34T193 23Q189 9 168 -3T123 -23T85 -30ZM84 -20Q90 -20 102 -15T126 -2T143 8Q175 31 202 58T257 114Q268 126 279 137T301
161Q306 166 310 172T318 183Q324 191 334 199T349 215H348Q347 215 328 210T282 195T225 177T175 161T146 152Q133 148 118 146T92 135Q82 128 73 104T59 55T53 16Q53 0 60 -10T84 -20ZM705 558Q699 559 687 567T661 588T638 610Q637 613 634 610Q625 604 608
596T571 579T538 565T523 561Q522 563 522 564T523 567Q524 570 539 580T575 602T616 625T645 643Q647 643 647 642Q655 629 669 612T700 575Q704 571 707 568T711 561Q711 558 705 558Z" />
<glyph unicode="&#xc3;" glyph-name="Atilde" horiz-adv-x="592" d="M85 -30Q69 -30 51 -16T29 14Q28 20 28 26T29 39V46Q30 49 31 53T36 58V59Q34 61 34 65Q34 71 37 76T40 86Q47 95 53 105T59 127L66 133H60Q45 133 25 140T4 167Q4 175 13 181T33 192T52 196Q59
200 69 200V199H68V197Q62 195 50 188T29 172T19 155H48Q49 155 52 155T56 157Q64 159 71 161T86 165Q92 167 100 179T119 202T139 212V211Q139 210 137 210Q135 207 128 199T115 183T109 171L108 170L249 209Q251 210 258 212T266 212L267 214Q283 216 296 220Q313
226 330 229T365 240Q373 243 381 257T396 278Q409 291 418 304T438 333Q456 357 480 384T517 438Q518 440 518 442T520 445L534 462Q537 459 537 456Q537 452 534 449T528 442Q525 437 523 432T517 421Q510 409 503 397T487 374Q477 359 467 343T445 313Q443 310
440 307T434 301Q432 299 423 286T406 261T397 246L436 251L437 252L474 257Q478 275 488 301T511 353T531 397L547 430Q547 433 547 436T548 442Q550 451 558 463T578 487T595 504Q601 502 611 500T622 491L621 485Q611 478 599 458T580 427Q578 423 577 418T573
409Q572 405 567 395T559 384Q547 358 534 333T513 278Q512 276 510 270T509 262H514Q523 262 532 263T551 264Q592 264 622 248T652 200Q652 187 640 175T613 154T589 139V141H588V143Q596 149 607 162T627 191T636 217Q636 232 620 238T583 247T553 249Q544 249
531 248T510 245Q502 242 496 226T486 190T479 155T474 139Q475 136 475 128Q475 118 475 108T474 86Q474 72 476 51T487 13T516 -4Q519 -2 529 3T548 15T557 22H561V15Q561 3 545 -4T518 -11Q489 -11 474 7T453 50T447 99Q447 136 454 171T469 242H467Q456 238
438 236T403 230T378 220Q362 207 351 189T325 153Q321 148 313 137T295 116T281 101Q279 99 276 97T271 93L250 65L233 51Q226 45 215 34T193 23Q189 9 168 -3T123 -23T85 -30ZM84 -20Q90 -20 102 -15T126 -2T143 8Q175 31 202 58T257 114Q268 126 279 137T301
161Q306 166 310 172T318 183Q324 191 334 199T349 215H348Q347 215 328 210T282 195T225 177T175 161T146 152Q133 148 118 146T92 135Q82 128 73 104T59 55T53 16Q53 0 60 -10T84 -20ZM667 556Q657 556 644 560T621 569Q611 576 594 582T562 589Q550 589 543
577T533 560Q532 559 531 559Q524 559 526 566Q527 568 531 579T545 601T570 612Q581 612 593 608T615 599Q626 593 643 586T677 578Q688 578 694 588T705 603Q707 605 709 604T712 598Q712 578 699 567T667 556Z" />
<glyph unicode="&#xc4;" glyph-name="Adieresis" horiz-adv-x="592" d="M85 -30Q69 -30 51 -16T29 14Q28 20 28 26T29 39V46Q30 49 31 53T36 58V59Q34 61 34 65Q34 71 37 76T40 86Q47 95 53 105T59 127L66 133H60Q45 133 25 140T4 167Q4 175 13 181T33 192T52
196Q59 200 69 200V199H68V197Q62 195 50 188T29 172T19 155H48Q49 155 52 155T56 157Q64 159 71 161T86 165Q92 167 100 179T119 202T139 212V211Q139 210 137 210Q135 207 128 199T115 183T109 171L108 170L249 209Q251 210 258 212T266 212L267 214Q283 216
296 220Q313 226 330 229T365 240Q373 243 381 257T396 278Q409 291 418 304T438 333Q456 357 480 384T517 438Q518 440 518 442T520 445L534 462Q537 459 537 456Q537 452 534 449T528 442Q525 437 523 432T517 421Q510 409 503 397T487 374Q477 359 467 343T445
313Q443 310 440 307T434 301Q432 299 423 286T406 261T397 246L436 251L437 252L474 257Q478 275 488 301T511 353T531 397L547 430Q547 433 547 436T548 442Q550 451 558 463T578 487T595 504Q601 502 611 500T622 491L621 485Q611 478 599 458T580 427Q578 423
577 418T573 409Q572 405 567 395T559 384Q547 358 534 333T513 278Q512 276 510 270T509 262H514Q523 262 532 263T551 264Q592 264 622 248T652 200Q652 187 640 175T613 154T589 139V141H588V143Q596 149 607 162T627 191T636 217Q636 232 620 238T583 247T553
249Q544 249 531 248T510 245Q502 242 496 226T486 190T479 155T474 139Q475 136 475 128Q475 118 475 108T474 86Q474 72 476 51T487 13T516 -4Q519 -2 529 3T548 15T557 22H561V15Q561 3 545 -4T518 -11Q489 -11 474 7T453 50T447 99Q447 136 454 171T469 242H467Q456
238 438 236T403 230T378 220Q362 207 351 189T325 153Q321 148 313 137T295 116T281 101Q279 99 276 97T271 93L250 65L233 51Q226 45 215 34T193 23Q189 9 168 -3T123 -23T85 -30ZM84 -20Q90 -20 102 -15T126 -2T143 8Q175 31 202 58T257 114Q268 126 279 137T301
161Q306 166 310 172T318 183Q324 191 334 199T349 215H348Q347 215 328 210T282 195T225 177T175 161T146 152Q133 148 118 146T92 135Q82 128 73 104T59 55T53 16Q53 0 60 -10T84 -20ZM661 555Q656 555 651 563T645 579Q645 584 650 590T660 598Q664 603 678
611T703 623Q709 625 705 622L703 619L698 613Q693 605 688 591Q683 578 677 567T661 555ZM568 555Q564 555 559 563T553 579Q553 584 558 590T567 598Q572 603 586 611T610 623Q613 624 614 624T613 622L610 619L606 613Q603 609 601 604T596 591Q590 578 585
567T568 555Z" />
<glyph unicode="&#xc5;" glyph-name="Aring" horiz-adv-x="592" d="M85 -30Q69 -30 51 -16T29 14Q28 20 28 26T29 39V46Q30 49 31 53T36 58V59Q34 61 34 65Q34 71 37 76T40 86Q47 95 53 105T59 127L66 133H60Q45 133 25 140T4 167Q4 175 13 181T33 192T52 196Q59
200 69 200V199H68V197Q62 195 50 188T29 172T19 155H48Q49 155 52 155T56 157Q64 159 71 161T86 165Q92 167 100 179T119 202T139 212V211Q139 210 137 210Q135 207 128 199T115 183T109 171L108 170L249 209Q251 210 258 212T266 212L267 214Q283 216 296 220Q313
226 330 229T365 240Q373 243 381 257T396 278Q409 291 418 304T438 333Q456 357 480 384T517 438Q518 440 518 442T520 445L534 462Q537 459 537 456Q537 452 534 449T528 442Q525 437 523 432T517 421Q510 409 503 397T487 374Q477 359 467 343T445 313Q443 310
440 307T434 301Q432 299 423 286T406 261T397 246L436 251L437 252L474 257Q478 275 488 301T511 353T531 397L547 430Q547 433 547 436T548 442Q550 451 558 463T578 487T595 504Q601 502 611 500T622 491L621 485Q611 478 599 458T580 427Q578 423 577 418T573
409Q572 405 567 395T559 384Q547 358 534 333T513 278Q512 276 510 270T509 262H514Q523 262 532 263T551 264Q592 264 622 248T652 200Q652 187 640 175T613 154T589 139V141H588V143Q596 149 607 162T627 191T636 217Q636 232 620 238T583 247T553 249Q544 249
531 248T510 245Q502 242 496 226T486 190T479 155T474 139Q475 136 475 128Q475 118 475 108T474 86Q474 72 476 51T487 13T516 -4Q519 -2 529 3T548 15T557 22H561V15Q561 3 545 -4T518 -11Q489 -11 474 7T453 50T447 99Q447 136 454 171T469 242H467Q456 238
438 236T403 230T378 220Q362 207 351 189T325 153Q321 148 313 137T295 116T281 101Q279 99 276 97T271 93L250 65L233 51Q226 45 215 34T193 23Q189 9 168 -3T123 -23T85 -30ZM84 -20Q90 -20 102 -15T126 -2T143 8Q175 31 202 58T257 114Q268 126 279 137T301
161Q306 166 310 172T318 183Q324 191 334 199T349 215H348Q347 215 328 210T282 195T225 177T175 161T146 152Q133 148 118 146T92 135Q82 128 73 104T59 55T53 16Q53 0 60 -10T84 -20ZM618 556Q602 556 592 563T582 583Q582 607 597 630T635 668T682 683Q699
683 709 672T719 644Q719 623 704 603T666 569T618 556ZM631 573Q658 573 676 594T695 636Q695 667 669 667Q655 667 641 655T619 625T611 590Q611 573 631 573Z" />
<glyph unicode="&#xc6;" glyph-name="AE" horiz-adv-x="832" d="M85 -30Q69 -30 51 -16T29 14Q28 20 28 26T29 39V46Q30 49 31 53T36 58V59Q34 61 34 65Q34 71 37 76T40 86Q47 95 53 105T59 127L66 133H60Q45 133 25 140T4 167Q4 175 13 181T33 192T52 196Q59
200 69 200V199H68V197Q62 195 50 188T29 172T19 155H48Q49 155 52 155T56 157Q64 159 71 161T86 165Q92 167 100 179T119 202T139 212V211Q139 210 137 210Q135 207 128 199T115 183T109 171L108 170L249 209Q251 210 258 212T266 212L267 214Q283 216 296 220Q313
226 330 229T365 240Q373 243 381 257T396 278Q409 291 418 304T438 333Q456 357 480 384T517 438Q518 440 518 442T520 445L534 462Q537 459 537 456Q537 452 534 449T528 442Q525 437 523 432T517 421Q510 409 503 397T487 374Q477 359 467 343T445 313Q443 310
440 307T434 301Q432 299 424 286T407 261T397 246L437 252L474 257Q478 275 488 301T511 353T531 397L547 430Q547 433 547 436T548 442Q550 451 558 463T578 487T595 504Q601 502 611 500T622 491L621 485Q611 478 599 458T580 427Q578 423 577 418T573 409Q572
405 567 395T559 384Q547 358 530 323T505 258Q508 258 524 261T560 269T598 276T619 280Q592 283 576 294T560 331Q560 354 579 373T626 409T682 438T728 456Q739 461 748 465T769 470Q773 470 776 471T784 473Q794 475 803 476T822 479Q827 480 832 481T842 482L873
479Q884 496 896 512T924 541Q936 541 946 536T957 517Q942 518 929 504T907 476T895 461Q900 451 903 440T907 417Q907 411 903 398T891 383V386Q891 392 893 399T896 413Q896 418 893 429T883 441Q878 441 870 430T855 402T842 371T837 351Q837 340 847 335L842
330Q817 336 817 361Q817 377 825 394T842 425T850 447Q850 454 842 455T828 457Q824 457 807 454T771 448T747 442Q733 439 706 425T650 390T601 350T581 313Q581 303 591 300T614 296T633 295L749 296Q755 296 755 290Q755 283 746 272T724 261Q711 261 687 261T649
259Q608 255 565 246T493 216Q488 194 484 182T478 158T475 131T474 86Q474 34 492 15T541 -4Q550 -4 560 -3T580 0Q595 2 616 10T657 27T684 40Q712 54 736 70T779 113Q788 126 795 142T803 173Q803 191 789 204Q783 207 783 212V213Q799 210 807 192T816 160Q816
130 796 99T752 50Q746 46 739 41T724 36Q724 23 709 19T684 10Q677 6 673 2T660 -2Q658 -2 658 -3Q634 -10 610 -15T561 -20Q537 -20 511 -14Q497 -11 487 -3Q463 11 455 41T447 99Q447 136 454 171T469 242H467Q456 238 438 236T403 230T378 220Q362 207 351
189T325 153Q321 148 313 137T295 116T281 101Q279 99 276 97T271 93L250 65L233 51Q226 45 215 34T193 23Q189 9 168 -3T123 -23T85 -30ZM84 -20Q90 -20 102 -15T126 -2T143 8Q175 31 202 58T257 114Q268 126 279 137T301 161Q306 166 310 172T318 183Q324 191
334 199T349 215H348Q347 215 328 210T282 195T225 177T175 161T146 152Q133 148 118 146T92 135Q82 128 73 104T59 55T53 16Q53 0 60 -10T84 -20Z" />
<glyph unicode="&#xc7;" glyph-name="Ccedilla" horiz-adv-x="425" d="M143 -14Q115 -14 99 -7T60 16Q32 35 19 59T6 117Q6 135 9 151Q17 199 47 244T120 329T209 400T298 451Q318 461 336 468T376 479Q380 480 384 480T392 481Q397 483 401 484T412 485Q428 485
441 476T454 449Q454 448 453 440T449 432L452 431Q459 441 474 458T504 492T518 519Q518 523 517 526T513 533Q523 529 534 519T545 498Q545 495 544 494Q543 490 534 481T515 463T500 450Q486 438 468 414T437 364T424 318Q424 308 427 302T436 288H434V287Q421
292 409 302T397 328Q397 340 400 349Q401 353 406 364T418 387T426 399V402H425Q422 399 419 397T412 394V398Q428 414 428 439Q428 468 399 468Q392 468 388 467Q332 457 286 426T196 360Q183 350 170 340T146 315Q136 302 126 289T106 262Q96 249 83 231T69
195Q60 187 53 168T42 129T38 96Q38 71 47 46T82 10Q92 6 103 6T124 5Q127 5 138 7T151 10Q176 12 199 23T245 44Q247 45 250 46T256 47L257 49Q292 58 324 83T388 125L415 140Q421 143 432 153T457 174T480 195T494 204V203H495Q492 192 482 184T464 167Q388 93
296 39Q289 35 282 32T266 25Q266 25 266 25T264 24Q264 24 264 24T264 25Q238 8 207 -3T143 -14ZM176 1V-1L171 0Q174 1 176 1ZM82 -176H74Q60 -176 60 -169Q60 -163 73 -163T102 -161Q114 -159 131 -148T149 -120Q149 -110 144 -102T133 -83Q127 -75 122 -66T117
-50Q117 -30 132 -15T170 0H171Q157 -5 148 -17T139 -43Q139 -50 143 -57T153 -71Q161 -80 167 -89T173 -110Q173 -140 149 -158T82 -176Z" />
<glyph unicode="&#xc8;" glyph-name="Egrave" horiz-adv-x="449" d="M167 -52Q135 -52 98 -41T36 -5T10 59Q10 89 28 116T75 166T133 207T189 233L225 246V248Q203 253 185 263T167 299Q167 322 186 341T233 377T288 406T334 424Q345 429 354 432T375 438L391
442L428 448Q433 449 438 449T448 450L480 448Q491 465 503 480T530 509Q542 509 553 504T564 485Q548 486 535 472T513 444T501 430Q506 420 509 409T513 386Q513 379 510 366T498 352V354Q498 360 500 367T502 382Q502 387 499 398T490 409Q485 409 477 398T461
370T448 339T443 319Q443 309 453 304L448 299Q423 304 423 329Q423 346 431 362T448 393T456 415Q456 422 448 423T434 425Q430 425 413 422T378 416T354 411Q340 408 313 394T257 359T208 319T188 281Q188 268 205 266T235 263Q243 263 251 263T268 264Q279 268
291 268H306Q311 268 314 268T321 269Q325 270 328 271T336 272Q355 272 368 255T382 220L381 218V217Q364 226 357 231T327 236Q314 236 301 234T275 229Q229 220 189 202T107 157Q89 146 71 133T42 100Q26 74 26 45Q26 9 47 -7T97 -26T154 -30Q168 -30 181 -28T208
-23Q213 -22 224 -19T245 -12T258 -8Q258 -8 258 -8T259 -9Q259 -8 260 -7Q267 -2 275 1T291 8Q318 22 343 38T386 81Q394 94 402 110T410 141Q410 160 395 172Q394 174 392 176T390 180V181Q406 178 414 160T422 128Q422 98 402 67T359 18Q353 14 346 10T331 5Q330
-9 315 -13T290 -22Q283 -25 279 -29T267 -34Q264 -34 265 -35Q241 -42 217 -47T167 -52ZM464 508Q462 508 452 513T433 523Q422 529 411 535T391 546L383 550L373 554Q371 556 367 556Q336 569 336 577Q336 581 341 587T354 593Q362 593 370 586Q377 581 389 571T416
552T439 535Q445 530 448 528T456 523Q458 522 463 518T469 512Q469 508 464 508Z" />
<glyph unicode="&#xc9;" glyph-name="Eacute" horiz-adv-x="449" d="M167 -52Q135 -52 98 -41T36 -5T10 59Q10 89 28 116T75 166T133 207T189 233L225 246V248Q203 253 185 263T167 299Q167 322 186 341T233 377T288 406T334 424Q345 429 354 432T375 438L391
442L428 448Q433 449 438 449T448 450L480 448Q491 465 503 480T530 509Q542 509 553 504T564 485Q548 486 535 472T513 444T501 430Q506 420 509 409T513 386Q513 379 510 366T498 352V354Q498 360 500 367T502 382Q502 387 499 398T490 409Q485 409 477 398T461
370T448 339T443 319Q443 309 453 304L448 299Q423 304 423 329Q423 346 431 362T448 393T456 415Q456 422 448 423T434 425Q430 425 413 422T378 416T354 411Q340 408 313 394T257 359T208 319T188 281Q188 268 205 266T235 263Q243 263 251 263T268 264Q279 268
291 268H306Q311 268 314 268T321 269Q325 270 328 271T336 272Q355 272 368 255T382 220L381 218V217Q364 226 357 231T327 236Q314 236 301 234T275 229Q229 220 189 202T107 157Q89 146 71 133T42 100Q26 74 26 45Q26 9 47 -7T97 -26T154 -30Q168 -30 181 -28T208
-23Q213 -22 224 -19T245 -12T258 -8Q258 -8 258 -8T259 -9Q259 -8 260 -7Q267 -2 275 1T291 8Q318 22 343 38T386 81Q394 94 402 110T410 141Q410 160 395 172Q394 174 392 176T390 180V181Q406 178 414 160T422 128Q422 98 402 67T359 18Q353 14 346 10T331 5Q330
-9 315 -13T290 -22Q283 -25 279 -29T267 -34Q264 -34 265 -35Q241 -42 217 -47T167 -52ZM364 508Q359 508 359 512Q359 514 365 518T372 523Q376 525 379 527T389 535Q398 542 412 551T439 571T458 586Q466 593 474 593Q482 593 487 587T492 577Q492 569 461 556Q457
556 455 554L445 550L437 546Q430 542 418 536T395 523Q386 518 376 513T364 508Z" />
<glyph unicode="&#xca;" glyph-name="Ecircumflex" horiz-adv-x="449" d="M167 -52Q135 -52 98 -41T36 -5T10 59Q10 89 28 116T75 166T133 207T189 233L225 246V248Q203 253 185 263T167 299Q167 322 186 341T233 377T288 406T334 424Q345 429 354 432T375 438L391
442L428 448Q433 449 438 449T448 450L480 448Q491 465 503 480T530 509Q542 509 553 504T564 485Q548 486 535 472T513 444T501 430Q506 420 509 409T513 386Q513 379 510 366T498 352V354Q498 360 500 367T502 382Q502 387 499 398T490 409Q485 409 477 398T461
370T448 339T443 319Q443 309 453 304L448 299Q423 304 423 329Q423 346 431 362T448 393T456 415Q456 422 448 423T434 425Q430 425 413 422T378 416T354 411Q340 408 313 394T257 359T208 319T188 281Q188 268 205 266T235 263Q243 263 251 263T268 264Q279 268
291 268H306Q311 268 314 268T321 269Q325 270 328 271T336 272Q355 272 368 255T382 220L381 218V217Q364 226 357 231T327 236Q314 236 301 234T275 229Q229 220 189 202T107 157Q89 146 71 133T42 100Q26 74 26 45Q26 9 47 -7T97 -26T154 -30Q168 -30 181 -28T208
-23Q213 -22 224 -19T245 -12T258 -8Q258 -8 258 -8T259 -9Q259 -8 260 -7Q267 -2 275 1T291 8Q318 22 343 38T386 81Q394 94 402 110T410 141Q410 160 395 172Q394 174 392 176T390 180V181Q406 178 414 160T422 128Q422 98 402 67T359 18Q353 14 346 10T331 5Q330
-9 315 -13T290 -22Q283 -25 279 -29T267 -34Q264 -34 265 -35Q241 -42 217 -47T167 -52ZM502 512Q496 513 484 521T458 542T435 564Q434 567 431 564Q422 558 405 550T368 533T335 519T320 515Q319 517 319 518T320 521Q321 524 336 534T372 556T413 579T442 597Q444
597 444 596Q452 583 466 566T497 529Q501 525 504 522T508 515Q508 512 502 512Z" />
<glyph unicode="&#xcb;" glyph-name="Edieresis" horiz-adv-x="449" d="M167 -52Q135 -52 98 -41T36 -5T10 59Q10 89 28 116T75 166T133 207T189 233L225 246V248Q203 253 185 263T167 299Q167 322 186 341T233 377T288 406T334 424Q345 429 354 432T375 438L391
442L428 448Q433 449 438 449T448 450L480 448Q491 465 503 480T530 509Q542 509 553 504T564 485Q548 486 535 472T513 444T501 430Q506 420 509 409T513 386Q513 379 510 366T498 352V354Q498 360 500 367T502 382Q502 387 499 398T490 409Q485 409 477 398T461
370T448 339T443 319Q443 309 453 304L448 299Q423 304 423 329Q423 346 431 362T448 393T456 415Q456 422 448 423T434 425Q430 425 413 422T378 416T354 411Q340 408 313 394T257 359T208 319T188 281Q188 268 205 266T235 263Q243 263 251 263T268 264Q279 268
291 268H306Q311 268 314 268T321 269Q325 270 328 271T336 272Q355 272 368 255T382 220L381 218V217Q364 226 357 231T327 236Q314 236 301 234T275 229Q229 220 189 202T107 157Q89 146 71 133T42 100Q26 74 26 45Q26 9 47 -7T97 -26T154 -30Q168 -30 181 -28T208
-23Q213 -22 224 -19T245 -12T258 -8Q258 -8 258 -8T259 -9Q259 -8 260 -7Q267 -2 275 1T291 8Q318 22 343 38T386 81Q394 94 402 110T410 141Q410 160 395 172Q394 174 392 176T390 180V181Q406 178 414 160T422 128Q422 98 402 67T359 18Q353 14 346 10T331 5Q330
-9 315 -13T290 -22Q283 -25 279 -29T267 -34Q264 -34 265 -35Q241 -42 217 -47T167 -52ZM458 509Q453 509 448 517T442 533Q442 538 447 544T457 552Q461 557 475 565T500 577Q506 579 502 576L500 573L495 567Q490 559 485 545Q480 532 474 521T458 509ZM365
509Q361 509 356 517T350 533Q350 538 355 544T364 552Q369 557 383 565T407 577Q410 578 411 578T410 576L407 573L403 567Q400 563 398 558T393 545Q387 532 382 521T365 509Z" />
<glyph unicode="&#xcc;" glyph-name="Igrave" horiz-adv-x="351" d="M219 -44Q205 -44 189 -29T172 1Q144 -6 115 -12T58 -27Q45 -31 31 -37T3 -43Q-5 -43 -10 -37T-17 -23L-16 -22V-20H-8Q-8 -20 -7 -20T-5 -19Q-4 -19 -5 -20L-3 -19Q6 -14 12 -14T27 -11Q33
-9 50 -5T84 5T101 12L118 9L162 18Q171 20 171 35T173 57Q183 120 213 176T282 286T354 391L224 379Q218 378 210 388T202 405Q202 414 211 417T231 420T247 420Q252 421 257 421T266 422Q272 422 274 420H276V417L265 414V411H272Q279 411 286 411T299 413Q319
416 331 416T363 417Q370 421 373 423T376 432Q376 444 384 450T400 462Q406 460 416 455T427 442Q427 438 423 433T416 423Q427 424 437 423T459 422Q461 422 472 423T490 425Q504 425 517 424T543 423L548 420Q525 408 499 404T447 397T397 381Q372 369 355 347T321
301Q295 265 266 223T217 135T196 43V39Q196 29 200 27T214 24Q219 24 225 25T236 26Q255 27 274 27T311 29Q315 30 318 30T326 30Q330 30 344 29T372 26T385 17Q376 19 367 19T349 19Q340 19 317 18T268 12T222 0T203 -21Q203 -27 209 -30T221 -35T227 -43Q225
-43 223 -43T219 -44ZM467 513Q465 513 455 518T436 528Q425 534 414 540T394 551L386 555L376 559Q374 561 370 561Q339 574 339 582Q339 586 344 592T357 598Q365 598 373 591Q380 586 392 576T419 557T442 540Q448 535 451 533T459 528Q461 527 466 523T472
517Q472 513 467 513Z" />
<glyph unicode="&#xcd;" glyph-name="Iacute" horiz-adv-x="351" d="M219 -44Q205 -44 189 -29T172 1Q144 -6 115 -12T58 -27Q45 -31 31 -37T3 -43Q-5 -43 -10 -37T-17 -23L-16 -22V-20H-8Q-8 -20 -7 -20T-5 -19Q-4 -19 -5 -20L-3 -19Q6 -14 12 -14T27 -11Q33
-9 50 -5T84 5T101 12L118 9L162 18Q171 20 171 35T173 57Q183 120 213 176T282 286T354 391L224 379Q218 378 210 388T202 405Q202 414 211 417T231 420T247 420Q252 421 257 421T266 422Q272 422 274 420H276V417L265 414V411H272Q279 411 286 411T299 413Q319
416 331 416T363 417Q370 421 373 423T376 432Q376 444 384 450T400 462Q406 460 416 455T427 442Q427 438 423 433T416 423Q427 424 437 423T459 422Q461 422 472 423T490 425Q504 425 517 424T543 423L548 420Q525 408 499 404T447 397T397 381Q372 369 355 347T321
301Q295 265 266 223T217 135T196 43V39Q196 29 200 27T214 24Q219 24 225 25T236 26Q255 27 274 27T311 29Q315 30 318 30T326 30Q330 30 344 29T372 26T385 17Q376 19 367 19T349 19Q340 19 317 18T268 12T222 0T203 -21Q203 -27 209 -30T221 -35T227 -43Q225
-43 223 -43T219 -44ZM367 513Q362 513 362 517Q362 519 368 523T375 528Q379 530 382 532T392 540Q401 547 415 556T442 576T461 591Q469 598 477 598Q485 598 490 592T495 582Q495 574 464 561Q460 561 458 559L448 555L440 551Q433 547 421 541T398 528Q389
523 379 518T367 513Z" />
<glyph unicode="&#xce;" glyph-name="Icircumflex" horiz-adv-x="351" d="M219 -44Q205 -44 189 -29T172 1Q144 -6 115 -12T58 -27Q45 -31 31 -37T3 -43Q-5 -43 -10 -37T-17 -23L-16 -22V-20H-8Q-8 -20 -7 -20T-5 -19Q-4 -19 -5 -20L-3 -19Q6 -14 12 -14T27 -11Q33
-9 50 -5T84 5T101 12L118 9L162 18Q171 20 171 35T173 57Q183 120 213 176T282 286T354 391L224 379Q218 378 210 388T202 405Q202 414 211 417T231 420T247 420Q252 421 257 421T266 422Q272 422 274 420H276V417L265 414V411H272Q279 411 286 411T299 413Q319
416 331 416T363 417Q370 421 373 423T376 432Q376 444 384 450T400 462Q406 460 416 455T427 442Q427 438 423 433T416 423Q427 424 437 423T459 422Q461 422 472 423T490 425Q504 425 517 424T543 423L548 420Q525 408 499 404T447 397T397 381Q372 369 355 347T321
301Q295 265 266 223T217 135T196 43V39Q196 29 200 27T214 24Q219 24 225 25T236 26Q255 27 274 27T311 29Q315 30 318 30T326 30Q330 30 344 29T372 26T385 17Q376 19 367 19T349 19Q340 19 317 18T268 12T222 0T203 -21Q203 -27 209 -30T221 -35T227 -43Q225
-43 223 -43T219 -44ZM505 517Q499 518 487 526T461 547T438 569Q437 572 434 569Q425 563 408 555T371 538T338 524T323 520Q322 522 322 523T323 526Q324 529 339 539T375 561T416 584T445 602Q447 602 447 601Q455 588 469 571T500 534Q504 530 507 527T511
520Q511 517 505 517Z" />
<glyph unicode="&#xcf;" glyph-name="Idieresis" horiz-adv-x="351" d="M219 -44Q205 -44 189 -29T172 1Q144 -6 115 -12T58 -27Q45 -31 31 -37T3 -43Q-5 -43 -10 -37T-17 -23L-16 -22V-20H-8Q-8 -20 -7 -20T-5 -19Q-4 -19 -5 -20L-3 -19Q6 -14 12 -14T27 -11Q33
-9 50 -5T84 5T101 12L118 9L162 18Q171 20 171 35T173 57Q183 120 213 176T282 286T354 391L224 379Q218 378 210 388T202 405Q202 414 211 417T231 420T247 420Q252 421 257 421T266 422Q272 422 274 420H276V417L265 414V411H272Q279 411 286 411T299 413Q319
416 331 416T363 417Q370 421 373 423T376 432Q376 444 384 450T400 462Q406 460 416 455T427 442Q427 438 423 433T416 423Q427 424 437 423T459 422Q461 422 472 423T490 425Q504 425 517 424T543 423L548 420Q525 408 499 404T447 397T397 381Q372 369 355 347T321
301Q295 265 266 223T217 135T196 43V39Q196 29 200 27T214 24Q219 24 225 25T236 26Q255 27 274 27T311 29Q315 30 318 30T326 30Q330 30 344 29T372 26T385 17Q376 19 367 19T349 19Q340 19 317 18T268 12T222 0T203 -21Q203 -27 209 -30T221 -35T227 -43Q225
-43 223 -43T219 -44ZM461 514Q456 514 451 522T445 538Q445 543 450 549T460 557Q464 562 478 570T503 582Q509 584 505 581L503 578L498 572Q493 564 488 550Q483 537 477 526T461 514ZM368 514Q364 514 359 522T353 538Q353 543 358 549T367 557Q372 562 386
570T410 582Q413 583 414 583T413 581L410 578L406 572Q403 568 401 563T396 550Q390 537 385 526T368 514Z" />
<glyph unicode="&#xd0;" glyph-name="Eth" horiz-adv-x="759" d="M272 -94Q256 -94 243 -81T229 -51Q229 -37 234 -23T239 5Q227 12 212 23T196 50Q196 65 208 76T231 95H234V93H235Q232 81 222 67T211 39Q211 27 223 25T245 22Q249 43 260 62T280 100Q298 141
322 178T371 253Q400 297 428 343T489 428Q496 436 507 436Q515 436 523 431T531 417Q531 405 521 389T497 359T474 335H472V337Q472 338 473 338T474 338V340Q474 341 476 341V344H469L461 338Q462 337 462 334Q462 322 453 308T430 279T408 250T398 224H397Q388
220 378 206T359 177T344 152Q330 131 317 110T295 65L277 20H325Q329 20 332 21T340 22V24L365 27V30H367Q367 29 369 28T372 27L373 28Q375 30 376 30T378 31H381Q385 31 385 30L401 36L403 38V36Q412 38 420 41T439 44Q450 52 462 52T485 57Q490 64 504 70T528
76V74L548 85L551 84V85Q565 96 581 103T614 119Q642 134 673 161T728 222T751 290Q751 326 727 355T667 404T592 436T523 452Q499 455 474 455Q437 455 401 451T328 438Q314 435 297 433T265 427Q255 424 245 419T224 409Q175 391 127 371T38 315Q33 311 25 303T17
287Q17 280 26 277T47 274T62 273V275L65 274Q65 274 65 274T66 276H69L70 275L71 276Q85 278 98 281T125 287V289H131V286Q131 284 130 284Q111 275 90 265T46 255Q27 255 8 268T-11 302Q-11 306 -10 308Q-4 329 25 351T92 392T167 425T223 445Q235 449 246 451T270
455Q293 459 315 463T360 467V469H385L393 472Q417 471 441 471T488 470Q545 466 600 450T698 401T766 311Q771 301 772 291T774 269Q774 219 746 181T674 115T583 66T496 32Q481 27 466 23T436 9V8H434L436 16H434Q434 16 424 13T412 10Q391 5 369 3T324 0Q316
0 307 1T290 2Q286 2 279 1T269 -2Q262 -9 261 -24T259 -49Q259 -59 262 -74T280 -89V-93Q277 -94 272 -94ZM324 236Q320 236 316 242T311 253Q324 257 349 257T389 258Q398 258 414 258T444 255T464 249Q464 246 461 246Q442 246 425 245T389 242Q378 241 361
239T324 236Z" />
<glyph unicode="&#xd1;" glyph-name="Ntilde" horiz-adv-x="672" d="M257 -41Q248 -41 241 -35T234 -19Q234 -8 239 1T248 18L281 87Q316 160 356 229T431 372Q445 403 461 433T477 498V501Q477 515 471 519T451 523Q433 523 416 515T382 499Q306 462 242 407T122
288Q109 273 90 249T57 200T42 153Q42 139 53 135T75 131Q82 131 89 133T104 137Q108 138 113 138T122 140L230 175V173H229V172Q206 162 182 149T134 125T83 114Q61 114 37 126T13 165Q13 188 25 209T54 250T85 286Q90 292 94 299T104 313Q110 318 116 322T127
332Q138 342 146 352T168 369L177 383Q181 389 190 396T206 409Q218 419 231 427T258 445Q278 460 299 473T342 498Q345 500 348 502T355 506L356 504Q370 516 386 522T421 532Q431 532 436 536Q464 536 484 520T505 474V463Q501 441 491 422T469 384Q462 373 457
361T445 337Q420 295 396 254T349 169Q343 158 332 139T321 108H325V110Q357 153 385 199T448 288Q456 299 463 309T479 330Q493 347 510 368T549 397Q552 398 555 398T561 399Q573 399 588 392T617 375T634 354Q635 350 635 347T635 340Q635 328 633 317T630 293Q629
258 623 225T613 156Q612 137 612 118T611 80Q611 72 612 52T618 14T635 -3Q645 -3 653 10T667 36T676 50V46Q676 38 671 20T660 -4Q652 -12 639 -12Q620 -12 610 3T596 40T590 83T589 117Q589 164 593 211T598 305Q598 315 597 334T591 369T573 385Q564 385 555
378T540 364Q478 307 431 236T341 93Q324 65 311 36T282 -23Q278 -30 272 -35T257 -41ZM688 443Q678 443 665 447T642 456Q632 463 615 469T583 476Q571 476 564 464T554 447Q553 446 552 446Q545 446 547 453Q548 455 552 466T566 488T591 499Q602 499 614 495T636
486Q647 480 664 473T698 465Q709 465 715 475T726 490Q728 492 730 491T733 485Q733 465 720 454T688 443Z" />
<glyph unicode="&#xd2;" glyph-name="Ograve" horiz-adv-x="491" d="M202 -14Q171 -14 142 -4T94 32Q84 45 83 59T75 82Q70 89 63 95T50 108Q36 126 29 149T21 194Q21 205 22 216T24 239Q24 241 25 241Q27 246 33 261T43 277V280Q41 284 41 285Q41 295 54 312T89
350T133 388T175 418T204 430Q222 441 247 449T294 459Q296 459 298 459T303 460Q307 461 312 462T321 464Q360 464 400 456T474 428T529 375T550 291Q550 269 545 253T533 217Q531 210 529 202T524 187Q520 178 514 169T503 152Q472 108 429 72T335 15Q304 3 270
-5T202 -14ZM189 1Q196 1 203 1T218 2V3Q230 3 243 7T267 14Q274 16 288 22T316 35T338 45Q356 53 372 65T403 90Q453 131 489 186T525 309Q525 359 500 390T435 435T353 449Q346 449 339 448T325 446Q312 445 298 442T270 435Q235 425 197 403T125 349T72 280T51
203Q47 197 46 191T45 178Q45 172 49 153T60 118T76 101Q79 101 84 116T95 148T103 171Q129 225 169 270T258 349Q271 357 284 366T313 375Q319 378 328 378Q335 378 348 374T372 363T383 348Q383 347 383 347T382 346V345Q375 350 368 353T352 356Q340 356 329
350T306 339Q293 332 279 326T253 311Q224 292 194 257T141 181T111 105Q110 100 109 94T107 83Q107 76 109 74Q113 68 127 63T159 53T194 47T218 44V43H216Q212 40 207 40T197 39Q174 39 151 45T106 59V58Q106 51 108 45T112 31Q116 18 130 12T161 3T189 1ZM504
508Q502 508 492 513T473 523Q462 529 451 535T431 546L423 550L413 554Q411 556 407 556Q376 569 376 577Q376 581 381 587T394 593Q402 593 410 586Q417 581 429 571T456 552T479 535Q485 530 488 528T496 523Q498 522 503 518T509 512Q509 508 504 508Z" />
<glyph unicode="&#xd3;" glyph-name="Oacute" horiz-adv-x="491" d="M202 -14Q171 -14 142 -4T94 32Q84 45 83 59T75 82Q70 89 63 95T50 108Q36 126 29 149T21 194Q21 205 22 216T24 239Q24 241 25 241Q27 246 33 261T43 277V280Q41 284 41 285Q41 295 54 312T89
350T133 388T175 418T204 430Q222 441 247 449T294 459Q296 459 298 459T303 460Q307 461 312 462T321 464Q360 464 400 456T474 428T529 375T550 291Q550 269 545 253T533 217Q531 210 529 202T524 187Q520 178 514 169T503 152Q472 108 429 72T335 15Q304 3 270
-5T202 -14ZM189 1Q196 1 203 1T218 2V3Q230 3 243 7T267 14Q274 16 288 22T316 35T338 45Q356 53 372 65T403 90Q453 131 489 186T525 309Q525 359 500 390T435 435T353 449Q346 449 339 448T325 446Q312 445 298 442T270 435Q235 425 197 403T125 349T72 280T51
203Q47 197 46 191T45 178Q45 172 49 153T60 118T76 101Q79 101 84 116T95 148T103 171Q129 225 169 270T258 349Q271 357 284 366T313 375Q319 378 328 378Q335 378 348 374T372 363T383 348Q383 347 383 347T382 346V345Q375 350 368 353T352 356Q340 356 329
350T306 339Q293 332 279 326T253 311Q224 292 194 257T141 181T111 105Q110 100 109 94T107 83Q107 76 109 74Q113 68 127 63T159 53T194 47T218 44V43H216Q212 40 207 40T197 39Q174 39 151 45T106 59V58Q106 51 108 45T112 31Q116 18 130 12T161 3T189 1ZM404
508Q399 508 399 512Q399 514 405 518T412 523Q416 525 419 527T429 535Q438 542 452 551T479 571T498 586Q506 593 514 593Q522 593 527 587T532 577Q532 569 501 556Q497 556 495 554L485 550L477 546Q470 542 458 536T435 523Q426 518 416 513T404 508Z" />
<glyph unicode="&#xd4;" glyph-name="Ocircumflex" horiz-adv-x="491" d="M202 -14Q171 -14 142 -4T94 32Q84 45 83 59T75 82Q70 89 63 95T50 108Q36 126 29 149T21 194Q21 205 22 216T24 239Q24 241 25 241Q27 246 33 261T43 277V280Q41 284 41 285Q41 295 54
312T89 350T133 388T175 418T204 430Q222 441 247 449T294 459Q296 459 298 459T303 460Q307 461 312 462T321 464Q360 464 400 456T474 428T529 375T550 291Q550 269 545 253T533 217Q531 210 529 202T524 187Q520 178 514 169T503 152Q472 108 429 72T335 15Q304
3 270 -5T202 -14ZM189 1Q196 1 203 1T218 2V3Q230 3 243 7T267 14Q274 16 288 22T316 35T338 45Q356 53 372 65T403 90Q453 131 489 186T525 309Q525 359 500 390T435 435T353 449Q346 449 339 448T325 446Q312 445 298 442T270 435Q235 425 197 403T125 349T72
280T51 203Q47 197 46 191T45 178Q45 172 49 153T60 118T76 101Q79 101 84 116T95 148T103 171Q129 225 169 270T258 349Q271 357 284 366T313 375Q319 378 328 378Q335 378 348 374T372 363T383 348Q383 347 383 347T382 346V345Q375 350 368 353T352 356Q340
356 329 350T306 339Q293 332 279 326T253 311Q224 292 194 257T141 181T111 105Q110 100 109 94T107 83Q107 76 109 74Q113 68 127 63T159 53T194 47T218 44V43H216Q212 40 207 40T197 39Q174 39 151 45T106 59V58Q106 51 108 45T112 31Q116 18 130 12T161 3T189
1ZM542 512Q536 513 524 521T498 542T475 564Q474 567 471 564Q462 558 445 550T408 533T375 519T360 515Q359 517 359 518T360 521Q361 524 376 534T412 556T453 579T482 597Q484 597 484 596Q492 583 506 566T537 529Q541 525 544 522T548 515Q548 512 542 512Z"
/>
<glyph unicode="&#xd5;" glyph-name="Otilde" horiz-adv-x="491" d="M202 -14Q171 -14 142 -4T94 32Q84 45 83 59T75 82Q70 89 63 95T50 108Q36 126 29 149T21 194Q21 205 22 216T24 239Q24 241 25 241Q27 246 33 261T43 277V280Q41 284 41 285Q41 295 54 312T89
350T133 388T175 418T204 430Q222 441 247 449T294 459Q296 459 298 459T303 460Q307 461 312 462T321 464Q360 464 400 456T474 428T529 375T550 291Q550 269 545 253T533 217Q531 210 529 202T524 187Q520 178 514 169T503 152Q472 108 429 72T335 15Q304 3 270
-5T202 -14ZM189 1Q196 1 203 1T218 2V3Q230 3 243 7T267 14Q274 16 288 22T316 35T338 45Q356 53 372 65T403 90Q453 131 489 186T525 309Q525 359 500 390T435 435T353 449Q346 449 339 448T325 446Q312 445 298 442T270 435Q235 425 197 403T125 349T72 280T51
203Q47 197 46 191T45 178Q45 172 49 153T60 118T76 101Q79 101 84 116T95 148T103 171Q129 225 169 270T258 349Q271 357 284 366T313 375Q319 378 328 378Q335 378 348 374T372 363T383 348Q383 347 383 347T382 346V345Q375 350 368 353T352 356Q340 356 329
350T306 339Q293 332 279 326T253 311Q224 292 194 257T141 181T111 105Q110 100 109 94T107 83Q107 76 109 74Q113 68 127 63T159 53T194 47T218 44V43H216Q212 40 207 40T197 39Q174 39 151 45T106 59V58Q106 51 108 45T112 31Q116 18 130 12T161 3T189 1ZM504
510Q494 510 481 514T458 523Q448 530 431 536T399 543Q387 543 380 531T370 514Q369 513 368 513Q361 513 363 520Q364 522 368 533T382 555T407 566Q418 566 430 562T452 553Q463 547 480 540T514 532Q525 532 531 542T542 557Q544 559 546 558T549 552Q549 532
536 521T504 510Z" />
<glyph unicode="&#xd6;" glyph-name="Odieresis" horiz-adv-x="491" d="M202 -14Q171 -14 142 -4T94 32Q84 45 83 59T75 82Q70 89 63 95T50 108Q36 126 29 149T21 194Q21 205 22 216T24 239Q24 241 25 241Q27 246 33 261T43 277V280Q41 284 41 285Q41 295 54 312T89
350T133 388T175 418T204 430Q222 441 247 449T294 459Q296 459 298 459T303 460Q307 461 312 462T321 464Q360 464 400 456T474 428T529 375T550 291Q550 269 545 253T533 217Q531 210 529 202T524 187Q520 178 514 169T503 152Q472 108 429 72T335 15Q304 3 270
-5T202 -14ZM189 1Q196 1 203 1T218 2V3Q230 3 243 7T267 14Q274 16 288 22T316 35T338 45Q356 53 372 65T403 90Q453 131 489 186T525 309Q525 359 500 390T435 435T353 449Q346 449 339 448T325 446Q312 445 298 442T270 435Q235 425 197 403T125 349T72 280T51
203Q47 197 46 191T45 178Q45 172 49 153T60 118T76 101Q79 101 84 116T95 148T103 171Q129 225 169 270T258 349Q271 357 284 366T313 375Q319 378 328 378Q335 378 348 374T372 363T383 348Q383 347 383 347T382 346V345Q375 350 368 353T352 356Q340 356 329
350T306 339Q293 332 279 326T253 311Q224 292 194 257T141 181T111 105Q110 100 109 94T107 83Q107 76 109 74Q113 68 127 63T159 53T194 47T218 44V43H216Q212 40 207 40T197 39Q174 39 151 45T106 59V58Q106 51 108 45T112 31Q116 18 130 12T161 3T189 1ZM498
509Q493 509 488 517T482 533Q482 538 487 544T497 552Q501 557 515 565T540 577Q546 579 542 576L540 573L535 567Q530 559 525 545Q520 532 514 521T498 509ZM405 509Q401 509 396 517T390 533Q390 538 395 544T404 552Q409 557 423 565T447 577Q450 578 451
578T450 576L447 573L443 567Q440 563 438 558T433 545Q427 532 422 521T405 509Z" />
<glyph unicode="&#xd7;" glyph-name="multiply" horiz-adv-x="261" d="M30 66Q24 66 24 73Q24 80 32 89Q58 121 79 143T100 169Q100 175 94 194T80 230T66 248Q57 248 52 239T35 227L34 228Q38 232 41 235T47 243Q54 252 64 268T87 285Q99 285 103 271T109 239T113
207T125 192Q127 196 138 208T164 234T190 261T207 276Q214 281 221 285T236 294Q241 294 253 290T265 278Q265 271 260 271T249 269Q242 266 235 262T223 250L215 247L207 236Q197 232 184 220T164 200Q160 197 155 192T145 187Q144 185 143 182T139 177V176Q138
177 136 177Q128 177 128 169Q128 160 140 141T167 104T194 82Q203 79 203 76Q203 71 191 74Q165 82 150 93T122 126Q120 131 116 136T112 146Q111 146 103 138T86 123T76 113L73 112V106Q70 105 63 97T54 89Q53 88 51 83T46 77L38 71Q34 66 30 66Z" />
<glyph unicode="&#xd8;" glyph-name="Oslash" horiz-adv-x="491" d="M150 -100Q146 -100 144 -95T142 -82Q142 -67 148 -49T165 -10Q144 -6 126 4T94 32Q84 45 83 59T75 82Q70 89 63 95T50 108Q36 126 29 149T21 194Q21 205 22 216T24 239Q24 241 25 241Q27 246
33 261T43 277V280Q41 284 41 285Q41 295 54 312T89 350T133 388T175 418T204 430Q222 441 247 449T294 459Q296 459 298 459T303 460Q307 461 312 462T321 464Q352 464 385 459T448 441Q466 465 469 465Q474 465 484 461T494 449Q494 445 492 441T488 434Q484
429 481 423Q511 403 530 371T550 291Q550 269 545 253T533 217Q531 210 529 202T524 187Q520 178 514 169T503 152Q472 108 429 72T335 15Q304 3 270 -5T202 -14Q192 -14 183 -13Q174 -29 167 -44T158 -71V-76Q158 -83 160 -85T162 -89Q161 -93 157 -96T150 -100ZM109
74Q113 67 128 62T162 52T196 46Q203 56 208 65T219 83Q236 111 252 138T286 193Q291 201 309 229T351 294T399 369T442 432Q422 441 399 445T353 449Q346 449 339 448T325 446Q312 445 298 442T270 435Q235 425 197 403T125 349T72 280T51 203Q47 197 46 191T45
178Q45 172 49 153T60 118T76 101Q79 101 84 116T95 148T103 171Q129 225 169 270T258 349Q271 357 284 366T313 375Q319 378 328 378Q335 378 348 374T372 363T383 348Q383 347 383 347T382 346V345Q375 350 368 353T352 356Q340 356 329 350T306 339Q293 332
279 326T253 311Q224 292 194 257T141 181T111 105Q110 100 109 94T107 83Q107 76 109 74ZM218 43H217Q212 34 205 23T191 1Q197 1 204 1T218 2V3Q230 3 243 7T267 14Q274 16 288 22T316 35T338 45Q356 53 372 65T403 90Q453 131 489 186T525 309Q525 345 511 371T474
414Q457 389 440 366T405 318Q360 254 316 190T228 59Q226 56 224 52T218 44V43ZM112 31Q116 15 135 9T171 2Q176 11 181 20T192 39Q170 40 149 46T106 59V58Q106 51 108 45T112 31Z" />
<glyph unicode="&#xd9;" glyph-name="Ugrave" horiz-adv-x="605" d="M246 -15Q218 -15 201 6T184 53Q184 82 196 113T225 173T257 226Q262 235 271 253T290 289T310 308V309Q310 310 309 311T308 313Q308 313 308 313T309 314Q317 330 331 354T361 405T387 456T398
496Q398 511 380 511Q370 511 361 508T343 502Q280 481 223 443T116 360Q97 343 74 320T33 270T16 215Q16 204 20 201T26 189H25V188Q12 196 7 210T1 237Q1 268 22 300T77 364T150 422T226 471T288 503Q299 508 309 513T331 519L345 521Q347 521 352 523T359 525Q374
525 391 519T422 502T435 472V469Q435 450 421 426T390 379T360 340Q355 333 349 327T337 312L305 258Q301 250 294 243T282 227Q278 221 274 214T266 198Q247 162 235 125T218 46Q218 42 218 39T217 33Q217 23 219 16T225 0L241 -2Q258 10 275 20T308 44Q341 74
369 108T428 177Q455 206 481 236T532 297Q543 309 554 321T574 346L577 351V348Q577 341 562 319T525 266T479 206T436 152T410 120Q403 112 396 102T380 84L365 72Q360 68 356 62T347 51Q337 41 328 31T308 13Q295 3 279 -6T246 -15ZM537 -10Q515 -10 500 4T484
41L488 44V47H487Q482 52 480 59T478 74Q478 100 490 138T522 218T561 297T594 358Q597 364 602 376T613 399T623 412Q627 414 631 416T639 419Q646 416 655 411T665 396Q665 392 659 380T643 353T625 328T612 317L611 315Q609 320 605 320Q605 308 599 300T592
285Q590 287 587 287Q586 287 586 285L583 283Q582 266 570 248T550 214Q533 181 523 145T512 71Q509 68 508 64T507 55Q507 45 512 28T526 4Q531 0 536 0T546 -2L547 -3H549Q545 -10 537 -10ZM632 554Q630 554 620 559T601 569Q590 575 579 581T559 592L551 596L541
600Q539 602 535 602Q504 615 504 623Q504 627 509 633T522 639Q530 639 538 632Q545 627 557 617T584 598T607 581Q613 576 616 574T624 569Q626 568 631 564T637 558Q637 554 632 554Z" />
<glyph unicode="&#xda;" glyph-name="Uacute" horiz-adv-x="605" d="M246 -15Q218 -15 201 6T184 53Q184 82 196 113T225 173T257 226Q262 235 271 253T290 289T310 308V309Q310 310 309 311T308 313Q308 313 308 313T309 314Q317 330 331 354T361 405T387 456T398
496Q398 511 380 511Q370 511 361 508T343 502Q280 481 223 443T116 360Q97 343 74 320T33 270T16 215Q16 204 20 201T26 189H25V188Q12 196 7 210T1 237Q1 268 22 300T77 364T150 422T226 471T288 503Q299 508 309 513T331 519L345 521Q347 521 352 523T359 525Q374
525 391 519T422 502T435 472V469Q435 450 421 426T390 379T360 340Q355 333 349 327T337 312L305 258Q301 250 294 243T282 227Q278 221 274 214T266 198Q247 162 235 125T218 46Q218 42 218 39T217 33Q217 23 219 16T225 0L241 -2Q258 10 275 20T308 44Q341 74
369 108T428 177Q455 206 481 236T532 297Q543 309 554 321T574 346L577 351V348Q577 341 562 319T525 266T479 206T436 152T410 120Q403 112 396 102T380 84L365 72Q360 68 356 62T347 51Q337 41 328 31T308 13Q295 3 279 -6T246 -15ZM537 -10Q515 -10 500 4T484
41L488 44V47H487Q482 52 480 59T478 74Q478 100 490 138T522 218T561 297T594 358Q597 364 602 376T613 399T623 412Q627 414 631 416T639 419Q646 416 655 411T665 396Q665 392 659 380T643 353T625 328T612 317L611 315Q609 320 605 320Q605 308 599 300T592
285Q590 287 587 287Q586 287 586 285L583 283Q582 266 570 248T550 214Q533 181 523 145T512 71Q509 68 508 64T507 55Q507 45 512 28T526 4Q531 0 536 0T546 -2L547 -3H549Q545 -10 537 -10ZM532 554Q527 554 527 558Q527 560 533 564T540 569Q544 571 547 573T557
581Q566 588 580 597T607 617T626 632Q634 639 642 639Q650 639 655 633T660 623Q660 615 629 602Q625 602 623 600L613 596L605 592Q598 588 586 582T563 569Q554 564 544 559T532 554Z" />
<glyph unicode="&#xdb;" glyph-name="Ucircumflex" horiz-adv-x="605" d="M246 -15Q218 -15 201 6T184 53Q184 82 196 113T225 173T257 226Q262 235 271 253T290 289T310 308V309Q310 310 309 311T308 313Q308 313 308 313T309 314Q317 330 331 354T361 405T387
456T398 496Q398 511 380 511Q370 511 361 508T343 502Q280 481 223 443T116 360Q97 343 74 320T33 270T16 215Q16 204 20 201T26 189H25V188Q12 196 7 210T1 237Q1 268 22 300T77 364T150 422T226 471T288 503Q299 508 309 513T331 519L345 521Q347 521 352 523T359
525Q374 525 391 519T422 502T435 472V469Q435 450 421 426T390 379T360 340Q355 333 349 327T337 312L305 258Q301 250 294 243T282 227Q278 221 274 214T266 198Q247 162 235 125T218 46Q218 42 218 39T217 33Q217 23 219 16T225 0L241 -2Q258 10 275 20T308
44Q341 74 369 108T428 177Q455 206 481 236T532 297Q543 309 554 321T574 346L577 351V348Q577 341 562 319T525 266T479 206T436 152T410 120Q403 112 396 102T380 84L365 72Q360 68 356 62T347 51Q337 41 328 31T308 13Q295 3 279 -6T246 -15ZM537 -10Q515 -10
500 4T484 41L488 44V47H487Q482 52 480 59T478 74Q478 100 490 138T522 218T561 297T594 358Q597 364 602 376T613 399T623 412Q627 414 631 416T639 419Q646 416 655 411T665 396Q665 392 659 380T643 353T625 328T612 317L611 315Q609 320 605 320Q605 308 599
300T592 285Q590 287 587 287Q586 287 586 285L583 283Q582 266 570 248T550 214Q533 181 523 145T512 71Q509 68 508 64T507 55Q507 45 512 28T526 4Q531 0 536 0T546 -2L547 -3H549Q545 -10 537 -10ZM670 558Q664 559 652 567T626 588T603 610Q602 613 599 610Q590
604 573 596T536 579T503 565T488 561Q487 563 487 564T488 567Q489 570 504 580T540 602T581 625T610 643Q612 643 612 642Q620 629 634 612T665 575Q669 571 672 568T676 561Q676 558 670 558Z" />
<glyph unicode="&#xdc;" glyph-name="Udieresis" horiz-adv-x="605" d="M246 -15Q218 -15 201 6T184 53Q184 82 196 113T225 173T257 226Q262 235 271 253T290 289T310 308V309Q310 310 309 311T308 313Q308 313 308 313T309 314Q317 330 331 354T361 405T387
456T398 496Q398 511 380 511Q370 511 361 508T343 502Q280 481 223 443T116 360Q97 343 74 320T33 270T16 215Q16 204 20 201T26 189H25V188Q12 196 7 210T1 237Q1 268 22 300T77 364T150 422T226 471T288 503Q299 508 309 513T331 519L345 521Q347 521 352 523T359
525Q374 525 391 519T422 502T435 472V469Q435 450 421 426T390 379T360 340Q355 333 349 327T337 312L305 258Q301 250 294 243T282 227Q278 221 274 214T266 198Q247 162 235 125T218 46Q218 42 218 39T217 33Q217 23 219 16T225 0L241 -2Q258 10 275 20T308
44Q341 74 369 108T428 177Q455 206 481 236T532 297Q543 309 554 321T574 346L577 351V348Q577 341 562 319T525 266T479 206T436 152T410 120Q403 112 396 102T380 84L365 72Q360 68 356 62T347 51Q337 41 328 31T308 13Q295 3 279 -6T246 -15ZM537 -10Q515 -10
500 4T484 41L488 44V47H487Q482 52 480 59T478 74Q478 100 490 138T522 218T561 297T594 358Q597 364 602 376T613 399T623 412Q627 414 631 416T639 419Q646 416 655 411T665 396Q665 392 659 380T643 353T625 328T612 317L611 315Q609 320 605 320Q605 308 599
300T592 285Q590 287 587 287Q586 287 586 285L583 283Q582 266 570 248T550 214Q533 181 523 145T512 71Q509 68 508 64T507 55Q507 45 512 28T526 4Q531 0 536 0T546 -2L547 -3H549Q545 -10 537 -10ZM626 555Q621 555 616 563T610 579Q610 584 615 590T625 598Q629
603 643 611T668 623Q674 625 670 622L668 619L663 613Q658 605 653 591Q648 578 642 567T626 555ZM533 555Q529 555 524 563T518 579Q518 584 523 590T532 598Q537 603 551 611T575 623Q578 624 579 624T578 622L575 619L571 613Q568 609 566 604T561 591Q555
578 550 567T533 555Z" />
<glyph unicode="&#xdd;" glyph-name="Yacute" horiz-adv-x="609" d="M295 -247Q284 -247 273 -246T250 -240Q242 -237 228 -230T202 -214T189 -196L193 -189L185 -191V-189Q168 -165 168 -134Q168 -117 170 -100T172 -65L173 -64H176V-66H177Q176 -70 176 -73T176
-81Q176 -114 190 -150T232 -211T298 -236L308 -235Q317 -229 329 -229Q340 -222 352 -216T374 -202Q401 -179 418 -160T449 -120T480 -69Q504 -29 518 4T542 74T559 156Q565 191 568 225Q559 221 554 215Q544 207 535 197T517 175Q490 141 458 112T395 53Q375
34 352 12T300 -15L293 -16Q275 -16 259 -1T242 32Q242 52 255 81T290 145T335 213T380 275T414 321Q430 342 443 364T470 408Q483 427 498 452T513 501Q513 513 506 516T487 520Q472 520 457 515T427 505Q327 469 247 407T96 268Q75 245 56 216T36 154Q36 130
51 127T86 123Q96 123 106 126T126 130Q128 130 134 129T140 125Q140 120 126 117T97 113T77 112Q65 112 50 116T23 129T10 154H6Q9 174 10 183T16 202T32 228Q35 233 40 241T52 250V249L53 258L59 261L61 260Q64 265 65 265L60 271Q67 276 74 287T91 299L90 306L106
315V317Q106 324 111 327T120 335Q176 391 231 427T357 496Q362 498 378 503T413 515T448 526T468 531Q497 531 520 517T543 471Q543 454 527 432T491 388T460 353Q446 336 423 303T375 228T326 145T289 69T274 14Q274 9 276 3T285 -4Q290 -4 293 -2T301 1Q335
18 363 45T416 99Q448 134 485 165T553 233Q569 251 584 273Q589 281 594 290T605 305Q612 312 620 312Q628 312 635 307T642 293V290Q642 289 636 279T624 258T617 246Q613 239 606 235T595 223Q592 218 590 211T586 198Q582 183 580 167T575 135Q571 115 567
95T556 55Q532 -19 498 -88Q494 -95 491 -102T484 -117Q479 -125 472 -133T458 -150Q429 -187 387 -217T295 -247ZM604 506Q599 506 599 510Q599 512 605 516T612 521Q616 523 619 525T629 533Q638 540 652 549T679 569T698 584Q706 591 714 591Q722 591 727 585T732
575Q732 567 701 554Q697 554 695 552L685 548L677 544Q670 540 658 534T635 521Q626 516 616 511T604 506Z" />
<glyph unicode="&#xde;" glyph-name="Thorn" horiz-adv-x="473" d="M89 -111Q66 -111 56 -94T43 -53T41 -12Q41 42 52 97T80 205T117 301T153 376Q141 373 136 373Q127 373 135 380T162 392Q163 394 172 413T194 456T215 500T225 521Q234 530 245 533T269 536Q273
536 280 535T287 528Q287 527 280 514T261 481T239 443T220 410T211 395H223Q249 395 284 392T354 377T410 343T433 284Q433 246 413 216T361 163T289 125T212 103T144 95Q139 95 126 96T113 107Q113 116 122 118T138 121Q164 122 190 123T242 128Q266 133 293
144T346 172T386 212T402 264Q402 296 380 318T325 352T258 371T199 378Q157 313 126 237T77 91T59 -31Q59 -39 60 -54T67 -80T85 -92Q102 -92 111 -79T127 -66Q130 -66 130 -67Q130 -72 122 -78T113 -94Q113 -95 117 -99T123 -105Q123 -107 115 -108T99 -110T89
-111Z" />
<glyph unicode="&#xdf;" glyph-name="germandbls" horiz-adv-x="381" d="M-78 -180Q-105 -180 -122 -163T-140 -119Q-140 -111 -137 -95T-123 -79Q-121 -79 -121 -83T-121 -89Q-120 -102 -119 -120T-110 -153T-82 -167Q-56 -167 -31 -142T16 -82T52 -14Q65 16
83 62T133 191Q121 190 110 189T86 187Q81 187 76 194T70 206L71 208Q88 210 106 211T142 213Q146 224 154 242T166 271Q176 295 191 326T228 388T276 439T335 459Q352 459 371 452T398 429Q403 420 403 417T404 409Q406 405 405 401T408 391Q410 387 410 382Q410
368 403 356Q399 349 400 344T400 331Q396 315 390 302T363 285Q317 264 295 241T265 210Q253 199 248 186T242 165Q242 155 249 149T265 138Q268 136 280 129T303 116T316 109Q321 109 326 113T335 119Q349 127 374 139T414 155L428 158Q429 158 431 156Q430 155
428 154T424 151Q418 145 405 141T386 132Q383 130 381 127T376 121Q367 115 353 106T339 84Q339 80 340 76T342 67Q342 59 337 45T325 25V21Q316 18 312 9T295 0L290 -6Q283 -6 278 -11T268 -22H267Q260 -22 253 -28T235 -40T208 -43Q204 -44 201 -46T194 -48Q191
-48 191 -46Q191 -45 194 -42Q198 -40 215 -32T239 -20Q239 -19 243 -16T249 -12Q262 -3 278 11T306 43T318 77Q318 80 317 85T312 91Q308 91 305 87T299 81Q292 76 284 71T268 60Q258 53 250 45T232 28Q219 18 208 8T186 -15Q178 -23 178 -35Q178 -39 180 -43T182
-53L181 -55Q177 -53 173 -46T164 -31T156 -24Q156 -20 155 -17T153 -11Q174 18 204 41T266 80H269Q276 87 285 92T300 104V105Q287 113 272 119T246 136Q236 144 228 156T219 182Q219 204 239 224T278 258Q289 266 311 278T356 297Q365 305 369 321T375 355T377
383Q377 413 371 431T348 449Q321 449 291 409Q281 396 273 388T252 356Q248 349 242 334T231 310Q227 302 222 297T212 281Q208 273 204 260T194 237Q180 210 165 178T132 110Q113 71 99 36T65 -39Q28 -112 -4 -146T-78 -180Z" />
<glyph unicode="&#xe0;" glyph-name="agrave" horiz-adv-x="312" d="M63 1Q49 1 32 16T15 47H14Q15 51 16 66T21 82V84Q22 85 26 92T34 107T40 117Q43 122 56 136T83 164T101 177Q107 186 123 197T157 218T182 232V233L183 232H184Q188 236 199 240T215 246Q222
249 229 250T243 252Q248 251 253 251T264 250Q274 248 286 240T298 219Q297 218 296 216T296 213L292 215Q286 226 274 228T251 231Q224 231 194 218T135 182T84 135T50 87L47 75Q45 65 41 56T37 36Q37 28 39 25T46 14L48 15V14L50 16L54 15Q61 19 69 21T82 29L84
31Q90 33 95 38T104 47Q119 61 134 75T162 104Q169 112 180 124T199 141L200 145Q208 148 215 159T230 180T245 191L249 192Q257 192 262 186T267 172Q267 164 262 154T255 136Q250 115 248 99T246 61Q246 48 250 39T264 20H269Q283 28 289 37T304 56Q305 56 306
57T307 58Q309 58 309 56Q309 52 308 49T305 40Q303 29 300 20T280 10Q271 10 260 14T242 25Q227 42 224 62T220 105V137H218Q214 131 209 125T199 113Q195 109 190 105T180 94Q178 94 173 88T167 78Q160 77 152 66T140 55Q139 52 133 46T124 36Q117 35 113 29T104
18Q95 14 84 8T63 1ZM246 306Q242 306 227 319T194 346Q190 348 187 351L180 358Q179 359 175 361Q148 379 148 385Q148 389 153 394T164 400Q173 400 181 389Q189 379 203 364T228 336Q233 330 241 322T251 312Q252 311 252 310Q252 306 246 306Z" />
<glyph unicode="&#xe1;" glyph-name="aacute" horiz-adv-x="312" d="M63 1Q49 1 32 16T15 47H14Q15 51 16 66T21 82V84Q22 85 26 92T34 107T40 117Q43 122 56 136T83 164T101 177Q107 186 123 197T157 218T182 232V233L183 232H184Q188 236 199 240T215 246Q222
249 229 250T243 252Q248 251 253 251T264 250Q274 248 286 240T298 219Q297 218 296 216T296 213L292 215Q286 226 274 228T251 231Q224 231 194 218T135 182T84 135T50 87L47 75Q45 65 41 56T37 36Q37 28 39 25T46 14L48 15V14L50 16L54 15Q61 19 69 21T82 29L84
31Q90 33 95 38T104 47Q119 61 134 75T162 104Q169 112 180 124T199 141L200 145Q208 148 215 159T230 180T245 191L249 192Q257 192 262 186T267 172Q267 164 262 154T255 136Q250 115 248 99T246 61Q246 48 250 39T264 20H269Q283 28 289 37T304 56Q305 56 306
57T307 58Q309 58 309 56Q309 52 308 49T305 40Q303 29 300 20T280 10Q271 10 260 14T242 25Q227 42 224 62T220 105V137H218Q214 131 209 125T199 113Q195 109 190 105T180 94Q178 94 173 88T167 78Q160 77 152 66T140 55Q139 52 133 46T124 36Q117 35 113 29T104
18Q95 14 84 8T63 1ZM205 306H204Q203 306 200 308T199 312Q201 314 209 322T222 336Q233 349 247 364T269 389Q277 400 286 400Q292 400 297 395T302 385Q302 379 275 361Q271 359 270 358L262 351Q259 348 255 346Q239 333 225 321T205 306Z" />
<glyph unicode="&#xe2;" glyph-name="acircumflex" horiz-adv-x="312" d="M63 1Q49 1 32 16T15 47H14Q15 51 16 66T21 82V84Q22 85 26 92T34 107T40 117Q43 122 56 136T83 164T101 177Q107 186 123 197T157 218T182 232V233L183 232H184Q188 236 199 240T215 246Q222
249 229 250T243 252Q248 251 253 251T264 250Q274 248 286 240T298 219Q297 218 296 216T296 213L292 215Q286 226 274 228T251 231Q224 231 194 218T135 182T84 135T50 87L47 75Q45 65 41 56T37 36Q37 28 39 25T46 14L48 15V14L50 16L54 15Q61 19 69 21T82 29L84
31Q90 33 95 38T104 47Q119 61 134 75T162 104Q169 112 180 124T199 141L200 145Q208 148 215 159T230 180T245 191L249 192Q257 192 262 186T267 172Q267 164 262 154T255 136Q250 115 248 99T246 61Q246 48 250 39T264 20H269Q283 28 289 37T304 56Q305 56 306
57T307 58Q309 58 309 56Q309 52 308 49T305 40Q303 29 300 20T280 10Q271 10 260 14T242 25Q227 42 224 62T220 105V137H218Q214 131 209 125T199 113Q195 109 190 105T180 94Q178 94 173 88T167 78Q160 77 152 66T140 55Q139 52 133 46T124 36Q117 35 113 29T104
18Q95 14 84 8T63 1ZM320 308Q314 309 304 320T282 345T263 370Q262 373 259 370Q255 367 240 358T206 337T173 318T158 311Q157 313 157 314T158 317Q159 320 173 332T208 358T246 385T270 403Q272 403 272 402Q281 386 292 366T318 325Q321 321 323 318T326 311Q326
308 320 308Z" />
<glyph unicode="&#xe3;" glyph-name="atilde" horiz-adv-x="312" d="M63 1Q49 1 32 16T15 47H14Q15 51 16 66T21 82V84Q22 85 26 92T34 107T40 117Q43 122 56 136T83 164T101 177Q107 186 123 197T157 218T182 232V233L183 232H184Q188 236 199 240T215 246Q222
249 229 250T243 252Q248 251 253 251T264 250Q274 248 286 240T298 219Q297 218 296 216T296 213L292 215Q286 226 274 228T251 231Q224 231 194 218T135 182T84 135T50 87L47 75Q45 65 41 56T37 36Q37 28 39 25T46 14L48 15V14L50 16L54 15Q61 19 69 21T82 29L84
31Q90 33 95 38T104 47Q119 61 134 75T162 104Q169 112 180 124T199 141L200 145Q208 148 215 159T230 180T245 191L249 192Q257 192 262 186T267 172Q267 164 262 154T255 136Q250 115 248 99T246 61Q246 48 250 39T264 20H269Q283 28 289 37T304 56Q305 56 306
57T307 58Q309 58 309 56Q309 52 308 49T305 40Q303 29 300 20T280 10Q271 10 260 14T242 25Q227 42 224 62T220 105V137H218Q214 131 209 125T199 113Q195 109 190 105T180 94Q178 94 173 88T167 78Q160 77 152 66T140 55Q139 52 133 46T124 36Q117 35 113 29T104
18Q95 14 84 8T63 1ZM281 307Q272 307 264 311T247 320Q237 326 226 331T200 336Q189 336 182 326T173 311Q172 311 170 311T168 313Q169 315 172 327T185 350T208 361Q218 361 225 357T241 348Q252 343 263 338T291 332Q302 332 308 339T317 352Q321 352 321 347Q321
328 310 318T281 307Z" />
<glyph unicode="&#xe4;" glyph-name="adieresis" horiz-adv-x="312" d="M63 1Q49 1 32 16T15 47H14Q15 51 16 66T21 82V84Q22 85 26 92T34 107T40 117Q43 122 56 136T83 164T101 177Q107 186 123 197T157 218T182 232V233L183 232H184Q188 236 199 240T215 246Q222
249 229 250T243 252Q248 251 253 251T264 250Q274 248 286 240T298 219Q297 218 296 216T296 213L292 215Q286 226 274 228T251 231Q224 231 194 218T135 182T84 135T50 87L47 75Q45 65 41 56T37 36Q37 28 39 25T46 14L48 15V14L50 16L54 15Q61 19 69 21T82 29L84
31Q90 33 95 38T104 47Q119 61 134 75T162 104Q169 112 180 124T199 141L200 145Q208 148 215 159T230 180T245 191L249 192Q257 192 262 186T267 172Q267 164 262 154T255 136Q250 115 248 99T246 61Q246 48 250 39T264 20H269Q283 28 289 37T304 56Q305 56 306
57T307 58Q309 58 309 56Q309 52 308 49T305 40Q303 29 300 20T280 10Q271 10 260 14T242 25Q227 42 224 62T220 105V137H218Q214 131 209 125T199 113Q195 109 190 105T180 94Q178 94 173 88T167 78Q160 77 152 66T140 55Q139 52 133 46T124 36Q117 35 113 29T104
18Q95 14 84 8T63 1ZM289 310Q284 310 279 318T273 334Q273 339 278 345T288 353Q292 358 306 366T331 378Q333 379 334 379T333 377L331 374L326 368Q322 364 320 359T316 346Q311 333 305 322T289 310ZM196 310Q192 310 187 318T181 334Q181 339 186 345T195
353Q200 358 214 366T238 378Q241 379 242 379T241 377L238 374L234 368Q231 364 229 359T224 346Q218 333 213 322T196 310Z" />
<glyph unicode="&#xe5;" glyph-name="aring" horiz-adv-x="312" d="M63 1Q49 1 32 16T15 47H14Q15 51 16 66T21 82V84Q22 85 26 92T34 107T40 117Q43 122 56 136T83 164T101 177Q107 186 123 197T157 218T182 232V233L183 232H184Q188 236 199 240T215 246Q222
249 229 250T243 252Q248 251 253 251T264 250Q274 248 286 240T298 219Q297 218 296 216T296 213L292 215Q286 226 274 228T251 231Q224 231 194 218T135 182T84 135T50 87L47 75Q45 65 41 56T37 36Q37 28 39 25T46 14L48 15V14L50 16L54 15Q61 19 69 21T82 29L84
31Q90 33 95 38T104 47Q119 61 134 75T162 104Q169 112 180 124T199 141L200 145Q208 148 215 159T230 180T245 191L249 192Q257 192 262 186T267 172Q267 164 262 154T255 136Q250 115 248 99T246 61Q246 48 250 39T264 20H269Q283 28 289 37T304 56Q305 56 306
57T307 58Q309 58 309 56Q309 52 308 49T305 40Q303 29 300 20T280 10Q271 10 260 14T242 25Q227 42 224 62T220 105V137H218Q214 131 209 125T199 113Q195 109 190 105T180 94Q178 94 173 88T167 78Q160 77 152 66T140 55Q139 52 133 46T124 36Q117 35 113 29T104
18Q95 14 84 8T63 1ZM201 306Q185 306 175 313T165 333Q165 369 190 393T252 417Q269 417 279 406T289 378Q289 346 264 326T201 306ZM214 323Q240 323 252 336T265 368Q265 401 239 401Q217 401 205 384T194 340Q194 323 214 323Z" />
<glyph unicode="&#xe6;" glyph-name="ae" horiz-adv-x="448" d="M301 -5Q251 -5 235 24T218 99Q218 108 218 117T220 137H218Q214 131 209 125T199 113Q195 109 190 105T180 94Q178 94 173 88T167 78Q160 77 152 66T140 55Q139 52 133 46T124 36Q117 35 113 29T104
18Q95 14 84 8T63 1Q49 1 32 16T15 47H14Q15 51 16 66T21 82V84Q22 85 26 92T34 107T40 117Q43 122 56 136T83 164T101 177Q107 186 123 197T157 218T182 232V233L183 232H184Q188 236 199 240T215 246Q222 249 229 250T243 252Q248 251 253 251T264 250Q274 248
286 240T298 219Q297 218 296 216T296 213L292 215Q286 226 274 228T251 231Q224 231 194 218T135 182T84 135T50 87L47 75Q45 65 41 56T37 36Q37 28 39 25T46 14L48 15V14L50 16L54 15Q61 19 69 21T82 29L84 31Q90 33 95 38T104 47Q119 61 134 75T162 104Q169
112 180 124T199 141L200 145Q208 148 215 159T230 180T245 191L249 192Q257 192 262 186T267 172Q267 165 263 156T256 139Q269 163 290 190T344 230Q350 232 356 234T369 237Q380 237 392 229T405 208Q405 201 402 196T396 184L391 181Q388 176 381 168T373 155Q373
155 373 155T372 154L368 153Q362 149 358 143T349 134Q330 121 312 109T272 87Q268 85 263 84T255 79Q251 73 250 65T248 49Q248 37 254 23T275 8Q277 8 278 8T281 9Q287 9 292 10T304 12L310 15H311Q316 15 330 22T359 38T376 50Q378 51 379 53T382 56Q399 69
417 81T451 109V108H453Q452 103 446 98T436 88Q425 68 401 50T357 19Q350 14 344 9T329 0Q314 -5 301 -5ZM262 105Q270 105 277 111T289 119L290 118V119Q309 128 326 144T359 175H361Q361 181 370 188T379 201Q381 203 383 207T385 214Q382 216 376 216Q371 214
363 209T349 204Q349 203 340 196T320 181T307 170Q302 165 291 152T271 126T262 106V105Z" />
<glyph unicode="&#xe7;" glyph-name="ccedilla" horiz-adv-x="265" d="M83 -11Q66 -11 46 -2T16 23Q12 32 12 45Q12 64 15 75T23 97T36 124Q37 126 43 133T57 147T67 158L77 171Q80 176 84 176T92 179Q100 193 114 203Q120 207 137 215T160 223Q165 223 169 221T177
219L179 220Q181 213 188 210T196 196Q196 193 192 185T184 170T176 162Q177 168 179 173T181 185Q181 190 178 195T169 201Q157 201 140 189T108 162T85 137Q70 120 56 102T35 62Q33 54 32 47T30 31Q32 28 32 25T34 17Q39 9 47 6T64 2Q82 2 97 9T121 16Q128 21
135 24T149 32Q154 32 162 38T175 47Q197 60 217 73T257 102Q261 105 270 113T284 122Q283 122 284 123Q287 122 287 117Q287 107 271 97T248 81Q245 78 242 73T234 68L233 65Q226 61 215 53T201 44Q194 42 189 39T178 30Q170 25 163 18T145 11Q145 10 145 10T144
10Q143 4 136 3T125 -1Q115 -7 106 -9T83 -11ZM120 0V-2L115 -1Q118 0 120 0ZM33 -140Q29 -140 29 -135Q29 -135 30 -134T33 -133Q45 -131 59 -131T83 -126T94 -103Q94 -90 86 -81T70 -63T61 -43Q61 -23 76 -12T114 -1H115Q101 -5 92 -14T83 -36Q83 -45 92 -53T110
-70T119 -92Q119 -117 107 -127T74 -138T33 -140Z" />
<glyph unicode="&#xe8;" glyph-name="egrave" horiz-adv-x="228" d="M92 -5Q67 -5 42 11T17 55Q17 60 17 65T18 74Q18 80 9 84T0 95Q1 96 3 96Q7 96 11 95T19 93Q22 93 26 95Q28 97 34 113T54 152T87 196T135 230Q141 232 147 234T160 237Q171 237 183 229T196
208Q196 201 193 196T187 184L182 181Q179 176 172 168T164 155Q164 155 164 155T163 154L159 153Q153 149 149 143T140 134Q121 121 103 109T63 87Q59 85 54 84T46 79Q42 73 41 65T39 49Q39 37 45 23T66 8Q68 8 69 8T72 9Q78 9 83 10T95 12L101 15H102Q107 15
121 22T150 38T167 50Q169 51 170 53T173 56Q190 69 208 81T242 109V108H244Q243 103 237 98T227 88Q216 68 192 50T148 19Q141 14 135 9T120 0Q105 -5 92 -5ZM53 105Q61 105 68 111T80 119L81 118V119Q100 128 117 144T150 175H152Q152 181 161 188T170 201Q172
203 174 207T176 214Q173 216 167 216Q162 214 154 209T140 204Q140 203 131 196T111 181T98 170Q93 165 82 152T62 126T53 106V105ZM152 276Q148 276 133 289T100 316Q96 318 93 321L86 328Q85 329 81 331Q54 349 54 355Q54 359 59 364T70 370Q79 370 87 359Q95
349 109 334T134 306Q139 300 147 292T157 282Q158 281 158 280Q158 276 152 276Z" />
<glyph unicode="&#xe9;" glyph-name="eacute" horiz-adv-x="228" d="M92 -5Q67 -5 42 11T17 55Q17 60 17 65T18 74Q18 80 9 84T0 95Q1 96 3 96Q7 96 11 95T19 93Q22 93 26 95Q28 97 34 113T54 152T87 196T135 230Q141 232 147 234T160 237Q171 237 183 229T196
208Q196 201 193 196T187 184L182 181Q179 176 172 168T164 155Q164 155 164 155T163 154L159 153Q153 149 149 143T140 134Q121 121 103 109T63 87Q59 85 54 84T46 79Q42 73 41 65T39 49Q39 37 45 23T66 8Q68 8 69 8T72 9Q78 9 83 10T95 12L101 15H102Q107 15
121 22T150 38T167 50Q169 51 170 53T173 56Q190 69 208 81T242 109V108H244Q243 103 237 98T227 88Q216 68 192 50T148 19Q141 14 135 9T120 0Q105 -5 92 -5ZM53 105Q61 105 68 111T80 119L81 118V119Q100 128 117 144T150 175H152Q152 181 161 188T170 201Q172
203 174 207T176 214Q173 216 167 216Q162 214 154 209T140 204Q140 203 131 196T111 181T98 170Q93 165 82 152T62 126T53 106V105ZM111 276H110Q109 276 106 278T105 282Q107 284 115 292T128 306Q139 319 153 334T175 359Q183 370 192 370Q198 370 203 365T208
355Q208 349 181 331Q177 329 176 328L168 321Q165 318 161 316Q145 303 131 291T111 276Z" />
<glyph unicode="&#xea;" glyph-name="ecircumflex" horiz-adv-x="228" d="M92 -5Q67 -5 42 11T17 55Q17 60 17 65T18 74Q18 80 9 84T0 95Q1 96 3 96Q7 96 11 95T19 93Q22 93 26 95Q28 97 34 113T54 152T87 196T135 230Q141 232 147 234T160 237Q171 237 183 229T196
208Q196 201 193 196T187 184L182 181Q179 176 172 168T164 155Q164 155 164 155T163 154L159 153Q153 149 149 143T140 134Q121 121 103 109T63 87Q59 85 54 84T46 79Q42 73 41 65T39 49Q39 37 45 23T66 8Q68 8 69 8T72 9Q78 9 83 10T95 12L101 15H102Q107 15
121 22T150 38T167 50Q169 51 170 53T173 56Q190 69 208 81T242 109V108H244Q243 103 237 98T227 88Q216 68 192 50T148 19Q141 14 135 9T120 0Q105 -5 92 -5ZM53 105Q61 105 68 111T80 119L81 118V119Q100 128 117 144T150 175H152Q152 181 161 188T170 201Q172
203 174 207T176 214Q173 216 167 216Q162 214 154 209T140 204Q140 203 131 196T111 181T98 170Q93 165 82 152T62 126T53 106V105ZM226 278Q220 279 210 290T188 315T169 340Q168 343 165 340Q161 337 146 328T112 307T79 288T64 281Q63 283 63 284T64 287Q65
290 79 302T114 328T152 355T176 373Q178 373 178 372Q187 356 198 336T224 295Q227 291 229 288T232 281Q232 278 226 278Z" />
<glyph unicode="&#xeb;" glyph-name="edieresis" horiz-adv-x="228" d="M92 -5Q67 -5 42 11T17 55Q17 60 17 65T18 74Q18 80 9 84T0 95Q1 96 3 96Q7 96 11 95T19 93Q22 93 26 95Q28 97 34 113T54 152T87 196T135 230Q141 232 147 234T160 237Q171 237 183 229T196
208Q196 201 193 196T187 184L182 181Q179 176 172 168T164 155Q164 155 164 155T163 154L159 153Q153 149 149 143T140 134Q121 121 103 109T63 87Q59 85 54 84T46 79Q42 73 41 65T39 49Q39 37 45 23T66 8Q68 8 69 8T72 9Q78 9 83 10T95 12L101 15H102Q107 15
121 22T150 38T167 50Q169 51 170 53T173 56Q190 69 208 81T242 109V108H244Q243 103 237 98T227 88Q216 68 192 50T148 19Q141 14 135 9T120 0Q105 -5 92 -5ZM53 105Q61 105 68 111T80 119L81 118V119Q100 128 117 144T150 175H152Q152 181 161 188T170 201Q172
203 174 207T176 214Q173 216 167 216Q162 214 154 209T140 204Q140 203 131 196T111 181T98 170Q93 165 82 152T62 126T53 106V105ZM195 280Q190 280 185 288T179 304Q179 309 184 315T194 323Q198 328 212 336T237 348Q239 349 240 349T239 347L237 344L232 338Q228
334 226 329T222 316Q217 303 211 292T195 280ZM102 280Q98 280 93 288T87 304Q87 309 92 315T101 323Q106 328 120 336T144 348Q147 349 148 349T147 347L144 344L140 338Q137 334 135 329T130 316Q124 303 119 292T102 280Z" />
<glyph unicode="&#xec;" glyph-name="igrave" horiz-adv-x="132" d="M41 -10Q38 -10 36 -8T30 -5Q23 1 20 5T17 19Q17 51 32 80T60 137Q62 139 61 141T60 146Q60 155 67 166T85 189T101 205Q107 205 119 204T131 194Q131 193 121 182T109 168Q96 148 79 121T48
64T35 9Q47 11 60 23T81 45H82V44Q82 40 78 36T72 29Q68 22 60 6T41 -10ZM133 517Q129 517 114 530T81 557Q77 559 74 562L67 569Q66 570 62 572Q35 590 35 596Q35 600 40 605T51 611Q60 611 68 600Q76 590 90 575T115 547Q120 541 128 533T138 523Q139 522 139
521Q139 517 133 517Z" />
<glyph unicode="&#xed;" glyph-name="iacute" horiz-adv-x="132" d="M41 -10Q38 -10 36 -8T30 -5Q23 1 20 5T17 19Q17 51 32 80T60 137Q62 139 61 141T60 146Q60 155 67 166T85 189T101 205Q107 205 119 204T131 194Q131 193 121 182T109 168Q96 148 79 121T48
64T35 9Q47 11 60 23T81 45H82V44Q82 40 78 36T72 29Q68 22 60 6T41 -10ZM92 517H91Q90 517 87 519T86 523Q88 525 96 533T109 547Q120 560 134 575T156 600Q164 611 173 611Q179 611 184 606T189 596Q189 590 162 572Q158 570 157 569L149 562Q146 559 142 557Q126
544 112 532T92 517Z" />
<glyph unicode="&#xee;" glyph-name="icircumflex" horiz-adv-x="132" d="M41 -10Q38 -10 36 -8T30 -5Q23 1 20 5T17 19Q17 51 32 80T60 137Q62 139 61 141T60 146Q60 155 67 166T85 189T101 205Q107 205 119 204T131 194Q131 193 121 182T109 168Q96 148 79 121T48
64T35 9Q47 11 60 23T81 45H82V44Q82 40 78 36T72 29Q68 22 60 6T41 -10ZM207 519Q201 520 191 531T169 556T150 581Q149 584 146 581Q142 578 127 569T93 548T60 529T45 522Q44 524 44 525T45 528Q46 531 60 543T95 569T133 596T157 614Q159 614 159 613Q168 597
179 577T205 536Q208 532 210 529T213 522Q213 519 207 519Z" />
<glyph unicode="&#xef;" glyph-name="idieresis" horiz-adv-x="132" d="M41 -10Q38 -10 36 -8T30 -5Q23 1 20 5T17 19Q17 51 32 80T60 137Q62 139 61 141T60 146Q60 155 67 166T85 189T101 205Q107 205 119 204T131 194Q131 193 121 182T109 168Q96 148 79 121T48
64T35 9Q47 11 60 23T81 45H82V44Q82 40 78 36T72 29Q68 22 60 6T41 -10ZM176 521Q171 521 166 529T160 545Q160 550 165 556T175 564Q179 569 193 577T218 589Q220 590 221 590T220 588L218 585L213 579Q209 575 207 570T203 557Q198 544 192 533T176 521ZM83
521Q79 521 74 529T68 545Q68 550 73 556T82 564Q87 569 101 577T125 589Q128 590 129 590T128 588L125 585L121 579Q118 575 116 570T111 557Q105 544 100 533T83 521Z" />
<glyph unicode="&#xf0;" glyph-name="eth" horiz-adv-x="341" d="M60 -23Q44 -23 37 -16T24 -8Q23 -3 15 3T7 31Q7 51 16 83T50 150Q76 186 105 208T177 248H178Q183 250 194 251T210 253Q220 253 228 249T242 245L240 243Q247 240 251 235T259 225Q264 246 265
267L266 268Q267 273 267 289T268 320T270 337Q266 342 265 355T265 375L263 377V378Q263 382 262 387T261 394L259 396L197 367Q193 366 189 375T188 387L256 418Q254 421 254 425T251 432Q246 446 240 459T227 483Q219 498 202 500Q194 500 194 503Q194 507 203
508Q205 510 206 510Q208 510 210 509T216 507Q255 500 277 462Q281 455 283 448T288 433L331 453Q335 455 338 445T340 434L292 412Q293 402 295 388T298 366Q301 345 301 326Q301 303 298 280T290 233V231Q288 222 285 211T277 187Q276 166 267 149T246 115Q233
91 219 72T190 45L182 40Q171 29 171 28Q164 25 158 19T145 8Q127 -5 105 -14T60 -23ZM55 -11Q55 -11 69 -7T87 -2Q92 0 106 8T134 26T147 40Q154 42 166 55T191 84T207 106Q209 108 214 116T220 125Q221 129 223 133T226 141Q229 143 232 154T237 166L236 167Q237
169 237 170T239 173Q239 179 241 184T243 196Q245 200 245 206T245 216L246 217V218Q246 227 241 234T224 241Q185 241 148 211T79 135T27 43Q26 39 26 35T25 26Q25 10 31 0T55 -11Z" />
<glyph unicode="&#xf1;" glyph-name="ntilde" horiz-adv-x="251" d="M41 14Q35 14 28 20T20 32Q20 51 30 78T54 134T83 189T108 232Q113 241 116 251T127 269Q135 268 145 264T156 249Q156 241 147 232T132 216Q110 191 93 162T61 103Q58 97 56 92T52 81Q50 76
47 72T44 62Q44 60 45 57T49 54Q57 62 74 81T111 122T147 160T170 179Q172 180 174 180T178 181Q194 181 203 167T212 138Q212 122 209 107T206 77Q206 65 211 46T232 27Q236 29 241 31T250 33Q253 33 253 29Q253 24 248 21T238 18Q223 18 207 31T187 59Q183 74
182 89T180 120Q180 127 181 140T183 158Q177 158 167 150T148 132T135 117Q133 115 130 113T123 108Q119 103 114 97T104 85Q102 83 96 78T87 70Q82 60 74 51T59 32Q57 29 55 25T50 18Q47 14 41 14ZM251 277Q242 277 234 281T217 290Q207 296 196 301T170 306Q159
306 152 296T143 281Q142 281 140 281T138 283Q139 285 142 297T155 320T178 331Q188 331 195 327T211 318Q222 313 233 308T261 302Q272 302 278 309T287 322Q291 322 291 317Q291 298 280 288T251 277Z" />
</font>
</defs>
</svg>
