<?xml version="1.0" standalone="no"?>
<!DOCTYPE svg PUBLIC "-//W3C//DTD SVG 1.1//EN" "http://www.w3.org/Graphics/SVG/1.1/DTD/svg11.dtd">
<svg xmlns="http://www.w3.org/2000/svg">
<defs >
<font id="Ephesis" horiz-adv-x="550" ><font-face
    font-family="Ephesis"
    units-per-em="1000"
    panose-1="0 0 0 0 0 0 0 0 0 0"
    ascent="900"
    descent="-400"
    alphabetic="0" />
<glyph unicode=" " glyph-name="space" horiz-adv-x="190" />
<glyph unicode="!" glyph-name="exclam" horiz-adv-x="336" d="M224 122Q211 122 195 141Q175 162 179 178L183 225Q187 247 195 274T218 334Q256 426 335 562Q340 571 333 571Q330 571 320 569T306 566Q303 566 301 569Q298 582 330 590L365 596Q391 608 402
608Q415 608 415 596Q416 593 363 502Q330 447 306 403T264 324Q210 218 210 173Q210 158 216 150Q228 134 228 126Q228 122 224 122ZM182 7Q165 5 146 11T129 27Q132 38 142 51T162 77Q167 83 175 83Q195 83 210 61Q211 60 211 57Q211 48 201 31Q188 7 182 7Z"
/>
<glyph unicode="&quot;" glyph-name="quotedbl" horiz-adv-x="382" d="M139 320Q136 320 136 322Q136 326 148 338T173 366Q182 379 188 393T195 418Q195 429 191 434T177 444Q170 449 164 455T157 473Q157 491 183 507Q191 513 199 513Q216 513 232 503T248 469Q248
451 237 426T209 377T174 337T139 320ZM266 320Q263 320 263 322Q263 326 275 338T300 366Q309 379 315 393T322 418Q322 429 318 434T304 444Q297 449 291 455T284 473Q284 491 310 507Q318 513 326 513Q343 513 359 503T375 469Q375 451 364 426T336 377T301
337T266 320Z" />
<glyph unicode="#" glyph-name="numbersign" horiz-adv-x="719" d="M396 10Q389 10 375 21Q361 32 363 38Q373 92 386 156T415 293L270 275Q256 204 246 142T227 28Q226 24 220 24Q209 24 195 31T181 44Q191 92 204 148T233 270Q142 260 72 255Q69 263 69 271Q69
284 75 295T88 307Q129 310 168 312T244 317L280 460L74 444Q70 444 70 450Q70 459 77 473T90 487Q183 493 290 496Q305 552 317 594T339 664Q340 671 347 671Q357 671 355 660Q345 622 336 581T316 496Q348 497 384 497T464 497Q489 600 506 651Q508 657 513 657Q524
657 521 647Q513 612 504 575T487 497L720 496Q728 496 728 488Q728 480 720 480Q665 480 606 479T482 473Q475 440 469 404T454 326Q521 328 587 329T720 331Q728 331 728 323Q728 315 720 315Q607 315 449 297L400 12Q398 10 396 10ZM279 319Q353 324 423 325Q431
363 440 399T458 472L309 462Q301 427 294 391T279 319Z" />
<glyph unicode="$" glyph-name="dollar" horiz-adv-x="592" d="M168 23Q109 23 85 44T60 97Q60 128 78 163T123 229T181 279T235 299Q242 299 242 294Q242 292 240 289T236 282Q101 193 101 111Q101 43 204 43H205L370 361Q330 381 299 404T268 463Q268 495 286
517T333 554T397 574T462 580Q471 580 479 579Q487 595 493 608T506 631Q534 685 547 707T568 729Q571 729 571 726T572 721Q570 710 503 575Q528 570 546 557T564 521Q564 484 533 467Q528 469 528 475Q528 480 534 496T541 522Q541 540 522 546Q507 551 493 554Q476
520 456 480T413 393Q446 376 479 357T534 312T556 253Q556 209 528 171T452 104T347 55T231 27Q215 -6 203 -29T186 -63L170 -94Q167 -99 156 -99Q147 -99 144 -95Q137 -87 142 -79L195 24Q181 23 168 23ZM320 467Q320 449 341 434T392 404L425 468L457 535Q462
545 468 556H465Q410 556 364 527Q320 501 320 467ZM516 235Q516 263 498 283T452 320T392 350Q351 268 311 188T240 45Q286 51 334 69T423 113T490 170T516 235Z" />
<glyph unicode="%" glyph-name="percent" horiz-adv-x="460" d="M32 -7Q22 -7 22 3Q22 6 23 7Q74 108 130 204T248 389L420 623Q422 626 425 626Q433 626 442 617T451 601Q451 597 450 596Q406 539 361 482T271 368Q203 277 146 185T41 -1Q38 -7 32 -7ZM154 442Q107
442 107 486Q107 509 120 532Q144 578 204 602Q215 605 224 605Q250 605 268 590T287 548Q287 512 252 482Q204 442 154 442ZM153 454Q186 454 225 487Q260 517 260 553Q260 576 247 583T221 590Q184 590 146 525Q130 499 130 477Q130 454 153 454ZM250 73Q203
73 203 117Q203 140 216 163Q240 209 300 233Q311 236 321 236Q347 236 365 221T383 179Q383 143 348 113Q300 73 250 73ZM249 85Q282 85 321 118Q356 148 356 184Q356 207 344 214T317 221Q280 221 242 156Q227 129 227 108Q227 85 249 85Z" />
<glyph unicode="&amp;" glyph-name="ampersand" horiz-adv-x="598" d="M537 -15Q535 -15 533 -13Q520 3 502 25T461 79Q432 62 398 47T326 21Q247 -3 181 -3Q105 -3 64 32Q27 63 27 115Q27 166 61 222T156 321Q181 337 220 363T313 424Q309 445 307 464T305 499Q305
638 434 654Q437 654 439 654T445 655Q471 655 486 640T501 598Q501 553 461 509Q439 485 409 459T341 403Q343 372 350 340Q372 345 400 349T463 357Q506 361 530 363T558 367Q589 372 612 377T649 387Q721 411 722 453Q722 468 734 468Q745 468 745 440Q745 396
655 369Q606 354 544 345Q588 328 588 269Q588 262 588 255T586 239Q576 159 484 94L548 15Q550 11 550 7Q550 -15 537 -15ZM339 442Q458 527 466 588V592Q466 604 459 615Q449 633 426 633Q422 633 418 633T410 631Q375 622 355 563Q339 514 339 442ZM224 25Q253
25 289 31Q373 45 447 98Q368 203 339 304Q272 270 272 215Q272 190 296 170Q306 161 301 158Q297 156 296 156Q293 156 287 160Q270 174 260 183T244 198Q228 215 230 234Q239 305 330 335L327 350L319 387Q276 356 193 288Q159 258 133 210Q104 157 104 113Q104
25 224 25ZM468 115Q537 172 548 237Q549 245 549 252T550 266Q550 330 492 339L460 335Q430 331 405 326T358 312Q372 265 399 216T468 115Z" />
<glyph unicode="&apos;" glyph-name="quotesingle" horiz-adv-x="303" d="M139 317Q136 317 136 319Q136 323 148 335T173 363Q182 376 188 390T195 415Q195 426 191 431T177 441Q170 446 164 452T157 470Q157 488 183 504Q191 510 199 510Q216 510 232 500T248
466Q248 448 237 423T209 374T174 334T139 317Z" />
<glyph unicode="(" glyph-name="parenleft" horiz-adv-x="274" d="M189 -73Q184 -73 180 -73T172 -71Q96 -45 52 28Q13 96 13 186Q13 271 48 352Q135 551 329 616H330Q333 616 337 614T342 607Q342 601 326 597Q252 577 187 502Q135 442 97 354Q62 272 62 195Q62
101 108 28Q147 -35 187 -45Q225 -50 225 -59Q225 -73 189 -73Z" />
<glyph unicode=")" glyph-name="parenright" horiz-adv-x="352" d="M18 -83Q14 -83 10 -81T6 -75Q6 -68 21 -64Q97 -44 161 30Q213 90 251 178Q286 260 286 338Q286 432 240 505Q200 568 161 578Q123 583 123 592Q123 605 159 605Q164 605 168 605T176 603Q253
577 295 505Q335 438 335 346Q335 262 300 181Q213 -20 19 -83H18Z" />
<glyph unicode="*" glyph-name="asterisk" horiz-adv-x="436" d="M163 269Q144 269 148 287Q162 350 193 461L135 438Q103 423 84 403Q79 398 73 398Q58 398 58 413Q58 419 62 423Q86 451 156 478Q121 477 91 477T36 476Q21 476 21 491Q21 506 36 506Q62 506 96
506T171 508L94 595Q90 599 90 605Q90 620 105 620Q111 620 116 615L208 512Q234 599 244 647Q247 658 258 658Q278 658 273 640Q268 618 260 588T241 519Q262 531 283 545T325 575Q330 578 334 578Q349 578 349 563Q349 556 343 551Q329 541 315 531T287 512Q324
513 354 513T410 514Q425 514 425 499Q425 484 410 484Q381 484 338 483T236 480L268 445Q290 420 310 404T347 378Q355 373 355 365Q355 350 340 350Q339 350 333 352Q314 362 292 380T246 425L221 452Q205 397 195 355T177 281Q176 269 163 269Z" />
<glyph unicode="+" glyph-name="plus" horiz-adv-x="296" d="M151 92Q145 92 142 99T138 112Q138 115 140 128T144 157T149 187T152 205Q148 205 132 205T97 208T65 213T51 223Q51 231 55 236T66 242Q90 242 113 243T160 244Q166 278 172 313T183 383Q191 383
192 366T194 337Q194 313 193 290T190 244Q204 244 217 244T244 243Q273 243 300 246V242Q300 236 285 231T250 221T211 213T187 209Q186 203 183 185T174 145T162 108T151 92Z" />
<glyph unicode="," glyph-name="comma" horiz-adv-x="221" d="M65 -162L75 -145Q87 -130 95 -119T107 -101Q127 -72 127 -53Q127 -36 109 -26Q91 -16 90 -11V-4Q90 8 95 14Q97 18 103 22T119 33Q122 36 129 36Q144 36 158 28T176 9V-1Q176 -16 168 -38T141 -88Q100
-155 65 -162Z" />
<glyph unicode="-" glyph-name="hyphen" horiz-adv-x="320" d="M118 217Q94 217 92 218Q86 221 83 231Q82 234 82 238Q82 244 86 245Q95 250 197 250Q350 250 350 237Q349 236 349 235T346 232Q337 224 219 220Q150 217 118 217Z" />
<glyph unicode="." glyph-name="period" horiz-adv-x="213" d="M117 7Q102 5 84 10T65 25Q65 31 69 37T79 51Q96 72 99 77T111 83Q130 83 146 61Q147 60 147 57Q147 50 136 31Q123 7 117 7Z" />
<glyph unicode="/" glyph-name="slash" horiz-adv-x="585" d="M-45 -137Q-52 -137 -52 -132Q-47 -96 -7 -33Q9 -7 45 40T131 149T236 277T346 408T448 527T530 619T577 668Q584 675 600 675Q615 675 628 669T639 652Q567 571 488 486T331 315T183 148T56 -9Q34
-38 21 -62T6 -102Q6 -111 -3 -119T-25 -132T-45 -137Z" />
<glyph unicode="0" glyph-name="zero" horiz-adv-x="576" d="M166 -3Q147 -3 127 0Q77 7 50 52T22 167Q22 252 63 349Q98 431 174 507Q211 545 250 573T329 622Q321 627 321 631Q321 640 349 640Q354 640 361 640T375 639Q402 649 453 649Q522 649 527 623Q527
616 522 616Q520 616 499 623T458 631Q451 631 445 631T433 630Q471 620 509 591Q591 527 591 411Q591 270 481 152Q334 -3 166 -3ZM155 16Q224 16 299 58Q370 99 434 166Q542 280 542 416Q542 471 524 517Q507 559 486 573Q457 593 432 604T384 620Q296 592 210
491Q179 454 154 417T110 339Q65 243 65 147Q65 23 135 17Q140 16 145 16T155 16Z" />
<glyph unicode="1" glyph-name="one" horiz-adv-x="418" d="M90 -22Q83 -25 77 -14T70 8Q70 16 75 18Q92 25 115 34T170 55Q199 133 242 250T344 525Q286 485 208 453Q206 452 202 452Q194 452 194 463Q194 469 201 472Q263 498 370 594L374 604Q380 622 413 622Q442
622 442 608Q442 605 440 603L211 61Q244 68 280 71T357 75Q367 75 367 65Q367 55 357 55Q290 55 219 31Q204 26 172 13T90 -22Z" />
<glyph unicode="2" glyph-name="two" horiz-adv-x="648" d="M512 -39Q475 -39 425 -27T312 7Q248 30 206 41T144 53Q89 29 56 17T10 4Q-14 4 -14 22Q-14 36 1 52T36 74Q66 83 115 83Q123 83 131 83T149 82Q255 147 327 196T439 277Q471 304 494 327T532 371Q573
425 579 490Q585 562 503 562Q438 562 346 520Q252 478 206 430Q202 427 199 427Q190 427 190 438Q192 444 195 446Q266 509 373 557Q481 605 558 605Q655 605 655 528Q655 457 577 369Q558 348 526 319T450 252Q401 211 331 166T168 71Q193 69 235 59T336 29Q446
-7 514 -7Q565 -7 596 13T628 61Q628 102 558 127Q552 129 552 133Q552 142 566 137Q654 113 654 57Q654 17 612 -12Q570 -39 512 -39Z" />
<glyph unicode="3" glyph-name="three" horiz-adv-x="671" d="M258 -10Q153 -10 88 24Q16 62 16 127Q16 149 25 174Q41 218 109 250Q167 276 213 276Q223 276 223 270Q223 263 213 263Q180 263 135 233Q85 199 80 161Q79 157 79 153T79 145Q79 52 195 20Q239 8
284 8Q363 8 444 44Q587 109 615 241Q616 246 616 252T617 263Q617 311 566 335Q523 355 458 355Q398 355 362 340Q353 336 344 336Q326 336 326 354Q326 378 349 378Q435 378 505 407Q595 445 595 517Q595 577 525 577Q477 577 409 550Q346 524 307 495Q303 493
302 493Q294 493 294 510Q294 531 306 535Q332 543 371 589Q374 593 378 593Q383 593 383 587Q383 584 366 561Q473 612 545 612Q641 612 653 523Q654 520 654 517T654 512Q654 430 489 380Q567 374 616 345Q675 311 670 246Q661 128 527 54Q409 -10 258 -10Z"
/>
<glyph unicode="4" glyph-name="four" horiz-adv-x="657" d="M397 -17Q392 -17 388 -13Q369 13 369 40Q369 93 374 140T392 231Q308 253 253 253Q213 253 139 229Q64 205 59 205Q49 205 41 215T33 238Q33 258 50 262Q61 266 75 269T106 276Q402 439 581 606L588
619Q591 624 604 624Q617 624 628 619T637 607L533 429Q472 324 437 246Q476 234 509 228T567 221Q595 221 618 237T641 283Q641 293 637 306T633 324Q633 329 638 329Q646 329 652 320Q682 281 682 254Q682 200 567 200Q540 200 505 206T426 222Q408 177 399 132T389
40Q389 22 405 0Q407 -4 407 -7Q407 -17 397 -17ZM400 259Q414 303 440 358T507 480L535 527Q417 429 165 284Q188 286 209 288T249 290Q277 290 314 282T400 259Z" />
<glyph unicode="5" glyph-name="five" horiz-adv-x="652" d="M259 556Q254 552 251 564T247 591Q247 605 251 609Q271 626 301 630Q306 631 319 631T352 631Q405 631 496 604Q591 578 639 578Q660 578 683 591Q714 607 710 634V638Q710 647 718 647Q722 647 725
641Q732 628 732 615Q732 586 693 569Q663 558 637 558Q612 558 577 561T497 571Q453 578 418 581T357 584Q290 584 259 556ZM184 -9Q147 -9 117 -2T60 19Q2 50 2 104Q2 150 48 202Q57 212 64 212Q70 212 70 206Q70 198 63 191Q37 160 37 131Q37 85 93 50Q146 17
213 17Q333 17 439 104Q555 196 555 311Q555 374 485 402Q440 421 388 421Q304 421 245 389Q225 376 204 364T162 340Q160 339 156 339Q148 339 148 352Q148 364 157 368L249 519Q256 529 292 529Q313 529 308 523L208 388Q334 443 391 443Q622 443 622 321Q622
184 477 85Q339 -9 184 -9Z" />
<glyph unicode="6" glyph-name="six" horiz-adv-x="612" d="M216 -19Q123 -19 76 24Q32 63 32 131Q32 214 93 303Q158 398 261 462Q334 506 394 536T501 583Q467 590 467 597Q467 608 477 605Q503 599 527 599Q554 599 576 606Q581 607 585 607T594 608Q614 608
627 597T641 573Q641 565 634 564Q560 549 475 516T294 431Q193 375 129 286Q64 197 64 120Q64 3 209 3Q279 3 381 35Q440 55 475 94Q507 131 507 166Q507 214 451 214Q379 214 312 171Q235 121 235 46Q235 30 224 30Q215 30 215 44Q215 134 295 193Q369 244 457
244Q505 244 534 221Q561 200 561 165Q561 125 525 84Q486 42 417 19Q300 -19 216 -19Z" />
<glyph unicode="7" glyph-name="seven" horiz-adv-x="474" d="M172 -15Q160 -15 156 -5Q148 19 148 44Q148 146 238 273Q353 435 512 582Q488 586 464 589T416 595Q382 600 351 602T290 605Q202 605 163 586Q109 561 99 494Q96 475 77 475Q52 475 53 500L54 506V512Q57
521 60 530T65 549Q73 576 70 584Q67 592 67 599Q67 612 70 612Q73 612 77 603Q81 591 83 577Q138 644 263 644Q286 644 320 639T399 624Q452 613 484 607T530 599L575 638Q576 639 579 639Q588 639 602 625Q617 612 617 604Q617 601 616 600Q513 514 427 429T270
260Q236 218 207 158Q174 86 174 34Q174 11 180 -6Q180 -7 180 -7T181 -9Q181 -15 172 -15Z" />
<glyph unicode="8" glyph-name="eight" horiz-adv-x="562" d="M129 -18Q56 -18 23 13T-10 90Q-10 141 29 195Q121 320 266 402Q187 444 187 484Q187 549 270 593Q338 630 410 630Q463 630 500 611Q534 593 534 561Q534 540 520 518Q539 525 560 532T606 547Q608
548 612 548Q622 548 622 535Q622 519 598 514Q479 487 344 416Q361 409 387 397T448 368Q541 316 541 246Q541 186 473 123Q413 66 317 24Q223 -18 129 -18ZM318 426L405 470Q452 494 496 510Q509 543 509 557Q509 581 484 590Q444 604 401 604Q336 604 289 576Q241
549 241 509Q241 499 244 490Q256 453 318 426ZM137 -4Q200 -4 287 34Q493 126 493 224Q493 294 385 345L290 389Q221 346 146 268Q41 159 41 81Q41 64 45 52Q63 -4 137 -4Z" />
<glyph unicode="9" glyph-name="nine" horiz-adv-x="440" d="M193 -153Q151 -153 140 -100Q138 -89 137 -77T135 -51Q135 64 222 227Q259 297 302 360T394 479Q195 316 78 316Q20 316 13 365Q12 370 12 374T12 384Q12 495 197 569Q351 630 486 626Q492 626 492
619Q492 609 486 599T472 588Q464 589 455 589T438 589Q309 589 187 530Q52 466 52 387Q52 338 95 338Q151 338 273 421Q377 492 462 574Q465 577 477 577Q520 577 520 557Q520 551 514 545Q374 396 317 318Q171 118 171 -39Q171 -73 177 -103T200 -140Q208 -143
208 -146Q208 -153 193 -153Z" />
<glyph unicode=":" glyph-name="colon" horiz-adv-x="242" d="M192 192Q177 190 159 195T140 210Q140 216 144 222T154 236Q171 257 174 262T186 268Q205 268 221 246Q222 245 222 242Q222 235 211 216Q198 192 192 192ZM147 27Q132 25 114 30T95 45Q95 51 99
57T109 71Q126 92 129 97T141 103Q160 103 176 81Q177 80 177 77Q177 70 166 51Q153 27 147 27Z" />
<glyph unicode=";" glyph-name="semicolon" horiz-adv-x="242" d="M65 -162L75 -145Q87 -130 95 -119T107 -101Q127 -72 127 -53Q127 -36 109 -26Q91 -16 90 -11V-4Q90 8 95 14Q97 18 103 22T119 33Q122 36 129 36Q144 36 158 28T176 9V-1Q176 -16 168 -38T141
-88Q100 -155 65 -162ZM192 115Q177 113 159 118T140 133Q140 139 144 145T154 159Q171 180 174 185T186 191Q205 191 221 169Q222 168 222 165Q222 158 211 139Q198 115 192 115Z" />
<glyph unicode="&lt;" glyph-name="less" horiz-adv-x="339" d="M286 92L275 95Q235 128 189 151T96 200Q91 203 91 205Q91 210 103 226T135 265T175 309T213 349T237 372Q246 381 262 381Q271 381 272 376Q272 373 261 359T234 326T201 287T170 252T151 230Q160
223 183 205T233 166T279 128T299 104Q299 98 297 95T286 92Z" />
<glyph unicode="=" glyph-name="equal" horiz-adv-x="340" d="M78 261Q69 261 63 261T55 262H53Q50 262 50 268Q50 276 58 292T73 308H75Q86 301 111 299T164 296Q204 296 241 299T289 304Q290 304 290 302Q290 298 287 291T281 282Q273 277 248 273T191 267T129
263T78 261ZM78 131Q69 131 63 131T55 132H53Q50 132 50 138Q50 146 58 162T73 178H75Q86 171 111 169T164 167Q204 167 241 170T289 174Q290 174 290 174T290 173Q290 169 287 162T281 152Q273 148 248 144T191 137T129 133T78 131Z" />
<glyph unicode="&gt;" glyph-name="greater" horiz-adv-x="336" d="M126 71Q117 71 116 76Q116 79 126 93T153 126T187 165T218 200T237 222Q228 229 205 247T155 286T109 324T89 348Q89 354 91 357T102 360L112 357Q153 324 199 301T292 252Q297 250 297 247Q297
242 285 226T253 187T213 143T175 103T151 80Q142 71 126 71Z" />
<glyph unicode="?" glyph-name="question" horiz-adv-x="549" d="M265 162Q253 162 223 170Q160 187 160 220Q160 240 184 262Q204 281 233 293Q345 340 379 362Q434 396 434 438Q434 442 434 445T433 452Q427 482 370 517Q309 554 243 554Q202 554 167 536Q139
521 139 498Q139 482 153 459Q165 442 163 442Q161 442 160 443Q109 466 109 504Q109 531 146 553Q195 582 257 582Q329 582 390 546Q453 511 475 453Q480 440 480 429Q480 367 316 290Q208 239 208 208Q208 187 251 180Q274 175 274 166Q274 162 265 162ZM209
7Q194 5 176 10T157 25Q157 31 161 37T171 51Q188 72 191 77T203 83Q222 83 238 61Q239 60 239 57Q239 50 228 31Q215 7 209 7Z" />
<glyph unicode="@" glyph-name="at" horiz-adv-x="682" d="M347 -69Q252 -69 184 -13Q110 49 110 149Q110 160 111 172T114 196Q131 291 226 382Q333 484 451 484Q555 484 616 432Q678 381 678 303Q678 223 614 146Q578 103 531 78T444 52Q392 52 392 96Q392 118
405 151L417 181Q410 167 376 127Q326 65 295 72Q243 84 243 130Q243 169 279 224Q301 258 346 291Q403 333 456 333Q488 333 517 316Q527 310 527 301Q527 295 524 295Q526 295 510 305T474 316Q439 316 398 290T325 218Q279 156 279 114Q279 92 295 86Q315 77
382 161Q436 229 457 266Q461 276 475 276Q501 276 501 261Q501 258 500 257Q426 138 426 92Q426 65 450 65Q478 65 521 95Q565 125 590 158Q639 225 639 298Q639 371 590 417Q537 467 447 467Q333 467 246 367Q179 291 158 202Q152 177 152 152Q152 66 212 6Q274
-54 351 -54Q459 -54 553 6Q643 64 663 138Q666 149 685 149Q693 149 690 142Q611 -69 347 -69Z" />
<glyph unicode="A" glyph-name="A" horiz-adv-x="1057" d="M229 -119Q171 -119 125 -98T49 -41Q4 15 4 98Q4 157 26 205Q70 307 172 380Q273 452 369 452Q429 452 470 422T511 336Q511 297 491 261T439 212Q437 212 435 213T434 216Q451 240 465 266T479 325Q479
356 461 379T414 416T355 430Q314 430 273 411T191 361Q103 292 71 184Q56 136 56 91Q56 5 115 -48Q139 -69 166 -80T224 -92Q325 -92 444 -19T698 204L607 202Q564 203 564 220Q564 240 606 262Q623 268 629 268Q638 268 640 254Q642 241 649 239Q666 238 685
238T726 237Q820 352 896 429T1039 553T1168 623Q1177 627 1190 627Q1224 627 1224 606Q1224 597 1214 587Q1080 445 1018 248Q1033 249 1046 250T1072 253Q1077 254 1080 254T1088 254Q1106 254 1106 249Q1106 233 1012 226Q987 144 987 73Q987 7 1007 -4Q1009
-5 1011 -5T1015 -6Q1024 -6 1033 3T1043 13Q1045 11 1045 6Q1045 -14 1033 -32T1003 -50Q992 -50 981 -41Q950 -16 950 54Q950 62 950 70T951 87Q953 116 958 150T973 224L731 207Q591 46 466 -36T229 -119ZM758 237Q796 238 851 240T978 245Q1025 407 1074 497Q1082
513 1091 528T1111 557Q1086 549 1055 530T996 488T950 450Q898 403 852 349T758 237Z" />
<glyph unicode="B" glyph-name="B" horiz-adv-x="901" d="M137 -58Q48 -58 48 65Q48 129 73 200Q96 268 126 298Q145 317 157 317Q170 317 177 293T190 242Q222 127 292 59Q380 141 478 283L436 288Q410 294 410 308Q410 325 434 322Q445 320 461 319T500 317Q525
354 542 383T570 434Q589 477 626 513Q659 543 679 543Q690 543 690 531Q690 511 661 467Q638 430 611 393T555 316Q609 319 663 330T763 361T838 414T872 492Q874 521 859 547T815 595Q750 647 635 657Q607 660 576 660Q421 660 292 597Q164 535 164 466Q164 428
214 399Q234 391 234 387Q234 382 218 382Q189 382 171 389Q94 427 94 480Q94 555 225 617Q364 682 548 682Q582 682 630 679T729 665T824 635T897 580T925 494Q925 453 902 422T840 367T755 329T662 305T577 294Q627 291 683 286T788 270T869 236T901 176Q901
136 882 98T819 25Q718 -58 551 -58Q516 -58 479 -54T401 -42Q337 -28 280 22Q189 -58 137 -58ZM541 -30Q671 -30 762 39Q840 99 840 159Q840 193 813 216T744 252T658 271T577 278T527 278Q492 232 437 174T306 46Q355 1 416 -14Q479 -30 541 -30ZM143 -27Q193
-27 266 36Q184 109 152 193Q146 208 139 208Q127 208 110 167Q97 133 89 91Q86 75 86 58Q86 -27 143 -27Z" />
<glyph unicode="C" glyph-name="C" horiz-adv-x="737" d="M277 -105Q177 -105 118 -40Q64 20 64 112Q64 180 95 248Q151 370 256 469T519 630Q594 660 663 660Q731 660 773 632T815 555Q815 531 808 505T777 449Q722 376 648 330Q610 308 578 300T516 292Q445
292 434 360V364Q434 377 449 377Q463 377 464 364Q472 313 520 313Q567 313 628 355Q660 376 686 401T734 456Q781 521 781 565Q781 636 680 636Q611 636 536 602Q460 568 395 524T276 423Q194 338 153 245Q123 178 123 111Q123 34 163 -12Q210 -65 299 -65Q318
-65 339 -63T383 -55Q478 -34 609 48Q711 111 758 155Q790 185 801 185Q803 185 803 183Q803 176 790 164Q741 121 704 90T643 42Q585 0 529 -29T417 -78Q341 -105 277 -105Z" />
<glyph unicode="D" glyph-name="D" horiz-adv-x="817" d="M194 -93Q179 -93 162 -83Q151 -76 145 -73T137 -69Q101 -52 101 -6Q101 32 127 90Q209 267 345 447Q363 469 371 490Q376 503 386 510Q398 521 434 535Q470 549 489 549Q509 549 507 535Q506 531 482
514Q466 502 450 488T418 457Q372 411 298 298Q257 235 221 167T155 25Q143 -3 143 -24Q143 -58 175 -69Q372 -77 576 44Q775 162 849 322Q870 367 870 412Q870 505 785 569Q699 634 552 646Q524 648 496 649T441 651Q224 651 91 580Q-24 519 -24 437Q-24 359 82
328Q111 323 111 319Q111 313 86 309Q79 308 73 308T60 307Q55 307 50 307T40 308Q-93 341 -93 426Q-93 517 46 590Q201 671 435 671Q495 671 558 665Q729 648 828 579Q928 510 928 408Q928 362 907 314Q840 160 630 38Q416 -86 194 -93Z" />
<glyph unicode="E" glyph-name="E" horiz-adv-x="836" d="M380 -124Q297 -124 234 -110T118 -61Q63 -24 35 28T6 141Q6 163 10 186T22 233Q-54 243 -54 282Q-54 292 -48 300T-34 309Q-30 309 -26 306Q-10 295 46 287Q77 345 130 395T257 490Q372 559 523 601Q643
635 710 635Q814 635 858 616T902 546Q902 518 879 518Q853 518 858 553Q863 588 815 603Q785 613 735 613Q605 613 419 532Q189 431 110 282Q126 281 142 281T174 281Q191 281 208 281T242 282Q331 285 497 309Q652 330 704 330Q797 330 797 282Q797 252 775 252Q763
252 763 275Q763 312 707 312Q688 312 638 304T506 278Q422 260 355 250T237 238Q213 237 176 235T87 230Q71 192 71 147Q71 103 88 59T146 -20Q242 -98 387 -98Q472 -98 549 -81T697 -35Q824 16 879 94Q899 121 909 121Q914 121 914 114Q914 104 905 87Q869 21
740 -42Q660 -82 568 -103T380 -124Z" />
<glyph unicode="F" glyph-name="F" horiz-adv-x="756" d="M239 -57Q128 -57 70 4Q26 51 26 115Q26 137 32 153Q58 215 146 245Q199 263 236 263Q241 263 246 263T256 261Q271 260 271 254Q271 244 240 243Q174 238 132 211Q80 177 80 117Q80 63 121 20Q171 -31
263 -31Q293 -31 327 -25Q510 5 657 264L375 242Q363 241 350 250T336 269Q336 290 393 300Q400 301 405 301T414 302Q423 302 423 298V294Q423 289 435 289Q527 292 562 292Q572 292 600 293T674 296Q732 408 758 510Q726 524 674 544T548 593Q364 659 230 659Q102
659 67 591Q64 584 64 577Q64 560 88 540L112 521Q112 520 107 518Q105 518 103 518T97 517Q71 517 49 537Q22 561 22 592Q22 642 72 674Q122 706 188 706Q315 706 490 646Q516 637 584 610T764 537Q772 572 772 593Q772 621 760 625Q758 627 758 628Q758 643 788
643Q829 643 829 598Q829 565 816 517Q917 477 969 477Q985 477 995 480Q1011 484 1018 494T1026 504Q1031 504 1031 498Q1031 483 1010 467T958 451Q910 451 808 491Q792 442 771 394T724 298Q733 298 741 298T758 299Q847 299 878 277Q890 270 890 266Q890 264
886 264Q886 264 873 266T831 272Q817 274 804 275T780 277Q773 277 767 277T756 275Q732 270 707 269Q541 -11 323 -49Q301 -53 280 -55T239 -57Z" />
<glyph unicode="G" glyph-name="G" horiz-adv-x="811" d="M300 -444Q244 -444 244 -379Q244 -290 355 -154Q504 31 646 101Q651 120 659 151T679 228Q700 315 703 336Q700 324 646 246Q609 194 572 151T495 76Q385 -16 278 -16Q267 -16 256 -15T234 -12Q179 -2
142 47T105 169Q105 295 203 408Q175 452 167 507V512Q167 531 179 531Q189 531 191 511Q197 465 220 428Q359 576 612 632Q638 637 661 640T706 643Q840 643 840 548Q840 484 767 424Q769 422 773 419T777 412L696 117Q716 123 732 123Q766 123 781 96Q787 86
787 77Q787 70 783 70Q776 70 767 85Q755 108 727 108Q712 108 690 100Q569 -255 394 -406Q372 -425 346 -434T300 -444ZM441 334Q571 334 684 393Q696 419 699 432Q702 446 724 446Q740 446 753 439Q807 487 807 539Q807 622 695 622Q676 622 656 619T612 611Q509
587 411 521Q323 462 261 385Q329 334 441 334ZM273 5Q300 5 328 12Q412 31 521 154Q565 204 602 256T669 363Q552 308 430 308Q313 308 245 363Q233 347 223 331T204 297Q160 206 160 130Q160 5 273 5ZM324 -420Q345 -420 374 -391Q549 -208 640 81Q516 9 391
-158Q294 -288 294 -373Q294 -420 324 -420Z" />
<glyph unicode="H" glyph-name="H" horiz-adv-x="871" d="M733 -118Q725 -118 716 -115Q690 -107 690 -69Q690 -45 708 31Q719 76 744 147Q769 215 772 218Q768 221 682 221H615Q461 220 450 212Q445 208 439 198T424 170L391 105Q381 85 371 62T353 10Q349 -17
317 -17Q297 -17 297 -4Q297 38 391 201Q340 193 348 187Q350 185 350 184Q350 182 348 182Q344 182 331 189Q313 200 313 211Q313 223 344 230Q361 232 378 234T413 241Q460 321 486 367T520 426Q580 542 580 594Q580 624 562 636Q532 657 492 657Q427 657 272
594Q191 562 112 484Q29 401 29 342Q29 311 56 291Q93 265 133 265Q144 265 158 267T174 269Q179 269 179 266Q179 263 176 258Q170 246 121 246Q74 246 46 262Q-9 293 -9 355Q-9 388 11 419Q96 542 285 625Q422 686 540 686Q636 686 643 625Q645 611 628 568T572
453L455 237H478Q494 237 504 238T522 239H574Q657 239 780 236Q784 246 802 286T854 399Q898 493 969 564Q1048 643 1112 643Q1131 643 1149 635Q1154 633 1158 632T1167 628Q1182 622 1183 613Q1186 593 1178 575T1162 556Q1158 556 1158 562Q1158 568 1160 582T1163
601Q1163 610 1159 614Q1143 630 1120 630Q1077 630 1021 575T914 425Q874 351 853 305T828 238Q839 239 848 239T865 239Q916 239 934 232Q938 231 938 229Q938 218 904 217Q883 216 862 216T821 216Q808 184 795 147T770 68Q745 -22 745 -67Q745 -77 749 -88T753
-104Q753 -118 733 -118Z" />
<glyph unicode="I" glyph-name="I" horiz-adv-x="522" d="M197 -47Q150 -47 111 -30T50 19T27 91Q27 113 35 137Q46 169 69 192T124 230Q163 248 201 248Q227 248 227 240Q227 233 210 231Q146 223 113 186T79 93Q79 38 114 3T206 -32Q271 -32 329 6T436 109T519
253T572 414Q583 468 589 513T595 593Q595 624 589 625Q579 628 551 612Q532 602 511 586T465 548Q443 529 423 498Q398 461 398 433Q398 409 419 395Q442 379 463 379Q472 379 484 383T505 388Q514 388 514 384Q514 378 485 370Q458 363 428 363Q398 363 376 378T354
422Q354 475 423 536Q541 642 616 642Q643 642 651 634T659 602Q659 549 629 438Q603 343 561 256T463 100T340 -7T197 -47Z" />
<glyph unicode="J" glyph-name="J" horiz-adv-x="483" d="M33 -142Q5 -142 -19 -127T-57 -87T-72 -33Q-72 10 -43 50T44 115Q55 119 62 119Q70 119 70 113Q70 108 65 105Q40 88 20 62T-12 6T-24 -50Q-24 -79 -6 -99T54 -119Q113 -119 163 -85T256 6T335 136T402
287T459 438Q481 499 488 529T493 559Q486 559 463 555T398 543Q321 529 317 532Q306 537 306 547Q306 557 315 566T334 575Q338 575 340 574L341 573Q341 571 338 568T335 563Q337 561 339 561Q343 561 353 564Q364 568 383 571T431 578Q466 583 485 585T506 588L514
605Q523 623 531 623Q543 623 573 593Q719 593 738 584Q750 578 752 569Q752 561 743 555Q735 550 734 556Q731 574 692 574Q683 574 665 573T640 572Q616 572 556 561Q542 525 524 472T486 363T446 258Q411 174 370 102T278 -26T168 -111T33 -142Z" />
<glyph unicode="K" glyph-name="K" horiz-adv-x="797" d="M296 -35Q259 -35 262 -23Q266 -7 279 21T315 91Q335 128 356 162T400 229Q464 322 500 375T544 441Q623 562 623 601Q623 614 614 618Q587 630 552 630Q474 630 318 563Q269 542 227 515T149 456Q70 383
70 322Q70 297 83 277T143 251Q181 246 177 239Q167 220 125 220Q89 220 54 244Q26 263 26 305Q26 363 68 417Q102 460 171 507Q251 563 336 591Q501 647 571 647Q654 647 675 594Q684 571 555 380Q472 257 416 166T328 13V11Q328 6 335 -2T342 -15Q340 -35 296
-35ZM909 -137Q896 -137 882 -129Q825 -95 683 69Q533 245 533 303Q533 314 537 318Q548 331 583 355T677 416Q726 447 775 475T873 530Q1010 604 1096 607H1100Q1123 607 1123 594Q1123 584 1107 583Q918 554 587 316Q584 315 584 309Q584 284 639 204Q667 164
697 125T762 47Q884 -88 939 -88Q951 -88 963 -81T977 -74H981Q990 -74 990 -80Q990 -95 960 -112Q947 -120 934 -128T909 -137Z" />
<glyph unicode="L" glyph-name="L" horiz-adv-x="693" d="M542 -114Q497 -114 450 -103Q358 -80 271 8Q197 -60 148 -60Q93 -60 65 -11Q41 33 41 103Q41 133 45 163T57 222Q74 281 98 307Q116 327 126 327Q136 327 143 302L158 250Q201 139 280 46Q342 108 406
202Q370 241 370 302Q370 342 387 387Q392 399 397 399Q405 399 405 391Q405 388 404 384T401 374Q388 341 388 308Q388 256 421 226Q467 297 497 352T540 447Q557 494 586 529Q613 561 629 561Q638 561 638 548Q638 527 613 481Q547 360 442 211Q466 200 490 200Q545
200 606 244Q674 292 734 387Q788 473 788 563Q788 655 735 655Q707 655 671 622Q664 615 657 615Q648 615 648 624Q648 631 655 637Q699 675 739 675Q779 675 804 639T829 546Q829 462 777 380Q707 269 630 214Q560 164 497 164Q455 164 424 186Q385 134 353 95T294
30Q399 -89 522 -89Q582 -89 640 -69Q697 -50 711 -21Q728 12 749 12Q765 12 765 -5Q765 -11 762 -19Q749 -56 688 -84Q624 -114 542 -114ZM151 -28Q197 -28 256 24Q184 102 136 199Q129 214 121 214Q107 214 95 173Q90 154 87 135T81 94Q80 90 80 86T80 76Q80
42 93 15Q112 -28 151 -28Z" />
<glyph unicode="M" glyph-name="M" horiz-adv-x="1067" d="M1003 -163Q939 -163 930 -77Q927 -48 927 -19Q927 45 945 117T994 265T1063 418T1142 568Q1149 579 1149 587Q1149 594 1144 594Q1125 594 1051 529Q1011 494 976 455T913 380Q875 331 849 297T808 240Q790
213 765 170T705 67Q704 66 678 5Q661 -36 650 -36Q633 -34 620 -23T608 3Q613 46 635 114T697 276Q772 456 772 474Q772 487 752 487Q679 487 511 288Q344 89 329 -2Q327 -16 313 -25T284 -34Q268 -34 268 -23Q268 40 366 244Q439 394 452 425Q472 474 484 514T496
580Q496 609 482 617T436 625Q337 625 204 563Q164 544 129 519T63 462Q-3 393 -3 337Q-3 318 2 303T22 275Q34 265 57 260T109 254Q153 254 199 266Q201 267 205 267Q209 267 209 264Q209 256 193 248T153 233T101 227Q50 227 5 244Q-47 263 -47 322Q-47 367 -18
417Q8 461 69 509Q104 536 153 562T258 610T368 643T468 656Q554 656 554 592Q554 560 529 495T460 338Q429 273 400 210T339 81Q340 79 443 233Q469 271 505 314T591 405Q680 491 727 517Q754 532 781 532Q822 532 822 490Q822 475 818 460Q793 399 759 311T681
105Q679 99 679 97Q679 96 680 96Q685 96 758 211Q799 277 828 320T875 384Q1014 556 1102 621Q1138 648 1191 648Q1236 648 1236 620Q1236 599 1210 567Q1115 447 1041 243Q1007 148 988 80T968 -47Q968 -99 978 -117T1009 -135Q1023 -135 1039 -131T1076 -119Q1080
-118 1082 -118T1087 -117Q1092 -117 1092 -120Q1092 -130 1063 -145Q1032 -163 1003 -163Z" />
<glyph unicode="N" glyph-name="N" horiz-adv-x="857" d="M808 -144Q796 -144 789 -140Q748 -119 748 -52Q748 36 809 210Q835 281 860 353T912 497Q913 501 913 504T914 510Q914 531 893 531Q870 531 827 509Q732 462 621 344Q484 199 378 -2Q380 -7 390 -11T395
-20Q395 -33 353 -33Q316 -33 316 -22Q316 7 338 68T407 224L502 414Q531 470 543 511T556 576Q556 629 468 629Q391 629 251 563Q172 525 114 461Q50 393 50 335Q50 298 79 274T154 249Q171 249 187 252L201 254Q140 231 116 231Q86 231 59 241Q7 260 7 320Q7
366 35 413Q59 455 125 508Q194 565 275 601Q376 647 471 647Q566 647 602 588Q604 582 604 576Q604 553 582 495T514 341L388 81Q390 78 490 231Q542 310 679 428Q811 542 862 556Q875 560 892 560Q928 560 953 540T979 497Q979 489 975 484Q900 370 849 202Q826
126 815 63T803 -51Q803 -127 834 -123Q844 -119 859 -115T895 -103Q898 -102 903 -102Q918 -102 877 -123Q837 -144 808 -144Z" />
<glyph unicode="O" glyph-name="O" horiz-adv-x="933" d="M328 -70Q276 -70 235 -61Q144 -41 90 25Q34 93 34 186Q34 255 65 326T155 461Q119 494 119 540Q119 608 192 657Q271 709 402 709Q456 709 508 704T609 689Q637 693 661 695T705 697Q780 697 806 671Q827
649 827 640Q827 636 823 636Q815 636 801 645Q774 664 717 659Q842 612 905 525Q960 449 960 356Q960 248 895 165Q810 58 634 -10Q477 -70 328 -70ZM184 491Q255 559 343 605T537 676Q514 678 492 679T446 681Q436 681 426 681T405 680Q171 671 171 546Q171 518
184 491ZM317 -40Q449 -40 606 25Q763 91 827 176Q907 283 907 385Q907 484 833 558Q757 633 619 663Q564 661 510 648T403 611Q284 559 200 463Q207 453 216 441T227 427Q227 425 226 424Q214 427 204 431T183 441Q77 310 77 174Q77 69 147 12Q211 -40 317 -40Z"
/>
<glyph unicode="P" glyph-name="P" horiz-adv-x="715" d="M138 -91Q99 -86 75 -55T51 22Q51 94 107 168Q116 180 123 180Q127 180 127 175Q127 168 119 157Q77 99 77 28Q77 -12 93 -37T139 -62Q251 -61 404 249Q402 250 399 250T390 251Q370 253 370 265Q370 277
414 274Q434 315 455 363T499 465Q522 519 533 546T545 573Q549 583 564 583Q576 583 587 575T599 557Q599 556 597 550Q581 513 546 443T458 270Q584 264 692 318Q790 365 820 429Q838 467 838 499Q838 564 770 605Q718 638 640 647Q588 653 536 653Q347 653 205
577Q76 510 76 440Q76 432 80 421T84 404Q84 400 81 400Q77 400 66 408Q40 428 40 457Q40 532 161 596Q304 671 536 671Q562 671 588 670T641 667Q722 661 799 619Q896 565 896 484Q896 453 883 423Q857 360 740 310Q676 282 603 268T447 251Q251 -104 138 -91Z"
/>
<glyph unicode="Q" glyph-name="Q" horiz-adv-x="944" d="M399 -63Q368 -63 336 -60Q255 -52 209 1T162 138Q162 217 204 302Q241 380 343 464Q457 558 586 601H538Q521 600 506 600T479 600Q342 600 213 522Q84 444 84 365Q84 327 119 300Q124 295 124 292Q124
284 108 284Q87 284 67 297Q26 323 26 366Q26 452 152 530Q288 616 482 616Q535 616 572 616T630 614Q696 632 762 632Q836 632 854 599Q855 598 855 595Q855 593 852 593Q849 593 817 600Q775 609 737 609Q727 609 718 609T701 607Q771 597 832 564Q970 491 970
358Q970 217 827 98Q633 -63 399 -63ZM380 -46Q487 -46 604 1Q654 21 698 48T781 107Q912 215 912 345Q912 414 875 475Q842 528 802 547Q711 590 644 598Q512 568 397 460Q313 382 265 295Q219 213 219 127Q219 55 253 7T347 -45Q355 -46 363 -46T380 -46ZM787
-236Q748 -236 672 -218T483 -160Q383 -125 310 -108T191 -89Q163 -89 150 -111Q138 -134 131 -134Q129 -134 123 -132Q101 -123 101 -96Q101 -54 144 -51Q149 -50 154 -50T164 -50Q254 -50 413 -105Q635 -181 702 -191Q717 -193 731 -194T760 -196Q815 -196 854
-177Q868 -170 880 -162T903 -142Q910 -134 914 -130T919 -124Q919 -127 918 -130L914 -166Q906 -198 881 -216Q847 -236 787 -236Z" />
<glyph unicode="R" glyph-name="R" horiz-adv-x="722" d="M639 -98Q617 -98 591 -89Q494 -55 380 57Q347 89 306 146Q246 34 234 -9Q228 -29 210 -29Q189 -29 193 -7Q195 8 219 53T287 175Q265 208 252 237Q234 273 234 284Q234 293 248 305T273 317Q275 317 277
315Q291 285 334 258Q410 393 429 477Q428 478 426 478L412 470Q402 464 397 464Q393 464 393 468Q404 488 423 510L448 539Q456 547 464 553T482 563Q488 565 491 565Q505 565 505 545Q505 526 491 490Q460 411 361 242Q412 217 447 216Q455 215 462 215T476 215Q584
215 675 264Q763 310 791 371Q805 402 805 432Q805 505 734 556Q660 611 534 617Q517 618 500 618T466 619Q265 619 148 561Q49 512 49 454Q49 440 56 430Q61 418 82 414Q89 412 96 412T108 411H118Q129 411 129 407Q129 397 109 397Q13 397 -7 421Q-16 432 -16
447Q-16 513 106 569Q251 634 496 634H538Q680 631 771 573Q863 514 863 434Q863 401 846 367Q805 289 703 242Q606 197 491 197Q417 197 349 222Q338 201 330 190Q359 147 385 115T433 63Q581 -74 654 -74Q669 -74 693 -68Q708 -64 722 -51T740 -37Q752 -37 752
-51Q752 -62 708 -79Q701 -82 695 -85T681 -90Q659 -98 639 -98ZM312 219Q314 223 317 227T322 235L300 246Q303 236 312 219Z" />
<glyph unicode="S" glyph-name="S" horiz-adv-x="665" d="M209 -80Q108 -80 69 -34Q48 -10 48 20Q48 92 156 177Q191 205 223 205Q231 205 231 202Q231 195 206 185Q163 167 132 119Q100 70 100 26Q100 -55 228 -55Q307 -55 368 -31Q502 21 582 104Q652 175 652
240Q652 319 556 319Q404 319 330 357Q269 388 269 439Q269 527 402 585Q510 634 608 634Q688 634 734 601Q746 594 746 581Q746 562 722 542Q699 522 688 524Q686 524 695 537Q708 553 708 566Q708 578 699 587Q672 616 600 616Q520 616 436 581Q348 543 329 492Q319
466 319 445Q319 356 568 356Q718 356 718 266Q718 190 621 93Q522 -4 407 -44Q304 -80 209 -80Z" />
<glyph unicode="T" glyph-name="T" horiz-adv-x="756" d="M301 230Q193 242 133 277Q80 310 80 356Q80 441 230 517Q312 558 413 582T635 614Q673 616 710 617T785 618Q880 618 957 612T1096 592Q1227 563 1227 512Q1227 499 1218 484Q1203 461 1193 461Q1190
461 1190 464Q1190 468 1198 486Q1202 493 1202 499Q1202 543 1038 566Q977 574 901 578T734 582Q708 582 684 582T637 580Q433 572 280 495Q133 422 133 343Q133 261 311 242Q324 241 324 236Q324 227 301 230ZM337 -76Q296 -76 275 -43Q267 -30 267 -22Q267 -14
274 -14Q280 -14 303 -37Q327 -61 351 -61Q393 -61 446 10Q495 76 585 254Q635 354 665 408T703 473Q717 488 731 488Q743 488 773 474Q778 471 778 467Q778 461 771 456T759 452Q738 455 623 233Q588 165 555 110T492 14Q467 -21 421 -49Q376 -76 337 -76Z" />
<glyph unicode="U" glyph-name="U" horiz-adv-x="897" d="M845 -84Q826 -84 802 -55Q791 -41 791 -12Q791 83 888 287Q821 165 737 86Q628 -16 515 -16Q504 -16 492 -15T469 -12Q407 0 407 81Q407 123 419 165T456 248L563 421Q595 473 610 510T625 569Q625 597
601 604Q553 619 508 619Q424 619 300 569Q219 536 151 471Q80 402 80 346Q80 314 110 291Q134 273 191 273Q202 273 232 276T311 286L276 276Q235 264 204 259T149 253Q115 253 86 262Q37 278 37 334Q37 379 65 419Q124 503 284 581Q407 640 542 640Q660 640 673
580Q679 554 611 432Q575 368 553 328T517 265T497 229T486 207T477 183Q454 120 454 79Q454 7 522 7Q530 7 540 8T561 12Q714 47 827 215Q910 338 926 431Q927 444 954 444Q972 444 988 438T1004 420Q1004 419 1002 413Q962 349 930 285T873 157Q829 42 829 -20Q829
-42 836 -52Q849 -71 849 -80Q849 -84 845 -84Z" />
<glyph unicode="V" glyph-name="V" horiz-adv-x="759" d="M372 -97Q357 -97 343 -89T329 -71Q329 -45 386 183L449 436Q459 473 459 506Q459 619 339 619Q319 619 296 616Q172 598 105 510Q47 436 47 335Q47 209 130 209Q196 209 294 294Q300 298 303 298Q310
298 310 291Q310 285 303 279Q188 179 105 179Q52 179 21 219Q-12 263 -12 337Q-12 446 72 533Q167 631 314 643Q321 644 327 644T340 644Q425 644 468 595Q505 554 505 485Q505 470 504 455T498 425L446 226Q403 57 383 -50L409 -25Q438 4 504 76T672 264Q751
352 809 411T908 502Q1008 581 1048 581Q1073 581 1079 537V534Q1075 549 1054 549Q1027 549 978 521Q938 499 869 431T699 250Q571 105 494 20T388 -92Q383 -97 372 -97Z" />
<glyph unicode="W" glyph-name="W" horiz-adv-x="1076" d="M241 -93Q228 -93 216 -86T202 -70Q205 -9 345 264Q484 530 484 595Q484 661 403 661Q284 661 114 551Q-62 438 -62 348Q-62 306 -15 280Q8 267 46 267Q77 267 120 276Q142 281 153 283T165 286Q168 286
168 285Q168 282 156 273Q125 248 49 248Q6 248 -32 260Q-97 283 -97 344Q-97 384 -67 435Q-23 510 131 597Q292 688 406 688Q531 688 531 565Q531 497 480 393Q470 374 440 321T360 181Q320 113 293 58T251 -40L280 -9Q293 5 351 70T512 252Q637 394 712 447Q729
459 767 459Q811 459 800 442Q760 378 728 283Q693 176 693 105Q693 19 744 4Q768 -3 796 -3Q925 -3 1040 142Q1150 279 1150 410Q1150 508 1077 539Q1068 544 1060 545T1043 547Q1034 547 1030 546Q1022 544 1022 550Q1022 561 1039 574T1079 588Q1093 588 1102
584Q1197 552 1197 439Q1197 391 1183 340T1139 235Q1081 127 991 55Q892 -23 791 -23Q775 -23 760 -21T728 -15Q642 8 642 122Q642 230 718 392Q723 404 723 408Q723 416 718 416Q715 416 710 413Q641 374 499 200Q309 -34 256 -88Q251 -93 241 -93Z" />
<glyph unicode="X" glyph-name="X" horiz-adv-x="777" d="M-78 -173Q-90 -173 -90 -161Q-90 -147 -77 -130Q-3 -30 120 78T416 303Q395 544 325 556Q309 559 293 559Q175 559 68 457Q61 451 49 451Q43 451 43 455Q43 458 48 465Q61 487 139 530Q237 586 312 586Q365
586 402 558Q438 530 458 330L682 476Q794 549 842 594Q890 639 916 639Q923 639 923 633Q923 619 892 591Q858 559 725 478Q627 417 561 376T459 311Q473 155 474 154Q483 73 495 43Q521 -20 568 -20Q606 -20 653 21Q695 59 724 111Q747 153 756 153Q757 152 757
149Q757 139 742 101Q720 46 653 -1Q586 -48 528 -48Q464 -48 443 13Q435 37 429 118Q427 159 424 200T418 283Q97 65 -27 -130Q-54 -173 -78 -173Z" />
<glyph unicode="Y" glyph-name="Y" horiz-adv-x="728" d="M65 -388Q-9 -388 -53 -356T-98 -260Q-98 -192 -41 -143Q-33 -137 -30 -137Q-24 -137 -24 -143Q-24 -154 -35 -163Q-73 -196 -73 -244Q-73 -296 -35 -328T59 -360Q166 -360 297 -244Q442 -115 595 144Q673
276 740 375T865 542Q918 604 974 647T1074 700Q1076 701 1079 701T1084 701Q1108 701 1108 685Q1108 669 1078 656Q1003 625 892 488T622 103Q534 -34 456 -131T308 -287Q186 -388 65 -388ZM420 -30Q413 -30 406 -27T400 -19Q413 39 423 96T433 212Q433 348 393
450Q336 595 222 595Q181 595 147 570T91 505T70 419Q70 381 84 347T126 281Q181 220 245 220Q254 220 268 224T289 228Q297 228 297 221Q297 210 280 204Q255 195 225 195Q150 195 91 251Q27 312 27 402Q27 438 40 476T77 547T137 600T219 621Q353 621 425 457Q480
334 480 182Q480 134 475 87T460 -6Q458 -16 445 -23T420 -30Z" />
<glyph unicode="Z" glyph-name="Z" horiz-adv-x="597" d="M644 -123Q583 -123 480 -88T221 21Q180 -7 140 -19T67 -32Q33 -32 10 -18Q-17 0 -17 32Q-17 55 -4 75T27 100Q47 105 56 105Q104 105 216 45L483 352Q521 396 563 436T654 514L528 546Q497 554 464 559T396
564Q359 564 323 558T254 535Q228 522 211 497T194 446Q194 426 206 410T248 386Q247 385 248 381T247 377Q224 377 204 388T173 413Q156 436 156 459Q156 494 176 518T227 558T293 580T356 587Q389 587 429 582T517 565Q520 565 670 525Q747 581 790 581Q810 581
827 571T845 541Q845 520 829 507T777 494Q743 494 686 506Q657 481 616 430T514 306Q368 130 242 32Q274 18 299 8T353 -14Q418 -40 466 -56T544 -79Q570 -84 594 -87T640 -90Q719 -90 780 -54Q795 -46 814 -12Q833 19 837 19Q842 19 842 -2Q842 -24 835 -43T808
-78Q757 -123 644 -123ZM767 508Q809 508 809 531Q809 554 780 554Q742 554 700 518Q721 513 738 511T767 508ZM91 -6Q148 -6 197 33L171 48Q143 65 118 71T73 77Q23 77 23 36Q23 19 39 8T75 -5Q79 -5 83 -5T91 -6Z" />
<glyph unicode="[" glyph-name="bracketleft" horiz-adv-x="351" d="M161 -74Q154 -74 138 -74T103 -71T72 -61T56 -41Q53 -20 53 6Q53 56 61 121T82 255T113 386T151 492T190 551Q199 558 222 560T258 562Q263 562 278 562T309 559T325 551L327 542Q323 541 321
541T317 541Q305 541 294 542T271 544Q263 544 253 544T237 539Q222 519 204 476T169 375T138 256T116 137T107 36Q107 -13 118 -33T150 -54Q162 -54 173 -52T195 -50Q199 -50 206 -51T214 -60Q214 -67 202 -70T178 -73T161 -74Z" />
<glyph unicode="\" glyph-name="backslash" horiz-adv-x="400" d="M366 -76Q357 -76 357 -66Q357 -63 357 -60T358 -53Q358 -30 341 15T295 119T233 238T167 356T110 454T73 514Q71 518 71 519Q71 527 76 538T87 557T96 566Q97 566 97 566T98 565Q144 497 186
424T265 279T327 144T369 32T384 -45Q384 -52 379 -64T366 -76Z" />
<glyph unicode="]" glyph-name="bracketright" horiz-adv-x="334" d="M106 -76Q101 -76 86 -76T56 -72T40 -64L38 -55Q42 -54 48 -54Q59 -54 70 -55T94 -57Q102 -57 112 -57T128 -52Q143 -32 160 11T195 112T226 231T248 350T257 451Q257 501 246 521T214 541Q203
541 192 539T169 537Q166 537 159 538T150 547Q150 554 161 556T185 560T204 561Q212 561 228 560T263 556T294 546T309 527Q310 517 310 506T311 481Q311 431 303 366T282 232T251 101T214 -5T175 -64Q166 -71 143 -73T106 -76Z" />
<glyph unicode="^" glyph-name="asciicircum" horiz-adv-x="334" d="M241 362Q217 362 200 382Q190 393 174 429Q165 448 158 444Q132 428 107 413T55 380Q53 379 51 379T47 378Q38 378 38 385Q38 390 44 393Q54 401 62 406T76 415Q98 427 122 442T173 476Q184
484 191 484Q201 484 213 457Q229 421 236 413Q248 399 267 399Q285 399 314 409Q325 412 330 412Q335 412 335 410Q335 405 322 395L279 370Q268 366 259 364T241 362Z" />
<glyph unicode="_" glyph-name="underscore" horiz-adv-x="537" d="M-11 -43Q-15 -43 -15 -38Q-15 -32 -11 -25T0 -17H541Q547 -17 547 -23Q547 -28 544 -33T537 -43H-11Z" />
<glyph unicode="`" glyph-name="grave" horiz-adv-x="120" d="M117 353Q113 353 94 361Q76 369 51 387T3 423Q0 426 0 430Q0 438 6 446T19 454Q23 454 26 450Q37 436 60 415T105 374Q120 359 120 355Q120 353 117 353Z" />
<glyph unicode="a" glyph-name="a" horiz-adv-x="360" d="M280 -11Q260 -11 244 2T224 27Q221 41 261 127L238 94Q223 72 208 55T180 25Q142 -11 116 -5Q56 9 56 63Q56 106 97 173Q110 193 130 213T176 252Q243 301 305 301Q343 301 377 281Q388 273 388 264Q388
257 384 257Q383 257 382 258Q361 281 326 281Q285 281 237 250T151 167Q97 92 97 45Q97 18 116 11Q140 1 218 100Q250 139 271 170T306 223Q312 234 328 234Q358 234 358 216Q358 213 357 212Q270 74 270 25Q270 13 277 12Q298 6 347 43Q406 87 458 160Q469 175
478 175Q481 175 481 173Q481 168 472 154Q451 121 426 92T369 38Q325 1 297 -8Q290 -11 280 -11Z" />
<glyph unicode="b" glyph-name="b" horiz-adv-x="322" d="M100 -16Q61 -16 40 17Q39 18 39 24Q39 48 70 123Q84 157 98 187T128 246Q212 401 280 491Q296 511 341 507Q351 506 351 498Q351 487 344 483Q262 420 125 151Q130 156 147 173T195 220Q273 295 308 295Q315
293 327 292T355 288Q373 288 373 264Q373 197 295 105Q255 58 204 24Q145 -16 100 -16ZM88 16Q119 16 171 50Q198 67 220 87T258 129Q324 218 324 257Q324 272 311 272Q274 272 169 169Q71 69 71 31Q71 16 88 16Z" />
<glyph unicode="c" glyph-name="c" horiz-adv-x="282" d="M149 -8Q128 -8 107 2T70 32T55 82Q55 122 85 173T164 263Q195 288 216 297Q246 310 273 310Q307 310 326 288Q336 278 336 267Q336 249 319 249Q307 249 301 264Q294 285 271 285Q243 285 208 254Q169
223 137 169Q102 111 102 67Q102 24 128 13Q137 9 151 9Q199 9 260 49Q327 92 375 160Q386 175 395 175Q398 175 398 173Q398 168 389 154Q343 83 260 32Q222 9 200 1T149 -8Z" />
<glyph unicode="d" glyph-name="d" horiz-adv-x="378" d="M287 -11Q268 -11 252 -2T230 19Q227 27 227 40Q227 57 231 79T243 128Q236 115 224 98T193 58Q139 -6 105 -6Q100 -6 97 -5Q37 9 37 63Q37 106 78 173Q104 214 157 252Q225 302 286 302Q309 302 329 295L359
349Q382 390 397 423T423 480Q431 498 479 498Q501 498 498 493L366 274Q370 268 368 260Q367 254 363 258L359 262L346 240Q270 111 270 39Q270 11 289 11Q310 11 353 43Q412 87 464 160Q475 175 484 175Q487 175 487 173Q487 168 478 154Q435 88 378 38Q333 -1
308 -8Q298 -11 287 -11ZM97 11Q121 1 199 100Q229 138 251 168T287 223Q291 231 299 245T321 280Q318 281 315 281T308 281Q267 281 220 251T132 167Q103 130 91 99T78 45Q78 18 97 11Z" />
<glyph unicode="e" glyph-name="e" horiz-adv-x="252" d="M112 -8Q83 -8 61 6Q32 26 32 64Q32 105 67 164Q114 241 205 299Q228 314 251 314Q281 314 294 295Q302 284 302 270Q302 228 234 178Q214 164 192 153T143 136L100 127Q76 84 76 55Q76 15 123 15Q160
15 213 46Q284 87 335 160Q343 172 350 172Q353 172 353 168Q353 163 346 153Q249 7 127 -7Q123 -8 120 -8T112 -8ZM112 144Q140 144 184 169Q246 204 271 259Q278 273 278 282Q278 291 271 291Q258 291 218 259Q189 234 162 206T109 145Q108 144 112 144Z" />
<glyph unicode="f" glyph-name="f" horiz-adv-x="230" d="M119 -49Q76 -49 76 4Q76 48 103 123Q108 139 126 181T174 294L131 287Q118 285 110 284T98 283Q95 285 95 289Q95 311 104 313L188 325Q201 347 219 376T261 443Q292 484 319 500Q332 506 350 510T394
515Q432 515 445 485Q449 476 449 466Q449 446 434 446Q417 446 406 475Q400 492 381 492Q353 492 331 467Q324 460 314 445T287 407Q270 382 259 363T240 329Q243 330 253 331T279 333Q291 334 302 334T323 335Q365 335 363 331Q353 322 226 300Q195 246 157 152Q109
37 109 -11Q109 -30 119 -35T130 -42Q130 -49 119 -49Z" />
<glyph unicode="g" glyph-name="g" horiz-adv-x="341" d="M-3 -308Q-41 -308 -41 -270Q-41 -239 -14 -196Q3 -169 29 -139T93 -74Q159 -10 233 37Q242 59 253 91T278 167Q275 160 257 139T203 79Q119 -14 84 -5Q30 9 30 55Q30 100 83 173Q98 193 120 213T170 252Q241
301 304 301Q343 301 375 281Q384 275 384 266Q384 257 380 257Q379 257 378 258Q358 281 323 281Q282 281 231 250T137 167Q70 85 70 39Q70 18 86 11Q108 2 197 100Q232 139 257 170T298 223Q305 233 318 233Q342 233 342 215Q342 211 339 206Q332 186 320 153T291
72Q323 91 342 91Q350 91 350 87Q350 77 325 68Q315 64 304 59T279 47Q209 -127 110 -240Q50 -308 -3 -308ZM18 -287Q37 -287 64 -256Q153 -156 220 6Q87 -93 22 -200Q0 -235 0 -262Q0 -287 18 -287Z" />
<glyph unicode="h" glyph-name="h" horiz-adv-x="386" d="M270 -10Q248 -12 228 1T208 32Q208 63 267 151Q332 249 332 264Q332 273 322 273Q296 273 222 196Q178 152 140 102T67 -5Q65 -7 56 -7Q12 -7 16 5Q33 51 59 108T121 235Q240 465 283 498Q295 507 316
507Q351 507 351 493Q351 490 345 485Q214 388 113 120Q114 121 123 129T151 155Q170 172 183 186T207 212Q256 267 315 294Q329 300 347 300Q388 300 388 270Q388 251 369 225Q261 74 261 22Q261 11 268 8Q284 1 347 41Q421 89 473 160Q484 175 493 175Q496 175
496 173Q496 168 487 154Q443 85 365 32Q295 -14 270 -10Z" />
<glyph unicode="i" glyph-name="i" horiz-adv-x="228" d="M254 351Q238 349 220 355T201 370Q201 376 205 382T215 396Q232 417 235 422T246 428Q269 428 282 406Q283 405 283 402Q283 393 273 376Q260 352 254 351ZM103 -10Q45 3 45 36Q45 52 84 149Q95 168 113
204T160 294Q165 302 182 302Q197 302 211 298T223 289Q91 102 91 30Q91 9 105 9Q132 9 190 47Q259 94 306 160Q316 176 326 176Q329 176 329 173Q329 168 320 154Q276 85 198 32Q128 -16 103 -10Z" />
<glyph unicode="j" glyph-name="j" horiz-adv-x="210" d="M264 351Q248 349 230 355T212 370Q212 375 216 382T226 396Q243 417 246 422T258 428Q280 428 293 406Q294 405 294 402Q294 395 283 376Q270 352 264 351ZM-111 -308Q-149 -308 -149 -270Q-149 -239
-122 -196Q-105 -169 -79 -139T-15 -74Q51 -10 125 37Q142 79 171 168V169Q171 171 170 174T168 180Q168 194 190 223Q197 233 210 233Q234 233 234 215Q234 211 231 206Q224 186 212 153T183 72Q215 91 234 91Q242 91 242 87Q242 77 217 68Q207 64 196 59T171
47Q101 -127 2 -240Q-58 -308 -111 -308ZM-90 -287Q-71 -287 -44 -256Q45 -156 112 6Q-21 -93 -86 -200Q-108 -235 -108 -262Q-108 -287 -90 -287Z" />
<glyph unicode="k" glyph-name="k" horiz-adv-x="289" d="M329 -86Q302 -86 277 -67Q202 -8 161 154Q100 84 47 -5Q45 -7 36 -7Q-8 -7 -4 5Q16 59 42 118T102 242Q212 457 269 499Q281 508 302 508Q337 508 337 494Q337 491 331 486Q190 381 93 120L155 180Q151
194 149 207T146 232Q146 242 154 249T171 257Q178 257 183 249Q188 240 210 236Q241 265 266 284T311 314Q346 332 366 332Q394 332 394 297Q394 268 360 244T280 212Q264 209 244 209Q237 209 231 209T216 211L203 199Q211 152 218 118T232 61Q258 -25 300 -57Q316
-70 337 -70Q378 -70 394 -37Q398 -27 405 -25Q411 -22 411 -28Q411 -32 408 -37Q383 -86 329 -86ZM241 233Q251 233 261 236Q278 241 295 250T329 270Q363 292 363 303Q363 306 360 306Q338 306 244 236L241 233Z" />
<glyph unicode="l" glyph-name="l" horiz-adv-x="203" d="M126 -19Q55 -4 55 47Q55 77 74 134Q88 177 112 232T174 356Q263 523 309 530Q313 531 322 531Q371 531 371 485Q371 422 265 306Q206 240 135 189Q93 89 93 42Q93 11 112 5Q127 1 182 41Q245 87 290 153Q297
163 303 163Q307 163 307 159Q307 155 302 147Q264 86 203 31Q144 -23 126 -19ZM146 216Q182 243 206 270L265 340Q347 437 347 483Q347 492 337 492Q320 492 283 443Q272 427 260 412T236 381Q221 359 209 338T185 295Q182 291 173 271T146 216Z" />
<glyph unicode="m" glyph-name="m" horiz-adv-x="527" d="M421 -10Q399 -12 379 1T359 32Q359 63 418 151Q483 248 483 263Q483 272 474 273Q445 271 396 227Q321 158 245 19Q242 14 222 14Q200 14 200 32Q200 63 259 151Q324 248 324 263Q324 272 315 273Q286
271 225 215Q137 133 63 -3Q62 -5 59 -6T46 -7Q8 -7 12 5Q23 34 50 92T122 238Q152 297 183 297Q193 297 196 292Q198 289 154 206Q133 166 121 143T104 112Q121 129 144 154T199 212Q248 267 307 294Q319 299 332 299Q375 299 375 262Q375 241 358 212Q404 266
466 294Q480 300 498 300Q539 300 539 270Q539 251 520 225Q412 74 412 22Q412 11 419 8Q434 2 476 26Q529 57 574 113Q580 120 586 120Q590 120 590 117Q590 113 584 105Q534 41 485 11Q445 -14 421 -10Z" />
<glyph unicode="n" glyph-name="n" horiz-adv-x="378" d="M270 -10Q248 -12 228 1T208 32Q208 63 267 151Q332 248 332 263Q332 272 323 273Q294 271 233 215Q146 134 70 -5Q68 -7 59 -7Q16 -7 20 5Q31 34 58 92T130 238Q160 297 191 297Q201 297 204 292Q206
289 162 206Q141 166 129 143T112 112Q129 129 152 154T207 212Q256 267 315 294Q329 300 347 300Q388 300 388 270Q388 251 369 225Q261 74 261 22Q261 11 268 8Q284 1 347 41Q421 89 473 160Q484 175 493 175Q496 175 496 173Q496 168 487 154Q443 85 365 32Q295
-14 270 -10Z" />
<glyph unicode="o" glyph-name="o" horiz-adv-x="313" d="M129 -11Q56 -11 56 79Q56 169 128 251Q129 252 127 258T125 268Q125 274 129 277Q164 305 211 305Q224 305 232 300Q242 296 251 292T268 283Q306 260 321 235Q346 236 363 237T389 239H393Q402 239 402
232Q402 230 398 229Q387 227 370 224T327 218Q330 211 330 202Q330 195 329 192Q314 111 250 50Q188 -11 129 -11ZM297 235Q281 260 234 260Q198 260 187 252Q184 251 181 248T174 241Q230 234 297 235ZM132 5Q176 5 233 68Q291 131 302 190Q303 195 303 198T304
205Q304 211 302 217Q283 216 263 216T223 216Q203 216 187 216T157 217Q117 163 107 130Q95 93 95 59Q95 5 132 5Z" />
<glyph unicode="p" glyph-name="p" horiz-adv-x="309" d="M-2 -275Q-18 -275 -32 -264Q-48 -250 -47 -234Q-40 -157 -15 -74T53 101Q111 226 188 333Q203 354 247 349Q259 348 259 338Q259 330 253 325Q193 284 127 150Q130 155 146 172T190 220Q261 295 295 295Q302
293 314 292T343 288Q363 288 363 256Q363 188 302 105Q270 61 219 24Q161 -16 118 -16Q78 -16 58 20Q-7 -112 -11 -242Q-11 -253 3 -258Q17 -263 14 -268Q10 -275 -2 -275ZM100 15Q129 15 182 50Q208 67 228 87T262 129Q315 212 315 253Q315 272 300 272Q260 272
168 169Q81 75 81 33Q81 15 100 15Z" />
<glyph unicode="q" glyph-name="q" horiz-adv-x="314" d="M215 -278Q176 -278 170 -249Q167 -234 167 -214Q167 -147 208 -21Q222 17 236 55T263 131L236 94Q205 49 179 25Q142 -11 116 -5Q56 9 56 63Q56 106 97 173Q110 193 130 213T176 252Q243 301 305 301Q343
301 377 281Q388 273 388 264Q388 257 384 257Q383 257 382 258Q361 281 326 281Q285 281 237 250T151 167Q97 92 97 45Q97 18 116 11Q140 1 218 100Q250 139 271 170T306 223Q310 233 326 233Q338 233 349 228T360 216Q360 214 357 212Q345 205 314 145Q298 114
284 80T256 9Q215 -105 215 -194Q215 -238 227 -258Q248 -265 248 -268Q248 -278 215 -278Z" />
<glyph unicode="r" glyph-name="r" horiz-adv-x="269" d="M28 -12Q14 -12 14 -3Q14 -2 16 4Q63 94 127 261Q134 279 151 292T180 306Q193 306 191 292Q181 271 167 238T134 161Q162 198 217 244Q245 267 265 282T300 304Q314 311 331 311Q351 311 365 301T379
278Q379 270 372 261T356 251Q352 251 340 259T313 268Q298 268 278 259Q151 202 59 2Q53 -12 28 -12Z" />
<glyph unicode="s" glyph-name="s" horiz-adv-x="318" d="M61 -41Q57 -41 57 -38Q57 -25 125 10Q142 18 156 26T180 42Q241 87 241 120Q241 145 192 145Q78 147 78 195Q78 216 96 235Q117 259 166 281Q219 305 263 305Q302 305 322 286Q331 277 331 264Q331 250
322 239T302 228Q282 228 280 255Q280 274 274 277T242 280Q209 280 168 258Q119 233 122 198Q124 178 198 178Q299 178 299 129Q299 76 212 23Q157 -11 78 -37Q67 -41 61 -41Z" />
<glyph unicode="t" glyph-name="t" horiz-adv-x="225" d="M133 -17Q56 0 56 53Q56 68 61 88T77 134L162 325Q147 323 129 321T89 317Q85 317 85 324Q85 338 90 340L174 352L239 484Q248 502 295 502Q317 502 314 497Q292 462 270 427T225 356Q228 357 238 358T264
360Q276 361 287 361T308 362Q350 362 348 358Q341 351 212 331Q103 125 103 40Q103 9 121 3Q135 -1 192 40Q225 64 252 92T301 153Q308 163 314 163Q318 163 318 159Q318 155 313 147Q275 86 212 32Q151 -21 133 -17Z" />
<glyph unicode="u" glyph-name="u" horiz-adv-x="341" d="M255 -7Q229 -1 206 21Q201 26 201 36Q201 76 237 148Q209 112 191 89T164 56Q125 11 99 2Q90 -1 81 -1Q44 -1 38 29Q34 38 34 54Q34 103 99 241Q114 273 133 273Q147 273 160 252L118 169Q96 126 85 95T73
47Q73 23 89 23Q115 23 173 90Q204 126 233 170T292 266Q298 278 310 278Q320 278 329 270T337 257Q240 56 240 26Q240 14 248 16Q329 23 422 159Q427 168 433 169Q439 171 439 165Q439 161 435 154Q391 85 330 33Q276 -12 255 -7Z" />
<glyph unicode="v" glyph-name="v" horiz-adv-x="314" d="M118 -12Q112 -14 69 14Q64 19 64 33Q64 99 121 253Q135 292 159 292Q171 292 180 282T187 265Q176 242 164 213T137 147Q103 60 103 27Q103 13 112 13Q116 13 120 16Q136 26 167 58T244 143Q344 258 373
315Q387 341 402 341Q415 341 415 325Q415 310 399 291Q362 247 320 199T230 97Q125 -16 118 -12Z" />
<glyph unicode="w" glyph-name="w" horiz-adv-x="483" d="M56 -19Q51 -19 41 -9Q36 -4 36 14Q36 51 52 106Q62 138 73 166T99 218Q122 256 146 256Q158 256 167 248T176 230Q176 227 175 226Q160 212 125 164Q108 135 94 101T70 27Q86 52 113 83T181 151Q212 180
239 203T292 245Q292 246 293 246V247Q314 277 348 277Q361 277 361 269Q361 265 356 258Q327 232 296 164Q264 91 264 49Q264 15 290 15Q344 15 402 69Q479 140 492 261Q497 297 515 300H518Q530 300 534 290L537 274Q535 194 451 95Q364 -8 288 -8Q223 -8 223
72Q223 129 262 198Q135 100 67 -11Q62 -19 56 -19Z" />
<glyph unicode="x" glyph-name="x" horiz-adv-x="300" d="M28 -73Q22 -74 16 -65T10 -43Q10 11 169 135L184 148L180 179Q176 201 173 215T167 236Q160 262 149 263Q142 263 130 256T113 249Q105 249 105 255Q105 263 133 277Q149 285 164 290T195 300Q207 303
215 273Q217 265 221 242T233 182Q305 222 342 269Q362 301 394 339Q399 342 399 333Q399 288 332 231Q278 185 236 163Q241 134 246 107T258 54Q260 45 269 45Q283 45 315 71Q326 80 331 80L333 78Q333 74 321 60Q303 38 276 18Q245 -4 225 -3Q204 -2 189 128Q178
121 162 109T124 79Q104 61 89 43T63 4Q52 -17 43 -50Q37 -72 28 -73Z" />
<glyph unicode="y" glyph-name="y" horiz-adv-x="348" d="M9 -308Q-29 -308 -29 -270Q-29 -239 -2 -196Q15 -169 41 -139T105 -74Q171 -10 245 37Q262 79 274 117T296 188Q289 176 219 94Q134 -6 102 -6Q98 -6 96 -5L66 11Q52 19 49 26T46 42Q46 69 62 119T112
241Q127 273 146 273Q160 273 173 252L129 165Q82 73 82 37Q82 13 98 13Q130 13 218 122Q247 157 271 189T316 253Q323 263 336 263Q360 263 360 245Q360 241 357 236Q349 208 336 168T303 72Q335 91 354 91Q362 91 362 87Q362 77 337 68Q327 64 316 59T291 47Q221
-127 122 -240Q62 -308 9 -308ZM30 -287Q49 -287 76 -256Q165 -156 232 6Q99 -93 34 -200Q12 -235 12 -262Q12 -287 30 -287Z" />
<glyph unicode="z" glyph-name="z" horiz-adv-x="374" d="M252 -5Q245 -5 238 -5T222 -4Q190 -5 150 -4T59 1Q47 3 40 19Q34 30 34 35Q53 59 98 96T215 184Q333 268 320 269Q309 270 299 270T278 271Q214 271 179 252Q149 236 140 236Q128 236 128 249Q128 259
137 272T157 288Q187 296 257 297Q269 297 280 297T301 298Q335 298 354 295Q363 293 373 277Q385 261 385 250Q385 246 383 244Q335 213 300 190T242 150Q144 82 84 28Q82 24 118 20Q159 14 199 14Q253 14 286 24Q355 44 364 77Q366 83 370 83Q385 83 385 54Q385
36 371 22Q346 -5 252 -5Z" />
<glyph unicode="{" glyph-name="braceleft" horiz-adv-x="438" d="M323 -65Q250 -63 224 -20Q213 -1 213 24Q213 53 226 93L248 161Q262 205 262 228Q262 250 243 276Q221 306 197 316L239 339Q277 359 317 423Q328 437 338 468Q366 543 371 553Q395 605 424 622L465
645Q480 654 514 660Q524 662 540 665T580 674Q565 645 520 636L483 632Q462 631 448 622Q421 605 402 542L375 449Q356 392 255 333Q310 297 310 252Q310 237 306 218T294 178Q289 162 283 146T271 113Q255 66 255 37Q255 15 264 0Q284 -36 351 -46Q371 -43 377
-44Q380 -45 380 -48Q380 -57 353 -62Q335 -66 323 -65Z" />
<glyph unicode="|" glyph-name="bar" horiz-adv-x="146" d="M49 658H85V0H49V658Z" />
<glyph unicode="}" glyph-name="braceright" horiz-adv-x="468" d="M46 -69Q61 -40 106 -31L143 -28Q164 -27 178 -18Q205 1 224 63L251 156Q270 213 371 272Q316 308 316 353Q316 369 320 387T332 427L355 492Q371 539 371 568Q371 589 362 605Q343 639 275 651Q265
649 259 649T249 649Q246 651 246 652Q246 662 273 666Q282 668 289 669T303 670Q377 667 402 625Q413 606 413 581Q413 553 400 511L378 443Q372 423 368 407T364 377Q364 354 383 328Q404 299 429 289L387 266Q348 244 308 182Q299 168 288 136L255 51Q231 0
202 -17L161 -41Q154 -45 142 -48T112 -55Q102 -56 86 -60T46 -69Z" />
<glyph unicode="~" glyph-name="asciitilde" horiz-adv-x="310" d="M274 439Q236 439 186 471Q138 504 121 504Q103 504 83 483Q65 463 61 463Q57 463 57 469Q57 486 87 510Q116 533 139 533Q173 533 215 506L266 473Q280 467 292 467Q310 467 324 480Q340 493
342 493L346 491Q349 481 326 461Q301 439 274 439Z" />
<glyph unicode="&#xa0;" glyph-name="uni00A0" horiz-adv-x="190" />
<glyph unicode="&#xa1;" glyph-name="exclamdown" horiz-adv-x="336" d="M234 109Q213 109 198 131Q197 132 197 135Q197 144 207 161Q221 185 227 185Q244 187 262 181T279 165Q276 153 266 141Q249 119 246 114T234 109ZM5 -416Q-7 -416 -9 -404Q-9 -401 44
-310Q76 -254 101 -210T143 -132Q197 -25 197 20Q197 35 191 42Q179 59 179 65Q179 70 184 70Q195 70 215 50Q235 31 230 14L226 -33Q222 -55 214 -82T191 -142Q172 -188 143 -245T73 -370Q67 -380 74 -380Q77 -380 87 -377T102 -374Q106 -374 107 -377Q110 -390
78 -398L42 -404Q20 -416 5 -416Z" />
<glyph unicode="&#xa2;" glyph-name="cent" horiz-adv-x="400" d="M62 -99Q53 -99 50 -95Q43 -87 48 -79L158 134Q138 146 124 169T110 226Q110 258 124 296T164 374T224 444Q240 459 253 469T278 485Q309 500 337 500Q342 500 346 500L363 535Q380 567 391 591T412
631Q440 685 453 707T474 729Q477 729 477 726T478 721Q476 713 449 656T369 493Q382 487 392 474Q402 461 402 449Q402 427 385 427Q372 427 366 445Q362 458 354 464Q343 441 331 417T305 365Q277 308 249 251T194 141Q200 139 210 139Q234 139 263 150T323 187Q351
207 363 207Q372 207 367 196T334 166Q294 138 266 128T208 118Q196 118 184 121Q150 54 126 4T92 -63L76 -94Q73 -99 62 -99ZM159 208Q159 175 170 158L331 468L332 470Q304 468 269 433Q229 396 195 331Q178 297 169 266T159 208Z" />
<glyph unicode="&#xa3;" glyph-name="sterling" horiz-adv-x="756" d="M332 279Q322 279 318 281T308 284Q314 314 357 314Q375 314 393 314T429 314Q450 362 472 410T517 499T564 567Q581 586 610 602T667 619Q699 619 717 601T736 552Q736 520 726 520Q722 520
717 530T712 560Q712 574 706 586T685 598Q678 598 669 595Q628 579 596 536T536 433T480 313Q506 313 531 313T582 312Q591 312 591 309Q591 306 581 302T559 297Q548 295 533 294T496 290Q482 288 468 287Q440 225 408 172T334 93Q354 81 384 72T448 56T514 46T570
42Q587 42 609 44T653 52T689 71T703 106Q703 120 696 128T682 142T674 153Q674 158 678 158Q680 158 684 158T690 155Q705 145 718 132T731 100Q731 65 709 43T654 10T593 0Q552 0 499 12T395 43T306 79Q281 64 255 54T198 44Q167 44 135 58T82 97T60 154Q60 170
70 176T95 182Q125 182 163 168T240 134T305 102Q333 124 360 173T415 282Q394 281 379 281T351 280Q346 279 341 279T332 279ZM189 66Q208 66 236 73T280 90Q268 98 248 107T206 125T166 139T140 145Q128 145 123 144T117 134Q117 106 135 86T189 66Z" />
<glyph unicode="&#xa4;" glyph-name="currency" horiz-adv-x="462" d="M103 352Q100 355 100 361Q100 368 104 376T112 389Q114 392 128 403T160 428Q149 452 149 478Q149 497 154 513T170 544Q153 567 143 586T138 613Q146 622 157 622Q166 622 172 616Q181 606
190 597T208 579Q234 592 261 592Q306 592 338 563Q364 583 389 603T440 644Q445 639 440 628T426 605T407 583T394 569Q386 560 377 552T360 535Q375 510 375 478Q375 443 358 417Q372 401 388 386T420 357L415 353Q408 346 385 358T335 390Q304 364 261 364Q220
364 189 390Q161 371 136 358T103 352ZM260 398Q295 398 317 421T339 478Q339 510 317 532T260 555Q228 555 206 533T183 478Q183 444 205 421T260 398Z" />
<glyph unicode="&#xa5;" glyph-name="yen" horiz-adv-x="496" d="M75 -6Q60 -6 60 2Q60 22 65 46T80 98L116 190Q72 186 69 185V185Q69 185 69 185T69 185Q63 185 57 194T50 208L51 211Q63 214 125 217Q129 228 134 247T147 294Q138 294 109 291Q85 288 70 288Q65
288 58 297T50 311L51 313Q67 318 153 320Q157 337 158 356T160 395Q160 442 153 487T135 558Q123 588 123 587Q123 598 153 598Q170 598 179 577T193 523T197 453Q197 414 194 378T184 320L188 319Q216 348 254 386T332 463T409 535T472 589T507 610Q520 610 523
607T527 598Q436 534 363 465T221 318Q280 313 292 308Q295 307 295 305Q295 300 289 300Q259 300 206 297Q192 277 181 257T162 217Q265 217 292 206Q295 205 295 203Q295 197 289 197Q261 197 228 196T153 192Q146 170 139 140T125 71Q124 61 122 47T115 13Q109
-6 75 -6Z" />
<glyph unicode="&#xa6;" glyph-name="brokenbar" horiz-adv-x="146" d="M49 658H85V367H49V658ZM49 245H85V0H49V245Z" />
<glyph unicode="&#xa7;" glyph-name="section" horiz-adv-x="570" d="M169 -42Q52 -42 52 33Q52 77 107 116Q127 130 150 142T202 163Q210 166 215 166Q222 166 222 163Q222 158 204 152Q182 144 162 133T125 108Q81 73 81 35Q81 -17 185 -17Q260 -17 344 11Q450
44 471 95Q475 103 475 111Q475 162 336 202Q275 220 251 233Q201 260 201 300Q201 333 224 359Q219 371 219 381Q219 440 325 482Q412 517 481 517Q573 517 573 465Q573 461 573 457T571 448Q568 433 552 417T520 401Q515 401 515 404Q515 403 530 422Q545 442
545 457Q545 495 481 495Q425 495 345 467Q247 432 247 391Q247 368 285 351Q324 338 363 326T441 302Q549 262 549 208Q549 188 535 165T505 129Q505 111 491 89Q453 31 345 -8Q252 -42 169 -42ZM502 143Q526 175 526 192Q526 231 460 261Q447 266 414 277T328
304Q247 330 231 349Q225 336 225 323Q225 281 290 252L417 208Q490 181 502 143Z" />
<glyph unicode="&#xa8;" glyph-name="dieresis" horiz-adv-x="199" d="M135 353Q129 353 123 365Q115 382 114 384T112 389Q112 407 164 407Q192 407 192 400Q192 399 191 398Q181 394 164 383L141 356Q138 353 135 353ZM23 353Q17 353 11 365Q3 382 2 384T0 389Q0
407 52 407Q80 407 80 400Q80 399 79 398Q69 394 52 383L29 356Q26 353 23 353Z" />
<glyph unicode="&#xa9;" glyph-name="copyright" horiz-adv-x="638" d="M217 29Q146 29 95 71Q41 115 41 185Q41 303 168 414Q290 522 410 522Q481 522 531 478Q581 434 581 364Q581 248 458 138Q337 29 217 29ZM231 50Q337 50 440 150Q543 250 543 356Q543 420
504 461T400 502Q288 502 182 399Q77 296 77 184Q77 124 125 86Q169 50 231 50ZM215 115Q181 115 158 130Q131 147 131 179Q131 271 231 362Q328 450 422 450Q471 450 471 410Q471 380 453 378L448 382Q451 409 453 407Q451 441 417 441Q339 441 252 347Q165 254
165 175Q165 127 212 127Q262 127 341 170Q419 213 413 214Q416 214 416 211Q416 177 331 144Q256 115 215 115Z" />
<glyph unicode="&#xaa;" glyph-name="ordfeminine" horiz-adv-x="240" d="M280 379Q260 379 244 392T224 417Q221 431 261 517L238 484Q222 462 208 445T180 415Q142 379 116 385Q56 399 56 453Q56 496 97 563Q110 583 130 603T176 642Q243 691 305 691Q343 691
377 671Q388 663 388 654Q388 647 384 647Q383 647 382 648Q361 671 326 671Q285 671 237 640T151 557Q97 482 97 435Q97 408 116 401Q140 391 218 490Q250 529 271 560T306 613Q312 624 328 624Q358 624 358 606Q358 603 357 602Q270 464 270 415Q270 403 277
402Q298 396 347 433Q406 477 458 550Q469 565 478 565Q481 565 481 563Q481 558 472 544Q451 511 426 482T369 428Q325 391 297 382Q290 379 280 379Z" />
<glyph unicode="&#xab;" glyph-name="guillemotleft" horiz-adv-x="420" d="M357 136L349 140Q338 155 324 170T293 199L228 250Q225 252 225 256Q225 266 278 342Q301 374 317 396T344 431Q353 442 363 442Q369 442 369 436Q369 421 270 283Q368 159 368 149Q368
134 357 136ZM217 136L209 140Q186 171 152 199L88 250Q85 252 85 256Q85 268 137 342Q160 374 176 396T203 431Q212 442 222 442Q229 442 229 436Q229 421 130 283Q227 161 227 149Q227 135 217 136Z" />
<glyph unicode="&#xac;" glyph-name="logicalnot" horiz-adv-x="536" d="M380 73Q365 70 367 76Q366 85 410 187Q427 224 433 241T445 267Q440 266 388 265T259 261Q221 260 191 260T137 259Q106 259 88 259T65 260H63Q50 264 50 270Q50 275 63 281L374 288Q412
289 432 290T478 291Q486 291 486 285Q486 277 474 257T450 209Q425 151 413 119T397 82Q394 79 390 77T380 73Z" />
<glyph unicode="&#xad;" glyph-name="uni00AD" horiz-adv-x="261" d="M117 216Q105 216 100 216T92 218Q86 221 83 231Q82 234 82 238Q82 244 86 245Q91 248 107 249T174 250Q221 250 256 247T291 237Q290 236 290 235T287 232Q283 229 255 226T196 220Q167 218
148 217T117 216Z" />
<glyph unicode="&#xae;" glyph-name="registered" horiz-adv-x="638" d="M217 29Q146 29 95 71Q41 115 41 185Q41 303 168 414Q290 522 410 522Q481 522 531 478Q581 434 581 364Q581 248 458 138Q337 29 217 29ZM408 123Q543 231 543 356Q543 420 504 461T400
502Q290 502 186 404Q276 439 355 439Q403 439 439 424Q489 404 489 363Q489 313 418 284Q391 273 363 268T304 261Q317 214 340 176Q371 125 408 123ZM231 50Q309 50 389 108Q352 117 316 173Q288 216 274 264Q265 264 262 267L273 271L280 276L289 273Q464 297
464 370Q464 427 351 427Q313 427 252 408Q194 392 156 372Q77 278 77 184Q77 124 125 86Q169 50 231 50ZM150 76Q139 76 139 112Q139 156 219 272Q253 322 282 359T336 421L358 410Q357 409 350 398T326 367Q292 324 267 291T225 233Q193 186 176 150T154 87Q152
76 150 76Z" />
<glyph unicode="&#xaf;" glyph-name="overscore" horiz-adv-x="188" d="M25 361Q9 361 7 362Q6 364 4 366T1 374Q0 386 3 387Q12 394 80 394Q134 394 161 393T188 383Q187 382 187 381T184 378Q179 372 96 364Q47 361 25 361Z" />
<glyph unicode="&#xb0;" glyph-name="degree" horiz-adv-x="312" d="M168 368Q142 368 124 386T105 432Q105 458 123 477T168 496Q195 496 213 477T232 432Q232 405 214 387T168 368ZM167 385Q187 385 200 398T214 432Q214 451 201 464T167 478Q148 478 135 465T121
432Q121 412 134 399T167 385Z" />
<glyph unicode="&#xb1;" glyph-name="plusminus" horiz-adv-x="340" d="M145 145Q141 145 138 152T135 165Q135 169 138 188T145 227T149 252Q145 252 129 252T95 254T64 259T50 266Q50 272 54 277T65 282H154Q159 310 162 330T168 368Q172 395 183 395Q188 395
189 387T190 371Q190 349 188 327T184 283H238Q251 283 262 283T280 284Q290 284 290 277Q290 272 273 266T231 257T181 253Q180 248 177 231T168 194T156 160T145 145ZM85 64Q65 64 63 65Q59 67 55 76Q54 79 54 82Q54 87 58 88Q66 92 152 92Q266 92 266 82Q265
81 265 80T263 77Q259 75 237 72T171 67Q113 64 85 64Z" />
<glyph unicode="&#xb2;" glyph-name="uni00B2" horiz-adv-x="500" d="M331 327Q291 327 219 353Q146 379 124 379Q65 351 53 351Q38 351 38 364Q38 373 45 381T63 393Q72 395 83 396T107 398Q112 398 116 398T126 397Q234 470 275 507Q308 539 321 560Q341 590
341 626Q341 666 297 666Q261 666 213 642Q163 618 140 592Q138 590 136 590Q130 590 130 597Q130 601 132 602Q168 638 225 665Q282 692 325 692Q383 692 383 640Q383 602 348 557Q338 545 322 529T283 491Q258 468 222 443T140 391Q167 388 231 368Q293 347 331
347Q357 347 373 357T389 381Q389 407 348 421Q344 421 344 425Q344 432 353 428Q406 414 406 379Q406 358 386 343Q364 327 331 327Z" />
<glyph unicode="&#xb3;" glyph-name="uni00B3" horiz-adv-x="548" d="M204 307Q171 307 144 313T96 329Q50 352 50 394Q50 407 56 423Q66 451 109 471Q145 487 175 487Q182 487 182 483Q182 477 175 477Q155 477 126 459Q95 437 92 415Q91 411 91 405Q91 348 164
328Q178 324 192 323T220 321Q269 321 320 343Q366 363 392 394T427 465Q427 468 427 471T428 478Q428 507 397 523Q370 535 329 535Q290 535 269 525Q263 523 258 523Q245 523 245 535Q245 551 260 551Q315 551 358 569Q387 580 400 598T414 638Q414 673 371 673Q350
673 325 665T275 646T234 622Q232 620 231 620Q225 620 225 632Q225 645 233 648Q241 651 251 659T274 682Q275 684 279 684Q283 684 283 680Q283 678 275 667Q307 681 334 688T384 696Q417 696 435 678T453 633Q453 581 354 551Q400 547 429 530Q463 508 463 473Q463
434 440 403T373 347Q336 328 294 318T204 307Z" />
<glyph unicode="&#xb4;" glyph-name="acute" horiz-adv-x="121" d="M3 354Q1 354 1 356Q1 360 16 375Q39 395 61 416T94 451Q98 455 102 455Q108 455 114 447T121 431Q121 427 118 424Q95 406 70 388T26 362Q7 354 3 354Z" />
<glyph unicode="&#xb5;" glyph-name="uni00B5" horiz-adv-x="312" d="M-108 -300Q-130 -300 -130 -273Q-130 -221 -67 -97Q-59 -83 -30 -30T51 115Q114 228 114 253Q114 266 103 266Q88 266 71 250Q53 235 47 235Q46 236 46 237Q46 247 80 266Q115 287 125 287Q154
287 154 268Q154 238 100 140L77 100Q70 86 70 68Q70 40 94 40Q126 40 210 186Q216 200 231 225Q237 233 245 233Q254 233 261 226T269 208Q269 209 233 141Q198 73 198 36Q198 1 231 1Q259 1 296 33Q307 44 320 59T349 93Q375 125 376 125Q380 125 380 119Q380
113 374 102Q360 79 344 59T308 22Q259 -22 218 -22Q162 -22 162 48Q162 65 177 111Q160 86 149 70T133 48Q99 9 73 9Q50 9 42 42Q-97 -191 -97 -261Q-97 -275 -85 -275Q-77 -275 -62 -265T-38 -255L-36 -256Q-38 -268 -65 -284Q-93 -300 -108 -300Z" />
<glyph unicode="&#xb6;" glyph-name="paragraph" horiz-adv-x="548" d="M-36 -177Q-50 -177 -52 -168Q-49 -162 -42 -162Q46 -162 136 21Q150 50 176 116T240 285Q86 298 86 398Q86 484 183 548Q271 606 361 606Q370 606 383 606T415 608Q433 609 446 609T469
610Q495 610 508 606Q549 648 593 648Q619 648 625 635Q622 632 607 630T580 621Q527 590 453 426L331 132Q262 -30 216 -56Q212 -59 204 -59Q198 -59 198 -55Q200 -50 212 -39Q266 12 332 208Q349 258 365 308T399 408Q445 528 498 592H488Q419 592 330 406Q310
365 285 302T229 152Q191 48 126 -47Q38 -177 -36 -177Z" />
<glyph unicode="&#xb7;" glyph-name="middot" horiz-adv-x="282" d="M60 323Q45 321 27 326T8 341Q8 347 12 353T22 367Q39 388 42 393T54 399Q73 399 89 377Q90 376 90 373Q90 366 79 347Q66 323 60 323Z" />
<glyph unicode="&#xb8;" glyph-name="cedilla" horiz-adv-x="174" d="M55 -155Q30 -155 17 -146T1 -124Q1 -123 1 -123T0 -121Q0 -113 6 -107T17 -100Q25 -100 25 -109Q23 -126 36 -133T66 -140Q78 -140 89 -138T107 -132Q127 -122 127 -104Q127 -94 121 -86T107
-75Q105 -74 95 -73T63 -71Q62 -71 60 -71T55 -72Q48 -73 45 -72Q41 -70 39 -66V-63Q38 -62 38 -59Q40 -54 47 -47T61 -35L106 1Q110 5 113 5Q118 5 118 -3L92 -30Q85 -37 79 -43T70 -54Q78 -52 85 -52T97 -51Q124 -51 140 -58T156 -86Q156 -89 156 -92T155 -98Q152
-115 136 -128T97 -148T55 -155Z" />
<glyph unicode="&#xb9;" glyph-name="uni00B9" horiz-adv-x="306" d="M60 314Q56 314 53 320T50 332Q50 338 53 339Q62 343 75 348T105 359Q121 402 144 466T199 614Q184 604 166 595T127 576H123Q118 576 118 583Q118 587 122 589Q157 603 215 655L217 661Q220
671 239 671Q256 671 256 662Q256 661 256 660T255 659L130 363Q149 367 168 368T208 370Q215 370 215 364Q215 357 208 357Q171 357 133 344Q125 341 107 334T62 315Q61 315 61 315T60 314Z" />
<glyph unicode="&#xba;" glyph-name="ordmasculine" horiz-adv-x="191" d="M129 391Q56 391 56 481Q56 571 128 653Q129 654 127 660T125 670Q125 676 129 679Q164 707 211 707Q224 707 232 702Q242 698 251 694T268 685Q306 662 321 637Q346 638 363 639T389
641H393Q402 641 402 634Q402 632 398 631Q387 629 370 626T327 620Q330 613 330 604Q330 597 329 594Q314 513 250 452Q188 391 129 391ZM297 637Q281 662 234 662Q198 662 187 654Q184 653 181 650T174 643Q230 636 297 637ZM132 407Q176 407 233 470Q291 533
302 592Q303 597 303 600T304 607Q304 613 302 619Q283 618 263 618T223 618Q203 618 187 618T157 619Q117 565 107 532Q95 495 95 461Q95 407 132 407Z" />
<glyph unicode="&#xbb;" glyph-name="guillemotright" horiz-adv-x="420" d="M247 129Q241 129 241 135Q241 150 340 288Q242 413 242 422Q242 437 253 435L261 431Q283 401 316 374T382 321Q385 320 385 315Q385 305 332 229Q310 197 294 175T266 140Q257 129
247 129ZM91 129Q85 129 85 135Q85 150 184 288Q86 413 86 422Q86 437 97 435L105 431Q127 401 160 374T226 321Q229 320 229 315Q229 305 176 229Q154 197 138 175T110 140Q101 129 91 129Z" />
<glyph unicode="&#xbc;" glyph-name="onequarter" horiz-adv-x="784" d="M102 314Q98 314 95 320T92 332Q92 338 95 339Q104 343 117 348T147 359Q163 402 186 466T241 614Q226 604 208 595T169 576H165Q160 576 160 583Q160 587 164 589Q199 603 257 655L259
661Q262 671 281 671Q298 671 298 662Q298 661 298 660T297 659L172 363Q191 367 210 368T250 370Q257 370 257 364Q257 357 250 357Q213 357 175 344Q167 341 149 334T104 315Q103 315 103 315T102 314ZM6 -110Q0 -110 0 -106Q4 -77 36 -26Q49 -5 78 33T147 119T231
221T319 326T401 422T466 495T504 534Q510 540 522 540Q534 540 544 535T553 522Q476 435 391 344T226 163T87 -7Q70 -30 59 -50T47 -82Q47 -92 32 -101T6 -110ZM569 -25Q563 -25 562 -20Q549 -4 549 13Q549 70 563 123Q515 136 482 136Q459 136 414 121Q395 115
381 111T365 107Q358 107 353 115T347 130Q347 144 359 147Q367 149 375 151T393 155Q570 253 678 350L682 358Q685 362 694 362Q705 362 712 357T717 347L654 241Q636 211 622 185T597 137Q620 130 638 127T672 123Q691 123 702 133T714 157Q714 159 714 161T712
166Q712 168 712 169T711 173Q709 179 709 181Q709 187 715 187Q720 187 726 181Q745 156 745 140Q745 104 672 104Q656 104 635 107T589 117Q568 63 568 13Q568 3 577 -9Q577 -10 578 -11Q578 -12 578 -12T579 -15Q579 -25 569 -25ZM569 146Q578 172 594 204T633
275L642 288Q608 262 559 231T444 162Q463 163 480 163Q512 163 569 146Z" />
<glyph unicode="&#xbd;" glyph-name="onehalf" horiz-adv-x="942" d="M128 268Q123 266 119 273T114 289Q114 294 118 296Q129 300 145 307T184 322Q204 376 234 458T306 651Q265 623 211 600Q209 599 206 599Q201 599 201 607Q201 611 206 613Q249 631 324 699L327
706Q331 718 354 718Q374 718 374 709Q374 707 373 705L213 326Q236 330 261 333T315 336Q322 336 322 329Q322 322 315 322Q268 322 218 305Q208 301 186 292T128 268ZM159 28Q153 28 153 32Q157 61 189 112Q203 132 232 170T300 257T384 359T472 464T554 560T619
633T657 672Q662 678 675 678Q687 678 698 673T706 660Q648 595 585 527T460 390T341 257T240 131Q222 107 212 88T200 56Q200 49 193 43T175 32T159 28ZM732 63Q692 63 620 89Q547 115 525 115Q466 87 454 87Q439 87 439 100Q439 109 446 117T464 129Q473 131
484 132T508 134Q513 134 517 134T527 133Q635 206 676 243Q709 275 722 296Q742 326 742 362Q742 402 698 402Q662 402 614 378Q564 354 541 328Q539 326 537 326Q531 326 531 333Q531 337 533 338Q569 374 626 401Q683 428 726 428Q784 428 784 376Q784 338 749
293Q739 281 723 265T684 227Q659 204 623 179T541 127Q568 124 632 104Q694 83 732 83Q758 83 774 93T790 117Q790 143 749 157Q745 157 745 161Q745 168 754 164Q807 150 807 115Q807 94 787 79Q765 63 732 63Z" />
<glyph unicode="&#xbe;" glyph-name="threequarters" horiz-adv-x="1014" d="M204 307Q171 307 144 313T96 329Q50 352 50 394Q50 407 56 423Q66 451 109 471Q145 487 175 487Q182 487 182 483Q182 477 175 477Q155 477 126 459Q95 437 92 415Q91 411 91 405Q91
348 164 328Q178 324 192 323T220 321Q269 321 320 343Q366 363 392 394T427 465Q427 468 427 471T428 478Q428 507 397 523Q370 535 329 535Q290 535 269 525Q263 523 258 523Q245 523 245 535Q245 551 260 551Q315 551 358 569Q387 580 400 598T414 638Q414 673
371 673Q350 673 325 665T275 646T234 622Q232 620 231 620Q225 620 225 632Q225 645 233 648Q241 651 251 659T274 682Q275 684 279 684Q283 684 283 680Q283 678 275 667Q307 681 334 688T384 696Q417 696 435 678T453 633Q453 581 354 551Q400 547 429 530Q463
508 463 473Q463 434 440 403T373 347Q336 328 294 318T204 307ZM190 -110Q184 -110 184 -106Q188 -77 220 -26Q233 -5 262 33T331 119T415 221T503 326T585 422T651 495T688 534Q694 540 706 540Q718 540 728 535T737 522Q660 435 575 344T410 163T271 -7Q254
-30 243 -50T231 -82Q231 -92 216 -101T190 -110ZM726 -25Q720 -25 719 -20Q706 -4 706 13Q706 70 720 123Q672 136 639 136Q616 136 571 121Q552 115 538 111T522 107Q515 107 510 115T504 130Q504 144 516 147Q524 149 532 151T550 155Q727 253 835 350L839 358Q842
362 851 362Q862 362 869 357T874 347L811 241Q793 211 779 185T754 137Q777 130 795 127T829 123Q848 123 859 133T871 157Q871 159 871 161T869 166Q869 168 869 169T868 173Q866 179 866 181Q866 187 872 187Q877 187 883 181Q902 156 902 140Q902 104 829 104Q813
104 792 107T746 117Q725 63 725 13Q725 3 734 -9Q734 -10 735 -11Q735 -12 735 -12T736 -15Q736 -25 726 -25ZM726 146Q735 172 751 204T790 275L799 288Q765 262 716 231T601 162Q620 163 637 163Q669 163 726 146Z" />
<glyph unicode="&#xbf;" glyph-name="questiondown" horiz-adv-x="499" d="M332 170Q310 170 297 192Q296 193 296 196Q296 205 306 222Q319 245 326 247Q343 249 360 243T378 228Q378 223 374 217T364 202Q349 182 345 176T332 170ZM279 -329Q208 -329 146 -294Q81
-258 59 -200Q54 -187 54 -176Q54 -115 220 -37Q328 14 328 45Q328 65 284 73Q262 77 262 87Q262 91 271 91Q282 91 312 83Q376 67 376 33Q376 -8 302 -40Q191 -87 156 -109Q102 -143 102 -186Q102 -189 102 -192T103 -199Q107 -229 166 -264Q227 -301 292 -301Q335
-301 369 -283Q397 -268 397 -245Q397 -231 387 -215Q386 -212 373 -194Q373 -191 374 -190Q427 -213 427 -252Q427 -279 391 -300Q341 -329 279 -329Z" />
<glyph unicode="&#xc0;" glyph-name="Agrave" horiz-adv-x="1057" d="M229 -119Q171 -119 125 -98T49 -41Q4 15 4 98Q4 157 26 205Q70 307 172 380Q273 452 369 452Q429 452 470 422T511 336Q511 297 491 261T439 212Q437 212 435 213T434 216Q451 240 465 266T479
325Q479 356 461 379T414 416T355 430Q314 430 273 411T191 361Q103 292 71 184Q56 136 56 91Q56 5 115 -48Q139 -69 166 -80T224 -92Q325 -92 444 -19T698 204L607 202Q564 203 564 220Q564 240 606 262Q623 268 629 268Q638 268 640 254Q642 241 649 239Q666
238 685 238T726 237Q820 352 896 429T1039 553T1168 623Q1177 627 1190 627Q1224 627 1224 606Q1224 597 1214 587Q1080 445 1018 248Q1033 249 1046 250T1072 253Q1077 254 1080 254T1088 254Q1106 254 1106 249Q1106 233 1012 226Q987 144 987 73Q987 7 1007
-4Q1009 -5 1011 -5T1015 -6Q1024 -6 1033 3T1043 13Q1045 11 1045 6Q1045 -14 1033 -32T1003 -50Q992 -50 981 -41Q950 -16 950 54Q950 62 950 70T951 87Q953 116 958 150T973 224L731 207Q591 46 466 -36T229 -119ZM758 237Q796 238 851 240T978 245Q1025 407
1074 497Q1082 513 1091 528T1111 557Q1086 549 1055 530T996 488T950 450Q898 403 852 349T758 237ZM1251 680Q1245 680 1227 686Q1208 694 1182 710T1132 742Q1130 745 1128 749Q1128 757 1134 765T1146 774Q1150 774 1153 770Q1165 757 1189 738T1237 700Q1254
686 1254 682Q1254 680 1251 680Z" />
<glyph unicode="&#xc1;" glyph-name="Aacute" horiz-adv-x="1057" d="M229 -119Q171 -119 125 -98T49 -41Q4 15 4 98Q4 157 26 205Q70 307 172 380Q273 452 369 452Q429 452 470 422T511 336Q511 297 491 261T439 212Q437 212 435 213T434 216Q451 240 465 266T479
325Q479 356 461 379T414 416T355 430Q314 430 273 411T191 361Q103 292 71 184Q56 136 56 91Q56 5 115 -48Q139 -69 166 -80T224 -92Q325 -92 444 -19T698 204L607 202Q564 203 564 220Q564 240 606 262Q623 268 629 268Q638 268 640 254Q642 241 649 239Q666
238 685 238T726 237Q820 352 896 429T1039 553T1168 623Q1177 627 1190 627Q1224 627 1224 606Q1224 597 1214 587Q1080 445 1018 248Q1033 249 1046 250T1072 253Q1077 254 1080 254T1088 254Q1106 254 1106 249Q1106 233 1012 226Q987 144 987 73Q987 7 1007
-4Q1009 -5 1011 -5T1015 -6Q1024 -6 1033 3T1043 13Q1045 11 1045 6Q1045 -14 1033 -32T1003 -50Q992 -50 981 -41Q950 -16 950 54Q950 62 950 70T951 87Q953 116 958 150T973 224L731 207Q591 46 466 -36T229 -119ZM758 237Q796 238 851 240T978 245Q1025 407
1074 497Q1082 513 1091 528T1111 557Q1086 549 1055 530T996 488T950 450Q898 403 852 349T758 237ZM1158 680Q1155 680 1155 682Q1155 686 1172 700Q1196 718 1220 738T1255 771Q1260 774 1263 774Q1269 773 1275 765T1281 749Q1280 745 1277 742Q1253 726 1227
710T1181 687Q1172 684 1166 682T1158 680Z" />
<glyph unicode="&#xc2;" glyph-name="Acircumflex" horiz-adv-x="1057" d="M229 -119Q171 -119 125 -98T49 -41Q4 15 4 98Q4 157 26 205Q70 307 172 380Q273 452 369 452Q429 452 470 422T511 336Q511 297 491 261T439 212Q437 212 435 213T434 216Q451 240 465
266T479 325Q479 356 461 379T414 416T355 430Q314 430 273 411T191 361Q103 292 71 184Q56 136 56 91Q56 5 115 -48Q139 -69 166 -80T224 -92Q325 -92 444 -19T698 204L607 202Q564 203 564 220Q564 240 606 262Q623 268 629 268Q638 268 640 254Q642 241 649
239Q666 238 685 238T726 237Q820 352 896 429T1039 553T1168 623Q1177 627 1190 627Q1224 627 1224 606Q1224 597 1214 587Q1080 445 1018 248Q1033 249 1046 250T1072 253Q1077 254 1080 254T1088 254Q1106 254 1106 249Q1106 233 1012 226Q987 144 987 73Q987
7 1007 -4Q1009 -5 1011 -5T1015 -6Q1024 -6 1033 3T1043 13Q1045 11 1045 6Q1045 -14 1033 -32T1003 -50Q992 -50 981 -41Q950 -16 950 54Q950 62 950 70T951 87Q953 116 958 150T973 224L731 207Q591 46 466 -36T229 -119ZM758 237Q796 238 851 240T978 245Q1025
407 1074 497Q1082 513 1091 528T1111 557Q1086 549 1055 530T996 488T950 450Q898 403 852 349T758 237ZM1107 679Q1098 679 1098 686Q1098 691 1104 694Q1114 702 1122 707T1136 716Q1149 724 1174 738T1225 772Q1236 780 1243 780Q1252 780 1265 753Q1272 738
1291 720T1331 701Q1339 701 1345 702T1357 708Q1363 713 1369 713Q1373 713 1373 710Q1373 707 1368 702Q1355 690 1344 685T1309 679Q1285 679 1264 696T1234 732Q1230 742 1220 742Q1212 742 1201 734Q1182 720 1162 709T1115 681Q1113 680 1111 680T1107 679Z"
/>
<glyph unicode="&#xc3;" glyph-name="Atilde" horiz-adv-x="1057" d="M229 -119Q171 -119 125 -98T49 -41Q4 15 4 98Q4 157 26 205Q70 307 172 380Q273 452 369 452Q429 452 470 422T511 336Q511 297 491 261T439 212Q437 212 435 213T434 216Q451 240 465 266T479
325Q479 356 461 379T414 416T355 430Q314 430 273 411T191 361Q103 292 71 184Q56 136 56 91Q56 5 115 -48Q139 -69 166 -80T224 -92Q325 -92 444 -19T698 204L607 202Q564 203 564 220Q564 240 606 262Q623 268 629 268Q638 268 640 254Q642 241 649 239Q666
238 685 238T726 237Q820 352 896 429T1039 553T1168 623Q1177 627 1190 627Q1224 627 1224 606Q1224 597 1214 587Q1080 445 1018 248Q1033 249 1046 250T1072 253Q1077 254 1080 254T1088 254Q1106 254 1106 249Q1106 233 1012 226Q987 144 987 73Q987 7 1007
-4Q1009 -5 1011 -5T1015 -6Q1024 -6 1033 3T1043 13Q1045 11 1045 6Q1045 -14 1033 -32T1003 -50Q992 -50 981 -41Q950 -16 950 54Q950 62 950 70T951 87Q953 116 958 150T973 224L731 207Q591 46 466 -36T229 -119ZM758 237Q796 238 851 240T978 245Q1025 407
1074 497Q1082 513 1091 528T1111 557Q1086 549 1055 530T996 488T950 450Q898 403 852 349T758 237ZM1257 672Q1242 672 1222 679T1183 697Q1164 708 1153 711T1136 714Q1118 714 1106 685Q1103 680 1100 680Q1095 680 1095 689Q1095 693 1097 699T1104 713Q1127
747 1148 747Q1160 747 1172 741T1201 727L1251 705Q1264 701 1272 704Q1279 705 1284 710T1295 722Q1300 728 1302 732T1307 739Q1310 744 1313 744Q1318 744 1315 735Q1313 728 1312 722T1302 704Q1294 688 1281 680T1257 672Z" />
<glyph unicode="&#xc4;" glyph-name="Adieresis" horiz-adv-x="1057" d="M229 -119Q171 -119 125 -98T49 -41Q4 15 4 98Q4 157 26 205Q70 307 172 380Q273 452 369 452Q429 452 470 422T511 336Q511 297 491 261T439 212Q437 212 435 213T434 216Q451 240 465
266T479 325Q479 356 461 379T414 416T355 430Q314 430 273 411T191 361Q103 292 71 184Q56 136 56 91Q56 5 115 -48Q139 -69 166 -80T224 -92Q325 -92 444 -19T698 204L607 202Q564 203 564 220Q564 240 606 262Q623 268 629 268Q638 268 640 254Q642 241 649
239Q666 238 685 238T726 237Q820 352 896 429T1039 553T1168 623Q1177 627 1190 627Q1224 627 1224 606Q1224 597 1214 587Q1080 445 1018 248Q1033 249 1046 250T1072 253Q1077 254 1080 254T1088 254Q1106 254 1106 249Q1106 233 1012 226Q987 144 987 73Q987
7 1007 -4Q1009 -5 1011 -5T1015 -6Q1024 -6 1033 3T1043 13Q1045 11 1045 6Q1045 -14 1033 -32T1003 -50Q992 -50 981 -41Q950 -16 950 54Q950 62 950 70T951 87Q953 116 958 150T973 224L731 207Q591 46 466 -36T229 -119ZM758 237Q796 238 851 240T978 245Q1025
407 1074 497Q1082 513 1091 528T1111 557Q1086 549 1055 530T996 488T950 450Q898 403 852 349T758 237ZM1251 680Q1245 680 1239 692Q1231 709 1230 711T1228 716Q1228 734 1280 734Q1308 734 1308 727Q1308 726 1307 725Q1297 721 1280 710L1257 683Q1254 680
1251 680ZM1132 680Q1126 680 1120 692Q1112 709 1111 711T1109 716Q1109 734 1161 734Q1189 734 1189 727Q1189 726 1188 725Q1178 721 1161 710L1138 683Q1135 680 1132 680Z" />
<glyph unicode="&#xc5;" glyph-name="Aring" horiz-adv-x="1057" d="M229 -119Q171 -119 125 -98T49 -41Q4 15 4 98Q4 157 26 205Q70 307 172 380Q273 452 369 452Q429 452 470 422T511 336Q511 297 491 261T439 212Q437 212 435 213T434 216Q451 240 465 266T479
325Q479 356 461 379T414 416T355 430Q314 430 273 411T191 361Q103 292 71 184Q56 136 56 91Q56 5 115 -48Q139 -69 166 -80T224 -92Q325 -92 444 -19T698 204L607 202Q564 203 564 220Q564 240 606 262Q623 268 629 268Q638 268 640 254Q642 241 649 239Q666
238 685 238T726 237Q820 352 896 429T1039 553T1168 623Q1177 627 1190 627Q1224 627 1224 606Q1224 597 1214 587Q1080 445 1018 248Q1033 249 1046 250T1072 253Q1077 254 1080 254T1088 254Q1106 254 1106 249Q1106 233 1012 226Q987 144 987 73Q987 7 1007
-4Q1009 -5 1011 -5T1015 -6Q1024 -6 1033 3T1043 13Q1045 11 1045 6Q1045 -14 1033 -32T1003 -50Q992 -50 981 -41Q950 -16 950 54Q950 62 950 70T951 87Q953 116 958 150T973 224L731 207Q591 46 466 -36T229 -119ZM758 237Q796 238 851 240T978 245Q1025 407
1074 497Q1082 513 1091 528T1111 557Q1086 549 1055 530T996 488T950 450Q898 403 852 349T758 237ZM1204 676Q1181 676 1166 691T1150 729Q1150 759 1172 781T1224 804Q1248 804 1263 789T1279 751Q1279 720 1257 698T1204 676ZM1203 692Q1217 692 1230 705T1248
740Q1249 744 1249 747T1250 755Q1250 769 1244 778T1226 787Q1210 787 1195 767T1180 723Q1180 692 1203 692Z" />
<glyph unicode="&#xc6;" glyph-name="AE" horiz-adv-x="1193" d="M175 -71Q110 -71 69 -44Q22 -11 22 51Q22 195 280 280Q442 333 660 353Q801 517 926 577Q1057 640 1267 640Q1317 640 1354 637T1414 629Q1434 624 1434 611Q1434 595 1405 597Q1384 607 1320
607Q1160 607 1110 577Q1083 561 917 376Q921 372 928 372Q945 372 970 373T1029 376Q1063 378 1088 379T1131 381Q1216 381 1216 373Q1216 365 1179 358Q1166 355 1126 352T1020 344Q923 338 865 312Q840 301 788 204Q736 109 736 79Q736 7 847 7Q957 7 1137 87Q1162
99 1188 111T1243 135Q1243 134 1237 126Q1197 70 1045 14Q906 -37 823 -37Q698 -37 698 64Q698 171 822 332L674 321Q625 262 587 218T523 144Q474 91 436 55T370 -2Q276 -71 175 -71ZM698 352Q721 354 758 357T848 362L898 418Q921 443 953 482T1030 573Q1027
579 1017 586Q938 561 843 490Q754 423 698 352ZM159 -32Q250 -32 345 30Q381 53 421 87T501 169L633 321Q434 299 287 250Q46 174 46 54Q46 10 83 -12Q114 -32 159 -32Z" />
<glyph unicode="&#xc7;" glyph-name="Ccedilla" horiz-adv-x="737" d="M277 -105Q177 -105 118 -40Q64 20 64 112Q64 180 95 248Q151 370 256 469T519 630Q594 660 663 660Q731 660 773 632T815 555Q815 531 808 505T777 449Q722 376 648 330Q610 308 578 300T516
292Q445 292 434 360V364Q434 377 449 377Q463 377 464 364Q472 313 520 313Q567 313 628 355Q660 376 686 401T734 456Q781 521 781 565Q781 636 680 636Q611 636 536 602Q460 568 395 524T276 423Q194 338 153 245Q123 178 123 111Q123 34 163 -12Q210 -65 299
-65Q318 -65 339 -63T383 -55Q478 -34 609 48Q711 111 758 155Q790 185 801 185Q803 185 803 183Q803 176 790 164Q741 121 704 90T643 42Q585 0 529 -29T417 -78Q341 -105 277 -105ZM172 -45Q111 -45 103 -15V-13Q103 -5 108 2T119 9Q123 9 127 0Q131 -12 146
-18T181 -24Q211 -24 230 -12Q240 -4 245 6T250 25Q250 39 242 49T219 63Q217 64 206 65T174 67Q173 67 171 67T166 66Q160 65 156 66Q153 67 150 72V75Q149 76 149 77T150 79Q151 84 160 91T172 103L250 171Q253 175 256 175Q261 175 262 167L235 140Q231 135
220 124T199 103T189 91H191L209 90Q240 90 265 74T286 32Q282 10 264 -7T221 -35T172 -45Z" />
<glyph unicode="&#xc8;" glyph-name="Egrave" horiz-adv-x="836" d="M380 -124Q297 -124 234 -110T118 -61Q63 -24 35 28T6 141Q6 163 10 186T22 233Q-54 243 -54 282Q-54 292 -48 300T-34 309Q-30 309 -26 306Q-10 295 46 287Q77 345 130 395T257 490Q372 559
523 601Q643 635 710 635Q814 635 858 616T902 546Q902 518 879 518Q853 518 858 553Q863 588 815 603Q785 613 735 613Q605 613 419 532Q189 431 110 282Q126 281 142 281T174 281Q191 281 208 281T242 282Q331 285 497 309Q652 330 704 330Q797 330 797 282Q797
252 775 252Q763 252 763 275Q763 312 707 312Q688 312 638 304T506 278Q422 260 355 250T237 238Q213 237 176 235T87 230Q71 192 71 147Q71 103 88 59T146 -20Q242 -98 387 -98Q472 -98 549 -81T697 -35Q824 16 879 94Q899 121 909 121Q914 121 914 114Q914 104
905 87Q869 21 740 -42Q660 -82 568 -103T380 -124ZM680 682Q674 682 656 688Q637 696 611 712T561 744Q559 747 557 751Q557 759 563 767T575 776Q579 776 582 772Q594 759 618 740T666 702Q683 688 683 684Q683 682 680 682Z" />
<glyph unicode="&#xc9;" glyph-name="Eacute" horiz-adv-x="836" d="M380 -124Q297 -124 234 -110T118 -61Q63 -24 35 28T6 141Q6 163 10 186T22 233Q-54 243 -54 282Q-54 292 -48 300T-34 309Q-30 309 -26 306Q-10 295 46 287Q77 345 130 395T257 490Q372 559
523 601Q643 635 710 635Q814 635 858 616T902 546Q902 518 879 518Q853 518 858 553Q863 588 815 603Q785 613 735 613Q605 613 419 532Q189 431 110 282Q126 281 142 281T174 281Q191 281 208 281T242 282Q331 285 497 309Q652 330 704 330Q797 330 797 282Q797
252 775 252Q763 252 763 275Q763 312 707 312Q688 312 638 304T506 278Q422 260 355 250T237 238Q213 237 176 235T87 230Q71 192 71 147Q71 103 88 59T146 -20Q242 -98 387 -98Q472 -98 549 -81T697 -35Q824 16 879 94Q899 121 909 121Q914 121 914 114Q914 104
905 87Q869 21 740 -42Q660 -82 568 -103T380 -124ZM587 682Q584 682 584 684Q584 688 601 702Q625 720 649 740T684 773Q689 776 692 776Q698 775 704 767T710 751Q709 747 706 744Q682 728 656 712T610 689Q601 686 595 684T587 682Z" />
<glyph unicode="&#xca;" glyph-name="Ecircumflex" horiz-adv-x="836" d="M380 -124Q297 -124 234 -110T118 -61Q63 -24 35 28T6 141Q6 163 10 186T22 233Q-54 243 -54 282Q-54 292 -48 300T-34 309Q-30 309 -26 306Q-10 295 46 287Q77 345 130 395T257 490Q372
559 523 601Q643 635 710 635Q814 635 858 616T902 546Q902 518 879 518Q853 518 858 553Q863 588 815 603Q785 613 735 613Q605 613 419 532Q189 431 110 282Q126 281 142 281T174 281Q191 281 208 281T242 282Q331 285 497 309Q652 330 704 330Q797 330 797 282Q797
252 775 252Q763 252 763 275Q763 312 707 312Q688 312 638 304T506 278Q422 260 355 250T237 238Q213 237 176 235T87 230Q71 192 71 147Q71 103 88 59T146 -20Q242 -98 387 -98Q472 -98 549 -81T697 -35Q824 16 879 94Q899 121 909 121Q914 121 914 114Q914 104
905 87Q869 21 740 -42Q660 -82 568 -103T380 -124ZM536 681Q527 681 527 688Q527 693 533 696Q543 704 551 709T565 718Q578 726 603 740T654 774Q665 782 672 782Q681 782 694 755Q701 740 720 722T760 703Q768 703 774 704T786 710Q792 715 798 715Q802 715
802 712Q802 709 797 704Q784 692 773 687T738 681Q714 681 693 698T663 734Q659 744 649 744Q641 744 630 736Q611 722 591 711T544 683Q542 682 540 682T536 681Z" />
<glyph unicode="&#xcb;" glyph-name="Edieresis" horiz-adv-x="836" d="M380 -124Q297 -124 234 -110T118 -61Q63 -24 35 28T6 141Q6 163 10 186T22 233Q-54 243 -54 282Q-54 292 -48 300T-34 309Q-30 309 -26 306Q-10 295 46 287Q77 345 130 395T257 490Q372
559 523 601Q643 635 710 635Q814 635 858 616T902 546Q902 518 879 518Q853 518 858 553Q863 588 815 603Q785 613 735 613Q605 613 419 532Q189 431 110 282Q126 281 142 281T174 281Q191 281 208 281T242 282Q331 285 497 309Q652 330 704 330Q797 330 797 282Q797
252 775 252Q763 252 763 275Q763 312 707 312Q688 312 638 304T506 278Q422 260 355 250T237 238Q213 237 176 235T87 230Q71 192 71 147Q71 103 88 59T146 -20Q242 -98 387 -98Q472 -98 549 -81T697 -35Q824 16 879 94Q899 121 909 121Q914 121 914 114Q914 104
905 87Q869 21 740 -42Q660 -82 568 -103T380 -124ZM680 682Q674 682 668 694Q660 711 659 713T657 718Q657 736 709 736Q737 736 737 729Q737 728 736 727Q726 723 709 712L686 685Q683 682 680 682ZM561 682Q555 682 549 694Q541 711 540 713T538 718Q538 736
590 736Q618 736 618 729Q618 728 617 727Q607 723 590 712L567 685Q564 682 561 682Z" />
<glyph unicode="&#xcc;" glyph-name="Igrave" horiz-adv-x="522" d="M197 -47Q150 -47 111 -30T50 19T27 91Q27 113 35 137Q46 169 69 192T124 230Q163 248 201 248Q227 248 227 240Q227 233 210 231Q146 223 113 186T79 93Q79 38 114 3T206 -32Q271 -32 329 6T436
109T519 253T572 414Q583 468 589 513T595 593Q595 624 589 625Q579 628 551 612Q532 602 511 586T465 548Q443 529 423 498Q398 461 398 433Q398 409 419 395Q442 379 463 379Q472 379 484 383T505 388Q514 388 514 384Q514 378 485 370Q458 363 428 363Q398 363
376 378T354 422Q354 475 423 536Q541 642 616 642Q643 642 651 634T659 602Q659 549 629 438Q603 343 561 256T463 100T340 -7T197 -47ZM668 699Q662 699 644 705Q625 713 599 729T549 761Q547 764 545 768Q545 776 551 784T563 793Q567 793 570 789Q582 776 606
757T654 719Q671 705 671 701Q671 699 668 699Z" />
<glyph unicode="&#xcd;" glyph-name="Iacute" horiz-adv-x="522" d="M197 -47Q150 -47 111 -30T50 19T27 91Q27 113 35 137Q46 169 69 192T124 230Q163 248 201 248Q227 248 227 240Q227 233 210 231Q146 223 113 186T79 93Q79 38 114 3T206 -32Q271 -32 329 6T436
109T519 253T572 414Q583 468 589 513T595 593Q595 624 589 625Q579 628 551 612Q532 602 511 586T465 548Q443 529 423 498Q398 461 398 433Q398 409 419 395Q442 379 463 379Q472 379 484 383T505 388Q514 388 514 384Q514 378 485 370Q458 363 428 363Q398 363
376 378T354 422Q354 475 423 536Q541 642 616 642Q643 642 651 634T659 602Q659 549 629 438Q603 343 561 256T463 100T340 -7T197 -47ZM575 699Q572 699 572 701Q572 705 589 719Q613 737 637 757T672 790Q677 793 680 793Q686 792 692 784T698 768Q697 764 694
761Q670 745 644 729T598 706Q589 703 583 701T575 699Z" />
<glyph unicode="&#xce;" glyph-name="Icircumflex" horiz-adv-x="522" d="M197 -47Q150 -47 111 -30T50 19T27 91Q27 113 35 137Q46 169 69 192T124 230Q163 248 201 248Q227 248 227 240Q227 233 210 231Q146 223 113 186T79 93Q79 38 114 3T206 -32Q271 -32
329 6T436 109T519 253T572 414Q583 468 589 513T595 593Q595 624 589 625Q579 628 551 612Q532 602 511 586T465 548Q443 529 423 498Q398 461 398 433Q398 409 419 395Q442 379 463 379Q472 379 484 383T505 388Q514 388 514 384Q514 378 485 370Q458 363 428
363Q398 363 376 378T354 422Q354 475 423 536Q541 642 616 642Q643 642 651 634T659 602Q659 549 629 438Q603 343 561 256T463 100T340 -7T197 -47ZM524 698Q515 698 515 705Q515 710 521 713Q531 721 539 726T553 735Q566 743 591 757T642 791Q653 799 660 799Q669
799 682 772Q689 757 708 739T748 720Q756 720 762 721T774 727Q780 732 786 732Q790 732 790 729Q790 726 785 721Q772 709 761 704T726 698Q702 698 681 715T651 751Q647 761 637 761Q629 761 618 753Q599 739 579 728T532 700Q530 699 528 699T524 698Z" />
<glyph unicode="&#xcf;" glyph-name="Idieresis" horiz-adv-x="522" d="M197 -47Q150 -47 111 -30T50 19T27 91Q27 113 35 137Q46 169 69 192T124 230Q163 248 201 248Q227 248 227 240Q227 233 210 231Q146 223 113 186T79 93Q79 38 114 3T206 -32Q271 -32 329
6T436 109T519 253T572 414Q583 468 589 513T595 593Q595 624 589 625Q579 628 551 612Q532 602 511 586T465 548Q443 529 423 498Q398 461 398 433Q398 409 419 395Q442 379 463 379Q472 379 484 383T505 388Q514 388 514 384Q514 378 485 370Q458 363 428 363Q398
363 376 378T354 422Q354 475 423 536Q541 642 616 642Q643 642 651 634T659 602Q659 549 629 438Q603 343 561 256T463 100T340 -7T197 -47ZM668 699Q662 699 656 711Q648 728 647 730T645 735Q645 753 697 753Q725 753 725 746Q725 745 724 744Q714 740 697 729L674
702Q671 699 668 699ZM549 699Q543 699 537 711Q529 728 528 730T526 735Q526 753 578 753Q606 753 606 746Q606 745 605 744Q595 740 578 729L555 702Q552 699 549 699Z" />
<glyph unicode="&#xd0;" glyph-name="Eth" horiz-adv-x="817" d="M194 -93Q179 -93 162 -83Q151 -76 145 -73T137 -69Q101 -52 101 -6Q101 32 127 90Q209 267 345 447Q363 469 371 490Q376 503 386 510Q398 521 434 535Q470 549 489 549Q509 549 507 535Q506 531
482 514Q466 502 450 488T418 457Q372 411 298 298Q257 235 221 167T155 25Q143 -3 143 -24Q143 -58 175 -69Q372 -77 576 44Q775 162 849 322Q870 367 870 412Q870 505 785 569Q699 634 552 646Q524 648 496 649T441 651Q224 651 91 580Q-24 519 -24 437Q-24 359
82 328Q111 323 111 319Q111 313 86 309Q79 308 73 308T60 307Q55 307 50 307T40 308Q-93 341 -93 426Q-93 517 46 590Q201 671 435 671Q495 671 558 665Q729 648 828 579Q928 510 928 408Q928 362 907 314Q840 160 630 38Q416 -86 194 -93ZM131 466Q107 466 105
467Q99 470 96 480Q95 483 95 487Q95 493 99 494Q108 499 210 499Q363 499 363 486Q362 485 362 484T359 481Q350 473 232 469Q163 466 131 466Z" />
<glyph unicode="&#xd1;" glyph-name="Ntilde" horiz-adv-x="857" d="M808 -144Q796 -144 789 -140Q748 -119 748 -52Q748 36 809 210Q835 281 860 353T912 497Q913 501 913 504T914 510Q914 531 893 531Q870 531 827 509Q732 462 621 344Q484 199 378 -2Q380 -7
390 -11T395 -20Q395 -33 353 -33Q316 -33 316 -22Q316 7 338 68T407 224L502 414Q531 470 543 511T556 576Q556 629 468 629Q391 629 251 563Q172 525 114 461Q50 393 50 335Q50 298 79 274T154 249Q171 249 187 252L201 254Q140 231 116 231Q86 231 59 241Q7
260 7 320Q7 366 35 413Q59 455 125 508Q194 565 275 601Q376 647 471 647Q566 647 602 588Q604 582 604 576Q604 553 582 495T514 341L388 81Q390 78 490 231Q542 310 679 428Q811 542 862 556Q875 560 892 560Q928 560 953 540T979 497Q979 489 975 484Q900 370
849 202Q826 126 815 63T803 -51Q803 -127 834 -123Q844 -119 859 -115T895 -103Q898 -102 903 -102Q918 -102 877 -123Q837 -144 808 -144ZM959 605Q944 605 924 612T885 630Q866 641 855 644T838 647Q820 647 808 618Q805 613 802 613Q797 613 797 622Q797 626
799 632T806 646Q829 680 850 680Q862 680 874 674T903 660L953 638Q966 634 974 637Q981 638 986 643T997 655Q1002 661 1004 665T1009 672Q1012 677 1015 677Q1020 677 1017 668Q1015 661 1014 655T1004 637Q996 621 983 613T959 605Z" />
<glyph unicode="&#xd2;" glyph-name="Ograve" horiz-adv-x="933" d="M328 -70Q276 -70 235 -61Q144 -41 90 25Q34 93 34 186Q34 255 65 326T155 461Q119 494 119 540Q119 608 192 657Q271 709 402 709Q456 709 508 704T609 689Q637 693 661 695T705 697Q780 697
806 671Q827 649 827 640Q827 636 823 636Q815 636 801 645Q774 664 717 659Q842 612 905 525Q960 449 960 356Q960 248 895 165Q810 58 634 -10Q477 -70 328 -70ZM184 491Q255 559 343 605T537 676Q514 678 492 679T446 681Q436 681 426 681T405 680Q171 671 171
546Q171 518 184 491ZM317 -40Q449 -40 606 25Q763 91 827 176Q907 283 907 385Q907 484 833 558Q757 633 619 663Q564 661 510 648T403 611Q284 559 200 463Q207 453 216 441T227 427Q227 425 226 424Q214 427 204 431T183 441Q77 310 77 174Q77 69 147 12Q211
-40 317 -40ZM766 750Q760 750 742 756Q723 764 697 780T647 812Q645 815 643 819Q643 827 649 835T661 844Q665 844 668 840Q680 827 704 808T752 770Q769 756 769 752Q769 750 766 750Z" />
<glyph unicode="&#xd3;" glyph-name="Oacute" horiz-adv-x="933" d="M328 -70Q276 -70 235 -61Q144 -41 90 25Q34 93 34 186Q34 255 65 326T155 461Q119 494 119 540Q119 608 192 657Q271 709 402 709Q456 709 508 704T609 689Q637 693 661 695T705 697Q780 697
806 671Q827 649 827 640Q827 636 823 636Q815 636 801 645Q774 664 717 659Q842 612 905 525Q960 449 960 356Q960 248 895 165Q810 58 634 -10Q477 -70 328 -70ZM184 491Q255 559 343 605T537 676Q514 678 492 679T446 681Q436 681 426 681T405 680Q171 671 171
546Q171 518 184 491ZM317 -40Q449 -40 606 25Q763 91 827 176Q907 283 907 385Q907 484 833 558Q757 633 619 663Q564 661 510 648T403 611Q284 559 200 463Q207 453 216 441T227 427Q227 425 226 424Q214 427 204 431T183 441Q77 310 77 174Q77 69 147 12Q211
-40 317 -40ZM673 750Q670 750 670 752Q670 756 687 770Q711 788 735 808T770 841Q775 844 778 844Q784 843 790 835T796 819Q795 815 792 812Q768 796 742 780T696 757Q687 754 681 752T673 750Z" />
<glyph unicode="&#xd4;" glyph-name="Ocircumflex" horiz-adv-x="933" d="M328 -70Q276 -70 235 -61Q144 -41 90 25Q34 93 34 186Q34 255 65 326T155 461Q119 494 119 540Q119 608 192 657Q271 709 402 709Q456 709 508 704T609 689Q637 693 661 695T705 697Q780
697 806 671Q827 649 827 640Q827 636 823 636Q815 636 801 645Q774 664 717 659Q842 612 905 525Q960 449 960 356Q960 248 895 165Q810 58 634 -10Q477 -70 328 -70ZM184 491Q255 559 343 605T537 676Q514 678 492 679T446 681Q436 681 426 681T405 680Q171 671
171 546Q171 518 184 491ZM317 -40Q449 -40 606 25Q763 91 827 176Q907 283 907 385Q907 484 833 558Q757 633 619 663Q564 661 510 648T403 611Q284 559 200 463Q207 453 216 441T227 427Q227 425 226 424Q214 427 204 431T183 441Q77 310 77 174Q77 69 147 12Q211
-40 317 -40ZM622 749Q613 749 613 756Q613 761 619 764Q629 772 637 777T651 786Q664 794 689 808T740 842Q751 850 758 850Q767 850 780 823Q787 808 806 790T846 771Q854 771 860 772T872 778Q878 783 884 783Q888 783 888 780Q888 777 883 772Q870 760 859
755T824 749Q800 749 779 766T749 802Q745 812 735 812Q727 812 716 804Q697 790 677 779T630 751Q628 750 626 750T622 749Z" />
<glyph unicode="&#xd5;" glyph-name="Otilde" horiz-adv-x="933" d="M328 -70Q276 -70 235 -61Q144 -41 90 25Q34 93 34 186Q34 255 65 326T155 461Q119 494 119 540Q119 608 192 657Q271 709 402 709Q456 709 508 704T609 689Q637 693 661 695T705 697Q780 697
806 671Q827 649 827 640Q827 636 823 636Q815 636 801 645Q774 664 717 659Q842 612 905 525Q960 449 960 356Q960 248 895 165Q810 58 634 -10Q477 -70 328 -70ZM184 491Q255 559 343 605T537 676Q514 678 492 679T446 681Q436 681 426 681T405 680Q171 671 171
546Q171 518 184 491ZM317 -40Q449 -40 606 25Q763 91 827 176Q907 283 907 385Q907 484 833 558Q757 633 619 663Q564 661 510 648T403 611Q284 559 200 463Q207 453 216 441T227 427Q227 425 226 424Q214 427 204 431T183 441Q77 310 77 174Q77 69 147 12Q211
-40 317 -40ZM772 742Q757 742 737 749T698 767Q679 778 668 781T651 784Q633 784 621 755Q618 750 615 750Q610 750 610 759Q610 763 612 769T619 783Q642 817 663 817Q675 817 687 811T716 797L766 775Q779 771 787 774Q794 775 799 780T810 792Q815 798 817
802T822 809Q825 814 828 814Q833 814 830 805Q828 798 827 792T817 774Q809 758 796 750T772 742Z" />
<glyph unicode="&#xd6;" glyph-name="Odieresis" horiz-adv-x="933" d="M328 -70Q276 -70 235 -61Q144 -41 90 25Q34 93 34 186Q34 255 65 326T155 461Q119 494 119 540Q119 608 192 657Q271 709 402 709Q456 709 508 704T609 689Q637 693 661 695T705 697Q780
697 806 671Q827 649 827 640Q827 636 823 636Q815 636 801 645Q774 664 717 659Q842 612 905 525Q960 449 960 356Q960 248 895 165Q810 58 634 -10Q477 -70 328 -70ZM184 491Q255 559 343 605T537 676Q514 678 492 679T446 681Q436 681 426 681T405 680Q171 671
171 546Q171 518 184 491ZM317 -40Q449 -40 606 25Q763 91 827 176Q907 283 907 385Q907 484 833 558Q757 633 619 663Q564 661 510 648T403 611Q284 559 200 463Q207 453 216 441T227 427Q227 425 226 424Q214 427 204 431T183 441Q77 310 77 174Q77 69 147 12Q211
-40 317 -40ZM766 750Q760 750 754 762Q746 779 745 781T743 786Q743 804 795 804Q823 804 823 797Q823 796 822 795Q812 791 795 780L772 753Q769 750 766 750ZM647 750Q641 750 635 762Q627 779 626 781T624 786Q624 804 676 804Q704 804 704 797Q704 796 703
795Q693 791 676 780L653 753Q650 750 647 750Z" />
<glyph unicode="&#xd7;" glyph-name="multiply" horiz-adv-x="389" d="M57 155Q53 160 55 167T62 179Q64 180 74 188T98 205T123 223T137 234Q134 238 124 249T101 275T82 302T79 319Q84 324 91 325T103 321Q120 304 137 289T171 256Q199 276 228 296T285 338Q291
333 280 320T260 298Q244 281 227 266T192 235Q201 226 210 216T229 196Q250 176 271 159L268 156Q264 151 250 158T218 176T185 198T165 213Q160 209 145 199T110 177T76 159T57 155Z" />
<glyph unicode="&#xd8;" glyph-name="Oslash" horiz-adv-x="933" d="M108 -165Q103 -164 104 -158Q115 -113 160 -39Q179 -9 218 46T310 171T420 317T536 467T643 603T728 708T775 762Q782 770 795 768Q807 765 816 755T822 733Q747 640 666 544T505 352T351 162T216
-18Q192 -52 177 -81T157 -128Q155 -140 146 -148T126 -161T108 -165ZM328 -70Q276 -70 235 -61Q144 -41 90 25Q34 93 34 186Q34 255 65 326T155 461Q119 494 119 540Q119 608 192 657Q271 709 402 709Q456 709 508 704T609 689Q637 693 661 695T705 697Q780 697
806 671Q827 649 827 640Q827 636 823 636Q815 636 801 645Q774 664 717 659Q842 612 905 525Q960 449 960 356Q960 248 895 165Q810 58 634 -10Q477 -70 328 -70ZM184 491Q255 559 343 605T537 676Q514 678 492 679T446 681Q436 681 426 681T405 680Q171 671 171
546Q171 518 184 491ZM317 -40Q449 -40 606 25Q763 91 827 176Q907 283 907 385Q907 484 833 558Q757 633 619 663Q564 661 510 648T403 611Q284 559 200 463Q207 453 216 441T227 427Q227 425 226 424Q214 427 204 431T183 441Q77 310 77 174Q77 69 147 12Q211
-40 317 -40Z" />
<glyph unicode="&#xd9;" glyph-name="Ugrave" horiz-adv-x="897" d="M845 -84Q826 -84 802 -55Q791 -41 791 -12Q791 83 888 287Q821 165 737 86Q628 -16 515 -16Q504 -16 492 -15T469 -12Q407 0 407 81Q407 123 419 165T456 248L563 421Q595 473 610 510T625
569Q625 597 601 604Q553 619 508 619Q424 619 300 569Q219 536 151 471Q80 402 80 346Q80 314 110 291Q134 273 191 273Q202 273 232 276T311 286L276 276Q235 264 204 259T149 253Q115 253 86 262Q37 278 37 334Q37 379 65 419Q124 503 284 581Q407 640 542 640Q660
640 673 580Q679 554 611 432Q575 368 553 328T517 265T497 229T486 207T477 183Q454 120 454 79Q454 7 522 7Q530 7 540 8T561 12Q714 47 827 215Q910 338 926 431Q927 444 954 444Q972 444 988 438T1004 420Q1004 419 1002 413Q962 349 930 285T873 157Q829 42
829 -20Q829 -42 836 -52Q849 -71 849 -80Q849 -84 845 -84ZM890 566Q884 566 866 572Q847 580 821 596T771 628Q769 631 767 635Q767 643 773 651T785 660Q789 660 792 656Q804 643 828 624T876 586Q893 572 893 568Q893 566 890 566Z" />
<glyph unicode="&#xda;" glyph-name="Uacute" horiz-adv-x="897" d="M845 -84Q826 -84 802 -55Q791 -41 791 -12Q791 83 888 287Q821 165 737 86Q628 -16 515 -16Q504 -16 492 -15T469 -12Q407 0 407 81Q407 123 419 165T456 248L563 421Q595 473 610 510T625
569Q625 597 601 604Q553 619 508 619Q424 619 300 569Q219 536 151 471Q80 402 80 346Q80 314 110 291Q134 273 191 273Q202 273 232 276T311 286L276 276Q235 264 204 259T149 253Q115 253 86 262Q37 278 37 334Q37 379 65 419Q124 503 284 581Q407 640 542 640Q660
640 673 580Q679 554 611 432Q575 368 553 328T517 265T497 229T486 207T477 183Q454 120 454 79Q454 7 522 7Q530 7 540 8T561 12Q714 47 827 215Q910 338 926 431Q927 444 954 444Q972 444 988 438T1004 420Q1004 419 1002 413Q962 349 930 285T873 157Q829 42
829 -20Q829 -42 836 -52Q849 -71 849 -80Q849 -84 845 -84ZM797 566Q794 566 794 568Q794 572 811 586Q835 604 859 624T894 657Q899 660 902 660Q908 659 914 651T920 635Q919 631 916 628Q892 612 866 596T820 573Q811 570 805 568T797 566Z" />
<glyph unicode="&#xdb;" glyph-name="Ucircumflex" horiz-adv-x="897" d="M845 -84Q826 -84 802 -55Q791 -41 791 -12Q791 83 888 287Q821 165 737 86Q628 -16 515 -16Q504 -16 492 -15T469 -12Q407 0 407 81Q407 123 419 165T456 248L563 421Q595 473 610 510T625
569Q625 597 601 604Q553 619 508 619Q424 619 300 569Q219 536 151 471Q80 402 80 346Q80 314 110 291Q134 273 191 273Q202 273 232 276T311 286L276 276Q235 264 204 259T149 253Q115 253 86 262Q37 278 37 334Q37 379 65 419Q124 503 284 581Q407 640 542 640Q660
640 673 580Q679 554 611 432Q575 368 553 328T517 265T497 229T486 207T477 183Q454 120 454 79Q454 7 522 7Q530 7 540 8T561 12Q714 47 827 215Q910 338 926 431Q927 444 954 444Q972 444 988 438T1004 420Q1004 419 1002 413Q962 349 930 285T873 157Q829 42
829 -20Q829 -42 836 -52Q849 -71 849 -80Q849 -84 845 -84ZM746 565Q737 565 737 572Q737 577 743 580Q753 588 761 593T775 602Q788 610 813 624T864 658Q875 666 882 666Q891 666 904 639Q911 624 930 606T970 587Q978 587 984 588T996 594Q1002 599 1008 599Q1012
599 1012 596Q1012 593 1007 588Q994 576 983 571T948 565Q924 565 903 582T873 618Q869 628 859 628Q851 628 840 620Q821 606 801 595T754 567Q752 566 750 566T746 565Z" />
<glyph unicode="&#xdc;" glyph-name="Udieresis" horiz-adv-x="897" d="M845 -84Q826 -84 802 -55Q791 -41 791 -12Q791 83 888 287Q821 165 737 86Q628 -16 515 -16Q504 -16 492 -15T469 -12Q407 0 407 81Q407 123 419 165T456 248L563 421Q595 473 610 510T625
569Q625 597 601 604Q553 619 508 619Q424 619 300 569Q219 536 151 471Q80 402 80 346Q80 314 110 291Q134 273 191 273Q202 273 232 276T311 286L276 276Q235 264 204 259T149 253Q115 253 86 262Q37 278 37 334Q37 379 65 419Q124 503 284 581Q407 640 542 640Q660
640 673 580Q679 554 611 432Q575 368 553 328T517 265T497 229T486 207T477 183Q454 120 454 79Q454 7 522 7Q530 7 540 8T561 12Q714 47 827 215Q910 338 926 431Q927 444 954 444Q972 444 988 438T1004 420Q1004 419 1002 413Q962 349 930 285T873 157Q829 42
829 -20Q829 -42 836 -52Q849 -71 849 -80Q849 -84 845 -84ZM890 566Q884 566 878 578Q870 595 869 597T867 602Q867 620 919 620Q947 620 947 613Q947 612 946 611Q936 607 919 596L896 569Q893 566 890 566ZM771 566Q765 566 759 578Q751 595 750 597T748 602Q748
620 800 620Q828 620 828 613Q828 612 827 611Q817 607 800 596L777 569Q774 566 771 566Z" />
<glyph unicode="&#xdd;" glyph-name="Yacute" horiz-adv-x="728" d="M65 -388Q-9 -388 -53 -356T-98 -260Q-98 -192 -41 -143Q-33 -137 -30 -137Q-24 -137 -24 -143Q-24 -154 -35 -163Q-73 -196 -73 -244Q-73 -296 -35 -328T59 -360Q166 -360 297 -244Q442 -115
595 144Q673 276 740 375T865 542Q918 604 974 647T1074 700Q1076 701 1079 701T1084 701Q1108 701 1108 685Q1108 669 1078 656Q1003 625 892 488T622 103Q534 -34 456 -131T308 -287Q186 -388 65 -388ZM420 -30Q413 -30 406 -27T400 -19Q413 39 423 96T433 212Q433
348 393 450Q336 595 222 595Q181 595 147 570T91 505T70 419Q70 381 84 347T126 281Q181 220 245 220Q254 220 268 224T289 228Q297 228 297 221Q297 210 280 204Q255 195 225 195Q150 195 91 251Q27 312 27 402Q27 438 40 476T77 547T137 600T219 621Q353 621
425 457Q480 334 480 182Q480 134 475 87T460 -6Q458 -16 445 -23T420 -30ZM590 650Q587 650 587 652Q587 656 604 670Q628 688 652 708T687 741Q692 744 695 744Q701 743 707 735T713 719Q712 715 709 712Q685 696 659 680T613 657Q604 654 598 652T590 650Z"
/>
<glyph unicode="&#xde;" glyph-name="Thorn" horiz-adv-x="600" d="M111 -292Q90 -292 74 -278T57 -232Q57 -206 71 -161T106 -56Q126 -3 153 60T213 192T277 328T340 454Q318 446 296 431T258 400T236 370Q235 366 235 362T235 353Q234 351 234 349T233 345Q233
342 230 340T225 338Q220 338 215 351Q213 357 213 363Q213 387 224 417Q232 443 249 458Q265 472 294 484T361 506Q396 575 426 628T475 707Q478 710 481 710T489 711Q500 711 508 703T518 674Q511 664 489 623T434 521Q464 524 505 524Q547 524 592 519T675 501T736
464T760 405Q760 385 751 361Q731 306 685 254T576 159T439 92T292 67Q270 67 249 69T207 77Q188 38 173 4T147 -56Q143 -66 139 -78T129 -102Q118 -133 111 -163T103 -219Q103 -235 106 -247T119 -269Q121 -271 124 -275T128 -284Q128 -292 111 -292ZM260 100Q307
100 362 114T472 153T576 213T661 288T714 374Q720 392 720 406Q720 434 699 449T644 471T571 477Q523 477 480 475T408 468Q380 415 346 351T278 222T217 103Q237 100 260 100Z" />
<glyph unicode="&#xdf;" glyph-name="germandbls" horiz-adv-x="455" d="M-74 -129Q-94 -129 -111 -121T-137 -95Q-141 -86 -141 -76Q-141 -56 -126 -56Q-109 -56 -98 -85Q-91 -104 -75 -104Q-59 -104 -38 -89T3 -49T37 0Q54 32 74 75T115 161T151 241T174 294L131
287Q127 286 124 286T117 286Q91 286 91 300Q91 311 96 314T112 317H183Q196 339 216 372T261 443Q292 484 319 500Q332 506 350 510T394 515Q437 515 458 492T480 433Q480 405 467 373T424 308Q410 292 402 286T384 280Q340 280 316 264T292 228Q292 214 307 202T355
186Q402 181 430 168T458 129Q458 99 437 72T380 25T303 -7T223 -19Q190 -19 163 -10Q157 -8 157 -1Q157 4 160 8T171 10Q183 8 195 7T219 6Q268 6 310 21T378 63T404 120Q404 133 390 140T352 151Q327 154 303 160T263 177T247 204Q247 244 284 275T394 306Q420
343 431 375T443 432Q443 461 430 477T395 493Q376 493 353 480T303 436Q289 420 273 393T240 335T212 277T192 233Q176 194 153 144T103 43T47 -49T-11 -110Q-38 -129 -74 -129Z" />
<glyph unicode="&#xe0;" glyph-name="agrave" horiz-adv-x="360" d="M280 -11Q260 -11 244 2T224 27Q221 41 261 127L238 94Q223 72 208 55T180 25Q142 -11 116 -5Q56 9 56 63Q56 106 97 173Q110 193 130 213T176 252Q243 301 305 301Q343 301 377 281Q388 273
388 264Q388 257 384 257Q383 257 382 258Q361 281 326 281Q285 281 237 250T151 167Q97 92 97 45Q97 18 116 11Q140 1 218 100Q250 139 271 170T306 223Q312 234 328 234Q358 234 358 216Q358 213 357 212Q270 74 270 25Q270 13 277 12Q298 6 347 43Q406 87 458
160Q469 175 478 175Q481 175 481 173Q481 168 472 154Q451 121 426 92T369 38Q325 1 297 -8Q290 -11 280 -11ZM362 354Q358 354 339 362Q321 370 296 388T248 424Q245 427 245 431Q245 439 251 447T264 455Q268 455 271 451Q282 437 305 416T350 375Q365 360 365
356Q365 354 362 354Z" />
<glyph unicode="&#xe1;" glyph-name="aacute" horiz-adv-x="360" d="M280 -11Q260 -11 244 2T224 27Q221 41 261 127L238 94Q223 72 208 55T180 25Q142 -11 116 -5Q56 9 56 63Q56 106 97 173Q110 193 130 213T176 252Q243 301 305 301Q343 301 377 281Q388 273
388 264Q388 257 384 257Q383 257 382 258Q361 281 326 281Q285 281 237 250T151 167Q97 92 97 45Q97 18 116 11Q140 1 218 100Q250 139 271 170T306 223Q312 234 328 234Q358 234 358 216Q358 213 357 212Q270 74 270 25Q270 13 277 12Q298 6 347 43Q406 87 458
160Q469 175 478 175Q481 175 481 173Q481 168 472 154Q451 121 426 92T369 38Q325 1 297 -8Q290 -11 280 -11ZM276 355Q274 355 274 357Q274 361 289 376Q312 396 334 417T367 452Q371 456 375 456Q381 456 387 448T394 432Q394 428 391 425Q368 407 343 389T299
363Q280 355 276 355Z" />
<glyph unicode="&#xe2;" glyph-name="acircumflex" horiz-adv-x="360" d="M280 -11Q260 -11 244 2T224 27Q221 41 261 127L238 94Q223 72 208 55T180 25Q142 -11 116 -5Q56 9 56 63Q56 106 97 173Q110 193 130 213T176 252Q243 301 305 301Q343 301 377 281Q388
273 388 264Q388 257 384 257Q383 257 382 258Q361 281 326 281Q285 281 237 250T151 167Q97 92 97 45Q97 18 116 11Q140 1 218 100Q250 139 271 170T306 223Q312 234 328 234Q358 234 358 216Q358 213 357 212Q270 74 270 25Q270 13 277 12Q298 6 347 43Q406 87
458 160Q469 175 478 175Q481 175 481 173Q481 168 472 154Q451 121 426 92T369 38Q325 1 297 -8Q290 -11 280 -11ZM232 353Q223 353 223 360Q223 365 229 368Q239 376 247 381T261 390Q274 398 294 412T340 446Q351 454 358 454Q367 454 380 427Q387 412 400 394T434
375Q442 375 448 376T460 382Q466 387 472 387Q476 387 476 384Q476 381 471 376Q458 364 447 359T412 353Q388 353 373 370T349 406Q345 416 335 416Q327 416 316 408Q297 394 282 383T240 355Q238 354 236 354T232 353Z" />
<glyph unicode="&#xe3;" glyph-name="atilde" horiz-adv-x="360" d="M280 -11Q260 -11 244 2T224 27Q221 41 261 127L238 94Q223 72 208 55T180 25Q142 -11 116 -5Q56 9 56 63Q56 106 97 173Q110 193 130 213T176 252Q243 301 305 301Q343 301 377 281Q388 273
388 264Q388 257 384 257Q383 257 382 258Q361 281 326 281Q285 281 237 250T151 167Q97 92 97 45Q97 18 116 11Q140 1 218 100Q250 139 271 170T306 223Q312 234 328 234Q358 234 358 216Q358 213 357 212Q270 74 270 25Q270 13 277 12Q298 6 347 43Q406 87 458
160Q469 175 478 175Q481 175 481 173Q481 168 472 154Q451 121 426 92T369 38Q325 1 297 -8Q290 -11 280 -11ZM367 346Q352 346 335 353T298 371Q279 382 268 385T251 388Q233 388 221 359Q218 354 215 354Q210 354 210 363Q210 367 212 373T219 387Q242 421 264
421Q275 421 288 415T316 401L361 379Q374 375 382 378Q389 379 394 384T405 396Q410 402 412 406T417 413Q420 418 423 418Q430 418 425 409Q423 402 422 396T412 378Q403 362 391 354T367 346Z" />
<glyph unicode="&#xe4;" glyph-name="adieresis" horiz-adv-x="360" d="M280 -11Q260 -11 244 2T224 27Q221 41 261 127L238 94Q223 72 208 55T180 25Q142 -11 116 -5Q56 9 56 63Q56 106 97 173Q110 193 130 213T176 252Q243 301 305 301Q343 301 377 281Q388
273 388 264Q388 257 384 257Q383 257 382 258Q361 281 326 281Q285 281 237 250T151 167Q97 92 97 45Q97 18 116 11Q140 1 218 100Q250 139 271 170T306 223Q312 234 328 234Q358 234 358 216Q358 213 357 212Q270 74 270 25Q270 13 277 12Q298 6 347 43Q406 87
458 160Q469 175 478 175Q481 175 481 173Q481 168 472 154Q451 121 426 92T369 38Q325 1 297 -8Q290 -11 280 -11ZM378 354Q372 354 366 366Q358 383 357 385T355 390Q355 408 407 408Q435 408 435 401Q435 400 434 399Q424 395 407 384L384 357Q381 354 378 354ZM266
354Q260 354 254 366Q246 383 245 385T243 390Q243 408 295 408Q323 408 323 401Q323 400 322 399Q312 395 295 384L272 357Q269 354 266 354Z" />
<glyph unicode="&#xe5;" glyph-name="aring" horiz-adv-x="360" d="M280 -11Q260 -11 244 2T224 27Q221 41 261 127L238 94Q223 72 208 55T180 25Q142 -11 116 -5Q56 9 56 63Q56 106 97 173Q110 193 130 213T176 252Q243 301 305 301Q343 301 377 281Q388 273
388 264Q388 257 384 257Q383 257 382 258Q361 281 326 281Q285 281 237 250T151 167Q97 92 97 45Q97 18 116 11Q140 1 218 100Q250 139 271 170T306 223Q312 234 328 234Q358 234 358 216Q358 213 357 212Q270 74 270 25Q270 13 277 12Q298 6 347 43Q406 87 458
160Q469 175 478 175Q481 175 481 173Q481 168 472 154Q451 121 426 92T369 38Q325 1 297 -8Q290 -11 280 -11ZM319 350Q296 350 281 365T265 403Q265 433 287 455T339 478Q363 478 378 463T394 425Q394 394 372 372T319 350ZM318 366Q332 366 345 379T363 414Q364
418 364 421T365 429Q365 443 359 452T341 461Q325 461 310 441T295 397Q295 366 318 366Z" />
<glyph unicode="&#xe6;" glyph-name="ae" horiz-adv-x="462" d="M321 -8Q292 -8 270 6Q241 26 241 64Q241 87 251 113Q164 -16 116 -5Q56 9 56 63Q56 106 97 173Q110 193 130 213T176 252Q243 301 305 301Q357 301 382 277Q432 314 460 314Q490 314 503 295Q511
284 511 270Q511 228 443 178Q423 164 401 153T352 136L309 127Q285 84 285 55Q285 15 332 15Q369 15 422 46Q493 87 544 160Q552 172 559 172Q562 172 562 168Q562 163 555 153Q458 7 336 -7Q332 -8 329 -8T321 -8ZM321 144Q349 144 393 169Q456 204 480 259Q487
273 487 282Q487 291 480 291Q467 291 427 259Q398 234 371 206T318 145Q317 144 321 144ZM116 11Q140 1 218 100Q250 139 271 170T306 223Q314 235 331 234Q340 243 350 251T370 268Q353 281 326 281Q285 281 237 250T151 167Q97 92 97 45Q97 18 116 11Z" />
<glyph unicode="&#xe7;" glyph-name="ccedilla" horiz-adv-x="282" d="M149 -8Q128 -8 107 2T70 32T55 82Q55 122 85 173T164 263Q195 288 216 297Q246 310 273 310Q307 310 326 288Q336 278 336 267Q336 249 319 249Q307 249 301 264Q294 285 271 285Q243 285
208 254Q169 223 137 169Q102 111 102 67Q102 24 128 13Q137 9 151 9Q199 9 260 49Q327 92 375 160Q386 175 395 175Q398 175 398 173Q398 168 389 154Q343 83 260 32Q222 9 200 1T149 -8ZM100 -155Q75 -155 62 -146T46 -124Q46 -123 46 -123T45 -121Q45 -113 51
-107T62 -100Q70 -100 70 -109Q68 -126 81 -133T111 -140Q123 -140 134 -138T152 -132Q172 -122 172 -104Q172 -94 166 -86T152 -75Q150 -74 140 -73T108 -71Q107 -71 105 -71T100 -72Q93 -73 90 -72Q86 -70 84 -66V-63Q83 -62 83 -59Q85 -54 92 -47T106 -35L151
1Q155 5 158 5Q163 5 163 -3L137 -30Q130 -37 124 -43T115 -54Q123 -52 130 -52T142 -51Q169 -51 185 -58T201 -86Q201 -89 201 -92T200 -98Q197 -115 181 -128T142 -148T100 -155Z" />
<glyph unicode="&#xe8;" glyph-name="egrave" horiz-adv-x="252" d="M112 -8Q83 -8 61 6Q32 26 32 64Q32 105 67 164Q114 241 205 299Q228 314 251 314Q281 314 294 295Q302 284 302 270Q302 228 234 178Q214 164 192 153T143 136L100 127Q76 84 76 55Q76 15 123
15Q160 15 213 46Q284 87 335 160Q343 172 350 172Q353 172 353 168Q353 163 346 153Q249 7 127 -7Q123 -8 120 -8T112 -8ZM112 144Q140 144 184 169Q246 204 271 259Q278 273 278 282Q278 291 271 291Q258 291 218 259Q189 234 162 206T109 145Q108 144 112 144ZM293
353Q289 353 270 361Q252 369 227 387T179 423Q176 426 176 430Q176 438 182 446T195 454Q199 454 202 450Q213 436 236 415T281 374Q296 359 296 355Q296 353 293 353Z" />
<glyph unicode="&#xe9;" glyph-name="eacute" horiz-adv-x="252" d="M112 -8Q83 -8 61 6Q32 26 32 64Q32 105 67 164Q114 241 205 299Q228 314 251 314Q281 314 294 295Q302 284 302 270Q302 228 234 178Q214 164 192 153T143 136L100 127Q76 84 76 55Q76 15 123
15Q160 15 213 46Q284 87 335 160Q343 172 350 172Q353 172 353 168Q353 163 346 153Q249 7 127 -7Q123 -8 120 -8T112 -8ZM112 144Q140 144 184 169Q246 204 271 259Q278 273 278 282Q278 291 271 291Q258 291 218 259Q189 234 162 206T109 145Q108 144 112 144ZM207
354Q205 354 205 356Q205 360 220 375Q243 395 265 416T298 451Q302 455 306 455Q312 455 318 447T325 431Q325 427 322 424Q299 406 274 388T230 362Q211 354 207 354Z" />
<glyph unicode="&#xea;" glyph-name="ecircumflex" horiz-adv-x="252" d="M112 -8Q83 -8 61 6Q32 26 32 64Q32 105 67 164Q114 241 205 299Q228 314 251 314Q281 314 294 295Q302 284 302 270Q302 228 234 178Q214 164 192 153T143 136L100 127Q76 84 76 55Q76
15 123 15Q160 15 213 46Q284 87 335 160Q343 172 350 172Q353 172 353 168Q353 163 346 153Q249 7 127 -7Q123 -8 120 -8T112 -8ZM112 144Q140 144 184 169Q246 204 271 259Q278 273 278 282Q278 291 271 291Q258 291 218 259Q189 234 162 206T109 145Q108 144
112 144ZM163 352Q154 352 154 359Q154 364 160 367Q170 375 178 380T192 389Q205 397 225 411T271 445Q282 453 289 453Q298 453 311 426Q318 411 331 393T365 374Q373 374 379 375T391 381Q397 386 403 386Q407 386 407 383Q407 380 402 375Q389 363 378 358T343
352Q319 352 304 369T280 405Q276 415 266 415Q258 415 247 407Q228 393 213 382T171 354Q169 353 167 353T163 352Z" />
<glyph unicode="&#xeb;" glyph-name="edieresis" horiz-adv-x="252" d="M112 -8Q83 -8 61 6Q32 26 32 64Q32 105 67 164Q114 241 205 299Q228 314 251 314Q281 314 294 295Q302 284 302 270Q302 228 234 178Q214 164 192 153T143 136L100 127Q76 84 76 55Q76 15
123 15Q160 15 213 46Q284 87 335 160Q343 172 350 172Q353 172 353 168Q353 163 346 153Q249 7 127 -7Q123 -8 120 -8T112 -8ZM112 144Q140 144 184 169Q246 204 271 259Q278 273 278 282Q278 291 271 291Q258 291 218 259Q189 234 162 206T109 145Q108 144 112
144ZM309 353Q303 353 297 365Q289 382 288 384T286 389Q286 407 338 407Q366 407 366 400Q366 399 365 398Q355 394 338 383L315 356Q312 353 309 353ZM197 353Q191 353 185 365Q177 382 176 384T174 389Q174 407 226 407Q254 407 254 400Q254 399 253 398Q243
394 226 383L203 356Q200 353 197 353Z" />
<glyph unicode="&#xec;" glyph-name="igrave" horiz-adv-x="228" d="M103 -10Q45 3 45 36Q45 52 84 149Q95 168 113 204T160 294Q165 302 182 302Q197 302 211 298T223 289Q91 102 91 30Q91 9 105 9Q132 9 190 47Q259 94 306 160Q316 176 326 176Q329 176 329
173Q329 168 320 154Q276 85 198 32Q128 -16 103 -10ZM251 353Q247 353 228 361Q210 369 185 387T137 423Q134 426 134 430Q134 438 140 446T153 454Q157 454 160 450Q171 436 194 415T239 374Q254 359 254 355Q254 353 251 353Z" />
<glyph unicode="&#xed;" glyph-name="iacute" horiz-adv-x="228" d="M103 -10Q45 3 45 36Q45 52 84 149Q95 168 113 204T160 294Q165 302 182 302Q197 302 211 298T223 289Q91 102 91 30Q91 9 105 9Q132 9 190 47Q259 94 306 160Q316 176 326 176Q329 176 329
173Q329 168 320 154Q276 85 198 32Q128 -16 103 -10ZM165 354Q163 354 163 356Q163 360 178 375Q201 395 223 416T256 451Q260 455 264 455Q270 455 276 447T283 431Q283 427 280 424Q257 406 232 388T188 362Q169 354 165 354Z" />
<glyph unicode="&#xee;" glyph-name="icircumflex" horiz-adv-x="228" d="M103 -10Q45 3 45 36Q45 52 84 149Q95 168 113 204T160 294Q165 302 182 302Q197 302 211 298T223 289Q91 102 91 30Q91 9 105 9Q132 9 190 47Q259 94 306 160Q316 176 326 176Q329 176
329 173Q329 168 320 154Q276 85 198 32Q128 -16 103 -10ZM121 352Q112 352 112 359Q112 364 118 367Q128 375 136 380T150 389Q163 397 183 411T229 445Q240 453 247 453Q256 453 269 426Q276 411 289 393T323 374Q331 374 337 375T349 381Q355 386 361 386Q365
386 365 383Q365 380 360 375Q347 363 336 358T301 352Q277 352 262 369T238 405Q234 415 224 415Q216 415 205 407Q186 393 171 382T129 354Q127 353 125 353T121 352Z" />
<glyph unicode="&#xef;" glyph-name="idieresis" horiz-adv-x="228" d="M103 -10Q45 3 45 36Q45 52 84 149Q95 168 113 204T160 294Q165 302 182 302Q197 302 211 298T223 289Q91 102 91 30Q91 9 105 9Q132 9 190 47Q259 94 306 160Q316 176 326 176Q329 176 329
173Q329 168 320 154Q276 85 198 32Q128 -16 103 -10ZM267 353Q261 353 255 365Q247 382 246 384T244 389Q244 407 296 407Q324 407 324 400Q324 399 323 398Q313 394 296 383L273 356Q270 353 267 353ZM155 353Q149 353 143 365Q135 382 134 384T132 389Q132 407
184 407Q212 407 212 400Q212 399 211 398Q201 394 184 383L161 356Q158 353 155 353Z" />
<glyph unicode="&#xf0;" glyph-name="eth" horiz-adv-x="360" d="M124 -1Q99 -1 87 17T75 65Q75 107 95 158Q111 201 137 240T197 305T268 331Q291 331 305 321T319 299Q319 293 318 291Q316 284 310 278T298 272Q292 272 292 279Q290 288 283 301T260 314Q249
314 233 298T201 256T170 203Q167 198 161 184T147 151Q138 127 131 102T124 58Q124 32 141 32Q159 32 181 53T225 105T263 164T287 207Q301 233 313 259T334 310Q346 341 353 370T360 422Q360 436 357 448L281 402Q277 399 274 399Q270 399 269 402T267 409Q267
411 267 414T269 419Q271 426 278 430L347 474Q327 503 279 503Q270 503 259 500T236 493Q235 492 231 492Q226 492 226 496Q226 498 231 503T249 511Q267 515 282 517T310 519Q334 519 351 513T381 495L444 535Q446 538 451 538Q459 538 459 526Q458 525 458 523T457
519Q456 513 449 506L397 474Q407 453 407 420Q407 375 386 319L383 312Q373 285 353 246T306 163T248 83T186 23T124 -1Z" />
<glyph unicode="&#xf1;" glyph-name="ntilde" horiz-adv-x="378" d="M270 -10Q248 -12 228 1T208 32Q208 63 267 151Q332 248 332 263Q332 272 323 273Q294 271 233 215Q146 134 70 -5Q68 -7 59 -7Q16 -7 20 5Q31 34 58 92T130 238Q160 297 191 297Q201 297 204
292Q206 289 162 206Q141 166 129 143T112 112Q129 129 152 154T207 212Q256 267 315 294Q329 300 347 300Q388 300 388 270Q388 251 369 225Q261 74 261 22Q261 11 268 8Q284 1 347 41Q421 89 473 160Q484 175 493 175Q496 175 496 173Q496 168 487 154Q443 85
365 32Q295 -14 270 -10ZM397 345Q382 345 365 352T328 370Q309 381 298 384T281 387Q263 387 251 358Q248 353 245 353Q240 353 240 362Q240 366 242 372T249 386Q272 420 294 420Q305 420 318 414T346 400L391 378Q404 374 412 377Q419 378 424 383T435 395Q440
401 442 405T447 412Q450 417 453 417Q460 417 455 408Q453 401 452 395T442 377Q433 361 421 353T397 345Z" />
<glyph unicode="&#xf2;" glyph-name="ograve" horiz-adv-x="313" d="M129 -11Q56 -11 56 79Q56 169 128 251Q129 252 127 258T125 268Q125 274 129 277Q164 305 211 305Q224 305 232 300Q242 296 251 292T268 283Q306 260 321 235Q346 236 363 237T389 239H393Q402
239 402 232Q402 230 398 229Q387 227 370 224T327 218Q330 211 330 202Q330 195 329 192Q314 111 250 50Q188 -11 129 -11ZM297 235Q281 260 234 260Q198 260 187 252Q184 251 181 248T174 241Q230 234 297 235ZM132 5Q176 5 233 68Q291 131 302 190Q303 195 303
198T304 205Q304 211 302 217Q283 216 263 216T223 216Q203 216 187 216T157 217Q117 163 107 130Q95 93 95 59Q95 5 132 5ZM307 353Q303 353 284 361Q266 369 241 387T193 423Q190 426 190 430Q190 438 196 446T209 454Q213 454 216 450Q227 436 250 415T295 374Q310
359 310 355Q310 353 307 353Z" />
<glyph unicode="&#xf3;" glyph-name="oacute" horiz-adv-x="313" d="M129 -11Q56 -11 56 79Q56 169 128 251Q129 252 127 258T125 268Q125 274 129 277Q164 305 211 305Q224 305 232 300Q242 296 251 292T268 283Q306 260 321 235Q346 236 363 237T389 239H393Q402
239 402 232Q402 230 398 229Q387 227 370 224T327 218Q330 211 330 202Q330 195 329 192Q314 111 250 50Q188 -11 129 -11ZM297 235Q281 260 234 260Q198 260 187 252Q184 251 181 248T174 241Q230 234 297 235ZM132 5Q176 5 233 68Q291 131 302 190Q303 195 303
198T304 205Q304 211 302 217Q283 216 263 216T223 216Q203 216 187 216T157 217Q117 163 107 130Q95 93 95 59Q95 5 132 5ZM221 354Q219 354 219 356Q219 360 234 375Q257 395 279 416T312 451Q316 455 320 455Q326 455 332 447T339 431Q339 427 336 424Q313 406
288 388T244 362Q225 354 221 354Z" />
<glyph unicode="&#xf4;" glyph-name="ocircumflex" horiz-adv-x="313" d="M129 -11Q56 -11 56 79Q56 169 128 251Q129 252 127 258T125 268Q125 274 129 277Q164 305 211 305Q224 305 232 300Q242 296 251 292T268 283Q306 260 321 235Q346 236 363 237T389 239H393Q402
239 402 232Q402 230 398 229Q387 227 370 224T327 218Q330 211 330 202Q330 195 329 192Q314 111 250 50Q188 -11 129 -11ZM297 235Q281 260 234 260Q198 260 187 252Q184 251 181 248T174 241Q230 234 297 235ZM132 5Q176 5 233 68Q291 131 302 190Q303 195 303
198T304 205Q304 211 302 217Q283 216 263 216T223 216Q203 216 187 216T157 217Q117 163 107 130Q95 93 95 59Q95 5 132 5ZM177 352Q168 352 168 359Q168 364 174 367Q184 375 192 380T206 389Q219 397 239 411T285 445Q296 453 303 453Q312 453 325 426Q332 411
345 393T379 374Q387 374 393 375T405 381Q411 386 417 386Q421 386 421 383Q421 380 416 375Q403 363 392 358T357 352Q333 352 318 369T294 405Q290 415 280 415Q272 415 261 407Q242 393 227 382T185 354Q183 353 181 353T177 352Z" />
<glyph unicode="&#xf5;" glyph-name="otilde" horiz-adv-x="313" d="M129 -11Q56 -11 56 79Q56 169 128 251Q129 252 127 258T125 268Q125 274 129 277Q164 305 211 305Q224 305 232 300Q242 296 251 292T268 283Q306 260 321 235Q346 236 363 237T389 239H393Q402
239 402 232Q402 230 398 229Q387 227 370 224T327 218Q330 211 330 202Q330 195 329 192Q314 111 250 50Q188 -11 129 -11ZM297 235Q281 260 234 260Q198 260 187 252Q184 251 181 248T174 241Q230 234 297 235ZM132 5Q176 5 233 68Q291 131 302 190Q303 195 303
198T304 205Q304 211 302 217Q283 216 263 216T223 216Q203 216 187 216T157 217Q117 163 107 130Q95 93 95 59Q95 5 132 5ZM312 345Q297 345 280 352T243 370Q224 381 213 384T196 387Q178 387 166 358Q163 353 160 353Q155 353 155 362Q155 366 157 372T164 386Q187
420 209 420Q220 420 233 414T261 400L306 378Q319 374 327 377Q334 378 339 383T350 395Q355 401 357 405T362 412Q365 417 368 417Q375 417 370 408Q368 401 367 395T357 377Q348 361 336 353T312 345Z" />
<glyph unicode="&#xf6;" glyph-name="odieresis" horiz-adv-x="307" d="M192 360Q186 360 180 372Q172 389 171 391T169 396Q169 414 221 414Q249 414 249 407Q249 406 248 405Q238 401 221 390L198 363Q195 360 192 360ZM311 360Q305 360 299 372Q291 389 290
391T288 396Q288 414 340 414Q368 414 368 407Q368 406 367 405Q357 401 340 390L317 363Q314 360 311 360ZM129 -11Q56 -11 56 79Q56 169 128 251Q129 252 127 258T125 268Q125 274 129 277Q164 305 211 305Q224 305 232 300Q242 296 251 292T268 283Q306 260
321 235Q346 236 363 237T389 239H393Q402 239 402 232Q402 230 398 229Q387 227 370 224T327 218Q330 211 330 202Q330 195 329 192Q314 111 250 50Q188 -11 129 -11ZM297 235Q281 260 234 260Q198 260 187 252Q184 251 181 248T174 241Q230 234 297 235ZM132
5Q176 5 233 68Q291 131 302 190Q303 195 303 198T304 205Q304 211 302 217Q283 216 263 216T223 216Q203 216 187 216T157 217Q117 163 107 130Q95 93 95 59Q95 5 132 5Z" />
<glyph unicode="&#xf7;" glyph-name="divide" horiz-adv-x="320" d="M164 276Q138 276 138 301Q138 326 164 326Q190 326 190 301Q190 276 164 276ZM82 199Q61 199 59 200Q55 202 51 211Q50 214 50 217Q50 223 54 224Q62 228 152 228Q270 228 270 217Q269 216
269 215T267 212Q263 210 240 207T172 202Q111 199 82 199ZM156 111Q129 111 129 136Q129 161 156 161Q182 161 182 136Q182 111 156 111Z" />
<glyph unicode="&#xf8;" glyph-name="oslash" horiz-adv-x="313" d="M-19 -118Q-24 -118 -24 -115Q-22 -91 3 -54Q14 -37 30 -16T66 28Q56 48 56 79Q56 169 128 251Q129 252 127 258T125 268Q125 274 129 277Q164 305 211 305Q224 305 232 300Q250 293 292 266Q311
286 326 303T353 334Q387 374 404 374Q409 374 408 364Q389 342 364 315T305 254Q315 245 321 235Q346 236 363 237T389 239H393Q402 239 402 232Q402 230 398 229Q387 227 370 224T327 218Q330 211 330 202Q330 195 329 192Q314 111 250 50Q188 -11 129 -11Q101
-11 81 7Q72 -5 64 -17T48 -40Q35 -59 29 -73T22 -96Q21 -102 6 -110T-19 -118ZM262 235L278 252Q259 260 234 260Q198 260 187 252Q184 251 181 248T174 241Q211 237 262 235ZM95 61Q113 81 150 119T243 216Q217 215 196 215T157 217Q118 164 107 129T95 61ZM132
5Q176 5 233 68Q291 131 302 190Q303 195 303 198T304 205Q304 211 302 217Q294 216 285 216T268 216Q210 157 168 111T99 30Q106 5 132 5Z" />
<glyph unicode="&#xf9;" glyph-name="ugrave" horiz-adv-x="341" d="M255 -7Q229 -1 206 21Q201 26 201 36Q201 76 237 148Q209 112 191 89T164 56Q125 11 99 2Q90 -1 81 -1Q44 -1 38 29Q34 38 34 54Q34 103 99 241Q114 273 133 273Q147 273 160 252L118 169Q96
126 85 95T73 47Q73 23 89 23Q115 23 173 90Q204 126 233 170T292 266Q298 278 310 278Q320 278 329 270T337 257Q240 56 240 26Q240 14 248 16Q329 23 422 159Q427 168 433 169Q439 171 439 165Q439 161 435 154Q391 85 330 33Q276 -12 255 -7ZM284 327Q280 327
261 335Q243 343 218 361T170 397Q167 400 167 404Q167 412 173 420T186 428Q190 428 193 424Q204 410 227 389T272 348Q287 333 287 329Q287 327 284 327Z" />
<glyph unicode="&#xfa;" glyph-name="uacute" horiz-adv-x="341" d="M255 -7Q229 -1 206 21Q201 26 201 36Q201 76 237 148Q209 112 191 89T164 56Q125 11 99 2Q90 -1 81 -1Q44 -1 38 29Q34 38 34 54Q34 103 99 241Q114 273 133 273Q147 273 160 252L118 169Q96
126 85 95T73 47Q73 23 89 23Q115 23 173 90Q204 126 233 170T292 266Q298 278 310 278Q320 278 329 270T337 257Q240 56 240 26Q240 14 248 16Q329 23 422 159Q427 168 433 169Q439 171 439 165Q439 161 435 154Q391 85 330 33Q276 -12 255 -7ZM198 328Q196 328
196 330Q196 334 211 349Q234 369 256 390T289 425Q293 429 297 429Q303 429 309 421T316 405Q316 401 313 398Q290 380 265 362T221 336Q202 328 198 328Z" />
<glyph unicode="&#xfb;" glyph-name="ucircumflex" horiz-adv-x="341" d="M255 -7Q229 -1 206 21Q201 26 201 36Q201 76 237 148Q209 112 191 89T164 56Q125 11 99 2Q90 -1 81 -1Q44 -1 38 29Q34 38 34 54Q34 103 99 241Q114 273 133 273Q147 273 160 252L118
169Q96 126 85 95T73 47Q73 23 89 23Q115 23 173 90Q204 126 233 170T292 266Q298 278 310 278Q320 278 329 270T337 257Q240 56 240 26Q240 14 248 16Q329 23 422 159Q427 168 433 169Q439 171 439 165Q439 161 435 154Q391 85 330 33Q276 -12 255 -7ZM154 582Q145
582 145 589Q145 594 151 597Q161 605 169 610T183 619Q196 627 216 641T262 675Q273 683 280 683Q289 683 302 656Q309 641 322 623T356 604Q364 604 370 605T382 611Q388 616 394 616Q398 616 398 613Q398 610 393 605Q380 593 369 588T334 582Q310 582 295 599T271
635Q267 645 257 645Q249 645 238 637Q219 623 204 612T162 584Q160 583 158 583T154 582Z" />
<glyph unicode="&#xfc;" glyph-name="udieresis" horiz-adv-x="341" d="M255 -7Q229 -1 206 21Q201 26 201 36Q201 76 237 148Q209 112 191 89T164 56Q125 11 99 2Q90 -1 81 -1Q44 -1 38 29Q34 38 34 54Q34 103 99 241Q114 273 133 273Q147 273 160 252L118 169Q96
126 85 95T73 47Q73 23 89 23Q115 23 173 90Q204 126 233 170T292 266Q298 278 310 278Q320 278 329 270T337 257Q240 56 240 26Q240 14 248 16Q329 23 422 159Q427 168 433 169Q439 171 439 165Q439 161 435 154Q391 85 330 33Q276 -12 255 -7ZM300 327Q294 327
288 339Q280 356 279 358T277 363Q277 381 329 381Q357 381 357 374Q357 373 356 372Q346 368 329 357L306 330Q303 327 300 327ZM188 327Q182 327 176 339Q168 356 167 358T165 363Q165 381 217 381Q245 381 245 374Q245 373 244 372Q234 368 217 357L194 330Q191
327 188 327Z" />
<glyph unicode="&#xfd;" glyph-name="yacute" horiz-adv-x="348" d="M9 -308Q-29 -308 -29 -270Q-29 -239 -2 -196Q15 -169 41 -139T105 -74Q171 -10 245 37Q262 79 274 117T296 188Q289 176 219 94Q134 -6 102 -6Q98 -6 96 -5L66 11Q52 19 49 26T46 42Q46 69
62 119T112 241Q127 273 146 273Q160 273 173 252L129 165Q82 73 82 37Q82 13 98 13Q130 13 218 122Q247 157 271 189T316 253Q323 263 336 263Q360 263 360 245Q360 241 357 236Q349 208 336 168T303 72Q335 91 354 91Q362 91 362 87Q362 77 337 68Q327 64 316
59T291 47Q221 -127 122 -240Q62 -308 9 -308ZM30 -287Q49 -287 76 -256Q165 -156 232 6Q99 -93 34 -200Q12 -235 12 -262Q12 -287 30 -287ZM211 327Q209 327 209 329Q209 333 224 348Q247 368 269 389T302 424Q306 428 310 428Q316 428 322 420T329 404Q329 400
326 397Q303 379 278 361T234 335Q215 327 211 327Z" />
<glyph unicode="&#xfe;" glyph-name="thorn" horiz-adv-x="309" d="M-2 -275Q-18 -275 -32 -264Q-48 -250 -47 -234Q-44 -196 -29 -143T8 -32T54 83T100 185Q115 217 135 262T179 356T226 447T268 517Q276 528 286 531T319 533Q331 532 331 522Q331 515 325 509Q292
476 262 428T205 327T157 224T118 141Q121 146 141 167T190 220Q261 295 295 295Q302 293 314 292T343 288Q363 288 363 256Q363 188 302 105Q270 61 219 24Q161 -16 118 -16Q78 -16 58 20Q-7 -112 -11 -242Q-11 -253 3 -258Q17 -263 14 -268Q10 -275 -2 -275ZM100
15Q129 15 182 50Q208 67 228 87T262 129Q315 212 315 253Q315 272 300 272Q260 272 168 169Q81 75 81 33Q81 15 100 15Z" />
<glyph unicode="&#xff;" glyph-name="ydieresis" horiz-adv-x="348" d="M9 -308Q-29 -308 -29 -270Q-29 -239 -2 -196Q15 -169 41 -139T105 -74Q171 -10 245 37Q262 79 274 117T296 188Q289 176 219 94Q134 -6 102 -6Q98 -6 96 -5L66 11Q52 19 49 26T46 42Q46
69 62 119T112 241Q127 273 146 273Q160 273 173 252L129 165Q82 73 82 37Q82 13 98 13Q130 13 218 122Q247 157 271 189T316 253Q323 263 336 263Q360 263 360 245Q360 241 357 236Q349 208 336 168T303 72Q335 91 354 91Q362 91 362 87Q362 77 337 68Q327 64
316 59T291 47Q221 -127 122 -240Q62 -308 9 -308ZM30 -287Q49 -287 76 -256Q165 -156 232 6Q99 -93 34 -200Q12 -235 12 -262Q12 -287 30 -287ZM313 326Q307 326 301 338Q293 355 292 357T290 362Q290 380 342 380Q370 380 370 373Q370 372 369 371Q359 367 342
356L319 329Q316 326 313 326ZM201 326Q195 326 189 338Q181 355 180 357T178 362Q178 380 230 380Q258 380 258 373Q258 372 257 371Q247 367 230 356L207 329Q204 326 201 326Z" />
<glyph unicode="&#x2013;" glyph-name="endash" horiz-adv-x="320" d="M124 219Q96 219 92 220H91Q79 225 79 232Q79 237 85 241L288 248Q352 248 352 236Q352 234 349 231Q343 229 311 226T220 221Q189 220 165 220T124 219Z" />
<glyph unicode="&#x2014;" glyph-name="emdash" horiz-adv-x="606" d="M92 217Q88 217 83 225T78 240Q78 247 84 247H393Q397 247 408 247T437 248Q457 249 473 249T500 249Q572 249 572 238Q572 236 569 233Q557 228 338 222Q246 220 190 219T112 217H92Z" />
<glyph unicode="&#x2018;" glyph-name="quoteleft" horiz-adv-x="159" d="M191 501Q194 501 194 499Q194 495 182 484T157 455Q148 442 142 428T135 403Q135 392 139 387T153 377Q161 373 167 366T173 348Q173 330 147 314Q139 308 131 308Q114 308 98 318T82
352Q82 370 93 395T121 444T156 484T191 501Z" />
<glyph unicode="&#x2019;" glyph-name="quoteright" horiz-adv-x="303" d="M139 317Q136 317 136 319Q136 323 148 335T173 363Q182 376 188 390T195 415Q195 426 191 431T177 441Q170 446 164 452T157 470Q157 488 183 504Q191 510 199 510Q216 510 232 500T248
466Q248 448 237 423T209 374T174 334T139 317Z" />
<glyph unicode="&#x201a;" glyph-name="quotesinglbase" horiz-adv-x="212" d="M41 -114Q38 -114 38 -112Q38 -108 50 -96T75 -68Q84 -55 90 -41T97 -16Q97 -5 93 0T79 10Q72 15 66 21T59 39Q59 57 85 73Q93 79 101 79Q118 79 134 69T150 35Q150 17 139 -8T111
-57T76 -97T41 -114Z" />
<glyph unicode="&#x201c;" glyph-name="quotedblleft" horiz-adv-x="294" d="M316 513Q319 513 319 511Q319 507 307 496T282 467Q273 454 267 440T260 415Q260 404 264 399T278 389Q286 385 292 378T298 360Q298 342 272 326Q264 320 256 320Q239 320 223 330T207
364Q207 382 218 407T246 456T281 496T316 513ZM189 513Q192 513 192 511Q192 507 180 496T155 467Q146 454 140 440T133 415Q133 404 137 399T151 389Q159 385 165 378T171 360Q171 342 145 326Q137 320 129 320Q112 320 96 330T80 364Q80 382 91 407T119 456T154
496T189 513Z" />
<glyph unicode="&#x201d;" glyph-name="quotedblright" horiz-adv-x="382" d="M139 320Q136 320 136 322Q136 326 148 338T173 366Q182 379 188 393T195 418Q195 429 191 434T177 444Q170 449 164 455T157 473Q157 491 183 507Q191 513 199 513Q216 513 232 503T248
469Q248 451 237 426T209 377T174 337T139 320ZM266 320Q263 320 263 322Q263 326 275 338T300 366Q309 379 315 393T322 418Q322 429 318 434T304 444Q297 449 291 455T284 473Q284 491 310 507Q318 513 326 513Q343 513 359 503T375 469Q375 451 364 426T336
377T301 337T266 320Z" />
<glyph unicode="&#x201e;" glyph-name="quotedblbase" horiz-adv-x="322" d="M41 -114Q38 -114 38 -112Q38 -108 50 -96T75 -68Q84 -55 90 -41T97 -16Q97 -5 93 0T79 10Q72 15 66 21T59 39Q59 57 85 73Q93 79 101 79Q118 79 134 69T150 35Q150 17 139 -8T111 -57T76
-97T41 -114ZM163 -114Q160 -114 160 -112Q160 -108 172 -96T197 -68Q206 -55 212 -41T219 -16Q219 -5 215 0T201 10Q194 15 188 21T181 39Q181 57 207 73Q215 79 223 79Q240 79 256 69T272 35Q272 17 261 -8T233 -57T198 -97T163 -114Z" />
<glyph unicode="&#x2022;" glyph-name="bullet" horiz-adv-x="566" d="M283 154Q213 154 161 204Q110 254 110 326Q110 399 161 448Q212 499 283 499Q356 499 405 448Q456 399 456 326Q456 254 405 204Q355 154 283 154Z" />
<glyph unicode="&#x2039;" glyph-name="guilsinglleft" horiz-adv-x="398" d="M288 119Q277 119 242 145Q211 170 177 195T113 241T59 275Q49 282 50 288Q52 296 62 305T86 322Q122 356 162 396T239 469T300 518Q335 540 345 540Q359 540 308 482Q267 438 225
391T150 304Q176 279 203 253T251 204T282 162Q294 137 294 126Q294 119 288 119Z" />
<glyph unicode="&#x203a;" glyph-name="guilsinglright" horiz-adv-x="398" d="M53 119Q40 119 91 177Q132 221 174 269T249 356Q223 380 196 406T147 456T116 497Q104 523 104 533Q104 540 110 540Q120 540 157 514Q188 490 221 465T286 418T340 384Q350 378
348 371Q346 363 335 354T311 337Q277 303 237 263T159 190T98 141Q63 119 53 119Z" />
</font>
</defs>
</svg>
