<?xml version="1.0" standalone="no"?>
<!DOCTYPE svg PUBLIC "-//W3C//DTD SVG 1.1//EN" "http://www.w3.org/Graphics/SVG/1.1/DTD/svg11.dtd">
<svg xmlns="http://www.w3.org/2000/svg">
<defs >
<font id="Brygada1918" horiz-adv-x="503" ><font-face
    font-family="Brygada 1918"
    units-per-em="1000"
    panose-1="0 0 0 0 0 0 0 0 0 0"
    ascent="920"
    descent="-250"
    alphabetic="0" />
<glyph unicode=" " horiz-adv-x="230" />
<glyph unicode="!" horiz-adv-x="190" d="M80 180L45 620Q43 649 59 664T95 680Q114 680 130 665T145 620L110 180H80ZM95 -10Q73 -10 57 6T40 45Q40 68 56 84T95 100Q118 100 134 84T150 45Q150 23 134 7T95 -10Z" />
<glyph unicode="&quot;" horiz-adv-x="352" d="M101 680Q114 680 126 673T146 652T151 619L116 410H86L51 619Q48 638 55 651T75 672T101 680ZM251 680Q264 680 276 673T296 652T301 619L266 410H236L201 619Q198 638 205 651T225 672T251 680Z" />
<glyph unicode="#" horiz-adv-x="714" d="M350 672H397L147 1H100L350 672ZM566 672H613L363 1H316L566 672ZM688 437H92L108 481H704L688 437ZM605 207H10L26 251H621L605 207Z" />
<glyph unicode="$" horiz-adv-x="602" d="M302 -100L303 770H338L337 -100H302ZM160 523Q160 487 180 464T235 425T310 396T391 367T466 328T521 270T542 181Q542 120 513 78T435 13T321 -10Q272 -10 230 4T151 41L130 1H95Q93 35 87 72T74 146T60 214L93 224Q124
150 165 108T249 48T326 30Q357 30 390 42T448 82T472 152Q472 192 452 218T397 262T322 294T241 324T166 361T111 415T90 496Q90 554 119 595T196 658T303 680Q347 680 381 667T450 629L471 670H506Q510 619 518 571T536 476L503 466Q478 540 442 577T367 627T299
640Q238 640 199 607T160 523Z" />
<glyph unicode="%" horiz-adv-x="850" d="M180 266Q138 266 104 292T49 365T28 473Q28 534 48 580T103 653T180 680Q222 680 256 654T311 581T331 473Q331 412 311 366T257 293T180 266ZM184 290Q212 290 228 313T253 376T261 462Q261 554 238 605T175 656Q148
656 131 633T106 570T98 484Q98 392 121 341T184 290ZM249 0L553 670H601L297 0H249ZM671 -10Q629 -10 595 16T540 89T519 197Q519 258 539 304T594 377T671 404Q713 404 747 378T802 305T822 197Q822 136 802 90T748 17T671 -10ZM675 14Q703 14 719 37T744 100T752
186Q752 278 729 329T666 380Q639 380 622 357T597 294T589 208Q589 116 612 65T675 14Z" />
<glyph unicode="&amp;" horiz-adv-x="723" d="M560 35H683V0H560V35ZM289 398Q338 427 356 470T374 547Q374 594 349 619T289 645Q250 645 229 617T208 554Q208 518 230 486T296 403L654 0H535L229 342Q171 407 147 450T123 535Q123 577 144 610T203 661T291 680Q337
680 372 664T428 618T449 550Q449 516 433 485T388 426T316 372L289 398ZM448 370H668V335H603L598 330Q598 288 586 242T548 150T485 69T394 12T276 -10Q211 -10 156 11T68 73T35 174Q35 226 60 264T127 329T224 374L244 348Q186 323 158 283T130 183Q130 115
171 73T295 30Q361 30 410 59T488 134T524 233T513 335H448V370Z" />
<glyph unicode="&apos;" horiz-adv-x="202" d="M101 680Q114 680 126 673T146 652T151 619L116 410H86L51 619Q48 638 55 651T75 672T101 680Z" />
<glyph unicode="(" horiz-adv-x="312" d="M75 240Q75 380 114 506T225 747L262 730Q198 626 159 503T120 240H75ZM225 -267Q154 -151 115 -25T75 240H120Q120 101 159 -22T262 -250L225 -267Z" />
<glyph unicode=")" horiz-adv-x="312" d="M217 240Q217 380 178 503T75 730L112 747Q183 632 222 506T262 240H217ZM112 -267L75 -250Q139 -146 178 -23T217 240H262Q262 101 223 -25T112 -267Z" />
<glyph unicode="*" horiz-adv-x="486" d="M251 491L243 496L298 653Q304 671 321 677T353 675Q367 666 370 649T361 617L251 491ZM134 298Q119 306 116 324T126 356L235 483L243 478L189 320Q182 301 166 296T134 298ZM71 451Q52 447 39 458T25 487Q25 504 38
515T71 523L235 491V483L71 451ZM352 298Q337 290 321 295T297 320L243 478L251 483L360 356Q373 342 370 324T352 298ZM243 478L235 483V491L243 496L251 491V483L243 478ZM235 491L125 617Q112 632 115 649T133 675Q147 684 164 678T188 653L243 496L235 491ZM415
451L251 483V491L415 523Q434 527 447 516T461 487Q461 470 448 459T415 451Z" />
<glyph unicode="+" horiz-adv-x="510" d="M25 337H485V302H25V337ZM273 550V90H238V550H273Z" />
<glyph unicode="," horiz-adv-x="195" d="M100 100Q130 100 145 79T160 28Q160 -15 148 -50T115 -116T67 -175L40 -152Q72 -117 93 -79T114 -9Q110 -10 107 -10T100 -10Q78 -10 62 6T45 45Q45 68 61 84T100 100Z" />
<glyph unicode="-" horiz-adv-x="380" d="M40 305H340V240H40V305Z" />
<glyph unicode="." horiz-adv-x="190" d="M95 -10Q73 -10 57 6T40 45Q40 68 56 84T95 100Q118 100 134 84T150 45Q150 23 134 7T95 -10Z" />
<glyph unicode="/" horiz-adv-x="392" d="M20 -60L324 730H372L68 -60H20Z" />
<glyph unicode="0" horiz-adv-x="580" d="M290 -10Q224 -10 168 32T79 151T45 335Q45 442 78 519T168 638T290 680Q357 680 412 638T501 519T535 335Q535 229 502 152T413 32T290 -10ZM298 30Q349 30 380 67T425 169T440 318Q440 424 421 495T366 603T282 640Q232
640 201 603T155 501T140 352Q140 246 159 175T214 67T298 30Z" />
<glyph unicode="1" horiz-adv-x="500" d="M225 0V571Q206 549 173 526T108 485L90 518Q102 524 125 539T175 576T225 622T260 670H315V0H225ZM90 0V35H220L225 40H315L320 35H450V0H90Z" />
<glyph unicode="2" horiz-adv-x="600" d="M497 190H532L489 0H54Q54 54 78 98T140 179T221 250T302 321T365 397T389 488Q389 556 351 598T257 640Q205 640 169 619T119 557L64 513Q64 553 87 591T158 654T275 680Q314 680 351 671T418 642T466 588T484 506Q484
448 463 406T407 332T331 273T249 219T173 158T118 80H299Q357 80 396 87T459 119T497 190ZM119 447Q97 447 81 464T64 513L119 557Q135 557 147 550T166 530T174 502Q174 479 158 463T119 447Z" />
<glyph unicode="3" horiz-adv-x="550" d="M263 -10Q198 -10 150 11T74 66T47 139L107 95Q132 59 174 45T261 30Q344 30 381 67T419 174Q419 222 397 255T331 307T219 325V360Q260 360 310 352T407 324T484 268T514 178Q514 134 494 99T438 40T358 3T263 -10ZM107
95L47 139Q47 171 63 188T102 205Q125 205 141 189T157 150Q157 128 142 113T107 95ZM114 457Q92 457 76 474T59 523L114 567Q130 567 142 560T161 540T169 512Q169 489 153 473T114 457ZM219 335V360Q246 360 274 367T328 392T368 438T384 512Q384 577 346 608T249
640Q200 640 164 620T114 567L59 523Q59 558 82 594T153 655T270 680Q310 680 347 671T414 642T461 593T479 523Q479 476 456 441T395 382T311 347T219 335Z" />
<glyph unicode="4" horiz-adv-x="640" d="M50 177L103 212H566V177H50ZM50 177V207L383 670H461V40L466 35H546V0H286V35H366L371 40V584H368L103 217V212L50 177Z" />
<glyph unicode="5" horiz-adv-x="570" d="M254 -10Q187 -10 140 13T69 73T44 149L104 105Q121 72 160 51T247 30Q335 30 374 78T414 202Q414 282 374 334T263 386Q214 386 171 364T104 304L74 312L104 670H487V590H141L125 379Q143 395 179 410T278 426Q346 426
398 399T479 324T509 213Q509 149 478 99T390 19T254 -10ZM104 105L44 149Q44 181 60 198T99 215Q122 215 138 199T154 160Q154 138 139 123T104 105Z" />
<glyph unicode="6" horiz-adv-x="565" d="M290 -10Q246 -10 203 7T124 64T67 165T45 318Q45 430 78 511T173 636T317 680Q367 680 410 663T479 614T506 542Q506 514 490 497T450 480Q428 480 412 496T396 536Q396 550 405 565T439 589Q421 616 386 628T317 640Q221
640 181 556T140 324Q140 214 160 150T216 58T294 30Q353 30 389 71T425 198Q425 283 388 323T296 363Q247 363 203 333T120 240V295Q146 339 191 371T304 403Q342 403 380 391T449 354T500 291T520 202Q520 132 486 85T400 14T290 -10Z" />
<glyph unicode="7" horiz-adv-x="560" d="M497 670Q497 618 482 574T444 487T396 401T349 306T317 193T311 53Q313 23 298 7T261 -10Q239 -10 225 6T211 53Q211 123 230 183T279 296T342 399T403 495T447 590H278Q220 590 182 584T120 555T82 485L49 495L88 670H497Z" />
<glyph unicode="8" horiz-adv-x="550" d="M270 -10Q232 -10 193 -1T120 28T66 81T45 162Q45 214 68 252T127 316T202 356L251 341Q210 326 173 303T113 247T90 169Q90 129 107 103T152 60T211 37T269 30Q311 30 348 44T407 86T430 154Q430 191 410 216T357 259T285
292T206 323T133 362T80 417T60 498Q60 555 89 595T166 658T275 680Q326 680 371 663T446 611T475 521Q475 471 446 431T354 356L297 366Q369 401 399 437T430 518Q430 562 407 588T347 627T275 640Q215 640 175 610T135 527Q135 490 155 466T208 424T280 392T359
362T432 322T485 264T505 178Q505 135 491 103T452 50T398 15T334 -4T270 -10Z" />
<glyph unicode="9" horiz-adv-x="565" d="M258 -10Q208 -10 165 7T96 56T69 128Q69 156 85 173T125 190Q148 190 163 174T179 134Q179 120 170 105T136 81Q154 54 189 42T258 30Q322 30 358 71T410 187T425 366Q425 477 405 536T349 617T271 640Q212 640 176 600T140
474Q140 389 177 348T269 307Q318 307 363 338T445 430V375Q419 331 374 299T261 267Q224 267 186 279T116 315T65 377T45 466Q45 537 79 584T166 656T275 680Q319 680 362 666T441 616T498 522T520 372Q520 255 489 170T400 37T258 -10Z" />
<glyph unicode=":" horiz-adv-x="190" d="M95 -10Q73 -10 57 6T40 45Q40 68 56 84T95 100Q118 100 134 84T150 45Q150 23 134 7T95 -10ZM95 340Q73 340 57 356T40 395Q40 418 56 434T95 450Q118 450 134 434T150 395Q150 373 134 357T95 340Z" />
<glyph unicode=";" horiz-adv-x="195" d="M67 -175L40 -152Q72 -117 93 -79T114 -9Q110 -10 107 -10T100 -10Q78 -10 62 6T45 45Q45 68 61 84T100 100Q130 100 145 79T160 28Q160 -15 148 -50T115 -116T67 -175ZM95 340Q73 340 57 356T40 395Q40 418 56 434T95
450Q118 450 134 434T150 395Q150 373 134 357T95 340Z" />
<glyph unicode="&lt;" horiz-adv-x="510" d="M485 537V494L87 322V317L485 145V102L25 302V337L485 537Z" />
<glyph unicode="=" horiz-adv-x="510" d="M25 417H485V382H25V417ZM25 257H485V222H25V257Z" />
<glyph unicode="&gt;" horiz-adv-x="510" d="M25 537L485 337V302L25 102V145L423 317V322L25 494V537Z" />
<glyph unicode="?" horiz-adv-x="450" d="M210 180Q191 230 196 267T221 333T263 391T303 453T320 530Q320 577 295 608T210 639Q176 639 148 626T104 589T87 537L40 533Q40 568 63 601T129 657T229 679Q277 679 318 664T385 617T410 539Q410 496 390 461T342
394T287 330T246 262T240 180H210ZM225 -10Q203 -10 187 6T170 45Q170 68 186 84T225 100Q248 100 264 84T280 45Q280 23 264 7T225 -10ZM95 467Q73 467 57 484T40 533L95 577Q111 577 123 570T142 550T150 522Q150 499 134 483T95 467Z" />
<glyph unicode="@" horiz-adv-x="925" d="M482 -169Q401 -169 324 -142T185 -63T87 65T50 242Q50 337 84 417T180 556T326 647T509 680Q584 680 650 658T767 592T846 485T875 339Q875 269 856 213T806 117T735 56T657 35Q640 35 622 40T588 58T562 94T551 152L589
450H664L625 162Q619 117 631 94T672 70Q704 70 732 100T777 186T795 319Q795 419 760 491T660 601T503 640Q415 640 347 611T231 529T160 407T135 257Q135 168 163 97T242 -24T357 -102T494 -129Q559 -129 618 -110T727 -58L746 -89Q696 -123 631 -146T482 -169ZM425
35Q381 35 345 58T288 123T267 223Q267 292 293 345T365 429T466 460Q524 460 558 421T593 281Q593 209 573 154T515 67T425 35ZM438 70Q471 70 499 95T544 166T561 272Q561 346 539 385T475 425Q442 425 414 399T369 327T352 216Q352 148 375 109T438 70Z" />
<glyph unicode="A" horiz-adv-x="702" d="M15 0V35H73L315 670H390L619 35H687V0H450V35H515L520 40L331 575H326L123 40L128 35H210V0H15ZM174 240V275H473V240H174Z" />
<glyph unicode="B" horiz-adv-x="680" d="M414 343V355Q479 355 531 336T614 280T645 191Q645 137 621 101T559 42T478 10T395 0H50V35H130L135 40V630L130 635H50V670H355Q398 670 442 663T523 638T582 590T605 513Q605 448 551 406T414 343ZM230 635L225 630V356L180
365H335Q384 365 423 377T486 421T510 505Q510 550 486 578T422 621T335 635H230ZM375 35Q424 35 463 49T526 97T550 183Q550 228 526 261T462 312T375 330H180L225 341V40L230 35H375Z" />
<glyph unicode="C" horiz-adv-x="685" d="M387 35Q452 35 512 66T628 162L655 139Q602 69 532 30T370 -10H369Q300 -10 242 15T141 87T74 195T50 330Q50 407 76 471T149 582T257 654T387 680Q437 680 477 667T554 630L575 670H610Q614 619 622 572T640 477L607
467Q589 521 562 555T503 607T441 633T384 640Q311 640 258 602T175 495T145 337Q145 247 174 179T258 73T387 35Z" />
<glyph unicode="D" horiz-adv-x="750" d="M360 670Q437 670 499 648T606 583T675 481T700 345Q700 271 675 208T603 99T495 26T360 0H50V35H130L135 40V630L130 635H50V670H360ZM360 35Q434 35 489 72T574 176T605 335Q605 422 573 490T482 596T340 635H230L225
630V40L230 35H360Z" />
<glyph unicode="E" horiz-adv-x="639" d="M564 190H599L556 0H50V35H130L135 40V630L130 635H50V670H546L582 510L549 500Q535 553 512 582T452 623T356 635H230L225 630V354L180 365H328Q371 365 392 387T418 475H453V220H418Q414 286 393 308T328 330H180L225
343V40L230 35H366Q453 35 498 73T564 190Z" />
<glyph unicode="F" horiz-adv-x="580" d="M50 0V35H130L135 40V630L130 635H50V670H516L552 510L519 500Q505 553 482 582T422 623T326 635H230L225 630V300L180 345H338Q381 345 402 367T428 455H463V200H428Q424 266 403 288T338 310H180L225 355V40L230 35H350V0H50Z" />
<glyph unicode="G" horiz-adv-x="743" d="M476 320H711V285H651L646 280V0H611L572 74H567Q540 46 512 28T449 0T370 -10H369Q300 -10 242 15T141 87T74 195T50 330Q50 407 76 471T148 582T257 654T391 680Q446 680 488 666T564 630L585 670H620Q624 619 632 572T650
477L617 467Q594 536 556 573T473 625T388 640Q312 640 258 601T174 494T145 337Q145 249 173 181T254 74T379 35Q431 35 472 56T537 118T561 222V280L556 285H476V320Z" />
<glyph unicode="H" horiz-adv-x="780" d="M470 0V35H550L555 40V630L550 635H470V670H730V635H650L645 630V40L650 35H730V0H470ZM50 0V35H130L135 40V630L130 635H50V670H310V635H230L225 630V40L230 35H310V0H50ZM205 330V365H575V330H205Z" />
<glyph unicode="I" horiz-adv-x="400" d="M330 635H250L245 630V40L250 35H330V0H70V35H150L155 40V630L150 635H70V670H330V635Z" />
<glyph unicode="J" horiz-adv-x="424" d="M129 635V670H389V635H309L304 630V150Q304 103 291 72T255 23T205 -2T150 -10Q109 -10 78 6T28 50T10 110Q10 140 29 157T70 175Q93 175 109 159T125 120Q125 100 112 85T79 66T38 75L56 91Q68 66 85 48T137 30Q164 30
189 52T214 130V630L209 635H129Z" />
<glyph unicode="K" horiz-adv-x="705" d="M160 268L542 630L537 635H431V670H665V635H610L220 268H160ZM50 0V35H130L135 40V630L130 635H50V670H310V635H230L225 630V40L230 35H310V0H50ZM431 0V35H511L516 40L286 352L352 414L630 35H705V0H431Z" />
<glyph unicode="L" horiz-adv-x="598" d="M548 210H583L536 0H50V35H130L135 40V630L130 635H50V670H310V635H230L225 630V40L230 35H346Q433 35 480 83T548 210Z" />
<glyph unicode="M" horiz-adv-x="910" d="M400 0L185 553H180L135 630L130 635H50V670H240L459 105H464L685 670V528H680L475 0H400ZM50 0V35H130L135 40V630L180 553V40L185 35H265V0H50ZM600 0V35H680L685 40V670H860V635H780L775 630V40L780 35H860V0H600Z" />
<glyph unicode="N" horiz-adv-x="755" d="M570 0L185 547H180L135 630L130 635H50V670H210L595 123H600V0H570ZM50 0V35H130L135 40V630L180 547V40L185 35H265V0H50ZM720 670V635H650L645 630V0H600V630L595 635H515V670H720Z" />
<glyph unicode="O" horiz-adv-x="740" d="M370 680Q462 680 534 636T648 514T690 335Q690 261 665 198T596 89T493 16T370 -10Q278 -10 206 34T92 156T50 335Q50 409 75 472T144 581T247 654T370 680ZM380 30Q449 30 497 68T570 175T595 335Q595 422 569 491T490
600T360 640Q292 640 244 602T170 495T145 335Q145 248 171 179T250 70T380 30Z" />
<glyph unicode="P" horiz-adv-x="610" d="M50 0V35H130L135 40V630L130 635H50V670H345Q388 670 432 662T513 633T572 577T595 488Q595 436 571 399T509 337T428 302T345 290H180L225 299V40L230 35H350V0H50ZM225 315L180 325H325Q374 325 413 337T476 383T500
480Q500 535 476 569T412 619T325 635H230L225 630V315Z" />
<glyph unicode="Q" horiz-adv-x="740" d="M613 -86L640 -109Q623 -132 602 -146T547 -160Q504 -160 473 -139T419 -85T377 -15T343 55T309 109T269 130Q252 130 237 119T213 96L186 119Q203 142 224 156T279 170Q322 170 353 149T407 95T449 25T483 -45T517 -99T557
-120Q574 -120 589 -109T613 -86ZM370 680Q462 680 534 636T648 514T690 335Q690 261 665 198T596 89T493 16T370 -10Q278 -10 206 34T92 156T50 335Q50 409 75 472T144 581T247 654T370 680ZM380 30Q449 30 497 68T570 175T595 335Q595 422 569 491T490 600T360
640Q292 640 244 602T170 495T145 335Q145 248 171 179T250 70T380 30Z" />
<glyph unicode="R" horiz-adv-x="705" d="M431 0V35H511L516 40L308 323H417L630 35H705V0H431ZM345 670Q388 670 432 662T513 634T572 581T595 498Q595 450 571 415T509 356T428 322T345 310H180L225 355V40L230 35H310V0H50V35H130L135 40V630L130 635H50V670H345ZM225
300L180 345H325Q374 345 413 357T476 400T500 490Q500 540 476 572T412 619T325 635H230L225 630V300Z" />
<glyph unicode="S" horiz-adv-x="602" d="M160 523Q160 487 180 464T235 425T310 396T391 367T466 328T521 270T542 181Q542 120 513 78T435 13T321 -10Q272 -10 230 4T151 41L130 1H95Q93 35 87 72T74 146T60 214L93 224Q124 150 165 108T249 48T326 30Q357 30
390 42T448 82T472 152Q472 192 452 218T397 262T322 294T241 324T166 361T111 415T90 496Q90 554 119 595T196 658T303 680Q347 680 381 667T450 629L471 670H506Q510 619 518 571T536 476L503 466Q478 540 442 577T367 627T299 640Q238 640 199 607T160 523Z"
/>
<glyph unicode="T" horiz-adv-x="610" d="M559 670L595 510L562 500Q548 553 525 582T459 623T349 635V40L354 35H434V0H174V35H254L259 40V635Q191 635 150 623T84 582T46 500L13 510L49 670H559Z" />
<glyph unicode="U" horiz-adv-x="730" d="M490 635V670H695V635H625L620 630V245Q620 166 589 109T505 21T384 -10Q294 -10 236 22T149 110T120 233V630L115 635H35V670H295V635H215L210 630V245Q210 185 230 139T290 67T389 40Q441 40 483 64T550 134T575 245V630L570
635H490Z" />
<glyph unicode="V" horiz-adv-x="686" d="M468 670H671V635H611L389 0H314L85 635H15V670H259V635H189L184 630L373 100H378L558 630L553 635H468V670Z" />
<glyph unicode="W" horiz-adv-x="986" d="M281 0L88 635H18V670H256V635H191L186 630L342 120H347L478 567L461 635H396V670H630V635H564L559 630L704 120H709L858 630L853 635H768V670H968V635H908L721 0H641L505 480H500L361 0H281Z" />
<glyph unicode="X" horiz-adv-x="668" d="M581 35H651V0H396V35H466L471 40L106 635H36V670H292V635H222L217 630L581 35ZM328 352L506 630L501 635H416V670H622V635H562L379 352H328ZM333 352L132 40L137 35H232V0H16V35H76L282 352H333Z" />
<glyph unicode="Y" horiz-adv-x="641" d="M11 635V670H262V635H192L187 630L348 337H353L517 630L512 635H427V670H630V635H570L370 279V40L375 35H455V0H195V35H275L280 40V279L81 635H11Z" />
<glyph unicode="Z" horiz-adv-x="581" d="M22 0V30L412 630L407 635H258Q200 635 163 623T102 582T65 500L32 510L68 670H524V640L133 40L138 35H329Q416 35 461 73T527 190H562L519 0H22Z" />
<glyph unicode="[" horiz-adv-x="310" d="M260 695H150L145 690V-210L150 -215H260V-250H100V730H260V695Z" />
<glyph unicode="\" horiz-adv-x="392" d="M372 -60H324L20 730H68L372 -60Z" />
<glyph unicode="]" horiz-adv-x="310" d="M50 695V730H210V-250H50V-215H160L165 -210V690L160 695H50Z" />
<glyph unicode="^" horiz-adv-x="535" d="M485 248H442L270 646H265L93 248H50L250 708H285L485 248Z" />
<glyph unicode="_" horiz-adv-x="400" d="M0 0H400V-35H0V0Z" />
<glyph unicode="`" horiz-adv-x="129" d="M0 720H90L129 550H99L0 720Z" />
<glyph unicode="a" horiz-adv-x="525" d="M434 -10Q400 -10 376 5T345 50V300Q345 361 323 395T243 430Q212 430 186 424T136 400Q152 391 158 378T165 350Q165 328 150 314T115 300Q94 300 80 315T65 356Q65 382 81 403T124 439T184 462T252 470Q300 470 339
457T401 410T425 315V77Q425 63 431 49T457 35Q471 35 482 45T503 68L530 45Q518 28 504 16T473 -3T434 -10ZM200 -10Q121 -10 78 29T35 122Q35 177 78 215T200 254Q250 254 286 237T345 194V149Q313 183 280 196T218 209Q171 209 143 186T115 122Q115 83 143 59T218
35Q247 35 280 48T345 95V50Q322 24 286 7T200 -10Z" />
<glyph unicode="b" horiz-adv-x="593" d="M337 470Q397 470 443 441T516 358T543 232Q543 160 517 106T444 21T337 -10Q274 -10 236 18T178 85L133 0H98V690L93 695H18V730Q44 730 70 730T121 732T173 735L178 730V375Q197 410 237 440T337 470ZM323 35Q380 35
416 78T453 220Q453 318 417 371T323 425Q282 425 244 397T178 305V155Q206 91 244 63T323 35Z" />
<glyph unicode="c" horiz-adv-x="500" d="M279 -10Q216 -10 164 19T81 101T50 226Q50 303 83 357T170 441T289 470Q336 470 376 454T440 410T465 345Q465 320 451 305T415 290Q396 290 381 304T365 340Q365 356 374 369T406 389Q385 412 356 423T288 435Q234 435
201 409T153 337T137 237Q137 172 158 126T214 55T293 30Q333 30 371 53T443 122L470 99Q445 65 417 41T355 3T279 -10Z" />
<glyph unicode="d" horiz-adv-x="607" d="M495 40L500 35H575V0Q549 0 524 0T472 -2T420 -5L415 0V85Q396 50 356 20T256 -10Q196 -10 150 19T77 102T50 228Q50 300 76 354T149 439T256 470Q319 470 357 442T415 375V690L410 695H335V730Q361 730 387 730T438
732T490 735L495 730V40ZM415 155V305Q387 369 349 397T270 425Q213 425 177 382T140 240Q140 142 176 89T270 35Q311 35 349 63T415 155Z" />
<glyph unicode="e" horiz-adv-x="520" d="M295 30Q348 30 384 54T448 107L475 84Q454 59 428 38T366 3T280 -10Q219 -10 167 19T82 102T50 230Q50 304 82 358T166 441T280 470Q342 470 386 446T455 373T480 250H130V285H384Q380 357 356 396T275 435Q226 435 196
409T151 337T137 230Q137 171 159 126T217 56T295 30Z" />
<glyph unicode="f" horiz-adv-x="340" d="M120 460V544Q120 597 136 641T184 713T266 740Q303 740 323 724T351 688T360 653Q360 629 346 614T310 598Q289 598 275 612T260 648Q260 669 275 681T310 694Q321 694 331 689T347 675T353 653H323Q323 663 319 676T303
700T269 710Q246 710 232 696T211 660T202 611T200 560V460H120ZM120 0V420L115 425H205L200 420V0H120ZM40 425V460H330V425H40ZM40 35H115L120 40H200L205 35H320V0H40V35Z" />
<glyph unicode="g" horiz-adv-x="540" d="M258 470Q305 470 351 453T429 400T460 310Q460 256 429 221T352 168T258 150Q212 150 166 167T90 220T60 310Q60 364 90 399T166 452T258 470ZM264 185Q309 185 342 217T375 304Q375 348 357 377T310 420T252 435Q205
435 175 402T145 316Q145 273 162 244T207 200T264 185ZM130 108Q130 84 150 73T205 57T279 50T360 44T435 27T489 -11T510 -81Q510 -163 442 -211T259 -260Q226 -260 190 -255T121 -234T70 -193T50 -124Q50 -83 75 -53T143 -2L173 -11Q148 -32 139 -57T130 -108Q130
-159 165 -192T269 -225Q321 -225 364 -212T433 -172T460 -106Q460 -76 439 -61T383 -40T307 -31T224 -24T147 -10T91 21T70 81Q70 121 91 146T141 186L166 173Q147 158 139 140T130 108ZM330 452Q354 493 388 519T456 545Q484 545 497 530T510 496Q510 476 497
463T465 450Q446 450 433 463T420 495Q420 503 424 513T435 529L434 502Q418 497 398 480T360 431L330 452Z" />
<glyph unicode="h" horiz-adv-x="635" d="M515 40L520 35H595V0H355V35H430L435 40V320Q435 369 418 397T355 425Q313 425 275 397T195 300V40L200 35H275V0H35V35H110L115 40V690L110 695H35V730Q61 730 86 730T138 732T190 735L195 730V365Q224 412 268 441T377
470Q429 470 459 453T502 406T515 340V40Z" />
<glyph unicode="i" horiz-adv-x="320" d="M40 0V35H115L120 40V420L115 425H40V460Q66 460 91 460T143 462T195 465L200 460V40L205 35H280V0H40ZM155 570Q133 570 117 586T100 625Q100 648 116 664T155 680Q178 680 194 664T210 625Q210 603 194 587T155 570Z" />
<glyph unicode="j" horiz-adv-x="310" d="M59 -260Q20 -260 -1 -244T-31 -208T-40 -173Q-40 -149 -26 -134T10 -118Q31 -118 45 -132T60 -168Q60 -188 46 -200T12 -214Q19 -221 29 -225T54 -230Q71 -230 83 -224T104 -203T116 -167T120 -113V420L115 425H40V460Q66
460 91 460T143 462T195 465L200 460V-64Q200 -116 186 -161T140 -233T59 -260ZM155 570Q133 570 117 586T100 625Q100 648 116 664T155 680Q178 680 194 664T210 625Q210 603 194 587T155 570Z" />
<glyph unicode="k" horiz-adv-x="578" d="M321 302L505 35H570V0H345V35H397L402 40L254 255L321 302ZM135 178L397 420L392 425H282V460H537V425H462L195 178H135ZM195 40L200 35H275V0H35V35H110L115 40V690L110 695H35V730Q61 730 86 730T138 732T190 735L195 730V40Z" />
<glyph unicode="l" horiz-adv-x="315" d="M35 0V35H110L115 40V690L110 695H35V730Q61 730 86 730T138 732T190 735L195 730V40L200 35H275V0H35Z" />
<glyph unicode="m" horiz-adv-x="940" d="M825 35H900V0H665V35H735L740 40V320Q740 369 723 397T660 425Q618 425 585 397T510 300V40L515 35H585V0H355V35H425L430 40V320Q430 369 413 397T350 425Q308 425 275 397T200 300V40L205 35H275V0H40V35H115L120 40V420L115
425H40V460Q66 460 90 460T139 462T190 465L195 460V365H200Q229 412 268 441T372 470Q440 470 471 440T509 364Q538 414 578 442T682 470Q734 470 764 453T807 406T820 340V40L825 35Z" />
<glyph unicode="n" horiz-adv-x="640" d="M520 40L525 35H600V0H360V35H435L440 40V320Q440 369 423 397T360 425Q318 425 280 397T200 300V40L205 35H280V0H40V35H115L120 40V420L115 425H40V460Q66 460 90 460T139 462T190 465L195 460V365H200Q229 412 273
441T382 470Q434 470 464 453T507 406T520 340V40Z" />
<glyph unicode="o" horiz-adv-x="560" d="M280 470Q342 470 394 441T478 358T510 230Q510 156 478 102T394 19T280 -10Q219 -10 167 19T82 102T50 230Q50 304 82 358T166 441T280 470ZM285 25Q335 25 364 51T407 124T420 230Q420 289 401 335T350 408T275 435Q226
435 196 409T153 337T140 230Q140 171 159 125T210 52T285 25Z" />
<glyph unicode="p" horiz-adv-x="603" d="M347 470Q407 470 453 441T526 358T553 232Q553 160 527 106T454 21T347 -10Q284 -10 246 18T188 85V-210L193 -215H308V-250H28V-215H103L108 -210V420L103 425H28V460Q54 460 78 460T127 462T178 465L183 460V375H188Q207
410 247 440T347 470ZM333 35Q390 35 426 78T463 220Q463 318 427 371T333 425Q292 425 254 397T188 305V155Q216 91 254 63T333 35Z" />
<glyph unicode="q" horiz-adv-x="595" d="M495 -210L500 -215H575V-250H335V-215H410L415 -210V85Q396 50 356 20T256 -10Q196 -10 150 19T77 102T50 228Q50 300 76 354T149 439T256 470Q319 470 357 442T415 375L460 460H495V-210ZM270 35Q311 35 349 63T415
155V305Q387 369 349 397T270 425Q213 425 177 382T140 240Q140 142 176 89T270 35Z" />
<glyph unicode="r" horiz-adv-x="465" d="M212 350Q241 401 283 436T375 470Q400 470 415 461T438 438T445 405Q445 379 428 362T385 345Q359 345 342 362T325 405Q325 414 331 429T344 451L343 425Q324 419 304 405T262 362T212 280V350ZM212 40L217 35H332V0H52V35H127L132
40V420L127 425H52V460Q78 460 102 460T151 462T202 465L207 460V350H212V40Z" />
<glyph unicode="s" horiz-adv-x="468" d="M133 361Q133 334 153 319T206 293T275 271T344 244T397 200T418 127Q418 77 393 47T331 3T260 -10Q219 -10 187 1T128 30L113 0H75Q69 39 61 77T40 155L73 165Q100 109 134 79T201 37T258 25Q293 25 320 44T348 104Q348
135 328 152T275 181T206 202T137 228T84 269T63 339Q63 383 87 412T148 455T228 470Q260 470 287 462T331 439L341 460H379Q384 426 391 392T409 324L376 314Q354 368 319 401T227 435Q175 435 154 412T133 361Z" />
<glyph unicode="t" horiz-adv-x="350" d="M303 77L330 54Q314 31 289 11T219 -10Q191 -10 166 1T126 37T110 105V420L105 425H20V460Q80 464 115 514T155 670H190V460H320V425H195L190 420V99Q190 66 204 51T240 35Q260 35 274 46T303 77Z" />
<glyph unicode="u" horiz-adv-x="598" d="M486 40L491 35H566V0Q540 0 516 0T467 -2T416 -5L411 0V95H406Q378 48 336 19T229 -10Q180 -10 151 7T109 54T96 120V420L91 425H16V460Q42 460 68 460T119 462T171 465L176 460V140Q176 91 192 63T251 35Q293 35 329
63T406 160V420L401 425H326V460Q352 460 378 460T429 462T481 465L486 460V40Z" />
<glyph unicode="v" horiz-adv-x="516" d="M329 460H511V425H451L297 0H232L65 425H-5V460H226V425H161L156 420L282 90H287L404 420L399 425H329V460Z" />
<glyph unicode="w" horiz-adv-x="778" d="M588 460H770V425H710L565 0H500L391 302H386L272 0H207L62 425H-8V460H222V425H157L152 420L259 100H264L368 371L350 425H302V460H508V425H442L437 420L549 100H554L663 420L658 425H588V460Z" />
<glyph unicode="x" horiz-adv-x="540" d="M280 0V35H351L356 40L82 425H16V460H255V425H189L184 420L458 35H524V0H280ZM16 0V35H72L238 252H290L129 40L134 35H200V0H16ZM253 232L401 420L396 425H335V460H514V425H458L305 232H253Z" />
<glyph unicode="y" horiz-adv-x="514" d="M238 -30L64 425H-6V460H225V425H160L155 420L276 90H281L403 420L398 425H328V460H510V425H450L291 0L238 -30ZM95 -260Q58 -260 38 -244T9 -208T1 -173Q1 -149 15 -134T51 -118Q72 -118 86 -132T101 -168Q101 -189 86
-201T51 -214Q40 -214 30 -209T14 -194T8 -173H38Q38 -183 42 -196T59 -220T95 -230Q127 -230 152 -201T198 -126T238 -30L291 0Q271 -49 252 -95T212 -179T162 -238T95 -260Z" />
<glyph unicode="z" horiz-adv-x="497" d="M427 155H462L427 0H35V25L328 420L323 425H232Q187 425 158 418T111 387T78 310L45 320L77 460H437V435L144 40L149 35H216Q273 35 309 40T366 59T401 96T427 155Z" />
<glyph unicode="{" horiz-adv-x="310" d="M30 239V254Q85 254 103 282T122 347Q122 392 117 431T107 510T102 594Q102 652 143 691T260 730V695Q206 695 177 666T147 589Q147 545 152 506T162 427T167 342Q167 303 149 276T96 239H30ZM260 -250Q185 -250 144 -212T102
-116Q102 -71 107 -32T117 46T122 130Q122 167 104 195T30 224V239H96Q131 230 149 202T167 135Q167 91 162 52T152 -27T147 -111Q147 -158 176 -186T260 -215V-250Z" />
<glyph unicode="|" horiz-adv-x="245" d="M100 -250V750H145V-250H100Z" />
<glyph unicode="}" horiz-adv-x="310" d="M214 239Q179 248 161 275T143 342Q143 387 148 426T158 505T163 589Q163 636 134 665T50 695V730Q125 730 166 691T208 594Q208 550 203 511T193 432T188 347Q188 310 206 282T280 254V239H214ZM50 -250V-215Q104 -215
133 -187T163 -111Q163 -66 158 -27T148 51T143 135Q143 174 161 202T214 239H280V224Q225 224 207 196T188 130Q188 86 193 47T203 -32T208 -116Q208 -174 167 -212T50 -250Z" />
<glyph unicode="~" horiz-adv-x="510" d="M380 371Q421 371 446 347T485 282L450 268Q436 298 420 314T373 330Q349 330 319 321T257 300T192 279T130 270Q90 270 64 294T25 359L60 373Q74 343 90 327T137 311Q158 311 188 320T252 341T320 362T380 371Z" />
<glyph unicode="&#xa0;" horiz-adv-x="230" />
<glyph unicode="&#xa1;" horiz-adv-x="190" d="M95 -220Q76 -220 60 -204T45 -160L80 280H110L145 -160Q147 -188 131 -204T95 -220ZM95 470Q118 470 134 454T150 415Q150 393 134 377T95 360Q73 360 57 376T40 415Q40 438 56 454T95 470Z" />
<glyph unicode="&#xa2;" horiz-adv-x="500" d="M145 -100L346 580H384L183 -100H145ZM293 30Q333 30 371 53T443 122L470 99Q445 65 417 41T355 3T279 -10Q216 -10 164 19T81 102T50 228Q50 300 81 354T164 437T279 467Q321 467 355 454T417 417T470 358L443 335Q409
380 371 403T293 427Q250 427 215 405T158 340T137 230Q137 165 158 120T214 53T293 30Z" />
<glyph unicode="&#xa3;" horiz-adv-x="638" d="M563 190H598L555 0H60V30Q93 51 112 79T139 142T147 214Q147 256 141 294T128 370T121 449Q121 514 140 558T192 629T267 668T354 680Q388 680 412 674T457 657T497 630L518 670H553Q557 619 565 572T583 477L550
467Q535 512 516 542T475 592T431 622T389 636T351 640Q298 640 269 616T228 550T216 460Q216 413 222 378T235 311T242 243Q242 185 222 144T163 80H365Q423 80 462 87T525 119T563 190ZM40 352H524V317H40V352Z" />
<glyph unicode="&#xa4;" horiz-adv-x="564" d="M155 168L75 88L50 113L130 193L155 168ZM285 103Q227 104 180 132T104 208T75 314Q75 372 103 419T179 495T285 524Q343 525 390 496T466 419T495 313Q495 255 467 208T391 132T285 103ZM285 138Q335 137 374 161T438
226T462 315Q463 364 439 403T375 465T285 489Q237 489 197 466T134 403T110 315Q110 266 134 227T197 163T285 138ZM403 466L489 551L514 526L430 442L403 466ZM131 447L50 527L75 552L156 472L131 447ZM429 199L514 113L489 88L404 172L429 199Z" />
<glyph unicode="&#xa5;" horiz-adv-x="641" d="M427 670H630V635H570L370 279V20H280V279L81 635H11V670H262V635H192L187 630L348 337H353L517 630L512 635H427V670ZM195 0V35H275L280 40H370L375 35H455V0H195ZM96 307H580V272H96V307ZM96 197H580V162H96V197Z" />
<glyph unicode="&#xa6;" horiz-adv-x="245" d="M100 460V750H145V460H100ZM100 -250V40H145V-250H100Z" />
<glyph unicode="&#xa7;" horiz-adv-x="455" d="M130 542Q130 505 150 477T201 424T267 376T334 325T385 264T405 182Q405 146 393 120T357 74T302 42T233 20V45Q276 61 305 87T335 162Q335 202 315 232T264 287T198 336T131 387T80 448T60 527Q60 574 82 608T144
662T236 681Q285 681 319 665T371 622T389 562Q389 525 371 512T336 498Q315 498 301 512T286 547Q286 567 301 581T341 596Q329 622 302 634T243 646Q208 646 183 632T144 595T130 542ZM315 -121Q315 -84 295 -56T244 -3T178 45T111 96T60 158T40 239Q40 275 52
301T88 347T143 379T212 401V376Q169 360 140 334T110 259Q110 219 130 189T181 134T247 85T314 34T365 -27T385 -106Q385 -152 363 -187T301 -241T209 -260Q160 -260 126 -244T74 -201T56 -141Q56 -104 74 -91T109 -77Q130 -77 144 -91T159 -126Q159 -146 144
-160T104 -175Q116 -200 143 -212T202 -225Q238 -225 263 -211T301 -174T315 -121Z" />
<glyph unicode="&#xa8;" horiz-adv-x="310" d="M55 570Q33 570 17 586T0 625Q0 648 16 664T55 680Q78 680 94 664T110 625Q110 603 94 587T55 570ZM255 570Q233 570 217 586T200 625Q200 648 216 664T255 680Q278 680 294 664T310 625Q310 603 294 587T255 570Z" />
<glyph unicode="&#xa9;" horiz-adv-x="790" d="M395 -10Q323 -10 261 16T151 90T77 200T50 335Q50 407 76 469T150 579T260 653T395 680Q467 680 529 654T639 580T713 470T740 335Q740 263 714 201T640 91T530 17T395 -10ZM397 144Q338 144 296 171T231 241T208
332Q208 382 232 425T299 496T403 523Q436 523 460 514T508 489L523 516H546Q549 482 553 454T565 393L542 386Q526 428 502 452T450 486T399 496Q353 496 326 471T285 410T272 336Q272 297 287 260T333 199T414 175Q453 175 484 192T552 247L570 232Q535 191 498
168T397 144ZM395 25Q458 25 513 49T611 116T676 215T700 335Q700 398 677 454T611 553T514 620T395 645Q332 645 277 621T179 554T114 455T90 335Q90 272 113 216T179 117T276 50T395 25Z" />
<glyph unicode="&#xaa;" horiz-adv-x="346" d="M322 364L338 351Q328 335 313 325T273 314Q252 314 238 322T217 348Q204 334 184 324T132 314Q84 314 59 337T33 395Q33 430 58 452T132 475Q163 475 183 465T217 441V505Q217 541 204 561T157 581Q137 581 122
577T94 565Q103 559 107 551T112 533Q112 518 103 509T79 499Q65 499 55 509T45 536Q45 559 63 574T110 598T168 606Q198 606 222 598T262 570T277 512V371Q277 363 281 355T296 347Q304 347 310 352T322 364ZM217 376V414Q200 432 182 440T147 448Q121 448 107
434T93 395Q93 371 107 357T147 342Q164 342 182 349T217 376Z" />
<glyph unicode="&#xab;" horiz-adv-x="386" d="M211 405L109 230L211 55L188 39L15 230L188 421L211 405ZM371 405L269 230L371 55L348 39L175 230L348 421L371 405Z" />
<glyph unicode="&#xac;" horiz-adv-x="510" d="M25 337H485V173H450V302H25V337Z" />
<glyph unicode="&#xad;" horiz-adv-x="600" d="M40 305H340V240H40V305Z" />
<glyph unicode="&#xae;" horiz-adv-x="790" d="M395 -10Q323 -10 261 16T151 90T77 200T50 335Q50 407 76 469T150 579T260 653T395 680Q467 680 529 654T639 580T713 470T740 335Q740 263 714 201T640 91T530 17T395 -10ZM395 25Q458 25 513 49T611 116T676 215T700
335Q700 398 677 454T611 553T514 620T395 645Q332 645 277 621T179 554T114 455T90 335Q90 272 113 216T179 117T276 50T395 25ZM209 151V175H263L266 178V489L263 493H209V516H402Q440 516 474 507T529 475T551 417Q551 381 527 356T468 318L574 175H625V151H440V175H494L497
178L402 307H327V178L331 175H385V151H209ZM327 330H388Q434 330 460 350T486 412Q486 449 460 471T388 493H331L327 489V330Z" />
<glyph unicode="&#xaf;" horiz-adv-x="290" d="M0 650H290V600H0V650Z" />
<glyph unicode="&#xb0;" horiz-adv-x="380" d="M190 390Q151 390 119 409T69 460T50 530Q50 569 68 600T119 651T190 670Q229 670 260 651T311 601T330 530Q330 492 311 460T261 409T190 390ZM190 427Q232 427 261 458T290 530Q290 571 261 602T190 633Q148 633
119 602T90 530Q90 489 119 458T190 427Z" />
<glyph unicode="&#xb1;" horiz-adv-x="510" d="M25 337H485V302H25V337ZM273 550V90H238V550H273ZM25 37H485V2H25V37Z" />
<glyph unicode="&#xb2;" horiz-adv-x="354" d="M299 439H320L294 320H27Q27 355 41 382T78 432T126 474T174 515T211 561T226 617Q226 656 206 680T151 704Q121 704 99 691T68 654L32 623Q32 648 46 672T91 712T165 728Q188 728 211 723T253 706T284 673T296 623Q296
583 278 557T232 511T173 473T114 432T69 377H182Q235 377 260 388T299 439ZM70 580Q54 580 43 591T32 623L68 654Q86 656 96 645T107 618Q107 602 97 591T70 580Z" />
<glyph unicode="&#xb3;" horiz-adv-x="340" d="M162 314Q104 314 67 340T30 403L71 372Q85 354 108 346T155 338Q202 338 224 360T247 425Q247 452 236 472T200 504T135 516V535Q177 535 219 525T289 492T317 426Q317 390 295 365T238 327T162 314ZM71 372L30
403Q30 423 41 434T68 446Q84 446 94 436T105 409Q105 394 95 384T71 372ZM135 522V537Q161 537 182 547T216 577T229 627Q229 665 208 684T152 704Q124 704 103 692T71 660L35 629Q35 652 50 674T94 712T167 728Q191 728 214 723T256 706T286 676T298 633Q298
597 275 573T214 536T135 522ZM73 586Q57 586 46 597T35 629L71 660Q89 662 99 651T110 624Q110 608 100 597T73 586Z" />
<glyph unicode="&#xb4;" horiz-adv-x="129" d="M129 720L30 550H0L39 720H129Z" />
<glyph unicode="&#xb5;" horiz-adv-x="599" d="M390 95Q362 48 320 19T235 -10Q206 -10 185 2T149 36T127 84T120 140H80V460H160V140Q160 91 176 63T235 35Q277 35 313 63T390 160V95ZM160 200V-250H80V200H160ZM494 -10Q452 -10 421 14T390 95L389 460H469L470
109Q470 75 479 55T510 35Q521 35 533 41T555 68T564 130H599Q599 54 569 22T494 -10Z" />
<glyph unicode="&#xb6;" horiz-adv-x="505" d="M295 130V290H265Q226 290 183 301T101 337T39 398T15 488Q15 541 37 576T97 632T178 661T265 670H470V635H390L385 630V150L295 130ZM231 -10Q190 -10 159 6T109 50T91 110Q91 140 110 157T151 175Q174 175 190
159T206 120Q206 98 190 82T151 65Q145 65 137 67T122 74T110 84H140Q148 68 158 56T182 37T218 30Q245 30 270 52T295 130L385 150Q385 103 372 72T336 23T286 -2T231 -10Z" />
<glyph unicode="&#xb7;" horiz-adv-x="190" d="M95 300Q73 300 57 316T40 355Q40 378 56 394T95 410Q118 410 134 394T150 355Q150 333 134 317T95 300Z" />
<glyph unicode="&#xb8;" horiz-adv-x="199" d="M12 -187Q32 -200 51 -205T86 -210Q117 -210 128 -197T139 -169Q139 -143 115 -126T45 -97L81 0H121L103 -49Q144 -60 174 -86T204 -153Q204 -193 173 -221T91 -250Q45 -250 0 -220L12 -187Z" />
<glyph unicode="&#xb9;" horiz-adv-x="300" d="M125 330V654Q113 642 95 630T59 608L48 628Q63 635 84 650T125 684T158 722H191V330H125ZM48 320V341H121L125 345H191L195 341H269V320H48Z" />
<glyph unicode="&#xba;" horiz-adv-x="339" d="M170 606Q209 606 241 589T292 538T312 460Q312 392 271 353T170 314Q111 314 69 353T27 460Q27 528 69 567T170 606ZM173 335Q200 335 215 351T238 395T245 457Q245 516 222 550T167 585Q140 585 124 569T101 525T94
463Q94 405 117 370T173 335Z" />
<glyph unicode="&#xbb;" horiz-adv-x="386" d="M175 405L198 421L371 230L198 39L175 55L277 230L175 405ZM15 405L38 421L211 230L38 39L15 55L117 230L15 405Z" />
<glyph unicode="&#xbc;" horiz-adv-x="803" d="M48 272V293H121L125 297V606Q113 594 95 582T59 560L48 580Q63 587 84 602T125 636T158 674H191V297L195 293H269V272H48ZM210 0L514 670H562L258 0H210ZM458 106L491 127H772V106H458ZM458 106V124L666 402H713V25L717
21H760V0H600V21H643L647 25V337H645L491 130V127L458 106Z" />
<glyph unicode="&#xbd;" horiz-adv-x="826" d="M48 272V293H121L125 297V606Q113 594 95 582T59 560L48 580Q63 587 84 602T125 636T158 674H191V297L195 293H269V272H48ZM210 0L514 670H562L258 0H210ZM499 0Q499 35 513 62T550 112T598 154T646 195T683 241T698
297Q698 336 678 360T623 384Q593 384 571 371T540 334L504 303Q504 328 518 352T563 392T637 408Q660 408 683 403T725 386T756 353T768 303Q768 263 750 237T704 191T645 153T586 112T541 57H654Q707 57 732 68T771 119H792L766 0H499ZM542 260Q526 260 515 271T504
303L540 334Q558 336 568 325T579 298Q579 282 569 271T542 260Z" />
<glyph unicode="&#xbe;" horiz-adv-x="835" d="M71 324L30 355Q30 375 41 386T68 398Q84 398 94 388T105 361Q105 346 95 336T71 324ZM73 538Q57 538 46 549T35 581L71 612Q89 614 99 603T110 576Q110 560 100 549T73 538ZM30 355L71 324Q85 306 108 298T155 290Q202
290 224 312T247 377Q247 404 236 424T200 456T135 468V489Q161 489 182 499T216 529T229 579Q229 617 208 636T152 656Q124 656 103 644T71 612L35 581Q35 604 50 626T94 664T167 680Q191 680 214 675T256 658T286 628T298 585Q298 553 279 530T229 494T161 475V485Q200
484 235 473T294 438T317 378Q317 342 295 317T238 279T162 266Q104 266 67 292T30 355ZM250 0L554 670H602L298 0H250ZM498 106L531 127H812V106H498ZM498 106V124L706 402H753V25L757 21H800V0H640V21H683L687 25V337H685L531 130V127L498 106Z" />
<glyph unicode="&#xbf;" horiz-adv-x="450" d="M240 279Q259 229 254 192T229 126T187 68T147 6T130 -71Q130 -118 156 -149T240 -180Q275 -180 302 -167T346 -130T363 -78L410 -74Q410 -108 387 -142T321 -198T221 -220Q173 -220 132 -205T66 -158T40 -80Q40
-37 60 -2T108 65T163 129T204 197T210 279H240ZM355 -8Q378 -8 394 -25T410 -74L355 -118Q340 -118 328 -111T308 -91T300 -63Q300 -40 316 -24T355 -8ZM225 469Q248 469 264 453T280 414Q280 392 264 376T225 359Q203 359 187 375T170 414Q170 437 186 453T225
469Z" />
<glyph unicode="&#xc0;" horiz-adv-x="702" d="M15 0V35H73L315 670H390L619 35H687V0H450V35H515L520 40L331 575H326L123 40L128 35H210V0H15ZM174 240V275H473V240H174ZM217 870H327L386 730H356L217 870Z" />
<glyph unicode="&#xc1;" horiz-adv-x="702" d="M15 0V35H73L315 670H390L619 35H687V0H450V35H515L520 40L331 575H326L123 40L128 35H210V0H15ZM174 240V275H473V240H174ZM495 870L356 730H326L385 870H495Z" />
<glyph unicode="&#xc2;" horiz-adv-x="702" d="M15 0V35H73L315 670H390L619 35H687V0H450V35H515L520 40L331 575H326L123 40L128 35H210V0H15ZM174 240V275H473V240H174ZM465 730L351 791L236 730H206L335 870H366L495 730H465Z" />
<glyph unicode="&#xc3;" horiz-adv-x="702" d="M15 0V35H73L315 670H390L619 35H687V0H450V35H515L520 40L331 575H326L123 40L128 35H210V0H15ZM174 240V275H473V240H174ZM498 850L526 835Q515 777 486 756T426 734Q394 734 365 749T309 780T259 795Q243 795
229 784T204 739L176 754Q187 809 215 832T275 855Q306 855 335 840T392 810T443 794Q459 794 473 805T498 850Z" />
<glyph unicode="&#xc4;" horiz-adv-x="702" d="M15 0V35H73L315 670H390L619 35H687V0H450V35H515L520 40L331 575H326L123 40L128 35H210V0H15ZM174 240V275H473V240H174ZM241 740Q219 740 203 756T186 795Q186 818 202 834T241 850Q264 850 280 834T296 795Q296
773 280 757T241 740ZM461 740Q439 740 423 756T406 795Q406 818 422 834T461 850Q484 850 500 834T516 795Q516 773 500 757T461 740Z" />
<glyph unicode="&#xc5;" horiz-adv-x="702" d="M15 0V35H73L315 670H390L619 35H687V0H450V35H515L520 40L331 575H326L123 40L128 35H210V0H15ZM174 240V275H473V240H174ZM353 646Q313 646 283 671T253 736Q253 776 283 801T353 826Q394 826 423 801T453 736Q453
696 424 671T353 646ZM355 671Q375 671 386 688T398 736Q398 768 385 784T351 801Q332 801 320 785T308 736Q308 705 322 688T355 671Z" />
<glyph unicode="&#xc6;" horiz-adv-x="917" d="M217 275H483V240H217V275ZM842 190H877L834 0H348V35H428L433 40V575H428L107 40L111 35H193V0H-5V35H53L433 670H824L860 510L827 500Q813 553 790 582T730 623T634 635H528L523 630V365H606Q649 365 670 387T696
475H731V220H696Q692 286 671 308T606 330H523V40L528 35H644Q731 35 776 73T842 190Z" />
<glyph unicode="&#xc7;" horiz-adv-x="685" d="M387 35Q452 35 512 66T628 162L655 139Q602 69 532 30T370 -10H369Q300 -10 242 15T141 87T74 195T50 330Q50 407 76 471T149 582T257 654T387 680Q437 680 477 667T554 630L575 670H610Q614 619 622 572T640 477L607
467Q589 521 562 555T503 607T441 633T384 640Q311 640 258 602T175 495T145 337Q145 247 174 179T258 73T387 35ZM375 -250Q329 -250 284 -220L296 -187Q316 -200 335 -205T370 -210Q401 -210 412 -197T423 -169Q423 -143 399 -126T329 -97L365 0H405L371 -91L355
-43Q388 -47 418 -61T468 -98T488 -153Q488 -193 457 -221T375 -250Z" />
<glyph unicode="&#xc8;" horiz-adv-x="639" d="M564 190H599L556 0H50V35H130L135 40V630L130 635H50V670H546L582 510L549 500Q535 553 512 582T452 623T356 635H230L225 630V354L180 365H328Q371 365 392 387T418 475H453V220H418Q414 286 393 308T328 330H180L225
343V40L230 35H366Q453 35 498 73T564 190ZM196 870H306L365 730H335L196 870Z" />
<glyph unicode="&#xc9;" horiz-adv-x="639" d="M564 190H599L556 0H50V35H130L135 40V630L130 635H50V670H546L582 510L549 500Q535 553 512 582T452 623T356 635H230L225 630V354L180 365H328Q371 365 392 387T418 475H453V220H418Q414 286 393 308T328 330H180L225
343V40L230 35H366Q453 35 498 73T564 190ZM474 870L335 730H305L364 870H474Z" />
<glyph unicode="&#xca;" horiz-adv-x="639" d="M564 190H599L556 0H50V35H130L135 40V630L130 635H50V670H546L582 510L549 500Q535 553 512 582T452 623T356 635H230L225 630V354L180 365H328Q371 365 392 387T418 475H453V220H418Q414 286 393 308T328 330H180L225
343V40L230 35H366Q453 35 498 73T564 190ZM444 730L330 791L215 730H185L314 870H345L474 730H444Z" />
<glyph unicode="&#xcb;" horiz-adv-x="639" d="M564 190H599L556 0H50V35H130L135 40V630L130 635H50V670H546L582 510L549 500Q535 553 512 582T452 623T356 635H230L225 630V354L180 365H328Q371 365 392 387T418 475H453V220H418Q414 286 393 308T328 330H180L225
343V40L230 35H366Q453 35 498 73T564 190ZM220 740Q198 740 182 756T165 795Q165 818 181 834T220 850Q243 850 259 834T275 795Q275 773 259 757T220 740ZM440 740Q418 740 402 756T385 795Q385 818 401 834T440 850Q463 850 479 834T495 795Q495 773 479 757T440
740Z" />
<glyph unicode="&#xcc;" horiz-adv-x="400" d="M330 635H250L245 630V40L250 35H330V0H70V35H150L155 40V630L150 635H70V670H330V635ZM66 870H176L235 730H205L66 870Z" />
<glyph unicode="&#xcd;" horiz-adv-x="400" d="M330 635H250L245 630V40L250 35H330V0H70V35H150L155 40V630L150 635H70V670H330V635ZM344 870L205 730H175L234 870H344Z" />
<glyph unicode="&#xce;" horiz-adv-x="400" d="M330 635H250L245 630V40L250 35H330V0H70V35H150L155 40V630L150 635H70V670H330V635ZM314 730L200 791L85 730H55L184 870H215L344 730H314Z" />
<glyph unicode="&#xcf;" horiz-adv-x="400" d="M330 635H250L245 630V40L250 35H330V0H70V35H150L155 40V630L150 635H70V670H330V635ZM90 740Q68 740 52 756T35 795Q35 818 51 834T90 850Q113 850 129 834T145 795Q145 773 129 757T90 740ZM310 740Q288 740 272
756T255 795Q255 818 271 834T310 850Q333 850 349 834T365 795Q365 773 349 757T310 740Z" />
<glyph unicode="&#xd0;" horiz-adv-x="750" d="M50 0V35H130L135 40V630L130 635H50V670H360Q437 670 499 648T606 583T675 481T700 345Q700 271 675 208T603 99T495 26T360 0H50ZM60 317V352H380V317H60ZM230 35H360Q434 35 489 72T574 176T605 335Q605 422 573
490T482 596T340 635H230L225 630V40L230 35Z" />
<glyph unicode="&#xd1;" horiz-adv-x="755" d="M570 0L185 547H180L135 630L130 635H50V670H210L595 123H600V0H570ZM50 0V35H130L135 40V630L180 547V40L185 35H265V0H50ZM720 670V635H650L645 630V0H600V630L595 635H515V670H720ZM530 850L558 835Q547 777 518
756T458 734Q426 734 397 749T341 780T291 795Q275 795 261 784T236 739L208 754Q219 809 247 832T307 855Q338 855 367 840T424 810T475 794Q491 794 505 805T530 850Z" />
<glyph unicode="&#xd2;" horiz-adv-x="740" d="M370 680Q462 680 534 636T648 514T690 335Q690 261 665 198T596 89T493 16T370 -10Q278 -10 206 34T92 156T50 335Q50 409 75 472T144 581T247 654T370 680ZM380 30Q449 30 497 68T570 175T595 335Q595 422 569
491T490 600T360 640Q292 640 244 602T170 495T145 335Q145 248 171 179T250 70T380 30ZM236 870H346L405 730H375L236 870Z" />
<glyph unicode="&#xd3;" horiz-adv-x="740" d="M370 680Q462 680 534 636T648 514T690 335Q690 261 665 198T596 89T493 16T370 -10Q278 -10 206 34T92 156T50 335Q50 409 75 472T144 581T247 654T370 680ZM380 30Q449 30 497 68T570 175T595 335Q595 422 569
491T490 600T360 640Q292 640 244 602T170 495T145 335Q145 248 171 179T250 70T380 30ZM514 870L375 730H345L404 870H514Z" />
<glyph unicode="&#xd4;" horiz-adv-x="740" d="M370 680Q462 680 534 636T648 514T690 335Q690 261 665 198T596 89T493 16T370 -10Q278 -10 206 34T92 156T50 335Q50 409 75 472T144 581T247 654T370 680ZM380 30Q449 30 497 68T570 175T595 335Q595 422 569
491T490 600T360 640Q292 640 244 602T170 495T145 335Q145 248 171 179T250 70T380 30ZM484 730L370 791L255 730H225L354 870H385L514 730H484Z" />
<glyph unicode="&#xd5;" horiz-adv-x="740" d="M370 680Q462 680 534 636T648 514T690 335Q690 261 665 198T596 89T493 16T370 -10Q278 -10 206 34T92 156T50 335Q50 409 75 472T144 581T247 654T370 680ZM380 30Q449 30 497 68T570 175T595 335Q595 422 569
491T490 600T360 640Q292 640 244 602T170 495T145 335Q145 248 171 179T250 70T380 30ZM517 850L545 835Q534 777 505 756T445 734Q413 734 384 749T328 780T278 795Q262 795 248 784T223 739L195 754Q206 809 234 832T294 855Q325 855 354 840T411 810T462 794Q478
794 492 805T517 850Z" />
<glyph unicode="&#xd6;" horiz-adv-x="740" d="M370 680Q462 680 534 636T648 514T690 335Q690 261 665 198T596 89T493 16T370 -10Q278 -10 206 34T92 156T50 335Q50 409 75 472T144 581T247 654T370 680ZM380 30Q449 30 497 68T570 175T595 335Q595 422 569
491T490 600T360 640Q292 640 244 602T170 495T145 335Q145 248 171 179T250 70T380 30ZM260 740Q238 740 222 756T205 795Q205 818 221 834T260 850Q283 850 299 834T315 795Q315 773 299 757T260 740ZM480 740Q458 740 442 756T425 795Q425 818 441 834T480 850Q503
850 519 834T535 795Q535 773 519 757T480 740Z" />
<glyph unicode="&#xd7;" horiz-adv-x="470" d="M25 134L420 530L445 505L50 109L25 134ZM50 531L445 135L420 110L25 506L50 531Z" />
<glyph unicode="&#xd8;" horiz-adv-x="740" d="M223 -100L255 10Q194 33 148 79T76 191T50 335Q50 409 75 472T144 581T247 654T370 680Q391 680 411 678T450 671L479 770H517L485 660Q547 637 593 591T664 479T690 335Q690 261 665 198T596 89T493 16T370 -10Q349
-10 330 -8T290 -1L261 -100H223ZM269 58L437 627Q404 640 360 640Q292 640 244 602T170 495T145 335Q145 241 176 167T269 58ZM380 30Q449 30 497 68T570 175T595 335Q595 430 564 503T471 612L303 43Q336 30 380 30Z" />
<glyph unicode="&#xd9;" horiz-adv-x="730" d="M490 635V670H695V635H625L620 630V245Q620 166 589 109T505 21T384 -10Q294 -10 236 22T149 110T120 233V630L115 635H35V670H295V635H215L210 630V245Q210 185 230 139T290 67T389 40Q441 40 483 64T550 134T575
245V630L570 635H490ZM256 870H366L425 730H395L256 870Z" />
<glyph unicode="&#xda;" horiz-adv-x="730" d="M490 635V670H695V635H625L620 630V245Q620 166 589 109T505 21T384 -10Q294 -10 236 22T149 110T120 233V630L115 635H35V670H295V635H215L210 630V245Q210 185 230 139T290 67T389 40Q441 40 483 64T550 134T575
245V630L570 635H490ZM534 870L395 730H365L424 870H534Z" />
<glyph unicode="&#xdb;" horiz-adv-x="730" d="M490 635V670H695V635H625L620 630V245Q620 166 589 109T505 21T384 -10Q294 -10 236 22T149 110T120 233V630L115 635H35V670H295V635H215L210 630V245Q210 185 230 139T290 67T389 40Q441 40 483 64T550 134T575
245V630L570 635H490ZM504 730L390 791L275 730H245L374 870H405L534 730H504Z" />
<glyph unicode="&#xdc;" horiz-adv-x="730" d="M490 635V670H695V635H625L620 630V245Q620 166 589 109T505 21T384 -10Q294 -10 236 22T149 110T120 233V630L115 635H35V670H295V635H215L210 630V245Q210 185 230 139T290 67T389 40Q441 40 483 64T550 134T575
245V630L570 635H490ZM280 740Q258 740 242 756T225 795Q225 818 241 834T280 850Q303 850 319 834T335 795Q335 773 319 757T280 740ZM500 740Q478 740 462 756T445 795Q445 818 461 834T500 850Q523 850 539 834T555 795Q555 773 539 757T500 740Z" />
<glyph unicode="&#xdd;" horiz-adv-x="641" d="M11 635V670H262V635H192L187 630L348 337H353L517 630L512 635H427V670H630V635H570L370 279V40L375 35H455V0H195V35H275L280 40V279L81 635H11ZM485 870L346 730H316L375 870H485Z" />
<glyph unicode="&#xde;" horiz-adv-x="620" d="M50 0V35H130L135 40V630L130 635H50V670H310V635H230L225 630V539L180 550H325Q372 550 421 541T511 510T579 448T605 348Q605 289 578 248T508 180T417 142T325 130H180L225 139V40L230 35H310V0H50ZM225 154L180
165H305Q359 165 405 178T481 229T510 340Q510 405 481 443T404 498T305 515H180L225 528V154Z" />
<glyph unicode="&#xdf;" horiz-adv-x="622" d="M408 400Q408 368 427 345T474 301T531 257T579 203T598 125Q598 76 576 47T521 4T454 -10Q415 -10 391 3T348 30L333 0H295Q289 39 281 77T260 155L293 165Q333 95 377 60T458 25Q486 25 509 45T533 100Q533 132
514 154T467 197T410 240T362 296T343 375Q343 409 353 434T378 478T408 516T433 556T443 606Q443 650 416 680T337 710Q288 710 258 682T214 606T200 500V0H40V35H115L120 40V420L115 425H40V460H120V494Q120 575 148 629T225 712T334 740Q412 740 446 700T480
604Q480 567 469 540T444 491T419 447T408 400Z" />
<glyph unicode="&#xe0;" horiz-adv-x="525" d="M434 -10Q400 -10 376 5T345 50V300Q345 361 323 395T243 430Q212 430 186 424T136 400Q152 391 158 378T165 350Q165 328 150 314T115 300Q94 300 80 315T65 356Q65 382 81 403T124 439T184 462T252 470Q300 470
339 457T401 410T425 315V77Q425 63 431 49T457 35Q471 35 482 45T503 68L530 45Q518 28 504 16T473 -3T434 -10ZM200 -10Q121 -10 78 29T35 122Q35 177 78 215T200 254Q250 254 286 237T345 194V149Q313 183 280 196T218 209Q171 209 143 186T115 122Q115 83 143
59T218 35Q247 35 280 48T345 95V50Q322 24 286 7T200 -10ZM256 550L157 720H247L286 550H256Z" />
<glyph unicode="&#xe1;" horiz-adv-x="525" d="M434 -10Q400 -10 376 5T345 50V300Q345 361 323 395T243 430Q212 430 186 424T136 400Q152 391 158 378T165 350Q165 328 150 314T115 300Q94 300 80 315T65 356Q65 382 81 403T124 439T184 462T252 470Q300 470
339 457T401 410T425 315V77Q425 63 431 49T457 35Q471 35 482 45T503 68L530 45Q518 28 504 16T473 -3T434 -10ZM200 -10Q121 -10 78 29T35 122Q35 177 78 215T200 254Q250 254 286 237T345 194V149Q313 183 280 196T218 209Q171 209 143 186T115 122Q115 83 143
59T218 35Q247 35 280 48T345 95V50Q322 24 286 7T200 -10ZM241 550L280 720H370L271 550H241Z" />
<glyph unicode="&#xe2;" horiz-adv-x="525" d="M434 -10Q400 -10 376 5T345 50V300Q345 361 323 395T243 430Q212 430 186 424T136 400Q152 391 158 378T165 350Q165 328 150 314T115 300Q94 300 80 315T65 356Q65 382 81 403T124 439T184 462T252 470Q300 470
339 457T401 410T425 315V77Q425 63 431 49T457 35Q471 35 482 45T503 68L530 45Q518 28 504 16T473 -3T434 -10ZM200 -10Q121 -10 78 29T35 122Q35 177 78 215T200 254Q250 254 286 237T345 194V149Q313 183 280 196T218 209Q171 209 143 186T115 122Q115 83 143
59T218 35Q247 35 280 48T345 95V50Q322 24 286 7T200 -10ZM131 550L240 720H271L380 550H350L224 672H288L161 550H131Z" />
<glyph unicode="&#xe3;" horiz-adv-x="525" d="M434 -10Q400 -10 376 5T345 50V300Q345 361 323 395T243 430Q212 430 186 424T136 400Q152 391 158 378T165 350Q165 328 150 314T115 300Q94 300 80 315T65 356Q65 382 81 403T124 439T184 462T252 470Q300 470
339 457T401 410T425 315V77Q425 63 431 49T457 35Q471 35 482 45T503 68L530 45Q518 28 504 16T473 -3T434 -10ZM200 -10Q121 -10 78 29T35 122Q35 177 78 215T200 254Q250 254 286 237T345 194V149Q313 183 280 196T218 209Q171 209 143 186T115 122Q115 83 143
59T218 35Q247 35 280 48T345 95V50Q322 24 286 7T200 -10ZM321 564Q297 564 281 573T251 594T225 616T194 625Q178 625 164 614T139 569L111 584Q122 639 150 662T210 685Q233 685 249 676T279 655T306 633T338 624Q354 624 368 635T393 680L421 665Q410 607 381
586T321 564Z" />
<glyph unicode="&#xe4;" horiz-adv-x="525" d="M434 -10Q400 -10 376 5T345 50V300Q345 361 323 395T243 430Q212 430 186 424T136 400Q152 391 158 378T165 350Q165 328 150 314T115 300Q94 300 80 315T65 356Q65 382 81 403T124 439T184 462T252 470Q300 470
339 457T401 410T425 315V77Q425 63 431 49T457 35Q471 35 482 45T503 68L530 45Q518 28 504 16T473 -3T434 -10ZM200 -10Q121 -10 78 29T35 122Q35 177 78 215T200 254Q250 254 286 237T345 194V149Q313 183 280 196T218 209Q171 209 143 186T115 122Q115 83 143
59T218 35Q247 35 280 48T345 95V50Q322 24 286 7T200 -10ZM366 570Q344 570 328 586T311 625Q311 648 327 664T366 680Q389 680 405 664T421 625Q421 603 405 587T366 570ZM166 570Q144 570 128 586T111 625Q111 648 127 664T166 680Q189 680 205 664T221 625Q221
603 205 587T166 570Z" />
<glyph unicode="&#xe5;" horiz-adv-x="525" d="M434 -10Q400 -10 376 5T345 50V300Q345 361 323 395T243 430Q212 430 186 424T136 400Q152 391 158 378T165 350Q165 328 150 314T115 300Q94 300 80 315T65 356Q65 382 81 403T124 439T184 462T252 470Q300 470
339 457T401 410T425 315V77Q425 63 431 49T457 35Q471 35 482 45T503 68L530 45Q518 28 504 16T473 -3T434 -10ZM200 -10Q121 -10 78 29T35 122Q35 177 78 215T200 254Q250 254 286 237T345 194V149Q313 183 280 196T218 209Q171 209 143 186T115 122Q115 83 143
59T218 35Q247 35 280 48T345 95V50Q322 24 286 7T200 -10ZM266 539Q226 539 196 564T166 629Q166 669 196 694T266 719Q307 719 336 694T366 629Q366 589 337 564T266 539ZM268 564Q288 564 299 581T311 629Q311 661 298 677T264 694Q245 694 233 678T221 629Q221
598 235 581T268 564Z" />
<glyph unicode="&#xe6;" horiz-adv-x="792" d="M567 30Q620 30 656 54T720 107L747 84Q726 59 700 38T638 3T552 -10Q498 -10 451 12T372 76Q338 39 294 15T200 -10Q121 -10 78 29T35 122Q35 177 78 215T200 254Q239 254 272 244T327 215Q327 252 330 290T331
359T308 410T243 430Q212 430 186 424T136 400Q152 391 158 378T165 350Q165 328 150 314T115 300Q94 300 80 315T65 356Q65 382 81 403T124 439T184 462T252 470Q301 470 338 458T395 410Q460 470 552 470Q611 470 656 446T726 373T752 250H402V285H656Q652 357
628 396T547 435Q498 435 468 409T423 337T409 230Q409 171 431 126T489 56T567 30ZM218 35Q247 35 284 51T353 104Q337 133 330 164Q302 189 273 199T218 209Q171 209 143 186T115 122Q115 83 143 59T218 35Z" />
<glyph unicode="&#xe7;" horiz-adv-x="500" d="M279 -10Q216 -10 164 19T81 101T50 226Q50 303 83 357T170 441T289 470Q336 470 376 454T440 410T465 345Q465 320 451 305T415 290Q396 290 381 304T365 340Q365 356 374 369T406 389Q385 412 356 423T288 435Q234
435 201 409T153 337T137 237Q137 172 158 126T214 55T293 30Q333 30 371 53T443 122L470 99Q445 65 417 41T355 3T279 -10ZM282 -250Q236 -250 191 -220L203 -187Q223 -200 242 -205T277 -210Q308 -210 319 -197T330 -169Q330 -143 306 -126T236 -97L272 0H312L278
-91L262 -43Q295 -47 325 -61T375 -98T395 -153Q395 -193 364 -221T282 -250Z" />
<glyph unicode="&#xe8;" horiz-adv-x="520" d="M295 30Q348 30 384 54T448 107L475 84Q454 59 428 38T366 3T280 -10Q219 -10 167 19T82 102T50 230Q50 304 82 358T166 441T280 470Q342 470 386 446T455 373T480 250H130V285H384Q380 357 356 396T275 435Q226
435 196 409T151 337T137 230Q137 171 159 126T217 56T295 30ZM255 550L156 720H246L285 550H255Z" />
<glyph unicode="&#xe9;" horiz-adv-x="520" d="M295 30Q348 30 384 54T448 107L475 84Q454 59 428 38T366 3T280 -10Q219 -10 167 19T82 102T50 230Q50 304 82 358T166 441T280 470Q342 470 386 446T455 373T480 250H130V285H384Q380 357 356 396T275 435Q226
435 196 409T151 337T137 230Q137 171 159 126T217 56T295 30ZM240 550L279 720H369L270 550H240Z" />
<glyph unicode="&#xea;" horiz-adv-x="520" d="M295 30Q348 30 384 54T448 107L475 84Q454 59 428 38T366 3T280 -10Q219 -10 167 19T82 102T50 230Q50 304 82 358T166 441T280 470Q342 470 386 446T455 373T480 250H130V285H384Q380 357 356 396T275 435Q226
435 196 409T151 337T137 230Q137 171 159 126T217 56T295 30ZM130 550L239 720H270L379 550H349L223 672H287L160 550H130Z" />
<glyph unicode="&#xeb;" horiz-adv-x="520" d="M295 30Q348 30 384 54T448 107L475 84Q454 59 428 38T366 3T280 -10Q219 -10 167 19T82 102T50 230Q50 304 82 358T166 441T280 470Q342 470 386 446T455 373T480 250H130V285H384Q380 357 356 396T275 435Q226
435 196 409T151 337T137 230Q137 171 159 126T217 56T295 30ZM365 570Q343 570 327 586T310 625Q310 648 326 664T365 680Q388 680 404 664T420 625Q420 603 404 587T365 570ZM165 570Q143 570 127 586T110 625Q110 648 126 664T165 680Q188 680 204 664T220 625Q220
603 204 587T165 570Z" />
<glyph unicode="&#xec;" horiz-adv-x="320" d="M205 35H280V0H40V35H115L120 40V420L115 425H40V460Q66 460 91 460T143 462T195 465L200 460V40L205 35ZM145 550L46 720H136L175 550H145Z" />
<glyph unicode="&#xed;" horiz-adv-x="320" d="M205 35H280V0H40V35H115L120 40V420L115 425H40V460Q66 460 91 460T143 462T195 465L200 460V40L205 35ZM130 550L169 720H259L160 550H130Z" />
<glyph unicode="&#xee;" horiz-adv-x="320" d="M205 35H280V0H40V35H115L120 40V420L115 425H40V460Q66 460 91 460T143 462T195 465L200 460V40L205 35ZM20 550L129 720H160L269 550H239L113 672H177L50 550H20Z" />
<glyph unicode="&#xef;" horiz-adv-x="320" d="M205 35H280V0H40V35H115L120 40V420L115 425H40V460Q66 460 91 460T143 462T195 465L200 460V40L205 35ZM255 570Q233 570 217 586T200 625Q200 648 216 664T255 680Q278 680 294 664T310 625Q310 603 294 587T255
570ZM55 570Q33 570 17 586T0 625Q0 648 16 664T55 680Q78 680 94 664T110 625Q110 603 94 587T55 570Z" />
<glyph unicode="&#xf0;" horiz-adv-x="560" d="M365 751L163 549L139 574L341 776L365 751ZM139 751Q264 708 346 633T469 459T510 240Q510 161 478 105T394 20T280 -10Q219 -10 167 19T82 99T50 220Q50 289 80 340T162 421T275 450Q321 450 354 431T410 380Q396
451 360 516T262 635T112 728L139 751ZM285 25Q322 25 348 40T390 81T413 143T420 220Q420 274 401 318T350 389T275 415Q238 415 212 400T170 359T147 297T140 220Q140 166 159 122T210 52T285 25Z" />
<glyph unicode="&#xf1;" horiz-adv-x="640" d="M520 40L525 35H600V0H360V35H435L440 40V320Q440 369 423 397T360 425Q318 425 280 397T200 300V40L205 35H280V0H40V35H115L120 40V420L115 425H40V460Q66 460 90 460T139 462T190 465L195 460V365H200Q229 412
273 441T382 470Q434 470 464 453T507 406T520 340V40ZM375 564Q351 564 335 573T305 594T279 616T248 625Q232 625 218 614T193 569L165 584Q176 639 204 662T264 685Q287 685 303 676T333 655T360 633T392 624Q408 624 422 635T447 680L475 665Q464 607 435 586T375
564Z" />
<glyph unicode="&#xf2;" horiz-adv-x="560" d="M280 470Q342 470 394 441T478 358T510 230Q510 156 478 102T394 19T280 -10Q219 -10 167 19T82 102T50 230Q50 304 82 358T166 441T280 470ZM285 25Q335 25 364 51T407 124T420 230Q420 289 401 335T350 408T275
435Q226 435 196 409T153 337T140 230Q140 171 159 125T210 52T285 25ZM270 550L171 720H261L300 550H270Z" />
<glyph unicode="&#xf3;" horiz-adv-x="560" d="M280 470Q342 470 394 441T478 358T510 230Q510 156 478 102T394 19T280 -10Q219 -10 167 19T82 102T50 230Q50 304 82 358T166 441T280 470ZM285 25Q335 25 364 51T407 124T420 230Q420 289 401 335T350 408T275
435Q226 435 196 409T153 337T140 230Q140 171 159 125T210 52T285 25ZM255 550L294 720H384L285 550H255Z" />
<glyph unicode="&#xf4;" horiz-adv-x="560" d="M280 470Q342 470 394 441T478 358T510 230Q510 156 478 102T394 19T280 -10Q219 -10 167 19T82 102T50 230Q50 304 82 358T166 441T280 470ZM285 25Q335 25 364 51T407 124T420 230Q420 289 401 335T350 408T275
435Q226 435 196 409T153 337T140 230Q140 171 159 125T210 52T285 25ZM145 550L254 720H285L394 550H364L238 672H302L175 550H145Z" />
<glyph unicode="&#xf5;" horiz-adv-x="560" d="M280 470Q342 470 394 441T478 358T510 230Q510 156 478 102T394 19T280 -10Q219 -10 167 19T82 102T50 230Q50 304 82 358T166 441T280 470ZM285 25Q335 25 364 51T407 124T420 230Q420 289 401 335T350 408T275
435Q226 435 196 409T153 337T140 230Q140 171 159 125T210 52T285 25ZM335 564Q311 564 295 573T265 594T239 616T208 625Q192 625 178 614T153 569L125 584Q136 639 164 662T224 685Q247 685 263 676T293 655T320 633T352 624Q368 624 382 635T407 680L435 665Q424
607 395 586T335 564Z" />
<glyph unicode="&#xf6;" horiz-adv-x="560" d="M280 470Q342 470 394 441T478 358T510 230Q510 156 478 102T394 19T280 -10Q219 -10 167 19T82 102T50 230Q50 304 82 358T166 441T280 470ZM285 25Q335 25 364 51T407 124T420 230Q420 289 401 335T350 408T275
435Q226 435 196 409T153 337T140 230Q140 171 159 125T210 52T285 25ZM380 570Q358 570 342 586T325 625Q325 648 341 664T380 680Q403 680 419 664T435 625Q435 603 419 587T380 570ZM180 570Q158 570 142 586T125 625Q125 648 141 664T180 680Q203 680 219 664T235
625Q235 603 219 587T180 570Z" />
<glyph unicode="&#xf7;" horiz-adv-x="510" d="M25 337H485V302H25V337ZM255 122Q233 122 217 138T200 177Q200 200 216 216T255 232Q278 232 294 216T310 177Q310 155 294 139T255 122ZM255 407Q233 407 217 423T200 462Q200 485 216 501T255 517Q278 517 294
501T310 462Q310 440 294 424T255 407Z" />
<glyph unicode="&#xf8;" horiz-adv-x="560" d="M161 -100L362 580H400L199 -100H161ZM280 470Q342 470 394 441T478 358T510 230Q510 156 478 102T394 19T280 -10Q219 -10 167 19T82 102T50 230Q50 304 82 358T166 441T280 470ZM285 25Q335 25 364 51T407 124T420
230Q420 289 401 335T350 408T275 435Q226 435 196 409T153 337T140 230Q140 171 159 125T210 52T285 25Z" />
<glyph unicode="&#xf9;" horiz-adv-x="598" d="M486 40L491 35H566V0Q540 0 516 0T467 -2T416 -5L411 0V95H406Q378 48 336 19T229 -10Q180 -10 151 7T109 54T96 120V420L91 425H16V460Q42 460 68 460T119 462T171 465L176 460V140Q176 91 192 63T251 35Q293 35
329 63T406 160V420L401 425H326V460Q352 460 378 460T429 462T481 465L486 460V40ZM289 550L190 720H280L319 550H289Z" />
<glyph unicode="&#xfa;" horiz-adv-x="598" d="M486 40L491 35H566V0Q540 0 516 0T467 -2T416 -5L411 0V95H406Q378 48 336 19T229 -10Q180 -10 151 7T109 54T96 120V420L91 425H16V460Q42 460 68 460T119 462T171 465L176 460V140Q176 91 192 63T251 35Q293 35
329 63T406 160V420L401 425H326V460Q352 460 378 460T429 462T481 465L486 460V40ZM274 550L313 720H403L304 550H274Z" />
<glyph unicode="&#xfb;" horiz-adv-x="598" d="M486 40L491 35H566V0Q540 0 516 0T467 -2T416 -5L411 0V95H406Q378 48 336 19T229 -10Q180 -10 151 7T109 54T96 120V420L91 425H16V460Q42 460 68 460T119 462T171 465L176 460V140Q176 91 192 63T251 35Q293 35
329 63T406 160V420L401 425H326V460Q352 460 378 460T429 462T481 465L486 460V40ZM164 550L273 720H304L413 550H383L257 672H321L194 550H164Z" />
<glyph unicode="&#xfc;" horiz-adv-x="598" d="M486 40L491 35H566V0Q540 0 516 0T467 -2T416 -5L411 0V95H406Q378 48 336 19T229 -10Q180 -10 151 7T109 54T96 120V420L91 425H16V460Q42 460 68 460T119 462T171 465L176 460V140Q176 91 192 63T251 35Q293 35
329 63T406 160V420L401 425H326V460Q352 460 378 460T429 462T481 465L486 460V40ZM399 570Q377 570 361 586T344 625Q344 648 360 664T399 680Q422 680 438 664T454 625Q454 603 438 587T399 570ZM199 570Q177 570 161 586T144 625Q144 648 160 664T199 680Q222
680 238 664T254 625Q254 603 238 587T199 570Z" />
<glyph unicode="&#xfd;" horiz-adv-x="514" d="M238 -30L64 425H-6V460H225V425H160L155 420L276 90H281L403 420L398 425H328V460H510V425H450L291 0L238 -30ZM95 -260Q58 -260 38 -244T9 -208T1 -173Q1 -149 15 -134T51 -118Q72 -118 86 -132T101 -168Q101 -189
86 -201T51 -214Q40 -214 30 -209T14 -194T8 -173H38Q38 -183 42 -196T59 -220T95 -230Q127 -230 152 -201T198 -126T238 -30L291 0Q271 -49 252 -95T212 -179T162 -238T95 -260ZM245 550L284 720H374L275 550H245Z" />
<glyph unicode="&#xfe;" horiz-adv-x="593" d="M18 -250V-215H93L98 -210V690L93 695H18V730Q44 730 70 730T121 732T173 735L178 730V375Q197 410 237 440T337 470Q397 470 443 441T516 358T543 232Q543 160 517 106T444 21T337 -10Q274 -10 236 18T178 85V-210L183
-215H298V-250H18ZM323 35Q380 35 416 78T453 220Q453 318 417 371T323 425Q282 425 244 397T178 305V155Q206 91 244 63T323 35Z" />
<glyph unicode="&#xff;" horiz-adv-x="514" d="M238 -30L64 425H-6V460H225V425H160L155 420L276 90H281L403 420L398 425H328V460H510V425H450L291 0L238 -30ZM95 -260Q58 -260 38 -244T9 -208T1 -173Q1 -149 15 -134T51 -118Q72 -118 86 -132T101 -168Q101 -189
86 -201T51 -214Q40 -214 30 -209T14 -194T8 -173H38Q38 -183 42 -196T59 -220T95 -230Q127 -230 152 -201T198 -126T238 -30L291 0Q271 -49 252 -95T212 -179T162 -238T95 -260ZM370 570Q348 570 332 586T315 625Q315 648 331 664T370 680Q393 680 409 664T425
625Q425 603 409 587T370 570ZM170 570Q148 570 132 586T115 625Q115 648 131 664T170 680Q193 680 209 664T225 625Q225 603 209 587T170 570Z" />
<glyph unicode="&#x2013;" horiz-adv-x="500" d="M0 305H500V270H0V305Z" />
<glyph unicode="&#x2014;" horiz-adv-x="800" d="M0 305H800V270H0V305Z" />
<glyph unicode="&#x2018;" horiz-adv-x="195" d="M95 413Q65 413 50 434T35 485Q35 529 47 564T80 629T128 688L155 665Q123 631 102 593T81 522Q86 523 89 523T95 523Q118 523 134 507T150 468Q150 446 134 430T95 413Z" />
<glyph unicode="&#x2019;" horiz-adv-x="195" d="M100 680Q130 680 145 659T160 608Q160 565 148 530T115 464T67 405L40 428Q72 463 93 501T114 571Q110 570 107 570T100 570Q78 570 62 586T45 625Q45 648 61 664T100 680Z" />
<glyph unicode="&#x201a;" horiz-adv-x="195" d="M100 100Q130 100 145 79T160 28Q160 -15 148 -50T115 -116T67 -175L40 -152Q72 -117 93 -79T114 -9Q110 -10 107 -10T100 -10Q78 -10 62 6T45 45Q45 68 61 84T100 100Z" />
<glyph unicode="&#x201c;" horiz-adv-x="355" d="M95 413Q65 413 50 434T35 485Q35 529 47 564T80 629T128 688L155 665Q123 631 102 593T81 522Q86 523 89 523T95 523Q118 523 134 507T150 468Q150 446 134 430T95 413ZM255 413Q225 413 210 434T195 485Q195
529 207 564T240 629T288 688L315 665Q283 631 262 593T241 522Q246 523 249 523T255 523Q278 523 294 507T310 468Q310 446 294 430T255 413Z" />
<glyph unicode="&#x201d;" horiz-adv-x="355" d="M260 680Q290 680 305 659T320 608Q320 565 308 530T275 464T227 405L200 428Q232 463 253 501T274 571Q270 570 267 570T260 570Q238 570 222 586T205 625Q205 648 221 664T260 680ZM100 680Q130 680 145 659T160
608Q160 565 148 530T115 464T67 405L40 428Q72 463 93 501T114 571Q110 570 107 570T100 570Q78 570 62 586T45 625Q45 648 61 664T100 680Z" />
<glyph unicode="&#x201e;" horiz-adv-x="355" d="M260 100Q290 100 305 79T320 28Q320 -15 308 -50T275 -116T227 -175L200 -152Q232 -117 253 -79T274 -9Q270 -10 267 -10T260 -10Q238 -10 222 6T205 45Q205 68 221 84T260 100ZM100 100Q130 100 145 79T160 28Q160
-15 148 -50T115 -116T67 -175L40 -152Q72 -117 93 -79T114 -9Q110 -10 107 -10T100 -10Q78 -10 62 6T45 45Q45 68 61 84T100 100Z" />
<glyph unicode="&#x2022;" horiz-adv-x="269" d="M134 262Q109 262 88 275T53 309T40 356Q40 382 53 403T87 437T134 450Q160 450 181 437T216 403T229 356Q229 330 216 309T182 275T134 262Z" />
<glyph unicode="&#x2039;" horiz-adv-x="226" d="M211 405L109 230L211 55L188 39L15 230L188 421L211 405Z" />
<glyph unicode="&#x203a;" horiz-adv-x="226" d="M15 405L38 421L211 230L38 39L15 55L117 230L15 405Z" />
</font>
</defs>
</svg>
