<?xml version="1.0" standalone="no"?>
<!DOCTYPE svg PUBLIC "-//W3C//DTD SVG 1.1//EN" "http://www.w3.org/Graphics/SVG/1.1/DTD/svg11.dtd">
<svg xmlns="http://www.w3.org/2000/svg">
<defs >
<font id="LibreBarcode128" horiz-adv-x="331" ><font-face
    font-family="Libre Barcode 128"
    units-per-em="1000"
    panose-1="0 0 0 0 0 0 0 0 0 0"
    ascent="600"
    descent="-400"
    alphabetic="0" />
<glyph unicode=" " glyph-name="space" horiz-adv-x="330" />
<glyph unicode="!" glyph-name="uni0021.code.exclam" horiz-adv-x="330" d="M0 0V590H60V0H0ZM120 0V590H180V0H120ZM210 0V590H270V0H210Z" />
<glyph unicode="&quot;" glyph-name="uni0022.code.quotedbl" horiz-adv-x="330" d="M0 0V590H60V0H0ZM120 0V590H180V0H120ZM240 0V590H300V0H240Z" />
<glyph unicode="#" glyph-name="uni0023.code.numbersign" horiz-adv-x="330" d="M0 0V590H30V0H0ZM90 0V590H120V0H90ZM180 0V590H240V0H180Z" />
<glyph unicode="$" glyph-name="uni0024.code.dollar" horiz-adv-x="330" d="M0 0V590H30V0H0ZM90 0V590H120V0H90ZM210 0V590H270V0H210Z" />
<glyph unicode="%" glyph-name="uni0025.code.percent" horiz-adv-x="330" d="M0 0V590H30V0H0ZM120 0V590H150V0H120ZM210 0V590H270V0H210Z" />
<glyph unicode="&amp;" glyph-name="uni0026.code.ampersand" horiz-adv-x="330" d="M0 0V590H30V0H0ZM90 0V590H150V0H90ZM210 0V590H240V0H210Z" />
<glyph unicode="&apos;" glyph-name="uni0027.code.quotesingle" horiz-adv-x="330" d="M0 0V590H30V0H0ZM90 0V590H150V0H90ZM240 0V590H270V0H240Z" />
<glyph unicode="(" glyph-name="uni0028.code.parenleft" horiz-adv-x="330" d="M0 0V590H30V0H0ZM120 0V590H180V0H120ZM240 0V590H270V0H240Z" />
<glyph unicode=")" glyph-name="uni0029.code.parenright" horiz-adv-x="330" d="M0 0V590H60V0H0ZM120 0V590H150V0H120ZM210 0V590H240V0H210Z" />
<glyph unicode="*" glyph-name="uni002A.code.asterisk" horiz-adv-x="330" d="M0 0V590H60V0H0ZM120 0V590H150V0H120ZM240 0V590H270V0H240Z" />
<glyph unicode="+" glyph-name="uni002B.code.plus" horiz-adv-x="330" d="M0 0V590H60V0H0ZM150 0V590H180V0H150ZM240 0V590H270V0H240Z" />
<glyph unicode="," glyph-name="uni002C.code.comma" horiz-adv-x="330" d="M0 0V590H30V0H0ZM60 0V590H120V0H60ZM180 0V590H270V0H180Z" />
<glyph unicode="-" glyph-name="uni002D.code.minus" horiz-adv-x="330" d="M0 0V590H30V0H0ZM90 0V590H150V0H90ZM180 0V590H270V0H180Z" />
<glyph unicode="." glyph-name="uni002E.code.period" horiz-adv-x="330" d="M0 0V590H30V0H0ZM90 0V590H150V0H90ZM210 0V590H300V0H210Z" />
<glyph unicode="/" glyph-name="uni002F.code.slash" horiz-adv-x="330" d="M0 0V590H30V0H0ZM60 0V590H150V0H60ZM210 0V590H270V0H210Z" />
<glyph unicode="0" glyph-name="uni0030.code.zero" horiz-adv-x="330" d="M0 0V590H30V0H0ZM90 0V590H180V0H90ZM210 0V590H270V0H210Z" />
<glyph unicode="1" glyph-name="uni0031.code.one" horiz-adv-x="330" d="M0 0V590H30V0H0ZM90 0V590H180V0H90ZM240 0V590H300V0H240Z" />
<glyph unicode="2" glyph-name="uni0032.code.two" horiz-adv-x="330" d="M0 0V590H60V0H0ZM120 0V590H210V0H120ZM270 0V590H300V0H270Z" />
<glyph unicode="3" glyph-name="uni0033.code.three" horiz-adv-x="330" d="M0 0V590H60V0H0ZM120 0V590H150V0H120ZM180 0V590H270V0H180Z" />
<glyph unicode="4" glyph-name="uni0034.code.four" horiz-adv-x="330" d="M0 0V590H60V0H0ZM120 0V590H150V0H120ZM210 0V590H300V0H210Z" />
<glyph unicode="5" glyph-name="uni0035.code.five" horiz-adv-x="330" d="M0 0V590H60V0H0ZM90 0V590H180V0H90ZM240 0V590H270V0H240Z" />
<glyph unicode="6" glyph-name="uni0036.code.six" horiz-adv-x="330" d="M0 0V590H60V0H0ZM120 0V590H210V0H120ZM240 0V590H270V0H240Z" />
<glyph unicode="7" glyph-name="uni0037.code.seven" horiz-adv-x="330" d="M0 0V590H90V0H0ZM120 0V590H180V0H120ZM210 0V590H300V0H210Z" />
<glyph unicode="8" glyph-name="uni0038.code.eight" horiz-adv-x="330" d="M0 0V590H90V0H0ZM120 0V590H150V0H120ZM210 0V590H270V0H210Z" />
<glyph unicode="9" glyph-name="uni0039.code.nine" horiz-adv-x="330" d="M0 0V590H90V0H0ZM150 0V590H180V0H150ZM210 0V590H270V0H210Z" />
<glyph unicode=":" glyph-name="uni003A.code.colon" horiz-adv-x="330" d="M0 0V590H90V0H0ZM150 0V590H180V0H150ZM240 0V590H300V0H240Z" />
<glyph unicode=";" glyph-name="uni003B.code.semicolon" horiz-adv-x="330" d="M0 0V590H90V0H0ZM120 0V590H180V0H120ZM240 0V590H270V0H240Z" />
<glyph unicode="&lt;" glyph-name="uni003C.code.less" horiz-adv-x="330" d="M0 0V590H90V0H0ZM150 0V590H210V0H150ZM240 0V590H270V0H240Z" />
<glyph unicode="=" glyph-name="uni003D.code.equal" horiz-adv-x="330" d="M0 0V590H90V0H0ZM150 0V590H210V0H150ZM270 0V590H300V0H270Z" />
<glyph unicode="&gt;" glyph-name="uni003E.code.greater" horiz-adv-x="330" d="M0 0V590H60V0H0ZM90 0V590H150V0H90ZM180 0V590H240V0H180Z" />
<glyph unicode="?" glyph-name="uni003F.code.question" horiz-adv-x="330" d="M0 0V590H60V0H0ZM90 0V590H150V0H90ZM240 0V590H300V0H240Z" />
<glyph unicode="@" glyph-name="uni0040.code.at" horiz-adv-x="330" d="M0 0V590H60V0H0ZM150 0V590H210V0H150ZM240 0V590H300V0H240Z" />
<glyph unicode="A" glyph-name="uni0041.code.A" horiz-adv-x="330" d="M0 0V590H30V0H0ZM60 0V590H90V0H60ZM180 0V590H240V0H180Z" />
<glyph unicode="B" glyph-name="uni0042.code.B" horiz-adv-x="330" d="M0 0V590H30V0H0ZM120 0V590H150V0H120ZM180 0V590H240V0H180Z" />
<glyph unicode="C" glyph-name="uni0043.code.C" horiz-adv-x="330" d="M0 0V590H30V0H0ZM120 0V590H150V0H120ZM240 0V590H300V0H240Z" />
<glyph unicode="D" glyph-name="uni0044.code.D" horiz-adv-x="330" d="M0 0V590H30V0H0ZM60 0V590H120V0H60ZM210 0V590H240V0H210Z" />
<glyph unicode="E" glyph-name="uni0045.code.E" horiz-adv-x="330" d="M0 0V590H30V0H0ZM120 0V590H180V0H120ZM210 0V590H240V0H210Z" />
<glyph unicode="F" glyph-name="uni0046.code.F" horiz-adv-x="330" d="M0 0V590H30V0H0ZM120 0V590H180V0H120ZM270 0V590H300V0H270Z" />
<glyph unicode="G" glyph-name="uni0047.code.G" horiz-adv-x="330" d="M0 0V590H60V0H0ZM90 0V590H120V0H90ZM210 0V590H240V0H210Z" />
<glyph unicode="H" glyph-name="uni0048.code.H" horiz-adv-x="330" d="M0 0V590H60V0H0ZM150 0V590H180V0H150ZM210 0V590H240V0H210Z" />
<glyph unicode="I" glyph-name="uni0049.code.I" horiz-adv-x="330" d="M0 0V590H60V0H0ZM150 0V590H180V0H150ZM270 0V590H300V0H270Z" />
<glyph unicode="J" glyph-name="uni004A.code.J" horiz-adv-x="330" d="M0 0V590H30V0H0ZM60 0V590H120V0H60ZM150 0V590H240V0H150Z" />
<glyph unicode="K" glyph-name="uni004B.code.K" horiz-adv-x="330" d="M0 0V590H30V0H0ZM60 0V590H120V0H60ZM210 0V590H300V0H210Z" />
<glyph unicode="L" glyph-name="uni004C.code.L" horiz-adv-x="330" d="M0 0V590H30V0H0ZM120 0V590H180V0H120ZM210 0V590H300V0H210Z" />
<glyph unicode="M" glyph-name="uni004D.code.M" horiz-adv-x="330" d="M0 0V590H30V0H0ZM60 0V590H150V0H60ZM180 0V590H240V0H180Z" />
<glyph unicode="N" glyph-name="uni004E.code.N" horiz-adv-x="330" d="M0 0V590H30V0H0ZM60 0V590H150V0H60ZM240 0V590H300V0H240Z" />
<glyph unicode="O" glyph-name="uni004F.code.O" horiz-adv-x="330" d="M0 0V590H30V0H0ZM120 0V590H210V0H120ZM240 0V590H300V0H240Z" />
<glyph unicode="P" glyph-name="uni0050.code.P" horiz-adv-x="330" d="M0 0V590H90V0H0ZM120 0V590H210V0H120ZM240 0V590H300V0H240Z" />
<glyph unicode="Q" glyph-name="uni0051.code.Q" horiz-adv-x="330" d="M0 0V590H60V0H0ZM90 0V590H120V0H90ZM210 0V590H300V0H210Z" />
<glyph unicode="R" glyph-name="uni0052.code.R" horiz-adv-x="330" d="M0 0V590H60V0H0ZM150 0V590H180V0H150ZM210 0V590H300V0H210Z" />
<glyph unicode="S" glyph-name="uni0053.code.S" horiz-adv-x="330" d="M0 0V590H60V0H0ZM90 0V590H180V0H90ZM210 0V590H240V0H210Z" />
<glyph unicode="T" glyph-name="uni0054.code.T" horiz-adv-x="330" d="M0 0V590H60V0H0ZM90 0V590H180V0H90ZM270 0V590H300V0H270Z" />
<glyph unicode="U" glyph-name="uni0055.code.U" horiz-adv-x="330" d="M0 0V590H60V0H0ZM90 0V590H180V0H90ZM210 0V590H300V0H210Z" />
<glyph unicode="V" glyph-name="uni0056.code.V" horiz-adv-x="330" d="M0 0V590H90V0H0ZM120 0V590H150V0H120ZM180 0V590H240V0H180Z" />
<glyph unicode="W" glyph-name="uni0057.code.W" horiz-adv-x="330" d="M0 0V590H90V0H0ZM120 0V590H150V0H120ZM240 0V590H300V0H240Z" />
<glyph unicode="X" glyph-name="uni0058.code.X" horiz-adv-x="330" d="M0 0V590H90V0H0ZM180 0V590H210V0H180ZM240 0V590H300V0H240Z" />
<glyph unicode="Y" glyph-name="uni0059.code.Y" horiz-adv-x="330" d="M0 0V590H90V0H0ZM120 0V590H180V0H120ZM210 0V590H240V0H210Z" />
<glyph unicode="Z" glyph-name="uni005A.code.Z" horiz-adv-x="330" d="M0 0V590H90V0H0ZM120 0V590H180V0H120ZM270 0V590H300V0H270Z" />
<glyph unicode="[" glyph-name="uni005B.code.bracketleft" horiz-adv-x="330" d="M0 0V590H90V0H0ZM180 0V590H240V0H180ZM270 0V590H300V0H270Z" />
<glyph unicode="\" glyph-name="uni005C.code.backslash" horiz-adv-x="330" d="M0 0V590H90V0H0ZM120 0V590H240V0H120ZM270 0V590H300V0H270Z" />
<glyph unicode="]" glyph-name="uni005D.code.bracketright" horiz-adv-x="330" d="M0 0V590H60V0H0ZM120 0V590H150V0H120ZM270 0V590H300V0H270Z" />
<glyph unicode="^" glyph-name="uni005E.code.asciicircum" horiz-adv-x="330" d="M0 0V590H120V0H0ZM210 0V590H240V0H210ZM270 0V590H300V0H270Z" />
<glyph unicode="_" glyph-name="uni005F.code.underscore" horiz-adv-x="330" d="M0 0V590H30V0H0ZM60 0V590H90V0H60ZM150 0V590H210V0H150Z" />
<glyph unicode="`" glyph-name="uni0060.code.grave" horiz-adv-x="330" d="M0 0V590H30V0H0ZM60 0V590H90V0H60ZM210 0V590H270V0H210Z" />
<glyph unicode="a" glyph-name="uni0061.code.a" horiz-adv-x="330" d="M0 0V590H30V0H0ZM90 0V590H120V0H90ZM150 0V590H210V0H150Z" />
<glyph unicode="b" glyph-name="uni0062.code.b" horiz-adv-x="330" d="M0 0V590H30V0H0ZM90 0V590H120V0H90ZM240 0V590H300V0H240Z" />
<glyph unicode="c" glyph-name="uni0063.code.c" horiz-adv-x="330" d="M0 0V590H30V0H0ZM150 0V590H180V0H150ZM210 0V590H270V0H210Z" />
<glyph unicode="d" glyph-name="uni0064.code.d" horiz-adv-x="330" d="M0 0V590H30V0H0ZM150 0V590H180V0H150ZM240 0V590H300V0H240Z" />
<glyph unicode="e" glyph-name="uni0065.code.e" horiz-adv-x="330" d="M0 0V590H30V0H0ZM60 0V590H120V0H60ZM180 0V590H210V0H180Z" />
<glyph unicode="f" glyph-name="uni0066.code.f" horiz-adv-x="330" d="M0 0V590H30V0H0ZM60 0V590H120V0H60ZM240 0V590H270V0H240Z" />
<glyph unicode="g" glyph-name="uni0067.code.g" horiz-adv-x="330" d="M0 0V590H30V0H0ZM90 0V590H150V0H90ZM180 0V590H210V0H180Z" />
<glyph unicode="h" glyph-name="uni0068.code.h" horiz-adv-x="330" d="M0 0V590H30V0H0ZM90 0V590H150V0H90ZM270 0V590H300V0H270Z" />
<glyph unicode="i" glyph-name="uni0069.code.i" horiz-adv-x="330" d="M0 0V590H30V0H0ZM150 0V590H210V0H150ZM240 0V590H270V0H240Z" />
<glyph unicode="j" glyph-name="uni006A.code.j" horiz-adv-x="330" d="M0 0V590H30V0H0ZM150 0V590H210V0H150ZM270 0V590H300V0H270Z" />
<glyph unicode="k" glyph-name="uni006B.code.k" horiz-adv-x="330" d="M0 0V590H60V0H0ZM180 0V590H210V0H180ZM270 0V590H300V0H270Z" />
<glyph unicode="l" glyph-name="uni006C.code.l" horiz-adv-x="330" d="M0 0V590H60V0H0ZM120 0V590H150V0H120ZM180 0V590H210V0H180Z" />
<glyph unicode="m" glyph-name="uni006D.code.m" horiz-adv-x="330" d="M0 0V590H120V0H0ZM150 0V590H240V0H150ZM270 0V590H300V0H270Z" />
<glyph unicode="n" glyph-name="uni006E.code.n" horiz-adv-x="330" d="M0 0V590H60V0H0ZM180 0V590H210V0H180ZM240 0V590H270V0H240Z" />
<glyph unicode="o" glyph-name="uni006F.code.o" horiz-adv-x="330" d="M0 0V590H30V0H0ZM120 0V590H240V0H120ZM270 0V590H300V0H270Z" />
<glyph unicode="p" glyph-name="uni0070.code.p" horiz-adv-x="330" d="M0 0V590H30V0H0ZM60 0V590H90V0H60ZM150 0V590H270V0H150Z" />
<glyph unicode="q" glyph-name="uni0071.code.q" horiz-adv-x="330" d="M0 0V590H30V0H0ZM90 0V590H120V0H90ZM150 0V590H270V0H150Z" />
<glyph unicode="r" glyph-name="uni0072.code.r" horiz-adv-x="330" d="M0 0V590H30V0H0ZM90 0V590H120V0H90ZM180 0V590H300V0H180Z" />
<glyph unicode="s" glyph-name="uni0073.code.s" horiz-adv-x="330" d="M0 0V590H30V0H0ZM60 0V590H180V0H60ZM240 0V590H270V0H240Z" />
<glyph unicode="t" glyph-name="uni0074.code.t" horiz-adv-x="330" d="M0 0V590H30V0H0ZM90 0V590H210V0H90ZM240 0V590H270V0H240Z" />
<glyph unicode="u" glyph-name="uni0075.code.u" horiz-adv-x="330" d="M0 0V590H30V0H0ZM90 0V590H210V0H90ZM270 0V590H300V0H270Z" />
<glyph unicode="v" glyph-name="uni0076.code.v" horiz-adv-x="330" d="M0 0V590H120V0H0ZM150 0V590H180V0H150ZM240 0V590H270V0H240Z" />
<glyph unicode="w" glyph-name="uni0077.code.w" horiz-adv-x="330" d="M0 0V590H120V0H0ZM180 0V590H210V0H180ZM240 0V590H270V0H240Z" />
<glyph unicode="x" glyph-name="uni0078.code.x" horiz-adv-x="330" d="M0 0V590H120V0H0ZM180 0V590H210V0H180ZM270 0V590H300V0H270Z" />
<glyph unicode="y" glyph-name="uni0079.code.y" horiz-adv-x="330" d="M0 0V590H60V0H0ZM90 0V590H150V0H90ZM180 0V590H300V0H180Z" />
<glyph unicode="z" glyph-name="uni007A.code.z" horiz-adv-x="330" d="M0 0V590H60V0H0ZM90 0V590H210V0H90ZM240 0V590H300V0H240Z" />
<glyph unicode="{" glyph-name="uni007B.code.braceleft" horiz-adv-x="330" d="M0 0V590H120V0H0ZM150 0V590H210V0H150ZM240 0V590H300V0H240Z" />
<glyph unicode="|" glyph-name="uni007C.code.bar" horiz-adv-x="330" d="M0 0V590H30V0H0ZM60 0V590H90V0H60ZM120 0V590H240V0H120Z" />
<glyph unicode="}" glyph-name="uni007D.code.braceright" horiz-adv-x="330" d="M0 0V590H30V0H0ZM60 0V590H90V0H60ZM180 0V590H300V0H180Z" />
<glyph unicode="~" glyph-name="uni007E.code.asciitilde" horiz-adv-x="330" d="M0 0V590H30V0H0ZM120 0V590H150V0H120ZM180 0V590H300V0H180Z" />
<glyph unicode="&#xa0;" glyph-name="uni00A0" horiz-adv-x="330" />
<glyph unicode="&#xc2;" glyph-name="uni00C2.code.space" horiz-adv-x="330" d="M0 0V590H60V0H0ZM90 0V590H150V0H90ZM210 0V590H270V0H210Z" />
<glyph unicode="&#xc3;" glyph-name="uni00C3.code.DEL" horiz-adv-x="330" d="M0 0V590H30V0H0ZM60 0V590H180V0H60ZM210 0V590H240V0H210Z" />
<glyph unicode="&#xc4;" glyph-name="uni00C4.code.FNC3" horiz-adv-x="330" d="M0 0V590H30V0H0ZM60 0V590H180V0H60ZM270 0V590H300V0H270Z" />
<glyph unicode="&#xc5;" glyph-name="uni00C5.code.FNC2" horiz-adv-x="330" d="M0 0V590H120V0H0ZM150 0V590H180V0H150ZM210 0V590H240V0H210Z" />
<glyph unicode="&#xc6;" glyph-name="uni00C6.code.ShiftA" horiz-adv-x="330" d="M0 0V590H120V0H0ZM150 0V590H180V0H150ZM270 0V590H300V0H270Z" />
<glyph unicode="&#xc7;" glyph-name="uni00C7.code.CodeC" horiz-adv-x="330" d="M0 0V590H30V0H0ZM60 0V590H150V0H60ZM180 0V590H300V0H180Z" />
<glyph unicode="&#xc8;" glyph-name="uni00C8.code.FNC4" horiz-adv-x="330" d="M0 0V590H30V0H0ZM60 0V590H180V0H60ZM210 0V590H300V0H210Z" />
<glyph unicode="&#xc9;" glyph-name="uni00C9.code.CodeA" horiz-adv-x="330" d="M0 0V590H90V0H0ZM120 0V590H150V0H120ZM180 0V590H300V0H180Z" />
<glyph unicode="&#xca;" glyph-name="uni00CA.code.FNC1" horiz-adv-x="330" d="M0 0V590H120V0H0ZM150 0V590H180V0H150ZM210 0V590H300V0H210Z" />
<glyph unicode="&#xcb;" glyph-name="uni00CB.code.StartCodeA" horiz-adv-x="330" d="M0 0V590H60V0H0ZM90 0V590H120V0H90ZM240 0V590H270V0H240Z" />
<glyph unicode="&#xcc;" glyph-name="uni00CC.code.StartCodeB" horiz-adv-x="330" d="M0 0V590H60V0H0ZM90 0V590H120V0H90ZM180 0V590H210V0H180Z" />
<glyph unicode="&#xcd;" glyph-name="uni00CD.code.StartCodeC" horiz-adv-x="330" d="M0 0V590H60V0H0ZM90 0V590H120V0H90ZM180 0V590H270V0H180Z" />
<glyph unicode="&#xce;" glyph-name="uni00CE.code.stoppattern" horiz-adv-x="390" d="M0 0V590H60V0H0ZM150 0V590H240V0H150ZM270 0V590H300V0H270ZM330 0V590H390V0H330Z" />
</font>
</defs>
</svg>
