<?xml version="1.0" standalone="no"?>
<!DOCTYPE svg PUBLIC "-//W3C//DTD SVG 1.1//EN" "http://www.w3.org/Graphics/SVG/1.1/DTD/svg11.dtd">
<svg xmlns="http://www.w3.org/2000/svg">
<defs >
<font id="Fuggles" horiz-adv-x="449" ><font-face
    font-family="Fuggles"
    units-per-em="1000"
    panose-1="0 0 0 0 0 0 0 0 0 0"
    ascent="850"
    descent="-351"
    alphabetic="0" />
<glyph unicode=" " glyph-name="space" horiz-adv-x="200" />
<glyph unicode="!" glyph-name="exclam" horiz-adv-x="141" d="M77 103Q77 98 72 98T67 104Q69 125 79 165T106 252T140 339T170 400Q179 412 192 412Q204 412 204 402Q204 400 203 398T200 392Q189 376 174 348T143 284T112 213T88 149T77 103ZM51 -10Q44 -10
40 -2T35 12Q35 17 39 21T47 29Q52 33 60 37T75 46Q79 49 79 45Q79 41 77 34T74 17Q73 0 65 -4T51 -10Z" />
<glyph unicode="&quot;" glyph-name="quotedbl" horiz-adv-x="158" d="M59 321Q57 322 57 332Q57 340 57 349T58 366Q58 383 55 399T40 426Q36 428 45 440T61 452Q79 455 79 439Q79 434 78 429T76 417Q74 399 71 376T64 336T59 321ZM127 321Q125 323 125 363Q125
380 123 397T108 426Q104 428 113 440T129 452Q140 454 144 450T148 439Q148 434 147 428T145 417Q143 399 140 376T133 336T127 321Z" />
<glyph unicode="#" glyph-name="numbersign" horiz-adv-x="290" d="M104 40Q111 54 121 74T143 119L81 116Q71 94 64 79T52 56Q50 52 45 50T35 48Q23 48 26 54Q29 60 36 78T52 115Q45 114 38 114T24 113Q20 113 13 117T2 125T1 129Q33 132 61 132L69 139Q77 156
91 182T119 238L65 235Q61 235 54 239T43 247T42 251Q65 253 86 254T127 255Q138 280 145 302T154 339Q156 352 159 352Q163 352 163 337Q162 324 156 303T140 255Q158 256 174 256T205 255Q218 286 226 311T235 351Q237 363 240 363Q244 363 244 349Q244 318 220
254Q261 253 283 248Q287 248 287 246Q287 242 279 242Q265 242 249 242T215 241Q195 186 172 132Q217 131 241 126Q245 126 245 124Q245 120 238 120Q222 120 204 120T166 119Q154 91 145 71T131 42Q129 38 123 36T111 33Q101 33 104 40ZM89 133Q106 134 121 134T150
133Q163 159 175 187T199 241L133 239Q123 213 112 186T89 133Z" />
<glyph unicode="$" glyph-name="dollar" horiz-adv-x="181" d="M44 46Q44 44 39 44Q35 44 30 45T25 48Q26 84 47 142Q19 146 1 159T-18 200Q-18 235 9 252T67 266Q71 265 70 262T65 260Q29 262 13 247T-4 211Q-4 192 10 174T50 150Q61 182 75 214T105 281Q93 290
83 300T73 327Q73 347 87 359T122 377T160 381Q168 395 174 406T189 427Q197 439 210 443T217 439Q209 428 200 414T178 379Q204 373 204 353Q204 343 195 335T165 327Q159 327 159 331Q159 336 166 336Q177 336 183 342T189 355Q189 368 173 372Q162 354 151 334T126
290Q144 278 162 265T181 220Q181 194 163 177T117 150T62 141Q46 90 44 46ZM114 299L156 375Q134 377 117 367T99 330Q99 319 103 312T114 299ZM64 148Q75 148 86 149T111 156Q152 173 152 219Q152 239 142 251T117 273Q101 242 88 211T64 148Z" />
<glyph unicode="%" glyph-name="percent" horiz-adv-x="340" d="M5 -61Q4 -65 0 -65Q-4 -65 -8 -61T-11 -50Q-5 -21 23 21T90 110T173 202T255 283T318 339Q325 345 332 347Q329 355 316 358T290 362T270 363Q242 363 218 360T166 351Q167 351 167 351T169 350Q178
341 178 325Q178 306 168 282T143 236T110 199T79 184Q59 184 59 210Q59 226 66 247T83 289T102 323T117 337Q127 337 127 330Q126 327 117 312T97 277T78 236T69 204Q69 195 75 192Q77 191 80 191Q86 191 91 195T101 202Q114 215 126 235T147 279T156 322Q156
350 136 359H138Q141 359 145 360T152 360Q182 364 208 368T265 372Q273 372 288 370T318 363T337 349H339Q346 349 349 345T347 336Q324 317 286 283T202 205T115 115T43 23T5 -61ZM159 3Q152 16 152 38Q152 60 159 84T179 128T207 158Q213 163 220 166T233 169Q242
169 247 161L249 155Q265 154 271 143T277 114Q277 109 277 103T275 92Q271 70 257 45T223 3Q202 -13 184 -13Q168 -13 159 3ZM218 10Q237 26 248 54T259 108Q259 126 253 136Q249 144 247 145T239 144Q238 144 234 143T228 144L227 145Q227 147 231 149T237 152Q233
160 225 160Q219 160 210 153Q189 134 177 103T164 45Q164 23 173 11T194 -1Q205 -1 218 10Z" />
<glyph unicode="&amp;" glyph-name="ampersand" horiz-adv-x="417" d="M215 -149Q211 -150 208 -150T199 -151Q185 -151 172 -144T152 -121Q151 -119 153 -118T157 -120Q171 -144 193 -144Q220 -144 235 -125T256 -76T263 -16T265 36Q247 25 228 18T188 5Q178
3 165 1T136 -1Q111 -1 89 8T57 44Q53 56 53 70Q53 89 58 107T71 139Q56 148 45 160T27 190Q22 207 22 221Q22 250 38 274T77 315T125 337Q129 337 139 338T157 340Q165 340 166 338Q166 335 164 335H150Q127 335 101 321T56 282T37 226Q37 219 38 212T42 197Q53
170 77 153Q99 193 124 223T178 282T236 342Q236 349 236 357T235 372Q235 387 237 401T244 427Q247 434 253 442T267 452Q268 452 269 452T271 453Q282 453 287 437Q289 433 289 430T289 423Q289 401 275 381T248 348Q248 321 252 294T261 240Q278 263 303 281T358
300Q371 300 382 294T399 271Q403 260 403 245Q403 227 399 210T389 180Q375 139 350 108T289 53Q290 43 290 33T290 12Q290 -21 284 -55T262 -115T215 -149ZM249 357Q253 363 261 377T275 406T279 430Q278 436 272 436Q267 434 264 429T259 420Q253 409 251 390T249
357ZM97 143Q108 139 121 139Q149 139 174 156T219 193T247 224Q244 252 241 279T236 334Q221 317 205 301T173 268Q156 248 142 227T115 182Q110 173 106 164T97 143ZM287 62Q317 82 340 108T376 170Q387 201 387 222Q387 248 375 261T342 275Q325 275 304 265T262
232Q268 190 276 148T287 62ZM204 22Q236 31 264 46Q263 89 258 131T248 217Q239 200 219 179T173 141T118 125Q104 125 92 129Q89 120 87 110T85 88Q85 72 89 60Q99 35 119 26T162 17Q174 17 184 18T204 22Z" />
<glyph unicode="&apos;" glyph-name="quotesingle" horiz-adv-x="106" d="M31 307L30 308Q30 312 41 327T63 362T75 400Q75 407 73 412T70 422Q70 427 75 435T87 444Q99 444 104 436T110 419Q110 412 108 406T103 392Q95 377 85 363T63 335Q59 330 48 319T31 307Z" />
<glyph unicode="(" glyph-name="parenleft" horiz-adv-x="289" d="M222 -58Q199 -63 176 -63Q146 -63 117 -52T64 -10T30 73Q26 91 25 110T23 149Q23 210 40 269T92 379T176 462T290 499H300Q311 499 317 497Q321 495 321 493T319 490Q313 490 306 490T292 490Q234
482 190 451T115 373T70 270T54 156Q54 136 55 117T61 77Q72 23 103 -14T198 -51Q203 -51 209 -51T221 -50Q225 -50 225 -53T222 -58Z" />
<glyph unicode=")" glyph-name="parenright" horiz-adv-x="355" d="M33 -73H23Q12 -73 6 -71Q2 -69 2 -67T4 -64Q10 -64 17 -64T31 -64Q89 -56 133 -25T208 53T253 156T269 270Q269 290 268 310T262 349Q251 403 220 440T125 477Q120 477 114 477T102 476Q98 476
98 479T101 484Q112 486 122 487T144 489Q174 489 203 477T256 435T291 350Q295 331 296 312T298 273Q298 213 281 154T230 45T147 -36T33 -73Z" />
<glyph unicode="*" glyph-name="asterisk" horiz-adv-x="386" d="M200 9Q199 26 198 56T196 122V153Q164 121 138 93T103 54Q102 52 97 52Q93 52 88 53T83 56Q97 73 125 103T187 166Q134 167 92 169T42 173Q39 174 39 176T44 179Q55 179 94 179T181 181Q145 217
119 247T87 284Q85 287 87 288T92 287Q97 282 113 266T151 229T196 185Q196 238 198 281T203 332Q204 335 206 334T209 330Q209 319 210 278T211 189Q247 225 276 251T313 282Q316 284 317 282T316 277L223 181Q267 183 302 183T352 186Q355 186 360 178T364 170Q348
168 320 167T259 166H217Q249 134 276 108T315 74Q317 72 317 66Q317 62 316 58T313 54Q296 66 269 92T211 149Q213 106 213 71T216 22Q216 19 208 13T200 9Z" />
<glyph unicode="+" glyph-name="plus" horiz-adv-x="248" d="M103 9Q102 6 100 7T98 11Q101 46 104 76T110 136Q90 135 71 134T31 131Q25 131 16 139T11 148Q40 150 65 151T112 152Q116 199 115 253Q115 256 126 262T137 266Q137 221 129 152Q164 151 190 150T233
144Q237 144 237 142Q237 139 229 139Q208 139 182 139T127 136Q122 94 115 59T103 9Z" />
<glyph unicode="," glyph-name="comma" horiz-adv-x="127" d="M15 -122L14 -121Q14 -117 26 -99T50 -56T62 -10Q62 -2 60 4T57 17Q57 24 62 34T75 44Q88 44 94 34T100 13Q100 4 98 -3T92 -19Q84 -38 73 -55T49 -89Q45 -95 33 -108T15 -122Z" />
<glyph unicode="-" glyph-name="hyphen" horiz-adv-x="192" d="M65 107Q62 107 56 115T53 124Q70 126 85 127T114 128Q138 128 155 126T184 121Q187 120 186 118T182 115Q159 115 128 113T65 107Z" />
<glyph unicode="." glyph-name="period" horiz-adv-x="127" d="M65 -10Q58 -10 54 -2T49 12Q49 17 53 21T61 29Q66 33 74 37T89 46Q93 49 93 45Q93 41 91 34T88 17Q87 0 79 -4T65 -10Z" />
<glyph unicode="/" glyph-name="slash" horiz-adv-x="288" d="M8 -75Q8 -76 8 -76T7 -76Q4 -76 -1 -71T-6 -63Q1 -31 28 13T95 108T182 209T276 307T364 391T432 449Q440 456 450 459T467 462Q472 462 474 460T471 454Q444 433 402 398T311 317T213 220T120 117T47
16T8 -75Z" />
<glyph unicode="0" glyph-name="zero" horiz-adv-x="403" d="M147 -18Q94 -18 56 10T18 93Q18 142 41 187T98 272Q120 295 149 316T210 350T268 363Q326 363 360 331T394 237Q394 185 372 137T311 53T225 -3Q206 -10 187 -14T147 -18ZM143 5Q167 5 190 11T235
28Q274 46 307 77T361 150T382 236Q382 241 382 246T380 257Q375 292 348 317T286 342Q228 342 181 310T101 234Q76 200 61 163T46 94Q46 56 69 31T143 5Z" />
<glyph unicode="1" glyph-name="one" horiz-adv-x="248" d="M-5 -11Q-10 -12 -13 -8T-17 2Q-17 12 -6 13Q13 18 39 19T94 19Q93 55 102 97T129 182T169 259T213 311Q166 277 120 259T41 236Q35 238 35 241Q35 245 42 248Q68 251 102 266T171 303T235 344T281 379Q286
382 291 382Q298 382 301 377T300 367Q246 328 205 274T141 160T118 48Q118 41 118 34T120 18Q155 17 182 16T235 11Q240 11 241 7T237 2Q221 3 188 2T125 -1Q127 -4 123 -9T110 -14Q100 -14 95 -2L-5 -11Z" />
<glyph unicode="2" glyph-name="two" horiz-adv-x="429" d="M34 -21Q12 -21 12 0Q12 16 24 24T52 34T80 37Q88 37 98 37T116 36Q156 65 191 99T261 171Q276 187 292 210T321 260T333 308Q333 327 322 336T293 345Q275 345 251 336T204 310T165 274T146 232V230Q146
221 151 221Q153 221 153 219Q153 217 150 214T142 211Q134 211 130 219T125 234Q125 258 144 280T192 320T252 348T305 359Q333 359 351 346T370 303Q370 275 353 244T309 182T250 122T189 69T138 30Q157 28 196 21T271 10Q279 9 295 7T329 4Q355 4 378 13T401
50Q401 72 383 83T350 95Q347 95 347 97Q347 100 350 100T355 101Q374 99 393 88T413 48Q413 21 400 7T365 -12T320 -18Q312 -18 304 -18T287 -16Q246 -12 201 -1T116 15Q100 5 76 -8T34 -21ZM37 -12Q50 -12 66 -2T92 17H71Q65 17 54 16T34 12T24 -1Q24 -8 28 -10T37
-12Z" />
<glyph unicode="3" glyph-name="three" horiz-adv-x="396" d="M133 -29Q76 -29 46 -8T16 46Q16 77 43 110Q45 112 49 111T51 105Q32 79 32 55Q32 22 65 5T146 -13Q205 -13 249 6T317 58T342 126Q342 162 318 178T258 194Q249 194 239 193T218 190Q200 185 191
182T165 177Q161 177 156 180T151 187Q151 192 160 198Q165 201 179 202T209 205T233 206Q267 217 296 238T339 293Q343 301 343 312Q343 339 319 349Q304 356 274 356Q247 356 218 350T166 330T134 296Q130 286 133 284L134 283Q134 280 129 277T118 275Q110 278
110 290Q110 293 110 296T112 302Q121 325 147 339T208 361T273 368Q311 368 336 358Q356 350 364 337T373 309Q373 285 359 267T324 235T282 214T247 203Q255 204 263 204T278 205Q328 205 352 184T377 129Q377 86 354 56T293 7T213 -20T133 -29Z" />
<glyph unicode="4" glyph-name="four" horiz-adv-x="371" d="M102 -11Q98 -12 96 -8T93 1Q93 12 102 13Q114 17 134 18T183 18Q191 41 201 69T215 108Q182 108 151 110T87 116Q73 109 55 102T22 94Q6 94 6 109Q6 119 15 130T40 141Q54 141 66 141T99 137Q173 184
226 239T325 344Q332 352 339 357T358 362Q360 362 364 361T366 357Q354 335 347 323T332 298T310 258Q302 242 289 215T264 162T248 126Q253 126 258 126T269 125Q293 125 319 130T363 150T381 193Q381 201 386 201Q391 201 391 192Q391 153 368 136T311 115T242
108Q241 105 235 93T223 65T211 36T204 17Q236 16 251 15T285 11Q288 11 289 7T286 2Q278 3 260 3T225 2T199 -1Q198 -5 195 -9T188 -13Q183 -13 180 -2Q153 -2 137 -5T102 -11ZM222 127Q233 153 248 186T281 255T315 319Q291 292 258 257T189 189T119 135Q151
131 169 130T198 128T222 127Z" />
<glyph unicode="5" glyph-name="five" horiz-adv-x="425" d="M152 -41Q100 -44 67 -28T33 25Q33 49 51 82Q53 85 57 87T59 83Q46 60 46 42Q46 18 65 4T115 -17T180 -24Q242 -24 283 -4T344 47T364 108Q364 141 340 165T267 190Q232 190 210 185T171 175Q168 172
160 172Q153 172 148 174T145 182Q154 207 170 244T196 312L171 317Q158 320 158 323Q158 325 163 326T176 326Q181 325 186 324T199 322Q207 338 225 338Q237 338 237 331Q237 326 232 318Q255 316 280 314T327 312Q338 312 347 312T363 314Q381 317 392 325T404
349Q404 353 401 358T391 363Q385 363 385 365Q385 369 394 369Q404 369 411 363T418 345Q418 323 403 311T365 295T316 293Q300 294 276 298T227 306Q214 277 199 245T177 192Q194 197 217 200T244 203Q316 205 356 174T396 101Q396 69 371 38T292 -15T152 -41Z"
/>
<glyph unicode="6" glyph-name="six" horiz-adv-x="380" d="M106 -78Q99 -78 95 -62T91 -38Q65 -30 55 -9T45 37Q45 79 68 129T128 229T203 320T276 387Q281 391 286 391Q292 391 292 386Q292 382 289 379T284 373Q253 346 218 310T150 232T98 145T77 53Q77 44
78 30T82 4T91 -11Q99 28 124 71T184 148T260 194Q271 198 283 198Q306 198 322 184T338 142Q338 99 315 65T256 6T181 -30T108 -41Q108 -50 115 -62Q117 -66 117 -70Q117 -78 106 -78ZM129 -29Q153 -29 185 -17T247 17T296 71T314 142Q313 159 302 166T276 173Q261
173 243 166Q204 151 175 120T130 50T109 -25Q116 -29 129 -29Z" />
<glyph unicode="7" glyph-name="seven" horiz-adv-x="346" d="M84 -47Q72 -47 68 -38T64 -18Q64 21 89 68T153 164T233 254T307 326Q300 326 293 326T277 325Q243 325 201 326T129 328Q119 328 111 328T96 327Q77 325 60 317T42 293Q42 289 45 284T55 278Q60 278
60 277Q60 273 51 273Q41 273 33 278T24 294Q24 329 51 340T123 350Q141 350 169 346T229 337T293 334Q318 335 327 346T350 362Q353 363 356 363T362 364Q374 364 374 356Q374 349 365 342T335 329Q332 328 327 328Q293 297 254 254T178 162T119 67T96 -18Q96
-28 106 -28Q112 -28 117 -24Q121 -22 121 -22Q123 -22 123 -25Q123 -29 117 -34Q110 -40 100 -43T84 -47Z" />
<glyph unicode="8" glyph-name="eight" horiz-adv-x="273" d="M113 -20Q82 -20 60 -4T37 42Q37 69 55 95T98 145T144 184Q130 201 123 222T115 265Q115 298 132 318T175 347T228 357Q236 357 243 357T257 355Q255 368 248 379T226 396Q221 397 221 400Q221 404
228 404Q246 403 260 387T272 350Q287 343 298 331Q302 327 303 322T299 320Q293 325 286 327T271 332Q266 297 240 265T191 206L177 192Q200 173 218 146T236 87Q236 56 217 32T170 -6T113 -20ZM165 203Q184 223 204 242T239 283T257 334Q252 336 246 336T234
336Q216 337 194 334T154 318T137 280Q137 260 146 239T165 203ZM118 -2Q150 -2 175 19T200 74Q200 102 186 127T154 171Q136 158 115 137T79 92T64 46Q64 24 79 11T118 -2Z" />
<glyph unicode="9" glyph-name="nine" horiz-adv-x="276" d="M158 -19Q157 -42 145 -42Q141 -42 136 -35T132 -14Q134 14 151 55T196 145T256 241Q240 219 215 198T161 162T108 147Q82 147 71 162T60 199Q60 224 78 253T124 307T183 348T242 360Q253 359 265 351T277
328Q277 322 274 322Q271 323 271 325T269 329Q266 338 252 341T230 342Q196 335 165 310T113 253T92 190Q92 181 96 172T116 163Q135 163 162 177T215 214T255 256Q273 282 284 300T309 312Q312 311 312 306Q312 294 302 282Q252 222 221 161T175 52T158 -19Z"
/>
<glyph unicode=":" glyph-name="colon" horiz-adv-x="127" d="M101 129Q94 129 90 137T85 151Q85 156 89 160T97 168Q102 172 110 176T125 185Q129 188 129 184Q129 180 127 173T124 156Q123 139 115 135T101 129ZM67 0Q60 0 56 8T51 22Q51 27 55 31T63 39Q68
43 76 47T91 56Q95 59 95 55Q95 51 93 44T90 27Q89 10 81 6T67 0Z" />
<glyph unicode=";" glyph-name="semicolon" horiz-adv-x="127" d="M119 129Q112 129 108 137T103 151Q103 156 107 160T115 168Q120 172 128 176T143 185Q147 188 147 184Q147 180 145 173T142 156Q141 139 133 135T119 129ZM27 -96Q37 -85 49 -64T62 -10Q62 -2
60 4T57 17Q57 24 62 26T74 30Q78 31 80 31T85 32Q100 32 100 13Q100 4 98 -3T92 -19Q84 -38 70 -58T43 -95Q36 -107 27 -107Q23 -107 23 -104Q23 -100 27 -96Z" />
<glyph unicode="&lt;" glyph-name="less" horiz-adv-x="267" d="M181 114L174 117Q158 139 139 156T98 190Q92 195 86 199T73 209Q70 211 70 215Q70 221 80 237T105 274T132 312T150 335Q155 341 159 348T169 361Q176 371 186 371Q194 371 194 364Q194 361 183
344T157 304T128 263T111 238Q116 232 129 216T156 182T181 149T192 127Q192 114 181 114Z" />
<glyph unicode="=" glyph-name="equal" horiz-adv-x="292" d="M63 137Q58 137 51 145T44 158Q44 159 46 161Q51 163 70 164T110 165T138 166Q149 166 174 165T222 162T252 156Q254 154 254 153Q254 147 247 147Q200 147 155 142T63 137ZM63 54Q58 54 51 61T44
74Q44 77 46 77Q51 79 70 80T110 82T138 83Q149 83 173 82T222 79T252 72Q254 72 254 69Q254 63 247 63Q200 63 155 59T63 54Z" />
<glyph unicode="&gt;" glyph-name="greater" horiz-adv-x="267" d="M77 108Q69 108 69 115Q69 118 80 135T106 175T135 216T152 241Q147 247 134 263T107 297T82 330T71 352Q71 365 82 365L89 362Q105 340 124 323T163 290L191 270Q194 267 194 264Q194 258 185
243T164 213T149 193Q140 179 130 167T110 140Q106 135 103 129T94 118Q87 108 77 108Z" />
<glyph unicode="?" glyph-name="question" horiz-adv-x="382" d="M93 93Q77 106 77 124Q77 140 88 156T114 188T141 211Q161 226 180 239T220 266Q245 282 275 301T329 345T352 405Q352 432 337 449T298 474T251 482Q201 482 160 455T98 382Q95 375 93 369T91
355Q91 344 98 340T116 335Q134 335 156 343T194 358H195Q199 358 199 354Q199 353 197 349Q184 337 156 329T110 319H104Q88 319 76 325T63 350Q63 358 65 366T71 382Q76 395 84 405T102 426Q131 455 170 473T251 491Q281 491 307 480T350 447T367 393Q367 354
343 324T286 273Q276 266 265 261T243 249Q222 238 201 226T160 200Q150 194 134 181T105 154T92 125Q92 114 98 110T104 102Q104 93 95 93H93ZM59 -15Q52 -15 48 -7T44 7Q44 15 55 24T80 39T97 46V51Q98 50 99 48T100 43Q100 41 98 40T94 36Q86 28 84 18T78 -2T62
-15H59Z" />
<glyph unicode="@" glyph-name="at" horiz-adv-x="667" d="M270 -23Q185 -23 130 18T75 148Q75 207 105 257T186 344T294 402T406 423Q474 423 517 388T561 281V261Q582 233 582 198Q582 156 554 113T478 41Q435 15 379 -4T270 -23ZM270 -10Q322 -10 382 9T486
63Q515 85 536 115T557 181Q557 205 546 227Q540 206 526 179T491 124T446 80T396 62Q366 62 357 86T347 142Q347 162 349 180T352 212Q348 201 338 176T314 124T282 78T248 64Q235 68 231 81T226 108Q226 155 248 202T301 281Q303 295 315 308T343 330T371 341H381Q390
337 390 326Q389 322 388 318T384 312Q374 305 367 300T349 287Q328 269 305 242T265 183T245 121Q245 117 245 106T247 85T256 74Q265 72 273 80T285 94Q297 111 308 137T330 191T346 239Q348 245 351 257T356 275L358 288Q358 293 364 293H369Q380 293 380 288V287Q376
254 374 216T371 145Q371 123 376 101T403 79Q412 79 424 86T447 104T464 119Q490 148 506 178T533 247Q523 261 511 269T485 284Q479 287 479 289Q479 293 496 293Q506 293 519 288T540 277Q542 283 542 289T542 301Q542 306 542 311T541 320Q531 362 498 380T424
398Q384 398 332 386T235 346Q166 304 130 246T93 131Q93 73 136 32T270 -10Z" />
<glyph unicode="A" glyph-name="A" horiz-adv-x="557" d="M34 -46Q-1 -46 -29 -31T-57 31Q-57 82 -24 118T62 179T175 216T291 235Q320 303 346 375T389 505Q391 511 395 513Q399 523 401 523Q403 523 404 514L406 511Q406 507 404 505V506Q404 512 404 514Q400
517 395 513Q389 497 380 462T360 385T338 302T316 237Q329 238 342 238T366 238Q374 238 387 238T417 235Q415 258 414 280T413 324Q413 374 418 422T431 506Q439 548 446 559H452Q457 559 466 554T476 544Q466 510 456 462T443 369Q442 353 441 335T440 299Q440
283 440 266T442 232Q474 226 500 213T527 171Q527 151 519 151Q512 151 512 171Q512 179 507 184T496 192Q488 197 475 201T445 209Q450 165 462 123T496 45Q508 24 521 14T545 -1Q545 -1 545 0T547 -5Q548 -6 548 -9Q548 -13 545 -15T536 -13H537Q485 11 458
74T420 213Q404 216 389 217T365 220Q352 220 338 220T309 218Q290 172 263 122T199 31T112 -32Q99 -37 78 -41T34 -46ZM33 -21Q53 -21 72 -17T106 -7Q149 11 181 46T237 126T283 217Q231 213 175 201T71 166T-6 111T-36 32Q-37 2 -16 -9T33 -21Z" />
<glyph unicode="B" glyph-name="B" horiz-adv-x="557" d="M178 -72Q174 -62 170 -52T161 -30Q150 -29 141 -28T123 -25Q83 -14 57 14T31 78Q31 91 34 104T45 131Q50 137 55 137Q61 137 65 132T67 120Q53 96 53 72Q53 46 72 25T118 -6Q126 -7 135 -8T155 -11Q129
81 129 200Q129 265 137 330T164 453Q136 443 114 431T79 409Q54 384 54 356Q54 341 63 326T93 297Q97 294 97 289Q97 285 93 281T82 281Q57 296 46 317T34 360Q34 402 67 432Q82 445 111 457T174 480Q186 512 201 540T235 590Q249 608 275 624T328 641Q343 641
358 631T385 598Q387 592 387 590Q387 582 382 582Q376 582 373 590Q363 613 338 613Q317 613 293 597T256 567Q230 530 211 491Q243 499 275 503T333 508Q410 508 443 483T477 423Q477 389 450 354T374 291Q422 285 461 264T523 213T546 149Q546 117 517 82T429
18Q395 2 353 -9T267 -25T187 -31H183Q185 -38 187 -46T193 -62Q196 -69 196 -75Q196 -82 191 -82Q185 -82 178 -72ZM198 -14Q241 -14 292 -5T390 24Q453 51 480 84T507 148Q507 180 484 208T422 255T340 275Q322 266 297 261L279 256Q260 253 246 252T224 251Q211
251 207 253T202 256Q200 269 213 274T236 284Q262 290 291 292T343 293Q387 319 415 356T444 424Q444 452 418 471T331 490Q302 490 267 484T200 466Q175 405 163 338T151 202Q151 146 158 92T178 -13Q183 -14 188 -14T198 -14Z" />
<glyph unicode="C" glyph-name="C" horiz-adv-x="596" d="M309 -38Q261 -38 210 -24T118 25T62 125Q55 153 55 184Q55 255 89 316T181 423T309 494T451 520Q471 520 489 517T526 509Q534 508 544 503L547 508L549 511Q554 517 563 517Q570 517 575 514T578 505Q572
490 565 478T551 454Q538 432 526 409T515 361Q515 360 512 361T507 363Q508 395 515 427T536 487L524 493Q523 493 523 493T521 494Q485 507 442 507Q379 507 317 481T204 410T122 306T91 184Q91 171 92 158T97 130Q106 90 130 62T187 17T255 -8T321 -16Q363 -16
408 -7T496 21T569 66Q574 70 579 70Q588 70 588 61Q588 56 584 53Q549 25 503 5T406 -26T309 -38Z" />
<glyph unicode="D" glyph-name="D" horiz-adv-x="609" d="M154 -72Q140 -44 129 -5Q126 -5 123 -5T117 -3Q91 2 67 17T27 57T11 111Q11 123 14 135Q17 141 23 141Q28 141 31 138T33 129Q30 119 30 107Q30 82 44 60T80 24T123 10H126Q116 52 111 100T105 200Q105
273 116 346T150 481Q110 462 84 440Q79 436 74 436Q65 436 65 445Q65 450 69 453Q88 468 111 481T159 504Q180 555 210 590Q225 608 251 624T304 641Q320 641 334 631T361 598Q363 592 363 590Q363 582 358 582Q353 582 348 590Q344 602 335 607T315 613Q293 613
269 597T232 567Q224 556 217 545T202 520Q237 531 273 537T344 544Q429 544 483 514T564 433T591 324Q591 257 557 189T459 72Q407 34 344 11T210 -13Q197 -13 183 -12T153 -9Q157 -22 161 -35T169 -62Q172 -69 172 -75Q172 -82 167 -82Q161 -82 154 -72ZM181
6Q232 6 280 17T369 47T436 90Q494 141 523 204T553 327Q553 380 530 424T457 495T333 522Q263 522 190 497Q158 430 142 354T126 202Q126 152 132 103T149 7Q157 6 165 6T181 6Z" />
<glyph unicode="E" glyph-name="E" horiz-adv-x="591" d="M309 -38Q261 -38 210 -24T118 25T62 125Q55 153 55 184Q55 190 55 195T56 207Q38 192 23 177Q21 175 17 175Q5 175 5 190Q5 197 9 202Q19 215 33 226T63 247Q78 306 116 356T208 442T325 499T451 520Q471
520 491 519T529 511L531 510V510Q531 510 531 510Q531 510 530 511Q530 511 530 511V511L531 510V510V510L533 509H534V509H535Q535 509 534 509Q534 509 534 509Q534 509 533 509Q546 504 552 500L557 508V507Q559 512 564 513T574 515Q580 515 585 513T588 505Q582
490 575 478T560 454Q547 432 535 409T524 361Q524 360 521 361T516 363Q517 393 523 424T543 483Q539 485 534 488T524 493Q523 493 523 493T521 494Q485 507 442 507Q390 507 338 489T239 438T158 362T106 268Q149 286 196 296T284 310T351 315Q363 315 390 314T448
307T499 288T520 251Q520 230 512 230Q505 230 505 251Q505 258 500 263T489 273Q476 282 448 287T390 294T346 297Q291 297 223 281T96 233Q93 221 92 209T91 184Q91 171 92 158T97 130Q106 90 130 62T187 17T255 -8T321 -16Q363 -16 408 -7T496 21T569 66Q574
70 579 70Q588 70 588 61Q588 56 584 53Q549 25 503 5T406 -26T309 -38ZM531 510Q532 510 532 510H531ZM532 510Q532 510 533 509L532 510ZM533 509Q533 509 533 509V509Z" />
<glyph unicode="F" glyph-name="F" horiz-adv-x="412" d="M154 -72Q130 -22 118 49T105 200Q105 214 105 228T106 256Q95 255 84 253T63 248Q56 247 40 241T18 231Q14 228 10 228Q2 228 7 242T21 262Q27 266 46 271T76 278L108 282Q113 336 123 388T152 487Q139
483 127 478T102 467Q91 461 73 452T38 432T10 414Q5 410 1 410Q-2 410 -2 413Q-2 421 5 428Q12 434 27 443T58 463T83 477Q101 486 121 493T161 508Q180 554 210 590Q225 608 251 624T304 641Q320 641 334 631T361 598Q363 592 363 590Q363 582 358 582Q353 582
348 590Q339 613 315 613Q293 613 268 597T232 567Q223 556 216 544T200 520Q222 525 243 529T287 537Q306 539 324 540T361 542Q407 542 445 535T509 513Q518 509 526 498T535 474Q535 466 531 457T516 439Q506 432 501 432Q500 432 500 432T499 433Q499 436 505
442Q518 451 518 461Q518 472 507 481T488 493Q429 520 343 520Q327 520 309 519T274 515Q252 512 231 508T188 498Q163 449 149 394T130 283Q136 284 142 284T156 284Q201 284 242 279T302 263Q314 257 314 248Q314 241 304 245Q290 253 260 257T194 262Q160 262
128 259Q127 245 127 231T126 202Q126 132 138 65T169 -62Q172 -69 172 -75Q172 -82 167 -82Q161 -82 154 -72Z" />
<glyph unicode="G" glyph-name="G" horiz-adv-x="665" d="M300 -38Q251 -38 200 -24T108 25T53 125Q49 139 48 152T47 179Q47 236 68 286T123 376T191 440Q242 476 301 498T424 520Q462 520 494 513T541 498L547 508V507Q551 515 564 515Q571 515 575 513T578
505Q572 490 565 478T551 454Q538 432 526 409T515 361Q515 360 512 361T507 363Q508 393 514 424T534 484Q529 486 524 489T515 493Q514 493 514 493T512 494Q495 501 476 503T438 506Q396 506 353 494T274 462T212 421Q157 372 122 305T86 172Q86 162 88 149T92
125Q106 74 143 43T226 -2T312 -16Q391 -16 454 12T557 96T604 228Q581 231 551 233T489 235Q437 235 387 229T305 207Q299 204 295 204Q289 204 289 210Q289 216 294 225T307 237Q330 249 375 254T471 260Q509 260 543 258T605 250V263Q611 272 618 272Q624 272
628 265T632 243Q635 243 639 241H641Q647 241 653 237T660 228Q660 223 649 220Q645 221 641 222T630 224Q629 214 624 198Q606 124 557 71T440 -10T300 -38Z" />
<glyph unicode="H" glyph-name="H" horiz-adv-x="573" d="M221 -74Q154 -74 128 -33T101 72Q101 109 108 150T128 235Q91 230 62 223T17 207Q11 204 9 204Q1 204 6 218T18 238Q32 245 63 251T136 261Q153 315 175 366T220 460T264 531T301 569Q303 571 306 571T311
571Q321 571 321 566Q321 562 312 557Q300 550 282 524T243 457T203 367T168 265Q212 269 259 271T353 273Q386 273 416 272T471 269Q478 363 503 449T575 590Q590 608 615 624T668 641Q685 641 700 631T727 598Q729 592 729 590Q729 582 724 582Q719 582 714 590Q704
613 680 613Q658 613 634 597T597 567Q551 504 526 426T493 266L520 262Q535 258 547 251T560 239Q560 237 554 237Q552 237 548 237T539 239Q530 241 518 243T492 246Q491 235 491 224T491 202Q491 132 502 65T534 -62Q537 -69 537 -75Q537 -82 532 -82Q526 -82
519 -72Q494 -22 482 49T469 200Q469 212 469 224T470 249Q428 252 377 252Q325 252 269 249T162 240Q150 197 143 155T136 76Q136 18 157 -19T231 -56Q243 -56 253 -51H252Q259 -47 264 -47Q268 -47 268 -50Q268 -56 258 -63Q249 -69 240 -71T221 -74Z" />
<glyph unicode="I" glyph-name="I" horiz-adv-x="340" d="M217 -91Q188 -91 168 -71T141 -35L139 -26Q138 -23 138 -19T135 -10L11 -45Q0 -43 0 -30Q0 -25 3 -21T13 -14Q34 -5 66 3T130 17Q129 23 129 29T129 42Q129 94 146 154T194 277T267 395T360 493Q328 507
297 512T233 517Q189 517 150 505T85 470Q81 466 74 457T66 438Q66 427 76 420Q78 418 78 415Q78 413 76 412T69 413Q60 421 56 430T52 448Q52 461 57 471T67 486Q90 512 131 525T224 538Q302 538 374 505Q387 513 403 523T436 544Q441 547 449 547Q455 547 460
546T465 541Q465 538 458 534L437 521H438Q430 515 419 508T399 492Q410 486 419 480T436 467Q441 462 441 454Q441 447 431 453Q407 473 386 483Q318 425 268 350T189 196T161 49Q161 42 161 36T162 22Q202 28 239 32T306 38Q312 40 312 31Q312 24 307 24Q273
21 238 14T167 -2Q167 -6 168 -11T171 -21Q175 -29 182 -42T200 -65T227 -75Q238 -75 250 -69H248Q253 -66 257 -66Q263 -66 263 -71Q263 -76 253 -82Q243 -87 235 -89T217 -91Z" />
<glyph unicode="J" glyph-name="J" horiz-adv-x="592" d="M120 -52Q107 -52 92 -49T65 -37T54 -10Q54 10 69 29T100 60Q128 83 166 102T245 134T322 156Q355 164 395 167T470 171Q495 202 517 241T554 324T568 406Q568 453 550 479T502 517T436 528Q392 528 347
516T266 491Q244 483 210 466T143 426T87 373T64 312Q64 283 79 266T118 239T170 226T222 222Q233 222 242 222T259 223Q277 224 304 230T360 246T413 268Q419 270 421 270Q428 270 428 264Q428 257 416 251Q376 229 334 217T244 198Q234 197 222 196T197 195Q169
195 139 201T83 224T46 270Q39 288 39 308Q39 343 61 375T118 433T191 480T259 512Q294 525 342 536T438 547Q483 547 521 535T583 494T607 414Q607 349 577 284T506 170Q517 169 532 166T559 156T573 136V133Q573 125 569 118T553 113Q554 117 554 124Q554 132
552 135Q549 142 538 145T513 151T492 153Q454 109 404 69T298 0T185 -43Q168 -47 152 -49T120 -52ZM129 -23Q143 -23 158 -22T189 -16Q266 4 334 48T454 153Q422 153 389 151T324 141Q270 130 217 109T122 45Q111 33 100 20T89 -5Q89 -12 98 -17T129 -23Z" />
<glyph unicode="K" glyph-name="K" horiz-adv-x="517" d="M71 -84Q56 -28 56 45Q56 112 68 186T104 332T162 463T241 560Q257 573 281 584T329 595Q349 595 365 584T391 543Q392 540 392 534Q392 526 387 526Q380 526 377 536Q373 553 362 559T337 566Q316 566
294 555T259 532Q206 483 170 418T112 280T82 133Q121 188 170 242Q170 249 173 255T182 262Q185 262 187 260Q250 325 324 381T478 478T641 537Q649 537 655 531T661 517Q661 508 653 507Q531 482 413 413T200 248Q208 238 215 226T224 209Q238 186 262 151T314
79T372 15T427 -20Q430 -21 432 -21T438 -22Q442 -22 448 -20Q464 -14 471 1T480 35T483 70Q483 74 483 77T484 83V85Q484 91 490 92H492Q501 92 501 83Q501 64 499 39T486 -8T453 -38Q443 -41 432 -41Q424 -41 415 -38Q386 -29 356 -5T298 50T247 113T209 170V171Q209
170 206 176V175Q201 182 192 196T177 223Q150 194 126 163T82 100L79 97Q78 84 78 71T78 45Q78 15 80 -16T87 -76Q88 -79 88 -84Q88 -94 82 -94Q74 -94 71 -84Z" />
<glyph unicode="L" glyph-name="L" horiz-adv-x="598" d="M-44 -110Q-61 -110 -61 -97Q-61 -88 -47 -72T2 -32Q5 -15 14 12T36 68T59 121T77 156Q55 161 39 181T22 225Q22 230 24 245T36 260Q44 260 45 249T46 229Q46 213 59 197T87 171Q108 207 140 258T213 365T302
468T404 546Q442 568 474 577T531 586Q606 586 606 516Q606 482 585 437T519 342Q474 291 414 246T286 173T147 144Q137 144 125 145T102 151Q89 125 76 94T53 35T40 -7Q94 21 153 39T276 68Q294 70 319 72T374 75Q409 75 444 71T510 55T558 25T577 -25Q577 -39
573 -54T559 -90Q547 -112 538 -112Q535 -112 535 -108Q535 -106 540 -94Q550 -77 554 -63T558 -37Q558 -3 530 15T460 41T376 48Q348 48 325 46T285 41Q245 35 198 24T108 -3T39 -33V-32Q39 -19 34 -19Q29 -19 20 -32T-1 -64T-24 -96T-44 -110ZM141 162Q206 162
272 189T398 260T499 352Q533 394 554 439T575 512Q575 535 564 550T528 565Q509 565 481 554T416 519Q368 488 322 441T235 343T163 244T113 167Q117 163 127 163T141 162Z" />
<glyph unicode="M" glyph-name="M" horiz-adv-x="749" d="M84 -77Q76 -91 68 -91Q61 -91 56 -81T50 -58Q50 -49 53 -43Q67 -12 84 22T122 91Q132 129 136 169T141 250Q141 317 126 384T76 513Q70 525 57 538T27 560T-5 570Q-12 570 -21 565T-36 551Q-41 546 -43
546Q-49 546 -49 554Q-49 556 -47 562Q-22 596 8 596Q37 596 62 575T100 534Q133 481 147 411T162 264Q162 235 160 205T154 146Q167 174 188 212T234 292T286 373T339 441T388 484H386Q412 500 437 500Q458 500 472 487T486 444Q486 440 486 436T485 427Q483 406
470 373T440 300T405 223Q381 171 362 127T342 67Q342 60 347 60Q369 60 397 80T456 132T516 199T569 264L590 290Q595 296 608 307T632 319Q642 319 642 305Q642 298 634 279T612 232Q605 217 596 191T581 135T574 75Q574 38 589 11T647 -17Q670 -17 686 -7T712
17Q719 25 721 30Q726 41 729 41Q735 41 735 33Q735 17 721 2T685 -24T645 -35Q604 -35 581 -19T549 25T540 86Q540 119 547 154T562 217Q555 210 547 200T527 179Q506 156 482 130T432 80T384 43T343 28Q336 28 322 38T309 59Q313 88 332 131T373 222Q402 281
426 339T450 438Q450 456 444 462T428 468Q401 468 372 445T315 385T261 304T211 216T171 139Q161 120 153 104T140 79V80Q129 31 116 -6T84 -77Z" />
<glyph unicode="N" glyph-name="N" horiz-adv-x="582" d="M84 -62Q58 -62 24 -45Q9 -38 -2 -21Q-4 -18 -4 -13Q-4 -6 1 -6Q5 -6 8 -13V-12Q17 -24 22 -25Q34 -31 45 -34T68 -38Q105 -38 135 -7T188 76T228 187T253 306T263 410Q225 459 187 489T112 520Q99 520
93 503T87 461Q87 438 91 412T100 363T108 329Q109 326 109 322Q109 314 104 314Q99 314 95 325Q86 350 77 392T68 473Q68 506 78 529T113 553Q148 553 186 524T262 447Q260 473 254 486Q253 491 253 494T252 500Q252 506 255 506Q260 506 264 497Q277 476 280
424Q321 371 359 308T431 186Q443 165 454 148T476 113Q477 155 482 211T499 327T533 438T588 520T670 552Q689 552 704 543T733 509Q728 518 724 518Q718 518 722 503Q717 513 706 518T684 523Q642 523 611 499T558 433T523 342T503 241T497 146Q497 118 499 95T505
56V57Q517 45 528 31T544 3Q551 -13 553 -26T556 -48Q556 -57 554 -61Q550 -72 541 -72Q530 -72 519 -55Q509 -40 502 -16T489 30L440 118Q406 180 366 252T281 385Q281 335 274 276T251 157T213 48T157 -32T84 -62Z" />
<glyph unicode="O" glyph-name="O" horiz-adv-x="608" d="M216 -23Q163 -23 121 -4T55 52T30 144Q30 209 60 272T141 386T256 468T389 499Q392 499 401 498T411 489Q411 484 400 483T386 481Q337 481 290 459T202 398T128 314T78 220T60 131Q60 79 93 43T202 6Q238
6 277 19T345 47Q402 73 451 119T530 225T561 352Q561 359 561 367T559 383Q551 423 522 452T454 497T376 513Q323 513 269 498T169 450T99 367Q89 349 77 349Q70 349 70 358Q70 367 79 386T113 435Q161 489 233 514T376 540Q434 540 480 519T554 456T582 353Q582
275 549 205T460 80T332 -1Q275 -23 216 -23Z" />
<glyph unicode="P" glyph-name="P" horiz-adv-x="649" d="M170 -59Q156 -11 156 54Q156 127 173 211T221 374T297 513Q225 506 169 487T81 439T48 374Q48 348 68 319T131 258Q137 254 137 250Q137 247 132 247Q124 247 115 253Q65 289 43 322T20 384Q20 424 59
454T164 504T311 531Q329 552 350 570Q364 584 388 594T436 605Q456 605 473 594T499 553Q500 550 500 544Q500 536 495 536Q488 536 485 546Q481 563 470 569T444 575Q423 575 401 565T366 543L355 533Q366 533 376 533T396 534Q414 534 432 533T468 531Q561 525
604 488T647 397Q647 349 616 306T523 236T371 208Q329 208 313 215T296 229Q296 236 305 236Q313 233 329 231T365 228Q385 228 409 230T459 240Q503 253 536 278T588 336T607 398Q607 439 565 473T437 515Q424 516 408 516T377 517Q367 517 358 517T340 516Q285
455 249 377T196 215T178 53Q178 25 180 -1T186 -52Q186 -54 186 -55T187 -59Q187 -69 181 -69Q173 -69 170 -59Z" />
<glyph unicode="Q" glyph-name="Q" horiz-adv-x="749" d="M536 -247Q506 -238 476 -214T419 -160T368 -97T330 -40V-39L328 -37Q324 -38 319 -38T309 -38Q262 -38 211 -22T120 29T62 125Q55 153 55 184Q55 244 82 299Q81 304 81 309T80 321Q80 368 105 411T176
486Q222 517 286 534T419 551Q477 551 531 538T629 497T698 425T724 320Q724 248 695 188T616 81T501 5T366 -34Q383 -60 405 -91T451 -151T500 -201T547 -229Q550 -230 552 -230T558 -231Q563 -231 569 -229Q592 -220 597 -193T604 -140Q604 -137 604 -134T605
-128V-126Q605 -121 611 -118H613Q622 -118 622 -128Q622 -147 620 -172T607 -218T574 -247Q564 -250 554 -250Q545 -250 536 -247ZM103 338Q138 390 190 429T303 492T428 519Q422 520 416 520T402 520Q347 520 293 508T191 471Q152 452 130 416T103 338ZM315 -16Q309
-5 303 6T293 24Q292 26 292 29T292 34Q292 49 302 53Q308 55 317 43T335 18T345 0L354 -14Q420 -9 481 17T591 87T666 191T689 324Q689 353 678 379T651 426T624 454Q582 486 539 496T442 507Q374 507 308 477T188 395T109 278Q123 230 166 201Q171 196 171 192Q171
188 167 185T155 185Q117 208 99 245Q95 230 93 215T91 184Q91 171 92 158T97 130Q109 77 145 46T227 0T315 -16Z" />
<glyph unicode="R" glyph-name="R" horiz-adv-x="591" d="M137 -41Q121 14 121 92Q121 159 133 233T168 378T226 506Q176 493 132 474T67 435Q53 422 46 404T39 367Q39 345 50 323T85 285Q90 281 90 278Q90 274 83 274Q76 274 66 279Q40 296 28 320T16 371Q16
419 54 455Q77 477 130 497T241 529Q255 550 271 568T304 601Q319 615 342 626T390 638Q410 638 427 626T453 585Q454 582 454 578Q454 570 448 570Q442 570 439 578Q435 595 424 601T398 608Q377 608 355 597T321 575Q311 566 303 557T286 538Q325 544 358 544Q446
544 484 514T523 442Q523 396 492 358T413 292T316 253Q309 252 303 251T291 248Q298 238 303 229T310 216Q324 193 347 158T399 86T457 22T513 -13Q516 -14 518 -14T524 -15Q529 -15 535 -13Q551 -7 558 8T567 42T569 77Q569 81 569 84T570 90V92Q570 97 576 99H579Q588
99 588 90Q588 71 585 46T572 -1T539 -31Q530 -34 519 -34Q510 -34 501 -31Q471 -22 441 2T384 57T334 120T296 177V178Q296 177 295 179T292 183V182Q286 190 275 209T259 240Q258 241 258 243Q254 242 250 242T243 241Q227 240 218 245T209 257Q209 267 229 270Q237
272 248 272Q259 272 272 271T299 269Q301 269 305 269T314 268Q341 276 371 291T427 329T469 381T486 444Q486 477 458 502T360 528Q353 528 343 528T323 526Q296 523 269 517Q226 459 198 388T157 242T144 93Q144 60 146 28T154 -33Q154 -35 154 -36T155 -40Q155
-52 148 -52Q141 -52 137 -41Z" />
<glyph unicode="S" glyph-name="S" horiz-adv-x="342" d="M136 -46Q96 -46 66 -27T36 40Q36 57 40 70T51 90Q61 101 65 101Q69 101 69 95Q69 90 66 84Q56 67 56 49Q56 17 84 -6Q107 -21 138 -21Q166 -21 195 -12T249 14T285 51Q292 67 292 84Q292 101 284 119T256
154Q247 162 229 174T191 200T159 220Q94 252 66 291T38 371Q38 408 59 444T117 511T201 565T301 599Q309 601 319 602T339 603Q364 603 383 595Q397 587 405 576T414 551Q414 541 412 531T401 509Q396 502 387 494T368 480Q367 480 367 480T365 479Q359 479 359
483Q359 486 365 490Q370 493 377 501T386 514Q394 529 394 543Q394 577 345 577Q338 577 329 576T310 574Q250 559 196 527T109 453T75 369Q75 335 99 302T176 239Q180 238 187 234T192 230Q215 218 240 203T286 168T310 121Q311 116 311 111T312 101Q312 70 296
42T255 -7Q233 -24 201 -35T136 -46Z" />
<glyph unicode="T" glyph-name="T" horiz-adv-x="561" d="M236 -63Q223 -63 210 -60T182 -48Q166 -43 155 -24Q153 -21 153 -17Q153 -10 158 -10Q163 -10 166 -16V-15Q172 -27 183 -30Q200 -40 221 -40Q254 -40 282 -13T334 61T376 165T406 284T425 401T432 499V507Q382
500 333 490T236 467Q204 459 163 443T86 407T30 368Q26 364 23 368T20 380Q20 393 28 402Q41 416 71 432T130 461Q154 472 201 483T308 505T431 523Q429 561 421 574Q417 579 417 583Q417 589 424 589Q431 589 435 583Q446 564 450 525Q485 528 519 530T586 532Q643
532 688 525T759 502T781 457Q779 447 773 447Q768 447 768 457Q769 465 757 474T737 486Q693 502 646 509T549 516Q525 516 501 514T451 510Q452 500 452 489T453 465Q453 408 445 338T419 197T375 68T315 -27T236 -63Z" />
<glyph unicode="U" glyph-name="U" horiz-adv-x="552" d="M494 -74Q428 -74 402 -33T375 72Q375 112 383 158T406 250Q379 205 339 156T253 65T158 -3T67 -29Q35 -29 23 -8T11 38Q11 60 18 79Q31 114 49 152T90 229Q116 275 139 322T178 416T194 512Q194 568 162
593T77 619Q64 619 48 614T26 604Q19 598 14 598Q9 598 9 603Q9 607 15 613Q24 621 44 628T90 636Q137 636 175 612T228 535Q234 514 234 491Q234 449 219 403T178 311T126 221Q102 182 80 143T47 68Q43 56 41 45T38 25Q38 3 50 -5T76 -14Q112 -14 153 10T236 72T315
154T379 237T419 302Q425 315 429 316Q452 378 479 431T531 522T575 569Q578 571 584 571Q594 571 594 566Q594 561 585 557Q571 550 549 515T503 427T457 313T423 190T409 76Q409 18 430 -19T504 -56Q516 -56 526 -51H525Q532 -47 537 -47Q541 -47 541 -50Q541
-56 531 -63Q515 -74 494 -74Z" />
<glyph unicode="V" glyph-name="V" horiz-adv-x="480" d="M354 -94Q347 -112 339 -112Q330 -112 324 -96T317 -66Q317 -54 321 -30T334 24T352 77Q353 86 353 96T353 115Q353 208 310 307T183 485Q167 499 134 514T71 529Q56 529 43 524T21 504Q15 495 8 495Q1
495 1 502Q1 508 5 513V512Q19 537 40 547T85 558Q120 558 154 543T208 511Q262 467 297 406T351 275T373 137Q382 165 400 205T442 291T493 380T549 458T605 512Q622 523 644 529T685 536Q713 536 731 522T750 475Q750 453 739 453Q733 453 728 458T722 470Q721
482 710 489T686 500T665 503Q628 498 595 472T533 406T479 321T434 231T400 151Q385 111 376 92Q376 83 375 71T374 51Q371 11 368 -27T354 -94Z" />
<glyph unicode="W" glyph-name="W" horiz-adv-x="914" d="M90 -56Q57 -56 45 -35T33 10Q33 21 35 32T40 52Q52 87 71 124T113 201Q138 247 161 294T200 389T216 485Q216 542 184 566T99 591Q86 591 70 586T48 576Q40 571 36 571Q31 571 31 575Q31 581 37 585Q46
594 67 601T113 608Q160 608 198 584T251 507Q253 497 254 486T256 463Q256 421 240 376T200 284T148 193Q124 154 103 114T69 40Q65 28 63 17T60 -2Q60 -24 72 -32T97 -41Q129 -41 166 -21T241 31T314 101T378 177T425 245Q423 259 422 271T420 293Q420 320 430
320Q438 321 445 310T454 293Q456 289 456 283Q456 279 456 276T454 270Q453 267 453 264T453 258Q454 237 459 213T473 168Q486 131 509 92T565 25T638 -2Q671 -2 712 24Q749 54 774 100T812 201T825 309Q825 353 818 397T799 475Q793 492 783 514T757 553T720
572Q717 572 715 571T710 569Q708 568 703 568Q699 568 696 573Q695 574 695 577Q695 583 705 584T721 586Q758 588 789 561T836 497Q853 457 861 415T869 331Q869 263 851 200T801 87T729 7Q686 -22 642 -22Q594 -22 554 9T484 88T439 187Q433 207 430 224Q403
179 363 130T276 39T181 -29T90 -56Z" />
<glyph unicode="X" glyph-name="X" horiz-adv-x="538" d="M17 -100Q10 -100 10 -87Q10 -72 20 -55V-56Q36 -27 63 18T129 119T212 232Q194 262 173 298T132 370T96 436T69 484Q56 508 50 528T41 561Q40 568 46 575T60 582Q70 582 77 570V572Q86 557 90 541T98
506L101 489L149 400Q167 366 187 329T229 255Q272 309 319 358T416 446T514 507T609 530Q628 530 644 518T662 481V477Q662 466 657 461T650 465Q649 476 640 485T620 496Q577 499 529 479T432 422T334 337T241 236Q279 174 319 120T399 33T478 -1Q492 -1 497
16T503 57Q503 80 499 106T491 156T482 190Q481 192 481 197Q481 203 485 203Q490 203 494 192Q504 169 513 127T522 46Q522 12 513 -11T477 -35Q453 -35 424 -16T364 36T302 105T245 179Q241 186 235 195T223 214Q164 141 118 70T49 -54Q30 -100 17 -100Z" />
<glyph unicode="Y" glyph-name="Y" horiz-adv-x="527" d="M137 -293Q86 -293 43 -274T-27 -215T-54 -112Q-54 -88 -47 -88Q-39 -88 -39 -120Q-39 -171 -10 -203T66 -252T160 -268Q189 -268 217 -263T268 -246Q336 -213 385 -138T446 48Q449 65 450 82T451 118Q451
159 448 199Q447 220 447 240T446 283Q446 286 445 286T444 284Q425 247 396 205T329 123T250 49T168 -4T89 -24Q56 -24 44 -3T32 43Q32 54 34 64T39 84Q51 119 70 157T112 233Q137 279 160 326T199 421T215 517Q215 573 183 598T98 623Q85 623 69 618T47 608Q41
603 35 603Q30 603 30 608Q30 612 36 618Q45 626 66 633T112 641Q159 641 197 616T250 539Q255 517 255 496Q255 454 239 409T199 317T147 225Q123 187 102 147T68 72Q64 60 62 49T59 30Q59 8 71 0T96 -9Q130 -9 172 15T258 79T341 164T407 251T445 322V328Q445
354 449 390T476 462Q480 468 487 473T500 479Q508 479 509 471Q510 468 510 461Q510 447 503 425T486 379T466 338Q466 320 468 290T473 233Q477 199 480 161T484 82Q484 45 480 11T465 -56Q438 -132 385 -184T274 -262Q206 -293 137 -293Z" />
<glyph unicode="Z" glyph-name="Z" horiz-adv-x="637" d="M33 -28Q20 -28 20 -12Q20 -9 22 -3Q38 55 76 112T165 224T275 329T391 422T500 501Q476 492 440 483T366 468T296 457T251 453H230Q221 453 212 453T191 452Q165 452 139 456T96 472T78 507Q78 531 89
547T118 575Q129 584 136 584Q141 584 144 580T146 573Q128 562 114 549T100 519Q100 507 116 500T157 489T211 485T262 484Q285 484 320 486T392 494T462 510T514 534Q523 540 530 540Q540 540 545 529T551 501Q551 488 523 470T465 432L413 400Q359 360 304 317T198
226T110 124T51 6Q81 24 132 44T245 81T363 110T462 121Q500 121 538 119T601 102T626 55Q626 43 622 25T601 6Q597 6 597 11Q597 19 603 23Q605 27 608 31T611 40Q611 55 594 64T551 77T499 84T452 86Q391 86 325 76T195 46T76 -5H77L72 -8Q65 -12 55 -20T33 -28Z"
/>
<glyph unicode="[" glyph-name="bracketleft" horiz-adv-x="377" d="M117 -11Q107 -11 87 -11T49 -6T31 12Q31 42 46 89T87 192T142 299T203 392T259 451Q269 458 281 460T305 463Q311 463 326 463T356 460T370 450L369 441H360Q349 441 339 442T318 443H307Q300
443 291 443T278 439Q257 425 228 389T169 303T114 203T72 109T56 39Q56 16 71 10T106 3Q117 3 129 4T152 6Q157 6 165 5T173 -2Q173 -7 161 -9T135 -11T117 -11Z" />
<glyph unicode="\" glyph-name="backslash" horiz-adv-x="355" d="M320 -75V-73Q320 -71 320 -69T321 -62Q321 -14 298 43T239 160T163 271Q92 364 6 458Q6 460 9 461T15 462Q24 462 32 458T46 449Q63 435 77 417T106 381Q128 353 157 312T218 223T277 124T321
27T338 -54Q338 -62 334 -68T320 -75Z" />
<glyph unicode="]" glyph-name="bracketright" horiz-adv-x="359" d="M44 -11Q38 -11 32 -11T21 -10Q32 0 39 2T55 5Q88 5 116 10T167 40Q191 69 218 116T268 219T307 326T322 415Q322 427 319 439Q314 443 307 443T294 444Q277 444 262 443T230 442Q248 459 270
460T317 462Q331 462 339 459T347 438Q347 390 333 332T293 215T237 104T173 17Q158 2 135 -3T88 -10T44 -11Z" />
<glyph unicode="^" glyph-name="asciicircum" horiz-adv-x="239" d="M214 209Q205 209 185 220T146 246T120 266Q117 263 107 255T83 236T60 219T46 212Q42 212 42 218Q42 221 53 232T81 257T111 281T129 291L133 289Q151 269 171 253T213 220L217 214L214 209Z" />
<glyph unicode="_" glyph-name="underscore" horiz-adv-x="833" d="M0 -71V-49H833V-71H0Z" />
<glyph unicode="`" glyph-name="grave" horiz-adv-x="170" d="M122 257Q103 270 83 281T50 303T36 322Q36 328 41 330Q44 332 49 332Q55 332 61 328T72 317Q88 299 104 285T125 266Q128 263 128 258T122 257Z" />
<glyph unicode="a" glyph-name="a" horiz-adv-x="273" d="M36 9Q23 9 17 20T9 45T8 67Q14 113 39 159T101 241T181 291Q189 294 195 295T208 296Q239 296 239 272Q239 260 231 248L223 235Q222 232 220 232Q218 232 217 235T218 241Q220 244 221 247T225 253Q230
263 230 268Q230 275 225 277T211 280Q207 280 203 280T194 278Q173 271 158 260T127 232Q109 213 88 183T52 121T33 66Q31 60 31 47Q31 38 33 29T43 19Q52 19 60 28T73 43Q90 67 111 103T144 171L146 182Q148 190 154 200T171 210Q180 210 180 200Q180 199 180
198T179 196Q175 173 173 151T171 105Q171 64 179 45T199 25Q211 25 225 38T253 67T274 93L296 123Q299 127 301 127Q303 127 303 124Q303 119 301 116Q291 99 278 81T247 42Q234 26 218 15T188 4Q175 4 164 16T146 57Q144 68 143 89T142 134Q136 119 125 98T100
57T69 23T36 9Z" />
<glyph unicode="b" glyph-name="b" horiz-adv-x="258" d="M142 -6Q130 -6 120 4T105 29T99 54Q99 58 100 61T106 65Q112 65 113 59Q117 50 120 39T124 26Q124 20 130 15T142 9Q155 9 168 29T192 79T211 134T222 171Q223 176 224 181T225 191Q225 202 216 202Q208
202 198 195T181 183Q149 158 125 122T83 49L70 20Q71 18 71 14Q71 2 60 2Q51 2 50 7Q48 9 48 10Q42 24 40 54T37 119Q37 156 39 191T46 247Q29 255 21 274T12 315T11 350Q11 352 12 353Q14 361 20 356Q23 355 23 349Q22 345 22 340T22 330Q22 311 27 291T49 261Q61
336 92 401T165 516T250 594T327 622Q342 622 351 618Q376 608 387 589T398 543Q398 499 372 444T305 342Q281 314 251 288T187 244T118 227Q94 227 69 238Q67 230 65 207T60 156T58 99Q58 83 59 70T62 45Q84 83 112 124T176 193Q187 201 203 211T233 221Q245 221
249 212T254 191Q254 175 244 143T218 76T182 18T142 -6ZM70 252Q91 242 116 242Q149 242 181 258T241 300T293 353Q332 401 357 454T383 547Q383 573 370 589T324 606Q291 606 257 584T192 524T135 440T92 345T70 252Z" />
<glyph unicode="c" glyph-name="c" horiz-adv-x="192" d="M54 -2Q36 8 29 27T22 67Q22 83 24 98T31 125Q36 140 42 154T55 182Q62 194 73 210T100 239T131 252Q140 252 148 248Q159 243 163 232T168 206Q168 190 164 175T157 148Q157 145 155 143Q153 139 150
137T142 136Q133 141 133 148Q133 154 136 160T140 170Q141 175 142 182T143 198Q143 209 140 218T128 227Q118 227 108 215T89 188T76 168Q70 157 61 138T46 96T39 52Q39 38 44 27T60 9Q68 4 80 4Q91 4 101 7T121 15Q130 19 137 23T152 31Q157 35 163 35Q167 35
167 32Q167 29 156 22Q137 9 117 1T79 -8Q66 -8 54 -2Z" />
<glyph unicode="d" glyph-name="d" horiz-adv-x="274" d="M339 -80Q326 -84 312 -84Q280 -84 256 -63T213 -9T184 57T168 114Q145 70 117 41Q97 19 82 13T55 9Q28 17 17 35Q7 52 7 78Q7 106 16 134T36 178Q74 241 143 265Q139 298 138 331T136 395Q136 434 138
470T146 537Q155 587 171 609T204 632Q224 632 241 604T261 529Q262 520 262 512T262 494Q262 451 255 409T240 322Q239 310 236 298T229 272Q235 272 240 271T252 269Q259 266 259 261Q259 258 256 256T246 255Q241 257 236 257T225 258Q216 227 205 196T180 135Q185
113 194 79T220 10T259 -47T316 -71Q328 -71 345 -66H347Q351 -66 351 -70Q351 -77 339 -80ZM159 268Q170 271 182 273T209 274Q223 326 229 378T236 478Q236 492 236 506T234 533Q231 570 222 589T201 609Q177 609 165 542Q159 509 157 468T154 382Q154 352 155
323T159 268ZM173 166Q183 189 190 212T205 258Q184 255 161 246Q163 226 166 206T173 166ZM56 18Q68 14 93 37Q108 50 131 84Q139 98 147 112T162 142Q158 166 153 190T145 241Q101 219 70 175Q64 165 55 145T38 102T30 59Q30 48 33 39Q38 22 56 18Z" />
<glyph unicode="e" glyph-name="e" horiz-adv-x="187" d="M65 -11Q46 -13 35 -3T23 28Q23 50 33 79T57 135T82 179Q81 180 79 185T76 195Q76 199 79 199Q82 199 90 194Q97 205 107 220T130 246T157 258Q172 258 176 243T181 218Q181 198 166 185T128 170Q119 170
110 172T98 177Q91 163 79 136T56 81T46 34Q46 23 52 15T72 8Q92 10 115 25T162 63T200 108Q202 111 204 111Q206 111 207 108T207 103Q193 81 169 55T117 10T65 -11ZM125 182Q139 184 145 194T149 218Q149 222 148 226T141 231Q132 230 121 213T104 187Q106 186
114 184T125 182Z" />
<glyph unicode="f" glyph-name="f" horiz-adv-x="220" d="M99 -185Q82 -144 75 -84T68 38Q68 75 70 109T75 171Q62 169 51 157T33 131Q31 126 27 126Q21 126 15 133T12 147Q20 163 38 179T81 210Q85 238 89 255T101 300Q115 346 135 386T182 454T239 483H240Q250
483 250 477Q250 471 239 469Q212 467 191 438T153 369T125 290Q121 276 118 264T109 226Q135 240 160 250T205 266Q207 267 210 267Q216 267 216 263Q216 259 207 256Q186 250 158 235T105 203Q104 199 103 194T102 186Q123 189 141 173T173 128T198 66T217 0Q229
-54 229 -101Q229 -142 220 -171Q201 -240 159 -240Q144 -240 129 -227T99 -185ZM106 -149Q116 -185 130 -202T158 -219Q175 -219 188 -199T207 -138Q209 -127 210 -112T211 -79Q211 -62 210 -43T204 -4Q198 28 188 60T165 120T135 162T101 175Q95 142 92 101T88
16Q88 -30 92 -73T106 -149Z" />
<glyph unicode="g" glyph-name="g" horiz-adv-x="229" d="M0 -298Q-43 -298 -62 -276T-81 -221Q-81 -202 -75 -181Q-60 -128 -23 -91T63 -32T161 -1Q168 37 172 69T179 120Q164 105 141 84T93 47T42 30Q40 30 37 30T32 31Q4 37 4 62Q4 84 24 115T75 178T140 229T203
250Q212 250 216 249Q227 247 238 238T246 215Q246 209 241 211Q238 211 238 217Q234 225 222 227L199 230Q176 230 150 214T99 172T58 119T37 70Q36 67 36 64T35 58Q35 52 39 47T53 41Q67 41 85 52T122 79T157 110T180 135Q182 145 184 160T194 187Q205 202 215
202Q230 202 225 182Q223 171 212 157T192 133Q192 113 188 78T179 2Q184 3 187 3T194 3Q207 3 207 0Q207 -7 177 -12Q172 -55 163 -104T136 -198T85 -270T0 -298ZM18 -281Q56 -277 81 -247T121 -174T146 -88T159 -15Q114 -23 71 -44T-6 -100T-55 -185Q-61 -203
-61 -220Q-61 -248 -43 -266T18 -281Z" />
<glyph unicode="h" glyph-name="h" horiz-adv-x="257" d="M51 -37Q46 -39 46 -34Q39 -12 36 12T33 64Q33 94 36 125T43 186Q51 237 61 288T84 389Q86 397 91 413T104 447T120 478T135 494Q136 495 138 495Q140 495 142 492T145 487Q146 484 146 478Q146 467 141
457Q133 438 126 420T111 382Q99 348 85 296T61 185T47 74Q58 109 77 143T117 200Q123 206 131 209Q134 210 138 210Q148 210 151 200Q154 192 160 170T176 122T195 79Q203 65 217 65Q229 65 240 73T258 92Q261 97 264 97Q267 97 267 93Q267 91 264 86Q256 75 244
63T222 49Q220 48 217 48T212 48Q202 48 194 52T178 67Q164 88 154 114T137 154Q127 174 119 174Q112 174 103 163Q81 135 67 92T48 12Q49 0 51 -10T56 -31Q56 -35 51 -37Z" />
<glyph unicode="i" glyph-name="i" horiz-adv-x="173" d="M88 271Q84 271 80 273T75 281Q75 292 88 298T111 305Q116 305 120 303T125 296Q125 285 111 278T88 271ZM148 46Q133 28 118 16T88 3Q75 3 65 15T48 57Q47 66 46 83T44 118Q44 137 45 154T48 182Q50 190
56 200T73 210Q82 210 82 200Q82 199 82 198T81 196Q77 173 75 151T73 105Q73 65 79 47T98 29Q107 29 119 37T146 60Q159 72 171 87T197 125Q199 130 203 130Q210 130 205 120Q195 104 180 85T148 46Z" />
<glyph unicode="j" glyph-name="j" horiz-adv-x="178" d="M81 234Q72 234 58 241T44 260Q44 269 57 269Q66 269 79 262T93 243Q93 234 81 234ZM-30 -201Q-47 -201 -58 -193T-69 -168Q-69 -146 -56 -121T-26 -78Q-11 -62 12 -45T55 -26H57Q65 -26 73 -29T81 -41Q81
-46 79 -46H78Q74 -46 73 -42T62 -37Q52 -37 37 -46T8 -68T-14 -90Q-28 -107 -42 -127T-57 -167Q-57 -192 -32 -192Q-10 -192 12 -178T50 -150Q79 -124 95 -94T112 -28Q112 3 102 30T79 82T58 129T52 173Q52 177 55 185T65 194Q67 194 67 192Q66 188 64 185T62
174Q62 158 74 136T101 86T129 27T141 -39Q141 -76 125 -106T78 -162Q56 -180 25 -190T-30 -201Z" />
<glyph unicode="k" glyph-name="k" horiz-adv-x="244" d="M10 -20Q6 -20 5 -9T4 6Q4 42 22 91T68 194T122 296T168 378Q164 375 154 370T140 365Q137 365 137 367Q137 371 141 372Q148 375 153 378T164 386Q186 403 204 424T245 461Q247 462 249 463T254 465Q259
465 260 462T261 455Q261 439 249 427Q217 394 181 345T112 238T55 125T21 25Q41 50 62 67T106 105Q104 114 101 125T95 144Q94 145 94 148Q94 152 99 152Q104 152 111 149Q117 147 125 140T133 124Q178 159 226 187Q221 186 208 182T181 174T163 170Q158 170 158
173Q158 177 163 177Q168 179 172 179T182 182Q196 187 215 193T249 200Q254 200 255 196T256 189Q256 183 254 177T247 166Q225 150 192 140T134 113Q135 104 137 85T144 46T157 12T179 -2Q199 -2 207 15Q207 18 209 18Q211 18 211 15Q211 4 200 -5T179 -14Q159
-14 144 6T121 53T109 93Q86 76 61 50T18 0Q17 -4 17 -12T10 -20Z" />
<glyph unicode="l" glyph-name="l" horiz-adv-x="224" d="M74 -26Q51 -26 37 -8T22 45Q22 96 39 157T85 280T151 394T230 480Q245 492 267 502T308 513Q325 513 336 502T348 461Q348 427 327 389T273 314T200 245T124 190T60 156Q58 146 52 118T46 61Q46 36 54
17T84 -3Q111 -5 138 10T190 51T236 105Q242 112 246 112Q250 112 245 104Q233 87 214 65T172 22T123 -12T74 -26ZM67 174Q111 189 156 222T240 297T301 382T324 460Q324 483 317 491T298 500Q285 500 269 491T243 472Q216 450 190 414T141 336T98 252T67 174Z"
/>
<glyph unicode="m" glyph-name="m" horiz-adv-x="329" d="M47 -10Q38 -10 33 -3T26 11Q26 19 28 22Q34 41 37 68T40 123Q40 140 39 155T36 183Q34 204 27 229T-2 268Q-4 268 -4 271T-3 274Q1 274 3 272Q26 259 40 230T62 167T69 101Q69 92 69 84T67 68Q79 95 94
126T126 183T157 221Q165 228 175 232T195 237Q209 237 214 228T220 205Q220 190 208 166T182 117T158 76T155 59Q171 59 189 74T224 110T255 147Q260 153 268 159T285 165Q293 165 293 157Q293 154 292 152T289 147Q280 124 275 100T269 53Q269 43 271 31T286
19Q302 19 310 31T322 44Q324 44 324 41Q324 33 315 25T294 12T276 6Q255 6 249 23T242 57Q242 74 246 92T255 126Q248 119 235 105T206 75T176 50T150 39Q147 39 142 43T136 52Q135 64 144 87T164 132T178 166Q179 169 182 179T185 199Q185 211 177 211Q164 211
150 195T122 155T97 104T77 55T65 22Q65 21 65 21T64 20L65 13Q62 6 61 1T51 -9Q50 -9 50 -9T47 -10Z" />
<glyph unicode="n" glyph-name="n" horiz-adv-x="210" d="M26 -1Q19 -1 14 4T9 18Q9 24 12 28Q20 46 26 72T35 125T38 171Q38 190 35 212T14 247Q11 247 11 251Q11 253 13 253Q16 253 18 251Q41 237 50 209T60 147Q60 123 56 99T46 52Q69 70 95 102T140 160Q146
168 154 175T173 183Q180 183 180 174Q180 173 180 171T178 165Q176 156 171 130T165 77Q165 55 171 39T193 23Q200 23 208 26T220 36Q221 36 221 37T223 38Q225 38 225 36Q225 26 211 21T189 16Q163 16 152 39T140 90Q140 99 141 108T144 125V127Q144 131 139
131Q134 131 128 125Q120 116 107 101T81 68T57 38T44 20Q42 16 38 8T26 -1Z" />
<glyph unicode="o" glyph-name="o" horiz-adv-x="270" d="M79 8Q56 8 37 17T17 53Q17 62 18 65Q5 78 5 99Q5 121 16 145T42 187Q67 216 105 238T183 261Q221 261 245 238T269 177Q269 144 252 114T206 59T144 22T79 8ZM79 20Q119 20 158 41T223 97T249 174Q249
206 233 226T184 246Q148 246 113 224T54 168T27 98Q38 124 71 163T165 233Q166 234 169 234Q174 234 177 227T180 213Q180 212 178 208T173 201Q170 199 162 193T147 182T137 176Q134 176 134 178Q134 182 137 187T142 193Q121 181 98 161T58 117T39 65Q42 63
50 60T59 54Q59 51 55 51Q51 51 47 52T39 54Q39 34 49 27T79 20Z" />
<glyph unicode="p" glyph-name="p" horiz-adv-x="259" d="M-38 -282Q-56 -282 -54 -243Q-51 -206 -38 -165T-9 -85T24 -16T49 29Q38 34 29 42T19 65Q19 76 27 79T43 82Q52 82 60 82T78 81Q82 88 86 94T94 109Q110 141 118 179T131 253Q132 257 133 262T140 268Q150
268 160 256T176 237Q179 241 187 254T205 280T216 295Q225 304 240 304Q242 304 245 303T248 298Q248 295 247 294Q243 288 238 282T228 270L189 216Q197 205 209 182T231 134T243 97Q247 98 258 102T271 106Q276 106 276 102Q276 101 269 97T254 90T244 87Q244
65 229 46T191 16T148 4Q131 4 106 10T64 23Q54 6 41 -23T14 -86T-12 -154T-32 -214T-40 -254Q-40 -266 -36 -270T-31 -276Q-31 -282 -38 -282ZM127 161Q137 177 146 192T167 223Q163 231 159 237T151 247Q146 224 140 203T127 161ZM98 80H112Q138 80 163 82T213
89Q211 116 201 146T178 201L98 80ZM135 15Q149 15 166 20T196 35T212 61Q213 66 213 70T213 79Q183 72 152 70T90 67L70 34Q85 26 101 21T135 15ZM56 42L69 66Q65 65 55 63T45 55Q45 51 49 48T56 42Z" />
<glyph unicode="q" glyph-name="q" horiz-adv-x="216" d="M243 -246Q228 -217 215 -170T193 -69T177 31T169 102Q157 84 138 57T95 8T46 -13Q10 -13 10 23Q10 48 26 84T68 156T123 215T180 239Q192 239 204 233T217 212Q217 206 213 206Q210 206 208 212Q207 216
203 217T195 218H184Q180 218 176 218T167 216Q145 211 123 190T82 138T53 78T42 27Q42 18 45 10T59 2Q72 2 88 16T120 50T150 90T169 120Q167 131 166 141T162 163Q160 171 158 178T156 193Q156 206 166 206Q173 206 185 202T203 192Q207 188 207 183Q207 170
198 152T182 123V120Q183 120 183 118Q191 84 197 38T212 -58T231 -151T259 -225Q270 -245 282 -254T306 -263Q323 -263 337 -248T357 -207Q360 -195 360 -183Q360 -142 333 -110T277 -56Q276 -55 270 -51T257 -44T248 -46Q244 -58 259 -108Q261 -113 259 -116T255
-115Q251 -104 243 -91T230 -63Q229 -60 229 -58T228 -52Q228 -43 233 -37T250 -30Q258 -30 268 -34T292 -48Q321 -69 345 -102T370 -181Q370 -195 367 -210Q360 -237 339 -261T293 -285Q280 -285 267 -276T243 -246ZM177 134Q182 141 187 151T193 170Q193 173
190 176Q187 179 180 185T167 192V187Q167 174 170 160T177 134Z" />
<glyph unicode="r" glyph-name="r" horiz-adv-x="191" d="M92 -41Q109 -41 125 -31T151 -10Q154 -6 156 -6Q158 -6 158 -9Q158 -14 154 -18Q141 -34 122 -44T83 -55Q66 -55 55 -44T43 -7Q43 25 58 56T96 117T137 174Q145 187 145 195Q145 209 127 218Q119 222
108 230T94 247Q81 211 60 167T3 80Q-1 74 -5 74Q-7 74 -7 77Q-7 81 -3 86Q8 99 23 123T52 177T76 235T86 284Q88 295 98 295Q106 295 106 286Q105 283 105 277Q105 268 109 259T121 245Q129 239 144 235T172 224T185 205Q185 199 176 185T155 153T131 122T114
101Q95 76 78 49T60 -8Q60 -25 69 -33T92 -41Z" />
<glyph unicode="s" glyph-name="s" horiz-adv-x="243" d="M76 -7Q72 -7 59 -6T43 -1Q43 -1 41 2L39 6Q39 8 45 8Q55 8 63 8T81 9Q90 9 103 12T126 23T136 42Q136 49 131 56T120 68Q100 81 78 96T41 131T26 179Q26 206 43 233T89 284T147 321T204 336Q221 336 240
327T260 297Q260 291 256 280T244 268Q241 268 241 271T240 276Q240 282 241 287T242 298Q242 316 224 316Q200 316 171 303T115 267T71 218T54 164Q54 143 71 126T110 93T150 63T167 34Q167 17 150 8T111 -4T76 -7Z" />
<glyph unicode="t" glyph-name="t" horiz-adv-x="140" d="M61 -34Q56 -34 50 -28Q36 -11 31 8T26 49Q26 59 27 68T29 86Q29 94 28 102T26 119Q25 136 24 154T21 190Q21 193 21 195T20 201Q20 228 37 234T75 244Q86 269 98 294T126 343Q133 356 150 356Q159 356
159 348Q159 343 157 339T151 329Q124 290 100 248Q110 250 118 250T138 253Q147 255 157 256T176 257Q178 257 189 256T200 251Q200 248 196 248T189 246Q164 243 140 239T90 229Q84 215 74 192T55 146T44 108V102Q44 68 48 38T71 -22Q71 -23 71 -23T72 -25Q72
-30 69 -32T61 -34ZM38 135Q43 157 51 178T67 222Q52 220 47 219T37 199Q35 196 35 190Q35 176 36 163T38 135Z" />
<glyph unicode="u" glyph-name="u" horiz-adv-x="226" d="M37 3Q33 2 30 2T25 1Q12 1 12 14Q12 22 17 34L49 105Q58 125 68 154T78 208Q78 212 77 217T71 222Q65 222 56 215T43 208Q40 208 40 210Q40 216 49 221T69 231T85 235Q99 235 105 226T112 204Q112 190
103 167T80 117T54 67T34 31Q31 25 31 22Q31 16 37 16Q43 16 48 20Q64 31 88 56T133 111T161 162Q164 172 177 172Q184 172 189 169T194 160Q194 158 192 152T187 142Q177 117 166 93T155 43Q155 33 157 31T163 28Q171 28 185 42T212 71T229 93Q234 100 238 100Q241
100 241 98Q241 94 234 86Q227 78 214 60T186 27T158 11Q142 11 134 21T125 47Q125 60 130 75T140 101Q128 89 110 68T72 27T37 3Z" />
<glyph unicode="v" glyph-name="v" horiz-adv-x="213" d="M85 -32Q79 -32 77 -26T74 -15Q74 -4 79 4Q77 22 72 40T61 75Q50 110 38 145T14 216Q11 222 11 228Q11 236 17 245T32 255Q39 255 44 244Q50 229 54 211T63 175Q71 141 78 108T91 40Q97 51 111 73T143
123T175 182T198 241Q200 247 205 250T214 254Q225 254 224 241Q213 198 188 160T137 89T100 30Q95 22 95 14T96 -6Q96 -11 95 -21T85 -32Z" />
<glyph unicode="w" glyph-name="w" horiz-adv-x="378" d="M28 -13Q17 -13 15 -4T12 14Q12 43 22 75T44 139T65 198Q69 213 76 233T83 268Q83 270 83 273T79 276Q72 276 67 268T55 260Q50 260 50 263Q55 273 65 283T88 294Q99 294 103 286T108 267Q108 258 105
247Q92 199 78 154T51 60Q46 42 46 30Q46 23 49 17T60 11Q65 11 70 13T81 18Q98 28 115 51T148 101T169 146L173 168Q174 172 175 175T182 178Q187 178 192 174T200 166Q203 162 209 144T221 107T232 79Q236 70 243 56T261 32T285 21Q303 21 313 38T327 78T331
113Q331 127 326 148T309 185T279 202Q271 202 265 199T257 196Q256 196 256 198Q256 204 264 209T284 218T300 221Q322 221 333 205T349 167T353 128V114Q353 94 344 69T319 24T277 5Q256 5 240 20T213 51Q204 66 193 88T179 129Q169 100 147 67T94 10T28 -13Z"
/>
<glyph unicode="x" glyph-name="x" horiz-adv-x="225" d="M-40 -142Q-43 -142 -44 -138T-45 -132Q-45 -111 -30 -79T6 -10T49 59T82 111Q79 118 71 136T55 175T40 214T33 238Q33 248 40 254T57 260Q69 260 73 248Q75 243 76 237T79 224Q88 194 94 164Q96 158 97
153T101 141Q106 148 120 168T151 212T184 252T207 269Q214 269 218 261T222 246Q222 238 216 232Q208 223 199 215T181 199Q162 181 145 161T112 120Q118 91 130 66T159 18Q164 13 171 4T187 -5Q196 -5 199 6T204 31T205 51Q205 70 202 86Q201 89 201 98Q201 99
201 102T204 106Q208 106 211 95T216 67T220 38T222 19Q222 5 217 -10T195 -26Q179 -26 163 -13T133 19T108 58T91 91Q72 61 46 23T-2 -55T-31 -129Q-32 -132 -33 -137T-40 -142Z" />
<glyph unicode="y" glyph-name="y" horiz-adv-x="215" d="M45 -170Q26 -170 11 -161T-4 -130Q-4 -106 14 -83T49 -47Q74 -26 108 -2T173 31Q172 54 167 75T154 118Q123 72 82 34Q72 26 54 13T22 0Q12 0 12 12Q12 21 17 34Q25 57 34 80T53 126Q60 144 69 166T78
208Q78 212 77 217T71 222Q65 222 56 215T43 208Q40 208 40 210Q40 216 49 221T69 231T85 235Q99 235 105 226T112 204Q112 187 100 159T72 102T44 51T32 24Q32 21 35 21Q41 21 55 30T73 43Q96 62 115 83T150 128Q148 133 143 142T138 157Q138 163 148 169T169
181T185 186Q192 186 192 180Q192 171 180 154T162 129Q173 106 181 83T194 34Q200 34 215 28T230 14Q230 10 227 10Q224 10 217 16T196 22Q197 14 197 6T198 -10Q198 -48 185 -78T142 -132Q122 -146 96 -158T45 -170ZM157 139Q162 147 166 156T176 173Q168 170
162 166T147 156Q151 152 153 148T157 139ZM47 -161Q68 -161 87 -148T120 -121Q173 -62 173 18Q155 12 128 -3T75 -39T31 -83T13 -129Q13 -144 23 -152T47 -161Z" />
<glyph unicode="z" glyph-name="z" horiz-adv-x="258" d="M31 22Q25 22 25 29Q25 32 26 33Q38 80 66 117T129 187T199 250Q185 247 172 245T144 243Q133 243 111 245T71 254T53 278Q53 289 58 296T72 310Q77 315 80 315Q84 315 84 310Q84 302 78 298T72 286Q72
278 84 275T110 270T131 269Q146 269 169 271T214 278T249 291Q253 295 258 295Q260 295 261 294H262Q270 294 273 285T277 270Q277 259 270 255Q257 247 244 240T217 224Q162 190 117 151T51 47Q70 59 96 70T150 89T198 97Q219 97 231 91T244 61Q244 55 243 44T231
33Q230 33 230 35Q230 38 232 41T235 49Q235 59 221 63T192 68T170 69Q144 69 115 59T62 38Q57 36 53 34T43 28Q40 26 38 24T31 22Z" />
<glyph unicode="{" glyph-name="braceleft" horiz-adv-x="238" d="M150 -86Q116 -86 90 -76T63 -25Q63 15 76 53T89 132Q89 168 68 181T14 194L17 199Q35 201 56 206T92 223Q111 239 119 263T130 315T139 370T156 419T195 454T269 468H271Q272 468 273 467L268
465Q225 465 204 450T173 408T160 351T146 289Q140 267 125 245T88 210T40 197Q69 194 89 176T109 128Q109 88 97 49T85 -28Q85 -38 86 -47T94 -64Q107 -79 123 -79T156 -83Q157 -84 157 -85Q157 -86 150 -86Z" />
<glyph unicode="|" glyph-name="bar" horiz-adv-x="161" d="M38 -75Q38 -72 41 -56T49 -20T58 19T63 44Q87 182 87 325Q87 347 87 368T83 411Q82 421 79 433T75 454Q75 462 87 462Q104 462 110 446T116 410T116 378Q116 363 114 328T106 247T95 150T82 56T69 -21T56
-63Q54 -65 49 -70T41 -75H38Z" />
<glyph unicode="}" glyph-name="braceright" horiz-adv-x="313" d="M18 -85Q16 -85 16 -83Q20 -80 34 -80T65 -77T94 -64Q113 -49 124 -22T143 37T162 98T193 146Q210 162 235 175T285 190Q259 191 236 205T213 248Q213 278 222 306T241 362T250 418Q250 442 240
449T216 457T185 462Q184 463 184 463T183 463Q183 464 185 465T188 466Q206 466 226 464T260 452T274 418Q274 388 264 359T244 301T233 242Q233 212 256 203T304 191L299 185Q257 184 233 169T197 130T177 77T162 20T140 -32T97 -70T20 -85H18Z" />
<glyph unicode="~" glyph-name="asciitilde" horiz-adv-x="211" d="M32 264Q28 260 26 260Q23 260 23 264Q23 275 31 285Q37 292 47 301T67 310Q87 310 107 299T155 287Q167 287 174 291T189 304Q192 307 195 307Q200 307 200 301Q200 297 195 292Q186 285 174
276T153 266Q126 266 105 276T63 287Q54 287 45 279T32 264Z" />
<glyph unicode="&#xa0;" glyph-name="uni00A0" horiz-adv-x="200" />
<glyph unicode="&#xa1;" glyph-name="exclamdown" horiz-adv-x="177" d="M125 210Q121 207 121 211Q121 215 123 222T126 239Q127 256 136 260T149 266Q156 266 160 258T165 244Q165 240 161 235T153 227Q149 223 141 219T125 210ZM30 -144Q21 -156 8 -156Q-4
-156 -4 -146Q-4 -144 -3 -142T0 -136Q11 -120 26 -92T57 -28T88 43T112 107T123 153Q123 158 128 158T133 152Q132 131 121 91T94 4T61 -83T30 -144Z" />
<glyph unicode="&#xa2;" glyph-name="cent" horiz-adv-x="182" d="M44 46Q44 44 39 44Q35 44 30 45T25 48Q26 64 30 83T41 126Q27 129 18 141T9 176Q9 181 9 186T11 198Q17 232 34 264T75 317T127 338H135Q149 364 163 387T189 427Q197 439 210 443T217 439Q206
423 188 396T150 334Q163 329 168 319T174 297Q174 286 170 275T158 255Q157 252 153 252Q149 252 146 257T146 266Q150 273 153 282T156 301Q156 320 145 325Q122 283 100 236T62 142Q65 141 69 141T77 140Q96 140 118 151T161 181T194 221Q201 231 203 231Q204
231 204 230Q204 227 198 218Q183 193 158 172T107 138T57 125Q51 104 48 84T44 46ZM50 151Q65 193 85 238T128 325Q101 320 81 296T49 243T38 192Q38 165 50 151Z" />
<glyph unicode="&#xa3;" glyph-name="sterling" horiz-adv-x="413" d="M71 27Q67 1 55 -10T31 -22Q17 -22 17 -9Q17 -1 24 10T50 34Q53 42 54 48T57 62Q61 85 70 109T89 155Q74 154 62 152Q59 151 54 158T51 166Q63 168 74 169T95 170Q110 202 130 242T178 321T238
383T313 408Q336 408 346 393T356 355Q356 335 349 313T327 274Q318 265 314 265Q310 265 309 269T310 278Q325 303 333 325T342 364Q342 393 317 393Q286 393 256 370T199 311T151 237T115 170Q133 169 146 167T167 163Q169 162 169 160T165 158Q153 158 139 158T109
156Q98 131 88 102T72 46Q116 73 167 85T270 97Q284 97 301 92T332 77T345 49Q345 34 342 34Q340 34 336 45Q328 65 311 70T273 76Q226 76 197 70T140 54T71 27Z" />
<glyph unicode="&#xa4;" glyph-name="currency" horiz-adv-x="770" d="M118 96Q115 93 109 88T98 83Q96 83 96 85Q96 90 104 102Q114 119 132 143T166 191Q171 198 174 207T182 222Q174 252 174 284Q174 307 178 332T191 384Q196 400 203 414T219 442Q216 448
213 455T206 468Q190 491 172 515T144 557Q136 569 136 574Q136 576 138 576Q141 576 148 571T158 563Q168 551 182 534T214 501T251 480Q282 509 320 523T397 538Q433 538 462 524T511 484Q537 495 558 520T593 563Q596 566 602 571T613 576Q615 576 615 574Q615
569 607 557Q597 540 580 516T545 468Q541 462 538 456T532 443Q539 422 539 396Q538 346 525 301T489 221Q493 215 496 207T505 191Q522 168 539 144T567 102Q575 90 575 85Q575 83 573 83Q570 83 563 88T553 96Q543 109 529 126T497 158T460 179Q457 179 456
180Q434 158 410 146Q354 118 309 118Q274 118 247 133T202 176Q176 165 154 139T118 96ZM391 160Q421 176 446 211T488 291T504 375Q504 443 471 479T390 515Q348 515 315 496T259 443T228 369Q219 330 219 294Q219 227 247 184T324 140Q355 140 391 160Z" />
<glyph unicode="&#xa5;" glyph-name="yen" horiz-adv-x="291" d="M116 7Q104 17 101 43T98 96Q86 95 75 95T51 92Q47 91 40 99T36 109Q53 111 69 111T99 113L102 145L54 142Q50 141 43 149T39 158Q57 160 73 161T104 162Q107 179 112 209T118 267Q118 290 111
306T87 322Q71 322 57 312T31 291T16 280Q12 280 12 281T14 285Q21 294 36 306T69 329T100 342Q124 347 133 328T142 281Q142 259 138 235T128 193Q142 216 165 250T216 317T275 374Q291 385 297 385Q300 385 300 383Q300 378 282 364Q239 330 208 289T159 212T133
160Q153 159 168 157T194 153Q198 152 197 150T192 147Q179 147 163 147T129 145Q127 137 126 129T124 110Q147 109 163 107T191 103Q195 102 194 100T188 97Q175 97 158 97T123 97Q122 86 123 71T129 43T138 28Q141 27 141 24Q141 17 132 10T116 7Z" />
<glyph unicode="&#xa6;" glyph-name="brokenbar" horiz-adv-x="250" d="M129 330Q135 420 135 503Q135 537 133 574T127 646T116 704V707Q116 713 122 714T135 715Q156 715 165 700T177 662T180 618V586Q180 558 176 490T163 339L129 330ZM58 -116Q71 -79 82 -24T104
98T121 235L154 248Q147 181 139 118T123 5T107 -70Q100 -93 88 -103T67 -116T58 -116Z" />
<glyph unicode="&#xa7;" glyph-name="section" horiz-adv-x="208" d="M17 -94Q7 -88 3 -80T-2 -67Q-2 -63 1 -63Q6 -63 14 -77Q24 -92 49 -92Q69 -92 87 -79T106 -34Q106 -16 99 -2T80 27Q75 31 72 35T67 43Q47 68 28 99T3 180Q2 185 2 189T2 198Q2 239 21 271T70
328Q76 385 114 424T202 484Q216 489 232 492T264 495Q278 495 290 492Q325 485 338 470T351 438Q351 425 345 416Q338 406 335 406Q334 406 334 408Q334 412 337 419Q340 428 340 435Q340 451 329 460T300 474T268 476Q227 470 191 446T130 384T98 296Q97 292
97 288T97 278Q97 245 112 218T147 168T182 123T198 79Q198 76 198 73T196 65Q188 40 166 28T121 15Q117 15 114 15T107 16Q118 3 124 -11T131 -39Q131 -43 131 -46T129 -53Q121 -79 99 -91T54 -103Q32 -103 17 -94ZM96 30Q104 27 115 27Q137 27 157 42T172 94Q170
115 157 133T127 171T94 217T73 280Q39 237 30 177Q29 173 29 169T29 161Q29 120 51 90T96 30Z" />
<glyph unicode="&#xa8;" glyph-name="dieresis" horiz-adv-x="190" d="M50 246H48Q44 246 40 252T35 264Q35 265 35 265T34 267Q34 273 39 277T46 282Q49 285 58 291T77 301T86 300Q86 297 79 294T67 267Q65 261 62 256T50 246ZM136 246H134Q130 246 126 252T121
264V265Q121 272 126 276T132 282Q135 285 144 290T163 300T172 301Q174 297 167 294T154 267Q152 261 149 256T136 246Z" />
<glyph unicode="&#xa9;" glyph-name="copyright" horiz-adv-x="515" d="M175 23Q139 23 107 38T54 81T33 149Q33 198 61 246T135 334T232 397T331 421Q368 421 399 406T449 361T468 293Q468 245 440 197T368 110T273 47T175 23ZM186 41Q228 41 272 63T354 121T415
200T438 287Q438 338 407 371T323 405Q278 405 232 383T148 323T86 240T62 149Q62 115 80 91T126 54T186 41ZM173 92Q149 92 128 104T106 144Q106 182 128 220T186 291T262 343T340 363Q355 363 367 355T380 330Q380 323 378 314T365 305L361 308Q362 313 363 318T365
328Q365 340 357 347T336 355Q305 355 270 334T203 280T153 210T133 142Q133 124 143 113T171 102Q196 102 223 112T276 137T316 161T333 172Q336 172 336 170Q336 155 316 141T267 116T212 99T173 92Z" />
<glyph unicode="&#xaa;" glyph-name="ordfeminine" horiz-adv-x="248" d="M53 336Q46 347 46 371Q46 403 59 448T94 538T143 614T198 652Q201 653 206 653Q226 653 240 636T255 596Q255 583 251 575T242 566Q238 566 235 572Q225 595 214 605T190 615Q170 615
151 593T119 541Q103 504 94 465T83 405Q82 398 82 392T81 380Q81 346 97 346Q117 346 148 390Q171 422 189 464T224 543Q231 553 243 553Q256 553 260 539Q262 533 262 526Q262 515 259 499T254 466Q253 459 253 450T252 430Q252 409 255 392T268 374Q279 374
296 402Q300 410 308 410Q317 410 317 401Q317 395 311 386Q292 359 263 359Q239 359 229 379Q212 412 212 438T211 475Q206 463 192 438T159 385T119 338T80 319Q64 319 53 336Z" />
<glyph unicode="&#xab;" glyph-name="guillemotleft" horiz-adv-x="271" d="M230 88L225 90Q209 113 189 129T147 161Q145 163 145 165Q145 170 155 185T178 220T204 255T222 278Q225 285 234 285Q238 285 238 282Q238 279 230 266T210 234T188 202T175 183Q178
178 188 166T209 139T228 113T237 96Q237 88 230 88ZM140 88L135 90Q118 113 99 129T57 161Q55 163 55 165Q55 170 65 185T88 220T114 255T131 278Q135 285 143 285Q148 285 148 282Q148 279 140 266T119 234T97 202T84 183Q88 179 98 167T119 139T139 112T147
96Q147 88 140 88Z" />
<glyph unicode="&#xac;" glyph-name="logicalnot" horiz-adv-x="432" d="M356 97V253H34V295H398V97H356Z" />
<glyph unicode="&#xad;" glyph-name="uni00AD" horiz-adv-x="298" d="M101 167Q98 167 92 173T83 185T82 192Q110 196 134 197T179 199Q216 199 242 196T285 187Q288 186 288 183Q288 178 282 178Q246 178 197 175T101 167Z" />
<glyph unicode="&#xae;" glyph-name="registered" horiz-adv-x="515" d="M175 23Q139 23 107 38T54 81T33 149Q33 198 61 246T135 334T232 397T331 421Q368 421 399 406T449 361T468 293Q468 245 440 197T368 110T273 47T175 23ZM329 99Q357 120 382 150T422 215T438
287Q438 338 407 371T323 405Q276 405 230 381T150 326Q179 337 216 345T286 354Q305 354 330 349T374 331T394 293Q394 271 378 255T338 229T288 215T245 210Q251 193 262 167T290 120T329 99ZM186 41Q221 41 253 54T314 87Q292 92 273 115T241 165T221 213Q220
213 216 213T211 215Q211 216 215 217T220 219L226 223L233 220Q248 222 271 227T318 241T358 264T374 298Q374 318 357 328T319 341T283 344Q264 344 234 337T174 320T126 300Q101 270 82 230T62 149Q62 115 80 91T126 54T186 41ZM121 61Q117 61 115 74T112 90Q112
106 124 132T156 189T198 250T239 303T271 339Q275 337 282 335T289 331Q289 329 273 309T234 259T186 193T144 126T124 70Q124 69 124 65T121 61Z" />
<glyph unicode="&#xaf;" glyph-name="overscore" horiz-adv-x="191" d="M45 318Q42 318 37 324T32 333Q32 334 33 334Q38 336 50 337T76 338T96 339Q102 339 116 338T144 336T164 331Q166 331 166 329Q166 326 162 326Q133 326 104 322T45 318Z" />
<glyph unicode="&#xb0;" glyph-name="degree" horiz-adv-x="162" d="M83 231Q59 231 42 248T24 289Q24 313 41 330T83 347Q107 347 124 330T141 289Q141 265 124 248T83 231ZM83 255Q97 255 107 265T117 289Q117 303 107 313T83 324Q69 324 59 314T48 289Q48 275
58 265T83 255Z" />
<glyph unicode="&#xb1;" glyph-name="plusminus" horiz-adv-x="438" d="M222 138Q218 139 218 157Q218 176 222 204T230 258T235 290Q200 289 165 287T95 285Q89 285 84 292T79 306L85 311Q108 314 131 314T177 315H238Q243 350 246 384T253 453Q255 459 263 465T278
471L282 466Q281 429 275 391T264 315Q270 315 293 315T343 313T391 311T417 308Q418 307 420 306T422 302L421 298L411 292Q374 292 336 292T260 291Q259 284 255 263T247 215T238 169T230 144Q226 138 222 138ZM115 65Q110 65 104 75T97 89Q98 89 98 89T99 90Q107
93 127 94T168 96T198 97Q207 97 229 96T273 93T301 85Q306 85 304 82Q304 77 297 77Q252 77 206 71T115 65Z" />
<glyph unicode="&#xb2;" glyph-name="uni00B2" horiz-adv-x="386" d="M31 116Q11 116 11 135Q11 150 22 157T47 166T72 168Q80 168 88 168T104 167Q140 193 172 224T235 289Q248 304 263 325T289 369T300 412Q300 429 290 437T264 445Q242 445 213 431T159 393T131
344V342Q131 334 136 334Q137 334 137 332Q137 331 135 328T128 325Q121 325 117 332T112 346Q112 367 129 387T173 423T226 448T274 458Q300 458 316 446T333 408Q333 377 310 342T252 272T182 208T124 162Q141 160 177 154T244 144Q252 143 266 141T296 139Q319
139 340 147T361 180Q361 200 344 209T315 220Q312 220 312 222Q312 225 315 225T319 226Q337 224 355 213T372 174Q369 141 344 130T289 119Q281 119 274 119T258 121Q221 124 180 134T104 148Q90 140 69 128T31 116ZM33 124Q45 124 59 133T83 150H64Q56 150 39
148T22 134Q22 127 25 126T33 124Z" />
<glyph unicode="&#xb3;" glyph-name="uni00B3" horiz-adv-x="356" d="M119 109Q68 109 41 128T14 176Q14 205 39 234Q41 236 44 235T46 229Q29 206 29 185Q29 156 58 140T129 123Q183 123 223 140T285 187T308 248Q308 280 287 295T233 310Q213 310 196 306Q180
302 171 299T148 294Q145 294 141 296T136 303Q136 308 144 313Q148 316 161 317T188 319T210 320Q240 330 266 349T305 399Q307 404 308 408T309 416Q309 441 287 449Q272 455 246 455Q223 455 197 449T150 432T121 401Q116 391 120 391V390Q120 388 116 385T106
382Q98 385 98 395Q98 401 101 407Q109 427 132 440T187 459T246 466Q263 466 277 464T302 457Q321 450 328 439T336 414Q336 386 315 366T266 333T222 318Q230 319 237 319T250 320Q294 320 316 301T339 251Q339 212 318 185T263 141T191 117T119 109Z" />
<glyph unicode="&#xb4;" glyph-name="acute" horiz-adv-x="98" d="M48 257Q44 255 44 255Q42 255 42 258Q42 263 45 266Q50 271 66 285T98 317Q103 323 109 327T121 332Q126 332 129 330Q134 328 134 322Q134 314 121 304T87 282T48 257Z" />
<glyph unicode="&#xb5;" glyph-name="uni00B5" horiz-adv-x="319" d="M-135 -287Q-141 -285 -141 -282Q-141 -277 -132 -279Q-126 -278 -121 -275T-112 -270Q-95 -258 -79 -230T-48 -168T-23 -103T-7 -53Q-2 -34 7 0T25 69Q26 84 34 116T51 187T68 262T75 322Q75
333 73 340T63 348Q56 348 49 341T38 327T33 324Q31 335 41 351T65 367Q71 367 75 364Q86 358 90 343T95 308Q95 277 88 238T73 165Q69 149 66 126T63 81Q63 62 66 50T80 37Q88 37 99 46T127 79Q150 111 169 153T204 232Q209 241 218 242H221Q227 242 232 238T240
228Q241 225 241 217Q241 198 236 170T230 115Q230 103 232 92T239 73Q242 68 248 68Q257 68 266 79T277 93Q283 100 288 100Q294 100 294 93Q294 86 287 75Q271 50 247 50Q227 50 216 68Q196 101 196 123T193 165Q185 140 167 111T127 57T84 19T47 9Q27 -78 -5
-151T-82 -264Q-90 -272 -101 -280T-126 -289Q-129 -289 -135 -287Z" />
<glyph unicode="&#xb6;" glyph-name="paragraph" horiz-adv-x="461" d="M9 -312Q5 -313 2 -313T-5 -314Q-23 -314 -23 -305Q-23 -296 -5 -292Q45 -278 79 -236T138 -133T178 0T208 149Q190 146 173 146Q111 146 78 187T45 288Q45 331 62 378T116 470T209 552T341
611Q354 615 370 620T401 636Q424 689 451 715T506 746Q514 747 517 742T521 731Q521 716 513 714Q489 710 466 679T422 579Q405 519 392 442T366 280T336 113T292 -39T227 -157T132 -222Q131 -222 129 -222T126 -223Q103 -256 74 -278T9 -312ZM139 -202Q186 -183
218 -135T271 -18T306 129T331 291T354 449T385 586Q379 585 373 583T361 579Q333 543 309 459Q293 405 281 338T256 197T228 52T191 -86T139 -202ZM213 187Q236 310 261 410T327 568Q243 544 189 500T108 403T82 302Q82 253 109 219T188 185Q194 185 200 185T213
187Z" />
<glyph unicode="&#xb7;" glyph-name="middot" horiz-adv-x="278" d="M149 326Q142 323 134 334T125 356Q125 366 133 373T143 381Q148 382 152 382T161 383Q178 383 178 369Q178 366 176 358Q174 349 169 341T149 326Z" />
<glyph unicode="&#xb8;" glyph-name="cedilla" horiz-adv-x="145" d="M16 -180Q10 -180 10 -174Q10 -169 16 -168Q31 -164 47 -164T74 -157T85 -124Q85 -114 77 -103T60 -79T51 -55Q51 -35 62 -17T96 1Q98 1 101 1T104 -3Q89 -6 82 -18T74 -44Q74 -53 83 -64T102
-88T112 -117Q112 -139 96 -153T57 -173T16 -180Z" />
<glyph unicode="&#xb9;" glyph-name="uni00B9" horiz-adv-x="223" d="M-5 125Q-9 124 -12 128T-16 137Q-16 146 -5 147Q12 151 35 152T85 152Q84 184 92 223T117 300T152 368T192 415Q149 384 108 368T37 347Q32 348 32 352Q32 355 38 358Q61 361 91 375T153 407T211
445T253 476Q258 479 262 479Q268 479 271 474T270 465Q222 430 185 381T127 279T106 178Q106 171 106 165T108 151Q139 150 164 149T211 145Q216 145 217 141T213 137Q199 138 169 137T112 134Q112 134 112 134T113 132Q113 129 109 126T99 122Q91 122 85 133L-5
125Z" />
<glyph unicode="&#xba;" glyph-name="ordmasculine" horiz-adv-x="272" d="M109 250Q84 260 70 281T49 330T43 383Q43 404 47 423T55 454Q54 461 54 468T53 484Q53 513 59 547T78 612T112 662T163 682Q189 682 214 661T258 598Q269 575 273 549T278 495Q278 458
271 422T249 353Q239 330 223 305T185 262T137 245Q130 245 124 246T109 250ZM205 314Q226 347 235 389T244 475Q244 507 240 537T228 595Q221 620 205 639T158 656Q134 654 116 633T89 583T79 535Q79 524 82 518Q85 526 97 544T124 578T152 594Q156 594 160 592Q163
591 163 585Q150 584 138 570T115 535T98 496T88 465Q87 461 85 455T83 443Q83 436 91 421T117 392T166 379Q184 379 211 387Q213 385 213 385Q213 382 207 378T199 373Q181 364 164 364Q139 364 117 379T77 415Q76 407 76 400T76 385Q76 327 96 297T142 267Q176
267 205 314Z" />
<glyph unicode="&#xbb;" glyph-name="guillemotright" horiz-adv-x="271" d="M160 83Q155 83 155 87Q155 90 163 103T184 134T206 166T219 186Q215 190 205 202T184 229T164 256T156 272Q156 281 163 281L168 278Q185 256 204 240T246 207Q248 205 248 203Q248
198 238 183T214 149T188 114T172 90Q168 83 160 83ZM59 83Q55 83 55 87Q55 90 63 103T83 134T105 166T118 186Q115 191 105 203T84 229T64 256T56 272Q56 281 63 281L68 278Q84 256 104 240T146 207Q148 205 148 203Q148 198 138 183T114 149T88 114T71 90Q67
83 59 83Z" />
<glyph unicode="&#xbc;" glyph-name="onequarter" horiz-adv-x="571" d="M13 164Q9 163 7 174T9 186Q26 188 43 191T78 197Q78 226 89 259T115 323T141 376Q147 389 152 402T165 428L168 434Q164 433 153 424T129 401Q127 399 119 391T104 374T93 365H91Q87 365
88 369T91 375L169 465Q174 470 184 482T205 496H207Q217 496 217 481Q217 476 214 471Q180 428 156 378T118 281T102 202V200Q119 203 136 204T170 207Q175 207 175 203T171 198Q139 196 103 186Q107 173 101 173H96Q86 173 81 181Q64 175 47 171T13 164ZM50 -93Q50
-94 50 -94T49 -94Q46 -94 41 -89T36 -81Q43 -48 70 -4T138 91T226 193T320 292T409 377T477 435Q485 442 495 444T512 447Q525 447 517 440Q490 419 448 383T356 302T256 205T163 101T89 -1T50 -93ZM290 -46Q288 -47 287 -43T285 -34Q285 -30 286 -27T289 -23Q304
-21 319 -17T350 -10Q357 26 376 74Q343 75 312 77T260 81Q254 78 236 70T204 62Q191 62 191 74Q192 82 204 87T223 94Q235 96 247 96T270 97Q314 122 354 162T429 246T492 324Q495 330 504 334T520 339Q528 339 525 332Q522 326 514 308T497 269T479 231Q478 228
475 226T469 221Q459 199 442 167T407 99Q419 101 430 101T450 101Q464 101 475 101T496 106Q522 117 533 129T544 153Q544 170 526 181T487 191Q483 190 485 192T491 196Q494 197 497 197T503 197Q529 197 543 185T557 154Q557 135 540 116T482 83Q466 79 443
77T395 74Q385 52 377 32T366 -6Q410 5 452 9H453Q457 9 457 5T451 1Q427 -1 399 -11T342 -31T290 -46ZM283 96Q300 95 327 95T385 97Q399 132 415 168T448 237Q410 196 367 158T283 96ZM221 75Q226 76 233 78T248 84Q232 88 221 86Q214 86 207 82T199 75Q199 72
204 72Q209 72 221 75Z" />
<glyph unicode="&#xbd;" glyph-name="onehalf" horiz-adv-x="588" d="M13 164Q9 163 7 174T9 186Q26 188 43 191T78 197Q78 226 89 259T115 323T141 376Q147 389 152 402T165 428L168 434Q164 433 153 424T129 401Q127 399 119 391T104 374T93 365H91Q87 365 88
369T91 375L169 465Q174 470 184 482T205 496H207Q217 496 217 481Q217 476 214 471Q180 428 156 378T118 281T102 202V200Q119 203 136 204T170 207Q175 207 175 203T171 198Q139 196 103 186Q107 173 101 173H96Q86 173 81 181Q64 175 47 171T13 164ZM50 -93Q50
-94 50 -94T49 -94Q46 -94 41 -89T36 -81Q43 -48 70 -4T138 91T226 193T320 292T409 377T477 435Q485 442 495 444T512 447Q525 447 517 440Q490 419 448 383T356 302T256 205T163 101T89 -1T50 -93ZM240 -65Q237 -66 231 -66Q224 -66 219 -63T213 -49Q213 -36
224 -29T244 -21Q258 -18 271 -18Q279 -18 285 -18T298 -20Q322 -1 344 19T389 59Q399 69 408 78T428 98Q441 114 456 135T481 180T489 224Q488 238 478 245T454 252Q449 252 441 250Q411 243 384 226T341 185T328 139Q328 137 330 130T331 121H330Q325 121 322
131T317 146Q315 166 327 185T361 219T403 245T441 259Q453 262 465 262Q486 262 502 251T519 213Q519 183 497 149T441 81T374 20T317 -24Q346 -25 378 -26T439 -28Q459 -28 476 -27T505 -21Q529 -13 539 -4T549 15Q549 32 528 44T485 57Q481 57 482 59T487 62Q519
63 537 48T556 12Q556 -7 539 -25T481 -52Q470 -54 459 -55T437 -56Q399 -56 365 -47T302 -34Q289 -43 272 -52T240 -65ZM261 -47Q266 -44 270 -40T279 -33Q271 -33 263 -33T246 -34Q235 -36 230 -41T225 -51Q225 -59 234 -59Q246 -59 261 -47Z" />
<glyph unicode="&#xbe;" glyph-name="threequarters" horiz-adv-x="625" d="M86 145Q70 142 46 142Q24 142 1 146T-37 163T-53 199Q-53 217 -41 230T-12 250T18 257Q34 257 34 252Q34 249 26 247Q8 245 -13 235T-33 203Q-30 172 -5 160T48 148Q77 148 113 158T183
187T239 230T261 284Q261 307 247 318T212 334T169 339Q157 339 146 338T125 336Q118 336 118 342V344Q118 351 127 355Q135 359 145 361T165 366Q180 372 201 382T240 405T266 434Q271 441 270 448Q269 459 253 464T213 469Q205 469 197 469T181 467Q144 462 118
447T93 411Q93 401 85 401Q81 401 78 404T74 418Q74 432 86 442T117 461T153 474T180 480Q185 481 192 481T206 482Q224 482 242 479T273 466T286 438Q286 417 270 401T232 375T191 358Q212 357 235 351T275 331T292 290Q292 258 270 233T215 189T147 160T86 145ZM114
-93Q114 -94 114 -94T113 -94Q110 -94 105 -89T100 -81Q107 -48 134 -4T202 91T290 193T384 292T473 377T541 435Q549 442 559 444T575 447Q588 447 580 440Q553 419 511 383T419 302T319 205T226 101T153 -1T114 -93ZM354 -46Q352 -47 350 -42T348 -32Q348 -23
352 -23Q367 -21 382 -17T414 -10Q420 24 439 74Q407 75 376 77T324 81Q317 78 300 70T268 62Q255 62 255 74Q255 82 268 87T287 94Q298 96 310 96T333 97Q378 122 418 162T493 246T556 324Q559 330 568 334T583 339Q592 339 588 332Q585 326 578 308T561 269T543
231Q542 228 539 226T533 221Q523 199 506 167T471 99Q483 101 494 101T514 101Q528 101 539 101T560 106Q586 117 596 129T607 153Q607 170 590 181T551 191Q547 190 548 192T554 196Q557 197 560 197T567 197Q593 197 607 185T621 155Q621 136 603 116T545 83Q529
79 507 77T459 74Q449 52 441 32T430 -6Q472 4 516 9Q520 10 520 6T515 1Q490 -1 462 -11T405 -31T354 -46ZM347 96Q364 95 391 95T448 97Q462 132 479 168T512 237Q474 196 431 158T347 96ZM285 75Q290 76 297 78T312 84Q296 88 285 86Q278 86 271 82T263 75Q263
72 268 72Q273 72 285 75Z" />
<glyph unicode="&#xbf;" glyph-name="questiondown" horiz-adv-x="362" d="M280 281Q279 283 278 285T277 289Q277 291 279 292T283 296Q291 304 293 314T300 334T315 347H318Q325 347 329 339T333 325Q333 317 322 308T298 293T280 286V281ZM126 -159Q97 -159
70 -148T27 -114T10 -61Q10 -22 35 9T91 59Q101 66 112 71T134 83Q155 94 176 106T217 132Q228 139 244 151T272 179T285 207Q285 218 279 222T273 230Q273 239 282 239H284Q300 226 300 208Q300 193 289 176T263 145T236 121Q217 106 197 93T157 66Q133 51 102
32T48 -13T25 -73Q25 -99 40 -116T79 -142T126 -150Q176 -150 218 -123T279 -50Q282 -43 284 -37T286 -23Q286 -12 279 -8T261 -3Q243 -3 222 -10T183 -26H182Q178 -26 178 -22Q178 -21 180 -17Q194 -5 222 3T267 13H273Q290 13 302 7T314 -18Q314 -26 312 -34T306
-50Q301 -63 293 -73T275 -94Q247 -123 208 -141T126 -159Z" />
<glyph unicode="&#xc0;" glyph-name="Agrave" horiz-adv-x="557" d="M34 -46Q-1 -46 -29 -31T-57 31Q-57 82 -24 118T62 179T175 216T291 235Q320 303 346 375T389 505Q391 511 395 513Q399 523 401 523Q403 523 404 514L406 511Q406 507 404 505V506Q404 512
404 514Q400 517 395 513Q389 497 380 462T360 385T338 302T316 237Q329 238 342 238T366 238Q374 238 387 238T417 235Q415 258 414 280T413 324Q413 374 418 422T431 506Q439 548 446 559H452Q457 559 466 554T476 544Q466 510 456 462T443 369Q442 353 441 335T440
299Q440 283 440 266T442 232Q474 226 500 213T527 171Q527 151 519 151Q512 151 512 171Q512 179 507 184T496 192Q488 197 475 201T445 209Q450 165 462 123T496 45Q508 24 521 14T545 -1Q545 -1 545 0T547 -5Q548 -6 548 -9Q548 -13 545 -15T536 -13H537Q485
11 458 74T420 213Q404 216 389 217T365 220Q352 220 338 220T309 218Q290 172 263 122T199 31T112 -32Q99 -37 78 -41T34 -46ZM33 -21Q53 -21 72 -17T106 -7Q149 11 181 46T237 126T283 217Q231 213 175 201T71 166T-6 111T-36 32Q-37 2 -16 -9T33 -21ZM468 589Q442
606 417 621T392 647Q392 651 396 654Q401 656 403 656Q408 656 413 652T424 642Q438 626 452 614T471 597Q473 595 473 590T468 589Z" />
<glyph unicode="&#xc1;" glyph-name="Aacute" horiz-adv-x="557" d="M34 -46Q-1 -46 -29 -31T-57 31Q-57 82 -24 118T62 179T175 216T291 235Q320 303 346 375T389 505Q391 511 395 513Q399 523 401 523Q403 523 404 514L406 511Q406 507 404 505V506Q404 512
404 514Q400 517 395 513Q389 497 380 462T360 385T338 302T316 237Q329 238 342 238T366 238Q374 238 387 238T417 235Q415 258 414 280T413 324Q413 374 418 422T431 506Q439 548 446 559H452Q457 559 466 554T476 544Q466 510 456 462T443 369Q442 353 441 335T440
299Q440 283 440 266T442 232Q474 226 500 213T527 171Q527 151 519 151Q512 151 512 171Q512 179 507 184T496 192Q488 197 475 201T445 209Q450 165 462 123T496 45Q508 24 521 14T545 -1Q545 -1 545 0T547 -5Q548 -6 548 -9Q548 -13 545 -15T536 -13H537Q485
11 458 74T420 213Q404 216 389 217T365 220Q352 220 338 220T309 218Q290 172 263 122T199 31T112 -32Q99 -37 78 -41T34 -46ZM33 -21Q53 -21 72 -17T106 -7Q149 11 181 46T237 126T283 217Q231 213 175 201T71 166T-6 111T-36 32Q-37 2 -16 -9T33 -21ZM411 591Q407
589 407 589Q405 589 405 593T408 599Q413 604 427 616T456 645Q463 653 470 657T484 657Q489 654 489 650Q489 643 477 634T446 614T411 591Z" />
<glyph unicode="&#xc2;" glyph-name="Acircumflex" horiz-adv-x="557" d="M34 -46Q-1 -46 -29 -31T-57 31Q-57 82 -24 118T62 179T175 216T291 235Q320 303 346 375T389 505Q391 511 395 513Q399 523 401 523Q403 523 404 514L406 511Q406 507 404 505V506Q404
512 404 514Q400 517 395 513Q389 497 380 462T360 385T338 302T316 237Q329 238 342 238T366 238Q374 238 387 238T417 235Q415 258 414 280T413 324Q413 374 418 422T431 506Q439 548 446 559H452Q457 559 466 554T476 544Q466 510 456 462T443 369Q442 353 441
335T440 299Q440 283 440 266T442 232Q474 226 500 213T527 171Q527 151 519 151Q512 151 512 171Q512 179 507 184T496 192Q488 197 475 201T445 209Q450 165 462 123T496 45Q508 24 521 14T545 -1Q545 -1 545 0T547 -5Q548 -6 548 -9Q548 -13 545 -15T536 -13H537Q485
11 458 74T420 213Q404 216 389 217T365 220Q352 220 338 220T309 218Q290 172 263 122T199 31T112 -32Q99 -37 78 -41T34 -46ZM33 -21Q53 -21 72 -17T106 -7Q149 11 181 46T237 126T283 217Q231 213 175 201T71 166T-6 111T-36 32Q-37 2 -16 -9T33 -21ZM504 586Q501
586 492 593T472 611T451 629T440 641Q434 636 420 627T390 609T365 594Q363 593 362 593T360 592Q358 592 358 594Q358 599 366 605Q375 613 390 626T420 650T442 662Q448 662 459 652T481 629T500 604T508 591Q508 586 504 586Z" />
<glyph unicode="&#xc3;" glyph-name="Atilde" horiz-adv-x="557" d="M34 -46Q-1 -46 -29 -31T-57 31Q-57 82 -24 118T62 179T175 216T291 235Q320 303 346 375T389 505Q391 511 395 513Q399 523 401 523Q403 523 404 514L406 511Q406 507 404 505V506Q404 512
404 514Q400 517 395 513Q389 497 380 462T360 385T338 302T316 237Q329 238 342 238T366 238Q374 238 387 238T417 235Q415 258 414 280T413 324Q413 374 418 422T431 506Q439 548 446 559H452Q457 559 466 554T476 544Q466 510 456 462T443 369Q442 353 441 335T440
299Q440 283 440 266T442 232Q474 226 500 213T527 171Q527 151 519 151Q512 151 512 171Q512 179 507 184T496 192Q488 197 475 201T445 209Q450 165 462 123T496 45Q508 24 521 14T545 -1Q545 -1 545 0T547 -5Q548 -6 548 -9Q548 -13 545 -15T536 -13H537Q485
11 458 74T420 213Q404 216 389 217T365 220Q352 220 338 220T309 218Q290 172 263 122T199 31T112 -32Q99 -37 78 -41T34 -46ZM33 -21Q53 -21 72 -17T106 -7Q149 11 181 46T237 126T283 217Q231 213 175 201T71 166T-6 111T-36 32Q-37 2 -16 -9T33 -21ZM377 594Q374
591 372 591Q370 591 370 595Q370 604 376 612Q381 618 388 626T402 634Q416 634 430 624T464 614Q473 614 478 617T489 628Q491 631 493 631Q496 631 496 626Q496 623 493 618Q486 612 478 604T463 596Q444 596 429 605T399 614Q392 614 386 607T377 594Z" />
<glyph unicode="&#xc4;" glyph-name="Adieresis" horiz-adv-x="557" d="M34 -46Q-1 -46 -29 -31T-57 31Q-57 82 -24 118T62 179T175 216T291 235Q320 303 346 375T389 505Q391 511 395 513Q399 523 401 523Q403 523 404 514L406 511Q406 507 404 505V506Q404 512
404 514Q400 517 395 513Q389 497 380 462T360 385T338 302T316 237Q329 238 342 238T366 238Q374 238 387 238T417 235Q415 258 414 280T413 324Q413 374 418 422T431 506Q439 548 446 559H452Q457 559 466 554T476 544Q466 510 456 462T443 369Q442 353 441 335T440
299Q440 283 440 266T442 232Q474 226 500 213T527 171Q527 151 519 151Q512 151 512 171Q512 179 507 184T496 192Q488 197 475 201T445 209Q450 165 462 123T496 45Q508 24 521 14T545 -1Q545 -1 545 0T547 -5Q548 -6 548 -9Q548 -13 545 -15T536 -13H537Q485
11 458 74T420 213Q404 216 389 217T365 220Q352 220 338 220T309 218Q290 172 263 122T199 31T112 -32Q99 -37 78 -41T34 -46ZM33 -21Q53 -21 72 -17T106 -7Q149 11 181 46T237 126T283 217Q231 213 175 201T71 166T-6 111T-36 32Q-37 2 -16 -9T33 -21ZM390 594H388Q384
594 380 600T375 612Q375 613 375 613T374 615Q374 621 379 625T386 630Q389 633 398 639T417 649T426 648Q426 645 419 642T407 615Q405 609 402 604T390 594ZM476 594H474Q470 594 466 600T461 612V613Q461 620 466 624T472 630Q475 633 484 638T503 648T512
649Q514 645 507 642T494 615Q492 609 489 604T476 594Z" />
<glyph unicode="&#xc5;" glyph-name="Aring" horiz-adv-x="557" d="M34 -46Q-1 -46 -29 -31T-57 31Q-57 82 -24 118T62 179T175 216T291 235Q320 303 346 375T389 505Q391 511 395 513Q399 523 401 523Q403 523 404 514L406 511Q406 507 404 505V506Q404 512 404
514Q400 517 395 513Q389 497 380 462T360 385T338 302T316 237Q329 238 342 238T366 238Q374 238 387 238T417 235Q415 258 414 280T413 324Q413 374 418 422T431 506Q439 548 446 559H452Q457 559 466 554T476 544Q466 510 456 462T443 369Q442 353 441 335T440
299Q440 283 440 266T442 232Q474 226 500 213T527 171Q527 151 519 151Q512 151 512 171Q512 179 507 184T496 192Q488 197 475 201T445 209Q450 165 462 123T496 45Q508 24 521 14T545 -1Q545 -1 545 0T547 -5Q548 -6 548 -9Q548 -13 545 -15T536 -13H537Q485
11 458 74T420 213Q404 216 389 217T365 220Q352 220 338 220T309 218Q290 172 263 122T199 31T112 -32Q99 -37 78 -41T34 -46ZM33 -21Q53 -21 72 -17T106 -7Q149 11 181 46T237 126T283 217Q231 213 175 201T71 166T-6 111T-36 32Q-37 2 -16 -9T33 -21ZM435 591Q424
591 417 597T409 616Q409 628 415 644T434 665Q439 673 447 679T467 686Q481 686 488 676T495 652Q495 630 477 611T435 591ZM442 604Q459 604 469 620T479 651Q479 658 476 666T465 674Q460 674 456 671T446 665L453 662Q448 649 441 641T433 616Q433 604 442
604Z" />
<glyph unicode="&#xc6;" glyph-name="AE" horiz-adv-x="884" d="M640 -33Q559 -30 512 -2T444 80T420 210Q398 207 376 204T332 197Q332 196 332 196T331 194Q314 153 291 109T235 28T158 -28Q147 -32 129 -36T91 -40Q62 -40 37 -27T12 26Q12 70 52 105T161 166T318
210Q344 269 365 329T401 439Q403 445 408 447T414 444Q414 442 412 440Q399 388 381 330T340 214Q359 218 379 221T419 227Q418 279 423 334T438 440Q444 476 451 485H455Q459 485 468 482T475 473Q447 370 441 255Q467 313 518 357T634 426T765 451Q802 451 838
442Q848 439 853 435L857 441Q862 447 871 447Q876 447 880 445T882 439Q874 418 861 399T837 359T827 314Q827 313 825 314T822 316Q821 345 827 371T847 423L825 431Q791 443 754 443Q694 443 634 415T528 339T461 232Q513 237 566 240T672 243Q683 243 706 241T755
234T798 216T816 183Q816 173 809 173Q802 173 802 182Q802 196 785 204T744 217T699 222T671 224Q616 224 562 222T456 214Q454 204 453 194T451 172Q451 123 475 78T544 6T650 -16Q706 -11 767 5T868 55Q873 59 877 59Q883 59 883 53Q883 49 879 46Q849 22 808
4T724 -24T640 -33ZM153 -8Q192 8 220 39T270 111T310 192V193Q228 177 165 154T65 99T29 27Q29 0 48 -10T91 -20Q108 -20 124 -17T153 -8Z" />
<glyph unicode="&#xc7;" glyph-name="Ccedilla" horiz-adv-x="596" d="M176 -230Q170 -230 170 -223Q170 -218 176 -217Q192 -212 209 -212T239 -204T252 -169Q252 -158 243 -146T225 -120T215 -94Q215 -74 224 -57T254 -34Q213 -28 173 -11T104 40T62 125Q55
153 55 184Q55 255 89 316T181 423T309 494T451 520Q471 520 489 517T526 509Q534 508 544 503L547 508L549 511Q552 517 562 517Q569 517 574 514T578 505Q572 490 565 478T551 454Q538 432 526 409T515 361Q515 360 512 361T507 363Q508 395 515 427T536 487L524
493Q523 493 523 493T521 494Q485 507 442 507Q379 507 317 481T204 410T122 306T91 184Q91 171 92 158T97 130Q106 90 130 62T187 17T255 -8T321 -16Q363 -16 408 -7T496 21T569 66Q574 70 579 70Q588 70 588 61Q588 56 584 53Q549 25 503 5T406 -26T309 -38Q300
-38 292 -38T274 -36Q258 -39 249 -53T240 -82Q240 -92 250 -104T271 -130T282 -161Q282 -185 264 -200T221 -223T176 -230Z" />
<glyph unicode="&#xc8;" glyph-name="Egrave" horiz-adv-x="591" d="M309 -38Q261 -38 210 -24T118 25T62 125Q55 153 55 184Q55 190 55 195T56 207Q38 192 23 177Q21 175 17 175Q5 175 5 190Q5 197 9 202Q19 215 33 226T63 247Q78 306 116 356T208 442T325 499T451
520Q471 520 491 519T529 511L531 510V510Q531 510 531 510Q531 510 530 511Q530 511 530 511V511L531 510V510V510L533 509H534V509H535Q535 509 534 509Q534 509 534 509Q534 509 533 509Q546 504 552 500L557 508V507Q559 512 564 513T574 515Q580 515 585 513T588
505Q582 490 575 478T560 454Q547 432 535 409T524 361Q524 360 521 361T516 363Q517 393 523 424T543 483Q539 485 534 488T524 493Q523 493 523 493T521 494Q485 507 442 507Q390 507 338 489T239 438T158 362T106 268Q149 286 196 296T284 310T351 315Q363 315
390 314T448 307T499 288T520 251Q520 230 512 230Q505 230 505 251Q505 258 500 263T489 273Q476 282 448 287T390 294T346 297Q291 297 223 281T96 233Q93 221 92 209T91 184Q91 171 92 158T97 130Q106 90 130 62T187 17T255 -8T321 -16Q363 -16 408 -7T496 21T569
66Q574 70 579 70Q588 70 588 61Q588 56 584 53Q549 25 503 5T406 -26T309 -38ZM531 510Q532 510 532 510H531ZM532 510Q532 510 533 509L532 510ZM533 509Q533 509 533 509V509ZM466 549Q440 566 415 581T390 607Q390 611 394 614Q399 616 401 616Q406 616 411
612T422 602Q436 586 450 574T469 557Q471 555 471 550T466 549Z" />
<glyph unicode="&#xc9;" glyph-name="Eacute" horiz-adv-x="591" d="M309 -38Q261 -38 210 -24T118 25T62 125Q55 153 55 184Q55 190 55 195T56 207Q38 192 23 177Q21 175 17 175Q5 175 5 190Q5 197 9 202Q19 215 33 226T63 247Q78 306 116 356T208 442T325 499T451
520Q471 520 491 519T529 511L531 510V510Q531 510 531 510Q531 510 530 511Q530 511 530 511V511L531 510V510V510L533 509H534V509H535Q535 509 534 509Q534 509 534 509Q534 509 533 509Q546 504 552 500L557 508V507Q559 512 564 513T574 515Q580 515 585 513T588
505Q582 490 575 478T560 454Q547 432 535 409T524 361Q524 360 521 361T516 363Q517 393 523 424T543 483Q539 485 534 488T524 493Q523 493 523 493T521 494Q485 507 442 507Q390 507 338 489T239 438T158 362T106 268Q149 286 196 296T284 310T351 315Q363 315
390 314T448 307T499 288T520 251Q520 230 512 230Q505 230 505 251Q505 258 500 263T489 273Q476 282 448 287T390 294T346 297Q291 297 223 281T96 233Q93 221 92 209T91 184Q91 171 92 158T97 130Q106 90 130 62T187 17T255 -8T321 -16Q363 -16 408 -7T496 21T569
66Q574 70 579 70Q588 70 588 61Q588 56 584 53Q549 25 503 5T406 -26T309 -38ZM531 510Q532 510 532 510H531ZM532 510Q532 510 533 509L532 510ZM533 509Q533 509 533 509V509ZM409 551Q405 549 405 549Q403 549 403 553T406 559Q411 564 425 576T454 605Q461
613 468 617T482 617Q487 614 487 610Q487 603 475 594T444 574T409 551Z" />
<glyph unicode="&#xca;" glyph-name="Ecircumflex" horiz-adv-x="591" d="M309 -38Q261 -38 210 -24T118 25T62 125Q55 153 55 184Q55 190 55 195T56 207Q38 192 23 177Q21 175 17 175Q5 175 5 190Q5 197 9 202Q19 215 33 226T63 247Q78 306 116 356T208 442T325
499T451 520Q471 520 491 519T529 511L531 510V510Q531 510 531 510Q531 510 530 511Q530 511 530 511V511L531 510V510V510L533 509H534V509H535Q535 509 534 509Q534 509 534 509Q534 509 533 509Q546 504 552 500L557 508V507Q559 512 564 513T574 515Q580 515
585 513T588 505Q582 490 575 478T560 454Q547 432 535 409T524 361Q524 360 521 361T516 363Q517 393 523 424T543 483Q539 485 534 488T524 493Q523 493 523 493T521 494Q485 507 442 507Q390 507 338 489T239 438T158 362T106 268Q149 286 196 296T284 310T351
315Q363 315 390 314T448 307T499 288T520 251Q520 230 512 230Q505 230 505 251Q505 258 500 263T489 273Q476 282 448 287T390 294T346 297Q291 297 223 281T96 233Q93 221 92 209T91 184Q91 171 92 158T97 130Q106 90 130 62T187 17T255 -8T321 -16Q363 -16
408 -7T496 21T569 66Q574 70 579 70Q588 70 588 61Q588 56 584 53Q549 25 503 5T406 -26T309 -38ZM531 510Q532 510 532 510H531ZM532 510Q532 510 533 509L532 510ZM533 509Q533 509 533 509V509ZM502 546Q499 546 490 553T470 571T449 589T438 601Q432 596 418
587T388 569T363 554Q361 553 360 553T358 552Q356 552 356 554Q356 559 364 565Q373 573 388 586T418 610T440 622Q446 622 457 612T479 589T498 564T506 551Q506 546 502 546Z" />
<glyph unicode="&#xcb;" glyph-name="Edieresis" horiz-adv-x="591" d="M309 -38Q261 -38 210 -24T118 25T62 125Q55 153 55 184Q55 190 55 195T56 207Q38 192 23 177Q21 175 17 175Q5 175 5 190Q5 197 9 202Q19 215 33 226T63 247Q78 306 116 356T208 442T325
499T451 520Q471 520 491 519T529 511L531 510V510Q531 510 531 510Q531 510 530 511Q530 511 530 511V511L531 510V510V510L533 509H534V509H535Q535 509 534 509Q534 509 534 509Q534 509 533 509Q546 504 552 500L557 508V507Q559 512 564 513T574 515Q580 515
585 513T588 505Q582 490 575 478T560 454Q547 432 535 409T524 361Q524 360 521 361T516 363Q517 393 523 424T543 483Q539 485 534 488T524 493Q523 493 523 493T521 494Q485 507 442 507Q390 507 338 489T239 438T158 362T106 268Q149 286 196 296T284 310T351
315Q363 315 390 314T448 307T499 288T520 251Q520 230 512 230Q505 230 505 251Q505 258 500 263T489 273Q476 282 448 287T390 294T346 297Q291 297 223 281T96 233Q93 221 92 209T91 184Q91 171 92 158T97 130Q106 90 130 62T187 17T255 -8T321 -16Q363 -16
408 -7T496 21T569 66Q574 70 579 70Q588 70 588 61Q588 56 584 53Q549 25 503 5T406 -26T309 -38ZM531 510Q532 510 532 510H531ZM532 510Q532 510 533 509L532 510ZM533 509Q533 509 533 509V509ZM388 554H386Q382 554 378 560T373 572Q373 573 373 573T372 575Q372
581 377 585T384 590Q387 593 396 599T415 609T424 608Q424 605 417 602T405 575Q403 569 400 564T388 554ZM474 554H472Q468 554 464 560T459 572V573Q459 580 464 584T470 590Q473 593 482 598T501 608T510 609Q512 605 505 602T492 575Q490 569 487 564T474
554Z" />
<glyph unicode="&#xcc;" glyph-name="Igrave" horiz-adv-x="340" d="M217 -91Q188 -91 168 -71T141 -35L139 -26Q138 -23 138 -19T135 -10L11 -45Q0 -43 0 -30Q0 -25 3 -21T13 -14Q34 -5 66 3T130 17Q129 23 129 29T129 42Q129 94 146 154T194 277T267 395T360
493Q328 507 297 512T233 517Q189 517 150 505T85 470Q81 466 74 457T66 438Q66 427 76 420Q78 418 78 415Q78 413 76 412T69 413Q60 421 56 430T52 448Q52 461 57 471T67 486Q90 512 131 525T224 538Q302 538 374 505Q387 513 403 523T436 544Q441 547 449 547Q455
547 460 546T465 541Q465 538 458 534L437 521H438Q430 515 419 508T399 492Q410 486 419 480T436 467Q441 462 441 454Q441 447 431 453Q407 473 386 483Q318 425 268 350T189 196T161 49Q161 42 161 36T162 22Q202 28 239 32T306 38Q312 40 312 31Q312 24 307
24Q273 21 238 14T167 -2Q167 -6 168 -11T171 -21Q175 -29 182 -42T200 -65T227 -75Q238 -75 250 -69H248Q253 -66 257 -66Q263 -66 263 -71Q263 -76 253 -82Q243 -87 235 -89T217 -91ZM501 580Q475 597 450 612T425 638Q425 642 429 645Q434 647 436 647Q441 647
446 643T457 633Q471 617 485 605T504 588Q506 586 506 581T501 580Z" />
<glyph unicode="&#xcd;" glyph-name="Iacute" horiz-adv-x="340" d="M217 -91Q188 -91 168 -71T141 -35L139 -26Q138 -23 138 -19T135 -10L11 -45Q0 -43 0 -30Q0 -25 3 -21T13 -14Q34 -5 66 3T130 17Q129 23 129 29T129 42Q129 94 146 154T194 277T267 395T360
493Q328 507 297 512T233 517Q189 517 150 505T85 470Q81 466 74 457T66 438Q66 427 76 420Q78 418 78 415Q78 413 76 412T69 413Q60 421 56 430T52 448Q52 461 57 471T67 486Q90 512 131 525T224 538Q302 538 374 505Q387 513 403 523T436 544Q441 547 449 547Q455
547 460 546T465 541Q465 538 458 534L437 521H438Q430 515 419 508T399 492Q410 486 419 480T436 467Q441 462 441 454Q441 447 431 453Q407 473 386 483Q318 425 268 350T189 196T161 49Q161 42 161 36T162 22Q202 28 239 32T306 38Q312 40 312 31Q312 24 307
24Q273 21 238 14T167 -2Q167 -6 168 -11T171 -21Q175 -29 182 -42T200 -65T227 -75Q238 -75 250 -69H248Q253 -66 257 -66Q263 -66 263 -71Q263 -76 253 -82Q243 -87 235 -89T217 -91ZM444 582Q440 580 440 580Q438 580 438 584T441 590Q446 595 460 607T489 636Q496
644 503 648T517 648Q522 645 522 641Q522 634 510 625T479 605T444 582Z" />
<glyph unicode="&#xce;" glyph-name="Icircumflex" horiz-adv-x="340" d="M217 -91Q188 -91 168 -71T141 -35L139 -26Q138 -23 138 -19T135 -10L11 -45Q0 -43 0 -30Q0 -25 3 -21T13 -14Q34 -5 66 3T130 17Q129 23 129 29T129 42Q129 94 146 154T194 277T267 395T360
493Q328 507 297 512T233 517Q189 517 150 505T85 470Q81 466 74 457T66 438Q66 427 76 420Q78 418 78 415Q78 413 76 412T69 413Q60 421 56 430T52 448Q52 461 57 471T67 486Q90 512 131 525T224 538Q302 538 374 505Q387 513 403 523T436 544Q441 547 449 547Q455
547 460 546T465 541Q465 538 458 534L437 521H438Q430 515 419 508T399 492Q410 486 419 480T436 467Q441 462 441 454Q441 447 431 453Q407 473 386 483Q318 425 268 350T189 196T161 49Q161 42 161 36T162 22Q202 28 239 32T306 38Q312 40 312 31Q312 24 307
24Q273 21 238 14T167 -2Q167 -6 168 -11T171 -21Q175 -29 182 -42T200 -65T227 -75Q238 -75 250 -69H248Q253 -66 257 -66Q263 -66 263 -71Q263 -76 253 -82Q243 -87 235 -89T217 -91ZM537 577Q534 577 525 584T505 602T484 620T473 632Q467 627 453 618T423 600T398
585Q396 584 395 584T393 583Q391 583 391 585Q391 590 399 596Q408 604 423 617T453 641T475 653Q481 653 492 643T514 620T533 595T541 582Q541 577 537 577Z" />
<glyph unicode="&#xcf;" glyph-name="Idieresis" horiz-adv-x="340" d="M217 -91Q188 -91 168 -71T141 -35L139 -26Q138 -23 138 -19T135 -10L11 -45Q0 -43 0 -30Q0 -25 3 -21T13 -14Q34 -5 66 3T130 17Q129 23 129 29T129 42Q129 94 146 154T194 277T267 395T360
493Q328 507 297 512T233 517Q189 517 150 505T85 470Q81 466 74 457T66 438Q66 427 76 420Q78 418 78 415Q78 413 76 412T69 413Q60 421 56 430T52 448Q52 461 57 471T67 486Q90 512 131 525T224 538Q302 538 374 505Q387 513 403 523T436 544Q441 547 449 547Q455
547 460 546T465 541Q465 538 458 534L437 521H438Q430 515 419 508T399 492Q410 486 419 480T436 467Q441 462 441 454Q441 447 431 453Q407 473 386 483Q318 425 268 350T189 196T161 49Q161 42 161 36T162 22Q202 28 239 32T306 38Q312 40 312 31Q312 24 307
24Q273 21 238 14T167 -2Q167 -6 168 -11T171 -21Q175 -29 182 -42T200 -65T227 -75Q238 -75 250 -69H248Q253 -66 257 -66Q263 -66 263 -71Q263 -76 253 -82Q243 -87 235 -89T217 -91ZM423 585H421Q417 585 413 591T408 603Q408 604 408 604T407 606Q407 612 412
616T419 621Q422 624 431 630T450 640T459 639Q459 636 452 633T440 606Q438 600 435 595T423 585ZM509 585H507Q503 585 499 591T494 603V604Q494 611 499 615T505 621Q508 624 517 629T536 639T545 640Q547 636 540 633T527 606Q525 600 522 595T509 585Z" />
<glyph unicode="&#xd0;" glyph-name="Eth" horiz-adv-x="530" d="M134 -63Q128 -50 123 -36T113 -5Q105 -3 102 -3Q68 4 39 31T10 97Q10 102 10 107T12 117Q15 123 20 123Q31 123 29 112Q26 102 26 93Q26 72 38 54T70 24T107 9Q108 9 108 9T109 8Q101 44 96 85T91
170L55 166Q52 166 46 174T43 183Q56 185 68 185T91 187Q92 247 101 307T130 418Q98 404 73 383Q68 379 64 379Q57 379 57 387Q57 391 60 394Q77 407 96 418T138 439Q158 482 183 513Q196 529 218 543T264 557Q278 557 291 549T314 520Q316 514 316 513Q316 506
311 506Q306 506 303 513Q296 533 274 533Q255 533 234 519T202 493Q195 483 189 474T176 453Q239 473 299 473Q373 473 420 447T491 377T514 282Q514 224 484 165T399 63Q354 29 300 9T183 -11Q159 -11 133 -8Q136 -20 139 -31T147 -54Q149 -58 149 -60T149 -65Q149
-71 145 -71Q139 -71 134 -63ZM157 5Q223 5 284 26T379 78Q429 122 455 177T481 284Q481 330 461 368T398 430T290 454Q229 454 165 432Q138 377 125 314T110 187Q132 186 148 184T174 180Q177 179 176 177T172 174Q145 174 110 171Q110 129 115 87T129 6Q136 5
143 5T157 5Z" />
<glyph unicode="&#xd1;" glyph-name="Ntilde" horiz-adv-x="582" d="M84 -62Q58 -62 24 -45Q9 -38 -2 -21Q-4 -18 -4 -13Q-4 -6 1 -6Q5 -6 8 -13V-12Q17 -24 22 -25Q34 -31 45 -34T68 -38Q105 -38 135 -7T188 76T228 187T253 306T263 410Q225 459 187 489T112
520Q99 520 93 503T87 461Q87 438 91 412T100 363T108 329Q109 326 109 322Q109 314 104 314Q99 314 95 325Q86 350 77 392T68 473Q68 506 78 529T113 553Q148 553 186 524T262 447Q260 473 254 486Q253 491 253 494T252 500Q252 506 255 506Q260 506 264 497Q277
476 280 424Q321 371 359 308T431 186Q443 165 454 148T476 113Q477 155 482 211T499 327T533 438T588 520T670 552Q689 552 704 543T733 509Q728 518 724 518Q718 518 722 503Q717 513 706 518T684 523Q642 523 611 499T558 433T523 342T503 241T497 146Q497 118
499 95T505 56V57Q517 45 528 31T544 3Q551 -13 553 -26T556 -48Q556 -57 554 -61Q550 -72 541 -72Q530 -72 519 -55Q509 -40 502 -16T489 30L440 118Q406 180 366 252T281 385Q281 335 274 276T251 157T213 48T157 -32T84 -62ZM338 588Q335 585 333 585Q331 585
331 589Q331 598 337 606Q342 612 349 620T363 628Q377 628 391 618T425 608Q434 608 439 611T450 622Q452 625 454 625Q457 625 457 620Q457 617 454 612Q447 606 439 598T424 590Q405 590 390 599T360 608Q353 608 347 601T338 588Z" />
<glyph unicode="&#xd2;" glyph-name="Ograve" horiz-adv-x="608" d="M216 -23Q163 -23 121 -4T55 52T30 144Q30 209 60 272T141 386T256 468T389 499Q392 499 401 498T411 489Q411 484 400 483T386 481Q337 481 290 459T202 398T128 314T78 220T60 131Q60 79 93
43T202 6Q238 6 277 19T345 47Q402 73 451 119T530 225T561 352Q561 359 561 367T559 383Q551 423 522 452T454 497T376 513Q323 513 269 498T169 450T99 367Q89 349 77 349Q70 349 70 358Q70 367 79 386T113 435Q161 489 233 514T376 540Q434 540 480 519T554
456T582 353Q582 275 549 205T460 80T332 -1Q275 -23 216 -23ZM411 570Q385 587 360 602T335 628Q335 632 339 635Q344 637 346 637Q351 637 356 633T367 623Q381 607 395 595T414 578Q416 576 416 571T411 570Z" />
<glyph unicode="&#xd3;" glyph-name="Oacute" horiz-adv-x="608" d="M216 -23Q163 -23 121 -4T55 52T30 144Q30 209 60 272T141 386T256 468T389 499Q392 499 401 498T411 489Q411 484 400 483T386 481Q337 481 290 459T202 398T128 314T78 220T60 131Q60 79 93
43T202 6Q238 6 277 19T345 47Q402 73 451 119T530 225T561 352Q561 359 561 367T559 383Q551 423 522 452T454 497T376 513Q323 513 269 498T169 450T99 367Q89 349 77 349Q70 349 70 358Q70 367 79 386T113 435Q161 489 233 514T376 540Q434 540 480 519T554
456T582 353Q582 275 549 205T460 80T332 -1Q275 -23 216 -23ZM354 572Q350 570 350 570Q348 570 348 574T351 580Q356 585 370 597T399 626Q406 634 413 638T427 638Q432 635 432 631Q432 624 420 615T389 595T354 572Z" />
<glyph unicode="&#xd4;" glyph-name="Ocircumflex" horiz-adv-x="608" d="M216 -23Q163 -23 121 -4T55 52T30 144Q30 209 60 272T141 386T256 468T389 499Q392 499 401 498T411 489Q411 484 400 483T386 481Q337 481 290 459T202 398T128 314T78 220T60 131Q60
79 93 43T202 6Q238 6 277 19T345 47Q402 73 451 119T530 225T561 352Q561 359 561 367T559 383Q551 423 522 452T454 497T376 513Q323 513 269 498T169 450T99 367Q89 349 77 349Q70 349 70 358Q70 367 79 386T113 435Q161 489 233 514T376 540Q434 540 480 519T554
456T582 353Q582 275 549 205T460 80T332 -1Q275 -23 216 -23ZM447 567Q444 567 435 574T415 592T394 610T383 622Q377 617 363 608T333 590T308 575Q306 574 305 574T303 573Q301 573 301 575Q301 580 309 586Q318 594 333 607T363 631T385 643Q391 643 402 633T424
610T443 585T451 572Q451 567 447 567Z" />
<glyph unicode="&#xd5;" glyph-name="Otilde" horiz-adv-x="608" d="M216 -23Q163 -23 121 -4T55 52T30 144Q30 209 60 272T141 386T256 468T389 499Q392 499 401 498T411 489Q411 484 400 483T386 481Q337 481 290 459T202 398T128 314T78 220T60 131Q60 79 93
43T202 6Q238 6 277 19T345 47Q402 73 451 119T530 225T561 352Q561 359 561 367T559 383Q551 423 522 452T454 497T376 513Q323 513 269 498T169 450T99 367Q89 349 77 349Q70 349 70 358Q70 367 79 386T113 435Q161 489 233 514T376 540Q434 540 480 519T554
456T582 353Q582 275 549 205T460 80T332 -1Q275 -23 216 -23ZM320 575Q317 572 315 572Q313 572 313 576Q313 585 319 593Q324 599 331 607T345 615Q359 615 373 605T407 595Q416 595 421 598T432 609Q434 612 436 612Q439 612 439 607Q439 604 436 599Q429 593
421 585T406 577Q387 577 372 586T342 595Q335 595 329 588T320 575Z" />
<glyph unicode="&#xd6;" glyph-name="Odieresis" horiz-adv-x="608" d="M216 -23Q163 -23 121 -4T55 52T30 144Q30 209 60 272T141 386T256 468T389 499Q392 499 401 498T411 489Q411 484 400 483T386 481Q337 481 290 459T202 398T128 314T78 220T60 131Q60 79
93 43T202 6Q238 6 277 19T345 47Q402 73 451 119T530 225T561 352Q561 359 561 367T559 383Q551 423 522 452T454 497T376 513Q323 513 269 498T169 450T99 367Q89 349 77 349Q70 349 70 358Q70 367 79 386T113 435Q161 489 233 514T376 540Q434 540 480 519T554
456T582 353Q582 275 549 205T460 80T332 -1Q275 -23 216 -23ZM333 575H331Q327 575 323 581T318 593Q318 594 318 594T317 596Q317 602 322 606T329 611Q332 614 341 620T360 630T369 629Q369 626 362 623T350 596Q348 590 345 585T333 575ZM419 575H417Q413 575
409 581T404 593V594Q404 601 409 605T415 611Q418 614 427 619T446 629T455 630Q457 626 450 623T437 596Q435 590 432 585T419 575Z" />
<glyph unicode="&#xd7;" glyph-name="multiply" horiz-adv-x="443" d="M104 58Q102 56 99 56Q92 56 85 63T82 75Q108 104 139 136T202 200L79 321Q77 325 77 329Q77 334 80 338T87 339Q106 326 142 293T220 218Q263 260 299 293T354 339Q355 340 357 340Q362 340
363 333T362 321Q340 299 307 267T239 200Q271 169 301 137T359 75Q361 73 361 71Q361 65 352 59T337 58Q314 84 283 116T220 181Q188 148 158 116T104 58Z" />
<glyph unicode="&#xd8;" glyph-name="Oslash" horiz-adv-x="608" d="M216 -23Q128 -23 76 26Q70 9 67 -5Q67 -6 67 -6T66 -6Q63 -6 58 -1T53 7Q55 15 57 22T64 39Q30 81 30 144Q30 209 60 272T141 386T256 468T389 499Q392 499 401 498T411 489Q411 484 400 483T386
481Q337 481 291 459T204 400T134 318T86 226T68 138Q68 101 82 74Q105 114 140 159T217 252T303 345T388 428T460 494Q417 513 376 513Q323 513 269 498T169 450T99 367Q89 349 77 349Q70 349 70 358Q70 367 79 386T113 435Q161 489 233 514T376 540Q436 540 486
515L491 519Q499 526 509 529T526 532Q531 532 533 530T530 524Q524 520 518 515T505 504Q540 481 561 443T582 353Q582 275 549 205T460 80T332 -1Q275 -23 216 -23ZM210 13Q246 13 281 23T345 47Q402 73 451 119T530 225T561 352Q561 359 561 367T559 383Q552
415 531 441T480 484Q437 448 382 398T270 289T167 172T92 59Q109 38 138 26T210 13Z" />
<glyph unicode="&#xd9;" glyph-name="Ugrave" horiz-adv-x="552" d="M494 -74Q428 -74 402 -33T375 72Q375 112 383 158T406 250Q379 205 339 156T253 65T158 -3T67 -29Q35 -29 23 -8T11 38Q11 60 18 79Q31 114 49 152T90 229Q116 275 139 322T178 416T194 512Q194
568 162 593T77 619Q64 619 48 614T26 604Q19 598 14 598Q9 598 9 603Q9 607 15 613Q24 621 44 628T90 636Q137 636 175 612T228 535Q234 514 234 491Q234 449 219 403T178 311T126 221Q102 182 80 143T47 68Q43 56 41 45T38 25Q38 3 50 -5T76 -14Q112 -14 153
10T236 72T315 154T379 237T419 302Q425 315 429 316Q452 378 479 431T531 522T575 569Q578 571 584 571Q594 571 594 566Q594 561 585 557Q571 550 549 515T503 427T457 313T423 190T409 76Q409 18 430 -19T504 -56Q516 -56 526 -51H525Q532 -47 537 -47Q541 -47
541 -50Q541 -56 531 -63Q515 -74 494 -74ZM423 619Q397 636 372 651T347 677Q347 681 351 684Q356 686 358 686Q363 686 368 682T379 672Q393 656 407 644T426 627Q428 625 428 620T423 619Z" />
<glyph unicode="&#xda;" glyph-name="Uacute" horiz-adv-x="552" d="M494 -74Q428 -74 402 -33T375 72Q375 112 383 158T406 250Q379 205 339 156T253 65T158 -3T67 -29Q35 -29 23 -8T11 38Q11 60 18 79Q31 114 49 152T90 229Q116 275 139 322T178 416T194 512Q194
568 162 593T77 619Q64 619 48 614T26 604Q19 598 14 598Q9 598 9 603Q9 607 15 613Q24 621 44 628T90 636Q137 636 175 612T228 535Q234 514 234 491Q234 449 219 403T178 311T126 221Q102 182 80 143T47 68Q43 56 41 45T38 25Q38 3 50 -5T76 -14Q112 -14 153
10T236 72T315 154T379 237T419 302Q425 315 429 316Q452 378 479 431T531 522T575 569Q578 571 584 571Q594 571 594 566Q594 561 585 557Q571 550 549 515T503 427T457 313T423 190T409 76Q409 18 430 -19T504 -56Q516 -56 526 -51H525Q532 -47 537 -47Q541 -47
541 -50Q541 -56 531 -63Q515 -74 494 -74ZM366 621Q362 619 362 619Q360 619 360 623T363 629Q368 634 382 646T411 675Q418 683 425 687T439 687Q444 684 444 680Q444 673 432 664T401 644T366 621Z" />
<glyph unicode="&#xdb;" glyph-name="Ucircumflex" horiz-adv-x="552" d="M494 -74Q428 -74 402 -33T375 72Q375 112 383 158T406 250Q379 205 339 156T253 65T158 -3T67 -29Q35 -29 23 -8T11 38Q11 60 18 79Q31 114 49 152T90 229Q116 275 139 322T178 416T194
512Q194 568 162 593T77 619Q64 619 48 614T26 604Q19 598 14 598Q9 598 9 603Q9 607 15 613Q24 621 44 628T90 636Q137 636 175 612T228 535Q234 514 234 491Q234 449 219 403T178 311T126 221Q102 182 80 143T47 68Q43 56 41 45T38 25Q38 3 50 -5T76 -14Q112
-14 153 10T236 72T315 154T379 237T419 302Q425 315 429 316Q452 378 479 431T531 522T575 569Q578 571 584 571Q594 571 594 566Q594 561 585 557Q571 550 549 515T503 427T457 313T423 190T409 76Q409 18 430 -19T504 -56Q516 -56 526 -51H525Q532 -47 537 -47Q541
-47 541 -50Q541 -56 531 -63Q515 -74 494 -74ZM459 616Q456 616 447 623T427 641T406 659T395 671Q389 666 375 657T345 639T320 624Q318 623 317 623T315 622Q313 622 313 624Q313 629 321 635Q330 643 345 656T375 680T397 692Q403 692 414 682T436 659T455
634T463 621Q463 616 459 616Z" />
<glyph unicode="&#xdc;" glyph-name="Udieresis" horiz-adv-x="552" d="M494 -74Q428 -74 402 -33T375 72Q375 112 383 158T406 250Q379 205 339 156T253 65T158 -3T67 -29Q35 -29 23 -8T11 38Q11 60 18 79Q31 114 49 152T90 229Q116 275 139 322T178 416T194
512Q194 568 162 593T77 619Q64 619 48 614T26 604Q19 598 14 598Q9 598 9 603Q9 607 15 613Q24 621 44 628T90 636Q137 636 175 612T228 535Q234 514 234 491Q234 449 219 403T178 311T126 221Q102 182 80 143T47 68Q43 56 41 45T38 25Q38 3 50 -5T76 -14Q112
-14 153 10T236 72T315 154T379 237T419 302Q425 315 429 316Q452 378 479 431T531 522T575 569Q578 571 584 571Q594 571 594 566Q594 561 585 557Q571 550 549 515T503 427T457 313T423 190T409 76Q409 18 430 -19T504 -56Q516 -56 526 -51H525Q532 -47 537 -47Q541
-47 541 -50Q541 -56 531 -63Q515 -74 494 -74ZM345 624H343Q339 624 335 630T330 642Q330 643 330 643T329 645Q329 651 334 655T341 660Q344 663 353 669T372 679T381 678Q381 675 374 672T362 645Q360 639 357 634T345 624ZM431 624H429Q425 624 421 630T416
642V643Q416 650 421 654T427 660Q430 663 439 668T458 678T467 679Q469 675 462 672T449 645Q447 639 444 634T431 624Z" />
<glyph unicode="&#xdd;" glyph-name="Yacute" horiz-adv-x="527" d="M137 -293Q86 -293 43 -274T-27 -215T-54 -112Q-54 -88 -47 -88Q-39 -88 -39 -120Q-39 -171 -10 -203T66 -252T160 -268Q189 -268 217 -263T268 -246Q336 -213 385 -138T446 48Q449 65 450 82T451
118Q451 159 448 199Q447 220 447 240T446 283Q446 286 445 286T444 284Q425 247 396 205T329 123T250 49T168 -4T89 -24Q56 -24 44 -3T32 43Q32 54 34 64T39 84Q51 119 70 157T112 233Q137 279 160 326T199 421T215 517Q215 573 183 598T98 623Q85 623 69 618T47
608Q41 603 35 603Q30 603 30 608Q30 612 36 618Q45 626 66 633T112 641Q159 641 197 616T250 539Q255 517 255 496Q255 454 239 409T199 317T147 225Q123 187 102 147T68 72Q64 60 62 49T59 30Q59 8 71 0T96 -9Q130 -9 172 15T258 79T341 164T407 251T445 322V328Q445
354 449 390T476 462Q480 468 487 473T500 479Q508 479 509 471Q510 468 510 461Q510 447 503 425T486 379T466 338Q466 320 468 290T473 233Q477 199 480 161T484 82Q484 45 480 11T465 -56Q438 -132 385 -184T274 -262Q206 -293 137 -293ZM358 533Q354 531 354
531Q352 531 352 535T355 541Q360 546 374 558T403 587Q410 595 417 599T431 599Q436 596 436 592Q436 585 424 576T393 556T358 533Z" />
<glyph unicode="&#xde;" glyph-name="Thorn" horiz-adv-x="436" d="M69 -51Q57 -10 57 47Q57 97 70 163T106 299T158 431Q142 430 130 429T109 428Q96 428 96 433Q96 441 110 443Q117 445 132 445T165 446Q187 488 210 522T258 577Q271 588 291 597T333 607Q351
607 366 597T388 562Q389 559 389 555Q389 547 384 547Q379 547 376 556Q372 570 362 575T340 581Q322 581 303 572T272 553Q250 533 230 506T192 446H202Q218 446 233 446T265 444Q346 439 383 406T421 327Q421 286 394 249T313 188T181 163Q144 163 130 169T115
181Q115 187 123 187Q131 185 144 183T175 180Q192 180 213 182T257 191Q295 202 324 224T369 274T386 328Q386 364 349 393T238 430Q226 431 212 431T186 432H184Q152 371 128 301T90 165T76 46Q76 22 77 -1T83 -45V-51Q83 -60 78 -60Q73 -60 69 -51Z" />
<glyph unicode="&#xdf;" glyph-name="germandbls" horiz-adv-x="407" d="M-242 -163Q-244 -159 -244 -158Q-244 -150 -232 -150Q-221 -150 -220 -158Q-218 -164 -205 -164Q-188 -164 -157 -151T-89 -106T-14 -15T55 134T102 353Q109 409 137 444T202 495T275 512Q311
512 337 496T363 451Q363 428 346 402T303 353T253 316Q224 299 224 291Q224 286 234 280T263 263Q291 248 316 235T359 205T376 164Q376 154 373 142T361 114Q367 114 372 114T382 113Q389 112 395 109T407 101Q412 96 412 89Q412 83 408 83Q404 83 396 91Q392
96 385 97T371 99Q362 99 358 98Q339 72 307 44T248 -3Q242 -7 225 -16T186 -36T143 -53T104 -60Q89 -60 82 -53Q77 -48 77 -42Q77 -31 87 -19T104 -1Q127 21 165 43T245 83T322 109Q327 111 330 112T340 114Q350 131 350 148Q350 170 334 187T295 218T249 244T210
269Q190 285 190 295Q190 303 199 309T220 322Q287 363 314 397T341 456Q341 479 323 491T278 504Q250 504 219 489T165 439T133 350Q117 230 78 132T-12 -36T-113 -145T-200 -183Q-228 -183 -242 -163ZM112 -41Q138 -40 167 -26T215 1Q281 43 334 100Q304 94 263
79T183 44T123 4Q121 2 112 -6T97 -23T96 -37Q99 -39 103 -40T112 -41Z" />
<glyph unicode="&#xe0;" glyph-name="agrave" horiz-adv-x="273" d="M36 9Q23 9 17 20T9 45T8 67Q14 113 39 159T101 241T181 291Q189 294 195 295T208 296Q239 296 239 272Q239 260 231 248L223 235Q222 232 220 232Q218 232 217 235T218 241Q220 244 221 247T225
253Q230 263 230 268Q230 275 225 277T211 280Q207 280 203 280T194 278Q173 271 158 260T127 232Q109 213 88 183T52 121T33 66Q31 60 31 47Q31 38 33 29T43 19Q52 19 60 28T73 43Q90 67 111 103T144 171L146 182Q148 190 154 200T171 210Q180 210 180 200Q180
199 180 198T179 196Q175 173 173 151T171 105Q171 64 179 45T199 25Q211 25 225 38T253 67T274 93L296 123Q299 127 301 127Q303 127 303 124Q303 119 301 116Q291 99 278 81T247 42Q234 26 218 15T188 4Q175 4 164 16T146 57Q144 68 143 89T142 134Q136 119 125
98T100 57T69 23T36 9ZM213 325Q198 335 182 344T155 362T144 377Q144 382 148 383Q150 385 154 385Q159 385 164 382T173 373Q186 358 198 347T215 332Q218 329 218 325T213 325Z" />
<glyph unicode="&#xe1;" glyph-name="aacute" horiz-adv-x="273" d="M36 9Q23 9 17 20T9 45T8 67Q14 113 39 159T101 241T181 291Q189 294 195 295T208 296Q239 296 239 272Q239 260 231 248L223 235Q222 232 220 232Q218 232 217 235T218 241Q220 244 221 247T225
253Q230 263 230 268Q230 275 225 277T211 280Q207 280 203 280T194 278Q173 271 158 260T127 232Q109 213 88 183T52 121T33 66Q31 60 31 47Q31 38 33 29T43 19Q52 19 60 28T73 43Q90 67 111 103T144 171L146 182Q148 190 154 200T171 210Q180 210 180 200Q180
199 180 198T179 196Q175 173 173 151T171 105Q171 64 179 45T199 25Q211 25 225 38T253 67T274 93L296 123Q299 127 301 127Q303 127 303 124Q303 119 301 116Q291 99 278 81T247 42Q234 26 218 15T188 4Q175 4 164 16T146 57Q144 68 143 89T142 134Q136 119 125
98T100 57T69 23T36 9ZM162 582Q161 581 160 581T159 581Q157 581 157 584T160 589Q164 594 177 605T203 631Q209 638 215 642T229 642Q239 636 229 627T200 606T162 582Z" />
<glyph unicode="&#xe2;" glyph-name="acircumflex" horiz-adv-x="273" d="M36 9Q23 9 17 20T9 45T8 67Q14 113 39 159T101 241T181 291Q189 294 195 295T208 296Q239 296 239 272Q239 260 231 248L223 235Q222 232 220 232Q218 232 217 235T218 241Q220 244 221
247T225 253Q230 263 230 268Q230 275 225 277T211 280Q207 280 203 280T194 278Q173 271 158 260T127 232Q109 213 88 183T52 121T33 66Q31 60 31 47Q31 38 33 29T43 19Q52 19 60 28T73 43Q90 67 111 103T144 171L146 182Q148 190 154 200T171 210Q180 210 180
200Q180 199 180 198T179 196Q175 173 173 151T171 105Q171 64 179 45T199 25Q211 25 225 38T253 67T274 93L296 123Q299 127 301 127Q303 127 303 124Q303 119 301 116Q291 99 278 81T247 42Q234 26 218 15T188 4Q175 4 164 16T146 57Q144 68 143 89T142 134Q136
119 125 98T100 57T69 23T36 9ZM252 318Q249 318 240 325T220 343T199 361T188 373Q182 368 168 359T138 341T113 326Q111 325 110 325T108 324Q106 324 106 326Q106 331 114 337Q123 345 138 358T168 382T190 394Q196 394 207 384T229 361T248 336T256 323Q256
318 252 318Z" />
<glyph unicode="&#xe3;" glyph-name="atilde" horiz-adv-x="273" d="M36 9Q23 9 17 20T9 45T8 67Q14 113 39 159T101 241T181 291Q189 294 195 295T208 296Q239 296 239 272Q239 260 231 248L223 235Q222 232 220 232Q218 232 217 235T218 241Q220 244 221 247T225
253Q230 263 230 268Q230 275 225 277T211 280Q207 280 203 280T194 278Q173 271 158 260T127 232Q109 213 88 183T52 121T33 66Q31 60 31 47Q31 38 33 29T43 19Q52 19 60 28T73 43Q90 67 111 103T144 171L146 182Q148 190 154 200T171 210Q180 210 180 200Q180
199 180 198T179 196Q175 173 173 151T171 105Q171 64 179 45T199 25Q211 25 225 38T253 67T274 93L296 123Q299 127 301 127Q303 127 303 124Q303 119 301 116Q291 99 278 81T247 42Q234 26 218 15T188 4Q175 4 164 16T146 57Q144 68 143 89T142 134Q136 119 125
98T100 57T69 23T36 9ZM381 582Q378 579 376 579Q374 579 374 583Q374 592 380 600Q385 606 392 614T406 622Q420 622 434 612T468 602Q477 602 482 605T493 616Q495 619 497 619Q500 619 500 614Q500 611 497 606Q490 600 482 592T467 584Q448 584 433 593T403
602Q396 602 390 595T381 582Z" />
<glyph unicode="&#xe4;" glyph-name="adieresis" horiz-adv-x="273" d="M36 9Q23 9 17 20T9 45T8 67Q14 113 39 159T101 241T181 291Q189 294 195 295T208 296Q239 296 239 272Q239 260 231 248L223 235Q222 232 220 232Q218 232 217 235T218 241Q220 244 221
247T225 253Q230 263 230 268Q230 275 225 277T211 280Q207 280 203 280T194 278Q173 271 158 260T127 232Q109 213 88 183T52 121T33 66Q31 60 31 47Q31 38 33 29T43 19Q52 19 60 28T73 43Q90 67 111 103T144 171L146 182Q148 190 154 200T171 210Q180 210 180
200Q180 199 180 198T179 196Q175 173 173 151T171 105Q171 64 179 45T199 25Q211 25 225 38T253 67T274 93L296 123Q299 127 301 127Q303 127 303 124Q303 119 301 116Q291 99 278 81T247 42Q234 26 218 15T188 4Q175 4 164 16T146 57Q144 68 143 89T142 134Q136
119 125 98T100 57T69 23T36 9ZM138 326H136Q132 326 128 332T123 344Q123 345 123 345T122 347Q122 353 127 357T134 362Q137 365 146 371T165 381T174 380Q174 377 167 374T155 347Q153 341 150 336T138 326ZM224 326H222Q218 326 214 332T209 344V345Q209 352
214 356T220 362Q223 365 232 370T251 380T260 381Q262 377 255 374T242 347Q240 341 237 336T224 326Z" />
<glyph unicode="&#xe5;" glyph-name="aring" horiz-adv-x="273" d="M36 9Q23 9 17 20T9 45T8 67Q14 113 39 159T101 241T181 291Q189 294 195 295T208 296Q239 296 239 272Q239 260 231 248L223 235Q222 232 220 232Q218 232 217 235T218 241Q220 244 221 247T225
253Q230 263 230 268Q230 275 225 277T211 280Q207 280 203 280T194 278Q173 271 158 260T127 232Q109 213 88 183T52 121T33 66Q31 60 31 47Q31 38 33 29T43 19Q52 19 60 28T73 43Q90 67 111 103T144 171L146 182Q148 190 154 200T171 210Q180 210 180 200Q180
199 180 198T179 196Q175 173 173 151T171 105Q171 64 179 45T199 25Q211 25 225 38T253 67T274 93L296 123Q299 127 301 127Q303 127 303 124Q303 119 301 116Q291 99 278 81T247 42Q234 26 218 15T188 4Q175 4 164 16T146 57Q144 68 143 89T142 134Q136 119 125
98T100 57T69 23T36 9ZM183 323Q172 323 165 329T157 348Q157 360 163 376T182 397Q187 405 195 411T215 418Q229 418 236 408T243 384Q243 362 225 343T183 323ZM190 336Q207 336 217 352T227 383Q227 390 224 398T213 406Q208 406 204 403T194 397L201 394Q196
381 189 373T181 348Q181 336 190 336Z" />
<glyph unicode="&#xe6;" glyph-name="ae" horiz-adv-x="408" d="M210 -41Q194 -36 189 -22T184 6Q184 29 186 66T190 131Q188 121 176 103T147 65T109 29Q90 14 72 5T40 -4Q37 -4 34 -4T28 -2Q21 1 18 8T14 22Q14 32 17 42T24 59Q36 88 58 120T107 180T160 225Q166
235 179 245T207 262T232 269Q239 269 240 268Q245 267 246 263T245 253Q243 249 241 247T236 242L194 221Q166 207 136 178T80 117T43 56Q41 52 37 42T33 20Q33 9 40 6Q52 1 74 17T121 61T163 116T186 162L194 201Q196 212 204 215T215 218Q222 218 220 207L211
122Q219 142 230 163T256 205Q253 210 253 217Q253 220 255 221T259 223Q262 223 266 219Q289 250 306 261Q320 272 338 272Q357 272 366 257T376 227Q376 202 365 180T321 158Q310 158 293 163T267 183Q263 178 252 159T234 123Q230 112 228 101T226 81Q226 53
242 36T283 19Q322 19 353 40T412 94Q415 97 416 97Q418 97 418 94Q418 89 412 81Q404 71 395 61T375 41Q353 22 328 10T271 -3Q252 -3 234 3T207 26Q208 16 209 6T212 -15Q213 -22 215 -28T218 -39Q218 -44 210 -41ZM322 181Q362 181 362 228Q362 257 347 257Q336
257 322 245T295 219T278 197Q285 189 298 185T322 181Z" />
<glyph unicode="&#xe7;" glyph-name="ccedilla" horiz-adv-x="192" d="M54 -2Q36 8 29 27T22 67Q22 83 24 98T31 125Q36 140 42 154T55 182Q62 194 73 210T100 239T131 252Q140 252 148 248Q159 243 163 232T168 206Q168 190 164 175T157 148Q157 145 155 143Q153
139 150 137T142 136Q133 141 133 148Q133 154 136 160T140 170Q141 175 142 182T143 198Q143 209 140 218T128 227Q118 227 108 215T89 188T76 168Q70 157 61 138T46 96T39 52Q39 38 44 27T60 9Q68 4 80 4Q91 4 101 7T121 15Q130 19 137 23T152 31Q157 35 163
35Q167 35 167 32Q167 29 156 22Q137 9 117 1T79 -8Q66 -8 54 -2ZM269 -180Q263 -180 263 -174Q263 -169 269 -168Q284 -164 300 -164T327 -157T338 -124Q338 -114 330 -103T313 -79T304 -55Q304 -35 315 -17T349 1Q351 1 354 1T357 -3Q342 -6 335 -18T327 -44Q327
-53 336 -64T355 -88T365 -117Q365 -139 349 -153T310 -173T269 -180Z" />
<glyph unicode="&#xe8;" glyph-name="egrave" horiz-adv-x="187" d="M65 -11Q46 -13 35 -3T23 28Q23 50 33 79T57 135T82 179Q81 180 79 185T76 195Q76 199 79 199Q82 199 90 194Q97 205 107 220T130 246T157 258Q172 258 176 243T181 218Q181 198 166 185T128
170Q119 170 110 172T98 177Q91 163 79 136T56 81T46 34Q46 23 52 15T72 8Q92 10 115 25T162 63T200 108Q202 111 204 111Q206 111 207 108T207 103Q193 81 169 55T117 10T65 -11ZM125 182Q139 184 145 194T149 218Q149 222 148 226T141 231Q132 230 121 213T104
187Q106 186 114 184T125 182ZM187 292Q172 302 156 311T129 329T118 344Q118 349 122 350Q124 352 128 352Q133 352 138 349T147 340Q160 325 172 314T189 299Q192 296 192 292T187 292Z" />
<glyph unicode="&#xe9;" glyph-name="eacute" horiz-adv-x="187" d="M65 -11Q46 -13 35 -3T23 28Q23 50 33 79T57 135T82 179Q81 180 79 185T76 195Q76 199 79 199Q82 199 90 194Q97 205 107 220T130 246T157 258Q172 258 176 243T181 218Q181 198 166 185T128
170Q119 170 110 172T98 177Q91 163 79 136T56 81T46 34Q46 23 52 15T72 8Q92 10 115 25T162 63T200 108Q202 111 204 111Q206 111 207 108T207 103Q193 81 169 55T117 10T65 -11ZM125 182Q139 184 145 194T149 218Q149 222 148 226T141 231Q132 230 121 213T104
187Q106 186 114 184T125 182ZM136 293Q135 292 134 292T133 292Q131 292 131 295T134 300Q138 305 151 316T177 342Q183 349 189 353T203 353Q213 347 203 338T174 317T136 293Z" />
<glyph unicode="&#xea;" glyph-name="ecircumflex" horiz-adv-x="187" d="M65 -11Q46 -13 35 -3T23 28Q23 50 33 79T57 135T82 179Q81 180 79 185T76 195Q76 199 79 199Q82 199 90 194Q97 205 107 220T130 246T157 258Q172 258 176 243T181 218Q181 198 166 185T128
170Q119 170 110 172T98 177Q91 163 79 136T56 81T46 34Q46 23 52 15T72 8Q92 10 115 25T162 63T200 108Q202 111 204 111Q206 111 207 108T207 103Q193 81 169 55T117 10T65 -11ZM125 182Q139 184 145 194T149 218Q149 222 148 226T141 231Q132 230 121 213T104
187Q106 186 114 184T125 182ZM226 285Q223 285 214 292T194 310T173 328T162 340Q156 335 142 326T112 308T87 293Q85 292 84 292T82 291Q80 291 80 293Q80 298 88 304Q97 312 112 325T142 349T164 361Q170 361 181 351T203 328T222 303T230 290Q230 285 226 285Z"
/>
<glyph unicode="&#xeb;" glyph-name="edieresis" horiz-adv-x="187" d="M65 -11Q46 -13 35 -3T23 28Q23 50 33 79T57 135T82 179Q81 180 79 185T76 195Q76 199 79 199Q82 199 90 194Q97 205 107 220T130 246T157 258Q172 258 176 243T181 218Q181 198 166 185T128
170Q119 170 110 172T98 177Q91 163 79 136T56 81T46 34Q46 23 52 15T72 8Q92 10 115 25T162 63T200 108Q202 111 204 111Q206 111 207 108T207 103Q193 81 169 55T117 10T65 -11ZM125 182Q139 184 145 194T149 218Q149 222 148 226T141 231Q132 230 121 213T104
187Q106 186 114 184T125 182ZM112 293H110Q106 293 102 299T97 311Q97 312 97 312T96 314Q96 320 101 324T108 329Q111 332 120 338T139 348T148 347Q148 344 141 341T129 314Q127 308 124 303T112 293ZM198 293H196Q192 293 188 299T183 311V312Q183 319 188
323T194 329Q197 332 206 337T225 347T234 348Q236 344 229 341T216 314Q214 308 211 303T198 293Z" />
<glyph unicode="&#xec;" glyph-name="igrave" horiz-adv-x="169" d="M96 -13Q78 -13 68 3T53 43T47 89T45 123Q45 135 45 148T49 173Q51 181 57 191T74 201Q82 201 82 191V187Q77 164 76 142T74 96Q74 78 77 49T93 6Q95 3 99 3Q108 3 119 16T136 35Q156 59 166
79T187 128Q187 133 191 133Q195 133 195 129Q195 127 195 127T194 125Q178 67 138 18Q131 10 120 -1T96 -13ZM107 242Q92 252 76 261T49 279T38 294Q38 299 42 300Q44 302 48 302Q53 302 58 299T67 290Q80 275 92 264T109 249Q112 246 112 242T107 242Z" />
<glyph unicode="&#xed;" glyph-name="iacute" horiz-adv-x="169" d="M96 -13Q78 -13 68 3T53 43T47 89T45 123Q45 135 45 148T49 173Q51 181 57 191T74 201Q82 201 82 191V187Q77 164 76 142T74 96Q74 78 77 49T93 6Q95 3 99 3Q108 3 119 16T136 35Q156 59 166
79T187 128Q187 133 191 133Q195 133 195 129Q195 127 195 127T194 125Q178 67 138 18Q131 10 120 -1T96 -13ZM56 243Q55 242 54 242T53 242Q51 242 51 245T54 250Q58 255 71 266T97 292Q103 299 109 303T123 303Q133 297 123 288T94 267T56 243Z" />
<glyph unicode="&#xee;" glyph-name="icircumflex" horiz-adv-x="169" d="M176 203Q173 203 163 211T141 231T118 252T106 265Q99 260 80 249T39 225T3 206Q1 205 -1 205T-4 204Q-7 204 -7 207Q-7 215 4 221Q24 235 51 252T101 289Q110 295 123 285T150 257T172
226T181 209Q181 203 176 203ZM96 -13Q78 -13 68 3T53 43T47 89T45 123Q45 135 45 148T49 173Q51 181 57 191T74 201Q82 201 82 191V187Q77 164 76 142T74 96Q74 78 77 49T93 6Q95 3 99 3Q108 3 119 16T136 35Q156 59 166 79T187 128Q187 133 191 133Q195 133 195
129Q195 127 195 127T194 125Q178 67 138 18Q131 10 120 -1T96 -13Z" />
<glyph unicode="&#xef;" glyph-name="idieresis" horiz-adv-x="169" d="M31 246H29Q25 246 21 252T16 264Q16 265 16 265T15 267Q15 273 20 277T27 282Q30 285 39 291T58 301T67 300Q67 297 60 294T48 267Q46 261 43 256T31 246ZM117 246H115Q111 246 107 252T102
264V265Q102 272 107 276T113 282Q116 285 125 290T144 300T153 301Q155 297 148 294T135 267Q133 261 130 256T117 246ZM96 -13Q78 -13 68 3T53 43T47 89T45 123Q45 135 45 148T49 173Q51 181 57 191T74 201Q82 201 82 191V187Q77 164 76 142T74 96Q74 78 77 49T93
6Q95 3 99 3Q108 3 119 16T136 35Q156 59 166 79T187 128Q187 133 191 133Q195 133 195 129Q195 127 195 127T194 125Q178 67 138 18Q131 10 120 -1T96 -13Z" />
<glyph unicode="&#xf0;" glyph-name="eth" horiz-adv-x="276" d="M146 11Q140 10 134 9T123 7Q100 7 84 21T57 58T43 103T38 144Q38 202 66 248T144 327Q135 353 124 378T101 428L62 412Q59 411 51 417T45 424Q58 430 70 434T93 443Q82 464 69 483T42 522Q23 547
7 558T-21 570Q-40 570 -40 545Q-40 535 -37 522T-26 491Q-24 485 -24 482Q-24 467 -33 467Q-37 467 -42 476Q-52 500 -56 519T-60 552Q-60 595 -27 595Q-9 595 14 580T60 536Q77 514 90 493T114 449Q133 454 147 456T172 460Q175 460 175 458T171 454L121 436Q134
410 143 385T161 336Q171 341 183 345Q185 346 189 346Q195 346 195 341Q195 334 185 331Q180 329 175 327T165 321Q178 275 186 226T192 121Q191 108 189 97T185 74Q178 44 168 30T146 11ZM144 20Q149 22 154 30T166 57Q175 99 175 144Q175 185 168 227T149 311Q117
289 96 248T70 163Q69 153 70 133T77 91T90 51T110 25Q118 18 131 18Q136 18 144 20Z" />
<glyph unicode="&#xf1;" glyph-name="ntilde" horiz-adv-x="210" d="M26 -1Q19 -1 14 4T9 18Q9 24 12 28Q20 46 26 72T35 125T38 171Q38 190 35 212T14 247Q11 247 11 251Q11 253 13 253Q16 253 18 251Q41 237 50 209T60 147Q60 123 56 99T46 52Q69 70 95 102T140
160Q146 168 154 175T173 183Q180 183 180 174Q180 173 180 171T178 165Q176 156 171 130T165 77Q165 55 171 39T193 23Q200 23 208 26T220 36Q221 36 221 37T223 38Q225 38 225 36Q225 26 211 21T189 16Q163 16 152 39T140 90Q140 99 141 108T144 125V127Q144
131 139 131Q134 131 128 125Q120 116 107 101T81 68T57 38T44 20Q42 16 38 8T26 -1ZM61 255Q58 252 56 252Q54 252 54 256Q54 265 60 273Q65 279 72 287T86 295Q100 295 114 285T148 275Q157 275 162 278T173 289Q175 292 177 292Q180 292 180 287Q180 284 177
279Q170 273 162 265T147 257Q128 257 113 266T83 275Q76 275 70 268T61 255Z" />
<glyph unicode="&#xf2;" glyph-name="ograve" horiz-adv-x="270" d="M79 8Q56 8 37 17T17 53Q17 62 18 65Q5 78 5 99Q5 121 16 145T42 187Q67 216 105 238T183 261Q221 261 245 238T269 177Q269 144 252 114T206 59T144 22T79 8ZM79 20Q119 20 158 41T223 97T249
174Q249 206 233 226T184 246Q148 246 113 224T54 168T27 98Q38 124 71 163T165 233Q166 234 169 234Q174 234 177 227T180 213Q180 212 178 208T173 201Q170 199 162 193T147 182T137 176Q134 176 134 178Q134 182 137 187T142 193Q121 181 98 161T58 117T39 65Q42
63 50 60T59 54Q59 51 55 51Q51 51 47 52T39 54Q39 34 49 27T79 20ZM227 295Q212 305 196 314T169 332T158 347Q158 352 162 353Q164 355 168 355Q173 355 178 352T187 343Q200 328 212 317T229 302Q232 299 232 295T227 295Z" />
<glyph unicode="&#xf3;" glyph-name="oacute" horiz-adv-x="270" d="M79 8Q56 8 37 17T17 53Q17 62 18 65Q5 78 5 99Q5 121 16 145T42 187Q67 216 105 238T183 261Q221 261 245 238T269 177Q269 144 252 114T206 59T144 22T79 8ZM79 20Q119 20 158 41T223 97T249
174Q249 206 233 226T184 246Q148 246 113 224T54 168T27 98Q38 124 71 163T165 233Q166 234 169 234Q174 234 177 227T180 213Q180 212 178 208T173 201Q170 199 162 193T147 182T137 176Q134 176 134 178Q134 182 137 187T142 193Q121 181 98 161T58 117T39 65Q42
63 50 60T59 54Q59 51 55 51Q51 51 47 52T39 54Q39 34 49 27T79 20ZM176 296Q175 295 174 295T173 295Q171 295 171 298T174 303Q178 308 191 319T217 345Q223 352 229 356T243 356Q253 350 243 341T214 320T176 296Z" />
<glyph unicode="&#xf4;" glyph-name="ocircumflex" horiz-adv-x="270" d="M79 8Q56 8 37 17T17 53Q17 62 18 65Q5 78 5 99Q5 121 16 145T42 187Q67 216 105 238T183 261Q221 261 245 238T269 177Q269 144 252 114T206 59T144 22T79 8ZM79 20Q119 20 158 41T223
97T249 174Q249 206 233 226T184 246Q148 246 113 224T54 168T27 98Q38 124 71 163T165 233Q166 234 169 234Q174 234 177 227T180 213Q180 212 178 208T173 201Q170 199 162 193T147 182T137 176Q134 176 134 178Q134 182 137 187T142 193Q121 181 98 161T58 117T39
65Q42 63 50 60T59 54Q59 51 55 51Q51 51 47 52T39 54Q39 34 49 27T79 20ZM266 288Q263 288 254 295T234 313T213 331T202 343Q196 338 182 329T152 311T127 296Q125 295 124 295T122 294Q120 294 120 296Q120 301 128 307Q137 315 152 328T182 352T204 364Q210
364 221 354T243 331T262 306T270 293Q270 288 266 288Z" />
<glyph unicode="&#xf5;" glyph-name="otilde" horiz-adv-x="270" d="M79 8Q56 8 37 17T17 53Q17 62 18 65Q5 78 5 99Q5 121 16 145T42 187Q67 216 105 238T183 261Q221 261 245 238T269 177Q269 144 252 114T206 59T144 22T79 8ZM79 20Q119 20 158 41T223 97T249
174Q249 206 233 226T184 246Q148 246 113 224T54 168T27 98Q38 124 71 163T165 233Q166 234 169 234Q174 234 177 227T180 213Q180 212 178 208T173 201Q170 199 162 193T147 182T137 176Q134 176 134 178Q134 182 137 187T142 193Q121 181 98 161T58 117T39 65Q42
63 50 60T59 54Q59 51 55 51Q51 51 47 52T39 54Q39 34 49 27T79 20ZM139 296Q136 293 134 293Q132 293 132 297Q132 306 138 314Q143 320 150 328T164 336Q178 336 192 326T226 316Q235 316 240 319T251 330Q253 333 255 333Q258 333 258 328Q258 325 255 320Q248
314 240 306T225 298Q206 298 191 307T161 316Q154 316 148 309T139 296Z" />
<glyph unicode="&#xf6;" glyph-name="odieresis" horiz-adv-x="270" d="M79 8Q56 8 37 17T17 53Q17 62 18 65Q5 78 5 99Q5 121 16 145T42 187Q67 216 105 238T183 261Q221 261 245 238T269 177Q269 144 252 114T206 59T144 22T79 8ZM79 20Q119 20 158 41T223 97T249
174Q249 206 233 226T184 246Q148 246 113 224T54 168T27 98Q38 124 71 163T165 233Q166 234 169 234Q174 234 177 227T180 213Q180 212 178 208T173 201Q170 199 162 193T147 182T137 176Q134 176 134 178Q134 182 137 187T142 193Q121 181 98 161T58 117T39 65Q42
63 50 60T59 54Q59 51 55 51Q51 51 47 52T39 54Q39 34 49 27T79 20ZM152 296H150Q146 296 142 302T137 314Q137 315 137 315T136 317Q136 323 141 327T148 332Q151 335 160 341T179 351T188 350Q188 347 181 344T169 317Q167 311 164 306T152 296ZM238 296H236Q232
296 228 302T223 314V315Q223 322 228 326T234 332Q237 335 246 340T265 350T274 351Q276 347 269 344T256 317Q254 311 251 306T238 296Z" />
<glyph unicode="&#xf7;" glyph-name="divide" horiz-adv-x="203" d="M134 154Q128 154 123 163T118 177Q118 189 131 195Q135 200 144 209T160 218Q165 218 165 211Q165 204 162 195T157 178Q152 165 144 159T136 154H134ZM49 104Q45 104 37 114T33 125Q56 128
75 129T112 130Q144 130 166 128T201 121Q205 119 204 117T198 114Q169 113 129 111T49 104ZM68 17Q62 17 57 26T52 40Q52 52 65 58Q69 63 78 72T94 81Q99 81 99 74Q99 67 96 58T91 41Q86 28 78 22T70 17H68Z" />
<glyph unicode="&#xf8;" glyph-name="oslash" horiz-adv-x="306" d="M5 -98Q5 -99 4 -99Q3 -99 0 -94T-4 -87Q0 -62 14 -29T51 41Q34 54 26 72T17 113Q17 125 20 137T27 162Q26 167 26 171T25 182Q25 208 37 239T77 292T151 315Q197 315 228 293Q249 319 267 339T298
373Q309 384 321 384T326 378Q311 362 289 338T240 284Q259 268 268 245T278 194Q278 150 258 111T203 46T122 21Q115 21 106 22T89 25Q72 28 59 36Q38 0 24 -34T5 -98ZM65 65Q98 120 139 176T217 279Q204 289 186 294T146 298Q118 297 98 282T66 248T55 216Q55
210 58 205Q65 212 83 229T124 254Q128 256 131 256T135 256Q138 256 138 254Q138 253 134 249T127 243Q111 235 98 221T75 192T61 170Q55 162 55 154Q55 148 66 137Q76 127 76 122Q76 120 73 120Q66 120 61 125L49 136Q48 131 48 127T47 117Q47 101 52 88T65 65ZM72
58Q95 38 129 38Q149 38 170 46T208 70Q234 95 246 125T258 186Q258 210 251 231T227 269Q188 223 147 168T72 58Z" />
<glyph unicode="&#xf9;" glyph-name="ugrave" horiz-adv-x="226" d="M37 3Q33 2 30 2T25 1Q12 1 12 14Q12 22 17 34L49 105Q58 125 68 154T78 208Q78 212 77 217T71 222Q65 222 56 215T43 208Q40 208 40 210Q40 216 49 221T69 231T85 235Q99 235 105 226T112 204Q112
190 103 167T80 117T54 67T34 31Q31 25 31 22Q31 16 37 16Q43 16 48 20Q64 31 88 56T133 111T161 162Q164 172 177 172Q184 172 189 169T194 160Q194 158 192 152T187 142Q177 117 166 93T155 43Q155 33 157 31T163 28Q171 28 185 42T212 71T229 93Q234 100 238
100Q241 100 241 98Q241 94 234 86Q227 78 214 60T186 27T158 11Q142 11 134 21T125 47Q125 60 130 75T140 101Q128 89 110 68T72 27T37 3ZM192 248Q177 258 161 267T134 285T123 300Q123 305 127 306Q129 308 133 308Q138 308 143 305T152 296Q165 281 177 270T194
255Q197 252 197 248T192 248Z" />
<glyph unicode="&#xfa;" glyph-name="uacute" horiz-adv-x="226" d="M37 3Q33 2 30 2T25 1Q12 1 12 14Q12 22 17 34L49 105Q58 125 68 154T78 208Q78 212 77 217T71 222Q65 222 56 215T43 208Q40 208 40 210Q40 216 49 221T69 231T85 235Q99 235 105 226T112 204Q112
190 103 167T80 117T54 67T34 31Q31 25 31 22Q31 16 37 16Q43 16 48 20Q64 31 88 56T133 111T161 162Q164 172 177 172Q184 172 189 169T194 160Q194 158 192 152T187 142Q177 117 166 93T155 43Q155 33 157 31T163 28Q171 28 185 42T212 71T229 93Q234 100 238
100Q241 100 241 98Q241 94 234 86Q227 78 214 60T186 27T158 11Q142 11 134 21T125 47Q125 60 130 75T140 101Q128 89 110 68T72 27T37 3ZM141 249Q140 248 139 248T138 248Q136 248 136 251T139 256Q143 261 156 272T182 298Q188 305 194 309T208 309Q218 303
208 294T179 273T141 249Z" />
<glyph unicode="&#xfb;" glyph-name="ucircumflex" horiz-adv-x="226" d="M37 3Q33 2 30 2T25 1Q12 1 12 14Q12 22 17 34L49 105Q58 125 68 154T78 208Q78 212 77 217T71 222Q65 222 56 215T43 208Q40 208 40 210Q40 216 49 221T69 231T85 235Q99 235 105 226T112
204Q112 190 103 167T80 117T54 67T34 31Q31 25 31 22Q31 16 37 16Q43 16 48 20Q64 31 88 56T133 111T161 162Q164 172 177 172Q184 172 189 169T194 160Q194 158 192 152T187 142Q177 117 166 93T155 43Q155 33 157 31T163 28Q171 28 185 42T212 71T229 93Q234
100 238 100Q241 100 241 98Q241 94 234 86Q227 78 214 60T186 27T158 11Q142 11 134 21T125 47Q125 60 130 75T140 101Q128 89 110 68T72 27T37 3ZM231 241Q228 241 219 248T199 266T178 284T167 296Q161 291 147 282T117 264T92 249Q90 248 89 248T87 247Q85
247 85 249Q85 254 93 260Q102 268 117 281T147 305T169 317Q175 317 186 307T208 284T227 259T235 246Q235 241 231 241Z" />
<glyph unicode="&#xfc;" glyph-name="udieresis" horiz-adv-x="226" d="M37 3Q33 2 30 2T25 1Q12 1 12 14Q12 22 17 34L49 105Q58 125 68 154T78 208Q78 212 77 217T71 222Q65 222 56 215T43 208Q40 208 40 210Q40 216 49 221T69 231T85 235Q99 235 105 226T112
204Q112 190 103 167T80 117T54 67T34 31Q31 25 31 22Q31 16 37 16Q43 16 48 20Q64 31 88 56T133 111T161 162Q164 172 177 172Q184 172 189 169T194 160Q194 158 192 152T187 142Q177 117 166 93T155 43Q155 33 157 31T163 28Q171 28 185 42T212 71T229 93Q234
100 238 100Q241 100 241 98Q241 94 234 86Q227 78 214 60T186 27T158 11Q142 11 134 21T125 47Q125 60 130 75T140 101Q128 89 110 68T72 27T37 3ZM117 249H115Q111 249 107 255T102 267Q102 268 102 268T101 270Q101 276 106 280T113 285Q116 288 125 294T144
304T153 303Q153 300 146 297T134 270Q132 264 129 259T117 249ZM203 249H201Q197 249 193 255T188 267V268Q188 275 193 279T199 285Q202 288 211 293T230 303T239 304Q241 300 234 297T221 270Q219 264 216 259T203 249Z" />
<glyph unicode="&#xfd;" glyph-name="yacute" horiz-adv-x="215" d="M45 -170Q26 -170 11 -161T-4 -130Q-4 -106 14 -83T49 -47Q74 -26 108 -2T173 31Q172 54 167 75T154 118Q123 72 82 34Q72 26 54 13T22 0Q12 0 12 12Q12 21 17 34Q25 57 34 80T53 126Q60 144
69 166T78 208Q78 212 77 217T71 222Q65 222 56 215T43 208Q40 208 40 210Q40 216 49 221T69 231T85 235Q99 235 105 226T112 204Q112 187 100 159T72 102T44 51T32 24Q32 21 35 21Q41 21 55 30T73 43Q96 62 115 83T150 128Q148 133 143 142T138 157Q138 163 148
169T169 181T185 186Q192 186 192 180Q192 171 180 154T162 129Q173 106 181 83T194 34Q200 34 215 28T230 14Q230 10 227 10Q224 10 217 16T196 22Q197 14 197 6T198 -10Q198 -48 185 -78T142 -132Q122 -146 96 -158T45 -170ZM157 139Q162 147 166 156T176 173Q168
170 162 166T147 156Q151 152 153 148T157 139ZM47 -161Q68 -161 87 -148T120 -121Q173 -62 173 18Q155 12 128 -3T75 -39T31 -83T13 -129Q13 -144 23 -152T47 -161ZM139 255Q138 254 137 254T136 254Q134 254 134 257T137 262Q141 267 154 278T180 304Q186 311
192 315T206 315Q216 309 206 300T177 279T139 255Z" />
<glyph unicode="&#xfe;" glyph-name="thorn" horiz-adv-x="161" d="M55 -154Q43 -113 43 -56Q43 -14 52 39T78 151T117 265Q106 264 97 263T83 259Q75 259 75 265Q75 270 85 275T124 282Q150 344 180 395T244 474Q257 485 277 494T319 504Q337 504 352 494T374
459Q375 456 375 452Q375 444 370 444Q365 444 362 453Q358 467 348 472T326 478Q308 478 289 469T258 450Q227 421 199 378T147 283Q224 282 276 258T354 197T381 119Q381 73 344 40T225 2Q209 1 194 1T162 0Q134 0 108 0T70 3Q67 3 66 4Q64 -12 63 -27T62 -57Q62
-81 63 -104T69 -148V-154Q69 -163 64 -163Q59 -163 55 -154ZM146 14Q158 14 172 14T198 16Q272 23 309 52T346 118Q346 145 330 172T284 221T217 255Q196 260 177 262T140 266Q113 205 95 140T68 17Q79 17 100 16T146 14Z" />
<glyph unicode="&#xff;" glyph-name="ydieresis" horiz-adv-x="215" d="M45 -170Q26 -170 11 -161T-4 -130Q-4 -106 14 -83T49 -47Q74 -26 108 -2T173 31Q172 54 167 75T154 118Q123 72 82 34Q72 26 54 13T22 0Q12 0 12 12Q12 21 17 34Q25 57 34 80T53 126Q60
144 69 166T78 208Q78 212 77 217T71 222Q65 222 56 215T43 208Q40 208 40 210Q40 216 49 221T69 231T85 235Q99 235 105 226T112 204Q112 187 100 159T72 102T44 51T32 24Q32 21 35 21Q41 21 55 30T73 43Q96 62 115 83T150 128Q148 133 143 142T138 157Q138 163
148 169T169 181T185 186Q192 186 192 180Q192 171 180 154T162 129Q173 106 181 83T194 34Q200 34 215 28T230 14Q230 10 227 10Q224 10 217 16T196 22Q197 14 197 6T198 -10Q198 -48 185 -78T142 -132Q122 -146 96 -158T45 -170ZM157 139Q162 147 166 156T176
173Q168 170 162 166T147 156Q151 152 153 148T157 139ZM47 -161Q68 -161 87 -148T120 -121Q173 -62 173 18Q155 12 128 -3T75 -39T31 -83T13 -129Q13 -144 23 -152T47 -161ZM115 255H113Q109 255 105 261T100 273Q100 274 100 274T99 276Q99 282 104 286T111 291Q114
294 123 300T142 310T151 309Q151 306 144 303T132 276Q130 270 127 265T115 255ZM201 255H199Q195 255 191 261T186 273V274Q186 281 191 285T197 291Q200 294 209 299T228 309T237 310Q239 306 232 303T219 276Q217 270 214 265T201 255Z" />
<glyph unicode="&#x2013;" glyph-name="endash" horiz-adv-x="287" d="M78 107Q75 107 68 111T57 120T57 124Q86 126 112 127T161 128Q202 128 232 126T279 121Q284 120 283 118T276 115Q236 115 183 113T78 107Z" />
<glyph unicode="&#x2014;" glyph-name="emdash" horiz-adv-x="460" d="M78 107Q75 107 68 111T57 120T57 124Q86 126 125 127T206 128Q258 128 308 127T399 125T458 121Q465 121 465 118Q465 115 453 115Q427 115 388 115T303 114T214 112T134 110T78 107Z" />
<glyph unicode="&#x2018;" glyph-name="quoteleft" horiz-adv-x="128" d="M30 295Q15 295 15 303Q15 309 20 317T31 332Q42 351 55 373T78 412T91 426Q93 424 81 399Q74 383 67 366T59 333Q59 325 62 319Q65 317 59 311T45 300T30 295Z" />
<glyph unicode="&#x2019;" glyph-name="quoteright" horiz-adv-x="156" d="M42 374L41 375Q41 379 53 397T77 440T89 486Q89 494 87 500T84 513Q84 520 89 530T102 540Q115 540 121 530T127 509Q127 500 125 493T119 477Q111 458 100 441T76 407Q72 401 60 388T42 374Z" />
<glyph unicode="&#x201a;" glyph-name="quotesinglbase" horiz-adv-x="242" d="M80 -100Q79 -99 83 -88T96 -58Q107 -33 118 -6T129 43Q129 53 124 65Q121 69 130 78T152 95T174 102Q197 102 197 90Q197 82 189 70T173 45Q161 24 146 -1T117 -50T92 -87T80 -100Z" />
<glyph unicode="&#x201c;" glyph-name="quotedblleft" horiz-adv-x="128" d="M30 295Q15 295 15 303Q15 309 20 317T31 332Q42 351 55 373T78 412T91 426Q93 424 81 399Q74 383 67 366T59 333Q59 325 62 319Q65 317 59 311T45 300T30 295ZM98 288Q84 288 84 296Q84
301 89 309T99 325Q110 343 123 365T147 404T159 419Q161 417 149 391Q142 377 135 359T128 326Q128 318 131 312Q133 308 120 298T98 288Z" />
<glyph unicode="&#x201d;" glyph-name="quotedblright" horiz-adv-x="128" d="M7 295Q5 297 17 323Q24 339 31 356T39 387Q39 391 38 394T35 402Q33 405 39 410T53 421T68 426Q82 426 82 418Q82 413 77 405T67 389Q57 371 44 349T20 310T7 295ZM75 288Q74 289
77 296T86 315Q93 331 100 348T107 381Q107 389 104 395Q102 398 108 403T122 414T136 419Q151 419 151 411Q151 405 146 397T136 381Q126 363 112 341T88 303T75 288Z" />
<glyph unicode="&#x201e;" glyph-name="quotedblbase" horiz-adv-x="360" d="M80 -100Q79 -99 83 -88T96 -58Q107 -33 118 -6T129 43Q129 53 124 65Q121 69 130 78T152 95T174 102Q197 102 197 90Q197 82 189 70T173 45Q161 24 146 -1T117 -50T92 -87T80 -100ZM204
-100Q203 -99 207 -88T220 -58Q231 -33 242 -6T253 43Q253 53 248 65Q245 69 254 78T276 95T298 102Q321 102 321 90Q321 82 313 70T297 45Q285 24 270 -1T241 -50T216 -87T204 -100Z" />
<glyph unicode="&#x2022;" glyph-name="bullet" horiz-adv-x="514" d="M261 166Q228 166 201 182T158 225T142 285Q142 318 158 345T201 388T261 404Q294 404 321 388T364 345T380 285Q380 252 364 225T321 182T261 166Z" />
<glyph unicode="&#x2039;" glyph-name="guilsinglleft" horiz-adv-x="204" d="M217 136L209 140Q184 174 153 200T88 250Q85 253 85 256Q85 264 100 288T137 341T177 395T203 431Q209 442 222 442Q229 442 229 436Q229 433 220 419T198 384T171 342T145 305T130
283Q136 276 151 257T184 216T214 175T227 149Q227 144 226 140T217 136Z" />
<glyph unicode="&#x203a;" glyph-name="guilsinglright" horiz-adv-x="204" d="M91 129Q85 129 85 135Q85 138 94 152T116 187T143 229T169 266T184 288Q178 295 163 314T129 355T99 397T86 422Q86 435 97 435L105 431Q130 397 161 372T226 321Q229 320 229 315Q229
307 214 283T177 230T136 176T110 140Q103 129 91 129Z" />
</font>
</defs>
</svg>
