<?xml version="1.0" standalone="no"?>
<!DOCTYPE svg PUBLIC "-//W3C//DTD SVG 1.1//EN" "http://www.w3.org/Graphics/SVG/1.1/DTD/svg11.dtd">
<svg xmlns="http://www.w3.org/2000/svg">
<defs >
<font id="HinaMincho" horiz-adv-x="961" ><font-face
    font-family="Hina Mincho"
    units-per-em="1000"
    panose-1="2 0 0 0 0 0 0 0 0 0"
    ascent="1160"
    descent="-288"
    alphabetic="0" />
<glyph unicode=" " glyph-name="space" horiz-adv-x="300" />
<glyph unicode="!" glyph-name="exclam" horiz-adv-x="212" d="M113 159T118 170T123 201Q123 292 129 366T137 453Q142 498 145 546T149 638Q149 668 138 684T105 700Q84 700 73 684T62 638Q62 569 73 459Q87 319 87 201Q87 178 92 169T105 159Q113 159 118 170ZM125
0T138 13T152 46Q152 65 139 78T106 92Q87 92 74 79T60 46Q60 27 73 14T106 0Q125 0 138 13Z" />
<glyph unicode="&quot;" glyph-name="quotedbl" horiz-adv-x="244" d="M56 506T61 498T72 490Q78 490 83 498T90 521Q97 581 103 671Q104 687 95 695T71 704Q58 704 49 696T40 673Q44 599 54 521Q56 506 61 498ZM157 506T162 498T173 490Q179 490 184 498T191
521Q198 581 204 671Q205 687 196 695T172 704Q159 704 150 696T141 673Q145 599 155 521Q157 506 162 498Z" />
<glyph unicode="#" glyph-name="numbersign" horiz-adv-x="517" d="M20 254T30 268T53 282Q105 277 120 277Q140 277 144 299L151 338L160 386Q163 412 138 412Q108 412 70 407H68Q63 407 60 411T57 421Q57 436 67 450T90 463Q126 459 151 459Q171 459 176 482L207
676Q210 702 229 702Q238 702 245 696T253 677Q253 671 252 668L215 485Q213 472 219 465T238 457H324Q346 457 351 480L382 676Q385 702 404 702Q413 702 420 696T428 677Q428 671 427 668L391 486Q389 474 394 467T412 459Q449 459 485 463H487Q492 463 494 459T497
449Q497 435 488 421T465 407L401 411Q377 413 373 389L365 345L358 303Q356 290 361 283T379 276Q403 276 448 281H450Q455 281 457 277T460 267Q460 253 451 239T428 225L369 229Q346 231 341 206Q317 52 312 19Q311 6 304 0T288 -7Q277 -7 271 2T267 27L302
204Q304 217 299 224T280 232Q264 233 231 233H194Q172 233 167 210Q146 85 137 19Q136 6 129 0T113 -7Q102 -7 96 2T92 27L127 204Q129 216 124 223T106 231Q85 231 33 225H31Q26 225 23 229T20 240Q20 254 30 268ZM183 302Q181 289 186 282T205 275L240 274H292Q315
275 319 297L326 338L335 387Q337 399 331 406T312 414H268H225Q202 414 198 391L190 345L183 302Z" />
<glyph unicode="$" glyph-name="dollar" horiz-adv-x="507" d="M20 236Q20 245 24 249T34 254Q39 254 43 250T47 239Q47 188 72 143T140 68T232 30Q245 28 251 34T258 53Q259 119 259 297Q259 317 240 326Q177 353 136 377T68 439T41 529Q41 597 92 644T232 699Q257
701 257 725Q256 738 256 755Q256 768 262 774T277 780Q286 780 292 773T298 753L297 718Q297 696 320 690Q346 683 365 675T410 652Q426 643 429 643Q439 643 439 670Q439 678 443 681T452 685Q458 685 462 681T466 668V478Q466 467 462 461T452 455Q447 455 443
461T439 478Q439 531 408 581T325 655Q319 658 313 658Q305 658 301 652T296 635Q294 509 294 409Q294 388 313 379Q394 339 440 289T487 165Q487 99 441 58T321 4Q297 -1 297 -23L298 -53Q299 -66 293 -73T277 -81Q268 -81 262 -74T256 -53L257 -25Q257 -1 231
1Q176 6 139 25T82 60T59 76Q53 76 50 64T47 36Q47 28 43 24T33 19Q27 19 24 23T20 35V236ZM100 511T131 479T229 417Q237 414 242 414Q250 414 254 420T259 437L258 648Q258 660 246 666T212 670Q156 661 128 632T100 563Q100 511 131 479ZM318 288T311 288Q303
288 299 282T294 266Q294 173 296 55Q296 43 303 37T323 33Q422 51 422 156Q422 227 325 284Q318 288 311 288Z" />
<glyph unicode="%" glyph-name="percent" horiz-adv-x="678" d="M110 -14T103 -17T88 -21Q78 -21 71 -14T64 4Q64 11 69 20T78 35T85 45L157 145Q254 277 301 344Q497 625 545 702Q556 719 572 719Q584 719 591 711T598 695Q598 686 592 675T577 654Q558 626 517
571Q435 460 373 370Q302 270 197 113Q123 5 115 -7Q110 -14 103 -17ZM141 393T110 411T60 463T40 544Q40 592 59 627T110 680T174 698Q207 698 238 680T288 627T308 544Q308 497 289 463T238 411T174 393Q141 393 110 411ZM211 416T229 452T247 545Q247 602 229
638T174 675Q137 675 119 639T100 545Q100 489 118 453T174 416Q211 416 229 452ZM471 4T440 22T390 74T370 155Q370 203 389 238T440 291T504 309Q537 309 568 291T618 238T638 155Q638 108 619 74T568 22T504 4Q471 4 440 22ZM541 27T559 63T577 156Q577 213
559 249T504 286Q467 286 449 250T430 156Q430 100 448 64T504 27Q541 27 559 63Z" />
<glyph unicode="&amp;" glyph-name="ampersand" horiz-adv-x="777" d="M40 250T58 282T106 336T184 385Q203 396 203 412Q203 421 195 434Q172 471 161 500T149 558Q149 599 171 631T231 682T309 700Q353 700 384 684T430 641T446 586Q446 543 419 507T341 437Q323
425 323 410Q323 399 331 388Q424 269 505 183Q517 170 530 170Q546 170 554 187Q583 241 587 308Q589 343 574 365T530 388Q521 388 516 387Q513 386 508 386Q499 386 494 391T489 402Q489 409 495 414T514 419H707Q718 419 724 414T731 402Q731 395 724 390T704
387Q696 389 689 389Q671 389 656 380T638 349Q624 236 574 157Q567 146 567 134Q567 119 580 107Q612 77 632 66T668 55Q691 55 707 76Q708 77 711 81T718 87T726 89Q737 89 737 78Q737 74 734 66Q726 50 704 33T653 6T596 0Q564 4 516 44Q502 55 489 55Q479 55
466 47Q389 0 289 0Q219 0 163 23T73 93T40 204Q40 250 58 282ZM221 562T233 536T268 476Q279 459 295 459Q307 459 317 469Q345 495 360 523T376 578Q376 618 356 645T299 673Q266 673 244 650T221 590Q221 562 233 536ZM120 226T120 216Q120 185 136 147T195
79T306 50Q369 50 426 73Q445 82 445 98Q445 109 434 123Q365 197 258 344Q247 359 232 359Q217 359 197 345Q158 319 142 295T121 229Q120 226 120 216Z" />
<glyph unicode="&apos;" glyph-name="quotesingle" horiz-adv-x="143" d="M56 506T61 498T72 490Q78 490 83 498T90 521Q97 581 103 671Q104 687 95 695T71 704Q58 704 49 696T40 673Q44 599 54 521Q56 506 61 498Z" />
<glyph unicode="(" glyph-name="parenleft" horiz-adv-x="266" d="M218 -124T229 -137T240 -158Q240 -183 211 -183Q194 -183 173 -153Q109 -63 75 40T40 255Q40 368 76 473T177 663Q201 694 211 694Q225 694 225 678Q225 669 215 656T201 637Q150 561 123 461T96
254Q96 154 127 59T213 -116Q218 -124 229 -137Z" />
<glyph unicode=")" glyph-name="parenright" horiz-adv-x="286" d="M68 635T57 648T46 669Q46 694 75 694Q92 694 113 664Q177 574 211 471T246 256Q246 143 210 38T109 -152Q85 -183 75 -183Q61 -183 61 -167Q61 -158 71 -145T85 -126Q136 -50 163 50T190 257Q190
357 159 452T73 627Q68 635 57 648Z" />
<glyph unicode="*" glyph-name="asterisk" horiz-adv-x="366" d="M20 431T20 438Q20 453 35 461Q57 474 91 488L131 507Q140 512 140 517Q140 524 131 528L92 546Q54 562 35 573Q20 581 20 595Q20 600 24 608Q33 622 45 622Q52 622 60 617Q84 601 97 591Q136 564
149 556Q154 553 158 553Q168 553 167 566L158 673Q157 685 164 693T183 701Q194 701 201 694T208 673Q208 647 203 610L199 566V564Q199 553 209 553Q213 553 218 556Q235 567 252 581Q301 614 305 617Q313 622 320 622Q333 622 342 608Q346 600 346 596Q346 582
330 573Q313 563 278 548Q269 544 258 539T234 527Q225 524 225 517Q225 511 234 506L269 490Q314 470 331 461Q337 457 341 451T345 438Q345 432 342 426Q334 412 320 412Q311 412 305 417Q271 443 216 479Q212 482 207 482Q202 482 200 479T198 468L205 392L208
361Q209 349 202 341T183 333Q172 333 165 341T158 361L167 468V470Q167 482 157 482Q153 482 149 479Q91 439 61 417Q53 412 47 412Q35 412 24 426Q20 431 20 438Z" />
<glyph unicode="+" glyph-name="plus" horiz-adv-x="605" d="M547 292T556 284T565 263Q565 251 556 243T529 234Q492 234 452 237Q388 241 323 242Q324 145 329 78L331 38Q332 20 324 10T303 0Q289 0 281 10T274 38Q277 79 278 126T279 242Q184 241 119 236Q106
236 78 234Q60 233 50 242T40 263Q40 276 50 284T78 291Q119 288 165 287T279 286Q279 324 276 447Q274 475 274 489Q273 507 281 516T303 525Q315 525 323 516T331 489Q331 453 328 412Q324 350 323 286Q362 286 488 289Q514 291 529 291Q547 292 556 284Z" />
<glyph unicode="," glyph-name="comma" horiz-adv-x="173" d="M88 -20T88 -45Q88 -62 78 -78T47 -100Q41 -102 37 -107T33 -118Q33 -124 37 -127T47 -131Q60 -131 83 -111T123 -61T140 -1Q140 33 125 56T81 79Q66 79 52 65T38 30Q38 14 46 6T71 -11Q88 -20 88 -45Z" />
<glyph unicode="-" glyph-name="hyphen" horiz-adv-x="334" d="M51 156T46 164T40 184Q40 196 45 204T62 211Q126 207 168 207Q211 207 272 211Q294 212 294 184Q294 156 272 157L235 160Q198 163 168 163Q139 163 102 160L62 157Q51 156 46 164Z" />
<glyph unicode="." glyph-name="period" horiz-adv-x="165" d="M64 0T52 12T40 43Q40 61 52 73T83 85Q100 85 112 73T125 43Q125 25 113 13T83 0Q64 0 52 12Z" />
<glyph unicode="/" glyph-name="slash" horiz-adv-x="406" d="M80 -69T73 -74T58 -80Q47 -80 39 -73T30 -53Q30 -47 50 6T78 79Q89 109 119 187T175 336Q295 667 322 755Q326 766 333 772T350 778Q360 778 368 771T376 751Q376 746 363 710T329 622Q319 597 287
513T223 340Q157 156 84 -58Q80 -69 73 -74Z" />
<glyph unicode="0" glyph-name="zero" horiz-adv-x="500" d="M188 0T137 38T56 155T26 349Q26 464 56 543T137 661T250 700Q312 700 363 661T444 543T474 349Q474 234 444 156T363 39T250 0Q188 0 137 38ZM330 27T362 109T394 349Q394 506 362 589T250 673Q170
673 138 590T106 349Q106 192 138 110T250 27Q330 27 362 109Z" />
<glyph unicode="1" glyph-name="one" horiz-adv-x="500" d="M219 538T186 538Q177 538 170 535T148 522Q126 508 114 501Q103 495 94 495Q88 495 85 497T81 504Q81 516 102 527Q153 554 187 591T257 684Q267 700 280 700Q289 700 295 691T300 666Q297 633 294
536T290 351Q290 104 300 65Q310 26 379 26Q388 26 397 27T416 28H420Q429 28 434 24T439 14Q439 9 434 5T418 1H255H92Q82 1 77 5T71 15Q71 21 77 25T94 28Q114 25 133 25Q203 25 212 65Q220 98 220 309L219 496Q219 538 186 538Z" />
<glyph unicode="2" glyph-name="two" horiz-adv-x="500" d="M37 -1T30 3T23 14Q23 27 27 34T43 47Q77 63 153 144T289 326T349 512Q349 560 332 593T288 643T232 660Q189 660 156 634T108 557Q95 515 71 515Q64 515 58 519T51 531Q51 557 76 598T147 670T255 701Q301
701 341 681T405 620T429 525Q429 466 404 411T342 307T241 186Q185 122 158 88Q154 84 154 79Q154 75 157 73T167 70H280Q334 70 363 77T407 108T421 178Q421 190 427 197T440 204Q447 204 452 198T457 180Q457 155 453 122L446 37Q445 17 437 9T419 1Q348 8 233
8Q161 8 108 4T49 -1Q37 -1 30 3Z" />
<glyph unicode="3" glyph-name="three" horiz-adv-x="500" d="M185 -1T147 11T80 47Q52 71 52 97Q52 110 58 118T76 126Q101 126 120 90Q137 60 167 44T232 28Q272 28 308 48T366 107T389 204Q389 259 368 294T313 346T244 363Q231 363 214 359T191 355Q180 355
174 360T168 373Q168 382 177 388T203 395Q238 395 268 412T317 464T336 547Q336 600 307 629T233 659Q194 659 161 633T115 558Q109 538 98 527T74 515Q66 515 61 521T55 537Q55 566 80 604T150 671T253 699Q301 699 338 680T397 626T418 548Q418 494 387 460T318
410Q311 408 311 407T318 405Q351 400 386 379T445 315T470 212Q470 146 435 98T344 24T227 -1Q185 -1 147 11Z" />
<glyph unicode="4" glyph-name="four" horiz-adv-x="500" d="M47 170Q26 170 26 179Q26 186 35 199T48 218Q123 332 164 404T278 610Q296 640 318 683Q323 692 334 696T358 701Q369 701 375 698T378 689L109 233Q106 229 106 224Q106 215 119 215H282Q289 215
293 219T297 230V404Q297 419 321 441T359 464Q367 464 367 455V230Q367 223 371 219T382 215H467Q474 215 474 208Q474 199 463 186T442 172H382Q375 172 371 168T367 157V104Q367 97 367 73T376 37T408 25Q412 25 428 27H433Q441 27 446 23T451 14Q451 8 446
4T430 0H230Q220 0 215 4T209 14Q209 20 215 24T232 27Q238 26 248 26Q274 26 284 40T296 88Q297 99 297 156Q297 172 282 172L47 170Z" />
<glyph unicode="5" glyph-name="five" horiz-adv-x="500" d="M140 674T148 680T179 686Q250 686 311 693T409 714Q411 715 415 715Q425 715 425 704Q425 692 413 673T384 638T355 621Q309 615 279 614T181 613Q167 613 164 600L134 461V457Q134 445 147 445Q219
445 288 426T406 360T454 233Q454 161 415 109T316 30T192 3Q118 3 71 37Q46 55 46 77Q46 89 53 97T73 106Q94 106 114 83Q134 60 161 49T219 37Q261 37 299 57T360 117T384 208Q384 269 348 307T257 362T145 379Q116 379 88 374L80 373Q65 373 65 389Q65 395 76
425Q119 544 137 655Q140 674 148 680Z" />
<glyph unicode="6" glyph-name="six" horiz-adv-x="500" d="M185 -1T135 27T56 112T27 246Q27 321 57 405T164 569T371 697Q385 702 400 702Q414 702 422 696T430 680Q430 671 422 663T400 654Q339 648 279 610T173 504T108 345V342Q108 336 112 335T121 338Q154
371 197 388T286 406Q335 406 376 385T444 321T473 214Q475 162 445 112T361 31T248 -1Q185 -1 135 27ZM303 32T334 53T384 112T403 195Q403 273 361 315T258 357Q212 357 170 332T102 261Q99 255 99 244Q102 138 148 85T265 32Q303 32 334 53Z" />
<glyph unicode="7" glyph-name="seven" horiz-adv-x="500" d="M208 15T197 5T174 -6Q163 -6 157 1T150 19Q150 26 153 35Q192 128 232 217T305 375Q351 475 371 522T396 601V604Q396 616 382 616H167Q121 616 99 607T67 572T58 496Q58 484 52 477T38 470Q32 470
27 476T22 494Q22 531 33 644Q37 682 60 680Q128 674 258 674Q383 674 443 681Q461 683 470 676T480 656Q480 645 474 633Q448 576 416 511Q358 395 312 290T215 35Q208 15 197 5Z" />
<glyph unicode="8" glyph-name="eight" horiz-adv-x="500" d="M35 319T169 388Q177 392 177 398Q177 404 170 408Q86 463 86 544Q86 591 110 625T173 678T255 697Q323 697 372 658T421 544Q421 462 337 416Q329 412 329 406Q329 401 336 398Q474 323 474 195Q474
134 443 90T360 23T252 0Q196 0 147 22T66 86T35 186Q35 319 169 388ZM154 523T180 491T255 434Q261 431 265 431Q271 431 275 434Q318 458 335 489T352 563Q352 613 321 641T249 670Q210 670 182 642T154 566Q154 523 180 491ZM95 137T117 101T177 46T255 27Q296
27 332 45T392 98T415 177Q415 230 393 266T335 324T243 371Q237 373 234 373Q228 373 221 369Q159 339 127 292T95 186Q95 137 117 101Z" />
<glyph unicode="9" glyph-name="nine" horiz-adv-x="500" d="M25 539T55 589T139 670T252 702Q315 702 365 674T444 589T473 455Q473 380 443 296T336 132T129 4Q115 -1 100 -1Q86 -1 78 5T70 21Q70 30 78 38T100 47Q161 53 221 91T327 197T392 356V359Q392 365
388 366T379 363Q346 330 303 313T214 295Q165 295 124 316T56 380T27 487Q25 539 55 589ZM97 428T139 386T242 344Q288 344 330 369T398 440Q401 446 401 453Q400 561 354 615T235 669Q198 669 166 647T116 588T97 506Q97 428 139 386Z" />
<glyph unicode=":" glyph-name="colon" horiz-adv-x="211" d="M87 227T74 240T60 273Q60 292 73 306T106 320Q125 320 138 306T151 273Q151 254 138 241T106 227Q87 227 74 240ZM87 0T74 13T60 47Q60 65 73 79T106 93Q124 93 137 79T151 47Q151 27 138 14T106
0Q87 0 74 13Z" />
<glyph unicode=";" glyph-name="semicolon" horiz-adv-x="173" d="M67 227T54 240T40 273Q40 292 53 306T86 320Q105 320 118 306T131 273Q131 254 118 241T86 227Q67 227 54 240ZM83 -6T83 -19Q83 -29 76 -39T54 -56Q48 -58 45 -62T42 -72Q42 -83 54 -83Q59 -83
66 -80Q96 -66 114 -35T133 27Q133 51 120 68T85 85Q66 85 54 73T42 43Q42 13 71 0Q83 -6 83 -19Z" />
<glyph unicode="&lt;" glyph-name="less" horiz-adv-x="505" d="M385 26T343 49Q256 97 231 110Q169 142 126 163T42 203Q20 212 20 229Q20 237 26 244T42 255Q83 273 126 294T231 348Q256 361 343 409Q385 432 416 448Q432 455 439 455Q452 455 458 446T465 429Q465
415 444 404Q407 385 365 366Q311 341 254 313L227 299Q142 254 123 243Q114 239 114 230Q114 222 123 216Q152 199 216 165L254 145Q297 123 370 89Q416 69 444 54Q465 43 465 29Q465 20 457 12T438 3Q432 3 416 10Q385 26 343 49Z" />
<glyph unicode="=" glyph-name="equal" horiz-adv-x="605" d="M61 423T51 431T40 452Q40 466 50 474T78 481Q122 478 174 477T303 476Q351 476 486 479Q514 481 529 481Q547 482 556 474T565 452Q565 440 556 432T529 424Q492 424 452 427Q380 431 303 431Q217
431 173 430T78 424Q61 423 51 431ZM60 212T50 221T40 242Q40 255 50 263T78 270Q183 265 303 265Q351 265 486 268Q514 270 529 270Q565 271 565 242Q565 230 556 222T529 213Q492 213 452 216Q362 221 303 221Q233 221 123 216L78 213Q60 212 50 221Z" />
<glyph unicode="&gt;" glyph-name="greater" horiz-adv-x="543" d="M111 3T105 3Q94 3 86 11T78 29Q78 43 99 54Q127 69 173 89Q246 123 289 145L327 165Q391 199 420 216Q429 222 429 230Q429 239 420 243Q401 254 316 299L289 313Q232 341 178 366Q136 385 99
404Q78 415 78 429Q78 437 84 446T104 455Q111 455 127 448Q158 432 200 409Q287 361 312 348Q374 316 417 295T501 255Q511 251 517 244T523 229Q523 212 501 203Q460 185 417 164T312 110Q287 97 200 49Q158 26 127 10Q111 3 105 3Z" />
<glyph unicode="?" glyph-name="question" horiz-adv-x="467" d="M241 126T245 136T249 161Q247 189 247 211Q247 251 254 286Q259 311 276 325T327 360Q352 374 366 383T391 406Q416 435 426 461T437 517Q437 568 410 610T336 676T236 700Q174 700 130 675T63
610T40 534Q40 487 64 453T127 419Q138 419 146 424T154 441Q154 452 150 461T134 481Q123 491 117 507T110 555Q110 583 125 610T168 654T227 672Q289 672 328 636T367 537Q367 456 297 402Q255 370 238 348T216 305T212 238Q212 229 214 183L215 161Q217 126
232 126Q241 126 245 136ZM251 1T262 12T273 39Q273 55 262 67T235 79Q218 79 207 67T195 39Q195 23 206 12T235 1Q251 1 262 12Z" />
<glyph unicode="@" glyph-name="at" horiz-adv-x="901" d="M332 -201T244 -154T103 -18T50 186Q50 293 105 391T255 549T467 609Q599 609 687 554T815 416T850 255Q845 177 810 125T727 48T633 23Q592 23 566 47T534 112Q533 121 530 121Q529 121 524 115Q498
77 463 51T390 24Q274 24 274 147Q274 201 312 253T402 337T493 370Q542 370 570 354Q575 351 579 351Q585 351 591 357Q604 370 619 370Q630 370 636 363T643 343Q643 335 636 318T626 294Q608 257 598 225T587 158Q587 117 604 90T661 63Q691 63 724 89T779 161T801
265Q801 360 757 428T638 532T477 568Q376 568 294 514T166 370T119 182Q119 80 166 2T290 -118T448 -161Q528 -161 592 -136T691 -69Q714 -42 729 -42Q739 -42 745 -48T751 -63Q751 -79 713 -113T605 -174T438 -201Q332 -201 244 -154ZM445 75T473 99T522 168T551
274V279Q551 286 547 293Q523 323 467 323Q434 323 404 304T355 250T336 170Q336 128 357 102T417 75Q445 75 473 99Z" />
<glyph unicode="A" glyph-name="A" horiz-adv-x="790" d="M36 1Q26 1 21 5T15 15Q15 21 21 25T38 28Q71 25 76 25Q122 25 139 57Q150 77 228 294T325 562L364 671Q377 700 395 700Q405 700 412 695T426 673Q457 597 522 404Q535 367 577 247T645 68Q655 45 673
36T720 26Q730 26 752 28H756Q765 28 770 24T775 14Q775 9 770 5T754 1H448Q438 1 433 5T427 15Q427 21 433 25T450 28Q476 26 489 26Q562 26 557 68Q554 94 481 309Q477 322 464 322H290Q278 322 273 310Q188 71 187 52Q186 37 199 31T244 24Q279 24 320 28H323Q332
28 337 24T343 14Q343 9 338 5T322 1H36ZM295 372Q294 369 294 365Q294 354 307 354H448Q456 354 459 359T460 371L388 581Q385 591 379 591Q372 591 369 581L295 372Z" />
<glyph unicode="B" glyph-name="B" horiz-adv-x="601" d="M581 131T516 68T304 2Q243 1 40 1Q30 1 25 5T20 14Q20 21 26 25T43 28Q67 26 78 26Q108 26 126 35T150 68Q159 104 159 341Q159 578 150 614Q144 637 126 646T78 656Q67 656 43 654H39Q30 654 25 658T20
668Q20 673 25 677T41 681H286Q366 681 418 647T470 541Q470 508 451 479T403 431Q393 424 393 421Q393 416 407 415Q488 405 534 353T581 226Q581 131 516 68ZM229 443Q229 431 235 424T254 417Q325 419 364 453T403 543Q403 592 373 623T294 654Q267 654 249
638T230 589L229 443ZM406 29T457 77T509 207Q509 217 507 237Q498 314 444 353T302 393Q278 393 253 390Q229 387 229 363V158V103Q230 61 253 45T324 29Q406 29 457 77ZM40 1H41H40Z" />
<glyph unicode="C" glyph-name="C" horiz-adv-x="658" d="M284 0T207 39T80 157T30 349Q30 462 80 541T207 660T364 700Q438 700 491 679T576 629Q583 623 588 623Q598 623 598 650Q598 658 602 661T611 665Q617 665 621 661T625 648V548V458Q625 447 621 441T611
435Q606 435 602 441T598 458Q598 505 568 555T485 639T364 673Q293 673 235 632T144 518T110 349Q110 255 143 182T235 68T364 27Q448 27 501 71T577 173T601 269Q601 276 605 280T614 284Q620 284 624 280T628 266V176V65Q628 57 625 53T615 49Q609 49 605 53T601
66Q601 79 599 88T590 98Q587 98 581 91Q556 56 498 28T364 0Q284 0 207 39Z" />
<glyph unicode="D" glyph-name="D" horiz-adv-x="693" d="M31 1T26 5T20 15Q20 21 26 25T43 28Q67 26 78 26Q106 26 123 35T146 68Q155 104 155 341Q155 578 146 614Q140 637 123 646T78 656Q67 656 43 654H39Q30 654 25 658T20 668Q20 673 25 677T41 681H337Q434
682 512 646T636 534T683 341Q683 225 637 149T512 37T337 1H41Q31 1 26 5ZM413 25T474 63T572 173T608 341Q608 437 572 508T475 616T337 654Q300 654 284 653T253 643T234 614Q225 578 225 341Q225 104 234 68Q241 42 260 36T304 29T338 28Q413 25 474 63Z" />
<glyph unicode="E" glyph-name="E" horiz-adv-x="628" d="M41 1Q31 1 26 5T20 15Q20 21 26 25T43 28Q67 26 78 26Q106 26 123 35T146 68Q155 104 155 341Q155 578 146 614Q140 637 123 646T78 656Q67 656 43 654H39Q30 654 25 658T20 668Q20 673 25 677T41 681L550
680Q573 680 577 644Q588 545 588 494Q588 483 584 477T572 470Q564 470 558 477T552 496Q552 595 495 632Q471 648 433 651T315 654Q277 654 259 647T234 614Q225 578 225 383Q225 357 251 357Q339 357 373 363Q398 367 411 387T424 433Q424 444 423 449V452Q423
458 427 461T436 464Q442 464 446 461T450 450V242Q450 235 446 232T436 228Q430 228 426 232T423 243Q424 248 424 259Q424 281 412 297T373 319Q354 323 324 324T251 325Q225 325 225 299Q225 104 234 68Q241 42 262 35T324 28H384Q427 28 471 34Q516 40 539
79T563 206Q563 217 568 223T579 229Q587 229 592 223T598 203Q598 137 592 53Q590 21 583 11T555 0H509Q469 1 339 1H41Z" />
<glyph unicode="F" glyph-name="F" horiz-adv-x="602" d="M41 1Q31 1 26 5T20 15Q20 21 26 25T43 28Q67 26 78 26Q108 26 126 35T150 68Q159 104 159 341Q159 578 150 614Q144 637 126 646T78 656Q67 656 43 654H39Q30 654 25 658T20 668Q20 673 25 677T41 681L554
680Q577 680 581 644Q592 545 592 494Q592 483 588 477T576 470Q568 470 562 477T556 496Q556 595 499 632Q475 648 438 651T322 654Q283 654 264 647T238 614Q229 578 229 383Q229 357 255 357Q343 357 377 363Q402 367 415 387T428 433Q428 444 427 449V452Q427
458 431 461T440 464Q446 464 450 461T454 450V242Q454 235 450 232T440 228Q434 228 430 232T427 243Q428 248 428 259Q428 281 416 297T377 319Q358 323 328 324T255 325Q229 325 229 299Q229 104 238 68Q244 45 262 36T310 26Q321 26 345 28H349Q358 28 363
24T368 14Q368 9 363 5T347 1H41Z" />
<glyph unicode="G" glyph-name="G" horiz-adv-x="667" d="M265 0T191 39T68 157T20 349Q20 462 68 541T190 660T344 700Q424 700 478 679T566 629Q573 623 578 623Q588 623 588 650Q588 658 592 661T601 665Q607 665 611 661T615 648V548V458Q615 447 611 441T601
435Q596 435 592 441T588 458Q588 505 558 555T471 639T344 673Q273 673 218 632T131 518T100 349Q100 254 131 181T217 68T344 27Q421 27 472 64T532 157Q535 178 535 194Q535 239 514 257T445 276Q430 276 390 272H386Q377 272 372 276T367 286Q367 291 372 295T388
299H630Q638 299 642 296T647 287Q647 281 641 277T624 272Q617 272 616 266T615 232Q615 163 582 110T487 29T344 0Q265 0 191 39Z" />
<glyph unicode="H" glyph-name="H" horiz-adv-x="798" d="M31 1T26 5T20 15Q20 21 26 25T43 28Q67 26 78 26Q108 26 126 35T150 68Q159 104 159 341Q159 578 150 614Q144 637 126 646T78 656Q67 656 43 654H39Q30 654 25 658T20 668Q20 673 25 677T41 681H347Q357
681 362 677T368 667Q368 661 362 657T345 654Q321 656 310 656Q280 656 262 647T238 614Q229 577 229 381Q229 355 254 355H544Q569 355 569 381Q569 577 560 614Q554 637 536 646T488 656Q477 656 453 654H449Q440 654 435 658T430 668Q430 673 435 677T451 681H757Q767
681 772 677T778 667Q778 661 772 657T755 654Q731 656 720 656Q690 656 672 647T648 614Q639 578 639 341Q639 104 648 68Q654 45 672 36T720 26Q731 26 755 28H759Q768 28 773 24T778 14Q778 9 773 5T757 1H451Q441 1 436 5T430 15Q430 21 436 25T453 28Q477
26 488 26Q518 26 536 35T560 68Q569 104 569 297Q569 323 544 323H254Q229 323 229 297Q229 104 238 68Q244 45 262 36T310 26Q321 26 345 28H349Q358 28 363 24T368 14Q368 9 363 5T347 1H41Q31 1 26 5Z" />
<glyph unicode="I" glyph-name="I" horiz-adv-x="388" d="M31 1T26 5T20 15Q20 21 26 25T43 28Q67 26 78 26Q108 26 126 35T150 68Q159 104 159 341Q159 578 150 614Q144 637 126 646T78 656Q67 656 43 654H39Q30 654 25 658T20 668Q20 673 25 677T41 681H194H347Q357
681 362 677T368 667Q368 661 362 657T345 654Q321 656 310 656Q280 656 262 647T238 614Q229 578 229 341Q229 104 238 68Q244 45 262 36T310 26Q321 26 345 28H349Q358 28 363 24T368 14Q368 9 363 5T347 1H194H41Q31 1 26 5Z" />
<glyph unicode="J" glyph-name="J" horiz-adv-x="530" d="M131 0T94 17T34 68T10 146Q10 178 25 198T68 218Q89 218 100 205T112 174Q112 158 102 147T71 137Q69 125 69 120Q69 79 100 53T171 27Q233 27 267 82T301 220L302 397Q302 574 292 614Q286 636 260 646T200
656L161 654Q152 654 147 658T142 668Q142 673 147 677T163 681H326H489Q499 681 504 677T510 667Q510 661 505 658T490 654Q480 654 471 655T452 656Q422 656 404 647T380 614Q370 572 370 381L371 225Q371 160 347 109T277 29T170 0Q131 0 94 17Z" />
<glyph unicode="K" glyph-name="K" horiz-adv-x="755" d="M31 1T26 5T20 15Q20 21 26 25T43 28Q67 26 78 26Q108 26 126 35T150 68Q159 104 159 341Q159 578 150 614Q144 637 126 646T78 656Q67 656 43 654H39Q30 654 25 658T20 668Q20 673 25 677T41 681H347Q357
681 362 677T368 667Q368 661 362 657T345 654Q321 656 310 656Q280 656 262 647T238 614Q229 575 229 364Q229 354 233 348T244 341Q250 341 260 349L534 588Q551 602 551 617Q551 633 531 643T479 654Q472 654 456 652H453Q446 652 442 656T437 666Q437 671 442
675T455 679H693Q702 679 706 675T711 665Q711 659 706 655T692 652Q673 655 644 638T589 599L383 415Q373 406 373 396Q373 388 379 380L599 75Q615 53 648 39T712 28H716Q725 28 730 24T735 14Q735 9 730 5T714 1H428Q418 1 413 5T407 15Q407 21 413 25T430 28Q448
26 458 26Q486 26 504 32T523 52Q523 59 517 68L319 357L243 289Q229 277 229 258Q230 173 231 129T238 68Q244 45 262 36T310 26Q321 26 345 28H349Q358 28 363 24T368 14Q368 9 363 5T347 1H41Q31 1 26 5Z" />
<glyph unicode="L" glyph-name="L" horiz-adv-x="622" d="M343 1H194H41Q31 1 26 5T20 15Q20 20 25 24T39 28L78 27Q106 27 125 35T150 68Q159 104 159 341Q159 576 150 612Q144 636 125 645T79 654Q63 654 41 652H38Q30 652 25 656T20 665Q20 671 25 675T41 679H194H347Q357
679 362 675T368 665Q368 659 362 655T345 652Q321 654 310 654Q280 654 262 645T238 612Q229 576 229 341Q229 104 238 68Q245 42 267 35T332 28H363Q415 28 465 34Q510 40 533 79T557 206Q557 217 562 223T573 229Q581 229 586 223T592 203Q592 137 586 53Q584
21 577 11T549 0L343 1Z" />
<glyph unicode="M" glyph-name="M" horiz-adv-x="932" d="M41 1Q31 1 26 5T20 15Q20 21 26 25T43 28Q67 26 78 26Q108 26 126 35T150 68Q158 99 170 278T183 557Q183 601 180 614Q174 637 156 646T108 656Q97 656 73 654H69Q60 654 55 658T50 668Q50 673 55 677T71
681H209Q232 681 239 669Q241 665 245 653L444 181Q448 171 454 171Q461 171 464 180L668 654Q671 662 676 670Q682 681 708 681H861Q871 681 876 677T882 667Q882 661 876 657T859 654Q835 656 824 656Q794 656 776 647T752 614Q749 601 749 557Q749 458 761 279T782
68Q788 45 806 36T854 26Q865 26 889 28H893Q902 28 907 24T912 14Q912 9 907 5T891 1H585Q575 1 570 5T564 15Q564 21 570 25T587 28Q611 26 622 26Q652 26 670 35T694 68Q697 82 697 119Q697 191 681 449L675 537Q674 549 667 549Q662 549 657 540L462 85Q456
71 449 63T434 55Q420 55 409 80L243 486Q239 495 233 495Q227 495 225 483Q217 388 211 285T205 121Q205 82 208 68Q214 45 232 36T280 26Q291 26 315 28H319Q328 28 333 24T338 14Q338 9 333 5T317 1H41Z" />
<glyph unicode="N" glyph-name="N" horiz-adv-x="748" d="M41 1Q31 1 26 5T20 15Q20 21 26 25T43 28Q67 26 78 26Q108 26 126 35T150 68Q160 104 160 341Q160 578 150 614Q144 637 126 646T78 656Q67 656 43 654H39Q30 654 25 658T20 668Q20 673 25 677T41 681H179Q193
681 204 678T220 668Q325 500 407 386T597 144Q602 137 607 137Q615 137 615 150L616 599Q616 630 593 643T535 656Q523 656 505 654H502Q494 654 490 658T486 668Q486 673 490 677T503 681H741Q749 681 753 677T758 667Q758 661 753 657T739 654Q733 655 720 655Q692
655 674 641T656 599V44Q656 23 648 13T626 2Q613 2 605 13Q519 127 364 343Q230 529 221 541Q217 548 211 548Q203 548 203 536Q199 459 199 321Q199 228 201 157T208 68Q214 45 232 36T280 26Q291 26 315 28H319Q328 28 333 24T338 14Q338 9 333 5T317 1H41Z"
/>
<glyph unicode="O" glyph-name="O" horiz-adv-x="708" d="M274 0T197 39T70 157T20 349Q20 462 70 541T197 660T354 700Q434 700 511 661T638 542T688 349Q688 236 638 157T511 39T354 0Q274 0 197 39ZM425 27T483 67T574 181T608 349Q608 444 575 517T483 632T354
673Q283 673 225 632T134 518T100 349Q100 255 133 182T225 68T354 27Q425 27 483 67Z" />
<glyph unicode="P" glyph-name="P" horiz-adv-x="610" d="M31 1T26 5T20 15Q20 21 26 25T43 28Q67 26 78 26Q108 26 126 35T150 68Q159 104 159 341L160 444Q160 575 150 614Q144 637 127 646T82 656Q71 656 47 654H43Q34 654 29 658T24 668Q24 673 29 677T45
681H341Q420 681 476 651T561 571T590 467Q590 412 562 364T479 287T345 257H254Q229 257 229 231Q231 102 238 68Q244 45 262 36T310 26Q321 26 345 28H349Q358 28 363 24T368 14Q368 9 363 5T347 1H41Q31 1 26 5ZM229 312Q229 288 253 286Q307 284 346 284Q398
284 435 310T491 378T510 469Q510 517 491 559T433 628T341 654Q304 654 288 653T257 643T238 614Q228 574 228 442L229 341V312Z" />
<glyph unicode="Q" glyph-name="Q" horiz-adv-x="711" d="M20 472T70 548T197 662T354 700Q434 700 511 662T638 548T688 363Q688 270 651 201T553 91T423 35Q375 19 330 -14Q324 -19 324 -24Q324 -32 334 -35Q374 -50 403 -59T466 -74Q501 -79 529 -79Q580 -79
622 -66T692 -26Q706 -12 715 -12Q723 -12 720 -22Q715 -36 682 -59T596 -101T485 -119Q433 -119 383 -107T275 -75Q269 -73 267 -73Q261 -73 255 -79Q230 -99 207 -109T155 -119Q122 -119 105 -106T87 -72Q87 -46 116 -25T195 -3Q225 -3 259 -11Q262 -12 266 -12Q272
-12 279 -7Q306 14 306 14Q314 20 315 25T310 31Q236 41 170 81T62 193T20 363Q20 472 70 548ZM100 272T133 202T225 93T354 54Q425 54 483 93T574 202T608 363Q608 454 575 524T483 634T354 674Q283 674 225 635T134 525T100 363Q100 272 133 202ZM131 -40T122
-46T113 -62Q113 -72 123 -79T153 -86Q174 -86 201 -71Q207 -67 207 -62Q207 -52 191 -47Q163 -40 147 -40Q131 -40 122 -46Z" />
<glyph unicode="R" glyph-name="R" horiz-adv-x="697" d="M31 1T26 5T20 15Q20 21 26 25T43 28Q67 26 78 26Q108 26 126 35T150 68Q159 104 159 341L160 444Q160 575 150 614Q144 637 127 646T82 656Q71 656 47 654H43Q34 654 29 658T24 668Q24 673 29 677T45
681H341Q420 681 476 654T561 582T590 486Q590 431 556 382T459 307Q446 303 446 296Q446 291 456 284Q491 258 509 219T548 107Q551 94 559 68Q566 45 581 36T623 26Q632 26 654 28H658Q667 28 672 24T677 14Q677 9 672 5T656 1H543Q518 1 500 9T478 31L463 85Q445
152 429 191T384 259T307 287H254Q229 287 229 261Q231 100 238 68Q244 45 262 36T310 26Q321 26 345 28H349Q358 28 363 24T368 14Q368 9 363 5T347 1H41Q31 1 26 5ZM229 342Q229 318 253 316Q307 314 346 314Q398 314 435 338T491 401T510 484Q510 528 491 567T433
630T341 654Q304 654 288 653T257 643T238 614Q228 574 228 462L229 371V342Z" />
<glyph unicode="S" glyph-name="S" horiz-adv-x="507" d="M195 0T151 20T84 58T59 76Q53 76 50 64T47 36Q47 28 43 24T33 19Q27 19 24 23T20 35V146V236Q20 245 24 249T34 254Q39 254 43 250T47 239Q47 183 78 134T158 56T262 27Q342 27 382 58T422 156Q422 214
370 253T235 328Q179 352 139 375T70 437T41 529Q41 576 67 615T140 677T246 700Q297 700 335 686T410 652Q426 643 429 643Q439 643 439 670Q439 678 443 681T452 685Q458 685 462 681T466 668V568V478Q466 467 462 461T452 455Q447 455 443 461T439 478Q439 525
415 570T346 644T246 673Q202 673 169 658T118 617T100 563Q100 507 137 474T250 408Q321 377 371 347T454 271T487 165Q487 86 423 43T263 0Q195 0 151 20Z" />
<glyph unicode="T" glyph-name="T" horiz-adv-x="696" d="M185 1T180 5T174 15Q174 21 180 25T197 28Q221 26 232 26Q262 26 280 35T304 68Q313 104 313 341L314 446Q315 479 315 541Q315 599 312 632Q309 654 284 654H243Q183 654 159 651T113 632Q56 595 56
496Q56 484 50 477T36 470Q29 470 25 476T20 494Q20 531 31 644Q35 680 58 680L348 681L638 680Q661 680 665 644Q676 531 676 494Q676 483 672 477T660 470Q652 470 646 477T640 496Q640 595 583 632Q561 647 539 650T458 654H417Q391 654 389 631Q383 564 383
341Q383 104 392 68Q398 45 416 36T464 26Q475 26 499 28H503Q512 28 517 24T522 14Q522 9 517 5T501 1H348H195Q185 1 180 5Z" />
<glyph unicode="U" glyph-name="U" horiz-adv-x="815" d="M309 6T234 71T159 287L160 412Q160 572 150 614Q144 637 126 646T78 656Q67 656 43 654H40Q31 654 26 657T20 667Q20 673 25 677T41 681H194H347Q357 681 362 677T368 668Q368 662 363 658T349 654L308
656Q279 656 262 647T239 614Q229 572 229 414L230 283Q230 206 256 151T325 67T417 38Q505 38 560 96T616 273L617 408Q617 572 607 614Q601 637 583 646T535 656L496 654Q487 654 482 658T477 668Q477 673 482 677T498 681H774Q784 681 789 677T795 667Q795 661
790 658T775 654Q765 654 756 655T737 656Q707 656 689 647T665 614Q655 572 655 422L656 303Q656 191 620 125T530 33T419 6Q309 6 234 71Z" />
<glyph unicode="V" glyph-name="V" horiz-adv-x="775" d="M156 605Q146 632 126 643T75 654Q65 654 43 652H39Q30 652 25 656T20 666Q20 671 25 675T41 679H327Q337 679 342 675T348 665Q348 659 342 655T325 652Q305 654 296 654Q236 654 236 623Q236 620 238
612L404 134Q408 124 414 124Q421 124 424 134L582 581Q587 598 587 608Q587 630 571 642T524 654Q516 654 500 652H497Q490 652 486 656T481 666Q481 671 486 675T499 679H737Q746 679 750 675T755 665Q755 659 750 655T736 652Q730 653 717 653Q689 653 667 640T633
599L417 21Q410 2 395 2Q387 2 380 7T370 21L156 605Z" />
<glyph unicode="W" glyph-name="W" horiz-adv-x="1090" d="M327 679Q337 679 342 675T348 665Q348 659 342 655T325 652Q305 654 296 654Q236 654 236 623Q236 620 238 612L375 147Q378 137 385 137Q391 137 394 147L528 564Q530 572 530 573Q530 579 527 589T521
605Q512 633 498 643T458 654Q450 654 428 652H424Q415 652 410 656T405 666Q405 671 410 675T426 679H702Q712 679 717 675T723 665Q723 659 717 655T700 652Q694 653 682 653Q650 653 628 641T605 609Q605 607 607 599L740 147Q743 137 750 137Q756 137 759 147L897
581Q902 598 902 608Q902 630 886 642T839 654Q831 654 815 652H812Q805 652 801 656T796 666Q796 671 801 675T814 679H1052Q1061 679 1065 675T1070 665Q1070 659 1065 655T1051 652Q1045 653 1032 653Q1003 653 980 640T948 599L762 21Q755 2 736 2Q726 2 717
7T705 21L563 475Q560 485 553 485Q546 485 543 475L397 21Q390 2 371 2Q361 2 352 7T340 21L156 605Q147 632 127 643T75 654Q65 654 43 652H39Q30 652 25 656T20 666Q20 671 25 675T41 679H327Z" />
<glyph unicode="X" glyph-name="X" horiz-adv-x="740" d="M38 0Q30 0 25 4T20 14Q20 20 25 24T39 27Q43 26 52 26Q79 26 106 40T152 80L329 314Q333 319 333 325Q333 331 330 335L156 605Q139 633 120 643T72 654Q65 654 43 652H39Q30 652 25 656T20 666Q20 671
25 675T41 679H327Q337 679 342 675T348 665Q348 659 342 655T325 652Q305 654 293 654Q266 654 249 648T232 628Q232 621 238 612L374 400Q378 393 384 393Q391 393 395 400L532 581Q542 594 542 606Q542 627 516 640T453 653Q438 653 430 652H427Q420 652 416
656T411 666Q411 671 416 675T429 679H697Q706 679 710 675T715 665Q715 659 710 655T696 652Q692 653 684 653Q657 653 629 638T583 599L409 369Q405 364 405 358Q405 353 408 348L584 74Q601 46 620 36T668 25Q675 25 697 27H701Q710 27 715 23T720 13Q720 8
715 4T699 0H413Q403 0 398 4T392 14Q392 20 398 24T415 27Q435 25 445 25Q473 25 490 31T507 51Q507 60 502 67L364 282Q360 289 354 289Q347 289 343 282L203 98Q193 85 193 72Q193 52 219 39T281 26Q297 26 305 27H308Q316 27 320 23T324 14Q324 8 320 4T306
0H38Z" />
<glyph unicode="Y" glyph-name="Y" horiz-adv-x="775" d="M327 679Q337 679 342 675T348 665Q348 659 342 655T325 652Q303 654 292 654Q233 654 233 628Q233 620 238 612L404 322Q409 314 414 314Q420 314 425 322L582 581Q593 599 593 614Q593 633 576 643T527
654Q518 654 500 652H497Q490 652 486 656T481 666Q481 671 486 675T499 679H737Q746 679 750 675T755 665Q755 659 750 655T736 652Q722 654 717 654Q667 654 633 599L433 267Q428 258 428 248Q428 103 437 68Q443 45 461 36T509 26Q520 26 544 28H548Q557 28
562 24T567 14Q567 9 562 5T546 1H240Q230 1 225 5T219 15Q219 21 225 25T242 28Q266 26 277 26Q307 26 325 35T349 68Q358 103 358 251Q358 260 353 270L156 605Q140 632 121 643T73 654Q65 654 43 652H39Q30 652 25 656T20 666Q20 671 25 675T41 679H327Z" />
<glyph unicode="Z" glyph-name="Z" horiz-adv-x="566" d="M45 0Q33 0 27 6T20 24Q20 60 86 151T274 392Q289 410 339 472T418 575T458 638Q460 642 460 644Q460 648 456 651T445 654H220Q176 654 155 650T113 632Q56 595 56 496Q56 484 50 477T36 470Q29 470 25
476T20 494Q20 531 31 644Q35 680 58 680L511 681Q547 681 547 655Q547 646 542 633Q525 589 479 528T340 358Q246 246 193 177T103 45Q101 42 101 37Q101 27 114 27H346Q383 27 403 31T443 49Q500 86 500 185Q500 197 506 204T520 211Q527 211 531 205T536 187Q536
150 525 37Q521 1 498 1L45 0Z" />
<glyph unicode="[" glyph-name="bracketleft" horiz-adv-x="282" d="M44 47T44 285Q44 552 40 664Q40 679 46 688T69 697Q94 697 107 696L147 695Q163 695 173 696L216 697Q229 697 235 691T242 677Q242 668 235 662T213 656Q151 659 109 658Q91 658 89 639Q85
497 85 301Q85 103 89 -39Q91 -58 110 -58Q156 -58 213 -55Q242 -54 242 -77Q242 -86 235 -92T213 -97Q179 -95 147 -95Q129 -95 118 -96L71 -97Q40 -97 40 -63Q44 47 44 285Z" />
<glyph unicode="\" glyph-name="backslash" horiz-adv-x="406" d="M249 156T183 340Q151 428 119 512T77 622Q57 673 44 709T30 751Q30 763 38 770T56 778Q65 778 72 772T84 755Q111 667 231 336Q256 266 286 188T328 79Q336 59 356 6T376 -53Q376 -65 368 -72T348
-80Q340 -80 333 -75T322 -58Q249 156 183 340Z" />
<glyph unicode="]" glyph-name="bracketright" horiz-adv-x="312" d="M272 -97T241 -97L194 -96Q183 -95 165 -95Q133 -95 99 -97Q84 -98 77 -92T70 -77Q70 -54 99 -55Q156 -58 202 -58Q221 -58 223 -39Q227 103 227 301Q227 497 223 639Q221 658 203 658Q161
659 99 656Q84 655 77 661T70 677Q70 685 76 691T96 697L139 696Q149 695 165 695L205 696Q218 697 243 697Q260 697 266 688T272 664Q268 552 268 285Q268 47 272 -63Q272 -97 241 -97Z" />
<glyph unicode="^" glyph-name="asciicircum" horiz-adv-x="600" d="M154 544T148 551T142 567Q142 573 148 581T169 605Q227 663 269 731Q276 743 282 748T300 753Q310 753 316 748T330 731Q358 687 381 660T431 604Q443 592 450 583T458 567Q458 544 438 544Q425
544 413 556T374 602Q332 655 300 687Q268 655 226 602Q200 569 188 557T162 544Q154 544 148 551Z" />
<glyph unicode="_" glyph-name="underscore" horiz-adv-x="458" d="M34 -97T27 -90T20 -73Q20 -63 27 -56T45 -50Q102 -54 229 -54Q329 -54 413 -50Q425 -49 431 -56T438 -73Q438 -83 432 -90T413 -96Q308 -91 229 -91Q117 -91 45 -96Q34 -97 27 -90Z" />
<glyph unicode="`" glyph-name="grave" horiz-adv-x="600" d="M342 734T332 744Q304 772 289 785L245 828Q240 833 240 838Q240 846 250 851T273 857Q294 857 302 843Q335 787 356 755Q360 750 360 744Q360 734 349 734Q342 734 332 744Z" />
<glyph unicode="a" glyph-name="a" horiz-adv-x="391" d="M82 -1T50 19T20 89Q23 147 90 174T234 207Q248 209 248 223V274Q248 311 229 332T180 353Q147 353 128 334T109 284Q109 263 99 253T74 243Q61 243 51 253T40 282Q40 307 60 329T114 366T184 380Q242
380 280 352T318 269V88Q318 26 343 26Q346 26 357 31T370 37Q375 37 378 34T381 26Q381 14 362 7T321 0Q277 0 260 30Q256 37 249 37Q243 37 238 33Q189 -1 143 -1Q82 -1 50 19ZM249 93T249 129L248 165Q248 180 233 180Q88 175 88 92Q88 63 109 47T161 31Q187
31 210 43T242 78Q249 93 249 129Z" />
<glyph unicode="b" glyph-name="b" horiz-adv-x="432" d="M175 0T133 7Q127 8 120 9T103 10Q90 10 72 4Q66 2 63 2Q57 2 54 5T51 13Q51 16 55 23T61 37Q68 58 70 98T73 235Q73 404 68 531Q67 551 67 575Q67 602 59 618T31 635Q21 635 16 638T10 646Q10 650 15
654T31 661Q60 667 98 694Q101 696 111 702T129 709Q143 709 143 697L141 637Q135 427 134 344Q134 331 142 331Q147 331 152 335Q176 356 202 368T255 380Q293 380 329 359T388 294T412 189Q412 133 384 90T309 24T208 0Q175 0 133 7ZM270 31T302 71T334 190Q334
232 318 265T277 316T226 334Q206 334 185 320T149 277T134 211L135 154Q137 112 137 87Q137 60 158 46T222 31Q270 31 302 71Z" />
<glyph unicode="c" glyph-name="c" horiz-adv-x="376" d="M158 0T116 21T47 85T20 189Q20 250 47 293T116 358T201 380Q261 380 298 357T348 306Q356 289 356 272Q356 254 347 244T325 233Q314 233 307 241T298 266Q296 306 272 330T201 354Q174 354 151 333T113
275T98 190Q98 143 114 108T157 55T211 36Q250 36 279 54T331 111Q336 120 344 120Q349 120 352 117T355 109Q355 103 353 100Q332 55 291 28T201 0Q158 0 116 21Z" />
<glyph unicode="d" glyph-name="d" horiz-adv-x="446" d="M128 0T74 41T20 179Q20 236 45 279T109 347T192 377Q204 379 224 379Q262 379 290 366Q296 364 297 364Q307 364 307 377L305 573Q305 600 297 616T269 633Q248 633 248 643Q248 647 253 651T269 659Q297
668 322 683T353 702Q363 707 368 707Q381 707 381 695Q381 683 378 654Q367 511 367 341V265Q367 176 369 127T381 64Q386 55 396 55Q404 55 414 58Q417 59 423 59Q429 59 432 56T436 49Q436 44 431 39T417 31Q396 25 373 11Q355 0 348 0Q330 0 318 19Q311 32
301 25Q260 0 202 0Q128 0 74 41ZM252 26T278 53T305 114Q305 150 306 166Q306 179 306 200T307 258Q307 299 280 325T215 352Q205 352 200 351Q176 347 152 328T112 274T96 190Q96 139 114 102T159 45T215 26Q252 26 278 53Z" />
<glyph unicode="e" glyph-name="e" horiz-adv-x="380" d="M20 250T47 293T116 358T201 380Q264 380 307 348T350 259Q350 238 342 226T321 214L108 215Q93 215 93 201Q93 133 126 85T216 36Q258 36 289 55T334 99Q341 111 350 111Q360 111 360 98Q360 88 354 81Q326
40 292 20T206 0Q158 0 116 21T47 85T20 189Q20 250 47 293ZM100 254T100 251Q100 239 114 239L251 240Q269 240 274 248T279 270Q279 307 258 330T201 354Q167 354 141 329T101 256Q100 254 100 251Z" />
<glyph unicode="f" glyph-name="f" horiz-adv-x="316" d="M10 21T14 24T28 28Q37 28 44 27T58 26Q76 26 85 35T100 68Q107 95 109 331Q109 346 94 346Q73 346 53 344H51Q43 344 39 349T34 362Q34 369 39 375T54 380L94 379Q109 379 109 393V450Q109 573 140 637T254
709Q282 711 304 703T339 680T351 651Q351 633 341 624T318 615Q311 615 305 618Q298 621 295 627T287 645Q278 665 269 674T235 680Q201 675 190 625T179 456V393Q179 378 194 378L250 379Q261 380 276 380Q285 380 289 375T294 362Q294 355 289 349T276 344Q244
347 194 347Q179 347 179 341Q179 104 188 68Q194 44 203 35T230 26Q235 26 241 27T255 28H260Q268 28 273 24T278 15Q278 9 273 5T257 1H31Q21 1 16 5T10 15Q10 21 14 24Z" />
<glyph unicode="g" glyph-name="g" horiz-adv-x="379" d="M2 -12T59 22Q66 26 66 30Q66 34 59 40Q29 63 29 90Q29 96 30 99Q31 105 44 120T72 149Q78 155 78 160Q78 166 72 170Q32 205 32 257Q32 316 72 347T171 379Q215 379 253 360Q259 357 265 357Q269 357
275 360Q308 380 332 380Q347 380 356 370T365 350Q365 340 356 340Q351 340 334 340T303 338Q292 336 292 327Q292 323 295 318Q310 290 310 257Q310 200 270 170T171 140Q154 140 140 141T117 146Q113 149 107 149Q102 149 97 145Q90 140 86 130T82 116Q86 98
105 93T179 87Q267 87 316 64T366 -25Q366 -71 335 -107T253 -163T142 -183Q69 -183 31 -147T-2 -50Q2 -12 59 22ZM95 217T115 192T171 166Q207 166 227 191T247 259Q247 302 227 328T171 354Q135 354 115 328T95 259Q95 217 115 192ZM111 22T103 18Q80 6 68 -12T56
-54Q56 -79 71 -102T114 -140T180 -155Q233 -155 268 -129T303 -54Q303 -20 287 -4T242 17T162 22H122Q111 22 103 18Z" />
<glyph unicode="h" glyph-name="h" horiz-adv-x="473" d="M21 1T16 5T10 15Q10 22 16 26T33 28Q70 22 79 89Q85 143 85 235Q85 404 80 531Q79 551 79 575Q79 602 71 618T43 635Q33 635 28 638T22 646Q22 650 27 654T43 661Q72 667 110 694Q113 696 123 702T141
709Q155 709 155 697L153 638Q147 428 146 344Q146 338 148 335T155 331Q159 331 164 336Q210 380 257 380Q290 380 321 360T373 299T394 196L393 106Q393 66 400 47T428 27Q436 27 440 28L446 29Q454 29 458 25T463 15Q463 9 458 5T442 1H359H276Q266 1 261 5T255
15Q255 22 261 26T278 28Q307 23 315 50T324 136V190Q324 232 311 265T276 316T232 334Q211 334 191 319T159 272T146 196L145 106Q145 66 152 47T180 27Q188 27 192 28L198 29Q206 29 210 25T215 15Q215 9 210 5T194 1H111H31Q21 1 16 5Z" />
<glyph unicode="i" glyph-name="i" horiz-adv-x="225" d="M81 446T65 462T48 502Q48 526 64 542T104 559Q127 559 143 543T160 502Q160 479 144 463T104 446Q81 446 65 462ZM21 1T16 5T10 15Q10 22 16 26T33 28Q63 22 73 60Q79 82 79 128Q79 161 78 179L77 246Q77
273 69 289T41 306Q31 306 26 309T20 317Q20 321 25 325T41 332Q72 340 105 365Q109 367 119 373T135 380Q149 380 149 368L147 328L143 259Q141 222 141 161Q141 90 146 60Q149 43 157 35T180 27Q187 27 192 28L198 29Q206 29 210 25T215 15Q215 9 210 5T194 1H111H31Q21
1 16 5Z" />
<glyph unicode="j" glyph-name="j" horiz-adv-x="182" d="M83 446T67 462T50 502Q50 526 66 542T106 559Q129 559 145 543T162 502Q162 479 146 463T106 446Q83 446 67 462ZM-12 -182T-17 -178T-23 -166Q-23 -159 -17 -154T0 -151Q18 -154 36 -131T67 -70T79 0Q79
27 80 47Q82 109 82 156Q82 207 79 246Q77 274 70 290T43 306Q33 306 28 309T22 317Q22 321 27 325T43 332Q74 340 107 365Q111 367 121 373T137 380Q151 380 151 368L149 341Q145 299 145 259L146 131Q146 79 144 46T133 -15Q118 -71 93 -108T42 -164T-2 -182Q-12
-182 -17 -178Z" />
<glyph unicode="k" glyph-name="k" horiz-adv-x="453" d="M22 650T27 654T43 661Q72 667 110 694Q113 696 123 702T141 709Q155 709 155 697L153 627Q146 461 146 351V236Q146 224 155 224Q160 224 167 229Q231 284 257 311T284 347Q284 353 273 353Q268 353 252
351L246 350Q238 350 234 354T229 364Q229 370 234 374T250 378H386Q396 378 401 375T407 365Q407 359 401 355T383 351Q361 351 327 324T232 241Q227 237 227 230Q227 224 231 220Q246 203 295 143Q342 84 370 56T419 28Q430 28 436 24T443 13Q443 8 438 5T422
1H256Q246 1 241 5T235 15Q235 22 241 26T258 28Q272 26 277 26Q293 26 293 37Q293 50 270 84T191 182Q185 189 178 189Q173 189 169 185L154 172Q145 165 145 153V118Q145 71 152 49T182 27Q188 27 192 28L198 29Q206 29 210 25T215 15Q215 9 210 5T194 1H31Q21
1 16 5T10 15Q10 22 16 26T33 28Q70 22 79 89Q85 143 85 235Q85 404 80 531Q79 551 79 575Q79 602 71 618T43 635Q33 635 28 638T22 646Q22 650 27 654Z" />
<glyph unicode="l" glyph-name="l" horiz-adv-x="225" d="M21 1T16 5T10 15Q10 22 16 26T33 28Q70 22 79 89Q85 143 85 235Q85 404 80 531Q79 551 79 575Q79 602 71 618T43 635Q33 635 28 638T22 646Q22 650 27 654T43 661Q72 667 110 694Q113 696 123 702T141
709Q155 709 155 697L153 627Q146 461 146 351V206L145 114Q145 69 152 48T181 27Q188 27 192 28L198 29Q206 29 210 25T215 15Q215 9 210 5T194 1H111H31Q21 1 16 5Z" />
<glyph unicode="m" glyph-name="m" horiz-adv-x="706" d="M20 321T25 325T41 332Q72 340 105 365Q109 367 119 373T135 380Q149 380 149 368Q149 357 148 348Q148 341 151 340T160 342Q201 380 247 380Q279 380 309 362T359 308Q365 298 371 307Q387 333 421 356T490
380Q523 380 554 360T606 299T627 196L626 106Q626 66 633 47T661 27Q669 27 673 28L679 29Q687 29 691 25T696 15Q696 9 691 5T675 1H509Q499 1 494 5T488 15Q488 22 494 26T511 28Q540 23 548 50T557 136V190Q557 232 544 265T509 316T465 334Q425 334 405 292T384
196L383 106Q383 66 390 47T418 27Q426 27 430 28L436 29Q444 29 448 25T453 15Q453 9 448 5T432 1H266Q256 1 251 5T245 15Q245 22 251 26T268 28Q297 23 305 50T314 136V190Q314 232 301 265T266 316T222 334Q200 334 182 317T153 274T142 230Q141 205 141 162Q141
100 146 60Q149 43 157 35T180 27Q187 27 192 28L198 29Q206 29 210 25T215 15Q215 9 210 5T194 1H31Q21 1 16 5T10 15Q10 22 16 26T33 28Q63 22 73 60Q79 82 79 128Q79 161 78 179L77 246Q77 273 69 289T41 306Q31 306 26 309T20 317Q20 321 25 325Z" />
<glyph unicode="n" glyph-name="n" horiz-adv-x="473" d="M20 321T25 325T41 332Q72 340 105 365Q109 367 119 373T135 380Q149 380 149 368Q149 356 148 346V344Q148 339 151 338T160 340Q208 380 257 380Q290 380 321 360T373 299T394 196L393 106Q393 66 400
47T428 27Q436 27 440 28L446 29Q454 29 458 25T463 15Q463 9 458 5T442 1H276Q266 1 261 5T255 15Q255 22 261 26T278 28Q307 23 315 50T324 136V190Q324 232 311 265T276 316T232 334Q209 334 189 317T155 274T142 227Q141 203 141 160Q141 100 146 60Q149 43
157 35T180 27Q187 27 192 28L198 29Q206 29 210 25T215 15Q215 9 210 5T194 1H31Q21 1 16 5T10 15Q10 22 16 26T33 28Q63 22 73 60Q80 85 80 126L79 178Q77 220 77 246Q77 273 69 289T41 306Q31 306 26 309T20 317Q20 321 25 325Z" />
<glyph unicode="o" glyph-name="o" horiz-adv-x="423" d="M163 0T119 21T48 85T20 189Q20 251 48 294T119 358T211 380Q259 380 303 359T375 294T403 189Q403 128 375 85T303 21T211 0Q163 0 119 21ZM263 26T294 71T325 190Q325 263 294 308T211 354Q160 354 129
309T97 190Q97 117 128 72T211 26Q263 26 294 71Z" />
<glyph unicode="p" glyph-name="p" horiz-adv-x="444" d="M22 321T27 325T43 332Q72 338 110 365Q113 367 123 373T141 380Q155 380 155 368V350Q155 338 162 338Q167 338 172 342Q220 380 267 380Q305 380 341 359T400 294T424 189Q424 133 396 90T321 24T220
0Q192 0 162 4H160Q146 4 146 -10V-39L145 -87Q145 -117 152 -135T181 -153Q188 -153 192 -152L198 -151Q206 -151 210 -155T215 -165Q215 -171 210 -175T194 -179H31Q21 -179 16 -175T10 -165Q10 -158 16 -154T33 -152Q72 -159 79 -91Q85 -37 85 24V109Q85 215
78 260T43 306Q33 306 28 309T22 317Q22 321 27 325ZM150 70T172 51T238 31Q288 31 321 71T354 190Q354 232 338 265T296 316T242 334Q225 334 205 323T169 292T151 246Q147 211 147 176L148 125L149 103Q150 70 172 51Z" />
<glyph unicode="q" glyph-name="q" horiz-adv-x="398" d="M234 -179T229 -175T223 -165Q223 -158 229 -154T246 -152Q285 -159 292 -91Q298 -28 298 36Q298 49 290 49Q287 49 280 44Q227 0 177 0Q139 0 103 21T44 86T20 191Q20 247 48 290T123 356T224 380Q257
380 299 373Q305 372 312 371T329 370Q342 370 360 376Q366 378 369 378Q375 378 378 375T381 367Q381 364 377 357T371 343Q356 299 356 67L357 -44L356 -82Q356 -115 364 -134T394 -153Q401 -153 405 -152L411 -151Q419 -151 423 -155T428 -165Q428 -171 423
-175T407 -179H244Q234 -179 229 -175ZM259 46T277 89T296 209L295 293Q295 320 273 334T206 349Q156 349 123 309T90 190Q90 148 106 115T148 64T202 46Q259 46 277 89Z" />
<glyph unicode="r" glyph-name="r" horiz-adv-x="315" d="M20 321T25 325T41 332Q72 340 105 365Q109 367 119 373T135 380Q149 380 149 368Q149 352 148 339V337Q148 331 151 330T159 334Q181 357 208 368T260 380Q273 380 281 377Q305 369 305 348Q305 333 293
321T265 309Q256 309 252 311Q231 318 216 318Q190 318 171 302T143 255Q140 201 140 160Q140 96 146 60Q149 43 157 35T180 27Q187 27 192 28L198 29Q206 29 210 25T215 15Q215 9 210 5T194 1H31Q21 1 16 5T10 15Q10 22 16 26T33 28Q48 25 58 33T73 60Q78 85 78
139L77 246Q77 273 69 289T41 306Q31 306 26 309T20 317Q20 321 25 325Z" />
<glyph unicode="s" glyph-name="s" horiz-adv-x="316" d="M127 0T103 11T67 31T54 41Q51 41 50 36T49 20Q49 14 45 9T35 4Q22 4 22 19V79V128Q22 135 26 139T36 143Q41 143 45 139T49 128Q49 107 66 84T110 44T163 28Q195 28 215 42T235 82Q235 101 212 117T138
159L119 168Q86 184 67 196T34 228T20 277Q20 304 35 327T80 365T149 380Q185 380 207 372T242 357T257 349Q262 349 262 364Q262 370 266 373T275 377Q281 377 285 373T289 363V308V259Q289 253 285 249T275 245Q270 245 266 249T262 259Q262 279 248 300T207
336T149 351Q116 351 99 337T81 301Q81 262 146 231Q155 227 163 224T178 217Q216 201 239 188T279 153T296 100Q296 56 260 28T170 0Q127 0 103 11Z" />
<glyph unicode="t" glyph-name="t" horiz-adv-x="280" d="M109 0T96 25T83 87V335Q83 345 73 345Q55 345 45 345T27 344Q19 344 15 349T10 361Q10 369 15 374T30 380Q78 380 94 407Q106 426 112 460Q116 479 120 487T133 496Q152 496 152 470V388Q152 378 162
378Q197 378 220 379T252 380Q261 380 265 375T270 362Q270 355 265 349T252 344Q224 347 161 347Q151 347 151 337Q150 223 150 87Q150 70 161 56T189 42Q211 42 236 70Q245 80 252 80Q260 80 260 71Q260 62 251 50Q233 28 205 14T143 0Q109 0 96 25Z" />
<glyph unicode="u" glyph-name="u" horiz-adv-x="440" d="M10 320T15 324T31 332Q53 339 86 361Q90 364 97 368T108 375Q118 380 123 380Q136 380 136 368L135 276Q133 172 133 117Q133 84 157 60T215 35Q258 35 294 84Q300 95 299 103Q298 119 298 144L299 246Q299
273 291 289T263 306Q242 306 242 316Q242 320 247 324T263 332Q285 339 318 361Q322 364 329 368T340 375Q350 380 355 380Q368 380 368 368L366 307Q362 233 362 182Q362 124 367 89T389 54Q394 54 403 56T417 59Q430 59 430 49Q430 44 425 39T411 31Q390 25
367 11Q349 0 342 0Q313 0 306 41Q305 50 300 50Q297 50 292 45Q248 1 190 1Q162 1 134 13T86 47T67 101V246Q67 273 59 289T31 306Q10 306 10 316Q10 320 15 324Z" />
<glyph unicode="v" glyph-name="v" horiz-adv-x="439" d="M141 159T115 230Q93 291 84 314T66 345T43 353H42Q32 353 26 357T20 367Q20 373 25 376T41 380H187Q197 380 202 376T208 366Q208 359 202 355T185 353Q182 354 176 354Q159 354 159 335Q159 319 168
292T200 201Q205 187 213 166T231 116Q235 106 242 106Q249 106 252 116Q255 124 257 130T262 141Q297 233 310 271T324 330Q324 343 317 348T294 351H289Q281 351 276 355T271 364Q271 370 276 374T292 378H408Q418 378 423 375T429 365Q429 359 423 355T405 351Q389
351 377 329T337 234Q330 216 306 154T250 21Q246 11 238 5T220 -1Q203 -1 196 18Q141 159 115 230Z" />
<glyph unicode="w" glyph-name="w" horiz-adv-x="630" d="M402 33T345 191L330 235Q327 245 320 245Q314 245 311 234Q280 141 230 21Q226 11 218 6T200 0Q181 0 174 20Q144 102 98 245Q82 297 74 317T58 345T33 353H32Q22 353 16 357T10 367Q10 373 15 376T31
380H187Q197 380 202 376T208 366Q208 359 202 355T185 353Q181 354 174 354Q164 354 160 349T156 333Q156 318 166 284T190 205Q221 109 218 118Q221 107 228 107Q235 107 239 117Q270 199 284 247T298 319Q298 339 290 346T264 353H263Q253 353 247 357T241 367Q241
373 246 376T262 380H408Q418 380 423 376T429 366Q429 359 423 355T406 353Q402 354 394 354Q385 354 381 350T377 335Q377 320 386 290T416 198L443 118Q448 107 454 107Q461 107 464 118Q493 203 506 249T519 320Q519 339 511 346T485 351H480Q472 351 467 355T462
364Q462 370 467 374T483 378H599Q609 378 614 375T620 365Q620 359 614 355T597 351Q587 351 578 337T555 285T523 195Q514 169 500 127T462 21Q458 11 450 5T432 -1Q414 -1 407 18Q402 33 345 191Z" />
<glyph unicode="x" glyph-name="x" horiz-adv-x="438" d="M187 380Q197 380 202 376T208 366Q208 359 202 355T185 353Q179 354 167 354Q147 354 151 344Q157 331 214 249Q219 242 225 242Q230 242 236 250Q236 250 294 337Q298 342 298 347Q298 353 287 353L267
351H262Q254 351 249 355T244 364Q244 370 249 374T265 378H391Q401 378 406 374T412 365Q412 359 407 355T392 351Q359 351 341 331Q322 310 278 249Q272 242 266 234T253 216Q249 208 249 205Q249 202 253 194L267 175Q353 61 366 46Q381 28 405 28Q416 28 422
24T428 13Q428 8 423 5T407 1H241Q231 1 226 5T220 15Q220 22 226 26T243 28Q257 26 262 26Q282 26 277 43Q273 56 217 136Q213 143 206 143Q201 143 195 136Q135 50 128 38Q121 26 137 26L157 28L163 29Q171 29 175 25T180 15Q180 9 175 5T159 1H33Q23 1 18 4T12
13Q12 19 18 23T35 28L47 27Q55 27 68 36Q103 64 178 168Q183 175 183 179Q183 184 178 189Q112 279 64 341Q58 349 51 351T33 353Q22 353 16 357T10 368Q10 373 15 376T31 380H187Z" />
<glyph unicode="y" glyph-name="y" horiz-adv-x="409" d="M167 380Q177 380 182 376T188 366Q188 359 182 355T165 353Q161 354 155 354Q135 354 135 330Q135 313 146 283T182 191L213 114Q217 104 223 104Q230 104 233 113Q265 192 287 254T308 330Q308 344 300
348T274 351H269Q261 351 256 355T251 364Q251 370 256 374T272 378H388Q398 378 403 375T409 365Q409 359 403 355T386 351Q377 352 371 347T356 328Q348 316 322 251T284 158Q230 22 207 -31Q192 -62 168 -94T122 -133Q105 -138 96 -138Q79 -138 70 -130T60 -110Q60
-98 71 -89T102 -80Q120 -80 140 -64T174 -21L185 2Q188 8 188 14Q188 17 186 23L139 139Q114 202 93 253T58 325Q39 354 23 353H22Q12 353 6 357T0 367Q0 373 5 376T21 380H167Z" />
<glyph unicode="z" glyph-name="z" horiz-adv-x="325" d="M24 0Q6 0 11 20Q16 42 50 89T155 232Q215 309 233 338Q235 340 235 345Q235 355 222 355H123Q100 355 90 353T69 343Q37 322 37 267Q37 260 33 257T23 253Q19 253 15 256T10 266Q10 300 16 360Q18 380
31 380L295 381Q315 381 315 367Q315 347 287 308T205 203Q118 97 87 44Q84 40 84 36Q84 26 97 26H198Q220 26 231 28T253 38Q284 60 284 113Q284 120 288 124T297 128Q301 128 306 124T311 115Q311 69 305 21Q303 1 290 1L24 0Z" />
<glyph unicode="{" glyph-name="braceleft" horiz-adv-x="358" d="M228 -97T192 -84T137 -30T118 88Q118 102 120 136Q121 145 121 162Q121 222 104 256T61 287H59Q42 287 40 300V302Q40 308 45 312T61 315Q90 312 107 353T120 466Q118 500 118 514Q118 592 136
632T191 685T288 696Q302 695 310 690T318 679Q318 673 310 669T288 666Q240 669 214 648T179 584T170 471Q170 412 165 379T147 327T108 301Q134 294 147 276T165 224T170 131Q170 61 179 18T214 -46T288 -64Q302 -63 310 -67T318 -77Q318 -83 310 -88T288 -94Q228
-97 192 -84Z" />
<glyph unicode="|" glyph-name="uni007C" horiz-adv-x="155" d="M105 -90T97 -97T78 -105Q60 -105 56 -92T51 -51L53 64Q56 286 56 327Q54 702 50 771Q50 787 58 795T78 804Q105 804 105 760Q105 728 103 638Q101 547 99 347L103 39L105 -77Q105 -90 97 -97Z" />
<glyph unicode="}" glyph-name="braceright" horiz-adv-x="358" d="M56 -93T48 -88T40 -77Q40 -71 48 -67T70 -64Q118 -67 144 -46T179 18T188 131Q188 190 193 223T211 275T250 301Q224 308 211 326T193 378T188 471Q188 541 179 584T144 648T70 666Q56 665 48
669T40 679Q40 685 48 690T70 696L93 697Q144 697 175 682T223 626T239 514Q239 483 238 466Q237 457 237 440Q237 380 254 346T297 315H301Q309 315 313 311T318 302Q318 295 313 291T297 287Q268 290 251 249T238 136Q240 102 240 88Q240 11 222 -29T167 -83T70
-94Q56 -93 48 -88Z" />
<glyph unicode="~" glyph-name="asciitilde" horiz-adv-x="452" d="M70 195T65 189T52 183Q47 183 44 187T40 200Q40 215 53 238T90 278T148 296Q178 296 198 286T243 254Q266 235 283 226T326 216Q348 216 364 235T383 281Q384 289 389 294T400 300Q406 300 409
295T411 279Q402 234 371 208T301 181Q268 181 248 192T203 225Q182 244 164 254T121 264Q103 264 89 248T71 207Q70 195 65 189Z" />
<glyph unicode="&#xa0;" glyph-name="uni00A0" horiz-adv-x="300" />
<glyph unicode="&#xa1;" glyph-name="exclamdown" horiz-adv-x="212" d="M87 379T74 366T60 333Q60 314 73 301T106 287Q125 287 138 300T152 333Q152 352 139 365T106 379Q87 379 74 366ZM98 220T93 211T87 178Q87 60 73 -80Q62 -190 62 -259Q62 -289 73 -305T105
-321Q126 -321 137 -305T149 -259Q149 -215 146 -167T137 -74Q136 -61 130 13T123 178Q123 198 118 209T105 220Q98 220 93 211Z" />
<glyph unicode="&#xa2;" glyph-name="cent" horiz-adv-x="396" d="M356 280T364 280Q369 280 372 277T375 269Q375 263 373 260Q354 220 318 194T234 161Q234 126 236 80L237 23Q237 11 231 4T217 -3Q209 -3 203 4T197 23Q197 46 198 63L199 160Q153 163 112 185T46
248T20 349Q20 408 45 450T112 515T199 540L198 638Q197 655 197 677Q197 689 203 695T217 701Q225 701 231 695T237 676L236 620Q234 574 234 539Q290 535 323 514T368 466Q376 449 376 432Q376 414 367 404T345 393Q334 393 327 401T318 426Q316 461 296 484T234
513Q233 462 233 349Q233 244 234 196Q274 198 302 216T351 271Q356 280 364 280ZM98 287T127 247T200 198V336Q200 459 199 513Q155 508 127 463T98 350Q98 287 127 247Z" />
<glyph unicode="&#xa3;" glyph-name="sterling" horiz-adv-x="600" d="M570 147T574 142T578 127Q578 95 548 66T473 19T390 1Q358 1 330 11T266 40Q242 53 226 59T195 66Q171 66 142 53T94 21Q75 2 58 2Q51 2 46 8T41 21Q41 38 63 51Q108 78 128 104T153 165T158
271Q158 287 154 325L58 322Q45 321 38 327T30 340Q30 348 37 354T58 359Q97 356 151 356Q146 398 146 437Q146 528 176 586T255 671T364 698Q414 698 457 679T527 630T554 566Q554 544 543 529T517 514Q507 514 498 523T485 549Q471 605 433 638T352 671Q272 671
246 603T220 432L221 355H242Q339 355 433 359Q446 360 453 354T460 340Q460 333 454 328T436 322Q416 322 358 324Q288 326 245 326H221Q219 202 181 136Q178 130 178 128Q178 124 188 128Q215 138 243 138Q267 138 292 131T362 107Q398 93 422 86T469 78Q514
78 536 120Q550 147 564 147Q570 147 574 142Z" />
<glyph unicode="&#xa4;" glyph-name="currency" horiz-adv-x="583" d="M91 182T120 211Q124 215 124 222Q124 227 122 230Q105 256 97 281T88 342Q88 378 95 402T118 450Q121 455 121 459Q121 464 116 469Q94 487 68 513L49 530Q40 539 40 549Q40 561 49 570Q58
579 70 579Q81 579 89 570Q109 546 151 504Q155 500 162 500Q167 500 170 502Q222 536 292 536Q365 536 414 503Q419 500 423 500Q428 500 433 505Q474 546 494 570Q502 579 513 579Q525 579 534 570Q543 561 543 549Q543 539 534 530Q498 500 468 470Q464 466
464 459Q464 454 466 451Q482 426 489 402T497 342Q497 303 489 277T463 229Q460 225 460 221Q460 215 465 210Q492 188 514 164L534 145Q543 138 543 127Q543 116 533 106Q523 96 512 96Q502 96 494 105L474 126Q446 154 427 177Q419 187 409 180Q364 150 292
150Q237 150 175 181Q171 183 167 183Q161 183 156 178Q130 152 113 132T89 105Q82 96 71 96Q60 96 50 106Q40 116 40 127Q40 138 49 145Q91 182 120 211ZM165 266T198 221T292 176Q353 176 386 221T419 343Q419 419 386 464T292 510Q232 510 199 465T165 343Q165
266 198 221Z" />
<glyph unicode="&#xa5;" glyph-name="yen" horiz-adv-x="735" d="M697 679Q706 679 710 675T715 665Q715 659 710 655T696 652Q682 654 678 654Q656 654 639 642T603 599L421 300L542 303Q555 304 562 299T569 285Q569 278 563 273T545 267Q525 267 471 269Q431
271 408 271V268Q408 217 409 194L542 197Q555 198 562 193T569 179Q569 172 563 167T545 161Q524 161 472 163Q430 165 409 165Q411 94 417 68Q423 44 438 35T480 26Q490 26 514 28H518Q527 28 532 24T537 14Q537 9 532 5T516 1H230Q220 1 215 5T209 15Q209 21
215 25T232 28Q256 26 266 26Q293 26 308 35T329 68Q335 94 337 165Q244 163 205 161Q192 160 185 166T177 179Q177 187 184 192T205 197Q264 194 337 194Q338 218 338 271Q245 269 205 267Q192 266 185 272T177 285Q177 293 184 298T205 303Q255 301 286 301L327
300L146 605Q130 633 114 643T72 654Q65 654 43 652H39Q30 652 25 656T20 666Q20 671 25 675T41 679H317Q327 679 332 675T338 665Q338 659 332 655T315 652Q293 654 281 654Q222 654 222 629Q222 623 228 612L384 342Q389 334 394 334Q400 334 405 342L552 581Q563
599 563 614Q563 633 546 643T497 654Q488 654 470 652H467Q460 652 456 656T451 666Q451 671 456 675T469 679H697Z" />
<glyph unicode="&#xa6;" glyph-name="brokenbar" horiz-adv-x="150" d="M100 453T94 444T75 435Q63 435 57 444T51 465L52 607L51 691Q50 718 50 771Q50 786 57 795T75 804Q100 804 100 770Q100 733 98 683L97 627L98 548Q100 496 100 468Q100 453 94 444ZM100
-82T94 -91T75 -100Q63 -100 57 -91T51 -70L52 72L51 156Q50 183 50 236Q50 251 57 260T75 269Q100 269 100 235Q100 198 98 148L97 92L98 13Q100 -39 100 -67Q100 -82 94 -91Z" />
<glyph unicode="&#xa7;" glyph-name="section" horiz-adv-x="478" d="M20 -36Q20 -28 24 -24T34 -19Q39 -19 43 -23T47 -33Q47 -86 74 -133T145 -207T232 -235Q302 -235 337 -203T372 -112Q372 -72 349 -43T291 5T199 52Q140 79 105 99T46 151T21 224Q21 280 53
323T138 385Q150 390 150 394Q150 400 140 404Q93 432 68 463T42 537Q42 582 67 619T135 678T227 700Q272 700 309 687T380 655Q398 646 400 646Q410 646 410 671Q410 679 414 682T423 686Q429 686 433 682T437 669V488Q437 478 433 472T423 466Q418 466 414 472T410
488Q410 532 387 575T321 646T227 674Q192 674 163 660T118 621T101 569Q101 536 121 511T172 468T256 425Q321 395 361 370T429 305T458 209Q458 162 432 125T363 67Q352 61 352 55Q352 49 361 43Q398 17 417 -17T437 -104Q437 -151 410 -186T335 -241T233 -261Q177
-261 140 -243T82 -207T59 -189Q53 -189 50 -201T47 -227Q47 -234 43 -238T33 -243Q27 -243 24 -239T20 -228V-36ZM80 217T104 189T163 141T259 95Q270 91 292 81Q302 77 308 77Q310 77 318 79Q354 91 373 122T393 201Q393 239 370 268T316 316T236 357Q230 359
218 365Q205 371 192 370Q143 365 112 334T80 256Q80 217 104 189Z" />
<glyph unicode="&#xa8;" glyph-name="dieresis" horiz-adv-x="600" d="M198 752T183 767T167 805Q167 826 182 841T220 857Q241 857 256 842T272 805Q272 783 257 768T220 752Q198 752 183 767ZM359 752T344 767T328 805Q328 826 343 841T381 857Q402 857 417
842T433 805Q433 783 418 768T381 752Q359 752 344 767Z" />
<glyph unicode="&#xa9;" glyph-name="copyright" horiz-adv-x="788" d="M313 0T231 39T95 158T40 349Q40 461 94 540T231 660T394 700Q474 700 556 660T693 541T748 349Q748 237 694 158T557 40T394 0Q313 0 231 39ZM469 39T538 76T652 183T696 349Q696 444 652
515T539 623T394 661Q319 661 250 624T136 515T92 349Q92 254 136 184T249 76T394 39Q469 39 538 76ZM364 171T323 189T254 247T226 345Q226 403 254 442T323 500T402 519Q467 519 509 482Q512 479 515 479Q521 479 521 493Q521 499 525 502T535 505Q540 505 544
502T548 492V439V392Q548 386 544 382T534 378Q521 378 521 392Q521 411 506 434T464 475T402 492Q370 492 344 472T302 418T286 345Q286 306 301 272T343 218T402 198Q444 198 471 221T510 272T522 313Q522 319 526 322T536 325Q542 325 546 322T550 311V264V205Q550
199 546 196T536 192Q530 192 526 196T522 206Q522 215 520 220T512 219Q499 200 470 186T402 171Q364 171 323 189Z" />
<glyph unicode="&#xaa;" glyph-name="ordfeminine" horiz-adv-x="247" d="M56 239T35 251T13 295Q13 336 59 355T156 378Q165 380 165 389V423Q165 448 153 461T120 475Q98 475 86 462T73 429Q73 416 67 409T49 402Q40 402 34 408T27 428Q27 453 56 473T123 493Q161
493 186 474T212 419V299Q212 257 229 257Q231 257 238 261T247 265Q250 265 252 263T254 257Q254 249 241 245T214 240Q185 240 173 260Q166 268 159 262Q126 239 95 239Q56 239 35 251ZM167 306T165 350Q165 360 155 360Q116 359 88 347T59 302Q59 282 73 272T107
261Q125 261 140 269T161 292Q167 306 165 350Z" />
<glyph unicode="&#xab;" glyph-name="guillemotleft" horiz-adv-x="554" d="M40 199T51 206Q93 232 137 268L157 283L177 298Q229 338 255 364Q265 374 278 374Q289 374 299 366T309 349Q309 339 298 332Q261 309 230 286T191 256Q151 226 126 201Q120 195 120
189Q120 182 126 176Q144 158 172 137Q192 120 191 121Q235 85 298 45Q309 38 309 28Q309 19 300 11T278 3Q265 3 255 13Q229 39 177 79L157 94L137 109Q93 145 51 171Q40 178 40 188Q40 199 51 206ZM225 199T236 206Q278 232 322 268L342 283L362 298Q414 338
440 364Q450 374 463 374Q474 374 484 366T494 349Q494 339 483 332Q446 309 415 286T376 256Q336 226 311 201Q305 195 305 189Q305 182 311 176Q329 158 357 137Q377 120 376 121Q420 85 483 45Q494 38 494 28Q494 19 485 11T463 3Q450 3 440 13Q414 39 362 79L342
94L322 109Q278 145 236 171Q225 178 225 188Q225 199 236 206Z" />
<glyph unicode="&#xac;" glyph-name="logicalnot" horiz-adv-x="600" d="M40 316T50 324T78 331Q122 328 174 327T303 326Q402 326 482 330L535 331Q565 331 565 303L562 168Q562 148 564 76L565 48Q566 30 557 20T536 10Q523 10 515 20T508 48Q513 119 513 168L512
204Q510 234 510 252Q510 262 504 268T487 275Q480 275 433 278T303 282Q233 282 123 277L78 274Q60 273 50 282T40 303Q40 316 50 324Z" />
<glyph unicode="&#xad;" glyph-name="uni00AD" horiz-adv-x="378" d="M54 160T47 167T40 184Q40 194 47 201T65 207Q122 203 189 203Q229 203 313 207Q325 208 331 201T338 184Q338 174 332 167T313 161Q302 161 282 163Q264 164 240 165T189 166Q137 166 65 161Q54
160 47 167Z" />
<glyph unicode="&#xae;" glyph-name="registered" horiz-adv-x="412" d="M164 332T121 352T49 414T20 515Q20 574 48 616T120 679T206 700Q248 700 291 679T363 616T392 515Q392 456 364 415T292 353T206 332Q164 332 121 352ZM245 354T281 373T340 429T363 515Q363
565 341 602T282 658T206 678Q167 678 131 659T72 602T49 515Q49 466 71 430T130 374T206 354Q245 354 281 373ZM121 417T121 424Q121 431 127 431L139 430Q149 430 151 442Q153 453 153 531Q153 559 151 575T139 592L129 591Q125 591 123 593T121 599Q121 606
129 606H216Q248 606 266 589T285 547Q285 530 276 515T249 494Q245 493 245 491Q245 490 249 488Q258 483 262 475T270 457T276 442Q279 434 282 432T291 430Q306 430 306 423Q306 417 296 417H264Q247 417 242 442Q238 461 228 473T201 486H190Q183 486 183 479Q183
448 185 442Q188 433 193 432T204 430T213 431Q219 431 219 423Q219 417 213 417Q209 418 194 418Q173 418 163 417Q155 417 146 417T128 417Q121 417 121 424ZM183 503T188 502T200 501T212 501Q231 501 242 515T254 547Q254 564 243 577T211 591H205Q196 591
192 589T185 580Q183 571 183 540V509Q183 503 188 502Z" />
<glyph unicode="&#xaf;" glyph-name="overscore" horiz-adv-x="600" d="M155 744T148 751T141 768Q141 778 148 785T166 791Q223 787 300 787Q350 787 434 791Q446 792 452 785T459 768Q459 758 453 751T434 745L407 746Q339 750 300 750Q238 750 166 745Q155
744 148 751Z" />
<glyph unicode="&#xb0;" glyph-name="degree" horiz-adv-x="308" d="M122 433T91 450T40 497T20 564Q20 602 40 633T91 681T154 698Q186 698 217 681T268 633T288 564Q288 527 268 497T217 450T154 433Q122 433 91 450ZM190 456T208 489T227 565Q227 608 209 641T154
675Q118 675 99 642T80 565Q80 522 99 489T154 456Q190 456 208 489Z" />
<glyph unicode="&#xb1;" glyph-name="plusminus" horiz-adv-x="605" d="M60 359T50 368T40 389Q40 402 50 410T78 417Q176 412 279 412Q279 515 274 615Q273 633 281 642T303 651Q315 651 323 642T331 615Q331 578 328 539Q324 475 323 412Q429 412 529 417Q565
418 565 389Q565 377 556 369T529 360Q492 360 452 363Q388 367 323 368Q324 271 329 204L331 164Q332 147 324 137T303 126Q289 126 281 136T274 164Q279 262 279 368Q184 367 119 362Q106 362 78 360Q60 359 50 368ZM565 67T565 38Q565 26 556 18T529 9Q493 9
452 12Q362 17 303 17Q233 17 123 12L78 9Q60 8 50 17T40 38Q40 51 50 59T78 66Q183 61 303 61Q422 61 529 66Q565 67 565 38Z" />
<glyph unicode="&#xb2;" glyph-name="uni00B2" horiz-adv-x="275" d="M27 498T24 500T20 507Q20 519 31 524Q50 533 91 576T164 675T197 776Q197 814 178 835T133 856Q110 856 92 842T66 800Q60 777 46 777Q43 777 40 779T36 786Q36 800 49 822T88 861T146 878Q184
878 212 853T240 783Q240 738 215 698T139 600Q123 583 93 547L91 542Q91 537 98 537H159Q203 537 219 547T236 595Q236 601 239 605T246 609Q255 609 255 596Q255 590 253 568Q249 521 249 519Q248 508 244 504T234 500Q194 503 134 503Q96 503 67 501T34 498Q27
498 24 500Z" />
<glyph unicode="&#xb3;" glyph-name="uni00B3" horiz-adv-x="248" d="M61 499T27 525Q12 539 12 552Q12 559 16 563T25 568Q38 568 49 549Q58 532 74 524T109 515Q143 515 168 540T194 610Q194 653 171 674T116 696Q109 696 100 694T87 692Q81 692 78 695T75 702Q75
707 80 710T94 714Q123 714 144 736T166 796Q166 824 150 840T110 856Q88 856 71 842T46 802Q43 791 37 785T24 778Q20 778 17 781T14 790Q14 805 27 826T65 862T121 878Q160 878 185 855T210 796Q210 767 193 749T156 722Q147 719 156 719Q185 715 211 689T238
615Q238 579 219 553T170 513T107 499Q61 499 27 525Z" />
<glyph unicode="&#xb4;" glyph-name="acute" horiz-adv-x="600" d="M240 741T240 751Q240 757 244 762Q261 784 281 820L298 850Q306 864 327 864Q340 864 350 859T360 845Q360 840 355 835L311 792Q296 779 268 751Q258 741 250 741Q240 741 240 751Z" />
<glyph unicode="&#xb5;" glyph-name="uni00B5" horiz-adv-x="440" d="M57 -139T47 -148T20 -154L14 -153Q6 -153 2 -157T-3 -167Q-3 -173 2 -177T18 -181H101H185Q195 -181 200 -177T206 -167Q206 -160 200 -156T183 -154Q178 -155 170 -155Q141 -155 137 -122Q134
-104 134 -61V-6Q134 3 138 6T151 7Q171 1 190 1Q248 1 292 45Q297 50 300 50Q305 50 306 41Q313 0 342 0Q349 0 367 11Q390 25 411 31Q420 33 425 38T430 49Q430 59 417 59Q413 59 404 57T389 54Q373 54 368 89T362 182Q362 233 366 307L368 368Q368 380 355 380Q350
380 340 375Q336 373 329 369T318 361Q285 339 263 332Q253 329 248 325T242 316Q242 306 263 306Q282 306 290 290T299 246V144V103Q299 91 286 75T254 47T215 35Q180 35 157 59T133 114Q133 229 136 368Q136 380 123 380Q118 380 108 375Q104 373 97 369T86 361Q53
339 31 332Q21 329 16 325T10 316Q10 306 31 306Q65 306 67 246Q68 225 68 147Q68 -79 60 -122Q57 -139 47 -148Z" />
<glyph unicode="&#xb6;" glyph-name="paragraph" horiz-adv-x="470" d="M40 563T68 606T150 675T280 700Q292 700 300 693T308 669L306 566Q302 442 302 351Q302 216 308 33Q309 17 301 8T280 -2Q268 -2 260 7T252 33Q257 161 257 298Q257 308 249 315T226 324Q138
336 89 387T40 510Q40 563 68 606ZM390 -2T382 7T374 33Q379 178 379 339Q379 517 374 667Q373 684 381 692T402 700Q414 700 422 693T430 669L428 566Q424 442 424 351Q424 216 430 33Q431 17 423 8T402 -2Q390 -2 382 7Z" />
<glyph unicode="&#xb7;" glyph-name="middot" horiz-adv-x="185" d="M71 205T56 220T40 258Q40 279 55 294T93 310Q114 310 129 295T145 258Q145 236 130 221T93 205Q71 205 56 220Z" />
<glyph unicode="&#xb8;" glyph-name="cedilla" horiz-adv-x="600" d="M255 -218T237 -207T218 -182Q218 -166 232 -166Q240 -166 252 -173Q265 -180 277 -183T309 -187Q332 -187 344 -176T356 -149Q356 -97 255 -97Q231 -97 231 -87Q231 -81 236 -73Q243 -61 262
-26Q265 -20 269 -12T279 6Q286 19 299 19Q312 19 312 10Q312 2 292 -32L283 -50Q332 -50 363 -70T395 -122Q395 -145 380 -167T340 -204T286 -218Q255 -218 237 -207Z" />
<glyph unicode="&#xb9;" glyph-name="uni00B9" horiz-adv-x="224" d="M95 791T78 791Q71 791 57 782L39 771Q33 768 28 768Q21 768 21 772Q21 780 32 785Q60 799 78 819T116 870Q121 878 128 878Q133 878 136 873T139 860Q137 834 136 788T134 690Q134 554 139
535Q144 514 182 514L202 515H204Q209 515 211 513T214 508Q214 501 203 501H115H27Q15 501 15 508Q15 515 26 515L49 514Q87 514 92 535Q96 556 96 667L95 768Q95 791 78 791Z" />
<glyph unicode="&#xba;" glyph-name="ordmasculine" horiz-adv-x="269" d="M90 234T52 267T13 360Q13 421 51 454T141 487Q192 487 230 454T269 360Q269 300 231 267T141 234Q90 234 52 267ZM175 251T196 281T217 361Q217 409 196 439T141 470Q107 470 86 440T65
361Q65 311 86 281T141 251Q175 251 196 281Z" />
<glyph unicode="&#xbb;" glyph-name="guillemotright" horiz-adv-x="554" d="M329 178T318 171Q276 145 232 109L212 94L192 79Q140 39 114 13Q104 3 91 3Q79 3 70 11T60 28Q60 38 71 45Q134 85 178 121Q177 120 197 137Q225 158 243 176Q249 182 249 189Q249
195 243 201Q218 226 178 256Q171 262 140 285T71 332Q60 339 60 349Q60 358 70 366T91 374Q104 374 114 364Q140 338 192 298L212 283L232 268Q276 232 318 206Q329 199 329 188Q329 178 318 171ZM514 178T503 171Q461 145 417 109L397 94L377 79Q325 39 299 13Q289
3 276 3Q264 3 255 11T245 28Q245 38 256 45Q319 85 363 121Q362 120 382 137Q410 158 428 176Q434 182 434 189Q434 195 428 201Q403 226 363 256Q356 262 325 285T256 332Q245 339 245 349Q245 358 255 366T276 374Q289 374 299 364Q325 338 377 298L397 283L417
268Q461 232 503 206Q514 199 514 188Q514 178 503 171Z" />
<glyph unicode="&#xbc;" glyph-name="onequarter" horiz-adv-x="683" d="M155 -14T148 -17T133 -21Q123 -21 116 -14T109 4Q109 11 114 20T123 35T130 45L202 145Q299 277 346 344Q542 625 590 702Q601 719 617 719Q629 719 636 711T643 695Q643 686 637 675T622
654Q603 626 562 571Q480 460 418 370Q347 270 242 113Q168 5 160 -7Q155 -14 148 -17ZM125 610T108 610Q101 610 87 601L69 590Q63 587 58 587Q51 587 51 591Q51 599 62 604Q90 618 108 638T146 689Q151 697 158 697Q163 697 166 692T169 679Q167 653 166 607T164
509Q164 373 169 354Q174 333 212 333L232 334H234Q239 334 241 332T244 327Q244 320 233 320H145H57Q45 320 45 327Q45 334 56 334L79 333Q117 333 122 354Q126 375 126 486L125 587Q125 610 108 610ZM407 93Q396 93 396 98Q396 102 401 109T408 119Q446 177 468
214T526 319Q535 335 554 370Q560 380 576 380Q581 380 584 378T586 373L441 127Q440 125 440 122Q440 117 446 117H534Q543 117 543 125V219Q543 226 552 236T571 251T580 247V125Q580 121 582 119T588 117H634Q638 117 638 113Q638 108 632 101T621 94H588Q585
94 583 92T580 86V57Q580 54 580 40T588 19T613 16H615Q625 16 625 8Q625 1 614 1H506Q495 1 495 8Q495 11 498 14T507 16Q511 15 517 15Q530 15 535 22T542 49Q543 55 543 85Q543 94 534 94L407 93Z" />
<glyph unicode="&#xbd;" glyph-name="onehalf" horiz-adv-x="732" d="M155 -14T148 -17T133 -21Q123 -21 116 -14T109 4Q109 11 114 20T123 35T130 45L202 145Q299 277 346 344Q542 625 590 702Q601 719 617 719Q629 719 636 711T643 695Q643 686 637 675T622
654Q603 626 562 571Q480 460 418 370Q347 270 242 113Q168 5 160 -7Q155 -14 148 -17ZM125 610T108 610Q101 610 87 601L69 590Q63 587 58 587Q51 587 51 591Q51 599 62 604Q90 618 108 638T146 689Q151 697 158 697Q163 697 166 692T169 679Q167 653 166 607T164
509Q164 373 169 354Q174 333 212 333L232 334H234Q239 334 241 332T244 327Q244 320 233 320H145H57Q45 320 45 327Q45 334 56 334L79 333Q117 333 122 354Q126 375 126 486L125 587Q125 610 108 610ZM464 0T461 2T457 9Q457 21 468 26Q487 35 528 78T601 177T634
278Q634 316 615 337T570 358Q547 358 529 344T503 302Q497 279 483 279Q480 279 477 281T473 288Q473 302 486 324T525 363T583 380Q621 380 649 355T677 285Q677 240 652 200T576 102Q560 85 530 49L528 44Q528 39 535 39H596Q640 39 656 49T673 97Q673 103 676
107T683 111Q692 111 692 98Q692 92 690 70Q686 23 686 21Q685 10 681 6T671 2Q631 5 571 5Q533 5 504 3T471 0Q464 0 461 2Z" />
<glyph unicode="&#xbe;" glyph-name="threequarters" horiz-adv-x="674" d="M146 -14T139 -17T124 -21Q114 -21 107 -14T100 4Q100 11 105 20T114 35T121 45L193 145Q290 277 337 344Q533 625 581 702Q592 719 608 719Q620 719 627 711T634 695Q634 686 628 675T613
654Q594 626 553 571Q471 460 409 370Q338 270 233 113Q159 5 151 -7Q146 -14 139 -17ZM89 320T55 346Q40 360 40 373Q40 380 44 384T53 389Q66 389 77 370Q86 353 102 345T137 336Q171 336 196 361T222 431Q222 474 199 495T144 517Q137 517 128 515T115 513Q109
513 106 516T103 523Q103 528 108 531T122 535Q151 535 172 557T194 617Q194 645 178 661T138 677Q116 677 99 663T74 623Q71 612 65 606T52 599Q48 599 45 602T42 611Q42 626 55 647T93 683T149 699Q188 699 213 676T238 617Q238 588 221 570T184 543Q175 540
184 540Q213 536 239 510T266 436Q266 400 247 374T198 334T135 320Q89 320 55 346ZM402 92Q391 92 391 97Q391 101 396 108T403 118Q441 176 463 213T521 318Q530 334 549 369Q555 379 571 379Q576 379 579 377T581 372L436 126Q435 124 435 121Q435 116 441 116H529Q538
116 538 124V218Q538 225 547 235T566 250T575 246V124Q575 120 577 118T583 116H629Q633 116 633 112Q633 107 627 100T616 93H583Q580 93 578 91T575 85V56Q575 53 575 39T583 18T608 15H610Q620 15 620 7Q620 0 609 0H501Q490 0 490 7Q490 10 493 13T502 15Q506
14 512 14Q525 14 530 21T537 48Q538 54 538 84Q538 93 529 93L402 92Z" />
<glyph unicode="&#xbf;" glyph-name="questiondown" horiz-adv-x="527" d="M276 380T265 369T254 342Q254 326 265 314T292 302Q309 302 320 314T332 342Q332 358 321 369T292 380Q276 380 265 369ZM286 255T282 245T278 220Q280 192 280 170Q280 130 273 95Q268
70 251 56T200 21Q175 7 161 -2T136 -25Q111 -54 101 -80T90 -136Q90 -187 117 -229T191 -295T291 -319Q353 -319 397 -294T464 -229T487 -153Q487 -106 463 -72T400 -38Q389 -38 381 -43T373 -60Q373 -71 377 -80T393 -100Q404 -110 410 -126T417 -174Q417 -202
402 -229T359 -273T300 -291Q238 -291 199 -255T160 -156Q160 -75 230 -21Q272 11 289 33T311 76T315 143Q315 152 313 198L312 220Q310 255 295 255Q286 255 282 245Z" />
<glyph unicode="&#xc0;" glyph-name="Agrave" horiz-adv-x="790" d="M36 1Q26 1 21 5T15 15Q15 21 21 25T38 28Q71 25 76 25Q122 25 139 57Q150 77 228 294T325 562L364 671Q377 700 395 700Q405 700 412 695T426 673Q457 597 522 404Q535 367 577 247T645 68Q655
45 673 36T720 26Q730 26 752 28H756Q765 28 770 24T775 14Q775 9 770 5T754 1H448Q438 1 433 5T427 15Q427 21 433 25T450 28Q476 26 489 26Q562 26 557 68Q554 94 481 309Q477 322 464 322H290Q278 322 273 310Q188 71 187 52Q186 37 199 31T244 24Q279 24 320
28H323Q332 28 337 24T343 14Q343 9 338 5T322 1H36ZM295 372Q294 369 294 365Q294 354 307 354H448Q456 354 459 359T460 371L388 581Q385 591 379 591Q372 591 369 581L295 372ZM437 736T427 746Q399 774 384 787L340 830Q335 835 335 840Q335 848 345 853T368
859Q389 859 397 845Q430 789 451 757Q455 752 455 746Q455 736 444 736Q437 736 427 746Z" />
<glyph unicode="&#xc1;" glyph-name="Aacute" horiz-adv-x="790" d="M36 1Q26 1 21 5T15 15Q15 21 21 25T38 28Q71 25 76 25Q122 25 139 57Q150 77 228 294T325 562L364 671Q377 700 395 700Q405 700 412 695T426 673Q457 597 522 404Q535 367 577 247T645 68Q655
45 673 36T720 26Q730 26 752 28H756Q765 28 770 24T775 14Q775 9 770 5T754 1H448Q438 1 433 5T427 15Q427 21 433 25T450 28Q476 26 489 26Q562 26 557 68Q554 94 481 309Q477 322 464 322H290Q278 322 273 310Q188 71 187 52Q186 37 199 31T244 24Q279 24 320
28H323Q332 28 337 24T343 14Q343 9 338 5T322 1H36ZM295 372Q294 369 294 365Q294 354 307 354H448Q456 354 459 359T460 371L388 581Q385 591 379 591Q372 591 369 581L295 372ZM335 741T335 751Q335 757 339 762Q356 784 376 820L393 850Q401 864 422 864Q435
864 445 859T455 845Q455 840 450 835L406 792Q391 779 363 751Q353 741 345 741Q335 741 335 751Z" />
<glyph unicode="&#xc2;" glyph-name="Acircumflex" horiz-adv-x="790" d="M36 1Q26 1 21 5T15 15Q15 21 21 25T38 28Q71 25 76 25Q122 25 139 57Q150 77 228 294T325 562L364 671Q377 700 395 700Q405 700 412 695T426 673Q457 597 522 404Q535 367 577 247T645
68Q655 45 673 36T720 26Q730 26 752 28H756Q765 28 770 24T775 14Q775 9 770 5T754 1H448Q438 1 433 5T427 15Q427 21 433 25T450 28Q476 26 489 26Q562 26 557 68Q554 94 481 309Q477 322 464 322H290Q278 322 273 310Q188 71 187 52Q186 37 199 31T244 24Q279
24 320 28H323Q332 28 337 24T343 14Q343 9 338 5T322 1H36ZM295 372Q294 369 294 365Q294 354 307 354H448Q456 354 459 359T460 371L388 581Q385 591 379 591Q372 591 369 581L295 372ZM294 726T289 731T284 744Q284 748 287 753T295 762T302 769Q322 791 337
808T369 856Q374 864 381 868T395 873Q411 873 421 856Q447 814 487 771Q495 762 500 756T506 744Q506 737 501 732T486 726Q478 726 469 735T440 767Q420 793 395 820Q370 793 350 767Q331 745 322 736T304 726Q294 726 289 731Z" />
<glyph unicode="&#xc3;" glyph-name="Atilde" horiz-adv-x="790" d="M36 1Q26 1 21 5T15 15Q15 21 21 25T38 28Q71 25 76 25Q122 25 139 57Q150 77 228 294T325 562L364 671Q377 700 395 700Q405 700 412 695T426 673Q457 597 522 404Q535 367 577 247T645 68Q655
45 673 36T720 26Q730 26 752 28H756Q765 28 770 24T775 14Q775 9 770 5T754 1H448Q438 1 433 5T427 15Q427 21 433 25T450 28Q476 26 489 26Q562 26 557 68Q554 94 481 309Q477 322 464 322H290Q278 322 273 310Q188 71 187 52Q186 37 199 31T244 24Q279 24 320
28H323Q332 28 337 24T343 14Q343 9 338 5T322 1H36ZM295 372Q294 369 294 365Q294 354 307 354H448Q456 354 459 359T460 371L388 581Q385 591 379 591Q372 591 369 581L295 372ZM288 754T283 748T271 742Q259 742 259 757Q259 765 261 770Q271 802 295 820T348
838Q382 838 409 815Q455 775 475 775Q496 775 502 816Q503 824 508 828T520 833Q526 833 529 829T530 815Q522 777 501 760T452 742Q429 742 407 752T372 778Q361 792 348 800T324 808Q298 808 290 765Q288 754 283 748Z" />
<glyph unicode="&#xc4;" glyph-name="Adieresis" horiz-adv-x="790" d="M36 1Q26 1 21 5T15 15Q15 21 21 25T38 28Q71 25 76 25Q122 25 139 57Q150 77 228 294T325 562L364 671Q377 700 395 700Q405 700 412 695T426 673Q457 597 522 404Q535 367 577 247T645
68Q655 45 673 36T720 26Q730 26 752 28H756Q765 28 770 24T775 14Q775 9 770 5T754 1H448Q438 1 433 5T427 15Q427 21 433 25T450 28Q476 26 489 26Q562 26 557 68Q554 94 481 309Q477 322 464 322H290Q278 322 273 310Q188 71 187 52Q186 37 199 31T244 24Q279
24 320 28H323Q332 28 337 24T343 14Q343 9 338 5T322 1H36ZM295 372Q294 369 294 365Q294 354 307 354H448Q456 354 459 359T460 371L388 581Q385 591 379 591Q372 591 369 581L295 372ZM293 752T278 767T262 805Q262 826 277 841T315 857Q336 857 351 842T367
805Q367 783 352 768T315 752Q293 752 278 767ZM454 752T439 767T423 805Q423 826 438 841T476 857Q497 857 512 842T528 805Q528 783 513 768T476 752Q454 752 439 767Z" />
<glyph unicode="&#xc5;" glyph-name="Aring" horiz-adv-x="790" d="M36 1Q26 1 21 5T15 15Q15 21 21 25T38 28Q71 25 76 25Q122 25 139 57Q150 77 228 294T325 562L364 671Q377 700 395 700Q405 700 412 695T426 673Q457 597 522 404Q535 367 577 247T645 68Q655
45 673 36T720 26Q730 26 752 28H756Q765 28 770 24T775 14Q775 9 770 5T754 1H448Q438 1 433 5T427 15Q427 21 433 25T450 28Q476 26 489 26Q562 26 557 68Q554 94 481 309Q477 322 464 322H290Q278 322 273 310Q188 71 187 52Q186 37 199 31T244 24Q279 24 320
28H323Q332 28 337 24T343 14Q343 9 338 5T322 1H36ZM295 372Q294 369 294 365Q294 354 307 354H448Q456 354 459 359T460 371L388 581Q385 591 379 591Q372 591 369 581L295 372ZM364 726T343 747T322 799Q322 829 343 850T394 871Q425 871 446 850T467 799Q467
768 446 747T394 726Q364 726 343 747ZM412 755T425 768T438 799Q438 816 425 829T394 842Q377 842 364 829T351 799Q351 781 364 768T394 755Q412 755 425 768Z" />
<glyph unicode="&#xc6;" glyph-name="AE" horiz-adv-x="966" d="M925 229T930 223T936 203Q936 137 930 53Q928 21 921 11T893 0H848Q812 1 697 1H548H399Q389 1 384 5T378 15Q378 21 384 25T401 28Q425 26 436 26Q464 26 481 35T504 68Q508 87 510 158T513 322H337Q194
79 187 52Q183 37 196 31T237 24Q252 24 300 28H304Q313 28 318 24T323 14Q323 9 318 5T302 1H169H36Q26 1 21 5T15 15Q15 21 21 25T38 28Q52 26 59 26Q83 26 105 34T139 57Q163 88 386 473L476 627Q480 632 480 639Q480 656 437 656Q427 656 401 654H397Q388 654
383 658T378 668Q378 673 383 677T399 681H548L888 680Q911 680 915 644Q926 531 926 494Q926 483 922 477T910 470Q902 470 896 477T890 496Q890 595 833 632Q812 646 784 649T702 654Q662 655 644 654T611 643T592 614Q583 579 583 357Q679 357 721 363Q746 367
759 387T772 433Q772 444 771 449V452Q771 458 775 461T784 464Q790 464 794 461T798 450V341V242Q798 235 794 232T784 228Q778 228 774 232T771 243Q772 248 772 259Q772 281 760 297T721 319Q701 323 667 324T583 325Q583 103 592 68Q599 42 620 35T682 28H737Q765
28 809 34Q854 40 877 79T901 206Q901 217 906 223T917 229Q925 229 930 223ZM442 503T356 354H513Q513 437 511 512T507 612Q442 503 356 354Z" />
<glyph unicode="&#xc7;" glyph-name="Ccedilla" horiz-adv-x="658" d="M620 284T624 280T628 266V176V65Q628 57 625 53T615 49Q609 49 605 53T601 66Q601 79 599 88T590 98Q587 98 581 91Q556 56 498 28T364 0H362Q358 -8 336 -50Q385 -50 416 -70T448 -122Q448
-145 433 -167T393 -204T339 -218Q308 -218 290 -207T271 -182Q271 -166 285 -166Q293 -166 305 -173Q318 -180 330 -183T362 -187Q385 -187 397 -176T409 -149Q409 -97 308 -97Q284 -97 284 -87Q284 -81 289 -73L314 -28Q317 -21 321 -14T330 2Q254 10 186 51T74
168T30 349Q30 462 80 541T207 660T364 700Q438 700 491 679T576 629Q583 623 588 623Q598 623 598 650Q598 658 602 661T611 665Q617 665 621 661T625 648V548V458Q625 447 621 441T611 435Q606 435 602 441T598 458Q598 505 568 555T485 639T364 673Q293 673
235 632T144 518T110 349Q110 255 143 182T235 68T364 27Q448 27 501 71T577 173T601 269Q601 276 605 280T614 284Q620 284 624 280Z" />
<glyph unicode="&#xc8;" glyph-name="Egrave" horiz-adv-x="628" d="M41 1Q31 1 26 5T20 15Q20 21 26 25T43 28Q67 26 78 26Q106 26 123 35T146 68Q155 104 155 341Q155 578 146 614Q140 637 123 646T78 656Q67 656 43 654H39Q30 654 25 658T20 668Q20 673 25
677T41 681L550 680Q573 680 577 644Q588 545 588 494Q588 483 584 477T572 470Q564 470 558 477T552 496Q552 595 495 632Q471 648 433 651T315 654Q277 654 259 647T234 614Q225 578 225 383Q225 357 251 357Q339 357 373 363Q398 367 411 387T424 433Q424 444
423 449V452Q423 458 427 461T436 464Q442 464 446 461T450 450V242Q450 235 446 232T436 228Q430 228 426 232T423 243Q424 248 424 259Q424 281 412 297T373 319Q354 323 324 324T251 325Q225 325 225 299Q225 104 234 68Q241 42 262 35T324 28H384Q427 28 471
34Q516 40 539 79T563 206Q563 217 568 223T579 229Q587 229 592 223T598 203Q598 137 592 53Q590 21 583 11T555 0H509Q469 1 339 1H41ZM356 736T346 746Q318 774 303 787L259 830Q254 835 254 840Q254 848 264 853T287 859Q308 859 316 845Q349 789 370 757Q374
752 374 746Q374 736 363 736Q356 736 346 746Z" />
<glyph unicode="&#xc9;" glyph-name="Eacute" horiz-adv-x="628" d="M41 1Q31 1 26 5T20 15Q20 21 26 25T43 28Q67 26 78 26Q106 26 123 35T146 68Q155 104 155 341Q155 578 146 614Q140 637 123 646T78 656Q67 656 43 654H39Q30 654 25 658T20 668Q20 673 25
677T41 681L550 680Q573 680 577 644Q588 545 588 494Q588 483 584 477T572 470Q564 470 558 477T552 496Q552 595 495 632Q471 648 433 651T315 654Q277 654 259 647T234 614Q225 578 225 383Q225 357 251 357Q339 357 373 363Q398 367 411 387T424 433Q424 444
423 449V452Q423 458 427 461T436 464Q442 464 446 461T450 450V242Q450 235 446 232T436 228Q430 228 426 232T423 243Q424 248 424 259Q424 281 412 297T373 319Q354 323 324 324T251 325Q225 325 225 299Q225 104 234 68Q241 42 262 35T324 28H384Q427 28 471
34Q516 40 539 79T563 206Q563 217 568 223T579 229Q587 229 592 223T598 203Q598 137 592 53Q590 21 583 11T555 0H509Q469 1 339 1H41ZM254 741T254 751Q254 757 258 762Q275 784 295 820L312 850Q320 864 341 864Q354 864 364 859T374 845Q374 840 369 835L325
792Q310 779 282 751Q272 741 264 741Q254 741 254 751Z" />
<glyph unicode="&#xca;" glyph-name="Ecircumflex" horiz-adv-x="628" d="M41 1Q31 1 26 5T20 15Q20 21 26 25T43 28Q67 26 78 26Q106 26 123 35T146 68Q155 104 155 341Q155 578 146 614Q140 637 123 646T78 656Q67 656 43 654H39Q30 654 25 658T20 668Q20 673
25 677T41 681L550 680Q573 680 577 644Q588 545 588 494Q588 483 584 477T572 470Q564 470 558 477T552 496Q552 595 495 632Q471 648 433 651T315 654Q277 654 259 647T234 614Q225 578 225 383Q225 357 251 357Q339 357 373 363Q398 367 411 387T424 433Q424
444 423 449V452Q423 458 427 461T436 464Q442 464 446 461T450 450V242Q450 235 446 232T436 228Q430 228 426 232T423 243Q424 248 424 259Q424 281 412 297T373 319Q354 323 324 324T251 325Q225 325 225 299Q225 104 234 68Q241 42 262 35T324 28H384Q427 28
471 34Q516 40 539 79T563 206Q563 217 568 223T579 229Q587 229 592 223T598 203Q598 137 592 53Q590 21 583 11T555 0H509Q469 1 339 1H41ZM213 726T208 731T203 744Q203 748 206 753T214 762T221 769Q241 791 256 808T288 856Q293 864 300 868T314 873Q330 873
340 856Q366 814 406 771Q414 762 419 756T425 744Q425 737 420 732T405 726Q397 726 388 735T359 767Q339 793 314 820Q289 793 269 767Q250 745 241 736T223 726Q213 726 208 731Z" />
<glyph unicode="&#xcb;" glyph-name="Edieresis" horiz-adv-x="628" d="M41 1Q31 1 26 5T20 15Q20 21 26 25T43 28Q67 26 78 26Q106 26 123 35T146 68Q155 104 155 341Q155 578 146 614Q140 637 123 646T78 656Q67 656 43 654H39Q30 654 25 658T20 668Q20 673
25 677T41 681L550 680Q573 680 577 644Q588 545 588 494Q588 483 584 477T572 470Q564 470 558 477T552 496Q552 595 495 632Q471 648 433 651T315 654Q277 654 259 647T234 614Q225 578 225 383Q225 357 251 357Q339 357 373 363Q398 367 411 387T424 433Q424
444 423 449V452Q423 458 427 461T436 464Q442 464 446 461T450 450V242Q450 235 446 232T436 228Q430 228 426 232T423 243Q424 248 424 259Q424 281 412 297T373 319Q354 323 324 324T251 325Q225 325 225 299Q225 104 234 68Q241 42 262 35T324 28H384Q427 28
471 34Q516 40 539 79T563 206Q563 217 568 223T579 229Q587 229 592 223T598 203Q598 137 592 53Q590 21 583 11T555 0H509Q469 1 339 1H41ZM212 752T197 767T181 805Q181 826 196 841T234 857Q255 857 270 842T286 805Q286 783 271 768T234 752Q212 752 197 767ZM373
752T358 767T342 805Q342 826 357 841T395 857Q416 857 431 842T447 805Q447 783 432 768T395 752Q373 752 358 767Z" />
<glyph unicode="&#xcc;" glyph-name="Igrave" horiz-adv-x="388" d="M31 1T26 5T20 15Q20 21 26 25T43 28Q67 26 78 26Q108 26 126 35T150 68Q159 104 159 341Q159 578 150 614Q144 637 126 646T78 656Q67 656 43 654H39Q30 654 25 658T20 668Q20 673 25 677T41
681H194H347Q357 681 362 677T368 667Q368 661 362 657T345 654Q321 656 310 656Q280 656 262 647T238 614Q229 578 229 341Q229 104 238 68Q244 45 262 36T310 26Q321 26 345 28H349Q358 28 363 24T368 14Q368 9 363 5T347 1H194H41Q31 1 26 5ZM236 736T226 746Q198
774 183 787L139 830Q134 835 134 840Q134 848 144 853T167 859Q188 859 196 845Q229 789 250 757Q254 752 254 746Q254 736 243 736Q236 736 226 746Z" />
<glyph unicode="&#xcd;" glyph-name="Iacute" horiz-adv-x="388" d="M31 1T26 5T20 15Q20 21 26 25T43 28Q67 26 78 26Q108 26 126 35T150 68Q159 104 159 341Q159 578 150 614Q144 637 126 646T78 656Q67 656 43 654H39Q30 654 25 658T20 668Q20 673 25 677T41
681H194H347Q357 681 362 677T368 667Q368 661 362 657T345 654Q321 656 310 656Q280 656 262 647T238 614Q229 578 229 341Q229 104 238 68Q244 45 262 36T310 26Q321 26 345 28H349Q358 28 363 24T368 14Q368 9 363 5T347 1H194H41Q31 1 26 5ZM134 741T134 751Q134
757 138 762Q155 784 175 820L192 850Q200 864 221 864Q234 864 244 859T254 845Q254 840 249 835L205 792Q190 779 162 751Q152 741 144 741Q134 741 134 751Z" />
<glyph unicode="&#xce;" glyph-name="Icircumflex" horiz-adv-x="388" d="M31 1T26 5T20 15Q20 21 26 25T43 28Q67 26 78 26Q108 26 126 35T150 68Q159 104 159 341Q159 578 150 614Q144 637 126 646T78 656Q67 656 43 654H39Q30 654 25 658T20 668Q20 673 25
677T41 681H194H347Q357 681 362 677T368 667Q368 661 362 657T345 654Q321 656 310 656Q280 656 262 647T238 614Q229 578 229 341Q229 104 238 68Q244 45 262 36T310 26Q321 26 345 28H349Q358 28 363 24T368 14Q368 9 363 5T347 1H194H41Q31 1 26 5ZM93 726T88
731T83 744Q83 748 86 753T94 762T101 769Q121 791 136 808T168 856Q173 864 180 868T194 873Q210 873 220 856Q246 814 286 771Q294 762 299 756T305 744Q305 737 300 732T285 726Q277 726 268 735T239 767Q219 793 194 820Q169 793 149 767Q130 745 121 736T103
726Q93 726 88 731Z" />
<glyph unicode="&#xcf;" glyph-name="Idieresis" horiz-adv-x="388" d="M31 1T26 5T20 15Q20 21 26 25T43 28Q67 26 78 26Q108 26 126 35T150 68Q159 104 159 341Q159 578 150 614Q144 637 126 646T78 656Q67 656 43 654H39Q30 654 25 658T20 668Q20 673 25 677T41
681H194H347Q357 681 362 677T368 667Q368 661 362 657T345 654Q321 656 310 656Q280 656 262 647T238 614Q229 578 229 341Q229 104 238 68Q244 45 262 36T310 26Q321 26 345 28H349Q358 28 363 24T368 14Q368 9 363 5T347 1H194H41Q31 1 26 5ZM92 752T77 767T61
805Q61 826 76 841T114 857Q135 857 150 842T166 805Q166 783 151 768T114 752Q92 752 77 767ZM253 752T238 767T222 805Q222 826 237 841T275 857Q296 857 311 842T327 805Q327 783 312 768T275 752Q253 752 238 767Z" />
<glyph unicode="&#xd0;" glyph-name="Eth" horiz-adv-x="703" d="M434 682T512 646T636 534T683 341Q683 225 637 149T512 37T337 1H41Q31 1 26 5T20 15Q20 21 26 25T43 28Q67 26 78 26Q106 26 123 35T146 68Q155 102 155 321Q118 321 54 317Q41 316 34 323T26
340Q26 350 33 357T54 363Q87 361 155 359Q155 580 146 614Q140 637 123 646T78 656Q67 656 43 654H39Q30 654 25 658T20 668Q20 673 25 677T41 681H337Q434 682 512 646ZM413 25T474 63T572 173T608 341Q608 437 572 508T475 616T337 654Q300 654 284 653T253
643T234 614Q225 580 225 359Q311 361 351 363Q364 364 371 357T378 340Q378 330 371 323T351 317Q274 321 225 322Q225 102 234 68Q241 42 260 36T304 29T338 28Q413 25 474 63Z" />
<glyph unicode="&#xd1;" glyph-name="Ntilde" horiz-adv-x="748" d="M41 1Q31 1 26 5T20 15Q20 21 26 25T43 28Q67 26 78 26Q108 26 126 35T150 68Q160 104 160 341Q160 578 150 614Q144 637 126 646T78 656Q67 656 43 654H39Q30 654 25 658T20 668Q20 673 25
677T41 681H179Q193 681 204 678T220 668Q325 500 407 386T597 144Q602 137 607 137Q615 137 615 150L616 599Q616 630 593 643T535 656Q523 656 505 654H502Q494 654 490 658T486 668Q486 673 490 677T503 681H741Q749 681 753 677T758 667Q758 661 753 657T739
654Q733 655 720 655Q692 655 674 641T656 599V44Q656 23 648 13T626 2Q613 2 605 13Q519 127 364 343Q230 529 221 541Q217 548 211 548Q203 548 203 536Q199 459 199 321Q199 228 201 157T208 68Q214 45 232 36T280 26Q291 26 315 28H319Q328 28 333 24T338 14Q338
9 333 5T317 1H41ZM267 754T262 748T250 742Q238 742 238 757Q238 765 240 770Q250 802 274 820T327 838Q361 838 388 815Q434 775 454 775Q475 775 481 816Q482 824 487 828T499 833Q505 833 508 829T509 815Q501 777 480 760T431 742Q408 742 386 752T351 778Q340
792 327 800T303 808Q277 808 269 765Q267 754 262 748Z" />
<glyph unicode="&#xd2;" glyph-name="Ograve" horiz-adv-x="708" d="M274 0T197 39T70 157T20 349Q20 462 70 541T197 660T354 700Q434 700 511 661T638 542T688 349Q688 236 638 157T511 39T354 0Q274 0 197 39ZM425 27T483 67T574 181T608 349Q608 444 575 517T483
632T354 673Q283 673 225 632T134 518T100 349Q100 255 133 182T225 68T354 27Q425 27 483 67ZM396 736T386 746Q358 774 343 787L299 830Q294 835 294 840Q294 848 304 853T327 859Q348 859 356 845Q389 789 410 757Q414 752 414 746Q414 736 403 736Q396 736
386 746Z" />
<glyph unicode="&#xd3;" glyph-name="Oacute" horiz-adv-x="708" d="M274 0T197 39T70 157T20 349Q20 462 70 541T197 660T354 700Q434 700 511 661T638 542T688 349Q688 236 638 157T511 39T354 0Q274 0 197 39ZM425 27T483 67T574 181T608 349Q608 444 575 517T483
632T354 673Q283 673 225 632T134 518T100 349Q100 255 133 182T225 68T354 27Q425 27 483 67ZM294 741T294 751Q294 757 298 762Q315 784 335 820L352 850Q360 864 381 864Q394 864 404 859T414 845Q414 840 409 835L365 792Q350 779 322 751Q312 741 304 741Q294
741 294 751Z" />
<glyph unicode="&#xd4;" glyph-name="Ocircumflex" horiz-adv-x="708" d="M274 0T197 39T70 157T20 349Q20 462 70 541T197 660T354 700Q434 700 511 661T638 542T688 349Q688 236 638 157T511 39T354 0Q274 0 197 39ZM425 27T483 67T574 181T608 349Q608 444
575 517T483 632T354 673Q283 673 225 632T134 518T100 349Q100 255 133 182T225 68T354 27Q425 27 483 67ZM253 726T248 731T243 744Q243 748 246 753T254 762T261 769Q281 791 296 808T328 856Q333 864 340 868T354 873Q370 873 380 856Q406 814 446 771Q454
762 459 756T465 744Q465 737 460 732T445 726Q437 726 428 735T399 767Q379 793 354 820Q329 793 309 767Q290 745 281 736T263 726Q253 726 248 731Z" />
<glyph unicode="&#xd5;" glyph-name="Otilde" horiz-adv-x="708" d="M274 0T197 39T70 157T20 349Q20 462 70 541T197 660T354 700Q434 700 511 661T638 542T688 349Q688 236 638 157T511 39T354 0Q274 0 197 39ZM425 27T483 67T574 181T608 349Q608 444 575 517T483
632T354 673Q283 673 225 632T134 518T100 349Q100 255 133 182T225 68T354 27Q425 27 483 67ZM247 754T242 748T230 742Q218 742 218 757Q218 765 220 770Q230 802 254 820T307 838Q341 838 368 815Q414 775 434 775Q455 775 461 816Q462 824 467 828T479 833Q485
833 488 829T489 815Q481 777 460 760T411 742Q388 742 366 752T331 778Q320 792 307 800T283 808Q257 808 249 765Q247 754 242 748Z" />
<glyph unicode="&#xd6;" glyph-name="Odieresis" horiz-adv-x="708" d="M274 0T197 39T70 157T20 349Q20 462 70 541T197 660T354 700Q434 700 511 661T638 542T688 349Q688 236 638 157T511 39T354 0Q274 0 197 39ZM425 27T483 67T574 181T608 349Q608 444 575
517T483 632T354 673Q283 673 225 632T134 518T100 349Q100 255 133 182T225 68T354 27Q425 27 483 67ZM252 752T237 767T221 805Q221 826 236 841T274 857Q295 857 310 842T326 805Q326 783 311 768T274 752Q252 752 237 767ZM413 752T398 767T382 805Q382 826
397 841T435 857Q456 857 471 842T487 805Q487 783 472 768T435 752Q413 752 398 767Z" />
<glyph unicode="&#xd7;" glyph-name="multiply" horiz-adv-x="468" d="M428 78T428 65Q428 55 420 45Q412 37 400 37Q385 37 373 50Q361 63 339 89Q287 149 234 202Q150 116 95 51Q82 37 67 37Q56 37 48 45Q40 53 40 65Q40 79 54 92Q85 119 119 152T202 233Q143
293 90 338L54 370Q40 383 40 398Q40 409 48 417Q56 425 67 425Q80 425 95 410Q142 358 234 265Q285 316 322 358Q347 386 373 412Q386 425 400 425Q410 425 420 417Q428 409 428 397Q428 383 414 370L370 330Q327 295 265 234Q313 186 363 140Q390 116 414 92Q428
78 428 65Z" />
<glyph unicode="&#xd8;" glyph-name="Oslash" horiz-adv-x="728" d="M641 547T664 486T688 349Q688 236 638 157T511 39T354 0Q304 0 253 16T157 64Q115 11 97 -13Q88 -25 75 -25Q67 -25 62 -20Q55 -14 55 -3Q55 8 63 16Q97 53 127 88Q77 134 49 199T20 349Q20
462 70 541T197 660T354 700Q410 700 467 680T572 619Q604 657 631 693Q642 705 651 705Q659 705 665 699Q673 693 673 683Q673 673 665 665Q631 629 600 592Q641 547 664 486ZM100 217T163 130L335 334L539 578Q504 623 457 648T354 673Q283 673 225 632T134 518T100
349Q100 217 163 130ZM425 27T483 67T574 181T608 349Q608 461 560 546L376 329Q258 189 187 100Q220 65 263 46T354 27Q425 27 483 67Z" />
<glyph unicode="&#xd9;" glyph-name="Ugrave" horiz-adv-x="815" d="M309 6T234 71T159 287L160 412Q160 572 150 614Q144 637 126 646T78 656Q67 656 43 654H40Q31 654 26 657T20 667Q20 673 25 677T41 681H194H347Q357 681 362 677T368 668Q368 662 363 658T349
654L308 656Q279 656 262 647T239 614Q229 572 229 414L230 283Q230 206 256 151T325 67T417 38Q505 38 560 96T616 273L617 408Q617 572 607 614Q601 637 583 646T535 656L496 654Q487 654 482 658T477 668Q477 673 482 677T498 681H774Q784 681 789 677T795 667Q795
661 790 658T775 654Q765 654 756 655T737 656Q707 656 689 647T665 614Q655 572 655 422L656 303Q656 191 620 125T530 33T419 6Q309 6 234 71ZM450 736T440 746Q412 774 397 787L353 830Q348 835 348 840Q348 848 358 853T381 859Q402 859 410 845Q443 789 464
757Q468 752 468 746Q468 736 457 736Q450 736 440 746Z" />
<glyph unicode="&#xda;" glyph-name="Uacute" horiz-adv-x="815" d="M309 6T234 71T159 287L160 412Q160 572 150 614Q144 637 126 646T78 656Q67 656 43 654H40Q31 654 26 657T20 667Q20 673 25 677T41 681H194H347Q357 681 362 677T368 668Q368 662 363 658T349
654L308 656Q279 656 262 647T239 614Q229 572 229 414L230 283Q230 206 256 151T325 67T417 38Q505 38 560 96T616 273L617 408Q617 572 607 614Q601 637 583 646T535 656L496 654Q487 654 482 658T477 668Q477 673 482 677T498 681H774Q784 681 789 677T795 667Q795
661 790 658T775 654Q765 654 756 655T737 656Q707 656 689 647T665 614Q655 572 655 422L656 303Q656 191 620 125T530 33T419 6Q309 6 234 71ZM348 741T348 751Q348 757 352 762Q369 784 389 820L406 850Q414 864 435 864Q448 864 458 859T468 845Q468 840 463
835L419 792Q404 779 376 751Q366 741 358 741Q348 741 348 751Z" />
<glyph unicode="&#xdb;" glyph-name="Ucircumflex" horiz-adv-x="815" d="M309 6T234 71T159 287L160 412Q160 572 150 614Q144 637 126 646T78 656Q67 656 43 654H40Q31 654 26 657T20 667Q20 673 25 677T41 681H194H347Q357 681 362 677T368 668Q368 662 363
658T349 654L308 656Q279 656 262 647T239 614Q229 572 229 414L230 283Q230 206 256 151T325 67T417 38Q505 38 560 96T616 273L617 408Q617 572 607 614Q601 637 583 646T535 656L496 654Q487 654 482 658T477 668Q477 673 482 677T498 681H774Q784 681 789 677T795
667Q795 661 790 658T775 654Q765 654 756 655T737 656Q707 656 689 647T665 614Q655 572 655 422L656 303Q656 191 620 125T530 33T419 6Q309 6 234 71ZM307 726T302 731T297 744Q297 748 300 753T308 762T315 769Q335 791 350 808T382 856Q387 864 394 868T408
873Q424 873 434 856Q460 814 500 771Q508 762 513 756T519 744Q519 737 514 732T499 726Q491 726 482 735T453 767Q433 793 408 820Q383 793 363 767Q344 745 335 736T317 726Q307 726 302 731Z" />
<glyph unicode="&#xdc;" glyph-name="Udieresis" horiz-adv-x="815" d="M309 6T234 71T159 287L160 412Q160 572 150 614Q144 637 126 646T78 656Q67 656 43 654H40Q31 654 26 657T20 667Q20 673 25 677T41 681H194H347Q357 681 362 677T368 668Q368 662 363 658T349
654L308 656Q279 656 262 647T239 614Q229 572 229 414L230 283Q230 206 256 151T325 67T417 38Q505 38 560 96T616 273L617 408Q617 572 607 614Q601 637 583 646T535 656L496 654Q487 654 482 658T477 668Q477 673 482 677T498 681H774Q784 681 789 677T795 667Q795
661 790 658T775 654Q765 654 756 655T737 656Q707 656 689 647T665 614Q655 572 655 422L656 303Q656 191 620 125T530 33T419 6Q309 6 234 71ZM306 752T291 767T275 805Q275 826 290 841T328 857Q349 857 364 842T380 805Q380 783 365 768T328 752Q306 752 291
767ZM467 752T452 767T436 805Q436 826 451 841T489 857Q510 857 525 842T541 805Q541 783 526 768T489 752Q467 752 452 767Z" />
<glyph unicode="&#xdd;" glyph-name="Yacute" horiz-adv-x="775" d="M327 679Q337 679 342 675T348 665Q348 659 342 655T325 652Q303 654 292 654Q233 654 233 628Q233 620 238 612L404 322Q409 314 414 314Q420 314 425 322L582 581Q593 599 593 614Q593 633
576 643T527 654Q518 654 500 652H497Q490 652 486 656T481 666Q481 671 486 675T499 679H737Q746 679 750 675T755 665Q755 659 750 655T736 652Q722 654 717 654Q667 654 633 599L433 267Q428 258 428 248Q428 103 437 68Q443 45 461 36T509 26Q520 26 544 28H548Q557
28 562 24T567 14Q567 9 562 5T546 1H240Q230 1 225 5T219 15Q219 21 225 25T242 28Q266 26 277 26Q307 26 325 35T349 68Q358 103 358 251Q358 260 353 270L156 605Q140 632 121 643T73 654Q65 654 43 652H39Q30 652 25 656T20 666Q20 671 25 675T41 679H327ZM328
741T328 751Q328 757 332 762Q349 784 369 820L386 850Q394 864 415 864Q428 864 438 859T448 845Q448 840 443 835L399 792Q384 779 356 751Q346 741 338 741Q328 741 328 751Z" />
<glyph unicode="&#xde;" glyph-name="Thorn" horiz-adv-x="610" d="M31 1T26 5T20 15Q20 21 26 25T43 28Q67 26 78 26Q108 26 126 35T150 68Q159 104 159 341Q159 578 150 614Q144 637 126 646T78 656Q67 656 43 654H39Q30 654 25 658T20 668Q20 673 25 677T41
681H347Q357 681 362 677T368 667Q368 661 362 657T345 654Q331 656 309 656Q266 656 251 638T233 573V571Q233 564 237 560T248 556H341Q420 556 476 526T561 446T590 342Q590 287 562 239T479 162T345 132H248Q241 132 237 127T233 115Q235 64 250 45T308 26Q331
26 345 28H349Q358 28 363 24T368 14Q368 9 363 5T347 1H41Q31 1 26 5ZM229 222T231 175Q231 169 235 165T245 161L346 159Q398 159 435 185T491 253T510 344Q510 392 491 434T433 503T341 529H246Q240 529 236 526T231 518Q229 469 229 341Q229 222 231 175Z"
/>
<glyph unicode="&#xdf;" glyph-name="germandbls" horiz-adv-x="596" d="M20 21T26 25T43 28Q63 26 68 26Q84 26 94 34T110 68Q119 104 119 450Q119 569 174 639T334 709Q385 709 422 690T479 644T499 592Q499 561 476 535T411 479Q381 456 368 443T354 416Q354
403 370 389T424 351Q470 320 500 296T553 235T576 155Q576 106 553 71T491 17T410 -2Q366 -2 330 17T274 73Q267 87 267 100Q267 117 277 128T300 139Q311 139 320 129T333 98Q339 61 364 41T424 21Q465 21 495 49T524 128Q522 171 488 204T391 281Q341 316 318
337T295 382Q295 411 312 432T363 482Q396 509 412 529T429 577Q429 625 397 654T308 680Q255 677 222 620T189 456V358Q189 104 198 68Q204 42 211 34T230 26Q235 26 242 27T260 28Q268 28 273 24T278 15Q278 9 273 5T257 1H41Q31 1 26 5T20 15Q20 21 26 25Z"
/>
<glyph unicode="&#xe0;" glyph-name="agrave" horiz-adv-x="391" d="M82 -1T50 19T20 89Q23 147 90 174T234 207Q248 209 248 223V274Q248 311 229 332T180 353Q147 353 128 334T109 284Q109 263 99 253T74 243Q61 243 51 253T40 282Q40 307 60 329T114 366T184
380Q242 380 280 352T318 269V88Q318 26 343 26Q346 26 357 31T370 37Q375 37 378 34T381 26Q381 14 362 7T321 0Q277 0 260 30Q256 37 249 37Q243 37 238 33Q189 -1 143 -1Q82 -1 50 19ZM249 93T249 129L248 165Q248 180 233 180Q88 175 88 92Q88 63 109 47T161
31Q187 31 210 43T242 78Q249 93 249 129ZM218 416T208 426Q180 454 165 467L121 510Q116 515 116 520Q116 528 126 533T149 539Q170 539 178 525Q211 469 232 437Q236 432 236 426Q236 416 225 416Q218 416 208 426Z" />
<glyph unicode="&#xe1;" glyph-name="aacute" horiz-adv-x="391" d="M82 -1T50 19T20 89Q23 147 90 174T234 207Q248 209 248 223V274Q248 311 229 332T180 353Q147 353 128 334T109 284Q109 263 99 253T74 243Q61 243 51 253T40 282Q40 307 60 329T114 366T184
380Q242 380 280 352T318 269V88Q318 26 343 26Q346 26 357 31T370 37Q375 37 378 34T381 26Q381 14 362 7T321 0Q277 0 260 30Q256 37 249 37Q243 37 238 33Q189 -1 143 -1Q82 -1 50 19ZM249 93T249 129L248 165Q248 180 233 180Q88 175 88 92Q88 63 109 47T161
31Q187 31 210 43T242 78Q249 93 249 129ZM116 421T116 431Q116 437 120 442Q137 464 157 500L174 530Q182 544 203 544Q216 544 226 539T236 525Q236 520 231 515L187 472Q172 459 144 431Q134 421 126 421Q116 421 116 431Z" />
<glyph unicode="&#xe2;" glyph-name="acircumflex" horiz-adv-x="391" d="M82 -1T50 19T20 89Q23 147 90 174T234 207Q248 209 248 223V274Q248 311 229 332T180 353Q147 353 128 334T109 284Q109 263 99 253T74 243Q61 243 51 253T40 282Q40 307 60 329T114 366T184
380Q242 380 280 352T318 269V88Q318 26 343 26Q346 26 357 31T370 37Q375 37 378 34T381 26Q381 14 362 7T321 0Q277 0 260 30Q256 37 249 37Q243 37 238 33Q189 -1 143 -1Q82 -1 50 19ZM249 93T249 129L248 165Q248 180 233 180Q88 175 88 92Q88 63 109 47T161
31Q187 31 210 43T242 78Q249 93 249 129ZM85 406T80 411T75 424Q75 428 78 433T86 442T93 449Q113 471 128 488T160 536Q165 544 172 548T186 553Q202 553 212 536Q238 494 278 451Q286 442 291 436T297 424Q297 417 292 412T277 406Q269 406 260 415T231 447Q211
473 186 500Q161 473 141 447Q122 425 113 416T95 406Q85 406 80 411Z" />
<glyph unicode="&#xe3;" glyph-name="atilde" horiz-adv-x="391" d="M82 -1T50 19T20 89Q23 147 90 174T234 207Q248 209 248 223V274Q248 311 229 332T180 353Q147 353 128 334T109 284Q109 263 99 253T74 243Q61 243 51 253T40 282Q40 307 60 329T114 366T184
380Q242 380 280 352T318 269V88Q318 26 343 26Q346 26 357 31T370 37Q375 37 378 34T381 26Q381 14 362 7T321 0Q277 0 260 30Q256 37 249 37Q243 37 238 33Q189 -1 143 -1Q82 -1 50 19ZM249 93T249 129L248 165Q248 180 233 180Q88 175 88 92Q88 63 109 47T161
31Q187 31 210 43T242 78Q249 93 249 129ZM79 434T74 428T62 422Q50 422 50 437Q50 445 52 450Q62 482 86 500T139 518Q173 518 200 495Q246 455 266 455Q287 455 293 496Q294 504 299 508T311 513Q317 513 320 509T321 495Q313 457 292 440T243 422Q220 422 198
432T163 458Q152 472 139 480T115 488Q89 488 81 445Q79 434 74 428Z" />
<glyph unicode="&#xe4;" glyph-name="adieresis" horiz-adv-x="391" d="M82 -1T50 19T20 89Q23 147 90 174T234 207Q248 209 248 223V274Q248 311 229 332T180 353Q147 353 128 334T109 284Q109 263 99 253T74 243Q61 243 51 253T40 282Q40 307 60 329T114 366T184
380Q242 380 280 352T318 269V88Q318 26 343 26Q346 26 357 31T370 37Q375 37 378 34T381 26Q381 14 362 7T321 0Q277 0 260 30Q256 37 249 37Q243 37 238 33Q189 -1 143 -1Q82 -1 50 19ZM249 93T249 129L248 165Q248 180 233 180Q88 175 88 92Q88 63 109 47T161
31Q187 31 210 43T242 78Q249 93 249 129ZM84 432T69 447T53 485Q53 506 68 521T106 537Q127 537 142 522T158 485Q158 463 143 448T106 432Q84 432 69 447ZM245 432T230 447T214 485Q214 506 229 521T267 537Q288 537 303 522T319 485Q319 463 304 448T267 432Q245
432 230 447Z" />
<glyph unicode="&#xe5;" glyph-name="aring" horiz-adv-x="391" d="M82 -1T50 19T20 89Q23 147 90 174T234 207Q248 209 248 223V274Q248 311 229 332T180 353Q147 353 128 334T109 284Q109 263 99 253T74 243Q61 243 51 253T40 282Q40 307 60 329T114 366T184
380Q242 380 280 352T318 269V88Q318 26 343 26Q346 26 357 31T370 37Q375 37 378 34T381 26Q381 14 362 7T321 0Q277 0 260 30Q256 37 249 37Q243 37 238 33Q189 -1 143 -1Q82 -1 50 19ZM249 93T249 129L248 165Q248 180 233 180Q88 175 88 92Q88 63 109 47T161
31Q187 31 210 43T242 78Q249 93 249 129ZM155 406T134 427T113 479Q113 509 134 530T185 551Q216 551 237 530T258 479Q258 448 237 427T185 406Q155 406 134 427ZM203 435T216 448T229 479Q229 496 216 509T185 522Q168 522 155 509T142 479Q142 461 155 448T185
435Q203 435 216 448Z" />
<glyph unicode="&#xe6;" glyph-name="ae" horiz-adv-x="565" d="M539 110T542 107T545 97Q545 90 539 81Q508 33 475 17T396 0Q357 0 322 17T265 68Q224 -1 143 -1Q89 -1 55 18T20 83Q20 155 84 185T227 215H231L230 284Q229 321 210 340T160 359Q132 359 111
337T92 291Q94 275 85 266T63 256Q51 256 43 264T34 289Q34 312 52 333T101 367T164 380Q198 380 227 367T275 327Q297 353 326 366T386 380Q449 380 492 343T535 244Q535 220 525 205T493 190L301 191V190Q301 142 315 108T354 55T406 36Q439 36 469 51T519 99Q526
110 534 110Q539 110 542 107ZM350 354T328 320T302 215Q349 216 436 216Q454 216 459 228T464 257Q464 299 443 326T386 354Q350 354 328 320ZM232 31T232 185V190Q164 187 127 166T89 93Q89 64 106 48T150 31Q232 31 232 185Z" />
<glyph unicode="&#xe7;" glyph-name="ccedilla" horiz-adv-x="376" d="M336 120T344 120Q349 120 352 117T355 109Q355 103 353 100Q332 55 291 28T201 0H200Q196 -8 174 -50Q223 -50 254 -70T286 -122Q286 -145 271 -167T231 -204T177 -218Q146 -218 128 -207T109
-182Q109 -166 123 -166Q131 -166 143 -173Q156 -180 168 -183T200 -187Q223 -187 235 -176T247 -149Q247 -97 146 -97Q122 -97 122 -87Q122 -81 127 -73Q142 -48 151 -30Q155 -22 168 3Q108 15 64 63T20 189Q20 250 47 293T116 358T201 380Q261 380 298 357T348
306Q356 289 356 272Q356 254 347 244T325 233Q314 233 307 241T298 266Q296 306 272 330T201 354Q174 354 151 333T113 275T98 190Q98 143 114 108T157 55T211 36Q250 36 279 54T331 111Q336 120 344 120Z" />
<glyph unicode="&#xe8;" glyph-name="egrave" horiz-adv-x="380" d="M20 250T47 293T116 358T201 380Q264 380 307 348T350 259Q350 238 342 226T321 214L108 215Q93 215 93 201Q93 133 126 85T216 36Q258 36 289 55T334 99Q341 111 350 111Q360 111 360 98Q360
88 354 81Q326 40 292 20T206 0Q158 0 116 21T47 85T20 189Q20 250 47 293ZM100 254T100 251Q100 239 114 239L251 240Q269 240 274 248T279 270Q279 307 258 330T201 354Q167 354 141 329T101 256Q100 254 100 251ZM217 416T207 426Q179 454 164 467L120 510Q115
515 115 520Q115 528 125 533T148 539Q169 539 177 525Q210 469 231 437Q235 432 235 426Q235 416 224 416Q217 416 207 426Z" />
<glyph unicode="&#xe9;" glyph-name="eacute" horiz-adv-x="380" d="M20 250T47 293T116 358T201 380Q264 380 307 348T350 259Q350 238 342 226T321 214L108 215Q93 215 93 201Q93 133 126 85T216 36Q258 36 289 55T334 99Q341 111 350 111Q360 111 360 98Q360
88 354 81Q326 40 292 20T206 0Q158 0 116 21T47 85T20 189Q20 250 47 293ZM100 254T100 251Q100 239 114 239L251 240Q269 240 274 248T279 270Q279 307 258 330T201 354Q167 354 141 329T101 256Q100 254 100 251ZM115 421T115 431Q115 437 119 442Q136 464 156
500L173 530Q181 544 202 544Q215 544 225 539T235 525Q235 520 230 515L186 472Q171 459 143 431Q133 421 125 421Q115 421 115 431Z" />
<glyph unicode="&#xea;" glyph-name="ecircumflex" horiz-adv-x="380" d="M20 250T47 293T116 358T201 380Q264 380 307 348T350 259Q350 238 342 226T321 214L108 215Q93 215 93 201Q93 133 126 85T216 36Q258 36 289 55T334 99Q341 111 350 111Q360 111 360
98Q360 88 354 81Q326 40 292 20T206 0Q158 0 116 21T47 85T20 189Q20 250 47 293ZM100 254T100 251Q100 239 114 239L251 240Q269 240 274 248T279 270Q279 307 258 330T201 354Q167 354 141 329T101 256Q100 254 100 251ZM100 406T95 411T90 424Q90 428 93 433T101
442T108 449Q128 471 143 488T175 536Q180 544 187 548T201 553Q217 553 227 536Q253 494 293 451Q301 442 306 436T312 424Q312 417 307 412T292 406Q284 406 275 415T246 447Q226 473 201 500Q176 473 156 447Q137 425 128 416T110 406Q100 406 95 411Z" />
<glyph unicode="&#xeb;" glyph-name="edieresis" horiz-adv-x="380" d="M20 250T47 293T116 358T201 380Q264 380 307 348T350 259Q350 238 342 226T321 214L108 215Q93 215 93 201Q93 133 126 85T216 36Q258 36 289 55T334 99Q341 111 350 111Q360 111 360 98Q360
88 354 81Q326 40 292 20T206 0Q158 0 116 21T47 85T20 189Q20 250 47 293ZM100 254T100 251Q100 239 114 239L251 240Q269 240 274 248T279 270Q279 307 258 330T201 354Q167 354 141 329T101 256Q100 254 100 251ZM99 432T84 447T68 485Q68 506 83 521T121 537Q142
537 157 522T173 485Q173 463 158 448T121 432Q99 432 84 447ZM260 432T245 447T229 485Q229 506 244 521T282 537Q303 537 318 522T334 485Q334 463 319 448T282 432Q260 432 245 447Z" />
<glyph unicode="&#xec;" glyph-name="igrave" horiz-adv-x="225" d="M21 1T16 5T10 15Q10 22 16 26T33 28Q63 22 73 60Q79 82 79 128Q79 161 78 179L77 246Q77 273 69 289T41 306Q31 306 26 309T20 317Q20 321 25 325T41 332Q72 340 105 365Q109 367 119 373T135
380Q149 380 149 368L147 328L143 259Q141 222 141 161Q141 90 146 60Q149 43 157 35T180 27Q187 27 192 28L198 29Q206 29 210 25T215 15Q215 9 210 5T194 1H111H31Q21 1 16 5ZM145 416T135 426Q107 454 92 467L48 510Q43 515 43 520Q43 528 53 533T76 539Q97
539 105 525Q138 469 159 437Q163 432 163 426Q163 416 152 416Q145 416 135 426Z" />
<glyph unicode="&#xed;" glyph-name="iacute" horiz-adv-x="225" d="M21 1T16 5T10 15Q10 22 16 26T33 28Q63 22 73 60Q79 82 79 128Q79 161 78 179L77 246Q77 273 69 289T41 306Q31 306 26 309T20 317Q20 321 25 325T41 332Q72 340 105 365Q109 367 119 373T135
380Q149 380 149 368L147 328L143 259Q141 222 141 161Q141 90 146 60Q149 43 157 35T180 27Q187 27 192 28L198 29Q206 29 210 25T215 15Q215 9 210 5T194 1H111H31Q21 1 16 5ZM43 421T43 431Q43 437 47 442Q64 464 84 500L101 530Q109 544 130 544Q143 544 153
539T163 525Q163 520 158 515L114 472Q99 459 71 431Q61 421 53 421Q43 421 43 431Z" />
<glyph unicode="&#xee;" glyph-name="icircumflex" horiz-adv-x="225" d="M21 1T16 5T10 15Q10 22 16 26T33 28Q63 22 73 60Q79 82 79 128Q79 161 78 179L77 246Q77 273 69 289T41 306Q31 306 26 309T20 317Q20 321 25 325T41 332Q72 340 105 365Q109 367 119
373T135 380Q149 380 149 368L147 328L143 259Q141 222 141 161Q141 90 146 60Q149 43 157 35T180 27Q187 27 192 28L198 29Q206 29 210 25T215 15Q215 9 210 5T194 1H111H31Q21 1 16 5ZM2 406T-3 411T-8 424Q-8 428 -5 433T3 442T10 449Q30 471 45 488T77 536Q82
544 89 548T103 553Q119 553 129 536Q155 494 195 451Q203 442 208 436T214 424Q214 417 209 412T194 406Q186 406 177 415T148 447Q128 473 103 500Q78 473 58 447Q39 425 30 416T12 406Q2 406 -3 411Z" />
<glyph unicode="&#xef;" glyph-name="idieresis" horiz-adv-x="225" d="M21 1T16 5T10 15Q10 22 16 26T33 28Q63 22 73 60Q79 82 79 128Q79 161 78 179L77 246Q77 273 69 289T41 306Q31 306 26 309T20 317Q20 321 25 325T41 332Q72 340 105 365Q109 367 119 373T135
380Q149 380 149 368L147 328L143 259Q141 222 141 161Q141 90 146 60Q149 43 157 35T180 27Q187 27 192 28L198 29Q206 29 210 25T215 15Q215 9 210 5T194 1H111H31Q21 1 16 5ZM1 432T-14 447T-30 485Q-30 506 -15 521T23 537Q44 537 59 522T75 485Q75 463 60
448T23 432Q1 432 -14 447ZM162 432T147 447T131 485Q131 506 146 521T184 537Q205 537 220 522T236 485Q236 463 221 448T184 432Q162 432 147 447Z" />
<glyph unicode="&#xf0;" glyph-name="eth" horiz-adv-x="461" d="M359 545T400 458T441 269Q441 185 405 124T315 32T212 0Q164 0 120 23T48 92T20 197Q20 251 56 302T149 385T268 417Q313 417 350 400Q315 508 242 572Q207 548 138 493Q127 485 118 485Q110 485
104 491Q102 497 102 500Q102 514 117 522L219 591Q154 639 62 655Q24 661 24 676Q24 684 34 690T62 695Q174 685 262 623Q281 637 328 672L359 695Q370 703 378 703Q386 703 391 696Q394 692 394 686Q394 673 380 665Q367 656 352 647T320 625L287 604Q359 545
400 458ZM303 55T337 106T371 256Q371 279 370 290Q319 366 215 366Q151 366 122 322T92 211Q92 157 117 122T176 71T241 55Q303 55 337 106Z" />
<glyph unicode="&#xf1;" glyph-name="ntilde" horiz-adv-x="473" d="M20 321T25 325T41 332Q72 340 105 365Q109 367 119 373T135 380Q149 380 149 368Q149 356 148 346V344Q148 339 151 338T160 340Q208 380 257 380Q290 380 321 360T373 299T394 196L393 106Q393
66 400 47T428 27Q436 27 440 28L446 29Q454 29 458 25T463 15Q463 9 458 5T442 1H276Q266 1 261 5T255 15Q255 22 261 26T278 28Q307 23 315 50T324 136V190Q324 232 311 265T276 316T232 334Q209 334 189 317T155 274T142 227Q141 203 141 160Q141 100 146 60Q149
43 157 35T180 27Q187 27 192 28L198 29Q206 29 210 25T215 15Q215 9 210 5T194 1H31Q21 1 16 5T10 15Q10 22 16 26T33 28Q63 22 73 60Q80 85 80 126L79 178Q77 220 77 246Q77 273 69 289T41 306Q31 306 26 309T20 317Q20 321 25 325ZM130 434T125 428T113 422Q101
422 101 437Q101 445 103 450Q113 482 137 500T190 518Q224 518 251 495Q297 455 317 455Q338 455 344 496Q345 504 350 508T362 513Q368 513 371 509T372 495Q364 457 343 440T294 422Q271 422 249 432T214 458Q203 472 190 480T166 488Q140 488 132 445Q130 434
125 428Z" />
<glyph unicode="&#xf2;" glyph-name="ograve" horiz-adv-x="423" d="M163 0T119 21T48 85T20 189Q20 251 48 294T119 358T211 380Q259 380 303 359T375 294T403 189Q403 128 375 85T303 21T211 0Q163 0 119 21ZM263 26T294 71T325 190Q325 263 294 308T211 354Q160
354 129 309T97 190Q97 117 128 72T211 26Q263 26 294 71ZM244 416T234 426Q206 454 191 467L147 510Q142 515 142 520Q142 528 152 533T175 539Q196 539 204 525Q237 469 258 437Q262 432 262 426Q262 416 251 416Q244 416 234 426Z" />
<glyph unicode="&#xf3;" glyph-name="oacute" horiz-adv-x="423" d="M163 0T119 21T48 85T20 189Q20 251 48 294T119 358T211 380Q259 380 303 359T375 294T403 189Q403 128 375 85T303 21T211 0Q163 0 119 21ZM263 26T294 71T325 190Q325 263 294 308T211 354Q160
354 129 309T97 190Q97 117 128 72T211 26Q263 26 294 71ZM142 421T142 431Q142 437 146 442Q163 464 183 500L200 530Q208 544 229 544Q242 544 252 539T262 525Q262 520 257 515L213 472Q198 459 170 431Q160 421 152 421Q142 421 142 431Z" />
<glyph unicode="&#xf4;" glyph-name="ocircumflex" horiz-adv-x="423" d="M163 0T119 21T48 85T20 189Q20 251 48 294T119 358T211 380Q259 380 303 359T375 294T403 189Q403 128 375 85T303 21T211 0Q163 0 119 21ZM263 26T294 71T325 190Q325 263 294 308T211
354Q160 354 129 309T97 190Q97 117 128 72T211 26Q263 26 294 71ZM111 406T106 411T101 424Q101 428 104 433T112 442T119 449Q139 471 154 488T186 536Q191 544 198 548T212 553Q228 553 238 536Q264 494 304 451Q312 442 317 436T323 424Q323 417 318 412T303
406Q295 406 286 415T257 447Q237 473 212 500Q187 473 167 447Q148 425 139 416T121 406Q111 406 106 411Z" />
<glyph unicode="&#xf5;" glyph-name="otilde" horiz-adv-x="423" d="M163 0T119 21T48 85T20 189Q20 251 48 294T119 358T211 380Q259 380 303 359T375 294T403 189Q403 128 375 85T303 21T211 0Q163 0 119 21ZM263 26T294 71T325 190Q325 263 294 308T211 354Q160
354 129 309T97 190Q97 117 128 72T211 26Q263 26 294 71ZM105 434T100 428T88 422Q76 422 76 437Q76 445 78 450Q88 482 112 500T165 518Q199 518 226 495Q272 455 292 455Q313 455 319 496Q320 504 325 508T337 513Q343 513 346 509T347 495Q339 457 318 440T269
422Q246 422 224 432T189 458Q178 472 165 480T141 488Q115 488 107 445Q105 434 100 428Z" />
<glyph unicode="&#xf6;" glyph-name="odieresis" horiz-adv-x="423" d="M163 0T119 21T48 85T20 189Q20 251 48 294T119 358T211 380Q259 380 303 359T375 294T403 189Q403 128 375 85T303 21T211 0Q163 0 119 21ZM263 26T294 71T325 190Q325 263 294 308T211
354Q160 354 129 309T97 190Q97 117 128 72T211 26Q263 26 294 71ZM110 432T95 447T79 485Q79 506 94 521T132 537Q153 537 168 522T184 485Q184 463 169 448T132 432Q110 432 95 447ZM271 432T256 447T240 485Q240 506 255 521T293 537Q314 537 329 522T345 485Q345
463 330 448T293 432Q271 432 256 447Z" />
<glyph unicode="&#xf7;" glyph-name="divide" horiz-adv-x="600" d="M277 390T259 408T240 453Q240 479 258 497T303 515Q329 515 347 497T365 453Q365 427 347 409T303 390Q277 390 259 408ZM60 233T50 242T40 263Q40 276 50 284T78 291Q122 288 174 287T303
286Q351 286 486 289Q514 291 529 291Q547 292 556 284T565 263Q565 251 556 243T529 234Q492 234 452 237Q362 242 303 242Q233 242 123 237L78 234Q60 233 50 242ZM277 13T259 31T240 76Q240 102 258 120T303 138Q329 138 347 120T365 76Q365 50 347 32T303 13Q277
13 259 31Z" />
<glyph unicode="&#xf8;" glyph-name="oslash" horiz-adv-x="423" d="M403 273T403 189Q403 128 375 85T303 21T211 0Q149 0 101 32L67 -11Q57 -24 45 -24Q38 -24 34 -20Q28 -16 28 -7Q28 3 37 13L73 54Q20 105 20 189Q20 251 48 294T119 358T211 380Q273 380 320
349L354 391Q364 404 375 404Q381 404 386 399Q392 395 392 386Q392 375 383 366L349 327Q403 273 403 189ZM97 140T113 100L193 194Q232 239 264 280Q272 289 278 297T291 312Q260 354 211 354Q160 354 129 309T97 190Q97 140 113 100ZM263 26T294 71T325 190Q325
241 309 281L287 256Q240 202 222 180L130 69Q162 26 211 26Q263 26 294 71Z" />
<glyph unicode="&#xf9;" glyph-name="ugrave" horiz-adv-x="440" d="M10 320T15 324T31 332Q53 339 86 361Q90 364 97 368T108 375Q118 380 123 380Q136 380 136 368L135 276Q133 172 133 117Q133 84 157 60T215 35Q258 35 294 84Q300 95 299 103Q298 119 298
144L299 246Q299 273 291 289T263 306Q242 306 242 316Q242 320 247 324T263 332Q285 339 318 361Q322 364 329 368T340 375Q350 380 355 380Q368 380 368 368L366 307Q362 233 362 182Q362 124 367 89T389 54Q394 54 403 56T417 59Q430 59 430 49Q430 44 425 39T411
31Q390 25 367 11Q349 0 342 0Q313 0 306 41Q305 50 300 50Q297 50 292 45Q248 1 190 1Q162 1 134 13T86 47T67 101V246Q67 273 59 289T31 306Q10 306 10 316Q10 320 15 324ZM262 416T252 426Q224 454 209 467L165 510Q160 515 160 520Q160 528 170 533T193 539Q214
539 222 525Q255 469 276 437Q280 432 280 426Q280 416 269 416Q262 416 252 426Z" />
<glyph unicode="&#xfa;" glyph-name="uacute" horiz-adv-x="440" d="M10 320T15 324T31 332Q53 339 86 361Q90 364 97 368T108 375Q118 380 123 380Q136 380 136 368L135 276Q133 172 133 117Q133 84 157 60T215 35Q258 35 294 84Q300 95 299 103Q298 119 298
144L299 246Q299 273 291 289T263 306Q242 306 242 316Q242 320 247 324T263 332Q285 339 318 361Q322 364 329 368T340 375Q350 380 355 380Q368 380 368 368L366 307Q362 233 362 182Q362 124 367 89T389 54Q394 54 403 56T417 59Q430 59 430 49Q430 44 425 39T411
31Q390 25 367 11Q349 0 342 0Q313 0 306 41Q305 50 300 50Q297 50 292 45Q248 1 190 1Q162 1 134 13T86 47T67 101V246Q67 273 59 289T31 306Q10 306 10 316Q10 320 15 324ZM160 421T160 431Q160 437 164 442Q181 464 201 500L218 530Q226 544 247 544Q260 544
270 539T280 525Q280 520 275 515L231 472Q216 459 188 431Q178 421 170 421Q160 421 160 431Z" />
<glyph unicode="&#xfb;" glyph-name="ucircumflex" horiz-adv-x="440" d="M10 320T15 324T31 332Q53 339 86 361Q90 364 97 368T108 375Q118 380 123 380Q136 380 136 368L135 276Q133 172 133 117Q133 84 157 60T215 35Q258 35 294 84Q300 95 299 103Q298 119
298 144L299 246Q299 273 291 289T263 306Q242 306 242 316Q242 320 247 324T263 332Q285 339 318 361Q322 364 329 368T340 375Q350 380 355 380Q368 380 368 368L366 307Q362 233 362 182Q362 124 367 89T389 54Q394 54 403 56T417 59Q430 59 430 49Q430 44 425
39T411 31Q390 25 367 11Q349 0 342 0Q313 0 306 41Q305 50 300 50Q297 50 292 45Q248 1 190 1Q162 1 134 13T86 47T67 101V246Q67 273 59 289T31 306Q10 306 10 316Q10 320 15 324ZM119 406T114 411T109 424Q109 428 112 433T120 442T127 449Q147 471 162 488T194
536Q199 544 206 548T220 553Q236 553 246 536Q272 494 312 451Q320 442 325 436T331 424Q331 417 326 412T311 406Q303 406 294 415T265 447Q245 473 220 500Q195 473 175 447Q156 425 147 416T129 406Q119 406 114 411Z" />
<glyph unicode="&#xfc;" glyph-name="udieresis" horiz-adv-x="440" d="M10 320T15 324T31 332Q53 339 86 361Q90 364 97 368T108 375Q118 380 123 380Q136 380 136 368L135 276Q133 172 133 117Q133 84 157 60T215 35Q258 35 294 84Q300 95 299 103Q298 119 298
144L299 246Q299 273 291 289T263 306Q242 306 242 316Q242 320 247 324T263 332Q285 339 318 361Q322 364 329 368T340 375Q350 380 355 380Q368 380 368 368L366 307Q362 233 362 182Q362 124 367 89T389 54Q394 54 403 56T417 59Q430 59 430 49Q430 44 425 39T411
31Q390 25 367 11Q349 0 342 0Q313 0 306 41Q305 50 300 50Q297 50 292 45Q248 1 190 1Q162 1 134 13T86 47T67 101V246Q67 273 59 289T31 306Q10 306 10 316Q10 320 15 324ZM118 432T103 447T87 485Q87 506 102 521T140 537Q161 537 176 522T192 485Q192 463 177
448T140 432Q118 432 103 447ZM279 432T264 447T248 485Q248 506 263 521T301 537Q322 537 337 522T353 485Q353 463 338 448T301 432Q279 432 264 447Z" />
<glyph unicode="&#xfd;" glyph-name="yacute" horiz-adv-x="409" d="M167 380Q177 380 182 376T188 366Q188 359 182 355T165 353Q161 354 155 354Q135 354 135 330Q135 313 146 283T182 191L213 114Q217 104 223 104Q230 104 233 113Q265 192 287 254T308 330Q308
344 300 348T274 351H269Q261 351 256 355T251 364Q251 370 256 374T272 378H388Q398 378 403 375T409 365Q409 359 403 355T386 351Q377 352 371 347T356 328Q348 316 322 251T284 158Q230 22 207 -31Q192 -62 168 -94T122 -133Q105 -138 96 -138Q79 -138 70 -130T60
-110Q60 -98 71 -89T102 -80Q120 -80 140 -64T174 -21L185 2Q188 8 188 14Q188 17 186 23L139 139Q114 202 93 253T58 325Q39 354 23 353H22Q12 353 6 357T0 367Q0 373 5 376T21 380H167ZM145 421T145 431Q145 437 149 442Q166 464 186 500L203 530Q211 544 232
544Q245 544 255 539T265 525Q265 520 260 515L216 472Q201 459 173 431Q163 421 155 421Q145 421 145 431Z" />
<glyph unicode="&#xfe;" glyph-name="thorn" horiz-adv-x="434" d="M22 632T27 629T43 626Q70 626 77 581T85 429V344Q85 265 84 102T79 -91Q72 -159 33 -152L27 -151Q19 -151 15 -155T10 -165Q10 -171 15 -175T31 -179H194Q204 -179 209 -175T215 -165Q215 -158
209 -154T192 -152Q188 -153 182 -153Q160 -153 153 -135T145 -86L146 -39V-10Q146 6 162 4Q192 0 220 0Q274 0 321 23T396 90T424 189Q424 250 401 293T341 358T267 380Q248 380 223 372T175 347Q170 343 163 343Q157 343 153 347T149 361Q149 403 153 595Q155
671 155 688Q155 700 141 700Q134 700 124 694T110 685Q72 658 43 652Q33 650 28 646T22 637Q22 632 27 629ZM160 289T187 311T242 334Q270 334 295 316T337 265T354 190Q354 112 321 72T238 31Q194 31 172 50T149 103V160Q149 234 152 249Q160 289 187 311Z" />
<glyph unicode="&#xff;" glyph-name="ydieresis" horiz-adv-x="409" d="M167 380Q177 380 182 376T188 366Q188 359 182 355T165 353Q161 354 155 354Q135 354 135 330Q135 313 146 283T182 191L213 114Q217 104 223 104Q230 104 233 113Q265 192 287 254T308
330Q308 344 300 348T274 351H269Q261 351 256 355T251 364Q251 370 256 374T272 378H388Q398 378 403 375T409 365Q409 359 403 355T386 351Q377 352 371 347T356 328Q348 316 322 251T284 158Q230 22 207 -31Q192 -62 168 -94T122 -133Q105 -138 96 -138Q79 -138
70 -130T60 -110Q60 -98 71 -89T102 -80Q120 -80 140 -64T174 -21L185 2Q188 8 188 14Q188 17 186 23L139 139Q114 202 93 253T58 325Q39 354 23 353H22Q12 353 6 357T0 367Q0 373 5 376T21 380H167ZM103 432T88 447T72 485Q72 506 87 521T125 537Q146 537 161
522T177 485Q177 463 162 448T125 432Q103 432 88 447ZM264 432T249 447T233 485Q233 506 248 521T286 537Q307 537 322 522T338 485Q338 463 323 448T286 432Q264 432 249 447Z" />
<glyph unicode="&#x2013;" glyph-name="endash" horiz-adv-x="473" d="M45 161Q34 161 27 168T20 184Q20 194 27 200T45 207H515Q527 207 533 201T540 184Q540 174 534 168T515 161H45Z" />
<glyph unicode="&#x2014;" glyph-name="emdash" horiz-adv-x="706" d="M45 161Q34 161 27 168T20 184Q20 194 27 200T45 207H746Q758 207 764 201T771 184Q771 174 765 168T746 161H45Z" />
<glyph unicode="&#x2018;" glyph-name="quoteleft" horiz-adv-x="173" d="M85 665T85 690Q85 707 95 723T126 745Q132 747 136 752T140 763Q140 769 137 772T126 776Q113 776 90 756T50 706T33 646Q33 612 48 589T92 566Q107 566 121 580T135 615Q135 631 127
639T102 656Q85 665 85 690Z" />
<glyph unicode="&#x2019;" glyph-name="quoteright" horiz-adv-x="173" d="M88 637T88 612Q88 595 78 579T47 557Q41 555 37 550T33 539Q33 534 37 530T47 526Q60 526 83 546T123 596T140 656Q140 690 125 713T81 736Q66 736 52 722T38 687Q38 671 46 663T71 646Q88
637 88 612Z" />
<glyph unicode="&#x201a;" glyph-name="quotesinglbase" horiz-adv-x="173" d="M88 -20T88 -45Q88 -62 78 -78T47 -100Q41 -102 37 -107T33 -118Q33 -124 37 -127T47 -131Q60 -131 83 -111T123 -61T140 -1Q140 33 125 56T81 79Q66 79 52 65T38 30Q38 14 46 6T71
-11Q88 -20 88 -45Z" />
<glyph unicode="&#x201c;" glyph-name="quotedblleft" horiz-adv-x="290" d="M65 665T65 690Q65 707 75 723T106 745Q112 747 116 752T120 763Q120 769 117 772T106 776Q93 776 70 756T30 706T13 646Q13 612 28 589T72 566Q87 566 101 580T115 615Q115 631 107
639T82 656Q65 665 65 690ZM202 665T202 690Q202 707 212 723T243 745Q249 747 253 752T257 763Q257 769 254 772T243 776Q230 776 207 756T167 706T150 646Q150 612 165 589T209 566Q224 566 238 580T252 615Q252 631 244 639T219 656Q202 665 202 690Z" />
<glyph unicode="&#x201d;" glyph-name="quotedblright" horiz-adv-x="317" d="M88 644T88 619Q88 602 78 586T47 564Q41 562 37 557T33 546Q33 541 37 537T47 533Q60 533 83 553T123 603T140 663Q140 697 125 720T81 743Q66 743 52 729T38 694Q38 678 46 670T71
653Q88 644 88 619ZM225 644T225 619Q225 602 215 586T184 564Q178 562 174 557T170 546Q170 541 174 537T184 533Q197 533 220 553T260 603T277 663Q277 697 262 720T218 743Q203 743 189 729T175 694Q175 678 183 670T208 653Q225 644 225 619Z" />
<glyph unicode="&#x201e;" glyph-name="quotedblbase" horiz-adv-x="283" d="M88 -20T88 -45Q88 -62 78 -78T47 -100Q41 -102 37 -107T33 -118Q33 -124 37 -127T47 -131Q60 -131 83 -111T123 -61T140 -1Q140 33 125 56T81 79Q66 79 52 65T38 30Q38 14 46 6T71
-11Q88 -20 88 -45ZM200 -20T200 -45Q200 -62 190 -78T159 -100Q153 -102 149 -107T145 -118Q145 -124 149 -127T159 -131Q172 -131 195 -111T235 -61T252 -1Q252 33 237 56T193 79Q178 79 164 65T150 30Q150 14 158 6T183 -11Q200 -20 200 -45Z" />
<glyph unicode="&#x2022;" glyph-name="bullet" horiz-adv-x="313" d="M114 146T82 178T50 253Q50 296 82 327T157 359Q200 359 231 328T263 253Q263 210 232 178T157 146Q114 146 82 178Z" />
<glyph unicode="&#x2039;" glyph-name="guilsinglleft" horiz-adv-x="369" d="M40 199T51 206Q93 232 137 268L157 283L177 298Q229 338 255 364Q265 374 278 374Q289 374 299 366T309 349Q309 339 298 332Q261 309 230 286T191 256Q151 226 126 201Q120 195 120
189Q120 182 126 176Q144 158 172 137Q192 120 191 121Q235 85 298 45Q309 38 309 28Q309 19 300 11T278 3Q265 3 255 13Q229 39 177 79L157 94L137 109Q93 145 51 171Q40 178 40 188Q40 199 51 206Z" />
<glyph unicode="&#x203a;" glyph-name="guilsinglright" horiz-adv-x="369" d="M329 178T318 171Q276 145 232 109L212 94L192 79Q140 39 114 13Q104 3 91 3Q79 3 70 11T60 28Q60 38 71 45Q134 85 178 121Q177 120 197 137Q225 158 243 176Q249 182 249 189Q249
195 243 201Q218 226 178 256Q171 262 140 285T71 332Q60 339 60 349Q60 358 70 366T91 374Q104 374 114 364Q140 338 192 298L212 283L232 268Q276 232 318 206Q329 199 329 188Q329 178 318 171Z" />
</font>
</defs>
</svg>
