<?xml version="1.0" standalone="no"?>
<!DOCTYPE svg PUBLIC "-//W3C//DTD SVG 1.1//EN" "http://www.w3.org/Graphics/SVG/1.1/DTD/svg11.dtd">
<svg xmlns="http://www.w3.org/2000/svg">
<defs >
<font id="AnnapurnaSIL" horiz-adv-x="1232" ><font-face
    font-family="Annapurna SIL"
    units-per-em="2048"
    panose-1="1 0 0 0 0 0 0 0 0 0"
    ascent="1939"
    descent="-984"
    alphabetic="0" />
<glyph unicode=" " glyph-name="space" horiz-adv-x="600" />
<glyph unicode="!" glyph-name="exclam" horiz-adv-x="789" d="M342 -28Q342 16 373 48T450 80Q494 80 526 48T558 -28Q558 -73 526 -104T450 -136Q405 -136 374 -105T342 -28ZM400 272L320 1390H580L500 214L400 272Z" />
<glyph unicode="&quot;" glyph-name="quotedbl" horiz-adv-x="614" d="M470 816H440L378 1266Q378 1356 455 1356Q535 1356 535 1266L470 816ZM174 816H144L79 1266Q79 1356 158 1356Q236 1356 236 1266L174 816Z" />
<glyph unicode="#" glyph-name="numbersign" horiz-adv-x="1370" d="M1256 816H967L878 552H1175V460H847L690 -2L598 27L743 460H476L319 -2L228 29L375 460H113V552H405L495 816H198V910H526L674 1345L768 1315L627 910H896L1042 1345L1138 1315L998 910H1256V816ZM864
816H597L508 552H775L864 816Z" />
<glyph unicode="$" glyph-name="dollar" horiz-adv-x="1038" d="M931 390Q931 237 793 133Q678 46 563 40V-150H479V40Q347 48 305 52Q186 64 106 88V401H200L233 195Q286 130 479 130V596Q136 675 136 932Q136 1084 254 1177Q349 1252 481 1271V1410H565V1277Q709
1277 878 1234V944H784L755 1139Q712 1187 565 1187V747Q741 694 808 646Q931 556 931 390ZM481 772V1179Q307 1143 307 969Q307 834 481 772ZM762 355Q762 511 563 575V138Q762 172 762 355Z" />
<glyph unicode="%" glyph-name="percent" horiz-adv-x="1586" d="M1526 397Q1526 296 1498 208T1408 65T1245 10Q1144 10 1082 64T990 207T961 397Q961 499 989 587T1081 729T1245 784Q1346 784 1408 730T1498 588T1526 397ZM1242 1277L461 40H345L1128 1277H1242ZM625
919Q625 819 597 731T506 587T343 532Q243 532 180 587T88 730T59 919Q59 1020 88 1108T179 1251T343 1306Q444 1306 506 1252T596 1109T625 919ZM1385 397Q1385 714 1245 714Q1099 714 1099 397Q1099 80 1245 80Q1385 80 1385 397ZM483 919Q483 1236 343 1236Q197
1236 197 919Q197 602 343 602Q483 602 483 919Z" />
<glyph unicode="&amp;" glyph-name="ampersand" horiz-adv-x="1288" d="M1251 40H912V84L829 177Q738 105 655 61T455 17Q352 17 265 63T125 192T72 383Q72 604 319 707Q164 861 164 989Q164 1084 211 1154T337 1262T514 1301Q604 1301 678 1266T795 1169T839
1023Q839 899 760 825T567 700L877 366Q966 479 980 582Q980 590 970 603T949 617L850 631V709H1228V631L1094 611Q1053 459 938 300L1087 128L1251 119V40ZM669 1011Q669 1090 627 1150T496 1210Q417 1210 373 1158T329 1037Q329 952 384 886T501 763Q669 846
669 1011ZM770 241L391 654Q257 562 257 425Q257 345 291 280T387 177T525 138Q651 138 770 241Z" />
<glyph unicode="&apos;" glyph-name="quotesingle" horiz-adv-x="315" d="M236 1266L174 816H144L79 1266Q79 1356 157 1356Q236 1356 236 1266Z" />
<glyph unicode="(" glyph-name="parenleft" horiz-adv-x="771" d="M702 -201V-291Q539 -273 427 -196T248 3T150 275T120 590Q120 754 150 904T247 1175T427 1373T702 1468V1378Q574 1357 497 1280T379 1089T326 846T312 590Q312 462 326 331T380 87T498 -103T702 -201Z" />
<glyph unicode=")" glyph-name="parenright" horiz-adv-x="771" d="M651 590Q651 426 621 275T524 3T344 -195T69 -291V-201Q195 -180 272 -103T390 87T445 331T459 590Q459 716 446 845T392 1088T275 1279T69 1378V1468Q232 1450 344 1373T523 1176T621 905T651 590Z" />
<glyph unicode="*" glyph-name="asterisk" horiz-adv-x="922" d="M823 1090L741 986L503 972L494 998L693 1129L823 1090ZM538 1247L473 1016H448L385 1247L461 1359L538 1247ZM684 661L556 709L472 930L494 947L680 798L684 661ZM427 998L420 972L181 986L98
1090L229 1129L427 998ZM450 930L365 709L238 661L241 798L427 947L450 930Z" />
<glyph unicode="+" glyph-name="plus" horiz-adv-x="1535" d="M1316 536H820V40H715V536H220V641H715V1135H820V641H1316V536Z" />
<glyph unicode="," glyph-name="comma" horiz-adv-x="606" d="M470 58Q470 -30 428 -102T313 -219T149 -273V-207Q262 -181 307 -122T352 53H236Q202 86 202 138Q202 185 234 225T317 265Q470 265 470 58Z" />
<glyph unicode="-" glyph-name="hyphen" horiz-adv-x="589" d="M508 552V414H81V552H508Z" />
<glyph unicode="." glyph-name="period" horiz-adv-x="516" d="M361 142Q361 92 325 55T236 18Q184 18 148 54T112 142Q112 194 148 229T236 265Q289 265 325 229T361 142Z" />
<glyph unicode="/" glyph-name="slash" horiz-adv-x="904" d="M904 1277L118 -131H0L785 1277H904Z" />
<glyph unicode="0" glyph-name="zero" horiz-adv-x="1038" d="M964 657Q964 536 939 421T861 213T722 65T517 10Q397 10 313 65T176 213T99 421T74 657Q74 778 98 894T175 1103T312 1251T517 1306Q637 1306 722 1251T861 1103T939 894T964 657ZM769 657Q769 736
760 831T725 1014T649 1158T517 1214Q267 1214 267 657Q267 103 517 103Q769 103 769 657Z" />
<glyph unicode="1" glyph-name="one" horiz-adv-x="1038" d="M822 40H199V123L385 130Q426 132 426 170V1150L140 1099V1183L538 1306H608V170Q608 132 649 130L822 123V40Z" />
<glyph unicode="2" glyph-name="two" horiz-adv-x="1038" d="M951 40H86V163Q266 302 412 431T644 684T730 928Q730 1056 655 1131T466 1206Q421 1206 387 1193T313 1159V954Q276 923 223 923Q176 923 144 953T112 1032Q112 1119 174 1180T330 1273T517 1306Q635
1306 728 1262T875 1138T929 947Q929 834 842 711T608 458T282 195H828L860 353H951V40Z" />
<glyph unicode="3" glyph-name="three" horiz-adv-x="1038" d="M951 392Q951 271 881 186T701 55T468 10Q414 10 348 23T223 64T125 133T86 228Q86 264 112 295T195 327Q242 327 258 314L313 151Q396 103 473 103Q557 103 622 143T724 250T761 392Q761 511 681
567T485 624Q455 624 427 622T373 617V731Q385 730 397 730T420 729Q498 729 565 753T674 829T715 963Q715 1071 647 1138T473 1205Q383 1205 308 1153V969Q260 945 225 945Q118 945 118 1048Q118 1111 156 1159T255 1240T388 1289T526 1306Q629 1306 714 1269T852
1160T904 988Q904 771 619 691Q710 686 785 650T905 549T951 392Z" />
<glyph unicode="4" glyph-name="four" horiz-adv-x="1038" d="M964 407H807V10H634V407H74V534L679 1306H807V532H964V407ZM634 532V1070L220 532H634Z" />
<glyph unicode="5" glyph-name="five" horiz-adv-x="1038" d="M953 440Q953 297 885 201T699 58T433 10Q384 10 324 25T209 70T119 139T83 228Q83 332 199 332Q217 332 248 323L319 154Q375 101 461 101Q547 101 616 141T725 249T765 395Q765 528 686 614T450
700Q340 700 157 638V1277H868V1120H287V770Q303 779 349 790T448 810T536 818Q721 818 837 722T953 440Z" />
<glyph unicode="6" glyph-name="six" horiz-adv-x="1038" d="M964 462Q964 330 906 228T746 68T516 10Q358 10 261 83T119 282T74 569Q74 793 161 958T413 1215T811 1306V1192Q780 1195 748 1195Q619 1195 518 1135T354 969T273 729Q405 845 580 845Q694 845 780
797T915 662T964 462ZM776 438Q776 564 710 645T516 726Q387 726 267 633Q264 596 264 532Q264 107 516 107Q606 107 663 152T748 273T776 438Z" />
<glyph unicode="7" glyph-name="seven" horiz-adv-x="1038" d="M960 1174L355 71V10H160L769 1120H201L171 953H77V1277H960V1174Z" />
<glyph unicode="8" glyph-name="eight" horiz-adv-x="1038" d="M962 376Q962 260 899 178T735 53T517 10Q397 10 296 51T135 174T74 372Q74 579 337 680Q249 715 186 789T123 960Q123 1071 174 1148T315 1266T517 1306Q618 1306 708 1268T856 1159T913 989Q913
801 688 691Q962 592 962 376ZM742 972Q742 1083 678 1147T517 1212Q422 1212 364 1149T306 1002Q306 928 352 876T468 788T608 726Q742 824 742 972ZM776 346Q776 420 723 472T587 563T411 639Q245 548 245 386Q245 266 314 188T517 110Q624 110 700 176T776 346Z"
/>
<glyph unicode="9" glyph-name="nine" horiz-adv-x="1038" d="M964 747Q964 520 874 355T618 100T225 10V125L287 123Q416 119 517 179T683 346T765 587Q631 471 457 471Q341 471 255 520T122 656T74 853Q74 987 132 1089T292 1248T520 1306Q679 1306 777 1233T919
1033T964 747ZM772 784Q772 1210 520 1210Q430 1210 373 1165T288 1044T260 879Q260 750 325 671T520 591Q649 591 769 683Q772 722 772 784Z" />
<glyph unicode=":" glyph-name="colon" horiz-adv-x="516" d="M361 827Q361 777 325 740T236 703Q184 703 148 739T112 827Q112 879 148 914T236 950Q289 950 325 914T361 827ZM361 142Q361 92 325 55T236 18Q184 18 148 54T112 142Q112 194 148 229T236 265Q289
265 325 229T361 142Z" />
<glyph unicode=";" glyph-name="semicolon" horiz-adv-x="516" d="M359 827Q359 775 324 739T236 703Q184 703 148 739T112 827Q112 877 148 913T238 950Q291 950 325 914T359 827ZM380 58Q380 -30 338 -102T223 -219T59 -273V-207Q170 -181 216 -121T262 53H146Q112
86 112 138Q112 185 144 225T227 265Q380 265 380 58Z" />
<glyph unicode="&lt;" glyph-name="less" horiz-adv-x="1535" d="M1298 108L238 541V636L1298 1070V956L398 589L1298 224V108Z" />
<glyph unicode="=" glyph-name="equal" horiz-adv-x="1535" d="M1307 709H229V814H1307V709ZM1307 364H229V469H1307V364Z" />
<glyph unicode="&gt;" glyph-name="greater" horiz-adv-x="1535" d="M1298 541L238 108V224L1138 589L238 956V1070L1298 636V541Z" />
<glyph unicode="?" glyph-name="question" horiz-adv-x="1115" d="M325 1189L250 1320Q313 1364 378 1387T523 1410Q587 1410 656 1373T785 1273T882 1136T920 987Q920 926 888 877T807 779T711 673T630 541T597 362Q597 275 626 173L485 259Q472 299 467 336T461
410Q461 508 494 587T576 732T674 854T756 959T789 1057Q789 1155 742 1227T606 1300Q546 1300 469 1274T325 1189ZM449 -44Q449 0 480 32T557 64Q601 64 633 32T665 -44Q665 -89 633 -120T557 -152Q512 -152 481 -121T449 -44Z" />
<glyph unicode="@" glyph-name="at" horiz-adv-x="1725" d="M1592 728Q1592 626 1559 523T1465 334T1322 196T1142 143Q998 143 998 296Q845 145 733 145Q655 145 604 187T528 299T502 446Q502 580 564 694T731 877T959 947Q1049 947 1140 897L1174 939H1278L1151
392Q1144 361 1144 333Q1144 248 1219 248Q1284 248 1336 297T1426 421T1483 578T1503 726Q1503 883 1436 996T1253 1170T985 1232Q829 1232 698 1179T470 1029T320 801T266 513Q266 320 344 170T567 -65T912 -150Q1152 -150 1399 -13L1426 -80Q1122 -242 868 -242Q709
-242 575 -189T342 -40T189 189T134 480Q134 674 199 828T380 1091T645 1256T963 1313Q1151 1313 1292 1245T1513 1047T1592 728ZM1077 764Q1082 785 1066 810T1024 852T968 870Q869 870 803 810T704 657T670 462Q670 263 815 263Q909 263 1003 383L1077 764Z"
/>
<glyph unicode="A" glyph-name="A" horiz-adv-x="1242" d="M1233 40H794V119L901 128Q910 128 916 141Q922 154 920 160L793 497H367L245 165Q244 163 244 160Q244 130 271 128L380 119V40H9V119L116 142L545 1306H684L1111 169Q1119 148 1125 143Q1131 137 1150
134L1233 119V40ZM760 585L579 1068L400 585H760Z" />
<glyph unicode="B" glyph-name="B" horiz-adv-x="1115" d="M1043 405Q1043 274 979 194T808 77T575 40H59V119L157 126Q195 129 195 167V1150Q195 1187 157 1190L59 1197V1277H553Q967 1277 967 980Q967 763 702 696Q843 696 934 632Q1043 556 1043 405ZM769 967Q769
1192 485 1192Q462 1192 423 1189Q404 1188 393 1188T380 1187V720Q403 719 420 719T446 719Q621 719 697 783Q769 843 769 967ZM842 390Q842 633 545 633Q527 633 477 630T380 622V135Q421 133 449 132T494 130Q597 130 675 151T798 229T842 390Z" />
<glyph unicode="C" glyph-name="C" horiz-adv-x="1156" d="M1084 381V82Q900 10 715 10Q523 10 378 95T153 327T72 661Q72 854 153 999T379 1225T717 1306Q850 1306 1084 1234V945H973L946 1113Q941 1144 898 1164T804 1193T726 1203Q581 1203 483 1131T334 937T284
661Q284 501 336 377T492 183T751 112Q773 112 814 118T892 139T934 180L977 381H1084Z" />
<glyph unicode="D" glyph-name="D" horiz-adv-x="1283" d="M1211 661Q1211 472 1137 333T921 117T571 40H59V119L157 126Q197 129 197 167V1150Q197 1187 157 1190L59 1197V1277H535Q738 1277 890 1209T1126 1003T1211 661ZM1003 657Q1003 1188 524 1188H383V128L533
130Q1003 136 1003 657Z" />
<glyph unicode="E" glyph-name="E" horiz-adv-x="1075" d="M1016 40H58V119L156 126Q196 129 196 167V1150Q196 1187 156 1190L58 1197V1277H954V1002H843L817 1153Q813 1188 784 1188H382V729H661Q689 729 694 761L711 888H805V476H711L694 604Q690 638 661 638H382V130H850Q878
130 884 165L915 348H1016V40Z" />
<glyph unicode="F" glyph-name="F" horiz-adv-x="996" d="M942 984H833L807 1153Q801 1187 776 1187H383V707H666Q694 707 698 740L715 870H807V455H715L698 584Q694 617 666 617H383V167Q383 128 422 126L545 119V40H61V119L158 126Q197 129 197 167V1150Q197
1187 158 1190L46 1197V1277H942V984Z" />
<glyph unicode="G" glyph-name="G" horiz-adv-x="1282" d="M1235 557L1141 548Q1102 545 1102 510V84Q898 10 715 10Q521 10 377 95T152 327T72 661Q72 862 154 1006T387 1228T739 1306Q800 1306 890 1291T1101 1243V945H990L960 1111Q956 1134 928 1151T862 1179T788
1197T732 1203Q582 1203 482 1133T332 943T282 670Q282 510 334 385T491 187T754 114Q780 114 831 122T916 141V510Q916 545 877 548L754 557V638H1235V557Z" />
<glyph unicode="H" glyph-name="H" horiz-adv-x="1370" d="M1310 40H844V119L949 126Q988 129 988 167V643H382V167Q382 129 420 126L526 119V40H59V119L155 126Q195 129 195 167V1150Q195 1185 155 1188L59 1196V1277H526V1196L420 1188Q382 1185 382 1150V735H988V1150Q988
1185 949 1188L844 1196V1277H1310V1196L1215 1188Q1174 1185 1174 1150V167Q1174 129 1215 126L1310 119V40Z" />
<glyph unicode="I" glyph-name="I" horiz-adv-x="608" d="M547 40H61V119L171 126Q210 129 210 167V1150Q210 1185 171 1188L61 1196V1277H547V1196L435 1188Q396 1185 396 1150V167Q396 129 435 126L547 119V40Z" />
<glyph unicode="J" glyph-name="J" horiz-adv-x="895" d="M846 1197L739 1190Q700 1187 700 1150V506Q700 10 295 10Q201 10 46 62V377H157L197 152Q205 105 282 105Q382 105 431 161T497 306T514 494V1150Q514 1187 475 1190L359 1197V1277H846V1197Z" />
<glyph unicode="K" glyph-name="K" horiz-adv-x="1176" d="M1176 40H853V97L510 589H382V167Q382 129 422 126L527 119V40H59V119L157 126Q195 129 195 167V1150Q195 1187 157 1190L59 1197V1277H527V1197L422 1190Q382 1187 382 1150V666H448L850 1157Q853 1160
853 1166Q853 1173 849 1180T835 1188L741 1197V1277H1131V1197Q1100 1193 1069 1190T1006 1183L630 733L1043 128L1176 119V40Z" />
<glyph unicode="L" glyph-name="L" horiz-adv-x="978" d="M49 40V119L157 126Q195 129 195 167V1150Q195 1187 157 1190L49 1197V1277H520V1197L422 1190Q382 1187 382 1150V130H769Q804 130 809 161L839 383H946V40H49Z" />
<glyph unicode="M" glyph-name="M" horiz-adv-x="1615" d="M53 40V119L158 126Q197 129 197 167V1150Q197 1187 158 1190L53 1197V1277H466V1227L800 322L1134 1222V1277H1557V1197L1458 1190Q1417 1187 1417 1150V167Q1417 129 1458 126L1557 119V40H1093V119L1191
126Q1231 129 1231 167V1183L807 40H715L306 1166V167Q306 129 346 126L452 119V40H53Z" />
<glyph unicode="N" glyph-name="N" horiz-adv-x="1328" d="M1275 1197L1173 1190Q1134 1187 1134 1150V40H990L304 1072V167Q304 129 343 126L448 119V40H49V119L155 126Q195 129 195 167V1150Q195 1187 155 1190L46 1197V1277H411V1231L1025 304V1150Q1025 1187
986 1190L881 1197V1277H1275V1197Z" />
<glyph unicode="O" glyph-name="O" horiz-adv-x="1347" d="M1275 657Q1275 476 1200 330T991 97T675 10Q491 10 356 96T147 328T72 659Q72 841 146 987T356 1220T673 1306Q855 1306 990 1220T1200 986T1275 657ZM1062 656Q1062 797 1023 921T898 1123T675 1201Q537
1201 451 1123T324 922T284 659Q284 556 306 459T374 283T494 158T671 112Q810 112 896 190T1022 392T1062 656Z" />
<glyph unicode="P" glyph-name="P" horiz-adv-x="1067" d="M995 905Q995 770 931 681T758 547T514 503Q415 503 383 510V167Q383 128 422 126L544 119V40H59V119L157 126Q197 129 197 167V1150Q197 1187 157 1190L46 1197V1277H487Q638 1277 752 1247T930 1137T995
905ZM804 902Q804 1187 477 1187Q461 1187 430 1187T383 1185V604Q399 600 436 597T487 594Q804 594 804 902Z" />
<glyph unicode="Q" glyph-name="Q" horiz-adv-x="1363" d="M1291 657Q1291 491 1231 357T1057 135T781 20Q781 -203 1036 -203Q1080 -203 1124 -198T1213 -183V-262Q1073 -293 940 -293Q584 -293 584 17Q424 40 310 128T134 354T72 657Q72 842 147 989T360 1221T679
1306Q865 1306 1002 1221T1215 990T1291 657ZM1073 657Q1073 797 1033 921T907 1124T680 1203Q541 1203 455 1127T328 926T288 661Q288 557 311 459T381 283T503 158T680 112Q784 112 858 157T980 281T1050 456T1073 657Z" />
<glyph unicode="R" glyph-name="R" horiz-adv-x="1196" d="M1196 34Q1177 28 1141 19T1075 10Q984 10 919 47T821 161Q793 229 773 300T725 440Q694 517 627 554T464 591Q416 591 382 587V167Q382 129 420 126L518 119V40H59V119L155 126Q195 129 195 167V1150Q195
1187 155 1190L59 1197V1277H540Q992 1277 992 949Q992 709 689 641Q772 622 828 578T909 463Q929 406 941 347T974 232Q997 173 1054 145T1196 117V34ZM791 941Q791 1187 466 1187H382V682Q396 681 427 681T473 680Q623 680 707 735T791 941Z" />
<glyph unicode="S" glyph-name="S" horiz-adv-x="960" d="M888 386Q888 259 821 176T642 51T400 10Q216 10 72 79V405H188L212 197Q215 167 244 156Q351 114 429 114Q501 114 563 137T662 209T700 332Q700 390 655 438T536 529T376 613Q296 652 232 694T130 796T93
945Q93 1061 150 1141T305 1264T518 1306Q581 1306 662 1291T842 1243V956H737L710 1133Q707 1157 670 1173T589 1197T520 1206Q412 1206 348 1147T283 989Q283 844 538 746Q632 710 711 665T839 554T888 386Z" />
<glyph unicode="T" glyph-name="T" horiz-adv-x="1104" d="M1075 982H966L940 1155Q935 1187 909 1187H645V167Q645 129 684 126L802 119V40H302V119L420 126Q459 129 459 167V1187H193Q167 1187 162 1155L137 982H30V1277H1075V982Z" />
<glyph unicode="U" glyph-name="U" horiz-adv-x="1313" d="M1262 1197L1156 1190Q1118 1187 1118 1150V449Q1118 10 643 10Q194 10 194 449V1150Q194 1187 156 1190L58 1197V1277H525V1197L419 1190Q381 1187 381 1150V497Q381 319 448 227T694 134Q863 134 936
226T1009 497V1150Q1009 1187 968 1190L863 1197V1277H1262V1197Z" />
<glyph unicode="V" glyph-name="V" horiz-adv-x="1227" d="M1209 1197L1102 1178L689 10H549L127 1179L18 1197V1277H459V1197L350 1188Q333 1186 333 1163Q333 1158 337 1146L658 244L966 1142Q970 1153 970 1159Q970 1186 944 1188L842 1197V1277H1209V1197Z" />
<glyph unicode="W" glyph-name="W" horiz-adv-x="1715" d="M1697 1197L1585 1176L1303 10H1168L860 1032L559 10H426L125 1176L18 1197V1277H440V1197L330 1187Q302 1184 311 1150L531 318L820 1277H962L1259 288L1463 1150Q1472 1184 1437 1187L1321 1197V1277H1697V1197Z"
/>
<glyph unicode="X" glyph-name="X" horiz-adv-x="1168" d="M1150 40H677V119L783 130Q809 133 809 156Q809 162 805 169L561 554L276 163Q269 153 269 146Q269 131 299 128L409 119V40H18V119L129 142L499 650L164 1176L42 1197V1277H505V1197L411 1188Q382 1185
382 1170Q382 1161 389 1151L614 805L862 1146Q868 1154 868 1160Q868 1182 842 1185L748 1197V1277H1134V1197L1015 1179L673 709L1036 142L1150 119V40Z" />
<glyph unicode="Y" glyph-name="Y" horiz-adv-x="1154" d="M1136 1197L1036 1179L665 566V167Q665 129 704 126L822 119V40H324V119L438 126Q479 129 479 167V538L125 1176L18 1197V1277H455V1197L363 1188Q336 1185 336 1169Q336 1160 341 1151L601 670L886 1146Q890
1153 890 1159Q890 1182 864 1185L761 1197V1277H1136V1197Z" />
<glyph unicode="Z" glyph-name="Z" horiz-adv-x="1060" d="M988 40H72V121L758 1185H279Q252 1185 247 1153L220 982H111V1277H979V1192L292 134H817Q844 134 848 167L879 381H988V40Z" />
<glyph unicode="[" glyph-name="bracketleft" horiz-adv-x="867" d="M777 -270H278V1450H777V1358H456V-176H777V-270Z" />
<glyph unicode="\" glyph-name="backslash" horiz-adv-x="901" d="M901 -131H783L0 1277H118L901 -131Z" />
<glyph unicode="]" glyph-name="bracketright" horiz-adv-x="867" d="M589 -270H90V-176H411V1358H90V1450H589V-270Z" />
<glyph unicode="^" glyph-name="asciicircum" horiz-adv-x="1766" d="M1364 61H1247L883 960L516 61H401L837 1120H931L1364 61Z" />
<glyph unicode="_" glyph-name="underscore" horiz-adv-x="922" d="M922 -275V-395H0V-275H922Z" />
<glyph unicode="`" glyph-name="grave" horiz-adv-x="644" d="M427 1055H322L42 1234Q0 1261 0 1308Q0 1391 85 1391Q140 1391 181 1341L427 1055Z" />
<glyph unicode="a" glyph-name="a" horiz-adv-x="939" d="M907 40H634L609 149Q434 18 302 18Q202 18 133 84T63 267Q63 352 117 409T255 504T434 563T609 602V682Q609 864 439 864Q368 864 308 840V680H174Q105 680 105 733Q105 793 141 834T236 901T361 938T489
950Q780 950 780 674V158Q780 119 819 117L907 112V40ZM609 214V532Q383 475 303 409Q246 361 246 279Q246 219 282 175Q322 126 383 126Q475 126 609 214Z" />
<glyph unicode="b" glyph-name="b" horiz-adv-x="1022" d="M959 527Q959 285 817 163T432 40H166V1266H26V1327L263 1398H337V881Q481 950 592 950Q710 950 791 894T916 742T959 527ZM773 490Q773 841 490 841Q417 841 337 813V128Q366 127 389 127T428 126Q610
126 691 217T773 490Z" />
<glyph unicode="c" glyph-name="c" horiz-adv-x="859" d="M796 108Q628 18 485 18Q355 18 260 78T114 242T63 478Q63 618 118 724T273 890T507 950Q575 950 640 932T749 874T793 765Q793 715 761 687T684 658Q637 658 592 688V850Q554 872 515 872Q423 872 365
819T279 681T251 503Q251 401 285 317T387 184T557 134Q674 134 796 214V108Z" />
<glyph unicode="d" glyph-name="d" horiz-adv-x="1039" d="M991 40H702V138Q545 18 417 18Q301 18 222 80T103 244T63 460Q63 601 119 712T281 886T533 950Q617 950 702 928V1266H562V1327L800 1398H873V158Q873 120 912 117L991 112V40ZM702 207V835Q624 863
545 863Q446 863 380 813T280 678T246 492Q246 398 275 319T363 191T512 143Q597 143 702 207Z" />
<glyph unicode="e" glyph-name="e" horiz-adv-x="904" d="M841 132Q658 18 490 18Q359 18 263 76T115 237T63 475Q63 611 115 718T264 887T496 950Q667 950 754 845T841 573Q841 555 841 542T839 521H241Q241 414 272 326T371 184T549 131Q669 131 841 244V132ZM656
604V645Q656 738 613 799T478 861Q378 861 318 788T251 604H656Z" />
<glyph unicode="f" glyph-name="f" horiz-adv-x="601" d="M717 1287Q717 1213 632 1187L463 1309Q354 1252 354 1031V913H582V820H354V158Q354 118 392 117L501 112V40H53V112L144 117Q183 119 183 158V820H65V883L183 917Q183 1042 225 1151T351 1329T559 1398Q619
1398 668 1372T717 1287Z" />
<glyph unicode="g" glyph-name="g" horiz-adv-x="967" d="M937 805H752Q802 727 802 639Q802 546 751 481T617 381T441 347Q431 347 422 347T404 348Q381 310 381 271Q381 245 389 224Q466 217 553 204T716 165T840 92T888 -34Q888 -113 844 -177T729 -288T574
-358T409 -383Q319 -383 240 -355T112 -268T63 -120Q63 -29 115 28T258 103Q239 163 239 188Q239 264 332 360Q233 383 168 457T103 638Q103 740 152 809T286 914T474 950Q569 950 688 895H937V805ZM627 650Q627 736 584 805T455 874Q366 874 324 807T281 648Q281
560 324 492T455 423Q543 423 585 492T627 650ZM730 -83Q730 -32 695 -1T605 48T487 75T369 89Q229 40 229 -83Q229 -177 301 -237T470 -297Q540 -297 599 -269T694 -192T730 -83Z" />
<glyph unicode="h" glyph-name="h" horiz-adv-x="1058" d="M1016 40H605V112L680 117Q721 120 721 158V633Q721 817 538 817Q436 817 337 763V158Q337 120 374 117L454 112V40H39V112L128 117Q166 118 166 158V1266H28V1327L264 1398H337V836Q523 950 642 950Q764
950 828 873T892 672V158Q892 120 932 117L1016 112V40Z" />
<glyph unicode="i" glyph-name="i" horiz-adv-x="559" d="M401 1232Q401 1184 370 1151T290 1118Q241 1118 208 1152T175 1232Q175 1279 209 1312T290 1345Q334 1345 367 1314T401 1232ZM496 40H63V112L153 117Q192 119 192 158V817H65V880L290 950H363V158Q363
118 401 117L496 112V40Z" />
<glyph unicode="j" glyph-name="j" horiz-adv-x="538" d="M392 1232Q392 1183 359 1151T280 1118Q232 1118 199 1151T166 1232Q166 1281 199 1313T280 1345Q325 1345 358 1314T392 1232ZM372 159Q372 -100 301 -210Q188 -383 -5 -383Q-146 -383 -146 -280Q-146
-201 -67 -173L112 -297Q201 -246 201 2V819H70V881L297 950H372V159Z" />
<glyph unicode="k" glyph-name="k" horiz-adv-x="984" d="M966 40H671V112L441 458H337V158Q337 120 376 117L455 112V40H37V112L128 117Q166 120 166 158V1266H26V1327L262 1398H337V512H374L645 818Q653 826 648 836Q644 847 631 849L555 856V928H913V856L795
844L552 584L868 123L966 112V40Z" />
<glyph unicode="l" glyph-name="l" horiz-adv-x="547" d="M498 40H49V112L148 117Q159 118 173 130T188 156V1266H48V1327L283 1398H359V156Q359 143 372 131T398 117L498 112V40Z" />
<glyph unicode="m" glyph-name="m" horiz-adv-x="1566" d="M1526 40H1114V112L1190 117Q1228 120 1228 158V629Q1228 817 1065 817Q972 817 868 764V158Q868 120 907 117L985 112V40H581V112L659 117Q697 120 697 158V638Q697 817 535 817Q433 817 337 763V158Q337
120 376 117L454 112V40H37V112L128 117Q166 118 166 158V798H39V859L262 928H337V836Q526 950 638 950Q775 950 841 824Q1042 950 1161 950Q1399 950 1399 669V158Q1399 119 1438 117L1526 112V40Z" />
<glyph unicode="n" glyph-name="n" horiz-adv-x="1045" d="M1008 40H601V112L679 117Q717 120 717 158V637Q717 817 540 817Q445 817 337 763V158Q337 120 376 117L454 112V40H37V112L128 117Q166 118 166 158V798H37V859L262 928H337V836Q537 950 642 950Q888
950 888 667V158Q888 120 927 117L1008 112V40Z" />
<glyph unicode="o" glyph-name="o" horiz-adv-x="1003" d="M940 483Q940 349 886 244T732 79T499 18Q365 18 267 78T116 243T63 483Q63 617 117 722T271 889T506 950Q641 950 738 890T887 724T940 483ZM749 485Q749 575 725 663T647 809T504 867Q413 867 359 810T280
664T256 485Q256 395 280 307T359 160T501 101Q592 101 646 159T724 306T749 485Z" />
<glyph unicode="p" glyph-name="p" horiz-adv-x="1030" d="M967 497Q967 280 844 149T501 18Q444 18 337 35V-241Q337 -277 378 -280L487 -289V-361H40V-289L128 -280Q166 -276 166 -241V798H40V859L265 928H337V836Q483 950 616 950Q723 950 802 889T924 725T967
497ZM783 472Q783 562 756 642T673 772T526 822Q441 822 337 766V133Q418 103 487 103Q587 103 652 154T750 289T783 472Z" />
<glyph unicode="q" glyph-name="q" horiz-adv-x="1012" d="M985 -361H538V-292L647 -282Q686 -279 686 -244V90Q536 18 427 18Q311 18 230 79T106 241T63 462Q63 621 130 729T317 894T596 950Q731 950 857 920V-244Q857 -278 895 -282L985 -292V-361ZM686 152V846Q603
865 559 865Q400 865 325 759T249 492Q249 395 278 312T368 178T527 127Q608 127 686 152Z" />
<glyph unicode="r" glyph-name="r" horiz-adv-x="721" d="M703 740H631Q585 791 531 791Q446 791 346 676V158Q346 119 385 117L507 112V40H46V110L137 117Q175 120 175 158V798H42V859L271 928H346V764Q373 797 414 841T501 917T590 950Q654 950 703 923V740Z" />
<glyph unicode="s" glyph-name="s" horiz-adv-x="734" d="M671 306Q671 207 625 144T498 49T319 18Q247 18 183 29T63 63V310H157L179 152Q256 101 343 101Q411 101 460 140T509 245Q509 314 450 360Q434 372 393 394T284 449Q173 504 130 548Q76 604 76 683Q76
776 120 835T240 922T408 950Q547 950 643 908V690H548L533 820Q478 863 393 863Q244 863 244 739Q244 677 288 639Q308 622 348 600T448 549Q502 524 542 500T608 450Q671 385 671 306Z" />
<glyph unicode="t" glyph-name="t" horiz-adv-x="626" d="M615 79Q489 18 364 18Q259 18 213 68T167 224V836H49V897L175 955L258 1151H338V928H598V836H338V322Q338 122 486 122Q552 122 615 152V79Z" />
<glyph unicode="u" glyph-name="u" horiz-adv-x="1048" d="M1010 40H717V145Q551 18 422 18Q167 18 167 316V816H39V879L265 950H338V351Q338 143 517 143Q608 143 717 198V816H588V879L813 950H888V158Q888 120 929 117L1010 112V40Z" />
<glyph unicode="v" glyph-name="v" horiz-adv-x="975" d="M957 856L859 845L536 40H417L120 845L18 856V928H426V856L337 851Q308 849 308 821Q308 818 310 810L516 233L742 810Q745 816 745 823Q745 849 717 851L634 856V928H957V856Z" />
<glyph unicode="w" glyph-name="w" horiz-adv-x="1443" d="M1425 856L1331 845L1078 40H948L730 729L487 40H355L120 845L18 856V928H422V856L336 851Q298 848 308 810L461 237L698 928H830L1043 237L1213 810Q1223 848 1187 851L1102 856V928H1425V856Z" />
<glyph unicode="x" glyph-name="x" horiz-adv-x="940" d="M922 40H525V112L589 119Q599 120 606 132Q610 142 604 152L445 388L265 152Q257 142 261 132Q265 120 277 119L368 112V40H18V112L124 126L388 469L136 840L27 856V928H434V856L368 847Q356 846 350 835Q344
823 351 814L495 608L657 814Q663 823 660 834Q654 846 643 847L563 856V928H896V856L796 840L550 525L822 126L922 112V40Z" />
<glyph unicode="y" glyph-name="y" horiz-adv-x="976" d="M958 856L862 845L508 -17Q420 -233 341 -312Q270 -383 181 -383Q119 -383 81 -351Q46 -321 46 -277Q46 -216 105 -166L278 -245Q363 -161 433 42L120 845L18 856V928H426V856L337 851Q308 849 308 821Q308
814 310 810L524 267L742 810Q748 823 740 836Q733 849 717 851L630 856V928H958V856Z" />
<glyph unicode="z" glyph-name="z" horiz-adv-x="852" d="M789 40H63V138L552 842H231Q200 842 194 803L175 666H82V928H763V853L258 128H631Q643 128 656 143Q669 156 671 172L689 318H789V40Z" />
<glyph unicode="{" glyph-name="braceleft" horiz-adv-x="999" d="M858 -252Q588 -252 502 -162Q443 -100 426 6Q418 59 418 203Q418 438 360 493Q302 549 123 549V641Q304 641 360 696Q418 751 418 987Q418 1131 426 1184Q443 1290 502 1352Q588 1442 858 1442V1358Q708
1358 649 1296Q612 1256 603 1164Q600 1133 600 993Q600 790 541 713Q477 629 324 596Q475 563 541 477Q600 400 600 197Q600 58 603 26Q612 -66 649 -106Q708 -168 858 -168V-252Z" />
<glyph unicode="|" glyph-name="bar" horiz-adv-x="922" d="M525 -395H397V1448H525V-395Z" />
<glyph unicode="}" glyph-name="braceright" horiz-adv-x="999" d="M876 549Q697 549 638 493Q581 438 581 203Q581 59 573 6Q556 -100 497 -162Q412 -252 141 -252V-168Q291 -168 350 -106Q387 -66 396 26Q399 58 399 197Q399 402 458 477Q526 563 675 596Q522
629 458 713Q399 790 399 993Q399 1133 396 1164Q387 1256 350 1296Q291 1358 141 1358V1442Q412 1442 497 1352Q556 1290 573 1184Q581 1131 581 987Q581 752 638 696Q696 641 876 641V549Z" />
<glyph unicode="~" glyph-name="asciitilde" horiz-adv-x="1535" d="M1376 604Q1189 475 1030 475Q951 475 860 506T676 568T497 599Q357 599 159 455V575Q341 705 509 705Q569 705 637 687T775 644T911 601T1031 582Q1182 582 1376 724V604Z" />
<glyph unicode="&#xa0;" glyph-name="uni00A0" horiz-adv-x="600" />
<glyph unicode="&#xa1;" glyph-name="exclamdown" horiz-adv-x="623" d="M424 836Q424 788 392 756T311 723Q264 723 231 755T197 836Q197 885 231 917T311 950Q358 950 391 917T424 836ZM422 -242Q423 -250 423 -264Q423 -383 311 -383Q198 -383 198 -264Q198
-250 199 -242L267 594H355L422 -242Z" />
<glyph unicode="&#xa2;" glyph-name="cent" horiz-adv-x="1038" d="M897 82Q887 72 827 59Q744 40 632 40V-143H544V44Q355 64 248 189T140 504Q140 627 190 725T331 885T544 965V1153H632V972Q759 972 897 926V656H809L783 816Q779 843 761 854Q739 867 707 874T632
882V128Q704 128 761 154Q768 157 775 164T783 184L807 360H897V82ZM544 134V877Q467 859 417 803T342 669T317 510Q317 425 340 346T414 209T544 134Z" />
<glyph unicode="&#xa3;" glyph-name="sterling" horiz-adv-x="1038" d="M958 1203Q958 1159 924 1128Q892 1097 844 1097Q819 1097 778 1106V1291Q732 1305 695 1305Q447 1305 447 941Q447 903 448 853T452 737H794V646H452Q452 459 415 364Q373 257 256 180Q315
186 353 188T409 191H955V40H79V152Q278 204 278 512V646H149V737H274V939Q274 1141 370 1264Q474 1398 667 1398Q772 1398 856 1353Q958 1299 958 1203Z" />
<glyph unicode="&#xa4;" glyph-name="currency" horiz-adv-x="1117" d="M1039 418L975 353L789 539Q688 462 561 462Q428 462 330 539L144 353L77 420L265 606Q184 711 184 838Q184 963 262 1067L77 1251L144 1315L326 1131Q427 1213 561 1213Q687 1213 791 1133L975
1315L1039 1251L857 1067Q934 969 934 838Q934 706 853 604L1039 418ZM842 838Q842 917 805 981T704 1082T561 1120Q483 1120 418 1083T315 982T276 838Q276 758 314 694T417 592T561 554Q640 554 703 592T804 695T842 838Z" />
<glyph unicode="&#xa5;" glyph-name="yen" horiz-adv-x="1098" d="M1080 1199L976 1176L779 827H1039V746H733L626 557H1039V476H628V167Q628 130 677 126L783 117V40H302V117L411 126Q457 130 457 167V476H59V557H454L354 746H59V827H310L127 1178L18 1199V1277H431V1199L352
1187Q314 1180 330 1146L573 670L841 1144Q859 1178 816 1185L728 1199V1277H1080V1199Z" />
<glyph unicode="&#xa6;" glyph-name="brokenbar" horiz-adv-x="922" d="M524 647H398V1331H524V647ZM524 -275H398V409H524V-275Z" />
<glyph unicode="&#xa7;" glyph-name="section" horiz-adv-x="922" d="M813 639Q813 541 748 460T589 341Q779 253 779 98Q779 7 731 -56T605 -152T436 -185Q289 -185 153 -126V116H245L271 -50Q345 -99 445 -99Q519 -99 576 -61T634 51Q634 115 504 207Q436 255
358 293T245 354Q174 401 142 465T109 602Q109 715 166 779T326 891Q142 984 142 1127Q142 1398 499 1398Q659 1398 756 1354V1115H669L651 1264Q553 1317 477 1317Q402 1317 348 1277T293 1162Q293 1087 428 1015Q545 952 608 917T678 876Q813 776 813 639ZM669
593Q669 746 415 853Q345 828 297 773T248 645Q248 578 289 529T391 443T514 377Q550 396 585 431T645 508T669 593Z" />
<glyph unicode="&#xa8;" glyph-name="dieresis" horiz-adv-x="582" d="M582 1222Q582 1184 556 1151T483 1118Q443 1118 413 1147T382 1222Q382 1262 413 1292T483 1322Q531 1322 556 1290T582 1222ZM201 1222Q201 1180 172 1149T100 1118Q60 1118 30 1149T0 1220Q0
1261 30 1291T100 1322Q144 1322 172 1292T201 1222Z" />
<glyph unicode="&#xa9;" glyph-name="copyright" horiz-adv-x="1543" d="M1480 686Q1480 538 1426 409T1274 181T1049 28T771 -27Q624 -27 496 28T270 181T118 408T63 684Q63 833 117 962T269 1190T496 1343T773 1398Q922 1398 1050 1342T1275 1188T1426 961T1480
686ZM1062 294Q933 250 800 250Q666 250 565 305T406 458T349 684Q349 810 403 908T559 1062T802 1118Q852 1118 917 1107T1062 1071V853H979L951 992Q894 1031 821 1031Q730 1031 662 985T556 861T518 688Q518 597 552 516T649 385T802 334Q879 334 955 369L981
526H1062V294ZM1401 684Q1401 815 1353 930T1218 1133T1018 1271T773 1321Q642 1321 528 1272T327 1134T191 931T142 684Q142 553 190 438T325 236T525 100T771 51Q902 51 1016 100T1217 236T1352 438T1401 684Z" />
<glyph unicode="&#xaa;" glyph-name="ordfeminine" horiz-adv-x="628" d="M598 746H421L405 811Q291 733 205 733Q138 733 94 774T49 881Q49 931 84 965T175 1022T292 1059T405 1083V1131Q405 1241 294 1241Q254 1241 209 1225V1130H121Q77 1130 77 1161Q77 1224
157 1260Q229 1292 327 1292Q517 1292 517 1126V817Q517 794 541 792L598 789V746ZM594 601H57V656H594V601ZM405 850V1041Q258 1006 206 967Q168 938 168 890Q168 853 193 826T258 798Q317 798 405 850Z" />
<glyph unicode="&#xab;" glyph-name="guillemotleft" horiz-adv-x="814" d="M741 158L433 409V556L741 809V678L529 483L741 285V158ZM378 158L70 409V556L378 809V678L164 483L378 285V158Z" />
<glyph unicode="&#xac;" glyph-name="logicalnot" horiz-adv-x="1535" d="M1297 388H1186V703H238V814H1297V388Z" />
<glyph unicode="&#xad;" glyph-name="uni00AD" horiz-adv-x="589" d="M508 552V414H81V552H508Z" />
<glyph unicode="&#xae;" glyph-name="registered" horiz-adv-x="1543" d="M1480 685Q1480 538 1425 409T1273 182T1046 29T769 -27Q624 -27 496 28T271 182T118 409T63 685Q63 832 118 961T270 1189T496 1342T772 1398Q917 1398 1045 1343T1271 1189T1424 962T1480
685ZM1400 685Q1400 817 1351 932T1216 1135T1016 1271T772 1321Q643 1321 529 1272T328 1136T192 933T142 682Q142 553 190 439T325 237T526 101T770 51Q901 51 1015 101T1215 238T1351 440T1400 685ZM1229 302Q1222 301 1187 297T1122 293Q1041 293 999 319T937
388T905 477T873 566T811 634T688 661Q667 661 648 660T626 659V385Q626 377 633 369T654 359L724 353V302H398V353L468 359Q482 360 489 368T496 385V1026Q496 1049 468 1052L398 1057V1109H741Q892 1109 978 1062T1064 895Q1064 801 998 757T848 694Q921 678
956 647T1006 577T1027 499T1051 426T1108 372T1229 351V302ZM920 890Q920 966 867 1009T689 1052H626V720Q629 720 654 720T695 719Q805 719 862 756T920 890Z" />
<glyph unicode="&#xaf;" glyph-name="overscore" horiz-adv-x="617" d="M617 1236V1118H0V1236H617Z" />
<glyph unicode="&#xb0;" glyph-name="degree" horiz-adv-x="608" d="M561 1094Q561 1025 527 967T435 873T304 838Q234 838 176 872T83 964T48 1094Q48 1169 83 1226T177 1316T304 1349Q374 1349 432 1315T526 1223T561 1094ZM487 1094Q487 1170 434 1222T304
1275Q228 1275 175 1223T121 1094Q121 1018 174 965T304 912Q380 912 433 965T487 1094Z" />
<glyph unicode="&#xb1;" glyph-name="plusminus" horiz-adv-x="1535" d="M1307 687H822V377H715V687H229V792H715V1102H822V792H1307V687ZM1307 77H229V182H1307V77Z" />
<glyph unicode="&#xb2;" glyph-name="twosuperior" horiz-adv-x="673" d="M617 584H57V657Q284 831 351 899Q463 1014 463 1116Q463 1278 306 1278Q280 1278 208 1255V1133Q186 1115 151 1115Q77 1115 77 1179Q77 1249 155 1294Q233 1340 339 1340Q456 1340 523
1282Q591 1224 591 1127Q591 1023 468 903Q432 869 361 813T183 678H536L559 772H617V584Z" />
<glyph unicode="&#xb3;" glyph-name="threesuperior" horiz-adv-x="688" d="M617 800Q617 725 573 675T459 600T311 575Q264 575 208 587T111 627T70 698Q70 761 140 761Q166 761 181 752L218 654Q265 629 315 629Q389 629 442 677T496 800Q496 935 322 935Q303
935 286 935T255 932V1000H285Q466 1000 466 1141Q466 1211 421 1245T315 1280Q253 1280 212 1255V1144Q182 1129 158 1129Q88 1129 88 1192Q88 1255 163 1298Q237 1341 346 1341Q442 1341 515 1295T588 1153Q588 1024 404 976Q490 973 553 930T617 800Z" />
<glyph unicode="&#xb4;" glyph-name="acute" horiz-adv-x="646" d="M646 1308Q646 1261 604 1234L323 1055H219L463 1341Q505 1391 562 1391Q646 1391 646 1308Z" />
<glyph unicode="&#xb5;" glyph-name="mu" horiz-adv-x="1009" d="M982 240H1019Q1004 18 833 18Q697 18 671 197Q587 101 531 62Q466 18 396 18Q282 18 232 99V55Q232 -11 254 -120Q276 -229 276 -263Q276 -304 251 -336T188 -369Q154 -369 131 -339T107 -267Q107
-239 137 -110Q152 -46 159 38T166 225V928H337V404Q337 271 354 220Q383 134 470 134Q559 134 671 260V928H842V293Q842 184 860 146Q870 124 904 124Q960 124 982 240Z" />
<glyph unicode="&#xb6;" glyph-name="paragraph" horiz-adv-x="895" d="M846 1210L732 1192V-106H642V1201H501V557Q361 557 260 589T104 700T49 916Q49 1053 101 1131T251 1243T481 1277H846V1210Z" />
<glyph unicode="&#xb7;" glyph-name="middot" horiz-adv-x="518" d="M258 534Q207 534 171 570T135 657Q135 710 170 746T258 782Q311 782 347 746T383 657Q383 603 346 569T258 534Z" />
<glyph unicode="&#xb8;" glyph-name="cedilla" horiz-adv-x="426" d="M426 -199Q426 -287 364 -331T212 -375Q151 -375 76 -356V-284Q144 -299 186 -299Q306 -299 306 -224Q306 -155 220 -155Q204 -155 177 -166V40H248V-76Q274 -69 292 -69Q426 -69 426 -199Z" />
<glyph unicode="&#xb9;" glyph-name="onesuperior" horiz-adv-x="619" d="M533 584H127V633L248 638Q274 638 274 661V1245L88 1216V1266L348 1340H392V661Q392 638 420 638L533 633V584Z" />
<glyph unicode="&#xba;" glyph-name="ordmasculine" horiz-adv-x="661" d="M491 1012Q491 1069 475 1121T424 1207T332 1241Q275 1241 240 1208T188 1122T171 1012Q171 957 187 904T239 817T330 782Q387 782 422 816T474 902T491 1012ZM616 1011Q616 896 541 815T329
733Q199 733 122 810T45 1011Q45 1132 122 1212T333 1292Q461 1292 538 1214T616 1011ZM611 601H49V656H611V601Z" />
<glyph unicode="&#xbb;" glyph-name="guillemotright" horiz-adv-x="814" d="M744 411L436 158V288L651 484L436 682V809L744 557V411ZM382 411L74 158V288L285 484L74 682V809L382 557V411Z" />
<glyph unicode="&#xbc;" glyph-name="onequarter" horiz-adv-x="1613" d="M1525 250H1388V1H1284V250H901V327L1307 788H1388V325H1525V250ZM1272 1327L455 40H337L1156 1327H1272ZM533 584H127V633L248 638Q274 638 274 661V1245L88 1216V1266L348 1340H392V661Q392
638 420 638L533 633V584ZM1284 325V659L997 325H1284Z" />
<glyph unicode="&#xbd;" glyph-name="onehalf" horiz-adv-x="1613" d="M1530 40H967V114Q1197 290 1263 356Q1375 470 1375 575Q1375 735 1219 735Q1192 735 1120 710V589Q1096 571 1062 571Q990 571 990 636Q990 705 1066 750Q1143 796 1250 796Q1356 796 1429
743T1502 584Q1502 478 1380 359Q1343 323 1273 267T1095 134H1449L1469 230H1530V40ZM1259 1327L440 40H324L1143 1327H1259ZM529 584H123V633L245 638Q271 638 271 661V1245L85 1216V1266L345 1340H389V661Q389 638 417 638L529 633V584Z" />
<glyph unicode="&#xbe;" glyph-name="threequarters" horiz-adv-x="1613" d="M1544 250H1408V1H1305V250H922V327L1327 788H1408V325H1544V250ZM1292 1327L473 40H357L1176 1327H1292ZM617 800Q617 725 573 675T459 600T311 575Q264 575 208 587T111 627T70 698Q70
761 140 761Q166 761 181 752L218 654Q265 629 315 629Q389 629 442 677T496 800Q496 935 322 935Q303 935 286 935T255 932V1000H285Q466 1000 466 1141Q466 1211 421 1245T315 1280Q253 1280 212 1255V1144Q182 1129 158 1129Q88 1129 88 1192Q88 1255 163 1298Q237
1341 346 1341Q442 1341 515 1295T588 1153Q588 1024 404 976Q490 973 553 930T617 800ZM1305 325V659L1017 325H1305Z" />
<glyph unicode="&#xbf;" glyph-name="questiondown" horiz-adv-x="895" d="M639 827Q639 779 607 747T526 714Q478 714 445 747T412 828Q412 876 445 908T526 941Q573 941 606 908T639 827ZM804 -202Q804 -274 733 -325Q653 -383 510 -383Q347 -383 236 -292Q127
-202 127 -53Q127 102 248 211Q327 281 477 347V588H580V285Q471 248 403 177Q313 82 313 -38Q313 -292 577 -292L652 -105Q679 -102 683 -102Q804 -102 804 -202Z" />
<glyph unicode="&#xc0;" glyph-name="Agrave" horiz-adv-x="1242" d="M700 1412H598L317 1591Q273 1619 273 1664Q273 1747 359 1747Q413 1747 455 1697L700 1412ZM1233 40H794V119L901 128Q911 130 915 141Q923 153 920 160L793 497H367L245 165Q244 163 244
160Q244 131 271 128L380 119V40H9V119L116 142L545 1306H684L1111 169Q1121 146 1125 143Q1131 137 1150 134L1233 119V40ZM760 585L579 1068L400 585H760Z" />
<glyph unicode="&#xc1;" glyph-name="Aacute" horiz-adv-x="1242" d="M925 1664Q925 1618 883 1591L605 1412H499L744 1697Q788 1747 842 1747Q925 1747 925 1664ZM1233 40H794V119L901 128Q911 130 915 141Q923 153 920 160L793 497H367L245 165Q244 163 244
160Q244 131 271 128L380 119V40H9V119L116 142L545 1306H684L1111 169Q1121 146 1125 143Q1131 137 1150 134L1233 119V40ZM760 585L579 1068L400 585H760Z" />
<glyph unicode="&#xc2;" glyph-name="Acircumflex" horiz-adv-x="1242" d="M894 1412H783L593 1596L401 1412H292L524 1725H661L894 1412ZM1233 40H794V119L901 128Q911 130 915 141Q923 153 920 160L793 497H367L245 165Q244 163 244 160Q244 131 271 128L380
119V40H9V119L116 142L545 1306H684L1111 169Q1121 146 1125 143Q1131 137 1150 134L1233 119V40ZM760 585L579 1068L400 585H760Z" />
<glyph unicode="&#xc3;" glyph-name="Atilde" horiz-adv-x="1242" d="M925 1672Q874 1468 712 1468Q667 1468 631 1490T554 1535T457 1557Q419 1557 392 1529Q363 1498 359 1468H285Q336 1672 499 1672Q541 1672 579 1650T659 1606T756 1583Q792 1583 819 1610Q848
1638 851 1672H925ZM1233 40H794V119L901 128Q911 130 915 141Q923 153 920 160L793 497H367L245 165Q244 163 244 160Q244 131 271 128L380 119V40H9V119L116 142L545 1306H684L1111 169Q1121 146 1125 143Q1131 137 1150 134L1233 119V40ZM760 585L579 1068L400
585H760Z" />
<glyph unicode="&#xc4;" glyph-name="Adieresis" horiz-adv-x="1242" d="M894 1572Q894 1532 866 1500T793 1468Q751 1468 721 1499T691 1572Q691 1610 721 1641T793 1673Q835 1673 864 1643T894 1572ZM512 1572Q512 1534 484 1501T411 1468Q372 1468 341 1497T310
1570Q310 1615 341 1644T411 1673Q456 1673 484 1642T512 1572ZM1233 40H794V119L901 128Q911 130 915 141Q923 153 920 160L793 497H367L245 165Q244 163 244 160Q244 131 271 128L380 119V40H9V119L116 142L545 1306H684L1111 169Q1121 146 1125 143Q1131 137
1150 134L1233 119V40ZM760 585L579 1068L400 585H760Z" />
<glyph unicode="&#xc5;" glyph-name="Aring" horiz-adv-x="1242" d="M833 1642Q833 1545 767 1479T603 1412Q502 1412 438 1481T374 1642Q374 1737 441 1804T603 1871Q694 1871 763 1807T833 1642ZM1233 40H794V119L901 128Q911 130 915 141Q923 153 920 160L793
497H367L245 165Q244 163 244 160Q244 131 271 128L380 119V40H9V119L116 142L545 1306H684L1111 169Q1121 146 1125 143Q1131 137 1150 134L1233 119V40ZM723 1642Q723 1692 688 1727T603 1762Q553 1762 518 1727T483 1642Q483 1592 518 1557T603 1522Q653 1522
688 1557T723 1642ZM760 585L579 1068L400 585H760Z" />
<glyph unicode="&#xc6;" glyph-name="AE" horiz-adv-x="1719" d="M1660 40H748V119L839 126Q886 129 886 167V501H461L254 167Q230 131 267 128L372 119V40H9V119L107 134L733 1151Q737 1156 737 1162Q737 1187 707 1190L617 1199V1277H1594V1002H1487L1462 1153Q1456
1188 1430 1188H1073V728H1305Q1335 728 1338 761L1354 888H1444V476H1354L1338 606Q1335 638 1305 638H1073V130H1495Q1523 130 1528 165L1555 348H1660V40ZM886 591V1192L512 591H886Z" />
<glyph unicode="&#xc7;" glyph-name="Ccedilla" horiz-adv-x="1156" d="M1084 82Q1059 72 1031 63T972 45Q841 10 730 10V-76Q763 -69 772 -69Q907 -69 907 -199Q907 -287 844 -331T691 -375Q630 -375 555 -356V-284Q624 -299 668 -299Q786 -299 786 -224Q786
-155 698 -155Q683 -155 656 -166V12Q480 26 349 113T145 343T72 661Q72 854 153 999T379 1225T717 1306Q850 1306 1084 1234V945H973L946 1113Q942 1141 914 1155Q818 1203 726 1203Q578 1203 480 1131T333 938T284 666Q284 508 335 383T490 185T751 112Q826 112
900 143Q928 155 934 180L977 381H1084V82Z" />
<glyph unicode="&#xc8;" glyph-name="Egrave" horiz-adv-x="1075" d="M677 1412H571L292 1591Q248 1620 248 1665Q248 1747 334 1747Q385 1747 429 1697L677 1412ZM1016 40H58V119L156 126Q196 129 196 167V1150Q196 1187 156 1190L58 1197V1277H954V1002H843L817
1153Q813 1188 784 1188H382V729H661Q689 729 694 761L711 888H805V476H711L694 604Q690 638 661 638H382V130H850Q878 130 884 165L915 348H1016V40Z" />
<glyph unicode="&#xc9;" glyph-name="Eacute" horiz-adv-x="1075" d="M866 1664Q866 1620 821 1591L541 1412H437L683 1697Q727 1747 778 1747Q866 1747 866 1664ZM1016 40H58V119L156 126Q196 129 196 167V1150Q196 1187 156 1190L58 1197V1277H954V1002H843L817
1153Q813 1188 784 1188H382V729H661Q689 729 694 761L711 888H805V476H711L694 604Q690 638 661 638H382V130H850Q878 130 884 165L915 348H1016V40Z" />
<glyph unicode="&#xca;" glyph-name="Ecircumflex" horiz-adv-x="1075" d="M852 1412H742L552 1596L362 1412H252L484 1725H622L852 1412ZM1016 40H58V119L156 126Q196 129 196 167V1150Q196 1187 156 1190L58 1197V1277H954V1002H843L817 1153Q813 1188 784 1188H382V729H661Q689
729 694 761L711 888H805V476H711L694 604Q690 638 661 638H382V130H850Q878 130 884 165L915 348H1016V40Z" />
<glyph unicode="&#xcb;" glyph-name="Edieresis" horiz-adv-x="1075" d="M856 1572Q856 1534 829 1501T757 1468Q715 1468 685 1499T655 1572Q655 1610 685 1641T757 1673Q801 1673 828 1643T856 1572ZM474 1572Q474 1532 446 1500T373 1468Q335 1468 305 1497T274
1570Q274 1613 303 1643T373 1673Q420 1673 447 1642T474 1572ZM1016 40H58V119L156 126Q196 129 196 167V1150Q196 1187 156 1190L58 1197V1277H954V1002H843L817 1153Q813 1188 784 1188H382V729H661Q689 729 694 761L711 888H805V476H711L694 604Q690 638 661
638H382V130H850Q878 130 884 165L915 348H1016V40Z" />
<glyph unicode="&#xcc;" glyph-name="Igrave" horiz-adv-x="608" d="M426 1412H320L40 1591Q-2 1619 -2 1665Q-2 1747 83 1747Q135 1747 179 1697L426 1412ZM547 40H61V119L171 126Q210 129 210 167V1150Q210 1187 171 1188L61 1196V1277H547V1196L435 1188Q396
1187 396 1150V167Q396 129 435 126L547 119V40Z" />
<glyph unicode="&#xcd;" glyph-name="Iacute" horiz-adv-x="608" d="M596 1665Q596 1620 553 1591L273 1412H167L415 1697Q460 1747 510 1747Q596 1747 596 1665ZM547 40H61V119L171 126Q210 129 210 167V1150Q210 1187 171 1188L61 1196V1277H547V1196L435 1188Q396
1187 396 1150V167Q396 129 435 126L547 119V40Z" />
<glyph unicode="&#xce;" glyph-name="Icircumflex" horiz-adv-x="608" d="M606 1412H495L305 1596L115 1412H3L235 1725H375L606 1412ZM547 40H61V119L171 126Q210 129 210 167V1150Q210 1187 171 1188L61 1196V1277H547V1196L435 1188Q396 1187 396 1150V167Q396
129 435 126L547 119V40Z" />
<glyph unicode="&#xcf;" glyph-name="Idieresis" horiz-adv-x="608" d="M596 1572Q596 1530 567 1499T496 1468Q454 1468 424 1499T394 1572Q394 1610 424 1641T494 1673Q538 1673 567 1642T596 1572ZM214 1572Q214 1532 185 1500T112 1468Q74 1468 44 1497T13
1570Q13 1613 42 1643T112 1673Q157 1673 185 1642T214 1572ZM547 40H61V119L171 126Q210 129 210 167V1150Q210 1187 171 1188L61 1196V1277H547V1196L435 1188Q396 1187 396 1150V167Q396 129 435 126L547 119V40Z" />
<glyph unicode="&#xd0;" glyph-name="Eth" horiz-adv-x="1283" d="M1211 657Q1211 383 1051 217Q880 40 573 40H59V119L157 126Q195 129 195 167V641H28V735H195V1150Q195 1185 157 1188L59 1197V1277H533Q836 1277 1013 1133Q1211 972 1211 657ZM1003 657Q1003
1188 524 1188H382V735H677V641H382V128H526Q1003 128 1003 657Z" />
<glyph unicode="&#xd1;" glyph-name="Ntilde" horiz-adv-x="1328" d="M1003 1672Q951 1468 791 1468Q751 1468 712 1490T629 1535T535 1557Q496 1557 469 1528T438 1468H365Q418 1672 577 1672Q618 1672 656 1650T736 1606T833 1583Q869 1583 896 1610Q925 1637
929 1672H1003ZM1275 1197L1173 1190Q1134 1187 1134 1150V40H990L304 1072V167Q304 129 343 126L448 119V40H49V119L155 126Q195 129 195 167V1150Q195 1187 155 1190L46 1197V1277H411V1231L1025 304V1150Q1025 1187 986 1190L881 1197V1277H1275V1197Z" />
<glyph unicode="&#xd2;" glyph-name="Ograve" horiz-adv-x="1347" d="M770 1412H665L385 1591Q343 1618 343 1665Q343 1747 427 1747Q480 1747 524 1697L770 1412ZM1275 657Q1275 476 1200 330T991 97T675 10Q491 10 356 96T147 328T72 659Q72 841 146 987T356
1220T673 1306Q855 1306 990 1220T1200 986T1275 657ZM1062 656Q1062 796 1023 920T898 1123T675 1201Q537 1201 451 1123T324 922T284 659Q284 556 306 459T374 283T494 158T671 112Q810 112 896 190T1022 392T1062 656Z" />
<glyph unicode="&#xd3;" glyph-name="Oacute" horiz-adv-x="1347" d="M1275 657Q1275 476 1200 330T991 97T675 10Q491 10 356 96T147 328T72 659Q72 841 146 987T356 1220T673 1306Q855 1306 990 1220T1200 986T1275 657ZM1062 656Q1062 796 1023 920T898 1123T675
1201Q537 1201 451 1123T324 922T284 659Q284 556 306 459T374 283T494 158T671 112Q810 112 896 190T1022 392T1062 656ZM995 1665Q995 1618 953 1591L673 1412H568L814 1697Q858 1747 911 1747Q995 1747 995 1665Z" />
<glyph unicode="&#xd4;" glyph-name="Ocircumflex" horiz-adv-x="1347" d="M973 1412H863L673 1596L483 1412H373L603 1725H741L973 1412ZM1275 657Q1275 476 1200 330T991 97T675 10Q491 10 356 96T147 328T72 659Q72 841 146 987T356 1220T673 1306Q855 1306
990 1220T1200 986T1275 657ZM1062 656Q1062 796 1023 920T898 1123T675 1201Q537 1201 451 1123T324 922T284 659Q284 556 306 459T374 283T494 158T671 112Q810 112 896 190T1022 392T1062 656Z" />
<glyph unicode="&#xd5;" glyph-name="Otilde" horiz-adv-x="1347" d="M990 1672Q939 1468 776 1468Q736 1468 697 1490T614 1535T520 1557Q484 1557 457 1530T424 1468H350Q401 1672 564 1672Q604 1672 642 1650T722 1606T818 1583Q855 1583 883 1610Q911 1637
916 1672H990ZM1275 657Q1275 476 1200 330T991 97T675 10Q491 10 356 96T147 328T72 659Q72 841 146 987T356 1220T673 1306Q855 1306 990 1220T1200 986T1275 657ZM1062 656Q1062 796 1023 920T898 1123T675 1201Q537 1201 451 1123T324 922T284 659Q284 556
306 459T374 283T494 158T671 112Q810 112 896 190T1022 392T1062 656Z" />
<glyph unicode="&#xd6;" glyph-name="Odieresis" horiz-adv-x="1349" d="M1275 657Q1275 476 1200 330T991 97T675 10Q491 10 356 96T147 328T72 659Q72 841 146 987T356 1220T673 1306Q855 1306 990 1220T1200 986T1275 657ZM1062 656Q1062 796 1023 920T898
1123T675 1201Q537 1201 451 1123T324 922T284 659Q284 556 306 459T374 283T494 158T671 112Q810 112 896 190T1022 392T1062 656ZM963 1572Q963 1530 934 1499T863 1468Q821 1468 791 1499T761 1572Q761 1610 791 1641T861 1673Q905 1673 934 1642T963 1572ZM581
1572Q581 1532 552 1500T479 1468Q441 1468 411 1497T380 1570Q380 1613 409 1643T479 1673Q524 1673 552 1642T581 1572Z" />
<glyph unicode="&#xd7;" glyph-name="multiply" horiz-adv-x="1535" d="M1274 165L1192 82L768 508L342 82L261 165L685 589L261 1015L342 1098L768 672L1192 1098L1274 1015L849 589L1274 165Z" />
<glyph unicode="&#xd8;" glyph-name="Oslash" horiz-adv-x="1347" d="M1275 657Q1275 476 1200 330T991 97T675 10Q511 10 378 84L264 -106L179 -54L295 142Q72 327 72 659Q72 841 146 987T356 1220T673 1306Q826 1306 949 1241L1055 1419L1141 1367L1034 1187Q1275
1001 1275 657ZM1062 656Q1062 906 956 1055L445 197Q539 112 671 112Q810 112 896 190T1022 392T1062 656ZM884 1132Q796 1201 675 1201Q537 1201 451 1123T324 922T284 659Q284 428 377 279L884 1132Z" />
<glyph unicode="&#xd9;" glyph-name="Ugrave" horiz-adv-x="1313" d="M779 1412H675L394 1591Q352 1618 352 1665Q352 1747 436 1747Q489 1747 533 1697L779 1412ZM1262 1197L1156 1190Q1118 1187 1118 1150V449Q1118 10 643 10Q194 10 194 449V1150Q194 1187
156 1190L58 1197V1277H525V1197L419 1190Q381 1187 381 1150V497Q381 319 448 227T694 134Q863 134 936 226T1009 497V1150Q1009 1187 968 1190L863 1197V1277H1262V1197Z" />
<glyph unicode="&#xda;" glyph-name="Uacute" horiz-adv-x="1313" d="M1003 1665Q1003 1619 960 1591L680 1412H575L820 1697Q864 1747 918 1747Q1003 1747 1003 1665ZM1262 1197L1156 1190Q1118 1187 1118 1150V449Q1118 10 643 10Q194 10 194 449V1150Q194 1187
156 1190L58 1197V1277H525V1197L419 1190Q381 1187 381 1150V497Q381 319 448 227T694 134Q863 134 936 226T1009 497V1150Q1009 1187 968 1190L863 1197V1277H1262V1197Z" />
<glyph unicode="&#xdb;" glyph-name="Ucircumflex" horiz-adv-x="1313" d="M981 1412H870L679 1596L489 1412H378L610 1725H748L981 1412ZM1262 1197L1156 1190Q1118 1187 1118 1150V449Q1118 10 643 10Q194 10 194 449V1150Q194 1187 156 1190L58 1197V1277H525V1197L419
1190Q381 1187 381 1150V497Q381 319 448 227T694 134Q863 134 936 226T1009 497V1150Q1009 1187 968 1190L863 1197V1277H1262V1197Z" />
<glyph unicode="&#xdc;" glyph-name="Udieresis" horiz-adv-x="1313" d="M1262 1197L1156 1190Q1118 1187 1118 1150V449Q1118 10 643 10Q194 10 194 449V1150Q194 1187 156 1190L58 1197V1277H525V1197L419 1190Q381 1187 381 1150V497Q381 319 448 227T694 134Q863
134 936 226T1009 497V1150Q1009 1187 968 1190L863 1197V1277H1262V1197ZM978 1572Q978 1530 949 1499T878 1468Q836 1468 806 1499T776 1572Q776 1610 806 1641T876 1673Q920 1673 949 1642T978 1572ZM596 1572Q596 1532 567 1500T494 1468Q456 1468 426 1497T395
1570Q395 1613 424 1643T494 1673Q539 1673 567 1642T596 1572Z" />
<glyph unicode="&#xdd;" glyph-name="Yacute" horiz-adv-x="1152" d="M877 1665Q877 1618 835 1591L554 1412H450L695 1697Q739 1747 793 1747Q877 1747 877 1665ZM1136 1197L1036 1179L665 566V167Q665 129 704 126L822 119V40H324V119L438 126Q479 129 479 167V538L125
1176L18 1197V1277H455V1197L363 1188Q323 1185 341 1151L601 670L886 1146Q890 1153 890 1159Q890 1182 864 1185L761 1197V1277H1136V1197Z" />
<glyph unicode="&#xde;" glyph-name="Thorn" horiz-adv-x="1065" d="M993 678Q993 544 929 457T756 326T513 283Q489 283 455 285T381 293V167Q381 129 421 126L528 119V40H58V119L154 126Q194 129 194 167V1150Q194 1187 154 1190L58 1197V1277H528V1197L421
1190Q381 1187 381 1150V1044H508Q652 1044 761 1013T931 902T993 678ZM783 678Q783 836 705 897T469 958Q459 958 433 957T381 953V385Q399 382 425 380T488 377Q783 377 783 678Z" />
<glyph unicode="&#xdf;" glyph-name="germandbls" horiz-adv-x="1157" d="M1095 314Q1095 224 1051 158T935 54T774 17Q728 17 664 33T556 64V311H656L673 151Q688 137 716 121T783 105Q853 105 895 152T938 261Q938 323 898 364T800 439T683 507T584 589T544
707Q544 807 608 873T767 960Q772 987 777 1026T783 1092Q783 1175 738 1240T598 1306Q512 1306 460 1261T382 1149T346 1013T337 893V161Q337 141 346 130T365 117L459 110V40H40V110L129 119Q146 121 156 135T166 161V875Q166 970 193 1063T276 1231T421 1352T630
1398Q789 1398 871 1315T953 1092Q953 1025 938 967T922 900Q919 900 910 902T881 905Q787 905 748 863T709 764Q709 710 748 673T844 605T959 536T1056 447T1095 314Z" />
<glyph unicode="&#xe0;" glyph-name="agrave" horiz-adv-x="939" d="M579 1055H474L193 1234Q151 1260 151 1308Q151 1391 237 1391Q288 1391 332 1341L579 1055ZM907 40H634L609 149Q434 18 302 18Q199 18 133 84Q63 153 63 267Q63 380 155 447Q214 490 327 528T609
602V682Q609 864 439 864Q368 864 308 840V680H174Q105 680 105 733Q105 793 141 834T236 901T361 938T489 950Q780 950 780 674V158Q780 119 819 117L907 112V40ZM609 214V532Q383 475 303 409Q246 361 246 279Q246 219 282 175Q322 126 383 126Q475 126 609 214Z"
/>
<glyph unicode="&#xe1;" glyph-name="aacute" horiz-adv-x="939" d="M775 1308Q775 1261 732 1234L452 1055H346L594 1341Q637 1391 689 1391Q775 1391 775 1308ZM907 40H634L609 149Q434 18 302 18Q199 18 133 84Q63 153 63 267Q63 380 155 447Q214 490 327 528T609
602V682Q609 864 439 864Q368 864 308 840V680H174Q105 680 105 733Q105 793 141 834T236 901T361 938T489 950Q780 950 780 674V158Q780 119 819 117L907 112V40ZM609 214V532Q383 475 303 409Q246 361 246 279Q246 219 282 175Q322 126 383 126Q475 126 609 214Z"
/>
<glyph unicode="&#xe2;" glyph-name="acircumflex" horiz-adv-x="939" d="M745 1055H634L445 1238L255 1055H142L374 1367H515L745 1055ZM907 40H634L609 149Q434 18 302 18Q199 18 133 84Q63 153 63 267Q63 380 155 447Q214 490 327 528T609 602V682Q609 864
439 864Q368 864 308 840V680H174Q105 680 105 733Q105 793 141 834T236 901T361 938T489 950Q780 950 780 674V158Q780 119 819 117L907 112V40ZM609 214V532Q383 475 303 409Q246 361 246 279Q246 219 282 175Q322 126 383 126Q475 126 609 214Z" />
<glyph unicode="&#xe3;" glyph-name="atilde" horiz-adv-x="939" d="M778 1321Q727 1118 564 1118Q524 1118 486 1140T405 1184T308 1206Q273 1206 244 1179Q216 1151 212 1118H139Q190 1321 353 1321Q394 1321 432 1299T512 1255T607 1232Q643 1232 671 1259Q701
1287 705 1321H778ZM907 40H634L609 149Q434 18 302 18Q199 18 133 84Q63 153 63 267Q63 380 155 447Q214 490 327 528T609 602V682Q609 864 439 864Q368 864 308 840V680H174Q105 680 105 733Q105 793 141 834T236 901T361 938T489 950Q780 950 780 674V158Q780
119 819 117L907 112V40ZM609 214V532Q383 475 303 409Q246 361 246 279Q246 219 282 175Q322 126 383 126Q475 126 609 214Z" />
<glyph unicode="&#xe4;" glyph-name="adieresis" horiz-adv-x="939" d="M756 1222Q756 1182 727 1150T654 1118Q610 1118 583 1150T555 1222Q555 1261 585 1291T654 1322Q698 1322 727 1292T756 1222ZM373 1222Q373 1181 343 1150T271 1118Q229 1118 202 1149T174
1220Q174 1261 203 1291T273 1322Q315 1322 344 1293T373 1222ZM907 40H634L609 149Q434 18 302 18Q199 18 133 84Q63 153 63 267Q63 380 155 447Q214 490 327 528T609 602V682Q609 864 439 864Q368 864 308 840V680H174Q105 680 105 733Q105 793 141 834T236 901T361
938T489 950Q780 950 780 674V158Q780 119 819 117L907 112V40ZM609 214V532Q383 475 303 409Q246 361 246 279Q246 219 282 175Q322 126 383 126Q475 126 609 214Z" />
<glyph unicode="&#xe5;" glyph-name="aring" horiz-adv-x="939" d="M689 1275Q689 1181 625 1118T471 1055Q379 1055 315 1119T251 1275Q251 1363 313 1428T471 1494Q563 1494 626 1430T689 1275ZM907 40H634L609 149Q434 18 302 18Q199 18 133 84Q63 153 63 267Q63
380 155 447Q214 490 327 528T609 602V682Q609 864 439 864Q368 864 308 840V680H174Q105 680 105 733Q105 793 141 834T236 901T361 938T489 950Q780 950 780 674V158Q780 119 819 117L907 112V40ZM599 1275Q599 1329 563 1366T471 1404Q413 1404 377 1365T341
1275Q341 1220 378 1183T471 1146Q524 1146 561 1182T599 1275ZM609 214V532Q383 475 303 409Q246 361 246 279Q246 219 282 175Q322 126 383 126Q475 126 609 214Z" />
<glyph unicode="&#xe6;" glyph-name="ae" horiz-adv-x="1329" d="M1266 132Q1110 18 960 18Q762 18 625 158Q450 18 301 18Q187 18 123 88Q63 153 63 260Q63 397 182 468Q276 524 580 602V678Q580 774 546 817Q508 864 420 864Q366 864 304 840V680H175Q105 680
105 733Q105 812 163 859T305 928T467 950Q637 950 712 842Q802 950 960 950Q1065 950 1133 901T1233 767T1266 576Q1266 557 1263 512H751V267Q876 142 1020 142Q1147 142 1266 242V132ZM1084 591V647Q1084 738 1047 797Q1005 864 928 864Q751 864 751 591H1084ZM580
214V532Q384 478 309 422Q240 370 240 285Q240 220 274 175Q311 128 380 128Q459 128 580 214Z" />
<glyph unicode="&#xe7;" glyph-name="ccedilla" horiz-adv-x="859" d="M796 116Q633 26 507 18V-76Q530 -69 549 -69Q684 -69 684 -199Q684 -287 622 -331T470 -375Q407 -375 332 -356V-284Q401 -299 445 -299Q564 -299 564 -224Q564 -155 476 -155Q460 -155 435
-166V20Q321 31 238 92T109 254T63 478Q63 618 118 724T273 890T507 950Q575 950 641 932T750 873T793 764Q793 714 761 686T684 657Q637 657 592 687V849Q551 872 515 872Q423 872 365 819T279 681T251 503Q251 401 285 317T387 184T557 134Q664 134 796 221V116Z"
/>
<glyph unicode="&#xe8;" glyph-name="egrave" horiz-adv-x="904" d="M590 1055H485L204 1234Q162 1261 162 1308Q162 1391 247 1391Q300 1391 343 1341L590 1055ZM841 132Q658 18 490 18Q359 18 263 76T115 237T63 475Q63 611 115 718T264 887T496 950Q667 950
754 845T841 573Q841 555 841 542T839 521H241Q241 414 272 326T371 184T549 131Q669 131 841 244V132ZM656 604V645Q656 738 613 799T478 861Q378 861 318 788T251 604H656Z" />
<glyph unicode="&#xe9;" glyph-name="eacute" horiz-adv-x="904" d="M802 1308Q802 1260 760 1234L480 1055H374L619 1341Q663 1391 717 1391Q802 1391 802 1308ZM841 132Q658 18 490 18Q359 18 263 76T115 237T63 475Q63 611 115 718T264 887T496 950Q667 950
754 845T841 573Q841 555 841 542T839 521H241Q241 414 272 326T371 184T549 131Q669 131 841 244V132ZM656 604V645Q656 738 613 799T478 861Q378 861 318 788T251 604H656Z" />
<glyph unicode="&#xea;" glyph-name="ecircumflex" horiz-adv-x="904" d="M765 1055H654L464 1238L274 1055H164L394 1367H533L765 1055ZM841 132Q658 18 490 18Q359 18 263 76T115 237T63 475Q63 611 115 718T264 887T496 950Q667 950 754 845T841 573Q841 555
841 542T839 521H241Q241 414 272 326T371 184T549 131Q669 131 841 244V132ZM656 604V645Q656 738 613 799T478 861Q378 861 318 788T251 604H656Z" />
<glyph unicode="&#xeb;" glyph-name="edieresis" horiz-adv-x="904" d="M841 132Q658 18 490 18Q359 18 263 76T115 237T63 475Q63 611 115 718T264 887T496 950Q667 950 754 845T841 573Q841 555 841 542T839 521H241Q241 414 272 326T371 184T549 131Q669 131
841 244V132ZM656 604V645Q656 738 613 799T478 861Q378 861 318 788T251 604H656ZM759 1222Q759 1182 730 1150T657 1118Q613 1118 586 1150T558 1222Q558 1261 588 1291T657 1322Q701 1322 730 1292T759 1222ZM376 1222Q376 1181 346 1150T274 1118Q232 1118
205 1149T177 1220Q177 1261 206 1291T276 1322Q318 1322 347 1293T376 1222Z" />
<glyph unicode="&#xec;" glyph-name="igrave" horiz-adv-x="559" d="M401 1055H299L18 1234Q-26 1262 -26 1308Q-26 1391 61 1391Q116 1391 157 1341L401 1055ZM496 40H63V112L153 117Q192 120 192 158V816H65V879L290 949H363V158Q363 120 401 117L496 112V40Z" />
<glyph unicode="&#xed;" glyph-name="iacute" horiz-adv-x="559" d="M498 1308Q498 1262 455 1234L175 1055H70L315 1341Q356 1391 413 1391Q498 1391 498 1308ZM496 40H63V112L153 117Q192 120 192 158V816H65V879L290 949H363V158Q363 120 401 117L496 112V40Z" />
<glyph unicode="&#xee;" glyph-name="icircumflex" horiz-adv-x="559" d="M580 1055H470L278 1238L88 1055H-23L210 1367H348L580 1055ZM497 40H64V112L154 117Q193 120 193 158V816H66V879L291 949H364V158Q364 120 402 117L497 112V40Z" />
<glyph unicode="&#xef;" glyph-name="idieresis" horiz-adv-x="559" d="M496 40H63V112L153 117Q192 119 192 158V816H65V879L290 949H363V158Q363 118 401 117L496 112V40ZM569 1222Q569 1182 540 1150T467 1118Q423 1118 396 1150T368 1222Q368 1261 398 1291T467
1322Q511 1322 540 1292T569 1222ZM186 1222Q186 1181 156 1150T84 1118Q42 1118 15 1149T-13 1220Q-13 1261 16 1291T86 1322Q128 1322 157 1293T186 1222Z" />
<glyph unicode="&#xf0;" glyph-name="eth" horiz-adv-x="994" d="M931 539Q931 397 881 279T735 89T498 18Q364 18 266 80T116 249T63 490Q63 622 119 726T276 890T508 950Q551 950 632 925Q625 938 605 967T561 1029T518 1090T490 1124L256 984L216 1057L427
1185L363 1259L208 1278V1331L435 1398L568 1262L769 1382L811 1308L623 1194Q931 841 931 539ZM752 503Q752 716 680 833Q593 869 540 869Q438 869 376 817T284 677T255 488Q255 396 278 307T356 160T503 101Q597 101 651 162T728 316T752 503Z" />
<glyph unicode="&#xf1;" glyph-name="ntilde" horiz-adv-x="1064" d="M846 1321Q795 1118 632 1118Q589 1118 552 1140T474 1184T378 1206Q341 1206 313 1180T280 1118H206Q257 1321 420 1321Q463 1321 501 1299T582 1255T677 1232Q714 1232 741 1259T772 1321H846ZM1008
40H601V112L679 117Q717 120 717 158V637Q717 817 540 817Q445 817 337 763V158Q337 120 376 117L454 112V40H37V112L128 117Q166 120 166 158V798H37V859L262 928H337V836Q537 950 642 950Q888 950 888 667V158Q888 120 927 117L1008 112V40Z" />
<glyph unicode="&#xf2;" glyph-name="ograve" horiz-adv-x="1003" d="M608 1055H503L223 1234Q181 1261 181 1308Q181 1391 265 1391Q321 1391 362 1341L608 1055ZM940 483Q940 349 886 244T732 79T499 18Q365 18 267 78T116 243T63 483Q63 617 117 722T271 889T506
950Q641 950 738 890T887 724T940 483ZM749 485Q749 575 725 663T647 809T504 867Q413 867 359 810T280 664T256 485Q256 395 280 307T359 160T501 101Q592 101 646 159T724 306T749 485Z" />
<glyph unicode="&#xf3;" glyph-name="oacute" horiz-adv-x="1003" d="M833 1308Q833 1261 791 1234L510 1055H406L651 1341Q692 1391 749 1391Q833 1391 833 1308ZM940 483Q940 349 886 244T732 79T499 18Q365 18 267 78T116 243T63 483Q63 617 117 722T271 889T506
950Q641 950 738 890T887 724T940 483ZM749 485Q749 575 725 663T647 809T504 867Q413 867 359 810T280 664T256 485Q256 395 280 307T359 160T501 101Q592 101 646 159T724 306T749 485Z" />
<glyph unicode="&#xf4;" glyph-name="ocircumflex" horiz-adv-x="1003" d="M804 1055H693L503 1238L311 1055H201L433 1367H571L804 1055ZM940 483Q940 349 886 244T732 79T499 18Q365 18 267 78T116 243T63 483Q63 617 117 722T271 889T506 950Q641 950 738 890T887
724T940 483ZM749 485Q749 575 725 663T647 809T504 867Q413 867 359 810T280 664T256 485Q256 395 280 307T359 160T501 101Q592 101 646 159T724 306T749 485Z" />
<glyph unicode="&#xf5;" glyph-name="otilde" horiz-adv-x="1003" d="M832 1321Q779 1118 617 1118Q574 1118 538 1140T460 1184T364 1206Q324 1206 297 1178T265 1118H192Q243 1321 406 1321Q451 1321 487 1299T565 1255T661 1232Q700 1232 727 1260T758 1321H832ZM940
483Q940 349 886 244T732 79T499 18Q365 18 267 78T116 243T63 483Q63 617 117 722T271 889T506 950Q641 950 738 890T887 724T940 483ZM749 485Q749 575 725 663T647 809T504 867Q413 867 359 810T280 664T256 485Q256 395 280 307T359 160T501 101Q592 101 646
159T724 306T749 485Z" />
<glyph unicode="&#xf6;" glyph-name="odieresis" horiz-adv-x="1003" d="M940 483Q940 349 886 244T732 79T499 18Q365 18 267 78T116 243T63 483Q63 617 117 722T271 889T506 950Q641 950 738 890T887 724T940 483ZM749 485Q749 575 725 663T647 809T504 867Q413
867 359 810T280 664T256 485Q256 395 280 307T359 160T501 101Q592 101 646 159T724 306T749 485ZM799 1222Q799 1182 770 1150T697 1118Q653 1118 626 1150T598 1222Q598 1261 628 1291T697 1322Q741 1322 770 1292T799 1222ZM416 1222Q416 1181 386 1150T314
1118Q272 1118 245 1149T217 1220Q217 1261 246 1291T316 1322Q358 1322 387 1293T416 1222Z" />
<glyph unicode="&#xf7;" glyph-name="divide" horiz-adv-x="1535" d="M879 910Q879 863 848 832T769 800Q722 800 689 831T656 910Q656 959 689 990T769 1021Q815 1021 847 989T879 910ZM1307 538H229V643H1307V538ZM879 270Q879 224 847 193T769 161Q723 161
690 193T656 270Q656 319 689 351T769 383Q815 383 847 350T879 270Z" />
<glyph unicode="&#xf8;" glyph-name="oslash" horiz-adv-x="1003" d="M940 483Q940 349 886 244T732 79T499 18Q385 18 290 67L188 -111L123 -73L227 107Q63 238 63 483Q63 617 117 722T271 889T506 950Q606 950 688 914L779 1074L846 1037L754 877Q940 748 940
483ZM634 819Q579 867 504 867Q413 867 359 810T280 664T256 485Q256 414 268 354T304 242L634 819ZM749 485Q749 648 685 756L350 171Q412 101 501 101Q592 101 646 159T724 306T749 485Z" />
<glyph unicode="&#xf9;" glyph-name="ugrave" horiz-adv-x="1048" d="M656 1055H551L271 1234Q229 1261 229 1308Q229 1391 313 1391Q370 1391 411 1341L656 1055ZM1010 40H719V145Q551 18 422 18Q167 18 167 316V816H39V879L265 950H341V351Q341 143 517 143Q610
143 719 198V816H589V879L814 950H888V158Q888 120 929 117L1010 112V40Z" />
<glyph unicode="&#xfa;" glyph-name="uacute" horiz-adv-x="1048" d="M848 1308Q848 1260 807 1234L527 1055H422L667 1341Q711 1391 765 1391Q848 1391 848 1308ZM1010 40H719V145Q551 18 422 18Q167 18 167 316V816H39V879L265 950H341V351Q341 143 517 143Q610
143 719 198V816H589V879L814 950H888V158Q888 120 929 117L1010 112V40Z" />
<glyph unicode="&#xfb;" glyph-name="ucircumflex" horiz-adv-x="1048" d="M827 1055H716L526 1238L335 1055H224L456 1367H595L827 1055ZM1010 40H719V145Q551 18 422 18Q167 18 167 316V816H39V879L265 950H341V351Q341 143 517 143Q610 143 719 198V816H589V879L814
950H888V158Q888 120 929 117L1010 112V40Z" />
<glyph unicode="&#xfc;" glyph-name="udieresis" horiz-adv-x="1048" d="M1010 40H719V145Q551 18 422 18Q167 18 167 316V816H39V879L265 950H341V351Q341 143 517 143Q610 143 719 198V816H589V879L814 950H888V158Q888 120 929 117L1010 112V40ZM815 1222Q815
1182 786 1150T713 1118Q669 1118 642 1150T614 1222Q614 1261 644 1291T713 1322Q757 1322 786 1292T815 1222ZM432 1222Q432 1181 402 1150T330 1118Q288 1118 261 1149T233 1220Q233 1261 262 1291T332 1322Q374 1322 403 1293T432 1222Z" />
<glyph unicode="&#xfd;" glyph-name="yacute" horiz-adv-x="976" d="M813 1308Q813 1263 769 1234L490 1055H385L630 1341Q672 1391 728 1391Q813 1391 813 1308ZM958 856L862 845L508 -17Q420 -233 341 -312Q270 -383 181 -383Q119 -383 81 -351Q46 -321 46 -277Q46
-216 105 -166L278 -245Q363 -161 433 42L120 845L18 856V928H426V856L337 851Q308 849 308 821Q308 814 310 810L524 267L742 810Q748 823 740 836Q733 849 717 851L630 856V928H958V856Z" />
<glyph unicode="&#xfe;" glyph-name="thorn" horiz-adv-x="1030" d="M967 497Q967 280 844 149T501 18Q444 18 337 35V-241Q337 -277 378 -280L487 -289V-361H40V-289L128 -280Q166 -276 166 -241V1268H40V1329L265 1398H337V836Q483 950 616 950Q729 950 807
885T926 717T967 497ZM783 472Q783 562 756 642T673 772T526 822Q441 822 337 766V133Q418 103 487 103Q587 103 652 154T750 289T783 472Z" />
<glyph unicode="&#xff;" glyph-name="ydieresis" horiz-adv-x="976" d="M958 856L862 845L508 -17Q420 -233 341 -312Q270 -383 181 -383Q119 -383 81 -351Q46 -321 46 -277Q46 -216 105 -166L278 -245Q363 -161 433 42L120 845L18 856V928H426V856L337 851Q308
849 308 821Q308 814 310 810L524 267L742 810Q748 823 740 836Q733 849 717 851L630 856V928H958V856ZM809 1222Q809 1182 780 1150T707 1118Q663 1118 636 1150T608 1222Q608 1261 638 1291T707 1322Q751 1322 780 1292T809 1222ZM426 1222Q426 1181 396 1150T324
1118Q282 1118 255 1149T227 1220Q227 1261 256 1291T326 1322Q368 1322 397 1293T426 1222Z" />
<glyph unicode="&#x2013;" glyph-name="endash" horiz-adv-x="922" d="M922 547V420H0V547H922Z" />
<glyph unicode="&#x2014;" glyph-name="emdash" horiz-adv-x="1843" d="M1843 547V420H0V547H1843Z" />
<glyph unicode="&#x2018;" glyph-name="quoteleft" horiz-adv-x="592" d="M297 1492L373 1478Q338 1441 298 1394T231 1290T203 1166Q203 1157 203 1146T205 1127H334Q365 1098 365 1046Q365 994 332 958T242 921Q163 921 118 971T72 1111Q72 1185 98 1247T163
1357T238 1440T297 1492Z" />
<glyph unicode="&#x2019;" glyph-name="quoteright" horiz-adv-x="592" d="M520 1302Q520 1228 494 1166T430 1056T355 973T295 921L219 937Q288 1005 338 1081T389 1248Q389 1256 388 1267T387 1285H258Q248 1296 238 1319T227 1367Q227 1420 259 1456T350 1492Q427
1492 473 1442T520 1302Z" />
<glyph unicode="&#x201a;" glyph-name="quotesinglbase" horiz-adv-x="455" d="M383 75Q383 -35 322 -116T181 -268L112 -253Q265 -106 265 26Q265 31 265 44T264 60H148Q121 93 121 134Q121 184 150 215T230 246Q305 246 344 198T383 75Z" />
<glyph unicode="&#x201c;" glyph-name="quotedblleft" horiz-adv-x="1014" d="M795 1478Q722 1405 674 1335T625 1168Q625 1159 625 1152T627 1127H756Q787 1090 787 1048Q787 997 754 959T664 921Q581 921 538 975T494 1115Q494 1236 560 1323T719 1492L795 1478ZM373
1478Q203 1308 203 1166Q203 1159 203 1151T205 1127H334Q365 1095 365 1046Q365 998 333 960T242 921Q160 921 116 974T72 1111Q72 1232 139 1322T297 1492L373 1478Z" />
<glyph unicode="&#x201d;" glyph-name="quotedblright" horiz-adv-x="1014" d="M942 1302Q942 1202 899 1125T803 996T717 921L641 937Q703 999 758 1076T813 1248Q813 1259 811 1268T809 1285H680Q670 1296 660 1318T649 1369Q649 1422 683 1457T772 1492Q850
1492 896 1441T942 1302ZM520 1300Q520 1226 495 1165T431 1055T356 973T295 921L219 937Q253 971 292 1018T360 1123T389 1244Q389 1255 388 1266T387 1285H258Q248 1297 238 1319T227 1367Q227 1420 262 1456T352 1492Q432 1492 476 1440T520 1300Z" />
<glyph unicode="&#x201e;" glyph-name="quotedblbase" horiz-adv-x="835" d="M763 75Q763 -35 702 -116T561 -268L492 -253Q647 -99 647 26Q647 31 646 43T643 60H527Q499 91 499 135Q499 185 530 215T610 246Q685 246 724 198T763 75ZM383 73Q383 -38 321 -118T181
-268L112 -253Q170 -195 217 -130T265 23Q265 26 265 42T264 60H148Q121 96 121 134Q121 183 152 214T233 246Q310 246 346 197T383 73Z" />
<glyph unicode="&#x2022;" glyph-name="bullet" horiz-adv-x="686" d="M596 713Q596 643 563 586T472 496T343 462Q237 462 164 534T90 713Q90 783 124 840T215 931T343 965Q411 965 468 932T561 843T596 713Z" />
<glyph unicode="&#x2039;" glyph-name="guilsinglleft" horiz-adv-x="450" d="M376 158L70 409V556L376 809V680L162 483L376 287V158Z" />
<glyph unicode="&#x203a;" glyph-name="guilsinglright" horiz-adv-x="450" d="M380 409L74 158V287L285 483L74 680V809L380 556V409Z" />
</font>
</defs>
</svg>
