<?xml version="1.0" standalone="no"?>
<!DOCTYPE svg PUBLIC "-//W3C//DTD SVG 1.1//EN" "http://www.w3.org/Graphics/SVG/1.1/DTD/svg11.dtd">
<svg xmlns="http://www.w3.org/2000/svg">
<defs >
<font id="MoiraiOne" horiz-adv-x="933" ><font-face
    font-family="Moirai One"
    units-per-em="1000"
    panose-1="0 0 0 0 0 0 0 0 0 0"
    ascent="1160"
    descent="-288"
    alphabetic="0" />
<glyph unicode=" " glyph-name="space" horiz-adv-x="250" />
<glyph unicode="!" glyph-name="exclam" horiz-adv-x="250" d="M124 -33Q84 -33 56 -5T27 64Q27 104 53 132T118 162V736Q118 742 124 742Q130 742 130 736V155Q130 150 124 150Q88 150 64 125T39 64Q39 28 63 4T124 -21Q160 -21 185 3T210 64Q210 89 200 106T172
131Q169 133 169 136Q169 140 172 141T178 141Q197 132 209 112T222 64Q222 24 194 -4T124 -33Z" />
<glyph unicode="&quot;" glyph-name="quotedbl" horiz-adv-x="151" d="M115 574Q109 574 109 580L110 742Q110 748 116 748Q122 748 122 742L121 580Q121 574 115 574ZM35 574Q29 574 29 580L30 742Q30 748 36 748Q42 748 42 742L41 580Q41 574 35 574Z" />
<glyph unicode="#" glyph-name="numbersign" horiz-adv-x="736" d="M134 -28Q126 -28 128 -20L180 178H35Q29 178 29 184Q29 190 35 190H183L262 488H115Q109 488 109 494Q109 500 115 500H265L324 723Q326 727 330 727Q338 727 336 719L278 500H555L614 723Q616
727 620 727Q628 727 626 719L568 500H700Q706 500 706 494Q706 488 700 488H565L486 190H620Q626 190 626 184Q626 178 620 178H483L430 -24Q429 -28 424 -28Q416 -28 418 -20L470 178H193L140 -24Q138 -28 134 -28ZM275 488L196 190H473L552 488H275Z" />
<glyph unicode="$" glyph-name="dollar" horiz-adv-x="747" d="M463 0Q457 0 457 6Q457 12 463 12Q532 12 584 43T665 125T695 240Q695 305 666 357T587 441T471 472Q465 472 465 478Q465 484 471 484Q533 484 581 457Q619 476 639 511T660 590Q660 638 635 678T568
742T470 766H379Q373 766 373 772V854Q373 860 379 860Q385 860 385 854V778H470Q528 778 573 752T645 684T672 590Q672 545 652 508T594 450Q646 418 676 363T707 240Q707 174 676 120T590 33T463 0ZM54 530Q54 599 83 655T164 744T281 778Q287 778 287 772Q287
766 281 766Q219 766 170 735T94 650T66 530Q66 468 96 417T178 335T293 304Q299 304 299 298Q299 292 293 292Q227 292 173 324T86 410T54 530ZM40 230Q40 236 46 236Q52 236 52 230Q52 167 84 118T173 41T304 12H369Q375 12 375 6V-92Q375 -98 369 -98Q363 -98
363 -92V0H304Q227 0 168 30T74 112T40 230Z" />
<glyph unicode="%" glyph-name="percent" horiz-adv-x="731" d="M176 374Q135 374 99 394T42 450T20 535V654Q20 703 41 739T99 795T176 815Q218 815 253 795T310 739T332 654V535Q332 486 311 450T254 394T176 374ZM32 535Q32 489 52 456T104 404T176 386Q215
386 248 404T300 455T320 535V654Q320 700 301 733T248 785T176 803Q137 803 105 785T52 734T32 654V535ZM60 -1Q56 -1 55 2T56 9L687 712Q689 714 691 714Q695 714 697 711T696 704L65 1Q63 -1 60 -1Z" />
<glyph unicode="&amp;" glyph-name="ampersand" horiz-adv-x="742" d="M320 -10Q238 -10 173 26T71 124T34 265Q34 317 52 362T100 443T166 499Q132 525 121 556T110 616Q110 667 134 706T201 767T302 789Q391 789 442 748T493 643Q493 603 468 572T395 540Q364
540 341 552T305 583Q304 586 305 589T310 593Q314 593 315 590Q337 552 395 552Q437 552 459 579T481 643Q481 702 433 739T302 777Q248 777 208 756T145 699T122 616Q122 589 132 560T177 506Q187 511 195 515T213 522Q220 524 220 516Q220 512 218 511Q174 497
135 462T71 376T46 265Q46 191 81 131T178 37T320 2Q382 2 425 27T510 96Q513 99 516 99Q520 99 521 95T519 88Q513 82 507 76T493 62L536 24Q559 3 587 3T635 23L691 81Q711 102 711 130T687 181L614 251L612 243Q611 238 610 233T606 224Q605 220 600 220Q592
220 594 227Q599 244 602 259T606 291Q606 323 595 351T563 401Q541 428 507 444T435 460T360 440Q306 409 289 359T288 262Q290 255 282 255Q277 255 276 260Q260 311 278 364T354 450Q393 473 434 473T512 455T572 409Q592 385 605 355T618 291Q618 284 618 278T616
266L695 190Q722 165 722 132T700 74L644 15Q621 -9 588 -9T529 14L483 55Q464 36 423 13T320 -10Z" />
<glyph unicode="&apos;" glyph-name="quotesingle" horiz-adv-x="71" d="M35 574Q29 574 29 580L30 742Q30 748 36 748Q42 748 42 742L41 580Q41 574 35 574Z" />
<glyph unicode="(" glyph-name="parenleft" horiz-adv-x="181" d="M144 -107Q108 -78 85 -42T48 46T30 167T25 335V355Q25 484 34 568T69 706T144 797Q147 799 150 798T154 792Q154 789 152 787Q105 752 80 700T46 566T37 355V335Q37 239 42 170T59 50T94 -35T152
-97Q154 -99 154 -102Q154 -106 151 -107T144 -107Z" />
<glyph unicode=")" glyph-name="parenright" horiz-adv-x="181" d="M35 -107Q32 -109 29 -108T25 -102Q25 -99 27 -97Q62 -70 84 -35T119 50T137 169T142 335V355Q142 483 133 565T100 700T27 787Q25 789 25 792Q25 796 28 797T35 797Q84 760 109 706T144 568T154
355V335Q154 238 149 168T131 46T95 -41T35 -107Z" />
<glyph unicode="*" glyph-name="asterisk" horiz-adv-x="325" d="M162 474Q156 474 156 480V616L39 548Q36 546 33 547T30 553Q30 557 33 558L151 627L33 695Q30 697 30 700Q30 704 33 705T39 705L156 637V773Q156 779 162 779Q168 779 168 773V636L286 705Q289
707 292 706T295 700Q295 697 292 695L174 627L292 558Q295 557 295 553Q295 549 292 548T286 548L168 617V480Q168 474 162 474Z" />
<glyph unicode="+" glyph-name="plus" horiz-adv-x="550" d="M275 126Q269 126 269 132V369H32Q26 369 26 375Q26 381 32 381H269V618Q269 624 275 624Q281 624 281 618V381H518Q524 381 524 375Q524 369 518 369H281V132Q281 126 275 126Z" />
<glyph unicode="," glyph-name="comma" horiz-adv-x="255" d="M111 -161Q104 -163 104 -155Q104 -151 109 -149Q217 -128 217 7Q217 146 120 146Q85 146 62 123T38 64Q38 26 61 4T120 -19Q126 -19 126 -25Q126 -31 120 -31Q81 -31 54 -5T26 64Q26 104 53 131T120
158Q229 158 229 7Q229 -135 111 -161Z" />
<glyph unicode="-" glyph-name="hyphen" horiz-adv-x="292" d="M36 274Q30 274 30 280Q30 286 36 286H255Q262 286 262 280Q262 274 255 274H36Z" />
<glyph unicode="." glyph-name="period" horiz-adv-x="261" d="M128 -43Q85 -43 56 -13T26 59Q26 101 56 131T128 161Q170 161 200 131T230 59Q230 16 200 -13T128 -43ZM38 59Q38 22 64 -4T128 -31Q166 -31 192 -5T218 59Q218 97 192 123T128 149Q91 149 65 123T38 59Z" />
<glyph unicode="/" glyph-name="slash" horiz-adv-x="372" d="M35 -103Q31 -103 30 -100T29 -95L331 738Q333 742 337 742Q341 742 342 739T343 734L41 -99Q39 -103 35 -103Z" />
<glyph unicode="0" glyph-name="zero" horiz-adv-x="610" d="M305 -10Q231 -10 169 22T68 117T30 265V504Q30 590 68 654T168 753T305 789Q379 789 441 754T542 655T580 504V265Q580 179 542 117T442 23T305 -10ZM42 265Q42 185 77 126T172 34T305 2Q379 2 438
34T533 125T568 265V504Q568 585 533 646T439 742T305 777Q232 777 173 743T78 647T42 504V265Z" />
<glyph unicode="1" glyph-name="one" horiz-adv-x="457" d="M252 0Q212 0 185 27T158 94V357Q158 363 164 363Q170 363 170 357V94Q170 59 194 36T252 12H327Q362 12 386 35T410 94V633Q410 697 377 734T287 771H264Q215 771 179 753T105 694L67 651Q30 609 27
559T63 469Q83 450 107 440T157 430Q212 430 251 469Q253 471 256 471Q260 471 261 468T259 460Q215 418 157 418Q97 418 54 461Q11 504 15 559T58 659L95 701Q134 745 173 764T264 783H287Q349 783 385 742T422 633V94Q422 54 395 27T327 0H252Z" />
<glyph unicode="2" glyph-name="two" horiz-adv-x="597" d="M126 0Q101 0 78 12T40 47T25 101V162Q25 197 36 223T67 271L227 438Q187 421 141 427T61 467Q28 502 22 544T37 634Q53 668 84 704T166 764T296 789Q372 789 432 759T529 674T565 547Q565 495 545 448T471
348Q467 344 463 347Q462 348 461 351T463 357Q513 407 533 452T553 547Q553 615 519 666T427 747T296 777Q221 777 172 754T93 697T48 629Q6 541 70 475Q96 449 131 441T201 441T259 473L276 490Q278 492 281 492Q285 492 286 489T285 482L76 263Q58 244 48 220T37
162V101Q37 61 64 37T126 12H483Q517 12 541 34T565 91V150Q565 206 528 237T434 269Q402 269 378 255T334 223Q331 221 328 222T324 227Q324 230 326 232Q348 252 374 266T434 281Q496 281 536 246T577 150V91Q577 54 550 27T483 0H126Z" />
<glyph unicode="3" glyph-name="three" horiz-adv-x="599" d="M309 -10Q231 -10 169 17T70 92T33 203Q33 235 44 258T76 303Q104 330 142 336T208 335Q198 346 192 357T185 383Q185 400 193 412T211 435L282 510Q284 512 287 512Q291 512 292 509T291 502L220
427Q211 418 204 408T197 383Q197 365 210 350T246 320L321 270Q325 268 325 264Q325 261 322 260T314 261L239 310Q221 322 193 326T136 323T84 294Q65 275 55 253T45 203Q45 145 79 100T174 28T309 2Q376 2 425 22T505 75T552 150T567 232Q567 293 539 345T449
431Q439 436 447 444L522 528Q539 548 549 572T560 625Q560 665 541 697T488 747T409 766H172Q133 766 101 747T51 696T32 623Q32 564 72 529T172 494Q179 494 179 488T172 482Q130 482 96 500T41 549T20 623Q20 667 40 702T95 757T172 778H409Q458 778 494 758T551
703T572 625Q572 594 561 567T530 519L459 439Q522 404 550 349T579 232Q579 189 563 146T514 68T430 11T309 -10Z" />
<glyph unicode="4" glyph-name="four" horiz-adv-x="650" d="M363 0Q326 0 301 25T276 87V155H116Q82 155 52 180T22 248V338Q22 369 26 389T50 442L198 701Q272 829 387 778Q412 767 433 744T460 689T445 622L435 605Q433 601 429 601Q425 601 424 604T424 610L434
627Q453 659 448 687T425 736T382 767Q276 813 208 694L60 435Q42 404 38 386T34 338V248Q34 211 60 189T116 167H280Q288 167 288 159V87Q288 55 309 34T363 12H440Q472 12 494 33T516 87V159Q516 167 524 167H551Q582 167 602 185T623 237V298Q623 334 610 348T581
366T552 369H523Q516 369 516 376V468Q516 504 492 528T432 553H372Q337 553 313 529T288 468V354Q288 348 282 348Q276 348 276 354V468Q276 509 303 537T372 565H432Q473 565 500 537T528 468V381H552Q565 381 584 377T619 356T635 298V237Q635 200 612 178T551
155H528V87Q528 50 503 25T440 0H363Z" />
<glyph unicode="5" glyph-name="five" horiz-adv-x="592" d="M298 -10Q215 -10 153 22T55 107T20 217Q20 269 51 313Q63 330 80 342T116 362Q81 362 58 386T34 456V687Q34 716 48 736T83 767T125 778H471Q505 778 528 755T552 697V601Q552 561 530 539T464 516H396Q466
489 504 448T557 357T572 257Q572 184 542 123T452 26T298 -10ZM32 218Q32 164 64 115T157 34T298 2Q388 2 446 36T532 129T560 257Q560 313 541 366T475 459T350 516H315Q309 516 309 522Q309 528 315 528H464Q540 528 540 601V697Q540 726 520 746T471 766H125Q96
766 71 745T46 687V456Q46 413 67 393T118 373H164Q185 373 205 365T243 346L319 298Q322 297 322 293Q322 289 318 288T311 289L235 337Q209 354 176 356T112 347T60 305Q32 264 32 218Z" />
<glyph unicode="6" glyph-name="six" horiz-adv-x="599" d="M304 -10Q256 -10 207 4T115 51T46 143T20 289V515Q20 574 42 624T105 711T196 768T306 789Q374 789 425 769T510 717T561 648Q583 602 578 558T538 479Q520 461 497 453Q534 425 556 377T579 261Q579
180 546 119T451 24T304 -10ZM32 289Q32 204 56 149T121 61T210 16T304 2Q386 2 445 34T535 124T567 261Q567 328 545 373T485 447Q451 440 417 449T354 482Q309 483 277 470T215 423Q213 421 210 421Q206 421 205 424T206 431Q235 463 266 478T340 494L338 496L315
518Q312 521 312 524Q312 528 315 529T323 527L347 504Q373 479 405 466T470 456T529 487Q593 553 550 644Q534 679 502 709T420 758T306 777Q231 777 169 743T70 650T32 515V289Z" />
<glyph unicode="7" glyph-name="seven" horiz-adv-x="614" d="M269 0Q229 0 203 27T176 93Q176 99 182 99Q188 99 188 93Q188 59 211 36T269 12H361Q399 12 422 31T446 93Q450 194 465 275T514 412Q533 444 552 478T572 556V677Q572 718 547 742T481 766H129Q89
766 66 741T42 668V512Q42 476 55 460T86 440T118 435H185Q239 435 266 459T293 535Q293 541 299 541Q305 541 305 535Q305 476 274 450T185 423H118Q103 423 82 428T46 452T30 512V668Q30 720 57 749T129 778H481Q526 778 555 751T584 677V556Q584 510 564 475T525
407Q493 353 478 274T458 93Q457 47 431 24T361 0H269Z" />
<glyph unicode="8" glyph-name="eight" horiz-adv-x="631" d="M326 -10Q242 -10 172 22T60 116T20 261Q20 314 40 361T96 446Q50 501 50 571Q50 639 86 688T183 763T313 790Q387 790 446 763T541 687T576 571Q576 502 537 449Q575 407 593 356T611 255Q611 166
571 107T466 19T326 -10ZM32 261Q31 180 70 122T177 33T326 2Q398 2 460 29T561 113T599 255Q599 310 579 359T524 445Q512 457 497 467T464 483Q459 486 460 490Q461 497 469 494Q486 489 502 479T528 457Q564 507 564 571Q564 634 531 680T441 752T313 778Q245
778 188 753T97 681T62 571Q62 504 108 449Q112 446 108 442Q72 406 52 360T32 261Z" />
<glyph unicode="9" glyph-name="nine" horiz-adv-x="602" d="M305 -10Q223 -10 163 13T70 90Q59 109 53 139T49 203T68 269Q70 272 73 272Q77 272 78 269T78 263Q63 234 61 202T64 142T80 96Q110 45 167 24T305 2Q396 2 453 33T538 122T565 255V500Q565 580 541
633T476 718T387 763T291 777Q218 777 159 746T66 657T32 525Q33 456 56 410T117 336T196 298T278 286Q318 286 352 294T409 319Q412 321 415 320T419 314Q419 311 417 309Q392 291 356 283T278 274Q238 274 194 286T110 326T46 403T20 525Q19 603 55 662T154 755T291
789Q340 789 390 775T482 728T551 640T577 500V255Q577 177 549 117T460 24T305 -10Z" />
<glyph unicode=":" glyph-name="colon" horiz-adv-x="259" d="M128 -43Q85 -43 56 -13T26 59Q26 101 56 131T128 161Q170 161 200 131T230 59Q230 16 200 -13T128 -43ZM38 59Q38 22 64 -4T128 -31Q166 -31 192 -5T218 59Q218 97 192 123T128 149Q91 149 65 123T38
59ZM128 213Q85 213 56 243T26 315Q26 357 56 387T128 417Q170 417 200 387T230 315Q230 272 200 243T128 213ZM38 315Q38 278 64 252T128 225Q166 225 192 251T218 315Q218 353 192 379T128 405Q91 405 65 379T38 315Z" />
<glyph unicode=";" glyph-name="semicolon" horiz-adv-x="257" d="M111 -161Q104 -163 104 -155Q104 -151 109 -149Q217 -128 217 7Q217 146 120 146Q85 146 62 123T38 64Q38 26 61 4T120 -19Q126 -19 126 -25Q126 -31 120 -31Q81 -31 54 -5T26 64Q26 104 53 131T120
158Q229 158 229 7Q229 -135 111 -161ZM128 213Q85 213 56 243T26 315Q26 357 56 387T128 417Q170 417 200 387T230 315Q230 272 200 243T128 213ZM38 315Q38 278 64 252T128 225Q166 225 192 251T218 315Q218 353 192 379T128 405Q91 405 65 379T38 315Z" />
<glyph unicode="&lt;" glyph-name="less" horiz-adv-x="550" d="M470 169Q470 165 467 164T461 164L67 412Q64 414 64 417Q64 421 67 422L461 658Q464 660 467 659T470 653Q470 650 467 648L81 417L467 174Q470 173 470 169Z" />
<glyph unicode="=" glyph-name="equal" horiz-adv-x="550" d="M32 549Q26 549 26 555Q26 561 32 561H518Q524 561 524 555Q524 549 518 549H32ZM26 255Q26 261 32 261H518Q524 261 524 255Q524 249 518 249H32Q26 249 26 255Z" />
<glyph unicode="&gt;" glyph-name="greater" horiz-adv-x="550" d="M89 164Q86 162 83 163T80 169Q80 173 83 174L469 417L83 648Q80 650 80 653Q80 657 83 658T89 658L483 422Q486 421 486 417Q486 414 483 412L89 164Z" />
<glyph unicode="?" glyph-name="question" horiz-adv-x="512" d="M269 -49Q224 -49 192 -18T160 57Q160 96 181 130T237 199T314 276Q350 313 387 350T451 433T480 541Q482 607 453 657T373 734T254 762Q192 762 142 735T62 660T32 553Q32 499 63 466T140 433Q186
433 217 464T248 541Q248 547 254 547Q260 547 260 541Q260 507 244 480T200 437T140 421Q108 421 81 438T37 484T20 553Q20 616 51 666T136 745T254 774Q323 774 377 745T463 663T492 541Q490 476 463 428T397 342T322 268Q281 226 247 192T192 126T172 57Q172
17 200 -10T269 -37Q310 -37 336 -10T363 57Q363 86 346 108T301 140Q297 142 297 146Q297 150 300 151T305 152Q336 141 355 115T375 57Q375 12 344 -18T269 -49Z" />
<glyph unicode="@" glyph-name="at" horiz-adv-x="970" d="M437 -7Q345 -1 274 33T154 123T83 249T66 396Q73 481 107 553T198 678T333 760T502 789Q594 789 670 760T800 677T882 553T902 396Q897 336 871 285T793 203T659 172H613Q587 172 559 187T519 228Q506
201 473 185T393 168Q347 169 307 193T246 266T231 384L232 394Q239 458 267 501T338 566T424 588Q461 588 494 572T547 528Q555 551 575 567T624 584H673Q714 584 733 556T746 480L725 340Q725 335 719 335Q713 335 713 342L734 482Q741 525 725 548T673 572H624Q596
572 578 555T555 512Q562 497 562 476Q562 470 556 470Q550 470 550 476Q550 507 532 529T485 563T424 576Q382 576 343 556T277 495T244 392L243 382Q237 316 256 271T312 204T393 180Q445 180 476 200T515 251Q517 256 521 256Q527 256 527 250Q527 231 540 216T574
193T613 184H659Q737 184 786 213T860 290T890 396Q897 479 871 548T793 669T666 749T502 777Q382 777 290 728T143 593T78 396Q72 321 93 253T162 131T278 44T437 5Q517 0 581 13T690 58Q693 60 696 59T700 53Q700 50 698 48Q651 14 584 1T437 -7Z" />
<glyph unicode="A" glyph-name="A" horiz-adv-x="759" d="M574 -10Q537 -9 503 11T448 81L411 171H348Q343 171 343 177Q343 183 348 183H416Q419 183 421 179L459 85Q477 40 508 22T574 2Q609 3 642 14T698 51T722 115Q723 145 716 168T701 209L522 670Q504 717
469 742T384 768Q330 768 295 743T241 670L45 169Q33 138 38 107T62 52T111 16L143 4Q149 2 147 -4Q145 -9 138 -7L106 5Q73 18 53 45T27 106T34 173L230 674Q250 725 288 752T384 780Q436 779 475 752T533 674L712 213Q719 196 727 171T734 115Q733 72 709 44T648
3T574 -10Z" />
<glyph unicode="B" glyph-name="B" horiz-adv-x="755" d="M150 1Q104 1 72 29T40 110V659Q40 713 70 745T153 778H200Q248 778 279 749T313 675Q341 731 387 757T506 784H521Q713 784 713 597Q713 553 701 517T671 464Q667 460 664 462T660 467Q660 470 662 472Q679
489 690 521T701 597Q701 772 521 772H506Q431 772 385 743T312 642Q311 639 307 639Q302 639 302 644V659Q302 708 274 737T200 766H153Q106 766 79 737T52 659V110Q52 63 80 38T150 13H496Q563 13 614 38T695 111T724 226Q724 279 705 320T655 388T588 424Q583
425 583 430Q583 437 591 435Q630 426 663 397T716 325T736 226Q736 156 705 106T620 28T496 1H150Z" />
<glyph unicode="C" glyph-name="C" horiz-adv-x="812" d="M422 -10Q343 -10 273 15T148 89T62 209T30 370Q30 469 61 546T147 678T271 761T416 789Q481 789 543 774T656 728T740 646T781 526Q786 486 772 452T727 396T652 375H644Q600 375 568 392T518 436T501
492Q501 498 507 498Q513 498 513 492Q513 466 528 442T573 403T644 387H652Q692 387 719 406T759 456T769 524Q761 592 730 640T649 718T540 762T416 777Q343 777 276 750T156 670T73 542T42 370Q42 282 72 214T155 98T276 27T422 2Q519 2 586 28T694 100T756
203Q758 208 762 208Q771 208 767 199Q747 140 704 93T591 18T422 -10Z" />
<glyph unicode="D" glyph-name="D" horiz-adv-x="796" d="M149 0Q103 0 72 32T40 108V670Q40 720 69 749T149 778H211Q249 778 274 759T310 708Q321 745 349 764T419 783H429Q505 783 565 759T672 688Q717 644 741 581T766 424V377Q766 269 741 203T671 92Q626
48 562 24T396 0H149ZM52 108Q52 68 80 40T149 12H396Q494 12 557 35T663 101Q707 144 730 207T754 377V424Q754 516 731 576T663 680Q618 725 561 748T429 771H420Q373 771 345 744T316 667Q316 661 310 661Q304 661 304 667Q304 711 280 738T211 766H149Q103
766 78 741T52 670V108Z" />
<glyph unicode="E" glyph-name="E" horiz-adv-x="700" d="M130 0Q93 0 67 28T40 97V681Q40 722 66 750T130 778H221Q251 778 275 759T307 710Q320 745 349 761T413 778H551Q594 778 623 748T652 676V612Q652 570 624 541T551 511H339Q333 511 333 517Q333 523
339 523H551Q589 523 614 548T640 612V676Q640 714 615 740T551 766H413Q372 766 342 742T312 664Q312 658 306 658Q300 658 300 664V678Q300 713 278 739T221 766H130Q97 766 75 741T52 681V97Q52 61 74 37T130 12H532Q581 12 614 45T648 127Q648 133 654 133Q660
133 660 127Q660 92 643 63T597 17T532 0H130ZM333 280Q333 286 339 286H457Q498 286 525 309T554 373Q554 379 560 379Q566 379 566 373Q565 328 534 301T457 274H339Q333 274 333 280Z" />
<glyph unicode="F" glyph-name="F" horiz-adv-x="648" d="M135 0Q92 0 66 30T40 104V674Q40 717 70 747T145 778H519Q563 778 593 748T623 674V623Q623 580 593 549T519 518H306Q300 518 300 524Q300 530 306 530H519Q557 530 584 557T611 623V674Q611 712 584
739T519 766H145Q107 766 80 739T52 674V104Q52 66 74 39T135 12H220Q258 12 280 39T302 104Q302 110 308 110Q314 110 314 104Q314 61 289 31T220 0H135ZM300 311Q300 317 306 317H455Q493 317 521 339T549 400Q549 406 555 406Q561 406 561 400Q561 356 530 331T455
305H306Q300 305 300 311Z" />
<glyph unicode="G" glyph-name="G" horiz-adv-x="821" d="M350 -10Q261 -10 188 34T73 159T30 355V395Q30 486 59 559T139 683T259 762T406 789Q488 789 560 765T685 689T756 558Q758 551 751 551Q745 551 744 556Q725 633 676 681T557 753T406 777Q330 777 264
751T148 674T70 554T42 395V355Q42 244 83 165T194 44T350 2Q411 2 457 26T512 97Q512 103 518 103Q524 103 524 97Q524 58 546 36T603 13H689Q723 13 746 37T769 98V301Q769 336 746 361T689 386H485Q451 386 429 361T406 301Q406 295 400 295Q393 295 393 301Q393
340 420 369T485 398H689Q728 398 754 370T781 301V98Q781 57 755 29T689 1H603Q572 1 548 18T515 68Q497 31 451 11T350 -10Z" />
<glyph unicode="H" glyph-name="H" horiz-adv-x="747" d="M130 0Q92 0 66 27T40 96V681Q40 722 66 750T130 778H214Q253 778 279 750T306 681V538H441V681Q441 722 467 750T531 778H615Q655 778 681 750T707 681V96Q707 56 680 28T615 0H529Q492 0 466 27T440
96V266H384Q345 266 319 288T293 348Q293 354 299 354Q305 354 305 348Q305 315 327 297T384 278H444Q452 278 452 270V96Q452 60 474 36T529 12H615Q649 12 672 36T695 96V681Q695 716 672 741T615 766H531Q498 766 476 741T453 681V531Q453 526 447 526H299Q294
526 294 531V681Q294 716 271 741T214 766H130Q97 766 75 741T52 681V96Q52 60 74 36T130 12H216Q250 12 273 36T296 96V233Q296 239 302 239Q308 239 308 233V96Q308 55 282 28T216 0H130Z" />
<glyph unicode="I" glyph-name="I" horiz-adv-x="572" d="M162 0Q125 0 95 17T46 65T28 133V155Q28 191 45 221T92 269T157 288V497Q120 498 91 516T45 563T28 626V648Q28 685 45 714T92 760T158 778H410Q447 778 476 761T523 714T541 648V626Q541 592 525 563T479
516T410 497V328Q410 322 404 322Q398 322 398 328V503Q398 509 403 509Q458 509 493 543T529 626V648Q529 681 513 708T470 750T410 766H158Q109 766 75 732T40 648V626Q40 577 75 543T163 509Q169 509 169 503V282Q169 277 163 277Q129 277 101 261T57 217T40
155V133Q40 81 75 47T162 12H409Q461 12 496 46T532 133V145Q532 204 496 241T401 279Q388 279 374 274T346 257Q340 253 336 257Q332 261 337 266Q349 278 367 284T401 291Q443 291 475 272T525 220T544 145V133Q544 95 526 65T478 18T409 0H162Z" />
<glyph unicode="J" glyph-name="J" horiz-adv-x="591" d="M291 -10Q209 -10 151 18T61 97T30 211Q30 278 68 316T165 355Q222 355 258 321T294 231Q294 225 288 225Q282 225 282 231Q282 282 250 312T165 343Q112 343 77 308T42 211Q42 118 107 60T291 2Q408 2
473 64T539 241V674Q539 718 515 742T447 766H387Q343 766 319 742T294 674V551Q294 545 288 545Q282 545 282 551V674Q282 724 310 751T387 778H447Q497 778 524 751T551 674V241Q551 121 482 56T291 -10Z" />
<glyph unicode="K" glyph-name="K" horiz-adv-x="747" d="M130 0Q91 0 66 28T40 96V681Q40 722 66 750T130 778H214Q253 778 279 750T306 681V572Q318 611 346 654T404 725Q433 752 468 770T549 789Q615 789 653 756T691 667V589Q691 540 662 514T588 487Q582
487 582 493Q582 499 588 499Q626 499 652 521T679 589V667Q679 719 644 748T549 777Q506 777 473 760T411 715Q388 694 368 664T332 602T310 546L306 532Q305 526 300 526Q294 526 294 532V681Q294 716 271 741T214 766H130Q97 766 75 741T52 681V96Q52 60 74
36T130 12H216Q250 12 272 36T295 96Q295 102 301 102Q307 102 307 96Q307 54 281 27T216 0H130ZM403 97Q403 103 409 103Q415 103 415 97Q416 61 440 37T502 12H598Q642 12 668 37T695 107Q695 164 676 213T627 300T562 362T493 395Q487 397 489 403Q491 407 496
406Q530 399 567 374T635 309T687 218T707 107Q707 58 677 29T598 0H502Q460 0 432 28T403 97Z" />
<glyph unicode="L" glyph-name="L" horiz-adv-x="664" d="M130 0Q92 0 66 28T40 96V681Q40 722 65 750T130 778H214Q253 778 279 750T306 681V573Q306 567 300 567Q294 567 294 573V681Q294 716 271 741T214 766H130Q96 766 74 741T52 681V96Q52 60 74 36T130
12H502Q552 12 587 42T622 130V149Q622 206 586 242T492 278Q437 278 402 249T342 171Q340 166 335 168Q328 170 331 176Q357 226 395 258T492 290Q555 290 594 251T634 149V130Q634 67 596 34T502 0H130Z" />
<glyph unicode="M" glyph-name="M" horiz-adv-x="927" d="M303 78Q296 35 262 9T184 -11L124 -2Q74 6 47 42T26 127L104 647Q115 716 158 752T264 789Q306 789 349 767T419 691L466 596L511 697Q533 746 575 767T661 789Q718 789 765 753T822 645L900 127Q908
78 882 42T812 -1L752 -10Q703 -17 668 8T625 77L595 259Q595 264 598 265Q600 267 603 266T607 261L637 79Q643 41 673 18T750 2L811 11Q849 16 872 48T888 126L810 643Q803 690 780 719T726 763T661 777Q621 777 582 758T521 691L472 581Q471 578 466 578Q462
578 460 582L408 686Q383 737 344 757T264 777Q207 777 167 745T116 645L38 126Q31 81 55 49T125 10L186 1Q224 -4 254 19T291 79L327 306Q329 315 335 317Q342 319 347 312Q372 281 402 260T469 239Q505 239 534 261T583 311L617 356Q621 361 625 357Q629 353
626 348L593 305Q570 275 540 251T469 227Q429 227 398 248T339 303L303 78Z" />
<glyph unicode="N" glyph-name="N" horiz-adv-x="787" d="M131 0Q92 0 66 28T40 96V681Q40 720 65 749T131 778H215Q250 778 276 762T321 716L482 474V681Q482 722 508 750T572 778H656Q695 778 721 749T747 681V96Q747 56 721 28T656 0H570Q531 0 505 28T479
96Q479 102 485 102Q491 102 491 96Q491 60 513 36T570 12H656Q689 12 712 36T735 96V681Q735 716 712 741T656 766H572Q538 766 516 741T494 681V457Q494 453 489 452T482 454L311 710Q293 737 270 751T215 766H131Q97 766 75 741T52 681V96Q52 60 74 36T131 12H217Q250
12 273 36T296 96V213Q296 219 302 219Q308 219 308 213V96Q308 56 282 28T217 0H131Z" />
<glyph unicode="O" glyph-name="O" horiz-adv-x="835" d="M421 -10Q307 -10 219 40T80 182T30 401Q30 521 80 608T218 742T421 789Q509 789 579 760T700 677T778 554T805 401Q805 313 778 238T701 107T580 21T421 -10ZM42 401Q42 278 90 189T225 51T421 2Q535
2 618 54T747 196T793 401Q793 481 767 549T692 668T575 748T421 777Q311 777 225 732T91 602T42 401Z" />
<glyph unicode="P" glyph-name="P" horiz-adv-x="732" d="M130 0Q92 0 66 27T40 96V681Q40 722 66 750T130 778H214Q248 778 273 756T304 698Q321 740 366 764T471 789Q551 789 604 755T685 665T713 548Q713 486 688 434T614 352T492 321H322Q316 321 316 327Q316
333 322 333H492Q561 333 607 362T677 439T701 548Q701 607 675 659T598 744T471 777Q413 777 371 752T312 688Q305 673 305 653Q305 646 299 646Q293 646 293 653V681Q293 718 271 742T214 766H130Q97 766 75 741T52 681V96Q52 60 74 36T130 12H216Q250 12 273
36T296 96Q296 102 302 102Q308 102 308 96Q308 56 282 28T216 0H130Z" />
<glyph unicode="Q" glyph-name="Q" horiz-adv-x="836" d="M442 0Q318 0 226 47T82 183T30 398Q30 519 80 606T219 741T422 789Q509 789 579 760T700 678T778 554T805 400Q805 357 795 316T759 243Q779 230 792 210T806 163V95Q806 56 777 28T706 0H442ZM42 398Q42
277 92 191T232 58T442 12H706Q743 12 768 36T794 95V163Q794 187 781 206T748 235Q726 245 707 245H557Q520 245 495 222T470 163Q470 157 464 157Q458 157 458 163Q458 203 486 230T557 257H707Q718 257 728 255T748 248Q774 278 783 318T793 400Q793 480 768
549T693 669T576 748T422 777Q312 777 226 731T91 600T42 398Z" />
<glyph unicode="R" glyph-name="R" horiz-adv-x="746" d="M130 2Q93 2 67 29T40 98V683Q40 724 66 752T130 780H204Q248 780 274 755T305 697Q323 735 370 762T491 789Q571 789 620 757T692 676T715 575Q715 508 681 454T583 377Q622 357 654 322T707 234T727
109Q727 60 697 31T618 2H522Q480 2 452 30T424 99Q424 105 430 105Q436 105 436 99Q436 63 460 39T522 14H618Q662 14 688 39T715 109Q715 182 695 233T641 319T568 372Q535 362 492 362Q485 362 485 368Q485 374 491 374Q535 374 571 386Q636 407 669 458T703
575Q703 624 682 670T614 747T491 777Q425 777 381 754T317 695Q306 673 306 651Q306 645 300 645Q294 645 294 651V682Q294 718 270 743T204 768H130Q97 768 75 743T52 683V98Q52 62 74 38T130 14H216Q250 14 273 34T296 91Q296 97 302 97Q308 97 308 91Q308 51
282 27T216 2H130Z" />
<glyph unicode="S" glyph-name="S" horiz-adv-x="768" d="M304 0Q226 0 167 30T74 112T40 230Q40 236 46 236Q52 236 52 230Q52 166 84 117T173 40T304 12H483Q553 12 605 42T686 124T716 240Q716 311 685 366T602 452Q552 481 491 481Q485 481 485 487Q485 493
491 493Q522 493 550 486T604 464Q642 482 663 518T684 599Q684 644 659 682T591 743T493 766H281Q218 766 170 736T94 654T66 539Q66 471 96 420T178 341T293 313Q299 313 299 307Q299 301 293 301Q226 301 172 331T86 415T54 539Q54 606 83 660T164 746T281 778H493Q552
778 598 753T670 688T696 599Q696 554 675 516T615 457Q666 426 697 370T728 240Q728 174 698 120T612 33T483 0H304Z" />
<glyph unicode="T" glyph-name="T" horiz-adv-x="685" d="M313 0Q275 0 249 28T222 96V494H149Q95 494 62 522T28 605V660Q28 716 61 747T149 778H535Q591 778 624 747T657 660V605Q657 551 624 523T535 494H477Q471 494 471 500Q471 506 477 506H535Q585 506
615 531T645 605V660Q645 710 615 738T535 766H149Q100 766 70 738T40 660V605Q40 556 70 531T149 506H228Q234 506 234 500V96Q234 60 257 36T313 12H399Q433 12 456 36T479 96Q479 102 485 102Q491 102 491 96Q491 56 465 28T399 0H313Z" />
<glyph unicode="U" glyph-name="U" horiz-adv-x="723" d="M360 -10Q273 -10 212 15T113 80T58 169T40 262V681Q40 722 67 750T131 778Q137 778 137 772Q137 766 131 766Q98 766 75 742T52 681V262Q52 219 69 173T122 89T217 26T360 2H380Q456 2 511 24T601 84T654
165T671 252V681Q671 716 648 741T591 766H487Q453 766 431 741T408 681V448Q408 442 402 442Q396 442 396 448V681Q396 720 423 749T487 778H591Q630 778 656 749T683 681V252Q683 207 666 161T611 76T517 14T380 -10H360Z" />
<glyph unicode="V" glyph-name="V" horiz-adv-x="793" d="M402 -10Q379 -10 352 -1T300 29T258 88L48 562Q20 625 36 683T114 768L130 775Q195 804 247 776T326 684Q328 681 326 679T320 676Q315 676 314 680Q289 738 243 764T135 764L119 757Q62 732 48 678T59
566L269 92Q292 41 330 22T402 2Q436 2 475 21T536 92L735 565Q760 623 746 676T676 756L661 763Q621 782 584 776T519 745T475 681L383 453Q382 450 378 450Q370 450 372 457L464 685Q481 728 512 755T582 788T665 774L680 767Q741 739 757 682T746 561L547 88Q531
50 506 29T453 -1T402 -10Z" />
<glyph unicode="W" glyph-name="W" horiz-adv-x="1054" d="M389 -10Q329 -10 290 16T233 86L41 584Q27 621 31 657T56 722T115 767L139 777Q195 800 245 776T322 702L357 636Q376 719 422 754T523 789H528Q583 789 621 759T677 686Q679 679 672 679Q669 679 667
682Q651 722 616 749T528 777H523Q469 777 426 742T366 618Q365 613 361 612T353 616L311 697Q287 744 241 765T144 766L120 756Q71 735 52 687T52 588L244 90Q259 50 295 26T389 2Q436 2 472 24T526 89Q528 93 531 93T536 89Q553 49 588 26T673 2Q728 2 765 23T819
88L1003 589Q1022 641 1004 688T935 757L911 767Q878 781 844 777T784 752T744 699L691 559Q689 553 684 555T680 563L733 703Q747 740 777 761T843 788T915 778L939 768Q975 753 996 724T1023 659T1014 585L830 84Q814 38 772 14T673 -10Q624 -10 588 12T531 73Q511
33 474 12T389 -10Z" />
<glyph unicode="X" glyph-name="X" horiz-adv-x="800" d="M703 30Q667 2 628 -5T553 -1T491 42L400 151L314 47Q286 13 247 -1T166 -8T91 34L88 37Q41 84 34 138T69 242L193 384L69 527Q41 560 34 598T40 675T88 743L97 751Q130 780 169 787T245 783T309 738L332
711Q336 707 331 703T323 703L300 730Q276 759 242 771T172 777T105 742L96 734Q50 693 44 638T78 535L205 389Q210 385 205 380L79 235Q39 188 45 139T96 46L99 43Q131 12 168 5T242 10T304 55L396 165Q398 167 401 167T405 165L500 50Q524 22 557 11T626 7T695
39L704 46Q753 84 757 136T721 236L596 381Q592 385 596 389L716 541Q739 571 745 606T739 675T694 734L684 742Q652 768 615 775T545 770T487 726L380 589Q376 583 371 587T370 595L476 732Q503 767 540 780T617 787T692 751L702 743Q737 715 750 678T757 603T725
533L608 385L731 243Q775 191 770 135T712 37L703 30Z" />
<glyph unicode="Y" glyph-name="Y" horiz-adv-x="697" d="M311 0Q273 0 247 28T220 97V309L50 586Q31 618 31 651T47 714T96 761L116 772Q164 798 212 784T290 724L351 629L407 724Q426 756 456 772T521 789T588 771L604 762Q635 745 651 716T667 654T649 589L541
397Q519 359 489 343T433 326Q426 326 426 332Q426 338 433 338Q458 338 484 352T531 403L639 595Q654 622 654 652T641 709T597 752L581 761Q537 786 490 774T417 718L329 568Q328 565 324 565Q321 565 319 567T318 574L344 617L280 718Q253 760 210 772T121 761L103
751Q57 726 46 681T60 592L230 316Q232 313 232 309V97Q232 61 254 37T311 12H400Q434 12 457 36T480 97Q480 103 486 103Q492 103 492 97Q492 57 466 29T400 0H311Z" />
<glyph unicode="Z" glyph-name="Z" horiz-adv-x="750" d="M193 0Q153 0 120 20T66 73T46 146Q46 178 60 203T92 252L273 485H178Q138 485 105 504T51 557T30 631Q31 672 49 705T100 758T178 778H554Q595 778 628 758T681 705T701 631Q701 593 683 561T635 508Q631
506 628 508T625 513Q625 517 628 518Q656 537 672 566T689 631Q689 668 671 698T623 747T554 766H178Q115 766 79 727T42 631Q43 594 61 564T110 515T178 497H280Q286 497 288 493T286 482L101 245Q85 223 72 199T58 146Q58 109 76 79T125 30T193 12H563Q634 12
671 51T708 146Q708 210 671 250T563 291Q532 291 504 277T458 238T440 181Q440 175 434 175Q428 175 428 181Q428 216 447 243T498 287T563 303Q639 303 679 259T720 146Q720 86 679 43T563 0H193Z" />
<glyph unicode="[" glyph-name="bracketleft" horiz-adv-x="283" d="M121 -91Q84 -91 57 -65T30 -1V689Q30 728 56 755T120 783H248Q254 783 254 777Q254 771 248 771H120Q88 771 65 748T42 689V-1Q42 -34 65 -56T121 -79H248Q254 -79 254 -85Q254 -91 248 -91H121Z" />
<glyph unicode="\" glyph-name="backslash" horiz-adv-x="372" d="M337 -103Q333 -103 331 -99L29 734Q28 736 29 739T35 742Q39 742 41 738L343 -95Q344 -97 343 -100T337 -103Z" />
<glyph unicode="]" glyph-name="bracketright" horiz-adv-x="283" d="M36 -91Q30 -91 30 -85Q30 -79 36 -79H163Q196 -79 219 -57T242 -1V689Q242 724 219 747T164 771H36Q30 771 30 777Q30 783 36 783H164Q201 783 227 756T254 689V-1Q254 -38 227 -64T163 -91H36Z" />
<glyph unicode="^" glyph-name="asciicircum" horiz-adv-x="438" d="M44 595Q40 595 39 598T39 604L168 837Q179 856 189 868T216 881Q231 881 242 869T264 837L399 604Q401 601 400 598T394 595Q391 595 389 598L254 831Q244 850 236 859T216 869Q203 869 196
860T178 831L49 598Q48 595 44 595Z" />
<glyph unicode="_" glyph-name="underscore" horiz-adv-x="582" d="M36 -23Q30 -23 30 -17Q30 -11 36 -11H545Q552 -11 552 -17Q552 -23 545 -23H36Z" />
<glyph unicode="`" glyph-name="grave" horiz-adv-x="230" d="M221 657Q221 653 218 652T212 652L13 749Q9 751 9 755Q9 759 12 760T20 759L217 663Q221 661 221 657Z" />
<glyph unicode="a" glyph-name="a" horiz-adv-x="688" d="M244 -10Q186 -10 137 16T59 96T30 232V253Q30 331 57 385T132 469T241 498Q300 498 335 477T393 418Q401 450 429 469T491 488H545Q589 488 618 460T648 388V95Q648 52 618 26T545 0H498Q440 0 415 36Q413
39 414 42T420 45Q424 45 425 42Q445 12 498 12H545Q583 12 609 34T636 95V388Q636 427 610 451T545 476H491Q457 476 432 457T402 403Q412 383 412 357Q412 351 406 351Q400 351 400 357Q400 379 391 397Q372 438 338 462T241 486Q153 486 98 425T42 253V232Q42
153 69 102T142 27T244 2Q306 2 347 29T388 96Q388 101 394 101Q400 101 400 95Q400 66 380 42T324 4T244 -10Z" />
<glyph unicode="b" glyph-name="b" horiz-adv-x="652" d="M441 -10Q383 -10 345 12T293 67Q284 38 261 19T207 0H131Q94 0 67 27T40 96V681Q40 722 67 750T141 778H195Q242 778 269 749T296 681V559Q296 554 290 554Q284 554 284 559V681Q284 716 260 741T195
766H141Q101 766 77 741T52 681V96Q52 60 75 36T131 12H207Q240 12 262 36T285 96Q285 102 291 102Q298 102 298 96Q298 61 335 32T441 2Q495 2 528 24T579 83T603 160T610 241V261Q610 318 593 369T536 453T433 486Q382 486 344 467T284 415T257 345Q257 340 251
340Q245 340 245 346Q250 387 274 421T338 477T433 498Q500 498 541 464T602 376T622 261V241Q622 202 615 158T590 76T535 14T441 -10Z" />
<glyph unicode="c" glyph-name="c" horiz-adv-x="571" d="M301 -10Q221 -10 160 21T64 109T30 241Q31 312 64 370T154 463T287 498Q352 499 408 477T500 415T540 317Q543 283 528 255T487 211T426 194Q383 194 355 210T314 249T301 297Q301 303 307 303Q313 303
313 297Q313 276 324 255T361 220T426 206Q473 206 502 237T528 317Q525 369 492 407T405 466T287 486Q215 486 161 453T75 364T42 241Q41 169 73 115T165 32T301 2Q386 2 447 32T530 125Q532 129 536 129Q540 129 541 126T541 121Q518 54 453 22T301 -10Z" />
<glyph unicode="d" glyph-name="d" horiz-adv-x="666" d="M231 -10Q164 -10 124 13T64 74T37 155T30 238V275Q30 334 51 385T117 467T233 498Q287 498 324 476T380 420T399 349Q399 343 393 343Q387 343 387 349Q387 384 370 415T318 466T232 486Q165 486 123
457T62 379T42 275V238Q42 199 48 158T73 81T130 24T231 2Q261 2 290 12T340 46T367 105Q367 111 373 111Q379 111 379 105V92Q379 56 402 34T458 12H534Q568 12 591 36T614 96V681Q614 716 590 741T524 766H470Q430 766 406 741T381 681V559Q381 554 375 554Q369
554 369 559V681Q369 721 396 749T470 778H524Q571 778 598 749T626 681V96Q626 56 601 28T534 0H458Q425 0 401 20T369 73Q353 29 312 10T231 -10Z" />
<glyph unicode="e" glyph-name="e" horiz-adv-x="579" d="M300 -10Q222 -10 161 21T65 109T30 244Q30 314 63 372T156 464T297 499H312Q391 499 443 467T522 385T549 283Q549 265 536 253T505 240H260Q253 240 253 246Q253 252 260 252H505Q519 252 528 260T537
283Q537 332 512 379T438 456T312 487H297Q220 487 163 454T74 366T42 244Q42 170 75 116T167 32T300 2Q385 2 447 32T532 128Q534 132 538 132Q542 132 543 129T543 124Q519 54 454 22T300 -10Z" />
<glyph unicode="f" glyph-name="f" horiz-adv-x="566" d="M256 0Q216 0 191 28T165 96V251H124Q81 251 51 280T21 353V386Q21 430 51 459T124 488H165V637Q165 686 185 719T240 770T316 788Q358 788 391 771T445 722T464 650Q464 599 436 565T362 531Q355 531
355 537Q355 543 362 543Q403 543 427 573T452 650Q452 706 414 741T316 776Q258 776 218 741T177 637V481Q177 476 171 476H124Q86 476 60 451T33 386V353Q33 314 59 289T124 263H169Q177 263 177 256V96Q177 60 199 36T256 12H332Q366 12 389 36T412 96Q412 102
418 102Q424 102 424 96Q424 56 398 28T332 0H256ZM355 482Q355 488 361 488H442Q486 488 516 458T546 385V356Q546 313 515 284T442 254H419Q414 254 414 259Q414 265 419 265H442Q480 265 507 291T534 356V385Q534 424 507 450T442 476H361Q355 476 355 482Z"
/>
<glyph unicode="g" glyph-name="g" horiz-adv-x="639" d="M293 -238Q220 -238 161 -207T77 -126Q76 -123 78 -121T83 -118Q87 -118 88 -121Q111 -167 167 -196T293 -226H349Q419 -226 472 -200T556 -122T587 7V388Q587 424 563 450T504 476H455Q424 476 400 455T370
403Q381 380 383 355Q383 348 377 348Q371 348 371 355Q370 367 367 378T358 400Q341 436 307 461T222 486Q165 486 125 456T63 374T42 263V241Q42 175 60 121T121 35T231 2Q289 1 327 24T373 94Q374 100 379 100Q387 100 385 93Q377 43 336 16T231 -10Q160 -9
116 24T51 114T30 241V263Q30 328 53 381T119 466T222 498Q274 498 309 474T361 418Q371 447 397 467T455 488H504Q544 488 571 459T599 388V7Q599 -73 567 -128T479 -210T349 -238H293Z" />
<glyph unicode="h" glyph-name="h" horiz-adv-x="675" d="M131 0Q94 0 67 27T40 96V681Q40 722 68 750T141 778H195Q240 778 267 750T295 681V392Q315 443 360 470T460 498Q510 498 549 476T612 414T635 325V102Q635 59 605 30T532 0H512Q505 0 505 6Q505 12 512
12H532Q570 12 596 37T623 102V325Q623 372 602 408T544 465T460 486Q416 486 378 468T318 415T295 330Q295 324 289 324Q283 324 283 331V681Q283 716 260 741T195 766H141Q101 766 77 741T52 681V96Q52 60 75 36T131 12H207Q240 12 263 32T286 89Q286 95 292
95Q298 95 298 89Q298 49 272 25T207 0H131Z" />
<glyph unicode="i" glyph-name="i" horiz-adv-x="336" d="M168 523Q113 523 77 559T41 650Q41 706 77 742T168 778Q223 778 259 742T295 650Q295 595 259 559T168 523ZM53 650Q53 599 85 567T168 535Q219 535 251 567T283 650Q283 701 251 733T168 766Q117 766
85 734T53 650ZM132 0Q94 0 67 28T40 96V390Q40 431 68 459T142 488H196Q241 488 268 460T296 390V96Q296 56 271 28T208 0H132ZM52 96Q52 61 75 37T132 12H208Q240 12 262 36T284 96V390Q284 426 260 451T196 476H142Q101 476 77 451T52 390V96Z" />
<glyph unicode="j" glyph-name="j" horiz-adv-x="459" d="M295 523Q240 523 204 559T168 650Q168 706 204 742T295 778Q351 778 387 742T423 650Q423 595 387 559T295 523ZM180 650Q180 599 212 567T295 535Q346 535 378 567T411 650Q411 701 379 733T295 766Q244
766 212 734T180 650ZM236 -234Q173 -234 128 -211T59 -147T35 -57Q35 1 70 34T155 68Q205 68 237 37T269 -39Q269 -45 263 -45Q257 -45 257 -39Q257 2 229 29T155 56Q109 56 78 26T47 -57Q47 -128 96 -175T236 -222Q325 -222 368 -176T411 -45V392Q411 427 387
451T322 476H268Q228 476 204 452T179 392Q179 386 173 386Q167 386 167 392Q167 431 195 459T268 488H322Q367 488 395 460T423 392V-45Q423 -133 377 -183T236 -234Z" />
<glyph unicode="k" glyph-name="k" horiz-adv-x="623" d="M143 0Q100 0 70 29T40 102V675Q40 719 70 748T143 778H197Q238 778 268 749T298 675V400Q315 447 354 472T445 498Q484 498 516 481T568 432T588 358Q588 305 562 271T491 228Q536 215 561 177T587 99Q587
49 552 25T470 0H394Q355 0 336 16T316 42Q316 48 322 48Q326 48 328 44Q337 26 355 19T394 12H470Q514 12 544 33T575 99Q575 129 560 157T517 204T449 223Q442 223 442 229Q442 235 449 235Q508 235 542 266T576 358Q576 417 537 451T445 486Q381 486 340 447T298
342V337Q298 331 292 331Q286 331 286 337V675Q286 713 261 739T197 766H143Q105 766 79 740T52 675V102Q52 64 78 38T143 12H201Q239 12 264 38T290 102Q290 108 296 108Q302 108 302 102Q302 59 273 30T201 0H143Z" />
<glyph unicode="l" glyph-name="l" horiz-adv-x="336" d="M132 0Q94 0 67 28T40 96V681Q40 722 68 750T142 779H196Q241 779 268 751T296 681V96Q296 56 271 28T208 0H132ZM52 96Q52 61 75 37T132 12H208Q240 12 262 36T284 96V681Q284 717 260 742T196 767H142Q101
767 77 742T52 681V96Z" />
<glyph unicode="m" glyph-name="m" horiz-adv-x="828" d="M138 0Q98 0 69 28T40 97V391Q40 432 69 460T138 488H196Q233 488 260 465T292 406Q303 444 338 471T425 498Q454 498 482 488T533 454Q552 474 580 486T644 498Q682 498 715 480T768 429T788 353V97Q788
57 760 29T690 0Q683 0 683 6Q683 12 690 12Q726 12 751 37T776 97V353Q776 393 758 422T709 469T644 486Q608 486 581 474T537 442Q521 426 515 403T508 357Q508 351 502 351Q496 351 496 357Q496 380 503 403T524 445Q504 467 479 476T425 486Q383 486 354 467T309
418T293 358Q293 351 287 351Q281 351 281 358V391Q281 426 257 451T196 476H138Q102 476 77 451T52 391V97Q52 61 77 37T138 12H200Q236 12 261 31T286 87Q286 93 292 93Q298 93 298 87Q298 47 270 24T200 0H138Z" />
<glyph unicode="n" glyph-name="n" horiz-adv-x="634" d="M138 0Q98 0 69 28T40 97V388Q40 429 69 458T138 488H186Q224 488 251 463T283 399Q298 441 337 469T431 498Q479 498 515 475T573 412T594 324V96Q594 56 566 28T496 0Q489 0 489 6Q489 12 496 12Q532
12 557 36T582 96V324Q582 369 563 406T510 464T431 486Q387 486 355 468T305 419T284 354Q284 348 278 348Q272 348 272 354V388Q272 426 247 451T186 476H138Q102 476 77 450T52 388V97Q52 62 77 37T138 12H190Q226 12 250 37T275 97Q275 103 281 103Q287 103
287 97Q287 57 259 29T190 0H138Z" />
<glyph unicode="o" glyph-name="o" horiz-adv-x="585" d="M289 -10Q217 -10 159 22T65 111T30 238V248Q30 321 65 377T158 465T289 498H295Q368 498 426 466T520 377T555 248V238Q555 168 520 112T427 23T295 -10H289ZM42 238Q42 171 75 118T164 33T289 2H295Q365
2 421 33T510 117T543 238V248Q543 318 510 371T421 455T295 486H289Q220 486 164 456T75 372T42 248V238Z" />
<glyph unicode="p" glyph-name="p" horiz-adv-x="641" d="M138 -234Q98 -234 69 -206T40 -137V390Q40 431 69 459T138 488H190Q225 488 253 467T286 409Q304 456 340 477T432 498Q484 498 524 468T587 383T611 250Q611 200 602 154T572 70T516 12T427 -10Q337
-10 288 34T239 141Q239 147 245 147Q251 147 251 141Q251 83 296 43T427 2Q494 2 531 37T584 129T599 250Q599 361 552 423T431 486Q367 486 336 460T288 382Q287 377 282 377Q276 377 276 383V388Q276 428 252 452T190 476H138Q102 476 77 451T52 390V-137Q52
-173 77 -197T138 -222H190Q226 -222 251 -198T276 -137V-53Q276 -47 282 -47Q288 -47 288 -53V-137Q288 -177 260 -205T190 -234H138Z" />
<glyph unicode="q" glyph-name="q" horiz-adv-x="641" d="M451 -234Q411 -234 382 -206T353 -137V-53Q353 -47 359 -47Q365 -47 365 -53V-137Q365 -173 390 -197T451 -222H503Q539 -222 564 -198T589 -137V390Q589 426 564 451T503 476H451Q414 476 390 452T365
388V383Q365 377 359 377Q355 377 353 383Q336 433 308 459T220 486Q135 486 89 424T42 250Q42 186 62 130T127 38T244 2Q301 2 335 20T384 71T400 141Q400 147 406 147Q412 147 412 141Q412 99 395 65T341 11T244 -10Q168 -10 121 27T52 124T30 250Q30 366 80
432T219 498Q271 498 305 477T355 409Q360 446 388 467T451 488H503Q544 488 572 460T601 390V-137Q601 -177 573 -205T503 -234H451Z" />
<glyph unicode="r" glyph-name="r" horiz-adv-x="593" d="M138 0Q97 0 69 28T40 97V390Q40 431 69 459T138 488H193Q230 488 257 464Q269 454 278 441T289 406Q304 450 337 474T414 498Q479 498 518 460T558 355Q558 313 541 279T491 228Q463 214 430 214T364
230Q355 234 361 240Q365 244 369 241Q432 210 485 238Q513 252 529 283T546 356Q546 416 510 451T414 486Q379 486 351 468T306 421T290 359Q290 353 284 353Q278 353 278 359V391Q278 416 270 430T249 455Q225 476 193 476H138Q102 476 77 451T52 390V97Q52 61
77 37T138 12H193Q229 12 253 36T278 97Q278 103 284 103Q290 103 290 97Q290 57 262 29T193 0H138Z" />
<glyph unicode="s" glyph-name="s" horiz-adv-x="557" d="M226 0Q133 0 84 42T35 153Q35 159 41 159Q47 159 47 153Q47 89 92 51T226 12H358Q432 12 470 51T510 150Q512 191 496 226T450 283Q434 294 416 300T376 307Q369 307 369 313Q369 319 376 319Q397 319
416 313T452 296Q492 330 492 380Q492 420 458 448T364 476H208Q145 476 102 440T59 345Q59 283 102 246T208 208Q214 208 214 202Q214 196 208 196Q164 196 127 214T69 266T47 345Q47 388 68 420T127 470T208 488H364Q429 488 466 456T504 380Q504 355 493 331T461
289Q490 266 507 229T522 150Q520 87 479 44T358 0H226Z" />
<glyph unicode="t" glyph-name="t" horiz-adv-x="540" d="M240 0Q197 0 168 29T138 102V238H123Q80 238 51 268T21 339V386Q21 430 51 459T123 488H138V494Q138 538 168 568T240 598H278Q321 598 351 571T382 496V488H416Q460 488 490 459T520 385V342Q520 299
490 269T416 238H339Q333 238 333 244Q333 250 339 250H416Q454 250 481 276T508 342V385Q508 424 481 450T416 476H377Q370 476 370 483V496Q370 538 344 562T278 586H240Q202 586 176 560T150 494V483Q150 476 143 476H123Q85 476 59 450T33 386V339Q33 302 59
276T123 250H144Q150 250 150 244V102Q150 63 176 38T240 12H321Q359 12 387 34T420 93Q420 99 426 99Q432 99 432 93Q428 53 397 27T321 0H240Z" />
<glyph unicode="u" glyph-name="u" horiz-adv-x="639" d="M214 -11Q132 -11 86 34T40 159V440Q40 446 46 446Q52 446 52 440V159Q52 85 94 43T213 1Q268 1 306 23T360 82Q368 101 368 121Q368 127 374 127Q380 127 380 121Q380 99 372 78Q374 64 381 54T400 32Q425
12 455 12H501Q536 12 561 36T587 96V390Q587 426 562 451T501 476H455Q420 476 395 451T370 390Q370 384 364 384Q358 384 358 390Q358 431 386 459T455 488H501Q541 488 570 460T599 390V96Q599 56 570 28T501 0H455Q420 0 392 23Q382 32 375 41T364 63Q342 26
299 8T214 -11Z" />
<glyph unicode="v" glyph-name="v" horiz-adv-x="619" d="M321 -10Q280 -11 244 6T179 70L44 297Q18 341 25 388T78 465L100 479Q126 495 147 497T184 498Q210 495 228 479T261 438Q263 435 261 432T256 429Q251 429 251 432Q238 455 222 469T182 487Q168 489
150 487T106 469L85 456Q44 431 37 387T54 303L189 76Q215 33 248 18T321 2Q335 3 355 8T398 31T440 84L571 318Q591 355 580 394T534 455L505 472Q468 494 428 483T368 436L286 286Q285 283 281 283Q278 283 276 285T276 292L358 442Q373 469 398 483T454 498T511
482L540 465Q567 450 581 424T596 369T581 312L450 78Q429 41 405 22T359 -3T321 -10Z" />
<glyph unicode="w" glyph-name="w" horiz-adv-x="740" d="M263 -10Q228 -11 197 7T149 65L31 345Q14 386 31 426T89 483L101 488Q152 509 193 491T250 434L260 411Q272 452 302 475T370 498H378Q408 498 427 487T461 455Q463 452 462 449T457 445Q454 445 451
448Q441 464 424 475T378 486H370Q333 486 307 463T268 398Q267 392 261 392Q255 392 253 397L240 427Q231 449 212 465T166 486T106 477L94 472Q58 457 43 421T42 349L160 69Q175 34 202 18T263 2Q293 3 323 19T364 66Q366 71 370 71Q373 71 374 70T376 66Q390
33 418 18T479 2Q512 2 540 18T583 71L698 345Q713 381 700 417T649 469L631 477Q599 491 563 482T505 431L481 383Q479 379 476 379Q466 379 470 388L495 437Q518 482 557 493T635 488L654 480Q680 469 696 447T717 396T709 341L594 67Q577 26 546 8T479 -10Q448
-9 416 6T370 50Q356 22 326 7T263 -10Z" />
<glyph unicode="x" glyph-name="x" horiz-adv-x="589" d="M436 -11Q414 -11 392 -2T353 24L296 80L239 24Q221 6 200 -2T156 -10Q134 -10 113 -2T74 22Q56 39 47 60T38 103Q38 126 46 149T74 190L128 241L68 292Q44 313 36 343T36 404T67 459Q106 498 152 498Q175
498 196 489T233 461Q236 458 234 454Q230 448 225 453Q195 484 152 486Q133 487 113 478T76 451Q56 430 49 402T47 347T76 301L139 247Q142 244 142 241Q142 238 139 235L82 182Q66 168 58 146T50 103Q50 84 58 65T82 31Q97 16 117 9T156 2Q176 2 195 9T231 33L292
93Q296 97 300 93L361 33Q377 18 397 9T436 0Q478 0 509 31Q532 51 539 78T539 132T510 181L453 237Q449 241 453 245L510 303Q531 324 538 352T539 407T511 454Q490 474 461 482T403 482T350 445L295 380Q291 376 286 380Q282 384 287 389L342 454Q368 485 400
493T465 493T520 462Q543 441 550 411T549 349T518 294L466 241L518 189Q542 166 550 136T551 75T517 22Q500 7 479 -2T436 -11Z" />
<glyph unicode="y" glyph-name="y" horiz-adv-x="612" d="M196 -240Q178 -240 162 -236T130 -221Q123 -216 128 -211Q132 -207 137 -211Q161 -228 196 -228Q256 -229 287 -173L565 321Q586 358 574 399T519 465Q467 495 426 480T360 424L280 289Q279 286 275 286Q272
286 270 288T270 295L303 355L254 432Q224 479 181 484T93 465Q63 449 49 423T35 369Q35 353 39 333T60 287L188 86Q208 55 228 39T274 17Q282 15 280 9Q279 3 271 5Q245 12 222 30T178 80L50 280Q34 306 29 328T23 369Q23 398 38 426T85 474Q131 501 180 497T264
438L309 367L348 429Q379 479 424 493T525 475Q573 447 585 401T575 315L297 -179Q262 -240 196 -240Z" />
<glyph unicode="z" glyph-name="z" horiz-adv-x="560" d="M153 0Q96 0 66 34T36 112Q36 135 45 158T73 197L153 267H137Q97 267 66 295T35 363V381Q35 429 66 458T147 488H398Q452 488 486 446Q516 412 515 367T481 290Q477 287 474 288T470 293Q470 296 472 298Q501
327 502 367T477 439Q445 476 398 476H147Q104 476 76 451T47 381V363Q47 328 74 304T137 279H168Q174 279 174 274Q174 271 172 269L82 189Q65 174 56 154T48 112Q49 70 76 41T153 12H408Q458 12 485 37T513 105V118Q513 161 487 187T418 213Q411 213 401 212T377
202Q373 199 370 201T366 206Q366 210 370 212Q377 216 389 220T418 225Q465 225 495 195T525 118V105Q525 57 494 29T408 0H153Z" />
<glyph unicode="{" glyph-name="braceleft" horiz-adv-x="317" d="M35 349Q29 349 29 355Q29 361 35 361Q82 361 113 392T145 471V648Q145 686 162 717T211 766T282 784Q288 784 288 778Q288 772 282 772Q228 772 193 737T157 648V471Q157 419 123 384T35 349ZM29
326Q29 332 35 332Q86 332 121 298T157 210V42Q157 -10 192 -46T282 -82Q288 -82 288 -88Q288 -94 282 -94Q242 -94 211 -76T163 -26T145 42V210Q145 257 114 288T35 320Q29 320 29 326Z" />
<glyph unicode="|" glyph-name="bar" horiz-adv-x="52" d="M26 0Q20 0 20 6V828Q20 834 26 834Q32 834 32 828V6Q32 0 26 0Z" />
<glyph unicode="}" glyph-name="braceright" horiz-adv-x="317" d="M282 349Q230 349 195 384T160 471V648Q160 701 125 736T35 772Q29 772 29 778Q29 784 35 784Q75 784 106 766T154 717T172 648V471Q172 423 204 392T282 361Q288 361 288 355Q288 349 282 349ZM29
-88Q29 -82 35 -82Q89 -82 124 -46T160 42V210Q160 263 195 297T282 332Q288 332 288 326Q288 320 282 320Q236 320 204 289T172 210V42Q172 5 155 -26T106 -75T35 -94Q29 -94 29 -88Z" />
<glyph unicode="~" glyph-name="asciitilde" horiz-adv-x="626" d="M108 291Q67 291 36 319T4 391Q4 425 21 453T70 497T143 509Q178 506 210 485T274 433T339 373T411 323T494 303Q544 303 577 332T610 415Q609 454 584 480T518 506Q481 506 459 485T434 433Q434
427 428 427Q422 427 422 433Q424 468 450 493T518 518Q562 518 591 488T622 415Q622 357 585 324T494 291Q447 291 408 311T334 360T268 420T205 472T141 497Q84 502 50 470T16 391Q17 353 44 328T108 303Q146 303 168 323T190 373Q190 379 196 379Q202 379 202
373Q202 339 176 315T108 291Z" />
<glyph unicode="&#xa0;" glyph-name="uni00A0" horiz-adv-x="250" />
<glyph unicode="&#xa1;" glyph-name="exclamdown" horiz-adv-x="250" d="M125 -343Q119 -343 119 -337V244Q119 249 125 249Q161 249 185 274T210 335Q210 371 186 395T125 420Q89 420 64 396T39 335Q39 310 50 293T77 268Q80 267 80 263Q80 259 77 258T71 258Q52
267 40 287T27 335Q27 376 55 404T125 432Q166 432 194 404T222 335Q222 295 196 267T131 237V-337Q131 -343 125 -343Z" />
<glyph unicode="&#xa2;" glyph-name="cent" horiz-adv-x="572" d="M528 457Q525 510 491 548T401 607T281 626V778Q281 784 287 784Q293 784 293 778V638Q358 638 412 616T502 553T540 457Q543 405 511 370T426 334Q382 334 354 350T314 390T301 437Q301 443 307
443Q313 443 313 437Q313 416 324 395T360 360T426 346Q473 346 502 377T528 457ZM301 -6Q295 -6 295 0V130Q216 132 156 163T62 251T30 381Q32 440 55 490T119 577T216 629Q224 631 224 623Q224 619 220 617Q140 595 92 531T42 381Q41 308 74 254T167 171T307
142V0Q307 -6 301 -6ZM351 139Q351 145 356 145Q421 154 466 183T530 265Q532 269 536 269Q540 269 541 266T542 261Q523 206 474 174T358 133Q351 133 351 139Z" />
<glyph unicode="&#xa3;" glyph-name="sterling" horiz-adv-x="662" d="M40 458Q40 464 46 464H108V627Q108 676 129 709T184 760T260 778H310Q352 778 385 761T438 712T458 640Q457 590 430 556T356 521Q350 521 350 527Q350 533 356 533Q397 533 421 563T446
640Q446 696 408 731T310 766H260Q202 766 161 731T120 627V464H356Q362 464 362 458Q362 452 356 452H46Q40 452 40 458ZM199 0Q162 0 135 28T108 97V292H46Q40 292 40 298Q40 304 46 304H356Q362 304 362 298Q362 292 356 292H120V97Q120 62 143 37T199 12H491Q541
12 575 41T610 126V145Q610 202 575 237T481 273Q427 273 392 244T331 166Q330 163 326 163Q323 163 322 166T321 172Q347 222 385 253T481 285Q543 285 582 246T622 145V126Q622 67 584 34T491 0H199Z" />
<glyph unicode="&#xa5;" glyph-name="yen" horiz-adv-x="694" d="M99 324Q93 324 93 330Q93 336 99 336H200L49 586Q30 618 30 653T47 718T98 764L114 772Q163 796 209 783T286 725L351 631L406 724Q424 755 454 771T519 787T586 771L602 763Q651 739 661 691T646
595L538 392Q517 353 487 339T430 324H99ZM104 753Q60 727 47 682T59 592L214 336H430Q455 336 482 349T528 399L635 601Q658 645 649 686T596 752L580 761Q536 786 489 774T416 718L328 568Q327 565 323 565Q320 565 319 568T318 574L345 620L276 719Q248 760
206 774T119 762L104 753ZM93 210Q93 216 99 216H582Q588 216 588 210Q588 204 582 204H231V97Q231 62 254 37T310 12H396Q429 12 452 37T475 97Q475 103 481 103Q487 103 487 97Q487 57 461 29T396 0H310Q273 0 246 28T219 97V204H99Q93 204 93 210Z" />
<glyph unicode="&#xa6;" glyph-name="brokenbar" horiz-adv-x="52" d="M26 444Q20 444 20 449V828Q20 834 26 834Q32 834 32 828V449Q32 444 26 444ZM26 0Q20 0 20 6V385Q20 391 26 391Q32 391 32 385V6Q32 0 26 0Z" />
<glyph unicode="&#xa7;" glyph-name="section" horiz-adv-x="458" d="M203 0Q141 0 100 24T40 88T20 176Q20 182 26 182Q32 182 32 176Q32 131 50 94T106 34T203 12H270Q346 12 386 56T426 164Q426 204 407 236T354 289T280 309Q274 309 274 315Q274 321 280 321Q323
321 359 299Q394 322 407 352T421 422Q421 463 402 498T351 556T277 578Q271 578 271 584Q271 590 277 590Q321 590 357 565Q396 599 396 652Q396 700 362 733T267 766H182Q123 766 82 727T41 619Q41 559 79 520T185 479Q191 479 191 473Q191 467 185 467Q134 467
95 492Q70 473 56 446T41 383Q41 341 61 310T117 261T195 243Q201 243 201 237Q201 231 195 231Q150 231 112 250T52 304T29 383Q29 419 44 449T85 499Q29 543 29 619Q29 668 50 703T105 758T182 778H267Q332 778 370 741T408 652Q408 596 367 558Q397 535 415
499T433 422Q433 381 419 349T370 292Q401 270 419 237T438 164Q438 120 419 83T362 23T270 0H203Z" />
<glyph unicode="&#xa8;" glyph-name="dieresis" horiz-adv-x="605" d="M435 591Q386 591 355 622T323 703Q323 752 354 784T435 816Q484 816 516 784T548 703Q548 654 516 623T435 591ZM47 703Q47 752 78 784T159 816Q208 816 240 784T272 703Q272 654 240 623T159
591Q110 591 79 622T47 703ZM59 703Q59 659 87 631T159 603Q203 603 231 631T260 703Q260 747 232 775T159 804Q115 804 87 776T59 703ZM335 703Q335 659 363 631T435 603Q479 603 507 631T536 703Q536 747 508 775T435 804Q391 804 363 776T335 703Z" />
<glyph unicode="&#xa9;" glyph-name="copyright" horiz-adv-x="822" d="M411 -10Q328 -10 256 21T128 107T41 235T9 391Q9 474 40 546T127 672T255 758T411 789Q494 789 566 758T694 673T781 546T812 391Q812 308 781 236T695 108T567 21T411 -10ZM21 391Q21 310
51 240T135 116T259 32T411 2Q492 2 562 32T686 115T770 239T800 391Q800 472 770 542T687 665T563 747T411 777Q330 777 260 748T135 665T51 542T21 391ZM179 406Q179 470 209 519T291 598T406 631Q463 634 515 617T603 564T641 478Q644 430 614 402T537 374Q476
374 450 401T423 459Q423 465 429 465Q435 465 435 459Q435 431 458 409T537 386Q580 386 606 410T629 478Q626 524 594 556T512 605T406 619Q345 616 297 589T220 514T191 406Q191 297 253 237T416 177Q493 177 548 205T625 294Q627 298 631 298Q635 298 636 295T637
290Q615 226 555 196T416 165Q346 165 293 194T209 277T179 406Z" />
<glyph unicode="&#xaa;" glyph-name="ordfeminine" horiz-adv-x="464" d="M169 456Q111 456 69 495T27 615V627Q27 677 46 711T98 764T167 782Q194 782 221 772T264 740Q272 760 290 771T330 782H365Q396 782 415 763T434 716V527Q434 497 414 477T365 457H334Q296
457 278 481Q276 484 277 487T283 491Q286 491 288 489Q302 469 334 469H365Q389 469 405 485T422 527V716Q422 740 406 755T365 770H330Q308 770 293 759T274 727Q278 720 279 712T281 695Q281 689 275 689Q269 689 269 695Q269 713 260 726Q247 747 221 758T167
770Q115 770 77 733T39 627V615Q39 539 77 504T169 468Q209 468 230 484T251 526Q251 531 257 531Q263 531 263 525Q263 497 238 477T169 456Z" />
<glyph unicode="&#xab;" glyph-name="guillemotleft" horiz-adv-x="400" d="M365 141Q363 141 361 143L209 297Q170 335 209 372L361 525Q363 527 365 527Q371 527 371 521Q371 519 369 517L217 364Q201 348 201 335T217 305L369 151Q371 149 371 147Q371 141
365 141ZM49 297Q10 335 49 372L201 525Q203 527 205 527Q211 527 211 521Q211 519 209 517L57 364Q41 348 41 335T57 305L209 151Q211 149 211 147Q211 141 205 141Q203 141 201 143L49 297Z" />
<glyph unicode="&#xac;" glyph-name="logicalnot" horiz-adv-x="447" d="M431 246Q425 246 425 252V479H15Q9 479 9 485Q9 491 15 491H431Q437 491 437 485V252Q437 246 431 246Z" />
<glyph unicode="&#xae;" glyph-name="registered" horiz-adv-x="451" d="M225 358Q166 358 117 387T38 465T9 574Q9 634 38 683T116 761T225 790Q285 790 334 761T412 682T441 574Q441 515 412 466T334 387T225 358ZM21 574Q21 517 48 471T122 398T225 370Q282
370 328 397T402 471T429 574Q429 631 402 677T328 750T225 778Q168 778 122 751T49 678T21 574ZM154 451Q140 451 130 462T120 487V675Q120 689 130 700T154 711H181Q192 711 200 704T213 686Q233 712 274 712Q303 712 324 692T345 643Q345 619 333 601T299 577Q320
567 335 545T351 490Q351 473 340 462T312 451H281Q267 451 256 462T245 487Q245 493 251 493Q257 493 257 487Q257 477 264 470T281 463H312Q339 463 339 490Q339 530 317 550T268 575Q263 575 263 581Q263 587 269 587H280Q305 587 319 602T333 643Q333 668 317
684T274 700Q249 700 235 691T214 663Q212 659 208 659Q202 659 202 665V675Q202 686 196 692T181 699H154Q132 699 132 675V487Q132 463 154 463H182Q191 463 197 470T203 487Q203 493 209 493Q215 493 215 487Q215 473 206 462T182 451H154Z" />
<glyph unicode="&#xaf;" glyph-name="overscore" horiz-adv-x="262" d="M21 711Q15 711 15 716T21 722H240Q247 722 247 717T240 711H21Z" />
<glyph unicode="&#xb0;" glyph-name="degree" horiz-adv-x="281" d="M131 518Q96 518 67 536T21 585T4 654Q4 692 22 722T72 771T141 790Q179 790 209 772T258 723T277 654Q277 623 265 594T229 545Q226 543 223 544T219 550Q219 553 221 555Q265 591 265 654Q265
707 230 742T141 778Q88 778 52 743T16 654Q16 601 49 566T131 530Q153 530 165 540T177 566Q177 596 140 601Q116 604 102 618T87 654Q87 676 103 692T141 708Q163 708 178 692T194 654Q194 648 188 648Q182 648 182 654Q182 672 170 684T141 696Q123 696 111
684T99 654Q99 619 142 613Q162 611 175 599T189 566Q189 545 173 532T131 518Z" />
<glyph unicode="&#xb1;" glyph-name="plusminus" horiz-adv-x="550" d="M66 149Q60 149 60 155Q60 161 66 161H273V389H66Q60 389 60 395Q60 401 66 401H273V638Q273 644 279 644Q285 644 285 638V401H482Q488 401 488 395Q488 389 482 389H285V161H482Q488 161
488 155Q488 149 482 149H66Z" />
<glyph unicode="&#xb2;" glyph-name="uni00B2" horiz-adv-x="346" d="M159 650Q162 653 165 653Q170 653 170 648Q170 645 168 643L51 533Q31 514 31 479V445Q31 423 45 411T78 398H276Q295 398 306 409T318 439V477Q318 508 300 524T249 541Q217 541 194 520Q191
518 188 519T184 525Q184 526 186 530Q199 541 214 547T249 553Q284 553 307 533T330 477V439Q330 417 315 402T276 386H78Q56 386 38 402T19 445V479Q19 519 43 541L123 615Q101 610 78 616T38 640Q19 660 17 691T28 748Q37 765 54 783T100 813T172 825Q239 825
282 786T326 681Q326 657 315 629T281 578Q279 576 277 576Q273 576 272 579T273 586Q294 608 304 633T314 681Q314 742 275 777T172 813Q112 813 82 790T38 742Q26 719 28 692T46 648Q68 627 97 625T149 641L159 650Z" />
<glyph unicode="&#xb3;" glyph-name="uni00B3" horiz-adv-x="346" d="M196 539Q199 538 199 533Q199 528 194 528Q191 528 189 529L125 566Q114 573 110 582T105 600Q105 610 110 619T122 636L131 646H101Q65 646 41 672T16 734Q16 770 42 796T105 822H238Q274
822 300 796T326 734Q326 710 317 692T296 659L270 629Q299 609 314 584T330 523Q331 489 315 457T264 405T175 384Q132 384 98 401T44 447T23 505Q22 516 24 528T31 551Q33 554 36 554Q40 554 41 551T41 545Q33 527 35 505Q36 478 54 453T103 412T175 396Q226
396 257 414T304 462T318 523Q317 556 302 580T258 623Q255 625 255 628V630L257 632L288 667Q299 679 306 696T314 734Q314 766 292 788T238 810H105Q73 810 51 788T28 734Q28 702 49 680T101 658H142L159 675Q161 677 163 677Q167 677 168 674T167 667L130 628Q117
614 117 600Q117 594 120 588T131 576Q134 574 149 566T179 549T196 539Z" />
<glyph unicode="&#xb4;" glyph-name="acute" horiz-adv-x="230" d="M18 652Q15 651 12 652T9 657Q9 661 13 663L210 759Q214 761 217 760T221 755Q221 751 217 749L18 652Z" />
<glyph unicode="&#xb5;" glyph-name="uni00B5" horiz-adv-x="510" d="M124 -209Q87 -209 60 -181T33 -112V478Q33 484 39 484Q45 484 45 478V162Q47 117 70 81T132 24T222 2Q257 2 294 16T356 65T381 167V478Q381 484 387 484Q393 484 393 478V167Q393 113 402
80T425 31T455 8T484 2Q490 2 490 -4Q490 -10 484 -10Q469 -10 449 -2T411 31T385 105Q373 60 346 35T286 0T222 -10Q159 -10 112 22T45 104V-112Q45 -147 68 -172T124 -197H210Q216 -197 216 -203Q216 -209 210 -209H124Z" />
<glyph unicode="&#xb6;" glyph-name="paragraph" horiz-adv-x="610" d="M271 -10Q238 -10 215 10T191 71V392Q146 394 112 418T60 483T40 575Q40 639 70 687T152 762T269 789Q310 789 344 774T400 728T421 648V71Q421 31 398 11T341 -10H271ZM469 773Q469 779
475 779Q509 775 536 748T563 671V78Q563 39 543 18T492 -3Q486 -3 486 3Q486 9 492 9Q518 9 534 26T551 78V671Q551 715 528 739T475 767Q469 767 469 773ZM52 575Q53 500 92 452T197 404H242Q248 404 248 398Q248 392 242 392H203V71Q203 37 222 20T271 2H341Q370
2 389 19T409 71V648Q409 716 369 746T269 777Q207 777 158 752T80 681T52 575Z" />
<glyph unicode="&#xb7;" glyph-name="middot" horiz-adv-x="267" d="M199 355Q195 352 192 353T188 359Q188 362 191 365Q225 395 225 441Q225 480 199 506T134 532Q94 532 68 506T42 441Q42 413 55 395T87 367Q107 358 128 359T163 374Q165 376 168 376Q173 376
173 371Q173 368 171 366Q156 350 131 348T83 356Q61 366 46 387T30 441Q30 484 60 514T134 544Q177 544 207 514T237 441Q237 390 199 355Z" />
<glyph unicode="&#xb8;" glyph-name="cedilla" horiz-adv-x="600" d="M304 -160Q236 -160 202 -130T168 -55Q168 -30 183 -9T224 16Q216 21 209 30T202 51Q202 71 215 82T244 93H291Q297 93 297 87Q297 81 291 81H244Q232 81 223 74T214 51Q214 35 226 27T248
17Q277 14 292 -4T307 -45Q307 -51 301 -51Q295 -51 295 -45Q295 -22 280 -8T240 6Q212 6 196 -12T180 -55Q180 -95 210 -121T304 -148Q362 -148 391 -121T423 -54Q425 -28 413 -2T367 35Q363 37 363 41Q363 48 371 46Q409 34 423 4T435 -55Q433 -98 400 -129T304
-160Z" />
<glyph unicode="&#xb9;" glyph-name="uni00B9" horiz-adv-x="284" d="M95 563Q95 569 101 569Q107 569 107 563V439Q107 420 119 408T150 396H213Q232 396 244 408T256 439V739Q256 771 237 792T186 813H154Q131 813 110 803T68 770L51 750Q29 725 28 693T50 637Q61
625 75 620T106 614Q134 614 153 633Q155 635 157 635Q163 635 163 629Q163 627 161 625Q138 602 106 602Q89 602 72 609T42 629Q14 655 15 692T41 758L58 778Q79 803 104 814T154 825H186Q223 825 245 800T268 739V439Q268 417 252 401T213 384H150Q128 384 112
400T95 439V563Z" />
<glyph unicode="&#xba;" glyph-name="ordmasculine" horiz-adv-x="443" d="M220 433Q168 433 125 457T56 524T30 619V624Q30 677 55 718T124 782T219 806H224Q277 806 319 783T387 718T413 624V619Q413 567 388 525T320 458T224 433H220ZM42 619Q42 570 66 531T130
468T220 445H224Q274 445 314 468T377 530T401 619V624Q401 674 378 712T314 772T224 794H219Q170 794 130 772T66 712T42 624V619Z" />
<glyph unicode="&#xbb;" glyph-name="guillemotright" horiz-adv-x="400" d="M196 141Q190 141 190 147Q190 149 192 151L344 305Q374 335 344 364L192 517Q190 519 190 521Q190 527 196 527Q198 527 200 525L352 372Q391 335 352 297L200 143Q198 141 196 141ZM30
147Q30 149 32 151L184 305Q200 321 200 334T184 364L32 517Q30 519 30 521Q30 527 36 527Q38 527 40 525L192 372Q231 335 192 297L40 143Q38 141 36 141Q30 141 30 147Z" />
<glyph unicode="&#xbc;" glyph-name="onequarter" horiz-adv-x="773" d="M135 228Q112 228 96 244T80 283V412Q80 418 86 418Q92 418 92 412V283Q92 265 104 253T135 240H198Q216 240 228 252T241 283V588Q241 619 222 640T171 662H139Q93 663 53 619L36 599Q13
574 12 542T35 486Q57 463 91 463Q119 463 138 482Q140 484 142 484Q148 484 148 478Q148 476 146 474Q123 451 91 451Q74 451 57 457T27 478Q0 504 0 541T27 607L43 627Q87 676 139 674H171Q208 674 230 649T253 588V283Q253 260 237 244T198 228H135ZM75 -59Q71
-59 70 -56T71 -49L702 654Q704 656 706 656Q710 656 712 653T711 646L80 -57Q78 -59 75 -59ZM480 -5Q461 -5 444 9T427 47V98Q427 114 430 125T442 154L515 299Q534 337 564 348T628 345Q651 335 665 312T668 261Q666 257 662 257Q658 257 657 260T656 265Q666
288 655 306T624 333Q561 361 525 293L452 148Q444 131 442 122T439 98V47Q439 28 451 18T480 7H580Q586 7 586 1V-41Q586 -56 597 -67T623 -78H673Q688 -78 698 -67T709 -41V2Q709 8 715 8H726Q741 8 751 17T761 42V81Q761 107 749 111T727 115H715Q709 115 709
121V164Q709 182 698 193T668 205H628Q610 205 599 194T587 164V110Q587 104 581 104Q575 104 575 110V164Q575 186 590 201T628 217H668Q690 217 705 202T721 164V127H727Q733 127 744 125T764 114T773 81V42Q773 22 760 9T726 -4H721V-41Q721 -61 707 -75T673
-90H623Q603 -90 589 -76T574 -41V-5H480Z" />
<glyph unicode="&#xbd;" glyph-name="onehalf" horiz-adv-x="775" d="M135 229Q112 229 96 245T80 284V413Q80 419 86 419Q92 419 92 413V284Q92 266 104 254T135 241H198Q216 241 228 253T241 284V589Q241 620 222 641T171 663H139Q93 664 53 620L36 600Q13 575
12 543T35 487Q57 464 91 464Q119 464 138 483Q140 485 142 485Q148 485 148 479Q148 477 146 475Q123 452 91 452Q74 452 57 458T27 479Q0 505 0 542T27 608L43 628Q87 677 139 675H171Q208 675 230 650T253 589V284Q253 261 237 245T198 229H135ZM67 -59Q63 -59
62 -56T63 -49L694 654Q696 656 698 656Q702 656 704 653T703 646L72 -57Q70 -59 67 -59ZM523 -91Q501 -91 483 -75T464 -32V2Q464 39 488 64L553 133L566 147Q544 142 521 148T481 172Q461 191 459 222T471 280Q479 297 496 315T543 345T615 357Q682 357 725 318T769
213Q769 189 758 161T724 110Q723 108 720 108Q716 108 715 111T716 118Q737 140 747 165T757 213Q757 274 718 309T615 345Q555 345 525 322T481 274Q469 251 470 224T489 180Q511 159 540 156T589 171L601 183Q602 185 605 185Q609 185 610 182T609 175L602 167Q601
165 600 165Q598 163 597 162L561 125L496 56Q476 34 476 2V-32Q476 -54 490 -66T523 -79H721Q739 -79 751 -68T763 -38V0Q763 31 744 47T694 64Q662 64 639 43Q636 41 633 42T629 48Q629 51 631 53Q658 76 694 76Q729 76 752 56T775 0V-38Q775 -60 760 -75T721
-91H523Z" />
<glyph unicode="&#xbe;" glyph-name="threequarters" horiz-adv-x="791" d="M161 223Q113 223 80 241T28 287T9 348Q8 356 9 365T12 381Q13 386 18 386Q21 386 22 384T24 379Q22 371 21 364T21 348Q22 304 57 270T161 235Q230 235 266 272T302 366Q301 399 287
426T241 473Q238 475 238 478Q238 479 238 480Q238 480 239 480Q239 481 239 481L240 482L271 517Q282 529 289 546T297 584Q297 616 275 638T221 660H88Q56 660 34 638T12 584Q12 552 34 531T88 508H115L132 525Q133 527 136 527Q140 527 141 524T140 517L103
478Q90 465 91 450T109 422Q112 419 123 411T146 394T159 383Q161 381 161 379Q161 373 155 373Q153 373 151 375Q149 376 139 384T117 401T101 412Q81 428 80 449T95 486L104 496H88Q52 497 26 522T0 584Q0 620 26 646T88 672H221Q257 672 283 646T309 584Q309
560 301 541T279 509L253 479Q283 458 298 429T314 366Q316 306 275 265T161 223ZM93 -59Q89 -59 88 -56T89 -49L720 654Q722 656 724 656Q728 656 730 653T729 646L98 -57Q96 -59 93 -59ZM498 -5Q479 -5 462 9T445 47V98Q445 114 448 125T460 154L533 299Q552
337 582 348T646 345Q669 335 683 312T686 261Q684 257 680 257Q676 257 675 260T674 265Q684 288 673 306T642 333Q579 361 543 293L470 148Q462 131 460 122T457 98V47Q457 28 469 18T498 7H598Q604 7 604 1V-41Q604 -56 615 -67T641 -78H691Q706 -78 716 -67T727
-41V2Q727 8 733 8H744Q759 8 769 17T779 42V81Q779 107 767 111T745 115H733Q727 115 727 121V164Q727 182 716 193T686 205H646Q628 205 617 194T605 164V110Q605 104 599 104Q593 104 593 110V164Q593 186 608 201T646 217H686Q708 217 723 202T739 164V127H745Q751
127 762 125T782 114T791 81V42Q791 22 778 9T744 -4H739V-41Q739 -61 725 -75T691 -90H641Q621 -90 607 -76T592 -41V-5H498Z" />
<glyph unicode="&#xbf;" glyph-name="questiondown" horiz-adv-x="492" d="M249 -219Q182 -219 130 -189T48 -107T20 5Q23 64 47 107T107 185T182 254Q223 290 255 316T307 367T326 425Q326 463 300 489T235 515Q196 515 171 490T145 425Q145 397 161 376T204
346Q208 344 208 340Q208 336 205 335T200 334Q171 345 152 369T133 425Q133 469 162 498T235 527Q278 527 308 498T338 425Q338 388 318 361T264 307T190 246Q152 212 117 178T58 102T32 5Q30 -54 57 -102T135 -178T249 -207Q309 -207 357 -181T433 -109T461 -6Q461
46 432 77T358 108Q315 108 285 79T255 5Q255 -1 249 -1Q243 -1 243 5Q243 37 258 63T300 104T358 120Q405 120 439 85T473 -6Q473 -66 443 -114T362 -191T249 -219Z" />
<glyph unicode="&#xc0;" glyph-name="Agrave" horiz-adv-x="759" d="M574 -10Q537 -9 503 11T448 81L411 171H348Q343 171 343 177Q343 183 348 183H416Q419 183 421 179L459 85Q477 40 508 22T574 2Q609 3 642 14T698 51T722 115Q723 145 716 168T701 209L522
670Q504 717 469 742T384 768Q330 768 295 743T241 670L45 169Q33 138 38 107T62 52T111 16L143 4Q149 2 147 -4Q145 -9 138 -7L106 5Q73 18 53 45T27 106T34 173L230 674Q250 725 288 752T384 780Q436 779 475 752T533 674L712 213Q719 196 727 171T734 115Q733
72 709 44T648 3T574 -10ZM492 834Q492 830 489 829T483 829L284 926Q280 928 280 932Q280 936 283 937T291 936L488 840Q492 838 492 834Z" />
<glyph unicode="&#xc1;" glyph-name="Aacute" horiz-adv-x="759" d="M574 -10Q537 -9 503 11T448 81L411 171H348Q343 171 343 177Q343 183 348 183H416Q419 183 421 179L459 85Q477 40 508 22T574 2Q609 3 642 14T698 51T722 115Q723 145 716 168T701 209L522
670Q504 717 469 742T384 768Q330 768 295 743T241 670L45 169Q33 138 38 107T62 52T111 16L143 4Q149 2 147 -4Q145 -9 138 -7L106 5Q73 18 53 45T27 106T34 173L230 674Q250 725 288 752T384 780Q436 779 475 752T533 674L712 213Q719 196 727 171T734 115Q733
72 709 44T648 3T574 -10ZM273 825Q270 824 267 825T264 830Q264 834 268 836L465 932Q469 934 472 933T476 928Q476 924 472 922L273 825Z" />
<glyph unicode="&#xc2;" glyph-name="Acircumflex" horiz-adv-x="759" d="M574 -10Q537 -9 503 11T448 81L411 171H348Q343 171 343 177Q343 183 348 183H416Q419 183 421 179L459 85Q477 40 508 22T574 2Q609 3 642 14T698 51T722 115Q723 145 716 168T701 209L522
670Q504 717 469 742T384 768Q330 768 295 743T241 670L45 169Q33 138 38 107T62 52T111 16L143 4Q149 2 147 -4Q145 -9 138 -7L106 5Q73 18 53 45T27 106T34 173L230 674Q250 725 288 752T384 780Q436 779 475 752T533 674L712 213Q719 196 727 171T734 115Q733
72 709 44T648 3T574 -10ZM249 833Q245 837 251 842L374 935Q379 938 382 938Q386 938 390 935L513 842Q519 837 515 833Q511 829 506 833L382 926L258 833Q253 829 249 833Z" />
<glyph unicode="&#xc3;" glyph-name="Atilde" horiz-adv-x="759" d="M574 -10Q537 -9 503 11T448 81L411 171H348Q343 171 343 177Q343 183 348 183H416Q419 183 421 179L459 85Q477 40 508 22T574 2Q609 3 642 14T698 51T722 115Q723 145 716 168T701 209L522
670Q504 717 469 742T384 768Q330 768 295 743T241 670L45 169Q33 138 38 107T62 52T111 16L143 4Q149 2 147 -4Q145 -9 138 -7L106 5Q73 18 53 45T27 106T34 173L230 674Q250 725 288 752T384 780Q436 779 475 752T533 674L712 213Q719 196 727 171T734 115Q733
72 709 44T648 3T574 -10ZM467 825Q436 825 418 842T385 879Q371 898 356 913T314 928Q292 928 274 915T256 879Q256 873 250 873Q244 873 244 879Q244 909 266 924T314 940Q346 940 363 923T395 886Q409 867 424 852T467 837Q490 837 507 850T524 886Q524 892
530 892Q536 892 536 886Q536 856 514 841T467 825Z" />
<glyph unicode="&#xc4;" glyph-name="Adieresis" horiz-adv-x="771" d="M586 -10Q549 -9 516 9T464 72L423 173H358Q352 173 352 179Q352 185 358 185H423Q431 185 434 178L475 76Q491 38 521 21T586 2Q605 3 632 7T684 27Q727 54 733 97T718 195L534 668Q521
699 503 716Q500 719 502 723Q504 727 510 726Q515 725 521 725T534 724Q578 724 608 753T638 827Q638 872 608 902T534 932Q488 932 459 902T429 827Q429 792 449 766Q452 762 450 757Q447 752 440 755Q413 768 388 768Q360 768 330 755Q324 753 322 758Q320 761
323 764Q335 776 339 792T344 827Q344 873 314 902T240 932Q195 932 165 902T135 827Q135 782 165 753T240 723Q248 723 255 724T271 728Q275 730 277 726Q281 723 277 719Q266 708 258 697T242 668L45 170Q33 139 38 108T63 53T114 17L146 5Q149 4 149 0Q149 -4
147 -5T142 -6L109 6Q76 18 54 45T27 106T34 174L231 672Q241 697 256 713Q252 712 248 712T240 711Q190 711 157 744T123 827Q123 877 156 910T240 944Q290 944 323 911T356 827Q356 798 345 773Q365 780 388 780Q399 780 410 778T432 771Q425 783 421 797T417
827Q417 877 450 910T534 944Q584 944 617 911T650 827Q650 778 617 745T535 712H523Q536 696 545 672L729 199Q750 145 745 96T689 16Q663 0 635 -5T586 -10Z" />
<glyph unicode="&#xc5;" glyph-name="Aring" horiz-adv-x="772" d="M583 -10Q553 -9 518 9T464 73L424 173H358Q352 173 352 179Q352 185 358 185H427Q432 185 434 180L475 77Q492 35 524 19T583 2Q603 3 630 5T689 30Q711 45 722 67T735 123Q736 137 732 155T720
192L549 637Q534 676 510 698T456 734Q452 735 452 739Q452 743 455 744Q500 775 500 830Q500 876 470 906T393 937Q348 937 318 907T287 830Q287 775 329 747Q333 744 333 741Q333 737 329 736Q301 724 277 701T235 637L46 170Q33 139 38 108T64 53T115 17L147
5Q151 3 151 -1Q151 -5 148 -6T143 -6L111 6Q77 19 55 45T27 106T35 174L224 642Q241 682 266 705T316 742Q275 775 275 830Q275 881 309 915T393 949Q444 949 478 915T512 830Q512 803 501 780T470 740Q496 727 520 704T560 642L731 196Q739 177 743 158T747 123Q746
86 733 61T694 19Q660 -3 632 -7T583 -10ZM348 830Q348 850 361 863T394 877Q414 877 427 864T441 830Q441 810 428 797T394 784Q375 784 362 797T348 830ZM360 830Q360 815 370 806T394 796Q409 796 419 805T429 830Q429 845 419 855T394 865Q380 865 370 855T360
830Z" />
<glyph unicode="&#xc6;" glyph-name="AE" horiz-adv-x="941" d="M141 7Q141 3 138 2T133 1L106 12Q70 27 50 57T26 124T37 195L250 672Q272 720 309 752T416 783Q470 782 505 755T553 693Q563 735 593 756T663 778H808Q850 778 879 749T908 676V612Q908 569 879
540T808 511H596Q590 511 590 517Q590 523 596 523H808Q845 523 870 548T896 612V676Q896 714 871 740T808 766H663Q622 766 592 740T561 660Q561 655 556 655Q550 655 550 660Q544 702 511 736T415 771Q351 771 316 743T261 668L48 191Q34 160 37 126T59 65T111
23L138 12Q141 11 141 7ZM590 281Q590 287 596 287H714Q755 287 782 311T811 375Q811 381 817 381Q823 381 823 375Q822 330 791 303T715 275H596Q590 275 590 281ZM318 189Q318 195 324 195H389Q396 195 396 188V97Q396 61 419 37T475 12H816Q853 12 878 38T904
101Q904 107 910 107Q916 107 916 101Q916 58 887 29T816 0H475Q437 0 411 28T384 97V183H324Q318 183 318 189Z" />
<glyph unicode="&#xc7;" glyph-name="Ccedilla" horiz-adv-x="811" d="M411 -254Q343 -254 309 -224T275 -149Q275 -124 290 -104T331 -78Q323 -73 316 -64T309 -42Q309 -28 316 -18T334 -3Q247 14 179 62T70 189T30 370Q30 469 61 546T147 678T270 760T415 788Q481
788 543 773T656 727T740 645T780 526Q785 486 771 452T726 396T651 375H643Q598 375 566 392T517 437T500 492Q500 498 506 498Q512 498 512 492Q512 466 527 442T572 403T643 387H651Q691 387 718 406T758 456T768 524Q761 591 729 639T648 717T539 761T415 776Q342
776 275 749T156 669T73 542T42 370Q42 275 77 203T173 84T310 15Q330 10 351 7T393 1H421Q518 1 585 27T693 99T755 202Q758 208 763 206Q768 204 766 198Q746 140 703 93T590 17T421 -11H351Q339 -11 330 -19T321 -42Q321 -58 334 -66T355 -77Q387 -80 400 -98T415
-138Q415 -145 409 -145Q403 -145 403 -139Q402 -114 387 -101T347 -88Q320 -88 304 -106T287 -149Q287 -189 317 -215T411 -242Q469 -242 498 -215T530 -148Q532 -122 520 -96T474 -59Q469 -58 469 -53Q469 -45 477 -47Q515 -60 529 -89T542 -149Q540 -192 507
-223T411 -254Z" />
<glyph unicode="&#xc8;" glyph-name="Egrave" horiz-adv-x="700" d="M443 839Q443 835 440 834T434 834L235 931Q231 933 231 937Q231 941 234 942T242 941L439 845Q443 843 443 839ZM130 0Q93 0 67 28T40 97V681Q40 722 66 750T130 778H221Q251 778 275 759T307
710Q320 745 349 761T413 778H551Q594 778 623 748T652 676V612Q652 570 624 541T551 511H339Q333 511 333 517Q333 523 339 523H551Q589 523 614 548T640 612V676Q640 714 615 740T551 766H413Q372 766 342 742T312 664Q312 658 306 658Q300 658 300 664V678Q300
713 278 739T221 766H130Q97 766 75 741T52 681V97Q52 61 74 37T130 12H532Q581 12 614 45T648 127Q648 133 654 133Q660 133 660 127Q660 92 643 63T597 17T532 0H130ZM333 280Q333 286 339 286H457Q498 286 525 309T554 373Q554 379 560 379Q566 379 566 373Q565
328 534 301T457 274H339Q333 274 333 280Z" />
<glyph unicode="&#xc9;" glyph-name="Eacute" horiz-adv-x="700" d="M130 0Q93 0 67 28T40 97V681Q40 722 66 750T130 778H221Q251 778 275 759T307 710Q320 745 349 761T413 778H551Q594 778 623 748T652 676V612Q652 570 624 541T551 511H339Q333 511 333 517Q333
523 339 523H551Q589 523 614 548T640 612V676Q640 714 615 740T551 766H413Q372 766 342 742T312 664Q312 658 306 658Q300 658 300 664V678Q300 713 278 739T221 766H130Q97 766 75 741T52 681V97Q52 61 74 37T130 12H532Q581 12 614 45T648 127Q648 133 654
133Q660 133 660 127Q660 92 643 63T597 17T532 0H130ZM333 280Q333 286 339 286H457Q498 286 525 309T554 373Q554 379 560 379Q566 379 566 373Q565 328 534 301T457 274H339Q333 274 333 280ZM236 831Q233 830 230 831T227 836Q227 840 231 842L428 938Q432
940 435 939T439 934Q439 930 435 928L236 831Z" />
<glyph unicode="&#xca;" glyph-name="Ecircumflex" horiz-adv-x="700" d="M130 0Q93 0 67 28T40 97V681Q40 722 66 750T130 778H221Q251 778 275 759T307 710Q320 745 349 761T413 778H551Q594 778 623 748T652 676V612Q652 570 624 541T551 511H339Q333 511 333
517Q333 523 339 523H551Q589 523 614 548T640 612V676Q640 714 615 740T551 766H413Q372 766 342 742T312 664Q312 658 306 658Q300 658 300 664V678Q300 713 278 739T221 766H130Q97 766 75 741T52 681V97Q52 61 74 37T130 12H532Q581 12 614 45T648 127Q648
133 654 133Q660 133 660 127Q660 92 643 63T597 17T532 0H130ZM333 280Q333 286 339 286H457Q498 286 525 309T554 373Q554 379 560 379Q566 379 566 373Q565 328 534 301T457 274H339Q333 274 333 280ZM203 834Q199 838 205 843L328 936Q333 939 336 939Q340
939 344 936L467 843Q473 838 469 834Q465 830 460 834L336 927L212 834Q207 830 203 834Z" />
<glyph unicode="&#xcb;" glyph-name="Edieresis" horiz-adv-x="704" d="M130 0Q92 0 66 28T40 96V681Q40 722 66 750T130 778H148Q111 807 111 858Q111 905 140 935T217 965Q264 965 294 935T324 858Q324 821 305 795T258 758Q290 742 303 708Q313 746 338 761T390
777H417Q401 791 391 811T380 857Q380 904 409 934T486 964Q533 964 563 934T593 857Q593 805 552 778H554Q595 778 624 750T653 681V612Q653 569 624 541T552 512H341Q334 512 334 518Q334 524 341 524H552Q590 524 615 549T641 612V681Q641 719 616 742T552 766H530Q524
766 524 771Q524 775 528 777Q552 788 566 808T581 857Q581 899 555 925T486 952Q444 952 418 926T392 857Q392 800 438 778Q440 777 442 775T443 770Q442 765 435 765H390Q360 765 335 745T309 666Q309 661 303 661Q298 661 298 666Q297 733 234 754Q230 756 231
760T236 764Q268 769 290 794T312 858Q312 899 286 926T217 953Q175 953 149 927T123 858Q123 801 172 777Q176 776 176 771Q176 766 170 766H130Q97 766 75 741T52 681V96Q52 60 74 36T130 12H538Q586 12 619 44T652 125Q652 131 658 131Q664 131 664 125Q664
91 648 63T603 17T538 0H130ZM334 280Q334 286 340 286H458Q499 286 527 309T556 373Q556 379 562 379Q568 379 568 373Q567 330 536 302T458 274H340Q334 274 334 280Z" />
<glyph unicode="&#xcc;" glyph-name="Igrave" horiz-adv-x="572" d="M162 0Q125 0 95 17T46 65T28 133V155Q28 191 45 221T92 269T157 288V497Q120 498 91 516T45 563T28 626V648Q28 685 45 714T92 760T158 778H410Q447 778 476 761T523 714T541 648V626Q541 592
525 563T479 516T410 497V328Q410 322 404 322Q398 322 398 328V503Q398 509 403 509Q458 509 493 543T529 626V648Q529 681 513 708T470 750T410 766H158Q109 766 75 732T40 648V626Q40 577 75 543T163 509Q169 509 169 503V282Q169 277 163 277Q129 277 101 261T57
217T40 155V133Q40 81 75 47T162 12H409Q461 12 496 46T532 133V145Q532 204 496 241T401 279Q388 279 374 274T346 257Q340 253 336 257Q332 261 337 266Q349 278 367 284T401 291Q443 291 475 272T525 220T544 145V133Q544 95 526 65T478 18T409 0H162ZM397 833Q397
829 394 828T388 828L189 925Q185 927 185 931Q185 935 188 936T196 935L393 839Q397 837 397 833Z" />
<glyph unicode="&#xcd;" glyph-name="Iacute" horiz-adv-x="572" d="M162 0Q125 0 95 17T46 65T28 133V155Q28 191 45 221T92 269T157 288V497Q120 498 91 516T45 563T28 626V648Q28 685 45 714T92 760T158 778H410Q447 778 476 761T523 714T541 648V626Q541 592
525 563T479 516T410 497V328Q410 322 404 322Q398 322 398 328V503Q398 509 403 509Q458 509 493 543T529 626V648Q529 681 513 708T470 750T410 766H158Q109 766 75 732T40 648V626Q40 577 75 543T163 509Q169 509 169 503V282Q169 277 163 277Q129 277 101 261T57
217T40 155V133Q40 81 75 47T162 12H409Q461 12 496 46T532 133V145Q532 204 496 241T401 279Q388 279 374 274T346 257Q340 253 336 257Q332 261 337 266Q349 278 367 284T401 291Q443 291 475 272T525 220T544 145V133Q544 95 526 65T478 18T409 0H162ZM180 830Q177
829 174 830T171 835Q171 839 175 841L372 937Q376 939 379 938T383 933Q383 929 379 927L180 830Z" />
<glyph unicode="&#xce;" glyph-name="Icircumflex" horiz-adv-x="572" d="M162 0Q125 0 95 17T46 65T28 133V155Q28 191 45 221T92 269T157 288V497Q120 498 91 516T45 563T28 626V648Q28 685 45 714T92 760T158 778H410Q447 778 476 761T523 714T541 648V626Q541
592 525 563T479 516T410 497V328Q410 322 404 322Q398 322 398 328V503Q398 509 403 509Q458 509 493 543T529 626V648Q529 681 513 708T470 750T410 766H158Q109 766 75 732T40 648V626Q40 577 75 543T163 509Q169 509 169 503V282Q169 277 163 277Q129 277 101
261T57 217T40 155V133Q40 81 75 47T162 12H409Q461 12 496 46T532 133V145Q532 204 496 241T401 279Q388 279 374 274T346 257Q340 253 336 257Q332 261 337 266Q349 278 367 284T401 291Q443 291 475 272T525 220T544 145V133Q544 95 526 65T478 18T409 0H162ZM154
838Q150 842 156 847L279 940Q284 943 287 943Q291 943 295 940L418 847Q424 842 420 838Q416 834 411 838L287 931L163 838Q158 834 154 838Z" />
<glyph unicode="&#xcf;" glyph-name="Idieresis" horiz-adv-x="572" d="M162 0Q125 0 95 17T46 65T28 133V155Q28 191 45 221T92 269T157 288V497Q120 498 91 516T45 563T28 626V648Q28 688 49 719T103 766Q74 779 57 805T40 865Q40 912 71 942T148 973Q195 973
226 942T257 865Q257 843 248 819T216 778H354Q332 795 324 819T315 865Q315 911 346 942T422 973Q468 973 499 942T530 865Q530 834 515 807T467 765Q500 750 520 719T541 648V626Q541 592 525 563T479 516T410 497V328Q410 322 404 322Q398 322 398 328V503Q398
509 403 509Q458 509 493 543T529 626V648Q529 686 508 716T452 759Q448 761 448 765T452 771Q485 782 501 807T518 865Q518 906 491 933T422 961Q381 961 354 934T327 865Q327 841 337 817T373 778Q378 775 377 771T370 766H202Q196 766 195 771T198 778Q224 793
234 817T245 865Q245 907 217 934T148 961Q106 961 79 934T52 865Q52 832 70 808T119 772Q124 771 124 767T119 760Q85 748 63 718T40 648V626Q40 577 75 543T163 509Q169 509 169 503V282Q169 277 163 277Q129 277 101 261T57 217T40 155V133Q40 81 75 47T162
12H409Q461 12 496 46T532 133V145Q532 204 496 241T401 279Q388 279 374 274T346 257Q340 253 336 257Q332 261 337 266Q349 278 367 284T401 291Q443 291 475 272T525 220T544 145V133Q544 95 526 65T478 18T409 0H162Z" />
<glyph unicode="&#xd0;" glyph-name="Eth" horiz-adv-x="904" d="M258 0Q212 0 181 32T149 109V214Q149 220 155 220Q161 220 161 214V109Q161 69 189 41T258 12H504Q602 12 665 35T771 101Q815 144 838 207T862 377V426Q862 518 839 578T771 682Q682 771 537
771H532Q481 771 453 744T424 670Q424 663 418 663Q412 663 412 670Q412 713 388 739T319 766H257Q211 766 186 742T160 672V517Q160 507 149 507H128Q92 507 72 487T52 431V366Q52 330 72 311T128 292H564Q571 292 571 286Q571 280 564 280H128Q86 280 63 303T40
366V431Q40 472 63 495T128 519H148V672Q148 721 178 749T257 778H319Q357 778 382 760T418 710Q429 747 459 765T533 783H537Q687 783 780 690Q825 646 849 583T874 426V377Q874 269 850 204T780 93Q735 49 670 25T504 0H258Z" />
<glyph unicode="&#xd1;" glyph-name="Ntilde" horiz-adv-x="787" d="M131 0Q92 0 66 28T40 96V681Q40 720 65 749T131 778H215Q250 778 276 762T321 716L482 474V681Q482 722 508 750T572 778H656Q695 778 721 749T747 681V96Q747 56 721 28T656 0H570Q531 0 505
28T479 96Q479 102 485 102Q491 102 491 96Q491 60 513 36T570 12H656Q689 12 712 36T735 96V681Q735 716 712 741T656 766H572Q538 766 516 741T494 681V457Q494 453 489 452T482 454L311 710Q293 737 270 751T215 766H131Q97 766 75 741T52 681V96Q52 60 74 36T131
12H217Q250 12 273 36T296 96V213Q296 219 302 219Q308 219 308 213V96Q308 56 282 28T217 0H131ZM461 827Q430 827 412 844T379 881Q365 900 350 915T308 930Q286 930 268 917T250 881Q250 875 244 875Q238 875 238 881Q238 911 260 926T308 942Q340 942 357 925T389
888Q403 869 418 854T461 839Q484 839 501 852T518 888Q518 894 524 894Q530 894 530 888Q530 858 508 843T461 827Z" />
<glyph unicode="&#xd2;" glyph-name="Ograve" horiz-adv-x="835" d="M421 -10Q307 -10 219 40T80 182T30 401Q30 521 80 608T218 742T421 789Q509 789 579 760T700 677T778 554T805 401Q805 313 778 238T701 107T580 21T421 -10ZM42 401Q42 278 90 189T225 51T421
2Q535 2 618 54T747 196T793 401Q793 481 767 549T692 668T575 748T421 777Q311 777 225 732T91 602T42 401ZM522 834Q522 830 519 829T513 829L314 926Q310 928 310 932Q310 936 313 937T321 936L518 840Q522 838 522 834Z" />
<glyph unicode="&#xd3;" glyph-name="Oacute" horiz-adv-x="835" d="M421 -10Q307 -10 219 40T80 182T30 401Q30 521 80 608T218 742T421 789Q509 789 579 760T700 677T778 554T805 401Q805 313 778 238T701 107T580 21T421 -10ZM42 401Q42 278 90 189T225 51T421
2Q535 2 618 54T747 196T793 401Q793 481 767 549T692 668T575 748T421 777Q311 777 225 732T91 602T42 401ZM306 837Q303 836 300 837T297 842Q297 846 301 848L498 944Q502 946 505 945T509 940Q509 936 505 934L306 837Z" />
<glyph unicode="&#xd4;" glyph-name="Ocircumflex" horiz-adv-x="835" d="M421 -10Q307 -10 219 40T80 182T30 401Q30 521 80 608T218 742T421 789Q509 789 579 760T700 677T778 554T805 401Q805 313 778 238T701 107T580 21T421 -10ZM42 401Q42 278 90 189T225
51T421 2Q535 2 618 54T747 196T793 401Q793 481 767 549T692 668T575 748T421 777Q311 777 225 732T91 602T42 401ZM280 842Q276 846 282 851L405 944Q410 947 413 947Q417 947 421 944L544 851Q550 846 546 842Q542 838 537 842L413 935L289 842Q284 838 280
842Z" />
<glyph unicode="&#xd5;" glyph-name="Otilde" horiz-adv-x="835" d="M421 -10Q307 -10 219 40T80 182T30 401Q30 521 80 608T218 742T421 789Q509 789 579 760T700 677T778 554T805 401Q805 313 778 238T701 107T580 21T421 -10ZM42 401Q42 278 90 189T225 51T421
2Q535 2 618 54T747 196T793 401Q793 481 767 549T692 668T575 748T421 777Q311 777 225 732T91 602T42 401ZM493 829Q462 829 444 846T411 883Q397 902 382 917T340 932Q318 932 300 919T282 883Q282 877 276 877Q270 877 270 883Q270 913 292 928T340 944Q372
944 389 927T421 890Q435 871 450 856T493 841Q516 841 533 854T550 890Q550 896 556 896Q562 896 562 890Q562 860 540 845T493 829Z" />
<glyph unicode="&#xd6;" glyph-name="Odieresis" horiz-adv-x="835" d="M423 -10Q309 -10 221 39T81 180T30 395Q30 515 79 603T213 740Q179 754 160 784T141 851Q141 903 175 938T261 973Q295 973 322 957T366 914T383 851Q383 834 379 818T366 786Q393 789 421
789Q432 789 443 789T465 787Q450 817 450 851Q450 902 484 937T571 973Q622 973 657 938T692 851Q692 814 673 785T619 741Q707 691 756 600T805 395Q805 279 759 187T626 43T423 -10ZM42 395Q42 274 91 186T226 50T423 2Q537 2 620 53T748 193T793 395Q793 508
743 598T603 736Q599 738 599 742T605 748Q641 759 660 786T680 851Q680 898 649 929T571 961Q524 961 493 930T462 851Q462 813 481 785Q484 781 482 777T474 774Q449 777 421 777Q405 777 390 776T359 773Q352 772 351 776T351 784Q360 800 365 816T371 851Q371
898 340 929T261 961Q215 961 184 930T153 851Q153 815 173 787T227 747Q232 746 232 741T228 734Q143 688 93 602T42 395Z" />
<glyph unicode="&#xd7;" glyph-name="multiply" horiz-adv-x="530" d="M40 144Q34 144 34 150Q34 152 36 154L256 375L36 595Q34 597 34 599Q34 605 40 605Q42 605 44 603L265 383L485 603Q487 605 489 605Q495 605 495 599Q495 597 493 595L273 375L493 154Q495
152 495 150Q495 144 489 144Q487 144 485 146L265 366L44 146Q42 144 40 144Z" />
<glyph unicode="&#xd8;" glyph-name="Oslash" horiz-adv-x="841" d="M450 -10Q386 -10 331 3T219 52L174 -15Q171 -19 168 -19Q165 -19 163 -16T163 -10L541 560Q543 563 547 563Q550 563 551 560T551 553L225 62Q280 28 333 15T450 2Q526 2 589 30T700 110T773
228T799 372Q799 483 762 562T651 702Q647 706 650 711L705 800Q707 803 710 803Q713 803 715 800T715 794L662 708Q736 646 773 566T811 372Q811 293 785 224T710 103T595 20T450 -10ZM30 399Q33 487 63 559T144 682T263 761T406 789Q430 789 453 786T501 776Q505
775 505 771Q505 763 498 765Q452 777 406 777Q307 777 226 730T95 599T42 399Q39 304 68 228T158 101Q161 98 161 95Q161 91 158 91T151 92Q90 143 59 222T30 399Z" />
<glyph unicode="&#xd9;" glyph-name="Ugrave" horiz-adv-x="723" d="M458 839Q458 835 455 834T449 834L250 931Q246 933 246 937Q246 941 249 942T257 941L454 845Q458 843 458 839ZM360 -10Q273 -10 212 15T113 80T58 169T40 262V681Q40 722 67 750T131 778Q137
778 137 772Q137 766 131 766Q98 766 75 742T52 681V262Q52 219 69 173T122 89T217 26T360 2H380Q456 2 511 24T601 84T654 165T671 252V681Q671 716 648 741T591 766H487Q453 766 431 741T408 681V448Q408 442 402 442Q396 442 396 448V681Q396 720 423 749T487
778H591Q630 778 656 749T683 681V252Q683 207 666 161T611 76T517 14T380 -10H360Z" />
<glyph unicode="&#xda;" glyph-name="Uacute" horiz-adv-x="723" d="M360 -10Q273 -10 212 15T113 80T58 169T40 262V681Q40 722 67 750T131 778Q137 778 137 772Q137 766 131 766Q98 766 75 742T52 681V262Q52 219 69 173T122 89T217 26T360 2H380Q456 2 511
24T601 84T654 165T671 252V681Q671 716 648 741T591 766H487Q453 766 431 741T408 681V448Q408 442 402 442Q396 442 396 448V681Q396 720 423 749T487 778H591Q630 778 656 749T683 681V252Q683 207 666 161T611 76T517 14T380 -10H360ZM266 837Q263 836 260
837T257 842Q257 846 261 848L458 944Q462 946 465 945T469 940Q469 936 465 934L266 837Z" />
<glyph unicode="&#xdb;" glyph-name="Ucircumflex" horiz-adv-x="723" d="M360 -10Q273 -10 212 15T113 80T58 169T40 262V681Q40 722 67 750T131 778Q137 778 137 772Q137 766 131 766Q98 766 75 742T52 681V262Q52 219 69 173T122 89T217 26T360 2H380Q456 2
511 24T601 84T654 165T671 252V681Q671 716 648 741T591 766H487Q453 766 431 741T408 681V448Q408 442 402 442Q396 442 396 448V681Q396 720 423 749T487 778H591Q630 778 656 749T683 681V252Q683 207 666 161T611 76T517 14T380 -10H360ZM233 846Q229 850
235 855L358 948Q363 951 366 951Q370 951 374 948L497 855Q503 850 499 846Q495 842 490 846L366 939L242 846Q237 842 233 846Z" />
<glyph unicode="&#xdc;" glyph-name="Udieresis" horiz-adv-x="723" d="M360 -30Q273 -30 212 -5T113 60T58 149T40 242V681Q40 722 67 750T131 778H142Q98 815 98 871Q98 920 130 952T211 984Q260 984 292 952T324 871Q324 831 302 801T242 762Q236 761 235 766T240
773Q272 782 292 808T312 871Q312 915 284 943T211 972Q166 972 138 944T110 871Q110 840 124 817T165 778Q170 775 170 772Q170 766 164 766H131Q98 766 75 742T52 681V242Q52 199 69 153T122 69T217 6T360 -18H380Q456 -18 511 4T601 64T654 145T671 232V682Q671
717 648 741T590 766H567Q561 766 560 771T564 779Q596 798 607 821T619 871Q619 915 590 943T517 972Q473 972 445 944T417 871Q417 838 433 814T476 777Q481 775 481 771T474 765Q446 761 427 737T407 681V448Q407 442 401 442Q395 442 395 448V681Q395 713 412
738T458 773Q433 788 419 813T405 871Q405 920 436 952T517 984Q566 984 598 952T631 871Q631 846 621 822T582 778H590Q629 778 656 749T683 681V232Q683 187 666 141T611 56T517 -6T380 -30H360Z" />
<glyph unicode="&#xdd;" glyph-name="Yacute" horiz-adv-x="697" d="M311 0Q273 0 247 28T220 97V309L50 586Q31 618 31 651T47 714T96 761L116 772Q164 798 212 784T290 724L351 629L407 724Q426 756 456 772T521 789T588 771L604 762Q635 745 651 716T667 654T649
589L541 397Q519 359 489 343T433 326Q426 326 426 332Q426 338 433 338Q458 338 484 352T531 403L639 595Q654 622 654 652T641 709T597 752L581 761Q537 786 490 774T417 718L329 568Q328 565 324 565Q321 565 319 567T318 574L344 617L280 718Q253 760 210 772T121
761L103 751Q57 726 46 681T60 592L230 316Q232 313 232 309V97Q232 61 254 37T311 12H400Q434 12 457 36T480 97Q480 103 486 103Q492 103 492 97Q492 57 466 29T400 0H311ZM246 827Q243 826 240 827T237 832Q237 836 241 838L438 934Q442 936 445 935T449 930Q449
926 445 924L246 827Z" />
<glyph unicode="&#xde;" glyph-name="Thorn" horiz-adv-x="718" d="M130 0Q93 0 67 27T40 96V681Q40 722 66 750T130 778H214Q253 778 279 750T306 681V648H467Q540 648 592 615T671 530T699 417Q699 355 671 302T591 216T467 183H304Q298 183 298 189Q298 195
304 195H467Q535 195 584 225T660 307T687 417Q687 474 661 524T586 605T467 636H300Q294 636 294 642V681Q294 716 271 741T214 766H130Q97 766 75 741T52 681V96Q52 60 74 36T130 12H216Q250 12 273 36T296 96Q296 102 302 102Q308 102 308 96Q308 56 282 28T216
0H130Z" />
<glyph unicode="&#xdf;" glyph-name="germandbls" horiz-adv-x="640" d="M423 -10Q271 -10 271 112Q271 138 280 163T307 208Q310 211 314 210T318 205Q318 202 316 200Q283 164 283 112Q283 2 423 2Q609 2 609 180Q609 240 582 289T511 367T413 396H400Q393 396
393 402Q393 408 400 408Q451 408 492 432T557 497T582 589Q582 675 520 722T345 770H325Q227 770 167 730T80 622T52 466V108Q52 68 80 40T149 12Q156 12 156 6Q156 0 149 0Q120 0 95 14T55 53T40 108V466Q40 556 69 627T160 740T325 782H345Q463 782 528 731T594
589Q594 545 576 507T525 442T452 403Q499 394 537 362T598 283T621 180Q621 -10 423 -10Z" />
<glyph unicode="&#xe0;" glyph-name="agrave" horiz-adv-x="688" d="M244 -10Q186 -10 137 16T59 96T30 232V253Q30 331 57 385T132 469T241 498Q300 498 335 477T393 418Q401 450 429 469T491 488H545Q589 488 618 460T648 388V95Q648 52 618 26T545 0H498Q440
0 415 36Q413 39 414 42T420 45Q424 45 425 42Q445 12 498 12H545Q583 12 609 34T636 95V388Q636 427 610 451T545 476H491Q457 476 432 457T402 403Q412 383 412 357Q412 351 406 351Q400 351 400 357Q400 379 391 397Q372 438 338 462T241 486Q153 486 98 425T42
253V232Q42 153 69 102T142 27T244 2Q306 2 347 29T388 96Q388 101 394 101Q400 101 400 95Q400 66 380 42T324 4T244 -10ZM455 599Q455 595 452 594T446 594L247 691Q243 693 243 697Q243 701 246 702T254 701L451 605Q455 603 455 599Z" />
<glyph unicode="&#xe1;" glyph-name="aacute" horiz-adv-x="688" d="M244 -10Q186 -10 137 16T59 96T30 232V253Q30 331 57 385T132 469T241 498Q300 498 335 477T393 418Q401 450 429 469T491 488H545Q589 488 618 460T648 388V95Q648 52 618 26T545 0H498Q440
0 415 36Q413 39 414 42T420 45Q424 45 425 42Q445 12 498 12H545Q583 12 609 34T636 95V388Q636 427 610 451T545 476H491Q457 476 432 457T402 403Q412 383 412 357Q412 351 406 351Q400 351 400 357Q400 379 391 397Q372 438 338 462T241 486Q153 486 98 425T42
253V232Q42 153 69 102T142 27T244 2Q306 2 347 29T388 96Q388 101 394 101Q400 101 400 95Q400 66 380 42T324 4T244 -10ZM261 594Q258 593 255 594T252 599Q252 603 256 605L453 701Q457 703 460 702T464 697Q464 693 460 691L261 594Z" />
<glyph unicode="&#xe2;" glyph-name="acircumflex" horiz-adv-x="688" d="M244 -10Q186 -10 137 16T59 96T30 232V253Q30 331 57 385T132 469T241 498Q300 498 335 477T393 418Q401 450 429 469T491 488H545Q589 488 618 460T648 388V95Q648 52 618 26T545 0H498Q440
0 415 36Q413 39 414 42T420 45Q424 45 425 42Q445 12 498 12H545Q583 12 609 34T636 95V388Q636 427 610 451T545 476H491Q457 476 432 457T402 403Q412 383 412 357Q412 351 406 351Q400 351 400 357Q400 379 391 397Q372 438 338 462T241 486Q153 486 98 425T42
253V232Q42 153 69 102T142 27T244 2Q306 2 347 29T388 96Q388 101 394 101Q400 101 400 95Q400 66 380 42T324 4T244 -10ZM223 594Q219 598 225 603L348 696Q353 699 356 699Q360 699 364 696L487 603Q493 598 489 594Q485 590 480 594L356 687L232 594Q227 590
223 594Z" />
<glyph unicode="&#xe3;" glyph-name="atilde" horiz-adv-x="688" d="M244 -10Q186 -10 137 16T59 96T30 232V253Q30 331 57 385T132 469T241 498Q300 498 335 477T393 418Q401 450 429 469T491 488H545Q589 488 618 460T648 388V95Q648 52 618 26T545 0H498Q440
0 415 36Q413 39 414 42T420 45Q424 45 425 42Q445 12 498 12H545Q583 12 609 34T636 95V388Q636 427 610 451T545 476H491Q457 476 432 457T402 403Q412 383 412 357Q412 351 406 351Q400 351 400 357Q400 379 391 397Q372 438 338 462T241 486Q153 486 98 425T42
253V232Q42 153 69 102T142 27T244 2Q306 2 347 29T388 96Q388 101 394 101Q400 101 400 95Q400 66 380 42T324 4T244 -10ZM429 590Q398 590 380 607T347 644Q333 663 318 678T276 693Q254 693 236 680T218 644Q218 638 212 638Q206 638 206 644Q206 674 228 689T276
705Q308 705 325 688T357 651Q371 632 386 617T429 602Q452 602 469 615T486 651Q486 657 492 657Q498 657 498 651Q498 621 476 606T429 590Z" />
<glyph unicode="&#xe4;" glyph-name="adieresis" horiz-adv-x="688" d="M466 533Q424 533 398 560T371 628Q371 670 397 697T466 724Q508 724 535 697T562 628Q562 587 535 560T466 533ZM141 628Q141 670 167 697T236 724Q278 724 305 697T332 628Q332 587 305
560T236 533Q194 533 168 560T141 628ZM153 628Q153 591 176 568T236 545Q274 545 297 568T320 628Q320 666 297 689T236 712Q199 712 176 689T153 628ZM383 628Q383 591 406 568T466 545Q504 545 527 568T550 628Q550 666 527 689T466 712Q429 712 406 689T383
628ZM244 -10Q186 -10 137 16T59 96T30 232V253Q30 331 57 385T132 469T241 498Q300 498 335 477T393 418Q401 450 429 469T491 488H545Q589 488 618 460T648 388V95Q648 52 618 26T545 0H498Q440 0 415 36Q413 39 414 42T420 45Q424 45 425 42Q445 12 498 12H545Q583
12 609 34T636 95V388Q636 427 610 451T545 476H491Q457 476 432 457T402 403Q412 383 412 357Q412 351 406 351Q400 351 400 357Q400 379 391 397Q372 438 338 462T241 486Q153 486 98 425T42 253V232Q42 153 69 102T142 27T244 2Q306 2 347 29T388 96Q388 101
394 101Q400 101 400 95Q400 66 380 42T324 4T244 -10Z" />
<glyph unicode="&#xe5;" glyph-name="aring" horiz-adv-x="688" d="M360 523Q314 523 283 554T252 632Q252 679 283 710T360 742Q407 742 438 711T470 632Q470 586 439 555T360 523ZM264 632Q264 591 291 563T360 535Q402 535 430 562T458 632Q458 673 430 701T360
730Q319 730 292 702T264 632ZM318 632Q318 651 330 663T360 676Q378 676 391 664T404 632Q404 615 392 602T360 589Q341 589 330 602T318 632ZM330 632Q330 619 338 610T360 601Q374 601 383 610T392 632Q392 646 383 655T360 664Q347 664 339 655T330 632ZM244
-10Q186 -10 137 16T59 96T30 232V253Q30 331 57 385T132 469T241 498Q300 498 335 477T393 418Q401 450 429 469T491 488H545Q589 488 618 460T648 388V95Q648 52 618 26T545 0H498Q440 0 415 36Q413 39 414 42T420 45Q424 45 425 42Q445 12 498 12H545Q583 12
609 34T636 95V388Q636 427 610 451T545 476H491Q457 476 432 457T402 403Q412 383 412 357Q412 351 406 351Q400 351 400 357Q400 379 391 397Q372 438 338 462T241 486Q153 486 98 425T42 253V232Q42 153 69 102T142 27T244 2Q306 2 347 29T388 96Q388 101 394
101Q400 101 400 95Q400 66 380 42T324 4T244 -10Z" />
<glyph unicode="&#xe6;" glyph-name="ae" horiz-adv-x="1155" d="M244 -10Q185 -10 137 16T59 96T30 234V255Q30 370 88 434T241 498Q345 498 393 419Q401 451 429 469T491 488H545Q586 488 613 463T645 400Q679 444 735 471T865 498Q950 498 1008 466T1095 384T1125
284Q1125 266 1113 254T1081 241H845Q838 241 838 247Q838 253 845 253H1081Q1095 253 1104 261T1113 284Q1113 333 1085 379T1002 455T865 486Q790 486 734 458T647 382Q608 321 608 243Q608 160 648 100Q680 53 736 28T865 2Q957 2 1016 34T1098 124Q1101 129
1105 128Q1111 126 1109 120Q1087 58 1024 24T865 -10Q793 -10 737 14T646 83Q640 49 614 25T545 0H498Q440 0 415 36Q411 41 414 44T420 47Q424 47 425 44Q436 28 453 20T498 12H545Q583 12 609 37T635 98Q596 160 596 243Q596 323 636 386Q633 428 608 452T545
476H491Q457 476 432 457T402 404Q407 393 410 381T413 357Q413 351 407 351Q401 351 401 357Q401 381 390 401Q370 440 332 463T241 486Q153 486 98 426T42 255V234Q42 154 69 103T142 27T244 2Q306 2 346 30T387 105Q387 111 393 111Q399 111 399 104Q399 52
355 21T244 -10Z" />
<glyph unicode="&#xe7;" glyph-name="ccedilla" horiz-adv-x="571" d="M297 -252Q227 -252 194 -222T161 -147Q161 -122 176 -102T217 -77Q208 -72 202 -63T195 -41Q195 -27 203 -16T221 -2Q129 17 79 82T30 249Q31 320 64 375T154 464T287 498Q353 499 409 477T500
413T540 317Q543 283 528 255T487 211T426 194Q382 194 354 210T314 250T301 297Q301 303 307 303Q313 303 313 297Q313 276 324 255T361 220T426 206Q473 206 502 237T528 317Q525 368 492 406T405 465T287 486Q215 485 160 454T74 370T42 249Q40 138 101 74T274
2H301Q386 2 447 31T530 125Q532 129 536 129Q543 129 541 121Q516 51 452 21T301 -10H237Q225 -10 216 -18T207 -41Q207 -57 219 -65T241 -75Q270 -78 284 -95T300 -137Q300 -143 295 -143Q288 -143 288 -137Q287 -112 273 -100T233 -87Q205 -87 189 -104T173
-147Q173 -187 203 -213T297 -240Q355 -240 384 -213T416 -146Q418 -120 406 -94T360 -57Q356 -55 356 -51Q356 -47 359 -46T364 -46Q402 -59 416 -89T428 -147Q426 -190 393 -221T297 -252Z" />
<glyph unicode="&#xe8;" glyph-name="egrave" horiz-adv-x="579" d="M300 -10Q222 -10 161 21T65 109T30 244Q30 314 63 372T156 464T297 499H312Q391 499 443 467T522 385T549 283Q549 265 536 253T505 240H260Q253 240 253 246Q253 252 260 252H505Q519 252
528 260T537 283Q537 332 512 379T438 456T312 487H297Q220 487 163 454T74 366T42 244Q42 170 75 116T167 32T300 2Q385 2 447 32T532 128Q534 132 538 132Q542 132 543 129T543 124Q519 54 454 22T300 -10ZM417 592Q417 588 414 587T408 587L209 684Q205 686
205 690Q205 694 208 695T216 694L413 598Q417 596 417 592Z" />
<glyph unicode="&#xe9;" glyph-name="eacute" horiz-adv-x="579" d="M300 -10Q222 -10 161 21T65 109T30 244Q30 314 63 372T156 464T297 499H312Q391 499 443 467T522 385T549 283Q549 265 536 253T505 240H260Q253 240 253 246Q253 252 260 252H505Q519 252
528 260T537 283Q537 332 512 379T438 456T312 487H297Q220 487 163 454T74 366T42 244Q42 170 75 116T167 32T300 2Q385 2 447 32T532 128Q534 132 538 132Q542 132 543 129T543 124Q519 54 454 22T300 -10ZM194 587Q191 586 188 587T185 592Q185 596 189 598L386
694Q390 696 393 695T397 690Q397 686 393 684L194 587Z" />
<glyph unicode="&#xea;" glyph-name="ecircumflex" horiz-adv-x="579" d="M300 -10Q222 -10 161 21T65 109T30 244Q30 314 63 372T156 464T297 499H312Q391 499 443 467T522 385T549 283Q549 265 536 253T505 240H260Q253 240 253 246Q253 252 260 252H505Q519
252 528 260T537 283Q537 332 512 379T438 456T312 487H297Q220 487 163 454T74 366T42 244Q42 170 75 116T167 32T300 2Q385 2 447 32T532 128Q534 132 538 132Q542 132 543 129T543 124Q519 54 454 22T300 -10ZM169 592Q165 596 171 601L294 694Q299 697 302
697Q306 697 310 694L433 601Q439 596 435 592Q431 588 426 592L302 685L178 592Q173 588 169 592Z" />
<glyph unicode="&#xeb;" glyph-name="edieresis" horiz-adv-x="579" d="M409 533Q367 533 341 560T314 628Q314 670 340 697T409 724Q451 724 478 697T505 628Q505 587 478 560T409 533ZM84 628Q84 670 110 697T179 724Q221 724 248 697T275 628Q275 587 248 560T179
533Q137 533 111 560T84 628ZM96 628Q96 591 119 568T179 545Q217 545 240 568T263 628Q263 666 240 689T179 712Q142 712 119 689T96 628ZM326 628Q326 591 349 568T409 545Q447 545 470 568T493 628Q493 666 470 689T409 712Q372 712 349 689T326 628ZM300 -10Q222
-10 161 21T65 109T30 244Q30 314 63 372T156 464T297 499H312Q391 499 443 467T522 385T549 283Q549 265 536 253T505 240H260Q253 240 253 246Q253 252 260 252H505Q519 252 528 260T537 283Q537 332 512 379T438 456T312 487H297Q220 487 163 454T74 366T42
244Q42 170 75 116T167 32T300 2Q385 2 447 32T532 128Q534 132 538 132Q542 132 543 129T543 124Q519 54 454 22T300 -10Z" />
<glyph unicode="&#xec;" glyph-name="igrave" horiz-adv-x="336" d="M132 0Q94 0 67 28T40 96V390Q40 431 68 459T142 488H196Q241 488 268 460T296 390V96Q296 56 271 28T208 0H132ZM52 96Q52 61 75 37T132 12H208Q240 12 262 36T284 96V390Q284 426 260 451T196
476H142Q101 476 77 451T52 390V96ZM278 851Q278 847 275 846T269 846L70 943Q66 945 66 949Q66 953 69 954T77 953L274 857Q278 855 278 851Z" />
<glyph unicode="&#xed;" glyph-name="iacute" horiz-adv-x="336" d="M132 0Q94 0 67 28T40 96V390Q40 431 68 459T142 488H196Q241 488 268 460T296 390V96Q296 56 271 28T208 0H132ZM52 96Q52 61 75 37T132 12H208Q240 12 262 36T284 96V390Q284 426 260 451T196
476H142Q101 476 77 451T52 390V96ZM65 853Q62 852 59 853T56 858Q56 862 60 864L257 960Q261 962 264 961T268 956Q268 952 264 950L65 853Z" />
<glyph unicode="&#xee;" glyph-name="icircumflex" horiz-adv-x="346" d="M50 593Q47 591 44 592T40 598Q40 601 42 603L170 698Q175 701 180 698L304 603Q306 601 306 598Q306 594 303 593T296 593L175 686L50 593ZM137 0Q99 0 72 28T45 96V390Q45 431 73 459T147
488H201Q246 488 273 460T301 390V96Q301 56 276 28T213 0H137ZM57 96Q57 61 80 37T137 12H213Q245 12 267 36T289 96V390Q289 426 265 451T201 476H147Q106 476 82 451T57 390V96Z" />
<glyph unicode="&#xef;" glyph-name="idieresis" horiz-adv-x="499" d="M364 542Q323 542 296 569T269 637Q269 678 296 705T364 732Q405 732 432 705T459 637Q459 597 432 570T364 542ZM40 637Q40 678 67 705T135 732Q176 732 203 705T230 637Q230 597 203 570T135
542Q94 542 67 569T40 637ZM52 637Q52 600 75 577T135 554Q172 554 195 577T218 637Q218 674 195 697T135 720Q98 720 75 698T52 637ZM281 637Q281 600 304 577T364 554Q401 554 424 577T447 637Q447 675 425 697T364 720Q327 720 304 698T281 637ZM211 0Q173 0
146 28T119 96V390Q119 431 147 459T221 488H275Q320 488 347 460T375 390V96Q375 56 350 28T287 0H211ZM131 96Q131 61 154 37T211 12H287Q319 12 341 36T363 96V390Q363 426 339 451T275 476H221Q180 476 156 451T131 390V96Z" />
<glyph unicode="&#xf0;" glyph-name="eth" horiz-adv-x="571" d="M288 -10Q161 -10 96 53T30 238Q30 361 89 424T262 487Q294 487 323 479T377 456Q381 454 381 450Q381 446 378 445T371 445Q348 459 321 467T262 475Q42 475 42 238Q42 122 104 62T288 2Q350 2
404 29T492 112T529 248Q533 346 497 447T385 634L287 597Q283 596 281 598T278 602Q278 607 281 608L376 644Q351 671 316 698T239 747T150 775Q142 777 142 782Q142 789 150 787Q200 779 244 757T325 706T387 649L497 691Q506 693 506 685Q506 682 503 680L397
639Q473 551 509 449T541 248Q538 163 502 106T410 19T288 -10Z" />
<glyph unicode="&#xf1;" glyph-name="ntilde" horiz-adv-x="634" d="M138 0Q98 0 69 28T40 97V388Q40 429 69 458T138 488H186Q224 488 251 463T283 399Q298 441 337 469T431 498Q479 498 515 475T573 412T594 324V96Q594 56 566 28T496 0Q489 0 489 6Q489 12
496 12Q532 12 557 36T582 96V324Q582 369 563 406T510 464T431 486Q387 486 355 468T305 419T284 354Q284 348 278 348Q272 348 272 354V388Q272 426 247 451T186 476H138Q102 476 77 450T52 388V97Q52 62 77 37T138 12H190Q226 12 250 37T275 97Q275 103 281
103Q287 103 287 97Q287 57 259 29T190 0H138ZM394 578Q363 578 345 595T312 632Q298 651 283 666T241 681Q219 681 201 668T183 632Q183 626 177 626Q171 626 171 632Q171 662 193 677T241 693Q273 693 290 676T322 639Q336 620 351 605T394 590Q417 590 434 603T451
639Q451 645 457 645Q463 645 463 639Q463 609 441 594T394 578Z" />
<glyph unicode="&#xf2;" glyph-name="ograve" horiz-adv-x="585" d="M289 -10Q217 -10 159 22T65 111T30 238V248Q30 321 65 377T158 465T289 498H295Q368 498 426 466T520 377T555 248V238Q555 168 520 112T427 23T295 -10H289ZM42 238Q42 171 75 118T164 33T289
2H295Q365 2 421 33T510 117T543 238V248Q543 318 510 371T421 455T295 486H289Q220 486 164 456T75 372T42 248V238ZM406 589Q406 585 403 584T397 584L198 681Q194 683 194 687Q194 691 197 692T205 691L402 595Q406 593 406 589Z" />
<glyph unicode="&#xf3;" glyph-name="oacute" horiz-adv-x="585" d="M289 -10Q217 -10 159 22T65 111T30 238V248Q30 321 65 377T158 465T289 498H295Q368 498 426 466T520 377T555 248V238Q555 168 520 112T427 23T295 -10H289ZM42 238Q42 171 75 118T164 33T289
2H295Q365 2 421 33T510 117T543 238V248Q543 318 510 371T421 455T295 486H289Q220 486 164 456T75 372T42 248V238ZM184 580Q181 579 178 580T175 585Q175 589 179 591L376 687Q380 689 383 688T387 683Q387 679 383 677L184 580Z" />
<glyph unicode="&#xf4;" glyph-name="ocircumflex" horiz-adv-x="585" d="M289 -10Q217 -10 159 22T65 111T30 238V248Q30 321 65 377T158 465T289 498H295Q368 498 426 466T520 377T555 248V238Q555 168 520 112T427 23T295 -10H289ZM42 238Q42 171 75 118T164
33T289 2H295Q365 2 421 33T510 117T543 238V248Q543 318 510 371T421 455T295 486H289Q220 486 164 456T75 372T42 248V238ZM160 594Q156 598 162 603L285 696Q290 699 293 699Q297 699 301 696L424 603Q430 598 426 594Q422 590 417 594L293 687L169 594Q164
590 160 594Z" />
<glyph unicode="&#xf5;" glyph-name="otilde" horiz-adv-x="585" d="M289 -10Q217 -10 159 22T65 111T30 238V248Q30 321 65 377T158 465T289 498H295Q368 498 426 466T520 377T555 248V238Q555 168 520 112T427 23T295 -10H289ZM42 238Q42 171 75 118T164 33T289
2H295Q365 2 421 33T510 117T543 238V248Q543 318 510 371T421 455T295 486H289Q220 486 164 456T75 372T42 248V238ZM366 578Q335 578 317 595T284 632Q270 651 255 666T213 681Q191 681 173 668T155 632Q155 626 149 626Q143 626 143 632Q143 662 165 677T213
693Q245 693 262 676T294 639Q308 620 323 605T366 590Q389 590 406 603T423 639Q423 645 429 645Q435 645 435 639Q435 609 413 594T366 578Z" />
<glyph unicode="&#xf6;" glyph-name="odieresis" horiz-adv-x="585" d="M406 541Q366 541 339 568T311 636Q311 677 338 704T406 731Q447 731 474 704T502 636Q502 596 475 569T406 541ZM82 636Q82 677 109 704T177 731Q218 731 245 704T272 636Q272 596 245 569T177
541Q136 541 109 568T82 636ZM94 636Q94 599 117 576T177 553Q214 553 237 576T260 636Q260 674 238 696T177 719Q140 719 117 697T94 636ZM323 636Q323 599 346 576T406 553Q444 553 467 576T490 636Q490 673 467 696T406 719Q369 719 346 696T323 636ZM289 -10Q217
-10 159 22T65 111T30 238V248Q30 321 65 377T158 465T289 498H295Q368 498 426 466T520 377T555 248V238Q555 168 520 112T427 23T295 -10H289ZM42 238Q42 171 75 118T164 33T289 2H295Q365 2 421 33T510 117T543 238V248Q543 318 510 371T421 455T295 486H289Q220
486 164 456T75 372T42 248V238Z" />
<glyph unicode="&#xf7;" glyph-name="divide" horiz-adv-x="550" d="M275 454Q235 454 208 481T180 549Q180 590 207 617T275 644Q316 644 343 617T370 549Q370 508 343 481T275 454ZM192 549Q192 512 215 489T275 466Q313 466 335 489T358 549Q358 586 335 609T275
632Q238 632 215 609T192 549ZM8 383Q8 389 14 389H535Q541 389 541 383Q541 377 535 377H14Q8 377 8 383ZM180 216Q180 257 207 284T275 311Q316 311 343 284T370 216Q370 175 343 148T275 121Q235 121 208 148T180 216ZM192 216Q192 179 215 156T275 133Q313
133 335 156T358 216Q358 254 336 276T275 299Q238 299 215 276T192 216Z" />
<glyph unicode="&#xf8;" glyph-name="oslash" horiz-adv-x="587" d="M125 -22Q121 -22 120 -19T120 -13L373 368Q375 371 378 371Q381 371 383 368T383 362L164 32Q191 16 222 9T286 2Q364 2 422 32T512 116T545 241Q544 316 517 365T445 451Q439 456 443 462L483
524Q485 527 488 527Q491 527 493 524T493 518L455 458Q499 420 528 369T557 241Q557 166 523 110T429 22T286 -10Q251 -10 219 -3T158 22L131 -19Q130 -22 125 -22ZM30 239Q29 314 63 372T155 465T286 498Q319 498 355 489Q360 487 360 483Q360 475 352 477Q335
482 319 483T286 486Q216 487 161 455T74 366T42 239Q42 132 120 61Q122 59 122 56Q122 52 119 51T112 52Q32 125 30 239Z" />
<glyph unicode="&#xf9;" glyph-name="ugrave" horiz-adv-x="639" d="M214 -11Q132 -11 86 34T40 159V440Q40 446 46 446Q52 446 52 440V159Q52 85 94 43T213 1Q268 1 306 23T360 82Q368 101 368 121Q368 127 374 127Q380 127 380 121Q380 99 372 78Q374 64 381
54T400 32Q425 12 455 12H501Q536 12 561 36T587 96V390Q587 426 562 451T501 476H455Q420 476 395 451T370 390Q370 384 364 384Q358 384 358 390Q358 431 386 459T455 488H501Q541 488 570 460T599 390V96Q599 56 570 28T501 0H455Q420 0 392 23Q382 32 375 41T364
63Q342 26 299 8T214 -11ZM412 587Q412 583 409 582T403 582L204 679Q200 681 200 685Q200 689 203 690T211 689L408 593Q412 591 412 587Z" />
<glyph unicode="&#xfa;" glyph-name="uacute" horiz-adv-x="639" d="M214 -11Q132 -11 86 34T40 159V440Q40 446 46 446Q52 446 52 440V159Q52 85 94 43T213 1Q268 1 306 23T360 82Q368 101 368 121Q368 127 374 127Q380 127 380 121Q380 99 372 78Q374 64 381
54T400 32Q425 12 455 12H501Q536 12 561 36T587 96V390Q587 426 562 451T501 476H455Q420 476 395 451T370 390Q370 384 364 384Q358 384 358 390Q358 431 386 459T455 488H501Q541 488 570 460T599 390V96Q599 56 570 28T501 0H455Q420 0 392 23Q382 32 375 41T364
63Q342 26 299 8T214 -11ZM201 582Q198 581 195 582T192 587Q192 591 196 593L393 689Q397 691 400 690T404 685Q404 681 400 679L201 582Z" />
<glyph unicode="&#xfb;" glyph-name="ucircumflex" horiz-adv-x="639" d="M214 -11Q132 -11 86 34T40 159V440Q40 446 46 446Q52 446 52 440V159Q52 85 94 43T213 1Q268 1 306 23T360 82Q368 101 368 121Q368 127 374 127Q380 127 380 121Q380 99 372 78Q374 64
381 54T400 32Q425 12 455 12H501Q536 12 561 36T587 96V390Q587 426 562 451T501 476H455Q420 476 395 451T370 390Q370 384 364 384Q358 384 358 390Q358 431 386 459T455 488H501Q541 488 570 460T599 390V96Q599 56 570 28T501 0H455Q420 0 392 23Q382 32 375
41T364 63Q342 26 299 8T214 -11ZM176 590Q172 594 178 599L301 692Q306 695 309 695Q313 695 317 692L440 599Q446 594 442 590Q438 586 433 590L309 683L185 590Q180 586 176 590Z" />
<glyph unicode="&#xfc;" glyph-name="udieresis" horiz-adv-x="639" d="M427 533Q385 533 359 560T332 628Q332 670 358 697T427 724Q469 724 496 697T523 628Q523 587 496 560T427 533ZM102 628Q102 670 128 697T197 724Q239 724 266 697T293 628Q293 587 266
560T197 533Q155 533 129 560T102 628ZM114 628Q114 591 137 568T197 545Q235 545 258 568T281 628Q281 666 258 689T197 712Q160 712 137 689T114 628ZM344 628Q344 591 367 568T427 545Q465 545 488 568T511 628Q511 666 488 689T427 712Q390 712 367 689T344
628ZM214 -11Q132 -11 86 34T40 159V440Q40 446 46 446Q52 446 52 440V159Q52 85 94 43T213 1Q268 1 306 23T360 82Q368 101 368 121Q368 127 374 127Q380 127 380 121Q380 99 372 78Q374 64 381 54T400 32Q425 12 455 12H501Q536 12 561 36T587 96V390Q587 426
562 451T501 476H455Q420 476 395 451T370 390Q370 384 364 384Q358 384 358 390Q358 431 386 459T455 488H501Q541 488 570 460T599 390V96Q599 56 570 28T501 0H455Q420 0 392 23Q382 32 375 41T364 63Q342 26 299 8T214 -11Z" />
<glyph unicode="&#xfd;" glyph-name="yacute" horiz-adv-x="612" d="M196 -240Q178 -240 162 -236T130 -221Q123 -216 128 -211Q132 -207 137 -211Q161 -228 196 -228Q256 -229 287 -173L565 321Q586 358 574 399T519 465Q467 495 426 480T360 424L280 289Q279
286 275 286Q272 286 270 288T270 295L303 355L254 432Q224 479 181 484T93 465Q63 449 49 423T35 369Q35 353 39 333T60 287L188 86Q208 55 228 39T274 17Q282 15 280 9Q279 3 271 5Q245 12 222 30T178 80L50 280Q34 306 29 328T23 369Q23 398 38 426T85 474Q131
501 180 497T264 438L309 367L348 429Q379 479 424 493T525 475Q573 447 585 401T575 315L297 -179Q262 -240 196 -240ZM199 582Q196 581 193 582T190 587Q190 591 194 593L391 689Q395 691 398 690T402 685Q402 681 398 679L199 582Z" />
<glyph unicode="&#xfe;" glyph-name="thorn" horiz-adv-x="654" d="M138 -234Q97 -234 69 -206T40 -137V680Q40 721 69 749T138 778H202Q243 778 271 750T299 680V425Q316 458 353 478T443 498Q495 498 535 468T600 385T624 258V240Q624 174 605 117T546 25T439
-10Q349 -10 300 34T251 141Q251 147 257 147Q263 147 263 141Q263 83 308 43T439 2Q501 2 539 35T594 122T612 240V258Q612 328 590 379T530 458T443 486Q381 486 343 458T299 386Q299 380 293 380Q287 380 287 386V680Q287 716 263 741T202 766H138Q102 766 77
741T52 680V-137Q52 -173 77 -197T138 -222H190Q226 -222 251 -198T276 -137V-53Q276 -47 282 -47Q288 -47 288 -53V-137Q288 -177 260 -205T190 -234H138Z" />
<glyph unicode="&#xff;" glyph-name="ydieresis" horiz-adv-x="612" d="M422 534Q382 534 355 561T327 629Q327 670 354 697T422 724Q463 724 490 697T518 629Q518 589 491 562T422 534ZM98 629Q98 670 125 697T193 724Q234 724 261 697T288 629Q288 589 261 562T193
534Q152 534 125 561T98 629ZM110 629Q110 592 133 569T193 546Q230 546 253 569T276 629Q276 667 254 689T193 712Q156 712 133 690T110 629ZM339 629Q339 592 362 569T422 546Q460 546 483 569T506 629Q506 666 483 689T422 712Q385 712 362 689T339 629ZM196
-240Q178 -240 162 -236T130 -221Q123 -216 128 -211Q132 -207 137 -211Q161 -228 196 -228Q256 -229 287 -173L565 321Q586 358 574 399T519 465Q467 495 426 480T360 424L280 289Q279 286 275 286Q272 286 270 288T270 295L303 355L254 432Q224 479 181 484T93
465Q63 449 49 423T35 369Q35 353 39 333T60 287L188 86Q208 55 228 39T274 17Q282 15 280 9Q279 3 271 5Q245 12 222 30T178 80L50 280Q34 306 29 328T23 369Q23 398 38 426T85 474Q131 501 180 497T264 438L309 367L348 429Q379 479 424 493T525 475Q573 447
585 401T575 315L297 -179Q262 -240 196 -240Z" />
<glyph unicode="&#x2013;" glyph-name="endash" horiz-adv-x="612" d="M36 274Q30 274 30 280Q30 286 36 286H575Q582 286 582 280Q582 274 575 274H36Z" />
<glyph unicode="&#x2014;" glyph-name="emdash" horiz-adv-x="932" d="M36 274Q30 274 30 280Q30 286 36 286H895Q902 286 902 280Q902 274 895 274H36Z" />
<glyph unicode="&#x2018;" glyph-name="quoteleft" horiz-adv-x="266" d="M141 481Q93 481 62 511T31 597Q31 657 61 712Q75 739 97 761T146 793Q148 794 151 793T154 787Q154 783 150 781Q125 773 105 753T71 706Q43 652 43 597Q43 547 70 520T141 493Q178 493
202 517T226 578Q226 614 203 637T142 660Q136 660 136 666Q136 672 142 672Q183 673 210 646T238 578Q238 538 210 510T141 481Z" />
<glyph unicode="&#x2019;" glyph-name="quoteright" horiz-adv-x="266" d="M108 481Q107 481 104 482T101 487Q101 491 106 493Q138 500 161 521T198 568Q212 594 215 622T219 678Q219 728 193 754T122 781Q85 781 61 757T37 696Q37 659 60 637T121 614Q127 614
127 608Q127 602 121 602Q81 602 53 629T25 696Q25 737 53 765T122 793Q170 793 200 763T231 678Q231 650 227 620T208 562Q195 536 169 513T108 481Z" />
<glyph unicode="&#x201a;" glyph-name="quotesinglbase" horiz-adv-x="255" d="M111 -161Q104 -163 104 -155Q104 -151 109 -149Q217 -128 217 7Q217 146 120 146Q85 146 62 123T38 64Q38 26 61 4T120 -19Q126 -19 126 -25Q126 -31 120 -31Q81 -31 54 -5T26 64Q26
104 53 131T120 158Q229 158 229 7Q229 -135 111 -161Z" />
<glyph unicode="&#x201c;" glyph-name="quotedblleft" horiz-adv-x="497" d="M30 597Q30 657 60 712Q74 739 96 761T145 793Q147 794 150 793T153 787Q153 783 149 781Q124 773 104 753T70 706Q42 652 42 597Q42 547 69 520T140 493Q177 493 201 517T225 578Q225
614 202 637T141 660Q135 660 135 666Q135 672 141 672Q182 673 209 646T237 578Q237 538 209 510T140 481Q92 481 61 511T30 597ZM370 478Q322 478 291 508T260 594Q260 653 289 709Q303 736 326 758T375 790Q377 791 380 790T383 784Q383 780 379 778Q354 770
334 750T300 703Q272 649 272 594Q272 544 299 517T370 490Q407 490 431 514T455 575Q455 611 432 634T371 657Q365 657 365 663Q365 669 371 669Q412 670 439 643T467 575Q467 535 439 507T370 478Z" />
<glyph unicode="&#x201d;" glyph-name="quotedblright" horiz-adv-x="502" d="M30 696Q30 737 58 765T127 793Q175 793 205 763T236 678Q236 650 232 620T213 562Q200 536 174 513T113 481Q112 481 109 482T106 487Q106 491 111 493Q143 500 166 521T203 568Q217
594 220 622T224 678Q224 728 198 754T127 781Q90 781 66 757T42 696Q42 659 65 637T126 614Q132 614 132 608Q132 602 126 602Q86 602 58 629T30 696ZM349 478Q348 478 345 479T342 484Q342 488 347 490Q379 497 402 518T439 565Q453 591 456 619T460 675Q460
725 434 751T363 778Q326 778 302 754T278 693Q278 656 301 634T362 611Q368 611 368 605Q368 599 362 599Q322 599 294 626T266 693Q266 734 294 762T363 790Q411 790 441 760T472 675Q472 647 468 617T449 559Q436 533 410 510T349 478Z" />
<glyph unicode="&#x201e;" glyph-name="quotedblbase" horiz-adv-x="495" d="M111 -161Q104 -163 104 -155Q104 -151 109 -149Q217 -128 217 7Q217 146 120 146Q85 146 62 123T38 64Q38 26 61 4T120 -19Q126 -19 126 -25Q126 -31 120 -31Q81 -31 54 -5T26 64Q26
104 53 131T120 158Q229 158 229 7Q229 -135 111 -161ZM348 -161Q341 -163 341 -155Q341 -151 346 -149Q454 -128 454 7Q454 146 357 146Q322 146 299 123T275 64Q275 26 298 4T357 -19Q363 -19 363 -25Q363 -31 357 -31Q318 -31 291 -5T263 64Q263 104 290 131T357
158Q466 158 466 7Q466 -135 348 -161Z" />
<glyph unicode="&#x2022;" glyph-name="bullet" horiz-adv-x="272" d="M136 253Q95 253 66 282T37 352Q37 393 66 422T136 451Q177 451 206 422T235 352Q235 311 206 282T136 253Z" />
<glyph unicode="&#x2039;" glyph-name="guilsinglleft" horiz-adv-x="240" d="M206 141Q204 141 202 143L50 297Q11 335 50 372L202 525Q204 527 206 527Q212 527 212 521Q212 519 210 517L58 364Q42 348 42 335T58 305L210 151Q212 149 212 147Q212 141 206 141Z" />
<glyph unicode="&#x203a;" glyph-name="guilsinglright" horiz-adv-x="240" d="M36 141Q30 141 30 147Q30 149 32 151L184 305Q200 321 200 334T184 364L32 517Q30 519 30 521Q30 527 36 527Q38 527 40 525L192 372Q231 335 192 297L40 143Q38 141 36 141Z" />
</font>
</defs>
</svg>
