<?xml version="1.0" standalone="no"?>
<!DOCTYPE svg PUBLIC "-//W3C//DTD SVG 1.1//EN" "http://www.w3.org/Graphics/SVG/1.1/DTD/svg11.dtd">
<svg xmlns="http://www.w3.org/2000/svg">
<defs >
<font id="StyleScript" horiz-adv-x="568" ><font-face
    font-family="Style Script"
    units-per-em="1000"
    panose-1="0 0 0 0 0 0 0 0 0 0"
    ascent="1000"
    descent="-520"
    alphabetic="0" />
<glyph unicode=" " glyph-name="space" horiz-adv-x="190" />
<glyph unicode="!" glyph-name="exclam" horiz-adv-x="232" d="M147 214Q137 214 137 224L111 650V652Q111 669 125 677T157 685Q175 685 190 677T206 653V650L157 224Q157 214 147 214ZM147 -5Q127 -5 113 9T99 43Q99 63 113 77T147 91Q167 91 181 77T195 43Q195
23 181 9T147 -5Z" />
<glyph unicode="&quot;" glyph-name="quotedbl" horiz-adv-x="364" d="M237 497Q233 497 231 499T228 501L204 688V689Q203 697 215 700T240 703Q255 703 267 700T280 689V688L246 501Q246 497 237 497ZM114 497Q110 497 108 499T105 501L81 688V689Q80 697 92
700T117 703Q132 703 144 700T157 689V688L123 501Q123 497 114 497Z" />
<glyph unicode="#" glyph-name="numbersign" horiz-adv-x="611" d="M162 -6Q153 -6 146 -2T138 12V15L173 211H48Q41 211 38 215T35 225Q35 229 37 235Q39 240 44 246T58 253H180L205 389H75Q61 389 61 404Q61 407 63 413Q65 418 70 424T84 431H212L243 603Q246
616 262 616Q271 616 278 612T286 598V595L257 431H410L441 603Q444 616 460 616Q469 616 476 612T484 598V595L455 431H571Q579 431 581 427T584 417Q584 413 582 407Q581 402 576 396T562 389H447L423 253H544Q552 253 555 248T558 238Q558 234 556 228Q554 224
549 218T535 211H415L379 7Q376 -6 360 -6Q351 -6 344 -2T336 12V15L371 211H217L181 7Q178 -6 162 -6ZM225 253H378L403 389H249L225 253Z" />
<glyph unicode="$" glyph-name="dollar" horiz-adv-x="500" d="M183 -69L188 -14Q182 -14 176 -14T164 -13Q83 -6 44 31T4 124Q4 159 23 186T78 213Q87 213 87 207Q87 203 82 199Q78 195 73 183T66 162Q65 158 65 155T65 148Q65 96 103 66T192 26L221 299Q189
319 159 341T107 388Q85 414 74 443T63 502Q63 552 91 597T172 671Q215 693 263 698L268 749Q269 757 274 761T285 765Q291 765 296 761T301 749L295 698Q353 695 390 663T428 562Q428 535 415 521T387 506Q377 506 370 513T362 537Q362 540 362 543T363 551Q366
565 366 579Q366 613 349 639T292 669L261 366L313 334Q364 303 395 279T441 230T456 169Q456 165 456 162T455 154Q449 86 389 39T222 -13L216 -69Q215 -77 210 -81T199 -85Q193 -85 188 -81T183 -69ZM230 387L259 666Q226 659 201 637T162 583T147 518Q147 496
154 474T177 434Q188 421 201 410T230 387ZM225 22H237Q256 22 274 24T309 33Q342 44 360 66T383 107Q386 119 386 130Q386 161 367 186T318 234T252 279L225 22Z" />
<glyph unicode="%" glyph-name="percent" horiz-adv-x="480" d="M82 -9Q76 -9 71 -7T66 1Q66 2 68 6Q98 62 134 127T208 263T283 401T354 531Q315 519 276 519Q265 519 255 520T234 523Q240 505 240 485Q240 453 227 421T188 367T126 346Q76 346 53 375T30 444Q30
476 44 507T87 560T153 581Q192 581 214 557Q231 550 246 547T276 543Q308 543 335 555T384 587Q388 594 400 597T426 601Q438 601 447 598T456 590Q456 587 455 586Q418 524 373 450T280 296T188 142T110 5Q106 -2 98 -5T82 -9ZM124 372Q146 372 160 388T181 430T188
480Q188 510 179 533T150 556Q128 556 113 539T91 496T83 444Q83 416 93 394T124 372ZM362 38Q312 38 289 67T266 135Q266 167 280 198T323 251T389 272Q434 272 455 244T476 177Q476 145 462 113T423 59T362 38ZM360 63Q382 63 396 79T417 121T424 171Q424 201
415 224T386 247Q364 247 349 230T327 187T319 135Q319 107 329 85T360 63Z" />
<glyph unicode="&amp;" glyph-name="ampersand" horiz-adv-x="738" d="M271 -36Q217 -36 171 -20T94 31Q78 49 68 77T57 138Q57 147 58 156T61 175Q73 234 116 276T218 344T337 379Q311 384 281 390T225 408T181 443T164 506V518Q167 559 191 590T254 644T336
677T422 689Q429 689 435 689T448 688Q493 684 516 661T539 611Q539 588 523 568T471 536Q467 535 464 535T457 534Q446 534 438 538T430 548V549Q432 553 441 555T464 563Q485 571 497 584T509 608Q509 618 499 625T466 635Q459 636 453 636T440 636Q378 636 332
613T261 554T236 485Q236 449 266 423T364 397Q405 397 459 409H462Q483 409 483 392Q483 381 476 368T459 345T443 335H428Q379 335 330 328T237 303T164 251Q142 227 131 200T120 147Q120 111 142 83T211 43Q238 37 272 37Q319 37 371 48T469 81T544 137T573
216Q573 240 558 255T515 270Q511 270 508 270T501 269Q496 268 492 268T486 268H485Q456 264 425 256T374 233T353 193Q353 184 356 175Q357 172 357 169T358 163Q358 150 350 143T332 135Q318 135 311 151Q310 156 310 160T309 168Q309 192 326 213T370 250T429
279T490 299Q511 304 545 313T614 335T670 365Q693 384 693 402Q693 416 678 426T638 439Q632 440 627 440T615 440Q594 440 576 437T546 434H545Q540 434 540 438Q540 447 553 455Q586 473 627 473Q666 473 698 454T731 391Q731 367 711 344T658 307Q636 297 611
291T565 279Q589 271 600 253T612 211Q612 176 589 135T522 55T419 -8T283 -36H271Z" />
<glyph unicode="&apos;" glyph-name="quotesingle" horiz-adv-x="105" d="M31 500Q25 500 25 507Q25 512 28 515Q51 544 59 568T67 608Q67 611 67 613T66 618Q59 615 49 615Q29 615 15 629T1 663Q1 683 15 697T49 711Q79 711 90 695T102 656Q102 616 86 574T43
506Q36 500 31 500Z" />
<glyph unicode="(" glyph-name="parenleft" horiz-adv-x="289" d="M283 -74Q219 -74 176 -47T109 26T73 125T60 234V257Q60 312 68 369T95 481T146 578T225 646T339 671Q354 671 354 665Q354 662 350 659T340 655Q285 655 248 622T187 535T153 422T140 307Q140
298 140 289T139 271Q139 217 145 161T167 57T211 -20T285 -50Q297 -50 297 -60Q297 -64 293 -69T283 -74Z" />
<glyph unicode=")" glyph-name="parenright" horiz-adv-x="289" d="M19 -74Q13 -74 10 -70T6 -60Q6 -50 19 -50Q57 -50 85 -28T131 33T161 118T179 214T186 307V332Q186 385 178 441T149 546T95 625T8 655Q4 655 0 658T-5 665Q-5 671 11 671Q85 671 134 639T212
555T253 439T265 311Q265 291 264 272T261 234Q256 180 242 126T200 26T128 -46T19 -74Z" />
<glyph unicode="*" glyph-name="asterisk" horiz-adv-x="470" d="M237 232Q227 232 217 237T202 252Q197 262 197 271Q197 281 200 291T208 309Q217 328 226 351T236 397Q236 405 235 408Q210 394 189 374T149 331Q141 321 130 314T107 307Q100 307 90 312Q80
318 74 328T67 349Q67 357 72 367Q80 381 95 386T124 392Q148 394 178 399T226 423Q201 437 173 445T116 459Q100 462 85 471T70 500Q70 517 80 530T109 543Q126 543 137 533T157 510Q171 491 190 468T232 438V443Q232 471 226 498T211 552Q206 567 206 579Q206
602 224 612Q236 618 248 618Q258 618 267 614T281 599Q286 589 286 580Q286 570 283 560T275 542Q267 524 257 501T247 454Q247 450 247 447T249 439Q274 453 294 473T333 515Q341 525 352 532T376 539Q384 539 392 535Q415 522 415 498Q415 487 410 479Q402 466
387 461T358 454Q336 452 307 447T259 425Q284 411 311 403T367 390Q384 386 399 378T414 349Q414 333 404 320T375 306Q359 306 347 316T327 339Q314 358 294 381T251 411V406Q251 378 258 352T273 299Q278 286 278 273Q278 263 274 254T259 238Q249 232 237 232Z"
/>
<glyph unicode="+" glyph-name="plus" horiz-adv-x="479" d="M240 130Q234 130 229 133T224 145V284H84Q77 284 74 289T70 300Q70 305 72 311Q74 316 79 323T95 330H224V459Q224 469 231 474T243 482Q249 484 254 484Q260 484 265 481T270 470V330H409Q417 330
420 325T424 313Q424 309 422 303Q420 298 414 291T399 284H270V155Q270 145 263 140T250 132Q244 130 240 130Z" />
<glyph unicode="," glyph-name="comma" horiz-adv-x="199" d="M101 -114Q92 -114 92 -106Q92 -103 93 -101Q101 -82 109 -58T123 -14Q109 -3 101 0T85 15Q77 26 77 41Q77 59 89 75T130 91Q151 91 160 73T170 38Q170 36 170 34T169 30Q162 -15 145 -55T111 -110Q107
-114 101 -114Z" />
<glyph unicode="-" glyph-name="hyphen" horiz-adv-x="359" d="M81 258Q68 258 68 273Q68 277 70 283Q72 288 77 294T91 301H294Q302 301 305 296T308 286Q308 282 306 276Q304 272 299 265T285 258H81Z" />
<glyph unicode="." glyph-name="period" horiz-adv-x="199" d="M126 -5Q106 -5 92 9T78 43Q78 63 92 77T126 91Q146 91 160 77T174 43Q174 23 160 9T126 -5Z" />
<glyph unicode="/" glyph-name="slash" horiz-adv-x="456" d="M44 -38Q36 -38 30 -35T23 -25Q23 -20 25 -17L387 645Q395 659 413 659Q421 659 426 656T432 646Q432 641 430 638L69 -25Q65 -32 58 -35T44 -38Z" />
<glyph unicode="0" glyph-name="zero" horiz-adv-x="465" d="M213 -10Q165 -10 128 17T66 92T29 199T16 321Q16 389 31 454T76 573T153 657T262 689Q278 689 278 680Q278 668 256 667Q219 666 191 634T143 549T113 434T103 305Q103 232 117 167T159 62T230 21Q265
21 291 48T335 119T362 219T371 332Q371 384 364 432T341 519T304 580T252 603Q243 603 232 600Q231 600 230 600T227 599Q216 599 216 612Q216 621 223 632T243 646Q265 651 281 651Q337 651 372 613T425 514T443 380Q443 311 428 243T384 117T311 25T213 -10Z"
/>
<glyph unicode="1" glyph-name="one" horiz-adv-x="332" d="M193 -10Q161 -10 161 92Q161 98 161 104T162 118Q166 213 175 307T191 496Q192 511 192 526T193 554Q165 520 129 488T55 438Q53 437 49 437Q42 437 36 441T29 450Q29 455 36 459Q57 472 86 499T141
562T180 629Q176 634 176 642Q176 655 187 662Q203 673 220 681T238 690Q254 690 262 675T271 636Q271 630 271 624T269 612Q263 583 259 554T251 496Q244 439 240 371T235 238Q235 181 239 134T251 58T274 29Q274 16 258 8T222 -5T193 -10Z" />
<glyph unicode="2" glyph-name="two" horiz-adv-x="493" d="M469 -35Q467 -35 466 -30Q463 -15 450 -3T416 14Q391 20 355 20Q312 20 262 14T166 0T85 -12Q79 -23 59 -23Q55 -23 52 -23T43 -22Q35 -20 31 -12T25 3Q22 14 22 24Q22 47 44 68Q88 111 121 144T181
206T232 267T284 338T344 429Q364 459 378 502T392 582Q392 616 378 638T325 661H320Q290 661 252 641T179 591T122 529T99 473Q99 458 109 448Q113 444 113 441Q113 438 109 438Q105 438 98 442Q91 446 79 462T56 497T46 529V534Q50 551 72 578T125 628Q173 663
219 679T307 696Q356 696 393 676T452 621T474 540Q474 501 456 456T396 363Q347 307 295 263T193 175T99 72Q93 66 91 56Q121 59 158 63T233 72T302 79T352 82H369Q396 82 423 79T467 63T485 20Q485 16 485 13T484 5Q478 -35 469 -35Z" />
<glyph unicode="3" glyph-name="three" horiz-adv-x="520" d="M146 -17Q84 -15 50 11T16 67Q16 102 48 122T121 156Q124 157 126 157T132 158Q150 158 150 144Q150 133 129 122Q102 109 82 93T61 60Q61 50 74 41T120 30H133Q224 30 286 57T381 126T414 207Q414
230 403 251T366 285Q344 297 315 305T241 314Q232 312 220 310T197 306T187 304Q184 304 184 309Q184 312 186 316T191 321Q223 328 259 348T331 397T392 460Q408 480 419 510T430 569Q430 601 413 623T351 646Q326 646 296 634T235 602T178 558T136 510T120 467Q120
452 128 444Q131 441 131 436Q131 432 127 432Q122 432 116 437Q109 441 98 456T77 491T68 524Q68 529 69 531Q74 548 98 574T154 621Q204 654 250 668T337 683Q386 683 422 665T480 616T501 546Q501 514 485 479T431 408Q409 386 377 368T310 336Q357 335 398
325Q445 314 470 280T495 201Q495 164 476 126T416 55T314 3T164 -17H146Z" />
<glyph unicode="4" glyph-name="four" horiz-adv-x="501" d="M340 -10Q309 -10 309 93V118Q311 152 313 184T317 250Q262 246 206 237T102 221T27 213H18Q1 214 1 232Q1 245 10 257T20 269Q33 277 63 307T131 379T209 467T280 557T326 630Q322 635 322 641Q322
648 326 653T335 662Q350 672 367 681T384 690Q401 690 409 675T418 636Q418 630 418 624T416 612Q410 583 406 554T397 496Q391 453 388 403T383 303L384 304Q397 306 411 307T438 308Q476 308 506 296T536 246Q536 242 536 239T535 231Q529 191 518 191Q515 191
513 197Q509 211 495 222T459 241Q426 252 382 252Q383 192 387 142T400 61T423 30Q423 18 406 9T370 -5T340 -10ZM66 268Q106 269 151 273T241 283T321 294Q326 344 330 394T338 496Q339 510 339 524T340 551Q318 519 285 480T212 400T135 325T66 268Z" />
<glyph unicode="5" glyph-name="five" horiz-adv-x="520" d="M182 -20Q125 -20 87 -3T28 41T8 99Q8 132 31 165T102 221T221 243H225Q247 243 247 233Q247 227 229 225Q147 221 108 186T69 109Q69 69 104 37T205 5Q213 5 222 5T240 7Q292 14 329 42T386 111T406
194Q406 259 381 294T314 343T224 357Q207 357 190 356T155 352Q148 351 142 351T131 349L122 347H104Q82 347 82 361Q82 367 85 374Q90 386 94 403T102 432Q113 482 113 532Q113 569 107 596H102Q98 596 93 606T87 628Q87 636 91 642T106 650Q110 651 114 651T124
651Q159 651 211 642T318 633Q344 633 370 636T420 649Q440 657 455 668T474 695Q476 701 479 701Q483 701 487 691T493 661V652Q493 624 477 609T435 588T382 582Q372 582 363 582T345 584Q313 587 271 593T178 600V588Q178 548 172 508T162 428Q161 424 161 420T161
412Q161 408 161 405T162 397Q192 402 223 404T283 406Q357 406 404 382T475 320T498 235Q498 183 469 131T385 39T248 -14Q212 -20 182 -20Z" />
<glyph unicode="6" glyph-name="six" horiz-adv-x="463" d="M227 -26Q170 -26 132 2T71 75T39 174T29 276Q29 284 29 291T30 305Q35 406 60 478T121 595T200 661T281 682Q335 682 368 651T401 565Q401 538 390 500Q386 489 371 478T337 467Q329 467 320 470Q312
473 312 475Q312 477 318 482T330 501Q351 557 351 595Q351 659 297 659Q264 659 227 631T159 539T116 369Q115 353 114 331T112 282Q112 238 117 190T135 100T173 32T235 6Q266 6 290 26T331 78T356 150T365 227Q365 283 345 324T284 366H276Q254 364 230 349T189
303T167 217Q166 192 155 192Q150 192 146 201T141 228Q141 236 142 245T146 266Q163 328 202 363T298 404Q303 405 307 405T316 405Q360 405 389 383T432 325T446 244Q446 167 419 106T342 10T227 -26Z" />
<glyph unicode="7" glyph-name="seven" horiz-adv-x="447" d="M98 -11Q85 -11 77 -5Q68 3 64 21T59 56V64Q59 118 79 170T132 269Q168 321 211 369T297 464T369 553Q376 561 376 576Q346 572 309 567T233 557T164 549T115 545Q89 545 64 548T22 564T5 610Q5 614
5 618T6 627Q11 666 20 666Q23 666 24 661Q28 647 39 635T69 618Q93 612 126 612Q169 612 218 618T312 633T388 644Q390 644 392 644T396 645Q402 645 405 644H415Q427 643 430 631Q432 628 433 625T436 619Q441 604 441 595Q441 574 423 557Q394 528 358 486T284
393T215 290T164 186T145 90Q145 70 151 51T171 31V30Q171 22 159 12T130 -4T98 -11Z" />
<glyph unicode="8" glyph-name="eight" horiz-adv-x="452" d="M200 -12Q149 -12 107 6T41 59T16 147V152Q16 209 40 253T101 328T172 378Q146 394 124 413T89 461T75 534Q75 582 101 615T169 665T253 682Q292 682 327 668T383 624T405 547Q405 505 374 467T299
401Q335 381 366 354T416 292T435 207V202Q435 135 402 87T315 14T200 -12ZM269 418Q307 444 327 474T348 543Q348 597 317 623T249 649Q211 649 179 624T147 552Q147 484 232 438Q251 429 269 418ZM228 34Q285 34 325 69T365 171V174Q365 218 342 249T286 305T221
349Q189 328 161 302T115 242T97 166V163Q97 118 116 90T166 48T228 34Z" />
<glyph unicode="9" glyph-name="nine" horiz-adv-x="451" d="M156 -20Q132 -20 106 -12T61 12T34 53Q33 58 33 62T32 71Q32 87 38 97T52 108Q60 108 64 93Q74 53 100 30T154 7Q200 7 232 28T284 84T317 160T335 243T343 319Q344 331 344 345T345 375Q345 416 340
463T322 553T282 623T215 650Q176 650 150 620T110 543T96 447Q96 406 105 370T135 312T185 290H193Q217 292 246 311T290 371Q296 387 303 387Q310 387 310 372Q310 362 304 347Q286 305 252 281T172 252Q168 251 164 251T154 251Q110 251 80 273T34 332T15 412Q15
417 15 422T14 433Q14 505 40 561T113 650T222 682Q284 682 323 656T385 586T416 492T425 389Q425 337 417 281T391 171T342 74T265 6T156 -20Z" />
<glyph unicode=":" glyph-name="colon" horiz-adv-x="221" d="M152 267Q132 267 118 281T104 315Q104 335 118 349T152 363Q172 363 186 349T200 315Q200 295 186 281T152 267ZM148 -5Q128 -5 114 9T100 43Q100 63 114 77T148 91Q168 91 182 77T196 43Q196 23
182 9T148 -5Z" />
<glyph unicode=";" glyph-name="semicolon" horiz-adv-x="222" d="M153 267Q133 267 119 281T105 315Q105 335 119 349T153 363Q173 363 187 349T201 315Q201 295 187 281T153 267ZM124 -114Q115 -114 115 -106Q115 -103 116 -101Q124 -82 132 -58T146 -14Q132
-3 124 0T108 15Q100 26 100 41Q100 59 112 75T153 91Q174 91 183 73T193 38Q193 36 193 34T192 30Q185 -15 168 -55T134 -110Q130 -114 124 -114Z" />
<glyph unicode="&lt;" glyph-name="less" horiz-adv-x="362" d="M313 78Q309 78 301 81Q288 87 259 104T195 143T128 186T74 220T53 234Q48 237 45 248T42 272Q42 286 45 297T53 313Q61 320 82 339T131 385T188 438T243 489T285 527T301 542Q305 544 306 544Q313
544 313 529Q313 515 305 507Q299 498 278 474T228 419T173 359T128 310T110 291L301 123Q312 119 318 109T324 90Q324 78 313 78Z" />
<glyph unicode="=" glyph-name="equal" horiz-adv-x="562" d="M126 378Q118 378 115 383T111 395Q111 399 113 405Q115 410 121 417T136 424H451Q459 424 462 419T465 409Q465 404 463 398Q462 393 456 386T441 378H126ZM126 197Q118 197 115 202T111 214Q111
218 113 224Q115 229 121 236T136 243H451Q459 243 462 238T465 227Q465 222 463 216Q462 212 456 205T441 197H126Z" />
<glyph unicode="&gt;" glyph-name="greater" horiz-adv-x="389" d="M109 79Q102 79 102 94Q102 108 110 116Q116 124 137 148T187 203T242 263T287 312T305 331L114 500Q104 505 98 515T91 533Q91 545 102 545Q107 545 114 542Q127 536 156 519T220 480T287 437T341
403T362 389Q368 387 370 376T373 351Q373 338 371 326T362 310Q354 303 333 284T284 238T227 185T172 134T130 96T114 81Q110 79 109 79Z" />
<glyph unicode="?" glyph-name="question" horiz-adv-x="366" d="M156 211Q146 211 135 219T120 241Q119 247 118 253T116 267Q116 315 159 374Q180 403 203 443T244 523Q262 564 262 595Q262 630 244 650T195 670Q161 670 138 651T100 604T81 545Q79 538 74 538Q66
538 66 553V556Q71 626 119 666T238 707Q297 707 328 677T359 603Q359 563 343 529T302 468T253 418Q222 390 195 366T152 301Q145 281 145 266Q145 250 151 241T166 227Q171 225 171 221Q171 215 163 212Q161 211 156 211ZM156 -5Q136 -5 122 9T108 43Q108 63
122 77T156 91Q176 91 190 77T204 43Q204 23 190 9T156 -5Z" />
<glyph unicode="@" glyph-name="at" horiz-adv-x="870" d="M469 -24Q288 -24 196 69T104 338Q104 407 127 472T196 590T311 674T473 705Q561 705 623 681T723 615T780 522T798 415Q798 360 783 308T740 214T675 147T594 122Q560 122 539 139T508 185T494 246T490
311Q490 328 490 342T491 370Q484 340 470 300T436 221T394 157T349 131H348Q321 131 307 165T291 245V274Q291 309 297 359T325 453Q349 500 388 523T471 547Q492 547 509 543Q516 553 528 561T561 569Q575 569 588 565Q585 550 579 509T567 414T562 308Q562 266
567 231T584 174T617 153Q648 153 674 188T716 278T732 396Q732 448 719 498T675 590T594 656T471 681Q404 681 351 651T259 571T201 458T181 331Q181 266 196 207T244 101T329 28T456 1Q519 1 579 19T690 71T777 150Q788 165 802 165Q823 165 823 142Q823 127
809 110Q773 68 719 38T600 -8T469 -24ZM381 210Q389 210 397 217T411 234Q446 292 473 358T505 494V502Q505 529 489 529Q460 529 439 509T404 455T380 385T367 314T363 258V251Q363 229 368 220T381 210Z" />
<glyph unicode="A" glyph-name="A" horiz-adv-x="628" d="M613 -66Q582 -63 559 -36T521 37T496 138Q490 176 487 216T482 298Q468 248 447 198T397 106T336 35T263 -1Q248 -4 233 -4Q179 -4 142 32T86 129T67 261Q67 268 67 275T68 289Q69 311 72 332T80 373Q37
381 10 405T-18 475Q-18 503 -4 529T38 571Q40 572 42 572Q48 572 48 566Q48 560 43 557Q27 546 20 524T13 480Q13 447 33 428T89 402Q118 491 177 559T316 669T479 720Q489 721 498 721T515 722Q574 722 599 700T625 644Q625 610 603 571Q596 560 589 549T573
528Q568 489 562 418T555 265Q555 233 556 201T561 137Q564 112 569 84T582 31T600 -10T625 -26H627Q635 -26 641 -21T649 -10Q650 -3 655 -3Q662 -3 662 -14V-21Q662 -66 619 -66H613ZM166 397Q217 399 274 407T388 433T489 483Q491 508 494 529T502 568Q503 571
511 573T531 576Q540 576 549 574T567 566Q568 568 569 570T571 574Q587 606 587 633Q587 663 567 683T501 703Q495 703 489 703T475 701Q419 694 371 666T282 596T213 502T166 397ZM251 26Q255 26 259 26T267 28Q300 34 329 64T384 141T429 241T462 348Q468 373
474 396T485 441L486 456Q438 427 381 408T267 380T158 368Q149 334 146 299Q145 285 145 272T144 244Q144 185 155 135T191 56T251 26Z" />
<glyph unicode="B" glyph-name="B" horiz-adv-x="705" d="M441 -25Q408 -25 384 -16T349 13Q342 9 327 3T297 -3Q282 -3 272 4Q248 21 239 62T226 152Q225 168 225 184T224 218Q224 276 229 337T243 453T262 550T280 615Q282 618 292 620T315 623Q329 623 342
620T361 605Q358 591 347 552T324 456T301 333T288 198V173Q288 139 291 104T304 44T331 18H333Q336 18 339 18T347 20Q345 28 345 33Q345 62 375 98T458 165T580 207Q583 208 585 208T589 208Q600 208 600 203Q600 197 585 194Q547 188 512 171T449 133T405 90T388
55Q388 44 399 39T428 33Q455 33 491 44T561 76T618 127T641 194Q641 225 623 251T561 294T446 311Q427 311 407 308T368 296Q365 296 363 296T358 295Q339 295 331 304T323 325Q323 336 329 344T342 353Q389 355 432 365T517 397Q548 413 582 438T641 496T666
571Q666 600 648 617T599 645T532 658T461 662Q427 662 398 660T351 656Q327 654 283 646T189 625T93 593T18 549T-12 493Q-12 468 8 453T61 437Q94 437 135 454T220 512Q222 514 223 514Q225 514 225 510Q225 504 221 494T207 475Q172 443 129 428T46 412Q36 412
26 413T7 416Q-27 424 -46 448T-66 503Q-66 547 -37 579T39 635T143 673T255 697Q280 701 314 703T386 706Q441 706 498 699T603 675T681 626T711 548Q711 506 688 471T628 407T550 358T473 328Q527 325 576 311T657 263T689 171Q689 123 665 86T603 25T522 -12T441
-25Z" />
<glyph unicode="C" glyph-name="C" horiz-adv-x="647" d="M293 -38Q229 -38 174 -13T83 65T38 204Q37 215 37 226T36 247Q36 314 56 380T114 506T202 611T314 683T445 710H460Q496 709 527 697T578 660T598 590Q598 541 569 495T492 410T386 350T269 327Q265 327
261 327T252 328Q239 329 234 338T228 353Q291 353 352 373T463 434T540 541Q554 575 554 603Q554 632 537 651T477 673H470Q430 673 383 651T290 587T207 490T146 366T123 220V211Q123 132 147 86T213 19T304 -1Q312 -1 319 -1T334 0Q384 5 434 30T527 94T598
177T633 265Q634 270 638 270Q642 270 646 267T650 260V259Q650 214 632 176T589 106Q544 46 474 9T329 -36Q320 -37 311 -37T293 -38Z" />
<glyph unicode="D" glyph-name="D" horiz-adv-x="874" d="M424 0Q396 0 381 12T365 37Q365 45 372 50T394 56Q477 56 555 87T696 171T796 294T833 439Q833 495 809 533T746 596Q689 632 615 648T464 664Q395 664 329 653T208 625Q168 612 133 593T76 550T54 500Q54
475 74 460T127 444Q160 444 201 461T286 519Q288 521 289 521Q292 521 292 516Q292 510 288 500T274 482Q239 450 196 435T113 419Q103 419 93 420T73 423Q39 431 20 455T0 510Q0 550 24 581T89 636T179 676Q239 696 308 708T448 720Q531 720 610 702T752 641Q808
604 841 549T874 422Q874 334 836 258T733 123T588 33T424 0ZM360 -24Q336 -24 322 -6T300 35Q291 64 287 99T283 175Q283 235 290 299T307 421T327 520Q333 546 338 572T353 622Q354 625 357 626T364 627Q371 627 386 624T416 615T434 600V595Q413 533 392 460T357
308T343 150V146Q343 118 343 86T348 25T363 -24H360Z" />
<glyph unicode="E" glyph-name="E" horiz-adv-x="685" d="M288 -56Q226 -56 172 -40T84 15Q70 32 62 56T53 111Q53 138 60 163Q73 208 108 244T189 308T283 352T369 376Q341 381 312 387T258 407T220 444Q132 447 77 468T-3 519T-28 580Q-28 614 0 638T77 663Q106
663 137 650T187 619Q199 607 199 601Q199 596 192 596Q186 596 181 599Q156 614 131 620T80 627Q49 627 31 611T12 571Q12 550 32 527T96 486T212 464Q207 482 207 500Q207 553 232 591T297 656T385 694T479 707Q553 707 595 677T638 606Q638 570 600 534T479
472T261 444Q279 423 315 410T407 396Q430 396 457 398T515 407H519Q546 407 546 388Q546 372 532 354T506 336H491Q441 336 384 327T271 297T172 241T106 153Q93 121 93 96Q93 62 115 43T174 16T250 8Q291 8 330 13T397 26Q469 44 528 77T613 142Q636 169 636
192Q636 216 613 229T554 243Q507 243 447 217T335 130Q326 119 320 119Q315 119 315 125Q315 131 320 140T336 163Q367 198 409 223T497 262T579 276H581Q631 276 657 248T684 179Q684 154 674 128T643 78Q612 42 557 12T433 -37T288 -56ZM250 463H253Q368 463
436 481T535 526T566 580Q566 609 536 630T457 652Q423 652 386 642T317 611T264 561T243 495Q243 477 250 463Z" />
<glyph unicode="F" glyph-name="F" horiz-adv-x="745" d="M574 -53Q544 -53 525 -31T495 28T480 110T475 203Q475 223 475 241T477 279Q472 278 467 278T456 278Q426 278 408 284Q399 287 392 299T380 325T375 346Q375 351 377 351H378Q402 344 426 340T474 336H481Q483
361 485 380T488 413Q494 475 502 530T521 629Q485 634 449 637T374 641Q345 641 315 639T253 629Q192 616 150 589T87 530T66 468Q66 437 91 415T169 392Q177 392 185 392T202 394Q229 398 267 411T345 443T418 486Q421 489 430 489Q434 489 434 486Q434 483 430
477T413 458Q363 409 297 387T166 364Q156 364 147 364T128 366Q73 372 43 408T12 491Q12 526 31 562T89 629T192 678T343 697Q385 697 434 690T534 673Q535 675 535 677T537 682Q538 685 541 685T548 686Q573 686 591 680T610 659Q654 652 695 647T774 641Q809
641 837 647Q854 651 863 661T872 682Q872 696 859 703Q858 704 858 706Q858 711 862 711Q881 711 894 696T908 661Q908 642 891 624T830 601Q803 598 775 598Q732 598 689 603T601 616Q591 570 578 494T553 334Q607 335 659 341T749 362Q754 365 756 365Q763 365
764 359V357Q764 351 757 347T748 341Q730 333 698 323T626 304T547 287Q545 259 543 233T540 181Q540 171 540 160T539 137Q539 103 542 69T556 11T586 -12Q596 -12 604 -6T615 7Q618 15 622 15Q628 15 628 5V3Q628 -21 614 -37T574 -53Z" />
<glyph unicode="G" glyph-name="G" horiz-adv-x="695" d="M378 -297Q341 -297 316 -273T290 -206Q290 -189 295 -169T310 -126Q348 -46 407 16T542 125Q542 143 541 172T539 234T535 295Q518 256 498 218T464 158Q431 108 388 71T299 14T210 -7Q156 -7 121 21T68
97T51 205Q51 255 63 307Q13 317 -20 342T-54 413Q-54 436 -42 454T-13 484T18 501Q20 502 23 502Q30 502 30 497Q30 492 22 487Q9 480 -2 461T-14 425Q-14 392 11 372T71 340Q93 419 138 493T252 621T408 695Q427 699 447 701T486 704Q518 704 546 695T591 665T609
603Q609 549 579 503T503 420T405 359T310 323Q269 313 226 308T145 301Q128 231 128 174Q128 109 151 66T225 23Q259 23 298 44T378 102T452 190Q477 227 496 268T528 355Q532 403 549 425T587 453T621 460H631Q646 460 646 454Q646 452 642 448Q630 438 623 412T613
350T609 278T607 211T606 165Q633 181 654 188T686 196Q691 196 693 195Q700 194 700 185Q700 179 695 179H691Q681 179 660 169T622 144T604 120V109Q604 0 582 -77T526 -203T452 -274T378 -297ZM152 327H161Q230 327 305 347Q340 356 383 380T467 438T534 513T561
596Q561 635 538 653T478 671Q465 671 451 669T420 661Q356 642 303 590T212 469T152 327ZM390 -271Q415 -271 442 -249T491 -177Q519 -112 527 -43T539 98Q527 91 502 71T447 21T391 -43T350 -112Q331 -157 331 -194Q331 -231 348 -251T390 -271Z" />
<glyph unicode="H" glyph-name="H" horiz-adv-x="836" d="M125 -103Q71 -103 35 -83T-20 -30T-38 42Q-38 82 -20 123T36 199Q108 266 197 297T389 337Q396 390 397 433T399 505Q360 471 307 447T198 409T94 396Q30 396 -2 424T-35 489Q-35 519 -14 548T51 596T158
615Q205 615 242 605T299 584Q309 578 309 574Q309 568 297 568Q292 568 289 569Q267 575 234 578T180 582Q107 582 71 553T35 492Q35 466 59 446T130 426Q182 426 233 441T328 479T399 521Q398 533 398 549T397 585Q397 611 401 636T416 678T449 695Q466 695 474
682T482 649Q482 618 465 581T421 524Q423 505 428 455T435 340Q454 341 473 341T512 342Q529 342 547 342T584 340Q610 339 637 338T689 335Q692 391 697 453T710 574T727 682Q728 685 733 685T738 686Q764 686 783 680T802 658Q799 642 791 594T774 477T759 335Q784
335 796 340Q805 344 811 344Q817 344 817 339Q817 332 808 325Q792 314 757 311Q755 286 752 245T749 160Q749 116 754 75T771 8T807 -18Q817 -18 828 -9T841 7Q844 15 848 15Q854 15 854 4V3Q854 -21 836 -33T793 -46Q759 -46 738 -25T705 33T689 115T684 206Q684
261 687 307Q660 307 631 308T572 309Q539 309 505 309T435 306Q434 245 424 183T387 68Q363 20 324 -19T234 -80T125 -103ZM93 -76Q147 -76 191 -49T271 24T331 122Q351 164 364 210T384 301Q301 292 223 265T86 178Q70 162 53 132T25 68T13 2Q13 -31 31 -53T93
-76Z" />
<glyph unicode="I" glyph-name="I" horiz-adv-x="477" d="M159 -14Q107 -14 74 5T24 56T1 125T-6 197Q-6 205 -6 213T-5 230Q-4 245 1 259T20 279Q26 282 34 282Q41 282 50 278T69 264Q91 244 129 223T215 184T308 154Q319 188 327 227T343 311Q352 365 356 418T360
517Q360 549 358 576T353 621Q349 647 338 667T305 688Q276 688 259 663T234 597T226 508Q226 455 234 402T255 309T283 254Q289 248 289 244Q289 238 279 238Q268 238 261 246Q238 271 220 314T192 411T181 517Q181 569 193 614T231 688T299 721H311Q349 721 373
703T411 653T429 584T434 508Q434 471 431 438T426 382Q419 312 404 251T366 142Q380 140 393 139T417 137Q434 137 447 140Q465 145 474 151T490 165Q496 172 503 172Q513 172 513 163V161Q513 142 477 127T370 111H350Q316 53 270 20T165 -14H159ZM170 11Q215
11 245 39T295 118Q252 126 205 139T116 169T45 198Q46 153 56 110T93 39T170 11Z" />
<glyph unicode="J" glyph-name="J" horiz-adv-x="536" d="M197 -126Q148 -126 117 -92T85 13Q85 26 86 39T89 67Q100 139 145 202T261 314T416 388Q417 394 417 399T417 410V429Q417 465 414 506T398 584T362 643T294 666Q290 666 286 666T276 665Q225 659 182
625T111 537T75 424Q74 417 74 411T73 400Q73 358 94 358Q100 358 108 363Q109 364 111 364Q114 364 114 359Q114 351 103 335T68 315H61Q38 315 30 335T21 379Q21 385 21 390T22 401Q28 454 54 507T120 603T208 673T305 700H311Q370 700 406 673T463 601T490 506T498
407V406Q517 408 536 409T575 411Q586 411 598 411T622 409Q638 408 638 401Q638 393 622 393H619Q611 393 602 393T585 394Q563 394 541 392T498 386Q498 379 498 373T497 361Q495 326 485 277T457 172T414 64T356 -32T284 -100T197 -126ZM193 -97Q236 -97 270
-65T329 21T372 136T400 257T414 362Q343 334 286 288T192 186T140 70Q131 30 131 -2Q131 -48 148 -72T193 -97Z" />
<glyph unicode="K" glyph-name="K" horiz-adv-x="606" d="M136 -53Q117 -53 102 -40T76 -7T60 30Q50 70 46 122T41 232Q41 295 45 361T58 488T76 600T98 682Q99 685 102 685T109 686Q135 686 149 678T171 649Q168 636 161 602T144 518T125 412T110 295T101 181Q101
171 101 160T100 137Q100 103 103 69T117 11T147 -12Q157 -12 165 -6T176 7Q179 15 183 15Q189 15 189 5V3Q189 -11 182 -25T160 -47Q148 -53 136 -53ZM505 -9Q476 -9 446 -1T389 22Q344 48 301 88T225 177T172 274Q162 300 156 322T150 366Q150 395 164 422T213
481Q237 502 273 529T353 583T439 633T518 670T577 684H580Q607 684 607 676Q607 670 588 665Q569 661 532 643T451 599T363 544T286 486T241 437Q233 423 228 408T223 376Q223 343 244 304Q285 231 339 168T452 72Q464 65 488 55T533 44Q545 44 553 50T563 71V75Q563
100 548 128T519 175Q509 192 509 199Q509 205 514 205Q526 205 543 186Q553 176 564 162T583 132Q605 92 605 63Q605 26 576 9T505 -9Z" />
<glyph unicode="L" glyph-name="L" horiz-adv-x="500" d="M467 -120Q455 -120 455 -113Q455 -110 459 -108Q468 -104 482 -97T498 -60V-56Q498 -22 471 -9T401 4Q356 4 301 -6T193 -29T97 -52T34 -62Q32 -62 30 -62T26 -61Q19 -59 16 -53T11 -39Q10 -35 10 -26Q10
-16 12 -7T20 5Q36 11 59 17T111 29Q122 46 128 65T139 107Q142 126 143 146T144 187Q144 233 141 283T138 385Q138 459 152 528T215 652Q247 689 291 710T392 731Q447 731 482 700T534 620T551 513Q551 463 538 413T500 322T437 256T352 231Q312 231 281 259T242
348Q241 353 241 358T241 368Q241 388 244 409T254 440Q260 450 269 450Q275 450 275 442Q275 436 272 427Q264 401 264 371Q264 343 272 316T297 272T341 254Q377 254 413 285T474 377T498 526Q498 575 487 616T452 684T394 710Q351 710 319 686T265 620Q246 583
236 534T220 427T211 310T200 196T179 94Q174 78 169 64T155 38Q194 44 236 48T320 52Q376 52 423 43T498 11T527 -51Q527 -83 509 -101T468 -120H467Z" />
<glyph unicode="M" glyph-name="M" horiz-adv-x="1188" d="M1161 -237Q1128 -237 1097 -218Q1051 -189 1033 -131T1015 -2Q1015 61 1025 127T1047 253T1069 356Q1083 424 1097 490T1117 612Q1118 620 1118 626T1118 638Q1118 686 1094 686H1093Q1061 686 1024
653T951 561T883 426Q842 323 824 241T796 83Q793 61 781 48T752 32H748Q738 32 727 37T716 53V56Q728 115 735 171T749 287Q753 322 754 353T756 413Q756 526 733 581T674 636Q633 636 585 561T499 340Q493 315 486 261T472 131T462 -36Q460 -65 420 -65Q402 -65
386 -56T369 -35Q373 -7 380 41T394 150T405 277Q408 328 408 372Q408 499 387 577T330 691T254 728Q218 728 182 703T116 630Q86 584 67 525T47 385Q47 346 63 317T112 288Q132 288 155 301Q156 302 158 302Q164 302 164 294Q164 286 154 280Q120 261 88 261Q48
261 23 292T-2 380Q-2 438 20 509T85 641Q126 699 172 733T271 767Q331 767 370 740T432 667T466 569T480 464T484 369Q506 471 543 543T625 655T710 694Q757 694 789 638T822 458Q822 440 821 420T818 378Q818 374 817 361T815 334Q822 352 831 377T847 417Q870
473 899 529T963 633T1037 708T1118 737H1123Q1198 737 1198 623Q1198 593 1194 556T1178 473Q1175 458 1165 422T1142 336T1116 232T1093 127Q1085 84 1080 42T1075 -38Q1075 -108 1095 -153T1168 -199Q1199 -199 1225 -184T1263 -147Q1266 -141 1271 -141Q1277
-141 1277 -148V-149Q1277 -170 1261 -190T1218 -224T1161 -237Z" />
<glyph unicode="N" glyph-name="N" horiz-adv-x="711" d="M644 -84Q575 -84 546 -28T516 119Q516 167 523 222T543 337Q546 349 555 384T572 465T580 553Q580 592 570 620T530 655Q526 656 522 656T512 657Q476 657 446 630T392 557T350 459T320 352T300 256T290
187Q286 147 282 98T273 -9Q272 -23 254 -35T218 -48H215Q199 -48 186 -42T173 -25Q181 15 188 77T200 210Q202 245 205 293T208 393Q208 453 202 512T181 623T138 706Q113 734 86 734Q63 734 44 712T17 645Q16 635 15 624T13 599Q13 553 24 499T56 397T102 320Q104
318 104 315Q104 312 98 312Q91 312 78 317T54 336Q10 386 -14 454T-38 589Q-38 633 -27 672T10 737Q26 754 45 761T84 769Q115 769 144 754T192 716Q224 676 244 623T274 511T284 396Q284 383 284 370T282 344Q299 415 322 477T374 588T437 662Q491 703 540 703Q594
703 628 657T663 535Q663 513 660 489Q650 420 630 346T596 201Q592 182 587 146T581 71Q581 39 587 10T610 -38T656 -56Q679 -56 693 -42T714 -7Q717 3 724 3Q730 3 730 -4V-6Q730 -36 707 -60T644 -84Z" />
<glyph unicode="O" glyph-name="O" horiz-adv-x="711" d="M359 -37Q295 -37 248 -12T169 56T121 156T105 273Q61 289 33 319T4 396Q4 421 15 438T42 466T71 481Q72 481 73 481T75 482Q82 482 82 474Q82 468 75 465Q63 460 53 441T42 403Q42 373 60 351T106 312Q111
384 136 454T207 580T316 670T464 704Q560 704 606 659T652 548Q652 501 637 462Q667 399 667 317Q667 254 648 192T591 78T494 -5T359 -37ZM240 276Q287 276 338 287T438 321T525 378T584 461Q566 499 534 526T452 563Q448 564 448 567Q448 574 459 574H469Q510
574 543 559T600 518Q603 536 603 555Q603 601 581 628T526 668T467 681Q405 681 355 646T269 553T212 425T186 283Q201 279 215 278T240 276ZM356 -14Q410 -14 456 18T536 102T590 216T609 340Q609 356 608 371T604 400Q564 347 502 314T372 266T243 251Q214 251
185 254V245Q185 176 203 117T259 22T356 -14Z" />
<glyph unicode="P" glyph-name="P" horiz-adv-x="652" d="M329 -59Q306 -59 283 -41T250 14Q240 52 236 101T232 206Q232 284 239 365T257 520T282 643Q265 640 251 638T227 634Q176 625 135 613T69 586T44 552Q44 546 49 536Q51 532 51 529Q51 522 45 522Q37
522 25 534Q16 542 10 560T3 596Q3 622 17 636Q35 654 86 668T203 691Q226 694 265 697T350 700Q409 700 472 693T589 669T678 621T712 540Q712 485 686 433T613 338T503 272T366 247Q350 247 335 248T302 252Q300 233 299 214T297 177Q297 167 297 155T296 130Q296
97 299 63T313 7T343 -16Q353 -16 364 -12T378 -4H385Q383 -31 367 -45T329 -59ZM306 293H319Q378 293 440 312T554 367T638 449T670 553Q670 594 639 616T557 646T451 655Q429 655 407 654T364 651L367 645Q364 632 357 598T340 515T321 409T306 293Z" />
<glyph unicode="Q" glyph-name="Q" horiz-adv-x="645" d="M845 -239Q833 -239 819 -236Q768 -226 720 -198T625 -131T536 -51T450 26Q416 3 375 -10T285 -23Q221 -23 167 12T79 118T46 299Q46 392 70 462T133 580T219 651T310 675Q369 675 412 635T463 512Q463
508 463 504T464 494Q464 466 458 434T440 381Q436 372 430 372Q427 372 424 376Q421 381 421 388Q421 395 424 404Q440 448 440 491Q440 496 440 501T439 512Q435 573 399 608T315 643Q282 643 248 624T186 562T140 452T123 290Q123 188 147 124T211 30T299 0Q335
0 366 13T423 48Q391 74 360 92T296 116Q293 117 290 117T283 117H278Q261 117 246 107T224 94Q211 91 201 91Q186 91 186 99Q186 105 190 110Q200 124 217 133T256 142Q267 142 279 141T305 137Q343 130 380 114T452 77Q499 134 524 218T549 390Q549 455 535 516T491
625T416 702T308 731Q277 731 249 722T194 695Q187 690 182 688T173 686Q169 686 169 690Q169 700 181 710Q210 735 248 747T321 759Q396 759 451 728T543 645T598 527T617 390Q617 296 585 206T488 56Q536 25 581 -10T668 -76T750 -131T827 -161Q841 -164 851
-164Q883 -164 898 -147T913 -104Q913 -96 912 -88T908 -73Q897 -43 864 -7Q861 -4 861 0Q861 7 868 7Q872 7 876 3Q909 -27 931 -70Q946 -98 946 -129Q946 -172 920 -205T845 -239Z" />
<glyph unicode="R" glyph-name="R" horiz-adv-x="712" d="M616 -8Q574 -8 530 19T445 89T372 183T320 280T301 360V362Q301 384 313 384H318L319 383H320Q344 374 376 374Q411 374 449 384T516 408Q546 424 581 446T641 499T666 571Q666 602 645 621T588 650T513
664T436 668Q408 668 384 667T346 664Q325 662 288 657T208 641T121 618T40 587T-19 548T-41 500Q-41 475 -21 460T32 444Q65 444 106 461T191 519Q193 521 194 521Q197 521 197 516Q197 511 193 501T179 482Q144 450 102 435T19 419Q9 419 -1 420T-21 423Q-55
431 -74 455T-94 510Q-94 554 -64 586T17 642T126 681T244 705Q268 709 299 711T365 713Q422 713 482 706T595 680T679 629T711 548Q711 504 686 465T619 397T523 351T415 334Q391 334 368 337Q362 338 357 339T347 341Q360 313 381 278T431 206T492 138T559 88T625
69Q650 69 662 79T675 114Q675 135 663 167T641 222Q640 223 640 226Q640 234 646 234Q651 234 655 227Q663 214 669 202T687 158Q704 110 704 77Q704 37 682 15T616 -8ZM284 -59Q261 -59 239 -41T208 14Q196 71 196 146Q196 211 203 280T222 417T248 539T278 631Q280
634 283 634T289 635H294Q317 635 330 627T350 598Q345 582 333 540T307 440T281 313T263 177Q262 160 261 139T259 97Q259 68 262 42T275 0T300 -16Q310 -16 321 -12T335 -4H342Q339 -31 322 -45T284 -59Z" />
<glyph unicode="S" glyph-name="S" horiz-adv-x="615" d="M233 -40Q216 -40 201 -39T171 -36Q91 -23 56 5T21 67Q21 97 44 127T108 183T202 224T315 240Q331 240 352 238T379 232Q385 229 385 224Q385 217 373 217H367Q357 217 346 218T324 220Q276 220 233 206T157
170T105 122T86 70Q86 42 111 20T195 -11Q206 -12 218 -13T241 -15Q296 -15 346 3T435 50T498 115T521 183Q521 207 508 228T463 265Q427 283 386 295T302 320T222 347T155 386Q134 403 125 425T115 471Q115 500 128 528T163 581Q198 618 245 641T344 677T445 689H449Q544
689 587 660T631 592Q631 562 605 533T532 484T420 464H416Q410 464 406 469T401 479Q401 484 406 484Q450 484 489 504T553 553T578 610Q578 633 555 650T475 668H472Q424 668 375 652T283 610T215 553T189 489Q189 470 200 452T236 419Q268 399 314 386T411 360T506
327T577 278T605 199Q605 189 604 178T600 156Q587 103 548 66T455 5T343 -29T233 -40Z" />
<glyph unicode="T" glyph-name="T" horiz-adv-x="683" d="M572 -55Q549 -55 526 -37T493 18Q483 56 479 104T475 207Q475 275 480 346T495 485T516 604Q475 609 434 613T350 620Q337 621 325 621T301 622Q207 622 141 599T50 539Q37 520 37 499Q37 468 65 441T149
405Q175 401 200 400T247 398Q272 398 290 399T316 402Q319 403 325 403Q340 403 340 397Q340 391 320 384Q295 376 261 370T191 364Q146 364 105 376T37 419T10 504Q10 550 33 581T95 630T178 658T266 670T341 673Q396 673 444 665T528 657H529Q531 664 533 670T537
682Q538 685 541 685T548 686Q574 686 588 678T610 649L608 643Q668 632 739 622T869 611Q883 611 913 613T977 622T1033 643T1057 683Q1057 688 1056 693T1051 703Q1049 705 1049 709Q1049 714 1055 714Q1062 714 1066 707Q1076 691 1076 676Q1076 644 1051 621T987
585T905 572Q823 572 747 578T598 594Q588 548 576 478T553 330T540 181Q540 171 540 160T539 137Q539 103 542 69T556 11T586 -12Q596 -12 607 -8T621 0H628Q626 -27 610 -41T572 -55Z" />
<glyph unicode="U" glyph-name="U" horiz-adv-x="643" d="M589 -73Q566 -73 543 -55T508 0Q495 44 490 105T484 233Q484 240 484 246T485 260Q472 212 453 164T408 74T354 6T290 -29Q278 -32 266 -32Q229 -32 202 -6T158 65T132 169T121 291Q89 271 59 271Q40
271 19 285T-3 334Q-3 359 5 378T23 406Q24 407 26 407Q29 407 29 402Q29 397 25 389Q17 376 17 351Q17 347 17 343T19 334Q24 318 36 311T61 303Q92 303 121 322Q121 340 123 374T132 453T149 543T175 631Q195 684 225 716T286 748Q308 748 317 729T326 675Q326
616 309 564T266 467T210 380Q208 349 207 319T206 259Q206 192 213 136T239 46T289 12Q292 12 295 12T302 14Q331 20 357 48T404 120T442 214T471 319Q476 342 482 368T493 420Q500 497 510 561T534 664Q535 667 538 667T545 668Q571 668 585 660T608 631Q604
615 595 566T576 449T559 306T551 163V152Q551 125 552 94T559 35T574 -12T602 -30Q612 -30 623 -27T636 -19H643Q642 -46 626 -59T589 -73ZM213 417Q251 474 274 544T298 678Q298 708 291 708Q287 708 281 699T270 679T261 660Q243 615 231 550T213 417Z" />
<glyph unicode="V" glyph-name="V" horiz-adv-x="764" d="M362 -43Q340 -43 316 -32T272 2T245 62Q241 80 240 99T238 139Q238 179 242 221T252 303Q253 312 256 340T263 408T267 489Q267 533 261 573T240 638T197 664Q160 664 132 635T86 561T58 464T49 368Q49
330 56 303T76 268Q84 264 84 258Q84 248 70 248Q64 248 56 254Q37 271 23 314T8 413Q8 446 14 479Q21 516 38 555T82 627T150 680T244 701Q290 701 314 677T348 615T358 533Q358 480 350 431T336 355Q327 309 319 255T310 148Q310 132 311 116T315 84Q322 43 340
25T381 7Q438 7 489 54T576 173Q602 226 619 286T646 407T655 521Q655 574 646 615T618 678Q590 686 565 702T540 735Q540 753 575 760Q577 761 580 761T585 761Q604 761 626 751T667 728T690 704Q697 703 708 703T730 702Q741 702 750 702T765 704H767Q772 704
775 700T778 692Q778 686 773 685Q766 684 752 683T722 681Q714 681 707 681T695 683Q706 669 711 645T717 589Q717 544 708 488T681 372T642 256T595 152Q567 98 534 54T459 -16T362 -43Z" />
<glyph unicode="W" glyph-name="W" horiz-adv-x="1044" d="M287 -55Q256 -55 233 -27T204 61Q203 68 203 75T203 89Q203 143 214 206T238 328Q240 338 246 367T260 438T272 524T277 610Q277 660 266 694T225 728Q193 728 166 702T118 633T81 540T57 442T49 356Q49
331 53 314T66 291Q73 287 73 281Q73 269 60 269Q53 269 47 275Q34 290 25 325T16 406Q16 434 20 464T32 525Q43 566 63 608T113 687T183 746T275 768Q311 768 331 750T359 700T368 631Q368 586 360 538T341 449T324 385Q313 344 301 295T282 197T274 102V86Q276
42 289 23T324 3Q361 3 394 31T455 108T507 216T547 340Q540 357 535 391T530 464Q530 507 538 545T567 598Q573 602 581 602Q592 602 604 592T616 553V549Q616 516 610 475T593 387Q596 354 603 307T622 210T653 117T698 46T759 19Q800 19 827 44T870 110T895
194T907 276T910 335Q910 430 893 506T840 627Q822 630 803 639T772 660T759 680Q759 693 790 693Q794 693 799 693T810 692Q872 686 915 628Q929 628 944 628T972 632H975Q985 632 985 623Q985 616 977 613Q959 607 942 607Q938 607 935 607T928 608Q952 566 966
502T980 348Q980 313 973 267T949 172T908 82T847 16T764 -10Q717 -10 682 15T624 81T585 172T561 271Q541 209 514 151T452 47T376 -27T287 -55Z" />
<glyph unicode="X" glyph-name="X" horiz-adv-x="684" d="M67 -90Q66 -90 60 -88Q38 -75 38 -38Q38 -9 51 24Q68 69 103 130T186 262T286 402Q260 471 239 530T202 623Q180 672 160 698T118 725Q113 725 110 724Q73 716 58 680T42 599Q42 557 52 514T79 440T113
402Q119 401 119 394Q119 385 109 385Q104 385 93 391Q72 404 53 438T20 519T7 610Q7 660 27 701T97 755Q118 761 137 761Q191 761 225 722T281 626Q290 604 305 563T339 472Q388 534 435 588T524 684T594 745Q602 750 615 750Q633 750 652 742T671 723V721Q669
708 660 699T642 684Q577 641 504 570T361 416Q387 353 416 289T478 172T542 85T606 52Q631 52 639 70T647 111Q647 131 644 150T639 181Q638 186 638 190T638 197Q638 212 644 212Q652 212 662 187Q667 174 671 158T676 125Q676 121 676 117T677 108Q677 47 650
20T586 -8Q544 -8 506 23T432 106T365 221T307 351Q253 283 207 217T129 95T82 0Q78 -13 76 -30T73 -61V-67Q73 -71 73 -73T74 -78Q74 -82 73 -84Q71 -90 67 -90Z" />
<glyph unicode="Y" glyph-name="Y" horiz-adv-x="764" d="M463 -420Q416 -420 388 -401T347 -351T335 -283Q335 -218 364 -156T430 -41Q483 36 536 87T651 179Q649 194 646 226T639 296T630 372T623 435Q615 409 605 380T584 319Q560 254 530 193T464 84T385 8T295
-21H287Q239 -18 222 21T205 112Q205 153 211 195T226 273T238 328Q240 338 246 367T259 438T272 524T277 610Q277 660 266 694T225 728Q193 728 166 702T118 633T81 540T57 442T49 356Q49 331 53 314T66 291Q73 287 73 281Q73 269 60 269Q53 269 47 275Q34 290
25 325T16 406Q16 434 20 464T32 525Q43 566 63 608T113 687T183 746T275 768Q311 768 331 750T359 700T368 631Q368 586 360 538T341 449T324 385Q321 373 313 344T295 277T279 198T272 123Q272 86 283 61T322 33H327Q363 33 399 62T467 140T527 252T572 381Q588
439 594 491T604 583T616 647T645 671Q649 671 652 666T656 661H657Q660 661 663 641T668 593T671 545T674 521Q677 514 681 489T693 419Q701 367 708 317T721 218L725 220Q739 228 751 230T771 232Q779 232 785 230T793 220Q793 216 789 214T779 212Q765 211 750
205T725 193Q731 132 731 53Q731 0 724 -63T699 -190T651 -305T574 -388T463 -420ZM467 -393Q517 -393 551 -369T608 -302T642 -208T660 -101T665 7Q665 53 663 92T657 158Q614 131 567 82T478 -27T411 -150T385 -270Q385 -300 393 -328T419 -374T467 -393Z" />
<glyph unicode="Z" glyph-name="Z" horiz-adv-x="607" d="M528 -136Q525 -136 525 -134V-133Q539 -120 557 -99T590 -55T605 -13Q605 3 590 12T550 27T500 35T451 37Q439 37 429 37T413 36Q323 29 240 16T85 -19Q76 -22 67 -22Q55 -22 40 -13T25 15Q25 27 34 40Q60
91 106 155T208 287T323 420T435 542T526 635Q531 637 535 639T543 643Q512 645 467 655T353 666Q332 666 308 665T258 659Q208 652 172 631T117 583T98 532Q98 510 116 495T173 479H186Q206 481 235 489T297 512T357 543Q359 545 365 545Q368 545 368 543Q368
541 364 536T348 520Q308 486 262 471T174 455Q151 455 128 460Q93 468 73 495T52 558Q52 596 79 634T165 698T322 724H344Q422 721 484 713T595 701Q609 700 615 692T622 674Q622 658 608 650Q571 629 522 585T419 483T314 362Q244 274 191 202T99 72Q121 76 167
82T273 95T392 101Q456 101 512 91T604 56T639 -15Q639 -49 618 -77T567 -123Q561 -127 548 -131T528 -136Z" />
<glyph unicode="[" glyph-name="bracketleft" horiz-adv-x="356" d="M195 -107Q167 -107 144 -102T110 -82Q92 -59 83 -22T69 57T63 140T60 212Q60 220 60 229T59 248Q59 290 62 340T71 444T87 546T111 634Q118 652 151 660T230 669T324 671H339Q354 671 354 661Q354
655 350 650T340 644Q306 644 274 643T218 636T187 614Q174 587 166 544T152 452T144 359T140 286Q139 273 139 259T139 230Q139 184 142 133T154 35T178 -43Q188 -62 212 -68T265 -74Q285 -74 304 -73T338 -71Q350 -71 350 -81Q350 -86 346 -91T336 -96Q308 -97
270 -102T195 -107Z" />
<glyph unicode="\" glyph-name="backslash" horiz-adv-x="438" d="M404 -38Q397 -38 390 -35T379 -25L18 638Q16 641 16 646Q16 652 22 655T36 659Q54 659 62 645Q102 572 148 487T242 314T336 141T423 -17Q425 -20 425 -25Q425 -31 419 -34T404 -38Z" />
<glyph unicode="]" glyph-name="bracketright" horiz-adv-x="336" d="M17 -96Q2 -96 2 -86Q2 -80 7 -74T16 -68H27Q59 -68 89 -67T140 -59T169 -38Q182 -12 191 31T205 123T212 216T216 290Q216 302 216 315T217 343Q217 390 214 442T202 541T178 619Q168 638
144 644T91 650Q72 650 53 649T18 647Q6 647 6 656Q6 669 20 671Q48 673 86 678T162 683Q190 683 212 678T246 658Q264 635 273 598T287 519T293 435T296 363Q296 355 296 347T297 328Q297 286 294 236T285 132T269 30T245 -58Q238 -76 205 -84T125 -94T30 -96H17Z"
/>
<glyph unicode="^" glyph-name="asciicircum" horiz-adv-x="408" d="M328 516Q319 516 309 518T294 525Q270 554 246 582T195 639L81 526Q77 522 71 521T60 519Q50 519 50 523Q50 525 51 526Q68 545 92 572T141 627T183 674T202 694H211Q245 652 279 610T347 525Q348
524 348 522Q348 519 342 518T328 516Z" />
<glyph unicode="_" glyph-name="underscore" horiz-adv-x="849" d="M-7 -86Q-21 -86 -21 -71Q-21 -68 -19 -62Q-17 -57 -12 -51T2 -44H849Q857 -44 859 -48T862 -58Q862 -63 860 -69Q859 -73 854 -79T840 -86H-7Z" />
<glyph unicode="`" glyph-name="grave" horiz-adv-x="333" d="M250 496Q249 496 249 496T248 497L74 585Q70 586 70 591Q70 600 84 612T110 625Q115 625 118 622L259 506Q260 505 260 504Q260 502 257 499T250 496Z" />
<glyph unicode="a" glyph-name="a" horiz-adv-x="370" d="M309 -5Q278 -5 259 14T230 64T215 126T211 182Q199 137 181 94T140 24T92 -4H91Q67 -4 51 18T27 78T19 158V168Q19 208 26 256T51 349T100 421T181 450Q200 450 215 442T238 417Q245 425 257 430T286
435Q292 435 299 434T315 431Q309 408 301 368T288 281T282 188V184Q282 165 284 139T291 88T305 46T328 29H329Q337 29 346 37T367 67Q382 96 395 142Q397 151 403 151Q408 151 408 139V135Q406 109 394 76T361 19T309 -5ZM126 78Q142 78 155 101T180 157T199
221Q211 267 215 314T232 408Q220 421 205 421Q183 421 160 399T124 349Q108 314 101 267T93 177Q93 166 93 155T95 134Q97 104 106 91T126 78Z" />
<glyph unicode="b" glyph-name="b" horiz-adv-x="318" d="M140 -5Q124 -5 110 -1T86 15Q82 19 82 29Q82 39 87 39Q90 39 94 35Q107 22 124 22Q140 22 153 33Q173 49 184 78T202 141T210 210Q211 219 211 232T211 261Q211 286 209 311T199 354T178 371Q166 371
155 356T135 318T119 275T109 242Q99 211 90 170T77 95Q76 71 73 52T62 21Q45 -4 19 -4Q21 4 22 25T24 75Q25 92 25 110T26 148Q26 214 23 286T18 432Q18 443 17 464T16 510Q16 537 17 567T23 625Q27 650 37 682T66 737T114 761Q142 761 156 748T175 714T181 670Q181
657 180 644T177 619Q173 580 157 524T120 409T75 302L78 181Q84 216 95 259T123 344T160 411T207 438Q245 438 262 403T284 317Q285 307 285 296T286 271Q286 233 281 190T264 108T229 39T174 0Q159 -5 140 -5ZM74 351Q93 397 110 446T133 524Q135 530 137 550T142
595T145 645Q145 671 141 689T125 708Q115 708 107 685T93 626T82 547Q78 504 76 462T74 379V351Z" />
<glyph unicode="c" glyph-name="c" horiz-adv-x="260" d="M155 -19Q109 -19 82 3T42 61T26 137Q25 144 25 151T25 166Q25 207 33 254T62 342T115 410T196 436Q225 436 243 414T262 362Q262 331 252 317T228 302Q204 302 204 353Q204 373 198 390T175 407Q156 407
144 389T123 342T111 282T105 223T103 180V176Q103 136 111 101T138 45T189 24Q248 24 277 124Q280 136 288 136Q295 136 295 122Q295 115 292 104Q276 49 243 15T155 -19Z" />
<glyph unicode="d" glyph-name="d" horiz-adv-x="370" d="M306 -5Q270 -5 252 25T227 102T220 200Q207 152 187 105T143 27T91 -4Q67 -4 52 18T30 78T23 158Q23 189 28 228T44 306T74 377T123 430T192 450Q215 450 229 440Q231 493 234 542T241 619Q244 638 249
662T265 708T291 746T329 761Q357 761 371 748T390 714T396 670Q396 657 395 644T392 619Q386 570 369 511T330 397T286 301Q285 294 284 270T283 214Q283 184 284 152T291 92T304 47T327 29Q341 29 352 42T372 76T386 114T395 142Q397 150 403 150Q408 150 408
139V134Q408 107 396 75T361 19T306 -5ZM284 345Q303 386 320 437T348 543T360 644Q360 652 360 659T359 673Q358 687 353 697T340 708Q336 708 330 702T318 678Q315 669 311 638T302 564T293 478T287 400T284 351V345ZM126 78Q143 78 158 102T185 162T206 228Q217
268 221 308T227 390L228 418Q222 421 214 421Q192 421 169 400T132 349Q114 311 106 260T97 164Q97 157 97 149T98 134Q100 104 108 91T126 78Z" />
<glyph unicode="e" glyph-name="e" horiz-adv-x="263" d="M160 -19Q112 -19 83 10T40 83T26 169Q26 217 36 265T67 354T122 418T200 443Q232 443 250 424T268 368Q268 318 244 280T182 217T105 184V179Q105 138 113 103T141 46T193 24Q232 24 253 56T286 139Q287
143 289 146T294 150Q303 150 302 137Q299 110 290 86T271 45Q252 14 226 -2T160 -19ZM106 207Q138 215 162 238T199 294T213 359V364Q213 382 208 398T187 414Q169 414 156 397T133 352T117 296T109 243T106 208V207Z" />
<glyph unicode="f" glyph-name="f" horiz-adv-x="242" d="M156 -328Q120 -328 99 -312T67 -270T51 -215T44 -158Q43 -141 42 -98T41 4Q41 24 41 49T42 117T44 231Q45 275 48 330T57 444T74 558T100 658T138 728T191 754Q216 754 231 738T253 700T260 657Q260 611
247 554T211 434T162 312T111 201Q110 191 110 182T109 162Q152 160 181 134T228 68T253 -17T261 -103Q261 -163 249 -214T214 -296T156 -328ZM115 261Q150 336 177 413T219 572Q223 594 225 614T228 651Q228 671 224 683T212 696H211Q199 696 188 675T169 618Q150
533 137 442T115 261ZM157 -308Q175 -308 189 -286T211 -228T219 -149Q219 -113 216 -68T202 22T169 98T107 138Q104 71 104 8Q104 -83 110 -154T129 -267T157 -308Z" />
<glyph unicode="g" glyph-name="g" horiz-adv-x="385" d="M109 -368Q54 -368 31 -341T7 -272Q7 -241 18 -207T46 -138Q69 -93 107 -55T185 12T254 60V67Q254 85 253 116T249 181T245 241Q243 234 241 228T237 215Q228 181 216 142T188 70T152 15T106 -7Q80 -7
64 9T40 49T29 100T26 147Q26 227 44 299T109 414Q129 433 150 441T191 449Q214 449 233 440T265 415Q277 429 292 432T319 436H331Q346 436 346 430Q346 428 342 424Q332 415 327 389T319 328T317 254Q317 211 318 172T319 110V99Q347 116 369 126T402 137Q404
137 405 137T407 136Q412 135 412 129Q412 125 410 122T404 118Q392 117 372 106T334 80T317 54V38Q317 -100 289 -190T213 -324T109 -368ZM132 74H135Q154 74 169 99T197 162T219 242T235 317T244 366Q248 390 258 406Q247 420 227 420Q197 420 176 401T140 351T117
286T104 220T100 167Q100 160 100 145T104 114T113 86T132 74ZM98 -347Q147 -347 180 -300T231 -168T255 35Q239 26 206 -2T138 -71T78 -166Q65 -195 58 -222T51 -273Q51 -306 63 -326T98 -347Z" />
<glyph unicode="h" glyph-name="h" horiz-adv-x="359" d="M279 -5Q252 -5 234 12T210 58Q208 69 207 82T206 109Q206 141 209 175T218 241T226 292Q229 310 229 329Q229 346 226 359T213 372Q208 372 200 366T181 346Q162 321 142 273T110 165Q109 156 107 136T103
93T99 52T94 29Q84 10 69 3T40 -4Q42 4 43 25T45 75Q47 99 47 122T47 170Q47 224 45 278T39 385Q38 402 37 431T35 496Q35 539 39 585T54 671T85 735T139 760Q177 760 191 731T205 659Q205 616 196 568T175 480T157 424Q144 387 128 349T94 277L97 202Q108 248
125 291T170 375Q185 398 207 420T260 443Q290 443 300 423T310 379Q310 354 305 334Q304 326 299 303T289 248T279 182T275 117Q275 90 280 68Q289 33 311 33Q317 33 327 38Q348 51 359 74T380 129Q384 140 392 140Q397 140 397 130V126Q397 119 394 108T386 85Q373
48 348 22T281 -5H279ZM93 319Q115 368 133 422T162 531T173 630V640Q172 669 167 688T149 707Q134 707 122 665T103 563Q97 511 95 460T93 358V319Z" />
<glyph unicode="i" glyph-name="i" horiz-adv-x="173" d="M119 506Q100 506 86 520T71 554Q71 574 85 588T119 602Q139 602 153 588T167 554Q167 534 153 520T119 506ZM112 -5Q76 -5 56 25T27 103T18 203Q18 246 22 286T33 357T46 401Q52 413 65 423T102 434Q115
434 128 431Q118 396 104 334T90 197Q90 171 91 142T96 87T108 45T131 29H132Q140 29 149 37T170 67Q185 96 198 142Q200 151 206 151Q211 151 211 139V135Q209 109 197 76T164 19T112 -5Z" />
<glyph unicode="j" glyph-name="j" horiz-adv-x="199" d="M114 506Q94 506 80 520T66 554Q66 574 80 588T114 602Q134 602 148 588T162 554Q162 534 148 520T114 506ZM-70 -368Q-125 -368 -148 -341T-172 -272Q-172 -241 -161 -207T-133 -138Q-110 -93 -72 -55T6
12T75 60V68Q75 85 74 114T71 179T66 247Q65 265 63 287T61 331Q61 350 63 368T72 399Q83 424 100 431T132 438Q138 438 143 438T152 436Q166 435 166 429Q166 427 163 424Q153 415 148 389T140 328T138 254Q138 211 139 172T140 110V99Q168 116 190 126T223 137Q225
137 226 137T228 136Q233 135 233 129Q233 125 231 122T225 118Q213 117 193 106T155 80T138 54V38Q138 -100 110 -190T34 -324T-70 -368ZM-81 -347H-78Q-44 -347 -20 -324T22 -264T49 -182T65 -95T73 -17T76 35Q60 26 27 -2T-41 -71T-101 -166Q-114 -195 -121
-222T-128 -273Q-128 -306 -116 -326T-81 -347Z" />
<glyph unicode="k" glyph-name="k" horiz-adv-x="334" d="M267 -5Q227 -5 205 18T168 77Q157 103 148 134T134 192T126 234Q126 236 126 236T127 238H126Q107 186 94 137T75 61Q75 59 73 57Q70 32 62 21Q45 -4 19 -4Q21 4 22 25T24 75Q25 95 25 115T26 157V168Q26
227 24 281T18 385Q17 402 16 431T14 496Q14 539 18 585T33 671T64 735T118 760Q156 760 170 731T184 659Q184 616 175 568T154 481T136 424Q123 387 107 349T73 278Q75 251 76 220T78 156Q89 201 105 254T145 355T198 435T265 466Q297 466 307 447T317 407Q317
380 296 349T246 291T188 250Q190 236 197 210T214 154T237 97T265 53T296 36Q310 36 319 48T333 71Q346 99 359 142Q363 151 367 151Q372 151 372 139V135Q371 114 363 88T340 39Q328 20 311 8T273 -5H267ZM72 315Q94 365 112 420T141 529T152 629V640Q151 669
146 688T128 707Q116 707 107 683T90 617Q84 580 81 537T75 453T72 381T71 336Q71 332 71 327T72 315ZM130 248Q168 254 196 277T241 329T258 376Q258 395 241 395Q223 395 206 378T173 335T147 286T130 248Z" />
<glyph unicode="l" glyph-name="l" horiz-adv-x="200" d="M127 -4Q91 -4 70 19T39 74T27 135Q25 162 24 192T23 257Q23 319 26 385T37 513T56 625Q62 650 75 682T109 737T159 761Q218 761 218 672Q218 637 207 572T165 425Q150 383 130 341T89 263Q88 255 88 247T88
230Q88 196 90 161T99 97T118 49T149 31Q171 31 184 49T205 85Q209 94 212 105T220 128Q224 139 231 139Q236 139 236 128V126Q236 119 234 108T227 86Q215 49 192 23T127 -4ZM90 306Q116 359 138 418T173 536T187 641Q187 670 183 689T166 708Q155 708 146 686T128
626T114 547T103 463T96 390T92 344Q92 338 92 329T90 306Z" />
<glyph unicode="m" glyph-name="m" horiz-adv-x="526" d="M48 -8Q21 -8 21 28Q21 34 21 41T23 56Q26 73 28 104T31 175T33 254Q33 298 31 336T21 397Q31 399 43 408T69 420Q72 421 77 421Q94 421 98 403T103 359Q103 341 103 317T100 274Q111 306 124 329T152
375Q173 407 195 425T238 443Q262 443 269 429T277 393Q277 379 276 364T273 333L267 244L277 274Q288 306 301 329T329 375Q350 407 372 425T415 443Q443 443 451 425T459 379Q459 368 459 357T457 333Q456 319 453 277T448 185Q448 181 448 169T447 142Q447 119
449 94T459 50T481 32Q500 32 513 50T534 92T546 128Q550 140 556 140Q562 140 562 128V126Q562 119 560 108T553 86Q541 49 519 22T455 -6Q421 -6 405 15T383 67T377 124V142Q379 186 380 218T382 285Q382 290 382 297T383 313Q383 332 380 350T366 368Q358 368
340 346Q324 324 308 285T280 196T269 92Q269 73 270 55T276 17Q274 16 269 14T255 12Q244 12 232 19T212 48Q205 68 203 90T200 137Q200 172 203 208T208 279V294Q208 307 207 323T202 352T188 365Q177 365 163 346Q146 324 128 282T98 186T86 75Q86 41 92 6Q81
0 70 -4T48 -8Z" />
<glyph unicode="n" glyph-name="n" horiz-adv-x="345" d="M54 -8Q40 -8 31 2T21 38Q21 42 21 46T22 56Q24 74 26 106T30 178T32 258Q32 300 30 337T21 397Q29 399 42 408T69 420Q72 421 77 421Q94 421 98 403T103 359Q103 341 103 317T100 274Q111 306 124 329T152
375Q167 398 184 420T230 443Q260 443 269 423T278 379Q278 366 277 355T275 333Q275 326 272 297T266 228T263 148Q263 137 264 118T268 79T278 46T299 32Q307 32 317 38Q328 46 336 59T350 85Q354 94 358 105T365 128Q369 140 376 140Q381 140 381 130V126Q381
119 379 108T372 86Q360 49 337 22T271 -6Q243 -6 228 15T205 71Q201 90 200 109T198 147Q198 194 204 240T211 330Q211 344 208 356T192 369Q180 369 163 346Q146 324 128 282T98 186T86 76Q86 42 92 7Q85 2 74 -3T54 -8Z" />
<glyph unicode="o" glyph-name="o" horiz-adv-x="294" d="M137 -10Q103 -10 82 8T49 55T33 118T28 186Q28 211 30 232T33 270Q38 312 55 354T105 425T192 454Q229 454 249 430T278 368T287 287Q287 245 282 206T269 142Q261 111 243 76T199 15T137 -10ZM170 45Q191
45 205 65T230 111T244 155Q248 171 250 195T253 246Q253 287 244 326T211 382Q199 390 199 401Q199 409 205 416T215 426Q205 433 196 433Q178 433 164 413T141 365T126 312T119 276Q118 265 116 243T114 193Q114 159 118 125T135 68T170 45Z" />
<glyph unicode="p" glyph-name="p" horiz-adv-x="330" d="M-1 -344Q-36 -344 -50 -310T-65 -226Q-65 -205 -63 -182T-57 -135Q-52 -103 -43 -72T-24 -13Q-10 27 7 62T25 141V145Q25 204 21 255T10 343T-3 397Q17 403 31 411T57 420H62Q81 420 86 401T92 354Q93
336 93 307T94 243Q108 293 127 340T169 417T216 448Q246 448 262 427T286 375T295 312T297 259Q297 217 289 172T262 88T214 25T142 0Q113 0 98 12V-32Q98 -63 98 -88T97 -130Q94 -193 86 -233Q76 -282 56 -313T2 -344H-1ZM127 27Q143 27 156 37Q179 55 193 95T214
176Q217 193 218 217T220 266Q220 309 213 343T186 378Q174 378 162 357T137 302T115 230T96 156Q97 127 97 98T97 40Q110 27 127 27ZM-5 -312Q1 -312 7 -304T19 -276Q26 -250 28 -209T31 -123Q31 -74 29 -28T25 50Q16 29 5 0T-14 -61Q-24 -97 -30 -134T-37 -210Q-37
-242 -31 -274Q-28 -288 -21 -300T-5 -312Z" />
<glyph unicode="q" glyph-name="q" horiz-adv-x="331" d="M304 -327Q272 -327 251 -305T218 -246T202 -161T197 -64Q197 12 203 83T214 195Q205 163 193 128T164 63T129 15T91 -4H90Q62 -4 46 32T25 114Q24 124 24 135T23 158Q23 200 30 251T54 348T101 424T178
454Q195 454 211 448T242 428Q248 438 257 444T285 451Q300 451 316 447Q308 416 303 383T292 316Q285 259 279 186T268 39H271Q307 39 335 10T381 -62T399 -148V-162Q399 -238 377 -282T304 -327ZM123 78Q133 78 142 85T157 103Q182 146 196 195T221 297Q223 311
225 327T228 359Q228 388 218 409T179 431Q161 431 148 411T125 359T110 288T101 214T98 150Q98 141 98 134T99 120Q101 96 108 87T123 78ZM317 -301Q333 -301 347 -272T364 -184V-172Q364 -134 353 -93T321 -21T267 17Q266 -6 266 -29T265 -74Q265 -104 266 -131T269
-184Q274 -249 286 -275T317 -301Z" />
<glyph unicode="r" glyph-name="r" horiz-adv-x="287" d="M211 -5Q178 -5 159 16T133 72T125 147Q125 190 130 231T142 305T152 349Q124 351 108 358T81 375Q77 327 69 272T49 167T25 80Q21 67 12 67Q5 67 5 76Q5 78 5 81T7 87Q23 133 34 187T51 293T57 378V389Q32
400 21 421T9 461Q9 475 14 486T31 497H33Q47 497 58 478T76 435T83 397Q95 388 109 384T134 380Q147 380 151 384Q159 392 170 407T207 422Q224 422 248 412Q236 387 226 356T209 289Q208 281 204 257T197 202T194 140Q194 96 203 63T239 29Q255 29 267 42T288
74T303 112T312 142Q314 151 320 151Q325 151 325 140V135Q325 89 309 58T266 11T211 -5Z" />
<glyph unicode="s" glyph-name="s" horiz-adv-x="315" d="M123 -11Q78 -11 48 10T17 87Q17 89 17 96T19 112Q13 123 13 142Q13 154 17 163T29 172H30Q33 172 38 165Q51 202 62 241T82 312Q92 348 107 389T157 453Q183 470 213 470Q215 470 218 470T223 469Q231
468 231 462Q231 455 224 455Q213 454 208 438T203 400Q203 395 203 389T204 378Q208 345 222 306T248 227T261 153V148Q261 135 260 120T253 91Q267 92 280 94T305 101Q319 107 327 115T342 133Q344 136 347 136Q355 136 355 126Q355 123 353 119Q342 97 313 83T245
67Q231 35 202 12T123 -11ZM171 102Q173 113 174 125T175 149Q175 168 173 187T168 226Q161 273 152 312T142 382Q142 398 145 411Q140 411 134 396T122 362T112 328Q100 285 86 240T56 150Q67 143 81 136T110 123Q123 117 138 112T171 102ZM96 22H100Q118 24 136
34T162 67Q162 68 162 68T163 70Q126 73 94 79T41 96Q41 93 41 90T40 85Q40 55 55 39T96 22Z" />
<glyph unicode="t" glyph-name="t" horiz-adv-x="180" d="M118 -5Q88 -5 70 14T41 62T28 122T24 177V192Q25 204 26 237T29 314T35 405H4Q-4 405 -4 415Q-4 420 -1 425T8 431H37Q41 478 46 516T58 570Q63 581 76 589T111 598Q117 598 124 597T139 594Q134 577
128 533T116 431H196Q205 431 205 420Q205 415 202 410T193 405H113Q108 350 105 292T101 184V161Q101 135 103 104T113 51T137 29H138Q146 29 155 37T176 67Q184 81 190 100T204 142Q208 151 212 151Q217 151 217 139V135Q215 109 203 76T170 19T118 -5Z" />
<glyph unicode="u" glyph-name="u" horiz-adv-x="371" d="M100 -4Q78 -4 61 14T35 69Q31 86 30 112T28 167Q28 211 31 258T41 344T55 405Q60 417 73 426T109 435Q124 435 139 431Q136 420 128 379T113 288Q109 253 106 217T103 148Q103 107 110 80T133 52Q152
52 166 74T192 131T209 199Q218 249 225 306T241 405Q244 417 258 426T295 435Q310 435 325 431Q317 409 310 365T297 268T292 163Q292 137 294 106T305 53T330 31H331Q339 31 348 39T369 69Q377 83 383 102T396 143Q400 152 404 152Q409 152 409 140V136Q407 110
395 77T362 20T310 -4Q276 -4 256 20T227 80T216 149Q209 123 200 97T178 51Q142 -4 100 -4Z" />
<glyph unicode="v" glyph-name="v" horiz-adv-x="352" d="M146 -2Q124 -2 111 21T90 83T79 168T73 258Q66 213 53 170T26 83Q21 67 13 67Q6 67 6 76Q6 79 8 87Q22 134 32 174T48 261Q52 284 54 310T57 362T58 402Q74 420 99 420H100Q126 420 133 388T141 309V283Q141
270 142 244T146 187T154 128T167 82T186 63Q203 63 221 94T249 166Q256 194 262 237T268 325Q268 359 263 389T247 439Q245 442 245 448Q245 460 257 470T285 480Q305 480 315 459Q322 444 322 411Q322 372 313 319T286 210T247 106T199 28T146 -2Z" />
<glyph unicode="w" glyph-name="w" horiz-adv-x="491" d="M87 -5Q66 -5 54 14T37 61T29 108Q27 130 26 152T25 193Q25 207 25 218T26 237Q28 263 32 293T48 351T80 395T134 412Q137 412 140 412T146 411V402Q132 398 121 366T104 287T98 196Q98 166 101 142Q108
78 133 78Q156 78 179 131Q201 181 208 235T223 344Q225 359 229 372T240 396Q245 405 269 410T313 415Q320 415 320 410Q320 407 315 404Q308 400 304 374T297 317Q296 301 296 285T295 251Q295 235 295 220T297 190Q298 179 300 155T309 104T325 58T352 39Q370
39 384 53T408 88T423 132T431 169Q433 185 434 206T435 252Q435 303 428 357T397 444Q393 449 393 456Q393 467 403 474T426 482Q435 482 444 477T461 459Q470 443 474 414T478 348Q478 290 468 223T438 103Q430 82 414 57T376 13T324 -5Q320 -5 317 -5T308 -3Q272
5 250 52T224 175Q220 156 209 126T179 66T138 16T87 -5Z" />
<glyph unicode="x" glyph-name="x" horiz-adv-x="315" d="M15 -92Q5 -92 5 -78Q5 -75 7 -69Q30 -10 56 45T111 155Q98 189 88 222T70 282Q63 227 51 171T23 76Q20 67 15 67Q7 67 7 80Q7 82 7 85T8 89Q20 125 29 170T43 266T49 362Q49 367 49 371T48 380V384Q49
390 50 395T54 406Q61 423 72 432T100 450Q102 451 106 451Q117 451 119 434Q121 414 128 358T154 234Q168 259 183 284T214 334Q234 368 250 391T270 416Q272 417 278 417Q286 417 294 411T302 389V387Q302 383 290 360T256 308Q240 287 217 258T167 190Q175 167
184 138T206 82T233 37T264 19Q271 19 277 22Q296 32 308 56T329 108T343 159Q344 173 353 173Q363 173 360 155Q356 137 351 115T340 80Q326 40 300 12T234 -16Q203 -16 182 5T148 58T124 122Q99 80 74 29T24 -84Q21 -92 15 -92Z" />
<glyph unicode="y" glyph-name="y" horiz-adv-x="331" d="M67 -368Q12 -368 -11 -341T-35 -272Q-35 -241 -24 -206T4 -138Q28 -93 65 -55T143 12T212 60Q212 73 211 102T209 169T204 242Q196 198 182 155T147 67Q142 56 131 39T106 10T76 -3Q64 -3 53 7Q43 16
37 38T27 90T22 149T20 203Q20 214 20 222T21 237Q22 258 23 287T29 345T41 396Q56 434 100 434Q105 434 109 434T118 433Q121 432 123 432T126 428Q126 426 125 425Q115 401 108 363T97 280T93 196Q93 176 94 158T97 125Q100 108 105 94T118 80Q124 80 133 92Q153
120 166 158T187 238T197 314Q198 336 199 360T211 403Q224 426 243 431T277 436H289Q304 436 304 430Q304 428 300 424Q290 415 285 389T277 328T275 254Q275 211 276 172T277 110V99Q306 116 327 126T360 137Q362 137 363 137T365 136Q370 135 370 128Q370 125
368 122T362 118Q350 117 330 106T292 80T275 54V42Q275 -97 247 -188T171 -323T67 -368ZM56 -347H59Q94 -347 118 -324T159 -264T186 -182T202 -95T210 -17T213 35Q197 26 164 -2T96 -71T36 -166Q23 -195 17 -222T10 -273Q10 -306 22 -326T56 -347Z" />
<glyph unicode="z" glyph-name="z" horiz-adv-x="358" d="M105 -367Q51 -367 31 -338T10 -268Q10 -233 21 -198T46 -138Q66 -103 98 -63T172 15T260 83Q251 110 235 121T200 132Q181 132 164 123T136 99V94Q136 67 124 48T93 28Q79 28 76 46Q76 48 76 49T75 53Q75
73 90 109T130 189T179 273T226 347T255 393Q245 377 229 371T195 365Q183 365 173 367T156 370Q148 372 141 373T127 374Q105 374 96 362T81 327Q74 296 69 264T57 199Q50 165 42 134T25 79Q21 66 12 66Q5 66 5 75Q5 77 5 80T7 86Q16 112 23 141T38 200Q49 250
50 300T64 398Q71 426 84 443T122 460Q131 460 143 457Q161 453 181 442T220 420T254 410Q260 410 266 413Q268 434 280 457T318 480Q332 480 339 472T346 452V447Q343 431 323 412T274 381Q267 370 248 342T206 275T160 191Q156 184 149 168T136 135Q155 160 183
173T239 187Q268 187 293 172T331 122Q363 135 395 135H405Q412 135 412 127Q412 119 406 119Q374 116 337 99Q341 85 342 68T344 34Q344 -15 332 -70T299 -177T248 -273T182 -341T105 -367ZM101 -345Q139 -345 170 -313T224 -229T259 -118T272 -4Q272 12 271 27T267
55Q199 6 151 -54T78 -173Q67 -201 62 -226T56 -273Q56 -306 68 -325T101 -345Z" />
<glyph unicode="{" glyph-name="braceleft" horiz-adv-x="356" d="M235 -105Q168 -105 130 -92T77 -57T61 -8Q61 20 72 50T99 109T125 160T137 193Q137 215 122 227T86 247T51 263T35 287Q35 302 50 310T86 326T121 346T137 380Q137 391 125 411T97 456T69 508T57
561Q57 591 81 616T167 656T339 671Q354 671 354 661Q354 655 350 650T340 644Q264 644 222 632T164 598T148 549Q148 523 157 494T176 436T186 384Q186 373 183 362Q176 343 154 321T102 288Q131 278 155 255T183 211Q184 208 184 205T184 199Q184 174 175 140T156
70T146 2Q146 -34 167 -58T248 -82Q267 -82 289 -80T340 -71H341Q346 -71 349 -76T353 -86Q353 -97 339 -98Q309 -102 283 -103T235 -105Z" />
<glyph unicode="|" glyph-name="bar" horiz-adv-x="336" d="M149 -67Q133 -67 120 -60T107 -39V-35Q113 -2 116 54T121 181T123 325Q123 397 122 464T117 583T107 661V662Q107 668 119 674T147 684T175 689Q187 689 187 683Q186 622 185 551T183 407Q183 330 184
256T185 120T186 13Q186 -3 186 -17T185 -40Q184 -54 174 -60T149 -67Z" />
<glyph unicode="}" glyph-name="braceright" horiz-adv-x="356" d="M147 -105Q125 -105 99 -104T43 -98Q28 -97 28 -86Q28 -81 32 -76T40 -71H41Q69 -77 91 -79T133 -82Q193 -82 214 -58T236 2Q236 34 227 69T208 139T198 199Q198 202 198 205T199 211Q202 231
226 254T280 288Q251 298 229 320T199 362Q196 373 196 384Q196 408 205 436T224 493T233 549Q233 576 217 597T160 631T41 644Q37 644 33 649T28 661Q28 671 43 671Q154 671 215 656T300 616T324 561Q324 535 312 508T284 456T256 411T244 380Q244 358 260 346T296
326T331 310T347 287Q347 272 332 264T296 247T260 227T244 193Q244 182 255 160T282 110T308 51T320 -8Q320 -35 305 -57T252 -92T147 -105Z" />
<glyph unicode="~" glyph-name="asciitilde" horiz-adv-x="408" d="M60 527Q55 527 55 535Q55 546 62 564T83 601T113 630Q124 636 136 636Q158 636 183 624T234 599T285 586Q300 586 313 592Q325 595 333 608T346 635T356 648Q358 648 359 646V643Q359 632 350
612T327 572T293 542H294Q282 536 269 536Q247 536 223 548T175 573T124 585Q120 585 116 585T106 583Q86 578 80 567T72 544T61 527H60Z" />
<glyph unicode="&#xa0;" glyph-name="uni00A0" horiz-adv-x="190" />
<glyph unicode="&#xa1;" glyph-name="exclamdown" horiz-adv-x="232" d="M158 431Q138 431 124 445T110 479Q110 499 124 513T158 527Q178 527 192 513T206 479Q206 459 192 445T158 431ZM148 -159Q130 -159 115 -151T99 -127V-124L148 302Q148 312 157 312Q161
312 164 309T168 301L194 -124V-126Q194 -142 180 -150T148 -159Z" />
<glyph unicode="&#xa2;" glyph-name="cent" horiz-adv-x="505" d="M268 -60Q264 -60 260 -56T255 -41V30Q197 31 148 68T80 184Q71 222 71 260Q71 325 93 385T157 491T255 555V598Q255 609 259 614T269 620Q274 620 278 615T283 599V561Q291 563 299 564T316 565Q353
565 383 548T421 484Q422 480 422 476T422 466Q422 441 411 414Q407 404 389 404Q382 404 376 408T369 426Q369 429 369 432T371 440Q374 453 376 466T379 490Q379 511 369 525T331 539Q309 539 283 526V54Q315 59 347 80T409 139Q423 157 431 181Q438 200 445
200Q450 200 452 195T454 183Q454 181 454 178T453 173Q447 152 437 137Q412 92 371 65T283 32V-40Q283 -60 268 -60ZM255 53V509Q223 486 195 447T150 357T132 247Q132 234 133 220T136 192Q147 127 179 92T255 53Z" />
<glyph unicode="&#xa3;" glyph-name="sterling" horiz-adv-x="475" d="M467 -100Q455 -100 455 -93Q455 -90 459 -88Q465 -85 474 -82T491 -69T498 -40V-36Q498 -3 468 9T393 21Q372 21 349 19T303 14Q231 4 152 -10T-14 -43H-16Q-24 -43 -28 -32T-32 -7Q-32 3
-30 10T-23 18Q16 23 39 30T84 43Q78 121 78 195Q78 212 78 228T79 260H32Q24 260 24 270Q24 275 27 280T36 286H80Q91 512 158 656Q178 697 205 722T269 747Q272 747 274 747T280 746Q317 742 333 712T349 639Q349 586 329 526T279 422Q260 395 251 395Q247 395
247 400Q247 410 257 431Q280 481 295 531T310 628Q310 634 310 639T309 651Q308 668 301 681T283 695Q276 695 266 687T245 659Q231 635 217 594T191 504T168 405T150 313Q149 306 148 300T146 286H310Q319 286 319 275Q319 270 316 265T307 260H142Q135 210 131
159T126 58V45Q153 47 193 53T280 66T370 72Q413 72 448 63T505 32T527 -31Q527 -63 509 -81T468 -100H467Z" />
<glyph unicode="&#xa4;" glyph-name="currency" horiz-adv-x="513" d="M120 145Q117 145 115 145T110 146Q102 148 93 153T83 165Q83 168 86 171L159 246Q143 278 143 315Q143 335 148 354T161 390L85 468Q81 472 81 476Q81 482 88 486T102 492Q110 494 120 494Q127
494 133 493T144 487L197 433Q230 459 270 459Q290 459 308 452T342 433L394 487Q398 491 404 492T418 493Q423 493 428 493T435 492Q442 491 449 487T456 476Q456 472 452 468L378 392Q397 356 397 315Q397 296 392 278T379 244L451 171Q454 168 454 165Q454 158
445 153T429 146Q427 146 424 146T418 145Q411 145 405 147T393 153L346 201Q330 188 311 181T270 173Q226 173 193 203L144 153Q140 149 133 147T120 145Z" />
<glyph unicode="&#xa5;" glyph-name="yen" horiz-adv-x="409" d="M169 -33Q150 -33 137 -16T124 26V27Q124 54 133 94T152 170H106Q98 170 98 179Q98 184 99 186Q101 189 104 193T112 197H159L167 222Q169 230 171 238T175 256H106Q98 256 98 265Q98 269 99 271Q101
274 104 278T112 282H177Q177 285 177 288T176 294Q170 335 150 376T100 453T37 515Q32 518 32 525Q32 533 42 543T71 553H72Q87 553 103 534T136 484T165 419T188 353T199 302Q205 314 219 343T251 410T289 483T326 544T355 576Q357 578 360 578T365 578Q378 578
389 566T400 540Q400 531 393 524Q382 513 358 478T306 391T250 282H293Q301 282 301 273Q301 269 300 267Q299 264 296 260T287 256H238L215 197H293Q301 197 301 188Q301 183 300 181Q299 178 296 174T287 170H205Q194 136 187 104T180 45Q180 39 180 33T182
21Q185 1 202 -2Q206 -3 206 -8Q206 -15 197 -24T169 -33Z" />
<glyph unicode="&#xa6;" glyph-name="brokenbar" horiz-adv-x="336" d="M161 382Q148 382 136 385T123 393Q122 481 118 554T107 661V662Q107 668 119 674T147 684T175 689Q187 689 187 683Q186 618 185 542T183 389Q183 385 177 384T161 382ZM149 -67Q134 -67
121 -60T107 -39V-35Q112 -5 115 45T121 158T123 287Q123 295 133 298T154 301Q165 301 174 299T184 291Q184 200 184 123T185 -1V-40Q185 -54 174 -60T149 -67Z" />
<glyph unicode="&#xa7;" glyph-name="section" horiz-adv-x="592" d="M192 -102Q178 -102 165 -101T140 -98Q72 -87 43 -64T13 -12Q13 20 44 51T125 103T232 124Q243 124 258 122T278 118Q282 117 282 112Q282 106 273 106H269Q262 108 254 108T238 108Q193 108
154 91T90 46T65 -8Q65 -30 87 -49T160 -77Q180 -80 198 -80Q244 -80 286 -65T362 -26T414 28T434 85Q434 105 423 123T385 154Q360 167 323 177T246 199T171 227T114 269T92 330Q92 364 114 390T168 435T233 467Q229 470 225 473T216 479Q200 493 193 510T185
545Q185 591 222 630Q263 672 322 692T440 713H443Q517 713 550 690T583 638Q583 615 563 592T507 554T420 539H417Q413 540 410 544T406 551Q406 555 410 555Q444 555 474 570T523 608T542 652Q542 670 524 683T463 697H460Q423 697 385 685T314 653T261 608T241
559Q241 545 250 531T278 505Q303 490 339 480T413 459T486 435T541 397T563 335Q563 328 562 320T559 302Q550 263 521 235T453 188Q476 172 490 151T504 99Q504 91 503 82T499 63Q489 19 456 -12T378 -63T284 -92T192 -102ZM415 209Q453 232 476 263T499 323Q499
341 488 357T454 386Q424 401 389 411T319 431T254 455Q229 445 205 428T164 391T148 347Q148 331 159 315T195 283Q221 267 259 257T338 236T415 209Z" />
<glyph unicode="&#xa8;" glyph-name="dieresis" horiz-adv-x="408" d="M274 562Q258 562 247 573T236 600Q236 616 247 627T274 638Q289 638 300 627T311 600Q311 585 300 574T274 562ZM136 562Q120 562 109 573T98 600Q98 616 109 627T136 638Q151 638 162 627T173
600Q173 585 162 574T136 562Z" />
<glyph unicode="&#xa9;" glyph-name="copyright" horiz-adv-x="692" d="M350 -17Q271 -17 206 19T101 116T54 254Q53 262 53 270T52 288V295Q54 360 80 416T151 515T253 582T375 606Q454 606 519 570T625 472T672 332Q673 325 673 319T673 305Q673 239 647 181T576
78T473 8T350 -17ZM364 29Q413 29 458 48T541 105T598 197Q616 245 616 296Q616 370 580 436T474 537Q420 564 364 564Q314 564 268 544T186 485T130 395Q112 347 112 297Q112 224 149 158T254 56Q307 29 364 29ZM349 89Q306 89 268 117T214 208Q211 222 209 236T207
266Q207 323 230 376T295 463T393 497H394Q422 497 447 484T478 431Q479 427 479 418Q479 396 470 375Q468 369 461 366T446 363H442Q425 366 425 386Q425 397 428 411T432 437Q432 448 427 455T405 462Q377 462 345 435T290 362T267 256Q267 237 270 217Q278 170
301 146T356 121Q381 121 407 136T456 182Q464 193 471 210Q476 225 481 231T491 237Q496 237 499 230T503 212Q503 207 501 199Q494 183 488 171Q466 132 428 111T349 89Z" />
<glyph unicode="&#xaa;" glyph-name="ordfeminine" horiz-adv-x="334" d="M103 296Q84 296 74 312T59 354T54 407Q54 432 59 465T76 529T110 580T166 601Q190 601 203 583Q213 591 232 591Q244 591 257 588Q250 562 241 515T231 424V407Q231 391 236 373T247 341T253
328Q256 328 261 332T273 350Q278 359 282 371T291 398Q292 401 294 404T300 407H301Q303 407 306 404T309 391Q308 374 300 352T278 313T241 296Q219 296 206 311T186 349T177 394Q164 356 145 326T103 296ZM124 359Q134 359 142 374T158 410T171 452T178 484Q178
486 178 489T179 494Q181 513 183 532T192 567Q187 571 179 571Q165 571 153 559T132 529Q121 505 116 473T110 412Q110 407 110 402T111 392Q113 372 117 366T124 359Z" />
<glyph unicode="&#xab;" glyph-name="guillemotleft" horiz-adv-x="415" d="M228 135Q225 135 219 138Q211 143 192 161T152 199T114 236T96 255Q90 260 87 272T84 298Q84 315 89 320Q96 327 116 345T164 386T216 430T259 466T276 480Q281 483 284 483Q290 483
290 472V469Q289 465 287 459T281 449Q275 442 257 421T216 375T174 328T149 299L230 177Q235 171 237 163T239 149Q237 135 228 135ZM371 128Q367 128 362 131Q356 135 342 149T310 183T275 222T247 254T233 270Q229 275 226 286T223 308Q223 324 228 329Q234
335 252 349T293 382T339 417T375 445T390 456Q393 459 396 459Q402 459 402 449V446Q400 437 394 429Q389 423 374 407T341 370T307 333T285 310L374 167Q381 155 381 143V140Q381 128 371 128Z" />
<glyph unicode="&#xac;" glyph-name="logicalnot" horiz-adv-x="273" d="M-12 -33Q-16 -37 -23 -37Q-29 -37 -29 -32Q-29 -28 -22 -21Q15 14 42 61T88 157Q87 166 87 174T86 190Q85 207 85 221T85 247V248Q85 300 88 355T96 461T107 555T119 625Q125 650 137 682T171
737T222 761Q257 761 270 735T283 669Q283 636 277 599T260 526T242 464T228 425Q212 383 192 340T151 262Q151 252 151 241T150 215Q150 186 152 153T161 92T181 45T215 27Q236 27 252 43Q272 62 282 94T301 159Q304 173 311 173Q316 173 316 161Q316 158 316
154T314 145Q308 111 296 75T261 15T199 -10Q167 -10 146 10T112 60T93 123Q72 74 45 32T-12 -33ZM153 304Q179 357 201 416T236 534T250 641Q250 670 246 689T229 708Q217 708 207 682T188 614T173 524T163 430T156 350T153 304Z" />
<glyph unicode="&#xad;" glyph-name="uni00AD" horiz-adv-x="359" d="M81 284Q68 284 68 299Q68 303 70 309Q72 314 77 320T91 327H309Q317 327 320 322T323 312Q323 308 321 302Q319 298 314 291T300 284H81Z" />
<glyph unicode="&#xae;" glyph-name="registered" horiz-adv-x="434" d="M205 359Q163 359 128 378T72 429T47 503Q46 508 46 512T46 521V525Q46 571 70 608T133 668T218 691Q261 691 295 672T352 620T377 545Q377 541 377 538T378 531Q378 484 354 445T291 382T205
359ZM213 381Q250 381 280 399T330 450T349 522Q349 525 349 528T348 535Q345 572 326 602T277 650T210 669Q171 669 141 650T93 598T75 526V514Q78 478 97 448T146 399T213 381ZM184 422Q173 422 168 428T159 441Q155 453 153 468T151 499Q151 522 153 545T160
585L164 604Q160 604 156 604T148 606Q137 609 137 619Q137 624 141 628T145 632H150Q167 632 185 635Q190 636 195 636T207 636Q224 636 242 632T272 618T285 587Q285 562 267 542T221 515Q227 507 239 490T267 460T299 446Q299 433 291 429T275 425Q262 425 250
435T230 460Q221 472 214 491Q211 498 209 503T205 512Q186 513 186 525Q186 534 194 534Q211 534 227 540T256 559Q264 568 267 575T271 588Q271 602 257 607T225 613H215Q212 613 208 613T199 611Q188 586 181 550T174 484V476Q174 469 174 462T176 448Q178 434
184 422Z" />
<glyph unicode="&#xaf;" glyph-name="overscore" horiz-adv-x="408" d="M93 586Q89 586 89 595Q89 603 92 612T100 622H289Q293 622 293 614Q293 606 290 596T281 586H93Z" />
<glyph unicode="&#xb0;" glyph-name="degree" horiz-adv-x="259" d="M135 428Q98 428 71 453T44 513Q44 548 71 573T135 598Q173 598 200 573T227 513Q227 478 200 453T135 428ZM135 462Q156 462 170 477T185 514Q185 536 171 551T135 566Q115 566 101 551T86
514Q86 492 100 477T135 462Z" />
<glyph unicode="&#xb1;" glyph-name="plusminus" horiz-adv-x="479" d="M241 261Q235 261 230 263T224 272V385H84Q76 385 73 390T69 402Q69 406 71 412Q73 417 79 424T94 431H224V521Q224 529 231 533T243 539Q245 540 248 540T253 540Q260 540 265 538T270 529V431H409Q417
431 420 426T423 415Q423 410 421 404Q419 399 414 392T398 385H270V280Q270 273 263 269T250 262Q247 261 241 261ZM84 160Q76 160 73 165T69 177Q69 181 71 187Q73 192 79 199T94 206H409Q417 206 420 201T423 190Q423 186 421 180Q419 175 414 168T398 160H84Z"
/>
<glyph unicode="&#xb2;" glyph-name="uni00B2" horiz-adv-x="296" d="M258 221Q253 221 252 228Q248 243 231 247Q218 250 199 250Q168 250 133 244L83 236Q79 235 76 235T69 234Q64 227 53 227Q52 227 49 227T44 228Q39 229 36 234T31 245Q29 253 29 256Q29 270
42 283Q70 311 89 331T123 370T154 413T191 471Q200 486 208 508T216 550Q216 565 210 575T186 585H184Q169 585 151 576T116 552T88 522T77 494Q77 486 81 482Q82 481 83 479T85 474Q85 473 85 473T84 471Q83 470 82 469T78 467Q75 467 70 470Q64 473 53 490T41
521V524Q43 535 55 549T83 576Q107 595 131 603T177 612Q215 612 240 589T266 528Q266 506 257 482T225 431Q216 420 207 410T187 390L148 355Q129 338 111 320T77 279Q108 283 145 287T200 292H216Q224 292 232 292T248 288Q259 284 265 276T272 254Q272 253 272
251T271 246Q268 232 265 226Q263 221 258 221Z" />
<glyph unicode="&#xb3;" glyph-name="uni00B3" horiz-adv-x="271" d="M84 235Q53 236 34 250T14 283Q14 306 33 320T79 340T122 346H125Q136 346 143 344T151 337Q151 332 126 326Q118 324 99 317T63 301T46 280Q46 278 50 274T71 269H79Q125 269 155 284T201
320Q214 337 214 356Q214 381 192 393Q182 399 168 403T133 407Q126 405 120 404T106 402H105Q98 402 98 409Q98 410 98 410T99 412Q99 414 100 417T106 421Q129 426 157 446T204 492Q212 502 217 517T223 546Q223 560 215 570T187 581Q172 581 153 572T116 549T87
521T75 494Q75 487 79 483Q80 482 81 480T82 475Q82 474 82 474T81 472Q78 469 75 469Q72 469 67 472Q62 476 51 493T40 523Q40 524 40 525T41 527Q44 538 57 552T86 577Q112 594 135 602T180 610Q219 610 243 588Q267 566 267 534Q267 516 259 497T231 458Q222
449 211 442T187 427Q194 426 200 426T212 423Q237 417 250 398T264 354Q264 336 256 317Q242 285 203 260T94 235H84Z" />
<glyph unicode="&#xb4;" glyph-name="acute" horiz-adv-x="289" d="M74 501Q70 501 67 504T64 509Q64 510 65 511L206 627Q209 630 214 630Q226 630 240 618T254 596Q254 591 250 590L76 502Q75 502 75 502T74 501Z" />
<glyph unicode="&#xb5;" glyph-name="uni03BC" horiz-adv-x="335" d="M85 -239Q61 -239 50 -227T34 -196T30 -156Q30 -148 30 -140T31 -125Q33 -45 34 37T36 198Q37 243 39 285T46 359T55 405Q60 417 73 425T108 434Q123 434 139 430Q136 419 128 378T115 286Q112
257 111 227T109 168Q109 119 116 85T141 50Q159 50 172 69T193 118T206 182T212 243Q214 281 217 326T231 402Q235 414 247 422T282 431Q294 431 314 426Q309 403 303 364T293 278T289 186V180Q289 164 290 139T295 85T307 32T329 -6Q326 -7 323 -7T317 -8H312Q278
-8 259 16T233 77T222 153Q218 128 211 105T196 59Q186 29 164 12T118 -6Q87 -6 67 23Q71 9 75 -18T84 -76T95 -136T109 -183T129 -202Q129 -221 115 -230T85 -239Z" />
<glyph unicode="&#xb6;" glyph-name="paragraph" horiz-adv-x="497" d="M412 -178Q377 -178 355 -138H348Q311 -138 289 -108T255 -30T239 76T235 186Q235 224 236 257T238 313Q130 320 84 358T38 447Q38 488 62 530T127 608T219 667T325 689Q350 689 375 683Q377
685 380 685T386 686Q412 686 430 680T448 658Q445 645 438 606T421 510T402 383T387 241T378 98Q378 85 378 70T377 39Q377 -4 380 -47T394 -120T426 -149Q436 -149 444 -142T455 -125Q458 -117 463 -117Q468 -117 468 -125Q468 -147 455 -162T412 -178ZM281 352L302
355Q307 356 312 356T321 356L326 413Q332 484 342 546T365 652Q361 653 356 653T346 653Q339 653 333 653T320 652Q317 639 312 607T301 532T290 442T281 352ZM216 348Q221 348 227 348T239 349Q241 397 247 452T261 558T278 644Q237 632 200 609T132 556T85 494T68
434Q68 398 102 373T216 348ZM339 -117H340Q343 -117 345 -116Q326 -69 319 2T312 147Q312 192 314 235T318 314Q315 314 311 314T303 313Q296 312 291 312T279 312Q277 274 276 230T274 144Q274 123 274 105T276 70Q278 45 281 13T290 -48T308 -97T339 -117Z"
/>
<glyph unicode="&#xb7;" glyph-name="middot" horiz-adv-x="276" d="M141 219Q121 219 107 233T93 267Q93 287 107 301T141 315Q161 315 175 301T189 267Q189 248 175 234T141 219Z" />
<glyph unicode="&#xb8;" glyph-name="cedilla" horiz-adv-x="408" d="M175 -267Q165 -267 156 -266T139 -260Q136 -259 136 -254Q136 -245 142 -247Q146 -248 150 -248T158 -248Q178 -248 200 -239T237 -209T253 -152V-149Q253 -129 243 -111T213 -93H211Q198
-93 182 -98T152 -111H151Q148 -111 140 -106T132 -99Q132 -95 137 -81T148 -50T161 -16T171 7Q173 10 179 11T194 12Q202 12 208 11T215 9Q208 -3 201 -21T187 -55T176 -78Q189 -71 202 -69T228 -66Q256 -66 278 -78T314 -110T323 -154Q317 -198 293 -223T236
-257T175 -267Z" />
<glyph unicode="&#xb9;" glyph-name="uni00B9" horiz-adv-x="263" d="M137 243Q130 243 124 258T117 305V315Q119 365 123 414T131 512Q131 517 131 521T132 529Q119 513 104 499T72 477Q71 476 67 476Q61 476 57 480Q53 483 53 488Q53 495 58 497Q72 506 93 531T125
580Q124 582 124 587Q124 597 132 603Q140 609 149 613T159 618Q170 618 174 608T179 584Q179 575 178 571L169 511Q165 481 162 445T159 376Q159 333 164 303T181 273Q181 263 172 257T153 247T137 243Z" />
<glyph unicode="&#xba;" glyph-name="ordmasculine" horiz-adv-x="279" d="M131 290Q101 290 85 311T63 364T57 425Q57 458 60 477Q64 504 75 533T108 581T166 601Q191 601 205 584T224 540T230 484Q230 457 227 433T219 392Q214 372 202 348T173 307T131 290ZM152
335Q164 335 172 347T186 376T194 403Q196 414 198 429T200 461Q200 487 195 511T175 545Q165 552 165 561Q165 570 172 577Q171 577 170 577T168 578Q159 578 153 568T141 545Q134 526 130 507T124 480Q123 473 122 456T120 418Q120 388 126 362T152 335Z" />
<glyph unicode="&#xbb;" glyph-name="guillemotright" horiz-adv-x="363" d="M211 135Q201 135 201 149Q201 155 203 163T210 177L291 299Q285 307 266 328T225 374T184 421T159 449Q155 453 153 459T150 469V471Q150 483 156 483Q159 483 163 480Q163 480 180
466T223 430T276 385T325 343T353 318Q358 313 358 300Q358 287 354 274T344 255Q342 253 326 237T289 200T248 161T221 138Q215 135 211 135ZM69 128Q59 128 59 140V143Q59 149 61 155T65 167L155 310Q149 316 134 333T100 370T66 406T46 429Q40 437 38 446V451Q38
459 43 459Q46 459 50 456Q50 456 64 445T101 417T147 382T189 349T214 328Q218 324 218 310Q218 299 215 287T207 270Q205 268 194 255T165 222T130 184T98 150T78 131Q74 128 69 128Z" />
<glyph unicode="&#xbc;" glyph-name="onequarter" horiz-adv-x="606" d="M142 243Q134 243 128 258T121 305V315Q123 365 128 414T136 512Q136 517 136 521T137 530Q108 494 73 477Q72 476 68 476Q63 476 57 480Q53 483 53 488Q53 495 58 497Q73 506 96 530T129
580Q128 582 128 586Q128 597 136 603Q145 609 155 613T165 618Q176 618 181 608T187 584Q187 575 186 571Q183 556 181 541T176 511Q172 480 170 443T167 370Q167 330 171 302T188 273Q188 263 179 257T159 247T142 243ZM78 -90Q62 -90 62 -78Q62 -73 65 -69Q106
5 152 89T246 262T341 436T427 594Q434 607 449 607Q455 607 460 604T465 595Q465 591 462 586Q422 513 376 428T281 255T186 83T100 -76Q93 -90 78 -90ZM448 -10Q440 -10 434 5T427 53V62Q428 78 428 93T430 125Q420 124 410 123T388 120Q372 118 356 115T326
110Q315 109 306 108T289 106H283Q275 107 272 112T269 122Q269 124 269 125T270 128Q271 133 274 137T280 144L281 145Q289 150 310 171T356 222T402 280T434 329Q433 331 433 334Q433 339 436 343T442 350Q451 356 461 360T471 365Q482 365 487 355T493 331Q493
322 492 318Q489 303 487 288T482 258Q479 237 478 213T474 163Q479 164 485 164T496 164Q518 164 535 157T553 128Q553 126 553 124T552 120Q550 106 545 99Q542 95 538 95Q532 95 531 101Q528 114 507 121Q490 126 473 126Q473 83 477 52T495 21Q495 11 486 4T465
-6T448 -10ZM322 144Q337 145 353 147T385 151L433 157L442 259V272Q419 241 385 205T322 144Z" />
<glyph unicode="&#xbd;" glyph-name="onehalf" horiz-adv-x="623" d="M142 243Q134 243 128 258T121 305V315Q123 365 128 414T136 512Q136 517 136 521T137 530Q108 494 73 477Q72 476 68 476Q63 476 57 480Q53 483 53 488Q53 495 58 497Q73 506 96 530T129 580Q128
582 128 586Q128 597 136 603Q145 609 155 613T165 618Q176 618 181 608T187 584Q187 575 186 571Q183 556 181 541T176 511Q172 480 170 443T167 370Q167 330 171 302T188 273Q188 263 179 257T159 247T142 243ZM66 -90Q50 -90 50 -78Q50 -73 53 -69Q94 5 140
89T234 262T329 436T415 594Q422 607 437 607Q452 607 452 595Q452 591 449 586L88 -76Q81 -90 66 -90ZM548 -23Q544 -23 542 -17Q541 -11 535 -5T521 3Q508 6 491 6Q475 6 457 4T421 -1L369 -9Q363 -9 355 -11Q351 -17 339 -17Q333 -17 329 -16Q324 -15 321 -10T316
0Q315 3 315 6T314 12Q314 26 327 39Q356 67 375 87T411 126T443 168T480 226Q490 242 497 264T505 305Q505 320 499 330T475 340H472Q457 340 439 331T403 307T375 277T363 250Q363 243 368 238Q371 235 371 230Q371 228 370 227Q368 223 364 223Q361 223 356
226Q350 229 339 246T327 276V279Q329 290 341 305T369 331Q394 350 418 358T465 367Q505 367 531 344T557 282Q557 261 547 237T515 186Q505 175 496 165T476 146Q466 136 456 128T436 110Q417 93 399 75T363 35Q384 37 408 40T455 45T489 48Q500 48 513 48T538
43Q562 36 562 11Q562 9 562 7T561 2Q559 -13 555 -19Q553 -23 548 -23Z" />
<glyph unicode="&#xbe;" glyph-name="threequarters" horiz-adv-x="624" d="M86 235Q53 236 34 250T14 283Q14 306 34 320T80 340T124 346H127Q138 346 145 344T153 338Q153 332 128 326Q120 324 100 317T64 301T47 280Q47 278 51 274T73 269H81Q128 269 159 284T205
320Q219 339 219 356Q219 381 196 393Q186 399 172 403T135 407Q128 405 122 404T108 402H107Q100 402 100 409Q100 410 100 410T101 412Q101 414 102 417T108 421Q131 426 160 446T208 492Q216 502 221 517T227 546Q227 560 219 570T191 581Q176 581 157 572T119
549T88 521T76 494Q76 487 80 483Q81 482 82 480T83 476Q83 473 82 472Q79 469 76 469Q73 469 68 472Q63 476 53 493T42 523V527Q44 538 57 552T87 577Q113 594 137 602T184 610Q223 610 248 588Q273 566 273 534Q273 495 236 458Q227 449 216 442T191 427Q198
426 204 426T217 423Q243 417 256 398T270 354Q270 336 262 317Q248 284 208 260T96 235H86ZM121 -90Q105 -90 105 -78Q105 -73 108 -69Q149 5 195 89T289 262T384 436T470 594Q477 607 492 607Q507 607 507 595Q507 591 504 586L143 -76Q136 -90 121 -90ZM496
-10Q488 -10 482 5T476 53V62Q477 78 477 93T479 125Q469 124 458 123T436 120Q420 118 404 115T374 110Q363 109 354 108T337 106H331Q323 107 320 112T317 122Q317 124 317 125T318 128Q320 136 324 140Q325 142 326 143T329 145Q337 150 358 171T404 222T451
281T483 329Q482 331 482 334Q482 345 491 350Q499 356 509 360T519 365Q531 365 536 355T541 331Q541 328 541 325T540 318Q537 303 535 288T531 258Q528 237 527 213T523 163Q528 164 534 164T545 164Q567 164 584 157T602 128Q602 126 602 124T601 120Q599 106
594 99Q591 95 586 95Q581 95 580 101Q577 114 556 121Q539 126 522 126Q522 83 526 52T544 21Q544 11 534 4T513 -6T496 -10ZM370 144Q385 145 401 147T433 151L482 157Q484 183 486 208T490 259Q490 262 490 265T491 272Q468 241 434 205T370 144Z" />
<glyph unicode="&#xbf;" glyph-name="questiondown" horiz-adv-x="366" d="M243 431Q223 431 209 445T195 479Q195 499 209 513T243 527Q263 527 277 513T291 479Q291 459 277 445T243 431ZM169 -152Q110 -152 79 -122T48 -48Q48 -8 64 26T105 88T154 137Q186
165 212 189T255 254Q262 274 262 289Q262 306 256 315T241 328Q236 330 236 334Q236 340 244 343Q246 344 251 344Q262 344 272 336T287 314Q289 308 290 302T291 288Q291 240 248 181Q227 152 204 112T163 32Q145 -8 145 -40Q145 -75 163 -95T212 -115Q246 -115
269 -96T307 -48T326 10Q328 17 333 17Q341 17 341 2V-1Q336 -71 288 -111T169 -152Z" />
<glyph unicode="&#xc0;" glyph-name="Agrave" horiz-adv-x="628" d="M613 -66Q582 -63 559 -36T521 37T496 138Q490 176 487 216T482 298Q468 248 447 198T397 106T336 35T263 -1Q248 -4 233 -4Q179 -4 142 32T86 129T67 261Q67 268 67 275T68 289Q69 311 72 332T80
373Q37 381 10 405T-18 475Q-18 503 -4 529T38 571Q40 572 42 572Q48 572 48 566Q48 560 43 557Q27 546 20 524T13 480Q13 447 33 428T89 402Q118 491 177 559T316 669T479 720Q489 721 498 721T515 722Q574 722 599 700T625 644Q625 610 603 571Q596 560 589 549T573
528Q568 489 562 418T555 265Q555 233 556 201T561 137Q564 112 569 84T582 31T600 -10T625 -26H627Q635 -26 641 -21T649 -10Q650 -3 655 -3Q662 -3 662 -14V-21Q662 -66 619 -66H613ZM166 397Q217 399 274 407T388 433T489 483Q491 508 494 529T502 568Q503 571
511 573T531 576Q540 576 549 574T567 566Q568 568 569 570T571 574Q587 606 587 633Q587 663 567 683T501 703Q495 703 489 703T475 701Q419 694 371 666T282 596T213 502T166 397ZM251 26Q255 26 259 26T267 28Q300 34 329 64T384 141T429 241T462 348Q468 373
474 396T485 441L486 456Q438 427 381 408T267 380T158 368Q149 334 146 299Q145 285 145 272T144 244Q144 185 155 135T191 56T251 26ZM542 813Q542 813 542 813T541 813L393 888Q389 889 389 893Q389 901 401 911T423 922Q428 922 430 920L550 821Q551 820 551
819Q551 818 549 816T542 813Z" />
<glyph unicode="&#xc1;" glyph-name="Aacute" horiz-adv-x="628" d="M613 -66Q582 -63 559 -36T521 37T496 138Q490 176 487 216T482 298Q468 248 447 198T397 106T336 35T263 -1Q248 -4 233 -4Q179 -4 142 32T86 129T67 261Q67 268 67 275T68 289Q69 311 72 332T80
373Q37 381 10 405T-18 475Q-18 503 -4 529T38 571Q40 572 42 572Q48 572 48 566Q48 560 43 557Q27 546 20 524T13 480Q13 447 33 428T89 402Q118 491 177 559T316 669T479 720Q489 721 498 721T515 722Q574 722 599 700T625 644Q625 610 603 571Q596 560 589 549T573
528Q568 489 562 418T555 265Q555 233 556 201T561 137Q564 112 569 84T582 31T600 -10T625 -26H627Q635 -26 641 -21T649 -10Q650 -3 655 -3Q662 -3 662 -14V-21Q662 -66 619 -66H613ZM166 397Q217 399 274 407T388 433T489 483Q491 508 494 529T502 568Q503 571
511 573T531 576Q540 576 549 574T567 566Q568 568 569 570T571 574Q587 606 587 633Q587 663 567 683T501 703Q495 703 489 703T475 701Q419 694 371 666T282 596T213 502T166 397ZM251 26Q255 26 259 26T267 28Q300 34 329 64T384 141T429 241T462 348Q468 373
474 396T485 441L486 456Q438 427 381 408T267 380T158 368Q149 334 146 299Q145 285 145 272T144 244Q144 185 155 135T191 56T251 26ZM472 811Q468 811 466 813T463 818Q463 818 464 819L584 918Q587 920 591 920Q601 920 613 910T625 892Q625 887 621 886L474
812Q473 812 473 812T472 811Z" />
<glyph unicode="&#xc2;" glyph-name="Acircumflex" horiz-adv-x="628" d="M613 -66Q582 -63 559 -36T521 37T496 138Q490 176 487 216T482 298Q468 248 447 198T397 106T336 35T263 -1Q248 -4 233 -4Q179 -4 142 32T86 129T67 261Q67 268 67 275T68 289Q69 311
72 332T80 373Q37 381 10 405T-18 475Q-18 503 -4 529T38 571Q40 572 42 572Q48 572 48 566Q48 560 43 557Q27 546 20 524T13 480Q13 447 33 428T89 402Q118 491 177 559T316 669T479 720Q489 721 498 721T515 722Q574 722 599 700T625 644Q625 610 603 571Q596
560 589 549T573 528Q568 489 562 418T555 265Q555 233 556 201T561 137Q564 112 569 84T582 31T600 -10T625 -26H627Q635 -26 641 -21T649 -10Q650 -3 655 -3Q662 -3 662 -14V-21Q662 -66 619 -66H613ZM166 397Q217 399 274 407T388 433T489 483Q491 508 494 529T502
568Q503 571 511 573T531 576Q540 576 549 574T567 566Q568 568 569 570T571 574Q587 606 587 633Q587 663 567 683T501 703Q495 703 489 703T475 701Q419 694 371 666T282 596T213 502T166 397ZM251 26Q255 26 259 26T267 28Q300 34 329 64T384 141T429 241T462
348Q468 373 474 396T485 441L486 456Q438 427 381 408T267 380T158 368Q149 334 146 299Q145 285 145 272T144 244Q144 185 155 135T191 56T251 26ZM601 796Q591 796 581 797T567 803L500 879Q479 859 457 841T415 803Q412 800 407 799T395 798Q384 798 384 801Q384
802 385 803Q399 818 418 840T457 885T491 922T506 938H513Q540 904 567 870T622 803Q623 802 623 801Q623 799 617 798T601 796Z" />
<glyph unicode="&#xc3;" glyph-name="Atilde" horiz-adv-x="628" d="M613 -66Q582 -63 559 -36T521 37T496 138Q490 176 487 216T482 298Q468 248 447 198T397 106T336 35T263 -1Q248 -4 233 -4Q179 -4 142 32T86 129T67 261Q67 268 67 275T68 289Q69 311 72 332T80
373Q37 381 10 405T-18 475Q-18 503 -4 529T38 571Q40 572 42 572Q48 572 48 566Q48 560 43 557Q27 546 20 524T13 480Q13 447 33 428T89 402Q118 491 177 559T316 669T479 720Q489 721 498 721T515 722Q574 722 599 700T625 644Q625 610 603 571Q596 560 589 549T573
528Q568 489 562 418T555 265Q555 233 556 201T561 137Q564 112 569 84T582 31T600 -10T625 -26H627Q635 -26 641 -21T649 -10Q650 -3 655 -3Q662 -3 662 -14V-21Q662 -66 619 -66H613ZM166 397Q217 399 274 407T388 433T489 483Q491 508 494 529T502 568Q503 571
511 573T531 576Q540 576 549 574T567 566Q568 568 569 570T571 574Q587 606 587 633Q587 663 567 683T501 703Q495 703 489 703T475 701Q419 694 371 666T282 596T213 502T166 397ZM251 26Q255 26 259 26T267 28Q300 34 329 64T384 141T429 241T462 348Q468 373
474 396T485 441L486 456Q438 427 381 408T267 380T158 368Q149 334 146 299Q145 285 145 272T144 244Q144 185 155 135T191 56T251 26ZM546 795Q531 795 515 806T481 829T446 841Q434 841 424 827T406 798Q403 794 401 794Q394 794 394 806Q394 819 404 838T429
873T455 888Q470 888 486 877T520 853T554 841Q567 841 576 853T593 879T606 900Q609 902 609 902Q612 902 613 898T615 892Q615 875 606 853T582 813T546 795Z" />
<glyph unicode="&#xc4;" glyph-name="Adieresis" horiz-adv-x="628" d="M613 -66Q582 -63 559 -36T521 37T496 138Q490 176 487 216T482 298Q468 248 447 198T397 106T336 35T263 -1Q248 -4 233 -4Q179 -4 142 32T86 129T67 261Q67 268 67 275T68 289Q69 311 72
332T80 373Q37 381 10 405T-18 475Q-18 503 -4 529T38 571Q40 572 42 572Q48 572 48 566Q48 560 43 557Q27 546 20 524T13 480Q13 447 33 428T89 402Q118 491 177 559T316 669T479 720Q489 721 498 721T515 722Q574 722 599 700T625 644Q625 610 603 571Q596 560
589 549T573 528Q568 489 562 418T555 265Q555 233 556 201T561 137Q564 112 569 84T582 31T600 -10T625 -26H627Q635 -26 641 -21T649 -10Q650 -3 655 -3Q662 -3 662 -14V-21Q662 -66 619 -66H613ZM166 397Q217 399 274 407T388 433T489 483Q491 508 494 529T502
568Q503 571 511 573T531 576Q540 576 549 574T567 566Q568 568 569 570T571 574Q587 606 587 633Q587 663 567 683T501 703Q495 703 489 703T475 701Q419 694 371 666T282 596T213 502T166 397ZM251 26Q255 26 259 26T267 28Q300 34 329 64T384 141T429 241T462
348Q468 373 474 396T485 441L486 456Q438 427 381 408T267 380T158 368Q149 334 146 299Q145 285 145 272T144 244Q144 185 155 135T191 56T251 26ZM573 812Q557 812 546 823T535 850Q535 866 546 877T573 888Q588 888 599 877T610 850Q610 835 599 824T573 812ZM435
812Q419 812 408 823T397 850Q397 866 408 877T435 888Q450 888 461 877T472 850Q472 835 461 824T435 812Z" />
<glyph unicode="&#xc5;" glyph-name="Aring" horiz-adv-x="628" d="M613 -66Q582 -63 559 -36T521 37T496 138Q490 176 487 216T482 298Q468 248 447 198T397 106T336 35T263 -1Q248 -4 233 -4Q179 -4 142 32T86 129T67 261Q67 268 67 275T68 289Q69 311 72 332T80
373Q37 381 10 405T-18 475Q-18 503 -4 529T38 571Q40 572 42 572Q48 572 48 566Q48 560 43 557Q27 546 20 524T13 480Q13 447 33 428T89 402Q118 491 177 559T316 669T479 720Q489 721 498 721T515 722Q574 722 599 700T625 644Q625 610 603 571Q596 560 589 549T573
528Q568 489 562 418T555 265Q555 233 556 201T561 137Q564 112 569 84T582 31T600 -10T625 -26H627Q635 -26 641 -21T649 -10Q650 -3 655 -3Q662 -3 662 -14V-21Q662 -66 619 -66H613ZM166 397Q217 399 274 407T388 433T489 483Q491 508 494 529T502 568Q503 571
511 573T531 576Q540 576 549 574T567 566Q568 568 569 570T571 574Q587 606 587 633Q587 663 567 683T501 703Q495 703 489 703T475 701Q419 694 371 666T282 596T213 502T166 397ZM251 26Q255 26 259 26T267 28Q300 34 329 64T384 141T429 241T462 348Q468 373
474 396T485 441L486 456Q438 427 381 408T267 380T158 368Q149 334 146 299Q145 285 145 272T144 244Q144 185 155 135T191 56T251 26ZM504 814Q466 814 439 839T412 899Q412 934 439 958T504 983Q542 983 569 959T596 899Q596 864 569 839T504 814ZM504 848Q524
848 538 863T553 900Q553 921 539 936T504 952Q484 952 470 937T455 900Q455 878 469 863T504 848Z" />
<glyph unicode="&#xc6;" glyph-name="AE" horiz-adv-x="1167" d="M567 -67Q536 -67 516 -40T484 34T464 136L462 152Q431 94 391 51T301 -1Q286 -4 271 -4Q217 -4 180 32T125 129T106 260V273Q55 284 22 309T-11 377Q-11 400 2 418T33 448T67 465Q69 466 72 466Q79
466 79 460Q79 454 71 450Q57 444 45 425T32 389Q32 360 54 341T109 309Q118 394 154 465T247 591T373 678T517 720Q528 722 537 722T557 722Q630 722 668 692T713 614Q740 646 778 666T859 697T943 707Q1017 707 1059 677T1101 606Q1101 565 1052 523T889 459Q888
459 886 459T882 458Q867 458 867 467Q867 474 881 477Q961 493 996 522T1031 579Q1031 608 1001 630T921 652Q887 652 850 642T781 611T728 561T707 495Q707 455 746 426T871 396Q894 396 921 398T979 407H983Q1010 407 1010 388Q1010 377 1003 365T986 345T969
336H956Q907 336 855 326T754 294T667 236T609 149Q596 116 596 91Q596 59 614 41T663 16T727 8Q762 8 798 13T861 26Q933 44 992 77T1077 142Q1100 169 1100 192Q1100 216 1077 229T1018 243Q971 243 911 217T799 130Q790 119 784 119Q779 119 779 125Q779 131
784 140T800 163Q831 198 873 223T960 262T1043 276H1045Q1095 276 1121 248T1148 179Q1148 154 1138 128T1107 78Q1076 42 1021 12T897 -37T752 -56Q699 -56 655 -37T586 19T560 105Q560 129 568 159Q580 202 608 238T674 303T753 350T833 376Q800 382 767 390T708
416T674 469Q652 435 619 405T542 351Q537 309 533 264T529 174Q529 164 529 155T530 136Q532 103 537 66T553 2T582 -26Q600 -27 600 -40Q600 -49 591 -58T569 -67H567ZM223 292Q280 292 344 304T466 339Q472 407 482 467T502 568Q503 571 511 573T531 576Q543
576 555 572T576 557Q575 541 565 493T546 378Q581 401 607 435T648 510T663 587Q663 635 635 669T542 703Q535 703 528 703T513 701Q444 693 387 654T286 555T216 429T185 299Q185 298 185 297T184 294Q193 293 203 293T223 292ZM289 26Q294 26 298 26T306 28Q337
34 365 62T417 132T460 224Q460 247 461 270T464 317Q394 292 320 279T183 266V243Q183 184 194 135T229 56T289 26Z" />
<glyph unicode="&#xc7;" glyph-name="Ccedilla" horiz-adv-x="647" d="M293 -38Q229 -38 174 -13T83 65T38 204Q37 215 37 226T36 247Q36 314 56 380T114 506T202 611T314 683T445 710H460Q496 709 527 697T578 660T598 590Q598 541 569 495T492 410T386 350T269
327Q265 327 261 327T252 328Q239 329 234 338T228 353Q291 353 352 373T463 434T540 541Q554 575 554 603Q554 632 537 651T477 673H470Q430 673 383 651T290 587T207 490T146 366T123 220V211Q123 132 147 86T213 19T304 -1Q312 -1 319 -1T334 0Q384 5 434 30T527
94T598 177T633 265Q634 270 638 270Q642 270 646 267T650 260V259Q650 214 632 176T589 106Q544 46 474 9T329 -36Q320 -37 311 -37T293 -38ZM290 -43Q280 -43 271 -42T254 -36Q251 -35 251 -30Q251 -21 257 -23Q261 -24 265 -24T273 -24Q293 -24 315 -15T352
15T368 72V75Q368 95 358 113T328 131H326Q313 131 297 126T267 113H266Q263 113 255 118T247 125Q247 129 252 143T263 174T276 208T286 231Q288 234 294 235T309 236Q317 236 323 235T330 233Q323 221 316 203T302 169T291 146Q304 153 317 155T343 158Q371 158
393 146T429 114T438 70Q432 26 408 1T351 -33T290 -43Z" />
<glyph unicode="&#xc8;" glyph-name="Egrave" horiz-adv-x="685" d="M288 -56Q226 -56 172 -40T84 15Q70 32 62 56T53 111Q53 138 60 163Q73 208 108 244T189 308T283 352T369 376Q341 381 312 387T258 407T220 444Q132 447 77 468T-3 519T-28 580Q-28 614 0 638T77
663Q106 663 137 650T187 619Q199 607 199 601Q199 596 192 596Q186 596 181 599Q156 614 131 620T80 627Q49 627 31 611T12 571Q12 550 32 527T96 486T212 464Q207 482 207 500Q207 553 232 591T297 656T385 694T479 707Q553 707 595 677T638 606Q638 570 600
534T479 472T261 444Q279 423 315 410T407 396Q430 396 457 398T515 407H519Q546 407 546 388Q546 372 532 354T506 336H491Q441 336 384 327T271 297T172 241T106 153Q93 121 93 96Q93 62 115 43T174 16T250 8Q291 8 330 13T397 26Q469 44 528 77T613 142Q636
169 636 192Q636 216 613 229T554 243Q507 243 447 217T335 130Q326 119 320 119Q315 119 315 125Q315 131 320 140T336 163Q367 198 409 223T497 262T579 276H581Q631 276 657 248T684 179Q684 154 674 128T643 78Q612 42 557 12T433 -37T288 -56ZM250 463H253Q368
463 436 481T535 526T566 580Q566 609 536 630T457 652Q423 652 386 642T317 611T264 561T243 495Q243 477 250 463ZM517 798Q517 798 517 798T516 798L368 873Q364 874 364 878Q364 886 376 896T398 907Q403 907 405 905L525 806Q526 805 526 804Q526 803 524
801T517 798Z" />
<glyph unicode="&#xc9;" glyph-name="Eacute" horiz-adv-x="685" d="M288 -56Q226 -56 172 -40T84 15Q70 32 62 56T53 111Q53 138 60 163Q73 208 108 244T189 308T283 352T369 376Q341 381 312 387T258 407T220 444Q132 447 77 468T-3 519T-28 580Q-28 614 0 638T77
663Q106 663 137 650T187 619Q199 607 199 601Q199 596 192 596Q186 596 181 599Q156 614 131 620T80 627Q49 627 31 611T12 571Q12 550 32 527T96 486T212 464Q207 482 207 500Q207 553 232 591T297 656T385 694T479 707Q553 707 595 677T638 606Q638 570 600
534T479 472T261 444Q279 423 315 410T407 396Q430 396 457 398T515 407H519Q546 407 546 388Q546 372 532 354T506 336H491Q441 336 384 327T271 297T172 241T106 153Q93 121 93 96Q93 62 115 43T174 16T250 8Q291 8 330 13T397 26Q469 44 528 77T613 142Q636
169 636 192Q636 216 613 229T554 243Q507 243 447 217T335 130Q326 119 320 119Q315 119 315 125Q315 131 320 140T336 163Q367 198 409 223T497 262T579 276H581Q631 276 657 248T684 179Q684 154 674 128T643 78Q612 42 557 12T433 -37T288 -56ZM250 463H253Q368
463 436 481T535 526T566 580Q566 609 536 630T457 652Q423 652 386 642T317 611T264 561T243 495Q243 477 250 463ZM447 796Q443 796 441 798T438 803Q438 803 439 804L559 903Q562 905 566 905Q576 905 588 895T600 877Q600 872 596 871L449 797Q448 797 448
797T447 796Z" />
<glyph unicode="&#xca;" glyph-name="Ecircumflex" horiz-adv-x="685" d="M288 -56Q226 -56 172 -40T84 15Q70 32 62 56T53 111Q53 138 60 163Q73 208 108 244T189 308T283 352T369 376Q341 381 312 387T258 407T220 444Q132 447 77 468T-3 519T-28 580Q-28 614
0 638T77 663Q106 663 137 650T187 619Q199 607 199 601Q199 596 192 596Q186 596 181 599Q156 614 131 620T80 627Q49 627 31 611T12 571Q12 550 32 527T96 486T212 464Q207 482 207 500Q207 553 232 591T297 656T385 694T479 707Q553 707 595 677T638 606Q638
570 600 534T479 472T261 444Q279 423 315 410T407 396Q430 396 457 398T515 407H519Q546 407 546 388Q546 372 532 354T506 336H491Q441 336 384 327T271 297T172 241T106 153Q93 121 93 96Q93 62 115 43T174 16T250 8Q291 8 330 13T397 26Q469 44 528 77T613
142Q636 169 636 192Q636 216 613 229T554 243Q507 243 447 217T335 130Q326 119 320 119Q315 119 315 125Q315 131 320 140T336 163Q367 198 409 223T497 262T579 276H581Q631 276 657 248T684 179Q684 154 674 128T643 78Q612 42 557 12T433 -37T288 -56ZM250
463H253Q368 463 436 481T535 526T566 580Q566 609 536 630T457 652Q423 652 386 642T317 611T264 561T243 495Q243 477 250 463ZM576 781Q566 781 556 782T542 788L475 864Q454 844 432 826T390 788Q387 785 382 784T370 783Q359 783 359 786Q359 787 360 788Q374
803 393 825T432 870T466 907T481 923H488Q515 889 542 855T597 788Q598 787 598 786Q598 784 592 783T576 781Z" />
<glyph unicode="&#xcb;" glyph-name="Edieresis" horiz-adv-x="685" d="M288 -56Q226 -56 172 -40T84 15Q70 32 62 56T53 111Q53 138 60 163Q73 208 108 244T189 308T283 352T369 376Q341 381 312 387T258 407T220 444Q132 447 77 468T-3 519T-28 580Q-28 614
0 638T77 663Q106 663 137 650T187 619Q199 607 199 601Q199 596 192 596Q186 596 181 599Q156 614 131 620T80 627Q49 627 31 611T12 571Q12 550 32 527T96 486T212 464Q207 482 207 500Q207 553 232 591T297 656T385 694T479 707Q553 707 595 677T638 606Q638
570 600 534T479 472T261 444Q279 423 315 410T407 396Q430 396 457 398T515 407H519Q546 407 546 388Q546 372 532 354T506 336H491Q441 336 384 327T271 297T172 241T106 153Q93 121 93 96Q93 62 115 43T174 16T250 8Q291 8 330 13T397 26Q469 44 528 77T613
142Q636 169 636 192Q636 216 613 229T554 243Q507 243 447 217T335 130Q326 119 320 119Q315 119 315 125Q315 131 320 140T336 163Q367 198 409 223T497 262T579 276H581Q631 276 657 248T684 179Q684 154 674 128T643 78Q612 42 557 12T433 -37T288 -56ZM250
463H253Q368 463 436 481T535 526T566 580Q566 609 536 630T457 652Q423 652 386 642T317 611T264 561T243 495Q243 477 250 463ZM548 797Q532 797 521 808T510 835Q510 851 521 862T548 873Q563 873 574 862T585 835Q585 820 574 809T548 797ZM410 797Q394 797
383 808T372 835Q372 851 383 862T410 873Q425 873 436 862T447 835Q447 820 436 809T410 797Z" />
<glyph unicode="&#xcc;" glyph-name="Igrave" horiz-adv-x="477" d="M159 -14Q107 -14 74 5T24 56T1 125T-6 197Q-6 205 -6 213T-5 230Q-4 245 1 259T20 279Q26 282 34 282Q41 282 50 278T69 264Q91 244 129 223T215 184T308 154Q319 188 327 227T343 311Q352
365 356 418T360 517Q360 549 358 576T353 621Q349 647 338 667T305 688Q276 688 259 663T234 597T226 508Q226 455 234 402T255 309T283 254Q289 248 289 244Q289 238 279 238Q268 238 261 246Q238 271 220 314T192 411T181 517Q181 569 193 614T231 688T299 721H311Q349
721 373 703T411 653T429 584T434 508Q434 471 431 438T426 382Q419 312 404 251T366 142Q380 140 393 139T417 137Q434 137 447 140Q465 145 474 151T490 165Q496 172 503 172Q513 172 513 163V161Q513 142 477 127T370 111H350Q316 53 270 20T165 -14H159ZM170
11Q215 11 245 39T295 118Q252 126 205 139T116 169T45 198Q46 153 56 110T93 39T170 11ZM345 812Q345 812 345 812T344 812L196 887Q192 888 192 892Q192 900 204 910T226 921Q231 921 233 919L353 820Q354 819 354 818Q354 817 352 815T345 812Z" />
<glyph unicode="&#xcd;" glyph-name="Iacute" horiz-adv-x="477" d="M159 -14Q107 -14 74 5T24 56T1 125T-6 197Q-6 205 -6 213T-5 230Q-4 245 1 259T20 279Q26 282 34 282Q41 282 50 278T69 264Q91 244 129 223T215 184T308 154Q319 188 327 227T343 311Q352
365 356 418T360 517Q360 549 358 576T353 621Q349 647 338 667T305 688Q276 688 259 663T234 597T226 508Q226 455 234 402T255 309T283 254Q289 248 289 244Q289 238 279 238Q268 238 261 246Q238 271 220 314T192 411T181 517Q181 569 193 614T231 688T299 721H311Q349
721 373 703T411 653T429 584T434 508Q434 471 431 438T426 382Q419 312 404 251T366 142Q380 140 393 139T417 137Q434 137 447 140Q465 145 474 151T490 165Q496 172 503 172Q513 172 513 163V161Q513 142 477 127T370 111H350Q316 53 270 20T165 -14H159ZM170
11Q215 11 245 39T295 118Q252 126 205 139T116 169T45 198Q46 153 56 110T93 39T170 11ZM275 810Q271 810 269 812T266 817Q266 817 267 818L387 917Q390 919 394 919Q404 919 416 909T428 891Q428 886 424 885L277 811Q276 811 276 811T275 810Z" />
<glyph unicode="&#xce;" glyph-name="Icircumflex" horiz-adv-x="477" d="M159 -14Q107 -14 74 5T24 56T1 125T-6 197Q-6 205 -6 213T-5 230Q-4 245 1 259T20 279Q26 282 34 282Q41 282 50 278T69 264Q91 244 129 223T215 184T308 154Q319 188 327 227T343 311Q352
365 356 418T360 517Q360 549 358 576T353 621Q349 647 338 667T305 688Q276 688 259 663T234 597T226 508Q226 455 234 402T255 309T283 254Q289 248 289 244Q289 238 279 238Q268 238 261 246Q238 271 220 314T192 411T181 517Q181 569 193 614T231 688T299 721H311Q349
721 373 703T411 653T429 584T434 508Q434 471 431 438T426 382Q419 312 404 251T366 142Q380 140 393 139T417 137Q434 137 447 140Q465 145 474 151T490 165Q496 172 503 172Q513 172 513 163V161Q513 142 477 127T370 111H350Q316 53 270 20T165 -14H159ZM170
11Q215 11 245 39T295 118Q252 126 205 139T116 169T45 198Q46 153 56 110T93 39T170 11ZM404 795Q394 795 384 796T370 802L303 878Q282 858 260 840T218 802Q215 799 210 798T198 797Q187 797 187 800Q187 801 188 802Q202 817 221 839T260 884T294 921T309 937H316Q343
903 370 869T425 802Q426 801 426 800Q426 798 420 797T404 795Z" />
<glyph unicode="&#xcf;" glyph-name="Idieresis" horiz-adv-x="477" d="M159 -14Q107 -14 74 5T24 56T1 125T-6 197Q-6 205 -6 213T-5 230Q-4 245 1 259T20 279Q26 282 34 282Q41 282 50 278T69 264Q91 244 129 223T215 184T308 154Q319 188 327 227T343 311Q352
365 356 418T360 517Q360 549 358 576T353 621Q349 647 338 667T305 688Q276 688 259 663T234 597T226 508Q226 455 234 402T255 309T283 254Q289 248 289 244Q289 238 279 238Q268 238 261 246Q238 271 220 314T192 411T181 517Q181 569 193 614T231 688T299 721H311Q349
721 373 703T411 653T429 584T434 508Q434 471 431 438T426 382Q419 312 404 251T366 142Q380 140 393 139T417 137Q434 137 447 140Q465 145 474 151T490 165Q496 172 503 172Q513 172 513 163V161Q513 142 477 127T370 111H350Q316 53 270 20T165 -14H159ZM170
11Q215 11 245 39T295 118Q252 126 205 139T116 169T45 198Q46 153 56 110T93 39T170 11ZM376 811Q360 811 349 822T338 849Q338 865 349 876T376 887Q391 887 402 876T413 849Q413 834 402 823T376 811ZM238 811Q222 811 211 822T200 849Q200 865 211 876T238
887Q253 887 264 876T275 849Q275 834 264 823T238 811Z" />
<glyph unicode="&#xd0;" glyph-name="Eth" horiz-adv-x="874" d="M424 0Q396 0 381 12T365 37Q365 45 372 50T394 56Q477 56 555 87T696 171T796 294T833 439Q833 495 809 533T746 596Q689 632 615 648T464 664Q395 664 329 653T208 625Q168 612 133 593T76 550T54
500Q54 475 74 460T127 444Q160 444 201 461T286 519Q288 521 289 521Q292 521 292 516Q292 510 288 500T274 482Q239 450 196 435T113 419Q103 419 93 420T73 423Q39 431 20 455T0 510Q0 550 24 581T89 636T179 676Q239 696 308 708T448 720Q531 720 610 702T752
641Q808 604 841 549T874 422Q874 334 836 258T733 123T588 33T424 0ZM360 -24Q336 -24 322 -6T300 35Q290 63 287 98T283 174Q283 191 283 208T285 243H201Q188 243 188 258Q188 262 190 268Q192 273 197 279T211 286H288Q295 352 306 414T327 520Q333 546 338
572T353 622Q354 625 357 626T364 627Q371 627 386 624T416 615T434 600V595Q411 528 389 449T353 286H429Q437 286 440 281T443 271Q443 267 441 261Q439 257 434 250T420 243H348Q345 219 344 195T343 146V131Q343 90 346 47T363 -24H360Z" />
<glyph unicode="&#xd1;" glyph-name="Ntilde" horiz-adv-x="711" d="M644 -84Q575 -84 546 -28T516 119Q516 167 523 222T543 337Q546 349 555 384T572 465T580 553Q580 592 570 620T530 655Q526 656 522 656T512 657Q476 657 446 630T392 557T350 459T320 352T300
256T290 187Q286 147 282 98T273 -9Q272 -23 254 -35T218 -48H215Q199 -48 186 -42T173 -25Q181 15 188 77T200 210Q202 245 205 293T208 393Q208 453 202 512T181 623T138 706Q113 734 86 734Q63 734 44 712T17 645Q16 635 15 624T13 599Q13 553 24 499T56 397T102
320Q104 318 104 315Q104 312 98 312Q91 312 78 317T54 336Q10 386 -14 454T-38 589Q-38 633 -27 672T10 737Q26 754 45 761T84 769Q115 769 144 754T192 716Q224 676 244 623T274 511T284 396Q284 383 284 370T282 344Q299 415 322 477T374 588T437 662Q491 703
540 703Q594 703 628 657T663 535Q663 513 660 489Q650 420 630 346T596 201Q592 182 587 146T581 71Q581 39 587 10T610 -38T656 -56Q679 -56 693 -42T714 -7Q717 3 724 3Q730 3 730 -4V-6Q730 -36 707 -60T644 -84ZM398 773Q383 773 367 784T333 807T298 819Q286
819 276 805T258 776Q255 772 253 772Q246 772 246 784Q246 797 256 816T281 851T307 866Q322 866 338 855T372 831T406 819Q419 819 428 831T445 857T458 878Q461 880 461 880Q464 880 465 876T467 870Q467 853 458 831T434 791T398 773Z" />
<glyph unicode="&#xd2;" glyph-name="Ograve" horiz-adv-x="711" d="M359 -37Q295 -37 248 -12T169 56T121 156T105 273Q61 289 33 319T4 396Q4 421 15 438T42 466T71 481Q72 481 73 481T75 482Q82 482 82 474Q82 468 75 465Q63 460 53 441T42 403Q42 373 60 351T106
312Q111 384 136 454T207 580T316 670T464 704Q560 704 606 659T652 548Q652 501 637 462Q667 399 667 317Q667 254 648 192T591 78T494 -5T359 -37ZM240 276Q287 276 338 287T438 321T525 378T584 461Q566 499 534 526T452 563Q448 564 448 567Q448 574 459 574H469Q510
574 543 559T600 518Q603 536 603 555Q603 601 581 628T526 668T467 681Q405 681 355 646T269 553T212 425T186 283Q201 279 215 278T240 276ZM356 -14Q410 -14 456 18T536 102T590 216T609 340Q609 356 608 371T604 400Q564 347 502 314T372 266T243 251Q214 251
185 254V245Q185 176 203 117T259 22T356 -14ZM502 795Q502 795 502 795T501 795L353 870Q349 871 349 875Q349 883 361 893T383 904Q388 904 390 902L510 803Q511 802 511 801Q511 800 509 798T502 795Z" />
<glyph unicode="&#xd3;" glyph-name="Oacute" horiz-adv-x="711" d="M359 -37Q295 -37 248 -12T169 56T121 156T105 273Q61 289 33 319T4 396Q4 421 15 438T42 466T71 481Q72 481 73 481T75 482Q82 482 82 474Q82 468 75 465Q63 460 53 441T42 403Q42 373 60 351T106
312Q111 384 136 454T207 580T316 670T464 704Q560 704 606 659T652 548Q652 501 637 462Q667 399 667 317Q667 254 648 192T591 78T494 -5T359 -37ZM240 276Q287 276 338 287T438 321T525 378T584 461Q566 499 534 526T452 563Q448 564 448 567Q448 574 459 574H469Q510
574 543 559T600 518Q603 536 603 555Q603 601 581 628T526 668T467 681Q405 681 355 646T269 553T212 425T186 283Q201 279 215 278T240 276ZM356 -14Q410 -14 456 18T536 102T590 216T609 340Q609 356 608 371T604 400Q564 347 502 314T372 266T243 251Q214 251
185 254V245Q185 176 203 117T259 22T356 -14ZM432 793Q428 793 426 795T423 800Q423 800 424 801L544 900Q547 902 551 902Q561 902 573 892T585 874Q585 869 581 868L434 794Q433 794 433 794T432 793Z" />
<glyph unicode="&#xd4;" glyph-name="Ocircumflex" horiz-adv-x="711" d="M359 -37Q295 -37 248 -12T169 56T121 156T105 273Q61 289 33 319T4 396Q4 421 15 438T42 466T71 481Q72 481 73 481T75 482Q82 482 82 474Q82 468 75 465Q63 460 53 441T42 403Q42 373
60 351T106 312Q111 384 136 454T207 580T316 670T464 704Q560 704 606 659T652 548Q652 501 637 462Q667 399 667 317Q667 254 648 192T591 78T494 -5T359 -37ZM240 276Q287 276 338 287T438 321T525 378T584 461Q566 499 534 526T452 563Q448 564 448 567Q448
574 459 574H469Q510 574 543 559T600 518Q603 536 603 555Q603 601 581 628T526 668T467 681Q405 681 355 646T269 553T212 425T186 283Q201 279 215 278T240 276ZM356 -14Q410 -14 456 18T536 102T590 216T609 340Q609 356 608 371T604 400Q564 347 502 314T372
266T243 251Q214 251 185 254V245Q185 176 203 117T259 22T356 -14ZM561 778Q551 778 541 779T527 785L460 861Q439 841 417 823T375 785Q372 782 367 781T355 780Q344 780 344 783Q344 784 345 785Q359 800 378 822T417 867T451 904T466 920H473Q500 886 527 852T582
785Q583 784 583 783Q583 781 577 780T561 778Z" />
<glyph unicode="&#xd5;" glyph-name="Otilde" horiz-adv-x="711" d="M359 -37Q295 -37 248 -12T169 56T121 156T105 273Q61 289 33 319T4 396Q4 421 15 438T42 466T71 481Q72 481 73 481T75 482Q82 482 82 474Q82 468 75 465Q63 460 53 441T42 403Q42 373 60 351T106
312Q111 384 136 454T207 580T316 670T464 704Q560 704 606 659T652 548Q652 501 637 462Q667 399 667 317Q667 254 648 192T591 78T494 -5T359 -37ZM240 276Q287 276 338 287T438 321T525 378T584 461Q566 499 534 526T452 563Q448 564 448 567Q448 574 459 574H469Q510
574 543 559T600 518Q603 536 603 555Q603 601 581 628T526 668T467 681Q405 681 355 646T269 553T212 425T186 283Q201 279 215 278T240 276ZM356 -14Q410 -14 456 18T536 102T590 216T609 340Q609 356 608 371T604 400Q564 347 502 314T372 266T243 251Q214 251
185 254V245Q185 176 203 117T259 22T356 -14ZM506 777Q491 777 475 788T441 811T406 823Q394 823 384 809T366 780Q363 776 361 776Q354 776 354 788Q354 801 364 820T389 855T415 870Q430 870 446 859T480 835T514 823Q527 823 536 835T553 861T566 882Q569 884
569 884Q572 884 573 880T575 874Q575 857 566 835T542 795T506 777Z" />
<glyph unicode="&#xd6;" glyph-name="Odieresis" horiz-adv-x="711" d="M359 -37Q295 -37 248 -12T169 56T121 156T105 273Q61 289 33 319T4 396Q4 421 15 438T42 466T71 481Q72 481 73 481T75 482Q82 482 82 474Q82 468 75 465Q63 460 53 441T42 403Q42 373 60
351T106 312Q111 384 136 454T207 580T316 670T464 704Q560 704 606 659T652 548Q652 501 637 462Q667 399 667 317Q667 254 648 192T591 78T494 -5T359 -37ZM240 276Q287 276 338 287T438 321T525 378T584 461Q566 499 534 526T452 563Q448 564 448 567Q448 574
459 574H469Q510 574 543 559T600 518Q603 536 603 555Q603 601 581 628T526 668T467 681Q405 681 355 646T269 553T212 425T186 283Q201 279 215 278T240 276ZM356 -14Q410 -14 456 18T536 102T590 216T609 340Q609 356 608 371T604 400Q564 347 502 314T372 266T243
251Q214 251 185 254V245Q185 176 203 117T259 22T356 -14ZM533 794Q517 794 506 805T495 832Q495 848 506 859T533 870Q548 870 559 859T570 832Q570 817 559 806T533 794ZM395 794Q379 794 368 805T357 832Q357 848 368 859T395 870Q410 870 421 859T432 832Q432
817 421 806T395 794Z" />
<glyph unicode="&#xd7;" glyph-name="multiply" horiz-adv-x="513" d="M168 149Q161 149 159 150Q153 152 146 156T139 168Q139 172 141 174L251 318L140 463Q137 468 137 470Q137 476 142 481T153 487Q155 487 158 487T165 488Q170 488 176 487T185 481L280 356L376
481Q379 486 385 487T396 488Q400 488 403 488T407 487Q412 486 417 481T423 471Q423 468 420 463L309 318L419 174Q421 172 421 168Q421 161 414 157T402 150Q399 149 392 149Q388 149 383 150T375 156L280 280L185 156Q182 152 178 151T168 149Z" />
<glyph unicode="&#xd8;" glyph-name="Oslash" horiz-adv-x="667" d="M230 -97Q219 -97 219 -86Q219 -84 219 -82T221 -78Q226 -63 233 -47T247 -11Q200 13 168 56T121 155T104 272Q60 289 32 319T4 396Q4 421 15 438T42 466T71 481Q72 481 73 481T75 482Q82 482
82 474Q82 468 75 465Q63 460 53 441T42 403Q42 372 60 350T106 312Q111 384 136 453T206 580T316 670T464 704Q497 704 524 698L536 728Q542 741 551 741Q561 741 561 730Q561 727 559 721L547 692Q600 674 626 636T652 548Q652 524 648 503T637 461Q667 398 667
317Q667 254 648 192T591 78T494 -5T359 -37Q334 -37 312 -33T269 -21L244 -85Q240 -97 230 -97ZM240 276Q302 276 366 294Q393 362 419 429T469 558Q465 560 461 561T452 563Q448 563 448 567Q448 574 459 574H475L514 673Q487 681 467 681Q404 681 354 646T268
553T212 424T186 282Q216 276 240 276ZM600 518Q603 536 603 555Q603 596 583 623T536 664L500 572Q531 567 556 553T600 518ZM396 303Q457 325 508 364T584 461Q570 490 547 513T492 550L396 303ZM356 -14Q410 -14 456 17T536 101T589 215T608 339Q608 355 607
370T603 399Q565 349 506 317T382 268L280 6Q296 -3 315 -8T356 -14ZM260 21L354 262Q325 256 297 254T243 251Q213 251 184 254V243Q184 173 203 114T260 21Z" />
<glyph unicode="&#xd9;" glyph-name="Ugrave" horiz-adv-x="643" d="M589 -73Q566 -73 543 -55T508 0Q495 44 490 105T484 233Q484 240 484 246T485 260Q472 212 453 164T408 74T354 6T290 -29Q278 -32 266 -32Q229 -32 202 -6T158 65T132 169T121 291Q89 271
59 271Q40 271 19 285T-3 334Q-3 359 5 378T23 406Q24 407 26 407Q29 407 29 402Q29 397 25 389Q17 376 17 351Q17 347 17 343T19 334Q24 318 36 311T61 303Q92 303 121 322Q121 340 123 374T132 453T149 543T175 631Q195 684 225 716T286 748Q308 748 317 729T326
675Q326 616 309 564T266 467T210 380Q208 349 207 319T206 259Q206 192 213 136T239 46T289 12Q292 12 295 12T302 14Q331 20 357 48T404 120T442 214T471 319Q476 342 482 368T493 420Q500 497 510 561T534 664Q535 667 538 667T545 668Q571 668 585 660T608
631Q604 615 595 566T576 449T559 306T551 163V152Q551 125 552 94T559 35T574 -12T602 -30Q612 -30 623 -27T636 -19H643Q642 -46 626 -59T589 -73ZM213 417Q251 474 274 544T298 678Q298 708 291 708Q287 708 281 699T270 679T261 660Q243 615 231 550T213 417ZM459
791Q459 791 459 791T458 791L310 866Q306 867 306 871Q306 879 318 889T340 900Q345 900 347 898L467 799Q468 798 468 797Q468 796 466 794T459 791Z" />
<glyph unicode="&#xda;" glyph-name="Uacute" horiz-adv-x="643" d="M589 -73Q566 -73 543 -55T508 0Q495 44 490 105T484 233Q484 240 484 246T485 260Q472 212 453 164T408 74T354 6T290 -29Q278 -32 266 -32Q229 -32 202 -6T158 65T132 169T121 291Q89 271
59 271Q40 271 19 285T-3 334Q-3 359 5 378T23 406Q24 407 26 407Q29 407 29 402Q29 397 25 389Q17 376 17 351Q17 347 17 343T19 334Q24 318 36 311T61 303Q92 303 121 322Q121 340 123 374T132 453T149 543T175 631Q195 684 225 716T286 748Q308 748 317 729T326
675Q326 616 309 564T266 467T210 380Q208 349 207 319T206 259Q206 192 213 136T239 46T289 12Q292 12 295 12T302 14Q331 20 357 48T404 120T442 214T471 319Q476 342 482 368T493 420Q500 497 510 561T534 664Q535 667 538 667T545 668Q571 668 585 660T608
631Q604 615 595 566T576 449T559 306T551 163V152Q551 125 552 94T559 35T574 -12T602 -30Q612 -30 623 -27T636 -19H643Q642 -46 626 -59T589 -73ZM213 417Q251 474 274 544T298 678Q298 708 291 708Q287 708 281 699T270 679T261 660Q243 615 231 550T213 417ZM389
789Q385 789 383 791T380 796Q380 796 381 797L501 896Q504 898 508 898Q518 898 530 888T542 870Q542 865 538 864L391 790Q390 790 390 790T389 789Z" />
<glyph unicode="&#xdb;" glyph-name="Ucircumflex" horiz-adv-x="643" d="M589 -73Q566 -73 543 -55T508 0Q495 44 490 105T484 233Q484 240 484 246T485 260Q472 212 453 164T408 74T354 6T290 -29Q278 -32 266 -32Q229 -32 202 -6T158 65T132 169T121 291Q89
271 59 271Q40 271 19 285T-3 334Q-3 359 5 378T23 406Q24 407 26 407Q29 407 29 402Q29 397 25 389Q17 376 17 351Q17 347 17 343T19 334Q24 318 36 311T61 303Q92 303 121 322Q121 340 123 374T132 453T149 543T175 631Q195 684 225 716T286 748Q308 748 317
729T326 675Q326 616 309 564T266 467T210 380Q208 349 207 319T206 259Q206 192 213 136T239 46T289 12Q292 12 295 12T302 14Q331 20 357 48T404 120T442 214T471 319Q476 342 482 368T493 420Q500 497 510 561T534 664Q535 667 538 667T545 668Q571 668 585
660T608 631Q604 615 595 566T576 449T559 306T551 163V152Q551 125 552 94T559 35T574 -12T602 -30Q612 -30 623 -27T636 -19H643Q642 -46 626 -59T589 -73ZM213 417Q251 474 274 544T298 678Q298 708 291 708Q287 708 281 699T270 679T261 660Q243 615 231 550T213
417ZM518 774Q508 774 498 775T484 781L417 857Q396 837 374 819T332 781Q329 778 324 777T312 776Q301 776 301 779Q301 780 302 781Q316 796 335 818T374 863T408 900T423 916H430Q457 882 484 848T539 781Q540 780 540 779Q540 777 534 776T518 774Z" />
<glyph unicode="&#xdc;" glyph-name="Udieresis" horiz-adv-x="643" d="M589 -73Q566 -73 543 -55T508 0Q495 44 490 105T484 233Q484 240 484 246T485 260Q472 212 453 164T408 74T354 6T290 -29Q278 -32 266 -32Q229 -32 202 -6T158 65T132 169T121 291Q89 271
59 271Q40 271 19 285T-3 334Q-3 359 5 378T23 406Q24 407 26 407Q29 407 29 402Q29 397 25 389Q17 376 17 351Q17 347 17 343T19 334Q24 318 36 311T61 303Q92 303 121 322Q121 340 123 374T132 453T149 543T175 631Q195 684 225 716T286 748Q308 748 317 729T326
675Q326 616 309 564T266 467T210 380Q208 349 207 319T206 259Q206 192 213 136T239 46T289 12Q292 12 295 12T302 14Q331 20 357 48T404 120T442 214T471 319Q476 342 482 368T493 420Q500 497 510 561T534 664Q535 667 538 667T545 668Q571 668 585 660T608
631Q604 615 595 566T576 449T559 306T551 163V152Q551 125 552 94T559 35T574 -12T602 -30Q612 -30 623 -27T636 -19H643Q642 -46 626 -59T589 -73ZM213 417Q251 474 274 544T298 678Q298 708 291 708Q287 708 281 699T270 679T261 660Q243 615 231 550T213 417ZM490
790Q474 790 463 801T452 828Q452 844 463 855T490 866Q505 866 516 855T527 828Q527 813 516 802T490 790ZM352 790Q336 790 325 801T314 828Q314 844 325 855T352 866Q367 866 378 855T389 828Q389 813 378 802T352 790Z" />
<glyph unicode="&#xdd;" glyph-name="Yacute" horiz-adv-x="764" d="M463 -420Q416 -420 388 -401T347 -351T335 -283Q335 -218 364 -156T430 -41Q483 36 536 87T651 179Q649 194 646 226T639 296T630 372T623 435Q615 409 605 380T584 319Q560 254 530 193T464
84T385 8T295 -21H287Q239 -18 222 21T205 112Q205 153 211 195T226 273T238 328Q240 338 246 367T259 438T272 524T277 610Q277 660 266 694T225 728Q193 728 166 702T118 633T81 540T57 442T49 356Q49 331 53 314T66 291Q73 287 73 281Q73 269 60 269Q53 269
47 275Q34 290 25 325T16 406Q16 434 20 464T32 525Q43 566 63 608T113 687T183 746T275 768Q311 768 331 750T359 700T368 631Q368 586 360 538T341 449T324 385Q321 373 313 344T295 277T279 198T272 123Q272 86 283 61T322 33H327Q363 33 399 62T467 140T527
252T572 381Q588 439 594 491T604 583T616 647T645 671Q649 671 652 666T656 661H657Q660 661 663 641T668 593T671 545T674 521Q677 514 681 489T693 419Q701 367 708 317T721 218L725 220Q739 228 751 230T771 232Q779 232 785 230T793 220Q793 216 789 214T779
212Q765 211 750 205T725 193Q731 132 731 53Q731 0 724 -63T699 -190T651 -305T574 -388T463 -420ZM467 -393Q517 -393 551 -369T608 -302T642 -208T660 -101T665 7Q665 53 663 92T657 158Q614 131 567 82T478 -27T411 -150T385 -270Q385 -300 393 -328T419 -374T467
-393ZM472 789Q468 789 466 791T463 796Q463 796 464 797L584 896Q587 898 591 898Q601 898 613 888T625 870Q625 865 621 864L474 790Q473 790 473 790T472 789Z" />
<glyph unicode="&#xde;" glyph-name="Thorn" horiz-adv-x="627" d="M190 -155Q167 -155 144 -137T111 -82Q104 -55 101 -13T98 81Q98 151 103 234T116 404T135 569Q107 557 90 542T72 507Q72 503 73 499T76 490Q78 484 78 482Q78 475 73 475Q67 475 58 488Q52
496 47 515T42 554Q42 581 52 595Q63 609 87 621T146 643Q157 712 167 765T187 844Q189 847 192 847T199 848Q225 848 238 840T261 811Q258 801 251 760T233 658Q263 661 302 661Q350 661 403 654T504 630T580 580T609 498Q609 443 582 391T507 296T396 229T258
204Q236 204 214 206T169 214Q165 175 162 141T158 81Q158 71 158 59T157 35Q157 1 160 -33T174 -89T204 -112Q214 -112 225 -108T239 -100H246Q244 -127 228 -141T190 -155ZM217 250Q276 250 337 269T451 324T535 407T567 511Q567 552 541 574T473 605T386 614Q338
614 294 608T223 596Q210 516 197 426T173 253Q194 250 217 250Z" />
<glyph unicode="&#xdf;" glyph-name="germandbls" horiz-adv-x="552" d="M-90 -287Q-109 -287 -125 -279T-142 -252Q-142 -246 -141 -244Q-128 -268 -102 -268H-99Q-55 -268 -24 -238T25 -162Q35 -137 44 -100T61 -22T73 48Q88 155 91 261T102 473Q109 552 147
603T239 679T348 705Q393 705 431 689T493 640T517 559Q517 504 486 459T408 381T314 334Q355 333 393 326T463 303T513 257T532 182Q532 133 507 96T443 32T360 -7T278 -21Q241 -21 215 -8T189 33V35Q189 64 219 101T301 171T422 217Q425 218 428 218T433 218Q443
218 443 214Q443 207 427 204Q389 197 354 179T292 138T248 94T232 58Q232 37 268 37Q294 37 330 49T402 83T460 137T483 205Q483 241 462 263T410 297T348 313T294 318T268 319Q265 318 259 318Q246 318 241 325T236 341Q236 361 248 364Q279 371 318 391T394
440T455 505T479 582Q479 610 463 633T421 670T363 684Q323 684 282 655T209 558T169 373Q165 327 160 274T148 168Q141 109 135 53T118 -58Q104 -141 73 -191T-1 -264T-90 -287Z" />
<glyph unicode="&#xe0;" glyph-name="agrave" horiz-adv-x="370" d="M309 -5Q278 -5 259 14T230 64T215 126T211 182Q199 137 181 94T140 24T92 -4H91Q67 -4 51 18T27 78T19 158V168Q19 208 26 256T51 349T100 421T181 450Q200 450 215 442T238 417Q245 425 257
430T286 435Q292 435 299 434T315 431Q309 408 301 368T288 281T282 188V184Q282 165 284 139T291 88T305 46T328 29H329Q337 29 346 37T367 67Q382 96 395 142Q397 151 403 151Q408 151 408 139V135Q406 109 394 76T361 19T309 -5ZM126 78Q142 78 155 101T180
157T199 221Q211 267 215 314T232 408Q220 421 205 421Q183 421 160 399T124 349Q108 314 101 267T93 177Q93 166 93 155T95 134Q97 104 106 91T126 78ZM249 525Q249 525 249 525T248 525L100 600Q96 601 96 605Q96 613 108 623T130 634Q135 634 137 632L257 533Q258
532 258 531Q258 530 256 528T249 525Z" />
<glyph unicode="&#xe1;" glyph-name="aacute" horiz-adv-x="370" d="M309 -5Q278 -5 259 14T230 64T215 126T211 182Q199 137 181 94T140 24T92 -4H91Q67 -4 51 18T27 78T19 158V168Q19 208 26 256T51 349T100 421T181 450Q200 450 215 442T238 417Q245 425 257
430T286 435Q292 435 299 434T315 431Q309 408 301 368T288 281T282 188V184Q282 165 284 139T291 88T305 46T328 29H329Q337 29 346 37T367 67Q382 96 395 142Q397 151 403 151Q408 151 408 139V135Q406 109 394 76T361 19T309 -5ZM126 78Q142 78 155 101T180
157T199 221Q211 267 215 314T232 408Q220 421 205 421Q183 421 160 399T124 349Q108 314 101 267T93 177Q93 166 93 155T95 134Q97 104 106 91T126 78ZM179 523Q175 523 173 525T170 530Q170 530 171 531L291 630Q294 632 298 632Q308 632 320 622T332 604Q332
599 328 598L181 524Q180 524 180 524T179 523Z" />
<glyph unicode="&#xe2;" glyph-name="acircumflex" horiz-adv-x="370" d="M309 -5Q278 -5 259 14T230 64T215 126T211 182Q199 137 181 94T140 24T92 -4H91Q67 -4 51 18T27 78T19 158V168Q19 208 26 256T51 349T100 421T181 450Q200 450 215 442T238 417Q245 425
257 430T286 435Q292 435 299 434T315 431Q309 408 301 368T288 281T282 188V184Q282 165 284 139T291 88T305 46T328 29H329Q337 29 346 37T367 67Q382 96 395 142Q397 151 403 151Q408 151 408 139V135Q406 109 394 76T361 19T309 -5ZM126 78Q142 78 155 101T180
157T199 221Q211 267 215 314T232 408Q220 421 205 421Q183 421 160 399T124 349Q108 314 101 267T93 177Q93 166 93 155T95 134Q97 104 106 91T126 78ZM308 764Q298 764 288 765T274 771L207 847Q186 827 164 809T122 771Q119 768 114 767T102 766Q91 766 91 769Q91
770 92 771Q106 786 125 808T164 853T198 890T213 906H220Q247 872 274 838T329 771Q330 770 330 769Q330 767 324 766T308 764Z" />
<glyph unicode="&#xe3;" glyph-name="atilde" horiz-adv-x="370" d="M309 -5Q278 -5 259 14T230 64T215 126T211 182Q199 137 181 94T140 24T92 -4H91Q67 -4 51 18T27 78T19 158V168Q19 208 26 256T51 349T100 421T181 450Q200 450 215 442T238 417Q245 425 257
430T286 435Q292 435 299 434T315 431Q309 408 301 368T288 281T282 188V184Q282 165 284 139T291 88T305 46T328 29H329Q337 29 346 37T367 67Q382 96 395 142Q397 151 403 151Q408 151 408 139V135Q406 109 394 76T361 19T309 -5ZM126 78Q142 78 155 101T180
157T199 221Q211 267 215 314T232 408Q220 421 205 421Q183 421 160 399T124 349Q108 314 101 267T93 177Q93 166 93 155T95 134Q97 104 106 91T126 78ZM253 763Q238 763 222 774T188 797T153 809Q141 809 131 795T113 766Q110 762 108 762Q101 762 101 774Q101
787 111 806T136 841T162 856Q177 856 193 845T227 821T261 809Q274 809 283 821T300 847T313 868Q316 870 316 870Q319 870 320 866T322 860Q322 843 313 821T289 781T253 763Z" />
<glyph unicode="&#xe4;" glyph-name="adieresis" horiz-adv-x="370" d="M309 -5Q278 -5 259 14T230 64T215 126T211 182Q199 137 181 94T140 24T92 -4H91Q67 -4 51 18T27 78T19 158V168Q19 208 26 256T51 349T100 421T181 450Q200 450 215 442T238 417Q245 425
257 430T286 435Q292 435 299 434T315 431Q309 408 301 368T288 281T282 188V184Q282 165 284 139T291 88T305 46T328 29H329Q337 29 346 37T367 67Q382 96 395 142Q397 151 403 151Q408 151 408 139V135Q406 109 394 76T361 19T309 -5ZM126 78Q142 78 155 101T180
157T199 221Q211 267 215 314T232 408Q220 421 205 421Q183 421 160 399T124 349Q108 314 101 267T93 177Q93 166 93 155T95 134Q97 104 106 91T126 78ZM280 780Q264 780 253 791T242 818Q242 834 253 845T280 856Q295 856 306 845T317 818Q317 803 306 792T280
780ZM142 780Q126 780 115 791T104 818Q104 834 115 845T142 856Q157 856 168 845T179 818Q179 803 168 792T142 780Z" />
<glyph unicode="&#xe5;" glyph-name="aring" horiz-adv-x="370" d="M309 -5Q278 -5 259 14T230 64T215 126T211 182Q199 137 181 94T140 24T92 -4H91Q67 -4 51 18T27 78T19 158V168Q19 208 26 256T51 349T100 421T181 450Q200 450 215 442T238 417Q245 425 257
430T286 435Q292 435 299 434T315 431Q309 408 301 368T288 281T282 188V184Q282 165 284 139T291 88T305 46T328 29H329Q337 29 346 37T367 67Q382 96 395 142Q397 151 403 151Q408 151 408 139V135Q406 109 394 76T361 19T309 -5ZM126 78Q142 78 155 101T180
157T199 221Q211 267 215 314T232 408Q220 421 205 421Q183 421 160 399T124 349Q108 314 101 267T93 177Q93 166 93 155T95 134Q97 104 106 91T126 78ZM467 782Q429 782 402 807T375 867Q375 902 402 926T467 951Q505 951 532 927T559 867Q559 832 532 807T467
782ZM467 816Q487 816 501 831T516 868Q516 889 502 904T467 920Q447 920 433 905T418 868Q418 846 432 831T467 816Z" />
<glyph unicode="&#xe6;" glyph-name="ae" horiz-adv-x="458" d="M355 -19Q302 -19 274 5T236 68T223 149V166Q223 177 223 187T224 207L221 203Q211 167 198 131T168 64T132 15T92 -4H91Q67 -4 52 18T30 78T23 158Q23 189 28 228T44 306T74 377T123 430T192 450Q212
450 226 442T248 417Q256 438 272 445T305 452Q324 452 334 447Q332 442 329 429T322 406T319 395Q338 421 359 431T405 442H410Q439 442 451 421T463 377V374Q463 320 439 281T377 217T300 184Q300 163 302 136T311 82T334 38T376 21Q392 21 410 28Q454 43 477
124Q480 136 487 136Q494 136 494 122Q494 116 491 104Q475 49 443 15T355 -19ZM126 78Q139 78 152 95T176 139T196 194T211 247T219 283L242 408Q230 421 214 421Q192 421 169 399T132 349Q113 311 105 260T97 165Q97 157 97 150T98 134Q100 104 108 91T126 78ZM301
207Q333 215 356 238T394 294T409 359V365Q409 382 403 398T382 414H381Q363 414 350 397T327 352T312 296T304 243T301 208V207Z" />
<glyph unicode="&#xe7;" glyph-name="ccedilla" horiz-adv-x="260" d="M155 -19Q109 -19 82 3T42 61T26 137Q25 144 25 151T25 166Q25 207 33 254T62 342T115 410T196 436Q225 436 243 414T262 362Q262 331 252 317T228 302Q204 302 204 353Q204 373 198 390T175
407Q156 407 144 389T123 342T111 282T105 223T103 180V176Q103 136 111 101T138 45T189 24Q248 24 277 124Q280 136 288 136Q295 136 295 122Q295 115 292 104Q276 49 243 15T155 -19ZM407 -267Q397 -267 388 -266T371 -260Q368 -259 368 -254Q368 -245 374 -247Q378
-248 382 -248T390 -248Q410 -248 432 -239T469 -209T485 -152V-149Q485 -129 475 -111T445 -93H443Q430 -93 414 -98T384 -111H383Q380 -111 372 -106T364 -99Q364 -95 369 -81T380 -50T393 -16T403 7Q405 10 411 11T426 12Q434 12 440 11T447 9Q440 -3 433 -21T419
-55T408 -78Q421 -71 434 -69T460 -66Q488 -66 510 -78T546 -110T555 -154Q549 -198 525 -223T468 -257T407 -267Z" />
<glyph unicode="&#xe8;" glyph-name="egrave" horiz-adv-x="263" d="M160 -19Q112 -19 83 10T40 83T26 169Q26 217 36 265T67 354T122 418T200 443Q232 443 250 424T268 368Q268 318 244 280T182 217T105 184V179Q105 138 113 103T141 46T193 24Q232 24 253 56T286
139Q287 143 289 146T294 150Q303 150 302 137Q299 110 290 86T271 45Q252 14 226 -2T160 -19ZM106 207Q138 215 162 238T199 294T213 359V364Q213 382 208 398T187 414Q169 414 156 397T133 352T117 296T109 243T106 208V207ZM225 525Q225 525 225 525T224 525L76
600Q72 601 72 605Q72 613 84 623T106 634Q111 634 113 632L233 533Q234 532 234 531Q234 530 232 528T225 525Z" />
<glyph unicode="&#xe9;" glyph-name="eacute" horiz-adv-x="263" d="M160 -19Q112 -19 83 10T40 83T26 169Q26 217 36 265T67 354T122 418T200 443Q232 443 250 424T268 368Q268 318 244 280T182 217T105 184V179Q105 138 113 103T141 46T193 24Q232 24 253 56T286
139Q287 143 289 146T294 150Q303 150 302 137Q299 110 290 86T271 45Q252 14 226 -2T160 -19ZM106 207Q138 215 162 238T199 294T213 359V364Q213 382 208 398T187 414Q169 414 156 397T133 352T117 296T109 243T106 208V207ZM155 523Q151 523 149 525T146 530Q146
530 147 531L267 630Q270 632 274 632Q284 632 296 622T308 604Q308 599 304 598L157 524Q156 524 156 524T155 523Z" />
<glyph unicode="&#xea;" glyph-name="ecircumflex" horiz-adv-x="263" d="M160 -19Q112 -19 83 10T40 83T26 169Q26 217 36 265T67 354T122 418T200 443Q232 443 250 424T268 368Q268 318 244 280T182 217T105 184V179Q105 138 113 103T141 46T193 24Q232 24 253
56T286 139Q287 143 289 146T294 150Q303 150 302 137Q299 110 290 86T271 45Q252 14 226 -2T160 -19ZM106 207Q138 215 162 238T199 294T213 359V364Q213 382 208 398T187 414Q169 414 156 397T133 352T117 296T109 243T106 208V207ZM540 764Q530 764 520 765T506
771L439 847Q418 827 396 809T354 771Q351 768 346 767T334 766Q323 766 323 769Q323 770 324 771Q338 786 357 808T396 853T430 890T445 906H452Q479 872 506 838T561 771Q562 770 562 769Q562 767 556 766T540 764Z" />
<glyph unicode="&#xeb;" glyph-name="edieresis" horiz-adv-x="263" d="M160 -19Q112 -19 83 10T40 83T26 169Q26 217 36 265T67 354T122 418T200 443Q232 443 250 424T268 368Q268 318 244 280T182 217T105 184V179Q105 138 113 103T141 46T193 24Q232 24 253
56T286 139Q287 143 289 146T294 150Q303 150 302 137Q299 110 290 86T271 45Q252 14 226 -2T160 -19ZM106 207Q138 215 162 238T199 294T213 359V364Q213 382 208 398T187 414Q169 414 156 397T133 352T117 296T109 243T106 208V207ZM512 780Q496 780 485 791T474
818Q474 834 485 845T512 856Q527 856 538 845T549 818Q549 803 538 792T512 780ZM374 780Q358 780 347 791T336 818Q336 834 347 845T374 856Q389 856 400 845T411 818Q411 803 400 792T374 780Z" />
<glyph unicode="&#xec;" glyph-name="igrave" horiz-adv-x="173" d="M112 -5Q76 -5 56 25T27 103T18 203Q18 246 22 286T33 357T46 401Q52 413 65 423T102 434Q115 434 128 431Q118 396 104 334T90 197Q90 171 91 142T96 87T108 45T131 29H132Q140 29 149 37T170
67Q185 96 198 142Q200 151 206 151Q211 151 211 139V135Q209 109 197 76T164 19T112 -5ZM396 525Q396 525 396 525T395 525L247 600Q243 601 243 605Q243 613 255 623T277 634Q282 634 284 632L404 533Q405 532 405 531Q405 530 403 528T396 525Z" />
<glyph unicode="&#xed;" glyph-name="iacute" horiz-adv-x="173" d="M112 -5Q76 -5 56 25T27 103T18 203Q18 246 22 286T33 357T46 401Q52 413 65 423T102 434Q115 434 128 431Q118 396 104 334T90 197Q90 171 91 142T96 87T108 45T131 29H132Q140 29 149 37T170
67Q185 96 198 142Q200 151 206 151Q211 151 211 139V135Q209 109 197 76T164 19T112 -5ZM70 523Q66 523 64 525T61 530Q61 530 62 531L182 630Q185 632 189 632Q199 632 211 622T223 604Q223 599 219 598L72 524Q71 524 71 524T70 523Z" />
<glyph unicode="&#xee;" glyph-name="icircumflex" horiz-adv-x="173" d="M112 -5Q76 -5 56 25T27 103T18 203Q18 246 22 286T33 357T46 401Q52 413 65 423T102 434Q115 434 128 431Q118 396 104 334T90 197Q90 171 91 142T96 87T108 45T131 29H132Q140 29 149
37T170 67Q185 96 198 142Q200 151 206 151Q211 151 211 139V135Q209 109 197 76T164 19T112 -5ZM455 764Q445 764 435 765T421 771L354 847Q333 827 311 809T269 771Q266 768 261 767T249 766Q238 766 238 769Q238 770 239 771Q253 786 272 808T311 853T345 890T360
906H367Q394 872 421 838T476 771Q477 770 477 769Q477 767 471 766T455 764Z" />
<glyph unicode="&#xef;" glyph-name="idieresis" horiz-adv-x="173" d="M112 -5Q76 -5 56 25T27 103T18 203Q18 246 22 286T33 357T46 401Q52 413 65 423T102 434Q115 434 128 431Q118 396 104 334T90 197Q90 171 91 142T96 87T108 45T131 29H132Q140 29 149 37T170
67Q185 96 198 142Q200 151 206 151Q211 151 211 139V135Q209 109 197 76T164 19T112 -5ZM427 780Q411 780 400 791T389 818Q389 834 400 845T427 856Q442 856 453 845T464 818Q464 803 453 792T427 780ZM289 780Q273 780 262 791T251 818Q251 834 262 845T289
856Q304 856 315 845T326 818Q326 803 315 792T289 780Z" />
<glyph unicode="&#xf0;" glyph-name="eth" horiz-adv-x="338" d="M142 -1Q104 -1 78 30T39 110T25 214Q25 272 40 325T87 412T167 447Q196 447 220 433T250 403Q252 397 252 393Q252 383 247 375T235 367Q229 367 223 377Q216 389 201 406T165 424Q150 424 137
402T115 346T101 275Q100 267 99 248T98 204Q98 169 102 132T117 69T149 43Q168 43 183 62T210 111T231 174T245 235T253 280Q258 315 261 350T264 419Q264 474 255 522T225 606L149 542Q145 539 141 539Q136 539 132 544T126 553Q124 559 124 566Q124 570 125
574T130 581L199 640Q160 679 97 679Q84 679 72 675T45 665Q43 664 39 664Q30 664 30 672Q30 677 35 682T53 690Q93 700 129 700Q190 700 233 669L295 723Q299 727 304 727Q309 727 314 722T321 711Q321 710 321 707T322 701Q322 690 317 684L265 640Q296 603 311
549T327 431V422Q327 386 320 333T299 221T263 113T211 31T142 -1Z" />
<glyph unicode="&#xf1;" glyph-name="ntilde" horiz-adv-x="345" d="M54 -8Q40 -8 31 2T21 38Q21 42 21 46T22 56Q24 74 26 106T30 178T32 258Q32 300 30 337T21 397Q29 399 42 408T69 420Q72 421 77 421Q94 421 98 403T103 359Q103 341 103 317T100 274Q111 306
124 329T152 375Q167 398 184 420T230 443Q260 443 269 423T278 379Q278 366 277 355T275 333Q275 326 272 297T266 228T263 148Q263 137 264 118T268 79T278 46T299 32Q307 32 317 38Q328 46 336 59T350 85Q354 94 358 105T365 128Q369 140 376 140Q381 140 381
130V126Q381 119 379 108T372 86Q360 49 337 22T271 -6Q243 -6 228 15T205 71Q201 90 200 109T198 147Q198 194 204 240T211 330Q211 344 208 356T192 369Q180 369 163 346Q146 324 128 282T98 186T86 76Q86 42 92 7Q85 2 74 -3T54 -8ZM444 763Q429 763 413 774T379
797T344 809Q332 809 322 795T304 766Q301 762 299 762Q292 762 292 774Q292 787 302 806T327 841T353 856Q368 856 384 845T418 821T452 809Q465 809 474 821T491 847T504 868Q507 870 507 870Q510 870 511 866T513 860Q513 843 504 821T480 781T444 763Z" />
<glyph unicode="&#xf2;" glyph-name="ograve" horiz-adv-x="294" d="M137 -10Q103 -10 82 8T49 55T33 118T28 186Q28 211 30 232T33 270Q38 312 55 354T105 425T192 454Q229 454 249 430T278 368T287 287Q287 245 282 206T269 142Q261 111 243 76T199 15T137 -10ZM170
45Q191 45 205 65T230 111T244 155Q248 171 250 195T253 246Q253 287 244 326T211 382Q199 390 199 401Q199 409 205 416T215 426Q205 433 196 433Q178 433 164 413T141 365T126 312T119 276Q118 265 116 243T114 193Q114 159 118 125T135 68T170 45ZM230 545Q230
545 230 545T229 545L81 620Q77 621 77 625Q77 633 89 643T111 654Q116 654 118 652L238 553Q239 552 239 551Q239 550 237 548T230 545Z" />
<glyph unicode="&#xf3;" glyph-name="oacute" horiz-adv-x="294" d="M137 -10Q103 -10 82 8T49 55T33 118T28 186Q28 211 30 232T33 270Q38 312 55 354T105 425T192 454Q229 454 249 430T278 368T287 287Q287 245 282 206T269 142Q261 111 243 76T199 15T137 -10ZM170
45Q191 45 205 65T230 111T244 155Q248 171 250 195T253 246Q253 287 244 326T211 382Q199 390 199 401Q199 409 205 416T215 426Q205 433 196 433Q178 433 164 413T141 365T126 312T119 276Q118 265 116 243T114 193Q114 159 118 125T135 68T170 45ZM160 543Q156
543 154 545T151 550Q151 550 152 551L272 650Q275 652 279 652Q289 652 301 642T313 624Q313 619 309 618L162 544Q161 544 161 544T160 543Z" />
<glyph unicode="&#xf4;" glyph-name="ocircumflex" horiz-adv-x="294" d="M137 -10Q103 -10 82 8T49 55T33 118T28 186Q28 211 30 232T33 270Q38 312 55 354T105 425T192 454Q229 454 249 430T278 368T287 287Q287 245 282 206T269 142Q261 111 243 76T199 15T137
-10ZM170 45Q191 45 205 65T230 111T244 155Q248 171 250 195T253 246Q253 287 244 326T211 382Q199 390 199 401Q199 409 205 416T215 426Q205 433 196 433Q178 433 164 413T141 365T126 312T119 276Q118 265 116 243T114 193Q114 159 118 125T135 68T170 45ZM545
784Q535 784 525 785T511 791L444 867Q423 847 401 829T359 791Q356 788 351 787T339 786Q328 786 328 789Q328 790 329 791Q343 806 362 828T401 873T435 910T450 926H457Q484 892 511 858T566 791Q567 790 567 789Q567 787 561 786T545 784Z" />
<glyph unicode="&#xf5;" glyph-name="otilde" horiz-adv-x="294" d="M137 -10Q103 -10 82 8T49 55T33 118T28 186Q28 211 30 232T33 270Q38 312 55 354T105 425T192 454Q229 454 249 430T278 368T287 287Q287 245 282 206T269 142Q261 111 243 76T199 15T137 -10ZM170
45Q191 45 205 65T230 111T244 155Q248 171 250 195T253 246Q253 287 244 326T211 382Q199 390 199 401Q199 409 205 416T215 426Q205 433 196 433Q178 433 164 413T141 365T126 312T119 276Q118 265 116 243T114 193Q114 159 118 125T135 68T170 45ZM234 783Q219
783 203 794T169 817T134 829Q122 829 112 815T94 786Q91 782 89 782Q82 782 82 794Q82 807 92 826T117 861T143 876Q158 876 174 865T208 841T242 829Q255 829 264 841T281 867T294 888Q297 890 297 890Q300 890 301 886T303 880Q303 863 294 841T270 801T234
783Z" />
<glyph unicode="&#xf6;" glyph-name="odieresis" horiz-adv-x="294" d="M137 -10Q103 -10 82 8T49 55T33 118T28 186Q28 211 30 232T33 270Q38 312 55 354T105 425T192 454Q229 454 249 430T278 368T287 287Q287 245 282 206T269 142Q261 111 243 76T199 15T137
-10ZM170 45Q191 45 205 65T230 111T244 155Q248 171 250 195T253 246Q253 287 244 326T211 382Q199 390 199 401Q199 409 205 416T215 426Q205 433 196 433Q178 433 164 413T141 365T126 312T119 276Q118 265 116 243T114 193Q114 159 118 125T135 68T170 45ZM517
800Q501 800 490 811T479 838Q479 854 490 865T517 876Q532 876 543 865T554 838Q554 823 543 812T517 800ZM379 800Q363 800 352 811T341 838Q341 854 352 865T379 876Q394 876 405 865T416 838Q416 823 405 812T379 800Z" />
<glyph unicode="&#xf7;" glyph-name="divide" horiz-adv-x="462" d="M232 370Q213 370 199 384T184 418Q184 438 198 452T232 466Q252 466 266 452T280 418Q280 399 266 385T232 370ZM87 268Q80 268 77 272T74 282Q74 286 76 292Q78 297 83 303T96 310H384Q392
310 394 306T397 296Q397 292 395 286Q394 281 389 275T374 268H87ZM232 109Q213 109 199 123T184 157Q184 177 198 191T232 205Q252 205 266 191T280 157Q280 138 266 124T232 109Z" />
<glyph unicode="&#xf8;" glyph-name="oslash" horiz-adv-x="305" d="M51 -97Q40 -97 40 -86Q40 -84 40 -82T42 -78L76 8Q55 25 43 54T27 118T22 186Q22 211 23 232T27 270Q32 312 49 354T99 425T186 454Q204 454 218 448T242 430L262 482Q266 495 277 495Q287
495 287 484Q287 481 285 475L259 407Q271 383 276 351T281 285Q281 273 281 261T279 237Q304 209 339 209Q366 209 392 229Q398 234 403 234Q407 234 407 229Q407 220 402 217Q386 202 368 195T332 188Q301 188 275 206Q273 187 270 171T263 142Q254 111 237 76T193
15T131 -10Q121 -10 113 -8T96 -3L65 -85Q61 -97 51 -97ZM115 108L216 364Q218 369 219 372T222 379L229 398Q223 411 214 421T189 432Q172 432 159 412T135 364T120 311T113 276Q112 265 110 242T108 192Q108 171 109 150T115 108ZM164 45Q185 45 199 65T224 111T238
155Q241 169 243 187T246 230Q236 238 228 257T216 299L127 72Q140 45 164 45Z" />
<glyph unicode="&#xf9;" glyph-name="ugrave" horiz-adv-x="371" d="M100 -4Q78 -4 61 14T35 69Q31 86 30 112T28 167Q28 211 31 258T41 344T55 405Q60 417 73 426T109 435Q124 435 139 431Q136 420 128 379T113 288Q109 253 106 217T103 148Q103 107 110 80T133
52Q152 52 166 74T192 131T209 199Q218 249 225 306T241 405Q244 417 258 426T295 435Q310 435 325 431Q317 409 310 365T297 268T292 163Q292 137 294 106T305 53T330 31H331Q339 31 348 39T369 69Q377 83 383 102T396 143Q400 152 404 152Q409 152 409 140V136Q407
110 395 77T362 20T310 -4Q276 -4 256 20T227 80T216 149Q209 123 200 97T178 51Q142 -4 100 -4ZM245 525Q245 525 245 525T244 525L96 600Q92 601 92 605Q92 613 104 623T126 634Q131 634 133 632L253 533Q254 532 254 531Q254 530 252 528T245 525Z" />
<glyph unicode="&#xfa;" glyph-name="uacute" horiz-adv-x="371" d="M100 -4Q78 -4 61 14T35 69Q31 86 30 112T28 167Q28 211 31 258T41 344T55 405Q60 417 73 426T109 435Q124 435 139 431Q136 420 128 379T113 288Q109 253 106 217T103 148Q103 107 110 80T133
52Q152 52 166 74T192 131T209 199Q218 249 225 306T241 405Q244 417 258 426T295 435Q310 435 325 431Q317 409 310 365T297 268T292 163Q292 137 294 106T305 53T330 31H331Q339 31 348 39T369 69Q377 83 383 102T396 143Q400 152 404 152Q409 152 409 140V136Q407
110 395 77T362 20T310 -4Q276 -4 256 20T227 80T216 149Q209 123 200 97T178 51Q142 -4 100 -4ZM175 523Q171 523 169 525T166 530Q166 530 167 531L287 630Q290 632 294 632Q304 632 316 622T328 604Q328 599 324 598L177 524Q176 524 176 524T175 523Z" />
<glyph unicode="&#xfb;" glyph-name="ucircumflex" horiz-adv-x="371" d="M297 534Q287 534 277 535T263 541L196 617Q175 597 153 579T111 541Q108 538 103 537T91 536Q80 536 80 539Q80 540 81 541Q95 556 114 578T153 623T187 660T202 676H209Q236 642 263
608T318 541Q319 540 319 539Q319 537 313 536T297 534ZM310 -4Q276 -4 256 20T227 80T216 149Q206 110 189 76T148 20T93 -2H87Q68 0 57 18T39 64T31 121T29 173V192Q30 213 31 251T37 332T55 405Q60 417 73 426T109 435Q124 435 139 431Q136 420 128 379T114
288Q110 253 107 217T104 148Q104 107 110 80T133 52Q150 52 163 69T186 115T202 174T213 234T219 281Q222 313 226 346T241 405Q246 417 259 426T295 435Q310 435 325 431Q319 408 312 367T299 278T292 184V163Q292 137 294 106T305 53T330 31H331Q339 31 348
39T369 69Q377 83 383 102T396 143Q400 152 404 152Q409 152 409 140V136Q407 110 395 77T362 20T310 -4Z" />
<glyph unicode="&#xfc;" glyph-name="udieresis" horiz-adv-x="371" d="M100 -4Q78 -4 61 14T35 69Q31 86 30 112T28 167Q28 211 31 258T41 344T55 405Q60 417 73 426T109 435Q124 435 139 431Q136 420 128 379T113 288Q109 253 106 217T103 148Q103 107 110 80T133
52Q152 52 166 74T192 131T209 199Q218 249 225 306T241 405Q244 417 258 426T295 435Q310 435 325 431Q317 409 310 365T297 268T292 163Q292 137 294 106T305 53T330 31H331Q339 31 348 39T369 69Q377 83 383 102T396 143Q400 152 404 152Q409 152 409 140V136Q407
110 395 77T362 20T310 -4Q276 -4 256 20T227 80T216 149Q209 123 200 97T178 51Q142 -4 100 -4ZM276 780Q260 780 249 791T238 818Q238 834 249 845T276 856Q291 856 302 845T313 818Q313 803 302 792T276 780ZM138 780Q122 780 111 791T100 818Q100 834 111 845T138
856Q153 856 164 845T175 818Q175 803 164 792T138 780Z" />
<glyph unicode="&#xfd;" glyph-name="yacute" horiz-adv-x="331" d="M67 -368Q12 -368 -11 -341T-35 -272Q-35 -241 -24 -206T4 -138Q28 -93 65 -55T143 12T212 60Q212 73 211 102T209 169T204 242Q196 198 182 155T147 67Q142 56 131 39T106 10T76 -3Q64 -3 53
7Q43 16 37 38T27 90T22 149T20 203Q20 214 20 222T21 237Q22 258 23 287T29 345T41 396Q56 434 100 434Q105 434 109 434T118 433Q121 432 123 432T126 428Q126 426 125 425Q115 401 108 363T97 280T93 196Q93 176 94 158T97 125Q100 108 105 94T118 80Q124 80
133 92Q153 120 166 158T187 238T197 314Q198 336 199 360T211 403Q224 426 243 431T277 436H289Q304 436 304 430Q304 428 300 424Q290 415 285 389T277 328T275 254Q275 211 276 172T277 110V99Q306 116 327 126T360 137Q362 137 363 137T365 136Q370 135 370
128Q370 125 368 122T362 118Q350 117 330 106T292 80T275 54V42Q275 -97 247 -188T171 -323T67 -368ZM56 -347H59Q94 -347 118 -324T159 -264T186 -182T202 -95T210 -17T213 35Q197 26 164 -2T96 -71T36 -166Q23 -195 17 -222T10 -273Q10 -306 22 -326T56 -347ZM146
523Q142 523 140 525T137 530Q137 530 138 531L258 630Q261 632 265 632Q275 632 287 622T299 604Q299 599 295 598L148 524Q147 524 147 524T146 523Z" />
<glyph unicode="&#xfe;" glyph-name="thorn" horiz-adv-x="291" d="M114 -333Q94 -333 74 -314T44 -254Q37 -221 34 -170T31 -54Q31 25 35 116T46 300T62 474T80 617T99 710Q101 713 104 713T110 714Q133 714 145 706T165 674Q163 662 156 614T141 496T122 344Q139
384 160 411T207 438Q245 438 262 403T284 317Q285 307 285 296T286 271Q286 233 281 190T264 108T229 39T174 0Q159 -5 139 -5Q126 -5 112 -2T89 11Q88 -14 87 -36T85 -78Q85 -88 85 -99T84 -123Q84 -160 87 -198T99 -261T127 -287Q135 -287 145 -283T158 -274H164Q163
-303 148 -318T114 -333ZM124 22Q140 22 153 33Q173 49 184 78T202 141T210 210Q211 219 211 232T211 261Q211 286 209 311T199 354T178 371Q163 371 150 350T128 300T112 253Q106 196 101 141T91 37Q92 37 94 35Q107 22 124 22Z" />
<glyph unicode="&#xff;" glyph-name="ydieresis" horiz-adv-x="331" d="M67 -368Q12 -368 -11 -341T-35 -272Q-35 -241 -24 -206T4 -138Q28 -93 65 -55T143 12T212 60Q212 73 211 102T209 169T204 242Q196 198 182 155T147 67Q142 56 131 39T106 10T76 -3Q64 -3
53 7Q43 16 37 38T27 90T22 149T20 203Q20 214 20 222T21 237Q22 258 23 287T29 345T41 396Q56 434 100 434Q105 434 109 434T118 433Q121 432 123 432T126 428Q126 426 125 425Q115 401 108 363T97 280T93 196Q93 176 94 158T97 125Q100 108 105 94T118 80Q124
80 133 92Q153 120 166 158T187 238T197 314Q198 336 199 360T211 403Q224 426 243 431T277 436H289Q304 436 304 430Q304 428 300 424Q290 415 285 389T277 328T275 254Q275 211 276 172T277 110V99Q306 116 327 126T360 137Q362 137 363 137T365 136Q370 135
370 128Q370 125 368 122T362 118Q350 117 330 106T292 80T275 54V42Q275 -97 247 -188T171 -323T67 -368ZM56 -347H59Q94 -347 118 -324T159 -264T186 -182T202 -95T210 -17T213 35Q197 26 164 -2T96 -71T36 -166Q23 -195 17 -222T10 -273Q10 -306 22 -326T56
-347ZM503 780Q487 780 476 791T465 818Q465 834 476 845T503 856Q518 856 529 845T540 818Q540 803 529 792T503 780ZM365 780Q349 780 338 791T327 818Q327 834 338 845T365 856Q380 856 391 845T402 818Q402 803 391 792T365 780Z" />
<glyph unicode="&#x2013;" glyph-name="endash" horiz-adv-x="601" d="M93 258Q80 258 80 273Q80 277 82 283Q84 288 89 294T103 301H505Q513 301 516 296T519 286Q519 282 517 276Q515 272 510 265T496 258H93Z" />
<glyph unicode="&#x2014;" glyph-name="emdash" horiz-adv-x="849" d="M93 258Q80 258 80 273Q80 277 82 283Q84 288 89 294T103 301H780Q788 301 791 296T794 286Q794 282 792 276Q790 272 785 265T771 258H93Z" />
<glyph unicode="&#x2018;" glyph-name="quoteleft" horiz-adv-x="105" d="M54 506Q23 506 11 524T-1 567Q-1 593 8 622T32 676T60 711Q68 717 72 717Q77 717 77 712Q77 708 74 703Q52 674 44 651T36 612Q36 608 36 605T37 599Q45 602 54 602Q74 602 88 588T102
554Q102 535 88 521T54 506Z" />
<glyph unicode="&#x2019;" glyph-name="quoteright" horiz-adv-x="105" d="M31 500Q25 500 25 507Q25 512 28 515Q51 544 59 568T67 608Q67 611 67 613T66 618Q59 615 49 615Q29 615 15 629T1 663Q1 683 15 697T49 711Q79 711 90 695T102 656Q102 616 86 574T43
506Q36 500 31 500Z" />
<glyph unicode="&#x201a;" glyph-name="quotesinglbase" horiz-adv-x="199" d="M107 -115Q101 -115 101 -108Q101 -104 104 -100Q127 -71 135 -47T143 -7Q143 -4 143 -2T142 3Q133 0 124 0Q105 0 91 14T76 48Q76 68 90 82T124 96Q155 96 166 80T177 41Q177 1 161
-41T118 -109Q111 -115 107 -115Z" />
<glyph unicode="&#x201c;" glyph-name="quotedblleft" horiz-adv-x="248" d="M191 506Q160 506 148 524T136 567Q136 593 145 622T169 676T197 711Q205 717 210 717Q215 717 215 711Q215 708 212 703Q189 673 181 649T173 609Q173 606 173 604T174 599Q182 602
191 602Q211 602 225 588T239 554Q239 535 225 521T191 506ZM54 506Q23 506 11 524T-1 567Q-1 593 8 622T32 676T60 711Q68 717 72 717Q77 717 77 712Q77 708 74 703Q52 674 44 651T36 612Q36 608 36 605T37 599Q45 602 54 602Q74 602 88 588T102 554Q102 535 88
521T54 506Z" />
<glyph unicode="&#x201d;" glyph-name="quotedblright" horiz-adv-x="256" d="M168 500Q163 500 163 506Q163 511 166 515Q189 544 196 567T204 606Q204 615 203 618Q196 615 186 615Q167 615 153 629T138 663Q138 683 152 697T186 711Q217 711 229 694T241 650Q241
624 232 595T208 541T180 506Q173 500 168 500ZM31 500Q25 500 25 507Q25 512 28 515Q51 544 59 568T67 608Q67 611 67 613T66 618Q59 615 49 615Q29 615 15 629T1 663Q1 683 15 697T49 711Q79 711 90 695T102 656Q102 616 86 574T43 506Q36 500 31 500Z" />
<glyph unicode="&#x201e;" glyph-name="quotedblbase" horiz-adv-x="366" d="M243 -115Q238 -115 238 -109Q238 -104 241 -100Q264 -71 272 -47T280 -7Q280 -4 280 -2T279 3Q270 0 262 0Q242 0 228 14T214 48Q214 68 228 82T262 96Q292 96 304 79T316 35Q316 9
307 -20T284 -74T256 -109Q249 -115 243 -115ZM107 -115Q101 -115 101 -108Q101 -104 104 -100Q127 -71 135 -47T143 -7Q143 -4 143 -2T142 3Q133 0 124 0Q105 0 91 14T76 48Q76 68 90 82T124 96Q155 96 166 80T177 41Q177 1 161 -41T118 -109Q111 -115 107 -115Z"
/>
<glyph unicode="&#x2022;" glyph-name="bullet" horiz-adv-x="554" d="M287 33Q227 33 177 66T97 156T67 280Q67 348 97 404T177 493T287 527Q348 527 397 494T477 404T507 280Q507 212 477 156T398 67T287 33Z" />
<glyph unicode="&#x2039;" glyph-name="guilsinglleft" horiz-adv-x="415" d="M284 128Q280 128 275 131Q269 135 255 149T224 183T189 222T161 254T147 270Q142 274 140 285T137 307Q137 324 142 329Q148 335 166 349T207 382T252 417T288 445T303 456Q308 459
310 459Q315 459 315 450V446Q315 437 307 429Q303 423 288 407T254 370T220 333T198 310L288 167Q292 161 293 154T295 140Q293 128 284 128Z" />
<glyph unicode="&#x203a;" glyph-name="guilsinglright" horiz-adv-x="332" d="M118 128Q109 128 107 140Q107 146 108 153T114 167L204 310Q198 316 183 333T148 370T115 406T95 429Q87 437 87 446V451Q87 459 92 459Q95 459 99 456Q99 456 113 445T150 417T196
382T238 349T262 328Q267 323 267 309Q267 298 264 287T255 270Q253 268 242 255T213 222T179 184T147 150T127 131Q123 128 118 128Z" />
</font>
</defs>
</svg>
