<?xml version="1.0" standalone="no"?>
<!DOCTYPE svg PUBLIC "-//W3C//DTD SVG 1.1//EN" "http://www.w3.org/Graphics/SVG/1.1/DTD/svg11.dtd">
<svg xmlns="http://www.w3.org/2000/svg">
<defs >
<font id="InriaSans" horiz-adv-x="548" ><font-face
    font-family="Inria Sans"
    units-per-em="1000"
    panose-1="0 0 0 0 0 0 0 0 0 0"
    ascent="976"
    descent="-223"
    alphabetic="0" />
<glyph unicode=" " glyph-name="space" horiz-adv-x="218" />
<glyph unicode="!" glyph-name="exclam" horiz-adv-x="280" d="M173 182H107L99 430V680H181V430L173 182ZM186 0H94V91H186V0Z" />
<glyph unicode="&quot;" glyph-name="quotedbl" horiz-adv-x="353" d="M123 430H69L56 602V680H136V602L123 430ZM284 430H230L217 602V680H297V602L284 430Z" />
<glyph unicode="#" glyph-name="numbersign" horiz-adv-x="638" d="M299 0L360 195H188L127 0H56L117 195H16V261H137L186 418H86V484H206L267 680H339L278 484H449L510 680H582L521 484H622V418H500L451 261H552V195H431L370 0H299ZM208 261H380L429 418H257L208 261Z" />
<glyph unicode="$" glyph-name="dollar" horiz-adv-x="506" d="M464 183Q464 107 424 57T297 -7V-133H217V-9Q175 -7 130 4T37 38L64 112Q117 88 159 78T245 68Q308 68 342 95T376 176Q376 220 353 250T276 296L195 320Q119 343 83 389T47 504Q47 551 64 590T118
656T217 688V813H297V688Q332 684 369 674T443 646L415 571Q367 592 329 601T255 611Q198 611 167 588T135 510Q135 471 156 445T231 401L312 377Q464 332 464 183Z" />
<glyph unicode="%" glyph-name="percent" horiz-adv-x="760" d="M309 546V515Q309 448 274 412T175 375Q111 375 76 411T41 515V546Q41 612 76 648T175 685Q238 685 273 649T309 546ZM518 680H589L241 0H170L518 680ZM243 546Q243 584 225 604T175 624Q143 624
125 604T107 546V515Q107 476 125 456T175 436Q207 436 225 456T243 515V546ZM718 166V135Q718 68 683 32T584 -5Q520 -5 485 31T450 135V166Q450 232 485 268T584 305Q648 305 683 269T718 166ZM653 166Q653 244 584 244Q552 244 534 224T516 166V135Q516 96 534
76T584 56Q653 56 653 135V166Z" />
<glyph unicode="&amp;" glyph-name="ampersand" horiz-adv-x="560" d="M234 65Q282 65 313 88T351 151T333 237L400 277L561 0H469L405 116Q397 62 351 26T229 -10Q140 -10 91 38T42 165Q42 228 75 273T176 362Q81 442 81 534Q81 600 126 645T255 690Q333 690
379 649T425 531Q425 463 389 422T296 345L225 302Q170 269 148 238T126 167Q126 114 157 90T234 65ZM163 532Q163 504 179 471T235 398L256 411Q300 439 321 464T342 530Q342 575 318 595T256 616Q216 616 190 595T163 532Z" />
<glyph unicode="&apos;" glyph-name="quotesingle" horiz-adv-x="192" d="M123 430H69L56 602V680H136V602L123 430Z" />
<glyph unicode="(" glyph-name="parenleft" horiz-adv-x="315" d="M60 317Q60 438 108 547T257 750L312 694Q226 609 186 517T145 317V280Q145 172 185 80T312 -97L257 -153Q156 -60 108 49T60 280V317Z" />
<glyph unicode=")" glyph-name="parenright" horiz-adv-x="315" d="M255 280Q255 159 207 50T58 -153L2 -97Q89 -13 129 79T170 280V317Q170 424 130 516T2 694L58 750Q159 657 207 548T255 317V280Z" />
<glyph unicode="*" glyph-name="asterisk" horiz-adv-x="404" d="M343 361L283 317L264 343L202 459L140 342L121 317L61 361L80 386L171 480L42 504L11 514L34 585L64 574L182 518L165 648V680H239V648L221 518L339 575L370 585L392 515L362 504L233 481L324
387L343 361Z" />
<glyph unicode="+" glyph-name="plus" horiz-adv-x="588" d="M501 262H331V87H256V262H87V334H256V509H331V334H501V262Z" />
<glyph unicode="," glyph-name="comma" horiz-adv-x="192" d="M137 91V72Q137 -1 119 -67T54 -208L0 -178Q25 -130 36 -91T51 -9T55 91H137Z" />
<glyph unicode="-" glyph-name="hyphen" horiz-adv-x="392" d="M56 267V339H336V267H56Z" />
<glyph unicode="." glyph-name="period" horiz-adv-x="192" d="M142 0H50V91H142V0Z" />
<glyph unicode="/" glyph-name="slash" horiz-adv-x="364" d="M289 740H373L44 -143H-39L289 740Z" />
<glyph unicode="0" glyph-name="zero" horiz-adv-x="613" d="M537 415V266Q537 130 476 60T306 -10Q197 -10 137 60T76 266V415Q76 550 137 620T306 690Q415 690 476 620T537 415ZM449 415Q449 519 412 565T306 611Q239 611 202 565T164 415V266Q164 163 201 116T306
68Q374 68 411 115T449 266V415Z" />
<glyph unicode="1" glyph-name="one" horiz-adv-x="366" d="M19 586L181 680H260V0H175V588L57 520L19 586Z" />
<glyph unicode="2" glyph-name="two" horiz-adv-x="493" d="M435 0H47V66Q47 141 65 192T115 276T186 330L251 363Q297 387 324 413T352 488V505Q352 561 321 586T228 611Q194 611 156 603T72 574L44 647Q94 670 140 680T230 690Q341 690 389 639T437 505V488Q437
434 417 398T363 338T291 294L226 260Q179 235 157 191T132 79H435V0Z" />
<glyph unicode="3" glyph-name="three" horiz-adv-x="498" d="M432 177Q432 95 381 43T217 -10Q172 -10 124 0T23 34L49 106Q99 86 138 77T215 68Q277 68 311 94T346 179V195Q346 245 317 275T228 305H128V381H228Q285 381 312 409T339 487V501Q339 560 307 585T218
611Q183 611 146 603T62 574L34 647Q84 670 130 680T220 690Q328 690 377 638T426 503V489Q426 439 402 402T337 343Q381 323 406 285T432 193V177Z" />
<glyph unicode="4" glyph-name="four" horiz-adv-x="508" d="M481 163H406V0H324V163H32V230Q109 347 171 458T275 680H367Q325 571 266 463T129 240H324V364H406V240H481V163Z" />
<glyph unicode="5" glyph-name="five" horiz-adv-x="507" d="M68 354L88 680H426V600H165L153 405Q197 420 248 420Q342 420 398 370T454 222V192Q454 103 402 47T235 -10Q190 -10 142 0T41 34L68 106Q117 85 157 77T234 68Q296 68 331 96T366 192V222Q366 277
335 310T239 343Q209 343 180 336T119 314L68 354Z" />
<glyph unicode="6" glyph-name="six" horiz-adv-x="564" d="M512 193Q512 133 487 88T414 16T300 -10Q192 -10 135 62T77 267V415Q77 555 140 622T314 690Q353 690 398 681T493 648L462 575Q419 595 383 603T317 611Q245 611 203 567T160 415V357Q195 389 236
407T323 425Q411 425 461 370T512 223V193ZM160 267Q160 167 196 118T300 68Q361 68 394 101T428 193V223Q428 280 398 314T313 348Q271 348 233 330T160 280V267Z" />
<glyph unicode="7" glyph-name="seven" horiz-adv-x="470" d="M435 610Q360 457 308 305T229 0H140Q167 150 218 300T342 600H28V680H435V610Z" />
<glyph unicode="8" glyph-name="eight" horiz-adv-x="558" d="M496 179Q496 126 473 83T400 15T274 -10Q200 -10 153 14T84 77T62 166Q62 219 88 262T172 343Q126 369 101 409T76 507Q76 555 98 596T165 664T277 690Q346 690 391 666T459 602T481 512Q481 463
459 423T384 348Q439 321 467 281T496 179ZM263 393L318 374Q363 409 379 440T396 504Q396 554 367 584T279 614Q227 614 194 587T161 507Q161 465 184 439T263 393ZM147 177Q147 126 179 96T277 65Q340 65 375 93T411 175Q411 221 386 246T296 294L238 314Q187
277 167 245T147 177Z" />
<glyph unicode="9" glyph-name="nine" horiz-adv-x="564" d="M486 264Q486 125 423 58T249 -10Q210 -10 166 -1T71 31L101 104Q145 85 181 77T247 68Q318 68 361 112T404 264V323Q368 292 327 273T240 254Q152 254 102 309T52 456V486Q52 545 77 591T150 663T264
690Q371 690 428 617T486 412V264ZM135 456Q135 399 165 365T251 331Q293 331 331 349T404 400V412Q404 513 368 562T263 611Q203 611 169 576T135 486V456Z" />
<glyph unicode=":" glyph-name="colon" horiz-adv-x="192" d="M142 403H50V495H142V403ZM142 0H50V91H142V0Z" />
<glyph unicode=";" glyph-name="semicolon" horiz-adv-x="192" d="M142 403H50V495H142V403ZM137 91V72Q137 -1 119 -67T54 -208L0 -178Q25 -130 36 -91T51 -9T55 91H137Z" />
<glyph unicode="&lt;" glyph-name="less" horiz-adv-x="588" d="M501 187V104L87 272V327L501 492V414L203 302L501 187Z" />
<glyph unicode="=" glyph-name="equal" horiz-adv-x="588" d="M87 366V438H501V366H87ZM87 166V238H501V166H87Z" />
<glyph unicode="&gt;" glyph-name="greater" horiz-adv-x="588" d="M501 269L87 104V183L385 295L87 410V492L501 324V269Z" />
<glyph unicode="?" glyph-name="question" horiz-adv-x="434" d="M197 614Q163 614 124 605T38 575L10 647Q60 670 108 680T200 690Q304 690 352 642T400 521V503Q400 448 382 409T327 337L293 306Q260 276 251 255T242 202V182H158V205Q158 239 165 263T189 310T235
360L269 391Q293 413 304 437T315 499V517Q315 561 286 587T197 614ZM247 0H155V91H247V0Z" />
<glyph unicode="@" glyph-name="at" horiz-adv-x="950" d="M731 -167Q673 -193 605 -208T466 -223Q333 -223 240 -169T97 -19T48 204Q48 308 80 396T171 551T312 653T493 690Q585 690 660 659T790 573T874 445T904 285Q904 202 876 137T798 35T685 -2Q637 -2 606
18T565 81Q522 33 482 13T401 -7Q354 -7 324 20T282 96T280 206L288 261Q303 361 356 415T500 470Q549 470 595 454T686 408L643 157Q633 105 648 86T692 66Q727 66 757 93T807 169T826 285Q826 380 784 455T668 575T493 620Q411 620 343 589T227 502T152 369T125
204Q125 97 164 17T280 -108T466 -153Q528 -153 590 -139T704 -99L731 -167ZM364 206Q354 139 369 103T423 66Q452 66 488 90T565 173L598 369Q549 396 505 396Q446 396 414 360T372 261L364 206Z" />
<glyph unicode="A" glyph-name="A" horiz-adv-x="577" d="M466 0L415 158H157L106 0H21L247 680H329L556 0H466ZM220 354L182 237H389L351 354L286 564L220 354Z" />
<glyph unicode="B" glyph-name="B" horiz-adv-x="585" d="M106 0V680H306Q404 680 450 633T497 505V483Q497 439 477 405T419 351Q472 334 499 296T527 203V181Q527 99 480 50T331 0H106ZM306 600H193V385H306Q356 385 381 410T407 481V505Q407 549 382 574T306
600ZM331 305H193V79H331Q384 79 410 106T437 181V205Q437 251 411 278T331 305Z" />
<glyph unicode="C" glyph-name="C" horiz-adv-x="529" d="M165 265Q165 171 202 121T318 70Q352 70 385 78T464 106L493 32Q444 10 400 0T315 -10Q197 -10 136 64T75 265V415Q75 542 136 616T315 690Q356 690 400 680T491 648L463 573Q382 609 318 609Q240 609
203 559T165 415V265Z" />
<glyph unicode="D" glyph-name="D" horiz-adv-x="637" d="M106 0V680H317Q434 680 497 610T560 415V266Q560 141 497 71T317 0H106ZM315 598H193V81H315Q470 81 470 266V415Q470 598 315 598Z" />
<glyph unicode="E" glyph-name="E" horiz-adv-x="531" d="M486 81V0H106V680H476V598H193V385H446V303H193V81H486Z" />
<glyph unicode="F" glyph-name="F" horiz-adv-x="506" d="M440 286H193V0H106V680H470V598H193V368H440V286Z" />
<glyph unicode="G" glyph-name="G" horiz-adv-x="604" d="M536 47Q507 28 454 9T325 -10Q244 -10 189 24T105 121T76 266V415Q76 543 140 616T328 690Q373 690 422 680T521 647L493 572Q403 609 329 609Q247 609 207 560T166 415V266Q166 176 207 123T331 70Q363
70 396 77T456 96V279H329V356H536V47Z" />
<glyph unicode="H" glyph-name="H" horiz-adv-x="683" d="M490 0V303H193V0H106V680H193V385H490V680H577V0H490Z" />
<glyph unicode="I" glyph-name="I" horiz-adv-x="300" d="M193 0H106V680H193V0Z" />
<glyph unicode="J" glyph-name="J" horiz-adv-x="363" d="M27 -7V76Q108 76 145 109T183 224V680H270V224Q270 156 249 104T175 22T27 -7Z" />
<glyph unicode="K" glyph-name="K" horiz-adv-x="596" d="M477 0L283 321Q262 299 240 276T193 230V0H106V680H193V327Q287 422 350 507T457 680H551Q506 592 458 521T347 378L583 0H477Z" />
<glyph unicode="L" glyph-name="L" horiz-adv-x="506" d="M478 81V0H106V680H193V81H478Z" />
<glyph unicode="M" glyph-name="M" horiz-adv-x="829" d="M208 680L415 176L623 680H722V0H637V291L648 553L453 80H371L180 555L191 291V0H106V680H208Z" />
<glyph unicode="N" glyph-name="N" horiz-adv-x="690" d="M106 0V680H197Q288 550 364 419T508 144L498 404V680H583V0H492Q422 146 348 284T185 555L191 278V0H106Z" />
<glyph unicode="O" glyph-name="O" horiz-adv-x="647" d="M569 415V266Q569 139 506 65T323 -10Q204 -10 141 64T77 266V415Q77 541 140 615T323 690Q442 690 505 616T569 415ZM479 415Q479 508 440 558T323 609Q247 609 207 559T167 415V266Q167 172 207 121T323
70Q400 70 439 121T479 266V415Z" />
<glyph unicode="P" glyph-name="P" horiz-adv-x="564" d="M106 0V680H318Q416 680 467 629T519 491V438Q519 352 468 300T318 248H193V0H106ZM318 598H193V329H318Q372 329 400 358T429 438V491Q429 541 401 569T318 598Z" />
<glyph unicode="Q" glyph-name="Q" horiz-adv-x="647" d="M562 -94V-183Q465 -183 415 -149T337 -42L326 -10H323Q204 -10 141 64T77 266V415Q77 541 140 615T323 690Q442 690 505 616T569 415V266Q569 164 528 95T408 2Q422 -37 439 -57T485 -85T562 -94ZM479
415Q479 508 440 558T323 609Q247 609 207 559T167 415V266Q167 172 207 121T323 70Q400 70 439 121T479 266V415Z" />
<glyph unicode="R" glyph-name="R" horiz-adv-x="601" d="M193 266V0H106V680H319Q415 680 467 630T520 495V452Q520 392 493 348T414 283Q457 214 494 143T562 0H462Q405 136 329 266H193ZM319 600H193V346H319Q370 346 400 374T430 452V495Q430 545 400 572T319 600Z" />
<glyph unicode="S" glyph-name="S" horiz-adv-x="506" d="M245 68Q308 68 342 95T376 176Q376 220 353 250T276 296L195 320Q119 343 83 389T47 504Q47 556 67 598T133 665T253 690Q298 690 346 680T443 646L415 571Q367 592 329 601T255 611Q198 611 167 588T135
510Q135 471 156 445T231 401L312 377Q464 332 464 183Q464 97 412 44T245 -10Q198 -10 146 1T37 38L64 112Q117 88 159 78T245 68Z" />
<glyph unicode="T" glyph-name="T" horiz-adv-x="509" d="M13 598V680H496V598H298V0H211V598H13Z" />
<glyph unicode="U" glyph-name="U" horiz-adv-x="648" d="M92 680H182V244Q182 162 216 116T324 70Q398 70 432 116T466 244V680H556V244Q556 125 498 58T324 -10Q207 -10 150 57T92 244V680Z" />
<glyph unicode="V" glyph-name="V" horiz-adv-x="563" d="M543 680L326 0H238L20 680H112L220 335L285 117L351 336L457 680H543Z" />
<glyph unicode="W" glyph-name="W" horiz-adv-x="860" d="M186 392L234 117L391 680H472L629 120L679 392L738 680H824L674 0H586L430 556L274 0H185L36 680H127L186 392Z" />
<glyph unicode="X" glyph-name="X" d="M429 0L267 277L111 0H20L222 351L30 680H129L279 421L426 680H516L324 347L527 0H429Z" />
<glyph unicode="Y" glyph-name="Y" horiz-adv-x="524" d="M514 680L306 272V0H219V272L10 680H104L267 358L424 680H514Z" />
<glyph unicode="Z" glyph-name="Z" horiz-adv-x="508" d="M470 81V0H41V70L356 598H51V680H460V609L144 81H470Z" />
<glyph unicode="[" glyph-name="bracketleft" horiz-adv-x="346" d="M343 -71V-143H106V740H343V668H188V-71H343Z" />
<glyph unicode="\" glyph-name="backslash" horiz-adv-x="364" d="M74 740L403 -143H319L-9 740H74Z" />
<glyph unicode="]" glyph-name="bracketright" horiz-adv-x="346" d="M239 740V-143H2V-71H157V668H2V740H239Z" />
<glyph unicode="^" glyph-name="asciicircum" horiz-adv-x="588" d="M405 266L291 563L178 266H100L265 680H320L487 266H405Z" />
<glyph unicode="_" glyph-name="underscore" horiz-adv-x="390" d="M5 -157V-96H385V-157H5Z" />
<glyph unicode="`" glyph-name="grave" horiz-adv-x="500" d="M214 579L116 709L195 745L285 579H214Z" />
<glyph unicode="a" glyph-name="a" horiz-adv-x="493" d="M450 -5Q404 -5 377 16T338 68Q289 25 249 8T169 -10Q104 -10 73 32T42 135Q42 176 57 208T108 258T205 277Q232 277 264 274T329 265V332Q329 388 305 408T233 429Q169 429 90 394L64 462Q110 483 152
494T237 505Q307 505 344 482T395 421T409 338V124Q409 101 418 86T454 70H465V-5H450ZM123 136Q123 102 139 81T185 60Q211 60 245 75T329 138V201Q261 212 209 212Q163 212 143 193T123 136Z" />
<glyph unicode="b" glyph-name="b" horiz-adv-x="552" d="M488 218Q488 114 436 52T283 -10Q183 -10 85 43V740H167V428Q212 470 249 487T326 505Q404 505 446 445T488 276V218ZM306 428Q278 428 247 413T167 351V89Q226 64 278 64Q345 64 374 105T403 218V276Q403
354 379 391T306 428Z" />
<glyph unicode="c" glyph-name="c" horiz-adv-x="449" d="M146 277V218Q146 142 174 104T263 65Q323 65 392 96L417 27Q335 -10 258 -10Q162 -10 112 51T62 218V277Q62 383 112 444T258 505Q294 505 332 496T410 469L385 399Q352 413 322 421T263 429Q202 429
174 391T146 277Z" />
<glyph unicode="d" glyph-name="d" horiz-adv-x="556" d="M389 0V69Q343 25 306 8T228 -10Q149 -10 107 50T64 218V276Q64 381 116 443T269 505Q298 505 327 499T385 482V740H467V0H389ZM149 218Q149 140 173 104T247 67Q276 67 307 81T385 142V406Q356 419 329
424T276 430Q208 430 179 389T149 276V218Z" />
<glyph unicode="e" glyph-name="e" horiz-adv-x="504" d="M447 29Q402 7 357 -1T274 -10Q167 -10 115 51T62 218V278Q62 381 114 443T263 505Q314 505 356 485T424 423T450 316Q450 274 438 220H143V218Q143 142 174 103T276 64Q308 64 346 72T422 97L447 29ZM263
433Q205 433 176 396T143 290H367Q370 308 370 324Q370 380 339 406T263 433Z" />
<glyph unicode="f" glyph-name="f" horiz-adv-x="350" d="M348 423H186V0H104V423H18V495H104V577Q104 623 119 662T170 726T263 750Q292 750 324 744T385 724L362 655Q311 675 273 675Q231 675 209 652T186 578V495H348V423Z" />
<glyph unicode="g" glyph-name="g" horiz-adv-x="520" d="M484 -62Q484 -135 425 -179T261 -223Q209 -223 153 -209T46 -164L74 -100Q124 -128 170 -139T261 -151Q329 -151 366 -129T403 -70Q403 -43 385 -29T327 -14H212Q147 -14 118 17T89 85Q89 111 101 136T135
187Q100 208 79 244T58 333Q58 390 82 428T148 485T240 505H257Q292 505 321 495H499V422L391 437Q412 419 425 393T438 328Q438 274 414 237T348 181T257 161H240Q227 161 215 162T191 166Q162 134 162 103Q162 63 218 63H330Q402 63 443 31T484 -62ZM257 232Q296
232 326 257T356 333Q356 383 326 408T257 434H240Q200 434 170 409T140 333Q140 282 170 257T240 232H257Z" />
<glyph unicode="h" glyph-name="h" horiz-adv-x="571" d="M326 428Q298 428 261 414T170 357V0H88V740H170V429Q222 473 264 489T346 505Q415 505 451 462T488 338V0H406V326Q406 428 326 428Z" />
<glyph unicode="i" glyph-name="i" horiz-adv-x="259" d="M175 616H83V708H175V616ZM170 0H88V495H170V0Z" />
<glyph unicode="j" glyph-name="j" horiz-adv-x="259" d="M175 616H83V708H175V616ZM-20 -223V-145Q33 -145 60 -120T88 -23V495H170V-23Q170 -81 153 -126T95 -197T-20 -223Z" />
<glyph unicode="k" glyph-name="k" horiz-adv-x="508" d="M393 0L254 229Q235 210 214 190T170 150V0H88V740H170V242Q235 305 285 365T378 495H472Q436 435 399 385T314 282L492 0H393Z" />
<glyph unicode="l" glyph-name="l" horiz-adv-x="264" d="M87 120V740H169V124Q169 97 177 84T212 70H228V-5H205Q139 -5 113 30T87 120Z" />
<glyph unicode="m" glyph-name="m" horiz-adv-x="869" d="M321 428Q293 428 258 414T170 357V0H88V495H166V426Q219 470 260 487T341 505Q388 505 419 484T465 422Q520 469 563 487T649 505Q715 505 750 462T785 338V0H703V326Q703 428 629 428Q601 428 566 414T477
357Q478 353 478 348T478 338V0H396V326Q396 428 321 428Z" />
<glyph unicode="n" glyph-name="n" horiz-adv-x="571" d="M326 428Q298 428 261 414T170 357V0H88V495H166V426Q219 471 262 488T346 505Q415 505 451 462T488 338V0H406V326Q406 428 326 428Z" />
<glyph unicode="o" glyph-name="o" horiz-adv-x="541" d="M480 278V218Q480 112 426 51T270 -10Q170 -10 115 51T60 218V278Q60 382 114 443T270 505Q371 505 425 444T480 278ZM395 278Q395 349 363 389T270 430Q210 430 178 390T145 278V218Q145 144 177 104T270
64Q331 64 363 104T395 218V278Z" />
<glyph unicode="p" glyph-name="p" horiz-adv-x="556" d="M286 -10Q230 -10 170 13V-213H88V495H166V425Q212 469 250 487T328 505Q407 505 449 445T492 276V218Q492 114 440 52T286 -10ZM308 428Q279 428 248 413T170 352V88Q199 75 226 70T279 64Q347 64 377
105T407 218V276Q407 354 383 391T308 428Z" />
<glyph unicode="q" glyph-name="q" horiz-adv-x="553" d="M467 451V-213H385V67Q340 24 303 7T226 -10Q148 -10 106 50T64 218V276Q64 381 116 443T269 505Q367 505 467 451ZM149 218Q149 140 173 104T246 67Q275 67 306 82T385 143V405Q326 430 274 430Q207 430
178 389T149 276V218Z" />
<glyph unicode="r" glyph-name="r" horiz-adv-x="367" d="M348 423Q303 423 261 407T170 346V0H88V495H166V415Q217 465 259 485T348 505V423Z" />
<glyph unicode="s" glyph-name="s" horiz-adv-x="431" d="M209 63Q309 63 309 131Q309 160 291 177T225 206L170 220Q109 235 79 272T49 362Q49 400 66 432T120 485T216 505Q254 505 293 497T374 468L348 399Q275 432 216 432Q129 432 129 367Q129 342 145 324T205
295L260 281Q326 265 357 229T388 136Q388 95 371 62T315 9T211 -10Q168 -10 126 -1T38 28L60 96Q103 79 138 71T209 63Z" />
<glyph unicode="t" glyph-name="t" horiz-adv-x="380" d="M360 18Q304 -10 241 -10Q187 -10 157 12T114 71T101 153V423H15V495H101V633H183V495H345V423H183V156Q183 104 200 85T255 65Q273 65 292 69T335 85L360 18Z" />
<glyph unicode="u" glyph-name="u" horiz-adv-x="559" d="M393 0V70Q341 25 300 8T218 -10Q152 -10 117 33T82 156V495H164V168Q164 116 182 92T238 67Q266 67 301 81T388 137V495H470V0H393Z" />
<glyph unicode="v" glyph-name="v" horiz-adv-x="472" d="M450 495L275 0H198L21 495H106L189 254L239 103L288 254L369 495H450Z" />
<glyph unicode="w" glyph-name="w" horiz-adv-x="716" d="M685 495L558 0H463L359 406L252 0H157L31 495H115L165 288L210 83L317 495H404L511 81L555 287L604 495H685Z" />
<glyph unicode="x" glyph-name="x" horiz-adv-x="463" d="M350 0L227 193L109 0H22L186 256L34 495H125L234 322L341 495H427L276 258L440 0H350Z" />
<glyph unicode="y" glyph-name="y" horiz-adv-x="472" d="M257 -50Q225 -140 179 -181T49 -223V-142Q83 -141 107 -133T151 -101T189 -28L199 -3L21 495H105L188 254L239 100L288 254L369 495H450L257 -50Z" />
<glyph unicode="z" glyph-name="z" horiz-adv-x="412" d="M379 71V0H35V64L272 423H45V495H369V430L131 71H379Z" />
<glyph unicode="{" glyph-name="braceleft" horiz-adv-x="377" d="M374 -72V-144H285Q189 -144 153 -92T135 49L155 147Q166 198 154 230T85 262H20V334H85Q141 334 153 366T155 449L135 547Q117 635 153 687T285 740H374V668H288Q239 668 223 639T216 566L236
468Q250 399 233 356T171 298Q215 283 232 240T236 128L216 30Q207 -13 223 -42T288 -72H374Z" />
<glyph unicode="|" glyph-name="bar" horiz-adv-x="295" d="M106 740H188V-213H106V740Z" />
<glyph unicode="}" glyph-name="braceright" horiz-adv-x="377" d="M241 49Q260 -39 224 -91T91 -144H2V-72H89Q139 -72 154 -43T161 30L141 128Q127 197 144 240T205 298Q162 313 145 355T141 468L161 566Q170 609 155 638T89 668H2V740H91Q188 740 224 688T241
547L221 449Q211 397 223 365T291 333H356V261H291Q235 261 223 229T221 147L241 49Z" />
<glyph unicode="~" glyph-name="asciitilde" horiz-adv-x="588" d="M382 208Q345 208 320 225T277 264T241 303T203 320Q185 320 170 301T143 221L77 237Q93 326 127 359T204 392Q240 392 265 375T309 336T345 297T383 280Q402 280 417 300T445 380L511 364Q494
274 460 241T382 208Z" />
<glyph unicode="&#xa0;" glyph-name="uni00A0" horiz-adv-x="218" />
<glyph unicode="&#xa1;" glyph-name="exclamdown" horiz-adv-x="280" d="M94 495H186V403H94V495ZM107 312H173L180 65V-185H98V65L107 312Z" />
<glyph unicode="&#xa2;" glyph-name="cent" horiz-adv-x="449" d="M417 27Q360 1 300 -7V-125H220V-7Q143 5 103 64T62 218V277Q62 372 102 431T220 502V620H300V502Q327 498 354 490T410 469L385 399Q352 413 322 421T263 429Q202 429 174 391T146 277V218Q146
142 174 104T263 65Q323 65 392 96L417 27Z" />
<glyph unicode="&#xa3;" glyph-name="sterling" horiz-adv-x="486" d="M460 0H69V69Q125 128 144 165T163 235Q163 258 157 279H61V355H126Q108 392 92 432T76 520Q76 568 96 606T159 667T271 690Q312 690 357 680T450 648L422 572Q376 592 341 600T273 609Q222
609 194 587T166 513Q166 470 183 432T218 355H391V279H245Q247 270 248 261T249 243Q249 203 231 164T174 81H460V0Z" />
<glyph unicode="&#xa4;" glyph-name="currency" horiz-adv-x="576" d="M547 79L501 32L399 137Q351 103 288 103Q224 103 176 137L74 32L28 79L130 184Q96 233 96 300Q96 333 104 362T129 415L28 520L74 567L176 463Q224 497 288 497Q352 497 400 463L501 567L547
520L446 416Q480 367 480 300Q480 267 471 238T446 184L547 79ZM288 170Q340 170 373 205T407 300Q407 359 374 394T288 429Q236 429 202 394T168 300Q168 241 202 206T288 170Z" />
<glyph unicode="&#xa5;" glyph-name="yen" horiz-adv-x="554" d="M503 164H320V0H233V164H52V232H233V272L202 332H52V400H167L24 680H118L281 358L438 680H528L385 400H503V332H351L320 272V232H503V164Z" />
<glyph unicode="&#xa6;" glyph-name="brokenbar" horiz-adv-x="282" d="M100 740H182V357H100V740ZM100 170H182V-213H100V170Z" />
<glyph unicode="&#xa7;" glyph-name="section" horiz-adv-x="509" d="M448 -50Q448 -124 398 -173T239 -223Q193 -223 142 -212T38 -176L65 -100Q115 -122 157 -132T239 -143Q296 -143 327 -122T359 -58Q359 -23 337 2T262 44L184 69Q112 93 79 135T46 232Q46
277 70 316T136 379Q103 404 88 439T72 518Q72 565 92 604T155 666T265 690Q306 690 351 681T445 650L418 575Q372 595 336 602T267 610Q217 610 189 589T161 522Q161 489 179 465T246 424L325 399Q467 354 467 236Q467 192 444 154T376 90Q448 41 448 -50ZM230
147L312 121Q345 141 361 164T378 222Q378 260 355 283T278 322L198 348Q135 308 135 244Q135 210 155 187T230 147Z" />
<glyph unicode="&#xa8;" glyph-name="dieresis" horiz-adv-x="500" d="M197 619H111V705H197V619ZM388 619H302V705H388V619Z" />
<glyph unicode="&#xa9;" glyph-name="copyright" horiz-adv-x="840" d="M420 -37Q339 -37 271 -9T153 70T76 189T48 340Q48 422 75 490T153 610T271 689T420 717Q500 717 568 689T686 610T764 491T792 340Q792 258 764 190T686 70T568 -9T420 -37ZM420 21Q509
21 578 62T688 175T728 340Q728 433 688 505T579 618T420 659Q331 659 261 618T152 505T112 340Q112 247 151 175T261 62T420 21ZM319 361V320Q319 256 343 223T422 190Q476 190 536 219L559 158Q491 123 417 123Q332 123 288 175T244 320V361Q244 453 288 505T417
557Q449 557 484 550T550 525L527 464Q500 476 474 483T422 490Q368 490 344 457T319 361Z" />
<glyph unicode="&#xaa;" glyph-name="ordfeminine" horiz-adv-x="335" d="M306 338Q277 338 256 349T225 381Q193 354 169 345T122 335Q74 335 52 363T29 432Q29 473 53 501T143 529Q159 529 177 527T216 522V568Q216 600 201 612T153 625Q129 625 106 619T58
600L39 655Q68 669 96 677T154 685Q205 685 232 669T269 628T279 575V431Q279 416 284 407T304 398H313V338H306ZM93 434Q93 414 102 402T131 390Q148 390 168 398T216 430V472Q196 475 178 476T147 478Q118 478 106 467T93 434Z" />
<glyph unicode="&#xab;" glyph-name="guillemotleft" horiz-adv-x="667" d="M322 105V14L38 221V274L322 478V390L120 248L322 105ZM612 105V14L328 221V274L612 478V390L410 248L612 105Z" />
<glyph unicode="&#xac;" glyph-name="logicalnot" horiz-adv-x="588" d="M87 376V448H501V205H426V376H87Z" />
<glyph unicode="&#xad;" glyph-name="uni00AD" horiz-adv-x="0" />
<glyph unicode="&#xae;" glyph-name="registered" horiz-adv-x="543" d="M271 241Q204 241 151 272T68 357T37 479Q37 548 67 601T151 686T271 717Q338 717 391 686T474 602T505 479Q505 411 475 357T391 272T271 241ZM271 290Q324 290 364 314T428 382T452 479Q452
534 429 576T365 643T271 668Q219 668 178 644T114 577T90 479Q90 425 113 382T178 315T271 290ZM190 353V608H277Q316 608 337 587T358 531V517Q358 470 323 450Q337 427 350 403T373 353H316Q306 376 296 397T274 439H241V353H190ZM277 559H241V488H277Q305 488
305 517V531Q305 559 277 559Z" />
<glyph unicode="&#xaf;" glyph-name="overscore" horiz-adv-x="500" d="M393 672V609H107V672H393Z" />
<glyph unicode="&#xb0;" glyph-name="degree" horiz-adv-x="363" d="M181 366Q111 366 68 411T24 528Q24 600 67 645T181 690Q250 690 294 645T338 528Q338 481 318 444T263 387T181 366ZM181 428Q222 428 247 455T273 528Q273 574 248 601T181 628Q140 628 115
601T89 528Q89 482 114 455T181 428Z" />
<glyph unicode="&#xb1;" glyph-name="plusminus" horiz-adv-x="588" d="M501 302H331V131H256V302H87V374H256V545H331V374H501V302ZM87 0V71H501V0H87Z" />
<glyph unicode="&#xb2;" glyph-name="uni00B2" horiz-adv-x="270" d="M240 445H24V486Q24 542 45 570T103 617L136 633Q156 644 166 654T176 683V690Q176 729 124 729Q86 729 37 709L22 768Q75 790 125 790Q187 790 214 763T241 691V682Q241 642 218 620T160 580L128
564Q109 555 100 543T89 507H240V445Z" />
<glyph unicode="&#xb3;" glyph-name="uni00B3" horiz-adv-x="274" d="M235 536Q235 493 207 467T116 440Q92 440 67 445T17 461L34 518Q56 508 76 505T114 501Q170 501 170 539V547Q170 566 156 577T113 589H70V644H113Q141 644 154 655T167 684V691Q167 711 153
720T115 729Q99 729 82 726T42 712L23 770Q47 781 71 785T117 790Q177 790 204 763T232 695V688Q232 639 185 616Q235 595 235 544V536Z" />
<glyph unicode="&#xb4;" glyph-name="acute" horiz-adv-x="500" d="M286 579H215L305 745L383 709L286 579Z" />
<glyph unicode="&#xb5;" glyph-name="uni00B5" horiz-adv-x="566" d="M170 -213H88V495H170V168Q170 116 188 92T244 67Q272 67 307 81T394 137V495H476V124Q476 101 485 86T521 70H533V-5H518Q468 -5 440 17T403 73Q349 27 308 9T230 -10Q183 -10 154 16L170 -125V-213Z" />
<glyph unicode="&#xb6;" glyph-name="paragraph" horiz-adv-x="562" d="M43 491Q43 577 94 628T244 680H542V609H455V-143H368V609H301V248H244Q146 248 95 300T43 438V491Z" />
<glyph unicode="&#xb7;" glyph-name="middot" horiz-adv-x="500" d="M296 338H204V430H296V338Z" />
<glyph unicode="&#xb8;" glyph-name="cedilla" horiz-adv-x="500" d="M349 -132Q349 -175 318 -199T236 -223Q215 -223 196 -219T157 -208L168 -152Q185 -158 203 -161T235 -164Q262 -164 272 -155T282 -133Q282 -121 272 -112T234 -103Q228 -103 223 -103T211
-105L187 -67L199 0H259L250 -50Q298 -50 323 -72T349 -132Z" />
<glyph unicode="&#xb9;" glyph-name="uni00B9" horiz-adv-x="222" d="M21 735L112 785H168V445H104V714L48 684L21 735Z" />
<glyph unicode="&#xba;" glyph-name="ordmasculine" horiz-adv-x="348" d="M321 531V489Q321 416 283 376T174 335Q104 335 66 375T27 489V531Q27 601 65 643T174 685Q245 685 283 643T321 531ZM256 531Q256 575 235 600T174 625Q135 625 114 600T92 531V489Q92
443 113 419T174 395Q213 395 234 419T256 489V531Z" />
<glyph unicode="&#xbb;" glyph-name="guillemotright" horiz-adv-x="667" d="M628 218L344 14V101L546 243L344 386V478L628 271V218ZM338 218L54 14V101L256 243L54 386V478L338 271V218Z" />
<glyph unicode="&#xbc;" glyph-name="onequarter" horiz-adv-x="596" d="M21 630L112 680H168V340H104V609L48 579L21 630ZM435 680H506L158 0H87L435 680ZM590 77H553V0H494V77H346V123Q384 181 415 233T466 340H534Q514 288 486 238T420 134H494V182H553V134H590V77Z" />
<glyph unicode="&#xbd;" glyph-name="onehalf" horiz-adv-x="639" d="M21 630L112 680H168V340H104V609L48 579L21 630ZM435 680H506L158 0H87L435 680ZM609 0H393V41Q393 97 414 125T472 172L505 188Q525 199 535 209T545 238V245Q545 284 493 284Q455 284 406
264L391 323Q444 345 494 345Q556 345 583 318T610 246V237Q610 197 587 175T529 135L497 119Q478 110 469 98T458 62H609V0Z" />
<glyph unicode="&#xbe;" glyph-name="threequarters" horiz-adv-x="629" d="M235 431Q235 388 207 362T116 335Q92 335 67 340T17 356L34 413Q56 403 76 400T114 396Q170 396 170 434V442Q170 461 156 472T113 484H70V539H113Q141 539 154 550T167 579V586Q167
606 153 615T115 624Q99 624 82 621T42 607L23 665Q47 676 71 680T117 685Q177 685 204 658T232 590V583Q232 534 185 511Q235 490 235 439V431ZM468 680H539L191 0H120L468 680ZM623 77H586V0H527V77H379V123Q417 181 448 233T499 340H567Q547 288 519 238T453
134H527V182H586V134H623V77Z" />
<glyph unicode="&#xbf;" glyph-name="questiondown" horiz-adv-x="434" d="M200 495H292V403H200V495ZM250 -119Q285 -119 324 -110T409 -80L437 -152Q387 -175 339 -185T247 -195Q143 -195 95 -147T47 -26V-8Q47 47 65 85T120 157L154 188Q186 218 195 240T205
293V312H289V290Q289 256 282 231T258 184T212 135L178 104Q154 82 143 57T132 -4V-22Q132 -66 162 -92T250 -119Z" />
<glyph unicode="&#xc0;" glyph-name="Agrave" horiz-adv-x="577" d="M466 0L415 158H157L106 0H21L247 680H329L556 0H466ZM220 354L182 237H389L351 354L286 564L220 354ZM252 764L154 894L233 930L323 764H252Z" />
<glyph unicode="&#xc1;" glyph-name="Aacute" horiz-adv-x="577" d="M466 0L415 158H157L106 0H21L247 680H329L556 0H466ZM220 354L182 237H389L351 354L286 564L220 354ZM324 764H253L343 930L421 894L324 764Z" />
<glyph unicode="&#xc2;" glyph-name="Acircumflex" horiz-adv-x="577" d="M466 0L415 158H157L106 0H21L247 680H329L556 0H466ZM220 354L182 237H389L351 354L286 564L220 354ZM353 764L286 859L219 764H154L247 925H329L422 764H353Z" />
<glyph unicode="&#xc3;" glyph-name="Atilde" horiz-adv-x="577" d="M466 0L415 158H157L106 0H21L247 680H329L556 0H466ZM220 354L182 237H389L351 354L286 564L220 354ZM348 773Q323 773 306 785T276 814T253 842T229 855Q219 855 212 841T205 785H142Q143
861 166 892T227 923Q253 923 270 911T299 882T322 853T346 840Q357 840 363 854T371 910H434Q433 834 409 804T348 773Z" />
<glyph unicode="&#xc4;" glyph-name="Adieresis" horiz-adv-x="577" d="M466 0L415 158H157L106 0H21L247 680H329L556 0H466ZM220 354L182 237H389L351 354L286 564L220 354ZM235 804H149V890H235V804ZM426 804H340V890H426V804Z" />
<glyph unicode="&#xc5;" glyph-name="Aring" horiz-adv-x="577" d="M157 158L106 0H21L233 637Q175 664 175 734V745Q175 793 206 823T289 853Q341 853 372 823T403 745V734Q403 700 388 675T344 636L556 0H466L415 158H157ZM343 745Q343 769 328 783T289 798Q264
798 249 784T234 745V734Q234 709 249 695T289 680Q313 680 328 694T343 734V745ZM220 354L182 237H389L351 354L286 564L220 354Z" />
<glyph unicode="&#xc6;" glyph-name="AE" horiz-adv-x="834" d="M3 0L368 680H779V598H496V385H749V303H496V81H789V0H409V158H181L97 0H3ZM222 237H409V590L222 237Z" />
<glyph unicode="&#xc7;" glyph-name="Ccedilla" horiz-adv-x="529" d="M412 -132Q412 -175 381 -199T299 -223Q278 -223 259 -219T220 -208L231 -152Q248 -158 266 -161T298 -164Q325 -164 335 -155T345 -133Q345 -121 335 -112T297 -103Q291 -103 286 -103T274
-105L250 -67L261 -5Q170 11 123 82T75 265V415Q75 542 136 616T315 690Q356 690 400 680T491 648L463 573Q382 609 318 609Q240 609 203 559T165 415V265Q165 171 202 121T318 70Q352 70 385 78T464 106L493 32Q446 10 404 1T320 -10L313 -50Q361 -50 386 -72T412
-132Z" />
<glyph unicode="&#xc8;" glyph-name="Egrave" horiz-adv-x="531" d="M486 81V0H106V680H476V598H193V385H446V303H193V81H486ZM254 764L156 894L235 930L325 764H254Z" />
<glyph unicode="&#xc9;" glyph-name="Eacute" horiz-adv-x="531" d="M486 81V0H106V680H476V598H193V385H446V303H193V81H486ZM326 764H255L345 930L423 894L326 764Z" />
<glyph unicode="&#xca;" glyph-name="Ecircumflex" horiz-adv-x="531" d="M486 81V0H106V680H476V598H193V385H446V303H193V81H486ZM355 764L288 859L221 764H156L249 925H331L424 764H355Z" />
<glyph unicode="&#xcb;" glyph-name="Edieresis" horiz-adv-x="531" d="M486 81V0H106V680H476V598H193V385H446V303H193V81H486ZM237 804H151V890H237V804ZM428 804H342V890H428V804Z" />
<glyph unicode="&#xcc;" glyph-name="Igrave" horiz-adv-x="300" d="M193 0H106V680H193V0ZM115 764L17 894L96 930L186 764H115Z" />
<glyph unicode="&#xcd;" glyph-name="Iacute" horiz-adv-x="300" d="M193 0H106V680H193V0ZM187 764H116L206 930L284 894L187 764Z" />
<glyph unicode="&#xce;" glyph-name="Icircumflex" horiz-adv-x="300" d="M193 0H106V680H193V0ZM215 764L148 859L81 764H16L109 925H191L284 764H215Z" />
<glyph unicode="&#xcf;" glyph-name="Idieresis" horiz-adv-x="300" d="M193 0H106V680H193V0ZM97 804H11V890H97V804ZM288 804H202V890H288V804Z" />
<glyph unicode="&#xd0;" glyph-name="Eth" horiz-adv-x="647" d="M29 384H116V680H327Q444 680 506 610T569 415V266Q569 141 507 71T327 0H116V305H29V384ZM340 305H203V81H325Q479 81 479 266V415Q479 598 325 598H203V384H340V305Z" />
<glyph unicode="&#xd1;" glyph-name="Ntilde" horiz-adv-x="690" d="M106 0V680H197Q288 550 364 419T508 144L498 404V680H583V0H492Q422 146 348 284T185 555L191 278V0H106ZM405 773Q380 773 363 785T333 814T310 842T286 855Q276 855 269 841T262 785H199Q200
861 223 892T284 923Q310 923 327 911T356 882T379 853T403 840Q414 840 420 854T428 910H491Q490 834 466 804T405 773Z" />
<glyph unicode="&#xd2;" glyph-name="Ograve" horiz-adv-x="647" d="M569 415V266Q569 139 506 65T323 -10Q204 -10 141 64T77 266V415Q77 541 140 615T323 690Q442 690 505 616T569 415ZM479 415Q479 508 440 558T323 609Q247 609 207 559T167 415V266Q167 172
207 121T323 70Q400 70 439 121T479 266V415ZM287 764L189 894L268 930L358 764H287Z" />
<glyph unicode="&#xd3;" glyph-name="Oacute" horiz-adv-x="647" d="M569 415V266Q569 139 506 65T323 -10Q204 -10 141 64T77 266V415Q77 541 140 615T323 690Q442 690 505 616T569 415ZM479 415Q479 508 440 558T323 609Q247 609 207 559T167 415V266Q167 172
207 121T323 70Q400 70 439 121T479 266V415ZM359 764H288L378 930L456 894L359 764Z" />
<glyph unicode="&#xd4;" glyph-name="Ocircumflex" horiz-adv-x="647" d="M569 415V266Q569 139 506 65T323 -10Q204 -10 141 64T77 266V415Q77 541 140 615T323 690Q442 690 505 616T569 415ZM479 415Q479 508 440 558T323 609Q247 609 207 559T167 415V266Q167
172 207 121T323 70Q400 70 439 121T479 266V415ZM387 764L320 859L253 764H188L281 925H363L456 764H387Z" />
<glyph unicode="&#xd5;" glyph-name="Otilde" horiz-adv-x="647" d="M569 415V266Q569 139 506 65T323 -10Q204 -10 141 64T77 266V415Q77 541 140 615T323 690Q442 690 505 616T569 415ZM479 415Q479 508 440 558T323 609Q247 609 207 559T167 415V266Q167 172
207 121T323 70Q400 70 439 121T479 266V415ZM383 773Q358 773 341 785T311 814T288 842T264 855Q254 855 247 841T240 785H177Q178 861 201 892T262 923Q288 923 305 911T334 882T357 853T381 840Q392 840 398 854T406 910H469Q468 834 444 804T383 773Z" />
<glyph unicode="&#xd6;" glyph-name="Odieresis" horiz-adv-x="647" d="M569 415V266Q569 139 506 65T323 -10Q204 -10 141 64T77 266V415Q77 541 140 615T323 690Q442 690 505 616T569 415ZM479 415Q479 508 440 558T323 609Q247 609 207 559T167 415V266Q167
172 207 121T323 70Q400 70 439 121T479 266V415ZM270 804H184V890H270V804ZM461 804H375V890H461V804Z" />
<glyph unicode="&#xd7;" glyph-name="multiply" horiz-adv-x="588" d="M493 153L442 103L294 252L145 103L94 153L243 303L94 452L145 503L294 354L442 503L493 452L344 303L493 153Z" />
<glyph unicode="&#xd8;" glyph-name="Oslash" horiz-adv-x="647" d="M323 -10Q282 -10 248 -1T185 26L154 -30H77L134 72Q77 144 77 266V415Q77 541 140 615T323 690Q364 690 398 681T461 654L492 710H569L512 608Q569 534 569 415V266Q569 139 506 65T323 -10ZM166
266Q166 204 184 160L419 580Q382 610 323 610Q246 610 206 560T166 415V266ZM480 415Q480 475 463 520L227 100Q264 69 323 69Q400 69 440 120T480 266V415Z" />
<glyph unicode="&#xd9;" glyph-name="Ugrave" horiz-adv-x="648" d="M92 680H182V244Q182 162 216 116T324 70Q398 70 432 116T466 244V680H556V244Q556 125 498 58T324 -10Q207 -10 150 57T92 244V680ZM288 764L190 894L269 930L359 764H288Z" />
<glyph unicode="&#xda;" glyph-name="Uacute" horiz-adv-x="648" d="M92 680H182V244Q182 162 216 116T324 70Q398 70 432 116T466 244V680H556V244Q556 125 498 58T324 -10Q207 -10 150 57T92 244V680ZM360 764H289L379 930L457 894L360 764Z" />
<glyph unicode="&#xdb;" glyph-name="Ucircumflex" horiz-adv-x="648" d="M92 680H182V244Q182 162 216 116T324 70Q398 70 432 116T466 244V680H556V244Q556 125 498 58T324 -10Q207 -10 150 57T92 244V680ZM388 764L321 859L254 764H189L282 925H364L457 764H388Z" />
<glyph unicode="&#xdc;" glyph-name="Udieresis" horiz-adv-x="648" d="M92 680H182V244Q182 162 216 116T324 70Q398 70 432 116T466 244V680H556V244Q556 125 498 58T324 -10Q207 -10 150 57T92 244V680ZM270 804H184V890H270V804ZM461 804H375V890H461V804Z" />
<glyph unicode="&#xdd;" glyph-name="Yacute" horiz-adv-x="524" d="M514 680L306 272V0H219V272L10 680H104L267 358L424 680H514ZM298 764H227L317 930L395 894L298 764Z" />
<glyph unicode="&#xde;" glyph-name="Thorn" horiz-adv-x="564" d="M318 128H193V0H106V680H193V560H318Q416 560 467 509T519 371V318Q519 232 468 180T318 128ZM318 478H193V209H318Q372 209 400 238T429 318V371Q429 421 401 449T318 478Z" />
<glyph unicode="&#xdf;" glyph-name="germandbls" horiz-adv-x="608" d="M578 138Q578 77 539 34T415 -10Q383 -10 346 -2T268 23L290 94Q326 77 356 70T414 62Q455 62 476 80T498 132Q498 156 487 176T444 219L394 254Q354 282 336 312T317 381Q317 413 327 440T350
492T374 543T384 596Q384 635 356 655T285 675Q236 675 211 650T186 569V0H104V423H18V495H104V569Q104 617 121 658T177 725T284 750Q333 750 374 735T440 686T465 600Q465 565 455 538T432 486T408 440T398 392Q398 373 407 356T444 320L494 286Q541 254 559
217T578 138Z" />
<glyph unicode="&#xe0;" glyph-name="agrave" horiz-adv-x="493" d="M450 -5Q404 -5 377 16T338 68Q289 25 249 8T169 -10Q104 -10 73 32T42 135Q42 176 57 208T108 258T205 277Q232 277 264 274T329 265V332Q329 388 305 408T233 429Q169 429 90 394L64 462Q110
483 152 494T237 505Q307 505 344 482T395 421T409 338V124Q409 101 418 86T454 70H465V-5H450ZM123 136Q123 102 139 81T185 60Q211 60 245 75T329 138V201Q261 212 209 212Q163 212 143 193T123 136ZM451 579L353 709L432 745L522 579H451Z" />
<glyph unicode="&#xe1;" glyph-name="aacute" horiz-adv-x="493" d="M450 -5Q404 -5 377 16T338 68Q289 25 249 8T169 -10Q104 -10 73 32T42 135Q42 176 57 208T108 258T205 277Q232 277 264 274T329 265V332Q329 388 305 408T233 429Q169 429 90 394L64 462Q110
483 152 494T237 505Q307 505 344 482T395 421T409 338V124Q409 101 418 86T454 70H465V-5H450ZM123 136Q123 102 139 81T185 60Q211 60 245 75T329 138V201Q261 212 209 212Q163 212 143 193T123 136ZM523 579H452L542 745L620 709L523 579Z" />
<glyph unicode="&#xe2;" glyph-name="acircumflex" horiz-adv-x="493" d="M450 -5Q404 -5 377 16T338 68Q289 25 249 8T169 -10Q104 -10 73 32T42 135Q42 176 57 208T108 258T205 277Q232 277 264 274T329 265V332Q329 388 305 408T233 429Q169 429 90 394L64
462Q110 483 152 494T237 505Q307 505 344 482T395 421T409 338V124Q409 101 418 86T454 70H465V-5H450ZM123 136Q123 102 139 81T185 60Q211 60 245 75T329 138V201Q261 212 209 212Q163 212 143 193T123 136ZM551 579L484 674L417 579H352L445 740H527L620 579H551Z"
/>
<glyph unicode="&#xe3;" glyph-name="atilde" horiz-adv-x="493" d="M450 -5Q404 -5 377 16T338 68Q289 25 249 8T169 -10Q104 -10 73 32T42 135Q42 176 57 208T108 258T205 277Q232 277 264 274T329 265V332Q329 388 305 408T233 429Q169 429 90 394L64 462Q110
483 152 494T237 505Q307 505 344 482T395 421T409 338V124Q409 101 418 86T454 70H465V-5H450ZM123 136Q123 102 139 81T185 60Q211 60 245 75T329 138V201Q261 212 209 212Q163 212 143 193T123 136ZM547 588Q522 588 505 600T475 629T452 657T428 670Q418 670
411 656T404 600H341Q342 676 365 707T426 738Q452 738 469 726T498 697T521 668T545 655Q556 655 562 669T570 725H633Q632 649 608 619T547 588Z" />
<glyph unicode="&#xe4;" glyph-name="adieresis" horiz-adv-x="493" d="M450 -5Q404 -5 377 16T338 68Q289 25 249 8T169 -10Q104 -10 73 32T42 135Q42 176 57 208T108 258T205 277Q232 277 264 274T329 265V332Q329 388 305 408T233 429Q169 429 90 394L64 462Q110
483 152 494T237 505Q307 505 344 482T395 421T409 338V124Q409 101 418 86T454 70H465V-5H450ZM123 136Q123 102 139 81T185 60Q211 60 245 75T329 138V201Q261 212 209 212Q163 212 143 193T123 136ZM433 619H347V705H433V619ZM624 619H538V705H624V619Z" />
<glyph unicode="&#xe5;" glyph-name="aring" horiz-adv-x="493" d="M450 -5Q404 -5 377 16T338 68Q289 25 249 8T169 -10Q104 -10 73 32T42 135Q42 176 57 208T108 258T205 277Q232 277 264 274T329 265V332Q329 388 305 408T233 429Q169 429 90 394L64 462Q110
483 152 494T237 505Q307 505 344 482T395 421T409 338V124Q409 101 418 86T454 70H465V-5H450ZM123 136Q123 102 139 81T185 60Q211 60 245 75T329 138V201Q261 212 209 212Q163 212 143 193T123 136ZM601 683V672Q601 623 570 593T487 563Q435 563 404 593T373
672V683Q373 731 404 761T487 791Q539 791 570 761T601 683ZM541 683Q541 707 526 721T487 736Q462 736 447 722T432 683V672Q432 647 447 633T487 618Q511 618 526 632T541 672V683Z" />
<glyph unicode="&#xe6;" glyph-name="ae" horiz-adv-x="771" d="M715 29Q669 8 624 -1T541 -10Q476 -10 431 13T361 80Q305 29 260 10T170 -10Q104 -10 73 32T42 135Q42 176 57 208T108 258T205 277Q232 277 264 274T329 265V332Q329 388 305 408T233 429Q169
429 90 394L64 462Q110 483 152 494T237 505Q299 505 333 485T383 432Q406 467 443 486T531 505Q582 505 624 485T692 423T718 316Q718 273 705 222H410V218Q410 142 442 103T544 64Q576 64 614 72T690 97L715 29ZM531 433Q473 433 443 395T410 289H634Q637 309
637 324Q637 380 606 406T531 433ZM124 136Q124 102 139 81T185 60Q211 60 248 76T337 143Q334 157 332 171T329 200Q297 206 266 209T209 212Q164 212 144 193T124 136Z" />
<glyph unicode="&#xe7;" glyph-name="ccedilla" horiz-adv-x="449" d="M359 -132Q359 -175 328 -199T246 -223Q225 -223 206 -219T167 -208L178 -152Q195 -158 213 -161T245 -164Q272 -164 282 -155T292 -133Q292 -121 282 -112T244 -103Q238 -103 233 -103T221
-105L197 -67L208 -5Q136 10 99 68T62 218V277Q62 383 112 444T258 505Q294 505 332 496T410 469L385 399Q352 413 322 421T263 429Q202 429 174 391T146 277V218Q146 142 174 104T263 65Q323 65 392 96L417 27Q380 10 342 1T267 -10L260 -50Q308 -50 333 -72T359
-132Z" />
<glyph unicode="&#xe8;" glyph-name="egrave" horiz-adv-x="504" d="M447 29Q402 7 357 -1T274 -10Q167 -10 115 51T62 218V278Q62 381 114 443T263 505Q314 505 356 485T424 423T450 316Q450 274 438 220H143V218Q143 142 174 103T276 64Q308 64 346 72T422 97L447
29ZM263 433Q205 433 176 396T143 290H367Q370 308 370 324Q370 380 339 406T263 433ZM227 579L129 709L208 745L298 579H227Z" />
<glyph unicode="&#xe9;" glyph-name="eacute" horiz-adv-x="504" d="M447 29Q402 7 357 -1T274 -10Q167 -10 115 51T62 218V278Q62 381 114 443T263 505Q314 505 356 485T424 423T450 316Q450 274 438 220H143V218Q143 142 174 103T276 64Q308 64 346 72T422 97L447
29ZM263 433Q205 433 176 396T143 290H367Q370 308 370 324Q370 380 339 406T263 433ZM299 579H228L318 745L396 709L299 579Z" />
<glyph unicode="&#xea;" glyph-name="ecircumflex" horiz-adv-x="504" d="M447 29Q402 7 357 -1T274 -10Q167 -10 115 51T62 218V278Q62 381 114 443T263 505Q314 505 356 485T424 423T450 316Q450 274 438 220H143V218Q143 142 174 103T276 64Q308 64 346 72T422
97L447 29ZM263 433Q205 433 176 396T143 290H367Q370 308 370 324Q370 380 339 406T263 433ZM327 579L260 674L193 579H128L221 740H303L396 579H327Z" />
<glyph unicode="&#xeb;" glyph-name="edieresis" horiz-adv-x="504" d="M447 29Q402 7 357 -1T274 -10Q167 -10 115 51T62 218V278Q62 381 114 443T263 505Q314 505 356 485T424 423T450 316Q450 274 438 220H143V218Q143 142 174 103T276 64Q308 64 346 72T422
97L447 29ZM263 433Q205 433 176 396T143 290H367Q370 308 370 324Q370 380 339 406T263 433ZM210 619H124V705H210V619ZM401 619H315V705H401V619Z" />
<glyph unicode="&#xec;" glyph-name="igrave" horiz-adv-x="259" d="M170 0H88V495H170V0ZM350 579L252 709L331 745L421 579H350Z" />
<glyph unicode="&#xed;" glyph-name="iacute" horiz-adv-x="259" d="M170 0H88V495H170V0ZM422 579H351L441 745L519 709L422 579Z" />
<glyph unicode="&#xee;" glyph-name="icircumflex" horiz-adv-x="259" d="M170 0H88V495H170V0ZM451 579L384 674L317 579H252L345 740H427L520 579H451Z" />
<glyph unicode="&#xef;" glyph-name="idieresis" horiz-adv-x="259" d="M170 0H88V495H170V0ZM333 619H247V705H333V619ZM524 619H438V705H524V619Z" />
<glyph unicode="&#xf0;" glyph-name="eth" horiz-adv-x="538" d="M480 254Q480 122 423 56T264 -10Q164 -10 110 43T55 196V232Q55 328 106 385T245 442Q284 442 317 430T384 393Q372 440 349 484T288 569L159 482V559L241 614Q219 633 194 651T139 686L172 750Q249
704 303 657L441 750V673L350 611Q418 538 449 458T480 294V254ZM140 196Q140 131 172 98T264 64Q326 64 360 109T395 254V307Q355 340 323 353T259 366Q204 366 172 331T140 232V196Z" />
<glyph unicode="&#xf1;" glyph-name="ntilde" horiz-adv-x="571" d="M326 428Q298 428 261 414T170 357V0H88V495H166V426Q219 471 262 488T346 505Q415 505 451 462T488 338V0H406V326Q406 428 326 428ZM350 588Q325 588 308 600T278 629T255 657T231 670Q221
670 214 656T207 600H144Q145 676 168 707T229 738Q255 738 272 726T301 697T324 668T348 655Q359 655 365 669T373 725H436Q435 649 411 619T350 588Z" />
<glyph unicode="&#xf2;" glyph-name="ograve" horiz-adv-x="541" d="M480 278V218Q480 112 426 51T270 -10Q170 -10 115 51T60 218V278Q60 382 114 443T270 505Q371 505 425 444T480 278ZM395 278Q395 349 363 389T270 430Q210 430 178 390T145 278V218Q145 144
177 104T270 64Q331 64 363 104T395 218V278ZM234 579L136 709L215 745L305 579H234Z" />
<glyph unicode="&#xf3;" glyph-name="oacute" horiz-adv-x="541" d="M480 278V218Q480 112 426 51T270 -10Q170 -10 115 51T60 218V278Q60 382 114 443T270 505Q371 505 425 444T480 278ZM395 278Q395 349 363 389T270 430Q210 430 178 390T145 278V218Q145 144
177 104T270 64Q331 64 363 104T395 218V278ZM306 579H235L325 745L403 709L306 579Z" />
<glyph unicode="&#xf4;" glyph-name="ocircumflex" horiz-adv-x="541" d="M480 278V218Q480 112 426 51T270 -10Q170 -10 115 51T60 218V278Q60 382 114 443T270 505Q371 505 425 444T480 278ZM395 278Q395 349 363 389T270 430Q210 430 178 390T145 278V218Q145
144 177 104T270 64Q331 64 363 104T395 218V278ZM335 579L268 674L201 579H136L229 740H311L404 579H335Z" />
<glyph unicode="&#xf5;" glyph-name="otilde" horiz-adv-x="541" d="M480 278V218Q480 112 426 51T270 -10Q170 -10 115 51T60 218V278Q60 382 114 443T270 505Q371 505 425 444T480 278ZM395 278Q395 349 363 389T270 430Q210 430 178 390T145 278V218Q145 144
177 104T270 64Q331 64 363 104T395 218V278ZM330 588Q305 588 288 600T258 629T235 657T211 670Q201 670 194 656T187 600H124Q125 676 148 707T209 738Q235 738 252 726T281 697T304 668T328 655Q339 655 345 669T353 725H416Q415 649 391 619T330 588Z" />
<glyph unicode="&#xf6;" glyph-name="odieresis" horiz-adv-x="541" d="M480 278V218Q480 112 426 51T270 -10Q170 -10 115 51T60 218V278Q60 382 114 443T270 505Q371 505 425 444T480 278ZM395 278Q395 349 363 389T270 430Q210 430 178 390T145 278V218Q145
144 177 104T270 64Q331 64 363 104T395 218V278ZM217 619H131V705H217V619ZM408 619H322V705H408V619Z" />
<glyph unicode="&#xf7;" glyph-name="divide" horiz-adv-x="588" d="M340 456H248V547H340V456ZM87 266V338H501V266H87ZM340 53H248V145H340V53Z" />
<glyph unicode="&#xf8;" glyph-name="oslash" horiz-adv-x="541" d="M270 -10Q207 -10 162 14L134 -30H60L112 54Q60 114 60 218V278Q60 382 114 443T270 505Q332 505 379 480L407 525H480L428 441Q480 381 480 278V218Q480 112 426 51T270 -10ZM143 218Q143 192
147 170T159 129L338 415Q309 432 270 432Q209 432 176 392T143 278V218ZM397 278Q397 329 380 365L202 79Q231 62 270 62Q332 62 364 102T397 218V278Z" />
<glyph unicode="&#xf9;" glyph-name="ugrave" horiz-adv-x="559" d="M393 0V70Q341 25 300 8T218 -10Q152 -10 117 33T82 156V495H164V168Q164 116 182 92T238 67Q266 67 301 81T388 137V495H470V0H393ZM240 579L142 709L221 745L311 579H240Z" />
<glyph unicode="&#xfa;" glyph-name="uacute" horiz-adv-x="559" d="M393 0V70Q341 25 300 8T218 -10Q152 -10 117 33T82 156V495H164V168Q164 116 182 92T238 67Q266 67 301 81T388 137V495H470V0H393ZM312 579H241L331 745L409 709L312 579Z" />
<glyph unicode="&#xfb;" glyph-name="ucircumflex" horiz-adv-x="559" d="M393 0V70Q341 25 300 8T218 -10Q152 -10 117 33T82 156V495H164V168Q164 116 182 92T238 67Q266 67 301 81T388 137V495H470V0H393ZM341 579L274 674L207 579H142L235 740H317L410 579H341Z" />
<glyph unicode="&#xfc;" glyph-name="udieresis" horiz-adv-x="559" d="M393 0V70Q341 25 300 8T218 -10Q152 -10 117 33T82 156V495H164V168Q164 116 182 92T238 67Q266 67 301 81T388 137V495H470V0H393ZM223 619H137V705H223V619ZM414 619H328V705H414V619Z" />
<glyph unicode="&#xfd;" glyph-name="yacute" horiz-adv-x="472" d="M257 -50Q225 -140 179 -181T49 -223V-142Q83 -141 107 -133T151 -101T189 -28L199 -3L21 495H105L188 254L239 100L288 254L369 495H450L257 -50ZM529 579H458L548 745L626 709L529 579Z" />
<glyph unicode="&#xfe;" glyph-name="thorn" horiz-adv-x="554" d="M286 -10Q230 -10 170 13V-213H88V740H170V429Q214 471 251 488T328 505Q406 505 448 445T490 276V218Q490 114 438 52T286 -10ZM308 428Q279 428 248 413T170 352V88Q199 75 226 70T279 64Q347
64 376 105T405 218V276Q405 354 381 391T308 428Z" />
<glyph unicode="&#xff;" glyph-name="ydieresis" horiz-adv-x="472" d="M257 -50Q225 -140 179 -181T49 -223V-142Q83 -141 107 -133T151 -101T189 -28L199 -3L21 495H105L188 254L239 100L288 254L369 495H450L257 -50ZM439 619H353V705H439V619ZM630 619H544V705H630V619Z"
/>
<glyph unicode="&#x2013;" glyph-name="endash" horiz-adv-x="592" d="M56 267V339H536V267H56Z" />
<glyph unicode="&#x2014;" glyph-name="emdash" horiz-adv-x="792" d="M56 267V339H736V267H56Z" />
<glyph unicode="&#x2018;" glyph-name="quoteleft" horiz-adv-x="192" d="M37 430V449Q37 511 55 568T111 690L165 662Q146 621 136 588T123 518T119 430H37Z" />
<glyph unicode="&#x2019;" glyph-name="quoteright" horiz-adv-x="192" d="M155 680V661Q155 598 137 542T81 420L26 447Q45 489 55 522T69 593T73 680H155Z" />
<glyph unicode="&#x201a;" glyph-name="quotesinglbase" horiz-adv-x="192" d="M137 91V72Q137 10 119 -46T63 -168L8 -141Q27 -99 37 -66T51 4T55 91H137Z" />
<glyph unicode="&#x201c;" glyph-name="quotedblleft" horiz-adv-x="356" d="M201 430V449Q201 511 219 568T275 690L329 662Q310 621 300 588T287 518T283 430H201ZM37 430V449Q37 511 55 568T111 690L165 662Q146 621 136 588T123 518T119 430H37Z" />
<glyph unicode="&#x201d;" glyph-name="quotedblright" horiz-adv-x="356" d="M155 680V661Q155 598 137 542T81 420L26 447Q45 489 55 522T69 593T73 680H155ZM319 680V661Q319 598 301 542T245 420L190 447Q209 489 219 522T233 593T237 680H319Z" />
<glyph unicode="&#x201e;" glyph-name="quotedblbase" horiz-adv-x="356" d="M137 91V72Q137 10 119 -46T63 -168L8 -141Q27 -99 37 -66T51 4T55 91H137ZM301 91V72Q301 10 283 -46T227 -168L172 -141Q191 -99 201 -66T215 4T219 91H301Z" />
<glyph unicode="&#x2022;" glyph-name="bullet" horiz-adv-x="243" d="M184 271H59V396H184V271Z" />
<glyph unicode="&#x2039;" glyph-name="guilsinglleft" horiz-adv-x="377" d="M322 105V14L38 221V274L322 478V390L120 248L322 105Z" />
<glyph unicode="&#x203a;" glyph-name="guilsinglright" horiz-adv-x="377" d="M338 218L54 14V101L256 243L54 386V478L338 271V218Z" />
</font>
</defs>
</svg>
