<?xml version="1.0" standalone="no"?>
<!DOCTYPE svg PUBLIC "-//W3C//DTD SVG 1.1//EN" "http://www.w3.org/Graphics/SVG/1.1/DTD/svg11.dtd">
<svg xmlns="http://www.w3.org/2000/svg">
<defs >
<font id="Gruppo" horiz-adv-x="1125" ><font-face
    font-family="Gruppo"
    units-per-em="2048"
    panose-1="2 0 6 4 6 0 0 2 0 4"
    ascent="1639"
    descent="-340"
    alphabetic="0" />
<glyph unicode=" " glyph-name="space" horiz-adv-x="460" />
<glyph unicode="!" glyph-name="exclam" horiz-adv-x="330" d="M164 221Q142 221 140 250Q130 494 124 648T115 888T111 1011T109 1057T108 1065Q108 1090 125 1100T164 1110Q186 1110 203 1099T221 1063L189 250Q187 221 164 221ZM166 -10Q140 -10 124 5T108
46Q108 72 124 88T166 105Q191 105 208 89T226 46Q226 21 209 6T166 -10Z" />
<glyph unicode="&quot;" glyph-name="quotedbl" horiz-adv-x="403" d="M123 789Q98 789 97 810L76 1072Q73 1110 88 1122T123 1135Q143 1135 157 1123T169 1072L149 810Q148 789 123 789ZM282 789Q257 789 256 810L235 1072Q232 1110 247 1122T282 1135Q302 1135
316 1123T328 1072L308 810Q307 789 282 789Z" />
<glyph unicode="#" glyph-name="numbersign" horiz-adv-x="758" d="M170 0Q142 0 142 29Q142 42 145 57L193 353H120Q96 353 79 359T62 385Q62 410 79 414T119 419H204L242 650H159Q135 650 118 656T101 683Q101 707 118 712T158 717H253L308 1054Q312 1079 320
1096T353 1114Q376 1114 376 1083Q376 1074 374 1056L319 717H492L547 1054Q551 1079 559 1096T592 1114Q616 1114 616 1081Q616 1075 616 1069T614 1056L558 717H635Q659 717 677 712T695 681Q695 661 677 656T636 650H547L509 419H596Q620 419 638 414T656 384Q656
363 638 358T597 353H498L450 58Q446 34 438 17T409 0Q381 0 381 29Q381 42 384 57L432 353H259L211 58Q207 34 199 17T170 0ZM270 419H443L481 650H308L270 419Z" />
<glyph unicode="$" glyph-name="dollar" horiz-adv-x="1523" d="M653 -161Q625 -161 621 -142T616 -99V-9Q459 6 331 35T149 90Q122 103 122 129Q122 158 148 158Q155 158 162 155Q218 132 343 104T616 59V551Q483 560 368 582T181 659T110 815Q110 929 181 996T367
1094T616 1132V1230Q616 1256 620 1276T653 1296Q679 1296 683 1275T688 1227V1135H716Q748 1135 779 1134T841 1130V1230Q841 1256 845 1276T878 1296Q904 1296 908 1275T913 1227V1125Q1042 1112 1148 1087T1311 1036Q1327 1029 1327 1009Q1327 995 1318 983T1291
971Q1281 971 1274 975Q1123 1036 913 1058V610Q1048 599 1165 572T1355 484T1427 311Q1427 195 1356 125T1167 22T913 -18V-91Q913 -120 909 -140T878 -161Q850 -161 846 -142T841 -99V-20H829Q794 -20 759 -19T688 -15V-91Q688 -120 684 -140T653 -161ZM841 615V1065Q810
1067 780 1068T720 1069Q712 1069 704 1069T688 1068V624Q726 622 764 620T841 615ZM616 629V1066Q500 1059 405 1033T252 956T195 821Q195 749 252 711T405 655T616 629ZM841 46V539Q803 541 765 543T688 547V52Q765 46 841 46ZM913 47Q1031 53 1128 80T1284 163T1342
311Q1342 394 1284 439T1128 505T913 534V47Z" />
<glyph unicode="%" glyph-name="percent" horiz-adv-x="1268" d="M311 -2Q290 -2 283 10T275 32Q275 47 281 57T295 80L906 1075Q917 1094 927 1109T956 1124Q978 1124 985 1114T992 1094Q992 1080 987 1067T973 1042L360 46Q347 26 337 12T311 -2ZM312 562Q243
562 186 595T94 682T60 803Q60 869 94 924T185 1012T312 1045Q382 1045 439 1012T530 924T564 803Q564 737 530 683T439 595T312 562ZM312 625Q387 625 440 677T494 801Q494 874 441 926T312 978Q237 978 183 926T128 801Q128 729 182 677T312 625ZM971 86Q901
86 844 119T752 206T717 327Q717 393 751 448T843 536T971 569Q1041 569 1098 536T1189 448T1223 327Q1223 261 1189 207T1098 119T971 86ZM971 149Q1046 149 1099 201T1153 325Q1153 398 1100 450T971 502Q893 502 840 450T787 325Q787 253 840 201T971 149Z"
/>
<glyph unicode="&amp;" glyph-name="ampersand" horiz-adv-x="1164" d="M434 -18Q336 -18 250 19T111 132T58 327Q58 441 101 511T207 618T322 671Q293 685 260 714T204 790T181 909Q181 983 221 1035T324 1116T457 1144Q557 1144 611 1126T687 1087T708 1058Q708
1047 701 1037T682 1027Q671 1027 647 1041T580 1070T471 1085Q375 1085 313 1035T251 905Q251 842 284 789T358 695H675V855Q675 871 687 878T715 886Q730 886 742 879T755 855V695H916Q943 695 950 688T957 666Q957 655 950 646T916 636H755V279Q755 182 780
133T849 66T944 49Q988 49 1024 68T1087 105T1123 124Q1145 124 1145 100Q1145 83 1114 57T1034 11T930 -10Q870 -10 821 7T736 67Q596 -18 434 -18ZM436 48Q507 48 576 68T702 123Q675 187 675 279V636H364Q258 602 196 533T134 331Q134 229 177 167T289 77T436
48Z" />
<glyph unicode="&apos;" glyph-name="quotesingle" horiz-adv-x="246" d="M123 789Q114 789 106 794T97 810Q96 828 93 872T87 967T81 1056T74 1099Q74 1117 88 1126T123 1135Q143 1135 157 1126T171 1099Q168 1097 165 1059T159 968T153 871T149 810Q146 789 123 789Z" />
<glyph unicode="(" glyph-name="parenleft" horiz-adv-x="444" d="M481 -177Q372 -177 294 -116T166 50T94 284T70 551Q70 688 93 818T166 1053T293 1219T481 1281Q498 1281 506 1271T514 1249Q514 1237 506 1227T481 1217Q390 1217 327 1161T224 1010T166 796T148
552Q148 427 166 309T223 95T326 -57T481 -113Q498 -113 506 -123T514 -145Q514 -157 506 -167T481 -177Z" />
<glyph unicode=")" glyph-name="parenright" horiz-adv-x="444" d="M-37 -177Q-53 -177 -61 -167T-70 -145Q-70 -133 -62 -123T-37 -113Q54 -113 117 -57T220 94T278 308T296 552Q296 677 278 795T221 1009T118 1161T-37 1217Q-53 1217 -61 1227T-70 1249Q-70
1261 -62 1271T-37 1281Q73 1281 151 1220T278 1054T350 819T374 551Q374 414 351 284T278 50T151 -115T-37 -177Z" />
<glyph unicode="*" glyph-name="asterisk" horiz-adv-x="868" d="M290 322Q270 322 259 334T248 354Q248 362 252 371T262 391L387 641L108 635Q87 635 76 641T65 671Q65 697 80 702T119 707L381 699L240 934Q225 957 224 973Q224 981 235 993T264 1006Q276 1006
284 996T302 969L431 733L542 979Q550 996 558 1007T578 1018Q596 1018 607 1007T619 987Q619 979 615 970T605 949L480 699L757 705Q778 705 790 699T802 669Q802 647 791 641T759 634L485 641L627 406Q634 394 638 384T643 366Q643 356 631 345T603 334Q591 334
583 344T565 371L436 606L325 362Q317 344 310 333T290 322Z" />
<glyph unicode="+" glyph-name="plus" horiz-adv-x="800" d="M400 173Q388 173 377 180T365 206V441H109Q90 441 82 452T73 473Q73 485 81 496T109 507H365V741Q365 759 376 767T400 775Q411 775 423 767T435 741V507H692Q711 507 719 496T728 473Q728 463 720
452T692 441H435V206Q435 188 423 181T400 173Z" />
<glyph unicode="," glyph-name="comma" horiz-adv-x="323" d="M95 -124Q71 -124 71 -105Q71 -89 92 -88Q151 -85 151 -36Q151 -24 139 -18Q129 -13 114 1T99 46Q99 75 120 90T169 105Q192 105 214 87T237 31Q237 -20 199 -72T95 -124Z" />
<glyph unicode="-" glyph-name="hyphen" horiz-adv-x="603" d="M122 444Q108 444 102 456T95 480Q95 493 101 505T122 518H481Q495 518 501 506T508 480Q508 468 502 456T481 444H122Z" />
<glyph unicode="." glyph-name="period" horiz-adv-x="312" d="M157 -10Q128 -10 111 7T93 52Q93 81 110 99T157 117Q184 117 203 99T223 52Q223 24 204 7T157 -10Z" />
<glyph unicode="/" glyph-name="slash" horiz-adv-x="602" d="M86 -53Q64 -53 57 -41T49 -17Q48 -6 52 3T61 25L471 1118Q478 1141 487 1158T520 1176Q541 1176 547 1165T553 1141Q553 1131 550 1120T543 1098L131 4Q120 -19 112 -36T86 -53Z" />
<glyph unicode="0" glyph-name="zero" horiz-adv-x="1060" d="M530 -21Q349 -21 255 51T126 253T92 557Q92 731 126 861T254 1063T530 1135Q712 1135 806 1063T934 861T968 557Q968 383 934 253T806 51T530 -21ZM530 45Q676 45 754 100T862 269T892 557Q892 731
863 844T755 1013T530 1069Q386 1069 308 1014T199 845T168 557Q168 383 198 270T307 101T530 45Z" />
<glyph unicode="1" glyph-name="one" horiz-adv-x="452" d="M280 0Q251 0 246 22T241 70V1044H87Q67 1044 46 1046T24 1073Q24 1104 46 1109T85 1114H278Q307 1114 310 1091T313 1044V70Q313 44 310 22T280 0Z" />
<glyph unicode="2" glyph-name="two" horiz-adv-x="925" d="M119 -2Q75 -2 75 34Q75 117 125 177T254 285T422 379T590 477T720 598T770 761Q770 925 675 995T433 1065Q350 1065 279 1049T155 1015Q140 1010 129 1010Q93 1010 93 1036Q93 1062 148 1084T282 1120T433
1134Q640 1134 742 1034T844 757Q844 659 798 586T679 457T521 355T358 266T223 176T152 70H774Q797 70 808 59T819 34Q819 20 808 9T774 -2H119Z" />
<glyph unicode="3" glyph-name="three" horiz-adv-x="946" d="M445 -21Q366 -21 284 -7T147 30T91 77Q91 88 101 97T127 103Q162 96 200 82T295 57T445 45Q636 45 713 117T791 303Q791 374 761 435T653 533T431 570H289Q271 570 263 580T254 602Q254 614 262 624T289
634H422Q557 634 631 665T733 747T762 857Q762 911 736 960T642 1042T448 1074Q340 1074 276 1059T153 1016Q139 1009 127 1009Q112 1009 104 1018T95 1037Q95 1062 132 1080T225 1111T341 1129T445 1135Q595 1135 679 1095T798 992T833 862Q833 809 813 756T742
663T596 604Q727 582 793 502T859 300Q859 210 817 137T684 22T445 -21Z" />
<glyph unicode="4" glyph-name="four" horiz-adv-x="1058" d="M718 0Q689 0 685 22T681 70V348H173Q118 348 109 370T100 418V1047Q100 1071 105 1092T139 1114Q165 1114 169 1092T173 1047V418H681V1044Q681 1070 685 1092T718 1114Q744 1114 748 1092T753 1044V418H972Q1005
418 1024 414T1044 381Q1044 359 1020 353T962 347Q947 347 931 347T898 348H753V70Q753 44 749 22T718 0Z" />
<glyph unicode="5" glyph-name="five" horiz-adv-x="869" d="M439 -40Q360 -40 278 -26T141 11T85 58Q85 84 121 84Q141 84 175 73T239 54Q281 44 333 37T439 29Q604 29 667 111T730 328Q730 438 668 487T439 537H189Q161 537 134 543T106 592Q106 602 107 607L147
1024Q149 1048 157 1071T220 1094H658Q678 1094 688 1084T698 1059Q698 1046 688 1036T658 1025H220L180 607H439Q604 607 704 545T804 324Q804 188 759 109T631 -5T439 -40Z" />
<glyph unicode="6" glyph-name="six" horiz-adv-x="1023" d="M512 -20Q358 -20 266 34T134 215T93 557Q93 766 130 893T265 1077T545 1134Q624 1134 706 1120T843 1083T899 1036Q899 1010 863 1010Q843 1010 809 1021T745 1040Q703 1050 651 1057T545 1065Q455
1065 386 1050T268 987T195 842T170 579Q204 596 277 611T499 627Q647 627 747 600T897 502T948 298Q948 217 907 144T770 26T512 -20ZM516 49Q657 49 734 86T841 182T872 306Q872 419 831 472T708 541T499 557Q374 557 297 548T170 526Q170 344 203 240T312 93T516
49Z" />
<glyph unicode="7" glyph-name="seven" horiz-adv-x="707" d="M209 23Q176 23 176 60Q176 73 180 82L599 1044H74Q36 1044 36 1079Q36 1092 45 1103T74 1114H629Q660 1114 671 1099T683 1063Q683 1043 675 1024L251 57Q235 23 209 23Z" />
<glyph unicode="8" glyph-name="eight" horiz-adv-x="1030" d="M515 -21Q357 -21 263 22T128 140T87 307Q87 426 149 502T366 604Q266 618 211 659T135 752T114 850Q114 920 148 985T269 1092T515 1135Q675 1135 761 1093T882 985T916 850Q916 805 895 753T820
659T664 604Q819 578 881 502T943 307Q943 215 902 141T767 23T515 -21ZM515 637Q643 637 715 668T816 748T845 851Q845 903 818 953T720 1036T515 1069Q382 1069 311 1036T212 953T185 851Q185 798 214 749T315 668T515 637ZM515 45Q653 45 732 79T844 174T877
313Q877 380 846 437T737 531T515 567Q373 567 294 531T184 438T153 313Q153 235 186 175T298 80T515 45Z" />
<glyph unicode="9" glyph-name="nine" horiz-adv-x="1023" d="M477 -20Q398 -20 316 -6T179 31T123 78Q123 104 159 104Q179 104 213 93T277 74Q319 64 371 57T477 49Q567 49 636 64T754 127T827 272T852 535Q818 519 745 503T523 487Q375 487 275 514T125 612T74
816Q74 898 115 970T252 1088T510 1134Q665 1134 756 1080T888 899T929 557Q929 348 892 221T757 37T477 -20ZM523 557Q648 557 725 566T852 588Q852 770 819 874T710 1021T506 1065Q366 1065 289 1028T181 932T150 808Q150 695 191 642T315 573T523 557Z" />
<glyph unicode=":" glyph-name="colon" horiz-adv-x="393" d="M197 499Q168 499 151 516T133 561Q133 590 150 608T197 626Q224 626 243 608T263 561Q263 533 244 516T197 499ZM197 142Q168 142 151 159T133 204Q133 233 150 251T197 269Q224 269 243 251T263
204Q263 176 244 159T197 142Z" />
<glyph unicode=";" glyph-name="semicolon" horiz-adv-x="379" d="M187 499Q158 499 141 516T123 561Q123 590 140 608T187 626Q214 626 233 608T253 561Q253 533 234 516T187 499ZM135 35Q111 35 111 54Q111 70 132 71Q191 74 191 123Q191 135 179 141Q169 146
154 160T139 205Q139 234 160 249T209 264Q232 264 254 246T277 190Q277 139 239 87T135 35Z" />
<glyph unicode="&lt;" glyph-name="less" horiz-adv-x="800" d="M651 188Q643 188 631 193L167 425Q143 437 130 447T116 479Q116 501 129 511T167 534L631 766Q641 771 651 771Q666 771 675 760T685 735Q685 714 664 703L217 479L664 256Q685 246 685 223Q685
210 676 199T651 188Z" />
<glyph unicode="=" glyph-name="equal" horiz-adv-x="800" d="M159 536Q140 536 132 547T123 568Q123 580 131 591T159 602H642Q661 602 669 591T678 568Q678 558 670 547T642 536H159ZM159 366Q140 366 132 377T123 398Q123 410 131 421T159 432H642Q661 432
669 421T678 398Q678 388 670 377T642 366H159Z" />
<glyph unicode="&gt;" glyph-name="greater" horiz-adv-x="800" d="M150 188Q135 188 126 199T116 223Q116 246 137 256L584 479L137 703Q116 714 116 735Q116 749 125 760T150 771Q160 771 170 766L634 534Q658 522 671 512T685 479Q685 458 672 448T634 425L170
193Q158 188 150 188Z" />
<glyph unicode="?" glyph-name="question" horiz-adv-x="888" d="M262 194Q233 194 228 214T223 262V512Q223 524 231 534T258 544Q420 544 520 565T672 623T743 705T762 801Q762 879 733 939T628 1032T414 1066Q326 1066 252 1050T122 1016Q107 1011 96 1011Q60
1011 60 1037Q60 1056 93 1073T181 1105T296 1127T414 1135Q572 1135 662 1092T790 974T828 807Q828 750 813 693T745 589T585 513T295 480V264Q295 235 291 215T262 194ZM261 -10Q235 -10 219 5T203 46Q203 72 219 88T261 105Q286 105 303 89T321 46Q321 21 304
6T261 -10Z" />
<glyph unicode="@" glyph-name="at" horiz-adv-x="1334" d="M721 -119Q381 -119 227 33T73 457Q73 627 150 756T372 958T723 1031Q990 1031 1129 914T1268 573Q1268 365 1210 241T1038 116Q983 116 952 149T921 253Q888 213 820 173T634 132Q521 132 453 173T355
281T325 424Q325 562 386 645T540 764T724 801Q821 801 874 777T950 730Q955 755 962 768T985 781Q1002 781 1012 768T1023 718Q1023 710 1022 680T1016 570T998 331Q997 318 996 300T994 262Q994 230 1003 203T1043 176Q1111 176 1151 281T1192 575Q1192 770 1074
871T723 972Q543 972 415 907T219 727T150 457Q150 296 206 180T387 2T723 -60Q827 -60 905 -40T1037 5Q1046 9 1054 9Q1078 9 1078 -15Q1078 -38 1055 -48Q999 -73 918 -96T721 -119ZM639 198Q739 198 808 236T904 302L923 321L945 686Q906 703 851 719T730 735Q651
735 576 703T453 604T404 433Q404 315 460 257T639 198Z" />
<glyph unicode="A" glyph-name="A" horiz-adv-x="1349" d="M92 -10Q63 -10 60 16T71 68L622 1063Q638 1092 647 1103T674 1114Q688 1114 699 1104T726 1063L1278 67Q1289 48 1289 28Q1289 -10 1255 -10Q1242 -10 1228 -1T1200 34L1030 342H318L146 30Q125 -10
92 -10ZM347 401H1001L674 998L347 401Z" />
<glyph unicode="B" glyph-name="B" horiz-adv-x="1408" d="M194 0Q160 0 160 35V1077Q160 1114 199 1114H657Q765 1114 866 1108T1046 1077T1172 995T1219 836Q1219 755 1189 707T1115 634T1028 602T959 594Q1040 586 1113 561T1232 480T1278 326Q1278 191 1211
121T1028 25T770 0H194ZM245 619H718Q862 619 954 636T1090 699T1134 836Q1134 904 1101 951T973 1023T694 1048H245V619ZM245 66H808Q943 66 1021 87T1136 146T1183 229T1193 326Q1193 464 1065 514T718 564H245V66Z" />
<glyph unicode="C" glyph-name="C" horiz-adv-x="1489" d="M873 -21Q501 -21 312 112T123 557Q123 868 312 1001T873 1135Q1002 1135 1125 1112T1373 1036Q1403 1023 1403 998Q1403 968 1371 968Q1364 968 1352 973Q1237 1021 1113 1045T873 1069Q517 1069 363
948T208 557Q208 288 362 167T873 45Q989 45 1113 69T1352 141Q1364 145 1370 145Q1404 145 1404 115Q1404 91 1373 78Q1248 26 1125 3T873 -21Z" />
<glyph unicode="D" glyph-name="D" horiz-adv-x="1670" d="M199 0Q170 0 165 4T160 35V1077Q160 1106 165 1110T201 1114H887Q1105 1114 1251 1062T1472 889T1547 559Q1547 346 1473 224T1252 51T887 0H199ZM245 66H887Q1104 66 1229 116T1408 276T1462 559Q1462
731 1409 839T1230 997T887 1048H245V66Z" />
<glyph unicode="E" glyph-name="E" horiz-adv-x="1302" d="M187 0Q168 0 165 6T161 35V1067Q161 1096 165 1105T198 1114H1111Q1140 1114 1162 1111T1185 1079Q1185 1054 1163 1051T1111 1048H246V610H1106Q1128 610 1143 604T1158 578Q1158 556 1146 549T1113
542H246V66H1113Q1142 66 1164 63T1187 35Q1187 6 1169 4T1121 0H187Z" />
<glyph unicode="F" glyph-name="F" horiz-adv-x="1239" d="M205 0Q176 0 169 20T161 68V1077Q161 1106 165 1110T198 1114H1176Q1202 1114 1220 1110T1239 1079Q1239 1056 1222 1052T1176 1048H246V594H1033Q1062 594 1080 590T1099 563Q1099 537 1079 533T1033
528H246V70Q246 41 238 21T205 0Z" />
<glyph unicode="G" glyph-name="G" horiz-adv-x="1623" d="M873 -21Q501 -21 312 112T123 557Q123 868 312 1001T873 1135Q1002 1135 1125 1112T1373 1036Q1403 1023 1403 998Q1403 968 1371 968Q1364 968 1352 973Q1237 1021 1113 1045T873 1069Q517 1069 363
948T208 557Q208 288 362 167T873 45Q1021 45 1161 65T1437 118V536H927Q903 536 880 540T856 571Q856 597 879 601T927 606H1437Q1479 606 1494 590T1509 536V118Q1509 87 1486 71T1437 49Q1289 20 1150 0T873 -21Z" />
<glyph unicode="H" glyph-name="H" horiz-adv-x="1373" d="M205 0Q174 0 167 22T159 70V1044Q159 1070 167 1092T207 1114Q229 1114 236 1092T244 1044V606H1129V1044Q1129 1070 1135 1092T1171 1114Q1201 1114 1207 1092T1214 1044V70Q1214 44 1208 22T1172 0Q1142
0 1136 22T1129 70V544H244V70Q244 45 236 23T205 0Z" />
<glyph unicode="I" glyph-name="I" horiz-adv-x="1031" d="M116 0Q92 0 68 3T43 35Q43 60 66 63T116 66H473V1048H116Q90 1048 67 1051T43 1079Q43 1108 67 1111T116 1114H915Q944 1114 965 1111T987 1081Q987 1054 966 1051T915 1048H558V66H915Q944 66 965 63T987
33Q987 6 966 3T915 0H116Z" />
<glyph unicode="J" glyph-name="J" horiz-adv-x="1057" d="M467 -20Q354 -20 259 -1T99 69T7 214Q1 231 5 254T37 277Q50 277 63 268T80 240Q101 149 163 109T307 59T467 49Q609 49 683 111T785 295T813 594V1044Q813 1073 821 1093T858 1114Q884 1114 891 1091T898
1044V594Q898 386 860 250T728 47T467 -20Z" />
<glyph unicode="K" glyph-name="K" horiz-adv-x="1229" d="M204 0Q175 0 168 20T160 68V1048Q160 1077 168 1095T206 1114Q230 1114 238 1095T246 1050V524L1047 1099Q1067 1114 1087 1114Q1120 1114 1120 1082Q1120 1060 1098 1044L516 621L1099 77Q1119 59 1119
37Q1119 22 1109 11T1084 0Q1068 0 1051 15L453 580L246 444V70Q246 41 237 21T204 0Z" />
<glyph unicode="L" glyph-name="L" horiz-adv-x="1145" d="M201 0Q170 0 165 5T160 37V1049Q160 1075 169 1094T207 1114Q231 1114 238 1094T245 1049V66H1104Q1124 66 1134 56T1145 33Q1145 20 1135 10T1104 0H201Z" />
<glyph unicode="M" glyph-name="M" horiz-adv-x="1768" d="M202 0Q173 0 166 20T159 70V1060Q159 1083 171 1098T203 1114Q235 1114 264 1071L884 139L1504 1071Q1532 1114 1565 1114Q1584 1114 1596 1099T1609 1060V70Q1609 41 1602 21T1566 0Q1541 0 1533 20T1524
70V958L933 86Q909 52 884 52Q857 52 835 86L244 958V70Q244 41 236 21T202 0Z" />
<glyph unicode="N" glyph-name="N" horiz-adv-x="1527" d="M204 0Q175 0 168 20T160 70V1049Q160 1111 201 1111Q226 1111 259 1081L1282 128V1038Q1282 1067 1288 1090T1325 1114Q1351 1114 1359 1092T1367 1038V64Q1367 0 1333 0Q1310 0 1276 31L245 986V70Q245
41 237 21T204 0Z" />
<glyph unicode="O" glyph-name="O" horiz-adv-x="1715" d="M857 -21Q477 -21 300 122T123 557Q123 849 300 992T857 1135Q1237 1135 1414 992T1592 557Q1592 265 1415 122T857 -21ZM857 45Q1185 45 1346 161T1507 557Q1507 836 1346 952T857 1069Q529 1069 369
953T208 557Q208 278 368 162T857 45Z" />
<glyph unicode="P" glyph-name="P" horiz-adv-x="1187" d="M206 0Q177 0 169 22T160 76V1077Q160 1106 171 1110T211 1114H543Q680 1114 792 1101T985 1046T1110 927T1154 717Q1154 581 1106 506T972 397T777 356T543 348H245V76Q245 47 238 24T206 0ZM245 410H543Q725
410 841 428T1013 512T1069 717Q1069 856 1013 927T841 1023T543 1048H245V410Z" />
<glyph unicode="Q" glyph-name="Q" horiz-adv-x="1715" d="M1045 -209Q1023 -209 1016 -191T1004 -150L977 -17Q949 -18 919 -19T857 -21Q477 -21 300 122T123 557Q123 849 300 992T857 1135Q1237 1135 1414 992T1592 557Q1592 305 1461 164T1049 -10L1074 -133Q1076
-145 1078 -156T1080 -176Q1080 -209 1045 -209ZM857 45Q912 45 963 48L951 109Q949 120 947 130T945 150Q945 164 952 175T981 187Q1002 187 1009 169T1021 126L1035 54Q1273 82 1390 200T1507 557Q1507 836 1346 952T857 1069Q529 1069 369 953T208 557Q208 278
368 162T857 45Z" />
<glyph unicode="R" glyph-name="R" horiz-adv-x="1256" d="M208 0Q179 0 170 22T161 76V1077Q161 1106 165 1110T198 1114H488Q628 1114 746 1107T954 1068T1092 966T1141 768Q1141 677 1103 618T1003 524T866 475T718 456L1086 69Q1103 52 1103 33Q1103 0 1069
0Q1059 0 1046 5T1021 24L620 452H246V76Q246 47 239 24T208 0ZM246 518H621Q737 518 836 534T995 604T1056 768Q1056 901 991 959T800 1033T488 1048H246V518Z" />
<glyph unicode="S" glyph-name="S" horiz-adv-x="1540" d="M829 -20Q687 -20 549 -2T304 42T149 90Q122 103 122 129Q122 158 148 158Q155 158 162 155Q214 134 323 109T569 65T844 46Q977 46 1090 70T1273 153T1342 311Q1342 390 1290 434T1150 501T953 532T726
545T500 561T302 598T162 676T110 815Q110 911 161 973T300 1071T495 1121T716 1135Q840 1135 957 1121T1167 1083T1311 1036Q1327 1029 1327 1009Q1327 995 1318 983T1291 971Q1281 971 1274 975Q1169 1019 1020 1044T720 1069Q582 1069 462 1047T269 971T195
821Q195 752 247 714T387 658T584 632T811 618T1037 597T1235 552T1375 463T1427 311Q1427 215 1378 151T1243 50T1051 -4T829 -20Z" />
<glyph unicode="T" glyph-name="T" horiz-adv-x="1343" d="M674 0Q648 0 640 22T631 74V1048H92Q64 1048 41 1050T18 1077Q18 1106 42 1110T92 1114H1253Q1282 1114 1303 1110T1325 1077Q1325 1052 1304 1050T1253 1048H716V74Q716 45 710 23T674 0Z" />
<glyph unicode="U" glyph-name="U" horiz-adv-x="1586" d="M794 -21Q467 -21 304 113T141 560V1044Q141 1070 149 1092T186 1114Q211 1114 218 1092T226 1044V560Q226 386 277 272T452 101T794 45Q1012 45 1135 101T1309 271T1360 560V1044Q1360 1070 1368 1092T1401
1114Q1430 1114 1437 1092T1445 1044V560Q1445 247 1283 113T794 -21Z" />
<glyph unicode="V" glyph-name="V" horiz-adv-x="1427" d="M713 0Q683 0 662 35L77 1029Q69 1043 64 1055T58 1080Q58 1088 66 1100T91 1113Q108 1111 119 1097T142 1064L714 90L1285 1064Q1296 1083 1308 1097T1334 1113Q1353 1113 1361 1101T1369 1078Q1369
1067 1363 1055T1348 1029L765 35Q745 0 713 0Z" />
<glyph unicode="W" glyph-name="W" horiz-adv-x="1792" d="M514 0Q494 0 485 15T467 53L115 1032Q110 1046 106 1058T101 1081Q101 1092 109 1103T137 1114Q156 1114 166 1097T183 1059L514 125L848 1059Q856 1079 865 1096T893 1114Q916 1114 925 1099T944 1059L1276
125L1610 1059Q1618 1079 1628 1096T1655 1114Q1675 1114 1682 1103T1690 1081Q1690 1070 1687 1058T1678 1032L1325 53Q1314 30 1305 15T1276 0Q1256 0 1247 15T1229 53L895 981L563 53Q555 30 544 15T514 0Z" />
<glyph unicode="X" glyph-name="X" horiz-adv-x="1435" d="M161 0Q133 0 133 27Q133 50 158 74L665 547L167 1042Q149 1060 149 1079Q149 1113 181 1113Q201 1113 221 1093L717 596L1213 1093Q1233 1113 1253 1113Q1284 1113 1284 1079Q1284 1059 1267 1042L769
547L1276 75Q1300 52 1300 28Q1300 0 1273 0Q1251 0 1226 24L717 498L208 23Q184 0 161 0Z" />
<glyph unicode="Y" glyph-name="Y" horiz-adv-x="1165" d="M586 0Q557 0 549 20T541 67V473L67 1040Q50 1060 50 1080Q50 1114 83 1114Q105 1114 126 1089L583 535L1040 1089Q1060 1113 1082 1113Q1115 1113 1115 1077Q1115 1060 1098 1040L626 471V69Q626 40
619 20T586 0Z" />
<glyph unicode="Z" glyph-name="Z" horiz-adv-x="1335" d="M120 0Q83 0 65 4T47 36Q47 52 55 63T79 88L1163 1048H120Q97 1048 86 1058T75 1081Q75 1093 86 1103T120 1114H1208Q1243 1114 1266 1109T1290 1079Q1290 1065 1279 1052T1257 1026L172 66H1212Q1235
66 1247 56T1259 33Q1259 20 1247 10T1212 0H120Z" />
<glyph unicode="[" glyph-name="bracketleft" horiz-adv-x="391" d="M154 -209Q124 -209 120 -189T115 -139V1253Q115 1282 120 1302T156 1323H261Q290 1323 311 1319T332 1290Q332 1261 311 1257T261 1253H187V-139Q210 -139 229 -139T265 -138Q297 -138 314
-144T332 -174Q332 -197 311 -203T261 -209H154Z" />
<glyph unicode="\" glyph-name="backslash" horiz-adv-x="644" d="M561 -63Q543 -63 533 -47T514 -10L62 1092Q47 1123 47 1141Q47 1152 55 1163T84 1174Q102 1174 110 1156T129 1118L582 16Q590 -1 593 -13T596 -33Q596 -44 588 -53T561 -63Z" />
<glyph unicode="]" glyph-name="bracketright" horiz-adv-x="390" d="M130 -209Q104 -209 81 -203T58 -174Q58 -142 98 -141T204 -139V1253H130Q104 1253 81 1257T58 1290Q58 1315 81 1319T130 1323H234Q265 1323 270 1303T275 1253V-139Q275 -168 271 -188T236
-209H130Z" />
<glyph unicode="^" glyph-name="asciicircum" horiz-adv-x="619" d="M70 954Q56 954 48 965T39 987Q39 1000 62 1026L263 1255Q276 1269 288 1278T313 1288Q327 1288 340 1279T365 1255L551 1038Q562 1025 571 1014T580 989Q580 981 572 968T547 954Q535 954 523
966T494 997L312 1204L136 1006Q117 985 104 970T70 954Z" />
<glyph unicode="_" glyph-name="underscore" horiz-adv-x="1511" d="M160 184Q140 184 132 197T123 228Q123 245 131 258T160 272H1350Q1370 272 1379 259T1388 228Q1388 211 1379 198T1350 184H160Z" />
<glyph unicode="`" glyph-name="grave" horiz-adv-x="376" d="M334 909Q326 909 319 914L37 1154Q22 1166 22 1182Q22 1204 38 1222T76 1240Q90 1240 101 1229L353 953Q361 945 361 935Q361 909 334 909Z" />
<glyph unicode="a" glyph-name="a" horiz-adv-x="1191" d="M502 -10Q400 -10 317 13T184 88T134 224Q134 322 187 377T330 454T532 477Q660 477 779 463T963 421Q963 554 917 619T786 706T587 728Q431 728 353 710T227 676Q221 674 219 674Q207 674 197 686T187
712Q187 725 199 731Q216 739 314 762T616 786Q739 786 836 757T988 642T1044 388V70Q1044 47 1038 24T1003 0Q980 0 972 21T963 74V130Q934 100 879 68T732 13T502 -10ZM494 49Q691 49 802 93T963 178V379Q866 393 757 405T540 418Q386 418 300 378T214 224Q214
129 293 89T494 49Z" />
<glyph unicode="b" glyph-name="b" horiz-adv-x="1255" d="M689 -10Q527 -10 417 25T239 97V73Q239 44 233 22T198 0Q169 0 164 22T159 73V1065Q159 1097 172 1105T201 1114Q216 1114 227 1106T239 1065V587Q256 651 308 690T429 750T568 778T689 786Q809 786
909 751T1071 632T1132 396Q1132 172 1017 81T689 -10ZM689 49Q881 49 966 131T1052 396Q1052 522 1003 594T872 697T689 727Q629 726 559 718T422 687T307 626T239 524V140Q325 108 437 79T689 49Z" />
<glyph unicode="c" glyph-name="c" horiz-adv-x="1132" d="M628 -10Q477 -10 363 24T184 143T120 385Q120 540 179 627T353 750T628 786Q716 786 810 769T992 706Q1013 695 1013 675Q1013 649 985 649Q976 649 964 654Q932 670 877 687T757 715T628 727Q399 727
300 648T200 385Q200 201 306 125T627 49Q691 49 756 60T877 89T964 122Q976 127 985 127Q1013 127 1013 101Q1013 81 992 70Q905 25 811 8T628 -10Z" />
<glyph unicode="d" glyph-name="d" horiz-adv-x="1255" d="M566 -10Q446 -10 346 25T184 145T123 380Q123 604 238 695T566 786Q706 786 796 765T938 715T1016 659V1043Q1016 1070 1021 1092T1055 1114Q1084 1114 1090 1094T1096 1045V54Q1096 22 1084 11T1057
0Q1040 0 1028 10T1016 52V191Q1000 127 948 87T826 26T687 -2T566 -10ZM566 49Q626 49 696 57T833 88T948 149T1016 252V612Q986 637 932 663T789 708T566 727Q374 727 289 645T203 380Q203 254 252 182T383 79T566 49Z" />
<glyph unicode="e" glyph-name="e" horiz-adv-x="1130" d="M593 -11Q343 -11 232 93T121 385Q121 540 184 627T357 750T600 786Q808 786 911 707T1015 479Q1015 452 1007 416T991 379L201 389Q205 192 303 120T592 48Q704 48 779 68T901 114T970 155Q973 157 978
157Q989 157 998 147T1008 124Q1008 113 998 106Q987 95 942 67T811 14T593 -11ZM202 438H956V485Q956 552 922 606T810 694T600 727Q415 727 313 663T202 438Z" />
<glyph unicode="f" glyph-name="f" horiz-adv-x="689" d="M224 0Q210 0 197 8T184 49V703H96Q68 703 68 727Q68 751 96 751H185V816Q185 978 248 1041T419 1105Q479 1105 530 1098T655 1066Q686 1055 686 1035Q686 1028 678 1019T655 1010Q645 1010 636 1014Q582
1033 532 1040T433 1047Q381 1047 343 1030T285 964T264 816V751H629Q659 751 659 727Q659 703 629 703H264V49Q264 17 253 9T224 0Z" />
<glyph unicode="g" glyph-name="g" horiz-adv-x="1239" d="M621 -340Q476 -340 392 -315T254 -265Q234 -255 225 -241T215 -214Q215 -188 241 -188Q253 -188 268 -196Q322 -221 408 -245T621 -270Q785 -270 892 -211T1000 -23V96Q914 36 808 13T602 -10Q449 -10
342 24T178 146T121 394Q121 543 182 628T354 750T611 786Q759 786 840 754T955 677T1000 594Q1000 612 999 635T997 682Q997 716 1003 741T1032 766Q1061 766 1070 743T1080 696V-23Q1080 -181 961 -260T621 -340ZM606 49Q710 49 814 72T1000 150V524Q990 562
955 607T842 684T619 717Q411 717 306 643T201 383Q201 260 239 187T367 82T606 49Z" />
<glyph unicode="h" glyph-name="h" horiz-adv-x="1198" d="M201 0Q173 0 166 23T159 72V1044Q159 1068 166 1091T201 1114Q225 1114 232 1092T239 1044V594Q256 654 304 692T417 750T547 778T664 786Q808 786 892 752T1014 637T1051 418V72Q1051 46 1044 23T1013
0Q984 0 978 23T971 72V418Q971 522 948 590T858 693T664 727Q587 727 497 709T335 647T239 524V72Q239 46 232 23T201 0Z" />
<glyph unicode="i" glyph-name="i" horiz-adv-x="312" d="M156 0Q128 0 122 17T116 63V705Q116 734 122 754T156 775Q181 775 188 754T196 707V63Q196 37 191 19T156 0ZM411 940Q385 940 369 955T353 996Q353 1022 369 1038T411 1055Q436 1055 453 1039T471 996Q471
971 454 956T411 940Z" />
<glyph unicode="j" glyph-name="j" horiz-adv-x="483" d="M66 -266Q40 -266 20 -262T0 -231Q0 -205 20 -201T66 -197Q149 -197 193 -172T255 -104T276 -10T279 94V714Q279 740 286 757T320 775Q349 775 354 758T359 714V94Q359 42 353 -20T321 -138T234 -230T66
-266ZM319 940Q293 940 277 955T261 996Q261 1022 277 1038T319 1055Q344 1055 361 1039T379 996Q379 971 362 956T319 940Z" />
<glyph unicode="k" glyph-name="k" horiz-adv-x="999" d="M200 0Q187 0 174 10T160 44V1070Q160 1090 174 1100T202 1110Q216 1110 228 1100T240 1070V410L866 774Q872 777 879 777Q892 777 900 767T909 746Q909 733 892 722L453 461L904 59Q917 47 917 30Q917
0 885 0Q868 0 851 16L392 430L240 345V44Q240 21 227 11T200 0Z" />
<glyph unicode="l" glyph-name="l" horiz-adv-x="399" d="M201 0Q172 0 166 20T160 68V1042Q160 1071 166 1092T203 1114Q228 1114 234 1092T240 1044V70Q240 41 233 21T201 0Z" />
<glyph unicode="m" glyph-name="m" horiz-adv-x="1630" d="M204 0Q190 0 175 7T159 52V717Q159 749 173 757T200 766Q217 766 227 758T238 717V594Q270 685 370 735T601 786Q703 786 753 752T823 674T848 599Q872 641 918 684T1038 756T1213 786Q1350 786 1416
715T1483 489V52Q1483 17 1470 9T1444 0Q1429 0 1416 7T1403 52V489Q1403 628 1357 677T1215 727Q1087 727 1003 675T862 532V52Q862 17 849 9T824 0Q810 0 796 7T782 52V532Q782 623 740 675T603 727Q462 727 363 668T239 528V52Q239 17 228 9T204 0Z" />
<glyph unicode="n" glyph-name="n" horiz-adv-x="1192" d="M202 0Q174 0 167 23T159 72V720Q159 737 166 751T201 766Q226 766 232 753T239 720V610Q295 688 368 725T518 774T663 786Q806 786 889 752T1009 637T1045 418V72Q1045 46 1037 23T1004 0Q975 0 970
23T965 72V418Q965 522 942 590T854 693T660 727Q582 727 494 709T334 647T239 524V72Q239 46 233 23T202 0Z" />
<glyph unicode="o" glyph-name="o" horiz-adv-x="1240" d="M620 -10Q436 -10 327 38T171 174T123 385Q123 597 243 691T620 786Q876 786 996 692T1117 385Q1117 263 1070 175T913 38T620 -10ZM620 49Q756 49 839 78T964 156T1022 264T1037 385Q1037 571 938 649T620
727Q401 727 302 649T203 385Q203 324 218 265T275 156T401 78T620 49Z" />
<glyph unicode="p" glyph-name="p" horiz-adv-x="1255" d="M198 -337Q169 -337 164 -314T159 -261V717Q159 749 171 757T197 766Q214 766 224 758T234 717V585Q252 649 305 688T427 749T566 778T689 786Q809 786 909 751T1071 632T1132 396Q1132 172 1017 81T689
-10Q527 -10 416 25T237 97V-267Q237 -293 232 -315T198 -337ZM689 49Q881 49 966 131T1052 396Q1052 522 1003 594T872 697T689 727Q629 726 559 718T422 687T307 626T239 524V140Q325 108 437 79T689 49Z" />
<glyph unicode="q" glyph-name="q" horiz-adv-x="1197" d="M1055 -338Q1026 -338 1021 -316T1016 -267V117Q991 91 939 61T796 11T566 -10Q354 -10 239 81T123 396Q123 547 184 631T345 751T566 786Q619 786 688 778T825 749T946 689T1016 585V714Q1016 746 1029
756T1059 766Q1073 766 1084 755T1096 712V-269Q1096 -298 1090 -318T1055 -338ZM566 49Q700 49 788 67T930 112T1016 164V524Q998 587 949 626T833 687T697 717T566 727Q466 727 384 697T252 595T203 396Q203 214 288 132T566 49Z" />
<glyph unicode="r" glyph-name="r" horiz-adv-x="809" d="M199 0Q171 0 165 22T158 70V710Q158 733 166 749T203 766Q225 766 231 750T238 710V594Q260 676 319 717T449 772T571 786Q648 786 684 778T748 762Q769 756 769 732Q769 719 761 708T735 697Q731 697
730 697T723 699Q684 710 648 716T571 722Q453 722 362 676T238 530V70Q238 44 231 22T199 0Z" />
<glyph unicode="s" glyph-name="s" horiz-adv-x="1182" d="M617 -10Q546 -10 460 -5T294 21T155 87Q141 98 141 113Q141 145 167 145Q175 145 179 141Q263 83 372 66T607 49Q707 49 795 63T937 112T992 209Q992 270 945 300T820 341T649 354T463 360T292 381T167
440T119 557Q119 649 182 698T345 767T550 786Q678 786 793 764T1004 692Q1020 683 1022 664Q1022 651 1014 641T996 631Q990 631 988 633Q903 676 794 701T554 727Q464 727 383 712T250 659T199 557Q199 499 246 472T371 434T542 422T729 415T899 391T1024 330T1072
209Q1072 127 1008 80T839 11T617 -10Z" />
<glyph unicode="t" glyph-name="t" horiz-adv-x="714" d="M440 -10Q332 -10 259 53T185 279V703H97Q69 703 69 727Q69 751 97 751H185V1000Q185 1032 198 1040T225 1049Q242 1049 253 1041T265 1000V751H597Q627 751 627 727Q627 703 597 703H265V279Q265 182
290 133T359 66T454 49Q502 49 548 66T654 115Q666 121 677 121Q705 121 705 95Q705 75 683 63Q599 17 549 4T440 -10Z" />
<glyph unicode="u" glyph-name="u" horiz-adv-x="1178" d="M545 -10Q331 -10 239 74T147 348V694Q147 720 154 743T187 766Q216 766 221 743T227 694V348Q227 237 253 172T349 78T545 49Q685 49 783 92T939 178V694Q939 720 944 743T976 766Q1006 766 1012 743T1019
694V70Q1019 44 1012 22T981 0Q956 0 948 16T939 70V141Q911 108 861 73T734 14T545 -10Z" />
<glyph unicode="v" glyph-name="v" horiz-adv-x="1024" d="M512 -10Q491 -10 479 4T461 29L71 695Q61 711 61 730Q61 766 95 766Q121 766 139 735L512 73L885 735Q903 766 929 766Q943 766 953 757T963 730Q963 714 953 695L563 29Q556 18 544 4T512 -10Z" />
<glyph unicode="w" glyph-name="w" horiz-adv-x="1356" d="M404 -5Q366 -5 346 49L110 698Q106 707 106 720Q106 741 118 753T147 766Q177 766 192 726L404 90L616 712Q634 766 677 766Q696 766 713 753T740 712L952 90L1164 726Q1179 766 1209 766Q1225 766 1237
754T1250 720Q1250 707 1246 698L1010 49Q990 -5 952 -5Q915 -5 897 49L678 674L459 49Q440 -5 404 -5Z" />
<glyph unicode="x" glyph-name="x" horiz-adv-x="1139" d="M177 -3Q146 -3 146 28Q146 48 169 70L516 387L165 698Q145 715 145 735Q145 766 178 766Q200 766 219 748L570 436L921 748Q942 766 961 766Q994 766 994 735Q994 716 975 698L624 387L971 70Q993 49
993 27Q993 -3 963 -3Q942 -3 921 17L570 337L219 17Q198 -3 177 -3Z" />
<glyph unicode="y" glyph-name="y" horiz-adv-x="1170" d="M587 -334Q475 -334 408 -319T303 -282T238 -240Q230 -233 230 -221Q230 -188 261 -188Q269 -188 278 -194Q316 -222 384 -248T587 -275Q725 -275 803 -234T913 -95T946 170Q930 109 884 73T776 19T651
-4T536 -10Q393 -10 308 26T185 150T147 387V694Q147 720 153 743T186 766Q215 766 221 743T227 694V387Q227 257 251 183T342 79T536 49Q613 49 699 64T855 121T946 240V694Q946 720 953 743T984 766Q1013 766 1019 743T1026 694V203Q1026 -2 982 -119T841 -285T587
-334Z" />
<glyph unicode="z" glyph-name="z" horiz-adv-x="1032" d="M151 0Q134 0 122 10T109 40Q109 66 135 89L830 709H173Q144 709 122 711T100 735Q100 761 121 763T171 766H875Q902 766 913 754T925 728Q925 703 901 682L201 57H865Q894 57 916 55T938 26Q938 5 916
3T867 0H151Z" />
<glyph unicode="{" glyph-name="braceleft" horiz-adv-x="605" d="M566 23Q453 23 394 60T309 160T278 296T268 445T247 581T183 680T42 718Q25 718 17 728T9 750Q9 762 17 772T42 782Q136 782 183 819T247 919T267 1055T277 1204T309 1340T394 1439T566 1477Q583
1477 591 1467T599 1444Q599 1413 566 1413H549Q472 1413 431 1379T371 1287T347 1161T336 1022T314 893T261 795T151 750Q223 744 260 706T314 607T335 478T346 339T371 213T430 121T549 86Q568 86 583 83T599 56Q599 43 591 33T566 23Z" />
<glyph unicode="|" glyph-name="bar" horiz-adv-x="304" d="M153 -133Q124 -133 120 -113T116 -66V1225Q116 1254 120 1275T153 1296Q179 1296 183 1275T188 1227V-63Q188 -92 184 -112T153 -133Z" />
<glyph unicode="}" glyph-name="braceright" horiz-adv-x="605" d="M40 23Q23 23 15 33T7 56Q7 79 22 82T57 86Q134 86 175 120T235 212T259 339T271 477T292 607T345 705T455 750Q383 756 346 794T292 892T271 1022T259 1161T235 1287T176 1378T57 1413H40Q7
1413 7 1444Q7 1456 15 1466T40 1477Q153 1477 212 1440T297 1340T328 1204T338 1056T359 919T423 820T564 782Q581 782 589 772T597 750Q597 738 589 728T564 718Q470 718 423 681T359 581T339 445T329 296T297 160T213 61T40 23Z" />
<glyph unicode="~" glyph-name="asciitilde" horiz-adv-x="800" d="M549 403Q493 403 454 434T384 507T322 580T249 612Q214 612 188 580T161 451Q161 433 149 426T126 418Q114 418 103 425T91 451Q91 549 116 599T178 666T249 684Q305 684 344 653T414 580T476
507T549 475Q586 475 612 507T639 636Q639 654 651 661T674 669Q686 669 697 662T709 636Q709 537 683 487T620 420T549 403Z" />
<glyph unicode="&#xa0;" glyph-name="uni00A0" horiz-adv-x="460" />
<glyph unicode="&#xa1;" glyph-name="exclamdown" horiz-adv-x="328" d="M166 995Q140 995 124 1011T108 1054Q108 1079 124 1094T166 1110Q191 1110 208 1095T226 1054Q226 1028 209 1012T166 995ZM164 -10Q143 -10 126 0T108 35Q108 35 108 43T110 88T115 212T124
452T140 850Q142 879 164 879Q187 879 189 850L221 37Q221 13 204 2T164 -10Z" />
<glyph unicode="&#xa2;" glyph-name="cent" horiz-adv-x="1132" d="M623 -133Q594 -133 590 -113T586 -66V-9Q446 -5 341 31T178 152T120 385Q120 533 174 619T333 743T586 785V879Q586 908 590 929T623 950Q649 950 653 929T658 881V785Q740 783 826 765T992
706Q1013 695 1013 675Q1013 649 985 649Q976 649 964 654Q920 676 834 699T658 726V49Q747 54 833 77T964 122Q976 127 985 127Q1013 127 1013 101Q1013 81 992 70Q913 29 827 11T658 -9V-63Q658 -92 654 -112T623 -133ZM586 49V726Q380 719 290 639T200 385Q200
210 296 133T586 49Z" />
<glyph unicode="&#xa3;" glyph-name="sterling" horiz-adv-x="987" d="M232 -10Q144 -10 103 21T61 90Q61 128 102 160T232 192Q279 192 319 186T396 170V179Q396 186 393 211T380 308T344 521H134Q111 521 101 532T90 556Q90 570 100 581T134 592H334L315 753Q313
770 312 786T311 817Q311 930 354 1000T468 1102T624 1135Q680 1135 746 1122T878 1060Q896 1047 896 1025Q896 1006 877 1000T835 1010Q776 1048 719 1059T621 1070Q530 1070 460 1012T389 816Q389 792 392 763L411 592H703Q732 592 752 588T773 557Q773 531 754
526T703 521H421Q443 388 454 321T468 227T472 183Q472 165 469 148Q548 122 633 97T842 71Q874 71 893 65T912 36Q912 9 893 5T844 0Q702 0 611 27T444 83Q412 34 353 12T232 -10ZM229 54Q339 54 376 106Q342 117 308 123T232 129Q180 129 158 117T135 91Q135
77 156 66T229 54Z" />
<glyph unicode="&#xa4;" glyph-name="currency" horiz-adv-x="958" d="M125 379L108 385Q92 398 92 410Q103 427 113 436T135 457L188 508Q96 615 96 748Q96 814 118 876T188 987Q178 994 155 1014T112 1055T92 1087L98 1102Q103 1107 108 1112T125 1118L141 1112L231
1028Q336 1116 479 1116Q622 1116 727 1028Q734 1035 756 1057T801 1098T835 1118Q837 1117 851 1109T866 1087L860 1071L770 987Q818 938 840 876T862 748Q862 692 844 634T788 530L770 508Q775 506 777 503T786 494Q810 476 838 449T866 410L860 395L848 385Q842
379 835 379L817 385L727 469Q622 381 479 381Q336 381 231 469L215 453Q195 433 164 406T125 379ZM480 454Q564 454 632 494T740 601T781 748Q781 828 741 894T633 1001T480 1041Q396 1041 328 1002T219 897T178 748Q178 668 219 601T329 494T480 454Z" />
<glyph unicode="&#xa5;" glyph-name="yen" horiz-adv-x="1165" d="M586 0Q557 0 549 20T541 67V438H278Q254 438 254 467Q254 496 278 496H522L454 577H280Q256 577 256 606Q256 635 280 635H405L67 1040Q50 1060 50 1080Q50 1114 83 1114Q105 1114 126 1089L583
535L1040 1089Q1060 1113 1082 1113Q1115 1113 1115 1077Q1115 1060 1098 1040L761 635H885Q910 635 910 606Q910 577 885 577H713L646 496H883Q908 496 908 467Q908 438 883 438H626V69Q626 40 619 20T586 0Z" />
<glyph unicode="&#xa6;" glyph-name="brokenbar" horiz-adv-x="307" d="M156 625Q127 625 122 645T117 692V1225Q117 1254 122 1275T156 1296Q181 1296 185 1275T189 1227V694Q189 665 185 645T156 625ZM156 -127Q127 -127 122 -107T117 -59V473Q117 502 122 523T156
545Q181 545 185 523T189 475V-57Q189 -86 185 -106T156 -127Z" />
<glyph unicode="&#xa7;" glyph-name="section" horiz-adv-x="1108" d="M579 -10Q508 -10 422 -5T256 21T117 87Q103 98 103 113Q103 145 129 145Q137 145 141 141Q225 83 334 66T569 49Q669 49 757 63T899 112T954 209Q954 270 907 300T782 341T611 354T425 360T254
381T129 440T81 557Q81 634 128 679T250 748Q175 766 128 806T81 922Q81 1014 144 1063T307 1132T512 1151Q640 1151 755 1129T966 1057Q982 1048 984 1029Q984 1016 976 1006T958 996Q952 996 950 998Q865 1041 756 1066T516 1092Q426 1092 345 1077T212 1024T161
922Q161 864 208 837T333 799T504 787T691 780T861 756T986 695T1034 574Q1034 502 984 459T853 392Q933 374 983 332T1034 209Q1034 127 970 80T801 11T579 -10ZM597 419Q691 419 772 433T904 482T954 574Q954 644 891 675T729 713T521 721Q430 721 348 707T213
658T161 557Q161 489 224 460T388 425T597 419Z" />
<glyph unicode="&#xa8;" glyph-name="dieresis" horiz-adv-x="723" d="M564 940Q538 940 522 955T506 996Q506 1022 522 1038T564 1055Q589 1055 606 1039T624 996Q624 971 607 956T564 940ZM165 940Q139 940 123 955T107 996Q107 1022 123 1038T165 1055Q190
1055 207 1039T225 996Q225 971 208 956T165 940Z" />
<glyph unicode="&#xa9;" glyph-name="copyright" horiz-adv-x="1181" d="M590 92Q462 92 344 144T151 299T75 556Q75 710 150 813T344 968T590 1020Q719 1020 837 968T1030 813T1106 556Q1106 403 1031 300T837 144T590 92ZM594 153Q706 153 808 198T975 333T1040
556Q1040 690 975 779T808 914T594 959Q482 959 380 914T213 780T148 556Q148 423 213 333T380 198T594 153ZM581 241Q495 241 419 273T296 375T248 556Q248 667 295 736T419 838T581 871Q645 871 708 855T827 806Q841 798 841 782Q841 770 833 760T813 750Q804
750 800 754Q705 811 586 811Q517 811 456 786T355 704T316 556Q316 464 355 408T455 327T586 301Q705 301 800 358Q804 362 813 362Q824 362 832 352T841 330Q841 314 827 306Q772 274 709 258T581 241Z" />
<glyph unicode="&#xaa;" glyph-name="ordfeminine" horiz-adv-x="1191" d="M552 326Q436 326 341 349T190 424T134 560Q134 658 187 713T330 790T532 813Q660 813 779 796T963 745Q963 881 917 949T798 1040T639 1063Q516 1063 437 1055T310 1036T227 1012Q221
1010 219 1010Q207 1010 197 1022T187 1048Q187 1061 199 1067Q216 1075 319 1098T640 1122Q717 1122 789 1106T918 1045T1010 916T1044 694V406Q1044 383 1038 360T1003 336Q980 336 972 357T963 410V479Q937 446 888 411T757 351T552 326ZM544 385Q720 385 819
429T963 514V715Q866 729 757 741T540 754Q386 754 300 714T214 560Q214 465 307 425T544 385ZM322 176Q306 176 298 185T290 205Q290 215 298 224T322 234H843Q860 234 867 225T875 205Q875 195 868 186T843 176H322Z" />
<glyph unicode="&#xab;" glyph-name="guillemotleft" horiz-adv-x="646" d="M524 37Q509 37 497 49L256 301Q239 318 239 335Q240 341 243 349T256 367L497 619Q509 631 524 631Q539 631 550 621T562 596Q562 582 551 571L313 334L551 97Q563 85 563 72Q563 58
551 48T524 37ZM325 37Q310 37 298 49L57 301Q40 318 40 335Q41 341 44 349T57 367L298 619Q310 631 325 631Q340 631 351 621T363 596Q363 582 352 571L114 334L352 97Q364 85 364 72Q364 58 352 48T325 37Z" />
<glyph unicode="&#xac;" glyph-name="logicalnot" horiz-adv-x="800" d="M610 300Q598 300 588 307T578 332V449H188Q171 449 164 459T157 481Q157 494 164 504T188 514H616Q643 514 643 491V332Q643 314 633 307T610 300Z" />
<glyph unicode="&#xae;" glyph-name="registered" horiz-adv-x="1181" d="M590 92Q462 92 344 144T151 299T75 556Q75 710 150 813T344 968T590 1020Q719 1020 837 968T1030 813T1106 556Q1106 403 1031 300T837 144T590 92ZM594 153Q706 153 808 198T975 333T1040
556Q1040 690 975 779T808 914T594 959Q482 959 380 914T213 780T148 556Q148 423 213 333T380 198T594 153ZM396 252Q384 252 374 261T363 290V830Q363 865 396 865H527Q628 865 709 858T839 810T887 674Q887 604 850 565T763 511T674 495L837 304Q844 296 844
285Q844 273 835 264T811 254Q796 254 785 268L601 493H430V290Q430 271 420 262T396 252ZM430 542H601Q657 542 706 547T787 580T819 674Q819 748 785 777T685 810T527 815H430V542Z" />
<glyph unicode="&#xaf;" glyph-name="overscore" horiz-adv-x="677" d="M167 925Q149 925 142 936T135 956Q135 965 142 977T167 990H509Q527 990 534 978T541 956Q541 948 534 937T509 925H167Z" />
<glyph unicode="&#xb0;" glyph-name="degree" horiz-adv-x="367" d="M184 885Q137 885 102 917T66 997Q66 1045 100 1077T184 1110Q232 1110 266 1078T301 997Q301 949 267 917T184 885ZM184 932Q212 932 232 951T252 997Q252 1024 232 1042T184 1061Q156 1061
137 1043T117 997Q117 971 136 952T184 932Z" />
<glyph unicode="&#xb1;" glyph-name="plusminus" horiz-adv-x="800" d="M400 413Q388 413 377 420T365 446V621H109Q90 621 82 632T73 653Q73 665 81 676T109 687H365V861Q365 879 376 887T400 895Q411 895 423 887T435 861V687H692Q711 687 719 676T728 653Q728
643 720 632T692 621H435V446Q435 428 423 421T400 413ZM109 231Q90 231 82 242T73 263Q73 275 81 286T109 297H692Q711 297 719 286T728 263Q728 253 720 242T692 231H109Z" />
<glyph unicode="&#xb2;" glyph-name="uni00B2" horiz-adv-x="925" d="M198 333Q178 333 170 358T162 406Q162 458 200 496T300 564T430 622Q505 653 575 688T691 770T737 884Q737 982 673 1016T526 1051Q446 1051 369 1030T247 994Q238 991 230 991Q213 991 203
1001T193 1024Q193 1048 224 1058Q287 1078 365 1096T524 1114Q599 1114 665 1093T772 1021T813 879Q813 793 759 735T625 637T464 563Q376 527 310 492T243 405H749Q772 405 783 394T794 369Q794 355 783 344T749 333H198Z" />
<glyph unicode="&#xb3;" glyph-name="uni00B3" horiz-adv-x="946" d="M465 319Q333 319 263 350T193 403Q193 414 203 425T228 436Q235 436 249 430Q293 410 344 398T465 386Q559 386 612 409T687 466T710 535Q710 609 650 656T440 704H379Q361 704 353 714T344
736Q344 747 352 757T379 768H440Q578 768 632 817T687 924Q687 972 644 1013T475 1054Q365 1054 308 1031T244 1004Q233 996 221 996Q208 996 200 1007T192 1032Q192 1055 269 1085T465 1116Q627 1116 693 1059T759 930Q759 874 725 821T584 738Q703 707 743 655T784
531Q784 479 753 430T651 350T465 319Z" />
<glyph unicode="&#xb4;" glyph-name="acute" horiz-adv-x="376" d="M42 907Q15 907 15 933Q15 943 23 951L275 1227Q286 1238 300 1238Q322 1238 338 1220T354 1180Q354 1164 339 1152L57 912Q50 907 42 907Z" />
<glyph unicode="&#xb5;" glyph-name="uni00B5" horiz-adv-x="1178" d="M187 -333Q161 -333 154 -310T147 -261V694Q147 720 154 743T187 766Q216 766 221 743T227 694V348Q227 237 253 172T349 78T545 49Q685 49 783 92T939 178V694Q939 720 944 743T976 766Q1006
766 1012 743T1019 694V70Q1019 44 1012 22T981 0Q953 0 946 18T939 61V141Q911 108 861 73T734 14T545 -10Q441 -10 367 9T227 98V-261Q227 -287 222 -310T187 -333Z" />
<glyph unicode="&#xb6;" glyph-name="paragraph" horiz-adv-x="816" d="M443 0Q419 0 412 23T404 76V542Q291 542 214 583T97 689T57 825Q57 896 97 962T218 1071T423 1114H654Q674 1114 681 1108T688 1077V76Q688 45 680 23T642 0Q618 0 611 23T603 76V1021H489V76Q489
45 481 23T443 0Z" />
<glyph unicode="&#xb7;" glyph-name="middot" horiz-adv-x="312" d="M157 944Q128 944 111 961T93 1006Q93 1035 110 1053T157 1071Q184 1071 203 1053T223 1006Q223 978 204 961T157 944Z" />
<glyph unicode="&#xb8;" glyph-name="cedilla" horiz-adv-x="266" d="M49 -324Q32 -324 21 -314T10 -289Q10 -277 20 -262L210 10Q223 29 236 29Q254 29 254 7Q254 -1 250 -8L93 -289Q81 -310 71 -317T49 -324Z" />
<glyph unicode="&#xb9;" glyph-name="uni00B9" horiz-adv-x="452" d="M298 333Q269 333 264 355T259 403V1039H105Q85 1039 64 1041T42 1068Q42 1099 64 1104T103 1109H296Q325 1109 328 1086T331 1039V403Q331 377 328 355T298 333Z" />
<glyph unicode="&#xba;" glyph-name="ordmasculine" d="M563 323Q379 323 270 371T114 507T66 718Q66 930 186 1024T563 1119Q819 1119 939 1025T1060 718Q1060 596 1013 508T856 371T563 323ZM563 382Q699 382 782 411T907 489T965 597T980 718Q980 904 881 982T563
1060Q344 1060 245 982T146 718Q146 657 161 598T218 489T344 411T563 382ZM303 176Q287 176 279 185T271 205Q271 215 279 224T303 234H824Q841 234 848 225T856 205Q856 195 849 186T824 176H303Z" />
<glyph unicode="&#xbb;" glyph-name="guillemotright" horiz-adv-x="647" d="M320 37Q305 37 293 47T281 72Q281 85 293 97L531 334L293 571Q282 582 282 596Q282 610 293 620T320 631Q335 631 347 619L588 367Q597 358 600 350T605 335Q605 318 588 301L347 49Q335
37 320 37ZM121 37Q106 37 94 47T82 72Q82 85 94 97L332 334L94 571Q83 582 83 596Q83 610 94 620T121 631Q136 631 148 619L389 367Q398 358 401 350T406 335Q406 318 389 301L148 49Q136 37 121 37Z" />
<glyph unicode="&#xbc;" glyph-name="onequarter" horiz-adv-x="1626" d="M298 333Q269 333 264 355T259 403V1039H105Q85 1039 64 1041T42 1068Q42 1099 64 1104T103 1109H296Q325 1109 328 1086T331 1039V403Q331 377 328 355T298 333ZM370 -54Q348 -54 341
-42T333 -18Q333 -7 337 2T345 24L755 1117Q763 1140 772 1157T804 1175Q825 1175 831 1164T837 1140Q837 1130 834 1119T827 1097L415 3Q406 -21 397 -37T370 -54ZM1286 0Q1257 0 1253 22T1249 70V288H877Q822 288 813 310T804 358V709Q804 733 809 754T843 776Q869
776 873 754T877 709V358H1249V706Q1249 732 1253 754T1286 776Q1312 776 1316 754T1321 706V358H1490Q1523 358 1542 354T1562 321Q1562 300 1544 294T1491 288H1321V70Q1321 44 1317 22T1286 0Z" />
<glyph unicode="&#xbd;" glyph-name="onehalf" horiz-adv-x="1612" d="M298 333Q269 333 264 355T259 403V1039H105Q85 1039 64 1041T42 1068Q42 1099 64 1104T103 1109H296Q325 1109 328 1086T331 1039V403Q331 377 328 355T298 333ZM419 -54Q397 -54 390 -42T382
-18Q382 -7 386 2T394 24L804 1117Q812 1140 821 1157T853 1175Q874 1175 880 1164T886 1140Q886 1130 883 1119T876 1097L464 3Q455 -21 446 -37T419 -54ZM885 0Q865 0 857 25T849 73Q849 125 887 163T987 231T1117 289Q1192 320 1262 355T1378 437T1424 551Q1424
649 1360 683T1213 718Q1133 718 1056 697T934 661Q925 658 917 658Q900 658 890 668T880 691Q880 715 911 725Q974 745 1052 763T1211 781Q1286 781 1352 760T1459 688T1500 546Q1500 460 1446 402T1312 304T1151 230Q1063 194 997 159T930 72H1436Q1459 72 1470
61T1481 36Q1481 22 1470 11T1436 0H885Z" />
<glyph unicode="&#xbe;" glyph-name="threequarters" horiz-adv-x="2076" d="M631 319Q499 319 429 350T359 403Q359 414 369 425T394 436Q401 436 415 430Q459 410 510 398T631 386Q725 386 778 409T853 466T876 535Q876 609 816 656T606 704H545Q527 704 519
714T510 736Q510 747 518 757T545 768H606Q744 768 798 817T853 924Q853 972 810 1013T641 1054Q531 1054 474 1031T410 1004Q399 996 387 996Q374 996 366 1007T358 1032Q358 1055 435 1085T631 1116Q793 1116 859 1059T925 930Q925 874 891 821T750 738Q869 707
909 655T950 531Q950 479 919 430T817 350T631 319ZM790 -54Q768 -54 761 -42T753 -18Q753 -7 757 2T765 24L1175 1117Q1183 1140 1192 1157T1224 1175Q1245 1175 1251 1164T1257 1140Q1257 1130 1254 1119T1247 1097L835 3Q826 -21 817 -37T790 -54ZM1736 0Q1707
0 1703 22T1699 70V288H1327Q1272 288 1263 310T1254 358V709Q1254 733 1259 754T1293 776Q1319 776 1323 754T1327 709V358H1699V706Q1699 732 1703 754T1736 776Q1762 776 1766 754T1771 706V358H1940Q1973 358 1992 354T2012 321Q2012 300 1994 294T1941 288H1771V70Q1771
44 1767 22T1736 0Z" />
<glyph unicode="&#xbf;" glyph-name="questiondown" horiz-adv-x="888" d="M626 1020Q601 1020 584 1036T566 1079Q566 1104 583 1119T626 1135Q652 1135 668 1120T684 1079Q684 1053 668 1037T626 1020ZM473 -10Q316 -10 226 33T97 151T59 318Q59 375 74 432T142
536T302 612T592 645V861Q592 890 596 910T625 931Q654 931 659 911T664 863V613Q664 601 656 591T629 581Q467 581 367 560T215 502T144 420T125 324Q125 246 154 187T259 93T473 59Q561 59 635 75T765 109Q780 114 791 114Q827 114 827 88Q827 69 794 52T706
20T591 -2T473 -10Z" />
<glyph unicode="&#xc0;" glyph-name="Agrave" horiz-adv-x="1349" d="M92 -10Q63 -10 60 16T71 68L622 1063Q638 1092 647 1103T674 1114Q688 1114 699 1104T726 1063L1278 67Q1289 48 1289 28Q1289 -10 1255 -10Q1242 -10 1228 -1T1200 34L1030 342H318L146 30Q125
-10 92 -10ZM347 401H1001L674 998L347 401ZM753 1257Q745 1257 738 1262L456 1502Q441 1514 441 1530Q441 1552 457 1570T495 1588Q509 1588 520 1577L772 1301Q780 1293 780 1283Q780 1257 753 1257Z" />
<glyph unicode="&#xc1;" glyph-name="Aacute" horiz-adv-x="1349" d="M92 -10Q63 -10 60 16T71 68L622 1063Q638 1092 647 1103T674 1114Q688 1114 699 1104T726 1063L1278 67Q1289 48 1289 28Q1289 -10 1255 -10Q1242 -10 1228 -1T1200 34L1030 342H318L146 30Q125
-10 92 -10ZM347 401H1001L674 998L347 401ZM597 1255Q570 1255 570 1281Q570 1291 578 1299L830 1575Q841 1586 855 1586Q877 1586 893 1568T909 1528Q909 1512 894 1500L612 1260Q605 1255 597 1255Z" />
<glyph unicode="&#xc2;" glyph-name="Acircumflex" horiz-adv-x="1349" d="M92 -10Q63 -10 60 16T71 68L622 1063Q638 1092 647 1103T674 1114Q688 1114 699 1104T726 1063L1278 67Q1289 48 1289 28Q1289 -10 1255 -10Q1242 -10 1228 -1T1200 34L1030 342H318L146
30Q125 -10 92 -10ZM347 401H1001L674 998L347 401ZM514 1256Q497 1256 486 1268T486 1298L622 1522Q646 1560 675 1560Q704 1560 728 1522L863 1298Q874 1280 863 1268T835 1256Q802 1256 781 1297L675 1505L568 1297Q546 1256 514 1256Z" />
<glyph unicode="&#xc3;" glyph-name="Atilde" horiz-adv-x="1349" d="M92 -10Q63 -10 60 16T71 68L622 1063Q638 1092 647 1103T674 1114Q688 1114 699 1104T726 1063L1278 67Q1289 48 1289 28Q1289 -10 1255 -10Q1242 -10 1228 -1T1200 34L1030 342H318L146 30Q125
-10 92 -10ZM347 401H1001L674 998L347 401ZM478 1256Q456 1256 450 1271T444 1302Q444 1345 466 1374T543 1403Q598 1403 642 1381T725 1337T806 1314Q821 1314 831 1322T842 1358Q842 1376 848 1389T871 1403Q893 1403 899 1389T905 1357Q905 1314 883 1285T806
1256Q769 1256 717 1278T617 1323T543 1345Q528 1345 518 1337T507 1301Q507 1283 501 1270T478 1256Z" />
<glyph unicode="&#xc4;" glyph-name="Adieresis" horiz-adv-x="1349" d="M92 -10Q63 -10 60 16T71 68L622 1063Q638 1092 647 1103T674 1114Q688 1114 699 1104T726 1063L1278 67Q1289 48 1289 28Q1289 -10 1255 -10Q1242 -10 1228 -1T1200 34L1030 342H318L146
30Q125 -10 92 -10ZM347 401H1001L674 998L347 401ZM873 1288Q847 1288 831 1303T815 1344Q815 1370 831 1386T873 1403Q898 1403 915 1387T933 1344Q933 1319 916 1304T873 1288ZM474 1288Q448 1288 432 1303T416 1344Q416 1370 432 1386T474 1403Q499 1403 516
1387T534 1344Q534 1319 517 1304T474 1288Z" />
<glyph unicode="&#xc5;" glyph-name="Aring" horiz-adv-x="1349" d="M92 -10Q63 -10 60 16T71 68L622 1063Q638 1092 647 1103T674 1114Q688 1114 699 1104T726 1063L1278 67Q1289 48 1289 28Q1289 -10 1255 -10Q1242 -10 1228 -1T1200 34L1030 342H318L146 30Q125
-10 92 -10ZM347 401H1001L674 998L347 401ZM675 1257Q628 1257 593 1289T557 1369Q557 1417 591 1449T675 1482Q723 1482 757 1450T792 1369Q792 1321 758 1289T675 1257ZM675 1307Q701 1307 719 1325T737 1369Q737 1396 719 1413T675 1430Q650 1430 632 1413T614
1369Q614 1343 632 1325T675 1307Z" />
<glyph unicode="&#xc6;" glyph-name="AE" horiz-adv-x="1446" d="M42 -10Q21 -10 15 1T9 20Q9 33 15 45T30 71L578 1065Q589 1084 598 1098T619 1114H1276Q1305 1114 1327 1111T1350 1079Q1350 1054 1328 1051T1276 1048H712V604H1258Q1287 604 1305 600T1323
572Q1323 548 1304 542T1258 536H712V66H1278Q1307 66 1329 63T1352 35Q1352 6 1330 3T1278 0H666Q637 0 632 4T627 35V338H265L105 43Q88 11 73 1T42 -10ZM290 397H627V1014L290 397Z" />
<glyph unicode="&#xc7;" glyph-name="Ccedilla" horiz-adv-x="1489" d="M873 -21Q501 -21 312 112T123 557Q123 868 312 1001T873 1135Q1002 1135 1125 1112T1373 1036Q1403 1023 1403 998Q1403 968 1371 968Q1364 968 1352 973Q1237 1021 1113 1045T873 1069Q517
1069 363 948T208 557Q208 288 362 167T873 45Q989 45 1113 69T1352 141Q1364 145 1370 145Q1404 145 1404 115Q1404 91 1373 78Q1248 26 1125 3T873 -21ZM683 -324Q666 -324 655 -314T644 -289Q644 -277 654 -262L844 10Q857 29 870 29Q888 29 888 7Q888 -1 884
-8L727 -289Q715 -310 705 -317T683 -324Z" />
<glyph unicode="&#xc8;" glyph-name="Egrave" horiz-adv-x="1302" d="M187 0Q168 0 165 6T161 35V1067Q161 1096 165 1105T198 1114H1111Q1140 1114 1162 1111T1185 1079Q1185 1054 1163 1051T1111 1048H246V610H1106Q1128 610 1143 604T1158 578Q1158 556 1146
549T1113 542H246V66H1113Q1142 66 1164 63T1187 35Q1187 6 1169 4T1121 0H187ZM729 1257Q721 1257 714 1262L432 1502Q417 1514 417 1530Q417 1552 433 1570T471 1588Q485 1588 496 1577L748 1301Q756 1293 756 1283Q756 1257 729 1257Z" />
<glyph unicode="&#xc9;" glyph-name="Eacute" horiz-adv-x="1302" d="M187 0Q168 0 165 6T161 35V1067Q161 1096 165 1105T198 1114H1111Q1140 1114 1162 1111T1185 1079Q1185 1054 1163 1051T1111 1048H246V610H1106Q1128 610 1143 604T1158 578Q1158 556 1146
549T1113 542H246V66H1113Q1142 66 1164 63T1187 35Q1187 6 1169 4T1121 0H187ZM573 1255Q546 1255 546 1281Q546 1291 554 1299L806 1575Q817 1586 831 1586Q853 1586 869 1568T885 1528Q885 1512 870 1500L588 1260Q581 1255 573 1255Z" />
<glyph unicode="&#xca;" glyph-name="Ecircumflex" horiz-adv-x="1302" d="M187 0Q168 0 165 6T161 35V1067Q161 1096 165 1105T198 1114H1111Q1140 1114 1162 1111T1185 1079Q1185 1054 1163 1051T1111 1048H246V610H1106Q1128 610 1143 604T1158 578Q1158 556
1146 549T1113 542H246V66H1113Q1142 66 1164 63T1187 35Q1187 6 1169 4T1121 0H187ZM490 1256Q473 1256 462 1268T462 1298L598 1522Q622 1560 651 1560Q680 1560 704 1522L839 1298Q850 1280 839 1268T811 1256Q778 1256 757 1297L651 1505L544 1297Q522 1256
490 1256Z" />
<glyph unicode="&#xcb;" glyph-name="Edieresis" horiz-adv-x="1302" d="M187 0Q168 0 165 6T161 35V1067Q161 1096 165 1105T198 1114H1111Q1140 1114 1162 1111T1185 1079Q1185 1054 1163 1051T1111 1048H246V610H1106Q1128 610 1143 604T1158 578Q1158 556
1146 549T1113 542H246V66H1113Q1142 66 1164 63T1187 35Q1187 6 1169 4T1121 0H187ZM849 1288Q823 1288 807 1303T791 1344Q791 1370 807 1386T849 1403Q874 1403 891 1387T909 1344Q909 1319 892 1304T849 1288ZM450 1288Q424 1288 408 1303T392 1344Q392 1370
408 1386T450 1403Q475 1403 492 1387T510 1344Q510 1319 493 1304T450 1288Z" />
<glyph unicode="&#xcc;" glyph-name="Igrave" horiz-adv-x="1031" d="M116 0Q92 0 68 3T43 35Q43 60 66 63T116 66H473V1048H116Q90 1048 67 1051T43 1079Q43 1108 67 1111T116 1114H915Q944 1114 965 1111T987 1081Q987 1054 966 1051T915 1048H558V66H915Q944
66 965 63T987 33Q987 6 966 3T915 0H116ZM594 1257Q586 1257 579 1262L297 1502Q282 1514 282 1530Q282 1552 298 1570T336 1588Q350 1588 361 1577L613 1301Q621 1293 621 1283Q621 1257 594 1257Z" />
<glyph unicode="&#xcd;" glyph-name="Iacute" horiz-adv-x="1031" d="M116 0Q92 0 68 3T43 35Q43 60 66 63T116 66H473V1048H116Q90 1048 67 1051T43 1079Q43 1108 67 1111T116 1114H915Q944 1114 965 1111T987 1081Q987 1054 966 1051T915 1048H558V66H915Q944
66 965 63T987 33Q987 6 966 3T915 0H116ZM438 1255Q411 1255 411 1281Q411 1291 419 1299L671 1575Q682 1586 696 1586Q718 1586 734 1568T750 1528Q750 1512 735 1500L453 1260Q446 1255 438 1255Z" />
<glyph unicode="&#xce;" glyph-name="Icircumflex" horiz-adv-x="1031" d="M116 0Q92 0 68 3T43 35Q43 60 66 63T116 66H473V1048H116Q90 1048 67 1051T43 1079Q43 1108 67 1111T116 1114H915Q944 1114 965 1111T987 1081Q987 1054 966 1051T915 1048H558V66H915Q944
66 965 63T987 33Q987 6 966 3T915 0H116ZM355 1256Q338 1256 327 1268T327 1298L463 1522Q487 1560 516 1560Q545 1560 569 1522L704 1298Q715 1280 704 1268T676 1256Q643 1256 622 1297L516 1505L409 1297Q387 1256 355 1256Z" />
<glyph unicode="&#xcf;" glyph-name="Idieresis" horiz-adv-x="1031" d="M116 0Q92 0 68 3T43 35Q43 60 66 63T116 66H473V1048H116Q90 1048 67 1051T43 1079Q43 1108 67 1111T116 1114H915Q944 1114 965 1111T987 1081Q987 1054 966 1051T915 1048H558V66H915Q944
66 965 63T987 33Q987 6 966 3T915 0H116ZM714 1288Q688 1288 672 1303T656 1344Q656 1370 672 1386T714 1403Q739 1403 756 1387T774 1344Q774 1319 757 1304T714 1288ZM315 1288Q289 1288 273 1303T257 1344Q257 1370 273 1386T315 1403Q340 1403 357 1387T375
1344Q375 1319 358 1304T315 1288Z" />
<glyph unicode="&#xd0;" glyph-name="Eth" horiz-adv-x="1650" d="M179 0Q150 0 145 4T140 35V540H50Q36 540 30 552T23 576Q23 589 29 601T50 614H140V1077Q140 1103 146 1108T181 1114H867Q1085 1114 1231 1062T1452 889T1527 559Q1527 346 1453 224T1232 51T867
0H179ZM225 66H867Q1084 66 1209 116T1388 276T1442 559Q1442 731 1389 839T1210 997T867 1048H225V614H509Q523 614 529 602T536 576Q536 564 530 552T509 540H225V66Z" />
<glyph unicode="&#xd1;" glyph-name="Ntilde" horiz-adv-x="1527" d="M204 0Q175 0 168 20T160 70V1049Q160 1111 201 1111Q226 1111 259 1081L1282 128V1038Q1282 1067 1288 1090T1325 1114Q1351 1114 1359 1092T1367 1038V64Q1367 0 1333 0Q1310 0 1276 31L245
986V70Q245 41 237 21T204 0ZM567 1256Q545 1256 539 1271T533 1302Q533 1345 555 1374T632 1403Q687 1403 731 1381T814 1337T895 1314Q910 1314 920 1322T931 1358Q931 1376 937 1389T960 1403Q982 1403 988 1389T994 1357Q994 1314 972 1285T895 1256Q858 1256
806 1278T706 1323T632 1345Q617 1345 607 1337T596 1301Q596 1283 590 1270T567 1256Z" />
<glyph unicode="&#xd2;" glyph-name="Ograve" horiz-adv-x="1715" d="M857 -21Q477 -21 300 122T123 557Q123 849 300 992T857 1135Q1237 1135 1414 992T1592 557Q1592 265 1415 122T857 -21ZM857 45Q1185 45 1346 161T1507 557Q1507 836 1346 952T857 1069Q529
1069 369 953T208 557Q208 278 368 162T857 45ZM936 1257Q928 1257 921 1262L639 1502Q624 1514 624 1530Q624 1552 640 1570T678 1588Q692 1588 703 1577L955 1301Q963 1293 963 1283Q963 1257 936 1257Z" />
<glyph unicode="&#xd3;" glyph-name="Oacute" horiz-adv-x="1715" d="M857 -21Q477 -21 300 122T123 557Q123 849 300 992T857 1135Q1237 1135 1414 992T1592 557Q1592 265 1415 122T857 -21ZM857 45Q1185 45 1346 161T1507 557Q1507 836 1346 952T857 1069Q529
1069 369 953T208 557Q208 278 368 162T857 45ZM780 1255Q753 1255 753 1281Q753 1291 761 1299L1013 1575Q1024 1586 1038 1586Q1060 1586 1076 1568T1092 1528Q1092 1512 1077 1500L795 1260Q788 1255 780 1255Z" />
<glyph unicode="&#xd4;" glyph-name="Ocircumflex" horiz-adv-x="1715" d="M857 -21Q477 -21 300 122T123 557Q123 849 300 992T857 1135Q1237 1135 1414 992T1592 557Q1592 265 1415 122T857 -21ZM857 45Q1185 45 1346 161T1507 557Q1507 836 1346 952T857 1069Q529
1069 369 953T208 557Q208 278 368 162T857 45ZM697 1256Q680 1256 669 1268T669 1298L805 1522Q829 1560 858 1560Q887 1560 911 1522L1046 1298Q1057 1280 1046 1268T1018 1256Q985 1256 964 1297L858 1505L751 1297Q729 1256 697 1256Z" />
<glyph unicode="&#xd5;" glyph-name="Otilde" horiz-adv-x="1715" d="M857 -21Q477 -21 300 122T123 557Q123 849 300 992T857 1135Q1237 1135 1414 992T1592 557Q1592 265 1415 122T857 -21ZM857 45Q1185 45 1346 161T1507 557Q1507 836 1346 952T857 1069Q529
1069 369 953T208 557Q208 278 368 162T857 45ZM661 1256Q639 1256 633 1271T627 1302Q627 1345 649 1374T726 1403Q781 1403 825 1381T908 1337T989 1314Q1004 1314 1014 1322T1025 1358Q1025 1376 1031 1389T1054 1403Q1076 1403 1082 1389T1088 1357Q1088 1314
1066 1285T989 1256Q952 1256 900 1278T800 1323T726 1345Q711 1345 701 1337T690 1301Q690 1283 684 1270T661 1256Z" />
<glyph unicode="&#xd6;" glyph-name="Odieresis" horiz-adv-x="1715" d="M857 -21Q477 -21 300 122T123 557Q123 849 300 992T857 1135Q1237 1135 1414 992T1592 557Q1592 265 1415 122T857 -21ZM857 45Q1185 45 1346 161T1507 557Q1507 836 1346 952T857 1069Q529
1069 369 953T208 557Q208 278 368 162T857 45ZM1056 1288Q1030 1288 1014 1303T998 1344Q998 1370 1014 1386T1056 1403Q1081 1403 1098 1387T1116 1344Q1116 1319 1099 1304T1056 1288ZM657 1288Q631 1288 615 1303T599 1344Q599 1370 615 1386T657 1403Q682
1403 699 1387T717 1344Q717 1319 700 1304T657 1288Z" />
<glyph unicode="&#xd7;" glyph-name="multiply" horiz-adv-x="800" d="M609 250Q597 250 583 261T554 287L400 434L277 315Q260 299 237 276T193 252Q180 252 171 262T161 283Q161 297 172 309T200 338L351 483L195 631Q179 647 169 658T159 682Q159 694 170 704T193
715Q213 715 235 692T275 651L400 532L525 651Q543 668 566 691T607 715Q618 715 630 705T642 682Q642 671 632 658T607 631L453 483L605 338Q619 324 629 311T640 285Q640 274 631 262T609 250Z" />
<glyph unicode="&#xd8;" glyph-name="Oslash" horiz-adv-x="1715" d="M605 -159Q580 -159 574 -145T568 -120Q568 -111 572 -102T580 -81L610 -2Q360 40 242 179T123 557Q123 849 300 992T857 1135Q952 1135 1034 1126L1070 1222Q1078 1245 1087 1262T1119 1280Q1140
1280 1146 1269T1152 1245Q1152 1235 1149 1224T1142 1202L1109 1116Q1357 1073 1474 934T1592 557Q1592 265 1415 122T857 -21Q811 -21 768 -19T684 -13L650 -102Q641 -126 632 -142T605 -159ZM633 61L1010 1062Q974 1066 936 1067T857 1069Q529 1069 369 953T208
557Q208 331 313 214T633 61ZM857 45Q1185 45 1346 161T1507 557Q1507 782 1403 900T1086 1053L708 51Q777 45 857 45Z" />
<glyph unicode="&#xd9;" glyph-name="Ugrave" horiz-adv-x="1586" d="M794 -21Q467 -21 304 113T141 560V1044Q141 1070 149 1092T186 1114Q211 1114 218 1092T226 1044V560Q226 386 277 272T452 101T794 45Q1012 45 1135 101T1309 271T1360 560V1044Q1360 1070
1368 1092T1401 1114Q1430 1114 1437 1092T1445 1044V560Q1445 247 1283 113T794 -21ZM871 1257Q863 1257 856 1262L574 1502Q559 1514 559 1530Q559 1552 575 1570T613 1588Q627 1588 638 1577L890 1301Q898 1293 898 1283Q898 1257 871 1257Z" />
<glyph unicode="&#xda;" glyph-name="Uacute" horiz-adv-x="1586" d="M794 -21Q467 -21 304 113T141 560V1044Q141 1070 149 1092T186 1114Q211 1114 218 1092T226 1044V560Q226 386 277 272T452 101T794 45Q1012 45 1135 101T1309 271T1360 560V1044Q1360 1070
1368 1092T1401 1114Q1430 1114 1437 1092T1445 1044V560Q1445 247 1283 113T794 -21ZM715 1255Q688 1255 688 1281Q688 1291 696 1299L948 1575Q959 1586 973 1586Q995 1586 1011 1568T1027 1528Q1027 1512 1012 1500L730 1260Q723 1255 715 1255Z" />
<glyph unicode="&#xdb;" glyph-name="Ucircumflex" horiz-adv-x="1586" d="M794 -21Q467 -21 304 113T141 560V1044Q141 1070 149 1092T186 1114Q211 1114 218 1092T226 1044V560Q226 386 277 272T452 101T794 45Q1012 45 1135 101T1309 271T1360 560V1044Q1360
1070 1368 1092T1401 1114Q1430 1114 1437 1092T1445 1044V560Q1445 247 1283 113T794 -21ZM632 1256Q615 1256 604 1268T604 1298L740 1522Q764 1560 793 1560Q822 1560 846 1522L981 1298Q992 1280 981 1268T953 1256Q920 1256 899 1297L793 1505L686 1297Q664
1256 632 1256Z" />
<glyph unicode="&#xdc;" glyph-name="Udieresis" horiz-adv-x="1586" d="M794 -21Q467 -21 304 113T141 560V1044Q141 1070 149 1092T186 1114Q211 1114 218 1092T226 1044V560Q226 386 277 272T452 101T794 45Q1012 45 1135 101T1309 271T1360 560V1044Q1360
1070 1368 1092T1401 1114Q1430 1114 1437 1092T1445 1044V560Q1445 247 1283 113T794 -21ZM991 1288Q965 1288 949 1303T933 1344Q933 1370 949 1386T991 1403Q1016 1403 1033 1387T1051 1344Q1051 1319 1034 1304T991 1288ZM592 1288Q566 1288 550 1303T534 1344Q534
1370 550 1386T592 1403Q617 1403 634 1387T652 1344Q652 1319 635 1304T592 1288Z" />
<glyph unicode="&#xdd;" glyph-name="Yacute" horiz-adv-x="1165" d="M586 0Q557 0 549 20T541 67V473L67 1040Q50 1060 50 1080Q50 1114 83 1114Q105 1114 126 1089L583 535L1040 1089Q1060 1113 1082 1113Q1115 1113 1115 1077Q1115 1060 1098 1040L626 471V69Q626
40 619 20T586 0ZM505 1255Q478 1255 478 1281Q478 1291 486 1299L738 1575Q749 1586 763 1586Q785 1586 801 1568T817 1528Q817 1512 802 1500L520 1260Q513 1255 505 1255Z" />
<glyph unicode="&#xde;" glyph-name="Thorn" horiz-adv-x="1030" d="M206 0Q177 0 169 22T160 76V1034Q160 1065 168 1087T206 1110Q230 1110 237 1087T245 1034V894H493Q646 894 743 867T894 794T968 692T989 575Q989 517 969 461T896 361T746 291T493 264H245V76Q245
47 238 24T206 0ZM245 330H493Q628 330 710 350T836 406T894 486T909 576Q909 623 894 668T835 749T709 806T493 828H245V330Z" />
<glyph unicode="&#xdf;" glyph-name="germandbls" horiz-adv-x="1209" d="M198 -73Q169 -73 164 -53T159 -4V752Q159 960 269 1047T624 1135Q817 1135 921 1082T1025 878Q1025 802 976 753T856 675T712 629T591 603T542 586Q542 580 571 580T638 580Q722 580 815
574T988 540T1119 454T1170 288Q1170 214 1149 160T1067 71T890 18T585 0Q562 0 542 6T521 32Q521 56 540 61T589 66Q787 66 897 83T1053 146T1098 280Q1098 364 1057 412T949 483T806 512T658 518H591Q524 518 494 529T464 589Q464 638 546 655Q603 667 672 684T805
726T910 791T951 885Q951 989 867 1026T625 1063Q492 1063 405 1038T274 945T230 752V-4Q230 -33 226 -53T198 -73Z" />
<glyph unicode="&#xe0;" glyph-name="agrave" horiz-adv-x="1191" d="M502 -10Q400 -10 317 13T184 88T134 224Q134 322 187 377T330 454T532 477Q660 477 779 463T963 421Q963 554 917 619T786 706T587 728Q431 728 353 710T227 676Q221 674 219 674Q207 674
197 686T187 712Q187 725 199 731Q216 739 314 762T616 786Q739 786 836 757T988 642T1044 388V70Q1044 47 1038 24T1003 0Q980 0 972 21T963 74V130Q934 100 879 68T732 13T502 -10ZM494 49Q691 49 802 93T963 178V379Q866 393 757 405T540 418Q386 418 300 378T214
224Q214 129 293 89T494 49ZM674 909Q666 909 659 914L377 1154Q362 1166 362 1182Q362 1204 378 1222T416 1240Q430 1240 441 1229L693 953Q701 945 701 935Q701 909 674 909Z" />
<glyph unicode="&#xe1;" glyph-name="aacute" horiz-adv-x="1191" d="M502 -10Q400 -10 317 13T184 88T134 224Q134 322 187 377T330 454T532 477Q660 477 779 463T963 421Q963 554 917 619T786 706T587 728Q431 728 353 710T227 676Q221 674 219 674Q207 674
197 686T187 712Q187 725 199 731Q216 739 314 762T616 786Q739 786 836 757T988 642T1044 388V70Q1044 47 1038 24T1003 0Q980 0 972 21T963 74V130Q934 100 879 68T732 13T502 -10ZM494 49Q691 49 802 93T963 178V379Q866 393 757 405T540 418Q386 418 300 378T214
224Q214 129 293 89T494 49ZM518 907Q491 907 491 933Q491 943 499 951L751 1227Q762 1238 776 1238Q798 1238 814 1220T830 1180Q830 1164 815 1152L533 912Q526 907 518 907Z" />
<glyph unicode="&#xe2;" glyph-name="acircumflex" horiz-adv-x="1191" d="M502 -10Q400 -10 317 13T184 88T134 224Q134 322 187 377T330 454T532 477Q660 477 779 463T963 421Q963 554 917 619T786 706T587 728Q431 728 353 710T227 676Q221 674 219 674Q207
674 197 686T187 712Q187 725 199 731Q216 739 314 762T616 786Q739 786 836 757T988 642T1044 388V70Q1044 47 1038 24T1003 0Q980 0 972 21T963 74V130Q934 100 879 68T732 13T502 -10ZM494 49Q691 49 802 93T963 178V379Q866 393 757 405T540 418Q386 418 300
378T214 224Q214 129 293 89T494 49ZM435 908Q418 908 407 920T407 950L543 1174Q567 1212 596 1212Q625 1212 649 1174L784 950Q795 932 784 920T756 908Q723 908 702 949L596 1157L489 949Q467 908 435 908Z" />
<glyph unicode="&#xe3;" glyph-name="atilde" horiz-adv-x="1191" d="M502 -10Q400 -10 317 13T184 88T134 224Q134 322 187 377T330 454T532 477Q660 477 779 463T963 421Q963 554 917 619T786 706T587 728Q431 728 353 710T227 676Q221 674 219 674Q207 674
197 686T187 712Q187 725 199 731Q216 739 314 762T616 786Q739 786 836 757T988 642T1044 388V70Q1044 47 1038 24T1003 0Q980 0 972 21T963 74V130Q934 100 879 68T732 13T502 -10ZM494 49Q691 49 802 93T963 178V379Q866 393 757 405T540 418Q386 418 300 378T214
224Q214 129 293 89T494 49ZM399 908Q377 908 371 923T365 954Q365 997 387 1026T464 1055Q519 1055 563 1033T646 989T727 966Q742 966 752 974T763 1010Q763 1028 769 1041T792 1055Q814 1055 820 1041T826 1009Q826 966 804 937T727 908Q690 908 638 930T538
975T464 997Q449 997 439 989T428 953Q428 935 422 922T399 908Z" />
<glyph unicode="&#xe4;" glyph-name="adieresis" horiz-adv-x="1191" d="M502 -10Q400 -10 317 13T184 88T134 224Q134 322 187 377T330 454T532 477Q660 477 779 463T963 421Q963 554 917 619T786 706T587 728Q431 728 353 710T227 676Q221 674 219 674Q207 674
197 686T187 712Q187 725 199 731Q216 739 314 762T616 786Q739 786 836 757T988 642T1044 388V70Q1044 47 1038 24T1003 0Q980 0 972 21T963 74V130Q934 100 879 68T732 13T502 -10ZM494 49Q691 49 802 93T963 178V379Q866 393 757 405T540 418Q386 418 300 378T214
224Q214 129 293 89T494 49ZM794 940Q768 940 752 955T736 996Q736 1022 752 1038T794 1055Q819 1055 836 1039T854 996Q854 971 837 956T794 940ZM395 940Q369 940 353 955T337 996Q337 1022 353 1038T395 1055Q420 1055 437 1039T455 996Q455 971 438 956T395
940Z" />
<glyph unicode="&#xe5;" glyph-name="aring" horiz-adv-x="1191" d="M502 -10Q400 -10 317 13T184 88T134 224Q134 322 187 377T330 454T532 477Q660 477 779 463T963 421Q963 554 917 619T786 706T587 728Q431 728 353 710T227 676Q221 674 219 674Q207 674 197
686T187 712Q187 725 199 731Q216 739 314 762T616 786Q739 786 836 757T988 642T1044 388V70Q1044 47 1038 24T1003 0Q980 0 972 21T963 74V130Q934 100 879 68T732 13T502 -10ZM494 49Q691 49 802 93T963 178V379Q866 393 757 405T540 418Q386 418 300 378T214
224Q214 129 293 89T494 49ZM596 909Q549 909 514 941T478 1021Q478 1069 512 1101T596 1134Q644 1134 678 1102T713 1021Q713 973 679 941T596 909ZM596 959Q622 959 640 977T658 1021Q658 1048 640 1065T596 1082Q571 1082 553 1065T535 1021Q535 995 553 977T596
959Z" />
<glyph unicode="&#xe6;" glyph-name="ae" horiz-adv-x="1774" d="M471 -10Q355 -10 259 12T107 85T50 219Q50 317 106 373T255 453T460 477Q589 477 707 450T890 389V647Q854 673 747 700T470 727Q373 727 283 704T157 621Q142 596 122 596Q98 596 98 623Q98 633
106 649Q130 696 188 726T323 771T483 786Q554 786 637 780T797 752T921 681Q984 739 1082 762T1301 786Q1509 786 1612 707T1716 479Q1716 452 1702 416T1672 379H951V137Q992 109 1082 79T1303 49Q1367 49 1432 60T1553 89T1640 122Q1652 127 1661 127Q1689 127
1689 101Q1689 81 1668 70Q1581 25 1487 8T1304 -10Q1170 -10 1074 19T920 100Q861 45 737 18T471 -10ZM951 438H1650Q1650 440 1653 457T1657 485Q1657 552 1623 606T1511 694T1301 727Q1162 727 1077 700T951 648V438ZM463 49Q636 49 737 77T890 137V338Q855
357 788 375T637 405T468 418Q314 418 222 376T130 219Q130 123 224 86T463 49Z" />
<glyph unicode="&#xe7;" glyph-name="ccedilla" horiz-adv-x="1132" d="M628 -10Q477 -10 363 24T184 143T120 385Q120 540 179 627T353 750T628 786Q716 786 810 769T992 706Q1013 695 1013 675Q1013 649 985 649Q976 649 964 654Q932 670 877 687T757 715T628
727Q399 727 300 648T200 385Q200 201 306 125T627 49Q691 49 756 60T877 89T964 122Q976 127 985 127Q1013 127 1013 101Q1013 81 992 70Q905 25 811 8T628 -10ZM481 -324Q464 -324 453 -314T442 -289Q442 -277 452 -262L642 10Q655 29 668 29Q686 29 686 7Q686
-1 682 -8L525 -289Q513 -310 503 -317T481 -324Z" />
<glyph unicode="&#xe8;" glyph-name="egrave" horiz-adv-x="1130" d="M593 -11Q343 -11 232 93T121 385Q121 540 184 627T357 750T600 786Q808 786 911 707T1015 479Q1015 452 1007 416T991 379L201 389Q205 192 303 120T592 48Q704 48 779 68T901 114T970 155Q973
157 978 157Q989 157 998 147T1008 124Q1008 113 998 106Q987 95 942 67T811 14T593 -11ZM202 438H956V485Q956 552 922 606T810 694T600 727Q415 727 313 663T202 438ZM643 909Q635 909 628 914L346 1154Q331 1166 331 1182Q331 1204 347 1222T385 1240Q399 1240
410 1229L662 953Q670 945 670 935Q670 909 643 909Z" />
<glyph unicode="&#xe9;" glyph-name="eacute" horiz-adv-x="1130" d="M593 -11Q343 -11 232 93T121 385Q121 540 184 627T357 750T600 786Q808 786 911 707T1015 479Q1015 452 1007 416T991 379L201 389Q205 192 303 120T592 48Q704 48 779 68T901 114T970 155Q973
157 978 157Q989 157 998 147T1008 124Q1008 113 998 106Q987 95 942 67T811 14T593 -11ZM202 438H956V485Q956 552 922 606T810 694T600 727Q415 727 313 663T202 438ZM487 907Q460 907 460 933Q460 943 468 951L720 1227Q731 1238 745 1238Q767 1238 783 1220T799
1180Q799 1164 784 1152L502 912Q495 907 487 907Z" />
<glyph unicode="&#xea;" glyph-name="ecircumflex" horiz-adv-x="1130" d="M593 -11Q343 -11 232 93T121 385Q121 540 184 627T357 750T600 786Q808 786 911 707T1015 479Q1015 452 1007 416T991 379L201 389Q205 192 303 120T592 48Q704 48 779 68T901 114T970
155Q973 157 978 157Q989 157 998 147T1008 124Q1008 113 998 106Q987 95 942 67T811 14T593 -11ZM202 438H956V485Q956 552 922 606T810 694T600 727Q415 727 313 663T202 438ZM404 908Q387 908 376 920T376 950L512 1174Q536 1212 565 1212Q594 1212 618 1174L753
950Q764 932 753 920T725 908Q692 908 671 949L565 1157L458 949Q436 908 404 908Z" />
<glyph unicode="&#xeb;" glyph-name="edieresis" horiz-adv-x="1130" d="M593 -11Q343 -11 232 93T121 385Q121 540 184 627T357 750T600 786Q808 786 911 707T1015 479Q1015 452 1007 416T991 379L201 389Q205 192 303 120T592 48Q704 48 779 68T901 114T970
155Q973 157 978 157Q989 157 998 147T1008 124Q1008 113 998 106Q987 95 942 67T811 14T593 -11ZM202 438H956V485Q956 552 922 606T810 694T600 727Q415 727 313 663T202 438ZM763 940Q737 940 721 955T705 996Q705 1022 721 1038T763 1055Q788 1055 805 1039T823
996Q823 971 806 956T763 940ZM364 940Q338 940 322 955T306 996Q306 1022 322 1038T364 1055Q389 1055 406 1039T424 996Q424 971 407 956T364 940Z" />
<glyph unicode="&#xec;" glyph-name="igrave" horiz-adv-x="312" d="M156 0Q128 0 122 17T116 63V705Q116 734 122 754T156 775Q181 775 188 754T196 707V63Q196 37 191 19T156 0ZM490 909Q482 909 475 914L193 1154Q178 1166 178 1182Q178 1204 194 1222T232
1240Q246 1240 257 1229L509 953Q517 945 517 935Q517 909 490 909Z" />
<glyph unicode="&#xed;" glyph-name="iacute" horiz-adv-x="312" d="M156 0Q128 0 122 17T116 63V705Q116 734 122 754T156 775Q181 775 188 754T196 707V63Q196 37 191 19T156 0ZM78 907Q51 907 51 933Q51 943 59 951L311 1227Q322 1238 336 1238Q358 1238 374
1220T390 1180Q390 1164 375 1152L93 912Q86 907 78 907Z" />
<glyph unicode="&#xee;" glyph-name="icircumflex" horiz-adv-x="312" d="M156 0Q128 0 122 17T116 63V705Q116 734 122 754T156 775Q181 775 188 754T196 707V63Q196 37 191 19T156 0ZM251 908Q234 908 223 920T223 950L359 1174Q383 1212 412 1212Q441 1212
465 1174L600 950Q611 932 600 920T572 908Q539 908 518 949L412 1157L305 949Q283 908 251 908Z" />
<glyph unicode="&#xef;" glyph-name="idieresis" horiz-adv-x="312" d="M156 0Q128 0 122 17T116 63V705Q116 734 122 754T156 775Q181 775 188 754T196 707V63Q196 37 191 19T156 0ZM274 940Q248 940 232 955T216 996Q216 1022 232 1038T274 1055Q299 1055 316
1039T334 996Q334 971 317 956T274 940ZM35 940Q9 940 -7 955T-23 996Q-23 1022 -7 1038T35 1055Q60 1055 77 1039T95 996Q95 971 78 956T35 940Z" />
<glyph unicode="&#xf0;" glyph-name="eth" horiz-adv-x="1064" d="M545 -20Q384 -20 292 31T161 166T122 343Q122 449 171 522T305 634T496 672Q590 672 694 643T901 553Q901 679 851 779T733 933Q698 906 662 880T591 827Q582 819 573 819Q551 819 551 842Q551
853 563 862Q598 887 631 912T699 962Q641 1008 560 1028T399 1055T264 1061Q251 1061 245 1070T239 1091Q239 1101 244 1109T262 1118Q381 1118 506 1103T756 1004Q795 1033 833 1062T911 1119Q918 1126 927 1126Q949 1126 949 1103Q949 1091 938 1083Q901 1056
864 1029T790 974Q879 901 929 778T979 509Q979 237 876 109T545 -20ZM539 48Q739 48 820 158T901 489Q809 540 701 571T494 603Q371 603 285 540T199 328Q199 260 228 196T331 90T539 48Z" />
<glyph unicode="&#xf1;" glyph-name="ntilde" horiz-adv-x="1192" d="M202 0Q174 0 167 23T159 72V720Q159 737 166 751T201 766Q226 766 232 753T239 720V610Q295 688 368 725T518 774T663 786Q806 786 889 752T1009 637T1045 418V72Q1045 46 1037 23T1004 0Q975
0 970 23T965 72V418Q965 522 942 590T854 693T660 727Q582 727 494 709T334 647T239 524V72Q239 46 233 23T202 0ZM399 908Q377 908 371 923T365 954Q365 997 387 1026T464 1055Q519 1055 563 1033T646 989T727 966Q742 966 752 974T763 1010Q763 1028 769 1041T792
1055Q814 1055 820 1041T826 1009Q826 966 804 937T727 908Q690 908 638 930T538 975T464 997Q449 997 439 989T428 953Q428 935 422 922T399 908Z" />
<glyph unicode="&#xf2;" glyph-name="ograve" horiz-adv-x="1240" d="M620 -10Q436 -10 327 38T171 174T123 385Q123 597 243 691T620 786Q876 786 996 692T1117 385Q1117 263 1070 175T913 38T620 -10ZM620 49Q756 49 839 78T964 156T1022 264T1037 385Q1037
571 938 649T620 727Q401 727 302 649T203 385Q203 324 218 265T275 156T401 78T620 49ZM698 909Q690 909 683 914L401 1154Q386 1166 386 1182Q386 1204 402 1222T440 1240Q454 1240 465 1229L717 953Q725 945 725 935Q725 909 698 909Z" />
<glyph unicode="&#xf3;" glyph-name="oacute" horiz-adv-x="1240" d="M620 -10Q436 -10 327 38T171 174T123 385Q123 597 243 691T620 786Q876 786 996 692T1117 385Q1117 263 1070 175T913 38T620 -10ZM620 49Q756 49 839 78T964 156T1022 264T1037 385Q1037
571 938 649T620 727Q401 727 302 649T203 385Q203 324 218 265T275 156T401 78T620 49ZM542 907Q515 907 515 933Q515 943 523 951L775 1227Q786 1238 800 1238Q822 1238 838 1220T854 1180Q854 1164 839 1152L557 912Q550 907 542 907Z" />
<glyph unicode="&#xf4;" glyph-name="ocircumflex" horiz-adv-x="1240" d="M620 -10Q436 -10 327 38T171 174T123 385Q123 597 243 691T620 786Q876 786 996 692T1117 385Q1117 263 1070 175T913 38T620 -10ZM620 49Q756 49 839 78T964 156T1022 264T1037 385Q1037
571 938 649T620 727Q401 727 302 649T203 385Q203 324 218 265T275 156T401 78T620 49ZM459 908Q442 908 431 920T431 950L567 1174Q591 1212 620 1212Q649 1212 673 1174L808 950Q819 932 808 920T780 908Q747 908 726 949L620 1157L513 949Q491 908 459 908Z"
/>
<glyph unicode="&#xf5;" glyph-name="otilde" horiz-adv-x="1240" d="M620 -10Q436 -10 327 38T171 174T123 385Q123 597 243 691T620 786Q876 786 996 692T1117 385Q1117 263 1070 175T913 38T620 -10ZM620 49Q756 49 839 78T964 156T1022 264T1037 385Q1037
571 938 649T620 727Q401 727 302 649T203 385Q203 324 218 265T275 156T401 78T620 49ZM423 908Q401 908 395 923T389 954Q389 997 411 1026T488 1055Q543 1055 587 1033T670 989T751 966Q766 966 776 974T787 1010Q787 1028 793 1041T816 1055Q838 1055 844 1041T850
1009Q850 966 828 937T751 908Q714 908 662 930T562 975T488 997Q473 997 463 989T452 953Q452 935 446 922T423 908Z" />
<glyph unicode="&#xf6;" glyph-name="odieresis" horiz-adv-x="1240" d="M620 -10Q436 -10 327 38T171 174T123 385Q123 597 243 691T620 786Q876 786 996 692T1117 385Q1117 263 1070 175T913 38T620 -10ZM620 49Q756 49 839 78T964 156T1022 264T1037 385Q1037
571 938 649T620 727Q401 727 302 649T203 385Q203 324 218 265T275 156T401 78T620 49ZM818 940Q792 940 776 955T760 996Q760 1022 776 1038T818 1055Q843 1055 860 1039T878 996Q878 971 861 956T818 940ZM419 940Q393 940 377 955T361 996Q361 1022 377 1038T419
1055Q444 1055 461 1039T479 996Q479 971 462 956T419 940Z" />
<glyph unicode="&#xf7;" glyph-name="divide" horiz-adv-x="800" d="M413 603Q384 603 367 620T349 665Q349 694 366 712T413 730Q440 730 459 712T479 665Q479 637 460 620T413 603ZM205 448Q186 448 178 459T169 480Q169 492 177 503T205 514H597Q616 514 624
503T633 480Q633 470 625 459T597 448H205ZM413 241Q384 241 367 258T349 303Q349 332 366 350T413 368Q440 368 459 350T479 303Q479 275 460 258T413 241Z" />
<glyph unicode="&#xf8;" glyph-name="oslash" horiz-adv-x="1240" d="M410 -233Q388 -233 381 -221T373 -197Q372 -186 376 -177T385 -155L445 4Q269 36 196 135T123 385Q123 597 243 691T620 786Q651 786 680 785T736 781L795 938Q802 961 811 978T844 996Q865
996 871 985T877 961Q877 951 874 940T867 918L811 770Q968 739 1042 646T1117 385Q1117 263 1070 175T913 38T620 -10Q593 -10 568 -9T519 -6L455 -176Q444 -199 436 -216T410 -233ZM466 62L714 723Q692 725 669 726T620 727Q401 727 302 649T203 385Q203 317
221 251T296 134T466 62ZM620 49Q756 49 839 78T964 156T1022 264T1037 385Q1037 530 978 608T790 713L541 52Q579 49 620 49Z" />
<glyph unicode="&#xf9;" glyph-name="ugrave" horiz-adv-x="1178" d="M545 -10Q331 -10 239 74T147 348V694Q147 720 154 743T187 766Q216 766 221 743T227 694V348Q227 237 253 172T349 78T545 49Q685 49 783 92T939 178V694Q939 720 944 743T976 766Q1006 766
1012 743T1019 694V70Q1019 44 1012 22T981 0Q956 0 948 16T939 70V141Q911 108 861 73T734 14T545 -10ZM667 909Q659 909 652 914L370 1154Q355 1166 355 1182Q355 1204 371 1222T409 1240Q423 1240 434 1229L686 953Q694 945 694 935Q694 909 667 909Z" />
<glyph unicode="&#xfa;" glyph-name="uacute" horiz-adv-x="1178" d="M545 -10Q331 -10 239 74T147 348V694Q147 720 154 743T187 766Q216 766 221 743T227 694V348Q227 237 253 172T349 78T545 49Q685 49 783 92T939 178V694Q939 720 944 743T976 766Q1006 766
1012 743T1019 694V70Q1019 44 1012 22T981 0Q956 0 948 16T939 70V141Q911 108 861 73T734 14T545 -10ZM511 907Q484 907 484 933Q484 943 492 951L744 1227Q755 1238 769 1238Q791 1238 807 1220T823 1180Q823 1164 808 1152L526 912Q519 907 511 907Z" />
<glyph unicode="&#xfb;" glyph-name="ucircumflex" horiz-adv-x="1178" d="M545 -10Q331 -10 239 74T147 348V694Q147 720 154 743T187 766Q216 766 221 743T227 694V348Q227 237 253 172T349 78T545 49Q685 49 783 92T939 178V694Q939 720 944 743T976 766Q1006
766 1012 743T1019 694V70Q1019 44 1012 22T981 0Q956 0 948 16T939 70V141Q911 108 861 73T734 14T545 -10ZM428 908Q411 908 400 920T400 950L536 1174Q560 1212 589 1212Q618 1212 642 1174L777 950Q788 932 777 920T749 908Q716 908 695 949L589 1157L482 949Q460
908 428 908Z" />
<glyph unicode="&#xfc;" glyph-name="udieresis" horiz-adv-x="1178" d="M545 -10Q331 -10 239 74T147 348V694Q147 720 154 743T187 766Q216 766 221 743T227 694V348Q227 237 253 172T349 78T545 49Q685 49 783 92T939 178V694Q939 720 944 743T976 766Q1006
766 1012 743T1019 694V70Q1019 44 1012 22T981 0Q956 0 948 16T939 70V141Q911 108 861 73T734 14T545 -10ZM787 940Q761 940 745 955T729 996Q729 1022 745 1038T787 1055Q812 1055 829 1039T847 996Q847 971 830 956T787 940ZM388 940Q362 940 346 955T330 996Q330
1022 346 1038T388 1055Q413 1055 430 1039T448 996Q448 971 431 956T388 940Z" />
<glyph unicode="&#xfd;" glyph-name="yacute" horiz-adv-x="1170" d="M587 -334Q475 -334 408 -319T303 -282T238 -240Q230 -233 230 -221Q230 -188 261 -188Q269 -188 278 -194Q316 -222 384 -248T587 -275Q725 -275 803 -234T913 -95T946 170Q930 109 884 73T776
19T651 -4T536 -10Q393 -10 308 26T185 150T147 387V694Q147 720 153 743T186 766Q215 766 221 743T227 694V387Q227 257 251 183T342 79T536 49Q613 49 699 64T855 121T946 240V694Q946 720 953 743T984 766Q1013 766 1019 743T1026 694V203Q1026 -2 982 -119T841
-285T587 -334ZM507 907Q480 907 480 933Q480 943 488 951L740 1227Q751 1238 765 1238Q787 1238 803 1220T819 1180Q819 1164 804 1152L522 912Q515 907 507 907Z" />
<glyph unicode="&#xfe;" glyph-name="thorn" horiz-adv-x="1196" d="M139 -337Q110 -337 105 -314T100 -261V1061Q100 1093 111 1101T137 1110Q154 1110 164 1102T175 1061V594Q192 658 244 696T367 754T508 779T630 786Q750 786 850 749T1012 627T1073 396Q1073
176 958 83T630 -10Q488 -10 373 18T178 78V-267Q178 -293 173 -315T139 -337ZM630 49Q822 49 907 131T993 396Q993 522 944 594T813 697T630 727Q570 726 500 718T363 687T248 626T180 524V140Q266 108 378 79T630 49Z" />
<glyph unicode="&#xff;" glyph-name="ydieresis" horiz-adv-x="1170" d="M587 -334Q475 -334 408 -319T303 -282T238 -240Q230 -233 230 -221Q230 -188 261 -188Q269 -188 278 -194Q316 -222 384 -248T587 -275Q725 -275 803 -234T913 -95T946 170Q930 109 884
73T776 19T651 -4T536 -10Q393 -10 308 26T185 150T147 387V694Q147 720 153 743T186 766Q215 766 221 743T227 694V387Q227 257 251 183T342 79T536 49Q613 49 699 64T855 121T946 240V694Q946 720 953 743T984 766Q1013 766 1019 743T1026 694V203Q1026 -2 982
-119T841 -285T587 -334ZM783 940Q757 940 741 955T725 996Q725 1022 741 1038T783 1055Q808 1055 825 1039T843 996Q843 971 826 956T783 940ZM384 940Q358 940 342 955T326 996Q326 1022 342 1038T384 1055Q409 1055 426 1039T444 996Q444 971 427 956T384 940Z"
/>
<glyph unicode="&#x2013;" glyph-name="endash" horiz-adv-x="677" d="M123 514Q109 514 103 526T96 550Q96 563 102 575T123 588H482Q496 588 502 576T509 550Q509 538 503 526T482 514H123Z" />
<glyph unicode="&#x2014;" glyph-name="emdash" horiz-adv-x="1435" d="M122 184Q102 184 94 197T85 228Q85 245 93 258T122 272H1312Q1332 272 1341 259T1350 228Q1350 211 1341 198T1312 184H122Z" />
<glyph unicode="&#x2018;" glyph-name="quoteleft" horiz-adv-x="311" d="M232 1133Q267 1133 267 1113Q267 1096 241 1096Q187 1096 187 1057Q187 1033 197 1018T217 988T227 945Q227 912 208 893T161 874Q127 874 104 899T81 972Q81 1031 123 1082T232 1133Z" />
<glyph unicode="&#x2019;" glyph-name="quoteright" horiz-adv-x="316" d="M86 875Q51 875 51 895Q51 912 77 912Q131 912 131 951Q131 975 121 990T101 1021T91 1063Q91 1096 110 1115T157 1134Q191 1134 214 1109T237 1036Q237 978 195 927T86 875Z" />
<glyph unicode="&#x201a;" glyph-name="quotesinglbase" horiz-adv-x="289" d="M145 -7Q122 -7 119 14L98 186Q94 217 109 228T145 239Q165 239 180 228T191 186L171 14Q168 -7 145 -7Z" />
<glyph unicode="&#x201c;" glyph-name="quotedblleft" horiz-adv-x="512" d="M232 1133Q267 1133 267 1113Q267 1096 241 1096Q187 1096 187 1057Q187 1033 197 1018T217 988T227 945Q227 912 208 893T161 874Q127 874 104 899T81 972Q81 1031 123 1082T232 1133ZM434
1133Q469 1133 469 1113Q469 1096 443 1096Q389 1096 389 1057Q389 1033 399 1018T419 988T429 945Q429 912 410 893T363 874Q329 874 306 899T283 972Q283 1031 325 1082T434 1133Z" />
<glyph unicode="&#x201d;" glyph-name="quotedblright" horiz-adv-x="524" d="M288 875Q253 875 253 895Q253 912 279 912Q333 912 333 951Q333 975 323 990T303 1021T293 1063Q293 1096 312 1115T359 1134Q393 1134 416 1109T439 1036Q439 978 397 927T288 875ZM86
875Q51 875 51 895Q51 912 77 912Q131 912 131 951Q131 975 121 990T101 1021T91 1063Q91 1096 110 1115T157 1134Q191 1134 214 1109T237 1036Q237 978 195 927T86 875Z" />
<glyph unicode="&#x201e;" glyph-name="quotedblbase" horiz-adv-x="445" d="M145 -7Q122 -7 119 14L98 186Q94 217 109 228T145 239Q165 239 180 228T191 186L171 14Q168 -7 145 -7ZM301 -7Q278 -7 275 14L254 186Q250 217 265 228T301 239Q321 239 336 228T347
186L327 14Q324 -7 301 -7Z" />
<glyph unicode="&#x2022;" glyph-name="bullet" horiz-adv-x="851" d="M425 68Q329 68 249 113T122 235T74 403Q74 497 121 573T248 695T425 741Q521 741 601 696T729 574T777 403Q777 310 729 234T601 113T425 68Z" />
<glyph unicode="&#x2039;" glyph-name="guilsinglleft" horiz-adv-x="448" d="M327 37Q312 37 300 49L59 301Q42 318 42 335Q42 350 59 367L300 619Q312 631 327 631Q342 631 353 621T365 596Q365 582 354 571L116 334L354 97Q366 85 366 72Q366 58 354 48T327 37Z" />
<glyph unicode="&#x203a;" glyph-name="guilsinglright" horiz-adv-x="448" d="M121 37Q106 37 94 47T82 72Q82 85 94 97L332 334L94 571Q83 582 83 596Q83 610 94 620T121 631Q136 631 148 619L389 367Q398 358 401 350T406 335Q406 318 389 301L148 49Q136 37 121 37Z" />
</font>
</defs>
</svg>
